<svg width="74" height="62" viewBox="0 0 74 62" fill="none" xmlns="http://www.w3.org/2000/svg">
<path d="M57.5294 52.6442C42.07 62.8753 15.2226 66.8358 1.80899 46.0534C1.80899 46.0434 1.78884 46.0334 1.78884 46.0134C1.7586 45.9734 1.73845 45.9334 1.70821 45.8934C1.67798 45.8534 1.64775 45.8034 1.62759 45.7634C1.43611 45.4634 1.24463 45.1533 1.06323 44.8433C1.06323 44.8433 1.06323 44.8333 1.06323 44.8233L2.38343 42.8631L3.68347 40.9229C3.68347 40.9229 3.68347 40.9229 3.69355 40.9229C3.69355 40.9229 3.7137 40.9229 3.72378 40.9229C3.72378 40.9229 3.73386 40.9229 3.74394 40.9229C3.76409 40.9229 3.79433 40.9229 3.82456 40.9329C3.85479 40.9329 3.88503 40.9429 3.92534 40.9529C3.93542 40.9529 3.94549 40.9529 3.96565 40.9529C4.02612 40.9629 4.10674 40.9829 4.19744 40.9929C4.22767 40.9929 4.26799 41.0029 4.3083 41.0129C4.37884 41.0229 4.44939 41.0429 4.51993 41.0529C4.57032 41.0529 4.62071 41.0729 4.6711 41.0829C4.77188 41.1029 4.88273 41.1229 5.00367 41.1429C5.05406 41.1429 5.10445 41.1629 5.15483 41.1729C5.2153 41.1829 5.28585 41.1929 5.34631 41.2129C5.67888 41.2729 6.05176 41.3429 6.45488 41.4129C6.52542 41.4229 6.59597 41.4329 6.66651 41.4529C7.0797 41.5229 7.53321 41.6029 8.01694 41.6829C8.06733 41.6829 8.11772 41.7029 8.15803 41.7029C8.69216 41.7929 9.26659 41.883 9.88134 41.983C10.0426 42.003 10.2038 42.033 10.3752 42.063C10.4356 42.063 10.4961 42.083 10.5566 42.093C10.6674 42.113 10.7783 42.123 10.8891 42.143C11.131 42.183 11.3729 42.213 11.6147 42.253C11.7357 42.273 11.8566 42.293 11.9775 42.303C12.1589 42.333 12.3504 42.353 12.5318 42.383C12.6527 42.403 12.7636 42.413 12.8845 42.433H12.9047C13.0962 42.463 13.2877 42.483 13.4791 42.513C13.5094 42.513 13.5396 42.513 13.5698 42.523C13.6605 42.533 13.7512 42.543 13.8419 42.563C14.245 42.613 14.6482 42.6731 15.0614 42.7231C15.1823 42.7431 15.3133 42.7531 15.4342 42.7731C15.7164 42.8031 15.9885 42.8431 16.2707 42.8731C16.4118 42.8931 16.5428 42.9031 16.6839 42.9231C16.825 42.9431 16.956 42.9531 17.0971 42.9731C17.2382 42.9931 17.3692 43.0031 17.5103 43.0231C17.5909 43.0231 17.6715 43.0431 17.7622 43.0531C17.8529 43.0631 17.9335 43.0731 18.0242 43.0831C18.2863 43.1131 18.5584 43.1431 18.8204 43.1731C19.0018 43.1931 19.1731 43.2131 19.3545 43.2231C19.5359 43.2431 19.7072 43.2631 19.8886 43.2731C19.9793 43.2731 20.07 43.2931 20.1607 43.3031C20.967 43.3831 21.7732 43.4531 22.5895 43.5131C22.6802 43.5131 22.7709 43.5231 22.8616 43.5331C23.1337 43.5532 23.4058 43.5732 23.6678 43.5932C23.819 43.6032 23.9702 43.6132 24.1213 43.6232C24.1516 43.6232 24.1717 43.6232 24.2019 43.6232C24.2927 43.6232 24.3834 43.6332 24.4741 43.6432C24.857 43.6632 25.24 43.6832 25.6229 43.7032C25.7439 43.7032 25.8648 43.7132 25.9857 43.7232C26.016 43.7232 26.0462 43.7232 26.0764 43.7232C26.1974 43.7232 26.3183 43.7232 26.4292 43.7332C26.4795 43.7332 26.5299 43.7332 26.5803 43.7332C26.671 43.7332 26.7617 43.7332 26.8524 43.7332C26.9935 43.7332 27.1245 43.7332 27.2656 43.7432C27.3865 43.7432 27.4974 43.7432 27.6183 43.7432C27.6687 43.7432 27.709 43.7432 27.7594 43.7432C27.8703 43.7432 27.9811 43.7432 28.092 43.7432C28.1122 43.7432 28.1222 43.7432 28.1424 43.7432C28.2532 43.7432 28.3641 43.7432 28.475 43.7432C30.4301 43.7532 32.2642 43.6832 33.8868 43.4831C40.5381 42.6631 50.9586 36.9624 53.5889 27.8414C56.2192 18.7203 58.0836 15.56 60.1597 13.4997C61.0768 12.5896 62.9714 11.1495 65.5715 11.6195C66.7103 11.8195 67.9801 12.3796 69.3507 13.4997C76.5765 19.3704 73.2911 42.173 57.5294 52.6042V52.6442Z" fill="white" stroke="black" stroke-width="0.25" stroke-miterlimit="10"/>
<path d="M50.3136 46.7835C37.021 55.5845 16.694 56.4946 2.77646 43.2431C2.64545 43.1131 2.51443 42.9931 2.38342 42.8631L3.68346 40.9229C3.68346 40.9229 3.68346 40.9229 3.69354 40.9229C3.69354 40.9229 3.7137 40.9229 3.72378 40.9229C3.72378 40.9229 3.73385 40.9229 3.74393 40.9229C3.76409 40.9229 3.79432 40.9229 3.82455 40.9329C3.85479 40.9329 3.88502 40.9429 3.92533 40.9529C3.93541 40.9529 3.94549 40.9529 3.96564 40.9529C4.02611 40.9629 4.10673 40.9829 4.19743 40.9929C4.22767 40.9929 4.26798 41.0029 4.30829 41.0129C4.37884 41.0229 4.44938 41.0429 4.51992 41.0529C4.57031 41.0529 4.6207 41.0729 4.67109 41.0829C4.77187 41.1029 4.88273 41.1229 5.00366 41.1429C5.05405 41.1429 5.10444 41.1629 5.15483 41.1729C5.2153 41.1829 5.28584 41.1929 5.34631 41.2129C5.67888 41.2729 6.05176 41.3429 6.45487 41.4129C6.52541 41.4229 6.59596 41.4329 6.6665 41.4529C7.0797 41.5229 7.5332 41.6029 8.01693 41.6829C8.06732 41.6829 8.11771 41.7029 8.15802 41.7029C8.69215 41.7929 9.26659 41.883 9.88133 41.983C10.0426 42.013 10.2038 42.033 10.3751 42.063C10.4356 42.063 10.4961 42.083 10.5565 42.093C10.6674 42.113 10.7783 42.123 10.8891 42.143C11.131 42.183 11.3729 42.213 11.6147 42.253C11.7357 42.273 11.8566 42.293 11.9775 42.303C12.1589 42.333 12.3504 42.353 12.5318 42.383C12.6527 42.403 12.7636 42.413 12.8845 42.433H12.9047C13.0962 42.463 13.2876 42.483 13.4791 42.513C13.5094 42.513 13.5396 42.513 13.5698 42.523C13.6605 42.533 13.7512 42.543 13.8419 42.563C14.245 42.613 14.6482 42.6731 15.0613 42.7231C15.1823 42.7431 15.3133 42.7531 15.4342 42.7731C15.7164 42.8031 15.9885 42.8431 16.2707 42.8731C16.4118 42.8931 16.5428 42.9031 16.6839 42.9231C16.825 42.9431 16.956 42.9531 17.0971 42.9731C17.2382 42.9931 17.3692 43.0031 17.5103 43.0231C17.5909 43.0231 17.6715 43.0431 17.7622 43.0531C17.8529 43.0631 17.9335 43.0731 18.0242 43.0831C18.2863 43.1131 18.5584 43.1431 18.8204 43.1731C19.0018 43.1931 19.1731 43.2131 19.3545 43.2231C19.5359 43.2431 19.7072 43.2631 19.8886 43.2731C19.9793 43.2731 20.07 43.2931 20.1607 43.3031C20.967 43.3831 21.7732 43.4531 22.5895 43.5131C22.6802 43.5131 22.7709 43.5231 22.8616 43.5331C23.1337 43.5532 23.4058 43.5732 23.6678 43.5932C23.819 43.6032 23.9702 43.6132 24.1213 43.6232C24.1516 43.6232 24.1717 43.6232 24.2019 43.6232C24.2926 43.6232 24.3833 43.6332 24.474 43.6432C24.857 43.6632 25.24 43.6832 25.6229 43.7032C25.7439 43.7032 25.8648 43.7132 25.9857 43.7232C26.016 43.7232 26.0462 43.7232 26.0764 43.7232C26.1974 43.7232 26.3183 43.7232 26.4291 43.7332C26.4795 43.7332 26.5299 43.7332 26.5803 43.7332C26.671 43.7332 26.7617 43.7332 26.8524 43.7332C26.9935 43.7332 27.1245 43.7332 27.2656 43.7432C27.3865 43.7432 27.4974 43.7432 27.6183 43.7432C27.6687 43.7432 27.709 43.7432 27.7594 43.7432C27.8703 43.7432 27.9811 43.7432 28.092 43.7432C28.1121 43.7432 28.1222 43.7432 28.1424 43.7432C28.2532 43.7432 28.3641 43.7432 28.4749 43.7432C30.43 43.7532 32.2642 43.6832 33.8867 43.4831C40.5381 42.6631 50.9586 36.9624 53.5889 27.8414C56.2192 18.7203 58.0836 15.56 60.1597 13.4997C61.0768 12.5896 62.9714 11.1495 65.5715 11.6195C66.8816 22.1107 62.0644 38.9526 50.3136 46.7335V46.7835Z" fill="white" stroke="black" stroke-width="0.25" stroke-miterlimit="10"/>
<path d="M5.35592 41.2225C5.35592 41.2225 5.35592 41.2225 5.34585 41.2225C5.18462 41.2825 3.51189 41.9525 2.77629 43.2325C2.74606 43.2825 2.7259 43.3225 2.69567 43.3725C2.20192 44.3525 1.92985 45.4425 1.80893 46.0425C1.80893 46.0325 1.78877 46.0225 1.78877 46.0025C1.75854 45.9625 1.73839 45.9225 1.70816 45.8825C1.67793 45.8425 1.6477 45.7925 1.62755 45.7525C1.3857 45.3725 1.10356 44.9225 1.06325 44.8325C0.982637 44.6425 0.982637 44.2225 1.0431 43.9725C1.14386 43.5625 1.49655 42.9525 1.99031 42.3625C2.34299 41.9425 2.73598 41.5625 3.1189 41.2025C3.60258 40.7525 4.12657 40.8725 4.33818 40.9325L5.35592 41.2225Z" fill="white" stroke="black" stroke-width="0.25" stroke-miterlimit="10"/>
<path d="M65.6723 12.5397C64.3017 12.3996 62.4877 11.9796 62.4877 11.9796C62.4877 11.9796 64.2513 9.46931 63.9087 6.65899C63.8079 5.8489 63.5358 5.14882 63.2032 4.56875C62.9513 4.1287 62.4373 4.42874 62.1551 4.1187C61.9939 3.94868 61.6815 3.31861 61.6109 3.10859C61.4598 2.64853 61.6109 2.07847 62.0241 1.82844L62.921 1.27838C63.0117 1.21837 63.1125 1.16837 63.2133 1.12836C63.6567 0.948343 64.1707 0.918337 64.4428 1.29838C64.5537 1.4484 64.9265 1.84844 65.0475 2.03847C65.1986 2.26849 64.9467 2.64853 65.118 2.90856C65.894 4.16871 66.5995 5.58887 66.5995 6.92902C66.5995 9.3493 66.408 11.0695 67.1134 12.1496C67.4057 12.5997 66.6398 12.6497 65.6622 12.5497L65.6723 12.5397Z" fill="white" stroke="black" stroke-width="0.25" stroke-miterlimit="10"/>
<path d="M65.6723 12.5392C64.3017 12.3992 62.4877 11.9792 62.4877 11.9792C62.4877 11.9792 64.2513 9.46888 63.9087 6.65856C63.8079 5.84846 63.5358 5.14838 63.2032 4.56832C62.9513 4.12827 62.4373 4.4283 62.1551 4.11827C61.9939 3.94825 61.6815 3.31818 61.6109 3.10815C61.4598 2.6481 61.6109 2.07804 62.0241 1.82801L62.5078 1.52797L62.921 1.27794C63.0117 1.21794 63.1125 1.16793 63.2133 1.12793C63.7172 1.56798 64.3319 2.04803 64.3722 2.36807C64.4428 2.96814 64.1707 3.23817 64.1707 3.43819C64.1707 3.63822 65.4506 5.44842 65.7932 7.0586C66.0552 8.29874 66.0553 10.9991 65.6622 12.5392H65.6723Z" fill="white" stroke="black" stroke-width="0.25" stroke-miterlimit="10"/>
</svg>
