<svg width="59" height="60" viewBox="0 0 59 60" fill="none" xmlns="http://www.w3.org/2000/svg">
<path d="M49.6921 11.9359C46.9926 10.7656 41.6424 8.92334 36.3935 10.5859C33.174 11.6057 32.167 13.0768 28.9242 11.9261C27.6621 11.4787 23.8797 9.37463 23.3422 9.15582C18.8489 7.31548 12.6261 7.58704 8.55161 10.4394C4.07199 13.575 2.01136 19.3734 1.20503 24.6034C0.573987 28.6943 1.54977 34.0962 2.11459 36.3605C2.67941 38.6267 8.0647 54.1759 14.1959 57.288C17.1798 58.8431 21.151 58.5872 24.2381 57.7218C24.6413 57.6084 26.0299 57.204 26.0085 57.2099C26.0124 57.2099 26.3318 57.2177 26.4896 57.2118C26.7194 57.2587 27.0525 57.3213 27.1128 57.3369C28.5346 57.7198 29.8629 58.3665 31.2302 58.8979C34.736 60.2615 39.7103 60.6112 42.9025 58.4798C51.6261 52.654 58.069 40.4592 58.8072 30.4956C59.4849 21.3447 55.0482 14.2529 49.6921 11.932V11.9359Z" fill="#D90E1D"/>
<mask id="mask0_168_10590" style="mask-type:luminance" maskUnits="userSpaceOnUse" x="1" y="7" width="58" height="53">
<path d="M49.6921 11.9359C46.9926 10.7656 41.6424 8.92334 36.3935 10.5859C33.174 11.6057 32.167 13.0768 28.9242 11.9261C27.6621 11.4787 23.8797 9.37463 23.3422 9.15582C18.8489 7.31548 12.6261 7.58704 8.55161 10.4394C4.07199 13.575 2.01136 19.3734 1.20503 24.6034C0.573987 28.6943 1.54977 34.0962 2.11459 36.3605C2.67941 38.6267 8.0647 54.1759 14.1959 57.288C17.1798 58.8431 21.151 58.5872 24.2381 57.7218C24.6413 57.6084 26.0299 57.204 26.0085 57.2099C26.0124 57.2099 26.3318 57.2177 26.4896 57.2118C26.7194 57.2587 27.0525 57.3213 27.1128 57.3369C28.5346 57.7198 29.8629 58.3665 31.2302 58.8979C34.736 60.2615 39.7103 60.6112 42.9025 58.4798C51.6261 52.654 58.069 40.4592 58.8072 30.4956C59.4849 21.3447 55.0482 14.2529 49.6921 11.932V11.9359Z" fill="white"/>
</mask>
<g mask="url(#mask0_168_10590)">
<path d="M38.495 58.4112C35.5131 58.4249 31.6665 57.8818 29.2475 55.8519C28.1704 55.4807 27.0758 55.1818 25.9793 55.2053C24.1271 55.2443 22.3995 56.1977 20.5434 56.3697C18.7983 56.5318 16.9947 56.3677 15.3548 55.7269C14.8192 55.5179 14.342 55.2404 13.8882 54.9357C13.8103 54.8673 13.7402 54.7891 13.6623 54.7208C11.8568 53.8807 10.3064 52.3842 9.06383 50.876C8.70741 50.4423 8.36462 49.9968 8.02378 49.5494C7.92445 49.4166 7.82317 49.2857 7.72579 49.1529C7.51155 48.9966 7.29341 48.6273 7.12591 48.4359C6.91751 48.1995 6.70521 47.965 6.49292 47.7306C5.5483 46.6815 4.55305 45.5855 3.95511 44.2922C3.86357 44.0948 3.83436 43.8936 3.77982 43.6943C3.72139 43.7158 3.65517 43.7217 3.60453 43.7529C3.37276 43.9014 3.1702 44.1241 3.10788 44.4016C3.03971 44.6985 3.08451 44.9623 3.21695 45.2377C3.73697 46.3161 4.43034 47.3066 5.22888 48.1936C6.50266 50.1531 7.93808 51.9993 9.52738 53.7088C10.4428 54.8829 11.4458 55.9398 12.6651 56.7487C12.78 56.8483 12.8851 56.9577 13.002 57.0554C13.2065 57.2273 13.4519 57.323 13.6993 57.3465C13.7343 57.3641 13.7635 57.3875 13.8006 57.4051C15.5262 58.2237 17.4349 58.5988 19.3397 58.5929C20.372 58.591 21.4101 58.4718 22.4229 58.2686C23.4532 58.0615 24.4309 57.6102 25.4632 57.4324C26.7642 57.2078 28.0321 57.7958 29.2436 58.208C30.4063 58.6027 31.573 58.9915 32.763 59.2982C34.96 59.8687 37.2465 60.1754 39.5 59.7788C41.3483 59.4545 42.9921 58.5949 44.5288 57.5243C42.5617 58.0752 40.5381 58.3995 38.4969 58.4093L38.495 58.4112Z" fill="#C41114"/>
<path d="M41.0346 13.4516C40.2458 13.4868 39.4453 13.6665 38.674 13.9576C36.8179 13.9674 34.952 14.1237 33.1056 14.2155C31.0684 14.3151 26.059 15.5186 24.2808 14.3699C24.1542 14.2878 24.0334 14.2448 23.9088 14.1725C23.3303 13.6157 22.6408 13.1078 21.741 12.7112C9.42593 7.29566 4.77102 18.9121 6.92903 28.5788C7.24455 34.7875 11.097 39.91 16.6634 43.5145C23.4549 47.9141 32.3928 46.9099 39.6128 44.2706C47.7345 41.303 53.5386 36.4305 53.4509 27.1135C53.3827 19.8342 48.9129 13.1058 41.0365 13.4555L41.0346 13.4516Z" fill="#E52C27"/>
<path d="M42.3376 18.5332C41.6053 17.7595 40.7405 17.3024 39.8173 17.0562C38.3215 16.3764 36.6932 16.1068 35.0533 16.0462C33.5595 15.9915 32.0208 16.1986 30.5737 16.5659C30.4159 16.6049 30.266 16.6694 30.114 16.73C29.9582 16.7378 29.8005 16.7358 29.6447 16.7456C28.4527 16.8257 27.2782 16.9292 26.1019 17.0054C26.0532 16.9918 26.0025 16.9839 25.9538 16.9703C25.7045 16.896 25.4572 16.8159 25.2098 16.7319C25.1008 16.6948 24.3743 16.4018 24.2126 16.3471C22.7616 15.6594 21.4041 14.661 19.8752 14.1648C18.8682 13.6197 17.7951 13.5357 16.7531 13.8307C15.6059 14.0046 14.5951 14.3113 13.6193 15.1514C12.4312 16.1771 11.7417 17.8436 11.732 19.4006C11.7242 20.5533 12.0748 21.6141 12.6201 22.5812C13.4557 24.5505 15.0411 26.3322 16.6031 27.7779C19.5382 30.4935 22.9875 31.6051 26.8614 32.1717C30.9262 32.7675 34.9014 32.6405 38.6935 30.9135C40.349 30.1594 41.9091 29.0693 42.9141 27.522C43.3952 26.7796 43.6639 25.961 43.773 25.1268C44.3592 22.8273 43.9795 20.2719 42.3337 18.5332H42.3376Z" fill="#E83A3D"/>
<path d="M30.8309 20.7078C30.8425 20.0299 30.6283 19.3051 30.0323 18.9202C29.4208 18.5256 28.7157 18.676 28.034 18.6701C25.2528 18.6447 23.0499 17.1424 20.8023 15.7025C19.626 14.9484 18.1438 14.5245 16.835 15.22C15.8358 15.7514 15.5086 16.6735 15.4696 17.664C15.3761 18.0352 15.4034 18.4201 15.5008 18.8049C15.3917 19.645 15.8358 20.657 16.2545 21.3212C16.9966 22.4915 17.9899 23.4761 19.141 24.238C21.3827 25.7228 24.5574 26.4144 27.1108 25.3575C27.6562 25.1309 28.2677 24.7226 28.7332 24.2127C28.9124 24.0974 29.0974 23.9958 29.2669 23.8532C30.1862 23.0854 30.8114 21.9171 30.8328 20.7058L30.8309 20.7078Z" fill="#EB5D61"/>
<path d="M37.1139 12.3616C36.6075 12.2112 36.0563 12.3675 35.5577 12.4652L34.0541 12.7543C32.8855 12.979 31.7169 13.2036 30.5483 13.4283C30.4821 13.442 30.4315 13.485 30.3731 13.5123C30.2737 13.5162 30.1763 13.5221 30.077 13.5279C29.9913 13.4693 29.9037 13.4107 29.8043 13.3717C28.9396 13.0317 28.0573 12.7523 27.1497 12.5531C26.281 12.3616 25.2838 12.1252 24.3918 12.1682C23.4491 12.2131 22.7674 13.0903 22.9973 14.0222C23.2018 14.8506 23.9906 15.2745 24.7073 15.5949C25.4007 15.9055 26.1233 16.1107 26.8575 16.2611C29.4187 17.277 32.4123 17.0856 35.0358 16.1302C35.9122 15.8118 37.1003 15.4757 37.745 14.7627C38.4773 13.9538 38.1773 12.6781 37.1139 12.3616Z" fill="#C41114"/>
</g>
<path d="M28.149 0.00727583C28.5404 0.0737001 29.0079 0.312046 29.4695 0.3941C29.8843 0.466385 30.2953 0.380424 30.642 0.442941C31.1815 0.53867 31.5632 1.01732 31.5418 1.56629C31.5418 1.56629 31.1951 14.4956 31.0276 14.7789C30.8601 15.0622 30.0791 15.1286 29.8493 14.7789C29.6117 14.5015 27.4088 0.759433 27.4088 0.759433C27.3329 0.319861 27.7127 -0.0650094 28.1509 0.00922948L28.149 0.00727583Z" fill="#61340F"/>
</svg>
