<svg width="60" height="62" viewBox="0 0 60 62" fill="none" xmlns="http://www.w3.org/2000/svg">
<path d="M49.8607 12.9347C47.1498 11.7643 41.7879 9.92369 36.5161 11.5843C33.285 12.6046 32.2747 14.0751 29.0235 12.9247C27.7531 12.4746 23.9618 10.3738 23.4216 10.1538C18.9101 8.31314 12.6679 8.58324 8.57651 11.4342C4.08496 14.5753 2.01425 20.3673 1.20397 25.5991C0.573752 29.6905 1.55409 35.0923 2.11428 37.3631C2.68448 39.6339 8.08634 55.1792 14.2385 58.3003C17.2295 59.8508 21.2208 59.6008 24.3119 58.7305C24.722 58.6204 26.1125 58.2103 26.0925 58.2203C26.0925 58.2203 26.4126 58.2203 26.5727 58.2203C26.8028 58.2703 27.1329 58.3303 27.1929 58.3403C28.6234 58.7205 29.9539 59.3707 31.3243 59.9009C34.8455 61.2613 39.8372 61.6115 43.0383 59.4807C51.7914 53.6587 58.2536 41.4545 58.9938 31.4911C59.6741 22.338 55.2225 15.2455 49.8507 12.9247L49.8607 12.9347Z" fill="white"/>
<mask id="mask0_144_20543" style="mask-type:luminance" maskUnits="userSpaceOnUse" x="1" y="8" width="59" height="53">
<path d="M49.8607 12.9347C47.1498 11.7643 41.7879 9.92369 36.5161 11.5843C33.285 12.6046 32.2747 14.0751 29.0235 12.9247C27.7531 12.4746 23.9618 10.3738 23.4216 10.1538C18.9101 8.31314 12.6679 8.58324 8.57651 11.4342C4.08496 14.5753 2.01425 20.3673 1.20397 25.5991C0.573752 29.6905 1.55409 35.0923 2.11428 37.3631C2.68448 39.6339 8.08634 55.1792 14.2385 58.3003C17.2295 59.8508 21.2208 59.6008 24.3119 58.7305C24.722 58.6204 26.1125 58.2103 26.0925 58.2203C26.0925 58.2203 26.4126 58.2203 26.5727 58.2203C26.8028 58.2703 27.1329 58.3303 27.1929 58.3403C28.6234 58.7205 29.9539 59.3707 31.3243 59.9009C34.8455 61.2613 39.8372 61.6115 43.0383 59.4807C51.7914 53.6587 58.2536 41.4545 58.9938 31.4911C59.6741 22.338 55.2225 15.2455 49.8507 12.9247L49.8607 12.9347Z" fill="white"/>
</mask>
<g mask="url(#mask0_144_20543)">
<g opacity="0.36">
<path d="M34.2553 14.3543C33.9752 14.2743 33.6751 14.3543 33.395 14.4143L32.5648 14.5744C31.9245 14.6944 31.2843 14.8244 30.6341 14.9445C30.5941 14.9445 30.5741 14.9745 30.5341 14.9945C30.484 14.9945 30.424 14.9945 30.374 14.9945C30.324 14.9645 30.274 14.9345 30.224 14.9045C29.7538 14.7144 29.2636 14.5644 28.7634 14.4543C28.2833 14.3543 27.7431 14.2242 27.2429 14.2442C26.7228 14.2643 26.3526 14.7544 26.4727 15.2646C26.5827 15.7147 27.0229 15.9548 27.413 16.1249C27.7931 16.2949 28.1933 16.405 28.5934 16.485C30.0039 17.0452 31.6444 16.9352 33.0849 16.415C33.5651 16.2449 34.2153 16.0549 34.5755 15.6647C34.9756 15.2246 34.8155 14.5243 34.2253 14.3443L34.2553 14.3543Z" fill="black"/>
</g>
</g>
<path d="M49.8607 12.9347C47.1498 11.7643 41.7879 9.92369 36.5161 11.5843C33.285 12.6046 32.2747 14.0751 29.0235 12.9247C27.7531 12.4746 23.9618 10.3738 23.4216 10.1538C18.9101 8.31314 12.6679 8.58324 8.57651 11.4342C4.08496 14.5753 2.01425 20.3673 1.20397 25.5991C0.573752 29.6905 1.55409 35.0923 2.11428 37.3631C2.68448 39.6339 8.08634 55.1792 14.2385 58.3003C17.2295 59.8508 21.2208 59.6008 24.3119 58.7305C24.722 58.6204 26.1125 58.2103 26.0925 58.2203C26.0925 58.2203 26.4126 58.2203 26.5727 58.2203C26.8028 58.2703 27.1329 58.3303 27.1929 58.3403C28.6234 58.7205 29.9539 59.3707 31.3243 59.9009C34.8455 61.2613 39.8372 61.6115 43.0383 59.4807C51.7914 53.6587 58.2536 41.4545 58.9938 31.4911C59.6741 22.338 55.2225 15.2455 49.8507 12.9247L49.8607 12.9347Z" stroke="black" stroke-width="0.25" stroke-miterlimit="10"/>
<path d="M28.2433 1.01049C28.6334 1.08052 29.1036 1.3206 29.5637 1.40062C29.9839 1.47065 30.394 1.39062 30.7441 1.45064C31.2843 1.55068 31.6644 2.02084 31.6444 2.57103C31.6444 2.57103 31.2943 15.5055 31.1243 15.7856C30.9542 16.0657 30.1739 16.1357 29.9439 15.7856C29.7038 15.5055 27.493 1.76075 27.493 1.76075C27.413 1.3206 27.7931 0.930464 28.2333 1.01049H28.2433Z" fill="white" stroke="black" stroke-width="0.25" stroke-miterlimit="10"/>
</svg>
