<svg width="75" height="78" viewBox="0 0 75 78" fill="none" xmlns="http://www.w3.org/2000/svg">
<path d="M62.7345 16.1175C59.3006 14.635 52.5089 12.3035 45.8313 14.4069C41.7386 15.6994 40.4588 17.562 36.3407 16.1048C34.7315 15.5347 29.9292 12.8737 29.2449 12.595C23.5303 10.2635 15.6236 10.6056 10.4411 14.2169C4.75186 18.1956 2.12895 25.5321 1.1026 32.159C0.304324 37.3415 1.54609 44.1838 2.25567 47.0602C2.97791 49.9365 9.82027 69.6272 17.6129 73.5806C21.4016 75.5446 26.4573 75.2278 30.3727 74.1255C30.8922 73.9861 32.6534 73.4666 32.6281 73.4792C32.6281 73.4792 33.0336 73.4792 33.2363 73.4792C33.5278 73.5426 33.9459 73.6186 34.0219 73.6313C35.8339 74.1128 37.5191 74.9364 39.2551 75.608C43.7153 77.3312 50.0381 77.7747 54.0928 75.0758C65.18 67.7012 73.3654 52.2426 74.3031 39.6223C75.1647 28.0283 69.5261 19.0445 62.7218 16.1048L62.7345 16.1175Z" fill="white"/>
<mask id="mask0_177_23443" style="mask-type:luminance" maskUnits="userSpaceOnUse" x="0" y="11" width="75" height="66">
<path d="M62.7345 16.1175C59.3006 14.635 52.5089 12.3035 45.8313 14.4069C41.7386 15.6994 40.4588 17.562 36.3407 16.1048C34.7315 15.5347 29.9292 12.8737 29.2449 12.595C23.5303 10.2635 15.6236 10.6056 10.4411 14.2169C4.75186 18.1956 2.12895 25.5321 1.1026 32.159C0.304324 37.3415 1.54609 44.1838 2.25567 47.0602C2.97791 49.9365 9.82027 69.6272 17.6129 73.5806C21.4016 75.5446 26.4573 75.2278 30.3727 74.1255C30.8922 73.9861 32.6534 73.4666 32.6281 73.4792C32.6281 73.4792 33.0336 73.4792 33.2363 73.4792C33.5278 73.5426 33.9459 73.6186 34.0219 73.6313C35.8339 74.1128 37.5191 74.9364 39.2551 75.608C43.7153 77.3312 50.0381 77.7747 54.0928 75.0758C65.18 67.7012 73.3654 52.2426 74.3031 39.6223C75.1647 28.0283 69.5261 19.0445 62.7218 16.1048L62.7345 16.1175Z" fill="white"/>
</mask>
<g mask="url(#mask0_177_23443)">
<g opacity="0.36">
<path d="M42.9677 17.9154C42.6129 17.8141 42.2328 17.9154 41.878 17.9914L40.8263 18.1942C40.0153 18.3462 39.2044 18.511 38.3808 18.663C38.3301 18.663 38.3047 18.701 38.2541 18.7264C38.1907 18.7264 38.1147 18.7264 38.0513 18.7264C37.988 18.6884 37.9246 18.6503 37.8613 18.6123C37.2657 18.3716 36.6448 18.1815 36.0113 18.0421C35.4031 17.9154 34.7188 17.7507 34.0853 17.776C33.4264 17.8014 32.9576 18.4223 33.1096 19.0685C33.249 19.6387 33.8065 19.9428 34.3007 20.1582C34.7822 20.3736 35.289 20.513 35.7959 20.6143C37.5825 21.3239 39.6605 21.1845 41.4852 20.5257C42.0934 20.3102 42.917 20.0695 43.3732 19.5753C43.88 19.0178 43.6773 18.1308 42.9297 17.9028L42.9677 17.9154Z" fill="black"/>
</g>
</g>
<path d="M62.7345 16.1175C59.3006 14.635 52.5089 12.3035 45.8313 14.4069C41.7386 15.6994 40.4588 17.562 36.3407 16.1048C34.7315 15.5347 29.9292 12.8737 29.2449 12.595C23.5303 10.2635 15.6236 10.6056 10.4411 14.2169C4.75186 18.1956 2.12895 25.5321 1.1026 32.159C0.304324 37.3415 1.54609 44.1838 2.25567 47.0602C2.97791 49.9365 9.82027 69.6272 17.6129 73.5806C21.4016 75.5446 26.4573 75.2278 30.3727 74.1255C30.8922 73.9861 32.6534 73.4666 32.6281 73.4792C32.6281 73.4792 33.0336 73.4792 33.2363 73.4792C33.5278 73.5426 33.9459 73.6186 34.0219 73.6313C35.8339 74.1128 37.5191 74.9364 39.2551 75.608C43.7153 77.3312 50.0381 77.7747 54.0928 75.0758C65.18 67.7012 73.3654 52.2426 74.3031 39.6223C75.1647 28.0283 69.5261 19.0445 62.7218 16.1048L62.7345 16.1175Z" stroke="black" stroke-width="0.316667" stroke-miterlimit="10"/>
<path d="M35.3524 1.01329C35.8466 1.10199 36.4421 1.40609 37.025 1.50746C37.5572 1.59616 38.0767 1.49479 38.5202 1.57082C39.2044 1.69753 39.6859 2.29307 39.6606 2.98997C39.6606 2.98997 39.2171 19.3736 39.0017 19.7284C38.7863 20.0832 37.7979 20.1719 37.5065 19.7284C37.2024 19.3736 34.4021 1.96362 34.4021 1.96362C34.3007 1.40609 34.7822 0.911921 35.3398 1.01329H35.3524Z" fill="white" stroke="black" stroke-width="0.316667" stroke-miterlimit="10"/>
</svg>
