<svg width="55" height="54" viewBox="0 0 55 54" fill="none" xmlns="http://www.w3.org/2000/svg">
<path d="M33.8347 49.3139C33.6268 50.0417 32.4675 50.2965 32.01 49.8858C31.4849 49.4075 31.6929 46.673 31.355 46.439C31.0222 46.2051 29.7902 45.9504 29.0623 46.4546C28.3449 46.9589 27.5807 46.1427 28.0538 45.5761C28.0746 45.5553 28.0954 45.5293 28.1162 45.5137C28.0486 46.0179 28.6672 46.5066 29.2703 46.0855C29.9981 45.5812 31.2302 45.836 31.5629 46.0699C31.9008 46.3038 31.6929 49.0384 32.2179 49.5063C32.5871 49.8442 33.4188 49.7454 33.8347 49.3087V49.3139Z" fill="#C78408"/>
<path d="M39.9849 48.6809C39.8861 48.9617 39.6834 49.2424 39.4027 49.3464C38.8204 49.5699 38.3889 49.6167 37.999 49.31C37.6091 48.9929 37.084 48.317 36.1587 47.7192C35.2281 47.1317 33.8921 46.9134 33.8921 46.9134H33.6581C33.5801 46.6846 33.5229 46.5391 33.5229 46.5391H34.1C34.1 46.5391 35.4361 46.7522 36.3666 47.3501C37.292 47.9479 37.8223 48.6237 38.207 48.9304C38.5969 49.2476 39.0284 49.2008 39.6106 48.9668C39.7614 48.9097 39.8913 48.8057 39.9849 48.6757V48.6809Z" fill="#C78408"/>
<path d="M42.4853 46.2319C42.5321 46.5439 42.3086 46.7206 41.6639 46.6426C40.8269 46.5335 39.8808 45.7328 38.893 45.5873C38.4043 45.5093 37.7077 45.5457 37.1722 45.6029C36.8291 45.4313 36.6056 45.3273 36.6056 45.3273C36.6056 45.3273 38.2016 45.0778 39.101 45.213C40.0887 45.369 41.0349 46.1695 41.8615 46.2735C42.1474 46.3099 42.3553 46.2995 42.4853 46.2371V46.2319Z" fill="#C78408"/>
<path d="M42.4854 46.2319C42.4178 46.2683 42.3242 46.2839 42.215 46.2891C42.1215 46.2943 41.9967 46.2891 41.8615 46.2683C41.0349 46.1643 40.0888 45.3637 39.101 45.2078C38.2016 45.0726 36.6056 45.3222 36.6056 45.3222C36.6056 45.3222 36.8344 45.4261 37.1723 45.5977C38.1756 46.1072 40.1771 47.1833 40.2603 47.8227C40.2811 47.9735 40.2499 48.1762 40.1668 48.3582C40.12 48.4674 40.0576 48.5766 39.99 48.6649C39.99 48.6649 39.9883 48.6684 39.9848 48.6753C39.8912 48.8053 39.7665 48.9092 39.6157 48.9664H39.6053C39.023 49.2004 38.5915 49.2472 38.2016 48.93C37.8169 48.6233 37.2867 47.9475 36.3613 47.3496C35.4307 46.7518 34.0947 46.5439 34.0947 46.5439H33.5176C33.5176 46.5439 33.5748 46.6842 33.6528 46.913C33.7828 47.3029 33.8659 47.8851 33.9491 48.5141C33.9855 48.8105 34.0011 48.9457 33.8295 49.3096C33.7724 49.4291 33.684 49.5227 33.5748 49.5851C33.2941 49.767 32.8626 49.7826 32.5351 49.6683C32.4727 49.6579 32.4103 49.6319 32.3583 49.6007V49.5903C32.3583 49.5903 32.3219 49.5851 32.3063 49.5695C32.2751 49.5539 32.2439 49.5279 32.2076 49.5019C31.6825 49.034 31.8956 46.2943 31.5525 46.0656C31.2198 45.8316 29.9877 45.5769 29.2599 46.0812C29.0104 46.2527 28.7556 46.2787 28.5529 46.2007C28.2618 46.0967 28.0746 45.8056 28.1058 45.5093C28.111 45.4989 28.1214 45.4989 28.1266 45.4885C28.5997 44.979 29.3015 44.7035 29.6758 44.7347C30.0761 44.7659 30.7415 44.3916 30.7415 44.3916L30.5544 44.2044L27.4456 41.1944L27.8511 41.0176L28.1838 40.8669L30.5544 39.8271L32.8886 43.591C32.8886 43.591 34.3754 43.2895 36.1482 43.4142C38.238 43.5546 40.5878 43.9757 41.2481 44.5579C41.534 44.8231 41.8303 45.1142 42.0487 45.4053C42.2878 45.7069 42.449 46.0032 42.475 46.2215L42.4854 46.2319Z" fill="#E89A09"/>
<path d="M41.7107 45.4886C42.0902 45.2962 42.4749 45.4626 42.7193 45.9825C42.8128 46.18 42.8336 46.4867 42.7037 46.7259C42.7037 46.7259 42.5841 46.5751 42.3449 46.3724C42.1058 46.1696 41.7367 46.2632 41.5547 46.0553C41.4196 45.8993 41.3364 45.6809 41.7107 45.4886Z" fill="#FEC00D"/>
<path d="M28.6048 45.4989C28.2045 45.3482 27.8406 45.5561 27.6535 46.0968C27.5807 46.3047 27.5911 46.6115 27.7522 46.835C27.7522 46.835 27.8562 46.6686 28.0746 46.4451C28.2929 46.2216 28.6672 46.2683 28.8232 46.0448C28.9427 45.8784 29.0051 45.6497 28.6048 45.4989Z" fill="#FEC00D"/>
<path d="M38.8463 47.8178C39.3713 47.5527 39.9016 47.7814 40.2343 48.4988C40.3643 48.7743 40.3955 49.1954 40.2083 49.5229C40.2083 49.5229 40.042 49.3098 39.7092 49.0343C39.3765 48.7587 38.8723 48.8835 38.6227 48.5976C38.4356 48.3844 38.316 48.0829 38.8411 47.8178H38.8463Z" fill="#FEC00D"/>
<path d="M32.8053 48.9244C33.3824 48.8256 33.7099 49.1531 33.5227 49.9225C33.45 50.2136 33.19 50.6555 32.8469 50.7959C32.8469 50.7959 32.5974 50.5828 32.5142 50.1617C32.431 49.7406 32.353 49.8185 32.3374 49.439C32.3218 49.1583 32.379 49.0023 32.8053 48.9295V48.9244Z" fill="#FEC00D"/>
<path d="M30.752 44.4017L30.5649 44.2145L27.4561 41.2045L27.8616 41.0277L28.1943 40.877C28.9897 41.8075 30.9912 44.1365 31.2199 44.2353C31.5058 44.3601 30.752 44.4017 30.752 44.4017Z" fill="#C78408"/>
<path d="M50.98 11.6921C50.928 12.1964 50.8292 12.7006 50.6785 13.2049C50.0234 15.3936 48.5002 17.7746 46.5403 19.3342C45.8437 19.9216 45.0587 20.3947 44.2425 20.7118C44.5804 22.8329 44.4504 25.084 43.7954 27.2882C43.078 29.6796 41.8095 32.0242 40.0368 34.1453C39.4649 34.8627 38.8255 35.5437 38.1288 36.1727C35.0512 39.0736 26.9984 43.8876 17.4952 42.432C11.2776 41.4806 8.5015 39.6819 6.62997 37.8883C5.76179 37.0617 5.09116 36.2299 4.36854 35.4917C4.23338 35.3566 4.10861 35.2214 3.98384 35.081C1.91476 32.8352 0.67228 30.4438 0.557908 27.2258C0.365557 21.4396 6.64558 17.2391 9.76999 15.0973C12.5617 13.1633 15.8109 11.6921 19.0081 10.0493C21.7062 8.66126 26.333 8.09979 29.2287 7.99582C29.2599 7.6787 29.3275 7.34079 29.4366 6.99248C30.9442 1.94454 37.453 -0.680797 43.13 1.01398C44.3985 1.39348 45.537 1.95496 46.5351 2.65678C46.6183 2.71397 46.7015 2.77634 46.7899 2.84393C48.0115 3.7433 49.0045 4.84541 49.7167 6.0827C50.7357 7.78788 51.2035 9.73221 50.9852 11.6921H50.98Z" fill="#E8B625"/>
<path d="M50.98 11.692C50.1742 11.6348 49.2956 11.5152 49.1708 11.9467C48.5158 14.1354 47.003 16.5163 45.0327 18.076C44.3361 18.6634 43.5511 19.1365 42.7453 19.4536C42.7713 19.6304 42.7973 19.8175 42.8232 19.9995C42.8336 20.0983 42.8493 20.2074 42.8493 20.3114C43.0364 22.1777 42.8596 24.122 42.293 26.03C41.586 28.4214 40.3071 30.766 38.5395 32.887C37.9677 33.6045 37.3282 34.2855 36.6212 34.9145C33.5436 37.8154 25.4908 42.6294 15.998 41.1738C11.236 40.4511 8.4963 39.2242 6.62997 37.8934C5.76179 37.0668 5.09116 36.235 4.36854 35.4968C4.23338 35.3616 4.10861 35.2265 3.98384 35.0861C1.91476 32.8403 0.67228 30.4488 0.557908 27.2309C0.365557 21.4447 6.64557 17.2442 9.76999 15.1023C12.5617 13.1684 15.8109 11.6972 19.0081 10.0544C21.2955 8.87427 24.9658 8.29723 27.7886 8.08408C28.3033 8.04249 28.7816 8.01648 29.2287 8.00088C29.2599 7.68376 29.3275 7.34585 29.4366 6.99754C29.6134 6.39969 29.8681 5.83823 30.1748 5.30796C32.4727 1.38815 38.1236 -0.472985 43.13 1.01904C43.7434 1.20619 44.3257 1.42973 44.8819 1.68966C45.4694 1.96519 46.0152 2.29273 46.5403 2.65664C46.6079 2.71383 46.6911 2.7814 46.7951 2.84379C48.0167 3.74316 49.0097 4.84528 49.7219 6.08256C50.7409 7.78774 51.2087 9.73207 50.9904 11.692H50.98Z" fill="#FECA35"/>
<path d="M20.7705 51.6649C20.3858 52.3148 19.1953 52.2628 18.8626 51.7481C18.4779 51.1503 19.3825 48.5613 19.1173 48.2494C18.8574 47.9375 17.7293 47.376 16.8975 47.6775C16.0709 47.9791 15.5458 46.9965 16.1489 46.565C16.1749 46.5494 16.2009 46.5338 16.2269 46.5234C16.0345 46.9965 16.5024 47.6255 17.1938 47.3708C18.0256 47.0693 19.1537 47.6307 19.4137 47.9427C19.684 48.2546 18.7742 50.8436 19.1589 51.431C19.4293 51.8521 20.2611 51.9716 20.7757 51.6597L20.7705 51.6649Z" fill="#C78408"/>
<path d="M26.8737 52.6318C26.7073 52.8761 26.437 53.0944 26.1406 53.1256C25.5168 53.1932 25.0905 53.1257 24.7942 52.7306C24.4979 52.3251 24.1651 51.5348 23.4217 50.7186C22.6731 49.9128 21.4358 49.3566 21.4358 49.3566L21.2071 49.2994C21.1915 49.0551 21.1759 48.9043 21.1759 48.9043L21.7322 49.0551C21.7322 49.0551 22.9694 49.6009 23.7181 50.4171C24.4563 51.2333 24.7942 52.0235 25.0905 52.4186C25.3868 52.8241 25.8131 52.8917 26.437 52.8137C26.5981 52.7981 26.7489 52.7306 26.8737 52.6266V52.6318Z" fill="#C78408"/>
<path d="M29.9201 50.9057C29.8889 51.2177 29.6238 51.3372 29.0208 51.0929C28.241 50.7758 27.5339 49.7568 26.6138 49.3617C26.1615 49.159 25.4805 49.0186 24.9502 48.9302C24.6643 48.6755 24.4719 48.5195 24.4719 48.5195C24.4719 48.5195 26.0783 48.6859 26.9101 49.0498C27.8251 49.4553 28.5321 50.4691 29.3067 50.781C29.577 50.8902 29.7798 50.9317 29.9201 50.9057Z" fill="#C78408"/>
<path d="M29.9201 50.9061C29.8421 50.9217 29.7537 50.9164 29.6446 50.8904C29.551 50.8749 29.4366 50.8333 29.3067 50.7813C28.5321 50.4694 27.825 49.4504 26.9101 49.0501C26.0783 48.6862 24.4719 48.5198 24.4719 48.5198C24.4719 48.5198 24.6642 48.681 24.9502 48.9305C25.7923 49.6791 27.4507 51.2336 27.3624 51.873C27.3468 52.0238 27.2636 52.2109 27.1336 52.3669C27.0556 52.4605 26.9725 52.554 26.8789 52.6216C26.8789 52.6216 26.8754 52.6251 26.8685 52.632C26.7437 52.7308 26.5982 52.7984 26.437 52.8192H26.4266C25.8027 52.8972 25.3765 52.8296 25.0801 52.4241C24.7838 52.029 24.4511 51.2388 23.7077 50.4226C22.9591 49.6064 21.7218 49.0605 21.7218 49.0605L21.1655 48.9097C21.1655 48.9097 21.1811 49.0605 21.1967 49.3049C21.2227 49.7155 21.1551 50.2978 21.0719 50.9268C21.0304 51.2232 21.0148 51.3583 20.7548 51.665C20.6716 51.7638 20.5625 51.8314 20.4377 51.8678C20.1206 51.9666 19.6995 51.8782 19.4136 51.6807C19.3564 51.6547 19.3044 51.6131 19.2628 51.5715V51.5611C19.2628 51.5611 19.2316 51.5455 19.2212 51.5299C19.1952 51.5039 19.1692 51.4727 19.1432 51.4363C18.7585 50.8489 19.6631 48.2547 19.398 47.948C19.138 47.6361 18.0099 47.0746 17.1781 47.3761C16.8922 47.4749 16.6375 47.4333 16.4607 47.3085C16.206 47.1318 16.0968 46.8043 16.206 46.5287C16.2164 46.5183 16.2216 46.5184 16.232 46.5132C16.8194 46.144 17.568 46.0609 17.9215 46.1856C18.301 46.3208 19.0393 46.1285 19.0393 46.1285L18.9041 45.8997L16.6739 42.1878L17.1105 42.1203L17.4745 42.0631L20.0322 41.668L21.3215 45.9049C21.3215 45.9049 22.8343 45.9985 24.5187 46.5703C26.5046 47.241 28.6672 48.2547 29.1559 48.9825C29.3638 49.3101 29.577 49.6739 29.7122 50.0067C29.8629 50.3602 29.9461 50.6877 29.9149 50.9061H29.9201Z" fill="#E89A09"/>
<path d="M29.3638 49.9905C29.7797 49.9022 30.1072 50.1621 30.2112 50.7236C30.2476 50.9367 30.1904 51.2434 30.0033 51.4358C30.0033 51.4358 29.9253 51.259 29.7485 50.9991C29.5718 50.7392 29.1923 50.7391 29.0675 50.4896C28.9739 50.3076 28.9479 50.0737 29.3638 49.9853V49.9905Z" fill="#FEC00D"/>
<path d="M16.6999 46.6332C16.3516 46.3836 15.9461 46.4876 15.6289 46.9659C15.5094 47.1478 15.4366 47.4494 15.5354 47.7041C15.5354 47.7041 15.6757 47.5689 15.9461 47.4078C16.2164 47.2466 16.5595 47.3922 16.7727 47.2154C16.9286 47.0854 17.0482 46.8827 16.6999 46.6332Z" fill="#FEC00D"/>
<path d="M26.0004 51.5038C26.5722 51.379 27.0297 51.7377 27.1701 52.5175C27.222 52.8139 27.1441 53.235 26.8841 53.5001C26.8841 53.5001 26.775 53.2557 26.5306 52.9022C26.2863 52.5487 25.7612 52.5435 25.5897 52.2004C25.4597 51.9457 25.4285 51.6285 26.0004 51.5038Z" fill="#FEC00D"/>
<path d="M19.8762 51.0208C20.4585 51.0727 20.6924 51.473 20.3129 52.1697C20.1673 52.4348 19.8034 52.7935 19.4343 52.8403C19.4343 52.8403 19.2472 52.57 19.2784 52.1385C19.3095 51.707 19.2108 51.7642 19.294 51.3951C19.3511 51.1195 19.4447 50.9844 19.8814 51.026L19.8762 51.0208Z" fill="#FEC00D"/>
<path d="M19.0549 46.123L18.9197 45.8943L16.6895 42.1824L17.1261 42.1148L17.4901 42.0576C18.0203 43.1597 19.3564 45.9254 19.5487 46.0762C19.7931 46.2685 19.0549 46.1178 19.0549 46.1178V46.123Z" fill="#C78408"/>
<path d="M43.8007 27.2977C43.0833 29.6891 41.8148 32.0337 40.042 34.1547C39.4702 34.8722 38.8307 35.5532 38.1341 36.1822C35.0565 39.0831 27.0037 43.8971 17.5005 42.4415C11.2829 41.4901 8.50678 39.6914 6.63525 37.8978C8.50158 39.2287 11.2465 40.4556 16.0033 41.1782C25.5013 42.6338 33.5489 37.8198 36.6265 34.919C37.3335 34.2899 37.973 33.6089 38.5448 32.8915C40.3124 30.7704 41.5913 28.4258 42.2983 26.0344C42.8961 24.0173 43.0573 21.9638 42.8285 20.0039C43.2756 20.2638 43.7539 20.4978 44.2478 20.7213C44.5857 22.8424 44.4557 25.0934 43.8007 27.2977Z" fill="#E8B625"/>
<path d="M42.293 26.0354C41.586 28.4268 40.3071 30.7714 38.5396 32.8925C37.9677 33.6099 37.3283 34.291 36.6213 34.92C33.5436 37.8209 25.4909 42.6349 15.9981 41.1792C11.2361 40.4566 8.49635 39.2297 6.63002 37.8989C5.76184 37.0723 5.0912 36.2405 4.36858 35.5023C4.23342 35.3671 4.10866 35.2319 3.98389 35.0916C10.0923 35.3203 24.7683 35.4763 28.1474 32.0971C32.4467 27.8082 36.2366 22.5107 37.3075 15.1338C37.3075 15.1338 39.1894 17.4784 42.7505 19.4643C43.156 21.7257 42.8961 24.0235 42.2982 26.0406L42.293 26.0354Z" fill="#F7C534"/>
<path d="M31.6721 19.9371C31.6409 20.301 31.5629 20.6857 31.4433 21.0808L31.4329 21.112C31.3497 21.3719 31.2562 21.6318 31.1314 21.8918C31.0898 22.0165 31.0326 22.1621 30.9546 22.2868C30.9131 22.3856 30.8611 22.5052 30.8039 22.604C30.7103 22.7807 30.6115 22.9419 30.5024 23.1187C30.4088 23.2798 30.2996 23.4306 30.1904 23.5917C30.0657 23.7789 29.9305 23.9453 29.7849 24.1376C29.6602 24.304 29.5146 24.4651 29.3638 24.6315C29.1975 24.8238 28.9947 25.0266 28.8024 25.2293C28.5424 25.4841 28.2825 25.7336 28.0018 25.9675C27.6639 26.2535 27.3104 26.529 26.9361 26.7993C26.8269 26.8929 26.6813 26.9761 26.5565 27.0593C26.3902 27.1788 26.2186 27.288 26.0523 27.3972C25.6832 27.6259 25.3037 27.8339 24.8982 28.0366C24.5967 28.1978 24.2951 28.3485 23.9728 28.4889C23.7961 28.5669 23.6193 28.6345 23.4529 28.6968C23.3438 28.754 23.2346 28.7904 23.1254 28.8424C22.9903 28.8944 22.8551 28.9412 22.7147 28.988C21.9349 29.2635 21.1343 29.4818 20.3441 29.6378C15.3118 30.5788 7.18104 26.633 6.33885 24.1376C6.31286 24.0596 6.33885 23.9764 6.41683 23.8673C6.59358 23.5813 7.05627 23.1758 7.62813 22.7495C8.98499 21.741 10.9865 20.5297 11.4648 20.1606C11.8858 19.8175 15.1402 17.1973 16.4503 16.3499C17.1417 15.9133 17.8539 15.5078 18.6026 15.1699C20.209 14.4368 21.7738 14.0573 23.2138 13.9014C23.2242 13.891 23.2294 13.891 23.2294 13.891C24.3471 13.7558 25.4076 13.7402 26.333 13.7922C28.2825 13.8858 29.7901 14.7955 30.1696 15.1802C30.6063 15.6325 31.1054 16.3811 31.4069 17.3481C31.4849 17.5768 31.5421 17.8108 31.5941 18.0655C31.6513 18.3254 31.6877 18.5958 31.6929 18.8973L31.7033 18.9077C31.7293 19.2352 31.7188 19.5783 31.6773 19.9319L31.6721 19.9371Z" fill="#E8B625"/>
<path d="M31.4693 19.1303C31.4381 19.4994 31.3601 19.8789 31.2406 20.274L31.2302 20.3156C31.147 20.5756 31.0534 20.8355 30.9286 21.0954C30.8871 21.2202 30.8299 21.3658 30.7623 21.4905C30.7103 21.5893 30.6635 21.7089 30.6011 21.8024C30.518 21.9792 30.4088 22.1404 30.2996 22.3223C30.206 22.4731 30.0969 22.6342 29.9877 22.7954C29.8629 22.9826 29.7277 23.1489 29.5822 23.3361C29.4574 23.5128 29.3119 23.674 29.1611 23.8403C28.9947 24.0327 28.792 24.225 28.5996 24.4382C28.3397 24.6929 28.0798 24.9321 27.799 25.1712C27.4611 25.4675 27.1076 25.7327 26.7333 26.003C26.6241 26.0966 26.4786 26.1901 26.3538 26.2629C26.1874 26.3825 26.0159 26.4917 25.8495 26.6009C25.4804 26.8296 25.1009 27.0479 24.7058 27.2507C24.3939 27.4015 24.0924 27.5522 23.7701 27.6978C23.5933 27.7758 23.4165 27.8485 23.2502 27.9161C23.141 27.9681 23.0318 28.0097 22.9227 28.0617C22.7875 28.1033 22.6523 28.1552 22.512 28.2072C21.7322 28.4776 20.9316 28.7011 20.1414 28.8467C15.4573 29.7305 8.0856 26.3721 6.41162 23.8819C6.58838 23.596 7.05107 23.1905 7.62292 22.7642C8.97978 21.7557 10.9813 20.5444 11.4596 20.1752C11.6883 19.9829 12.7696 19.1147 13.9237 18.2257C14.8647 17.4927 15.8576 16.7441 16.4451 16.3646C17.1365 15.9279 17.8487 15.5224 18.5974 15.1845C20.2037 14.4515 21.7686 14.072 23.2086 13.916C23.219 13.9056 23.2242 13.9056 23.2242 13.9056C24.3419 13.7705 25.4024 13.7549 26.3278 13.8068C27.7315 13.8744 28.9116 14.3631 29.5978 14.7842C29.8681 14.9454 30.0605 15.0857 30.1592 15.1949C30.5959 15.6472 31.095 16.3958 31.3965 17.3628C31.4485 17.5967 31.4745 17.841 31.4901 18.101V18.1166C31.5213 18.4441 31.5057 18.782 31.4641 19.1355L31.4693 19.1303Z" fill="#F7C534"/>
<path d="M27.7523 18.8502C27.7211 19.1465 27.6587 19.4532 27.5651 19.7651L27.5547 19.8067C27.4976 20.0095 27.4196 20.2278 27.3208 20.4306C27.2792 20.5294 27.2376 20.6489 27.1752 20.7477C27.144 20.8413 27.0921 20.9245 27.0505 21.0076C26.9829 21.1428 26.8997 21.278 26.8165 21.4183C26.7385 21.5379 26.6554 21.6731 26.5566 21.7979C26.463 21.9434 26.3538 22.0838 26.2395 22.2345C26.1407 22.3801 26.0211 22.5049 25.9016 22.64C25.756 22.8012 25.6 22.9571 25.4389 23.1183C25.2465 23.3263 25.0282 23.5238 24.7994 23.7161C24.5291 23.9449 24.2536 24.1684 23.9417 24.3816C23.8429 24.4596 23.7389 24.5272 23.6401 24.5895C23.4946 24.6831 23.3646 24.7767 23.219 24.8599C22.9331 25.047 22.6212 25.2238 22.3041 25.3797C22.0597 25.5045 21.8154 25.6345 21.5555 25.7436C21.4099 25.8008 21.2799 25.8684 21.1344 25.9204C21.0512 25.9516 20.968 25.9984 20.8744 26.0296C20.7653 26.0608 20.6561 26.1128 20.5365 26.1492C19.9127 26.3779 19.268 26.5547 18.6286 26.669C14.9167 27.376 9.08381 24.7507 7.62817 22.7492C8.98503 21.7406 10.9865 20.5294 11.4648 20.1602C11.6935 19.9679 12.7749 19.0997 13.929 18.2107C14.8699 17.4777 15.8629 16.7291 16.4504 16.3496C17.1418 15.9129 17.854 15.5074 18.6026 15.1695C20.209 14.4365 21.7738 14.057 23.2138 13.901C23.2242 13.8906 23.2294 13.8906 23.2294 13.8906C23.3074 13.901 23.3802 13.901 23.4478 13.901C25.0282 13.979 26.2395 14.7172 26.5358 15.0291C26.9829 15.4814 27.4872 16.2924 27.6899 17.3426C27.7211 17.4777 27.7419 17.6129 27.7575 17.748C27.7679 17.8312 27.7731 17.9248 27.7731 18.0184L27.7835 18.0288C27.7991 18.2991 27.7991 18.5694 27.7575 18.8554L27.7523 18.8502Z" fill="#FFCF3D"/>
<path d="M48.5782 4.51226C46.8627 3.63888 44.8352 3.12418 42.6725 3.12418C37.2971 3.12418 32.7898 6.26941 31.6045 10.5115C30.6947 9.77852 29.8889 8.93633 29.2235 8.00577C29.2547 7.68865 29.3223 7.35073 29.4315 7.00242C29.6082 6.40457 29.863 5.84311 30.1697 5.31285C32.4675 1.39303 38.1185 -0.468102 43.1248 1.02392C43.7383 1.21108 44.3205 1.43461 44.8768 1.69454C45.4642 1.97007 46.0101 2.29758 46.5352 2.66149C46.6027 2.71868 46.6859 2.78629 46.7899 2.84867C47.4605 3.34255 48.0688 3.90921 48.5834 4.51226H48.5782Z" fill="#FED43B"/>
<path d="M54.4216 11.6606L50.5953 13.3814L48.3495 11.2967C48.3495 11.2967 51.9522 11.1147 54.4164 11.6606H54.4216Z" fill="#E89A09"/>
<path d="M54.5827 11.7386C51.5415 11.0991 48.3495 11.2967 48.3495 11.2967L50.954 9.6123C50.954 9.6123 53.8913 9.89302 54.5827 11.7386Z" fill="#FFA90A"/>
<path d="M50.3927 10.5693C50.3927 10.5693 50.8138 10.3198 50.9854 10.481C51.1569 10.6421 51.5416 10.8813 51.5416 10.8813L50.3979 10.5693H50.3927Z" fill="#E89A09"/>
<path d="M45.5734 9.38848C45.5474 9.79398 45.3135 10.1371 44.9652 10.3555C44.6792 10.5374 44.3257 10.6414 43.9358 10.6154C43.0833 10.5634 42.4282 9.92917 42.475 9.19096C42.5218 8.46314 43.2496 7.91726 44.1022 7.96925C44.4817 7.99524 44.8248 8.13039 45.0744 8.34874C45.4019 8.60348 45.5942 8.98301 45.5682 9.38331L45.5734 9.38848Z" fill="#FEDC7C"/>
<path d="M45.5733 9.38899C45.5474 9.79449 45.3134 10.1376 44.9651 10.356C44.7467 10.4444 44.5076 10.4807 44.2477 10.4651C43.4471 10.4131 42.8388 9.8517 42.8804 9.21746C42.922 8.58322 43.5978 8.11012 44.3984 8.16211C44.648 8.1777 44.8819 8.24529 45.0795 8.35446C45.407 8.60919 45.5993 8.98869 45.5733 9.38899Z" fill="black"/>
<path d="M45.1462 9.15929C45.1588 8.96158 44.9948 8.79022 44.7799 8.77655C44.565 8.76288 44.3806 8.91208 44.368 9.10979C44.3554 9.3075 44.5194 9.47886 44.7343 9.49253C44.9492 9.5062 45.1336 9.357 45.1462 9.15929Z" fill="white"/>
<path d="M37.3075 15.1273C37.3075 15.1273 45.1679 16.8533 48.3547 11.2959L50.4134 13.209C50.4134 13.209 49.2749 15.746 47.2214 17.4459C44.778 19.463 42.7557 19.463 42.7557 19.463C42.7557 19.463 40.2552 18.205 39.439 17.5551C38.6228 16.9053 37.3179 15.1325 37.3179 15.1325L37.3075 15.1273Z" fill="#F7C534"/>
<path d="M29.603 14.7744C29.13 15.5334 28.4697 16.49 27.7523 17.7533C27.5755 18.0548 27.3884 18.3771 27.2116 18.7202C24.5811 23.7058 18.1971 22.2865 15.4002 20.6801C14.3345 20.0667 13.9602 19.1309 13.9186 18.216C14.8595 17.483 15.8525 16.7343 16.4399 16.3548C17.1314 15.9181 17.8436 15.5126 18.5922 15.1747C20.1986 14.4417 21.7634 14.0622 23.2034 13.9062C23.2138 13.8958 23.219 13.8959 23.219 13.8959C24.3368 13.7607 25.3973 13.7451 26.3227 13.7971C27.7263 13.8647 28.9064 14.3533 29.5926 14.7744H29.603Z" fill="#FFD841"/>
</svg>
