<svg width="58" height="58" viewBox="0 0 58 58" fill="none" xmlns="http://www.w3.org/2000/svg">
<path d="M57.4549 26.9832C57.2451 26.4309 56.8943 25.9171 56.6321 25.3905C56.4977 25.1144 55.9634 21.775 53.0919 19.4503C52.7575 19.1806 52.3642 18.9879 52.0069 18.7503C51.5381 18.4389 48.6502 16.1206 45.7722 14.6725C45.4149 14.4926 44.2905 14.1715 44.048 13.844C43.5956 13.234 43.4546 12.4312 43.3497 11.7023C43.0646 9.72762 42.9269 7.71115 42.1631 5.83918C41.4911 4.18876 40.452 2.70209 39.1376 1.47873C39.0064 1.35671 38.8557 1.20901 38.695 1.0581C38.4295 1.03241 38.164 1.00993 37.9018 0.974609C37.3871 1.13516 36.8889 1.38241 36.4005 1.60717C36.1907 1.98285 36.0366 2.38742 35.935 2.75989C35.9186 2.83053 35.8956 2.90118 35.8825 2.97503C35.8792 2.9943 35.8694 3.00392 35.8629 3.01997C35.8629 3.02318 35.8629 3.0264 35.8629 3.02961C35.8629 3.07778 35.8629 3.12595 35.8596 3.17732C35.9907 4.94976 36.8102 6.55842 37.2396 8.26343C36.0562 7.49601 34.7942 6.85384 33.4765 6.32725C32.6898 6.01257 31.5982 5.4635 30.782 5.98367C30.2969 6.29192 30.1952 6.68687 30.2444 7.1075C30.2313 7.1942 30.2313 7.2873 30.2444 7.37721C30.4903 8.80607 30.6738 10.2446 30.8115 11.6863C30.9361 12.9931 31.0672 14.3096 31.631 15.5169C32.1292 16.5797 32.9586 17.4403 34.0698 17.8834C34.6762 18.1242 35.345 18.2141 35.9153 18.532C36.2792 18.7343 36.5775 19.0072 36.8135 19.3315C36.843 19.4086 36.8725 19.4856 36.8987 19.5595C37.2659 20.5067 37.6002 21.4636 37.9182 22.4268C36.1677 21.5342 34.3353 20.7989 32.4472 20.2274C32.0571 20.1086 31.7293 20.4008 31.6375 20.7315C31.5392 20.7315 31.4474 20.7218 31.3819 20.7251C31.1655 20.7283 30.9525 20.7347 30.7361 20.7411C30.1985 20.7572 29.6609 20.7764 29.1233 20.8021C28.1563 20.8503 27.1893 20.9145 26.2256 21.0012C24.2424 21.1746 22.2593 21.4186 20.299 21.7493C18.4273 22.064 16.6474 22.5778 14.9264 23.3612C13.2579 24.119 11.6943 25.0694 10.1537 26.0488C8.65565 27.0024 7.0724 27.9272 5.86939 29.2436C4.76799 30.451 3.85343 31.8413 3.12244 33.2926C1.70636 36.1086 0.955685 39.2425 0.975352 42.386C0.985186 44.136 1.23434 45.8956 1.73915 47.5749C1.98499 48.3905 2.24395 49.3666 2.75859 50.0634C3.31257 50.8179 4.35494 51.1229 5.11216 50.4551C5.33506 50.2592 5.23019 48.3326 5.10235 48.0854C4.19763 46.3676 5.50881 48.1014 7.30514 46.7464C7.93124 46.2744 7.12813 43.1823 7.91812 43.3043C8.83923 43.4488 9.38993 44.1584 9.63906 44.9965C9.94063 46.0015 9.94717 47.0643 10.1963 48.079C10.452 49.1354 10.9863 50.0987 11.6845 50.9367C13.1694 52.7188 15.4148 53.7045 17.7324 53.8715C19.1583 53.9743 20.6268 53.7623 21.9774 53.3064C23.1181 52.9211 26.7665 52.8408 29.2709 52.2693C31.7752 51.6977 35.9973 49.8771 35.9973 49.8771C36.7152 49.5399 37.4363 49.1225 38.1837 48.8496C38.4688 48.7436 38.4394 48.8015 38.6491 48.9813C38.9114 49.2092 39.2064 49.3602 39.5637 49.3441C40.2488 49.3088 40.7634 48.6024 41.1896 48.156C41.7108 47.6134 42.2123 47.0515 42.6974 46.4767C43.7136 45.2855 44.6708 44.046 45.6214 42.8034C47.9979 42.5497 49.9876 40.8094 50.5875 38.5714C51.1808 38.398 51.3218 37.7655 51.4103 37.2421C51.5807 36.2339 51.5807 35.2192 51.4168 34.2206C51.9348 34.06 52.374 33.7646 52.8165 33.4532C53.2951 33.1192 53.7704 32.8752 54.3277 32.6922C55.5012 32.3101 56.5436 31.8702 57.2451 30.8202C57.5041 30.4349 57.6614 30.0271 57.7532 29.6065C57.786 28.7427 57.7433 27.7891 57.4385 26.9832H57.4549Z" fill="#C2B290"/>
<mask id="mask0_701_178178" style="mask-type:luminance" maskUnits="userSpaceOnUse" x="0" y="0" width="58" height="54">
<path d="M57.4549 26.9832C57.2451 26.4309 56.8943 25.9171 56.6321 25.3905C56.4977 25.1144 55.9634 21.775 53.0919 19.4503C52.7575 19.1806 52.3642 18.9879 52.0069 18.7503C51.5381 18.4389 48.6502 16.1206 45.7722 14.6725C45.4149 14.4926 44.2905 14.1715 44.048 13.844C43.5956 13.234 43.4546 12.4312 43.3497 11.7023C43.0646 9.72762 42.9269 7.71115 42.1631 5.83918C41.4911 4.18876 40.452 2.70209 39.1376 1.47873C39.0064 1.35671 38.8557 1.20901 38.695 1.0581C38.4295 1.03241 38.164 1.00993 37.9018 0.974609C37.3871 1.13516 36.8889 1.38241 36.4005 1.60717C36.1907 1.98285 36.0366 2.38742 35.935 2.75989C35.9186 2.83053 35.8956 2.90118 35.8825 2.97503C35.8792 2.9943 35.8694 3.00392 35.8629 3.01997C35.8629 3.02318 35.8629 3.0264 35.8629 3.02961C35.8629 3.07778 35.8629 3.12595 35.8596 3.17732C35.9907 4.94976 36.8102 6.55842 37.2396 8.26343C36.0562 7.49601 34.7942 6.85384 33.4765 6.32725C32.6898 6.01257 31.5982 5.4635 30.782 5.98367C30.2969 6.29192 30.1952 6.68687 30.2444 7.1075C30.2313 7.1942 30.2313 7.2873 30.2444 7.37721C30.4903 8.80607 30.6738 10.2446 30.8115 11.6863C30.9361 12.9931 31.0672 14.3096 31.631 15.5169C32.1292 16.5797 32.9586 17.4403 34.0698 17.8834C34.6762 18.1242 35.345 18.2141 35.9153 18.532C36.2792 18.7343 36.5775 19.0072 36.8135 19.3315C36.843 19.4086 36.8725 19.4856 36.8987 19.5595C37.2659 20.5067 37.6002 21.4636 37.9182 22.4268C36.1677 21.5342 34.3353 20.7989 32.4472 20.2274C32.0571 20.1086 31.7293 20.4008 31.6375 20.7315C31.5392 20.7315 31.4474 20.7218 31.3819 20.7251C31.1655 20.7283 30.9525 20.7347 30.7361 20.7411C30.1985 20.7572 29.6609 20.7764 29.1233 20.8021C28.1563 20.8503 27.1893 20.9145 26.2256 21.0012C24.2424 21.1746 22.2593 21.4186 20.299 21.7493C18.4273 22.064 16.6474 22.5778 14.9264 23.3612C13.2579 24.119 11.6943 25.0694 10.1537 26.0488C8.65565 27.0024 7.0724 27.9272 5.86939 29.2436C4.76799 30.451 3.85343 31.8413 3.12244 33.2926C1.70636 36.1086 0.955685 39.2425 0.975352 42.386C0.985186 44.136 1.23434 45.8956 1.73915 47.5749C1.98499 48.3905 2.24395 49.3666 2.75859 50.0634C3.31257 50.8179 4.35494 51.1229 5.11216 50.4551C5.33506 50.2592 5.23019 48.3326 5.10235 48.0854C4.19763 46.3676 5.50881 48.1014 7.30514 46.7464C7.93124 46.2744 7.12813 43.1823 7.91812 43.3043C8.83923 43.4488 9.38993 44.1584 9.63906 44.9965C9.94063 46.0015 9.94717 47.0643 10.1963 48.079C10.452 49.1354 10.9863 50.0987 11.6845 50.9367C13.1694 52.7188 15.4148 53.7045 17.7324 53.8715C19.1583 53.9743 20.6268 53.7623 21.9774 53.3064C23.1181 52.9211 26.7665 52.8408 29.2709 52.2693C31.7752 51.6977 35.9973 49.8771 35.9973 49.8771C36.7152 49.5399 37.4363 49.1225 38.1837 48.8496C38.4688 48.7436 38.4394 48.8015 38.6491 48.9813C38.9114 49.2092 39.2064 49.3602 39.5637 49.3441C40.2488 49.3088 40.7634 48.6024 41.1896 48.156C41.7108 47.6134 42.2123 47.0515 42.6974 46.4767C43.7136 45.2855 44.6708 44.046 45.6214 42.8034C47.9979 42.5497 49.9876 40.8094 50.5875 38.5714C51.1808 38.398 51.3218 37.7655 51.4103 37.2421C51.5807 36.2339 51.5807 35.2192 51.4168 34.2206C51.9348 34.06 52.374 33.7646 52.8165 33.4532C53.2951 33.1192 53.7704 32.8752 54.3277 32.6922C55.5012 32.3101 56.5436 31.8702 57.2451 30.8202C57.5041 30.4349 57.6614 30.0271 57.7532 29.6065C57.786 28.7427 57.7433 27.7891 57.4385 26.9832H57.4549Z" fill="white"/>
</mask>
<g mask="url(#mask0_701_178178)">
<path d="M44.1922 17.0457C44.0545 17.0071 43.907 16.9622 43.7792 16.8883C43.848 16.8338 43.884 16.731 43.8021 16.654C43.5858 16.4452 43.5136 16.1434 43.4284 15.8673C43.3333 15.5494 43.2121 15.2379 43.081 14.9329C42.9007 13.5522 42.2516 12.2646 41.4551 11.1183C40.9601 10.4023 40.4127 9.71834 39.8587 9.04404C39.3047 8.36975 38.7639 7.66977 38.1574 7.04042C37.5018 6.35971 36.6856 5.86843 35.8694 5.39C35.6891 5.28404 35.522 5.56019 35.7055 5.66615C35.8563 5.75606 36.0104 5.84596 36.1612 5.93586C36.112 5.99045 36.0989 6.07714 36.1612 6.15099C36.23 6.23768 36.3054 6.32118 36.3742 6.40467C36.348 6.44962 36.3414 6.50419 36.3742 6.55557C36.4496 6.66474 36.5349 6.77071 36.6135 6.87988C36.5742 6.92804 36.5578 6.99225 36.6004 7.05326C36.6758 7.16564 36.761 7.27161 36.8397 7.37757C36.8003 7.445 36.8036 7.54454 36.8856 7.60555C36.9249 7.63445 36.9643 7.66334 37.0069 7.69545C36.8921 7.71792 36.8036 7.85921 36.9118 7.96196C37.433 8.4436 38.0493 8.80001 38.6426 9.18854C39.1998 9.55458 39.7145 9.97522 40.1734 10.4569C41.0683 11.3912 41.7501 12.5183 42.2156 13.7127C42.3893 14.1623 42.5335 14.6214 42.6515 15.0902C42.6646 15.1962 42.6712 15.3054 42.681 15.4145C42.6974 15.6265 42.7138 15.8352 42.7433 16.0439C42.799 16.4163 42.9105 16.7888 43.1465 17.0906C43.2022 17.1613 43.2875 17.1934 43.3694 17.1484C43.4055 17.1292 43.4317 17.0874 43.4448 17.0457C43.6284 17.2062 43.8677 17.2865 44.1004 17.3539C44.3036 17.4117 44.3889 17.1035 44.1889 17.0457H44.1922Z" fill="#A39679"/>
<path d="M40.524 24.9216C39.121 23.9069 38.1213 22.4139 37.7148 20.7538C37.6656 20.5515 37.3509 20.6382 37.4001 20.8405C37.8262 22.584 38.885 24.1381 40.3601 25.2009C40.5306 25.323 40.6945 25.0436 40.524 24.9248V24.9216Z" fill="#A39679"/>
<path d="M38.0001 24.4056C37.2364 23.9529 36.4168 23.6061 35.5613 23.3684C36.23 23.3813 36.8987 23.4776 37.5576 23.59C37.7641 23.6253 37.8526 23.3171 37.6461 23.2818C36.5611 23.0955 35.4629 22.9607 34.3648 23.1212C34.2075 23.1437 34.2108 23.407 34.3648 23.4295C35.3613 23.59 36.3251 23.9015 37.22 24.351C37.1774 24.3446 37.138 24.3349 37.0954 24.3317C36.8332 24.2996 36.5709 24.2868 36.3054 24.2964C35.7744 24.3157 35.2466 24.4184 34.7484 24.6015C34.5517 24.6721 34.6369 24.9836 34.8369 24.9097C35.3974 24.7042 35.9907 24.6014 36.5906 24.6143C36.8922 24.6207 37.1937 24.656 37.4887 24.7235C37.6953 24.7684 37.9247 24.8326 38.0558 24.6239C38.1017 24.5501 38.0722 24.4473 37.9969 24.4056H38.0001Z" fill="#A39679"/>
<path d="M35.2334 25.3231C34.6663 25.4933 34.1222 25.7341 33.6207 26.0423C33.4863 26.1258 33.5387 26.341 33.7026 26.341C33.8436 26.341 33.9878 26.3378 34.1287 26.3281C33.8075 26.6428 33.3879 26.8676 33.0929 27.2111C32.9585 27.3685 33.188 27.5964 33.3256 27.4391C33.719 26.9767 34.3058 26.7263 34.6467 26.2157C34.709 26.1226 34.627 25.9589 34.5057 25.9749C34.4762 25.9781 34.4434 25.9813 34.4139 25.9845C34.7057 25.8465 35.0072 25.7277 35.3186 25.6345C35.5186 25.5735 35.4334 25.2653 35.2301 25.3263L35.2334 25.3231Z" fill="#A39679"/>
<path d="M36.1349 26.6428C35.6826 26.7006 35.2368 26.7841 34.7942 26.8964C34.591 26.9478 34.6762 27.2593 34.8827 27.2047C34.9516 27.1854 35.0237 27.1726 35.0925 27.1565C34.8369 27.2785 34.5844 27.4102 34.3353 27.5514C34.096 27.6863 33.86 27.8308 33.6305 27.9849C33.447 28.107 33.1323 28.3028 33.2962 28.5597C33.4076 28.7331 33.6928 28.5725 33.5781 28.3991C33.5781 28.428 33.5879 28.4248 33.6043 28.3991C33.6207 28.3799 33.6404 28.367 33.6633 28.3542C33.7125 28.3189 33.7617 28.2868 33.8108 28.2547C33.9092 28.1904 34.0108 28.1262 34.1124 28.062C34.3025 27.9432 34.4959 27.834 34.6926 27.7248C35.0991 27.5033 35.5154 27.3042 35.9448 27.1276C36.0136 27.0987 36.0595 27.0441 36.0628 26.9735C36.0858 26.9735 36.1087 26.9639 36.1316 26.9639C36.2201 26.951 36.2955 26.8996 36.2955 26.8033C36.2955 26.7262 36.2201 26.6299 36.1316 26.6428H36.1349Z" fill="#A39679"/>
<path d="M37.6592 28.5694C36.9774 28.7043 36.2956 28.8391 35.6105 28.9772C35.1516 29.0671 34.6795 29.1923 34.2075 29.263C34.7484 28.9355 35.3089 28.6401 35.8891 28.3768C36.0792 28.2901 35.9153 28.0139 35.7252 28.1006C34.945 28.4538 34.1944 28.8712 33.4831 29.3432C33.3552 29.4299 33.3946 29.6451 33.565 29.6418C34.2567 29.6354 34.9483 29.4396 35.6203 29.3047L37.7477 28.8841C37.9542 28.8423 37.8657 28.5341 37.6592 28.5758V28.5694Z" fill="#A39679"/>
<path d="M38.1804 29.1992C37.0495 29.9153 35.9251 30.6345 34.8041 31.3602C34.7024 31.4244 34.6926 31.5753 34.8041 31.6364C34.9581 31.723 35.1286 31.7455 35.299 31.6909C35.4466 31.6428 35.4367 31.463 35.3417 31.3987C36.3414 30.7534 37.3412 30.1112 38.3443 29.4754C38.5213 29.363 38.3574 29.0868 38.1804 29.1992Z" fill="#A39679"/>
<path d="M37.7247 30.3964C37.1477 30.9391 36.6331 31.5395 36.184 32.1849C36.1414 32.2459 36.1644 32.3262 36.2102 32.3808C36.3709 32.5702 36.6331 32.4065 36.8003 32.3198C37.0199 32.2074 37.2363 32.0885 37.4526 31.9665C37.6362 31.8638 37.469 31.5876 37.2887 31.6904C37.1248 31.7835 36.9576 31.8735 36.7905 31.9634C36.7708 31.973 36.7511 31.9826 36.7315 31.9955C37.1019 31.5074 37.5116 31.0482 37.9607 30.6244C38.1148 30.4799 37.882 30.2551 37.728 30.3964H37.7247Z" fill="#A39679"/>
<path d="M42.3466 30.3553C41.5533 30.8627 40.76 31.37 39.934 31.8195C39.5275 32.041 39.1145 32.2498 38.6884 32.436C38.4687 32.5323 38.2425 32.6254 38.0164 32.7089C37.9016 32.7507 37.7869 32.7924 37.6722 32.8309C37.6492 32.8374 37.623 32.847 37.5968 32.8598C38.0131 32.4231 38.4294 31.9897 38.849 31.5562C38.9932 31.4053 38.7638 31.1773 38.6163 31.3282C38.1049 31.858 37.5968 32.3878 37.092 32.9176C37.0231 32.9915 37.0297 33.1199 37.1248 33.1713C37.3378 33.2805 37.5444 33.2162 37.7574 33.1424C37.9902 33.0653 38.2163 32.9787 38.4425 32.8888C38.9178 32.6961 39.3833 32.4745 39.8389 32.2369C40.76 31.7521 41.6353 31.1934 42.5105 30.6347C42.6875 30.5223 42.5236 30.2429 42.3466 30.3585V30.3553Z" fill="#A39679"/>
<path d="M42.3532 31.1698C42.3008 31.1088 42.1729 31.1088 42.1205 31.1698C42.0746 31.2244 42.0287 31.2757 41.9828 31.3303C41.9664 31.3175 41.95 31.3079 41.9304 31.3047C41.8419 31.279 41.7566 31.3335 41.7271 31.417C41.6911 31.523 41.6911 31.6354 41.7206 31.7445C41.7534 31.8505 41.9107 31.9115 41.9926 31.8152C41.9402 32.0046 41.8877 32.1909 41.832 32.3803C41.773 32.5794 42.091 32.6629 42.1467 32.467C42.209 32.2519 42.2713 32.0335 42.3303 31.8152C42.3598 31.7092 42.3926 31.6065 42.4155 31.4973C42.4417 31.3753 42.4319 31.2661 42.3467 31.1666L42.3532 31.1698Z" fill="#A39679"/>
<path d="M43.543 31.504C43.4545 31.5072 43.3792 31.5746 43.3792 31.6645V32.3806C43.3792 32.4641 43.4545 32.5443 43.543 32.5411C43.6316 32.5379 43.7069 32.4705 43.7069 32.3806V31.6645C43.7069 31.5811 43.6316 31.5008 43.543 31.504Z" fill="#A39679"/>
<path d="M44.3593 31.2793C44.2643 31.2793 44.202 31.3531 44.1954 31.4398C44.1659 31.8412 44.084 32.2393 43.9627 32.6247C43.9365 32.7081 43.9955 32.8013 44.0774 32.8237C44.1659 32.8462 44.2512 32.7948 44.2807 32.7114C44.4118 32.3004 44.4937 31.8733 44.5265 31.4398C44.5331 31.3531 44.4479 31.2793 44.3626 31.2793H44.3593Z" fill="#A39679"/>
<path d="M45.9589 33.5715C45.8638 33.1059 45.7032 32.4958 45.2378 32.2582C45.0509 32.1619 44.8837 32.4412 45.0739 32.5343C45.2836 32.6403 45.3918 32.849 45.4738 33.0609C45.559 33.2857 45.6213 33.5201 45.6639 33.7577C45.7524 34.2554 45.7557 34.7659 45.7622 35.2733C45.7622 35.4788 46.0933 35.4788 46.09 35.2733C46.0835 34.7049 46.0736 34.1334 45.9589 33.5715Z" fill="#A39679"/>
<path d="M46.5326 34.2879C46.5326 34.0824 46.2048 34.0824 46.2048 34.2879C46.2114 35.2383 46.218 36.1888 46.2245 37.136C46.2245 37.3415 46.5523 37.3415 46.5523 37.136C46.5458 36.1856 46.5392 35.2351 46.5326 34.2879Z" fill="#A39679"/>
<path d="M47.7029 35.3319C47.6832 35.1264 47.3555 35.1264 47.3751 35.3319C47.4669 36.369 47.4833 37.4093 47.4177 38.4464C47.4046 38.6519 47.7324 38.6519 47.7455 38.4464C47.8111 37.4093 47.7947 36.3658 47.7029 35.3319Z" fill="#A39679"/>
<path d="M48.9715 35.4146C48.9518 35.2124 48.624 35.2091 48.6437 35.4146C48.7256 36.2206 48.8109 37.0265 48.8928 37.8324C48.9125 38.0347 49.2403 38.0379 49.2206 37.8324C49.1387 37.0265 49.0534 36.2206 48.9715 35.4146Z" fill="#A39679"/>
<path d="M50.5317 36.6453C50.5186 36.4398 50.1908 36.4398 50.2039 36.6453C50.2367 37.1976 50.1876 37.7467 50.0532 38.2829C50.004 38.4852 50.3187 38.5687 50.3678 38.3696C50.5088 37.8077 50.5645 37.2265 50.5285 36.6453H50.5317Z" fill="#A39679"/>
<path d="M50.9185 34.2919C50.8136 34.1121 50.5285 34.2758 50.6366 34.4524C50.8923 34.8795 51.0038 35.39 50.9317 35.8813C50.9185 35.968 50.9546 36.0547 51.0464 36.0804C51.1218 36.0996 51.2365 36.0547 51.2496 35.968C51.3348 35.3868 51.2234 34.7992 50.9218 34.2919H50.9185Z" fill="#A39679"/>
<path d="M57.6188 27.4232C57.5598 27.3012 57.4876 27.1856 57.3991 27.0796C56.4944 26.0168 55.1243 26.9994 54.3146 27.6383C53.5279 28.2612 52.892 29.1154 52.7117 30.1043C52.5052 31.2314 52.9575 32.4836 54.19 32.8015C55.2718 33.0777 56.2977 32.7341 57.1074 32.0245C57.9171 31.3149 58.5923 30.4094 58.6448 29.308C58.6841 28.4732 58.2908 27.7411 57.6221 27.4232H57.6188Z" fill="#D6CAAD"/>
<path d="M29.2315 22.0066C28.8119 22.0451 28.3956 22.0868 27.976 22.1254C27.8875 22.135 27.8121 22.1928 27.8121 22.2859C27.8121 22.3662 27.8875 22.4561 27.976 22.4465C28.3956 22.4079 28.8119 22.3662 29.2315 22.3277C29.32 22.318 29.3954 22.2602 29.3954 22.1671C29.3954 22.0868 29.32 21.9969 29.2315 22.0066Z" fill="#A1916D"/>
<path d="M27.976 23.3126C27.6416 23.3254 27.3073 23.3415 26.973 23.3543C26.8877 23.3575 26.8058 23.425 26.8091 23.5149C26.8123 23.5984 26.8812 23.6786 26.973 23.6754C27.3073 23.6626 27.6416 23.6465 27.976 23.6337C28.0612 23.6305 28.1432 23.563 28.1399 23.4731C28.1366 23.3897 28.0678 23.3094 27.976 23.3126Z" fill="#A1916D"/>
<path d="M22.9443 23.8523C22.9181 23.7623 22.8296 23.7238 22.7411 23.7399C22.3117 23.8202 21.8987 23.9775 21.5283 24.2023C21.4529 24.2472 21.4234 24.3467 21.4693 24.4206C21.5119 24.4944 21.6168 24.5233 21.6922 24.4784C22.0429 24.2665 22.4199 24.122 22.8263 24.0481C22.9148 24.0321 22.964 23.9293 22.9411 23.849L22.9443 23.8523Z" fill="#A1916D"/>
<path d="M19.85 24.8026C19.8238 24.7095 19.7353 24.6774 19.6467 24.6902C19.2108 24.7544 18.7879 24.8732 18.3847 25.0434C18.3027 25.0787 18.2864 25.1943 18.3257 25.2617C18.3749 25.3452 18.4666 25.3549 18.5486 25.3195C18.9256 25.1622 19.3288 25.0562 19.732 24.9984C19.8205 24.9856 19.8664 24.8764 19.8467 24.7994L19.85 24.8026Z" fill="#A1916D"/>
<path d="M16.4342 26.3822C16.3916 26.3115 16.2834 26.273 16.2113 26.3244C15.7786 26.6262 15.3492 26.928 14.9165 27.2299C14.8444 27.2812 14.8116 27.3711 14.8575 27.4482C14.9001 27.5188 15.0083 27.5574 15.0804 27.506C15.5131 27.2042 15.9425 26.9023 16.3752 26.6005C16.4473 26.5491 16.4801 26.4592 16.4342 26.3822Z" fill="#A1916D"/>
<path d="M19.3124 23.3612C18.483 23.3419 17.6537 23.4768 16.8801 23.769C16.6834 23.8428 16.7686 24.1511 16.9686 24.0772C17.7193 23.7979 18.5125 23.663 19.3124 23.6823C19.5222 23.6887 19.5222 23.3676 19.3124 23.3612Z" fill="#A1916D"/>
<path d="M21.3972 27.9046C21.3742 27.8276 21.2792 27.7633 21.1939 27.7922C20.735 27.956 20.2728 28.1197 19.8139 28.2835C19.732 28.3124 19.6762 28.3927 19.6992 28.4826C19.7221 28.5596 19.8172 28.6238 19.9024 28.5949C20.3613 28.4312 20.8235 28.2675 21.2825 28.1037C21.3644 28.0748 21.4201 27.9945 21.3972 27.9046Z" fill="#A1916D"/>
<path d="M25.983 26.3889C25.9338 26.3086 25.8388 26.2957 25.7601 26.3311C25.2848 26.5366 24.8128 26.7421 24.3375 26.9443C24.2555 26.9797 24.2391 27.0953 24.2785 27.1627C24.3276 27.243 24.4227 27.2558 24.5014 27.2205C24.9767 27.015 25.4487 26.8095 25.924 26.6072C26.0059 26.5719 26.0223 26.4563 25.983 26.3889Z" fill="#A1916D"/>
<path d="M27.6383 29.35C27.0155 29.5233 26.4222 29.7931 25.8846 30.1463C25.7109 30.2619 25.8748 30.538 26.0485 30.4224C26.5631 30.082 27.1269 29.8252 27.7235 29.6582C27.9268 29.6004 27.8383 29.2922 27.6351 29.35H27.6383Z" fill="#A1916D"/>
<path d="M26.4878 31.0677C26.4452 30.9971 26.337 30.9585 26.2649 31.0099C25.688 31.4113 25.1406 31.8512 24.6292 32.336C24.4784 32.4805 24.7079 32.7053 24.8619 32.564C25.3503 32.1017 25.8748 31.6746 26.4288 31.2893C26.5009 31.2379 26.5337 31.148 26.4878 31.0709V31.0677Z" fill="#A1916D"/>
<path d="M29.6937 32.8525C28.943 33.3278 28.2186 33.8415 27.5236 34.3874C27.4548 34.442 27.4679 34.5576 27.5236 34.6153C27.5925 34.6828 27.6876 34.6699 27.7564 34.6153C28.4317 34.0855 29.1331 33.5879 29.8608 33.1287C30.0379 33.0163 29.874 32.7402 29.6969 32.8525H29.6937Z" fill="#A1916D"/>
<path d="M31.8604 34.3974C31.7916 34.33 31.6965 34.3429 31.6277 34.3974C31.1622 34.7699 30.7098 35.1649 30.2804 35.5759C30.1296 35.7204 30.3623 35.9483 30.5131 35.8038C30.9458 35.3928 31.3949 34.9979 31.8604 34.6254C31.9293 34.5708 31.9194 34.4552 31.8604 34.3974Z" fill="#A1916D"/>
<path d="M30.3198 24.7932C29.7953 24.8606 29.2774 24.9698 28.7693 25.1271C28.5693 25.1881 28.6546 25.4996 28.8578 25.4353C29.3364 25.2876 29.8248 25.1785 30.3198 25.1142C30.4083 25.1014 30.4837 25.05 30.4837 24.9537C30.4837 24.8766 30.4083 24.7803 30.3198 24.7932Z" fill="#A1916D"/>
<path d="M31.1884 25.5703C31.1753 25.5318 31.1524 25.4933 31.113 25.474C31.0999 25.4676 31.0868 25.4644 31.0737 25.4579C31.0442 25.4515 31.0147 25.4515 30.9852 25.4579C30.8869 25.4708 30.7885 25.4836 30.6935 25.4997C30.6541 25.5061 30.6148 25.5414 30.5951 25.5735C30.5754 25.6089 30.5656 25.6602 30.5787 25.6988C30.5918 25.7373 30.6148 25.7758 30.6541 25.7951C30.6672 25.8015 30.6803 25.8047 30.6935 25.8112C30.723 25.8176 30.7525 25.8176 30.782 25.8112C30.8803 25.7983 30.9786 25.7855 31.0737 25.7694C31.113 25.763 31.1524 25.7277 31.172 25.6955C31.1917 25.6602 31.2015 25.6089 31.1884 25.5703Z" fill="#A1916D"/>
<path d="M31.867 22.3751C31.631 22.3623 31.3917 22.3494 31.1557 22.3334C31.0705 22.3269 30.9885 22.4104 30.9918 22.4939C30.9951 22.5838 31.0639 22.648 31.1557 22.6544C31.3917 22.6673 31.631 22.6801 31.867 22.6962C31.9522 22.7026 32.0342 22.6191 32.0309 22.5356C32.0276 22.4457 31.9588 22.3815 31.867 22.3751Z" fill="#A1916D"/>
<path d="M35.522 34.7511C35.4728 34.6772 35.3778 34.6483 35.2991 34.6933C34.9385 34.8988 34.6304 35.1878 34.4042 35.5313C34.3583 35.602 34.3878 35.7111 34.4632 35.7497C34.5452 35.7914 34.637 35.769 34.6861 35.6919C34.7124 35.6534 34.7386 35.6148 34.7681 35.5763C34.7746 35.5667 34.7812 35.557 34.7877 35.5506C34.7877 35.5506 34.7877 35.5506 34.7877 35.5474C34.8041 35.5281 34.8205 35.5089 34.8369 35.4896C34.8959 35.419 34.9615 35.3515 35.0303 35.2873C35.0631 35.2552 35.0959 35.2263 35.1319 35.1974C35.1516 35.1813 35.1712 35.1653 35.1909 35.1492C35.1909 35.1492 35.2008 35.1428 35.2073 35.1364C35.2139 35.1332 35.2237 35.1236 35.2237 35.1236C35.2991 35.0658 35.3811 35.0144 35.463 34.9694C35.5384 34.9277 35.5712 34.8217 35.522 34.7511Z" fill="#A1916D"/>
<path d="M35.3745 35.7966C35.2925 35.7484 35.2007 35.7838 35.1515 35.8544C34.7352 36.4292 34.3222 37.0071 33.9059 37.5819C33.8535 37.6525 33.8928 37.7617 33.9649 37.8002C34.0469 37.8484 34.1387 37.8131 34.1878 37.7424C34.6041 37.1677 35.0171 36.5897 35.4334 36.0149C35.4859 35.9443 35.4466 35.8351 35.3745 35.7966Z" fill="#A1916D"/>
<path d="M45.3852 16.9298C45.2967 16.9169 45.2115 16.8977 45.1263 16.8688C45.1165 16.8656 45.1034 16.8624 45.0935 16.8559C45.087 16.8559 45.0837 16.8527 45.0804 16.8495C45.0607 16.8399 45.0411 16.8335 45.0247 16.8238C44.9853 16.8046 44.946 16.7821 44.9067 16.7596C44.8903 16.75 44.8706 16.7371 44.8542 16.7243C44.8444 16.7179 44.8346 16.7114 44.8247 16.705C44.8247 16.705 44.8182 16.6986 44.8149 16.6954C44.7821 16.6697 44.7493 16.6408 44.7198 16.6119C44.6871 16.583 44.6576 16.5509 44.628 16.5156C44.628 16.5156 44.6018 16.4835 44.6149 16.4995C44.628 16.5156 44.6018 16.4835 44.6018 16.4835C44.5887 16.4642 44.5756 16.4449 44.5625 16.4257C44.5166 16.355 44.415 16.3197 44.3396 16.3679C44.2675 16.4128 44.2314 16.5124 44.2806 16.5862C44.51 16.9298 44.8837 17.177 45.3 17.2316C45.3853 17.2445 45.4803 17.2124 45.5033 17.1192C45.5197 17.0422 45.4803 16.933 45.3885 16.9202L45.3852 16.9298Z" fill="#A1916D"/>
<path d="M45.8442 15.6199C45.4771 15.5461 45.1526 15.4208 44.8379 15.2282C44.7658 15.1832 44.6543 15.2089 44.615 15.286C44.5724 15.363 44.5953 15.4594 44.674 15.5043C45.0084 15.7066 45.3755 15.8511 45.759 15.9282C45.8442 15.9442 45.9393 15.9057 45.9622 15.8158C45.9819 15.7355 45.936 15.636 45.8475 15.6167L45.8442 15.6199Z" fill="#A1916D"/>
<path d="M47.103 17.0901L46.1819 16.8492C46.0999 16.8268 46.0016 16.8749 45.9786 16.9616C45.959 17.0451 46.0048 17.135 46.0933 17.1607C46.4015 17.241 46.7096 17.3213 47.0145 17.4015C47.0964 17.424 47.1948 17.3758 47.2177 17.2891C47.2374 17.2057 47.1915 17.1158 47.103 17.0901Z" fill="#A1916D"/>
<path d="M47.9683 17.4917C47.9552 17.4532 47.9323 17.4147 47.8929 17.3954C47.8569 17.3761 47.8077 17.3633 47.7651 17.3793C47.6963 17.405 47.6274 17.4243 47.5553 17.4339C47.4799 17.4436 47.4045 17.4436 47.3291 17.4339C47.3095 17.4307 47.2898 17.4275 47.2701 17.4243C47.1882 17.405 47.0898 17.45 47.0669 17.5367C47.0472 17.6169 47.0931 17.7133 47.1816 17.7358C47.4045 17.7839 47.6405 17.7743 47.8536 17.6908C47.8962 17.6747 47.929 17.6555 47.952 17.6169C47.9716 17.5816 47.9814 17.5302 47.9683 17.4917Z" fill="#A1916D"/>
<path d="M48.2699 16.4543C47.9913 16.2777 47.7094 16.1043 47.4308 15.9277C47.3587 15.8827 47.2472 15.9116 47.2079 15.9855C47.1653 16.0657 47.1882 16.1556 47.2669 16.2038C47.5455 16.3804 47.8274 16.5538 48.106 16.7304C48.1782 16.7754 48.2896 16.7465 48.329 16.6726C48.3716 16.5923 48.3486 16.5024 48.2699 16.4543Z" fill="#A1916D"/>
<path d="M38.5311 34.6828C38.023 35.1388 37.5674 35.6429 37.1576 36.1855C37.1052 36.2562 37.1445 36.3654 37.2166 36.4039C37.2986 36.4521 37.3871 36.4167 37.4395 36.3461C37.8329 35.8259 38.2754 35.3475 38.7606 34.9108C38.9146 34.7695 38.6852 34.5448 38.5278 34.6828H38.5311Z" fill="#A1916D"/>
<path d="M41.1437 34.1017C41.0814 34.0439 40.9732 34.0343 40.911 34.1017C40.7438 34.2783 40.5766 34.4581 40.4094 34.6347C40.3504 34.6957 40.3439 34.8017 40.4094 34.8627C40.4717 34.9205 40.5799 34.9301 40.6421 34.8627C40.8093 34.6861 40.9765 34.5063 41.1437 34.3297C41.2027 34.2687 41.2092 34.1627 41.1437 34.1017Z" fill="#A1916D"/>
<path d="M42.8219 33.286C42.7563 33.2282 42.6547 33.2218 42.5892 33.286C42.3204 33.5493 42.0745 33.8351 41.8516 34.1369C41.8024 34.2043 41.8385 34.3199 41.9106 34.3552C41.9958 34.4002 42.0811 34.3713 42.1335 34.2974C42.1597 34.2621 42.186 34.2268 42.2122 34.1947C42.2253 34.1786 42.2384 34.1594 42.2515 34.1433C42.2515 34.1433 42.2515 34.1401 42.2548 34.1369C42.2614 34.1273 42.2712 34.1176 42.2777 34.108C42.3335 34.0374 42.3925 33.9699 42.4482 33.9025C42.5662 33.7676 42.6875 33.6392 42.8153 33.514C42.8776 33.453 42.8809 33.347 42.8153 33.286H42.8219Z" fill="#A1916D"/>
<path d="M43.8676 35.338C43.8086 35.2802 43.6939 35.2706 43.6349 35.338C43.2678 35.7651 42.9105 36.1986 42.5663 36.6449C42.5138 36.7156 42.5564 36.8247 42.6253 36.8632C42.7105 36.9114 42.7957 36.8761 42.8482 36.8055C43.176 36.3816 43.5136 35.9706 43.8644 35.5628C43.9201 35.4954 43.9299 35.4023 43.8644 35.3349L43.8676 35.338Z" fill="#A1916D"/>
<path d="M39.2719 25.2972C38.7179 25.1238 38.1377 25.0371 37.5575 25.0371C37.3477 25.0371 37.3477 25.3582 37.5575 25.3582C38.1115 25.3582 38.6589 25.4449 39.1867 25.6087C39.3866 25.6729 39.4751 25.3614 39.2752 25.3004L39.2719 25.2972Z" fill="#A1916D"/>
<path d="M39.2751 26.8902C38.8523 26.7585 38.4196 26.6622 37.977 26.6012C37.8885 26.5883 37.8 26.6237 37.7738 26.7136C37.7541 26.7874 37.8 26.8998 37.8885 26.9127C38.3278 26.9737 38.7605 27.07 39.1866 27.2016C39.3866 27.2626 39.4751 26.9544 39.2751 26.8934V26.8902Z" fill="#A1916D"/>
<path d="M39.6096 28.5696C39.3572 28.5407 39.108 28.515 38.8556 28.4861C38.7704 28.4764 38.6885 28.5663 38.6917 28.6466C38.695 28.7429 38.7639 28.7975 38.8556 28.8072C39.108 28.8361 39.3572 28.8617 39.6096 28.8906C39.6948 28.9003 39.7767 28.8104 39.7735 28.7301C39.7702 28.6338 39.7013 28.5792 39.6096 28.5696Z" fill="#A1916D"/>
<path d="M41.6943 28.0814C41.6648 27.998 41.5828 27.9498 41.491 27.9691C41.3239 28.0076 41.1567 28.0493 40.9863 28.0879C40.9043 28.1071 40.8453 28.2035 40.8715 28.287C40.901 28.3704 40.983 28.4186 41.0748 28.3993C41.2419 28.3608 41.4091 28.3191 41.5795 28.2805C41.6615 28.2613 41.7205 28.1649 41.6943 28.0814Z" fill="#A1916D"/>
<path d="M44.4018 38.3139C44.392 38.2272 44.333 38.1533 44.2379 38.1533C44.156 38.1533 44.0642 38.2272 44.074 38.3139C44.1199 38.7184 44.015 39.1423 43.7528 39.4698C43.697 39.5373 43.6839 39.6304 43.7528 39.6978C43.8085 39.7524 43.9298 39.7652 43.9855 39.6978C44.2969 39.3061 44.4575 38.8116 44.4018 38.3139Z" fill="#A1916D"/>
<path d="M46.1752 39.2883C46.1031 39.2465 45.9917 39.269 45.9524 39.3461C45.7163 39.786 45.4508 40.2098 45.1558 40.6144C45.1033 40.685 45.1427 40.7942 45.2148 40.8327C45.2968 40.8809 45.3885 40.8456 45.4377 40.7749C45.7327 40.3704 45.9983 39.9465 46.2343 39.5066C46.2736 39.4296 46.2539 39.3332 46.1752 39.2883Z" fill="#A1916D"/>
<path d="M48.0667 38.8091C47.9585 39.1784 47.8537 39.5508 47.7455 39.9201C47.6898 40.1192 48.0044 40.2059 48.0601 40.0068C48.1683 39.6375 48.2732 39.2651 48.3814 38.8958C48.4371 38.6967 48.1224 38.61 48.0667 38.8091Z" fill="#A1916D"/>
<path d="M45.7197 36.8888C45.6344 36.892 45.5525 36.9594 45.5558 37.0493C45.5558 37.12 45.5558 37.1874 45.5558 37.258C45.5558 37.2741 45.5557 37.2869 45.5525 37.303C45.5525 37.3062 45.5492 37.3383 45.5459 37.3415C45.5427 37.3704 45.5361 37.3993 45.5295 37.4282C45.5164 37.4924 45.4968 37.5566 45.4771 37.6209C45.4672 37.653 45.4541 37.6851 45.441 37.7172C45.441 37.7236 45.441 37.7236 45.441 37.7236C45.441 37.7236 45.441 37.7236 45.4377 37.7332C45.4279 37.7525 45.4214 37.7685 45.4115 37.7878C45.3755 37.8649 45.3886 37.9644 45.4705 38.0062C45.5426 38.0447 45.6541 38.0286 45.6934 37.9483C45.8311 37.669 45.9032 37.3608 45.8868 37.0493C45.8836 36.9658 45.8147 36.8856 45.7229 36.8888H45.7197Z" fill="#A1916D"/>
<path d="M43.9988 42.935C43.9234 42.8965 43.8152 42.9126 43.7759 42.9928C43.6218 43.2947 43.4415 43.5836 43.235 43.8534C43.1826 43.9208 43.2219 44.0364 43.294 44.0717C43.3792 44.1167 43.4645 44.0845 43.5169 44.0139C43.7234 43.7442 43.907 43.4552 44.0578 43.1534C44.0971 43.0795 44.0807 42.9768 43.9988 42.935Z" fill="#A1916D"/>
<path d="M40.7798 37.2586C40.6421 37.7756 40.3274 38.2476 39.8882 38.5687C39.8161 38.62 39.78 38.7068 39.8291 38.787C39.8685 38.8545 39.9832 38.8962 40.0521 38.8448C40.5602 38.4723 40.9338 37.9458 41.0944 37.3421C41.1469 37.143 40.8322 37.0563 40.7798 37.2554V37.2586Z" fill="#A1916D"/>
<path d="M38.5769 36.9657C38.531 36.8951 38.4294 36.8597 38.354 36.9079C38.0393 37.1102 37.7738 37.3863 37.5935 37.7106C37.5542 37.7845 37.5738 37.8905 37.6525 37.929C37.7279 37.9675 37.8328 37.9515 37.8754 37.8712C37.9148 37.7973 37.9606 37.7267 38.0098 37.6593C38.0229 37.6432 38.0328 37.6272 38.0459 37.6111C38.0524 37.6047 38.059 37.595 38.0655 37.5886C38.0918 37.5565 38.1213 37.5244 38.1508 37.4923C38.2065 37.4313 38.2655 37.3767 38.3311 37.3221C38.3475 37.3093 38.3638 37.2964 38.3802 37.2836C38.3802 37.2836 38.3835 37.2804 38.3868 37.2772C38.3933 37.2708 38.4032 37.2644 38.4097 37.2611C38.4458 37.2355 38.4818 37.2129 38.5179 37.1873C38.59 37.1423 38.6261 37.0428 38.5769 36.9689V36.9657Z" fill="#A1916D"/>
<path d="M42.0615 40.251C42.0057 40.1964 41.8844 40.1835 41.8287 40.251C41.4288 40.7454 41.0256 41.2399 40.6257 41.7344C40.57 41.8018 40.5569 41.8949 40.6257 41.9624C40.6814 42.017 40.8027 42.0298 40.8584 41.9624C41.2583 41.4679 41.6615 40.9734 42.0615 40.4789C42.1172 40.4115 42.1303 40.3184 42.0615 40.251Z" fill="#A1916D"/>
<path d="M30.2346 27.876C29.8215 27.9274 29.4151 28.0076 29.0184 28.1232C28.9332 28.1489 28.8808 28.2356 28.9037 28.3223C28.9267 28.4058 29.0217 28.4604 29.1069 28.4347C29.4774 28.3287 29.8543 28.2452 30.2346 28.2003C30.3231 28.1907 30.3985 28.1329 30.3985 28.0397C30.3985 27.9627 30.3231 27.8696 30.2346 27.8792V27.876Z" fill="#A1916D"/>
<path d="M31.49 30.4126C30.8902 30.3548 30.2903 30.3516 29.6904 30.4062C29.6019 30.4158 29.5265 30.4736 29.5265 30.5667C29.5265 30.647 29.6019 30.7369 29.6904 30.7273C30.2903 30.6727 30.8902 30.6727 31.49 30.7337C31.5785 30.7433 31.6539 30.6534 31.6539 30.5732C31.6539 30.4801 31.5785 30.4223 31.49 30.4126Z" fill="#A1916D"/>
<path d="M32.6536 31.9312C32.6241 31.8445 32.5421 31.7996 32.4504 31.8189C32.2274 31.8702 32.0013 31.9184 31.7784 31.9698C31.6932 31.989 31.6374 32.0886 31.6636 32.1688C31.6931 32.2555 31.7751 32.3005 31.8669 32.2813C32.0898 32.2299 32.316 32.1817 32.5389 32.1303C32.6241 32.1111 32.6798 32.0115 32.6536 31.9312Z" fill="#A1916D"/>
<path d="M22.6788 30.2482C22.6296 30.168 22.5346 30.1551 22.4559 30.1904C22.0625 30.367 21.6856 30.5693 21.3217 30.7941C21.2463 30.8391 21.2168 30.9386 21.2627 31.0124C21.3053 31.0863 21.4102 31.1152 21.4856 31.0702C21.8495 30.8455 22.2297 30.6432 22.6198 30.4666C22.7017 30.4313 22.7214 30.3157 22.6788 30.2482Z" fill="#A1916D"/>
<path d="M22.1903 32.8237C22.1772 32.7852 22.1542 32.7467 22.1149 32.7274C22.0789 32.7082 22.0297 32.6953 21.9871 32.7114C21.8199 32.7788 21.6527 32.8494 21.4856 32.9169C21.443 32.9329 21.4102 32.9522 21.3872 32.9907C21.3675 33.026 21.3577 33.0774 21.3708 33.116C21.384 33.1545 21.4069 33.193 21.4462 33.2123C21.4823 33.2315 21.5315 33.2444 21.5741 33.2283C21.7413 33.1609 21.9084 33.0903 22.0756 33.0228C22.1182 33.0068 22.151 32.9875 22.1739 32.949C22.1936 32.9137 22.2034 32.8623 22.1903 32.8237Z" fill="#A1916D"/>
<path d="M6.93474 30.826C6.64628 31.0893 6.38074 31.3783 6.13817 31.6834C5.90871 31.9755 5.61699 32.3127 5.62027 32.7012C5.62027 32.9067 5.94806 32.9067 5.94806 32.7012C5.94806 32.5374 6.02674 32.3929 6.11853 32.2581C6.21686 32.1104 6.32175 31.9691 6.4332 31.831C6.6561 31.5549 6.90195 31.2948 7.16746 31.0508C7.32153 30.9095 7.0888 30.6815 6.93474 30.8228V30.826Z" fill="#A1916D"/>
<path d="M9.09154 32.5058C9.0227 32.4384 8.92765 32.4513 8.85881 32.5058C8.4294 32.8494 8.03605 33.2315 7.68203 33.649C7.62631 33.7164 7.61647 33.8095 7.68203 33.8769C7.74103 33.9347 7.85575 33.9443 7.91475 33.8769C8.26878 33.4595 8.66212 33.0774 9.09154 32.7338C9.16037 32.6792 9.15054 32.5636 9.09154 32.5058Z" fill="#A1916D"/>
<path d="M11.242 33.104C10.7142 33.3866 10.2291 33.7494 9.81276 34.1797C9.66853 34.3306 9.89798 34.5554 10.0455 34.4077C10.4421 33.9967 10.901 33.6531 11.4059 33.3834C11.5927 33.2838 11.4255 33.0077 11.242 33.1072V33.104Z" fill="#A1916D"/>
<path d="M13.9003 31.8888C13.8413 31.8374 13.7266 31.8182 13.6676 31.8888C13.4709 32.1328 13.2742 32.3801 13.0808 32.6241C13.0513 32.6594 13.0316 32.6915 13.0316 32.7365C13.0316 32.775 13.048 32.8232 13.0808 32.8489C13.1398 32.9003 13.2545 32.9195 13.3135 32.8489C13.5102 32.6048 13.7069 32.3576 13.9003 32.1136C13.9298 32.0783 13.9495 32.0462 13.9495 32.0012C13.9495 31.9627 13.9331 31.9145 13.9003 31.8888Z" fill="#A1916D"/>
<path d="M11.9893 28.3711C11.3206 28.5509 10.6617 28.766 10.0193 29.0165C9.9373 29.0486 9.87827 29.1225 9.90449 29.2156C9.92744 29.2926 10.0225 29.3601 10.1077 29.3279C10.7535 29.0775 11.4091 28.8624 12.0778 28.6825C12.281 28.628 12.1958 28.3165 11.9893 28.3743V28.3711Z" fill="#A1916D"/>
<path d="M18.8666 32.291C18.8174 32.2075 18.7224 32.1979 18.6437 32.2332C18.2438 32.4034 17.8537 32.596 17.4768 32.8144C17.4014 32.8593 17.3718 32.9589 17.4177 33.0327C17.4636 33.1066 17.5653 33.1354 17.6407 33.0905C18.0176 32.8754 18.4077 32.6795 18.8076 32.5093C18.8895 32.474 18.906 32.3584 18.8666 32.291Z" fill="#A1916D"/>
<path d="M17.3258 29.472C17.2832 29.4014 17.1751 29.3628 17.103 29.4142C16.726 29.6743 16.349 29.9344 15.9753 30.1945C15.9032 30.2459 15.8704 30.3357 15.9163 30.4128C15.9589 30.4835 16.0671 30.522 16.1392 30.4706C16.5162 30.2105 16.8932 29.9504 17.2669 29.6904C17.339 29.639 17.3717 29.5491 17.3258 29.472Z" fill="#A1916D"/>
<path d="M11.9008 25.5834C11.396 25.8338 10.8649 26.0233 10.3142 26.1549C10.111 26.2031 10.1962 26.5145 10.4028 26.4632C10.9797 26.3251 11.537 26.1196 12.068 25.8595C12.2581 25.7664 12.0909 25.4902 11.9041 25.5834H11.9008Z" fill="#A1916D"/>
<path d="M23.7933 35.8874C23.7113 35.8392 23.6196 35.8745 23.5704 35.9452C23.082 36.6098 22.6198 37.2938 22.1838 37.9905C22.0724 38.1671 22.3576 38.3277 22.4657 38.1511C22.9017 37.4511 23.3639 36.7704 23.8523 36.1057C23.9048 36.0351 23.8654 35.9259 23.7933 35.8874Z" fill="#A1916D"/>
<path d="M25.7633 38.9245C25.678 38.8763 25.5928 38.9117 25.5404 38.9823C25.1143 39.541 24.7078 40.1126 24.321 40.7002C24.2063 40.8736 24.4882 41.0341 24.6029 40.8607C24.9897 40.2763 25.3962 39.7016 25.8223 39.1429C25.8747 39.0722 25.8354 38.963 25.7633 38.9245Z" fill="#A1916D"/>
<path d="M26.4288 41.5866C26.3468 41.5385 26.2583 41.5738 26.2059 41.6444C25.8289 42.1517 25.4913 42.6816 25.1962 43.2403C25.0979 43.4233 25.3831 43.587 25.4781 43.4008C25.7732 42.8453 26.1108 42.3123 26.4878 41.805C26.5402 41.7343 26.5009 41.6252 26.4288 41.5866Z" fill="#A1916D"/>
<path d="M26.2124 44.1621C26.1403 44.1203 26.0256 44.1396 25.9895 44.2198C25.7797 44.6565 25.5699 45.0932 25.3634 45.5331C25.3274 45.6101 25.3405 45.7065 25.4225 45.7514C25.4946 45.7932 25.6093 45.7739 25.6453 45.6936C25.8551 45.2569 26.0649 44.8203 26.2714 44.3804C26.3075 44.3033 26.2944 44.207 26.2124 44.1621Z" fill="#A1916D"/>
<path d="M29.3003 37.7111C29.2413 37.6533 29.1266 37.6437 29.0676 37.7111C28.6611 38.1735 28.3398 38.6937 28.1038 39.2588C28.071 39.3391 28.1399 39.4354 28.2185 39.4579C28.3136 39.4835 28.3857 39.4258 28.4218 39.3455C28.6348 38.8349 28.9364 38.3565 29.3036 37.9391C29.3626 37.8749 29.3691 37.7753 29.3036 37.7111H29.3003Z" fill="#A1916D"/>
<path d="M30.4213 39.6057C29.8772 40.2479 29.5002 41.0154 29.3461 41.8374C29.3101 42.0397 29.6247 42.1263 29.6608 41.924C29.805 41.1566 30.1394 40.4342 30.6508 39.8337C30.7852 39.6764 30.5557 39.4484 30.418 39.6057H30.4213Z" fill="#A1916D"/>
<path d="M31.8571 41.6896C31.7981 41.6318 31.6834 41.6222 31.6244 41.6896C31.1163 42.2933 30.7065 42.9612 30.4017 43.6836C30.3689 43.7639 30.4377 43.8602 30.5164 43.8827C30.6115 43.9084 30.6836 43.8506 30.7196 43.7703C31.0015 43.1024 31.3884 42.4763 31.8571 41.9176C31.9128 41.8502 31.9227 41.757 31.8571 41.6896Z" fill="#A1916D"/>
<path d="M35.5612 40.4816C35.4858 40.4399 35.3777 40.4624 35.3383 40.5394C35.1253 40.9344 34.9122 41.3293 34.6991 41.7243C34.6565 41.8013 34.6794 41.8977 34.7581 41.9426C34.8335 41.9844 34.9417 41.9619 34.981 41.8848C35.1941 41.4899 35.4072 41.0949 35.6202 40.7C35.6628 40.6229 35.6399 40.5266 35.5612 40.4816Z" fill="#A1916D"/>
<path d="M37.0855 41.1565C37.0265 41.1019 36.9118 41.0859 36.8528 41.1565C36.643 41.407 36.466 41.6767 36.3283 41.9689C36.2922 42.0459 36.3053 42.1455 36.3873 42.1872C36.4594 42.2258 36.5742 42.2097 36.6102 42.1294C36.6758 41.9913 36.7479 41.8597 36.8298 41.728C36.8692 41.6638 36.9118 41.6028 36.9577 41.5418C36.9806 41.5129 37.0035 41.4808 37.0265 41.4519C37.033 41.4455 37.0396 41.4359 37.0429 41.4294C37.056 41.4134 37.0691 41.3973 37.0822 41.3813C37.138 41.3171 37.1511 41.2175 37.0822 41.1533L37.0855 41.1565Z" fill="#A1916D"/>
<path d="M38.8097 41.7434C38.731 41.7016 38.6327 41.7241 38.5868 41.8011C38.4425 42.0323 38.3246 42.2796 38.2426 42.5397C38.2164 42.6199 38.2721 42.7195 38.3573 42.7387C38.4458 42.758 38.5311 42.7131 38.5606 42.6264C38.5802 42.5654 38.5999 42.5075 38.6228 42.4465C38.6294 42.4305 38.636 42.4145 38.6425 42.3984C38.6425 42.392 38.6655 42.3406 38.6524 42.3791C38.6622 42.3502 38.6753 42.3245 38.6884 42.2988C38.7441 42.1832 38.8031 42.0709 38.872 41.9649C38.9178 41.8942 38.8916 41.7851 38.813 41.7466L38.8097 41.7434Z" fill="#A1916D"/>
<path d="M42.4351 43.1757C42.4286 43.1564 42.4187 43.1371 42.4024 43.1243C42.3696 43.0954 42.3302 43.0762 42.2876 43.0762C42.2745 43.0762 42.2581 43.0794 42.245 43.0826C42.2188 43.089 42.1926 43.105 42.1729 43.1243C42.1172 43.1789 42.0615 43.2335 42.0057 43.2881C41.9893 43.3041 41.9795 43.3202 41.973 43.3395C41.9631 43.3587 41.9566 43.378 41.9598 43.4005C41.9598 43.423 41.9631 43.4422 41.973 43.4615C41.9795 43.4807 41.9893 43.5 42.0057 43.5129C42.0385 43.5418 42.0778 43.561 42.1205 43.561C42.1336 43.561 42.15 43.5578 42.1631 43.5546C42.1893 43.5482 42.2155 43.5321 42.2352 43.5129C42.2909 43.4583 42.3466 43.4037 42.4024 43.3491C42.4187 43.333 42.4286 43.317 42.4351 43.2977C42.445 43.2784 42.4515 43.2592 42.4483 43.2367C42.4483 43.2142 42.445 43.195 42.4351 43.1757Z" fill="#A1916D"/>
<path d="M43.7103 27.8986C43.1366 27.8633 42.5663 27.8247 41.9926 27.7894C41.9041 27.783 41.8287 27.8665 41.8287 27.95C41.8287 28.0431 41.9041 28.1041 41.9926 28.1105C42.5663 28.1458 43.1366 28.1843 43.7103 28.2197C43.7988 28.2261 43.8742 28.1426 43.8742 28.0591C43.8742 27.966 43.7988 27.905 43.7103 27.8986Z" fill="#A1916D"/>
<path d="M43.8349 28.8138C43.5923 28.8267 43.353 28.8684 43.1203 28.9391C43.0383 28.9647 42.9793 29.0514 43.0056 29.1381C43.0318 29.2184 43.1203 29.2762 43.2088 29.2505C43.317 29.2184 43.4251 29.1895 43.5333 29.1702C43.5595 29.1638 43.5858 29.1606 43.6153 29.1574C43.6185 29.1574 43.648 29.151 43.6513 29.151C43.6284 29.151 43.6251 29.1542 43.6448 29.151C43.6513 29.151 43.6578 29.151 43.6644 29.151C43.7201 29.1446 43.7791 29.1381 43.8349 29.1349C43.9201 29.1285 44.002 29.0643 43.9988 28.9744C43.9955 28.8909 43.9266 28.8074 43.8349 28.8138Z" fill="#A1916D"/>
<path d="M44.3364 30.0012C44.0709 29.9788 43.8054 29.9788 43.5398 30.0012C43.4546 30.0077 43.3727 30.0687 43.3759 30.1618C43.3792 30.2421 43.4481 30.3287 43.5398 30.3223C43.8054 30.2998 44.0709 30.2998 44.3364 30.3223C44.4216 30.3287 44.5036 30.2421 44.5003 30.1618C44.497 30.0687 44.4282 30.0077 44.3364 30.0012Z" fill="#A1916D"/>
<path d="M47.2341 31.6427C47.1423 31.6459 47.0735 31.7133 47.0702 31.8032C47.0571 32.1179 47.044 32.4325 47.0309 32.7472C47.0276 32.8307 47.1095 32.911 47.1948 32.9078C47.2865 32.9045 47.3554 32.8371 47.3587 32.7472C47.3718 32.4325 47.3849 32.1179 47.398 31.8032C47.4013 31.7197 47.3193 31.6395 47.2341 31.6427Z" fill="#A1916D"/>
<path d="M49.1091 33.9678C48.9551 33.5311 48.7977 33.0944 48.6436 32.6577C48.6141 32.5742 48.5322 32.5229 48.4404 32.5453C48.3585 32.5678 48.2962 32.6609 48.3257 32.7444C48.4797 33.1811 48.6371 33.6178 48.7911 34.0544C48.8206 34.1379 48.9026 34.1893 48.9944 34.1669C49.0763 34.1444 49.1386 34.0513 49.1091 33.9678Z" fill="#A1916D"/>
<path d="M21.7775 49.1769C21.0727 49.7613 20.3024 50.2686 19.4829 50.6893C19.296 50.7856 19.4632 51.0617 19.6468 50.9654C20.4892 50.5287 21.2792 50.0053 22.0069 49.4017C22.1675 49.2668 21.9348 49.0421 21.7742 49.1737L21.7775 49.1769Z" fill="#A1916D"/>
<path d="M23.4328 50.4968C23.3935 50.4293 23.2787 50.3876 23.2099 50.439C22.7346 50.7922 22.2593 51.1454 21.784 51.4986C21.7151 51.55 21.6758 51.6366 21.725 51.7169C21.7643 51.7843 21.879 51.8261 21.9479 51.7747C22.4232 51.4215 22.8985 51.0683 23.3738 50.7151C23.4426 50.6637 23.482 50.577 23.4328 50.4968Z" fill="#A1916D"/>
<path d="M25.4159 49.9696C25.3504 49.9054 25.252 49.9118 25.1832 49.9696C24.7144 50.371 24.2195 50.7434 23.7081 51.0902C23.636 51.1384 23.6032 51.2315 23.6491 51.3086C23.6917 51.3792 23.7999 51.4145 23.872 51.3664C24.4096 51.0067 24.9243 50.615 25.4159 50.1976C25.4815 50.1398 25.475 50.0274 25.4159 49.9696Z" fill="#A1916D"/>
<path d="M26.5861 49.6719C26.5763 49.6334 26.5468 49.5949 26.5107 49.5756C26.4714 49.5564 26.4255 49.5467 26.3829 49.5596C26.3403 49.5724 26.3108 49.5981 26.2846 49.6334C26.2747 49.6462 26.2649 49.6591 26.255 49.6719C26.1862 49.7586 26.1075 49.8357 26.019 49.9031C25.9994 49.916 25.983 49.9288 25.9633 49.9417C25.9272 49.9642 25.901 49.9962 25.8879 50.038C25.8781 50.0765 25.8814 50.1279 25.9043 50.1632C25.9273 50.1985 25.96 50.2274 26.0026 50.2371C26.0452 50.2467 26.0911 50.2435 26.1305 50.221C26.3042 50.1086 26.4518 49.9673 26.5698 49.7972C26.5927 49.7651 26.596 49.7105 26.5861 49.6719Z" fill="#A1916D"/>
<path d="M28.1333 48.8622C28.0644 48.8012 27.9694 48.8012 27.9005 48.8622C27.7334 49.0131 27.5662 49.164 27.399 49.3117C27.3367 49.3695 27.3367 49.4819 27.399 49.5397C27.4678 49.6007 27.5629 49.6007 27.6318 49.5397C27.7989 49.3888 27.9661 49.2378 28.1333 49.0901C28.1956 49.0323 28.1956 48.92 28.1333 48.8622Z" fill="#A1916D"/>
<path d="M28.9758 50.0985C28.9069 50.0375 28.8119 50.0375 28.7431 50.0985C28.3956 50.4003 28.0481 50.7021 27.6974 51.0007C27.6318 51.0553 27.6351 51.1709 27.6974 51.2287C27.7662 51.2898 27.8612 51.2898 27.9301 51.2287C28.2776 50.9269 28.625 50.6251 28.9758 50.3265C29.0413 50.2719 29.0381 50.1563 28.9758 50.0985Z" fill="#A1916D"/>
<path d="M31.1097 49.655C31.0245 49.6068 30.9393 49.6421 30.8868 49.7128C30.523 50.1783 30.0968 50.599 29.6281 50.965C29.5593 51.0196 29.5691 51.1352 29.6281 51.193C29.6969 51.2604 29.792 51.2476 29.8608 51.193C30.3525 50.8077 30.7885 50.3646 31.1687 49.8765C31.2212 49.8091 31.1786 49.6967 31.1097 49.6582V49.655Z" fill="#A1916D"/>
<path d="M32.9586 46.1755C32.8734 46.1273 32.7882 46.1627 32.7357 46.2333C32.4145 46.6475 32.0703 47.0457 31.7097 47.4245C31.6507 47.4888 31.6441 47.5883 31.7097 47.6525C31.772 47.7136 31.8802 47.7168 31.9425 47.6525C32.3227 47.2512 32.6833 46.8305 33.0209 46.3938C33.0733 46.3232 33.0308 46.214 32.9619 46.1755H32.9586Z" fill="#A1916D"/>
<path d="M22.6591 46.7811C22.5935 46.7169 22.4952 46.7233 22.4263 46.7811C22.0461 47.1022 21.6626 47.4265 21.2823 47.7476C21.2168 47.8054 21.2233 47.9178 21.2823 47.9756C21.3479 48.0399 21.4462 48.0334 21.5151 47.9756C21.8953 47.6545 22.2788 47.3302 22.6591 47.0091C22.7246 46.9513 22.7181 46.8389 22.6591 46.7811Z" fill="#A1916D"/>
<path d="M24.2882 47.3559C23.8293 47.6256 23.3868 47.9146 22.9574 48.2261C22.8853 48.2774 22.8492 48.3642 22.8984 48.4444C22.941 48.5119 23.0524 48.5536 23.1213 48.5022C23.5507 48.1907 23.9965 47.9018 24.4521 47.6321C24.6324 47.5261 24.4685 47.2468 24.2882 47.3559Z" fill="#A1916D"/>
<path d="M26.5566 47.3696C25.8518 47.7999 25.1831 48.2879 24.557 48.8274C24.3964 48.9622 24.6291 49.1902 24.7898 49.0554C25.3962 48.5352 26.042 48.0664 26.7238 47.649C26.9008 47.5398 26.7369 47.2605 26.5599 47.3728L26.5566 47.3696Z" fill="#A1916D"/>
<path d="M27.7563 47.8766C27.7268 47.8509 27.6842 47.8252 27.6416 47.8284C27.5662 47.838 27.4941 47.8509 27.422 47.8766C27.3531 47.9023 27.2843 47.9344 27.2253 47.9761C27.1892 48.0018 27.163 48.0307 27.1499 48.0724C27.14 48.111 27.1433 48.1623 27.1663 48.1977C27.1892 48.233 27.222 48.2619 27.2646 48.2715C27.304 48.2811 27.3564 48.2812 27.3925 48.2555C27.4285 48.2298 27.4679 48.2105 27.5072 48.1912C27.5629 48.1688 27.6187 48.1527 27.6777 48.1463C27.6678 48.1463 27.658 48.1463 27.6481 48.1495C27.6711 48.1495 27.6908 48.1463 27.7104 48.1367C27.7301 48.1303 27.7498 48.1206 27.7629 48.1045C27.7924 48.0756 27.812 48.0307 27.812 47.9922C27.812 47.9504 27.7957 47.9087 27.7629 47.8798L27.7563 47.8766Z" fill="#A1916D"/>
<path d="M29.6903 43.9847C29.5985 43.959 29.5198 44.0168 29.4871 44.0971C29.3002 44.5691 29.061 45.0186 28.7823 45.4457C28.6676 45.6191 28.9528 45.7796 29.0642 45.6062C29.3592 45.1567 29.6051 44.6782 29.8051 44.1805C29.8378 44.1003 29.769 44.0039 29.6903 43.9815V43.9847Z" fill="#A1916D"/>
<path d="M31.7227 45.5742C31.667 45.5196 31.5457 45.5068 31.49 45.5742C31.172 45.9724 30.854 46.3705 30.5328 46.7687C30.4771 46.8361 30.464 46.9292 30.5328 46.9967C30.5885 47.0512 30.7098 47.0641 30.7655 46.9967L31.7227 45.8022C31.7784 45.7348 31.7915 45.6416 31.7227 45.5742Z" fill="#A1916D"/>
<path d="M35.2498 43.3722C35.1908 43.3144 35.0761 43.3048 35.0171 43.3722C34.6991 43.7415 34.4303 44.1461 34.2271 44.586C34.191 44.6662 34.2041 44.7594 34.2861 44.8043C34.3549 44.8461 34.4729 44.8268 34.509 44.7465C34.7024 44.3323 34.9482 43.9438 35.2498 43.597C35.3055 43.5296 35.3154 43.4364 35.2498 43.369V43.3722Z" fill="#A1916D"/>
<path d="M35.2892 44.8751C35.2826 44.8526 35.2728 44.8365 35.2597 44.8205C35.2466 44.8044 35.2335 44.7884 35.2138 44.7787C35.1745 44.7595 35.1286 44.7498 35.086 44.7627C35.0466 44.7755 35.0106 44.8012 34.9876 44.8365C34.945 44.904 34.9024 44.9746 34.863 45.042C34.8499 45.0613 34.8434 45.0806 34.8434 45.103C34.8401 45.1255 34.8401 45.1448 34.8434 45.1673C34.85 45.1897 34.8598 45.2058 34.8729 45.2218C34.886 45.2379 34.8991 45.2539 34.9188 45.2636C34.9581 45.2828 35.004 45.2925 35.0466 45.2796C35.086 45.2668 35.122 45.2411 35.1449 45.2058C35.1876 45.1384 35.2302 45.0677 35.2695 45.0003C35.2826 44.981 35.2892 44.9617 35.2892 44.9393C35.2925 44.9168 35.2925 44.8975 35.2892 44.8751Z" fill="#A1916D"/>
<path d="M23.0524 41.1472C23.0295 41.1118 22.9967 41.083 22.9541 41.0733C22.9148 41.0637 22.8623 41.0637 22.8263 41.0893C22.6722 41.1985 22.5181 41.3077 22.3674 41.4169C22.3313 41.4426 22.3051 41.4683 22.292 41.5132C22.2821 41.5517 22.2854 41.6031 22.3084 41.6384C22.3313 41.6738 22.3641 41.7027 22.4067 41.7123C22.446 41.7219 22.4985 41.7219 22.5345 41.6962C22.6886 41.587 22.8427 41.4779 22.9935 41.3687C23.0295 41.343 23.0557 41.3173 23.0688 41.2724C23.0787 41.2339 23.0754 41.1825 23.0524 41.1472Z" fill="#A1916D"/>
<path d="M3.38464 36.1822C3.45675 35.9896 3.14208 35.9029 3.06996 36.0955C2.89623 36.5579 2.75527 37.0299 2.65037 37.5115C2.55859 37.929 2.50286 38.3785 2.73232 38.7638C2.83722 38.9436 3.12244 38.7799 3.01426 38.6033C2.80775 38.2533 2.90935 37.8262 2.99458 37.457C3.09619 37.0235 3.22733 36.5996 3.38139 36.1822H3.38464Z" fill="#A1916D"/>
<path d="M4.79412 36.0932C4.72528 36.0547 4.60402 36.0707 4.57124 36.151C4.36473 36.623 4.21062 37.1143 4.12212 37.6249C4.11228 37.6891 4.12871 37.7758 4.19754 37.8047C4.34833 37.8721 4.49911 37.8336 4.59417 37.7019C4.64661 37.6313 4.60726 37.5221 4.53515 37.4836C4.51876 37.4739 4.5024 37.4707 4.48601 37.4675C4.57124 37.0725 4.68924 36.684 4.85314 36.3148C4.8892 36.2345 4.87607 36.1414 4.79412 36.0965V36.0932Z" fill="#A1916D"/>
<path d="M5.30885 36.6378C5.14167 37.158 4.97449 37.6749 4.80731 38.1951C4.74503 38.3942 5.0597 38.4777 5.12198 38.2818C5.28916 37.7616 5.45635 37.2447 5.62352 36.7245C5.6858 36.5254 5.37113 36.4419 5.30885 36.6378Z" fill="#A1916D"/>
<path d="M4.61061 50.0054C4.61061 50.0504 4.60403 50.0825 4.5778 50.1146C4.54502 50.1531 4.49913 50.182 4.45324 50.2013C4.32212 50.2527 4.19102 50.2142 4.06974 50.1435C3.92223 50.0568 3.80092 49.9348 3.67964 49.816L3.23384 49.3889C3.08305 49.2444 2.85033 49.4724 3.00112 49.6169C3.1814 49.7903 3.3617 49.9637 3.54199 50.1339C3.70261 50.2848 3.87303 50.4261 4.08282 50.5031C4.44012 50.6316 4.95152 50.4261 4.93841 50.0022C4.93185 49.7967 4.60406 49.7967 4.61061 50.0022V50.0054Z" fill="#A1916D"/>
<path d="M4.37131 49.4535C3.88945 49.3219 3.53215 48.882 3.26335 48.4935C2.96834 48.0664 2.75857 47.5912 2.63401 47.0903C2.58484 46.8912 2.26685 46.9747 2.3193 47.177C2.45697 47.7293 2.69628 48.2591 3.03063 48.7247C3.34204 49.1613 3.74194 49.6141 4.28608 49.7618C4.48932 49.8164 4.57783 49.5081 4.37459 49.4535H4.37131Z" fill="#A1916D"/>
<path d="M4.28612 47.9058C3.6043 47.5718 3.22079 46.782 2.86677 46.1591C2.47997 45.4719 2.01452 44.6981 1.98829 43.8953C1.98174 43.6898 1.65394 43.6898 1.6605 43.8953C1.68672 44.7591 2.16528 45.5811 2.58159 46.3196C2.96183 46.9939 3.38143 47.8223 4.1157 48.1819C4.30254 48.275 4.46972 47.9957 4.2796 47.9058H4.28612Z" fill="#A1916D"/>
<path d="M4.34837 46.4549C3.60427 44.8944 3.10602 43.2215 2.88312 41.5133C2.8569 41.311 2.5291 41.3078 2.55533 41.5133C2.78806 43.2825 3.29286 45.0004 4.06647 46.6154C4.15497 46.8017 4.43687 46.6411 4.34837 46.4549Z" fill="#A1916D"/>
<path d="M27.7334 48.397C27.8285 48.214 27.5466 48.0502 27.4515 48.2364C27.0549 48.991 26.6812 49.752 26.3305 50.5258C26.2616 50.6768 26.1994 50.8277 26.1305 50.9786C25.9699 51.213 25.8126 51.4442 25.6519 51.6786C25.6028 51.7492 25.6356 51.8584 25.711 51.8969C25.7142 51.8969 25.7208 51.8969 25.724 51.9001C25.629 52.1249 25.5634 52.3625 25.6782 52.5776C25.665 52.6419 25.6847 52.7061 25.7568 52.751C25.8715 52.8217 25.9896 52.751 26.0355 52.6418C26.042 52.6258 26.0355 52.6098 26.0355 52.5905C26.0486 52.5809 26.0584 52.568 26.065 52.5616C26.0945 52.5295 26.124 52.4974 26.1535 52.4653L26.3305 52.2726C26.4518 52.141 26.5731 52.0061 26.6976 51.8744C26.9369 51.6143 27.1795 51.3511 27.4188 51.091C27.5597 50.9368 27.3303 50.7089 27.1861 50.863C26.8681 51.2098 26.5501 51.5534 26.2322 51.9001C26.1404 51.9997 26.0519 52.0992 25.9601 52.1955C25.983 52.112 26.0256 52.0253 26.0584 51.9547C26.1371 51.7652 26.219 51.5758 26.2977 51.3896C26.3338 51.3061 26.3731 51.2258 26.4092 51.1424L26.6058 50.8534C26.6353 50.8084 26.6321 50.7474 26.6058 50.6992C26.6517 50.5997 26.6943 50.5002 26.7402 50.4006C27.0549 49.7231 27.386 49.0552 27.7334 48.3906V48.397Z" fill="#D1C19F"/>
<path d="M27.6744 51.6952C27.6121 51.6374 27.5039 51.631 27.4416 51.6952C27.1466 52.0035 26.8713 52.3278 26.6124 52.6649C26.5599 52.7323 26.5992 52.8479 26.6713 52.8832C26.7566 52.9282 26.8418 52.8961 26.8943 52.8255C27.009 52.6745 27.1303 52.5236 27.2614 52.3727C27.3925 52.2186 27.5302 52.0677 27.6711 51.9232C27.7301 51.8622 27.7367 51.7562 27.6711 51.6952H27.6744Z" fill="#D1C19F"/>
<path d="M29.1986 48.6578C28.3496 49.6211 27.835 50.8219 27.7268 52.0903C27.7203 52.1705 27.7662 52.2187 27.8285 52.2348C27.6613 52.4692 27.5007 52.7036 27.3433 52.9444C27.2647 53.0632 27.3958 53.2173 27.5269 53.1788C27.5662 53.1691 27.6055 53.1563 27.6449 53.1467C27.7531 53.1146 27.776 53.0118 27.7465 52.9315C28.0514 52.4788 28.3693 52.0293 28.7037 51.5926C28.7561 51.5219 28.7168 51.4128 28.6447 51.3742C28.5595 51.3261 28.4742 51.3614 28.4218 51.432C28.307 51.5829 28.1956 51.737 28.0842 51.888C28.2218 50.7834 28.6906 49.727 29.4347 48.8825C29.5724 48.7252 29.3396 48.4972 29.2019 48.6546L29.1986 48.6578Z" fill="#D1C19F"/>
<path d="M30.8147 48.6152C30.4344 49.3055 30.1591 50.0376 29.9788 50.7954C29.7919 51.0876 29.6084 51.3798 29.4347 51.6784C29.3036 51.9032 29.179 52.1311 29.0577 52.3591C29.0052 52.4586 28.9299 52.5614 28.9463 52.6802C28.9594 52.783 29.038 52.8697 29.1495 52.8632C29.2872 52.8568 29.333 52.7123 29.2871 52.6192C29.297 52.5999 29.3068 52.5775 29.3199 52.5582C29.3462 52.5068 29.3757 52.4554 29.4019 52.4041C29.4511 52.3142 29.4969 52.2275 29.5461 52.1376C29.6346 51.977 29.7297 51.8197 29.8214 51.6591C29.8116 51.7458 29.7985 51.8325 29.7887 51.9192C29.769 52.1247 30.0968 52.1247 30.1165 51.9192C30.1493 51.5885 30.205 51.261 30.2771 50.9399C30.3754 50.7858 30.4705 50.6316 30.5721 50.4807C30.6442 50.3748 30.5623 50.272 30.464 50.2495C30.6279 49.739 30.8376 49.2445 31.0966 48.7725C31.1982 48.5895 30.913 48.429 30.8147 48.612V48.6152Z" fill="#D1C19F"/>
<path d="M31.4375 49.2228C31.372 49.0269 31.0573 49.1104 31.1228 49.3094C31.1851 49.4957 31.1032 49.6787 31.0343 49.8521C30.9557 50.0416 30.877 50.231 30.7983 50.4172C30.6344 50.809 30.4738 51.2007 30.3099 51.5924C30.2771 51.6727 30.346 51.769 30.4246 51.7915C30.5164 51.8172 30.5918 51.7594 30.6279 51.6791C30.8016 51.2585 30.9753 50.8379 31.1523 50.4172C31.2343 50.2182 31.3228 50.0223 31.3949 49.8232C31.467 49.6306 31.5031 49.425 31.4375 49.226V49.2228Z" fill="#D1C19F"/>
<path d="M32.598 48.9746C32.1849 49.7003 31.7686 50.4291 31.3556 51.1548C31.254 51.3346 31.5359 51.4984 31.6375 51.3154C32.0505 50.5897 32.4668 49.8608 32.8799 49.1352C32.9815 48.9554 32.6996 48.7916 32.598 48.9746Z" fill="#D1C19F"/>
<path d="M33.188 49.6332C33.0438 50.0924 32.8143 50.5194 32.5193 50.9015C32.4668 50.969 32.5095 51.0813 32.5783 51.1199C32.6635 51.168 32.7488 51.1327 32.8012 51.0621C33.1159 50.6607 33.3519 50.2015 33.5027 49.7167C33.5649 49.5176 33.247 49.4341 33.188 49.63V49.6332Z" fill="#D1C19F"/>
<path d="M19.2566 49.103C18.6174 50.1048 18.0175 51.1291 17.4603 52.179C17.3619 52.3621 17.6471 52.5258 17.7422 52.3396C18.2994 51.2928 18.8993 50.2653 19.5385 49.2635C19.65 49.0869 19.3681 48.9264 19.2566 49.103Z" fill="#D1C19F"/>
<path d="M20.1875 49.2698C19.4008 50.3712 18.7059 51.5303 18.106 52.7376C18.0142 52.9239 18.2961 53.0844 18.3879 52.8982C18.9878 51.6909 19.6828 50.5317 20.4695 49.4303C20.5908 49.2602 20.3055 49.0996 20.1875 49.2698Z" fill="#D1C19F"/>
<path d="M21.2168 49.4437C20.4464 50.4038 19.7613 51.4249 19.1647 52.4973C19.0631 52.6803 19.3483 52.8409 19.4467 52.6579C20.0269 51.6111 20.6956 50.6093 21.4462 49.6685C21.5741 49.5079 21.3446 49.28 21.2135 49.4405L21.2168 49.4437Z" fill="#D1C19F"/>
<path d="M21.8921 49.8808C21.5086 50.3945 21.1349 50.9115 20.771 51.4381C20.594 51.6949 20.4203 51.9518 20.2466 52.2119C20.1777 52.3147 20.1023 52.4271 20.1482 52.5555C20.1908 52.6743 20.3187 52.7417 20.4432 52.7032C20.5842 52.6615 20.5842 52.4945 20.499 52.4238C20.5154 52.4014 20.5285 52.3789 20.5449 52.3532C20.5809 52.2986 20.6203 52.2408 20.6563 52.1862C20.7219 52.0899 20.7874 51.9904 20.853 51.894C20.9939 51.6853 21.1382 51.4766 21.2857 51.2711C21.5774 50.8569 21.8724 50.4491 22.1773 50.0445C22.3019 49.8776 22.0167 49.717 21.8954 49.884L21.8921 49.8808Z" fill="#D1C19F"/>
<path d="M23.4295 49.3984C23.0066 49.8993 22.6034 50.4195 22.2232 50.9557C22.0363 51.219 21.856 51.4823 21.6823 51.7521C21.6102 51.8612 21.5184 51.9736 21.5151 52.1117C21.5119 52.2273 21.5774 52.3268 21.6922 52.3557C21.8626 52.3974 21.9511 52.1887 21.8528 52.0892C21.8626 52.0731 21.8724 52.0571 21.8823 52.0442C21.9183 51.9864 21.9544 51.9318 21.9937 51.874C22.0691 51.7617 22.1412 51.6493 22.2166 51.5369C22.3641 51.3186 22.5149 51.1067 22.669 50.8947C22.9837 50.4613 23.3148 50.0406 23.6622 49.6296C23.7966 49.4723 23.5639 49.2443 23.4295 49.4016V49.3984Z" fill="#D1C19F"/>
<path d="M25.2651 48.2076C24.721 48.8466 24.2096 49.5112 23.7442 50.2048C23.2918 50.8759 22.7771 51.5951 22.6165 52.3947C22.5903 52.5295 22.728 52.6483 22.8558 52.5745C22.9541 52.5199 23.0361 52.4524 23.1115 52.3689C23.1967 52.2662 23.1345 52.1378 23.0394 52.0992C23.2557 51.4763 23.6622 50.9048 24.0261 50.3653C24.4784 49.6942 24.9701 49.0488 25.4979 48.4323C25.6323 48.275 25.4028 48.047 25.2651 48.2044V48.2076Z" fill="#D1C19F"/>
<path d="M26.6483 47.4688C26.0518 48.2202 25.5076 49.0036 25.0192 49.8288C24.7766 50.2398 24.5471 50.6573 24.3341 51.0843C24.1308 51.4953 23.9473 51.9192 23.9604 52.3848C23.9669 52.5903 24.2947 52.5903 24.2882 52.3848C24.2751 51.9256 24.4783 51.5146 24.6816 51.1164C24.8848 50.7151 25.1044 50.3169 25.3372 49.9284C25.7993 49.1514 26.314 48.4064 26.8778 47.6968C27.0056 47.5363 26.7762 47.3083 26.6451 47.4688H26.6483Z" fill="#D1C19F"/>
<path d="M31.9653 48.5668C31.6145 49.4402 31.2638 50.3136 30.9131 51.1869C30.8344 51.3796 31.1523 51.463 31.2277 51.2736C31.5785 50.4002 31.9292 49.5269 32.2799 48.6535C32.3586 48.4608 32.0407 48.3773 31.9653 48.5668Z" fill="#D1C19F"/>
<path d="M41.5075 45.2893C41.2453 46.3265 40.983 47.3604 40.7175 48.3975C40.665 48.5966 40.983 48.6833 41.0322 48.4842C41.2944 47.4503 41.5566 46.4131 41.8222 45.3792C41.8746 45.1801 41.5567 45.0934 41.5075 45.2925V45.2893Z" fill="#D1C19F"/>
<path d="M42.7007 44.2707C42.4155 45.1473 42.1107 46.0174 41.7829 46.8812C41.7108 47.0738 42.0255 47.1573 42.0976 46.9679C42.4254 46.1041 42.7302 45.234 43.0154 44.3574C43.081 44.1615 42.763 44.0748 42.7007 44.2707Z" fill="#D1C19F"/>
<path d="M43.5234 43.3652C43.1431 44.2803 42.8383 45.2211 42.6121 46.1844C42.5662 46.3867 42.8809 46.4702 42.9268 46.2711C43.153 45.3078 43.4578 44.367 43.8381 43.4519C43.9167 43.2592 43.6021 43.179 43.5234 43.3652Z" fill="#D1C19F"/>
<path d="M44.3724 42.1737C44.238 43.0054 44.0479 43.8242 43.7955 44.6269C43.7332 44.826 44.0512 44.9095 44.1102 44.7136C44.3594 43.9109 44.5527 43.0888 44.6871 42.2604C44.7199 42.0581 44.4052 41.9714 44.3724 42.1737Z" fill="#D1C19F"/>
<path d="M45.3984 41.1493C45.2804 42.0901 45.028 43.018 44.6477 43.8914C44.5658 44.0809 44.8477 44.2446 44.9297 44.052C45.3328 43.1208 45.5983 42.1511 45.7262 41.1461C45.7524 40.9406 45.4246 40.9438 45.3984 41.1461V41.1493Z" fill="#D1C19F"/>
<path d="M46.2015 40.5268C46.1491 40.4561 46.0606 40.424 45.9786 40.469C45.9065 40.5075 45.8671 40.6199 45.9196 40.6873C46.372 41.2878 46.4998 42.0712 46.2572 42.7776C46.1884 42.9735 46.5063 43.057 46.5719 42.8643C46.8407 42.0841 46.6998 41.1882 46.2015 40.5268Z" fill="#D1C19F"/>
<path d="M47.7029 40.0869C47.6045 40.0869 47.5488 40.1608 47.539 40.2475C47.4537 40.9442 47.2407 41.6282 46.9194 42.2575C46.8243 42.4405 47.1095 42.6043 47.2013 42.4181C47.5488 41.7341 47.7717 41.0052 47.8668 40.2475C47.8766 40.1608 47.7848 40.0869 47.7029 40.0869Z" fill="#D1C19F"/>
<path d="M48.5944 39.5221C48.519 39.4996 48.4043 39.5478 48.3912 39.6345C48.283 40.3794 48.0798 41.1083 47.7782 41.7987C47.7422 41.879 47.7553 41.9688 47.8372 42.017C47.9061 42.0587 48.0273 42.0395 48.0601 41.9592C48.3748 41.2432 48.5977 40.4918 48.7092 39.718C48.7223 39.6313 48.6862 39.5478 48.5944 39.5189V39.5221Z" fill="#D1C19F"/>
<path d="M49.0108 40.6976C48.7322 41.2082 48.5027 41.7412 48.3225 42.2935C48.2569 42.4893 48.5748 42.576 48.6371 42.3802C48.8076 41.8536 49.0272 41.3495 49.2927 40.8614C49.3911 40.6784 49.1092 40.5178 49.0108 40.7008V40.6976Z" fill="#D1C19F"/>
<path d="M50.3187 36.6352C50.263 36.4362 49.945 36.5196 50.004 36.7219C50.3449 37.9036 50.2302 39.1847 49.6697 40.2861C49.5746 40.4691 49.8598 40.6328 49.9516 40.4466C50.5481 39.2682 50.6858 37.9035 50.3187 36.6352Z" fill="#D1C19F"/>
<path d="M51.0988 35.2032C51.0365 35.0074 50.7186 35.0909 50.7841 35.2899C51.0923 36.2661 51.0628 37.3128 50.7022 38.2729C50.6301 38.4655 50.9447 38.5522 51.0169 38.3596C51.3971 37.3513 51.4233 36.2339 51.0988 35.2064V35.2032Z" fill="#D1C19F"/>
<g style="mix-blend-mode:multiply" opacity="0.33">
<path d="M45.5525 42.8291C43.6906 44.1006 42.0844 45.6996 40.1012 46.801C38.9802 47.4239 37.7936 47.9184 36.584 48.3647C31.9522 49.6138 27.1172 50.5 22.6559 48.8688C19.65 47.7707 16.6604 46.7207 13.5496 45.9629C10.7765 45.2886 8.05906 44.7267 5.37439 45.995C4.93187 46.2038 4.56146 45.3336 4.44018 45.6772C4.3025 45.8377 4.2271 46.0432 4.18777 47.3661C4.14843 48.689 4.40737 49.2285 3.75505 50.2495C3.10274 51.2706 2.10297 53.1618 3.89602 53.5825C5.9087 54.0545 7.71486 51.9642 7.24939 49.9349C7.62635 50.2592 8.16068 50.5546 8.49175 50.7729C9.45875 51.4119 10.511 51.916 11.596 52.311C13.7299 53.0912 16.0245 53.1972 18.188 53.91C20.6924 54.7384 23.2131 55.1141 25.8486 54.8604C30.1001 54.4526 34.4697 53.0976 38.4819 51.4183C39.9341 51.0491 41.3862 50.6605 42.8318 50.2656C43.8087 49.9991 44.1594 49.1642 44.0512 48.3776C44.8084 47.7514 45.4902 47.0225 46.2868 46.4574C47.339 45.7157 45.9426 42.5561 45.5492 42.8259L45.5525 42.8291Z" fill="#968A70"/>
</g>
<g style="mix-blend-mode:overlay" opacity="0.2">
<path d="M37.8263 22.9185C37.669 21.9167 37.0822 21.252 36.3086 20.8282C36.1284 20.5007 35.8858 20.1988 35.5809 19.9452C35.1581 19.3351 34.5451 18.831 33.7977 18.5227C32.3226 17.9127 30.7885 17.6943 29.261 17.7714C28.9758 17.5145 28.589 17.3475 28.0908 17.3443C24.1441 17.3026 20.2826 18.1021 16.6441 19.5888C13.2579 20.9727 9.67182 22.8832 7.1904 25.5964C6.06277 26.8294 5.06296 28.4766 6.01357 30.1174C6.83635 31.5431 8.48516 31.8609 10.0225 31.9733C14.32 32.2912 18.542 30.8463 22.6559 29.8541C23.8687 29.5619 25.0848 29.289 26.3043 29.0289C27.2024 28.9711 28.0973 28.9711 28.9889 29.0707C31.2311 29.3243 33.2306 28.8202 35.0565 27.5005C36.5316 26.4345 38.1345 24.8675 37.8231 22.9153L37.8263 22.9185Z" fill="#D1C09C"/>
</g>
</g>
<path d="M44.7495 52.7698C44.1037 52.4294 43.4547 52.1982 42.8155 51.8258C40.9274 50.7308 40.7635 48.7979 40.6881 48.5667C40.7405 47.9951 40.8356 47.4332 40.97 46.8745C41.029 46.303 41.1437 45.7346 41.1863 45.1599C41.1601 45.1278 41.1273 45.0989 41.0945 45.0732C41.1044 44.781 41.0716 44.4952 40.9274 44.2672C40.6225 43.7888 39.885 43.7374 39.3736 43.7792C38.7639 43.8241 38.187 44.0103 37.5937 44.1323C37.0692 44.2415 36.5119 44.1805 36.0071 44.3764C35.4531 44.5947 35.1975 45.0507 34.9975 45.5709C34.7877 46.1135 34.5484 46.6401 34.3059 47.1667C33.7617 48.3612 32.798 49.8222 33.2307 51.1097C34.0108 53.4184 35.7875 54.433 36.9709 54.8826C38.1542 55.3321 41.0683 55.788 43.0318 55.788C44.1726 55.788 44.425 55.5023 44.7626 55.2679C45.0117 55.0431 45.3953 54.8119 45.5821 54.6674C45.7689 54.5229 45.9197 54.3078 45.9623 54.234C46.218 53.7876 45.3952 53.1037 44.7528 52.7665L44.7495 52.7698Z" fill="#D1C09B"/>
<mask id="mask1_701_178178" style="mask-type:luminance" maskUnits="userSpaceOnUse" x="33" y="43" width="14" height="13">
<path d="M44.7495 52.7698C44.1037 52.4294 43.4547 52.1982 42.8155 51.8258C40.9274 50.7308 40.7635 48.7979 40.6881 48.5667C40.7405 47.9951 40.8356 47.4332 40.97 46.8745C41.029 46.303 41.1437 45.7346 41.1863 45.1599C41.1601 45.1278 41.1273 45.0989 41.0945 45.0732C41.1044 44.781 41.0716 44.4952 40.9274 44.2672C40.6225 43.7888 39.885 43.7374 39.3736 43.7792C38.7639 43.8241 38.187 44.0103 37.5937 44.1323C37.0692 44.2415 36.5119 44.1805 36.0071 44.3764C35.4531 44.5947 35.1975 45.0507 34.9975 45.5709C34.7877 46.1135 34.5484 46.6401 34.3059 47.1667C33.7617 48.3612 32.798 49.8222 33.2307 51.1097C34.0108 53.4184 35.7875 54.433 36.9709 54.8826C38.1542 55.3321 41.0683 55.788 43.0318 55.788C44.1726 55.788 44.425 55.5023 44.7626 55.2679C45.0117 55.0431 45.3953 54.8119 45.5821 54.6674C45.7689 54.5229 45.9197 54.3078 45.9623 54.234C46.218 53.7876 45.3952 53.1037 44.7528 52.7665L44.7495 52.7698Z" fill="white"/>
</mask>
<g mask="url(#mask1_701_178178)">
<path d="M42.4615 55.5637C39.8654 55.2394 37.4134 54.0898 35.4696 52.3816C35.3123 52.1568 35.1647 51.9257 35.0238 51.6913C34.9976 51.6367 34.9681 51.5821 34.9418 51.5275C34.8927 51.4151 34.8468 51.2995 34.8009 51.1872C34.7845 51.1005 34.7681 51.0137 34.7517 50.9271C34.6108 50.1564 34.5452 49.3762 34.5321 48.5927C34.578 47.5556 34.7386 46.5217 35.0238 45.5102C35.1615 45.0221 34.5616 44.7396 34.201 45.0414C34.1322 45.0992 34.0633 45.157 33.9978 45.2116C33.8109 45.3689 33.8044 45.568 33.8896 45.7286C33.8568 45.7286 33.8241 45.7318 33.7913 45.7414L33.7389 45.7639C33.6012 45.7735 33.4602 45.8377 33.3488 45.9822C33.0472 46.3772 32.9423 46.8556 32.8767 47.334C32.6112 47.2859 32.2933 47.4721 32.2539 47.7996C31.8343 51.4215 33.7355 54.9792 36.9873 56.7356C37.2692 56.8865 37.6298 56.7196 37.7118 56.4434C38.0068 56.604 38.3116 56.742 38.6394 56.8512C38.8164 56.909 38.9836 56.848 39.1016 56.7324C39.7375 56.9283 40.3899 57.0342 41.0291 56.9796C41.3864 56.9508 41.5601 56.6361 41.488 56.3696C41.8092 56.4338 42.1337 56.4884 42.4615 56.5301C43.0876 56.6072 43.0811 55.6439 42.4615 55.5668V55.5637Z" fill="#B5A686"/>
<path d="M46.3262 51.3222C46.2344 51.0846 45.805 50.8567 45.4477 50.9658C44.2348 51.3319 43.2678 49.8677 43.0121 49.2383C42.5696 48.1402 42.7893 46.9843 43.1269 45.8894C43.14 45.8444 43.1432 45.8027 43.14 45.7609C43.235 45.6036 43.1826 45.4366 43.0515 45.3082C42.9859 44.8297 41.8845 44.682 41.6452 45.2375C41.6026 45.3339 41.5633 45.4302 41.5207 45.5297C41.4518 45.5811 41.3896 45.6357 41.324 45.6903C40.9929 45.7738 40.6782 45.9182 40.4553 46.0595C39.8456 46.4512 39.5112 47.0196 39.2457 47.5622C38.9147 48.2333 38.7114 48.9333 38.6065 49.6397C38.5082 50.2947 38.4 51.0622 38.872 51.6594C39.2949 52.1956 40.0849 52.5841 40.8388 52.8571C41.0388 52.9277 41.242 52.9887 41.4486 53.0465C41.7042 53.2199 41.9861 53.374 42.2975 53.4928C43.4645 53.9424 45.6345 53.9391 46.0541 52.8121C46.1655 52.5103 46.0639 52.202 45.841 51.9452C46.1885 51.836 46.4343 51.608 46.3262 51.3222Z" fill="#DECBA4"/>
</g>
<path d="M24.1932 54.5462C23.872 54.2443 22.3936 52.7962 21.2561 52.2471C20.6268 51.9421 19.9548 51.7816 19.2697 51.6435C18.9223 51.5728 18.6502 51.5793 18.306 51.6082C18.2273 51.6146 18.1519 51.6178 18.0765 51.6146C17.5455 51.6788 17.0112 51.7205 16.467 51.6884C16.3392 51.682 16.2212 51.6852 16.1097 51.6949C16.2277 51.5343 16.3392 51.3673 16.4408 51.1972C17.0931 50.4297 17.7946 49.7234 18.3978 48.972C18.5846 48.7793 18.7649 48.5931 18.9354 48.4165C19.9646 47.3601 20.83 46.2363 21.4102 44.9583C22.3838 42.807 22.3182 40.2832 20.8235 38.3502C20.1023 36.5971 18.6338 35.12 16.5654 34.7861C16.4048 34.7155 16.2146 34.6673 15.9917 34.6416C14.7592 34.5003 13.648 34.6127 12.6515 34.9113C12.4974 34.8888 12.3401 34.8856 12.1991 34.8985C10.8846 35.0205 9.62262 35.7494 8.60317 36.5361C7.08547 37.7049 5.83983 39.4034 5.15145 41.2305C4.39424 42.8006 4.08941 44.5505 4.39754 46.3069C4.58439 47.3697 5.01377 48.3748 5.63987 49.2546C5.80377 49.5114 5.60056 49.2578 6.60689 50.5389C7.61323 51.8201 10.3504 53.8045 10.7994 53.9843C11.2485 54.1641 14.061 54.7196 15.4902 55.0663C16.9194 55.4099 19.0337 56.5626 19.8532 56.5851C20.6071 56.6044 21.3578 56.5016 22.0888 56.3507C24.603 55.8338 24.5178 54.848 24.1932 54.5462Z" fill="#D1C09B"/>
<mask id="mask2_701_178178" style="mask-type:luminance" maskUnits="userSpaceOnUse" x="4" y="34" width="21" height="23">
<path d="M24.1932 54.5462C23.872 54.2443 22.3936 52.7962 21.2561 52.2471C20.6268 51.9421 19.9548 51.7816 19.2697 51.6435C18.9223 51.5728 18.6502 51.5793 18.306 51.6082C18.2273 51.6146 18.1519 51.6178 18.0765 51.6146C17.5455 51.6788 17.0112 51.7205 16.467 51.6884C16.3392 51.682 16.2212 51.6852 16.1097 51.6949C16.2277 51.5343 16.3392 51.3673 16.4408 51.1972C17.0931 50.4297 17.7946 49.7234 18.3978 48.972C18.5846 48.7793 18.7649 48.5931 18.9354 48.4165C19.9646 47.3601 20.83 46.2363 21.4102 44.9583C22.3838 42.807 22.3182 40.2832 20.8235 38.3502C20.1023 36.5971 18.6338 35.12 16.5654 34.7861C16.4048 34.7155 16.2146 34.6673 15.9917 34.6416C14.7592 34.5003 13.648 34.6127 12.6515 34.9113C12.4974 34.8888 12.3401 34.8856 12.1991 34.8985C10.8846 35.0205 9.62262 35.7494 8.60317 36.5361C7.08547 37.7049 5.83983 39.4034 5.15145 41.2305C4.39424 42.8006 4.08941 44.5505 4.39754 46.3069C4.58439 47.3697 5.01377 48.3748 5.63987 49.2546C5.80377 49.5114 5.60056 49.2578 6.60689 50.5389C7.61323 51.8201 10.3504 53.8045 10.7994 53.9843C11.2485 54.1641 14.061 54.7196 15.4902 55.0663C16.9194 55.4099 19.0337 56.5626 19.8532 56.5851C20.6071 56.6044 21.3578 56.5016 22.0888 56.3507C24.603 55.8338 24.5178 54.848 24.1932 54.5462Z" fill="white"/>
</mask>
<g mask="url(#mask2_701_178178)">
<path d="M25.7109 55.6026C23.4491 56.0265 21.6167 55.7953 19.4827 54.999C17.8339 54.3825 16.2277 53.66 14.4609 53.4288C13.3791 53.2875 12.3761 53.2843 11.4189 53.1398C10.3372 52.4912 9.23577 51.8683 8.23271 51.0912C7.45911 50.4908 6.86909 49.8197 6.41018 49.0941C5.96109 48.2078 5.61035 47.267 5.3055 46.3327C5.28583 46.2749 5.26286 46.2235 5.23663 46.1753C5.00718 45.1831 4.88263 44.1396 4.80396 43.0639C4.71218 41.8438 2.80112 41.8117 2.83717 43.0639C2.85029 43.5231 2.8634 43.9855 2.87651 44.4446C2.88306 44.6373 2.93877 44.7978 3.024 44.9327C3.30591 47.0776 3.86645 49.1133 5.24976 50.8729C6.57734 52.976 8.42938 54.6233 11.0059 55.1145C11.6615 55.532 12.2974 55.9783 12.8776 56.4952C13.6807 57.2113 14.8182 56.309 14.5297 55.5127C16.2015 55.837 17.7192 56.4278 19.4434 57.0379C21.7577 57.8567 23.8326 57.9145 26.2354 57.4617C27.4777 57.2273 26.95 55.3714 25.7109 55.6026Z" fill="#BDAD8C"/>
<path opacity="0.48" d="M18.8271 38.6709C16.8079 36.1471 11.75 36.6095 9.15056 38.3274C7.05593 39.7113 7.82626 42.9222 8.33434 44.1777C8.84243 45.4331 9.90449 49.4725 14.3494 49.9092C16.2867 50.0986 18.9025 46.8203 19.663 44.1199C20.1711 42.3186 20.0859 40.2411 18.8271 38.6677V38.6709Z" fill="#E3CFA8"/>
<path opacity="0.48" d="M22.3214 52.2533C21.9772 52.0061 21.5937 51.8263 21.1905 51.6946C21.1708 51.5726 21.102 51.457 20.9643 51.3736C20.2005 50.9208 19.286 50.7185 18.3977 50.8245C17.6077 50.9176 16.3653 51.2708 16.503 52.279C16.6308 53.2038 17.7617 53.6276 18.5714 53.7785C19.5515 53.9616 20.5906 54.0226 21.5871 54.0258C22.0854 54.0258 22.6688 53.9294 22.8557 53.3996C23.0294 52.9084 22.7049 52.5295 22.3214 52.2566V52.2533Z" fill="#E3CFA8"/>
</g>
<path d="M57.6417 26.268C57.504 25.9501 57.2582 25.6451 56.8944 25.5776C56.501 25.507 55.7372 26.3097 55.7045 26.4189C55.652 26.5987 55.6782 26.7496 55.7929 26.9005C55.8585 26.9872 56.088 27.3308 56.5272 27.5941C56.9665 27.8574 57.5926 28.0436 57.7073 27.9634C57.7401 27.9634 57.7892 26.5987 57.645 26.268H57.6417Z" fill="#4F2626"/>
<path d="M57.5696 27.7062C57.291 27.43 56.9927 27.1699 56.6747 26.9355C56.6059 26.8842 56.4945 26.897 56.4453 26.9676C56.3961 27.0383 56.406 27.1378 56.4781 27.1924C56.6289 27.3048 56.7764 27.4204 56.9173 27.5424C56.9861 27.6002 57.055 27.6612 57.1205 27.7222C57.1369 27.7383 57.1566 27.7543 57.173 27.7704C57.1796 27.7768 57.1894 27.7864 57.1959 27.7928C57.1959 27.7928 57.2058 27.8025 57.209 27.8057C57.2418 27.8378 57.2779 27.8699 57.3106 27.9053C57.3696 27.9663 57.468 27.9919 57.5401 27.9309C57.6024 27.8796 57.6319 27.7704 57.5663 27.7062H57.5696Z" fill="#361A1A"/>
<path d="M57.6385 26.1964C57.6221 26.0808 57.5533 25.9653 57.4844 25.8689C57.4189 25.7758 57.3336 25.6923 57.2353 25.6313C57.173 25.5928 57.1042 25.5607 57.0288 25.5542C56.9436 25.5446 56.8551 25.5639 56.7764 25.596C56.7305 25.6153 56.2748 25.8079 56.324 26.1547C56.3339 26.2189 56.9174 26.5336 57.055 26.5529C57.1829 26.5689 57.3271 26.5882 57.4484 26.5432C57.691 26.4533 57.6549 26.3377 57.6352 26.1964H57.6385Z" fill="#5C2C2C"/>
<path d="M52.4855 24.7579C52.4592 24.3951 52.4232 24.029 52.3609 23.6694C52.3019 23.3322 52.2429 22.9534 52.0626 22.6547C51.902 22.385 51.6201 22.2405 51.3513 22.0961C51.0432 21.9323 50.7317 21.7749 50.4007 21.6626C49.6992 21.4217 48.9387 21.4153 48.2044 21.502C46.4802 21.7075 44.7626 22.2148 43.1236 22.7671C43.0842 22.78 43.058 22.8057 43.0351 22.8313C42.9761 22.8378 42.9203 22.8506 42.858 22.8538C42.6974 22.8602 42.6056 23.0529 42.7236 23.1685C42.8154 23.2584 42.9138 23.3355 43.0187 23.4093C42.9728 23.4671 42.9662 23.5474 43.0023 23.618C43.1924 23.9969 43.73 24.0932 44.107 24.196C44.5102 24.3052 44.9166 24.4047 45.2936 24.5845C45.2838 24.6423 45.2968 24.7033 45.346 24.7419C45.4116 24.7932 45.4673 24.8574 45.5296 24.912C45.3821 24.9473 45.2542 25.0148 45.2641 25.1785C45.2739 25.4354 45.6902 25.6762 45.8738 25.8175C46.4409 26.2542 47.0768 26.6267 47.739 26.9028C48.4208 27.1886 49.0895 27.2432 49.8106 27.0794C50.476 26.9285 51.1153 26.6524 51.6758 26.2703C51.9315 26.0969 52.2298 25.8978 52.4166 25.6538C52.5969 25.4129 52.5018 25.0437 52.4822 24.7643L52.4855 24.7579Z" fill="#D4C7AB"/>
<path d="M47.0309 24.2989C47.0801 23.0724 48.1553 22.1444 49.4337 22.2279C50.7121 22.3114 51.7053 23.3742 51.6528 24.6008C51.6004 25.8273 50.5285 26.7553 49.2501 26.6718C47.975 26.5883 46.9785 25.5255 47.0309 24.2989Z" fill="#3E1506"/>
<path d="M51.3398 25.1199C51.5641 24.1206 50.853 23.1181 49.7514 22.8809C48.6499 22.6436 47.575 23.2615 47.3507 24.2608C47.1264 25.2602 47.8376 26.2626 48.9391 26.4999C50.0407 26.7371 51.1155 26.1193 51.3398 25.1199Z" fill="#FBFCFA"/>
<path d="M47.6045 24.5682C47.6504 23.6242 48.4601 22.9114 49.4173 22.9724C50.3744 23.0334 51.112 23.849 51.0694 24.793C51.0235 25.737 50.2138 26.4498 49.2567 26.3888C48.2995 26.3278 47.5619 25.5122 47.6045 24.5682Z" fill="#95771E"/>
<path d="M48.47 24.6235C48.4929 24.1515 48.8961 23.7951 49.3747 23.8272C49.8533 23.8593 50.2204 24.2639 50.2008 24.7359C50.1811 25.2079 49.7746 25.5643 49.296 25.5322C48.8175 25.5001 48.4503 25.0955 48.47 24.6235Z" fill="#3E1506"/>
<path d="M49.1327 24.25C49.3029 24.0589 49.3336 23.8123 49.2012 23.6993C49.0689 23.5862 48.8237 23.6494 48.6535 23.8405C48.4833 24.0316 48.4526 24.2782 48.585 24.3913C48.7173 24.5044 48.9625 24.4411 49.1327 24.25Z" fill="white"/>
<path d="M36.6562 10.3085C36.0235 9.50901 35.286 8.77691 34.4173 8.22142C33.4602 7.60813 32.362 7.32878 31.277 7.01732C31.2344 6.96916 31.1656 6.94026 31.0935 6.97879C30.7362 7.15861 30.6804 7.57604 30.7001 7.93245C30.7296 8.46225 30.805 8.98884 30.8739 9.51544C31.0148 10.6072 31.1951 11.6956 31.4311 12.7713C31.6409 13.725 31.9621 14.6401 32.539 15.446C33.0734 16.1877 33.7814 16.8171 34.6173 17.2185C35.463 17.623 36.4234 17.8093 37.3609 17.7001C37.7707 17.6519 38.2264 17.5492 38.4984 17.2185C38.7902 16.8653 38.7967 16.2905 38.8131 15.857C38.8819 13.8149 37.9084 11.8915 36.6562 10.3117V10.3085Z" fill="#F58C8C"/>
<mask id="mask3_701_178178" style="mask-type:luminance" maskUnits="userSpaceOnUse" x="30" y="6" width="9" height="12">
<path d="M36.6562 10.3085C36.0235 9.50901 35.286 8.77691 34.4173 8.22142C33.4602 7.60813 32.362 7.32878 31.277 7.01732C31.2344 6.96916 31.1656 6.94026 31.0935 6.97879C30.7362 7.15861 30.6804 7.57604 30.7001 7.93245C30.7296 8.46225 30.805 8.98884 30.8739 9.51544C31.0148 10.6072 31.1951 11.6956 31.4311 12.7713C31.6409 13.725 31.9621 14.6401 32.539 15.446C33.0734 16.1877 33.7814 16.8171 34.6173 17.2185C35.463 17.623 36.4234 17.8093 37.3609 17.7001C37.7707 17.6519 38.2264 17.5492 38.4984 17.2185C38.7902 16.8653 38.7967 16.2905 38.8131 15.857C38.8819 13.8149 37.9084 11.8915 36.6562 10.3117V10.3085Z" fill="white"/>
</mask>
<g mask="url(#mask3_701_178178)">
<path d="M41.0979 21.0588C40.6816 19.4822 40.1374 17.9378 39.4851 16.4383C39.5802 16.2681 39.5999 16.0594 39.4753 15.841C38.6099 14.2934 38.2722 12.5402 37.3118 11.0279C36.8365 10.2797 36.2924 9.56369 35.7122 8.89261C35.1025 8.18941 34.3485 7.67565 33.6831 7.03346C33.4504 6.8087 33.1685 6.80871 32.9456 6.92752C32.6735 6.74128 32.3949 6.56468 32.1064 6.40413C31.9655 6.32386 31.8277 6.30459 31.6999 6.32065C31.6278 6.28212 31.559 6.23716 31.4869 6.20184C30.7395 5.82295 30.0741 6.93073 30.8247 7.30962C32.6997 8.25684 34.0994 9.82698 35.2696 11.5352C35.4204 11.8434 35.5614 12.1581 35.6794 12.4856C36.1219 13.7186 36.4301 15.003 36.7742 16.2649C36.8857 16.6663 36.9939 17.0644 37.1053 17.4658C36.417 16.2906 35.7417 15.109 35.0762 13.9209C34.7419 13.3237 34.4108 12.7232 34.083 12.1196C33.7782 11.5609 33.4733 11.0054 33.0767 10.5013C32.6604 9.97469 32.1523 9.52836 31.5753 9.17836C31.3951 9.06919 31.2312 9.34535 31.4114 9.45452C31.9261 9.76919 32.3883 10.1609 32.7653 10.6265C33.1553 11.1049 33.4536 11.6476 33.7486 12.1838C34.3846 13.3526 35.0303 14.5149 35.6892 15.6709C35.9875 16.1943 36.2924 16.7176 36.5972 17.2378C34.7484 16.2039 32.9029 15.1668 31.0542 14.1328C30.8706 14.0301 30.7067 14.3062 30.8903 14.409C32.9029 15.536 34.9156 16.6663 36.9283 17.7933C37.0398 17.8543 37.1414 17.7804 37.1676 17.6873C37.4069 18.5511 37.6429 19.418 37.8822 20.2818C38.1018 21.0781 39.3671 20.7409 39.1475 19.9414C38.9017 19.0424 38.6525 18.1433 38.4067 17.2442C38.977 18.5928 39.4523 19.98 39.8293 21.3992C40.0424 22.1987 41.3077 21.8583 41.0946 21.0588H41.0979Z" fill="#E88585"/>
</g>
<path d="M46.3163 55.0697C46.1459 55.1404 45.9492 55.1853 45.7394 55.1982C45.7754 55.1982 45.8115 55.1982 45.8475 55.1982C46.0508 55.1982 46.2442 55.1661 46.4179 55.1115C46.454 55.0986 46.4868 55.0858 46.5195 55.0729C46.69 55.0023 46.8375 54.9092 46.9522 54.7936C47.0047 54.7422 47.0506 54.6844 47.0833 54.6266C47.1522 54.5142 47.1882 54.3922 47.1882 54.2606C47.1882 54.2413 47.1882 54.2188 47.1882 54.1996C47.1489 53.7661 46.6802 53.4097 46.077 53.339C46.0016 53.3294 45.9262 53.3262 45.8475 53.3262C45.8115 53.3262 45.7754 53.3262 45.7394 53.3294C45.8443 53.3358 45.9426 53.3487 46.0377 53.3711C46.5818 53.4899 46.9719 53.8464 46.9719 54.2638V54.2734C46.9719 54.4532 46.8932 54.6234 46.7621 54.7647C46.749 54.7807 46.7359 54.7936 46.7195 54.8064C46.6146 54.9092 46.4769 54.9959 46.3229 55.0633C46.3229 55.0633 46.3163 55.0633 46.313 55.0665L46.3163 55.0697Z" fill="#D1C6BD"/>
<path d="M44.5068 54.2632C44.5068 54.2889 44.5068 54.3114 44.5101 54.3371C44.5101 54.3724 44.5199 54.4077 44.5298 54.443C44.5429 54.4944 44.5626 54.5426 44.5888 54.5907C44.6478 54.7031 44.7363 54.8058 44.851 54.8925C45.0739 55.0627 45.3886 55.1783 45.7394 55.1976C45.9491 55.1848 46.1426 55.1398 46.3163 55.0692C46.3163 55.0692 46.3228 55.0692 46.3261 55.0659C46.4834 55.0017 46.6179 54.9118 46.7228 54.8091C46.7391 54.7962 46.7523 54.7802 46.7654 54.7673C46.8965 54.626 46.9719 54.4559 46.9752 54.2761V54.2664C46.9752 53.849 46.5818 53.4958 46.0409 53.3738C45.9458 53.3513 45.8443 53.3385 45.7426 53.332C45.051 53.3706 44.5068 53.7751 44.5068 54.2632Z" fill="#FFF1E6"/>
<path d="M45.333 55.7306C45.3592 55.7306 45.3887 55.7306 45.4182 55.7306C46.0214 55.7306 46.5459 55.477 46.8048 55.1077C46.9163 54.9504 46.9786 54.7706 46.9786 54.5811C46.9786 53.9454 46.2803 53.4316 45.4182 53.4316C45.3887 53.4316 45.3625 53.4316 45.333 53.4316C46.1558 53.4637 46.8081 53.9679 46.8081 54.5811C46.8081 54.8573 46.6737 55.1142 46.4508 55.3132C46.182 55.5541 45.7821 55.7114 45.333 55.7306Z" fill="#D1C6BD"/>
<path d="M43.8579 54.5811C43.8579 54.6389 43.8644 54.6967 43.8776 54.7545C43.9267 54.9922 44.071 55.2073 44.2873 55.3742C44.3791 55.4449 44.484 55.5091 44.5987 55.5605C44.6184 55.5701 44.638 55.5797 44.6577 55.5862C44.7593 55.6279 44.8642 55.66 44.979 55.6857C45.0511 55.7018 45.1232 55.7146 45.1986 55.721C45.2445 55.7275 45.2904 55.7306 45.3363 55.7306C45.7854 55.7114 46.1852 55.5541 46.454 55.3132C46.6769 55.1142 46.8114 54.8573 46.8114 54.5811C46.8114 53.9679 46.1591 53.4637 45.3363 53.4316C45.2117 53.4349 45.0872 53.4541 44.9724 53.4798C44.9593 53.483 44.9429 53.4862 44.9298 53.4894C44.8741 53.5023 44.8184 53.5183 44.7626 53.5376C44.7135 53.5536 44.6676 53.5697 44.6249 53.5922C44.1693 53.7945 43.8612 54.1605 43.8612 54.5811H43.8579Z" fill="#FFF1E6"/>
<path d="M44.8116 55.679C44.4904 55.9102 44.0512 56.0611 43.566 56.0836C43.6119 56.0836 43.6546 56.0868 43.7004 56.0868C44.2184 56.0868 44.6871 55.9455 45.0313 55.7144C45.2083 55.5988 45.3493 55.4575 45.4509 55.3001C45.559 55.1332 45.6213 54.9469 45.6213 54.7511C45.6213 54.3401 45.3558 53.9708 44.9362 53.7268C44.8969 53.7043 44.8575 53.6818 44.8149 53.6626C44.7461 53.6273 44.6773 53.5983 44.6019 53.5694C44.3331 53.4699 44.0282 53.4121 43.7037 53.4121C43.6578 53.4121 43.6152 53.4121 43.5693 53.4153C43.8971 53.4314 44.202 53.5052 44.4642 53.6208C44.5888 53.6754 44.7002 53.7396 44.8018 53.8135C45.0182 53.9644 45.1788 54.1538 45.2706 54.3625C45.323 54.4845 45.3525 54.6162 45.3525 54.7511C45.3525 55.0401 45.2214 55.3066 44.9985 55.5249C44.9428 55.5795 44.8805 55.6309 44.8116 55.679Z" fill="#D1C6BD"/>
<path d="M41.7795 54.7483C41.7795 54.8928 41.8123 55.034 41.8746 55.1657C41.9369 55.2973 42.0287 55.4226 42.1434 55.5317C42.1697 55.5574 42.1991 55.5831 42.2286 55.6088C42.3237 55.6891 42.4351 55.7629 42.5564 55.8239C42.5564 55.8239 42.563 55.8271 42.5663 55.8304C42.599 55.8464 42.6318 55.8625 42.6646 55.8785C42.9301 55.9973 43.235 56.0712 43.5661 56.0872C44.0545 56.0648 44.4937 55.9139 44.8117 55.6827C44.8772 55.6345 44.9395 55.5831 44.9985 55.5285C45.2214 55.3102 45.3525 55.0437 45.3525 54.7547C45.3525 54.6198 45.323 54.4882 45.2706 54.3662C45.1788 54.1574 45.0149 53.968 44.8019 53.8171C44.7002 53.7432 44.5855 53.679 44.4642 53.6244C44.202 53.5089 43.8971 53.435 43.5693 53.4189C43.058 53.4414 42.599 53.6084 42.2778 53.8588C42.2614 53.8717 42.2483 53.8813 42.2319 53.8942C41.95 54.1253 41.7828 54.4272 41.7828 54.7547L41.7795 54.7483Z" fill="#FFF1E6"/>
<path d="M42.6023 55.9077C42.3925 55.9944 42.1532 56.049 41.8943 56.0651C41.9369 56.0651 41.9828 56.0683 42.0287 56.0683C42.2778 56.0683 42.5171 56.0298 42.7269 55.9591C42.7695 55.9431 42.8121 55.9302 42.8547 55.9142C43.0645 55.8307 43.2481 55.7119 43.3857 55.5738C43.4513 55.5096 43.5037 55.4421 43.5496 55.3683C43.6316 55.2302 43.6775 55.0793 43.6775 54.922C43.6775 54.8963 43.6775 54.8706 43.6742 54.8449C43.625 54.3119 43.0514 53.8784 42.3106 53.7885C42.2188 53.7789 42.127 53.7725 42.0287 53.7725C41.9828 53.7725 41.9402 53.7725 41.8943 53.7757C42.0221 53.7821 42.1434 53.7982 42.2614 53.8271C42.9268 53.9748 43.4087 54.4083 43.4087 54.922V54.9348C43.4054 55.1564 43.3104 55.3651 43.1497 55.5385C43.1333 55.5577 43.1169 55.5738 43.0973 55.5899C42.9694 55.7151 42.8023 55.8243 42.6089 55.9045C42.6056 55.9045 42.6023 55.9077 42.5958 55.911L42.6023 55.9077Z" fill="#D1C6BD"/>
<path d="M40.38 54.9188C40.38 54.9509 40.38 54.9798 40.3865 55.0087C40.3898 55.0536 40.3997 55.0954 40.4128 55.1403C40.4292 55.2013 40.4554 55.2624 40.4849 55.3202C40.557 55.4582 40.6684 55.5834 40.8061 55.6894C41.0815 55.9013 41.465 56.0394 41.8977 56.0651C42.1534 56.049 42.3927 55.9944 42.6057 55.9077C42.609 55.9077 42.6123 55.9045 42.6188 55.9013C42.809 55.821 42.9761 55.7119 43.1073 55.5866C43.1269 55.5706 43.1433 55.5513 43.1597 55.5353C43.3203 55.3619 43.4154 55.1532 43.4187 54.9316V54.9188C43.4187 54.405 42.9368 53.9715 42.2714 53.8238C42.1534 53.7982 42.0321 53.7821 41.9042 53.7725C41.0552 53.8206 40.3898 54.3151 40.3898 54.9156L40.38 54.9188Z" fill="#FFF1E6"/>
<path d="M24.3867 56.0033C24.2163 56.074 24.0196 56.1189 23.8098 56.1317C23.8459 56.1317 23.8819 56.1317 23.918 56.1317C24.1212 56.1317 24.3146 56.0996 24.4883 56.0451C24.5244 56.0322 24.5572 56.0194 24.59 56.0065C24.7604 55.9359 24.9079 55.8427 25.0226 55.7271C25.0751 55.6758 25.121 55.618 25.1538 55.5602C25.2226 55.4478 25.2587 55.3258 25.2587 55.1942C25.2587 55.1749 25.2587 55.1524 25.2587 55.1331C25.2194 54.6997 24.7506 54.3433 24.1475 54.2726C24.0721 54.263 23.9966 54.2598 23.918 54.2598C23.8819 54.2598 23.8459 54.2598 23.8098 54.263C23.9147 54.2694 24.0131 54.2822 24.1081 54.3047C24.6523 54.4235 25.0423 54.78 25.0423 55.1974V55.207C25.0423 55.3868 24.9637 55.557 24.8325 55.6983C24.8194 55.7143 24.8063 55.7272 24.7899 55.74C24.685 55.8428 24.5474 55.9295 24.3933 55.9969C24.3933 55.9969 24.3867 55.9969 24.3835 56.0001L24.3867 56.0033Z" fill="#D1C6BD"/>
<path d="M22.5773 55.2007C22.5773 55.2264 22.5773 55.2489 22.5806 55.2746C22.5806 55.3099 22.5904 55.3452 22.6002 55.3805C22.6134 55.4319 22.633 55.48 22.6592 55.5282C22.7182 55.6406 22.8067 55.7433 22.9215 55.83C23.1444 56.0002 23.459 56.1158 23.8098 56.1351C24.0196 56.1222 24.213 56.0773 24.3867 56.0067C24.3867 56.0067 24.3933 56.0067 24.3966 56.0034C24.5539 55.9392 24.6883 55.8493 24.7932 55.7466C24.8096 55.7337 24.8227 55.7177 24.8358 55.7048C24.9669 55.5635 25.0423 55.3933 25.0456 55.2135V55.2039C25.0456 54.7865 24.6522 54.4333 24.1114 54.3113C24.0163 54.2888 23.9147 54.276 23.8131 54.2695C23.1214 54.3081 22.5773 54.7126 22.5773 55.2007Z" fill="#FFF1E6"/>
<path d="M23.4065 56.6682C23.4327 56.6682 23.4622 56.6682 23.4917 56.6682C24.0949 56.6682 24.6193 56.4145 24.8783 56.0453C24.9898 55.8879 25.052 55.7081 25.052 55.5187C25.052 54.8829 24.3538 54.3691 23.4917 54.3691C23.4622 54.3691 23.436 54.3691 23.4065 54.3691C24.2293 54.4012 24.8816 54.9054 24.8816 55.5187C24.8816 55.7948 24.7472 56.0517 24.5243 56.2507C24.2555 56.4916 23.8556 56.6489 23.4065 56.6682Z" fill="#D1C6BD"/>
<path d="M21.9282 55.5187C21.9282 55.5765 21.9348 55.6342 21.9479 55.692C21.997 55.9297 22.1413 56.1448 22.3576 56.3118C22.4494 56.3824 22.5543 56.4466 22.669 56.498C22.6887 56.5076 22.7084 56.5173 22.728 56.5237C22.8296 56.5654 22.9346 56.5975 23.0493 56.6232C23.1214 56.6393 23.1935 56.6521 23.2689 56.6585C23.3148 56.665 23.3607 56.6682 23.4066 56.6682C23.8557 56.6489 24.2556 56.4916 24.5244 56.2507C24.7473 56.0517 24.8817 55.7948 24.8817 55.5187C24.8817 54.9054 24.2294 54.4012 23.4066 54.3691C23.282 54.3724 23.1575 54.3916 23.0427 54.4173C23.0296 54.4205 23.0132 54.4237 23.0001 54.427C22.9444 54.4398 22.8887 54.4559 22.8329 54.4751C22.7838 54.4912 22.7379 54.5072 22.6953 54.5297C22.2396 54.732 21.9315 55.098 21.9315 55.5187H21.9282Z" fill="#FFF1E6"/>
<path d="M22.8854 56.6136C22.5642 56.8448 22.1249 56.9957 21.6398 57.0182C21.6857 57.0182 21.7283 57.0214 21.7742 57.0214C22.2921 57.0214 22.7608 56.8801 23.105 56.6489C23.282 56.5333 23.423 56.392 23.5246 56.2347C23.6328 56.0677 23.6951 55.8815 23.6951 55.6857C23.6951 55.2747 23.4296 54.9054 23.01 54.6613C22.9706 54.6389 22.9313 54.6164 22.8887 54.5971C22.8198 54.5618 22.751 54.5329 22.6756 54.504C22.4068 54.4045 22.102 54.3467 21.7775 54.3467C21.7316 54.3467 21.6889 54.3467 21.6431 54.3499C21.9708 54.3659 22.2757 54.4398 22.5379 54.5554C22.6625 54.61 22.774 54.6742 22.8756 54.748C23.0919 54.899 23.2525 55.0884 23.3443 55.2971C23.3967 55.4191 23.4263 55.5508 23.4263 55.6857C23.4263 55.9746 23.2951 56.2411 23.0722 56.4595C23.0165 56.514 22.9543 56.5654 22.8854 56.6136Z" fill="#D1C6BD"/>
<path d="M19.8533 55.6858C19.8533 55.8303 19.886 55.9715 19.9483 56.1032C20.0106 56.2348 20.1024 56.3601 20.2171 56.4692C20.2433 56.4949 20.2729 56.5206 20.3024 56.5463C20.3974 56.6266 20.5089 56.7004 20.6302 56.7614C20.6302 56.7614 20.6367 56.7646 20.64 56.7679C20.6727 56.7839 20.7055 56.7999 20.7383 56.816C21.0038 56.9348 21.3087 57.0087 21.6398 57.0247C22.1282 57.0022 22.5674 56.8513 22.8854 56.6201C22.951 56.572 23.0132 56.5206 23.0722 56.466C23.2951 56.2477 23.4262 55.9811 23.4262 55.6922C23.4262 55.5573 23.3967 55.4257 23.3443 55.3037C23.2525 55.0949 23.0886 54.9055 22.8756 54.7546C22.7739 54.6807 22.6592 54.6165 22.5379 54.5619C22.2757 54.4464 21.9708 54.3725 21.643 54.3564C21.1317 54.3789 20.6727 54.5459 20.3515 54.7963C20.3351 54.8092 20.322 54.8188 20.3056 54.8317C20.0237 55.0628 19.8565 55.3646 19.8565 55.6922L19.8533 55.6858Z" fill="#FFF1E6"/>
<path d="M20.676 56.8443C20.4662 56.931 20.227 56.9855 19.968 57.0016C20.0106 57.0016 20.0565 57.0048 20.1024 57.0048C20.3515 57.0048 20.5908 56.9662 20.8006 56.8956C20.8432 56.8796 20.8858 56.8667 20.9284 56.8507C21.1382 56.7672 21.3218 56.6484 21.4595 56.5103C21.525 56.4461 21.5775 56.3787 21.6234 56.3048C21.7053 56.1667 21.7512 56.0158 21.7512 55.8585C21.7512 55.8328 21.7512 55.8071 21.7479 55.7814C21.6988 55.2484 21.1251 54.8149 20.3843 54.725C20.2925 54.7154 20.2007 54.709 20.1024 54.709C20.0565 54.709 20.0139 54.709 19.968 54.7122C20.0959 54.7186 20.2171 54.7346 20.3351 54.7635C21.0006 54.9112 21.4824 55.3447 21.4824 55.8585V55.8713C21.4792 56.0929 21.3841 56.3016 21.2235 56.475C21.2071 56.4943 21.1907 56.5103 21.171 56.5264C21.0432 56.6516 20.876 56.7608 20.6826 56.841C20.6793 56.841 20.6761 56.8443 20.6695 56.8475L20.676 56.8443Z" fill="#D1C6BD"/>
<path d="M18.4535 55.8553C18.4535 55.8874 18.4535 55.9163 18.4601 55.9452C18.4633 55.9901 18.4732 56.0319 18.4863 56.0768C18.5027 56.1379 18.5289 56.1988 18.5584 56.2566C18.6305 56.3947 18.7419 56.5199 18.8796 56.6259C19.155 56.8378 19.5385 56.9759 19.9712 57.0016C20.2269 56.9855 20.4661 56.931 20.6792 56.8443C20.6825 56.8443 20.6858 56.841 20.6923 56.8378C20.8825 56.7576 21.0496 56.6484 21.1807 56.5232C21.2004 56.5071 21.2168 56.4878 21.2332 56.4718C21.3938 56.2984 21.4889 56.0897 21.4922 55.8681V55.8553C21.4922 55.3415 21.0103 54.9081 20.3449 54.7604C20.2269 54.7347 20.1056 54.7186 19.9778 54.709C19.1288 54.7571 18.4633 55.2516 18.4633 55.8521L18.4535 55.8553Z" fill="#FFF1E6"/>
</svg>
