<svg width="56" height="62" viewBox="0 0 56 62" fill="none" xmlns="http://www.w3.org/2000/svg">
<path d="M55.7653 34.1621C55.7653 49.5277 43.3033 62.0001 27.9273 62.0001C27.7929 62.0001 27.6483 62.0001 27.5139 61.9897C12.3343 61.7727 0.0996094 49.3934 0.0996094 34.1724C0.0996094 27.8071 2.23861 21.9274 5.85528 17.2257C10.3916 11.3254 17.2426 7.29539 25.0339 6.48939C25.7366 6.41706 26.4289 6.36539 27.1523 6.36539H27.1626C27.4106 6.34472 27.6793 6.34473 27.9273 6.34473C29.3223 6.34473 30.7069 6.44806 32.0399 6.66506C36.0286 7.24372 39.7176 8.66973 42.9623 10.7674C45.4629 12.3691 47.6949 14.3634 49.5549 16.6677C52.9753 20.8941 55.1763 26.1124 55.6723 31.8371C55.7239 32.6017 55.7653 33.3871 55.7653 34.1827V34.1621Z" fill="#784FFF"/>
<path d="M52.3863 47.461C47.6743 56.11 38.488 61.9897 27.9273 61.9897C17.3667 61.9897 8.18034 56.0997 3.45801 47.4507C8.56267 52.5347 17.625 55.924 27.9273 55.924C38.2297 55.924 47.2713 52.545 52.3863 47.461Z" fill="#28E58A"/>
<path d="M45.7215 16.4193C46.9821 21.8753 42.1978 21.6273 39.8108 19.8603C39.8211 20.0153 39.8211 20.16 39.8211 20.315C39.5008 26.6493 33.7658 24.283 32.6291 21.462C32.5878 21.338 32.5258 21.183 32.4741 21.028C32.3708 21.586 32.2468 22.113 32.0298 22.6193C29.7461 27.9513 25.7471 24.9856 25.0031 22.1233C24.2798 25.0786 18.9065 28.189 17.7285 21.958C17.6148 21.3277 17.6045 20.687 17.6665 20.0153C17.5321 20.2013 17.3875 20.377 17.2738 20.5217C15.2898 22.8673 8.9348 24.7687 10.6191 17.5353C10.6811 17.246 10.7845 16.9463 10.9085 16.657C9.5238 17.2976 7.36414 17.6386 5.85547 17.215C10.9498 10.5913 18.9478 6.33398 27.9378 6.33398C36.9278 6.33398 44.4711 10.3537 49.5655 16.6467C48.6458 17.153 47.0648 16.9257 45.7215 16.4193Z" fill="#28E58A"/>
<path d="M14.5356 34.6993L10.5882 32.0334L11.7662 36.6524C11.7972 36.7867 11.6009 36.8487 11.5596 36.7144L9.93722 32.24L8.18055 36.6627C8.12889 36.797 7.93255 36.7247 7.97389 36.5904L9.29655 32.0127L5.26655 34.565C5.15289 34.6374 5.02889 34.472 5.14255 34.3894L8.90389 31.465L4.15055 31.1654C4.01622 31.1654 4.01622 30.9484 4.15055 30.9484L8.91422 30.7933L5.24589 27.7554C5.14255 27.6624 5.26655 27.5073 5.38022 27.5797L9.32755 30.2457L8.14955 25.6267C8.11855 25.4923 8.31489 25.4304 8.35622 25.5647L9.97855 30.039L11.7352 25.6164C11.7869 25.482 11.9832 25.5544 11.9419 25.6887L10.6192 30.2664L14.6492 27.714C14.7629 27.6417 14.8869 27.807 14.7732 27.8897L11.0119 30.814L15.7652 31.1137C15.8996 31.1137 15.8996 31.3307 15.7652 31.3307L11.0016 31.4857L14.6699 34.5237C14.7732 34.6167 14.6492 34.7717 14.5356 34.6993Z" fill="#F5FF28"/>
<path d="M52.6967 44.8366L48.7494 42.1706L49.9274 46.7896C49.9584 46.9239 49.762 46.9859 49.7207 46.8516L48.0984 42.3772L46.3417 46.7999C46.29 46.9342 46.0937 46.8619 46.135 46.7276L47.4577 42.1499L43.4277 44.7022C43.314 44.7746 43.19 44.6092 43.3037 44.5266L47.065 41.6022L42.3117 41.3026C42.1774 41.3026 42.1774 41.0856 42.3117 41.0856L47.0754 40.9306L43.407 37.8926C43.3037 37.7996 43.4277 37.6446 43.5414 37.7169L47.4887 40.3829L46.3107 35.7639C46.2797 35.6296 46.476 35.5676 46.5174 35.7019L48.1397 40.1762L49.8964 35.7536C49.948 35.6192 50.1444 35.6916 50.103 35.8259L48.7804 40.4036L52.8104 37.8512C52.924 37.7789 53.048 37.9442 52.9344 38.0269L49.173 40.9512L53.9264 41.2509C54.0607 41.2509 54.0607 41.4679 53.9264 41.4679L49.1627 41.6229L52.831 44.6609C52.9344 44.7539 52.8104 44.9089 52.6967 44.8366Z" fill="#F5FF28"/>
<path d="M20.6429 48.0084L18.6693 47.2541L18.7106 49.3724C18.7106 49.7651 18.2043 49.9304 17.9873 49.5997L16.8299 47.8327L15.6209 49.5687C15.3936 49.8891 14.8873 49.7237 14.9079 49.3207L15.0113 47.2127L13.0169 47.9051C12.6449 48.0291 12.3349 47.5951 12.5829 47.2851L13.9056 45.6421L11.8803 45.0221C11.4979 44.9084 11.5083 44.3711 11.8906 44.2677L13.9263 43.7097L12.6553 42.0254C12.4176 41.7051 12.7379 41.2814 13.1099 41.4157L15.0836 42.1701L15.0423 40.0517C15.0423 39.6591 15.5486 39.4937 15.7656 39.8244L16.9229 41.5914L18.1319 39.8554C18.3593 39.5351 18.8656 39.7004 18.8449 40.1034L18.7416 42.2114L20.7359 41.5191C21.1079 41.3951 21.4179 41.8291 21.1699 42.1391L19.8473 43.7821L21.8726 44.4021C22.2549 44.5157 22.2446 45.0531 21.8623 45.1564L19.8266 45.7144L21.0976 47.3987C21.3353 47.7191 21.0149 48.1427 20.6429 48.0084Z" fill="#F5FF28"/>
<path d="M39.6969 30.2039L39.0459 29.9559V30.6482C39.0562 30.7826 38.8909 30.8342 38.8185 30.7206L38.4362 30.1419L38.0332 30.7102C37.9609 30.8136 37.7955 30.7619 37.7955 30.6276L37.8265 29.9352L37.1652 30.1626C37.0412 30.2039 36.9379 30.0592 37.0205 29.9559L37.4545 29.4082L36.7932 29.2016C36.6692 29.1602 36.6692 28.9846 36.7932 28.9536L37.4649 28.7676L37.0412 28.2096C36.9585 28.1062 37.0722 27.9616 37.1962 28.0132L37.8472 28.2612V27.5689C37.8369 27.4346 38.0022 27.3829 38.0745 27.4966L38.4569 28.0752L38.8599 27.5069C38.9322 27.4036 39.0975 27.4552 39.0975 27.5896L39.0665 28.2819L39.7279 28.0546C39.8519 28.0132 39.9552 28.1579 39.8725 28.2612L39.4385 28.8089L40.0999 29.0156C40.2239 29.0569 40.2239 29.2326 40.0999 29.2636L39.4282 29.4496L39.8519 30.0076C39.9345 30.1109 39.8209 30.2556 39.6969 30.2039Z" fill="#F5FF28"/>
<path d="M32.7435 40.7652L30.8318 39.4219L31.4518 41.6745C31.4828 41.7985 31.2968 41.8605 31.2555 41.7365L30.5012 39.5252L29.6745 41.7159C29.6228 41.8399 29.4368 41.7779 29.4782 41.6539L30.1705 39.4219L28.2175 40.7135C28.1038 40.7859 27.9902 40.6205 28.1038 40.5482L29.9742 39.1429L27.6388 39.0395C27.5045 39.0395 27.5045 38.8329 27.6388 38.8329L29.9742 38.8019L28.1452 37.3449C28.0418 37.2622 28.1555 37.1072 28.2692 37.1795L30.1808 38.5229L29.5608 36.2702C29.5298 36.1462 29.7158 36.0842 29.7572 36.2082L30.5115 38.4195L31.3382 36.2289C31.3898 36.1049 31.5758 36.1669 31.5345 36.2909L30.8422 38.5229L32.7952 37.2312C32.9088 37.1589 33.0225 37.3242 32.9088 37.3965L31.0385 38.8019L33.3738 38.9052C33.5082 38.9052 33.5082 39.1119 33.3738 39.1119L31.0385 39.1429L32.8675 40.5999C32.9708 40.6825 32.8572 40.8375 32.7435 40.7652Z" fill="#F5FF28"/>
<path d="M52.221 25.5543L50.3094 24.2109L50.9294 26.4636C50.9604 26.5876 50.7744 26.6496 50.733 26.5256L49.9787 24.3143L49.152 26.5049C49.1004 26.6289 48.9144 26.5669 48.9557 26.4429L49.648 24.2109L47.695 25.5026C47.5814 25.5749 47.4677 25.4096 47.5814 25.3373L49.4517 23.9319L47.1164 23.8286C46.982 23.8286 46.982 23.6219 47.1164 23.6219L49.4517 23.5909L47.6227 22.1339C47.5194 22.0513 47.633 21.8963 47.7467 21.9686L49.6584 23.3119L49.0384 21.0593C49.0074 20.9353 49.1934 20.8733 49.2347 20.9973L49.989 23.2086L50.8157 21.0179C50.8674 20.8939 51.0534 20.9559 51.012 21.0799L50.3197 23.3119L52.2727 22.0203C52.3864 21.9479 52.5 22.1133 52.3864 22.1856L50.516 23.5909L52.8514 23.6943C52.9857 23.6943 52.9857 23.9009 52.8514 23.9009L50.516 23.9319L52.345 25.3889C52.4484 25.4716 52.3347 25.6266 52.221 25.5543Z" fill="#F5FF28"/>
<path d="M28.6613 8.88659C27.3903 8.89692 26.4706 8.67992 25.8093 8.42159C24.6726 7.96692 24.3213 7.32625 24.3213 7.32625C24.59 7.07825 24.8276 6.78892 25.024 6.47892C25.3443 6.04492 25.6026 5.57992 25.8196 5.10459C26.5016 3.60625 26.8323 1.90125 26.977 0.464919C27.1423 0.330586 27.3593 0.196252 27.6486 0.113586C27.6486 0.113586 27.6693 0.113587 27.6693 0.103254C27.7726 0.0825874 27.8863 0.051586 28 0.0412526C28.0723 0.0309193 28.155 0.0205855 28.2273 0.0205855C28.3616 0.0102522 28.5166 0.0102539 28.682 0.0102539C29.271 0.0309206 29.6636 0.103254 29.953 0.196254C29.9736 0.444254 30.0046 0.692253 30.046 0.92992C29.891 0.68192 29.5396 0.289254 28.6716 0.289254C27.721 0.289254 27.4626 0.723252 27.4213 1.14692H30.0666C30.2733 2.50059 30.6866 3.76125 31.131 4.77392C31.4616 5.55925 31.782 6.19992 32.0403 6.65459C32.278 7.07825 32.4433 7.33659 32.4433 7.33659C32.4433 7.33659 32.7946 8.86592 28.6613 8.89692V8.88659Z" fill="#23C979"/>
<path d="M31.1414 4.76367C31.0277 3.658 30.6867 1.13667 30.6867 1.13667C30.5627 0.671669 30.418 0.372 29.9634 0.186C29.674 0.082667 29.2814 0.0206667 28.6924 0C28.527 0 28.372 2.20767e-06 28.2377 0.0103355C28.1654 0.0103355 28.0827 0.0206693 28.0104 0.0310027C27.8967 0.041336 27.783 0.0723335 27.6797 0.0930002C27.6797 0.103333 27.659 0.103336 27.659 0.103336C27.3697 0.196336 27.1527 0.320336 26.9874 0.454669C26.6257 0.775003 26.5844 1.12633 26.5844 1.12633C26.5844 1.12633 25.9024 4.28833 25.83 5.09433C25.8197 5.18733 25.8094 5.24934 25.8197 5.27C25.892 5.43534 26.2847 5.66267 27.5454 5.74533C27.8657 5.766 28.2274 5.78667 28.6717 5.78667C30.7797 5.797 31.1207 5.37333 31.1827 5.25967C31.193 5.239 31.1827 5.04267 31.1414 4.75334V4.76367ZM27.4317 1.12633C27.473 0.692333 27.7314 0.268669 28.682 0.268669C29.55 0.268669 29.9014 0.661334 30.0564 0.909334C30.1184 1.03333 30.1287 1.12633 30.1287 1.12633H27.4317Z" fill="#76BDCF"/>
<g style="mix-blend-mode:multiply" opacity="0.45">
<path d="M27.2044 1.41528C27.4834 2.59328 27.5453 5.75528 27.5453 5.75528L27.163 6.34428H27.1527L25.8197 8.41095C25.8197 8.41095 15.9824 16.0059 14.4737 26.4736C12.9444 37.0136 13.9984 52.2346 22.9987 58.9099C24.7037 60.1706 26.202 61.1833 27.5247 61.9789C12.345 61.7619 0.110352 49.3826 0.110352 34.1616C0.110352 27.7963 2.24935 21.9166 5.86602 17.2149C10.4024 11.3146 17.2534 7.28461 25.0447 6.47861C25.365 6.04461 25.6234 5.57962 25.8404 5.10428C25.9127 4.29828 26.5947 1.13628 26.5947 1.13628C26.5947 1.13628 26.636 0.784948 26.9977 0.464615C27.163 0.330281 27.38 0.195948 27.6694 0.113281C27.4007 0.288948 27.039 0.650615 27.2147 1.42562L27.2044 1.41528Z" fill="#E8BABA"/>
</g>
<g style="mix-blend-mode:soft-light">
<path d="M55.6828 31.8163C55.3625 32.2606 55.0112 32.6946 54.6392 33.1286C49.1625 39.2873 35.3985 37.1173 32.0092 30.5039C28.6302 23.9113 28.6302 21.8859 34.3445 20.7699C40.0692 19.6436 42.5698 18.0316 42.7145 12.8029C42.7352 11.9969 42.8282 11.3149 42.9625 10.7466C45.4632 12.3482 47.6952 14.3426 49.5552 16.6469C52.9755 20.8733 55.1765 26.0916 55.6725 31.8163H55.6828Z" fill="#B8E6E1"/>
</g>
</svg>
