<svg width="42" height="97" viewBox="0 0 42 97" fill="none" xmlns="http://www.w3.org/2000/svg">
<path d="M18.3174 60.7393C18.8347 60.2728 20.3221 58.2553 20.8264 57.5996L22.9345 60.4997C21.2015 62.0633 18.3174 60.7393 18.3174 60.7393Z" fill="#FAFF63"/>
<path d="M41.1962 25.3951C41.5324 34.1081 35.9065 42.342 30.4875 48.3188C30.4746 48.3188 30.4617 48.3314 30.4487 48.344C25.7928 53.476 21.2791 56.9436 20.8265 57.5866C17.8518 54.1695 5.81108 45.633 1.957 32.5194C1.47847 30.9054 1.11634 29.2157 0.922346 27.4504C-0.267504 16.9343 6.54827 0 20.8265 0C35.1047 0 40.7565 13.328 41.1962 25.3951Z" fill="#FAFF63"/>
<g style="mix-blend-mode:multiply" opacity="0.34">
<path d="M18.3174 60.7393C18.8347 60.2728 20.3221 58.2553 20.8264 57.5996L22.9345 60.4997C21.2015 62.0633 18.3174 60.7393 18.3174 60.7393Z" fill="#F2B092"/>
</g>
<g style="mix-blend-mode:multiply" opacity="0.34">
<path d="M20.8265 57.5868C17.8518 54.1697 5.81108 45.6332 1.957 32.5195C3.41845 36.6302 5.92748 41.0308 9.97555 45.4945C11.9802 47.7263 17.813 52.7448 22.4819 52.3918C24.5253 52.2405 27.7328 50.4121 30.4617 48.3442C25.8057 53.4762 21.2921 56.9437 20.8394 57.5868H20.8265Z" fill="#F2B092"/>
</g>
<path d="M19.8306 56.7533C19.8306 56.7533 20.9041 56.0094 21.6154 56.6524C22.3267 57.2955 21.6154 57.926 20.7489 57.9638C19.8823 58.0016 19.2745 57.0055 19.8306 56.7407V56.7533Z" fill="black"/>
<path opacity="0.32" d="M20.71 3.02633C23.7881 1.76541 30.6556 3.73245 34.6908 9.64621C41.6617 19.8597 38.7389 32.9734 35.5573 38.5089C35.5573 38.5089 36.9282 25.37 31.5868 16.1652C27.0214 8.28441 17.6319 4.27465 20.71 3.01373V3.02633Z" fill="#FFFFE8"/>
<path opacity="0.66" d="M28.0431 6.99834C29.2459 6.30483 32.0265 7.72968 33.863 10.4407C37.6912 16.0518 37.2386 24.8909 37.2386 24.8909C37.2386 24.8909 36.1005 18.5989 33.5009 13.8578C31.3023 9.84804 27.4999 7.31357 28.0431 6.99834Z" fill="#FFFFE8"/>
<path d="M20.8618 57.4626C23.427 57.7034 25.9481 58.3879 28.3365 59.5032C30.36 60.4411 32.494 61.7466 33.655 63.9647C34.7386 66.0433 34.5838 68.5402 33.6329 70.6442C32.6156 72.9003 30.8686 74.5099 28.823 75.4225C24.1347 77.5138 19.0041 76.2464 14.1279 76.8421C12.8784 76.9942 11.6289 77.2603 10.4348 77.742C9.45067 78.1349 8.47763 78.7052 7.82525 79.6558C6.58683 81.4556 6.78586 83.9905 7.40507 86.0438C8.73194 90.4293 11.9607 94.0288 15.698 95.7399C16.1735 95.9554 16.6711 96.1455 17.1686 96.3103C17.3456 96.361 17.4119 96.0568 17.246 96.0061C13.1438 94.7006 9.63864 91.2277 7.94688 86.7536C7.1397 84.6116 6.69741 81.6964 8.12379 79.7572C8.90886 78.6926 10.092 78.1729 11.2309 77.8053C12.4914 77.3871 13.7962 77.1843 15.1009 77.0829C19.8998 76.7153 25.0082 77.8053 29.5417 75.4479C31.4104 74.4846 32.9805 72.8749 33.9093 70.7709C34.7497 68.8697 35.0151 66.6137 34.2632 64.6111C33.4339 62.393 31.6205 60.9228 29.785 59.8961C27.5514 58.654 25.1299 57.8302 22.6862 57.3992C22.0891 57.2978 21.481 57.2218 20.8839 57.1584C20.707 57.1457 20.707 57.4626 20.8839 57.4753L20.8618 57.4626Z" fill="black"/>
</svg>
