<svg width="74" height="62" viewBox="0 0 74 62" fill="none" xmlns="http://www.w3.org/2000/svg">
<path d="M57.5294 52.6439C42.07 62.8751 15.2226 66.8356 1.80899 46.0532C1.80899 46.0432 1.78884 46.0332 1.78884 46.0132C1.7586 45.9732 1.73845 45.9332 1.70821 45.8932C1.67798 45.8532 1.64775 45.8032 1.62759 45.7632C1.43611 45.4631 1.24463 45.1531 1.06323 44.8431C1.06323 44.8431 1.06323 44.8331 1.06323 44.8231L2.38343 42.8628L3.68347 40.9226C3.68347 40.9226 3.68347 40.9226 3.69355 40.9226C3.69355 40.9226 3.7137 40.9226 3.72378 40.9226C3.72378 40.9226 3.73386 40.9226 3.74394 40.9226C3.76409 40.9226 3.79433 40.9226 3.82456 40.9326C3.85479 40.9326 3.88503 40.9426 3.92534 40.9526C3.93542 40.9526 3.94549 40.9526 3.96565 40.9526C4.02612 40.9626 4.10674 40.9826 4.19744 40.9926C4.22767 40.9926 4.26799 41.0026 4.3083 41.0126C4.37884 41.0226 4.44939 41.0426 4.51993 41.0526C4.57032 41.0526 4.62071 41.0726 4.6711 41.0826C4.77188 41.1026 4.88273 41.1226 5.00367 41.1426C5.05406 41.1426 5.10445 41.1626 5.15483 41.1726C5.2153 41.1826 5.28585 41.1926 5.34631 41.2126C5.67888 41.2726 6.05176 41.3427 6.45488 41.4127C6.52542 41.4227 6.59597 41.4327 6.66651 41.4527C7.0797 41.5227 7.53321 41.6027 8.01694 41.6827C8.06733 41.6827 8.11772 41.7027 8.15803 41.7027C8.69216 41.7927 9.26659 41.8827 9.88134 41.9827C10.0426 42.0027 10.2038 42.0327 10.3752 42.0627C10.4356 42.0627 10.4961 42.0827 10.5566 42.0927C10.6674 42.1127 10.7783 42.1227 10.8891 42.1427C11.131 42.1828 11.3729 42.2128 11.6147 42.2528C11.7357 42.2728 11.8566 42.2928 11.9775 42.3028C12.1589 42.3328 12.3504 42.3528 12.5318 42.3828C12.6527 42.4028 12.7636 42.4128 12.8845 42.4328H12.9047C13.0962 42.4628 13.2877 42.4828 13.4791 42.5128C13.5094 42.5128 13.5396 42.5128 13.5698 42.5228C13.6605 42.5328 13.7512 42.5428 13.8419 42.5628C14.245 42.6128 14.6482 42.6728 15.0614 42.7228C15.1823 42.7428 15.3133 42.7528 15.4342 42.7728C15.7164 42.8028 15.9885 42.8428 16.2707 42.8728C16.4118 42.8928 16.5428 42.9028 16.6839 42.9228C16.825 42.9428 16.956 42.9528 17.0971 42.9728C17.2382 42.9928 17.3692 43.0028 17.5103 43.0229C17.5909 43.0229 17.6715 43.0429 17.7622 43.0529C17.8529 43.0629 17.9335 43.0729 18.0242 43.0829C18.2863 43.1129 18.5584 43.1429 18.8204 43.1729C19.0018 43.1929 19.1731 43.2129 19.3545 43.2229C19.5359 43.2429 19.7072 43.2629 19.8886 43.2729C19.9793 43.2729 20.07 43.2929 20.1607 43.3029C20.967 43.3829 21.7732 43.4529 22.5895 43.5129C22.6802 43.5129 22.7709 43.5229 22.8616 43.5329C23.1337 43.5529 23.4058 43.5729 23.6678 43.5929C23.819 43.6029 23.9702 43.6129 24.1213 43.6229C24.1516 43.6229 24.1717 43.6229 24.2019 43.6229C24.2927 43.6229 24.3834 43.6329 24.4741 43.6429C24.857 43.6629 25.24 43.6829 25.6229 43.7029C25.7439 43.7029 25.8648 43.7129 25.9857 43.7229C26.016 43.7229 26.0462 43.7229 26.0764 43.7229C26.1974 43.7229 26.3183 43.7229 26.4292 43.7329C26.4795 43.7329 26.5299 43.7329 26.5803 43.7329C26.671 43.7329 26.7617 43.7329 26.8524 43.7329C26.9935 43.7329 27.1245 43.7329 27.2656 43.7429C27.3865 43.7429 27.4974 43.7429 27.6183 43.7429C27.6687 43.7429 27.709 43.7429 27.7594 43.7429C27.8703 43.7429 27.9811 43.7429 28.092 43.7429C28.1122 43.7429 28.1222 43.7429 28.1424 43.7429C28.2532 43.7429 28.3641 43.7429 28.475 43.7429C30.4301 43.7529 32.2642 43.6829 33.8868 43.4829C40.5381 42.6628 50.9586 36.9622 53.5889 27.8411C56.2192 18.7201 58.0836 15.5597 60.1597 13.4995C61.0768 12.5894 62.9714 11.1492 65.5715 11.6193C66.7103 11.8193 67.9801 12.3794 69.3507 13.4995C76.5765 19.3702 73.2911 42.1728 57.5294 52.6039V52.6439Z" fill="white" stroke="black" stroke-width="0.25" stroke-miterlimit="10"/>
<path d="M50.3136 46.7833C37.021 55.5843 16.694 56.4944 2.77646 43.2429C2.64545 43.1129 2.51443 42.9928 2.38342 42.8628L3.68346 40.9226C3.68346 40.9226 3.68346 40.9226 3.69354 40.9226C3.69354 40.9226 3.7137 40.9226 3.72378 40.9226C3.72378 40.9226 3.73385 40.9226 3.74393 40.9226C3.76409 40.9226 3.79432 40.9226 3.82455 40.9326C3.85479 40.9326 3.88502 40.9426 3.92533 40.9526C3.93541 40.9526 3.94549 40.9526 3.96564 40.9526C4.02611 40.9626 4.10673 40.9826 4.19743 40.9926C4.22767 40.9926 4.26798 41.0026 4.30829 41.0126C4.37884 41.0226 4.44938 41.0426 4.51992 41.0526C4.57031 41.0526 4.6207 41.0726 4.67109 41.0826C4.77187 41.1026 4.88273 41.1226 5.00366 41.1426C5.05405 41.1426 5.10444 41.1626 5.15483 41.1726C5.2153 41.1826 5.28584 41.1926 5.34631 41.2126C5.67888 41.2726 6.05176 41.3427 6.45487 41.4127C6.52541 41.4227 6.59596 41.4327 6.6665 41.4527C7.0797 41.5227 7.5332 41.6027 8.01693 41.6827C8.06732 41.6827 8.11771 41.7027 8.15802 41.7027C8.69215 41.7927 9.26659 41.8827 9.88133 41.9827C10.0426 42.0127 10.2038 42.0327 10.3751 42.0627C10.4356 42.0627 10.4961 42.0827 10.5565 42.0927C10.6674 42.1127 10.7783 42.1227 10.8891 42.1427C11.131 42.1828 11.3729 42.2128 11.6147 42.2528C11.7357 42.2728 11.8566 42.2928 11.9775 42.3028C12.1589 42.3328 12.3504 42.3528 12.5318 42.3828C12.6527 42.4028 12.7636 42.4128 12.8845 42.4328H12.9047C13.0962 42.4628 13.2876 42.4828 13.4791 42.5128C13.5094 42.5128 13.5396 42.5128 13.5698 42.5228C13.6605 42.5328 13.7512 42.5428 13.8419 42.5628C14.245 42.6128 14.6482 42.6728 15.0613 42.7228C15.1823 42.7428 15.3133 42.7528 15.4342 42.7728C15.7164 42.8028 15.9885 42.8428 16.2707 42.8728C16.4118 42.8928 16.5428 42.9028 16.6839 42.9228C16.825 42.9428 16.956 42.9528 17.0971 42.9728C17.2382 42.9928 17.3692 43.0028 17.5103 43.0229C17.5909 43.0229 17.6715 43.0429 17.7622 43.0529C17.8529 43.0629 17.9335 43.0729 18.0242 43.0829C18.2863 43.1129 18.5584 43.1429 18.8204 43.1729C19.0018 43.1929 19.1731 43.2129 19.3545 43.2229C19.5359 43.2429 19.7072 43.2629 19.8886 43.2729C19.9793 43.2729 20.07 43.2929 20.1607 43.3029C20.967 43.3829 21.7732 43.4529 22.5895 43.5129C22.6802 43.5129 22.7709 43.5229 22.8616 43.5329C23.1337 43.5529 23.4058 43.5729 23.6678 43.5929C23.819 43.6029 23.9702 43.6129 24.1213 43.6229C24.1516 43.6229 24.1717 43.6229 24.2019 43.6229C24.2926 43.6229 24.3833 43.6329 24.474 43.6429C24.857 43.6629 25.24 43.6829 25.6229 43.7029C25.7439 43.7029 25.8648 43.7129 25.9857 43.7229C26.016 43.7229 26.0462 43.7229 26.0764 43.7229C26.1974 43.7229 26.3183 43.7229 26.4291 43.7329C26.4795 43.7329 26.5299 43.7329 26.5803 43.7329C26.671 43.7329 26.7617 43.7329 26.8524 43.7329C26.9935 43.7329 27.1245 43.7329 27.2656 43.7429C27.3865 43.7429 27.4974 43.7429 27.6183 43.7429C27.6687 43.7429 27.709 43.7429 27.7594 43.7429C27.8703 43.7429 27.9811 43.7429 28.092 43.7429C28.1121 43.7429 28.1222 43.7429 28.1424 43.7429C28.2532 43.7429 28.3641 43.7429 28.4749 43.7429C30.43 43.7529 32.2642 43.6829 33.8867 43.4829C40.5381 42.6628 50.9586 36.9622 53.5889 27.8411C56.2192 18.7201 58.0836 15.5597 60.1597 13.4995C61.0768 12.5894 62.9714 11.1492 65.5715 11.6193C66.8816 22.1105 62.0644 38.9524 50.3136 46.7333V46.7833Z" fill="white" stroke="black" stroke-width="0.25" stroke-miterlimit="10"/>
<path d="M5.35592 41.2223C5.35592 41.2223 5.35592 41.2223 5.34585 41.2223C5.18462 41.2823 3.51189 41.9523 2.77629 43.2323C2.74606 43.2823 2.7259 43.3223 2.69567 43.3723C2.20192 44.3523 1.92985 45.4423 1.80893 46.0423C1.80893 46.0323 1.78877 46.0223 1.78877 46.0023C1.75854 45.9623 1.73839 45.9223 1.70816 45.8823C1.67793 45.8423 1.6477 45.7923 1.62755 45.7523C1.3857 45.3723 1.10356 44.9223 1.06325 44.8323C0.982637 44.6423 0.982637 44.2223 1.0431 43.9723C1.14386 43.5623 1.49655 42.9523 1.99031 42.3623C2.34299 41.9423 2.73598 41.5623 3.1189 41.2023C3.60258 40.7523 4.12657 40.8723 4.33818 40.9323L5.35592 41.2223Z" fill="white" stroke="black" stroke-width="0.25" stroke-miterlimit="10"/>
<path d="M65.6723 12.5397C64.3017 12.3996 62.4877 11.9796 62.4877 11.9796C62.4877 11.9796 64.2513 9.46931 63.9087 6.65899C63.8079 5.8489 63.5358 5.14882 63.2032 4.56875C62.9513 4.1287 62.4373 4.42874 62.1551 4.1187C61.9939 3.94868 61.6815 3.31861 61.6109 3.10859C61.4598 2.64853 61.6109 2.07847 62.0241 1.82844L62.921 1.27838C63.0117 1.21837 63.1125 1.16837 63.2133 1.12836C63.6567 0.948343 64.1707 0.918337 64.4428 1.29838C64.5537 1.4484 64.9265 1.84844 65.0475 2.03847C65.1986 2.26849 64.9467 2.64853 65.118 2.90856C65.894 4.16871 66.5995 5.58887 66.5995 6.92902C66.5995 9.3493 66.408 11.0695 67.1134 12.1496C67.4057 12.5997 66.6398 12.6497 65.6622 12.5497L65.6723 12.5397Z" fill="white" stroke="black" stroke-width="0.25" stroke-miterlimit="10"/>
<path d="M65.6723 12.5392C64.3017 12.3992 62.4877 11.9792 62.4877 11.9792C62.4877 11.9792 64.2513 9.46888 63.9087 6.65856C63.8079 5.84846 63.5358 5.14838 63.2032 4.56832C62.9513 4.12827 62.4373 4.4283 62.1551 4.11827C61.9939 3.94825 61.6815 3.31818 61.6109 3.10815C61.4598 2.6481 61.6109 2.07804 62.0241 1.82801L62.5078 1.52797L62.921 1.27794C63.0117 1.21794 63.1125 1.16793 63.2133 1.12793C63.7172 1.56798 64.3319 2.04803 64.3722 2.36807C64.4428 2.96814 64.1707 3.23817 64.1707 3.43819C64.1707 3.63822 65.4506 5.44842 65.7932 7.0586C66.0552 8.29874 66.0553 10.9991 65.6622 12.5392H65.6723Z" fill="white" stroke="black" stroke-width="0.25" stroke-miterlimit="10"/>
</svg>
