<svg width="74" height="76" viewBox="0 0 74 76" fill="none" xmlns="http://www.w3.org/2000/svg">
<path d="M31.4003 3.59391C31.3703 3.69391 31.3303 3.79391 31.2803 3.88391C31.1603 4.11391 30.9803 4.35391 30.7303 4.60391C30.4303 4.90391 29.9603 5.05391 29.4003 5.08391C28.7503 5.13391 27.9703 5.03391 27.1603 4.84391C24.9603 4.34391 22.5003 3.25391 21.6703 2.86391C21.4803 2.77391 21.3803 2.72391 21.3803 2.72391C21.3803 2.72391 21.4603 2.68391 21.5903 2.60391C21.6003 2.60391 21.6203 2.59391 21.6303 2.58391C22.2503 2.21391 23.8603 1.23391 24.6203 0.623911C24.8703 0.423911 25.2003 0.263911 25.5803 0.153911C26.6203 -0.136089 28.0103 -0.0360894 29.0803 0.623911C30.2503 1.34391 31.8003 2.30391 31.4203 3.59391H31.4003Z" fill="#EDF2F6"/>
<path opacity="0.6" d="M31.2803 3.89386C31.1603 4.12386 30.9803 4.36386 30.7303 4.61386C30.4303 4.91386 29.9603 5.06386 29.4003 5.09386C28.7303 5.02386 27.9503 4.94386 27.1603 4.85386C24.9603 4.35386 22.5003 3.26386 21.6703 2.87386C21.6203 2.75386 21.5903 2.65386 21.5803 2.61386C21.5803 2.59386 21.5803 2.58386 21.5803 2.58386C21.5803 2.58386 21.6003 2.58386 21.6303 2.58386C21.8003 2.59386 22.3603 2.64386 22.9703 2.70386C23.6903 2.78386 23.8603 2.50386 24.4503 2.78386C25.0403 3.06386 25.0703 2.96386 25.8703 3.12386C26.6703 3.28386 28.0603 3.32386 28.6603 3.45386C29.2603 3.57386 29.7103 4.00386 29.9903 4.02386C30.2203 4.03386 30.9203 3.76386 31.3003 3.89386H31.2803Z" fill="#B2C9D8"/>
<g style="mix-blend-mode:soft-light" opacity="0.97">
<path d="M31.4003 3.59391C31.3003 2.74391 30.6603 2.54391 29.6903 1.38391C28.7403 0.253911 25.7003 0.163911 25.5603 0.153911C26.6003 -0.136089 27.9903 -0.0360894 29.0603 0.623911C30.2303 1.34391 31.7803 2.30391 31.4003 3.59391Z" fill="#F5F8FA"/>
</g>
<path d="M73.2403 68.834C72.4103 70.344 73.3603 71.454 71.9803 72.164C70.5903 72.874 71.0203 73.3939 69.2103 73.5239C68.6403 73.5639 68.1603 73.524 67.7703 73.444C66.9203 73.284 66.5003 72.964 66.5003 72.964L67.6503 71.534L72.9403 64.924C72.9403 64.924 74.0803 67.324 73.2503 68.834H73.2403Z" fill="#F2F7FF"/>
<path d="M72.4003 66.8539C72.4003 66.8539 71.6403 70.0739 71.0303 70.5939C70.4303 71.1239 69.5703 71.8239 69.2303 72.3039C68.8903 72.7939 69.1903 73.1139 68.2603 73.2039C67.9803 73.2339 67.8303 73.3239 67.7603 73.4339C66.9103 73.2739 66.4903 72.9539 66.4903 72.9539L67.6403 71.5239L72.4103 66.8439L72.4003 66.8539Z" fill="#A9B5D9"/>
<path d="M26.8703 50.454L24.4003 71.404L20.5503 74.644C20.5503 74.644 19.7203 74.924 18.9503 74.824C18.1803 74.734 15.1903 74.704 13.4603 74.844C12.8103 74.894 12.3403 74.994 11.9803 75.054C11.3903 75.164 11.1003 75.194 10.8103 74.844C10.4603 74.414 10.7403 73.664 11.3203 73.034C11.5103 72.834 11.7303 72.644 11.9803 72.484C12.9703 71.844 14.1403 71.004 14.2303 70.294C14.3203 69.584 15.0603 69.244 15.3103 67.864C15.5603 66.474 15.6503 65.484 15.8003 64.414C15.9503 63.334 15.4303 61.914 15.8903 60.424C16.3503 58.934 16.1103 54.584 16.1703 53.044C16.2303 51.504 16.6003 50.084 16.7903 49.224C16.9703 48.354 17.1603 47.964 17.7103 45.464C18.2703 42.974 18.5103 41.024 18.5103 39.764C18.5103 39.104 18.6103 38.204 18.6503 37.334C18.6903 36.524 18.6703 35.724 18.4803 35.174C18.0803 34.034 17.3403 30.934 17.3403 30.934L22.6703 34.164L25.0703 43.494L26.8603 50.464L26.8703 50.454Z" fill="#F2F7FF"/>
<path opacity="0.17" d="M26.8703 50.454L24.4003 71.404L20.5503 74.644C20.5503 74.644 19.7203 74.924 18.9503 74.824C18.1803 74.734 15.1903 74.7039 13.4603 74.8439C11.7303 74.9839 11.2703 75.4239 10.8103 74.8439C10.4603 74.4139 10.7403 73.664 11.3203 73.034C12.5603 73.654 12.8603 73.8039 15.2603 73.0239C17.6603 72.2339 17.2003 72.884 18.3603 71.964C19.5203 71.034 19.1003 71.034 19.5603 70.394C20.0203 69.744 23.4403 66.834 22.8903 63.964C22.3403 61.104 23.4403 62.1639 23.3103 60.2639C23.1703 58.3639 22.9403 59.204 22.8503 56.154C22.7603 53.104 24.0503 52.9139 22.7103 51.9439C21.3703 50.9739 22.5303 51.434 21.8803 46.994C21.2403 42.554 20.9103 44.174 20.1003 41.634C19.7003 40.374 19.1303 38.6939 18.6603 37.3239C18.7003 36.5139 18.6803 35.7139 18.4903 35.1639C18.0903 34.0239 17.3503 30.924 17.3503 30.924L22.6803 34.154L26.8703 50.454Z" fill="#B5C3D7"/>
<path opacity="0.8" d="M26.8703 50.454L24.4003 71.404L20.5503 74.644C20.5503 74.644 19.7203 74.924 18.9503 74.824C18.1803 74.734 15.1903 74.704 13.4603 74.844C12.8103 74.894 12.3403 74.994 11.9803 75.054C12.5503 74.884 13.1503 74.574 14.0503 74.574C15.7603 74.574 17.9803 74.254 18.8103 73.144C19.6403 72.034 20.8903 71.624 21.9903 70.744C23.0903 69.864 23.8903 68.114 23.2903 66.304C22.6903 64.504 24.2603 60.944 24.0303 59.324C23.8003 57.704 24.6803 50.584 23.8003 48.874C22.9203 47.164 23.9403 46.424 23.2903 44.764C22.6403 43.094 22.5003 43.334 21.8603 41.714C21.2103 40.104 21.4003 39.774 20.6503 38.244C19.9003 36.724 19.7803 34.824 19.7803 34.824L25.0703 43.474L26.8603 50.444L26.8703 50.454Z" fill="#99A7D1"/>
<path d="M73.8903 61.8139C73.4603 65.6039 72.6303 67.6939 71.8003 68.6539C71.3303 69.1939 70.5103 70.5539 69.2803 71.8539C68.3303 72.8539 67.1503 73.7939 65.7003 74.2939C65.1003 74.4939 63.8003 74.7039 62.0503 74.8939C54.0603 75.7639 36.8403 76.3939 35.9303 75.7039C35.1803 75.1439 35.5003 74.0139 36.2303 73.3039C36.4803 73.0539 36.7803 72.8639 37.1103 72.7639C37.2403 72.7239 37.3903 72.6939 37.5303 72.6839C39.0103 72.5939 42.3703 72.7139 42.3703 72.7139C42.3703 72.7139 40.7803 71.7439 39.9903 70.1439C39.7703 69.6939 39.6103 69.1839 39.5703 68.6439C39.5203 68.7439 39.1403 69.4839 38.6103 70.1539C38.2303 70.6339 37.7703 71.0739 37.3103 71.1939C36.1703 71.5039 33.2103 73.3839 32.2603 74.8339C31.6403 75.7839 29.6003 75.3439 27.4103 75.0539C26.2503 74.9039 25.0403 74.7939 23.9803 74.9539C20.9303 75.4139 20.2503 75.3539 20.1303 74.3639C20.1003 74.1039 20.1803 73.8139 20.3403 73.5139C20.7903 72.6539 21.8203 71.6939 22.3503 71.0639C24.3503 68.6639 23.6103 67.4439 24.2603 63.7339C24.8803 60.1939 25.0903 46.9039 24.6003 45.9239C24.4603 45.6339 23.8103 45.2239 23.1803 43.9639C23.1403 43.8839 23.1003 43.8039 23.0603 43.7139C22.8203 43.2039 22.8203 42.0439 22.5503 41.4539C21.0603 38.2739 19.0103 34.0939 17.2203 31.2439C14.9803 27.6839 14.6803 27.0039 12.7303 25.0339C12.3903 24.6839 11.9903 24.2939 11.5303 23.8539C9.05033 21.4439 7.58033 20.5939 6.97033 19.3439C6.82033 19.0339 6.72033 18.7039 6.67033 18.3239C6.62033 17.9039 6.39033 17.4939 6.06033 17.0939C4.86033 15.6539 2.28033 14.4339 1.68033 13.9439C1.64033 13.9139 1.60033 13.8739 1.56033 13.8439C0.650332 13.0339 1.19033 12.3639 1.19033 12.3639L1.14033 12.3339C0.870332 12.2039 -0.0196683 11.4339 0.000331729 9.21395C0.0203317 6.67395 1.04033 6.27395 2.54033 6.37395C2.58033 6.37395 2.61033 6.37395 2.66033 6.37395C3.78033 6.41395 6.98033 6.13395 9.05033 5.93395C10.1403 5.82395 11.0203 2.55395 17.2703 2.14395C18.2403 2.07395 19.6303 2.26395 21.1403 2.55395C24.5303 3.20395 28.5303 4.37395 29.6803 4.40395C29.9403 4.40395 30.2403 4.36395 30.5903 4.30395C32.4703 3.95395 35.3903 2.97395 36.6003 6.58395C38.1903 11.3339 37.0203 12.3839 34.2203 12.8239C34.2203 12.8239 34.2203 12.8239 34.2103 12.8239C34.1003 12.8339 33.9903 12.8539 33.8803 12.8739C33.9103 12.9539 34.3003 13.7139 35.4403 14.6939C36.0503 15.2239 36.8703 15.8039 37.9703 16.3739C38.2403 16.5139 38.5003 16.6639 38.7503 16.8239C41.5303 18.5839 43.1703 21.3539 44.8103 22.3139C46.6003 23.3639 51.3503 26.3139 54.2403 30.1739C57.1403 34.0239 67.1503 43.8939 69.0603 45.2139C70.9703 46.5339 71.3103 49.5639 71.7703 51.7439C72.2303 53.9339 74.3303 58.0339 73.9003 61.8239L73.8903 61.8139Z" fill="#F2F7FF"/>
<path opacity="0.17" d="M43.2903 47.224C42.9003 48.034 42.7603 50.894 42.7603 51.844C42.7603 52.794 42.1203 53.254 41.8803 53.624C41.6403 53.994 42.1603 54.844 42.2303 55.314C42.3003 55.774 41.5803 56.514 41.4903 57.004C41.4003 57.494 41.5103 60.164 41.5103 60.164C41.6403 60.504 41.6403 61.804 41.3403 62.904C41.1803 63.474 40.9203 63.994 40.5903 64.284C39.6103 65.124 39.5703 68.664 39.5703 68.664C39.5203 68.764 39.1403 69.504 38.6103 70.174C38.2303 70.654 37.7703 71.094 37.3103 71.214C36.1703 71.524 33.2103 73.404 32.2603 74.854C31.6403 75.804 29.6003 75.364 27.4103 75.074C26.2503 74.924 25.0403 74.814 23.9803 74.974C20.9303 75.434 20.2503 75.374 20.1303 74.384C20.1003 74.124 20.1803 73.834 20.3403 73.534C21.0803 73.694 22.4203 73.014 22.9103 73.034C23.5603 73.064 23.6003 72.774 25.8203 71.944C28.0403 71.114 28.3603 71.574 28.9603 70.654C29.5603 69.734 31.5503 67.144 32.6103 64.324C33.6703 61.504 33.5803 63.354 34.3703 62.474C35.1603 61.594 35.0603 60.954 34.7903 58.914C34.5103 56.884 35.6703 55.684 36.7003 56.514C37.7403 57.344 37.5603 55.214 38.3503 53.644C39.1403 52.074 38.3003 51.794 38.8103 50.544C39.3203 49.294 39.5003 50.264 40.4603 48.944C41.4203 47.624 41.1303 47.304 41.2703 46.774C41.4103 46.244 42.7703 45.934 42.7703 45.934C42.7703 45.934 43.7203 46.404 43.3303 47.214L43.2903 47.224Z" fill="#B5C3D7"/>
<path d="M9.40033 10.104C9.42033 11.074 8.47033 11.934 8.47033 11.934C8.47033 11.934 8.45033 12.694 8.52033 13.344C8.59033 13.994 7.73033 14.754 7.73033 14.754L7.31033 15.614L6.94033 16.584L6.02033 16.954C6.02033 16.954 6.02033 17.024 6.02033 17.124C4.82033 15.684 2.24033 14.464 1.64033 13.974C1.60033 13.944 1.56033 13.904 1.52033 13.874C0.610332 13.064 1.15033 12.394 1.15033 12.394L1.10033 12.364C0.870332 12.204 -0.0196682 11.434 0.000331784 9.21396C0.0203318 6.67396 1.04033 6.27396 2.54033 6.37396C3.54033 6.43396 6.90033 6.14396 9.04033 5.93396C9.48033 6.27396 9.86033 6.80396 9.69033 7.06396C9.44033 7.44396 9.69033 7.33396 9.74033 7.89396C9.79033 8.44396 9.07033 9.09396 9.07033 9.09396C9.07033 9.09396 9.37033 9.13396 9.40033 10.104Z" fill="#F2F7FF"/>
<g style="mix-blend-mode:soft-light" opacity="0.97">
<path d="M21.1303 2.55395C18.2003 2.20395 16.3403 2.47395 14.2703 2.98395C12.1003 3.51395 10.9303 5.55395 9.85034 6.44395C8.76034 7.33395 6.99034 8.11395 5.97034 7.89395C4.95034 7.67395 2.60034 7.27395 2.60034 7.27395L2.67034 6.37395C3.79034 6.41395 6.99034 6.13395 9.06034 5.93395C10.1503 5.82395 11.0303 2.55395 17.2803 2.14395C18.2503 2.07395 19.6403 2.26395 21.1503 2.55395H21.1303Z" fill="#F5F8FA"/>
</g>
<path opacity="0.23" d="M35.4203 14.6839C35.1803 14.8639 34.8603 15.0139 34.4603 15.0239C33.2903 15.0539 33.2303 15.4939 33.1603 15.9839C33.1003 16.4739 31.0103 15.9539 29.9603 16.5039C28.9103 17.0539 28.9803 17.6739 28.7003 18.6039C28.4203 19.5239 26.7603 18.8139 26.0503 19.7739C25.3403 20.7339 25.6203 21.1639 24.9103 21.9339C24.2003 22.7039 21.9803 21.7139 20.8703 22.4839C19.7603 23.2539 17.3403 19.9539 15.7503 20.3239C14.1503 20.6939 13.4303 21.1239 13.1603 19.9539C12.8903 18.7839 12.3103 18.8439 12.1803 18.1939C12.1203 17.8739 13.0903 17.6439 13.8503 17.3039C14.6103 16.9639 14.0903 16.0439 16.0303 16.8739C17.7703 17.6139 17.2603 17.8339 18.6503 18.6039C20.0403 19.3739 21.0203 19.2839 21.5103 18.6039C22.0103 17.9239 21.9703 18.0539 23.3903 17.8939C24.8103 17.7339 25.3003 17.6239 25.3903 16.6539C25.4803 15.6739 26.8103 15.9539 27.6703 15.6439C28.5303 15.3339 28.2903 13.5739 29.3603 14.0439C30.4403 14.5039 31.6103 15.3439 32.3203 14.7539C33.0303 14.1639 32.3803 13.6239 32.6903 13.1439C33.0003 12.6639 33.8503 12.8839 33.8503 12.8839C33.8803 12.9639 34.2703 13.7239 35.4103 14.7039L35.4203 14.6839Z" fill="#B5C3D7"/>
<path opacity="0.23" d="M34.1803 18.194C33.6603 20.384 33.1603 23.894 33.0403 25.464C32.9203 27.034 31.8703 28.324 29.9003 29.904C27.9303 31.474 23.8603 35.294 24.6903 37.394C25.5203 39.494 26.2003 40.934 25.5203 41.154C24.8403 41.374 24.6903 40.844 24.5603 41.834C24.4403 42.814 24.5303 42.694 24.5003 43.654C24.4703 44.614 24.1903 44.794 24.5603 45.954C24.4203 45.664 23.7703 45.254 23.1403 43.994C23.1003 43.914 23.0603 43.834 23.0203 43.744C22.7803 43.234 22.7803 42.074 22.5103 41.484C21.0203 38.304 18.9703 34.124 17.1803 31.274C14.9403 27.714 14.6403 27.034 12.6903 25.064C12.3503 24.714 11.9503 24.324 11.4903 23.884C9.01033 21.474 7.54033 20.624 6.93033 19.374C7.09033 19.464 7.28033 19.484 7.44033 19.274C7.78033 18.814 7.97033 18.014 8.42033 18.624C8.88033 19.244 9.87033 21.334 10.3903 20.844C10.9203 20.354 11.0403 19.674 11.5003 20.314C11.9603 20.964 13.0703 22.044 13.3503 21.644C13.6303 21.244 13.7403 21.184 14.2703 21.984C14.8003 22.784 14.8603 23.524 15.4503 23.004C16.0303 22.474 15.8503 22.074 16.5303 22.754C17.2103 23.434 17.7303 23.804 17.9503 23.334C18.1703 22.874 17.4603 21.764 18.3203 22.904C19.1903 24.044 19.3403 24.234 19.4903 24.294C19.6403 24.354 21.0303 22.944 21.5503 23.464C22.0803 23.994 22.8403 24.234 23.0903 23.864C23.3403 23.494 22.9103 22.414 24.2603 22.784C25.6103 23.154 26.6303 22.504 26.6603 21.824C26.6903 21.144 25.9203 20.474 27.1203 20.864C28.3203 21.264 29.2303 20.684 29.0103 20.184C28.7903 19.684 28.8103 18.684 29.7703 18.384C30.7303 18.084 30.9103 18.304 30.9403 17.684C30.9703 17.064 32.5403 16.914 32.5403 16.914C32.5403 16.914 33.9103 16.574 33.9203 16.084C33.9203 15.594 34.7003 15.994 34.1703 18.184L34.1803 18.194Z" fill="#B5C3D7"/>
<path opacity="0.23" d="M67.3703 69.364C67.6503 70.844 68.0203 71.124 66.4903 72.234C64.9603 73.344 63.5803 73.714 63.5803 74.494C63.5803 74.594 63.0803 74.724 62.2203 74.874C62.2003 74.874 62.1903 74.874 62.1703 74.874C62.1503 74.874 62.1303 74.874 62.1003 74.884H62.0303C54.0403 75.764 36.8203 76.394 35.9103 75.714C35.6403 75.514 35.5103 75.224 35.4903 74.924C35.4503 74.384 35.7503 73.764 36.2203 73.324C36.4703 73.074 36.7703 72.884 37.1003 72.784C37.2303 72.744 37.3803 72.714 37.5203 72.704C39.0003 72.614 42.3603 72.734 42.3603 72.734C42.3603 72.734 40.7703 71.764 39.9803 70.164C39.7603 69.714 39.6003 69.204 39.5603 68.664C39.5603 68.664 39.3203 67.004 39.9503 65.344C40.1903 64.684 41.3903 63.014 41.3903 63.014C41.3903 63.014 41.6803 64.844 43.7103 64.384C45.7403 63.924 46.0203 64.244 46.7203 65.124C47.4103 66.004 46.7203 66.514 48.7103 66.374C50.7003 66.234 50.3703 65.034 51.5303 66.234C52.6903 67.434 52.1303 68.364 54.4403 68.314C56.7503 68.264 57.8103 67.064 58.8303 67.614C59.8403 68.174 60.4003 68.174 61.5103 67.574C62.6203 66.974 62.9903 64.984 63.8203 64.984C64.6503 64.984 64.8803 64.524 65.6203 62.994C66.3603 61.464 66.0403 60.124 66.9203 60.494C67.8003 60.864 68.4003 61.604 67.5603 62.994C66.7303 64.384 65.9903 64.844 65.8003 65.904C65.6103 66.964 67.1003 67.894 67.3703 69.374V69.364Z" fill="#B5C3D7"/>
<path d="M31.0103 22.784C31.0403 23.374 31.1903 24.694 30.7003 25.144C30.2003 25.594 30.2403 25.774 28.9703 26.364C27.7103 26.954 27.2803 27.934 26.2603 28.804C25.2403 29.664 23.9503 29.544 24.1203 30.194C24.2903 30.834 24.6303 30.904 23.9803 31.614C23.3403 32.324 22.9303 32.474 23.1503 33.284C23.3703 34.084 22.8703 35.414 22.8703 35.414C22.8703 35.414 21.9803 36.244 22.3803 37.084C22.7803 37.914 22.8703 40.224 23.3003 41.054C23.7303 41.884 23.7003 41.644 23.5803 42.724C23.4903 43.484 23.2103 43.604 23.1403 44.024C23.1003 43.944 23.0603 43.864 23.0203 43.774C22.7803 43.264 22.7803 42.104 22.5103 41.514C21.0203 38.334 18.9703 34.154 17.1803 31.304C14.9403 27.744 14.6403 27.064 12.6903 25.094C13.2503 25.264 13.8203 25.304 14.1903 25.164C14.8103 24.914 15.6703 26.144 16.9303 26.794C18.1903 27.444 20.2003 27.474 20.2003 27.474C20.2003 27.474 20.8203 26.924 21.5603 27.594C22.3003 28.274 23.0703 28.984 24.2703 28.024C25.4703 27.074 26.5803 25.744 27.0703 25.874C27.5603 25.994 30.4303 25.194 30.4303 24.274C30.4303 23.354 30.9803 22.174 31.2903 21.874C31.6003 21.564 30.9803 22.244 31.0103 22.834V22.784Z" fill="#C3CDE7"/>
<path opacity="0.8" d="M40.7803 64.3539C39.7903 65.4439 39.4503 67.2039 39.5603 68.6539C39.5603 68.6539 39.5603 68.6539 39.5503 68.6839C39.5503 68.7039 39.5303 68.7239 39.5103 68.7539C39.5103 68.7639 39.5003 68.7739 39.4903 68.7939C39.2303 69.2839 38.2703 70.9539 37.2903 71.2139C36.1503 71.5239 33.1903 73.4039 32.2403 74.8539C31.6203 75.8039 29.5803 75.3639 27.3903 75.0739C28.2003 74.9739 28.9303 74.8339 29.2203 74.6239C29.9803 74.0939 30.2603 75.3839 31.0903 74.5039C31.9203 73.6239 31.3203 73.6939 32.2003 73.3739C33.0803 73.0439 32.9903 72.5839 33.8903 72.0039C34.7903 71.4239 35.3003 71.5839 35.7203 71.1039C36.1303 70.6139 36.2303 69.8539 36.7103 69.8339C37.2003 69.8139 37.5603 69.8539 37.8203 69.3739C38.0803 68.8839 38.0503 68.7939 38.3303 68.5639C38.6103 68.3339 38.8403 68.9139 39.0203 67.8239C39.2003 66.7339 39.6203 66.1139 39.6503 65.1839C39.6703 64.3939 40.9203 63.8039 41.3403 62.8839C41.4103 62.7339 41.4703 62.4139 41.4703 62.4139C41.4703 62.4139 41.5303 62.6739 41.4303 63.0139C41.3003 63.4939 40.9803 64.1239 40.7803 64.3439V64.3539Z" fill="#99A7D1"/>
<path opacity="0.17" d="M44.1603 36.664C44.1603 36.664 44.6103 34.524 44.5403 33.964C44.4703 33.404 46.1103 31.634 46.5503 33.014C46.9903 34.394 47.2403 34.264 48.0103 34.934C48.7803 35.604 49.2103 36.874 49.2103 36.874C49.2103 36.874 52.4903 36.184 52.6103 37.404C52.7303 38.624 53.5803 39.274 54.1803 39.624C54.7803 39.974 55.6103 40.344 55.3803 41.104C55.1503 41.864 54.9203 42.374 55.6603 42.974C56.4003 43.574 56.9503 43.944 57.0203 44.734C57.0903 45.524 56.9003 45.704 57.1403 46.444C57.3803 47.184 58.6203 48.404 57.4203 48.484C57.4203 48.484 55.1103 46.884 54.3703 46.724C53.6303 46.564 51.1603 45.844 50.1903 45.844C49.2203 45.844 46.6803 45.894 46.4703 45.944C46.2603 45.994 45.2203 42.524 45.2203 41.784C45.2203 41.044 45.5903 38.594 45.5903 38.594C45.5903 38.594 45.2503 38.594 44.7903 37.964C44.5903 37.684 44.4103 37.134 44.1703 36.664H44.1603Z" fill="#B5C3D7"/>
<path d="M57.4103 48.494C57.4103 48.494 53.9803 47.124 52.7003 46.604C51.1303 45.954 47.3403 47.204 46.0903 47.944C44.8403 48.684 42.9403 51.554 43.0403 52.244C43.1303 52.944 42.2103 53.014 42.1303 53.484C42.0503 53.954 42.2503 54.284 42.3403 54.974C42.4303 55.674 41.6403 56.504 41.6403 57.054C41.6403 57.604 41.5503 59.224 41.7803 60.064C42.0103 60.894 41.8803 61.804 41.6903 62.324C41.6203 62.504 41.3203 62.914 41.3203 62.914C41.3203 62.914 41.3303 62.054 41.2803 61.484C41.2003 60.624 41.4303 57.544 41.3003 56.744C41.1803 55.944 41.6103 56.004 41.8603 55.444C42.1103 54.894 41.8003 54.644 41.6803 53.904C41.5603 53.164 42.1103 53.284 42.4303 52.734C42.7503 52.184 41.8703 51.684 41.7503 51.134C41.6303 50.574 42.4903 50.454 42.6003 49.594C42.7103 48.734 42.1803 48.424 42.6003 48.544C43.0203 48.664 43.0503 48.114 42.7403 47.434C42.4303 46.754 42.7403 45.954 42.7403 45.954C42.7403 45.954 43.5403 45.704 43.7203 44.724C43.9003 43.744 43.1703 42.934 43.1703 42.934C43.1703 42.934 43.9703 42.814 44.3203 42.074C44.6703 41.334 43.7903 40.104 43.7903 40.104C43.7903 40.104 44.4103 40.284 44.7803 39.484C45.0903 38.804 44.4003 37.174 44.1703 36.674C45.3503 39.094 45.5803 37.834 46.1503 38.144C46.9303 38.564 45.9003 39.354 47.0303 39.524C48.1603 39.704 46.0803 41.634 46.7803 42.194C47.4703 42.744 48.8403 41.514 47.9603 43.274C47.0803 45.034 48.1903 44.104 48.9303 43.554C49.6703 43.004 49.6703 43.184 51.2003 44.004C52.7203 44.814 50.8303 45.084 51.5703 45.644C52.3103 46.194 54.5803 45.824 55.5503 46.524C56.5203 47.224 57.4403 48.514 57.4403 48.514L57.4103 48.494Z" fill="#CAD2EB"/>
<path d="M62.1103 74.884H62.0403C54.0503 75.764 36.8303 76.394 35.9203 75.714C35.6503 75.514 35.5203 75.224 35.5003 74.924C35.6503 75.034 35.8403 75.124 36.1003 75.144C36.9303 75.224 37.4003 74.664 37.9203 75.144C38.4503 75.624 38.6603 75.564 39.8603 75.564C41.0603 75.564 41.4603 75.444 42.8203 75.624C44.1703 75.804 45.1603 75.394 46.4203 75.424C47.6803 75.464 47.9003 75.494 49.1603 75.494C50.4203 75.494 53.0703 75.154 54.0003 75.064C54.9203 74.974 56.6503 74.724 57.5703 74.724C58.4903 74.724 61.2103 75.014 62.1003 74.884H62.1103Z" fill="#BEC8E3"/>
<path d="M0.14035 7.89379C0.14035 7.89379 0.58035 8.19379 1.23035 8.03379C1.88035 7.87379 2.02035 7.30379 2.00035 7.28379C1.98035 7.26379 1.04035 7.28379 1.04035 7.28379L0.14035 7.89379Z" fill="black"/>
<path d="M2.99035 6.51385C2.99035 6.86385 2.89035 7.80385 1.58035 8.02385C0.790347 8.16385 1.56035 7.80385 1.58035 7.58385C1.59035 7.43385 0.640347 7.92385 0.140347 7.89385C0.140347 7.89385 -0.109653 6.96385 0.140347 6.51385C0.170347 6.46385 0.210347 6.41385 0.260347 6.37385C0.620347 6.08385 1.15035 6.04385 1.64035 6.08385C2.35035 6.13385 2.99035 6.37385 2.99035 6.37385C2.99035 6.37385 2.99035 6.42385 3.00035 6.50385L2.99035 6.51385Z" fill="#182D3B"/>
<path opacity="0.23" d="M2.99036 6.51385C2.86036 6.54385 2.85036 6.61385 2.34036 6.92385C1.74036 7.28385 0.940361 6.87385 0.630361 6.69385C0.450361 6.59385 0.260361 6.54385 0.120361 6.51385C0.150361 6.46385 0.190361 6.41385 0.240361 6.37385C0.600361 6.08385 1.13036 6.04385 1.62036 6.08385C2.33036 6.13385 2.97036 6.37385 2.97036 6.37385C2.97036 6.37385 2.97036 6.42385 2.98036 6.50385L2.99036 6.51385Z" fill="#B7D5E8"/>
<path opacity="0.47" d="M1.14035 6.46391C1.23035 6.50391 1.35035 6.55391 1.32035 6.70391C1.29035 6.85391 1.01035 6.65391 1.01035 6.53391C1.01035 6.41391 1.01035 6.41391 1.14035 6.46391Z" fill="#B7D5E8"/>
<path opacity="0.47" d="M1.47035 6.68385C1.47035 6.68385 1.57035 6.70385 1.53035 6.79385C1.49035 6.88385 1.36035 6.82385 1.39035 6.74385C1.42035 6.66385 1.42035 6.66385 1.48035 6.67385L1.47035 6.68385Z" fill="#B7D5E8"/>
<path d="M12.6803 6.52394C12.6803 6.52394 13.0403 5.69394 13.8903 5.62394C14.5503 5.56394 15.4003 5.93394 15.6703 6.77394C15.8303 7.27394 15.7303 7.38394 15.4903 7.57394C15.2503 7.76394 14.2503 8.01394 13.7203 7.84394C13.1903 7.67394 12.6703 7.26394 12.6903 6.53394L12.6803 6.52394Z" fill="#443D53"/>
<path d="M14.3603 7.67397C14.5903 7.61397 15.0303 7.47397 15.1103 7.27397C15.2103 7.01397 15.1503 6.72397 14.9903 6.45397C14.7103 5.99397 13.8103 5.74397 13.3503 6.00397C13.1003 6.14397 12.8203 6.34397 12.7703 6.60397C12.7303 6.82397 12.8903 7.10397 13.0303 7.30397C13.2603 7.64397 13.8503 7.79397 14.3603 7.66397V7.67397Z" fill="#180F2B"/>
<path d="M14.6703 7.474C14.4903 7.574 14.2203 7.654 13.9403 7.644C13.6303 7.644 13.3203 7.544 13.1003 7.274C12.5003 6.544 13.0303 6.244 13.4503 6.104C13.7803 5.994 14.0403 6.014 14.2803 6.134C14.4003 6.194 14.5103 6.274 14.6303 6.374C14.9603 6.644 15.0503 7.244 14.6803 7.464L14.6703 7.474Z" fill="white"/>
<path d="M14.0903 7.574C14.0403 7.604 13.9803 7.624 13.9303 7.644C13.6203 7.644 13.3103 7.544 13.0903 7.274C12.4903 6.544 13.0203 6.244 13.4403 6.104C13.7703 5.994 14.0303 6.014 14.2703 6.134C14.3303 6.184 14.3803 6.254 14.4203 6.314C14.6803 6.744 14.5403 7.304 14.1003 7.564L14.0903 7.574Z" fill="#211933"/>
<path d="M14.0742 6.84977C14.1037 6.60299 13.9231 6.37852 13.6708 6.3484C13.4185 6.31827 13.1902 6.4939 13.1607 6.74068C13.1312 6.98745 13.3118 7.21192 13.5641 7.24205C13.8163 7.27217 14.0447 7.09654 14.0742 6.84977Z" fill="#180F2B"/>
<path d="M13.8503 6.78395C13.9203 6.52395 14.4703 6.48395 14.6103 6.65395C14.7503 6.82395 14.6403 7.16395 14.5703 7.20395C14.5003 7.24395 13.7803 7.04395 13.8503 6.78395Z" fill="white"/>
<path d="M3.27034 13.1839C3.27034 13.1839 2.08034 13.1939 1.82034 13.0439C1.56034 12.8839 1.59034 13.2139 1.76034 13.3939C1.93034 13.5739 1.60034 13.6839 1.51034 13.3739C1.42034 13.0639 1.14034 13.3639 1.51034 13.8639C0.600343 13.0639 1.14034 12.3939 1.14034 12.3939C1.14034 12.3939 1.99034 13.0139 3.27034 13.1839Z" fill="#CAD9E4"/>
<path d="M36.2303 73.3139C36.4803 73.0639 36.7803 72.8739 37.1103 72.7739L36.2303 73.3139Z" fill="#C8D8E3"/>
<path d="M33.9103 9.79391C33.9103 9.79391 33.7603 9.93391 33.6003 10.1439C33.5003 10.2739 33.7603 10.2339 33.8203 10.2239C33.7603 10.2339 33.5603 10.3039 33.5303 10.3839C33.5103 10.4439 33.6503 10.5039 33.6503 10.5039C33.6503 10.5039 33.3503 10.4439 33.3203 10.4939C33.2703 10.5639 33.4603 10.5739 33.4603 10.5739C33.4603 10.5739 32.8003 10.6139 32.9203 10.7139C33.0703 10.8439 32.5403 10.9739 31.9903 10.4939C31.8303 10.3539 31.6703 10.1639 31.5303 9.91391C31.2403 9.39391 30.6203 9.48391 30.4303 9.07391C30.2503 8.65391 30.1103 8.26391 29.0103 7.63391C29.1003 7.66391 30.1703 7.97391 31.0203 8.16391C31.4503 8.26391 31.8303 8.33391 31.9903 8.31391C32.3103 8.28391 32.3003 8.06391 32.2903 7.99391C32.3303 8.09391 32.4903 8.53391 32.6503 8.55391C32.8103 8.57391 32.7803 8.34391 32.7603 8.27391C32.7903 8.36391 32.9003 8.72391 33.0503 8.77391C33.2203 8.84391 33.1803 8.51391 33.1803 8.51391C33.1803 8.51391 33.2903 8.76391 33.3003 9.07391C33.3003 9.29391 33.5803 9.02391 33.5803 9.02391C33.5803 9.02391 33.6003 9.24391 33.4103 9.57391C33.3203 9.73391 33.7503 9.47391 33.7503 9.47391C33.7503 9.47391 33.6903 9.66391 33.5603 9.92391C33.4703 10.1039 33.8203 9.85391 33.9103 9.79391Z" fill="#C2D4E0"/>
<path d="M32.6503 10.2839C32.3003 10.4239 32.2403 10.4139 31.9903 10.5139C31.8303 10.3739 31.6703 10.1839 31.5303 9.93393C31.2403 9.41393 30.6203 9.50393 30.4303 9.09393C30.2503 8.67393 30.1103 8.28393 29.0103 7.65393C29.1003 7.68393 30.1703 7.99393 31.0203 8.18393C31.2503 8.34393 31.4503 8.51393 31.4003 8.59393C31.2803 8.76393 31.6903 9.01393 31.8403 9.05393C31.9903 9.10393 32.2103 9.15393 32.2103 9.44393C32.2103 9.73393 31.9803 9.64393 32.3203 9.88393C32.6503 10.1239 33.0703 10.1339 32.6503 10.3039V10.2839Z" fill="#B2C9D8"/>
<g style="mix-blend-mode:soft-light" opacity="0.97">
<path d="M34.2003 12.8139C34.2803 12.7739 34.6903 12.4939 34.6403 12.2939C34.5903 12.0839 35.2403 12.1539 35.5203 11.8539C35.8003 11.5539 35.9403 10.8839 36.1403 10.6339C36.3503 10.3839 36.2803 10.0839 35.9603 9.5239C35.6403 8.9739 35.5903 9.1039 35.6403 8.6739C35.6803 8.2339 35.6603 7.8839 35.3803 7.4939C35.1003 7.1039 34.4803 7.1439 34.1603 6.5539C33.8403 5.9639 33.6503 6.0839 32.5203 5.8439C31.3903 5.6139 31.4103 5.7339 31.4103 5.7339L30.4603 5.6139C30.4603 5.6139 29.0203 5.4139 29.0203 5.0539C29.0203 4.4639 29.8203 4.8039 30.5103 4.3439C30.5303 4.3339 30.5603 4.3139 30.5803 4.2939C32.4603 3.9439 35.3803 2.9639 36.5903 6.5739C38.1803 11.3239 37.0103 12.3739 34.2103 12.8139H34.2003Z" fill="#F5F8FA"/>
</g>
</svg>
