<svg width="59" height="56" viewBox="0 0 59 56" fill="none" xmlns="http://www.w3.org/2000/svg">
<path d="M26.3984 44.949C26.3508 44.8822 26.3078 44.806 26.2506 44.744C26.1791 44.6629 26.0932 44.6009 25.9978 44.558C25.9835 44.5484 25.9692 44.5389 25.9502 44.5293C25.9788 44.2766 25.9549 44.0143 25.912 43.752C25.912 43.6566 25.912 43.566 25.912 43.4706C25.9645 43.2847 25.9692 43.0796 25.9549 42.8602C25.9168 42.3976 25.8643 41.9303 25.7928 41.4677C25.6545 40.5902 25.4303 39.6984 25.0011 38.9163C24.982 38.8829 24.9582 38.8447 24.9344 38.8113C24.9725 38.7732 25.0107 38.7398 25.044 38.6921C25.292 38.282 25.1967 37.6906 25.1776 37.2328C25.1347 36.2218 25.0297 35.2108 24.8438 34.2188C24.7484 33.699 24.6292 33.184 24.4861 32.6785C24.3669 32.2492 24.2762 31.7628 24.0187 31.3908C23.7803 31.0475 23.394 30.8519 22.9839 30.9759C22.6166 31.0856 22.3687 31.4051 22.4116 31.7914C22.3925 31.8677 22.3734 31.944 22.3591 32.0203C22.2733 32.4591 22.2304 32.9026 22.2256 33.3509C22.2256 33.451 22.2304 33.5464 22.2351 33.6465C22.216 33.8898 22.2065 34.1378 22.2017 34.381C22.1922 35.2537 22.3019 36.1932 22.6405 37.0134C22.65 37.0468 22.6596 37.0802 22.6691 37.1136C22.8456 37.6096 23.1412 38.2105 23.5371 38.6349C23.5323 38.7494 23.5371 38.8638 23.5609 38.983C23.4989 39.1022 23.4608 39.2358 23.4321 39.3598C23.3225 39.8558 23.4083 40.3756 23.5084 40.8668C23.661 41.6107 23.8947 42.3356 24.1999 43.0271C24.2667 43.2322 24.343 43.4277 24.4193 43.628C24.4432 43.7139 24.4622 43.8045 24.4861 43.8903C24.6053 44.3004 24.777 44.6676 25.0631 44.9776C25.0631 45.1255 25.1013 45.2733 25.1537 45.4116C25.2396 45.6405 25.3397 45.8599 25.4542 46.0745C25.4828 46.1317 25.5209 46.1842 25.5543 46.2366C25.5877 46.3129 25.6116 46.3892 25.6545 46.4608C25.8738 46.8709 26.16 47.2286 26.5129 47.5338C26.7466 47.7341 27.1758 47.5672 27.1901 47.2524C27.2282 46.4131 26.9421 45.5785 26.3937 44.949H26.3984Z" fill="#261E06"/>
<path d="M20.4037 40.7525C20.4133 40.7144 20.4228 40.6762 20.4228 40.6285C20.4228 40.6047 20.4228 40.5761 20.4228 40.5522C20.4562 40.3281 20.461 40.0992 20.4467 39.8703C20.418 39.4124 20.3751 38.9498 20.3227 38.492C20.2559 37.9197 20.2225 37.2664 20.0079 36.7037C19.9984 36.6274 19.9936 36.5463 19.9841 36.47C19.9411 36.1838 19.8744 35.9072 19.7027 35.6735C19.841 35.6735 19.9793 35.6449 20.0985 35.5448C20.3703 35.3159 20.3894 34.8533 20.4467 34.5242C20.5134 34.1379 20.5659 33.7517 20.604 33.3606C20.6899 32.4879 20.709 31.6104 20.6565 30.7377C20.6279 30.2894 20.0556 30.2512 19.8696 30.5612C19.841 30.5612 19.8076 30.566 19.7838 30.5803C19.7408 30.5994 19.717 30.6328 19.6788 30.6566C19.5882 30.6566 19.5024 30.6661 19.4356 30.7233C18.8681 31.2193 18.7537 32.0873 18.6392 32.7979C18.5534 33.3415 18.5057 33.9567 18.7441 34.467C18.8109 34.7961 18.892 35.1442 19.1161 35.4065C19.1447 35.4399 19.1829 35.4637 19.221 35.4923C19.1447 35.5114 19.0732 35.5543 19.016 35.6163C18.9301 35.6688 18.8586 35.7499 18.8395 35.8739C18.7966 36.1505 18.768 36.4271 18.7537 36.7084C18.6726 37.357 18.6583 38.0199 18.725 38.6685C18.7775 39.1406 18.8681 39.6127 18.9969 40.0706C19.097 40.4282 19.2258 40.805 19.4976 41.072C19.4976 41.1293 19.4976 41.1865 19.5072 41.239C19.407 41.6109 19.4166 41.9877 19.5406 42.3644C19.6693 42.765 19.903 43.1227 20.1319 43.4661C20.2416 43.6282 20.8616 44.0383 21.0428 44.2196C21.2908 44.4628 21.8058 44.2339 21.7438 43.8714C21.5578 42.7412 21.1 41.6682 20.4037 40.7573V40.7525Z" fill="#261E06"/>
<path d="M31.7968 47.5333C31.3867 47.0278 31.0386 46.3697 30.9289 46.1313C30.4377 45.063 30.1897 43.9185 29.956 42.7739C29.956 42.7644 29.956 42.7548 29.956 42.7453C28.759 41.2765 27.8767 39.5596 27.438 37.7045C27.1852 36.6315 27.066 35.5203 27.1089 34.4187C27.1232 34.0228 27.1423 33.4506 27.6526 33.3981C27.6526 33.3981 27.6526 33.3981 27.6574 33.3981C27.8529 33.3027 28.139 33.3457 28.2392 33.5746C28.5873 34.3471 28.9211 35.1245 29.2454 35.9018C29.9942 36.9939 30.4377 38.2243 30.7429 39.5072C30.8717 39.7981 30.9909 40.0938 31.1006 40.3942C31.1959 40.6565 31.2579 40.9474 31.2341 41.2097C31.2389 41.2288 31.2484 41.2431 31.2532 41.2622C31.2723 41.3289 31.2913 41.4005 31.3056 41.4672C31.3485 41.5864 31.3915 41.7104 31.4296 41.8344C31.6156 42.421 31.9256 43.1268 31.7444 43.7182C31.9876 44.1569 32.2117 44.61 32.412 45.0726C32.4502 45.1632 32.4883 45.2586 32.5265 45.3492C32.6839 45.6592 32.8317 45.9691 32.9557 46.2982C33.1083 46.6988 33.2609 47.128 33.2657 47.5524C34.1003 48.0007 34.7107 48.7828 35.1828 49.6174C35.2973 49.7748 35.426 49.9226 35.5309 50.0848C35.6979 50.3327 35.8218 50.5998 35.8028 50.8859C35.8934 51.1816 35.8934 51.5965 35.6216 51.7587C35.3497 51.9208 35.0159 51.7873 34.8013 51.5488C34.5676 51.2865 34.3578 50.9861 34.1575 50.6999C34.0192 50.5044 33.8952 50.3041 33.7712 50.1038C33.714 50.0275 33.652 49.9608 33.5947 49.8845C33.3325 49.5316 33.0845 49.1739 32.8508 48.8067C32.7745 48.6875 32.7077 48.573 32.6457 48.4585C32.5932 48.449 32.536 48.4347 32.474 48.4108C32.1402 48.2678 31.9637 47.9053 31.8111 47.5667C31.8064 47.5572 31.8016 47.5476 31.7968 47.5381V47.5333Z" fill="#261E06"/>
<path d="M27.8339 34.5188C27.8339 34.5188 27.8053 38.1528 29.8655 39.5978C31.9256 41.0428 36.79 43.4988 39.1936 44.5146C43.3521 46.2696 46.161 46.2982 49.4278 45.4684C49.4278 45.4684 52.4513 40.0318 49.714 35.8637C47.5393 32.5492 48.2785 30.6893 41.2251 27.6754C34.7775 24.9141 34.1098 25.7058 31.7397 27.3081C29.5841 28.7627 27.8291 34.5236 27.8291 34.5236L27.8339 34.5188Z" fill="#2E1D07"/>
<mask id="mask0_179_247383" style="mask-type:luminance" maskUnits="userSpaceOnUse" x="27" y="25" width="24" height="21">
<path d="M27.8339 34.5188C27.8339 34.5188 27.8053 38.1528 29.8655 39.5978C31.9256 41.0428 36.79 43.4988 39.1936 44.5146C43.3521 46.2696 46.161 46.2982 49.4278 45.4684C49.4278 45.4684 52.4513 40.0318 49.714 35.8637C47.5393 32.5492 48.2785 30.6893 41.2251 27.6754C34.7775 24.9141 34.1098 25.7058 31.7397 27.3081C29.5841 28.7627 27.8291 34.5236 27.8291 34.5236L27.8339 34.5188Z" fill="white"/>
</mask>
<g mask="url(#mask0_179_247383)">
<path d="M38.9551 28.019C39.0505 27.2559 39.0314 26.4929 38.7882 25.7775C38.7167 25.5677 38.5498 25.4819 38.3781 25.4628C38.3256 25.315 38.2827 25.1624 38.2207 25.0145C38.0252 24.5376 37.3384 24.6425 37.2669 25.0288C36.9045 24.447 36.027 24.3659 35.6645 24.8094C35.4452 24.5281 35.1829 24.2896 34.8586 24.1179C34.6297 23.9987 34.334 24.0607 34.2005 24.2896C34.0717 24.5042 34.1432 24.8285 34.3721 24.9477C34.83 25.1862 35.1352 25.6536 35.3212 26.1209C35.4356 26.4118 35.5167 26.717 35.5835 27.0223C35.531 29.4449 34.6964 31.7531 33.6329 33.942C33.1465 34.7098 32.6219 35.4443 32.1164 36.131C31.5823 36.8559 31.0196 37.5569 30.4473 38.2532C29.689 38.7587 28.8497 39.2356 27.9197 39.1974C27.2997 39.1736 27.2997 40.1369 27.9197 40.1608C28.2726 40.1751 28.6112 40.1226 28.945 40.0368C28.9164 40.0702 28.8878 40.1083 28.8592 40.1417C28.3012 40.795 27.748 41.4579 27.1376 42.0684C26.5939 42.612 25.8166 43.4705 24.9629 43.2368C24.3621 43.0746 24.1093 44.0046 24.7054 44.1667C24.9343 44.2287 25.1632 44.2478 25.3826 44.2335C25.1632 44.7199 25.2825 45.4019 25.9263 45.6403C27.2616 46.1363 28.3775 45.3065 29.2741 44.3145C30.6714 43.7899 31.8017 42.3593 32.6935 41.2576C33.2848 40.5232 33.8332 39.7602 34.3483 38.9733C37.3146 36.0976 39.351 32.0869 38.9694 28.0047L38.9551 28.019ZM28.4634 42.2782C28.3775 42.3831 28.2726 42.5166 28.1629 42.6597C27.8148 42.7742 27.6288 43.0269 27.5907 43.3226C27.2854 43.6278 26.9468 43.8424 26.6082 43.8138C27.5477 43.2368 28.3537 42.2019 28.9689 41.4865C29.2169 41.2004 29.4553 40.9095 29.7033 40.6234C29.3123 41.1909 28.9069 41.7488 28.4634 42.2782Z" fill="#FFC417"/>
<path d="M45.1261 28.095C45.1261 27.5704 44.4442 27.4941 44.2296 27.8566C44.1008 27.7707 43.9578 27.7182 43.8052 27.6992C43.7861 27.6229 43.7718 27.5418 43.7479 27.4655C43.5476 26.8217 42.9133 26.6881 42.4269 26.8837C42.1217 26.7692 41.6687 27.022 41.7545 27.4559C42.3745 30.6845 41.4207 33.8082 39.9566 36.6553C39.6895 37.0559 39.4177 37.447 39.1316 37.8332C37.4863 40.0508 35.6788 42.1539 33.8666 44.2475C33.8237 44.2761 33.7807 44.3047 33.7378 44.3334C33.1894 44.3906 32.8508 44.9104 32.8746 45.4016C32.722 45.5781 32.5694 45.7545 32.4168 45.9357C32.2308 45.9548 32.0544 46.0407 31.9065 46.1599C31.7921 46.2028 31.6872 46.2648 31.5632 46.2982C31.0624 46.446 31.1673 47.1232 31.5727 47.2281C31.6156 47.3473 31.6776 47.4666 31.7825 47.581L31.9876 47.7956C32.3262 48.1485 33.0177 48.1867 33.3515 47.7956C33.3802 47.7623 33.4088 47.7289 33.4374 47.6955C34.2958 47.7765 35.2544 46.4794 35.7646 45.95C36.2082 45.4922 36.6517 45.0296 37.0952 44.5718C37.3098 44.3763 37.5196 44.1664 37.7342 43.9614C39.122 43.1697 40.2427 42.0729 41.1679 40.8091C41.7306 40.2797 42.1646 39.5978 42.5461 38.9349C43.1661 37.8619 43.6573 36.7173 44.0388 35.5441C44.0579 35.4821 44.0722 35.4154 44.0913 35.3534C44.7828 33.7653 45.1691 32.0723 45.026 30.3555C45.0832 29.602 45.1261 28.8437 45.1261 28.0855V28.095Z" fill="#FFC417"/>
<path d="M49.8712 31.9346C49.6471 31.5578 49.1845 31.4052 48.7934 31.4863C48.7648 31.2955 48.7458 31.1048 48.7172 30.9092C48.5932 30.0699 48.3929 29.2496 47.8349 28.5915C47.5726 28.2815 46.9765 28.5247 47.0098 28.9349C47.0432 29.2925 47.1577 29.6073 47.2817 29.9316C47.1958 30.0508 47.1482 30.1986 47.2006 30.3369C47.3055 30.6231 47.4057 30.9092 47.5058 31.1954C47.5678 32.0967 47.5964 33.0028 47.5583 33.9042C47.2865 36.3363 46.1228 38.5873 44.8447 40.6618C44.5157 41.2007 44.1628 41.7253 43.8194 42.2499C43.1231 42.9318 42.3506 43.5423 41.5589 44.105C40.8245 44.6296 40.071 45.1351 39.2984 45.6072C38.5688 46.0555 37.7246 46.6993 36.8328 46.6802C36.3464 46.6707 36.2463 47.2525 36.5229 47.5148C36.3416 47.5816 36.1652 47.6579 35.984 47.7151C35.3974 47.9106 35.6501 48.8453 36.2415 48.645C37.7819 48.1252 39.2316 47.3956 40.5717 46.499C40.5383 46.5372 40.5097 46.5753 40.4811 46.6087C40.2617 46.7709 40.0376 46.9282 39.8087 47.0665C39.451 47.2763 39.327 47.6054 39.3509 47.9202C39.1744 48.1252 38.998 48.3303 38.8167 48.5354C38.0012 49.4653 39.3652 50.8388 40.1807 49.8993C40.2093 49.8659 40.2427 49.8278 40.2713 49.7944C41.1392 49.2984 41.7688 48.5211 42.3124 47.6817C42.5509 47.4433 42.7893 47.2096 43.023 46.9664C43.1422 46.8519 43.2424 46.7184 43.3568 46.6039C44.3774 45.922 45.2119 44.9443 45.9607 43.9905C46.8286 42.8841 47.5917 41.7062 48.2307 40.4567C49.5326 37.9196 50.3243 35.1632 50.5914 32.3209C50.6295 31.8964 50.1908 31.7724 49.8903 31.9298L49.8712 31.9346Z" fill="#FFC417"/>
</g>
<g opacity="0.71">
<path d="M24.5433 24.8809C24.5433 24.8809 34.8348 21.452 42.0121 16.3445C49.1894 11.2369 53.2383 4.6128 51.0541 1.54158C48.8699 -1.52487 41.2825 0.125191 34.1051 5.23276C26.9278 10.3403 24.5386 24.8809 24.5386 24.8809H24.5433Z" fill="#BFDCDC"/>
<mask id="mask1_179_247383" style="mask-type:luminance" maskUnits="userSpaceOnUse" x="24" y="0" width="28" height="25">
<path d="M24.5433 24.8809C24.5433 24.8809 34.8348 21.452 42.0121 16.3445C49.1894 11.2369 53.2383 4.6128 51.0541 1.54158C48.8699 -1.52487 41.2825 0.125191 34.1051 5.23276C26.9278 10.3403 24.5386 24.8809 24.5386 24.8809H24.5433Z" fill="white"/>
</mask>
<g mask="url(#mask1_179_247383)">
<path d="M51.755 -4.41945C49.2322 -3.53242 47.0337 -1.94437 45.3979 0.177824C43.8384 2.20464 42.775 4.54621 41.3872 6.68271C40.6718 7.78434 39.8659 8.88598 38.8453 9.73009C38.3684 10.1307 37.8391 10.4788 37.2573 10.7077C36.6325 10.9509 35.9696 11.0272 35.3211 11.1703C35.1828 11.1989 35.0588 11.2514 34.93 11.2895C34.9109 11.2705 34.9061 11.2466 34.8823 11.2323C34.6105 11.0034 35.4021 10.1545 35.5261 9.97806C35.7836 9.61085 36.0364 9.24366 36.2796 8.86691C36.8137 8.05618 37.3192 7.23115 37.8009 6.39181C38.769 4.69882 39.6179 2.94384 40.3619 1.14117C40.6051 0.549813 39.699 0.139688 39.4558 0.731041C38.5926 2.82939 37.5816 4.86574 36.4132 6.80671C35.8266 7.78435 35.1971 8.73337 34.5342 9.65855C34.1002 10.2642 33.5804 11.0225 33.9857 11.6854C33.4659 11.981 33.0033 12.3626 32.6027 12.8633C32.5026 12.9873 32.4167 13.1161 32.3261 13.2448C32.35 11.9572 32.2689 10.6648 32.4597 9.38671C32.7267 7.61265 33.4755 5.94828 34.6057 4.55574C35.0063 4.05976 34.2385 3.43029 33.8331 3.92626C32.6552 5.3808 31.8492 7.1167 31.5202 8.95752C31.1768 10.8794 31.5106 12.8395 31.2197 14.7614C31.2102 14.8281 31.2197 14.8853 31.2293 14.9426C31.0528 15.2239 30.8668 15.5005 30.6618 15.7628C28.9068 18.0376 25.249 18.1855 24.1807 21.1089C23.9613 21.705 24.8675 22.1199 25.0868 21.519C25.8356 19.4779 28.1342 18.8722 29.894 17.761C29.5601 19.4111 28.468 20.7512 27.3807 21.9959C26.7464 22.7208 26.1026 23.4361 25.5542 24.2278C25.1297 24.843 24.3762 25.792 24.7148 26.5836C24.9628 27.1702 25.8976 26.8316 25.6496 26.245C25.5256 25.9589 25.9929 25.3676 26.1408 25.1386C26.3983 24.7381 26.6892 24.3518 26.9896 23.9846C27.5715 23.2692 28.201 22.5968 28.7923 21.8862C28.9592 21.6859 29.1118 21.4761 29.2644 21.271C29.4171 21.4141 29.6412 21.4713 29.8558 21.3091C31.3247 20.1932 33.1989 20.0454 34.9491 19.6734C36.6325 19.3157 38.2397 18.7101 39.7896 17.9756C39.8849 18.0043 39.9803 18.009 40.071 17.9661C40.7386 17.637 41.3395 17.5035 42.0787 17.5131C42.1836 17.5131 42.155 17.513 42.2599 17.5226C42.3458 17.5273 42.4316 17.5369 42.5174 17.5464C42.6939 17.5703 42.8751 17.6037 43.0468 17.6466C43.0897 17.6561 43.1279 17.6704 43.1708 17.68C43.1994 17.6847 43.1994 17.6895 43.2089 17.6895C43.2185 17.6895 43.2185 17.6895 43.2471 17.7038C43.3282 17.7324 43.4092 17.7563 43.4903 17.7896C43.6668 17.8564 43.8384 17.9375 44.0054 18.0233C44.2438 18.1473 44.5586 18.009 44.6635 17.7753C44.7779 17.5178 44.6539 17.246 44.4155 17.1172C43.1136 16.4257 41.5016 16.3447 40.1282 16.874C40.0328 16.8359 39.9183 16.8311 39.7896 16.8931C38.0441 17.7419 36.2367 18.4287 34.3243 18.8007C32.8889 19.0773 31.4153 19.311 30.1229 19.9882C30.5235 19.2585 30.8287 18.4811 30.9431 17.6418C32.5694 17.1649 34.1383 16.5163 35.6263 15.7104C35.7455 15.8534 35.9315 15.9393 36.1604 15.8725C37.9488 15.3336 39.7562 15.1858 41.6113 15.2573C43.3949 15.3241 45.2119 15.2573 46.5806 13.9649C47.0432 13.5262 46.2706 12.9015 45.808 13.3354C44.5109 14.5658 42.4936 14.2797 40.8626 14.2415C39.6322 14.2129 38.4113 14.3321 37.2096 14.5849C37.386 14.3989 37.5529 14.1986 37.6912 13.9649C38.1061 13.2544 38.2587 12.4293 38.397 11.6281C38.4209 11.4851 38.3875 11.3706 38.3207 11.2752C38.5115 11.1751 38.7023 11.0797 38.8883 10.9509C38.9073 10.9366 38.9264 10.9223 38.9455 10.908C39.0266 10.9271 39.1124 10.9319 39.2078 10.908C40.2617 10.5933 41.3681 10.6219 42.4602 10.6314C43.5762 10.641 44.6825 10.5837 45.7842 10.3834C47.8253 10.0162 50.3815 9.36287 51.6405 7.57451C52.0077 7.05469 51.2399 6.42518 50.8679 6.945C50.1669 7.93694 49.0557 8.41385 47.9398 8.80014C46.9478 9.1435 45.9225 9.38195 44.8829 9.51548C43.3759 9.70624 41.8307 9.53933 40.3285 9.69193C40.5526 9.45348 40.7672 9.21028 40.9723 8.95752C41.0391 8.93368 41.1058 8.89553 41.1678 8.84307C42.9514 7.16439 45.4885 6.69226 47.5105 5.38556C48.3404 4.85144 49.0986 4.179 49.6232 3.33966C50.2241 2.37155 50.3863 1.28425 50.5007 0.168305C50.5675 -0.465968 49.5898 -0.6329 49.5231 0.00137377C49.4038 1.12208 49.2608 2.21896 48.5597 3.13937C47.9445 3.94532 47.0861 4.53189 46.1991 5.00402C44.9878 5.6526 43.7097 6.12475 42.5174 6.74948C43.4808 5.19003 44.3106 3.54474 45.3168 2.0139C46.9812 -0.523198 49.2083 -2.46895 52.0936 -3.47997C52.6992 -3.69458 52.3558 -4.62454 51.755 -4.4147V-4.41945ZM36.8233 13.4833C36.4179 14.1748 35.6692 14.5611 34.9872 14.9235C33.8379 15.5387 32.6361 16.0395 31.401 16.4448C32.6743 14.8281 33.3085 12.6201 35.5452 12.1289C36.189 11.9858 36.7994 11.8571 37.386 11.6663C37.2763 12.291 37.1523 12.9301 36.8281 13.4785L36.8233 13.4833Z" fill="#9EDCDC"/>
</g>
</g>
<path d="M16.3836 24.9624C16.3836 24.9624 19.1353 22.907 22.0396 22.7544C24.9439 22.6018 29.0595 22.473 31.8494 24.5666C34.6392 26.6601 30.0228 35.664 27.6813 36.4842C25.3397 37.3045 18.0861 34.0711 17.0798 31.7725C16.5457 30.5516 16.4217 29.965 16.3836 28.2005C16.3407 26.436 16.3836 24.9576 16.3836 24.9576V24.9624Z" fill="#4F3E0C"/>
<path d="M16.3836 24.9624C16.3836 24.9624 19.1353 22.907 22.0396 22.7544C24.9439 22.6018 29.0595 22.473 31.8494 24.5666C34.6392 26.6601 30.0228 35.664 27.6813 36.4842C25.3397 37.3045 18.0861 34.0711 17.0798 31.7725C16.5457 30.5516 16.4217 29.965 16.3836 28.2005C16.3407 26.436 16.3836 24.9576 16.3836 24.9576V24.9624Z" fill="#86680E"/>
<path d="M29.7846 24.5622C28.0646 23.8383 22.9532 23.6183 21.21 24.1091C19.2745 24.6535 17.9939 26.2192 17.9242 28.2486C17.7955 31.994 24.553 35.8154 26.928 34.6581C29.8754 33.2219 35.0796 26.7873 29.7846 24.5622Z" fill="#94720F"/>
<path d="M28.4301 26.5894C26.6723 25.7105 24.3908 26.0446 22.5499 25.6165C21.4769 25.3733 20.5279 25.9408 20.175 26.9662C19.5974 28.6333 20.9416 30.0939 22.3878 30.705C24.3976 31.5478 27.5584 32.6527 29.4077 30.8242C30.7621 29.4746 29.9705 27.3715 28.4253 26.6037L28.4301 26.5894Z" fill="#A17E17"/>
<path d="M11.0853 24.762C10.1028 23.4553 7.91389 23.8511 6.5595 24.2612C4.94758 24.7477 3.48827 25.7062 2.42001 27.0082C2.02896 27.4851 2.71093 28.1718 3.10199 27.6901C3.98425 26.6123 5.13833 25.773 6.45934 25.3056C7.10315 25.0767 7.77558 24.9289 8.45754 24.8812C8.83906 24.8574 9.41135 24.8097 9.84056 24.9671C6.87425 25.072 4.42777 27.1179 3.05907 29.6645C2.76339 30.2129 3.59796 30.6994 3.89364 30.1509C5.16219 27.7903 7.40838 25.8445 10.2125 25.9065C10.5178 25.9113 10.6751 25.6824 10.6751 25.4392C11.0185 25.4249 11.338 25.1006 11.0805 24.7572L11.0853 24.762Z" fill="#362A08"/>
<path d="M9.21582 27.2416C9.21582 30.5083 11.2999 33.9944 12.5589 34.1852C12.7592 34.2138 13.589 34.4189 13.7416 34.3903C13.9276 34.3569 13.5938 33.9468 13.7702 33.8752C15.6158 33.1313 17.1371 30.4416 17.6521 27.7137C18.2053 24.776 17.4709 21.061 13.3458 21.3281C11.071 21.4759 9.22059 23.9748 9.22059 27.2416H9.21582Z" fill="#94720F"/>
<path d="M9.08228 27.7139C9.08228 29.8123 10.5464 32.1109 11.3666 32.1109C12.8307 32.1109 14.1136 30.0841 14.5046 28.0191C14.8623 26.1306 14.3902 23.7414 11.7386 23.913C10.2745 24.0084 9.08705 25.6156 9.08705 27.7139H9.08228Z" fill="#3B2E09"/>
<path d="M9.21582 27.1795C9.21582 28.4385 10.0981 29.8216 10.5893 29.8216C11.4715 29.8216 12.2394 28.6007 12.473 27.3655C12.6876 26.2305 12.4015 24.795 10.8087 24.9C9.93118 24.9572 9.21582 25.9205 9.21582 27.1843V27.1795Z" fill="#4A3A0B"/>
<g opacity="0.71">
<path d="M24.8962 24.2367C24.8962 24.2367 35.7028 23.2734 43.8625 19.9637C52.0222 16.6541 57.4922 11.1364 56.0758 7.65026C54.6594 4.15937 46.8956 4.01628 38.7358 7.33072C30.5713 10.6452 24.8962 24.2415 24.8962 24.2415V24.2367Z" fill="#BFDCDC"/>
<mask id="mask2_179_247383" style="mask-type:luminance" maskUnits="userSpaceOnUse" x="24" y="4" width="33" height="21">
<path d="M24.8962 24.2367C24.8962 24.2367 35.7028 23.2734 43.8625 19.9637C52.0222 16.6541 57.4922 11.1364 56.0758 7.65026C54.6594 4.15937 46.8956 4.01628 38.7358 7.33072C30.5713 10.6452 24.8962 24.2415 24.8962 24.2415V24.2367Z" fill="white"/>
</mask>
<g mask="url(#mask2_179_247383)">
<path d="M58.1359 2.00879C55.4748 2.29016 52.9711 3.32979 50.8918 5.01324C48.9079 6.62515 47.3342 8.65674 45.4886 10.4165C44.5396 11.3226 43.4999 12.2049 42.3125 12.7962C41.7545 13.0728 41.1631 13.2922 40.5431 13.3828C39.8803 13.4782 39.2174 13.3971 38.5497 13.3828C38.4066 13.3828 38.2779 13.4018 38.1396 13.4066C38.1253 13.3828 38.1253 13.359 38.1062 13.3399C37.8964 13.0537 38.8597 12.4099 39.0218 12.2669C39.3557 11.9712 39.6847 11.6707 40.0138 11.3607C40.7196 10.6979 41.4063 10.0111 42.0645 9.30054C43.395 7.87938 44.6302 6.36763 45.7652 4.78434C46.1372 4.26452 45.3503 3.65408 44.9783 4.17867C43.6573 6.02426 42.2028 7.76493 40.6147 9.39115C39.8183 10.2066 38.9885 10.984 38.13 11.7327C37.5721 12.2192 36.8901 12.8391 37.1286 13.5783C36.5563 13.7452 36.0174 14.0123 35.5071 14.4033C35.3831 14.4987 35.2687 14.6084 35.1494 14.7133C35.469 13.4639 35.6883 12.1906 36.17 10.9888C36.8424 9.3244 37.9536 7.8794 39.3747 6.78254C39.8803 6.39148 39.2794 5.59982 38.7691 5.99564C37.2907 7.1402 36.1032 8.64244 35.3593 10.3593C34.5819 12.1476 34.4532 14.1315 33.7283 15.9389C33.7044 16.0009 33.6949 16.0582 33.6949 16.1154C33.4565 16.3491 33.2132 16.5732 32.9557 16.7831C30.7191 18.5905 27.128 17.8942 25.4159 20.4886C25.0678 21.0179 25.8499 21.6284 26.2028 21.0942C27.3999 19.282 29.7796 19.2248 31.7444 18.5476C31.0386 20.0737 29.6651 21.1276 28.3203 22.0862C27.5382 22.6441 26.7417 23.1926 26.0264 23.8364C25.4684 24.3371 24.5194 25.0858 24.6625 25.9347C24.7721 26.5642 25.7593 26.4498 25.6496 25.8203C25.5972 25.5151 26.1838 25.0477 26.384 24.8569C26.7274 24.5231 27.0994 24.2179 27.4809 23.927C28.2106 23.3642 28.9832 22.8587 29.7176 22.3008C29.9226 22.1434 30.1229 21.9765 30.3185 21.8096C30.4329 21.986 30.638 22.0909 30.886 21.9813C32.5742 21.2373 34.4293 21.5234 36.2177 21.5664C37.9393 21.6045 39.6418 21.3851 41.3205 21.0322C41.4063 21.0799 41.497 21.1085 41.5971 21.0847C42.322 20.9178 42.9372 20.9273 43.6573 21.1085C43.7575 21.1324 43.7336 21.1276 43.8338 21.1562C43.9148 21.18 43.9959 21.2087 44.077 21.2421C44.2439 21.3041 44.4108 21.3804 44.5682 21.4614C44.6063 21.4805 44.6445 21.4996 44.6826 21.5234C44.7065 21.5377 44.7112 21.5377 44.716 21.5425C44.7208 21.5425 44.7255 21.5473 44.7494 21.5616C44.8209 21.6045 44.8925 21.6522 44.964 21.6999C45.1214 21.8048 45.2692 21.924 45.4075 22.048C45.6078 22.2245 45.9464 22.1625 46.1038 21.9574C46.2755 21.7333 46.2135 21.4376 46.0132 21.2611C44.9068 20.2883 43.3569 19.8352 41.8976 20.0355C41.8117 19.9783 41.702 19.9449 41.5637 19.9783C39.6657 20.4027 37.7485 20.6507 35.8028 20.5696C34.3435 20.5076 32.8556 20.3932 31.4392 20.7556C31.9971 20.1404 32.474 19.4489 32.7793 18.662C34.4722 18.5714 36.1462 18.3044 37.7819 17.8609C37.863 18.0278 38.0251 18.1565 38.2636 18.1422C40.1235 18.0325 41.9214 18.3044 43.7098 18.8003C45.4314 19.2772 47.215 19.6349 48.846 18.6906C49.3944 18.3711 48.7887 17.5843 48.2403 17.9038C46.6951 18.8004 44.7971 18.0611 43.2185 17.6462C42.0263 17.3315 40.8102 17.1693 39.5846 17.136C39.7992 16.9977 40.009 16.8403 40.195 16.6448C40.7625 16.0486 41.1011 15.2809 41.4207 14.5369C41.4779 14.4034 41.4683 14.2841 41.4302 14.1792C41.64 14.1268 41.8451 14.0791 42.0597 13.998C42.0835 13.9885 42.1026 13.9789 42.1217 13.9694C42.1932 14.0075 42.2791 14.0314 42.3745 14.0266C43.4761 13.9646 44.5443 14.246 45.603 14.5083C46.6856 14.7753 47.7777 14.9709 48.8936 15.0329C50.9634 15.1473 53.6006 15.0996 55.2411 13.6546C55.718 13.2349 55.1171 12.4433 54.6355 12.8678C53.7246 13.6689 52.5324 13.8788 51.3592 13.998C50.3148 14.1029 49.2609 14.0981 48.2164 13.9884C46.7095 13.8263 45.2406 13.3065 43.7431 13.1109C44.015 12.9297 44.282 12.7437 44.5396 12.5434C44.6111 12.5387 44.6826 12.5148 44.7542 12.4767C46.8764 11.2558 49.4516 11.3798 51.7264 10.5786C52.6564 10.2496 53.5482 9.77268 54.254 9.07164C55.0599 8.27045 55.4701 7.24513 55.842 6.19119C56.0519 5.5903 55.141 5.19921 54.9264 5.80487C54.5544 6.86835 54.1586 7.90322 53.262 8.63764C52.4799 9.28146 51.507 9.65346 50.5342 9.91098C49.2084 10.2639 47.854 10.426 46.5473 10.7598C47.8445 9.46268 49.0319 8.05584 50.3673 6.79683C52.5705 4.71279 55.1887 3.33456 58.2313 3.01504C58.8703 2.94827 58.7511 1.96109 58.1169 2.02785L58.1359 2.00879ZM39.4749 15.9771C38.9169 16.5589 38.1062 16.7592 37.3527 16.9547C36.0937 17.2886 34.8061 17.4984 33.5089 17.6081C35.1208 16.33 36.2463 14.327 38.5354 14.3652C39.1935 14.3747 39.8183 14.389 40.4335 14.3413C40.1807 14.9232 39.9136 15.5193 39.4701 15.9771H39.4749Z" fill="#9EDCDC"/>
</g>
</g>
<path d="M23.9471 46.7368C23.9042 46.651 23.8756 46.5556 23.8279 46.4745C23.7659 46.3648 23.6848 46.279 23.5894 46.2122C23.5751 46.1979 23.5608 46.1836 23.5417 46.1693C23.6276 45.8975 23.661 45.5923 23.6705 45.2918C23.6943 45.1869 23.7086 45.082 23.7325 44.9771C23.8326 44.7768 23.8803 44.5526 23.909 44.3046C23.9709 43.7801 24.0091 43.2459 24.0282 42.7166C24.0663 41.7055 24.0091 40.6659 23.6943 39.6978C23.68 39.6549 23.661 39.6072 23.6466 39.5643C23.6943 39.5261 23.7516 39.4975 23.7945 39.4498C24.1617 39.0445 24.1808 38.3673 24.2619 37.8522C24.4335 36.7124 24.5337 35.5631 24.5432 34.4138C24.5432 33.8129 24.5241 33.212 24.4812 32.6159C24.4431 32.1151 24.4478 31.5476 24.238 31.0803C24.0472 30.6463 23.661 30.3411 23.1697 30.3936C22.7358 30.4365 22.3924 30.7417 22.3543 31.1804C22.3161 31.2615 22.2779 31.3426 22.2446 31.4236C22.0538 31.8958 21.906 32.3822 21.8058 32.8782C21.782 32.9879 21.7724 33.0976 21.7534 33.2072C21.6818 33.4791 21.6151 33.7461 21.5578 34.0227C21.3575 34.9956 21.2765 36.0639 21.4768 37.0558C21.4815 37.094 21.4815 37.1369 21.4863 37.175C21.5769 37.7664 21.7724 38.5008 22.1253 39.0635C22.0967 39.1875 22.0824 39.3211 22.0729 39.4594C21.9775 39.5786 21.906 39.7169 21.8487 39.8504C21.6198 40.3798 21.6055 40.9807 21.6103 41.5482C21.6198 42.4114 21.72 43.2698 21.9107 44.1091C21.9394 44.3523 21.9823 44.5908 22.0252 44.8292C22.0347 44.9341 22.0347 45.0343 22.0443 45.1392C22.0872 45.6257 22.2016 46.0692 22.4496 46.4793C22.421 46.6414 22.4258 46.8131 22.4496 46.9848C22.4926 47.2566 22.5593 47.5237 22.6404 47.7908C22.6642 47.8623 22.6929 47.9291 22.7167 47.9958C22.7358 48.0864 22.7501 48.1818 22.7787 48.2677C22.9361 48.7732 23.1745 49.2357 23.5036 49.6506C23.7182 49.9272 24.238 49.8319 24.3238 49.4837C24.5528 48.5586 24.4097 47.5571 23.9376 46.7416L23.9471 46.7368Z" fill="#362A08"/>
<path d="M18.1578 41.5247C18.1721 41.4818 18.1864 41.4389 18.1912 41.3864C18.1912 41.3578 18.1912 41.3292 18.1912 41.3006C18.2484 41.0478 18.2675 40.7903 18.2675 40.528C18.2675 40.0034 18.258 39.4788 18.2341 38.9542C18.2055 38.3009 18.2151 37.5569 18.0148 36.9036C18.01 36.8129 18.0148 36.7271 18.0052 36.6365C17.9766 36.3122 17.9241 35.9879 17.7429 35.7113C17.9003 35.7256 18.0577 35.7018 18.2008 35.5969C18.5298 35.3584 18.587 34.8338 18.6777 34.4618C18.7826 34.0279 18.8732 33.5939 18.9447 33.1551C19.1069 32.1727 19.1975 31.176 19.2022 30.1793C19.2022 29.6643 18.5537 29.5832 18.3247 29.917C18.2914 29.917 18.258 29.917 18.2246 29.9313C18.1769 29.9504 18.1435 29.9838 18.1006 30.0076C18.0004 29.9981 17.8955 30.0076 17.8192 30.0649C17.1373 30.5847 16.9417 31.5575 16.7605 32.354C16.6222 32.9644 16.5173 33.6607 16.7558 34.252C16.8034 34.6335 16.8702 35.0341 17.1087 35.3489C17.1373 35.3918 17.1802 35.4204 17.2183 35.4538C17.1277 35.4681 17.0467 35.511 16.9799 35.5778C16.8798 35.6303 16.7891 35.7161 16.7605 35.8544C16.689 36.1644 16.6365 36.4791 16.5984 36.7939C16.4553 37.5283 16.3885 38.2722 16.4171 39.0162C16.441 39.5551 16.5078 40.0988 16.6175 40.6281C16.7033 41.043 16.8225 41.4818 17.1087 41.8013C17.1087 41.8633 17.1039 41.93 17.1087 41.992C16.9704 42.4069 16.9513 42.8314 17.0562 43.2701C17.1706 43.7327 17.4091 44.1572 17.6476 44.5673C17.7572 44.7581 17.9385 44.82 18.1054 44.7914C18.2675 45.0346 18.4297 45.2731 18.6252 45.4925C18.8923 45.7882 19.4884 45.5688 19.4502 45.1491C19.3262 43.8519 18.8875 42.6025 18.1721 41.5104L18.1578 41.5247Z" fill="#362A08"/>
<path d="M31.2391 50.6329C30.8481 50.0034 30.5524 49.2118 30.4618 48.9256C30.0612 47.6523 29.9467 46.3265 29.8466 45.0008C29.8466 44.9912 29.8466 44.9817 29.8466 44.9721C28.7068 43.1409 27.9581 41.0807 27.7339 38.9251C27.6052 37.6804 27.629 36.4071 27.8388 35.1719C27.9151 34.7284 28.0153 34.0846 28.6019 34.0989C28.6019 34.0989 28.6066 34.0989 28.6114 34.0989C28.8499 34.0226 29.1598 34.1084 29.2457 34.3803C29.527 35.3007 29.7941 36.2259 30.0469 37.151C30.7336 38.4911 31.0579 39.9409 31.2153 41.4336C31.3202 41.7817 31.4108 42.1299 31.4919 42.4828C31.5634 42.7975 31.592 43.1266 31.5205 43.4222C31.5205 43.4413 31.53 43.4604 31.53 43.4842C31.5443 43.5605 31.5539 43.6416 31.5586 43.7227C31.5872 43.8657 31.6206 44.0088 31.6445 44.1519C31.7685 44.8386 32.0165 45.6827 31.7303 46.3218C31.9402 46.8559 32.1261 47.3948 32.2883 47.9432C32.3217 48.0529 32.3455 48.1626 32.3789 48.2723C32.5124 48.6443 32.6317 49.0163 32.727 49.4025C32.8415 49.8747 32.9512 50.3849 32.894 50.8618C33.7715 51.4914 34.3437 52.4594 34.7586 53.4705C34.8683 53.6612 34.9875 53.8472 35.0877 54.0475C35.2403 54.348 35.3404 54.6722 35.2784 54.9918C35.3357 55.3399 35.2784 55.8025 34.9494 55.9503C34.6203 56.0982 34.2627 55.8931 34.0576 55.5974C33.8287 55.2684 33.6379 54.9012 33.4519 54.5483C33.3232 54.3098 33.2182 54.0618 33.099 53.8186C33.0466 53.728 32.9846 53.6374 32.9321 53.5468C32.6889 53.1128 32.46 52.6693 32.2454 52.221C32.1786 52.0779 32.1166 51.9396 32.0641 51.7965C32.0022 51.7822 31.9402 51.7536 31.8734 51.7155C31.5205 51.5056 31.3679 51.0717 31.2487 50.6663C31.2439 50.6568 31.2391 50.6425 31.2343 50.6329H31.2391Z" fill="#362A08"/>
</svg>
