<svg width="79" height="82" viewBox="0 0 79 82" fill="none" xmlns="http://www.w3.org/2000/svg">
<g filter="url(#filter0_d_258_192032)">
<path d="M35.0581 64.0016C34.9934 63.911 34.9351 63.8074 34.8575 63.7233C34.7604 63.6133 34.6439 63.5291 34.5144 63.4709C34.495 63.4579 34.4756 63.445 34.4497 63.4321C34.4886 63.089 34.4562 62.7331 34.3979 62.3771C34.3979 62.2476 34.3979 62.1247 34.3979 61.9952C34.4691 61.7428 34.4756 61.4645 34.4562 61.1668C34.4044 60.539 34.3332 59.9047 34.2361 59.2769C34.0484 58.086 33.7442 56.8758 33.1618 55.8143C33.1359 55.769 33.1035 55.7172 33.0712 55.6719C33.1229 55.6201 33.1747 55.5748 33.22 55.5101C33.5566 54.9535 33.4271 54.151 33.4012 53.5296C33.343 52.1575 33.2006 50.7854 32.9482 49.4392C32.8187 48.7337 32.6569 48.0348 32.4628 47.3487C32.301 46.7662 32.178 46.106 31.8285 45.6012C31.5049 45.1352 30.9806 44.8699 30.424 45.0381C29.9257 45.187 29.5891 45.6206 29.6474 46.1449C29.6215 46.2484 29.5956 46.352 29.5762 46.4555C29.4597 47.051 29.4014 47.6529 29.395 48.2613C29.395 48.3972 29.4014 48.5266 29.4079 48.6625C29.382 48.9926 29.3691 49.3292 29.3626 49.6593C29.3496 50.8437 29.4985 52.1187 29.958 53.2319C29.971 53.2772 29.9839 53.3225 29.9969 53.3678C30.2363 54.0409 30.6376 54.8564 31.1748 55.4324C31.1683 55.5878 31.1748 55.7431 31.2072 55.9049C31.123 56.0667 31.0713 56.248 31.0324 56.4162C30.8836 57.0893 31 57.7948 31.136 58.4614C31.3431 59.4711 31.6602 60.4549 32.0744 61.3933C32.165 61.6716 32.2686 61.937 32.3721 62.2088C32.4045 62.3253 32.4304 62.4483 32.4628 62.5648C32.6246 63.1214 32.8576 63.6197 33.2459 64.0404C33.2459 64.2411 33.2977 64.4417 33.3689 64.6294C33.4854 64.9401 33.6213 65.2378 33.7766 65.529C33.8155 65.6067 33.8672 65.6779 33.9125 65.7491C33.9578 65.8527 33.9902 65.9562 34.0484 66.0533C34.3462 66.6099 34.7345 67.0953 35.2134 67.5095C35.5306 67.7813 36.1131 67.5548 36.1325 67.1277C36.1843 65.9886 35.7959 64.8559 35.0516 64.0016H35.0581Z" fill="#261E06"/>
<path d="M26.9226 58.3061C26.9356 58.2544 26.9485 58.2026 26.9485 58.1379C26.9485 58.1055 26.9485 58.0667 26.9485 58.0343C26.9938 57.7301 27.0003 57.4195 26.9809 57.1088C26.942 56.4875 26.8838 55.8597 26.8126 55.2383C26.722 54.4617 26.6767 53.575 26.3854 52.8113C26.3725 52.7077 26.366 52.5977 26.3531 52.4941C26.2948 52.1058 26.2042 51.7304 25.9712 51.4133C26.1589 51.4133 26.3466 51.3744 26.5084 51.2385C26.8773 50.9279 26.9032 50.3001 26.9809 49.8535C27.0715 49.3292 27.1427 48.805 27.1944 48.2743C27.3109 47.0899 27.3368 45.899 27.2656 44.7146C27.2268 44.1062 26.4502 44.0544 26.1977 44.4751C26.1589 44.4751 26.1136 44.4816 26.0812 44.501C26.023 44.5269 25.9906 44.5722 25.9388 44.6046C25.8159 44.6046 25.6994 44.6175 25.6088 44.6951C24.8386 45.3682 24.6832 46.5462 24.5279 47.5106C24.4114 48.2484 24.3467 49.0833 24.6703 49.7758C24.7609 50.2224 24.8709 50.6948 25.1751 51.0508C25.214 51.0961 25.2657 51.1285 25.3175 51.1673C25.214 51.1932 25.1169 51.2515 25.0392 51.3356C24.9227 51.4068 24.8256 51.5168 24.7997 51.6851C24.7415 52.0605 24.7026 52.4359 24.6832 52.8177C24.5732 53.698 24.5538 54.5976 24.6444 55.4778C24.7156 56.1185 24.8386 56.7593 25.0133 57.3806C25.1492 57.866 25.324 58.3773 25.6929 58.7398C25.6929 58.8174 25.6929 58.8951 25.7058 58.9663C25.5699 59.4711 25.5829 59.9824 25.7512 60.4937C25.9259 61.0374 26.243 61.5228 26.5537 61.9888C26.7026 62.2089 27.5439 62.7655 27.7899 63.0114C28.1264 63.3415 28.8254 63.0308 28.7413 62.5389C28.4889 61.005 27.8676 59.5488 26.9226 58.3126V58.3061Z" fill="#261E06"/>
<path d="M42.3847 67.5097C41.8281 66.8237 41.3556 65.9306 41.2067 65.607C40.5401 64.1572 40.2036 62.6038 39.8864 61.0505C39.8864 61.0376 39.8864 61.0246 39.8864 61.0117C38.2619 59.0183 37.0645 56.6883 36.4691 54.1706C36.1261 52.7143 35.9643 51.2063 36.0225 49.7112C36.0419 49.1741 36.0678 48.3974 36.7603 48.3262C36.7603 48.3262 36.7603 48.3262 36.7668 48.3262C37.0322 48.1968 37.4205 48.255 37.5564 48.5657C38.0289 49.6142 38.4819 50.6692 38.922 51.7241C39.9382 53.2063 40.5401 54.8761 40.9543 56.6171C41.1291 57.0119 41.2909 57.4132 41.4397 57.8209C41.5692 58.1769 41.6533 58.5717 41.621 58.9277C41.6274 58.9536 41.6404 58.973 41.6469 58.9988C41.6727 59.0895 41.6986 59.1865 41.718 59.2771C41.7763 59.4389 41.8345 59.6072 41.8863 59.7755C42.1387 60.5716 42.5594 61.5294 42.3135 62.332C42.6436 62.9274 42.9478 63.5423 43.2196 64.1701C43.2714 64.2931 43.3231 64.4225 43.3749 64.5455C43.5885 64.9662 43.7891 65.3869 43.9574 65.8335C44.1645 66.3771 44.3716 66.9596 44.3781 67.5357C45.5107 68.144 46.3392 69.2055 46.9799 70.3381C47.1353 70.5517 47.31 70.7523 47.4524 70.9724C47.6789 71.3089 47.8472 71.6714 47.8213 72.0597C47.9443 72.461 47.9443 73.0241 47.5754 73.2441C47.2065 73.4642 46.7534 73.2829 46.4622 72.9593C46.145 72.6034 45.8602 72.1956 45.5884 71.8073C45.4007 71.5419 45.2324 71.2701 45.0642 70.9983C44.9865 70.8947 44.9024 70.8041 44.8247 70.7006C44.4687 70.2216 44.1322 69.7362 43.815 69.2378C43.7115 69.076 43.6209 68.9207 43.5367 68.7653C43.4655 68.7524 43.3879 68.733 43.3037 68.7006C42.8507 68.5065 42.6112 68.0146 42.4041 67.555C42.3976 67.5421 42.3911 67.5292 42.3847 67.5162V67.5097Z" fill="#261E06"/>
<path d="M37.0061 49.8467C37.0061 49.8467 36.9673 54.7785 39.7633 56.7396C42.5592 58.7007 49.1608 62.0338 52.4228 63.4124C58.0666 65.7942 61.8787 65.833 66.3121 64.7068C66.3121 64.7068 70.4155 57.3285 66.7005 51.6719C63.7492 47.1737 64.7523 44.6496 55.18 40.5591C46.4296 36.8117 45.5235 37.8861 42.3068 40.0608C39.3814 42.0348 36.9996 49.8532 36.9996 49.8532L37.0061 49.8467Z" fill="#2E1D07"/>
<mask id="mask0_258_192032" style="mask-type:luminance" maskUnits="userSpaceOnUse" x="36" y="38" width="33" height="28">
<path d="M37.0061 49.8467C37.0061 49.8467 36.9673 54.7785 39.7633 56.7396C42.5592 58.7007 49.1608 62.0338 52.4228 63.4124C58.0666 65.7942 61.8787 65.833 66.3121 64.7068C66.3121 64.7068 70.4155 57.3285 66.7005 51.6719C63.7492 47.1737 64.7523 44.6496 55.18 40.5591C46.4296 36.8117 45.5235 37.8861 42.3068 40.0608C39.3814 42.0348 36.9996 49.8532 36.9996 49.8532L37.0061 49.8467Z" fill="white"/>
</mask>
<g mask="url(#mask0_258_192032)">
<path d="M52.0992 41.0257C52.2286 39.9901 52.2027 38.9546 51.8727 37.9837C51.7756 37.699 51.5491 37.5825 51.3161 37.5566C51.2449 37.3559 51.1866 37.1488 51.1025 36.9482C50.8371 36.301 49.9051 36.4434 49.808 36.9676C49.3161 36.178 48.1253 36.068 47.6334 36.6699C47.3357 36.288 46.9797 35.9644 46.5396 35.7314C46.2289 35.5696 45.8276 35.6537 45.6464 35.9644C45.4717 36.2557 45.5687 36.6958 45.8794 36.8576C46.5007 37.1812 46.915 37.8155 47.1674 38.4497C47.3227 38.8445 47.4327 39.2588 47.5234 39.673C47.4522 42.9609 46.3195 46.0934 44.8762 49.0641C44.2161 50.1061 43.5041 51.1028 42.8181 52.0348C42.0932 53.0186 41.3295 53.97 40.5528 54.915C39.5237 55.601 38.3846 56.2482 37.1225 56.1965C36.2812 56.1641 36.2812 57.4715 37.1225 57.5038C37.6015 57.5233 38.061 57.4521 38.5141 57.3356C38.4752 57.3809 38.4364 57.4326 38.3976 57.4779C37.6403 58.3646 36.8896 59.2643 36.0611 60.0927C35.3233 60.8305 34.2683 61.9955 33.1098 61.6784C32.2943 61.4584 31.9513 62.7204 32.7603 62.9404C33.071 63.0246 33.3816 63.0505 33.6794 63.0311C33.3816 63.6912 33.5434 64.6168 34.4172 64.9404C36.2294 65.6135 37.7439 64.4873 38.9607 63.1411C40.857 62.4291 42.3909 60.4875 43.6012 58.9924C44.4038 57.9957 45.1481 56.9602 45.8471 55.8923C49.8728 51.9896 52.6364 46.5465 52.1186 41.0063L52.0992 41.0257ZM37.8604 60.3775C37.7439 60.5199 37.6015 60.7011 37.4526 60.8953C36.9802 61.0506 36.7278 61.3936 36.676 61.7949C36.2618 62.2091 35.8022 62.5003 35.3427 62.4615C36.6177 61.6784 37.7115 60.2739 38.5464 59.3031C38.883 58.9148 39.2066 58.52 39.5432 58.1316C39.0124 58.9018 38.4623 59.6591 37.8604 60.3775Z" fill="#FFC417"/>
<path d="M60.4741 41.1295C60.4741 40.4176 59.5486 40.314 59.2574 40.8059C59.0826 40.6894 58.8884 40.6182 58.6813 40.5923C58.6554 40.4887 58.636 40.3787 58.6037 40.2752C58.3318 39.4014 57.471 39.2202 56.8109 39.4855C56.3966 39.3302 55.7818 39.6732 55.8983 40.2622C56.7397 44.6439 55.4452 48.8831 53.4583 52.747C53.0958 53.2907 52.7269 53.8214 52.3386 54.3457C50.1057 57.3552 47.6527 60.2095 45.1933 63.0508C45.135 63.0896 45.0768 63.1284 45.0185 63.1673C44.2742 63.2449 43.8147 63.9504 43.8471 64.617C43.64 64.8565 43.4329 65.096 43.2257 65.3419C42.9733 65.3678 42.7339 65.4843 42.5332 65.6461C42.3779 65.7044 42.2355 65.7885 42.0672 65.8338C41.3876 66.0344 41.53 66.9535 42.0802 67.0959C42.1384 67.2577 42.2225 67.4195 42.3649 67.5748L42.6432 67.8661C43.1028 68.345 44.0412 68.3968 44.4943 67.8661C44.5331 67.8208 44.5719 67.7754 44.6108 67.7301C45.7758 67.8402 47.0767 66.0797 47.7692 65.3613C48.3711 64.74 48.973 64.1122 49.575 63.4909C49.8662 63.2255 50.151 62.9407 50.4422 62.6624C52.3256 61.588 53.8466 60.0994 55.1022 58.3843C55.8659 57.6659 56.4549 56.7404 56.9727 55.8407C57.814 54.3845 58.4807 52.8312 58.9985 51.239C59.0243 51.1549 59.0438 51.0643 59.0696 50.9801C60.0081 48.8249 60.5324 46.5273 60.3382 44.1973C60.4159 43.1747 60.4741 42.1456 60.4741 41.1165V41.1295Z" fill="#FFC417"/>
<path d="M66.9139 46.3398C66.6097 45.8285 65.9819 45.6214 65.4512 45.7314C65.4124 45.4725 65.3865 45.2136 65.3477 44.9482C65.1794 43.8091 64.9076 42.6959 64.1503 41.8028C63.7944 41.3821 62.9853 41.7121 63.0306 42.2687C63.0759 42.7542 63.2313 43.1813 63.3995 43.6214C63.283 43.7832 63.2183 43.9839 63.2895 44.1716C63.4319 44.5599 63.5678 44.9483 63.7037 45.3366C63.7879 46.5598 63.8267 47.7895 63.7749 49.0128C63.406 52.3136 61.8268 55.3684 60.0923 58.1838C59.6457 58.9152 59.1667 59.6272 58.7007 60.3391C57.7558 61.2646 56.7073 62.0931 55.6329 62.8568C54.6362 63.5687 53.6136 64.2547 52.5651 64.8955C51.5749 65.5039 50.4293 66.3776 49.219 66.3517C48.5588 66.3388 48.4229 67.1284 48.7983 67.4844C48.5523 67.575 48.3129 67.6785 48.0669 67.7562C47.2708 68.0215 47.6139 69.2901 48.4164 69.0183C50.5069 68.3128 52.4745 67.3226 54.2932 66.1058C54.2479 66.1576 54.209 66.2094 54.1702 66.2547C53.8725 66.4747 53.5683 66.6883 53.2576 66.876C52.7722 67.1608 52.6039 67.6074 52.6363 68.0345C52.3968 68.3128 52.1573 68.5911 51.9114 68.8694C50.8047 70.1315 52.6557 71.9955 53.7624 70.7205C53.8013 70.6751 53.8466 70.6234 53.8854 70.5781C55.0633 69.905 55.9177 68.85 56.6555 67.7109C56.9791 67.3873 57.3027 67.0702 57.6199 66.7401C57.7817 66.5848 57.9176 66.4035 58.0729 66.2482C59.458 65.3227 60.5906 63.9958 61.6067 62.7014C62.7847 61.1999 63.8202 59.6013 64.6875 57.9055C66.4544 54.4623 67.5288 50.7214 67.8912 46.864C67.943 46.288 67.3476 46.1197 66.9398 46.3333L66.9139 46.3398Z" fill="#FFC417"/>
</g>
<g opacity="0.71">
<path d="M32.5405 36.7669C32.5405 36.7669 46.5075 32.1135 56.2482 25.1818C65.9888 18.2501 71.4837 9.26023 68.5194 5.09215C65.5552 0.930535 55.2579 3.1699 45.5173 10.1016C35.7766 17.0333 32.5341 36.7669 32.5341 36.7669H32.5405Z" fill="#BFDCDC"/>
<mask id="mask1_258_192032" style="mask-type:luminance" maskUnits="userSpaceOnUse" x="32" y="3" width="38" height="34">
<path d="M32.5405 36.7669C32.5405 36.7669 46.5075 32.1135 56.2482 25.1818C65.9888 18.2501 71.4837 9.26023 68.5194 5.09215C65.5552 0.930535 55.2579 3.1699 45.5173 10.1016C35.7766 17.0333 32.5341 36.7669 32.5341 36.7669H32.5405Z" fill="white"/>
</mask>
<g mask="url(#mask1_258_192032)">
<path d="M69.4705 -2.9981C66.0467 -1.79427 63.063 0.360934 60.8431 3.24105C58.7267 5.99173 57.2834 9.16958 55.4 12.0691C54.4291 13.5642 53.3353 15.0593 51.9503 16.2048C51.3031 16.7485 50.5847 17.221 49.7951 17.5316C48.9472 17.8617 48.0476 17.9653 47.1674 18.1594C46.9797 18.1982 46.8114 18.2694 46.6366 18.3212C46.6107 18.2953 46.6043 18.263 46.5719 18.2436C46.203 17.9329 47.2774 16.7808 47.4457 16.5414C47.7951 16.043 48.1382 15.5447 48.4682 15.0334C49.1931 13.9331 49.8792 12.8134 50.5329 11.6743C51.8467 9.3767 52.9988 6.99493 54.0084 4.54845C54.3385 3.7459 53.1088 3.1893 52.7787 3.99185C51.6073 6.83961 50.2352 9.60322 48.6495 12.2374C47.8534 13.5642 46.9991 14.8521 46.0994 16.1077C45.5105 16.9297 44.805 17.9588 45.3551 18.8584C44.6497 19.2597 44.0219 19.7775 43.4782 20.4571C43.3423 20.6253 43.2258 20.8001 43.1028 20.9748C43.1352 19.2274 43.0252 17.4734 43.284 15.7388C43.6465 13.3312 44.6626 11.0724 46.1965 9.18251C46.7402 8.5094 45.6982 7.65511 45.148 8.32822C43.5494 10.3022 42.4556 12.6581 42.009 15.1564C41.543 17.7646 41.9961 20.4247 41.6013 23.033C41.5883 23.1236 41.6013 23.2013 41.6142 23.2789C41.3747 23.6608 41.1223 24.0362 40.844 24.3921C38.4622 27.4794 33.4981 27.68 32.0483 31.6475C31.7506 32.4565 32.9803 33.0195 33.278 32.2041C34.2942 29.434 37.4138 28.612 39.802 27.104C39.3489 29.3433 37.8668 31.162 36.3912 32.8513C35.5304 33.835 34.6566 34.8059 33.9123 35.8802C33.3363 36.7152 32.3137 38.0031 32.7732 39.0775C33.1098 39.8736 34.3783 39.4141 34.0418 38.618C33.8735 38.2297 34.5078 37.4271 34.7084 37.1165C35.0579 36.5728 35.4527 36.0486 35.8604 35.5502C36.65 34.5794 37.5044 33.6668 38.3069 32.7024C38.5335 32.4306 38.7406 32.1458 38.9477 31.8675C39.1548 32.0617 39.459 32.1393 39.7502 31.9193C41.7437 30.4048 44.2872 30.2042 46.6625 29.6993C48.9472 29.2139 51.1283 28.3919 53.2318 27.3952C53.3612 27.4341 53.4907 27.4405 53.6136 27.3823C54.5197 26.9357 55.3353 26.7545 56.3384 26.7674C56.4808 26.7674 56.442 26.7674 56.5844 26.7804C56.7009 26.7868 56.8174 26.7998 56.9339 26.8128C57.1733 26.8451 57.4193 26.8904 57.6523 26.9486C57.7105 26.9616 57.7623 26.981 57.8206 26.994C57.8594 27.0004 57.8594 27.0069 57.8724 27.0069C57.8853 27.0069 57.8853 27.0069 57.9241 27.0263C58.0341 27.0651 58.1442 27.0975 58.2542 27.1428C58.4937 27.2334 58.7267 27.3435 58.9532 27.46C59.2768 27.6283 59.704 27.4405 59.8464 27.1234C60.0017 26.7739 59.8334 26.405 59.5098 26.2302C57.7429 25.2918 55.5553 25.1817 53.6913 25.9002C53.5619 25.8484 53.4065 25.8419 53.2318 25.926C50.8629 27.0781 48.41 28.0101 45.8147 28.5149C43.8665 28.8903 41.8666 29.2075 40.1127 30.1265C40.6563 29.1363 41.0706 28.0813 41.2259 26.9422C43.4329 26.295 45.5622 25.4147 47.5816 24.3209C47.7434 24.5151 47.9958 24.6316 48.3064 24.541C50.7335 23.8097 53.1865 23.609 55.7041 23.7061C58.1247 23.7967 60.5907 23.7061 62.4482 21.9521C63.076 21.3567 62.0275 20.5088 61.3997 21.0978C59.6393 22.7676 56.9015 22.3793 54.688 22.3275C53.0182 22.2887 51.3613 22.4505 49.7303 22.7935C49.9698 22.5411 50.1963 22.2693 50.384 21.9521C50.9471 20.9878 51.1542 19.8681 51.3419 18.7808C51.3743 18.5866 51.329 18.4313 51.2384 18.3018C51.4972 18.1659 51.7561 18.0365 52.0086 17.8617C52.0344 17.8423 52.0603 17.8229 52.0862 17.8035C52.1962 17.8293 52.3127 17.8358 52.4422 17.8035C53.8725 17.3763 55.3741 17.4152 56.8562 17.4281C58.3707 17.441 59.8722 17.3634 61.3673 17.0915C64.1374 16.5932 67.6065 15.7065 69.3152 13.2794C69.8135 12.5739 68.7715 11.7196 68.2667 12.4251C67.3153 13.7713 65.8072 14.4185 64.2927 14.9428C62.9465 15.4088 61.555 15.7324 60.1441 15.9136C58.0989 16.1725 56.0019 15.9459 53.9631 16.1531C54.2673 15.8294 54.5586 15.4994 54.8369 15.1564C54.9275 15.124 55.0181 15.0722 55.1022 15.001C57.5228 12.7228 60.966 12.0821 63.7102 10.3087C64.8364 9.58382 65.8655 8.67121 66.5774 7.53211C67.3929 6.21826 67.613 4.74263 67.7683 3.22814C67.8589 2.36734 66.5321 2.14079 66.4415 3.00159C66.2797 4.52255 66.0855 6.01116 65.1341 7.26029C64.2992 8.35409 63.1342 9.15015 61.9304 9.79089C60.2865 10.6711 58.5519 11.3119 56.9339 12.1597C58.2413 10.0433 59.3674 7.81044 60.733 5.73287C62.9918 2.28967 66.0144 -0.350995 69.93 -1.7231C70.752 -2.01435 70.286 -3.27643 69.4705 -2.99166V-2.9981ZM49.2061 21.2984C48.656 22.2369 47.6398 22.7612 46.7143 23.2531C45.1545 24.088 43.5235 24.7675 41.8472 25.3177C43.5753 23.1236 44.4361 20.127 47.4715 19.4603C48.3453 19.2662 49.1737 19.0914 49.9698 18.8325C49.8209 19.6804 49.6527 20.5477 49.2126 21.292L49.2061 21.2984Z" fill="#9EDCDC"/>
</g>
</g>
<path d="M21.4666 36.8771C21.4666 36.8771 25.201 34.0876 29.1426 33.8805C33.0841 33.6734 38.6696 33.4986 42.4559 36.3399C46.2421 39.1812 39.977 51.4007 36.7992 52.5139C33.6213 53.6271 23.7771 49.239 22.4115 46.1194C21.6866 44.4625 21.5183 43.6664 21.4666 41.2717C21.4083 38.877 21.4666 36.8706 21.4666 36.8706V36.8771Z" fill="#4F3E0C"/>
<path d="M21.4666 36.8771C21.4666 36.8771 25.201 34.0876 29.1426 33.8805C33.0841 33.6734 38.6696 33.4986 42.4559 36.3399C46.2421 39.1812 39.977 51.4007 36.7992 52.5139C33.6213 53.6271 23.7771 49.239 22.4115 46.1194C21.6866 44.4625 21.5183 43.6664 21.4666 41.2717C21.4083 38.877 21.4666 36.8706 21.4666 36.8706V36.8771Z" fill="#86680E"/>
<path d="M39.6536 36.3332C37.3192 35.3508 30.3824 35.0522 28.0166 35.7183C25.3899 36.4571 23.6519 38.582 23.5573 41.3362C23.3826 46.4192 32.5535 51.6054 35.7768 50.0348C39.7768 48.0856 46.8396 39.353 39.6536 36.3332Z" fill="#94720F"/>
<path d="M37.8153 39.0838C35.4297 37.891 32.3333 38.3445 29.8351 37.7635C28.3788 37.4334 27.0908 38.2036 26.6119 39.5951C25.828 41.8576 27.6523 43.84 29.615 44.6693C32.3426 45.8131 36.6323 47.3126 39.1421 44.8311C40.9802 42.9994 39.9058 40.1452 37.8088 39.1032L37.8153 39.0838Z" fill="#A17E17"/>
<path d="M14.276 36.605C12.9427 34.8316 9.97198 35.3688 8.13388 35.9254C5.94628 36.5856 3.96578 37.8865 2.51601 39.6534C1.98529 40.3006 2.91083 41.2326 3.44155 40.5789C4.6389 39.1162 6.20516 37.9771 7.99795 37.3428C8.8717 37.0322 9.78428 36.8315 10.7098 36.7668C11.2276 36.7344 12.0043 36.6697 12.5868 36.8833C8.56105 37.0257 5.24082 39.8023 3.3833 43.2584C2.98203 44.0027 4.11466 44.6629 4.51593 43.9186C6.23754 40.7148 9.28593 38.0742 13.0916 38.1583C13.5058 38.1648 13.7194 37.8541 13.7194 37.5241C14.1854 37.5046 14.619 37.0645 14.2695 36.5985L14.276 36.605Z" fill="#362A08"/>
<path d="M11.7389 39.9707C11.7389 44.4042 14.5672 49.1353 16.2759 49.3942C16.5477 49.433 17.6739 49.7113 17.881 49.6725C18.1334 49.6272 17.6804 49.0706 17.9198 48.9735C20.4246 47.9639 22.4892 44.3135 23.1882 40.6115C23.939 36.6246 22.9422 31.5828 17.3438 31.9452C14.2566 32.1459 11.7454 35.5373 11.7454 39.9707H11.7389Z" fill="#94720F"/>
<path d="M11.5576 40.6116C11.5576 43.4593 13.5446 46.579 14.6578 46.579C16.6448 46.579 18.3858 43.8283 18.9165 41.0258C19.4019 38.4628 18.7612 35.2203 15.1626 35.4533C13.1757 35.5827 11.5641 37.7638 11.5641 40.6116H11.5576Z" fill="#3B2E09"/>
<path d="M11.7389 39.8867C11.7389 41.5954 12.9362 43.4723 13.6029 43.4723C14.8002 43.4723 15.8423 41.8154 16.1594 40.1391C16.4507 38.5987 16.0623 36.6506 13.9006 36.793C12.7097 36.8707 11.7389 38.1781 11.7389 39.8932V39.8867Z" fill="#4A3A0B"/>
<g opacity="0.71">
<path d="M33.0194 35.8937C33.0194 35.8937 47.6854 34.5863 58.7593 30.0946C69.8332 25.6029 77.2568 18.1146 75.3346 13.3835C73.4123 8.64584 62.8756 8.45165 51.8017 12.9498C40.7213 17.448 33.0194 35.9002 33.0194 35.9002V35.8937Z" fill="#BFDCDC"/>
<mask id="mask2_258_192032" style="mask-type:luminance" maskUnits="userSpaceOnUse" x="33" y="9" width="43" height="27">
<path d="M33.0194 35.8937C33.0194 35.8937 47.6854 34.5863 58.7593 30.0946C69.8332 25.6029 77.2568 18.1146 75.3346 13.3835C73.4123 8.64584 62.8756 8.45165 51.8017 12.9498C40.7213 17.448 33.0194 35.9002 33.0194 35.9002V35.8937Z" fill="white"/>
</mask>
<g mask="url(#mask2_258_192032)">
<path d="M78.1305 5.72656C74.519 6.10842 71.1211 7.51935 68.2992 9.80403C65.6068 11.9916 63.4709 14.7488 60.9662 17.137C59.6782 18.3667 58.2673 19.5641 56.6557 20.3666C55.8985 20.742 55.0959 21.0397 54.2546 21.1627C53.3549 21.2921 52.4553 21.1821 51.5492 21.1627C51.355 21.1627 51.1803 21.1886 50.9926 21.195C50.9732 21.1627 50.9732 21.1304 50.9473 21.1045C50.6625 20.7161 51.9699 19.8424 52.1899 19.6482C52.643 19.2469 53.0896 18.8392 53.5361 18.4185C54.494 17.5189 55.426 16.5869 56.3192 15.6225C58.1249 13.6938 59.8012 11.6421 61.3416 9.49337C61.8464 8.78791 60.7785 7.95946 60.2737 8.6714C58.4809 11.1761 56.5069 13.5385 54.3517 15.7455C53.2708 16.8522 52.1446 17.9072 50.9796 18.9233C50.2224 19.5835 49.2969 20.4249 49.6205 21.4281C48.8438 21.6546 48.1124 22.017 47.4199 22.5477C47.2516 22.6772 47.0963 22.8261 46.9345 22.9685C47.3681 21.2727 47.6659 19.5447 48.3196 17.9137C49.2321 15.6549 50.7401 13.6938 52.6689 12.2052C53.3549 11.6745 52.5394 10.6001 51.8469 11.1373C49.8405 12.6906 48.2289 14.7294 47.2193 17.0594C46.1643 19.4864 45.9896 22.1788 45.0058 24.6318C44.9735 24.7159 44.9605 24.7936 44.9605 24.8713C44.6369 25.1884 44.3068 25.4926 43.9573 25.7774C40.9219 28.2303 36.0483 27.2854 33.7248 30.8063C33.2523 31.5247 34.3138 32.3531 34.7927 31.6282C36.4172 29.1688 39.6468 29.0911 42.3134 28.1721C41.3555 30.2432 39.4915 31.6735 37.6664 32.9744C36.6049 33.7317 35.524 34.476 34.5532 35.3497C33.796 36.0293 32.508 37.0454 32.7022 38.1975C32.851 39.0518 34.1908 38.8965 34.0419 38.0421C33.9707 37.6279 34.7668 36.9936 35.0386 36.7348C35.5046 36.2817 36.0095 35.8675 36.5272 35.4727C37.5175 34.709 38.566 34.0229 39.5627 33.2657C39.841 33.0521 40.1128 32.8256 40.3782 32.5991C40.5335 32.8385 40.8118 32.9809 41.1484 32.832C43.4395 31.8224 45.9572 32.2107 48.3843 32.269C50.7208 32.3207 53.0313 32.023 55.3095 31.5441C55.426 31.6088 55.549 31.6476 55.6849 31.6153C56.6687 31.3887 57.5036 31.4017 58.4809 31.6476C58.6168 31.68 58.5845 31.6735 58.7204 31.7123C58.8304 31.7447 58.9404 31.7836 59.0505 31.8289C59.277 31.913 59.5035 32.0165 59.7171 32.1266C59.7689 32.1525 59.8206 32.1783 59.8724 32.2107C59.9048 32.2301 59.9112 32.2301 59.9177 32.2366C59.9242 32.2366 59.9307 32.2431 59.963 32.2625C60.0601 32.3207 60.1572 32.3855 60.2543 32.4502C60.4679 32.5926 60.6685 32.7544 60.8562 32.9227C61.128 33.1621 61.5876 33.078 61.8011 32.7997C62.0341 32.4955 61.95 32.0942 61.6782 31.8547C60.1766 30.5344 58.0732 29.9196 56.0927 30.1914C55.9762 30.1137 55.8273 30.0684 55.6396 30.1137C53.0637 30.6897 50.4618 31.0263 47.8212 30.9163C45.8407 30.8321 43.8214 30.6768 41.8992 31.1687C42.6564 30.3338 43.3036 29.3953 43.7178 28.3274C46.0155 28.2044 48.2872 27.842 50.5072 27.2401C50.6172 27.4666 50.8372 27.6414 51.1608 27.622C53.685 27.4731 56.125 27.842 58.5521 28.5151C60.8886 29.1623 63.3092 29.6477 65.5226 28.3662C66.2669 27.9326 65.445 26.8647 64.7007 27.2983C62.6037 28.5151 60.0277 27.5119 57.8854 26.9488C56.2674 26.5217 54.617 26.3016 52.9536 26.2563C53.2449 26.0686 53.5297 25.855 53.7821 25.5897C54.5523 24.7807 55.0118 23.7386 55.4454 22.729C55.5231 22.5478 55.5101 22.386 55.4584 22.2436C55.7431 22.1724 56.0215 22.1077 56.3127 21.9976C56.3451 21.9847 56.371 21.9717 56.3968 21.9588C56.4939 22.0106 56.6104 22.0429 56.7399 22.0365C58.235 21.9523 59.6847 22.3341 61.1215 22.6901C62.5907 23.0526 64.0729 23.3179 65.5874 23.4021C68.3963 23.5574 71.9754 23.4927 74.2018 21.5316C74.849 20.9621 74.0335 19.8877 73.3799 20.4637C72.1437 21.5511 70.5256 21.8358 68.9335 21.9976C67.5161 22.14 66.0857 22.1335 64.6683 21.9847C62.6231 21.7646 60.6297 21.0591 58.5974 20.7938C58.9663 20.5478 59.3287 20.2954 59.6782 20.0236C59.7753 20.0171 59.8724 19.9848 59.9695 19.933C62.8496 18.2761 66.3446 18.4444 69.4318 17.357C70.6939 16.9105 71.9042 16.2633 72.8621 15.3119C73.9559 14.2245 74.5125 12.833 75.0173 11.4027C75.3021 10.5872 74.0659 10.0564 73.7747 10.8784C73.2699 12.3217 72.7326 13.7262 71.5159 14.7229C70.4544 15.5966 69.1341 16.1015 67.8138 16.451C66.0145 16.9299 64.1764 17.1499 62.403 17.603C64.1635 15.8426 65.7751 13.9333 67.5873 12.2246C70.5774 9.39627 74.1306 7.52582 78.2599 7.09218C79.1272 7.00157 78.9654 5.66183 78.1046 5.75244L78.1305 5.72656ZM52.8048 24.6836C52.0475 25.4732 50.9473 25.745 49.9247 26.0103C48.216 26.4634 46.4685 26.7482 44.7081 26.897C46.8957 25.1625 48.4231 22.4442 51.5298 22.496C52.4229 22.5089 53.2708 22.5283 54.1057 22.4636C53.7627 23.2532 53.4002 24.0622 52.7983 24.6836H52.8048Z" fill="#9EDCDC"/>
</g>
</g>
<path d="M31.7315 66.4293C31.6733 66.3128 31.6344 66.1834 31.5697 66.0733C31.4856 65.9245 31.3755 65.808 31.2461 65.7174C31.2267 65.698 31.2073 65.6785 31.1814 65.6591C31.2979 65.2902 31.3432 64.876 31.3561 64.4682C31.3885 64.3259 31.4079 64.1834 31.4403 64.0411C31.5762 63.7692 31.6409 63.4651 31.6797 63.1285C31.7639 62.4166 31.8157 61.6917 31.8415 60.9733C31.8933 59.6012 31.8157 58.1902 31.3885 56.8764C31.3691 56.8181 31.3432 56.7534 31.3238 56.6952C31.3885 56.6434 31.4661 56.6046 31.5244 56.5398C32.0228 55.9897 32.0487 55.0706 32.1587 54.3716C32.3917 52.8248 32.5276 51.265 32.5405 49.7052C32.5405 48.8897 32.5146 48.0742 32.4564 47.2652C32.4046 46.5856 32.4111 45.8154 32.1263 45.1811C31.8674 44.5922 31.3432 44.178 30.6765 44.2492C30.0876 44.3074 29.6216 44.7216 29.5698 45.3171C29.518 45.4271 29.4662 45.5371 29.4209 45.6471C29.162 46.2879 28.9614 46.948 28.8255 47.6211C28.7931 47.77 28.7802 47.9189 28.7543 48.0677C28.6572 48.4366 28.5666 48.7991 28.4889 49.1745C28.2171 50.4948 28.1071 51.9446 28.3789 53.2908C28.3854 53.3426 28.3854 53.4008 28.3919 53.4526C28.5148 54.2551 28.7802 55.2519 29.2591 56.0156C29.2203 56.1839 29.2009 56.3651 29.1879 56.5527C29.0585 56.7146 28.9614 56.9022 28.8838 57.0835C28.5731 57.8019 28.5537 58.6174 28.5601 59.3876C28.5731 60.559 28.709 61.724 28.9679 62.8631C29.0067 63.1932 29.065 63.5168 29.1232 63.8404C29.1362 63.9828 29.1362 64.1187 29.1491 64.2611C29.2074 64.9213 29.3627 65.5232 29.6992 66.0798C29.6604 66.2999 29.6669 66.5329 29.6992 66.7659C29.7575 67.1348 29.8481 67.4972 29.9581 67.8597C29.9905 67.9567 30.0293 68.0474 30.0617 68.138C30.0876 68.2609 30.107 68.3904 30.1458 68.5069C30.3594 69.1929 30.683 69.8207 31.1296 70.3838C31.4209 70.7592 32.1263 70.6297 32.2428 70.1573C32.5535 68.9017 32.3593 67.5425 31.7186 66.4358L31.7315 66.4293Z" fill="#362A08"/>
<path d="M23.8742 59.3551C23.8936 59.2968 23.9131 59.2386 23.9195 59.1674C23.9195 59.1286 23.9195 59.0897 23.9195 59.0509C23.9972 58.7079 24.0231 58.3584 24.0231 58.0024C24.0231 57.2905 24.0101 56.5785 23.9778 55.8666C23.9389 54.9799 23.9519 53.9702 23.6801 53.0835C23.6736 52.9606 23.6801 52.8441 23.6671 52.7211C23.6283 52.281 23.5571 51.8409 23.3111 51.4655C23.5247 51.4849 23.7383 51.4525 23.9325 51.3102C24.3791 50.9866 24.4567 50.2746 24.5797 49.7698C24.7221 49.1808 24.8451 48.5918 24.9421 47.9964C25.1622 46.6631 25.2852 45.3105 25.2916 43.9578C25.2916 43.2588 24.4114 43.1488 24.1008 43.6018C24.0554 43.6018 24.0101 43.6018 23.9648 43.6212C23.9001 43.6471 23.8548 43.6924 23.7966 43.7247C23.6606 43.7118 23.5183 43.7248 23.4147 43.8024C22.4892 44.5079 22.2238 45.8282 21.9779 46.9091C21.7902 47.7375 21.6478 48.6825 21.9714 49.485C22.0361 50.0028 22.1267 50.5464 22.4504 50.9736C22.4892 51.0318 22.5474 51.0707 22.5992 51.116C22.4762 51.1354 22.3662 51.1937 22.2756 51.2843C22.1397 51.3555 22.0167 51.4719 21.9779 51.6596C21.8808 52.0803 21.8096 52.5075 21.7578 52.9347C21.5637 53.9314 21.473 54.941 21.5119 55.9507C21.5442 56.6821 21.6349 57.4199 21.7837 58.1383C21.9002 58.7014 22.062 59.2968 22.4504 59.7305C22.4504 59.8146 22.4439 59.9052 22.4504 59.9893C22.2627 60.5524 22.2368 61.1285 22.3791 61.7239C22.5345 62.3517 22.8581 62.9277 23.1817 63.4843C23.3306 63.7432 23.5765 63.8273 23.803 63.7885C24.0231 64.1186 24.2431 64.4422 24.5085 64.7399C24.8709 65.1412 25.68 64.8435 25.6282 64.2739C25.4599 62.5135 24.8645 60.8178 23.8937 59.3357L23.8742 59.3551Z" fill="#362A08"/>
<path d="M41.6274 71.7169C41.0967 70.8625 40.6954 69.7882 40.5724 69.3999C40.0288 67.6718 39.8734 65.8725 39.7375 64.0732C39.7375 64.0603 39.7375 64.0473 39.7375 64.0344C38.1907 61.5491 37.1745 58.7531 36.8703 55.8277C36.6956 54.1384 36.7279 52.4104 37.0127 50.7341C37.1163 50.1322 37.2522 49.2584 38.0483 49.2778C38.0483 49.2778 38.0547 49.2778 38.0612 49.2778C38.3848 49.1743 38.8055 49.2908 38.922 49.6597C39.3039 50.9088 39.6663 52.1644 40.0094 53.42C40.9413 55.2387 41.3814 57.2063 41.595 59.232C41.7374 59.7045 41.8604 60.177 41.9704 60.6559C42.0675 61.0831 42.1063 61.5297 42.0093 61.9309C42.0093 61.9568 42.0222 61.9827 42.0222 62.0151C42.0416 62.1186 42.0546 62.2287 42.061 62.3387C42.0999 62.5329 42.1452 62.727 42.1775 62.9212C42.3458 63.8532 42.6824 64.9988 42.294 65.866C42.5788 66.5909 42.8312 67.3223 43.0513 68.0666C43.0966 68.2154 43.1289 68.3643 43.1742 68.5132C43.3555 69.018 43.5173 69.5228 43.6467 70.0471C43.802 70.6878 43.9509 71.3803 43.8732 72.0276C45.0641 72.8819 45.8408 74.1957 46.4039 75.5678C46.5527 75.8267 46.7145 76.0791 46.8504 76.351C47.0575 76.7587 47.1935 77.1988 47.1093 77.6324C47.187 78.1049 47.1093 78.7327 46.6628 78.9334C46.2162 79.134 45.7308 78.8557 45.4525 78.4544C45.1418 78.0078 44.8829 77.5095 44.6305 77.0305C44.4557 76.7069 44.3134 76.3704 44.1515 76.0403C44.0804 75.9173 43.9962 75.7944 43.925 75.6714C43.5949 75.0824 43.2843 74.4805 42.993 73.8721C42.9024 73.6779 42.8183 73.4902 42.7471 73.2961C42.6629 73.2767 42.5788 73.2378 42.4882 73.1861C42.0092 72.9013 41.8021 72.3123 41.6403 71.7622C41.6339 71.7492 41.6274 71.7298 41.6209 71.7169H41.6274Z" fill="#362A08"/>
</g>
<defs>
<filter id="filter0_d_258_192032" x="0.0871777" y="0.3" width="78.6804" height="81.4" filterUnits="userSpaceOnUse" color-interpolation-filters="sRGB">
<feFlood flood-opacity="0" result="BackgroundImageFix"/>
<feColorMatrix in="SourceAlpha" type="matrix" values="0 0 0 0 0 0 0 0 0 0 0 0 0 0 0 0 0 0 127 0" result="hardAlpha"/>
<feMorphology radius="1" operator="dilate" in="SourceAlpha" result="effect1_dropShadow_258_192032"/>
<feOffset dx="0.43"/>
<feGaussianBlur stdDeviation="0.85"/>
<feComposite in2="hardAlpha" operator="out"/>
<feColorMatrix type="matrix" values="0 0 0 0 0.132578 0 0 0 0 0.132578 0 0 0 0 0.253333 0 0 0 0.54 0"/>
<feBlend mode="normal" in2="BackgroundImageFix" result="effect1_dropShadow_258_192032"/>
<feBlend mode="normal" in="SourceGraphic" in2="effect1_dropShadow_258_192032" result="shape"/>
</filter>
</defs>
</svg>
