<svg width="58" height="56" viewBox="0 0 58 56" fill="none" xmlns="http://www.w3.org/2000/svg">
<path d="M26.0955 44.949C26.0478 44.8822 26.0048 44.806 25.9476 44.744C25.8761 44.6629 25.7902 44.6009 25.6949 44.558C25.6806 44.5484 25.6663 44.5389 25.6472 44.5293C25.6758 44.2766 25.6519 44.0143 25.609 43.752C25.609 43.6566 25.609 43.566 25.609 43.4706C25.6615 43.2847 25.6662 43.0796 25.6519 42.8602C25.6138 42.3976 25.5613 41.9303 25.4898 41.4677C25.3515 40.5902 25.1274 39.6984 24.6981 38.9163C24.6791 38.8829 24.6552 38.8447 24.6314 38.8113C24.6695 38.7732 24.7077 38.7398 24.7411 38.6921C24.9891 38.282 24.8937 37.6906 24.8746 37.2328C24.8317 36.2218 24.7268 35.2108 24.5408 34.2188C24.4454 33.699 24.3262 33.184 24.1831 32.6785C24.0639 32.2492 23.9733 31.7628 23.7157 31.3908C23.4773 31.0475 23.091 30.8519 22.6809 30.9759C22.3137 31.0856 22.0657 31.4051 22.1086 31.7914C22.0895 31.8677 22.0705 31.944 22.0561 32.0203C21.9703 32.4591 21.9274 32.9026 21.9226 33.3509C21.9226 33.451 21.9274 33.5464 21.9321 33.6465C21.9131 33.8898 21.9035 34.1378 21.8988 34.381C21.8892 35.2537 21.9989 36.1932 22.3375 37.0134C22.347 37.0468 22.3566 37.0802 22.3661 37.1136C22.5426 37.6096 22.8383 38.2105 23.2341 38.6349C23.2293 38.7494 23.2341 38.8638 23.2579 38.983C23.1959 39.1022 23.1578 39.2358 23.1292 39.3598C23.0195 39.8558 23.1053 40.3756 23.2055 40.8668C23.3581 41.6107 23.5917 42.3356 23.897 43.0271C23.9637 43.2322 24.04 43.4277 24.1163 43.628C24.1402 43.7139 24.1593 43.8045 24.1831 43.8903C24.3023 44.3004 24.474 44.6676 24.7601 44.9776C24.7601 45.1255 24.7983 45.2733 24.8508 45.4116C24.9366 45.6405 25.0368 45.8599 25.1512 46.0745C25.1798 46.1317 25.218 46.1842 25.2514 46.2366C25.2847 46.3129 25.3086 46.3892 25.3515 46.4608C25.5709 46.8709 25.857 47.2286 26.2099 47.5338C26.4436 47.7341 26.8728 47.5672 26.8871 47.2524C26.9253 46.4131 26.6391 45.5785 26.0907 44.949H26.0955Z" fill="#B2B2B2"/>
<path d="M20.1008 40.7525C20.1103 40.7144 20.1198 40.6762 20.1198 40.6285C20.1198 40.6047 20.1198 40.5761 20.1198 40.5522C20.1532 40.3281 20.158 40.0992 20.1437 39.8703C20.1151 39.4124 20.0721 38.9498 20.0197 38.492C19.9529 37.9197 19.9195 37.2664 19.7049 36.7037C19.6954 36.6274 19.6906 36.5463 19.6811 36.47C19.6382 36.1838 19.5714 35.9072 19.3997 35.6735C19.538 35.6735 19.6763 35.6449 19.7955 35.5448C20.0674 35.3159 20.0865 34.8533 20.1437 34.5242C20.2104 34.1379 20.2629 33.7517 20.301 33.3606C20.3869 32.4879 20.406 31.6104 20.3535 30.7377C20.3249 30.2894 19.7526 30.2512 19.5666 30.5612C19.538 30.5612 19.5046 30.566 19.4808 30.5803C19.4379 30.5994 19.414 30.6328 19.3759 30.6566C19.2853 30.6566 19.1994 30.6661 19.1327 30.7233C18.5651 31.2193 18.4507 32.0873 18.3362 32.7979C18.2504 33.3415 18.2027 33.9567 18.4412 34.467C18.5079 34.7961 18.589 35.1442 18.8131 35.4065C18.8417 35.4399 18.8799 35.4637 18.918 35.4923C18.8417 35.5114 18.7702 35.5543 18.713 35.6163C18.6271 35.6688 18.5556 35.7499 18.5365 35.8739C18.4936 36.1505 18.465 36.4271 18.4507 36.7084C18.3696 37.357 18.3553 38.0199 18.4221 38.6685C18.4745 39.1406 18.5651 39.6127 18.6939 40.0706C18.7941 40.4282 18.9228 40.805 19.1947 41.072C19.1947 41.1293 19.1947 41.1865 19.2042 41.239C19.104 41.6109 19.1136 41.9877 19.2376 42.3644C19.3663 42.765 19.6 43.1227 19.8289 43.4661C19.9386 43.6282 20.5586 44.0383 20.7398 44.2196C20.9878 44.4628 21.5028 44.2339 21.4408 43.8714C21.2549 42.7412 20.797 41.6682 20.1008 40.7573V40.7525Z" fill="#B2B2B2"/>
<path d="M31.4939 47.5333C31.0837 47.0278 30.7356 46.3697 30.6259 46.1313C30.1347 45.063 29.8867 43.9185 29.653 42.7739C29.653 42.7644 29.653 42.7548 29.653 42.7453C28.456 41.2765 27.5738 39.5596 27.135 37.7045C26.8823 36.6315 26.763 35.5203 26.806 34.4187C26.8203 34.0228 26.8393 33.4506 27.3496 33.3981C27.3496 33.3981 27.3496 33.3981 27.3544 33.3981C27.5499 33.3027 27.836 33.3457 27.9362 33.5746C28.2843 34.3471 28.6182 35.1245 28.9424 35.9018C29.6912 36.9939 30.1347 38.2243 30.4399 39.5072C30.5687 39.7981 30.6879 40.0938 30.7976 40.3942C30.893 40.6565 30.955 40.9474 30.9311 41.2097C30.9359 41.2288 30.9454 41.2431 30.9502 41.2622C30.9693 41.3289 30.9883 41.4005 31.0026 41.4672C31.0456 41.5864 31.0885 41.7104 31.1266 41.8344C31.3126 42.421 31.6226 43.1268 31.4414 43.7182C31.6846 44.1569 31.9088 44.61 32.1091 45.0726C32.1472 45.1632 32.1854 45.2586 32.2235 45.3492C32.3809 45.6592 32.5287 45.9691 32.6527 46.2982C32.8053 46.6988 32.9579 47.128 32.9627 47.5524C33.7973 48.0007 34.4077 48.7828 34.8798 49.6174C34.9943 49.7748 35.1231 49.9226 35.228 50.0848C35.3949 50.3327 35.5189 50.5998 35.4998 50.8859C35.5904 51.1816 35.5904 51.5965 35.3186 51.7587C35.0468 51.9208 34.7129 51.7873 34.4983 51.5488C34.2646 51.2865 34.0548 50.9861 33.8545 50.6999C33.7162 50.5044 33.5922 50.3041 33.4682 50.1038C33.411 50.0275 33.349 49.9608 33.2918 49.8845C33.0295 49.5316 32.7815 49.1739 32.5478 48.8067C32.4715 48.6875 32.4047 48.573 32.3427 48.4585C32.2903 48.449 32.2331 48.4347 32.1711 48.4108C31.8372 48.2678 31.6608 47.9053 31.5082 47.5667C31.5034 47.5572 31.4986 47.5476 31.4939 47.5381V47.5333Z" fill="#B2B2B2"/>
<path d="M27.5309 34.5188C27.5309 34.5188 27.5023 38.1528 29.5625 39.5978C31.6227 41.0428 36.487 43.4988 38.8906 44.5146C43.0491 46.2696 45.8581 46.2982 49.1248 45.4684C49.1248 45.4684 52.1484 40.0318 49.411 35.8637C47.2363 32.5492 47.9755 30.6893 40.9222 27.6754C34.4745 24.9141 33.8069 25.7058 31.4367 27.3081C29.2811 28.7627 27.5261 34.5236 27.5261 34.5236L27.5309 34.5188Z" fill="#B2B2B2"/>
<mask id="mask0_74_27362" style="mask-type:luminance" maskUnits="userSpaceOnUse" x="27" y="25" width="24" height="21">
<path d="M27.5309 34.5188C27.5309 34.5188 27.5023 38.1528 29.5625 39.5978C31.6227 41.0428 36.487 43.4988 38.8906 44.5146C43.0491 46.2696 45.8581 46.2982 49.1248 45.4684C49.1248 45.4684 52.1484 40.0318 49.411 35.8637C47.2363 32.5492 47.9755 30.6893 40.9222 27.6754C34.4745 24.9141 33.8069 25.7058 31.4367 27.3081C29.2811 28.7627 27.5261 34.5236 27.5261 34.5236L27.5309 34.5188Z" fill="white"/>
</mask>
<g mask="url(#mask0_74_27362)">
<path d="M38.6521 28.019C38.7475 27.2559 38.7285 26.4929 38.4852 25.7775C38.4137 25.5677 38.2468 25.4819 38.0751 25.4628C38.0227 25.315 37.9797 25.1624 37.9177 25.0145C37.7222 24.5376 37.0355 24.6425 36.9639 25.0288C36.6015 24.447 35.724 24.3659 35.3616 24.8094C35.1422 24.5281 34.8799 24.2896 34.5556 24.1179C34.3267 23.9987 34.031 24.0607 33.8975 24.2896C33.7687 24.5042 33.8402 24.8285 34.0692 24.9477C34.527 25.1862 34.8322 25.6536 35.0182 26.1209C35.1326 26.4118 35.2137 26.717 35.2805 27.0223C35.228 29.4449 34.3935 31.7531 33.33 33.942C32.8435 34.7098 32.3189 35.4443 31.8134 36.131C31.2793 36.8559 30.7166 37.5569 30.1443 38.2532C29.386 38.7587 28.5467 39.2356 27.6167 39.1974C26.9968 39.1736 26.9968 40.1369 27.6167 40.1608C27.9696 40.1751 28.3082 40.1226 28.6421 40.0368C28.6135 40.0702 28.5848 40.1083 28.5562 40.1417C27.9982 40.795 27.4451 41.4579 26.8346 42.0684C26.291 42.612 25.5136 43.4705 24.66 43.2368C24.0591 43.0746 23.8063 44.0046 24.4024 44.1667C24.6314 44.2287 24.8603 44.2478 25.0796 44.2335C24.8603 44.7199 24.9795 45.4019 25.6233 45.6403C26.9586 46.1363 28.0746 45.3065 28.9711 44.3145C30.3684 43.7899 31.4987 42.3593 32.3905 41.2576C32.9818 40.5232 33.5303 39.7602 34.0453 38.9733C37.0116 36.0976 39.048 32.0869 38.6665 28.0047L38.6521 28.019ZM28.1604 42.2782C28.0746 42.3831 27.9696 42.5166 27.86 42.6597C27.5118 42.7742 27.3258 43.0269 27.2877 43.3226C26.9825 43.6278 26.6439 43.8424 26.3053 43.8138C27.2447 43.2368 28.0507 42.2019 28.6659 41.4865C28.9139 41.2004 29.1523 40.9095 29.4003 40.6234C29.0093 41.1909 28.6039 41.7488 28.1604 42.2782Z" fill="#B2B2B2"/>
<path d="M44.8232 28.095C44.8232 27.5704 44.1412 27.4941 43.9266 27.8566C43.7979 27.7707 43.6548 27.7182 43.5022 27.6992C43.4831 27.6229 43.4688 27.5418 43.4449 27.4655C43.2447 26.8217 42.6104 26.6881 42.1239 26.8837C41.8187 26.7692 41.3657 27.022 41.4515 27.4559C42.0715 30.6845 41.1177 33.8082 39.6536 36.6553C39.3865 37.0559 39.1147 37.447 38.8286 37.8332C37.1833 40.0508 35.3758 42.1539 33.5636 44.2475C33.5207 44.2761 33.4778 44.3047 33.4349 44.3334C32.8864 44.3906 32.5478 44.9104 32.5717 45.4016C32.4191 45.5781 32.2665 45.7545 32.1138 45.9357C31.9279 45.9548 31.7514 46.0407 31.6036 46.1599C31.4891 46.2028 31.3842 46.2648 31.2602 46.2982C30.7595 46.446 30.8644 47.1232 31.2697 47.2281C31.3127 47.3473 31.3746 47.4666 31.4796 47.581L31.6846 47.7956C32.0232 48.1485 32.7147 48.1867 33.0486 47.7956C33.0772 47.7623 33.1058 47.7289 33.1344 47.6955C33.9928 47.7765 34.9514 46.4794 35.4617 45.95C35.9052 45.4922 36.3487 45.0296 36.7922 44.5718C37.0068 44.3763 37.2167 44.1664 37.4313 43.9614C38.819 43.1697 39.9397 42.0729 40.8649 40.8091C41.4277 40.2797 41.8616 39.5978 42.2432 38.9349C42.8631 37.8619 43.3543 36.7173 43.7358 35.5441C43.7549 35.4821 43.7692 35.4154 43.7883 35.3534C44.4798 33.7653 44.8661 32.0723 44.723 30.3555C44.7803 29.602 44.8232 28.8437 44.8232 28.0855V28.095Z" fill="#B2B2B2"/>
<path d="M49.5683 31.9346C49.3441 31.5578 48.8815 31.4052 48.4905 31.4863C48.4618 31.2955 48.4428 31.1048 48.4142 30.9092C48.2902 30.0699 48.0899 29.2496 47.5319 28.5915C47.2696 28.2815 46.6735 28.5247 46.7069 28.9349C46.7403 29.2925 46.8547 29.6073 46.9787 29.9316C46.8929 30.0508 46.8452 30.1986 46.8976 30.3369C47.0026 30.6231 47.1027 30.9092 47.2029 31.1954C47.2649 32.0967 47.2935 33.0028 47.2553 33.9042C46.9835 36.3363 45.8198 38.5873 44.5418 40.6618C44.2127 41.2007 43.8598 41.7253 43.5164 42.2499C42.8201 42.9318 42.0476 43.5423 41.2559 44.105C40.5215 44.6296 39.768 45.1351 38.9954 45.6072C38.2658 46.0555 37.4217 46.6993 36.5299 46.6802C36.0434 46.6707 35.9433 47.2525 36.2199 47.5148C36.0387 47.5816 35.8622 47.6579 35.681 47.7151C35.0944 47.9106 35.3472 48.8453 35.9385 48.645C37.4789 48.1252 38.9287 47.3956 40.2687 46.499C40.2354 46.5372 40.2067 46.5753 40.1781 46.6087C39.9588 46.7709 39.7346 46.9282 39.5057 47.0665C39.148 47.2763 39.024 47.6054 39.0479 47.9202C38.8714 48.1252 38.695 48.3303 38.5138 48.5354C37.6983 49.4653 39.0622 50.8388 39.8777 49.8993C39.9063 49.8659 39.9397 49.8278 39.9683 49.7944C40.8363 49.2984 41.4658 48.5211 42.0094 47.6817C42.2479 47.4433 42.4863 47.2096 42.72 46.9664C42.8392 46.8519 42.9394 46.7184 43.0538 46.6039C44.0744 45.922 44.909 44.9443 45.6577 43.9905C46.5256 42.8841 47.2887 41.7062 47.9277 40.4567C49.2297 37.9196 50.0213 35.1632 50.2884 32.3209C50.3265 31.8964 49.8878 31.7724 49.5874 31.9298L49.5683 31.9346Z" fill="#B2B2B2"/>
</g>
<path d="M24.2404 24.8809C24.2404 24.8809 34.5318 21.452 41.7091 16.3445C48.8865 11.2369 52.9353 4.6128 50.7511 1.54158C48.5669 -1.52487 40.9795 0.125191 33.8022 5.23276C26.6249 10.3403 24.2356 24.8809 24.2356 24.8809H24.2404Z" fill="#B2B2B2"/>
<mask id="mask1_74_27362" style="mask-type:luminance" maskUnits="userSpaceOnUse" x="24" y="0" width="28" height="25">
<path d="M24.2404 24.8809C24.2404 24.8809 34.5318 21.452 41.7091 16.3445C48.8865 11.2369 52.9353 4.6128 50.7511 1.54158C48.5669 -1.52487 40.9795 0.125191 33.8022 5.23276C26.6249 10.3403 24.2356 24.8809 24.2356 24.8809H24.2404Z" fill="white"/>
</mask>
<g mask="url(#mask1_74_27362)">
<path d="M51.452 -4.41945C48.9292 -3.53242 46.7307 -1.94437 45.0949 0.177824C43.5355 2.20464 42.472 4.54621 41.0842 6.68271C40.3689 7.78434 39.5629 8.88598 38.5423 9.73009C38.0654 10.1307 37.5361 10.4788 36.9543 10.7077C36.3295 10.9509 35.6667 11.0272 35.0181 11.1703C34.8798 11.1989 34.7558 11.2514 34.627 11.2895C34.6079 11.2705 34.6032 11.2466 34.5793 11.2323C34.3075 11.0034 35.0991 10.1545 35.2231 9.97806C35.4807 9.61085 35.7334 9.24366 35.9766 8.86691C36.5108 8.05618 37.0163 7.23115 37.4979 6.39181C38.466 4.69882 39.3149 2.94384 40.0589 1.14117C40.3021 0.549813 39.396 0.139688 39.1528 0.731041C38.2896 2.82939 37.2786 4.86574 36.1102 6.80671C35.5236 7.78435 34.8941 8.73337 34.2312 9.65855C33.7972 10.2642 33.2774 11.0225 33.6828 11.6854C33.1629 11.981 32.7003 12.3626 32.2998 12.8633C32.1996 12.9873 32.1138 13.1161 32.0232 13.2448C32.047 11.9572 31.9659 10.6648 32.1567 9.38671C32.4238 7.61265 33.1725 5.94828 34.3027 4.55574C34.7033 4.05976 33.9355 3.43029 33.5302 3.92626C32.3522 5.3808 31.5463 7.1167 31.2172 8.95752C30.8738 10.8794 31.2077 12.8395 30.9167 14.7614C30.9072 14.8281 30.9167 14.8853 30.9263 14.9426C30.7498 15.2239 30.5638 15.5005 30.3588 15.7628C28.6038 18.0376 24.946 18.1855 23.8777 21.1089C23.6584 21.705 24.5645 22.1199 24.7838 21.519C25.5326 19.4779 27.8312 18.8722 29.591 17.761C29.2571 19.4111 28.1651 20.7512 27.0777 21.9959C26.4435 22.7208 25.7996 23.4361 25.2512 24.2278C24.8268 24.843 24.0733 25.792 24.4119 26.5836C24.6598 27.1702 25.5946 26.8316 25.3466 26.245C25.2226 25.9589 25.69 25.3676 25.8378 25.1386C26.0953 24.7381 26.3862 24.3518 26.6867 23.9846C27.2685 23.2692 27.898 22.5968 28.4893 21.8862C28.6563 21.6859 28.8089 21.4761 28.9615 21.271C29.1141 21.4141 29.3382 21.4713 29.5528 21.3091C31.0217 20.1932 32.8959 20.0454 34.6461 19.6734C36.3295 19.3157 37.9367 18.7101 39.4866 17.9756C39.582 18.0043 39.6774 18.009 39.768 17.9661C40.4356 17.637 41.0365 17.5035 41.7757 17.5131C41.8806 17.5131 41.852 17.513 41.9569 17.5226C42.0428 17.5273 42.1286 17.5369 42.2145 17.5464C42.3909 17.5703 42.5721 17.6037 42.7438 17.6466C42.7867 17.6561 42.8249 17.6704 42.8678 17.68C42.8964 17.6847 42.8964 17.6895 42.906 17.6895C42.9155 17.6895 42.9155 17.6895 42.9441 17.7038C43.0252 17.7324 43.1063 17.7563 43.1873 17.7896C43.3638 17.8564 43.5355 17.9375 43.7024 18.0233C43.9408 18.1473 44.2556 18.009 44.3605 17.7753C44.475 17.5178 44.351 17.246 44.1125 17.1172C42.8106 16.4257 41.1987 16.3447 39.8252 16.874C39.7298 16.8359 39.6154 16.8311 39.4866 16.8931C37.7411 17.7419 35.9337 18.4287 34.0214 18.8007C32.5859 19.0773 31.1123 19.311 29.8199 19.9882C30.2205 19.2585 30.5257 18.4811 30.6402 17.6418C32.2664 17.1649 33.8354 16.5163 35.3233 15.7104C35.4425 15.8534 35.6285 15.9393 35.8574 15.8725C37.6458 15.3336 39.4532 15.1858 41.3083 15.2573C43.0919 15.3241 44.9089 15.2573 46.2776 13.9649C46.7402 13.5262 45.9677 12.9015 45.5051 13.3354C44.2079 14.5658 42.1906 14.2797 40.5596 14.2415C39.3292 14.2129 38.1084 14.3321 36.9066 14.5849C37.083 14.3989 37.25 14.1986 37.3883 13.9649C37.8032 13.2544 37.9558 12.4293 38.0941 11.6281C38.1179 11.4851 38.0845 11.3706 38.0178 11.2752C38.2085 11.1751 38.3993 11.0797 38.5853 10.9509C38.6044 10.9366 38.6234 10.9223 38.6425 10.908C38.7236 10.9271 38.8094 10.9319 38.9048 10.908C39.9587 10.5933 41.0651 10.6219 42.1572 10.6314C43.2732 10.641 44.3796 10.5837 45.4812 10.3834C47.5223 10.0162 50.0785 9.36287 51.3375 7.57451C51.7047 7.05469 50.9369 6.42518 50.5649 6.945C49.8639 7.93694 48.7527 8.41385 47.6368 8.80014C46.6448 9.1435 45.6195 9.38195 44.5799 9.51548C43.0729 9.70624 41.5277 9.53933 40.0255 9.69193C40.2496 9.45348 40.4643 9.21028 40.6693 8.95752C40.7361 8.93368 40.8028 8.89553 40.8648 8.84307C42.6484 7.16439 45.1855 6.69226 47.2076 5.38556C48.0374 4.85144 48.7957 4.179 49.3203 3.33966C49.9211 2.37155 50.0833 1.28425 50.1977 0.168305C50.2645 -0.465968 49.2869 -0.6329 49.2201 0.00137377C49.1009 1.12208 48.9578 2.21896 48.2568 3.13937C47.6416 3.94532 46.7831 4.53189 45.8961 5.00402C44.6848 5.6526 43.4067 6.12475 42.2145 6.74948C43.1778 5.19003 44.0076 3.54474 45.0139 2.0139C46.6782 -0.523198 48.9053 -2.46895 51.7906 -3.47997C52.3962 -3.69458 52.0529 -4.62454 51.452 -4.4147V-4.41945ZM36.5203 13.4833C36.1149 14.1748 35.3662 14.5611 34.6842 14.9235C33.5349 15.5387 32.3331 16.0395 31.098 16.4448C32.3713 14.8281 33.0056 12.6201 35.2422 12.1289C35.886 11.9858 36.4965 11.8571 37.083 11.6663C36.9734 12.291 36.8494 12.9301 36.5251 13.4785L36.5203 13.4833Z" fill="#B2B2B2"/>
</g>
<path d="M16.0806 24.9624C16.0806 24.9624 18.8323 22.907 21.7366 22.7544C24.6409 22.6018 28.7565 22.473 31.5464 24.5666C34.3363 26.6601 29.7199 35.664 27.3783 36.4842C25.0367 37.3045 17.7831 34.0711 16.7769 31.7725C16.2427 30.5516 16.1188 29.965 16.0806 28.2005C16.0377 26.436 16.0806 24.9576 16.0806 24.9576V24.9624Z" fill="#B2B2B2"/>
<mask id="mask2_74_27362" style="mask-type:luminance" maskUnits="userSpaceOnUse" x="16" y="22" width="17" height="15">
<path d="M16.0806 24.9624C16.0806 24.9624 18.8323 22.907 21.7366 22.7544C24.6409 22.6018 28.7565 22.473 31.5464 24.5666C34.3363 26.6601 29.7199 35.664 27.3783 36.4842C25.0367 37.3045 17.7831 34.0711 16.7769 31.7725C16.2427 30.5516 16.1188 29.965 16.0806 28.2005C16.0377 26.436 16.0806 24.9576 16.0806 24.9576V24.9624Z" fill="white"/>
</mask>
<g mask="url(#mask2_74_27362)">
<path d="M31.389 27.523C31.5321 26.2735 30.7071 25.0765 29.4814 24.5614C28.3369 24.0798 27.0445 24.2276 25.8999 24.6568C25.2323 24.2753 24.4454 24.1561 23.6919 24.2801C23.277 24.1227 22.8335 24.0702 22.3947 24.137C21.9178 23.9892 21.398 23.9701 20.9068 24.1084C20.449 24.2371 20.0579 24.4756 19.7193 24.7713C18.2266 25.1862 17.6734 26.7218 17.621 28.2479C17.5733 29.6357 18.26 31.157 19.6716 31.5862C19.6955 31.6291 19.7193 31.672 19.7432 31.7149C19.9053 31.9915 20.0961 32.2681 20.325 32.5018C20.5301 32.7116 20.7876 32.8642 21.0546 32.9882C21.1071 33.0931 21.1596 33.2028 21.2216 33.2982C21.7414 34.0565 22.5664 34.4857 23.4821 34.5143C23.773 34.5238 24.0734 34.4905 24.3691 34.438C24.9986 34.7575 25.7044 34.9101 26.4054 34.7384C26.4817 34.7194 26.5485 34.6812 26.6248 34.6574C27.3592 34.829 28.1652 34.6717 28.809 34.2949C29.9249 33.6464 30.6212 32.5638 31.0456 31.3763C31.4415 30.2699 31.6322 28.8011 31.3747 27.523H31.389Z" fill="#B2B2B2"/>
<path d="M28.127 26.5884C26.8966 25.9732 25.6089 26.1115 24.3928 26.617C24.2975 26.493 24.1973 26.3738 24.0638 26.2737C23.6823 25.978 23.2435 25.854 22.8143 25.8826C22.6379 25.7586 22.4519 25.6632 22.2468 25.6155C21.1738 25.3723 20.2248 25.9398 19.8719 26.9652C19.4522 28.1765 19.9625 29.6024 21.2119 30.0507C21.4504 30.3321 21.7461 30.561 22.0847 30.704C22.3803 30.828 22.6903 30.8948 22.9955 30.9139C23.4391 31.3812 24.0781 31.653 24.7457 31.6769C24.9365 31.6817 25.1273 31.6674 25.318 31.6388C26.0572 31.9058 26.887 31.8295 27.6119 31.5052C28.1508 31.4575 28.6802 31.2429 29.1046 30.8233C30.459 29.4736 29.6673 27.3705 28.1222 26.6027L28.127 26.5884Z" fill="#B2B2B2"/>
</g>
<path d="M10.7823 24.762C9.79987 23.4553 7.61091 23.8511 6.25652 24.2612C4.64461 24.7477 3.18529 25.7062 2.11704 27.0082C1.72598 27.4851 2.40795 28.1718 2.79901 27.6901C3.68127 26.6123 4.83535 25.773 6.15636 25.3056C6.80017 25.0767 7.4726 24.9289 8.15456 24.8812C8.53608 24.8574 9.10837 24.8097 9.53758 24.9671C6.57128 25.072 4.12479 27.1179 2.75609 29.6645C2.46041 30.2129 3.29499 30.6994 3.59066 30.1509C4.85921 27.7903 7.1054 25.8445 9.90956 25.9065C10.2148 25.9113 10.3722 25.6824 10.3722 25.4392C10.7155 25.4249 11.035 25.1006 10.7775 24.7572L10.7823 24.762Z" fill="#B2B2B2"/>
<path d="M8.91284 27.2416C8.91284 30.5083 10.9969 33.9944 12.2559 34.1852C12.4562 34.2138 13.286 34.4189 13.4386 34.3903C13.6246 34.3569 13.2908 33.9468 13.4672 33.8752C15.3128 33.1313 16.8341 30.4416 17.3492 27.7137C17.9024 24.776 17.1679 21.061 13.0428 21.3281C10.768 21.4759 8.91762 23.9748 8.91762 27.2416H8.91284Z" fill="#B2B2B2"/>
<path d="M8.7793 27.7139C8.7793 29.8123 10.2434 32.1109 11.0636 32.1109C12.5277 32.1109 13.8106 30.0841 14.2016 28.0191C14.5593 26.1306 14.0872 23.7414 11.4356 23.913C9.97155 24.0084 8.78407 25.6156 8.78407 27.7139H8.7793Z" fill="#B2B2B2"/>
<path d="M8.91284 27.1795C8.91284 28.4385 9.79511 29.8216 10.2863 29.8216C11.1686 29.8216 11.9364 28.6007 12.1701 27.3655C12.3847 26.2305 12.0985 24.795 10.5057 24.9C9.6282 24.9572 8.91284 25.9205 8.91284 27.1843V27.1795Z" fill="#B2B2B2"/>
<path d="M24.5933 24.2367C24.5933 24.2367 35.3998 23.2734 43.5595 19.9637C51.7192 16.6541 57.1892 11.1364 55.7729 7.65026C54.3565 4.15937 46.5926 4.01628 38.4328 7.33072C30.2684 10.6452 24.5933 24.2415 24.5933 24.2415V24.2367Z" fill="#B2B2B2"/>
<mask id="mask3_74_27362" style="mask-type:luminance" maskUnits="userSpaceOnUse" x="24" y="4" width="32" height="21">
<path d="M24.5933 24.2367C24.5933 24.2367 35.3998 23.2734 43.5595 19.9637C51.7192 16.6541 57.1892 11.1364 55.7729 7.65026C54.3565 4.15937 46.5926 4.01628 38.4328 7.33072C30.2684 10.6452 24.5933 24.2415 24.5933 24.2415V24.2367Z" fill="white"/>
</mask>
<g mask="url(#mask3_74_27362)">
<path d="M57.8329 2.00879C55.1719 2.29016 52.6681 3.32979 50.5889 5.01324C48.605 6.62515 47.0312 8.65674 45.1856 10.4165C44.2366 11.3226 43.1969 12.2049 42.0095 12.7962C41.4515 13.0728 40.8601 13.2922 40.2402 13.3828C39.5773 13.4782 38.9144 13.3971 38.2467 13.3828C38.1037 13.3828 37.9749 13.4018 37.8366 13.4066C37.8223 13.3828 37.8223 13.359 37.8032 13.3399C37.5934 13.0537 38.5567 12.4099 38.7189 12.2669C39.0527 11.9712 39.3818 11.6707 39.7108 11.3607C40.4166 10.6979 41.1034 10.0111 41.7615 9.30054C43.092 7.87938 44.3272 6.36763 45.4622 4.78434C45.8342 4.26452 45.0473 3.65408 44.6753 4.17867C43.3543 6.02426 41.8998 7.76493 40.3117 9.39115C39.5153 10.2066 38.6855 10.984 37.8271 11.7327C37.2691 12.2192 36.5871 12.8391 36.8256 13.5783C36.2533 13.7452 35.7144 14.0123 35.2041 14.4033C35.0801 14.4987 34.9657 14.6084 34.8465 14.7133C35.166 13.4639 35.3854 12.1906 35.867 10.9888C36.5395 9.3244 37.6506 7.8794 39.0718 6.78254C39.5773 6.39148 38.9764 5.59982 38.4661 5.99564C36.9877 7.1402 35.8003 8.64244 35.0563 10.3593C34.2789 12.1476 34.1502 14.1315 33.4253 15.9389C33.4015 16.0009 33.3919 16.0582 33.3919 16.1154C33.1535 16.3491 32.9103 16.5732 32.6527 16.7831C30.4161 18.5905 26.825 17.8942 25.113 20.4886C24.7648 21.0179 25.547 21.6284 25.8999 21.0942C27.0969 19.282 29.4766 19.2248 31.4414 18.5476C30.7356 20.0737 29.3621 21.1276 28.0173 22.0862C27.2352 22.6441 26.4387 23.1926 25.7234 23.8364C25.1654 24.3371 24.2164 25.0858 24.3595 25.9347C24.4692 26.5642 25.4563 26.4498 25.3467 25.8203C25.2942 25.5151 25.8808 25.0477 26.0811 24.8569C26.4244 24.5231 26.7964 24.2179 27.1779 23.927C27.9076 23.3642 28.6802 22.8587 29.4146 22.3008C29.6197 22.1434 29.8199 21.9765 30.0155 21.8096C30.1299 21.986 30.335 22.0909 30.583 21.9813C32.2712 21.2373 34.1264 21.5234 35.9147 21.5664C37.6363 21.6045 39.3388 21.3851 41.0175 21.0322C41.1034 21.0799 41.194 21.1085 41.2941 21.0847C42.019 20.9178 42.6342 20.9273 43.3543 21.1085C43.4545 21.1324 43.4306 21.1276 43.5308 21.1562C43.6119 21.18 43.6929 21.2087 43.774 21.2421C43.9409 21.3041 44.1078 21.3804 44.2652 21.4614C44.3033 21.4805 44.3415 21.4996 44.3796 21.5234C44.4035 21.5377 44.4083 21.5377 44.413 21.5425C44.4178 21.5425 44.4226 21.5473 44.4464 21.5616C44.5179 21.6045 44.5895 21.6522 44.661 21.6999C44.8184 21.8048 44.9662 21.924 45.1045 22.048C45.3048 22.2245 45.6434 22.1625 45.8008 21.9574C45.9725 21.7333 45.9105 21.4376 45.7102 21.2611C44.6038 20.2883 43.0539 19.8352 41.5946 20.0355C41.5087 19.9783 41.399 19.9449 41.2607 19.9783C39.3627 20.4027 37.4455 20.6507 35.4998 20.5696C34.0405 20.5076 32.5526 20.3932 31.1362 20.7556C31.6942 20.1404 32.1711 19.4489 32.4763 18.662C34.1693 18.5714 35.8432 18.3044 37.4789 17.8609C37.56 18.0278 37.7221 18.1565 37.9606 18.1422C39.8205 18.0325 41.6184 18.3044 43.4068 18.8003C45.1284 19.2772 46.912 19.6349 48.543 18.6906C49.0914 18.3711 48.4857 17.5843 47.9373 17.9038C46.3922 18.8004 44.4941 18.0611 42.9156 17.6462C41.7233 17.3315 40.5072 17.1693 39.2816 17.136C39.4962 16.9977 39.7061 16.8403 39.892 16.6448C40.4596 16.0486 40.7982 15.2809 41.1177 14.5369C41.1749 14.4034 41.1653 14.2841 41.1272 14.1792C41.337 14.1268 41.5421 14.0791 41.7567 13.998C41.7805 13.9885 41.7996 13.9789 41.8187 13.9694C41.8902 14.0075 41.9761 14.0314 42.0715 14.0266C43.1731 13.9646 44.2413 14.246 45.3001 14.5083C46.3826 14.7753 47.4747 14.9709 48.5907 15.0329C50.6604 15.1473 53.2976 15.0996 54.9382 13.6546C55.4151 13.2349 54.8142 12.4433 54.3325 12.8678C53.4216 13.6689 52.2294 13.8788 51.0562 13.998C50.0118 14.1029 48.9579 14.0981 47.9135 13.9884C46.4065 13.8263 44.9376 13.3065 43.4402 13.1109C43.712 12.9297 43.9791 12.7437 44.2366 12.5434C44.3081 12.5387 44.3797 12.5148 44.4512 12.4767C46.5734 11.2558 49.1486 11.3798 51.4234 10.5786C52.3534 10.2496 53.2452 9.77268 53.951 9.07164C54.7569 8.27045 55.1671 7.24513 55.5391 6.19119C55.7489 5.5903 54.838 5.19921 54.6234 5.80487C54.2514 6.86835 53.8556 7.90322 52.959 8.63764C52.1769 9.28146 51.2041 9.65346 50.2312 9.91098C48.9054 10.2639 47.551 10.426 46.2443 10.7598C47.5415 9.46268 48.729 8.05584 50.0643 6.79683C52.2676 4.71279 54.8857 3.33456 57.9283 3.01504C58.5674 2.94827 58.4482 1.96109 57.8139 2.02785L57.8329 2.00879ZM39.1719 15.9771C38.614 16.5589 37.8032 16.7592 37.0497 16.9547C35.7907 17.2886 34.5031 17.4984 33.2059 17.6081C34.8178 16.33 35.9433 14.327 38.2324 14.3652C38.8906 14.3747 39.5153 14.389 40.1305 14.3413C39.8777 14.9232 39.6107 15.5193 39.1672 15.9771H39.1719Z" fill="#B2B2B2"/>
</g>
<path d="M23.6441 46.7368C23.6012 46.651 23.5726 46.5556 23.5249 46.4745C23.4629 46.3648 23.3818 46.279 23.2864 46.2122C23.2721 46.1979 23.2578 46.1836 23.2388 46.1693C23.3246 45.8975 23.358 45.5923 23.3675 45.2918C23.3914 45.1869 23.4057 45.082 23.4295 44.9771C23.5297 44.7768 23.5774 44.5526 23.606 44.3046C23.668 43.7801 23.7061 43.2459 23.7252 42.7166C23.7633 41.7055 23.7061 40.6659 23.3914 39.6978C23.3771 39.6549 23.358 39.6072 23.3437 39.5643C23.3914 39.5261 23.4486 39.4975 23.4915 39.4498C23.8587 39.0445 23.8778 38.3673 23.9589 37.8522C24.1306 36.7124 24.2307 35.5631 24.2402 34.4138C24.2402 33.8129 24.2212 33.212 24.1782 32.6159C24.1401 32.1151 24.1449 31.5476 23.935 31.0803C23.7443 30.6463 23.358 30.3411 22.8668 30.3936C22.4328 30.4365 22.0894 30.7417 22.0513 31.1804C22.0131 31.2615 21.975 31.3426 21.9416 31.4236C21.7508 31.8958 21.603 32.3822 21.5029 32.8782C21.479 32.9879 21.4695 33.0976 21.4504 33.2072C21.3788 33.4791 21.3121 33.7461 21.2549 34.0227C21.0546 34.9956 20.9735 36.0639 21.1738 37.0558C21.1786 37.094 21.1786 37.1369 21.1833 37.175C21.2739 37.7664 21.4695 38.5008 21.8224 39.0635C21.7937 39.1875 21.7794 39.3211 21.7699 39.4594C21.6745 39.5786 21.603 39.7169 21.5458 39.8504C21.3169 40.3798 21.3026 40.9807 21.3073 41.5482C21.3169 42.4114 21.417 43.2698 21.6078 44.1091C21.6364 44.3523 21.6793 44.5908 21.7222 44.8292C21.7318 44.9341 21.7318 45.0343 21.7413 45.1392C21.7842 45.6257 21.8987 46.0692 22.1467 46.4793C22.118 46.6414 22.1228 46.8131 22.1467 46.9848C22.1896 47.2566 22.2563 47.5237 22.3374 47.7908C22.3613 47.8623 22.3899 47.9291 22.4137 47.9958C22.4328 48.0864 22.4471 48.1818 22.4757 48.2677C22.6331 48.7732 22.8715 49.2357 23.2006 49.6506C23.4152 49.9272 23.935 49.8319 24.0209 49.4837C24.2498 48.5586 24.1067 47.5571 23.6346 46.7416L23.6441 46.7368Z" fill="#B2B2B2"/>
<path d="M17.8548 41.5247C17.8692 41.4818 17.8835 41.4389 17.8882 41.3864C17.8882 41.3578 17.8882 41.3292 17.8882 41.3006C17.9455 41.0478 17.9645 40.7903 17.9645 40.528C17.9645 40.0034 17.955 39.4788 17.9311 38.9542C17.9025 38.3009 17.9121 37.5569 17.7118 36.9036C17.707 36.8129 17.7118 36.7271 17.7022 36.6365C17.6736 36.3122 17.6212 35.9879 17.4399 35.7113C17.5973 35.7256 17.7547 35.7018 17.8978 35.5969C18.2268 35.3584 18.2841 34.8338 18.3747 34.4618C18.4796 34.0279 18.5702 33.5939 18.6417 33.1551C18.8039 32.1727 18.8945 31.176 18.8993 30.1793C18.8993 29.6643 18.2507 29.5832 18.0218 29.917C17.9884 29.917 17.955 29.917 17.9216 29.9313C17.8739 29.9504 17.8405 29.9838 17.7976 30.0076C17.6975 29.9981 17.5926 30.0076 17.5163 30.0649C16.8343 30.5847 16.6388 31.5575 16.4575 32.354C16.3192 32.9644 16.2143 33.6607 16.4528 34.252C16.5005 34.6335 16.5672 35.0341 16.8057 35.3489C16.8343 35.3918 16.8772 35.4204 16.9154 35.4538C16.8248 35.4681 16.7437 35.511 16.6769 35.5778C16.5768 35.6303 16.4862 35.7161 16.4575 35.8544C16.386 36.1644 16.3335 36.4791 16.2954 36.7939C16.1523 37.5283 16.0856 38.2722 16.1142 39.0162C16.138 39.5551 16.2048 40.0988 16.3145 40.6281C16.4003 41.043 16.5195 41.4818 16.8057 41.8013C16.8057 41.8633 16.8009 41.93 16.8057 41.992C16.6674 42.4069 16.6483 42.8314 16.7532 43.2701C16.8677 43.7327 17.1061 44.1572 17.3446 44.5673C17.4543 44.7581 17.6355 44.82 17.8024 44.7914C17.9645 45.0346 18.1267 45.2731 18.3222 45.4925C18.5893 45.7882 19.1854 45.5688 19.1472 45.1491C19.0233 43.8519 18.5845 42.6025 17.8692 41.5104L17.8548 41.5247Z" fill="#B2B2B2"/>
<path d="M30.9361 50.6329C30.5451 50.0034 30.2494 49.2118 30.1588 48.9256C29.7582 47.6523 29.6437 46.3265 29.5436 45.0008C29.5436 44.9912 29.5436 44.9817 29.5436 44.9721C28.4038 43.1409 27.6551 41.0807 27.4309 38.9251C27.3022 37.6804 27.326 36.4071 27.5359 35.1719C27.6122 34.7284 27.7123 34.0846 28.2989 34.0989C28.2989 34.0989 28.3037 34.0989 28.3084 34.0989C28.5469 34.0226 28.8569 34.1084 28.9427 34.3803C29.2241 35.3007 29.4911 36.2259 29.7439 37.151C30.4306 38.4911 30.7549 39.9409 30.9123 41.4336C31.0172 41.7817 31.1078 42.1299 31.1889 42.4828C31.2604 42.7975 31.289 43.1266 31.2175 43.4222C31.2175 43.4413 31.227 43.4604 31.227 43.4842C31.2414 43.5605 31.2509 43.6416 31.2557 43.7227C31.2843 43.8657 31.3177 44.0088 31.3415 44.1519C31.4655 44.8386 31.7135 45.6827 31.4273 46.3218C31.6372 46.8559 31.8232 47.3948 31.9853 47.9432C32.0187 48.0529 32.0425 48.1626 32.0759 48.2723C32.2095 48.6443 32.3287 49.0163 32.4241 49.4025C32.5385 49.8747 32.6482 50.3849 32.591 50.8618C33.4685 51.4914 34.0408 52.4594 34.4557 53.4705C34.5653 53.6612 34.6846 53.8472 34.7847 54.0475C34.9373 54.348 35.0375 54.6722 34.9755 54.9918C35.0327 55.3399 34.9755 55.8025 34.6464 55.9503C34.3173 56.0982 33.9597 55.8931 33.7546 55.5974C33.5257 55.2684 33.3349 54.9012 33.1489 54.5483C33.0202 54.3098 32.9153 54.0618 32.796 53.8186C32.7436 53.728 32.6816 53.6374 32.6291 53.5468C32.3859 53.1128 32.157 52.6693 31.9424 52.221C31.8756 52.0779 31.8136 51.9396 31.7612 51.7965C31.6992 51.7822 31.6372 51.7536 31.5704 51.7155C31.2175 51.5056 31.0649 51.0717 30.9457 50.6663C30.9409 50.6568 30.9361 50.6425 30.9314 50.6329H30.9361Z" fill="#B2B2B2"/>
</svg>
