<svg width="62" height="66" viewBox="0 0 62 66" fill="none" xmlns="http://www.w3.org/2000/svg">
<path d="M41.3856 58.2231C41.3557 58.1812 41.3287 58.1333 41.2928 58.0943C41.2479 58.0434 41.194 58.0045 41.1341 57.9775C41.1251 57.9716 41.1161 57.9656 41.1041 57.9596C41.1221 57.8009 41.1071 57.6362 41.0802 57.4715C41.0802 57.4116 41.0802 57.3547 41.0802 57.2948C41.1131 57.178 41.1161 57.0493 41.1071 56.9115C41.0832 56.6211 41.0502 56.3276 41.0053 56.0371C40.9185 55.4862 40.7777 54.9262 40.5082 54.4351C40.4963 54.4141 40.4813 54.3902 40.4663 54.3692C40.4903 54.3453 40.5142 54.3243 40.5352 54.2944C40.6909 54.0368 40.631 53.6655 40.619 53.378C40.5921 52.7432 40.5262 52.1084 40.4094 51.4855C40.3495 51.1591 40.2747 50.8357 40.1848 50.5183C40.11 50.2488 40.0531 49.9434 39.8914 49.7098C39.7416 49.4942 39.4991 49.3714 39.2416 49.4493C39.011 49.5182 38.8553 49.7188 38.8822 49.9614C38.8703 50.0093 38.8583 50.0572 38.8493 50.1051C38.7954 50.3806 38.7684 50.6591 38.7655 50.9405C38.7655 51.0034 38.7684 51.0633 38.7714 51.1262C38.7595 51.2789 38.7535 51.4346 38.7505 51.5874C38.7445 52.1353 38.8134 52.7252 39.026 53.2403C39.032 53.2613 39.0379 53.2822 39.0439 53.3032C39.1547 53.6146 39.3404 53.9919 39.5889 54.2584C39.5859 54.3303 39.5889 54.4021 39.6039 54.477C39.565 54.5519 39.541 54.6357 39.5231 54.7136C39.4542 55.025 39.5081 55.3514 39.571 55.6598C39.6668 56.127 39.8135 56.5821 40.0052 57.0163C40.0471 57.1451 40.095 57.2679 40.1429 57.3936C40.1579 57.4475 40.1699 57.5044 40.1848 57.5583C40.2597 57.8159 40.3675 58.0464 40.5472 58.2411C40.5472 58.3339 40.5711 58.4267 40.6041 58.5136C40.658 58.6573 40.7208 58.795 40.7927 58.9298C40.8107 58.9657 40.8346 58.9987 40.8556 59.0316C40.8766 59.0795 40.8915 59.1274 40.9185 59.1723C41.0562 59.4299 41.2359 59.6544 41.4575 59.8461C41.6042 59.9719 41.8737 59.8671 41.8827 59.6694C41.9067 59.1424 41.727 58.6184 41.3826 58.2231H41.3856Z" fill="#261E06"/>
<path d="M37.6216 55.5884C37.6276 55.5645 37.6336 55.5405 37.6336 55.5106C37.6336 55.4956 37.6336 55.4776 37.6336 55.4627C37.6545 55.3219 37.6575 55.1782 37.6485 55.0345C37.6306 54.747 37.6036 54.4565 37.5707 54.169C37.5288 53.8097 37.5078 53.3995 37.373 53.0461C37.3671 52.9982 37.3641 52.9473 37.3581 52.8994C37.3311 52.7197 37.2892 52.546 37.1814 52.3993C37.2682 52.3993 37.3551 52.3813 37.4299 52.3185C37.6006 52.1747 37.6126 51.8843 37.6485 51.6776C37.6905 51.4351 37.7234 51.1925 37.7474 50.947C37.8013 50.399 37.8132 49.848 37.7803 49.3C37.7623 49.0186 37.403 48.9946 37.2862 49.1892C37.2682 49.1892 37.2473 49.1922 37.2323 49.2012C37.2054 49.2132 37.1904 49.2342 37.1664 49.2491C37.1095 49.2491 37.0556 49.2551 37.0137 49.291C36.6574 49.6025 36.5855 50.1475 36.5136 50.5936C36.4597 50.935 36.4298 51.3213 36.5795 51.6417C36.6214 51.8483 36.6723 52.0669 36.8131 52.2316C36.831 52.2526 36.855 52.2675 36.879 52.2855C36.831 52.2975 36.7861 52.3244 36.7502 52.3634C36.6963 52.3963 36.6514 52.4472 36.6394 52.5251C36.6125 52.6988 36.5945 52.8724 36.5855 53.0491C36.5346 53.4564 36.5256 53.8726 36.5675 54.2798C36.6005 54.5763 36.6574 54.8727 36.7382 55.1602C36.8011 55.3848 36.882 55.6214 37.0526 55.789C37.0526 55.825 37.0526 55.8609 37.0586 55.8939C36.9957 56.1274 37.0017 56.364 37.0796 56.6006C37.1604 56.8521 37.3072 57.0767 37.4509 57.2923C37.5198 57.3941 37.9091 57.6516 38.0229 57.7654C38.1786 57.9181 38.502 57.7744 38.463 57.5468C38.3463 56.8371 38.0588 56.1634 37.6216 55.5914V55.5884Z" fill="#261E06"/>
<path d="M44.7754 59.8464C44.5178 59.529 44.2993 59.1157 44.2304 58.966C43.922 58.2952 43.7662 57.5766 43.6195 56.8579C43.6195 56.8519 43.6195 56.8459 43.6195 56.8399C42.8679 55.9176 42.3139 54.8396 42.0384 53.6748C41.8797 53.001 41.8049 52.3033 41.8318 51.6116C41.8408 51.363 41.8528 51.0037 42.1732 50.9708C42.1732 50.9708 42.1732 50.9708 42.1762 50.9708C42.2989 50.9109 42.4786 50.9378 42.5415 51.0816C42.7601 51.5667 42.9697 52.0548 43.1733 52.5429C43.6435 53.2286 43.922 54.0012 44.1136 54.8067C44.1944 54.9893 44.2693 55.175 44.3382 55.3637C44.3981 55.5283 44.437 55.711 44.422 55.8757C44.425 55.8877 44.431 55.8967 44.434 55.9086C44.446 55.9506 44.458 55.9955 44.4669 56.0374C44.4939 56.1123 44.5208 56.1901 44.5448 56.268C44.6616 56.6363 44.8562 57.0795 44.7424 57.4508C44.8952 57.7263 45.0359 58.0108 45.1617 58.3012C45.1856 58.3581 45.2096 58.418 45.2335 58.4749C45.3323 58.6696 45.4252 58.8642 45.503 59.0708C45.5989 59.3223 45.6947 59.5918 45.6977 59.8584C46.2217 60.1398 46.605 60.6309 46.9015 61.155C46.9733 61.2538 47.0542 61.3466 47.1201 61.4484C47.2249 61.6041 47.3027 61.7718 47.2907 61.9515C47.3476 62.1371 47.3476 62.3977 47.1769 62.4995C47.0063 62.6013 46.7967 62.5174 46.6619 62.3677C46.5152 62.203 46.3834 62.0144 46.2576 61.8347C46.1708 61.7119 46.0929 61.5862 46.0151 61.4604C45.9792 61.4125 45.9402 61.3706 45.9043 61.3227C45.7396 61.1011 45.5839 60.8765 45.4372 60.6459C45.3892 60.571 45.3473 60.4992 45.3084 60.4273C45.2755 60.4213 45.2395 60.4123 45.2006 60.3974C44.991 60.3075 44.8802 60.0799 44.7844 59.8673C44.7814 59.8613 44.7784 59.8554 44.7754 59.8494V59.8464Z" fill="#261E06"/>
<path d="M42.2869 51.6747C42.2869 51.6747 42.269 53.9565 43.5626 54.8638C44.8562 55.7711 47.9105 57.3133 49.4198 57.9511C52.0309 59.053 53.7947 59.071 55.8459 58.55C55.8459 58.55 57.7444 55.1363 56.0256 52.5191C54.6601 50.4379 55.1242 49.2701 50.6954 47.3776C46.6469 45.6438 46.2277 46.1409 44.7394 47.147C43.3859 48.0603 42.2839 51.6777 42.2839 51.6777L42.2869 51.6747Z" fill="#2E1D07"/>
<mask id="mask0_178_247859" style="mask-type:luminance" maskUnits="userSpaceOnUse" x="42" y="46" width="15" height="13">
<path d="M42.2869 51.6747C42.2869 51.6747 42.269 53.9565 43.5626 54.8638C44.8562 55.7711 47.9105 57.3133 49.4198 57.9511C52.0309 59.053 53.7947 59.071 55.8459 58.55C55.8459 58.55 57.7444 55.1363 56.0256 52.5191C54.6601 50.4379 55.1242 49.2701 50.6954 47.3776C46.6469 45.6438 46.2277 46.1409 44.7394 47.147C43.3859 48.0603 42.2839 51.6777 42.2839 51.6777L42.2869 51.6747Z" fill="white"/>
</mask>
<g mask="url(#mask0_178_247859)">
<path d="M49.2701 47.5932C49.33 47.1141 49.318 46.635 49.1653 46.1858C49.1203 46.054 49.0155 46.0001 48.9077 45.9882C48.8748 45.8953 48.8479 45.7995 48.8089 45.7067C48.6861 45.4072 48.2549 45.4731 48.21 45.7157C47.9824 45.3503 47.4315 45.2994 47.2039 45.5779C47.0661 45.4012 46.9014 45.2515 46.6978 45.1437C46.5541 45.0688 46.3684 45.1078 46.2846 45.2515C46.2037 45.3863 46.2486 45.5899 46.3924 45.6647C46.6798 45.8145 46.8715 46.1079 46.9883 46.4014C47.0602 46.5841 47.1111 46.7757 47.153 46.9674C47.12 48.4885 46.596 49.9379 45.9282 51.3123C45.6228 51.7944 45.2934 52.2556 44.976 52.6868C44.6406 53.1419 44.2873 53.5821 43.9279 54.0193C43.4518 54.3367 42.9248 54.6362 42.3409 54.6122C41.9516 54.5973 41.9516 55.2021 42.3409 55.2171C42.5624 55.2261 42.7751 55.1932 42.9847 55.1393C42.9667 55.1602 42.9487 55.1842 42.9308 55.2051C42.5804 55.6154 42.2331 56.0316 41.8498 56.4149C41.5084 56.7563 41.0203 57.2953 40.4843 57.1486C40.107 57.0467 39.9483 57.6307 40.3226 57.7325C40.4663 57.7714 40.6101 57.7834 40.7478 57.7744C40.6101 58.0798 40.6849 58.508 41.0892 58.6578C41.9276 58.9692 42.6283 58.4481 43.1913 57.8253C44.0687 57.4959 44.7784 56.5976 45.3383 55.9058C45.7096 55.4447 46.054 54.9656 46.3774 54.4715C48.24 52.6658 49.5186 50.1475 49.2791 47.5842L49.2701 47.5932ZM42.6822 56.5467C42.6283 56.6125 42.5624 56.6964 42.4936 56.7862C42.275 56.8581 42.1582 57.0168 42.1342 57.2025C41.9426 57.3941 41.73 57.5288 41.5174 57.5109C42.1073 57.1485 42.6134 56.4987 42.9996 56.0496C43.1554 55.8699 43.3051 55.6872 43.4608 55.5076C43.2152 55.8639 42.9607 56.2143 42.6822 56.5467Z" fill="#FFC417"/>
<path d="M53.145 47.6413C53.145 47.3119 52.7168 47.264 52.582 47.4915C52.5012 47.4376 52.4113 47.4047 52.3155 47.3927C52.3035 47.3448 52.2946 47.2939 52.2796 47.246C52.1538 46.8417 51.7555 46.7579 51.4501 46.8807C51.2585 46.8088 50.974 46.9675 51.0279 47.24C51.4172 49.2673 50.8183 51.2286 49.899 53.0163C49.7313 53.2679 49.5606 53.5134 49.3809 53.756C48.3478 55.1484 47.2129 56.469 46.075 57.7835C46.0481 57.8015 46.0211 57.8195 45.9942 57.8374C45.6498 57.8734 45.4372 58.1998 45.4522 58.5082C45.3563 58.619 45.2605 58.7298 45.1647 58.8436C45.0479 58.8556 44.9371 58.9095 44.8443 58.9843C44.7724 59.0113 44.7065 59.0502 44.6287 59.0712C44.3143 59.164 44.3801 59.5892 44.6347 59.6551C44.6616 59.7299 44.7006 59.8048 44.7664 59.8767L44.8952 60.0114C45.1078 60.233 45.542 60.257 45.7516 60.0114C45.7696 59.9905 45.7875 59.9695 45.8055 59.9485C46.3445 59.9994 46.9464 59.185 47.2668 58.8526C47.5453 58.5651 47.8238 58.2746 48.1023 57.9872C48.237 57.8644 48.3688 57.7326 48.5035 57.6039C49.3749 57.1068 50.0786 56.4181 50.6596 55.6245C51.0129 55.2921 51.2854 54.8639 51.525 54.4477C51.9142 53.7739 52.2227 53.0553 52.4622 52.3186C52.4742 52.2797 52.4832 52.2378 52.4952 52.1988C52.9294 51.2017 53.1719 50.1387 53.0821 49.0606C53.118 48.5875 53.145 48.1114 53.145 47.6353V47.6413Z" fill="#FFC417"/>
<path d="M56.1244 50.0515C55.9836 49.8149 55.6932 49.7191 55.4476 49.77C55.4297 49.6502 55.4177 49.5305 55.3997 49.4077C55.3219 48.8807 55.1961 48.3656 54.8457 47.9524C54.681 47.7577 54.3067 47.9104 54.3277 48.168C54.3486 48.3926 54.4205 48.5902 54.4984 48.7938C54.4445 48.8687 54.4145 48.9615 54.4475 49.0483C54.5134 49.228 54.5762 49.4077 54.6391 49.5874C54.6781 50.1533 54.696 50.7223 54.6721 51.2882C54.5014 52.8154 53.7707 54.2288 52.9682 55.5314C52.7616 55.8698 52.54 56.1992 52.3244 56.5285C51.8872 56.9568 51.4021 57.3401 50.905 57.6934C50.4439 58.0228 49.9707 58.3402 49.4856 58.6366C49.0275 58.9181 48.4974 59.3224 47.9375 59.3104C47.632 59.3044 47.5692 59.6697 47.7428 59.8344C47.629 59.8764 47.5183 59.9243 47.4045 59.9602C47.0361 60.083 47.1949 60.6699 47.5662 60.5441C48.5334 60.2177 49.4437 59.7596 50.2851 59.1966C50.2642 59.2206 50.2462 59.2445 50.2283 59.2655C50.0905 59.3673 49.9498 59.4661 49.806 59.553C49.5815 59.6847 49.5036 59.8913 49.5186 60.089C49.4078 60.2177 49.297 60.3465 49.1832 60.4753C48.6711 61.0592 49.5275 61.9216 50.0396 61.3317C50.0576 61.3107 50.0785 61.2868 50.0965 61.2658C50.6415 60.9544 51.0368 60.4663 51.3781 59.9393C51.5279 59.7895 51.6776 59.6428 51.8243 59.4901C51.8992 59.4182 51.9621 59.3344 52.0339 59.2625C52.6747 58.8343 53.1988 58.2204 53.6689 57.6215C54.2139 56.9268 54.693 56.1872 55.0943 55.4026C55.9118 53.8096 56.4089 52.0788 56.5765 50.2941C56.6005 50.0275 56.325 49.9497 56.1364 50.0485L56.1244 50.0515Z" fill="#FFC417"/>
</g>
<g opacity="0.71">
<path d="M40.2208 45.6229C40.2208 45.6229 46.6828 43.4699 51.1895 40.2628C55.6962 37.0557 58.2385 32.8964 56.8671 30.968C55.4956 29.0425 50.7314 30.0786 46.2247 33.2857C41.718 36.4928 40.2178 45.6229 40.2178 45.6229H40.2208Z" fill="#BFDCDC"/>
<mask id="mask1_178_247859" style="mask-type:luminance" maskUnits="userSpaceOnUse" x="40" y="30" width="18" height="16">
<path d="M40.2208 45.6229C40.2208 45.6229 46.6828 43.4699 51.1895 40.2628C55.6962 37.0557 58.2385 32.8964 56.8671 30.968C55.4956 29.0425 50.7314 30.0786 46.2247 33.2857C41.718 36.4928 40.2178 45.6229 40.2178 45.6229H40.2208Z" fill="white"/>
</mask>
<g mask="url(#mask1_178_247859)">
<path d="M57.3072 27.2247C55.7231 27.7817 54.3427 28.7789 53.3156 30.1114C52.3364 31.384 51.6686 32.8543 50.7972 34.1959C50.348 34.8876 49.842 35.5793 49.2012 36.1093C48.9017 36.3609 48.5693 36.5795 48.204 36.7232C47.8117 36.8759 47.3955 36.9238 46.9882 37.0136C46.9014 37.0316 46.8235 37.0646 46.7427 37.0885C46.7307 37.0765 46.7277 37.0616 46.7127 37.0526C46.5421 36.9088 47.0391 36.3758 47.117 36.265C47.2787 36.0345 47.4374 35.8039 47.5901 35.5673C47.9255 35.0583 48.2429 34.5402 48.5454 34.0132C49.1532 32.9502 49.6863 31.8482 50.1534 30.7163C50.3061 30.345 49.7372 30.0874 49.5845 30.4588C49.0425 31.7763 48.4076 33.055 47.674 34.2737C47.3057 34.8876 46.9104 35.4835 46.4942 36.0644C46.2217 36.4447 45.8952 36.9208 46.1498 37.3371C45.8234 37.5227 45.5329 37.7623 45.2814 38.0767C45.2185 38.1546 45.1646 38.2354 45.1077 38.3163C45.1227 37.5077 45.0718 36.6962 45.1916 35.8937C45.3592 34.7798 45.8294 33.7347 46.5391 32.8603C46.7906 32.5489 46.3085 32.1536 46.054 32.4651C45.3143 33.3784 44.8083 34.4684 44.6016 35.6242C44.386 36.831 44.5957 38.0617 44.413 39.2685C44.407 39.3104 44.413 39.3464 44.419 39.3823C44.3082 39.559 44.1914 39.7326 44.0626 39.8973C42.9607 41.3257 40.6639 41.4185 39.9931 43.2541C39.8554 43.6284 40.4244 43.889 40.5621 43.5117C41.0322 42.23 42.4756 41.8497 43.5805 41.152C43.3709 42.1881 42.6852 43.0295 42.0024 43.8111C41.6042 44.2663 41.1999 44.7154 40.8555 45.2125C40.589 45.5988 40.1159 46.1947 40.3285 46.6918C40.4842 47.0601 41.0712 46.8475 40.9154 46.4792C40.8376 46.2995 41.131 45.9282 41.2239 45.7845C41.3856 45.5329 41.5682 45.2904 41.7569 45.0598C42.1222 44.6106 42.5175 44.1884 42.8888 43.7422C42.9936 43.6165 43.0894 43.4847 43.1853 43.356C43.2811 43.4458 43.4218 43.4817 43.5566 43.3799C44.4789 42.6792 45.6557 42.5864 46.7547 42.3528C47.8117 42.1282 48.8208 41.7479 49.7941 41.2868C49.8539 41.3047 49.9138 41.3077 49.9707 41.2808C50.39 41.0742 50.7673 40.9903 51.2314 40.9963C51.2973 40.9963 51.2793 40.9963 51.3452 41.0023C51.3991 41.0053 51.453 41.0113 51.5069 41.0173C51.6177 41.0322 51.7315 41.0532 51.8393 41.0801C51.8662 41.0861 51.8902 41.0951 51.9171 41.1011C51.9351 41.1041 51.9351 41.1071 51.9411 41.1071C51.9471 41.1071 51.9471 41.1071 51.965 41.1161C52.016 41.134 52.0669 41.149 52.1178 41.17C52.2286 41.2119 52.3364 41.2628 52.4412 41.3167C52.5909 41.3946 52.7885 41.3077 52.8544 41.161C52.9263 40.9993 52.8484 40.8286 52.6987 40.7478C51.8812 40.3136 50.8691 40.2627 50.0067 40.595C49.9468 40.5711 49.8749 40.5681 49.7941 40.607C48.6981 41.14 47.5632 41.5712 46.3624 41.8048C45.4611 41.9785 44.5358 42.1252 43.7243 42.5504C43.9758 42.0923 44.1674 41.6042 44.2393 41.0771C45.2604 40.7777 46.2456 40.3705 47.1799 39.8644C47.2547 39.9542 47.3715 40.0081 47.5153 39.9662C48.6382 39.6278 49.7731 39.535 50.9379 39.5799C52.0579 39.6218 53.1988 39.5799 54.0582 38.7684C54.3487 38.4929 53.8636 38.1007 53.5731 38.3732C52.7586 39.1457 51.4919 38.966 50.4678 38.9421C49.6952 38.9241 48.9287 38.999 48.174 39.1577C48.2848 39.0409 48.3897 38.9152 48.4765 38.7684C48.737 38.3222 48.8328 37.8042 48.9197 37.3011C48.9346 37.2113 48.9137 37.1394 48.8718 37.0795C48.9915 37.0167 49.1113 36.9568 49.2281 36.8759C49.2401 36.8669 49.2521 36.8579 49.264 36.849C49.3149 36.8609 49.3688 36.8639 49.4287 36.849C50.0905 36.6513 50.7852 36.6693 51.471 36.6753C52.1717 36.6813 52.8664 36.6453 53.5581 36.5196C54.8397 36.289 56.4448 35.8788 57.2353 34.7558C57.4659 34.4294 56.9838 34.0342 56.7502 34.3606C56.31 34.9834 55.6123 35.2829 54.9116 35.5254C54.2888 35.741 53.645 35.8907 52.9922 35.9746C52.0459 36.0944 51.0757 35.9895 50.1324 36.0854C50.2732 35.9356 50.4079 35.7829 50.5367 35.6242C50.5786 35.6093 50.6205 35.5853 50.6595 35.5524C51.7794 34.4983 53.3724 34.2019 54.6421 33.3814C55.1631 33.046 55.6393 32.6238 55.9687 32.0967C56.346 31.4889 56.4478 30.8061 56.5196 30.1054C56.5616 29.7072 55.9477 29.6023 55.9058 30.0006C55.8309 30.7043 55.7411 31.393 55.3009 31.971C54.9146 32.477 54.3756 32.8453 53.8186 33.1418C53.058 33.549 52.2555 33.8455 51.5069 34.2378C52.1118 33.2586 52.6328 32.2255 53.2647 31.2643C54.3097 29.6712 55.7082 28.4495 57.5198 27.8146C57.9001 27.6799 57.6845 27.096 57.3072 27.2277V27.2247ZM47.9315 38.466C47.677 38.9002 47.2068 39.1427 46.7786 39.3703C46.057 39.7566 45.3023 40.071 44.5268 40.3256C45.3263 39.3104 45.7246 37.924 47.129 37.6155C47.5332 37.5257 47.9165 37.4449 48.2848 37.3251C48.216 37.7174 48.1381 38.1186 47.9345 38.463L47.9315 38.466Z" fill="#9EDCDC"/>
</g>
</g>
<path d="M35.0972 45.6737C35.0972 45.6737 36.825 44.3831 38.6486 44.2872C40.4723 44.1914 43.0565 44.1106 44.8083 45.4251C46.56 46.7397 43.6614 52.3933 42.1911 52.9083C40.7208 53.4234 36.1662 51.3931 35.5344 49.9498C35.199 49.1832 35.1211 48.8149 35.0972 47.7069C35.0702 46.599 35.0972 45.6707 35.0972 45.6707V45.6737Z" fill="#4F3E0C"/>
<path d="M35.0972 45.6737C35.0972 45.6737 36.825 44.3831 38.6486 44.2872C40.4723 44.1914 43.0565 44.1106 44.8083 45.4251C46.56 46.7397 43.6614 52.3933 42.1911 52.9083C40.7208 53.4234 36.1662 51.3931 35.5344 49.9498C35.199 49.1832 35.1211 48.8149 35.0972 47.7069C35.0702 46.599 35.0972 45.6707 35.0972 45.6707V45.6737Z" fill="#86680E"/>
<path d="M43.5118 45.422C42.4317 44.9675 39.2223 44.8294 38.1277 45.1376C36.9124 45.4794 36.1083 46.4625 36.0645 47.7368C35.9837 50.0885 40.2267 52.488 41.7181 51.7613C43.5687 50.8595 46.8365 46.8192 43.5118 45.422Z" fill="#94720F"/>
<path d="M42.6611 46.6944C41.5574 46.1425 40.1248 46.3523 38.969 46.0835C38.2952 45.9308 37.6993 46.2871 37.4777 46.9309C37.115 47.9777 37.9591 48.8949 38.8672 49.2786C40.1291 49.8078 42.1138 50.5016 43.275 49.3534C44.1255 48.506 43.6284 47.1855 42.6582 46.7033L42.6611 46.6944Z" fill="#A17E17"/>
<path d="M31.7703 45.5477C31.1535 44.7272 29.779 44.9757 28.9286 45.2333C27.9164 45.5387 27.0001 46.1406 26.3293 46.9581C26.0838 47.2575 26.512 47.6887 26.7576 47.3863C27.3115 46.7095 28.0362 46.1825 28.8657 45.8891C29.2699 45.7453 29.6921 45.6525 30.1204 45.6225C30.3599 45.6076 30.7193 45.5776 30.9888 45.6765C29.1262 45.7423 27.59 47.027 26.7306 48.626C26.545 48.9704 27.069 49.2758 27.2546 48.9315C28.0512 47.4492 29.4616 46.2274 31.2223 46.2664C31.414 46.2694 31.5128 46.1256 31.5128 45.9729C31.7284 45.9639 31.929 45.7603 31.7673 45.5447L31.7703 45.5477Z" fill="#362A08"/>
<path d="M30.5966 47.105C30.5966 49.1562 31.9051 51.3452 32.6957 51.4649C32.8215 51.4829 33.3425 51.6117 33.4383 51.5937C33.5551 51.5727 33.3455 51.3152 33.4563 51.2703C34.6151 50.8032 35.5704 49.1143 35.8938 47.4014C36.2411 45.5568 35.78 43.2242 33.1898 43.3919C31.7614 43.4847 30.5996 45.0538 30.5996 47.105H30.5966Z" fill="#94720F"/>
<path d="M30.5127 47.4014C30.5127 48.7189 31.432 50.1623 31.9471 50.1623C32.8664 50.1623 33.6719 48.8896 33.9174 47.593C34.142 46.4072 33.8455 44.907 32.1806 45.0148C31.2613 45.0747 30.5157 46.0838 30.5157 47.4014H30.5127Z" fill="#3B2E09"/>
<path d="M30.5966 47.0661C30.5966 47.8566 31.1505 48.7251 31.459 48.7251C32.0129 48.7251 32.4951 47.9585 32.6418 47.1829C32.7765 46.4702 32.5969 45.5689 31.5967 45.6348C31.0457 45.6707 30.5966 46.2756 30.5966 47.0691V47.0661Z" fill="#4A3A0B"/>
<g opacity="0.71">
<path d="M40.4424 45.2185C40.4424 45.2185 47.2279 44.6136 52.3514 42.5354C57.475 40.4573 60.9096 36.9927 60.0203 34.8037C59.1309 32.6118 54.2559 32.5219 49.1324 34.6031C44.0058 36.6842 40.4424 45.2215 40.4424 45.2215V45.2185Z" fill="#BFDCDC"/>
<mask id="mask2_178_247859" style="mask-type:luminance" maskUnits="userSpaceOnUse" x="40" y="33" width="21" height="13">
<path d="M40.4424 45.2185C40.4424 45.2185 47.2279 44.6136 52.3514 42.5354C57.475 40.4573 60.9096 36.9927 60.0203 34.8037C59.1309 32.6118 54.2559 32.5219 49.1324 34.6031C44.0058 36.6842 40.4424 45.2215 40.4424 45.2215V45.2185Z" fill="white"/>
</mask>
<g mask="url(#mask2_178_247859)">
<path d="M61.3138 31.2612C59.6429 31.4379 58.0708 32.0907 56.7652 33.1477C55.5195 34.1599 54.5313 35.4355 53.3725 36.5405C52.7766 37.1094 52.1238 37.6634 51.3782 38.0347C51.0278 38.2084 50.6565 38.3461 50.2672 38.403C49.851 38.4629 49.4347 38.412 49.0155 38.403C48.9257 38.403 48.8448 38.415 48.758 38.418C48.749 38.403 48.749 38.3881 48.737 38.3761C48.6053 38.1964 49.2102 37.7922 49.312 37.7023C49.5216 37.5167 49.7282 37.328 49.9348 37.1334C50.378 36.7172 50.8092 36.2859 51.2224 35.8398C52.0579 34.9474 52.8335 33.9982 53.5462 33.004C53.7797 32.6776 53.2856 32.2943 53.0521 32.6237C52.2226 33.7826 51.3093 34.8756 50.3121 35.8967C49.8121 36.4087 49.291 36.8968 48.752 37.367C48.4016 37.6724 47.9734 38.0617 48.1232 38.5258C47.7638 38.6306 47.4254 38.7983 47.105 39.0439C47.0272 39.1037 46.9553 39.1726 46.8805 39.2385C47.0811 38.454 47.2188 37.6544 47.5213 36.8998C47.9435 35.8548 48.6412 34.9474 49.5336 34.2587C49.851 34.0132 49.4737 33.5161 49.1533 33.7646C48.225 34.4833 47.4794 35.4265 47.0122 36.5046C46.5241 37.6275 46.4433 38.8732 45.9881 40.0081C45.9731 40.047 45.9671 40.0829 45.9671 40.1189C45.8174 40.2656 45.6647 40.4063 45.503 40.5381C44.0986 41.673 41.8437 41.2358 40.7687 42.8648C40.5501 43.1972 41.0412 43.5805 41.2628 43.2451C42.0144 42.1072 43.5087 42.0713 44.7424 41.6461C44.2992 42.6043 43.4368 43.2661 42.5924 43.8679C42.1013 44.2183 41.6012 44.5627 41.152 44.9669C40.8017 45.2814 40.2058 45.7515 40.2956 46.2845C40.3645 46.6798 40.9843 46.6079 40.9155 46.2126C40.8825 46.021 41.2508 45.7275 41.3766 45.6077C41.5922 45.3981 41.8258 45.2065 42.0653 45.0238C42.5235 44.6705 43.0086 44.3531 43.4698 44.0027C43.5985 43.9039 43.7243 43.7991 43.847 43.6943C43.9189 43.8051 44.0477 43.871 44.2034 43.8021C45.2634 43.3349 46.4283 43.5146 47.5512 43.5416C48.6322 43.5655 49.7013 43.4278 50.7553 43.2062C50.8092 43.2361 50.8661 43.2541 50.929 43.2391C51.3842 43.1343 51.7704 43.1403 52.2226 43.2541C52.2855 43.2691 52.2705 43.2661 52.3334 43.284C52.3843 43.299 52.4352 43.317 52.4861 43.3379C52.5909 43.3769 52.6957 43.4248 52.7945 43.4757C52.8185 43.4877 52.8425 43.4996 52.8664 43.5146C52.8814 43.5236 52.8844 43.5236 52.8874 43.5266C52.8904 43.5266 52.8934 43.5296 52.9083 43.5386C52.9533 43.5655 52.9982 43.5955 53.0431 43.6254C53.1419 43.6913 53.2347 43.7662 53.3216 43.844C53.4473 43.9548 53.66 43.9159 53.7588 43.7871C53.8666 43.6464 53.8276 43.4607 53.7019 43.3499C53.0072 42.739 52.034 42.4546 51.1176 42.5803C51.0637 42.5444 50.9949 42.5234 50.908 42.5444C49.7162 42.8109 48.5124 42.9666 47.2907 42.9157C46.3744 42.8768 45.4401 42.8049 44.5508 43.0325C44.9011 42.6462 45.2006 42.212 45.3922 41.7179C46.4552 41.661 47.5063 41.4933 48.5334 41.2149C48.5843 41.3197 48.6861 41.4005 48.8358 41.3915C50.0037 41.3227 51.1326 41.4933 52.2555 41.8048C53.3365 42.1042 54.4565 42.3288 55.4806 41.7359C55.825 41.5353 55.4447 41.0412 55.1003 41.2418C54.1301 41.8048 52.9383 41.3406 51.9471 41.0801C51.1985 40.8825 50.4349 40.7806 49.6653 40.7597C49.8001 40.6728 49.9318 40.574 50.0486 40.4513C50.405 40.077 50.6176 39.5949 50.8182 39.1277C50.8541 39.0439 50.8481 38.969 50.8242 38.9031C50.9559 38.8702 51.0847 38.8402 51.2194 38.7893C51.2344 38.7833 51.2464 38.7774 51.2584 38.7714C51.3033 38.7953 51.3572 38.8103 51.4171 38.8073C52.1088 38.7684 52.7796 38.945 53.4443 39.1097C54.1241 39.2774 54.8098 39.4002 55.5105 39.4391C56.8101 39.511 58.4661 39.4811 59.4962 38.5737C59.7956 38.3102 59.4183 37.8131 59.1159 38.0796C58.5439 38.5827 57.7953 38.7145 57.0587 38.7893C56.4029 38.8552 55.7411 38.8522 55.0853 38.7833C54.1391 38.6815 53.2168 38.3551 52.2765 38.2324C52.4472 38.1186 52.6149 38.0018 52.7766 37.876C52.8215 37.873 52.8664 37.8581 52.9113 37.8341C54.2439 37.0675 55.8609 37.1454 57.2893 36.6423C57.8732 36.4357 58.4331 36.1362 58.8763 35.696C59.3824 35.193 59.6399 34.5492 59.8735 33.8874C60.0052 33.5101 59.4333 33.2645 59.2986 33.6448C59.065 34.3126 58.8164 34.9624 58.2535 35.4235C57.7624 35.8278 57.1515 36.0614 56.5406 36.2231C55.7082 36.4447 54.8577 36.5465 54.0373 36.7561C54.8518 35.9416 55.5974 35.0582 56.4358 34.2677C57.8193 32.9591 59.4632 32.0937 61.3737 31.8931C61.775 31.8511 61.7001 31.2313 61.3019 31.2732L61.3138 31.2612ZM49.5964 40.032C49.2461 40.3974 48.737 40.5231 48.2639 40.6459C47.4734 40.8555 46.6649 40.9873 45.8504 41.0561C46.8625 40.2536 47.5692 38.9959 49.0065 39.0199C49.4198 39.0259 49.8121 39.0349 50.1983 39.0049C50.0396 39.3703 49.8719 39.7446 49.5934 40.032H49.5964Z" fill="#9EDCDC"/>
</g>
</g>
<path d="M39.8464 59.3463C39.8195 59.2924 39.8015 59.2325 39.7716 59.1816C39.7326 59.1127 39.6817 59.0588 39.6218 59.0169C39.6129 59.0079 39.6039 58.9989 39.5919 58.9899C39.6458 58.8193 39.6668 58.6276 39.6728 58.439C39.6877 58.3731 39.6967 58.3072 39.7117 58.2413C39.7746 58.1156 39.8045 57.9748 39.8225 57.8191C39.8614 57.4897 39.8854 57.1543 39.8973 56.822C39.9213 56.1871 39.8854 55.5343 39.6877 54.9264C39.6787 54.8995 39.6668 54.8696 39.6578 54.8426C39.6877 54.8187 39.7237 54.8007 39.7506 54.7707C39.9812 54.5162 39.9932 54.091 40.0441 53.7676C40.1519 53.0519 40.2148 52.3303 40.2207 51.6086C40.2207 51.2313 40.2088 50.854 40.1818 50.4797C40.1579 50.1652 40.1608 49.8089 40.0291 49.5154C39.9093 49.2429 39.6668 49.0513 39.3583 49.0842C39.0858 49.1112 38.8702 49.3028 38.8463 49.5783C38.8223 49.6292 38.7984 49.6801 38.7774 49.731C38.6576 50.0275 38.5648 50.3329 38.5019 50.6444C38.4869 50.7132 38.4809 50.7821 38.469 50.851C38.4241 51.0217 38.3821 51.1894 38.3462 51.363C38.2204 51.9739 38.1695 52.6447 38.2953 53.2675C38.2983 53.2915 38.2983 53.3184 38.3013 53.3424C38.3582 53.7137 38.4809 54.1748 38.7025 54.5282C38.6846 54.6061 38.6756 54.6899 38.6696 54.7767C38.6097 54.8516 38.5648 54.9384 38.5289 55.0223C38.3851 55.3547 38.3761 55.732 38.3791 56.0883C38.3851 56.6303 38.448 57.1693 38.5678 57.6963C38.5858 57.8491 38.6127 57.9988 38.6397 58.1485C38.6456 58.2144 38.6456 58.2773 38.6516 58.3432C38.6786 58.6486 38.7504 58.9271 38.9062 59.1846C38.8882 59.2864 38.8912 59.3942 38.9062 59.502C38.9331 59.6727 38.975 59.8404 39.0259 60.0081C39.0409 60.053 39.0589 60.0949 39.0739 60.1368C39.0858 60.1937 39.0948 60.2536 39.1128 60.3075C39.2116 60.6249 39.3613 60.9154 39.5679 61.1759C39.7027 61.3496 40.0291 61.2897 40.083 61.0711C40.2267 60.4902 40.1369 59.8613 39.8404 59.3493L39.8464 59.3463Z" fill="#362A08"/>
<path d="M36.2112 56.0734C36.2202 56.0465 36.2292 56.0195 36.2322 55.9866C36.2322 55.9686 36.2322 55.9507 36.2322 55.9327C36.2681 55.774 36.2801 55.6123 36.2801 55.4476C36.2801 55.1182 36.2741 54.7888 36.2591 54.4594C36.2411 54.0492 36.2471 53.582 36.1214 53.1718C36.1184 53.1149 36.1214 53.061 36.1154 53.0041C36.0974 52.8005 36.0645 52.5969 35.9507 52.4232C36.0495 52.4322 36.1483 52.4172 36.2382 52.3513C36.4448 52.2016 36.4807 51.8722 36.5376 51.6386C36.6035 51.3661 36.6604 51.0936 36.7053 50.8181C36.8071 50.2013 36.864 49.5754 36.867 48.9496C36.867 48.6262 36.4597 48.5753 36.316 48.7849C36.295 48.7849 36.2741 48.7849 36.2531 48.7939C36.2232 48.8059 36.2022 48.8268 36.1753 48.8418C36.1124 48.8358 36.0465 48.8418 35.9986 48.8777C35.5704 49.2041 35.4476 49.815 35.3338 50.3151C35.247 50.6984 35.1811 51.1356 35.3308 51.5069C35.3608 51.7464 35.4027 51.998 35.5524 52.1956C35.5704 52.2225 35.5973 52.2405 35.6213 52.2615C35.5644 52.2705 35.5135 52.2974 35.4716 52.3393C35.4087 52.3723 35.3518 52.4262 35.3338 52.513C35.2889 52.7076 35.256 52.9053 35.232 53.1029C35.1422 53.5641 35.1003 54.0312 35.1182 54.4983C35.1332 54.8367 35.1751 55.1781 35.244 55.5105C35.2979 55.771 35.3728 56.0465 35.5524 56.2471C35.5524 56.286 35.5494 56.328 35.5524 56.3669C35.4656 56.6274 35.4536 56.8939 35.5195 57.1694C35.5913 57.4599 35.7411 57.7264 35.8908 57.9839C35.9597 58.1037 36.0735 58.1426 36.1783 58.1246C36.2801 58.2774 36.3819 58.4271 36.5047 58.5648C36.6724 58.7505 37.0467 58.6127 37.0227 58.3492C36.9449 57.5347 36.6694 56.7502 36.2202 56.0645L36.2112 56.0734Z" fill="#362A08"/>
<path d="M44.4249 61.7931C44.1794 61.3978 43.9937 60.9007 43.9368 60.7211C43.6853 59.9215 43.6134 59.0891 43.5506 58.2566C43.5506 58.2506 43.5506 58.2446 43.5506 58.2386C42.8349 57.0888 42.3647 55.7952 42.224 54.4417C42.1432 53.6601 42.1581 52.8606 42.2899 52.085C42.3378 51.8065 42.4007 51.4023 42.769 51.4112C42.769 51.4112 42.772 51.4112 42.775 51.4112C42.9247 51.3633 43.1193 51.4172 43.1732 51.5879C43.3499 52.1659 43.5176 52.7468 43.6763 53.3277C44.1075 54.1692 44.3112 55.0795 44.41 56.0167C44.4758 56.2353 44.5327 56.4539 44.5837 56.6755C44.6286 56.8732 44.6465 57.0798 44.6016 57.2654C44.6016 57.2774 44.6076 57.2894 44.6076 57.3044C44.6166 57.3523 44.6226 57.4032 44.6256 57.4541C44.6435 57.5439 44.6645 57.6338 44.6795 57.7236C44.7573 58.1548 44.913 58.6848 44.7334 59.0861C44.8651 59.4215 44.9819 59.7598 45.0837 60.1042C45.1047 60.1731 45.1197 60.242 45.1406 60.3108C45.2245 60.5444 45.2993 60.778 45.3592 61.0205C45.4311 61.317 45.5 61.6374 45.464 61.9368C46.015 62.3321 46.3744 62.94 46.6349 63.5748C46.7037 63.6946 46.7786 63.8114 46.8415 63.9371C46.9373 64.1258 47.0002 64.3294 46.9613 64.53C46.9972 64.7486 46.9613 65.0391 46.7546 65.1319C46.548 65.2248 46.3234 65.096 46.1947 64.9103C46.0509 64.7037 45.9312 64.4731 45.8144 64.2515C45.7335 64.1018 45.6677 63.9461 45.5928 63.7934C45.5599 63.7365 45.5209 63.6796 45.488 63.6227C45.3353 63.3502 45.1915 63.0717 45.0568 62.7902C45.0149 62.7004 44.9759 62.6136 44.943 62.5237C44.9041 62.5147 44.8651 62.4968 44.8232 62.4728C44.6016 62.3411 44.5058 62.0686 44.4309 61.814C44.4279 61.8081 44.4249 61.7991 44.4219 61.7931H44.4249Z" fill="#362A08"/>
<path d="M12.7846 34.6965C12.7621 34.6649 12.7418 34.6289 12.7147 34.5996C12.6809 34.5612 12.6403 34.5319 12.5952 34.5116C12.5885 34.5071 12.5817 34.5026 12.5727 34.4981C12.5862 34.3786 12.5749 34.2546 12.5547 34.1306C12.5547 34.0855 12.5547 34.0427 12.5547 33.9976C12.5795 33.9097 12.5817 33.8128 12.5749 33.7091C12.5569 33.4904 12.5321 33.2694 12.4983 33.0508C12.4329 32.6359 12.327 32.2144 12.124 31.8446C12.115 31.8288 12.1038 31.8108 12.0925 31.795C12.1105 31.777 12.1286 31.7612 12.1443 31.7387C12.2616 31.5448 12.2165 31.2652 12.2075 31.0488C12.1872 30.5709 12.1376 30.0929 12.0497 29.624C12.0046 29.3782 11.9482 29.1348 11.8806 28.8958C11.8242 28.6929 11.7814 28.4629 11.6596 28.2871C11.5469 28.1248 11.3643 28.0323 11.1704 28.0909C10.9968 28.1428 10.8796 28.2939 10.8999 28.4765C10.8909 28.5125 10.8818 28.5486 10.8751 28.5847C10.8345 28.7921 10.8142 29.0017 10.812 29.2137C10.812 29.261 10.8142 29.3061 10.8165 29.3534C10.8074 29.4684 10.8029 29.5857 10.8007 29.7006C10.7962 30.1132 10.848 30.5573 11.0081 30.9451C11.0126 30.9609 11.0171 30.9767 11.0216 30.9924C11.105 31.2269 11.2448 31.511 11.4319 31.7116C11.4297 31.7657 11.4319 31.8198 11.4432 31.8762C11.4139 31.9325 11.3959 31.9957 11.3823 32.0543C11.3305 32.2888 11.3711 32.5345 11.4184 32.7667C11.4905 33.1184 11.601 33.4611 11.7453 33.788C11.7769 33.8849 11.8129 33.9773 11.849 34.072C11.8603 34.1126 11.8693 34.1554 11.8806 34.196C11.9369 34.3899 12.0181 34.5635 12.1534 34.71C12.1534 34.7799 12.1714 34.8498 12.1962 34.9152C12.2368 35.0234 12.2841 35.1271 12.3382 35.2286C12.3518 35.2556 12.3698 35.2804 12.3856 35.3052C12.4013 35.3413 12.4126 35.3774 12.4329 35.4112C12.5366 35.6051 12.6719 35.7741 12.8387 35.9184C12.9492 36.0131 13.1521 35.9342 13.1588 35.7854C13.1769 35.3886 13.0416 34.9941 12.7824 34.6965H12.7846Z" fill="#261E06"/>
<path d="M9.9508 32.713C9.95531 32.695 9.95981 32.6769 9.95981 32.6544C9.95981 32.6431 9.95981 32.6296 9.95981 32.6183C9.97559 32.5124 9.97785 32.4041 9.97109 32.2959C9.95756 32.0795 9.93727 31.8608 9.91247 31.6444C9.88091 31.3739 9.86512 31.065 9.76367 30.799C9.75916 30.7629 9.75691 30.7246 9.7524 30.6885C9.73211 30.5532 9.70055 30.4225 9.61939 30.312C9.68477 30.312 9.75015 30.2985 9.80651 30.2511C9.93501 30.1429 9.94403 29.9242 9.97109 29.7687C10.0026 29.5861 10.0274 29.4035 10.0455 29.2186C10.0861 28.806 10.0951 28.3912 10.0703 27.9786C10.0568 27.7667 9.78622 27.7487 9.6983 27.8952C9.68477 27.8952 9.66899 27.8975 9.65771 27.9042C9.63742 27.9133 9.62615 27.929 9.60811 27.9403C9.56528 27.9403 9.5247 27.9448 9.49314 27.9719C9.22486 28.2063 9.17075 28.6166 9.11664 28.9526C9.07606 29.2096 9.05352 29.5004 9.16624 29.7416C9.1978 29.8972 9.23613 30.0618 9.34209 30.1857C9.35562 30.2015 9.37365 30.2128 9.39169 30.2263C9.35562 30.2353 9.3218 30.2556 9.29475 30.2849C9.25417 30.3097 9.22035 30.3481 9.21133 30.4067C9.19104 30.5375 9.17751 30.6682 9.17075 30.8012C9.13242 31.1078 9.12566 31.4212 9.15722 31.7278C9.18202 31.951 9.22486 32.1742 9.28573 32.3906C9.33307 32.5597 9.39395 32.7378 9.52245 32.864C9.52245 32.8911 9.52245 32.9182 9.52696 32.943C9.47961 33.1188 9.48412 33.2969 9.54274 33.475C9.60361 33.6644 9.71408 33.8335 9.82229 33.9958C9.87414 34.0724 10.1672 34.2663 10.2529 34.352C10.3701 34.467 10.6136 34.3587 10.5843 34.1874C10.4964 33.6531 10.2799 33.1459 9.9508 32.7153V32.713Z" fill="#261E06"/>
<path d="M15.3366 35.9185C15.1428 35.6796 14.9782 35.3685 14.9263 35.2557C14.6941 34.7507 14.5769 34.2097 14.4664 33.6686C14.4664 33.6641 14.4664 33.6596 14.4664 33.6551C13.9006 32.9607 13.4835 32.1491 13.2761 31.2721C13.1566 30.7649 13.1002 30.2396 13.1205 29.7188C13.1273 29.5317 13.1363 29.2611 13.3775 29.2363C13.3775 29.2363 13.3775 29.2363 13.3798 29.2363C13.4722 29.1912 13.6075 29.2115 13.6548 29.3198C13.8194 29.685 13.9772 30.0525 14.1305 30.4199C14.4845 30.9362 14.6941 31.5179 14.8384 32.1243C14.8993 32.2618 14.9556 32.4016 15.0075 32.5436C15.0526 32.6676 15.0819 32.8051 15.0706 32.9291C15.0729 32.9382 15.0774 32.9449 15.0796 32.9539C15.0887 32.9855 15.0977 33.0193 15.1044 33.0509C15.1247 33.1072 15.145 33.1659 15.1631 33.2245C15.251 33.5018 15.3975 33.8354 15.3119 34.115C15.4268 34.3224 15.5328 34.5366 15.6275 34.7552C15.6455 34.7981 15.6635 34.8432 15.6816 34.886C15.756 35.0326 15.8259 35.1791 15.8845 35.3346C15.9566 35.524 16.0288 35.7269 16.031 35.9276C16.4256 36.1395 16.7141 36.5092 16.9373 36.9038C16.9914 36.9782 17.0523 37.048 17.1019 37.1247C17.1808 37.2419 17.2394 37.3682 17.2304 37.5034C17.2732 37.6432 17.2732 37.8394 17.1447 37.916C17.0162 37.9927 16.8584 37.9295 16.757 37.8168C16.6465 37.6928 16.5473 37.5508 16.4526 37.4155C16.3872 37.3231 16.3286 37.2284 16.27 37.1337C16.2429 37.0976 16.2136 37.0661 16.1866 37.03C16.0626 36.8632 15.9454 36.6941 15.8349 36.5205C15.7988 36.4641 15.7672 36.41 15.7379 36.3559C15.7131 36.3514 15.6861 36.3446 15.6568 36.3334C15.499 36.2657 15.4156 36.0944 15.3434 35.9343C15.3412 35.9298 15.3389 35.9253 15.3366 35.9208V35.9185Z" fill="#261E06"/>
<path d="M13.4632 29.7663C13.4632 29.7663 13.4497 31.4842 14.4236 32.1673C15.3975 32.8504 17.6971 34.0114 18.8333 34.4916C20.7992 35.3213 22.1271 35.3348 23.6714 34.9425C23.6714 34.9425 25.1007 32.3724 23.8067 30.402C22.7786 28.8352 23.1281 27.9559 19.7937 26.5311C16.7457 25.2258 16.4301 25.6 15.3096 26.3575C14.2906 27.0451 13.4609 29.7685 13.4609 29.7685L13.4632 29.7663Z" fill="#2E1D07"/>
<mask id="mask3_178_247859" style="mask-type:luminance" maskUnits="userSpaceOnUse" x="13" y="25" width="12" height="11">
<path d="M13.4632 29.7663C13.4632 29.7663 13.4497 31.4842 14.4236 32.1673C15.3975 32.8504 17.6971 34.0114 18.8333 34.4916C20.7992 35.3213 22.1271 35.3348 23.6714 34.9425C23.6714 34.9425 25.1007 32.3724 23.8067 30.402C22.7786 28.8352 23.1281 27.9559 19.7937 26.5311C16.7457 25.2258 16.4301 25.6 15.3096 26.3575C14.2906 27.0451 13.4609 29.7685 13.4609 29.7685L13.4632 29.7663Z" fill="white"/>
</mask>
<g mask="url(#mask3_178_247859)">
<path d="M18.7206 26.6935C18.7657 26.3328 18.7567 25.9721 18.6417 25.6339C18.6079 25.5347 18.529 25.4941 18.4479 25.4851C18.4231 25.4152 18.4028 25.3431 18.3735 25.2732C18.281 25.0477 17.9564 25.0973 17.9226 25.28C17.7512 25.0049 17.3364 24.9666 17.1651 25.1762C17.0614 25.0432 16.9374 24.9305 16.7841 24.8493C16.6758 24.793 16.5361 24.8223 16.4729 24.9305C16.4121 25.032 16.4459 25.1853 16.5541 25.2416C16.7705 25.3543 16.9148 25.5753 17.0027 25.7962C17.0568 25.9337 17.0952 26.078 17.1267 26.2223C17.1019 27.3676 16.7074 28.4587 16.2047 29.4935C15.9747 29.8565 15.7267 30.2037 15.4877 30.5283C15.2352 30.871 14.9692 31.2024 14.6987 31.5316C14.3402 31.7705 13.9434 31.996 13.5038 31.9779C13.2107 31.9667 13.2107 32.4221 13.5038 32.4333C13.6706 32.4401 13.8307 32.4153 13.9885 32.3747C13.975 32.3905 13.9615 32.4085 13.9479 32.4243C13.6842 32.7332 13.4227 33.0466 13.1341 33.3351C12.8771 33.5921 12.5096 33.9979 12.1061 33.8875C11.822 33.8108 11.7025 34.2504 11.9843 34.3271C12.0925 34.3564 12.2007 34.3654 12.3044 34.3587C12.2007 34.5886 12.2571 34.911 12.5615 35.0237C13.1927 35.2582 13.7202 34.8659 14.1441 34.397C14.8046 34.149 15.3389 33.4727 15.7605 32.9519C16.0401 32.6047 16.2993 32.244 16.5428 31.872C17.9451 30.5126 18.9078 28.6166 18.7274 26.6867L18.7206 26.6935ZM13.7608 33.4343C13.7202 33.4839 13.6706 33.547 13.6188 33.6147C13.4542 33.6688 13.3663 33.7883 13.3483 33.9281C13.204 34.0723 13.0439 34.1738 12.8838 34.1603C13.328 33.8875 13.709 33.3982 13.9998 33.0601C14.117 32.9248 14.2298 32.7873 14.347 32.652C14.1621 32.9203 13.9705 33.1841 13.7608 33.4343Z" fill="#FFC417"/>
<path d="M21.6378 26.7295C21.6378 26.4815 21.3155 26.4454 21.214 26.6168C21.1531 26.5762 21.0855 26.5514 21.0134 26.5424C21.0043 26.5063 20.9976 26.468 20.9863 26.4319C20.8916 26.1276 20.5918 26.0644 20.3618 26.1569C20.2175 26.1028 20.0034 26.2222 20.0439 26.4274C20.337 27.9537 19.8861 29.4303 19.194 30.7762C19.0678 30.9656 18.9393 31.1505 18.804 31.3331C18.0262 32.3814 17.1717 33.3756 16.3151 34.3654C16.2948 34.3789 16.2745 34.3924 16.2542 34.4059C15.9949 34.433 15.8349 34.6787 15.8461 34.9109C15.774 34.9943 15.7018 35.0778 15.6297 35.1634C15.5418 35.1724 15.4584 35.213 15.3885 35.2694C15.3344 35.2897 15.2848 35.319 15.2262 35.3348C14.9894 35.4047 15.039 35.7248 15.2307 35.7744C15.2509 35.8307 15.2803 35.8871 15.3299 35.9412L15.4268 36.0427C15.5869 36.2095 15.9138 36.2275 16.0716 36.0427C16.0851 36.0269 16.0986 36.0111 16.1122 35.9953C16.518 36.0336 16.9711 35.4204 17.2123 35.1702C17.422 34.9538 17.6317 34.7351 17.8413 34.5187C17.9428 34.4262 18.042 34.327 18.1434 34.2301C18.7995 33.8558 19.3293 33.3373 19.7666 32.7399C20.0327 32.4896 20.2378 32.1672 20.4182 31.8539C20.7113 31.3466 20.9435 30.8056 21.1238 30.251C21.1328 30.2217 21.1396 30.1901 21.1486 30.1608C21.4755 29.41 21.6581 28.6097 21.5905 27.7981C21.6176 27.4419 21.6378 27.0834 21.6378 26.725V26.7295Z" fill="#FFC417"/>
<path d="M23.881 28.5447C23.7751 28.3666 23.5564 28.2944 23.3715 28.3327C23.358 28.2426 23.349 28.1524 23.3354 28.06C23.2768 27.6632 23.1821 27.2754 22.9184 26.9643C22.7944 26.8178 22.5126 26.9327 22.5283 27.1266C22.5441 27.2957 22.5982 27.4445 22.6569 27.5978C22.6163 27.6542 22.5937 27.724 22.6185 27.7894C22.6681 27.9247 22.7155 28.06 22.7628 28.1952C22.7921 28.6213 22.8057 29.0497 22.7876 29.4758C22.6591 30.6255 22.109 31.6896 21.5048 32.6703C21.3493 32.9251 21.1824 33.1731 21.0201 33.4211C20.691 33.7435 20.3257 34.032 19.9515 34.2981C19.6043 34.546 19.2481 34.785 18.8829 35.0082C18.538 35.2201 18.1389 35.5245 17.7173 35.5155C17.4874 35.5109 17.44 35.786 17.5708 35.91C17.4851 35.9415 17.4017 35.9776 17.316 36.0047C17.0387 36.0971 17.1582 36.539 17.4378 36.4443C18.166 36.1986 18.8513 35.8536 19.4848 35.4298C19.469 35.4478 19.4555 35.4659 19.442 35.4816C19.3383 35.5583 19.2323 35.6327 19.1241 35.6981C18.955 35.7973 18.8964 35.9528 18.9077 36.1016C18.8243 36.1986 18.7409 36.2955 18.6552 36.3924C18.2697 36.8321 18.9144 37.4813 19.3 37.0372C19.3135 37.0214 19.3293 37.0034 19.3428 36.9876C19.7531 36.7532 20.0507 36.3857 20.3077 35.9889C20.4204 35.8762 20.5332 35.7657 20.6436 35.6507C20.7 35.5966 20.7473 35.5335 20.8014 35.4794C21.2839 35.157 21.6784 34.6948 22.0324 34.2439C22.4427 33.7209 22.8034 33.1641 23.1055 32.5734C23.721 31.374 24.0952 30.0709 24.2214 28.7273C24.2395 28.5266 24.0321 28.468 23.89 28.5424L23.881 28.5447Z" fill="#FFC417"/>
</g>
<g opacity="0.71">
<path d="M11.9077 25.2098C11.9077 25.2098 16.7728 23.5889 20.1657 21.1743C23.5587 18.7598 25.4728 15.6284 24.4402 14.1765C23.4077 12.7269 19.8208 13.5069 16.4278 15.9215C13.0349 18.336 11.9054 25.2098 11.9054 25.2098H11.9077Z" fill="#BFDCDC"/>
<mask id="mask4_178_247859" style="mask-type:luminance" maskUnits="userSpaceOnUse" x="11" y="13" width="14" height="13">
<path d="M11.9077 25.2098C11.9077 25.2098 16.7728 23.5889 20.1657 21.1743C23.5587 18.7598 25.4728 15.6284 24.4402 14.1765C23.4077 12.7269 19.8208 13.5069 16.4278 15.9215C13.0349 18.336 11.9054 25.2098 11.9054 25.2098H11.9077Z" fill="white"/>
</mask>
<g mask="url(#mask4_178_247859)">
<path d="M24.7716 11.3584C23.579 11.7777 22.5397 12.5285 21.7664 13.5317C21.0292 14.4899 20.5264 15.5968 19.8704 16.6068C19.5322 17.1276 19.1512 17.6484 18.6687 18.0474C18.4433 18.2368 18.1931 18.4013 17.918 18.5096C17.6227 18.6245 17.3093 18.6606 17.0027 18.7282C16.9373 18.7418 16.8787 18.7666 16.8178 18.7846C16.8088 18.7756 16.8066 18.7643 16.7953 18.7575C16.6668 18.6493 17.041 18.248 17.0996 18.1646C17.2214 17.991 17.3409 17.8174 17.4558 17.6393C17.7083 17.2561 17.9473 16.8661 18.175 16.4693C18.6327 15.6689 19.034 14.8393 19.3857 13.9871C19.5006 13.7076 19.0723 13.5137 18.9573 13.7932C18.5493 14.7852 18.0713 15.7478 17.519 16.6654C17.2417 17.1276 16.9441 17.5762 16.6307 18.0136C16.4256 18.2999 16.1798 18.6583 16.3715 18.9717C16.1257 19.1115 15.907 19.2919 15.7177 19.5286C15.6703 19.5872 15.6297 19.6481 15.5869 19.7089C15.5982 19.1002 15.5598 18.4893 15.65 17.8851C15.7763 17.0464 16.1302 16.2596 16.6645 15.6013C16.8539 15.3668 16.4909 15.0693 16.2993 15.3037C15.7425 15.9913 15.3615 16.812 15.2059 17.6822C15.0436 18.5907 15.2014 19.5173 15.0639 20.4258C15.0594 20.4574 15.0639 20.4845 15.0684 20.5115C14.985 20.6445 14.897 20.7753 14.8001 20.8993C13.9704 21.9747 12.2413 22.0445 11.7363 23.4265C11.6326 23.7083 12.0609 23.9045 12.1646 23.6204C12.5186 22.6555 13.6052 22.3692 14.4371 21.8439C14.2793 22.6239 13.763 23.2574 13.249 23.8459C12.9492 24.1885 12.6448 24.5267 12.3856 24.9009C12.1849 25.1918 11.8287 25.6404 11.9888 26.0146C12.106 26.2919 12.5479 26.1319 12.4307 25.8546C12.372 25.7193 12.593 25.4398 12.6629 25.3316C12.7846 25.1422 12.9221 24.9596 13.0642 24.786C13.3392 24.4478 13.6368 24.1299 13.9163 23.794C13.9953 23.6993 14.0674 23.6001 14.1395 23.5032C14.2117 23.5708 14.3176 23.5979 14.4191 23.5212C15.1135 22.9937 15.9995 22.9238 16.8269 22.7479C17.6227 22.5789 18.3824 22.2925 19.1151 21.9453C19.1602 21.9589 19.2053 21.9611 19.2481 21.9408C19.5638 21.7853 19.8478 21.7222 20.1973 21.7267C20.2469 21.7267 20.2334 21.7267 20.2829 21.7312C20.3235 21.7334 20.3641 21.7379 20.4047 21.7425C20.4881 21.7537 20.5738 21.7695 20.6549 21.7898C20.6752 21.7943 20.6933 21.8011 20.7135 21.8056C20.7271 21.8078 20.7271 21.8101 20.7316 21.8101C20.7361 21.8101 20.7361 21.8101 20.7496 21.8168C20.7879 21.8304 20.8263 21.8416 20.8646 21.8574C20.948 21.889 21.0292 21.9273 21.1081 21.9679C21.2208 22.0265 21.3696 21.9611 21.4192 21.8507C21.4733 21.7289 21.4147 21.6004 21.302 21.5395C20.6865 21.2127 19.9245 21.1743 19.2752 21.4246C19.2301 21.4065 19.176 21.4043 19.1151 21.4336C18.29 21.8349 17.4356 22.1595 16.5315 22.3354C15.8529 22.4661 15.1563 22.5766 14.5453 22.8967C14.7347 22.5518 14.879 22.1843 14.9331 21.7875C15.7019 21.5621 16.4436 21.2555 17.147 20.8745C17.2033 20.9421 17.2913 20.9827 17.3995 20.9511C18.2449 20.6964 19.0993 20.6265 19.9763 20.6603C20.8195 20.6919 21.6785 20.6603 22.3255 20.0494C22.5442 19.8419 22.179 19.5466 21.9603 19.7518C21.3471 20.3334 20.3934 20.1981 19.6224 20.1801C19.0407 20.1666 18.4636 20.2229 17.8955 20.3424C17.9789 20.2545 18.0578 20.1598 18.1232 20.0494C18.3193 19.7134 18.3914 19.3234 18.4568 18.9447C18.4681 18.877 18.4523 18.8229 18.4208 18.7778C18.5109 18.7305 18.6011 18.6854 18.689 18.6245C18.6981 18.6178 18.7071 18.611 18.7161 18.6042C18.7544 18.6133 18.795 18.6155 18.8401 18.6042C19.3383 18.4554 19.8614 18.469 20.3776 18.4735C20.9052 18.478 21.4282 18.4509 21.949 18.3563C22.9139 18.1827 24.1223 17.8738 24.7175 17.0284C24.8911 16.7826 24.5281 16.485 24.3522 16.7308C24.0208 17.1997 23.4956 17.4252 22.968 17.6078C22.4991 17.7701 22.0144 17.8828 21.5229 17.9459C20.8105 18.0361 20.08 17.9572 19.3699 18.0294C19.4758 17.9166 19.5773 17.8017 19.6742 17.6822C19.7058 17.6709 19.7374 17.6529 19.7667 17.6281C20.6098 16.8345 21.8092 16.6113 22.7651 15.9936C23.1574 15.7411 23.5158 15.4232 23.7638 15.0264C24.0479 14.5688 24.1245 14.0548 24.1787 13.5272C24.2102 13.2274 23.7481 13.1485 23.7165 13.4483C23.6601 13.9781 23.5925 14.4966 23.2611 14.9317C22.9703 15.3127 22.5645 15.59 22.1451 15.8132C21.5725 16.1198 20.9683 16.343 20.4047 16.6384C20.8601 15.9012 21.2524 15.1234 21.7281 14.3997C22.5149 13.2003 23.5677 12.2805 24.9316 11.8025C25.218 11.7011 25.0556 11.2615 24.7716 11.3607V11.3584ZM17.7129 19.8217C17.5212 20.1485 17.1673 20.3312 16.8449 20.5025C16.3016 20.7933 15.7334 21.03 15.1495 21.2217C15.7515 20.4574 16.0513 19.4136 17.1087 19.1814C17.413 19.1137 17.7016 19.0529 17.9789 18.9627C17.927 19.258 17.8684 19.5601 17.7151 19.8194L17.7129 19.8217Z" fill="#9EDCDC"/>
</g>
</g>
<path d="M8.05016 25.2485C8.05016 25.2485 9.35098 24.2768 10.7239 24.2047C12.0969 24.1326 14.0425 24.0717 15.3614 25.0614C16.6802 26.0511 14.4979 30.3075 13.391 30.6953C12.284 31.0831 8.855 29.5545 8.3793 28.4679C8.12681 27.8907 8.06819 27.6134 8.05016 26.7793C8.02987 25.9451 8.05016 25.2463 8.05016 25.2463V25.2485Z" fill="#4F3E0C"/>
<path d="M8.05016 25.2485C8.05016 25.2485 9.35098 24.2768 10.7239 24.2047C12.0969 24.1326 14.0425 24.0717 15.3614 25.0614C16.6802 26.0511 14.4979 30.3075 13.391 30.6953C12.284 31.0831 8.855 29.5545 8.3793 28.4679C8.12681 27.8907 8.06819 27.6134 8.05016 26.7793C8.02987 25.9451 8.05016 25.2463 8.05016 25.2463V25.2485Z" fill="#86680E"/>
<path d="M14.3853 25.0589C13.5722 24.7167 11.1558 24.6127 10.3318 24.8447C9.41681 25.1021 8.81142 25.8422 8.77845 26.8016C8.7176 28.5722 11.9121 30.3787 13.0349 29.8316C14.4282 29.1526 16.8884 26.1108 14.3853 25.0589Z" fill="#94720F"/>
<path d="M13.7449 26.0171C12.9139 25.6016 11.8354 25.7596 10.9651 25.5572C10.4579 25.4422 10.0092 25.7105 9.84242 26.1952C9.56937 26.9833 10.2048 27.6739 10.8885 27.9627C11.8386 28.3612 13.3328 28.8835 14.2071 28.0191C14.8473 27.3811 14.4731 26.3869 13.7426 26.0239L13.7449 26.0171Z" fill="#A17E17"/>
<path d="M5.54548 25.1535C5.08107 24.5357 4.04627 24.7229 3.406 24.9167C2.64399 25.1467 1.95412 25.5999 1.44913 26.2153C1.26426 26.4408 1.58665 26.7654 1.77152 26.5377C2.18859 26.0282 2.73417 25.6314 3.35865 25.4105C3.66301 25.3023 3.98089 25.2324 4.30327 25.2098C4.48363 25.1986 4.75417 25.176 4.95707 25.2504C3.5548 25.3 2.39826 26.2672 1.75123 27.4711C1.61145 27.7303 2.00598 27.9603 2.14576 27.701C2.74545 26.5851 3.8073 25.6652 5.13292 25.6945C5.27721 25.6968 5.3516 25.5886 5.3516 25.4736C5.51393 25.4668 5.66497 25.3135 5.54323 25.1512L5.54548 25.1535Z" fill="#362A08"/>
<path d="M4.66187 26.3259C4.66187 27.8702 5.64707 29.5182 6.24224 29.6084C6.33693 29.6219 6.72921 29.7188 6.80135 29.7053C6.88928 29.6895 6.73146 29.4957 6.81488 29.4618C7.68736 29.1101 8.40653 27.8386 8.65001 26.5491C8.91153 25.1603 8.56434 23.4041 6.61423 23.5304C5.53885 23.6003 4.66412 24.7816 4.66412 26.3259H4.66187Z" fill="#94720F"/>
<path d="M4.59863 26.5495C4.59863 27.5414 5.29075 28.6281 5.67852 28.6281C6.37064 28.6281 6.9771 27.6699 7.16196 26.6938C7.33105 25.801 7.10785 24.6715 5.85437 24.7527C5.16225 24.7978 4.60089 25.5575 4.60089 26.5495H4.59863Z" fill="#3B2E09"/>
<path d="M4.66187 26.297C4.66187 26.8922 5.07894 27.546 5.31115 27.546C5.72823 27.546 6.0912 26.9688 6.20167 26.3849C6.30312 25.8484 6.16785 25.1698 5.41486 25.2194C5.00004 25.2464 4.66187 25.7018 4.66187 26.2992V26.297Z" fill="#4A3A0B"/>
<g opacity="0.71">
<path d="M12.0745 24.9056C12.0745 24.9056 17.1831 24.4502 21.0405 22.8856C24.8978 21.321 27.4837 18.7126 26.8141 17.0646C26.1446 15.4143 22.4743 15.3467 18.6169 16.9135C14.7573 18.4804 12.0745 24.9078 12.0745 24.9078V24.9056Z" fill="#BFDCDC"/>
<mask id="mask5_178_247859" style="mask-type:luminance" maskUnits="userSpaceOnUse" x="12" y="15" width="15" height="10">
<path d="M12.0745 24.9056C12.0745 24.9056 17.1831 24.4502 21.0405 22.8856C24.8978 21.321 27.4837 18.7126 26.8141 17.0646C26.1446 15.4143 22.4743 15.3467 18.6169 16.9135C14.7573 18.4804 12.0745 24.9078 12.0745 24.9078V24.9056Z" fill="white"/>
</mask>
<g mask="url(#mask5_178_247859)">
<path d="M27.7881 14.3979C26.5301 14.531 25.3465 15.0224 24.3635 15.8183C23.4257 16.5803 22.6817 17.5407 21.8092 18.3726C21.3606 18.8009 20.8691 19.218 20.3078 19.4975C20.044 19.6283 19.7644 19.732 19.4714 19.7748C19.158 19.8199 18.8446 19.7816 18.529 19.7748C18.4614 19.7748 18.4005 19.7838 18.3351 19.7861C18.3284 19.7748 18.3284 19.7636 18.3193 19.7545C18.2201 19.6193 18.6755 19.3149 18.7522 19.2473C18.91 19.1075 19.0656 18.9655 19.2211 18.8189C19.5548 18.5056 19.8794 18.1809 20.1905 17.845C20.8195 17.1732 21.4034 16.4585 21.94 15.71C22.1158 15.4643 21.7439 15.1757 21.568 15.4237C20.9435 16.2962 20.2559 17.1191 19.5052 17.8878C19.1287 18.2734 18.7364 18.6408 18.3306 18.9948C18.0668 19.2247 17.7445 19.5178 17.8572 19.8673C17.5866 19.9462 17.3319 20.0724 17.0907 20.2573C17.032 20.3024 16.9779 20.3542 16.9216 20.4038C17.0726 19.8132 17.1763 19.2112 17.404 18.6431C17.7219 17.8563 18.2472 17.1732 18.919 16.6547C19.158 16.4698 18.8739 16.0956 18.6327 16.2827C17.9338 16.8237 17.3725 17.5339 17.0208 18.3455C16.6533 19.1909 16.5924 20.1288 16.2497 20.9832C16.2385 21.0125 16.234 21.0396 16.234 21.0666C16.1212 21.1771 16.0063 21.2831 15.8845 21.3823C14.8272 22.2367 13.1296 21.9076 12.3202 23.134C12.1556 23.3842 12.5254 23.6728 12.6922 23.4203C13.2581 22.5636 14.383 22.5365 15.3119 22.2164C14.9782 22.9378 14.3289 23.4361 13.6932 23.8892C13.3235 24.153 12.947 24.4123 12.6088 24.7166C12.345 24.9533 11.8964 25.3073 11.964 25.7086C12.0159 26.0062 12.4825 25.952 12.4307 25.6545C12.4059 25.5102 12.6832 25.2892 12.7779 25.1991C12.9402 25.0412 13.116 24.897 13.2964 24.7594C13.6413 24.4934 14.0066 24.2544 14.3537 23.9907C14.4507 23.9163 14.5454 23.8374 14.6378 23.7585C14.6919 23.8419 14.7888 23.8915 14.9061 23.8396C15.7042 23.4879 16.5811 23.6232 17.4266 23.6435C18.2404 23.6615 19.0453 23.5578 19.8388 23.391C19.8794 23.4135 19.9223 23.4271 19.9696 23.4158C20.3123 23.3369 20.6031 23.3414 20.9435 23.4271C20.9909 23.4383 20.9796 23.4361 21.0269 23.4496C21.0653 23.4609 21.1036 23.4744 21.1419 23.4902C21.2208 23.5195 21.2997 23.5556 21.3741 23.5939C21.3922 23.6029 21.4102 23.6119 21.4282 23.6232C21.4395 23.63 21.4418 23.6299 21.444 23.6322C21.4463 23.6322 21.4485 23.6345 21.4598 23.6412C21.4936 23.6615 21.5274 23.6841 21.5613 23.7066C21.6357 23.7562 21.7055 23.8126 21.7709 23.8712C21.8656 23.9546 22.0257 23.9253 22.1001 23.8284C22.1812 23.7224 22.1519 23.5826 22.0572 23.4992C21.5342 23.0393 20.8015 22.8251 20.1116 22.9198C20.0711 22.8927 20.0192 22.877 19.9538 22.8927C19.0565 23.0934 18.1502 23.2106 17.2304 23.1723C16.5406 23.143 15.8372 23.0889 15.1676 23.2602C15.4314 22.9694 15.6568 22.6425 15.8011 22.2705C16.6014 22.2277 17.3928 22.1014 18.166 21.8918C18.2044 21.9707 18.281 22.0316 18.3937 22.0248C19.273 21.9729 20.1229 22.1014 20.9683 22.3359C21.7822 22.5613 22.6254 22.7304 23.3964 22.284C23.6557 22.133 23.3693 21.761 23.1101 21.9121C22.3796 22.3359 21.4823 21.9865 20.7361 21.7903C20.1725 21.6415 19.5976 21.5649 19.0182 21.5491C19.1197 21.4837 19.2189 21.4093 19.3068 21.3169C19.5751 21.0351 19.7351 20.6721 19.8862 20.3204C19.9132 20.2573 19.9087 20.2009 19.8907 20.1513C19.9899 20.1265 20.0868 20.104 20.1883 20.0657C20.1996 20.0612 20.2086 20.0566 20.2176 20.0521C20.2514 20.0702 20.292 20.0814 20.3371 20.0792C20.8579 20.0499 21.3629 20.1829 21.8633 20.3069C22.3751 20.4331 22.8914 20.5256 23.4189 20.5549C24.3974 20.609 25.6441 20.5864 26.4196 19.9033C26.6451 19.7049 26.361 19.3307 26.1333 19.5314C25.7027 19.9101 25.1391 20.0093 24.5845 20.0657C24.0908 20.1153 23.5925 20.113 23.0988 20.0611C22.3864 19.9845 21.692 19.7388 20.9841 19.6463C21.1126 19.5607 21.2389 19.4727 21.3606 19.378C21.3944 19.3758 21.4282 19.3645 21.4621 19.3465C22.4653 18.7693 23.6827 18.828 24.7581 18.4492C25.1977 18.2936 25.6193 18.0682 25.9529 17.7368C26.3339 17.3581 26.5278 16.8733 26.7037 16.3751C26.8029 16.0911 26.3723 15.9062 26.2708 16.1925C26.095 16.6952 25.9078 17.1845 25.484 17.5316C25.1143 17.836 24.6544 18.0118 24.1945 18.1336C23.5677 18.3004 22.9275 18.3771 22.3097 18.5349C22.9229 17.9217 23.4843 17.2566 24.1156 16.6614C25.1571 15.6762 26.3948 15.0247 27.8332 14.8736C28.1353 14.8421 28.0789 14.3754 27.7791 14.407L27.7881 14.3979ZM18.9664 21.0013C18.7026 21.2763 18.3193 21.371 17.9631 21.4634C17.368 21.6212 16.7592 21.7204 16.146 21.7723C16.908 21.1681 17.4401 20.2212 18.5222 20.2392C18.8334 20.2438 19.1287 20.2505 19.4195 20.228C19.3 20.503 19.1738 20.7848 18.9641 21.0013H18.9664Z" fill="#9EDCDC"/>
</g>
</g>
<path d="M11.6258 35.5423C11.6055 35.5017 11.592 35.4566 11.5695 35.4183C11.5401 35.3664 11.5018 35.3258 11.4567 35.2943C11.45 35.2875 11.4432 35.2808 11.4342 35.274C11.4748 35.1455 11.4906 35.0012 11.4951 34.8592C11.5063 34.8096 11.5131 34.76 11.5244 34.7104C11.5717 34.6157 11.5943 34.5097 11.6078 34.3925C11.6371 34.1445 11.6551 33.892 11.6641 33.6418C11.6822 33.1638 11.6551 32.6723 11.5063 32.2147C11.4996 32.1944 11.4905 32.1719 11.4838 32.1516C11.5063 32.1335 11.5334 32.12 11.5537 32.0975C11.7273 31.9058 11.7363 31.5857 11.7746 31.3422C11.8558 30.8034 11.9031 30.2601 11.9076 29.7168C11.9076 29.4327 11.8986 29.1486 11.8783 28.8668C11.8603 28.6301 11.8625 28.3618 11.7633 28.1409C11.6732 27.9357 11.4905 27.7914 11.2583 27.8162C11.0532 27.8365 10.8909 27.9808 10.8728 28.1882C10.8548 28.2266 10.8368 28.2649 10.821 28.3032C10.7308 28.5264 10.6609 28.7563 10.6136 28.9908C10.6023 29.0427 10.5978 29.0945 10.5888 29.1464C10.5549 29.2749 10.5234 29.4011 10.4963 29.5319C10.4016 29.9918 10.3633 30.4968 10.458 30.9657C10.4603 30.9838 10.4603 31.004 10.4625 31.0221C10.5053 31.3016 10.5978 31.6488 10.7646 31.9149C10.7511 31.9735 10.7443 32.0366 10.7398 32.102C10.6947 32.1583 10.6609 32.2237 10.6339 32.2868C10.5256 32.5371 10.5189 32.8211 10.5211 33.0894C10.5256 33.4975 10.573 33.9033 10.6632 34.3001C10.6767 34.415 10.697 34.5278 10.7173 34.6405C10.7218 34.6901 10.7218 34.7374 10.7263 34.787C10.7466 35.017 10.8007 35.2267 10.9179 35.4205C10.9044 35.4972 10.9066 35.5783 10.9179 35.6595C10.9382 35.788 10.9698 35.9143 11.0081 36.0405C11.0194 36.0743 11.0329 36.1059 11.0442 36.1375C11.0532 36.1803 11.0599 36.2254 11.0735 36.266C11.1479 36.5049 11.2606 36.7236 11.4162 36.9197C11.5176 37.0505 11.7633 37.0054 11.8039 36.8408C11.9121 36.4035 11.8445 35.93 11.6213 35.5445L11.6258 35.5423Z" fill="#362A08"/>
<path d="M8.88894 33.0781C8.8957 33.0578 8.90247 33.0375 8.90472 33.0127C8.90472 32.9992 8.90472 32.9857 8.90472 32.9721C8.93178 32.8527 8.94079 32.7309 8.94079 32.6069C8.94079 32.3589 8.93628 32.1109 8.92501 31.8629C8.91149 31.5541 8.916 31.2024 8.82131 30.8935C8.81905 30.8507 8.82131 30.8101 8.8168 30.7673C8.80328 30.614 8.77847 30.4607 8.6928 30.3299C8.7672 30.3367 8.8416 30.3254 8.90924 30.2758C9.06479 30.1631 9.09185 29.9151 9.13468 29.7392C9.18428 29.5341 9.22711 29.3289 9.26093 29.1215C9.33758 28.6571 9.38041 28.1859 9.38267 27.7147C9.38267 27.4713 9.07606 27.4329 8.96785 27.5907C8.95207 27.5907 8.93629 27.5907 8.92051 27.5975C8.89796 27.6065 8.88218 27.6223 8.86189 27.6336C8.81454 27.6291 8.76495 27.6336 8.72888 27.6606C8.40649 27.9064 8.31405 28.3663 8.22838 28.7428C8.163 29.0313 8.11341 29.3605 8.22613 29.64C8.24868 29.8204 8.28024 30.0098 8.39296 30.1586C8.40649 30.1789 8.42678 30.1924 8.44482 30.2082C8.40198 30.2149 8.36366 30.2352 8.33209 30.2668C8.28475 30.2916 8.24191 30.3322 8.22838 30.3975C8.19457 30.5441 8.16977 30.6929 8.15173 30.8417C8.0841 31.1889 8.05254 31.5405 8.06606 31.8922C8.07734 32.147 8.1089 32.404 8.16075 32.6543C8.20133 32.8504 8.25769 33.0578 8.39296 33.2089C8.39296 33.2382 8.39071 33.2697 8.39296 33.299C8.32758 33.4952 8.31856 33.6958 8.36816 33.9032C8.42227 34.1219 8.53499 34.3226 8.64772 34.5164C8.69957 34.6066 8.78524 34.6359 8.86414 34.6224C8.9408 34.7374 9.01745 34.8501 9.10988 34.9538C9.23613 35.0936 9.51794 34.9899 9.4999 34.7915C9.44129 34.1783 9.23388 33.5876 8.89571 33.0713L8.88894 33.0781Z" fill="#362A08"/>
<path d="M15.0729 37.3845C14.888 37.0869 14.7482 36.7126 14.7054 36.5774C14.516 35.9754 14.4619 35.3487 14.4146 34.7219C14.4146 34.7174 14.4146 34.7129 14.4146 34.7084C13.8757 33.8427 13.5218 32.8688 13.4158 31.8498C13.355 31.2613 13.3662 30.6594 13.4654 30.0755C13.5015 29.8658 13.5488 29.5615 13.8261 29.5683C13.8261 29.5683 13.8284 29.5683 13.8306 29.5683C13.9434 29.5322 14.0899 29.5728 14.1305 29.7013C14.2635 30.1364 14.3898 30.5737 14.5092 31.0111C14.8339 31.6446 14.9872 32.33 15.0616 33.0356C15.1112 33.2002 15.154 33.3648 15.1923 33.5316C15.2262 33.6804 15.2397 33.8359 15.2059 33.9757C15.2059 33.9847 15.2104 33.9938 15.2104 34.005C15.2171 34.0411 15.2216 34.0794 15.2239 34.1177C15.2374 34.1854 15.2532 34.253 15.2645 34.3207C15.3231 34.6453 15.4403 35.0443 15.3051 35.3464C15.4043 35.5989 15.4922 35.8537 15.5688 36.113C15.5846 36.1648 15.5959 36.2167 15.6117 36.2685C15.6748 36.4444 15.7312 36.6202 15.7762 36.8028C15.8304 37.026 15.8822 37.2672 15.8552 37.4927C16.27 37.7903 16.5405 38.2479 16.7367 38.7259C16.7885 38.816 16.8449 38.904 16.8922 38.9987C16.9643 39.1407 17.0117 39.294 16.9824 39.445C17.0094 39.6096 16.9824 39.8283 16.8268 39.8982C16.6713 39.9681 16.5022 39.8711 16.4052 39.7314C16.297 39.5758 16.2068 39.4022 16.1189 39.2354C16.0581 39.1226 16.0085 39.0054 15.9521 38.8904C15.9273 38.8476 15.898 38.8048 15.8732 38.7619C15.7582 38.5568 15.65 38.3471 15.5485 38.1352C15.517 38.0676 15.4877 38.0022 15.4629 37.9345C15.4336 37.9278 15.4043 37.9143 15.3727 37.8962C15.2059 37.797 15.1337 37.5919 15.0774 37.4002C15.0751 37.3957 15.0729 37.389 15.0706 37.3845H15.0729Z" fill="#362A08"/>
<path d="M39.6929 15.9168C39.6971 15.902 39.7034 15.8873 39.7034 15.8683C39.7034 15.8577 39.7034 15.8472 39.7034 15.8366C39.7222 15.748 39.7264 15.6551 39.7264 15.5623C39.7243 15.3766 39.7159 15.1909 39.7034 15.0052C39.6887 14.773 39.6866 14.5093 39.6133 14.2793C39.6112 14.2476 39.6112 14.2159 39.607 14.1843C39.5945 14.0682 39.5735 13.9564 39.5086 13.8572C39.5631 13.8614 39.6196 13.8509 39.6699 13.8129C39.7829 13.7264 39.7997 13.5386 39.829 13.4077C39.8625 13.2537 39.8918 13.0996 39.9149 12.9435C39.9651 12.5953 39.9903 12.2429 39.9861 11.8883C39.9861 11.7069 39.7557 11.6815 39.6761 11.8018C39.6636 11.8018 39.6531 11.8018 39.6405 11.8082C39.6238 11.8145 39.6133 11.8271 39.5966 11.8356C39.561 11.8314 39.5254 11.8356 39.4981 11.8588C39.2615 12.0466 39.2008 12.3927 39.14 12.6776C39.094 12.8949 39.0646 13.1418 39.1505 13.3507C39.1693 13.4858 39.1966 13.6272 39.2803 13.7348C39.2908 13.7496 39.3055 13.7601 39.3201 13.7707C39.2887 13.777 39.2594 13.7918 39.2364 13.8171C39.2008 13.8361 39.1714 13.8678 39.161 13.9163C39.1379 14.026 39.1212 14.1379 39.1107 14.2497C39.0646 14.5093 39.0458 14.7752 39.0625 15.0389C39.073 15.231 39.1002 15.4209 39.1442 15.6087C39.1777 15.7543 39.2217 15.9084 39.3243 16.0202C39.3243 16.0434 39.3243 16.0645 39.3243 16.0877C39.2782 16.2354 39.2741 16.3874 39.3159 16.5393C39.3599 16.7018 39.4458 16.8516 39.5316 16.9951C39.5714 17.0627 39.6343 17.0817 39.6929 17.0711C39.7515 17.1555 39.8102 17.2399 39.8814 17.3159C39.9756 17.4193 40.185 17.337 40.1683 17.1893C40.1159 16.7292 39.9547 16.2903 39.695 15.9105L39.6929 15.9168Z" fill="#362A08"/>
<path d="M41.9458 18.8394C41.9479 18.8204 41.9521 18.7993 41.9479 18.7761C41.9479 18.7634 41.9437 18.7508 41.9416 18.7381C41.9479 18.6242 41.9353 18.5102 41.9165 18.3941C41.8788 18.1662 41.8327 17.9383 41.7846 17.7104C41.7217 17.4277 41.5207 16.7545 41.5102 16.7165C41.4746 16.5772 41.4265 16.4401 41.328 16.3324C41.3971 16.3261 41.4641 16.305 41.5186 16.248C41.6422 16.1193 41.6275 15.8851 41.638 15.7184C41.6505 15.5221 41.6568 15.3259 41.6547 15.1275C41.6505 14.6864 41.6149 14.2475 41.5437 13.8107C41.506 13.587 41.2191 13.5997 41.1437 13.7643C41.1291 13.7685 41.1144 13.7706 41.1019 13.7769C41.083 13.7896 41.0704 13.8065 41.0537 13.8191C41.0097 13.8212 40.9657 13.8339 40.9364 13.8656C40.6809 14.1441 40.5176 15.8956 41.0244 16.2227C41.0432 16.2354 41.0621 16.248 41.0788 16.2607C41.0411 16.2734 41.0097 16.2987 40.9846 16.3345C40.9448 16.3662 40.9134 16.4084 40.9092 16.4717C40.9008 16.6131 40.9301 17.5543 40.9992 17.8771C41.0495 18.1114 41.1186 18.3435 41.2066 18.5651C41.2757 18.7402 41.3594 18.9217 41.5081 19.0399C41.5123 19.0673 41.5144 19.0969 41.5207 19.1243C41.4914 19.3163 41.6107 19.4957 41.6987 19.673C42.0735 20.4369 42.8191 20.5023 42.7709 20.325C42.618 19.7679 42.3374 19.2572 41.9437 18.8352L41.9458 18.8394Z" fill="#362A08"/>
<path d="M46.5599 20.9054C46.2898 20.7239 46.0281 20.458 45.9402 20.3589C45.5487 19.9178 45.2639 19.405 44.9834 18.888C44.9813 18.8838 44.9834 18.8796 44.9792 18.8754C44.192 18.3457 43.5199 17.6493 43.0384 16.8242C42.7599 16.3452 42.5401 15.8282 42.3998 15.2922C42.3495 15.1001 42.2742 14.8216 42.5108 14.7203C42.5108 14.7203 42.5129 14.7203 42.5149 14.7203C42.5945 14.6464 42.7369 14.6253 42.8185 14.7203C43.0991 15.0389 43.3713 15.3639 43.6413 15.6931C44.1585 16.1067 44.55 16.6343 44.8829 17.2062C44.9876 17.3286 45.0881 17.4509 45.1844 17.5797C45.2702 17.6915 45.3414 17.8223 45.3665 17.9511C45.3707 17.9595 45.377 17.9658 45.3812 17.9722C45.4 18.0017 45.4189 18.0313 45.4356 18.0629C45.4733 18.1157 45.511 18.1663 45.5487 18.2191C45.7245 18.4744 45.9758 18.7677 45.9758 19.0779C46.1558 19.2552 46.3296 19.4388 46.4929 19.6308C46.5243 19.6688 46.5557 19.7089 46.5892 19.7469C46.7107 19.8714 46.8258 20.0001 46.9347 20.1394C47.0666 20.3082 47.2006 20.4939 47.2655 20.6986C47.7303 20.7915 48.1343 21.0785 48.484 21.4098C48.5615 21.4667 48.6431 21.5216 48.7185 21.5828C48.8336 21.6757 48.9341 21.7875 48.9655 21.9289C49.0514 22.0576 49.1121 22.256 49.0074 22.3763C48.9027 22.4965 48.7227 22.4797 48.5866 22.3974C48.4358 22.3066 48.2935 22.1927 48.1553 22.085C48.0611 22.0112 47.9731 21.9331 47.8831 21.855C47.8454 21.8276 47.8056 21.8023 47.768 21.7748C47.5921 21.644 47.4204 21.5089 47.2529 21.3654C47.2006 21.3211 47.1503 21.2747 47.1043 21.2283C47.077 21.2325 47.0477 21.2346 47.0142 21.2283C46.8342 21.2093 46.696 21.0595 46.5746 20.9202C46.5704 20.916 46.5662 20.9117 46.562 20.9096L46.5599 20.9054Z" fill="#362A08"/>
<path d="M45.8062 8.30505C45.7915 8.31349 45.7789 8.32193 45.7601 8.32615C45.7496 8.32826 45.7392 8.33037 45.7308 8.33248C45.6491 8.36836 45.5591 8.39368 45.4691 8.41056C45.289 8.44644 45.1069 8.47809 44.9247 8.50552C44.6965 8.53929 44.4411 8.59204 44.2024 8.56672C44.171 8.57094 44.1417 8.57727 44.1103 8.58149C43.9951 8.59415 43.8821 8.59626 43.7732 8.55406C43.7879 8.60681 43.79 8.66379 43.7648 8.72077C43.7041 8.8516 43.5261 8.90647 43.4068 8.96133C43.2644 9.02675 43.12 9.08795 42.9734 9.14282C42.6447 9.26521 42.3076 9.36228 41.9643 9.43192C41.7884 9.46779 41.7151 9.24622 41.8156 9.14493C41.8156 9.13226 41.8114 9.12171 41.8156 9.10905C41.8177 9.09006 41.8282 9.0774 41.8345 9.06052C41.824 9.02675 41.8198 8.99088 41.8345 8.95922C41.9685 8.687 42.2909 8.55406 42.5526 8.43588C42.7536 8.34725 42.9881 8.26495 43.2079 8.30716C43.3419 8.29872 43.4843 8.2945 43.6078 8.35569C43.6246 8.36414 43.6371 8.3768 43.6518 8.38735C43.6518 8.35569 43.6601 8.32404 43.679 8.2945C43.6915 8.2544 43.7146 8.22064 43.7606 8.19954C43.8632 8.15311 43.9679 8.11513 44.0726 8.08136C44.3155 7.98218 44.5688 7.90832 44.8284 7.86823C45.0168 7.83868 45.2074 7.82602 45.3979 7.83024C45.5465 7.83235 45.7057 7.84502 45.8355 7.92309C45.8585 7.91887 45.8794 7.91254 45.9025 7.90832C46.0365 7.83235 46.183 7.79648 46.34 7.80492C46.5075 7.81336 46.6687 7.86823 46.8279 7.92309C46.9011 7.94842 46.9325 8.0075 46.9367 8.06659C47.0309 8.10669 47.1252 8.14678 47.2131 8.19954C47.3324 8.27128 47.2968 8.49497 47.1503 8.50974C46.6939 8.55406 46.2333 8.48653 45.8103 8.30927L45.8062 8.30505Z" fill="#362A08"/>
<path d="M49.11 9.91698C49.0911 9.92331 49.0723 9.93175 49.0493 9.93386C49.0367 9.93386 49.0241 9.93386 49.0116 9.93386C48.9027 9.96341 48.7897 9.97607 48.6745 9.98029C48.4442 9.99084 48.2139 9.99295 47.9836 9.99084C47.6968 9.99084 47.0017 9.92964 46.9619 9.92753C46.8174 9.9212 46.6771 9.90221 46.5515 9.82835C46.5599 9.89799 46.5515 9.96763 46.5076 10.033C46.4071 10.1829 46.1789 10.2166 46.0176 10.2631C45.8292 10.3179 45.6408 10.3644 45.4482 10.4023C45.019 10.491 44.5856 10.5458 44.148 10.5669C43.924 10.5775 43.8758 10.2905 44.0182 10.1829C44.0182 10.1681 44.0182 10.1533 44.0224 10.1386C44.0287 10.1175 44.0454 10.1027 44.0538 10.0816C44.0475 10.0373 44.0496 9.99084 44.0747 9.95708C44.2925 9.64687 45.9569 9.12142 46.3819 9.55191C46.3987 9.56879 46.4133 9.58356 46.4301 9.59833C46.4343 9.55824 46.4531 9.52237 46.4803 9.49071C46.5034 9.44429 46.5369 9.40419 46.5976 9.38731C46.7337 9.35144 47.6528 9.18262 47.9794 9.18262C48.2181 9.18262 48.4568 9.20372 48.6913 9.24381C48.8755 9.27547 49.0681 9.31978 49.2147 9.44218C49.2419 9.44218 49.2712 9.43796 49.2984 9.43796C49.4785 9.36832 49.6774 9.45062 49.8679 9.49915C50.6865 9.71018 50.9064 10.4298 50.7242 10.4192C50.1526 10.3855 49.5978 10.2145 49.1079 9.91487L49.11 9.91698Z" fill="#362A08"/>
<path d="M52.0768 14.0366C51.8444 13.8087 51.5324 13.604 51.4173 13.5386C50.9085 13.2432 50.3495 13.0701 49.7905 12.9013C49.7863 12.9013 49.7821 12.9013 49.7779 12.9013C49.0996 12.2345 48.2851 11.7175 47.3828 11.4157C46.8614 11.2406 46.3129 11.1329 45.7623 11.1055C45.5655 11.095 45.2786 11.0781 45.2305 11.3334C45.2305 11.3334 45.2305 11.3355 45.2305 11.3376C45.174 11.4326 45.1844 11.5761 45.2933 11.6373C45.6618 11.8462 46.0324 12.0488 46.4071 12.245C46.9159 12.6692 47.5105 12.9456 48.1344 13.1546C48.2747 13.2326 48.4149 13.3065 48.5594 13.374C48.6871 13.4352 48.8274 13.4774 48.9593 13.4753C48.9677 13.4795 48.9761 13.4837 48.9844 13.4859C49.0179 13.4985 49.0514 13.5112 49.0849 13.5217C49.1435 13.5492 49.2022 13.5745 49.2608 13.5998C49.5434 13.7201 49.8826 13.9058 50.1841 13.8404C50.3935 13.9818 50.607 14.1126 50.8269 14.235C50.8708 14.2582 50.9148 14.2814 50.9588 14.3046C51.1053 14.3975 51.254 14.4861 51.411 14.5621C51.6036 14.657 51.8109 14.7499 52.0223 14.771C52.2087 15.2099 52.5709 15.5497 52.9645 15.824C53.0357 15.8894 53.1048 15.9591 53.1801 16.0203C53.2953 16.1131 53.4251 16.1891 53.5675 16.1912C53.7098 16.2482 53.915 16.2672 54.0092 16.1384C54.1034 16.0097 54.0511 15.8346 53.9422 15.7185C53.8229 15.5898 53.6826 15.4716 53.5486 15.3576C53.4586 15.2796 53.3623 15.2099 53.2681 15.1361C53.2325 15.1044 53.2011 15.0707 53.1655 15.039C53.0022 14.8934 52.8347 14.752 52.6609 14.6169C52.6065 14.5747 52.552 14.5347 52.4955 14.4988C52.4955 14.4713 52.4892 14.4418 52.4788 14.4101C52.4222 14.2371 52.2485 14.1316 52.0872 14.0409C52.0831 14.0366 52.0789 14.0345 52.0747 14.0324L52.0768 14.0366Z" fill="#362A08"/>
<path d="M50.4731 14.33C50.9253 14.7183 51.3859 15.1235 51.8486 15.5076L51.9428 15.5835C52.3051 15.879 52.6107 16.1976 52.8662 16.5331C53.3163 17.1198 53.6157 17.7444 53.8167 18.348C54.3568 19.9792 54.1579 21.4331 54.1579 21.4331C54.1579 21.4331 52.7594 21.9438 51.0405 21.7349C50.4187 21.6589 49.7529 21.488 49.0976 21.1651C48.7333 20.9858 48.3711 20.7557 48.0193 20.4709L47.8832 20.359C47.4163 19.9834 46.9327 19.6183 46.4616 19.2575C46.0743 18.9578 45.6974 18.6603 45.3478 18.3606C44.8642 17.9449 44.435 17.5207 44.1146 17.0818C43.3316 16.0161 43.1683 14.8492 44.324 13.41C45.4902 11.956 46.6668 11.8864 47.8749 12.4562C48.3711 12.6904 48.8735 13.0301 49.3823 13.4269C49.7424 13.7075 50.1046 14.0135 50.471 14.3322L50.4731 14.33Z" fill="#2E1D07"/>
<path d="M44.3868 9.89012C45.7183 10.9769 46.962 11.6079 45.0442 13.9967C43.1264 16.3855 42.2533 15.2902 40.9217 14.2035C39.5902 13.1167 38.96 11.0043 39.9168 9.81415C40.8736 8.62398 43.0531 8.80335 44.3847 9.89012H44.3868Z" fill="#7B5F0C"/>
<path d="M44.0497 10.5927C44.9855 11.3566 45.8649 11.7955 44.4705 13.5301C43.0761 15.2648 42.4668 14.4924 41.531 13.7285C40.5951 12.9646 40.1722 11.4579 40.8673 10.5927C41.5624 9.72747 43.1138 9.83087 44.0497 10.5927Z" fill="#86680E"/>
<path d="M40.8631 8.12388C41.4598 8.61135 41.4096 9.67069 40.748 10.4937C40.1827 11.1964 39.3557 11.4961 38.7527 11.2597C38.6522 11.2217 38.558 11.1669 38.4743 11.0972C37.999 10.7089 37.9341 9.95346 38.267 9.25075C38.3486 9.07138 38.4554 8.89834 38.5894 8.73163C39.2489 7.91075 40.2664 7.63853 40.8631 8.12388Z" fill="#86680E"/>
<path d="M38.5058 9.57108C38.4284 9.50777 38.2462 9.29252 38.0849 9.41492C37.8189 9.61539 37.7582 9.99946 37.7938 10.2907C37.8294 10.5798 38.043 10.9216 38.2545 11.0546C38.466 11.1875 38.6545 11.0862 38.7467 10.833C38.9289 10.335 38.7236 9.75045 38.5058 9.57108Z" fill="#3B2E09"/>
<path d="M39.27 8.61989C39.1925 8.55658 38.9412 8.42997 39.048 8.21683C39.226 7.86653 39.6239 7.67661 39.938 7.62174C40.2501 7.56688 40.6396 7.68716 40.8113 7.87286C40.983 8.05857 40.8993 8.2928 40.6438 8.47428C40.1412 8.83091 39.492 8.79926 39.2721 8.61989H39.27Z" fill="#3B2E09"/>
<path d="M36.3345 9.47617L36.3533 9.47195C36.4496 9.45084 36.9102 9.3601 37.4839 9.37698C38.0576 9.39387 38.7422 9.52048 39.2949 9.91932C39.341 9.95308 39.408 9.94253 39.4415 9.89399C39.475 9.84757 39.4645 9.78004 39.4164 9.74628C38.7715 9.28202 37.9906 9.16596 37.3709 9.16174C36.7511 9.15752 36.2926 9.26725 36.2863 9.26725C36.2298 9.27991 36.1942 9.33689 36.2089 9.39387C36.2214 9.45084 36.278 9.48672 36.3345 9.47195V9.47617Z" fill="#261C00"/>
<path d="M38.1393 6.3975C38.1393 6.3975 38.1372 6.809 38.334 7.37244C38.5309 7.93587 38.9309 8.66391 39.7288 9.31597C39.7727 9.35185 39.8398 9.34551 39.8754 9.3012C39.911 9.25688 39.9047 9.18936 39.8607 9.15348C39.0942 8.52885 38.7173 7.8388 38.5309 7.3028C38.4367 7.0348 38.3927 6.80689 38.3696 6.64651C38.3592 6.56632 38.3529 6.50302 38.3508 6.46081V6.41228L38.3487 6.40172C38.3487 6.34053 38.3026 6.29199 38.244 6.29199C38.1854 6.29199 38.1393 6.33842 38.1393 6.39539V6.3975Z" fill="#261C00"/>
<path d="M49.3844 13.4248C48.8316 14.2858 48.2077 15.2037 47.6822 15.86C47.0667 16.6261 46.1476 17.5736 45.3499 18.3586C44.8662 17.9428 44.437 17.5187 44.1167 17.0798C44.9688 16.2736 45.9026 15.343 46.3779 14.7205C46.7798 14.1929 47.3451 13.3193 47.8769 12.4541C48.3731 12.6883 48.8756 13.0281 49.3844 13.4248Z" fill="#FFC417"/>
<path d="M50.473 14.3301C50.9253 14.7184 51.3859 15.1235 51.8486 15.5076C51.3021 16.3538 50.695 17.2528 50.1757 17.8985C49.5707 18.6519 48.6704 19.5825 47.8811 20.359C47.4142 19.9834 46.9305 19.6183 46.4595 19.2575C47.3493 18.424 48.3668 17.4195 48.8714 16.759C49.3006 16.1998 49.9077 15.2459 50.4709 14.3301H50.473Z" fill="#FFC417"/>
<path d="M52.8682 16.5327C53.3184 17.1194 53.6178 17.744 53.8188 18.3475C53.4272 18.93 53.0294 19.4913 52.6735 19.9344C52.2318 20.4831 51.6351 21.1267 51.0405 21.7345C50.4186 21.6585 49.7529 21.4876 49.0975 21.1647C49.9517 20.3565 50.8918 19.4216 51.3692 18.7949C51.7711 18.2673 52.3343 17.3937 52.8661 16.5348L52.8682 16.5327Z" fill="#FFC417"/>
<g style="mix-blend-mode:lighten" opacity="0.21">
<path d="M49.9225 15.0324C50.2533 15.3152 50.5882 15.6106 50.9253 15.8891L50.9944 15.9461C51.2582 16.1614 51.4801 16.3935 51.6686 16.6362C51.9973 17.0624 52.2192 17.5161 52.3658 17.953C52.4265 18.1323 52.4746 18.3096 52.5123 18.4805C52.7384 19.4892 51.9659 20.443 50.94 20.4283C50.7578 20.4262 50.5652 20.4135 50.3684 20.3882C49.9162 20.3291 49.4346 20.2046 48.9573 19.9661C48.6914 19.8332 48.4276 19.6665 48.1721 19.4597L48.0717 19.3774C47.7325 19.103 47.3787 18.8372 47.0374 18.5734C46.7547 18.356 46.4805 18.1387 46.225 17.9192C45.8712 17.6153 45.5593 17.3072 45.3248 16.9886C44.7532 16.2141 44.6276 15.37 45.4588 14.336C46.2899 13.302 47.1504 13.2471 48.0298 13.6628C48.3899 13.8338 48.7563 14.0828 49.1269 14.3719C49.3886 14.5766 49.6524 14.8003 49.9204 15.0303L49.9225 15.0324Z" fill="#FFD299"/>
</g>
<g opacity="0.71">
<path d="M42.4543 11.5064C42.4543 11.5064 44.4559 7.15091 47.0353 4.24721C49.6147 1.34351 52.7049 -0.110444 53.936 1.00165C55.1671 2.11375 54.0742 5.36775 51.4948 8.27145C48.9154 11.1751 42.4543 11.5064 42.4543 11.5064Z" fill="#BFDCDC"/>
<mask id="mask6_178_247859" style="mask-type:luminance" maskUnits="userSpaceOnUse" x="42" y="0" width="13" height="12">
<path d="M42.4543 11.5064C42.4543 11.5064 44.4559 7.15091 47.0353 4.24721C49.6147 1.34351 52.7049 -0.110444 53.936 1.00165C55.1671 2.11375 54.0742 5.36775 51.4948 8.27145C48.9154 11.1751 42.4543 11.5064 42.4543 11.5064Z" fill="white"/>
</mask>
<g mask="url(#mask6_178_247859)">
<path d="M56.5698 0.989003C56.059 2.05468 55.2571 2.94309 54.2543 3.55717C53.2933 4.14382 52.2192 4.49412 51.2205 4.99847C50.7055 5.25803 50.1863 5.55979 49.7675 5.96496C49.5707 6.15699 49.3928 6.37013 49.263 6.61491C49.1248 6.87658 49.0599 7.16569 48.9677 7.44424C48.9468 7.50333 48.9196 7.55608 48.8966 7.61095C48.9049 7.61939 48.9133 7.62361 48.9196 7.63416C49.0054 7.765 49.4158 7.45901 49.4995 7.41259C49.6712 7.31762 49.845 7.22477 50.0209 7.13614C50.3998 6.942 50.785 6.75841 51.1766 6.58959C51.9617 6.24773 52.7698 5.96074 53.5927 5.72439C53.8627 5.64631 53.9967 6.06414 53.7266 6.14222C52.7677 6.41655 51.8319 6.76263 50.9253 7.18046C50.471 7.38937 50.025 7.61939 49.5875 7.86629C49.3027 8.02667 48.9447 8.2187 48.6767 8.00767C48.5239 8.22081 48.3334 8.40651 48.0947 8.55845C48.0361 8.59643 47.9753 8.62809 47.9146 8.65974C48.4778 8.7125 49.0368 8.81379 49.6042 8.79058C50.3914 8.76103 51.1556 8.51202 51.8172 8.08575C52.0538 7.93382 52.2904 8.30311 52.0538 8.45505C51.3629 8.90031 50.5652 9.16831 49.7445 9.22318C48.8903 9.28015 48.0507 9.03536 47.1986 9.06702C47.1693 9.06702 47.1442 9.0628 47.119 9.05436C46.9871 9.11977 46.8573 9.18519 46.7317 9.26327C45.6535 9.92378 45.4085 11.5233 44.0811 11.8504C43.811 11.918 43.6729 11.5001 43.9471 11.4326C44.8746 11.2047 45.2515 10.2234 45.821 9.50384C45.084 9.56925 44.4454 9.98286 43.8508 10.4007C43.5054 10.6434 43.1599 10.8924 42.7893 11.095C42.5004 11.2511 42.0503 11.536 41.7216 11.3482C41.4787 11.2089 41.6713 10.8143 41.9163 10.9536C42.0356 11.0211 42.3141 10.846 42.423 10.7932C42.6114 10.7003 42.7914 10.5906 42.9694 10.4767C43.3107 10.2572 43.6331 10.0124 43.9723 9.78872C44.0665 9.72541 44.167 9.66844 44.2654 9.61146C44.2109 9.5376 44.1963 9.43631 44.2779 9.34979C44.8369 8.75892 44.9919 7.94226 45.241 7.19101C45.4797 6.4672 45.8231 5.79192 46.2209 5.14618C46.2146 5.10398 46.2146 5.05966 46.2397 5.02379C46.4156 4.74524 46.5035 4.48779 46.537 4.16281C46.5412 4.11849 46.5412 4.12905 46.5433 4.08262C46.5433 4.04464 46.5433 4.00665 46.5433 3.96867C46.5433 3.88848 46.537 3.8104 46.5265 3.73021C46.5244 3.71122 46.5203 3.69223 46.5182 3.67323C46.5182 3.66057 46.5182 3.65846 46.5182 3.65635C46.5182 3.65213 46.5182 3.65213 46.514 3.63947C46.5056 3.60149 46.4972 3.56561 46.4888 3.52974C46.4679 3.44955 46.4407 3.36936 46.4114 3.29339C46.3674 3.18366 46.4449 3.05071 46.5517 3.01695C46.6689 2.97896 46.782 3.0486 46.8259 3.15833C47.0625 3.76397 47.0206 4.47724 46.7212 5.05544C46.7338 5.09976 46.7296 5.1504 46.6961 5.20316C46.2397 5.92908 45.8524 6.69088 45.5969 7.51177C45.4043 8.13007 45.2326 8.76525 44.8725 9.30125C45.2096 9.15987 45.5655 9.06702 45.9361 9.05647C46.225 8.36431 46.5831 7.70802 47.0081 7.09183C46.9515 7.03274 46.9222 6.94622 46.9641 6.84915C47.2865 6.08946 47.4394 5.30234 47.5001 4.48357C47.5587 3.69645 47.6739 2.89877 48.3082 2.36066C48.5218 2.17918 48.7563 2.55058 48.5448 2.72995C47.9439 3.24063 47.9691 4.14171 47.9063 4.85919C47.8581 5.40152 47.745 5.9333 47.5776 6.4482C47.6676 6.37857 47.7618 6.31526 47.8707 6.26672C48.2015 6.12112 48.5679 6.09368 48.9238 6.07047C48.9887 6.06625 49.0368 6.08735 49.0724 6.12112C49.1248 6.04304 49.175 5.96285 49.2399 5.88688C49.2462 5.87844 49.2546 5.87211 49.2609 5.86367C49.2567 5.82779 49.2588 5.78981 49.2755 5.74971C49.466 5.30023 49.5079 4.81488 49.5561 4.33374C49.6063 3.84205 49.6859 3.35881 49.8262 2.88611C50.0858 2.00614 50.4982 0.915144 51.3378 0.44878C51.5827 0.313725 51.8214 0.680907 51.5744 0.818073C51.1075 1.07763 50.8437 1.54189 50.6217 2.01458C50.4228 2.43452 50.2679 2.87345 50.1611 3.32504C50.0041 3.97711 50.002 4.66505 49.8596 5.31922C49.9748 5.2327 50.092 5.1504 50.2114 5.07232C50.2239 5.04278 50.2449 5.01746 50.2721 4.99214C51.0907 4.28942 51.4215 3.19843 52.0915 2.37332C52.3658 2.03568 52.6945 1.73392 53.0881 1.54611C53.5382 1.33086 54.0219 1.31187 54.5139 1.31609C54.7944 1.3182 54.8195 1.75713 54.5369 1.75502C54.0428 1.7508 53.5571 1.76135 53.1195 2.02302C52.7384 2.25304 52.439 2.60334 52.1899 2.96841C51.8465 3.46854 51.5785 4.00665 51.2478 4.50045C51.9763 4.15437 52.7343 3.86949 53.4524 3.5023C54.6395 2.89666 55.5984 2.01247 56.1825 0.79275C56.304 0.537411 56.6955 0.733663 56.574 0.989003H56.5698ZM48.0298 6.66978C47.7074 6.81539 47.5043 7.12348 47.3096 7.40625C46.985 7.88106 46.7066 8.38541 46.47 8.90875C47.2363 8.42972 48.2308 8.25879 48.5553 7.30074C48.6495 7.0243 48.7354 6.76263 48.8484 6.51362C48.572 6.5305 48.2852 6.55372 48.0298 6.66978Z" fill="#9EDCDC"/>
</g>
</g>
<g opacity="0.71">
<path d="M42.0858 11.9644C42.0858 11.9644 38.2753 14.8448 35.9953 17.9933C33.7153 21.1418 32.949 24.4908 34.2848 25.472C35.6206 26.4533 38.5496 24.6976 40.8296 21.5512C43.1096 18.4027 42.0858 11.9644 42.0858 11.9644Z" fill="#BFDCDC"/>
<mask id="mask7_178_247859" style="mask-type:luminance" maskUnits="userSpaceOnUse" x="33" y="11" width="10" height="15">
<path d="M42.0858 11.9644C42.0858 11.9644 38.2753 14.8448 35.9953 17.9933C33.7153 21.1418 32.949 24.4908 34.2848 25.472C35.6206 26.4533 38.5496 24.6976 40.8296 21.5512C43.1096 18.4027 42.0858 11.9644 42.0858 11.9644Z" fill="white"/>
</mask>
<g mask="url(#mask7_178_247859)">
<path d="M34.5485 27.728C35.61 26.8987 36.2674 25.7697 36.6087 24.4719C36.8159 23.6869 36.9332 22.8808 37.1174 22.0915C36.7071 22.522 36.2402 22.8976 35.8256 23.3408C35.5221 23.6637 35.2457 24.0309 35.1012 24.455C34.9358 24.9404 35.0279 25.4215 35.1347 25.9069C35.1954 26.1833 34.7641 26.2508 34.7034 25.9744C34.5967 25.4911 34.5129 25.01 34.6301 24.5204C34.7306 24.0942 34.9547 23.7059 35.2248 23.3661C35.8863 22.5347 36.8767 21.9818 37.3875 21.028C37.4043 20.9963 37.4273 20.971 37.4524 20.952C37.5027 20.8169 37.5592 20.684 37.6199 20.5532C37.0148 20.8296 36.349 20.9752 35.7482 21.2664C35.3336 21.4669 34.94 21.7117 34.5736 21.9945C34.1633 22.3131 33.7655 22.6676 33.6126 23.1825C33.531 23.4548 33.1248 23.2965 33.2044 23.0264C33.4828 22.1 34.4543 21.4669 35.2541 21.028C35.6854 20.7916 36.1376 20.6123 36.6024 20.4603C37.0588 20.3105 37.5215 20.1691 37.9172 19.8884C37.9528 19.8631 37.9884 19.8526 38.0261 19.8505C38.0324 19.842 38.0365 19.8336 38.0428 19.8251C38.1035 19.7449 38.1684 19.6774 38.2354 19.6099C38.1957 19.5803 38.1643 19.536 38.1559 19.4727C38.1035 19.1182 38.0533 18.7489 38.1266 18.3944C38.1517 18.2762 38.1915 18.1707 38.2396 18.0673C37.7748 18.3395 37.2828 18.5632 36.7657 18.7236C36.0832 18.9346 35.2017 19.0992 34.8332 19.7956C34.7034 20.0425 34.2931 19.8884 34.425 19.6394C34.8144 18.903 35.5639 18.6223 36.3155 18.4007C37.0986 18.1707 37.8314 17.8542 38.5013 17.3794C38.5872 17.3182 38.6772 17.3287 38.7463 17.373C39.2551 16.8244 39.8162 16.3348 40.4275 15.9064C40.3605 15.5371 40.3773 15.1678 40.4443 14.807C40.0004 15.2733 39.4184 15.5751 38.8594 15.8937C38.114 16.3179 37.4566 16.8581 36.8473 17.4596C36.8034 17.5039 36.7552 17.5186 36.7092 17.5144C36.2109 17.9301 35.5262 18.1201 34.8898 18.0124C34.7725 17.9934 34.6825 17.8964 34.6951 17.7719C34.7055 17.66 34.8186 17.5566 34.9337 17.5756C35.0154 17.5904 35.097 17.5988 35.1808 17.603C35.2185 17.603 35.2562 17.6052 35.2938 17.603C35.3064 17.603 35.3064 17.603 35.3106 17.603C35.3148 17.603 35.3148 17.603 35.3273 17.603C35.3462 17.603 35.365 17.6009 35.3839 17.5988C35.4634 17.5925 35.5409 17.5819 35.6184 17.5651C35.656 17.5587 35.6916 17.5503 35.7293 17.5397C35.7733 17.5292 35.7628 17.5313 35.8068 17.5186C36.1167 17.4173 36.347 17.2781 36.5814 17.0459C36.6129 17.0143 36.6547 17.0037 36.6966 17.0016C37.2409 16.4762 37.8251 15.9972 38.4783 15.611C39.1546 15.21 39.9146 14.8851 40.371 14.2119C40.438 14.1127 40.5406 14.1043 40.6222 14.1444C40.6578 14.0346 40.6934 13.9249 40.7332 13.8194C40.8797 13.4395 41.0493 13.0681 41.1917 12.6883C41.265 12.4899 41.3341 12.2895 41.3864 12.0848C41.4157 11.9666 41.5267 11.6543 41.4367 11.5509C41.2503 11.3398 41.5916 11.0655 41.7779 11.2765C42.0292 11.5614 41.847 12.0637 41.7549 12.3823C41.6376 12.7917 41.466 13.1821 41.3027 13.5746C41.0221 14.2499 40.7541 14.9652 40.8441 15.7038C41.422 14.9906 42.2972 14.4145 42.3244 13.4543C42.3327 13.1715 42.7661 13.218 42.7578 13.4986C42.718 14.8745 41.2168 15.4485 40.8002 16.6513C40.752 16.7906 40.7143 16.932 40.6787 17.0755C40.6913 17.0966 40.7018 17.1219 40.7081 17.1493C40.8546 17.9977 41.265 18.7721 41.3906 19.6268C41.5099 20.4455 41.4157 21.2875 41.1268 22.062C41.0284 22.3279 40.6201 22.1717 40.7185 21.9058C40.9949 21.163 41.0745 20.359 40.9405 19.5761C40.8441 19.0127 40.6306 18.4809 40.461 17.9365C40.4401 18.004 40.4233 18.0694 40.4003 18.1369C40.3019 18.4028 40.1637 18.6286 39.9878 18.8249C40.2475 19.0465 40.1365 19.439 40.0402 19.7513C39.8936 20.2324 39.7638 20.7199 39.6549 21.2116C39.4393 22.1907 39.299 23.1868 39.232 24.1891C39.2132 24.4719 38.7798 24.4255 38.7986 24.1448C38.8573 23.2838 38.9661 22.4292 39.1357 21.583C39.2195 21.163 39.3158 20.7452 39.4246 20.3295C39.4749 20.1375 39.5293 19.9475 39.5859 19.7576C39.6131 19.6648 39.8245 19.1984 39.6801 19.1414C39.6696 19.1372 39.6633 19.1288 39.6529 19.1224C39.6047 19.1583 39.5586 19.1963 39.5063 19.2279C39.2551 19.3778 38.9892 19.5023 38.763 19.6922C38.5516 19.8694 38.382 20.091 38.2375 20.3253C37.9319 20.8233 37.7476 21.3973 37.6032 21.9607C37.3226 23.0517 37.2054 24.1849 36.8369 25.2527C36.4516 26.3711 35.7565 27.346 34.829 28.072C34.6071 28.245 34.3349 27.901 34.5569 27.728H34.5485ZM38.5725 19.3081C38.7903 19.1456 39.0268 19.0064 39.2739 18.8565C40.1365 18.3374 40.0946 17.3203 40.4003 16.4656C39.9418 16.8096 39.5105 17.1894 39.1169 17.6073C38.8824 17.8563 38.6249 18.1222 38.5516 18.4704C38.493 18.7468 38.5306 19.0317 38.5704 19.3102L38.5725 19.3081Z" fill="#9EDCDC"/>
</g>
</g>
<g opacity="0.71">
<path d="M43.0443 11.7053C43.0443 11.7053 45.7802 9.11358 48.5126 7.75055C51.245 6.38752 53.9256 6.23199 54.4982 7.40412C55.0708 8.57626 53.3205 10.6304 50.5881 11.9934C47.8557 13.3565 43.0443 11.7053 43.0443 11.7053Z" fill="#BFDCDC"/>
<mask id="mask8_178_247859" style="mask-type:luminance" maskUnits="userSpaceOnUse" x="43" y="6" width="12" height="7">
<path d="M43.0443 11.7053C43.0443 11.7053 45.7802 9.11358 48.5126 7.75055C51.245 6.38752 53.9256 6.23199 54.4982 7.40412C55.0708 8.57626 53.3205 10.6304 50.5881 11.9934C47.8557 13.3565 43.0443 11.7053 43.0443 11.7053Z" fill="white"/>
</mask>
<g mask="url(#mask8_178_247859)">
<path d="M56.4235 8.16626C55.7387 8.79417 54.8934 9.20749 53.9818 9.36175C53.1088 9.50826 52.2226 9.44919 51.3462 9.5246C50.8944 9.5631 50.4271 9.63117 50.0029 9.80413C49.8031 9.88659 49.6108 9.98997 49.4444 10.1305C49.267 10.281 49.135 10.4729 48.9862 10.6492C48.9536 10.6862 48.9183 10.7167 48.8854 10.75C48.8891 10.7586 48.8939 10.7641 48.8954 10.7737C48.9198 10.8943 49.3088 10.7912 49.3835 10.7819C49.5366 10.7629 49.6906 10.7461 49.8448 10.7329C50.1782 10.7023 50.513 10.6812 50.8482 10.6727C51.5211 10.6533 52.1949 10.6807 52.8645 10.7493C53.0844 10.7714 53.0598 11.1155 52.8399 11.0934C52.0599 11.0126 51.2756 10.991 50.4918 11.0302C50.0991 11.0496 49.7064 11.0868 49.3148 11.1387C49.0601 11.1723 48.7426 11.2075 48.6088 10.975C48.4349 11.0858 48.2415 11.1655 48.0229 11.2064C47.969 11.2169 47.9154 11.2223 47.8618 11.2276C48.2573 11.4311 48.6356 11.6687 49.0563 11.818C49.6394 12.0271 50.2699 12.0693 50.8775 11.9521C51.0946 11.9106 51.1591 12.2493 50.942 12.2909C50.3075 12.4134 49.6469 12.3752 49.032 12.1748C48.392 11.9661 47.8511 11.5415 47.2201 11.315C47.1987 11.3064 47.1816 11.2959 47.1658 11.2824C47.0504 11.2915 46.9365 11.3012 46.822 11.3214C45.8418 11.4874 45.1946 12.5828 44.1303 12.4326C43.9135 12.4027 43.935 12.0574 44.1549 12.0884C44.8984 12.1939 45.4607 11.5883 46.087 11.2301C45.5301 11.0619 44.943 11.1766 44.3868 11.3073C44.0637 11.3831 43.7387 11.4636 43.409 11.5029C43.1524 11.5322 42.7405 11.6082 42.5557 11.3748C42.4193 11.202 42.6754 10.9705 42.8133 11.1439C42.8806 11.2282 43.1351 11.1819 43.23 11.1753C43.3947 11.1628 43.5582 11.1355 43.7214 11.1045C44.0347 11.0443 44.3416 10.9602 44.6546 10.8963C44.7419 10.8777 44.8319 10.8656 44.9204 10.8529C44.9023 10.783 44.9213 10.7048 45.0062 10.6656C45.5871 10.3982 45.9393 9.84774 46.3411 9.37258C46.7272 8.91436 47.1755 8.52223 47.6548 8.16761C47.6626 8.13497 47.6756 8.10264 47.7044 8.08382C47.9143 7.93209 48.0539 7.77 48.1735 7.54269C48.1895 7.51159 48.1864 7.51928 48.2015 7.48602C48.2127 7.45831 48.2238 7.43059 48.2349 7.40287C48.2584 7.34436 48.2767 7.28555 48.2925 7.22397C48.2965 7.2095 48.2991 7.19442 48.3031 7.17995C48.3068 7.17071 48.3074 7.16917 48.308 7.16763C48.3093 7.16455 48.3093 7.16455 48.3099 7.15408C48.3149 7.12391 48.3193 7.09528 48.3237 7.06665C48.3319 7.00201 48.3355 6.93552 48.3364 6.8715C48.3365 6.77855 48.4319 6.70424 48.5197 6.71089C48.6164 6.71753 48.6785 6.80146 48.6784 6.89441C48.6737 7.40564 48.4343 7.91381 48.0465 8.248C48.0427 8.28401 48.0248 8.31974 47.9849 8.34842C47.4393 8.74438 46.9336 9.18676 46.5069 9.7109C46.1853 10.1056 45.874 10.5188 45.4543 10.8044C45.7416 10.8 46.0285 10.8365 46.302 10.9374C46.7155 10.517 47.1689 10.143 47.6595 9.81791C47.6355 9.75824 47.6395 9.68652 47.6985 9.62796C48.1562 9.1681 48.4982 8.63854 48.7823 8.0589C49.0555 7.50174 49.3732 6.95344 49.9936 6.74666C50.2026 6.6768 50.2649 7.0165 50.0581 7.08543C49.4701 7.28201 49.2246 7.94686 48.9686 8.45198C48.7747 8.83359 48.5365 9.18849 48.2635 9.51512C48.3496 9.49069 48.4369 9.4721 48.5305 9.46858C48.8145 9.45925 49.0899 9.54658 49.3564 9.63392C49.405 9.64985 49.4339 9.67936 49.45 9.71442C49.5111 9.67279 49.5712 9.629 49.6408 9.59258C49.6479 9.58826 49.6559 9.58609 49.6629 9.58178C49.6704 9.55437 49.683 9.52727 49.707 9.50292C49.9776 9.23077 50.1503 8.88889 50.3263 8.55193C50.507 8.20788 50.7065 7.87858 50.9473 7.57477C51.3944 7.00875 52.0149 6.33352 52.764 6.2392C52.9823 6.21243 53.0489 6.55027 52.8285 6.57798C52.4118 6.63058 52.0834 6.89205 51.783 7.17194C51.5149 7.42008 51.2734 7.69496 51.0632 7.99319C50.7577 8.42297 50.5547 8.92433 50.2593 9.35994C50.3686 9.33055 50.4783 9.30485 50.5882 9.28284C50.606 9.26496 50.6287 9.25262 50.656 9.24212C51.4591 8.96921 52.0199 8.27006 52.7504 7.8643C53.0494 7.69829 53.3776 7.5744 53.7198 7.55268C54.1113 7.52751 54.4698 7.65534 54.8275 7.80257C55.0316 7.8863 54.9214 8.21394 54.7158 8.12959C54.3565 7.98175 53.999 7.84714 53.6031 7.90987C53.2577 7.96607 52.9367 8.13396 52.648 8.32734C52.251 8.59167 51.8978 8.9058 51.5119 9.16919C52.1448 9.13013 52.7813 9.14431 53.4128 9.08678C54.4564 8.99266 55.4149 8.62843 56.1983 7.90958C56.3617 7.75884 56.5899 8.01675 56.4265 8.16748L56.4235 8.16626ZM48.5286 9.80929C48.2507 9.82108 48.0123 9.98638 47.7874 10.1357C47.4116 10.387 47.0607 10.6735 46.7348 10.986C47.4342 10.861 48.2099 11.0276 48.7273 10.4236C48.877 10.2495 49.0162 10.0838 49.1716 9.93519C48.965 9.86654 48.7489 9.79944 48.5286 9.80929Z" fill="#9EDCDC"/>
</g>
</g>
<g opacity="0.71">
<path d="M42.5155 12.6092C42.5155 12.6092 40.2854 15.6314 39.2688 18.514C38.2523 21.3967 38.4218 24.0926 39.6478 24.5343C40.8737 24.9759 42.6903 22.9984 43.7073 20.1174C44.7238 17.2347 42.5155 12.6092 42.5155 12.6092Z" fill="#BFDCDC"/>
<mask id="mask9_178_247859" style="mask-type:luminance" maskUnits="userSpaceOnUse" x="38" y="12" width="6" height="13">
<path d="M42.5155 12.6092C42.5155 12.6092 40.2854 15.6314 39.2688 18.514C38.2523 21.3967 38.4218 24.0926 39.6478 24.5343C40.8737 24.9759 42.6903 22.9984 43.7073 20.1174C44.7238 17.2347 42.5155 12.6092 42.5155 12.6092Z" fill="white"/>
</mask>
<g mask="url(#mask9_178_247859)">
<path d="M40.3499 26.1761C40.9652 25.314 41.2089 24.316 41.1767 23.2614C41.1578 22.6233 41.0664 21.9894 41.0292 21.3532C40.8158 21.7694 40.5476 22.1568 40.334 22.5834C40.1771 22.8946 40.0507 23.2331 40.0364 23.5852C40.02 23.988 40.1968 24.3302 40.3856 24.6723C40.493 24.8671 40.1829 25.0143 40.0755 24.8195C39.8872 24.479 39.7167 24.1349 39.6958 23.7396C39.6765 23.3958 39.7588 23.0531 39.8866 22.7367C40.1999 21.9621 40.8232 21.3243 40.9955 20.4911C41.0011 20.4635 41.0128 20.4393 41.0275 20.4193C41.0352 20.3063 41.0482 20.1935 41.0648 20.0813C40.6703 20.4247 40.2008 20.6831 39.8128 21.0368C39.545 21.2805 39.3028 21.5529 39.0897 21.8479C38.8514 22.1797 38.6306 22.5358 38.6302 22.9581C38.6294 23.1815 38.2879 23.1529 38.2876 22.9315C38.2908 22.1709 38.882 21.4768 39.3871 20.9673C39.6595 20.6929 39.9604 20.4567 40.2769 20.2384C40.5876 20.0236 40.9049 19.8137 41.1406 19.5137C41.1618 19.4867 41.1863 19.4708 41.2142 19.4608C41.2171 19.453 41.2184 19.4457 41.2212 19.438C41.2491 19.364 41.283 19.2986 41.3184 19.2327C41.2818 19.2193 41.2483 19.1929 41.2278 19.1471C41.1093 18.8915 40.989 18.6243 40.9652 18.3406C40.9577 18.2459 40.9642 18.1575 40.9774 18.0688C40.6877 18.3778 40.3667 18.6562 40.0126 18.8926C39.5451 19.204 38.9173 19.5249 38.7948 20.1321C38.752 20.3472 38.4083 20.3227 38.4522 20.1055C38.5815 19.4634 39.084 19.0844 39.6012 18.7496C40.1402 18.4014 40.6221 17.9992 41.0212 17.4917C41.0723 17.4264 41.1425 17.4143 41.2045 17.4322C41.4657 16.905 41.7795 16.4107 42.1448 15.9513C42.0119 15.6878 41.9422 15.4056 41.9122 15.1186C41.6816 15.5693 41.3101 15.9267 40.9597 16.2917C40.4924 16.7779 40.1173 17.3319 39.7921 17.9213C39.7689 17.9646 39.7359 17.9865 39.7002 17.9936C39.4173 18.4182 38.9435 18.7142 38.4396 18.7751C38.347 18.787 38.2575 18.7339 38.2392 18.6372C38.2221 18.5506 38.2843 18.4474 38.3753 18.436C38.4402 18.4289 38.5036 18.417 38.5677 18.4015C38.5961 18.3931 38.625 18.3863 38.6529 18.3763C38.6624 18.3735 38.6624 18.3735 38.6656 18.3726C38.6687 18.3716 38.6687 18.3716 38.6782 18.3688C38.6924 18.3646 38.7061 18.3588 38.7199 18.353C38.7784 18.3305 38.8345 18.3052 38.8891 18.2752C38.9161 18.262 38.9411 18.2477 38.9671 18.2314C38.9979 18.2136 38.9905 18.2175 39.0208 18.1982C39.2318 18.0526 39.3744 17.8962 39.4994 17.6689C39.516 17.638 39.5452 17.6207 39.5763 17.6098C39.8695 17.0921 40.203 16.6006 40.6093 16.1636C41.0297 15.7104 41.5302 15.2957 41.7241 14.6863C41.7525 14.5966 41.828 14.5673 41.8985 14.5793C41.9008 14.4887 41.9032 14.398 41.9096 14.3096C41.9354 13.9905 41.9804 13.6726 42.003 13.3545C42.014 13.1885 42.0213 13.022 42.0151 12.856C42.0109 12.7603 42.0248 12.5001 41.9339 12.4422C41.7463 12.3247 41.9424 12.0417 42.13 12.1592C42.383 12.3179 42.3577 12.7373 42.3593 12.9981C42.3623 13.3329 42.3199 13.6655 42.2844 13.9979C42.2235 14.5696 42.1811 15.1688 42.4137 15.7055C42.6903 15.0388 43.2215 14.4091 43.0278 13.6791C42.9711 13.4641 43.3082 13.4024 43.3645 13.6158C43.6414 14.662 42.6377 15.4298 42.592 16.4297C42.5867 16.5454 42.5899 16.6604 42.5951 16.7766C42.6092 16.7897 42.6228 16.8064 42.6336 16.8257C42.9334 17.4326 43.4156 17.9249 43.7009 18.5412C43.9736 19.1318 44.0904 19.7877 44.0454 20.436C44.0305 20.6585 43.6878 20.6319 43.7027 20.4094C43.7454 19.7877 43.626 19.1638 43.3503 18.6035C43.152 18.2002 42.8723 17.8469 42.623 17.4743C42.6223 17.5299 42.6242 17.5829 42.6219 17.639C42.6071 17.8614 42.5533 18.0625 42.4645 18.2497C42.7096 18.3588 42.7135 18.6795 42.7106 18.9365C42.7075 19.3319 42.7183 19.7284 42.746 20.1234C42.8018 20.9097 42.9183 21.692 43.0914 22.4627C43.1403 22.6801 42.8032 22.7418 42.7548 22.526C42.6069 21.8638 42.4983 21.1951 42.4374 20.5193C42.4068 20.184 42.3862 19.8475 42.3755 19.5098C42.3706 19.3538 42.3692 19.1985 42.3695 19.0426C42.3693 18.9666 42.4247 18.5678 42.303 18.5571C42.2942 18.5562 42.2876 18.5512 42.2783 18.5488C42.25 18.5866 42.2237 18.6255 42.1913 18.6611C42.0353 18.8301 41.8627 18.9833 41.7346 19.177C41.6147 19.3578 41.5363 19.5627 41.4796 19.7716C41.3602 20.2153 41.3494 20.6891 41.3662 21.1462C41.3981 22.0313 41.5625 22.9119 41.5229 23.7991C41.482 24.7283 41.1755 25.6185 40.6382 26.3728C40.5095 26.5528 40.2275 26.3543 40.3562 26.1743L40.3499 26.1761ZM41.5052 18.93C41.6331 18.7589 41.7804 18.601 41.9333 18.4329C42.4678 17.849 42.2093 17.0915 42.2491 16.3789C41.9801 16.7406 41.7397 17.1233 41.5362 17.5261C41.4149 17.7662 41.2801 18.0242 41.3025 18.303C41.32 18.5245 41.412 18.7309 41.5041 18.932L41.5052 18.93Z" fill="#9EDCDC"/>
</g>
</g>
<circle cx="42.4168" cy="11.9301" r="1.25581" fill="#86680E"/>
</svg>
