<svg width="80" height="46" viewBox="0 0 80 46" fill="none" xmlns="http://www.w3.org/2000/svg">
<path d="M79.9999 33.7198L77.7499 33.9998L66.0299 36.7798L65.9599 36.7998C65.0699 37.1498 64.1399 37.4998 63.1499 37.8698C62.3999 38.1498 61.6099 38.4398 60.7599 38.7498C60.4699 38.8598 60.1899 38.9598 59.8899 39.0598C59.7699 39.0998 59.6599 39.1398 59.5499 39.1798C59.0699 39.3498 58.5899 39.5098 58.1099 39.6498C58.1099 39.6498 58.0999 39.6498 58.0899 39.6498C53.4399 40.2998 39.8199 44.3798 37.0899 44.6398C37.0699 44.6398 35.6199 45.7798 35.4499 45.7798H35.4399L60.9899 0.0297642C60.9899 0.0297642 60.9899 0.0197656 60.9899 0.00976562L61.0399 0.0897655C62.1299 1.88977 79.0499 33.7198 79.9699 33.7198H79.9999Z" fill="#3E1609"/>
<path d="M61.02 0L59.57 39.42C59.57 39.42 59.37 39.47 59.02 39.56C59.02 39.56 59.02 39.56 58.99 39.56C55.73 40.38 39.56 44.4 37.1 44.64C37.1 44.64 37.02 44.7 36.9 44.79C36.49 45.1 35.6 45.79 35.47 45.79H35.46L36.01 44.84L61.01 0.0299988C61.01 0.0299988 61.01 0.0200002 61.01 0.0100002L61.02 0Z" fill="#FAC000"/>
<path d="M80 33.72L77.75 34L63.25 38.06C63.22 38.01 63.18 37.95 63.16 37.87C61.69 34.34 61.02 0 61.02 0L61.07 0.0900002C62.16 1.89 79.08 33.72 80 33.72Z" fill="#FAC000"/>
<g style="mix-blend-mode:multiply" opacity="0.28">
<path d="M58.99 39.57C55.73 40.39 39.56 44.41 37.1 44.65C37.1 44.65 37.02 44.71 36.9 44.8C36.54 44.83 36.24 44.84 36.01 44.85C35.7 44.85 35.51 44.85 35.46 44.82L61.01 0.0400391C60.76 0.650039 56.13 13.59 51.97 23.04C47.98 32.09 43.89 40.76 44.66 41.31C46.23 42.43 58.37 39.72 59 39.59L58.99 39.57Z" fill="#41006B"/>
</g>
<path d="M61.02 0C61.02 0 42.16 42.6 35.46 45.78L0 37.43C0 37.43 18.37 13.64 22.78 0C22.78 0 38.98 4.64 61.02 0Z" fill="#FFC402"/>
<g style="mix-blend-mode:multiply" opacity="0.28">
<path d="M80.0001 33.7198L77.7501 33.9998L61.0701 0.0898438C62.1601 1.88984 79.0801 33.7198 80.0001 33.7198Z" fill="#41006B"/>
</g>
</svg>
