<svg width="75" height="64" viewBox="0 0 75 64" fill="none" xmlns="http://www.w3.org/2000/svg">
<path d="M38.616 24.4526L43.486 25.1937V25.8554H48.8236L53.1554 23.8527L53.623 20.9854H68.9036L71.8415 22.7851L69.7064 32.3928L38.616 30.796V24.4526Z" fill="#8B9461"/>
<path d="M38.1662 27.3545H46.4505L51.1 22.6521H52.9792L56.6758 25.9605L58.705 28.3603L60.9812 27.2575L67.5892 26.4546L68.2862 24.1519L69.689 23.552V20.6494L70.9682 19.7495H72.4857L73.9944 45.97L74.9913 47.5756V63.8531H37.6633L38.1662 27.3545Z" fill="#C0CC85"/>
<path opacity="0.57" d="M52.1675 40.687H51.5498V43.4135H52.1675V40.687Z" fill="#244734"/>
<path opacity="0.57" d="M58.3166 40.687H57.699V43.4135H58.3166V40.687Z" fill="#244734"/>
<path opacity="0.57" d="M64.4748 40.687H63.8572V43.4135H64.4748V40.687Z" fill="#244734"/>
<g style="mix-blend-mode:multiply" opacity="0.29">
<path d="M38.1662 27.355C38.1662 27.355 42.5862 36.4598 45.6388 37.7655C48.6914 39.0712 48.4885 41.621 49.4413 44.7706C50.3942 47.9202 53.3938 46.4116 56.9493 49.6141C60.5047 52.8167 70.28 60.2893 75.0001 60.7393V63.8624H37.6721L38.175 27.3638L38.1662 27.355Z" fill="#B4B89F"/>
</g>
<path d="M33.0491 0.765625H32.8815V14.3611H33.0491V0.765625Z" fill="#434459"/>
<path d="M39.3226 3.14798H33.0403V0.765625H39.3226L37.6109 1.9568L39.3226 3.14798Z" fill="#5C63B3"/>
<path d="M42.7273 10.8496V38.7992H39.3218V9.31445L42.7273 10.8496Z" fill="#A6B073"/>
<path d="M23.309 9.79996H26.6615L27.3673 10.4969L28.3113 10.197V9.31472H30.164L30.5169 10.294L33.0666 10.144L33.4725 9.31472L35.2723 9.24414L35.6516 10.144L36.9044 10.294L37.522 9.24414L39.3218 9.31472V43.1666H23.309V9.79996Z" fill="#C0CC85"/>
<path d="M18.8627 29.5525L16.8597 28.2466H19.0215L18.8627 29.5525Z" fill="#AD5A62"/>
<path d="M34.6371 27.5854H18.6243V42.0543H34.6371V27.5854Z" fill="#CCD98D"/>
<path d="M4.83472 38.5339V43.1221H7.16413V38.5339C7.16413 38.5339 6.56413 38.2956 6.41413 38.1456C6.26413 37.9956 5.5406 38.1192 5.3906 38.2427C5.2406 38.3662 5.14354 38.4545 4.84354 38.5339H4.83472Z" fill="#BAC294"/>
<path d="M39.0925 43.175V63.8549H20.3182H0V42.875L39.0925 43.175Z" fill="#DAE3AD"/>
<path d="M4.98474 42.8832L13.1367 38.5337H39.3219L39.0925 43.1655L4.98474 42.8832Z" fill="#C4805A"/>
<path d="M16.8597 28.2466L26.4321 19.2124L35.334 28.2466H16.8597Z" fill="#CC9272"/>
<path d="M28.4263 32.7197H26.6351V34.9697H28.4263V32.7197Z" fill="#5264A1"/>
<path d="M38.6957 32.7197H36.9045V34.9697H38.6957V32.7197Z" fill="#3E4C7A"/>
<path d="M44.4654 42.0537H36.9045V63.8629H44.4654V42.0537Z" fill="#CCD98D"/>
<g style="mix-blend-mode:multiply" opacity="0.29">
<path d="M42.5421 63.8536H36.9045V42.0444H40.1336L42.7891 42.662C42.7891 42.662 39.4013 43.6589 38.3426 43.7913C37.875 43.8619 37.6368 47.5497 38.3073 51.7668C39.1366 56.9809 41.0776 62.989 42.5509 63.8448L42.5421 63.8536Z" fill="#C8CCB1"/>
</g>
<path d="M45.6122 42.0454C45.6122 42.0454 45.524 42.0984 45.3122 42.1778C44.9417 42.3101 44.1741 42.5219 42.7802 42.663C42.1803 42.7071 41.4745 42.7601 40.6363 42.7689C36.675 42.8395 35.6516 42.0366 35.6516 42.0366L40.6804 37.1401L45.6122 42.0366V42.0454Z" fill="#CC9272"/>
<path d="M42.0659 46.1919H40.8218V48.9184H42.0659V46.1919Z" fill="#5264A1"/>
<path d="M6.61704 46.8794H5.37292V49.6059H6.61704V46.8794Z" fill="#5264A1"/>
<path d="M14.3543 46.8794H13.1102V49.6059H14.3543V46.8794Z" fill="#5264A1"/>
<path d="M22.1004 46.8794H20.8563V49.6059H22.1004V46.8794Z" fill="#5264A1"/>
<path d="M29.8379 46.8794H28.5938V49.6059H29.8379V46.8794Z" fill="#5264A1"/>
<path d="M6.61704 53.3652H5.37292V56.0917H6.61704V53.3652Z" fill="#5264A1"/>
<path d="M14.3543 53.3652H13.1102V56.0917H14.3543V53.3652Z" fill="#5264A1"/>
<path d="M22.1004 53.3652H20.8563V56.0917H22.1004V53.3652Z" fill="#5264A1"/>
<path d="M29.8379 53.3652H28.5938V56.0917H29.8379V53.3652Z" fill="#5264A1"/>
<path d="M2.3291 43.1219V40.0425H3.58204C3.58204 40.0425 3.60851 40.7572 3.88204 40.8542V43.1219H2.3291Z" fill="#DAE3AD"/>
<g style="mix-blend-mode:multiply" opacity="0.21">
<path d="M20.3182 63.8546H0V46.439C0 46.439 5.78755 52.2353 9.31655 52.8706C12.8455 53.5058 11.2487 57.6788 13.419 58.9051C15.5893 60.1403 20.4152 61.1196 20.3182 63.8546Z" fill="#DAE3AD"/>
</g>
<g style="mix-blend-mode:multiply">
<path d="M39.3218 12.2251H23.309V12.9221H39.3218V12.2251Z" fill="#D5DEA9"/>
</g>
<g style="mix-blend-mode:multiply">
<path d="M42.7277 13.231V13.928L39.3218 12.9222V12.2251L42.7277 13.231Z" fill="#D5DEA9"/>
</g>
<path d="M45.3128 42.1876C44.9422 42.32 44.1745 42.5318 42.7804 42.6729L40.6804 37.1494L45.3128 42.1788V42.1876Z" fill="#E8A682"/>
</svg>
