<svg width="56" height="73" viewBox="0 0 56 73" fill="none" xmlns="http://www.w3.org/2000/svg">
<path d="M18.6953 63.5068C18.6953 63.5068 21.196 63.5068 21.5761 63.8169C21.9563 64.127 22.9365 63.8969 23.1266 63.6569C23.3166 63.4168 21.2761 65.0473 21.2761 65.0473L18.4653 64.6472L17.515 63.937C17.515 63.937 18.2252 63.5869 18.6953 63.5068Z" fill="#C78F1E"/>
<path d="M28.3579 54.6645C28.3579 54.6645 25.8272 62.9068 26.0073 63.457C26.1873 64.0071 27.7077 64.8874 28.448 66.0377C29.1882 67.188 28.9081 67.098 28.728 67.3681C28.728 67.3681 28.638 66.928 28.2879 66.6279C27.9378 66.3278 27.2776 67.158 26.4474 66.2778C25.6172 65.3975 25.177 65.4976 24.997 65.3775C24.8169 65.2575 23.4766 66.0477 23.0865 66.7779C22.6963 67.5081 21.496 68.5984 20.0756 68.5684C18.6552 68.5384 18.4852 68.5684 18.2351 68.1983C17.985 67.8282 17.2648 68.3584 17.1048 68.7985C17.1048 68.7985 16.6246 67.8082 17.4049 67.3281C18.1851 66.8479 18.4151 66.958 18.5552 67.078C18.6952 67.198 19.9856 66.8679 20.8558 66.5479C21.7261 66.2278 20.8058 65.6276 20.6958 65.6276C20.5858 65.6276 18.1451 65.6076 17.1948 65.2775C16.2445 64.9474 16.0945 64.9974 16.0245 64.6073C15.9545 64.2172 14.9642 64.3072 14.8942 64.5373C14.8942 64.5373 15.0542 63.9271 15.8644 63.7771C16.2946 63.6971 16.4646 63.8471 16.4646 63.8471C16.4646 63.8471 16.8747 63.337 17.5949 63.527C18.3151 63.7171 19.3454 64.5173 20.4257 64.2372C21.506 63.9571 21.9861 64.3572 22.6763 63.7571C23.3665 63.1569 24.3368 60.1161 24.3368 59.0658C24.3368 58.0155 24.3168 54.6445 24.3168 54.6445H28.3679L28.3579 54.6645Z" fill="#E0A112"/>
<mask id="mask0_278_199784" style="mask-type:luminance" maskUnits="userSpaceOnUse" x="14" y="54" width="15" height="15">
<path d="M28.3579 54.6645C28.3579 54.6645 25.8272 62.9068 26.0073 63.457C26.1873 64.0071 27.7077 64.8874 28.448 66.0377C29.1882 67.188 28.9081 67.098 28.728 67.3681C28.728 67.3681 28.638 66.928 28.2879 66.6279C27.9378 66.3278 27.2776 67.158 26.4474 66.2778C25.6172 65.3975 25.177 65.4976 24.997 65.3775C24.8169 65.2575 23.4766 66.0477 23.0865 66.7779C22.6963 67.5081 21.496 68.5984 20.0756 68.5684C18.6552 68.5384 18.4852 68.5684 18.2351 68.1983C17.985 67.8282 17.2648 68.3584 17.1048 68.7985C17.1048 68.7985 16.6246 67.8082 17.4049 67.3281C18.1851 66.8479 18.4151 66.958 18.5552 67.078C18.6952 67.198 19.9856 66.8679 20.8558 66.5479C21.7261 66.2278 20.8058 65.6276 20.6958 65.6276C20.5858 65.6276 18.1451 65.6076 17.1948 65.2775C16.2445 64.9474 16.0945 64.9974 16.0245 64.6073C15.9545 64.2172 14.9642 64.3072 14.8942 64.5373C14.8942 64.5373 15.0542 63.9271 15.8644 63.7771C16.2946 63.6971 16.4646 63.8471 16.4646 63.8471C16.4646 63.8471 16.8747 63.337 17.5949 63.527C18.3151 63.7171 19.3454 64.5173 20.4257 64.2372C21.506 63.9571 21.9861 64.3572 22.6763 63.7571C23.3665 63.1569 24.3368 60.1161 24.3368 59.0658C24.3368 58.0155 24.3168 54.6445 24.3168 54.6445H28.3679L28.3579 54.6645Z" fill="white"/>
</mask>
<g mask="url(#mask0_278_199784)">
<path d="M29.0379 67.7479C29.0079 67.6079 28.9779 67.4679 28.9279 67.3378C29.0079 67.1878 28.9279 66.9777 28.7579 66.9377C28.6979 66.8177 28.6378 66.6976 28.5278 66.6176C28.4578 66.5576 28.3778 66.5176 28.2877 66.4976C28.1677 66.4776 28.0677 66.4976 27.9576 66.5376C27.8976 66.5576 27.8476 66.6376 27.8376 66.6976C27.8176 66.7577 27.8376 66.8477 27.8676 66.9077C27.8976 66.9577 27.9476 66.9977 28.0077 67.0177C27.7076 67.0077 27.4275 66.8977 27.1974 66.6476C26.8573 66.2775 26.5673 65.9674 26.1071 65.7474C25.707 65.5673 25.1569 65.3073 24.7067 65.3273C24.2666 65.3473 23.8665 65.7274 23.5764 66.0075C22.8462 66.7176 22.2961 67.5479 21.2958 67.908C20.7956 68.088 20.2555 68.1681 19.7253 68.1881C19.1852 68.2081 18.655 68.1581 18.1249 68.2381C17.7848 68.2881 17.9248 68.8082 18.2649 68.7582C18.8151 68.6782 19.3852 68.7582 19.9454 68.7182C20.4455 68.6782 20.9557 68.5982 21.4358 68.4281C22.3961 68.088 22.9963 67.4178 23.6664 66.6876C23.8165 66.5176 23.9765 66.3576 24.1466 66.2075C24.2666 66.1075 24.3866 66.0075 24.5167 65.9374C24.6867 65.8474 24.8168 65.8774 24.9968 65.9174C25.477 66.0375 26.0071 66.2275 26.3872 66.5476C26.7473 66.8577 26.9474 67.2678 27.4175 67.4479C27.7376 67.5679 28.0777 67.5779 28.4078 67.5279C28.4078 67.5379 28.4078 67.5479 28.4178 67.5579C28.4478 67.6679 28.4778 67.778 28.4978 67.888C28.5278 68.028 28.6979 68.118 28.8279 68.078C28.9779 68.028 29.0479 67.898 29.0179 67.7479H29.0379Z" fill="#B58421"/>
<path d="M20.1856 65.518C19.6554 65.508 19.1253 65.458 18.5951 65.358C18.095 65.2579 17.6048 65.1279 17.1347 64.9378C16.6846 64.7578 16.2645 64.4377 15.7643 64.3977C15.4142 64.3677 15.4242 64.9078 15.7643 64.9378C15.9744 64.9578 16.1544 65.0779 16.3345 65.1679C16.5245 65.2579 16.7146 65.348 16.9046 65.428C17.3148 65.598 17.7449 65.7281 18.185 65.8281C18.6051 65.9181 19.0252 65.9881 19.4454 66.0281C19.6654 66.0482 19.8755 66.0582 20.0955 66.0682C20.1956 66.0682 20.7057 66.0181 20.7257 66.1382C20.7957 66.4783 21.3159 66.3382 21.2459 65.9981C21.1458 65.488 20.5757 65.538 20.1856 65.528V65.518Z" fill="#B58421"/>
<path d="M28.6272 55.4946C27.8472 55.7046 27.0872 55.9946 26.3672 56.3646C26.2372 56.4346 26.1972 56.6146 26.2672 56.7346C26.3472 56.8646 26.5072 56.8946 26.6372 56.8346C27.3172 56.4846 28.0272 56.2246 28.7672 56.0246C29.1072 55.9346 28.9572 55.4146 28.6272 55.5046V55.4946Z" fill="#E3A927"/>
<path d="M25.1064 55.0947C24.6764 55.0247 24.2364 54.9847 23.7964 54.9947C23.6564 54.9947 23.5164 55.1147 23.5264 55.2647C23.5264 55.4047 23.6464 55.5347 23.7964 55.5347C23.9964 55.5347 24.2064 55.5347 24.4064 55.5547C24.5064 55.5547 24.6064 55.5747 24.7064 55.5847C24.7264 55.5847 24.7364 55.5847 24.7564 55.5847H24.7964C24.8564 55.5847 24.9064 55.6047 24.9664 55.6147C25.1064 55.6347 25.2664 55.5747 25.2964 55.4247C25.3264 55.2947 25.2564 55.1147 25.1064 55.0947Z" fill="#E3A927"/>
<path d="M25.1464 57.225C24.8464 57.075 24.5364 56.955 24.2064 56.875C24.0664 56.845 23.9064 56.915 23.8764 57.065C23.8464 57.205 23.9164 57.365 24.0664 57.395C24.2664 57.445 24.4664 57.515 24.6564 57.595C24.7264 57.625 24.8064 57.665 24.8764 57.695C25.0064 57.755 25.1764 57.735 25.2464 57.595C25.3164 57.475 25.2864 57.295 25.1464 57.225Z" fill="#E3A927"/>
<path d="M25.3365 59.246C25.2465 59.246 25.1665 59.246 25.0765 59.226C25.0765 59.226 25.0665 59.226 25.0565 59.226C25.0465 59.226 25.0265 59.226 25.0165 59.226C24.9765 59.226 24.9365 59.216 24.8865 59.206C24.7265 59.176 24.5665 59.126 24.4065 59.066C24.2765 59.016 24.1065 59.126 24.0765 59.256C24.0465 59.406 24.1265 59.536 24.2665 59.586C24.6065 59.716 24.9665 59.776 25.3265 59.796C25.4665 59.796 25.6065 59.666 25.5965 59.526C25.5965 59.376 25.4765 59.256 25.3265 59.256L25.3365 59.246Z" fill="#C99225"/>
<path d="M27.6269 58.3052C27.5769 58.1552 27.4469 58.0852 27.2969 58.1152C27.1769 58.1352 27.0469 58.1652 26.9269 58.1852C26.8669 58.1852 26.8169 58.2052 26.7569 58.2152C26.7269 58.2152 26.6969 58.2152 26.6669 58.2252C26.7069 58.2252 26.6169 58.2252 26.6069 58.2252C26.3669 58.2552 26.1169 58.2752 25.8669 58.2952C25.7269 58.2952 25.5869 58.4152 25.5969 58.5652C25.5969 58.7052 25.7169 58.8452 25.8669 58.8352C26.3969 58.8052 26.9169 58.7352 27.4369 58.6352C27.5769 58.6052 27.6669 58.4352 27.6269 58.3052Z" fill="#E3A927"/>
<path d="M27.1369 60.1156C27.0869 59.9756 26.9469 59.8856 26.8069 59.9256C26.5969 59.9856 26.3769 60.0356 26.1569 60.0756C26.0469 60.0956 25.9369 60.1156 25.8269 60.1356C25.7769 60.1356 25.7269 60.1556 25.6769 60.1556C25.6469 60.1556 25.6269 60.1556 25.5969 60.1656C25.5969 60.1656 25.4869 60.1856 25.5369 60.1656C25.3969 60.1856 25.2569 60.2756 25.2669 60.4356C25.2669 60.5656 25.3869 60.7256 25.5369 60.7056C26.0069 60.6456 26.4769 60.5556 26.9369 60.4256C27.0769 60.3856 27.1669 60.2356 27.1269 60.0956L27.1369 60.1156Z" fill="#C99225"/>
<path d="M26.3067 61.1364L25.0867 61.1064C24.9467 61.1064 24.8067 61.2364 24.8167 61.3764C24.8167 61.5264 24.9367 61.6464 25.0867 61.6464L26.3067 61.6764C26.4467 61.6764 26.5867 61.5464 26.5767 61.4064C26.5767 61.2564 26.4567 61.1364 26.3067 61.1364Z" fill="#C99225"/>
<path d="M25.9866 62.447C25.5766 62.477 25.1766 62.467 24.7666 62.437C24.6266 62.427 24.4866 62.567 24.4966 62.707C24.4966 62.867 24.6166 62.967 24.7666 62.977C25.1766 63.007 25.5766 63.017 25.9866 62.987C26.1266 62.987 26.2666 62.867 26.2566 62.717C26.2566 62.577 26.1366 62.437 25.9866 62.447Z" fill="#C99225"/>
<path d="M23.706 63.0169C23.606 62.9869 23.516 62.9569 23.416 62.9169C23.246 62.8469 23.086 62.7569 22.946 62.6469C22.896 62.6069 22.796 62.6069 22.736 62.6169C22.676 62.6369 22.606 62.6869 22.576 62.7369C22.546 62.7969 22.526 62.8769 22.546 62.9469C22.566 63.0169 22.606 63.0669 22.666 63.1069C22.936 63.2969 23.246 63.4369 23.556 63.5269C23.696 63.5669 23.856 63.4769 23.886 63.3369C23.916 63.1969 23.846 63.0469 23.696 63.0069L23.706 63.0169Z" fill="#C99225"/>
<path d="M24.5164 61.5865C24.4964 61.5165 24.4564 61.4565 24.3964 61.4265C24.3364 61.3965 24.2764 61.3865 24.2164 61.3965C24.1764 61.3965 24.1464 61.3965 24.1064 61.3965C24.0764 61.3965 24.0464 61.3865 24.0164 61.3765C23.9964 61.3665 23.9764 61.3565 23.9564 61.3365C23.9364 61.3165 23.9064 61.2965 23.8864 61.2665C23.8464 61.2165 23.7964 61.1765 23.7364 61.1565C23.6764 61.1365 23.5864 61.1565 23.5264 61.1865C23.4664 61.2265 23.4164 61.2765 23.4064 61.3465C23.3864 61.4165 23.3964 61.4965 23.4364 61.5565C23.4764 61.6265 23.5264 61.6865 23.5964 61.7365C23.6364 61.7665 23.6764 61.7965 23.7164 61.8265C23.7564 61.8565 23.8064 61.8665 23.8564 61.8865C24.0064 61.9465 24.1764 61.9565 24.3364 61.9165C24.3964 61.9065 24.4664 61.8465 24.4964 61.7965C24.5264 61.7365 24.5464 61.6565 24.5264 61.5865H24.5164Z" fill="#C99225"/>
<path d="M24.7265 60.4659C24.7265 60.4659 24.7065 60.4259 24.6965 60.4059C24.6765 60.3659 24.6365 60.3359 24.5965 60.3059C24.4865 60.2259 24.3865 60.1559 24.2765 60.0759C24.2465 60.0559 24.2165 60.0459 24.1765 60.0459C24.1365 60.0459 24.1065 60.0459 24.0665 60.0459C24.0265 60.0459 23.9965 60.0659 23.9765 60.0959C23.9465 60.1159 23.9265 60.1359 23.9065 60.1759C23.8765 60.2359 23.8565 60.3159 23.8765 60.3859C23.8765 60.4059 23.8965 60.4259 23.9065 60.4459C23.9265 60.4859 23.9665 60.5159 24.0065 60.5459C24.1165 60.6259 24.2165 60.6959 24.3265 60.7759C24.3565 60.7959 24.3865 60.8059 24.4265 60.8059C24.4665 60.8059 24.4965 60.8059 24.5365 60.8059C24.5765 60.8059 24.6065 60.7859 24.6265 60.7559C24.6565 60.7359 24.6765 60.7159 24.6965 60.6759C24.7265 60.6159 24.7465 60.5359 24.7265 60.4659Z" fill="#C99225"/>
<path d="M29.4176 66.7279C29.4176 66.7279 29.4676 66.6779 29.4776 66.6379C29.4976 66.6079 29.4976 66.5678 29.4976 66.5378C29.4976 66.4978 29.4976 66.4679 29.4776 66.4379C29.4676 66.4079 29.4476 66.3779 29.4176 66.3479C29.3976 66.3379 29.3776 66.3179 29.3676 66.3079C29.3276 66.2879 29.2776 66.2679 29.2276 66.2679C29.2076 66.2679 29.1776 66.2679 29.1576 66.2679C29.1576 66.2679 29.1476 66.2679 29.1376 66.2779C29.1076 66.1779 29.0676 66.0779 28.9876 65.9979C28.9876 65.9979 28.9776 65.9979 28.9676 65.9879C28.9276 65.8779 28.8276 65.8079 28.7176 65.7979C28.6676 65.7979 28.6176 65.7979 28.5676 65.8279C28.5276 65.8279 28.4976 65.8379 28.4676 65.8679C28.3676 65.8679 28.2676 65.9079 28.2276 65.9979C28.1776 66.0979 28.1876 66.2179 28.2476 66.2979C28.2476 66.4379 28.2976 66.5679 28.3376 66.6979C28.3876 66.8379 28.3976 66.9279 28.4076 67.0679C28.4176 67.2579 28.4776 67.4079 28.6376 67.5179C28.6376 67.5179 28.6476 67.5179 28.6576 67.5179C28.6076 67.7279 28.5276 67.9279 28.4476 68.1279C28.3976 68.2679 28.5076 68.4279 28.6376 68.4579C28.7876 68.4979 28.9176 68.4079 28.9676 68.2679C28.9676 68.2579 28.9676 68.2379 28.9876 68.2279C29.0176 68.2079 29.0376 68.1779 29.0576 68.1479C29.1376 67.9778 29.1876 67.8079 29.2176 67.6379C29.2276 67.6379 29.2476 67.6379 29.2576 67.6379C29.3976 67.5879 29.4776 67.4479 29.4476 67.3079C29.4076 67.1379 29.3576 66.9679 29.2976 66.7979C29.3376 66.7879 29.3676 66.7679 29.3976 66.7379L29.4176 66.7178V66.7279Z" fill="#C79B36"/>
<path d="M18.5246 67.2282C18.5246 67.1782 18.4946 67.1282 18.4846 67.0882C18.4646 67.0182 18.4446 66.9582 18.3946 66.9082C18.3246 66.8282 18.2246 66.7982 18.1346 66.7982C18.1146 66.7982 18.0846 66.7882 18.0646 66.7782C17.9646 66.7582 17.8746 66.7482 17.7746 66.7282C17.7046 66.7182 17.6346 66.7182 17.5646 66.7582C17.5046 66.7882 17.4546 66.8582 17.4446 66.9182C17.4446 66.9482 17.4446 66.9782 17.4446 67.0082C17.4246 67.0282 17.3946 67.0382 17.3746 67.0582C17.2946 67.1282 17.2246 67.2082 17.1546 67.2882C16.9646 67.4782 16.8346 67.7382 16.7346 67.9782C16.6246 68.2582 16.5346 68.6382 16.6346 68.9282C16.6846 69.0782 16.7946 69.1982 16.8646 69.3382C16.9446 69.4782 17.0046 69.6382 17.0346 69.7982C17.1146 70.1382 17.6346 69.9982 17.5546 69.6582C17.5146 69.4682 17.4446 69.2782 17.3546 69.1082C17.3246 69.0582 17.2946 69.0182 17.2646 68.9682C17.2946 68.9382 17.3246 68.8982 17.3346 68.8482C17.3546 68.7682 17.3746 68.6982 17.4046 68.6182C17.4046 68.6182 17.4046 68.6182 17.4046 68.6082C17.4246 68.5582 17.4546 68.5182 17.4846 68.4782C17.4846 68.4782 17.4846 68.4782 17.4846 68.4682C17.5046 68.4482 17.5146 68.4282 17.5346 68.4182C17.5646 68.3882 17.5946 68.3582 17.6346 68.3282L17.6746 68.2982C17.6946 68.2882 17.7146 68.2682 17.7446 68.2582C17.8446 68.1882 17.9546 68.1282 18.0446 68.0482C18.1646 67.9482 18.2646 67.8282 18.3146 67.6782C18.3646 67.6382 18.4146 67.5982 18.4446 67.5382C18.4946 67.4482 18.5246 67.3482 18.5146 67.2482L18.5246 67.2282Z" fill="#C79B36"/>
<path d="M16.0139 63.5068C15.8639 63.5068 15.7039 63.5768 15.5639 63.6268C15.4239 63.6768 15.2739 63.7368 15.1339 63.8068C14.8639 63.9468 14.6139 64.1568 14.4639 64.4268C14.3939 64.5468 14.4339 64.7268 14.5639 64.7968C14.5739 64.7968 14.5839 64.7968 14.5939 64.8068C14.6039 64.8068 14.6139 64.8268 14.6239 64.8368C14.7639 64.9068 14.9039 64.8668 14.9939 64.7368C14.9939 64.7268 15.0539 64.6568 15.0139 64.7068C15.0339 64.6868 15.0439 64.6668 15.0639 64.6468C15.1039 64.6068 15.1439 64.5668 15.1939 64.5268C15.1939 64.5268 15.2139 64.5168 15.2239 64.5068C15.2439 64.4868 15.2739 64.4768 15.3039 64.4568C15.3339 64.4368 15.3539 64.4268 15.3839 64.4168C15.3939 64.4168 15.4239 64.3968 15.4339 64.3968C15.4839 64.3768 15.5339 64.3668 15.5839 64.3468C15.6139 64.3468 15.6339 64.3368 15.6639 64.3268C15.6739 64.3268 15.6839 64.3268 15.6939 64.3268C15.6939 64.3268 15.6939 64.3268 15.7139 64.3268C15.8539 64.3168 15.9939 64.3468 16.1339 64.3068C16.3339 64.2568 16.4639 64.0668 16.4339 63.8568C16.4039 63.6568 16.2139 63.5168 16.0139 63.5168V63.5068Z" fill="#C79B36"/>
</g>
<path d="M19.7554 67.708C19.7554 67.708 22.2561 67.708 22.6362 68.0181C23.0163 68.3282 23.9966 68.0981 24.1866 67.858C24.3767 67.618 22.3361 69.2484 22.3361 69.2484L19.5253 68.8483L18.5751 68.1381C18.5751 68.1381 19.2853 67.788 19.7554 67.708Z" fill="#CF941F"/>
<path d="M29.4081 58.8657C29.4081 58.8657 26.8774 67.108 27.0574 67.6582C27.2375 68.2083 28.7579 69.0886 29.4981 70.2389C30.2383 71.3892 29.9583 71.2992 29.7782 71.5693C29.7782 71.5693 29.6882 71.1291 29.3381 70.829C28.988 70.529 28.3278 71.3592 27.4976 70.479C26.6673 69.5987 26.2272 69.6987 26.0472 69.5787C25.8671 69.4587 24.5267 70.2489 24.1366 70.9791C23.7465 71.7093 22.5462 72.7996 21.1258 72.7696C19.7054 72.7396 19.5353 72.7696 19.2853 72.3995C19.0352 72.0294 18.315 72.5595 18.155 72.9997C18.155 72.9997 17.6748 72.0094 18.455 71.5292C19.2353 71.0491 19.4653 71.1591 19.6054 71.2792C19.7454 71.3992 21.0358 71.0691 21.906 70.749C22.7762 70.4289 21.856 69.8288 21.746 69.8288C21.6359 69.8288 19.1952 69.8088 18.245 69.4787C17.2947 69.1486 17.1447 69.1986 17.0747 68.8085C17.0046 68.4184 16.0144 68.5084 15.9443 68.7385C15.9443 68.7385 16.1044 68.1283 16.9146 67.9783C17.3447 67.8982 17.5148 68.0483 17.5148 68.0483C17.5148 68.0483 17.9249 67.5381 18.6451 67.7282C19.3653 67.9182 20.3956 68.7185 21.4759 68.4384C22.5562 68.1583 23.0363 68.5584 23.7265 67.9583C24.4167 67.3581 25.387 64.3172 25.387 63.2669C25.387 62.2166 25.367 58.8457 25.367 58.8457H29.4181L29.4081 58.8657Z" fill="#F0BA50"/>
<mask id="mask1_278_199784" style="mask-type:luminance" maskUnits="userSpaceOnUse" x="15" y="58" width="15" height="15">
<path d="M29.4081 58.8657C29.4081 58.8657 26.8774 67.108 27.0574 67.6582C27.2375 68.2083 28.7579 69.0886 29.4981 70.2389C30.2383 71.3892 29.9583 71.2992 29.7782 71.5693C29.7782 71.5693 29.6882 71.1291 29.3381 70.829C28.988 70.529 28.3278 71.3592 27.4976 70.479C26.6673 69.5987 26.2272 69.6987 26.0472 69.5787C25.8671 69.4587 24.5267 70.2489 24.1366 70.9791C23.7465 71.7093 22.5462 72.7996 21.1258 72.7696C19.7054 72.7396 19.5353 72.7696 19.2853 72.3995C19.0352 72.0294 18.315 72.5595 18.155 72.9997C18.155 72.9997 17.6748 72.0094 18.455 71.5292C19.2353 71.0491 19.4653 71.1591 19.6054 71.2792C19.7454 71.3992 21.0358 71.0691 21.906 70.749C22.7762 70.4289 21.856 69.8288 21.746 69.8288C21.6359 69.8288 19.1952 69.8088 18.245 69.4787C17.2947 69.1486 17.1447 69.1986 17.0747 68.8085C17.0046 68.4184 16.0144 68.5084 15.9443 68.7385C15.9443 68.7385 16.1044 68.1283 16.9146 67.9783C17.3447 67.8982 17.5148 68.0483 17.5148 68.0483C17.5148 68.0483 17.9249 67.5381 18.6451 67.7282C19.3653 67.9182 20.3956 68.7185 21.4759 68.4384C22.5562 68.1583 23.0363 68.5584 23.7265 67.9583C24.4167 67.3581 25.387 64.3172 25.387 63.2669C25.387 62.2166 25.367 58.8457 25.367 58.8457H29.4181L29.4081 58.8657Z" fill="white"/>
</mask>
<g mask="url(#mask1_278_199784)">
<path d="M30.0884 71.9491C30.0584 71.8091 30.0283 71.669 29.9783 71.539C30.0584 71.3889 29.9783 71.1789 29.8083 71.1389C29.7483 71.0188 29.6882 70.8988 29.5782 70.8188C29.5082 70.7588 29.4282 70.7188 29.3382 70.6988C29.2181 70.6788 29.1181 70.6988 29.0081 70.7388C28.948 70.7588 28.898 70.8388 28.888 70.8988C28.868 70.9588 28.888 71.0489 28.918 71.1089C28.948 71.1589 28.9981 71.1989 29.0581 71.2189C28.758 71.2089 28.4779 71.0989 28.2478 70.8488C27.9078 70.4787 27.6177 70.1686 27.1575 69.9485C26.7574 69.7685 26.2073 69.5084 25.7572 69.5284C25.317 69.5484 24.9169 69.9285 24.6268 70.2086C23.8966 70.9188 23.3465 71.749 22.3462 72.1091C21.8461 72.2892 21.3059 72.3692 20.7758 72.3892C20.2356 72.4092 19.7055 72.3592 19.1753 72.4392C18.8352 72.4893 18.9753 73.0094 19.3154 72.9594C19.8655 72.8794 20.4357 72.9594 20.9958 72.9194C21.496 72.8794 22.0061 72.7993 22.4862 72.6293C23.4465 72.2892 24.0467 71.619 24.7169 70.8888C24.8669 70.7188 25.0269 70.5587 25.197 70.4087C25.317 70.3086 25.4371 70.2086 25.5671 70.1386C25.7371 70.0486 25.8672 70.0786 26.0472 70.1186C26.5274 70.2386 27.0575 70.4287 27.4376 70.7488C27.7977 71.0589 27.9978 71.469 28.4679 71.649C28.788 71.7691 29.1281 71.7791 29.4582 71.729C29.4582 71.739 29.4582 71.749 29.4682 71.7591C29.4982 71.8691 29.5282 71.9791 29.5482 72.0891C29.5782 72.2292 29.7483 72.3192 29.8783 72.2792C30.0283 72.2292 30.0984 72.0991 30.0684 71.9491H30.0884Z" fill="#EDB036"/>
<path d="M21.236 69.7192C20.7058 69.7092 20.1757 69.6592 19.6455 69.5591C19.1454 69.4591 18.6553 69.3291 18.1851 69.139C17.735 68.959 17.3149 68.6389 16.8147 68.5989C16.4646 68.5689 16.4746 69.109 16.8147 69.139C17.0248 69.159 17.2049 69.279 17.3849 69.3691C17.575 69.4591 17.765 69.5491 17.9551 69.6291C18.3652 69.7992 18.7953 69.9292 19.2354 70.0293C19.6555 70.1193 20.0757 70.1893 20.4958 70.2293C20.7158 70.2493 20.9259 70.2593 21.146 70.2693C21.246 70.2693 21.7561 70.2193 21.7761 70.3393C21.8462 70.6794 22.3663 70.5394 22.2963 70.1993C22.1962 69.6892 21.6261 69.7392 21.236 69.7292V69.7192Z" fill="#EDB036"/>
<path opacity="0.53" d="M29.6877 59.6957C28.9077 59.9057 28.1477 60.1957 27.4277 60.5657C27.2977 60.6357 27.2577 60.8157 27.3277 60.9357C27.4077 61.0657 27.5677 61.0957 27.6977 61.0357C28.3777 60.6857 29.0877 60.4257 29.8277 60.2257C30.1677 60.1357 30.0177 59.6157 29.6877 59.7057V59.6957Z" fill="#C99225"/>
<path opacity="0.53" d="M26.1668 59.2959C25.7368 59.2259 25.2968 59.1859 24.8568 59.1959C24.7168 59.1959 24.5768 59.3159 24.5868 59.4659C24.5868 59.6059 24.7068 59.7359 24.8568 59.7359C25.0568 59.7359 25.2668 59.7359 25.4668 59.7559C25.5668 59.7559 25.6668 59.7759 25.7668 59.7859C25.7868 59.7859 25.7968 59.7859 25.8168 59.7859H25.8568C25.9168 59.7859 25.9668 59.8059 26.0268 59.8159C26.1668 59.8359 26.3268 59.7759 26.3568 59.6259C26.3868 59.4959 26.3168 59.3159 26.1668 59.2959Z" fill="#C99225"/>
<path opacity="0.53" d="M26.2069 61.4164C25.9069 61.2664 25.5969 61.1464 25.2669 61.0664C25.1269 61.0364 24.9669 61.1064 24.9369 61.2564C24.9069 61.3964 24.9769 61.5564 25.1269 61.5864C25.3269 61.6364 25.5269 61.7064 25.7169 61.7864C25.7869 61.8164 25.8669 61.8564 25.9369 61.8864C26.0669 61.9464 26.2369 61.9264 26.3069 61.7864C26.3769 61.6664 26.3469 61.4864 26.2069 61.4164Z" fill="#C99225"/>
<path opacity="0.53" d="M26.3969 63.4472C26.3069 63.4472 26.2269 63.4472 26.1369 63.4272C26.1369 63.4272 26.1269 63.4272 26.1169 63.4272C26.1069 63.4272 26.0869 63.4272 26.0769 63.4272C26.0369 63.4272 25.9969 63.4172 25.9469 63.4072C25.7869 63.3772 25.6269 63.3272 25.4669 63.2672C25.3369 63.2172 25.1669 63.3272 25.1369 63.4572C25.1069 63.6072 25.1869 63.7372 25.3269 63.7872C25.6669 63.9172 26.0269 63.9772 26.3869 63.9972C26.5269 63.9972 26.6669 63.8672 26.6569 63.7272C26.6569 63.5772 26.5369 63.4572 26.3869 63.4572L26.3969 63.4472Z" fill="#C99225"/>
<path opacity="0.53" d="M28.6874 62.5064C28.6374 62.3564 28.5074 62.2864 28.3574 62.3164C28.2374 62.3364 28.1074 62.3664 27.9874 62.3864C27.9274 62.3864 27.8774 62.4064 27.8174 62.4164C27.7874 62.4164 27.7574 62.4164 27.7274 62.4264C27.7674 62.4264 27.6774 62.4264 27.6674 62.4264C27.4274 62.4564 27.1774 62.4764 26.9274 62.4964C26.7874 62.4964 26.6474 62.6164 26.6574 62.7664C26.6574 62.9064 26.7774 63.0464 26.9274 63.0364C27.4574 63.0064 27.9774 62.9364 28.4974 62.8364C28.6374 62.8064 28.7274 62.6364 28.6874 62.5064Z" fill="#C99225"/>
<path opacity="0.53" d="M28.1973 64.3167C28.1473 64.1767 28.0073 64.0867 27.8673 64.1267C27.6573 64.1867 27.4373 64.2367 27.2173 64.2767C27.1073 64.2967 26.9973 64.3167 26.8873 64.3367C26.8373 64.3367 26.7873 64.3567 26.7373 64.3567C26.7073 64.3567 26.6873 64.3567 26.6573 64.3667C26.6573 64.3667 26.5473 64.3867 26.5973 64.3667C26.4573 64.3867 26.3173 64.4767 26.3273 64.6367C26.3273 64.7667 26.4473 64.9267 26.5973 64.9067C27.0673 64.8467 27.5373 64.7567 27.9973 64.6267C28.1373 64.5867 28.2273 64.4367 28.1873 64.2967L28.1973 64.3167Z" fill="#C99225"/>
<path opacity="0.53" d="M27.3672 65.3279L26.1472 65.2979C26.0072 65.2979 25.8672 65.4279 25.8772 65.5679C25.8772 65.7179 25.9972 65.8379 26.1472 65.8379L27.3672 65.8679C27.5072 65.8679 27.6472 65.7379 27.6372 65.5979C27.6372 65.4479 27.5172 65.3279 27.3672 65.3279Z" fill="#C99225"/>
<path opacity="0.53" d="M27.037 66.6482C26.627 66.6782 26.227 66.6682 25.817 66.6382C25.677 66.6282 25.537 66.7682 25.547 66.9082C25.547 67.0682 25.667 67.1682 25.817 67.1782C26.227 67.2082 26.627 67.2182 27.037 67.1882C27.177 67.1882 27.317 67.0682 27.307 66.9182C27.307 66.7782 27.187 66.6382 27.037 66.6482Z" fill="#C99225"/>
<path opacity="0.53" d="M24.7664 67.218C24.6664 67.188 24.5764 67.1581 24.4764 67.1181C24.3064 67.0481 24.1464 66.9581 24.0064 66.8481C23.9564 66.8081 23.8564 66.8081 23.7964 66.8181C23.7364 66.8381 23.6664 66.8881 23.6364 66.9381C23.6064 66.9981 23.5864 67.0781 23.6064 67.1481C23.6264 67.2181 23.6664 67.2681 23.7264 67.3081C23.9964 67.4981 24.3064 67.6381 24.6164 67.7281C24.7564 67.7681 24.9164 67.678 24.9464 67.538C24.9764 67.398 24.9064 67.2481 24.7564 67.2081L24.7664 67.218Z" fill="#C99225"/>
<path opacity="0.53" d="M25.5768 65.7779C25.5568 65.7079 25.5168 65.6479 25.4568 65.6179C25.3968 65.5879 25.3368 65.5779 25.2768 65.5879C25.2368 65.5879 25.2068 65.5879 25.1668 65.5879C25.1368 65.5879 25.1068 65.5779 25.0768 65.5679C25.0568 65.5579 25.0368 65.5479 25.0168 65.5279C24.9968 65.5079 24.9668 65.4879 24.9468 65.4579C24.9068 65.4079 24.8568 65.3679 24.7968 65.3479C24.7368 65.3279 24.6468 65.3479 24.5868 65.3779C24.5268 65.4179 24.4768 65.4679 24.4668 65.5379C24.4468 65.6079 24.4568 65.6879 24.4968 65.7479C24.5368 65.8179 24.5868 65.8779 24.6568 65.9279C24.6968 65.9579 24.7368 65.9879 24.7768 66.0179C24.8168 66.0479 24.8668 66.0579 24.9168 66.0779C25.0668 66.1379 25.2368 66.1479 25.3968 66.1079C25.4568 66.0979 25.5268 66.0379 25.5568 65.9879C25.5868 65.9279 25.6068 65.8479 25.5868 65.7779H25.5768Z" fill="#C99225"/>
<path opacity="0.53" d="M25.7869 64.6671C25.7869 64.6671 25.7669 64.6271 25.7569 64.6071C25.7369 64.5671 25.6969 64.5371 25.6569 64.5071C25.5469 64.4271 25.4469 64.3571 25.3369 64.2771C25.3069 64.2571 25.2769 64.2471 25.2369 64.2471C25.1969 64.2471 25.1669 64.2471 25.1269 64.2471C25.0869 64.2471 25.0569 64.2671 25.0369 64.2971C25.0069 64.3171 24.9869 64.3371 24.9669 64.3771C24.9369 64.4371 24.9169 64.5171 24.9369 64.5871C24.9369 64.6071 24.9569 64.6271 24.9669 64.6471C24.9869 64.6871 25.0269 64.7171 25.0669 64.7471C25.1769 64.8271 25.2769 64.8971 25.3869 64.9771C25.4169 64.9971 25.4469 65.0071 25.4869 65.0071C25.5269 65.0071 25.5569 65.0071 25.5969 65.0071C25.6369 65.0071 25.6669 64.9871 25.6869 64.9571C25.7169 64.9371 25.7369 64.9171 25.7569 64.8771C25.7869 64.8171 25.8069 64.7371 25.7869 64.6671Z" fill="#C99225"/>
<path d="M30.478 70.929C30.478 70.929 30.528 70.879 30.538 70.839C30.558 70.809 30.558 70.769 30.558 70.739C30.558 70.699 30.558 70.669 30.538 70.639C30.528 70.609 30.508 70.579 30.478 70.549C30.458 70.539 30.438 70.519 30.428 70.509C30.388 70.489 30.338 70.469 30.288 70.469C30.268 70.469 30.238 70.469 30.218 70.469C30.218 70.469 30.208 70.469 30.198 70.479C30.168 70.379 30.128 70.279 30.048 70.199C30.048 70.199 30.038 70.199 30.028 70.189C29.988 70.079 29.888 70.009 29.778 69.999C29.728 69.999 29.678 69.999 29.628 70.029C29.588 70.029 29.558 70.039 29.528 70.069C29.428 70.069 29.328 70.109 29.288 70.199C29.238 70.299 29.248 70.419 29.308 70.499C29.308 70.639 29.358 70.769 29.398 70.899C29.448 71.039 29.458 71.129 29.468 71.269C29.478 71.459 29.538 71.609 29.698 71.719C29.698 71.719 29.708 71.719 29.718 71.719C29.668 71.929 29.588 72.129 29.508 72.329C29.458 72.469 29.568 72.629 29.698 72.659C29.848 72.699 29.978 72.609 30.028 72.469C30.028 72.459 30.028 72.439 30.048 72.429C30.078 72.409 30.098 72.379 30.118 72.349C30.198 72.179 30.248 72.009 30.278 71.839C30.288 71.839 30.308 71.839 30.318 71.839C30.458 71.789 30.538 71.649 30.508 71.509C30.468 71.339 30.418 71.169 30.358 70.999C30.398 70.989 30.428 70.969 30.458 70.939L30.478 70.919V70.929Z" fill="#E6B33F"/>
<path d="M19.585 71.4186C19.585 71.3686 19.555 71.3186 19.545 71.2786C19.525 71.2086 19.505 71.1486 19.455 71.0986C19.385 71.0186 19.285 70.9886 19.195 70.9886C19.175 70.9886 19.145 70.9786 19.125 70.9686C19.025 70.9486 18.935 70.9386 18.835 70.9186C18.765 70.9086 18.695 70.9086 18.625 70.9486C18.565 70.9786 18.515 71.0486 18.505 71.1086C18.505 71.1386 18.505 71.1686 18.505 71.1986C18.485 71.2186 18.455 71.2286 18.435 71.2486C18.355 71.3186 18.285 71.3986 18.215 71.4786C18.025 71.6686 17.895 71.9286 17.795 72.1686C17.685 72.4486 17.595 72.8286 17.695 73.1186C17.745 73.2686 17.855 73.3886 17.925 73.5286C18.005 73.6686 18.065 73.8286 18.095 73.9886C18.175 74.3286 18.695 74.1886 18.615 73.8486C18.575 73.6586 18.505 73.4686 18.415 73.2986C18.385 73.2486 18.355 73.2086 18.325 73.1586C18.355 73.1286 18.385 73.0886 18.395 73.0386C18.415 72.9586 18.435 72.8886 18.465 72.8086C18.465 72.8086 18.465 72.8086 18.465 72.7986C18.485 72.7486 18.515 72.7086 18.545 72.6686C18.545 72.6686 18.545 72.6686 18.545 72.6586C18.565 72.6386 18.575 72.6186 18.595 72.6086C18.625 72.5786 18.655 72.5486 18.695 72.5186L18.735 72.4886C18.755 72.4786 18.775 72.4586 18.805 72.4486C18.905 72.3786 19.015 72.3186 19.105 72.2386C19.225 72.1386 19.325 72.0186 19.375 71.8686C19.425 71.8286 19.475 71.7886 19.505 71.7286C19.555 71.6386 19.585 71.5386 19.575 71.4386L19.585 71.4186Z" fill="#E6B33F"/>
<path d="M17.0743 67.708C16.9243 67.708 16.7643 67.778 16.6243 67.828C16.4843 67.878 16.3343 67.938 16.1943 68.008C15.9243 68.148 15.6743 68.358 15.5243 68.628C15.4543 68.748 15.4943 68.928 15.6243 68.998C15.6343 68.998 15.6443 68.998 15.6543 69.008C15.6643 69.008 15.6743 69.028 15.6843 69.038C15.8243 69.108 15.9643 69.068 16.0543 68.938C16.0543 68.928 16.1143 68.858 16.0743 68.908C16.0943 68.888 16.1043 68.868 16.1243 68.848C16.1643 68.808 16.2043 68.768 16.2543 68.728C16.2543 68.728 16.2743 68.718 16.2843 68.708C16.3043 68.688 16.3343 68.678 16.3643 68.658C16.3943 68.638 16.4143 68.628 16.4443 68.618C16.4543 68.618 16.4843 68.598 16.4943 68.598C16.5443 68.578 16.5943 68.568 16.6443 68.548C16.6743 68.548 16.6943 68.538 16.7243 68.528C16.7343 68.528 16.7443 68.528 16.7543 68.528C16.7543 68.528 16.7543 68.528 16.7743 68.528C16.9143 68.518 17.0543 68.548 17.1943 68.508C17.3943 68.458 17.5243 68.268 17.4943 68.058C17.4643 67.858 17.2743 67.718 17.0743 67.718V67.708Z" fill="#E6B33F"/>
</g>
<mask id="mask2_278_199784" style="mask-type:luminance" maskUnits="userSpaceOnUse" x="2" y="2" width="53" height="58">
<path d="M53.1848 33.5193C52.7647 34.0695 52.4947 34.7596 53.3249 35.3798C54.1551 36 53.635 36.8302 51.9445 37.3204C50.254 37.8005 52.9848 38.3907 52.2246 39.1809C51.4644 39.9711 51.3943 40.2912 48.5636 40.2512C45.7328 40.2212 49.7339 41.1214 49.0437 41.7416C48.3535 42.3618 46.3529 42.2217 45.6928 42.9819C45.0426 43.7422 44.4524 43.5321 44.9325 44.4924C45.4227 45.4626 45.8028 45.6327 44.9025 46.2229C44.0023 46.803 45.0426 47.5332 44.8725 48.2534C44.7025 48.9736 45.2526 49.2937 42.862 50.6041C40.4813 51.9144 41.3115 52.3646 40.6513 52.8447C40.0012 53.3248 38.7208 56.0856 36.7503 55.8455C34.7797 55.6055 33.9195 56.9158 33.1593 58.0562C32.399 59.1965 30.7086 59.5366 29.5983 59.5366C29.0881 59.5366 27.0575 59.9967 24.6969 59.0164C24.5769 58.9664 24.4468 58.9164 24.3268 58.8564C20.9758 57.2659 18.9253 54.065 14.7241 51.1542C12.9236 49.9139 7.52208 50.0339 6.72186 41.7316C6.06168 34.9997 4.03111 37.2403 3.34092 29.7482C2.72074 23.0464 3.20088 21.4259 4.44122 17.4248C5.68157 13.4237 8.10225 12.2133 6.93192 10.1728C5.34147 7.412 3.20088 7.58205 3.10085 7.58205C3.00082 7.58205 2.52069 5.6115 3.24089 5.41145C3.24089 5.41145 5.34148 2.24056 8.35232 3.03078C11.3532 3.821 15.5243 4.69124 17.6749 11.083C19.8155 17.4748 20.6758 18.9152 21.9561 20.0956C23.2365 21.2659 28.0378 24.2367 31.8989 23.5465C35.77 22.8563 38.0406 21.3759 37.9406 19.8155C37.9006 19.2353 37.8606 18.3251 37.8906 17.3548C37.9206 15.7343 38.1306 13.9038 38.8408 12.9836C39.9812 11.4931 38.9409 5.5915 42.3918 5.42145C45.8428 5.2514 46.3629 7.42201 46.703 8.22223C47.0531 9.01245 48.9837 9.5326 49.8039 9.46258C50.6341 9.39256 52.4346 11.3931 51.3943 15.6343C50.3641 19.8755 52.7747 18.085 53.2249 18.6752C53.675 19.2553 52.7747 21.0958 52.3646 22.2662C51.9445 23.4365 52.9548 22.5462 53.3449 22.7763C53.735 23.0164 53.605 24.8169 51.7344 26.2673C49.8639 27.7177 52.9048 27.0275 53.735 26.8574C54.5652 26.6874 55.0854 28.1678 53.735 29.1681C52.3846 30.1684 51.8045 30.6585 53.5649 31.7588C55.3254 32.8591 53.605 32.9691 53.1848 33.5193Z" fill="white"/>
</mask>
<g mask="url(#mask2_278_199784)">
<path d="M53.1848 33.5183C52.7647 34.0685 52.4947 34.7587 53.3249 35.3788C54.1551 35.999 53.635 36.8293 51.9445 37.3194C50.254 37.7995 52.9848 38.3897 52.2246 39.1799C51.4644 39.9701 51.3943 40.2902 48.5636 40.2502C45.7328 40.2202 49.7339 41.1204 49.0437 41.7406C48.3535 42.3608 46.3529 42.2208 45.6928 42.981C45.0426 43.7412 44.4524 43.5311 44.9325 44.4914C45.4227 45.4617 45.8028 45.6317 44.9025 46.2219C44.0023 46.802 45.0426 47.5322 44.8725 48.2524C44.7025 48.9726 45.2526 49.2927 42.862 50.6031C40.4813 51.9135 41.3115 52.3636 40.6513 52.8437C40.0012 53.3239 38.7208 56.0846 36.7503 55.8446C34.7797 55.6045 33.9195 56.9149 33.1593 58.0552C32.399 59.1955 30.7086 59.5356 29.5983 59.5356C29.0881 59.5356 27.0575 59.9957 24.6969 59.0154C24.5769 58.9654 24.4468 58.9154 24.3268 58.8554C20.9758 57.265 18.9253 54.0641 14.7241 51.1533C12.9236 49.9129 7.52208 50.0329 6.72186 41.7306C6.06168 34.9987 4.03111 37.2394 3.34092 29.7473C2.72074 23.0454 3.20088 21.4249 4.44122 17.4238C5.68157 13.4227 8.10225 12.2124 6.93192 10.1718C5.34147 7.41103 3.20088 7.58108 3.10085 7.58108C3.00082 7.58108 2.52069 5.61052 3.24089 5.41047C3.24089 5.41047 5.34148 2.23958 8.35232 3.0298C11.3532 3.82002 15.5243 4.69027 17.6749 11.0821C19.8155 17.4738 20.6758 18.9142 21.9561 20.0946C23.2365 21.2649 28.0378 24.2357 31.8989 23.5455C35.77 22.8553 38.0406 21.3749 37.9406 19.8145C37.9006 19.2343 37.8606 18.3241 37.8906 17.3538C37.9206 15.7334 38.1306 13.9028 38.8408 12.9826C39.9812 11.4922 38.9409 5.59052 42.3918 5.42047C45.8428 5.25042 46.3629 7.42103 46.703 8.22125C47.0531 9.01148 48.9837 9.53162 49.8039 9.4616C50.6341 9.39158 52.4346 11.3921 51.3943 15.6333C50.3641 19.8745 52.7747 18.084 53.2249 18.6742C53.675 19.2543 52.7747 21.0949 52.3646 22.2652C51.9445 23.4355 52.9548 22.5453 53.3449 22.7753C53.735 23.0154 53.605 24.8159 51.7344 26.2663C49.8639 27.7167 52.9048 27.0265 53.735 26.8565C54.5652 26.6864 55.0854 28.1668 53.735 29.1671C52.3846 30.1674 51.8045 30.6575 53.5649 31.7578C55.3254 32.8581 53.605 32.9682 53.1848 33.5183Z" fill="#B56926"/>
<path d="M53.1847 33.5187C52.7646 34.0688 52.4945 34.759 53.3247 35.3792C54.155 35.9994 53.6348 36.8296 51.9444 37.3197C50.2539 37.7999 52.9847 38.39 52.2244 39.1803C51.4642 39.9705 51.3942 40.2906 48.5634 40.2506C45.7326 40.2206 49.7337 41.1208 49.0435 41.741C48.3534 42.3611 46.3528 42.2211 45.6926 42.9813C45.0424 43.7415 44.4523 43.5315 44.9324 44.4917C45.4225 45.462 45.8026 45.6321 44.9024 46.2222C44.0021 46.8024 45.0424 47.5326 44.8724 48.2528C44.7023 48.973 45.2525 49.2931 42.8618 50.6035C40.4812 51.9138 41.3114 52.3639 40.6512 52.8441C40.001 53.3242 38.7207 56.085 36.7501 55.8449C34.7796 55.6048 33.9193 56.9152 33.1591 58.0555C32.3989 59.1959 30.7084 59.5359 29.5981 59.5359C29.088 59.5359 27.0574 59.9961 24.6967 59.0158C25.0168 58.6057 25.3269 58.1456 25.4169 57.8055C25.597 57.0653 22.9263 56.8852 22.8362 54.5345C22.7462 52.1839 25.547 54.0744 26.8473 55.3648C28.1377 56.6551 29.3781 55.9149 30.2083 55.4548C31.0385 54.9947 30.2983 54.8046 29.7482 52.3239C29.198 49.8332 31.3986 52.1439 32.699 51.9538C33.9893 51.7738 35.1397 50.3434 35.2297 49.053C35.3197 47.7627 34.9996 47.5726 34.9996 45.282C34.9996 42.9913 37.1602 42.7012 37.3003 42.7012C37.4403 42.7012 41.8515 42.6612 41.7215 42.011C41.5815 41.3709 41.5815 41.3209 42.1816 40.4006C42.7718 39.4803 44.3923 39.1102 44.6623 38.1C44.9324 37.0897 44.2522 37.1297 44.3422 36.3495C44.4323 35.5692 46.5529 34.8691 47.7032 33.8188C48.8535 32.7585 47.8432 32.9385 46.963 32.2183C46.0827 31.4981 47.6532 30.6779 48.4334 29.4375C49.2136 28.1972 48.4834 26.7668 47.9732 26.2166C47.4731 25.6665 48.4834 24.6062 48.9435 23.2358C49.4037 21.8654 49.0836 21.9855 47.143 22.3956C45.2125 22.8157 46.5429 21.2953 45.9527 19.6348C45.3525 17.9843 44.6123 18.4445 44.1122 19.1347C43.612 19.8248 41.7215 18.9046 41.3514 17.6142C40.9813 16.3239 40.4311 16.1838 39.2308 16.924C38.6707 17.2741 38.2105 17.3542 37.8804 17.3442C37.9104 15.7237 38.1205 13.8932 38.8307 12.9729C39.971 11.4825 38.9307 5.58087 42.3817 5.41082C45.8327 5.24077 46.3528 7.41138 46.6929 8.2116C47.043 9.00182 48.9735 9.52197 49.7938 9.45195C50.624 9.38193 52.4245 11.3825 51.3842 15.6237C50.3539 19.8649 52.7646 18.0744 53.2147 18.6645C53.6648 19.2447 52.7646 21.0852 52.3545 22.2555C51.9344 23.4259 52.9446 22.5356 53.3347 22.7657C53.7249 23.0057 53.5948 24.8062 51.7243 26.2566C49.8538 27.7071 52.8946 27.0169 53.7249 26.8468C54.5551 26.6768 55.0752 28.1572 53.7249 29.1575C52.3745 30.1577 51.7943 30.6479 53.5548 31.7482C55.3153 32.8485 53.5948 32.9585 53.1747 33.5087L53.1847 33.5187Z" fill="#BC783C"/>
<mask id="mask3_278_199784" style="mask-type:luminance" maskUnits="userSpaceOnUse" x="22" y="5" width="33" height="55">
<path d="M53.1847 33.5187C52.7646 34.0688 52.4945 34.759 53.3247 35.3792C54.155 35.9994 53.6348 36.8296 51.9444 37.3197C50.2539 37.7999 52.9847 38.39 52.2244 39.1803C51.4642 39.9705 51.3942 40.2906 48.5634 40.2506C45.7326 40.2206 49.7337 41.1208 49.0435 41.741C48.3534 42.3611 46.3528 42.2211 45.6926 42.9813C45.0424 43.7415 44.4523 43.5315 44.9324 44.4917C45.4225 45.462 45.8026 45.6321 44.9024 46.2222C44.0021 46.8024 45.0424 47.5326 44.8724 48.2528C44.7023 48.973 45.2525 49.2931 42.8618 50.6035C40.4812 51.9138 41.3114 52.3639 40.6512 52.8441C40.001 53.3242 38.7207 56.085 36.7501 55.8449C34.7796 55.6048 33.9193 56.9152 33.1591 58.0555C32.3989 59.1959 30.7084 59.5359 29.5981 59.5359C29.088 59.5359 27.0574 59.9961 24.6967 59.0158C25.0168 58.6057 25.3269 58.1456 25.4169 57.8055C25.597 57.0653 22.9263 56.8852 22.8362 54.5345C22.7462 52.1839 25.547 54.0744 26.8473 55.3648C28.1377 56.6551 29.3781 55.9149 30.2083 55.4548C31.0385 54.9947 30.2983 54.8046 29.7482 52.3239C29.198 49.8332 31.3986 52.1439 32.699 51.9538C33.9893 51.7738 35.1397 50.3434 35.2297 49.053C35.3197 47.7627 34.9996 47.5726 34.9996 45.282C34.9996 42.9913 37.1602 42.7012 37.3003 42.7012C37.4403 42.7012 41.8515 42.6612 41.7215 42.011C41.5815 41.3709 41.5815 41.3209 42.1816 40.4006C42.7718 39.4803 44.3923 39.1102 44.6623 38.1C44.9324 37.0897 44.2522 37.1297 44.3422 36.3495C44.4323 35.5692 46.5529 34.8691 47.7032 33.8188C48.8535 32.7585 47.8432 32.9385 46.963 32.2183C46.0827 31.4981 47.6532 30.6779 48.4334 29.4375C49.2136 28.1972 48.4834 26.7668 47.9732 26.2166C47.4731 25.6665 48.4834 24.6062 48.9435 23.2358C49.4037 21.8654 49.0836 21.9855 47.143 22.3956C45.2125 22.8157 46.5429 21.2953 45.9527 19.6348C45.3525 17.9843 44.6123 18.4445 44.1122 19.1347C43.612 19.8248 41.7215 18.9046 41.3514 17.6142C40.9813 16.3239 40.4311 16.1838 39.2308 16.924C38.6707 17.2741 38.2105 17.3542 37.8804 17.3442C37.9104 15.7237 38.1205 13.8932 38.8307 12.9729C39.971 11.4825 38.9307 5.58087 42.3817 5.41082C45.8327 5.24077 46.3528 7.41138 46.6929 8.2116C47.043 9.00182 48.9735 9.52197 49.7938 9.45195C50.624 9.38193 52.4245 11.3825 51.3842 15.6237C50.3539 19.8649 52.7646 18.0744 53.2147 18.6645C53.6648 19.2447 52.7646 21.0852 52.3545 22.2555C51.9344 23.4259 52.9446 22.5356 53.3347 22.7657C53.7249 23.0057 53.5948 24.8062 51.7243 26.2566C49.8538 27.7071 52.8946 27.0169 53.7249 26.8468C54.5551 26.6768 55.0752 28.1572 53.7249 29.1575C52.3745 30.1577 51.7943 30.6479 53.5548 31.7482C55.3153 32.8485 53.5948 32.9585 53.1747 33.5087L53.1847 33.5187Z" fill="white"/>
</mask>
<g mask="url(#mask3_278_199784)">
<path d="M46.4228 6.12124C46.2128 5.46105 45.1625 5.74113 45.3826 6.41132C45.9027 8.01177 46.4529 9.85228 45.5126 11.4227C45.1525 12.0229 46.0928 12.563 46.4429 11.9729C47.5332 10.1424 47.033 8.02177 46.4228 6.13124V6.12124Z" fill="#6A5227"/>
<path d="M51.3642 11.5925C51.3842 12.7028 51.1841 13.7831 50.784 14.8234C50.4439 15.6737 49.9538 16.5439 49.1336 16.984C48.5234 17.3141 49.0635 18.2444 49.6837 17.9143C50.694 17.3641 51.3142 16.3439 51.7443 15.3136C52.2344 14.1332 52.4745 12.8629 52.4545 11.5925C52.4445 10.8923 51.3642 10.8923 51.3742 11.5925H51.3642Z" fill="#6A5227"/>
<path d="M53.0348 18.4644C52.8447 19.2046 52.3046 20.535 51.9745 21.2152C51.8044 21.5653 51.6244 21.9054 51.4243 22.2355C51.2643 22.4956 51.0942 22.8057 50.8442 22.9957C50.6141 23.1758 50.4941 23.4658 50.6541 23.7359C50.7842 23.966 51.1643 24.106 51.3943 23.926C52.0745 23.3958 52.5046 22.5956 52.8747 21.8354C53.2548 21.0452 53.5649 20.2149 53.785 19.3547C53.955 18.6845 53.2048 17.7943 53.0348 18.4644Z" fill="#6A5227"/>
<path d="M53.395 24.2966C53.395 24.2966 53.7451 23.9165 53.6951 23.9165C54.0252 23.2563 53.8151 22.9062 53.8451 22.146C53.8451 22.086 53.8351 22.046 53.8051 22.006C53.8751 21.6759 53.365 21.5358 53.285 21.8759C52.8148 23.8865 51.6145 25.697 49.924 26.8873C49.6539 27.0774 49.894 27.5175 50.1741 27.3674C50.2341 27.4075 50.3041 27.4275 50.3941 27.4075C51.8045 27.0174 52.6948 25.817 53.495 24.6767C53.575 24.5567 53.515 24.3766 53.395 24.3066V24.2966Z" fill="#6A5227"/>
<path d="M54.275 27.0076C54.105 27.6878 53.4948 28.528 52.9947 28.9981C52.4745 29.4883 51.9644 30.2885 51.2842 30.5386C51.1442 30.5886 51.0541 30.7186 51.0941 30.8687C51.1342 30.9987 51.2942 31.1087 51.4242 31.0587C52.1944 30.7686 52.7546 30.0184 53.3548 29.4583C53.9149 28.9281 54.5051 28.478 54.7051 27.7178C54.7952 27.3777 54.3651 26.6775 54.275 27.0176V27.0076Z" fill="#6A5227"/>
<path d="M54.9952 31.4985C55.2053 31.2185 54.7352 30.9484 54.5251 31.2285C53.5448 32.5588 51.9944 33.4491 50.3439 33.6291C50.0339 33.6591 50.0038 34.1093 50.2639 34.1593C50.2939 34.1893 50.3339 34.2193 50.384 34.2293C51.1442 34.4694 51.9144 34.2493 52.6146 33.9192C53.3348 33.5791 54.015 33.159 54.6652 32.6889C54.9452 32.4888 54.6652 32.0187 54.3951 32.2187C54.3751 32.2287 54.3551 32.2488 54.3351 32.2588C54.5751 32.0187 54.8052 31.7686 55.0052 31.4885L54.9952 31.4985Z" fill="#6A5227"/>
<path d="M53.5549 35.8794C52.9247 36.2095 52.2946 36.5396 51.6144 36.7597C51.0442 36.9497 50.254 37.1898 49.8139 36.6396C49.6038 36.3696 49.2237 36.7497 49.4338 37.0197C49.9439 37.6699 51.4943 37.6999 52.1945 37.4899C52.9948 37.2498 53.0948 36.7397 53.825 36.3496C54.1351 36.1895 53.855 35.7194 53.5549 35.8794Z" fill="#6A5227"/>
<path d="M52.9747 37.5104C52.3346 38.3306 51.4843 38.9808 50.5141 39.3609C50.0139 39.5609 49.4938 39.681 48.9636 39.741C48.3635 39.811 47.7533 39.851 47.1731 40.0411C46.843 40.1511 46.9831 40.6712 47.3132 40.5612C47.4132 40.5312 47.5232 40.5012 47.6232 40.4812C47.6633 40.5112 47.7133 40.5312 47.7833 40.5212C48.0834 40.4912 48.3935 40.4612 48.7035 40.4312C48.7035 40.5612 48.7936 40.6712 48.9636 40.6612C50.454 40.5612 52.0745 40.0511 52.7647 38.6107C52.7847 38.5707 52.7847 38.5306 52.7847 38.4906C52.9847 38.3006 53.1648 38.0905 53.3448 37.8705C53.5549 37.6004 53.1748 37.2103 52.9647 37.4904L52.9747 37.5104Z" fill="#6A5227"/>
<path d="M50.4239 41.1611C50.4639 40.9511 50.2539 40.691 50.0238 40.821C48.8635 41.5012 47.5231 41.5712 46.3028 42.0814C45.7826 42.3014 45.2825 42.5915 44.8623 43.0116C44.6123 43.2617 44.3222 43.6218 44.2622 44.0019C44.1922 44.222 44.2122 44.4621 44.3922 44.6721C44.5723 44.8822 44.8223 44.7021 44.8423 44.4821C44.8624 44.412 44.8623 44.322 44.8123 44.242C44.7823 44.192 44.7723 44.132 44.7823 44.0719C44.9324 43.7719 45.6526 43.3117 45.7726 43.2417C46.2427 42.9716 46.7629 42.8116 47.273 42.6716C48.3533 42.3915 49.4536 42.2314 50.4639 41.6813C50.694 41.5512 50.604 41.2412 50.4239 41.1511V41.1611Z" fill="#6A5227"/>
<path d="M45.412 44.8523C45.412 44.8523 45.412 44.8323 45.412 44.8223C45.402 44.6823 45.292 44.5423 45.142 44.5523C45.002 44.5523 44.862 44.6723 44.872 44.8223C44.872 44.9323 44.872 44.9723 44.842 45.0723C44.812 45.1623 44.782 45.2323 44.722 45.3223C44.672 45.4023 44.622 45.4823 44.572 45.5623C44.572 45.5623 44.532 45.6123 44.552 45.5823C44.532 45.6023 44.512 45.6223 44.502 45.6523C44.472 45.6923 44.442 45.7223 44.402 45.7523C44.282 45.8623 44.142 45.9623 44.002 46.0023C43.962 46.0123 43.922 46.0223 43.872 46.0323H43.822C43.802 46.0323 43.772 46.0323 43.752 46.0323C43.732 46.0323 43.712 46.0323 43.692 46.0323C43.692 46.0323 43.662 46.0323 43.652 46.0323C43.632 46.0323 43.602 46.0223 43.582 46.0123C43.582 46.0123 43.502 45.9823 43.542 46.0023C43.412 45.9423 43.242 45.9623 43.172 46.1023C43.112 46.2223 43.132 46.4123 43.272 46.4723C43.312 46.4923 43.352 46.5023 43.392 46.5123C43.392 46.6323 43.462 46.7423 43.582 46.7823C44.052 46.9123 44.552 46.7823 44.932 46.4723C45.362 46.1223 45.452 45.5723 45.522 45.0623C45.532 44.9723 45.482 44.9023 45.402 44.8423L45.412 44.8523Z" fill="#6A5227"/>
<path d="M45.2225 47.6027C45.2225 47.6027 45.2125 47.6227 45.2025 47.6227C45.0724 47.5227 44.8324 47.5427 44.7624 47.7528C44.6823 47.9928 44.5923 48.2529 44.5023 48.503C43.432 49.6733 42.0516 50.5535 40.5312 51.0037C40.4111 51.0437 40.3511 51.1437 40.3511 51.2537C40.3111 51.2737 40.2711 51.2837 40.2311 51.3037C39.921 51.4538 40.1911 51.9239 40.5012 51.7739C41.0113 51.5238 41.6015 51.5038 42.1516 51.4138C42.6918 51.3237 43.1919 51.1437 43.622 50.8036C44.2822 50.2835 44.6723 49.5533 44.9724 48.793C45.2325 48.503 45.4726 48.2029 45.7026 47.8828C45.9027 47.5927 45.4325 47.3226 45.2325 47.6127L45.2225 47.6027Z" fill="#6A5227"/>
</g>
<path d="M27.2676 25.5867C27.2676 25.5867 33.5694 27.9374 35.7 30.6081C37.8306 33.2889 41.6516 37.1299 40.6213 39.2805C39.5911 41.4311 36.1501 40.3008 33.5994 38.5103C33.5994 38.5103 34.4196 41.3811 31.6188 41.3411C28.818 41.3011 27.4877 40.0708 27.4877 40.0708C27.4877 40.0708 27.7577 41.9113 24.8969 41.9613C22.0361 42.0113 21.406 40.3308 21.2459 40.2808C21.0859 40.2308 20.8458 41.4211 19.9356 41.1511C19.0253 40.881 17.775 40.6009 16.9947 37.45C16.9947 37.45 14.314 40.971 12.5235 32.8988C10.733 24.8265 12.9736 28.2075 13.6838 27.7673C14.394 27.3272 23.7066 22.886 27.2876 25.5667L27.2676 25.5867Z" fill="#C77626"/>
<mask id="mask4_278_199784" style="mask-type:luminance" maskUnits="userSpaceOnUse" x="11" y="24" width="30" height="18">
<path d="M27.2676 25.5867C27.2676 25.5867 33.5694 27.9374 35.7 30.6081C37.8306 33.2889 41.6516 37.1299 40.6213 39.2805C39.5911 41.4311 36.1501 40.3008 33.5994 38.5103C33.5994 38.5103 34.4196 41.3811 31.6188 41.3411C28.818 41.3011 27.4877 40.0708 27.4877 40.0708C27.4877 40.0708 27.7577 41.9113 24.8969 41.9613C22.0361 42.0113 21.406 40.3308 21.2459 40.2808C21.0859 40.2308 20.8458 41.4211 19.9356 41.1511C19.0253 40.881 17.775 40.6009 16.9947 37.45C16.9947 37.45 14.314 40.971 12.5235 32.8988C10.733 24.8265 12.9736 28.2075 13.6838 27.7673C14.394 27.3272 23.7066 22.886 27.2876 25.5667L27.2676 25.5867Z" fill="white"/>
</mask>
<g mask="url(#mask4_278_199784)">
<path d="M43.9422 39.3607C42.1917 38.6905 40.3812 38.2203 38.5306 37.9403C38.3906 37.8102 38.2506 37.6802 38.1005 37.5502C39.4909 37.6402 40.8913 37.7802 42.2717 37.9803C42.6518 38.0303 42.7318 37.4501 42.3617 37.3901C40.7713 37.16 39.1808 37 37.5804 36.92C37.5304 36.92 37.4804 36.92 37.4403 36.95C37.3503 36.87 37.2603 36.7899 37.1703 36.6999C37.1403 36.6499 37.1102 36.5999 37.0802 36.5499C37.0302 36.4499 36.9402 36.4098 36.8502 36.3898C36.7902 36.3298 36.7401 36.2698 36.6801 36.2198C37.9505 36.2198 39.2108 36.3198 40.4512 36.5399C40.8313 36.6099 40.9113 36.0197 40.5412 35.9497C39.0708 35.6896 37.5904 35.5896 36.1 35.6296C35.9299 35.4496 35.7599 35.2695 35.5898 35.0895C36.9002 35.1895 38.2106 35.3295 39.5109 35.5496C39.891 35.6096 39.971 35.0295 39.6009 34.9594C38.0905 34.7094 36.5701 34.5293 35.0397 34.4493C35.0297 34.4493 35.0197 34.4493 34.9997 34.4493C34.9997 34.4493 34.9897 34.4393 34.9797 34.4293C34.9596 34.3593 34.9296 34.2892 34.9096 34.2192C34.8996 34.1792 34.8696 34.1592 34.8396 34.1292C36.23 34.2192 37.6104 34.3593 38.9808 34.5593C39.3609 34.6193 39.4409 34.0292 39.0708 33.9692C37.4503 33.7291 35.8199 33.569 34.1794 33.479C34.1494 33.439 34.1194 33.399 34.0794 33.359C35.5998 33.369 37.1202 33.439 38.6307 33.579C39.0108 33.6191 39.1008 33.0289 38.7207 32.9889C37.0202 32.8288 35.3197 32.7488 33.6193 32.7488C33.5493 32.6588 33.4992 32.5688 33.4292 32.4787C34.9997 32.4987 36.5601 32.6288 38.1105 32.8488C38.4906 32.8989 38.5707 32.3187 38.2006 32.2587C38.0805 32.2387 37.9605 32.2287 37.8405 32.2087C37.8805 32.0786 37.8404 31.9286 37.6804 31.8586C36.06 31.1484 34.3095 30.8083 32.539 30.8683C32.509 30.8683 32.489 30.8783 32.4689 30.8883C32.4389 30.8183 32.3989 30.7583 32.3689 30.6882C32.2089 30.3481 31.6487 30.5682 31.8188 30.9183C32.0388 31.3884 32.2989 31.8386 32.579 32.2687C32.9391 35.3395 33.9494 38.3004 35.5298 40.9511C35.7199 41.2812 36.2 40.9111 35.9999 40.591C34.6796 38.3604 33.7793 35.8997 33.3392 33.349C33.6893 33.8191 34.0694 34.2692 34.4595 34.7094C34.8996 35.9997 35.3598 37.2701 35.8699 38.5304C36.34 39.6808 36.8402 40.8511 37.7204 41.7513C37.9805 42.0214 38.4606 41.6613 38.1905 41.3912C37.3103 40.491 36.8302 39.3207 36.37 38.1603C36.06 37.3801 35.7599 36.5899 35.4798 35.7997C35.5698 35.8997 35.6598 35.9897 35.7499 36.0898C36.06 36.4098 36.38 36.7199 36.7001 37.03C37.6004 38.6805 38.6907 40.2209 39.961 41.5913C40.2211 41.8714 40.6912 41.5113 40.4312 41.2312C39.641 40.3809 38.9208 39.4607 38.2806 38.5004C39.0508 39.1806 39.851 39.8408 40.6712 40.471C40.9713 40.701 41.3414 40.2309 41.0313 40.0008C40.4712 39.5707 39.931 39.1306 39.4009 38.6705C40.8713 38.9505 42.3217 39.3407 43.7221 39.8808C44.0822 40.0208 44.3123 39.4707 43.9522 39.3307L43.9422 39.3607ZM33.0691 31.9186C33.0691 31.9186 33.0191 31.8686 32.9891 31.8486C32.9091 31.7285 32.8391 31.5985 32.769 31.4785C34.0494 31.4585 35.3197 31.6685 36.5201 32.0786C35.3998 31.9686 34.2695 31.9086 33.1391 31.8986C33.1091 31.8986 33.0891 31.9086 33.0691 31.9186Z" fill="#C18149"/>
<path d="M34.9095 41.7617C33.9492 41.1415 33.059 40.4313 32.2487 39.6411C32.9789 39.9412 33.7191 40.2313 34.4694 40.4813C34.6194 40.5314 34.7894 40.4813 34.8595 40.3213C34.9195 40.1813 34.8595 39.9812 34.6994 39.9312C34.5194 39.8712 34.3393 39.8012 34.1593 39.7311C34.3493 39.7311 34.5394 39.5511 34.4293 39.331C34.4093 39.291 34.3893 39.251 34.3693 39.211C34.3693 39.111 34.3293 39.0209 34.2493 38.9609C34.1493 38.7409 34.0392 38.5208 33.9292 38.3107C33.9492 38.2007 33.9092 38.0807 33.7892 38.0207C33.069 36.5903 32.2887 35.1999 31.4385 33.8395C31.2385 33.5194 30.7683 33.8795 30.9684 34.1996C31.4485 34.9698 31.9086 35.76 32.3488 36.5602L28.7778 35.0198C28.6877 34.8498 28.5977 34.6697 28.5177 34.4897C29.3679 34.7797 30.2082 35.0898 31.0284 35.4599C31.3785 35.62 31.6086 35.0698 31.2585 34.9098C31.0584 34.8198 30.8483 34.7397 30.6483 34.6597C30.7183 34.6297 30.7783 34.5797 30.8083 34.4997C30.8683 34.3596 30.8083 34.1696 30.6483 34.1096L28.0676 33.1293C28.0676 33.1293 27.9675 33.1093 27.9175 33.1193C27.7375 32.6592 27.5674 32.189 27.4174 31.7089C27.3074 31.3388 26.7572 31.5688 26.8672 31.939C26.9072 32.079 26.9573 32.219 27.0073 32.3591C26.9773 32.3891 26.9473 32.4191 26.9272 32.4691C26.4171 33.8295 26.037 35.2399 25.7669 36.6703C25.6269 36.4402 25.4768 36.2001 25.3468 35.9601C25.4368 35.9301 25.5069 35.86 25.5269 35.74C25.7269 34.5497 25.997 33.3794 26.3571 32.219C26.4071 32.069 26.3571 31.8989 26.197 31.8289C26.057 31.7689 25.8569 31.8289 25.8069 31.989C25.4668 33.0793 25.2068 34.1896 25.0067 35.3199C24.8867 35.0798 24.7666 34.8498 24.6666 34.5997C24.7566 33.4994 25.0367 32.4391 25.5269 31.4488C25.6969 31.1087 25.1467 30.8787 24.9767 31.2188C24.6266 31.9289 24.3765 32.6892 24.2265 33.4594C24.2065 33.3894 24.1765 33.3293 24.1565 33.2693C24.0364 32.9092 23.4863 33.1393 23.6063 33.4994C23.7364 33.9195 23.8964 34.3196 24.0664 34.7197C24.0664 34.7797 24.0564 34.8498 24.0464 34.9098C24.0464 35.0698 24.1265 35.2199 24.2965 35.2499C24.2965 35.2499 24.3065 35.2499 24.3165 35.2499C24.3565 35.3399 24.4165 35.4299 24.4566 35.52C24.3165 35.4999 24.1765 35.4799 24.0364 35.4499C24.0364 35.4499 24.0364 35.4499 24.0264 35.4499C24.0264 35.4499 24.0164 35.4499 24.0064 35.4499C23.9764 35.4499 23.9564 35.4299 23.9264 35.4199C23.8764 35.3999 23.8364 35.3899 23.7864 35.3699C23.6863 35.3299 23.5763 35.2799 23.4763 35.2299C23.4563 35.2199 23.4363 35.2199 23.4063 35.2099C23.2062 34.7998 22.9961 34.3896 22.8061 33.9695C22.6461 33.6194 22.0959 33.8495 22.2559 34.1996C22.496 34.7197 22.7461 35.2299 22.9961 35.74C22.9061 35.77 22.8261 35.84 22.7961 35.9601C22.376 37.7806 22.1959 39.6311 22.1959 41.4916C21.9359 40.9615 21.6958 40.4313 21.4857 39.8812C21.5057 38.3908 21.8158 36.9203 22.396 35.54C22.546 35.1899 21.9959 34.9498 21.8458 35.3099C21.4257 36.3102 21.1456 37.3605 21.0056 38.4308C20.7155 37.4005 20.5155 36.3502 20.4254 35.2799C20.3954 34.8998 19.8053 34.9698 19.8353 35.3499C19.8353 35.3799 19.8353 35.3999 19.8353 35.4299C19.8153 35.4099 19.7953 35.3899 19.7652 35.3799C19.5052 35.2699 19.2551 35.1498 19.015 35.0098C18.965 34.9798 18.905 34.9398 18.855 34.9098C18.825 34.6997 18.805 34.4897 18.775 34.2796C19.1051 34.5097 19.4352 34.7497 19.7352 35.0198C19.8553 35.1298 20.0653 35.0898 20.1554 34.9698C20.2554 34.8298 20.2254 34.6697 20.1053 34.5497C19.7452 34.2196 19.3651 33.9295 18.955 33.6694C18.885 33.6294 18.815 33.5994 18.735 33.6094C18.715 33.6094 18.705 33.6194 18.6849 33.6294C18.5549 33.3894 18.1048 33.4794 18.1248 33.8195C18.1248 33.9095 18.1448 33.9895 18.1548 34.0796C18.0748 34.0896 17.9948 34.1396 17.9647 34.2496C17.5946 35.3199 17.3946 36.4302 17.3546 37.5505C17.1545 36.4102 17.0845 35.2499 17.1645 34.0996C17.1845 33.7195 16.6044 33.6294 16.5744 34.0095C16.5744 34.0495 16.5744 34.0896 16.5744 34.1196C16.0642 33.5294 15.474 33.0293 14.8139 32.6191C14.8139 32.5291 14.7839 32.4491 14.7038 32.3891C14.7038 32.3891 14.6838 32.3891 14.6738 32.3791C14.6738 32.289 14.6738 32.209 14.6838 32.119C14.6838 32.099 14.6838 32.089 14.6838 32.079C14.7739 32.149 14.8639 32.219 14.9439 32.279L15.7341 32.8892C15.7841 32.9292 15.8842 32.9292 15.9442 32.9192C16.0042 32.8992 16.0742 32.8492 16.1042 32.7992C16.1342 32.7392 16.1542 32.6592 16.1342 32.5891C16.1142 32.5191 16.0642 32.4691 16.0142 32.4291C15.8041 32.269 15.5941 32.109 15.384 31.949C15.284 31.8689 15.174 31.7889 15.0739 31.7089C15.0239 31.6689 14.9739 31.6289 14.9239 31.5889C14.9239 31.5889 14.9139 31.5889 14.9039 31.5789C14.8739 31.4788 14.7939 31.3988 14.6938 31.3888C14.7138 31.1787 14.7338 30.9587 14.7538 30.7486H14.7739C14.7839 30.7486 14.7939 30.7486 14.8039 30.7586C14.8339 30.7686 14.8539 30.7786 14.8839 30.7986C14.9839 30.8486 15.0839 30.8987 15.184 30.9587C15.224 30.9887 15.274 31.0187 15.314 31.0487C15.334 31.0687 15.364 31.0787 15.384 31.0987C15.384 31.0987 15.404 31.1087 15.414 31.1187C15.5041 31.1887 15.5941 31.2688 15.6741 31.3488C15.7741 31.4488 15.9542 31.4588 16.0542 31.3488C16.1542 31.2388 16.1642 31.0687 16.0542 30.9687C15.6941 30.6186 15.264 30.3585 14.7939 30.1885L14.8239 29.8884C14.8239 29.8084 14.7839 29.7283 14.7138 29.6783C14.8039 29.3882 14.3837 29.1582 14.2337 29.4483C13.9636 29.9784 13.5535 30.4085 13.1234 30.8186C12.9133 31.0287 12.6933 31.2288 12.4932 31.4388C12.2732 31.6689 11.9831 31.9289 11.9631 32.269C11.9431 32.6191 12.4832 32.6191 12.5032 32.269C12.5032 32.239 12.5532 32.199 12.5732 32.169C12.6132 32.119 12.6633 32.059 12.7133 32.009C12.8133 31.8989 12.9133 31.7889 13.0134 31.6889C13.2134 31.4788 13.4335 31.2888 13.6335 31.0787C13.8436 30.8687 14.0436 30.6586 14.2337 30.4285C14.1937 30.8286 14.1637 31.2388 14.1237 31.6389C13.7136 31.8689 13.3234 32.129 12.9533 32.4291C12.7333 32.5991 12.5332 32.7892 12.3332 32.9892C12.2431 33.0793 12.1231 33.1793 12.0531 33.2893C11.9531 33.4594 11.9831 33.6694 12.1631 33.7695C12.3732 33.8895 12.5532 33.7094 12.5632 33.5294C12.6032 33.4894 12.6433 33.4494 12.6833 33.4094C12.7633 33.3193 12.8533 33.2393 12.9433 33.1593C13.1034 33.0093 13.2734 32.8592 13.4535 32.7292C13.6435 32.5791 13.8536 32.4391 14.0537 32.3091C14.0537 32.3191 14.0537 32.3291 14.0537 32.3391C14.0537 32.3691 14.0537 32.3991 14.0637 32.4191C14.0637 32.5491 14.0436 32.6892 14.0436 32.8192C13.8136 33.1793 13.5735 33.5394 13.3635 33.9095C13.2234 34.1496 13.0834 34.3896 12.9533 34.6397C12.8133 34.8998 12.6733 35.1999 12.8833 35.4699C13.1134 35.76 13.5535 35.4299 13.3735 35.1398C13.3735 35.1398 13.3735 35.1398 13.3735 35.1298C13.4035 35.0898 13.4235 35.0298 13.4435 34.9798C13.5035 34.8698 13.5635 34.7597 13.6235 34.6597C13.7336 34.4597 13.8536 34.2596 13.9636 34.0595C13.9836 34.0295 14.0036 33.9995 14.0236 33.9595C14.0236 34.0295 14.0236 34.0996 14.0236 34.1696C13.9336 34.1796 13.8536 34.2296 13.8136 34.3396C13.3535 35.58 12.9233 36.8703 13.0734 38.2107C13.1134 38.5908 13.7036 38.5208 13.6635 38.1407C13.5635 37.1904 13.7836 36.2602 14.0837 35.3599C14.1137 35.69 14.1537 36.0101 14.1937 36.3402C14.0837 36.4002 14.0336 36.5102 14.0336 36.6403C14.0637 37.3705 14.0336 38.1007 13.9636 38.8309C13.9436 38.9909 14.0537 39.141 14.2137 39.171C14.3637 39.191 14.5338 39.0809 14.5538 38.9209C14.5638 38.7809 14.5738 38.6408 14.5838 38.5108C14.7739 39.341 15.0139 40.1512 15.314 40.9515C15.444 41.3116 15.9942 41.0815 15.8642 40.7214C15.464 39.6511 15.164 38.5608 14.9539 37.4405C15.294 37.8906 15.6341 38.3507 15.9342 38.8209C16.0242 38.9609 16.2343 38.9709 16.3543 38.8809C16.4943 38.7809 16.4943 38.6008 16.4143 38.4608C15.9142 37.6906 15.374 36.9504 14.7739 36.2602C14.7538 36.1001 14.7438 35.9301 14.7238 35.77C15.284 36.3702 15.8241 36.9804 16.3343 37.6305C16.4543 37.7906 16.6444 37.7606 16.7644 37.6606C16.9445 38.7208 17.2345 39.7611 17.6347 40.7714C17.7647 41.0915 18.2248 40.9315 18.2048 40.6414C18.2248 40.5914 18.2448 40.5414 18.2248 40.4613C17.8147 38.7309 17.8347 36.9203 18.2948 35.2099C18.3549 35.58 18.4149 35.9401 18.4949 36.3102C18.4949 36.3302 18.4749 36.3502 18.4749 36.3702C18.3849 37.3305 18.3549 38.2907 18.3749 39.251C18.3849 39.7211 18.4149 40.2013 18.4549 40.6714C18.4949 41.1115 18.5849 41.5216 18.825 41.8917C19.035 42.2118 19.5052 41.8517 19.2951 41.5316C19.0651 41.1915 19.055 40.7514 19.025 40.3513C18.995 39.9312 18.965 39.5011 18.955 39.0809C18.955 38.7909 18.955 38.5008 18.955 38.2007C18.995 38.3407 19.045 38.4808 19.0951 38.6108C19.3451 39.9312 19.7352 41.2215 20.2754 42.4619C20.3854 42.702 20.6755 42.672 20.7955 42.5119C20.8055 42.5419 20.8255 42.5619 20.8355 42.5919C21.0256 42.922 21.5758 42.692 21.3857 42.3619C20.7355 41.2315 20.2054 40.0412 19.7853 38.8109C20.0653 39.0009 20.3654 39.181 20.6555 39.351C20.7355 39.5811 20.8055 39.8012 20.8856 40.0312C20.8856 40.4013 20.8856 40.7814 20.9256 41.1515C20.9456 41.4316 21.2657 41.4616 21.4257 41.3116C21.7558 42.0218 22.1359 42.712 22.556 43.3821C22.7661 43.7022 23.2362 43.3421 23.0262 43.022C22.9061 42.832 22.7961 42.6419 22.6861 42.4519C22.7461 42.3919 22.7861 42.3219 22.7861 42.2218C22.7161 40.2813 22.9061 38.3307 23.3162 36.4302C23.3763 36.5402 23.4363 36.6503 23.4963 36.7603C23.3562 38.7509 23.4063 40.7414 23.6763 42.722C23.7264 43.1021 24.3165 43.0321 24.2665 42.6519C24.0464 41.0215 23.9664 39.381 24.0264 37.7406C24.0564 37.8006 24.0965 37.8606 24.1365 37.9206C24.2865 38.7609 24.4366 39.6011 24.5866 40.4413C24.7366 41.2716 24.9267 42.1018 25.3868 42.822C25.5869 43.1421 26.067 42.782 25.8569 42.4619C25.4268 41.7817 25.2868 40.9715 25.1468 40.1813C25.0967 39.8912 25.0467 39.6011 24.9867 39.311C25.2168 39.6711 25.4568 40.0212 25.7069 40.3613C25.5869 40.4113 25.5069 40.5314 25.5269 40.6614C25.6669 41.3916 25.907 42.1018 26.2571 42.772C26.3271 42.912 26.4871 43.002 26.6472 42.932C26.7872 42.872 26.8772 42.682 26.8072 42.5419C26.5571 42.0618 26.3671 41.5516 26.2271 41.0315C26.9272 41.9317 27.6975 42.792 28.5477 43.5722C28.8278 43.8323 29.1979 43.3621 28.9078 43.1021C28.1376 42.4119 27.4474 41.6517 26.8072 40.8514C27.2573 41.0315 27.6975 41.2115 28.1276 41.4216C28.2676 41.4916 28.4677 41.4116 28.5177 41.2616C28.5177 41.2416 28.5177 41.2215 28.5277 41.2015C28.7378 41.4216 28.9578 41.6417 29.1679 41.8617C29.1679 41.9417 29.1579 42.0318 29.1479 42.1118C29.1279 42.4719 29.668 42.5619 29.728 42.2418C29.9081 42.1718 30.0281 41.8917 29.8381 41.7117C29.8181 41.6917 29.7981 41.6617 29.768 41.6417C29.8281 40.4913 29.9281 39.331 30.0581 38.1907C30.2482 38.4308 30.4582 38.6608 30.6583 38.9009C30.6483 38.9409 30.6383 38.9809 30.6383 39.0309C30.7283 40.2513 30.9484 41.4516 31.2685 42.6319C31.3085 42.782 31.5185 42.852 31.6586 42.792C31.8186 42.722 31.8586 42.5619 31.8186 42.4019C31.5685 41.4816 31.3885 40.5414 31.2885 39.6011C31.5085 39.8312 31.7286 40.0412 31.9487 40.2613C31.8586 40.3413 31.7986 40.4813 31.8586 40.6014C32.1287 41.1015 32.3588 41.6117 32.5488 42.1418C32.5988 42.2918 32.7989 42.3719 32.9389 42.3019C33.089 42.2318 33.159 42.0718 33.099 41.9117C32.9789 41.5716 32.8289 41.2516 32.6789 40.9215C33.259 41.4116 33.8592 41.8717 34.4994 42.2818C34.8195 42.4919 35.1896 42.0218 34.8595 41.8117L34.9095 41.7617ZM14.6338 33.1793C14.6938 33.2193 14.7538 33.2593 14.8039 33.2993C14.9739 33.4194 15.144 33.5494 15.304 33.6794C15.6341 33.9595 15.8842 34.2096 16.1642 34.5397C16.2543 34.6497 16.4143 34.6897 16.5443 34.6197C16.5443 34.9198 16.5443 35.2199 16.5443 35.52C15.9642 34.8298 15.354 34.1696 14.7138 33.5294C14.6838 33.4994 14.6538 33.4894 14.6238 33.4794C14.6238 33.3794 14.6338 33.2793 14.6338 33.1793ZM14.6638 34.7897C14.6638 34.7897 14.6638 34.7897 14.6538 34.7897C14.6538 34.6297 14.6538 34.4697 14.6438 34.3096C15.194 34.8798 15.7341 35.4599 16.2443 36.0701C16.3343 36.1701 16.4743 36.2101 16.5944 36.1601C16.6144 36.4702 16.6444 36.7803 16.6944 37.0904C16.0642 36.3002 15.394 35.53 14.6738 34.8098L14.6638 34.7897ZM19.0851 36.1301C19.055 35.9701 19.025 35.81 18.995 35.65C19.1751 35.75 19.3651 35.84 19.5552 35.9101C19.6752 35.9601 19.8253 35.9101 19.9053 35.82C19.9353 36.1001 19.9753 36.3802 20.0253 36.6603C19.7552 36.5002 19.4752 36.3402 19.2051 36.1801C19.1651 36.1601 19.1251 36.1401 19.0851 36.1301ZM20.2454 38.3407C19.9953 38.1807 19.7652 38.0006 19.5452 37.7906C19.5252 37.7706 19.5052 37.7706 19.4852 37.7606C19.4051 37.4705 19.3251 37.1804 19.2551 36.8903C19.4552 37.0104 19.6552 37.1304 19.8653 37.2504C19.9353 37.2905 19.9953 37.3205 20.0853 37.3105C20.1053 37.3105 20.1253 37.3004 20.1454 37.2904C20.2254 37.6806 20.3154 38.0707 20.4254 38.4508C20.3654 38.4108 20.3054 38.3808 20.2554 38.3407H20.2454ZM26.2871 37.1504C26.5171 35.81 26.8672 34.4897 27.3174 33.2093C27.4174 33.4594 27.5074 33.7094 27.6174 33.9595C27.6174 34.0195 27.6374 34.0796 27.6675 34.1396C27.5974 35.55 27.0973 36.8803 26.8772 38.2707C26.6472 37.9606 26.4171 37.6506 26.197 37.3205C26.2471 37.2804 26.2771 37.2304 26.2971 37.1504H26.2871ZM24.0865 36.1401C24.0865 36.1401 24.0264 36.0601 23.9764 36.0301C24.1765 36.0801 24.3865 36.1101 24.5866 36.1201C24.6466 36.1201 24.6966 36.1201 24.7566 36.0901C24.8167 36.1901 24.8667 36.3002 24.9267 36.4102C24.8767 36.4002 24.8267 36.3902 24.7766 36.3802C24.5866 36.3202 24.4065 36.2502 24.2365 36.1601C24.1965 36.1401 24.1365 36.1401 24.0765 36.1401H24.0865ZM24.5366 37.2904C24.5366 37.2904 24.5066 37.2904 24.4966 37.2904C24.4065 37.1304 24.3165 36.9704 24.2265 36.8003C24.5066 36.9303 24.8067 37.0204 25.1167 37.0504C25.1768 37.0504 25.2368 37.0404 25.2968 37.0104C25.4368 37.2304 25.5569 37.4505 25.7069 37.6606C25.3168 37.5605 24.9267 37.4405 24.5366 37.3005V37.2904ZM25.3368 38.6808C25.2068 38.4708 25.0867 38.2707 24.9567 38.0607C25.3768 38.1907 25.7969 38.3107 26.2271 38.4008C26.3871 38.6208 26.5471 38.8409 26.7272 39.0609C26.2771 38.9009 25.8169 38.7709 25.3368 38.6808ZM27.9675 40.6314C27.4774 40.4113 26.9873 40.2013 26.4871 40.0212C26.4071 39.9912 26.3271 40.0012 26.2471 40.0212C26.097 39.8112 25.947 39.5911 25.7969 39.371C26.2171 39.4811 26.6272 39.6111 27.0473 39.7911C27.1273 39.8312 27.2273 39.8112 27.3074 39.7711C27.5274 40.0312 27.7475 40.2813 27.9675 40.5314C27.9675 40.5614 27.9675 40.5914 27.9675 40.6214V40.6314ZM28.0576 39.7111C27.7975 39.401 27.5274 39.101 27.2673 38.7909C27.3374 38.7509 27.3974 38.6908 27.4174 38.5808C27.5674 37.5005 27.8975 36.4602 28.0976 35.3899C28.0976 35.3899 28.0976 35.3899 28.1176 35.3999C28.1976 35.4299 28.2676 35.4599 28.3476 35.4999C28.4477 35.69 28.5577 35.8701 28.6677 36.0501C28.3877 37.2604 28.1876 38.4808 28.0576 39.7111ZM29.558 37.5405C29.4179 38.6908 29.3179 39.8512 29.2479 41.0215C29.0278 40.7914 28.8078 40.5714 28.5877 40.3413C28.6977 39.151 28.8678 37.9606 29.1079 36.7903C29.2579 37.0204 29.4179 37.2504 29.578 37.4705C29.578 37.4905 29.558 37.5205 29.548 37.5505L29.558 37.5405ZM29.448 36.1201C29.448 36.1201 29.4079 36.1201 29.3879 36.1101C29.3479 36.0401 29.3079 35.9701 29.2679 35.9001C30.2482 36.3202 31.2284 36.7403 32.1987 37.1604C32.3688 37.2404 32.5188 37.1404 32.5788 37.0004C32.6989 37.2204 32.8089 37.4405 32.9289 37.6706C31.7586 37.1904 30.5883 36.6803 29.448 36.1301V36.1201ZM30.2782 37.3505C30.2782 37.3505 30.2482 37.3505 30.2282 37.3405C30.1582 37.2404 30.0881 37.1404 30.0081 37.0304C31.1084 37.5405 32.2187 38.0307 33.349 38.4808C33.3791 38.5508 33.4191 38.6208 33.4491 38.6908C32.3588 38.3207 31.2985 37.8706 30.2782 37.3505ZM31.7886 38.8109C31.6686 38.7609 31.5585 38.7909 31.4885 38.8609C31.3485 38.7108 31.2084 38.5408 31.0784 38.3808C31.9687 38.7809 32.8889 39.131 33.8192 39.421C33.8392 39.4711 33.8692 39.5111 33.8892 39.5611C33.9092 39.6011 33.9292 39.6311 33.9592 39.6611C33.229 39.401 32.5088 39.121 31.7986 38.8009L31.7886 38.8109Z" fill="#C18149"/>
<path d="M14.453 28.5974C14.383 28.4774 14.203 28.4174 14.083 28.4974C13.573 28.8274 13.083 29.1874 12.613 29.5774C12.383 29.7674 12.163 29.9574 11.953 30.1574C11.843 30.2574 11.703 30.3674 11.673 30.5174C11.623 30.7174 11.793 30.9374 12.003 30.9274C12.153 30.9174 12.273 30.8074 12.273 30.6574C12.273 30.6374 12.273 30.6274 12.273 30.6074C12.313 30.5674 12.353 30.5274 12.393 30.4974C12.483 30.4174 12.573 30.3374 12.653 30.2574C12.833 30.0974 13.023 29.9374 13.213 29.7874C13.583 29.4974 13.963 29.2174 14.363 28.9574C14.483 28.8774 14.533 28.7174 14.463 28.5874L14.453 28.5974Z" fill="#C97C2E"/>
<path d="M13.203 27.5475C13.103 27.4475 12.923 27.4375 12.823 27.5475C12.293 28.1175 11.823 28.7575 11.443 29.4375C11.373 29.5675 11.413 29.7375 11.543 29.8075C11.663 29.8775 11.843 29.8375 11.913 29.7075C12.273 29.0575 12.703 28.4675 13.213 27.9275C13.313 27.8175 13.323 27.6475 13.213 27.5475H13.203Z" fill="#C97C2E"/>
</g>
<g style="mix-blend-mode:multiply" opacity="0.24">
<path d="M3.70112 41.501C3.70112 41.501 7.34214 42.1211 9.07262 44.6118C10.8031 47.1025 11.7634 44.1317 14.1741 46.7524C16.5847 49.3732 18.1452 51.4137 20.6659 51.2037C23.1866 50.9936 29.3483 53.4843 31.2988 54.0045C33.5695 54.6046 35.62 52.8041 37.7206 51.9139C40.9315 50.5435 43.8824 49.5532 44.9727 48.803C46.7632 47.5627 38.7109 60.9064 38.7109 60.9064L17.635 59.2459L2.58081 43.3015L3.70112 41.511V41.501Z" fill="#8E6EE6"/>
</g>
<path d="M14.9042 30.5773C14.9042 30.5773 15.1643 34.2184 16.8948 34.8785C18.6252 35.5387 18.8553 32.798 19.4255 33.1081C19.9956 33.4181 19.1854 33.9383 20.1257 35.6188C21.0659 37.2992 24.4169 35.9589 24.0768 34.8185C23.7367 33.6782 23.1965 30.5673 25.7572 32.0878C28.3179 33.6082 31.0387 36.1289 32.2991 34.2484C33.5594 32.3678 31.2788 30.9575 32.8492 30.6974C34.4197 30.4373 35.72 31.9477 36.5402 30.5874C37.3605 29.227 37.2104 28.8969 35.4699 28.1567C33.7295 27.4165 31.1487 26.8963 31.7089 26.1761C32.2691 25.4559 28.2679 24.0755 25.9773 24.4056C23.6867 24.7357 14.4041 28.2167 14.8942 30.5773H14.9042Z" fill="#CE8740"/>
<path d="M23.1965 20.6951C23.1965 20.6951 25.6772 22.5956 26.9276 22.8657C28.1779 23.1358 25.8873 25.7965 24.6869 25.7265C23.4866 25.6565 23.1365 25.2464 22.4063 26.6568C21.6761 28.0672 21.8862 29.1375 20.6758 28.9674C19.4655 28.7974 19.5055 27.3069 18.0151 28.3772C16.5247 29.4475 16.2246 30.0677 15.1143 30.3078C14.004 30.5479 13.0737 30.2378 12.3535 29.5176C11.6333 28.7974 12.2835 26.6868 10.2829 27.9971C8.28235 29.3075 8.28235 30.1377 7.48213 28.9274C6.6819 27.7171 6.34181 26.8868 6.07173 25.5765C5.80166 24.2661 5.14147 24.1161 4.45128 23.2258C3.76109 22.3356 6.21177 19.7048 6.80194 20.265C7.3921 20.8251 23.1965 20.6751 23.1965 20.6751V20.6951Z" fill="#BB7537"/>
<path d="M4.21112 18.3838C4.21112 18.3838 2.45063 20.7344 3.00078 22.2549C3.55094 23.7753 4.54121 24.6555 5.13138 23.4752C5.72154 22.2949 6.86186 22.1748 7.17195 23.4752C7.48203 24.7756 8.0722 26.5361 9.03247 26.266C9.99273 25.9959 9.75267 24.5355 10.6529 25.0957C11.5532 25.6558 11.7532 27.2663 12.6235 27.9265C13.4937 28.5866 14.9041 27.5163 15.9044 26.306C16.9047 25.0957 17.5248 25.3757 18.3551 26.0959C19.1853 26.8161 20.6357 26.8161 20.8758 25.4358C21.1158 24.0554 20.2556 23.1251 21.636 22.9551C23.0164 22.785 24.0067 23.2952 24.1167 22.2349C24.2367 21.1746 24.5168 20.7745 21.806 19.3741C19.8855 18.3738 13.9038 20.6144 12.1733 20.4144C10.4429 20.2143 4.20112 18.4138 4.20112 18.4138L4.21112 18.3838Z" fill="#CE8740"/>
<path d="M13.4939 5.70117C13.4939 5.70117 15.0144 6.25133 15.9146 7.25161C16.8149 8.25188 20.1558 16.5242 21.0961 17.3544C22.0363 18.1847 21.6162 20.9754 20.2658 20.6654C18.9155 20.3553 17.4851 20.5953 17.5451 21.1455C17.6051 21.6956 17.365 24.1463 15.9446 23.2861C14.5242 22.4258 12.3236 21.8357 11.5234 22.4959C10.7232 23.1561 7.38223 22.2858 7.97239 20.9754C8.56256 19.6651 6.12188 19.5951 5.17161 20.0452C4.22134 20.4953 2.75093 19.9051 3.57116 18.2147C4.39139 16.5242 6.80207 13.6934 6.61201 12.0329C6.42196 10.3725 7.87236 8.99209 7.87236 8.99209L13.5039 5.70117H13.4939Z" fill="#E3B463"/>
<mask id="mask5_278_199784" style="mask-type:luminance" maskUnits="userSpaceOnUse" x="3" y="5" width="19" height="19">
<path d="M13.4939 5.70117C13.4939 5.70117 15.0144 6.25133 15.9146 7.25161C16.8149 8.25188 20.1558 16.5242 21.0961 17.3544C22.0363 18.1847 21.6162 20.9754 20.2658 20.6654C18.9155 20.3553 17.4851 20.5953 17.5451 21.1455C17.6051 21.6956 17.365 24.1463 15.9446 23.2861C14.5242 22.4258 12.3236 21.8357 11.5234 22.4959C10.7232 23.1561 7.38223 22.2858 7.97239 20.9754C8.56256 19.6651 6.12188 19.5951 5.17161 20.0452C4.22134 20.4953 2.75093 19.9051 3.57116 18.2147C4.39139 16.5242 6.80207 13.6934 6.61201 12.0329C6.42196 10.3725 7.87236 8.99209 7.87236 8.99209L13.5039 5.70117H13.4939Z" fill="white"/>
</mask>
<g mask="url(#mask5_278_199784)">
<path d="M7.36199 13.3029C7.33199 13.2429 7.26199 13.1929 7.20199 13.1829C7.13199 13.1629 7.05199 13.1729 6.99199 13.2129C6.93199 13.2529 6.88199 13.3029 6.87199 13.3729C6.85199 13.4629 6.82199 13.5529 6.79199 13.6429C6.74199 13.7429 6.69199 13.8429 6.62199 13.9329C6.57199 13.9929 6.54199 14.0529 6.54199 14.1229C6.54199 14.1929 6.57199 14.2729 6.62199 14.3129C6.67199 14.3629 6.74199 14.3929 6.81199 14.3929C6.88199 14.3929 6.96199 14.3629 7.00199 14.3129C7.20199 14.0829 7.34199 13.8029 7.39199 13.5029C7.40199 13.4329 7.40199 13.3629 7.36199 13.2929V13.3029Z" fill="#C18149"/>
<path d="M8.46216 13.6232C8.34216 13.5532 8.16216 13.5832 8.09216 13.7232C7.92216 14.0432 7.80216 14.3932 7.73216 14.7532C7.70216 14.8932 7.77216 15.0532 7.92216 15.0832C8.05216 15.1132 8.22216 15.0432 8.25216 14.8932C8.28216 14.7332 8.33216 14.5632 8.38216 14.4132C8.39216 14.3732 8.41216 14.3332 8.42216 14.2932C8.42216 14.2732 8.43216 14.2532 8.44216 14.2332C8.44216 14.2332 8.44216 14.2132 8.45216 14.2032C8.45216 14.1932 8.45216 14.1832 8.46216 14.1732C8.46216 14.1532 8.48216 14.1332 8.49216 14.1132C8.51216 14.0732 8.53216 14.0332 8.55216 13.9932C8.61216 13.8632 8.59216 13.6932 8.45216 13.6232H8.46216Z" fill="#C18149"/>
<path d="M9.62245 14.6934C9.62245 14.6934 9.63245 14.6034 9.64245 14.5634C9.67245 14.4234 9.60245 14.2634 9.45245 14.2334C9.31245 14.2034 9.15245 14.2734 9.12245 14.4234C9.05245 14.7434 9.05245 15.0734 9.12245 15.3934C9.15245 15.5334 9.32245 15.6234 9.45245 15.5834C9.60245 15.5334 9.67245 15.4034 9.64245 15.2534C9.64245 15.2234 9.63245 15.1934 9.62245 15.1634C9.60245 15.0134 9.60245 14.8534 9.62245 14.7034V14.6934Z" fill="#C18149"/>
<path d="M11.113 15.3935C11.073 15.3035 11.043 15.2135 11.023 15.1235C11.013 15.0735 11.003 15.0335 10.993 14.9835C10.993 14.9835 10.993 14.9635 10.993 14.9535C10.993 14.9335 10.993 14.9135 10.993 14.8935C10.993 14.8035 10.993 14.7035 10.993 14.6135C10.993 14.5935 10.993 14.5735 10.993 14.5535C10.993 14.5535 10.993 14.5435 10.993 14.5335C10.993 14.4835 11.013 14.4435 11.023 14.3935C11.053 14.2535 10.983 14.0935 10.833 14.0635C10.693 14.0335 10.533 14.1035 10.503 14.2535C10.403 14.6835 10.423 15.1435 10.593 15.5435C10.623 15.6135 10.653 15.6635 10.713 15.7035C10.773 15.7335 10.853 15.7535 10.923 15.7335C11.043 15.6935 11.173 15.5435 11.113 15.4035V15.3935Z" fill="#A46F2A"/>
<path d="M13.1835 15.3339C13.1835 15.3339 13.1535 15.3039 13.1435 15.2839C13.1435 15.2839 13.1435 15.2739 13.1335 15.2639C13.1035 15.2239 13.0835 15.1939 13.0535 15.1539C13.0035 15.0739 12.9535 14.9939 12.9135 14.9039C12.9135 14.9039 12.9135 14.8839 12.9035 14.8739C12.9035 14.8739 12.9035 14.8639 12.9035 14.8539C12.9035 14.8439 12.9035 14.8339 12.8935 14.8239C12.8735 14.7839 12.8635 14.7339 12.8535 14.6939C12.8235 14.6039 12.8035 14.5139 12.7935 14.4139C12.7935 14.3539 12.7235 14.2839 12.6735 14.2539C12.6135 14.2239 12.5335 14.2039 12.4635 14.2239C12.3935 14.2439 12.3335 14.2839 12.3035 14.3439C12.2635 14.4139 12.2635 14.4739 12.2735 14.5539C12.3435 14.9839 12.5335 15.3839 12.8235 15.7039C12.9135 15.8139 13.1135 15.8039 13.2035 15.7039C13.3035 15.5939 13.3035 15.4339 13.2035 15.3239L13.1835 15.3339Z" fill="#C18149"/>
<path d="M14.7938 14.7936C14.7938 14.7936 14.7738 14.7836 14.7738 14.7736C14.7538 14.7536 14.7338 14.7436 14.7138 14.7236C14.6738 14.6936 14.6438 14.6536 14.6038 14.6136C14.5838 14.5936 14.5638 14.5736 14.5438 14.5536C14.5438 14.5536 14.5338 14.5336 14.5238 14.5336C14.5238 14.5136 14.4938 14.4936 14.4838 14.4736C14.4638 14.4536 14.4538 14.4236 14.4338 14.4036C14.4038 14.3636 14.3838 14.3136 14.3538 14.2736C14.3438 14.2536 14.3338 14.2236 14.3238 14.2036L14.3138 14.1736C14.2738 14.0736 14.2438 13.9736 14.2238 13.8636C14.1938 13.7236 14.0238 13.6336 13.8938 13.6736C13.7438 13.7236 13.6738 13.8536 13.7038 14.0036C13.8038 14.5036 14.1038 14.9436 14.5138 15.2536C14.5638 15.2936 14.6638 15.2936 14.7238 15.2836C14.7838 15.2636 14.8538 15.2136 14.8838 15.1636C14.9538 15.0236 14.9138 14.8836 14.7838 14.7936H14.7938Z" fill="#C18149"/>
<path d="M15.8642 13.9828C15.7742 13.9328 15.6942 13.8728 15.6142 13.8228C15.5942 13.8128 15.5742 13.7928 15.5642 13.7828C15.5642 13.7828 15.5442 13.7728 15.5342 13.7628C15.4942 13.7328 15.4542 13.7028 15.4242 13.6628C15.3542 13.5928 15.2742 13.5228 15.2142 13.4528C15.1842 13.4128 15.1442 13.3828 15.1142 13.3428C15.0942 13.3228 15.0842 13.3028 15.0642 13.2828C15.0642 13.2828 15.0542 13.2628 15.0442 13.2628C15.0242 13.2428 15.0442 13.2528 15.0442 13.2628C15.0042 13.2028 14.9542 13.1628 14.8842 13.1428C14.8242 13.1228 14.7342 13.1428 14.6742 13.1728C14.6142 13.2128 14.5642 13.2628 14.5542 13.3328C14.5342 13.4028 14.5342 13.4828 14.5842 13.5428C14.8642 13.9128 15.2042 14.2228 15.6042 14.4628C15.7242 14.5328 15.9042 14.4928 15.9742 14.3628C16.0442 14.2328 16.0042 14.0728 15.8742 13.9928L15.8642 13.9828Z" fill="#A46F2A"/>
<path d="M16.8345 12.9736C16.6945 12.8936 16.5645 12.8136 16.4345 12.7136C16.3545 12.6436 16.2745 12.5836 16.1945 12.5036C16.0945 12.4036 15.9145 12.3936 15.8145 12.5036C15.7145 12.6136 15.7045 12.7836 15.8145 12.8836C16.0345 13.0936 16.2845 13.2836 16.5545 13.4336C16.6145 13.4636 16.6945 13.4836 16.7645 13.4636C16.8245 13.4436 16.8945 13.3936 16.9245 13.3436C16.9945 13.2136 16.9645 13.0436 16.8245 12.9736H16.8345Z" fill="#C18149"/>
<path d="M17.3847 11.7825C17.0947 11.6325 16.8047 11.4725 16.5147 11.3225C16.3847 11.2525 16.2147 11.2825 16.1447 11.4225C16.0747 11.5425 16.1047 11.7225 16.2447 11.7925C16.5347 11.9425 16.8247 12.1025 17.1147 12.2525C17.2447 12.3225 17.4147 12.2925 17.4847 12.1525C17.5547 12.0325 17.5247 11.8525 17.3847 11.7825Z" fill="#A46F2A"/>
<path d="M17.3849 10.5924C17.2949 10.4524 17.2049 10.3124 17.1149 10.1724C17.0749 10.1124 17.0249 10.0624 16.9549 10.0524C16.9149 10.0424 16.8849 10.0424 16.8449 10.0524C16.8049 10.0524 16.7749 10.0624 16.7449 10.0824C16.6849 10.1224 16.6349 10.1724 16.6249 10.2424C16.6049 10.3124 16.6149 10.3924 16.6549 10.4524C16.7449 10.5924 16.8349 10.7324 16.9249 10.8724C16.9649 10.9324 17.0149 10.9824 17.0849 10.9924C17.1249 11.0024 17.1549 11.0024 17.1949 10.9924C17.2349 10.9924 17.2649 10.9824 17.2949 10.9624C17.3549 10.9224 17.4049 10.8724 17.4149 10.8024C17.4349 10.7324 17.4249 10.6524 17.3849 10.5924Z" fill="#C18149"/>
<path d="M5.87149 15.8045C5.85149 15.7445 5.80149 15.6745 5.75149 15.6445C5.69149 15.6145 5.61149 15.5945 5.54149 15.6145C5.47149 15.6345 5.42149 15.6845 5.38149 15.7345C5.18149 15.9945 5.01149 16.2645 4.87149 16.5545C4.81149 16.6845 4.83149 16.8545 4.97149 16.9245C5.09149 16.9845 5.27149 16.9645 5.34149 16.8245C5.48149 16.5345 5.66149 16.2545 5.85149 16.0045C5.89149 15.9545 5.89149 15.8545 5.88149 15.7945L5.87149 15.8045Z" fill="#C18149"/>
<path d="M6.93189 15.914C6.80189 15.844 6.64189 15.884 6.56189 16.014C6.33189 16.394 6.17189 16.804 6.08189 17.234C6.05189 17.374 6.12189 17.534 6.27189 17.564C6.41189 17.594 6.57189 17.524 6.60189 17.374C6.64189 17.174 6.70189 16.974 6.77189 16.784C6.77189 16.764 6.79189 16.744 6.80189 16.724C6.80189 16.714 6.80189 16.704 6.81189 16.694C6.83189 16.654 6.85189 16.604 6.87189 16.564C6.92189 16.474 6.97189 16.384 7.02189 16.294C7.09189 16.174 7.05189 15.994 6.92189 15.924L6.93189 15.914Z" fill="#A46F2A"/>
<path d="M8.26226 16.914C8.30226 16.784 8.21226 16.614 8.07226 16.584C7.92226 16.554 7.78226 16.624 7.74226 16.774C7.62226 17.134 7.60226 17.514 7.65226 17.884C7.65226 17.944 7.72226 18.014 7.77226 18.044C7.83226 18.074 7.91226 18.094 7.98226 18.074C8.05226 18.054 8.11226 18.014 8.14226 17.954C8.18226 17.884 8.18226 17.824 8.17226 17.744C8.17226 17.764 8.17226 17.784 8.17226 17.794C8.15226 17.624 8.15226 17.444 8.17226 17.274C8.19226 17.154 8.21226 17.034 8.25226 16.924L8.26226 16.914Z" fill="#C18149"/>
<path d="M10.0627 18.1449C10.0627 18.1449 9.99275 18.0449 9.96275 17.9949C9.95275 17.9749 9.93275 17.9449 9.92275 17.9249C9.92275 17.9149 9.91275 17.9049 9.90275 17.8949C9.86275 17.7949 9.84275 17.6949 9.82275 17.5949C9.82275 17.5049 9.81275 17.4049 9.82275 17.3149C9.82275 17.2549 9.79275 17.1649 9.74275 17.1249C9.69275 17.0749 9.62275 17.0449 9.55275 17.0449C9.39275 17.0449 9.29275 17.1649 9.28275 17.3149C9.24275 17.7049 9.36275 18.1149 9.59275 18.4249C9.63275 18.4849 9.68275 18.5249 9.75275 18.5449C9.81275 18.5649 9.90275 18.5449 9.96275 18.5149C10.0727 18.4449 10.1527 18.2649 10.0627 18.1449Z" fill="#C18149"/>
<path d="M12.0031 18.2742C11.8931 18.1142 11.7931 17.9442 11.7131 17.7642C11.6831 17.6742 11.6431 17.5942 11.6231 17.5042C11.5831 17.3642 11.4331 17.2742 11.2931 17.3142C11.1531 17.3542 11.0631 17.5042 11.1031 17.6442C11.1931 17.9642 11.3431 18.2742 11.5331 18.5442C11.5731 18.6042 11.6231 18.6442 11.6931 18.6642C11.7531 18.6842 11.8431 18.6642 11.9031 18.6342C12.0131 18.5642 12.0931 18.3842 12.0031 18.2642V18.2742Z" fill="#C18149"/>
<path d="M14.4936 17.9845C14.2836 17.7945 14.0836 17.5745 13.9036 17.3545C13.8936 17.3345 13.8836 17.3245 13.8636 17.3045C13.8436 17.2745 13.8236 17.2445 13.8036 17.2145C13.7636 17.1545 13.7236 17.0945 13.6836 17.0345C13.6036 16.9145 13.5336 16.7845 13.4636 16.6545C13.3936 16.5345 13.2136 16.4845 13.0936 16.5545C12.9636 16.6345 12.9236 16.7945 12.9936 16.9245C13.2836 17.4545 13.6536 17.9445 14.1036 18.3545C14.2036 18.4545 14.3836 18.4645 14.4836 18.3545C14.5836 18.2545 14.5936 18.0745 14.4836 17.9745L14.4936 17.9845Z" fill="#A46F2A"/>
<path d="M16.1742 17.0843C16.1742 17.0843 16.0842 17.0543 16.0342 17.0343C16.0342 17.0343 16.0242 17.0343 16.0142 17.0343C15.9942 17.0343 15.9742 17.0143 15.9542 17.0043C15.8642 16.9643 15.7842 16.9043 15.7042 16.8443C15.7042 16.8443 15.6942 16.8343 15.6842 16.8243C15.6642 16.8043 15.6442 16.7943 15.6242 16.7743C15.5842 16.7443 15.5542 16.7043 15.5242 16.6743C15.5042 16.6543 15.4942 16.6343 15.4742 16.6143C15.4742 16.6143 15.4742 16.6143 15.4642 16.6043C15.4342 16.5643 15.4042 16.5243 15.3742 16.4743C15.3042 16.3543 15.1242 16.2943 15.0042 16.3743C14.8842 16.4543 14.8342 16.6143 14.9042 16.7443C15.1542 17.1643 15.5642 17.4743 16.0242 17.6043C16.1642 17.6443 16.3242 17.5543 16.3542 17.4143C16.3842 17.2743 16.3142 17.1243 16.1642 17.0843H16.1742Z" fill="#C18149"/>
<path d="M17.3845 16.4842C17.3845 16.4842 17.2845 16.4842 17.2345 16.4842C17.2145 16.4842 17.1845 16.4842 17.1645 16.4842C17.1645 16.4842 17.1445 16.4842 17.1345 16.4842C17.0345 16.4642 16.9345 16.4342 16.8345 16.4042C16.8345 16.4042 16.8245 16.4042 16.8145 16.4042C16.7945 16.3942 16.7645 16.3842 16.7445 16.3742C16.7045 16.3542 16.6545 16.3242 16.6145 16.3042C16.5945 16.2942 16.5745 16.2742 16.5545 16.2642C16.5545 16.2642 16.5345 16.2542 16.5345 16.2442C16.4945 16.2142 16.4545 16.1742 16.4145 16.1442C16.3145 16.0442 16.1345 16.0342 16.0345 16.1442C15.9345 16.2542 15.9245 16.4242 16.0345 16.5242C16.3945 16.8742 16.8845 17.0642 17.3845 17.0542C17.5245 17.0542 17.6645 16.9342 17.6545 16.7842C17.6545 16.6442 17.5345 16.5142 17.3845 16.5142V16.4842Z" fill="#A46F2A"/>
<path d="M18.4948 15.3138C18.4948 15.3138 18.4348 15.3138 18.4148 15.3138C18.4148 15.3138 18.4048 15.3138 18.3948 15.3138C18.3448 15.3138 18.2948 15.2938 18.2348 15.2838C18.1348 15.2638 18.0448 15.2338 17.9448 15.2038C17.8948 15.1838 17.8548 15.1738 17.8048 15.1538C17.7948 15.1538 17.7848 15.1538 17.7748 15.1438C17.7548 15.1438 17.7348 15.1238 17.7148 15.1138C17.6148 15.0738 17.5248 15.0138 17.4348 14.9638C17.3148 14.8938 17.1348 14.9338 17.0648 15.0638C16.9948 15.1938 17.0348 15.3538 17.1648 15.4338C17.5748 15.6838 18.0248 15.8238 18.4948 15.8638C18.6348 15.8738 18.7748 15.7338 18.7648 15.5938C18.7648 15.4338 18.6448 15.3338 18.4948 15.3238V15.3138Z" fill="#C18149"/>
<path d="M18.8649 13.7935C18.8649 13.7935 18.8249 13.7635 18.8149 13.7535C18.7749 13.7335 18.7249 13.7135 18.6849 13.7135C18.7049 13.7135 18.7149 13.7135 18.7349 13.7135C18.6349 13.7035 18.5349 13.6735 18.4449 13.6335C18.3649 13.5935 18.2949 13.5535 18.2249 13.5035C18.1949 13.4735 18.1649 13.4535 18.1349 13.4235C18.0349 13.3235 17.8549 13.3135 17.7549 13.4235C17.6549 13.5335 17.6449 13.6935 17.7549 13.8035C17.8749 13.9235 18.0049 14.0235 18.1549 14.0935C18.3249 14.1735 18.4949 14.2235 18.6849 14.2435C18.7449 14.2435 18.8349 14.2035 18.8749 14.1635C18.9249 14.1135 18.9549 14.0435 18.9549 13.9735C18.9549 13.9035 18.9249 13.8335 18.8749 13.7835L18.8649 13.7935Z" fill="#C18149"/>
<path d="M4.92121 17.8046C4.87121 17.7546 4.80121 17.7246 4.73121 17.7246C4.66121 17.7246 4.59121 17.7546 4.54121 17.8046C4.38121 17.9846 4.22121 18.1646 4.07121 18.3446C4.02121 18.3946 3.99121 18.4646 3.99121 18.5346C3.99121 18.6046 4.02121 18.6846 4.07121 18.7246C4.12121 18.7746 4.19121 18.8046 4.26121 18.8046C4.33121 18.8046 4.40121 18.7746 4.45121 18.7246C4.61121 18.5446 4.77121 18.3646 4.92121 18.1846C4.97121 18.1346 5.00121 18.0646 5.00121 17.9946C5.00121 17.9246 4.97121 17.8446 4.92121 17.8046Z" fill="#A46F2A"/>
<path d="M6.43162 18.4546C6.43162 18.3846 6.40162 18.3046 6.35162 18.2646C6.30162 18.2146 6.23162 18.1846 6.16162 18.1846C6.09162 18.1846 6.02162 18.2146 5.97162 18.2646C5.80162 18.4446 5.66162 18.6446 5.56162 18.8646C5.54162 18.8946 5.53162 18.9246 5.53162 18.9646C5.53162 19.0046 5.53162 19.0346 5.53162 19.0746C5.55162 19.1346 5.60162 19.2046 5.65162 19.2346C5.71162 19.2646 5.79162 19.2846 5.86162 19.2646C5.92162 19.2446 5.99162 19.2046 6.02162 19.1446C6.08162 19.0146 6.15162 18.8946 6.24162 18.7746C6.28162 18.7346 6.31162 18.6846 6.35162 18.6446C6.40162 18.5946 6.43162 18.5246 6.43162 18.4546Z" fill="#C18149"/>
<path d="M9.45253 20.4555C9.44253 20.3955 9.43253 20.3455 9.42253 20.2855C9.42253 20.2555 9.42253 20.2255 9.41253 20.1955C9.41253 20.1855 9.41253 20.1855 9.41253 20.1755C9.41253 20.1755 9.41253 20.1755 9.41253 20.1555C9.40253 20.0455 9.39253 19.9355 9.38253 19.8255C9.37253 19.5955 9.38253 19.3755 9.38253 19.1455C9.39253 19.0055 9.25253 18.8655 9.11253 18.8755C8.95253 18.8755 8.85253 18.9955 8.84253 19.1455C8.80253 19.6355 8.84253 20.1255 8.93253 20.5955C8.96253 20.7355 9.13253 20.8255 9.26253 20.7855C9.41253 20.7355 9.48253 20.6055 9.45253 20.4555Z" fill="#A46F2A"/>
<path d="M11.523 20.5951C11.473 20.5251 11.433 20.4451 11.393 20.3751C11.393 20.3551 11.373 20.3351 11.363 20.3151C11.343 20.2751 11.333 20.2351 11.323 20.1951C11.293 20.1151 11.273 20.0351 11.263 19.9551C11.263 19.9251 11.263 19.8851 11.243 19.8451C11.243 19.8451 11.243 19.8251 11.243 19.8151C11.243 19.7951 11.243 19.7651 11.243 19.7451C11.243 19.6051 11.123 19.4651 10.973 19.4751C10.833 19.4751 10.693 19.5951 10.703 19.7451C10.733 20.1451 10.853 20.5251 11.063 20.8651C11.143 20.9851 11.303 21.0451 11.433 20.9651C11.553 20.8851 11.613 20.7251 11.533 20.5951H11.523Z" fill="#C18149"/>
<path d="M13.6337 20.6453C13.6337 20.6453 13.5537 20.5653 13.5237 20.5253C13.5237 20.5253 13.5037 20.5053 13.5037 20.4953C13.5137 20.5053 13.5037 20.4953 13.5037 20.4853C13.5037 20.4753 13.4937 20.4653 13.4837 20.4553C13.4537 20.4153 13.4237 20.3653 13.4037 20.3153C13.3937 20.2953 13.3837 20.2753 13.3737 20.2453C13.3737 20.2353 13.3737 20.2253 13.3637 20.2153C13.3237 20.1153 13.2937 20.0153 13.2837 19.9153C13.2837 19.9153 13.2837 19.9153 13.2837 19.9053C13.2837 19.9053 13.2837 19.9053 13.2837 19.8953C13.2837 19.8753 13.2837 19.8453 13.2837 19.8253C13.2837 19.7653 13.2837 19.7153 13.2837 19.6553C13.2837 19.5153 13.1537 19.3753 13.0137 19.3853C12.8637 19.3853 12.7537 19.5053 12.7437 19.6553C12.7237 20.1653 12.9337 20.6853 13.3037 21.0353C13.4037 21.1353 13.5837 21.1453 13.6837 21.0353C13.7837 20.9253 13.7937 20.7553 13.6837 20.6553L13.6337 20.6453Z" fill="#A46F2A"/>
<path d="M14.8938 20.9051C14.7138 20.6151 14.5338 20.3151 14.3438 20.0251C14.2738 19.9051 14.1038 19.8451 13.9738 19.9251C13.8538 20.0051 13.7938 20.1651 13.8738 20.2951C14.0538 20.5851 14.2338 20.8851 14.4238 21.1751C14.4938 21.2951 14.6638 21.3551 14.7938 21.2751C14.9138 21.1951 14.9738 21.0351 14.8938 20.9051Z" fill="#C18149"/>
<path d="M16.3345 19.5048C16.1545 19.3348 15.9645 19.1648 15.7845 19.0048C15.7345 18.9548 15.6645 18.9248 15.5945 18.9248C15.5245 18.9248 15.4445 18.9548 15.4045 19.0048C15.3545 19.0548 15.3245 19.1248 15.3245 19.1948C15.3245 19.2648 15.3545 19.3348 15.4045 19.3848C15.5845 19.5548 15.7745 19.7248 15.9545 19.8848C16.0045 19.9348 16.0745 19.9648 16.1445 19.9648C16.2145 19.9648 16.2945 19.9348 16.3345 19.8848C16.3845 19.8348 16.4145 19.7648 16.4145 19.6948C16.4145 19.6248 16.3845 19.5548 16.3345 19.5048Z" fill="#C18149"/>
<path d="M16.3645 21.6057C16.3445 21.5457 16.3045 21.4757 16.2445 21.4457C16.0845 21.3757 15.9445 21.2857 15.8045 21.1857C15.8045 21.1857 15.7945 21.1857 15.7845 21.1757C15.7645 21.1457 15.7345 21.1257 15.6945 21.1157C15.6645 21.0957 15.6245 21.0957 15.5945 21.0957C15.5245 21.0957 15.4445 21.1257 15.4045 21.1757C15.3545 21.2257 15.3245 21.2957 15.3245 21.3657C15.3245 21.4357 15.3445 21.5157 15.4045 21.5557C15.5745 21.6957 15.7645 21.8257 15.9645 21.9157C15.9945 21.9357 16.0245 21.9457 16.0645 21.9457C16.1045 21.9457 16.1345 21.9457 16.1745 21.9457C16.2345 21.9257 16.3045 21.8757 16.3345 21.8257C16.3645 21.7657 16.3845 21.6857 16.3645 21.6157V21.6057Z" fill="#C18149"/>
<path d="M18.4448 18.7849C18.3648 18.7449 18.2848 18.7049 18.2148 18.6449C18.2248 18.6449 18.2348 18.6649 18.2148 18.6449C18.2148 18.6449 18.2048 18.6349 18.1948 18.6249C18.1948 18.6249 18.2048 18.6249 18.2148 18.6349C18.1948 18.6249 18.1848 18.6049 18.1648 18.5949C18.1348 18.5649 18.0948 18.5349 18.0648 18.5049C18.0348 18.4749 18.0148 18.4449 17.9848 18.4149C17.9848 18.4149 17.9848 18.4149 17.9748 18.4049C17.9648 18.3849 17.9448 18.3649 17.9348 18.3449C17.8948 18.2749 17.8548 18.2049 17.8248 18.1249C17.8248 18.1049 17.8048 18.0749 17.7948 18.0549C17.7548 17.9249 17.6048 17.8149 17.4648 17.8649C17.3348 17.9049 17.2248 18.0549 17.2748 18.1949C17.4248 18.6449 17.7448 19.0349 18.1648 19.2449C18.2948 19.3049 18.4648 19.2849 18.5348 19.1449C18.5948 19.0249 18.5748 18.8449 18.4348 18.7749L18.4448 18.7849Z" fill="#A46F2A"/>
<path d="M19.8653 17.3038C19.8653 17.3038 19.8153 17.2638 19.7853 17.2538C19.6953 17.1838 19.6153 17.1038 19.5453 17.0138C19.4953 16.9438 19.4453 16.8738 19.4153 16.8038C19.3853 16.7438 19.3153 16.6938 19.2553 16.6838C19.1953 16.6638 19.1053 16.6838 19.0453 16.7138C18.9853 16.7538 18.9353 16.8038 18.9253 16.8738C18.9053 16.9438 18.9253 17.0138 18.9553 17.0838C19.1053 17.3738 19.3353 17.6138 19.6053 17.7838C19.7253 17.8638 19.9053 17.8138 19.9753 17.6838C20.0453 17.5538 20.0053 17.3938 19.8753 17.3138L19.8653 17.3038Z" fill="#C18149"/>
<path d="M20.5256 16.3744C20.2356 16.0744 19.9056 15.8144 19.5456 15.6044C19.4256 15.5344 19.2456 15.5744 19.1756 15.7044C19.1056 15.8344 19.1456 15.9944 19.2756 16.0744C19.3556 16.1244 19.4356 16.1744 19.5156 16.2244C19.5556 16.2544 19.5956 16.2844 19.6356 16.3044C19.6556 16.3144 19.6756 16.3344 19.6956 16.3444C19.6956 16.3444 19.6956 16.3444 19.7056 16.3444C19.8556 16.4644 20.0056 16.5944 20.1356 16.7344C20.2356 16.8344 20.4156 16.8444 20.5156 16.7344C20.6156 16.6244 20.6256 16.4644 20.5156 16.3544L20.5256 16.3744Z" fill="#A46F2A"/>
<path d="M20.6155 19.4155C20.5755 19.3655 20.5255 19.3055 20.4555 19.2955C20.3855 19.2955 20.3255 19.2655 20.2655 19.2455C20.2155 19.2155 20.1655 19.1955 20.1155 19.1555C20.0655 19.1155 20.0255 19.0755 19.9855 19.0255C19.9455 18.9655 19.8955 18.9255 19.8255 18.9055C19.7655 18.8855 19.6755 18.9055 19.6155 18.9355C19.5555 18.9755 19.5055 19.0255 19.4955 19.0955C19.4755 19.1655 19.4855 19.2455 19.5255 19.3055C19.6255 19.4555 19.7455 19.5755 19.8955 19.6655C20.0255 19.7455 20.1755 19.8055 20.3255 19.8255C20.3655 19.8355 20.3955 19.8355 20.4355 19.8255C20.4755 19.8255 20.5055 19.8155 20.5355 19.7955C20.5955 19.7655 20.6455 19.6955 20.6555 19.6355C20.6755 19.5655 20.6655 19.4855 20.6255 19.4255L20.6155 19.4155Z" fill="#C18149"/>
<path d="M21.1459 18.475C21.1159 18.355 21.0859 18.225 21.0559 18.105C21.0359 18.045 20.9859 17.975 20.9359 17.945C20.9059 17.925 20.8759 17.915 20.8359 17.915C20.7959 17.915 20.7659 17.915 20.7259 17.915C20.6559 17.935 20.5959 17.975 20.5659 18.035C20.5359 18.105 20.5159 18.175 20.5359 18.245C20.5659 18.365 20.5959 18.495 20.6259 18.615C20.6459 18.675 20.6959 18.745 20.7459 18.775C20.7759 18.795 20.8059 18.805 20.8459 18.805C20.8859 18.805 20.9159 18.805 20.9559 18.805C21.0259 18.785 21.0859 18.745 21.1159 18.685C21.1459 18.615 21.1659 18.545 21.1459 18.475Z" fill="#C18149"/>
<path d="M10.4428 21.3556C10.4128 21.2956 10.3428 21.2456 10.2828 21.2356C10.2128 21.2156 10.1328 21.2256 10.0728 21.2656C10.0128 21.3056 9.96276 21.3556 9.95276 21.4256C9.90276 21.6156 9.88276 21.8056 9.89276 22.0056C9.89276 22.0756 9.92276 22.1456 9.97276 22.1956C10.0228 22.2456 10.0928 22.2756 10.1628 22.2756C10.2328 22.2756 10.3028 22.2456 10.3528 22.1956C10.4028 22.1456 10.4328 22.0756 10.4328 22.0056C10.4328 21.9056 10.4328 21.8156 10.4328 21.7156C10.4328 21.6656 10.4528 21.6156 10.4628 21.5756C10.4828 21.5056 10.4628 21.4256 10.4328 21.3656L10.4428 21.3556Z" fill="#C18149"/>
</g>
<path d="M6.49161 3.23014C6.49161 3.23014 7.47188 2.13983 10.3127 3.52022C12.0932 4.39046 15.8142 5.41075 15.9543 8.77169C16.0643 11.4824 12.1232 14.0031 9.50245 12.8028C6.88172 11.6025 3.57079 10.5722 3.56079 5.56079C3.56079 4.05037 6.49161 3.22013 6.49161 3.22013V3.23014Z" fill="#E0AD53"/>
<path d="M2.95081 6.36085C2.95081 6.36085 3.50096 4.24026 4.33119 3.99019C5.16142 3.74012 7.39205 2.99991 8.10225 4.13023C8.81244 5.26054 10.5629 5.56063 10.2929 7.72123C10.0228 9.88183 8.6624 11.5123 6.79188 11.1522C4.92136 10.7921 3.04083 8.25138 2.95081 6.36085Z" fill="#E3B463"/>
<path d="M6.2119 8.06108C6.1119 7.71108 7.6619 8.31108 7.9119 7.36108C8.1619 6.41108 9.0819 6.09108 9.0619 6.58108C9.0419 7.07108 8.6919 8.96108 7.6319 8.75108C6.5719 8.54108 6.3919 8.70108 6.2019 8.06108H6.2119Z" fill="#E07A6F"/>
</g>
<path d="M2.03066 5.72119C2.03066 5.72119 1.1204 3.9607 2.03066 3.36053C2.94091 2.76037 2.5308 2.24022 3.03094 1.96014C3.53108 1.68007 3.84116 0.679786 4.36131 1.0999C4.88145 1.52002 5.45161 -0.100432 5.97176 0.179646C6.4919 0.459724 8.02233 0.29968 8.80255 0.0396069C9.58277 -0.220466 10.563 0.849833 9.51275 1.8001C8.46245 2.75036 8.51247 2.84039 7.65223 2.82038C6.79199 2.80038 6.22183 4.10074 5.48162 4.11074C4.74141 4.12075 3.79115 5.15104 3.53108 5.3811C3.271 5.61116 2.05066 5.72119 2.05066 5.72119H2.03066Z" fill="#D8594B"/>
<path d="M1.97052 11.0932C1.60041 12.9738 3.73101 14.1641 4.7813 12.9338C6.29173 11.1733 4.53123 8.96264 4.20114 7.95236C3.87105 6.94208 2.9708 7.22216 2.9708 7.22216C2.9708 7.22216 2.70072 7.80232 2.41064 8.83261C2.12056 9.86289 1.97052 11.1032 1.97052 11.1032V11.0932Z" fill="#D44637"/>
<path d="M0.310303 7.53154C0.310303 7.53154 0.930303 7.75153 1.5903 7.72153C2.2503 7.69153 2.9603 7.63154 3.1003 7.59154C3.2403 7.55154 3.1003 6.86154 2.8303 6.83154C2.5603 6.80154 0.370303 7.24154 0.310303 7.53154Z" fill="#AB5124"/>
<path d="M0.00012207 7.78093C0.00012207 7.78093 0.330122 6.32093 1.59012 5.78093C2.48012 5.40093 2.81012 5.34093 3.14012 5.40093C3.47012 5.46093 3.23012 7.56093 3.10012 7.58093C2.97012 7.60093 1.28012 7.07093 0.0101221 7.78093H0.00012207Z" fill="#D68924"/>
<path d="M2.98069 6.32069C2.88069 6.29069 2.76069 6.30069 2.61069 6.32069C2.12069 6.43069 1.83069 6.61069 1.83069 6.61069C1.83069 6.61069 1.96069 6.65069 2.27069 6.57069C2.58069 6.49069 3.02069 6.33069 3.02069 6.33069H2.98069V6.32069Z" fill="#AB5124"/>
<path d="M2.88091 11.5734C2.91092 13.554 6.02179 14.3042 7.06208 12.8338C8.5525 10.7232 5.65169 8.86269 4.94149 7.91242C4.23129 6.96216 3.24102 7.01217 3.24102 7.01217C3.24102 7.01217 2.94093 8.07247 2.8409 9.18278C2.74088 10.2931 2.89092 11.5734 2.89092 11.5734H2.88091Z" fill="#D8594B"/>
<path d="M6.05168 6.7709C6.57636 6.7709 7.00168 6.41273 7.00168 5.9709C7.00168 5.52907 6.57636 5.1709 6.05168 5.1709C5.52701 5.1709 5.10168 5.52907 5.10168 5.9709C5.10168 6.41273 5.52701 6.7709 6.05168 6.7709Z" fill="white"/>
<path d="M6.05163 6.70121C6.53764 6.70121 6.93163 6.37438 6.93163 5.97121C6.93163 5.56804 6.53764 5.24121 6.05163 5.24121C5.56562 5.24121 5.17163 5.56804 5.17163 5.97121C5.17163 6.37438 5.56562 6.70121 6.05163 6.70121Z" fill="#7C8F03"/>
<path d="M6.0517 6.51066C6.36098 6.51066 6.6117 6.2689 6.6117 5.97066C6.6117 5.67243 6.36098 5.43066 6.0517 5.43066C5.74242 5.43066 5.4917 5.67243 5.4917 5.97066C5.4917 6.2689 5.74242 6.51066 6.0517 6.51066Z" fill="#403312"/>
<path opacity="0.5" d="M6.49189 5.83129C6.5913 5.83129 6.67189 5.77309 6.67189 5.70129C6.67189 5.62949 6.5913 5.57129 6.49189 5.57129C6.39248 5.57129 6.31189 5.62949 6.31189 5.70129C6.31189 5.77309 6.39248 5.83129 6.49189 5.83129Z" fill="white"/>
</svg>
