<svg width="80" height="34" viewBox="0 0 80 34" fill="none" xmlns="http://www.w3.org/2000/svg">
<path d="M79.9788 19.23C79.9688 20.6 79.9588 22.02 79.9388 23.5C79.8488 31.13 66.0788 29.22 39.1388 29.65C0.678841 30.27 -0.321155 28.24 0.0488446 11.55C0.108845 9.13 0.17885 3.09 0.17885 0C0.17885 0 7.98886 6.64 13.4689 0C13.4689 0 17.4889 5.06 23.2789 0.49C23.2789 0.49 27.1888 2.75 32.0788 2.75C35.6088 2.75 40.0589 0 40.0589 0C40.0589 0 45.8688 5.22 53.3488 0C53.3488 0 59.7788 5.01 66.6388 0C66.6388 0 75.2088 4.22 79.9288 0C79.9288 0 80.0389 10.54 79.9689 19.22L79.9788 19.23Z" fill="#2592B8"/>
<path opacity="0.63" d="M34.3989 6.32C34.3989 6.32 36.4889 6.31 37.8989 5C37.8989 5 39.0289 5.97 41.3989 6.48C41.3989 6.48 39.0589 6.34 37.9589 5.58C37.3489 6.1 35.9689 6.67 34.3989 6.32Z" fill="#5BC9ED"/>
<path opacity="0.63" d="M0.888916 5.32C0.888916 5.32 2.97892 5.31 4.38892 4C4.38892 4 5.51892 4.97 7.88892 5.48C7.88892 5.48 5.54891 5.34 4.44891 4.58C3.83891 5.1 2.45892 5.67 0.888916 5.32Z" fill="#5BC9ED"/>
<path opacity="0.63" d="M71.209 7.01973C71.209 7.01973 72.879 7.01973 73.999 5.96973C73.999 5.96973 74.899 6.74973 76.789 7.14973C76.789 7.14973 74.929 7.03973 74.049 6.43973C73.559 6.84973 72.459 7.30973 71.209 7.02973V7.01973Z" fill="#5BC9ED"/>
<path opacity="0.63" d="M63.949 3.79984C63.949 3.79984 65.469 3.79984 66.489 2.83984C66.489 2.83984 67.309 3.54984 69.029 3.90984C69.029 3.90984 67.329 3.80985 66.529 3.25985C66.089 3.63985 65.079 4.04984 63.939 3.79984H63.949Z" fill="#5BC9ED"/>
<path opacity="0.63" d="M44.1589 4.03959C44.1589 4.03959 45.6789 4.03959 46.6989 3.07959C46.6989 3.07959 47.5189 3.78959 49.2389 4.14959C49.2389 4.14959 47.5389 4.04959 46.7389 3.49959C46.2989 3.87959 45.2889 4.28959 44.1489 4.03959H44.1589Z" fill="#00698C"/>
<path opacity="0.63" d="M52.8789 6.25981C52.8789 6.25981 55.1689 6.2598 56.6989 5.2998C56.6989 5.2998 57.9289 6.00981 60.5189 6.36981C60.5189 6.36981 57.9689 6.26981 56.7589 5.71981C56.0889 6.09981 54.5789 6.50981 52.8689 6.25981H52.8789Z" fill="#00698C"/>
<path opacity="0.63" d="M73.9089 3.71978C73.9089 3.71978 75.5589 3.71979 76.6589 3.02979C76.6589 3.02979 77.5489 3.53978 79.4089 3.79978C79.4089 3.79978 77.569 3.72978 76.709 3.32978C76.229 3.59978 75.1389 3.89978 73.9089 3.71978Z" fill="#00698C"/>
<path opacity="0.63" d="M18.8088 4.65973C18.8088 4.65973 20.4588 4.65973 21.5588 3.96973C21.5588 3.96973 22.4488 4.47973 24.3088 4.73973C24.3088 4.73973 22.4688 4.66973 21.6088 4.26973C21.1288 4.53973 20.0388 4.83973 18.8088 4.65973Z" fill="#00698C"/>
<path d="M79.9689 22.94V23.22C79.9589 24.49 79.9489 25.83 79.9289 27.21C79.9189 27.91 79.7989 28.54 79.5489 29.1C79.5089 29.2 79.4589 29.3 79.3989 29.39C77.5489 32.82 70.7489 33.25 59.1389 33.29C57.3989 33.29 55.5789 33.29 53.6889 33.3C49.3689 33.29 44.5189 33.28 39.1389 33.37C36.2389 33.41 33.5389 33.45 31.0389 33.45C4.31892 33.37 0.338934 30.88 0.0189339 20.29C-0.0110661 19.13 -0.00106609 17.88 0.0189339 16.51C0.0289339 16.5 0.0289339 16.48 0.0189339 16.47C0.0289339 16.36 0.0289437 16.25 0.0289437 16.12C0.0289437 15.84 0.0389229 15.56 0.0389229 15.27C0.0989229 12.85 0.168928 10.12 0.168928 7.02998C0.168928 7.02998 3.83893 9.41998 7.69893 5.46998C7.69893 5.46998 7.70895 5.45998 7.71895 5.44998C8.17895 4.97998 8.64893 4.40998 9.10893 3.72998C9.10893 3.72998 16.9689 12.57 25.4689 4.81998C25.4689 4.81998 33.7689 12.72 46.0589 4.66998C46.0589 4.66998 54.2389 15.24 64.2589 4.81998C64.2589 4.81998 70.4789 12.09 79.9289 8.13998C79.9289 8.13998 79.9889 10.88 79.9889 15.29C79.9989 17.48 79.9989 20.07 79.9789 22.95L79.9689 22.94Z" fill="#0080AB"/>
<path d="M79.9689 23.22C79.9589 24.49 79.9489 25.83 79.9289 27.21C79.9189 27.91 79.7989 28.54 79.5489 29.1C79.5089 29.2 79.4589 29.3 79.3989 29.39C77.5489 32.82 70.7489 33.25 59.1389 33.29C57.3989 33.29 55.5789 33.29 53.6889 33.3C50.5689 33.3 47.2389 33.31 43.7189 33.37C39.0089 33.44 34.7989 33.47 31.0389 33.45C4.31892 33.37 0.338934 30.88 0.0189339 20.29C-0.0110661 19.13 -0.00106609 17.88 0.0189339 16.51C0.0289339 16.5 0.0289339 16.48 0.0189339 16.47C0.0289339 16.36 0.0289437 16.25 0.0289437 16.12C0.0389437 15.84 0.0389327 15.56 0.0489327 15.27C11.1889 17.12 50.8089 23.32 79.9289 23.23C79.9489 23.23 79.9589 23.23 79.9689 23.22Z" fill="#EBE196"/>
<path d="M11.969 14.25C11.969 14.25 15.479 14.23 17.829 12.04C17.829 12.04 19.719 13.67 23.689 14.51C23.689 14.51 19.769 14.27 17.929 13.01C16.899 13.88 14.589 14.84 11.959 14.25H11.969Z" fill="#5BC9ED"/>
<path d="M33.6289 17.8301C33.6289 17.8301 37.1389 17.8101 39.4889 15.6201C39.4889 15.6201 41.3789 17.2501 45.3489 18.0901C45.3489 18.0901 41.4289 17.8501 39.5889 16.5901C38.5589 17.4601 36.2489 18.4201 33.6189 17.8301H33.6289Z" fill="#5BC9ED"/>
<path d="M60.219 19.76C60.219 19.76 64.139 19.74 66.759 17.29C66.759 17.29 68.869 19.11 73.299 20.05C73.299 20.05 68.929 19.79 66.869 18.37C65.729 19.34 63.139 20.41 60.209 19.75L60.219 19.76Z" fill="#5BC9ED"/>
<path d="M46.979 11.12C46.979 11.12 49.529 11.11 51.239 9.52002C51.239 9.52002 52.609 10.7 55.499 11.32C55.499 11.32 52.649 11.15 51.319 10.23C50.579 10.86 48.889 11.56 46.989 11.13L46.979 11.12Z" fill="#5BC9ED"/>
<path d="M28.189 11.5102C28.189 11.5102 30.739 11.5002 32.449 9.91016C32.449 9.91016 33.819 11.0902 36.709 11.7102C36.709 11.7102 33.859 11.5402 32.529 10.6202C31.789 11.2502 30.099 11.9502 28.199 11.5202L28.189 11.5102Z" fill="#00698C"/>
<path d="M50.8289 15.3001C50.8289 15.3001 54.2989 15.2901 56.6189 13.8501C56.6189 13.8501 58.4888 14.9201 62.4088 15.4801C62.4088 15.4801 58.5389 15.3201 56.7189 14.4901C55.7089 15.0601 53.4188 15.6901 50.8188 15.3001H50.8289Z" fill="#00698C"/>
<path d="M64.3088 11.0599C64.3088 11.0599 66.4488 11.0599 67.8788 10.1699C67.8788 10.1699 69.0288 10.8299 71.4488 11.1699C71.4488 11.1699 69.0688 11.0699 67.9488 10.5599C67.3288 10.9099 65.9188 11.2999 64.3188 11.0599H64.3088Z" fill="#00698C"/>
<path d="M1.88892 11.8199C1.88892 11.8199 4.64893 11.8199 6.49893 10.6699C6.49893 10.6699 7.98892 11.5199 11.1089 11.9599C11.1089 11.9599 8.02893 11.8399 6.58893 11.1799C5.77893 11.6299 3.96893 12.1399 1.89893 11.8299L1.88892 11.8199Z" fill="#00698C"/>
<path d="M69.939 14.33C69.939 14.33 72.489 14.32 74.199 12.73C74.199 12.73 75.569 13.91 78.459 14.53C78.459 14.53 75.609 14.36 74.279 13.44C73.539 14.07 71.849 14.77 69.949 14.34L69.939 14.33Z" fill="#5BC9ED"/>
<path d="M5.56894 23.1203C5.78985 23.1203 5.96896 22.9412 5.96896 22.7203C5.96896 22.4994 5.78985 22.3203 5.56894 22.3203C5.34803 22.3203 5.16895 22.4994 5.16895 22.7203C5.16895 22.9412 5.34803 23.1203 5.56894 23.1203Z" fill="#E0D686"/>
<path d="M8.439 25.0499C8.54945 25.0499 8.63901 24.9604 8.63901 24.8499C8.63901 24.7394 8.54945 24.6499 8.439 24.6499C8.32854 24.6499 8.23901 24.7394 8.23901 24.8499C8.23901 24.9604 8.32854 25.0499 8.439 25.0499Z" fill="#E0D686"/>
<path d="M17.6289 19.8399C17.7394 19.8399 17.8289 19.7504 17.8289 19.6399C17.8289 19.5295 17.7394 19.4399 17.6289 19.4399C17.5185 19.4399 17.429 19.5295 17.429 19.6399C17.429 19.7504 17.5185 19.8399 17.6289 19.8399Z" fill="#E0D686"/>
<path d="M8.63898 22.7804C8.74943 22.7804 8.83899 22.6908 8.83899 22.5804C8.83899 22.4699 8.74943 22.3804 8.63898 22.3804C8.52852 22.3804 8.43896 22.4699 8.43896 22.5804C8.43896 22.6908 8.52852 22.7804 8.63898 22.7804Z" fill="#E0D686"/>
<path d="M11.999 24.14C12.1702 24.14 12.309 24.0012 12.309 23.83C12.309 23.6588 12.1702 23.52 11.999 23.52C11.8278 23.52 11.689 23.6588 11.689 23.83C11.689 24.0012 11.8278 24.14 11.999 24.14Z" fill="#E0D686"/>
<path d="M12.279 19.9501C12.4502 19.9501 12.589 19.8113 12.589 19.6401C12.589 19.4689 12.4502 19.3301 12.279 19.3301C12.1078 19.3301 11.969 19.4689 11.969 19.6401C11.969 19.8113 12.1078 19.9501 12.279 19.9501Z" fill="#E0D686"/>
<path d="M8.21902 19.6002C8.34053 19.6002 8.439 19.5017 8.439 19.3802C8.439 19.2587 8.34053 19.1602 8.21902 19.1602C8.09752 19.1602 7.99902 19.2587 7.99902 19.3802C7.99902 19.5017 8.09752 19.6002 8.21902 19.6002Z" fill="#E0D686"/>
<path d="M10.7291 21.9103C10.8175 21.9103 10.8891 21.8387 10.8891 21.7503C10.8891 21.662 10.8175 21.5903 10.7291 21.5903C10.6407 21.5903 10.5691 21.662 10.5691 21.7503C10.5691 21.8387 10.6407 21.9103 10.7291 21.9103Z" fill="#E0D686"/>
<path d="M14.679 25.9802C14.9 25.9802 15.079 25.8011 15.079 25.5802C15.079 25.3593 14.9 25.1802 14.679 25.1802C14.4581 25.1802 14.2791 25.3593 14.2791 25.5802C14.2791 25.8011 14.4581 25.9802 14.679 25.9802Z" fill="#E0D686"/>
<path d="M10.5191 25.7701C10.6296 25.7701 10.7191 25.6806 10.7191 25.5701C10.7191 25.4597 10.6296 25.3701 10.5191 25.3701C10.4086 25.3701 10.3191 25.4597 10.3191 25.5701C10.3191 25.6806 10.4086 25.7701 10.5191 25.7701Z" fill="#E0D686"/>
<path d="M13.429 27.7403C13.5395 27.7403 13.629 27.6508 13.629 27.5403C13.629 27.4299 13.5395 27.3403 13.429 27.3403C13.3186 27.3403 13.229 27.4299 13.229 27.5403C13.229 27.6508 13.3186 27.7403 13.429 27.7403Z" fill="#E0D686"/>
<path d="M8.74899 29.12C8.9202 29.12 9.05899 28.9812 9.05899 28.81C9.05899 28.6388 8.9202 28.5 8.74899 28.5C8.57778 28.5 8.43896 28.6388 8.43896 28.81C8.43896 28.9812 8.57778 29.12 8.74899 29.12Z" fill="#E0D686"/>
<path d="M3.86893 28.0801C3.99043 28.0801 4.08893 27.9816 4.08893 27.8601C4.08893 27.7386 3.99043 27.6401 3.86893 27.6401C3.74742 27.6401 3.64893 27.7386 3.64893 27.8601C3.64893 27.9816 3.74742 28.0801 3.86893 28.0801Z" fill="#E0D686"/>
<path d="M11.129 29.53C11.2173 29.53 11.289 29.4583 11.289 29.37C11.289 29.2816 11.2173 29.21 11.129 29.21C11.0406 29.21 10.969 29.2816 10.969 29.37C10.969 29.4583 11.0406 29.53 11.129 29.53Z" fill="#E0D686"/>
<path d="M15.669 22.0202C15.89 22.0202 16.069 21.8411 16.069 21.6202C16.069 21.3993 15.89 21.2202 15.669 21.2202C15.4481 21.2202 15.269 21.3993 15.269 21.6202C15.269 21.8411 15.4481 22.0202 15.669 22.0202Z" fill="#E0D686"/>
<path d="M16.7791 26.2901C16.8896 26.2901 16.9791 26.2006 16.9791 26.0901C16.9791 25.9797 16.8896 25.8901 16.7791 25.8901C16.6687 25.8901 16.5791 25.9797 16.5791 26.0901C16.5791 26.2006 16.6687 26.2901 16.7791 26.2901Z" fill="#E0D686"/>
<path d="M17.939 22.94C18.0495 22.94 18.139 22.8505 18.139 22.74C18.139 22.6296 18.0495 22.54 17.939 22.54C17.8285 22.54 17.739 22.6296 17.739 22.74C17.739 22.8505 17.8285 22.94 17.939 22.94Z" fill="#E0D686"/>
<path d="M21.289 24.3099C21.4602 24.3099 21.599 24.1711 21.599 23.9999C21.599 23.8287 21.4602 23.6899 21.289 23.6899C21.1178 23.6899 20.979 23.8287 20.979 23.9999C20.979 24.1711 21.1178 24.3099 21.289 24.3099Z" fill="#E0D686"/>
<path d="M19.6189 23.8004C19.7404 23.8004 19.8389 23.7019 19.8389 23.5804C19.8389 23.4589 19.7404 23.3604 19.6189 23.3604C19.4974 23.3604 19.3989 23.4589 19.3989 23.5804C19.3989 23.7019 19.4974 23.8004 19.6189 23.8004Z" fill="#E0D686"/>
<path d="M20.0191 22.07C20.1075 22.07 20.1791 21.9984 20.1791 21.91C20.1791 21.8216 20.1075 21.75 20.0191 21.75C19.9308 21.75 19.8591 21.8216 19.8591 21.91C19.8591 21.9984 19.9308 22.07 20.0191 22.07Z" fill="#E0D686"/>
<path d="M23.339 25.57C23.5599 25.57 23.739 25.3909 23.739 25.17C23.739 24.9491 23.5599 24.77 23.339 24.77C23.1181 24.77 22.939 24.9491 22.939 25.17C22.939 25.3909 23.1181 25.57 23.339 25.57Z" fill="#E0D686"/>
<path d="M19.8091 25.9303C19.9196 25.9303 20.0091 25.8407 20.0091 25.7303C20.0091 25.6198 19.9196 25.5303 19.8091 25.5303C19.6987 25.5303 19.6091 25.6198 19.6091 25.7303C19.6091 25.8407 19.6987 25.9303 19.8091 25.9303Z" fill="#E0D686"/>
<path d="M21.2791 27.6603C21.3896 27.6603 21.4791 27.5707 21.4791 27.4603C21.4791 27.3498 21.3896 27.2603 21.2791 27.2603C21.1687 27.2603 21.0791 27.3498 21.0791 27.4603C21.0791 27.5707 21.1687 27.6603 21.2791 27.6603Z" fill="#E0D686"/>
<path d="M16.469 29.1801C16.6402 29.1801 16.779 29.0413 16.779 28.8701C16.779 28.6989 16.6402 28.5601 16.469 28.5601C16.2978 28.5601 16.1589 28.6989 16.1589 28.8701C16.1589 29.0413 16.2978 29.1801 16.469 29.1801Z" fill="#E0D686"/>
<path d="M18.919 27.7603C19.0405 27.7603 19.139 27.6618 19.139 27.5403C19.139 27.4188 19.0405 27.3203 18.919 27.3203C18.7975 27.3203 18.699 27.4188 18.699 27.5403C18.699 27.6618 18.7975 27.7603 18.919 27.7603Z" fill="#E0D686"/>
<path d="M18.409 30.9401C18.4974 30.9401 18.569 30.8685 18.569 30.7801C18.569 30.6918 18.4974 30.6201 18.409 30.6201C18.3206 30.6201 18.249 30.6918 18.249 30.7801C18.249 30.8685 18.3206 30.9401 18.409 30.9401Z" fill="#E0D686"/>
<path d="M24.149 23.4401C24.3699 23.4401 24.549 23.2611 24.549 23.0401C24.549 22.8192 24.3699 22.6401 24.149 22.6401C23.9281 22.6401 23.749 22.8192 23.749 23.0401C23.749 23.2611 23.9281 23.4401 24.149 23.4401Z" fill="#E0D686"/>
<path d="M27.0191 25.3702C27.1296 25.3702 27.2191 25.2807 27.2191 25.1702C27.2191 25.0598 27.1296 24.9702 27.0191 24.9702C26.9086 24.9702 26.8191 25.0598 26.8191 25.1702C26.8191 25.2807 26.9086 25.3702 27.0191 25.3702Z" fill="#E0D686"/>
<path d="M27.229 23.11C27.3395 23.11 27.429 23.0204 27.429 22.91C27.429 22.7995 27.3395 22.71 27.229 22.71C27.1186 22.71 27.0291 22.7995 27.0291 22.91C27.0291 23.0204 27.1186 23.11 27.229 23.11Z" fill="#E0D686"/>
<path d="M30.579 24.4701C30.7502 24.4701 30.889 24.3313 30.889 24.1601C30.889 23.9889 30.7502 23.8501 30.579 23.8501C30.4078 23.8501 30.269 23.9889 30.269 24.1601C30.269 24.3313 30.4078 24.4701 30.579 24.4701Z" fill="#E0D686"/>
<path d="M28.919 23.96C29.0405 23.96 29.139 23.8615 29.139 23.74C29.139 23.6185 29.0405 23.52 28.919 23.52C28.7975 23.52 28.699 23.6185 28.699 23.74C28.699 23.8615 28.7975 23.96 28.919 23.96Z" fill="#E0D686"/>
<path d="M29.3089 22.2302C29.3973 22.2302 29.4689 22.1585 29.4689 22.0702C29.4689 21.9818 29.3973 21.9102 29.3089 21.9102C29.2206 21.9102 29.1489 21.9818 29.1489 22.0702C29.1489 22.1585 29.2206 22.2302 29.3089 22.2302Z" fill="#E0D686"/>
<path d="M32.629 25.7302C32.8499 25.7302 33.029 25.5511 33.029 25.3302C33.029 25.1093 32.8499 24.9302 32.629 24.9302C32.4081 24.9302 32.229 25.1093 32.229 25.3302C32.229 25.5511 32.4081 25.7302 32.629 25.7302Z" fill="#E0D686"/>
<path d="M29.0989 26.0899C29.2094 26.0899 29.2989 26.0004 29.2989 25.8899C29.2989 25.7795 29.2094 25.6899 29.0989 25.6899C28.9885 25.6899 28.8989 25.7795 28.8989 25.8899C28.8989 26.0004 28.9885 26.0899 29.0989 26.0899Z" fill="#E0D686"/>
<path d="M30.5789 27.8199C30.6894 27.8199 30.7789 27.7304 30.7789 27.6199C30.7789 27.5095 30.6894 27.4199 30.5789 27.4199C30.4685 27.4199 30.3789 27.5095 30.3789 27.6199C30.3789 27.7304 30.4685 27.8199 30.5789 27.8199Z" fill="#E0D686"/>
<path d="M27.329 29.4501C27.5002 29.4501 27.639 29.3113 27.639 29.1401C27.639 28.9689 27.5002 28.8301 27.329 28.8301C27.1578 28.8301 27.019 28.9689 27.019 29.1401C27.019 29.3113 27.1578 29.4501 27.329 29.4501Z" fill="#E0D686"/>
<path d="M28.7991 28.46C28.9206 28.46 29.0191 28.3615 29.0191 28.24C29.0191 28.1185 28.9206 28.02 28.7991 28.02C28.6776 28.02 28.5791 28.1185 28.5791 28.24C28.5791 28.3615 28.6776 28.46 28.7991 28.46Z" fill="#E0D686"/>
<path d="M36.359 27.6203C36.4473 27.6203 36.519 27.5487 36.519 27.4603C36.519 27.3719 36.4473 27.3003 36.359 27.3003C36.2706 27.3003 36.199 27.3719 36.199 27.4603C36.199 27.5487 36.2706 27.6203 36.359 27.6203Z" fill="#E0D686"/>
<path d="M31.879 29.2702C32.0999 29.2702 32.279 29.0911 32.279 28.8702C32.279 28.6493 32.0999 28.4702 31.879 28.4702C31.6581 28.4702 31.479 28.6493 31.479 28.8702C31.479 29.0911 31.6581 29.2702 31.879 29.2702Z" fill="#E0D686"/>
<path d="M23.2989 21.4699C23.5198 21.4699 23.6989 21.2908 23.6989 21.0699C23.6989 20.849 23.5198 20.6699 23.2989 20.6699C23.078 20.6699 22.8989 20.849 22.8989 21.0699C22.8989 21.2908 23.078 21.4699 23.2989 21.4699Z" fill="#E0D686"/>
<path d="M32.7191 30.8502C32.8295 30.8502 32.919 30.7607 32.919 30.6502C32.919 30.5397 32.8295 30.4502 32.7191 30.4502C32.6086 30.4502 32.519 30.5397 32.519 30.6502C32.519 30.7607 32.6086 30.8502 32.7191 30.8502Z" fill="#E0D686"/>
<path d="M29.679 31.2203C29.7895 31.2203 29.879 31.1308 29.879 31.0203C29.879 30.9099 29.7895 30.8203 29.679 30.8203C29.5686 30.8203 29.479 30.9099 29.479 31.0203C29.479 31.1308 29.5686 31.2203 29.679 31.2203Z" fill="#E0D686"/>
<path d="M26.3491 32.6303C26.5203 32.6303 26.6591 32.4915 26.6591 32.3203C26.6591 32.149 26.5203 32.0103 26.3491 32.0103C26.1779 32.0103 26.0391 32.149 26.0391 32.3203C26.0391 32.4915 26.1779 32.6303 26.3491 32.6303Z" fill="#E0D686"/>
<path d="M27.8689 31.7403C27.9904 31.7403 28.0889 31.6418 28.0889 31.5203C28.0889 31.3988 27.9904 31.3003 27.8689 31.3003C27.7474 31.3003 27.6489 31.3988 27.6489 31.5203C27.6489 31.6418 27.7474 31.7403 27.8689 31.7403Z" fill="#E0D686"/>
<path d="M28.689 33.1901C28.7774 33.1901 28.849 33.1185 28.849 33.0301C28.849 32.9418 28.7774 32.8701 28.689 32.8701C28.6007 32.8701 28.5291 32.9418 28.5291 33.0301C28.5291 33.1185 28.6007 33.1901 28.689 33.1901Z" fill="#E0D686"/>
<path d="M21.6891 31.82C21.91 31.82 22.0891 31.6409 22.0891 31.42C22.0891 31.1991 21.91 31.02 21.6891 31.02C21.4681 31.02 21.2891 31.1991 21.2891 31.42C21.2891 31.6409 21.4681 31.82 21.6891 31.82Z" fill="#E0D686"/>
<path d="M26.2891 30.2403C26.3995 30.2403 26.4891 30.1508 26.4891 30.0403C26.4891 29.9299 26.3995 29.8403 26.2891 29.8403C26.1786 29.8403 26.0891 29.9299 26.0891 30.0403C26.0891 30.1508 26.1786 30.2403 26.2891 30.2403Z" fill="#E0D686"/>
<path d="M24.0391 29.9303C24.1495 29.9303 24.2391 29.8407 24.2391 29.7303C24.2391 29.6198 24.1495 29.5303 24.0391 29.5303C23.9286 29.5303 23.8391 29.6198 23.8391 29.7303C23.8391 29.8407 23.9286 29.9303 24.0391 29.9303Z" fill="#E0D686"/>
<path d="M25.4489 26.7504C25.6201 26.7504 25.7589 26.6116 25.7589 26.4404C25.7589 26.2692 25.6201 26.1304 25.4489 26.1304C25.2777 26.1304 25.1389 26.2692 25.1389 26.4404C25.1389 26.6116 25.2777 26.7504 25.4489 26.7504Z" fill="#E0D686"/>
<path d="M14.679 31.3502C14.8005 31.3502 14.899 31.2517 14.899 31.1302C14.899 31.0087 14.8005 30.9102 14.679 30.9102C14.5575 30.9102 14.459 31.0087 14.459 31.1302C14.459 31.2517 14.5575 31.3502 14.679 31.3502Z" fill="#E0D686"/>
<path d="M23.2989 27.7702C23.3873 27.7702 23.4589 27.6986 23.4589 27.6102C23.4589 27.5218 23.3873 27.4502 23.2989 27.4502C23.2106 27.4502 23.1389 27.5218 23.1389 27.6102C23.1389 27.6986 23.2106 27.7702 23.2989 27.7702Z" fill="#E0D686"/>
<path d="M35.349 25.8103C35.5699 25.8103 35.749 25.6312 35.749 25.4103C35.749 25.1893 35.5699 25.0103 35.349 25.0103C35.1281 25.0103 34.949 25.1893 34.949 25.4103C34.949 25.6312 35.1281 25.8103 35.349 25.8103Z" fill="#E0D686"/>
<path d="M38.2191 27.7403C38.3295 27.7403 38.419 27.6508 38.419 27.5403C38.419 27.4299 38.3295 27.3403 38.2191 27.3403C38.1086 27.3403 38.019 27.4299 38.019 27.5403C38.019 27.6508 38.1086 27.7403 38.2191 27.7403Z" fill="#E0D686"/>
<path d="M38.419 25.4703C38.5294 25.4703 38.619 25.3808 38.619 25.2703C38.619 25.1599 38.5294 25.0703 38.419 25.0703C38.3085 25.0703 38.219 25.1599 38.219 25.2703C38.219 25.3808 38.3085 25.4703 38.419 25.4703Z" fill="#E0D686"/>
<path d="M41.769 26.8402C41.9402 26.8402 42.079 26.7014 42.079 26.5302C42.079 26.359 41.9402 26.2202 41.769 26.2202C41.5978 26.2202 41.459 26.359 41.459 26.5302C41.459 26.7014 41.5978 26.8402 41.769 26.8402Z" fill="#E0D686"/>
<path d="M37.9991 22.3004C38.1206 22.3004 38.2191 22.2019 38.2191 22.0804C38.2191 21.9589 38.1206 21.8604 37.9991 21.8604C37.8776 21.8604 37.7791 21.9589 37.7791 22.0804C37.7791 22.2019 37.8776 22.3004 37.9991 22.3004Z" fill="#E0D686"/>
<path d="M40.4991 24.6003C40.5875 24.6003 40.6591 24.5286 40.6591 24.4403C40.6591 24.3519 40.5875 24.2803 40.4991 24.2803C40.4107 24.2803 40.3391 24.3519 40.3391 24.4403C40.3391 24.5286 40.4107 24.6003 40.4991 24.6003Z" fill="#E0D686"/>
<path d="M44.4591 28.6701C44.68 28.6701 44.8591 28.491 44.8591 28.2701C44.8591 28.0492 44.68 27.8701 44.4591 27.8701C44.2382 27.8701 44.0591 28.0492 44.0591 28.2701C44.0591 28.491 44.2382 28.6701 44.4591 28.6701Z" fill="#E0D686"/>
<path d="M40.2991 28.4601C40.4096 28.4601 40.4991 28.3705 40.4991 28.2601C40.4991 28.1496 40.4096 28.0601 40.2991 28.0601C40.1887 28.0601 40.0991 28.1496 40.0991 28.2601C40.0991 28.3705 40.1887 28.4601 40.2991 28.4601Z" fill="#E0D686"/>
<path d="M43.199 30.4303C43.3095 30.4303 43.399 30.3407 43.399 30.2303C43.399 30.1198 43.3095 30.0303 43.199 30.0303C43.0885 30.0303 42.999 30.1198 42.999 30.2303C42.999 30.3407 43.0885 30.4303 43.199 30.4303Z" fill="#E0D686"/>
<path d="M38.529 31.8099C38.7002 31.8099 38.839 31.6711 38.839 31.4999C38.839 31.3287 38.7002 31.1899 38.529 31.1899C38.3578 31.1899 38.219 31.3287 38.219 31.4999C38.219 31.6711 38.3578 31.8099 38.529 31.8099Z" fill="#E0D686"/>
<path d="M34.6289 29.7901C34.7504 29.7901 34.8489 29.6916 34.8489 29.5701C34.8489 29.4486 34.7504 29.3501 34.6289 29.3501C34.5074 29.3501 34.4089 29.4486 34.4089 29.5701C34.4089 29.6916 34.5074 29.7901 34.6289 29.7901Z" fill="#E0D686"/>
<path d="M40.909 32.2199C40.9974 32.2199 41.069 32.1483 41.069 32.0599C41.069 31.9715 40.9974 31.8999 40.909 31.8999C40.8206 31.8999 40.749 31.9715 40.749 32.0599C40.749 32.1483 40.8206 32.2199 40.909 32.2199Z" fill="#E0D686"/>
<path d="M45.4491 24.7102C45.67 24.7102 45.8491 24.5311 45.8491 24.3102C45.8491 24.0892 45.67 23.9102 45.4491 23.9102C45.2282 23.9102 45.0491 24.0892 45.0491 24.3102C45.0491 24.5311 45.2282 24.7102 45.4491 24.7102Z" fill="#E0D686"/>
<path d="M46.5591 28.9801C46.6696 28.9801 46.7591 28.8905 46.7591 28.7801C46.7591 28.6696 46.6696 28.5801 46.5591 28.5801C46.4487 28.5801 46.3591 28.6696 46.3591 28.7801C46.3591 28.8905 46.4487 28.9801 46.5591 28.9801Z" fill="#E0D686"/>
<path d="M47.709 25.6402C47.8195 25.6402 47.909 25.5507 47.909 25.4402C47.909 25.3298 47.8195 25.2402 47.709 25.2402C47.5986 25.2402 47.509 25.3298 47.509 25.4402C47.509 25.5507 47.5986 25.6402 47.709 25.6402Z" fill="#E0D686"/>
<path d="M51.059 27.0004C51.2302 27.0004 51.369 26.8616 51.369 26.6904C51.369 26.5192 51.2302 26.3804 51.059 26.3804C50.8878 26.3804 50.749 26.5192 50.749 26.6904C50.749 26.8616 50.8878 27.0004 51.059 27.0004Z" fill="#E0D686"/>
<path d="M49.399 26.4903C49.5205 26.4903 49.619 26.3918 49.619 26.2703C49.619 26.1488 49.5205 26.0503 49.399 26.0503C49.2775 26.0503 49.179 26.1488 49.179 26.2703C49.179 26.3918 49.2775 26.4903 49.399 26.4903Z" fill="#E0D686"/>
<path d="M49.7889 24.7599C49.8773 24.7599 49.9489 24.6883 49.9489 24.5999C49.9489 24.5116 49.8773 24.4399 49.7889 24.4399C49.7005 24.4399 49.6289 24.5116 49.6289 24.5999C49.6289 24.6883 49.7005 24.7599 49.7889 24.7599Z" fill="#E0D686"/>
<path d="M53.119 28.26C53.3399 28.26 53.519 28.0809 53.519 27.86C53.519 27.639 53.3399 27.46 53.119 27.46C52.8981 27.46 52.719 27.639 52.719 27.86C52.719 28.0809 52.8981 28.26 53.119 28.26Z" fill="#E0D686"/>
<path d="M49.5889 28.6202C49.6994 28.6202 49.7889 28.5307 49.7889 28.4202C49.7889 28.3098 49.6994 28.2202 49.5889 28.2202C49.4785 28.2202 49.3889 28.3098 49.3889 28.4202C49.3889 28.5307 49.4785 28.6202 49.5889 28.6202Z" fill="#E0D686"/>
<path d="M51.0591 30.3502C51.1696 30.3502 51.2591 30.2607 51.2591 30.1502C51.2591 30.0397 51.1696 29.9502 51.0591 29.9502C50.9487 29.9502 50.8591 30.0397 50.8591 30.1502C50.8591 30.2607 50.9487 30.3502 51.0591 30.3502Z" fill="#E0D686"/>
<path d="M46.249 31.87C46.4202 31.87 46.559 31.7312 46.559 31.56C46.559 31.3888 46.4202 31.25 46.249 31.25C46.0778 31.25 45.939 31.3888 45.939 31.56C45.939 31.7312 46.0778 31.87 46.249 31.87Z" fill="#E0D686"/>
<path d="M48.699 30.4503C48.8205 30.4503 48.919 30.3518 48.919 30.2303C48.919 30.1087 48.8205 30.0103 48.699 30.0103C48.5775 30.0103 48.479 30.1087 48.479 30.2303C48.479 30.3518 48.5775 30.4503 48.699 30.4503Z" fill="#E0D686"/>
<path d="M49.379 32.4001C49.4673 32.4001 49.539 32.3284 49.539 32.2401C49.539 32.1517 49.4673 32.0801 49.379 32.0801C49.2906 32.0801 49.219 32.1517 49.219 32.2401C49.219 32.3284 49.2906 32.4001 49.379 32.4001Z" fill="#E0D686"/>
<path d="M53.929 26.1301C54.15 26.1301 54.329 25.951 54.329 25.7301C54.329 25.5092 54.15 25.3301 53.929 25.3301C53.7081 25.3301 53.5291 25.5092 53.5291 25.7301C53.5291 25.951 53.7081 26.1301 53.929 26.1301Z" fill="#E0D686"/>
<path d="M56.7991 28.0602C56.9096 28.0602 56.9991 27.9706 56.9991 27.8602C56.9991 27.7497 56.9096 27.6602 56.7991 27.6602C56.6887 27.6602 56.5991 27.7497 56.5991 27.8602C56.5991 27.9706 56.6887 28.0602 56.7991 28.0602Z" fill="#E0D686"/>
<path d="M56.9991 25.7999C57.1095 25.7999 57.1991 25.7104 57.1991 25.5999C57.1991 25.4894 57.1095 25.3999 56.9991 25.3999C56.8886 25.3999 56.7991 25.4894 56.7991 25.5999C56.7991 25.7104 56.8886 25.7999 56.9991 25.7999Z" fill="#E0D686"/>
<path d="M60.3591 27.16C60.5303 27.16 60.6691 27.0212 60.6691 26.85C60.6691 26.6788 60.5303 26.54 60.3591 26.54C60.1879 26.54 60.0491 26.6788 60.0491 26.85C60.0491 27.0212 60.1879 27.16 60.3591 27.16Z" fill="#E0D686"/>
<path d="M58.689 26.65C58.8105 26.65 58.909 26.5515 58.909 26.43C58.909 26.3085 58.8105 26.21 58.689 26.21C58.5675 26.21 58.469 26.3085 58.469 26.43C58.469 26.5515 58.5675 26.65 58.689 26.65Z" fill="#E0D686"/>
<path d="M59.089 24.9201C59.1773 24.9201 59.249 24.8485 59.249 24.7601C59.249 24.6717 59.1773 24.6001 59.089 24.6001C59.0006 24.6001 58.929 24.6717 58.929 24.7601C58.929 24.8485 59.0006 24.9201 59.089 24.9201Z" fill="#E0D686"/>
<path d="M62.409 28.4304C62.6299 28.4304 62.8091 28.2513 62.8091 28.0304C62.8091 27.8095 62.6299 27.6304 62.409 27.6304C62.1881 27.6304 62.009 27.8095 62.009 28.0304C62.009 28.2513 62.1881 28.4304 62.409 28.4304Z" fill="#E0D686"/>
<path d="M58.8789 28.7804C58.9894 28.7804 59.0789 28.6908 59.0789 28.5804C59.0789 28.4699 58.9894 28.3804 58.8789 28.3804C58.7685 28.3804 58.679 28.4699 58.679 28.5804C58.679 28.6908 58.7685 28.7804 58.8789 28.7804Z" fill="#E0D686"/>
<path d="M60.3489 30.5104C60.4594 30.5104 60.5489 30.4208 60.5489 30.3104C60.5489 30.1999 60.4594 30.1104 60.3489 30.1104C60.2385 30.1104 60.1489 30.1999 60.1489 30.3104C60.1489 30.4208 60.2385 30.5104 60.3489 30.5104Z" fill="#E0D686"/>
<path d="M57.1091 32.14C57.2803 32.14 57.4191 32.0012 57.4191 31.83C57.4191 31.6588 57.2803 31.52 57.1091 31.52C56.9379 31.52 56.7991 31.6588 56.7991 31.83C56.7991 32.0012 56.9379 32.14 57.1091 32.14Z" fill="#E0D686"/>
<path d="M58.5691 31.15C58.6906 31.15 58.7891 31.0515 58.7891 30.93C58.7891 30.8085 58.6906 30.71 58.5691 30.71C58.4476 30.71 58.3491 30.8085 58.3491 30.93C58.3491 31.0515 58.4476 31.15 58.5691 31.15Z" fill="#E0D686"/>
<path d="M66.139 30.3102C66.2274 30.3102 66.299 30.2386 66.299 30.1502C66.299 30.0619 66.2274 29.9902 66.139 29.9902C66.0506 29.9902 65.979 30.0619 65.979 30.1502C65.979 30.2386 66.0506 30.3102 66.139 30.3102Z" fill="#E0D686"/>
<path d="M61.659 31.9602C61.8799 31.9602 62.0591 31.7811 62.0591 31.5602C62.0591 31.3392 61.8799 31.1602 61.659 31.1602C61.4381 31.1602 61.259 31.3392 61.259 31.5602C61.259 31.7811 61.4381 31.9602 61.659 31.9602Z" fill="#E0D686"/>
<path d="M64.7591 32.3399C64.8695 32.3399 64.9591 32.2504 64.9591 32.1399C64.9591 32.0295 64.8695 31.9399 64.7591 31.9399C64.6486 31.9399 64.5591 32.0295 64.5591 32.1399C64.5591 32.2504 64.6486 32.3399 64.7591 32.3399Z" fill="#E0D686"/>
<path d="M63.949 31.0304C64.0595 31.0304 64.149 30.9408 64.149 30.8304C64.149 30.7199 64.0595 30.6304 63.949 30.6304C63.8385 30.6304 63.749 30.7199 63.749 30.8304C63.749 30.9408 63.8385 31.0304 63.949 31.0304Z" fill="#E0D686"/>
<path d="M55.6889 24.7401C55.8601 24.7401 55.9989 24.6013 55.9989 24.4301C55.9989 24.2589 55.8601 24.1201 55.6889 24.1201C55.5177 24.1201 55.3789 24.2589 55.3789 24.4301C55.3789 24.6013 55.5177 24.7401 55.6889 24.7401Z" fill="#E0D686"/>
<path d="M57.209 23.8599C57.3305 23.8599 57.429 23.7614 57.429 23.6399C57.429 23.5184 57.3305 23.4199 57.209 23.4199C57.0875 23.4199 56.989 23.5184 56.989 23.6399C56.989 23.7614 57.0875 23.8599 57.209 23.8599Z" fill="#E0D686"/>
<path d="M58.0291 25.3102C58.1175 25.3102 58.1891 25.2386 58.1891 25.1502C58.1891 25.0619 58.1175 24.9902 58.0291 24.9902C57.9408 24.9902 57.8691 25.0619 57.8691 25.1502C57.8691 25.2386 57.9408 25.3102 58.0291 25.3102Z" fill="#E0D686"/>
<path d="M48.859 23.5002C49.0799 23.5002 49.259 23.3211 49.259 23.1002C49.259 22.8793 49.0799 22.7002 48.859 22.7002C48.6381 22.7002 48.459 22.8793 48.459 23.1002C48.459 23.3211 48.6381 23.5002 48.859 23.5002Z" fill="#E0D686"/>
<path d="M56.0691 32.9303C56.1796 32.9303 56.2691 32.8407 56.2691 32.7303C56.2691 32.6198 56.1796 32.5303 56.0691 32.5303C55.9587 32.5303 55.8691 32.6198 55.8691 32.7303C55.8691 32.8407 55.9587 32.9303 56.0691 32.9303Z" fill="#E0D686"/>
<path d="M53.8191 32.63C53.9296 32.63 54.0191 32.5404 54.0191 32.43C54.0191 32.3195 53.9296 32.23 53.8191 32.23C53.7087 32.23 53.6191 32.3195 53.6191 32.43C53.6191 32.5404 53.7087 32.63 53.8191 32.63Z" fill="#E0D686"/>
<path d="M55.2289 29.4501C55.4002 29.4501 55.5389 29.3113 55.5389 29.1401C55.5389 28.9689 55.4002 28.8301 55.2289 28.8301C55.0577 28.8301 54.9189 28.9689 54.9189 29.1401C54.9189 29.3113 55.0577 29.4501 55.2289 29.4501Z" fill="#E0D686"/>
<path d="M41.8489 23.0303C41.9704 23.0303 42.0689 22.9318 42.0689 22.8103C42.0689 22.6888 41.9704 22.5903 41.8489 22.5903C41.7274 22.5903 41.6289 22.6888 41.6289 22.8103C41.6289 22.9318 41.7274 23.0303 41.8489 23.0303Z" fill="#E0D686"/>
<path d="M53.0789 30.4699C53.1673 30.4699 53.239 30.3983 53.239 30.3099C53.239 30.2215 53.1673 30.1499 53.0789 30.1499C52.9906 30.1499 52.9189 30.2215 52.9189 30.3099C52.9189 30.3983 52.9906 30.4699 53.0789 30.4699Z" fill="#E0D686"/>
<path d="M63.809 23.8503C64.0299 23.8503 64.209 23.6712 64.209 23.4503C64.209 23.2294 64.0299 23.0503 63.809 23.0503C63.588 23.0503 63.4089 23.2294 63.4089 23.4503C63.4089 23.6712 63.588 23.8503 63.809 23.8503Z" fill="#E0D686"/>
<path d="M67.2891 24.5001C67.3995 24.5001 67.4891 24.4106 67.4891 24.3001C67.4891 24.1896 67.3995 24.1001 67.2891 24.1001C67.1786 24.1001 67.0891 24.1896 67.0891 24.3001C67.0891 24.4106 67.1786 24.5001 67.2891 24.5001Z" fill="#E0D686"/>
<path d="M67.0291 32.9103C67.1396 32.9103 67.2291 32.8207 67.2291 32.7103C67.2291 32.5998 67.1396 32.5103 67.0291 32.5103C66.9187 32.5103 66.8291 32.5998 66.8291 32.7103C66.8291 32.8207 66.9187 32.9103 67.0291 32.9103Z" fill="#E0D686"/>
<path d="M70.6091 32.8803C70.7803 32.8803 70.9191 32.7415 70.9191 32.5703C70.9191 32.399 70.7803 32.2603 70.6091 32.2603C70.4379 32.2603 70.2991 32.399 70.2991 32.5703C70.2991 32.7415 70.4379 32.8803 70.6091 32.8803Z" fill="#E0D686"/>
<path d="M65.399 30.15C65.5205 30.15 65.619 30.0515 65.619 29.93C65.619 29.8085 65.5205 29.71 65.399 29.71C65.2775 29.71 65.179 29.8085 65.179 29.93C65.179 30.0515 65.2775 30.15 65.399 30.15Z" fill="#E0D686"/>
<path d="M68.629 31.3C68.7173 31.3 68.789 31.2283 68.789 31.14C68.789 31.0516 68.7173 30.98 68.629 30.98C68.5406 30.98 68.469 31.0516 68.469 31.14C68.469 31.2283 68.5406 31.3 68.629 31.3Z" fill="#E0D686"/>
<path d="M73.949 31.3403C74.087 31.3403 74.199 31.2284 74.199 31.0903C74.199 30.9523 74.087 30.8403 73.949 30.8403C73.8109 30.8403 73.699 30.9523 73.699 31.0903C73.699 31.2284 73.8109 31.3403 73.949 31.3403Z" fill="#E0D686"/>
<path d="M69.479 24.36C69.5895 24.36 69.679 24.2704 69.679 24.16C69.679 24.0495 69.5895 23.96 69.479 23.96C69.3686 23.96 69.2791 24.0495 69.2791 24.16C69.2791 24.2704 69.3686 24.36 69.479 24.36Z" fill="#E0D686"/>
<path d="M72.929 25.0602C73.0395 25.0602 73.129 24.9706 73.129 24.8602C73.129 24.7497 73.0395 24.6602 72.929 24.6602C72.8186 24.6602 72.729 24.7497 72.729 24.8602C72.729 24.9706 72.8186 25.0602 72.929 25.0602Z" fill="#E0D686"/>
<path d="M69.0991 28.1503C69.2703 28.1503 69.4091 28.0115 69.4091 27.8403C69.4091 27.6691 69.2703 27.5303 69.0991 27.5303C68.9279 27.5303 68.7891 27.6691 68.7891 27.8403C68.7891 28.0115 68.9279 28.1503 69.0991 28.1503Z" fill="#E0D686"/>
<path d="M64.7591 27.7803C64.8806 27.7803 64.9791 27.6818 64.9791 27.5603C64.9791 27.4388 64.8806 27.3403 64.7591 27.3403C64.6376 27.3403 64.5391 27.4388 64.5391 27.5603C64.5391 27.6818 64.6376 27.7803 64.7591 27.7803Z" fill="#E0D686"/>
<path d="M71.5191 27.59C71.6075 27.59 71.6791 27.5184 71.6791 27.43C71.6791 27.3417 71.6075 27.27 71.5191 27.27C71.4308 27.27 71.3591 27.3417 71.3591 27.43C71.3591 27.5184 71.4308 27.59 71.5191 27.59Z" fill="#E0D686"/>
<path d="M73.139 29.51C73.3599 29.51 73.539 29.3309 73.539 29.11C73.539 28.889 73.3599 28.71 73.139 28.71C72.9181 28.71 72.739 28.889 72.739 29.11C72.739 29.3309 72.9181 29.51 73.139 29.51Z" fill="#E0D686"/>
<path d="M75.659 29.4703C75.7694 29.4703 75.859 29.3808 75.859 29.2703C75.859 29.1599 75.7694 29.0703 75.659 29.0703C75.5485 29.0703 75.459 29.1599 75.459 29.2703C75.459 29.3808 75.5485 29.4703 75.659 29.4703Z" fill="#E0D686"/>
<path d="M79.0789 28.29C79.0789 28.41 79.0389 28.52 78.9289 28.58C78.8989 28.6 78.8589 28.61 78.8289 28.62C78.6589 28.65 78.4889 28.55 78.4589 28.39C78.4289 28.22 78.5289 28.05 78.6889 28.02C78.8589 27.99 79.0289 28.09 79.0589 28.25C79.0589 28.26 79.0589 28.27 79.0689 28.28L79.0789 28.29Z" fill="#E0D686"/>
<path d="M77.5391 29.6002C77.6606 29.6002 77.7591 29.5017 77.7591 29.3802C77.7591 29.2587 77.6606 29.1602 77.5391 29.1602C77.4176 29.1602 77.3191 29.2587 77.3191 29.3802C77.3191 29.5017 77.4176 29.6002 77.5391 29.6002Z" fill="#E0D686"/>
<path d="M77.2591 27.8503C77.3475 27.8503 77.4191 27.7786 77.4191 27.6903C77.4191 27.6019 77.3475 27.5303 77.2591 27.5303C77.1708 27.5303 77.0991 27.6019 77.0991 27.6903C77.0991 27.7786 77.1708 27.8503 77.2591 27.8503Z" fill="#E0D686"/>
<path d="M67.5991 25.5502C67.7703 25.5502 67.9091 25.4114 67.9091 25.2402C67.9091 25.069 67.7703 24.9302 67.5991 24.9302C67.4279 24.9302 67.2891 25.069 67.2891 25.2402C67.2891 25.4114 67.4279 25.5502 67.5991 25.5502Z" fill="#E0D686"/>
<path d="M76.0491 25.1002C76.1706 25.1002 76.2691 25.0017 76.2691 24.8802C76.2691 24.7587 76.1706 24.6602 76.0491 24.6602C75.9276 24.6602 75.8291 24.7587 75.8291 24.8802C75.8291 25.0017 75.9276 25.1002 76.0491 25.1002Z" fill="#E0D686"/>
<path d="M78.7691 26.0803C78.8575 26.0803 78.9291 26.0086 78.9291 25.9203C78.9291 25.8319 78.8575 25.7603 78.7691 25.7603C78.6808 25.7603 78.6091 25.8319 78.6091 25.9203C78.6091 26.0086 78.6808 26.0803 78.7691 26.0803Z" fill="#E0D686"/>
<path d="M36.589 23.6203C36.8099 23.6203 36.989 23.4412 36.989 23.2203C36.989 22.9994 36.8099 22.8203 36.589 22.8203C36.3681 22.8203 36.189 22.9994 36.189 23.2203C36.189 23.4412 36.3681 23.6203 36.589 23.6203Z" fill="#E0D686"/>
<path d="M2.12891 17.5303C2.25593 17.5303 2.35892 17.4273 2.35892 17.3003C2.35892 17.1733 2.25593 17.0703 2.12891 17.0703C2.00188 17.0703 1.89893 17.1733 1.89893 17.3003C1.89893 17.4273 2.00188 17.5303 2.12891 17.5303Z" fill="#E0D686"/>
<path d="M4.48904 18.7203C4.61607 18.7203 4.71906 18.6173 4.71906 18.4903C4.71906 18.3632 4.61607 18.2603 4.48904 18.2603C4.36202 18.2603 4.25903 18.3632 4.25903 18.4903C4.25903 18.6173 4.36202 18.7203 4.48904 18.7203Z" fill="#E0D686"/>
<path d="M1.6991 21.9202C1.89792 21.9202 2.05911 21.759 2.05911 21.5602C2.05911 21.3614 1.89792 21.2002 1.6991 21.2002C1.50027 21.2002 1.33911 21.3614 1.33911 21.5602C1.33911 21.759 1.50027 21.9202 1.6991 21.9202Z" fill="#E0D686"/>
<path d="M2.85913 20.2099C3.00272 20.2099 3.11914 20.0935 3.11914 19.9499C3.11914 19.8063 3.00272 19.6899 2.85913 19.6899C2.71554 19.6899 2.59912 19.8063 2.59912 19.9499C2.59912 20.0935 2.71554 20.2099 2.85913 20.2099Z" fill="#E0D686"/>
<path d="M6.57913 24.8702C6.70616 24.8702 6.80914 24.7672 6.80914 24.6402C6.80914 24.5131 6.70616 24.4102 6.57913 24.4102C6.45211 24.4102 6.34912 24.5131 6.34912 24.6402C6.34912 24.7672 6.45211 24.8702 6.57913 24.8702Z" fill="#E0D686"/>
<path d="M5.89896 27.42C6.02598 27.42 6.12894 27.317 6.12894 27.19C6.12894 27.0629 6.02598 26.96 5.89896 26.96C5.77193 26.96 5.66895 27.0629 5.66895 27.19C5.66895 27.317 5.77193 27.42 5.89896 27.42Z" fill="#E0D686"/>
<path d="M2.31897 25.45C2.51779 25.45 2.67899 25.2888 2.67899 25.09C2.67899 24.8912 2.51779 24.73 2.31897 24.73C2.12015 24.73 1.95898 24.8912 1.95898 25.09C1.95898 25.2888 2.12015 25.45 2.31897 25.45Z" fill="#E0D686"/>
<path d="M4.13892 26.1601C4.28251 26.1601 4.39893 26.0437 4.39893 25.9001C4.39893 25.7565 4.28251 25.6401 4.13892 25.6401C3.99532 25.6401 3.87891 25.7565 3.87891 25.9001C3.87891 26.0437 3.99532 26.1601 4.13892 26.1601Z" fill="#E0D686"/>
<path d="M33.4691 26.3303C33.5575 26.3303 33.6291 26.2586 33.6291 26.1703C33.6291 26.0819 33.5575 26.0103 33.4691 26.0103C33.3807 26.0103 33.3091 26.0819 33.3091 26.1703C33.3091 26.2586 33.3807 26.3303 33.4691 26.3303Z" fill="#E0D686"/>
<path d="M33.429 21.8703C33.65 21.8703 33.829 21.6912 33.829 21.4703C33.829 21.2494 33.65 21.0703 33.429 21.0703C33.2081 21.0703 33.0291 21.2494 33.0291 21.4703C33.0291 21.6912 33.2081 21.8703 33.429 21.8703Z" fill="#E0D686"/>
<path d="M31.479 21.9601C31.5895 21.9601 31.679 21.8705 31.679 21.7601C31.679 21.6496 31.5895 21.5601 31.479 21.5601C31.3686 21.5601 31.2791 21.6496 31.2791 21.7601C31.2791 21.8705 31.3686 21.9601 31.479 21.9601Z" fill="#E0D686"/>
<path d="M65.5591 25.0802C65.6696 25.0802 65.7591 24.9906 65.7591 24.8802C65.7591 24.7697 65.6696 24.6802 65.5591 24.6802C65.4487 24.6802 65.3591 24.7697 65.3591 24.8802C65.3591 24.9906 65.4487 25.0802 65.5591 25.0802Z" fill="#E0D686"/>
<path d="M64.0891 26.2701C64.2106 26.2701 64.3091 26.1716 64.3091 26.0501C64.3091 25.9286 64.2106 25.8301 64.0891 25.8301C63.9676 25.8301 63.8691 25.9286 63.8691 26.0501C63.8691 26.1716 63.9676 26.2701 64.0891 26.2701Z" fill="#E0D686"/>
<path d="M79.0789 24.6999C79.2999 24.6999 79.4789 24.5208 79.4789 24.2999C79.4789 24.079 79.2999 23.8999 79.0789 23.8999C78.858 23.8999 78.679 24.079 78.679 24.2999C78.679 24.5208 78.858 24.6999 79.0789 24.6999Z" fill="#E0D686"/>
<path d="M62.0591 25.4903C62.1696 25.4903 62.2591 25.4008 62.2591 25.2903C62.2591 25.1799 62.1696 25.0903 62.0591 25.0903C61.9487 25.0903 61.8591 25.1799 61.8591 25.2903C61.8591 25.4008 61.9487 25.4903 62.0591 25.4903Z" fill="#E0D686"/>
<path d="M75.469 27.9102C75.5905 27.9102 75.689 27.8117 75.689 27.6902C75.689 27.5687 75.5905 27.4702 75.469 27.4702C75.3475 27.4702 75.249 27.5687 75.249 27.6902C75.249 27.8117 75.3475 27.9102 75.469 27.9102Z" fill="#E0D686"/>
</svg>
