<svg width="100" height="66" viewBox="0 0 100 66" fill="none" xmlns="http://www.w3.org/2000/svg">
<path d="M32.2239 47.9205L32.2098 47.5107L18.4468 47.7086L28.8609 38.7499L28.5924 38.439L18.1783 47.3977L20.3544 33.8749L19.9587 33.8184L17.7685 47.3412L10.7033 35.5847L10.35 35.7966L17.4152 47.5531L4.41523 43.0597L4.27393 43.4553L17.2881 47.9347L4.41523 52.8097L4.57066 53.2053L17.4294 48.3162L10.7315 60.2847L11.0848 60.4825L17.7826 48.514L20.3826 61.9662L20.7924 61.8955L18.1924 48.4434L28.875 57.0912L29.1294 56.7662L18.4468 48.1184L32.2239 47.9205Z" fill="black"/>
<path d="M30.7685 35.4447C30.3446 35.0208 29.9065 34.6252 29.4402 34.2578C28.4652 33.4523 27.3913 32.7599 26.2467 32.1947C23.8446 30.9795 21.1174 30.2871 18.2348 30.2871C13.6424 30.2871 9.43153 32.0393 6.29457 34.9078C6.12501 35.0632 5.95544 35.2186 5.80001 35.3741C5.77175 35.4023 5.74349 35.4165 5.71523 35.4447C2.52175 38.6241 0.543488 43.0328 0.543488 47.8936C0.543488 52.7545 2.52175 57.1632 5.72936 60.3425C8.92284 63.5219 13.3598 65.5002 18.2489 65.5002C23.1381 65.5002 27.575 63.5219 30.7685 60.3425C33.962 57.1632 35.9544 52.7404 35.9544 47.8936C35.9544 43.0469 33.9761 38.6099 30.7685 35.4306V35.4447ZM27.8576 57.4458C25.3848 59.8904 22.0076 61.4023 18.2489 61.4023C14.4902 61.4023 11.1131 59.8904 8.64023 57.4458C6.1674 55.0012 4.65544 51.6241 4.65544 47.8936C4.65544 44.1632 6.1674 40.786 8.64023 38.3273C11.0989 35.8828 14.4902 34.3708 18.2489 34.3708C22.0076 34.3708 25.3848 35.8828 27.8576 38.3273C30.3163 40.786 31.8424 44.1491 31.8424 47.8936C31.8424 51.6382 30.3163 55.0012 27.8576 57.4458Z" fill="#495C6B"/>
<path d="M35.9544 47.8946C35.9544 52.7555 33.9761 57.1642 30.7685 60.3435C27.575 63.5229 23.1381 65.5011 18.2489 65.5011C13.3739 65.5011 8.92284 63.5229 5.72936 60.3435C2.52175 57.1642 0.543488 52.7555 0.543488 47.8946C0.543488 43.0337 2.52175 38.6109 5.72936 35.4316C5.75762 35.4033 5.77175 35.3892 5.81414 35.3609C3.97718 38.2153 2.28153 41.7761 2.05544 45.4218C1.54675 53.4055 8.56958 61.8837 15.0978 63.5511C24.5228 65.9533 34.2304 58.1109 34.5837 52.3174C34.937 46.5239 33.7076 39.2468 30.5141 35.9968C29.8359 35.3044 29.525 34.725 29.4544 34.2305C29.9207 34.5979 30.3587 35.0076 30.7826 35.4174C33.9761 38.5968 35.9685 43.0196 35.9685 47.8805L35.9544 47.8946Z" fill="#314C61"/>
<path d="M26.2609 32.181C26.2609 32.8876 25.8511 33.1702 24.7913 32.5626C21.3859 30.5702 15.9598 32.0397 12.8087 32.5626C9.6576 33.0854 8.42825 35.6713 6.91629 35.6713C6.59129 35.6713 6.4076 35.3745 6.30869 34.8941C9.44564 32.0256 13.6565 30.2734 18.2489 30.2734C21.1315 30.2734 23.8587 30.9658 26.2609 32.181Z" fill="#678196"/>
<path d="M95.7261 47.9205L95.7119 47.5107L81.9489 47.7086L92.363 38.7499L92.0945 38.439L81.6804 47.3977L83.8706 33.8749L83.4608 33.8184L81.2706 47.3412L74.2054 35.5847L73.8521 35.7966L80.9174 47.5531L67.9174 43.0597L67.7761 43.4553L80.7902 47.9347L67.9174 52.8097L68.0728 53.2053L80.9315 48.3162L74.2337 60.2847L74.5869 60.4825L81.2989 48.514L83.8848 61.9662L84.2945 61.8955L81.6945 48.4434L92.3771 57.0912L92.6315 56.7662L81.963 48.1184L95.7261 47.9205Z" fill="black"/>
<path d="M98.5239 42.256C98.1 41.0126 97.5489 39.8397 96.8706 38.7376C96.1358 37.5365 95.2456 36.4202 94.2565 35.431C91.063 32.2517 86.6261 30.2734 81.7369 30.2734C80.6348 30.2734 79.5467 30.3724 78.4869 30.5702C78.2043 30.6267 77.9076 30.6832 77.625 30.7539C74.3891 31.5169 71.4924 33.1702 69.2174 35.431C66.0239 38.6104 64.0315 43.0332 64.0315 47.8941C64.0315 48.5723 64.0739 49.2365 64.1445 49.9006C64.1728 50.1267 64.2011 50.3528 64.2435 50.5789C64.2435 50.6919 64.2717 50.7908 64.3 50.9039C64.3141 51.0452 64.3424 51.1723 64.3706 51.2995C64.3706 51.3419 64.3848 51.3984 64.3989 51.4408C64.4271 51.5821 64.4554 51.7093 64.4837 51.8506C64.5119 51.9637 64.5402 52.0767 64.5685 52.1756C64.6391 52.4724 64.7239 52.7691 64.8228 53.0658C64.8652 53.2071 64.9076 53.3343 64.95 53.4615C64.9924 53.6028 65.0489 53.73 65.0913 53.8571C65.1337 53.9843 65.1902 54.1256 65.2467 54.2528C65.4021 54.6484 65.5717 55.0441 65.7554 55.4256C66.1369 56.2169 66.575 56.98 67.0695 57.7147C67.1543 57.8278 67.225 57.955 67.3098 58.068C67.55 58.4071 67.8184 58.7463 68.0869 59.0713C68.3554 59.3963 68.638 59.7071 68.9348 60.018C69.0337 60.131 69.1326 60.2158 69.2315 60.3147C69.3163 60.3995 69.4011 60.4843 69.4858 60.5691C69.5989 60.6821 69.7261 60.7952 69.8391 60.8941C70.0228 61.0637 70.2206 61.2332 70.4185 61.3887C70.6587 61.5865 70.8989 61.7843 71.1532 61.968C71.238 62.0387 71.3369 62.0952 71.4217 62.1658C71.4924 62.2224 71.563 62.2789 71.6478 62.3213C71.775 62.406 71.888 62.4908 72.0293 62.5756C72.1565 62.6604 72.2837 62.7452 72.4108 62.8158C72.7782 63.0419 73.1456 63.2539 73.513 63.4517C73.8804 63.6495 74.2619 63.8332 74.6434 64.0028C74.8271 64.0876 75.025 64.1723 75.2228 64.243C75.2228 64.243 75.2369 64.243 75.2511 64.243C75.5902 64.3702 75.9293 64.4974 76.2685 64.6104C76.3391 64.6387 76.4098 64.6528 76.4804 64.681C76.763 64.7658 77.0315 64.8506 77.3141 64.9213C77.4978 64.9637 77.6815 65.0202 77.8652 65.0484C79.1087 65.3311 80.4087 65.4724 81.7511 65.4724C86.6402 65.4724 91.0771 63.4941 94.2706 60.3147C97.4641 57.1354 99.4565 52.7126 99.4565 47.8658C99.4565 45.9017 99.1315 44.0082 98.5239 42.2278V42.256ZM81.7511 34.3713C85.5098 34.3713 88.8869 35.8832 91.3598 38.3278C93.8184 40.7865 95.3445 44.1495 95.3445 47.8941C95.3445 51.6387 93.8326 55.0017 91.3598 57.4463C88.8869 59.8908 85.5098 61.4028 81.7511 61.4028C77.9924 61.4028 74.6152 59.8908 72.1424 57.4463C69.6695 55.0017 68.1576 51.6245 68.1576 47.8941C68.1576 44.1637 69.6695 40.7865 72.1424 38.3278C74.6011 35.8832 77.9924 34.3713 81.7511 34.3713Z" fill="#495C6B"/>
<path d="M99.4565 47.8932C99.4565 52.7541 97.4782 57.1628 94.2706 60.3421C91.0771 63.5215 86.6402 65.4997 81.7511 65.4997C80.4228 65.4997 79.1228 65.3584 77.8652 65.0758C77.6815 65.0334 77.4978 64.991 77.3141 64.9486C77.0315 64.878 76.7489 64.7932 76.4804 64.7084C76.4098 64.6943 76.3391 64.666 76.2685 64.6378C75.9293 64.5247 75.5902 64.3976 75.2511 64.2704C75.2511 64.2704 75.2369 64.2704 75.2228 64.2704C75.0391 64.1856 74.8413 64.1149 74.6434 64.0302C74.2619 63.8606 73.8804 63.6769 73.513 63.4791C73.1315 63.2812 72.7782 63.0693 72.4108 62.8432C72.2837 62.7584 72.1565 62.6878 72.0293 62.603C71.9021 62.5182 71.775 62.4334 71.6478 62.3486C71.5771 62.3062 71.5065 62.2497 71.4217 62.1932C71.3369 62.1367 71.238 62.066 71.1532 61.9954C70.8989 61.8117 70.6587 61.6139 70.4185 61.416C70.2206 61.2606 70.0369 61.091 69.8391 60.9215C69.7119 60.8084 69.5989 60.7095 69.4858 60.5965C69.4011 60.5117 69.3163 60.4269 69.2315 60.3421C69.1326 60.2432 69.0337 60.1443 68.9348 60.0454C68.638 59.7345 68.3554 59.4236 68.0869 59.0986C67.8184 58.7736 67.55 58.4345 67.3098 58.0954C67.225 57.9823 67.1402 57.8693 67.0695 57.7421C66.575 57.0073 66.1369 56.2443 65.7554 55.453C65.5717 55.0715 65.4021 54.6758 65.2467 54.2802C65.1902 54.153 65.1478 54.0117 65.0913 53.8845C65.0489 53.7573 64.9924 53.616 64.95 53.4889C64.9076 53.3617 64.8652 53.2204 64.8228 53.0932C64.738 52.7965 64.6391 52.4997 64.5685 52.203C64.5402 52.0899 64.5119 51.9769 64.4837 51.878C64.4554 51.7367 64.4271 51.6095 64.3989 51.4682C64.3989 51.4258 64.3848 51.3693 64.3706 51.3269C64.3424 51.1997 64.3141 51.0584 64.3 50.9312C64.2717 50.8182 64.2576 50.7193 64.2435 50.6062C64.2011 50.3802 64.1728 50.1541 64.1445 49.928C64.0739 49.2639 64.0315 48.5997 64.0315 47.9215C64.0315 43.0606 66.0098 38.6378 69.2174 35.4584C71.4924 33.1976 74.3891 31.5443 77.625 30.7812C74.6152 32.2367 71.3793 34.3421 69.288 37.253C64.6108 43.7671 66.0663 54.6899 70.7293 59.5508C77.4695 66.5595 89.9184 65.0052 93.2956 60.2573C96.6728 55.5095 99.513 48.6704 98.5239 44.2334C98.3402 43.3573 98.3543 42.7356 98.5239 42.2834C99.1315 44.0497 99.4565 45.9573 99.4565 47.9215V47.8932Z" fill="#314C61"/>
<path d="M96.8848 38.7376C96.5174 39.3169 96.0087 39.331 95.4576 38.2713C93.6207 34.7952 88.237 33.1843 85.2696 31.9691C82.3163 30.7539 79.9 32.2941 78.6283 31.5028C78.3598 31.3332 78.3598 30.9941 78.5152 30.5702C79.575 30.3724 80.663 30.2734 81.7652 30.2734C86.6543 30.2734 91.0913 32.2517 94.2848 35.431C95.2739 36.4202 96.1641 37.5224 96.8989 38.7376H96.8848Z" fill="#678196"/>
<path d="M65.9815 9.16267C65.9392 9.24745 65.9109 9.40289 65.9109 9.62897C65.9109 10.0388 66.0239 10.6464 66.2359 11.2822C66.4479 11.9322 66.7305 12.6105 67.0131 13.2464C67.5924 14.504 68.2 15.5355 68.2565 15.6485L66.8435 16.4964C66.8435 16.4964 66.4761 15.8888 66.0381 15.0127C65.9533 14.829 65.8544 14.6453 65.7555 14.4333C65.3739 13.6561 64.9783 12.7518 64.6957 11.8616C64.4555 11.0985 64.2718 10.3496 64.2718 9.64311C64.2718 9.27571 64.3142 8.89419 64.4696 8.54093C64.6109 8.17354 64.8935 7.83441 65.275 7.63658C65.7413 7.3681 66.0946 7.12789 66.3348 6.88767C66.5044 6.7181 66.6315 6.56267 66.7163 6.40723C66.7163 6.40723 66.7163 6.40723 66.7163 6.3931C66.7587 6.32245 66.787 6.2518 66.8152 6.18115C66.8718 6.01158 66.9 5.82789 66.9 5.6018C66.9 5.38984 66.8718 5.16376 66.8152 4.90941C66.7305 4.51376 66.575 4.04745 66.3207 3.48223C66.2359 3.29854 66.137 3.15723 66.0098 3.03006C65.8826 2.91702 65.7272 2.8181 65.5435 2.73332C65.1761 2.56376 64.6674 2.4931 64.1163 2.4931C63.3109 2.4931 62.4065 2.66267 61.7142 2.83223C61.7142 2.83223 61.7142 2.83223 61.7 2.83223C61.3326 2.93115 61.0218 3.01593 60.8098 3.10071C60.5979 3.17136 60.4848 3.21376 60.4565 3.21376L59.8631 1.68767C59.8631 1.68767 60.075 1.60289 60.4 1.50397C60.4142 1.50397 60.4424 1.48984 60.4565 1.48984C60.6685 1.41919 60.937 1.34854 61.2196 1.26376C61.6859 1.15071 62.237 1.02354 62.8305 0.938756C63.2402 0.882235 63.6924 0.839844 64.1305 0.839844C64.6533 0.839844 65.1902 0.896365 65.7131 1.03767C66.2359 1.17897 66.7446 1.43332 67.1544 1.82897C67.437 2.09745 67.6772 2.42245 67.8326 2.80397C68.2989 3.86376 68.5533 4.75397 68.5533 5.58767C68.5533 5.96919 68.4968 6.35071 68.3696 6.70397C68.2424 7.05723 68.0587 7.3681 67.8468 7.65071C67.8185 7.6931 67.7902 7.72137 67.762 7.76376C67.3239 8.27245 66.7446 8.66811 66.0805 9.04963C66.0381 9.07789 66.0239 9.09202 65.9815 9.1768V9.16267Z" fill="#9DC5E6"/>
<path d="M61.7142 2.81895C61.7142 2.81895 61.7142 2.81895 61.7 2.81895C61.3326 2.91787 61.0218 3.00265 60.8098 3.08743L60.4 1.49069C60.4 1.49069 60.4424 1.47656 60.4565 1.47656C60.6968 1.92874 61.2055 2.86134 61.5305 2.81895C61.5587 2.81895 61.6294 2.81895 61.7142 2.81895Z" fill="#93BAD9"/>
<path d="M66.3348 6.87301C66.5044 6.70345 66.6315 6.54801 66.7163 6.39258C66.1511 7.98932 64.6957 8.15888 64.6109 9.10562C64.4978 10.1937 65.8402 14.4045 65.8402 14.4045L65.7555 14.4328C65.3739 13.6556 64.9783 12.7513 64.6957 11.8611C64.4555 11.098 64.2718 10.3491 64.2718 9.64258C64.2718 9.27519 64.3142 8.89367 64.4696 8.5404C64.6109 8.17301 64.8935 7.83388 65.275 7.63606C65.7413 7.36758 66.0946 7.12736 66.3348 6.88714V6.87301Z" fill="#93BAD9"/>
<path d="M68.5533 5.58767C68.5533 5.96919 68.4967 6.35071 68.3696 6.70397C68.2424 7.05723 68.0587 7.3681 67.8468 7.65071C67.8185 7.6931 67.7902 7.72137 67.762 7.76376C67.762 7.5518 67.8185 7.33984 67.9033 7.0855C68.8076 4.71158 67.8326 2.8181 64.4978 1.67354C63.862 1.44745 63.2967 1.20723 62.8163 0.938756C63.2261 0.882235 63.6783 0.839844 64.1163 0.839844C64.6391 0.839844 65.1761 0.896365 65.6989 1.03767C66.2218 1.17897 66.7304 1.43332 67.1402 1.82897C67.4228 2.09745 67.6631 2.42245 67.8185 2.80397C68.2848 3.86376 68.5391 4.75397 68.5391 5.58767H68.5533Z" fill="#AEDAFF"/>
<path d="M60.612 4.82345L53.8152 7.11259C53.0098 7.38106 52.162 7.18324 51.5826 6.64628C51.3 6.40606 51.0881 6.08106 50.9609 5.71367V5.68541C50.8902 5.51585 50.862 5.36041 50.8478 5.19085C50.7489 4.17345 51.3565 3.19845 52.3598 2.85932L59.1565 0.570193C59.312 0.513672 59.4674 0.499542 59.6228 0.527802C59.8772 0.556063 60.1315 0.697367 60.287 0.909323C60.3576 0.994106 60.4141 1.09302 60.4565 1.20606L61.2478 3.53759C61.4315 4.07454 61.1348 4.65389 60.5978 4.83759L60.612 4.82345Z" fill="#00223D"/>
<path d="M59.3968 3.02935L52.6 5.31848C51.9924 5.51631 51.3707 5.45978 50.8478 5.17717C50.7489 4.15978 51.3565 3.18478 52.3598 2.84565L59.1565 0.556521C59.312 0.5 59.4674 0.48587 59.6228 0.514131L60.0326 1.72935C60.2163 2.26631 59.9196 2.84565 59.3826 3.02935H59.3968Z" fill="#003057"/>
<path d="M60.612 4.82474L53.8152 7.11388C53.0098 7.38235 52.162 7.18453 51.5826 6.64757C52.5435 6.68996 54.7337 6.63344 56.9239 5.65844C59.8348 4.34431 61.1065 4.11822 61.0217 3.49648C60.9511 2.91714 60.2446 1.58888 60.3011 0.896484C60.3717 0.981267 60.4283 1.08018 60.4707 1.19322L61.262 3.52474C61.4457 4.0617 61.1489 4.64105 60.612 4.82474Z" fill="#001729"/>
<path d="M82.7261 47.5394L67.9033 13.8525C67.7478 13.4992 67.4794 13.372 67.1685 13.4003C66.9283 13.4003 66.6598 13.4851 66.3913 13.5981C65.7696 13.8666 65.3739 14.2198 65.6565 14.8416L66.6881 17.1872L38.3 31.9535L34.9794 21.5959L34.0185 18.572C33.8065 17.922 33.1141 17.5688 32.4641 17.7666C31.8141 17.9644 31.4609 18.6709 31.6587 19.3068L32.2098 21.0307L32.4783 21.8503L36.1098 33.2112L17.2174 46.8612L17.1467 46.9177C16.7228 47.2144 16.5391 47.7655 16.6804 48.2601C16.8217 48.7546 17.288 49.1079 17.7967 49.1362L42.4402 50.4079C42.4402 50.4079 42.4826 50.4079 42.5109 50.4079C42.5674 50.4079 42.6098 50.4079 42.6663 50.4079C42.7087 50.4079 42.737 50.4079 42.7794 50.3938C42.8076 50.3938 42.85 50.3938 42.8783 50.3796C42.8783 50.3796 42.9065 50.3796 42.9207 50.3655C42.9631 50.3514 42.9913 50.3372 43.0196 50.3231C43.062 50.309 43.1044 50.2807 43.1467 50.2525L43.2315 50.1959C43.2315 50.1959 43.3163 50.1394 43.3446 50.097C43.3446 50.097 43.3728 50.0829 43.387 50.0688L68.8218 24.3372C68.9489 24.2101 69.062 24.097 69.1468 24.0122C69.3728 23.7862 69.5 23.659 69.5 23.659L80.4652 48.5709C80.7337 49.1927 81.4685 49.4753 82.0902 49.2068C82.5283 49.009 82.7968 48.5992 82.825 48.1612C82.825 47.9633 82.8109 47.7655 82.7261 47.5818V47.5394ZM37.0848 47.6525L21.4 46.847C21.4 46.847 21.4 46.847 21.4424 46.8188L36.8728 35.6699L39.6989 44.5014L40.1087 45.7731L40.7728 47.8362L37.0848 47.6525ZM68.2424 21.3557L46.2272 43.6253L45.7326 44.134L43.0478 46.847L42.412 44.8546L39.0348 34.3133C39.0348 34.3133 39.0348 34.3133 39.0489 34.3133L67.5359 19.4905L68.2989 21.2992C68.2989 21.2992 68.2848 21.3133 68.2424 21.3557Z" fill="#448DFF"/>
<path d="M68.8076 24.2933L43.3728 50.0248C43.3728 50.0248 43.3445 50.039 43.3304 50.0531C43.288 50.0814 43.2598 50.1237 43.2174 50.152L43.1326 50.2085C43.1326 50.2085 43.0478 50.2509 43.0054 50.2792C42.9771 50.2792 42.9348 50.3074 42.9065 50.3216C42.9065 50.3216 42.8782 50.3216 42.8641 50.3357C42.8358 50.3357 42.7935 50.3357 42.7652 50.3498C42.7228 50.3498 42.6945 50.364 42.6521 50.364C42.5956 50.364 42.5532 50.364 42.4967 50.364C42.4685 50.364 42.4543 50.364 42.4261 50.364L17.7826 49.0922C17.2598 49.064 16.8076 48.7107 16.6663 48.2161C16.525 47.7216 16.7087 47.1705 17.1326 46.8737L17.2032 46.8172C17.288 47.4672 17.613 48.0183 18.4608 48.089C20.6793 48.2868 34.8804 50.2509 36.6467 48.089C36.7739 47.9335 36.9293 47.7781 37.0989 47.6085C37.8337 46.9444 38.9217 46.2944 40.1228 45.7292C40.8717 45.3759 41.6489 45.065 42.4261 44.8107C43.6554 44.4009 44.8565 44.1324 45.7467 44.0759C46.1 44.0618 46.4108 44.0759 46.6511 44.1324C48.4456 44.5563 65.2185 27.8542 68.8217 24.2227L68.8076 24.2933Z" fill="#3F83ED"/>
<path d="M37.0283 32.9711C36.5478 34.6243 19.987 47.1863 17.2033 46.8472L36.0957 33.1972L32.4641 21.8363L32.1957 21.0167C32.4783 20.6069 32.6337 20.3809 32.6337 20.3809C32.6337 20.3809 37.5087 31.3178 37.0283 32.9569V32.9711Z" fill="#3F83ED"/>
<path d="M34.9652 21.5829C34.3435 21.8797 33.1565 21.8797 32.45 21.8514L31.6446 19.3079C31.4326 18.6579 31.8 17.9655 32.45 17.7677C33.1 17.5699 33.7924 17.9232 34.0044 18.5732L34.9652 21.5971V21.5829Z" fill="#356DC4"/>
<path d="M39.9815 44.3904L39.6989 44.5035L36.8728 35.672L21.4424 46.8209C22.2761 46.1144 36.0533 34.6263 37.3957 35.1774C37.975 35.4035 39.9957 44.4046 39.9957 44.4046L39.9815 44.3904Z" fill="#356DC4"/>
<path d="M82.825 48.118C82.6554 48.3582 82.5141 48.4854 82.387 48.4854C80.8609 48.3864 67.7196 16.706 66.7446 15.2364C66.3348 14.6147 66.6457 13.9506 67.1543 13.3995C67.4652 13.3854 67.7337 13.5125 67.8891 13.8517L82.712 47.5386C82.7967 47.7223 82.825 47.9201 82.8109 48.118H82.825Z" fill="#5295FF"/>
<path d="M46.2271 43.625L68.2424 21.3555C67.1119 22.6413 48.8413 43.2294 46.2271 43.625Z" fill="#356DC4"/>
<path d="M67.55 19.4913L39.063 34.3141C39.8685 33.8337 65.9109 18.2478 67.0978 18.4174C68.2989 18.587 68.2989 21.2717 68.2989 21.3141L67.5359 19.5054L67.55 19.4913Z" fill="#356DC4"/>
<path d="M42.9206 18.9518C42.85 19.2202 42.6522 19.4605 42.2848 19.63C42.1717 19.6724 42.0587 19.7148 41.9315 19.7148C41.3946 19.7713 40.6174 19.5735 39.3174 19.4746C35.4033 19.192 34.5837 21.0289 34.0326 21.1985C33.4815 21.3539 25.5685 20.9583 23.9435 19.0083C23.5337 18.5137 23.3641 18.005 23.3359 17.5105C23.2793 16.5778 23.7032 15.7159 24.0424 15.1931C24.2543 14.8681 24.4239 14.6702 24.4239 14.6702C25.8228 14.1898 29.1717 14.8398 32.4924 15.2213C36.9293 15.7441 41.4087 16.2246 42.1152 17.0018C42.6239 17.5528 43.1043 18.3441 42.9489 18.9659L42.9206 18.9518Z" fill="#6E0021"/>
<path d="M42.9207 18.9527C42.3413 18.8255 41.663 18.557 41.013 18.1614C39.2326 17.0875 32.8174 18.1896 28.6913 17.7092C26.5011 17.4548 24.975 16.2538 24.0283 15.1657C24.2402 14.8407 24.4098 14.6429 24.4098 14.6429C25.8087 14.1625 29.1576 14.8125 32.4783 15.194C36.9152 15.7168 41.3946 16.1972 42.1011 16.9744C42.6098 17.5255 43.0902 18.3168 42.9348 18.9385L42.9207 18.9527Z" fill="#871336"/>
<path d="M41.9315 19.7161C41.3946 19.7726 40.6174 19.5748 39.3174 19.4758C35.4033 19.1932 34.5837 21.0302 34.0326 21.1998C33.4815 21.3552 25.5685 20.9595 23.9435 19.0095C23.5337 18.515 23.3641 18.0063 23.3359 17.5117C24.1413 18.4585 25.5826 19.8432 27.2076 19.8574C29.6946 19.8998 33.8631 20.1824 36.9152 19.1226C39.0207 18.3878 40.8435 19.4052 41.9457 19.7302L41.9315 19.7161Z" fill="#61001D"/>
<path d="M47.725 49.2917C47.725 50.4787 47.2446 51.5526 46.4533 52.3298C45.6761 53.107 44.588 53.5874 43.387 53.5874C42.1859 53.5874 41.112 53.107 40.3207 52.3298C39.5435 51.5526 39.063 50.4787 39.063 49.2917C39.063 48.1048 39.5435 47.0309 40.3207 46.2537C41.112 45.4765 42.1859 44.9961 43.387 44.9961C44.588 44.9961 45.662 45.4765 46.4533 46.2537C47.2446 47.0309 47.725 48.1048 47.725 49.2917Z" fill="#AEDBFF"/>
<path d="M49.3641 48.2454C49.1522 47.0019 48.5446 45.8856 47.6826 45.0378C46.5946 43.9497 45.0826 43.2856 43.4152 43.2715H43.4011C42.1152 43.2715 40.9141 43.6813 39.9391 44.3595C39.6565 44.5574 39.3739 44.7834 39.1337 45.0378C38.0315 46.1258 37.3533 47.6378 37.3533 49.2911C37.3533 50.9584 38.0315 52.4704 39.1337 53.5584C40.2218 54.6324 41.7196 55.3106 43.3728 55.3247H43.4152C45.0826 55.3247 46.5946 54.6465 47.6826 53.5584C48.7848 52.4704 49.4489 50.9584 49.4631 49.3052C49.4631 48.9378 49.4348 48.5987 49.3783 48.2454H49.3641ZM46.4533 52.3432C45.6761 53.1204 44.5881 53.6008 43.387 53.6008C42.1859 53.6008 41.112 53.1204 40.3207 52.3432C39.5435 51.5661 39.0631 50.4921 39.0631 49.3052C39.0631 48.3726 39.3598 47.4965 39.8685 46.79C40.0098 46.6063 40.1511 46.4226 40.3207 46.253C41.112 45.4758 42.1859 44.9954 43.387 44.9954C44.5881 44.9954 45.662 45.4758 46.4533 46.253C47.2446 47.0302 47.725 48.1041 47.725 49.2911C47.725 49.3758 47.725 49.4606 47.725 49.5595C47.6544 50.6476 47.1881 51.6226 46.4674 52.3432H46.4533Z" fill="#9BC3E3"/>
<g style="mix-blend-mode:screen" opacity="0.24">
<path d="M49.3642 48.2454C48.9968 48.8106 48.4174 49.2487 47.725 49.5595C46.6511 50.0258 45.2805 50.153 43.8815 49.8139C41.9457 49.3617 40.4478 48.1606 39.8968 46.7758C39.6565 46.1824 39.5859 45.5465 39.7413 44.9389C39.7837 44.7411 39.8544 44.5432 39.9533 44.3595C40.9283 43.6813 42.1294 43.2715 43.4152 43.2715H43.4294C45.0968 43.2715 46.6087 43.9497 47.6968 45.0378C48.5587 45.8856 49.1663 47.0019 49.3783 48.2454H49.3642Z" fill="#C9E8FF"/>
</g>
<path d="M53.0239 50.549C53.0239 50.549 53.0239 50.6338 53.0239 50.662C52.9674 51.1142 52.5435 51.4251 52.0913 51.3544L43.1044 50.0968C42.6522 50.0262 42.3413 49.6164 42.3978 49.1642C42.4261 48.9664 42.525 48.7827 42.6663 48.6696C42.8359 48.5142 43.0761 48.4294 43.3304 48.4718L52.3174 49.7294C52.7272 49.7859 53.0239 50.1392 53.0239 50.5349V50.549Z" fill="#7391A8"/>
<path d="M53.0239 50.5485C52.8544 50.704 52.6141 50.7746 52.3739 50.7464L43.387 49.4887C42.9772 49.4322 42.6805 49.079 42.6805 48.6833C42.85 48.5279 43.0902 48.4431 43.3446 48.4855L52.3315 49.7431C52.7413 49.7996 53.0381 50.1529 53.0381 50.5485H53.0239Z" fill="#83A5BF"/>
<path d="M43.3304 49.7306C43.5646 49.7306 43.7544 49.5408 43.7544 49.3067C43.7544 49.0726 43.5646 48.8828 43.3304 48.8828C43.0963 48.8828 42.9065 49.0726 42.9065 49.3067C42.9065 49.5408 43.0963 49.7306 43.3304 49.7306Z" fill="#668196"/>
<path d="M58.1956 50.3649L58.012 51.9193L57.9837 52.1595C57.9272 52.6399 57.4891 52.9791 57.0087 52.9225L52.8261 52.428C52.3457 52.3715 51.9924 51.9334 52.0489 51.453L52.2609 49.6584C52.3033 49.3475 52.487 49.1073 52.7413 48.9801C52.8826 48.8954 53.0522 48.8671 53.2359 48.8954L57.4185 49.3899C57.8989 49.4464 58.2522 49.8845 58.1956 50.3508V50.3649Z" fill="black"/>
<path d="M58.1957 50.3645L58.012 51.9188C57.8707 52.0036 57.7011 52.0319 57.5316 52.0177L53.1794 51.509C52.7413 51.4525 52.4305 51.0569 52.4729 50.6329L52.6283 49.3047C52.6283 49.1916 52.6707 49.0786 52.7413 48.9938C52.8826 48.909 53.0522 48.8808 53.2359 48.909L57.4185 49.4036C57.8989 49.4601 58.2522 49.8982 58.1957 50.3645Z" fill="#16324A"/>
</svg>
