<svg width="73" height="200" viewBox="0 0 73 200" fill="none" xmlns="http://www.w3.org/2000/svg">
<mask id="mask0_103_196" style="mask-type:luminance" maskUnits="userSpaceOnUse" x="0" y="0" width="73" height="200">
<path d="M72.33 0L37.6701 200H0.550049L35.22 0H72.33Z" fill="white"/>
</mask>
<g mask="url(#mask0_103_196)">
<mask id="mask1_103_196" style="mask-type:luminance" maskUnits="userSpaceOnUse" x="-82" y="0" width="201" height="200">
<path d="M118.34 0H-81.6599V200H118.34V0Z" fill="white"/>
</mask>
<g mask="url(#mask1_103_196)">
<path d="M118.34 0H-81.6597V200H118.34V0Z" fill="#B0E3FF"/>
<g opacity="0.56">
<path d="M133.24 85.7906C133.24 81.6306 130.49 77.9106 125.37 77.9106C127.82 70.4306 122.34 66.0906 116.53 66.0906C115.07 66.0906 113.68 66.3706 112.41 66.8706C112.27 61.0606 107.39 56.3906 101.38 56.3906C96.0901 56.3906 91.6701 60.0106 90.6001 64.8406C89.0701 64.0606 87.3201 63.6106 85.4701 63.6106C81.6901 63.6106 78.3601 65.4606 76.3701 68.2706C74.8901 66.9806 72.9401 66.2006 70.7901 66.2006C66.2201 66.2006 62.5101 69.7506 62.4101 74.1706C61.4401 73.7906 60.3901 73.5806 59.2801 73.5806C54.8601 73.5806 50.7002 76.8806 52.5602 82.5706C48.6702 82.5706 46.5801 85.4006 46.5801 88.5606C46.5801 92.9406 49.9101 96.5606 54.2401 97.1706C54.5701 99.8006 56.5301 102.081 59.3401 102.741C60.4401 103.001 61.5402 102.981 62.5602 102.721C62.4902 105.731 64.5701 108.501 67.7101 109.231C71.2801 110.071 74.8601 107.981 75.8001 104.551C76.4801 105.021 77.2601 105.391 78.1301 105.591C80.1701 106.071 82.3601 105.621 83.7401 104.191C85.4801 107.901 89.3101 110.491 93.7801 110.491C96.8101 110.491 99.5401 109.301 101.54 107.381C102.4 107.521 103.3 107.481 104.17 107.281C105.04 107.081 105.82 106.721 106.5 106.241C107.44 109.671 111.02 111.761 114.59 110.921C117.73 110.181 119.81 107.421 119.74 104.411C120.76 104.661 121.86 104.681 122.96 104.431C126.58 103.581 128.8 100.041 127.92 96.5206C127.87 96.3006 127.8 96.1006 127.73 95.8906C128.22 95.5106 128.65 95.0606 129.03 94.5706C131.6 92.4706 133.23 89.3206 133.23 85.8106L133.24 85.7906Z" fill="white"/>
<path d="M131.03 92.5604C132.02 90.8404 132.96 88.7604 132.96 87.0704C132.96 82.8704 129.85 78.9504 124.78 78.9504C127.22 71.4104 122.16 67.2004 116.4 67.2004C114.95 67.2004 113.58 67.4904 112.33 67.9804C112.19 62.1204 107.35 57.4104 101.39 57.4104C96.1501 57.4104 91.7801 61.0604 90.7101 65.9304C89.1801 65.1504 87.4501 64.6804 85.6301 64.6804C81.8901 64.6804 78.5801 66.5404 76.6101 69.3904C75.1301 68.1004 73.2001 67.3004 71.0701 67.3004C66.5401 67.3004 62.8701 70.8804 62.7601 75.3304C61.8001 74.9604 60.7601 74.7504 59.6601 74.7504C55.2901 74.7504 51.1601 78.0704 53.0101 83.8104C50.6601 83.7904 46.6501 86.8104 48.1201 92.7004C48.2801 93.3304 48.6001 93.8004 48.9201 94.3904C48.1201 93.5004 47.3101 92.3904 46.9201 90.9304C45.4001 85.0504 49.5101 82.0204 51.9401 82.0404C50.0401 76.3004 54.2901 72.9804 58.7801 72.9804C59.9101 72.9804 60.9901 73.2004 61.9701 73.5804C62.0901 69.1204 65.8701 65.5404 70.5201 65.5404C72.7001 65.5404 74.7001 66.3404 76.2001 67.6304C78.2401 64.7804 81.6301 62.9204 85.4801 62.9204C87.3601 62.9204 89.1401 63.3804 90.7001 64.1704C91.8001 59.2904 96.3101 55.6504 101.69 55.6504C107.82 55.6504 112.78 60.3604 112.92 66.2204C114.23 65.7304 115.64 65.4404 117.13 65.4404C123.05 65.4404 128.62 69.8204 126.13 77.3804C131.34 77.3804 134.14 81.1204 134.14 85.3204C134.14 87.6604 132.29 90.7304 131.02 92.5804L131.03 92.5604Z" fill="#BAECFF"/>
<path d="M90.9402 88.7404C90.7302 89.4204 90.4302 90.0404 90.0402 90.6004C90.1802 90.3204 90.3002 90.0204 90.3902 89.7104C91.5002 86.1104 89.3902 82.3304 85.7002 81.2604C83.5002 80.6204 81.2402 81.0704 79.5302 82.3104C79.2502 82.5104 79.0002 82.7204 78.7602 82.9604C78.6402 82.7004 78.5202 82.4504 78.3802 82.2104C77.4002 80.5304 75.7902 79.1904 73.7402 78.5904C69.5402 77.3704 65.1102 79.7004 63.8602 83.7804C63.7302 84.1804 63.6502 84.6004 63.6002 85.0004C63.5502 85.3204 63.5302 85.6404 63.5302 85.9604C63.4102 85.9104 63.3002 85.8704 63.1702 85.8404C63.1602 85.8404 63.1402 85.8304 63.1302 85.8304C61.0002 85.2404 58.7902 86.4104 58.1602 88.4704C57.9402 89.2004 57.9402 89.9604 58.1502 90.6604C57.7002 89.7604 57.5902 88.7104 57.9102 87.6704C58.5802 85.5104 60.8802 84.2604 63.1102 84.8304C63.1202 84.1204 63.2402 83.3904 63.4602 82.6804C64.8002 78.3304 69.5202 75.8504 73.9902 77.1504C76.3502 77.8304 78.1802 79.4304 79.1702 81.4404C80.9902 79.8604 83.5802 79.2104 86.0902 79.9404C89.9302 81.0604 92.1202 84.9904 90.9702 88.7304L90.9402 88.7404Z" fill="#BAECFF"/>
</g>
<g opacity="0.56">
<path d="M49.0401 4.39055C49.0401 1.69055 50.8301 -0.729453 54.1501 -0.729453C52.5601 -5.57945 56.1101 -8.39945 59.8901 -8.39945C60.8401 -8.39945 61.7401 -8.21945 62.5701 -7.88945C62.6601 -11.6595 65.8301 -14.6895 69.7301 -14.6895C73.1601 -14.6895 76.0301 -12.3395 76.7301 -9.20945C77.7301 -9.71945 78.8601 -10.0095 80.0601 -10.0095C82.5101 -10.0095 84.6801 -8.80945 85.9701 -6.97945C86.9301 -7.81945 88.2001 -8.32945 89.5901 -8.32945C92.5601 -8.32945 94.9601 -6.02945 95.0301 -3.15945C95.6601 -3.40945 96.3401 -3.54945 97.0601 -3.54945C99.9301 -3.54945 102.63 -1.40945 101.42 2.28055C103.94 2.28055 105.3 4.12055 105.3 6.17055C105.3 9.01055 103.14 11.3605 100.32 11.7605C100.1 13.4705 98.8301 14.9505 97.0101 15.3805C96.3001 15.5505 95.5801 15.5305 94.9201 15.3705C94.9701 17.3305 93.6101 19.1205 91.5801 19.6005C89.2701 20.1405 86.9401 18.7905 86.3301 16.5605C85.8901 16.8705 85.3801 17.1005 84.8201 17.2305C83.5001 17.5405 82.0701 17.2505 81.1801 16.3205C80.0501 18.7305 77.5601 20.4105 74.6601 20.4105C72.7001 20.4105 70.9201 19.6405 69.6301 18.3905C69.0701 18.4805 68.4901 18.4605 67.9201 18.3205C67.3601 18.1905 66.8501 17.9505 66.4101 17.6505C65.8001 19.8705 63.4701 21.2305 61.1601 20.6905C59.1201 20.2105 57.7701 18.4205 57.8201 16.4605C57.1501 16.6205 56.4401 16.6405 55.7301 16.4705C53.3801 15.9205 51.9401 13.6205 52.5101 11.3405C52.5401 11.2005 52.5901 11.0605 52.6301 10.9305C52.3101 10.6805 52.0301 10.3905 51.7901 10.0705C50.1201 8.71055 49.0601 6.66055 49.0601 4.38055L49.0401 4.39055Z" fill="white"/>
<path d="M50.4801 8.78031C49.8401 7.66031 49.2301 6.31031 49.2301 5.22031C49.2301 2.49031 51.2501 -0.0496874 54.5401 -0.0496874C52.9601 -4.93969 56.2401 -7.67969 59.9801 -7.67969C60.9201 -7.67969 61.8101 -7.48969 62.6301 -7.16969C62.7201 -10.9697 65.8601 -14.0297 69.7301 -14.0297C73.1301 -14.0297 75.9701 -11.6597 76.6601 -8.49969C77.6501 -9.00969 78.7701 -9.30969 79.9601 -9.30969C82.3901 -9.30969 84.5401 -8.09969 85.8201 -6.24969C86.7801 -7.08969 88.0401 -7.60969 89.4101 -7.60969C92.3501 -7.60969 94.7301 -5.27969 94.8001 -2.39969C95.4201 -2.63969 96.1002 -2.77969 96.8102 -2.77969C99.6502 -2.77969 102.33 -0.619687 101.13 3.10031C102.66 3.10031 105.26 5.05031 104.31 8.87031C104.21 9.28031 104 9.58031 103.79 9.97031C104.31 9.39031 104.84 8.67031 105.09 7.72031C106.07 3.91031 103.41 1.94031 101.83 1.95031C103.06 -1.76969 100.3 -3.92969 97.3901 -3.92969C96.6601 -3.92969 95.9501 -3.78969 95.3201 -3.53969C95.2401 -6.43969 92.7901 -8.75969 89.7701 -8.75969C88.3601 -8.75969 87.0601 -8.23969 86.0801 -7.39969C84.7601 -9.24969 82.5501 -10.4597 80.0501 -10.4597C78.8301 -10.4597 77.6801 -10.1597 76.6601 -9.64969C75.9501 -12.8197 73.0201 -15.1797 69.5301 -15.1797C65.5501 -15.1797 62.3301 -12.1197 62.2401 -8.31969C61.3901 -8.63969 60.4801 -8.82969 59.5001 -8.82969C55.6601 -8.82969 52.0401 -5.97969 53.6601 -1.07969C50.2801 -1.07969 48.4601 1.35031 48.4601 4.07031C48.4601 5.59031 49.6601 7.58031 50.4801 8.78031Z" fill="#BAECFF"/>
<path d="M72.7902 9.06984C72.9302 9.50984 73.1202 9.90984 73.3802 10.2798C73.2902 10.0998 73.2102 9.89984 73.1502 9.69984C72.4302 7.36984 73.8002 4.90984 76.1902 4.20984C77.6202 3.78984 79.0902 4.08984 80.2002 4.88984C80.3802 5.01984 80.5402 5.15984 80.7002 5.30984C80.7802 5.13984 80.8602 4.97984 80.9502 4.81984C81.5802 3.72984 82.6302 2.85984 83.9602 2.46984C86.6802 1.67984 89.5602 3.18984 90.3802 5.83984C90.4602 6.09984 90.5202 6.36984 90.5502 6.62984C90.5802 6.83984 90.6002 7.04984 90.6002 7.24984C90.6802 7.21984 90.7502 7.18984 90.8302 7.16984C90.8302 7.16984 90.8502 7.16984 90.8602 7.16984C92.2402 6.78984 93.6702 7.54984 94.0902 8.88984C94.2302 9.36984 94.2302 9.85984 94.0902 10.3098C94.3802 9.72984 94.4602 9.03984 94.2502 8.36984C93.8202 6.96984 92.3302 6.15984 90.8802 6.52984C90.8802 6.06984 90.8002 5.59984 90.6502 5.13984C89.7802 2.31984 86.7202 0.709841 83.8102 1.54984C82.2802 1.98984 81.0902 3.02984 80.4502 4.32984C79.2702 3.29984 77.5902 2.87984 75.9602 3.35984C73.4702 4.07984 72.0502 6.63984 72.7902 9.06984Z" fill="#BAECFF"/>
<path d="M61.2901 6.0701C61.5501 6.2801 61.8301 6.4401 62.1201 6.5601C61.9901 6.4901 61.8701 6.4001 61.7501 6.3101C60.3801 5.2001 60.1701 3.23011 61.2801 1.91011C61.9401 1.12011 62.9201 0.740105 63.9001 0.790105C64.0601 0.790105 64.2101 0.820106 64.3601 0.850106C64.3401 0.720106 64.3201 0.600105 64.3001 0.470105C64.2201 -0.419895 64.4801 -1.3299 65.1001 -2.0599C66.3701 -3.5599 68.6601 -3.75989 70.2201 -2.49989C70.3801 -2.37989 70.5201 -2.2399 70.6401 -2.0999C70.7501 -1.9899 70.8401 -1.86989 70.9201 -1.74989C70.9501 -1.79989 70.9801 -1.83989 71.0201 -1.88989C71.0201 -1.88989 71.0201 -1.8999 71.0301 -1.8999C71.6801 -2.6499 72.8201 -2.7499 73.6101 -2.1099C73.8901 -1.8799 74.0901 -1.5899 74.1901 -1.2699C74.1201 -1.7199 73.8901 -2.1599 73.4901 -2.4799C72.6601 -3.1399 71.4601 -3.05989 70.7701 -2.28989C70.5801 -2.55989 70.3401 -2.8099 70.0701 -3.0299C68.4101 -4.3699 65.9701 -4.1599 64.6201 -2.5599C63.9101 -1.7199 63.6401 -0.649895 63.8001 0.360105C62.6901 0.200105 61.5401 0.590105 60.7801 1.49011C59.6201 2.86011 59.8401 4.9101 61.2601 6.0601L61.2901 6.0701Z" fill="#BAECFF"/>
</g>
<path d="M80.7702 23.6C79.2102 23.23 71.1102 21.97 69.8002 22C68.1202 22.03 67.3502 22 66.8902 21.94C66.8902 21.94 66.6202 22.77 66.2702 22.61C66.2702 22.61 66.2602 23.13 65.8802 23.05C65.8802 23.05 66.0102 23.59 65.4702 23.44C65.4702 23.44 65.8802 24.04 65.2302 24.08C65.2302 24.08 65.7902 24.61 65.2402 24.64C65.2402 24.64 64.9002 24.84 65.3602 25.23C65.8202 25.62 65.8602 26.1 65.6202 25.97C65.6202 25.97 66.1902 26.59 65.9802 26.83C65.9802 26.83 66.8402 27.86 66.3502 27.99C66.3502 27.99 66.8902 28.81 66.4902 28.94C66.4902 28.94 67.2202 29.91 66.6502 29.97C66.6502 29.97 67.2902 30.9 66.7502 30.9C66.7502 30.9 67.4702 31.96 66.8802 31.9C66.8802 31.9 67.5402 32.99 67.0702 33.03C67.0702 33.03 65.4902 33.49 62.2602 28.55C61.2602 27.03 59.4402 24.42 58.6802 22.82C58.3602 22.15 58.5502 21.4 58.5502 21.4C58.5502 21.4 57.9502 21.43 57.3602 21.35C57.2002 21.33 57.0402 21.3 56.9002 21.26C56.5802 21.18 56.2202 20.9 56.0902 20.84C56.0802 20.84 56.0702 20.83 56.0602 20.83C55.6802 20.8 54.9902 20.76 54.9902 20.76L55.6502 20.12C55.6502 20.12 55.6602 18.38 58.6602 18.21C58.6602 18.21 56.9802 17.72 58.0902 15.45C59.1902 13.19 61.5602 9.19004 63.3602 8.79004C63.3602 8.79004 63.8302 8.83004 63.4502 9.79004C63.4502 9.79004 63.9502 9.79004 63.5602 10.59C63.5602 10.59 64.1102 10.56 63.7002 11.51C63.7302 11.5 64.1302 11.35 63.8402 12.3C63.8402 12.3 64.3602 12.2 64.0002 13.19C64.0002 13.19 64.4302 13.26 63.9602 14.12C63.9602 14.12 64.4202 14.36 63.8302 15.11C63.8302 15.11 64.3702 15.47 63.6402 16C63.6402 16 64.2602 16.01 64.1102 16.57C64.1102 16.57 64.7702 16.76 64.6602 17.06C64.6602 17.06 65.1602 17.2 65.1302 17.6C65.1302 17.6 65.7702 17.5 65.6802 17.9C65.6802 17.9 66.4402 18.23 66.1402 18.47C66.1402 18.47 66.3602 18.91 65.2802 18.76C65.2802 18.76 68.8202 20.08 69.3202 20.38C69.8202 20.68 81.1502 21.45 81.8102 21.18C81.8102 21.18 82.3502 21.75 76.1402 21.39C70.8402 21.09 71.7402 21.08 72.0902 21.51C72.2702 21.73 81.9302 23.58 82.0702 23.58C82.2102 23.58 82.3402 23.95 80.7802 23.58L80.7702 23.6Z" fill="#212166"/>
<path d="M59.1302 21.4199C59.1302 21.4199 58.2602 21.7699 59.3102 23.3099C60.3602 24.8499 60.4802 25.0799 60.4802 25.0799C60.4802 25.0799 61.3202 24.6699 60.8902 24.0299C60.8902 24.0299 61.6502 23.6299 61.1202 22.8499C61.1202 22.8499 63.4702 22.9999 63.7202 22.5199C63.9702 22.0399 62.6702 21.6199 62.6702 21.6199C62.6702 21.6199 59.7602 21.6599 59.1402 21.4299L59.1302 21.4199Z" fill="#ADA7A7"/>
<path d="M59.5102 21.4597C59.5102 21.4597 59.7802 19.3197 58.9302 18.3197C58.0802 17.3197 57.3202 16.2597 59.0602 14.9697C59.0602 14.9697 60.4202 15.5897 60.4602 16.5797C60.4602 16.5797 62.2802 16.3497 62.2202 16.9497C62.2202 16.9497 63.4202 16.7797 63.5102 17.4097C63.5102 17.4097 65.5802 17.8097 62.7802 18.3597L61.8502 18.5897C61.8502 18.5897 64.9502 19.1797 65.3802 19.7997C65.8102 20.4197 66.8202 19.9997 68.0302 20.9997C69.2402 21.9997 66.7302 21.8697 66.7302 21.8697C66.7302 21.8697 62.1002 22.7297 59.5102 21.4597Z" fill="#B8B1B1"/>
<path d="M57.3502 21.3598C57.1902 21.3398 57.0302 21.3098 56.8902 21.2698C56.5702 21.1898 56.2102 20.9098 56.0802 20.8498C56.3502 20.6498 55.9302 20.1098 55.9302 20.1098C55.5702 19.6598 56.4302 18.9698 56.8502 18.9098C57.2602 18.8498 57.1602 19.3998 57.8202 19.6598C58.4202 19.8998 57.8402 21.0198 57.3502 21.3598Z" fill="#802929"/>
<path d="M56.5106 19.3136C56.633 19.2497 56.6991 19.1344 56.6582 19.0561C56.6174 18.9778 56.485 18.966 56.3626 19.0299C56.2402 19.0937 56.1741 19.209 56.2149 19.2874C56.2558 19.3657 56.3882 19.3775 56.5106 19.3136Z" fill="black"/>
<path d="M87.4302 137.01L86.7102 137.07L87.2202 139.85L85.0202 141.54L81.3902 138.59V142.55C81.3902 142.55 72.6902 134.78 61.7402 126.51C50.7602 118.23 41.3902 119.17 27.3002 115.46C13.2002 111.74 -0.299759 72.1602 -0.299759 72.1602C-1.47976 72.8202 -2.73975 72.7502 -2.73975 72.7502C-1.72975 72.1602 -1.29976 68.4502 -1.29976 68.4502C-2.06976 68.8702 -3.24976 68.4502 -3.24976 68.4502C-2.91976 66.5002 0.710243 62.7102 0.710243 62.7102C-2.24976 63.9802 -4.09975 62.2902 -4.09975 62.2902C-2.50975 62.1402 -1.96976 60.8602 -1.90976 60.7002C-3.17976 61.2602 -4.93976 60.1802 -4.93976 60.1802C-4.93976 60.1802 -0.629759 60.0902 5.02024 53.1002C9.60024 47.4102 6.98025 38.2302 4.79025 31.5602C4.79025 31.5602 4.79024 31.5402 4.78024 31.5402C4.27024 29.9902 3.79024 28.5702 3.42024 27.3502C1.47024 20.9402 3.10024 18.1602 3.10024 18.1602C3.10024 18.1602 3.16024 18.2102 3.30024 18.2702C4.58024 18.9002 11.5302 22.3402 13.3702 23.7202C14.1202 24.2802 14.6202 26.3102 15.1302 29.0702C15.7502 32.5702 16.3502 37.2602 17.3202 41.6602C17.6702 43.2602 18.0602 44.8102 18.5302 46.2602C24.0002 63.3002 32.6002 57.3102 47.6502 67.0202C48.6202 67.6402 49.6102 68.3002 50.6002 69.0102C50.6202 69.0102 50.6502 69.0302 50.6702 69.0402C55.6502 72.5102 60.7702 76.6102 64.3702 78.9102C78.7202 88.1102 90.4402 136.8 90.4402 136.8L87.4402 137L87.4302 137.01Z" fill="#F0F5F5"/>
<path d="M5.69025 24.0801C5.69025 24.0801 7.60025 27.9801 8.67025 28.6501C9.74025 29.3201 13.0602 31.1801 14.4102 33.0901C15.7602 35.0001 16.5003 37.5101 16.5003 37.5101L15.1403 24.0801H5.69025Z" fill="#DCE6E8"/>
<path d="M27.3703 112.27C27.3703 112.27 33.7603 128.47 32.6203 135.64C32.6203 135.64 31.1603 140.44 33.8703 145.24C35.1603 147.52 34.0603 166.49 33.6703 170.57C33.3903 173.58 33.6903 198.13 34.7703 199.41C34.7703 199.41 34.0103 206.57 34.7103 210.1C35.0303 211.73 33.6803 212.91 34.6103 214.18C35.5403 215.45 36.8803 214.31 36.7003 213.01C36.5203 211.71 37.7603 211.18 38.2103 210.38C38.6603 209.58 37.8003 198.47 37.7203 196.42C37.6403 194.37 37.6603 145.75 37.6603 145.75C37.6603 145.75 38.3403 144.05 37.9603 139.17C37.8403 137.65 36.9303 136.44 36.7903 134.78C36.1403 126.77 35.3903 117.98 35.1803 117.13C34.7803 115.53 27.3703 112.27 27.3703 112.27Z" fill="#D15C20"/>
<path d="M20.0503 20.95C20.1903 24.52 18.0703 28.2 15.1303 29.07C15.0703 29.09 15.0203 29.1 14.9703 29.13C9.41026 30.55 10.8403 27.78 6.36026 25.41C6.11026 25.27 5.89026 25.15 5.68026 25.02L5.65026 24.99C2.87026 23.23 2.26026 20.77 3.09026 18.16C3.36026 17.28 3.81026 16.37 4.40026 15.48C4.41026 15.47 4.42026 15.46 4.42026 15.46C5.32026 14.1 6.81026 13.52 8.34026 13.33C11.0003 13 13.7803 13.85 13.7803 13.85C18.1403 14.9 19.9303 17.88 20.0403 20.96L20.0503 20.95Z" fill="#F0F5F5"/>
<path d="M24.6202 111.58C23.9402 109.55 38.6302 110.19 39.3902 109.05C40.1502 107.91 39.0202 113.91 35.6302 117.6C34.7402 118.57 34.6202 117.04 34.0402 117.28C33.8302 117.37 33.5702 118.4 33.3502 118.47C32.8702 118.61 32.2302 117.38 31.7402 117.39C31.4902 117.39 31.3902 118.68 31.1402 118.65C30.9102 118.62 30.5102 117.82 30.2802 117.77C30.0702 117.72 30.0502 118.43 29.8502 118.35C28.9902 118.04 28.1703 117.52 27.4803 116.77C25.8003 114.97 24.9402 112.52 24.6202 111.57V111.58Z" fill="#C9D2D4"/>
<path d="M86.7102 137.07L87.2102 139.85L85.0202 141.54L81.4002 138.59V142.56C81.4002 142.56 72.7002 134.79 61.7402 126.52C50.7702 118.24 41.3902 119.17 27.3002 115.47C24.7602 114.8 22.2402 112.96 19.8302 110.41C19.7902 110.37 19.7602 110.36 19.7602 110.36C8.75019 98.6999 -0.29982 72.1799 -0.29982 72.1799C-1.47982 72.8499 -2.74982 72.7699 -2.74982 72.7699C-1.72982 72.1799 -1.30982 68.4599 -1.30982 68.4599C-1.30982 68.4599 0.260183 69.0199 -0.0698166 70.2099C-0.0698166 70.2099 3.30018 66.9999 4.32018 64.1299C4.32018 64.1299 5.14018 66.7999 4.49018 68.3199C4.69018 68.0199 6.18018 65.5599 6.42018 64.1299C6.42018 64.1299 6.92018 68.2699 6.42018 69.1899C6.42018 69.1899 8.44018 68.8599 8.79018 67.7599C8.79018 67.7599 9.81018 72.3999 6.93018 74.2499C4.06018 76.0999 8.03018 88.7699 15.8002 93.6599C15.8002 93.6599 18.1502 98.3899 21.8702 99.1499C25.5902 99.9099 37.4802 103.79 37.4802 103.79L56.3902 112.67L81.5902 124.52L83.9802 125.64L84.6402 127.85L87.4202 137.03L86.7102 137.08V137.07Z" fill="#DCE6E8"/>
<path d="M86.7103 137.07L87.2103 139.85L85.0203 141.54L81.4003 138.59V142.56C81.4003 142.56 72.7003 134.79 61.7403 126.52C50.7703 118.24 41.3903 119.17 27.3003 115.47C24.7603 114.8 22.2403 112.96 19.8303 110.41C20.7403 111.15 30.9903 118.9 52.5503 113.32C53.8503 112.98 55.1403 112.76 56.4003 112.67C66.4103 111.86 75.2003 117.97 81.6003 124.52C82.7003 125.63 83.7203 126.75 84.6503 127.85L87.4303 137.03L86.7203 137.08L86.7103 137.07Z" fill="#C9D2D4"/>
<path d="M35.6503 112.67C34.9703 110.64 49.6603 111.28 50.4203 110.14C51.1803 109 50.2603 114.89 46.5903 118.31C44.3903 120.36 41.6403 120.45 39.3603 118.01C37.6803 116.21 35.9603 113.62 35.6503 112.67Z" fill="#DCE6E8"/>
<path d="M20.0503 20.95C19.4203 20.59 18.6103 20.59 17.7603 21.92C16.1203 24.5 13.2203 21.18 9.39029 18.41C6.84029 16.57 7.58029 14.51 8.34029 13.33C11.0003 13 13.7803 13.85 13.7803 13.85C18.1403 14.9 19.9303 17.88 20.0403 20.96L20.0503 20.95Z" fill="white"/>
<path d="M14.1703 22.7703C14.1703 22.7703 15.3203 23.4603 14.6803 23.9503C14.0403 24.4403 13.3803 23.4103 13.1103 22.9603C12.8403 22.5103 12.0303 22.6303 11.3903 22.3403C9.62031 21.5403 10.2203 20.6703 9.86031 20.0503C9.50031 19.4303 8.13031 19.5603 9.40031 18.4003C9.68031 18.1403 9.81031 18.8003 10.5903 19.3403C11.3703 19.8803 11.5003 18.8603 13.2603 20.6003C14.0703 21.4103 13.2403 21.5603 14.1803 22.7603L14.1703 22.7703Z" fill="#54250D"/>
<path d="M13.1103 21.9406C13.1103 21.9406 13.6503 20.9206 12.4703 20.1506C11.2903 19.3806 10.6003 19.7806 10.4403 19.9406C10.2803 20.1006 10.3103 21.2906 11.5203 21.9406C12.1303 22.2706 12.7503 22.2406 13.1103 21.9406Z" fill="#34610E"/>
<path d="M12.0703 20.3005C12.0703 20.3005 12.6103 20.7805 12.3903 20.8605C12.1703 20.9405 11.4803 20.6605 11.3303 20.3905C11.1803 20.1205 11.5503 20.0705 12.0703 20.3005Z" fill="white"/>
<path d="M46.5902 118.19C46.5902 118.19 44.6002 120.43 42.9902 119.23C41.3802 118.03 41.9802 119.51 41.9802 119.51L40.2802 118.84C40.2802 118.84 42.5902 124.03 42.7102 130.4C42.7502 132.45 43.4002 137.53 42.9402 138.27C42.4802 139.01 41.2902 143.78 43.4402 146.1C43.4402 146.1 43.4002 148.38 43.4002 149.77C43.4002 151.16 43.2702 193.2 43.4402 193.78C43.6102 194.36 45.1502 198.11 44.4502 199.64C43.7502 201.17 44.7302 210.22 46.2202 211.28C47.7202 212.34 47.4002 206.61 47.4702 206.14C47.5402 205.67 49.0502 205.57 49.6202 206.35C50.1902 207.13 51.2302 203.16 49.7802 197.98C49.7802 197.98 52.1202 194.89 49.6502 190.63C47.1802 186.37 46.4202 181.68 47.1202 178.34C47.8202 175 48.0302 151.37 47.2002 146.71C47.0902 146.09 49.3202 144.42 47.5802 139.8C45.4102 134.02 45.9702 130.41 45.8702 126.67C45.7502 122.27 45.9102 120.49 46.5802 118.19H46.5902Z" fill="#FF7126"/>
<path d="M37.7903 49.6202L14.1603 29.3102C14.1603 29.3102 15.5403 27.2502 14.8603 25.3002C14.7703 25.0602 14.6503 24.8202 14.4803 24.5902C14.4403 24.5102 14.4103 24.4702 14.4103 24.4702C14.4103 24.4702 17.2403 25.6902 18.7103 22.4902C18.7103 22.4902 38.7503 47.4302 37.7903 49.6202Z" fill="#D15C20"/>
<path d="M37.7903 49.62C30.6503 43 21.9203 34.3 17.4703 29.17C16.3503 27.89 15.3803 26.26 14.8703 25.31C14.6803 24.98 14.5503 24.74 14.4903 24.6C14.4503 24.52 14.4203 24.48 14.4203 24.48C14.4203 24.48 17.2503 25.7 18.7203 22.5C18.7203 22.5 38.7603 47.44 37.8003 49.63L37.7903 49.62Z" fill="#FF7126"/>
<path d="M20.5703 28.6499C20.5703 28.6499 19.2803 26.7499 19.1003 26.1899C18.9203 25.6299 18.0503 26.3099 18.4303 26.6599C18.8103 27.0099 19.5403 28.0399 20.5703 28.6499Z" fill="#4A3022"/>
<path d="M15.4503 26.3098C15.4503 26.3098 16.7203 28.9298 19.4703 31.9598C22.0003 34.7398 34.6903 46.7098 35.3803 47.3598C34.6503 46.5698 17.9003 30.8698 15.4503 26.2998V26.3098Z" fill="#944922"/>
<path d="M4.79028 31.56C4.79028 31.56 4.79028 31.55 4.78028 31.55C4.28028 29.99 3.79028 28.58 3.42028 27.36C1.48028 20.95 3.10028 18.17 3.10028 18.17C3.38028 17.28 3.83028 16.37 4.41028 15.49C4.42028 15.48 4.44028 15.46 4.44028 15.46C3.85028 16.46 3.50028 17.4 3.32028 18.28C2.50028 22.26 5.36028 24.73 5.67028 25C5.68028 25.01 5.70028 25.03 5.70028 25.03C3.35028 25.18 4.80028 31.57 4.80028 31.57L4.79028 31.56Z" fill="#DCE6E8"/>
<path d="M16.6402 73.51C16.6402 73.51 26.9202 66.51 51.3402 76.13C75.7602 85.75 74.5802 99 74.5802 99C74.5802 99 44.7002 106.26 30.5302 101.11C16.3502 95.96 16.6502 73.51 16.6502 73.51H16.6402Z" fill="#F0F5F5"/>
<path d="M16.6402 73.5098C16.6402 73.5098 15.9602 91.6298 27.7802 100.29C39.6002 108.95 52.8702 112.78 56.2502 115.26C59.6302 117.74 66.7102 126.62 72.5702 125.72C72.5702 125.72 78.3102 132.25 83.1502 132.47C83.1502 132.47 88.7802 142.15 98.9002 141.58V137.08L101.6 140.23L100.81 134.94L102.5 135.5C102.5 135.5 100.59 129.31 98.7902 127.96L100.7 128.41C100.7 128.41 87.6502 109.62 80.6702 101.97L84.3802 104C84.3802 104 82.0302 97.5398 80.2302 96.6398C80.2302 96.6398 81.5802 96.7698 81.9602 97.3598C81.9602 97.3598 77.1602 83.8898 51.3402 76.1198C51.3402 76.1198 72.1602 85.5698 73.2302 97.0198C73.3602 98.3698 71.2602 97.0198 71.2602 97.0198C71.2602 97.0198 70.9502 99.0498 68.9702 99.0398C67.0102 99.0398 64.7902 97.5298 64.7902 97.5298C64.7902 97.5298 64.5602 99.0798 63.5002 98.9698C62.6102 98.8798 61.6402 97.7298 61.6402 97.7298C61.6402 97.7298 60.5002 98.8598 60.0202 98.9398C58.8202 99.1498 58.0402 97.7598 58.0402 97.7598C58.0402 97.7598 55.4002 99.0398 54.2202 98.8798C51.6902 98.5398 49.7702 96.3998 49.7702 96.3998C49.7702 96.3998 49.3202 98.8998 47.5202 98.9898C45.7202 99.0798 43.5302 96.7998 43.5302 96.7998C43.5302 96.7998 43.7802 99.2298 42.3502 98.9398C40.6502 98.5898 39.5402 96.9098 39.5402 96.9098C39.5402 96.9098 39.0302 99.2698 36.6102 99.6098C34.1902 99.9498 31.1002 96.3998 31.1002 96.3998C31.1002 96.3998 32.1102 100.23 29.7802 99.4398C16.8302 95.0698 16.6602 73.5198 16.6602 73.5198L16.6402 73.5098Z" fill="black"/>
<path d="M20.6302 76.2899C20.0802 79.4399 21.5202 94.1999 27.3702 91.8299C33.2202 89.4599 28.2502 84.5899 28.2502 84.5899C28.2502 84.5899 34.0002 94.6299 36.7302 90.8199C39.4602 87.0099 34.7202 84.2799 34.7202 84.2799C34.7202 84.2799 42.6302 93.2699 46.0802 90.1799C49.5302 87.0899 43.0602 82.7699 43.0602 82.7699C43.0602 82.7699 54.3502 94.7099 56.8602 89.1699C59.3702 83.6299 50.3902 79.9699 50.3902 79.9699C50.3902 79.9699 60.3702 83.1299 55.8502 79.6299C52.1102 76.7399 33.1902 65.9099 24.0402 69.3099C22.1202 70.0199 21.1702 73.1499 20.6202 76.2999L20.6302 76.2899Z" fill="white"/>
<path d="M50.5803 69.0099C43.7003 64.5899 28.8803 62.4799 22.7103 58.6799C16.6403 54.9299 17.2803 42.1199 17.3003 41.6699C17.6503 43.2599 18.0403 44.8099 18.5103 46.2499C23.9803 63.2899 32.5803 57.2999 47.6303 67.0099C48.6003 67.6299 49.5903 68.2899 50.5803 68.9999V69.0099Z" fill="white"/>
<path d="M-37.5297 155.08C-36.1497 154.36 -34.7897 153.55 -33.4397 152.65C-33.4397 152.65 -29.9997 151.01 -27.4097 151.16C-27.4097 151.16 -23.7397 145.77 -21.4697 145.54C-21.4697 145.54 -20.3797 147.34 -16.3897 144.2C-12.4097 141.08 -0.919731 125.75 1.51027 120.74C1.51027 120.74 1.99027 122.45 1.29027 123.55C1.49027 123.39 4.62027 120.72 6.43027 112.31C6.43027 112.31 7.50026 114.44 7.13026 115.52C7.63026 114.58 10.0003 109.52 8.23026 101.91C8.23026 101.91 8.00027 94.0198 3.47027 90.8098C1.87027 89.6698 0.650269 88.3198 -0.239731 87.0398C-0.519731 86.6198 -0.779733 86.2198 -0.999733 85.8398C-1.10973 85.6398 -1.21973 85.4698 -1.28973 85.3298C-1.30973 85.2798 -1.33974 85.2298 -1.37974 85.1798C-2.15974 83.6998 -2.46973 82.6098 -2.46973 82.6098C-2.46973 82.6098 2.14027 83.7698 4.33027 80.0298C4.33027 80.0298 7.93027 70.7198 0.420265 68.0598C-7.08974 65.3998 -11.3097 65.7198 -14.2797 73.5398C-17.2597 81.3498 -8.17973 82.6898 -9.27973 93.8698C-9.27973 93.8698 -25.3697 87.3798 -41.5697 109.27C-57.7497 131.16 -66.6597 159.23 -67.3697 160.6C-68.0197 161.84 -52.1897 162.87 -37.5297 155.09V155.08Z" fill="white"/>
<path d="M4.33032 80.0197C4.33032 80.0197 0.940321 81.0697 1.18032 77.9997C1.42032 74.9397 0.22032 73.2397 -2.28968 72.4297C-2.28968 72.4297 -3.55968 73.2897 -0.99968 74.7797C1.55032 76.2897 -0.109682 81.9797 -1.75968 82.5597C-1.75968 82.5597 -3.93968 81.2397 -5.35968 79.9297C-4.30968 81.1097 -2.42968 83.2897 -1.37968 85.1797C-2.15968 83.6997 -2.46968 82.6097 -2.46968 82.6097C-2.46968 82.6097 2.14032 83.7697 4.33032 80.0297V80.0197Z" fill="#DCE6E8"/>
<path d="M-41.5197 154.04L-37.5297 155.08C-36.1497 154.36 -34.7897 153.55 -33.4397 152.65C-33.4397 152.65 -29.9997 151.01 -27.4097 151.16C-27.4097 151.16 -23.7397 145.77 -21.4697 145.54C-21.4697 145.54 -20.3797 147.34 -16.3897 144.2C-12.4097 141.08 -0.919719 125.75 1.51028 120.74C1.51028 120.74 1.99028 122.45 1.29028 123.55C1.49028 123.39 4.62028 120.72 6.43028 112.31C6.43028 112.31 7.50028 114.44 7.13028 115.52C7.63028 114.58 10.0003 109.52 8.23027 101.91C8.23027 101.91 8.00028 94.02 3.47028 90.81C1.87028 89.67 0.650281 88.32 -0.239719 87.04C2.80028 91.8 10.0603 103.26 5.82028 111.65C5.82028 111.65 5.81028 110.09 5.00028 109.89C5.00028 109.89 4.24028 114.86 1.13028 115.4C1.60028 115.33 4.34028 115.06 2.10028 118.69C-0.349723 122.65 -1.38973 125.72 -2.90973 125.88C-2.90973 125.88 -0.909722 120.77 -2.03972 118.07C-2.03972 118.07 -2.90972 123.43 -4.46972 124.73C-4.46972 124.73 -6.49973 122.49 -6.55973 120.71C-6.59973 121.65 -6.79972 124 -7.74972 125.36C-7.74972 125.36 -7.95972 123.27 -8.52972 122.43C-8.52972 122.43 -11.2397 128.84 -13.9597 129.89C-13.9597 129.89 -12.6997 128.09 -12.3597 125.47C-12.3597 125.47 -17.2797 131.83 -19.4997 133.86C-21.7197 135.89 -25.0997 140.63 -27.1597 140.22C-27.1597 140.22 -29.3297 142.58 -30.5997 142.25C-31.8897 141.91 -41.5297 154.03 -41.5297 154.03L-41.5197 154.04Z" fill="#DCE6E8"/>
<path d="M1.31028 77.7896C0.930279 78.4796 0.120281 78.7696 0.140281 77.9896C0.200281 75.1196 -1.65972 74.5996 -1.18972 74.2396C-0.719721 73.8796 0.740276 74.3196 1.19028 75.5696C1.40028 76.1396 1.69028 77.0996 1.31028 77.7996V77.7896Z" fill="#54250D"/>
<path d="M10.3504 112.51L-2.03964 82.6799C-2.03964 82.6799 -0.979642 82.2499 -0.289642 81.4599C0.400358 80.6699 0.590357 80.0499 0.530357 79.7599C0.530357 79.6699 0.520355 79.6299 0.520355 79.6299C0.520355 79.6299 11.6804 111.09 10.3604 112.51H10.3504Z" fill="#D15C20"/>
<path d="M10.3504 112.51C7.0504 103.38 3.18041 91.6901 1.40041 85.1301C0.950406 83.4901 0.710403 81.6201 0.600403 80.5501C0.560403 80.1801 0.530401 79.9101 0.520401 79.7501C0.520401 79.6601 0.510406 79.6201 0.510406 79.6201C0.510406 79.6201 3.3904 81.1501 4.3204 80.0101C4.3204 80.0101 11.6704 111.08 10.3404 112.5L10.3504 112.51Z" fill="#FF7126"/>
<path d="M3.80029 86.1806C3.80029 86.1806 3.4103 83.9306 3.4303 83.3606C3.4503 82.7906 2.6303 82.9506 2.8103 83.4406C2.9903 83.9306 3.22029 85.1606 3.80029 86.1806Z" fill="#4A3022"/>
<path d="M0.750397 81.7002C0.750397 81.7002 0.930396 84.5702 2.0704 88.5002C3.1204 92.1102 8.9404 108.52 9.2504 109.41C8.9404 108.38 1.2304 86.8102 0.750397 81.7002Z" fill="#944922"/>
<path d="M103.34 199.23C103.34 199.23 99.7403 197.21 99.7003 196.43C99.6603 195.65 99.3703 195.95 100.52 192.66C101.67 189.37 102.05 186.58 98.8603 185.47L99.3403 179.83L97.2503 179.9L96.9203 178.49L93.7903 178.6L93.3003 173.94L89.1303 174.08L88.3903 170.65L79.9603 168.1C79.9603 168.1 74.9603 168.29 83.5603 167.8C83.5603 167.8 78.6903 163.47 74.0603 165.05C69.4303 166.63 67.0503 164.33 74.5503 162.66C74.5503 162.66 69.7903 157.88 58.9703 161.09C58.9703 161.09 59.1703 159.21 57.7303 156.42C57.7303 156.42 57.8303 159.1 48.6103 157.58C39.3903 156.06 37.0203 155.74 34.1603 156.04C34.1603 156.04 43.9603 155.5 42.7203 151.48C42.7203 151.48 35.9503 155.17 29.0503 153.16C22.1603 151.16 9.06028 155.87 9.06028 155.87C9.06028 155.87 10.8403 153.68 24.6503 150.53C24.6503 150.53 19.7703 146.07 14.1303 146.42C6.83028 146.87 -0.0297192 150.86 -1.89972 152.65C-3.76972 154.44 -11.5697 155.15 -11.2497 153.62C-10.9297 152.09 -7.77972 151.89 -7.77972 151.89C-7.77972 151.89 -19.8197 149.6 -22.5697 152.13C-25.3197 154.66 -32.2697 156.82 -33.7597 155.86C-35.2397 154.89 -32.7797 155.16 -30.5597 154.98C-28.3397 154.8 -37.5697 151.67 -41.1397 156.16C-44.7097 160.65 -45.1497 158.93 -46.7997 157.36C-48.4497 155.79 -53.7497 155.97 -53.7497 155.97C-53.7497 155.97 -53.0997 157.98 -53.0797 158.55C-52.9897 161.09 -63.3197 157.95 -61.9197 159.94C-60.5197 161.92 -69.1397 159.03 -75.3297 160.86C-81.5097 162.69 -80.2697 166.7 -80.2697 166.7C-80.2697 166.7 -78.4397 161.86 -71.2197 162.64C-63.9997 163.41 -65.4997 164.26 -66.6197 165.42C-67.7397 166.58 -71.3297 166.08 -73.0497 168.48C-74.7597 170.87 -76.1297 174.07 -78.8997 173.66C-81.6697 173.25 -76.5797 170.67 -76.5797 170.67C-76.5797 170.67 -83.0697 171.74 -84.3497 174.63C-85.3297 176.84 -83.2597 181.18 -85.8297 181.97C-88.3997 182.76 -91.6197 183.19 -91.5497 181.97C-91.4797 180.75 -94.6597 187.23 -90.9297 188.63C-87.1997 190.03 -91.4797 191.85 -93.9697 191.53C-96.4597 191.21 -100.72 191.04 -100.9 195.42C-100.9 195.42 -99.1697 193.43 -94.8097 194.4C-90.4497 195.37 -93.6097 198.01 -95.0397 202.62C-96.1697 206.24 -94.2697 206.88 -94.9097 209.75C-95.5597 212.62 -98.6797 213.27 -96.9097 217.37C-95.1397 221.47 -83.5497 221.38 -83.0297 221.36C-82.5097 221.34 -83.2997 222.29 -86.5497 222.76C-87.3497 222.88 -79.0097 226.22 -77.4397 226.27C-75.8697 226.32 -74.6197 229.39 -79.3197 227.03C-81.3297 226.02 -83.6197 226.48 -83.6197 226.48C-83.6197 226.48 -79.5097 230.62 -74.5297 231.39C-57.0097 234.08 -62.1797 237.1 -71.6097 237.23C-71.6097 237.23 -70.3097 239.43 -55.8697 238.86C-37.5997 238.15 103.32 199.27 103.32 199.27L103.34 199.23Z" fill="#947A46"/>
<path d="M-100.9 195.39C-100.73 191.19 -92.2997 192.08 -89.9097 192.38C-87.4997 192.7 -85.6597 189.42 -89.2397 188.08C-92.8097 186.75 -91.4797 180.77 -91.5397 181.94C-91.5997 183.12 -87.5697 183.76 -85.1197 182.99C-82.6497 182.22 -83.1397 177.38 -83.2497 175.14C-83.3597 172.9 -76.5897 170.63 -76.5897 170.63C-76.5897 170.63 -78.1297 174.87 -75.4797 175.27C-72.8297 175.67 -73.9097 171.62 -72.2597 169.33C-70.6297 167.04 -64.7897 168.5 -63.7297 167.38C-62.6497 166.28 -65.0997 164.9 -72.0197 164.17C-78.9397 163.43 -80.2697 166.67 -80.2697 166.67C-80.2697 166.67 -80.6797 163.38 -74.7697 161.62C-68.8397 159.87 -58.0197 163.78 -59.3697 161.88C-60.6997 159.99 -64.9297 160.51 -62.3597 159.27C-59.7897 158.01 -51.5997 162.11 -51.7097 159.69C-51.8197 157.27 -53.7697 155.97 -53.7697 155.97C-53.7697 155.97 -47.8097 157.52 -46.2297 159.02C-44.6497 160.52 -44.3197 162.35 -40.8997 158.06C-37.4597 153.75 -28.5297 154.81 -30.6597 154.99C-32.7697 155.15 -33.6597 157.33 -32.2497 158.26C-30.8297 159.17 -24.1697 157.1 -21.5397 154.68C-18.8897 152.26 -7.77974 151.88 -7.77974 151.88C-7.77974 151.88 -10.7497 152.47 -11.0697 153.93C-11.3697 155.4 -3.53974 156.89 -1.73974 155.17C0.0402615 153.46 6.62025 149.65 13.6203 149.21C19.0103 148.88 24.6403 150.53 24.6403 150.53C11.9003 153.43 8.96026 157.92 8.76026 158.24C9.36026 158.04 21.4403 153.79 27.8903 155.66C34.4903 157.59 42.7003 151.47 42.7003 151.47C43.8903 155.32 32.7803 158.42 32.7803 158.42C35.5103 158.13 37.7803 158.45 46.6103 159.89C55.4403 161.34 57.6903 156.41 57.6903 156.41C59.0703 159.09 56.5303 163.26 56.5303 163.26C66.8903 160.18 74.5203 162.65 74.5203 162.65C67.3403 164.25 66.5503 168.56 70.9903 167.05C75.4103 165.54 83.5303 167.79 83.5303 167.79C75.3003 168.27 76.6203 169.97 76.6203 169.97L86.6903 171L85.4103 175.71L89.4203 175.57L89.8703 180.03L92.8803 179.93L93.1803 181.28L98.1903 181.11V186.17C101.23 187.23 100.61 189.78 99.5103 192.94C98.4103 196.09 98.4503 197.06 98.4503 197.06L103.32 199.23L97.7103 202.33C97.7103 202.33 93.8903 205.96 98.1203 210.88C102.36 215.8 95.6703 222.24 95.6703 222.24C98.4903 213.2 92.2303 218.47 92.2303 218.47C83.7903 240.54 33.2803 241.47 33.2803 241.47C33.2803 241.47 30.1503 243.3 24.6103 244.93C19.0603 246.58 -14.8397 244.33 -17.3897 243.18C-19.9497 242.05 -35.1197 238.89 -52.5697 240.05C-70.0397 241.22 -71.6097 237.19 -71.6097 237.19C-67.2997 237.62 -63.9797 236.83 -62.0697 235.88C-61.1297 235.44 -60.5497 234.94 -60.3297 234.54C-59.9897 233.95 -60.5197 233.56 -62.0097 233.76C-66.6197 234.4 -72.4597 232.56 -77.1297 231.54C-81.8197 230.54 -83.6297 226.5 -83.6297 226.5C-83.6297 226.5 -84.4197 226.05 -79.4597 227.62C-74.4997 229.21 -74.9097 226.11 -76.3997 226.07C-77.9097 226.01 -89.1197 222.11 -86.0697 222.8C-83.0397 223.47 -81.6697 220.9 -82.1597 220.92C-82.6497 220.94 -94.4497 220.56 -96.1297 216.62C-97.8297 212.69 -91.4397 212.58 -90.8297 209.83C-90.2197 207.08 -95.9897 206.41 -92.8097 202.6C-89.6197 198.81 -90.9097 195.34 -95.0897 194.42C-99.2497 193.48 -100.92 195.39 -100.92 195.39H-100.9Z" fill="#B79657"/>
<path d="M-90.5297 200.72C-90.3597 197.33 -82.7397 198.02 -80.5697 198.27C-78.3997 198.5 -76.7297 195.84 -79.9597 194.78C-83.1697 193.7 -81.9297 188.86 -81.9997 189.81C-82.0697 190.76 -78.4197 191.26 -76.1997 190.64C-73.9597 190.02 -74.3797 186.08 -74.4697 184.27C-74.5597 182.46 -68.4097 180.59 -68.4097 180.59C-68.4097 180.59 -69.8297 184.04 -67.4397 184.35C-65.0497 184.67 -65.9997 181.38 -64.4997 179.51C-63.0197 177.65 -57.7497 178.81 -56.7797 177.91C-55.8097 177.01 -58.0097 175.91 -64.2597 175.33C-70.5197 174.75 -71.7497 177.4 -71.7497 177.4C-71.7497 177.4 -72.1097 174.73 -66.7497 173.29C-61.3697 171.84 -51.6097 174.99 -52.8197 173.46C-54.0097 171.92 -57.8497 172.36 -55.5097 171.34C-53.1897 170.32 -45.7897 173.6 -45.8897 171.64C-45.9897 169.68 -47.7197 168.62 -47.7197 168.62C-47.7197 168.62 -42.3497 169.86 -40.9397 171.07C-39.5297 172.29 -39.2197 173.77 -36.1197 170.28C-32.9997 166.78 -24.9197 167.62 -26.8497 167.76C-28.7597 167.9 -29.5797 169.67 -28.2897 170.41C-27.0197 171.14 -20.9897 169.45 -18.5897 167.48C-16.1997 165.51 -6.15974 165.17 -6.15974 165.17C-6.15974 165.17 -8.83974 165.66 -9.11974 166.84C-9.41974 168.04 -2.33975 169.22 -0.699745 167.82C0.920255 166.42 6.88026 163.31 13.2003 162.93C18.0903 162.64 23.1703 163.97 23.1703 163.97C11.7203 166.34 8.99026 169.96 8.79026 170.28C9.33026 170.11 20.2603 166.65 26.0903 168.13C32.0503 169.67 39.4902 164.69 39.4902 164.69C40.5402 167.81 30.4903 170.36 30.4903 170.36C32.9703 170.11 35.0202 170.36 42.9902 171.51C50.9702 172.66 53.0302 168.66 53.0302 168.66C54.2702 170.81 51.9503 174.21 51.9503 174.21C61.3403 171.68 68.2103 173.66 68.2103 173.66C61.7103 174.98 60.9702 178.48 64.9902 177.23C69.0102 176 76.3302 177.81 76.3302 177.81C68.8802 178.21 70.0802 179.59 70.0802 179.59L79.1803 180.38L77.9902 184.21L81.6102 184.09L82.0202 187.7L84.7202 187.61L85.0103 188.7L89.5302 188.55L89.4902 192.65C92.2602 193.52 91.6702 195.58 90.6602 198.14C89.6502 200.69 89.6803 201.48 89.6803 201.48L94.0802 203.22L88.9902 205.75C88.9902 205.75 85.5302 208.72 89.3302 212.69C93.1502 216.66 87.0703 221.91 87.0703 221.91C89.6603 214.57 83.9803 218.86 83.9803 218.86C82.1803 223.02 78.3203 226.27 73.4803 228.8C57.4803 237.16 30.5703 237.7 30.5703 237.7C30.5703 237.7 27.7403 239.18 22.7103 240.54C17.7003 241.88 -12.9497 240.16 -15.2497 239.24C-17.5497 238.33 -31.2597 235.8 -47.0497 236.81C-55.5497 237.36 -59.8797 236.65 -62.0697 235.9C-61.1297 235.46 -60.5497 234.96 -60.3297 234.56C-54.4297 234.06 -52.0797 231.3 -55.5497 231.73C-59.7197 232.27 -64.9897 230.8 -69.2197 230C-70.8197 229.7 -72.0497 229.04 -72.9497 228.34C-74.4597 227.19 -75.0897 225.93 -75.0897 225.93C-75.0897 225.93 -75.7697 225.56 -71.3197 226.82H-71.2997C-66.8297 228.1 -67.1797 225.58 -68.5397 225.55C-69.0897 225.54 -71.0597 225.03 -73.0197 224.44C-75.9397 223.59 -78.8897 222.6 -77.2497 222.92C-74.5197 223.47 -73.2697 221.37 -73.7197 221.38C-74.1697 221.39 -84.8097 221.13 -86.3297 217.95C-87.8397 214.76 -82.0797 214.65 -81.4997 212.42C-80.9197 210.19 -86.1597 209.65 -83.2497 206.57C-80.3397 203.47 -81.4997 200.67 -85.2797 199.93C-89.0397 199.19 -90.5497 200.73 -90.5497 200.73L-90.5297 200.72Z" fill="#8E7652"/>
<path d="M25.7102 238.28C25.7102 238.28 66.8902 237.42 73.9102 222.32C73.9102 222.32 79.0402 218.7 76.6902 224.88C76.6902 224.88 80.7502 222.72 80.2302 218.46C79.8202 215.1 85.2802 214.2 85.2802 214.2L86.0002 210.16L82.5302 207.49C82.5302 207.49 85.9402 207.03 86.8502 204.87C87.7702 202.72 88.2902 200.97 85.8102 200.26L85.8502 196.81L80.2102 195.34L85.1002 193.46L77.5102 194.5L82.3902 190.89L73.2502 191.08L74.3202 187.86L61.5002 189.28C61.5002 189.28 60.4202 188.12 67.1402 187.76C67.1402 187.76 60.5402 186.26 56.9202 187.31C53.3002 188.36 58.8702 183.13 64.7402 182C64.7402 182 53.6402 182.64 45.1702 184.78C45.1702 184.78 52.1802 179.63 51.0702 177.81C51.0702 177.81 49.0002 181.93 41.8202 180.98C34.6302 180.03 38.6902 180.56 35.4802 179.63C35.4802 179.63 39.6302 177.87 38.6902 175.24C38.6902 175.24 27.2402 181 21.8802 179.72C16.5102 178.44 15.0802 178.5 15.0802 178.5C15.0802 178.5 14.5102 176.64 25.3202 174.52C25.3202 174.52 14.6902 175.12 10.2802 175.37C4.58022 175.69 -0.359783 178.81 -2.26978 179.51C-10.7498 182.61 -9.13978 177.82 -5.85978 175.5C-4.87978 174.81 -3.16978 174.08 -3.16978 174.08C-3.16978 174.08 -10.9798 174.67 -13.2198 176.27C-19.5098 180.76 -23.4498 178.91 -24.5998 178.28C-25.7498 177.65 -25.0098 176.17 -23.2798 176.05C-21.5498 175.93 -28.8298 175.24 -31.6398 178.19C-34.4598 181.14 -37.2698 183.35 -38.5498 182.33C-39.8198 181.31 -44.6698 180.28 -44.6698 180.28C-44.6698 180.28 -43.0998 181.16 -43.0198 182.81C-42.9398 184.46 -49.5998 181.7 -51.6998 182.57C-53.7998 183.44 -50.3498 183.06 -49.2698 184.35C-48.1898 185.64 -56.9898 183.02 -61.8198 184.24C-66.6498 185.46 -66.3398 187.71 -66.3398 187.71C-66.3398 187.71 -65.2198 185.48 -59.5898 185.96C-53.9598 186.44 -51.9698 187.36 -52.8498 188.12C-53.7298 188.88 -58.4698 187.91 -59.8198 189.48C-61.1698 191.05 -60.3198 193.81 -62.4798 193.55C-64.6398 193.29 -63.3498 190.39 -63.3498 190.39C-63.3498 190.39 -68.8798 191.97 -68.8098 193.49C-68.7398 195.01 -68.3698 198.32 -70.3898 198.85C-72.4098 199.38 -75.6898 198.96 -75.6298 198.16C-75.5698 197.36 -76.6998 201.45 -73.7898 202.35C-70.8798 203.25 -72.4098 205.49 -74.3598 205.29C-76.3098 205.09 -83.1698 204.53 -83.3398 207.38C-83.3398 207.38 -81.9698 206.07 -78.5798 206.69C-75.1798 207.31 -74.1498 209.66 -76.7798 212.27C-79.4098 214.88 -74.6898 215.32 -75.2198 217.2C-75.7398 219.08 -80.9398 219.19 -79.5898 221.86C-78.2398 224.53 -68.6398 224.74 -68.2298 224.73C-67.8198 224.72 -68.9598 226.48 -71.4298 226.03C-73.8998 225.58 -64.7998 228.2 -63.5698 228.22C-62.3398 228.24 -62.0398 230.36 -66.0698 229.3C-70.0998 228.24 -69.4698 228.55 -69.4698 228.55C-69.4698 228.55 -68.0098 231.29 -64.1998 231.96C-60.3898 232.63 -55.6398 233.86 -51.8898 233.4C-48.1398 232.94 -51.9498 236.39 -59.7298 235.79C-59.7298 235.79 -58.4698 238.54 -44.2298 237.66C-29.9898 236.78 -17.6498 238.87 -15.5698 239.64C-13.4898 240.41 14.1202 241.8 18.6602 240.65C23.2002 239.5 25.7502 238.24 25.7502 238.24L25.7102 238.28Z" fill="#A18658"/>
<path d="M-78.8997 217C-78.7597 214.15 -72.3397 214.72 -70.5297 214.92C-68.6997 215.13 -67.2997 212.89 -70.0097 211.99C-72.7197 211.08 -71.6797 207 -71.7197 207.8C-71.7797 208.59 -68.7197 209.02 -66.8397 208.5C-64.9397 207.96 -65.2997 204.65 -65.3697 203.13C-65.4397 201.61 -60.2897 200.03 -60.2897 200.03C-60.2897 200.03 -61.4797 202.93 -59.4697 203.2C-57.4597 203.45 -58.2597 200.69 -56.9997 199.12C-55.7397 197.55 -51.2997 198.53 -50.4997 197.77C-49.6697 197.01 -51.5197 196.08 -56.7797 195.59C-62.0597 195.11 -63.0897 197.33 -63.0897 197.33C-63.0897 197.33 -63.3897 195.09 -58.8697 193.88C-54.3597 192.66 -46.1397 195.31 -47.1597 194C-48.1597 192.71 -51.3997 193.09 -49.4397 192.22C-47.4797 191.36 -41.2497 194.14 -41.3297 192.48C-41.4097 190.82 -42.8597 189.94 -42.8597 189.94C-42.8597 189.94 -38.3397 190.99 -37.1497 192.02C-35.9397 193.03 -35.7097 194.29 -33.0897 191.35C-30.4697 188.4 -23.6697 189.1 -25.2897 189.23C-26.8897 189.35 -27.5797 190.83 -26.5197 191.45C-25.4297 192.08 -20.3597 190.65 -18.3497 189C-16.3297 187.33 -7.87973 187.05 -7.87973 187.05C-7.87973 187.05 -10.1297 187.46 -10.3797 188.46C-10.6097 189.47 -4.65972 190.46 -3.27972 189.29C-1.89972 188.12 3.10027 185.49 8.42027 185.18C12.5403 184.93 16.8103 186.06 16.8103 186.06C6.74027 188.14 4.70027 191.37 4.70027 191.37C4.70027 191.37 14.2503 188.26 19.2803 189.55C24.2803 190.84 30.5703 186.64 30.5703 186.64C31.4603 189.28 22.9803 191.42 22.9803 191.42C25.0703 191.21 26.8003 191.42 33.5103 192.39C40.2203 193.35 41.9603 189.97 41.9603 189.97C43.0103 191.79 41.0503 194.65 41.0503 194.65C48.9503 192.52 54.7503 194.19 54.7503 194.19C49.2803 195.3 48.6503 198.25 52.0303 197.21C55.4103 196.17 61.5803 197.68 61.5803 197.68C55.3003 198.03 56.3203 199.18 56.3203 199.18L63.9603 199.85L62.9803 203.07L66.0303 202.97L66.3503 206.02L68.6403 205.94L68.8803 206.86L72.6803 206.73L72.6503 210.17C74.9803 210.9 74.4903 212.64 73.6403 214.78C72.7803 216.94 72.8203 217.6 72.8203 217.6L76.5203 219.08L72.2503 221.2C72.2503 221.2 69.3103 223.69 72.5303 227.04C73.0503 227.59 73.3703 228.17 73.5003 228.76C67.5203 231.89 60.0103 233.91 52.9503 235.23C53.6003 234.9 41.7003 240.78 21.8003 242.64C13.8103 243.39 3.54028 241.8 -6.20972 241.5C-52.5597 240.04 -62.4197 236.04 -62.4197 236.04C-62.4197 236.04 -58.5597 234.35 -60.4797 234.15C-70.1697 233.14 -73.7997 228.78 -75.4697 225.83C-75.3297 225.83 -72.2797 225.18 -72.9997 224.42C-73.5997 223.8 -73.8497 223.06 -72.7697 221.9C-70.3297 219.3 -71.2897 216.94 -74.4697 216.32C-77.6397 215.7 -78.9097 217 -78.9097 217H-78.8997Z" fill="#B79657"/>
</g>
</g>
</svg>
