<svg width="72" height="200" viewBox="0 0 72 200" fill="none" xmlns="http://www.w3.org/2000/svg">
<mask id="mask0_24_32197" style="mask-type:luminance" maskUnits="userSpaceOnUse" x="0" y="0" width="72" height="200">
<path d="M71.78 0L37.11 200H0L34.66 0H71.78Z" fill="white"/>
</mask>
<g mask="url(#mask0_24_32197)">
<path d="M163 0H-36.9902V200H163V0Z" fill="#8CDCFF"/>
<path opacity="0.73" d="M163.01 136.8V155.1H-36.9902V126.54C-36.9902 126.54 -36.2702 126.55 -34.9502 126.57C-34.1502 126.58 -33.1202 126.6 -31.9002 126.61C-31.6702 126.61 -31.4402 126.61 -31.1902 126.61C-27.8902 126.64 -23.3702 126.67 -18.1202 126.67C-17.4302 126.67 -16.7302 126.67 -16.0202 126.67C-13.2902 126.67 -10.4002 126.64 -7.41023 126.61H-7.40023C-6.57023 126.61 -5.75023 126.6 -4.91023 126.58H-4.90023C2.73977 126.47 10.8998 126.25 18.5998 125.86C22.9498 125.64 27.1398 125.37 30.9998 125.03C32.2698 124.92 33.4998 124.8 34.6998 124.67H34.7098C35.4398 124.59 36.1598 124.51 36.8498 124.43C36.8598 124.43 36.8798 124.43 36.8798 124.43C37.8698 124.31 38.8198 124.19 39.7398 124.05C41.3698 123.81 42.8798 123.56 44.2398 123.28C44.9498 123.13 45.6198 122.99 46.2398 122.83C48.7898 122.18 51.7198 121.82 54.9198 121.68C59.5198 121.48 64.6598 121.74 69.9798 122.31C89.5598 124.41 111.54 130.7 117.48 133.48C126.16 137.56 145.2 141.49 163.01 136.82V136.8Z" fill="#639FC9"/>
<path d="M163 161.45H-36.9902V200H163V161.45Z" fill="#2E889E"/>
<path d="M163 163.68H-36.9902V164.47H163V163.68Z" fill="#C7B98D"/>
<path d="M72.5097 135.27C72.5097 135.27 73.3897 133.11 74.9197 134.27C76.4497 135.43 75.3197 134.43 77.2097 134.79C80.0197 135.33 78.9997 137.61 78.9997 137.61C78.9997 137.61 80.1197 137.65 80.6497 138.68C81.1797 139.71 79.5097 141.61 79.5097 141.61C79.5097 141.61 80.6597 142.08 80.7797 142.94C80.8997 143.8 78.6097 144.81 78.6097 144.81C78.6097 144.81 79.4597 146.15 79.0897 146.84C78.7197 147.53 77.4897 147.29 77.1997 147.47C76.9097 147.65 69.0297 146.61 69.0297 146.61C69.0297 146.61 67.9297 145.92 67.8497 145.35C67.7897 144.96 68.8297 144.74 68.5797 144.35C67.6897 142.99 66.0697 141.77 67.7097 141.3C68.5997 141.04 66.4697 140.36 66.9697 139.44C67.4697 138.52 68.6397 138.45 68.0697 137.41C67.6597 136.66 67.7697 135.93 69.2397 135.75C70.7097 135.57 70.4797 136.2 70.8497 136.03C71.2197 135.86 71.2697 134.29 72.4997 135.27H72.5097Z" fill="#349F62"/>
<path d="M38.7494 136.57C38.7494 136.57 39.0794 136.2 39.0294 134.96C38.9894 133.86 37.7594 132.79 36.3794 133.57C36.3794 133.57 36.3094 132.05 34.8694 132.11C33.7594 132.15 33.8494 133.27 33.8494 133.27C33.8494 133.27 32.2894 132.14 31.4494 133.45C30.6094 134.76 31.6194 135.44 31.6194 135.44C31.6194 135.44 29.6894 135 29.4694 136.03C29.2494 137.06 30.1494 137.98 30.1494 137.98C30.1494 137.98 28.6394 136.65 27.8494 137.86C27.0594 139.07 28.0194 140.5 28.0194 140.5C28.0194 140.5 25.8194 139.68 25.7194 141.12C25.6194 142.56 26.3194 143.21 26.3194 143.21C26.3194 143.21 23.8494 142.14 24.0094 143.69C24.1694 145.24 24.4694 147.8 30.4994 149.26C35.5594 150.48 40.5094 151.84 41.4694 148.34C41.6594 147.67 41.7694 146.52 41.1194 146.1C41.1194 146.1 42.3094 145.83 42.7794 145.07C43.0994 144.55 43.0194 143.55 42.2794 143.28C42.2794 143.28 44.6994 141.82 42.8794 139.95C41.9794 139.03 40.7494 139.64 40.7494 139.64C40.7494 139.64 42.3694 137.74 41.3894 136.5C40.1894 134.97 39.3794 135.86 38.7294 136.56L38.7494 136.57Z" fill="#42A56D"/>
<path d="M55.7594 139.72C55.7594 139.72 56.7394 137.5 54.6894 135.79C53.5694 134.85 51.2794 135.51 50.6594 135.88C50.6594 135.88 51.5894 132.96 48.6994 133.35C45.8094 133.74 47.0494 136.22 47.0494 136.22C47.0494 136.22 46.0994 133.77 44.5994 134.95C43.0994 136.13 44.5994 137.39 44.5994 137.39C44.5994 137.39 41.7494 136.13 41.4494 138.12C41.1494 140.11 42.8494 140.7 42.8494 140.7C42.8494 140.7 40.0494 140.51 40.0494 142.89C40.0494 145.27 42.0994 145.13 42.0994 145.13C42.0994 145.13 40.2994 145.03 40.0494 146.54C39.7994 148.05 40.1494 150.18 43.0494 149.33C45.9494 148.48 50.2394 152.22 51.6894 149.52C51.6894 149.52 54.9394 152.03 55.6394 149.31C55.6394 149.31 58.4394 147.7 55.9894 145.22C55.9894 145.22 60.1194 140.94 55.7494 139.72H55.7594Z" fill="#55AE7C"/>
<path d="M18.1897 139.2C18.1897 139.2 18.9697 137.43 17.3397 136.06C16.4397 135.31 14.6097 135.83 14.1197 136.13C14.1197 136.13 14.8697 133.8 12.5497 134.11C10.2297 134.42 11.2297 136.4 11.2297 136.4C11.2297 136.4 10.4697 134.44 9.26974 135.38C8.06974 136.32 9.26974 137.33 9.26974 137.33C9.26974 137.33 6.98975 136.32 6.75975 137.91C6.52975 139.5 7.87975 139.97 7.87975 139.97C7.87975 139.97 5.63975 139.81 5.63975 141.72C5.63975 143.63 7.27975 143.51 7.27975 143.51C7.27975 143.51 5.83975 143.43 5.63975 144.64C5.43975 145.85 5.71975 147.55 8.02975 146.87C10.3397 146.19 13.7797 149.18 14.9297 147.02C14.9297 147.02 17.5197 149.03 18.0797 146.85C18.0797 146.85 20.3197 145.57 18.3597 143.58C18.3597 143.58 21.6597 140.16 18.1697 139.19L18.1897 139.2Z" fill="#42A56D"/>
<path d="M0.760062 136.101C0.760062 136.101 -0.959939 131.021 -3.50994 133.201C-4.55994 134.091 -2.64994 136.251 -4.34994 134.791C-5.60994 133.711 -8.31994 132.881 -8.88994 135.031C-9.45994 137.181 -7.90994 137.921 -7.90994 137.921C-7.90994 137.921 -6.69994 138.341 -7.31994 138.881C-7.93994 139.421 -11.1699 137.961 -10.7799 140.301C-10.3899 142.641 -9.03994 141.391 -8.95994 142.731C-8.87994 144.071 -10.7699 143.091 -10.6499 144.561C-10.5299 146.031 -9.43994 146.211 -9.01994 146.641C-8.59994 147.071 -10.3699 148.661 -5.41994 150.531C-4.66994 150.811 -0.769937 149.151 0.0500631 148.451C4.67006 144.491 4.67006 143.491 5.00006 140.961C5.37006 138.121 4.98006 135.851 0.770061 136.101H0.760062Z" fill="#42A56D"/>
<path d="M17.9394 134.87C17.9394 134.87 17.6694 134.4 18.0094 133.06C18.3094 131.88 19.8994 130.99 21.2094 132.14C21.2094 132.14 21.6494 130.51 23.1894 130.89C24.3794 131.18 24.0194 132.38 24.0194 132.38C24.0194 132.38 25.9694 131.5 26.5794 133.11C27.1894 134.72 25.9294 135.23 25.9294 135.23C25.9294 135.23 28.1294 135.19 28.1194 136.35C28.1094 137.51 26.9294 138.32 26.9294 138.32C26.9294 138.32 28.8794 137.21 29.4494 138.7C30.0294 140.18 28.6394 141.52 28.6394 141.52C28.6394 141.52 31.2094 141.12 30.9894 142.7C30.7594 144.27 29.8394 144.84 29.8394 144.84C29.8394 144.84 32.7694 144.23 32.2394 145.87C31.7094 147.51 30.7894 150.23 23.8994 150.47C18.1294 150.67 12.4494 151.05 12.2194 147.04C12.1794 146.27 12.3194 145 13.1194 144.69C13.1194 144.69 11.8994 144.13 11.5594 143.2C11.3294 142.57 11.6494 141.49 12.5194 141.37C12.5194 141.37 10.2394 139.25 12.6494 137.63C13.8394 136.83 15.0294 137.77 15.0294 137.77C15.0294 137.77 13.7194 135.35 15.0694 134.22C16.7294 132.83 17.3994 133.97 17.9394 134.88V134.87Z" fill="#249756"/>
<path d="M12.0794 143.181C12.0794 143.181 13.3794 138.041 9.91941 138.621C8.49941 138.861 8.97941 141.621 8.28941 139.551C7.77941 138.011 5.83941 135.981 4.14941 137.521C2.45941 139.061 3.39941 140.451 3.39941 140.451C3.39941 140.451 4.22941 141.401 3.38941 141.551C2.54941 141.701 0.509406 138.871 -0.460594 141.041C-1.43059 143.211 0.469406 142.821 -0.210594 143.991C-0.890594 145.161 -2.01059 143.401 -2.73059 144.701C-3.45059 146.001 -2.58059 146.691 -2.45059 147.261C-2.32059 147.831 -2.33059 147.831 -2.71059 148.521C-3.09059 149.211 2.51941 150.401 3.64941 150.351C4.77941 150.301 9.03941 150.421 10.8694 149.951C13.8094 149.201 15.9294 145.041 12.0694 143.171L12.0794 143.181Z" fill="#47A871"/>
<path d="M66.7594 134.741C66.7594 134.741 65.4794 132.411 63.5394 133.361C61.5994 134.311 62.5694 135.59 62.5694 135.59C62.5694 135.59 61.1794 134.17 59.9994 135.59C58.8194 137.01 60.9494 138.411 60.9494 138.411C60.9494 138.411 57.6594 136.89 57.2694 139.34C56.8794 141.79 59.1394 143.17 59.1394 143.17C59.1394 143.17 56.3594 142.601 56.1694 144.551C55.9794 146.501 57.1794 148.7 58.3194 148.45C58.3194 148.45 56.5594 150.19 60.8794 150.2C65.1994 150.21 74.3294 151.26 74.5094 149.79C74.6894 148.32 73.1794 147.51 73.1794 147.51C73.1794 147.51 75.3994 146.691 73.5294 144.991C73.5294 144.991 75.1594 141.531 71.5294 141.831C71.5294 141.831 73.8394 140.661 72.3694 139.331C72.3694 139.331 74.2394 136.49 71.6594 135.89C69.0794 135.29 68.8194 136.491 68.8194 136.491C68.8194 136.491 69.3094 133.47 66.7394 134.73L66.7594 134.741Z" fill="#42A56D"/>
<path d="M39.4599 150.57C39.4599 150.57 34.7499 148.66 36.9099 146.91C36.9099 146.91 34.2999 143.42 36.7399 142.61C36.7399 142.61 33.7999 139.51 36.2399 138.9C38.6799 138.29 39.1699 139.28 39.1699 139.28C39.1699 139.28 38.2599 136.41 40.6199 136.82C42.9799 137.24 42.4699 139.17 42.4699 139.17C42.4699 139.17 43.9499 136.92 46.0899 138.74C48.2299 140.56 45.3099 141.34 45.3099 141.34C45.3099 141.34 47.8499 140.45 47.5799 142.49C47.3099 144.53 45.9699 144.74 45.9699 144.74C45.9699 144.74 48.5499 144.45 48.2699 146.12C47.9899 147.79 46.9899 148.97 45.0699 148.77C43.1499 148.57 39.4499 150.56 39.4499 150.56L39.4599 150.57Z" fill="#2F9C5F"/>
<path d="M61.0999 151.72C61.0999 151.72 65.4899 149.51 63.2599 147.99C63.2599 147.99 65.4899 144.43 63.0699 143.83C63.0699 143.83 65.6499 140.61 63.2499 140.22C60.8499 139.83 60.4599 140.81 60.4599 140.81C60.4599 140.81 61.0999 137.97 58.8599 138.56C56.6199 139.15 57.27 140.97 57.27 140.97C57.27 140.97 55.66 138.92 53.74 140.84C51.83 142.76 54.7 143.28 54.7 143.28C54.7 143.28 52.1799 142.62 52.5999 144.57C53.0299 146.52 54.3299 146.62 54.3299 146.62C54.3299 146.62 51.8199 146.54 52.2199 148.13C52.6199 149.72 53.68 150.78 55.52 150.44C57.36 150.1 61.0799 151.73 61.0799 151.73L61.0999 151.72Z" fill="#249756"/>
<path d="M29.2502 149.181C28.2702 149.341 27.8402 148.891 27.8402 148.891C28.5902 148.901 29.9902 147.561 29.9902 147.561C29.2002 147.751 28.6002 147.391 28.6002 147.391C29.6502 147.211 30.2102 146.261 30.2102 146.261C29.5202 146.421 28.8802 145.971 28.8802 145.971C29.7402 145.871 30.5602 144.771 30.5602 144.771C29.9902 145.141 29.2502 144.771 29.2502 144.771C30.2402 144.641 30.9402 143.201 30.9402 143.201C30.3302 143.631 29.7302 143.001 29.7302 143.001C30.9402 143.201 31.3902 140.971 31.3902 140.971C31.3902 140.971 31.8402 143.201 33.0502 143.001C33.0502 143.001 32.4402 143.631 31.8402 143.201C31.8402 143.201 32.5402 144.631 33.5302 144.771C33.5302 144.771 32.8002 145.141 32.2202 144.771C32.2202 144.771 33.0402 145.871 33.9002 145.971C33.9002 145.971 33.2602 146.411 32.5702 146.261C32.5702 146.261 33.1302 147.211 34.1802 147.391C34.1802 147.391 33.5702 147.751 32.7902 147.561C32.7902 147.561 34.1902 148.901 34.9402 148.891C34.9402 148.891 34.5002 149.331 33.5302 149.181C33.5302 149.181 34.5502 150.081 35.5502 150.211C35.5502 150.211 34.5402 150.711 33.7302 150.521C32.9202 150.331 32.8502 150.231 32.8502 150.231C32.8502 150.231 32.7202 150.421 32.8302 150.671C32.9402 150.921 33.0502 151.041 33.0502 151.041C33.0502 151.041 32.4802 150.951 32.0302 150.711C31.6802 150.521 31.6002 150.301 31.5002 150.271C31.3002 150.511 31.2502 150.571 30.9302 150.711C30.4602 150.921 29.6602 150.931 29.6602 150.931C29.6602 150.931 29.8902 150.711 30.0302 150.541C30.1802 150.351 30.2102 150.161 30.2102 150.161C30.2102 150.161 29.5102 150.431 28.9602 150.461C28.4102 150.491 27.2402 150.081 27.2402 150.081C28.2402 149.951 29.2602 149.181 29.2602 149.181H29.2502Z" fill="#18914D"/>
<path d="M73.1402 148.98C71.8202 149.18 71.2302 148.62 71.2302 148.62C72.2402 148.64 74.1402 146.94 74.1402 146.94C73.0702 147.18 72.2602 146.73 72.2602 146.73C73.6802 146.51 74.4402 145.31 74.4402 145.31C73.5102 145.51 72.6502 144.95 72.6502 144.95C73.8102 144.82 74.9102 143.44 74.9102 143.44C74.1402 143.9 73.1502 143.44 73.1502 143.44C74.4802 143.27 75.4302 141.47 75.4302 141.47C74.6102 142.01 73.8002 141.22 73.8002 141.22C75.4302 141.47 76.0402 138.66 76.0402 138.66C76.0402 138.66 76.6402 141.47 78.2802 141.22C78.2802 141.22 77.4602 142.02 76.6502 141.47C76.6502 141.47 77.6002 143.27 78.9302 143.44C78.9302 143.44 77.9402 143.9 77.1702 143.44C77.1702 143.44 78.2702 144.82 79.4302 144.95C79.4302 144.95 78.5702 145.51 77.6402 145.31C77.6402 145.31 78.4002 146.51 79.8202 146.73C79.8202 146.73 79.0002 147.18 77.9402 146.94C77.9402 146.94 79.8302 148.63 80.8502 148.62C80.8502 148.62 80.2602 149.18 78.9402 148.98C78.9402 148.98 80.3202 150.11 81.6602 150.28C81.6602 150.28 80.2902 150.91 79.2102 150.67C78.1302 150.43 78.0302 150.3 78.0302 150.3C78.0302 150.3 77.8602 150.54 78.0002 150.86C78.1402 151.18 78.3002 151.33 78.3002 151.33C78.3002 151.33 77.5202 151.21 76.9202 150.91C76.4502 150.68 76.3502 150.4 76.2002 150.35C75.9302 150.65 75.8602 150.72 75.4402 150.91C74.8102 151.18 73.7202 151.19 73.7202 151.19C73.7202 151.19 74.0302 150.91 74.2102 150.7C74.4202 150.46 74.4602 150.22 74.4602 150.22C74.4602 150.22 73.5102 150.56 72.7702 150.6C72.0302 150.64 70.4502 150.12 70.4502 150.12C71.8002 149.96 73.1702 148.99 73.1702 148.99L73.1402 148.98Z" fill="#18914D"/>
<path d="M24.3295 141.09C24.3295 141.09 23.2495 138.45 21.3895 139.86C19.5295 141.27 20.8995 140.05 18.5895 140.49C15.1495 141.15 16.4095 143.94 16.4095 143.94C16.4095 143.94 15.0395 143.98 14.3895 145.25C13.7395 146.52 15.7795 148.83 15.7795 148.83C15.7795 148.83 14.3795 149.41 14.2195 150.45C14.0595 151.49 16.8695 152.73 16.8695 152.73C16.8695 152.73 15.8295 154.36 16.2795 155.21C16.7295 156.06 18.2295 155.76 18.5895 155.98C18.9495 156.2 28.5695 154.93 28.5695 154.93C28.5695 154.93 29.9095 154.09 30.0095 153.39C30.0795 152.91 28.8095 152.65 29.1195 152.17C30.2095 150.51 32.1895 149.02 30.1795 148.45C29.0895 148.14 31.6895 147.31 31.0895 146.18C30.4895 145.05 29.0495 144.97 29.7495 143.7C30.2495 142.78 30.1195 141.89 28.3195 141.67C26.5195 141.45 26.7995 142.21 26.3495 142.01C25.8995 141.81 25.8395 139.88 24.3295 141.08V141.09Z" fill="#008039"/>
<path d="M65.5595 142.68C65.5595 142.68 65.1595 142.23 65.2095 140.72C65.2495 139.38 66.7595 138.07 68.4495 139.03C68.4495 139.03 68.5395 137.18 70.2995 137.25C71.6595 137.3 71.5495 138.67 71.5495 138.67C71.5495 138.67 73.4495 137.29 74.4795 138.89C75.5095 140.49 74.2695 141.32 74.2695 141.32C74.2695 141.32 76.6295 140.79 76.8995 142.04C77.1695 143.29 76.0695 144.43 76.0695 144.43C76.0695 144.43 77.9095 142.81 78.8795 144.28C79.8495 145.75 78.6695 147.5 78.6695 147.5C78.6695 147.5 81.3495 146.5 81.4695 148.25C81.5895 150 80.7295 150.81 80.7295 150.81C80.7295 150.81 83.7495 149.5 83.5595 151.39C83.3695 153.28 82.9995 156.41 75.6395 158.19C69.4595 159.68 63.4195 161.34 62.2395 157.07C62.0095 156.25 61.8795 154.85 62.6595 154.34C62.6595 154.34 61.2095 154.01 60.6295 153.08C60.2395 152.45 60.3395 151.22 61.2395 150.9C61.2395 150.9 58.2795 149.12 60.5095 146.83C61.6095 145.7 63.1095 146.46 63.1095 146.46C63.1095 146.46 61.1395 144.13 62.3295 142.63C63.7995 140.77 64.7795 141.84 65.5695 142.71L65.5595 142.68Z" fill="#168746"/>
<path d="M44.7795 146.52C44.7795 146.52 43.5795 143.81 46.0795 141.72C47.4495 140.57 50.2495 141.37 50.9995 141.83C50.9995 141.83 49.8595 138.26 53.3995 138.74C56.9395 139.22 55.4095 142.25 55.4095 142.25C55.4095 142.25 56.5695 139.26 58.3995 140.69C60.2295 142.12 58.3995 143.67 58.3995 143.67C58.3995 143.67 61.8795 142.12 62.2395 144.56C62.5995 147 60.5295 147.71 60.5295 147.71C60.5295 147.71 63.9495 147.47 63.9495 150.38C63.9495 153.29 61.4495 153.11 61.4495 153.11C61.4495 153.11 63.6495 152.99 63.9495 154.83C64.2495 156.67 63.8295 159.28 60.2895 158.24C56.7495 157.2 51.5095 161.77 49.7395 158.48C49.7395 158.48 45.7795 161.55 44.9195 158.22C44.9195 158.22 41.4995 156.26 44.4895 153.23C44.4895 153.23 39.4495 148 44.7795 146.51V146.52Z" fill="#2E915B"/>
<path d="M3.60966 148.41C3.60966 148.41 1.29967 142.2 5.66967 142.48C7.46967 142.59 7.23967 146.08 7.80967 143.43C8.23967 141.46 10.3697 138.69 12.6797 140.38C14.9897 142.07 13.9997 143.92 13.9997 143.92C13.9997 143.92 13.0897 145.21 14.1597 145.29C15.2297 145.37 17.3797 141.6 18.8597 144.17C20.3397 146.74 17.9497 146.5 18.9397 147.86C19.9297 149.22 21.0897 146.9 22.1597 148.42C23.2297 149.94 22.2397 150.91 22.1597 151.63C22.0797 152.35 22.0897 152.35 22.6497 153.16C23.2097 153.97 16.4197 156.16 15.0097 156.24C13.5997 156.32 8.32967 157.01 5.99967 156.67C2.24967 156.12 -0.940332 151.23 3.58967 148.41H3.60966Z" fill="#138F49"/>
<path d="M31.3501 140.44C31.3501 140.44 32.9101 137.6 35.2801 138.75C37.6501 139.9 36.4601 141.47 36.4601 141.47C36.4601 141.47 38.1601 139.74 39.6001 141.47C41.0401 143.2 38.4401 144.92 38.4401 144.92C38.4401 144.92 42.4601 143.06 42.9301 146.05C43.4001 149.04 40.6401 150.73 40.6401 150.73C40.6401 150.73 44.0301 150.04 44.2701 152.42C44.5101 154.8 43.0401 157.49 41.6401 157.18C41.6401 157.18 43.7901 159.3 38.5101 159.32C33.2301 159.34 22.0801 160.61 21.8601 158.82C21.6401 157.03 23.4801 156.03 23.4801 156.03C23.4801 156.03 20.7701 155.03 23.0601 152.96C23.0601 152.96 21.0601 148.74 25.5001 149.1C25.5001 149.1 22.6801 147.67 24.4801 146.05C24.4801 146.05 22.1901 142.58 25.3501 141.85C28.5101 141.12 28.8201 142.59 28.8201 142.59C28.8201 142.59 28.2201 138.91 31.3601 140.44H31.3501Z" fill="#15874A"/>
<path d="M64.7 159.78C64.7 159.78 70.46 157.44 67.81 155.3C67.81 155.3 71 151.04 68.02 150.05C68.02 150.05 71.61 146.26 68.63 145.52C65.65 144.78 65.05 145.98 65.05 145.98C65.05 145.98 66.16 142.47 63.28 142.98C60.4 143.49 61.03 145.85 61.03 145.85C61.03 145.85 59.22 143.11 56.61 145.33C54 147.55 57.56 148.5 57.56 148.5C57.56 148.5 54.46 147.41 54.78 149.91C55.1 152.41 56.74 152.66 56.74 152.66C56.74 152.66 53.59 152.31 53.93 154.34C54.27 156.37 55.49 157.83 57.84 157.58C60.19 157.33 64.71 159.77 64.71 159.77L64.7 159.78Z" fill="#007A35"/>
<path d="M38.2699 161.19C38.2699 161.19 32.9099 158.49 35.6399 156.63C35.6399 156.63 32.9199 152.28 35.8699 151.55C35.8699 151.55 32.7199 147.62 35.6499 147.14C38.5799 146.65 39.0599 147.86 39.0599 147.86C39.0599 147.86 38.2799 144.39 41.0099 145.11C43.7499 145.83 42.9499 148.05 42.9499 148.05C42.9499 148.05 44.9199 145.55 47.2599 147.89C49.5999 150.24 46.0899 150.88 46.0899 150.88C46.0899 150.88 49.1699 150.07 48.6499 152.45C48.1299 154.83 46.5299 154.95 46.5299 154.95C46.5299 154.95 49.5899 154.85 49.0999 156.79C48.6099 158.73 47.3099 160.03 45.0599 159.61C42.8099 159.19 38.2599 161.19 38.2599 161.19H38.2699Z" fill="#00692E"/>
<path d="M18.1597 158.89C18.1597 158.89 21.7097 155.36 19.0297 154.57C19.0297 154.57 20.0297 150.39 17.4697 150.57C17.4697 150.57 18.9197 146.62 16.4497 146.98C13.9797 147.34 13.9197 148.43 13.9197 148.43C13.9197 148.43 13.6097 145.46 11.6097 146.73C9.60966 148 10.8597 149.58 10.8597 149.58C10.8597 149.58 8.60966 148.08 7.37966 150.56C6.14966 153.04 9.12966 152.65 9.12966 152.65C9.12966 152.65 6.44966 152.8 7.50966 154.56C8.56966 156.32 9.87966 156.01 9.87966 156.01C9.87966 156.01 7.40966 156.72 8.31966 158.14C9.22966 159.56 10.6297 160.27 12.3097 159.36C13.9897 158.45 18.1697 158.87 18.1697 158.87L18.1597 158.89Z" fill="#35A668"/>
<path d="M77.16 158.09C78.35 158.28 78.88 157.74 78.88 157.74C77.96 157.75 76.25 156.11 76.25 156.11C77.21 156.34 77.95 155.9 77.95 155.9C76.67 155.68 75.98 154.52 75.98 154.52C76.82 154.71 77.6 154.17 77.6 154.17C76.55 154.05 75.55 152.71 75.55 152.71C76.25 153.16 77.14 152.71 77.14 152.71C75.93 152.55 75.08 150.8 75.08 150.8C75.82 151.33 76.56 150.56 76.56 150.56C75.08 150.8 74.54 148.08 74.54 148.08C74.54 148.08 74 150.81 72.52 150.56C72.52 150.56 73.26 151.33 74 150.8C74 150.8 73.14 152.55 71.94 152.71C71.94 152.71 72.83 153.16 73.53 152.71C73.53 152.71 72.53 154.05 71.48 154.17C71.48 154.17 72.26 154.71 73.1 154.52C73.1 154.52 72.42 155.68 71.13 155.9C71.13 155.9 71.87 156.34 72.83 156.11C72.83 156.11 71.12 157.75 70.2 157.74C70.2 157.74 70.73 158.28 71.92 158.09C71.92 158.09 70.68 159.19 69.46 159.35C69.46 159.35 70.69 159.96 71.68 159.73C72.67 159.5 72.75 159.37 72.75 159.37C72.75 159.37 72.91 159.6 72.78 159.91C72.65 160.22 72.51 160.37 72.51 160.37C72.51 160.37 73.21 160.25 73.75 159.96C74.17 159.73 74.27 159.46 74.4 159.42C74.64 159.72 74.7 159.78 75.09 159.96C75.66 160.22 76.65 160.23 76.65 160.23C76.65 160.23 76.37 159.96 76.2 159.75C76.01 159.52 75.98 159.28 75.98 159.28C75.98 159.28 76.84 159.61 77.51 159.65C78.18 159.69 79.61 159.18 79.61 159.18C78.39 159.02 77.15 158.08 77.15 158.08L77.16 158.09Z" fill="#005937"/>
<path d="M3.75994 143.71C3.75994 143.71 2.59994 140.87 0.589943 142.39C-1.42006 143.91 0.0699408 142.6 -2.42006 143.07C-6.12006 143.78 -4.77006 146.78 -4.77006 146.78C-4.77006 146.78 -6.25006 146.83 -6.94006 148.19C-7.63006 149.55 -5.44006 152.04 -5.44006 152.04C-5.44006 152.04 -6.95006 152.66 -7.12006 153.78C-7.29006 154.9 -4.26006 156.24 -4.26006 156.24C-4.26006 156.24 -5.38006 158 -4.89006 158.91C-4.40006 159.82 -2.78006 159.51 -2.40006 159.74C-2.02006 159.97 8.34994 158.61 8.34994 158.61C8.34994 158.61 9.79994 157.7 9.89994 156.95C9.96994 156.44 8.59994 156.15 8.93994 155.64C10.1099 153.85 12.2499 152.25 10.0799 151.63C8.89994 151.29 11.7099 150.4 11.0599 149.18C10.4099 147.96 8.85994 147.87 9.61994 146.51C10.1599 145.52 10.0199 144.56 8.07994 144.33C6.13994 144.1 6.43994 144.92 5.95994 144.7C5.47994 144.48 5.40994 142.41 3.77994 143.7L3.75994 143.71Z" fill="#008039"/>
<path d="M23.5497 157.839C25.1597 158.079 25.8797 157.399 25.8797 157.399C24.6397 157.419 22.3297 155.35 22.3297 155.35C23.6297 155.64 24.6297 155.089 24.6297 155.089C22.8997 154.819 21.9697 153.35 21.9697 153.35C23.1097 153.59 24.1597 152.91 24.1597 152.91C22.7397 152.76 21.3897 151.07 21.3897 151.07C22.3397 151.63 23.5397 151.07 23.5397 151.07C21.9097 150.87 20.7597 148.66 20.7597 148.66C21.7597 149.33 22.7597 148.35 22.7597 148.35C20.7597 148.66 20.0297 145.229 20.0297 145.229C20.0297 145.229 19.2897 148.66 17.2997 148.35C17.2997 148.35 18.2997 149.32 19.2997 148.66C19.2997 148.66 18.1397 150.86 16.5197 151.07C16.5197 151.07 17.7297 151.63 18.6697 151.07C18.6697 151.07 17.3197 152.76 15.8997 152.91C15.8997 152.91 16.9497 153.59 18.0897 153.35C18.0897 153.35 17.1697 154.809 15.4297 155.089C15.4297 155.089 16.4297 155.64 17.7297 155.35C17.7297 155.35 15.4197 157.419 14.1797 157.399C14.1797 157.399 14.8997 158.079 16.5097 157.839C16.5097 157.839 14.8297 159.229 13.1797 159.429C13.1797 159.429 14.8497 160.199 16.1797 159.899C17.5097 159.599 17.6297 159.449 17.6297 159.449C17.6297 159.449 17.8397 159.74 17.6697 160.13C17.4997 160.52 17.2997 160.71 17.2997 160.71C17.2997 160.71 18.2497 160.559 18.9797 160.199C19.5497 159.909 19.6797 159.57 19.8597 159.52C20.1897 159.89 20.2697 159.979 20.7897 160.199C21.5597 160.529 22.8897 160.549 22.8897 160.549C22.8897 160.549 22.5097 160.199 22.2897 159.949C22.0397 159.659 21.9897 159.359 21.9897 159.359C21.9897 159.359 23.1497 159.77 24.0497 159.82C24.9497 159.87 26.8797 159.229 26.8797 159.229C25.2297 159.029 23.5497 157.85 23.5497 157.85V157.839Z" fill="#005937"/>
<path d="M-12.0505 154.509C-12.0505 154.509 -13.5305 150.519 -10.7305 150.699C-9.57054 150.769 -9.72054 153.009 -9.35054 151.309C-9.07054 150.039 -7.71054 148.259 -6.22054 149.349C-4.73054 150.439 -5.37054 151.619 -5.37054 151.619C-5.37054 151.619 -5.95054 152.449 -5.26054 152.499C-4.57054 152.549 -3.19054 150.129 -2.24054 151.779C-1.29054 153.429 -2.82054 153.269 -2.19054 154.149C-1.56054 155.029 -0.810544 153.529 -0.120544 154.509C0.569456 155.489 -0.0705444 156.109 -0.120544 156.579C-0.170544 157.049 -0.170545 157.039 0.199455 157.559C0.569455 158.079 -2.08055 160.399 -2.98055 160.449C-3.88055 160.499 -9.00054 160.039 -10.5005 159.819C-12.9105 159.469 -14.9605 156.319 -12.0505 154.519V154.509Z" fill="#007534"/>
<path d="M163.01 155.15V160.88H7.90039C7.90039 160.88 11.7904 160.64 17.6804 160.07C18.2504 160.02 18.8304 159.96 19.4304 159.89C19.6604 159.87 19.9004 159.85 20.1404 159.82C20.7604 159.76 21.4104 159.69 22.0704 159.62H22.0804C22.2704 159.59 22.4504 159.57 22.6404 159.55C22.7404 159.54 22.8404 159.53 22.9404 159.52H22.9504C24.0504 159.39 25.1804 159.26 26.3504 159.12C26.9004 159.05 27.4604 158.98 28.0304 158.92H28.0604C29.8604 158.68 31.7204 158.43 33.6104 158.16C33.9604 158.11 34.3804 158.06 34.8704 158.01C36.5204 157.84 38.8904 157.68 41.8704 157.52H41.8804C42.5504 157.49 43.2504 157.46 43.9704 157.42C45.5104 157.35 47.1804 157.28 48.9604 157.21C50.9504 157.13 53.0704 157.06 55.3204 156.99C57.4904 156.92 59.7704 156.85 62.1504 156.78C62.7304 156.76 63.3204 156.75 63.9204 156.73C65.4104 156.69 66.9304 156.65 68.4904 156.61C69.7604 156.58 71.0604 156.55 72.3704 156.52C73.1304 156.5 73.9004 156.48 74.6804 156.47C75.3204 156.45 75.9604 156.44 76.6004 156.42H76.6104C77.8804 156.39 79.1504 156.37 80.4304 156.34C83.9804 156.27 87.6004 156.19 91.2404 156.13C92.0304 156.11 92.8204 156.1 93.6104 156.08C94.1204 156.07 94.6204 156.06 95.1304 156.06C95.4204 156.05 95.7104 156.05 96.0004 156.04C96.6304 156.04 97.2504 156.02 97.8804 156.01C98.0504 156 98.2304 156 98.4004 156C102.7 155.92 107.01 155.85 111.24 155.79C112.8 155.77 114.35 155.74 115.88 155.72C115.99 155.72 116.09 155.72 116.19 155.71H116.2C118.8 155.68 121.35 155.64 123.84 155.6C124.76 155.6 125.66 155.58 126.56 155.57C129.31 155.53 131.97 155.49 134.52 155.46C135.7 155.45 136.85 155.43 137.98 155.42C138.69 155.41 139.39 155.4 140.07 155.4H140.08C142.8 155.36 145.35 155.33 147.69 155.3C149.47 155.28 151.14 155.27 152.66 155.25C158.05 155.19 161.75 155.16 163 155.15H163.01Z" fill="#9BC780"/>
<path d="M163.01 159.24V163H-36.9902V158.76H-36.5302L-32.0002 158.77L-30.2302 158.78H-30.2202L-25.9402 158.79H-25.1402L-21.7202 158.8H-18.1302L-17.8202 158.81H-14.9802L-12.4902 158.82L-8.92023 158.83H-8.91023L-4.94024 158.84L-0.570236 158.85H-0.560234L6.42976 158.86H6.45977L8.86977 158.87H10.7998L14.1498 158.88H14.8798L21.8698 158.9H21.8798L25.6398 158.91L28.0398 158.92H28.0698L35.2998 158.93L41.2998 158.95H41.3098L45.1998 158.96H47.8898L49.0198 158.97H50.0698L55.0898 158.98H55.1098L58.9998 158.99H60.0998L63.0998 159H63.5598L65.3898 159.01H68.3698L68.6498 159.02H72.3698L75.2198 159.03H76.8598L79.0198 159.04H79.0798L94.8998 159.08H94.9498L99.8698 159.09H99.8798L109.94 159.12H111.36L116.76 159.13H116.77L120.94 159.14H120.95L128.42 159.16H131.46L135.93 159.17H135.94L139.08 159.18H139.81L149.81 159.21H149.83L159.66 159.23L162.85 159.24H163.01Z" fill="#8FB876"/>
<path d="M163.01 162.31V163.68H-36.9902V161.7C-36.4402 161.85 -35.8702 162.03 -35.6202 162.13C-34.4102 162.64 -30.7802 162.71 -28.0202 162.13C-25.2802 161.57 -25.2202 161.75 -22.8502 162.22C-20.4902 162.71 -19.0902 162.44 -16.8002 162.16C-14.5002 161.88 -15.4602 161.17 -12.5902 161.78C-9.71023 162.39 -6.65023 161.64 -6.40023 161.93C-6.14023 162.22 -4.93024 163 -2.64024 162.04C-2.07024 161.8 -1.57023 161.6 -1.11023 161.45C0.219767 161.01 1.25977 160.95 2.81977 161.45C2.90977 161.48 3.00976 161.51 3.10976 161.54C5.39976 162.32 4.75976 162.12 7.37976 161.93C9.99976 161.75 10.7598 161.57 13.2398 161.76C15.7298 161.94 20.7198 161.67 21.8698 161.71C23.0198 161.76 24.6198 162.37 28.1798 162.54C31.7498 162.71 29.2698 163.34 34.9498 162.64C40.6298 161.94 39.4098 161.03 44.0098 161.71C48.6098 162.39 48.4098 162.51 51.8098 162.45C55.1898 162.39 55.0598 162.45 57.9198 162.32C59.1598 162.27 60.8298 162.26 62.4498 162.26C62.8198 162.26 63.1898 162.26 63.5498 162.27H64.6098C64.6998 162.27 64.7898 162.27 64.8798 162.27C66.0198 162.27 66.9698 162.27 67.4998 162.26C67.7998 162.25 68.0698 162.24 68.3398 162.22C68.4298 162.22 68.5098 162.22 68.5898 162.22C68.6998 162.21 68.7998 162.2 68.8998 162.2C68.9998 162.19 69.0998 162.18 69.1998 162.18C69.6798 162.15 70.1798 162.11 70.7598 162.08C71.1498 162.06 71.5898 162.03 72.0798 162.01C74.1298 161.93 73.0798 161.53 75.5098 162.33C77.9298 163.14 82.9498 162.97 86.2598 162.08C86.3598 162.05 86.4498 162.03 86.5498 162.01C86.9698 161.9 87.3498 161.81 87.7198 161.73C87.9198 161.69 88.0998 161.66 88.2898 161.63C88.7098 161.55 89.1098 161.5 89.5198 161.46C91.0898 161.32 92.7098 161.39 95.6398 161.39C99.4198 161.39 100.41 161.27 102.16 161.46C102.63 161.51 103.15 161.59 103.8 161.7C105.31 161.95 108.15 162.17 110.83 162.27C113.59 162.38 116.16 162.37 116.94 162.14C118.47 161.7 120.64 161.7 125.63 161.89C130.6 162.08 129.27 162.59 133.54 162.4C136.62 162.27 138.18 161.69 139.41 161.46C139.89 161.37 140.31 161.33 140.76 161.39C140.9 161.41 141.04 161.43 141.2 161.46C142.8 161.77 145.24 162.69 148.86 162.4C152.82 162.08 152.5 161.26 156.14 161.82C159.78 162.4 158.82 162.91 162.13 162.4C162.44 162.36 162.71 162.33 162.95 162.32L163.01 162.31Z" fill="#6C966B"/>
<path d="M95.3598 9.59033C95.3598 9.59033 75.6698 7.02033 76.8798 19.0203C76.8798 19.0203 63.2398 17.4303 59.9898 29.1403C57.7198 37.3203 54.4198 32.4203 51.1998 34.4703C49.1898 35.7403 49.4398 39.5603 51.1598 40.6003C51.1598 40.6003 46.7798 43.8303 49.4798 47.6703C52.1798 51.5203 58.0698 50.4803 59.4998 46.9303C59.4998 46.9303 65.9898 55.9403 74.7298 48.9003C74.7298 48.9003 80.5698 55.6503 88.3998 45.8803C88.3998 45.8803 95.5498 52.1903 104.67 44.8303C104.67 44.8303 113.71 52.7503 121.42 41.5303C121.42 41.5303 128.7 56.6403 135.95 45.7903C135.95 45.7903 147.46 48.0103 150.82 40.0403C156.12 27.4603 144.29 21.7203 140.94 23.2603C140.94 23.2603 141.45 9.52033 133.11 11.0303C124.76 12.5403 121.54 22.1203 118.77 15.3903C114.45 4.91033 107.47 11.5603 107.47 11.5603C107.47 11.5603 107.86 7.02033 102.47 6.13033C98.2698 5.44033 96.6298 7.81033 95.3598 9.60033V9.59033Z" fill="white"/>
<path d="M94.28 29.6206C94.46 30.3806 94.05 31.6706 93.96 32.3706C93.9 32.2206 94.16 31.4106 93.91 30.5006C92.85 26.4906 88.89 28.5706 88.89 28.5706C88.89 28.5706 88.72 25.3306 85.69 24.8406C82.11 24.2606 82.07 29.0606 82.1 30.0406C81.88 29.2006 79.27 26.6206 76.48 27.3106C71.77 28.4706 73.42 33.1106 73.42 33.1106C73.42 33.1106 70.28 30.2906 66.62 32.7006C61.07 36.3706 65.36 39.2606 65.36 39.2606C64 39.5406 61.77 42.0606 63.73 45.2306C63.77 45.2906 63.8 45.3406 63.84 45.4006C63.5 45.0706 63.16 44.6506 62.84 44.1306C60.89 40.9506 62.73 39.1906 64.1 38.8906C64.1 38.8906 60.25 35.2006 65.95 31.4206C69.7 28.9306 72.86 31.7406 72.86 31.7406C72.86 31.7406 71.27 27.1406 76.05 25.8306C78.75 25.0806 81.59 27.7506 81.74 28.5706C81.76 27.7706 82.05 23.4806 85.71 23.7206C89.75 23.9806 89.41 27.7806 89.41 27.7806C89.41 27.7806 93.31 25.5206 94.28 29.6406V29.6206Z" fill="#E6FAFF"/>
<path d="M3.80027 56.23C2.67027 57.61 1.27027 58.13 1.27027 58.13C1.27027 58.13 5.01027 61.39 0.370274 64.78C-8.61973 71.37 -14.5197 65.83 -14.5197 65.83C-14.5197 65.83 -14.8097 67.57 -16.4197 69.34C-18.0697 71.17 -21.0997 73.04 -26.6297 73.09C-31.3297 73.13 -36.7697 72.69 -35.4497 68.91C-35.4497 68.91 -36.0297 69.26 -36.9697 69.72V44.74C-35.4897 43.54 -33.2297 42.48 -29.7197 42.03C-24.3097 41.33 -23.4697 44.18 -23.4697 44.18C-23.4697 44.18 -22.1097 40.92 -16.3797 41.1C-10.6297 41.28 -10.8697 45.29 -10.8697 45.29C-10.8697 45.29 -1.57973 36.86 3.47027 46.15C6.29027 51.35 5.28027 54.48 3.82027 56.22L3.80027 56.23Z" fill="white"/>
<path d="M18.2197 83.7504C18.2197 83.7504 19.8197 78.2404 28.9597 79.6804C33.9097 80.4604 33.9097 83.1904 33.9097 83.1904C33.9097 83.1904 35.9597 80.6804 40.9597 82.3104C45.9597 83.9404 44.7297 87.4204 44.7297 87.4204C44.7297 87.4204 55.0997 82.4004 57.1497 91.8904C59.1997 101.38 52.1297 101.89 52.1297 101.89C52.1297 101.89 54.5897 105.72 49.6197 107.51C39.9897 110.98 36.2297 104.59 36.2297 104.59C36.2297 104.59 33.2997 110.59 23.6697 107.86C19.5097 106.68 14.8297 104.89 16.9697 101.89C16.9697 101.89 5.1097 104.99 4.4097 97.8604C4.1897 95.5704 6.7797 93.8004 6.7797 93.8004C6.7797 93.8004 0.909703 91.6904 6.0997 85.7804C11.5897 79.5304 17.1897 83.3704 18.2197 83.7604V83.7504Z" fill="white"/>
<path d="M48.04 94.2507C48.04 94.2507 49.99 90.2007 43.43 88.7207C39.11 87.7507 37.42 90.9007 37.42 90.9007C37.42 90.9007 37 86.6707 32.24 87.0107C29.19 87.2307 27.9 90.5007 28.33 90.9107C28.33 90.9107 26.3 86.6507 22.82 87.9907C19.33 89.3307 22.02 92.9507 22.02 92.9507C22.02 92.9507 18.68 91.9607 18.45 95.4707C18.27 98.1307 21.81 100.211 24.69 98.2807C24.69 98.2807 26.73 105.081 33.15 101.191C33.15 101.191 33.23 103.771 36.19 104.221C37.07 104.361 39.15 104.471 39.51 102.581C39.51 102.581 40.41 104.831 43.28 104.821C45.51 104.821 48.04 103.141 46.87 101.051C46.87 101.051 50.67 102.031 51.26 98.1307C51.73 95.0207 49.4 94.1107 48.06 94.2507H48.04Z" fill="#E6FAFF"/>
<path d="M21.1196 36.84C24.6985 36.84 27.5996 33.9657 27.5996 30.42C27.5996 26.8743 24.6985 24 21.1196 24C17.5408 24 14.6396 26.8743 14.6396 30.42C14.6396 33.9657 17.5408 36.84 21.1196 36.84Z" fill="#FFFF73"/>
<path d="M21.5695 12.7898L21.1295 25.1598L20.6895 12.7898C20.6895 12.1898 21.5795 12.1898 21.5795 12.7898H21.5695Z" fill="#FFFF73"/>
<path d="M11.0094 15.9001L17.9994 26.1601L10.2994 16.4101C9.93939 15.9301 10.6694 15.4101 11.0194 15.8901L11.0094 15.9001Z" fill="#FFFF73"/>
<path d="M4.30928 24.5603L16.0593 28.8003L4.03928 25.4003C3.46928 25.2203 3.73928 24.3703 4.30928 24.5703V24.5603Z" fill="#FFFF73"/>
<path d="M4.03974 35.4498L16.0597 32.0498L4.30974 36.2898C3.73974 36.4798 3.45974 35.6298 4.03974 35.4598V35.4498Z" fill="#FFFF73"/>
<path d="M10.2899 44.4297L17.9899 34.6797L10.9999 44.9397C10.6499 45.4297 9.91985 44.8997 10.2799 44.4197L10.2899 44.4297Z" fill="#FFFF73"/>
<path d="M20.6799 48.0595L21.1199 35.6895L21.5599 48.0595C21.5599 48.6595 20.6699 48.6595 20.6699 48.0595H20.6799Z" fill="#FFFF73"/>
<path d="M31.24 44.9495L24.25 34.6895L31.95 44.4395C32.31 44.9195 31.58 45.4395 31.23 44.9595L31.24 44.9495Z" fill="#FFFF73"/>
<path d="M37.9297 36.2898L26.1797 32.0498L38.1997 35.4498C38.7697 35.6298 38.4997 36.4798 37.9297 36.2798V36.2898Z" fill="#FFFF73"/>
<path d="M38.2094 25.39L26.1895 28.79L37.9395 24.55C38.5095 24.36 38.7894 25.21 38.2094 25.38V25.39Z" fill="#FFFF73"/>
<path d="M31.9598 16.4103L24.2598 26.1603L31.2498 15.9003C31.5998 15.4103 32.3298 15.9403 31.9698 16.4203L31.9598 16.4103Z" fill="#FFFF73"/>
<path d="M32.2796 23.1902C32.2796 23.1902 30.5396 24.2902 28.6896 25.4502C26.6096 26.7602 24.3896 28.1602 24.3896 28.1602L31.7796 22.4802C32.2696 22.1202 32.7996 22.8602 32.2896 23.2002L32.2796 23.1902Z" fill="#FFFF73"/>
<path d="M25.8499 18.0796C25.8499 18.0796 25.0899 19.9796 24.2899 21.9996C23.3799 24.2696 22.4199 26.6896 22.4199 26.6896L25.0199 17.7896C25.1999 17.2096 26.0699 17.5096 25.8599 18.0696L25.8499 18.0796Z" fill="#FFFF73"/>
<path d="M17.6201 17.6896C17.6201 17.6896 18.1401 19.6696 18.6801 21.7696C19.3001 24.1396 19.9501 26.6596 19.9501 26.6596L16.7701 17.9496C16.5801 17.3796 17.4501 17.1096 17.6201 17.6896Z" fill="#FFFF73"/>
<path d="M10.7198 22.1597C10.7198 22.1597 12.3098 23.4597 13.9998 24.8397C15.8998 26.3997 17.9298 28.0497 17.9298 28.0497L10.1898 22.8497C9.68981 22.4997 10.2398 21.7697 10.7198 22.1497V22.1597Z" fill="#FFFF73"/>
<path d="M7.79945 29.7896C7.79945 29.7896 9.94945 29.9196 12.1894 30.0596C14.6094 30.2096 17.1394 30.3596 17.1394 30.3596L7.78944 30.6596C7.17944 30.6596 7.18945 29.7596 7.79945 29.7796V29.7896Z" fill="#FFFF73"/>
<path d="M9.96961 37.6595C9.96961 37.6595 11.7096 36.5595 13.5596 35.3995C15.6396 34.0895 17.8596 32.6895 17.8596 32.6895L10.4696 38.3695C9.97961 38.7295 9.44961 37.9895 9.95961 37.6495L9.96961 37.6595Z" fill="#FFFF73"/>
<path d="M16.3999 42.7594C16.3999 42.7594 17.1599 40.8594 17.9599 38.8394C18.8699 36.5694 19.8299 34.1494 19.8299 34.1494L17.2299 43.0494C17.0499 43.6294 16.1799 43.3294 16.3899 42.7694L16.3999 42.7594Z" fill="#FFFF73"/>
<path d="M24.6298 43.1595C24.6298 43.1595 24.1098 41.1795 23.5698 39.0795C22.9498 36.7095 22.2998 34.1895 22.2998 34.1895L25.4798 42.8995C25.6698 43.4695 24.7998 43.7395 24.6298 43.1595Z" fill="#FFFF73"/>
<path d="M31.5196 38.68C31.5196 38.68 29.9296 37.38 28.2396 36C26.3396 34.44 24.3096 32.79 24.3096 32.79L32.0496 37.99C32.5496 38.34 31.9996 39.07 31.5196 38.69V38.68Z" fill="#FFFF73"/>
<path d="M34.4396 31.0595C34.4396 31.0595 32.2896 30.9295 30.0496 30.7895C27.6296 30.6395 25.0996 30.4895 25.0996 30.4895L34.4496 30.1895C35.0596 30.1895 35.0496 31.0895 34.4396 31.0695V31.0595Z" fill="#FFFF73"/>
<path d="M95.58 170.61C87.39 171.52 0.219997 170.19 -3.28 174.92C-4.44 176.49 53.79 179.42 33.66 179.51C13.52 179.6 19.56 180.61 6.59 181.61C-6.37 182.61 -1.74 180.62 -16.24 179.8C-25.34 179.28 -32.01 180.58 -37 180.56V168.63L-32.08 168.92C-32.08 168.92 78.53 167.71 89.26 167.38C99.99 167.05 103.76 169.7 95.57 170.61H95.58Z" fill="#37B0BD"/>
<path d="M163.01 189.67V200H64.7305C65.7305 199.49 66.9805 198.86 69.1405 198.47C75.6005 197.29 94.3305 197.78 104.37 197.97C114.42 198.17 112.89 193.76 120.03 192.09C125.81 190.75 152.92 189.96 163 189.68L163.01 189.67Z" fill="#37B0BD"/>
<path d="M11.1398 158.76C11.1398 158.76 11.0098 158.85 10.7998 158.87C9.54977 159.04 5.23977 158.88 4.83977 159.06C4.36977 159.27 -0.310234 159.06 -0.310234 159.06C-0.310234 159.06 -3.59023 159.32 -4.18023 159.32C-4.77023 159.32 -7.08024 159.32 -8.52024 159.36C-9.97024 159.4 -16.4802 159.42 -17.4402 159.64C-18.4002 159.87 -23.3702 160.25 -24.3502 160C-25.3302 159.74 -24.8602 159.74 -26.5702 160.04C-28.2702 160.34 -28.9902 160.47 -29.9302 160.13C-30.8602 159.79 -31.9902 159.71 -32.8202 159.7C-33.1502 159.7 -33.4502 159.71 -33.7702 159.73C-33.9002 159.74 -34.0402 159.75 -34.1802 159.75H-34.1902C-34.5602 159.78 -34.9702 159.79 -35.4602 159.78C-36.0102 159.76 -36.5602 159.73 -36.9902 159.7V158.67C-36.8502 158.67 -36.7102 158.7 -36.5302 158.76C-36.5302 158.76 -35.2502 156.76 -33.5902 157.36C-31.9302 157.96 -32.8602 155.24 -31.6302 155.66C-30.4002 156.08 -29.0602 155.24 -29.2302 156.35C-29.4202 157.49 -29.6702 157.87 -28.6102 157.87C-27.5502 157.87 -28.1802 158.55 -26.3102 157.66C-24.4402 156.76 -24.5202 155.83 -23.8002 156.93C-23.0802 158.04 -23.3302 158.25 -22.8202 158.51C-22.3102 158.76 -20.2602 158.18 -20.2602 158.18C-20.2602 158.18 -18.7602 157.62 -17.9402 158.34C-17.1202 159.06 -15.7602 158.13 -15.2002 157.96C-14.6502 157.79 -11.5502 157.4 -10.4802 158.21C-9.42023 159.02 -8.65024 159.02 -6.86024 158.13C-5.08024 157.23 -4.45024 155.19 -2.85023 156.3C-1.25023 157.4 -1.29024 157.45 -0.480236 158.13C0.329764 158.81 4.40977 157.57 4.40977 157.57C4.40977 157.57 6.44977 156.21 6.91977 157.21C7.38977 158.21 8.62976 158 8.62976 158C8.62976 158 9.76977 155.83 10.3698 156.98C10.9698 158.13 11.1498 158.41 11.1398 158.76Z" fill="#00692E"/>
<path d="M14.9804 174.92V177.94H14.9404L5.65039 178.35L14.8504 174.97L14.9804 174.92Z" fill="#78A194"/>
<path d="M26.5505 174.021V177.43L14.9805 177.941V174.921L26.5505 174.021Z" fill="#8AB8AA"/>
<path d="M91.0607 173.49C71.8407 175.81 17.9007 180.37 17.0107 177.27C17.0107 177.27 17.2007 177.2 17.5407 177.06H17.5607C17.5607 177.06 17.5607 177.06 17.5807 177.04C17.5807 177.04 17.5907 177.05 17.6007 177.04C19.6207 176.25 26.4907 173.61 32.2907 171.81H32.3007C34.6907 171.07 36.9107 170.46 38.5107 170.19H38.5207C38.7507 170.16 38.9507 170.12 39.1507 170.1C42.5307 169.68 61.0307 170.25 76.3707 170.95C78.1107 171.03 79.8007 171.11 81.4207 171.2C89.8707 171.62 96.5107 172.06 97.6607 172.34C98.3107 172.5 95.6907 172.93 91.0507 173.49H91.0607Z" fill="#F2FFF8"/>
<path d="M114.37 171.67L113.73 174.56L111.43 184.86L111.23 185.77L111.04 186.63L110.88 187.33L7.05039 187.93L6.86039 186.63L6.60039 184.88L5.99039 180.71L5.65039 178.35C5.65039 178.35 9.27039 178 14.5904 177.5C28.0004 176.23 52.2304 173.98 56.4804 173.88C63.8604 173.71 114.37 171.67 114.37 171.67Z" fill="white"/>
<path d="M73.7502 172.36V172.93L63.9502 173.22L64.5602 171.91L73.7502 172.36Z" fill="#5A72AD"/>
<path d="M61.5899 171.91L60.7299 173.22L51.9199 173.48L53.3299 171.91H61.5899Z" fill="#5A72AD"/>
<path d="M49.11 173.221V172.331C49.11 172.331 46.86 171.321 44.96 172.331V173.221C44.96 173.221 46.75 174.181 49.11 173.221Z" fill="#5A72AD"/>
<path d="M42.3805 173.22V172.33C42.3805 172.33 40.3105 171.3 38.2305 172.33V173.22C38.2305 173.22 39.7905 174.25 42.3805 173.22Z" fill="#5A72AD"/>
<path d="M28.6207 181.151V180.261C28.6207 180.261 26.5507 179.231 24.4707 180.261V181.151C24.4707 181.151 26.0307 182.181 28.6207 181.151Z" fill="#445682"/>
<path d="M73.7506 181.151V180.261C73.7506 180.261 71.6806 179.231 69.6006 180.261V181.151C69.6006 181.151 71.1606 182.181 73.7506 181.151Z" fill="#445682"/>
<path d="M69.16 18.1602L68.39 157.2L42.58 153.51C42.58 153.51 42.57 153.5 42.56 153.5L24.04 150.85C26.71 146.26 31.02 135.18 35.94 121.26C35.95 121.24 35.95 121.23 35.95 121.23C50.05 81.3302 69.16 18.1602 69.16 18.1602Z" fill="#FFF785"/>
<path d="M38.5702 170.181C38.3402 170.421 38.1702 170.821 38.0902 171.031C38.0502 171.031 38.0302 171.041 38.0102 171.051C36.8702 171.591 19.2902 176.561 17.6602 177.021C19.7502 176.201 26.5402 173.591 32.2902 171.811H32.3002C34.6902 171.071 36.9102 170.461 38.5102 170.191H38.5202C38.5202 170.191 38.5502 170.191 38.5702 170.181Z" fill="#A3ADC7"/>
<path d="M91.0603 173.49C89.0203 173.53 87.3303 173.33 86.6403 172.7C86.6403 172.7 74.4303 171.42 72.7303 171.43C72.2403 171.44 69.3003 171.36 65.3203 171.26L69.9103 171.07L69.5803 170.66C71.8703 170.75 74.1503 170.85 76.3703 170.95C78.1103 171.03 79.8003 171.11 81.4203 171.2C89.8703 171.62 96.5103 172.06 97.6603 172.34C98.3103 172.5 95.6903 172.93 91.0503 173.49H91.0603Z" fill="#D6E2FF"/>
<path d="M114.38 171.67L113.74 174.56C104.65 174.57 62.5702 176.18 57.5302 176.59C52.2602 177.01 10.2102 180.37 6.00016 180.71L5.66016 178.35C5.66016 178.35 50.5502 174.02 56.4902 173.88C63.8702 173.71 114.38 171.67 114.38 171.67Z" fill="#9BD1B1"/>
<path d="M21.7508 151.521C22.1208 151.521 68.8608 157.26 68.8608 157.26L68.6208 159.251C68.6208 159.251 22.1008 153.96 21.5108 153.51C21.2308 153.29 21.0908 152.86 21.1408 152.43C21.2008 151.92 21.4408 151.521 21.7508 151.521Z" fill="#7B9EBA"/>
<path d="M38.5108 170.19C37.7808 170.51 37.6308 171 37.6308 171C37.6308 171 35.9708 171.59 34.5908 171.81C33.3508 172.01 32.3608 171.84 32.3008 171.81C34.6908 171.07 36.9108 170.46 38.5108 170.19Z" fill="#5A72AD"/>
<path d="M111.431 184.86L111.041 186.63H6.86058L6.60059 184.88L6.61058 184.86H111.431Z" fill="#7BBA95"/>
<g style="mix-blend-mode:multiply" opacity="0.26">
<path d="M111.23 185.77L111.04 186.63L110.88 187.33L7.05039 187.93L6.86039 186.63L6.60039 184.88L5.99039 180.71L5.65039 178.35C5.65039 178.35 9.27039 178 14.5904 177.5C15.0404 177.65 29.4604 182.8 51.9204 184.86C75.7204 187.03 107.61 186.16 111.23 185.77Z" fill="#7A98E3"/>
</g>
<path d="M57.3908 156.45L69.4108 167.75L68.9008 168.3L56.8808 157C56.8808 157 56.7908 156.57 57.3908 156.45Z" fill="#6D8DA6"/>
<path d="M69.9108 171.07L65.3208 171.26H65.2008C55.4408 171.02 39.5708 170.66 38.0908 171.03C38.1708 170.82 38.3408 170.42 38.5708 170.18C38.7808 170.15 38.9708 170.12 39.1508 170.1C42.0408 169.74 56.0008 170.11 69.5808 170.66L69.9108 171.07Z" fill="#B9CBF7"/>
<path d="M70.8108 170.72C70.7408 170.87 70.3608 171.03 69.9108 171.07C69.8208 171.08 69.7208 171.09 69.6308 171.09C69.0708 171.09 68.5908 170.97 68.4008 170.65C68.2208 170.34 68.8808 69.7703 69.1208 23.5903L69.1508 18.6803C69.2108 17.3503 68.9708 15.1503 69.5808 13.8403C69.5908 13.8203 69.6008 13.8003 69.6108 13.7803C70.2508 15.1303 70.0008 17.2403 70.0608 18.6803L70.0908 23.5903C70.3408 69.7403 70.8808 170.53 70.8108 170.72Z" fill="#7B9EBA"/>
<path d="M69.9108 171.07C69.8208 171.08 69.7208 171.09 69.6308 171.09C69.0708 171.09 68.5908 170.97 68.4008 170.65C68.2208 170.34 68.8808 69.7698 69.1208 23.5898L69.1508 18.6798C69.2108 17.3498 68.9708 15.1498 69.5808 13.8398C69.5308 15.2298 69.3208 17.4698 69.3808 19.3198C69.4208 20.7898 68.9808 57.7298 69.4308 95.6798C69.8808 133.63 68.4108 168.33 69.9108 171.07Z" fill="#6A8AA3"/>
<path opacity="0.38" d="M42.98 137.351C42.98 137.351 36.51 144.981 38.08 146.651C39.55 148.201 41.56 147.891 41.84 147.841C41.37 148.061 35.73 150.831 42.48 153.461C42.51 153.461 42.54 153.481 42.56 153.501L24.04 150.851C26.71 146.261 31.02 135.181 35.94 121.261C35.77 121.911 32.57 134.001 34.9 133.131C37.21 132.261 42.95 126.041 43.3 125.661C42.92 126.331 36.43 137.671 37.24 139.691C38.08 141.771 42.98 137.351 42.98 137.351Z" fill="#DED774"/>
<path d="M49.1104 116.91C43.3904 125.58 37.6104 134.21 31.4904 142.61C29.3404 145.33 27.5104 148.39 24.7604 150.55L24.6504 150.32C27.3304 148.21 29.2204 145.15 31.3404 142.49C37.5104 134.14 43.3404 125.54 49.1104 116.91Z" fill="#D4CD6E"/>
<path d="M49.9203 130.46C46.1703 134.44 42.2603 138.26 38.1603 141.87C34.0103 145.38 29.8103 149.12 24.6403 151.05L24.5703 150.81C29.6903 148.94 33.9403 145.23 38.0803 141.78C42.2003 138.2 46.1403 134.41 49.9203 130.46Z" fill="#D4CD6E"/>
<path d="M48.86 145.94C40.76 148.05 32.65 150.72 24.25 151.19V150.94C32.62 150.54 40.77 147.96 48.86 145.94Z" fill="#D4CD6E"/>
<path d="M22.7805 151.63C22.7805 151.63 23.7504 151.22 24.6304 149.78C24.6304 149.78 25.8705 150.34 25.8505 151.11C25.8505 151.11 24.1904 151.62 23.3604 151.71C22.5304 151.8 22.7805 151.64 22.7805 151.64V151.63Z" fill="#283B69"/>
<path d="M69.8501 34.0102C69.8501 34.2702 70.1001 34.5702 70.4201 35.1502C71.4001 36.9002 73.2601 40.5602 73.2501 43.5402V43.5902H73.3701L73.4701 43.5202C73.4701 43.5202 72.0901 41.0602 71.6601 40.1302C70.8101 38.2802 70.1501 36.8502 70.1001 36.6002C70.0701 36.4102 69.8901 36.5202 69.8601 36.6702C69.8501 36.7402 70.4101 38.2002 71.1201 39.6502C72.0701 41.5902 73.2501 43.6502 73.2601 43.6502L73.4901 43.9802V43.5802V43.5202C73.4901 39.4202 70.1201 34.0302 70.0501 33.9702C69.9801 33.9102 69.8301 33.7302 69.8301 33.9902L69.8501 34.0102Z" fill="#283B69"/>
<path d="M69.57 14.3506C58.88 49.1506 47.78 83.8406 35.81 118.231C32.22 128.221 28.78 138.301 24.28 147.931C23.58 149.281 22.95 150.681 21.88 151.831L21.71 151.651C22.71 150.571 23.37 149.161 24.05 147.821C33.29 127.031 39.94 105.181 47.26 83.6706C54.04 63.7406 62.81 34.2606 69.57 14.3606V14.3506Z" fill="#D9E4FF"/>
<path d="M70.4707 157.601C82.0707 160.201 99.8707 164.211 111.301 166.811C111.741 166.921 111.971 166.931 112.371 167.201C111.581 167.311 110.701 166.951 109.911 166.831C105.141 165.841 96.2507 164.001 91.4007 163.001L70.2607 158.581L70.4707 157.601Z" fill="#7B9EBA"/>
<path d="M65.5607 158.291L62.7207 170.631C62.7207 170.631 62.7207 170.721 62.8407 170.751C62.9607 170.781 62.9807 170.691 62.9807 170.691L65.8207 158.351C65.8207 158.351 65.7507 158.131 65.5607 158.291Z" fill="white"/>
<path d="M68.9508 162.29L58.3708 170.76C58.3708 170.76 58.2608 170.82 58.1908 170.72C58.1208 170.6 58.2008 170.55 58.2008 170.55L68.7808 162.08C68.7808 162.08 68.9508 162.04 68.9408 162.29H68.9508Z" fill="white"/>
<path d="M64.6001 163.61L64.8301 170.46C64.8301 170.46 64.8101 170.5 64.7001 170.5C64.5901 170.5 64.5601 170.47 64.5601 170.47L64.3301 163.62H64.5901L64.6001 163.61Z" fill="white"/>
<path opacity="0.55" d="M113.49 187.35V188.26L11.95 189.49L4.04004 188.72L4.30004 187.51C4.30004 187.51 4.32004 187.5 4.37004 187.48C4.39004 187.48 4.42004 187.46 4.46004 187.45C4.82004 187.32 5.87004 187.07 8.10004 187.22C11.01 187.42 12.38 186.39 13.85 186.84C15.31 187.29 15.22 187.1 17.17 186.81C19.11 186.52 19.11 186.2 21.41 186.62C23.71 187.03 23.68 186.97 26.42 187.03C29.17 187.1 31.72 187.61 33.95 187.22C36.19 186.84 38.77 187.34 38.77 187.34C38.77 187.34 44.75 186.14 46.28 186.63C47.81 187.12 49.86 187.51 52.67 186.96C55.47 186.42 54.26 185.97 57.26 186.29C60.26 186.61 61.22 186.8 62.56 186.93C63.9 187.05 66.07 186.67 67.79 186.48C69.52 186.29 72.9 186.07 73.16 186.35C73.41 186.63 74.05 187.15 77.75 186.85C81.45 186.54 82.79 186.48 85.67 186.22C88.54 185.97 89.56 185.78 91.67 185.9C93.77 186.03 101.81 186.63 104.94 186.63C108.07 186.63 111.97 186.73 113.49 187.35Z" fill="#2E889E"/>
<path d="M113.49 187.35C113.49 187.35 103.06 186.81 101.85 186.97C100.63 187.13 95.69 187.03 93.64 186.81C91.6 186.59 93.07 186.2 89.56 186.59C86.05 186.97 63.45 188.15 60.96 187.29C58.48 186.42 57.55 187.1 55.63 187.26C53.72 187.42 49.09 188.18 47.18 188.12C45.26 188.05 48.77 186.87 44.34 187.45C39.9 188.02 37.76 187.51 35.02 187.83C32.27 188.15 29.56 187.86 27.52 187.64C25.47 187.42 24.29 187.57 22.28 187.45C20.27 187.32 21.9 187.19 18.42 187.77C14.94 188.34 15.42 188.44 13.19 187.93C10.95 187.42 8.74996 187.92 7.69996 187.92C6.74996 187.93 5.03996 187.34 4.45996 187.45C4.81996 187.32 5.86996 187.07 8.09996 187.22C11.01 187.42 12.38 186.39 13.85 186.84C15.31 187.29 15.22 187.1 17.17 186.81C19.11 186.52 19.11 186.2 21.41 186.62C23.71 187.03 23.68 186.97 26.42 187.03C29.17 187.1 31.72 187.61 33.95 187.22C36.19 186.84 38.77 187.34 38.77 187.34C38.77 187.34 44.75 186.14 46.28 186.63C47.81 187.12 49.86 187.51 52.67 186.96C55.47 186.42 54.26 185.97 57.26 186.29C60.26 186.61 61.22 186.8 62.56 186.93C63.9 187.05 66.07 186.67 67.79 186.48C69.52 186.29 72.9 186.07 73.16 186.35C73.41 186.63 74.05 187.15 77.75 186.85C81.45 186.54 82.79 186.48 85.67 186.22C88.54 185.97 89.56 185.78 91.67 185.9C93.77 186.03 101.81 186.63 104.94 186.63C108.07 186.63 111.97 186.73 113.49 187.35Z" fill="white"/>
</g>
</svg>
