<svg width="73" height="200" viewBox="0 0 73 200" fill="none" xmlns="http://www.w3.org/2000/svg">
<mask id="mask0_103_99" style="mask-type:luminance" maskUnits="userSpaceOnUse" x="0" y="0" width="73" height="200">
<path d="M72.55 0L37.88 200H0.77002L35.43 0H72.55Z" fill="white"/>
</mask>
<g mask="url(#mask0_103_99)">
<mask id="mask1_103_99" style="mask-type:luminance" maskUnits="userSpaceOnUse" x="-119" y="0" width="201" height="200">
<path d="M81.4401 0H-118.56V200H81.4401V0Z" fill="white"/>
</mask>
<g mask="url(#mask1_103_99)">
<path d="M81.4402 0H-118.56V200H81.4402V0Z" fill="#B0E3FF"/>
<g opacity="0.56">
<path d="M96.3402 85.7906C96.3402 81.6306 93.5902 77.9106 88.4702 77.9106C90.9202 70.4306 85.4402 66.0906 79.6302 66.0906C78.1702 66.0906 76.7802 66.3706 75.5102 66.8706C75.3702 61.0606 70.4902 56.3906 64.4802 56.3906C59.1902 56.3906 54.7702 60.0106 53.7002 64.8406C52.1702 64.0606 50.4202 63.6106 48.5702 63.6106C44.7902 63.6106 41.4602 65.4606 39.4702 68.2706C37.9902 66.9806 36.0402 66.2006 33.8902 66.2006C29.3202 66.2006 25.6102 69.7506 25.5102 74.1706C24.5402 73.7906 23.4902 73.5806 22.3802 73.5806C17.9602 73.5806 13.8002 76.8806 15.6602 82.5706C11.7702 82.5706 9.68018 85.4006 9.68018 88.5606C9.68018 92.9406 13.0102 96.5606 17.3402 97.1706C17.6702 99.8006 19.6302 102.081 22.4402 102.741C23.5402 103.001 24.6402 102.981 25.6602 102.721C25.5902 105.731 27.6702 108.501 30.8102 109.231C34.3802 110.071 37.9602 107.981 38.9002 104.551C39.5802 105.021 40.3602 105.391 41.2302 105.591C43.2702 106.071 45.4602 105.621 46.8402 104.191C48.5802 107.901 52.4102 110.491 56.8802 110.491C59.9102 110.491 62.6402 109.301 64.6402 107.381C65.5002 107.521 66.4002 107.481 67.2702 107.281C68.1402 107.081 68.9202 106.721 69.6002 106.241C70.5402 109.671 74.1202 111.761 77.6902 110.921C80.8302 110.181 82.9102 107.421 82.8402 104.411C83.8602 104.661 84.9602 104.681 86.0602 104.431C89.6802 103.581 91.9002 100.041 91.0202 96.5206C90.9702 96.3006 90.9002 96.1006 90.8302 95.8906C91.3202 95.5106 91.7502 95.0606 92.1302 94.5706C94.7002 92.4706 96.3302 89.3206 96.3302 85.8106L96.3402 85.7906Z" fill="white"/>
<path d="M94.1302 92.5604C95.1202 90.8404 96.0602 88.7604 96.0602 87.0704C96.0602 82.8704 92.9502 78.9504 87.8802 78.9504C90.3202 71.4104 85.2602 67.2004 79.5002 67.2004C78.0502 67.2004 76.6802 67.4904 75.4302 67.9804C75.2902 62.1204 70.4502 57.4104 64.4902 57.4104C59.2502 57.4104 54.8802 61.0604 53.8102 65.9304C52.2802 65.1504 50.5502 64.6804 48.7302 64.6804C44.9902 64.6804 41.6802 66.5404 39.7102 69.3904C38.2302 68.1004 36.3002 67.3004 34.1702 67.3004C29.6402 67.3004 25.9702 70.8804 25.8602 75.3304C24.9002 74.9604 23.8602 74.7504 22.7602 74.7504C18.3902 74.7504 14.2602 78.0704 16.1102 83.8104C13.7602 83.7904 9.75018 86.8104 11.2202 92.7004C11.3802 93.3304 11.7002 93.8004 12.0202 94.3904C11.2202 93.5004 10.4102 92.3904 10.0202 90.9304C8.50018 85.0504 12.6102 82.0204 15.0402 82.0404C13.1402 76.3004 17.3902 72.9804 21.8802 72.9804C23.0102 72.9804 24.0902 73.2004 25.0702 73.5804C25.1902 69.1204 28.9702 65.5404 33.6202 65.5404C35.8002 65.5404 37.8002 66.3404 39.3002 67.6304C41.3402 64.7804 44.7302 62.9204 48.5802 62.9204C50.4602 62.9204 52.2402 63.3804 53.8002 64.1704C54.9002 59.2904 59.4102 55.6504 64.7902 55.6504C70.9202 55.6504 75.8802 60.3604 76.0202 66.2204C77.3302 65.7304 78.7402 65.4404 80.2302 65.4404C86.1502 65.4404 91.7202 69.8204 89.2302 77.3804C94.4402 77.3804 97.2402 81.1204 97.2402 85.3204C97.2402 87.6604 95.3902 90.7304 94.1202 92.5804L94.1302 92.5604Z" fill="#BAECFF"/>
<path d="M54.0402 88.7404C53.8302 89.4204 53.5302 90.0404 53.1402 90.6004C53.2802 90.3204 53.4002 90.0204 53.4902 89.7104C54.6002 86.1104 52.4902 82.3304 48.8002 81.2604C46.6002 80.6204 44.3402 81.0704 42.6302 82.3104C42.3502 82.5104 42.1002 82.7204 41.8602 82.9604C41.7402 82.7004 41.6202 82.4504 41.4802 82.2104C40.5002 80.5304 38.8902 79.1904 36.8402 78.5904C32.6402 77.3704 28.2102 79.7004 26.9602 83.7804C26.8302 84.1804 26.7502 84.6004 26.7002 85.0004C26.6502 85.3204 26.6302 85.6404 26.6302 85.9604C26.5102 85.9104 26.4002 85.8704 26.2702 85.8404C26.2602 85.8404 26.2402 85.8304 26.2302 85.8304C24.1002 85.2404 21.8902 86.4104 21.2602 88.4704C21.0402 89.2004 21.0402 89.9604 21.2502 90.6604C20.8002 89.7604 20.6902 88.7104 21.0102 87.6704C21.6802 85.5104 23.9802 84.2604 26.2102 84.8304C26.2202 84.1204 26.3402 83.3904 26.5602 82.6804C27.9002 78.3304 32.6202 75.8504 37.0902 77.1504C39.4502 77.8304 41.2802 79.4304 42.2702 81.4404C44.0902 79.8604 46.6802 79.2104 49.1902 79.9404C53.0302 81.0604 55.2202 84.9904 54.0702 88.7304L54.0402 88.7404Z" fill="#BAECFF"/>
<path d="M81.7302 96.0202C81.2602 96.2302 80.7802 96.3602 80.2902 96.4202C80.5102 96.3602 80.7302 96.2802 80.9402 96.1902C83.4202 95.0902 84.5202 92.2502 83.4002 89.8402C82.7302 88.4002 81.4302 87.4402 79.9602 87.1302C79.7202 87.0802 79.4902 87.0502 79.2502 87.0402C79.3402 86.8602 79.4102 86.6802 79.4902 86.4902C79.9602 85.2002 79.9402 83.7502 79.3202 82.4102C78.0402 79.6702 74.7102 78.4502 71.8902 79.7002C71.6102 79.8202 71.3402 79.9702 71.1002 80.1302C70.9002 80.2502 70.7102 80.3902 70.5402 80.5402C70.5102 80.4602 70.4802 80.3802 70.4402 80.3002C70.4402 80.3002 70.4402 80.2802 70.4302 80.2702C69.7702 78.9002 68.1002 78.2902 66.6702 78.9202C66.1602 79.1402 65.7502 79.4902 65.4602 79.9302C65.7502 79.2802 66.2702 78.7302 66.9802 78.4202C68.4702 77.7602 70.2302 78.3702 70.9502 79.7902C71.3502 79.4602 71.8002 79.1902 72.2902 78.9702C75.3002 77.6402 78.8502 78.9402 80.2102 81.8602C80.9302 83.4002 80.9002 85.0902 80.2602 86.5302C81.9702 86.7402 83.5302 87.7802 84.2902 89.4202C85.4602 91.9302 84.3202 94.8902 81.7302 96.0302V96.0202Z" fill="#BAECFF"/>
</g>
<g opacity="0.56">
<path d="M12.1403 4.39055C12.1403 1.69055 13.9303 -0.729453 17.2503 -0.729453C15.6603 -5.57945 19.2102 -8.39945 22.9902 -8.39945C23.9402 -8.39945 24.8403 -8.21945 25.6703 -7.88945C25.7603 -11.6595 28.9303 -14.6895 32.8303 -14.6895C36.2603 -14.6895 39.1303 -12.3395 39.8303 -9.20945C40.8303 -9.71945 41.9603 -10.0095 43.1603 -10.0095C45.6103 -10.0095 47.7803 -8.80945 49.0703 -6.97945C50.0303 -7.81945 51.3003 -8.32945 52.6903 -8.32945C55.6603 -8.32945 58.0602 -6.02945 58.1302 -3.15945C58.7602 -3.40945 59.4403 -3.54945 60.1603 -3.54945C63.0303 -3.54945 65.7303 -1.40945 64.5203 2.28055C67.0403 2.28055 68.4003 4.12055 68.4003 6.17055C68.4003 9.01055 66.2403 11.3605 63.4203 11.7605C63.2003 13.4705 61.9303 14.9505 60.1103 15.3805C59.4003 15.5505 58.6803 15.5305 58.0203 15.3705C58.0703 17.3305 56.7103 19.1205 54.6803 19.6005C52.3703 20.1405 50.0403 18.7905 49.4303 16.5605C48.9903 16.8705 48.4803 17.1005 47.9203 17.2305C46.6003 17.5405 45.1703 17.2505 44.2803 16.3205C43.1503 18.7305 40.6603 20.4105 37.7603 20.4105C35.8003 20.4105 34.0203 19.6405 32.7303 18.3905C32.1703 18.4805 31.5903 18.4605 31.0203 18.3205C30.4603 18.1905 29.9503 17.9505 29.5103 17.6505C28.9003 19.8705 26.5703 21.2305 24.2603 20.6905C22.2203 20.2105 20.8703 18.4205 20.9203 16.4605C20.2503 16.6205 19.5403 16.6405 18.8303 16.4705C16.4803 15.9205 15.0403 13.6205 15.6103 11.3405C15.6403 11.2005 15.6903 11.0605 15.7303 10.9305C15.4103 10.6805 15.1303 10.3905 14.8903 10.0705C13.2203 8.71055 12.1603 6.66055 12.1603 4.38055L12.1403 4.39055Z" fill="white"/>
<path d="M13.5803 8.78031C12.9403 7.66031 12.3303 6.31031 12.3303 5.22031C12.3303 2.49031 14.3503 -0.0496874 17.6403 -0.0496874C16.0603 -4.93969 19.3403 -7.67969 23.0803 -7.67969C24.0203 -7.67969 24.9103 -7.48969 25.7303 -7.16969C25.8203 -10.9697 28.9603 -14.0297 32.8303 -14.0297C36.2303 -14.0297 39.0703 -11.6597 39.7603 -8.49969C40.7503 -9.00969 41.8703 -9.30969 43.0603 -9.30969C45.4903 -9.30969 47.6403 -8.09969 48.9203 -6.24969C49.8803 -7.08969 51.1403 -7.60969 52.5103 -7.60969C55.4503 -7.60969 57.8303 -5.27969 57.9003 -2.39969C58.5203 -2.63969 59.2003 -2.77969 59.9103 -2.77969C62.7503 -2.77969 65.4303 -0.619687 64.2303 3.10031C65.7603 3.10031 68.3603 5.05031 67.4103 8.87031C67.3103 9.28031 67.1003 9.58031 66.8903 9.97031C67.4103 9.39031 67.9403 8.67031 68.1903 7.72031C69.1703 3.91031 66.5103 1.94031 64.9303 1.95031C66.1603 -1.76969 63.4003 -3.92969 60.4903 -3.92969C59.7603 -3.92969 59.0503 -3.78969 58.4203 -3.53969C58.3403 -6.43969 55.8903 -8.75969 52.8703 -8.75969C51.4603 -8.75969 50.1603 -8.23969 49.1803 -7.39969C47.8603 -9.24969 45.6503 -10.4597 43.1503 -10.4597C41.9303 -10.4597 40.7803 -10.1597 39.7603 -9.64969C39.0503 -12.8197 36.1203 -15.1797 32.6303 -15.1797C28.6503 -15.1797 25.4303 -12.1197 25.3403 -8.31969C24.4903 -8.63969 23.5803 -8.82969 22.6003 -8.82969C18.7603 -8.82969 15.1403 -5.97969 16.7603 -1.07969C13.3803 -1.07969 11.5603 1.35031 11.5603 4.07031C11.5603 5.59031 12.7603 7.58031 13.5803 8.78031Z" fill="#BAECFF"/>
<path d="M35.8903 9.06984C36.0303 9.50984 36.2203 9.90984 36.4803 10.2798C36.3903 10.0998 36.3103 9.89984 36.2503 9.69984C35.5303 7.36984 36.9003 4.90984 39.2903 4.20984C40.7203 3.78984 42.1903 4.08984 43.3003 4.88984C43.4803 5.01984 43.6403 5.15984 43.8003 5.30984C43.8803 5.13984 43.9603 4.97984 44.0503 4.81984C44.6803 3.72984 45.7303 2.85984 47.0603 2.46984C49.7803 1.67984 52.6603 3.18984 53.4803 5.83984C53.5603 6.09984 53.6203 6.36984 53.6503 6.62984C53.6803 6.83984 53.7003 7.04984 53.7003 7.24984C53.7803 7.21984 53.8503 7.18984 53.9303 7.16984C53.9303 7.16984 53.9503 7.16984 53.9603 7.16984C55.3403 6.78984 56.7703 7.54984 57.1903 8.88984C57.3303 9.36984 57.3303 9.85984 57.1903 10.3098C57.4803 9.72984 57.5603 9.03984 57.3503 8.36984C56.9203 6.96984 55.4303 6.15984 53.9803 6.52984C53.9803 6.06984 53.9003 5.59984 53.7503 5.13984C52.8803 2.31984 49.8203 0.709841 46.9103 1.54984C45.3803 1.98984 44.1903 3.02984 43.5503 4.32984C42.3703 3.29984 40.6903 2.87984 39.0603 3.35984C36.5703 4.07984 35.1503 6.63984 35.8903 9.06984Z" fill="#BAECFF"/>
<path d="M24.3903 6.0701C24.6503 6.2801 24.9303 6.4401 25.2203 6.5601C25.0903 6.4901 24.9703 6.4001 24.8503 6.3101C23.4803 5.2001 23.2703 3.23011 24.3803 1.91011C25.0403 1.12011 26.0203 0.740105 27.0003 0.790105C27.1603 0.790105 27.3103 0.820106 27.4603 0.850106C27.4403 0.720106 27.4203 0.600105 27.4003 0.470105C27.3203 -0.419895 27.5803 -1.3299 28.2003 -2.0599C29.4703 -3.5599 31.7603 -3.75989 33.3203 -2.49989C33.4803 -2.37989 33.6203 -2.2399 33.7403 -2.0999C33.8503 -1.9899 33.9403 -1.86989 34.0203 -1.74989C34.0503 -1.79989 34.0803 -1.83989 34.1203 -1.88989C34.1203 -1.88989 34.1203 -1.8999 34.1303 -1.8999C34.7803 -2.6499 35.9203 -2.7499 36.7103 -2.1099C36.9903 -1.8799 37.1903 -1.5899 37.2903 -1.2699C37.2203 -1.7199 36.9903 -2.1599 36.5903 -2.4799C35.7603 -3.1399 34.5603 -3.05989 33.8703 -2.28989C33.6803 -2.55989 33.4403 -2.8099 33.1703 -3.0299C31.5103 -4.3699 29.0703 -4.1599 27.7203 -2.5599C27.0103 -1.7199 26.7403 -0.649895 26.9003 0.360105C25.7903 0.200105 24.6403 0.590105 23.8803 1.49011C22.7203 2.86011 22.9403 4.9101 24.3603 6.0601L24.3903 6.0701Z" fill="#BAECFF"/>
</g>
<path d="M63.0102 49.8705C62.4702 49.9205 57.4502 48.9905 57.1302 49.0605C56.8902 49.1105 56.8302 49.5005 57.3202 49.8005C57.8102 50.1005 60.0302 51.5105 60.0702 51.7405C60.1102 51.9705 55.9903 49.5805 55.5203 49.5405C55.2503 49.5205 54.9603 49.6205 54.5503 49.6805C54.3803 49.7005 54.2002 49.7305 53.9802 49.7305H53.9502C53.8302 49.7305 53.7003 49.7305 53.5503 49.7205C53.4703 49.7205 53.3803 49.7105 53.3003 49.6905C52.1603 49.5405 51.4602 48.9805 51.4002 48.9305C51.4002 48.9305 51.3103 49.4905 50.6603 49.3705C50.6603 49.3705 50.6502 49.7805 49.7802 49.6905C49.7802 49.6905 49.6502 50.1305 49.0302 49.9305C49.0302 49.9305 49.0202 50.2805 48.1702 50.2705C48.1702 50.2705 48.1303 50.6805 47.4703 50.6305C47.4703 50.6305 47.2502 51.2605 46.2902 51.0305C46.2302 51.0105 46.1702 51.0005 46.1302 50.9905L46.2302 51.0205C46.2302 51.0205 46.0802 51.4705 45.2902 51.3305C45.2902 51.3305 44.7502 52.0305 43.8702 51.7605C43.8702 51.7605 43.5903 52.2505 42.8603 52.2305C42.8603 52.2305 41.9002 52.7105 42.2002 52.3305C42.3902 52.0905 41.6602 52.9105 41.3502 52.6305C41.3502 52.6305 39.8902 53.4805 40.1502 53.0405C40.1502 53.0405 37.6603 54.3605 37.8903 53.6805C37.8903 53.6805 42.3202 51.6305 45.6202 48.9305C48.3302 46.7205 49.9202 47.1705 49.9202 47.1705C49.8802 47.0305 49.5902 46.0305 50.3102 45.5305C50.3702 45.4905 50.4302 45.4605 50.4902 45.4205C51.1002 45.0905 51.9103 45.0505 52.5503 45.2005C52.5503 45.2005 52.8902 44.7205 52.9902 43.9505C53.0902 43.1805 64.5703 32.8905 64.7503 32.7305C64.6403 32.9205 61.1902 39.1505 60.4802 39.3605C60.4802 39.3605 60.4703 40.3405 59.5503 40.6905C59.5503 40.6905 59.3603 41.7505 58.5503 42.0805C58.5503 42.0805 58.3702 43.0405 57.6702 43.1905C57.6702 43.1905 57.7602 44.4305 56.9502 44.6705C56.9502 44.6705 56.9103 45.9005 56.3303 46.0105C56.3303 46.0105 56.2803 46.7505 55.6403 46.7105C55.6703 46.7705 56.0302 47.3905 56.5402 47.8505C56.7802 48.0705 57.0503 48.2405 57.3303 48.3105C58.2303 48.5205 61.9402 49.9405 63.2602 49.5905C63.2602 49.5905 63.5503 49.8105 63.0003 49.8605L63.0102 49.8705Z" fill="#212166"/>
<path d="M50.5503 47.5702C50.3503 47.7002 50.1903 47.6002 50.0903 47.4702C49.9803 47.3302 49.9303 47.1602 49.9303 47.1602C49.8903 47.0202 49.6003 46.0202 50.3203 45.5202C50.3803 45.4802 50.4403 45.4502 50.5003 45.4102C50.6803 45.4302 50.9103 45.5402 51.2503 45.7502C52.2303 46.3802 50.9703 47.3102 50.5603 47.5602L50.5503 47.5702Z" fill="#802929"/>
<path d="M50.0602 46.4401L50.0002 46.9101H50.4102L50.6302 46.3701L50.0602 46.4401Z" fill="black"/>
<path d="M56.7903 49.3808C56.9203 49.5908 56.0503 49.7308 55.5603 49.3808C55.1703 49.1008 55.1303 49.5208 54.5503 49.6708C54.4003 49.7108 54.2203 49.7308 53.9803 49.7208H53.9503C53.8203 49.7208 53.6803 49.7108 53.5503 49.7108C53.4703 49.7108 53.3803 49.7008 53.3003 49.6808C52.1603 49.5308 51.4603 48.9708 51.4003 48.9208C51.4803 48.9508 52.7603 49.3708 53.1103 48.5208C53.4703 47.6408 53.9003 46.3708 52.7403 45.3508C52.7403 45.3508 53.0403 44.4008 53.3903 44.0908C53.7303 43.7808 53.7003 43.1308 53.9503 43.0508C54.1903 42.9708 55.3603 41.6008 55.7203 41.5708C56.0503 41.5408 55.2903 42.9708 54.8503 43.3508C55.0403 43.2308 55.4003 43.0308 55.4303 43.2908C55.4703 43.6208 55.1803 44.0108 55.1403 44.0508C55.1803 44.0208 55.5703 43.7308 55.6203 44.0108C55.6703 44.2908 55.3403 44.8208 55.3103 44.8608C55.3503 44.8408 55.7803 44.5908 55.8303 44.8008C55.8803 45.0208 54.5303 46.1108 54.5303 46.1108L55.6503 46.7208C55.6803 46.7808 56.0403 47.4008 56.5503 47.8608C56.8203 48.2208 57.0503 48.5508 57.0503 48.6308C57.0503 48.8408 56.6603 49.1608 56.7803 49.3708L56.7903 49.3808Z" fill="#B8B1B1"/>
<path d="M45.7502 49.3409C45.7502 49.3409 46.0002 49.6409 47.0302 49.0609C47.0302 49.0609 47.0302 49.4009 48.0102 48.7909C48.0102 48.7909 48.0402 49.1909 48.8302 48.7909C48.8302 48.7909 49.6002 49.0909 50.2802 48.6009C50.2802 48.6009 50.8202 48.7709 50.9702 48.4709C50.9702 48.4709 50.3302 48.2609 50.0902 47.4609C50.0902 47.4609 46.9002 48.0909 45.7502 49.3409Z" fill="#ADA7A7"/>
<path d="M51.1603 45.7003C51.2983 45.7003 51.4103 45.6152 51.4103 45.5103C51.4103 45.4054 51.2983 45.3203 51.1603 45.3203C51.0222 45.3203 50.9103 45.4054 50.9103 45.5103C50.9103 45.6152 51.0222 45.7003 51.1603 45.7003Z" fill="black"/>
<path d="M43.8703 23.6C42.3103 23.23 34.2103 21.97 32.9003 22C31.2203 22.03 30.4503 22 29.9903 21.94C29.9903 21.94 29.7203 22.77 29.3703 22.61C29.3703 22.61 29.3603 23.13 28.9803 23.05C28.9803 23.05 29.1103 23.59 28.5703 23.44C28.5703 23.44 28.9803 24.04 28.3303 24.08C28.3303 24.08 28.8903 24.61 28.3403 24.64C28.3403 24.64 28.0003 24.84 28.4603 25.23C28.9203 25.62 28.9603 26.1 28.7203 25.97C28.7203 25.97 29.2903 26.59 29.0803 26.83C29.0803 26.83 29.9403 27.86 29.4503 27.99C29.4503 27.99 29.9903 28.81 29.5903 28.94C29.5903 28.94 30.3203 29.91 29.7503 29.97C29.7503 29.97 30.3903 30.9 29.8503 30.9C29.8503 30.9 30.5703 31.96 29.9803 31.9C29.9803 31.9 30.6403 32.99 30.1703 33.03C30.1703 33.03 28.5903 33.49 25.3603 28.55C24.3603 27.03 22.5403 24.42 21.7803 22.82C21.4603 22.15 21.6503 21.4 21.6503 21.4C21.6503 21.4 21.0503 21.43 20.4603 21.35C20.3003 21.33 20.1403 21.3 20.0003 21.26C19.6803 21.18 19.3203 20.9 19.1903 20.84C19.1803 20.84 19.1703 20.83 19.1603 20.83C18.7803 20.8 18.0903 20.76 18.0903 20.76L18.7503 20.12C18.7503 20.12 18.7603 18.38 21.7603 18.21C21.7603 18.21 20.0803 17.72 21.1903 15.45C22.2903 13.19 24.6603 9.19004 26.4603 8.79004C26.4603 8.79004 26.9303 8.83004 26.5503 9.79004C26.5503 9.79004 27.0503 9.79004 26.6603 10.59C26.6603 10.59 27.2103 10.56 26.8003 11.51C26.8303 11.5 27.2303 11.35 26.9403 12.3C26.9403 12.3 27.4603 12.2 27.1003 13.19C27.1003 13.19 27.5303 13.26 27.0603 14.12C27.0603 14.12 27.5203 14.36 26.9303 15.11C26.9303 15.11 27.4703 15.47 26.7403 16C26.7403 16 27.3603 16.01 27.2103 16.57C27.2103 16.57 27.8703 16.76 27.7603 17.06C27.7603 17.06 28.2603 17.2 28.2303 17.6C28.2303 17.6 28.8703 17.5 28.7803 17.9C28.7803 17.9 29.5403 18.23 29.2403 18.47C29.2403 18.47 29.4603 18.91 28.3803 18.76C28.3803 18.76 31.9203 20.08 32.4203 20.38C32.9203 20.68 44.2503 21.45 44.9103 21.18C44.9103 21.18 45.4503 21.75 39.2403 21.39C33.9403 21.09 34.8403 21.08 35.1903 21.51C35.3703 21.73 45.0303 23.58 45.1703 23.58C45.3103 23.58 45.4403 23.95 43.8803 23.58L43.8703 23.6Z" fill="#212166"/>
<path d="M22.2303 21.4199C22.2303 21.4199 21.3604 21.7699 22.4104 23.3099C23.4604 24.8499 23.5804 25.0799 23.5804 25.0799C23.5804 25.0799 24.4203 24.6699 23.9903 24.0299C23.9903 24.0299 24.7504 23.6299 24.2204 22.8499C24.2204 22.8499 26.5703 22.9999 26.8203 22.5199C27.0703 22.0399 25.7704 21.6199 25.7704 21.6199C25.7704 21.6199 22.8603 21.6599 22.2403 21.4299L22.2303 21.4199Z" fill="#ADA7A7"/>
<path d="M22.6103 21.4597C22.6103 21.4597 22.8803 19.3197 22.0303 18.3197C21.1803 17.3197 20.4203 16.2597 22.1603 14.9697C22.1603 14.9697 23.5203 15.5897 23.5603 16.5797C23.5603 16.5797 25.3803 16.3497 25.3203 16.9497C25.3203 16.9497 26.5203 16.7797 26.6103 17.4097C26.6103 17.4097 28.6803 17.8097 25.8803 18.3597L24.9503 18.5897C24.9503 18.5897 28.0503 19.1797 28.4803 19.7997C28.9103 20.4197 29.9203 19.9997 31.1303 20.9997C32.3403 21.9997 29.8303 21.8697 29.8303 21.8697C29.8303 21.8697 25.2003 22.7297 22.6103 21.4597Z" fill="#B8B1B1"/>
<path d="M20.4504 21.3598C20.2904 21.3398 20.1303 21.3098 19.9903 21.2698C19.6703 21.1898 19.3103 20.9098 19.1803 20.8498C19.4503 20.6498 19.0304 20.1098 19.0304 20.1098C18.6704 19.6598 19.5304 18.9698 19.9504 18.9098C20.3604 18.8498 20.2604 19.3998 20.9204 19.6598C21.5204 19.8998 20.9404 21.0198 20.4504 21.3598Z" fill="#802929"/>
<path d="M19.6109 19.3136C19.7333 19.2497 19.7994 19.1344 19.7585 19.0561C19.7176 18.9778 19.5853 18.966 19.4629 19.0299C19.3404 19.0937 19.2743 19.209 19.3152 19.2874C19.3561 19.3657 19.4885 19.3775 19.6109 19.3136Z" fill="black"/>
<path d="M50.5302 137.01L49.8102 137.07L50.3202 139.85L48.1202 141.54L44.4902 138.59V142.55C44.4902 142.55 35.7902 134.78 24.8402 126.51C13.8602 118.23 4.49015 119.17 -9.59985 115.46C-23.6998 111.74 -37.1998 72.1602 -37.1998 72.1602C-38.3798 72.8202 -39.6398 72.7502 -39.6398 72.7502C-38.6298 72.1602 -38.1998 68.4502 -38.1998 68.4502C-38.9698 68.8702 -40.1498 68.4502 -40.1498 68.4502C-39.8198 66.5002 -36.1898 62.7102 -36.1898 62.7102C-39.1498 63.9802 -40.9998 62.2902 -40.9998 62.2902C-39.4098 62.1402 -38.8698 60.8602 -38.8098 60.7002C-40.0798 61.2602 -41.8398 60.1802 -41.8398 60.1802C-41.8398 60.1802 -37.5298 60.0902 -31.8798 53.1002C-27.2998 47.4102 -29.9198 38.2302 -32.1098 31.5602C-32.1098 31.5602 -32.1098 31.5402 -32.1198 31.5402C-32.6298 29.9902 -33.1098 28.5702 -33.4798 27.3502C-35.4298 20.9402 -33.7998 18.1602 -33.7998 18.1602C-33.7998 18.1602 -33.7398 18.2102 -33.5998 18.2702C-32.3198 18.9002 -25.3698 22.3402 -23.5298 23.7202C-22.7798 24.2802 -22.2798 26.3102 -21.7698 29.0702C-21.1498 32.5702 -20.5498 37.2602 -19.5798 41.6602C-19.2298 43.2602 -18.8398 44.8102 -18.3698 46.2602C-12.8998 63.3002 -4.29984 57.3102 10.7502 67.0202C11.7202 67.6402 12.7102 68.3002 13.7002 69.0102C13.7202 69.0102 13.7502 69.0302 13.7702 69.0402C18.7502 72.5102 23.8702 76.6102 27.4702 78.9102C41.8202 88.1102 53.5402 136.8 53.5402 136.8L50.5402 137L50.5302 137.01Z" fill="#F0F5F5"/>
<path d="M-9.52979 112.27C-9.52979 112.27 -3.13979 128.47 -4.27979 135.64C-4.27979 135.64 -5.73979 140.44 -3.02979 145.24C-1.73979 147.52 -2.83978 166.49 -3.22978 170.57C-3.50978 173.58 -3.20979 198.13 -2.12979 199.41C-2.12979 199.41 -2.88979 206.57 -2.18979 210.1C-1.86979 211.73 -3.21979 212.91 -2.28979 214.18C-1.35979 215.45 -0.0197833 214.31 -0.199783 213.01C-0.379783 211.71 0.860211 211.18 1.31021 210.38C1.76021 209.58 0.900206 198.47 0.820206 196.42C0.740206 194.37 0.760208 145.75 0.760208 145.75C0.760208 145.75 1.44021 144.05 1.06021 139.17C0.940211 137.65 0.030213 136.44 -0.109787 134.78C-0.759787 126.77 -1.50979 117.98 -1.71979 117.13C-2.11979 115.53 -9.52979 112.27 -9.52979 112.27Z" fill="#D15C20"/>
<path d="M-12.2798 111.58C-12.9598 109.55 1.73015 110.19 2.49015 109.05C3.25015 107.91 2.12016 113.91 -1.26984 117.6C-2.15984 118.57 -2.27984 117.04 -2.85984 117.28C-3.06984 117.37 -3.32984 118.4 -3.54984 118.47C-4.02984 118.61 -4.66984 117.38 -5.15984 117.39C-5.40984 117.39 -5.50985 118.68 -5.75985 118.65C-5.98985 118.62 -6.38985 117.82 -6.61985 117.77C-6.82985 117.72 -6.84984 118.43 -7.04984 118.35C-7.90984 118.04 -8.72984 117.52 -9.41984 116.77C-11.0998 114.97 -11.9598 112.52 -12.2798 111.57V111.58Z" fill="#C9D2D4"/>
<path d="M49.8102 137.07L50.3102 139.85L48.1202 141.54L44.5002 138.59V142.56C44.5002 142.56 35.8002 134.79 24.8402 126.52C13.8702 118.24 4.49022 119.17 -9.59978 115.47C-12.1398 114.8 -14.6598 112.96 -17.0698 110.41C-17.1098 110.37 -17.1398 110.36 -17.1398 110.36C-28.1498 98.6999 -37.1998 72.1799 -37.1998 72.1799C-38.3798 72.8499 -39.6498 72.7699 -39.6498 72.7699C-38.6298 72.1799 -38.2098 68.4599 -38.2098 68.4599C-38.2098 68.4599 -36.6398 69.0199 -36.9698 70.2099C-36.9698 70.2099 -33.5998 66.9999 -32.5798 64.1299C-32.5798 64.1299 -31.7598 66.7999 -32.4098 68.3199C-32.2098 68.0199 -30.7198 65.5599 -30.4798 64.1299C-30.4798 64.1299 -29.9798 68.2699 -30.4798 69.1899C-30.4798 69.1899 -28.4598 68.8599 -28.1098 67.7599C-28.1098 67.7599 -27.0898 72.3999 -29.9698 74.2499C-32.8398 76.0999 -28.8698 88.7699 -21.0998 93.6599C-21.0998 93.6599 -18.7498 98.3899 -15.0298 99.1499C-11.3098 99.9099 0.580223 103.79 0.580223 103.79L19.4902 112.67L44.6902 124.52L47.0802 125.64L47.7402 127.85L50.5202 137.03L49.8102 137.08V137.07Z" fill="#DCE6E8"/>
<path d="M49.8102 137.07L50.3102 139.85L48.1202 141.54L44.5002 138.59V142.56C44.5002 142.56 35.8002 134.79 24.8402 126.52C13.8702 118.24 4.49017 119.17 -9.59983 115.47C-12.1398 114.8 -14.6598 112.96 -17.0698 110.41C-16.1598 111.15 -5.90983 118.9 15.6502 113.32C16.9502 112.98 18.2402 112.76 19.5002 112.67C29.5102 111.86 38.3002 117.97 44.7002 124.52C45.8002 125.63 46.8202 126.75 47.7502 127.85L50.5302 137.03L49.8202 137.08L49.8102 137.07Z" fill="#C9D2D4"/>
<path d="M-1.24981 112.67C-1.92981 110.64 12.7602 111.28 13.5202 110.14C14.2802 109 13.3602 114.89 9.69019 118.31C7.49019 120.36 4.74018 120.45 2.46018 118.01C0.780177 116.21 -0.939814 113.62 -1.24981 112.67Z" fill="#DCE6E8"/>
<path d="M9.69014 118.19C9.69014 118.19 7.70013 120.43 6.09013 119.23C4.48013 118.03 5.08014 119.51 5.08014 119.51L3.38013 118.84C3.38013 118.84 5.69013 124.03 5.81013 130.4C5.85013 132.45 6.50013 137.53 6.04013 138.27C5.58013 139.01 4.39013 143.78 6.54013 146.1C6.54013 146.1 6.50014 148.38 6.50014 149.77C6.50014 151.16 6.37013 193.2 6.54013 193.78C6.71013 194.36 8.25014 198.11 7.55014 199.64C6.85014 201.17 7.83013 210.22 9.32013 211.28C10.8201 212.34 10.5001 206.61 10.5701 206.14C10.6401 205.67 12.1501 205.57 12.7201 206.35C13.2901 207.13 14.3301 203.16 12.8801 197.98C12.8801 197.98 15.2201 194.89 12.7501 190.63C10.2801 186.37 9.52014 181.68 10.2201 178.34C10.9201 175 11.1301 151.37 10.3001 146.71C10.1901 146.09 12.4201 144.42 10.6801 139.8C8.51013 134.02 9.07014 130.41 8.97014 126.67C8.85014 122.27 9.01013 120.49 9.68013 118.19H9.69014Z" fill="#FF7126"/>
<path d="M0.890167 49.6202L-22.7398 29.3102C-22.7398 29.3102 -21.3598 27.2502 -22.0398 25.3002C-22.1298 25.0602 -22.2498 24.8202 -22.4198 24.5902C-22.4598 24.5102 -22.4898 24.4702 -22.4898 24.4702C-22.4898 24.4702 -19.6598 25.6902 -18.1898 22.4902C-18.1898 22.4902 1.85017 47.4302 0.890167 49.6202Z" fill="#D15C20"/>
<path d="M0.890175 49.62C-6.24983 43 -14.9798 34.3 -19.4298 29.17C-20.5498 27.89 -21.5198 26.26 -22.0298 25.31C-22.2198 24.98 -22.3498 24.74 -22.4098 24.6C-22.4498 24.52 -22.4798 24.48 -22.4798 24.48C-22.4798 24.48 -19.6498 25.7 -18.1798 22.5C-18.1798 22.5 1.86017 47.44 0.900169 49.63L0.890175 49.62Z" fill="#FF7126"/>
<path d="M-20.2599 73.51C-20.2599 73.51 -9.97988 66.51 14.4401 76.13C38.8601 85.75 37.6801 99 37.6801 99C37.6801 99 7.8001 106.26 -6.3699 101.11C-20.5499 95.96 -20.2499 73.51 -20.2499 73.51H-20.2599Z" fill="#F0F5F5"/>
<path d="M-20.2598 73.5098C-20.2598 73.5098 -20.9399 91.6298 -9.11986 100.29C2.70014 108.95 15.9701 112.78 19.3501 115.26C22.7301 117.74 29.8102 126.62 35.6702 125.72C35.6702 125.72 41.4102 132.25 46.2502 132.47C46.2502 132.47 51.8802 142.15 62.0002 141.58V137.08L64.7001 140.23L63.9102 134.94L65.6001 135.5C65.6001 135.5 63.6902 129.31 61.8902 127.96L63.8002 128.41C63.8002 128.41 50.7502 109.62 43.7702 101.97L47.4801 104C47.4801 104 45.1302 97.5398 43.3302 96.6398C43.3302 96.6398 44.6802 96.7698 45.0602 97.3598C45.0602 97.3598 40.2602 83.8898 14.4402 76.1198C14.4402 76.1198 35.2602 85.5698 36.3302 97.0198C36.4602 98.3698 34.3602 97.0198 34.3602 97.0198C34.3602 97.0198 34.0501 99.0498 32.0701 99.0398C30.1101 99.0398 27.8902 97.5298 27.8902 97.5298C27.8902 97.5298 27.6601 99.0798 26.6001 98.9698C25.7101 98.8798 24.7401 97.7298 24.7401 97.7298C24.7401 97.7298 23.6001 98.8598 23.1201 98.9398C21.9201 99.1498 21.1402 97.7598 21.1402 97.7598C21.1402 97.7598 18.5001 99.0398 17.3201 98.8798C14.7901 98.5398 12.8701 96.3998 12.8701 96.3998C12.8701 96.3998 12.4201 98.8998 10.6201 98.9898C8.82015 99.0798 6.63014 96.7998 6.63014 96.7998C6.63014 96.7998 6.88015 99.2298 5.45015 98.9398C3.75015 98.5898 2.64015 96.9098 2.64015 96.9098C2.64015 96.9098 2.13014 99.2698 -0.289856 99.6098C-2.70986 99.9498 -5.79985 96.3998 -5.79985 96.3998C-5.79985 96.3998 -4.78986 100.23 -7.11986 99.4398C-20.0699 95.0698 -20.2399 73.5198 -20.2399 73.5198L-20.2598 73.5098Z" fill="black"/>
<path d="M-16.2699 76.2899C-16.8199 79.4399 -15.3799 94.1999 -9.52986 91.8299C-3.67986 89.4599 -8.64987 84.5899 -8.64987 84.5899C-8.64987 84.5899 -2.89986 94.6299 -0.169855 90.8199C2.56014 87.0099 -2.17986 84.2799 -2.17986 84.2799C-2.17986 84.2799 5.73014 93.2699 9.18014 90.1799C12.6301 87.0899 6.16015 82.7699 6.16015 82.7699C6.16015 82.7699 17.4501 94.7099 19.9601 89.1699C22.4701 83.6299 13.4901 79.9699 13.4901 79.9699C13.4901 79.9699 23.4701 83.1299 18.9501 79.6299C15.2101 76.7399 -3.70986 65.9099 -12.8599 69.3099C-14.7799 70.0199 -15.7299 73.1499 -16.2799 76.2999L-16.2699 76.2899Z" fill="white"/>
<path d="M13.6802 69.0099C6.80018 64.5899 -8.01982 62.4799 -14.1898 58.6799C-20.2598 54.9299 -19.6198 42.1199 -19.5998 41.6699C-19.2498 43.2599 -18.8598 44.8099 -18.3898 46.2499C-12.9198 63.2899 -4.31982 57.2999 10.7302 67.0099C11.7002 67.6299 12.6902 68.2899 13.6802 68.9999V69.0099Z" fill="white"/>
<path d="M66.4402 199.23C66.4402 199.23 62.8402 197.21 62.8002 196.43C62.7602 195.65 62.4702 195.95 63.6202 192.66C64.7702 189.37 65.1502 186.58 61.9602 185.47L62.4402 179.83L60.3502 179.9L60.0202 178.49L56.8902 178.6L56.4002 173.94L52.2302 174.08L51.4902 170.65L43.0602 168.1C43.0602 168.1 38.0602 168.29 46.6602 167.8C46.6602 167.8 41.7902 163.47 37.1602 165.05C32.5302 166.63 30.1502 164.33 37.6502 162.66C37.6502 162.66 32.8902 157.88 22.0702 161.09C22.0702 161.09 22.2702 159.21 20.8302 156.42C20.8302 156.42 20.9302 159.1 11.7102 157.58C2.49018 156.06 0.120185 155.74 -2.73981 156.04C-2.73981 156.04 7.06018 155.5 5.82018 151.48C5.82018 151.48 -0.949815 155.17 -7.84982 153.16C-14.7398 151.16 -27.8398 155.87 -27.8398 155.87C-27.8398 155.87 -26.0598 153.68 -12.2498 150.53C-12.2498 150.53 -17.1298 146.07 -22.7698 146.42C-30.0698 146.87 -36.9298 150.86 -38.7998 152.65C-40.6698 154.44 -48.4698 155.15 -48.1498 153.62C-47.8298 152.09 -44.6798 151.89 -44.6798 151.89C-44.6798 151.89 -56.7198 149.6 -59.4698 152.13C-62.2198 154.66 -69.1698 156.82 -70.6598 155.86C-72.1398 154.89 -69.6798 155.16 -67.4598 154.98C-65.2398 154.8 -74.4698 151.67 -78.0398 156.16C-81.6098 160.65 -82.0498 158.93 -83.6998 157.36C-85.3498 155.79 -90.6498 155.97 -90.6498 155.97C-90.6498 155.97 -89.9998 157.98 -89.9798 158.55C-89.8898 161.09 -100.22 157.95 -98.8198 159.94C-97.4198 161.92 -106.04 159.03 -112.23 160.86C-118.41 162.69 -117.17 166.7 -117.17 166.7C-117.17 166.7 -115.34 161.86 -108.12 162.64C-100.9 163.41 -102.4 164.26 -103.52 165.42C-104.64 166.58 -108.23 166.08 -109.95 168.48C-111.66 170.87 -113.03 174.07 -115.8 173.66C-118.57 173.25 -113.48 170.67 -113.48 170.67C-113.48 170.67 -119.97 171.74 -121.25 174.63C-122.23 176.84 -120.16 181.18 -122.73 181.97C-125.3 182.76 -128.52 183.19 -128.45 181.97C-128.38 180.75 -131.56 187.23 -127.83 188.63C-124.1 190.03 -128.38 191.85 -130.87 191.53C-133.36 191.21 -137.62 191.04 -137.8 195.42C-137.8 195.42 -136.07 193.43 -131.71 194.4C-127.35 195.37 -130.51 198.01 -131.94 202.62C-133.07 206.24 -131.17 206.88 -131.81 209.75C-132.46 212.62 -135.58 213.27 -133.81 217.37C-132.04 221.47 -120.45 221.38 -119.93 221.36C-119.41 221.34 -120.2 222.29 -123.45 222.76C-124.25 222.88 -115.91 226.22 -114.34 226.27C-112.77 226.32 -111.52 229.39 -116.22 227.03C-118.23 226.02 -120.52 226.48 -120.52 226.48C-120.52 226.48 -116.41 230.62 -111.43 231.39C-93.9098 234.08 -99.0798 237.1 -108.51 237.23C-108.51 237.23 -107.21 239.43 -92.7698 238.86C-74.4998 238.15 66.4202 199.27 66.4202 199.27L66.4402 199.23Z" fill="#947A46"/>
<path d="M-137.8 195.39C-137.63 191.19 -129.2 192.08 -126.81 192.38C-124.4 192.7 -122.56 189.42 -126.14 188.08C-129.71 186.75 -128.38 180.77 -128.44 181.94C-128.5 183.12 -124.47 183.76 -122.02 182.99C-119.55 182.22 -120.04 177.38 -120.15 175.14C-120.26 172.9 -113.49 170.63 -113.49 170.63C-113.49 170.63 -115.03 174.87 -112.38 175.27C-109.73 175.67 -110.81 171.62 -109.16 169.33C-107.53 167.04 -101.69 168.5 -100.63 167.38C-99.5498 166.28 -102 164.9 -108.92 164.17C-115.84 163.43 -117.17 166.67 -117.17 166.67C-117.17 166.67 -117.58 163.38 -111.67 161.62C-105.74 159.87 -94.9198 163.78 -96.2698 161.88C-97.5998 159.99 -101.83 160.51 -99.2598 159.27C-96.6898 158.01 -88.4998 162.11 -88.6098 159.69C-88.7198 157.27 -90.6698 155.97 -90.6698 155.97C-90.6698 155.97 -84.7098 157.52 -83.1298 159.02C-81.5498 160.52 -81.2198 162.35 -77.7998 158.06C-74.3598 153.75 -65.4298 154.81 -67.5598 154.99C-69.6698 155.15 -70.5598 157.33 -69.1498 158.26C-67.7298 159.17 -61.0698 157.1 -58.4398 154.68C-55.7898 152.26 -44.6798 151.88 -44.6798 151.88C-44.6798 151.88 -47.6498 152.47 -47.9698 153.93C-48.2698 155.4 -40.4398 156.89 -38.6398 155.17C-36.8598 153.46 -30.2798 149.65 -23.2798 149.21C-17.8898 148.88 -12.2598 150.53 -12.2598 150.53C-24.9998 153.43 -27.9398 157.92 -28.1398 158.24C-27.5398 158.04 -15.4598 153.79 -9.00983 155.66C-2.40983 157.59 5.80018 151.47 5.80018 151.47C6.99018 155.32 -4.11983 158.42 -4.11983 158.42C-1.38983 158.13 0.880167 158.45 9.71017 159.89C18.5402 161.34 20.7902 156.41 20.7902 156.41C22.1702 159.09 19.6302 163.26 19.6302 163.26C29.9902 160.18 37.6202 162.65 37.6202 162.65C30.4402 164.25 29.6502 168.56 34.0902 167.05C38.5102 165.54 46.6302 167.79 46.6302 167.79C38.4002 168.27 39.7202 169.97 39.7202 169.97L49.7902 171L48.5102 175.71L52.5202 175.57L52.9702 180.03L55.9802 179.93L56.2802 181.28L61.2902 181.11V186.17C64.3302 187.23 63.7102 189.78 62.6102 192.94C61.5102 196.09 61.5502 197.06 61.5502 197.06L66.4202 199.23L60.8102 202.33C60.8102 202.33 56.9902 205.96 61.2202 210.88C65.4602 215.8 58.7702 222.24 58.7702 222.24C61.5902 213.2 55.3302 218.47 55.3302 218.47C46.8902 240.54 -3.61983 241.47 -3.61983 241.47C-3.61983 241.47 -6.74983 243.3 -12.2898 244.93C-17.8398 246.58 -51.7398 244.33 -54.2898 243.18C-56.8498 242.05 -72.0198 238.89 -89.4698 240.05C-106.94 241.22 -108.51 237.19 -108.51 237.19C-104.2 237.62 -100.88 236.83 -98.9698 235.88C-98.0298 235.44 -97.4498 234.94 -97.2298 234.54C-96.8898 233.95 -97.4198 233.56 -98.9098 233.76C-103.52 234.4 -109.36 232.56 -114.03 231.54C-118.72 230.54 -120.53 226.5 -120.53 226.5C-120.53 226.5 -121.32 226.05 -116.36 227.62C-111.4 229.21 -111.81 226.11 -113.3 226.07C-114.81 226.01 -126.02 222.11 -122.97 222.8C-119.94 223.47 -118.57 220.9 -119.06 220.92C-119.55 220.94 -131.35 220.56 -133.03 216.62C-134.73 212.69 -128.34 212.58 -127.73 209.83C-127.12 207.08 -132.89 206.41 -129.71 202.6C-126.52 198.81 -127.81 195.34 -131.99 194.42C-136.15 193.48 -137.82 195.39 -137.82 195.39H-137.8Z" fill="#B79657"/>
<path d="M-127.43 200.72C-127.26 197.33 -119.64 198.02 -117.47 198.27C-115.3 198.5 -113.63 195.84 -116.86 194.78C-120.07 193.7 -118.83 188.86 -118.9 189.81C-118.97 190.76 -115.32 191.26 -113.1 190.64C-110.86 190.02 -111.28 186.08 -111.37 184.27C-111.46 182.46 -105.31 180.59 -105.31 180.59C-105.31 180.59 -106.73 184.04 -104.34 184.35C-101.95 184.67 -102.9 181.38 -101.4 179.51C-99.9198 177.65 -94.6498 178.81 -93.6798 177.91C-92.7098 177.01 -94.9098 175.91 -101.16 175.33C-107.42 174.75 -108.65 177.4 -108.65 177.4C-108.65 177.4 -109.01 174.73 -103.65 173.29C-98.2698 171.84 -88.5098 174.99 -89.7198 173.46C-90.9098 171.92 -94.7498 172.36 -92.4098 171.34C-90.0898 170.32 -82.6898 173.6 -82.7898 171.64C-82.8898 169.68 -84.6198 168.62 -84.6198 168.62C-84.6198 168.62 -79.2498 169.86 -77.8398 171.07C-76.4298 172.29 -76.1198 173.77 -73.0198 170.28C-69.8998 166.78 -61.8198 167.62 -63.7498 167.76C-65.6598 167.9 -66.4798 169.67 -65.1898 170.41C-63.9198 171.14 -57.8898 169.45 -55.4898 167.48C-53.0998 165.51 -43.0598 165.17 -43.0598 165.17C-43.0598 165.17 -45.7398 165.66 -46.0198 166.84C-46.3198 168.04 -39.2398 169.22 -37.5998 167.82C-35.9798 166.42 -30.0198 163.31 -23.6998 162.93C-18.8098 162.64 -13.7298 163.97 -13.7298 163.97C-25.1798 166.34 -27.9098 169.96 -28.1098 170.28C-27.5698 170.11 -16.6398 166.65 -10.8098 168.13C-4.84984 169.67 2.59016 164.69 2.59016 164.69C3.64016 167.81 -6.40984 170.36 -6.40984 170.36C-3.92984 170.11 -1.87984 170.36 6.09016 171.51C14.0702 172.66 16.1301 168.66 16.1301 168.66C17.3701 170.81 15.0502 174.21 15.0502 174.21C24.4402 171.68 31.3102 173.66 31.3102 173.66C24.8102 174.98 24.0702 178.48 28.0902 177.23C32.1102 176 39.4302 177.81 39.4302 177.81C31.9802 178.21 33.1802 179.59 33.1802 179.59L42.2802 180.38L41.0902 184.21L44.7102 184.09L45.1202 187.7L47.8202 187.61L48.1102 188.7L52.6301 188.55L52.5902 192.65C55.3602 193.52 54.7702 195.58 53.7602 198.14C52.7502 200.69 52.7802 201.48 52.7802 201.48L57.1802 203.22L52.0902 205.75C52.0902 205.75 48.6302 208.72 52.4302 212.69C56.2502 216.66 50.1702 221.91 50.1702 221.91C52.7602 214.57 47.0802 218.86 47.0802 218.86C45.2802 223.02 41.4202 226.27 36.5802 228.8C20.5802 237.16 -6.32983 237.7 -6.32983 237.7C-6.32983 237.7 -9.15983 239.18 -14.1898 240.54C-19.1998 241.88 -49.8498 240.16 -52.1498 239.24C-54.4498 238.33 -68.1598 235.8 -83.9498 236.81C-92.4498 237.36 -96.7798 236.65 -98.9698 235.9C-98.0298 235.46 -97.4498 234.96 -97.2298 234.56C-91.3298 234.06 -88.9798 231.3 -92.4498 231.73C-96.6198 232.27 -101.89 230.8 -106.12 230C-107.72 229.7 -108.95 229.04 -109.85 228.34C-111.36 227.19 -111.99 225.93 -111.99 225.93C-111.99 225.93 -112.67 225.56 -108.22 226.82H-108.2C-103.73 228.1 -104.08 225.58 -105.44 225.55C-105.99 225.54 -107.96 225.03 -109.92 224.44C-112.84 223.59 -115.79 222.6 -114.15 222.92C-111.42 223.47 -110.17 221.37 -110.62 221.38C-111.07 221.39 -121.71 221.13 -123.23 217.95C-124.74 214.76 -118.98 214.65 -118.4 212.42C-117.82 210.19 -123.06 209.65 -120.15 206.57C-117.24 203.47 -118.4 200.67 -122.18 199.93C-125.94 199.19 -127.45 200.73 -127.45 200.73L-127.43 200.72Z" fill="#8E7652"/>
<path d="M-11.1899 238.28C-11.1899 238.28 29.9901 237.42 37.0101 222.32C37.0101 222.32 42.1401 218.7 39.7901 224.88C39.7901 224.88 43.8501 222.72 43.3301 218.46C42.9201 215.1 48.3801 214.2 48.3801 214.2L49.1001 210.16L45.6301 207.49C45.6301 207.49 49.0401 207.03 49.9501 204.87C50.8701 202.72 51.3901 200.97 48.9101 200.26L48.9501 196.81L43.3101 195.34L48.2001 193.46L40.6101 194.5L45.4901 190.89L36.3501 191.08L37.4201 187.86L24.6001 189.28C24.6001 189.28 23.5201 188.12 30.2401 187.76C30.2401 187.76 23.6401 186.26 20.0201 187.31C16.4001 188.36 21.9701 183.13 27.8401 182C27.8401 182 16.7401 182.64 8.27013 184.78C8.27013 184.78 15.2801 179.63 14.1701 177.81C14.1701 177.81 12.1001 181.93 4.92013 180.98C-2.26987 180.03 1.79013 180.56 -1.41987 179.63C-1.41987 179.63 2.73012 177.87 1.79012 175.24C1.79012 175.24 -9.65987 181 -15.0199 179.72C-20.3899 178.44 -21.8199 178.5 -21.8199 178.5C-21.8199 178.5 -22.3899 176.64 -11.5799 174.52C-11.5799 174.52 -22.2099 175.12 -26.6199 175.37C-32.3199 175.69 -37.2599 178.81 -39.1699 179.51C-47.6499 182.61 -46.0399 177.82 -42.7599 175.5C-41.7799 174.81 -40.0699 174.08 -40.0699 174.08C-40.0699 174.08 -47.8799 174.67 -50.1199 176.27C-56.4099 180.76 -60.3499 178.91 -61.4999 178.28C-62.6499 177.65 -61.9099 176.17 -60.1799 176.05C-58.4499 175.93 -65.7299 175.24 -68.5399 178.19C-71.3599 181.14 -74.1699 183.35 -75.4499 182.33C-76.7199 181.31 -81.5699 180.28 -81.5699 180.28C-81.5699 180.28 -79.9999 181.16 -79.9199 182.81C-79.8399 184.46 -86.4999 181.7 -88.5999 182.57C-90.6999 183.44 -87.2499 183.06 -86.1699 184.35C-85.0899 185.64 -93.8899 183.02 -98.7199 184.24C-103.55 185.46 -103.24 187.71 -103.24 187.71C-103.24 187.71 -102.12 185.48 -96.4899 185.96C-90.8599 186.44 -88.8699 187.36 -89.7499 188.12C-90.6299 188.88 -95.3699 187.91 -96.7199 189.48C-98.0699 191.05 -97.2199 193.81 -99.3799 193.55C-101.54 193.29 -100.25 190.39 -100.25 190.39C-100.25 190.39 -105.78 191.97 -105.71 193.49C-105.64 195.01 -105.27 198.32 -107.29 198.85C-109.31 199.38 -112.59 198.96 -112.53 198.16C-112.47 197.36 -113.6 201.45 -110.69 202.35C-107.78 203.25 -109.31 205.49 -111.26 205.29C-113.21 205.09 -120.07 204.53 -120.24 207.38C-120.24 207.38 -118.87 206.07 -115.48 206.69C-112.08 207.31 -111.05 209.66 -113.68 212.27C-116.31 214.88 -111.59 215.32 -112.12 217.2C-112.64 219.08 -117.84 219.19 -116.49 221.86C-115.14 224.53 -105.54 224.74 -105.13 224.73C-104.72 224.72 -105.86 226.48 -108.33 226.03C-110.8 225.58 -101.7 228.2 -100.47 228.22C-99.2399 228.24 -98.9399 230.36 -102.97 229.3C-107 228.24 -106.37 228.55 -106.37 228.55C-106.37 228.55 -104.91 231.29 -101.1 231.96C-97.2899 232.63 -92.5399 233.86 -88.7899 233.4C-85.0399 232.94 -88.8499 236.39 -96.6299 235.79C-96.6299 235.79 -95.3699 238.54 -81.1299 237.66C-66.8899 236.78 -54.5499 238.87 -52.4699 239.64C-50.3899 240.41 -22.7799 241.8 -18.2399 240.65C-13.6999 239.5 -11.1499 238.24 -11.1499 238.24L-11.1899 238.28Z" fill="#A18658"/>
<path d="M-115.8 217C-115.66 214.15 -109.24 214.72 -107.43 214.92C-105.6 215.13 -104.2 212.89 -106.91 211.99C-109.62 211.08 -108.58 207 -108.62 207.8C-108.68 208.59 -105.62 209.02 -103.74 208.5C-101.84 207.96 -102.2 204.65 -102.27 203.13C-102.34 201.61 -97.1898 200.03 -97.1898 200.03C-97.1898 200.03 -98.3798 202.93 -96.3698 203.2C-94.3598 203.45 -95.1598 200.69 -93.8998 199.12C-92.6398 197.55 -88.1998 198.53 -87.3998 197.77C-86.5698 197.01 -88.4198 196.08 -93.6798 195.59C-98.9598 195.11 -99.9898 197.33 -99.9898 197.33C-99.9898 197.33 -100.29 195.09 -95.7698 193.88C-91.2598 192.66 -83.0398 195.31 -84.0598 194C-85.0598 192.71 -88.2998 193.09 -86.3398 192.22C-84.3798 191.36 -78.1498 194.14 -78.2298 192.48C-78.3098 190.82 -79.7598 189.94 -79.7598 189.94C-79.7598 189.94 -75.2398 190.99 -74.0498 192.02C-72.8398 193.03 -72.6098 194.29 -69.9898 191.35C-67.3698 188.4 -60.5698 189.1 -62.1898 189.23C-63.7898 189.35 -64.4798 190.83 -63.4198 191.45C-62.3298 192.08 -57.2598 190.65 -55.2498 189C-53.2298 187.33 -44.7798 187.05 -44.7798 187.05C-44.7798 187.05 -47.0298 187.46 -47.2798 188.46C-47.5098 189.47 -41.5598 190.46 -40.1798 189.29C-38.7998 188.12 -33.7998 185.49 -28.4798 185.18C-24.3598 184.93 -20.0898 186.06 -20.0898 186.06C-30.1598 188.14 -32.1998 191.37 -32.1998 191.37C-32.1998 191.37 -22.6498 188.26 -17.6198 189.55C-12.6198 190.84 -6.32982 186.64 -6.32982 186.64C-5.43982 189.28 -13.9198 191.42 -13.9198 191.42C-11.8298 191.21 -10.0998 191.42 -3.38982 192.39C3.32018 193.35 5.06018 189.97 5.06018 189.97C6.11018 191.79 4.15018 194.65 4.15018 194.65C12.0502 192.52 17.8502 194.19 17.8502 194.19C12.3802 195.3 11.7502 198.25 15.1302 197.21C18.5102 196.17 24.6802 197.68 24.6802 197.68C18.4002 198.03 19.4202 199.18 19.4202 199.18L27.0602 199.85L26.0802 203.07L29.1302 202.97L29.4502 206.02L31.7402 205.94L31.9802 206.86L35.7802 206.73L35.7502 210.17C38.0802 210.9 37.5902 212.64 36.7402 214.78C35.8802 216.94 35.9202 217.6 35.9202 217.6L39.6202 219.08L35.3502 221.2C35.3502 221.2 32.4102 223.69 35.6302 227.04C36.1502 227.59 36.4702 228.17 36.6002 228.76C30.6202 231.89 23.1102 233.91 16.0502 235.23C16.7002 234.9 4.80018 240.78 -15.0998 242.64C-23.0898 243.39 -33.3598 241.8 -43.1098 241.5C-89.4598 240.04 -99.3198 236.04 -99.3198 236.04C-99.3198 236.04 -95.4598 234.35 -97.3798 234.15C-107.07 233.14 -110.7 228.78 -112.37 225.83C-112.23 225.83 -109.18 225.18 -109.9 224.42C-110.5 223.8 -110.75 223.06 -109.67 221.9C-107.23 219.3 -108.19 216.94 -111.37 216.32C-114.54 215.7 -115.81 217 -115.81 217H-115.8Z" fill="#B79657"/>
</g>
</g>
</svg>
