<svg width="201" height="200" viewBox="0 0 201 200" fill="none" xmlns="http://www.w3.org/2000/svg">
<path d="M200.429 0H0.439453V200H200.429V0Z" fill="#8CDCFF"/>
<path opacity="0.73" d="M200.439 136.8V155.1H0.439453V126.54C0.439453 126.54 1.15945 126.55 2.47945 126.57C3.27945 126.58 4.30945 126.6 5.52945 126.61C5.75945 126.61 5.98945 126.61 6.23945 126.61C9.53945 126.64 14.0595 126.67 19.3095 126.67C19.9995 126.67 20.6995 126.67 21.4095 126.67C24.1395 126.67 27.0295 126.64 30.0195 126.61H30.0295C30.8595 126.61 31.6795 126.6 32.5195 126.58H32.5295C40.1695 126.47 48.3295 126.25 56.0295 125.86C60.3795 125.64 64.5695 125.37 68.4295 125.03C69.6995 124.92 70.9295 124.8 72.1295 124.67H72.1395C72.8695 124.59 73.5894 124.51 74.2794 124.43C74.2894 124.43 74.3095 124.43 74.3095 124.43C75.2995 124.31 76.2495 124.19 77.1695 124.05C78.7995 123.81 80.3095 123.56 81.6695 123.28C82.3795 123.13 83.0495 122.99 83.6695 122.83C86.2195 122.18 89.1495 121.82 92.3495 121.68C96.9495 121.48 102.089 121.74 107.409 122.31C126.989 124.41 148.969 130.7 154.909 133.48C163.589 137.56 182.629 141.49 200.439 136.82V136.8Z" fill="#639FC9"/>
<path d="M200.44 145.15V158.43L147.95 157.41L116.87 143.3C116.87 143.3 150.47 122.49 182.8 137.22C191.07 140.99 197.58 143.77 200.44 145.15Z" fill="#609FB5"/>
<path d="M200.429 161.45H0.439453V200H200.429V161.45Z" fill="#2E889E"/>
<path d="M200.429 163.68H0.439453V164.47H200.429V163.68Z" fill="#C7B98D"/>
<path d="M160.77 147.63C160.77 147.63 162.53 146.09 160.99 145.46C160.36 145.2 159.89 146.32 160.11 145.4C160.27 144.72 159.98 143.52 158.93 143.66C157.88 143.8 157.93 144.54 157.93 144.54C157.93 144.54 158.04 145.09 157.66 144.93C157.28 144.77 157.14 143.26 156.23 143.81C155.32 144.36 156.18 144.68 155.62 144.94C155.06 145.2 155.04 144.29 154.43 144.59C153.82 144.89 154.01 145.35 153.93 145.58C153.85 145.81 153.77 145.72 153.52 145.97C151.36 148.21 156.5 150.66 156.97 150.92C157.44 151.18 158 150.58 158.85 150.86C160.22 151.31 161.88 149.25 160.77 147.63Z" fill="#219654"/>
<path d="M109.939 135.27C109.939 135.27 110.819 133.11 112.349 134.27C113.879 135.43 112.749 134.43 114.639 134.79C117.449 135.33 116.429 137.61 116.429 137.61C116.429 137.61 117.549 137.65 118.079 138.68C118.609 139.71 116.939 141.61 116.939 141.61C116.939 141.61 118.089 142.08 118.209 142.94C118.329 143.8 116.039 144.81 116.039 144.81C116.039 144.81 116.889 146.15 116.519 146.84C116.149 147.53 114.919 147.29 114.629 147.47C114.339 147.65 106.459 146.61 106.459 146.61C106.459 146.61 105.359 145.92 105.279 145.35C105.219 144.96 106.259 144.74 106.009 144.35C105.119 142.99 103.499 141.77 105.139 141.3C106.029 141.04 103.899 140.36 104.399 139.44C104.899 138.52 106.069 138.45 105.499 137.41C105.089 136.66 105.199 135.93 106.669 135.75C108.139 135.57 107.909 136.2 108.279 136.03C108.649 135.86 108.699 134.29 109.929 135.27H109.939Z" fill="#349F62"/>
<path d="M76.1791 136.57C76.1791 136.57 76.5091 136.2 76.4591 134.96C76.4191 133.86 75.1891 132.79 73.8091 133.57C73.8091 133.57 73.7391 132.05 72.2991 132.11C71.1891 132.15 71.2791 133.27 71.2791 133.27C71.2791 133.27 69.7191 132.14 68.8791 133.45C68.0391 134.76 69.0491 135.44 69.0491 135.44C69.0491 135.44 67.1191 135 66.8991 136.03C66.6791 137.06 67.5791 137.98 67.5791 137.98C67.5791 137.98 66.0691 136.65 65.2791 137.86C64.4891 139.07 65.4491 140.5 65.4491 140.5C65.4491 140.5 63.2491 139.68 63.1491 141.12C63.0491 142.56 63.7491 143.21 63.7491 143.21C63.7491 143.21 61.2791 142.14 61.4391 143.69C61.5991 145.24 61.8991 147.8 67.9291 149.26C72.9891 150.48 77.9391 151.84 78.8991 148.34C79.0891 147.67 79.1991 146.52 78.5491 146.1C78.5491 146.1 79.7391 145.83 80.2091 145.07C80.5291 144.55 80.4491 143.55 79.7091 143.28C79.7091 143.28 82.1291 141.82 80.3091 139.95C79.4091 139.03 78.1791 139.64 78.1791 139.64C78.1791 139.64 79.7991 137.74 78.8191 136.5C77.6191 134.97 76.8091 135.86 76.1591 136.56L76.1791 136.57Z" fill="#42A56D"/>
<path d="M22.1998 147.821C22.1998 147.821 16.8198 144.461 19.8798 142.771C19.8798 142.771 17.4498 137.921 20.6298 137.441C20.6298 137.441 17.7098 133.001 20.8398 132.771C23.9698 132.541 24.3598 133.861 24.3598 133.861C24.3598 133.861 23.8798 130.131 26.6998 131.151C29.5198 132.171 28.4498 134.431 28.4498 134.431C28.4498 134.431 30.7798 131.981 32.9998 134.681C35.2298 137.381 31.4598 137.711 31.4598 137.711C31.4598 137.711 34.7898 137.151 33.9998 139.611C33.2098 142.071 31.5198 142.041 31.5198 142.041C31.5198 142.041 34.7598 142.231 34.0498 144.221C33.3398 146.211 31.8398 147.461 29.5098 146.811C27.1798 146.161 22.1898 147.821 22.1898 147.821H22.1998Z" fill="#2B9A5B"/>
<path d="M8.92945 146.14H8.91945C8.91945 146.14 10.6995 147.76 10.5495 148.99C10.3995 150.21 8.63945 150.45 8.34945 150.87C8.29945 150.93 7.99945 151.04 7.52945 151.18C6.96945 151.34 6.14945 151.54 5.22945 151.76C5.18945 151.77 5.14945 151.78 5.11945 151.79C4.47945 151.94 3.79945 152.09 3.10945 152.24C2.95945 152.28 2.81945 152.31 2.66945 152.34C2.38945 152.41 2.10945 152.47 1.82945 152.53C1.34945 152.64 0.889453 152.74 0.439453 152.84V132.36C0.609453 132.21 0.729453 131.85 2.14945 131.65C6.15945 131.1 5.90945 135.06 5.90945 135.06C5.90945 135.06 7.36945 134.59 8.56945 135.82L8.62945 135.88C9.48945 136.81 9.08945 138.94 8.77945 140.09C8.65945 140.56 8.54945 140.87 8.54945 140.87C8.54945 140.87 10.3095 141.02 10.8895 142.26C10.9095 142.3 10.9195 142.33 10.9295 142.37C10.9395 142.38 10.9395 142.4 10.9395 142.41C11.0595 142.83 10.8695 143.39 10.5795 143.93C10.2695 144.51 9.83945 145.08 9.48945 145.5C9.19945 145.86 8.96945 146.1 8.92945 146.14Z" fill="#36A064"/>
<path d="M93.1891 139.721C93.1891 139.721 94.1691 137.501 92.1191 135.791C90.9991 134.851 88.7091 135.511 88.0891 135.881C88.0891 135.881 89.0191 132.961 86.1291 133.351C83.2391 133.741 84.4791 136.221 84.4791 136.221C84.4791 136.221 83.5291 133.771 82.0291 134.951C80.5291 136.131 82.0291 137.391 82.0291 137.391C82.0291 137.391 79.1791 136.131 78.8791 138.121C78.5791 140.111 80.2791 140.701 80.2791 140.701C80.2791 140.701 77.4791 140.511 77.4791 142.891C77.4791 145.271 79.5291 145.131 79.5291 145.131C79.5291 145.131 77.7291 145.031 77.4791 146.541C77.2291 148.051 77.5791 150.181 80.4791 149.331C83.3791 148.481 87.6691 152.221 89.1191 149.521C89.1191 149.521 92.3691 152.031 93.0691 149.311C93.0691 149.311 95.8691 147.701 93.4191 145.221C93.4191 145.221 97.5491 140.941 93.1791 139.721H93.1891Z" fill="#55AE7C"/>
<path d="M55.6194 139.2C55.6194 139.2 56.3994 137.43 54.7694 136.06C53.8694 135.31 52.0394 135.83 51.5494 136.13C51.5494 136.13 52.2994 133.8 49.9794 134.11C47.6594 134.42 48.6594 136.4 48.6594 136.4C48.6594 136.4 47.8994 134.44 46.6994 135.38C45.4994 136.32 46.6994 137.33 46.6994 137.33C46.6994 137.33 44.4194 136.32 44.1894 137.91C43.9594 139.5 45.3094 139.97 45.3094 139.97C45.3094 139.97 43.0694 139.81 43.0694 141.72C43.0694 143.63 44.7094 143.51 44.7094 143.51C44.7094 143.51 43.2694 143.43 43.0694 144.64C42.8694 145.85 43.1494 147.55 45.4594 146.87C47.7694 146.19 51.2094 149.18 52.3594 147.02C52.3594 147.02 54.9494 149.03 55.5094 146.85C55.5094 146.85 57.7494 145.57 55.7894 143.58C55.7894 143.58 59.0894 140.16 55.5994 139.19L55.6194 139.2Z" fill="#42A56D"/>
<path d="M38.1897 136.101C38.1897 136.101 36.4697 131.021 33.9197 133.201C32.8697 134.091 34.7797 136.251 33.0797 134.791C31.8197 133.711 29.1097 132.881 28.5397 135.031C27.9697 137.181 29.5197 137.921 29.5197 137.921C29.5197 137.921 30.7297 138.341 30.1097 138.881C29.4897 139.421 26.2597 137.961 26.6497 140.301C27.0397 142.641 28.3898 141.391 28.4698 142.731C28.5498 144.071 26.6597 143.091 26.7797 144.561C26.8997 146.031 27.9897 146.211 28.4097 146.641C28.8297 147.071 27.0597 148.661 32.0097 150.531C32.7597 150.811 36.6598 149.151 37.4798 148.451C42.0998 144.491 42.0998 143.491 42.4298 140.961C42.7998 138.121 42.4097 135.851 38.1997 136.101H38.1897Z" fill="#42A56D"/>
<path d="M55.3691 134.87C55.3691 134.87 55.0991 134.4 55.4391 133.06C55.7391 131.88 57.3291 130.99 58.6391 132.14C58.6391 132.14 59.0791 130.51 60.6191 130.89C61.8091 131.18 61.4491 132.38 61.4491 132.38C61.4491 132.38 63.3991 131.5 64.0091 133.11C64.6191 134.72 63.3591 135.23 63.3591 135.23C63.3591 135.23 65.5591 135.19 65.5491 136.35C65.5391 137.51 64.3591 138.32 64.3591 138.32C64.3591 138.32 66.3091 137.21 66.8791 138.7C67.4591 140.18 66.0691 141.52 66.0691 141.52C66.0691 141.52 68.6391 141.12 68.4191 142.7C68.1891 144.27 67.2691 144.84 67.2691 144.84C67.2691 144.84 70.1991 144.23 69.6691 145.87C69.1391 147.51 68.2191 150.23 61.3291 150.47C55.5591 150.67 49.8791 151.05 49.6491 147.04C49.6091 146.27 49.7491 145 50.5491 144.69C50.5491 144.69 49.3291 144.13 48.9891 143.2C48.7591 142.57 49.0791 141.49 49.9491 141.37C49.9491 141.37 47.6691 139.25 50.0791 137.63C51.2691 136.83 52.4591 137.77 52.4591 137.77C52.4591 137.77 51.1491 135.35 52.4991 134.22C54.1591 132.83 54.8291 133.97 55.3691 134.88V134.87Z" fill="#249756"/>
<path d="M49.5091 143.181C49.5091 143.181 50.8091 138.041 47.3491 138.621C45.9291 138.861 46.4091 141.621 45.7191 139.551C45.2091 138.011 43.2691 135.981 41.5791 137.521C39.8891 139.061 40.8291 140.451 40.8291 140.451C40.8291 140.451 41.6591 141.401 40.8191 141.551C39.9791 141.701 37.9391 138.871 36.9691 141.041C35.9991 143.211 37.8991 142.821 37.2191 143.991C36.5391 145.161 35.4191 143.401 34.6991 144.701C33.9791 146.001 34.8491 146.691 34.9791 147.261C35.1091 147.831 35.0991 147.831 34.7191 148.521C34.3391 149.211 39.9491 150.401 41.0791 150.351C42.2091 150.301 46.4691 150.421 48.2991 149.951C51.2391 149.201 53.3591 145.041 49.4991 143.171L49.5091 143.181Z" fill="#47A871"/>
<path d="M126.899 141.261C126.899 141.261 128.789 136.181 125.209 136.401C123.739 136.491 123.929 139.351 123.449 137.181C123.099 135.571 121.359 133.301 119.469 134.681C117.579 136.061 118.389 137.581 118.389 137.581C118.389 137.581 119.129 138.631 118.249 138.701C117.369 138.771 115.619 135.681 114.399 137.781C113.179 139.881 115.139 139.681 114.329 140.801C113.519 141.921 112.569 140.011 111.699 141.261C110.829 142.511 111.629 143.301 111.699 143.891C111.769 144.481 111.759 144.481 111.299 145.141C110.839 145.801 116.399 147.601 117.549 147.661C118.699 147.721 123.019 148.291 124.929 148.011C127.999 147.561 130.609 143.551 126.899 141.251V141.261Z" fill="#47A871"/>
<path d="M104.189 134.741C104.189 134.741 102.909 132.411 100.969 133.361C99.0291 134.311 99.9991 135.59 99.9991 135.59C99.9991 135.59 98.6091 134.17 97.4291 135.59C96.2491 137.01 98.3791 138.411 98.3791 138.411C98.3791 138.411 95.0891 136.89 94.6991 139.34C94.3091 141.79 96.5691 143.17 96.5691 143.17C96.5691 143.17 93.7891 142.601 93.5991 144.551C93.4091 146.501 94.6091 148.7 95.7491 148.45C95.7491 148.45 93.9891 150.19 98.3091 150.2C102.629 150.21 111.759 151.26 111.939 149.79C112.119 148.32 110.609 147.51 110.609 147.51C110.609 147.51 112.829 146.691 110.959 144.991C110.959 144.991 112.589 141.531 108.959 141.831C108.959 141.831 111.269 140.661 109.799 139.331C109.799 139.331 111.669 136.49 109.089 135.89C106.509 135.29 106.249 136.491 106.249 136.491C106.249 136.491 106.739 133.47 104.169 134.73L104.189 134.741Z" fill="#42A56D"/>
<path d="M76.8896 150.57C76.8896 150.57 72.1796 148.66 74.3396 146.91C74.3396 146.91 71.7296 143.42 74.1696 142.61C74.1696 142.61 71.2296 139.51 73.6696 138.9C76.1096 138.29 76.5996 139.28 76.5996 139.28C76.5996 139.28 75.6896 136.41 78.0496 136.82C80.4096 137.24 79.8996 139.17 79.8996 139.17C79.8996 139.17 81.3796 136.92 83.5196 138.74C85.6596 140.56 82.7396 141.34 82.7396 141.34C82.7396 141.34 85.2796 140.45 85.0096 142.49C84.7396 144.53 83.3996 144.74 83.3996 144.74C83.3996 144.74 85.9796 144.45 85.6996 146.12C85.4196 147.79 84.4196 148.97 82.4996 148.77C80.5796 148.57 76.8796 150.56 76.8796 150.56L76.8896 150.57Z" fill="#2F9C5F"/>
<path d="M98.5296 151.72C98.5296 151.72 102.92 149.51 100.69 147.99C100.69 147.99 102.92 144.43 100.5 143.83C100.5 143.83 103.08 140.61 100.68 140.22C98.2796 139.83 97.8896 140.81 97.8896 140.81C97.8896 140.81 98.5296 137.97 96.2896 138.56C94.0496 139.15 94.6996 140.97 94.6996 140.97C94.6996 140.97 93.0896 138.92 91.1696 140.84C89.2596 142.76 92.1296 143.28 92.1296 143.28C92.1296 143.28 89.6096 142.62 90.0296 144.57C90.4596 146.52 91.7596 146.62 91.7596 146.62C91.7596 146.62 89.2496 146.54 89.6496 148.13C90.0496 149.72 91.1096 150.78 92.9496 150.44C94.7896 150.1 98.5096 151.73 98.5096 151.73L98.5296 151.72Z" fill="#249756"/>
<path d="M150.89 137.991C150.89 137.991 151.62 136.351 150.1 135.081C149.27 134.391 147.58 134.871 147.12 135.151C147.12 135.151 147.81 132.991 145.67 133.281C143.53 133.571 144.45 135.401 144.45 135.401C144.45 135.401 143.75 133.591 142.64 134.461C141.53 135.331 142.64 136.261 142.64 136.261C142.64 136.261 140.54 135.331 140.32 136.801C140.1 138.271 141.35 138.711 141.35 138.711C141.35 138.711 139.28 138.571 139.28 140.331C139.28 142.091 140.79 141.981 140.79 141.981C140.79 141.981 139.46 141.911 139.28 143.021C139.1 144.131 139.35 145.711 141.49 145.081C143.63 144.451 146.8 147.211 147.87 145.221C147.87 145.221 150.27 147.081 150.78 145.061C150.78 145.061 152.85 143.871 151.04 142.041C151.04 142.041 154.09 138.881 150.87 137.981L150.89 137.991Z" fill="#55AE7C"/>
<path d="M114.99 149.84C114.99 149.84 112.079 146.95 114.279 146.31C114.279 146.31 113.46 142.89 115.56 143.04C115.56 143.04 114.369 139.81 116.389 140.1C118.409 140.39 118.459 141.29 118.459 141.29C118.459 141.29 118.72 138.86 120.35 139.9C121.98 140.94 120.969 142.23 120.969 142.23C120.969 142.23 122.809 141.01 123.819 143.03C124.829 145.05 122.389 144.74 122.389 144.74C122.389 144.74 124.579 144.86 123.719 146.31C122.859 147.76 121.779 147.5 121.779 147.5C121.779 147.5 123.8 148.08 123.06 149.24C122.32 150.4 121.169 150.98 119.789 150.24C118.409 149.5 114.99 149.84 114.99 149.84Z" fill="#66B689"/>
<path d="M153.289 150.57C153.289 150.57 157.599 148.4 155.409 146.91C155.409 146.91 157.599 143.41 155.219 142.83C155.219 142.83 157.749 139.67 155.399 139.28C153.049 138.89 152.659 139.86 152.659 139.86C152.659 139.86 153.289 137.07 151.089 137.65C148.889 138.23 149.529 140.01 149.529 140.01C149.529 140.01 147.949 138 146.069 139.88C144.189 141.76 147.009 142.28 147.009 142.28C147.009 142.28 144.529 141.63 144.949 143.54C145.369 145.45 146.649 145.55 146.649 145.55C146.649 145.55 144.189 145.47 144.579 147.03C144.969 148.59 146.019 149.63 147.819 149.3C149.619 148.97 153.279 150.57 153.279 150.57H153.289Z" fill="#249756"/>
<path d="M143.7 148.69C142.64 148.85 142.17 148.4 142.17 148.4C142.98 148.41 144.5 147.05 144.5 147.05C143.64 147.24 142.99 146.88 142.99 146.88C144.13 146.7 144.74 145.74 144.74 145.74C143.99 145.9 143.3 145.45 143.3 145.45C144.23 145.35 145.12 144.24 145.12 144.24C144.5 144.61 143.7 144.24 143.7 144.24C144.77 144.11 145.53 142.66 145.53 142.66C144.87 143.1 144.22 142.46 144.22 142.46C145.53 142.66 146.02 140.41 146.02 140.41C146.02 140.41 146.5 142.66 147.82 142.46C147.82 142.46 147.16 143.1 146.51 142.66C146.51 142.66 147.27 144.11 148.34 144.24C148.34 144.24 147.55 144.61 146.92 144.24C146.92 144.24 147.81 145.35 148.74 145.45C148.74 145.45 148.05 145.9 147.3 145.74C147.3 145.74 147.91 146.7 149.05 146.88C149.05 146.88 148.39 147.24 147.54 147.05C147.54 147.05 149.06 148.41 149.87 148.4C149.87 148.4 149.4 148.85 148.34 148.69C148.34 148.69 149.45 149.6 150.53 149.73C150.53 149.73 149.43 150.23 148.56 150.04C147.69 149.85 147.61 149.75 147.61 149.75C147.61 149.75 147.47 149.94 147.58 150.2C147.69 150.46 147.82 150.58 147.82 150.58C147.82 150.58 147.2 150.48 146.71 150.24C146.33 150.05 146.25 149.83 146.13 149.79C145.91 150.03 145.86 150.09 145.52 150.24C145.01 150.46 144.14 150.47 144.14 150.47C144.14 150.47 144.39 150.24 144.54 150.07C144.71 149.88 144.74 149.68 144.74 149.68C144.74 149.68 143.98 149.95 143.38 149.98C142.78 150.01 141.52 149.59 141.52 149.59C142.6 149.46 143.71 148.68 143.71 148.68L143.7 148.69Z" fill="#138F49"/>
<path d="M66.6799 149.181C65.6999 149.341 65.2699 148.891 65.2699 148.891C66.0199 148.901 67.4199 147.561 67.4199 147.561C66.6299 147.751 66.0299 147.391 66.0299 147.391C67.0799 147.211 67.6399 146.261 67.6399 146.261C66.9499 146.421 66.3099 145.971 66.3099 145.971C67.1699 145.871 67.9899 144.771 67.9899 144.771C67.4199 145.141 66.6799 144.771 66.6799 144.771C67.6699 144.641 68.3699 143.201 68.3699 143.201C67.7599 143.631 67.1599 143.001 67.1599 143.001C68.3699 143.201 68.8199 140.971 68.8199 140.971C68.8199 140.971 69.2699 143.201 70.4799 143.001C70.4799 143.001 69.8699 143.631 69.2699 143.201C69.2699 143.201 69.9699 144.631 70.9599 144.771C70.9599 144.771 70.2299 145.141 69.6499 144.771C69.6499 144.771 70.4699 145.871 71.3299 145.971C71.3299 145.971 70.6899 146.411 69.9999 146.261C69.9999 146.261 70.5599 147.211 71.6099 147.391C71.6099 147.391 70.9999 147.751 70.2199 147.561C70.2199 147.561 71.6199 148.901 72.3699 148.891C72.3699 148.891 71.9299 149.331 70.9599 149.181C70.9599 149.181 71.9799 150.081 72.9799 150.211C72.9799 150.211 71.9699 150.711 71.1599 150.521C70.3499 150.331 70.2799 150.231 70.2799 150.231C70.2799 150.231 70.1499 150.421 70.2599 150.671C70.3699 150.921 70.4799 151.041 70.4799 151.041C70.4799 151.041 69.9099 150.951 69.4599 150.711C69.1099 150.521 69.0299 150.301 68.9299 150.271C68.7299 150.511 68.6799 150.571 68.3599 150.711C67.8899 150.921 67.0899 150.931 67.0899 150.931C67.0899 150.931 67.3199 150.711 67.4599 150.541C67.6099 150.351 67.6399 150.161 67.6399 150.161C67.6399 150.161 66.9399 150.431 66.3899 150.461C65.8399 150.491 64.6699 150.081 64.6699 150.081C65.6699 149.951 66.6899 149.181 66.6899 149.181H66.6799Z" fill="#18914D"/>
<path d="M142.449 140.231C142.449 140.231 142.689 139.961 142.659 139.041C142.629 138.231 141.719 137.431 140.699 138.011C140.699 138.011 140.639 136.891 139.579 136.931C138.759 136.961 138.829 137.791 138.829 137.791C138.829 137.791 137.679 136.951 137.059 137.921C136.439 138.891 137.189 139.391 137.189 139.391C137.189 139.391 135.759 139.071 135.599 139.831C135.439 140.591 136.099 141.271 136.099 141.271C136.099 141.271 134.989 140.291 134.399 141.181C133.809 142.071 134.529 143.131 134.529 143.131C134.529 143.131 132.909 142.531 132.829 143.581C132.749 144.631 133.279 145.131 133.279 145.131C133.279 145.131 131.449 144.341 131.569 145.481C131.689 146.621 131.909 148.521 136.359 149.591C140.099 150.491 143.749 151.501 144.469 148.911C144.609 148.411 144.689 147.571 144.209 147.261C144.209 147.261 145.089 147.061 145.439 146.501C145.679 146.121 145.619 145.371 145.069 145.181C145.069 145.181 146.859 144.101 145.509 142.721C144.849 142.041 143.939 142.491 143.939 142.491C143.939 142.491 145.129 141.081 144.409 140.171C143.519 139.041 142.929 139.691 142.449 140.221V140.231Z" fill="#42A56D"/>
<path d="M126.769 137.411C126.769 137.411 127.719 135.081 129.359 136.331C130.999 137.581 129.789 136.501 131.829 136.891C134.859 137.471 133.749 139.931 133.749 139.931C133.749 139.931 134.959 139.971 135.529 141.081C136.099 142.191 134.309 144.231 134.309 144.231C134.309 144.231 135.549 144.741 135.679 145.661C135.809 146.581 133.339 147.671 133.339 147.671C133.339 147.671 134.259 149.111 133.859 149.851C133.459 150.591 132.139 150.341 131.829 150.531C131.519 150.721 123.029 149.611 123.029 149.611C123.029 149.611 121.849 148.871 121.759 148.251C121.699 147.831 122.819 147.601 122.539 147.181C121.579 145.721 119.829 144.411 121.599 143.901C122.559 143.621 120.269 142.891 120.799 141.901C121.329 140.911 122.599 140.831 121.979 139.711C121.539 138.901 121.659 138.111 123.239 137.921C124.819 137.731 124.579 138.401 124.969 138.221C125.359 138.041 125.419 136.341 126.749 137.401L126.769 137.411Z" fill="#349F62"/>
<path d="M110.57 148.98C109.25 149.18 108.66 148.62 108.66 148.62C109.67 148.64 111.57 146.94 111.57 146.94C110.5 147.18 109.69 146.73 109.69 146.73C111.11 146.51 111.87 145.31 111.87 145.31C110.94 145.51 110.08 144.95 110.08 144.95C111.24 144.82 112.34 143.44 112.34 143.44C111.57 143.9 110.58 143.44 110.58 143.44C111.91 143.27 112.86 141.47 112.86 141.47C112.04 142.01 111.23 141.22 111.23 141.22C112.86 141.47 113.47 138.66 113.47 138.66C113.47 138.66 114.07 141.47 115.71 141.22C115.71 141.22 114.89 142.02 114.08 141.47C114.08 141.47 115.03 143.27 116.36 143.44C116.36 143.44 115.37 143.9 114.6 143.44C114.6 143.44 115.7 144.82 116.86 144.95C116.86 144.95 116 145.51 115.07 145.31C115.07 145.31 115.83 146.51 117.25 146.73C117.25 146.73 116.43 147.18 115.37 146.94C115.37 146.94 117.26 148.63 118.28 148.62C118.28 148.62 117.69 149.18 116.37 148.98C116.37 148.98 117.75 150.11 119.09 150.28C119.09 150.28 117.72 150.91 116.64 150.67C115.56 150.43 115.46 150.3 115.46 150.3C115.46 150.3 115.29 150.54 115.43 150.86C115.57 151.18 115.73 151.33 115.73 151.33C115.73 151.33 114.95 151.21 114.35 150.91C113.88 150.68 113.78 150.4 113.63 150.35C113.36 150.65 113.29 150.72 112.87 150.91C112.24 151.18 111.15 151.19 111.15 151.19C111.15 151.19 111.46 150.91 111.64 150.7C111.85 150.46 111.89 150.22 111.89 150.22C111.89 150.22 110.94 150.56 110.2 150.6C109.46 150.64 107.88 150.12 107.88 150.12C109.23 149.96 110.6 148.99 110.6 148.99L110.57 148.98Z" fill="#18914D"/>
<path d="M139.719 146.261C139.719 146.261 140.929 142.991 138.639 143.141C137.689 143.201 137.819 145.031 137.509 143.641C137.279 142.601 136.159 141.151 134.949 142.031C133.739 142.911 134.259 143.891 134.259 143.891C134.259 143.891 134.739 144.571 134.169 144.611C133.599 144.651 132.479 142.671 131.699 144.021C130.919 145.371 132.179 145.241 131.659 145.961C131.139 146.681 130.529 145.451 129.969 146.261C129.409 147.071 129.929 147.571 129.969 147.951C130.009 148.331 130.009 148.331 129.709 148.751C129.409 149.171 131.569 151.071 132.309 151.121C133.049 151.171 137.239 150.781 138.459 150.601C140.429 150.311 142.109 147.741 139.729 146.261H139.719Z" fill="#2B9A5B"/>
<path d="M15.5692 134.46C15.5692 134.46 15.0992 131.08 12.8192 132.24C10.5392 133.4 12.1492 133 9.75924 132.24C7.37924 131.48 6.28924 132.95 6.90924 133.91C7.52924 134.87 9.28924 135.19 8.40924 136.01C7.52924 136.83 5.86924 136.63 4.88924 137.94C3.90924 139.25 4.67924 140.21 4.78924 141.27C4.89924 142.33 3.85924 142.84 3.43924 144.02C3.01924 145.2 2.81924 146.37 4.47924 146.87C6.13924 147.37 6.08924 149.04 6.33924 150.15C6.58924 151.26 8.56924 151.31 8.87924 151.66C9.18924 152.01 16.5392 151.82 16.5392 151.82C16.5392 151.82 18.1392 151.19 18.4092 150.39C18.5992 149.85 17.3492 149.2 17.7892 148.72C19.3292 147.06 21.7492 145.84 19.8092 144.63C18.7592 143.97 21.6592 143.69 21.3092 142.21C20.9592 140.73 19.4992 140.24 20.5292 138.94C21.2792 138 21.3592 136.91 19.5492 136.18C17.7392 135.45 17.8392 136.41 17.4292 136.06C17.0192 135.71 17.4292 133.43 15.5692 134.44V134.46Z" fill="#3DA36A"/>
<path d="M25.9596 148.76C25.9596 148.76 29.6296 144.93 26.8596 144.08C26.8596 144.08 27.8896 139.55 25.2496 139.75C25.2496 139.75 26.7496 135.47 24.1996 135.87C21.6496 136.27 21.5796 137.45 21.5796 137.45C21.5796 137.45 21.2596 134.23 19.1996 135.61C17.1396 136.99 18.4196 138.69 18.4196 138.69C18.4196 138.69 16.0896 137.07 14.8196 139.75C13.5496 142.43 16.6196 142.01 16.6196 142.01C16.6196 142.01 13.8496 142.17 14.9496 144.08C16.0396 145.99 17.3996 145.66 17.3996 145.66C17.3996 145.66 14.8496 146.43 15.7896 147.97C16.7296 149.51 18.1696 150.28 19.9096 149.29C21.6496 148.3 25.9596 148.76 25.9596 148.76Z" fill="#249756"/>
<path d="M61.7592 141.09C61.7592 141.09 60.6792 138.45 58.8192 139.86C56.9592 141.27 58.3292 140.05 56.0192 140.49C52.5792 141.15 53.8392 143.94 53.8392 143.94C53.8392 143.94 52.4692 143.98 51.8192 145.25C51.1692 146.52 53.2092 148.83 53.2092 148.83C53.2092 148.83 51.8092 149.41 51.6492 150.45C51.4892 151.49 54.2992 152.73 54.2992 152.73C54.2992 152.73 53.2592 154.36 53.7092 155.21C54.1592 156.06 55.6592 155.76 56.0192 155.98C56.3792 156.2 65.9992 154.93 65.9992 154.93C65.9992 154.93 67.3392 154.09 67.4392 153.39C67.5092 152.91 66.2392 152.65 66.5492 152.17C67.6392 150.51 69.6192 149.02 67.6092 148.45C66.5192 148.14 69.1192 147.31 68.5192 146.18C67.9192 145.05 66.4792 144.97 67.1792 143.7C67.6792 142.78 67.5492 141.89 65.7492 141.67C63.9492 141.45 64.2292 142.21 63.7792 142.01C63.3292 141.81 63.2692 139.88 61.7592 141.08V141.09Z" fill="#008039"/>
<path d="M102.989 142.68C102.989 142.68 102.589 142.23 102.639 140.72C102.679 139.38 104.189 138.07 105.879 139.03C105.879 139.03 105.969 137.18 107.729 137.25C109.089 137.3 108.979 138.67 108.979 138.67C108.979 138.67 110.879 137.29 111.909 138.89C112.939 140.49 111.699 141.32 111.699 141.32C111.699 141.32 114.059 140.79 114.329 142.04C114.599 143.29 113.499 144.43 113.499 144.43C113.499 144.43 115.339 142.81 116.309 144.28C117.279 145.75 116.099 147.5 116.099 147.5C116.099 147.5 118.779 146.5 118.899 148.25C119.019 150 118.159 150.81 118.159 150.81C118.159 150.81 121.179 149.5 120.989 151.39C120.799 153.28 120.429 156.41 113.069 158.19C106.889 159.68 100.849 161.34 99.6692 157.07C99.4392 156.25 99.3092 154.85 100.089 154.34C100.089 154.34 98.6392 154.01 98.0592 153.08C97.6692 152.45 97.7692 151.22 98.6692 150.9C98.6692 150.9 95.7092 149.12 97.9392 146.83C99.0392 145.7 100.539 146.46 100.539 146.46C100.539 146.46 98.5692 144.13 99.7592 142.63C101.229 140.77 102.209 141.84 102.999 142.71L102.989 142.68Z" fill="#168746"/>
<path d="M168 159.78C168 159.78 174.57 155.68 170.83 153.61C170.83 153.61 173.8 147.69 169.91 147.1C169.91 147.1 173.48 141.67 169.65 141.39C165.82 141.11 165.34 142.72 165.34 142.72C165.34 142.72 165.92 138.16 162.48 139.41C159.04 140.66 160.35 143.42 160.35 143.42C160.35 143.42 157.51 140.43 154.79 143.72C152.07 147.01 156.67 147.43 156.67 147.43C156.67 147.43 152.61 146.75 153.57 149.75C154.53 152.75 156.6 152.72 156.6 152.72C156.6 152.72 152.65 152.95 153.52 155.39C154.39 157.83 156.22 159.35 159.06 158.55C161.9 157.75 168 159.79 168 159.79V159.78Z" fill="#007534"/>
<path d="M200.44 139.75V159.16C200.44 159.16 200.33 159.22 200.28 159.24C199.71 159.52 199.18 159.67 199.18 159.67C199.18 159.67 198.34 159.49 197.09 159.23C194.97 158.78 191.69 158.07 189.53 157.52C188.29 157.22 187.41 156.97 187.33 156.85C187.05 156.47 185.59 156.23 185.13 155.3C185.07 155.17 185.03 155.03 185.01 154.88C184.85 153.59 186.73 151.9 186.73 151.9C186.73 151.9 184.04 149.11 184.65 147.81C185.26 146.51 187.11 146.35 187.11 146.35C187.11 146.35 185.78 142.58 186.99 141.16C187 141.14 187.02 141.13 187.03 141.11C188.3 139.73 189.89 140.25 189.89 140.25C189.89 140.25 189.63 136.09 193.83 136.67C196.66 137.06 194.58 138.07 197.3 137.02C200.03 135.96 200.15 139.85 200.15 139.85C200.25 139.81 200.35 139.77 200.44 139.75Z" fill="#00853B"/>
<path d="M82.2092 146.52C82.2092 146.52 81.0092 143.81 83.5092 141.72C84.8792 140.57 87.6792 141.37 88.4292 141.83C88.4292 141.83 87.2892 138.26 90.8292 138.74C94.3692 139.22 92.8392 142.25 92.8392 142.25C92.8392 142.25 93.9992 139.26 95.8292 140.69C97.6592 142.12 95.8292 143.67 95.8292 143.67C95.8292 143.67 99.3092 142.12 99.6692 144.56C100.029 147 97.9592 147.71 97.9592 147.71C97.9592 147.71 101.379 147.47 101.379 150.38C101.379 153.29 98.8792 153.11 98.8792 153.11C98.8792 153.11 101.079 152.99 101.379 154.83C101.679 156.67 101.259 159.28 97.7192 158.24C94.1792 157.2 88.9392 161.77 87.1692 158.48C87.1692 158.48 83.2092 161.55 82.3492 158.22C82.3492 158.22 78.9292 156.26 81.9192 153.23C81.9192 153.23 76.8792 148 82.2092 146.51V146.52Z" fill="#2E915B"/>
<path d="M128.099 145.89C128.099 145.89 127.139 143.72 129.139 142.05C130.239 141.13 132.469 141.77 133.069 142.14C133.069 142.14 132.159 139.29 134.989 139.67C137.819 140.05 136.599 142.47 136.599 142.47C136.599 142.47 137.529 140.08 138.989 141.23C140.449 142.38 138.989 143.61 138.989 143.61C138.989 143.61 141.769 142.38 142.059 144.32C142.349 146.26 140.689 146.84 140.689 146.84C140.689 146.84 143.419 146.65 143.419 148.98C143.419 151.31 141.419 151.16 141.419 151.16C141.419 151.16 143.179 151.07 143.419 152.54C143.659 154.01 143.319 156.09 140.489 155.27C137.659 154.45 133.469 158.09 132.059 155.46C132.059 155.46 128.889 157.91 128.209 155.25C128.209 155.25 125.479 153.68 127.869 151.26C127.869 151.26 123.839 147.08 128.099 145.89Z" fill="#128A47"/>
<path d="M149.39 142.11C149.39 142.11 151.5 135.91 154.61 138.56C155.89 139.65 153.56 142.28 155.63 140.51C157.17 139.19 160.48 138.18 161.17 140.8C161.86 143.42 159.97 144.33 159.97 144.33C159.97 144.33 158.49 144.84 159.25 145.5C160.01 146.16 163.95 144.37 163.47 147.23C163 150.09 161.35 148.57 161.25 150.2C161.15 151.83 163.46 150.64 163.32 152.44C163.18 154.24 161.84 154.46 161.33 154.98C160.82 155.5 162.98 157.45 156.94 159.73C156.03 160.07 151.26 158.04 150.26 157.19C144.62 152.35 144.61 151.13 144.21 148.04C143.76 144.57 144.23 141.8 149.38 142.1L149.39 142.11Z" fill="#128A47"/>
<path d="M128.419 140.6C128.419 140.6 128.749 140.02 128.339 138.39C127.979 136.95 126.029 135.86 124.429 137.27C124.429 137.27 123.899 135.28 122.009 135.74C120.549 136.1 120.989 137.56 120.989 137.56C120.989 137.56 118.609 136.48 117.859 138.45C117.109 140.42 118.649 141.03 118.649 141.03C118.649 141.03 115.969 140.98 115.969 142.4C115.969 143.82 117.419 144.8 117.419 144.8C117.419 144.8 115.039 143.45 114.339 145.26C113.629 147.07 115.319 148.71 115.319 148.71C115.319 148.71 112.179 148.23 112.459 150.15C112.739 152.07 113.859 152.76 113.859 152.76C113.859 152.76 110.279 152.01 110.929 154.02C111.579 156.03 112.709 159.34 121.109 159.63C128.159 159.88 135.099 160.34 135.379 155.44C135.429 154.5 135.259 152.95 134.279 152.57C134.279 152.57 135.769 151.89 136.179 150.75C136.459 149.98 136.059 148.67 135.009 148.52C135.009 148.52 137.799 145.94 134.849 143.95C133.399 142.97 131.949 144.12 131.949 144.12C131.949 144.12 133.549 141.16 131.899 139.79C129.869 138.1 129.049 139.48 128.399 140.59L128.419 140.6Z" fill="#00692E"/>
<path d="M135.57 150.75C135.57 150.75 133.98 144.47 138.21 145.18C139.95 145.47 139.35 148.84 140.2 146.32C140.83 144.44 143.19 141.96 145.26 143.84C147.33 145.72 146.17 147.42 146.17 147.42C146.17 147.42 145.15 148.58 146.19 148.77C147.23 148.96 149.71 145.5 150.89 148.15C152.06 150.8 149.76 150.32 150.58 151.75C151.4 153.18 152.78 151.03 153.65 152.62C154.52 154.21 153.47 155.05 153.31 155.75C153.15 156.45 153.16 156.45 153.63 157.29C154.09 158.13 147.24 159.59 145.87 159.53C144.5 159.47 139.28 159.61 137.05 159.04C133.45 158.12 130.87 153.04 135.58 150.76L135.57 150.75Z" fill="#138F49"/>
<path d="M41.0394 148.41C41.0394 148.41 38.7294 142.2 43.0994 142.48C44.8994 142.59 44.6694 146.08 45.2394 143.43C45.6694 141.46 47.7994 138.69 50.1094 140.38C52.4194 142.07 51.4294 143.92 51.4294 143.92C51.4294 143.92 50.5194 145.21 51.5894 145.29C52.6594 145.37 54.8094 141.6 56.2894 144.17C57.7694 146.74 55.3794 146.5 56.3694 147.86C57.3594 149.22 58.5194 146.9 59.5894 148.42C60.6594 149.94 59.6694 150.91 59.5894 151.63C59.5094 152.35 59.5194 152.35 60.0794 153.16C60.6394 153.97 53.8494 156.16 52.4394 156.24C51.0294 156.32 45.7594 157.01 43.4294 156.67C39.6794 156.12 36.4894 151.23 41.0194 148.41H41.0394Z" fill="#138F49"/>
<path d="M68.7797 140.44C68.7797 140.44 70.3397 137.6 72.7097 138.75C75.0797 139.9 73.8897 141.47 73.8897 141.47C73.8897 141.47 75.5897 139.74 77.0297 141.47C78.4697 143.2 75.8698 144.92 75.8698 144.92C75.8698 144.92 79.8897 143.06 80.3597 146.05C80.8297 149.04 78.0697 150.73 78.0697 150.73C78.0697 150.73 81.4598 150.04 81.6998 152.42C81.9398 154.8 80.4697 157.49 79.0697 157.18C79.0697 157.18 81.2198 159.3 75.9398 159.32C70.6598 159.34 59.5097 160.61 59.2897 158.82C59.0697 157.03 60.9098 156.03 60.9098 156.03C60.9098 156.03 58.1998 155.03 60.4898 152.96C60.4898 152.96 58.4898 148.74 62.9298 149.1C62.9298 149.1 60.1098 147.67 61.9098 146.05C61.9098 146.05 59.6198 142.58 62.7798 141.85C65.9398 141.12 66.2497 142.59 66.2497 142.59C66.2497 142.59 65.6497 138.91 68.7898 140.44H68.7797Z" fill="#15874A"/>
<path d="M102.13 159.78C102.13 159.78 107.89 157.44 105.24 155.3C105.24 155.3 108.43 151.04 105.45 150.05C105.45 150.05 109.04 146.26 106.06 145.52C103.08 144.78 102.48 145.98 102.48 145.98C102.48 145.98 103.59 142.47 100.71 142.98C97.8297 143.49 98.4597 145.85 98.4597 145.85C98.4597 145.85 96.6497 143.11 94.0397 145.33C91.4297 147.55 94.9897 148.5 94.9897 148.5C94.9897 148.5 91.8897 147.41 92.2097 149.91C92.5297 152.41 94.1697 152.66 94.1697 152.66C94.1697 152.66 91.0197 152.31 91.3597 154.34C91.6997 156.37 92.9197 157.83 95.2697 157.58C97.6197 157.33 102.14 159.77 102.14 159.77L102.13 159.78Z" fill="#007A35"/>
<path d="M75.6996 161.19C75.6996 161.19 70.3396 158.49 73.0696 156.63C73.0696 156.63 70.3496 152.28 73.2996 151.55C73.2996 151.55 70.1496 147.62 73.0796 147.14C76.0096 146.65 76.4896 147.86 76.4896 147.86C76.4896 147.86 75.7096 144.39 78.4396 145.11C81.1796 145.83 80.3796 148.05 80.3796 148.05C80.3796 148.05 82.3496 145.55 84.6896 147.89C87.0296 150.24 83.5196 150.88 83.5196 150.88C83.5196 150.88 86.5996 150.07 86.0796 152.45C85.5596 154.83 83.9596 154.95 83.9596 154.95C83.9596 154.95 87.0196 154.85 86.5296 156.79C86.0396 158.73 84.7396 160.03 82.4896 159.61C80.2396 159.19 75.6896 161.19 75.6896 161.19H75.6996Z" fill="#00692E"/>
<path d="M2.94931 145.87C2.94931 145.87 2.05931 143.87 3.90931 142.32C4.91931 141.47 6.98931 142.06 7.54931 142.4C7.54931 142.4 6.70931 139.77 9.31931 140.12C11.9293 140.47 10.8093 142.71 10.8093 142.71C10.8093 142.71 11.6693 140.5 13.0193 141.56C14.3693 142.62 13.0193 143.76 13.0193 143.76C13.0193 143.76 15.5893 142.62 15.8593 144.42C16.1293 146.22 14.5993 146.75 14.5993 146.75C14.5993 146.75 17.1193 146.57 17.1193 148.73C17.1193 150.89 15.2693 150.75 15.2693 150.75C15.2693 150.75 16.8893 150.66 17.1193 152.02C17.3493 153.38 17.0293 155.31 14.4193 154.54C11.8093 153.77 7.92931 157.15 6.61931 154.71C6.61931 154.71 3.68931 156.98 3.05931 154.52C3.05931 154.52 0.529309 153.07 2.73931 150.83C2.73931 150.83 -0.980691 146.97 2.94931 145.87Z" fill="#2E915B"/>
<path d="M55.5893 158.89C55.5893 158.89 59.1393 155.36 56.4593 154.57C56.4593 154.57 57.4593 150.39 54.8993 150.57C54.8993 150.57 56.3493 146.62 53.8793 146.98C51.4093 147.34 51.3493 148.43 51.3493 148.43C51.3493 148.43 51.0393 145.46 49.0393 146.73C47.0393 148 48.2893 149.58 48.2893 149.58C48.2893 149.58 46.0393 148.08 44.8093 150.56C43.5793 153.04 46.5593 152.65 46.5593 152.65C46.5593 152.65 43.8793 152.8 44.9393 154.56C45.9993 156.32 47.3093 156.01 47.3093 156.01C47.3093 156.01 44.8393 156.72 45.7493 158.14C46.6593 159.56 48.0593 160.27 49.7393 159.36C51.4193 158.45 55.5993 158.87 55.5993 158.87L55.5893 158.89Z" fill="#35A668"/>
<path d="M8.8097 159.78C8.8097 159.78 3.5497 157.13 6.2197 155.31C6.2197 155.31 3.5497 151.04 6.4497 150.33C6.4497 150.33 3.3597 146.47 6.2297 146C9.0997 145.52 9.5797 146.71 9.5797 146.71C9.5797 146.71 8.8097 143.31 11.4997 144.01C14.1897 144.71 13.3997 146.9 13.3997 146.9C13.3997 146.9 15.3297 144.44 17.6297 146.75C19.9297 149.06 16.4797 149.68 16.4797 149.68C16.4797 149.68 19.4997 148.89 18.9897 151.22C18.4797 153.55 16.9097 153.67 16.9097 153.67C16.9097 153.67 19.9097 153.58 19.4297 155.47C18.9497 157.36 17.6697 158.65 15.4697 158.24C13.2697 157.83 8.7997 159.79 8.7997 159.79L8.8097 159.78Z" fill="#00692E"/>
<path d="M20.519 157.48C21.809 157.67 22.389 157.12 22.389 157.12C21.399 157.13 19.539 155.48 19.539 155.48C20.589 155.71 21.389 155.27 21.389 155.27C19.999 155.05 19.259 153.87 19.259 153.87C20.169 154.06 21.019 153.51 21.019 153.51C19.879 153.39 18.799 152.03 18.799 152.03C19.559 152.48 20.529 152.03 20.529 152.03C19.219 151.87 18.289 150.1 18.289 150.1C19.089 150.63 19.889 149.85 19.889 149.85C18.289 150.1 17.699 147.34 17.699 147.34C17.699 147.34 17.109 150.09 15.509 149.85C15.509 149.85 16.309 150.63 17.109 150.1C17.109 150.1 16.179 151.87 14.869 152.03C14.869 152.03 15.839 152.48 16.599 152.03C16.599 152.03 15.519 153.39 14.379 153.51C14.379 153.51 15.219 154.06 16.139 153.87C16.139 153.87 15.399 155.05 14.009 155.27C14.009 155.27 14.809 155.71 15.859 155.48C15.859 155.48 13.999 157.14 13.009 157.12C13.009 157.12 13.589 157.67 14.879 157.48C14.879 157.48 13.529 158.59 12.209 158.75C12.209 158.75 13.549 159.37 14.609 159.13C15.669 158.89 15.769 158.77 15.769 158.77C15.769 158.77 15.939 159.01 15.799 159.31C15.659 159.61 15.499 159.77 15.499 159.77C15.499 159.77 16.259 159.65 16.849 159.36C17.309 159.13 17.409 158.86 17.559 158.81C17.819 159.11 17.889 159.18 18.309 159.36C18.929 159.63 19.999 159.64 19.999 159.64C19.999 159.64 19.689 159.36 19.509 159.16C19.309 158.93 19.269 158.69 19.269 158.69C19.269 158.69 20.199 159.02 20.929 159.06C21.659 159.1 23.199 158.59 23.199 158.59C21.879 158.43 20.529 157.48 20.529 157.48H20.519Z" fill="#005232"/>
<path d="M114.59 158.09C115.78 158.28 116.31 157.74 116.31 157.74C115.39 157.75 113.68 156.11 113.68 156.11C114.64 156.34 115.38 155.9 115.38 155.9C114.1 155.68 113.41 154.52 113.41 154.52C114.25 154.71 115.03 154.17 115.03 154.17C113.98 154.05 112.98 152.71 112.98 152.71C113.68 153.16 114.57 152.71 114.57 152.71C113.36 152.55 112.51 150.8 112.51 150.8C113.25 151.33 113.99 150.56 113.99 150.56C112.51 150.8 111.97 148.08 111.97 148.08C111.97 148.08 111.43 150.81 109.95 150.56C109.95 150.56 110.69 151.33 111.43 150.8C111.43 150.8 110.57 152.55 109.37 152.71C109.37 152.71 110.26 153.16 110.96 152.71C110.96 152.71 109.96 154.05 108.91 154.17C108.91 154.17 109.69 154.71 110.53 154.52C110.53 154.52 109.85 155.68 108.56 155.9C108.56 155.9 109.3 156.34 110.26 156.11C110.26 156.11 108.55 157.75 107.63 157.74C107.63 157.74 108.16 158.28 109.35 158.09C109.35 158.09 108.11 159.19 106.89 159.35C106.89 159.35 108.12 159.96 109.11 159.73C110.1 159.5 110.18 159.37 110.18 159.37C110.18 159.37 110.34 159.6 110.21 159.91C110.08 160.22 109.94 160.37 109.94 160.37C109.94 160.37 110.64 160.25 111.18 159.96C111.6 159.73 111.7 159.46 111.83 159.42C112.07 159.72 112.13 159.78 112.52 159.96C113.09 160.22 114.08 160.23 114.08 160.23C114.08 160.23 113.8 159.96 113.63 159.75C113.44 159.52 113.41 159.28 113.41 159.28C113.41 159.28 114.27 159.61 114.94 159.65C115.61 159.69 117.04 159.18 117.04 159.18C115.82 159.02 114.58 158.08 114.58 158.08L114.59 158.09Z" fill="#005937"/>
<path d="M22.0396 147.14C22.0396 147.14 21.7496 146.81 21.7796 145.69C21.8096 144.7 22.9296 143.73 24.1696 144.44C24.1696 144.44 24.2396 143.07 25.5296 143.12C26.5296 143.16 26.4496 144.17 26.4496 144.17C26.4496 144.17 27.8496 143.15 28.6196 144.33C29.3896 145.51 28.4696 146.12 28.4696 146.12C28.4696 146.12 30.2096 145.73 30.4096 146.66C30.6096 147.59 29.7996 148.42 29.7996 148.42C29.7996 148.42 31.1596 147.22 31.8796 148.31C32.5996 149.4 31.7196 150.69 31.7196 150.69C31.7196 150.69 33.6996 149.95 33.7896 151.25C33.8796 152.55 33.2396 153.14 33.2396 153.14C33.2396 153.14 35.4696 152.18 35.3296 153.57C35.1896 154.96 34.9196 157.28 29.4796 158.59C24.9196 159.69 20.4496 160.919 19.5796 157.759C19.4096 157.149 19.3096 156.12 19.8896 155.74C19.8896 155.74 18.8196 155.49 18.3896 154.81C18.0996 154.34 18.1696 153.44 18.8396 153.2C18.8396 153.2 16.6596 151.89 18.2996 150.19C19.1096 149.36 20.2196 149.91 20.2196 149.91C20.2196 149.91 18.7596 148.19 19.6396 147.08C20.7296 145.7 21.4496 146.5 22.0396 147.14Z" fill="#168746"/>
<path d="M41.1896 143.71C41.1896 143.71 40.0296 140.87 38.0196 142.39C36.0096 143.91 37.4996 142.6 35.0096 143.07C31.3096 143.78 32.6596 146.78 32.6596 146.78C32.6596 146.78 31.1796 146.83 30.4896 148.19C29.7996 149.55 31.9896 152.04 31.9896 152.04C31.9896 152.04 30.4796 152.66 30.3096 153.78C30.1396 154.9 33.1696 156.24 33.1696 156.24C33.1696 156.24 32.0496 158 32.5396 158.91C33.0296 159.82 34.6496 159.51 35.0296 159.74C35.4096 159.97 45.7796 158.61 45.7796 158.61C45.7796 158.61 47.2296 157.7 47.3296 156.95C47.3996 156.44 46.0296 156.15 46.3696 155.64C47.5396 153.85 49.6796 152.25 47.5096 151.63C46.3296 151.29 49.1396 150.4 48.4896 149.18C47.8396 147.96 46.2896 147.87 47.0496 146.51C47.5896 145.52 47.4496 144.56 45.5096 144.33C43.5696 144.1 43.8696 144.92 43.3896 144.7C42.9096 144.48 42.8396 142.41 41.2096 143.7L41.1896 143.71Z" fill="#008039"/>
<path d="M8.55945 155.59C8.48945 155.85 8.36945 156.1 8.19945 156.35C7.77945 157.01 7.09945 157.62 6.39945 158.12C6.06945 158.36 5.73945 158.58 5.42945 158.77C4.62945 159.26 3.94945 159.6 3.77945 159.69C3.73945 159.71 3.69945 159.73 3.65945 159.73C3.52945 159.78 3.39945 159.78 3.24945 159.75H3.23945C2.77945 159.67 2.21945 159.38 1.48945 159.62C1.16945 159.73 0.829453 159.71 0.499453 159.61C0.479453 159.61 0.459453 159.6 0.439453 159.59V151.09C0.669453 150.89 0.989453 150.78 1.38945 150.83C1.88945 150.9 2.17945 151.07 2.35945 151.26C2.63945 151.56 2.61945 151.9 2.61945 151.9C2.61945 151.9 2.55945 152.21 2.66945 152.34C2.70945 152.41 2.79945 152.44 2.94945 152.38C3.00945 152.36 3.05945 152.31 3.10945 152.24C3.46945 151.77 3.71945 150.44 4.68945 151.02C4.95945 151.19 5.10945 151.34 5.16945 151.47C5.22945 151.58 5.23945 151.68 5.22945 151.76C5.21945 152.02 5.05945 152.22 5.42945 152.39C6.10945 152.71 6.14945 151.6 6.87945 151.96C7.61945 152.32 7.38945 152.88 7.48945 153.17C7.59945 153.46 7.68945 153.34 7.98945 153.65C8.60945 154.3 8.73945 154.96 8.55945 155.59Z" fill="#00633D"/>
<path d="M60.9794 157.839C62.5894 158.079 63.3094 157.399 63.3094 157.399C62.0694 157.419 59.7594 155.35 59.7594 155.35C61.0594 155.64 62.0594 155.089 62.0594 155.089C60.3294 154.819 59.3994 153.35 59.3994 153.35C60.5394 153.59 61.5894 152.91 61.5894 152.91C60.1694 152.76 58.8194 151.07 58.8194 151.07C59.7694 151.63 60.9694 151.07 60.9694 151.07C59.3394 150.87 58.1894 148.66 58.1894 148.66C59.1894 149.33 60.1894 148.35 60.1894 148.35C58.1894 148.66 57.4594 145.229 57.4594 145.229C57.4594 145.229 56.7194 148.66 54.7294 148.35C54.7294 148.35 55.7294 149.32 56.7294 148.66C56.7294 148.66 55.5694 150.86 53.9494 151.07C53.9494 151.07 55.1594 151.63 56.0994 151.07C56.0994 151.07 54.7494 152.76 53.3294 152.91C53.3294 152.91 54.3794 153.59 55.5194 153.35C55.5194 153.35 54.5994 154.809 52.8594 155.089C52.8594 155.089 53.8594 155.64 55.1594 155.35C55.1594 155.35 52.8494 157.419 51.6094 157.399C51.6094 157.399 52.3294 158.079 53.9394 157.839C53.9394 157.839 52.2594 159.229 50.6094 159.429C50.6094 159.429 52.2794 160.199 53.6094 159.899C54.9394 159.599 55.0594 159.449 55.0594 159.449C55.0594 159.449 55.2694 159.74 55.0994 160.13C54.9294 160.52 54.7294 160.71 54.7294 160.71C54.7294 160.71 55.6794 160.559 56.4094 160.199C56.9794 159.909 57.1094 159.57 57.2894 159.52C57.6194 159.89 57.6994 159.979 58.2194 160.199C58.9894 160.529 60.3194 160.549 60.3194 160.549C60.3194 160.549 59.9394 160.199 59.7194 159.949C59.4694 159.659 59.4194 159.359 59.4194 159.359C59.4194 159.359 60.5794 159.77 61.4794 159.82C62.3794 159.87 64.3094 159.229 64.3094 159.229C62.6594 159.029 60.9794 157.85 60.9794 157.85V157.839Z" fill="#005937"/>
<path d="M25.3791 154.509C25.3791 154.509 23.8991 150.519 26.6991 150.699C27.8591 150.769 27.7091 153.009 28.0791 151.309C28.3591 150.039 29.7191 148.259 31.2091 149.349C32.6991 150.439 32.0591 151.619 32.0591 151.619C32.0591 151.619 31.4791 152.449 32.1691 152.499C32.8591 152.549 34.2391 150.129 35.1891 151.779C36.1391 153.429 34.6091 153.269 35.2391 154.149C35.8691 155.029 36.6191 153.529 37.3091 154.509C37.9991 155.489 37.3591 156.109 37.3091 156.579C37.2591 157.049 37.2591 157.039 37.6291 157.559C37.9991 158.079 35.3491 160.399 34.4491 160.449C33.5491 160.499 28.4291 160.039 26.9291 159.819C24.5191 159.469 22.4691 156.319 25.3791 154.519V154.509Z" fill="#007534"/>
<path d="M178.719 139.44C178.719 139.44 179.259 135.49 181.929 136.85C184.589 138.21 182.719 137.73 185.499 136.85C188.279 135.97 189.549 137.67 188.829 138.79C188.109 139.91 186.049 140.29 187.079 141.25C188.109 142.21 190.039 141.97 191.189 143.51C192.339 145.05 191.429 146.16 191.309 147.4C191.189 148.64 192.399 149.23 192.879 150.61C193.359 151.99 193.609 153.35 191.669 153.94C189.729 154.53 189.799 156.47 189.489 157.77C189.179 159.07 186.889 159.13 186.529 159.54C186.169 159.95 177.589 159.73 177.589 159.73C177.589 159.73 175.719 158.99 175.399 158.07C175.179 157.44 176.639 156.68 176.129 156.13C174.339 154.19 171.509 152.77 173.769 151.36C174.999 150.59 171.609 150.26 172.019 148.53C172.429 146.8 174.139 146.23 172.929 144.71C172.059 143.61 171.959 142.34 174.079 141.49C176.199 140.64 176.079 141.76 176.559 141.35C177.039 140.94 176.559 138.28 178.739 139.46L178.719 139.44Z" fill="#008C3E"/>
<path d="M166.16 158.65C166.16 158.65 161.68 154.19 165.06 153.2C165.06 153.2 163.8 147.93 167.03 148.15C167.03 148.15 165.2 143.17 168.32 143.63C171.44 144.09 171.52 145.47 171.52 145.47C171.52 145.47 171.91 141.72 174.43 143.33C176.95 144.94 175.38 146.92 175.38 146.92C175.38 146.92 178.22 145.03 179.78 148.16C181.34 151.29 177.58 150.79 177.58 150.79C177.58 150.79 180.96 150.97 179.62 153.2C178.28 155.43 176.63 155.04 176.63 155.04C176.63 155.04 179.75 155.94 178.6 157.73C177.45 159.52 175.69 160.42 173.57 159.27C171.45 158.12 166.18 158.66 166.18 158.66L166.16 158.65Z" fill="#00692E"/>
<path d="M200.44 155.15V160.88H45.3301C45.3301 160.88 49.2201 160.64 55.1101 160.07C55.6801 160.02 56.2601 159.96 56.8601 159.89C57.0901 159.87 57.3301 159.85 57.5701 159.82C58.1901 159.76 58.8401 159.69 59.5001 159.62H59.5101C59.7001 159.59 59.8801 159.57 60.0701 159.55C60.1701 159.54 60.2701 159.53 60.3701 159.52H60.3801C61.4801 159.39 62.6101 159.26 63.7801 159.12C64.3301 159.05 64.8901 158.98 65.4601 158.92H65.4901C67.2901 158.68 69.1501 158.43 71.0401 158.16C71.3901 158.11 71.8101 158.06 72.3001 158.01C73.9501 157.84 76.3201 157.68 79.3001 157.52H79.3101C79.9801 157.49 80.6801 157.46 81.4001 157.42C82.9401 157.35 84.6101 157.28 86.3901 157.21C88.3801 157.13 90.5001 157.06 92.7501 156.99C94.9201 156.92 97.2001 156.85 99.5801 156.78C100.16 156.76 100.75 156.75 101.35 156.73C102.84 156.69 104.36 156.65 105.92 156.61C107.19 156.58 108.49 156.55 109.8 156.52C110.56 156.5 111.33 156.48 112.11 156.47C112.75 156.45 113.39 156.44 114.03 156.42H114.04C115.31 156.39 116.58 156.37 117.86 156.34C121.41 156.27 125.03 156.19 128.67 156.13C129.46 156.11 130.25 156.1 131.04 156.08C131.55 156.07 132.05 156.06 132.56 156.06C132.85 156.05 133.14 156.05 133.43 156.04C134.06 156.04 134.68 156.02 135.31 156.01C135.48 156 135.66 156 135.83 156C140.13 155.92 144.44 155.85 148.67 155.79C150.23 155.77 151.78 155.74 153.31 155.72C153.42 155.72 153.52 155.72 153.62 155.71H153.63C156.23 155.68 158.78 155.64 161.27 155.6C162.19 155.6 163.09 155.58 163.99 155.57C166.74 155.53 169.4 155.49 171.95 155.46C173.13 155.45 174.28 155.43 175.41 155.42C176.12 155.41 176.82 155.4 177.5 155.4H177.51C180.23 155.36 182.78 155.33 185.12 155.3C186.9 155.28 188.57 155.27 190.09 155.25C195.48 155.19 199.18 155.16 200.43 155.15H200.44Z" fill="#9BC780"/>
<path d="M200.439 159.24V163H0.439453V158.76H0.899453L5.42945 158.77L7.19945 158.78H7.20945L11.4895 158.79H12.2895L15.7095 158.8H19.2995L19.6095 158.81H22.4495L24.9395 158.82L28.5095 158.83H28.5195L32.4895 158.84L36.8595 158.85H36.8695L43.8595 158.86H43.8895L46.2995 158.87H48.2295L51.5795 158.88H52.3095L59.2995 158.9H59.3095L63.0695 158.91L65.4695 158.92H65.4995L72.7295 158.93L78.7295 158.95H78.7395L82.6295 158.96H85.3195L86.4495 158.97H87.4995L92.5195 158.98H92.5395L96.4295 158.99H97.5294L100.529 159H100.989L102.819 159.01H105.799L106.079 159.02H109.799L112.649 159.03H114.289L116.449 159.04H116.509L132.329 159.08H132.379L137.299 159.09H137.309L147.369 159.12H148.789L154.189 159.13H154.199L158.369 159.14H158.379L165.849 159.16H168.889L173.359 159.17H173.369L176.509 159.18H177.239L187.239 159.21H187.259L197.089 159.23L200.279 159.24H200.439Z" fill="#8FB876"/>
<path d="M200.439 162.31V163.68H0.439453V161.7C0.989453 161.85 1.55945 162.03 1.80945 162.13C3.01945 162.64 6.64945 162.71 9.40945 162.13C12.1495 161.57 12.2095 161.75 14.5795 162.22C16.9395 162.71 18.3395 162.44 20.6295 162.16C22.9295 161.88 21.9695 161.17 24.8395 161.78C27.7195 162.39 30.7795 161.64 31.0295 161.93C31.2895 162.22 32.4995 163 34.7895 162.04C35.3595 161.8 35.8595 161.6 36.3195 161.45C37.6495 161.01 38.6895 160.95 40.2495 161.45C40.3395 161.48 40.4395 161.51 40.5395 161.54C42.8295 162.32 42.1895 162.12 44.8095 161.93C47.4295 161.75 48.1895 161.57 50.6695 161.76C53.1595 161.94 58.1495 161.67 59.2995 161.71C60.4495 161.76 62.0495 162.37 65.6095 162.54C69.1795 162.71 66.6995 163.34 72.3795 162.64C78.0595 161.94 76.8395 161.03 81.4395 161.71C86.0395 162.39 85.8395 162.51 89.2395 162.45C92.6195 162.39 92.4895 162.45 95.3495 162.32C96.5895 162.27 98.2595 162.26 99.8795 162.26C100.249 162.26 100.619 162.26 100.979 162.27H102.039C102.129 162.27 102.219 162.27 102.309 162.27C103.449 162.27 104.399 162.27 104.929 162.26C105.229 162.25 105.499 162.24 105.769 162.22C105.859 162.22 105.939 162.22 106.019 162.22C106.129 162.21 106.229 162.2 106.329 162.2C106.429 162.19 106.529 162.18 106.629 162.18C107.109 162.15 107.609 162.11 108.189 162.08C108.579 162.06 109.019 162.03 109.509 162.01C111.559 161.93 110.509 161.53 112.939 162.33C115.359 163.14 120.379 162.97 123.689 162.08C123.789 162.05 123.879 162.03 123.979 162.01C124.399 161.9 124.779 161.81 125.149 161.73C125.349 161.69 125.529 161.66 125.719 161.63C126.139 161.55 126.539 161.5 126.949 161.46C128.519 161.32 130.139 161.39 133.069 161.39C136.849 161.39 137.839 161.27 139.589 161.46C140.059 161.51 140.579 161.59 141.229 161.7C142.739 161.95 145.579 162.17 148.259 162.27C151.019 162.38 153.589 162.37 154.369 162.14C155.899 161.7 158.069 161.7 163.059 161.89C168.029 162.08 166.699 162.59 170.969 162.4C174.049 162.27 175.609 161.69 176.839 161.46C177.319 161.37 177.739 161.33 178.189 161.39C178.329 161.41 178.469 161.43 178.629 161.46C180.229 161.77 182.669 162.69 186.289 162.4C190.249 162.08 189.929 161.26 193.569 161.82C197.209 162.4 196.249 162.91 199.559 162.4C199.869 162.36 200.139 162.33 200.379 162.32L200.439 162.31Z" fill="#6C966B"/>
<path d="M132.79 9.59033C132.79 9.59033 113.1 7.02033 114.31 19.0203C114.31 19.0203 100.67 17.4303 97.4195 29.1403C95.1495 37.3203 91.8495 32.4203 88.6295 34.4703C86.6195 35.7403 86.8695 39.5603 88.5895 40.6003C88.5895 40.6003 84.2095 43.8303 86.9095 47.6703C89.6095 51.5203 95.4995 50.4803 96.9295 46.9303C96.9295 46.9303 103.42 55.9403 112.16 48.9003C112.16 48.9003 118 55.6503 125.83 45.8803C125.83 45.8803 132.98 52.1903 142.1 44.8303C142.1 44.8303 151.14 52.7503 158.85 41.5303C158.85 41.5303 166.13 56.6403 173.38 45.7903C173.38 45.7903 184.89 48.0103 188.25 40.0403C193.55 27.4603 181.72 21.7203 178.37 23.2603C178.37 23.2603 178.88 9.52033 170.54 11.0303C162.19 12.5403 158.97 22.1203 156.2 15.3903C151.88 4.91033 144.9 11.5603 144.9 11.5603C144.9 11.5603 145.29 7.02033 139.9 6.13033C135.7 5.44033 134.06 7.81033 132.79 9.60033V9.59033Z" fill="white"/>
<path d="M179.26 36.1808C179.05 37.0608 178.56 37.7908 177.89 38.3508C177.96 38.1808 178.01 37.9908 178.06 37.8008C179.14 33.1508 174.43 31.8208 174.43 31.8208C174.43 31.8208 178.38 28.3408 175.64 25.7108C172.41 22.6208 168.33 26.8508 167.54 27.7508C168.02 26.8408 167.47 22.6808 164 21.2808C158.14 18.9308 155.95 24.2408 155.95 24.2408C155.95 24.2408 155.05 19.4808 149.24 18.9908C140.39 18.2608 142.42 23.9108 142.42 23.9108C140.78 23.1808 136.34 23.8208 135.71 28.0408C135.71 28.1208 135.69 28.1908 135.68 28.2708C135.6 27.7308 135.6 27.1208 135.71 26.4208C136.36 22.2008 139.74 21.9508 141.42 22.6808C141.42 22.6808 140.52 16.6408 149.62 17.3708C155.61 17.8508 156.53 22.6208 156.53 22.6208C156.53 22.6208 158.75 17.4008 164.81 19.6608C168.24 20.9308 168.95 25.3408 168.42 26.1708C169.12 25.4708 173.02 21.8708 176.62 24.7208C180.59 27.8508 175.66 31.4708 175.66 31.4708C175.66 31.4708 180.39 31.5308 179.28 36.1708L179.26 36.1808Z" fill="#E6FAFF"/>
<path d="M131.71 29.6206C131.89 30.3806 131.48 31.6706 131.39 32.3706C131.33 32.2206 131.59 31.4106 131.34 30.5006C130.28 26.4906 126.32 28.5706 126.32 28.5706C126.32 28.5706 126.15 25.3306 123.12 24.8406C119.54 24.2606 119.5 29.0606 119.53 30.0406C119.31 29.2006 116.7 26.6206 113.91 27.3106C109.2 28.4706 110.85 33.1106 110.85 33.1106C110.85 33.1106 107.71 30.2906 104.05 32.7006C98.4997 36.3706 102.79 39.2606 102.79 39.2606C101.43 39.5406 99.1997 42.0606 101.16 45.2306C101.2 45.2906 101.23 45.3406 101.27 45.4006C100.93 45.0706 100.59 44.6506 100.27 44.1306C98.3197 40.9506 100.16 39.1906 101.53 38.8906C101.53 38.8906 97.6797 35.2006 103.38 31.4206C107.13 28.9306 110.29 31.7406 110.29 31.7406C110.29 31.7406 108.7 27.1406 113.48 25.8306C116.18 25.0806 119.02 27.7506 119.17 28.5706C119.19 27.7706 119.48 23.4806 123.14 23.7206C127.18 23.9806 126.84 27.7806 126.84 27.7806C126.84 27.7806 130.74 25.5206 131.71 29.6406V29.6206Z" fill="#E6FAFF"/>
<path d="M41.23 56.23C40.1 57.61 38.7 58.13 38.7 58.13C38.7 58.13 42.44 61.39 37.8 64.78C28.81 71.37 22.91 65.83 22.91 65.83C22.91 65.83 22.62 67.57 21.01 69.34C19.36 71.17 16.33 73.04 10.8 73.09C6.09996 73.13 0.659961 72.69 1.97996 68.91C1.97996 68.91 1.39996 69.26 0.459961 69.72V44.74C1.93996 43.54 4.19996 42.48 7.70996 42.03C13.12 41.33 13.96 44.18 13.96 44.18C13.96 44.18 15.32 40.92 21.05 41.1C26.8 41.28 26.56 45.29 26.56 45.29C26.56 45.29 35.85 36.86 40.9 46.15C43.72 51.35 42.71 54.48 41.25 56.22L41.23 56.23Z" fill="white"/>
<path d="M27.3096 54.2199C27.3096 54.2199 27.3396 54.1799 27.4096 54.1199C27.3896 54.1699 27.3396 54.2099 27.3096 54.2199Z" fill="#E6FAFF"/>
<path d="M36.0103 61.44C35.6903 62.59 34.7402 63.4 33.6002 63.73C34.4402 63.33 35.1003 62.67 35.3503 61.78C36.3303 58.41 32.4302 58.02 32.4302 58.02C32.4302 58.02 36.1302 55.41 33.6602 53.3C31.1102 51.12 28.1102 53.51 27.4402 54.09C27.8302 53.42 27.5002 50.36 24.8402 49.25C20.3402 47.36 18.4902 51.18 18.4902 51.18C18.4902 51.18 17.9202 47.66 13.3902 47.14C6.52025 46.33 7.45025 50.62 7.45025 50.62C6.19025 50.04 3.20025 50.29 2.59025 53.38C2.49025 53.89 2.47025 54.34 2.51025 54.73C2.30025 54.16 2.24025 53.44 2.41025 52.56C3.04025 49.3 5.68025 49.21 6.96025 49.82C6.96025 49.82 6.44025 45.1 13.5002 45.94C18.1302 46.48 18.7202 50.22 18.7202 50.22C18.7202 50.22 20.6302 46.16 25.2402 48.17C28.0102 49.38 28.3102 52.68 27.8702 53.32C28.4902 52.76 31.5902 50.17 34.2802 52.45C37.2802 55 33.3302 57.67 33.3302 57.67C33.3302 57.67 37.0003 57.85 36.0003 61.43L36.0103 61.44Z" fill="#E6FAFF"/>
<path d="M27.4203 54.1104C27.4003 54.1604 27.3503 54.2004 27.3203 54.2104C27.3203 54.2104 27.3503 54.1704 27.4203 54.1104Z" fill="#ADEFFF"/>
<path d="M55.6494 83.7504C55.6494 83.7504 57.2494 78.2404 66.3894 79.6804C71.3394 80.4604 71.3394 83.1904 71.3394 83.1904C71.3394 83.1904 73.3894 80.6804 78.3894 82.3104C83.3894 83.9404 82.1594 87.4204 82.1594 87.4204C82.1594 87.4204 92.5294 82.4004 94.5794 91.8904C96.6294 101.38 89.5594 101.89 89.5594 101.89C89.5594 101.89 92.0194 105.72 87.0494 107.51C77.4194 110.98 73.6594 104.59 73.6594 104.59C73.6594 104.59 70.7294 110.59 61.0994 107.86C56.9394 106.68 52.2594 104.89 54.3994 101.89C54.3994 101.89 42.5394 104.99 41.8394 97.8604C41.6194 95.5704 44.2094 93.8004 44.2094 93.8004C44.2094 93.8004 38.3394 91.6904 43.5294 85.7804C49.0194 79.5304 54.6194 83.3704 55.6494 83.7604V83.7504Z" fill="white"/>
<path d="M85.4696 94.2504C85.4696 94.2504 87.4196 90.2004 80.8596 88.7204C76.5396 87.7504 74.8496 90.9004 74.8496 90.9004C74.8496 90.9004 74.4296 86.6704 69.6696 87.0104C66.6196 87.2304 65.3296 90.5004 65.7596 90.9104C65.7596 90.9104 63.7296 86.6504 60.2496 87.9904C56.7596 89.3304 59.4496 92.9504 59.4496 92.9504C59.4496 92.9504 56.1096 91.9604 55.8796 95.4704C55.6996 98.1304 59.2396 100.21 62.1196 98.2804C62.1196 98.2804 64.1596 105.08 70.5796 101.19C70.5796 101.19 70.6596 103.77 73.6196 104.22C74.4996 104.36 76.5796 104.47 76.9396 102.58C76.9396 102.58 77.8396 104.83 80.7096 104.82C82.9396 104.82 85.4696 103.14 84.2996 101.05C84.2996 101.05 88.0996 102.03 88.6896 98.1304C89.1596 95.0204 86.8296 94.1104 85.4896 94.2504H85.4696Z" fill="#E6FAFF"/>
<path d="M58.5493 36.84C62.1281 36.84 65.0293 33.9657 65.0293 30.42C65.0293 26.8743 62.1281 24 58.5493 24C54.9705 24 52.0693 26.8743 52.0693 30.42C52.0693 33.9657 54.9705 36.84 58.5493 36.84Z" fill="#FFFF73"/>
<path d="M58.9991 12.7901L58.5591 25.1601L58.1191 12.7901C58.1191 12.1901 59.0091 12.1901 59.0091 12.7901H58.9991Z" fill="#FFFF73"/>
<path d="M48.4391 15.9001L55.4291 26.1601L47.7291 16.4101C47.3691 15.9301 48.0991 15.4101 48.4491 15.8901L48.4391 15.9001Z" fill="#FFFF73"/>
<path d="M41.739 24.5605L53.489 28.8005L41.469 25.4005C40.899 25.2205 41.169 24.3705 41.739 24.5705V24.5605Z" fill="#FFFF73"/>
<path d="M41.4694 35.4501L53.4894 32.05L41.7394 36.2901C41.1694 36.4801 40.8894 35.63 41.4694 35.46V35.4501Z" fill="#FFFF73"/>
<path d="M47.7195 44.4302L55.4195 34.6802L48.4295 44.9402C48.0795 45.4302 47.3495 44.9002 47.7095 44.4202L47.7195 44.4302Z" fill="#FFFF73"/>
<path d="M58.1096 48.0597L58.5496 35.6897L58.9896 48.0597C58.9896 48.6597 58.0996 48.6597 58.0996 48.0597H58.1096Z" fill="#FFFF73"/>
<path d="M68.6697 44.9497L61.6797 34.6897L69.3797 44.4397C69.7397 44.9197 69.0097 45.4397 68.6597 44.9597L68.6697 44.9497Z" fill="#FFFF73"/>
<path d="M75.3594 36.2901L63.6094 32.05L75.6294 35.4501C76.1994 35.6301 75.9294 36.48 75.3594 36.28V36.2901Z" fill="#FFFF73"/>
<path d="M75.6391 25.39L63.6191 28.79L75.3691 24.55C75.9391 24.36 76.2191 25.21 75.6391 25.38V25.39Z" fill="#FFFF73"/>
<path d="M69.3895 16.4105L61.6895 26.1605L68.6795 15.9005C69.0295 15.4105 69.7595 15.9405 69.3995 16.4205L69.3895 16.4105Z" fill="#FFFF73"/>
<path d="M69.7093 23.1904C69.7093 23.1904 67.9693 24.2904 66.1193 25.4504C64.0393 26.7604 61.8193 28.1604 61.8193 28.1604L69.2093 22.4804C69.6993 22.1204 70.2293 22.8604 69.7193 23.2004L69.7093 23.1904Z" fill="#FFFF73"/>
<path d="M63.2796 18.0798C63.2796 18.0798 62.5196 19.9798 61.7196 21.9998C60.8096 24.2698 59.8496 26.6898 59.8496 26.6898L62.4496 17.7898C62.6296 17.2098 63.4996 17.5098 63.2896 18.0698L63.2796 18.0798Z" fill="#FFFF73"/>
<path d="M55.0498 17.6898C55.0498 17.6898 55.5698 19.6698 56.1098 21.7698C56.7298 24.1398 57.3798 26.6598 57.3798 26.6598L54.1998 17.9498C54.0098 17.3798 54.8798 17.1098 55.0498 17.6898Z" fill="#FFFF73"/>
<path d="M48.1495 22.1602C48.1495 22.1602 49.7395 23.4602 51.4295 24.8402C53.3295 26.4002 55.3595 28.0502 55.3595 28.0502L47.6195 22.8502C47.1195 22.5002 47.6695 21.7702 48.1495 22.1502V22.1602Z" fill="#FFFF73"/>
<path d="M45.2291 29.7901C45.2291 29.7901 47.3791 29.9201 49.6191 30.0601C52.0391 30.2101 54.5691 30.3601 54.5691 30.3601L45.2191 30.6601C44.6091 30.6601 44.6191 29.7601 45.2291 29.7801V29.7901Z" fill="#FFFF73"/>
<path d="M47.3993 37.6597C47.3993 37.6597 49.1393 36.5597 50.9893 35.3997C53.0693 34.0897 55.2893 32.6897 55.2893 32.6897L47.8993 38.3697C47.4093 38.7297 46.8793 37.9897 47.3893 37.6497L47.3993 37.6597Z" fill="#FFFF73"/>
<path d="M53.8296 42.7597C53.8296 42.7597 54.5896 40.8597 55.3896 38.8397C56.2996 36.5697 57.2596 34.1497 57.2596 34.1497L54.6596 43.0497C54.4796 43.6297 53.6096 43.3297 53.8196 42.7697L53.8296 42.7597Z" fill="#FFFF73"/>
<path d="M62.0595 43.1597C62.0595 43.1597 61.5395 41.1797 60.9995 39.0797C60.3795 36.7097 59.7295 34.1897 59.7295 34.1897L62.9095 42.8997C63.0995 43.4697 62.2295 43.7397 62.0595 43.1597Z" fill="#FFFF73"/>
<path d="M68.9493 38.68C68.9493 38.68 67.3593 37.38 65.6693 36C63.7693 34.44 61.7393 32.79 61.7393 32.79L69.4793 37.99C69.9793 38.34 69.4293 39.07 68.9493 38.69V38.68Z" fill="#FFFF73"/>
<path d="M71.8693 31.0597C71.8693 31.0597 69.7193 30.9297 67.4793 30.7897C65.0593 30.6397 62.5293 30.4897 62.5293 30.4897L71.8793 30.1897C72.4893 30.1897 72.4793 31.0897 71.8693 31.0697V31.0597Z" fill="#FFFF73"/>
<path d="M133.01 170.61C124.82 171.52 37.6497 170.19 34.1497 174.92C32.9897 176.49 91.2197 179.42 71.0897 179.51C50.9497 179.6 56.9897 180.61 44.0197 181.61C31.0597 182.61 35.6897 180.62 21.1897 179.8C12.0897 179.28 5.41969 180.58 0.429688 180.56V168.63L5.34969 168.92C5.34969 168.92 115.96 167.71 126.69 167.38C137.42 167.05 141.19 169.7 133 170.61H133.01Z" fill="#37B0BD"/>
<path d="M200.44 189.67V200H102.16C103.16 199.49 104.41 198.86 106.57 198.47C113.03 197.29 131.76 197.78 141.8 197.97C151.85 198.17 150.32 193.76 157.46 192.09C163.24 190.75 190.35 189.96 200.43 189.68L200.44 189.67Z" fill="#37B0BD"/>
<path d="M48.5695 158.76C48.5695 158.76 48.4395 158.85 48.2295 158.87C46.9795 159.04 42.6695 158.88 42.2695 159.06C41.7995 159.27 37.1195 159.06 37.1195 159.06C37.1195 159.06 33.8395 159.32 33.2495 159.32C32.6595 159.32 30.3495 159.32 28.9095 159.36C27.4595 159.4 20.9495 159.42 19.9895 159.64C19.0295 159.87 14.0595 160.25 13.0795 160C12.0995 159.74 12.5695 159.74 10.8595 160.04C9.15945 160.34 8.43945 160.47 7.49945 160.13C6.56945 159.79 5.43945 159.71 4.60945 159.7C4.27945 159.7 3.97945 159.71 3.65945 159.73C3.52945 159.74 3.38945 159.75 3.24945 159.75H3.23945C2.86945 159.78 2.45945 159.79 1.96945 159.78C1.41945 159.76 0.869453 159.73 0.439453 159.7V158.67C0.579453 158.67 0.719453 158.7 0.899453 158.76C0.899453 158.76 2.17945 156.76 3.83945 157.36C5.49945 157.96 4.56945 155.24 5.79945 155.66C7.02945 156.08 8.36945 155.24 8.19945 156.35C8.00945 157.49 7.75945 157.87 8.81945 157.87C9.87945 157.87 9.24945 158.55 11.1195 157.66C12.9895 156.76 12.9095 155.83 13.6295 156.93C14.3495 158.04 14.0995 158.25 14.6095 158.51C15.1195 158.76 17.1695 158.18 17.1695 158.18C17.1695 158.18 18.6695 157.62 19.4895 158.34C20.3095 159.06 21.6695 158.13 22.2295 157.96C22.7795 157.79 25.8795 157.4 26.9495 158.21C28.0095 159.02 28.7795 159.02 30.5695 158.13C32.3495 157.23 32.9795 155.19 34.5795 156.3C36.1795 157.4 36.1395 157.45 36.9495 158.13C37.7595 158.81 41.8395 157.57 41.8395 157.57C41.8395 157.57 43.8795 156.21 44.3495 157.21C44.8195 158.21 46.0595 158 46.0595 158C46.0595 158 47.1995 155.83 47.7995 156.98C48.3995 158.13 48.5795 158.41 48.5695 158.76Z" fill="#00692E"/>
<path d="M200.439 76.7099V113.92C198.819 114.29 196.869 114.26 194.489 113.62C182.049 110.26 186.419 101.67 177.519 107.81C168.609 113.94 159.699 111.5 160.459 106.12C160.459 106.12 151.299 111.11 148.009 103.19C145.239 96.5199 150.549 94.4299 150.549 94.4299C150.549 94.4299 147.519 93.7699 148.359 89.9899C148.999 87.1199 151.469 86.0399 153.229 86.9699C153.229 86.9699 152.389 76.2099 163.059 75.5399C169.199 75.1499 173.009 80.7799 173.009 80.7799C173.009 80.7799 173.879 76.8599 178.189 74.8699C183.069 72.6099 189.759 74.1099 191.599 78.9899C191.599 78.9899 195.929 75.8799 200.439 76.7099Z" fill="white"/>
<path d="M184.589 90.9197C184.849 91.9497 184.539 92.9697 183.909 93.6897C184.309 93.0397 184.479 92.2497 184.289 91.4497C183.569 88.3997 180.789 89.6797 180.789 89.6797C180.789 89.6797 182.209 86.1297 179.689 85.4697C177.089 84.7897 176.039 87.8797 175.829 88.5997C175.819 87.9197 174.349 85.6397 172.099 85.8397C168.299 86.1697 168.619 89.9297 168.619 89.9297C168.619 89.9297 166.789 87.3897 163.539 88.8197C158.589 90.9597 160.979 93.9597 160.979 93.9597C159.899 94.0097 157.989 95.4197 158.849 98.0897C158.989 98.5297 159.159 98.8997 159.349 99.1797C158.979 98.8197 158.639 98.2797 158.399 97.5197C157.489 94.6997 159.219 93.5597 160.339 93.5297C160.339 93.5297 158.059 90.0297 163.149 87.8397C166.479 86.3897 168.409 89.0897 168.409 89.0897C168.409 89.0897 168.029 85.1197 171.949 84.8397C174.299 84.6697 175.859 87.1497 175.819 87.8197C176.009 87.1297 177.029 83.8397 179.769 84.5497C182.829 85.3397 181.269 89.0397 181.269 89.0397C181.269 89.0397 183.809 87.6997 184.599 90.9197H184.589Z" fill="#E6FAFF"/>
<path d="M52.4101 174.92V177.94H52.3701L43.0801 178.35L52.2801 174.97L52.4101 174.92Z" fill="#78A194"/>
<path d="M63.9802 174.02V177.43L52.4102 177.94V174.92L63.9802 174.02Z" fill="#8AB8AA"/>
<path d="M128.49 173.49C109.27 175.81 55.3304 180.37 54.4404 177.27C54.4404 177.27 54.6304 177.2 54.9704 177.06H54.9904C54.9904 177.06 54.9904 177.06 55.0104 177.04C55.0104 177.04 55.0204 177.05 55.0304 177.04C57.0504 176.25 63.9204 173.61 69.7204 171.81H69.7304C72.1204 171.07 74.3404 170.46 75.9404 170.19H75.9504C76.1804 170.16 76.3804 170.12 76.5804 170.1C79.9604 169.68 98.4604 170.25 113.8 170.95C115.54 171.03 117.23 171.11 118.85 171.2C127.3 171.62 133.94 172.06 135.09 172.34C135.74 172.5 133.12 172.93 128.48 173.49H128.49Z" fill="#F2FFF8"/>
<path d="M151.8 171.67L151.16 174.56L148.86 184.86L148.66 185.77L148.47 186.63L148.31 187.33L44.4801 187.93L44.2901 186.63L44.0301 184.88L43.4201 180.71L43.0801 178.35C43.0801 178.35 46.7001 178 52.0201 177.5C65.4301 176.23 89.6601 173.98 93.9101 173.88C101.29 173.71 151.8 171.67 151.8 171.67Z" fill="white"/>
<path d="M111.18 172.36V172.93L101.38 173.22L101.99 171.91L111.18 172.36Z" fill="#5A72AD"/>
<path d="M99.0196 171.91L98.1596 173.22L89.3496 173.48L90.7596 171.91H99.0196Z" fill="#5A72AD"/>
<path d="M86.5396 173.221V172.331C86.5396 172.331 84.2896 171.321 82.3896 172.331V173.221C82.3896 173.221 84.1797 174.181 86.5396 173.221Z" fill="#5A72AD"/>
<path d="M79.8102 173.22V172.33C79.8102 172.33 77.7402 171.3 75.6602 172.33V173.22C75.6602 173.22 77.2202 174.25 79.8102 173.22Z" fill="#5A72AD"/>
<path d="M66.0504 181.151V180.261C66.0504 180.261 63.9804 179.231 61.9004 180.261V181.151C61.9004 181.151 63.4604 182.181 66.0504 181.151Z" fill="#445682"/>
<path d="M111.18 181.151V180.261C111.18 180.261 109.11 179.231 107.03 180.261V181.151C107.03 181.151 108.59 182.181 111.18 181.151Z" fill="#445682"/>
<path d="M106.59 18.1602L105.82 157.2L80.0097 153.51C80.0097 153.51 79.9997 153.5 79.9897 153.5L61.4697 150.85C64.1397 146.26 68.4497 135.18 73.3697 121.26C73.3797 121.24 73.3797 121.23 73.3797 121.23C87.4797 81.3302 106.59 18.1602 106.59 18.1602Z" fill="#FFF785"/>
<path d="M75.9998 170.181C75.7698 170.421 75.5998 170.821 75.5198 171.031C75.4798 171.031 75.4598 171.041 75.4398 171.051C74.2998 171.591 56.7198 176.561 55.0898 177.021C57.1798 176.201 63.9698 173.591 69.7198 171.811H69.7298C72.1198 171.071 74.3398 170.461 75.9398 170.191H75.9498C75.9498 170.191 75.9798 170.191 75.9998 170.181Z" fill="#A3ADC7"/>
<path d="M128.49 173.49C126.45 173.53 124.76 173.33 124.07 172.7C124.07 172.7 111.86 171.42 110.16 171.43C109.67 171.44 106.73 171.36 102.75 171.26L107.34 171.07L107.01 170.66C109.3 170.75 111.58 170.85 113.8 170.95C115.54 171.03 117.23 171.11 118.85 171.2C127.3 171.62 133.94 172.06 135.09 172.34C135.74 172.5 133.12 172.93 128.48 173.49H128.49Z" fill="#D6E2FF"/>
<path d="M148.87 166.95L145.64 172.01C145.64 172.01 145.59 172.08 145.69 172.15C145.79 172.22 145.86 172.15 145.86 172.15L149.09 167.09C149.09 167.09 149.07 166.85 148.87 166.95Z" fill="white"/>
<path d="M149.31 167.41L146.27 172.3C146.27 172.3 146.23 172.37 146.33 172.44C146.43 172.51 146.49 172.44 146.49 172.44L149.53 167.55C149.53 167.55 149.52 167.28 149.31 167.41Z" fill="white"/>
<path d="M145.75 166.371L141.24 172.641C141.24 172.641 141.2 172.721 141.08 172.641C140.96 172.561 141.02 172.481 141.02 172.481L145.53 166.211C145.53 166.211 145.75 166.171 145.74 166.361L145.75 166.371Z" fill="white"/>
<path d="M144.34 165.96L139.53 172.66C139.53 172.66 139.48 172.73 139.58 172.81C139.68 172.89 139.75 172.81 139.75 172.81L144.56 166.11C144.56 166.11 144.56 165.91 144.35 165.96H144.34Z" fill="white"/>
<path d="M118.86 171.2L117.21 171.92L112.38 171.47L113.8 170.95C115.54 171.03 117.23 171.11 118.85 171.2H118.86Z" fill="#5A72AD"/>
<path d="M151.81 171.67L151.17 174.56C142.08 174.57 99.9998 176.18 94.9598 176.59C89.6898 177.01 47.6398 180.37 43.4298 180.71L43.0898 178.35C43.0898 178.35 87.9798 174.02 93.9198 173.88C101.3 173.71 151.81 171.67 151.81 171.67Z" fill="#9BD1B1"/>
<path d="M59.1805 151.52C59.5505 151.52 106.291 157.26 106.291 157.26L106.051 159.25C106.051 159.25 59.5305 153.96 58.9405 153.51C58.6605 153.29 58.5205 152.86 58.5705 152.43C58.6305 151.92 58.8705 151.52 59.1805 151.52Z" fill="#7B9EBA"/>
<path d="M75.9405 170.19C75.2105 170.51 75.0605 171 75.0605 171C75.0605 171 73.4005 171.59 72.0205 171.81C70.7805 172.01 69.7905 171.84 69.7305 171.81C72.1205 171.07 74.3405 170.46 75.9405 170.19Z" fill="#5A72AD"/>
<path d="M148.86 184.86L148.47 186.63H44.2903L44.0303 184.88L44.0403 184.86H148.86Z" fill="#7BBA95"/>
<g style="mix-blend-mode:multiply" opacity="0.26">
<path d="M148.66 185.77L148.47 186.63L148.31 187.33L44.4801 187.93L44.2901 186.63L44.0301 184.88L43.4201 180.71L43.0801 178.35C43.0801 178.35 46.7001 178 52.0201 177.5C52.4701 177.65 66.8901 182.8 89.3501 184.86C113.15 187.03 145.04 186.16 148.66 185.77Z" fill="#7A98E3"/>
</g>
<path d="M94.8205 156.45L106.84 167.75L106.33 168.3L94.3105 157C94.3105 157 94.2205 156.57 94.8205 156.45Z" fill="#6D8DA6"/>
<path d="M107.341 171.07L102.751 171.26H102.631C92.8705 171.02 77.0005 170.66 75.5205 171.03C75.6005 170.82 75.7705 170.42 76.0005 170.18C76.2105 170.15 76.4005 170.12 76.5805 170.1C79.4705 169.74 93.4305 170.11 107.011 170.66L107.341 171.07Z" fill="#B9CBF7"/>
<path d="M108.241 170.72C108.171 170.87 107.791 171.03 107.341 171.07C107.251 171.08 107.151 171.09 107.061 171.09C106.501 171.09 106.021 170.97 105.831 170.65C105.651 170.34 106.311 69.7703 106.551 23.5903L106.581 18.6803C106.641 17.3503 106.401 15.1503 107.011 13.8403C107.021 13.8203 107.031 13.8003 107.041 13.7803C107.681 15.1303 107.431 17.2403 107.491 18.6803L107.521 23.5903C107.771 69.7403 108.311 170.53 108.241 170.72Z" fill="#7B9EBA"/>
<path d="M107.341 171.07C107.251 171.08 107.151 171.09 107.061 171.09C106.501 171.09 106.021 170.97 105.831 170.65C105.651 170.34 106.311 69.7698 106.551 23.5898L106.581 18.6798C106.641 17.3498 106.401 15.1498 107.011 13.8398C106.961 15.2298 106.751 17.4698 106.811 19.3198C106.851 20.7898 106.411 57.7298 106.861 95.6798C107.311 133.63 105.841 168.33 107.341 171.07Z" fill="#6A8AA3"/>
<path opacity="0.38" d="M80.4097 137.351C80.4097 137.351 73.9397 144.981 75.5097 146.651C76.9797 148.201 78.9897 147.891 79.2697 147.841C78.7997 148.061 73.1597 150.831 79.9097 153.461C79.9397 153.461 79.9697 153.481 79.9897 153.501L61.4697 150.851C64.1397 146.261 68.4497 135.181 73.3697 121.261C73.1997 121.911 69.9997 134.001 72.3297 133.131C74.6397 132.261 80.3797 126.041 80.7297 125.661C80.3497 126.331 73.8597 137.671 74.6697 139.691C75.5097 141.771 80.4097 137.351 80.4097 137.351Z" fill="#DED774"/>
<path d="M118.7 109.721C119.14 97.9206 118.52 84.2706 115.98 69.0906C114.62 61.0206 112.73 52.1306 110.82 43.6406C110.96 44.0106 112 46.9306 113.44 51.0206C113.86 52.2206 114.32 53.5206 114.8 54.8806C114.81 54.9006 114.82 54.9306 114.83 54.9506C115.15 55.8906 115.49 56.8606 115.84 57.8506C115.85 57.8706 115.86 57.9006 115.87 57.9306C117.03 61.2606 118.26 64.8206 119.4 68.1606C119.49 68.4406 119.59 68.7306 119.7 69.0406C119.72 69.0906 119.73 69.1506 119.75 69.2106C119.77 69.2606 119.79 69.3306 119.81 69.4106C125.22 85.5506 140.95 137.731 147.2 158.551C148.82 163.951 149.81 167.241 149.81 167.241C149.81 167.241 111.43 158.511 109.36 158.441C109.36 158.441 117.53 140.411 118.69 109.931C118.69 109.931 118.69 109.861 118.7 109.721Z" fill="#FFF785"/>
<path d="M86.5401 116.91C80.8201 125.58 75.0401 134.21 68.9201 142.61C66.7701 145.33 64.9401 148.39 62.1901 150.55L62.0801 150.32C64.7601 148.21 66.6501 145.15 68.7701 142.49C74.9401 134.14 80.7701 125.54 86.5401 116.91Z" fill="#D4CD6E"/>
<path d="M87.35 130.46C83.6 134.44 79.69 138.26 75.59 141.87C71.44 145.38 67.24 149.12 62.07 151.05L62 150.81C67.12 148.94 71.37 145.23 75.51 141.78C79.63 138.2 83.57 134.41 87.35 130.46Z" fill="#D4CD6E"/>
<path d="M86.2897 145.94C78.1897 148.05 70.0797 150.72 61.6797 151.19V150.94C70.0497 150.54 78.1997 147.96 86.2897 145.94Z" fill="#D4CD6E"/>
<path d="M110.151 42.9202C110.081 43.1402 110.761 44.5902 111.071 44.4602C111.381 44.3302 111.271 42.6902 110.981 42.6002C110.691 42.5102 110.221 42.7102 110.161 42.9302L110.151 42.9202Z" fill="#283B69"/>
<path d="M60.2101 151.63C60.2101 151.63 61.1801 151.22 62.0601 149.78C62.0601 149.78 63.3001 150.34 63.2801 151.11C63.2801 151.11 61.6201 151.62 60.7901 151.71C59.9601 151.8 60.2101 151.64 60.2101 151.64V151.63Z" fill="#283B69"/>
<path d="M149.52 166.25L148.92 167.12L149.97 168.7C149.97 168.7 150.34 167.24 149.52 166.25Z" fill="#7B9EBA"/>
<path d="M151.52 171.68L150.05 167.77C150.05 167.77 149.86 168.44 149.97 168.71C150.08 168.98 150.58 171.72 150.58 171.72L151.52 171.68Z" fill="#608AAB"/>
<path d="M107.28 34.0102C107.28 34.2702 107.53 34.5702 107.85 35.1502C108.83 36.9002 110.69 40.5602 110.68 43.5402V43.5902H110.8L110.9 43.5202C110.9 43.5202 109.52 41.0602 109.09 40.1302C108.24 38.2802 107.58 36.8502 107.53 36.6002C107.5 36.4102 107.32 36.5202 107.29 36.6702C107.28 36.7402 107.84 38.2002 108.55 39.6502C109.5 41.5902 110.68 43.6502 110.69 43.6502L110.92 43.9802V43.5802V43.5202C110.92 39.4202 107.55 34.0302 107.48 33.9702C107.41 33.9102 107.26 33.7302 107.26 33.9902L107.28 34.0102Z" fill="#283B69"/>
<path d="M107 14.3506C96.3096 49.1506 85.2097 83.8406 73.2397 118.231C69.6497 128.221 66.2096 138.301 61.7096 147.931C61.0096 149.281 60.3796 150.681 59.3096 151.831L59.1396 151.651C60.1396 150.571 60.7996 149.161 61.4796 147.821C70.7196 127.031 77.3696 105.181 84.6896 83.6706C91.4696 63.7406 100.24 34.2606 107 14.3606V14.3506Z" fill="#D9E4FF"/>
<path d="M107.9 157.601C119.5 160.201 137.3 164.211 148.73 166.811C149.17 166.921 149.4 166.931 149.8 167.201C149.01 167.311 148.13 166.951 147.34 166.831C142.57 165.841 133.68 164.001 128.83 163.001L107.69 158.581L107.9 157.601Z" fill="#7B9EBA"/>
<path d="M102.99 158.291L100.15 170.631C100.15 170.631 100.15 170.721 100.27 170.751C100.39 170.781 100.41 170.691 100.41 170.691L103.25 158.351C103.25 158.351 103.18 158.131 102.99 158.291Z" fill="white"/>
<path d="M106.381 162.29L95.8005 170.76C95.8005 170.76 95.6905 170.82 95.6205 170.72C95.5505 170.6 95.6305 170.55 95.6305 170.55L106.211 162.08C106.211 162.08 106.381 162.04 106.371 162.29H106.381Z" fill="white"/>
<path d="M102.03 163.61L102.26 170.46C102.26 170.46 102.24 170.5 102.13 170.5C102.02 170.5 101.99 170.47 101.99 170.47L101.76 163.62H102.02L102.03 163.61Z" fill="white"/>
<path opacity="0.33" d="M147.201 158.55C142.111 158.92 132.081 159.08 126.091 155.38C117.821 150.28 125.011 147.38 128.751 129.68C132.301 112.94 121.051 73.6502 119.811 69.4102C125.221 85.5502 140.951 137.73 147.201 158.55Z" fill="white"/>
<path opacity="0.38" d="M115.87 57.9306C120.87 74.5806 118.89 106.851 118.7 109.721C119.14 97.9206 118.52 84.2706 115.98 69.0906C114.62 61.0206 112.73 52.1306 110.82 43.6406C110.96 44.0106 112 46.9306 113.44 51.0206C113.76 52.1606 114.21 53.4406 114.8 54.8806C114.81 54.9006 114.82 54.9306 114.83 54.9506C115.2 55.8506 115.53 56.8206 115.84 57.8506C115.85 57.8706 115.86 57.9006 115.87 57.9306Z" fill="#DED774"/>
<path opacity="0.55" d="M150.92 187.35V188.26L49.3797 189.49L41.4697 188.72L41.7297 187.51C41.7297 187.51 41.7497 187.5 41.7997 187.48C41.8197 187.48 41.8497 187.46 41.8897 187.45C42.2497 187.32 43.2997 187.07 45.5297 187.22C48.4397 187.42 49.8097 186.39 51.2797 186.84C52.7397 187.29 52.6497 187.1 54.5997 186.81C56.5397 186.52 56.5397 186.2 58.8397 186.62C61.1397 187.03 61.1097 186.97 63.8497 187.03C66.5997 187.1 69.1497 187.61 71.3797 187.22C73.6197 186.84 76.1997 187.34 76.1997 187.34C76.1997 187.34 82.1797 186.14 83.7097 186.63C85.2397 187.12 87.2897 187.51 90.0997 186.96C92.8997 186.42 91.6897 185.97 94.6897 186.29C97.6897 186.61 98.6497 186.8 99.9897 186.93C101.33 187.05 103.5 186.67 105.22 186.48C106.95 186.29 110.33 186.07 110.59 186.35C110.84 186.63 111.48 187.15 115.18 186.85C118.88 186.54 120.22 186.48 123.1 186.22C125.97 185.97 126.99 185.78 129.1 185.9C131.2 186.03 139.24 186.63 142.37 186.63C145.5 186.63 149.4 186.73 150.92 187.35Z" fill="#2E889E"/>
<path d="M150.92 187.35C150.92 187.35 140.49 186.81 139.28 186.97C138.06 187.13 133.12 187.03 131.07 186.81C129.03 186.59 130.5 186.2 126.99 186.59C123.48 186.97 100.88 188.15 98.3896 187.29C95.9096 186.42 94.9797 187.1 93.0597 187.26C91.1497 187.42 86.5196 188.18 84.6096 188.12C82.6896 188.05 86.1996 186.87 81.7696 187.45C77.3296 188.02 75.1896 187.51 72.4496 187.83C69.6996 188.15 66.9896 187.86 64.9496 187.64C62.8996 187.42 61.7196 187.57 59.7096 187.45C57.6996 187.32 59.3296 187.19 55.8496 187.77C52.3696 188.34 52.8496 188.44 50.6196 187.93C48.3796 187.42 46.1796 187.92 45.1296 187.92C44.1796 187.93 42.4696 187.34 41.8896 187.45C42.2496 187.32 43.2996 187.07 45.5296 187.22C48.4396 187.42 49.8096 186.39 51.2796 186.84C52.7396 187.29 52.6496 187.1 54.5996 186.81C56.5396 186.52 56.5396 186.2 58.8396 186.62C61.1396 187.03 61.1096 186.97 63.8496 187.03C66.5996 187.1 69.1497 187.61 71.3797 187.22C73.6197 186.84 76.1996 187.34 76.1996 187.34C76.1996 187.34 82.1796 186.14 83.7096 186.63C85.2396 187.12 87.2897 187.51 90.0997 186.96C92.8997 186.42 91.6896 185.97 94.6896 186.29C97.6896 186.61 98.6497 186.8 99.9897 186.93C101.33 187.05 103.5 186.67 105.22 186.48C106.95 186.29 110.33 186.07 110.59 186.35C110.84 186.63 111.48 187.15 115.18 186.85C118.88 186.54 120.22 186.48 123.1 186.22C125.97 185.97 126.99 185.78 129.1 185.9C131.2 186.03 139.24 186.63 142.37 186.63C145.5 186.63 149.4 186.73 150.92 187.35Z" fill="white"/>
</svg>
