<svg width="72" height="200" viewBox="0 0 72 200" fill="none" xmlns="http://www.w3.org/2000/svg">
<mask id="mask0_24_32294" style="mask-type:luminance" maskUnits="userSpaceOnUse" x="0" y="0" width="72" height="200">
<path d="M71.78 0L37.12 200H0L34.67 0H71.78Z" fill="white"/>
</mask>
<g mask="url(#mask0_24_32294)">
<path d="M200 0H0.00976562V200H200V0Z" fill="#8CDCFF"/>
<path opacity="0.73" d="M200.01 136.8V155.1H0.00976562V126.54C0.00976562 126.54 0.729766 126.55 2.04977 126.57C2.84977 126.58 3.87977 126.6 5.09977 126.61C5.32977 126.61 5.55977 126.61 5.80977 126.61C9.10977 126.64 13.6298 126.67 18.8798 126.67C19.5698 126.67 20.2698 126.67 20.9798 126.67C23.7098 126.67 26.5998 126.64 29.5898 126.61H29.5998C30.4298 126.61 31.2498 126.6 32.0898 126.58H32.0998C39.7398 126.47 47.8998 126.25 55.5998 125.86C59.9498 125.64 64.1398 125.37 67.9998 125.03C69.2698 124.92 70.4998 124.8 71.6998 124.67H71.7098C72.4398 124.59 73.1598 124.51 73.8498 124.43C73.8598 124.43 73.8798 124.43 73.8798 124.43C74.8698 124.31 75.8198 124.19 76.7398 124.05C78.3698 123.81 79.8798 123.56 81.2398 123.28C81.9498 123.13 82.6198 122.99 83.2398 122.83C85.7898 122.18 88.7198 121.82 91.9198 121.68C96.5198 121.48 101.66 121.74 106.98 122.31C126.56 124.41 148.54 130.7 154.48 133.48C163.16 137.56 182.2 141.49 200.01 136.82V136.8Z" fill="#639FC9"/>
<path d="M200 161.45H0.00976562V200H200V161.45Z" fill="#2E889E"/>
<path d="M200 163.68H0.00976562V164.47H200V163.68Z" fill="#C7B98D"/>
<path d="M75.7494 136.57C75.7494 136.57 76.0794 136.2 76.0294 134.96C75.9894 133.86 74.7594 132.79 73.3794 133.57C73.3794 133.57 73.3094 132.05 71.8694 132.11C70.7594 132.15 70.8494 133.27 70.8494 133.27C70.8494 133.27 69.2894 132.14 68.4494 133.45C67.6094 134.76 68.6194 135.44 68.6194 135.44C68.6194 135.44 66.6894 135 66.4694 136.03C66.2494 137.06 67.1494 137.98 67.1494 137.98C67.1494 137.98 65.6394 136.65 64.8494 137.86C64.0594 139.07 65.0194 140.5 65.0194 140.5C65.0194 140.5 62.8194 139.68 62.7194 141.12C62.6194 142.56 63.3194 143.21 63.3194 143.21C63.3194 143.21 60.8494 142.14 61.0094 143.69C61.1694 145.24 61.4694 147.8 67.4994 149.26C72.5594 150.48 77.5094 151.84 78.4694 148.34C78.6594 147.67 78.7694 146.52 78.1194 146.1C78.1194 146.1 79.3094 145.83 79.7794 145.07C80.0994 144.55 80.0194 143.55 79.2794 143.28C79.2794 143.28 81.6994 141.82 79.8794 139.95C78.9794 139.03 77.7494 139.64 77.7494 139.64C77.7494 139.64 79.3694 137.74 78.3894 136.5C77.1894 134.97 76.3794 135.86 75.7294 136.56L75.7494 136.57Z" fill="#42A56D"/>
<path d="M21.7701 147.82C21.7701 147.82 16.3901 144.46 19.4501 142.77C19.4501 142.77 17.0201 137.92 20.2001 137.44C20.2001 137.44 17.2801 133 20.4101 132.77C23.5401 132.54 23.9301 133.86 23.9301 133.86C23.9301 133.86 23.4501 130.13 26.2701 131.15C29.0901 132.17 28.0201 134.43 28.0201 134.43C28.0201 134.43 30.3501 131.98 32.5701 134.68C34.8001 137.38 31.0301 137.71 31.0301 137.71C31.0301 137.71 34.3601 137.15 33.5701 139.61C32.7801 142.07 31.0901 142.04 31.0901 142.04C31.0901 142.04 34.3301 142.23 33.6201 144.22C32.9101 146.21 31.4101 147.46 29.0801 146.81C26.7501 146.16 21.7601 147.82 21.7601 147.82H21.7701Z" fill="#2B9A5B"/>
<path d="M8.49977 146.14H8.48977C8.48977 146.14 10.2698 147.76 10.1198 148.99C9.96977 150.21 8.20977 150.45 7.91977 150.87C7.86977 150.93 7.56977 151.04 7.09977 151.18C6.53977 151.34 5.71977 151.54 4.79977 151.76C4.75977 151.77 4.71977 151.78 4.68977 151.79C4.04977 151.94 3.36977 152.09 2.67977 152.24C2.52977 152.28 2.38977 152.31 2.23977 152.34C1.95977 152.41 1.67977 152.47 1.39977 152.53C0.919766 152.64 0.459766 152.74 0.00976562 152.84V132.36C0.179766 132.21 0.299766 131.85 1.71977 131.65C5.72977 131.1 5.47977 135.06 5.47977 135.06C5.47977 135.06 6.93977 134.59 8.13977 135.82L8.19977 135.88C9.05977 136.81 8.65977 138.94 8.34977 140.09C8.22977 140.56 8.11977 140.87 8.11977 140.87C8.11977 140.87 9.87977 141.02 10.4598 142.26C10.4798 142.3 10.4898 142.33 10.4998 142.37C10.5098 142.38 10.5098 142.4 10.5098 142.41C10.6298 142.83 10.4398 143.39 10.1498 143.93C9.83977 144.51 9.40977 145.08 9.05977 145.5C8.76977 145.86 8.53977 146.1 8.49977 146.14Z" fill="#36A064"/>
<path d="M55.1897 139.2C55.1897 139.2 55.9697 137.43 54.3397 136.06C53.4397 135.31 51.6097 135.83 51.1197 136.13C51.1197 136.13 51.8697 133.8 49.5497 134.11C47.2297 134.42 48.2297 136.4 48.2297 136.4C48.2297 136.4 47.4697 134.44 46.2697 135.38C45.0697 136.32 46.2697 137.33 46.2697 137.33C46.2697 137.33 43.9897 136.32 43.7597 137.91C43.5297 139.5 44.8797 139.97 44.8797 139.97C44.8797 139.97 42.6397 139.81 42.6397 141.72C42.6397 143.63 44.2797 143.51 44.2797 143.51C44.2797 143.51 42.8397 143.43 42.6397 144.64C42.4397 145.85 42.7197 147.55 45.0297 146.87C47.3397 146.19 50.7797 149.18 51.9297 147.02C51.9297 147.02 54.5197 149.03 55.0797 146.85C55.0797 146.85 57.3197 145.57 55.3597 143.58C55.3597 143.58 58.6597 140.16 55.1697 139.19L55.1897 139.2Z" fill="#42A56D"/>
<path d="M37.7601 136.101C37.7601 136.101 36.0401 131.021 33.4901 133.201C32.4401 134.091 34.3501 136.251 32.6501 134.791C31.3901 133.711 28.6801 132.881 28.1101 135.031C27.5401 137.181 29.0901 137.921 29.0901 137.921C29.0901 137.921 30.3001 138.341 29.6801 138.881C29.0601 139.421 25.8301 137.961 26.2201 140.301C26.6101 142.641 27.9601 141.391 28.0401 142.731C28.1201 144.071 26.2301 143.091 26.3501 144.561C26.4701 146.031 27.5601 146.211 27.9801 146.641C28.4001 147.071 26.6301 148.661 31.5801 150.531C32.3301 150.811 36.2301 149.151 37.0501 148.451C41.6701 144.491 41.6701 143.491 42.0001 140.961C42.3701 138.121 41.9801 135.851 37.7701 136.101H37.7601Z" fill="#42A56D"/>
<path d="M54.9394 134.87C54.9394 134.87 54.6694 134.4 55.0094 133.06C55.3094 131.88 56.8994 130.99 58.2094 132.14C58.2094 132.14 58.6494 130.51 60.1894 130.89C61.3794 131.18 61.0194 132.38 61.0194 132.38C61.0194 132.38 62.9694 131.5 63.5794 133.11C64.1894 134.72 62.9294 135.23 62.9294 135.23C62.9294 135.23 65.1294 135.19 65.1194 136.35C65.1094 137.51 63.9294 138.32 63.9294 138.32C63.9294 138.32 65.8794 137.21 66.4494 138.7C67.0294 140.18 65.6394 141.52 65.6394 141.52C65.6394 141.52 68.2094 141.12 67.9894 142.7C67.7594 144.27 66.8394 144.84 66.8394 144.84C66.8394 144.84 69.7694 144.23 69.2394 145.87C68.7094 147.51 67.7894 150.23 60.8994 150.47C55.1294 150.67 49.4494 151.05 49.2194 147.04C49.1794 146.27 49.3194 145 50.1194 144.69C50.1194 144.69 48.8994 144.13 48.5594 143.2C48.3294 142.57 48.6494 141.49 49.5194 141.37C49.5194 141.37 47.2394 139.25 49.6494 137.63C50.8394 136.83 52.0294 137.77 52.0294 137.77C52.0294 137.77 50.7194 135.35 52.0694 134.22C53.7294 132.83 54.3994 133.97 54.9394 134.88V134.87Z" fill="#249756"/>
<path d="M49.0794 143.181C49.0794 143.181 50.3794 138.041 46.9194 138.621C45.4994 138.861 45.9794 141.621 45.2894 139.551C44.7794 138.011 42.8394 135.981 41.1494 137.521C39.4594 139.061 40.3994 140.451 40.3994 140.451C40.3994 140.451 41.2294 141.401 40.3894 141.551C39.5494 141.701 37.5094 138.871 36.5394 141.041C35.5694 143.211 37.4694 142.821 36.7894 143.991C36.1094 145.161 34.9894 143.401 34.2694 144.701C33.5494 146.001 34.4194 146.691 34.5494 147.261C34.6794 147.831 34.6694 147.831 34.2894 148.521C33.9094 149.211 39.5194 150.401 40.6494 150.351C41.7794 150.301 46.0394 150.421 47.8694 149.951C50.8094 149.201 52.9294 145.041 49.0694 143.171L49.0794 143.181Z" fill="#47A871"/>
<path d="M76.4599 150.57C76.4599 150.57 71.7499 148.66 73.9099 146.91C73.9099 146.91 71.2999 143.42 73.7399 142.61C73.7399 142.61 70.7999 139.51 73.2399 138.9C75.6799 138.29 76.1699 139.28 76.1699 139.28C76.1699 139.28 75.2599 136.41 77.6199 136.82C79.9799 137.24 79.4699 139.17 79.4699 139.17C79.4699 139.17 80.9499 136.92 83.0899 138.74C85.2299 140.56 82.3099 141.34 82.3099 141.34C82.3099 141.34 84.8499 140.45 84.5799 142.49C84.3099 144.53 82.9699 144.74 82.9699 144.74C82.9699 144.74 85.5499 144.45 85.2699 146.12C84.9899 147.79 83.9899 148.97 82.0699 148.77C80.1499 148.57 76.4499 150.56 76.4499 150.56L76.4599 150.57Z" fill="#2F9C5F"/>
<path d="M66.2502 149.181C65.2702 149.341 64.8402 148.891 64.8402 148.891C65.5902 148.901 66.9902 147.561 66.9902 147.561C66.2002 147.751 65.6002 147.391 65.6002 147.391C66.6502 147.211 67.2102 146.261 67.2102 146.261C66.5202 146.421 65.8802 145.971 65.8802 145.971C66.7402 145.871 67.5602 144.771 67.5602 144.771C66.9902 145.141 66.2502 144.771 66.2502 144.771C67.2402 144.641 67.9402 143.201 67.9402 143.201C67.3302 143.631 66.7302 143.001 66.7302 143.001C67.9402 143.201 68.3902 140.971 68.3902 140.971C68.3902 140.971 68.8402 143.201 70.0502 143.001C70.0502 143.001 69.4402 143.631 68.8402 143.201C68.8402 143.201 69.5402 144.631 70.5302 144.771C70.5302 144.771 69.8002 145.141 69.2202 144.771C69.2202 144.771 70.0402 145.871 70.9002 145.971C70.9002 145.971 70.2602 146.411 69.5702 146.261C69.5702 146.261 70.1302 147.211 71.1802 147.391C71.1802 147.391 70.5702 147.751 69.7902 147.561C69.7902 147.561 71.1902 148.901 71.9402 148.891C71.9402 148.891 71.5002 149.331 70.5302 149.181C70.5302 149.181 71.5502 150.081 72.5502 150.211C72.5502 150.211 71.5402 150.711 70.7302 150.521C69.9202 150.331 69.8502 150.231 69.8502 150.231C69.8502 150.231 69.7202 150.421 69.8302 150.671C69.9402 150.921 70.0502 151.041 70.0502 151.041C70.0502 151.041 69.4802 150.951 69.0302 150.711C68.6802 150.521 68.6002 150.301 68.5002 150.271C68.3002 150.511 68.2502 150.571 67.9302 150.711C67.4602 150.921 66.6602 150.931 66.6602 150.931C66.6602 150.931 66.8902 150.711 67.0302 150.541C67.1802 150.351 67.2102 150.161 67.2102 150.161C67.2102 150.161 66.5102 150.431 65.9602 150.461C65.4102 150.491 64.2402 150.081 64.2402 150.081C65.2402 149.951 66.2602 149.181 66.2602 149.181H66.2502Z" fill="#18914D"/>
<path d="M15.1396 134.46C15.1396 134.46 14.6696 131.08 12.3896 132.24C10.1096 133.4 11.7196 133 9.32955 132.24C6.94955 131.48 5.85955 132.95 6.47955 133.91C7.09955 134.87 8.85955 135.19 7.97955 136.01C7.09955 136.83 5.43955 136.63 4.45955 137.94C3.47955 139.25 4.24955 140.21 4.35955 141.27C4.46955 142.33 3.42955 142.84 3.00955 144.02C2.58955 145.2 2.38955 146.37 4.04955 146.87C5.70955 147.37 5.65955 149.04 5.90955 150.15C6.15955 151.26 8.13955 151.31 8.44955 151.66C8.75955 152.01 16.1096 151.82 16.1096 151.82C16.1096 151.82 17.7096 151.19 17.9796 150.39C18.1696 149.85 16.9196 149.2 17.3596 148.72C18.8996 147.06 21.3196 145.84 19.3796 144.63C18.3296 143.97 21.2296 143.69 20.8796 142.21C20.5296 140.73 19.0696 140.24 20.0996 138.94C20.8496 138 20.9296 136.91 19.1196 136.18C17.3096 135.45 17.4096 136.41 16.9996 136.06C16.5896 135.71 16.9996 133.43 15.1396 134.44V134.46Z" fill="#3DA36A"/>
<path d="M25.5299 148.76C25.5299 148.76 29.1999 144.93 26.4299 144.08C26.4299 144.08 27.4599 139.55 24.8199 139.75C24.8199 139.75 26.3199 135.47 23.7699 135.87C21.2199 136.27 21.1499 137.45 21.1499 137.45C21.1499 137.45 20.8299 134.23 18.7699 135.61C16.7099 136.99 17.9899 138.69 17.9899 138.69C17.9899 138.69 15.6599 137.07 14.3899 139.75C13.1199 142.43 16.1899 142.01 16.1899 142.01C16.1899 142.01 13.4199 142.17 14.5199 144.08C15.6099 145.99 16.9699 145.66 16.9699 145.66C16.9699 145.66 14.4199 146.43 15.3599 147.97C16.2999 149.51 17.7399 150.28 19.4799 149.29C21.2199 148.3 25.5299 148.76 25.5299 148.76Z" fill="#249756"/>
<path d="M61.3295 141.09C61.3295 141.09 60.2495 138.45 58.3895 139.86C56.5295 141.27 57.8995 140.05 55.5895 140.49C52.1495 141.15 53.4095 143.94 53.4095 143.94C53.4095 143.94 52.0395 143.98 51.3895 145.25C50.7395 146.52 52.7795 148.83 52.7795 148.83C52.7795 148.83 51.3795 149.41 51.2195 150.45C51.0595 151.49 53.8695 152.73 53.8695 152.73C53.8695 152.73 52.8295 154.36 53.2795 155.21C53.7295 156.06 55.2295 155.76 55.5895 155.98C55.9495 156.2 65.5695 154.93 65.5695 154.93C65.5695 154.93 66.9095 154.09 67.0095 153.39C67.0795 152.91 65.8095 152.65 66.1195 152.17C67.2095 150.51 69.1895 149.02 67.1795 148.45C66.0895 148.14 68.6895 147.31 68.0895 146.18C67.4895 145.05 66.0495 144.97 66.7495 143.7C67.2495 142.78 67.1195 141.89 65.3195 141.67C63.5195 141.45 63.7995 142.21 63.3495 142.01C62.8995 141.81 62.8395 139.88 61.3295 141.08V141.09Z" fill="#008039"/>
<path d="M40.6097 148.41C40.6097 148.41 38.2997 142.2 42.6697 142.48C44.4697 142.59 44.2397 146.08 44.8097 143.43C45.2397 141.46 47.3697 138.69 49.6797 140.38C51.9897 142.07 50.9997 143.92 50.9997 143.92C50.9997 143.92 50.0897 145.21 51.1597 145.29C52.2297 145.37 54.3797 141.6 55.8597 144.17C57.3397 146.74 54.9497 146.5 55.9397 147.86C56.9297 149.22 58.0897 146.9 59.1597 148.42C60.2297 149.94 59.2397 150.91 59.1597 151.63C59.0797 152.35 59.0897 152.35 59.6497 153.16C60.2097 153.97 53.4197 156.16 52.0097 156.24C50.5997 156.32 45.3297 157.01 42.9997 156.67C39.2497 156.12 36.0597 151.23 40.5897 148.41H40.6097Z" fill="#138F49"/>
<path d="M68.3501 140.44C68.3501 140.44 69.9101 137.6 72.2801 138.75C74.6501 139.9 73.4601 141.47 73.4601 141.47C73.4601 141.47 75.1601 139.74 76.6001 141.47C78.0401 143.2 75.4401 144.92 75.4401 144.92C75.4401 144.92 79.4601 143.06 79.9301 146.05C80.4001 149.04 77.6401 150.73 77.6401 150.73C77.6401 150.73 81.0301 150.04 81.2701 152.42C81.5101 154.8 80.0401 157.49 78.6401 157.18C78.6401 157.18 80.7901 159.3 75.5101 159.32C70.2301 159.34 59.0801 160.61 58.8601 158.82C58.6401 157.03 60.4801 156.03 60.4801 156.03C60.4801 156.03 57.7701 155.03 60.0601 152.96C60.0601 152.96 58.0601 148.74 62.5001 149.1C62.5001 149.1 59.6801 147.67 61.4801 146.05C61.4801 146.05 59.1901 142.58 62.3501 141.85C65.5101 141.12 65.8201 142.59 65.8201 142.59C65.8201 142.59 65.2201 138.91 68.3601 140.44H68.3501Z" fill="#15874A"/>
<path d="M75.2699 161.19C75.2699 161.19 69.9099 158.49 72.6399 156.63C72.6399 156.63 69.9199 152.28 72.8699 151.55C72.8699 151.55 69.7199 147.62 72.6499 147.14C75.5799 146.65 76.0599 147.86 76.0599 147.86C76.0599 147.86 75.2799 144.39 78.0099 145.11C80.7499 145.83 79.9499 148.05 79.9499 148.05C79.9499 148.05 81.9199 145.55 84.2599 147.89C86.5999 150.24 83.0899 150.88 83.0899 150.88C83.0899 150.88 86.1699 150.07 85.6499 152.45C85.1299 154.83 83.5299 154.95 83.5299 154.95C83.5299 154.95 86.5899 154.85 86.0999 156.79C85.6099 158.73 84.3099 160.03 82.0599 159.61C79.8099 159.19 75.2599 161.19 75.2599 161.19H75.2699Z" fill="#00692E"/>
<path d="M2.51962 145.87C2.51962 145.87 1.62962 143.87 3.47962 142.32C4.48962 141.47 6.55962 142.06 7.11962 142.4C7.11962 142.4 6.27962 139.77 8.88962 140.12C11.4996 140.47 10.3796 142.71 10.3796 142.71C10.3796 142.71 11.2396 140.5 12.5896 141.56C13.9396 142.62 12.5896 143.76 12.5896 143.76C12.5896 143.76 15.1596 142.62 15.4296 144.42C15.6996 146.22 14.1696 146.75 14.1696 146.75C14.1696 146.75 16.6896 146.57 16.6896 148.73C16.6896 150.89 14.8396 150.75 14.8396 150.75C14.8396 150.75 16.4596 150.66 16.6896 152.02C16.9196 153.38 16.5996 155.31 13.9896 154.54C11.3796 153.77 7.49962 157.15 6.18962 154.71C6.18962 154.71 3.25962 156.98 2.62962 154.52C2.62962 154.52 0.0996212 153.07 2.30962 150.83C2.30962 150.83 -1.41038 146.97 2.51962 145.87Z" fill="#2E915B"/>
<path d="M55.1597 158.89C55.1597 158.89 58.7097 155.36 56.0297 154.57C56.0297 154.57 57.0297 150.39 54.4697 150.57C54.4697 150.57 55.9197 146.62 53.4497 146.98C50.9797 147.34 50.9197 148.43 50.9197 148.43C50.9197 148.43 50.6097 145.46 48.6097 146.73C46.6097 148 47.8597 149.58 47.8597 149.58C47.8597 149.58 45.6097 148.08 44.3797 150.56C43.1497 153.04 46.1297 152.65 46.1297 152.65C46.1297 152.65 43.4497 152.8 44.5097 154.56C45.5697 156.32 46.8797 156.01 46.8797 156.01C46.8797 156.01 44.4097 156.72 45.3197 158.14C46.2297 159.56 47.6297 160.27 49.3097 159.36C50.9897 158.45 55.1697 158.87 55.1697 158.87L55.1597 158.89Z" fill="#35A668"/>
<path d="M8.38002 159.78C8.38002 159.78 3.12002 157.13 5.79002 155.31C5.79002 155.31 3.12002 151.04 6.02002 150.33C6.02002 150.33 2.93002 146.47 5.80002 146C8.67002 145.52 9.15002 146.71 9.15002 146.71C9.15002 146.71 8.38002 143.31 11.07 144.01C13.76 144.71 12.97 146.9 12.97 146.9C12.97 146.9 14.9 144.44 17.2 146.75C19.5 149.06 16.05 149.68 16.05 149.68C16.05 149.68 19.07 148.89 18.56 151.22C18.05 153.55 16.48 153.67 16.48 153.67C16.48 153.67 19.48 153.58 19 155.47C18.52 157.36 17.24 158.65 15.04 158.24C12.84 157.83 8.37002 159.79 8.37002 159.79L8.38002 159.78Z" fill="#00692E"/>
<path d="M20.0893 157.48C21.3793 157.67 21.9593 157.12 21.9593 157.12C20.9693 157.13 19.1093 155.48 19.1093 155.48C20.1593 155.71 20.9593 155.27 20.9593 155.27C19.5693 155.05 18.8293 153.87 18.8293 153.87C19.7393 154.06 20.5893 153.51 20.5893 153.51C19.4493 153.39 18.3693 152.03 18.3693 152.03C19.1293 152.48 20.0993 152.03 20.0993 152.03C18.7893 151.87 17.8593 150.1 17.8593 150.1C18.6593 150.63 19.4593 149.85 19.4593 149.85C17.8593 150.1 17.2693 147.34 17.2693 147.34C17.2693 147.34 16.6793 150.09 15.0793 149.85C15.0793 149.85 15.8793 150.63 16.6793 150.1C16.6793 150.1 15.7493 151.87 14.4393 152.03C14.4393 152.03 15.4093 152.48 16.1693 152.03C16.1693 152.03 15.0893 153.39 13.9493 153.51C13.9493 153.51 14.7893 154.06 15.7093 153.87C15.7093 153.87 14.9693 155.05 13.5793 155.27C13.5793 155.27 14.3793 155.71 15.4293 155.48C15.4293 155.48 13.5693 157.14 12.5793 157.12C12.5793 157.12 13.1593 157.67 14.4493 157.48C14.4493 157.48 13.0993 158.59 11.7793 158.75C11.7793 158.75 13.1193 159.37 14.1793 159.13C15.2393 158.89 15.3393 158.77 15.3393 158.77C15.3393 158.77 15.5093 159.01 15.3693 159.31C15.2293 159.61 15.0693 159.77 15.0693 159.77C15.0693 159.77 15.8293 159.65 16.4193 159.36C16.8793 159.13 16.9793 158.86 17.1293 158.81C17.3893 159.11 17.4593 159.18 17.8793 159.36C18.4993 159.63 19.5693 159.64 19.5693 159.64C19.5693 159.64 19.2593 159.36 19.0793 159.16C18.8793 158.93 18.8393 158.69 18.8393 158.69C18.8393 158.69 19.7693 159.02 20.4993 159.06C21.2293 159.1 22.7693 158.59 22.7693 158.59C21.4493 158.43 20.0993 157.48 20.0993 157.48H20.0893Z" fill="#005232"/>
<path d="M21.6099 147.14C21.6099 147.14 21.3199 146.81 21.3499 145.69C21.3799 144.7 22.4999 143.73 23.7399 144.44C23.7399 144.44 23.8099 143.07 25.0999 143.12C26.0999 143.16 26.0199 144.17 26.0199 144.17C26.0199 144.17 27.4199 143.15 28.1899 144.33C28.9599 145.51 28.0399 146.12 28.0399 146.12C28.0399 146.12 29.7799 145.73 29.9799 146.66C30.1799 147.59 29.3699 148.42 29.3699 148.42C29.3699 148.42 30.7299 147.22 31.4499 148.31C32.1699 149.4 31.2899 150.69 31.2899 150.69C31.2899 150.69 33.2699 149.95 33.3599 151.25C33.4499 152.55 32.8099 153.14 32.8099 153.14C32.8099 153.14 35.0399 152.18 34.8999 153.57C34.7599 154.96 34.4899 157.28 29.0499 158.59C24.4899 159.69 20.0199 160.919 19.1499 157.759C18.9799 157.149 18.8799 156.12 19.4599 155.74C19.4599 155.74 18.3899 155.49 17.9599 154.81C17.6699 154.34 17.7399 153.44 18.4099 153.2C18.4099 153.2 16.2299 151.89 17.8699 150.19C18.6799 149.36 19.7899 149.91 19.7899 149.91C19.7899 149.91 18.3299 148.19 19.2099 147.08C20.2999 145.7 21.0199 146.5 21.6099 147.14Z" fill="#168746"/>
<path d="M40.7599 143.71C40.7599 143.71 39.5999 140.87 37.5899 142.39C35.5799 143.91 37.0699 142.6 34.5799 143.07C30.8799 143.78 32.2299 146.78 32.2299 146.78C32.2299 146.78 30.7499 146.83 30.0599 148.19C29.3699 149.55 31.5599 152.04 31.5599 152.04C31.5599 152.04 30.0499 152.66 29.8799 153.78C29.7099 154.9 32.7399 156.24 32.7399 156.24C32.7399 156.24 31.6199 158 32.1099 158.91C32.5999 159.82 34.2199 159.51 34.5999 159.74C34.9799 159.97 45.3499 158.61 45.3499 158.61C45.3499 158.61 46.7999 157.7 46.8999 156.95C46.9699 156.44 45.5999 156.15 45.9399 155.64C47.1099 153.85 49.2499 152.25 47.0799 151.63C45.8999 151.29 48.7099 150.4 48.0599 149.18C47.4099 147.96 45.8599 147.87 46.6199 146.51C47.1599 145.52 47.0199 144.56 45.0799 144.33C43.1399 144.1 43.4399 144.92 42.9599 144.7C42.4799 144.48 42.4099 142.41 40.7799 143.7L40.7599 143.71Z" fill="#008039"/>
<path d="M8.12977 155.59C8.05977 155.85 7.93977 156.1 7.76977 156.35C7.34977 157.01 6.66977 157.62 5.96977 158.12C5.63977 158.36 5.30977 158.58 4.99977 158.77C4.19977 159.26 3.51977 159.6 3.34977 159.69C3.30977 159.71 3.26977 159.73 3.22977 159.73C3.09977 159.78 2.96977 159.78 2.81977 159.75H2.80977C2.34977 159.67 1.78977 159.38 1.05977 159.62C0.739766 159.73 0.399766 159.71 0.0697656 159.61C0.0497656 159.61 0.0297656 159.6 0.00976562 159.59V151.09C0.239766 150.89 0.559766 150.78 0.959766 150.83C1.45977 150.9 1.74977 151.07 1.92977 151.26C2.20977 151.56 2.18977 151.9 2.18977 151.9C2.18977 151.9 2.12977 152.21 2.23977 152.34C2.27977 152.41 2.36977 152.44 2.51977 152.38C2.57977 152.36 2.62977 152.31 2.67977 152.24C3.03977 151.77 3.28977 150.44 4.25977 151.02C4.52977 151.19 4.67977 151.34 4.73977 151.47C4.79977 151.58 4.80977 151.68 4.79977 151.76C4.78977 152.02 4.62977 152.22 4.99977 152.39C5.67977 152.71 5.71977 151.6 6.44977 151.96C7.18977 152.32 6.95977 152.88 7.05977 153.17C7.16977 153.46 7.25977 153.34 7.55977 153.65C8.17977 154.3 8.30977 154.96 8.12977 155.59Z" fill="#00633D"/>
<path d="M60.5497 157.839C62.1597 158.079 62.8797 157.399 62.8797 157.399C61.6397 157.419 59.3297 155.35 59.3297 155.35C60.6297 155.64 61.6297 155.089 61.6297 155.089C59.8997 154.819 58.9697 153.35 58.9697 153.35C60.1097 153.59 61.1597 152.91 61.1597 152.91C59.7397 152.76 58.3897 151.07 58.3897 151.07C59.3397 151.63 60.5397 151.07 60.5397 151.07C58.9097 150.87 57.7597 148.66 57.7597 148.66C58.7597 149.33 59.7597 148.35 59.7597 148.35C57.7597 148.66 57.0297 145.229 57.0297 145.229C57.0297 145.229 56.2897 148.66 54.2997 148.35C54.2997 148.35 55.2997 149.32 56.2997 148.66C56.2997 148.66 55.1397 150.86 53.5197 151.07C53.5197 151.07 54.7297 151.63 55.6697 151.07C55.6697 151.07 54.3197 152.76 52.8997 152.91C52.8997 152.91 53.9497 153.59 55.0897 153.35C55.0897 153.35 54.1697 154.809 52.4297 155.089C52.4297 155.089 53.4297 155.64 54.7297 155.35C54.7297 155.35 52.4197 157.419 51.1797 157.399C51.1797 157.399 51.8997 158.079 53.5097 157.839C53.5097 157.839 51.8297 159.229 50.1797 159.429C50.1797 159.429 51.8497 160.199 53.1797 159.899C54.5097 159.599 54.6297 159.449 54.6297 159.449C54.6297 159.449 54.8397 159.74 54.6697 160.13C54.4997 160.52 54.2997 160.71 54.2997 160.71C54.2997 160.71 55.2497 160.559 55.9797 160.199C56.5497 159.909 56.6797 159.57 56.8597 159.52C57.1897 159.89 57.2697 159.979 57.7897 160.199C58.5597 160.529 59.8897 160.549 59.8897 160.549C59.8897 160.549 59.5097 160.199 59.2897 159.949C59.0397 159.659 58.9897 159.359 58.9897 159.359C58.9897 159.359 60.1497 159.77 61.0497 159.82C61.9497 159.87 63.8797 159.229 63.8797 159.229C62.2297 159.029 60.5497 157.85 60.5497 157.85V157.839Z" fill="#005937"/>
<path d="M24.9495 154.509C24.9495 154.509 23.4695 150.519 26.2695 150.699C27.4295 150.769 27.2795 153.009 27.6495 151.309C27.9295 150.039 29.2895 148.259 30.7795 149.349C32.2695 150.439 31.6295 151.619 31.6295 151.619C31.6295 151.619 31.0495 152.449 31.7395 152.499C32.4295 152.549 33.8095 150.129 34.7595 151.779C35.7095 153.429 34.1795 153.269 34.8095 154.149C35.4395 155.029 36.1895 153.529 36.8795 154.509C37.5695 155.489 36.9295 156.109 36.8795 156.579C36.8295 157.049 36.8295 157.039 37.1995 157.559C37.5695 158.079 34.9195 160.399 34.0195 160.449C33.1195 160.499 27.9995 160.039 26.4995 159.819C24.0895 159.469 22.0395 156.319 24.9495 154.519V154.509Z" fill="#007534"/>
<path d="M200.01 155.15V160.88H44.9004C44.9004 160.88 48.7904 160.64 54.6804 160.07C55.2504 160.02 55.8304 159.96 56.4304 159.89C56.6604 159.87 56.9004 159.85 57.1404 159.82C57.7604 159.76 58.4104 159.69 59.0704 159.62H59.0804C59.2704 159.59 59.4504 159.57 59.6404 159.55C59.7404 159.54 59.8404 159.53 59.9404 159.52H59.9504C61.0504 159.39 62.1804 159.26 63.3504 159.12C63.9004 159.05 64.4604 158.98 65.0304 158.92H65.0604C66.8604 158.68 68.7204 158.43 70.6104 158.16C70.9604 158.11 71.3804 158.06 71.8704 158.01C73.5204 157.84 75.8904 157.68 78.8704 157.52H78.8804C79.5504 157.49 80.2504 157.46 80.9704 157.42C82.5104 157.35 84.1804 157.28 85.9604 157.21C87.9504 157.13 90.0704 157.06 92.3204 156.99C94.4904 156.92 96.7704 156.85 99.1504 156.78C99.7304 156.76 100.32 156.75 100.92 156.73C102.41 156.69 103.93 156.65 105.49 156.61C106.76 156.58 108.06 156.55 109.37 156.52C110.13 156.5 110.9 156.48 111.68 156.47C112.32 156.45 112.96 156.44 113.6 156.42H113.61C114.88 156.39 116.15 156.37 117.43 156.34C120.98 156.27 124.6 156.19 128.24 156.13C129.03 156.11 129.82 156.1 130.61 156.08C131.12 156.07 131.62 156.06 132.13 156.06C132.42 156.05 132.71 156.05 133 156.04C133.63 156.04 134.25 156.02 134.88 156.01C135.05 156 135.23 156 135.4 156C139.7 155.92 144.01 155.85 148.24 155.79C149.8 155.77 151.35 155.74 152.88 155.72C152.99 155.72 153.09 155.72 153.19 155.71H153.2C155.8 155.68 158.35 155.64 160.84 155.6C161.76 155.6 162.66 155.58 163.56 155.57C166.31 155.53 168.97 155.49 171.52 155.46C172.7 155.45 173.85 155.43 174.98 155.42C175.69 155.41 176.39 155.4 177.07 155.4H177.08C179.8 155.36 182.35 155.33 184.69 155.3C186.47 155.28 188.14 155.27 189.66 155.25C195.05 155.19 198.75 155.16 200 155.15H200.01Z" fill="#9BC780"/>
<path d="M200.01 159.24V163H0.00976562V158.76H0.469766L4.99977 158.77L6.76977 158.78H6.77977L11.0598 158.79H11.8598L15.2798 158.8H18.8698L19.1798 158.81H22.0198L24.5098 158.82L28.0798 158.83H28.0898L32.0598 158.84L36.4298 158.85H36.4398L43.4298 158.86H43.4598L45.8698 158.87H47.7998L51.1498 158.88H51.8798L58.8698 158.9H58.8798L62.6398 158.91L65.0398 158.92H65.0698L72.2998 158.93L78.2998 158.95H78.3098L82.1998 158.96H84.8898L86.0198 158.97H87.0698L92.0898 158.98H92.1098L95.9998 158.99H97.0998L100.1 159H100.56L102.39 159.01H105.37L105.65 159.02H109.37L112.22 159.03H113.86L116.02 159.04H116.08L131.9 159.08H131.95L136.87 159.09H136.88L146.94 159.12H148.36L153.76 159.13H153.77L157.94 159.14H157.95L165.42 159.16H168.46L172.93 159.17H172.94L176.08 159.18H176.81L186.81 159.21H186.83L196.66 159.23L199.85 159.24H200.01Z" fill="#8FB876"/>
<path d="M200.01 162.31V163.68H0.00976562V161.7C0.559766 161.85 1.12977 162.03 1.37977 162.13C2.58977 162.64 6.21977 162.71 8.97977 162.13C11.7198 161.57 11.7798 161.75 14.1498 162.22C16.5098 162.71 17.9098 162.44 20.1998 162.16C22.4998 161.88 21.5398 161.17 24.4098 161.78C27.2898 162.39 30.3498 161.64 30.5998 161.93C30.8598 162.22 32.0698 163 34.3598 162.04C34.9298 161.8 35.4298 161.6 35.8898 161.45C37.2198 161.01 38.2598 160.95 39.8198 161.45C39.9098 161.48 40.0098 161.51 40.1098 161.54C42.3998 162.32 41.7598 162.12 44.3798 161.93C46.9998 161.75 47.7598 161.57 50.2398 161.76C52.7298 161.94 57.7198 161.67 58.8698 161.71C60.0198 161.76 61.6198 162.37 65.1798 162.54C68.7498 162.71 66.2698 163.34 71.9498 162.64C77.6298 161.94 76.4098 161.03 81.0098 161.71C85.6098 162.39 85.4098 162.51 88.8098 162.45C92.1898 162.39 92.0598 162.45 94.9198 162.32C96.1598 162.27 97.8298 162.26 99.4498 162.26C99.8198 162.26 100.19 162.26 100.55 162.27H101.61C101.7 162.27 101.79 162.27 101.88 162.27C103.02 162.27 103.97 162.27 104.5 162.26C104.8 162.25 105.07 162.24 105.34 162.22C105.43 162.22 105.51 162.22 105.59 162.22C105.7 162.21 105.8 162.2 105.9 162.2C106 162.19 106.1 162.18 106.2 162.18C106.68 162.15 107.18 162.11 107.76 162.08C108.15 162.06 108.59 162.03 109.08 162.01C111.13 161.93 110.08 161.53 112.51 162.33C114.93 163.14 119.95 162.97 123.26 162.08C123.36 162.05 123.45 162.03 123.55 162.01C123.97 161.9 124.35 161.81 124.72 161.73C124.92 161.69 125.1 161.66 125.29 161.63C125.71 161.55 126.11 161.5 126.52 161.46C128.09 161.32 129.71 161.39 132.64 161.39C136.42 161.39 137.41 161.27 139.16 161.46C139.63 161.51 140.15 161.59 140.8 161.7C142.31 161.95 145.15 162.17 147.83 162.27C150.59 162.38 153.16 162.37 153.94 162.14C155.47 161.7 157.64 161.7 162.63 161.89C167.6 162.08 166.27 162.59 170.54 162.4C173.62 162.27 175.18 161.69 176.41 161.46C176.89 161.37 177.31 161.33 177.76 161.39C177.9 161.41 178.04 161.43 178.2 161.46C179.8 161.77 182.24 162.69 185.86 162.4C189.82 162.08 189.5 161.26 193.14 161.82C196.78 162.4 195.82 162.91 199.13 162.4C199.44 162.36 199.71 162.33 199.95 162.32L200.01 162.31Z" fill="#6C966B"/>
<path d="M40.8003 56.23C39.6703 57.61 38.2703 58.13 38.2703 58.13C38.2703 58.13 42.0103 61.39 37.3703 64.78C28.3803 71.37 22.4803 65.83 22.4803 65.83C22.4803 65.83 22.1903 67.57 20.5803 69.34C18.9303 71.17 15.9003 73.04 10.3703 73.09C5.67027 73.13 0.230273 72.69 1.55027 68.91C1.55027 68.91 0.970273 69.26 0.0302734 69.72V44.74C1.51027 43.54 3.77027 42.48 7.28027 42.03C12.6903 41.33 13.5303 44.18 13.5303 44.18C13.5303 44.18 14.8903 40.92 20.6203 41.1C26.3703 41.28 26.1303 45.29 26.1303 45.29C26.1303 45.29 35.4203 36.86 40.4703 46.15C43.2903 51.35 42.2803 54.48 40.8203 56.22L40.8003 56.23Z" fill="white"/>
<path d="M26.8799 54.2201C26.8799 54.2201 26.9099 54.1801 26.9799 54.1201C26.9599 54.1701 26.9099 54.2101 26.8799 54.2201Z" fill="#E6FAFF"/>
<path d="M35.5806 61.44C35.2606 62.59 34.3106 63.4 33.1706 63.73C34.0106 63.33 34.6706 62.67 34.9206 61.78C35.9006 58.41 32.0006 58.02 32.0006 58.02C32.0006 58.02 35.7006 55.41 33.2306 53.3C30.6806 51.12 27.6806 53.51 27.0106 54.09C27.4006 53.42 27.0706 50.36 24.4106 49.25C19.9106 47.36 18.0606 51.18 18.0606 51.18C18.0606 51.18 17.4906 47.66 12.9606 47.14C6.09056 46.33 7.02056 50.62 7.02056 50.62C5.76056 50.04 2.77056 50.29 2.16056 53.38C2.06056 53.89 2.04056 54.34 2.08056 54.73C1.87056 54.16 1.81056 53.44 1.98056 52.56C2.61056 49.3 5.25056 49.21 6.53056 49.82C6.53056 49.82 6.01056 45.1 13.0706 45.94C17.7006 46.48 18.2906 50.22 18.2906 50.22C18.2906 50.22 20.2006 46.16 24.8106 48.17C27.5806 49.38 27.8806 52.68 27.4406 53.32C28.0606 52.76 31.1606 50.17 33.8506 52.45C36.8506 55 32.9006 57.67 32.9006 57.67C32.9006 57.67 36.5706 57.85 35.5706 61.43L35.5806 61.44Z" fill="#E6FAFF"/>
<path d="M26.9906 54.1104C26.9706 54.1604 26.9206 54.2004 26.8906 54.2104C26.8906 54.2104 26.9206 54.1704 26.9906 54.1104Z" fill="#ADEFFF"/>
<path d="M55.2197 83.7504C55.2197 83.7504 56.8197 78.2404 65.9597 79.6804C70.9097 80.4604 70.9097 83.1904 70.9097 83.1904C70.9097 83.1904 72.9597 80.6804 77.9597 82.3104C82.9597 83.9404 81.7297 87.4204 81.7297 87.4204C81.7297 87.4204 92.0997 82.4004 94.1497 91.8904C96.1997 101.38 89.1297 101.89 89.1297 101.89C89.1297 101.89 91.5897 105.72 86.6197 107.51C76.9897 110.98 73.2297 104.59 73.2297 104.59C73.2297 104.59 70.2997 110.59 60.6697 107.86C56.5097 106.68 51.8297 104.89 53.9697 101.89C53.9697 101.89 42.1097 104.99 41.4097 97.8604C41.1897 95.5704 43.7797 93.8004 43.7797 93.8004C43.7797 93.8004 37.9097 91.6904 43.0997 85.7804C48.5897 79.5304 54.1897 83.3704 55.2197 83.7604V83.7504Z" fill="white"/>
<path d="M85.04 94.2507C85.04 94.2507 86.99 90.2007 80.43 88.7207C76.11 87.7507 74.42 90.9007 74.42 90.9007C74.42 90.9007 74 86.6707 69.24 87.0107C66.19 87.2307 64.9 90.5007 65.33 90.9107C65.33 90.9107 63.3 86.6507 59.82 87.9907C56.33 89.3307 59.02 92.9507 59.02 92.9507C59.02 92.9507 55.68 91.9607 55.45 95.4707C55.27 98.1307 58.81 100.211 61.69 98.2807C61.69 98.2807 63.73 105.081 70.15 101.191C70.15 101.191 70.23 103.771 73.19 104.221C74.07 104.361 76.15 104.471 76.51 102.581C76.51 102.581 77.41 104.831 80.28 104.821C82.51 104.821 85.04 103.141 83.87 101.051C83.87 101.051 87.67 102.031 88.26 98.1307C88.73 95.0207 86.4 94.1107 85.06 94.2507H85.04Z" fill="#E6FAFF"/>
<path d="M58.1196 36.84C61.6985 36.84 64.5996 33.9657 64.5996 30.42C64.5996 26.8743 61.6985 24 58.1196 24C54.5408 24 51.6396 26.8743 51.6396 30.42C51.6396 33.9657 54.5408 36.84 58.1196 36.84Z" fill="#FFFF73"/>
<path d="M58.5695 12.7898L58.1295 25.1598L57.6895 12.7898C57.6895 12.1898 58.5795 12.1898 58.5795 12.7898H58.5695Z" fill="#FFFF73"/>
<path d="M48.0094 15.9001L54.9994 26.1601L47.2994 16.4101C46.9394 15.9301 47.6694 15.4101 48.0194 15.8901L48.0094 15.9001Z" fill="#FFFF73"/>
<path d="M41.3093 24.5603L53.0593 28.8003L41.0393 25.4003C40.4693 25.2203 40.7393 24.3703 41.3093 24.5703V24.5603Z" fill="#FFFF73"/>
<path d="M41.0397 35.4498L53.0597 32.0498L41.3097 36.2898C40.7397 36.4798 40.4597 35.6298 41.0397 35.4598V35.4498Z" fill="#FFFF73"/>
<path d="M47.2899 44.4297L54.9899 34.6797L47.9999 44.9397C47.6499 45.4297 46.9199 44.8997 47.2799 44.4197L47.2899 44.4297Z" fill="#FFFF73"/>
<path d="M57.6799 48.0595L58.1199 35.6895L58.5599 48.0595C58.5599 48.6595 57.6699 48.6595 57.6699 48.0595H57.6799Z" fill="#FFFF73"/>
<path d="M68.24 44.9495L61.25 34.6895L68.95 44.4395C69.31 44.9195 68.58 45.4395 68.23 44.9595L68.24 44.9495Z" fill="#FFFF73"/>
<path d="M74.9297 36.2898L63.1797 32.0498L75.1997 35.4498C75.7697 35.6298 75.4997 36.4798 74.9297 36.2798V36.2898Z" fill="#FFFF73"/>
<path d="M75.2094 25.39L63.1895 28.79L74.9395 24.55C75.5095 24.36 75.7894 25.21 75.2094 25.38V25.39Z" fill="#FFFF73"/>
<path d="M68.9598 16.4103L61.2598 26.1603L68.2498 15.9003C68.5998 15.4103 69.3298 15.9403 68.9698 16.4203L68.9598 16.4103Z" fill="#FFFF73"/>
<path d="M69.2796 23.1902C69.2796 23.1902 67.5396 24.2902 65.6896 25.4502C63.6096 26.7602 61.3896 28.1602 61.3896 28.1602L68.7796 22.4802C69.2696 22.1202 69.7996 22.8602 69.2896 23.2002L69.2796 23.1902Z" fill="#FFFF73"/>
<path d="M62.8499 18.0796C62.8499 18.0796 62.0899 19.9796 61.2899 21.9996C60.3799 24.2696 59.4199 26.6896 59.4199 26.6896L62.0199 17.7896C62.1999 17.2096 63.0699 17.5096 62.8599 18.0696L62.8499 18.0796Z" fill="#FFFF73"/>
<path d="M54.6201 17.6896C54.6201 17.6896 55.1401 19.6696 55.6801 21.7696C56.3001 24.1396 56.9501 26.6596 56.9501 26.6596L53.7701 17.9496C53.5801 17.3796 54.4501 17.1096 54.6201 17.6896Z" fill="#FFFF73"/>
<path d="M47.7198 22.1597C47.7198 22.1597 49.3098 23.4597 50.9998 24.8397C52.8998 26.3997 54.9298 28.0497 54.9298 28.0497L47.1898 22.8497C46.6898 22.4997 47.2398 21.7697 47.7198 22.1497V22.1597Z" fill="#FFFF73"/>
<path d="M44.7994 29.7896C44.7994 29.7896 46.9494 29.9196 49.1894 30.0596C51.6094 30.2096 54.1394 30.3596 54.1394 30.3596L44.7894 30.6596C44.1794 30.6596 44.1894 29.7596 44.7994 29.7796V29.7896Z" fill="#FFFF73"/>
<path d="M46.9696 37.6595C46.9696 37.6595 48.7096 36.5595 50.5596 35.3995C52.6396 34.0895 54.8596 32.6895 54.8596 32.6895L47.4696 38.3695C46.9796 38.7295 46.4496 37.9895 46.9596 37.6495L46.9696 37.6595Z" fill="#FFFF73"/>
<path d="M53.3999 42.7594C53.3999 42.7594 54.1599 40.8594 54.9599 38.8394C55.8699 36.5694 56.8299 34.1494 56.8299 34.1494L54.2299 43.0494C54.0499 43.6294 53.1799 43.3294 53.3899 42.7694L53.3999 42.7594Z" fill="#FFFF73"/>
<path d="M61.6298 43.1595C61.6298 43.1595 61.1098 41.1795 60.5698 39.0795C59.9498 36.7095 59.2998 34.1895 59.2998 34.1895L62.4798 42.8995C62.6698 43.4695 61.7998 43.7395 61.6298 43.1595Z" fill="#FFFF73"/>
<path d="M68.5196 38.68C68.5196 38.68 66.9296 37.38 65.2396 36C63.3396 34.44 61.3096 32.79 61.3096 32.79L69.0496 37.99C69.5496 38.34 68.9996 39.07 68.5196 38.69V38.68Z" fill="#FFFF73"/>
<path d="M71.4396 31.0595C71.4396 31.0595 69.2896 30.9295 67.0496 30.7895C64.6296 30.6395 62.0996 30.4895 62.0996 30.4895L71.4496 30.1895C72.0596 30.1895 72.0496 31.0895 71.4396 31.0695V31.0595Z" fill="#FFFF73"/>
<path d="M132.58 170.61C124.39 171.52 37.22 170.19 33.72 174.92C32.56 176.49 90.79 179.42 70.66 179.51C50.52 179.6 56.56 180.61 43.59 181.61C30.63 182.61 35.26 180.62 20.76 179.8C11.66 179.28 4.99 180.58 0 180.56V168.63L4.92 168.92C4.92 168.92 115.53 167.71 126.26 167.38C136.99 167.05 140.76 169.7 132.57 170.61H132.58Z" fill="#37B0BD"/>
<path d="M48.1398 158.76C48.1398 158.76 48.0098 158.85 47.7998 158.87C46.5498 159.04 42.2398 158.88 41.8398 159.06C41.3698 159.27 36.6898 159.06 36.6898 159.06C36.6898 159.06 33.4098 159.32 32.8198 159.32C32.2298 159.32 29.9198 159.32 28.4798 159.36C27.0298 159.4 20.5198 159.42 19.5598 159.64C18.5998 159.87 13.6298 160.25 12.6498 160C11.6698 159.74 12.1398 159.74 10.4298 160.04C8.72977 160.34 8.00977 160.47 7.06977 160.13C6.13977 159.79 5.00977 159.71 4.17977 159.7C3.84977 159.7 3.54977 159.71 3.22977 159.73C3.09977 159.74 2.95977 159.75 2.81977 159.75H2.80977C2.43977 159.78 2.02977 159.79 1.53977 159.78C0.989766 159.76 0.439766 159.73 0.00976562 159.7V158.67C0.149766 158.67 0.289766 158.7 0.469766 158.76C0.469766 158.76 1.74977 156.76 3.40977 157.36C5.06977 157.96 4.13977 155.24 5.36977 155.66C6.59977 156.08 7.93977 155.24 7.76977 156.35C7.57977 157.49 7.32977 157.87 8.38977 157.87C9.44977 157.87 8.81977 158.55 10.6898 157.66C12.5598 156.76 12.4798 155.83 13.1998 156.93C13.9198 158.04 13.6698 158.25 14.1798 158.51C14.6898 158.76 16.7398 158.18 16.7398 158.18C16.7398 158.18 18.2398 157.62 19.0598 158.34C19.8798 159.06 21.2398 158.13 21.7998 157.96C22.3498 157.79 25.4498 157.4 26.5198 158.21C27.5798 159.02 28.3498 159.02 30.1398 158.13C31.9198 157.23 32.5498 155.19 34.1498 156.3C35.7498 157.4 35.7098 157.45 36.5198 158.13C37.3298 158.81 41.4098 157.57 41.4098 157.57C41.4098 157.57 43.4498 156.21 43.9198 157.21C44.3898 158.21 45.6298 158 45.6298 158C45.6298 158 46.7698 155.83 47.3698 156.98C47.9698 158.13 48.1498 158.41 48.1398 158.76Z" fill="#00692E"/>
<path d="M51.9804 174.92V177.94H51.9404L42.6504 178.35L51.8504 174.97L51.9804 174.92Z" fill="#78A194"/>
<path d="M63.5505 174.021V177.43L51.9805 177.941V174.921L63.5505 174.021Z" fill="#8AB8AA"/>
<path d="M128.061 173.49C108.841 175.81 54.9007 180.37 54.0107 177.27C54.0107 177.27 54.2007 177.2 54.5407 177.06H54.5607C54.5607 177.06 54.5607 177.06 54.5807 177.04C54.5807 177.04 54.5907 177.05 54.6007 177.04C56.6207 176.25 63.4907 173.61 69.2907 171.81H69.3007C71.6907 171.07 73.9107 170.46 75.5107 170.19H75.5207C75.7507 170.16 75.9507 170.12 76.1507 170.1C79.5307 169.68 98.0307 170.25 113.371 170.95C115.111 171.03 116.801 171.11 118.421 171.2C126.871 171.62 133.511 172.06 134.661 172.34C135.311 172.5 132.691 172.93 128.051 173.49H128.061Z" fill="#F2FFF8"/>
<path d="M151.37 171.67L150.73 174.56L148.43 184.86L148.23 185.77L148.04 186.63L147.88 187.33L44.0504 187.93L43.8604 186.63L43.6004 184.88L42.9904 180.71L42.6504 178.35C42.6504 178.35 46.2704 178 51.5904 177.5C65.0004 176.23 89.2304 173.98 93.4804 173.88C100.86 173.71 151.37 171.67 151.37 171.67Z" fill="white"/>
<path d="M65.6207 181.151V180.261C65.6207 180.261 63.5507 179.231 61.4707 180.261V181.151C61.4707 181.151 63.0307 182.181 65.6207 181.151Z" fill="#445682"/>
<path d="M106.16 18.1602L105.39 157.2L79.58 153.51C79.58 153.51 79.57 153.5 79.56 153.5L61.04 150.85C63.71 146.26 68.02 135.18 72.94 121.26C72.95 121.24 72.95 121.23 72.95 121.23C87.05 81.3302 106.16 18.1602 106.16 18.1602Z" fill="#FFF785"/>
<path d="M75.5702 170.181C75.3402 170.421 75.1702 170.821 75.0902 171.031C75.0502 171.031 75.0302 171.041 75.0102 171.051C73.8702 171.591 56.2902 176.561 54.6602 177.021C56.7502 176.201 63.5402 173.591 69.2902 171.811H69.3002C71.6902 171.071 73.9102 170.461 75.5102 170.191H75.5202C75.5202 170.191 75.5502 170.191 75.5702 170.181Z" fill="#A3ADC7"/>
<path d="M151.38 171.67L150.74 174.56C141.65 174.57 99.5702 176.18 94.5302 176.59C89.2602 177.01 47.2102 180.37 43.0002 180.71L42.6602 178.35C42.6602 178.35 87.5502 174.02 93.4902 173.88C100.87 173.71 151.38 171.67 151.38 171.67Z" fill="#9BD1B1"/>
<path d="M58.7508 151.521C59.1208 151.521 105.861 157.26 105.861 157.26L105.621 159.251C105.621 159.251 59.1008 153.96 58.5108 153.51C58.2308 153.29 58.0908 152.86 58.1408 152.43C58.2008 151.92 58.4408 151.521 58.7508 151.521Z" fill="#7B9EBA"/>
<path d="M75.5108 170.19C74.7808 170.51 74.6308 171 74.6308 171C74.6308 171 72.9708 171.59 71.5908 171.81C70.3508 172.01 69.3608 171.84 69.3008 171.81C71.6908 171.07 73.9108 170.46 75.5108 170.19Z" fill="#5A72AD"/>
<path d="M148.431 184.86L148.041 186.63H43.8606L43.6006 184.88L43.6106 184.86H148.431Z" fill="#7BBA95"/>
<g style="mix-blend-mode:multiply" opacity="0.26">
<path d="M148.23 185.77L148.04 186.63L147.88 187.33L44.0504 187.93L43.8604 186.63L43.6004 184.88L42.9904 180.71L42.6504 178.35C42.6504 178.35 46.2704 178 51.5904 177.5C52.0404 177.65 66.4604 182.8 88.9204 184.86C112.72 187.03 144.61 186.16 148.23 185.77Z" fill="#7A98E3"/>
</g>
<path opacity="0.38" d="M79.98 137.351C79.98 137.351 73.51 144.981 75.08 146.651C76.55 148.201 78.56 147.891 78.84 147.841C78.37 148.061 72.73 150.831 79.48 153.461C79.51 153.461 79.54 153.481 79.56 153.501L61.04 150.851C63.71 146.261 68.02 135.181 72.94 121.261C72.77 121.911 69.57 134.001 71.9 133.131C74.21 132.261 79.95 126.041 80.3 125.661C79.92 126.331 73.43 137.671 74.24 139.691C75.08 141.771 79.98 137.351 79.98 137.351Z" fill="#DED774"/>
<path d="M86.1104 116.91C80.3904 125.58 74.6104 134.21 68.4904 142.61C66.3404 145.33 64.5104 148.39 61.7604 150.55L61.6504 150.32C64.3304 148.21 66.2204 145.15 68.3404 142.49C74.5104 134.14 80.3404 125.54 86.1104 116.91Z" fill="#D4CD6E"/>
<path d="M86.9203 130.46C83.1703 134.44 79.2603 138.26 75.1603 141.87C71.0103 145.38 66.8103 149.12 61.6403 151.05L61.5703 150.81C66.6903 148.94 70.9403 145.23 75.0803 141.78C79.2003 138.2 83.1403 134.41 86.9203 130.46Z" fill="#D4CD6E"/>
<path d="M85.86 145.94C77.76 148.05 69.65 150.72 61.25 151.19V150.94C69.62 150.54 77.77 147.96 85.86 145.94Z" fill="#D4CD6E"/>
<path d="M59.7805 151.63C59.7805 151.63 60.7504 151.22 61.6304 149.78C61.6304 149.78 62.8705 150.34 62.8505 151.11C62.8505 151.11 61.1904 151.62 60.3604 151.71C59.5304 151.8 59.7805 151.64 59.7805 151.64V151.63Z" fill="#283B69"/>
<path d="M106.57 14.3506C95.88 49.1506 84.78 83.8406 72.81 118.231C69.22 128.221 65.78 138.301 61.28 147.931C60.58 149.281 59.95 150.681 58.88 151.831L58.71 151.651C59.71 150.571 60.37 149.161 61.05 147.821C70.29 127.031 76.94 105.181 84.26 83.6706C91.04 63.7406 99.81 34.2606 106.57 14.3606V14.3506Z" fill="#D9E4FF"/>
<path opacity="0.55" d="M150.49 187.35V188.26L48.95 189.49L41.04 188.72L41.3 187.51C41.3 187.51 41.32 187.5 41.37 187.48C41.39 187.48 41.42 187.46 41.46 187.45C41.82 187.32 42.87 187.07 45.1 187.22C48.01 187.42 49.38 186.39 50.85 186.84C52.31 187.29 52.22 187.1 54.17 186.81C56.11 186.52 56.11 186.2 58.41 186.62C60.71 187.03 60.68 186.97 63.42 187.03C66.17 187.1 68.72 187.61 70.95 187.22C73.19 186.84 75.77 187.34 75.77 187.34C75.77 187.34 81.75 186.14 83.28 186.63C84.81 187.12 86.86 187.51 89.67 186.96C92.47 186.42 91.26 185.97 94.26 186.29C97.26 186.61 98.22 186.8 99.56 186.93C100.9 187.05 103.07 186.67 104.79 186.48C106.52 186.29 109.9 186.07 110.16 186.35C110.41 186.63 111.05 187.15 114.75 186.85C118.45 186.54 119.79 186.48 122.67 186.22C125.54 185.97 126.56 185.78 128.67 185.9C130.77 186.03 138.81 186.63 141.94 186.63C145.07 186.63 148.97 186.73 150.49 187.35Z" fill="#2E889E"/>
<path d="M150.49 187.35C150.49 187.35 140.06 186.81 138.85 186.97C137.63 187.13 132.69 187.03 130.64 186.81C128.6 186.59 130.07 186.2 126.56 186.59C123.05 186.97 100.45 188.15 97.96 187.29C95.48 186.42 94.55 187.1 92.63 187.26C90.72 187.42 86.09 188.18 84.18 188.12C82.26 188.05 85.77 186.87 81.34 187.45C76.9 188.02 74.76 187.51 72.02 187.83C69.27 188.15 66.56 187.86 64.52 187.64C62.47 187.42 61.29 187.57 59.28 187.45C57.27 187.32 58.9 187.19 55.42 187.77C51.94 188.34 52.42 188.44 50.19 187.93C47.95 187.42 45.75 187.92 44.7 187.92C43.75 187.93 42.04 187.34 41.46 187.45C41.82 187.32 42.87 187.07 45.1 187.22C48.01 187.42 49.38 186.39 50.85 186.84C52.31 187.29 52.22 187.1 54.17 186.81C56.11 186.52 56.11 186.2 58.41 186.62C60.71 187.03 60.68 186.97 63.42 187.03C66.17 187.1 68.72 187.61 70.95 187.22C73.19 186.84 75.77 187.34 75.77 187.34C75.77 187.34 81.75 186.14 83.28 186.63C84.81 187.12 86.86 187.51 89.67 186.96C92.47 186.42 91.26 185.97 94.26 186.29C97.26 186.61 98.22 186.8 99.56 186.93C100.9 187.05 103.07 186.67 104.79 186.48C106.52 186.29 109.9 186.07 110.16 186.35C110.41 186.63 111.05 187.15 114.75 186.85C118.45 186.54 119.79 186.48 122.67 186.22C125.54 185.97 126.56 185.78 128.67 185.9C130.77 186.03 138.81 186.63 141.94 186.63C145.07 186.63 148.97 186.73 150.49 187.35Z" fill="white"/>
</g>
</svg>
