<svg width="82" height="98" viewBox="0 0 82 98" fill="none" xmlns="http://www.w3.org/2000/svg">
<path d="M32.6831 67.0775C32.3352 69.4631 29.4614 74.5565 29.7191 76.9936C29.964 79.4307 29.7578 81.2231 28.9975 82.7446C28.9201 82.8994 28.8557 83.1057 28.8042 83.3507C28.3918 85.2204 28.6882 89.2823 28.7655 90.1978C28.7655 90.3139 28.8171 90.4815 28.8171 90.4815C27.0387 90.8812 24.9381 90.7136 23.8427 90.3783C23.7397 90.3525 23.6366 90.3139 23.5592 90.2752C23.3917 90.2107 23.2628 90.1333 23.1855 90.056C23.134 90.0044 23.0953 89.9528 23.0824 89.9012C23.0438 89.7852 23.0824 89.6691 23.2113 89.5531C23.25 89.5144 23.2886 89.4886 23.3273 89.4628C23.3788 89.4241 23.4304 89.3854 23.469 89.3339C24.5902 88.1475 24.3582 83.4796 24.1391 82.8349C23.8943 82.1386 23.2113 80.9136 23.2113 80.9136C23.1082 80.4752 23.0824 79.9981 23.1082 79.4823C23.1211 78.9923 23.1855 78.4765 23.2628 77.9478C23.4433 76.5552 23.7139 75.0852 23.4948 73.7957C23.3917 73.2154 23.1984 72.6739 22.8505 72.1968C22.67 71.9389 22.4896 71.6939 22.3221 71.4489C21.2912 69.9918 20.4664 68.7668 19.8092 67.7094C19.7061 67.5289 19.5901 67.3612 19.487 67.1936C18.6751 65.8525 18.1468 64.8081 17.7859 63.9441C17.7731 63.9054 17.7602 63.8797 17.7602 63.8797C17.0772 62.1904 16.1364 57.3807 16.0076 56.1041C15.7498 53.5123 20.9819 54.0539 25.3892 54.8404C30.0155 55.6915 31.9357 60.3465 32.5285 63.8152C32.7733 65.2078 32.7991 66.4199 32.696 67.1033L32.6831 67.0775Z" fill="#87683D"/>
<g style="mix-blend-mode:screen" opacity="0.5">
<path d="M22.8246 72.1852C19.8865 68.0976 18.4818 65.6605 17.7601 63.9326C18.0952 64.5 20.6725 68.91 22.6829 69.9287C24.835 71.0118 24.5644 75.1897 24.0876 76.1052C23.7912 76.6855 23.4303 77.2529 23.237 77.9621C23.5076 75.9376 23.9329 73.7584 22.8246 72.1981V72.1852Z" fill="#7A5C39"/>
</g>
<g style="mix-blend-mode:screen" opacity="0.5">
<path d="M25.9434 83.1824C24.281 84.0077 26.1625 87.4377 24.4099 89.8361C24.2424 90.0682 24.0491 90.2487 23.8429 90.3777C23.1084 90.1585 22.7991 89.8361 23.3145 89.4622C24.5903 88.5337 24.3584 83.5177 24.1264 82.8343C23.8944 82.1509 23.1986 80.913 23.1986 80.913C23.0955 80.4745 23.0697 79.9974 23.0955 79.4688C23.2372 80.9387 24.7965 82.0219 26.8455 81.6995C28.9332 81.3772 27.6058 82.3572 25.9434 83.1824Z" fill="#7A5C39"/>
</g>
<g style="mix-blend-mode:screen" opacity="0.5">
<path d="M23.3274 79.0441C23.1213 80.6947 25.0156 80.772 26.0208 80.6044C27.026 80.4368 27.9409 80.0757 27.8765 79.186C27.8378 78.6831 26.5105 77.8062 25.2862 77.7547C24.3326 77.716 23.4177 78.3349 23.3274 79.057V79.0441Z" fill="#3D2E1C"/>
</g>
<g style="mix-blend-mode:multiply" opacity="0.28">
<path d="M32.6832 67.0779C32.3353 69.4635 29.4615 74.5569 29.7192 76.994C29.9641 79.4311 29.7579 81.2234 28.9976 82.745C28.9203 82.8998 28.8558 83.1061 28.8043 83.3511C28.3919 85.2208 28.6883 89.2827 28.7656 90.1982C28.7656 90.3142 28.8172 90.4819 28.8172 90.4819C28.5079 90.3658 28.1342 90.1595 27.9795 89.734C27.8764 89.4245 25.6341 84.099 27.0001 83.119C28.3661 82.139 29.1136 81.1332 29.2553 79.4827C29.3842 77.9224 27.0388 75.0856 27.9151 73.7703C28.263 73.2416 29.1522 70.5982 28.3146 69.7085C27.2836 68.6124 25.6599 71.1398 23.0954 66.7298C23.0697 66.6911 22.6959 67.7485 21.9227 67.9677C21.3299 68.1353 20.75 68.1095 20.866 68.0063C22.3738 66.8974 21.9098 66.0206 21.6134 65.8529C21.5104 65.8013 21.1109 66.8587 21.1109 66.7298C21.1366 65.8916 20.8531 64.5635 20.7629 64.4474C20.7114 64.3829 20.531 64.86 20.2474 65.105C19.9897 65.3371 19.616 65.3371 19.616 65.3371C19.616 65.3371 20.0284 63.6608 19.7577 63.1321C19.6804 62.9903 19.0103 63.9961 18.7397 63.5963C18.7397 63.5963 18.9974 62.41 18.8943 62.0619C18.8299 61.804 18.7397 61.2366 18.5206 61.1979C18.2629 61.1592 17.8634 61.675 17.7861 61.5203C17.683 61.314 18.1984 60.45 18.2371 60.334C19.1263 58.1806 32.5157 63.7769 32.5157 63.7769C32.7605 65.1695 32.7863 66.3816 32.6832 67.065V67.0779Z" fill="#272438"/>
</g>
<path d="M25.08 89.9141L24.3583 92.9185L23.2629 94.2467C23.2629 94.2467 20.9691 95.562 20.9047 95.4846C20.9047 92.9314 23.7526 89.927 23.7526 89.927H25.08V89.9141Z" fill="#211C2E"/>
<path d="M29.2297 92.184C29.1652 94.0666 26.4075 95.1627 24.8739 95.614C24.2811 95.7945 22.7347 95.9364 22.7347 95.9364C22.7347 95.9364 22.5801 94.518 22.8507 93.2156C23.1858 91.6811 23.5079 91.0235 23.8816 90.3787C23.8816 90.3787 21.2785 92.5193 20.9177 95.4722C20.9177 95.4722 19.9512 93.2672 21.0723 91.5651C22.1419 89.9274 23.3275 89.4632 23.3275 89.4632C23.3275 89.4632 25.9822 89.3085 27.8637 90.108C27.9023 90.1209 27.9281 90.1338 27.9796 90.1595C28.2374 90.2498 28.5982 90.353 28.8302 90.4819C28.8302 90.4819 29.2812 90.7914 29.2426 92.184H29.2297Z" fill="#322E3D"/>
<path d="M29.2295 92.1844C29.1651 94.0671 26.4073 95.1631 24.8738 95.6144C25.0413 95.5242 27.7346 94.0928 28.4176 92.6873C28.9718 91.5139 28.2501 90.6242 27.9666 90.1729C28.2243 90.2631 28.5852 90.3663 28.8171 90.4952C28.8171 90.4952 29.2682 90.8047 29.2295 92.1973V92.1844Z" fill="#272438"/>
<path d="M63.921 54.8162C61.8848 60.0514 60.3513 60.4254 59.4879 64.7322C59.3848 65.2609 59.2817 65.8541 59.2044 66.5246C59.1786 66.7309 59.1528 66.9372 59.1271 67.1693C59.0755 67.6851 59.1271 68.1364 59.2044 68.562C59.2688 68.9875 59.3204 69.3743 59.243 69.7225C58.8822 71.2312 58.341 72.1209 57.8126 73.1009C56.975 74.6483 56.1502 76.4149 56.0342 81.1086C56.0342 81.2762 55.8925 81.418 55.6605 81.5341C55.4414 81.6501 55.145 81.7275 54.7971 81.7791C53.895 81.9209 52.7094 81.8564 51.8847 81.4825C51.7687 81.4309 51.6527 81.3793 51.5496 81.302C51.4723 81.2504 51.395 81.1988 51.3434 81.1472C51.2403 81.057 51.163 80.9538 51.0986 80.8507C50.8795 80.4767 50.8924 79.9867 51.279 79.3549C51.2919 79.3291 51.3177 79.3033 51.3305 79.2775C51.9491 78.3104 52.3615 77.0209 52.6192 75.5638C52.8899 73.9778 52.9672 72.2112 52.9543 70.4575V70.3414C52.9543 70.2125 52.9543 70.0836 52.9543 69.9933V69.8257C52.9414 69.2583 52.9156 68.7038 52.8899 68.1622C52.8899 68.1622 52.8899 68.072 52.8899 68.0333C52.8899 67.8786 52.877 67.7367 52.8641 67.5949C52.8641 67.5304 52.8641 67.453 52.8512 67.3757C52.8383 67.1564 52.8125 66.9372 52.7996 66.7309C52.7996 66.6922 52.7996 66.6536 52.7996 66.6149C52.7868 66.3699 52.761 66.1378 52.7352 65.8928C52.6837 65.4028 52.645 64.9386 52.5806 64.5001C52.5677 64.3841 52.5548 64.2809 52.5419 64.1778C52.5161 63.9972 52.4904 63.8167 52.4775 63.6362C52.4775 63.6104 52.4775 63.5846 52.4775 63.5588C52.4517 63.3783 52.4259 63.1978 52.4002 63.0172C52.4002 62.9914 52.4002 62.9528 52.3873 62.927C52.3486 62.6691 52.3228 62.4241 52.2842 62.2049C52.2842 62.1662 52.2842 62.1404 52.2713 62.1017C52.2584 62.0114 52.2455 61.9341 52.2326 61.8438C52.194 61.5988 52.1553 61.3796 52.1295 61.1733C52.1166 61.0701 52.0909 60.967 52.078 60.8767C52.0264 60.5672 51.9878 60.3996 51.9878 60.3996C52.1553 60.2836 54.8358 58.4009 55.1837 52.998C55.3255 50.7028 56.0987 48.1496 57.0652 45.7512C59.0755 40.7996 61.9235 36.5186 61.9235 36.5186C61.9235 36.5186 67.7741 44.9646 63.9596 54.7904L63.921 54.8162Z" fill="#87683D"/>
<g style="mix-blend-mode:multiply" opacity="0.28">
<path d="M57.7997 73.1006C56.962 74.648 56.1244 76.4145 56.0213 81.0953C56.0213 81.263 55.8795 81.4048 55.6476 81.5209L54.3331 79.9735C54.3331 79.9735 55.4672 78.3487 56.0213 76.4532C56.5754 74.5448 57.7997 73.1006 57.7997 73.1006Z" fill="#272438"/>
</g>
<g style="mix-blend-mode:multiply" opacity="0.28">
<path d="M56.1372 56.2729C53.3924 60.4766 53.1346 62.8621 53.2377 64.1645C53.2506 64.3192 53.2506 64.5126 53.2506 64.7318C53.2377 66.2405 52.9284 69.0387 52.9284 69.8381C52.9155 69.2708 52.8898 68.7163 52.864 68.1747C52.864 68.1747 52.864 68.0845 52.864 68.0458C52.864 67.891 52.8511 67.7492 52.8382 67.6074C52.8382 67.5429 52.8382 67.4655 52.8253 67.3881C52.8124 67.1689 52.7867 66.9497 52.7738 66.7434C52.7738 66.7047 52.7738 66.666 52.7738 66.6274C52.7609 66.3824 52.7351 66.1502 52.7094 65.9052C52.6578 65.4152 52.6063 64.951 52.5547 64.5126C52.5418 64.3966 52.5289 64.2934 52.516 64.1902C52.4903 64.0097 52.4645 63.8292 52.4516 63.6487C52.4516 63.6229 52.4516 63.5971 52.4516 63.5713C52.4258 63.3908 52.4001 63.2102 52.3743 63.0297C52.3743 63.0039 52.3743 62.9653 52.3614 62.9395C52.3227 62.6816 52.297 62.4366 52.2583 62.2174C52.2583 62.1787 52.2583 62.1529 52.2454 62.1142C52.2325 62.0239 52.2196 61.9466 52.2068 61.8563C52.1681 61.6113 52.1294 61.3921 52.1037 61.1858C52.0908 61.0826 52.065 60.9795 52.0521 60.8892C52.0006 60.5797 51.9619 60.4121 51.9619 60.4121C52.1423 60.3347 55.0934 58.9679 56.4723 53.7455C57.0651 51.5276 57.2713 49.7997 57.0393 45.7637C57.5419 48.665 57.9929 53.4618 56.1501 56.2729H56.1372Z" fill="#272438"/>
</g>
<path d="M51.2145 83.5844L48.7403 85.5959C48.7403 85.5959 48.4181 82.7333 50.4929 81.2633C52.5676 79.7933 52.1553 80.6186 52.1553 80.6186L51.2145 83.5973V83.5844Z" fill="#211C2E"/>
<path d="M56.0084 83.1325C55.6218 83.9706 54.7841 84.654 53.7789 85.1569C53.6372 85.2343 53.4826 85.2988 53.3408 85.3632C52.4129 85.763 51.5495 85.9822 51.1887 86.008C51.1372 86.008 51.0856 85.9822 51.0469 85.9435C50.5572 85.3761 51.614 81.0693 51.6655 80.8501C51.5495 80.9533 49.5907 82.7198 48.7531 85.5954C48.7531 85.5954 48.6113 85.5051 48.4309 85.3246C47.8639 84.7701 46.9103 83.4033 48.5985 81.4948C48.7144 81.3659 48.8433 81.2369 48.9851 81.0951C50.1835 79.9475 51.266 79.3543 51.266 79.3543C51.382 79.3285 51.5882 79.3285 51.8459 79.3543C52.0392 79.3672 52.2712 79.4059 52.5289 79.4446C53.0831 79.5477 53.7274 79.7154 54.346 79.9732C55.029 80.244 55.6475 80.618 56.0341 81.0951C56.0728 81.1467 56.4336 82.204 56.0084 83.1325Z" fill="#2E2A38"/>
<path d="M56.0084 83.1326C55.6218 83.9708 54.7841 84.6542 53.779 85.1571C53.6372 85.2345 53.4826 85.299 53.3408 85.3634C53.4439 85.2474 54.4749 83.9321 54.7455 82.3847C54.9259 81.379 54.6166 80.5021 54.3589 79.9863C55.0419 80.2571 55.6604 80.6311 56.047 81.1082C56.0857 81.1598 56.4465 82.2171 56.0213 83.1455L56.0084 83.1326Z" fill="#201E2E"/>
<g style="mix-blend-mode:multiply" opacity="0.28">
<path d="M52.9414 70.4572C52.9414 70.4572 52.9414 70.3798 52.9414 70.3411V70.4572C52.9543 72.2238 52.8769 73.9904 52.6063 75.5635C52.6321 75.4604 52.6579 75.3443 52.6836 75.2411C52.7223 75.1122 53.0187 74.3514 53.9208 74.3256C54.9002 74.2998 56.2404 73.0619 56.2404 73.0619C54.8615 73.6164 53.9079 73.1264 53.5342 72.8685C53.6759 72.5461 53.8306 72.2625 53.9723 72.0433C54.6167 70.9988 57.5033 69.5288 57.6837 69.4643C57.8641 68.0846 59.2173 66.6533 59.2173 66.6533L59.3977 65.3122C58.7662 65.0672 54.1399 64.229 52.9672 70.4572H52.9414ZM52.6836 75.1767C52.6836 75.1767 52.7223 75.0477 52.7352 74.9833L52.6836 75.1767Z" fill="#272438"/>
</g>
<path d="M68.1863 60.1152C68.0188 60.1926 67.8641 60.2699 67.6966 60.3473C56.6526 65.5697 57.3614 68.7804 57.4516 69.077L56.7557 67.8005L56.7815 69.2962L56.0985 68.4581L56.15 69.567L55.4413 68.097L55.815 69.6831C55.815 69.6831 54.4232 68.3162 54.4748 68.5741C54.5392 68.8449 55.2351 69.9926 55.2351 69.9926L53.5856 68.6386L54.6036 70.1731L53.1345 68.8191C53.2376 68.9352 53.9464 69.812 54.0753 70.3923C53.9851 70.2505 53.766 69.9539 53.4052 69.6573C53.2892 69.5541 53.1474 69.451 52.9928 69.3607C52.4773 69.0255 51.7428 68.7289 50.7247 68.6773C49.7066 68.6128 47.0906 70.2633 44.2297 70.3149C43.1215 70.3407 42.3225 70.3149 41.7426 70.2762C40.4539 70.1989 40.1833 70.0312 39.9771 69.9926C39.4359 69.9152 40.0287 71.0757 40.1317 71.282C39.99 71.0757 39.1652 69.9281 37.7863 70.0183C37.3224 70.0441 38.392 70.9854 38.392 70.9854C38.392 70.9854 35.3765 69.7991 33.7012 70.8436C33.7012 70.8436 32.7605 70.5341 32.361 70.2376C31.8069 69.8378 30.544 70.3665 30.2347 73.0615C30.2347 73.0615 30.2733 70.0441 29.178 69.1544C29.178 69.1544 29.3326 70.1215 28.946 70.6631C28.946 70.6631 27.8506 66.627 26.4846 65.8276C26.4846 65.8276 25.08 66.9107 25.6083 67.9165C26.3815 69.3607 27.1547 69.0512 27.3738 68.9223C27.0903 69.1544 25.8274 69.9926 24.5903 68.4323C23.1856 66.6657 23.6366 65.4149 23.6366 65.4149C23.6366 65.4149 22.3866 64.4607 22.348 66.3176C22.3093 68.1744 20.8273 68.0197 20.8273 68.0197C20.8273 68.0197 22.232 66.8076 21.6907 65.2989C21.1624 63.7902 21.0464 66.0081 21.0851 66.5883C21.0851 66.5883 20.9304 63.9836 20.5954 63.442C20.2474 62.9005 20.7113 65.2344 19.5773 65.3633C19.5773 65.3633 20.4149 63.442 19.5386 62.0236C19.5386 62.0236 19.4613 63.8547 18.701 63.6226C18.701 63.6226 19.0876 60.992 18.2113 60.3602C18.2113 60.3602 18.25 61.4176 17.7603 61.5465C17.7603 61.5465 16.8066 57.5491 14.3839 55.5247C14.3839 55.5247 14.1648 56.4273 14.6674 56.8012C14.4999 56.6981 12.9664 55.7052 13.4303 53.6162C13.4303 53.6162 13.005 53.5647 13.0952 54.8928C13.0952 54.8928 11.987 53.7194 12.5024 52.2236C12.5024 52.2236 11.7937 52.0173 11.8194 53.036C11.8194 53.036 11.188 51.9012 12.0256 50.6504C12.8504 49.3997 11.5102 49.3094 11.2267 50.9083C11.1236 51.5273 11.3426 51.7981 11.3942 51.8368C11.304 51.7723 10.2988 51.0244 10.9818 49.4641C11.6906 47.8265 11.5875 47.6331 11.5875 47.6331C11.5875 47.6331 10.6725 47.9168 10.737 48.987C10.737 48.987 10.0024 48.3165 10.8787 46.6273C10.8787 46.6273 10.1184 47.027 10.1184 47.6976C10.1184 47.6976 9.53848 47.1818 10.1957 45.441C10.1957 45.441 10.8529 42.3978 9.33229 43.8678C9.33229 43.8678 10.389 42.7589 10.273 40.4636C10.273 40.4636 9.74467 40.8504 9.21631 40.8118C9.21631 40.8118 9.77044 40.4249 10.0411 39.806C10.1699 39.5223 10.2344 39.187 10.1699 38.826C10.0797 38.3489 9.8091 37.1626 9.83488 35.7441C9.87354 33.6939 10.5436 31.1536 13.3014 29.5933C17.9664 26.9628 26.6264 12.611 32.593 11.876C32.593 11.876 39.4359 28.0331 52.516 25.596C67.3487 22.8365 76.988 26.0473 79.5267 40.2831C80.5963 46.2533 79.3334 54.6349 68.1992 60.1281L68.1863 60.1152Z" fill="#A17B48"/>
<g style="mix-blend-mode:multiply" opacity="0.41">
<path d="M40.1575 71.2953C40.0157 71.089 39.191 69.9413 37.8121 70.0316C37.3482 70.0574 38.4178 70.9987 38.4178 70.9987C38.4178 70.9987 35.4023 69.8124 33.727 70.8569C33.727 70.8569 32.7862 70.5474 32.3868 70.2508C31.8326 69.8511 30.5697 70.3798 30.2604 73.0748C30.2604 73.0748 30.2991 70.0574 29.2037 69.1677C29.2037 69.1677 29.3584 70.1348 28.9718 70.6763C28.9718 70.6763 27.8764 66.6403 26.5104 65.8408C26.5104 65.8408 27.8893 66.0213 29.1393 67.4398C29.1393 67.4398 29.5517 66.5887 29.2939 66.0729C29.2939 66.0729 30.5826 66.2277 30.7759 67.7363C30.9692 69.245 33.5079 69.0387 33.5466 68.5745C33.5466 68.5745 32.7347 68.9742 32.245 68.1748C31.7424 67.3882 32.9796 66.8853 32.9796 66.8853C32.9796 66.8853 34.7966 68.265 34.7579 69C34.7579 69 35.093 68.3682 34.2811 66.9369C34.2811 66.9369 35.8018 67.3882 36.0982 68.5358C36.3946 69.6835 37.2966 68.9871 37.2966 68.9871C37.2966 68.9871 36.4976 68.9871 36.459 68.5745C36.4203 68.1619 36.691 67.3753 36.3043 67.0142C36.3043 67.0142 36.8585 66.8208 37.3095 67.5945C37.7606 68.3682 39.4101 67.2979 39.191 66.4984L41.7941 70.3024C40.5054 70.225 40.2348 70.0574 40.0286 70.0187C39.4874 69.9413 40.0802 71.1019 40.1833 71.3082L40.1575 71.2953Z" fill="#908DA6"/>
</g>
<g style="mix-blend-mode:multiply" opacity="0.41">
<path d="M37.0774 38.1815C35.1444 39.7676 31.9871 41.1602 28.25 42.4755C25.9819 43.2749 23.005 42.901 21.3813 45.7765C20.1313 47.9815 19.9895 49.9802 18.8684 49.9802C16.7163 49.9931 12.8374 47.3626 12.077 45.7765C11.1878 43.9197 11.2265 41.7276 10.0409 39.8191C10.1698 39.5355 10.2342 39.2002 10.1698 38.8391C10.0796 38.362 9.80896 37.1757 9.83473 35.7573C15.1441 30.8186 33.2114 20.8252 33.2114 20.8252C33.2114 20.8252 34.9898 24.0102 36.2913 26.5634C37.5929 29.1165 40.1832 35.6412 37.0774 38.1944V38.1815Z" fill="#D4D4D4"/>
</g>
<g style="mix-blend-mode:multiply" opacity="0.41">
<path d="M11.4585 38.3741C11.4585 38.3741 12.0255 39.8828 16.2395 40.3341C20.4535 40.7854 21.6391 40.6436 24.0102 40.102C26.3814 39.5604 27.8376 40.5533 29.4614 39.8699C31.0851 39.1865 30.067 40.1665 31.3686 39.4959C32.6702 38.8254 32.0258 39.8312 33.5078 38.387C34.9898 36.9428 34.0362 38.7094 35.0542 37.1104C36.0723 35.5115 35.2862 37.7294 36.1238 35.8467C36.9615 33.9641 36.6264 36.0788 36.897 33.6675C37.1677 31.2562 36.5749 29.6959 36.1238 29.1673C35.6728 28.6386 11.4714 38.3741 11.4714 38.3741H11.4585Z" fill="#D4D4D4"/>
</g>
<g style="mix-blend-mode:multiply" opacity="0.41">
<path d="M54.1016 70.3923C54.0113 70.2505 53.7921 69.9539 53.4311 69.6573C53.315 69.5541 53.1732 69.451 53.0184 69.3607L53.1474 68.832C53.2505 68.9481 53.9598 69.8249 54.0887 70.3923H54.1016Z" fill="#615F75"/>
</g>
<g style="mix-blend-mode:multiply" opacity="0.41">
<path d="M69.0496 58.5028L68.1862 60.1147C68.0187 60.192 67.864 60.2694 67.6965 60.3468C56.6525 65.5691 57.3613 68.7799 57.4515 69.0765L56.7556 67.7999L56.7814 69.2957L56.0984 68.4575L56.1499 69.5665L55.4411 68.0965L55.8149 69.6825C55.8149 69.6825 54.4231 68.3157 54.4746 68.5736C54.5391 68.8444 55.2349 69.992 55.2349 69.992L53.5854 68.6381L54.6035 70.1725L53.1344 68.8186L53.6241 66.7941V64.3183C53.6241 64.3183 55.0416 64.5633 54.655 65.4531C54.655 65.4531 56.021 64.6536 55.9566 63.622C55.9566 63.622 56.5494 64.1249 56.2917 64.9889C56.2917 64.9889 57.7994 64.3699 57.9283 62.8612C57.9283 62.8612 58.5211 62.2939 58.4051 63.3641C58.3149 64.1636 58.1603 64.1765 58.0958 64.1249C58.2247 64.2539 58.6628 64.6278 58.9077 63.9186C59.2041 63.0933 59.6165 62.6162 58.9077 62.1391C58.1989 61.662 59.1783 60.811 59.436 60.927C59.7067 61.0431 60.6861 61.7652 60.3252 62.7065C60.3252 62.7065 61.15 61.8683 60.918 61.0689C60.918 61.0689 61.833 61.7781 61.7814 62.3454C61.7814 62.3454 63.7918 60.5015 64.1526 58.8768C64.1526 58.8768 64.7067 59.8439 64.1526 60.7336C64.2557 60.6175 65.0805 59.5989 65.3253 58.8768C65.5959 58.1031 66.5109 58.967 65.9181 59.4054C65.4155 59.7923 65.1836 59.7278 65.132 59.702C65.2093 59.7794 65.7635 60.2565 66.4465 59.702C67.2841 59.0057 66.7686 58.2578 66.7686 58.2578C66.7686 58.2578 67.8898 58.4254 67.4774 59.3281C67.065 60.2307 68.9981 58.5157 68.9981 58.5157L69.0496 58.5028Z" fill="#908DA6"/>
</g>
<path d="M9.62868 13.2558C9.62868 13.2558 9.39672 14.7903 6.90957 14.7129C5.00232 14.6613 0.93009 12.1468 0.736788 7.50474C0.543486 2.86263 2.88888 0 2.88888 0C2.88888 0 10.273 1.18632 12.9535 4.51316C16.0592 8.38158 9.62868 13.2558 9.62868 13.2558Z" fill="#A37D49"/>
<path d="M8.8556 13.526C8.8556 13.526 8.82983 13.5389 8.81694 13.5518C8.70096 13.6292 8.5592 13.7065 8.41745 13.7839C7.1932 14.3899 4.7576 14.0805 3.36582 12.662C1.41992 10.6505 1.11063 8.71626 1.0462 6.30494C0.95599 3.15863 3.34005 0.605469 3.34005 0.605469C3.34005 0.605469 10.0154 3.31336 10.518 6.88521C10.8531 9.23205 7.79888 8.62599 8.93292 9.60599C9.02313 9.67047 9.10045 9.76073 9.16488 9.8381C10.0541 10.8826 9.93809 12.8168 8.8556 13.5389V13.526Z" fill="#87683D"/>
<path d="M9.03593 11.2305L8.85552 13.0874V13.1905L8.80397 13.5645C8.73954 13.6032 8.66222 13.6547 8.5849 13.7063C8.53335 13.7321 8.46891 13.7708 8.41737 13.7966C8.00499 13.9255 7.33488 14.0545 6.71631 13.7966C5.73691 13.3968 6.31682 13.0358 5.77557 12.6876C5.24721 12.3395 4.91216 11.9526 4.55133 10.8566C4.1905 9.76053 4.30648 9.77343 3.04357 8.21316C1.78066 6.6529 3.37863 6.67869 3.43017 5.58264C3.48172 4.48659 3.04357 3.94501 3.88121 3.17132C5.27299 1.88185 9.69316 3.70001 10.5695 7.06553C10.6081 7.22027 9.02305 11.2305 9.02305 11.2305H9.03593Z" fill="#7D6038"/>
<path opacity="0.36" d="M9.11323 9.91625C9.11323 9.72283 12.3607 7.06652 9.70602 5.69967C8.81683 5.48046 8.48177 6.09941 8.95859 6.6152C8.2627 6.52494 7.52815 6.49915 7.51526 6.92467C7.50238 7.27283 8.31425 7.69836 8.49466 7.73704C8.09517 7.71125 7.06423 7.80152 7.52815 8.23994C7.76011 8.45915 7.92764 8.58809 8.03074 8.66546C7.65702 8.58809 6.54875 8.54941 6.61319 8.96204C6.66474 9.24573 7.43794 9.52941 7.65702 9.59388C7.51526 9.61967 6.83226 9.81309 6.81938 10.0452C6.7936 10.3418 7.2833 10.4965 7.3864 10.5223C7.25753 10.5223 6.3039 10.4191 6.43277 10.6899C6.51009 10.8576 7.29619 10.9865 7.46372 11.0381C7.29619 11.2057 5.78843 11.1541 6.87092 11.7215C7.14155 11.8634 7.51526 12.0826 7.51526 12.0826C7.51526 12.0826 6.69051 11.7731 6.58741 12.0826C6.52298 12.2373 6.85804 12.3147 7.11577 12.3534C7.2833 12.3791 7.37351 12.4178 7.41217 12.4436C7.33485 12.4178 7.11577 12.3534 6.85804 12.4049C6.52298 12.4694 6.38123 12.6241 6.38123 12.6241C6.38123 12.766 6.71628 12.7015 7.02557 12.766C7.29619 12.8176 7.54104 13.011 7.54104 13.011C7.54104 13.011 6.14926 12.9336 6.7034 13.2947C7.02557 13.5139 7.29619 13.5268 7.4766 13.501C7.25753 13.5655 6.92247 13.6815 6.93536 13.8234C6.96113 13.9652 7.65702 13.9136 7.94053 13.862L8.50755 11.9149C8.456 11.7215 9.07457 9.90336 9.08745 9.90336L9.11323 9.91625Z" fill="#BA8F56"/>
<path opacity="0.36" d="M7.56712 13.1406L7.52843 13.5146C7.46396 13.5533 7.38659 13.6048 7.30922 13.6564C7.16738 13.5275 7.37369 13.2954 7.56712 13.1535V13.1406Z" fill="#BA8F56"/>
<path d="M38.276 30.4958C38.276 30.7408 37.9925 30.3153 37.9796 30.5603C37.9796 30.715 38.1601 31.3469 38.1472 31.5016C38.1343 31.6434 37.941 31.3726 37.9152 31.5016C37.8894 31.7208 38.057 32.0045 38.0183 32.5848C37.941 33.4229 37.7219 32.5719 37.6832 32.7137C37.6059 33.049 37.6575 33.4874 37.5673 33.8097C37.3353 34.6092 37.2838 33.5776 37.142 33.8613C37.0518 34.0419 37.0131 35.0347 36.9229 35.2024C36.8327 35.37 36.6781 34.9703 36.575 35.125C36.459 35.2926 36.3817 36.0019 36.2528 36.1695C36.1111 36.3371 35.9435 35.989 35.7889 36.1437C35.66 36.2726 35.544 36.9174 35.4023 37.0334C35.2476 37.1753 35.093 36.9045 34.9255 37.0334C34.7837 37.1366 34.6291 37.6266 34.4873 37.7298C34.3069 37.8458 34.1136 37.5105 33.9332 37.6137C33.7528 37.7169 33.5595 38.2842 33.3662 38.3745C33.1857 38.4648 33.0955 38.0134 32.9151 38.0908C32.6961 38.194 32.3739 38.8129 32.1419 38.8903C31.9357 38.9676 31.9228 38.5679 31.7167 38.6195C31.4718 38.6969 31.0465 39.2126 30.8146 39.2642C30.6342 39.3029 30.3378 38.9419 30.1574 38.9676C29.8481 39.0192 29.629 39.4705 29.3197 39.5092C29.0749 39.535 28.8944 39.1353 28.6496 39.1353C28.1857 39.1482 27.6444 39.5608 27.1934 39.535C24.4743 39.3029 23.1727 39.0321 22.0516 38.8129H22.0258C20.7629 38.5679 19.6804 38.3874 17.0128 38.4132C13.121 38.4519 12.6184 39.7284 9.15186 39.0837C8.97145 39.0579 8.80392 39.0192 8.66216 38.9805C8.27556 38.8903 7.95339 38.7871 7.50235 38.6066C7.07709 38.4519 6.93533 38.0134 6.85801 37.9748C6.75492 37.9232 6.78069 38.2971 6.69048 38.2455C6.5745 38.1811 6.39409 37.6266 6.27811 37.5492C6.17501 37.4848 6.12346 37.9103 6.02037 37.8329C5.91728 37.7555 5.96882 37.2526 5.86573 37.1624C5.80129 37.1108 5.56933 37.4719 5.5049 37.4203C5.32448 37.2655 5.42758 36.5692 5.26005 36.4403C5.14407 36.3371 5.0152 37.0721 4.91211 36.9561C4.78324 36.8271 4.78324 36.0921 4.66726 35.9503C4.58994 35.8471 4.37086 36.3371 4.29354 36.234C4.20333 36.105 4.31931 35.2798 4.22911 35.1379C4.16467 35.0476 3.90694 35.6408 3.8425 35.5376C3.76518 35.3958 3.86827 34.7382 3.80384 34.5834C3.75229 34.4674 3.49456 34.8671 3.44301 34.7382C3.36569 34.5705 3.57188 33.9645 3.50744 33.784C3.44301 33.6163 3.12084 33.8613 3.08218 33.6808C3.03063 33.5003 3.30126 33.0748 3.2626 32.8942C3.22393 32.7395 2.88888 32.8169 2.8631 32.6492C2.83733 32.4687 3.1595 31.9271 3.13373 31.7337C3.12084 31.5403 2.76001 31.7079 2.76001 31.5145C2.76001 31.334 3.01775 30.8826 3.01775 30.6892C3.01775 30.4442 2.76001 30.4571 2.7729 30.1992C2.78578 29.9671 3.24971 29.49 3.27548 29.2579C3.30126 29.0129 2.90176 29.0129 2.94042 28.755C2.97909 28.51 3.4559 28.0071 3.50744 27.7492C3.57188 27.4526 3.23682 27.414 3.31414 27.1045C3.40435 26.7821 3.50744 26.4469 3.62343 26.1116C5.13118 21.6371 6.14924 20.4379 6.52296 19.9866C6.6776 19.8061 6.72914 19.7416 6.6776 19.6384C6.4843 19.2645 6.61316 8.52317 12.206 3.63607C17.7731 -1.16078 26.098 0.360803 28.8042 1.94686C33.3533 4.61607 33.7399 7.86554 33.9718 16.5308C34.0105 18.0008 34.4873 19.2387 35.1317 20.4637C35.1317 20.4637 35.1317 20.4637 35.1317 20.4766C35.3507 20.8763 35.5698 21.2761 35.8018 21.6758C36.6265 23.0942 37.1807 25.08 37.825 26.8466C37.9668 27.2205 38.1343 27.659 38.1214 27.7879C38.1085 28.0071 37.825 27.7363 37.8637 27.8911C37.9539 28.3424 38.1601 28.51 38.2116 28.9226C38.3276 29.8382 37.9539 28.9613 37.9796 29.2837C38.0054 29.5932 38.2632 30.1863 38.2632 30.4958H38.276Z" fill="#B0874F"/>
<path d="M26.3686 30.084C26.3686 30.084 26.3428 30.1098 26.317 30.1227C25.6469 30.6771 25.183 32.1858 23.3402 34.9324C21.4458 37.7177 19.4097 37.7177 17.5282 37.3953C17.5153 37.3953 17.4896 37.3953 17.4767 37.3953C17.322 37.3695 17.1803 37.3308 17.0385 37.2664C15.389 36.6474 14.3065 34.4037 14.3065 34.4037C14.3065 34.4037 20.4406 34.1587 21.4071 33.9137C22.3737 33.6687 24.4098 31.9795 24.8222 31.1929C25.1185 30.6256 25.8273 30.2903 26.1753 30.1485C26.1753 30.1485 26.2268 30.1356 26.2397 30.1227C26.2397 30.1227 26.317 30.0969 26.3299 30.0969L26.3686 30.084Z" fill="#A17B48"/>
<g style="mix-blend-mode:multiply" opacity="0.41">
<path d="M26.3169 30.1348C25.6468 30.6892 25.1829 32.1979 23.34 34.9445C21.4457 37.7298 19.4096 37.7298 17.5281 37.4074L17.0255 37.2656C17.0255 37.2656 20.8142 37.5363 22.206 35.5763C23.5978 33.6163 25.4664 30.5861 26.1623 30.1606C26.1623 30.1606 26.2138 30.1477 26.2267 30.1348C26.2267 30.1348 26.2525 30.1348 26.2782 30.1348H26.3169Z" fill="#D3D2D4"/>
</g>
<path d="M27.9149 29.8641C27.8634 30.2639 27.0258 30.5476 26.8711 30.5604C26.6778 30.5862 26.8196 29.9802 26.5232 29.9931C26.3814 29.9931 26.0206 30.2381 25.5953 30.5733C25.1185 30.9602 24.7577 31.6952 24.3711 32.211C23.6365 33.191 22.4509 33.552 21.7422 33.8873C21.0334 34.2354 19.7705 34.1065 19.7705 34.1065L23.4432 30.9473C23.4432 30.9473 23.5592 30.6249 23.7525 30.1478C23.6752 29.5804 23.4819 28.7681 23.0566 28.7294C22.3865 28.6649 17.9148 25.4026 19.2292 24.6547C20.5437 23.8939 19.8607 18.6328 19.8607 18.6328C19.8607 18.6328 21.2782 18.8262 22.3736 21.1473C24.2293 25.106 25.4278 25.4283 25.7628 26.1504C26.2783 26.6276 27.2319 28.781 27.6959 29.4386C27.799 29.5547 27.8505 29.6449 27.8763 29.6836C27.8763 29.6836 27.8763 29.6965 27.8763 29.7094C27.9021 29.761 27.9021 29.8125 27.8892 29.8641H27.9149Z" fill="#A17B48"/>
<path d="M27.1161 29.6713C27.1161 29.6713 27.0517 29.4779 26.6264 29.6068C25.6341 29.8905 23.714 30.69 23.5465 31.1155C23.4047 31.4508 23.2629 31.8505 23.2629 31.8505C23.2629 31.8505 24.1006 31.8634 24.5258 31.6442C24.7836 31.5024 25.5697 30.561 26.2398 30.0324C26.6393 29.71 27.1161 29.6713 27.1161 29.6713Z" fill="#73442A"/>
<path d="M16.6904 18.3619C16.4069 18.7359 14.126 21.7919 14.2162 22.8364C14.3193 23.9582 12.8759 26.7177 12.8759 26.7177C12.8759 26.7177 12.7857 26.8209 12.6311 26.9627C12.1414 27.4269 10.9945 28.3811 10.2986 27.9943C10.2986 27.9943 12.8631 25.1961 13.5589 22.8364C14.2291 20.554 16.5487 18.4651 16.6904 18.3232C16.6904 18.3232 16.6776 18.3361 16.6647 18.349L16.6904 18.3619Z" fill="#9C7746"/>
<path d="M7.79865 19.1231C7.79865 19.1231 9.65435 13.862 9.65435 11.9407C9.65435 10.0194 8.45588 6.67963 12.4379 5.042C16.4199 3.40437 21.5489 1.44437 25.3376 3.85568C29.1263 6.267 30.7243 11.0381 30.6212 14.0941C30.5181 17.1502 32.4382 20.5802 31.7037 20.477C30.0155 20.232 25.8531 12.8949 21.42 15.5125C19.2164 16.8149 19.0617 18.4396 19.0617 18.4396C19.0617 18.4396 18.7009 18.1817 17.889 18.1688C17.2189 18.1688 16.6905 18.3881 16.6905 18.3881C16.6905 18.3881 16.2266 15.0354 14.5642 14.9194C12.2833 14.7517 9.83477 17.0986 7.78577 19.1488L7.79865 19.1231Z" fill="#B88D52"/>
<g style="mix-blend-mode:screen">
<path d="M17.3092 24.2818C17.5799 26.3837 13.9071 26.8737 12.6571 26.9768C12.8117 26.835 12.902 26.7318 12.902 26.7318C12.902 26.7318 14.3324 23.9595 14.2422 22.8505C14.152 21.806 16.4329 18.75 16.7164 18.376C16.7164 18.376 16.7293 18.3632 16.7422 18.3503C16.7422 18.3503 18.1727 17.9247 18.933 18.3503C19.0361 18.4018 19.0747 18.505 19.0747 18.6339C19.049 19.5237 17.0644 22.1026 17.335 24.2947L17.3092 24.2818Z" fill="#45351F"/>
</g>
<g style="mix-blend-mode:screen" opacity="0.5">
<path d="M24.268 12.4048C23.5721 14.2229 21.7551 13.8748 20.4148 15.3448C19.0746 16.8148 19.0488 18.62 19.0488 18.62C19.0488 18.4782 19.0102 18.3879 18.9071 18.3364C18.1596 17.9237 16.7163 18.3364 16.7163 18.3364C16.7163 18.3364 16.7034 18.3621 16.6906 18.375C16.6906 18.375 16.6906 15.9379 15.84 14.6098C14.9895 13.2687 13.0436 12.0308 13.8555 10.6253C14.6673 9.21978 18.0179 6.55057 21.871 8.63952C24.6159 10.1224 24.6288 11.4377 24.2551 12.4177L24.268 12.4048Z" fill="#544026"/>
</g>
<g style="mix-blend-mode:multiply" opacity="0.41">
<path d="M27.915 29.8644C27.8634 30.2641 27.0258 30.5478 26.8712 30.5607C26.6779 30.5865 26.7552 30.0707 26.4588 30.0965C26.317 30.0965 26.0077 30.2383 25.5954 30.5865C25.4794 30.6252 25.3376 30.6639 25.183 30.7283C25.183 30.7283 26.0593 28.807 26.8583 28.9876C27.2835 29.0778 27.5542 29.2841 27.7088 29.4647C27.8119 29.5807 27.8634 29.671 27.8892 29.7097C27.8892 29.7226 27.8892 29.7354 27.8892 29.7354V29.8902L27.915 29.8644Z" fill="#D3D2D4"/>
</g>
<g style="mix-blend-mode:multiply" opacity="0.41">
<path d="M38.2759 30.4964C38.2759 30.7414 37.9924 30.3158 37.9795 30.5608C37.9795 30.7156 38.1599 31.3474 38.147 31.5022C38.1341 31.644 37.9408 31.3732 37.915 31.5022C37.8893 31.7214 38.0568 32.0051 38.0181 32.5853C37.9408 33.4235 37.7217 32.5724 37.6831 32.7143C37.6058 33.0495 37.6573 33.4879 37.5671 33.8103C37.3351 34.6098 37.2836 33.5782 37.1418 33.8619C37.0516 34.0424 37.013 35.0353 36.9228 35.2029C36.8326 35.3706 36.6779 34.9708 36.5748 35.1256C36.4588 35.2932 36.3815 36.0024 36.2526 36.1701C36.1109 36.3377 35.9434 35.9895 35.7887 36.1443C35.6599 36.2732 35.5439 36.9179 35.4021 37.034C35.2475 37.1758 35.0928 36.9051 34.9253 37.034C34.7836 37.1372 34.6289 37.6272 34.4872 37.7303C34.3067 37.8464 34.1134 37.5111 33.933 37.6143C33.7526 37.7174 33.5593 38.2848 33.366 38.3751C33.1856 38.4653 33.0954 38.014 32.915 38.0914C32.6959 38.1945 32.3737 38.8135 32.1418 38.8908C31.9356 38.9682 31.9227 38.5685 31.7165 38.6201C31.4716 38.6974 31.0464 39.2132 30.8144 39.2648C30.634 39.3035 30.3376 38.9424 30.1572 38.9682C29.8479 39.0198 29.6288 39.4711 29.3195 39.5098C29.0747 39.5356 28.8943 39.1358 28.6494 39.1358C28.1855 39.1487 27.6443 39.5614 27.1932 39.5356C24.4741 39.3035 23.1725 39.0327 22.0514 38.8135C25.4664 39.1101 24.9509 39.1874 27.9149 38.5814C30.8788 37.9882 26.6133 37.279 29.7964 37.1243C32.9794 36.9695 32.0644 34.4422 32.0644 34.4422C33.3145 34.8419 33.9459 31.8116 33.9459 31.8116C34.1908 32.9851 34.0232 33.5008 33.9846 33.5653C34.0361 33.488 34.3583 32.9851 34.5129 32.3403C34.5902 31.9922 34.5387 31.3345 34.5387 31.2314C34.5516 31.3732 34.8738 31.7472 34.9382 32.263C35.0155 32.7916 34.8738 33.4106 34.8609 33.5008C34.9124 33.3848 35.3119 32.4048 36.5233 30.5737C37.7862 28.6653 35.2733 20.8382 35.1444 20.4385C35.3635 20.8382 35.5825 21.238 35.8145 21.6377C36.6392 23.0561 37.1934 25.0419 37.8377 26.8085C37.9795 27.1824 38.147 27.6208 38.1341 27.7498C38.1212 27.969 37.8377 27.6982 37.8764 27.853C37.9666 28.3043 38.1728 28.4719 38.2243 28.8845C38.3403 29.8001 37.9666 28.9232 37.9924 29.2456C38.0181 29.5551 38.2759 30.1482 38.2759 30.4577V30.4964Z" fill="#D4D4D4"/>
</g>
<path d="M28.0309 26.9244C27.9149 27.4273 27.7474 27.8528 27.5541 28.2268C27.4123 28.5105 27.2319 28.7684 27.0386 28.9876C26.5747 29.5678 26.0205 30.0063 25.5051 30.3931C25.2473 30.5736 24.9896 30.7155 24.719 30.8057C23.7009 31.1668 22.7215 30.8702 22.6313 30.4189C22.5411 29.9289 23.5849 28.9876 24.5514 28.1107C24.9509 27.7497 25.3375 27.3886 25.6339 27.0792C25.7628 26.9373 25.8917 26.7955 25.969 26.6794C26.5102 26.0089 26.6005 25.5576 26.8195 24.1778C26.9355 23.4299 27.0773 22.0244 27.4381 22.0244C27.4768 22.0244 27.5283 22.0631 27.567 22.1147C27.9536 22.5918 28.4948 24.8999 28.0309 26.9115V26.9244Z" fill="#D9BE9A"/>
<g style="mix-blend-mode:multiply" opacity="0.41">
<path d="M24.7076 30.8063C23.6889 31.1674 22.7089 30.8708 22.6186 30.4195C22.5284 29.9295 23.5728 28.9882 24.5399 28.1113C24.2434 28.7947 24.5786 28.8334 24.5399 29.62C24.527 30.0455 24.166 30.5226 24.6947 30.8063H24.7076Z" fill="#CBBAE0"/>
</g>
<g style="mix-blend-mode:multiply" opacity="0.41">
<path d="M28.0317 26.925C27.9157 27.4279 27.748 27.8534 27.5546 28.2273C27.4128 28.511 27.2322 28.7689 27.0388 28.9881C28.1736 26.6542 28.1478 25.0166 27.9028 23.4176C27.8125 22.7858 27.5675 22.1152 27.5675 22.1152C27.9543 22.5923 28.4959 24.9005 28.0317 26.9121V26.925Z" fill="#CBBAE0"/>
</g>
<path d="M27.4392 22.0246C27.4392 22.0246 27.2329 23.3141 27.0653 24.2554C26.8977 25.2096 26.5237 26.3572 25.9692 26.6667C26.5108 25.9962 26.6011 25.5449 26.8203 24.1651C26.9363 23.4172 27.0782 22.0117 27.4392 22.0117V22.0246Z" fill="#F2D4AC"/>
<path d="M23.985 29.851C23.985 29.851 23.8561 28.7421 24.475 28.1747C25.094 27.6073 23.9721 27.2979 23.9721 27.2979L23.3918 28.4842L23.985 29.851Z" fill="#A17B48"/>
<path d="M6.96116 25.803C6.96116 26.2285 7.02559 26.5895 7.1158 26.9248C7.37354 27.8274 7.88901 28.4593 8.36582 29.0267C8.53335 29.2201 8.72665 29.3748 8.91995 29.4909C9.66739 29.9551 10.505 29.8906 10.6468 29.5553C10.8014 29.1685 10.1442 28.2401 9.51275 27.3761C9.25501 27.0151 9.01016 26.6669 8.82975 26.3574C8.30139 25.4677 8.31427 25.184 8.37871 23.8301C8.41737 23.2111 8.55912 22.0635 8.26273 21.999C8.22407 21.999 8.18541 21.999 8.14675 22.0506C7.76014 22.3601 6.90961 24.1138 6.93539 25.803H6.96116Z" fill="#D9BE9A"/>
<g style="mix-blend-mode:multiply" opacity="0.41">
<path d="M8.93286 29.478C9.68076 29.9422 10.5189 29.8778 10.6608 29.5425C10.8155 29.1557 10.1579 28.2272 9.52602 27.3633C9.52602 27.4406 9.5776 28.0209 9.52602 28.4078C9.47444 28.7559 9.5647 29.3491 8.93286 29.4909V29.478Z" fill="#CBBAE0"/>
</g>
<path d="M6.96122 25.8037C6.96122 26.2292 7.0257 26.5902 7.11596 26.9255C7.58017 27.0545 7.19333 25.6231 7.21912 24.9526C7.24491 24.2692 8.03149 22.8766 8.21201 22.3995C8.40543 21.9095 8.16043 22.0513 8.16043 22.0513C7.77359 22.3608 6.92254 24.1145 6.94833 25.8037H6.96122Z" fill="#F2D4AC"/>
<g style="mix-blend-mode:multiply" opacity="0.41">
<path d="M23.8943 30.8311C23.8943 30.8311 24.0103 31.1792 23.1985 32.0947C22.7345 32.6234 21.4201 32.9845 20.6469 33.6808C19.2164 34.9703 17.3607 35.7439 15.5824 35.2282C11.3039 33.9903 23.8943 30.8311 23.8943 30.8311Z" fill="#6F48A1"/>
</g>
<path d="M21.3429 33.0109C20.7501 33.2946 19.5387 34.5583 17.8119 35.0354C17.4768 35.1386 17.116 35.203 16.7423 35.2288C14.8479 35.3449 13.25 33.6428 10.8788 32.3662C10.17 31.9794 9.71898 31.3733 9.53856 30.7028C9.46124 30.4191 9.43547 30.1225 9.44835 29.8259C9.51279 28.9104 10.0154 28.0336 10.9948 27.5436C13.469 26.3057 14.1649 24.8873 15.183 24.307C16.0722 23.8041 17.2706 23.7525 18.3274 24.1523C19.1006 24.4488 19.7965 25.0033 20.2346 25.7899C21.2913 27.6854 23.2372 27.0278 23.8429 29.1425C24.4873 31.3862 23.0053 32.2373 21.33 33.0109H21.3429Z" fill="#DB8888"/>
<path d="M12.5411 30.7534C12.5411 30.7534 11.4973 30.5987 11.5617 29.9539C11.6261 29.3092 12.5411 28.3292 13.4947 28.3937C14.4483 28.4581 14.6674 28.8708 14.6932 28.9094C14.719 28.9481 12.5282 30.7534 12.5282 30.7534H12.5411Z" fill="#FFABAB"/>
<path d="M18.8944 30.9474C18.8944 30.9474 18.0697 30.9087 17.8506 29.9158C17.6573 29.039 18.0825 28.4329 19.0362 28.4845C19.9898 28.5361 20.3249 28.9874 20.3506 29.0261C20.3764 29.0648 18.9073 30.9474 18.9073 30.9474H18.8944Z" fill="#FFABAB"/>
<path d="M14.1777 30.7404C14.1004 30.7791 14.0231 30.792 13.9329 30.8178C13.3014 30.9338 11.9483 30.8178 11.7164 30.2504C11.4844 29.6701 12.4251 28.6644 13.4303 28.5096C13.5205 28.5096 13.5978 28.4838 13.6751 28.4838C14.4612 28.4451 14.835 28.8836 14.8865 29.3994C14.9509 29.928 14.6803 30.5212 14.1777 30.7404Z" fill="#B05D5D"/>
<path d="M14.1778 30.7404C13.4948 30.7791 12.4896 30.5986 12.3092 30.1472C12.103 29.6315 12.8118 28.7804 13.6752 28.4838C14.4613 28.4451 14.835 28.8836 14.8866 29.3994C14.951 29.928 14.6804 30.5212 14.1778 30.7404Z" fill="#8F4B4B"/>
<path d="M21.0979 30.3806C20.8788 30.9222 19.5128 31.0641 18.8942 30.948C18.8298 30.948 18.7654 30.9222 18.7138 30.8964C18.1726 30.6901 17.8762 30.0712 17.9406 29.5296C18.005 28.9622 18.4561 28.4851 19.3968 28.6399C19.5128 28.6527 19.6417 28.6914 19.7576 28.743C20.6082 29.0525 21.3041 29.8906 21.0979 30.3935V30.3806Z" fill="#B05D5D"/>
<path d="M21.0979 30.3798C20.8789 30.9214 19.5129 31.0633 18.8943 30.9472C18.8299 30.9472 18.7654 30.9214 18.7139 30.8956C18.3917 30.5991 18.2371 30.1348 18.3015 29.7222C18.3659 29.1677 18.8427 28.6777 19.7577 28.7293C20.6082 29.0388 21.3041 29.877 21.0979 30.3798Z" fill="#8F4B4B"/>
<path d="M18.3274 24.1523C16.5232 23.688 15.1959 24.2296 14.8866 24.7583C13.9845 26.3186 12.2835 27.5694 10.9303 27.9433C10.0412 28.1883 9.66744 29.2328 9.44836 29.8259C9.5128 28.9233 10.0154 28.0336 10.9948 27.5436C13.469 26.3057 14.1649 24.8873 15.183 24.307C16.0722 23.8041 17.2707 23.7525 18.3274 24.1523Z" fill="#FFABAB"/>
<g style="mix-blend-mode:multiply" opacity="0.44">
<path d="M17.799 35.0358C17.4639 35.1389 17.1031 35.2034 16.7294 35.2292C14.835 35.3452 13.237 33.6431 10.8659 32.3665C10.1571 31.9797 9.70605 31.3737 9.52563 30.7031C9.82203 31.1544 10.2988 31.6831 10.9561 31.8121C12.1674 32.07 14.7577 31.6187 15.5438 32.5084C16.3299 33.3981 16.2139 34.8423 17.1288 34.8423C17.4124 34.8423 17.6314 34.9326 17.7861 35.0358H17.799Z" fill="#DB8888"/>
</g>
<path d="M27.348 20.2706C29.1264 21.8566 31.7038 20.464 31.7038 20.464C31.7038 20.464 30.5053 19.2261 29.6161 17.4595C29.6161 17.4595 29.6161 17.4595 29.6161 17.4337C29.6161 17.4337 29.6032 17.4079 29.5903 17.395C29.5903 17.3821 29.5775 17.3564 29.5646 17.3435C29.5517 17.3306 29.5388 17.3048 29.5259 17.2919C29.5259 17.2919 29.5001 17.2274 29.4873 17.2016C29.4615 17.1758 29.4486 17.15 29.4486 17.1242C29.397 17.0082 29.3455 16.8792 29.2939 16.7632C29.2811 16.7374 29.2682 16.7245 29.2682 16.6987C28.9073 15.8348 28.5207 14.7129 28.0182 13.965C27.4898 13.1785 26.3815 12.7014 25.3506 12.9206C25.1057 13.0237 24.848 13.1656 24.5903 13.359C23.9202 13.8877 23.3918 14.6098 22.9794 15.3319C22.9021 15.4608 22.8377 15.5769 22.7861 15.6929C22.5928 16.0411 22.4382 16.3892 22.3093 16.6987C22.2964 16.7245 22.2835 16.7374 22.2835 16.7503C22.2706 16.8019 22.2449 16.8406 22.232 16.8792C22.0129 17.4079 21.8583 17.7948 21.7423 17.885C21.4072 18.1816 24.1908 17.4337 27.348 20.2577V20.2706Z" fill="#9C7746"/>
<path opacity="0.32" d="M28.8042 19.1233C28.8042 19.1233 28.2243 16.3767 26.8325 15.4096C25.4407 14.4425 24.3583 15.5643 23.9717 16.4412C23.6366 17.2149 23.4562 17.3954 23.4562 17.3954C23.4562 17.3954 24.7449 18.427 25.415 18.6204C26.5232 18.9428 28.4563 18.4528 28.8171 19.1233H28.8042Z" fill="#4F3025"/>
<path d="M22.2319 16.8919C22.3479 16.6856 23.2758 14.9577 24.0747 14.0422C24.9253 13.0622 26.781 13.2685 27.5671 14.0551C28.1599 14.6483 28.9975 16.273 29.397 17.0467C29.3583 16.9564 29.3197 16.8662 29.281 16.7759C29.2681 16.7501 29.2552 16.7372 29.2552 16.7114C28.8944 15.8475 28.5078 14.7256 28.0052 13.9777C27.4769 13.1912 26.3686 12.714 25.3377 12.9333C25.2603 12.9462 25.183 12.9719 25.1186 12.9977C24.2938 13.2556 23.5077 14.3775 22.9794 15.3575C22.902 15.4864 22.8376 15.6025 22.7861 15.7185C22.6959 15.899 22.6057 16.0667 22.5412 16.2214C22.5412 16.2214 22.5412 16.2472 22.5283 16.2472C22.4381 16.4406 22.3608 16.6083 22.3221 16.7243C22.3093 16.7501 22.2964 16.763 22.2964 16.7759C22.2577 16.8533 22.2448 16.8919 22.2319 16.9177V16.8919Z" fill="#69502F"/>
<path d="M27.4725 17.4841C27.7995 16.6257 27.3474 15.6566 26.4627 15.3197C25.5781 14.9828 24.5958 15.4055 24.2689 16.264C23.9419 17.1224 24.394 18.0915 25.2787 18.4284C26.1634 18.7654 27.1456 18.3426 27.4725 17.4841Z" fill="#3E1506"/>
<path d="M26.9176 17.9294C27.39 17.3225 27.2401 16.4156 26.5826 15.9038C25.9251 15.3919 25.0091 15.469 24.5366 16.0759C24.0642 16.6828 24.2141 17.5897 24.8716 18.1016C25.5291 18.6134 26.4451 18.5363 26.9176 17.9294Z" fill="#FBFCFA"/>
<path d="M25.8422 18.2552C26.5507 18.1874 27.0711 17.5691 27.0046 16.8744C26.9381 16.1797 26.3099 15.6715 25.6014 15.7394C24.8929 15.8073 24.3725 16.4255 24.439 17.1202C24.5055 17.815 25.1337 18.3231 25.8422 18.2552Z" fill="#574100"/>
<path d="M25.7824 17.6261C26.1369 17.5922 26.3973 17.283 26.3641 16.9357C26.3308 16.5883 26.0165 16.3342 25.6621 16.3682C25.3076 16.4022 25.0472 16.7113 25.0805 17.0587C25.1137 17.406 25.428 17.6601 25.7824 17.6261Z" fill="#3E1506"/>
<path d="M26.4535 16.8903C26.5555 16.8584 26.5985 16.7058 26.5497 16.5494C26.5008 16.3931 26.3786 16.2922 26.2766 16.3241C26.1747 16.356 26.1316 16.5086 26.1805 16.6649C26.2293 16.8213 26.3516 16.9222 26.4535 16.8903Z" fill="white"/>
<path d="M11.1106 19.5486C9.55128 20.9412 7.2832 19.7162 7.2832 19.7162C7.2832 19.7162 8.32703 18.6202 9.11313 17.0857C9.11313 17.0857 9.11313 17.0857 9.11313 17.0728C9.11313 17.0728 9.11313 17.047 9.12602 17.0341C9.12602 17.0341 9.12602 17.0083 9.1389 16.9954C9.1389 16.9954 9.15179 16.9696 9.16468 16.9438C9.16468 16.9438 9.19045 16.8923 9.20334 16.8665C9.21622 16.8407 9.22911 16.8149 9.242 16.802C9.29354 16.6988 9.3322 16.5957 9.38375 16.4796C9.38375 16.4667 9.39664 16.4409 9.40953 16.4281C9.71881 15.6802 10.0668 14.6873 10.5049 14.0296C10.9688 13.3333 11.9353 12.9207 12.8503 13.1141C13.0694 13.2044 13.2885 13.3204 13.5075 13.5009C14.1003 13.9652 14.5642 14.597 14.9122 15.2417C14.9766 15.3449 15.0282 15.4481 15.0797 15.5512C15.2472 15.8607 15.3761 16.1573 15.4921 16.4281C15.4921 16.4409 15.505 16.4667 15.5179 16.4796C15.5179 16.5183 15.5436 16.557 15.5694 16.5957C15.7627 17.0599 15.9045 17.3952 15.9947 17.4854C16.2911 17.7433 13.8555 17.0857 11.0719 19.5615L11.1106 19.5486Z" fill="#9C7746"/>
<path opacity="0.32" d="M9.82202 18.5428C9.82202 18.5428 10.17 15.8607 11.3813 15.0096C12.5927 14.1586 13.7654 15.5125 14.0618 16.196C14.3582 16.8794 14.5128 17.0341 14.5128 17.0341C14.5128 17.0341 13.3788 17.9367 12.7989 18.1044C11.8324 18.3881 10.1313 17.9625 9.82202 18.5428Z" fill="#4F3025"/>
<path d="M12.9166 18.0496C13.7547 17.7304 14.1834 16.8135 13.8742 16.0016C13.565 15.1897 12.6349 14.7903 11.7968 15.1095C10.9587 15.4287 10.53 16.3457 10.8392 17.1575C11.1484 17.9694 12.0785 18.3688 12.9166 18.0496Z" fill="#3E1506"/>
<path d="M13.3007 17.7317C13.9188 17.2505 14.0582 16.3958 13.612 15.8226C13.1658 15.2494 12.303 15.1748 11.6848 15.656C11.0667 16.1372 10.9273 16.992 11.3735 17.5652C11.8197 18.1384 12.6826 18.2129 13.3007 17.7317Z" fill="#FBFCFA"/>
<path d="M13.7087 16.8103C13.7718 16.151 13.2773 15.5643 12.6043 15.4998C11.9312 15.4353 11.3344 15.9175 11.2713 16.5768C11.2083 17.236 11.7027 17.8228 12.3758 17.8873C13.0488 17.9518 13.6456 17.4696 13.7087 16.8103Z" fill="#574100"/>
<path d="M13.0937 16.7517C13.1249 16.4256 12.8801 16.1354 12.5469 16.1034C12.2137 16.0715 11.9183 16.31 11.8871 16.6361C11.8559 16.9622 12.1007 17.2524 12.4339 17.2844C12.767 17.3163 13.0624 17.0778 13.0937 16.7517Z" fill="#3E1506"/>
<path d="M13.1807 16.5978C13.2759 16.568 13.3169 16.4282 13.2723 16.2854C13.2277 16.1427 13.1144 16.0511 13.0192 16.0809C12.9241 16.1106 12.8831 16.2505 12.9277 16.3932C12.9723 16.536 13.0856 16.6276 13.1807 16.5978Z" fill="white"/>
<path d="M15.5953 16.5959C15.4922 16.4154 14.6803 14.8938 13.9715 14.0943C13.2241 13.2433 11.6004 13.4109 10.9045 14.0943C10.389 14.6101 9.64158 16.0285 9.30652 16.7119C9.34518 16.6346 9.37095 16.5572 9.40961 16.4669C9.40961 16.454 9.4225 16.4283 9.43539 16.4154C9.74467 15.6675 10.0926 14.6746 10.5308 14.0169C10.9947 13.3206 11.9612 12.908 12.8762 13.1014C12.9406 13.1014 13.005 13.1272 13.0695 13.153C13.7911 13.3851 14.4741 14.3651 14.9509 15.2161C15.0154 15.3193 15.0669 15.4225 15.1185 15.5256C15.1958 15.6804 15.2731 15.8351 15.3375 15.964C15.3375 15.964 15.3375 15.9769 15.3375 15.9898C15.4149 16.1575 15.4793 16.2993 15.518 16.4025C15.518 16.4154 15.5308 16.4411 15.5437 16.454C15.5695 16.5185 15.5953 16.5572 15.5953 16.5701V16.5959Z" fill="#69502F"/>
<path d="M44.6293 3.84221C44.1783 6.21484 42.2582 15.0091 37.2581 15.4733C34.0106 15.7827 32.6188 14.7641 32.6188 14.7641C32.6188 14.7641 34.0106 10.6635 33.173 8.47142C32.5673 6.88537 31.1497 5.8409 30.6729 5.00274C30.66 4.97695 30.6472 4.95116 30.6343 4.92537C30.4796 4.6159 30.4538 4.34511 30.66 4.07432C31.4204 3.04274 35.9952 0.592738 41.0597 0.863528C42.3226 0.928002 43.2633 0.953791 43.9721 0.966686C45.6603 0.992475 45.9824 0.902212 46.0469 0.850633C45.9051 1.03116 44.8226 2.82353 44.6293 3.84221Z" fill="#B0874F"/>
<path d="M43.7658 6.35727C43.3148 7.91753 41.0853 14.8033 37.3997 14.4938C36.7425 14.4423 36.2013 14.3778 35.776 14.3262C33.7656 14.0554 33.7785 13.7717 33.7785 13.7588C33.7785 13.7588 34.1265 13.2173 34.2425 12.3533C34.5131 10.4191 34.4358 7.14384 32.5156 6.62805C32.5156 6.62805 32.8378 5.11937 33.7656 4.53911C34.7708 3.92016 35.776 3.86858 36.794 3.75253C38.4564 3.572 44.8225 1.94727 44.8225 1.94727C44.8225 1.94727 44.204 4.86148 43.7658 6.35727Z" fill="#87683D"/>
<path d="M38.5724 9.34837C37.2966 10.8184 38.0827 10.8184 37.7863 11.8628C37.4899 12.9073 36.9358 13.1781 36.3559 13.5005C35.7889 13.8228 36.794 13.9647 35.776 14.3257C33.7656 14.055 33.7785 13.7713 33.7785 13.7584C33.7785 13.7584 34.1265 13.2168 34.2425 12.3528C34.5131 10.4186 34.4358 7.14337 32.5156 6.62758C32.5156 6.62758 32.8378 5.1189 33.7656 4.53864C34.7708 3.91969 35.6858 3.86811 36.8069 4.15179C38.1214 4.49995 37.7734 5.50574 37.9539 6.55021C38.1343 7.59469 39.8611 7.86548 38.5853 9.33548L38.5724 9.34837Z" fill="#7D6038"/>
<path d="M35.4925 11.3988C35.8662 11.4762 36.0337 11.6181 36.0337 11.6181C36.0208 11.7599 35.6471 11.6696 35.2992 11.7083C35.0028 11.747 34.7064 11.9275 34.7064 11.9275C34.7064 11.9275 36.3043 11.9275 35.66 12.237C35.2863 12.4304 34.977 12.4304 34.7837 12.3917C35.0414 12.4691 35.4151 12.5981 35.4022 12.727C35.3636 12.9204 34.2553 12.6496 34.2553 12.6496C34.2553 12.6496 35.2089 13.1267 34.8739 13.346C34.5775 13.5394 34.1651 13.4749 33.8043 13.7457C33.8558 13.6167 34.0105 13.346 34.0362 13.1654C34.1007 12.8044 34.0105 12.4304 33.7785 12.5336C33.7785 12.5207 34.2167 12.4046 34.2167 11.7599C34.2167 11.5278 33.9718 11.257 33.8172 11.1925C33.9074 11.1023 34.1651 10.6252 34.0362 10.2383C33.9074 9.87727 33.5594 9.56779 33.5594 9.56779C33.5594 9.56779 33.7785 9.20674 33.7527 9.03911C33.6625 8.47174 33.4177 8.12358 33.2373 8.22674C33.4435 7.98174 33.5465 7.91727 33.4563 7.71095C33.4048 7.60779 32.9151 7.47885 32.9151 7.47885C32.9151 7.47885 33.1471 7.092 33.0182 6.847C32.9409 6.67937 32.5027 6.62779 32.4512 6.6149C32.7862 5.82832 33.4435 5.377 34.3326 5.23516C35.7373 5.01595 34.3971 6.18937 34.0491 6.40858C34.0491 6.40858 36.7811 6.04753 35.7244 6.70516C35.0672 7.11779 34.6548 7.23385 34.4486 7.27253C34.8997 7.27253 35.9822 7.27253 35.4409 7.67227C35.1703 7.86569 34.9899 7.98174 34.861 8.04621C35.2734 7.99464 36.3559 7.8399 36.2657 8.23964C36.2012 8.51043 35.5569 8.75543 35.312 8.807C35.4667 8.84569 35.5956 8.93595 35.6084 9.15516C35.6342 9.43885 35.0801 9.5549 34.9512 9.58069C35.093 9.58069 36.2012 9.52911 36.0337 9.787C35.9435 9.94174 35.3249 10.0191 35.1316 10.0707C35.1832 10.0965 35.2218 10.161 35.2476 10.277C35.312 10.6896 37.1806 9.98043 35.5311 10.7412C35.2347 10.8831 34.7966 11.0507 34.7966 11.0507C34.7966 11.0507 35.7373 11.0378 35.8662 11.3344C35.9306 11.4891 35.544 11.2957 35.2476 11.3344C35.0543 11.3602 34.9641 11.386 34.9126 11.3988C35.0028 11.3731 35.2476 11.3344 35.5569 11.3988H35.4925Z" fill="#B88D52"/>
<g style="mix-blend-mode:screen" opacity="0.5">
<path d="M46.0469 0.851032C45.8665 1.03156 45.3768 1.32814 44.9258 1.40551C42.6835 1.84393 36.8586 1.99866 34.0364 2.93998C32.2967 3.52024 31.3302 4.50024 30.6859 4.97735C30.673 4.95156 30.6601 4.92577 30.6472 4.89998C30.4926 4.59051 30.4668 4.31972 30.673 4.04893C31.4333 3.01735 36.0081 0.567348 41.0726 0.838137C42.3355 0.902611 43.2763 0.9284 43.985 0.941295C45.6732 0.967085 45.9954 0.876821 46.0598 0.825242L46.0469 0.851032Z" fill="#544026"/>
</g>
<path d="M53.8047 67.7876C53.4181 70.2892 50.3382 75.6147 50.583 78.1808C50.8279 80.7469 50.583 82.6424 49.7711 84.2284C49.0237 85.6597 49.3717 90.9724 49.4619 92.0555C49.4619 92.1845 49.4747 92.249 49.4747 92.249C47.6062 92.6487 45.4283 92.5584 44.2685 92.2103C43.4953 91.9782 43.186 91.63 43.7272 91.2432C45.0803 90.2761 44.887 85.0021 44.6422 84.28C44.3973 83.5579 43.6757 82.2555 43.6757 82.2555C43.5726 81.7913 43.5597 81.2884 43.5855 80.7469C43.6113 80.2311 43.6757 79.6895 43.7659 79.135C44.0623 77.0203 44.5391 74.725 43.3922 73.0745C40.338 68.7547 38.8818 66.1758 38.1472 64.3448C38.1344 64.3061 38.1215 64.2803 38.1215 64.2803C37.4256 62.4879 37.4256 61.4305 37.3096 60.0766C37.0648 57.3429 41.6267 53.9645 46.253 54.8542C51.1114 55.7826 53.0831 60.6955 53.6758 64.3576C53.9207 65.8276 53.9336 67.0913 53.8176 67.8263L53.8047 67.7876Z" fill="#A17B48"/>
<g style="mix-blend-mode:screen" opacity="0.5">
<path d="M43.3793 73.0627C40.3252 68.743 38.8689 66.1641 38.1344 64.333C38.4823 64.9391 41.1499 69.5941 43.2505 70.6772C45.5057 71.8377 45.1835 76.222 44.668 77.1891C44.3458 77.7951 43.9592 78.3883 43.753 79.1233C44.0623 77.0085 44.5391 74.7133 43.3793 73.0627Z" fill="#7A5C39"/>
</g>
<g style="mix-blend-mode:screen" opacity="0.5">
<path d="M46.5493 84.6671C44.7967 85.5181 46.7426 89.1415 44.874 91.6431C44.6936 91.8881 44.5003 92.0687 44.2812 92.2105C43.508 91.9784 43.1859 91.6302 43.74 91.2434C45.0931 90.2763 44.8998 85.0023 44.655 84.2802C44.4101 83.5581 43.6885 82.2558 43.6885 82.2558C43.5854 81.7915 43.5725 81.2886 43.5982 80.7471C43.74 82.2944 45.3508 83.4421 47.5158 83.1197C49.7066 82.7973 48.3148 83.816 46.5493 84.6671Z" fill="#7A5C39"/>
</g>
<g style="mix-blend-mode:screen" opacity="0.5">
<path d="M43.843 80.2961C43.6111 82.024 45.6085 82.14 46.6652 81.9724C47.722 81.8048 48.6885 81.4308 48.6369 80.4895C48.5983 79.9608 47.2194 79.0195 45.9307 78.955C44.9255 78.9035 43.959 79.5482 43.8559 80.2961H43.843Z" fill="#3D2E1C"/>
</g>
<g style="mix-blend-mode:multiply" opacity="0.28">
<path d="M53.8046 67.789C53.418 70.2906 50.3381 75.6161 50.5829 78.1822C50.8278 80.7482 50.5829 82.6437 49.7711 84.2298C49.0236 85.6611 49.3716 90.9737 49.4618 92.0569C49.1396 91.9279 48.7401 91.7474 48.637 91.5669C48.4695 91.2703 47.1937 85.2098 48.637 84.1911C50.0932 83.1724 50.2865 82.5793 50.4541 80.8385C50.6087 79.2008 49.1783 77.1119 50.119 75.745C53.4696 70.8193 53.6629 64.3203 53.6629 64.3203C53.9077 65.7903 53.9206 67.054 53.8046 67.789Z" fill="#272438"/>
</g>
<path d="M45.57 91.7344L44.7839 94.8936L44.2813 95.332L41.7426 97.537C41.7426 97.537 41.7039 97.4983 41.6266 97.4081C41.6524 94.7131 44.1653 91.7344 44.1653 91.7344H45.57Z" fill="#211C2E"/>
<path d="M49.9129 94.1576C49.8227 96.1305 46.9102 97.2652 45.2865 97.7295C44.6679 97.91 44.2298 98.0002 44.2298 98.0002C44.2298 98.0002 44.1782 96.7366 44.2684 95.331C44.3458 94.1576 44.5133 92.8939 44.9128 92.2105C44.9128 92.2105 42.155 94.4413 41.7426 97.536C41.7426 97.536 41.704 97.4973 41.6266 97.4071C41.24 96.9171 40.1318 95.215 41.3174 93.4355C42.4643 91.7334 43.8303 91.1789 43.8303 91.1789C43.8303 91.1789 45.4154 90.1473 48.5984 91.5787C48.869 91.6947 49.1397 91.8237 49.4232 91.9784C49.4232 91.9784 49.9515 92.7005 49.8871 94.1576H49.9129Z" fill="#322E3D"/>
<path d="M49.913 94.158C49.8228 96.1309 46.9104 97.2657 45.2866 97.7299C45.2866 97.7299 48.3021 96.2083 49.0496 94.6867C49.6552 93.4359 48.8949 92.0562 48.6114 91.5791C48.882 91.6952 49.1527 91.8241 49.4362 91.9788C49.4362 91.9788 49.9645 92.7009 49.9001 94.158H49.913Z" fill="#272438"/>
<path d="M81.3053 48.3419C81.1635 50.3535 80.7383 52.4812 79.8877 54.6733C77.1944 61.6364 75.2485 61.0819 74.4108 68.793C74.282 69.9664 74.733 70.9077 74.5397 71.7072C74.1273 73.4222 73.5088 74.4538 72.9031 75.5756C71.9495 77.3422 70.9958 79.3538 70.8799 84.718C70.8799 84.9114 70.7123 85.079 70.4546 85.208C70.2097 85.3369 69.8618 85.4272 69.4623 85.4917C68.8437 85.5948 68.0963 85.6077 67.4004 85.5046C66.9494 85.4401 66.5112 85.324 66.1375 85.1693C66.0086 85.1048 65.8798 85.0404 65.7638 84.963C65.6736 84.8985 65.5963 84.8469 65.5189 84.7825C65.4803 84.7438 65.4416 84.7051 65.403 84.6664C65.3385 84.589 65.2741 84.5117 65.2225 84.4343C65.0035 84.0604 64.9906 83.5833 65.2741 83.003C65.3128 82.9127 65.3643 82.8225 65.4287 82.7193C65.4287 82.7193 65.4674 82.6548 65.4803 82.629C66.1891 81.5201 66.653 80.0501 66.9494 78.3867C67.2715 76.5427 67.3618 74.4667 67.336 72.4164C67.336 72.2617 67.336 72.1198 67.336 72.0167C67.336 72.0167 67.336 71.9006 67.336 71.8361C67.1942 66.3043 66.2019 61.0948 66.2019 61.0948C66.2019 61.0948 66.2793 61.0561 66.421 60.9917C66.421 60.9917 66.4339 60.9917 66.4339 60.9788C66.4339 60.9788 66.4468 60.9788 66.4597 60.9788C66.4726 60.9788 66.4854 60.9659 66.4983 60.953C66.6014 60.9014 66.7174 60.824 66.8592 60.7209C67.5808 60.2051 68.8051 59.109 70.068 56.8911C70.068 56.8911 70.068 56.8912 70.068 56.8783C70.5577 56.0143 71.0603 54.9827 71.5371 53.7448C71.6144 53.5385 71.6917 53.3322 71.769 53.113C71.769 53.113 71.769 53.113 71.769 53.1001C72.6067 50.7662 72.0654 45.0538 72.001 44.409C72.001 44.3961 72.001 44.3704 72.001 44.3575C74.2949 38.7096 77.5552 33.8096 77.5552 33.8096C77.5552 33.8096 77.5552 33.8096 77.5552 33.8225C77.7356 34.0933 80.0939 37.6264 80.996 42.8101C81.2924 44.5122 81.4341 46.3819 81.2924 48.3677L81.3053 48.3419Z" fill="#A17B48"/>
<g style="mix-blend-mode:multiply" opacity="0.28">
<path d="M72.8902 75.5879C71.9237 77.3545 70.983 79.366 70.8541 84.7303C70.8541 84.9237 70.6866 85.0913 70.4288 85.2203L68.934 83.4537C68.934 83.4537 70.2355 81.5968 70.867 79.4305C71.4984 77.2513 72.8902 75.6008 72.8902 75.6008V75.5879Z" fill="#272438"/>
</g>
<g style="mix-blend-mode:multiply" opacity="0.28">
<path d="M71.7045 73.7063C71.4983 73.7707 68.5859 74.7378 67.8514 75.9371C67.2972 76.8268 67.1941 77.0847 66.9364 78.4C67.2586 76.556 67.3488 74.48 67.323 72.4297C67.323 72.8681 67.4132 73.6676 68.2122 73.9642C68.9081 74.235 70.2097 74.0415 71.7174 73.7063H71.7045Z" fill="#272438"/>
</g>
<g style="mix-blend-mode:multiply" opacity="0.28">
<path d="M70.983 56.3499C67.8386 61.1597 67.5422 63.8804 67.6582 65.3633C67.7742 66.756 67.3103 70.792 67.2974 71.8365C67.1556 66.3047 66.1633 61.0952 66.1633 61.0952C66.1633 61.0952 69.7072 59.6252 71.3438 53.4615C72.0139 50.9341 72.2588 48.9483 72.001 44.332C72.581 47.646 73.0835 53.1391 70.9959 56.337L70.983 56.3499Z" fill="#272438"/>
</g>
<path d="M65.3643 87.5678L62.542 89.8631C62.542 89.8631 62.1683 86.5878 64.5524 84.9115C66.9364 83.2352 66.4467 84.1765 66.4467 84.1765L65.3771 87.5807L65.3643 87.5678Z" fill="#211C2E"/>
<path d="M70.8282 87.0647C70.3772 88.0189 69.4235 88.8055 68.2895 89.3728C68.122 89.4502 67.9544 89.5276 67.7869 89.6049C66.7302 90.0562 65.7379 90.3141 65.3384 90.3399C65.274 90.3399 65.2224 90.3141 65.1838 90.2626C64.6296 89.6049 65.8281 84.692 65.8797 84.447C65.7379 84.5631 63.5085 86.5876 62.542 89.8757C62.542 89.8757 62.3873 89.7726 62.1812 89.5662C61.5368 88.9344 60.4414 87.3741 62.3745 85.182C62.5033 85.0273 62.658 84.8855 62.8126 84.7307C64.1786 83.4155 65.4286 82.7449 65.4286 82.7449C65.5704 82.7191 65.8023 82.7191 66.0987 82.7449C66.3307 82.7578 66.5884 82.7965 66.8848 82.8481C67.5163 82.9641 68.2637 83.1705 68.9596 83.4541C69.7328 83.7765 70.4416 84.202 70.8797 84.7436C70.9313 84.8081 71.3437 86.0073 70.854 87.0647H70.8282Z" fill="#322E3D"/>
<path d="M70.8283 87.0636C70.3772 88.0179 69.4236 88.8044 68.2896 89.3718C68.122 89.4492 67.9545 89.5265 67.787 89.6039C67.903 89.4621 69.0886 87.9663 69.385 86.1997C69.5911 85.0521 69.2303 84.0463 68.9339 83.4531C69.7071 83.7755 70.4159 84.201 70.854 84.7426C70.9056 84.8071 71.318 86.0063 70.8283 87.0636Z" fill="#272438"/>
<path opacity="0.2" d="M65.1708 90.2618C64.6167 89.6041 65.8152 84.6912 65.8667 84.4462C65.5317 84.3818 63.1734 86.3805 62.1682 89.5655C61.5239 88.9336 60.4285 87.3734 62.3615 85.1812C62.4904 85.0265 62.645 84.8847 62.7997 84.7299C64.0368 83.5307 65.158 82.9762 66.0858 82.7441C66.3178 82.757 66.5755 82.7957 66.8719 82.8473C67.1941 83.002 67.4776 83.247 67.5549 83.6726C67.7482 84.7428 66.6271 89.501 65.1708 90.2618Z" fill="#4B455C"/>
<g style="mix-blend-mode:multiply" opacity="0.41">
<path d="M81.3051 48.342C80.4159 49.6702 79.1659 50.7791 77.7999 51.6431C75.8669 52.8681 73.7277 53.5902 72.091 53.6933C72.0266 53.6933 71.9751 53.6933 71.9235 53.7062C71.8591 53.7062 71.7946 53.7062 71.7173 53.7191C71.6529 53.7191 71.5885 53.7191 71.5369 53.7191C71.4596 53.7191 71.3694 53.7191 71.2921 53.7191C70.6091 53.7449 69.7972 53.7449 69.2302 53.732C69.2173 53.7707 69.2044 53.7965 69.1786 53.8352C68.5472 55.0215 63.1476 56.6591 63.1476 56.6591C63.4053 56.4657 63.9595 55.6791 63.9595 55.6791C58.3666 57.2136 54.5779 54.8668 53.65 54.2091C54.333 54.596 55.6604 54.3252 55.6604 54.3252C53.2892 53.1646 51.949 51.3078 51.2144 49.812C50.583 48.5354 50.3897 47.5167 50.3639 47.4007C50.8923 48.7933 53.1346 50.2375 55.4928 50.4696C56.5882 50.5728 57.7094 50.4181 58.6888 49.8636C60.5574 48.8191 63.4053 49.7346 63.4053 49.7346C63.328 49.3865 62.0909 48.7417 62.0909 48.7417C62.0909 48.7417 64.694 49.2189 66.2147 50.6373C66.7172 51.1144 67.2198 51.5528 67.658 51.9268C68.5085 52.6618 69.1271 53.1518 69.1271 53.1518C69.1271 53.1518 69.2044 53.1904 69.2559 53.2807C70.0936 53.2807 70.7895 53.242 71.4596 53.1389C71.5756 53.126 71.6787 53.1002 71.7946 53.0873C71.9622 53.0615 72.1168 53.0228 72.2715 52.9841C73.2251 52.7649 74.1529 52.391 75.2999 51.8107C77.0267 50.9468 78.3283 49.6444 79.269 48.1615C80.1711 46.7431 80.7123 45.1441 80.9314 43.5839C80.97 43.3131 81.0087 43.0423 81.0216 42.7715C81.318 44.4736 81.4597 46.3433 81.318 48.3291L81.3051 48.342Z" fill="#908DA6"/>
</g>
<path d="M68.6632 52.9457C68.6503 53.0102 68.6117 53.1005 68.573 53.1778C67.9673 54.3642 62.9673 56.1823 62.9673 56.1823C63.2121 55.9889 63.7534 55.2023 63.7534 55.2023C58.328 56.7368 54.3975 54.1965 53.5084 53.5389C54.1656 53.9257 55.4543 53.6549 55.4543 53.6549C53.1604 52.4815 51.8588 50.6376 51.1372 49.1418C50.5186 47.8652 50.3382 46.8465 50.3253 46.7305C50.8408 48.1231 53.0187 49.5673 55.3125 49.7994C56.3692 49.9026 57.4646 49.7478 58.4053 49.1934C60.2224 48.1489 62.9802 49.0644 62.9802 49.0644C62.9157 48.7163 61.7044 48.0715 61.7044 48.0715C61.7044 48.0715 64.2302 48.5486 65.6993 49.967C66.189 50.4442 66.6787 50.8826 67.1039 51.2565C67.9416 51.9915 68.5344 52.4815 68.5344 52.4815C68.5344 52.4815 68.7663 52.5847 68.689 52.9328L68.6632 52.9457Z" fill="#7A5C39"/>
<g style="mix-blend-mode:multiply" opacity="0.41">
<path d="M68.6631 52.9465C68.6502 53.011 68.6116 53.1013 68.5729 53.1786C67.9672 54.3649 62.9672 56.1831 62.9672 56.1831C63.212 55.9897 63.7533 55.2031 63.7533 55.2031C58.3279 56.7376 54.3974 54.1973 53.5083 53.5397C54.1655 53.9265 55.4542 53.6557 55.4542 53.6557C53.1603 52.4823 51.8587 50.6384 51.1371 49.1426C51.3046 49.3231 53.5469 51.8118 55.2995 52.1857C55.2995 52.1857 54.4103 52.1986 54.2944 52.1857C54.2944 52.1857 55.5186 53.3721 56.3949 53.5139C56.3949 53.5139 55.8665 53.7718 55.8279 53.8492C55.7892 53.9265 56.9748 54.6873 59.4104 54.9968C61.73 55.2934 66.5884 54.3134 67.9415 53.0368L68.6889 52.9336L68.6631 52.9465Z" fill="#908DA6"/>
</g>
<g style="mix-blend-mode:multiply" opacity="0.41">
<path d="M55.9825 51.0381C55.9825 51.0381 54.5779 50.7028 53.9207 50.4062C53.9207 50.4062 54.3588 51.2057 55.2093 51.4636H54.5521C54.5521 51.4636 55.7377 52.1212 56.7815 52.1728C56.7815 52.1728 56.6655 52.6112 55.9052 52.5855C55.9052 52.5855 56.4336 52.8047 57.6063 52.5855C57.6063 52.5855 56.9619 52.5984 56.7944 52.5339C56.7944 52.5339 57.0521 52.1986 57.0135 52.0826C57.0135 52.0826 55.6475 51.902 55.4026 51.6313L55.699 51.5668C55.699 51.5668 55.4542 51.4507 54.9645 51.0381C54.9645 51.0381 55.7764 51.0897 55.9697 51.0381H55.9825Z" fill="#908DA6"/>
</g>
<g style="mix-blend-mode:screen" opacity="0.5">
<path d="M67.0781 51.27C66.859 51.3602 66.6013 51.4247 66.3049 51.4634C64.8358 51.6439 63.9466 51.0121 62.9285 51.0121C61.9105 51.0121 62.2327 51.76 60.0677 52.0436C57.9671 52.3144 57.645 51.2958 57.6321 51.2442C57.6707 51.2829 58.096 51.6439 59.3718 51.4376C60.712 51.2184 59.8615 50.3544 58.9981 50.5221C58.3151 50.6639 57.5805 50.651 57.297 50.651C57.8511 50.6381 58.4955 50.161 58.5728 50.0965C57.8769 50.406 56.2661 50.4834 55.2996 49.8129C56.3563 49.916 57.4517 49.7613 58.3924 49.2068C60.2094 48.1623 62.9672 49.0779 62.9672 49.0779C62.9028 48.7297 61.6914 48.085 61.6914 48.085C61.6914 48.085 64.2172 48.5621 65.6863 49.9805C66.176 50.4576 66.6657 50.896 67.091 51.27H67.0781Z" fill="#3D2E1C"/>
</g>
<path d="M81.9624 41.0312C81.9624 41.547 81.9495 42.0628 81.8979 42.5914C81.8979 42.5914 81.8979 42.6172 81.8979 42.6559C81.885 42.8235 81.8593 42.9783 81.8464 43.133C81.8464 43.1975 81.8335 43.2491 81.8206 43.3135C81.7433 43.9325 81.6144 44.5385 81.4727 45.1446C80.2871 49.9543 74.5911 52.8814 71.2534 53.0362C71.189 53.0362 71.1246 53.0362 71.0472 53.0491C69.8874 53.1135 67.9673 53.0878 67.9158 53.0491C67.89 53.0362 67.8513 52.9717 67.8513 52.9072C67.8513 52.8299 67.8642 52.7267 67.9802 52.6622C68.0704 52.5978 68.2766 52.6235 68.5343 52.6235C70.9699 52.6235 72.2973 52.2883 74.5009 51.1535C77.7742 49.4514 79.5139 46.1246 79.9778 42.9267C80.3129 40.6443 80.0165 38.4393 79.1917 36.8533C78.7407 35.783 78.1608 34.7643 77.6066 33.8488C77.6066 33.8359 77.5937 33.823 77.5809 33.8101C77.1942 33.1783 76.9752 32.6238 76.6272 32.0693C76.7948 32.0822 76.9881 32.1467 77.1685 32.237C77.5422 32.4433 77.8901 32.6625 78.2123 32.8946C80.867 34.8288 81.9237 37.8591 81.9624 41.0183V41.0312Z" fill="#85663B"/>
<g style="mix-blend-mode:multiply" opacity="0.41">
<path d="M79.9651 42.9271C80.3001 40.6448 80.0037 38.4398 79.179 36.8537C78.7279 35.7834 78.148 34.7648 77.5939 33.8492C77.5939 33.8363 77.581 33.8234 77.5681 33.8105C77.7614 33.8492 78.0192 33.9395 78.3284 34.1458C78.9986 34.5842 82.0914 38.5687 79.9651 42.9271Z" fill="#908DA6"/>
</g>
<g style="mix-blend-mode:multiply" opacity="0.41">
<path d="M81.8206 43.3135C81.7433 43.9324 81.6144 44.5385 81.4727 45.1445C80.2871 49.9543 74.5911 52.8814 71.2534 53.0361C71.189 53.0361 71.1246 53.0361 71.0472 53.049C69.8874 53.1135 67.9673 53.0877 67.9158 53.049C67.89 53.0361 67.8513 52.9716 67.8513 52.9072C67.8513 52.9072 69.9776 53.0103 71.7045 52.7395C74.2303 52.3656 75.3901 51.4887 76.4855 50.9085C76.9494 50.6635 77.3747 50.3927 77.7613 50.109C77.7613 50.109 77.7613 50.109 77.7742 50.109C80.2871 48.2522 81.2923 45.6345 81.6789 44.0227C81.6789 44.0098 81.6789 43.9969 81.6789 43.9969C81.7433 43.739 81.7819 43.5069 81.8206 43.3135Z" fill="#908DA6"/>
</g>
<g style="mix-blend-mode:screen" opacity="0.5">
<path d="M81.9624 41.0317C81.8851 42.1793 81.8078 43.1464 81.6661 44.0104C81.6661 44.0104 81.6661 44.0233 81.6661 44.0362C81.2794 45.648 80.2614 48.2656 77.7614 50.1225C81.0088 47.6467 81.6532 42.2954 81.4728 39.4843C81.2923 36.6991 79.7846 34.4038 78.2124 32.9209C80.8671 34.8551 81.9238 37.8854 81.9624 41.0446V41.0317Z" fill="#3D2E1C"/>
</g>
</svg>
