<svg width="56" height="76" viewBox="0 0 56 76" fill="none" xmlns="http://www.w3.org/2000/svg">
<path d="M36.0705 64.6589L40.4485 66.0882L41.0082 64.1391L40.5984 62.7598L36.7902 63.7093L36.0705 64.6589Z" fill="#10041C"/>
<path d="M48.7247 61.7804C47.5252 63.5996 40.4485 66.0985 40.4485 66.0985C40.4485 66.0985 40.4885 63.9994 39.9187 63.9994C34.7511 63.9395 31.4126 67.7077 31.4126 67.7077V69.5169C27.9742 71.466 24.8157 72.9253 21.927 73.9548C16.4195 75.9239 11.8416 76.3537 7.98341 75.744C4.04522 75.1243 1.0566 72.4555 0.576817 71.396C0.0970373 70.3365 0.117028 69.8967 0.0470603 68.3774C-0.0129121 66.8781 0.206987 66.3583 0.366913 66.1784C0.446876 66.0885 0.506849 66.0785 0.506849 66.0785L42.2477 57.9822L47.4752 56.9727C47.4752 56.9727 47.7851 56.9727 48.6947 57.3625C49.1745 57.5624 49.3744 60.8009 48.7247 61.7804Z" fill="#3B1111"/>
<path d="M45.6261 40.3588C45.5661 40.9985 45.5661 41.6782 45.6261 42.3679C45.6661 42.9776 45.746 43.5973 45.866 44.197C46.2658 46.336 47.0654 48.4051 48.025 49.6345C49.4843 51.5337 49.2344 54.8221 48.9446 56.6213C48.9046 56.8812 48.8246 57.1311 48.7047 57.351C48.4648 57.8108 48.065 58.1906 47.5752 58.4105C46.3258 58.9702 44.0168 59.9698 40.5684 61.2992C40.3585 61.3791 40.1386 61.4591 39.9187 61.549C38.4694 62.0988 35.7206 63.0284 33.9015 63.6781C32.8819 64.0379 31.7025 65.3573 27.6344 67.4163C26.1051 68.196 24.156 69.0756 21.6471 70.0551C16.3795 72.1042 9.84254 74.603 2.09611 69.2755C0.976622 68.5058 0.406884 67.3764 0.366902 66.1569C0.326921 64.9575 0.786709 63.6781 1.72628 62.5686C1.92618 62.3387 2.14608 62.1088 2.38597 61.8989C2.88574 61.4491 3.48547 61.0393 4.16515 60.7094C10.5422 57.5509 12.6413 57.4609 14.9802 56.0716C15.7898 55.5918 16.6294 54.9521 17.6889 53.9725C21.4872 50.4641 24.5658 47.1557 25.7052 40.3688C25.7452 40.1489 25.7752 39.929 25.8052 39.6991C25.8552 39.3593 25.8952 39.0094 25.9351 38.6496C26.6548 32.0726 27.0446 17.4493 26.7248 8.44347C26.6548 6.52436 26.5549 4.86512 26.4249 3.5957C26.4249 3.5957 27.5144 3.70565 29.2636 3.85558C34.4412 4.28539 45.4262 4.98506 51.6233 3.93555C51.6233 3.93555 51.3934 5.95462 51.0036 9.05319C49.9741 17.2594 47.8251 33.0422 45.9559 38.7096C45.786 39.2093 45.6861 39.7691 45.6261 40.3688V40.3588Z" fill="#851200"/>
<path d="M53.1427 5.85514C53.4525 5.98508 54.2721 6.47485 53.9223 7.90419C53.7824 8.45394 52.6529 9.71336 51.8832 9.46348C51.5234 9.34353 51.2335 9.21359 51.0036 9.05366C50.7438 8.86375 50.5638 8.61387 50.4839 8.28402C50.324 7.6643 49.3944 8.31401 48.8346 9.18361C48.2749 10.0532 45.806 10.6429 44.8265 9.24358C43.8469 7.84422 44.6666 9.64339 43.5271 9.58342C42.3876 9.52345 42.1977 8.46394 42.1977 8.46394C42.1977 8.46394 41.9478 9.51345 41.1882 9.61341C40.2086 9.73335 39.9087 8.12409 39.9087 8.12409C39.9087 8.12409 40.0187 9.42349 37.9496 9.14362C35.8806 8.86375 35.9905 7.81424 35.9905 7.81424C35.9905 7.81424 35.7107 9.82331 34.1314 8.87375C33.3118 8.37398 33.2318 7.69429 33.2318 7.69429C33.2318 7.69429 33.0519 8.90373 32.2723 8.47393C31.5026 8.03413 31.4227 7.6643 31.4227 7.6643C31.4227 7.6643 30.9429 9.15362 30.0933 8.31401C29.7134 7.93418 29.5035 7.72428 29.3836 7.61433L29.2437 7.47439C29.2437 7.47439 28.8838 7.07458 28.524 7.47439C28.1841 7.85422 28.8538 8.24404 28.494 8.1041C27.8343 7.84422 27.7044 7.34445 27.7044 7.34445C27.7044 7.34445 27.3945 8.73381 26.7248 8.44395C26.7248 8.44395 26.7048 8.44395 26.6948 8.43395C26.0051 8.09411 25.9752 7.6843 25.9752 7.6843C25.9752 7.6843 24.8857 8.18407 24.3559 7.6843C23.8261 7.18453 21.7171 5.80516 23.9961 4.17591C24.146 4.06596 23.0165 2.83653 23.7862 2.18682C24.5558 1.53712 25.7253 2.18682 25.7253 2.18682C25.7253 2.18682 24.7157 0.607551 25.5354 0.287698C26.355 -0.0221596 27.3945 1.49714 27.3945 1.49714C27.3945 1.49714 28.3741 -0.701847 28.9038 0.247716C29.3936 1.10732 29.0537 1.77701 28.9938 1.88696C29.0937 1.70704 30.0533 0.0378128 31.4227 0.547578C31.4426 0.547578 31.4626 0.557574 31.4726 0.567569C31.9324 0.757482 31.8824 1.25725 31.7625 1.65707C31.7625 1.65707 32.5321 0.017822 33.8815 0.537583C34.8211 0.897417 34.4912 2.15684 34.3613 2.55665C34.5012 2.20681 34.971 1.21727 35.7806 1.34721C36.7602 1.49714 36.9201 2.21681 36.9201 2.21681C36.9201 2.21681 37.0701 0.977381 37.6298 1.22727C37.6298 1.22727 37.21 1.19728 37.5298 1.74703C37.8497 2.30677 38.0796 0.927404 38.7493 0.937399C39.6988 0.95739 38.8592 1.55711 39.2491 2.17683C39.6389 2.79654 40.2086 2.14684 39.6888 1.42717C39.2391 0.807459 40.6684 0.507597 40.9483 1.16729C41.1982 1.75702 41.1882 2.14684 41.1582 2.30677C41.2381 2.00691 41.528 1.07733 41.9578 1.3672C42.4576 1.70704 42.3776 2.26679 42.3776 2.26679C42.3776 2.26679 43.3871 1.3672 44.1268 2.20682C44.8665 3.04643 44.0768 1.5871 44.8665 1.42717C45.6661 1.27724 46.0859 2.4567 46.0859 2.4567C46.0859 2.4567 46.5457 0.667523 47.8851 1.08733C48.6847 1.33722 48.5148 2.2468 48.4348 2.57664C48.5648 2.18682 49.0246 1.03735 49.8042 1.42717C50.174 1.61709 50.294 1.83699 50.294 2.0269C50.5638 1.60709 51.0536 1.1573 51.8732 1.49714C53.1427 2.0169 52.5729 2.78655 52.493 2.8865C52.6029 2.79654 53.7524 1.83699 54.2122 2.4567C54.6919 3.1064 55.3816 4.31585 54.4521 5.21543C53.7724 5.87513 53.3226 5.87513 53.1327 5.83515L53.1427 5.85514Z" fill="#EDC485"/>
<path d="M28.7139 4.30598C29.4335 5.04564 29.1537 6.11515 29.1537 6.11515C29.1537 6.11515 29.1437 4.95569 28.424 4.46591C27.5044 3.8462 26.225 4.78576 26.335 5.53542C26.4449 6.28507 27.4944 6.40502 27.8443 5.88526C27.8443 5.88526 27.7043 7.43454 26.5649 6.56494C24.5958 5.05564 27.4944 3.05656 28.7139 4.31598V4.30598Z" fill="#FFD38F"/>
<path d="M52.653 4.7756C52.223 4.3856 52.343 3.7756 52.343 3.7756C52.343 3.7756 52.393 4.42561 52.813 4.67561C53.343 4.99561 54.033 4.4256 53.943 4.0056C53.853 3.5856 53.263 3.5556 53.083 3.8656C53.083 3.8656 53.103 2.9956 53.773 3.4456C54.933 4.2256 53.373 5.4456 52.643 4.7756H52.653Z" fill="#FFD38F"/>
<path d="M37.16 6.67587C37.7897 7.24561 39.249 7.72539 39.7488 5.90623C40.2486 4.08706 41.1581 4.62681 41.1581 4.62681C41.1581 4.62681 40.1086 3.85717 39.7688 4.54685C39.4289 5.23653 39.8587 6.69586 38.5693 6.75583C37.5398 6.80581 36.8901 5.80627 36.8901 5.41645C36.8901 5.41645 36.5403 6.09614 37.16 6.67587Z" fill="#FFD38F"/>
<path d="M51.0337 6.64566C50.8337 7.09566 50.8537 7.97566 51.9337 7.90566C53.0137 7.83566 52.8837 8.43566 52.8837 8.43566C52.8837 8.43566 53.1137 7.72566 52.6637 7.66566C52.2137 7.60566 51.5137 8.11566 51.2437 7.42566C51.0237 6.87566 51.4537 6.33566 51.6637 6.26566C51.6637 6.26566 51.2237 6.19566 51.0337 6.64566Z" fill="#FFD38F"/>
<path d="M30.8929 4.77652C30.6929 5.22652 30.7129 6.10652 31.7929 6.03652C32.8729 5.96652 32.7429 6.56652 32.7429 6.56652C32.7429 6.56652 32.9729 5.85652 32.5229 5.79652C32.0729 5.73652 31.3729 6.24652 31.1029 5.55652C30.8829 5.00652 31.3129 4.46652 31.5229 4.39652C31.5229 4.39652 31.0829 4.32652 30.8929 4.77652Z" fill="#FFD38F"/>
<path d="M46.4657 7.92365C46.4657 7.92365 49.2145 8.82324 48.9646 6.55428C48.7147 4.28532 46.6956 5.07496 46.4357 5.72466C46.1759 6.37436 46.2158 7.45387 47.2454 7.30393C48.045 7.18399 47.945 6.46432 47.945 6.46432C47.945 6.46432 47.8751 7.08404 47.1754 7.02406C46.7256 6.98408 46.3758 6.76418 46.5657 6.13447C46.7556 5.50476 47.1954 5.37482 47.5952 5.38482C48.055 5.38482 48.5348 5.73466 48.6547 6.15446C48.8246 6.74419 48.8546 7.48385 48.025 7.79371C47.2854 8.06358 46.4757 7.93364 46.4757 7.93364L46.4657 7.92365Z" fill="#FFD38F"/>
<path d="M32.1023 2.3981C32.1023 2.3981 32.3723 3.9981 33.4323 3.2781C34.4923 2.5581 33.5723 1.7681 33.1823 1.8081C32.7923 1.8481 32.2623 2.1481 32.6123 2.6181C32.8823 2.9881 33.2123 2.7481 33.2123 2.7481C33.2123 2.7481 32.8823 2.8781 32.7323 2.5181C32.6323 2.2881 32.6523 2.0581 33.0123 1.9781C33.3723 1.8981 33.5523 2.0881 33.6523 2.2881C33.7723 2.5181 33.7223 2.8481 33.5423 3.0181C33.2923 3.2581 32.9323 3.4681 32.5623 3.1381C32.2323 2.8381 32.0823 2.4081 32.0823 2.4081L32.1023 2.3981Z" fill="#FFD38F"/>
<path d="M45.866 44.1978C45.6161 45.1574 45.2163 46.2569 44.5966 47.3464C44.3167 47.8362 43.8869 48.3559 43.3472 48.9057C42.8074 49.4554 42.1477 50.0252 41.428 50.5749C40.7583 51.0847 40.0287 51.5844 39.289 52.0342C39.309 52.0942 39.339 52.1742 39.369 52.2741C39.5189 52.6939 39.7888 53.4736 40.2586 54.9329C40.6384 56.0924 40.7484 57.3818 40.7484 58.5412C40.7484 59.4808 40.6684 60.3404 40.5984 60.9601C40.5784 61.0801 40.5684 61.19 40.5584 61.29C40.3485 61.3699 40.1286 61.4499 39.9087 61.5399C39.9287 61.3799 39.9587 61.15 39.9987 60.8902C40.0687 60.2904 40.1486 59.4608 40.1486 58.5512C40.1486 57.4318 40.0387 56.1923 39.6888 55.1228C39.259 53.8034 38.9992 53.0338 38.8392 52.594C38.7993 52.494 38.7793 52.4141 38.7493 52.3441C38.0596 52.7339 37.3599 53.0937 36.6902 53.3636C35.6307 53.8034 34.6112 54.0833 33.7316 54.0833C33.1618 54.0833 32.6421 53.9633 32.2223 53.6735C31.4726 53.1637 30.9928 52.454 30.703 51.6744C30.4131 50.8848 30.3032 50.0152 30.3032 49.1256C30.3032 47.1365 30.8329 45.0474 31.0928 43.7081C31.1828 43.2583 31.2327 42.8984 31.2327 42.6685C31.2327 42.5886 31.2327 42.5486 31.2227 42.5086C28.484 42.0388 26.5649 40.9293 25.7153 40.3396C25.7553 40.1197 25.7852 39.8998 25.8152 39.6699C25.8652 39.7099 25.9152 39.7499 25.9851 39.7899C26.235 39.9698 26.6249 40.2097 27.1146 40.4796C28.1042 41.0093 29.5635 41.619 31.3927 41.9189C31.4826 41.9389 31.5726 41.9689 31.6325 42.0388C31.7025 42.0988 31.7425 42.1688 31.7725 42.2387C31.8225 42.3787 31.8425 42.5086 31.8425 42.6685C31.8425 42.9784 31.7825 43.3582 31.6925 43.818C31.6026 44.2778 31.4826 44.8076 31.3727 45.3773C31.1428 46.5268 30.9129 47.8562 30.9129 49.1156C30.9129 49.9552 31.0128 50.7548 31.2727 51.4445C31.5326 52.1342 31.9424 52.7239 32.5721 53.1537C32.862 53.3536 33.2518 53.4536 33.7316 53.4536C34.2913 53.4536 34.981 53.3136 35.7107 53.0638C36.4403 52.8139 37.23 52.454 38.0196 52.0342C39.5989 51.1846 41.1782 50.0551 42.3676 48.9756C43.1572 48.256 43.767 47.5563 44.0768 47.0165C45.0864 45.2474 45.4862 43.3882 45.6361 42.3287C45.6761 42.9384 45.7561 43.5581 45.876 44.1579L45.866 44.1978Z" fill="#4A0000"/>
<g style="mix-blend-mode:screen" opacity="0.59">
<path d="M10.2224 68.2372C7.96344 67.7775 3.06569 66.0982 1.71631 62.5799C1.91622 62.35 2.13612 62.1201 2.376 61.9102C3.16564 63.2395 4.65496 64.7888 7.40369 65.5485C12.3314 66.9179 14.4804 64.9887 15.6799 65.8084C18.0888 67.4776 13.5109 68.9069 10.2224 68.2372Z" fill="#383126"/>
</g>
<g style="mix-blend-mode:screen" opacity="0.59">
<path d="M31.4326 0.567799C31.1328 0.967615 30.8729 1.39742 30.7929 1.80723C30.573 2.91672 29.5735 2.91672 29.2636 3.85629C29.2336 3.93625 29.2137 4.0362 29.1937 4.13616C29.0137 5.36559 28.6339 5.66545 29.1937 6.82492C29.3236 7.0948 29.3836 7.35468 29.3836 7.61456C29.4036 8.48416 28.8838 9.37375 28.7639 10.6831C28.6139 12.3824 29.6734 40.8693 28.404 43.3381C27.1446 45.817 22.4168 57.1918 18.5486 56.9519C17.2691 56.8719 16.0497 56.5221 14.9602 56.0623C15.7698 55.5825 16.6094 54.9428 17.669 53.9632C21.4672 50.4549 24.5458 47.1464 25.6853 40.3595C25.7253 40.1396 25.7552 39.9197 25.7852 39.6898C25.8352 39.35 25.8752 39.0001 25.9152 38.6403C26.6348 32.0633 27.0247 17.44 26.7048 8.43418C26.7048 8.43418 26.6848 8.43418 26.6748 8.42418C25.9851 8.08434 25.9551 7.67453 25.9551 7.67453C25.9551 7.67453 24.8656 8.1743 24.3359 7.67453C23.8061 7.17476 21.6971 5.79539 23.9761 4.16614C24.126 4.05619 22.9965 2.82676 23.7662 2.17706C24.5358 1.52736 25.7053 2.17706 25.7053 2.17706C25.7053 2.17706 24.6957 0.597785 25.5154 0.277932C26.335 -0.0319252 27.3745 1.48738 27.3745 1.48738C27.3745 1.48738 28.354 -0.711613 28.8838 0.237951C29.3736 1.09756 29.0337 1.76725 28.9738 1.8772C29.0737 1.69728 30.0333 0.0280472 31.4026 0.537813L31.4326 0.567799Z" fill="#383126"/>
</g>
<g style="mix-blend-mode:multiply" opacity="0.47">
<path d="M48.7246 61.7793C47.5252 63.5985 40.4485 66.0973 40.4485 66.0973C40.4485 66.0973 40.4884 63.9983 39.9187 63.9983C34.7511 63.9383 31.4126 67.7066 31.4126 67.7066V69.5157C27.9742 71.4648 24.8156 72.9242 21.927 73.9537C23.3663 73.344 25.5353 70.8751 27.6343 67.4367C28.0741 66.717 28.5139 65.9574 28.9337 65.1677C31.4826 60.4199 35.1209 63.2686 39.4589 60.8597C40.6084 60.22 41.528 59.2005 42.2576 57.991C44.2767 54.6526 44.7965 49.9347 44.5666 48.4054C44.2567 46.3164 45.6361 40.3691 45.6361 40.3691C45.5761 41.0088 45.5761 41.6885 45.6361 42.3782C45.676 42.9879 45.756 43.6077 45.876 44.2074C46.2758 46.3464 47.0754 48.4154 48.035 49.6449C49.4943 51.544 49.2444 54.8325 48.9545 56.6317C48.9146 56.8915 48.8346 57.1414 48.7146 57.3613C49.1944 57.5612 49.3943 60.7997 48.7446 61.7793H48.7246Z" fill="#BAB1A2"/>
</g>
</svg>
