<svg width="81" height="65" viewBox="0 0 81 65" fill="none" xmlns="http://www.w3.org/2000/svg">
<path d="M39.1266 16.3668C38.5366 17.0468 33.9366 17.6568 29.6566 17.3068C28.5166 17.2068 21.1466 16.6968 20.1366 16.4468C18.7766 16.1268 17.1066 5.71684 17.8766 5.15684C23.6766 0.936841 30.4266 1.55684 32.5766 1.78684C35.4466 2.08684 38.3066 1.82684 39.5666 4.34684C39.5666 4.34684 39.8866 15.4868 39.1266 16.3668Z" fill="#5E0045"/>
<path d="M43.7666 0.0267658C43.7666 0.0267658 41.6966 -0.283234 41.3066 1.20677C40.9166 2.69677 42.5366 3.62677 42.5366 3.62677C42.5366 3.62677 44.2066 2.09677 43.7666 0.0267658Z" fill="#5E0045"/>
<path d="M69.2766 36.6866L64.2166 41.6566C64.2166 41.6566 64.1066 41.6166 63.9166 41.5366C63.5866 41.3966 62.9666 41.1366 62.1866 40.8066C61.2366 40.4166 60.0466 39.9066 58.7666 39.3666C54.9866 37.7466 50.5366 35.8066 50.0266 35.3766C49.4966 34.9266 44.7166 32.2066 40.6166 25.8966C40.1266 25.1466 39.6466 24.3466 39.1866 23.4966C38.6966 22.5866 38.2166 21.6166 37.7866 20.5766C37.4066 19.7066 37.0566 18.7866 36.7366 17.8166C36.4266 16.8766 36.1266 15.8866 35.8766 14.8466C35.5066 13.3566 35.2066 11.7666 34.9866 10.0766C34.9466 9.79658 34.9166 9.52658 34.8866 9.24658C34.7866 8.37658 34.7066 7.47658 34.6666 6.54658C34.6666 6.54658 34.5566 5.79658 34.6466 4.84658C34.6766 4.57658 34.7166 4.29658 34.7866 4.01658C34.7866 4.01658 34.7866 3.99658 34.8066 3.95658C35.1366 2.62658 35.9966 1.24658 38.1266 1.12658C40.6566 0.976576 41.8766 1.49658 43.3666 0.196576C44.2366 -0.563424 44.5466 1.27658 44.5966 3.16658C44.6366 4.50658 44.5566 5.87658 44.4566 6.36658C44.4366 6.44658 44.4166 6.62658 44.3866 6.89658C44.0166 10.6366 43.3866 31.5466 67.0566 35.6266L67.9466 36.0466L69.2866 36.6866H69.2766Z" fill="#855100"/>
<g style="mix-blend-mode:multiply" opacity="0.1">
<path d="M38.5666 4.84659C38.5666 4.84659 39.9566 4.02659 39.9566 8.19659C39.9566 12.3666 40.1166 19.5766 44.0566 25.7866C44.7666 26.8966 50.6666 32.8366 54.8966 34.2566C59.1266 35.6766 65.3966 38.4066 65.3966 38.4066L64.4366 39.8466C64.4366 39.8466 44.5966 32.5166 41.6466 26.8366C38.6966 21.1566 38.5566 4.85659 38.5566 4.85659L38.5666 4.84659Z" fill="#352C73"/>
</g>
<path d="M79.5267 48.2967C79.5267 48.2967 74.4167 50.7167 66.6067 52.0467C65.3467 52.2567 64.0067 52.4467 62.6167 52.5967C62.4367 52.6167 62.2667 52.6267 62.0867 52.6467C60.3667 52.8067 58.5567 52.9067 56.6767 52.9067C49.5067 52.9067 41.5367 52.1167 34.4867 50.9967C34.1667 50.9467 33.8467 50.8967 33.5267 50.8467C30.4667 50.3367 27.5967 49.7667 25.0667 49.1667C19.2767 47.7867 15.2667 46.2967 14.8567 45.1167C14.8567 45.1167 14.8367 44.8767 14.8167 44.4467C14.8067 44.3067 14.7967 44.1567 14.7967 43.9767C14.6767 40.8567 14.6967 32.1167 18.1067 27.2167C18.1067 27.2167 17.4967 21.3867 18.4467 19.1467C18.6267 18.7367 18.6867 18.3367 18.6767 17.9167C18.6767 16.4567 17.8167 14.8967 18.0367 12.6567C18.0567 12.4667 18.0767 12.2767 18.1167 12.0867C18.1567 11.8667 18.2067 11.6267 18.2667 11.3867C18.3167 11.2067 18.3767 11.0167 18.4367 10.8167C18.7667 9.82669 19.6167 8.87669 20.7367 8.02669C20.7467 8.01669 20.7567 8.00669 20.7667 7.99669C24.1867 5.42669 30.1167 3.86669 31.8567 5.44669C31.8567 5.44669 33.0767 4.99669 34.6267 4.82669C36.0767 4.65669 37.6467 4.23669 38.5467 4.82669C38.9767 5.11669 39.2567 5.62669 39.3067 6.51669C39.3067 6.59669 39.3167 6.69669 39.3167 6.78669V8.12669C39.3167 8.62669 39.3267 9.20669 39.3467 9.85669C39.3467 10.0367 39.3567 10.2167 39.3667 10.4067C39.3867 10.8667 39.4167 11.3667 39.4567 11.8767C39.4667 12.0767 39.4867 12.2767 39.4967 12.4867C39.5067 12.6467 39.5267 12.8167 39.5467 12.9867C39.6567 14.0767 39.8067 15.2567 40.0367 16.4767C40.0667 16.6467 40.1067 16.8267 40.1467 16.9967C40.2867 17.6767 40.4467 18.3867 40.6467 19.0867C40.6967 19.2567 40.7467 19.4367 40.7867 19.5967C41.0667 20.5367 41.3967 21.4767 41.7767 22.4167C41.8467 22.5767 41.9167 22.7367 41.9867 22.8967C42.1767 23.3167 42.3667 23.7367 42.5767 24.1467C42.6667 24.3267 42.7667 24.5067 42.8667 24.6867C43.6367 26.0967 44.5667 27.4567 45.7067 28.7067C45.8367 28.8467 45.9767 28.9867 46.1067 29.1167C46.5867 29.6167 47.1067 30.0867 47.6667 30.5367C47.7367 30.5967 47.8067 30.6567 47.8767 30.7067C47.9467 30.7567 48.0167 30.8167 48.0867 30.8667C48.8567 31.4767 49.6567 32.0367 50.4567 32.5667C50.6367 32.6867 50.8167 32.7967 50.9867 32.9167C51.2567 33.0867 51.5267 33.2467 51.7967 33.4067C51.9567 33.5067 52.1167 33.5967 52.2667 33.6867C53.1567 34.2067 54.0367 34.6767 54.8967 35.1167C55.0667 35.1967 55.2367 35.2867 55.3967 35.3567C55.9667 35.6367 56.5267 35.8967 57.0667 36.1367C57.2267 36.2067 57.3867 36.2767 57.5467 36.3467C58.4267 36.7267 59.2667 37.0567 60.0267 37.3367C60.2067 37.4067 60.3867 37.4667 60.5567 37.5267C61.0467 37.7067 61.5167 37.8467 61.9367 37.9867C62.1367 38.0467 62.3267 38.1067 62.5067 38.1567C63.0667 38.3167 63.5467 38.4367 63.9167 38.5167C64.0667 38.5467 64.2067 38.5667 64.3167 38.5867C64.4067 38.5967 64.5067 38.5767 64.6167 38.5267C64.7467 38.4667 64.8867 38.3667 65.0367 38.2367C65.9067 37.4767 66.9567 35.7267 67.0367 35.6067C67.0367 35.6067 67.3067 35.5667 67.7467 35.5467C67.8167 35.5467 67.8967 35.5467 67.9767 35.5467C68.2467 35.5467 68.5567 35.5467 68.9167 35.5567C72.2267 35.6867 78.8067 37.0267 79.4867 45.4767C79.5067 45.7467 79.5267 46.0267 79.5367 46.3067C79.5567 46.9267 79.5467 47.5767 79.5067 48.2667L79.5267 48.2967Z" fill="#995D00"/>
<g style="mix-blend-mode:multiply" opacity="0.1">
<path d="M64.2766 38.1568C64.2766 38.1568 64.2466 38.1868 64.2266 38.2068H64.2166C64.2166 38.2068 64.1266 38.2968 63.9966 38.4668C63.8966 38.6068 63.7666 38.7868 63.6166 39.0168C63.1066 39.8268 62.4066 41.2168 62.0766 43.1168C62.0566 43.2168 62.0366 43.2968 62.0166 43.3568C61.7866 43.3568 61.5666 43.3668 61.3366 43.3668C56.1266 43.3668 50.6366 41.3968 46.0366 39.0268C41.4366 36.6568 37.7366 33.8868 36.1166 32.3368C35.3166 31.5768 34.6266 30.2668 34.0566 28.7168C33.1966 26.3968 32.6066 23.5768 32.2366 21.3368C32.0566 20.2168 31.9166 19.2468 31.8366 18.5468C31.7966 18.1968 31.7666 17.9268 31.7466 17.7368C31.7266 17.5468 31.7166 17.4468 31.7166 17.4468L31.1866 17.4968C31.1866 17.4968 31.4666 20.4668 32.1666 23.8368C32.5166 25.5268 32.9766 27.3168 33.5566 28.8968C34.1466 30.4768 34.8566 31.8568 35.7566 32.7168C37.4366 34.3168 41.1566 37.0968 45.7966 39.4968C50.4366 41.8868 55.9966 43.8968 61.3466 43.8968C61.5566 43.8968 61.7666 43.8968 61.9766 43.8968C61.9766 43.9268 61.9766 43.9568 61.9666 43.9968C61.8266 45.3268 61.7766 46.5868 61.7766 47.7168C61.7766 51.0868 62.2166 53.3868 62.2266 53.4068L62.7466 53.3068C62.7466 53.3068 62.7466 53.2768 62.7266 53.2068C62.6466 52.7368 62.3066 50.6268 62.3066 47.7268C62.3066 46.6068 62.3566 45.3668 62.4866 44.0568C62.5166 43.7768 62.5566 43.5068 62.5966 43.2368C62.7166 42.7568 62.9466 41.9468 63.2466 41.1168C63.4766 40.4668 63.7666 39.8068 64.0766 39.2868C64.1766 39.1368 64.2666 39.0068 64.3366 38.8968C64.3666 38.8568 64.3966 38.8168 64.4266 38.7768C64.4966 38.6868 64.5666 38.6068 64.6466 38.5468L64.2866 38.1568H64.2766Z" fill="#352C73"/>
</g>
<path d="M79.9766 49.8868C79.8966 51.7168 74.6966 53.3168 66.9666 54.3168C66.2966 54.4068 65.6066 54.4868 64.8866 54.5668C53.7266 55.7868 38.2566 55.2768 34.5466 51.7668C34.5466 51.7668 33.5766 52.2168 31.9266 52.6768C30.3766 53.1268 28.2266 53.5868 25.7266 53.6968C24.9666 53.7368 24.1666 53.7368 23.3466 53.6968C18.9366 53.4968 14.7766 52.4868 13.9566 51.1768C13.2066 49.9668 13.4666 45.0168 13.9766 44.5768C14.4866 44.1368 14.8066 43.9668 14.8066 43.9668C14.8066 43.9668 14.7566 44.1768 14.8266 44.4368C14.9466 44.9068 15.4366 45.6568 17.0966 46.3068C19.1166 47.0968 22.2166 47.5368 25.2666 47.7868C30.0666 48.1868 34.7166 48.0968 34.7166 48.0968C34.7166 48.0968 41.7666 52.5368 61.9066 50.9068C62.0766 50.8968 62.2566 50.8768 62.4366 50.8668C62.8466 50.8368 63.2566 50.7968 63.6766 50.7568C64.5166 50.6768 65.3266 50.5968 66.0766 50.5068C76.6766 49.2568 79.0266 47.2668 79.2566 47.0668C79.4466 46.8868 79.5366 46.4868 79.5566 46.3368C79.5566 46.3068 79.5666 46.2868 79.5666 46.2868C79.5666 46.2868 80.1466 45.9168 79.9666 49.8868H79.9766Z" fill="#855100"/>
<path d="M31.4966 17.3968C31.4966 17.3968 31.4566 17.4668 31.4366 17.4868C31.3866 17.5468 31.2966 17.6068 31.1866 17.6668C30.0266 18.2768 25.8666 18.7468 21.9666 18.4268C20.8266 18.3268 19.7066 18.1768 18.6866 17.9268C17.3266 17.6068 16.7466 16.9268 16.7466 14.0768C16.7466 12.9468 16.8366 12.3468 16.9366 12.0368C17.0466 11.6968 17.1566 11.6868 17.1766 11.6868C17.1066 11.6268 16.4666 11.0268 16.5966 8.4368C16.6066 8.2668 16.6166 8.0368 16.6366 7.7868C16.6866 7.0368 16.8366 6.0468 17.3166 5.5168C17.3866 5.4468 17.5666 5.3168 17.8566 5.1568C19.0566 4.4968 21.9566 3.2968 24.8666 2.9068C27.7266 2.5268 30.5966 2.9468 31.8566 5.4668C31.8566 5.4668 31.9066 7.1168 31.9166 9.2068C31.9366 12.3968 31.8866 16.5768 31.4766 17.3968H31.4966Z" fill="#EDE6DC"/>
<g style="mix-blend-mode:multiply" opacity="0.1">
<path d="M67.9966 35.567C67.9966 35.727 67.9666 35.887 67.9366 36.047C67.4366 38.717 64.0766 41.287 64.0766 41.287C64.0766 41.287 64.0266 41.397 63.9266 41.527C63.6366 41.937 62.9566 42.607 62.3466 41.097C62.3066 40.987 62.2466 40.897 62.1966 40.797C61.4766 39.627 59.7466 39.387 58.7766 39.357C58.3666 39.337 58.0866 39.357 58.0866 39.357C58.0866 39.357 57.2066 40.237 56.3766 38.747C55.5466 37.267 51.6766 38.707 51.6766 38.707C51.6766 38.707 51.3766 39.077 50.4966 36.737C49.6066 34.397 46.2666 35.517 46.2666 35.517L45.1566 34.007C45.3166 30.207 44.1166 31.517 42.5966 31.657C41.0766 31.787 40.0266 31.617 40.0266 31.617C40.0266 31.617 40.8066 30.967 40.6866 26.817C40.6766 26.477 40.6566 26.167 40.6366 25.897C40.4466 23.947 39.8966 23.457 39.2066 23.497C38.3166 23.527 37.1866 24.447 36.3766 24.137C34.8366 23.567 35.8766 21.757 35.8766 21.757C35.8766 21.757 36.8766 21.217 37.8066 20.577C39.0766 19.707 40.2366 18.647 38.7166 18.457C37.9466 18.357 37.2966 18.117 36.7566 17.827C35.4366 17.117 34.7866 16.107 34.7866 16.107C34.7866 16.107 35.4666 15.297 35.8966 14.857C35.9166 14.837 35.9366 14.817 35.9466 14.797C36.3566 14.377 39.0966 12.307 36.8466 11.457C35.7466 11.047 35.2366 10.517 34.9966 10.077C34.7466 9.61697 34.7966 9.26697 34.7966 9.26697L34.8966 9.23697L40.7466 7.79697L44.3966 6.89697C44.0266 10.637 43.3966 31.547 67.0666 35.627C67.0666 35.627 67.4266 35.577 68.0166 35.567H67.9966Z" fill="#352C73"/>
</g>
<path d="M31.9267 12.0665L31.9067 13.0565C31.9067 13.0565 26.2567 14.1365 21.5367 13.5465C20.4867 13.4165 19.4867 13.2165 18.6067 12.8865C18.4167 12.8165 18.2267 12.7465 18.0567 12.6665C17.6567 12.4865 17.2767 12.2765 16.9467 12.0365C17.0567 11.6965 17.1667 11.6865 17.1867 11.6865C17.1867 11.6865 17.5367 11.8665 18.1367 12.0965C18.2367 12.1365 18.3467 12.1665 18.4567 12.2065C19.0967 12.4265 19.9567 12.6665 20.9667 12.8165C21.2067 12.8565 21.4467 12.8765 21.6967 12.9065C24.5767 13.2265 28.4267 13.0665 31.9367 12.0665H31.9267Z" fill="#E3DCD3"/>
<path d="M67.6567 35.3769C67.5367 35.2269 67.3567 35.1369 67.1467 35.1069C67.0067 35.0869 66.8667 35.1769 66.8367 35.3269C66.8167 35.4669 66.9067 35.6069 67.0567 35.6369C67.1667 35.6569 67.2167 35.6869 67.2367 35.7169C67.2567 35.7469 67.2867 35.7969 67.2867 35.8969C67.2867 36.0869 67.1867 36.4069 66.9867 36.7769C66.6867 37.3269 66.1867 37.9669 65.6367 38.5269C65.0867 39.0869 64.4767 39.5669 63.9667 39.8069C63.8367 39.8669 63.7167 39.8969 63.5967 39.8969C63.3567 39.8969 63.1267 39.7969 62.9567 39.6569C62.8667 39.5869 62.7967 39.5169 62.7567 39.4469C62.7067 39.3769 62.6967 39.3269 62.6967 39.3169C62.6367 38.6769 62.3967 37.3669 62.1667 36.1869C62.1467 36.0969 62.1367 36.0069 62.1167 35.9269C62.1767 35.8769 62.2367 35.8369 62.2967 35.7969L64.8367 35.2369C64.9567 35.2069 65.0467 35.0969 65.0467 34.9769C65.0467 34.8469 64.9567 34.7469 64.8367 34.7169C64.7467 34.6969 64.5067 34.6469 64.1667 34.6469C63.6667 34.6469 62.9567 34.7669 62.1667 35.2469L61.7167 33.9569C61.6667 33.8269 61.5267 33.7469 61.3967 33.7869C61.2667 33.8269 61.1767 33.9569 61.2067 34.0969C61.2067 34.0969 61.2567 34.3469 61.3467 34.7469C61.3967 35.0069 61.4667 35.3369 61.5367 35.6969C61.1167 36.0469 60.6867 36.5069 60.2567 37.1069C59.4667 38.2269 58.7167 38.5769 58.1967 38.5769C57.8767 38.5769 57.6167 38.4569 57.4367 38.2569C57.2467 38.0569 57.1467 37.7969 57.1467 37.5069C57.1467 37.2869 57.2067 37.0569 57.3567 36.8269C57.7467 36.2369 57.8567 35.4869 57.8567 34.7469C57.8567 34.3369 57.8167 33.9269 57.7667 33.5569L59.5167 33.4969C59.6367 33.4969 59.7367 33.4069 59.7667 33.2969C59.7967 33.1769 59.7367 33.0569 59.6367 33.0069C59.6067 32.9969 59.2667 32.8069 58.6867 32.8069C58.4367 32.8069 58.1367 32.8469 57.8067 32.9469C57.7867 32.8469 57.7567 32.7369 57.7267 32.6169C57.6867 32.4569 57.6367 32.2869 57.5767 32.1369C57.5467 32.0669 57.5167 31.9969 57.4667 31.9369C57.4167 31.8769 57.3667 31.7969 57.2367 31.7569C57.1467 31.7269 57.0367 31.7569 56.9767 31.8269C56.9067 31.8969 56.8867 31.9969 56.9167 32.0969L56.9367 32.1569C56.9767 32.2969 57.0867 32.6969 57.1867 33.2169C56.6567 33.4869 56.0667 33.9269 55.4467 34.6269C54.3167 35.9069 53.2867 36.3769 52.6467 36.3769C52.3567 36.3769 52.1567 36.2869 52.0167 36.1569C51.8767 36.0169 51.7967 35.8169 51.7967 35.5269C51.7967 35.3169 51.8467 35.0769 51.9567 34.7969C52.2767 33.9769 52.5367 33.0169 52.7267 32.1369C53.4067 31.7869 54.0267 31.4569 54.4767 31.1969C54.7067 31.0669 54.8867 30.9569 55.0167 30.8669C55.0867 30.8269 55.1367 30.7869 55.1867 30.7469L55.2567 30.6869L55.2967 30.6269C55.2967 30.6269 55.3367 30.5569 55.3367 30.4869L55.2967 30.3369C55.2467 30.2669 55.1867 30.2369 55.1467 30.2269H55.0567C55.0067 30.2169 54.9767 30.2269 54.9367 30.2269C54.8867 30.2369 54.8467 30.2569 54.7767 30.2769C54.4567 30.3969 53.7067 30.7069 53.2667 30.8869L53.1967 29.4869C53.1967 29.3469 53.0767 29.2369 52.9467 29.2369C52.8167 29.2369 52.6867 29.3269 52.6767 29.4669C52.6767 29.4669 52.6467 29.6569 52.5967 29.9769C52.5267 30.3969 52.4167 31.0469 52.2567 31.7769C52.0767 31.8669 51.9067 31.9569 51.7167 32.0369C50.5667 32.5869 49.3567 33.1069 48.5867 33.3069C48.4867 33.3269 48.3967 33.3369 48.3067 33.3369C47.9767 33.3369 47.6667 33.1869 47.4367 32.9669C47.2067 32.7469 47.0767 32.4569 47.0867 32.2469C47.0867 32.0969 47.1367 31.9869 47.2467 31.8869C48.3367 30.9669 48.9567 29.4869 49.3267 28.2469C49.4067 27.9769 49.4767 27.7269 49.5267 27.4869C49.5967 27.4869 49.6567 27.4769 49.7267 27.4769C49.8167 27.4769 49.8967 27.4769 49.9767 27.4969L50.9667 28.0069C51.0867 28.0669 51.2267 28.0369 51.3067 27.9269C51.3867 27.8169 51.3667 27.6769 51.2767 27.5869C51.2567 27.5769 50.8367 27.1569 50.1767 27.0069L49.9167 26.8769L49.8067 25.9369C49.7867 25.8069 49.6767 25.6969 49.5467 25.6969C49.4067 25.6969 49.2967 25.7969 49.2867 25.9369C49.2867 25.9369 49.2867 25.9969 49.2667 26.1069C49.2367 26.2969 49.1867 26.6469 49.0967 27.0669C48.9567 27.1169 48.8167 27.1769 48.6767 27.2669C47.7967 27.8069 46.7767 28.3469 45.7967 28.7369C44.8267 29.1369 43.8867 29.3969 43.1767 29.3869C42.7567 29.3869 42.4367 29.2969 42.2167 29.1269C41.9967 28.9569 41.8567 28.7069 41.8067 28.2769C41.8067 28.1769 41.7967 28.0769 41.7967 27.9669C41.7967 26.5769 42.6367 24.9869 43.6567 23.6569C44.1467 23.0169 44.6867 22.4269 45.1767 21.9569C45.2067 21.9569 45.2267 21.9569 45.2567 21.9569L47.0567 22.2169C47.1867 22.2369 47.3167 22.1469 47.3467 22.0169C47.3767 21.8869 47.3167 21.7469 47.1867 21.7069C46.7767 21.5469 46.3667 21.4569 45.9567 21.4269C45.9867 21.4069 46.0067 21.3869 46.0367 21.3569C46.1967 21.2169 46.3667 21.0769 46.4867 20.9669C46.5467 20.9069 46.6067 20.8569 46.6467 20.8169L46.7067 20.7569L46.7367 20.7069C46.7367 20.7069 46.7767 20.6569 46.7767 20.5669C46.7767 20.5069 46.7467 20.4069 46.6767 20.3569C46.6067 20.3069 46.5467 20.2969 46.5067 20.2969C46.4367 20.2969 46.4167 20.3169 46.3867 20.3169C46.3267 20.3469 46.2767 20.3769 46.1967 20.4269C45.8667 20.6369 45.4267 20.9969 44.9367 21.4569C43.9067 21.5769 42.9267 21.9769 42.0567 22.3569C41.5367 22.5869 41.0567 22.8169 40.6367 22.9869C40.2167 23.1569 39.8467 23.2569 39.5867 23.2569C39.3567 23.2569 39.2167 23.1969 39.0867 23.0469C38.9567 22.8969 38.8367 22.5969 38.7767 22.1169C38.7567 21.9169 38.7467 21.7369 38.7467 21.5769C38.7467 21.2669 38.7867 21.0369 38.8567 20.8569C38.9767 20.5469 39.1767 20.3569 39.5067 20.1769C39.9967 19.9069 40.7667 19.7169 41.6667 19.2969C42.5667 18.8769 43.6167 18.2269 44.6767 17.0269C44.7367 16.9569 44.7867 16.8869 44.8367 16.8069L45.0467 17.0369C45.1367 17.1369 45.2967 17.1569 45.4067 17.0669C45.5167 16.9869 45.5467 16.8269 45.4667 16.7069C45.4667 16.6969 45.3567 16.5569 45.1867 16.3869L45.0867 16.2769C45.1167 16.1869 45.1467 16.1069 45.1667 16.0269C45.2467 15.7169 45.2767 15.4769 45.2767 15.4669C45.2867 15.3269 45.1967 15.2069 45.0667 15.1769C44.9367 15.1469 44.7967 15.2269 44.7567 15.3569L44.5567 16.0069C44.4167 15.9569 44.2567 15.9169 44.0767 15.9169C44.0067 15.9169 43.9467 15.9169 43.8767 15.9269C42.6567 16.0869 40.9067 16.5069 39.5767 16.4969C39.0567 16.4969 38.6067 16.4269 38.2967 16.2869C38.1467 16.2169 38.0267 16.1269 37.9467 16.0169C37.8667 15.9069 37.8067 15.7769 37.7767 15.6069C37.7567 15.4769 37.7467 15.3569 37.7467 15.2369C37.7467 14.4569 38.1367 13.7669 38.7567 13.1469C39.6867 12.2269 41.1267 11.5169 42.3267 11.0469C42.9267 10.8169 43.4667 10.6369 43.8567 10.5269C44.0567 10.4669 44.2067 10.4269 44.3167 10.3969C44.4267 10.3669 44.4867 10.3569 44.4867 10.3569C44.6267 10.3269 44.7167 10.1869 44.6867 10.0469C44.6567 9.90693 44.5267 9.81693 44.3867 9.83693C44.3867 9.83693 44.3067 9.84693 44.1467 9.87693C43.6867 9.94693 42.6167 10.0769 41.4767 10.0769C40.5867 10.0769 39.6567 9.99693 38.9667 9.75693C38.6167 9.63693 38.3367 9.47693 38.1367 9.28693C37.9367 9.09693 37.8267 8.87693 37.7867 8.58693V8.47693C37.7867 8.28693 37.8267 8.13693 37.9167 7.98693C38.0767 7.72693 38.3867 7.49693 38.8167 7.30693C39.4567 7.02693 40.3167 6.85693 41.1767 6.75693C42.0367 6.65693 42.8867 6.63693 43.5067 6.63693C43.7967 6.63693 44.0367 6.63693 44.1967 6.64693C44.3667 6.64693 44.4567 6.65693 44.4567 6.65693C44.6067 6.65693 44.7267 6.55693 44.7367 6.40693C44.7367 6.25693 44.6367 6.13693 44.4867 6.12693C44.4867 6.12693 44.0967 6.10693 43.5067 6.10693C42.5367 6.10693 41.0267 6.15693 39.7267 6.45693C39.0767 6.60693 38.4767 6.81693 38.0167 7.13693C37.7867 7.29693 37.5967 7.48693 37.4567 7.70693C37.3167 7.92693 37.2367 8.19693 37.2367 8.47693C37.2367 8.53693 37.2367 8.58693 37.2367 8.64693C37.2767 9.05693 37.4667 9.41693 37.7367 9.67693C38.1467 10.0769 38.7367 10.2969 39.3867 10.4369C40.0367 10.5769 40.7567 10.6169 41.4467 10.6169C41.6367 10.6169 41.8367 10.6169 42.0267 10.6069C41.6367 10.7569 41.2267 10.9369 40.8167 11.1369C39.9367 11.5669 39.0467 12.1169 38.3567 12.7869C37.6767 13.4569 37.1967 14.2869 37.1967 15.2469C37.1967 15.3969 37.2067 15.5469 37.2267 15.6969C37.2667 15.9469 37.3567 16.1769 37.5067 16.3569C37.7267 16.6269 38.0367 16.7969 38.3867 16.8969C38.7367 16.9969 39.1367 17.0369 39.5567 17.0369C40.9767 17.0369 42.7467 16.6169 43.9267 16.4569H44.0567C44.1667 16.4569 44.2767 16.4669 44.3667 16.5069C44.3367 16.5569 44.2967 16.6069 44.2567 16.6469C42.6967 18.3869 41.2767 18.8769 40.1667 19.2769C39.6167 19.4769 39.1367 19.6569 38.7667 19.9969C38.5867 20.1669 38.4367 20.3769 38.3367 20.6369C38.2367 20.8969 38.1967 21.1869 38.1967 21.5469C38.1967 21.7269 38.2067 21.9269 38.2367 22.1469C38.2967 22.6869 38.4367 23.0769 38.6667 23.3569C38.8967 23.6369 39.2367 23.7569 39.5767 23.7569C39.9667 23.7569 40.3767 23.6269 40.8267 23.4469C41.8267 23.0469 43.0267 22.3769 44.2867 22.0769C43.9367 22.4569 43.5767 22.8669 43.2267 23.3169C42.1667 24.6969 41.2567 26.3569 41.2567 27.9569C41.2567 28.0769 41.2567 28.1969 41.2767 28.3169C41.3267 28.8569 41.5367 29.2769 41.8867 29.5469C42.2367 29.8069 42.6767 29.9069 43.1667 29.9069C43.9967 29.9069 44.9767 29.6269 45.9867 29.2169C46.9967 28.8069 48.0267 28.2669 48.9267 27.7169C48.8567 27.9869 48.7767 28.2669 48.6767 28.5569C48.3067 29.6369 47.7367 30.7869 46.9067 31.4869C46.6667 31.6869 46.5567 31.9769 46.5567 32.2569C46.5567 32.6669 46.7567 33.0569 47.0667 33.3569C47.3767 33.6569 47.8067 33.8769 48.3067 33.8769C48.4367 33.8769 48.5767 33.8569 48.7167 33.8269C49.6067 33.6069 50.8967 33.0369 52.1067 32.4469C51.9267 33.1869 51.7167 33.9469 51.4567 34.6069C51.3267 34.9369 51.2667 35.2469 51.2667 35.5269C51.2667 35.9269 51.3967 36.2769 51.6467 36.5369C51.8967 36.7869 52.2567 36.9169 52.6567 36.9169C53.5367 36.9169 54.6567 36.3269 55.8567 34.9869C56.3767 34.4069 56.8567 34.0269 57.2867 33.7869C57.3267 34.1069 57.3567 34.4369 57.3567 34.7769C57.3567 35.4569 57.2467 36.1169 56.9367 36.5569C56.7267 36.8669 56.6367 37.2069 56.6367 37.5269C56.6367 37.9469 56.7967 38.3469 57.0767 38.6469C57.3567 38.9469 57.7667 39.1369 58.2267 39.1269C58.9967 39.1269 59.8767 38.6269 60.7267 37.4369C61.0567 36.9769 61.3767 36.6169 61.6867 36.3169C61.7467 36.5969 61.7967 36.8969 61.8567 37.1869C62.0267 38.0769 62.1667 38.9369 62.2067 39.3669C62.2167 39.5069 62.2767 39.6269 62.3567 39.7469C62.4767 39.9169 62.6467 40.0869 62.8667 40.2169C63.0867 40.3469 63.3467 40.4369 63.6367 40.4369C63.8367 40.4369 64.0367 40.3969 64.2367 40.2969C65.0267 39.9169 65.9067 39.1269 66.6167 38.2969C66.9667 37.8769 67.2767 37.4469 67.4967 37.0469C67.7167 36.6369 67.8667 36.2669 67.8667 35.9169C67.8667 35.7369 67.8167 35.5469 67.6967 35.3969L67.6567 35.3769Z" fill="#FFF5E8"/>
<path d="M38.4067 9.38659C38.4067 9.48659 38.0367 9.78659 37.8367 9.73659C37.7267 9.71659 37.6467 9.67659 37.6467 9.67659C37.6467 9.67659 37.6367 9.67659 37.6067 9.68659C37.6067 9.68659 37.5967 9.68659 37.5767 9.68659C37.3267 9.75659 36.3967 10.0066 35.7967 9.93659C34.0767 9.75659 35.0267 8.17659 35.2467 7.84659C35.2667 7.81659 35.2767 7.80659 35.2767 7.79659C35.4267 7.52659 37.2667 7.75659 37.2667 7.75659C37.2667 7.75659 37.3267 7.65659 37.4067 7.63659C37.5467 7.60659 37.9167 7.63659 38.1067 7.73659C38.2567 7.80659 38.2167 8.04659 38.2467 8.35659C38.3067 8.82659 38.4067 9.15659 38.3967 9.36659L38.4067 9.38659Z" fill="#ADA79E"/>
<path d="M37.3467 7.68676C37.3467 7.68676 36.7667 8.14676 36.8367 8.81676C36.9067 9.48676 37.5167 9.69676 37.7767 9.72676C37.7767 9.72676 36.9667 9.36676 37.0167 8.62676C37.0667 7.96676 37.3467 7.67676 37.3467 7.67676V7.68676Z" fill="#948978"/>
<path d="M37.2267 7.8667C37.2267 7.8667 36.9367 8.2667 36.9567 8.7367C36.9667 9.0167 37.0667 9.3767 37.4667 9.5267C37.4667 9.5267 37.1267 9.2967 37.0567 8.7267C37.0267 8.4967 37.0967 8.2067 37.2267 7.8667Z" fill="#CCC5BB"/>
<path d="M37.9567 7.76667C37.9567 7.76667 38.0467 7.74667 38.1067 7.94667C38.1767 8.15667 38.2267 9.03667 38.2867 9.25667C38.3567 9.49667 38.1467 9.55667 38.0867 9.46667C38.0267 9.37667 38.0867 8.87667 38.0567 8.65667C38.0167 8.24667 37.7167 7.92667 37.9467 7.76667H37.9567Z" fill="#FFF6E9"/>
<path d="M37.5767 9.69644C37.3267 9.76644 36.3967 10.0164 35.7967 9.94644C34.0767 9.76644 35.0267 8.18645 35.2467 7.85645C35.1067 8.10645 34.6067 9.06644 35.1267 9.52644C35.6867 10.0164 37.3367 9.72644 37.5767 9.68644V9.69644Z" fill="#948978"/>
<path d="M38.1467 16.0064C38.1367 16.1064 37.7567 16.3864 37.5567 16.3264C37.4467 16.2964 37.3667 16.2564 37.3667 16.2564C37.3667 16.2564 37.3567 16.2564 37.3267 16.2564C37.3267 16.2564 37.3167 16.2564 37.2967 16.2564C37.0467 16.3164 36.1067 16.5064 35.4967 16.4064C33.7867 16.1264 34.8267 14.6064 35.0667 14.2964C35.0867 14.2664 35.0967 14.2564 35.0967 14.2464C35.2667 13.9864 37.0867 14.3264 37.0867 14.3264C37.0867 14.3264 37.1467 14.2364 37.2367 14.2164C37.3767 14.1964 37.7467 14.2464 37.9267 14.3564C38.0667 14.4364 38.0167 14.6764 38.0367 14.9864C38.0667 15.4564 38.1567 15.7864 38.1267 16.0064H38.1467Z" fill="#ADA79E"/>
<path d="M37.1967 14.2466C37.1967 14.2466 36.5867 14.6666 36.6167 15.3466C36.6467 16.0266 37.2467 16.2666 37.5067 16.3166C37.5067 16.3166 36.7167 15.9166 36.8167 15.1766C36.8967 14.5166 37.1967 14.2466 37.1967 14.2466Z" fill="#948978"/>
<path d="M37.0567 14.4263C37.0567 14.4263 36.7467 14.8063 36.7367 15.2763C36.7367 15.5563 36.8067 15.9263 37.1967 16.0963C37.1967 16.0963 36.8667 15.8463 36.8367 15.2763C36.8267 15.0463 36.8967 14.7663 37.0567 14.4263Z" fill="#CCC5BB"/>
<path d="M37.7966 14.3564C37.8466 14.3264 37.8866 14.3464 37.9366 14.5464C37.9866 14.7564 37.9966 15.6364 38.0466 15.8664C38.0966 16.1164 37.8866 16.1564 37.8366 16.0664C37.7866 15.9764 37.8666 15.4764 37.8566 15.2564C37.8366 14.8464 37.5566 14.5064 37.7966 14.3664V14.3564Z" fill="#FFF6E9"/>
<path d="M37.3067 16.2662C37.0567 16.3262 36.1167 16.5162 35.5067 16.4162C33.7967 16.1362 34.8367 14.6162 35.0767 14.3062C34.9167 14.5462 34.3767 15.4762 34.8667 15.9662C35.3967 16.4862 37.0667 16.2962 37.3067 16.2662Z" fill="#948978"/>
<path d="M39.3966 23.0666C39.4066 23.1766 39.0566 23.5666 38.8266 23.5466C38.6966 23.5466 38.6066 23.5166 38.6066 23.5166C38.6066 23.5166 38.5966 23.5166 38.5666 23.5366C38.5666 23.5366 38.5566 23.5366 38.5366 23.5466C38.2766 23.6666 37.2966 24.0966 36.6266 24.1266C34.7066 24.2166 35.4866 22.3266 35.6666 21.9366C35.6766 21.9066 35.6866 21.8866 35.6966 21.8766C35.8166 21.5566 37.8766 21.4966 37.8766 21.4966C37.8766 21.4966 37.9266 21.3866 38.0166 21.3466C38.1666 21.2966 38.5766 21.2666 38.7966 21.3366C38.9666 21.3866 38.9666 21.6666 39.0566 21.9966C39.1966 22.4966 39.3766 22.8366 39.3966 23.0866V23.0666Z" fill="#ADA79E"/>
<path d="M37.9567 21.3867C37.9567 21.3867 37.3967 21.9867 37.5867 22.7067C37.7767 23.4267 38.4867 23.5567 38.7767 23.5467C38.7767 23.5467 37.8267 23.2867 37.7567 22.4767C37.6967 21.7467 37.9567 21.3867 37.9567 21.3867Z" fill="#948978"/>
<path d="M37.8467 21.6064C37.8467 21.6064 37.5967 22.0964 37.7067 22.6064C37.7667 22.9064 37.9367 23.2964 38.3967 23.3864C38.3967 23.3864 37.9867 23.1964 37.8067 22.5764C37.7367 22.3264 37.7567 22.0064 37.8467 21.6064Z" fill="#CCC5BB"/>
<path d="M38.6366 21.3664C38.6366 21.3664 38.7366 21.3364 38.8366 21.5364C38.9466 21.7564 39.1566 22.7064 39.2566 22.9364C39.3666 23.1964 39.1566 23.2864 39.0666 23.2064C38.9766 23.1264 38.9666 22.5564 38.8966 22.3164C38.7766 21.8764 38.3966 21.5764 38.6266 21.3564L38.6366 21.3664Z" fill="#FFF6E9"/>
<path d="M38.5366 23.5465C38.2766 23.6665 37.2966 24.0965 36.6266 24.1265C34.7066 24.2165 35.4866 22.3265 35.6666 21.9365C35.5566 22.2365 35.1766 23.3665 35.8266 23.7865C36.5266 24.2265 38.2866 23.6365 38.5466 23.5465H38.5366Z" fill="#948978"/>
<path d="M43.0467 29.2565C43.1067 29.3565 42.9567 29.8565 42.7467 29.9365C42.6367 29.9865 42.5367 30.0065 42.5367 30.0065C42.5367 30.0065 42.5367 30.0165 42.5067 30.0365C42.5067 30.0365 42.5067 30.0365 42.4867 30.0565C42.3067 30.2865 41.6167 31.0965 41.0267 31.4165C39.3467 32.3465 39.2067 30.2965 39.2067 29.8665C39.2067 29.8365 39.2067 29.8065 39.2067 29.7965C39.1767 29.4465 40.9967 28.4965 40.9967 28.4965C40.9967 28.4965 40.9967 28.3765 41.0567 28.2965C41.1667 28.1865 41.5267 27.9765 41.7567 27.9365C41.9367 27.9065 42.0567 28.1565 42.2767 28.4065C42.6267 28.7965 42.9267 29.0265 43.0567 29.2365L43.0467 29.2565Z" fill="#ADA79E"/>
<path d="M41.0167 28.3765C41.0167 28.3765 40.7767 29.1665 41.2667 29.7265C41.7567 30.2865 42.4467 30.0965 42.7067 29.9665C42.7067 29.9665 41.7467 30.1565 41.3267 29.4465C40.9467 28.8165 41.0267 28.3765 41.0267 28.3765H41.0167Z" fill="#948978"/>
<path d="M41.0166 28.6265C41.0166 28.6265 41.0166 29.1765 41.3266 29.5865C41.5166 29.8265 41.8366 30.1065 42.2866 29.9865C42.2866 29.9865 41.8266 29.9965 41.4066 29.5165C41.2366 29.3165 41.1066 29.0265 41.0166 28.6265Z" fill="#CCC5BB"/>
<path d="M41.6167 28.0666C41.6367 28.0066 41.6867 27.9966 41.8667 28.1366C42.0567 28.2866 42.6667 29.0466 42.8567 29.2166C43.0667 29.3966 42.9167 29.5766 42.8067 29.5366C42.6967 29.4966 42.4267 28.9966 42.2667 28.8166C41.9667 28.4766 41.4967 28.3666 41.6067 28.0766L41.6167 28.0666Z" fill="#FFF6E9"/>
<path d="M42.4867 30.0665C42.3067 30.2965 41.6167 31.1065 41.0267 31.4265C39.3467 32.3565 39.2067 30.3065 39.2067 29.8765C39.2367 30.1965 39.3967 31.3865 40.1567 31.4765C40.9767 31.5665 42.2967 30.2565 42.4867 30.0665Z" fill="#948978"/>
<path d="M48.4667 33.0566C48.5267 33.1366 48.4667 33.5966 48.2867 33.6966C48.1967 33.7566 48.1067 33.7866 48.1067 33.7866C48.1067 33.7866 48.1067 33.7966 48.0867 33.8166C48.0867 33.8166 48.0867 33.8166 48.0667 33.8366C47.9367 34.0566 47.4267 34.8566 46.9467 35.2166C45.5767 36.2366 45.2067 34.4566 45.1467 34.0766C45.1467 34.0466 45.1467 34.0266 45.1367 34.0166C45.0667 33.7166 46.5567 32.6466 46.5567 32.6466C46.5567 32.6466 46.5367 32.5366 46.5867 32.4666C46.6667 32.3566 46.9567 32.1266 47.1567 32.0666C47.3067 32.0166 47.4467 32.2266 47.6767 32.4166C48.0367 32.7166 48.3267 32.8866 48.4667 33.0466V33.0566Z" fill="#ADA79E"/>
<path d="M46.5667 32.5366C46.5667 32.5366 46.4567 33.2566 46.9567 33.6966C47.4567 34.1366 48.0367 33.8766 48.2467 33.7266C48.2467 33.7266 47.4267 34.0066 46.9667 33.4466C46.5567 32.9366 46.5667 32.5466 46.5667 32.5466V32.5366Z" fill="#948978"/>
<path d="M46.5967 32.7466C46.5967 32.7466 46.6567 33.2266 46.9867 33.5566C47.1867 33.7466 47.4967 33.9466 47.8867 33.7866C47.8867 33.7866 47.4867 33.8566 47.0567 33.4866C46.8767 33.3366 46.7367 33.0866 46.6067 32.7466H46.5967Z" fill="#CCC5BB"/>
<path d="M47.0667 32.1863C47.0767 32.1263 47.1166 32.1164 47.2966 32.2164C47.4866 32.3264 48.1166 32.9164 48.3066 33.0364C48.5166 33.1664 48.4066 33.3464 48.3066 33.3264C48.2066 33.3064 47.9067 32.8963 47.7467 32.7563C47.4467 32.4863 47.0166 32.4563 47.0766 32.1863H47.0667Z" fill="#FFF6E9"/>
<path d="M48.0766 33.8364C47.9466 34.0564 47.4366 34.8564 46.9566 35.2164C45.5866 36.2364 45.2166 34.4564 45.1566 34.0764C45.2166 34.3564 45.5066 35.3764 46.1966 35.3664C46.9266 35.3464 47.9366 34.0264 48.0766 33.8364Z" fill="#948978"/>
<path d="M53.1766 36.1965C53.2466 36.2665 53.2366 36.7265 53.0766 36.8465C52.9866 36.9165 52.9066 36.9565 52.9066 36.9565C52.9066 36.9565 52.9066 36.9665 52.8866 36.9865C52.8866 36.9865 52.8866 36.9865 52.8766 37.0065C52.7766 37.2365 52.3566 38.0965 51.9266 38.5065C50.6866 39.6865 50.1066 37.9565 50.0066 37.5865C50.0066 37.5565 49.9966 37.5365 49.9866 37.5265C49.8866 37.2365 51.2366 36.0065 51.2366 36.0065C51.2366 36.0065 51.2066 35.8965 51.2366 35.8265C51.3066 35.7065 51.5666 35.4465 51.7566 35.3665C51.9066 35.2965 52.0566 35.4865 52.3166 35.6565C52.7066 35.9165 53.0166 36.0465 53.1766 36.1965Z" fill="#ADA79E"/>
<path d="M51.2266 35.8965C51.2266 35.8965 51.1966 36.6265 51.7466 37.0065C52.2966 37.3865 52.8466 37.0565 53.0366 36.8865C53.0366 36.8865 52.2466 37.2665 51.7266 36.7565C51.2566 36.2965 51.2266 35.9065 51.2266 35.9065V35.8965Z" fill="#948978"/>
<path d="M51.2866 36.1064C51.2866 36.1064 51.4066 36.5764 51.7666 36.8664C51.9866 37.0364 52.3166 37.1964 52.6866 36.9964C52.6866 36.9964 52.2966 37.1064 51.8266 36.7864C51.6366 36.6564 51.4566 36.4264 51.2866 36.1064Z" fill="#CCC5BB"/>
<path d="M51.6766 35.4864C51.6766 35.4264 51.7266 35.4064 51.9066 35.4864C52.1066 35.5664 52.7966 36.0864 53.0066 36.1864C53.2266 36.2964 53.1366 36.4764 53.0366 36.4764C52.9366 36.4764 52.5966 36.0964 52.4066 35.9764C52.0766 35.7464 51.6466 35.7664 51.6666 35.4864H51.6766Z" fill="#FFF6E9"/>
<path d="M52.8766 37.0166C52.7766 37.2466 52.3566 38.1066 51.9266 38.5166C50.6866 39.6966 50.1066 37.9666 50.0066 37.5966C50.1066 37.8666 50.5066 38.8466 51.1866 38.7566C51.9166 38.6466 52.7566 37.2266 52.8766 37.0166Z" fill="#948978"/>
<path d="M58.3967 38.2366C58.4667 38.2866 58.5167 38.6866 58.3967 38.8166C58.3267 38.8866 58.2667 38.9266 58.2667 38.9266C58.2667 38.9266 58.2667 38.9366 58.2667 38.9566C58.2667 38.9566 58.2667 38.9566 58.2667 38.9766C58.2067 39.1966 57.9667 39.9766 57.6467 40.3966C56.7367 41.5666 56.0167 40.1566 55.8767 39.8566C55.8667 39.8366 55.8567 39.8166 55.8567 39.8066C55.7367 39.5666 56.7367 38.3366 56.7367 38.3366C56.7367 38.3366 56.6967 38.2466 56.7167 38.1766C56.7567 38.0666 56.9567 37.8066 57.1067 37.7066C57.2267 37.6266 57.3867 37.7666 57.6267 37.8866C57.9967 38.0566 58.2867 38.1266 58.4367 38.2366H58.3967Z" fill="#ADA79E"/>
<path d="M56.6866 38.2366C56.6866 38.2366 56.7566 38.8666 57.2766 39.1166C57.7966 39.3666 58.2266 39.0166 58.3666 38.8466C58.3666 38.8466 57.7366 39.2766 57.2266 38.8966C56.7666 38.5666 56.6866 38.2266 56.6866 38.2266V38.2366Z" fill="#948978"/>
<path d="M56.7567 38.4067C56.7567 38.4067 56.9167 38.7967 57.2667 38.9967C57.4767 39.1167 57.7867 39.2067 58.0767 38.9967C58.0767 38.9967 57.7567 39.1467 57.3067 38.9367C57.1267 38.8467 56.9467 38.6767 56.7567 38.4167V38.4067Z" fill="#CCC5BB"/>
<path d="M57.0167 37.8267C57.0167 37.7767 57.0467 37.7567 57.2167 37.7967C57.3967 37.8467 58.0667 38.1967 58.2567 38.2567C58.4667 38.3167 58.4067 38.4967 58.3167 38.4967C58.2267 38.4967 57.8867 38.2267 57.7167 38.1467C57.3967 37.9967 57.0267 38.0667 57.0167 37.8167V37.8267Z" fill="#FFF6E9"/>
<path d="M58.2467 38.9766C58.1867 39.1966 57.9467 39.9766 57.6267 40.3966C56.7167 41.5666 55.9967 40.1566 55.8567 39.8566C55.9767 40.0766 56.4467 40.8666 57.0267 40.6966C57.6367 40.5066 58.1767 39.1766 58.2567 38.9766H58.2467Z" fill="#948978"/>
<path d="M64.1367 39.5568C64.2167 39.5868 64.3667 39.9668 64.2767 40.1168C64.2267 40.2068 64.1767 40.2568 64.1767 40.2568C64.1767 40.2568 64.1767 40.2668 64.1767 40.2868C64.1767 40.2868 64.1767 40.2868 64.1767 40.3068C64.1767 40.5268 64.1267 41.3568 63.9167 41.8368C63.3167 43.1968 62.2767 42.0068 62.0667 41.7468C62.0467 41.7268 62.0367 41.7168 62.0267 41.7068C61.8467 41.5068 62.5167 40.0668 62.5167 40.0668C62.5167 40.0668 62.4567 39.9968 62.4567 39.9168C62.4667 39.7968 62.5967 39.4968 62.7167 39.3668C62.8167 39.2668 62.9967 39.3668 63.2667 39.4068C63.6667 39.4768 63.9567 39.4768 64.1367 39.5468V39.5568Z" fill="#ADA79E"/>
<path d="M62.4767 39.9871C62.4767 39.9871 62.6967 40.5871 63.2667 40.6971C63.8367 40.8071 64.1667 40.367 64.2567 40.167C64.2567 40.167 63.7567 40.7371 63.1667 40.4971C62.6367 40.2871 62.4767 39.9771 62.4767 39.9771V39.9871Z" fill="#948978"/>
<path d="M62.5867 40.127C62.5867 40.127 62.8367 40.467 63.2267 40.577C63.4567 40.637 63.7867 40.657 64.0067 40.367C64.0067 40.367 63.7267 40.587 63.2467 40.497C63.0467 40.457 62.8367 40.337 62.5867 40.137V40.127Z" fill="#CCC5BB"/>
<path d="M62.6967 39.5068C62.6967 39.5068 62.7067 39.4268 62.8867 39.4268C63.0767 39.4268 63.8067 39.6068 64.0067 39.6168C64.2267 39.6168 64.2167 39.8068 64.1267 39.8368C64.0367 39.8668 63.6467 39.6868 63.4567 39.6468C63.1167 39.5768 62.7767 39.7368 62.6967 39.4968V39.5068Z" fill="#FFF6E9"/>
<path d="M64.1766 40.3169C64.1766 40.5369 64.1266 41.3669 63.9166 41.8469C63.3166 43.2069 62.2767 42.0169 62.0667 41.7569C62.2367 41.9369 62.8867 42.5969 63.4067 42.2869C63.9567 41.9569 64.1466 40.5269 64.1766 40.3169Z" fill="#948978"/>
<g style="mix-blend-mode:multiply" opacity="0.1">
<path d="M25.7266 53.697C24.9666 53.737 24.1666 53.737 23.3466 53.697C18.9366 53.497 14.7766 52.487 13.9566 51.177C13.2066 49.967 13.4666 45.017 13.9766 44.577C14.4866 44.137 14.8066 43.967 14.8066 43.967C14.6866 40.857 14.7066 32.117 18.1166 27.217C18.1166 27.217 17.5066 21.387 18.4566 19.147C18.6366 18.737 18.6966 18.337 18.6866 17.917C17.3266 17.597 16.7466 16.917 16.7466 14.067C16.7466 12.937 16.8366 12.337 16.9366 12.027C17.0466 11.687 17.1566 11.677 17.1766 11.677C17.1066 11.617 16.4666 11.017 16.5966 8.42697C16.6066 8.25697 16.6166 8.02697 16.6366 7.77697C16.6866 7.02697 16.8366 6.03697 17.3166 5.50697C17.3866 5.43697 17.5666 5.30697 17.8566 5.14697C19.0566 4.48697 21.9566 3.28697 24.8666 2.89697C24.8666 2.89697 21.4866 4.68697 20.7766 8.00697C20.7766 8.01697 20.7766 8.02697 20.7766 8.03697C20.4766 9.40697 20.6466 11.027 21.6866 12.897C21.6866 12.897 21.6166 13.147 21.5366 13.547C21.3766 14.277 21.1666 15.517 21.2566 16.607C21.3166 17.357 21.5166 18.037 21.9666 18.427C21.9666 18.427 20.9766 26.027 22.3266 27.957C22.3266 27.957 22.7666 38.657 25.2566 47.787C25.2566 47.787 25.1166 48.287 25.0766 49.167C25.0266 50.197 25.1166 51.767 25.7266 53.697Z" fill="#352C73"/>
</g>
<g style="mix-blend-mode:overlay" opacity="0.29">
<path d="M44.5866 3.16681C44.5866 3.16681 44.2666 1.14681 43.9966 0.676811C43.7266 0.196811 42.4166 2.35681 38.9866 1.80681C35.8366 1.31681 34.9266 3.56681 34.7966 3.94681C35.1266 2.61681 35.9866 1.23681 38.1166 1.11681C40.6466 0.966811 41.8666 1.48681 43.3566 0.186811C44.2266 -0.573189 44.5366 1.26681 44.5866 3.15681V3.16681Z" fill="#DDE39F"/>
</g>
<g style="mix-blend-mode:multiply" opacity="0.38">
<path d="M34.5466 51.7567C34.5466 51.7567 33.5766 52.2067 31.9266 52.6667L33.5366 50.8367L34.4266 49.8267L34.4966 50.9967L34.5466 51.7567Z" fill="#352C73"/>
</g>
<g style="mix-blend-mode:overlay" opacity="0.9">
<path d="M79.5066 45.4967C78.0666 45.9367 75.0566 46.2067 71.6966 45.6967C67.4966 45.0667 64.5866 42.8467 67.6666 40.7767C70.7366 38.6967 68.9366 35.5767 68.9366 35.5767C72.2466 35.7067 78.8266 37.0467 79.5066 45.4967Z" fill="#CACF92" fill-opacity="0.51"/>
</g>
<g style="mix-blend-mode:multiply" opacity="0.43">
<path d="M66.9666 54.3066C66.2966 54.3966 65.6066 54.4766 64.8866 54.5566C53.7266 55.7766 38.2566 55.2666 34.5466 51.7566C34.5466 51.7566 33.5766 52.2066 31.9266 52.6666C30.3766 53.1166 28.2266 53.5766 25.7266 53.6866C24.9666 53.7266 24.1666 53.7266 23.3466 53.6866C18.9366 53.4866 14.7766 52.4766 13.9566 51.1666C13.2066 49.9566 13.4666 45.0066 13.9766 44.5666C14.4866 44.1266 14.8066 43.9566 14.8066 43.9566C14.6866 40.8466 14.7066 32.1066 18.1166 27.2066C18.1166 27.2066 17.5066 21.3766 18.4566 19.1366C18.6366 18.7266 18.6966 18.3266 18.6866 17.9066C17.3266 17.5866 16.7466 16.9066 16.7466 14.0566C16.7466 12.9266 16.8366 12.3266 16.9366 12.0166C17.0466 11.6766 17.1566 11.6666 17.1766 11.6666C17.1066 11.6066 16.4666 11.0066 16.5966 8.4166C16.6066 8.2466 16.6166 8.0166 16.6366 7.7666C16.8866 7.7766 17.2766 7.7966 17.7566 7.8266C18.5366 7.8666 19.5666 7.9366 20.7566 8.0266H20.7866C24.0966 8.2666 28.5866 8.6566 31.9366 9.1866C33.0666 9.3666 34.0666 9.5666 34.8466 9.7766C34.8766 9.7866 34.9066 9.7966 34.9466 9.8066C35.5766 9.9866 36.0566 10.1766 36.3466 10.3766C36.6366 10.5766 36.7766 10.9366 36.8266 11.4366C36.8966 12.1066 36.7866 13.0166 36.6266 14.1266C36.6266 14.1566 36.6266 14.1966 36.6066 14.2366C36.5266 14.8766 36.4166 15.5666 36.3166 16.3166C36.3166 16.3466 36.3066 16.3766 36.2966 16.4166V16.4466C36.2666 16.6766 36.2366 16.9166 36.2066 17.1666C36.1966 17.2666 36.1866 17.3766 36.1766 17.4766C36.0766 18.4166 36.0066 19.4166 35.9966 20.4666C35.9966 20.8566 35.9966 21.2466 36.0166 21.6366V21.6766C36.0466 22.4066 36.1166 23.1566 36.2166 23.9166C36.2266 23.9766 36.2366 24.0366 36.2466 24.0966C36.2466 24.1066 36.2466 24.1166 36.2466 24.1266C36.8066 28.0766 38.3566 32.3266 41.2766 36.1066C41.3666 36.2266 41.4666 36.3466 41.5666 36.4666C41.9766 36.9666 42.4366 37.4566 42.9566 37.9466C42.9566 37.9466 42.9566 37.9466 42.9666 37.9466C46.3866 41.1966 51.9566 44.0666 58.0666 44.3966C59.4966 44.4766 60.7466 44.8666 61.8166 45.4866C61.9966 45.5866 62.1666 45.6866 62.3266 45.7966C64.0666 46.9566 65.3066 48.6966 66.0566 50.4966C66.2766 51.0066 66.4566 51.5366 66.5866 52.0466C66.7966 52.8266 66.9166 53.5966 66.9466 54.3066H66.9666Z" fill="#352C73"/>
</g>
<path d="M28.9766 23.4568C28.3166 24.0768 23.6766 24.1868 19.4566 23.3768C18.3366 23.1568 11.0566 21.8568 10.0766 21.5068C8.75663 21.0368 8.21663 10.5168 9.04663 10.0468C15.2666 6.46678 21.9166 7.81678 24.0166 8.26678C26.8366 8.87678 29.7066 8.91678 30.6966 11.5568C30.6966 11.5568 29.8166 22.6668 28.9766 23.4568Z" fill="#5E0045"/>
<path d="M35.3467 7.71686C35.3467 7.71686 33.3267 7.18686 32.7767 8.62686C32.2267 10.0669 33.7367 11.1669 33.7367 11.1669C33.7367 11.1669 35.5567 9.82686 35.3467 7.71686Z" fill="#5E0045"/>
<path d="M56.7866 46.897L51.2266 51.297C51.2266 51.297 51.1266 51.247 50.9466 51.147C50.6266 50.967 50.0466 50.647 49.3066 50.237C48.4066 49.747 47.2666 49.107 46.0666 48.437C42.4866 46.417 38.2666 44.017 37.7966 43.527C37.3266 43.017 32.8566 39.807 29.4566 33.097C29.0466 32.297 28.6566 31.447 28.2966 30.557C27.9066 29.597 27.5366 28.577 27.2166 27.507C26.9366 26.597 26.6866 25.647 26.4666 24.657C26.2566 23.687 26.0766 22.667 25.9266 21.617C25.7166 20.097 25.5866 18.477 25.5466 16.777C25.5466 16.497 25.5466 16.217 25.5366 15.937C25.5366 15.057 25.5566 14.157 25.6066 13.227C25.6066 13.227 25.5766 12.467 25.7766 11.527C25.8266 11.267 25.9066 10.987 26.0066 10.717C26.0066 10.717 26.0066 10.697 26.0266 10.657C26.4966 9.36703 27.4966 8.09703 29.6266 8.19703C32.1566 8.31703 33.3166 8.96703 34.9366 7.83703C35.8866 7.17703 35.9966 9.03703 35.8466 10.927C35.7466 12.267 35.5166 13.617 35.3666 14.087C35.3466 14.167 35.2966 14.337 35.2366 14.607C34.4666 18.287 31.5966 39.017 54.6966 45.597L55.5366 46.117L56.7966 46.897H56.7866Z" fill="#855100"/>
<g style="mix-blend-mode:multiply" opacity="0.1">
<path d="M29.6567 11.957C29.6567 11.957 31.1267 11.297 30.6767 15.437C30.2267 19.577 29.6167 26.767 32.8667 33.367C33.4467 34.547 38.6767 41.087 42.7367 42.957C46.7967 44.827 52.7367 48.207 52.7367 48.207L51.6267 49.537C51.6267 49.537 32.6867 40.117 30.3667 34.157C28.0367 28.187 29.6567 11.977 29.6567 11.977V11.957Z" fill="#352C73"/>
</g>
<path d="M65.7266 59.547C65.7266 59.547 55.5766 63.087 42.5266 61.677C31.9366 60.537 19.7766 57.487 11.5066 54.567C5.89662 52.577 2.07662 50.657 1.78662 49.447C1.78662 49.447 1.78662 49.207 1.81662 48.777C1.81662 48.637 1.83662 48.487 1.84662 48.307C2.06662 45.197 3.01662 36.507 6.93662 32.007C6.93662 32.007 6.95662 26.147 8.13662 24.017C8.35662 23.627 8.45662 23.237 8.49662 22.827C8.64662 21.377 7.96662 19.727 8.42662 17.527C8.46662 17.347 8.50662 17.157 8.56662 16.967C8.67662 16.577 8.82662 16.177 9.02662 15.747C9.46662 14.787 10.4266 13.927 11.6466 13.197C15.3166 11.007 21.3866 10.097 22.9366 11.847C22.9366 11.847 24.1966 11.537 25.7566 11.527C27.9866 11.507 30.5166 10.917 30.2066 13.987C29.8866 17.177 27.9066 30.577 36.1466 38.687C41.9166 44.367 49.7266 47.807 51.6566 48.287C52.5066 48.497 54.6766 45.617 54.6766 45.617C54.6766 45.617 55.0366 45.617 55.6266 45.657C55.8866 45.677 56.2066 45.717 56.5566 45.767C59.8266 46.257 66.2366 48.287 66.0066 56.767C66.0066 57.037 65.9866 57.317 65.9666 57.597C65.9266 58.207 65.8366 58.867 65.7266 59.547Z" fill="#995D00"/>
<g style="mix-blend-mode:multiply" opacity="0.1">
<path d="M51.6566 47.8271C51.6566 47.8271 51.6266 47.8571 51.6066 47.8671H51.5966C51.5966 47.8671 51.4966 47.9371 51.3466 48.1071C51.2266 48.2271 51.0766 48.3971 50.9166 48.6171C50.3266 49.3671 49.4766 50.6671 48.9466 52.5271C48.9166 52.6171 48.8866 52.6971 48.8566 52.7671C48.6266 52.7471 48.4066 52.7271 48.1766 52.7071C42.9966 52.1471 37.7466 49.5971 33.4366 46.7471C29.1166 43.8971 25.7366 40.7471 24.2966 39.0371C23.5866 38.1971 23.0366 36.8171 22.6366 35.2171C22.0266 32.8271 21.7466 29.9571 21.6266 27.6871C21.5666 26.5571 21.5366 25.5671 21.5266 24.8771C21.5266 24.5271 21.5266 24.2471 21.5266 24.0571C21.5266 23.8671 21.5266 23.7671 21.5266 23.7671H20.9966C20.9966 23.7671 20.9566 26.7471 21.2866 30.1771C21.4566 31.8971 21.7166 33.7271 22.1266 35.3571C22.5466 36.9971 23.0966 38.4371 23.8966 39.3871C25.3866 41.1571 28.7966 44.3171 33.1566 47.1971C37.5166 50.0771 42.8266 52.6671 48.1366 53.2371C48.3466 53.2571 48.5566 53.2771 48.7666 53.2971C48.7666 53.3271 48.7566 53.3571 48.7466 53.3871C48.4666 54.6971 48.2866 55.9371 48.1666 57.0671C47.8066 60.4171 47.9966 62.7571 47.9966 62.7671L48.5266 62.7271C48.5266 62.7271 48.5266 62.6971 48.5266 62.6271C48.4966 62.1471 48.3866 60.0171 48.6966 57.1271C48.8166 56.0171 48.9966 54.7871 49.2766 53.4971C49.3366 53.2171 49.4066 52.9571 49.4766 52.6971C49.6466 52.2271 49.9566 51.4471 50.3466 50.6571C50.6466 50.0371 51.0066 49.4171 51.3666 48.9271C51.4766 48.7871 51.5866 48.6671 51.6666 48.5671C51.6966 48.5271 51.7366 48.4971 51.7666 48.4571C51.8466 48.3771 51.9266 48.3071 52.0066 48.2471L51.6866 47.8271H51.6566Z" fill="#352C73"/>
</g>
<path d="M65.9967 61.1669C65.6967 63.1269 59.4067 64.1869 50.4967 64.1969C39.2667 64.2069 23.9467 62.0469 20.6267 58.1569C20.6267 58.1569 19.6167 58.4969 17.9267 58.7869C16.3367 59.0669 14.1467 59.2969 11.6567 59.1369C10.8967 59.0869 10.0967 59.0069 9.28665 58.8869C4.91665 58.2169 0.896655 56.7669 0.226655 55.3769C-0.393345 54.0969 0.396654 49.1969 0.946654 48.8169C1.49665 48.4369 1.83665 48.2969 1.83665 48.2969C1.83665 48.2969 1.76665 48.4969 1.80665 48.7669C1.87665 49.2469 2.27665 50.0469 3.85665 50.8669C5.77665 51.8669 8.81666 52.6369 11.8167 53.2069C16.5467 54.1169 21.1767 54.5269 21.1767 54.5269C21.1767 54.5269 28.0867 60.0069 49.6867 60.2669C62.4067 60.4169 65.3167 58.4469 65.5767 58.2669C65.7867 58.1169 65.9166 57.7169 65.9566 57.5769C65.9566 57.5469 65.9767 57.5269 65.9767 57.5269C65.9767 57.5269 66.5967 57.2169 65.9867 61.1569L65.9967 61.1669Z" fill="#855100"/>
<path d="M21.2266 23.7571C20.5666 24.3771 15.9266 24.4871 11.7066 23.6771C10.5866 23.4571 9.48663 23.1771 8.50663 22.8271C7.18663 22.3571 6.68663 21.6171 6.99663 18.7971C7.11663 17.6771 7.27663 17.0871 7.40663 16.7871C7.54663 16.4571 7.66663 16.4671 7.68663 16.4671C7.61663 16.3971 7.04663 15.7371 7.45663 13.1671C7.55663 12.4971 7.76663 10.9771 8.48663 10.3471C8.88663 9.99706 12.6466 8.65706 16.2866 8.56706C19.1766 8.49706 21.9766 9.21706 22.9666 11.8571C22.9666 11.8571 22.0866 22.9671 21.2466 23.7571H21.2266Z" fill="#EDE6DC"/>
<g style="mix-blend-mode:multiply" opacity="0.1">
<path d="M55.6366 45.6467C55.6166 45.8067 55.5766 45.9667 55.5266 46.1167C54.7466 48.7167 51.1266 50.9167 51.1266 50.9167C51.1266 50.9167 51.0666 51.0167 50.9466 51.1467C50.6166 51.5267 49.8666 52.1167 49.4166 50.5467C49.3866 50.4367 49.3466 50.3367 49.2966 50.2367C48.7066 48.9967 47.0166 48.5767 46.0566 48.4367C45.6466 48.3667 45.3666 48.3667 45.3666 48.3667C45.3666 48.3667 44.4066 49.1467 43.7366 47.5767C43.0666 46.0167 39.0666 47.0267 39.0666 47.0267C39.0666 47.0267 38.7266 47.3667 38.0966 44.9367C37.4666 42.5167 34.0166 43.2667 34.0166 43.2667L33.0666 41.6467C33.6366 37.8867 32.3066 39.0567 30.7666 39.0367C29.2366 39.0067 28.2166 38.7267 28.2166 38.7267C28.2166 38.7267 29.0666 38.1567 29.3866 34.0167C29.4166 33.6767 29.4266 33.3667 29.4366 33.0967C29.4566 31.1367 28.9666 30.5967 28.2766 30.5567C27.3866 30.4967 26.1666 31.2767 25.3866 30.8867C23.9166 30.1467 25.1466 28.4667 25.1466 28.4667C25.1466 28.4667 26.1966 28.0367 27.1966 27.5067C28.5466 26.7767 29.8166 25.8467 28.3366 25.4967C27.5866 25.3167 26.9566 25.0067 26.4466 24.6567C25.2166 23.8167 24.6766 22.7367 24.6766 22.7367C24.6766 22.7367 25.4466 22.0067 25.9166 21.6167C25.9366 21.5967 25.9566 21.5867 25.9766 21.5667C26.4266 21.1867 29.3766 19.4267 27.2366 18.3467C26.1866 17.8167 25.7366 17.2367 25.5466 16.7767C25.3466 16.2967 25.4366 15.9567 25.4366 15.9567L25.5366 15.9367L31.5066 15.1267L35.2366 14.6167C34.4666 18.2967 31.5966 39.0267 54.6966 45.6067C54.6966 45.6067 55.0566 45.6067 55.6466 45.6467H55.6366Z" fill="#352C73"/>
</g>
<path d="M22.2966 18.4168L22.1766 19.4068C22.1766 19.4068 16.4366 19.8768 11.8066 18.7868C10.5566 18.4968 9.38661 18.0968 8.43661 17.5368C8.05661 17.3168 7.70661 17.0668 7.39661 16.7868C7.53661 16.4568 7.65661 16.4668 7.67661 16.4668C7.67661 16.4668 7.99661 16.6868 8.57661 16.9768C9.20661 17.2968 10.1466 17.6968 11.3066 17.9968C11.5366 18.0568 11.7766 18.1168 12.0266 18.1668C14.8566 18.7968 18.7066 19.0568 22.2966 18.4268V18.4168Z" fill="#E3DCD3"/>
<path d="M55.3066 45.4271C55.2066 45.2671 55.0266 45.1571 54.8366 45.1071C54.6966 45.0671 54.5466 45.1471 54.5066 45.2871C54.4666 45.4271 54.5466 45.5771 54.6866 45.6171C54.7966 45.6471 54.8366 45.6871 54.8566 45.7171C54.8766 45.7471 54.8966 45.8071 54.8866 45.8971C54.8666 46.0871 54.7266 46.3971 54.4866 46.7371C54.1266 47.2471 53.5666 47.8371 52.9566 48.3271C52.3466 48.8271 51.6866 49.2371 51.1566 49.4271C51.0166 49.4771 50.8966 49.4871 50.7766 49.4771C50.5366 49.4571 50.3166 49.3271 50.1666 49.1671C50.0866 49.0871 50.0266 49.0071 49.9866 48.9371C49.9466 48.8671 49.9366 48.8071 49.9366 48.8071C49.9466 48.1671 49.8466 46.8371 49.7466 45.6371C49.7466 45.5471 49.7266 45.4571 49.7266 45.3671C49.7966 45.3271 49.8566 45.2871 49.9266 45.2571L52.5166 44.9771C52.6366 44.9671 52.7366 44.8671 52.7566 44.7371C52.7666 44.6171 52.6966 44.4971 52.5766 44.4571C52.4966 44.4271 52.2566 44.3471 51.9166 44.3171C51.4266 44.2571 50.6966 44.3071 49.8566 44.7071L49.5466 43.3771C49.5166 43.2371 49.3866 43.1571 49.2466 43.1771C49.1066 43.1971 49.0166 43.3271 49.0266 43.4671C49.0266 43.4671 49.0566 43.7271 49.0966 44.1271C49.1266 44.3971 49.1566 44.7271 49.1866 45.0971C48.7266 45.3971 48.2566 45.8071 47.7666 46.3671C46.8566 47.3871 46.0766 47.6671 45.5566 47.6071C45.2366 47.5671 44.9966 47.4171 44.8266 47.2071C44.6666 46.9971 44.5866 46.7171 44.6166 46.4271C44.6366 46.2071 44.7266 45.9771 44.9066 45.7771C45.3566 45.2271 45.5466 44.4971 45.6266 43.7671C45.6666 43.3571 45.6766 42.9471 45.6666 42.5671L47.4066 42.6971C47.5266 42.6971 47.6366 42.6371 47.6766 42.5171C47.7166 42.4071 47.6766 42.2771 47.5766 42.2071C47.5466 42.1871 47.2266 41.9771 46.6566 41.9071C46.4066 41.8771 46.1066 41.8871 45.7666 41.9571C45.7566 41.8571 45.7466 41.7371 45.7266 41.6171C45.7066 41.4471 45.6666 41.2771 45.6266 41.1271C45.6066 41.0471 45.5766 40.9771 45.5366 40.9071C45.4966 40.8371 45.4466 40.7571 45.3266 40.7071C45.2366 40.6671 45.1366 40.6871 45.0566 40.7471C44.9766 40.8071 44.9466 40.9071 44.9666 41.0071V41.0671C45.0066 41.2171 45.0666 41.6271 45.1066 42.1471C44.5466 42.3671 43.9166 42.7371 43.2266 43.3571C41.9666 44.5071 40.8866 44.8671 40.2566 44.7971C39.9666 44.7671 39.7766 44.6571 39.6566 44.5071C39.5366 44.3571 39.4766 44.1471 39.5066 43.8571C39.5266 43.6571 39.6066 43.4071 39.7366 43.1471C40.1366 42.3671 40.4966 41.4371 40.7966 40.5871C41.5166 40.3171 42.1666 40.0471 42.6366 39.8371C42.8766 39.7271 43.0666 39.6371 43.2166 39.5671C43.2866 39.5271 43.3466 39.4971 43.3966 39.4671L43.4666 39.4171L43.5166 39.3671C43.5166 39.3671 43.5566 39.3071 43.5766 39.2271L43.5466 39.0771C43.5066 38.9971 43.4466 38.9671 43.4066 38.9471L43.3166 38.9271C43.2666 38.9271 43.2366 38.9271 43.1966 38.9271C43.1466 38.9271 43.1066 38.9471 43.0366 38.9671C42.7066 39.0571 41.9266 39.2771 41.4666 39.4171L41.5466 38.0171C41.5466 37.8771 41.4566 37.7571 41.3166 37.7371C41.1766 37.7171 41.0566 37.8071 41.0166 37.9371C41.0166 37.9371 40.9666 38.1271 40.8866 38.4371C40.7766 38.8471 40.5866 39.4871 40.3566 40.1871C40.1766 40.2571 39.9866 40.3271 39.7966 40.3871C38.5966 40.8171 37.3366 41.1971 36.5466 41.3071C36.4466 41.3171 36.3566 41.3171 36.2666 41.3071C35.9366 41.2771 35.6466 41.0871 35.4466 40.8471C35.2466 40.6071 35.1466 40.3071 35.1766 40.0871C35.1966 39.9371 35.2466 39.8371 35.3766 39.7471C36.5566 38.9471 37.3266 37.5471 37.8366 36.3571C37.9466 36.0971 38.0366 35.8471 38.1166 35.6171C38.1866 35.6171 38.2466 35.6171 38.3166 35.6171C38.4066 35.6171 38.4866 35.6471 38.5666 35.6671L39.4966 36.2771C39.6066 36.3471 39.7566 36.3271 39.8366 36.2371C39.9266 36.1371 39.9266 35.9971 39.8366 35.8871C39.8166 35.8671 39.4466 35.4171 38.8066 35.1971L38.5666 35.0371V34.0871C38.5666 33.9471 38.4566 33.8371 38.3266 33.8271C38.1966 33.8171 38.0666 33.8971 38.0366 34.0371C38.0366 34.0371 38.0266 34.0971 37.9966 34.1971C37.9466 34.3871 37.8566 34.7171 37.7166 35.1371C37.5766 35.1671 37.4266 35.2171 37.2766 35.2871C36.3366 35.7271 35.2766 36.1571 34.2566 36.4471C33.2466 36.7371 32.2866 36.8971 31.5866 36.8171C31.1666 36.7771 30.8566 36.6471 30.6566 36.4571C30.4566 36.2671 30.3366 36.0071 30.3466 35.5671C30.3466 35.4671 30.3466 35.3671 30.3666 35.2571C30.5066 33.8771 31.5166 32.3871 32.6766 31.1671C33.2366 30.5771 33.8266 30.0571 34.3666 29.6371C34.3966 29.6371 34.4166 29.6371 34.4466 29.6371L36.2066 30.0871C36.3366 30.1171 36.4766 30.0471 36.5166 29.9271C36.5666 29.7971 36.5166 29.6571 36.3866 29.5971C35.9966 29.3971 35.5966 29.2671 35.1966 29.1871C35.2266 29.1671 35.2566 29.1471 35.2866 29.1271C35.4666 29.0071 35.6466 28.8871 35.7766 28.7871C35.8466 28.7371 35.9066 28.6971 35.9466 28.6571L36.0166 28.5971L36.0566 28.5571C36.0566 28.5571 36.0966 28.5171 36.1166 28.4171C36.1266 28.3571 36.1066 28.2571 36.0366 28.1971C35.9666 28.1371 35.9066 28.1271 35.8766 28.1271C35.8066 28.1271 35.7866 28.1271 35.7566 28.1371C35.6966 28.1571 35.6466 28.1771 35.5566 28.2171C35.2066 28.3871 34.7266 28.6971 34.1966 29.1071C33.1566 29.1171 32.1466 29.4071 31.2366 29.6971C30.6966 29.8771 30.1866 30.0471 29.7566 30.1771C29.3166 30.2971 28.9466 30.3671 28.6866 30.3371C28.4566 30.3071 28.3266 30.2371 28.2066 30.0771C28.0966 29.9071 28.0066 29.6071 27.9966 29.1171C27.9966 28.9171 27.9966 28.7371 28.0166 28.5771C28.0466 28.2771 28.1166 28.0471 28.2066 27.8771C28.3566 27.5771 28.5766 27.4171 28.9266 27.2771C29.4466 27.0671 30.2266 26.9571 31.1666 26.6371C32.1066 26.3171 33.2166 25.7871 34.4066 24.7071C34.4766 24.6471 34.5366 24.5771 34.5866 24.5071L34.7666 24.7571C34.8466 24.8671 34.9966 24.8971 35.1166 24.8271C35.2366 24.7571 35.2766 24.6071 35.2166 24.4771C35.2166 24.4671 35.1266 24.3171 34.9766 24.1371L34.8866 24.0171C34.9266 23.9371 34.9566 23.8471 34.9966 23.7771C35.1166 23.4771 35.1666 23.2471 35.1666 23.2371C35.1966 23.1071 35.1166 22.9671 34.9866 22.9271C34.8566 22.8871 34.7166 22.9471 34.6666 23.0771L34.3966 23.7071C34.2566 23.6471 34.1066 23.5871 33.9366 23.5671C33.8666 23.5671 33.8066 23.5571 33.7366 23.5671C32.5066 23.5971 30.7166 23.8171 29.4066 23.6771C28.8866 23.6271 28.4466 23.5071 28.1566 23.3271C28.0166 23.2371 27.9066 23.1371 27.8366 23.0171C27.7666 22.8971 27.7166 22.7671 27.7066 22.5871C27.7066 22.4571 27.7066 22.3371 27.7166 22.2171C27.7966 21.4371 28.2566 20.7971 28.9366 20.2471C29.9566 19.4271 31.4666 18.8771 32.7066 18.5471C33.3266 18.3771 33.8866 18.2671 34.2866 18.1871C34.4866 18.1471 34.6466 18.1271 34.7566 18.1071C34.8666 18.0871 34.9266 18.0871 34.9266 18.0871C35.0666 18.0671 35.1666 17.9371 35.1566 17.7971C35.1466 17.6571 35.0166 17.5471 34.8766 17.5571C34.8766 17.5571 34.7866 17.5571 34.6366 17.5671C34.1666 17.5871 33.0866 17.5971 31.9566 17.4771C31.0766 17.3871 30.1566 17.1971 29.4966 16.8871C29.1666 16.7271 28.8966 16.5471 28.7266 16.3271C28.5566 16.1171 28.4566 15.8871 28.4566 15.5871V15.4771C28.4866 15.2871 28.5466 15.1371 28.6566 14.9971C28.8466 14.7571 29.1766 14.5571 29.6166 14.4171C30.2766 14.2071 31.1566 14.1271 32.0266 14.1271C32.8966 14.1271 33.7466 14.1871 34.3566 14.2571C34.6466 14.2871 34.8766 14.3171 35.0466 14.3371C35.2066 14.3571 35.2966 14.3771 35.2966 14.3771C35.4366 14.3971 35.5766 14.3071 35.5966 14.1571C35.6166 14.0171 35.5266 13.8771 35.3766 13.8571C35.3766 13.8571 34.9966 13.7971 34.4066 13.7271C33.4466 13.6271 31.9366 13.5171 30.6166 13.6771C29.9566 13.7571 29.3366 13.8971 28.8466 14.1671C28.6066 14.2971 28.3866 14.4671 28.2266 14.6771C28.0666 14.8871 27.9566 15.1371 27.9266 15.4171C27.9266 15.4771 27.9266 15.5271 27.9266 15.5871C27.9266 16.0071 28.0766 16.3771 28.3166 16.6671C28.6866 17.1071 29.2466 17.3971 29.8766 17.5971C30.5066 17.8071 31.2166 17.9271 31.9066 17.9971C32.0966 18.0171 32.2966 18.0371 32.4766 18.0471C32.0766 18.1571 31.6466 18.2871 31.2166 18.4471C30.2966 18.7871 29.3466 19.2271 28.5966 19.8271C27.8466 20.4271 27.2766 21.1871 27.1766 22.1471C27.1566 22.2971 27.1566 22.4471 27.1666 22.5971C27.1766 22.8571 27.2466 23.0871 27.3766 23.2871C27.5666 23.5871 27.8566 23.7871 28.1866 23.9271C28.5266 24.0671 28.9166 24.1471 29.3366 24.1871C30.7466 24.3371 32.5566 24.1071 33.7366 24.0771H33.8666C33.9766 24.0971 34.0766 24.1271 34.1666 24.1771C34.1266 24.2271 34.0866 24.2671 34.0466 24.3071C32.3166 25.8671 30.8466 26.1971 29.6966 26.4871C29.1266 26.6271 28.6266 26.7571 28.2266 27.0471C28.0266 27.1971 27.8566 27.3871 27.7266 27.6371C27.6066 27.8771 27.5266 28.1771 27.4866 28.5271C27.4666 28.7071 27.4566 28.9071 27.4566 29.1271C27.4566 29.6671 27.5466 30.0771 27.7566 30.3771C27.9566 30.6771 28.2766 30.8371 28.6166 30.8671C29.0066 30.9071 29.4266 30.8271 29.8866 30.6971C30.9266 30.4071 32.1966 29.8771 33.4666 29.6971C33.0766 30.0371 32.6766 30.4071 32.2766 30.8171C31.0766 32.0771 29.9966 33.6271 29.8166 35.2171C29.8066 35.3371 29.7966 35.4571 29.7966 35.5771C29.7866 36.1171 29.9566 36.5671 30.2766 36.8671C30.5966 37.1671 31.0266 37.3171 31.5166 37.3671C32.3366 37.4571 33.3466 37.2771 34.3966 36.9771C35.4366 36.6771 36.5266 36.2471 37.4766 35.7971C37.3766 36.0571 37.2666 36.3271 37.1366 36.6071C36.6566 37.6371 35.9666 38.7271 35.0666 39.3271C34.8066 39.4971 34.6666 39.7771 34.6366 40.0471C34.5966 40.4471 34.7566 40.8671 35.0266 41.1971C35.3066 41.5371 35.7066 41.7971 36.2066 41.8471C36.3366 41.8571 36.4766 41.8571 36.6166 41.8471C37.5166 41.7171 38.8666 41.2971 40.1266 40.8371C39.8666 41.5571 39.5766 42.2871 39.2466 42.9071C39.0866 43.2171 38.9866 43.5171 38.9566 43.8071C38.9166 44.1971 39.0066 44.5671 39.2266 44.8471C39.4466 45.1271 39.7866 45.2971 40.1866 45.3371C41.0666 45.4271 42.2466 44.9671 43.5666 43.7671C44.1466 43.2471 44.6566 42.9271 45.1166 42.7271C45.1166 43.0471 45.1166 43.3871 45.0766 43.7171C45.0066 44.3871 44.8166 45.0371 44.4766 45.4471C44.2366 45.7271 44.1066 46.0571 44.0666 46.3871C44.0166 46.8071 44.1366 47.2171 44.3866 47.5471C44.6366 47.8671 45.0166 48.1071 45.4766 48.1571C46.2366 48.2371 47.1666 47.8371 48.1366 46.7471C48.5166 46.3271 48.8766 45.9971 49.2166 45.7371C49.2366 46.0271 49.2666 46.3271 49.2866 46.6171C49.3566 47.5171 49.4066 48.3871 49.4066 48.8271C49.4066 48.9671 49.4466 49.0971 49.5166 49.2171C49.6166 49.4071 49.7666 49.5871 49.9766 49.7371C50.1766 49.8871 50.4266 50.0071 50.7166 50.0371C50.9066 50.0571 51.1166 50.0371 51.3266 49.9671C52.1566 49.6771 53.1166 48.9871 53.9066 48.2371C54.2966 47.8571 54.6466 47.4671 54.9166 47.0871C55.1766 46.7071 55.3666 46.3471 55.4066 46.0071C55.4266 45.8271 55.4066 45.6371 55.2966 45.4771L55.3066 45.4271Z" fill="#FFF5E8"/>
<path d="M29.0167 16.4471C28.9967 16.5471 28.6067 16.8071 28.4067 16.7371C28.2967 16.7071 28.2267 16.6571 28.2267 16.6571C28.2267 16.6571 28.2167 16.6571 28.1867 16.6571C28.1867 16.6571 28.1767 16.6571 28.1567 16.6571C27.8967 16.7071 26.9467 16.8471 26.3567 16.7171C24.6667 16.3571 25.7767 14.8871 26.0267 14.5871C26.0467 14.5671 26.0567 14.5471 26.0667 14.5371C26.2467 14.2871 28.0467 14.7171 28.0467 14.7171C28.0467 14.7171 28.1167 14.6271 28.2067 14.6171C28.3467 14.6071 28.7167 14.6771 28.8967 14.7871C29.0367 14.8671 28.9667 15.1071 28.9767 15.4171C28.9767 15.8871 29.0567 16.2271 29.0167 16.4371V16.4471Z" fill="#ADA79E"/>
<path d="M28.1467 14.647C28.1467 14.647 27.5167 15.037 27.5167 15.707C27.5167 16.377 28.0967 16.657 28.3567 16.717C28.3567 16.717 27.5967 16.277 27.7267 15.547C27.8467 14.897 28.1567 14.647 28.1567 14.647H28.1467Z" fill="#948978"/>
<path d="M28.0067 14.8169C28.0067 14.8169 27.6767 15.1869 27.6467 15.6569C27.6267 15.9369 27.6867 16.3069 28.0667 16.4969C28.0667 16.4969 27.7467 16.2369 27.7467 15.6569C27.7467 15.4169 27.8367 15.1469 28.0067 14.8169Z" fill="#CCC5BB"/>
<path d="M28.7467 14.7971C28.7967 14.7671 28.8367 14.7971 28.8767 14.9971C28.9167 15.2071 28.8767 16.0871 28.9167 16.3171C28.9567 16.5671 28.7467 16.5971 28.6967 16.5071C28.6467 16.4171 28.7567 15.9171 28.7567 15.6971C28.7567 15.2871 28.4967 14.9371 28.7567 14.7971H28.7467Z" fill="#FFF6E9"/>
<path d="M28.1567 16.6672C27.8967 16.7172 26.9467 16.8572 26.3567 16.7272C24.6667 16.3672 25.7767 14.8972 26.0267 14.5972C25.8567 14.8272 25.2667 15.7372 25.7267 16.2472C26.2367 16.7972 27.9067 16.6872 28.1467 16.6672H28.1567Z" fill="#948978"/>
<path d="M28.0566 22.9969C28.0366 23.0969 27.6266 23.3269 27.4366 23.2469C27.3266 23.2069 27.2566 23.1569 27.2566 23.1569C27.2566 23.1569 27.2466 23.1569 27.2166 23.1569C27.2166 23.1569 27.2066 23.1569 27.1866 23.1569C26.9266 23.1869 25.9766 23.2769 25.3866 23.1169C23.7166 22.6569 24.9166 21.2569 25.1866 20.9669C25.2066 20.9469 25.2166 20.9269 25.2266 20.9169C25.4266 20.6769 27.1966 21.2069 27.1966 21.2069C27.1966 21.2069 27.2666 21.1269 27.3566 21.1169C27.4966 21.1169 27.8566 21.2069 28.0366 21.3269C28.1766 21.4169 28.0866 21.6569 28.0766 21.9669C28.0566 22.4369 28.1066 22.7769 28.0566 22.9869V22.9969Z" fill="#ADA79E"/>
<path d="M27.2866 21.1567C27.2866 21.1567 26.6366 21.5167 26.5966 22.1867C26.5566 22.8567 27.1266 23.1667 27.3766 23.2467C27.3766 23.2467 26.6366 22.7567 26.8066 22.0467C26.9566 21.4067 27.2866 21.1667 27.2866 21.1667V21.1567Z" fill="#948978"/>
<path d="M27.1366 21.3066C27.1366 21.3066 26.7866 21.6566 26.7266 22.1266C26.6966 22.4066 26.7266 22.7766 27.0966 22.9866C27.0966 22.9866 26.7966 22.7066 26.8266 22.1266C26.8366 21.8966 26.9466 21.6266 27.1366 21.3066Z" fill="#CCC5BB"/>
<path d="M27.8767 21.3268C27.9267 21.2968 27.9667 21.3268 27.9967 21.5268C28.0267 21.7468 27.9367 22.6168 27.9667 22.8468C27.9967 23.0968 27.7767 23.1168 27.7267 23.0268C27.6767 22.9368 27.8167 22.4468 27.8367 22.2168C27.8567 21.8068 27.6167 21.4468 27.8767 21.3268Z" fill="#FFF6E9"/>
<path d="M27.1866 23.1671C26.9266 23.1971 25.9766 23.2871 25.3866 23.1271C23.7166 22.6671 24.9166 21.2671 25.1866 20.9771C25.0066 21.1971 24.3566 22.0671 24.7966 22.6071C25.2766 23.1771 26.9466 23.1671 27.1866 23.1671Z" fill="#948978"/>
<path d="M28.5367 30.1572C28.5367 30.2672 28.1467 30.6172 27.9167 30.5772C27.7967 30.5572 27.7067 30.5272 27.7067 30.5272C27.7067 30.5272 27.6967 30.5272 27.6667 30.5372C27.6667 30.5372 27.6567 30.5372 27.6367 30.5372C27.3667 30.6372 26.3467 30.9472 25.6767 30.9072C23.7667 30.7972 24.7367 28.9972 24.9567 28.6272C24.9767 28.5972 24.9867 28.5772 24.9867 28.5672C25.1467 28.2572 27.1867 28.4272 27.1867 28.4272C27.1867 28.4272 27.2467 28.3172 27.3367 28.2872C27.4867 28.2472 27.8967 28.2672 28.1167 28.3572C28.2867 28.4272 28.2467 28.6972 28.3067 29.0372C28.3967 29.5472 28.5267 29.9072 28.5267 30.1572H28.5367Z" fill="#ADA79E"/>
<path d="M27.2766 28.3374C27.2766 28.3374 26.6566 28.8774 26.7666 29.6074C26.8766 30.3374 27.5666 30.5474 27.8566 30.5674C27.8566 30.5674 26.9466 30.2074 26.9666 29.3974C26.9866 28.6674 27.2866 28.3374 27.2866 28.3374H27.2766Z" fill="#948978"/>
<path d="M27.1467 28.5371C27.1467 28.5371 26.8467 28.9971 26.8967 29.5171C26.9267 29.8271 27.0567 30.2271 27.4967 30.3671C27.4967 30.3671 27.1067 30.1371 26.9967 29.4971C26.9567 29.2371 27.0067 28.9271 27.1467 28.5371Z" fill="#CCC5BB"/>
<path d="M27.9567 28.3874C28.0067 28.3474 28.0567 28.3674 28.1367 28.5774C28.2167 28.8074 28.3267 29.7774 28.4067 30.0174C28.4967 30.2874 28.2667 30.3574 28.1967 30.2674C28.1267 30.1774 28.1667 29.6174 28.1267 29.3674C28.0567 28.9174 27.7167 28.5774 27.9667 28.3874H27.9567Z" fill="#FFF6E9"/>
<path d="M27.6367 30.5472C27.3667 30.6472 26.3467 30.9572 25.6767 30.9172C23.7667 30.8072 24.7367 29.0072 24.9567 28.6372C24.8067 28.9172 24.3167 30.0072 24.9167 30.4972C25.5667 31.0072 27.3767 30.6072 27.6467 30.5472H27.6367Z" fill="#948978"/>
<path d="M31.4966 36.7069C31.5466 36.8069 31.3466 37.2969 31.1266 37.3569C31.0066 37.3969 30.9066 37.3969 30.9066 37.3969C30.9066 37.3969 30.9066 37.4069 30.8766 37.4269C30.8766 37.4269 30.8666 37.4269 30.8566 37.4469C30.6566 37.6569 29.8766 38.3869 29.2566 38.6469C27.4866 39.3869 27.5666 37.3369 27.6066 36.9069C27.6066 36.8769 27.6066 36.8469 27.6066 36.8369C27.6066 36.4869 29.5266 35.7369 29.5266 35.7369C29.5266 35.7369 29.5266 35.6169 29.6066 35.5469C29.7266 35.4469 30.1066 35.2769 30.3366 35.2669C30.5166 35.2569 30.6066 35.5169 30.8066 35.7969C31.1166 36.2169 31.3866 36.4869 31.4866 36.7069H31.4966Z" fill="#ADA79E"/>
<path d="M29.5766 35.6167C29.5766 35.6167 29.2566 36.3767 29.6766 36.9867C30.0966 37.5967 30.8066 37.4767 31.0766 37.3767C31.0766 37.3767 30.0966 37.4567 29.7566 36.7167C29.4466 36.0467 29.5766 35.6167 29.5766 35.6167Z" fill="#948978"/>
<path d="M29.5466 35.8569C29.5466 35.8569 29.4766 36.3969 29.7466 36.8469C29.9066 37.1069 30.1966 37.4169 30.6566 37.3469C30.6566 37.3469 30.2066 37.3069 29.8266 36.7869C29.6766 36.5769 29.5866 36.2669 29.5366 35.8569H29.5466Z" fill="#CCC5BB"/>
<path d="M30.2066 35.367C30.2366 35.307 30.2866 35.307 30.4566 35.467C30.6366 35.637 31.1566 36.457 31.3266 36.647C31.5166 36.847 31.3466 37.007 31.2366 36.957C31.1266 36.907 30.9166 36.387 30.7766 36.177C30.5166 35.807 30.0566 35.647 30.1966 35.367H30.2066Z" fill="#FFF6E9"/>
<path d="M30.8566 37.4467C30.6566 37.6567 29.8766 38.3867 29.2566 38.6467C27.4866 39.3867 27.5666 37.3367 27.6066 36.9067C27.6066 37.2267 27.6266 38.4267 28.3866 38.5967C29.1966 38.7767 30.6466 37.6167 30.8566 37.4467Z" fill="#948978"/>
<path d="M36.4867 41.0573C36.5467 41.1373 36.4267 41.5873 36.2367 41.6773C36.1367 41.7273 36.0467 41.7473 36.0467 41.7473C36.0467 41.7473 36.0467 41.7573 36.0267 41.7773C36.0267 41.7773 36.0267 41.7773 36.0067 41.7973C35.8567 42.0073 35.2667 42.7473 34.7467 43.0473C33.2767 43.9173 33.0967 42.1073 33.0767 41.7273C33.0767 41.6973 33.0767 41.6773 33.0767 41.6673C33.0467 41.3573 34.6367 40.4573 34.6367 40.4573C34.6367 40.4573 34.6267 40.3473 34.6767 40.2773C34.7667 40.1773 35.0867 39.9773 35.2867 39.9373C35.4467 39.9073 35.5567 40.1273 35.7667 40.3473C36.0867 40.6873 36.3667 40.8773 36.4867 41.0573Z" fill="#ADA79E"/>
<path d="M34.6468 40.3374C34.6468 40.3374 34.4568 41.0474 34.9068 41.5274C35.3568 42.0074 35.9668 41.8174 36.1868 41.6974C36.1868 41.6974 35.3368 41.8874 34.9468 41.2774C34.5968 40.7274 34.6468 40.3374 34.6468 40.3374Z" fill="#948978"/>
<path d="M34.6567 40.5571C34.6567 40.5571 34.6567 41.0471 34.9567 41.4071C35.1267 41.6171 35.4267 41.8471 35.8267 41.7371C35.8267 41.7371 35.4167 41.7571 35.0267 41.3471C34.8667 41.1771 34.7467 40.9171 34.6567 40.5671V40.5571Z" fill="#CCC5BB"/>
<path d="M35.1767 40.0375C35.1967 39.9775 35.2367 39.9675 35.4067 40.0875C35.5867 40.2175 36.1467 40.8775 36.3267 41.0175C36.5267 41.1675 36.3867 41.3375 36.2867 41.3075C36.1867 41.2775 35.9367 40.8375 35.7867 40.6775C35.5167 40.3775 35.0867 40.2975 35.1767 40.0375Z" fill="#FFF6E9"/>
<path d="M36.0067 41.7873C35.8567 41.9973 35.2667 42.7373 34.7467 43.0373C33.2767 43.9073 33.0967 42.0973 33.0767 41.7173C33.1067 41.9973 33.2867 43.0473 33.9667 43.1073C34.6967 43.1573 35.8367 41.9573 35.9967 41.7873H36.0067Z" fill="#948978"/>
<path d="M40.8267 44.687C40.8867 44.767 40.8267 45.227 40.6567 45.327C40.5667 45.387 40.4767 45.417 40.4767 45.417C40.4767 45.417 40.4767 45.427 40.4567 45.447C40.4567 45.447 40.4567 45.447 40.4367 45.467C40.3067 45.687 39.8067 46.497 39.3267 46.857C37.9667 47.897 37.5767 46.117 37.5167 45.737C37.5167 45.707 37.5167 45.687 37.5067 45.677C37.4367 45.377 38.9167 44.297 38.9167 44.297C38.9167 44.297 38.8967 44.187 38.9367 44.117C39.0167 44.007 39.3067 43.777 39.5067 43.707C39.6567 43.657 39.7967 43.857 40.0267 44.057C40.3867 44.357 40.6867 44.517 40.8167 44.687H40.8267Z" fill="#ADA79E"/>
<path d="M38.9166 44.187C38.9166 44.187 38.8066 44.907 39.3066 45.347C39.8066 45.787 40.3966 45.517 40.5966 45.367C40.5966 45.367 39.7766 45.657 39.3166 45.097C38.9066 44.597 38.9166 44.197 38.9166 44.197V44.187Z" fill="#948978"/>
<path d="M38.9567 44.397C38.9567 44.397 39.0167 44.877 39.3567 45.207C39.5567 45.397 39.8767 45.597 40.2567 45.437C40.2567 45.437 39.8567 45.507 39.4167 45.137C39.2367 44.987 39.0967 44.747 38.9567 44.407V44.397Z" fill="#CCC5BB"/>
<path d="M39.4167 43.827C39.4267 43.767 39.4667 43.757 39.6467 43.857C39.8367 43.957 40.4667 44.557 40.6667 44.677C40.8767 44.807 40.7667 44.987 40.6667 44.967C40.5667 44.947 40.2667 44.547 40.0967 44.397C39.7867 44.137 39.3567 44.107 39.4167 43.827Z" fill="#FFF6E9"/>
<path d="M40.4367 45.4668C40.3067 45.6868 39.8067 46.4968 39.3267 46.8568C37.9667 47.8968 37.5767 46.1168 37.5167 45.7368C37.5867 46.0168 37.8767 47.0368 38.5667 47.0168C39.2967 46.9868 40.2967 45.6668 40.4367 45.4668Z" fill="#948978"/>
<path d="M45.8067 47.2773C45.8767 47.3373 45.8767 47.7373 45.7367 47.8473C45.6667 47.9073 45.5967 47.9473 45.5967 47.9473C45.5967 47.9473 45.5967 47.9473 45.5867 47.9773C45.5867 47.9773 45.5867 47.9773 45.5767 47.9973C45.4967 48.2073 45.1667 48.9673 44.8067 49.3373C43.7767 50.4073 43.2067 48.9273 43.1067 48.6073C43.1067 48.5873 43.0967 48.5673 43.0867 48.5573C42.9867 48.3073 44.1167 47.1873 44.1167 47.1873C44.1167 47.1873 44.0867 47.0973 44.1167 47.0273C44.1767 46.9173 44.3867 46.6873 44.5567 46.6073C44.6867 46.5473 44.8267 46.6973 45.0567 46.8373C45.4067 47.0473 45.6867 47.1473 45.8167 47.2773H45.8067Z" fill="#ADA79E"/>
<path d="M44.0967 47.0874C44.0967 47.0874 44.0967 47.7274 44.5867 48.0274C45.0767 48.3274 45.5467 48.0274 45.7067 47.8774C45.7067 47.8774 45.0367 48.2374 44.5667 47.8074C44.1467 47.4274 44.0967 47.0874 44.0967 47.0874Z" fill="#948978"/>
<path d="M44.1567 47.2676C44.1567 47.2676 44.2767 47.6776 44.6067 47.9076C44.7967 48.0476 45.0967 48.1776 45.4067 47.9876C45.4067 47.9876 45.0667 48.0976 44.6467 47.8376C44.4767 47.7276 44.3167 47.5376 44.1567 47.2676Z" fill="#CCC5BB"/>
<path d="M44.4768 46.7172C44.4768 46.6672 44.5168 46.6472 44.6768 46.7172C44.8568 46.7872 45.4768 47.2072 45.6568 47.2872C45.8568 47.3672 45.7868 47.5372 45.6968 47.5372C45.6068 47.5372 45.2968 47.2272 45.1368 47.1272C44.8368 46.9372 44.4668 46.9672 44.4768 46.7272V46.7172Z" fill="#FFF6E9"/>
<path d="M45.5767 47.9976C45.4967 48.2076 45.1667 48.9676 44.8067 49.3376C43.7767 50.4076 43.2067 48.9276 43.1067 48.6076C43.1967 48.8376 43.5867 49.6776 44.1767 49.5676C44.8067 49.4476 45.4867 48.1776 45.5867 47.9976H45.5767Z" fill="#948978"/>
<path d="M51.3666 49.2072C51.4466 49.2472 51.5466 49.6372 51.4466 49.7772C51.3866 49.8572 51.3366 49.9072 51.3366 49.9072C51.3366 49.9072 51.3366 49.9172 51.3366 49.9372C51.3366 49.9372 51.3366 49.9372 51.3366 49.9572C51.3066 50.1772 51.1766 50.9972 50.9166 51.4472C50.1766 52.7372 49.2666 51.4472 49.0866 51.1572C49.0666 51.1372 49.0666 51.1172 49.0566 51.1172C48.8966 50.8972 49.7266 49.5372 49.7266 49.5372C49.7266 49.5372 49.6766 49.4572 49.6866 49.3872C49.7166 49.2672 49.8666 48.9872 50.0066 48.8672C50.1166 48.7772 50.2866 48.8972 50.5466 48.9672C50.9366 49.0872 51.2266 49.1172 51.3966 49.2072H51.3666Z" fill="#ADA79E"/>
<path d="M49.6666 49.447C49.6666 49.447 49.8266 50.067 50.3766 50.237C50.9266 50.407 51.3066 50.007 51.4166 49.817C51.4166 49.817 50.8566 50.327 50.2966 50.027C49.7966 49.767 49.6666 49.437 49.6666 49.437V49.447Z" fill="#948978"/>
<path d="M49.7666 49.6069C49.7666 49.6069 49.9766 49.9769 50.3566 50.1169C50.5766 50.2069 50.8966 50.2569 51.1566 49.9969C51.1566 49.9969 50.8566 50.1869 50.3866 50.0369C50.1966 49.9769 49.9966 49.8269 49.7666 49.6069Z" fill="#CCC5BB"/>
<path d="M49.9366 48.9973C49.9366 48.9973 49.9566 48.9173 50.1366 48.9373C50.3266 48.9573 51.0266 49.2173 51.2266 49.2473C51.4366 49.2773 51.4066 49.4573 51.3266 49.4773C51.2466 49.4973 50.8566 49.2773 50.6766 49.2173C50.3466 49.1073 49.9866 49.2273 49.9366 48.9873V48.9973Z" fill="#FFF6E9"/>
<path d="M51.3167 49.9673C51.2867 50.1873 51.1566 51.0073 50.8966 51.4573C50.1566 52.7473 49.2467 51.4573 49.0667 51.1673C49.2167 51.3673 49.7967 52.0873 50.3367 51.8373C50.9167 51.5673 51.2667 50.1673 51.3167 49.9673Z" fill="#948978"/>
<g style="mix-blend-mode:multiply" opacity="0.1">
<path d="M11.6667 59.1469C10.9067 59.0969 10.1067 59.0169 9.29666 58.8969C4.92666 58.2269 0.906664 56.7769 0.236664 55.3869C-0.383336 54.1069 0.406664 49.2069 0.956664 48.8269C1.50666 48.4469 1.84666 48.3069 1.84666 48.3069C2.06666 45.1969 3.01666 36.5069 6.93666 32.0069C6.93666 32.0069 6.95666 26.1469 8.13666 24.0169C8.35666 23.6269 8.45666 23.2369 8.49666 22.8269C7.17666 22.3569 6.67666 21.6169 6.98666 18.7969C7.10666 17.6769 7.26666 17.0869 7.39666 16.7869C7.53666 16.4569 7.65666 16.4669 7.67666 16.4669C7.60666 16.3969 7.03666 15.7369 7.44666 13.1669C7.54666 12.4969 7.75666 10.9769 8.47666 10.3469C8.87666 9.9969 12.6367 8.65689 16.2767 8.56689C16.2767 8.56689 12.7267 9.98689 11.6567 13.2069C11.2067 14.5369 11.1867 16.1869 12.0267 18.1669C12.0267 18.1669 11.9267 18.4169 11.8067 18.7969C11.4067 20.0069 10.7067 22.6269 11.7067 23.6869C11.7067 23.6869 9.90666 31.1369 11.0467 33.1969C11.0467 33.1969 10.3367 43.8869 11.8367 53.2269C11.8367 53.2269 11.6467 53.7069 11.5067 54.5769C11.3467 55.5969 11.2667 57.1669 11.6667 59.1569V59.1469Z" fill="#352C73"/>
</g>
<g style="mix-blend-mode:overlay" opacity="0.29">
<path d="M35.8266 10.9368C35.8266 10.9368 35.7266 8.8968 35.5066 8.3968C35.2866 7.8968 33.7566 9.8968 30.4066 8.9868C27.3266 8.1568 26.1866 10.2968 26.0166 10.6668C26.4866 9.3768 27.4866 8.1068 29.6166 8.2068C32.1466 8.3268 33.3066 8.9768 34.9266 7.8468C35.8766 7.1868 35.9866 9.0468 35.8366 10.9368H35.8266Z" fill="#DDE39F"/>
</g>
<g style="mix-blend-mode:multiply" opacity="0.38">
<path d="M20.6366 58.1668C20.6366 58.1668 19.6266 58.5068 17.9366 58.7968L20.7266 56.2368L20.6366 58.1668Z" fill="#352C73"/>
</g>
<g style="mix-blend-mode:overlay" opacity="0.94">
<path d="M66.0166 56.7568C64.5366 57.0368 61.5166 56.9868 58.2366 56.1268C54.1266 55.0468 51.4766 52.5368 54.7566 50.7968C58.0366 49.0568 56.5766 45.7568 56.5766 45.7568C59.8466 46.2468 66.2566 48.2768 66.0266 56.7568H66.0166Z" fill="#CACF92" fill-opacity="0.51"/>
</g>
</svg>
