<svg width="56" height="76" viewBox="0 0 56 76" fill="none" xmlns="http://www.w3.org/2000/svg">
<path d="M19.3435 64.6589L14.9655 66.0882L14.4058 64.1391L14.8156 62.7598L18.6238 63.7093L19.3435 64.6589Z" fill="#10041C"/>
<path d="M6.6893 61.7804C7.88875 63.5996 14.9655 66.0985 14.9655 66.0985C14.9655 66.0985 14.9255 63.9994 15.4953 63.9994C20.6629 63.9395 24.0013 67.7077 24.0013 67.7077V69.5169C27.4398 71.466 30.5983 72.9253 33.487 73.9548C38.9944 75.9239 43.5723 76.3537 47.4306 75.744C51.3688 75.1243 54.3574 72.4555 54.8372 71.396C55.3169 70.3365 55.2969 69.8967 55.3669 68.3774C55.4269 66.8781 55.207 66.3583 55.0471 66.1784C54.9671 66.0885 54.9071 66.0785 54.9071 66.0785L13.1663 57.9822L7.93873 56.9727C7.93873 56.9727 7.62887 56.9727 6.71929 57.3625C6.23951 57.5624 6.0396 60.8009 6.6893 61.7804Z" fill="#3B1111"/>
<path d="M9.78789 40.3588C9.84786 40.9985 9.84786 41.6782 9.78789 42.3679C9.74791 42.9776 9.66795 43.5973 9.548 44.197C9.14819 46.336 8.34855 48.4051 7.38899 49.6345C5.92966 51.5337 6.17955 54.8221 6.46942 56.6213C6.5094 56.8812 6.58936 57.1311 6.7093 57.351C6.94919 57.8108 7.34901 58.1906 7.83879 58.4105C9.08821 58.9702 11.3971 59.9698 14.8456 61.2992C15.0555 61.3791 15.2754 61.4591 15.4953 61.549C16.9446 62.0988 19.6933 63.0284 21.5125 63.6781C22.532 64.0379 23.7115 65.3573 27.7796 67.4163C29.3089 68.196 31.258 69.0756 33.7669 70.0551C39.0344 72.1042 45.5714 74.603 53.3179 69.2755C54.4374 68.5058 55.0071 67.3764 55.0471 66.1569C55.0871 64.9575 54.6273 63.6781 53.6877 62.5686C53.4878 62.3387 53.2679 62.1088 53.028 61.8989C52.5282 61.4491 51.9285 61.0393 51.2488 60.7094C44.8717 57.5509 42.7727 57.4609 40.4338 56.0716C39.6242 55.5918 38.7845 54.9521 37.725 53.9725C33.9268 50.4641 30.8482 47.1557 29.7087 40.3688C29.6687 40.1489 29.6388 39.929 29.6088 39.6991C29.5588 39.3593 29.5188 39.0094 29.4788 38.6496C28.7592 32.0726 28.3693 17.4493 28.6892 8.44347C28.7592 6.52436 28.8591 4.86512 28.9891 3.5957C28.9891 3.5957 27.8996 3.70565 26.1504 3.85558C20.9727 4.28539 9.9878 4.98506 3.79065 3.93555C3.79065 3.93555 4.02054 5.95462 4.41036 9.05319C5.43989 17.2594 7.5889 33.0422 9.45804 38.7096C9.62796 39.2093 9.72792 39.7691 9.78789 40.3688V40.3588Z" fill="#851200"/>
<path d="M2.27137 5.85514C1.96151 5.98508 1.14189 6.47485 1.49173 7.90419C1.63167 8.45394 2.76114 9.71336 3.53079 9.46348C3.89062 9.34353 4.18049 9.21359 4.41039 9.05366C4.67027 8.86375 4.85018 8.61387 4.93015 8.28402C5.09007 7.6643 6.01965 8.31401 6.57939 9.18361C7.13913 10.0532 9.608 10.6429 10.5875 9.24358C11.5671 7.84422 10.7475 9.64339 11.8869 9.58342C13.0264 9.52345 13.2163 8.46394 13.2163 8.46394C13.2163 8.46394 13.4662 9.51345 14.2259 9.61341C15.2054 9.73335 15.5053 8.12409 15.5053 8.12409C15.5053 8.12409 15.3953 9.42349 17.4644 9.14362C19.5334 8.86375 19.4235 7.81424 19.4235 7.81424C19.4235 7.81424 19.7034 9.82331 21.2826 8.87375C22.1022 8.37398 22.1822 7.69429 22.1822 7.69429C22.1822 7.69429 22.3621 8.90373 23.1418 8.47393C23.9114 8.03413 23.9914 7.6643 23.9914 7.6643C23.9914 7.6643 24.4712 9.15362 25.3208 8.31401C25.7006 7.93418 25.9105 7.72428 26.0304 7.61433L26.1704 7.47439C26.1704 7.47439 26.5302 7.07458 26.89 7.47439C27.2299 7.85422 26.5602 8.24404 26.92 8.1041C27.5797 7.84422 27.7097 7.34445 27.7097 7.34445C27.7097 7.34445 28.0195 8.73381 28.6892 8.44395C28.6892 8.44395 28.7092 8.44395 28.7192 8.43395C29.4089 8.09411 29.4389 7.6843 29.4389 7.6843C29.4389 7.6843 30.5284 8.18407 31.0581 7.6843C31.5879 7.18453 33.6969 5.80516 31.418 4.17591C31.268 4.06596 32.3975 2.83653 31.6279 2.18682C30.8582 1.53712 29.6888 2.18682 29.6888 2.18682C29.6888 2.18682 30.6983 0.607551 29.8787 0.287698C29.059 -0.0221596 28.0195 1.49714 28.0195 1.49714C28.0195 1.49714 27.04 -0.701847 26.5102 0.247716C26.0204 1.10732 26.3603 1.77701 26.4203 1.88696C26.3203 1.70704 25.3607 0.0378128 23.9914 0.547578C23.9714 0.547578 23.9514 0.557574 23.9414 0.567569C23.4816 0.757482 23.5316 1.25725 23.6515 1.65707C23.6515 1.65707 22.8819 0.017822 21.5325 0.537583C20.5929 0.897417 20.9228 2.15684 21.0527 2.55665C20.9128 2.20681 20.443 1.21727 19.6334 1.34721C18.6538 1.49714 18.4939 2.21681 18.4939 2.21681C18.4939 2.21681 18.344 0.977381 17.7842 1.22727C17.7842 1.22727 18.204 1.19728 17.8842 1.74703C17.5643 2.30677 17.3344 0.927404 16.6647 0.937399C15.7152 0.95739 16.5548 1.55711 16.165 2.17683C15.7752 2.79654 15.2054 2.14684 15.7252 1.42717C16.175 0.807459 14.7456 0.507597 14.4658 1.16729C14.2159 1.75702 14.2259 2.14684 14.2559 2.30677C14.1759 2.00691 13.886 1.07733 13.4562 1.3672C12.9565 1.70704 13.0364 2.26679 13.0364 2.26679C13.0364 2.26679 12.0269 1.3672 11.2872 2.20682C10.5476 3.04643 11.3372 1.5871 10.5476 1.42717C9.74793 1.27724 9.32813 2.4567 9.32813 2.4567C9.32813 2.4567 8.86833 0.667523 7.52895 1.08733C6.72932 1.33722 6.89924 2.2468 6.9792 2.57664C6.84926 2.18682 6.38948 1.03735 5.60983 1.42717C5.24 1.61709 5.12006 1.83699 5.12006 2.0269C4.85018 1.60709 4.36041 1.1573 3.54079 1.49714C2.27137 2.0169 2.84111 2.78655 2.92107 2.8865C2.81112 2.79654 1.66165 1.83699 1.20186 2.4567C0.722083 3.1064 0.0323989 4.31585 0.961971 5.21543C1.64166 5.87513 2.09145 5.87513 2.28136 5.83515L2.27137 5.85514Z" fill="#EDC485"/>
<path d="M26.7001 4.30598C25.9804 5.04564 26.2603 6.11515 26.2603 6.11515C26.2603 6.11515 26.2703 4.95569 26.99 4.46591C27.9095 3.8462 29.189 4.78576 29.079 5.53542C28.9691 6.28507 27.9195 6.40502 27.5697 5.88526C27.5697 5.88526 27.7096 7.43454 28.8491 6.56494C30.8182 5.05564 27.9195 3.05656 26.7001 4.31598V4.30598Z" fill="#FFD38F"/>
<path d="M2.7618 4.7756C3.1918 4.3856 3.0718 3.7756 3.0718 3.7756C3.0718 3.7756 3.0218 4.42561 2.6018 4.67561C2.0718 4.99561 1.3818 4.4256 1.4718 4.0056C1.5618 3.5856 2.1518 3.5556 2.3318 3.8656C2.3318 3.8656 2.3118 2.9956 1.6418 3.4456C0.4818 4.2256 2.0418 5.4456 2.7718 4.7756H2.7618Z" fill="#FFD38F"/>
<path d="M18.254 6.67587C17.6243 7.24561 16.165 7.72539 15.6652 5.90623C15.1654 4.08706 14.2559 4.62681 14.2559 4.62681C14.2559 4.62681 15.3054 3.85717 15.6452 4.54685C15.9851 5.23653 15.5553 6.69586 16.8447 6.75583C17.8742 6.80581 18.5239 5.80627 18.5239 5.41645C18.5239 5.41645 18.8737 6.09614 18.254 6.67587Z" fill="#FFD38F"/>
<path d="M4.38125 6.64566C4.58125 7.09566 4.56124 7.97566 3.48124 7.90566C2.40124 7.83566 2.53124 8.43566 2.53124 8.43566C2.53124 8.43566 2.30124 7.72566 2.75124 7.66566C3.20124 7.60566 3.90125 8.11566 4.17125 7.42566C4.39125 6.87566 3.96124 6.33566 3.75124 6.26566C3.75124 6.26566 4.19125 6.19566 4.38125 6.64566Z" fill="#FFD38F"/>
<path d="M24.522 4.77652C24.722 5.22652 24.702 6.10652 23.622 6.03652C22.542 5.96652 22.672 6.56652 22.672 6.56652C22.672 6.56652 22.442 5.85652 22.892 5.79652C23.342 5.73652 24.042 6.24652 24.312 5.55652C24.532 5.00652 24.102 4.46652 23.892 4.39652C23.892 4.39652 24.332 4.32652 24.522 4.77652Z" fill="#FFD38F"/>
<path d="M8.94826 7.92365C8.94826 7.92365 6.19953 8.82324 6.44941 6.55428C6.6993 4.28532 8.71837 5.07496 8.97825 5.72466C9.23813 6.37436 9.19815 7.45387 8.16862 7.30393C7.36899 7.18399 7.46894 6.46432 7.46894 6.46432C7.46894 6.46432 7.53891 7.08404 8.23859 7.02406C8.68838 6.98408 9.03822 6.76418 8.8483 6.13447C8.65839 5.50476 8.2186 5.37482 7.81878 5.38482C7.35899 5.38482 6.87921 5.73466 6.75927 6.15446C6.58935 6.74419 6.55936 7.48385 7.38898 7.79371C8.12864 8.06358 8.93827 7.93364 8.93827 7.93364L8.94826 7.92365Z" fill="#FFD38F"/>
<path d="M23.3125 2.3981C23.3125 2.3981 23.0425 3.9981 21.9825 3.2781C20.9225 2.5581 21.8425 1.7681 22.2325 1.8081C22.6225 1.8481 23.1525 2.1481 22.8025 2.6181C22.5325 2.9881 22.2025 2.7481 22.2025 2.7481C22.2025 2.7481 22.5325 2.8781 22.6825 2.5181C22.7825 2.2881 22.7625 2.0581 22.4025 1.9781C22.0425 1.8981 21.8625 2.0881 21.7625 2.2881C21.6425 2.5181 21.6925 2.8481 21.8725 3.0181C22.1225 3.2581 22.4825 3.4681 22.8525 3.1381C23.1825 2.8381 23.3325 2.4081 23.3325 2.4081L23.3125 2.3981Z" fill="#FFD38F"/>
<path d="M9.54796 44.1978C9.79785 45.1574 10.1977 46.2569 10.8174 47.3464C11.0972 47.8362 11.527 48.3559 12.0668 48.9057C12.6066 49.4554 13.2662 50.0252 13.9859 50.5749C14.6556 51.0847 15.3853 51.5844 16.1249 52.0342C16.1049 52.0942 16.075 52.1742 16.045 52.2741C15.895 52.6939 15.6252 53.4736 15.1554 54.9329C14.7756 56.0924 14.6656 57.3818 14.6656 58.5412C14.6656 59.4808 14.7456 60.3404 14.8155 60.9601C14.8355 61.0801 14.8455 61.19 14.8555 61.29C15.0654 61.3699 15.2853 61.4499 15.5052 61.5399C15.4852 61.3799 15.4552 61.15 15.4153 60.8902C15.3453 60.2904 15.2653 59.4608 15.2653 58.5512C15.2653 57.4318 15.3753 56.1923 15.7251 55.1228C16.1549 53.8034 16.4148 53.0338 16.5747 52.594C16.6147 52.494 16.6347 52.4141 16.6647 52.3441C17.3544 52.7339 18.054 53.0937 18.7237 53.3636C19.7833 53.8034 20.8028 54.0833 21.6824 54.0833C22.2521 54.0833 22.7719 53.9633 23.1917 53.6735C23.9413 53.1637 24.4211 52.454 24.711 51.6744C25.0009 50.8848 25.1108 50.0152 25.1108 49.1256C25.1108 47.1365 24.581 45.0474 24.3212 43.7081C24.2312 43.2583 24.1812 42.8984 24.1812 42.6685C24.1812 42.5886 24.1812 42.5486 24.1912 42.5086C26.93 42.0388 28.8491 40.9293 29.6987 40.3396C29.6587 40.1197 29.6287 39.8998 29.5987 39.6699C29.5488 39.7099 29.4988 39.7499 29.4288 39.7899C29.1789 39.9698 28.7891 40.2097 28.2993 40.4796C27.3098 41.0093 25.8505 41.619 24.0213 41.9189C23.9313 41.9389 23.8414 41.9689 23.7814 42.0388C23.7114 42.0988 23.6715 42.1688 23.6415 42.2387C23.5915 42.3787 23.5715 42.5086 23.5715 42.6685C23.5715 42.9784 23.6315 43.3582 23.7214 43.818C23.8114 44.2778 23.9313 44.8076 24.0413 45.3773C24.2712 46.5268 24.5011 47.8562 24.5011 49.1156C24.5011 49.9552 24.4011 50.7548 24.1412 51.4445C23.8814 52.1342 23.4716 52.7239 22.8418 53.1537C22.552 53.3536 22.1622 53.4536 21.6824 53.4536C21.1226 53.4536 20.433 53.3136 19.7033 53.0638C18.9736 52.8139 18.184 52.454 17.3944 52.0342C15.8151 51.1846 14.2358 50.0551 13.0464 48.9756C12.2567 48.256 11.647 47.5563 11.3371 47.0165C10.3276 45.2474 9.92778 43.3882 9.77785 42.3287C9.73787 42.9384 9.65791 43.5581 9.53796 44.1579L9.54796 44.1978Z" fill="#4A0000"/>
<g style="mix-blend-mode:screen" opacity="0.59">
<path d="M45.1916 68.2372C47.4505 67.7775 52.3483 66.0982 53.6977 62.5799C53.4978 62.35 53.2779 62.1201 53.038 61.9102C52.2483 63.2395 50.759 64.7888 48.0103 65.5485C43.0826 66.9179 40.9335 64.9887 39.7341 65.8084C37.3252 67.4776 41.9031 68.9069 45.1916 68.2372Z" fill="#383126"/>
</g>
<g style="mix-blend-mode:screen" opacity="0.59">
<path d="M23.9814 0.567799C24.2812 0.967615 24.5411 1.39742 24.6211 1.80723C24.841 2.91672 25.8405 2.91672 26.1504 3.85629C26.1804 3.93625 26.2004 4.0362 26.2204 4.13616C26.4003 5.36559 26.7801 5.66545 26.2204 6.82492C26.0904 7.0948 26.0304 7.35468 26.0304 7.61456C26.0105 8.48416 26.5302 9.37375 26.6502 10.6831C26.8001 12.3824 25.7406 40.8693 27.01 43.3381C28.2694 45.817 32.9972 57.1918 36.8655 56.9519C38.1449 56.8719 39.3643 56.5221 40.4538 56.0623C39.6442 55.5825 38.8046 54.9428 37.7451 53.9632C33.9468 50.4549 30.8682 47.1464 29.7287 40.3595C29.6888 40.1396 29.6588 39.9197 29.6288 39.6898C29.5788 39.35 29.5388 39.0001 29.4989 38.6403C28.7792 32.0633 28.3894 17.44 28.7092 8.43418C28.7092 8.43418 28.7292 8.43418 28.7392 8.42418C29.4289 8.08434 29.4589 7.67453 29.4589 7.67453C29.4589 7.67453 30.5484 8.1743 31.0781 7.67453C31.6079 7.17476 33.7169 5.79539 31.438 4.16614C31.288 4.05619 32.4175 2.82676 31.6479 2.17706C30.8782 1.52736 29.7088 2.17706 29.7088 2.17706C29.7088 2.17706 30.7183 0.597785 29.8987 0.277932C29.079 -0.0319252 28.0395 1.48738 28.0395 1.48738C28.0395 1.48738 27.06 -0.711613 26.5302 0.237951C26.0404 1.09756 26.3803 1.76725 26.4403 1.8772C26.3403 1.69728 25.3807 0.0280472 24.0114 0.537813L23.9814 0.567799Z" fill="#383126"/>
</g>
<g style="mix-blend-mode:multiply" opacity="0.47">
<path d="M6.68929 61.7793C7.88874 63.5985 14.9655 66.0973 14.9655 66.0973C14.9655 66.0973 14.9255 63.9983 15.4952 63.9983C20.6629 63.9383 24.0013 67.7066 24.0013 67.7066V69.5157C27.4397 71.4648 30.5983 72.9242 33.487 73.9537C32.0476 73.344 29.8786 70.8751 27.7796 67.4367C27.3398 66.717 26.9 65.9574 26.4802 65.1677C23.9314 60.4199 20.293 63.2686 15.955 60.8597C14.8056 60.22 13.886 59.2005 13.1563 57.991C11.1372 54.6526 10.6175 49.9347 10.8474 48.4054C11.1572 46.3164 9.77787 40.3691 9.77787 40.3691C9.83784 41.0088 9.83784 41.6885 9.77787 42.3782C9.73789 42.9879 9.65793 43.6077 9.53798 44.2074C9.13816 46.3464 8.33853 48.4154 7.37897 49.6449C5.91965 51.544 6.16953 54.8325 6.4594 56.6317C6.49938 56.8915 6.57934 57.1414 6.69929 57.3613C6.21951 57.5612 6.0196 60.7997 6.6693 61.7793H6.68929Z" fill="#BAB1A2"/>
</g>
</svg>
