<svg width="78" height="118" viewBox="0 0 78 118" fill="none" xmlns="http://www.w3.org/2000/svg">
<path d="M70.6387 2.97359C68.7322 4.06629 67.5 6.45512 67.378 8.68121C67.3315 9.05319 67.314 9.41936 67.3315 9.76809C67.4419 12 69.1507 13.7727 71.2896 12.2848C73.196 10.9538 75.0443 8.22204 74.992 5.82158C74.9397 3.47925 72.8415 1.71815 70.6445 2.9794L70.6387 2.97359Z" fill="#F0DFD1"/>
<path d="M68.7554 6.60643L67.9649 5.165C67.8661 4.98482 67.5929 5.14756 67.6917 5.32193C67.9533 5.80435 68.2207 6.28095 68.4822 6.76336C68.581 6.94354 68.8542 6.7808 68.7554 6.60643Z" fill="#BDAFA4"/>
<path d="M69.6969 4.99635C69.5284 4.46162 69.354 3.9269 69.1854 3.39217C69.1215 3.20037 68.8193 3.28174 68.8832 3.47354C69.0518 4.00827 69.2261 4.543 69.3947 5.07772C69.4586 5.26953 69.7609 5.18815 69.6969 4.99635Z" fill="#BDAFA4"/>
<path d="M70.9004 4.2004C70.8074 4.10159 70.7783 3.9621 70.7609 3.82842C70.7376 3.63661 70.726 3.44481 70.7144 3.25882C70.6912 2.8694 70.6853 2.47998 70.6911 2.09056C70.6911 1.88713 70.3773 1.88713 70.3773 2.09056C70.3715 2.52648 70.3773 2.95658 70.4064 3.3925C70.4296 3.73542 70.4121 4.15972 70.6737 4.42708C70.8132 4.57238 71.0399 4.35152 70.8946 4.20621L70.9004 4.2004Z" fill="#BDAFA4"/>
<path d="M72.3184 1.33457C72.2428 1.31132 72.1382 1.35782 72.1265 1.445C72.0161 2.0611 71.9115 2.68301 71.8011 3.2991C71.7836 3.38048 71.8243 3.46766 71.9115 3.49091C71.987 3.51416 72.0917 3.46766 72.1033 3.38047C72.2138 2.76438 72.3183 2.14247 72.4288 1.52637C72.4462 1.445 72.4056 1.35782 72.3184 1.33457Z" fill="#BDAFA4"/>
<path d="M74.6142 2.3339C74.5909 2.25834 74.4979 2.19441 74.4224 2.22347C73.7365 2.46758 73.1495 2.92675 72.7484 3.53703C72.638 3.70559 72.9112 3.86833 73.0216 3.69396C73.3762 3.15924 73.905 2.74076 74.5095 2.5257C74.5909 2.49664 74.6432 2.41527 74.62 2.3339H74.6142Z" fill="#BDAFA4"/>
<path d="M75.0559 3.72914C75.0327 3.64196 74.9455 3.60127 74.8641 3.61871C74.3352 3.72914 73.8469 3.97907 73.4401 4.33361C73.3761 4.39174 73.382 4.50217 73.4401 4.55448C73.504 4.61841 73.597 4.6126 73.661 4.55448C74.0271 4.23481 74.4746 4.01975 74.9454 3.92095C75.0268 3.90351 75.0792 3.8047 75.0559 3.72914Z" fill="#BDAFA4"/>
<path d="M75.5152 4.69428C75.0735 4.81634 74.6492 5.00814 74.2656 5.25807C74.1958 5.30456 74.1668 5.39756 74.2074 5.47312C74.2481 5.54286 74.3527 5.57774 74.4225 5.53124C74.7829 5.29294 75.178 5.11276 75.5965 4.99651C75.7941 4.9442 75.707 4.63616 75.5152 4.69428Z" fill="#BDAFA4"/>
<path d="M75.3001 6.40883C75.271 6.32165 75.1954 6.28096 75.1082 6.2984C74.8002 6.35071 74.4921 6.40883 74.1783 6.46114C74.0969 6.47276 74.0446 6.57738 74.0678 6.65294C74.0969 6.74013 74.1725 6.78081 74.2597 6.76338L75.1896 6.60063C75.271 6.58901 75.3233 6.48439 75.3001 6.40883Z" fill="#BDAFA4"/>
<path d="M75.2303 7.54207C74.7246 7.4607 74.2074 7.43164 73.6959 7.4607C73.6087 7.4607 73.5389 7.53044 73.5389 7.61763C73.5389 7.699 73.6087 7.78037 73.6959 7.77456C74.1783 7.7455 74.6665 7.76875 75.1489 7.8443C75.2303 7.85593 75.3175 7.82106 75.3407 7.73387C75.364 7.65831 75.3174 7.55369 75.2303 7.54207Z" fill="#BDAFA4"/>
<path d="M74.7072 8.90252C74.2887 8.82696 73.8702 8.7514 73.4518 8.67584C73.3704 8.6584 73.2832 8.69909 73.26 8.78627C73.2367 8.86183 73.2832 8.96645 73.3704 8.97808C73.7889 9.05363 74.2074 9.12919 74.6258 9.20475C74.7072 9.22219 74.7944 9.1815 74.8176 9.09432C74.8409 9.01876 74.7944 8.91414 74.7072 8.90252Z" fill="#BDAFA4"/>
<path d="M73.6144 10.2509C73.3064 10.1986 72.9983 10.1463 72.6845 10.094C72.6031 10.0823 72.51 10.1172 72.4926 10.2044C72.4752 10.28 72.5159 10.3846 72.6031 10.3962C72.9111 10.4485 73.2192 10.5008 73.533 10.5531C73.6144 10.5648 73.7074 10.5299 73.7248 10.4427C73.7422 10.3671 73.7016 10.2625 73.6144 10.2509Z" fill="#BDAFA4"/>
<path d="M72.7135 11.6868C72.6205 11.5647 72.4985 11.4659 72.3532 11.402C72.08 11.2857 71.7894 11.2799 71.5046 11.338C71.3302 11.338 71.1617 11.3497 71.028 11.3671C70.5804 11.431 70.1561 11.5705 69.7319 11.7216C69.4645 11.8204 69.1855 11.9193 68.9298 12.0529C68.767 11.1695 68.5462 10.2918 68.2497 9.44324C68.0928 8.98989 67.9475 8.49003 67.6627 8.0948C67.3953 7.72282 66.8839 7.3799 66.4189 7.61239C65.9016 7.86813 66.0353 8.53072 66.0818 9.00151C66.1341 9.54786 66.2213 10.0942 66.3898 10.6115C66.6688 11.4775 67.1571 12.2506 67.872 12.8085C67.9359 12.8957 67.9998 12.9887 68.0696 13.0701C68.0928 13.0991 68.1161 13.1224 68.1451 13.1456C68.1509 13.1979 68.1684 13.2444 68.1858 13.2968C68.366 13.7269 68.8252 13.7152 69.2088 13.6455C69.2146 13.6455 69.2204 13.6455 69.232 13.6455C69.697 13.7908 70.2027 13.7966 70.6967 13.692C71.1384 13.5932 71.5569 13.4072 71.9637 13.2038C72.3299 13.0236 72.7193 12.8318 72.8472 12.4075C72.946 12.082 72.8763 11.8553 72.7194 11.6868H72.7135Z" fill="#7FAD23"/>
<path d="M21.4786 34.1737C20.1301 31.6222 15.9569 29.9889 14.8526 33.7029C14.4341 35.1211 14.6608 36.9752 15.2304 38.3237C15.5559 39.0851 16.0325 39.6489 16.6137 40.0906C17.6425 41.5146 19.1943 42.5201 20.8683 41.6715C23.4838 40.3463 22.5422 36.1906 21.4786 34.1737Z" fill="#F0DFD1"/>
<path d="M15.5558 38.4804C15.0966 38.4281 14.6433 38.3351 14.2015 38.1956C13.9923 38.1317 13.8993 38.463 14.1086 38.5269C14.5793 38.6723 15.0618 38.7711 15.5558 38.8234C15.6488 38.835 15.7302 38.7362 15.7302 38.649C15.7302 38.5502 15.6488 38.4863 15.5558 38.4746V38.4804Z" fill="#BDAFA4"/>
<path d="M15.6081 36.8709C14.9688 36.7605 14.3759 36.4757 13.8993 36.0397C13.7366 35.8886 13.4925 36.1327 13.6552 36.2839C14.1725 36.7605 14.8177 37.0859 15.5152 37.2022C15.6082 37.2196 15.7011 37.1789 15.7244 37.0801C15.7476 36.9988 15.6953 36.8825 15.6023 36.8709H15.6081Z" fill="#BDAFA4"/>
<path d="M15.3351 35.6329C14.748 35.4992 14.1959 35.2493 13.7134 34.8831C13.6379 34.825 13.5217 34.8715 13.481 34.947C13.4287 35.0342 13.4693 35.1272 13.5449 35.1795C14.0447 35.5573 14.6318 35.8247 15.2479 35.9642C15.4629 36.0106 15.5559 35.6794 15.3409 35.6329H15.3351Z" fill="#BDAFA4"/>
<path d="M15.3759 34.4123C14.8469 34.0578 14.3878 33.5928 14.0448 33.0581C13.9925 32.9825 13.8937 32.9476 13.8124 32.9941C13.7368 33.0406 13.7019 33.1511 13.7484 33.2266C14.1262 33.8137 14.6261 34.3135 15.2073 34.7029C15.2828 34.7552 15.3991 34.7204 15.4398 34.639C15.4863 34.5518 15.4572 34.453 15.3759 34.4065V34.4123Z" fill="#BDAFA4"/>
<path d="M15.7593 33.2958C15.399 32.9297 15.0328 32.5577 14.6724 32.1915C14.6085 32.1276 14.4923 32.1276 14.4283 32.1915C14.3644 32.2554 14.3644 32.3659 14.4283 32.4356C14.7887 32.8018 15.1548 33.1738 15.5152 33.5399C15.5791 33.6039 15.6954 33.6039 15.7593 33.5399C15.8232 33.476 15.8232 33.3656 15.7593 33.2958Z" fill="#BDAFA4"/>
<path d="M16.5906 32.9532C16.3349 32.7091 16.2128 32.3371 16.0617 32.0174C15.8874 31.6454 15.713 31.2734 15.5386 30.9073C15.4979 30.8259 15.3759 30.8027 15.3061 30.8433C15.219 30.8957 15.2073 30.9945 15.2422 31.0758C15.4224 31.4594 15.6025 31.843 15.7827 32.2267C15.9396 32.558 16.0733 32.9299 16.3465 33.1915C16.5034 33.3426 16.7475 33.1043 16.5906 32.9474V32.9532Z" fill="#BDAFA4"/>
<path d="M17.5262 32.5522C17.1775 31.9245 16.916 31.2561 16.7474 30.5586C16.6951 30.3436 16.3638 30.4366 16.4161 30.6516C16.5963 31.3782 16.8695 32.0756 17.2298 32.7266C17.3345 32.9184 17.6367 32.7498 17.5262 32.5522Z" fill="#BDAFA4"/>
<path d="M18.5027 32.7728C18.34 32.6973 18.2877 32.5345 18.247 32.3776C18.1889 32.1393 18.1482 31.8952 18.1017 31.6569C18.0087 31.1454 17.9389 30.6339 17.8808 30.1225C17.8576 29.9074 17.5146 29.9016 17.5379 30.1225C17.6018 30.7037 17.6832 31.2791 17.7878 31.8545C17.8634 32.2556 17.8983 32.8717 18.3225 33.0751C18.5202 33.1681 18.6945 32.8716 18.4969 32.7787L18.5027 32.7728Z" fill="#BDAFA4"/>
<path d="M19.3978 30.2506C19.3861 30.0297 19.0374 30.0297 19.0548 30.2506C19.1071 31.0701 19.1653 31.8955 19.2176 32.715C19.235 32.9359 19.5779 32.9359 19.5605 32.715C19.5082 31.8955 19.4501 31.0701 19.3978 30.2506Z" fill="#BDAFA4"/>
<path d="M20.1012 30.4308L19.9675 32.9359C19.9558 33.1567 20.2988 33.1567 20.3104 32.9359L20.4441 30.4308C20.4557 30.2099 20.1128 30.2099 20.1012 30.4308Z" fill="#BDAFA4"/>
<path d="M21.3973 31.9768C21.2984 31.9478 21.2229 32.0117 21.188 32.0989C20.8102 33.0056 20.5138 33.9472 20.3104 34.912C20.2639 35.1271 20.5952 35.2201 20.6417 35.005C20.8451 34.0402 21.1415 33.1044 21.5193 32.1919C21.5542 32.1047 21.4786 32.0059 21.3973 31.9826V31.9768Z" fill="#BDAFA4"/>
<path d="M23.3095 40.0153C23.3095 39.8002 23.2514 39.5851 23.1061 39.4166C22.9317 39.2132 22.6353 39.1609 22.3912 39.248C22.1354 39.341 21.8855 39.4689 21.6647 39.6258C21.2171 39.9397 20.8393 40.3466 20.5777 40.829C20.5138 40.9452 20.4615 41.0731 20.4092 41.201C20.1883 40.9045 19.8977 40.6488 19.6246 40.4512C18.9852 39.992 18.2006 39.7363 17.445 39.5445C17.0149 39.4398 16.5557 39.3236 16.1139 39.4282C15.7187 39.5212 15.3409 39.8176 15.2189 40.2187C14.9573 41.0905 15.7652 41.8868 16.3987 42.3576C17.073 42.8516 17.8867 43.1364 18.7004 43.2934C19.1596 43.3805 19.6362 43.4677 20.1012 43.491C20.2988 43.4968 20.4964 43.4445 20.6591 43.3399C20.6882 43.3399 20.7231 43.3399 20.7521 43.3282C20.9788 43.2817 21.1532 43.0841 21.3217 42.933C21.6007 42.6831 21.8739 42.4331 22.118 42.1483C22.3447 41.8868 22.5423 41.602 22.6992 41.2998C22.7806 41.1893 22.862 41.0789 22.9433 40.9627C23.1351 40.6779 23.2979 40.364 23.3037 40.0094L23.3095 40.0153Z" fill="#7FAD23"/>
<path d="M74.6317 33.2903C74.0562 32.2034 72.7426 31.6106 71.1675 32.2209C69.0577 33.0404 67.2443 35.0572 66.5352 37.2543C65.8203 38.6724 65.582 40.4684 66.8955 41.0496C66.9827 41.1368 67.0757 41.224 67.1861 41.2996C67.7209 41.6774 68.3137 41.7064 68.8833 41.5495C69.2786 41.5262 69.6796 41.4565 70.0458 41.3519C72.8589 40.5498 77.253 36.1674 74.6317 33.2903Z" fill="#F0DFD1"/>
<path d="M67.7671 36.0276C67.616 35.4231 67.4649 34.8244 67.3138 34.22C67.2615 34.0049 66.9244 34.0921 66.9767 34.313C67.1452 34.9988 67.3196 35.6788 67.4882 36.3647C67.523 36.4984 67.6858 36.5216 67.7788 36.4402C67.8311 36.3937 67.8834 36.3531 67.9357 36.3066C68.081 36.1845 67.9183 35.9811 67.7614 36.0218L67.7671 36.0276Z" fill="#BDAFA4"/>
<path d="M68.7032 34.9061C68.5114 34.1505 68.459 33.3659 68.5404 32.5928C68.552 32.4998 68.4532 32.4185 68.3661 32.4185C68.2614 32.4185 68.2033 32.4998 68.1917 32.5928C68.1045 33.4007 68.1626 34.2144 68.3661 34.9991C68.4242 35.2141 68.7555 35.1211 68.7032 34.9061Z" fill="#BDAFA4"/>
<path d="M69.6853 31.6166V33.8775C69.6853 34.0984 70.034 34.1042 70.034 33.8775V31.6166C70.034 31.3957 69.6853 31.3899 69.6853 31.6166Z" fill="#BDAFA4"/>
<path d="M71.2603 30.7274C71.086 31.5759 70.9639 32.4362 70.8883 33.2964C70.8709 33.5172 71.2138 33.5172 71.2371 33.2964C71.3068 32.4652 71.4289 31.6399 71.5974 30.8204C71.6439 30.5995 71.3068 30.5065 71.2603 30.7274Z" fill="#BDAFA4"/>
<path d="M73.1204 30.5532C72.8646 31.3378 72.5682 32.1051 72.2311 32.8548C72.1904 32.942 72.2078 33.0408 72.295 33.0931C72.3706 33.1396 72.4927 33.1164 72.5333 33.0292C72.8821 32.2504 73.1959 31.4541 73.4575 30.6462C73.5272 30.4311 73.1901 30.3439 73.1204 30.5532Z" fill="#BDAFA4"/>
<path d="M74.806 31.797C74.7595 31.7214 74.6491 31.6807 74.5677 31.733C73.9807 32.1283 73.4401 32.5933 72.9635 33.1222C72.8124 33.2907 73.0623 33.5348 73.2076 33.3663C73.6609 32.8606 74.1782 32.4131 74.742 32.0295C74.8176 31.9772 74.8525 31.8783 74.806 31.7912V31.797Z" fill="#BDAFA4"/>
<path d="M76.067 33.0404C75.2707 33.2555 74.4977 33.5751 73.7769 33.9762C73.5793 34.0866 73.7595 34.3888 73.9513 34.2784C74.6488 33.889 75.387 33.5809 76.16 33.3775C76.3751 33.3194 76.282 32.9823 76.067 33.0404Z" fill="#BDAFA4"/>
<path d="M76.5496 34.6042C76.2648 34.331 75.8637 34.4356 75.5208 34.5228C75.0733 34.6391 74.6199 34.7495 74.1724 34.8657C73.9573 34.918 74.0504 35.2552 74.2654 35.2028C74.6606 35.104 75.0501 35.0052 75.4453 34.9064C75.6081 34.8657 75.7766 34.8134 75.9452 34.7902C76.0672 34.7727 76.2125 34.7669 76.3055 34.8599C76.4683 35.011 76.7123 34.7669 76.5496 34.6158V34.6042Z" fill="#BDAFA4"/>
<path d="M76.2474 36.179C75.6836 36.2255 75.1198 36.2139 74.5619 36.1325C74.4689 36.1209 74.3759 36.1558 74.3468 36.2546C74.3236 36.3359 74.3758 36.458 74.4688 36.4696C75.0617 36.551 75.6545 36.5742 76.2474 36.5278C76.3403 36.5219 76.4217 36.4522 76.4217 36.3534C76.4217 36.2662 76.3403 36.1732 76.2474 36.179Z" fill="#BDAFA4"/>
<path d="M75.7649 37.7311C75.1488 37.6032 74.5211 37.5626 73.8934 37.6207C73.8004 37.6265 73.719 37.6962 73.719 37.795C73.719 37.8822 73.8004 37.9752 73.8934 37.9694C74.4862 37.9171 75.0849 37.9462 75.6719 38.0682C75.8928 38.1147 75.9858 37.7776 75.7649 37.7311Z" fill="#BDAFA4"/>
<path d="M74.44 39.0621C74.0389 38.9517 73.6379 38.8413 73.2368 38.7308C73.0218 38.6727 72.9288 39.0098 73.1438 39.0679C73.5449 39.1784 73.946 39.2888 74.347 39.3992C74.5621 39.4574 74.655 39.1202 74.44 39.0621Z" fill="#BDAFA4"/>
<path d="M73.2367 40.457C73.0216 40.3989 72.8589 40.3291 72.6613 40.2129C72.5683 40.1548 72.5043 40.1083 72.4288 40.0443C72.3416 39.9688 72.266 39.8932 72.1905 39.806C72.1265 39.7363 72.0103 39.7421 71.9464 39.806C71.8766 39.8758 71.8825 39.9804 71.9464 40.0501C72.2603 40.4105 72.6845 40.672 73.1437 40.7941C73.2309 40.8173 73.3355 40.765 73.3587 40.672C73.382 40.579 73.3297 40.4802 73.2367 40.457Z" fill="#BDAFA4"/>
<path d="M69.8888 40.4162C69.3367 40.021 68.4881 40.0907 67.8604 40.2302C67.6163 40.2825 67.3838 40.3581 67.1513 40.4511C67.3314 39.957 67.4477 39.4514 67.5116 38.9341C67.5756 38.4575 67.5872 37.9634 67.3896 37.5159C67.1571 36.9986 66.6166 36.6557 66.0702 36.9579C65.6343 37.202 65.3611 37.7077 65.1925 38.1552C65.0066 38.6551 64.9485 39.2072 64.9194 39.7362C64.8845 40.3406 64.9078 40.9567 65.0938 41.538C65.1519 41.7123 65.2972 41.8402 65.4716 41.8692C65.5006 42.0378 65.6227 42.2005 65.797 42.2529C66.4771 42.4563 67.2152 42.526 67.9243 42.5667C68.5695 42.6016 69.296 42.4912 69.8424 42.1308C70.133 41.939 70.3596 41.6542 70.3712 41.2938C70.3829 40.9393 70.1736 40.6196 69.8888 40.422V40.4162Z" fill="#7FAD23"/>
<path d="M32.4753 26.118C31.8418 26.1993 31.0687 26.5132 30.348 26.9782C30.348 26.9782 30.3422 26.9782 30.3364 26.9782C27.9302 27.9198 26.7793 30.6166 27.6279 33.0287C27.8081 33.546 28.244 33.7611 28.6799 33.7611C28.924 33.8599 29.1856 33.9064 29.453 33.8947C30.2085 34.0575 31.0688 33.8715 31.865 33.4879C33.3588 32.8485 34.5794 31.6745 35.1257 30.0819C35.8116 28.0593 34.899 25.8215 32.4753 26.1238V26.118Z" fill="#F0DFD1"/>
<path d="M31.5572 25.3101C31.3886 25.9611 31.2724 26.6179 31.1968 27.2863C31.1852 27.3677 31.2724 27.4432 31.3538 27.4432C31.4468 27.4432 31.4991 27.3735 31.5107 27.2863C31.5804 26.647 31.6967 26.0134 31.8595 25.3915C31.906 25.1997 31.6095 25.1183 31.563 25.3101H31.5572Z" fill="#BDAFA4"/>
<path d="M32.7254 24.9212C32.4464 25.4268 32.2313 25.9732 32.0918 26.537C32.0453 26.7288 32.3418 26.8101 32.3883 26.6183C32.522 26.0778 32.7196 25.5605 32.987 25.0723C33.0858 24.8979 32.8184 24.741 32.7196 24.9154L32.7254 24.9212Z" fill="#BDAFA4"/>
<path d="M33.8821 24.6476C33.7949 24.6244 33.7251 24.6767 33.6903 24.7581C33.4287 25.3916 33.173 26.0193 32.9115 26.6529C32.8824 26.7284 32.9463 26.8214 33.0219 26.8447C33.1091 26.8679 33.1788 26.8156 33.2137 26.7342C33.4753 26.1007 33.731 25.473 33.9925 24.8394C34.0216 24.7639 33.9576 24.6709 33.8821 24.6476Z" fill="#BDAFA4"/>
<path d="M35.2072 25.357C35.1665 25.293 35.0619 25.2523 34.9979 25.2988C34.5388 25.6534 34.1029 26.0428 33.7018 26.4613C33.5623 26.6066 33.7832 26.8216 33.9227 26.6822C34.3063 26.2811 34.719 25.9091 35.1607 25.572C35.2246 25.5197 35.2595 25.4383 35.2188 25.3628L35.2072 25.357Z" fill="#BDAFA4"/>
<path d="M35.6081 26.5253C35.5848 26.4497 35.4977 26.3916 35.4163 26.4149C34.8932 26.5892 34.4166 26.874 34.0155 27.2518C33.8702 27.3913 34.0911 27.6064 34.2364 27.4727C34.5967 27.1298 35.0327 26.8682 35.5035 26.7113C35.5848 26.6822 35.6313 26.6067 35.6139 26.5195L35.6081 26.5253Z" fill="#BDAFA4"/>
<path d="M36.0152 27.8213C35.4804 27.8271 34.9457 27.9201 34.4401 28.1003C34.3587 28.1293 34.3064 28.2049 34.3296 28.2921C34.3529 28.3676 34.4401 28.4258 34.5215 28.4025C35.0039 28.234 35.5037 28.141 36.0094 28.1351C36.207 28.1351 36.207 27.8213 36.0094 27.8271L36.0152 27.8213Z" fill="#BDAFA4"/>
<path d="M36.2302 29.2912C36.1546 29.1808 36.0384 29.1401 35.9047 29.1343C35.7652 29.1343 35.6199 29.1459 35.4804 29.1517C35.184 29.1633 34.8876 29.175 34.5969 29.1866C34.3993 29.1924 34.3993 29.5063 34.5969 29.4946C34.8527 29.483 35.1084 29.4714 35.3641 29.4656C35.492 29.4656 35.6199 29.454 35.7478 29.4481C35.8001 29.4481 35.8524 29.4423 35.9047 29.4481H35.9454C35.957 29.4481 35.9686 29.4598 35.9628 29.4481C36.0093 29.5179 36.0965 29.5469 36.172 29.5063C36.2418 29.4656 36.2767 29.3668 36.2302 29.297V29.2912Z" fill="#BDAFA4"/>
<path d="M35.149 30.6747L34.3527 30.4596C34.2772 30.4364 34.1842 30.4887 34.1609 30.5701C34.1435 30.6515 34.1842 30.7386 34.2713 30.7619L35.0677 30.9769C35.1432 31.0002 35.2362 30.9479 35.2594 30.8665C35.2769 30.7851 35.2362 30.698 35.149 30.6747Z" fill="#BDAFA4"/>
<path d="M34.6318 31.9306C34.2714 31.855 33.8995 31.8085 33.5333 31.7969C33.4519 31.7969 33.3763 31.8724 33.3763 31.9538C33.3763 32.041 33.4461 32.1049 33.5333 32.1107C33.8762 32.1224 34.2133 32.163 34.5504 32.2328C34.6318 32.2502 34.719 32.2095 34.7422 32.1224C34.7655 32.0468 34.719 31.948 34.6318 31.9306Z" fill="#BDAFA4"/>
<path d="M30.5575 27.3218C30.4761 26.9208 30.4296 26.5139 30.4064 26.1013C30.4064 26.0199 30.3366 25.9443 30.2494 25.9443C30.1681 25.9443 30.0925 26.0141 30.0925 26.1013C30.1158 26.5372 30.1681 26.9731 30.2494 27.4032C30.2669 27.4846 30.3657 27.5311 30.4412 27.5136C30.5284 27.4904 30.5633 27.4032 30.5517 27.3218H30.5575Z" fill="#BDAFA4"/>
<path d="M32.6615 32.9762C32.6324 32.8774 32.5917 32.7844 32.5394 32.6972C32.272 32.273 31.7664 32.0753 31.2956 31.9765C30.8655 31.8835 30.4179 31.8254 29.9762 31.8254C29.8948 31.7905 29.7902 31.7789 29.6798 31.808C29.6275 31.8196 29.5693 31.837 29.517 31.8487C29.0927 31.8893 28.5464 31.9707 28.1512 32.2148C28.0698 32.2439 27.9826 32.273 27.9012 32.302C27.7152 32.3834 27.5118 32.4938 27.3839 32.6566C27.0643 32.8774 27.134 33.4122 27.5409 33.4877C27.6048 33.5633 27.6804 33.6272 27.7617 33.6795C28.1802 33.9585 28.6859 34.1329 29.1741 34.2259C29.703 34.3247 30.2319 34.3421 30.7667 34.313C31.0398 34.2956 31.313 34.2666 31.5862 34.2375C31.8593 34.2084 32.1616 34.2026 32.3999 34.0631C32.8184 33.8248 32.9114 33.3308 32.6556 32.982L32.6615 32.9762Z" fill="#7FAD23"/>
<path d="M33.3878 16.2314C32.4172 13.9763 29.5227 14.1681 27.9301 15.6211C25.7447 17.6147 25.9365 20.6603 26.4654 23.3107C26.5235 23.6188 26.6747 23.8222 26.8665 23.9559C27.2849 24.6708 27.9417 25.1939 28.8833 25.2404C30.8886 25.3392 32.4346 22.9794 32.8705 21.2881C32.8705 21.2823 32.8705 21.2706 32.8705 21.2648C33.69 19.7071 34.0388 17.7484 33.3878 16.2372V16.2314Z" fill="#F0DFD1"/>
<path d="M27.5233 17.9284C26.9595 17.3297 26.5004 16.6265 26.1923 15.8592C26.1574 15.7779 26.0819 15.7197 25.9947 15.7488C25.9191 15.7721 25.8494 15.865 25.8842 15.9464C26.2155 16.7659 26.6863 17.5157 27.2966 18.1609C27.4419 18.312 27.6686 18.0853 27.5233 17.9342V17.9284Z" fill="#BDAFA4"/>
<path d="M28.1045 16.394C27.8895 15.6733 27.6919 14.9409 27.5059 14.2144C27.4536 14.011 27.1455 14.0982 27.192 14.3016C27.3722 15.0339 27.5756 15.7605 27.7907 16.4812C27.8488 16.6788 28.1627 16.5974 28.1045 16.394Z" fill="#BDAFA4"/>
<path d="M26.6399 19.1434C26.2389 18.661 25.8843 18.1495 25.5646 17.609C25.5239 17.5392 25.4368 17.5102 25.3612 17.5451C25.2915 17.5741 25.2391 17.6613 25.2682 17.7369C25.2914 17.8008 25.3205 17.8647 25.3438 17.9345C25.367 17.9868 25.4019 18.0275 25.4542 18.0449C25.7448 18.5099 26.0587 18.9574 26.4074 19.3817C26.4655 19.4515 26.576 19.4398 26.6341 19.3817C26.698 19.3178 26.6922 19.219 26.6341 19.155L26.6399 19.1434Z" fill="#BDAFA4"/>
<path d="M29.3019 15.8186C29.0694 15.0224 28.9125 14.2145 28.8369 13.3891C28.8195 13.1857 28.494 13.1799 28.5114 13.3891C28.5928 14.2435 28.7497 15.0805 28.988 15.9058C29.0461 16.1034 29.36 16.0221 29.3019 15.8186Z" fill="#BDAFA4"/>
<path d="M31.0105 12.8776C30.9407 12.8369 30.8245 12.8543 30.7896 12.9357C30.4758 13.668 30.2142 14.412 30.005 15.1792C29.9701 15.3071 30.1212 15.4466 30.2433 15.3594L30.3363 15.2896C30.4235 15.2257 30.4235 15.1211 30.377 15.0513C30.5688 14.3829 30.7955 13.7261 31.0686 13.0868C31.1035 13.0054 31.0919 12.9124 31.0105 12.8659V12.8776Z" fill="#BDAFA4"/>
<path d="M32.4928 13.2966C32.4115 13.2501 32.3243 13.2849 32.272 13.3547C31.8884 13.8662 31.528 14.3951 31.1967 14.9414C31.1793 14.953 31.1619 14.9705 31.1444 14.9995C31.1096 15.0635 31.0747 15.1216 31.0456 15.1855C30.9468 15.3657 31.22 15.5285 31.3246 15.3483C31.6966 14.7147 32.1092 14.1045 32.551 13.5232C32.6033 13.4535 32.5626 13.3431 32.4928 13.3024V13.2966Z" fill="#BDAFA4"/>
<path d="M33.7309 14.5806C33.1497 14.9525 32.5743 15.3187 31.993 15.6907C31.8187 15.8011 31.9814 16.0801 32.1558 15.9697C32.737 15.5977 33.3124 15.2315 33.8937 14.8595C34.068 14.7491 33.9053 14.4701 33.7309 14.5806Z" fill="#BDAFA4"/>
<path d="M34.4515 16.0281C33.9575 16.3013 33.4402 16.5338 32.8996 16.7198C32.8183 16.7489 32.7601 16.8302 32.7892 16.9174C32.8125 16.9988 32.9055 17.0569 32.9868 17.0278C33.5506 16.836 34.0912 16.5919 34.6143 16.3013C34.7944 16.2025 34.6317 15.9235 34.4515 16.0223V16.0281Z" fill="#BDAFA4"/>
<path d="M34.7015 17.9688C34.6782 17.8758 34.591 17.8409 34.5038 17.8583C34.1086 17.9281 33.7076 17.963 33.3065 17.9746C33.2193 17.9746 33.1438 18.0443 33.1438 18.1373C33.1438 18.2303 33.2193 18.3001 33.3065 18.3001C33.7366 18.2884 34.1667 18.2419 34.591 18.1722C34.6782 18.1548 34.7247 18.0501 34.7015 17.9746V17.9688Z" fill="#BDAFA4"/>
<path d="M34.2541 19.2424C33.8065 19.2715 33.359 19.3587 32.9347 19.5098C32.8533 19.5388 32.7952 19.6202 32.8242 19.7074C32.8475 19.7888 32.9405 19.8469 33.0219 19.8178C33.4229 19.6783 33.8356 19.5911 34.2541 19.5621C34.3412 19.5621 34.4168 19.4923 34.4168 19.3993C34.4168 19.318 34.3412 19.2308 34.2541 19.2366V19.2424Z" fill="#BDAFA4"/>
<path d="M33.8355 21.1426C33.8064 21.0496 33.7251 21.0147 33.6379 21.0322C33.6379 21.0322 33.6147 21.0322 33.6089 21.0322C33.5914 21.0322 33.574 21.0322 33.5565 21.038C33.5217 21.038 33.4868 21.0438 33.4577 21.0496C33.388 21.0554 33.3182 21.0612 33.2427 21.067C33.1032 21.0728 32.9579 21.0728 32.8184 21.067C32.7312 21.067 32.6556 21.1426 32.6556 21.2298C32.6556 21.3228 32.7254 21.3867 32.8184 21.3925C33.1206 21.4041 33.4287 21.3925 33.7251 21.346C33.8065 21.3344 33.8646 21.224 33.8355 21.1484V21.1426Z" fill="#BDAFA4"/>
<path d="M32.2719 23.1473C31.9465 22.7637 31.4756 22.7812 31.0455 22.9614C30.6677 23.1183 30.2958 23.2868 29.9354 23.4786C29.4472 23.7344 28.9938 24.0424 28.6102 24.4202C28.4184 24.0541 28.1975 23.6995 27.9302 23.3682C27.7616 23.159 27.5349 22.8684 27.2792 22.6591C27.1048 22.4441 26.9188 22.2348 26.7154 22.043C26.4015 21.7466 25.9889 21.4792 25.5472 21.6768C24.7451 22.0314 25.1112 23.1067 25.3844 23.6937C25.6634 24.2865 26.1167 24.8096 26.6108 25.2339C27.1629 25.7047 28.0987 26.4952 28.8078 25.8733C29.2089 25.8849 29.5809 25.7977 29.9761 25.6815C30.4178 25.5478 30.8712 25.4257 31.2954 25.2456C32.0394 24.9259 32.9752 23.9843 32.2777 23.159L32.2719 23.1473Z" fill="#7FAD23"/>
<path d="M61.9668 5.71114C58.4795 7.03633 59.1944 13.8076 61.1706 16.4057C61.8738 17.3298 62.9665 18.0563 63.9197 17.882C65.5937 17.9575 66.6341 16.1732 67.0758 14.5167C67.9999 11.0468 66.1865 4.11277 61.9727 5.71114H61.9668Z" fill="#F0DFD1"/>
<path d="M60.1882 11.4136C60.1301 11.3845 60.0545 11.3961 60.008 11.4426C59.5605 11.059 59.1594 10.6057 58.8281 10.0826C58.6944 9.87333 58.4155 10.1058 58.5492 10.3151C58.9444 10.9253 59.421 11.4659 59.9615 11.896C60.0487 11.9657 60.1882 11.9541 60.2289 11.8262C60.2463 11.7739 60.258 11.7274 60.2754 11.6751C60.3045 11.5763 60.2754 11.4601 60.1882 11.4078V11.4136Z" fill="#BDAFA4"/>
<path d="M60.0488 10.4017C59.5722 9.89608 59.2002 9.26836 58.9619 8.58251C58.8806 8.34421 58.5551 8.47789 58.6423 8.72201C58.9038 9.4776 59.3165 10.1576 59.8396 10.7098C60.0081 10.8842 60.2174 10.5819 60.0546 10.4076L60.0488 10.4017Z" fill="#BDAFA4"/>
<path d="M60.3567 9.27453C60.3335 9.23966 60.316 9.2106 60.2928 9.17572C60.2463 9.10598 60.2056 9.03623 60.1649 8.96648C60.0778 8.82118 59.9906 8.67587 59.9092 8.52475C59.7406 8.22833 59.5837 7.92028 59.4384 7.60642C59.3919 7.50761 59.3047 7.44949 59.2117 7.49018C59.1303 7.52505 59.0722 7.64711 59.1187 7.74591C59.3163 8.17602 59.5372 8.5945 59.7755 9.00136C59.8917 9.19316 60.0022 9.39659 60.1358 9.57677C60.2114 9.68139 60.316 9.75695 60.4323 9.71626C60.5427 9.67558 60.6067 9.57096 60.595 9.43728C60.5834 9.28616 60.4613 9.23966 60.3625 9.27453H60.3567Z" fill="#BDAFA4"/>
<path d="M60.9611 8.48358C60.502 7.93142 60.1881 7.24558 59.8801 6.58298C59.8336 6.48417 59.7464 6.42605 59.6534 6.46674C59.572 6.50161 59.5139 6.62367 59.5604 6.72248C59.8975 7.45482 60.2462 8.18135 60.7461 8.79163C60.81 8.873 60.9379 8.84394 60.9902 8.76838C61.0541 8.67539 61.0251 8.56496 60.9611 8.4894V8.48358Z" fill="#BDAFA4"/>
<path d="M60.9145 5.11286C60.8912 5.00824 60.8215 4.92106 60.7227 4.93268C60.6355 4.9385 60.5483 5.04312 60.5716 5.14774C60.7111 5.83358 60.8447 6.51942 60.9842 7.20527C61.0075 7.30989 61.0772 7.39707 61.1761 7.38545C61.2632 7.37964 61.3504 7.27501 61.3272 7.17039C61.1877 6.48455 61.054 5.79871 60.9145 5.11286Z" fill="#BDAFA4"/>
<path d="M62.0424 3.81686C62.0133 3.56112 61.6646 3.59599 61.6995 3.85173C61.8157 4.78169 61.9669 5.70584 62.1645 6.62417C62.1877 6.72879 62.2574 6.81597 62.3563 6.80435C62.4376 6.79854 62.5306 6.69392 62.5074 6.58929C62.3156 5.67096 62.1587 4.74682 62.0424 3.81686Z" fill="#BDAFA4"/>
<path d="M63.6058 3.61887C63.5245 3.60144 63.414 3.67119 63.4082 3.78162L63.3326 6.60055C63.3326 6.71099 63.3791 6.80979 63.4779 6.83304C63.5593 6.85048 63.6698 6.78073 63.6756 6.6703L63.7511 3.85136C63.7511 3.74093 63.7046 3.64212 63.6058 3.61887Z" fill="#BDAFA4"/>
<path d="M64.6285 4.4387C64.5471 4.42126 64.4367 4.49101 64.4309 4.60144C64.4076 5.4384 64.3844 6.27537 64.3669 7.11233C64.3669 7.21695 64.4134 7.32157 64.5122 7.34482C64.5936 7.36225 64.7041 7.29251 64.7099 7.18207L64.7738 4.67119C64.7738 4.56657 64.7273 4.46195 64.6285 4.4387Z" fill="#BDAFA4"/>
<path d="M65.1635 5.14177C65.2507 5.9613 65.2507 6.78082 65.1635 7.59453C65.1344 7.85027 65.4774 7.92002 65.5064 7.66428C65.5994 6.81569 65.5994 5.95548 65.5064 5.1069C65.4774 4.85116 65.1344 4.88603 65.1635 5.14177Z" fill="#BDAFA4"/>
<path d="M66.7677 6.85662C66.6863 6.81012 66.5701 6.85662 66.541 6.94962C66.3492 7.54246 66.1109 8.11788 65.8319 8.65841C65.7854 8.75141 65.8435 8.87928 65.9191 8.92578C66.0121 8.97809 66.0993 8.92578 66.1458 8.83278C66.4248 8.28643 66.6631 7.71683 66.8549 7.12398C66.8898 7.02517 66.8549 6.90893 66.7677 6.85662Z" fill="#BDAFA4"/>
<path d="M67.378 9.02487C67.3025 8.96094 67.1921 8.96094 67.1339 9.04812C66.8782 9.42011 66.605 9.77465 66.3086 10.1001C66.2447 10.1699 66.2679 10.321 66.3377 10.3791C66.419 10.4489 66.512 10.4314 66.5818 10.3559C66.8782 10.0304 67.1514 9.67584 67.4071 9.30386C67.4594 9.22249 67.4536 9.08881 67.378 9.02487Z" fill="#BDAFA4"/>
<path d="M67.7093 10.7216C67.6511 10.6402 67.5407 10.6053 67.4652 10.6751C67.1629 10.9366 66.8491 11.1575 66.5178 11.3319C66.4364 11.3726 66.3841 11.483 66.4248 11.5876C66.4596 11.6806 66.5643 11.7504 66.6514 11.7039C67.0176 11.5121 67.3605 11.2738 67.6802 11.0006C67.75 10.9366 67.7732 10.8088 67.7151 10.7216H67.7093Z" fill="#BDAFA4"/>
<path d="M60.4556 13.3017C60.072 12.9065 59.6361 12.5694 59.1711 12.3137C59.0839 12.2672 58.9793 12.3137 58.9444 12.4066C58.9038 12.5055 58.9445 12.6275 59.0316 12.674C59.4734 12.9181 59.8686 13.2204 60.2406 13.604C60.3103 13.6795 60.4266 13.6563 60.4847 13.5807C60.5428 13.4935 60.5254 13.3715 60.4556 13.3017Z" fill="#BDAFA4"/>
<path d="M67.7208 15.9002C67.622 15.3538 67.1977 15.0516 66.7327 15.1853C66.4421 15.2725 66.1806 15.534 65.9423 15.7316C65.7156 15.9234 65.5005 16.1211 65.2855 16.3303C64.9251 16.6848 64.5938 17.0743 64.2742 17.4753C64.001 17.0801 63.5883 16.8069 63.2163 16.5628C62.7978 16.2896 62.3619 16.0571 61.9144 15.8595C61.711 15.7723 61.5017 15.6909 61.2983 15.6096C61.0251 15.505 60.7403 15.3887 60.4497 15.4236C60.1765 15.4585 59.9266 15.6038 59.7754 15.8653C59.5895 16.1734 59.6011 16.557 59.7057 16.9115C59.8684 17.4521 60.2811 17.8647 60.7228 18.103C61.2227 18.3704 61.7865 18.475 62.3154 18.6145C62.8211 18.7482 63.3732 18.9691 63.9022 18.9632C64.001 19.0446 64.123 19.0969 64.2567 19.0853C64.9019 19.0504 65.4598 18.661 65.9655 18.2425C66.4712 17.8299 66.971 17.4056 67.4069 16.8941C67.6278 16.6325 67.7906 16.278 67.7208 15.9002Z" fill="#7FAD23"/>
<path d="M28.68 52.1161C27.7907 50.6049 25.9366 50.3027 24.4371 51.0118C24.222 51.1164 24.0477 51.2442 23.914 51.3895C23.8907 51.407 23.8675 51.4244 23.8384 51.4419C21.1706 52.7322 19.7873 55.3709 19.5374 58.3119C19.3107 60.9797 21.3857 62.52 23.8675 61.3575C24.6638 60.9856 25.4484 60.3636 26.1575 59.6139C27.1572 58.713 27.9709 57.6028 28.401 56.638C28.9997 55.3012 29.4705 53.4645 28.6742 52.1161H28.68Z" fill="#F0DFD1"/>
<path d="M22.2807 53.9465C21.9843 53.0921 21.7925 52.2028 21.6995 51.3019C21.6763 51.0462 21.2752 51.0752 21.3042 51.331C21.3972 52.2667 21.5949 53.1909 21.9029 54.0744C21.9843 54.3185 22.3621 54.1906 22.2807 53.9465Z" fill="#BDAFA4"/>
<path d="M23.4722 52.7088C23.4025 51.8834 23.4781 51.0581 23.6989 50.2618C23.7687 50.0119 23.3734 49.9363 23.3095 50.1804C23.0828 51.0116 23.0015 51.8776 23.077 52.732C23.1003 52.9877 23.4955 52.9587 23.4722 52.7029V52.7088Z" fill="#BDAFA4"/>
<path d="M24.9717 52.5577C24.8148 52.424 24.8904 52.1566 24.9136 51.9823C24.9543 51.6858 25.0008 51.3894 25.0531 51.093C25.1519 50.5118 25.274 49.9364 25.4077 49.3609C25.4658 49.111 25.0764 49.0296 25.0183 49.2796C24.8671 49.9422 24.7335 50.6048 24.623 51.2732C24.5707 51.5812 24.5126 51.8893 24.4894 52.1973C24.4719 52.4414 24.5126 52.6855 24.7102 52.8541C24.9078 53.0227 25.1694 52.7262 24.9776 52.5577H24.9717Z" fill="#BDAFA4"/>
<path d="M26.8606 49.7039C26.4014 50.5293 26.0004 51.3837 25.6575 52.2613C25.5645 52.4996 25.919 52.6798 26.012 52.4415C26.355 51.5638 26.756 50.7036 27.2152 49.8841C27.343 49.6574 26.9827 49.4831 26.8606 49.7039Z" fill="#BDAFA4"/>
<path d="M29.5751 50.6683C29.546 50.5753 29.4181 50.4939 29.3193 50.5462C28.4184 50.9937 27.6105 51.6098 26.9537 52.3712C26.7852 52.563 27.0816 52.8304 27.2502 52.6386C27.8604 51.9295 28.6102 51.3425 29.4472 50.924C29.546 50.8775 29.6099 50.7845 29.5692 50.6683H29.5751Z" fill="#BDAFA4"/>
<path d="M30.0981 53.0341C30.0923 52.9353 29.9935 52.8307 29.8831 52.8481C29.0403 53.0167 28.244 53.3189 27.5001 53.749C27.2792 53.8769 27.5001 54.2082 27.7209 54.0803C28.401 53.6851 29.1449 53.4003 29.9121 53.2433C30.0167 53.2201 30.1039 53.1503 30.0981 53.0283V53.0341Z" fill="#BDAFA4"/>
<path d="M30.1099 54.6679C30.0576 54.4645 29.86 54.3425 29.6565 54.325C29.4124 54.3076 29.1625 54.3948 28.93 54.4529L27.4304 54.79C27.3258 54.8132 27.2735 54.9469 27.3084 55.0457C27.3491 55.1562 27.4537 55.191 27.5641 55.1678C27.971 55.0748 28.3836 54.9818 28.7905 54.8888C28.9881 54.8423 29.1857 54.8016 29.3833 54.7551C29.4763 54.7319 29.703 54.6563 29.7379 54.7958C29.8018 55.0457 30.1796 54.9121 30.1157 54.6679H30.1099Z" fill="#BDAFA4"/>
<path d="M29.4995 56.5683C29.4937 56.4637 29.3949 56.3707 29.2844 56.3823C28.7032 56.4463 28.122 56.5102 27.5408 56.5741C27.4361 56.5858 27.349 56.6788 27.3548 56.7892C27.3606 56.8938 27.4594 56.9868 27.5698 56.9752C28.151 56.9112 28.7323 56.8473 29.3135 56.7834C29.4181 56.7718 29.5053 56.6788 29.4995 56.5683Z" fill="#BDAFA4"/>
<path d="M27.7094 58.4921C27.6978 58.3758 27.6106 58.3119 27.4944 58.3061C27.4828 58.3061 27.4653 58.3061 27.4537 58.3061C27.4653 58.3061 27.4653 58.3061 27.4537 58.3061C27.4304 58.3061 27.4014 58.3061 27.3781 58.3003C27.3374 58.3003 27.291 58.2886 27.2503 58.2828C27.1515 58.2654 27.0585 58.248 26.9655 58.2189C26.8085 58.1724 26.6342 58.1026 26.4714 58.0097C26.3784 57.9573 26.2448 58.0038 26.2041 58.0968C26.1576 58.2015 26.1924 58.3119 26.2912 58.3642C26.669 58.5793 27.0933 58.6897 27.5292 58.7071C27.6339 58.7071 27.7269 58.5909 27.7152 58.4921H27.7094Z" fill="#BDAFA4"/>
<path d="M26.076 60.8517C26.1167 60.3402 25.8842 59.8462 25.4192 59.6079C24.9136 59.3463 24.2568 59.4103 23.7104 59.4044C23.1699 59.3928 22.6236 59.4044 22.0888 59.4626C21.3972 59.5439 20.63 59.7009 19.9732 60.0438C19.6535 60.131 19.3454 60.2588 19.0897 60.503C18.7293 60.8459 18.5724 61.3864 18.7526 61.8572C18.9212 62.2931 19.3338 62.5779 19.7581 62.7349C20.6648 63.0662 21.6762 63.1708 22.6294 63.0545C23.5535 62.9441 24.5765 62.6535 25.3321 62.0839C25.7331 61.7816 26.0412 61.369 26.076 60.8517Z" fill="#7FAD23"/>
<path d="M44.5068 54.1616C43.1525 53.7664 41.4437 54.243 40.2173 54.8533C39.4501 55.2369 38.7933 55.8007 38.2935 56.4691C38.2877 56.4749 38.276 56.4807 38.2702 56.4865C37.5379 57.1956 37.0148 58.329 36.8927 59.4391C36.6486 60.4853 36.6428 61.5664 37.0613 62.4847C37.4449 63.3275 38.0842 63.6879 38.7759 63.7227C39.8511 64.0366 40.8567 63.3391 41.7169 62.723C43.3443 61.5606 45.6227 59.7123 46.0238 57.5676C46.0354 57.5385 46.047 57.5095 46.0528 57.4804C46.4539 56.132 45.954 54.5859 44.5068 54.1616Z" fill="#F0DFD1"/>
<path d="M39.4267 54.0398C39.4267 54.0398 39.4267 54.0282 39.4267 54.0224C39.4035 53.9294 39.3221 53.8829 39.2349 53.8771C38.9734 53.8538 38.9501 54.2026 38.9153 54.3769C38.8746 54.5978 38.8397 54.8245 38.8106 55.0512C38.7525 55.5103 38.7351 55.9753 38.7467 56.4403C38.7525 56.696 39.1535 56.696 39.1477 56.4403C39.1361 56.0567 39.1477 55.6789 39.1884 55.2953C39.2059 55.1093 39.2291 54.9291 39.2582 54.7489C39.2698 54.6617 39.2872 54.5745 39.3047 54.4816C39.3105 54.4351 39.3221 54.3944 39.3279 54.3479C39.3337 54.3188 39.3395 54.2898 39.3454 54.2607C39.3454 54.2549 39.3454 54.2549 39.3454 54.2491C39.4093 54.2084 39.4558 54.1328 39.4267 54.0398Z" fill="#BDAFA4"/>
<path d="M40.874 53.4466C40.7577 53.4175 40.6705 53.4873 40.6298 53.5861C40.4264 54.0859 40.2404 54.5974 40.0835 55.1147C40.0486 55.2368 40.008 55.3646 39.9731 55.4867C39.9382 55.6087 39.8859 55.7424 39.8975 55.8703C39.9208 56.1842 40.4032 56.19 40.4032 55.8703C40.4032 55.7947 40.3683 55.7482 40.3218 55.7134C40.3334 55.6785 40.3451 55.6436 40.3567 55.6087C40.3857 55.5099 40.409 55.4169 40.4381 55.3181C40.4904 55.138 40.5485 54.9578 40.6066 54.7834C40.7287 54.4114 40.8682 54.0511 41.0135 53.6907C41.0542 53.5919 40.967 53.4698 40.874 53.4466Z" fill="#BDAFA4"/>
<path d="M42.3559 52.8074C42.2688 52.7551 42.1292 52.7784 42.0827 52.8772C41.9026 53.255 41.7398 53.6328 41.5887 54.0222C41.5132 54.214 41.4376 54.4 41.3737 54.5976C41.3097 54.7894 41.2749 54.9812 41.3272 55.1788C41.3911 55.4288 41.7747 55.3241 41.7108 55.0742C41.6701 54.9115 41.7398 54.7487 41.7921 54.5976C41.8503 54.429 41.9142 54.2605 41.9839 54.0978C42.1176 53.7548 42.2688 53.4177 42.4257 53.0864C42.4722 52.9876 42.4547 52.8714 42.3559 52.8132V52.8074Z" fill="#BDAFA4"/>
<path d="M43.2687 53.0927C42.9083 53.7088 42.6293 54.3714 42.4375 55.0573C42.3678 55.3072 42.7514 55.4118 42.8211 55.1619C43.0013 54.5051 43.2686 53.8774 43.6116 53.2904C43.7394 53.0695 43.3965 52.8661 43.2687 53.0869V53.0927Z" fill="#BDAFA4"/>
<path d="M45.5586 53.1041C45.4773 53.0227 45.361 53.0344 45.2738 53.1041C44.681 53.5865 44.1637 54.1678 43.751 54.8129C43.6929 54.9059 43.7336 55.0338 43.8208 55.0861C43.9196 55.1442 44.0358 55.1035 44.0939 55.0163C44.4892 54.4002 44.9832 53.8539 45.5528 53.3889C45.6342 53.3192 45.6226 53.1797 45.5528 53.1041H45.5586Z" fill="#BDAFA4"/>
<path d="M46.3725 54.9181C45.7447 55.0924 45.1461 55.3656 44.5997 55.7143C44.3847 55.8538 44.5823 56.1968 44.8032 56.0573C45.3205 55.7201 45.8842 55.4644 46.4829 55.2959C46.727 55.2261 46.6224 54.8425 46.3783 54.9122L46.3725 54.9181Z" fill="#BDAFA4"/>
<path d="M47.4303 56.6782C47.4012 56.5678 47.2908 56.5213 47.1862 56.5387C46.4596 56.6666 45.7273 56.7886 45.0008 56.9165C44.8961 56.934 44.8322 57.0676 44.8613 57.1606C44.8903 57.2711 45.0008 57.3176 45.1054 57.3001C45.8319 57.1723 46.5643 57.0502 47.2908 56.9223C47.3954 56.9049 47.4593 56.7712 47.4303 56.6782Z" fill="#BDAFA4"/>
<path d="M46.785 58.1313C46.2561 58.0964 45.733 58.0673 45.2041 58.0325C45.0937 58.0266 45.0065 58.1313 45.0065 58.2301C45.0065 58.3463 45.0995 58.4219 45.2041 58.4277C45.733 58.4626 46.2561 58.4916 46.785 58.5265C46.8954 58.5323 46.9826 58.4277 46.9826 58.3289C46.9826 58.2126 46.8896 58.1371 46.785 58.1313Z" fill="#BDAFA4"/>
<path d="M45.9711 59.8636C45.4422 59.7938 44.9133 59.6892 44.3961 59.5614C44.1461 59.4974 44.0415 59.881 44.2914 59.945C44.8436 60.0845 45.4074 60.1891 45.9711 60.2646C46.0758 60.2763 46.1688 60.1658 46.1688 60.067C46.1688 59.9508 46.0758 59.881 45.9711 59.8694V59.8636Z" fill="#BDAFA4"/>
<path d="M44.8496 61.2526C44.2335 61.1015 43.6232 60.9155 43.0246 60.7005C42.8909 60.654 42.7281 60.8051 42.7804 60.9446C42.7979 60.9853 42.8153 61.0318 42.8327 61.0725C42.8734 61.1713 42.9664 61.241 43.0768 61.212C43.1059 61.2061 43.135 61.1829 43.1582 61.1596C43.6813 61.3398 44.2102 61.5026 44.745 61.6362C44.9949 61.7002 45.0995 61.3108 44.8496 61.2526Z" fill="#BDAFA4"/>
<path d="M38.2468 62.7636C38.2468 62.0254 38.1945 61.2873 38.0783 60.5608C38.026 60.2062 37.9562 59.8459 37.869 59.4971C37.7818 59.1368 37.7005 58.7473 37.3866 58.509C37.0263 58.2359 36.5206 58.2882 36.1951 58.5962C35.8987 58.8752 35.8289 59.2646 35.8057 59.654C35.765 60.3341 35.8464 61.0315 36.0323 61.6825C36.2358 62.3916 36.5438 63.2983 37.3169 63.5424C37.59 63.6296 37.8864 63.4727 38.0143 63.2286C38.1538 63.1181 38.241 62.9496 38.241 62.7636H38.2468Z" fill="#7FAD23"/>
<path d="M14.8991 62.4855C13.8703 60.3698 12.2371 58.4808 9.98773 57.6322C8.15107 56.9406 6.05286 57.1266 5.09966 59.0562C3.94883 61.3928 5.61112 64.1943 7.23274 65.874C9.05778 67.763 11.6442 68.7685 14.2365 68.1001C15.149 67.8618 15.457 66.9783 15.2885 66.2634C15.829 65.194 15.4222 63.5665 14.8933 62.4855H14.8991Z" fill="#F0DFD1"/>
<path d="M6.48301 64.0024C5.84948 63.8629 5.20432 63.7583 4.55916 63.6885C4.30342 63.6595 4.26277 64.0605 4.51851 64.0837C5.16367 64.1535 5.80882 64.2581 6.44236 64.3976C6.54698 64.4209 6.65157 64.3162 6.66319 64.2174C6.67482 64.1012 6.59345 64.0198 6.48301 63.9966V64.0024Z" fill="#BDAFA4"/>
<path d="M7.04095 64.9906C6.48879 65.1708 5.90174 65.2463 5.32052 65.2231C5.06478 65.2115 5.02412 65.6067 5.27986 65.6183C5.93664 65.6474 6.5818 65.5602 7.20371 65.351C7.30833 65.3161 7.34319 65.1766 7.30251 65.0894C7.25601 64.9848 7.13976 64.9557 7.04095 64.9906Z" fill="#BDAFA4"/>
<path d="M5.74478 61.5963C4.93688 61.3871 4.14641 61.079 3.41988 60.6722C3.32689 60.6199 3.21062 60.6257 3.14087 60.7187C3.08275 60.8001 3.09438 60.9454 3.18738 60.9977C3.94878 61.422 4.7567 61.7533 5.60529 61.9741C5.70991 62.0032 5.82034 61.9683 5.86103 61.8579C5.8959 61.7649 5.8494 61.6254 5.74478 61.6021V61.5963Z" fill="#BDAFA4"/>
<path d="M5.80321 60.2599L3.99561 58.9463C3.78637 58.7952 3.55387 59.1207 3.76311 59.2718C4.36758 59.7077 4.97208 60.1494 5.57074 60.5854C5.77998 60.7365 6.01245 60.411 5.80321 60.2599Z" fill="#BDAFA4"/>
<path d="M6.48884 59.12C6.4191 59.0329 6.29705 59.0329 6.20987 59.0968C6.11687 59.1665 5.98898 59.0212 5.93667 58.9573C5.82624 58.8236 5.72163 58.6783 5.61701 58.5388C5.38452 58.2366 5.15784 57.9344 4.92535 57.6263C4.76842 57.4229 4.4662 57.6786 4.61732 57.882C4.89631 58.2482 5.1753 58.6144 5.45428 58.9806C5.57053 59.1375 5.68678 59.3119 5.86115 59.4107C6.05295 59.5269 6.28543 59.5269 6.46561 59.3932C6.55279 59.3293 6.55859 59.1898 6.48884 59.1142V59.12Z" fill="#BDAFA4"/>
<path d="M7.41887 58.65C7.27938 58.6326 7.18055 58.5047 7.11081 58.3885C7.00037 58.2141 6.91901 58.0223 6.82601 57.8363C6.61677 57.4062 6.41914 56.9703 6.23315 56.5285C6.13434 56.2902 5.76817 56.4588 5.86698 56.6913C6.07622 57.1969 6.30293 57.691 6.55285 58.1792C6.73303 58.5338 6.93064 58.9813 7.37818 59.0394C7.63392 59.0743 7.67461 58.6733 7.41887 58.6442V58.65Z" fill="#BDAFA4"/>
<path d="M7.34928 56.0287C7.68639 56.825 8.0235 57.6212 8.36642 58.4175C8.46523 58.6558 8.8314 58.4873 8.73259 58.2548C8.39548 57.4585 8.05837 56.6622 7.71545 55.8659C7.61664 55.6276 7.25047 55.7962 7.34928 56.0287Z" fill="#BDAFA4"/>
<path d="M8.88932 55.8367C9.19737 56.5633 9.44149 57.3072 9.62167 58.0745C9.67979 58.3244 10.075 58.2604 10.0169 58.0105C9.8309 57.2084 9.57516 56.4296 9.25549 55.6682C9.15668 55.4299 8.79051 55.5984 8.88932 55.8309V55.8367Z" fill="#BDAFA4"/>
<path d="M10.7959 56.5519C10.6971 56.5635 10.5983 56.674 10.6274 56.7786C10.9122 57.755 11.0923 58.7548 11.1563 59.7719C11.1737 60.0276 11.5689 59.9637 11.5515 59.708C11.4876 58.6966 11.3132 57.6911 11.0226 56.7147C10.9935 56.61 10.9122 56.5345 10.7959 56.5461V56.5519Z" fill="#BDAFA4"/>
<path d="M14.6899 61.3119C14.2307 61.3468 13.9982 61.7827 13.8878 62.2186C13.696 62.9684 13.6553 63.7647 13.7367 64.5668C13.818 65.3979 14.0679 66.2349 14.4399 67.0021C14.2772 66.9266 14.1028 66.8742 13.9401 66.8161C13.4635 66.6592 12.9869 66.5313 12.5045 66.4325C11.5745 66.2465 10.5399 66.1128 9.63905 66.3105C9.16244 66.4151 8.69744 66.6185 8.37776 67.0079C8.02322 67.4438 8.08136 68.1064 8.5754 68.4959C8.71489 68.6063 8.87764 68.6877 9.052 68.7516C9.9064 69.5595 11.2723 69.7164 12.2546 69.6525C12.923 69.606 13.5855 69.42 14.1668 69.1061C14.6782 68.833 15.4513 68.2808 15.12 67.5078C15.1374 67.5078 15.1548 67.4962 15.1723 67.4903C15.3815 67.5078 15.5733 67.409 15.6315 67.1532C15.8058 66.357 15.9279 65.5432 15.9511 64.7063C15.9628 64.2878 15.9511 63.8693 15.9163 63.4508C15.8872 63.0556 15.8523 62.6313 15.7419 62.2419C15.5966 61.7304 15.2014 61.2596 14.6899 61.3003V61.3119Z" fill="#7FAD23"/>
<path d="M64.0998 37.423C63.5709 34.6506 60.8275 33.738 58.6712 35.6386C56.7241 37.3532 56.2765 40.6023 57.3692 42.9388C57.4274 43.0841 57.4855 43.2294 57.5552 43.3805C58.026 44.357 58.8107 45.3044 59.9847 44.7115C60.0196 44.6941 60.1591 44.5895 60.2637 44.4965C60.5892 44.4965 60.9496 44.4209 61.3506 44.2524C63.7569 43.2527 64.5415 39.7188 64.0998 37.423Z" fill="#F0DFD1"/>
<path d="M57.8632 38.423C57.5203 37.8243 57.2645 37.185 57.096 36.5166C57.0437 36.319 56.7356 36.4003 56.7879 36.6038C56.9623 37.2954 57.2297 37.9638 57.5842 38.5857C57.6888 38.7659 57.962 38.6032 57.8632 38.423Z" fill="#BDAFA4"/>
<path d="M58.4445 37.2665C58.2004 36.5923 57.9969 35.9007 57.8342 35.2032C57.7877 34.9998 57.4796 35.0869 57.5261 35.2904C57.6831 35.9878 57.8865 36.6795 58.1364 37.3537C58.2062 37.5455 58.5142 37.4641 58.4445 37.2665Z" fill="#BDAFA4"/>
<path d="M59.3163 36.3654C59.078 35.7435 58.9327 35.0925 58.8804 34.4299C58.863 34.2265 58.5433 34.2265 58.5607 34.4299C58.6131 35.1216 58.7584 35.8016 59.0083 36.4526C59.0374 36.5339 59.1187 36.5863 59.2059 36.563C59.2815 36.5398 59.3512 36.4468 59.3163 36.3654Z" fill="#BDAFA4"/>
<path d="M60.0719 35.7844C59.9092 35.116 59.8452 34.4244 59.8859 33.7385C59.8975 33.5351 59.5779 33.5351 59.5662 33.7385C59.5256 34.4534 59.5953 35.1741 59.7639 35.8716C59.8104 36.0692 60.1242 35.9878 60.0719 35.7844Z" fill="#BDAFA4"/>
<path d="M61.3506 33.2438C61.3506 33.0346 61.031 33.0346 61.031 33.2438C61.0194 33.982 61.06 34.7202 61.1588 35.4525C61.1705 35.5397 61.2228 35.6094 61.3216 35.6152C61.3972 35.6152 61.4959 35.5397 61.4843 35.4525C61.3855 34.7202 61.3448 33.982 61.3565 33.2438H61.3506Z" fill="#BDAFA4"/>
<path d="M62.9375 33.8951C62.8677 33.8545 62.7573 33.8719 62.7166 33.9533L61.868 35.7783C61.8332 35.8539 61.8448 35.9527 61.9261 35.9992C61.9959 36.0399 62.1063 36.0224 62.147 35.9411C62.4318 35.3308 62.7166 34.7205 62.9956 34.116C63.0305 34.0404 63.0188 33.9416 62.9375 33.8951Z" fill="#BDAFA4"/>
<path d="M63.995 35.0805C63.9311 35.0165 63.8323 35.0223 63.7683 35.0805C63.408 35.3827 63.0999 35.7489 62.8616 36.1557C62.8151 36.2313 62.8442 36.3301 62.9198 36.3766C62.9953 36.4231 63.0941 36.394 63.1406 36.3185C63.3731 35.9349 63.6521 35.6036 64.0008 35.3071C64.0648 35.249 64.059 35.1386 64.0008 35.0805H63.995Z" fill="#BDAFA4"/>
<path d="M64.623 35.9994C64.5591 35.9355 64.4603 35.9413 64.3963 35.9994C63.9837 36.3598 63.6291 36.7899 63.356 37.2665C63.2513 37.4467 63.5303 37.6094 63.6349 37.4292C63.8965 36.9759 64.2336 36.5748 64.6288 36.2261C64.6928 36.168 64.687 36.0575 64.6288 35.9994H64.623Z" fill="#BDAFA4"/>
<path d="M64.5416 38.2599C64.4544 38.2134 64.3788 38.2483 64.3207 38.3181C64.3149 38.3297 64.3091 38.3355 64.2975 38.3471C64.2858 38.3646 64.2684 38.382 64.251 38.3994C64.2219 38.4343 64.1929 38.4634 64.1638 38.4982C64.1057 38.5622 64.0417 38.6261 63.972 38.69C63.9371 38.7191 63.9081 38.7482 63.8732 38.7772C63.8558 38.7947 63.8383 38.8063 63.8209 38.8237C63.8092 38.8295 63.8034 38.8354 63.7918 38.847C63.7221 38.9051 63.6465 38.9574 63.5651 39.0039C63.4954 39.0504 63.4605 39.1492 63.507 39.2248C63.5535 39.2945 63.6523 39.3294 63.7279 39.2829C64.065 39.0678 64.3556 38.8005 64.5939 38.4808C64.6462 38.4111 64.6055 38.3006 64.5358 38.2599H64.5416Z" fill="#BDAFA4"/>
<path d="M64.7217 39.9456C64.6752 39.8701 64.5822 39.8468 64.5008 39.8875C64.2218 40.0386 63.9428 40.1839 63.658 40.335C63.5825 40.3757 63.5534 40.4861 63.5999 40.5559C63.6464 40.6315 63.7394 40.6547 63.8208 40.614C64.0998 40.4629 64.3788 40.3176 64.6636 40.1665C64.7391 40.1258 64.7682 40.0154 64.7217 39.9456Z" fill="#BDAFA4"/>
<path d="M63.1874 42.358C62.5306 41.6025 61.8041 42.2651 61.1066 42.6661C60.5777 42.9683 60.1999 43.5147 59.793 43.9738C59.5489 43.4624 59.206 43.009 58.7759 42.6254C58.3167 42.2127 56.8578 41.5676 56.8346 41.556C56.637 41.4513 55.1258 41.6025 56.6893 43.9041C57.2356 44.712 58.0842 45.2932 58.6248 45.5606C59.1653 45.8279 59.3804 46.0256 59.5431 45.9849C60.3685 45.7873 60.8276 45.3107 61.589 44.9096C62.0133 44.6888 63.1816 43.7472 63.3269 43.5554C63.6001 43.195 63.4605 42.6777 63.1874 42.3639V42.358Z" fill="#7FAD23"/>
<path d="M52.7076 34.2143C51.3417 33.4181 49.6853 34.2027 48.5693 35.0862C47.2325 36.144 46.0236 37.8586 45.9306 39.6081C45.9247 39.7534 45.9247 39.8929 45.9306 40.0382C45.547 42.0085 46.3258 44.4032 48.2031 44.9844C48.4996 45.2285 48.8367 45.2401 49.1331 45.1123C49.1854 45.1123 49.2377 45.1123 49.29 45.1123C51.2662 45.0018 52.5216 43.0373 53.1959 40.8984C53.7073 39.9626 54.056 39.0443 54.1432 38.4514C54.3641 36.9926 54.1142 35.0339 52.7076 34.2143Z" fill="#F0DFD1"/>
<path d="M47.3663 37.1151C47.1338 36.5048 47.0117 35.8655 47.0234 35.2145C47.0234 34.9995 46.6979 34.9995 46.6921 35.2145C46.6863 35.8945 46.8025 36.5688 47.0466 37.2023C47.0815 37.2837 47.1571 37.3418 47.2501 37.3185C47.3314 37.2953 47.3954 37.1965 47.3663 37.1151Z" fill="#BDAFA4"/>
<path d="M48.3659 36.1558C48.3659 36.1558 48.3659 36.1267 48.3659 36.1093C48.3543 36.0628 48.3543 36.0163 48.3485 35.9756C48.3369 35.8826 48.3252 35.7838 48.3136 35.6908C48.2904 35.4932 48.2613 35.2956 48.2381 35.098L48.0811 33.9123C48.0695 33.8251 48.0114 33.7495 47.9184 33.7495C47.837 33.7495 47.744 33.8251 47.7556 33.9123L47.9416 35.3363C47.9707 35.5746 48.0056 35.8129 48.0346 36.0512C48.0579 36.2371 48.0986 36.3999 48.2846 36.4813C48.3659 36.5161 48.4647 36.4464 48.488 36.365C48.517 36.272 48.4531 36.1965 48.3717 36.1616L48.3659 36.1558Z" fill="#BDAFA4"/>
<path d="M49.3426 33.1457C49.36 32.9365 49.0287 32.9365 49.0113 33.1457C48.9532 33.9594 48.9473 34.7731 48.988 35.5868C48.9996 35.7961 49.3309 35.8019 49.3193 35.5868C49.2786 34.7731 49.2845 33.9594 49.3426 33.1457Z" fill="#BDAFA4"/>
<path d="M50.3481 32.779C50.2668 32.7557 50.1622 32.808 50.1447 32.8952C50.0343 33.5636 49.9413 34.2378 49.8774 34.9179C49.8715 35.005 49.9587 35.0806 50.0401 35.0806C50.1389 35.0806 50.197 35.005 50.2028 34.9179C50.2668 34.2727 50.354 33.6275 50.4586 32.9824C50.476 32.8952 50.4353 32.8022 50.3423 32.779H50.3481Z" fill="#BDAFA4"/>
<path d="M51.4525 32.4708C51.284 33.1451 51.1212 33.8193 50.9527 34.4935C50.9004 34.6969 51.22 34.7899 51.2723 34.5807C51.4409 33.9065 51.6037 33.2322 51.7722 32.558C51.8245 32.3546 51.5049 32.2616 51.4525 32.4708Z" fill="#BDAFA4"/>
<path d="M52.8996 33.1506C52.8415 33.0925 52.7252 33.0808 52.6671 33.1506C52.2544 33.6446 51.8708 34.1677 51.5221 34.7141C51.4059 34.8943 51.6906 35.057 51.8069 34.8826C52.144 34.3653 52.5044 33.8655 52.9054 33.3889C52.9635 33.3191 52.9752 33.2203 52.9054 33.1564L52.8996 33.1506Z" fill="#BDAFA4"/>
<path d="M53.8412 33.7959C53.2135 34.1272 52.6613 34.5864 52.2196 35.1385C52.1614 35.2083 52.1498 35.3013 52.2196 35.371C52.2777 35.4292 52.3998 35.4408 52.4521 35.371C52.8764 34.8363 53.4053 34.4004 54.0097 34.0807C54.1957 33.9819 54.033 33.6971 53.8412 33.7959Z" fill="#BDAFA4"/>
<path d="M54.8003 34.982C54.0679 35.2262 53.3763 35.5807 52.7544 36.0457C52.6846 36.098 52.6439 36.191 52.6962 36.2724C52.7369 36.3421 52.8474 36.3828 52.9229 36.3305C53.5216 35.8829 54.1842 35.5342 54.8875 35.3017C55.0909 35.2378 55.0037 34.9181 54.8003 34.982Z" fill="#BDAFA4"/>
<path d="M54.597 36.7724C54.1029 36.8944 53.6147 37.0223 53.1207 37.1443C52.9172 37.1967 53.0044 37.5163 53.2078 37.464L54.6842 37.092C54.8876 37.0397 54.8004 36.7201 54.597 36.7724Z" fill="#BDAFA4"/>
<path d="M54.4747 38.5332C54.0388 38.5855 53.6087 38.632 53.1727 38.6843C53.0856 38.696 53.01 38.7541 53.01 38.8471C53.01 38.9284 53.0856 39.0214 53.1727 39.0098C53.6087 38.9575 54.0388 38.911 54.4747 38.8587C54.5619 38.8471 54.6374 38.789 54.6374 38.696C54.6374 38.6146 54.5619 38.5216 54.4747 38.5332Z" fill="#BDAFA4"/>
<path d="M54.2654 40.0793C53.7772 40.2188 53.2831 40.335 52.7833 40.4338C52.6961 40.4513 52.6438 40.5559 52.667 40.6373C52.6903 40.7303 52.7833 40.771 52.8704 40.7535C53.3703 40.6547 53.8644 40.5385 54.3526 40.399C54.556 40.3408 54.4688 40.0212 54.2654 40.0793Z" fill="#BDAFA4"/>
<path d="M46.4189 38.0737C46.2446 37.5738 46.0411 37.0798 45.8145 36.6032C45.7738 36.5218 45.6633 36.5044 45.5878 36.545C45.5064 36.5915 45.489 36.6904 45.5297 36.7717C45.7447 37.2251 45.9365 37.6901 46.0993 38.1667C46.1283 38.248 46.2097 38.3062 46.3027 38.2829C46.384 38.2597 46.448 38.1667 46.4189 38.0795V38.0737Z" fill="#BDAFA4"/>
<path d="M51.9582 42.5842C51.4118 42.683 50.9003 43.1829 50.4644 43.5084C50.0053 43.8513 49.5577 44.2058 49.1509 44.6011C48.8254 43.706 48.4069 42.8283 47.8199 42.0786C47.5118 41.6833 47.134 41.3578 46.6516 41.1951C46.2215 41.0498 45.5938 41.0266 45.309 41.4508C45.0242 41.8751 45.2566 42.4854 45.4775 42.8865C45.7042 43.3049 46.0413 43.6537 46.39 43.9734C46.7504 44.2988 47.1282 44.6011 47.4421 44.9731C47.7443 45.3334 48.0233 45.7112 48.465 45.903C48.5871 45.9553 48.7208 45.9553 48.837 45.9263C48.9126 45.9379 48.9823 45.9321 49.0521 45.9205C49.4705 45.9728 49.9588 45.7868 50.3191 45.6531C50.8538 45.4497 51.3537 45.1823 51.807 44.8336C52.2023 44.5313 52.6963 44.1477 52.8474 43.6537C53.0334 43.0608 52.5917 42.4796 51.9524 42.59L51.9582 42.5842Z" fill="#7FAD23"/>
<path d="M65.8667 54.5576C65.8144 54.3426 65.7156 54.1275 65.5296 53.9241C62.9083 51.0412 57.8109 52.1455 54.8699 54.0171C53.8528 54.668 52.6729 55.7898 52.7601 57.0452C52.5102 58.8005 55.6081 60.2071 57.1193 60.5035C59.8743 61.0499 63.6639 60.5152 65.6168 58.2833C66.7792 56.9522 66.6688 55.5689 65.8667 54.5518V54.5576Z" fill="#F0DFD1"/>
<path d="M63.0944 50.3787C61.9319 51.0587 60.7521 51.9073 60.1825 53.1802C60.0778 53.4127 60.4208 53.6161 60.5254 53.3836C61.0659 52.1747 62.1819 51.3784 63.292 50.7274C63.5129 50.5996 63.3153 50.2508 63.0886 50.3845L63.0944 50.3787Z" fill="#BDAFA4"/>
<path d="M62.5306 61.3985C62.4376 61.3694 62.4143 61.3636 62.3329 61.3171C62.2981 61.2997 62.269 61.2822 62.24 61.259C62.2225 61.2474 62.2051 61.2357 62.1876 61.2241C62.1818 61.2241 62.1527 61.195 62.1702 61.2125C62.1063 61.166 62.0481 61.1079 61.99 61.0497C61.9668 61.0207 61.9377 60.9974 61.9145 60.9684C61.9029 60.9509 61.8854 60.9393 61.8738 60.9219C61.868 60.9161 61.8622 60.9044 61.8563 60.8986C61.8622 60.9102 61.8622 60.9102 61.8563 60.8986C61.6587 60.6371 61.5076 60.3406 61.3681 60.05C61.3216 59.9512 61.1821 59.928 61.0949 59.9803C60.9961 60.0384 60.9787 60.1547 61.0252 60.2535C61.3274 60.8812 61.7052 61.5728 62.4201 61.7879C62.5248 61.8169 62.6352 61.753 62.6642 61.6484C62.6933 61.5438 62.6294 61.4333 62.5248 61.4043L62.5306 61.3985Z" fill="#BDAFA4"/>
<path d="M64.7276 51.6573C64.6694 51.5585 64.5532 51.5411 64.4544 51.5876C63.5128 52.0235 62.6351 52.564 61.8156 53.1976C61.7284 53.2615 61.7459 53.4068 61.8156 53.4824C61.897 53.5695 62.0132 53.5463 62.1004 53.4824C62.8909 52.8721 63.7511 52.3548 64.6578 51.9363C64.7566 51.8898 64.7799 51.7503 64.7276 51.6631V51.6573Z" fill="#BDAFA4"/>
<path d="M66.5409 53.4532C65.5935 53.5345 64.6519 53.6973 63.7336 53.9472C63.4837 54.0169 63.5941 54.4005 63.8383 54.3308C64.7217 54.0925 65.6226 53.9298 66.5409 53.8484C66.7967 53.8251 66.7967 53.4299 66.5409 53.4473V53.4532Z" fill="#BDAFA4"/>
<path d="M68.0404 55.2782C67.064 54.633 65.9248 55.2433 64.867 55.0457C64.617 54.9992 64.5066 55.3828 64.7623 55.4293C65.3203 55.5339 65.8667 55.4351 66.4304 55.3828C66.9129 55.3363 67.4243 55.3421 67.8428 55.6211C68.0579 55.7606 68.2555 55.4177 68.0463 55.2782H68.0404Z" fill="#BDAFA4"/>
<path d="M67.1221 57.2543C66.7676 57.0509 66.3549 56.9695 65.9655 56.8591L64.6984 56.5045C64.4485 56.4348 64.3439 56.8184 64.5938 56.8881C65.0007 57.0044 65.4075 57.1148 65.8202 57.2311C66.1922 57.3357 66.5874 57.4112 66.9245 57.5972C67.1454 57.7251 67.3488 57.3822 67.1279 57.2543H67.1221Z" fill="#BDAFA4"/>
<path d="M65.8726 58.6955C65.6343 58.4456 65.3204 58.3003 65.0123 58.1608C64.8612 58.091 64.7101 58.0271 64.5706 57.9399C64.4485 57.8643 64.3323 57.7714 64.2509 57.6667C64.187 57.5795 64.0766 57.5389 63.9778 57.597C63.8906 57.6493 63.8441 57.783 63.908 57.8702C64.1231 58.1608 64.4253 58.3351 64.7508 58.4804C64.9019 58.5502 65.053 58.6141 65.2042 58.6955C65.3611 58.7769 65.4715 58.8524 65.5936 58.9803C65.7679 59.1663 66.0527 58.8873 65.8784 58.6955H65.8726Z" fill="#BDAFA4"/>
<path d="M64.9134 59.9281C64.3845 59.6316 63.9427 59.2132 63.6289 58.7017C63.5708 58.6087 63.4487 58.5738 63.3557 58.6319C63.2627 58.6842 63.2279 58.8121 63.286 58.9051C63.6347 59.4747 64.1288 59.9513 64.71 60.2768C64.803 60.3291 64.925 60.3 64.9831 60.2071C65.0355 60.1141 65.0064 59.9862 64.9134 59.9339V59.9281Z" fill="#BDAFA4"/>
<path d="M63.943 60.7532C63.385 60.4568 62.8851 60.0732 62.4609 59.6082C62.3853 59.5268 62.2516 59.5326 62.1761 59.6082C62.0947 59.6896 62.1005 59.8116 62.1761 59.893C62.6236 60.3812 63.1525 60.7939 63.7396 61.1019C63.8325 61.1542 63.9546 61.1252 64.0127 61.0322C64.0651 60.9392 64.036 60.8113 63.943 60.759V60.7532Z" fill="#BDAFA4"/>
<path d="M57.8574 59.4049C57.2588 58.6087 56.4858 57.9461 55.5907 57.5102C55.1025 57.2719 54.5852 57.0859 54.0504 56.9871C53.754 56.9289 53.3994 56.8476 53.0972 56.9231C52.8822 56.9754 52.7194 57.1207 52.6206 57.3009C52.3823 57.6438 52.3939 58.1611 52.4753 58.5389C52.6613 59.4166 53.3995 59.9978 54.0969 60.4802C54.1202 60.4918 54.1376 60.5093 54.1609 60.5209C54.2306 60.5848 54.3004 60.6488 54.3759 60.7011C55.2071 61.352 56.2358 61.7298 57.2937 61.7356C57.5727 61.7356 57.9039 61.7356 58.1481 61.5903C58.427 61.416 58.5665 61.0963 58.5375 60.7766C58.4968 60.2826 58.1481 59.7944 57.8574 59.4108V59.4049Z" fill="#7FAD23"/>
<path d="M70.6851 12.959C70.0864 12.866 69.4994 12.9416 68.953 13.2089C68.552 13.4007 68.1568 13.7669 68.2846 14.2609C68.2846 14.2842 68.3021 14.3016 68.3079 14.3191C68.2846 14.4179 68.273 14.5225 68.3079 14.6155C68.3079 14.6213 68.3137 14.6271 68.3195 14.6329C66.9478 15.9756 65.6924 17.4344 64.5764 18.9979C64.495 18.6027 64.373 18.2133 64.1928 17.8355C64.0359 17.4984 63.4953 17.446 63.2512 17.7134C62.3736 18.6957 62.3096 20.2301 63.0827 21.2821C62.5654 22.1598 62.083 23.0607 61.6529 23.9848C60.688 26.0482 60.1126 28.2278 59.2931 30.3492C58.8862 31.407 58.3399 32.3951 57.6192 33.2728C56.9275 34.1155 56.1371 34.877 55.3698 35.65C53.7657 37.2658 52.33 39.0269 51.1327 40.9682C50.255 42.3922 49.5576 43.8859 48.9415 45.4262C48.9415 45.4145 48.9357 45.4087 48.9299 45.3971C48.7962 45.182 48.6102 44.9902 48.3951 44.8682C48.2847 44.8043 48.1626 44.7519 48.0406 44.7287C47.9185 44.7054 47.8081 44.6996 47.7035 44.7054C47.6047 44.6299 47.5117 44.5718 47.3838 44.5543C47.256 44.5369 47.1164 44.5543 47.0002 44.6241C46.7793 44.7636 46.6457 45.0367 46.727 45.2983C46.8433 45.6877 47.0002 46.0713 47.1862 46.4375C47.378 46.8095 47.5989 47.2396 47.9418 47.4895C47.9999 47.5302 48.058 47.5593 48.1278 47.5883C47.9069 48.1812 47.657 48.7624 47.3722 49.3204C46.6224 50.3317 45.8261 51.3023 45.024 52.2614C44.809 52.5171 44.5939 52.7728 44.3789 53.0286C42.9374 54.47 41.5425 55.9347 40.2929 57.5563C38.09 60.4159 36.2999 63.5778 34.9689 66.9256C28.8718 72.7902 21.0427 76.5216 15.1608 82.6419C15.1782 82.4792 15.1956 82.3223 15.2072 82.1595C15.5618 80.2124 15.7885 78.2421 15.8698 76.2659C16.3697 72.9994 16.6894 69.6923 17.1602 66.42C17.3752 65.9957 17.5961 65.5714 17.8111 65.1529C18.032 64.717 18.247 64.2752 18.4505 63.8277C18.4795 63.8277 18.5086 63.8161 18.5377 63.8045C18.8341 63.6882 19.1189 63.5429 19.3804 63.3685C19.456 63.3395 19.5315 63.3104 19.6071 63.2814C20.0081 63.107 20.3743 62.8512 20.6708 62.5374C20.8219 62.3805 20.88 62.1654 20.8219 61.9562C20.7928 61.8457 20.7347 61.7586 20.6591 61.6888C20.6533 61.6423 20.6359 61.6016 20.6184 61.5551C20.5545 61.404 20.4092 61.2354 20.229 61.2064C20.0023 61.1715 19.7815 61.1657 19.5548 61.1831C19.6827 60.846 19.8105 60.5147 19.9268 60.1718C21.1125 56.7775 21.8216 53.2146 22.0541 49.6226C22.1645 47.908 22.1529 46.1934 22.0366 44.4788C22.24 43.944 22.49 43.4151 22.7748 42.892C24.2104 40.2533 25.7448 37.6087 26.9422 34.8421C26.977 34.8246 27.0119 34.8072 27.0468 34.7898C27.7965 34.5805 28.4882 34.2085 29.0811 33.7029C29.4356 33.4006 29.2206 32.8194 28.8195 32.7032C28.6742 32.6625 28.5289 32.6392 28.3778 32.6276C28.3487 32.6276 28.3255 32.616 28.2964 32.6102C28.1511 32.5927 28.0058 32.5986 27.8663 32.6276C27.8489 32.6276 27.8314 32.6276 27.814 32.6276C28.5638 30.4713 29.0462 28.2336 29.0636 25.868C29.0636 25.8447 29.0636 25.8273 29.0636 25.804C29.2438 25.5716 29.2438 25.2344 29.2031 24.9438C29.1741 24.7346 29.1101 24.5428 29.0229 24.3568C28.9474 24.0255 28.7672 23.7407 28.4708 23.5547C28.3429 23.4733 28.2092 23.4268 28.0697 23.4094C27.9535 23.3629 27.8372 23.328 27.7152 23.3222C27.32 23.3222 26.9887 23.578 26.8782 23.9558C26.8027 24.2057 26.8259 24.473 26.8957 24.723C26.9887 25.0485 27.1688 25.3565 27.4188 25.5948C27.4827 25.682 27.5408 25.7692 27.5931 25.8622C27.6047 25.9029 27.6222 25.9494 27.628 25.9959C27.628 25.9726 27.6222 25.9435 27.6164 25.9203C27.6338 26.0598 27.6745 26.1818 27.7849 26.2865C27.8082 26.3097 27.8314 26.3271 27.8605 26.3446C27.7733 28.7857 27.1688 31.1222 26.2912 33.3716C26.2505 33.4181 26.204 33.4588 26.1633 33.5053C26.0296 33.6738 25.9541 33.8598 26.0064 34.0749C25.0009 36.4811 23.7106 38.7944 22.4435 41.0437C22.0831 41.6831 21.7169 42.3166 21.3856 42.9734C21.3275 42.9734 21.2752 42.9734 21.2171 42.9792C21.1997 42.9618 21.1822 42.9385 21.1648 42.9211C20.9904 42.5898 20.7521 42.2817 20.3918 42.1771C20.0605 42.0841 19.7175 42.2062 19.5083 42.4735C19.363 42.6595 19.2991 42.9153 19.3223 43.1478C19.3572 43.4558 19.4734 43.7406 19.642 43.9905C19.6768 44.1707 19.735 44.3451 19.8106 44.5136C19.9559 44.8275 20.2 45.1123 20.4964 45.3157C20.229 46.4782 20.2 47.6813 20.136 48.8612C19.9791 51.7383 19.4909 54.5862 18.6772 57.3471C17.1253 62.6071 14.1494 67.408 13.5275 72.9355C13.1962 75.8707 13.3589 78.8291 12.8416 81.7468C12.522 83.5544 12.0744 85.333 11.5862 87.1057C11.3828 87.4254 10.8771 89.6457 10.7609 90.0641C9.99949 92.8017 9.17997 95.5451 8.1512 98.2013C6.94226 100.207 5.81467 102.258 4.76265 104.345C4.65803 104.386 4.5592 104.449 4.48364 104.566C4.01285 105.252 3.53628 105.932 3.06549 106.617C2.72838 107.106 2.29825 107.617 2.12969 108.204C1.60078 109.181 1.2288 110.244 1.0835 111.331C0.926566 112.494 1.51943 113.232 2.33896 113.964C3.28636 114.813 4.23954 115.661 5.18694 116.504C5.44268 116.737 5.95996 116.754 6.12852 116.382C8.18605 111.779 9.99948 107.065 11.5513 102.264C12.3069 99.9217 13.0044 97.5561 13.6321 95.1731C14.0739 93.4934 14.4691 91.7962 14.9922 90.1339C15.3874 89.3376 15.8059 88.5472 16.2534 87.7799C17.6019 85.4725 19.3398 83.5661 21.3624 81.8398C23.4839 80.0322 25.6867 78.3118 27.8721 76.5798C29.6216 75.1906 31.3769 73.8073 33.1322 72.4298C34.0273 71.9881 34.934 71.558 35.8465 71.1569C36.358 70.9361 36.8695 70.7152 37.3868 70.5118C37.6425 70.4072 37.904 70.3084 38.1598 70.2037C38.5259 70.0584 38.648 69.948 38.7817 69.5702C39.1479 68.5414 39.6129 67.565 40.1825 66.635C43.1176 63.0779 46.727 60.1021 50.7782 57.8934C51.2954 58.3061 52.0103 58.4456 52.6555 58.3293C52.8531 58.2945 53.0391 58.2189 53.2193 58.1259C53.3588 58.0562 53.4809 57.9632 53.5564 57.8237C53.6378 57.6784 53.6726 57.4982 53.6726 57.3296C53.6726 56.8472 53.3413 56.3706 52.9112 56.1614C52.7601 56.0916 52.609 56.0451 52.4521 56.0219C52.6962 55.7138 52.9345 55.3883 53.1728 55.0745C53.9691 54.0399 54.7596 52.9995 55.5558 51.9649C58.2876 48.4137 61.2344 44.781 65.1809 42.5782C65.2855 42.6072 65.3901 42.6363 65.5006 42.6537C65.6343 42.7351 65.7912 42.7525 65.9423 42.7177C66.0934 42.7351 66.2503 42.7409 66.4015 42.7409C66.9071 42.7409 67.5407 42.6944 67.8255 42.2062C67.994 41.9214 67.965 41.5785 67.8255 41.2878C67.7034 41.0263 67.4767 40.8636 67.2152 40.7589C66.9536 40.6601 66.6746 40.6776 66.4015 40.7241C66.4015 40.7241 66.3956 40.7241 66.3898 40.7241C66.2968 40.7241 66.2038 40.7357 66.105 40.7764C66.076 40.788 66.0527 40.8054 66.0237 40.8171C65.9365 40.8461 65.8435 40.881 65.7563 40.9217C65.6982 40.9507 65.6459 40.9856 65.5936 41.0205C63.2338 42.1364 61.2111 43.7464 59.3919 45.5889C59.3745 45.0891 59.1943 44.5834 58.9211 44.1823C58.7816 43.9789 58.5782 43.8627 58.3224 43.8975C58.1074 43.9266 57.8633 44.0952 57.8226 44.3277C57.6598 45.3099 57.5901 46.3038 57.625 47.2977C57.625 47.3558 57.6366 47.4081 57.654 47.4604C56.6253 48.6461 55.6488 49.8783 54.7072 51.1047C53.7657 52.3253 52.8299 53.5517 51.8941 54.7722C51.5221 55.2605 51.156 55.8475 50.6154 56.1614C50.011 56.5159 49.2321 56.5857 48.5811 56.8588C46.14 57.8702 44.2045 59.9509 42.426 61.8399C41.4204 62.9036 40.473 64.0253 39.6593 65.2285C39.5315 65.182 39.3978 65.1761 39.2699 65.2168C39.5431 64.1823 39.8046 63.1477 40.1592 62.1363C40.7462 60.4682 41.5483 58.8873 42.5248 57.411C43.6349 55.7429 44.9775 54.2491 46.5004 52.9472C46.727 52.7554 46.7386 52.5113 46.634 52.3079C47.2734 51.5755 47.8604 50.8083 48.337 49.9481C48.6916 49.4715 49.0345 48.9949 49.3658 48.5008C49.9586 47.6174 50.505 46.699 50.9758 45.7458C51.1676 45.7807 51.3768 45.7284 51.5512 45.5192C51.7779 45.246 51.7197 44.9205 51.5396 44.7054C51.5628 44.6357 51.5861 44.566 51.6151 44.4904C51.6674 44.3509 51.7197 44.2056 51.7837 44.0661C51.8825 43.8336 51.9929 43.6069 52.1091 43.3861C52.3649 42.892 52.6613 42.4212 52.9752 41.9621C53.6204 41.0321 54.3701 40.1777 55.1257 39.3349C56.6136 37.6901 58.1306 36.0859 59.3163 34.2027C61.6703 30.4713 62.9083 26.1877 64.7856 22.2237C65.826 20.0209 67.0815 17.9168 68.7961 16.1732C68.9705 15.9988 68.9995 15.7954 68.9414 15.6094C69.1448 15.406 69.354 15.2025 69.5633 15.0049C69.9295 15.0049 70.2956 15.0049 70.656 15.0107C71.243 15.0107 71.9812 14.755 71.9812 14.0517C71.9812 13.3542 71.2605 12.9997 70.656 12.9009L70.6851 12.959Z" fill="#916B49"/>
<mask id="mask0_73_16501" style="mask-type:luminance" maskUnits="userSpaceOnUse" x="1" y="12" width="71" height="105">
<path d="M70.6851 12.959C70.0864 12.866 69.4994 12.9416 68.953 13.2089C68.552 13.4007 68.1568 13.7669 68.2846 14.2609C68.2846 14.2842 68.3021 14.3016 68.3079 14.3191C68.2846 14.4179 68.273 14.5225 68.3079 14.6155C68.3079 14.6213 68.3137 14.6271 68.3195 14.6329C66.9478 15.9756 65.6924 17.4344 64.5764 18.9979C64.495 18.6027 64.373 18.2133 64.1928 17.8355C64.0359 17.4984 63.4953 17.446 63.2512 17.7134C62.3736 18.6957 62.3096 20.2301 63.0827 21.2821C62.5654 22.1598 62.083 23.0607 61.6529 23.9848C60.688 26.0482 60.1126 28.2278 59.2931 30.3492C58.8862 31.407 58.3399 32.3951 57.6192 33.2728C56.9275 34.1155 56.1371 34.877 55.3698 35.65C53.7657 37.2658 52.33 39.0269 51.1327 40.9682C50.255 42.3922 49.5576 43.8859 48.9415 45.4262C48.9415 45.4145 48.9357 45.4087 48.9299 45.3971C48.7962 45.182 48.6102 44.9902 48.3951 44.8682C48.2847 44.8043 48.1626 44.7519 48.0406 44.7287C47.9185 44.7054 47.8081 44.6996 47.7035 44.7054C47.6047 44.6299 47.5117 44.5718 47.3838 44.5543C47.256 44.5369 47.1164 44.5543 47.0002 44.6241C46.7793 44.7636 46.6457 45.0367 46.727 45.2983C46.8433 45.6877 47.0002 46.0713 47.1862 46.4375C47.378 46.8095 47.5989 47.2396 47.9418 47.4895C47.9999 47.5302 48.058 47.5593 48.1278 47.5883C47.9069 48.1812 47.657 48.7624 47.3722 49.3204C46.6224 50.3317 45.8261 51.3023 45.024 52.2614C44.809 52.5171 44.5939 52.7728 44.3789 53.0286C42.9374 54.47 41.5425 55.9347 40.2929 57.5563C38.09 60.4159 36.2999 63.5778 34.9689 66.9256C28.8718 72.7902 21.0427 76.5216 15.1608 82.6419C15.1782 82.4792 15.1956 82.3223 15.2072 82.1595C15.5618 80.2124 15.7885 78.2421 15.8698 76.2659C16.3697 72.9994 16.6894 69.6923 17.1602 66.42C17.3752 65.9957 17.5961 65.5714 17.8111 65.1529C18.032 64.717 18.247 64.2752 18.4505 63.8277C18.4795 63.8277 18.5086 63.8161 18.5377 63.8045C18.8341 63.6882 19.1189 63.5429 19.3804 63.3685C19.456 63.3395 19.5315 63.3104 19.6071 63.2814C20.0081 63.107 20.3743 62.8512 20.6708 62.5374C20.8219 62.3805 20.88 62.1654 20.8219 61.9562C20.7928 61.8457 20.7347 61.7586 20.6591 61.6888C20.6533 61.6423 20.6359 61.6016 20.6184 61.5551C20.5545 61.404 20.4092 61.2354 20.229 61.2064C20.0023 61.1715 19.7815 61.1657 19.5548 61.1831C19.6827 60.846 19.8105 60.5147 19.9268 60.1718C21.1125 56.7775 21.8216 53.2146 22.0541 49.6226C22.1645 47.908 22.1529 46.1934 22.0366 44.4788C22.24 43.944 22.49 43.4151 22.7748 42.892C24.2104 40.2533 25.7448 37.6087 26.9422 34.8421C26.977 34.8246 27.0119 34.8072 27.0468 34.7898C27.7965 34.5805 28.4882 34.2085 29.0811 33.7029C29.4356 33.4006 29.2206 32.8194 28.8195 32.7032C28.6742 32.6625 28.5289 32.6392 28.3778 32.6276C28.3487 32.6276 28.3255 32.616 28.2964 32.6102C28.1511 32.5927 28.0058 32.5986 27.8663 32.6276C27.8489 32.6276 27.8314 32.6276 27.814 32.6276C28.5638 30.4713 29.0462 28.2336 29.0636 25.868C29.0636 25.8447 29.0636 25.8273 29.0636 25.804C29.2438 25.5716 29.2438 25.2344 29.2031 24.9438C29.1741 24.7346 29.1101 24.5428 29.0229 24.3568C28.9474 24.0255 28.7672 23.7407 28.4708 23.5547C28.3429 23.4733 28.2092 23.4268 28.0697 23.4094C27.9535 23.3629 27.8372 23.328 27.7152 23.3222C27.32 23.3222 26.9887 23.578 26.8782 23.9558C26.8027 24.2057 26.8259 24.473 26.8957 24.723C26.9887 25.0485 27.1688 25.3565 27.4188 25.5948C27.4827 25.682 27.5408 25.7692 27.5931 25.8622C27.6047 25.9029 27.6222 25.9494 27.628 25.9959C27.628 25.9726 27.6222 25.9435 27.6164 25.9203C27.6338 26.0598 27.6745 26.1818 27.7849 26.2865C27.8082 26.3097 27.8314 26.3271 27.8605 26.3446C27.7733 28.7857 27.1688 31.1222 26.2912 33.3716C26.2505 33.4181 26.204 33.4588 26.1633 33.5053C26.0296 33.6738 25.9541 33.8598 26.0064 34.0749C25.0009 36.4811 23.7106 38.7944 22.4435 41.0437C22.0831 41.6831 21.7169 42.3166 21.3856 42.9734C21.3275 42.9734 21.2752 42.9734 21.2171 42.9792C21.1997 42.9618 21.1822 42.9385 21.1648 42.9211C20.9904 42.5898 20.7521 42.2817 20.3918 42.1771C20.0605 42.0841 19.7175 42.2062 19.5083 42.4735C19.363 42.6595 19.2991 42.9153 19.3223 43.1478C19.3572 43.4558 19.4734 43.7406 19.642 43.9905C19.6768 44.1707 19.735 44.3451 19.8106 44.5136C19.9559 44.8275 20.2 45.1123 20.4964 45.3157C20.229 46.4782 20.2 47.6813 20.136 48.8612C19.9791 51.7383 19.4909 54.5862 18.6772 57.3471C17.1253 62.6071 14.1494 67.408 13.5275 72.9355C13.1962 75.8707 13.3589 78.8291 12.8416 81.7468C12.522 83.5544 12.0744 85.333 11.5862 87.1057C11.3828 87.4254 10.8771 89.6457 10.7609 90.0641C9.99949 92.8017 9.17997 95.5451 8.1512 98.2013C6.94226 100.207 5.81467 102.258 4.76265 104.345C4.65803 104.386 4.5592 104.449 4.48364 104.566C4.01285 105.252 3.53628 105.932 3.06549 106.617C2.72838 107.106 2.29825 107.617 2.12969 108.204C1.60078 109.181 1.2288 110.244 1.0835 111.331C0.926566 112.494 1.51943 113.232 2.33896 113.964C3.28636 114.813 4.23954 115.661 5.18694 116.504C5.44268 116.737 5.95996 116.754 6.12852 116.382C8.18605 111.779 9.99948 107.065 11.5513 102.264C12.3069 99.9217 13.0044 97.5561 13.6321 95.1731C14.0739 93.4934 14.4691 91.7962 14.9922 90.1339C15.3874 89.3376 15.8059 88.5472 16.2534 87.7799C17.6019 85.4725 19.3398 83.5661 21.3624 81.8398C23.4839 80.0322 25.6867 78.3118 27.8721 76.5798C29.6216 75.1906 31.3769 73.8073 33.1322 72.4298C34.0273 71.9881 34.934 71.558 35.8465 71.1569C36.358 70.9361 36.8695 70.7152 37.3868 70.5118C37.6425 70.4072 37.904 70.3084 38.1598 70.2037C38.5259 70.0584 38.648 69.948 38.7817 69.5702C39.1479 68.5414 39.6129 67.565 40.1825 66.635C43.1176 63.0779 46.727 60.1021 50.7782 57.8934C51.2954 58.3061 52.0103 58.4456 52.6555 58.3293C52.8531 58.2945 53.0391 58.2189 53.2193 58.1259C53.3588 58.0562 53.4809 57.9632 53.5564 57.8237C53.6378 57.6784 53.6726 57.4982 53.6726 57.3296C53.6726 56.8472 53.3413 56.3706 52.9112 56.1614C52.7601 56.0916 52.609 56.0451 52.4521 56.0219C52.6962 55.7138 52.9345 55.3883 53.1728 55.0745C53.9691 54.0399 54.7596 52.9995 55.5558 51.9649C58.2876 48.4137 61.2344 44.781 65.1809 42.5782C65.2855 42.6072 65.3901 42.6363 65.5006 42.6537C65.6343 42.7351 65.7912 42.7525 65.9423 42.7177C66.0934 42.7351 66.2503 42.7409 66.4015 42.7409C66.9071 42.7409 67.5407 42.6944 67.8255 42.2062C67.994 41.9214 67.965 41.5785 67.8255 41.2878C67.7034 41.0263 67.4767 40.8636 67.2152 40.7589C66.9536 40.6601 66.6746 40.6776 66.4015 40.7241C66.4015 40.7241 66.3956 40.7241 66.3898 40.7241C66.2968 40.7241 66.2038 40.7357 66.105 40.7764C66.076 40.788 66.0527 40.8054 66.0237 40.8171C65.9365 40.8461 65.8435 40.881 65.7563 40.9217C65.6982 40.9507 65.6459 40.9856 65.5936 41.0205C63.2338 42.1364 61.2111 43.7464 59.3919 45.5889C59.3745 45.0891 59.1943 44.5834 58.9211 44.1823C58.7816 43.9789 58.5782 43.8627 58.3224 43.8975C58.1074 43.9266 57.8633 44.0952 57.8226 44.3277C57.6598 45.3099 57.5901 46.3038 57.625 47.2977C57.625 47.3558 57.6366 47.4081 57.654 47.4604C56.6253 48.6461 55.6488 49.8783 54.7072 51.1047C53.7657 52.3253 52.8299 53.5517 51.8941 54.7722C51.5221 55.2605 51.156 55.8475 50.6154 56.1614C50.011 56.5159 49.2321 56.5857 48.5811 56.8588C46.14 57.8702 44.2045 59.9509 42.426 61.8399C41.4204 62.9036 40.473 64.0253 39.6593 65.2285C39.5315 65.182 39.3978 65.1761 39.2699 65.2168C39.5431 64.1823 39.8046 63.1477 40.1592 62.1363C40.7462 60.4682 41.5483 58.8873 42.5248 57.411C43.6349 55.7429 44.9775 54.2491 46.5004 52.9472C46.727 52.7554 46.7386 52.5113 46.634 52.3079C47.2734 51.5755 47.8604 50.8083 48.337 49.9481C48.6916 49.4715 49.0345 48.9949 49.3658 48.5008C49.9586 47.6174 50.505 46.699 50.9758 45.7458C51.1676 45.7807 51.3768 45.7284 51.5512 45.5192C51.7779 45.246 51.7197 44.9205 51.5396 44.7054C51.5628 44.6357 51.5861 44.566 51.6151 44.4904C51.6674 44.3509 51.7197 44.2056 51.7837 44.0661C51.8825 43.8336 51.9929 43.6069 52.1091 43.3861C52.3649 42.892 52.6613 42.4212 52.9752 41.9621C53.6204 41.0321 54.3701 40.1777 55.1257 39.3349C56.6136 37.6901 58.1306 36.0859 59.3163 34.2027C61.6703 30.4713 62.9083 26.1877 64.7856 22.2237C65.826 20.0209 67.0815 17.9168 68.7961 16.1732C68.9705 15.9988 68.9995 15.7954 68.9414 15.6094C69.1448 15.406 69.354 15.2025 69.5633 15.0049C69.9295 15.0049 70.2956 15.0049 70.656 15.0107C71.243 15.0107 71.9812 14.755 71.9812 14.0517C71.9812 13.3542 71.2605 12.9997 70.656 12.9009L70.6851 12.959Z" fill="white"/>
</mask>
<g mask="url(#mask0_73_16501)">
<path d="M15.213 89.6691C13.2368 92.0754 12.5626 94.9059 11.4932 97.7539C10.2086 101.183 8.27896 104.397 6.57017 107.623C5.37284 109.884 4.15226 112.139 2.92588 114.383C1.96686 115.621 0.990412 116.847 -0.00929359 118.056C-1.07875 119.358 -2.17144 120.643 -3.26995 121.921C-4.28709 123.107 -5.281 124.519 -6.44345 125.6C-8.0825 125.699 -8.03018 128.32 -6.29232 128.384C-5.74597 128.402 -5.30424 128.233 -4.90901 127.954C-4.76951 128.111 -4.62422 128.274 -4.48473 128.431C-3.93837 129.041 -3.07815 128.873 -2.50855 128.431C-1.60765 127.728 -0.834626 126.774 -0.148782 125.722C-0.241777 127.129 2.0715 127.617 2.61785 126.071C4.3964 121.061 6.61085 116.493 9.18567 111.849C10.4586 109.553 11.6501 107.21 12.6905 104.804C13.0101 104.223 13.324 103.636 13.6204 103.043C14.4399 101.41 15.1607 99.7185 15.7303 97.9748C16.0267 97.0739 16.2824 96.1556 16.5033 95.2314C16.6486 94.6328 16.6718 93.7028 16.8753 93.0111C16.9683 92.9181 17.0554 92.8193 17.1252 92.6856C17.1426 92.6566 17.1601 92.6275 17.1717 92.5985C17.3867 92.2207 17.3984 91.8371 17.2763 91.4883C18.1656 90.1225 16.3057 88.3207 15.2013 89.6633L15.213 89.6691Z" fill="#876344"/>
<path d="M22.1121 60.1138C20.7172 61.1193 19.3862 62.2295 18.3284 63.5953C17.2008 65.0484 16.5382 66.7281 16.1604 68.5183C15.3176 72.5404 15.3176 76.7252 15.2421 80.817C15.2304 81.3285 16.0325 81.3285 16.0383 80.817C16.1081 76.9112 16.1197 72.9356 16.8579 69.0879C17.195 67.3326 17.7762 65.6529 18.8573 64.2114C19.8628 62.8746 21.1648 61.7819 22.519 60.8055C22.9317 60.509 22.5364 59.8174 22.118 60.1138H22.1121Z" fill="#876344"/>
<path d="M52.7776 49.9253C52.7776 50.0532 52.7717 50.1869 52.7659 50.3148C52.4811 50.4891 52.2835 50.7855 52.2951 51.1459C52.2951 51.2157 52.2893 51.297 52.2951 51.3668C52.2951 51.3668 52.2951 51.3726 52.2951 51.3784C52.2951 51.3842 52.2951 51.39 52.2893 51.4016C52.2544 51.547 52.2138 51.6806 52.1673 51.8201C52.1615 51.8434 52.1556 51.8608 52.1498 51.8724C52.1498 51.8841 52.1382 51.8899 52.1324 51.9131C52.1033 51.9829 52.0685 52.0468 52.0336 52.1166C51.9697 52.2502 51.8999 52.3897 51.8302 52.5234C51.6674 52.8373 51.5163 53.1569 51.3942 53.4824C50.7549 53.7498 50.4701 54.3368 50.2667 54.9878C50.1737 55.29 50.0865 55.6097 50.0226 55.941C49.8017 55.9584 49.5866 56.0456 49.4297 56.22C49.0752 56.6094 49.0228 57.2488 49.4297 57.6324C49.5227 57.7196 49.6215 57.8009 49.7203 57.8765C48.3254 58.417 47.035 59.4807 45.9365 60.4164C44.745 61.4278 43.6 62.5088 42.548 63.6597C41.7459 64.0607 41.1647 64.8163 40.6184 65.5079C40.0313 66.2461 39.4966 67.0191 39.0142 67.827C38.0435 69.4603 37.2996 71.2272 36.7939 73.058C36.6602 73.5521 37.4274 73.7671 37.5611 73.2673C37.782 72.4768 38.0493 71.698 38.3574 70.9424H38.369C38.5666 71.0121 38.8223 70.954 38.9212 70.7041C39.299 69.7451 39.7698 68.8325 40.2987 67.9549C40.537 67.6352 40.7927 67.3272 41.0601 67.0308C41.5309 66.5135 42.0424 66.0543 42.5829 65.6126C43.0944 65.1941 43.2397 64.7291 43.2164 64.113C43.5942 63.7062 43.972 63.3051 44.373 62.9157C45.5355 61.7823 46.7677 60.678 48.0697 59.7131C48.7264 59.2249 49.4878 58.7716 50.2899 58.5216C50.4585 58.7658 50.6793 58.9808 50.9641 59.1319C51.6965 59.5155 52.5393 59.2889 53.0507 58.6786C53.3646 58.6902 53.5913 58.3124 53.4285 58.0741C53.6087 57.6789 53.7191 57.2429 53.8296 56.8187C54.0214 56.0921 54.1841 55.354 54.3178 54.61C54.591 53.0639 54.7479 51.5005 54.777 49.9312C54.8002 48.6466 52.8066 48.6466 52.7834 49.9312L52.7776 49.9253Z" fill="#876344"/>
<path d="M31.6558 28.3557C31.3013 27.4316 30.7143 26.6876 30.0691 25.9785C30.0924 24.694 30.1389 23.4095 30.4121 22.1425C30.6794 20.8928 28.7614 20.3581 28.4882 21.6135C28.3371 22.3168 28.2499 23.0201 28.1918 23.735C28.1743 23.7059 28.1569 23.6827 28.1453 23.6536C28.1278 23.6129 28.1104 23.5781 28.0872 23.5374C28.1278 23.6188 28.0465 23.4386 28.0406 23.4095C28.0232 23.363 28.0116 23.3107 27.9941 23.2642C28.2731 22.9504 28.3545 22.4389 28.122 22.0843C27.8198 21.6135 27.2502 21.4682 26.7561 21.724C25.8494 22.2006 25.8669 23.334 26.1982 24.1651C26.4888 24.8858 26.9247 25.5019 27.4362 26.089C27.6396 26.3215 27.8547 26.5423 28.0697 26.7632C28.029 28.379 27.9593 29.9948 27.5408 31.5641C26.7736 34.4121 25.1868 36.9346 23.7803 39.4862C23.3792 40.2185 22.984 40.9567 22.6178 41.7064C22.1819 42.6073 21.7344 43.5431 22.7167 44.2638C23.1526 44.5835 23.8268 44.3394 24.0825 43.9035C24.2394 43.6303 24.2511 43.3513 24.1581 43.0956C24.1581 43.0956 24.1581 43.0898 24.1581 43.0839C24.2394 42.9386 24.3034 42.7817 24.3731 42.6306C24.5301 42.3051 24.6928 41.9854 24.8614 41.6599C25.1985 41.0148 25.5472 40.3813 25.9076 39.7477C26.5876 38.533 27.2792 37.324 27.8953 36.0744C28.5289 34.7899 29.0927 33.4647 29.4647 32.0814C29.7146 31.1456 29.8599 30.1924 29.9413 29.2334C30.1854 29.524 30.5515 29.6984 30.9526 29.5647C31.4234 29.4136 31.8535 28.8614 31.6501 28.3383L31.6558 28.3557Z" fill="#876344"/>
<path d="M51.3359 39.2653C51.5277 38.7596 51.1209 38.1726 50.6385 38.0389C50.0747 37.882 49.6097 38.2307 49.4121 38.7364C49.29 39.0444 49.1796 39.3583 49.075 39.6663C48.6391 40.916 48.2671 42.183 47.9706 43.4676C47.959 43.4559 47.9532 43.4501 47.9416 43.4385C47.8951 43.3571 47.8602 43.2757 47.8079 43.2002C47.3778 42.5143 46.5292 42.6073 46.0875 43.2002C45.5586 43.9035 45.6051 44.938 45.6922 45.775C45.7736 46.5713 45.9015 47.5536 46.3549 48.2394C46.5583 48.5474 46.8373 48.7334 47.1279 48.8148C47.0988 49.1287 47.0756 49.4367 47.0523 49.7506C46.9942 50.7735 48.5112 51.07 48.9239 50.2562C49.1157 50.3202 49.3249 50.3376 49.5167 50.2853C50.0689 50.1342 50.313 49.5878 50.2142 49.0589C49.6504 46.0772 50.034 43.0258 51.0046 40.1778C51.1093 39.8756 51.2197 39.5675 51.3359 39.2653Z" fill="#876344"/>
<path d="M69.8249 16.5741C69.325 16.2835 68.7728 16.4928 68.459 16.9345C68.4009 17.0159 68.3427 17.0914 68.2846 17.167C68.0347 17.1728 67.779 17.2774 67.5639 17.446C65.5471 19.0385 63.4721 20.7008 62.176 22.9734C61.153 24.7694 60.6939 26.8734 61.1123 28.8612C61.124 29.425 61.246 29.9772 61.554 30.4712C61.9376 31.0931 62.6584 31.035 63.0885 30.6688C63.4895 30.3608 63.5476 29.8319 63.3384 29.3843C63.228 29.1518 63.1466 28.9193 63.0827 28.681C63.0827 27.9603 63.4314 27.1292 63.6697 26.5712C64.1172 25.525 64.7508 24.5543 65.4308 23.6476C66.9304 21.6715 68.738 19.9569 70.1794 17.9342C70.4933 17.4983 70.255 16.8241 69.8191 16.5683L69.8249 16.5741Z" fill="#876344"/>
<path d="M33.911 74.1275C30.4063 75.0342 26.6399 75.906 23.5653 77.9055C20.8044 79.7014 18.6016 82.6308 18.6074 86.0426C18.6074 87.3271 20.601 87.3271 20.601 86.0426C20.601 83.1539 22.6469 80.7709 25.0125 79.3527C27.8663 77.6439 31.2549 76.8767 34.44 76.0513C35.6838 75.7317 35.1549 73.8078 33.911 74.1275Z" fill="#876344"/>
</g>
<path d="M31.5976 85.222C31.7197 85.1058 31.8185 84.9779 31.9057 84.8442C31.9638 84.7745 32.0161 84.7047 32.0626 84.6234C32.3532 84.1351 32.359 83.6411 32.2079 83.1761C32.1323 82.7111 31.9464 82.2578 31.6848 81.8567C30.9467 80.7234 29.6098 79.9794 28.18 79.6946C26.8723 79.247 25.2739 79.0785 24.1173 79.6248C23.5186 79.8166 22.9839 80.1596 22.5596 80.6885C22.4085 80.8745 22.3213 81.0663 22.2864 81.2523C21.9435 81.6707 21.8505 82.2578 22.1179 82.7809C22.1295 82.8041 22.1411 82.8274 22.1527 82.8506C22.2632 83.0599 22.4085 83.2284 22.5828 83.3447C22.6816 83.4725 22.7921 83.5888 22.9025 83.7108C23.693 85.1755 25.6982 85.8962 27.3954 86.0241C28.6799 86.1171 30.5979 86.2159 31.6034 85.222H31.5976Z" fill="#F0DFD1"/>
<path d="M28.6625 81.0197C29.0461 80.2815 30.0342 80.2118 30.6677 79.7875C30.7549 79.7293 30.8072 79.6189 30.7491 79.5201C30.7026 79.4329 30.5689 79.3748 30.4817 79.4387C29.7785 79.9095 28.7613 79.9851 28.3254 80.8104C28.2731 80.9034 28.2905 81.0255 28.3835 81.0836C28.4707 81.1359 28.6102 81.1185 28.6567 81.0255L28.6625 81.0197Z" fill="#BDAFA4"/>
<path d="M29.4297 81.5315C29.4704 81.5199 29.5285 81.5082 29.546 81.5024L29.8656 81.4094C30.0691 81.3513 30.2783 81.2932 30.4817 81.2292C30.9002 81.1072 31.3187 80.9851 31.7372 80.8631C31.9813 80.7933 31.8999 80.4039 31.65 80.4737C31.0978 80.6306 30.5515 80.7933 29.9993 80.9503C29.8656 80.991 29.7378 81.0258 29.6041 81.0665C29.4762 81.1014 29.3251 81.1304 29.2089 81.1886C29.0171 81.2816 28.8892 81.578 29.1217 81.7058C29.2728 81.793 29.4239 81.6594 29.4297 81.5315Z" fill="#BDAFA4"/>
<path d="M30.6445 82.444C30.6619 82.3627 30.7142 82.3336 30.8072 82.2987C30.9583 82.2464 31.1211 82.2232 31.278 82.1883C31.6326 82.1127 31.9929 82.0372 32.3474 81.9616C32.5974 81.9093 32.516 81.5199 32.2603 81.5722C31.8534 81.6594 31.4465 81.7466 31.0397 81.8338C30.7491 81.8977 30.3364 81.9733 30.2667 82.322C30.2434 82.4266 30.2841 82.537 30.3945 82.5719C30.4875 82.601 30.6212 82.5487 30.6445 82.444Z" fill="#BDAFA4"/>
<path d="M33.388 82.9085C32.5452 82.8155 31.6908 82.862 30.8654 83.0422C30.6155 83.0945 30.6969 83.4839 30.9526 83.4316C31.7489 83.2631 32.5626 83.2224 33.3705 83.3096C33.6263 83.3386 33.6437 82.9376 33.3938 82.9085H33.388Z" fill="#BDAFA4"/>
<path d="M32.9229 85.17C32.4114 84.5597 31.7895 84.0482 31.0921 83.6588C30.8712 83.531 30.6503 83.8681 30.877 83.9959C31.5454 84.3737 32.1325 84.862 32.6265 85.4432C32.795 85.6408 33.0857 85.3676 32.9171 85.17H32.9229Z" fill="#BDAFA4"/>
<path d="M31.3533 86.2856C31.458 86.2333 31.4754 86.1171 31.4347 86.0183C31.3708 85.8671 31.272 85.7335 31.1615 85.6114C31.0453 85.4777 30.929 85.344 30.8128 85.2104C30.5803 84.9372 30.342 84.6698 30.1095 84.3966C29.941 84.2048 29.6503 84.4722 29.8189 84.6698C30.0456 84.9314 30.2722 85.1929 30.4989 85.4545C30.6093 85.5823 30.7198 85.7044 30.8302 85.8323C30.929 85.9485 31.022 86.0589 31.0801 86.2042C31.1208 86.3031 31.2603 86.3321 31.3475 86.2856H31.3533Z" fill="#BDAFA4"/>
<path d="M30.2668 86.4483C30.3482 86.3727 30.3482 86.2449 30.2784 86.1693C29.9529 85.7973 29.6914 85.3847 29.4938 84.9371C29.4473 84.8383 29.3136 84.8034 29.2264 84.8558C29.1276 84.9081 29.0986 85.0243 29.1451 85.1231C29.3601 85.5997 29.6449 86.0473 29.9936 86.4367C30.0634 86.518 30.1971 86.518 30.2726 86.4483H30.2668Z" fill="#BDAFA4"/>
<path d="M28.6568 86.9663C28.7963 86.9139 28.866 86.7628 28.8602 86.6233C28.8544 86.478 28.7963 86.3443 28.7207 86.2223C28.5231 85.9084 28.3255 85.5946 28.1221 85.2807C28.064 85.1877 27.9535 85.147 27.8547 85.1993C27.7675 85.2458 27.7152 85.3795 27.7733 85.4667C27.9419 85.7282 28.1047 85.9898 28.2732 86.2572C28.3139 86.3269 28.3604 86.3908 28.4011 86.4606C28.4127 86.478 28.4185 86.4897 28.4243 86.5071C28.4243 86.5071 28.4418 86.5478 28.4476 86.5536C28.4476 86.571 28.4592 86.5943 28.465 86.6117C28.465 86.6117 28.465 86.6117 28.465 86.6175C28.372 86.6582 28.3487 86.7977 28.3894 86.8791C28.4475 86.9837 28.558 87.0011 28.6568 86.9604V86.9663Z" fill="#BDAFA4"/>
<path d="M26.6573 86.6985C26.7561 86.6462 26.791 86.5241 26.7387 86.4312C26.5353 86.0301 26.3667 85.6116 26.2272 85.1873C26.1923 85.0827 26.0993 85.013 25.9889 85.0362C25.8901 85.0595 25.8029 85.1699 25.8378 85.2745C25.9889 85.7337 26.1691 86.187 26.3899 86.6171C26.4364 86.716 26.5643 86.7508 26.6573 86.6985Z" fill="#BDAFA4"/>
<path d="M24.8728 85.7976C25.0588 85.3849 25.0123 84.949 24.8554 84.5363C24.5648 83.7865 23.9312 83.1239 23.3442 82.595C23.0884 82.3625 22.8211 82.1475 22.5537 81.9324C22.5886 81.915 22.6293 81.8917 22.6641 81.8743C22.8036 81.7929 22.9373 81.7116 23.071 81.6302C23.3326 81.543 23.5999 81.45 23.8615 81.3512C24.4311 81.1303 24.989 80.8688 25.5238 80.5782C26.012 80.3108 26.6629 80.0202 26.8315 79.439C27.0407 78.7066 26.3491 78.2242 25.7156 78.1254C25.0937 78.0266 24.4543 78.1486 23.8731 78.3753C23.2337 78.6194 22.6583 79.0379 22.1527 79.4971C21.7109 79.904 21.0251 80.4503 21.0541 81.1129C21.0541 81.1885 21.0774 81.2582 21.1006 81.3221C21.0483 81.3338 21.0018 81.3512 20.9553 81.3744C20.8158 81.3628 20.6764 81.3919 20.5659 81.4616C20.4555 81.5372 20.3683 81.6127 20.3102 81.7406C20.2521 81.8627 20.2346 81.9905 20.2637 82.1242C20.2927 82.2579 20.3334 82.3974 20.3799 82.5253C20.3974 82.6299 20.4148 82.7345 20.4497 82.8391C20.4264 83.2111 20.5717 83.5773 20.7345 83.9028C21.0541 84.5363 21.5191 85.1582 22.0422 85.6406C22.5421 86.0998 23.3035 86.6578 24.03 86.5125C24.4252 86.4311 24.7275 86.1463 24.8902 85.7917L24.8728 85.7976Z" fill="#7FAD23"/>
<path d="M32.2604 61.5837C32.0861 61.3861 31.8884 61.2698 31.685 61.2117C31.6211 61.1769 31.5571 61.1478 31.4874 61.1187C31.1386 60.9792 30.8132 60.9618 30.5226 61.0315C30.1622 61.0315 29.8018 61.1769 29.4763 61.5023C29.4124 61.5663 29.3543 61.636 29.3078 61.7058C27.9245 62.8973 27.8315 65.0362 28.5522 66.6229C29.1218 67.8842 30.8364 69.6976 32.4057 69.1687C33.4752 68.8083 33.7135 67.7621 33.6147 66.652C34.039 64.9606 33.3124 62.8101 32.2546 61.5837H32.2604Z" fill="#F0DFD1"/>
<path d="M29.0112 64.7923C28.4939 64.4727 28.0522 64.0251 27.7557 63.4846C27.7092 63.4032 27.6279 63.3567 27.5349 63.3916C27.4593 63.4207 27.4012 63.5311 27.4418 63.6125C27.7673 64.1995 28.2265 64.6994 28.8019 65.0539C28.8775 65.1004 28.9763 65.1004 29.0344 65.0248C29.0867 64.9609 29.0809 64.8388 29.0053 64.7923H29.0112Z" fill="#BDAFA4"/>
<path d="M29.2729 63.7577C28.8893 63.3974 28.6103 62.9207 28.4941 62.4093C28.4766 62.3221 28.4011 62.2523 28.3081 62.264C28.2267 62.2756 28.1395 62.3628 28.1628 62.45C28.3022 63.0602 28.6103 63.6008 29.0695 64.0251C29.1334 64.089 29.2554 64.0599 29.3019 63.996C29.3601 63.9205 29.3368 63.8216 29.2729 63.7635V63.7577Z" fill="#BDAFA4"/>
<path d="M29.4821 62.6994C29.1334 62.1705 28.8544 61.5951 28.651 60.9964C28.5813 60.793 28.2732 60.9208 28.343 61.1243C28.5755 61.8043 28.9009 62.4495 29.3078 63.0423C29.3601 63.1179 29.4764 63.1237 29.5403 63.0714C29.581 63.0423 29.6159 63.0074 29.6565 62.9784C29.8135 62.8505 29.6449 62.618 29.4821 62.6994Z" fill="#BDAFA4"/>
<path d="M29.4471 60.1133C29.4239 60.0261 29.3018 59.9912 29.2262 60.0203C29.1332 60.061 29.11 60.154 29.1333 60.2412C29.2844 60.8224 29.4936 61.3862 29.7494 61.9267C29.8424 62.1185 30.1504 61.9965 30.0574 61.7988C29.8017 61.2583 29.5924 60.6945 29.4413 60.1133H29.4471Z" fill="#BDAFA4"/>
<path d="M30.7725 59.3401C30.6447 60.1596 30.5168 60.985 30.3889 61.8045C30.354 62.0196 30.6853 62.066 30.7202 61.851C30.8481 61.0315 30.976 60.2061 31.1038 59.3866C31.1387 59.1716 30.8074 59.1251 30.7725 59.3401Z" fill="#BDAFA4"/>
<path d="M32.1906 60.8804C32.1034 60.8455 32.0162 60.892 31.9697 60.9734C31.714 61.4558 31.5687 61.9963 31.5338 62.5427C31.5338 62.6357 31.5803 62.717 31.6791 62.7345C31.7605 62.7461 31.8651 62.6822 31.8709 62.5892C31.9 62.0661 32.0395 61.5662 32.2836 61.1012C32.3243 61.0199 32.272 60.9152 32.1906 60.8804Z" fill="#BDAFA4"/>
<path d="M33.1669 62.2695C33.0797 62.2347 32.9925 62.2812 32.9461 62.3625C32.7194 62.7926 32.5101 63.2285 32.3125 63.6703C32.2776 63.7516 32.3183 63.8563 32.4055 63.8911C32.4927 63.926 32.5857 63.8853 32.6264 63.7981C32.824 63.3564 33.039 62.9205 33.2599 62.4904C33.3006 62.409 33.2483 62.3044 33.1669 62.2695Z" fill="#BDAFA4"/>
<path d="M33.9924 63.7985C33.9227 63.752 33.8064 63.752 33.7599 63.8276C33.6669 63.9845 33.5623 64.1356 33.4402 64.2751C33.3821 64.3448 33.324 64.403 33.2717 64.4553C33.2019 64.5192 33.1322 64.5831 33.0625 64.6413C32.9927 64.6936 32.9753 64.804 33.0334 64.8738C33.0915 64.9435 33.1961 64.9609 33.2659 64.9028C33.5681 64.6587 33.8297 64.3681 34.0215 64.031C34.068 63.9554 34.068 63.8508 33.9924 63.7985Z" fill="#BDAFA4"/>
<path d="M28.5928 65.7049C28.2731 65.5247 27.936 65.3852 27.5872 65.2864C27.5407 65.2748 27.5059 65.269 27.4594 65.2864C27.4187 65.3038 27.3838 65.3387 27.3664 65.3794C27.3373 65.4549 27.3664 65.5712 27.4594 65.6003C27.8081 65.6991 28.1452 65.8386 28.4649 66.0187C28.5404 66.0594 28.6567 66.0071 28.6858 65.9257C28.7206 65.8327 28.68 65.7514 28.5928 65.7049Z" fill="#BDAFA4"/>
<path d="M34.4401 66.3034C34.1204 66.0302 33.6787 66.1348 33.4229 66.4313C33.2602 66.6231 33.1614 66.8904 33.0451 67.1113C32.9405 67.3263 32.8301 67.5414 32.7313 67.7623C32.5918 68.0645 32.4755 68.3725 32.3651 68.6864C32.2198 68.5353 32.0396 68.4132 31.8594 68.3086C31.5572 68.1342 31.255 67.9657 30.9469 67.8088C30.6679 67.6635 30.3831 67.5182 30.0983 67.3845C29.7961 67.2392 29.4939 67.088 29.1451 67.0997C28.7906 67.1113 28.4477 67.338 28.3372 67.6809C28.1977 68.0994 28.4012 68.4946 28.7034 68.7736C28.9417 68.9886 29.2091 69.1805 29.459 69.3781C29.7089 69.5757 29.9763 69.7384 30.2843 69.8314C30.9818 70.0407 31.7432 70.0639 32.4639 70.0465C32.5453 70.0465 32.6267 70.0116 32.6906 69.9593C32.7603 69.9535 32.8243 69.9302 32.8766 69.8954C33.0161 69.8895 33.1439 69.8314 33.2195 69.7036C33.481 69.2676 33.7775 68.855 34.103 68.4655C34.4459 68.0529 34.8179 67.6751 34.7946 67.0997C34.783 66.8032 34.6435 66.4952 34.4168 66.2976L34.4401 66.3034Z" fill="#7FAD23"/>
<path d="M48.6218 47.0939C44.5009 45.9663 43.0885 52.3016 43.7453 55.1671C44.1057 56.7247 45.518 58.4742 47.2966 57.7303C47.314 57.7244 47.3257 57.7128 47.3431 57.707C47.8953 57.8639 48.5404 57.7419 48.9531 57.149C50.0981 55.51 51.0164 53.6617 51.092 51.6274C51.1559 49.8721 50.534 47.617 48.6218 47.0939Z" fill="#F0DFD1"/>
<path d="M44.3382 48.251C44.5474 48.9776 44.8264 49.6808 45.1635 50.3609C45.2798 50.5934 45.6227 50.3899 45.5064 50.1633C45.1868 49.5181 44.9252 48.8497 44.7218 48.1522C44.6521 47.9081 44.2626 48.0069 44.3382 48.251Z" fill="#BDAFA4"/>
<path d="M46.0471 45.6528C45.9308 45.6528 45.8553 45.7458 45.8437 45.8504C45.7797 46.67 45.8611 47.4953 46.0936 48.2858C46.1633 48.5299 46.5527 48.4311 46.4772 48.187C46.2563 47.4314 46.1808 46.6409 46.2447 45.8563C46.2563 45.7516 46.1459 45.6586 46.0471 45.6528Z" fill="#BDAFA4"/>
<path d="M48.6276 45.4146C48.5405 45.3681 48.401 45.3914 48.3545 45.4902C48.029 46.2284 47.8255 47.013 47.75 47.8209C47.7384 47.9255 47.8488 48.0185 47.9476 48.0243C48.0639 48.0243 48.1394 47.9313 48.151 47.8267C48.2208 47.0944 48.4068 46.3678 48.7032 45.6936C48.7439 45.5948 48.7323 45.4786 48.6276 45.4205V45.4146Z" fill="#BDAFA4"/>
<path d="M50.2958 45.7753C50.1912 45.7172 50.0866 45.7637 50.0227 45.8509C49.5112 46.5251 49.0695 47.2516 48.7091 48.013C48.5987 48.2455 48.9416 48.4431 49.0578 48.2106C49.424 47.4492 49.8657 46.7227 50.3714 46.0485C50.4353 45.9613 50.383 45.8276 50.2958 45.7753Z" fill="#BDAFA4"/>
<path d="M51.307 47.129C51.2082 47.0709 51.0978 47.1116 51.0338 47.2046C50.563 47.8962 50.0864 48.5821 49.6156 49.2737C49.5575 49.3609 49.604 49.4946 49.6912 49.5469C49.79 49.605 49.9004 49.5643 49.9644 49.4714C50.4352 48.7797 50.9118 48.0938 51.3826 47.4022C51.4407 47.315 51.3942 47.1813 51.307 47.129Z" fill="#BDAFA4"/>
<path d="M52.0917 49.2213C51.4059 49.6689 50.691 50.0583 49.947 50.3896C49.8482 50.4361 49.8249 50.5756 49.8714 50.6627C49.9295 50.7615 50.0458 50.779 50.1446 50.7383C50.8886 50.407 51.6093 50.0118 52.2893 49.57C52.5044 49.4305 52.3068 49.0818 52.0917 49.2271V49.2213Z" fill="#BDAFA4"/>
<path d="M51.7781 50.9131C51.3247 51.0991 50.8481 51.2328 50.3656 51.3142C50.261 51.3316 50.1971 51.4595 50.2203 51.5583C50.2494 51.6687 50.354 51.721 50.4645 51.7036C50.9527 51.6222 51.4235 51.4886 51.8769 51.3026C51.9757 51.2619 52.0512 51.1747 52.0222 51.0584C51.9989 50.9655 51.8769 50.8725 51.7781 50.9131Z" fill="#BDAFA4"/>
<path d="M51.6441 52.2144C51.2547 52.4992 50.7955 52.6561 50.3073 52.6619C50.0515 52.6619 50.0457 53.063 50.3073 53.063C50.8536 53.0572 51.4 52.8828 51.8417 52.5631C51.9289 52.4992 51.9754 52.3888 51.9173 52.29C51.865 52.2028 51.7313 52.1505 51.6441 52.2144Z" fill="#BDAFA4"/>
<path d="M44.7391 51.122C44.2393 50.6629 43.7685 50.1746 43.3209 49.6573C43.2512 49.576 43.1117 49.5876 43.0361 49.6573C42.9548 49.7387 42.9664 49.855 43.0361 49.9421C43.4779 50.4594 43.9545 50.9477 44.4543 51.4068C44.6403 51.5812 44.9251 51.2964 44.7333 51.122H44.7391Z" fill="#BDAFA4"/>
<path d="M50.6444 56.144C50.0748 55.8359 49.2902 55.9173 48.7031 56.1323C48.0987 56.3532 47.5465 56.6903 47.006 57.0449C46.663 56.3706 46.2504 55.7429 45.7796 55.1559C45.2681 54.5224 44.6113 53.6912 43.7337 53.6156C42.734 53.5285 42.1585 54.534 42.4492 55.4174C42.6933 56.173 43.3094 56.8531 43.9022 57.3645C44.4486 57.8353 45.0589 58.2073 45.7214 58.4863C45.7912 58.7362 46.0237 58.9338 46.2911 58.9338C47.6221 58.9222 49.0286 58.8583 50.1271 58.0155C50.6328 57.6319 51.557 56.638 50.6444 56.1498V56.144Z" fill="#7FAD23"/>
<path d="M73.661 24.9385C73.7075 22.7764 71.3942 21.6953 69.5169 21.736C67.3547 21.7767 64.931 22.7822 63.7744 24.6886C62.7456 26.3858 62.7108 29.1989 64.809 30.1114C65.9366 30.5996 67.2734 30.2509 68.4591 29.6406C68.9066 29.5186 69.3425 29.3733 69.7378 29.2105C71.5454 28.4782 73.6145 27.0774 73.661 24.9327V24.9385Z" fill="#F0DFD1"/>
<path d="M68.1102 20.8351C67.4883 21.4454 67.0001 22.1661 66.6804 22.974C66.5816 23.2123 66.9594 23.3402 67.0582 23.1019C67.3546 22.3637 67.8022 21.6895 68.3718 21.1373C68.552 20.9572 68.2962 20.6549 68.1102 20.8351Z" fill="#BDAFA4"/>
<path d="M70.1387 21.2247C70.0922 21.1375 69.9643 21.0736 69.8713 21.1317C69.2087 21.5444 68.6333 22.0849 68.1974 22.7301C68.0521 22.9451 68.3834 23.166 68.5287 22.9568C68.9297 22.3697 69.4471 21.864 70.0515 21.4921C70.1445 21.4339 70.191 21.3293 70.1445 21.2247H70.1387Z" fill="#BDAFA4"/>
<path d="M72.3472 21.4452C71.4696 21.8172 70.6966 22.3868 70.0689 23.1017C69.9991 23.1831 70.0398 23.3226 70.1211 23.3807C70.22 23.4446 70.3246 23.4097 70.4001 23.3284C70.9813 22.6658 71.7137 22.1485 72.5216 21.8056C72.7599 21.7068 72.5797 21.3464 72.3472 21.4452Z" fill="#BDAFA4"/>
<path d="M74.3989 23.1429C74.3756 23.0266 74.271 22.9743 74.1664 22.986C73.3178 23.079 72.4925 23.3173 71.7253 23.6892C71.4928 23.7997 71.6671 24.16 71.8996 24.0496C72.6378 23.6892 73.4282 23.4684 74.242 23.3812C74.3466 23.3696 74.4163 23.2475 74.3989 23.1487V23.1429Z" fill="#BDAFA4"/>
<path d="M74.7245 25.4505C74.1259 25.2006 73.4808 25.0495 72.8298 25.003C72.5741 24.9856 72.5508 25.3866 72.8065 25.404C73.4226 25.4447 74.0271 25.59 74.5967 25.8283C74.6955 25.869 74.8176 25.7993 74.8525 25.7063C74.8873 25.5958 74.8292 25.497 74.7304 25.4505H74.7245Z" fill="#BDAFA4"/>
<path d="M72.946 27.1702L71.5627 26.4843C71.4639 26.4378 71.3418 26.5134 71.3069 26.6064C71.2662 26.7168 71.336 26.8098 71.429 26.8621L72.8123 27.548C72.9111 27.5945 73.0331 27.5189 73.068 27.4259C73.1087 27.3155 73.039 27.2225 72.946 27.1702Z" fill="#BDAFA4"/>
<path d="M72.1439 28.8963C71.6557 28.5476 71.1616 28.1988 70.6734 27.8501C70.4642 27.699 70.2375 28.0303 70.4467 28.1814C70.9349 28.5301 71.429 28.8789 71.9172 29.2218C72.1265 29.3729 72.3532 29.0416 72.1439 28.8905V28.8963Z" fill="#BDAFA4"/>
<path d="M70.3942 29.4256C70.2257 29.3791 70.0571 29.3152 69.9002 29.2455C69.8653 29.228 69.8304 29.2106 69.7955 29.199C69.7897 29.199 69.7607 29.1815 69.7549 29.1757C69.7316 29.1641 69.7142 29.1525 69.691 29.1408C69.6154 29.1002 69.5398 29.0537 69.4643 29.0072C69.3771 28.949 69.2434 28.9665 69.1853 29.0595C69.1271 29.1467 69.1446 29.2745 69.2376 29.3385C69.5514 29.5419 69.9002 29.7046 70.2605 29.8093C70.3594 29.8383 70.4814 29.7918 70.5163 29.6872C70.5453 29.5884 70.4988 29.4663 70.3942 29.4315V29.4256Z" fill="#BDAFA4"/>
<path d="M69.162 30.1983C68.7203 29.9077 68.3483 29.5241 68.0693 29.0766C68.0112 28.9836 67.9066 28.9371 67.802 28.9836C67.7148 29.0301 67.6509 29.1579 67.709 29.2509C68.0228 29.7624 68.4355 30.1983 68.9354 30.5296C69.0225 30.5878 69.1504 30.5645 69.2144 30.4773C69.2725 30.3901 69.255 30.2623 69.162 30.1983Z" fill="#BDAFA4"/>
<path d="M66.6513 30.1001C66.3956 29.763 66.0469 29.4782 65.7098 29.2166C65.1692 28.804 64.5647 28.4785 63.9254 28.2402C63.9661 28.1007 63.9951 27.9496 64.03 27.8159C64.2567 26.8627 64.4776 25.8397 64.3962 24.8575C64.3555 24.3634 64.2276 24.0147 63.722 23.8054C63.1756 23.5788 62.6758 24.3518 62.3735 24.7703C61.74 25.6595 61.4552 27.1242 61.6877 29.0597C61.9202 30.9952 64.8437 31.588 65.5819 31.6985C66.3201 31.8089 66.7734 31.9135 66.9826 31.3555C67.1454 30.9254 66.9071 30.4372 66.6455 30.0943L66.6513 30.1001Z" fill="#7FAD23"/>
<path d="M45.8726 57.0624C45.7679 56.9403 45.6517 56.8299 45.5122 56.7427C45.2972 56.5974 45.0588 56.5741 44.8089 56.609C44.6055 56.6381 44.4311 56.8357 44.373 57.0275C44.2568 57.4285 44.3846 57.8296 44.5358 58.2074C44.6694 58.5387 44.8612 58.8351 45.0879 59.1141C45.0937 59.1199 45.1054 59.1257 45.1112 59.1373C45.2274 59.2768 45.3843 59.3815 45.5703 59.4454C45.9481 59.5791 46.355 59.3698 46.4538 58.9804C46.5352 58.6607 46.5003 58.2829 46.3899 57.9691C46.2678 57.632 46.0992 57.3414 45.8667 57.0682L45.8726 57.0624Z" fill="#916B49"/>
<path d="M12.0233 65.0926C12.9994 64.1954 12.7428 62.3282 11.4502 60.922C10.1576 59.5159 8.3186 59.1033 7.34257 60.0005C6.36654 60.8977 6.62314 62.7649 7.9157 64.171C9.20826 65.5772 11.0473 65.9898 12.0233 65.0926Z" fill="#FFEDDE"/>
<path d="M29.4529 83.3608C29.7088 82.4825 28.8868 81.4706 27.6171 81.1007C26.3473 80.7309 25.1106 81.1431 24.8547 82.0214C24.5989 82.8998 25.4208 83.9116 26.6906 84.2815C27.9603 84.6514 29.1971 84.2392 29.4529 83.3608Z" fill="#FFEDDE"/>
<path d="M49.0448 52.5315C49.1887 50.7075 48.566 49.1705 47.6539 49.0986C46.7419 49.0266 45.886 50.447 45.7421 52.271C45.5982 54.095 46.2209 55.632 47.1329 55.704C48.0449 55.7759 48.9009 54.3556 49.0448 52.5315Z" fill="#FFEDDE"/>
<path d="M62.1393 39.9295C62.5212 38.3079 62.1088 36.8233 61.2183 36.6136C60.3278 36.4039 59.2964 37.5486 58.9145 39.1702C58.5327 40.7918 58.945 42.2764 59.8355 42.4861C60.726 42.6958 61.7575 41.5512 62.1393 39.9295Z" fill="#FFEDDE"/>
<path d="M72.0934 37.7865C73.1475 36.4963 73.4277 34.9813 72.7192 34.4024C72.0108 33.8236 70.582 34.4002 69.5279 35.6903C68.4738 36.9805 68.1936 38.4956 68.902 39.0744C69.6105 39.6533 71.0393 39.0766 72.0934 37.7865Z" fill="#FFEDDE"/>
<path d="M68.6363 27.5574C70.1741 26.9163 71.1352 25.7121 70.7832 24.8677C70.4312 24.0233 68.8993 23.8584 67.3616 24.4995C65.8238 25.1405 64.8626 26.3447 65.2147 27.1891C65.5667 28.0335 67.0986 28.1984 68.6363 27.5574Z" fill="#FFEDDE"/>
<path d="M63.6365 14.649C64.5466 14.5554 65.1462 13.1361 64.9758 11.4788C64.8054 9.82154 63.9295 8.55392 63.0195 8.64748C62.1094 8.74105 61.5098 10.1604 61.6802 11.8176C61.8506 13.4749 62.7265 14.7425 63.6365 14.649Z" fill="#FFEDDE"/>
<path d="M31.4273 20.0494C31.785 18.4223 31.3507 16.944 30.4572 16.7475C29.5637 16.5511 28.5493 17.7109 28.1916 19.338C27.8338 20.9651 28.2682 22.4434 29.1617 22.6399C30.0552 22.8363 31.0695 21.6765 31.4273 20.0494Z" fill="#FFEDDE"/>
<path d="M19.5867 39.4876C20.4514 39.1888 20.7114 37.6701 20.1673 36.0955C19.6233 34.5208 18.4813 33.4865 17.6166 33.7852C16.7519 34.084 16.4919 35.6027 17.036 37.1773C17.58 38.752 18.722 39.7863 19.5867 39.4876Z" fill="#FFEDDE"/>
<path d="M32.6827 30.5574C33.468 29.772 33.7036 28.7342 33.2088 28.2394C32.7139 27.7446 31.6761 27.9801 30.8908 28.7655C30.1054 29.5508 29.8699 30.5886 30.3647 31.0835C30.8595 31.5783 31.8973 31.3427 32.6827 30.5574Z" fill="#FFEDDE"/>
<path d="M72.6337 8.21943C73.2532 6.79813 73.0755 5.34964 72.2368 4.98411C71.3982 4.61858 70.2161 5.47443 69.5966 6.89573C68.9772 8.31704 69.1548 9.76556 69.9935 10.1311C70.8322 10.4966 72.0142 9.64073 72.6337 8.21943Z" fill="#FFEDDE"/>
<path d="M25.5985 57.4875C26.6997 56.1991 26.8683 54.5358 25.9752 53.7725C25.0821 53.0092 23.4654 53.4348 22.3643 54.7233C21.2631 56.0117 21.0944 57.675 21.9875 58.4383C22.8806 59.2016 24.4973 58.7759 25.5985 57.4875Z" fill="#FFEDDE"/>
<path d="M59.3686 58.3932C61.5193 58.3932 63.2627 57.4408 63.2627 56.2659C63.2627 55.0911 61.5193 54.1387 59.3686 54.1387C57.2179 54.1387 55.4744 55.0911 55.4744 56.2659C55.4744 57.4408 57.2179 58.3932 59.3686 58.3932Z" fill="#FFEDDE"/>
<path d="M31.2441 67.2181C32.0502 67.0959 32.5609 66.0552 32.3848 64.8936C32.2088 63.732 31.4125 62.8894 30.6064 63.0116C29.8003 63.1338 29.2895 64.1746 29.4656 65.3362C29.6417 66.4977 30.4379 67.3403 31.2441 67.2181Z" fill="#FFEDDE"/>
</svg>
