<svg width="119" height="52" viewBox="0 0 119 52" fill="none" xmlns="http://www.w3.org/2000/svg">
<g filter="url(#filter0_d_108_296768)">
<path d="M115.387 39.2064C115.387 40.6521 113.495 42.4516 110.141 44.0664C106.772 45.6813 101.925 47.0963 96.0326 47.773C63.7849 51.418 3.07422 47.0655 3.07422 39.2064C3.07422 35.5306 3.68963 31.824 4.95123 28.2559C8.79758 17.3823 18.7058 7.80061 35.9066 4.32475C37.8298 3.92487 39.8453 3.61728 41.9684 3.38658C46.3994 2.89442 51.2458 2.78676 56.523 3.09436C56.8615 3.09436 57.2 3.1405 57.5538 3.15588C60.8001 3.3712 64.0157 3.75569 67.1697 4.27861C70.3545 4.80153 73.4931 5.46287 76.5394 6.26262C79.6011 7.06238 82.5704 8.00055 85.4167 9.06177C88.2477 10.1076 90.9401 11.2919 93.4941 12.5684C98.9251 15.2906 103.633 18.5204 107.264 22.1193C110.28 25.1184 112.572 28.3636 113.941 31.8087C114.88 34.1925 115.387 36.6533 115.387 39.191V39.2064Z" fill="#D47E51"/>
<path opacity="0.33" d="M107.264 22.1196C107.095 22.4733 97.171 14.0605 90.0168 17.6748C88.0629 18.6591 71.3236 29.9172 69.6927 25.1033C68.0619 20.2893 79.4932 11.6458 80.1086 9.46189C80.7087 7.27794 74.0468 7.6163 69.8774 11.9227C65.6925 16.2444 46.0916 25.1802 45.2762 23.0116C44.4607 20.843 47.9686 15.9368 49.9687 12.907C51.9688 9.89253 65.0925 3.97126 56.5229 5.12475C47.9532 6.27825 26.7829 27.0411 23.5982 20.9045C21.4134 16.6751 30.5985 7.95466 35.9219 4.34038C37.845 3.9405 39.8605 3.6329 41.9837 3.4022C46.4147 2.91004 51.2611 2.80239 56.5383 3.10998C56.8767 3.10998 57.2152 3.15612 57.5691 3.1715C60.8154 3.38682 64.0309 3.77132 67.1849 4.29424C70.3697 4.81715 73.5083 5.47849 76.5546 6.27825C79.6163 7.078 82.5857 8.01618 85.432 9.07739C88.2629 10.1232 90.9553 11.3075 93.5093 12.584C98.9403 15.3063 103.648 18.536 107.279 22.1349L107.264 22.1196Z" fill="#EDAA87"/>
<path d="M56.5231 3.10983C53.046 4.8939 48.292 7.43159 43.784 10.1692C34.9067 15.5676 26.7832 21.6426 24.2446 20.8275C26.7678 18.259 38.1684 7.03171 48.9689 2.95603C51.3844 2.90989 53.8922 2.95603 56.5231 3.10983Z" fill="#E8A787"/>
<path d="M48.9687 2.94116C38.1682 7.01684 26.7676 18.2442 24.2444 20.8126C24.1829 20.7972 24.1214 20.7665 24.0598 20.7357C24.0598 20.7357 25.2753 10.3543 41.953 3.3718C44.1839 3.12572 46.5225 2.97192 48.9534 2.92578L48.9687 2.94116Z" fill="#E39A74"/>
<path d="M76.524 6.26287C73.3393 7.9239 69.5083 10.0309 65.8466 12.261C56.8923 17.7055 48.7073 23.8267 46.2456 22.8886C49.6919 19.4435 61.1387 8.55448 71.6622 5.10938C73.3085 5.44773 74.9393 5.83223 76.5394 6.24749L76.524 6.26287Z" fill="#E8A787"/>
<path d="M71.6623 5.12495C61.1233 8.55467 49.692 19.4436 46.2456 22.9041C46.1995 22.9041 46.1687 22.8734 46.1379 22.858C46.1379 22.858 47.5072 11.2 67.1851 4.29443C68.6929 4.54051 70.2007 4.81735 71.6777 5.12495H71.6623Z" fill="#E39A74"/>
<path d="M89.4476 10.6764C81.5703 14.9982 74.1546 21.8576 70.9236 25.0259C70.8467 25.0259 70.7698 24.9797 70.7083 24.949C70.7083 24.949 71.7698 15.9363 85.4013 9.06152C86.786 9.58444 88.1245 10.1074 89.4476 10.6918V10.6764Z" fill="#E39A74"/>
<path d="M115.387 39.2064C115.387 40.6521 113.495 42.4515 110.141 44.0664C106.772 45.6813 101.925 47.0963 96.0326 47.773C63.7849 51.418 3.07422 47.0655 3.07422 39.2064C3.07422 35.5306 3.68963 31.824 4.95123 28.2559C9.92071 33.1928 20.4135 40.4829 40.2914 42.4361C68.7544 45.2199 92.2786 42.0824 113.941 31.8086C114.88 34.1925 115.387 36.6533 115.387 39.191V39.2064Z" fill="#CC794E"/>
<path d="M93.4785 12.5685C92.4631 13.1529 91.4477 13.7527 90.4322 14.3679C81.601 19.7509 73.4929 25.7952 70.9236 25.0262C74.1391 21.858 81.5549 14.9985 89.4476 10.6768C90.8323 11.2766 92.1708 11.9072 93.4785 12.5531V12.5685Z" fill="#E8A787"/>
</g>
<defs>
<filter id="filter0_d_108_296768" x="-0.27" y="-1.7" width="122.4" height="54.4" filterUnits="userSpaceOnUse" color-interpolation-filters="sRGB">
<feFlood flood-opacity="0" result="BackgroundImageFix"/>
<feColorMatrix in="SourceAlpha" type="matrix" values="0 0 0 0 0 0 0 0 0 0 0 0 0 0 0 0 0 0 127 0" result="hardAlpha"/>
<feMorphology radius="1" operator="dilate" in="SourceAlpha" result="effect1_dropShadow_108_296768"/>
<feOffset dx="0.43"/>
<feGaussianBlur stdDeviation="0.85"/>
<feComposite in2="hardAlpha" operator="out"/>
<feColorMatrix type="matrix" values="0 0 0 0 0.132578 0 0 0 0 0.132578 0 0 0 0 0.253333 0 0 0 0.54 0"/>
<feBlend mode="normal" in2="BackgroundImageFix" result="effect1_dropShadow_108_296768"/>
<feBlend mode="normal" in="SourceGraphic" in2="effect1_dropShadow_108_296768" result="shape"/>
</filter>
</defs>
</svg>
