<svg width="60" height="58" viewBox="0 0 60 58" fill="none" xmlns="http://www.w3.org/2000/svg">
<path d="M58.4549 26.9832C58.2451 26.4309 57.8944 25.9171 57.6321 25.3905C57.4977 25.1144 56.9634 21.775 54.0919 19.4503C53.7576 19.1806 53.3642 18.9879 53.0069 18.7503C52.5382 18.4389 49.6503 16.1206 46.7722 14.6725C46.4149 14.4926 45.2906 14.1715 45.048 13.844C44.5956 13.234 44.4547 12.4312 44.3498 11.7023C44.0646 9.72762 43.9269 7.71115 43.1632 5.83918C42.4912 4.18876 41.4521 2.70209 40.1376 1.47873C40.0065 1.35671 39.8557 1.20901 39.6951 1.0581C39.4296 1.03241 39.164 1.00993 38.9018 0.974609C38.3871 1.13516 37.8889 1.38241 37.4005 1.60717C37.1907 1.98285 37.0366 2.38742 36.935 2.75989C36.9186 2.83053 36.8957 2.90118 36.8825 2.97503C36.8793 2.9943 36.8695 3.00392 36.8629 3.01997C36.8629 3.02318 36.8629 3.0264 36.8629 3.02961C36.8629 3.07778 36.8629 3.12595 36.8596 3.17732C36.9907 4.94976 37.8102 6.55842 38.2396 8.26343C37.0563 7.49601 35.7943 6.85384 34.4765 6.32725C33.6898 6.01257 32.5982 5.4635 31.782 5.98367C31.2969 6.29192 31.1953 6.68687 31.2444 7.1075C31.2313 7.1942 31.2313 7.2873 31.2444 7.37721C31.4903 8.80607 31.6738 10.2446 31.8115 11.6863C31.9361 12.9931 32.0672 14.3096 32.631 15.5169C33.1293 16.5797 33.9586 17.4403 35.0699 17.8834C35.6763 18.1242 36.345 18.2141 36.9154 18.532C37.2792 18.7343 37.5775 19.0072 37.8135 19.3315C37.843 19.4086 37.8725 19.4856 37.8987 19.5595C38.2659 20.5067 38.6002 21.4636 38.9182 22.4268C37.1678 21.5342 35.3353 20.7989 33.4472 20.2274C33.0572 20.1086 32.7294 20.4008 32.6376 20.7315C32.5392 20.7315 32.4474 20.7218 32.3819 20.7251C32.1655 20.7283 31.9525 20.7347 31.7361 20.7411C31.1985 20.7572 30.6609 20.7764 30.1234 20.8021C29.1564 20.8503 28.1894 20.9145 27.2256 21.0012C25.2425 21.1746 23.2593 21.4186 21.2991 21.7493C19.4273 22.064 17.6474 22.5778 15.9265 23.3612C14.258 24.119 12.6944 25.0694 11.1537 26.0488C9.65568 27.0024 8.07244 27.9272 6.86942 29.2436C5.76802 30.451 4.85346 31.8413 4.12247 33.2926C2.70639 36.1086 1.95572 39.2425 1.97538 42.386C1.98522 44.136 2.23437 45.8956 2.73918 47.5749C2.98503 48.3905 3.24398 49.3666 3.75862 50.0634C4.3126 50.8179 5.35497 51.1229 6.11219 50.4551C6.33509 50.2592 6.23022 48.3326 6.10238 48.0854C5.19766 46.3676 6.50884 48.1014 8.30517 46.7464C8.93127 46.2744 8.12816 43.1823 8.91815 43.3043C9.83926 43.4488 10.39 44.1584 10.6391 44.9965C10.9407 46.0015 10.9472 47.0643 11.1963 48.079C11.452 49.1354 11.9863 50.0987 12.6845 50.9367C14.1695 52.7188 16.4149 53.7045 18.7324 53.8715C20.1583 53.9743 21.6269 53.7623 22.9774 53.3064C24.1181 52.9211 27.7665 52.8408 30.2709 52.2693C32.7753 51.6977 36.9973 49.8771 36.9973 49.8771C37.7152 49.5399 38.4363 49.1225 39.1837 48.8496C39.4689 48.7436 39.4394 48.8015 39.6492 48.9813C39.9114 49.2092 40.2064 49.3602 40.5637 49.3441C41.2488 49.3088 41.7635 48.6024 42.1896 48.156C42.7108 47.6134 43.2123 47.0515 43.6975 46.4767C44.7136 45.2855 45.6708 44.046 46.6214 42.8034C48.998 42.5497 50.9877 40.8094 51.5875 38.5714C52.1808 38.398 52.3218 37.7655 52.4103 37.2421C52.5808 36.2339 52.5808 35.2192 52.4169 34.2206C52.9348 34.06 53.374 33.7646 53.8166 33.4532C54.2952 33.1192 54.7705 32.8752 55.3277 32.6922C56.5012 32.3101 57.5436 31.8702 58.2451 30.8202C58.5041 30.4349 58.6614 30.0271 58.7532 29.6065C58.786 28.7427 58.7434 27.7891 58.4385 26.9832H58.4549Z" fill="#C2B290"/>
<mask id="mask0_200_28210" style="mask-type:luminance" maskUnits="userSpaceOnUse" x="1" y="0" width="58" height="54">
<path d="M58.4549 26.9832C58.2451 26.4309 57.8944 25.9171 57.6321 25.3905C57.4977 25.1144 56.9634 21.775 54.0919 19.4503C53.7576 19.1806 53.3642 18.9879 53.0069 18.7503C52.5382 18.4389 49.6503 16.1206 46.7722 14.6725C46.4149 14.4926 45.2906 14.1715 45.048 13.844C44.5956 13.234 44.4547 12.4312 44.3498 11.7023C44.0646 9.72762 43.9269 7.71115 43.1632 5.83918C42.4912 4.18876 41.4521 2.70209 40.1376 1.47873C40.0065 1.35671 39.8557 1.20901 39.6951 1.0581C39.4296 1.03241 39.164 1.00993 38.9018 0.974609C38.3871 1.13516 37.8889 1.38241 37.4005 1.60717C37.1907 1.98285 37.0366 2.38742 36.935 2.75989C36.9186 2.83053 36.8957 2.90118 36.8825 2.97503C36.8793 2.9943 36.8695 3.00392 36.8629 3.01997C36.8629 3.02318 36.8629 3.0264 36.8629 3.02961C36.8629 3.07778 36.8629 3.12595 36.8596 3.17732C36.9907 4.94976 37.8102 6.55842 38.2396 8.26343C37.0563 7.49601 35.7943 6.85384 34.4765 6.32725C33.6898 6.01257 32.5982 5.4635 31.782 5.98367C31.2969 6.29192 31.1953 6.68687 31.2444 7.1075C31.2313 7.1942 31.2313 7.2873 31.2444 7.37721C31.4903 8.80607 31.6738 10.2446 31.8115 11.6863C31.9361 12.9931 32.0672 14.3096 32.631 15.5169C33.1293 16.5797 33.9586 17.4403 35.0699 17.8834C35.6763 18.1242 36.345 18.2141 36.9154 18.532C37.2792 18.7343 37.5775 19.0072 37.8135 19.3315C37.843 19.4086 37.8725 19.4856 37.8987 19.5595C38.2659 20.5067 38.6002 21.4636 38.9182 22.4268C37.1678 21.5342 35.3353 20.7989 33.4472 20.2274C33.0572 20.1086 32.7294 20.4008 32.6376 20.7315C32.5392 20.7315 32.4474 20.7218 32.3819 20.7251C32.1655 20.7283 31.9525 20.7347 31.7361 20.7411C31.1985 20.7572 30.6609 20.7764 30.1234 20.8021C29.1564 20.8503 28.1894 20.9145 27.2256 21.0012C25.2425 21.1746 23.2593 21.4186 21.2991 21.7493C19.4273 22.064 17.6474 22.5778 15.9265 23.3612C14.258 24.119 12.6944 25.0694 11.1537 26.0488C9.65568 27.0024 8.07244 27.9272 6.86942 29.2436C5.76802 30.451 4.85346 31.8413 4.12247 33.2926C2.70639 36.1086 1.95572 39.2425 1.97538 42.386C1.98522 44.136 2.23437 45.8956 2.73918 47.5749C2.98503 48.3905 3.24398 49.3666 3.75862 50.0634C4.3126 50.8179 5.35497 51.1229 6.11219 50.4551C6.33509 50.2592 6.23022 48.3326 6.10238 48.0854C5.19766 46.3676 6.50884 48.1014 8.30517 46.7464C8.93127 46.2744 8.12816 43.1823 8.91815 43.3043C9.83926 43.4488 10.39 44.1584 10.6391 44.9965C10.9407 46.0015 10.9472 47.0643 11.1963 48.079C11.452 49.1354 11.9863 50.0987 12.6845 50.9367C14.1695 52.7188 16.4149 53.7045 18.7324 53.8715C20.1583 53.9743 21.6269 53.7623 22.9774 53.3064C24.1181 52.9211 27.7665 52.8408 30.2709 52.2693C32.7753 51.6977 36.9973 49.8771 36.9973 49.8771C37.7152 49.5399 38.4363 49.1225 39.1837 48.8496C39.4689 48.7436 39.4394 48.8015 39.6492 48.9813C39.9114 49.2092 40.2064 49.3602 40.5637 49.3441C41.2488 49.3088 41.7635 48.6024 42.1896 48.156C42.7108 47.6134 43.2123 47.0515 43.6975 46.4767C44.7136 45.2855 45.6708 44.046 46.6214 42.8034C48.998 42.5497 50.9877 40.8094 51.5875 38.5714C52.1808 38.398 52.3218 37.7655 52.4103 37.2421C52.5808 36.2339 52.5808 35.2192 52.4169 34.2206C52.9348 34.06 53.374 33.7646 53.8166 33.4532C54.2952 33.1192 54.7705 32.8752 55.3277 32.6922C56.5012 32.3101 57.5436 31.8702 58.2451 30.8202C58.5041 30.4349 58.6614 30.0271 58.7532 29.6065C58.786 28.7427 58.7434 27.7891 58.4385 26.9832H58.4549Z" fill="white"/>
</mask>
<g mask="url(#mask0_200_28210)">
<path d="M45.1922 17.0467C45.0545 17.0081 44.907 16.9632 44.7791 16.8893C44.848 16.8347 44.884 16.732 44.8021 16.6549C44.5857 16.4462 44.5136 16.1444 44.4284 15.8682C44.3333 15.5504 44.2121 15.2389 44.0809 14.9339C43.9006 13.5532 43.2516 12.2656 42.455 11.1193C41.9601 10.4032 41.4126 9.71931 40.8587 9.04502C40.3047 8.37072 39.7638 7.67074 39.1574 7.0414C38.5018 6.36068 37.6856 5.86941 36.8694 5.39098C36.6891 5.28502 36.5219 5.56117 36.7055 5.66713C36.8563 5.75704 37.0103 5.84693 37.1611 5.93684C37.112 5.99142 37.0988 6.07811 37.1611 6.15197C37.23 6.23866 37.3053 6.32216 37.3742 6.40564C37.3479 6.45059 37.3414 6.50517 37.3742 6.55655C37.4496 6.66572 37.5348 6.77168 37.6135 6.88085C37.5742 6.92902 37.5578 6.99323 37.6004 7.05424C37.6758 7.16662 37.761 7.27258 37.8397 7.37854C37.8003 7.44597 37.8036 7.54552 37.8855 7.60653C37.9249 7.63543 37.9642 7.66431 38.0068 7.69642C37.8921 7.7189 37.8036 7.86019 37.9118 7.96294C38.433 8.44458 39.0492 8.80099 39.6425 9.18951C40.1998 9.55556 40.7145 9.9762 41.1734 10.4578C42.0683 11.3922 42.7501 12.5193 43.2155 13.7137C43.3893 14.1633 43.5335 14.6224 43.6515 15.0912C43.6646 15.1972 43.6712 15.3063 43.681 15.4155C43.6974 15.6274 43.7138 15.8361 43.7433 16.0448C43.799 16.4173 43.9105 16.7898 44.1465 17.0916C44.2022 17.1623 44.2874 17.1944 44.3694 17.1494C44.4055 17.1301 44.4317 17.0884 44.4448 17.0467C44.6283 17.2072 44.8676 17.2875 45.1004 17.3549C45.3036 17.4127 45.3888 17.1045 45.1889 17.0467H45.1922Z" fill="#A39679"/>
<path d="M41.5241 24.9235C40.1211 23.9089 39.1214 22.4158 38.7149 20.7558C38.6657 20.5535 38.351 20.6402 38.4002 20.8424C38.8263 22.586 39.8851 24.1401 41.3602 25.2029C41.5307 25.3249 41.6946 25.0456 41.5241 24.9268V24.9235Z" fill="#A39679"/>
<path d="M39.0001 24.4066C38.2363 23.9538 37.4168 23.607 36.5613 23.3694C37.23 23.3823 37.8987 23.4786 38.5575 23.591C38.7641 23.6263 38.8526 23.3181 38.6461 23.2827C37.561 23.0965 36.4629 22.9616 35.3648 23.1222C35.2075 23.1447 35.2107 23.408 35.3648 23.4304C36.3613 23.591 37.3251 23.9024 38.2199 24.352C38.1773 24.3455 38.138 24.3359 38.0954 24.3327C37.8331 24.3006 37.5709 24.2878 37.3054 24.2974C36.7743 24.3167 36.2466 24.4194 35.7483 24.6024C35.5517 24.6731 35.6369 24.9845 35.8368 24.9107C36.3974 24.7052 36.9907 24.6024 37.5906 24.6153C37.8921 24.6217 38.1937 24.657 38.4887 24.7244C38.6952 24.7694 38.9247 24.8336 39.0558 24.6249C39.1017 24.5511 39.0722 24.4483 38.9968 24.4066H39.0001Z" fill="#A39679"/>
<path d="M36.2334 25.325C35.6663 25.4952 35.1222 25.736 34.6207 26.0443C34.4863 26.1278 34.5388 26.3429 34.7026 26.3429C34.8436 26.3429 34.9878 26.3397 35.1288 26.3301C34.8075 26.6447 34.3879 26.8695 34.0929 27.2131C33.9585 27.3704 34.188 27.5984 34.3257 27.4411C34.719 26.9787 35.3058 26.7282 35.6467 26.2177C35.709 26.1246 35.627 25.9608 35.5057 25.9769C35.4762 25.9801 35.4434 25.9833 35.4139 25.9865C35.7057 25.8484 36.0073 25.7296 36.3187 25.6365C36.5186 25.5755 36.4334 25.2673 36.2302 25.3283L36.2334 25.325Z" fill="#A39679"/>
<path d="M37.1349 26.6437C36.6825 26.7015 36.2367 26.785 35.7942 26.8974C35.591 26.9488 35.6762 27.2602 35.8827 27.2057C35.9515 27.1864 36.0237 27.1736 36.0925 27.1575C35.8368 27.2795 35.5844 27.4111 35.3353 27.5524C35.096 27.6873 34.86 27.8318 34.6305 27.9859C34.4469 28.1079 34.1322 28.3038 34.2961 28.5607C34.4076 28.734 34.6928 28.5735 34.5781 28.4001C34.5781 28.429 34.5879 28.4258 34.6043 28.4001C34.6207 28.3808 34.6404 28.368 34.6633 28.3552C34.7125 28.3198 34.7616 28.2877 34.8108 28.2556C34.9091 28.1914 35.0108 28.1272 35.1124 28.063C35.3025 27.9442 35.4959 27.835 35.6926 27.7258C36.099 27.5043 36.5154 27.3052 36.9448 27.1286C37.0136 27.0997 37.0595 27.0451 37.0628 26.9745C37.0857 26.9745 37.1087 26.9648 37.1316 26.9648C37.2201 26.952 37.2955 26.9006 37.2955 26.8043C37.2955 26.7272 37.2201 26.6309 37.1316 26.6437H37.1349Z" fill="#A39679"/>
<path d="M38.6592 28.5714C37.9774 28.7062 37.2955 28.8411 36.6104 28.9792C36.1515 29.0691 35.6795 29.1943 35.2075 29.2649C35.7483 28.9374 36.3089 28.642 36.8891 28.3787C37.0792 28.292 36.9153 28.0159 36.7252 28.1026C35.945 28.4558 35.1944 28.8732 34.483 29.3452C34.3552 29.4319 34.3945 29.647 34.565 29.6438C35.2566 29.6374 35.9483 29.4415 36.6203 29.3067L38.7477 28.886C38.9542 28.8443 38.8657 28.536 38.6592 28.5778V28.5714Z" fill="#A39679"/>
<path d="M39.1804 29.2002C38.0495 29.9162 36.9251 30.6355 35.8041 31.3612C35.7024 31.4254 35.6926 31.5763 35.8041 31.6373C35.9581 31.724 36.1286 31.7465 36.299 31.6919C36.4466 31.6437 36.4367 31.4639 36.3417 31.3997C37.3414 30.7543 38.3412 30.1121 39.3443 29.4764C39.5213 29.364 39.3574 29.0878 39.1804 29.2002Z" fill="#A39679"/>
<path d="M38.7247 30.3984C38.1478 30.941 37.6332 31.5414 37.1841 32.1868C37.1415 32.2479 37.1644 32.3281 37.2103 32.3827C37.3709 32.5722 37.6332 32.4084 37.8004 32.3217C38.02 32.2093 38.2363 32.0905 38.4527 31.9685C38.6362 31.8657 38.4691 31.5896 38.2888 31.6924C38.1249 31.7855 37.9577 31.8754 37.7905 31.9653C37.7708 31.9749 37.7512 31.9846 37.7315 31.9974C38.1019 31.5094 38.5117 31.0502 38.9608 30.6263C39.1148 30.4818 38.8821 30.2571 38.728 30.3984H38.7247Z" fill="#A39679"/>
<path d="M43.3467 30.3563C42.5534 30.8636 41.7601 31.3709 40.9341 31.8205C40.5276 32.042 40.1146 32.2507 39.6884 32.437C39.4688 32.5333 39.2426 32.6264 39.0164 32.7099C38.9017 32.7516 38.787 32.7934 38.6723 32.8319C38.6493 32.8383 38.6231 32.848 38.5969 32.8608C39.0132 32.4241 39.4295 31.9907 39.8491 31.5572C39.9933 31.4063 39.7639 31.1783 39.6163 31.3292C39.105 31.859 38.5969 32.3888 38.0921 32.9186C38.0232 32.9925 38.0298 33.1209 38.1248 33.1723C38.3379 33.2814 38.5444 33.2172 38.7575 33.1434C38.9903 33.0663 39.2164 32.9796 39.4426 32.8897C39.9179 32.6971 40.3834 32.4755 40.839 32.2379C41.7601 31.7531 42.6354 31.1944 43.5106 30.6357C43.6876 30.5233 43.5237 30.2439 43.3467 30.3595V30.3563Z" fill="#A39679"/>
<path d="M43.3532 31.1727C43.3008 31.1117 43.1729 31.1117 43.1205 31.1727C43.0746 31.2273 43.0287 31.2787 42.9828 31.3333C42.9664 31.3204 42.95 31.3108 42.9304 31.3076C42.8419 31.2819 42.7566 31.3365 42.7271 31.42C42.6911 31.5259 42.6911 31.6383 42.7206 31.7475C42.7534 31.8534 42.9107 31.9144 42.9926 31.8181C42.9402 32.0076 42.8877 32.1938 42.832 32.3832C42.773 32.5823 43.091 32.6658 43.1467 32.4699C43.209 32.2548 43.2713 32.0365 43.3303 31.8181C43.3598 31.7121 43.3926 31.6094 43.4155 31.5002C43.4417 31.3782 43.4319 31.269 43.3467 31.1695L43.3532 31.1727Z" fill="#A39679"/>
<path d="M44.5431 31.506C44.4546 31.5092 44.3792 31.5766 44.3792 31.6665V32.3825C44.3792 32.466 44.4546 32.5463 44.5431 32.5431C44.6316 32.5399 44.707 32.4724 44.707 32.3825V31.6665C44.707 31.583 44.6316 31.5027 44.5431 31.506Z" fill="#A39679"/>
<path d="M45.3593 31.2812C45.2643 31.2812 45.202 31.3551 45.1954 31.4418C45.1659 31.8432 45.084 32.2413 44.9627 32.6266C44.9365 32.7101 44.9955 32.8032 45.0774 32.8257C45.1659 32.8482 45.2512 32.7968 45.2807 32.7133C45.4118 32.3023 45.4937 31.8753 45.5265 31.4418C45.5331 31.3551 45.4479 31.2812 45.3626 31.2812H45.3593Z" fill="#A39679"/>
<path d="M46.959 33.5734C46.8639 33.1078 46.7033 32.4978 46.2378 32.2602C46.051 32.1638 45.8838 32.4432 46.0739 32.5363C46.2837 32.6423 46.3919 32.851 46.4738 33.0629C46.559 33.2877 46.6214 33.5221 46.664 33.7597C46.7525 34.2574 46.7557 34.7679 46.7623 35.2752C46.7623 35.4807 47.0934 35.4807 47.0901 35.2752C47.0835 34.7069 47.0737 34.1353 46.959 33.5734Z" fill="#A39679"/>
<path d="M47.5326 34.2889C47.5326 34.0834 47.2048 34.0834 47.2048 34.2889C47.2114 35.2393 47.218 36.1898 47.2245 37.137C47.2245 37.3425 47.5523 37.3425 47.5523 37.137C47.5458 36.1865 47.5392 35.2361 47.5326 34.2889Z" fill="#A39679"/>
<path d="M48.7029 35.3319C48.6832 35.1264 48.3554 35.1264 48.3751 35.3319C48.4669 36.369 48.4833 37.4093 48.4177 38.4464C48.4046 38.6519 48.7324 38.6519 48.7455 38.4464C48.8111 37.4093 48.7947 36.3658 48.7029 35.3319Z" fill="#A39679"/>
<path d="M49.9715 35.4166C49.9518 35.2143 49.624 35.2111 49.6437 35.4166C49.7256 36.2225 49.8109 37.0285 49.8928 37.8344C49.9125 38.0367 50.2403 38.0399 50.2206 37.8344C50.1387 37.0285 50.0534 36.2225 49.9715 35.4166Z" fill="#A39679"/>
<path d="M51.5318 36.6463C51.5187 36.4408 51.1909 36.4408 51.204 36.6463C51.2368 37.1986 51.1876 37.7477 51.0532 38.2839C51.0041 38.4862 51.3187 38.5697 51.3679 38.3706C51.5089 37.8087 51.5646 37.2275 51.5285 36.6463H51.5318Z" fill="#A39679"/>
<path d="M51.9186 34.2929C51.8137 34.1131 51.5285 34.2768 51.6367 34.4534C51.8923 34.8805 52.0038 35.391 51.9317 35.8823C51.9186 35.969 51.9546 36.0557 52.0464 36.0813C52.1218 36.1006 52.2365 36.0557 52.2496 35.969C52.3349 35.3878 52.2234 34.8002 51.9218 34.2929H51.9186Z" fill="#A39679"/>
<path d="M58.6188 27.4252C58.5597 27.3031 58.4876 27.1875 58.3991 27.0816C57.4944 26.0188 56.1242 27.0013 55.3146 27.6403C54.5279 28.2632 53.8919 29.1173 53.7116 30.1063C53.5051 31.2333 53.9575 32.4856 55.19 32.8035C56.2717 33.0796 57.2977 32.736 58.1074 32.0264C58.917 31.3168 59.5923 30.4113 59.6448 29.31C59.6841 28.4751 59.2907 27.743 58.622 27.4252H58.6188Z" fill="#D6CAAD"/>
<path d="M30.2315 22.0085C29.8119 22.0471 29.3956 22.0888 28.976 22.1273C28.8875 22.137 28.8121 22.1948 28.8121 22.2879C28.8121 22.3681 28.8875 22.4581 28.976 22.4484C29.3956 22.4099 29.8119 22.3681 30.2315 22.3296C30.32 22.32 30.3954 22.2622 30.3954 22.1691C30.3954 22.0888 30.32 21.9989 30.2315 22.0085Z" fill="#A1916D"/>
<path d="M28.976 23.3145C28.6417 23.3274 28.3073 23.3434 27.973 23.3563C27.8878 23.3595 27.8058 23.4269 27.8091 23.5168C27.8124 23.6003 27.8812 23.6806 27.973 23.6774C28.3073 23.6645 28.6417 23.6485 28.976 23.6356C29.0613 23.6324 29.1432 23.565 29.1399 23.4751C29.1366 23.3916 29.0678 23.3113 28.976 23.3145Z" fill="#A1916D"/>
<path d="M23.9443 23.8542C23.9181 23.7643 23.8296 23.7258 23.7411 23.7418C23.3117 23.8221 22.8987 23.9794 22.5283 24.2042C22.4529 24.2492 22.4234 24.3487 22.4693 24.4225C22.5119 24.4964 22.6168 24.5253 22.6922 24.4803C23.0429 24.2684 23.4199 24.1239 23.8263 24.0501C23.9148 24.034 23.964 23.9313 23.9411 23.851L23.9443 23.8542Z" fill="#A1916D"/>
<path d="M20.85 24.8045C20.8237 24.7114 20.7352 24.6793 20.6467 24.6922C20.2107 24.7564 19.7879 24.8752 19.3847 25.0454C19.3027 25.0807 19.2863 25.1963 19.3257 25.2637C19.3749 25.3472 19.4666 25.3568 19.5486 25.3215C19.9255 25.1642 20.3288 25.0582 20.7319 25.0004C20.8205 24.9876 20.8663 24.8784 20.8467 24.8013L20.85 24.8045Z" fill="#A1916D"/>
<path d="M17.4343 26.3841C17.3917 26.3135 17.2835 26.275 17.2113 26.3263C16.7787 26.6282 16.3493 26.93 15.9166 27.2318C15.8444 27.2832 15.8116 27.3731 15.8575 27.4502C15.9002 27.5208 16.0083 27.5593 16.0805 27.508C16.5132 27.2061 16.9426 26.9043 17.3752 26.6025C17.4474 26.5511 17.4802 26.4612 17.4343 26.3841Z" fill="#A1916D"/>
<path d="M20.3124 23.3631C19.483 23.3439 18.6537 23.4787 17.8801 23.7709C17.6834 23.8448 17.7686 24.153 17.9686 24.0792C18.7193 23.7998 19.5125 23.665 20.3124 23.6842C20.5222 23.6906 20.5222 23.3696 20.3124 23.3631Z" fill="#A1916D"/>
<path d="M22.3971 27.9066C22.3742 27.8295 22.2791 27.7653 22.1939 27.7942C21.735 27.9579 21.2728 28.1217 20.8139 28.2855C20.7319 28.3143 20.6762 28.3946 20.6991 28.4845C20.722 28.5616 20.8171 28.6258 20.9023 28.5969C21.3613 28.4331 21.8235 28.2694 22.2824 28.1057C22.3643 28.0768 22.4201 27.9965 22.3971 27.9066Z" fill="#A1916D"/>
<path d="M26.983 26.3908C26.9338 26.3105 26.8388 26.2977 26.7601 26.333C26.2848 26.5385 25.8128 26.744 25.3375 26.9463C25.2555 26.9816 25.2391 27.0972 25.2785 27.1646C25.3276 27.2449 25.4227 27.2578 25.5014 27.2224C25.9767 27.0169 26.4487 26.8114 26.924 26.6092C27.0059 26.5738 27.0223 26.4582 26.983 26.3908Z" fill="#A1916D"/>
<path d="M28.6384 29.3509C28.0156 29.5243 27.4222 29.794 26.8846 30.1472C26.7109 30.2628 26.8748 30.539 27.0485 30.4234C27.5632 30.083 28.127 29.8261 28.7236 29.6592C28.9268 29.6014 28.8383 29.2931 28.6351 29.3509H28.6384Z" fill="#A1916D"/>
<path d="M27.4878 31.0697C27.4452 30.999 27.337 30.9605 27.2649 31.0119C26.688 31.4132 26.1406 31.8531 25.6292 32.338C25.4784 32.4825 25.7079 32.7073 25.8619 32.566C26.3503 32.1036 26.8748 31.6765 27.4288 31.2912C27.5009 31.2398 27.5337 31.15 27.4878 31.0729V31.0697Z" fill="#A1916D"/>
<path d="M30.6937 32.8545C29.943 33.3297 29.2186 33.8435 28.5236 34.3893C28.4548 34.4439 28.4679 34.5595 28.5236 34.6173C28.5925 34.6847 28.6876 34.6719 28.7564 34.6173C29.4317 34.0875 30.1331 33.5898 30.8608 33.1307C31.0379 33.0183 30.874 32.7421 30.6969 32.8545H30.6937Z" fill="#A1916D"/>
<path d="M32.8604 34.3994C32.7916 34.332 32.6965 34.3448 32.6277 34.3994C32.1622 34.7719 31.7098 35.1668 31.2804 35.5778C31.1296 35.7223 31.3623 35.9503 31.5131 35.8058C31.9458 35.3948 32.3949 34.9998 32.8604 34.6274C32.9293 34.5728 32.9194 34.4572 32.8604 34.3994Z" fill="#A1916D"/>
<path d="M31.3198 24.7941C30.7953 24.8616 30.2774 24.9707 29.7693 25.1281C29.5693 25.1891 29.6546 25.5005 29.8578 25.4363C30.3364 25.2886 30.8248 25.1794 31.3198 25.1152C31.4083 25.1024 31.4837 25.051 31.4837 24.9547C31.4837 24.8776 31.4083 24.7813 31.3198 24.7941Z" fill="#A1916D"/>
<path d="M32.1885 25.5723C32.1753 25.5338 32.1524 25.4952 32.1131 25.4759C32.1 25.4695 32.0868 25.4663 32.0737 25.4599C32.0442 25.4535 32.0147 25.4535 31.9852 25.4599C31.8869 25.4727 31.7885 25.4856 31.6935 25.5016C31.6541 25.5081 31.6148 25.5434 31.5951 25.5755C31.5755 25.6108 31.5656 25.6622 31.5788 25.7007C31.5919 25.7392 31.6148 25.7778 31.6541 25.797C31.6673 25.8035 31.6804 25.8067 31.6935 25.8131C31.723 25.8195 31.7525 25.8195 31.782 25.8131C31.8803 25.8003 31.9787 25.7874 32.0737 25.7714C32.1131 25.7649 32.1524 25.7296 32.1721 25.6975C32.1917 25.6622 32.2016 25.6108 32.1885 25.5723Z" fill="#A1916D"/>
<path d="M32.867 22.3761C32.631 22.3632 32.3917 22.3504 32.1557 22.3343C32.0705 22.3279 31.9885 22.4114 31.9918 22.4949C31.9951 22.5848 32.0639 22.649 32.1557 22.6554C32.3917 22.6683 32.631 22.6811 32.867 22.6972C32.9522 22.7036 33.0342 22.6201 33.0309 22.5366C33.0276 22.4467 32.9588 22.3825 32.867 22.3761Z" fill="#A1916D"/>
<path d="M36.5219 34.753C36.4728 34.6792 36.3777 34.6503 36.299 34.6953C35.9385 34.9008 35.6303 35.1897 35.4041 35.5333C35.3582 35.6039 35.3878 35.7131 35.4631 35.7516C35.5451 35.7934 35.6369 35.7709 35.6861 35.6938C35.7123 35.6553 35.7385 35.6168 35.768 35.5783C35.7746 35.5686 35.7811 35.559 35.7877 35.5525C35.7877 35.5525 35.7877 35.5525 35.7877 35.5493C35.8041 35.5301 35.8205 35.5108 35.8368 35.4916C35.8958 35.4209 35.9614 35.3535 36.0302 35.2893C36.063 35.2572 36.0958 35.2283 36.1319 35.1994C36.1515 35.1833 36.1712 35.1672 36.1908 35.1512C36.1908 35.1512 36.2007 35.1448 36.2073 35.1384C36.2138 35.1352 36.2236 35.1255 36.2236 35.1255C36.299 35.0677 36.381 35.0163 36.4629 34.9714C36.5383 34.9296 36.5711 34.8237 36.5219 34.753Z" fill="#A1916D"/>
<path d="M36.3744 35.7976C36.2925 35.7494 36.2007 35.7847 36.1515 35.8554C35.7352 36.4301 35.3222 37.0081 34.9059 37.5829C34.8535 37.6535 34.8928 37.7626 34.9649 37.8012C35.0468 37.8493 35.1386 37.814 35.1878 37.7434C35.6041 37.1686 36.0171 36.5907 36.4334 36.0159C36.4859 35.9453 36.4465 35.8361 36.3744 35.7976Z" fill="#A1916D"/>
<path d="M46.3853 16.9317C46.2968 16.9189 46.2116 16.8996 46.1264 16.8707C46.1165 16.8675 46.1034 16.8643 46.0936 16.8579C46.087 16.8579 46.0837 16.8547 46.0805 16.8515C46.0608 16.8418 46.0411 16.8354 46.0247 16.8258C45.9854 16.8065 45.9461 16.784 45.9067 16.7616C45.8903 16.7519 45.8707 16.7391 45.8543 16.7262C45.8444 16.7198 45.8346 16.7134 45.8248 16.707C45.8248 16.707 45.8182 16.7006 45.8149 16.6973C45.7822 16.6717 45.7494 16.6428 45.7199 16.6139C45.6871 16.585 45.6576 16.5529 45.6281 16.5175C45.6281 16.5175 45.6019 16.4854 45.615 16.5015C45.6281 16.5175 45.6019 16.4854 45.6019 16.4854C45.5888 16.4662 45.5757 16.4469 45.5626 16.4276C45.5167 16.357 45.415 16.3217 45.3396 16.3698C45.2675 16.4148 45.2315 16.5143 45.2806 16.5882C45.5101 16.9317 45.8838 17.179 46.3001 17.2336C46.3853 17.2464 46.4804 17.2143 46.5033 17.1212C46.5197 17.0441 46.4804 16.935 46.3886 16.9221L46.3853 16.9317Z" fill="#A1916D"/>
<path d="M46.8442 15.6209C46.4771 15.547 46.1526 15.4218 45.8379 15.2292C45.7658 15.1842 45.6543 15.2099 45.615 15.2869C45.5724 15.364 45.5953 15.4603 45.674 15.5053C46.0084 15.7076 46.3755 15.8521 46.759 15.9291C46.8442 15.9452 46.9393 15.9067 46.9622 15.8168C46.9819 15.7365 46.936 15.6369 46.8475 15.6177L46.8442 15.6209Z" fill="#A1916D"/>
<path d="M48.103 17.092L47.1819 16.8512C47.0999 16.8287 47.0016 16.8769 46.9787 16.9636C46.959 17.0471 47.0049 17.137 47.0934 17.1627C47.4015 17.2429 47.7097 17.3232 48.0145 17.4035C48.0965 17.426 48.1948 17.3778 48.2177 17.2911C48.2374 17.2076 48.1915 17.1177 48.103 17.092Z" fill="#A1916D"/>
<path d="M48.9684 17.4927C48.9552 17.4542 48.9323 17.4156 48.893 17.3964C48.8569 17.3771 48.8077 17.3643 48.7651 17.3803C48.6963 17.406 48.6274 17.4253 48.5553 17.4349C48.4799 17.4445 48.4046 17.4445 48.3292 17.4349C48.3095 17.4317 48.2898 17.4285 48.2701 17.4253C48.1882 17.406 48.0899 17.451 48.0669 17.5377C48.0472 17.6179 48.0932 17.7143 48.1817 17.7367C48.4046 17.7849 48.6406 17.7753 48.8536 17.6918C48.8962 17.6757 48.929 17.6565 48.952 17.6179C48.9717 17.5826 48.9815 17.5312 48.9684 17.4927Z" fill="#A1916D"/>
<path d="M49.27 16.4562C48.9914 16.2796 48.7095 16.1062 48.4308 15.9296C48.3587 15.8847 48.2473 15.9136 48.2079 15.9874C48.1653 16.0677 48.1883 16.1576 48.2669 16.2058C48.5456 16.3824 48.8275 16.5558 49.1061 16.7324C49.1782 16.7773 49.2897 16.7484 49.329 16.6746C49.3716 16.5943 49.3487 16.5044 49.27 16.4562Z" fill="#A1916D"/>
<path d="M39.5311 34.6838C39.023 35.1398 38.5674 35.6439 38.1576 36.1865C38.1052 36.2572 38.1445 36.3663 38.2166 36.4049C38.2986 36.453 38.3871 36.4177 38.4395 36.3471C38.8329 35.8269 39.2754 35.3485 39.7606 34.9118C39.9146 34.7705 39.6852 34.5458 39.5278 34.6838H39.5311Z" fill="#A1916D"/>
<path d="M42.1437 34.1037C42.0814 34.0459 41.9732 34.0362 41.911 34.1037C41.7438 34.2803 41.5766 34.4601 41.4094 34.6367C41.3504 34.6977 41.3439 34.8037 41.4094 34.8647C41.4717 34.9225 41.5799 34.9321 41.6421 34.8647C41.8093 34.6881 41.9765 34.5083 42.1437 34.3317C42.2027 34.2707 42.2092 34.1647 42.1437 34.1037Z" fill="#A1916D"/>
<path d="M43.822 33.288C43.7564 33.2302 43.6548 33.2238 43.5893 33.288C43.3205 33.5513 43.0746 33.837 42.8517 34.1388C42.8025 34.2063 42.8386 34.3219 42.9107 34.3572C42.9959 34.4022 43.0812 34.3732 43.1336 34.2994C43.1598 34.2641 43.1861 34.2288 43.2123 34.1967C43.2254 34.1806 43.2385 34.1613 43.2516 34.1453C43.2516 34.1453 43.2516 34.1421 43.2549 34.1388C43.2615 34.1292 43.2713 34.1196 43.2778 34.11C43.3335 34.0393 43.3926 33.9719 43.4483 33.9044C43.5663 33.7696 43.6876 33.6412 43.8154 33.5159C43.8777 33.4549 43.881 33.349 43.8154 33.288H43.822Z" fill="#A1916D"/>
<path d="M44.8676 35.34C44.8086 35.2822 44.6939 35.2726 44.6349 35.34C44.2678 35.7671 43.9105 36.2005 43.5663 36.6469C43.5138 36.7175 43.5565 36.8267 43.6253 36.8652C43.7105 36.9134 43.7957 36.8781 43.8482 36.8074C44.176 36.3836 44.5137 35.9726 44.8644 35.5648C44.9201 35.4974 44.93 35.4043 44.8644 35.3368L44.8676 35.34Z" fill="#A1916D"/>
<path d="M40.272 25.2991C39.718 25.1258 39.1378 25.0391 38.5576 25.0391C38.3478 25.0391 38.3478 25.3602 38.5576 25.3602C39.1115 25.3602 39.659 25.4469 40.1867 25.6106C40.3867 25.6748 40.4752 25.3634 40.2752 25.3024L40.272 25.2991Z" fill="#A1916D"/>
<path d="M40.2752 26.8912C39.8524 26.7595 39.4196 26.6632 38.9771 26.6022C38.8886 26.5893 38.8001 26.6247 38.7739 26.7146C38.7542 26.7884 38.8001 26.9008 38.8886 26.9136C39.3279 26.9746 39.7606 27.071 40.1867 27.2026C40.3867 27.2636 40.4752 26.9554 40.2752 26.8944V26.8912Z" fill="#A1916D"/>
<path d="M40.6096 28.5705C40.3572 28.5416 40.108 28.5159 39.8556 28.487C39.7704 28.4774 39.6885 28.5673 39.6917 28.6476C39.695 28.7439 39.7639 28.7985 39.8556 28.8081C40.108 28.837 40.3572 28.8627 40.6096 28.8916C40.6948 28.9013 40.7767 28.8113 40.7735 28.7311C40.7702 28.6347 40.7013 28.5802 40.6096 28.5705Z" fill="#A1916D"/>
<path d="M42.6944 28.0834C42.6649 27.9999 42.5829 27.9518 42.4911 27.971C42.324 28.0096 42.1568 28.0513 41.9863 28.0898C41.9044 28.1091 41.8454 28.2054 41.8716 28.2889C41.9011 28.3724 41.9831 28.4205 42.0749 28.4013C42.242 28.3627 42.4092 28.321 42.5796 28.2825C42.6616 28.2632 42.7206 28.1669 42.6944 28.0834Z" fill="#A1916D"/>
<path d="M45.4019 38.3168C45.3921 38.2301 45.3331 38.1562 45.238 38.1562C45.1561 38.1562 45.0643 38.2301 45.0741 38.3168C45.12 38.7214 45.0151 39.1452 44.7529 39.4728C44.6972 39.5402 44.6841 39.6333 44.7529 39.7007C44.8086 39.7553 44.9299 39.7682 44.9857 39.7007C45.2971 39.309 45.4577 38.8145 45.4019 38.3168Z" fill="#A1916D"/>
<path d="M47.1753 39.2883C47.1032 39.2465 46.9918 39.269 46.9525 39.3461C46.7164 39.786 46.4509 40.2098 46.1559 40.6144C46.1034 40.685 46.1428 40.7942 46.2149 40.8327C46.2969 40.8809 46.3886 40.8456 46.4378 40.7749C46.7328 40.3704 46.9983 39.9465 47.2344 39.5066C47.2737 39.4296 47.254 39.3332 47.1753 39.2883Z" fill="#A1916D"/>
<path d="M49.0667 38.8101C48.9585 39.1794 48.8537 39.5518 48.7455 39.9211C48.6898 40.1201 49.0044 40.2068 49.0601 40.0078C49.1683 39.6385 49.2732 39.2661 49.3814 38.8968C49.4371 38.6977 49.1224 38.611 49.0667 38.8101Z" fill="#A1916D"/>
<path d="M46.7197 36.8907C46.6345 36.8939 46.5525 36.9614 46.5558 37.0513C46.5558 37.1219 46.5558 37.1893 46.5558 37.26C46.5558 37.276 46.5558 37.2889 46.5525 37.3049C46.5525 37.3082 46.5493 37.3403 46.546 37.3435C46.5427 37.3724 46.5361 37.4012 46.5296 37.4301C46.5165 37.4944 46.4968 37.5586 46.4771 37.6228C46.4673 37.6549 46.4542 37.687 46.4411 37.7191C46.4411 37.7255 46.4411 37.7256 46.4411 37.7256C46.4411 37.7256 46.4411 37.7256 46.4378 37.7352C46.4279 37.7545 46.4214 37.7705 46.4116 37.7898C46.3755 37.8668 46.3886 37.9664 46.4706 38.0081C46.5427 38.0466 46.6541 38.0306 46.6935 37.9503C46.8311 37.671 46.9033 37.3627 46.8869 37.0513C46.8836 36.9678 46.8147 36.8875 46.723 36.8907H46.7197Z" fill="#A1916D"/>
<path d="M44.9988 42.936C44.9234 42.8975 44.8152 42.9135 44.7759 42.9938C44.6218 43.2956 44.4415 43.5846 44.235 43.8543C44.1826 43.9218 44.2219 44.0374 44.294 44.0727C44.3792 44.1176 44.4645 44.0855 44.5169 44.0149C44.7234 43.7452 44.907 43.4562 45.0578 43.1544C45.0971 43.0805 45.0807 42.9777 44.9988 42.936Z" fill="#A1916D"/>
<path d="M41.7798 37.2586C41.6421 37.7756 41.3274 38.2476 40.8882 38.5687C40.8161 38.62 40.78 38.7068 40.8292 38.787C40.8685 38.8545 40.9833 38.8962 41.0521 38.8448C41.5602 38.4723 41.9339 37.9458 42.0945 37.3421C42.1469 37.143 41.8322 37.0563 41.7798 37.2554V37.2586Z" fill="#A1916D"/>
<path d="M39.577 36.9667C39.5311 36.8961 39.4295 36.8607 39.3541 36.9089C39.0394 37.1112 38.7739 37.3873 38.5936 37.7116C38.5543 37.7855 38.5739 37.8914 38.6526 37.93C38.728 37.9685 38.8329 37.9524 38.8755 37.8722C38.9149 37.7983 38.9607 37.7277 39.0099 37.6603C39.023 37.6442 39.0329 37.6282 39.046 37.6121C39.0525 37.6057 39.0591 37.596 39.0656 37.5896C39.0919 37.5575 39.1214 37.5254 39.1509 37.4933C39.2066 37.4323 39.2656 37.3777 39.3312 37.3231C39.3476 37.3103 39.3639 37.2974 39.3803 37.2846C39.3803 37.2846 39.3836 37.2814 39.3869 37.2782C39.3934 37.2717 39.4033 37.2653 39.4098 37.2621C39.4459 37.2364 39.4819 37.2139 39.518 37.1882C39.5901 37.1433 39.6262 37.0438 39.577 36.9699V36.9667Z" fill="#A1916D"/>
<path d="M43.0615 40.2529C43.0058 40.1983 42.8844 40.1855 42.8287 40.2529C42.4288 40.7474 42.0256 41.2419 41.6257 41.7364C41.57 41.8038 41.5569 41.8969 41.6257 41.9643C41.6815 42.0189 41.8027 42.0318 41.8585 41.9643C42.2584 41.4698 42.6616 40.9754 43.0615 40.4809C43.1172 40.4134 43.1303 40.3203 43.0615 40.2529Z" fill="#A1916D"/>
<path d="M31.2346 27.877C30.8215 27.9283 30.4151 28.0086 30.0184 28.1242C29.9332 28.1499 29.8808 28.2366 29.9037 28.3233C29.9267 28.4068 30.0217 28.4613 30.1069 28.4357C30.4774 28.3297 30.8543 28.2462 31.2346 28.2013C31.3231 28.1916 31.3985 28.1338 31.3985 28.0407C31.3985 27.9637 31.3231 27.8705 31.2346 27.8802V27.877Z" fill="#A1916D"/>
<path d="M32.49 30.4146C31.8902 30.3568 31.2903 30.3536 30.6904 30.4081C30.6019 30.4178 30.5265 30.4756 30.5265 30.5687C30.5265 30.649 30.6019 30.7389 30.6904 30.7292C31.2903 30.6747 31.8902 30.6747 32.49 30.7357C32.5785 30.7453 32.6539 30.6554 32.6539 30.5751C32.6539 30.482 32.5785 30.4242 32.49 30.4146Z" fill="#A1916D"/>
<path d="M33.6537 31.9332C33.6242 31.8465 33.5422 31.8016 33.4504 31.8208C33.2275 31.8722 33.0014 31.9203 32.7785 31.9717C32.6933 31.991 32.6375 32.0905 32.6637 32.1708C32.6932 32.2575 32.7752 32.3025 32.867 32.2832C33.0899 32.2318 33.3161 32.1836 33.539 32.1323C33.6242 32.113 33.6799 32.0135 33.6537 31.9332Z" fill="#A1916D"/>
<path d="M23.6788 30.2502C23.6297 30.1699 23.5346 30.1571 23.4559 30.1924C23.0626 30.369 22.6856 30.5713 22.3218 30.7961C22.2464 30.841 22.2168 30.9405 22.2627 31.0144C22.3054 31.0882 22.4103 31.1171 22.4857 31.0722C22.8495 30.8474 23.2297 30.6451 23.6198 30.4685C23.7018 30.4332 23.7215 30.3176 23.6788 30.2502Z" fill="#A1916D"/>
<path d="M23.1904 32.8247C23.1773 32.7862 23.1543 32.7477 23.115 32.7284C23.0789 32.7092 23.0298 32.6963 22.9872 32.7123C22.82 32.7798 22.6528 32.8504 22.4857 32.9179C22.443 32.9339 22.4102 32.9532 22.3873 32.9917C22.3676 33.027 22.3578 33.0784 22.3709 33.1169C22.384 33.1555 22.407 33.194 22.4463 33.2132C22.4824 33.2325 22.5316 33.2454 22.5742 33.2293C22.7413 33.1619 22.9085 33.0912 23.0757 33.0238C23.1183 33.0077 23.1511 32.9885 23.174 32.95C23.1937 32.9146 23.2035 32.8633 23.1904 32.8247Z" fill="#A1916D"/>
<path d="M7.93468 30.829C7.64622 31.0922 7.38068 31.3812 7.13811 31.6863C6.90865 31.9785 6.61693 32.3156 6.62021 32.7041C6.62021 32.9096 6.948 32.9096 6.948 32.7041C6.948 32.5404 7.02668 32.3959 7.11846 32.261C7.2168 32.1133 7.32169 31.972 7.43314 31.834C7.65604 31.5578 7.90188 31.2977 8.1674 31.0537C8.32147 30.9124 8.08874 30.6845 7.93468 30.8257V30.829Z" fill="#A1916D"/>
<path d="M10.0916 32.5068C10.0228 32.4394 9.92771 32.4522 9.85887 32.5068C9.42946 32.8504 9.03611 33.2325 8.68209 33.6499C8.62637 33.7174 8.61653 33.8105 8.68209 33.8779C8.7411 33.9357 8.85581 33.9453 8.91482 33.8779C9.26884 33.4605 9.66218 33.0784 10.0916 32.7348C10.1604 32.6802 10.1506 32.5646 10.0916 32.5068Z" fill="#A1916D"/>
<path d="M12.242 33.106C11.7142 33.3885 11.2291 33.7514 10.8128 34.1816C10.6686 34.3325 10.898 34.5573 11.0455 34.4096C11.4422 33.9986 11.9011 33.655 12.4059 33.3853C12.5927 33.2858 12.4256 33.0097 12.242 33.1092V33.106Z" fill="#A1916D"/>
<path d="M14.9004 31.8917C14.8414 31.8404 14.7267 31.8211 14.6677 31.8917C14.471 32.1358 14.2743 32.383 14.0809 32.6271C14.0514 32.6624 14.0317 32.6945 14.0317 32.7394C14.0317 32.778 14.0481 32.8261 14.0809 32.8518C14.1399 32.9032 14.2546 32.9224 14.3136 32.8518C14.5103 32.6078 14.707 32.3606 14.9004 32.1165C14.9299 32.0812 14.9496 32.0491 14.9496 32.0042C14.9496 31.9656 14.9332 31.9174 14.9004 31.8917Z" fill="#A1916D"/>
<path d="M12.9893 28.3711C12.3206 28.5509 11.6618 28.766 11.0193 29.0165C10.9374 29.0486 10.8783 29.1225 10.9046 29.2156C10.9275 29.2926 11.0226 29.3601 11.1078 29.3279C11.7535 29.0775 12.4091 28.8624 13.0779 28.6825C13.2811 28.628 13.1959 28.3165 12.9893 28.3743V28.3711Z" fill="#A1916D"/>
<path d="M19.8666 32.292C19.8174 32.2085 19.7223 32.1989 19.6436 32.2342C19.2437 32.4044 18.8537 32.597 18.4767 32.8153C18.4013 32.8603 18.3718 32.9598 18.4177 33.0337C18.4636 33.1075 18.5652 33.1364 18.6406 33.0915C19.0176 32.8763 19.4076 32.6805 19.8075 32.5103C19.8895 32.475 19.9059 32.3594 19.8666 32.292Z" fill="#A1916D"/>
<path d="M18.3259 29.474C18.2833 29.4033 18.1751 29.3648 18.103 29.4162C17.726 29.6763 17.3491 29.9364 16.9754 30.1964C16.9033 30.2478 16.8705 30.3377 16.9164 30.4148C16.959 30.4854 17.0672 30.524 17.1393 30.4726C17.5162 30.2125 17.8932 29.9524 18.2669 29.6923C18.339 29.6409 18.3718 29.551 18.3259 29.474Z" fill="#A1916D"/>
<path d="M12.9008 25.5853C12.396 25.8358 11.865 26.0252 11.3143 26.1569C11.111 26.205 11.1963 26.5165 11.4028 26.4651C11.9797 26.327 12.537 26.1215 13.068 25.8615C13.2581 25.7683 13.091 25.4922 12.9041 25.5853H12.9008Z" fill="#A1916D"/>
<path d="M24.7933 35.8894C24.7114 35.8412 24.6196 35.8765 24.5704 35.9471C24.082 36.6118 23.6198 37.2957 23.1839 37.9925C23.0724 38.1691 23.3576 38.3296 23.4658 38.153C23.9017 37.4531 24.3639 36.7723 24.8523 36.1077C24.9048 36.037 24.8654 35.9279 24.7933 35.8894Z" fill="#A1916D"/>
<path d="M26.7634 38.9265C26.6781 38.8783 26.5929 38.9136 26.5405 38.9843C26.1143 39.543 25.7079 40.1145 25.3211 40.7021C25.2064 40.8755 25.4883 41.0361 25.603 40.8627C25.9898 40.2783 26.3963 39.7035 26.8224 39.1448C26.8748 39.0742 26.8355 38.965 26.7634 38.9265Z" fill="#A1916D"/>
<path d="M27.4288 41.5866C27.3469 41.5385 27.2584 41.5738 27.2059 41.6444C26.829 42.1517 26.4913 42.6816 26.1963 43.2403C26.098 43.4233 26.3831 43.587 26.4782 43.4008C26.7732 42.8453 27.1109 42.3123 27.4878 41.805C27.5403 41.7343 27.5009 41.6252 27.4288 41.5866Z" fill="#A1916D"/>
<path d="M27.2124 44.164C27.1403 44.1223 27.0256 44.1415 26.9896 44.2218C26.7798 44.6585 26.57 45.0951 26.3635 45.535C26.3274 45.6121 26.3405 45.7084 26.4225 45.7534C26.4946 45.7951 26.6093 45.7759 26.6454 45.6956C26.8552 45.2589 27.065 44.8222 27.2715 44.3823C27.3075 44.3053 27.2944 44.209 27.2124 44.164Z" fill="#A1916D"/>
<path d="M30.3003 37.7111C30.2413 37.6533 30.1266 37.6437 30.0676 37.7111C29.6611 38.1735 29.3399 38.6937 29.1039 39.2588C29.0711 39.3391 29.1399 39.4354 29.2186 39.4579C29.3136 39.4835 29.3858 39.4258 29.4218 39.3455C29.6349 38.8349 29.9365 38.3565 30.3036 37.9391C30.3626 37.8749 30.3692 37.7753 30.3036 37.7111H30.3003Z" fill="#A1916D"/>
<path d="M31.4214 39.6077C30.8772 40.2499 30.5003 41.0173 30.3462 41.8393C30.3101 42.0416 30.6248 42.1283 30.6609 41.926C30.8051 41.1586 31.1395 40.4361 31.6508 39.8357C31.7852 39.6783 31.5558 39.4504 31.4181 39.6077H31.4214Z" fill="#A1916D"/>
<path d="M32.8571 41.6896C32.7981 41.6318 32.6834 41.6222 32.6244 41.6896C32.1163 42.2933 31.7066 42.9612 31.4017 43.6836C31.3689 43.7639 31.4378 43.8602 31.5164 43.8827C31.6115 43.9084 31.6836 43.8506 31.7197 43.7703C32.0016 43.1024 32.3884 42.4763 32.8571 41.9176C32.9129 41.8502 32.9227 41.757 32.8571 41.6896Z" fill="#A1916D"/>
<path d="M36.5612 40.4836C36.4858 40.4418 36.3777 40.4643 36.3384 40.5414C36.1253 40.9363 35.9122 41.3313 35.6991 41.7262C35.6565 41.8033 35.6795 41.8996 35.7582 41.9446C35.8335 41.9863 35.9417 41.9638 35.981 41.8868C36.1941 41.4918 36.4072 41.0969 36.6203 40.7019C36.6629 40.6249 36.6399 40.5285 36.5612 40.4836Z" fill="#A1916D"/>
<path d="M38.0855 41.1565C38.0265 41.1019 37.9118 41.0859 37.8528 41.1565C37.643 41.407 37.466 41.6767 37.3283 41.9689C37.2922 42.0459 37.3053 42.1455 37.3873 42.1872C37.4594 42.2258 37.5742 42.2097 37.6102 42.1294C37.6758 41.9913 37.7479 41.8597 37.8298 41.728C37.8692 41.6638 37.9118 41.6028 37.9577 41.5418C37.9806 41.5129 38.0035 41.4808 38.0265 41.4519C38.033 41.4455 38.0396 41.4359 38.0429 41.4294C38.056 41.4134 38.0691 41.3973 38.0822 41.3813C38.138 41.3171 38.1511 41.2175 38.0822 41.1533L38.0855 41.1565Z" fill="#A1916D"/>
<path d="M39.8098 41.7453C39.7311 41.7036 39.6327 41.726 39.5868 41.8031C39.4426 42.0343 39.3246 42.2815 39.2427 42.5416C39.2164 42.6219 39.2722 42.7214 39.3574 42.7407C39.4459 42.76 39.5311 42.715 39.5606 42.6283C39.5803 42.5673 39.5999 42.5095 39.6229 42.4485C39.6294 42.4324 39.636 42.4164 39.6426 42.4004C39.6426 42.3939 39.6655 42.3425 39.6524 42.3811C39.6623 42.3522 39.6754 42.3265 39.6885 42.3008C39.7442 42.1852 39.8032 42.0728 39.872 41.9668C39.9179 41.8962 39.8917 41.7871 39.813 41.7485L39.8098 41.7453Z" fill="#A1916D"/>
<path d="M43.4352 43.1776C43.4286 43.1584 43.4188 43.1391 43.4024 43.1263C43.3696 43.0974 43.3303 43.0781 43.2877 43.0781C43.2746 43.0781 43.2582 43.0813 43.245 43.0846C43.2188 43.091 43.1926 43.107 43.1729 43.1263C43.1172 43.1808 43.0615 43.2354 43.0058 43.29C42.9894 43.3061 42.9795 43.3221 42.973 43.3414C42.9632 43.3607 42.9566 43.38 42.9599 43.4024C42.9599 43.4249 42.9632 43.4442 42.973 43.4634C42.9795 43.4827 42.9894 43.502 43.0058 43.5148C43.0385 43.5437 43.0779 43.563 43.1205 43.563C43.1336 43.563 43.15 43.5598 43.1631 43.5566C43.1893 43.5501 43.2155 43.5341 43.2352 43.5148C43.2909 43.4602 43.3467 43.4056 43.4024 43.351C43.4188 43.335 43.4286 43.3189 43.4352 43.2997C43.445 43.2804 43.4516 43.2611 43.4483 43.2387C43.4483 43.2162 43.445 43.1969 43.4352 43.1776Z" fill="#A1916D"/>
<path d="M44.7103 27.9005C44.1366 27.8652 43.5663 27.8267 42.9926 27.7914C42.9041 27.7849 42.8287 27.8684 42.8287 27.9519C42.8287 28.045 42.9041 28.106 42.9926 28.1125C43.5663 28.1478 44.1366 28.1863 44.7103 28.2216C44.7988 28.228 44.8742 28.1446 44.8742 28.0611C44.8742 27.968 44.7988 27.9069 44.7103 27.9005Z" fill="#A1916D"/>
<path d="M44.8349 28.8148C44.5923 28.8276 44.353 28.8694 44.1203 28.94C44.0383 28.9657 43.9793 29.0524 44.0056 29.1391C44.0318 29.2194 44.1203 29.2772 44.2088 29.2515C44.317 29.2194 44.4251 29.1905 44.5333 29.1712C44.5595 29.1648 44.5858 29.1616 44.6153 29.1584C44.6185 29.1584 44.648 29.152 44.6513 29.152C44.6284 29.152 44.6251 29.1552 44.6448 29.152C44.6513 29.152 44.6578 29.152 44.6644 29.152C44.7201 29.1455 44.7791 29.1391 44.8349 29.1359C44.9201 29.1295 45.002 29.0653 44.9988 28.9753C44.9955 28.8919 44.9266 28.8084 44.8349 28.8148Z" fill="#A1916D"/>
<path d="M45.3364 30.0032C45.0709 29.9807 44.8054 29.9807 44.5398 30.0032C44.4546 30.0096 44.3727 30.0706 44.3759 30.1637C44.3792 30.244 44.4481 30.3307 44.5398 30.3243C44.8054 30.3018 45.0709 30.3018 45.3364 30.3243C45.4216 30.3307 45.5036 30.244 45.5003 30.1637C45.497 30.0706 45.4282 30.0096 45.3364 30.0032Z" fill="#A1916D"/>
<path d="M48.2342 31.6446C48.1424 31.6478 48.0735 31.7153 48.0703 31.8052C48.0571 32.1198 48.044 32.4345 48.0309 32.7492C48.0276 32.8327 48.1096 32.9129 48.1948 32.9097C48.2866 32.9065 48.3554 32.8391 48.3587 32.7492C48.3718 32.4345 48.3849 32.1198 48.398 31.8052C48.4013 31.7217 48.3194 31.6414 48.2342 31.6446Z" fill="#A1916D"/>
<path d="M50.1092 33.9688C49.9551 33.5321 49.7977 33.0954 49.6437 32.6587C49.6142 32.5752 49.5322 32.5238 49.4404 32.5463C49.3585 32.5688 49.2962 32.6619 49.3257 32.7454C49.4798 33.1821 49.6371 33.6187 49.7912 34.0554C49.8207 34.1389 49.9026 34.1903 49.9944 34.1678C50.0763 34.1454 50.1387 34.0522 50.1092 33.9688Z" fill="#A1916D"/>
<path d="M22.7774 49.1779C22.0726 49.7623 21.3023 50.2696 20.4828 50.6902C20.296 50.7866 20.4632 51.0627 20.6467 50.9664C21.4892 50.5297 22.2791 50.0063 23.0068 49.4027C23.1675 49.2678 22.9347 49.043 22.7741 49.1747L22.7774 49.1779Z" fill="#A1916D"/>
<path d="M24.4327 50.4987C24.3934 50.4313 24.2787 50.3895 24.2098 50.4409C23.7345 50.7941 23.2592 51.1473 22.7839 51.5005C22.7151 51.5519 22.6757 51.6386 22.7249 51.7189C22.7643 51.7863 22.879 51.828 22.9478 51.7767C23.4231 51.4235 23.8984 51.0702 24.3737 50.717C24.4426 50.6657 24.4819 50.579 24.4327 50.4987Z" fill="#A1916D"/>
<path d="M26.4159 49.9716C26.3504 49.9074 26.252 49.9138 26.1832 49.9716C25.7144 50.3729 25.2195 50.7454 24.7081 51.0922C24.636 51.1403 24.6032 51.2335 24.6491 51.3105C24.6917 51.3812 24.7999 51.4165 24.872 51.3683C25.4096 51.0087 25.9243 50.617 26.4159 50.1995C26.4815 50.1417 26.475 50.0294 26.4159 49.9716Z" fill="#A1916D"/>
<path d="M27.5861 49.6729C27.5763 49.6344 27.5468 49.5959 27.5107 49.5766C27.4714 49.5573 27.4255 49.5477 27.3829 49.5605C27.3403 49.5734 27.3108 49.5991 27.2846 49.6344C27.2747 49.6472 27.2649 49.6601 27.255 49.6729C27.1862 49.7596 27.1075 49.8367 27.019 49.9041C26.9994 49.917 26.983 49.9298 26.9633 49.9427C26.9272 49.9651 26.901 49.9972 26.8879 50.039C26.8781 50.0775 26.8814 50.1289 26.9043 50.1642C26.9273 50.1995 26.96 50.2284 27.0026 50.238C27.0452 50.2477 27.0911 50.2445 27.1305 50.222C27.3042 50.1096 27.4518 49.9683 27.5698 49.7981C27.5927 49.766 27.596 49.7114 27.5861 49.6729Z" fill="#A1916D"/>
<path d="M29.1334 48.8641C29.0645 48.8031 28.9695 48.8031 28.9006 48.8641C28.7335 49.015 28.5663 49.1659 28.3991 49.3136C28.3368 49.3714 28.3368 49.4838 28.3991 49.5416C28.4679 49.6026 28.563 49.6026 28.6319 49.5416C28.799 49.3907 28.9662 49.2398 29.1334 49.0921C29.1956 49.0343 29.1956 48.9219 29.1334 48.8641Z" fill="#A1916D"/>
<path d="M29.9758 50.1004C29.907 50.0394 29.8119 50.0394 29.7431 50.1004C29.3956 50.4023 29.0481 50.7041 28.6974 51.0027C28.6318 51.0573 28.6351 51.1729 28.6974 51.2307C28.7662 51.2917 28.8613 51.2917 28.9301 51.2307C29.2776 50.9289 29.6251 50.627 29.9758 50.3284C30.0414 50.2738 30.0381 50.1582 29.9758 50.1004Z" fill="#A1916D"/>
<path d="M32.1098 49.6569C32.0245 49.6088 31.9393 49.6441 31.8869 49.7147C31.523 50.1803 31.0969 50.6009 30.6281 50.967C30.5593 51.0216 30.5691 51.1372 30.6281 51.195C30.697 51.2624 30.792 51.2495 30.8608 51.195C31.3525 50.8096 31.7885 50.3665 32.1688 49.8785C32.2212 49.811 32.1786 49.6987 32.1098 49.6602V49.6569Z" fill="#A1916D"/>
<path d="M33.9586 46.1765C33.8733 46.1283 33.7881 46.1636 33.7357 46.2343C33.4144 46.6485 33.0702 47.0466 32.7096 47.4255C32.6506 47.4897 32.6441 47.5893 32.7096 47.6535C32.7719 47.7145 32.8801 47.7177 32.9424 47.6535C33.3227 47.2522 33.6832 46.8315 34.0208 46.3948C34.0733 46.3242 34.0307 46.215 33.9619 46.1765H33.9586Z" fill="#A1916D"/>
<path d="M23.6591 46.7841C23.5936 46.7199 23.4952 46.7263 23.4264 46.7841C23.0462 47.1052 22.6626 47.4295 22.2824 47.7506C22.2168 47.8084 22.2234 47.9208 22.2824 47.9786C22.348 48.0428 22.4463 48.0364 22.5151 47.9786C22.8954 47.6575 23.2789 47.3332 23.6591 47.0121C23.7247 46.9543 23.7181 46.8419 23.6591 46.7841Z" fill="#A1916D"/>
<path d="M25.2883 47.3569C24.8293 47.6266 24.3868 47.9156 23.9574 48.227C23.8853 48.2784 23.8492 48.3651 23.8984 48.4454C23.941 48.5128 24.0525 48.5546 24.1213 48.5032C24.5507 48.1917 24.9965 47.9028 25.4521 47.633C25.6324 47.5271 25.4685 47.2477 25.2883 47.3569Z" fill="#A1916D"/>
<path d="M27.5567 47.3706C26.8519 47.8009 26.1832 48.2889 25.5571 48.8283C25.3965 48.9632 25.6292 49.1912 25.7899 49.0563C26.3963 48.5362 27.0421 48.0674 27.7239 47.65C27.9009 47.5408 27.737 47.2614 27.56 47.3738L27.5567 47.3706Z" fill="#A1916D"/>
<path d="M28.7564 47.8785C28.7269 47.8528 28.6842 47.8271 28.6416 47.8304C28.5662 47.84 28.4941 47.8528 28.422 47.8785C28.3532 47.9042 28.2844 47.9363 28.2254 47.9781C28.1893 48.0038 28.163 48.0326 28.1499 48.0744C28.1401 48.1129 28.1434 48.1643 28.1663 48.1996C28.1893 48.2349 28.2221 48.2638 28.2647 48.2735C28.304 48.2831 28.3565 48.2831 28.3925 48.2574C28.4286 48.2317 28.4679 48.2125 28.5073 48.1932C28.563 48.1707 28.6187 48.1547 28.6777 48.1482C28.6679 48.1482 28.658 48.1482 28.6482 48.1514C28.6711 48.1514 28.6908 48.1483 28.7105 48.1386C28.7302 48.1322 28.7498 48.1225 28.763 48.1065C28.7925 48.0776 28.8121 48.0326 28.8121 47.9941C28.8121 47.9524 28.7957 47.9106 28.763 47.8817L28.7564 47.8785Z" fill="#A1916D"/>
<path d="M30.6904 43.9866C30.5986 43.961 30.5199 44.0187 30.4871 44.099C30.3003 44.571 30.061 45.0206 29.7824 45.4476C29.6677 45.621 29.9528 45.7816 30.0643 45.6082C30.3593 45.1586 30.6052 44.6802 30.8051 44.1825C30.8379 44.1022 30.769 44.0059 30.6904 43.9834V43.9866Z" fill="#A1916D"/>
<path d="M32.7227 45.5752C32.667 45.5206 32.5457 45.5077 32.49 45.5752C32.1721 45.9733 31.8541 46.3715 31.5328 46.7697C31.4771 46.8371 31.464 46.9302 31.5328 46.9976C31.5886 47.0522 31.7098 47.0651 31.7656 46.9976L32.7227 45.8032C32.7785 45.7358 32.7916 45.6426 32.7227 45.5752Z" fill="#A1916D"/>
<path d="M36.2498 43.3732C36.1908 43.3154 36.0761 43.3058 36.0171 43.3732C35.6991 43.7425 35.4304 44.147 35.2271 44.5869C35.1911 44.6672 35.2042 44.7604 35.2861 44.8053C35.3549 44.847 35.473 44.8278 35.509 44.7475C35.7024 44.3333 35.9483 43.9448 36.2498 43.598C36.3056 43.5306 36.3154 43.4374 36.2498 43.37V43.3732Z" fill="#A1916D"/>
<path d="M36.2892 44.876C36.2826 44.8536 36.2728 44.8375 36.2597 44.8214C36.2466 44.8054 36.2335 44.7893 36.2138 44.7797C36.1745 44.7604 36.1286 44.7508 36.086 44.7637C36.0466 44.7765 36.0106 44.8022 35.9876 44.8375C35.945 44.9049 35.9024 44.9756 35.863 45.043C35.8499 45.0623 35.8434 45.0815 35.8434 45.104C35.8401 45.1265 35.8401 45.1458 35.8434 45.1682C35.85 45.1907 35.8598 45.2068 35.8729 45.2228C35.886 45.2389 35.8991 45.2549 35.9188 45.2646C35.9581 45.2838 36.004 45.2935 36.0466 45.2806C36.086 45.2678 36.122 45.2421 36.1449 45.2068C36.1876 45.1393 36.2302 45.0687 36.2695 45.0013C36.2826 44.982 36.2892 44.9627 36.2892 44.9402C36.2925 44.9178 36.2925 44.8985 36.2892 44.876Z" fill="#A1916D"/>
<path d="M24.0525 41.1481C24.0295 41.1128 23.9968 41.0839 23.9542 41.0743C23.9148 41.0647 23.8624 41.0646 23.8263 41.0903C23.6722 41.1995 23.5182 41.3087 23.3674 41.4178C23.3313 41.4435 23.3051 41.4692 23.292 41.5142C23.2822 41.5527 23.2855 41.6041 23.3084 41.6394C23.3313 41.6747 23.3641 41.7036 23.4067 41.7133C23.4461 41.7229 23.4985 41.7229 23.5346 41.6972C23.6886 41.588 23.8427 41.4788 23.9935 41.3697C24.0295 41.344 24.0558 41.3183 24.0689 41.2734C24.0787 41.2348 24.0754 41.1835 24.0525 41.1481Z" fill="#A1916D"/>
<path d="M4.38464 36.1851C4.45675 35.9925 4.14208 35.9058 4.06996 36.0985C3.89623 36.5608 3.75527 37.0328 3.65037 37.5145C3.55859 37.9319 3.50286 38.3814 3.73232 38.7667C3.83722 38.9466 4.12244 38.7828 4.01426 38.6062C3.80775 38.2562 3.90935 37.8292 3.99458 37.4599C4.09619 37.0264 4.22733 36.6026 4.38139 36.1851H4.38464Z" fill="#A1916D"/>
<path d="M5.79418 36.0942C5.72534 36.0557 5.60408 36.0717 5.5713 36.152C5.36479 36.624 5.21068 37.1153 5.12218 37.6258C5.11234 37.6901 5.12877 37.7767 5.19761 37.8056C5.34839 37.8731 5.49917 37.8345 5.59423 37.7029C5.64668 37.6323 5.60732 37.5231 5.53521 37.4845C5.51882 37.4749 5.50246 37.4717 5.48607 37.4685C5.5713 37.0735 5.6893 36.685 5.8532 36.3158C5.88926 36.2355 5.87613 36.1424 5.79418 36.0974V36.0942Z" fill="#A1916D"/>
<path d="M6.30882 36.6388C6.14164 37.159 5.97446 37.6759 5.80728 38.1961C5.745 38.3952 6.05967 38.4786 6.12195 38.2828C6.28913 37.7626 6.45632 37.2457 6.62349 36.7255C6.68577 36.5264 6.3711 36.4429 6.30882 36.6388Z" fill="#A1916D"/>
<path d="M5.61061 50.0064C5.61061 50.0514 5.60403 50.0835 5.5778 50.1156C5.54502 50.1541 5.49913 50.183 5.45324 50.2023C5.32212 50.2537 5.19102 50.2151 5.06974 50.1445C4.92223 50.0578 4.80092 49.9358 4.67964 49.817L4.23384 49.3899C4.08305 49.2454 3.85033 49.4734 4.00112 49.6179C4.1814 49.7913 4.3617 49.9647 4.54199 50.1349C4.70261 50.2858 4.87303 50.4271 5.08282 50.5041C5.44012 50.6326 5.95152 50.427 5.93841 50.0032C5.93185 49.7977 5.60406 49.7977 5.61061 50.0032V50.0064Z" fill="#A1916D"/>
<path d="M5.37131 49.4555C4.88945 49.3239 4.53215 48.884 4.26335 48.4954C3.96834 48.0684 3.75857 47.5932 3.63401 47.0923C3.58484 46.8932 3.26685 46.9767 3.3193 47.179C3.45697 47.7312 3.69628 48.261 4.03063 48.7266C4.34204 49.1633 4.74194 49.616 5.28608 49.7637C5.48932 49.8183 5.57783 49.5101 5.37459 49.4555H5.37131Z" fill="#A1916D"/>
<path d="M5.28609 47.9068C4.60427 47.5728 4.22076 46.783 3.86674 46.16C3.47994 45.4729 3.01449 44.699 2.98826 43.8963C2.98171 43.6908 2.65391 43.6908 2.66047 43.8963C2.68669 44.7601 3.16525 45.5821 3.58156 46.3206C3.9618 46.9949 4.3814 47.8233 5.11567 48.1829C5.30251 48.276 5.46969 47.9967 5.27957 47.9068H5.28609Z" fill="#A1916D"/>
<path d="M5.3484 46.4559C4.6043 44.8954 4.10606 43.2225 3.88315 41.5143C3.85693 41.312 3.52913 41.3088 3.55536 41.5143C3.78809 43.2835 4.2929 45.0013 5.0665 46.6164C5.155 46.8027 5.4369 46.6421 5.3484 46.4559Z" fill="#A1916D"/>
<path d="M28.7334 48.3989C28.8285 48.2159 28.5466 48.0522 28.4515 48.2384C28.0549 48.993 27.6812 49.754 27.3304 50.5278C27.2616 50.6787 27.1993 50.8296 27.1305 50.9805C26.9699 51.2149 26.8125 51.4461 26.6519 51.6805C26.6027 51.7512 26.6355 51.8603 26.7109 51.8989C26.7142 51.8989 26.7207 51.8989 26.724 51.9021C26.629 52.1268 26.5634 52.3645 26.6781 52.5796C26.665 52.6438 26.6847 52.708 26.7568 52.753C26.8715 52.8236 26.9896 52.753 27.0354 52.6438C27.042 52.6277 27.0354 52.6117 27.0354 52.5924C27.0486 52.5828 27.0584 52.5699 27.0649 52.5635C27.0944 52.5314 27.1239 52.4993 27.1535 52.4672L27.3304 52.2746C27.4517 52.1429 27.573 52.008 27.6976 51.8764C27.9369 51.6163 28.1795 51.353 28.4187 51.0929C28.5597 50.9388 28.3303 50.7108 28.186 50.865C27.8681 51.2117 27.5501 51.5553 27.2321 51.9021C27.1403 52.0016 27.0518 52.1011 26.9601 52.1975C26.983 52.114 27.0256 52.0273 27.0584 51.9566C27.137 51.7672 27.219 51.5778 27.2977 51.3916C27.3337 51.3081 27.3731 51.2278 27.4091 51.1443L27.6058 50.8553C27.6353 50.8104 27.632 50.7494 27.6058 50.7012C27.6517 50.6017 27.6943 50.5021 27.7402 50.4026C28.0549 49.7251 28.386 49.0572 28.7334 48.3925V48.3989Z" fill="#D1C19F"/>
<path d="M28.6745 51.6962C28.6122 51.6384 28.504 51.632 28.4417 51.6962C28.1467 52.0044 27.8714 52.3287 27.6124 52.6659C27.56 52.7333 27.5993 52.8489 27.6714 52.8842C27.7566 52.9292 27.8419 52.8971 27.8943 52.8264C28.009 52.6755 28.1303 52.5246 28.2614 52.3737C28.3926 52.2196 28.5302 52.0686 28.6712 51.9241C28.7302 51.8631 28.7368 51.7572 28.6712 51.6962H28.6745Z" fill="#D1C19F"/>
<path d="M30.1987 48.6578C29.3497 49.6211 28.835 50.8219 28.7269 52.0903C28.7203 52.1705 28.7662 52.2187 28.8285 52.2348C28.6613 52.4692 28.5007 52.7036 28.3434 52.9444C28.2647 53.0632 28.3958 53.2173 28.5269 53.1788C28.5662 53.1691 28.6056 53.1563 28.6449 53.1467C28.7531 53.1146 28.7761 53.0118 28.7465 52.9315C29.0514 52.4788 29.3694 52.0293 29.7037 51.5926C29.7562 51.5219 29.7168 51.4128 29.6447 51.3742C29.5595 51.3261 29.4742 51.3614 29.4218 51.432C29.3071 51.5829 29.1956 51.737 29.0842 51.888C29.2219 50.7834 29.6906 49.727 30.4347 48.8825C30.5724 48.7252 30.3396 48.4972 30.202 48.6546L30.1987 48.6578Z" fill="#D1C19F"/>
<path d="M31.8147 48.6171C31.4345 49.3075 31.1591 50.0396 30.9788 50.7973C30.792 51.0895 30.6085 51.3817 30.4347 51.6803C30.3036 51.9051 30.179 52.1331 30.0578 52.3611C30.0053 52.4606 29.9299 52.5634 29.9463 52.6822C29.9594 52.7849 30.0381 52.8716 30.1495 52.8652C30.2872 52.8588 30.3331 52.7143 30.2872 52.6212C30.297 52.6019 30.3069 52.5794 30.32 52.5601C30.3462 52.5088 30.3757 52.4574 30.402 52.406C30.4511 52.3161 30.497 52.2294 30.5462 52.1395C30.6347 51.979 30.7297 51.8216 30.8215 51.6611C30.8117 51.7478 30.7986 51.8345 30.7887 51.9212C30.7691 52.1267 31.0969 52.1267 31.1165 51.9212C31.1493 51.5904 31.205 51.263 31.2772 50.9419C31.3755 50.7877 31.4706 50.6336 31.5722 50.4827C31.6443 50.3767 31.5624 50.274 31.464 50.2515C31.6279 49.741 31.8377 49.2465 32.0966 48.7745C32.1983 48.5915 31.9131 48.4309 31.8147 48.6139V48.6171Z" fill="#D1C19F"/>
<path d="M32.4376 49.2228C32.372 49.0269 32.0573 49.1104 32.1229 49.3094C32.1852 49.4957 32.1032 49.6787 32.0344 49.8521C31.9557 50.0416 31.877 50.231 31.7984 50.4172C31.6345 50.809 31.4738 51.2007 31.3099 51.5924C31.2772 51.6727 31.346 51.769 31.4247 51.7915C31.5165 51.8172 31.5919 51.7594 31.6279 51.6791C31.8017 51.2585 31.9754 50.8379 32.1524 50.4172C32.2343 50.2182 32.3229 50.0223 32.395 49.8232C32.4671 49.6306 32.5031 49.425 32.4376 49.226V49.2228Z" fill="#D1C19F"/>
<path d="M33.598 48.9766C33.185 49.7022 32.7687 50.4311 32.3556 51.1568C32.254 51.3366 32.5359 51.5003 32.6375 51.3173C33.0506 50.5916 33.4669 49.8628 33.8799 49.1371C33.9815 48.9573 33.6996 48.7935 33.598 48.9766Z" fill="#D1C19F"/>
<path d="M34.188 49.6342C34.0438 50.0933 33.8143 50.5204 33.5193 50.9025C33.4668 50.97 33.5095 51.0823 33.5783 51.1208C33.6635 51.169 33.7488 51.1337 33.8012 51.0631C34.1159 50.6617 34.3519 50.2025 34.5027 49.7177C34.5649 49.5186 34.247 49.4351 34.188 49.631V49.6342Z" fill="#D1C19F"/>
<path d="M20.2566 49.104C19.6174 50.1058 19.0175 51.13 18.4603 52.18C18.3619 52.363 18.6471 52.5268 18.7422 52.3406C19.2994 51.2938 19.8993 50.2663 20.5385 49.2645C20.65 49.0879 20.3681 48.9274 20.2566 49.104Z" fill="#D1C19F"/>
<path d="M21.1875 49.2718C20.4008 50.3731 19.7059 51.5323 19.106 52.7396C19.0142 52.9258 19.2961 53.0864 19.3879 52.9001C19.9878 51.6928 20.6828 50.5337 21.4695 49.4323C21.5908 49.2621 21.3055 49.1016 21.1875 49.2718Z" fill="#D1C19F"/>
<path d="M22.2168 49.4447C21.4465 50.4048 20.7614 51.4258 20.1648 52.4983C20.0632 52.6813 20.3484 52.8419 20.4467 52.6588C21.0269 51.6121 21.6957 50.6102 22.4463 49.6694C22.5741 49.5089 22.3447 49.2809 22.2135 49.4415L22.2168 49.4447Z" fill="#D1C19F"/>
<path d="M22.8921 49.8818C22.5086 50.3955 22.1349 50.9125 21.771 51.439C21.594 51.6959 21.4203 51.9528 21.2466 52.2129C21.1777 52.3156 21.1023 52.428 21.1482 52.5565C21.1908 52.6753 21.3187 52.7427 21.4432 52.7042C21.5842 52.6624 21.5842 52.4955 21.499 52.4248C21.5154 52.4023 21.5285 52.3799 21.5449 52.3542C21.5809 52.2996 21.6203 52.2418 21.6563 52.1872C21.7219 52.0909 21.7874 51.9913 21.853 51.895C21.9939 51.6863 22.1382 51.4776 22.2857 51.2721C22.5774 50.8579 22.8724 50.4501 23.1773 50.0455C23.3019 49.8785 23.0167 49.718 22.8954 49.885L22.8921 49.8818Z" fill="#D1C19F"/>
<path d="M24.4295 49.4014C24.0066 49.9023 23.6034 50.4224 23.2232 50.9587C23.0363 51.2219 22.856 51.4853 22.6823 51.755C22.6102 51.8642 22.5184 51.9765 22.5151 52.1146C22.5119 52.2302 22.5774 52.3297 22.6922 52.3586C22.8626 52.4004 22.9511 52.1917 22.8528 52.0921C22.8626 52.0761 22.8724 52.06 22.8823 52.0472C22.9183 51.9894 22.9544 51.9348 22.9937 51.877C23.0691 51.7646 23.1412 51.6522 23.2166 51.5398C23.3641 51.3215 23.5149 51.1096 23.669 50.8977C23.9837 50.4642 24.3148 50.0435 24.6622 49.6325C24.7966 49.4752 24.5639 49.2472 24.4295 49.4046V49.4014Z" fill="#D1C19F"/>
<path d="M26.2651 48.2086C25.721 48.8475 25.2096 49.5122 24.7442 50.2058C24.2918 50.8768 23.7771 51.5961 23.6165 52.3956C23.5903 52.5305 23.728 52.6493 23.8558 52.5754C23.9541 52.5208 24.0361 52.4534 24.1115 52.3699C24.1967 52.2672 24.1345 52.1387 24.0394 52.1002C24.2557 51.4773 24.6622 50.9057 25.0261 50.3663C25.4784 49.6952 25.9701 49.0498 26.4979 48.4333C26.6323 48.276 26.4028 48.048 26.2651 48.2054V48.2086Z" fill="#D1C19F"/>
<path d="M27.6484 47.4688C27.0518 48.2202 26.5077 49.0036 26.0193 49.8288C25.7767 50.2398 25.5472 50.6573 25.3342 51.0843C25.1309 51.4953 24.9474 51.9192 24.9605 52.3848C24.967 52.5903 25.2948 52.5903 25.2883 52.3848C25.2752 51.9256 25.4784 51.5146 25.6816 51.1164C25.8849 50.7151 26.1045 50.3169 26.3372 49.9284C26.7994 49.1514 27.3141 48.4064 27.8779 47.6968C28.0057 47.5363 27.7763 47.3083 27.6452 47.4688H27.6484Z" fill="#D1C19F"/>
<path d="M32.9653 48.5697C32.6146 49.4431 32.2639 50.3165 31.9131 51.1899C31.8344 51.3825 32.1524 51.466 32.2278 51.2765C32.5785 50.4031 32.9293 49.5298 33.28 48.6564C33.3587 48.4638 33.0407 48.3803 32.9653 48.5697Z" fill="#D1C19F"/>
<path d="M42.5075 45.2913C42.2453 46.3284 41.983 47.3623 41.7175 48.3995C41.6651 48.5985 41.9831 48.6852 42.0322 48.4862C42.2945 47.4522 42.5567 46.4151 42.8222 45.3812C42.8746 45.1821 42.5567 45.0954 42.5075 45.2945V45.2913Z" fill="#D1C19F"/>
<path d="M43.7007 44.2726C43.4155 45.1492 43.1106 46.0194 42.7828 46.8831C42.7107 47.0758 43.0254 47.1593 43.0976 46.9698C43.4254 46.1061 43.7302 45.2359 44.0154 44.3593C44.0809 44.1635 43.763 44.0768 43.7007 44.2726Z" fill="#D1C19F"/>
<path d="M44.5235 43.3672C44.1432 44.2823 43.8383 45.2231 43.6122 46.1864C43.5663 46.3887 43.8809 46.4721 43.9268 46.2731C44.153 45.3098 44.4579 44.369 44.8381 43.4539C44.9168 43.2612 44.6021 43.1809 44.5235 43.3672Z" fill="#D1C19F"/>
<path d="M45.3724 42.1757C45.238 43.0073 45.0479 43.8261 44.7955 44.6288C44.7332 44.8279 45.0512 44.9114 45.1102 44.7155C45.3594 43.9128 45.5527 43.0908 45.6871 42.2624C45.7199 42.0601 45.4052 41.9734 45.3724 42.1757Z" fill="#D1C19F"/>
<path d="M46.3985 41.1503C46.2805 42.0911 46.028 43.019 45.6478 43.8924C45.5659 44.0818 45.8478 44.2456 45.9297 44.0529C46.3329 43.1218 46.5984 42.1521 46.7263 41.1471C46.7525 40.9416 46.4247 40.9448 46.3985 41.1471V41.1503Z" fill="#D1C19F"/>
<path d="M47.2016 40.5297C47.1491 40.4591 47.0606 40.427 46.9787 40.4719C46.9066 40.5105 46.8672 40.6228 46.9197 40.6902C47.372 41.2907 47.4999 42.0742 47.2573 42.7806C47.1885 42.9764 47.5064 43.0599 47.572 42.8673C47.8408 42.087 47.6998 41.1911 47.2016 40.5297Z" fill="#D1C19F"/>
<path d="M48.7029 40.0898C48.6046 40.0898 48.5488 40.1637 48.539 40.2504C48.4538 40.9472 48.2407 41.6311 47.9195 42.2604C47.8244 42.4435 48.1096 42.6072 48.2014 42.421C48.5488 41.7371 48.7717 41.0082 48.8668 40.2504C48.8766 40.1637 48.7849 40.0898 48.7029 40.0898Z" fill="#D1C19F"/>
<path d="M49.5945 39.5231C49.5191 39.5006 49.4044 39.5488 49.3912 39.6355C49.2831 40.3804 49.0798 41.1093 48.7783 41.7997C48.7422 41.8799 48.7553 41.9698 48.8373 42.018C48.9061 42.0597 49.0274 42.0405 49.0602 41.9602C49.3748 41.2442 49.5977 40.4928 49.7092 39.7189C49.7223 39.6322 49.6863 39.5488 49.5945 39.5199V39.5231Z" fill="#D1C19F"/>
<path d="M50.0108 40.6986C49.7322 41.2091 49.5027 41.7422 49.3225 42.2944C49.2569 42.4903 49.5748 42.577 49.6371 42.3811C49.8076 41.8545 50.0272 41.3504 50.2927 40.8624C50.3911 40.6793 50.1092 40.5188 50.0108 40.7018V40.6986Z" fill="#D1C19F"/>
<path d="M51.3187 36.6352C51.263 36.4362 50.945 36.5196 51.004 36.7219C51.345 37.9036 51.2302 39.1847 50.6697 40.2861C50.5746 40.4691 50.8598 40.6328 50.9516 40.4466C51.5482 39.2682 51.6859 37.9035 51.3187 36.6352Z" fill="#D1C19F"/>
<path d="M52.0989 35.2052C52.0366 35.0093 51.7186 35.0928 51.7842 35.2919C52.0923 36.268 52.0628 37.3147 51.7023 38.2748C51.6301 38.4675 51.9448 38.5542 52.0169 38.3615C52.3972 37.3533 52.4234 36.2359 52.0989 35.2084V35.2052Z" fill="#D1C19F"/>
<g style="mix-blend-mode:multiply" opacity="0.33">
<path d="M46.5525 42.83C44.6906 44.1016 43.0844 45.7006 41.1012 46.802C39.9801 47.4249 38.7935 47.9194 37.584 48.3657C32.9522 49.6147 28.1172 50.5009 23.6558 48.8698C20.6499 47.7716 17.6604 46.7217 14.5496 45.9639C11.7764 45.2896 9.05902 44.7277 6.37436 45.996C5.93184 46.2047 5.56143 45.3346 5.44015 45.6781C5.30247 45.8387 5.22707 46.0442 5.18774 47.3671C5.1484 48.69 5.40734 49.2294 4.75502 50.2505C4.10271 51.2716 3.10294 53.1628 4.89599 53.5835C6.90867 54.0555 8.71483 51.9651 8.24936 49.9358C8.62632 50.2601 9.16065 50.5555 9.49172 50.7739C10.4587 51.4129 11.5109 51.917 12.596 52.3119C14.7299 53.0922 17.0245 53.1981 19.188 53.911C21.6923 54.7394 24.2131 55.1151 26.8486 54.8614C31.1001 54.4536 35.4697 53.0986 39.4819 51.4193C40.9341 51.05 42.3862 50.6615 43.8318 50.2666C44.8086 50.0001 45.1594 49.1652 45.0512 48.3785C45.8084 47.7524 46.4902 47.0235 47.2868 46.4584C48.339 45.7167 46.9426 42.5571 46.5492 42.8268L46.5525 42.83Z" fill="#968A70"/>
</g>
<g style="mix-blend-mode:overlay" opacity="0.2">
<path d="M38.8263 22.9195C38.669 21.9177 38.0822 21.253 37.3086 20.8292C37.1284 20.5016 36.8858 20.1998 36.5809 19.9462C36.1581 19.3361 35.5451 18.832 34.7977 18.5237C33.3226 17.9136 31.7885 17.6953 30.261 17.7723C29.9758 17.5155 29.589 17.3485 29.0908 17.3453C25.1441 17.3036 21.2826 18.1031 17.6441 19.5897C14.2579 20.9737 10.6718 22.8841 8.1904 25.5974C7.06277 26.8304 6.06296 28.4776 7.01357 30.1184C7.83635 31.5441 9.48516 31.8619 11.0225 31.9743C15.32 32.2922 19.542 30.8473 23.6559 29.8551C24.8687 29.5629 26.0848 29.29 27.3043 29.0299C28.2024 28.9721 29.0973 28.9721 29.9889 29.0716C32.2311 29.3253 34.2306 28.8212 36.0565 27.5015C37.5316 26.4355 39.1345 24.8685 38.8231 22.9163L38.8263 22.9195Z" fill="#D1C09C"/>
</g>
</g>
<path d="M45.7495 52.7717C45.1037 52.4314 44.4547 52.2002 43.8155 51.8277C41.9274 50.7328 41.7635 48.7998 41.6881 48.5686C41.7405 47.9971 41.8356 47.4352 41.97 46.8764C42.029 46.3049 42.1437 45.7366 42.1863 45.1618C42.1601 45.1297 42.1273 45.1008 42.0945 45.0751C42.1044 44.7829 42.0716 44.4972 41.9274 44.2692C41.6225 43.7907 40.885 43.7394 40.3736 43.7811C39.7639 43.8261 39.187 44.0123 38.5937 44.1343C38.0692 44.2435 37.5119 44.1825 37.0071 44.3783C36.4531 44.5967 36.1975 45.0527 35.9975 45.5728C35.7877 46.1155 35.5484 46.6421 35.3059 47.1687C34.7617 48.3631 33.798 49.8241 34.2307 51.1117C35.0108 53.4203 36.7875 54.435 37.9709 54.8845C39.1542 55.3341 42.0683 55.79 44.0318 55.79C45.1726 55.79 45.425 55.5042 45.7626 55.2698C46.0117 55.0451 46.3953 54.8139 46.5821 54.6694C46.7689 54.5249 46.9197 54.3098 46.9623 54.2359C47.218 53.7896 46.3952 53.1056 45.7528 52.7685L45.7495 52.7717Z" fill="#D1C09B"/>
<mask id="mask1_200_28210" style="mask-type:luminance" maskUnits="userSpaceOnUse" x="34" y="43" width="14" height="13">
<path d="M45.7495 52.7717C45.1037 52.4314 44.4547 52.2002 43.8155 51.8277C41.9274 50.7328 41.7635 48.7998 41.6881 48.5686C41.7405 47.9971 41.8356 47.4352 41.97 46.8764C42.029 46.3049 42.1437 45.7366 42.1863 45.1618C42.1601 45.1297 42.1273 45.1008 42.0945 45.0751C42.1044 44.7829 42.0716 44.4972 41.9274 44.2692C41.6225 43.7907 40.885 43.7394 40.3736 43.7811C39.7639 43.8261 39.187 44.0123 38.5937 44.1343C38.0692 44.2435 37.5119 44.1825 37.0071 44.3783C36.4531 44.5967 36.1975 45.0527 35.9975 45.5728C35.7877 46.1155 35.5484 46.6421 35.3059 47.1687C34.7617 48.3631 33.798 49.8241 34.2307 51.1117C35.0108 53.4203 36.7875 54.435 37.9709 54.8845C39.1542 55.3341 42.0683 55.79 44.0318 55.79C45.1726 55.79 45.425 55.5042 45.7626 55.2698C46.0117 55.0451 46.3953 54.8139 46.5821 54.6694C46.7689 54.5249 46.9197 54.3098 46.9623 54.2359C47.218 53.7896 46.3952 53.1056 45.7528 52.7685L45.7495 52.7717Z" fill="white"/>
</mask>
<g mask="url(#mask1_200_28210)">
<path d="M43.4614 55.5646C40.8653 55.2403 38.4133 54.0908 36.4695 52.3826C36.3122 52.1578 36.1647 51.9266 36.0237 51.6922C35.9975 51.6376 35.968 51.5831 35.9418 51.5285C35.8926 51.4161 35.8467 51.3005 35.8008 51.1881C35.7844 51.1014 35.768 51.0147 35.7516 50.928C35.6107 50.1574 35.5451 49.3771 35.532 48.5937C35.5779 47.5565 35.7385 46.5226 36.0237 45.5112C36.1614 45.0231 35.5615 44.7406 35.2009 45.0424C35.1321 45.1002 35.0633 45.158 34.9977 45.2126C34.8108 45.3699 34.8043 45.569 34.8895 45.7295C34.8568 45.7295 34.824 45.7327 34.7912 45.7424L34.7388 45.7649C34.6011 45.7745 34.4601 45.8387 34.3487 45.9832C34.0471 46.3781 33.9422 46.8566 33.8767 47.335C33.6111 47.2869 33.2932 47.4731 33.2538 47.8006C32.8342 51.4225 34.7355 54.9802 37.9872 56.7366C38.2691 56.8875 38.6297 56.7206 38.7117 56.4444C39.0067 56.605 39.3115 56.743 39.6393 56.8522C39.8163 56.91 39.9835 56.849 40.1015 56.7334C40.7375 56.9292 41.3898 57.0352 42.029 56.9806C42.3863 56.9517 42.56 56.637 42.4879 56.3705C42.8091 56.4348 43.1337 56.4893 43.4614 56.5311C44.0875 56.6081 44.081 55.6449 43.4614 55.5678V55.5646Z" fill="#B5A686"/>
<path d="M47.3262 51.3222C47.2344 51.0846 46.805 50.8567 46.4477 50.9658C45.2348 51.3319 44.2678 49.8677 44.0121 49.2383C43.5696 48.1402 43.7893 46.9843 44.1269 45.8894C44.14 45.8444 44.1432 45.8027 44.14 45.7609C44.235 45.6036 44.1826 45.4366 44.0515 45.3082C43.9859 44.8297 42.8845 44.682 42.6452 45.2375C42.6026 45.3339 42.5633 45.4302 42.5207 45.5297C42.4518 45.5811 42.3896 45.6357 42.324 45.6903C41.9929 45.7738 41.6782 45.9182 41.4553 46.0595C40.8456 46.4512 40.5112 47.0196 40.2457 47.5622C39.9147 48.2333 39.7114 48.9333 39.6065 49.6397C39.5082 50.2947 39.4 51.0622 39.872 51.6594C40.2949 52.1956 41.0849 52.5841 41.8388 52.8571C42.0388 52.9277 42.242 52.9887 42.4486 53.0465C42.7042 53.2199 42.9861 53.374 43.2975 53.4928C44.4645 53.9424 46.6345 53.9391 47.0541 52.8121C47.1655 52.5103 47.0639 52.202 46.841 51.9452C47.1885 51.836 47.4343 51.608 47.3262 51.3222Z" fill="#DECBA4"/>
</g>
<path d="M25.1933 54.5472C24.8721 54.2453 23.3937 52.7972 22.2562 52.2481C21.6268 51.9431 20.9549 51.7825 20.2698 51.6445C19.9223 51.5738 19.6502 51.5802 19.306 51.6091C19.2274 51.6156 19.152 51.6188 19.0766 51.6156C18.5456 51.6798 18.0112 51.7215 17.4671 51.6894C17.3393 51.683 17.2213 51.6862 17.1098 51.6958C17.2278 51.5353 17.3393 51.3683 17.4409 51.1981C18.0932 50.4307 18.7947 49.7243 19.3978 48.973C19.5847 48.7803 19.765 48.5941 19.9354 48.4175C20.9647 47.3611 21.8301 46.2373 22.4103 44.9593C23.3839 42.808 23.3183 40.2842 21.8235 38.3512C21.1024 36.598 19.6338 35.121 17.5654 34.7871C17.4048 34.7164 17.2147 34.6683 16.9918 34.6426C15.7593 34.5013 14.648 34.6137 13.6515 34.9123C13.4975 34.8898 13.3401 34.8866 13.1992 34.8994C11.8847 35.0215 10.6227 35.7504 9.60323 36.5371C8.08553 37.7058 6.83989 39.4044 6.15151 41.2314C5.3943 42.8016 5.08947 44.5515 5.3976 46.3079C5.58445 47.3707 6.01384 48.3757 6.63993 49.2555C6.80383 49.5124 6.60062 49.2588 7.60696 50.5399C8.61329 51.8211 11.3504 53.8054 11.7995 53.9852C12.2486 54.1651 15.0611 54.7205 16.4903 55.0673C17.9195 55.4109 20.0338 56.5636 20.8533 56.5861C21.6072 56.6054 22.3578 56.5026 23.0888 56.3517C25.603 55.8347 25.5178 54.849 25.1933 54.5472Z" fill="#D1C09B"/>
<mask id="mask2_200_28210" style="mask-type:luminance" maskUnits="userSpaceOnUse" x="5" y="34" width="21" height="23">
<path d="M25.1933 54.5472C24.8721 54.2453 23.3937 52.7972 22.2562 52.2481C21.6268 51.9431 20.9549 51.7825 20.2698 51.6445C19.9223 51.5738 19.6502 51.5802 19.306 51.6091C19.2274 51.6156 19.152 51.6188 19.0766 51.6156C18.5456 51.6798 18.0112 51.7215 17.4671 51.6894C17.3393 51.683 17.2213 51.6862 17.1098 51.6958C17.2278 51.5353 17.3393 51.3683 17.4409 51.1981C18.0932 50.4307 18.7947 49.7243 19.3978 48.973C19.5847 48.7803 19.765 48.5941 19.9354 48.4175C20.9647 47.3611 21.8301 46.2373 22.4103 44.9593C23.3839 42.808 23.3183 40.2842 21.8235 38.3512C21.1024 36.598 19.6338 35.121 17.5654 34.7871C17.4048 34.7164 17.2147 34.6683 16.9918 34.6426C15.7593 34.5013 14.648 34.6137 13.6515 34.9123C13.4975 34.8898 13.3401 34.8866 13.1992 34.8994C11.8847 35.0215 10.6227 35.7504 9.60323 36.5371C8.08553 37.7058 6.83989 39.4044 6.15151 41.2314C5.3943 42.8016 5.08947 44.5515 5.3976 46.3079C5.58445 47.3707 6.01384 48.3757 6.63993 49.2555C6.80383 49.5124 6.60062 49.2588 7.60696 50.5399C8.61329 51.8211 11.3504 53.8054 11.7995 53.9852C12.2486 54.1651 15.0611 54.7205 16.4903 55.0673C17.9195 55.4109 20.0338 56.5636 20.8533 56.5861C21.6072 56.6054 22.3578 56.5026 23.0888 56.3517C25.603 55.8347 25.5178 54.849 25.1933 54.5472Z" fill="white"/>
</mask>
<g mask="url(#mask2_200_28210)">
<path d="M26.711 55.6046C24.4492 56.0284 22.6168 55.7972 20.4828 55.0009C18.834 54.3844 17.2278 53.662 15.4609 53.4308C14.3792 53.2895 13.3761 53.2863 12.419 53.1418C11.3372 52.4932 10.2358 51.8702 9.23277 51.0932C8.45917 50.4928 7.86915 49.8217 7.41024 49.096C6.96115 48.2098 6.61041 47.269 6.30556 46.3346C6.28589 46.2768 6.26292 46.2254 6.2367 46.1772C6.00724 45.1851 5.88269 44.1415 5.80402 43.0659C5.71224 41.8457 3.80118 41.8136 3.83723 43.0659C3.85035 43.525 3.86346 43.9874 3.87657 44.4466C3.88312 44.6392 3.93883 44.7998 4.02406 44.9346C4.30597 47.0795 4.86651 49.1152 6.24982 50.8748C7.5774 52.978 9.42944 54.6252 12.0059 55.1165C12.6615 55.5339 13.2975 55.9802 13.8777 56.4972C14.6808 57.2132 15.8182 56.311 15.5297 55.5147C17.2015 55.839 18.7193 56.4298 20.4435 57.0398C22.7577 57.8586 24.8327 57.9164 27.2354 57.4637C28.4778 57.2293 27.95 55.3734 26.711 55.6046Z" fill="#BDAD8C"/>
<path opacity="0.48" d="M19.8272 38.6729C17.808 36.1491 12.7501 36.6115 10.1506 38.3293C8.05599 39.7132 8.82632 42.9241 9.33441 44.1796C9.84249 45.4351 10.9045 49.4744 15.3495 49.9111C17.2868 50.1006 19.9026 46.8222 20.6631 44.1218C21.1712 42.3205 21.086 40.243 19.8272 38.6697V38.6729Z" fill="#E3CFA8"/>
<path opacity="0.48" d="M23.3215 52.2553C22.9773 52.0081 22.5938 51.8282 22.1906 51.6966C22.171 51.5746 22.1021 51.459 21.9644 51.3755C21.2007 50.9228 20.2861 50.7205 19.3978 50.8264C18.6078 50.9196 17.3654 51.2727 17.5031 52.281C17.631 53.2057 18.7619 53.6296 19.5715 53.7805C20.5517 53.9635 21.5908 54.0245 22.5873 54.0277C23.0855 54.0277 23.669 53.9314 23.8558 53.4016C24.0296 52.9103 23.7051 52.5314 23.3215 52.2585V52.2553Z" fill="#E3CFA8"/>
</g>
<path d="M58.6417 26.267C58.504 25.9491 58.2582 25.6441 57.8944 25.5767C57.501 25.506 56.7372 26.3088 56.7045 26.4179C56.652 26.5977 56.6782 26.7486 56.7929 26.8996C56.8585 26.9863 57.088 27.3298 57.5272 27.5931C57.9665 27.8564 58.5926 28.0427 58.7073 27.9624C58.7401 27.9624 58.7892 26.5977 58.645 26.267H58.6417Z" fill="#4F2626"/>
<path d="M58.5696 27.7062C58.291 27.43 57.9927 27.1699 57.6748 26.9355C57.6059 26.8842 57.4945 26.897 57.4453 26.9676C57.3962 27.0383 57.406 27.1378 57.4781 27.1924C57.6289 27.3048 57.7764 27.4204 57.9173 27.5424C57.9862 27.6002 58.055 27.6612 58.1206 27.7222C58.137 27.7383 58.1566 27.7543 58.173 27.7704C58.1796 27.7768 58.1894 27.7864 58.196 27.7928C58.196 27.7928 58.2058 27.8025 58.2091 27.8057C58.2419 27.8378 58.2779 27.8699 58.3107 27.9053C58.3697 27.9663 58.468 27.9919 58.5402 27.9309C58.6024 27.8796 58.6319 27.7704 58.5664 27.7062H58.5696Z" fill="#361A1A"/>
<path d="M58.6385 26.1974C58.6221 26.0818 58.5532 25.9662 58.4844 25.8699C58.4188 25.7768 58.3336 25.6933 58.2353 25.6323C58.173 25.5938 58.1042 25.5616 58.0288 25.5552C57.9435 25.5456 57.855 25.5649 57.7763 25.597C57.7305 25.6162 57.2748 25.8089 57.324 26.1557C57.3338 26.2199 57.9173 26.5346 58.055 26.5538C58.1829 26.5699 58.3271 26.5891 58.4484 26.5442C58.6909 26.4543 58.6548 26.3387 58.6352 26.1974H58.6385Z" fill="#5C2C2C"/>
<path d="M53.4855 24.7599C53.4593 24.397 53.4232 24.031 53.3609 23.6713C53.3019 23.3342 53.2429 22.9553 53.0626 22.6567C52.902 22.387 52.6201 22.2425 52.3513 22.098C52.0432 21.9342 51.7318 21.7769 51.4007 21.6645C50.6992 21.4237 49.9387 21.4173 49.2045 21.504C47.4803 21.7095 45.7626 22.2168 44.1236 22.7691C44.0843 22.7819 44.058 22.8076 44.0351 22.8333C43.9761 22.8397 43.9204 22.8526 43.8581 22.8558C43.6975 22.8622 43.6057 23.0549 43.7237 23.1704C43.8155 23.2603 43.9138 23.3374 44.0187 23.4113C43.9728 23.4691 43.9663 23.5493 44.0023 23.62C44.1924 23.9989 44.73 24.0952 45.107 24.1979C45.5102 24.3071 45.9167 24.4067 46.2936 24.5865C46.2838 24.6443 46.2969 24.7053 46.346 24.7438C46.4116 24.7952 46.4674 24.8594 46.5296 24.914C46.3821 24.9493 46.2543 25.0167 46.2641 25.1805C46.2739 25.4374 46.6903 25.6782 46.8738 25.8195C47.4409 26.2561 48.0768 26.6286 48.739 26.9048C49.4208 27.1905 50.0895 27.2451 50.8106 27.0814C51.4761 26.9304 52.1153 26.6543 52.6758 26.2722C52.9315 26.0988 53.2298 25.8998 53.4167 25.6557C53.597 25.4149 53.5019 25.0456 53.4822 24.7663L53.4855 24.7599Z" fill="#D4C7AB"/>
<path d="M48.0309 24.2989C48.0801 23.0724 49.1553 22.1444 50.4337 22.2279C51.7121 22.3114 52.7053 23.3742 52.6529 24.6008C52.6004 25.8273 51.5285 26.7553 50.2501 26.6718C48.975 26.5883 47.9785 25.5255 48.0309 24.2989Z" fill="#3E1506"/>
<path d="M52.3397 25.1219C52.564 24.1225 51.8529 23.1201 50.7513 22.8828C49.6498 22.6456 48.5749 23.2634 48.3506 24.2628C48.1263 25.2621 48.8375 26.2646 49.939 26.5018C51.0406 26.7391 52.1154 26.1212 52.3397 25.1219Z" fill="#FBFCFA"/>
<path d="M48.6046 24.5682C48.6505 23.6242 49.4601 22.9114 50.4173 22.9724C51.3745 23.0334 52.112 23.849 52.0694 24.793C52.0235 25.737 51.2139 26.4498 50.2567 26.3888C49.2995 26.3278 48.562 25.5122 48.6046 24.5682Z" fill="#95771E"/>
<path d="M49.47 24.6225C49.4929 24.1505 49.8961 23.7941 50.3747 23.8262C50.8533 23.8583 51.2204 24.2629 51.2007 24.7349C51.1811 25.2069 50.7746 25.5633 50.296 25.5312C49.8174 25.4991 49.4503 25.0945 49.47 24.6225Z" fill="#3E1506"/>
<path d="M50.1327 24.251C50.3029 24.0599 50.3336 23.8133 50.2012 23.7002C50.0689 23.5872 49.8237 23.6504 49.6535 23.8415C49.4833 24.0326 49.4526 24.2792 49.585 24.3923C49.7173 24.5053 49.9625 24.4421 50.1327 24.251Z" fill="white"/>
<path d="M37.6561 10.3105C37.0235 9.51096 36.286 8.77887 35.4173 8.22338C34.4601 7.61009 33.362 7.33074 32.277 7.01928C32.2344 6.97111 32.1655 6.94222 32.0934 6.98075C31.7361 7.16056 31.6804 7.57799 31.7001 7.9344C31.7296 8.46421 31.805 8.9908 31.8738 9.51739C32.0148 10.6091 32.195 11.6976 32.4311 12.7733C32.6409 13.7269 32.9621 14.642 33.539 15.448C34.0733 16.1897 34.7814 16.819 35.6172 17.2204C36.463 17.625 37.4234 17.8112 38.3609 17.7021C38.7707 17.6539 39.2263 17.5511 39.4984 17.2204C39.7901 16.8672 39.7967 16.2925 39.8131 15.859C39.8819 13.8168 38.9083 11.8935 37.6561 10.3137V10.3105Z" fill="#F58C8C"/>
<mask id="mask3_200_28210" style="mask-type:luminance" maskUnits="userSpaceOnUse" x="31" y="6" width="9" height="12">
<path d="M37.6561 10.3105C37.0235 9.51096 36.286 8.77887 35.4173 8.22338C34.4601 7.61009 33.362 7.33074 32.277 7.01928C32.2344 6.97111 32.1655 6.94222 32.0934 6.98075C31.7361 7.16056 31.6804 7.57799 31.7001 7.9344C31.7296 8.46421 31.805 8.9908 31.8738 9.51739C32.0148 10.6091 32.195 11.6976 32.4311 12.7733C32.6409 13.7269 32.9621 14.642 33.539 15.448C34.0733 16.1897 34.7814 16.819 35.6172 17.2204C36.463 17.625 37.4234 17.8112 38.3609 17.7021C38.7707 17.6539 39.2263 17.5511 39.4984 17.2204C39.7901 16.8672 39.7967 16.2925 39.8131 15.859C39.8819 13.8168 38.9083 11.8935 37.6561 10.3137V10.3105Z" fill="white"/>
</mask>
<g mask="url(#mask3_200_28210)">
<path d="M42.0978 21.0598C41.6815 19.4832 41.1374 17.9388 40.485 16.4393C40.5801 16.2691 40.5998 16.0604 40.4752 15.842C39.6099 14.2944 39.2722 12.5412 38.3117 11.0288C37.8364 10.2807 37.2923 9.56467 36.7121 8.89358C36.1024 8.19039 35.3485 7.67663 34.683 7.03444C34.4503 6.80968 34.1684 6.80969 33.9455 6.92849C33.6734 6.74226 33.3948 6.56566 33.1064 6.40511C32.9654 6.32484 32.8277 6.30557 32.6998 6.32162C32.6277 6.28309 32.5589 6.23814 32.4868 6.20282C31.7394 5.82393 31.074 6.93171 31.8247 7.3106C33.6997 8.25782 35.0993 9.82796 36.2696 11.5362C36.4204 11.8444 36.5613 12.1591 36.6793 12.4866C37.1218 13.7196 37.43 15.004 37.7742 16.2659C37.8856 16.6672 37.9938 17.0654 38.1053 17.4668C37.4169 16.2916 36.7416 15.1099 36.0762 13.9219C35.7418 13.3247 35.4107 12.7242 35.0829 12.1206C34.7781 11.5619 34.4733 11.0064 34.0766 10.5023C33.6603 9.97567 33.1522 9.52933 32.5753 9.17934C32.395 9.07017 32.2311 9.34632 32.4114 9.4555C32.926 9.77017 33.3882 10.1619 33.7652 10.6275C34.1553 11.1059 34.4536 11.6486 34.7486 12.1848C35.3845 13.3536 36.0303 14.5159 36.6892 15.6719C36.9875 16.1952 37.2923 16.7186 37.5972 17.2388C35.7484 16.2049 33.9029 15.1677 32.0541 14.1338C31.8705 14.0311 31.7066 14.3072 31.8902 14.41C33.9029 15.537 35.9156 16.6672 37.9282 17.7943C38.0397 17.8553 38.1413 17.7814 38.1675 17.6883C38.4068 18.5521 38.6429 19.419 38.8821 20.2827C39.1018 21.0791 40.3671 20.7419 40.1474 19.9424C39.9016 19.0433 39.6525 18.1443 39.4066 17.2452C39.977 18.5938 40.4523 19.9809 40.8292 21.4002C41.0423 22.1997 42.3076 21.8593 42.0945 21.0598H42.0978Z" fill="#E88585"/>
</g>
<path d="M47.3163 55.0697C47.1459 55.1404 46.9492 55.1853 46.7394 55.1982C46.7754 55.1982 46.8115 55.1982 46.8475 55.1982C47.0508 55.1982 47.2442 55.1661 47.4179 55.1115C47.454 55.0986 47.4868 55.0858 47.5195 55.0729C47.69 55.0023 47.8375 54.9092 47.9522 54.7936C48.0047 54.7422 48.0506 54.6844 48.0833 54.6266C48.1522 54.5142 48.1882 54.3922 48.1882 54.2606C48.1882 54.2413 48.1882 54.2188 48.1882 54.1996C48.1489 53.7661 47.6802 53.4097 47.077 53.339C47.0016 53.3294 46.9262 53.3262 46.8475 53.3262C46.8115 53.3262 46.7754 53.3262 46.7394 53.3294C46.8443 53.3358 46.9426 53.3487 47.0377 53.3711C47.5818 53.4899 47.9719 53.8464 47.9719 54.2638V54.2734C47.9719 54.4532 47.8932 54.6234 47.7621 54.7647C47.749 54.7807 47.7359 54.7936 47.7195 54.8064C47.6146 54.9092 47.4769 54.9959 47.3229 55.0633C47.3229 55.0633 47.3163 55.0633 47.313 55.0665L47.3163 55.0697Z" fill="#D1C6BD"/>
<path d="M45.5069 54.2632C45.5069 54.2889 45.5069 54.3114 45.5101 54.3371C45.5101 54.3724 45.52 54.4077 45.5298 54.443C45.5429 54.4944 45.5626 54.5426 45.5888 54.5907C45.6478 54.7031 45.7363 54.8058 45.851 54.8925C46.0739 55.0627 46.3886 55.1783 46.7394 55.1976C46.9492 55.1848 47.1426 55.1398 47.3163 55.0692C47.3163 55.0692 47.3228 55.0692 47.3261 55.0659C47.4835 55.0017 47.6179 54.9118 47.7228 54.8091C47.7392 54.7962 47.7523 54.7802 47.7654 54.7673C47.8965 54.626 47.9719 54.4559 47.9752 54.2761V54.2664C47.9752 53.849 47.5818 53.4958 47.0409 53.3738C46.9459 53.3513 46.8443 53.3385 46.7427 53.332C46.051 53.3706 45.5069 53.7751 45.5069 54.2632Z" fill="#FFF1E6"/>
<path d="M46.3329 55.7326C46.3591 55.7326 46.3886 55.7326 46.4181 55.7326C47.0213 55.7326 47.5458 55.4789 47.8047 55.1097C47.9162 54.9524 47.9785 54.7725 47.9785 54.5831C47.9785 53.9473 47.2803 53.4336 46.4181 53.4336C46.3886 53.4336 46.3624 53.4336 46.3329 53.4336C47.1557 53.4657 47.808 53.9698 47.808 54.5831C47.808 54.8592 47.6736 55.1161 47.4507 55.3152C47.1819 55.556 46.782 55.7133 46.3329 55.7326Z" fill="#D1C6BD"/>
<path d="M44.8578 54.5831C44.8578 54.6409 44.8644 54.6987 44.8775 54.7565C44.9267 54.9941 45.0709 55.2092 45.2872 55.3762C45.379 55.4468 45.4839 55.5111 45.5987 55.5624C45.6183 55.5721 45.638 55.5817 45.6577 55.5881C45.7593 55.6299 45.8642 55.662 45.9789 55.6877C46.051 55.7037 46.1231 55.7166 46.1985 55.723C46.2444 55.7294 46.2903 55.7326 46.3362 55.7326C46.7853 55.7133 47.1852 55.556 47.454 55.3152C47.6769 55.1161 47.8113 54.8592 47.8113 54.5831C47.8113 53.9698 47.159 53.4657 46.3362 53.4336C46.2117 53.4368 46.0871 53.456 45.9724 53.4817C45.9593 53.4849 45.9429 53.4882 45.9298 53.4914C45.874 53.5042 45.8183 53.5203 45.7626 53.5395C45.7134 53.5556 45.6675 53.5717 45.6249 53.5941C45.1692 53.7964 44.8611 54.1625 44.8611 54.5831H44.8578Z" fill="#FFF1E6"/>
<path d="M45.8117 55.679C45.4904 55.9102 45.0512 56.0611 44.5661 56.0836C44.612 56.0836 44.6546 56.0868 44.7005 56.0868C45.2184 56.0868 45.6871 55.9455 46.0313 55.7144C46.2083 55.5988 46.3493 55.4575 46.4509 55.3001C46.5591 55.1332 46.6214 54.9469 46.6214 54.7511C46.6214 54.3401 46.3558 53.9708 45.9362 53.7268C45.8969 53.7043 45.8576 53.6818 45.815 53.6626C45.7461 53.6273 45.6773 53.5983 45.6019 53.5694C45.3331 53.4699 45.0282 53.4121 44.7037 53.4121C44.6578 53.4121 44.6152 53.4121 44.5694 53.4153C44.8971 53.4314 45.202 53.5052 45.4642 53.6208C45.5888 53.6754 45.7003 53.7396 45.8019 53.8135C46.0182 53.9644 46.1788 54.1538 46.2706 54.3625C46.323 54.4845 46.3526 54.6162 46.3526 54.7511C46.3526 55.0401 46.2214 55.3066 45.9985 55.5249C45.9428 55.5795 45.8805 55.6309 45.8117 55.679Z" fill="#D1C6BD"/>
<path d="M42.7796 54.7493C42.7796 54.8937 42.8124 55.035 42.8746 55.1666C42.9369 55.2983 43.0287 55.4235 43.1435 55.5327C43.1697 55.5584 43.1992 55.5841 43.2287 55.6098C43.3237 55.69 43.4352 55.7639 43.5565 55.8249C43.5565 55.8249 43.563 55.8281 43.5663 55.8313C43.5991 55.8474 43.6319 55.8635 43.6646 55.8795C43.9302 55.9983 44.235 56.0722 44.5661 56.0882C45.0545 56.0657 45.4937 55.9148 45.8117 55.6836C45.8773 55.6355 45.9396 55.5841 45.9986 55.5295C46.2215 55.3111 46.3526 55.0447 46.3526 54.7557C46.3526 54.6208 46.3231 54.4891 46.2706 54.3671C46.1788 54.1584 46.015 53.969 45.8019 53.8181C45.7003 53.7442 45.5855 53.68 45.4643 53.6254C45.202 53.5098 44.8972 53.436 44.5694 53.4199C44.058 53.4424 43.5991 53.6094 43.2778 53.8598C43.2614 53.8727 43.2483 53.8823 43.2319 53.8951C42.95 54.1263 42.7829 54.4282 42.7829 54.7557L42.7796 54.7493Z" fill="#FFF1E6"/>
<path d="M43.6023 55.9087C43.3925 55.9954 43.1533 56.05 42.8943 56.066C42.9369 56.066 42.9828 56.0693 43.0287 56.0693C43.2778 56.0693 43.5171 56.0307 43.7269 55.9601C43.7695 55.944 43.8121 55.9312 43.8547 55.9151C44.0645 55.8317 44.2481 55.7128 44.3858 55.5748C44.4513 55.5105 44.5038 55.4431 44.5497 55.3693C44.6316 55.2312 44.6775 55.0803 44.6775 54.923C44.6775 54.8973 44.6775 54.8716 44.6742 54.8459C44.6251 54.3129 44.0514 53.8794 43.3106 53.7895C43.2188 53.7799 43.127 53.7734 43.0287 53.7734C42.9828 53.7734 42.9402 53.7734 42.8943 53.7767C43.0222 53.7831 43.1434 53.7991 43.2614 53.828C43.9269 53.9757 44.4087 54.4092 44.4087 54.923V54.9358C44.4055 55.1573 44.3104 55.3661 44.1498 55.5394C44.1334 55.5587 44.117 55.5748 44.0973 55.5908C43.9695 55.7161 43.8023 55.8252 43.6089 55.9055C43.6056 55.9055 43.6024 55.9087 43.5958 55.9119L43.6023 55.9087Z" fill="#D1C6BD"/>
<path d="M41.3799 54.9198C41.3799 54.9519 41.3799 54.9807 41.3864 55.0096C41.3897 55.0546 41.3996 55.0963 41.4127 55.1413C41.4291 55.2023 41.4553 55.2633 41.4848 55.3211C41.5569 55.4592 41.6684 55.5844 41.806 55.6904C42.0814 55.9023 42.4649 56.0404 42.8976 56.066C43.1533 56.05 43.3926 55.9954 43.6056 55.9087C43.6089 55.9087 43.6122 55.9055 43.6188 55.9023C43.8089 55.822 43.9761 55.7128 44.1072 55.5876C44.1268 55.5716 44.1432 55.5523 44.1596 55.5362C44.3203 55.3628 44.4153 55.1541 44.4186 54.9326V54.9198C44.4186 54.406 43.9367 53.9725 43.2713 53.8248C43.1533 53.7991 43.032 53.7831 42.9041 53.7734C42.0551 53.8216 41.3897 54.3161 41.3897 54.9165L41.3799 54.9198Z" fill="#FFF1E6"/>
<path d="M25.3867 56.0053C25.2163 56.0759 25.0196 56.1208 24.8098 56.1337C24.8458 56.1337 24.8819 56.1337 24.9179 56.1337C25.1212 56.1337 25.3146 56.1016 25.4883 56.047C25.5244 56.0342 25.5572 56.0213 25.5899 56.0085C25.7604 55.9378 25.9079 55.8447 26.0226 55.7291C26.0751 55.6777 26.121 55.62 26.1537 55.5622C26.2226 55.4498 26.2587 55.3278 26.2587 55.1961C26.2587 55.1768 26.2587 55.1543 26.2587 55.1351C26.2193 54.7016 25.7506 54.3452 25.1474 54.2746C25.072 54.2649 24.9966 54.2617 24.9179 54.2617C24.8819 54.2617 24.8458 54.2617 24.8098 54.2649C24.9147 54.2714 25.013 54.2842 25.1081 54.3067C25.6522 54.4255 26.0423 54.7819 26.0423 55.1993V55.2089C26.0423 55.3887 25.9636 55.5589 25.8325 55.7002C25.8194 55.7163 25.8063 55.7291 25.7899 55.742C25.685 55.8447 25.5473 55.9314 25.3933 55.9988C25.3933 55.9988 25.3867 55.9988 25.3834 56.0021L25.3867 56.0053Z" fill="#D1C6BD"/>
<path d="M23.5773 55.2027C23.5773 55.2283 23.5773 55.2508 23.5806 55.2765C23.5806 55.3118 23.5904 55.3471 23.6002 55.3825C23.6134 55.4338 23.633 55.482 23.6592 55.5301C23.7182 55.6425 23.8067 55.7453 23.9215 55.832C24.1444 56.0022 24.459 56.1177 24.8098 56.137C25.0196 56.1242 25.213 56.0792 25.3867 56.0086C25.3867 56.0086 25.3933 56.0086 25.3966 56.0054C25.5539 55.9412 25.6883 55.8513 25.7932 55.7485C25.8096 55.7357 25.8227 55.7196 25.8358 55.7068C25.9669 55.5655 26.0423 55.3953 26.0456 55.2155V55.2059C26.0456 54.7885 25.6522 54.4352 25.1114 54.3132C25.0163 54.2908 24.9147 54.2779 24.8131 54.2715C24.1214 54.31 23.5773 54.7146 23.5773 55.2027Z" fill="#FFF1E6"/>
<path d="M24.4066 56.6701C24.4328 56.6701 24.4623 56.6701 24.4918 56.6701C25.095 56.6701 25.6194 56.4165 25.8784 56.0472C25.9898 55.8899 26.0521 55.7101 26.0521 55.5206C26.0521 54.8849 25.3539 54.3711 24.4918 54.3711C24.4623 54.3711 24.4361 54.3711 24.4066 54.3711C25.2294 54.4032 25.8817 54.9073 25.8817 55.5206C25.8817 55.7968 25.7473 56.0536 25.5244 56.2527C25.2556 56.4935 24.8557 56.6509 24.4066 56.6701Z" fill="#D1C6BD"/>
<path d="M22.9282 55.5206C22.9282 55.5784 22.9348 55.6362 22.9479 55.694C22.997 55.9316 23.1413 56.1468 23.3576 56.3137C23.4494 56.3844 23.5543 56.4486 23.669 56.4999C23.6887 56.5096 23.7084 56.5192 23.728 56.5257C23.8296 56.5674 23.9346 56.5995 24.0493 56.6252C24.1214 56.6412 24.1935 56.6541 24.2689 56.6605C24.3148 56.6669 24.3607 56.6701 24.4066 56.6701C24.8557 56.6509 25.2556 56.4935 25.5244 56.2527C25.7473 56.0536 25.8817 55.7968 25.8817 55.5206C25.8817 54.9073 25.2294 54.4032 24.4066 54.3711C24.282 54.3743 24.1575 54.3936 24.0427 54.4193C24.0296 54.4225 24.0132 54.4257 24.0001 54.4289C23.9444 54.4418 23.8887 54.4578 23.8329 54.4771C23.7838 54.4931 23.7379 54.5092 23.6953 54.5316C23.2396 54.7339 22.9315 55.1 22.9315 55.5206H22.9282Z" fill="#FFF1E6"/>
<path d="M23.8854 56.6146C23.5642 56.8457 23.1249 56.9967 22.6398 57.0191C22.6857 57.0191 22.7283 57.0223 22.7742 57.0223C23.2921 57.0223 23.7608 56.8811 24.105 56.6499C24.282 56.5343 24.423 56.393 24.5246 56.2357C24.6328 56.0687 24.6951 55.8825 24.6951 55.6866C24.6951 55.2756 24.4296 54.9064 24.01 54.6623C23.9706 54.6398 23.9313 54.6174 23.8887 54.5981C23.8198 54.5628 23.751 54.5339 23.6756 54.505C23.4068 54.4054 23.102 54.3477 22.7775 54.3477C22.7316 54.3477 22.6889 54.3477 22.6431 54.3509C22.9708 54.3669 23.2757 54.4408 23.5379 54.5564C23.6625 54.611 23.774 54.6752 23.8756 54.749C24.0919 54.8999 24.2525 55.0894 24.3443 55.2981C24.3967 55.4201 24.4263 55.5518 24.4263 55.6866C24.4263 55.9756 24.2951 56.2421 24.0722 56.4604C24.0165 56.515 23.9543 56.5664 23.8854 56.6146Z" fill="#D1C6BD"/>
<path d="M20.8533 55.6868C20.8533 55.8312 20.886 55.9725 20.9483 56.1041C21.0106 56.2358 21.1024 56.361 21.2171 56.4702C21.2433 56.4959 21.2729 56.5216 21.3024 56.5473C21.3974 56.6275 21.5089 56.7014 21.6302 56.7624C21.6302 56.7624 21.6367 56.7656 21.64 56.7688C21.6727 56.7849 21.7055 56.8009 21.7383 56.817C22.0038 56.9358 22.3087 57.0096 22.6398 57.0257C23.1282 57.0032 23.5674 56.8523 23.8854 56.6211C23.951 56.5729 24.0132 56.5216 24.0722 56.467C24.2951 56.2486 24.4262 55.9821 24.4262 55.6931C24.4262 55.5583 24.3967 55.4266 24.3443 55.3046C24.2525 55.0959 24.0886 54.9065 23.8756 54.7556C23.7739 54.6817 23.6592 54.6175 23.5379 54.5629C23.2757 54.4473 22.9708 54.3735 22.643 54.3574C22.1317 54.3799 21.6727 54.5469 21.3515 54.7973C21.3351 54.8102 21.322 54.8198 21.3056 54.8326C21.0237 55.0638 20.8565 55.3656 20.8565 55.6931L20.8533 55.6868Z" fill="#FFF1E6"/>
<path d="M21.676 56.8462C21.4662 56.9329 21.2269 56.9875 20.968 57.0035C21.0106 57.0035 21.0565 57.0068 21.1024 57.0068C21.3515 57.0068 21.5908 56.9682 21.8006 56.8976C21.8432 56.8815 21.8858 56.8687 21.9284 56.8526C22.1382 56.7691 22.3218 56.6503 22.4594 56.5123C22.525 56.448 22.5774 56.3806 22.6233 56.3068C22.7053 56.1687 22.7512 56.0178 22.7512 55.8604C22.7512 55.8347 22.7512 55.8091 22.7479 55.7834C22.6987 55.2504 22.1251 54.8169 21.3843 54.727C21.2925 54.7173 21.2007 54.7109 21.1024 54.7109C21.0565 54.7109 21.0139 54.7109 20.968 54.7142C21.0958 54.7206 21.2171 54.7366 21.3351 54.7655C22.0005 54.9132 22.4824 55.3467 22.4824 55.8604V55.8733C22.4791 56.0948 22.3841 56.3036 22.2234 56.4769C22.207 56.4962 22.1906 56.5123 22.171 56.5283C22.0431 56.6536 21.876 56.7627 21.6826 56.843C21.6793 56.843 21.676 56.8462 21.6695 56.8494L21.676 56.8462Z" fill="#D1C6BD"/>
<path d="M19.4536 55.8572C19.4536 55.8893 19.4536 55.9182 19.4601 55.9471C19.4634 55.9921 19.4732 56.0338 19.4864 56.0788C19.5027 56.1398 19.529 56.2008 19.5585 56.2586C19.6306 56.3967 19.742 56.5219 19.8797 56.6279C20.155 56.8398 20.5386 56.9779 20.9713 57.0035C21.227 56.9875 21.4662 56.9329 21.6793 56.8462C21.6826 56.8462 21.6859 56.843 21.6924 56.8398C21.8825 56.7595 22.0497 56.6503 22.1808 56.5251C22.2005 56.5091 22.2169 56.4898 22.2333 56.4737C22.3939 56.3003 22.489 56.0916 22.4923 55.8701V55.8572C22.4923 55.3435 22.0104 54.91 21.345 54.7623C21.227 54.7366 21.1057 54.7206 20.9778 54.7109C20.1289 54.7591 19.4634 55.2536 19.4634 55.854L19.4536 55.8572Z" fill="#FFF1E6"/>
</svg>
