<svg width="84" height="82" viewBox="0 0 84 82" fill="none" xmlns="http://www.w3.org/2000/svg">
<g filter="url(#filter0_d_259_192122)">
<path d="M31.6983 45.1439C31.6983 45.1439 24.7251 62.626 11.499 64.2683C4.56401 65.1304 1.62303 56.8423 1.76489 54.4633C1.99952 50.5293 5.53521 46.8135 7.99601 44.3473C12.7048 39.6221 16.0659 40.8607 18.363 40.877C20.6601 40.8934 31.7038 45.1439 31.7038 45.1439H31.6983Z" fill="black"/>
<path d="M30.2853 46.2627C30.2362 46.3664 29.7505 47.3594 28.9703 48.7399C26.9951 52.2538 23.1648 58.3266 20.0165 58.7468C17.01 59.1451 15.2531 56.3951 15.7714 55.042C16.2898 53.6888 18.4177 52.3956 20.6112 51.7463C22.0462 51.3207 24.8944 49.7657 27.2516 48.3088C28.4956 47.534 29.6032 46.792 30.2798 46.2627H30.2853Z" fill="#EE5800"/>
<path d="M29.6521 45.4663C29.6521 45.4663 27.9661 46.5684 25.7727 47.8452C22.6462 49.6676 18.483 51.861 16.617 51.7792C13.4468 51.6319 12.3556 49.0074 13.0922 47.8343C13.6651 46.9285 14.238 45.8045 16.2241 45.2589C16.8134 45.0952 17.5173 44.9752 18.3794 44.9315C22.1988 44.7133 29.6521 45.4717 29.6521 45.4717V45.4663Z" fill="#EE5800"/>
<path d="M13.7414 57.7158C14.3361 57.8631 14.167 58.627 15.171 59.5764C16.1913 60.5367 17.0807 60.4276 17.1516 60.8696C17.288 61.7098 14.2488 63.5214 11.1114 63.2158C8.12684 62.9266 5.79151 60.8041 6.04796 60.2803C6.26076 59.8493 8.06134 60.8969 10.1402 60.133C12.1972 59.3745 12.792 57.4812 13.7359 57.7158H13.7414Z" fill="#FE7800"/>
<path d="M7.78877 46.7099C8.0234 46.639 9.00554 46.3444 9.67121 46.7809C10.4733 47.3101 9.90039 48.3195 10.8389 49.8091C11.259 50.4802 11.63 50.6767 11.5155 50.9441C11.3245 51.4133 10.1295 51.0532 8.54721 51.4078C6.35377 51.8989 4.77143 53.4485 4.38403 53.825C3.58195 54.6107 3.14545 55.3364 2.85627 55.2327C2.55071 55.1236 2.69256 54.1796 2.73621 53.9068C2.94355 52.57 3.51649 51.6806 5.42075 49.0452C6.56112 47.4683 6.95396 46.9555 7.78877 46.7045V46.7099Z" fill="#FE7800"/>
<path d="M25.4289 43.9003C25.4289 43.9003 22.3024 43.8239 20.1744 43.6984C18.3247 43.5893 15.9676 43.6656 13.8996 44.6314C13.5777 44.7787 13.2667 44.9534 12.9612 45.1498C10.6913 46.6066 10.1566 46.4265 9.55639 45.5262C9.19082 44.9697 9.43091 44.0203 10.5222 43.1145C10.5767 43.06 10.6477 43.0109 10.7077 42.9563C15.602 39.1969 25.4343 43.9057 25.4343 43.9057L25.4289 43.9003Z" fill="#EE5800"/>
<path d="M10.8334 52.521C11.7228 52.521 12.4157 52.9739 13.065 53.4813C13.7143 53.9833 12.7922 55.7512 12.6231 56.1113C12.5358 56.2968 11.3026 57.77 9.85672 58.523C8.49264 59.2323 5.80267 59.3687 5.18611 58.6103C4.56954 57.8464 3.18362 56.1549 5.78629 54.3925C8.38896 52.6302 9.94401 52.5265 10.8334 52.5265V52.521Z" fill="#FE7800"/>
<path d="M13.8999 44.6255C12.5304 44.1999 11.4009 43.7089 10.517 43.1087C10.5715 43.0541 10.6425 43.005 10.7025 42.9505C15.5968 39.1911 25.4291 43.8999 25.4291 43.8999C25.4291 43.8999 22.3026 43.8235 20.1747 43.698C18.325 43.5889 15.9678 43.6652 13.8999 44.631V44.6255Z" fill="#EE5800"/>
<path d="M29.6523 45.4663C29.6523 45.4663 27.9663 46.5685 25.7728 47.8453C23.5739 47.1251 21.1513 46.2466 18.2922 45.6901C17.5665 45.5482 16.8735 45.4009 16.2242 45.2535C16.8135 45.0898 17.5174 44.9698 18.3795 44.9262C22.1989 44.7079 29.6523 45.4663 29.6523 45.4663Z" fill="#EE5800"/>
<path d="M30.2851 46.2627C30.236 46.3664 29.7504 47.3594 28.9701 48.7399C28.4081 48.6308 27.8407 48.4834 27.2568 48.3088C28.5009 47.534 29.6085 46.792 30.2851 46.2627Z" fill="#EE5800"/>
<path d="M31.5783 45.6955C31.5783 45.6955 38.3769 21.835 26.6458 10.7696C14.9147 -0.295869 8.78179 2.77056 6.381 5.96797C3.98022 9.16538 8.24705 13.4322 8.64536 13.8306C9.04367 14.2289 7.22128 25.4252 7.71235 29.8285C8.65629 38.264 12.9122 39.2952 15.1766 40.8939C17.441 42.4926 31.5729 45.6955 31.5729 45.6955H31.5783Z" fill="black"/>
<path d="M12.0719 4.29856C11.0134 4.35312 8.93998 4.46224 7.7505 5.92453C7.59226 6.1155 7.15578 6.6666 7.02483 7.49596C6.81749 8.80548 7.52679 9.8258 7.7505 10.1477C7.95238 10.4369 8.73811 11.4845 9.94941 11.7737C12.0228 12.2648 12.6285 9.89675 16.0332 9.20925C17.2118 8.96918 19.2415 8.82727 21.4295 9.30743C22.5153 9.54751 23.1374 9.83124 23.2465 9.65118C23.4702 9.26924 21.124 7.21217 18.4395 5.86992C17.119 5.2097 14.931 4.15124 12.0719 4.29856Z" fill="#FE7800"/>
<path d="M31.1254 43.9002C31.1254 43.9002 34.9885 25.3432 30.7271 21.2019C27.8462 18.4028 23.6284 20.3016 23.0282 22.3041C22.428 24.3065 23.6121 27.4876 25.4127 29.9429C27.2133 32.3983 30.3288 40.6046 31.1254 43.9002Z" fill="#EE5800"/>
<path d="M29.8268 43.9004C29.8268 43.9004 24.7579 29.1028 21.244 26.9039C17.7301 24.705 14.3472 26.9039 14.1399 28.8027C13.9325 30.7015 13.4305 33.004 17.3318 36.1032C21.2331 39.2024 29.8268 43.9004 29.8268 43.9004Z" fill="#EE5800"/>
<path d="M12.0938 32.5352C12.0938 32.5352 9.8949 34.1339 10.5606 35.3997C11.2262 36.6656 12.694 37.9314 13.2942 38.0678C13.8944 38.2042 15.8259 37.0039 15.4276 35.8035C15.0293 34.6031 13.6925 32.6061 12.0938 32.5352Z" fill="#FE7800"/>
<path d="M16.9445 37.3468C16.9445 37.3468 14.4673 37.5705 14.8438 38.9946C15.2202 40.4187 16.9663 41.1935 17.6702 40.9916C18.374 40.7897 19.5471 39.9658 19.1215 39.0655C18.6959 38.1652 16.9445 37.3413 16.9445 37.3413V37.3468Z" fill="#FE7800"/>
<path d="M20.7692 39.6718C20.7692 39.6718 19.6179 40.0592 19.4924 41.0249C19.367 41.9907 20.3927 42.269 21.0911 42.4163C21.7896 42.5637 29.3902 44.6916 29.3902 44.6916C29.3902 44.6916 21.7896 39.5408 20.7692 39.6663V39.6718Z" fill="#EE5800"/>
<path d="M16.7425 36.0757C16.8898 36.2503 17.0917 36.4521 17.0044 36.725C16.9171 36.9978 16.366 37.227 16.1641 37.0251C15.9622 36.8232 15.7876 36.5013 15.8367 36.2776C15.8858 36.0539 16.5843 35.9011 16.737 36.0757H16.7425Z" fill="#FE7800"/>
<path d="M13.3268 29.927C13.6488 30.7945 13.5451 31.3784 13.2504 31.4384C12.9558 31.4984 12.3229 31.4275 12.0992 30.7236C11.8754 30.0252 11.6572 29.0704 12.0555 29.1249C12.4538 29.1795 12.9285 28.8412 13.3268 29.927Z" fill="#FE7800"/>
<path d="M11.5699 31.9512C11.5481 31.2365 11.4935 30.6035 11.0461 30.3907C10.5987 30.1779 9.07092 30.2543 8.99453 30.8764C8.91814 31.5038 9.01089 31.8312 9.12001 32.3495C9.39283 33.6973 11.5917 32.666 11.5699 31.9512Z" fill="#FE7800"/>
<path d="M13.294 18.1739C13.3213 18.2612 13.3813 18.343 13.4523 18.3976C13.7851 18.6486 14.1179 18.8995 14.4781 19.1069C14.9691 19.3961 15.5093 19.6252 16.0222 19.8708C16.7424 20.2145 17.1298 20.4274 17.299 20.5201C17.299 20.5201 17.3208 20.531 17.3536 20.5528C17.5282 20.651 17.8992 20.8529 17.9919 20.7602C18.041 20.7165 18.0028 20.6019 17.9919 20.5637C17.5009 19.156 16.7861 18.1357 16.7861 18.1357C16.4423 17.4209 15.9731 16.4933 15.2583 15.2274C14.5217 13.9288 15.302 15.3366 14.4508 13.8688C13.9433 12.9903 13.7142 12.5484 13.4086 12.5593C13.3377 12.5593 13.174 12.592 12.9503 12.9303C12.2464 13.9889 12.5356 15.222 12.9503 16.9298C13.0321 17.2517 13.1358 17.6773 13.294 18.1684V18.1739Z" fill="#FE7800"/>
<path d="M19.269 23.2099C19.1598 22.9971 19.0671 22.817 18.9088 22.4897C18.6087 21.8567 18.6415 21.8567 18.5596 21.7639C18.3032 21.4638 17.9431 21.5021 17.1519 21.3329C16.7263 21.2456 16.2734 21.1474 15.7605 20.8909C15.2204 20.6181 14.9639 20.2034 14.1291 19.8106C13.9163 19.7124 13.8617 19.7015 13.829 19.7287C13.5725 19.9197 14.4346 21.8894 15.886 23.3299C16.0606 23.5045 18.1559 25.5343 19.3344 24.9559C19.5145 24.8686 20.0274 24.5849 19.8691 24.323C19.6563 23.9574 19.4545 23.5864 19.2635 23.2153L19.269 23.2099Z" fill="#FE7800"/>
<path d="M19.9346 14.4793C19.7927 14.0373 19.5963 13.6827 19.3125 13.3826C18.9961 13.0497 18.6578 12.897 18.3522 12.7388C17.3646 12.2259 16.0715 11.9476 14.9529 12.0513C14.6255 12.084 14.451 12.466 14.6365 12.7388C14.8056 12.9843 14.9748 13.2298 15.133 13.4863C15.5204 14.1029 15.8805 14.7412 16.2352 15.3796C16.9336 16.6291 17.9921 18.7134 18.5977 20.012C18.6032 20.023 18.6087 20.0394 18.6141 20.0503C18.7942 20.4322 19.3617 20.3667 19.4435 19.952C19.6781 18.8226 20.4638 16.1108 19.9346 14.4848V14.4793Z" fill="#FE7800"/>
<path d="M21.4785 24.8523C21.3585 24.8796 21.2166 24.836 21.1293 24.8032C20.8893 24.7214 20.6983 24.5468 20.24 23.7284C20.0872 23.461 19.8362 22.9917 19.607 22.3588C19.487 22.0314 19.4324 21.8186 19.4924 21.5731C19.5634 21.2839 19.7489 21.1093 19.8526 21.0057C20.1527 20.6892 20.2563 20.2199 20.4528 19.2869C20.6765 18.2175 20.611 17.9282 20.8292 16.5314C20.982 15.5384 21.0584 15.0418 21.1621 15.0309C21.5058 15.0037 22.0296 18.2447 22.106 21.2293C22.1442 22.7025 22.0842 24.6995 21.484 24.8469L21.4785 24.8523Z" fill="#FE7800"/>
<path d="M23.7538 19.4345C24.4522 19.6909 24.8779 18.7469 26.6021 18.4359C28.3481 18.1195 29.1392 18.8615 29.5539 18.4359C30.3451 17.6229 28.7737 13.5252 25.4562 11.6374C22.3025 9.84222 18.3575 10.4915 18.2102 11.2391C18.0847 11.8556 20.6656 11.992 22.1115 14.2891C23.541 16.559 22.6462 19.0253 23.7593 19.4399L23.7538 19.4345Z" fill="#FE7800"/>
<path d="M9.35453 27.133C9.52914 27.3786 10.2658 28.3879 11.2534 28.3825C12.4538 28.377 12.672 26.882 14.7509 25.9326C15.6839 25.507 16.2022 25.5561 16.3005 25.1851C16.4751 24.5467 15.0291 24.0884 13.7523 22.5879C11.9845 20.509 11.6353 17.7154 11.5535 17.0388C11.3788 15.6256 11.5207 14.5289 11.1551 14.4416C10.7677 14.3434 10.1784 15.4674 10.0038 15.7893C9.16356 17.3826 9.03808 18.7466 8.85256 22.9371C8.74343 25.447 8.73251 26.2819 9.35453 27.1385V27.133Z" fill="#FE7800"/>
<path d="M35.1686 47.878C35.1686 47.878 26.5149 64.5907 33.93 75.6671C37.8204 81.4726 46.0104 78.2752 47.7127 76.611C50.5337 73.861 51.0302 68.7539 51.2812 65.2782C51.7722 58.6215 48.6403 56.8919 47.1234 55.1677C45.6066 53.4435 35.1686 47.8726 35.1686 47.8726V47.878Z" fill="black"/>
<path d="M35.245 49.6846C35.2013 49.7882 34.7648 50.8031 34.2356 52.2982C32.866 56.0903 30.7872 62.9598 32.5277 65.617C34.1919 68.1542 37.422 67.6796 38.1041 66.4028C38.7916 65.126 38.3714 62.6706 37.4275 60.5863C36.8109 59.2277 36.1234 56.0521 35.6815 53.313C35.4523 51.8617 35.2941 50.5412 35.245 49.6846Z" fill="#EE5800"/>
<path d="M36.2652 49.6406C36.2652 49.6406 36.5326 51.6376 37.0019 54.1312C37.6675 57.6887 38.7369 62.272 40.0192 63.6252C42.2072 65.9278 44.9026 65.0329 45.3118 63.707C45.6228 62.6812 46.0975 61.5136 45.2082 59.653C44.9463 59.1019 44.5752 58.4908 44.046 57.8087C41.7106 54.775 36.2598 49.6406 36.2598 49.6406H36.2652Z" fill="#EE5800"/>
<path d="M37.4165 69.6816C36.9145 69.3324 36.4507 69.9544 35.0757 69.818C33.6844 69.6762 33.1824 68.9341 32.8004 69.1632C32.0748 69.6106 32.6968 73.0918 34.9775 75.2689C37.1491 77.3368 40.2865 77.7133 40.5102 77.1786C40.6958 76.7366 38.726 76.0601 37.9458 73.9867C37.171 71.9351 38.2186 70.2436 37.4165 69.6871V69.6816Z" fill="#FE7800"/>
<path d="M49.6332 66.9805C49.5296 66.7568 49.1149 65.8183 48.351 65.6055C47.4234 65.3436 47.0415 66.4404 45.2954 66.7023C44.5097 66.8223 44.1224 66.6695 43.9914 66.9314C43.7622 67.3843 44.8153 68.05 45.5846 69.4795C46.6486 71.4602 46.5122 73.6699 46.4795 74.2101C46.4086 75.3287 46.1467 76.1362 46.414 76.2835C46.6978 76.4418 47.3198 75.7161 47.4944 75.5033C48.3728 74.4721 48.6675 73.4572 49.415 70.2925C49.8624 68.3992 49.9934 67.7662 49.6387 66.9696L49.6332 66.9805Z" fill="#FE7800"/>
<path d="M40.2103 51.8067C40.2103 51.8067 42.3165 54.1202 43.806 55.648C45.0992 56.9739 46.5833 58.8072 47.2053 61.0006C47.3035 61.3389 47.3799 61.6882 47.429 62.0483C47.8164 64.7164 48.2966 65.0056 49.377 64.8692C50.0372 64.7819 50.5937 63.9798 50.5719 62.5611C50.5773 62.4847 50.5719 62.3975 50.5719 62.3156C50.2118 56.1554 40.2212 51.8013 40.2212 51.8013L40.2103 51.8067Z" fill="#EE5800"/>
<path d="M43.244 68.4867C42.6602 67.8155 41.8635 67.5919 41.0615 67.4282C40.2594 67.2645 39.5228 69.1196 39.3645 69.4798C39.2827 69.6653 38.9771 71.5641 39.3536 73.1519C39.7083 74.6469 41.367 76.7694 42.3437 76.7366C43.3204 76.7039 45.5084 76.6439 45.1428 73.5229C44.7718 70.4019 43.8333 69.1578 43.2494 68.4867H43.244Z" fill="#FE7800"/>
<path d="M47.2051 61.0005C48.4219 61.759 49.535 62.2882 50.5662 62.5665C50.5717 62.4901 50.5662 62.4028 50.5662 62.321C50.2061 56.1608 40.2156 51.8066 40.2156 51.8066C40.2156 51.8066 42.3217 54.1201 43.8113 55.6479C45.1045 56.9738 46.5886 58.8071 47.2106 61.0005H47.2051Z" fill="#EE5800"/>
<path d="M36.2651 49.6406C36.2651 49.6406 36.5325 51.6376 37.0018 54.1312C38.9879 55.3261 41.2358 56.5811 43.5275 58.3762C44.1113 58.8345 44.6734 59.2601 45.2135 59.653C44.9516 59.1019 44.5806 58.4908 44.0513 57.8087C41.716 54.775 36.2651 49.6406 36.2651 49.6406Z" fill="#EE5800"/>
<path d="M35.2451 49.6846C35.2015 49.7882 34.765 50.8031 34.2357 52.2982C34.6886 52.6528 35.1687 52.9802 35.6816 53.313C35.4525 51.8617 35.2942 50.5412 35.2451 49.6846Z" fill="#EE5800"/>
<path d="M34.8303 48.3311C34.8303 48.3311 48.422 27.5751 64.469 29.2011C80.5106 30.8326 82.2076 37.473 81.3564 41.3797C80.5052 45.2864 74.4923 44.8554 73.9249 44.8117C73.3629 44.7736 66.095 53.4764 62.4393 55.9863C55.4443 60.7933 51.8813 58.2506 49.1859 57.585C46.4959 56.9193 34.8248 48.3256 34.8248 48.3256L34.8303 48.3311Z" fill="black"/>
<path d="M78.9011 35.9881C79.5504 36.8229 80.8272 38.4598 80.4998 40.3204C80.4561 40.566 80.3252 41.2589 79.785 41.9028C78.9338 42.9176 77.6953 43.0486 77.3079 43.0868C76.9532 43.125 75.6491 43.2123 74.6397 42.4866C72.91 41.2426 74.3069 39.2347 72.599 36.2064C72.0098 35.1588 70.7875 33.5273 68.9924 32.1905C68.103 31.5303 67.4755 31.2411 67.5465 31.0392C67.6883 30.6191 70.7766 31.0447 73.5484 32.2014C74.9125 32.7689 77.1442 33.7292 78.9011 35.9881Z" fill="#FE7800"/>
<path d="M36.4835 47.4964C36.4835 47.4964 47.9855 32.4316 53.9056 32.9444C57.9105 33.2937 59.231 37.7242 58.1124 39.4866C56.9939 41.249 53.8128 42.433 50.7791 42.684C47.7454 42.9295 39.5009 45.9468 36.4835 47.4964Z" fill="#EE5800"/>
<path d="M37.3347 48.4782C37.3347 48.4782 51.8431 42.629 55.8044 43.8457C59.7657 45.0625 60.3168 49.062 59.0182 50.4643C57.7196 51.8666 56.3064 53.749 51.412 52.8268C46.5177 51.9047 37.3347 48.4782 37.3347 48.4782Z" fill="#EE5800"/>
<path d="M57.5339 54.4479C57.5339 54.4479 57.7631 57.1597 56.3717 57.4816C54.9803 57.8036 53.0597 57.5252 52.5686 57.1597C52.0776 56.7941 51.7174 54.5461 52.8851 54.066C54.0528 53.5858 56.4372 53.2802 57.5339 54.4479Z" fill="#FE7800"/>
<path d="M50.719 53.9345C50.719 53.9345 52.1704 55.9534 50.8445 56.6027C49.5186 57.252 47.789 56.4335 47.4834 55.7733C47.1778 55.1131 47.0305 53.6835 47.9908 53.4161C48.9511 53.1488 50.719 53.9291 50.719 53.9291V53.9345Z" fill="#FE7800"/>
<path d="M46.4578 52.5647C46.4578 52.5647 46.9162 53.6887 46.2669 54.4144C45.6176 55.1401 44.7391 54.5454 44.1662 54.1143C43.5933 53.6833 37.0129 49.3291 37.0129 49.3291C37.0129 49.3291 45.8795 51.7026 46.4578 52.5593V52.5647Z" fill="#EE5800"/>
<path d="M51.8102 53.2525C51.581 53.2525 51.2973 53.2307 51.1445 53.4762C50.9918 53.7217 51.1827 54.2837 51.4665 54.3056C51.7502 54.3274 52.1103 54.2456 52.2467 54.0601C52.3831 53.8745 52.0394 53.2471 51.8102 53.2471V53.2525Z" fill="#FE7800"/>
<path d="M58.7017 51.8121C57.8342 52.1395 57.4631 52.5979 57.6104 52.8598C57.7578 53.1217 58.227 53.5527 58.9036 53.2635C59.5802 52.9743 60.4423 52.516 60.1422 52.2486C59.8421 51.9812 59.7875 51.4084 58.7017 51.8121Z" fill="#FE7800"/>
<path d="M58.3199 54.4636C58.8764 54.0107 59.3893 53.6396 59.8422 53.8361C60.2951 54.0325 61.239 55.2384 60.8134 55.7022C60.3878 56.1659 60.0822 56.3133 59.6185 56.5752C58.4181 57.2517 57.7633 54.911 58.3199 54.4636Z" fill="#FE7800"/>
<path d="M67.6064 44.1456C67.5191 44.1838 67.4209 44.1893 67.3336 44.1729C66.9244 44.0802 66.5206 43.9928 66.1223 43.8619C65.5821 43.6764 65.0583 43.4254 64.5345 43.1962C63.8033 42.8798 63.3886 42.7215 63.2031 42.656C63.2031 42.656 63.1813 42.6506 63.1431 42.6342C62.9522 42.5633 62.5593 42.4159 62.5648 42.2904C62.5648 42.225 62.6739 42.1813 62.7121 42.165C64.098 41.6139 65.3366 41.4884 65.3366 41.4884C66.1005 41.281 67.1153 41.0301 68.534 40.7409C69.9963 40.4462 68.4248 40.7791 70.089 40.4571C71.0821 40.2662 71.5677 40.1461 71.7641 40.3862C71.8078 40.4462 71.8951 40.5881 71.786 40.9755C71.4422 42.2032 70.3236 42.7924 68.7631 43.5945C68.4685 43.7473 68.0756 43.9437 67.6064 44.1456Z" fill="#FE7800"/>
<path d="M59.8911 42.924C60.1202 42.8694 60.3222 42.8203 60.6714 42.7221C61.3479 42.5366 61.3207 42.5093 61.4461 42.5093C61.8445 42.5093 62.0463 42.8039 62.6902 43.2896C63.0394 43.5515 63.405 43.8352 63.9342 44.048C64.4962 44.2772 64.9764 44.1953 65.8167 44.5718C66.0349 44.67 66.0731 44.7027 66.0786 44.7464C66.1004 45.0683 64.0488 45.7067 62.0081 45.543C61.7626 45.5212 58.8544 45.2702 58.5216 43.9988C58.4725 43.8024 58.3524 43.235 58.6525 43.1804C59.0672 43.104 59.4819 43.0113 59.8856 42.913L59.8911 42.924Z" fill="#FE7800"/>
<path d="M66.0513 36.7034C66.4769 36.5233 66.8697 36.4361 67.2899 36.4579C67.7482 36.4797 68.0865 36.6325 68.4084 36.7635C69.4397 37.1727 70.4982 37.9693 71.1529 38.8859C71.3439 39.1533 71.1693 39.5352 70.8419 39.5734C70.5473 39.6062 70.2472 39.6389 69.9525 39.6881C69.2323 39.8026 68.5121 39.9445 67.7973 40.0918C66.395 40.381 64.1252 40.943 62.7502 41.3358C62.7338 41.3358 62.7229 41.3413 62.7066 41.3467C62.2973 41.4613 61.9809 40.9921 62.2373 40.6538C62.9412 39.7371 64.4744 37.3691 66.0513 36.7034Z" fill="#FE7800"/>
<path d="M59.5257 39.4915C61.8282 37.5927 64.6273 35.874 64.8292 36.1468C64.8892 36.2286 64.5673 36.616 63.9126 37.3799C62.9959 38.4548 62.734 38.5967 62.0738 39.4697C61.5008 40.2281 61.2117 40.6155 61.168 41.0466C61.1517 41.1884 61.1462 41.4449 60.9716 41.6904C60.8243 41.8923 60.6278 41.9905 60.3004 42.116C59.6675 42.3561 59.1546 42.4761 58.8491 42.5361C57.9324 42.7271 57.676 42.6943 57.4577 42.5688C57.3813 42.5252 57.2504 42.4488 57.1958 42.3343C56.9121 41.7832 58.3853 40.43 59.5257 39.4969V39.4915Z" fill="#FE7800"/>
<path d="M59.8093 37.0637C59.16 36.7036 59.5911 35.7651 58.7017 34.2537C57.8014 32.7259 56.7211 32.6113 56.7702 32.0221C56.8684 30.8926 60.9934 29.3976 64.5946 30.6744C68.0157 31.8857 70.1054 35.2904 69.6417 35.896C69.2597 36.3926 67.4646 34.5319 64.7855 34.9412C62.1337 35.3449 60.8515 37.6366 59.8148 37.0637H59.8093Z" fill="#FE7800"/>
<path d="M63.4107 52.9909C63.1106 53.0182 61.8665 53.1219 61.2227 52.3743C60.4424 51.4631 61.43 50.3227 60.7862 48.1238C60.497 47.1362 60.126 46.7816 60.3388 46.4596C60.7098 45.9085 61.9975 46.7052 63.9727 46.6888C66.7063 46.667 69.0416 45.101 69.6091 44.7191C70.7931 43.9279 71.5297 43.104 71.8352 43.3222C72.1626 43.5514 71.6988 44.7355 71.5679 45.0738C70.9131 46.7489 69.9637 47.7419 66.9137 50.6228C65.0858 52.347 64.4637 52.9036 63.4107 52.9909Z" fill="#FE7800"/>
<path d="M34.9993 48.151C34.35 50.6936 32.0311 56.1226 29.1556 59.8984C26.2583 63.7124 23.9775 67.8373 22.2097 69.7143C21.2439 70.7237 20.802 71.4276 20.3873 71.2093C19.9781 70.9911 20.3163 70.2981 20.6164 68.9613C20.7474 68.3557 20.9602 67.69 21.2221 66.948C22.0678 64.5909 23.4865 61.5026 24.8888 57.6286C26.5038 53.1708 29.1883 47.949 30.9344 45.9738C31.0217 45.8702 31.1144 45.7883 31.2017 45.7229C32.2439 44.9153 33.2369 46.0884 33.6625 46.3176C34.1263 46.5577 35.4304 46.5141 35.0102 48.151H34.9993Z" fill="black"/>
<path d="M33.608 47.0324C33.5589 47.2288 33.4988 47.4416 33.4279 47.6653C32.6913 50.0388 30.8253 54.1911 28.5663 57.1757C26.0619 60.4549 24.1031 64.0234 22.5644 65.633C21.9042 66.3314 21.5222 66.8607 21.2167 66.948C22.0624 64.5909 23.481 61.5026 24.8833 57.6286C26.4984 53.1708 29.1829 47.949 30.9289 45.9738C31.0162 45.8702 31.109 45.7883 31.1963 45.7229C32.2384 44.9153 33.2315 46.0884 33.6571 46.3176C33.6953 46.4976 33.6898 46.7323 33.608 47.0324Z" fill="#131C47"/>
<path d="M38.8405 44.4894C38.1585 45.7662 37.04 47.354 36.0142 47.9051C35.6704 48.0906 35.3321 48.1615 35.0047 48.1561C34.4591 48.1506 33.9407 47.9269 33.4278 47.6705C33.2969 47.5996 33.155 47.5286 33.0186 47.4577C32.1674 47.0048 31.4036 46.7156 31.1962 45.728C31.1744 45.6353 31.158 45.548 31.1471 45.4552C31.1253 45.2369 31.1253 44.9914 31.1471 44.7186C31.218 43.8238 31.5018 42.7052 31.8837 41.7558C31.9929 41.4721 32.1129 41.2102 32.2384 40.9701C33.6025 38.4275 36.1233 37.0906 37.9348 37.9473C37.973 37.9527 38.0221 37.98 38.0603 38.0018C39.8827 38.9731 40.2374 41.8813 38.846 44.484L38.8405 44.4894Z" fill="black"/>
<path d="M35.0321 23.7559C36.8 25.0763 38.5787 26.8114 39.0261 29.0594C39.0698 31.2856 39.0043 33.4954 38.7424 35.7052C38.6279 36.2891 38.6224 37.0802 38.295 37.5276C38.5351 36.9547 38.5624 36.3109 38.6388 35.6943C38.6988 33.3154 39.2826 30.5708 38.1259 28.3937C37.2256 26.7841 35.9597 25.3327 35.0376 23.7613L35.0321 23.7559Z" fill="black"/>
<path d="M49.4586 30.68C47.1833 30.8546 45.0663 31.3347 43.2875 32.8297C41.6015 34.352 39.7191 35.7489 38.3223 37.5385C38.7861 36.5837 39.8446 35.7925 40.603 34.985L43.1238 32.6497C43.9423 31.8913 44.7607 30.8982 45.9447 30.5326C47.0578 30.178 48.482 30.0907 49.4532 30.68H49.4586Z" fill="black"/>
<path d="M37.3183 42.4761C35.9706 44.293 33.9026 45.035 32.6968 44.1457C32.0256 43.6546 31.7583 42.7598 31.8838 41.7558C31.9929 41.4721 32.1129 41.2102 32.2384 40.9701C33.6025 38.4275 36.1233 37.0906 37.9348 37.9473C38.726 38.9894 38.4968 40.8828 37.3237 42.4761H37.3183Z" fill="#131C47"/>
<path d="M39.6644 38.0624C39.3207 38.7117 38.5131 38.9572 37.8693 38.608C37.22 38.2643 36.9745 37.4568 37.3237 36.8129C37.6674 36.1636 38.3113 36.2236 38.9606 36.5674C39.6099 36.9111 40.0136 37.4131 39.6699 38.0624H39.6644Z" fill="black"/>
</g>
<defs>
<filter id="filter0_d_259_192122" x="0.0348098" y="0.948" width="83.8772" height="80.104" filterUnits="userSpaceOnUse" color-interpolation-filters="sRGB">
<feFlood flood-opacity="0" result="BackgroundImageFix"/>
<feColorMatrix in="SourceAlpha" type="matrix" values="0 0 0 0 0 0 0 0 0 0 0 0 0 0 0 0 0 0 127 0" result="hardAlpha"/>
<feMorphology radius="0.76" operator="dilate" in="SourceAlpha" result="effect1_dropShadow_259_192122"/>
<feOffset dx="0.3268"/>
<feGaussianBlur stdDeviation="0.646"/>
<feComposite in2="hardAlpha" operator="out"/>
<feColorMatrix type="matrix" values="0 0 0 0 0.132578 0 0 0 0 0.132578 0 0 0 0 0.253333 0 0 0 0.54 0"/>
<feBlend mode="normal" in2="BackgroundImageFix" result="effect1_dropShadow_259_192122"/>
<feBlend mode="normal" in="SourceGraphic" in2="effect1_dropShadow_259_192122" result="shape"/>
</filter>
</defs>
</svg>
