<svg width="72" height="67" viewBox="0 0 72 67" fill="none" xmlns="http://www.w3.org/2000/svg">
<path d="M40.4679 39.2331C40.4679 39.2331 50.3073 51.4332 45.9552 61.5895C43.6738 66.9153 36.3869 65.6087 34.7092 64.527C31.9349 62.7381 30.7055 58.6731 29.9374 55.8933C28.4633 50.5717 30.7785 48.6729 31.7547 47.0332C32.7308 45.3935 40.4702 39.2292 40.4702 39.2292L40.4679 39.2331Z" fill="black"/>
<path d="M40.6916 40.7064C40.7467 40.7843 41.2681 41.5415 41.9487 42.6695C43.6856 45.5328 46.5126 50.78 45.498 53.2096C44.5269 55.5285 41.7813 55.6549 41.0107 54.7259C40.2402 53.7969 40.189 51.739 40.6355 49.8994C40.9271 48.6955 40.987 46.0134 40.9125 43.7238C40.8688 42.5129 40.7919 41.4133 40.6894 40.7103L40.6916 40.7064Z" fill="#FFD024"/>
<path d="M39.8442 40.8322C39.8442 40.8322 39.9414 42.4947 39.9531 44.5928C39.9716 47.5844 39.8259 51.472 38.9829 52.7758C37.5447 54.9873 35.1701 54.6882 34.6226 53.6769C34.2017 52.8932 33.6214 52.0195 34.0565 50.3712C34.1844 49.8814 34.3921 49.3274 34.7221 48.6916C36.1659 45.8641 39.8482 40.8344 39.8482 40.8344L39.8442 40.8322Z" fill="#FFD024"/>
<path d="M42.1111 57.2823C42.4683 56.9167 42.9552 57.3527 44.0699 57.0242C45.1994 56.6885 45.4931 56.0061 45.8456 56.1373C46.5164 56.3857 46.5637 59.3103 45.0237 61.4332C43.5597 63.4532 41.0295 64.2526 40.7547 63.853C40.5292 63.5229 42.05 62.664 42.3647 60.8592C42.6743 59.0724 41.5413 57.8661 42.1088 57.2862L42.1111 57.2823Z" fill="#FFBB00"/>
<path d="M31.5758 57.0151C31.6225 56.8177 31.8195 55.9924 32.4177 55.6951C33.1409 55.3383 33.6375 56.1647 35.1192 56.1057C35.7856 56.0811 36.0848 55.8961 36.232 56.0884C36.4945 56.4186 35.73 57.1267 35.3248 58.4069C34.7627 60.1814 35.2301 61.9539 35.3424 62.3866C35.5796 63.2852 35.9263 63.897 35.7292 64.0616C35.5213 64.2356 34.8915 63.7451 34.7106 63.6014C33.8214 62.9021 33.4124 62.125 32.2872 59.6744C31.6143 58.2075 31.4047 57.7146 31.5718 57.0129L31.5758 57.0151Z" fill="#FFBB00"/>
<path d="M36.9281 43.2137C36.9281 43.2137 35.56 45.4231 34.5751 46.8966C33.7191 48.1774 32.7855 49.8984 32.6227 51.7784C32.5952 52.0698 32.5922 52.3647 32.6074 52.6646C32.7185 54.8917 32.3625 55.2008 31.4532 55.2601C30.8933 55.2928 30.3008 54.7296 30.0974 53.5743C30.0804 53.5127 30.0744 53.4416 30.0597 53.3761C29.3687 48.3194 36.9343 43.2121 36.9343 43.2121L36.9281 43.2137Z" fill="#EE5800"/>
<path d="M37.0972 57.2266C37.4705 56.5892 38.0921 56.2791 38.7352 56.0227C39.3743 55.7642 40.2783 57.1534 40.4702 57.423C40.5691 57.562 41.1273 59.0527 41.0702 60.3993C41.0157 61.6692 39.9862 63.6534 39.1736 63.7829C38.3569 63.9101 36.54 64.2066 36.3455 61.6151C36.1509 59.0236 36.7279 57.8663 37.1012 57.2289L37.0972 57.2266Z" fill="#AE85ED"/>
<path d="M32.6187 51.7762C31.7331 52.5825 30.9004 53.1897 30.0911 53.576C30.0742 53.5144 30.0681 53.4433 30.0535 53.3778C29.3625 48.3211 36.9281 43.2137 36.9281 43.2137C36.9281 43.2137 35.56 45.4231 34.5751 46.8966C33.7191 48.1774 32.7855 49.8984 32.6227 51.7784L32.6187 51.7762Z" fill="#EE5800"/>
<path d="M39.8442 40.8322C39.8442 40.8322 39.9414 42.4947 39.9531 44.5928C38.5042 45.8721 36.8458 47.2466 35.2393 49.0666C34.8311 49.5283 34.4327 49.9642 34.0526 50.3689C34.1804 49.8791 34.3882 49.3252 34.7181 48.6893C36.1619 45.8618 39.8442 40.8322 39.8442 40.8322Z" fill="#FFD024"/>
<path d="M40.6916 40.7064C40.7467 40.7843 41.2681 41.5415 41.9487 42.6695C41.6331 43.0273 41.2873 43.3735 40.9147 43.72C40.8711 42.5091 40.7942 41.4094 40.6916 40.7064Z" fill="#FFD024"/>
<path d="M40.82 39.5463C40.82 39.5463 26.2493 24.8436 13.2448 28.6932C0.240203 32.5427 -0.0947254 38.2017 1.2325 41.2397C2.55972 44.2777 7.46656 42.9773 7.92462 42.8559C8.38268 42.7345 15.7939 48.6533 19.2156 50.1153C25.7718 52.9139 28.3113 50.2884 30.4292 49.324C32.5471 48.3597 40.8177 39.5502 40.8177 39.5502L40.82 39.5463Z" fill="black"/>
<path d="M2.40207 36.4731C1.99761 37.2542 1.207 38.7853 1.77558 40.2403C1.84862 40.4324 2.06785 40.9722 2.61853 41.4078C3.48778 42.0959 4.5306 42.0078 4.85958 41.9801C5.1555 41.9545 6.25031 41.823 6.96992 41.0739C8.19881 39.7901 6.72378 38.3804 7.65083 35.6569C7.9702 34.7133 8.71853 33.2 9.98755 31.8296C10.6186 31.1502 11.0869 30.8213 11.0012 30.6689C10.8162 30.3512 8.32923 31.1854 6.22225 32.5565C5.18589 33.2309 3.49457 34.3631 2.40207 36.4731Z" fill="#FFBB00"/>
<path d="M39.3191 39.1315C39.3191 39.1315 27.3893 28.7177 22.5764 30.0659C19.3231 30.9777 18.9393 34.783 20.1497 36.0381C21.3601 37.2933 24.1801 37.7551 26.7289 37.4761C29.2777 37.1971 36.5781 38.3448 39.3191 39.1315Z" fill="#FFD024"/>
<path d="M38.774 40.0623C38.774 40.0623 25.8404 37.5993 22.7598 39.2119C19.6791 40.8246 19.8649 44.1552 21.1645 45.086C22.4641 46.0169 23.9348 47.3253 27.8355 45.8059C31.7362 44.2864 38.774 40.0623 38.774 40.0623Z" fill="#FFD024"/>
<path d="M23.031 48.0899C23.031 48.0899 23.2755 50.3245 24.4793 50.3689C25.6832 50.4133 27.2236 49.8828 27.5751 49.5088C27.9267 49.1348 27.8609 47.2559 26.8171 47.0468C25.7733 46.8378 23.7539 46.9732 23.031 48.0899Z" fill="#FE7800"/>
<path d="M28.5813 46.5957C28.5813 46.5957 27.7049 48.4634 28.9029 48.7803C30.1009 49.0971 31.3996 48.1648 31.5476 47.5772C31.6956 46.9895 31.5863 45.8093 30.7503 45.7434C29.9142 45.6776 28.5773 46.5935 28.5773 46.5935L28.5813 46.5957Z" fill="#FE7800"/>
<path d="M31.8842 44.8119C31.8842 44.8119 31.6839 45.7967 32.3364 46.2845C32.989 46.7723 33.6228 46.1517 34.0235 45.7119C34.4243 45.272 39.1685 40.7009 39.1685 40.7009C39.1685 40.7009 32.2169 44.0266 31.8802 44.8097L31.8842 44.8119Z" fill="#EE5800"/>
<path d="M27.5682 46.217C27.7576 46.1833 27.9897 46.1218 28.1523 46.2968C28.3149 46.4717 28.2509 46.9612 28.0188 47.0227C27.7866 47.0842 27.4782 47.0767 27.3355 46.9494C27.1927 46.822 27.3743 46.2585 27.566 46.2209L27.5682 46.217Z" fill="#FE7800"/>
<path d="M21.644 46.1316C22.4127 46.2583 22.7955 46.5731 22.7157 46.809C22.6358 47.0449 22.3184 47.4693 21.7105 47.3397C21.1065 47.2123 20.3177 46.9754 20.5247 46.7124C20.7317 46.4494 20.6839 45.9698 21.644 46.1316Z" fill="#FE7800"/>
<path d="M22.3848 48.225C21.8536 47.9461 21.3685 47.7245 21.0253 47.9575C20.6821 48.1905 20.0967 49.317 20.5188 49.628C20.945 49.9413 21.223 50.0097 21.6473 50.145C22.746 50.5047 22.9159 48.5038 22.3848 48.225Z" fill="#FE7800"/>
<path d="M13.0476 41.3134C13.1228 41.3298 13.2078 41.3205 13.2774 41.2921C13.6004 41.157 13.9234 41.0218 14.226 40.8491C14.6433 40.6163 15.0373 40.3235 15.4319 40.057C15.9853 39.6824 16.3033 39.4925 16.442 39.4095C16.442 39.4095 16.4591 39.3983 16.4888 39.3838C16.6338 39.2991 16.937 39.1164 16.9082 39.0117C16.8969 38.9585 16.7972 38.9387 16.7647 38.9307C15.5306 38.7028 14.4855 38.7948 14.4855 38.7948C13.8193 38.7467 12.9449 38.7008 11.7205 38.6917C10.463 38.6846 11.8185 38.7053 10.3894 38.7107C9.53489 38.7125 9.11595 38.6947 8.99567 38.9182C8.9659 38.969 8.92111 39.0999 9.07425 39.3996C9.55181 40.3401 10.5737 40.6409 11.9949 41.0472C12.2643 41.1212 12.6186 41.2222 13.0437 41.3111L13.0476 41.3134Z" fill="#AE85ED"/>
<path d="M19.2332 39.1056C19.032 39.0962 18.8615 39.0885 18.5561 39.0671C17.9679 39.0214 17.9816 38.9979 17.8795 39.0184C17.5527 39.0786 17.4295 39.3524 16.9739 39.8498C16.7315 40.1189 16.4697 40.403 16.0671 40.6649C15.6412 40.9397 15.2307 40.9527 14.5934 41.3892C14.4324 41.5013 14.4015 41.5359 14.4077 41.5706C14.4395 41.8331 16.2398 42.0266 17.9009 41.5798C18.1017 41.5266 20.4634 40.861 20.5357 39.778C20.5475 39.613 20.5556 39.1285 20.2979 39.134C19.9417 39.136 19.586 39.1278 19.2349 39.1118L19.2332 39.1056Z" fill="#FE7800"/>
<path d="M12.8609 35.0318C12.4786 34.9515 12.1372 34.9461 11.7989 35.0259C11.423 35.1156 11.1695 35.2951 10.9257 35.4489C10.1366 35.9455 9.39062 36.7577 8.99683 37.6021C8.88333 37.8502 9.08897 38.1327 9.36606 38.1122C9.61636 38.0921 9.86665 38.072 10.1203 38.0642C10.7332 38.0406 11.3505 38.0455 11.9656 38.0542C13.1712 38.0684 15.1376 38.1684 16.3401 38.2693C16.3503 38.2699 16.3646 38.2727 16.3749 38.2733C16.7294 38.3016 16.9197 37.8679 16.6513 37.6384C15.9249 37.0049 14.2744 35.3246 12.8649 35.0341L12.8609 35.0318Z" fill="#AE85ED"/>
<path d="M21.36 38.1985C21.3295 38.2957 21.2381 38.3794 21.1775 38.4285C21.017 38.5669 20.8093 38.6318 20.0193 38.6232C19.7599 38.6225 19.3119 38.6091 18.7535 38.5126C18.4641 38.4638 18.2857 38.4152 18.1316 38.271C17.9502 38.1011 17.9006 37.8962 17.8684 37.7791C17.7633 37.4337 17.4641 37.1661 16.8652 36.6409C16.1782 36.04 15.9395 35.9677 15.011 35.2359C14.35 34.7173 14.0195 34.458 14.055 34.3792C14.1794 34.1215 16.766 35.0813 18.9776 36.2562C20.0695 36.8357 21.5026 37.7014 21.3583 38.1923L21.36 38.1985Z" fill="#FE7800"/>
<path d="M18.3584 34.3354C18.8388 33.9405 18.3281 33.2465 18.8247 31.8826C19.3265 30.5008 20.2004 30.2394 20.0637 29.7669C19.8021 28.8649 16.1501 28.3031 13.379 29.9031C10.7444 31.424 9.56273 34.5189 10.0468 34.9325C10.4443 35.2764 11.6272 33.4828 13.9116 33.3928C16.1692 33.3033 17.5946 34.9607 18.3647 34.3337L18.3584 34.3354Z" fill="#FFBB00"/>
<path d="M17.9367 47.8278C18.1893 47.8038 19.2356 47.6917 19.6461 46.9816C20.146 46.1189 19.1458 45.3466 19.3251 43.4655C19.406 42.6214 19.6594 42.2701 19.4297 42.0469C19.0368 41.6587 18.0952 42.5063 16.4635 42.8032C14.2034 43.2139 12.0168 42.3133 11.4883 42.0932C10.3831 41.6362 9.64172 41.0827 9.42452 41.3087C9.1902 41.5459 9.76364 42.4314 9.92544 42.6891C10.7362 43.9478 11.6797 44.5997 14.6619 46.459C16.449 47.5712 17.054 47.923 17.9407 47.83L17.9367 47.8278Z" fill="#FFBB00"/>
<path d="M43.9208 37.872C43.9208 37.872 52.493 50.9596 63.694 50.208C69.5664 49.8113 70.6691 42.624 70.1684 40.7182C69.3442 37.5634 65.8231 35.1036 63.3904 33.4918C58.7354 30.3975 56.1577 31.9297 54.262 32.3066C52.3662 32.6834 43.9168 37.8697 43.9168 37.8697L43.9208 37.872Z" fill="black"/>
<path d="M45.2716 38.5613C45.329 38.6353 45.8869 39.3663 46.7565 40.3616C48.9509 42.9054 53.0948 47.2255 55.7658 47.0726C58.3171 46.9251 59.3263 44.4144 58.6802 43.3995C58.0364 42.3808 56.067 41.6703 54.1487 41.4882C52.8978 41.3704 50.2903 40.555 48.1045 39.7433C46.9485 39.3096 45.9178 38.8791 45.2716 38.5613Z" fill="#FFD024"/>
<path d="M45.6681 37.8119C45.6681 37.8119 47.2386 38.443 49.2565 39.1339C52.1338 40.1224 55.9297 41.2441 57.4561 40.8825C60.0559 40.2629 60.5338 37.9623 59.7373 37.1228C59.1188 36.4773 58.4654 35.656 56.7333 35.5269C56.221 35.4876 55.619 35.5018 54.8987 35.6002C51.7031 36.0242 45.6658 37.8158 45.6658 37.8158L45.6681 37.8119Z" fill="#FFD024"/>
<path d="M60.7864 45.2431C60.3206 45.459 60.5802 46.0477 59.9034 46.977C59.2158 47.9158 58.4632 47.9699 58.4703 48.3381C58.4924 49.0425 61.2956 50.0308 63.8427 49.293C66.2644 48.5885 67.8562 46.4949 67.5596 46.1142C67.3147 45.7992 65.9939 46.9323 64.1523 46.6373C62.3289 46.3475 61.5334 44.8997 60.7903 45.2453L60.7864 45.2431Z" fill="#FFBB00"/>
<path d="M63.9418 35.3743C63.735 35.3564 62.8756 35.2671 62.3996 35.7269C61.819 36.2838 62.4596 37.0094 61.9179 38.3688C61.6758 38.9814 61.4016 39.1961 61.5379 39.3978C61.7724 39.7486 62.7006 39.2681 64.0674 39.3056C65.9604 39.359 67.5168 40.3671 67.8976 40.6131C68.6846 41.1248 69.1644 41.6452 69.3842 41.5143C69.6189 41.3761 69.35 40.6313 69.2679 40.4185C68.8836 39.364 68.2661 38.7347 66.2689 36.8952C65.074 35.7945 64.6668 35.4399 63.9362 35.3659L63.9418 35.3743Z" fill="#FFBB00"/>
<path d="M48.9057 35.8767C48.9057 35.8767 51.4792 35.3203 53.2201 34.882C54.7311 34.5014 56.6928 34.193 58.5557 34.6508C58.8439 34.7197 59.131 34.8088 59.4146 34.922C61.5256 35.7435 61.9383 35.5185 62.2922 34.688C62.5055 34.1788 62.1534 33.4495 61.1083 32.8807C61.0548 32.8453 60.9888 32.8133 60.929 32.7795C56.2794 30.4998 48.9063 35.8667 48.9063 35.8667L48.9057 35.8767Z" fill="#EE5800"/>
<path d="M62.3597 40.5741C61.6246 40.7161 61.1269 41.1949 60.6707 41.7023C60.2145 42.2098 61.26 43.502 61.4566 43.7638C61.5577 43.8989 62.8161 44.9001 64.1336 45.2844C65.3742 45.6461 67.6204 45.3316 68.0064 44.6181C68.3925 43.9046 69.2671 42.3117 66.8345 41.2879C64.3996 40.2681 63.0972 40.4282 62.362 40.5702L62.3597 40.5741Z" fill="#AE85ED"/>
<path d="M58.5557 34.6508C59.6202 34.0911 60.474 33.5114 61.1101 32.8869C61.0566 32.8516 60.9905 32.8195 60.9308 32.7858C56.2811 30.5061 48.9081 35.873 48.9081 35.873C48.9081 35.873 51.4815 35.3165 53.2224 34.8782C54.7335 34.4976 56.6952 34.1892 58.558 34.647L58.5557 34.6508Z" fill="#EE5800"/>
<path d="M45.6681 37.8119C45.6681 37.8119 47.2386 38.443 49.2565 39.1339C50.9628 38.2027 52.8228 37.1084 55.0955 36.2054C55.6753 35.9758 56.222 35.7483 56.7356 35.5229C56.2232 35.4836 55.6212 35.4978 54.901 35.5962C51.7054 36.0202 45.6681 37.8119 45.6681 37.8119Z" fill="#FFD024"/>
<path d="M45.2716 38.5613C45.329 38.6353 45.8869 39.3663 46.7565 40.3616C47.2056 40.1831 47.6462 39.9738 48.1045 39.7433C46.9485 39.3096 45.9178 38.8791 45.2716 38.5613Z" fill="#FFD024"/>
<path d="M44.1095 38.301C44.1095 38.301 34.6573 20.0084 42.5803 9.17662C50.5049 -1.64898 56.0663 -0.129587 58.562 2.08996C61.0576 4.3095 58.219 8.44161 57.9489 8.83035C57.6852 9.21743 60.9899 18.0119 61.2883 21.6661C61.8626 28.6601 58.5102 30.1664 56.8927 31.8241C55.2776 33.4778 44.1032 38.3026 44.1032 38.3026L44.1095 38.301Z" fill="black"/>
<path d="M53.5946 1.62888C54.4768 1.50742 56.208 1.26664 57.4293 2.2678C57.5903 2.40024 58.0414 2.77958 58.2848 3.432C58.6687 4.46018 58.2444 5.40188 58.1097 5.69528C57.9887 5.96521 57.5051 6.93587 56.5515 7.3604C54.917 8.08761 54.037 6.25923 51.1088 6.23575C50.0964 6.22653 48.3921 6.43044 46.6624 7.16636C45.8069 7.53183 45.3323 7.86242 45.2147 7.72841C44.9674 7.45364 46.5745 5.41547 48.5826 3.90534C49.5696 3.16142 51.2076 1.95754 53.5946 1.62888Z" fill="#FFBB00"/>
<path d="M44.1938 36.772C44.1938 36.772 38.0204 22.3217 40.8798 18.2898C42.8158 15.5632 46.6055 16.442 47.423 17.9698C48.2405 19.4975 47.7699 22.2653 46.6798 24.5431C45.5858 26.8187 44.3287 33.9709 44.1938 36.772Z" fill="#FFD024"/>
<path d="M45.2682 36.5667C45.2682 36.5667 47.0866 23.7582 49.6378 21.4202C52.189 19.0823 55.341 20.335 55.82 21.8434C56.2989 23.3519 57.0804 25.1403 54.3527 28.2684C51.6249 31.3965 45.2682 36.5667 45.2682 36.5667Z" fill="#FFD024"/>
<path d="M58.1057 24.5481C58.1057 24.5481 60.1822 25.501 59.8333 26.6309C59.4844 27.7608 58.4749 29.0227 58.0019 29.2241C57.5288 29.4254 55.736 28.7575 55.8755 27.7227C56.015 26.688 56.7927 24.8531 58.1057 24.5481Z" fill="#FE7800"/>
<path d="M54.8706 29.2212C54.8706 29.2212 56.9541 29.0126 56.8718 30.2305C56.7894 31.4483 55.4657 32.3508 54.8553 32.2978C54.2449 32.2449 53.1391 31.7615 53.347 30.9631C53.5548 30.1646 54.8667 29.219 54.8667 29.219L54.8706 29.2212Z" fill="#FE7800"/>
<path d="M52.0819 31.7113C52.0819 31.7113 53.0951 31.8459 53.3525 32.6102C53.6099 33.3746 52.8069 33.7592 52.2516 33.9922C51.6964 34.2253 45.7547 37.1479 45.7547 37.1479C45.7547 37.1479 51.2096 31.7707 52.0779 31.7091L52.0819 31.7113Z" fill="#EE5800"/>
<path d="M54.8306 28.1581C54.7344 28.3224 54.5994 28.5167 54.7145 28.7274C54.8297 28.938 55.3203 29.0327 55.4553 28.8383C55.5904 28.6439 55.6818 28.3521 55.6035 28.1779C55.5253 28.0037 54.9228 27.9916 54.8266 28.1559L54.8306 28.1581Z" fill="#FE7800"/>
<path d="M56.6713 22.6252C56.5462 23.3819 56.7252 23.8367 56.9783 23.839C57.2314 23.8413 57.7431 23.6825 57.8159 23.0784C57.8887 22.4744 57.9159 21.6676 57.5947 21.7726C57.2735 21.8775 56.8322 21.6806 56.6713 22.6252Z" fill="#FE7800"/>
<path d="M58.4474 23.9914C58.3503 23.4059 58.2947 22.8855 58.6282 22.6418C58.9617 22.3981 60.2385 22.2184 60.3986 22.7145C60.5586 23.2106 60.5379 23.4903 60.5345 23.9306C60.5247 25.0697 58.5406 24.5746 58.4474 23.9914Z" fill="#FE7800"/>
<path d="M54.8107 13.0846C54.8019 13.1629 54.7647 13.2356 54.7161 13.2914C54.4766 13.5465 54.2433 13.7999 53.9805 14.0315C53.6183 14.3422 53.2152 14.6143 52.828 14.8953C52.29 15.2889 52.0004 15.521 51.8747 15.627C51.8747 15.627 51.8615 15.6404 51.8335 15.661C51.7016 15.7686 51.4291 15.9895 51.3398 15.9339C51.2919 15.9069 51.3059 15.8107 51.31 15.7766C51.4892 14.5562 51.9175 13.6168 51.9175 13.6168C52.0867 12.9839 52.3294 12.1531 52.7137 11.0171C53.1123 9.84766 52.6958 11.1111 53.1592 9.78568C53.4365 8.99524 53.5527 8.59772 53.8105 8.55584C53.8726 8.54928 54.0129 8.54515 54.25 8.78297C55.0022 9.53511 54.963 10.5796 54.8938 12.0285C54.8816 12.3026 54.8602 12.6651 54.8107 13.0846Z" fill="#AE85ED"/>
<path d="M50.6797 18.111C50.7361 17.9243 50.785 17.7594 50.8598 17.4686C51.0083 16.9072 50.977 16.9156 51.0296 16.8256C51.1968 16.5401 51.4967 16.5168 52.1216 16.2554C52.4594 16.113 52.8201 15.9679 53.1976 15.6762C53.6009 15.3678 53.7426 14.9899 54.3703 14.5428C54.5336 14.4268 54.5735 14.4129 54.6077 14.427C54.8519 14.544 54.457 16.2774 53.4809 17.6726C53.3619 17.8396 51.9579 19.8206 50.8898 19.5354C50.7258 19.4897 50.261 19.342 50.3471 19.1044C50.4654 18.7757 50.5717 18.4403 50.6695 18.1104L50.6797 18.111Z" fill="#FE7800"/>
<path d="M48.7231 11.1333C48.7703 10.7541 48.8714 10.4366 49.0637 10.1444C49.272 9.82492 49.5256 9.64541 49.7564 9.46862C50.4881 8.89807 51.514 8.46755 52.4583 8.3759C52.7337 8.34916 52.9393 8.63166 52.8298 8.88204C52.73 9.10671 52.628 9.33532 52.5402 9.56673C52.3215 10.1302 52.1228 10.7048 51.9304 11.2778C51.553 12.402 51.0106 14.2604 50.7204 15.4078C50.7135 15.4195 50.7129 15.4296 50.71 15.4436C50.6219 15.7841 50.1464 15.8176 50.007 15.4944C49.6331 14.6123 48.5473 12.5378 48.7231 11.1333Z" fill="#AE85ED"/>
<path d="M48.0201 16.9592C47.6 14.5266 47.5197 11.8123 47.8037 11.78C47.8887 11.7707 48.0364 12.161 48.3194 12.945C48.7196 14.0448 48.7133 14.291 49.0737 15.1239C49.387 15.847 49.5486 16.2138 49.845 16.4227C49.9418 16.4929 50.1267 16.6024 50.2327 16.8287C50.3183 17.0175 50.3076 17.1987 50.2618 17.4851C50.1715 18.0377 50.0439 18.4547 49.9594 18.6984C49.7141 19.4341 49.5826 19.6044 49.3993 19.7092C49.3354 19.7459 49.2247 19.8083 49.1181 19.8002C48.5966 19.7766 48.2267 18.1632 48.024 16.9614L48.0201 16.9592Z" fill="#FE7800"/>
<path d="M46.3661 15.7553C45.8306 16.0724 45.3262 15.3768 43.8492 15.3916C42.3556 15.4075 41.8185 16.1346 41.4088 15.8566C40.6252 15.3209 41.2649 11.7485 43.7088 9.69334C46.0294 7.7403 49.3928 7.64512 49.6404 8.22705C49.8427 8.70535 47.7305 9.22549 46.9048 11.3143C46.0866 13.3813 47.2219 15.2444 46.3684 15.7514L46.3661 15.7553Z" fill="#FFBB00"/>
<path d="M59.5085 19.7358C59.4024 19.9622 58.956 20.8965 58.1398 21.0501C57.1469 21.2339 56.7287 20.0562 54.8527 19.6118C54.0101 19.4122 53.5954 19.5321 53.4496 19.2469C53.2029 18.754 54.3251 18.1592 55.1423 16.7367C56.2737 14.7684 56.1104 12.4495 56.0697 11.8854C55.9889 10.7108 55.6964 9.84346 55.984 9.71437C56.2888 9.57414 56.9588 10.3944 57.1508 10.6276C58.0993 11.787 58.4259 12.8765 59.2495 16.2495C59.7414 18.2699 59.8867 18.9451 59.5085 19.7358Z" fill="#FFBB00"/>
<path d="M44.0489 38.1058C45.6331 39.6187 48.6243 43.5174 50.1747 47.1339C51.7437 50.7818 53.7987 54.1158 54.4273 56.1562C54.7591 57.2643 55.0876 57.871 54.7541 58.0783C54.423 58.2817 54.059 57.7538 53.2087 56.9879C52.8214 56.6446 52.4246 56.2178 51.9927 55.7244C50.6263 54.1472 48.9666 51.8581 46.7262 49.257C44.1488 46.2629 41.4623 42.1876 40.7528 40.1224C40.7137 40.0172 40.6929 39.917 40.6818 39.8274C40.5295 38.7478 41.803 38.5193 42.1489 38.3087C42.5189 38.0751 43.0345 37.1225 44.0535 38.098L44.0489 38.1058Z" fill="black"/>
<path d="M42.648 38.6421C42.7709 38.7583 42.9011 38.889 43.0347 39.032C44.4587 40.5377 46.7077 43.5858 47.939 46.4344C49.2825 49.5805 51.0662 52.4545 51.5958 54.2205C51.8287 54.9814 52.0549 55.4732 51.9904 55.7282C50.6241 54.1509 48.9643 51.8619 46.7239 49.2608C44.1465 46.2667 41.46 42.1914 40.7505 40.1262C40.7115 40.0209 40.6906 39.9208 40.6795 39.8312C40.5272 38.7516 41.8007 38.5231 42.1467 38.3125C42.2942 38.3593 42.4632 38.4599 42.648 38.6421Z" fill="#131C47"/>
<path d="M42.9877 33.8442C43.6338 34.8591 44.3238 36.3149 44.2956 37.2772C44.2868 37.6 44.1966 37.8717 44.0552 38.1041C43.8222 38.4929 43.4413 38.7723 43.0388 39.0342C42.932 39.0989 42.8206 39.1713 42.7116 39.2399C42.0236 39.6634 41.4918 40.0917 40.6836 39.8335C40.6067 39.8109 40.536 39.7867 40.4637 39.7563C40.2952 39.682 40.1159 39.5809 39.9258 39.4529C39.3021 39.0334 38.6044 38.3692 38.0714 37.7043C37.91 37.5092 37.7691 37.3153 37.6465 37.1264C36.3623 35.1012 36.4441 32.7437 37.8301 31.7983C37.8501 31.7731 37.8906 31.7491 37.9226 31.7308C39.3968 30.8247 41.6694 31.7686 42.986 33.8381L42.9877 33.8442Z" fill="black"/>
<path d="M26.2479 28.0321C27.9542 27.309 29.9679 26.7489 31.7973 27.3543C33.4413 28.2401 35.0276 29.1974 36.5313 30.2955C36.9096 30.6182 37.485 30.948 37.6744 31.367C37.3568 30.9589 36.898 30.6741 36.4799 30.3653C34.7678 29.3423 33.0086 27.7931 30.9333 27.7253C29.38 27.7075 27.7888 28.0169 26.2542 28.0304L26.2479 28.0321Z" fill="black"/>
<path d="M37.3596 20.5445C36.5321 22.2472 35.9941 23.9624 36.3392 25.8532C36.7432 27.6888 36.9731 29.6134 37.6938 31.3519C37.1911 30.6261 37.0577 29.5415 36.7863 28.6652L36.139 25.8964C35.9287 24.9973 35.5471 24.0016 35.7771 23.0023C35.9853 22.0584 36.5193 21.0017 37.3573 20.5484L37.3596 20.5445Z" fill="black"/>
<path d="M40.8784 34.1059C41.6395 35.8204 41.3134 37.6083 40.1578 38.1062C39.5175 38.3849 38.7519 38.2078 38.0714 37.7043C37.91 37.5092 37.7691 37.3153 37.6465 37.1264C36.3623 35.1012 36.4441 32.7437 37.8301 31.7983C38.9232 31.6605 40.2096 32.6048 40.8807 34.102L40.8784 34.1059Z" fill="#131C47"/>
<path d="M38.6397 30.6057C38.9696 31.1196 38.8099 31.7995 38.2846 32.1172C37.7611 32.4409 37.0684 32.2843 36.7448 31.7687C36.4149 31.2548 36.7289 30.8181 37.2525 30.4943C37.7761 30.1705 38.3121 30.0879 38.642 30.6018L38.6397 30.6057Z" fill="black"/>
</svg>
