<svg version="1.2" xmlns="http://www.w3.org/2000/svg" viewBox="0 0 50 69" width="50" height="69">
	<title>motyl_05_pół_prawa</title>
	<style>
		.s0 { fill: #000000 } 
		.s1 { fill: #d9fff6 } 
		.s2 { fill: #07cff9 } 
	</style>
	<g>
		<path class="s0" d="m1.2 28.9l0.2 15.8c1.2 3.7 9.8 19.9 15.2 20 0.7 0.3 0.9 0.6 1.9 0.6 1 0.1 1.6-0.4 2.4-0.5 0.7-0.1 1.4 0 2.9-0.1 1.5-0.2 2.3-1.7 2.8-1.9 0.7-0.2 2.6 0.7 3.9-2.9 0.2-0.5 1.5-2 1.6-2 0.4-0.4 1.5-0.4 2.1-2 0.5-1.2 0.1-1.7 0.3-2.7 0.1-0.4 0.2-1.2 0.3-1.5 0-0.2 0.6-0.9 0.8-2.4 0.1-1.5-0.8-2.1-0.9-3.2-0.1-0.7 0-1.5 0-2.2h-0.1c0-1.3 0.2-1.2-0.5-2.3-0.5-1-2-2.6-2.1-2.9-0.9-1.4-2.8-2.5-2.9-2.8 1.3-0.2 2.7 0 4-0.1 2.4-0.2 4-1.7 4.8-3.9 0.2-0.6 0.2-0.7 0.4-1.3 0.5-1.9 0.7-3.5 1.6-5.2q0.1-0.2 0.2-0.3c0.3-0.7 0.6-1.1 1-1.8 1.5-3.2 0.7-5.9 1.7-8.7 0 0 0.1-0.2 0.2-0.4 0.4-0.8 0.9-1.7 1.3-2.5 0.3-0.5 0.6-1 0.9-1.5 2.2-4.1 1.2-6.7-3.5-7.2-0.3 0-0.8 0-1.2 0-2.5 0-6.7 0.9-7.4 1.1-0.6 0.2-1.6 0.5-2.3 0.8-4.3 1.5-9.2 4-12.8 6.9-4.5 3.6-9.2 8.1-13 12.4-1.3 1.6-2.5 3.2-3.8 4.7z"/>
		<path class="s1" d="m40.4 3c0.5 0 0.9 0 1.3 0 0.4 0.5 1.1 0.4 1.4 1 0.8 1.4 0 1.5-1 0.9-0.6-0.3-1.9-1.1-1.7-1.9z"/>
		<path class="s1" d="m31.9 38.7c0.2 0.2 0.3 0.4 0.4 0.5-1.3 2-2.6-0.7-0.4-0.5z"/>
		<path class="s1" d="m34.8 51.7c-0.1 0.3-0.2 1.1-0.3 1.5-1.2 0.1-0.6-2.8 0.3-1.5z"/>
		<path class="s1" d="m38.8 13c-1.4 0.3-3.5-0.2-5 0-1 0.2-2.4 1.1-3.5 1.1-1.4 0-2.3-1.1-1-2.1 1.3-1.2 5.9-1.9 7.6-1.9 0.7-0.1 1.6 0 2.1 0.5 0.6 0.7 1 2.1-0.2 2.4z"/>
		<path class="s1" d="m36.4 9.1c-1.4 0.3-2.8 0.4-4.2 0.8-1 0.2-3.4 1.2-4.2 0.9-0.6-0.2-0.4-1 0.1-1.5 1.1-0.9 5.3-2.1 6.7-2 0.8 0.1 2.9 1 1.6 1.8z"/>
		<path class="s1" d="m33.9 31.8c-1.1 0.1-2.3 0.3-3.4 0.4-0.8 0-2.9-0.3-3.5 0.1-0.5 0.4-0.1 1 0.4 1.2 1.1 0.5 4.6 0.5 5.7 0.1 0.6-0.2 2-1.4 0.8-1.8z"/>
		<path class="s1" d="m30.8 7.3c-0.6 0.3-2.4 1-2.9 1.1-0.3 0.1-0.6 0.1-0.9 0.1 0.4-1 1.8-1.9 2.8-2.2 1.8-0.8 3.3 0 1 1z"/>
		<path class="s1" d="m43.8 6.9c0.7 0.2 1 2.3-0.4 1.9-1.3-0.2-0.2-2.1 0.4-1.9z"/>
		<path class="s1" d="m38.3 7.4c-0.1-0.8 1.8-1.7 2-0.3 0.2 1.3-1.9 0.9-2 0.3z"/>
		<path class="s1" d="m39.4 9.7c-0.1-0.5 1.1-1.1 1.2-0.2 0.1 0.8-1.2 0.6-1.2 0.2z"/>
		<path class="s1" d="m33 43.7c-0.1-0.2 0.2-1 0.4-1.2 0.8-0.5 1.2 0.8 0.9 1.5-0.5 0.1-1.1 0.3-1.3-0.3z"/>
		<path class="s1" d="m33.9 44.8c0.7 0.3 0.5 2.3-0.4 1.7-0.3-0.2-0.7-2.1 0.4-1.7z"/>
		<path class="s1" d="m32.5 53.4c0.7-0.3 2 1.2 0.9 1.5-0.3 0.1-2-0.9-0.9-1.5z"/>
		<path class="s1" d="m31.3 55.1c0.7-0.4 2 1.2 1 1.5-0.4 0-2-1-1-1.5z"/>
		<path class="s1" d="m28.2 35.5c1 0.3 0.2 2-0.5 1.3-0.3-0.3-0.3-1.6 0.5-1.3z"/>
		<path class="s1" d="m28.8 38.1c0.4 0.1 0.6 0.8 0.2 1.1-0.8 0.7-1.8-1.6-0.2-1.1z"/>
		<path class="s1" d="m23.2 62.2c0.5 0.1 0.7 0.8 0.3 1.1-0.8 0.7-1.8-1.6-0.3-1.1z"/>
		<path class="s1" d="m22.4 12.4c0.4-0.4 1.5 0.2 0.8 0.8-0.7 0.6-1.3-0.3-0.8-0.8z"/>
		<path class="s1" d="m25.3 12.2c0.4-0.4 1.5 0.2 0.8 0.8-0.7 0.6-1.3-0.2-0.8-0.8z"/>
		<path class="s1" d="m23 14.7c0.4-0.4 1.4 0.3 0.8 0.9-0.7 0.6-1.3-0.3-0.8-0.9z"/>
		<path class="s1" d="m19.7 12.5c-0.7-0.1 0.2-0.8 0.3-0.9 0.3-0.2 1-0.7 0.9 0.1-0.2 0.1-1.2 0.7-1.2 0.8z"/>
		<path class="s1" d="m40 14.2c0.7 0.2 0.8 1.6 0.2 1.9-1.6 0.7-2.2-2.5-0.2-1.9z"/>
		<path class="s1" d="m36.7 15.2c0.5 0.2 0.7 1.3 0.1 1.6-1.2 0.6-1.7-2-0.1-1.6z"/>
		<path class="s1" d="m39.7 17.3c0.6 0.8-0.7 1.3-1.2 1-0.5-0.3 0.6-1.7 1.2-1z"/>
		<path class="s1" d="m40.5 20.8c0.3 2.3-3 1.6-3.5 0.5-0.7-1.3 3.3-2.7 3.5-0.5z"/>
		<path class="s1" d="m39 25.2c-0.1 2.3-3.2 1.2-3.6 0-0.5-1.4 3.6-2.2 3.6 0z"/>
		<path class="s1" d="m36.6 29.6c0.5 0.1 0.8 0.6 0.9 0.6 0.2 1.5-2.1 1.2-1.6-0.2 0.1-0.1 0.5-0.4 0.7-0.4z"/>
		<path class="s1" d="m34 48.4c0.3 0 0.5 0.3 0.5 0.3 0.1 1-1.2 0.8-0.9 0 0-0.1 0.3-0.3 0.4-0.3z"/>
		<path class="s1" d="m19 61.7c0.9 1.6-2.4 0.9-1.7-0.1 0.1-0.3 1.4-0.5 1.7 0.1z"/>
		<path class="s1" d="m19.5 63.3c0.9 0.2 0.7 1.3-0.3 1.3-1.1 0.1-0.8-1.5 0.3-1.3z"/>
		<path class="s1" d="m24.4 59.7c0.8 0.2 0.6 0.9-0.1 1-0.9 0-0.7-1.1 0.1-1z"/>
		<path class="s1" d="m20 60.5c0.4 0 0.7 0.1 0.7 0.6 0 0 0.1 0.3-0.2 0.5-1 0.7-1.8-1-0.5-1.1z"/>
		<path class="s1" d="m28.4 59.4c0.5-1.6 1.9 0.5 0.9 1-0.3 0.1-1.1-0.4-0.9-1z"/>
		<path class="s1" d="m28.7 57.6c-0.6-0.7 0.3-1.4 1.1-0.8 0.9 0.7-0.4 1.6-1.1 0.8z"/>
		<path class="s1" d="m26.5 59.4c-0.3-0.2-0.5-0.5-0.2-0.9 0 0 0.2-0.3 0.6-0.3 1.2 0.1 0.7 2-0.4 1.2z"/>
		<path class="s1" d="m27.4 62.4c-1.1 0.4-1.7-0.4-1.1-1 0.7-0.7 2.6 0.4 1.1 1z"/>
		<path class="s1" d="m33.3 50.8c0.3 0.6-0.8 0.6-0.8 0.5-0.3-0.2 0.4-1.2 0.8-0.5z"/>
		<path class="s1" d="m15.8 63.1c-0.1 0.6-2.3-0.3-2-0.8 0.3-0.5 2.2 0.1 2 0.8z"/>
		<path class="s2" d="m3.5 34.4c2.7-0.2 6.2-1.6 9-2.1 0.5-0.1 8.8-1.9 10.8-1.7 2 0.2 6 0.2 7.6 0.1 1.7-0.1 3.2-0.5 3.5-2.4 0.3-1.9-1.5-2.3-1.9-2.5-0.8-0.2-2.9-0.4-3.7-0.4-1-0.1-2 0.1-3 0.1-1.9 0.1-3.7 0.2-5.5-0.1-1.3-0.3-2.2-1.1-3.6-0.8-0.4 0.1-0.6 0.1-0.8 0.3-0.3 0.1-0.5 0.2-0.8 0.3-3.6 1.7-8.2 4.5-11.1 7.2-0.5 0.6-2.3 2.2-0.5 2z"/>
		<path class="s2" d="m16.9 45.6c-4.6-1.3-8-4.6-12.3-6.6-0.3-0.2-1.6-0.7-1.6-1 0-0.3 0.6-0.7 1.2-0.8 1.8-0.3 8.5 0.2 10.4 0.7 0.1 0.1 1.2 0.3 2.6 2.1 0.9 1.2 2.5 3.3 3 4.6 0.8 2.3-2.2 1.4-3.3 1z"/>
		<path class="s2" d="m1.7 33.1c0.9-0.6 1.7-1.5 2.5-2.1 2.8-2.2 5.9-4.4 9-6 2.4-1.4 3.1-1.3 5.1-3.5 0.5-0.7 0.9-1.4 1.3-2 0.3-0.4 1-0.7 1-1.4-0.1-4.8-8.2 0.3-12 4.2-1.5 1.6-2.6 3.1-4 4.8-0.4 0.6-3 3.7-3.1 4.4 0 0.3 0 1.6 0.2 1.6z"/>
		<path class="s2" d="m21.6 45.7c-0.7-1.1-2.2-3.5-1.9-3.8 0.6-0.7 11.6 3.1 12.1 4.8 0.2 0.8 0.5 3.5 0.1 4.1-0.2 0.2-2.8-1.2-5.4-2.4-2.3-1.2-4.6-2.2-4.9-2.7z"/>
		<path class="s2" d="m30.4 41.7c0.6 1.2 1.1 2.9-0.8 2.5-1-0.2-2.1-0.8-3.1-1.2-1.9-0.7-4-1.4-6-1.8-3-0.5-3.2-2.3-2.5-2.5 0.4-0.1 2.6 0 3.2 0 2.4 0.2 7.9 0.7 9.2 3z"/>
		<path class="s2" d="m26.4 35.6c0.5 0.6 0.7 2.6 0.1 2.9-0.3 0.2-4.3-0.7-5.1-0.7-1.2-0.1-2.6-0.1-3.8 0-0.5 0-1 0.3-1.4-0.2 0-0.5 3.7-2.4 4.4-2.6 1.3-0.4 4.9-0.5 5.8 0.6z"/>
		<path class="s2" d="m8.2 36.6c-0.4-0.1-2.4-0.3-2.4-0.6 0-0.3 0.9-0.7 1.1-0.7 0.7-0.2 1.6-0.4 2.2-0.5 2.4-0.4 5.6-0.8 8-0.6 3.1 0.2 0.3 1.7-1 2.2-2.1 0.8-5.6 0.4-7.9 0.2z"/>
		<path class="s2" d="m2.2 41.5c0.8 0.3 6.8 7.8 7.3 8.6 1.3 1.9 3.6 5.7 4.4 7.8 0.3 0.7 0.7 1.7 0 2.3-0.7 0.7-2.4 0.6-10.1-11.5-0.7-1.3-1.6-3.5-1.9-5 0.4-1.6 0.1-2.1 0.3-2.2z"/>
		<path class="s2" d="m5.7 43.4c2.6 3.1 8.6 12.5 10.4 16.5 0.7 1.4 2.2 1.4 3.1 0.1 0.7-1.2 0.4-2.5 0-3.7-1.7-5.3-11.9-15.4-15.8-16.9-0.3-0.1-0.7-0.2-0.9 0.1-0.3 0.5 2.9 3.6 3.2 3.8z"/>
		<path class="s2" d="m31.2 24.2c-1 0.3-9.7 0.9-12.1-0.2-0.5-0.2-0.8-0.3-0.7-0.9 0.1-0.6 2.5-2.7 3.1-3 1.9-1 4.1-1.5 5.7-1.5 1.5 0 7.3-1.5 8 1.3 0.7 2.7-3 4-4 4.3z"/>
		<path class="s2" d="m24.1 18c-1.7-0.1 4.3-3.1 6.8-2.9 1.4 0.1 2.8 1.7 0.4 2.2-1.1 0.3-5.5 0.9-7.2 0.7z"/>
		<path class="s2" d="m20.2 47.8c-0.6-1 0.7-1 1.4-1 1.3 0.1 5.8 2.7 7.8 4.1 3.6 2.5-0.9 4.7-1.5 4.7-1.8 0.1-4.4-4.1-5.4-5.3-0.6-0.7-1.9-1.7-2.3-2.5z"/>
		<path class="s2" d="m16.4 49.8c-0.3-0.4-2.2-2.9-2.3-3-0.3-0.4-0.6-0.9 0.1-1.1 0 0 3.7 1.2 4.4 1.6 0.3 0.2 4.4 4.5 5.9 6.7 0.4 0.6 2.3 2.5 0.9 4-3.1 3.3-6.5-5.1-9-8.2z"/>
		<path class="s0" d="m0 34.2v28.4c0.5 0 0.5-0.8 0.9-2.1q0.2-0.9 0.4-2.1c0.3-2.5 0.5-5.9 1.1-10 0.7-4.7 0.9-9.6 0.3-12.2q-0.3-1.1-0.9-1.6-0.7-0.6-1.8-0.4z"/>
		<path class="s0" d="m10 12.2c-2.3 0.4-4.8 1-6.3 2.9-1.2 2-2.2 4-3.1 6.1-0.2 0.6-0.6 1.3-0.5 1.9 0.1-0.6 0.4-1.2 0.6-1.8 1.2-2.2 2-5 4.1-6.4 1.7-1 3.5-1.7 5.2-2.7z"/>
		<path class="s0" d="m0 23.7v11c0.7 0.1 1.2 0.1 1.8-0.1q0.3-0.1 0.7-0.5 0.1-0.1 0.1-0.2 0.2-0.3 0.4-0.7c0.4-0.8 0.7-2 0.8-3.1q0.1-0.4 0.1-0.8c0-2.6-1.2-4.8-2.9-5.5q-0.4-0.1-0.8-0.1 0 0-0.1 0h-0.1z"/>
		<path class="s0" d="m0 21.9v2.4c0.4 0 0.8-0.2 1-0.5 0.2-0.2 0.4-0.5 0.4-0.9 0-0.6-0.4-0.9-1-1q0 0 0 0-0.2 0-0.4 0z"/>
	</g>
</svg>