<svg width="121" height="72" viewBox="0 0 121 72" fill="none" xmlns="http://www.w3.org/2000/svg">
<path d="M17.3111 24.3994C17.3111 24.3994 13.3788 34.5205 5.9205 35.4714C2.00979 35.9705 0.351345 31.1721 0.431344 29.7948C0.563649 27.5172 2.55746 25.366 3.94513 23.9381C6.60048 21.2025 8.49583 21.9196 9.7912 21.929C11.0866 21.9385 17.3142 24.3994 17.3142 24.3994H17.3111Z" fill="black"/>
<path d="M16.5143 25.0469C16.4866 25.1069 16.2127 25.6818 15.7727 26.481C14.6589 28.5154 12.4989 32.0313 10.7236 32.2745C9.02822 32.5051 8.03746 30.913 8.32976 30.1296C8.62207 29.3462 9.82205 28.5975 11.059 28.2216C11.8682 27.9752 13.4743 27.0749 14.8035 26.2315C15.5051 25.7829 16.1297 25.3533 16.5112 25.0469H16.5143Z" fill="#EE5800"/>
<path d="M16.1573 24.5858C16.1573 24.5858 15.2066 25.2239 13.9696 25.9631C12.2066 27.0182 9.85893 28.2881 8.80664 28.2407C7.01898 28.1554 6.40361 26.636 6.81899 25.9568C7.14206 25.4324 7.46513 24.7817 8.58511 24.4658C8.91742 24.371 9.31434 24.3015 9.80048 24.2763C11.9543 24.1499 16.1573 24.589 16.1573 24.589V24.5858Z" fill="#EE5800"/>
<path d="M7.18509 31.6776C7.52047 31.7629 7.42509 32.2051 7.99123 32.7548C8.56661 33.3108 9.06814 33.2476 9.10814 33.5035C9.18506 33.9899 7.47124 35.0387 5.70203 34.8618C4.01898 34.6944 2.70207 33.4656 2.84668 33.1623C2.96668 32.9128 3.98205 33.5193 5.15434 33.077C6.31432 32.6379 6.64971 31.5418 7.18201 31.6776H7.18509Z" fill="#FE7800"/>
<path d="M3.82822 25.3063C3.96053 25.2653 4.51437 25.0947 4.88975 25.3474C5.34205 25.6538 5.01898 26.2382 5.5482 27.1006C5.78512 27.4891 5.99435 27.6029 5.92973 27.7577C5.82204 28.0293 5.14821 27.8208 4.25591 28.0262C3.01901 28.3105 2.12671 29.2076 1.90825 29.4255C1.45595 29.8804 1.20981 30.3006 1.04673 30.2406C0.874426 30.1774 0.954415 29.6309 0.97903 29.4729C1.09595 28.699 1.41904 28.1841 2.49287 26.6583C3.13593 25.7454 3.35746 25.4485 3.82822 25.3032V25.3063Z" fill="#FE7800"/>
<path d="M13.7757 23.6794C13.7757 23.6794 12.0126 23.6352 10.8127 23.5625C9.76961 23.4993 8.4404 23.5435 7.27426 24.1027C7.09272 24.188 6.91735 24.2891 6.74505 24.4028C5.46507 25.2462 5.16352 25.142 4.82506 24.6207C4.61891 24.2985 4.7543 23.7489 5.36967 23.2245C5.40044 23.1929 5.44045 23.1645 5.47429 23.1329C8.23425 20.9564 13.7788 23.6825 13.7788 23.6825L13.7757 23.6794Z" fill="#EE5800"/>
<path d="M5.54517 28.6704C6.0467 28.6704 6.43747 28.9326 6.80362 29.2264C7.16977 29.517 6.64978 30.5405 6.5544 30.749C6.50517 30.8564 5.80979 31.7093 4.99442 32.1452C4.2252 32.5559 2.7083 32.6349 2.36061 32.1958C2.01292 31.7535 1.23139 30.7743 2.69906 29.7539C4.16673 28.7336 5.04364 28.6736 5.54517 28.6736V28.6704Z" fill="#FE7800"/>
<path d="M7.27437 24.0997C6.50207 23.8533 5.86515 23.569 5.3667 23.2215C5.39747 23.19 5.43748 23.1616 5.47132 23.13C8.23128 20.9535 13.7758 23.6796 13.7758 23.6796C13.7758 23.6796 12.0128 23.6354 10.8128 23.5627C9.76971 23.4996 8.4405 23.5438 7.27437 24.1029V24.0997Z" fill="#EE5800"/>
<path d="M16.1573 24.5861C16.1573 24.5861 15.2065 25.2242 13.9696 25.9633C12.7296 25.5464 11.3635 25.0378 9.75121 24.7156C9.34199 24.6335 8.95123 24.5481 8.58508 24.4629C8.91739 24.3681 9.31431 24.2986 9.80045 24.2733C11.9543 24.147 16.1573 24.5861 16.1573 24.5861Z" fill="#EE5800"/>
<path d="M16.5142 25.0469C16.4865 25.1069 16.2127 25.6818 15.7727 26.481C15.4557 26.4179 15.1357 26.3326 14.8065 26.2315C15.508 25.7829 16.1327 25.3533 16.5142 25.0469Z" fill="#EE5800"/>
<path d="M17.2433 24.7185C17.2433 24.7185 21.0771 10.9045 14.4618 4.49817C7.84653 -1.90813 4.38814 -0.132832 3.03431 1.7183C1.68049 3.56943 4.08659 6.03972 4.3112 6.27032C4.53582 6.50093 3.50815 12.983 3.78507 15.5323C4.31737 20.416 6.71733 21.013 7.99424 21.9386C9.27114 22.8642 17.2402 24.7185 17.2402 24.7185H17.2433Z" fill="black"/>
<path d="M6.24361 0.751694C5.6467 0.783283 4.47747 0.846455 3.80671 1.69305C3.71748 1.80361 3.47135 2.12266 3.3975 2.60282C3.28058 3.36096 3.68056 3.95168 3.80671 4.13805C3.92056 4.30548 4.36364 4.91198 5.0467 5.07941C6.21592 5.36371 6.55746 3.99275 8.47743 3.59473C9.14204 3.45574 10.2866 3.37358 11.5204 3.65157C12.1327 3.79056 12.4835 3.95483 12.5451 3.85058C12.6712 3.62946 11.3481 2.43852 9.83432 1.66143C9.08972 1.2792 7.8559 0.666403 6.24361 0.751694Z" fill="#FE7800"/>
<path d="M16.988 23.6791C16.988 23.6791 19.1665 12.9356 16.7634 10.538C15.1388 8.91748 12.7604 10.0168 12.4219 11.1761C12.0835 12.3354 12.7512 14.1771 13.7666 15.5986C14.7819 17.0201 16.5388 21.7711 16.988 23.6791Z" fill="#EE5800"/>
<path d="M16.2557 23.679C16.2557 23.679 13.3973 15.112 11.4158 13.8389C9.4343 12.5659 7.52663 13.8389 7.40971 14.9382C7.29279 16.0375 7.00971 17.3706 9.20968 19.1649C11.4096 20.9591 16.2557 23.679 16.2557 23.679Z" fill="#EE5800"/>
<path d="M6.25582 17.0991C6.25582 17.0991 5.01584 18.0247 5.39121 18.7576C5.76659 19.4904 6.59428 20.2233 6.93273 20.3022C7.27119 20.3812 8.3604 19.6863 8.13578 18.9913C7.91117 18.2964 7.15734 17.1402 6.25582 17.0991Z" fill="#FE7800"/>
<path d="M8.99124 19.885C8.99124 19.885 7.59432 20.0145 7.80663 20.839C8.01893 21.6635 9.00355 22.1121 9.40047 21.9952C9.79739 21.8783 10.4589 21.4013 10.2189 20.8801C9.97891 20.3588 8.99124 19.8818 8.99124 19.8818V19.885Z" fill="#FE7800"/>
<path d="M11.1482 21.231C11.1482 21.231 10.4989 21.4553 10.4282 22.0144C10.3574 22.5736 10.9359 22.7347 11.3297 22.82C11.7235 22.9053 16.0096 24.1372 16.0096 24.1372C16.0096 24.1372 11.7235 21.1552 11.1482 21.2279V21.231Z" fill="#EE5800"/>
<path d="M8.87731 19.1493C8.96038 19.2504 9.07422 19.3672 9.02499 19.5252C8.97576 19.6831 8.665 19.8158 8.55116 19.6989C8.43731 19.5821 8.33884 19.3957 8.36653 19.2662C8.39423 19.1366 8.78807 19.0482 8.87423 19.1493H8.87731Z" fill="#FE7800"/>
<path d="M6.95124 15.5893C7.13278 16.0916 7.07431 16.4296 6.90816 16.4643C6.74201 16.4991 6.3851 16.458 6.25895 16.0505C6.13279 15.6462 6.00971 15.0934 6.23433 15.125C6.45894 15.1565 6.72663 14.9607 6.95124 15.5893Z" fill="#FE7800"/>
<path d="M5.96048 16.7613C5.94818 16.3475 5.91742 15.9811 5.66512 15.8579C5.41281 15.7347 4.55128 15.7789 4.50821 16.139C4.46513 16.5023 4.51743 16.6918 4.57897 16.9919C4.73281 17.7722 5.97279 17.1751 5.96048 16.7613Z" fill="#FE7800"/>
<path d="M6.93287 8.78484C6.94825 8.83538 6.98209 8.88278 7.02209 8.91437C7.20978 9.05968 7.39747 9.20497 7.60054 9.32501C7.87746 9.49243 8.18208 9.62511 8.4713 9.76726C8.87745 9.96628 9.0959 10.0895 9.19128 10.1432C9.19128 10.1432 9.2036 10.1495 9.22206 10.1621C9.32052 10.219 9.52975 10.3359 9.58205 10.2822C9.60974 10.2569 9.58821 10.1906 9.58205 10.1685C9.30513 9.35345 8.90206 8.76275 8.90206 8.76275C8.70821 8.34893 8.44361 7.81188 8.04053 7.07901C7.62516 6.32719 8.06516 7.1422 7.58516 6.29244C7.29901 5.78386 7.16979 5.52798 6.99749 5.53429C6.95749 5.53429 6.86517 5.55326 6.73902 5.74912C6.3421 6.36195 6.50518 7.07585 6.73902 8.0646C6.78517 8.25097 6.84364 8.49738 6.93287 8.78168V8.78484Z" fill="#FE7800"/>
<path d="M10.302 11.7006C10.2404 11.5774 10.1881 11.4732 10.0989 11.2836C9.92966 10.9172 9.94812 10.9172 9.90197 10.8635C9.75735 10.6897 9.55429 10.7119 9.10815 10.614C8.86815 10.5634 8.61277 10.5065 8.32355 10.3581C8.01894 10.2001 7.87431 9.96004 7.40354 9.7326C7.28355 9.67574 7.25278 9.66942 7.23432 9.68521C7.08971 9.79577 7.57586 10.9361 8.39431 11.7701C8.49277 11.8712 9.67429 13.0463 10.3389 12.7115C10.4404 12.6609 10.7297 12.4967 10.6404 12.345C10.5204 12.1334 10.4066 11.9186 10.2989 11.7038L10.302 11.7006Z" fill="#FE7800"/>
<path d="M10.6774 6.64617C10.5974 6.3903 10.4866 6.18497 10.3266 6.01123C10.1482 5.81853 9.95743 5.7301 9.78513 5.6385C9.22821 5.34156 8.49898 5.18045 7.86822 5.24047C7.68361 5.25942 7.58516 5.48055 7.68978 5.6385C7.78516 5.78065 7.88053 5.9228 7.96976 6.07127C8.18822 6.42823 8.3913 6.79781 8.5913 7.16741C8.98514 7.8908 9.58204 9.09751 9.92357 9.84933C9.92665 9.85565 9.92974 9.86515 9.93281 9.87147C10.0344 10.0926 10.3544 10.0547 10.4005 9.81459C10.5328 9.16069 10.9759 7.5907 10.6774 6.64934V6.64617Z" fill="#FE7800"/>
<path d="M11.5481 12.651C11.4804 12.6668 11.4004 12.6415 11.3512 12.6226C11.2158 12.5752 11.1081 12.4741 10.8497 12.0003C10.7635 11.8455 10.622 11.5738 10.4928 11.2074C10.4251 11.0179 10.3943 10.8946 10.4281 10.7525C10.4681 10.5851 10.5728 10.484 10.6312 10.424C10.8005 10.2408 10.8589 9.9691 10.9697 9.42892C11.0958 8.80977 11.0589 8.64233 11.182 7.83365C11.2681 7.25872 11.3112 6.97126 11.3697 6.96494C11.5635 6.94915 11.8589 8.82555 11.902 10.5535C11.9235 11.4064 11.8897 12.5626 11.5512 12.6478L11.5481 12.651Z" fill="#FE7800"/>
<path d="M12.8311 9.51431C13.2249 9.66278 13.4649 9.11626 14.4372 8.9362C15.4218 8.75298 15.868 9.1826 16.1018 8.9362C16.548 8.46552 15.6618 6.09318 13.7911 5.00019C12.0127 3.9609 9.78808 4.33682 9.705 4.76959C9.63424 5.12655 11.0896 5.20551 11.905 6.53542C12.7111 7.84954 12.2065 9.27739 12.8342 9.51747L12.8311 9.51431Z" fill="#FE7800"/>
<path d="M4.71124 13.9718C4.8097 14.1139 5.22509 14.6983 5.782 14.6951C6.45892 14.692 6.58198 13.8264 7.75427 13.2768C8.28042 13.0304 8.57273 13.0588 8.62812 12.844C8.72658 12.4744 7.91119 12.2091 7.1912 11.3404C6.19429 10.1368 5.99738 8.51947 5.95123 8.12776C5.85277 7.3096 5.93277 6.67466 5.72662 6.62411C5.50816 6.56725 5.17585 7.21798 5.07739 7.40436C4.60355 8.32676 4.53278 9.11649 4.42817 11.5425C4.36663 12.9957 4.36047 13.479 4.71124 13.9749V13.9718Z" fill="#FE7800"/>
<path d="M19.2679 25.9822C19.2679 25.9822 14.388 35.6579 18.5695 42.0706C20.7633 45.4317 25.3817 43.5805 26.3417 42.617C27.9325 41.0249 28.2124 38.0682 28.354 36.056C28.6309 32.2021 26.8648 31.2007 26.0094 30.2025C25.154 29.2043 19.2679 25.979 19.2679 25.979V25.9822Z" fill="black"/>
<path d="M19.311 27.0278C19.2864 27.0879 19.0402 27.6754 18.7418 28.541C17.9695 30.7364 16.7972 34.7135 17.7787 36.2519C18.7171 37.7208 20.5386 37.446 20.9233 36.7068C21.3109 35.9676 21.074 34.5461 20.5417 33.3394C20.194 32.5528 19.8063 30.7143 19.5571 29.1285C19.4279 28.2883 19.3387 27.5238 19.311 27.0278Z" fill="#EE5800"/>
<path d="M19.8865 27.0024C19.8865 27.0024 20.0373 28.1586 20.3019 29.6022C20.6773 31.6619 21.2803 34.3154 22.0034 35.0988C23.2372 36.4318 24.7572 35.9137 24.988 35.1461C25.1634 34.5522 25.431 33.8763 24.9295 32.7991C24.7818 32.48 24.5726 32.1262 24.2741 31.7313C22.9572 29.975 19.8834 27.0024 19.8834 27.0024H19.8865Z" fill="#EE5800"/>
<path d="M20.5357 38.6051C20.2526 38.403 19.991 38.7631 19.2157 38.6841C18.4311 38.602 18.148 38.1723 17.9326 38.305C17.5234 38.5641 17.8742 40.5795 19.1603 41.8399C20.3849 43.0371 22.1541 43.2551 22.2803 42.9455C22.3849 42.6896 21.2741 42.2979 20.8341 41.0975C20.3972 39.9098 20.988 38.9305 20.5357 38.6083V38.6051Z" fill="#FE7800"/>
<path d="M27.4247 37.0414C27.3663 36.9119 27.1324 36.3686 26.7017 36.2454C26.1786 36.0938 25.9632 36.7287 24.9786 36.8803C24.5355 36.9498 24.3171 36.8614 24.2432 37.013C24.114 37.2752 24.7078 37.6606 25.1417 38.4882C25.7417 39.6349 25.6647 40.9142 25.6463 41.227C25.6063 41.8746 25.4586 42.3421 25.6094 42.4274C25.7694 42.519 26.1201 42.0989 26.2186 41.9757C26.714 41.3786 26.8801 40.7911 27.3016 38.9589C27.554 37.8627 27.6278 37.4963 27.4278 37.0351L27.4247 37.0414Z" fill="#FE7800"/>
<path d="M22.1111 28.2566C22.1111 28.2566 23.2987 29.596 24.1387 30.4805C24.868 31.2481 25.7049 32.3095 26.0556 33.5794C26.111 33.7752 26.1541 33.9774 26.1818 34.1859C26.4002 35.7306 26.671 35.898 27.2802 35.819C27.6525 35.7685 27.9664 35.3041 27.9541 34.4828C27.9571 34.4386 27.9541 34.3881 27.9541 34.3407C27.751 30.7742 22.1172 28.2534 22.1172 28.2534L22.1111 28.2566Z" fill="#EE5800"/>
<path d="M23.8218 37.9136C23.4926 37.5251 23.0434 37.3956 22.5911 37.3008C22.1388 37.2061 21.7234 38.2801 21.6342 38.4886C21.588 38.596 21.4157 39.6953 21.628 40.6145C21.828 41.4801 22.7634 42.7089 23.3141 42.6899C23.8649 42.671 25.0987 42.6363 24.8926 40.8294C24.6833 39.0225 24.1541 38.3022 23.8249 37.9136H23.8218Z" fill="#FE7800"/>
<path d="M26.0556 33.5791C26.7418 34.0182 27.3695 34.3246 27.951 34.4857C27.9541 34.4415 27.951 34.391 27.951 34.3436C27.7479 30.7772 22.1141 28.2563 22.1141 28.2563C22.1141 28.2563 23.3018 29.5957 24.1418 30.4802C24.871 31.2479 25.7079 32.3092 26.0587 33.5791H26.0556Z" fill="#EE5800"/>
<path d="M19.8864 27.0024C19.8864 27.0024 20.0371 28.1586 20.3017 29.6022C21.4217 30.294 22.6894 31.0206 23.9817 32.0599C24.3109 32.3252 24.6278 32.5716 24.9324 32.7991C24.7847 32.48 24.5755 32.1262 24.2771 31.7313C22.9602 29.975 19.8864 27.0024 19.8864 27.0024Z" fill="#EE5800"/>
<path d="M19.3112 27.0278C19.2865 27.0879 19.0404 27.6754 18.7419 28.541C18.9973 28.7463 19.2681 28.9358 19.5573 29.1285C19.4281 28.2883 19.3388 27.5238 19.3112 27.0278Z" fill="#EE5800"/>
<path d="M19.0773 26.2445C19.0773 26.2445 26.7418 14.2279 35.7909 15.1693C44.8369 16.1138 45.7938 19.9582 45.3138 22.22C44.8338 24.4818 41.4431 24.2322 41.1231 24.207C40.8062 24.1849 36.7078 29.2233 34.6463 30.6765C30.7017 33.4595 28.6925 31.9874 27.1725 31.602C25.6556 31.2166 19.0742 26.2413 19.0742 26.2413L19.0773 26.2445Z" fill="black"/>
<path d="M43.9291 19.0989C44.2953 19.5822 45.0153 20.5299 44.8307 21.6071C44.806 21.7492 44.7322 22.1504 44.4276 22.5232C43.9476 23.1108 43.2491 23.1866 43.0307 23.2087C42.8307 23.2308 42.0953 23.2814 41.5261 22.8612C40.5507 22.141 41.3384 20.9785 40.3753 19.2253C40.043 18.6188 39.3538 17.6743 38.3415 16.9003C37.84 16.5181 37.4862 16.3506 37.5262 16.2338C37.6061 15.9905 39.3477 16.2369 40.9107 16.9066C41.6799 17.2351 42.9384 17.7911 43.9291 19.0989Z" fill="#FE7800"/>
<path d="M20.0095 25.7609C20.0095 25.7609 26.4956 17.0391 29.834 17.336C32.0924 17.5382 32.837 20.1032 32.2063 21.1236C31.5755 22.1439 29.7817 22.8294 28.0709 22.9747C26.3602 23.1169 21.711 24.8637 20.0095 25.7609Z" fill="#EE5800"/>
<path d="M20.4895 26.3296C20.4895 26.3296 28.6709 22.9433 30.9047 23.6477C33.1385 24.3521 33.4493 26.6676 32.717 27.4795C31.9847 28.2913 31.1878 29.3811 28.4278 28.8473C25.6679 28.3134 20.4895 26.3296 20.4895 26.3296Z" fill="#EE5800"/>
<path d="M31.88 29.7854C31.88 29.7854 32.0093 31.3554 31.2247 31.5418C30.4401 31.7282 29.357 31.567 29.0801 31.3554C28.8032 31.1437 28.6001 29.8423 29.2585 29.5643C29.917 29.2863 31.2616 29.1094 31.88 29.7854Z" fill="#FE7800"/>
<path d="M28.0371 29.4882C28.0371 29.4882 28.8556 30.657 28.1079 31.0329C27.3602 31.4088 26.3848 30.935 26.2125 30.5527C26.0402 30.1705 25.9571 29.3429 26.4987 29.1881C27.0402 29.0333 28.0371 29.485 28.0371 29.485V29.4882Z" fill="#FE7800"/>
<path d="M25.6341 28.6955C25.6341 28.6955 25.8925 29.3463 25.5264 29.7664C25.1602 30.1865 24.6649 29.8422 24.3418 29.5927C24.0187 29.3431 20.308 26.8223 20.308 26.8223C20.308 26.8223 25.3079 28.1964 25.6341 28.6924V28.6955Z" fill="#EE5800"/>
<path d="M28.6524 29.0935C28.5232 29.0935 28.3632 29.0808 28.2771 29.223C28.1909 29.3651 28.2986 29.6905 28.4586 29.7031C28.6186 29.7158 28.8217 29.6684 28.8986 29.561C28.9755 29.4536 28.7817 29.0903 28.6524 29.0903V29.0935Z" fill="#FE7800"/>
<path d="M32.5385 28.2596C32.0493 28.4492 31.8401 28.7145 31.9231 28.8662C32.0062 29.0178 32.2708 29.2673 32.6524 29.0999C33.0339 28.9325 33.52 28.6671 33.3508 28.5123C33.1816 28.3575 33.1508 28.0259 32.5385 28.2596Z" fill="#FE7800"/>
<path d="M32.3233 29.7948C32.6371 29.5327 32.9263 29.3178 33.1817 29.4316C33.4371 29.5453 33.9694 30.2434 33.7294 30.5119C33.4894 30.7804 33.3171 30.8657 33.0556 31.0173C32.3786 31.4091 32.0094 30.0539 32.3233 29.7948Z" fill="#FE7800"/>
<path d="M37.56 23.8213C37.5108 23.8434 37.4554 23.8466 37.4061 23.8371C37.1754 23.7834 36.9477 23.7329 36.7231 23.6571C36.4185 23.5497 36.1231 23.4044 35.8277 23.2717C35.4154 23.0885 35.1816 22.9969 35.0769 22.9589C35.0769 22.9589 35.0646 22.9558 35.0431 22.9463C34.9354 22.9052 34.7139 22.8199 34.717 22.7473C34.717 22.7094 34.7785 22.6841 34.8 22.6746C35.5816 22.3556 36.28 22.2829 36.28 22.2829C36.7108 22.1629 37.2831 22.0176 38.0831 21.8502C38.9077 21.6796 38.0215 21.8723 38.96 21.6859C39.52 21.5753 39.7938 21.5058 39.9046 21.6448C39.9292 21.6796 39.9784 21.7617 39.9169 21.986C39.723 22.6968 39.0923 23.0379 38.2123 23.5023C38.0461 23.5907 37.8246 23.7044 37.56 23.8213Z" fill="#FE7800"/>
<path d="M33.2092 23.1136C33.3385 23.082 33.4523 23.0536 33.6493 22.9967C34.0308 22.8893 34.0154 22.8735 34.0862 22.8735C34.3108 22.8735 34.4246 23.0441 34.7877 23.3253C34.9846 23.4769 35.1908 23.6412 35.4892 23.7644C35.8061 23.897 36.0769 23.8497 36.5507 24.0676C36.6738 24.1245 36.6954 24.1434 36.6984 24.1687C36.7107 24.3551 35.5538 24.7247 34.4031 24.6299C34.2646 24.6173 32.6247 24.4719 32.437 23.7359C32.4093 23.6222 32.3416 23.2937 32.5108 23.2621C32.7447 23.2179 32.9785 23.1642 33.2062 23.1073L33.2092 23.1136Z" fill="#FE7800"/>
<path d="M36.6831 19.5127C36.9231 19.4084 37.1446 19.3579 37.3815 19.3706C37.64 19.3832 37.8308 19.4717 38.0123 19.5475C38.5938 19.7844 39.1907 20.2456 39.5599 20.7763C39.6676 20.9311 39.5692 21.1522 39.3846 21.1743C39.2184 21.1932 39.0492 21.2122 38.883 21.2407C38.4769 21.307 38.0707 21.3891 37.6677 21.4744C36.8769 21.6418 35.5969 21.9672 34.8216 22.1946C34.8123 22.1946 34.8062 22.1978 34.7969 22.2009C34.5662 22.2673 34.3877 21.9956 34.5323 21.7998C34.9293 21.2691 35.7939 19.8981 36.6831 19.5127Z" fill="#FE7800"/>
<path d="M33.0032 21.1268C34.3016 20.0275 35.8801 19.0325 35.9939 19.1904C36.0278 19.2378 35.8462 19.462 35.477 19.9043C34.9601 20.5266 34.8124 20.6088 34.4401 21.1142C34.117 21.5533 33.9539 21.7776 33.9293 22.0271C33.9201 22.1093 33.917 22.2577 33.8186 22.3999C33.7355 22.5167 33.6247 22.5736 33.4401 22.6463C33.0832 22.7852 32.7939 22.8548 32.6216 22.8895C32.1047 23.0001 31.9601 22.9811 31.837 22.9084C31.794 22.8832 31.7201 22.839 31.6894 22.7726C31.5294 22.4536 32.3601 21.6701 33.0032 21.13V21.1268Z" fill="#FE7800"/>
<path d="M33.1632 19.7214C32.7971 19.5129 33.0401 18.9696 32.5386 18.0946C32.0309 17.2101 31.4217 17.1437 31.4494 16.8026C31.5048 16.1487 33.8309 15.2831 35.8616 16.0223C37.7908 16.7236 38.9693 18.6948 38.7078 19.0454C38.4924 19.3329 37.4801 18.2557 35.9693 18.4926C34.474 18.7264 33.7509 20.0531 33.1663 19.7214H33.1632Z" fill="#FE7800"/>
<path d="M35.194 28.942C35.0247 28.9578 34.3232 29.0178 33.9601 28.585C33.5201 28.0575 34.0771 27.3973 33.714 26.1242C33.5509 25.5525 33.3417 25.3471 33.4617 25.1607C33.6709 24.8417 34.3971 25.3029 35.5109 25.2934C37.0524 25.2808 38.3693 24.3742 38.6893 24.1531C39.357 23.695 39.7724 23.218 39.9447 23.3444C40.1293 23.477 39.8677 24.1625 39.7939 24.3584C39.4247 25.3282 38.8893 25.9031 37.1693 27.571C36.1386 28.5692 35.7878 28.8915 35.194 28.942Z" fill="#FE7800"/>
<path d="M19.1726 26.1401C18.8064 27.6122 17.4988 30.7553 15.8773 32.9412C14.2434 35.1493 12.9573 37.5375 11.9604 38.6242C11.4158 39.2086 11.1666 39.6161 10.9327 39.4897C10.702 39.3633 10.8927 38.9622 11.0619 38.1882C11.1358 37.8376 11.2558 37.4522 11.4035 37.0226C11.8804 35.6579 12.6804 33.87 13.4711 31.6272C14.3819 29.0463 15.8957 26.0232 16.8803 24.8797C16.9296 24.8196 16.9819 24.7723 17.0311 24.7344C17.6188 24.2668 18.1788 24.946 18.4188 25.0787C18.6803 25.2177 19.4157 25.1924 19.1787 26.1401H19.1726Z" fill="black"/>
<path d="M18.388 25.4925C18.3603 25.6062 18.3264 25.7294 18.2864 25.859C17.871 27.2331 16.8188 29.637 15.5449 31.3649C14.1326 33.2635 13.028 35.3294 12.1604 36.2613C11.7881 36.6656 11.5727 36.9721 11.4004 37.0226C11.8773 35.6579 12.6773 33.87 13.468 31.6272C14.3788 29.0463 15.8926 26.0232 16.8772 24.8797C16.9265 24.8196 16.9788 24.7723 17.028 24.7344C17.6157 24.2668 18.1757 24.946 18.4157 25.0787C18.4372 25.1829 18.4341 25.3188 18.388 25.4925Z" fill="#131C47"/>
<path d="M21.3387 24.0204C20.9541 24.7596 20.3234 25.6788 19.7449 25.9979C19.5511 26.1053 19.3603 26.1463 19.1757 26.1432C18.868 26.14 18.5757 26.0105 18.2865 25.8621C18.2126 25.821 18.1326 25.7799 18.0557 25.7389C17.5757 25.4767 17.1449 25.3092 17.028 24.7375C17.0157 24.6838 17.0065 24.6332 17.0003 24.5795C16.988 24.4532 16.988 24.311 17.0003 24.1531C17.0403 23.635 17.2003 22.9874 17.4157 22.4378C17.4772 22.2735 17.5449 22.1219 17.6157 21.9829C18.3849 20.5108 19.8064 19.7369 20.828 20.2328C20.8495 20.236 20.8772 20.2518 20.8987 20.2644C21.9264 20.8267 22.1264 22.5104 21.3418 24.0172L21.3387 24.0204Z" fill="black"/>
<path d="M19.191 12.0166C20.1879 12.7811 21.191 13.7856 21.4433 15.0871C21.4679 16.3759 21.431 17.6553 21.2833 18.9347C21.2187 19.2727 21.2156 19.7307 21.031 19.9897C21.1664 19.658 21.1818 19.2853 21.2249 18.9283C21.2587 17.551 21.5879 15.9621 20.9356 14.7017C20.428 13.7698 19.7141 12.9295 19.1941 12.0198L19.191 12.0166Z" fill="black"/>
<path d="M27.3263 16.0251C26.0432 16.1262 24.8494 16.4042 23.8463 17.2697C22.8956 18.1511 21.8341 18.9598 21.0464 19.9959C21.3079 19.4431 21.9048 18.9851 22.3325 18.5175L23.754 17.1655C24.2156 16.7264 24.6771 16.1515 25.3448 15.9398C25.9725 15.7345 26.7755 15.684 27.3232 16.0251H27.3263Z" fill="black"/>
<path d="M20.4803 22.8548C19.7203 23.9067 18.5542 24.3363 17.8742 23.8214C17.4957 23.5371 17.345 23.019 17.4157 22.4378C17.4773 22.2735 17.545 22.1219 17.6157 21.9829C18.3849 20.5108 19.8065 19.7369 20.828 20.2328C21.2741 20.8362 21.1449 21.9324 20.4834 22.8548H20.4803Z" fill="#131C47"/>
<path d="M21.8033 20.2991C21.6095 20.675 21.1541 20.8171 20.791 20.615C20.4249 20.416 20.2864 19.9485 20.4833 19.5757C20.6772 19.1998 21.0402 19.2345 21.4064 19.4335C21.7725 19.6325 22.0002 19.9232 21.8064 20.2991H21.8033Z" fill="black"/>
<path d="M87.8115 43.7105C87.8115 43.7105 98.4078 56.849 93.7209 67.7866C91.2641 73.522 83.4166 72.115 81.6099 70.95C78.6221 69.0236 77.2981 64.6459 76.4709 61.6523C74.8834 55.9213 77.3768 53.8764 78.428 52.1106C79.4793 50.3448 87.814 43.7062 87.814 43.7062L87.8115 43.7105Z" fill="black"/>
<path d="M88.0525 45.2971C88.1118 45.381 88.6733 46.1965 89.4062 47.4112C91.2768 50.4947 94.3212 56.1456 93.2285 58.7621C92.1828 61.2594 89.226 61.3955 88.3961 60.3951C87.5662 59.3946 87.5112 57.1783 87.992 55.1972C88.306 53.9007 88.3705 51.0123 88.2903 48.5466C88.2433 47.2426 88.1604 46.0584 88.05 45.3013L88.0525 45.2971Z" fill="#FFD024"/>
<path d="M87.1398 45.4325C87.1398 45.4325 87.2445 47.2229 87.2571 49.4824C87.2771 52.7042 87.1201 56.8908 86.2123 58.2949C84.6634 60.6765 82.1062 60.3544 81.5166 59.2654C81.0633 58.4213 80.4383 57.4804 80.907 55.7053C81.0446 55.1779 81.2684 54.5813 81.6237 53.8965C83.1786 50.8515 87.1441 45.435 87.1441 45.435L87.1398 45.4325Z" fill="#FFD024"/>
<path d="M89.5811 63.1481C89.9658 62.7544 90.4901 63.2238 91.6906 62.8701C92.907 62.5086 93.2232 61.7737 93.6029 61.915C94.3253 62.1825 94.3762 65.3321 92.7177 67.6182C91.1412 69.7937 88.4163 70.6546 88.1203 70.2242C87.8775 69.8687 89.5153 68.9437 89.8542 67.0002C90.1876 65.0759 88.9675 63.7768 89.5787 63.1523L89.5811 63.1481Z" fill="#FFBB00"/>
<path d="M78.2354 62.8603C78.2857 62.6478 78.4979 61.7589 79.1421 61.4388C79.9209 61.0545 80.4557 61.9445 82.0514 61.881C82.7691 61.8545 83.0913 61.6552 83.2498 61.8623C83.5325 62.2179 82.7091 62.9805 82.2728 64.3592C81.6675 66.2701 82.1708 68.179 82.2918 68.645C82.5471 69.6127 82.9206 70.2716 82.7083 70.4488C82.4844 70.6363 81.8061 70.108 81.6113 69.9533C80.6537 69.2001 80.2133 68.3633 79.0015 65.7242C78.2769 64.1444 78.0511 63.6136 78.2311 62.8579L78.2354 62.8603Z" fill="#FFBB00"/>
<path d="M83.9994 47.9973C83.9994 47.9973 82.5261 50.3767 81.4655 51.9635C80.5435 53.3428 79.5381 55.1961 79.3629 57.2208C79.3332 57.5347 79.33 57.8522 79.3463 58.1752C79.466 60.5736 79.0826 60.9064 78.1033 60.9703C77.5004 61.0055 76.8623 60.399 76.6432 59.1548C76.625 59.0885 76.6185 59.012 76.6027 58.9414C75.8586 53.4957 84.0061 47.9955 84.0061 47.9955L83.9994 47.9973Z" fill="#EE5800"/>
<path d="M84.1815 63.0881C84.5836 62.4016 85.253 62.0677 85.9455 61.7916C86.6338 61.5131 87.6073 63.0093 87.814 63.2996C87.9205 63.4493 88.5216 65.0547 88.4602 66.5048C88.4014 67.8724 87.2928 70.0093 86.4176 70.1487C85.5382 70.2857 83.5815 70.605 83.372 67.8142C83.1624 65.0234 83.7838 63.777 84.1858 63.0905L84.1815 63.0881Z" fill="#AE85ED"/>
<path d="M79.3586 57.2184C78.4048 58.0867 77.5081 58.7407 76.6365 59.1566C76.6182 59.0903 76.6117 59.0138 76.5959 58.9433C75.8518 53.4975 83.9994 47.9973 83.9994 47.9973C83.9994 47.9973 82.5261 50.3767 81.4655 51.9635C80.5435 53.3428 79.5381 55.1961 79.3629 57.2208L79.3586 57.2184Z" fill="#EE5800"/>
<path d="M87.1398 45.4325C87.1398 45.4325 87.2445 47.2229 87.2571 49.4824C85.6967 50.8602 83.9108 52.3404 82.1807 54.3004C81.7411 54.7976 81.312 55.267 80.9027 55.7029C81.0403 55.1754 81.2641 54.5788 81.6194 53.894C83.1743 50.8491 87.1398 45.4325 87.1398 45.4325Z" fill="#FFD024"/>
<path d="M88.0525 45.2971C88.1118 45.381 88.6733 46.1965 89.4062 47.4112C89.0663 47.7965 88.6939 48.1693 88.2927 48.5425C88.2457 47.2385 88.1629 46.0542 88.0525 45.2971Z" fill="#FFD024"/>
<path d="M88.1907 44.0478C88.1907 44.0478 72.4992 28.2141 58.4943 32.3598C44.4894 36.5054 44.1287 42.5997 45.558 45.8714C46.9873 49.1431 52.2716 47.7427 52.7649 47.6119C53.2582 47.4812 61.2395 53.8553 64.9244 55.4298C71.9849 58.4437 74.7197 55.6161 77.0006 54.5776C79.2814 53.5391 88.1882 44.052 88.1882 44.052L88.1907 44.0478Z" fill="black"/>
<path d="M46.8175 40.7381C46.382 41.5794 45.5305 43.2282 46.1429 44.7951C46.2215 45.002 46.4576 45.5834 47.0506 46.0524C47.9868 46.7934 49.1098 46.6986 49.4641 46.6688C49.7828 46.6412 50.9618 46.4995 51.7368 45.6929C53.0602 44.3103 51.4717 42.7922 52.47 39.8592C52.814 38.8429 53.6199 37.2133 54.9865 35.7375C55.6661 35.0059 56.1704 34.6516 56.0782 34.4875C55.8789 34.1454 53.2006 35.0437 50.9316 36.5203C49.8155 37.2466 47.9941 38.4659 46.8175 40.7381Z" fill="#FFBB00"/>
<path d="M86.5743 43.601C86.5743 43.601 73.7268 32.3862 68.5437 33.8381C65.0401 34.82 64.6269 38.918 65.9304 40.2697C67.2339 41.6214 70.2708 42.1188 73.0156 41.8183C75.7605 41.5178 83.6224 42.7538 86.5743 43.601Z" fill="#FFD024"/>
<path d="M85.9873 44.6035C85.9873 44.6035 72.0588 41.951 68.7412 43.6877C65.4236 45.4244 65.6237 49.0112 67.0232 50.0136C68.4228 51.0161 70.0067 52.4251 74.2074 50.7888C78.4082 49.1525 85.9873 44.6035 85.9873 44.6035Z" fill="#FFD024"/>
<path d="M69.0333 53.2485C69.0333 53.2485 69.2967 55.6551 70.5931 55.7029C71.8895 55.7507 73.5484 55.1793 73.927 54.7766C74.3056 54.3738 74.2347 52.3504 73.1106 52.1253C71.9865 51.9001 69.8118 52.046 69.0333 53.2485Z" fill="#FE7800"/>
<path d="M75.0106 51.6395C75.0106 51.6395 74.0668 53.6508 75.3569 53.992C76.647 54.3332 78.0456 53.3293 78.205 52.6964C78.3644 52.0635 78.2467 50.7925 77.3463 50.7216C76.446 50.6507 75.0063 51.637 75.0063 51.637L75.0106 51.6395Z" fill="#FE7800"/>
<path d="M78.5675 49.7184C78.5675 49.7184 78.3518 50.7789 79.0546 51.3043C79.7573 51.8296 80.4399 51.1613 80.8714 50.6876C81.303 50.2139 86.4121 45.2911 86.4121 45.2911C86.4121 45.2911 78.9258 48.8727 78.5632 49.716L78.5675 49.7184Z" fill="#EE5800"/>
<path d="M73.9196 51.2316C74.1235 51.1954 74.3735 51.1291 74.5486 51.3175C74.7236 51.5059 74.6548 52.033 74.4048 52.0992C74.1547 52.1655 73.8226 52.1575 73.6689 52.0203C73.5152 51.8832 73.7107 51.2763 73.9171 51.2358L73.9196 51.2316Z" fill="#FE7800"/>
<path d="M67.5397 51.1396C68.3674 51.276 68.7797 51.6151 68.6937 51.8691C68.6078 52.1232 68.2659 52.5803 67.6112 52.4407C66.9608 52.3035 66.1113 52.0483 66.3342 51.7651C66.5572 51.4819 66.5057 50.9653 67.5397 51.1396Z" fill="#FE7800"/>
<path d="M68.3374 53.394C67.7654 53.0937 67.243 52.855 66.8734 53.106C66.5038 53.3569 65.8733 54.5701 66.3279 54.905C66.7868 55.2423 67.0862 55.316 67.5432 55.4617C68.7264 55.8491 68.9093 53.6943 68.3374 53.394Z" fill="#FE7800"/>
<path d="M58.282 45.9508C58.363 45.9684 58.4545 45.9584 58.5295 45.9279C58.8773 45.7823 59.2251 45.6368 59.551 45.4508C60.0003 45.2 60.4248 44.8848 60.8497 44.5978C61.4456 44.1944 61.7881 43.9898 61.9375 43.9004C61.9375 43.9004 61.9559 43.8883 61.9879 43.8728C62.144 43.7816 62.4705 43.5848 62.4395 43.472C62.4274 43.4147 62.32 43.3934 62.285 43.3849C60.956 43.1393 59.8305 43.2384 59.8305 43.2384C59.113 43.1866 58.1714 43.1373 56.8527 43.1274C55.4985 43.1198 56.9583 43.1421 55.4193 43.1479C54.499 43.1498 54.0479 43.1306 53.9183 43.3713C53.8863 43.4261 53.838 43.567 54.003 43.8897C54.5173 44.9027 55.6177 45.2265 57.1483 45.6641C57.4384 45.7438 57.82 45.8526 58.2777 45.9483L58.282 45.9508Z" fill="#AE85ED"/>
<path d="M64.9433 43.5732C64.7266 43.563 64.5431 43.5548 64.2141 43.5317C63.5807 43.4825 63.5955 43.4572 63.4856 43.4792C63.1336 43.544 63.0009 43.8389 62.5103 44.3746C62.2492 44.6644 61.9673 44.9703 61.5338 45.2525C61.075 45.5484 60.633 45.5624 59.9467 46.0324C59.7733 46.1531 59.74 46.1904 59.7467 46.2278C59.7809 46.5104 61.7197 46.7189 63.5085 46.2377C63.7248 46.1804 66.2682 45.4636 66.3461 44.2973C66.3588 44.1196 66.3675 43.5978 66.09 43.6038C65.7063 43.6058 65.3233 43.5971 64.9452 43.5798L64.9433 43.5732Z" fill="#FE7800"/>
<path d="M58.0809 39.186C57.6692 39.0995 57.3015 39.0937 56.9372 39.1796C56.5324 39.2762 56.2594 39.4695 55.9968 39.6352C55.1471 40.1699 54.3437 41.0446 53.9196 41.954C53.7974 42.2212 54.0188 42.5255 54.3172 42.5033C54.5868 42.4817 54.8563 42.4601 55.1295 42.4517C55.7895 42.4262 56.4543 42.4315 57.1167 42.4409C58.415 42.4562 60.5327 42.5639 61.8277 42.6726C61.8388 42.6732 61.8541 42.6762 61.8652 42.6769C62.2469 42.7073 62.4519 42.2403 62.1628 41.9931C61.3806 41.3109 59.6031 39.5013 58.0852 39.1885L58.0809 39.186Z" fill="#AE85ED"/>
<path d="M67.2337 42.5962C67.2009 42.701 67.1025 42.7911 67.0373 42.844C66.8644 42.993 66.6408 43.063 65.7899 43.0536C65.5106 43.0529 65.0281 43.0385 64.4268 42.9345C64.1151 42.882 63.923 42.8297 63.7571 42.6744C63.5617 42.4913 63.5083 42.2707 63.4736 42.1447C63.3604 41.7726 63.0382 41.4844 62.3932 40.9189C61.6533 40.2717 61.3963 40.1939 60.3964 39.4058C59.6845 38.8472 59.3286 38.568 59.3669 38.4831C59.5008 38.2057 62.2864 39.2393 64.6681 40.5045C65.844 41.1287 67.3873 42.061 67.2319 42.5896L67.2337 42.5962Z" fill="#FE7800"/>
<path d="M64.0012 38.436C64.5186 38.0107 63.9686 37.2634 64.5034 35.7945C65.0438 34.3064 65.985 34.025 65.8377 33.5161C65.556 32.5447 61.6232 31.9397 58.6389 33.6627C55.8016 35.3006 54.529 38.6337 55.0503 39.079C55.4785 39.4494 56.7523 37.5179 59.2124 37.4209C61.6437 37.3245 63.1788 39.1094 64.008 38.4342L64.0012 38.436Z" fill="#FFBB00"/>
<path d="M63.5471 52.9663C63.8192 52.9405 64.9459 52.8197 65.3881 52.055C65.9264 51.126 64.8493 50.2943 65.0424 48.2684C65.1294 47.3594 65.4023 46.9811 65.155 46.7407C64.7318 46.3227 63.7178 47.2354 61.9606 47.5552C59.5266 47.9975 57.1718 47.0276 56.6027 46.7906C55.4124 46.2984 54.6141 45.7023 54.3802 45.9457C54.1278 46.2012 54.7454 47.1547 54.9196 47.4323C55.7928 48.7878 56.8088 49.4898 60.0204 51.4922C61.945 52.69 62.5966 53.0688 63.5514 52.9687L63.5471 52.9663Z" fill="#FFBB00"/>
<path d="M91.53 42.2447C91.53 42.2447 100.762 56.339 112.824 55.5296C119.148 55.1024 120.336 47.3622 119.797 45.3098C118.909 41.9124 115.117 39.2633 112.497 37.5275C107.484 34.1952 104.708 35.8453 102.667 36.2511C100.625 36.657 91.5257 42.2422 91.5257 42.2422L91.53 42.2447Z" fill="black"/>
<path d="M92.9847 42.987C93.0465 43.0667 93.6474 43.8539 94.5839 44.9257C96.9471 47.6653 101.41 52.3176 104.286 52.153C107.034 51.9941 108.121 49.2903 107.425 48.1974C106.731 47.1003 104.611 46.3352 102.545 46.1391C101.198 46.0122 98.3894 45.134 96.0356 44.2599C94.7906 43.7929 93.6806 43.3292 92.9847 42.987Z" fill="#FFD024"/>
<path d="M93.4117 42.18C93.4117 42.18 95.1031 42.8596 97.2762 43.6037C100.375 44.6682 104.463 45.8762 106.106 45.4868C108.906 44.8195 109.421 42.3419 108.563 41.4378C107.897 40.7426 107.193 39.8582 105.328 39.7192C104.776 39.6769 104.128 39.6921 103.352 39.7981C99.911 40.2547 93.4092 42.1842 93.4092 42.1842L93.4117 42.18Z" fill="#FFD024"/>
<path d="M109.693 50.1828C109.191 50.4153 109.471 51.0493 108.742 52.0501C108.002 53.0611 107.191 53.1193 107.199 53.5158C107.222 54.2745 110.241 55.3388 112.984 54.5442C115.592 53.7855 117.307 51.5308 116.987 51.1209C116.723 50.7816 115.301 52.0019 113.318 51.6842C111.354 51.3721 110.497 49.813 109.697 50.1852L109.693 50.1828Z" fill="#FFBB00"/>
<path d="M113.091 39.5548C112.868 39.5356 111.943 39.4393 111.43 39.9346C110.805 40.5343 111.495 41.3157 110.912 42.7797C110.651 43.4394 110.355 43.6706 110.502 43.8879C110.755 44.2657 111.754 43.7482 113.226 43.7886C115.265 43.8461 116.941 44.9317 117.351 45.1967C118.199 45.7477 118.715 46.3081 118.952 46.1671C119.205 46.0183 118.915 45.2162 118.827 44.987C118.413 43.8515 117.748 43.1737 115.597 41.1927C114.31 40.0074 113.872 39.6255 113.085 39.5458L113.091 39.5548Z" fill="#FFBB00"/>
<path d="M96.8984 40.0959C96.8984 40.0959 99.6698 39.4967 101.545 39.0247C103.172 38.6148 105.284 38.2826 107.291 38.7756C107.601 38.8499 107.91 38.9459 108.216 39.0677C110.489 39.9525 110.934 39.7101 111.315 38.8157C111.544 38.2674 111.165 37.4819 110.04 36.8694C109.982 36.8313 109.911 36.7968 109.847 36.7605C104.839 34.3054 96.899 40.0851 96.899 40.0851L96.8984 40.0959Z" fill="#EE5800"/>
<path d="M111.387 45.1546C110.596 45.3075 110.06 45.8232 109.568 46.3696C109.077 46.9161 110.203 48.3078 110.415 48.5897C110.524 48.7352 111.879 49.8134 113.298 50.2273C114.634 50.6168 117.053 50.2781 117.468 49.5097C117.884 48.7413 118.826 47.0259 116.206 45.9234C113.584 44.8251 112.181 44.9975 111.39 45.1504L111.387 45.1546Z" fill="#AE85ED"/>
<path d="M107.291 38.7756C108.437 38.1729 109.357 37.5487 110.042 36.8761C109.984 36.838 109.913 36.8035 109.848 36.7672C104.841 34.3121 96.9009 40.0919 96.9009 40.0919C96.9009 40.0919 99.6723 39.4926 101.547 39.0206C103.174 38.6107 105.287 38.2785 107.293 38.7715L107.291 38.7756Z" fill="#EE5800"/>
<path d="M93.4117 42.18C93.4117 42.18 95.1031 42.8596 97.2762 43.6037C99.1137 42.6008 101.117 41.4223 103.564 40.4499C104.189 40.2026 104.777 39.9576 105.331 39.7149C104.779 39.6726 104.13 39.6878 103.355 39.7938C99.9134 40.2504 93.4117 42.18 93.4117 42.18Z" fill="#FFD024"/>
<path d="M92.9847 42.987C93.0465 43.0667 93.6474 43.8539 94.5839 44.9257C95.0675 44.7335 95.542 44.5082 96.0356 44.2599C94.7906 43.7929 93.6806 43.3292 92.9847 42.987Z" fill="#FFD024"/>
<path d="M91.7332 42.7067C91.7332 42.7067 81.554 23.0069 90.0863 11.3419C98.6206 -0.316388 104.61 1.31988 107.297 3.71016C109.985 6.10044 106.928 10.5504 106.637 10.969C106.353 11.3859 109.912 20.8569 110.233 24.7922C110.852 32.3242 107.242 33.9463 105.5 35.7315C103.76 37.5125 91.7264 42.7084 91.7264 42.7084L91.7332 42.7067Z" fill="black"/>
<path d="M101.948 3.21361C102.898 3.08281 104.762 2.82351 106.078 3.90169C106.251 4.04431 106.737 4.45283 106.999 5.15543C107.412 6.26271 106.955 7.27684 106.81 7.59281C106.68 7.88351 106.159 8.92883 105.132 9.38602C103.372 10.1692 102.424 8.20015 99.2709 8.17486C98.1807 8.16493 96.3452 8.38452 94.4825 9.17705C93.5612 9.57063 93.0501 9.92665 92.9234 9.78233C92.6571 9.48643 94.3878 7.29148 96.5504 5.66518C97.6133 4.86404 99.3773 3.56756 101.948 3.21361Z" fill="#FFBB00"/>
<path d="M91.824 41.06C91.824 41.06 85.1757 25.4982 88.2551 21.1562C90.34 18.2198 94.4212 19.1662 95.3016 20.8115C96.182 22.4568 95.6752 25.4375 94.5013 27.8905C93.3231 30.3411 91.9692 38.0435 91.824 41.06Z" fill="#FFD024"/>
<path d="M92.9811 40.8389C92.9811 40.8389 94.9393 27.0452 97.6868 24.5274C100.434 22.0096 103.829 23.3586 104.344 24.9831C104.86 26.6076 105.702 28.5336 102.764 31.9023C99.8268 35.271 92.9811 40.8389 92.9811 40.8389Z" fill="#FFD024"/>
<path d="M106.806 27.8958C106.806 27.8958 109.042 28.9221 108.667 30.1389C108.291 31.3557 107.204 32.7147 106.694 32.9315C106.185 33.1484 104.254 32.429 104.404 31.3147C104.555 30.2004 105.392 28.2243 106.806 27.8958Z" fill="#FE7800"/>
<path d="M103.322 32.9284C103.322 32.9284 105.566 32.7038 105.477 34.0153C105.388 35.3268 103.963 36.2988 103.306 36.2417C102.648 36.1847 101.457 35.6641 101.681 34.8043C101.905 33.9444 103.318 32.926 103.318 32.926L103.322 32.9284Z" fill="#FE7800"/>
<path d="M100.319 35.6101C100.319 35.6101 101.41 35.755 101.687 36.5781C101.964 37.4013 101.1 37.8155 100.502 38.0664C99.9037 38.3174 93.505 41.4649 93.505 41.4649C93.505 41.4649 99.3795 35.674 100.315 35.6077L100.319 35.6101Z" fill="#EE5800"/>
<path d="M103.279 31.7836C103.175 31.9605 103.03 32.1697 103.154 32.3966C103.278 32.6235 103.806 32.7254 103.952 32.5161C104.097 32.3067 104.196 31.9925 104.111 31.8049C104.027 31.6173 103.378 31.6043 103.275 31.7811L103.279 31.7836Z" fill="#FE7800"/>
<path d="M105.261 25.825C105.127 26.6399 105.319 27.1297 105.592 27.1322C105.864 27.1346 106.416 26.9637 106.494 26.3131C106.572 25.6626 106.602 24.7938 106.256 24.9068C105.91 25.0198 105.435 24.8078 105.261 25.825Z" fill="#FE7800"/>
<path d="M107.174 27.2963C107.07 26.6658 107.01 26.1053 107.369 25.8429C107.728 25.5805 109.103 25.3869 109.275 25.9212C109.448 26.4554 109.425 26.7567 109.422 27.2308C109.411 28.4576 107.274 27.9244 107.174 27.2963Z" fill="#FE7800"/>
<path d="M103.258 15.5506C103.248 15.6349 103.208 15.7131 103.156 15.7733C102.898 16.048 102.647 16.3209 102.364 16.5702C101.973 16.9049 101.539 17.1979 101.122 17.5005C100.543 17.9245 100.231 18.1743 100.096 18.2885C100.096 18.2885 100.082 18.3029 100.051 18.3251C99.9093 18.441 99.6159 18.6789 99.5197 18.619C99.4682 18.59 99.4832 18.4864 99.4876 18.4496C99.6806 17.1354 100.142 16.1237 100.142 16.1237C100.324 15.4421 100.585 14.5474 100.999 13.324C101.429 12.0646 100.98 13.4252 101.479 11.9979C101.778 11.1466 101.903 10.7185 102.18 10.6734C102.247 10.6664 102.398 10.6619 102.654 10.918C103.464 11.728 103.422 12.8528 103.347 14.4132C103.334 14.7084 103.311 15.0988 103.258 15.5506Z" fill="#AE85ED"/>
<path d="M98.8089 20.9636C98.8695 20.7625 98.9222 20.5849 99.0028 20.2718C99.1628 19.6672 99.129 19.6762 99.1857 19.5793C99.3657 19.2719 99.6887 19.2468 100.362 18.9653C100.725 18.8119 101.114 18.6556 101.52 18.3415C101.955 18.0094 102.107 17.6024 102.783 17.1209C102.959 16.996 103.002 16.981 103.039 16.9962C103.302 17.1222 102.877 18.989 101.826 20.4915C101.697 20.6713 100.185 22.8047 99.0351 22.4976C98.8585 22.4484 98.3579 22.2893 98.4507 22.0334C98.578 21.6794 98.6926 21.3182 98.7978 20.963L98.8089 20.9636Z" fill="#FE7800"/>
<path d="M96.7017 13.4492C96.7525 13.0408 96.8615 12.6988 97.0685 12.3842C97.2929 12.0401 97.566 11.8468 97.8145 11.6564C98.6024 11.042 99.7074 10.5783 100.724 10.4796C101.021 10.4508 101.242 10.7551 101.124 11.0247C101.017 11.2667 100.907 11.5129 100.812 11.7621C100.577 12.3688 100.363 12.9877 100.156 13.6048C99.7493 14.8155 99.1652 16.8168 98.8526 18.0524C98.8452 18.0651 98.8446 18.0759 98.8415 18.091C98.7466 18.4577 98.2345 18.4938 98.0844 18.1457C97.6817 17.1957 96.5124 14.9617 96.7017 13.4492Z" fill="#AE85ED"/>
<path d="M95.9446 19.7232C95.4922 17.1035 95.4058 14.1804 95.7116 14.1456C95.8031 14.1356 95.9622 14.5559 96.267 15.4002C96.6979 16.5846 96.6911 16.8498 97.0793 17.7467C97.4167 18.5254 97.5907 18.9205 97.91 19.1454C98.0141 19.221 98.2133 19.339 98.3275 19.5827C98.4196 19.7859 98.4081 19.9812 98.3588 20.2895C98.2615 20.8846 98.1241 21.3337 98.0332 21.5962C97.769 22.3885 97.6273 22.5719 97.43 22.6847C97.3611 22.7243 97.2419 22.7915 97.1271 22.7828C96.5655 22.7573 96.1672 21.0198 95.9489 19.7256L95.9446 19.7232Z" fill="#FE7800"/>
<path d="M94.1634 18.4267C93.5867 18.7681 93.0435 18.019 91.4529 18.035C89.8444 18.0521 89.266 18.8351 88.8248 18.5358C87.9809 17.9589 88.6698 14.1116 91.3017 11.8984C93.8008 9.79514 97.423 9.69264 97.6896 10.3193C97.9075 10.8344 95.6328 11.3946 94.7436 13.644C93.8625 15.87 95.0851 17.8765 94.1659 18.4225L94.1634 18.4267Z" fill="#FFBB00"/>
<path d="M108.317 22.7134C108.203 22.9572 107.722 23.9634 106.843 24.1287C105.774 24.3267 105.323 23.0585 103.303 22.5799C102.395 22.3649 101.949 22.494 101.792 22.1869C101.526 21.656 102.735 21.0155 103.615 19.4836C104.833 17.3639 104.657 14.8666 104.613 14.2591C104.526 12.9942 104.211 12.0601 104.521 11.9211C104.849 11.77 105.571 12.6534 105.778 12.9045C106.799 14.1531 107.151 15.3265 108.038 18.9589C108.568 21.1348 108.724 21.8618 108.317 22.7134Z" fill="#FFBB00"/>
<path d="M91.6679 42.4965C93.374 44.1257 96.5954 48.3243 98.2649 52.219C99.9547 56.1475 102.168 59.738 102.845 61.9353C103.202 63.1286 103.556 63.782 103.197 64.0053C102.84 64.2243 102.448 63.6558 101.532 62.8311C101.115 62.4613 100.688 62.0017 100.223 61.4703C98.7514 59.7718 96.964 57.3066 94.5512 54.5055C91.7755 51.2811 88.8824 46.8922 88.1183 44.6682C88.0763 44.5548 88.0538 44.4469 88.0418 44.3505C87.8778 43.1878 89.2493 42.9417 89.6219 42.7149C90.0203 42.4634 90.5755 41.4375 91.6729 42.4881L91.6679 42.4965Z" fill="black"/>
<path d="M90.1593 43.0741C90.2916 43.1991 90.4319 43.3399 90.5757 43.4939C92.1093 45.1155 94.5313 48.398 95.8574 51.4658C97.3042 54.8538 99.2251 57.9489 99.7954 59.8507C100.046 60.6702 100.29 61.1998 100.22 61.4744C98.7489 59.7758 96.9615 57.3107 94.5487 54.5095C91.773 51.2851 88.88 46.8963 88.1159 44.6723C88.0738 44.5589 88.0514 44.451 88.0393 44.3546C87.8754 43.1919 89.2468 42.9458 89.6194 42.719C89.7783 42.7694 89.9603 42.8777 90.1593 43.0741Z" fill="#131C47"/>
<path d="M90.5251 37.9071C91.2209 39 91.964 40.5678 91.9337 41.6041C91.9242 41.9517 91.827 42.2443 91.6748 42.4946C91.4238 42.9133 91.0136 43.2142 90.5801 43.4963C90.4651 43.5659 90.3452 43.644 90.2278 43.7178C89.4869 44.1739 88.9141 44.6352 88.0437 44.357C87.9609 44.3327 87.8849 44.3067 87.807 44.2739C87.6255 44.1939 87.4324 44.085 87.2277 43.9471C86.5561 43.4954 85.8046 42.7801 85.2306 42.0641C85.0568 41.8539 84.9052 41.6451 84.7731 41.4417C83.3901 39.2608 83.4782 36.7219 84.9708 35.7037C84.9923 35.6766 85.036 35.6508 85.0704 35.631C86.658 34.6552 89.1054 35.6718 90.5233 37.9004L90.5251 37.9071Z" fill="black"/>
<path d="M72.4977 31.6478C74.3352 30.8691 76.5038 30.2659 78.4739 30.9179C80.2444 31.8719 81.9527 32.9028 83.5721 34.0854C83.9795 34.4329 84.5992 34.7881 84.8031 35.2393C84.461 34.7998 83.967 34.4931 83.5167 34.1606C81.6729 33.0588 79.7785 31.3905 77.5435 31.3175C75.8707 31.2983 74.1571 31.6315 72.5044 31.646L72.4977 31.6478Z" fill="black"/>
<path d="M84.4641 23.5842C83.5729 25.418 82.9935 27.2651 83.3652 29.3013C83.8003 31.2781 84.0479 33.3508 84.824 35.223C84.2827 34.4414 84.139 33.2734 83.8468 32.3297L83.1497 29.3478C82.9232 28.3796 82.5122 27.3073 82.7599 26.2312C82.9841 25.2146 83.5592 24.0767 84.4616 23.5884L84.4641 23.5842Z" fill="black"/>
<path d="M88.2536 38.1889C89.0733 40.0353 88.7221 41.9607 87.4776 42.4969C86.788 42.797 85.9635 42.6063 85.2306 42.0641C85.0568 41.8539 84.9052 41.6451 84.7731 41.4417C83.3901 39.2608 83.4782 36.7219 84.9708 35.7037C86.148 35.5554 87.5333 36.5723 88.256 38.1847L88.2536 38.1889Z" fill="#131C47"/>
<path d="M85.8427 34.4194C86.1979 34.9728 86.026 35.7051 85.4603 36.0471C84.8965 36.3958 84.1505 36.2271 83.802 35.6719C83.4467 35.1185 83.7849 34.6481 84.3488 34.2995C84.9126 33.9508 85.4899 33.8618 85.8451 34.4152L85.8427 34.4194Z" fill="black"/>
</svg>
