<svg version="1.2" xmlns="http://www.w3.org/2000/svg" viewBox="0 0 50 67" width="50" height="67">
	<title>motyl_03_pół_prawa</title>
	<style>
		.s0 { fill: #000000 } 
		.s1 { fill: #008fd6 } 
		.s2 { fill: #c7f7ff } 
		.s3 { fill: #ff7c00 } 
		.s4 { fill: #ffce00 } 
	</style>
	<g>
		<path class="s0" d="m2.7 16.4c0.2-0.2 0.5-0.3 0.6-0.4 7.9-6.8 21-9.9 31.6-10.6 3.3-0.2 5.2-0.4 8.5-0.1 0.5 0 2.6 0.2 3.1 1.6 1.2 4.1-3.1 8.8-3.4 9.4-0.3 0.7 0 1.6-0.4 2.4-0.2 0.5-1 1-1.3 1.5-0.5 1.1-0.3 2.1-1.2 3.3-0.7 1.1-1.6 1.3-2.6 2.1-0.9 0.7-0.7 1.8-1.4 2.6-0.6 0.7-1.7 0.7-2.4 1.6-1 1.4-1.4 3.9-2.4 5.4-2.7 4.3-4.6 5.4-5.5 5.4-0.5 0-1 0-1 0 0 0.1 0.2 0.5 0.2 0.7 0.3 1.2 0.4 3.9 0.1 5.2-0.2 0.8-0.6 1.6-0.9 2.4-0.1 0.6-0.2 1.4-0.4 1.8-0.2 0.4-0.6 0.8-0.9 1.2-0.7 1-1.2 2.5-2.1 3.4-0.2 0.2-0.8 0.3-1.1 0.5-0.6 0.3-0.9 0.7-1.5 1.1-0.6 0.5-1.4 0.4-1.6 1.3-0.2 0.6 0 1.2 0.4 1.7 0.1 0.1 0.3 0.1 0.4 0.2 0.4 0.6 1.4 1.8 1.5 2.4 0 0.8-1 1.1-1.6 0.8-1-0.5 0.1-1-0.5-1.7-0.8-0.9-1.3-0.8-2.5-0.9-0.1 0-0.4-0.1-0.6-0.1-0.4 0.2-0.8 1.1-1.3 1-0.4-0.1-0.4-0.4-0.7-0.6-0.2-0.1-0.4-0.1-0.5-0.1-0.9-0.1-1.6 0.8-2.6 0.4-0.6-0.2-1.3-0.9-1.1-1.5 0-0.2 0.2-0.3 0.2-0.4 0.2-0.6-1-2.2-1.3-2.9-0.5-1-0.8-2.2-1.2-3.3-0.8-1.9-1.6-3.5-2.2-5.5-0.5-1.6-0.8-3.9-0.9-4.5-0.2-0.5-0.5-1.5-0.7-1.5l-0.1-16.6 1.3-8.7zm1.3 20.5q0.6 1.5 1.2 3c0.8 2 1.6 4.2 2.4 6.2 0.1 0.1 0.1 0.2 0.2 0.2 0.3 0.9 0.6 1.7 0.9 2.6 0.6 2 1.1 4 1.6 6 0.1 0.4 0.3 0.9 0.4 1.3l0.1 0.1c0.9-0.2 1.5-0.5 2-1.2 0.5-0.8 0.1-1.2-0.1-2-0.3-1.1-0.4-2.2-0.9-3.2-0.7-1.7-1-2.4-1.4-4.1-0.4-1.6-1.4-2.6-2.3-3.9 0-0.1-0.1-0.2-0.1-0.4-0.1 0-0.1 0-0.1-0.1-0.7-1.1-1.3-2.2-2-3.3-0.2-0.3-0.9-1.5-1.1-1.7-0.4-0.4-0.7 0.2-0.8 0.5zm6 21.2c0 0.1 0.2 0.4 0.2 0.4 0.4 0.4 1.2 0 0.9-0.5-0.1-0.1-0.3-0.3-0.4-0.3-0.1 0-0.7 0.3-0.7 0.4zm2.9-1.2c0.7 0.2 0.8-1.2 0.3-1.3-0.1 0-0.6 0.5-0.6 0.6-0.1 0.2 0.1 0.6 0.3 0.7zm7.2-11.9l1.3 1.1c0 0.1 0.1 0 0.2 0 0.3-0.3 0.3-1.5 0.3-2 0.1-0.3 0.4-1.1 0.3-1.3-0.1-0.2-0.6-0.4-0.8-0.5-1.2-0.6-2.6-1.1-3.8-1.7-0.8-0.4-1.5-0.8-2.3-1.2-0.2-0.1-0.8-0.3-1-0.2-0.1 0.1-0.1 0.2-0.1 0.3 0 2.8 3.7 4.2 5.9 5.5zm-4.2-1.3c0 0.1 0.8 1.7 0.8 1.9 0.2 0.5 0.2 0.9 0.6 1.3 0.4 0.5 1.1 0.8 1.4 1.2 0.5 0.5 1 1.4 1.2 2 0.1 0.2 0 0.5 0.4 0.5 0.2-0.3 0.6-0.4 0.8-0.6 0.4-0.5 1.3-2.1 0.8-2.7-0.2-0.3-1.4-1-1.7-1.3-0.8-0.5-1.8-0.8-2.6-1.3-0.2-0.1-1.4-1.1-1.5-1.1 0 0-0.1 0.1-0.2 0.1zm9.1-6.9c0.8 0.5 0.9 0.6 1.5-0.2 0.8-1.1 0.8-2.1 0.2-3.3-0.3-0.8-0.9-1-1.4-1.5-1-0.9-2-1.8-3-2.7-0.1-0.2-0.3-0.5-0.5-0.6-1.6-1.6-3.2-3.1-4.7-4.8-0.3-0.3-0.8-1-1-1.2-0.5-0.3-1.9-0.2-2.5-0.3-0.7 0-1.4-0.2-2.2-0.3-0.1 0-0.1-0.1-0.2 0-0.2-0.1-0.2 0-0.3 0-0.5-0.1-0.8-0.1-1.2-0.2-0.4 0-0.8-0.2-1.2-0.2-0.4-0.1-1.4-0.2-1.7 0.1-0.1 0.1-0.1 0.8-0.2 1.1-0.1 0.5-0.5 0.9-0.4 1.4 0 0.2 0.1 0.3 0.2 0.5 0.1 0.5 0 1.3 0.1 1.7 0.1 0.2 0.2 0.3 0.3 0.4 0.2 0 1.3-1.2 2.2-0.7 0.5 0.2 1.2 0.7 1.7 1 2.7 1.7 5.3 3.5 8 5.3 2.1 1.4 4.1 3.2 6.3 4.5zm-8.7-3.3c-0.1 0.8-0.5 1.2 0.6 1.6 0.1 0.1 0.2 0.1 0.3 0.1 0.5 0.1 0.9 0.1 1-0.4 0.1-0.7-0.1-1.2-0.7-1.5q-0.1-0.1-0.2-0.1c-0.1-0.1-0.8-0.4-0.9-0.2-0.1 0 0 0.4 0 0.5zm-2.1 2.5c-0.1 0-0.9 0.2-0.9 0.2-0.4 0.3-0.2 0.8 0.1 1.1 2.2 1.3 4.5 2.6 6.9 3.7 0.2 0 0.5 0.2 0.6 0 0.1-0.1 0.1-1.4 0.1-1.7 0-0.5 0-1.1 0-1.7-0.1-0.3-0.1-0.4-0.4-0.6-0.3-0.2-1.4-0.5-1.7-0.5-1.4-0.4-3.3-0.7-4.7-0.5zm-3.1-6.4c-0.1 0.3-0.6 0.3-0.1 0.6 0.2 0.1 1.1 0.6 1.2 0.7 0.1 0 0.6 0 0.8 0 0.5 0.1 1 0.3 1.5 0.4 0.1 0.1 0.9 0.4 0.9 0.2-0.3-0.3-0.5-0.5-0.9-0.6q-0.1-0.1-0.2-0.2c-0.1-0.1-0.1-0.1-0.1-0.1-0.5-0.3-0.8-0.5-1.3-0.8-0.3-0.2-1.2-0.6-1.5-0.6-0.4 0-0.2 0.2-0.3 0.4zm3.1 2.6c-1.4-0.5-3.7-1.6-5.2-1.5-0.5 0-1.6 0.7-2 1.1-0.3 0.3-0.5 1.1-0.1 1.5 0.2 0.2 1.8 0.9 2.3 1.1 1.4 0.6 2.7 1 4.3 0.6 1-0.2 1.9-1.2 1.9-2.2 0-0.6-0.7-0.5-1.2-0.6zm-9.5-1c0.1 0.1 0.1 0.2 0.2 0.2 0.2 0 0.3-0.7 0.3-0.9 0-0.2-0.3-2.2 0.1-2.2 0.2 0 0.1 0.5 0.1 0.6 0 0.4 0.3 1.7 0.4 2.1 0 0.2 0.2 0.5 0.5 0.3 0.6-0.6 0.9-1.8 1.8-1.9 0.6 0 1.3 0.1 2-0.1 0.7-0.1 0.9-0.3 0.3-0.9-1.6-0.4-3.3-1.2-4.9-1.4-0.2 0-0.8-0.1-0.9 0.2 0 0.6 0.1 1.2 0.1 1.8 0 0.5-0.1 1.8 0 2.2zm16.9 7.4c0 0.2 0.2 1.1 0.3 1.2 0.1 0.2 0.4 0.5 0.6 0.2 0.1-0.1 0.2-0.4 0.2-0.5 0.1-0.1 0.1-1 0.1-1.1 0-0.2-0.2-0.5-0.3-0.6 0-0.1-0.1-0.1-0.1-0.1-1-0.6-0.9 0.3-0.8 0.9zm1 2.7c-0.1-0.3-0.1-0.4-0.4-0.6-0.6-0.5-0.8 0.8-0.6 1 0.2 0.3 0.3 0.3 0.6 0.3 0.4 0.1 0.4-0.4 0.4-0.7zm-0.2 5.9c0.3 0 0.4-1 0-1.1-0.4 0.3-0.5 0.8 0 1.1zm-7.2-2.6c-0.1-0.4 0.2-0.7-0.1-1.2-0.4-1-1.1-1.6-1.8-2.3-0.6-0.7-0.2-2-0.6-2.9-0.7-1.3-1.9-1.3-3.1-2q0-0.1-0.1-0.1c0 0-0.1-0.1-0.2-0.1-0.3-0.3-0.9-0.6-1.3-0.9q-0.1 0-0.1-0.1c-0.1 0-0.2 0-0.2 0q0-0.1-0.1-0.1-0.1-0.1-0.2-0.2c-0.6-0.4-1.8-1.6-2.6-1.2-0.3 0.2-0.4 0.5-0.4 0.9 0.2 0.7 1.8 2.6 2.3 3.3h0.1c0 0.1 0.1 0.1 0.2 0.2 0 0-0.1 0.1 0 0.1q0 0.1 0.1 0.2c0.6 0.9 1.2 1.7 1.9 2.6 0.5 0.7 1 1.5 1.5 2.2 1 1.3 1.6 2 2.9 2.9 0.4 0.3 1.4 1.1 1.9 0.8 1.1-0.5 0.1-1.4-0.1-2.1zm-10.7-19.9c0.1 0.2 0.4 0.5 0.4 0.8 0.9 0.2 0.5-1.3 0.5-1.7 0-0.9 1.5-2.3-0.3-2.5-0.1 0-0.2 0-0.3 0q-0.2 0.1-0.2 0.2c0 0.4-0.2 0.9-0.2 1.2 0 0.2 0.1 1.8 0.1 2zm32.7-5.5c0.2-0.6 0.1-2.4-0.1-3-0.3-0.5-0.9-1.2-1.4-1.6-0.5-0.6-1.5-1.3-2.3-1.6-0.2 0-0.4-0.1-0.5 0 0 0.3-0.2 0.5-0.3 0.7-0.2 0.5-0.2 1.6-0.2 2.1 0.1 0.6 0.4 0.6 0.8 1 0.6 0.6 1.1 1.2 1.8 1.8q0 0 0 0c0.1 0.2 0.2 0.3 0.3 0.4q0.1 0 0.1 0.1 0.1 0.1 0.2 0.1c0.2 0.2 0.4 0.4 0.6 0.5 0.6 0.1 0.9-0.1 1-0.5zm0.4 1.7c0-0.2-0.2-0.4-0.5-0.2-0.4 0.4 0.5 0.7 0.5 0.2zm-3.8-2.6c-0.2-0.1-1.2-0.7-1.4-0.6-0.2 0.1-0.2 0.9-0.2 1.1-0.3 0.7-0.8 1.1-0.5 1.9 0.3 0.5 0.9 1.5 1.6 1.3 0.5-0.1 0.5-0.8 0.7-1.2 0.4-1 1.1-1.6-0.2-2.5zm-3-7.4c0.1 0.3 0.3 0.2 0.5 0.3 0.1 0.1 0.5 0.4 0.6 0.2 0.1-0.1 0.1-1.1 0.1-1.4 0-0.2 0-0.7-0.2-0.8-0.1-0.1-0.8-0.1-0.8-0.1-1 0.1-0.4 1.2-0.2 1.7 0 0 0 0 0 0.1zm0.7 0.7c-0.8-0.2-1.2 0.2-1.2 0.9 0.1 0.2 0.3 1.7 0.3 1.8 0.1 0.1 0.3 0.2 0.3 0.4 0.2 0.3 0.3 0.6 0.6 0.9 0.5-0.6 0.3-1.4 0.4-2.1 0.1-0.4 0.3-0.6 0.3-1-0.1-0.4-0.2-0.8-0.7-0.9zm0.3 15.6c-0.1-0.3-0.6-1-1-0.8-0.8 0.5-0.5 1.5 0.1 2.1 0.2 0.1 0.3 0.3 0.5 0.1 0.2-0.3 0.4-1.1 0.4-1.4zm-1.4-6c-0.6-1.4-2.4-2.8-3.9-3.3-1-0.3-1.6 0.1-2.4 0.7-0.1 0.1-0.1 0.2-0.2 0.3-0.4 0.3-0.8 0.5-1.2 0.9q0 0-0.1 0.1c-0.4 0.2-0.6 0.5-0.3 0.9 0.1 0.1 0.2 0.2 0.3 0.2 0.1 0.2 0.3 0.3 0.4 0.3q0.2 0.2 0.3 0.3c0.3 0.2 0.6 0.6 0.9 0.8q0.1 0 0.2 0.1c0.8 0.7 1.6 1.4 2.5 2.1 0.4 0.3 0.9 0.8 1.4 1.1 0.6 0.4 1.6-0.3 2-0.8 0.6-0.7 0.5-2.8 0.1-3.7zm-1.9-5.8c-0.2-0.1-1.6-0.7-1.9-0.8-0.2-0.1-0.9-0.3-1.1-0.2-0.2 0.1-0.2 0.3-0.2 0.4 0.1 0.3 0.3 1.1 0.4 1.2 0.3 0.3 0.8 0.6 1.1 0.8 0.3 0.1 1.2 0.6 1.4 0.7 0.4 0.1 0.4-0.4 0.4-0.7 0.1-0.3 0.1-1.2-0.1-1.4zm0.1 11.8c-0.9-1.4-1.8-1.7-3.1-2.6-0.2-0.1-0.3-0.2-0.5-0.4h-0.1q0-0.1-0.1-0.2-0.3-0.2-0.5-0.4c-1-0.9-2.1-2.4-3.5-2.5-1.2 0-1.6 0.3-2.6 0.7-0.3 0.1-0.7 0.2-1 0.4 0.8 0.9 1.6 1.9 2.4 2.8l0.1 0.1c0.5 0.5 1 1.1 1.4 1.6h0.1q0.3 0.4 0.7 0.7v0.1q0.1 0.1 0.2 0.3c0.5 0.5 0.9 0.9 1.4 1.4 0.8 0.8 2.5 2.5 3.6 2.8 0.6 0.2 0.9-0.4 1.1-0.8 0.4-0.7 0.7-1.8 0.8-2.6 0-0.7 0-0.8-0.4-1.4zm-9.5-6.8c1-0.2 1.8-0.1 2.6-0.8 0.8-0.6 1.3-1.3 2.2-1.9 0 0 0.1 0 0.1 0 0.7-0.5 0.7-0.5 0.1-0.9q-0.1-0.1-0.2-0.2 0 0-0.1-0.1 0 0 0 0 0 0 0-0.1 0 0 0 0 0 0 0 0-0.1-0.1-0.2-0.3-0.1-0.1-0.1-0.2-0.1-0.1-0.1-0.1 0-0.1-0.1-0.1 0-0.1-0.1-0.2-0.1-0.2-0.2-0.3 0-0.1-0.1-0.2 0 0 0 0-0.1-0.1-0.2-0.2c-0.2-0.4-0.5-0.7-0.6-0.9q-0.1-0.1-0.1-0.1 0-0.1-0.1-0.1c-0.6-0.5-2.3-1.5-3.2-1.6-1.4-0.1-4.2 1-5.5 1.5-3.2 1.4-6 3-8.2 5.5-0.4 0.5-0.7 1 0.2 1.3 1 0.2 2.5 0.2 3.6 0.3 0.7 0.1 1.4 0.3 2.1 0.3 0.1 0 0.2 0.1 0.3 0 0.3 0.1 3.4 0.4 4 0.4 1.4 0.1 2.6-0.7 3.9-1zm-6.8-8.4c-1 0.3-2.1 0.9-3 1.4-1.6 0.8-3.6 1.9-4.8 3.2-0.2 0.2-0.1 0.3 0.1 0.2 0.4-0.1 1-0.5 1.3-0.8 1-0.6 2-1.4 3.1-1.8 1.2-0.5 2.4-0.7 3.6-1.3 0.2-0.1 0.7-0.5 0.8-0.6 0-0.4-0.9-0.4-1.1-0.3zm3.8-1.9c-0.4 0.3-1.5 0.3-1.8 0.6-0.2 0.2-0.3 0.8-0.1 1 0.3 0.2 0.7 0 0.9 0 0.1 0 0.2 0 0.3 0 0.4 0 0.7 0 1-0.4 0.1 0 0.4-0.6 0.4-0.6 0-0.2-0.5-0.6-0.7-0.6zm3.7 0c-0.6-0.1-2.9 1.1-3.3 1.5-0.1 0.1-0.3 0.5-0.1 0.5 0.1 0.1 1.3-0.4 1.5-0.5 0.4-0.2 1.6-0.7 1.8-0.9 0.2-0.1 0.2-0.4 0.3-0.5 0-0.1-0.1-0.1-0.2-0.1zm0.1 1.2c-0.1 0.5 0.9 1.4 1.4 1.5 0.1 0 0.1 0 0.2 0 0.5-0.4 0.3-1.5 0.5-2 0-0.2-0.4-0.2-0.6-0.2-0.2 0.1-1.2 0.4-1.2 0.4-0.2 0.1-0.2 0.2-0.3 0.3zm3.6-2.7c-0.1-0.3-0.4-0.6-0.6-0.5-0.3 0.1-1.9 0.8-1.9 1 0 0.1 0.3 0.4 0.3 0.5 0.1 0.1 0.1 0.2 0.2 0.3 0.2 0.1 0.5-0.2 0.6-0.3 0.4-0.2 1.6-0.5 1.4-1zm1.5 0c-0.5 0.3-1.5 0.9-1.9 1.2-0.1 0.1-0.2 0.1-0.2 0.2 0.2 0.3 0.3 0.1 0.5 0.1 0.1 0 0.2 0 0.4 0 0.2 0 1.5-0.5 1.6-0.6 0.2-0.1 0.2-0.1 0.3-0.3 0.1 0 0.4-0.6 0.4-0.7-0.1-0.2-0.9 0.1-1.1 0.1zm1.5 2.2c-0.2-0.5-0.9-0.7-1.5-0.5-0.1 0-0.5 0.2-0.6 0.2-0.5 0.3-0.3 1.5 0.1 1.9 0.3 0.4 1.2 0.8 1.6 0.9 0.4 0 0.6 0 0.6-0.4 0.1-0.3-0.1-1.7-0.2-2.1zm2.8-3.6c-0.2-0.3-0.2-0.1-0.5-0.1-0.6-0.1-1.7 0-2 0.6 0.4 0.2 0.3 0.8 0.8 0.8 0.2 0 0.8-0.3 1-0.4 0.6-0.2 1.2-0.1 0.7-0.9zm0.2 1.4c-0.3-0.3-0.4-0.1-0.7-0.1-0.1 0.1-0.1 0-0.2 0-0.3 0-1 0.4-1.1 0.6-0.1 0.4 0.8 0.7 1.2 0.7 0.8-0.1 1.4-0.5 0.8-1.2zm3.1-1.6q-0.1-0.1-0.2 0h-0.1c-0.7-0.1-2.9-0.1-2.1 1 0.2 0.3 0.3 0.2 0.7 0.2 0.1 0 0.2 0.1 0.3 0.1 0.3 0 1.1-0.5 1.5-0.6 0 0 0 0 0.1 0q0.1 0 0.2 0c0.3 0 1.3-0.3 0.7-0.6-0.3-0.1-0.8-0.2-1.1-0.1zm2.3-0.5c0-0.1-0.1-0.1-0.1-0.1-0.3 0-1.1-0.1-1.2 0.2 0 0 0.1 0.2 0.1 0.2 0.2 0.2 1.3 0.2 1.2-0.3zm1.3 0.6c-0.1 0-0.9-0.1-1 0-0.2 0.1-0.1 0.3 0 0.4 0.1 0 0.9 0.2 1 0.2 0.6 0 0.4-0.4 0.1-0.6zm-0.3 0.9q0 0-0.1 0c-0.1-0.1-0.2-0.1-0.3-0.1-0.6 0-1.2-0.1-1.9 0-0.2 0.1-0.9 0.2-1.1 0.3-0.1 0.2 0.2 0.5 0.4 0.6 0.1 0 0.3-0.1 0.4-0.1 0.8 0.1 1.7 0.2 2.5 0.3 1.2 0.2 1.3-1.1 0.1-1zm0.2 2.1c-0.1 0-0.1-0.1-0.2 0q-0.1-0.1-0.2-0.1c-0.2-0.1-0.6-0.2-0.8-0.3-0.7-0.1-2-0.4-2.2 0.5 0 0.1 0 1.2 0 1.2 0.1 0.2 0.2 0.3 0.3 0.5l2.1 1.4q0.1 0 0.1 0.1 0.1 0 0.2 0.1 0 0.1 0.1 0.1 0 0.1 0.1 0.1 0.1 0.1 0.2 0.2 0.1 0.1 0.2 0.2c0 0.1 0.1 0.1 0.1 0.2 0.6 0.6 0.7 1.5 1.5 1.9 1.1 0.6 0.7-0.8 0.8-1.3 0.1-0.1 0.2-0.2 0.2-0.4 0.3-1.4-1.1-3.8-2.5-4.4zm3.9 5.8c0.2-0.3 0.4-0.4 0.3-1 0-0.2-0.7-1.4-1-1.4-0.2 0.1-0.5 1-0.5 1.2 0 0.3 0.7 1.8 1.1 1.7 0.2-0.1 0.1-0.4 0.1-0.4zm-1 0.4c-0.5-0.2-0.6 0.5-0.5 0.8 0.1 0.2 0.6 0.5 0.8 0.3 0.1 0 0.3-0.3 0.3-0.4 0-0.1-0.5-0.7-0.6-0.7zm-0.6-7.1c0.3 0 0.4-0.1 0.5-0.4 0.2-0.6-0.3-0.7-0.9-0.9-1.5-0.3-0.7 1.1 0.4 1.3zm0.8-2.5c-0.2-0.3-1.1-0.8-1.5-0.5-0.3 0.2 0 0.3 0 0.5 0.1 0.4-0.1 0.7 0.5 1 0 0 0.1-0.1 0.1-0.1 0.3 0.1 0.5 0.3 0.9 0.3 0-0.3 0.2-0.9 0-1.2zm0.6 3.2c-0.2-0.2-0.9-0.4-1.2-0.3-0.3 0.1-0.5 0.4-0.5 0.7 0.1 0.2 0.3 0.8 0.4 0.9 0.1 0.2 0.9 1.3 0.9 1.3 0.3 0.2 0.3-0.3 0.4-0.4 0.1-0.6 0.5-1.8 0-2.2zm4.5 0c0.3-0.5 0.6-1.6 0.3-2.2-0.1-0.1-0.5-0.6-0.6-0.7-0.6-0.5-1.5-0.7-2.2-0.8-0.4 0-1.3-0.1-1.6 0.2-0.2 0.2-0.4 1.1-0.2 1.3 0.3 0.4 0.9 0.7 1.2 1 0.7 0.6 1.1 1.5 2 1.8 0.7 0.3 0.8-0.1 1.1-0.6zm-2.3 4.5c0.2-0.1 0.4-0.1 0.5-0.2 0.3-0.3 0.6-1 0.6-1.3 0.1-0.8 0-0.6-0.4-1.1-0.2-0.3-1.3-1.9-1.6-1.7-0.3 0.2 0.1 1.2 0.2 1.4 0.1 0.6 0 0.8-0.1 1.4-0.1 0.6-0.1 1 0.3 1.5 0.3 0.4 0.3 0.1 0.5 0zm-0.9 3.3c0.1 0 0.4-1.1 0.4-1.2-0.2-0.5-0.8-0.6-1.1 0-0.2 0.5 0.3 0.8 0.7 1.2zm-0.9 1.4c0.3 0.1 0.4-0.4 0.3-0.6 0-0.4-0.6-1.2-0.7-0.6-0.1 0.3 0 1.1 0.4 1.2zm-0.9 2.5c0.3-0.2 0.8-0.9 0.5-1.2-0.4-0.5-1 0.5-1 0.6 0.1 0 0.5 0.5 0.5 0.6zm-1.2 0.9c0.2 0.2 0.5-0.2 0.5-0.4 0-0.8-0.7-0.7-0.8-0.3 0 0.1 0.2 0.6 0.3 0.7zm-0.4-2.6c0.2 0.2 0.5 0.7 0.7 0.4 0.2-0.2 0.6-1.1 0.6-1.4 0-0.6-0.6-1.5-1.1-0.7-0.2 0.3-0.4 1.3-0.2 1.7zm-0.8 4.3c0.4 0.1 1.1-0.9 0.3-1.1-0.5-0.2-0.8 1-0.3 1.1zm-0.2-2.6c-0.2-0.4-0.5-0.7-0.9-0.3-0.3 0.4-0.3 0.9-0.2 1.4 0 0 0 0.1 0 0.1 0.1 0.2 0.4 0.4 0.6 0.2 0.3-0.5 0.8-0.9 0.5-1.4zm-1 3.9c0.2-0.3 0.7-0.9 0.4-1.2-0.3-0.3-0.4-0.3-0.7 0-0.3 0.4-0.1 1 0.3 1.2zm-0.6-2.5c-0.1 0-0.4-0.3-0.5-0.3-0.2 0-0.7 0.5-0.7 0.7 0.1 0.1 0.6 0.6 0.7 0.7 0.4 0 0.8-0.7 0.5-1.1zm-0.4 4.2c0.5-0.6-0.1-1.1-0.8-0.7-0.8 0.5 0.1 1.4 0.8 0.7zm-0.8-1.5c0.2-0.2 0.2-0.8 0.1-1-0.1-0.1-0.6-0.7-0.7-0.8-0.3-0.1-0.7-0.1-0.9 0.1-0.1 0.2-0.4 0.8-0.3 1 0 0.1 0.6 1.4 0.7 1.5 0 0 0.1 0.1 0.2 0 0.2-0.2 0.8-0.6 0.9-0.8zm-1.9 3.6c0.5 0.9 1.1-0.9 0.9-1.3-0.1-0.1-0.3-0.3-0.4-0.3-0.5 0.2-0.7 1.2-0.5 1.6zm-1.3 2.4c0.1 0.1 0.3 0.1 0.5-0.1 0 0 0.5-1 0.5-1.1 0-0.1-0.2-0.2-0.3-0.2-0.4-0.1-1.2 1-0.7 1.4zm-1 2.5c0.1 0 0.4-0.6 0.4-0.8 0.2-1-0.7-1.1-0.7 0.2 0 0.1 0 0.7 0.3 0.6zm0.9-4.1c0.1-0.3 0.2-0.5 0-0.8-0.1-0.2-0.5-0.7-0.6-0.8-0.3-0.1-0.6 0.4-0.7 0.6 0 0.2 0.1 0.4 0.1 0.5 0 0.1-0.1 0.2-0.1 0.3 0 1.3 0.7 1.8 1.3 0.2zm-1.5 2.4c0-0.3-0.2-0.8-0.6-0.6-0.4 0.2-0.7 0.8-0.5 1.2 0.6 1.2 1.3 0.3 1.1-0.6zm-0.5 3.9c0.3-0.3 0.4-1.1 0.1-1.5-0.1-0.1-0.3-0.1-0.4-0.3-0.1-0.1-0.2-0.5-0.4-0.7q-0.4 0.3-0.5 0.7c0.2 0.6 0.3 1.8 1.2 1.8zm-1.1 1.9c0.2-0.2-0.2-1-0.4-1.2q0-0.1-0.1 0c-0.2 0.1-0.6 0.6-0.6 0.8 0 0.5 0.7 1 1.1 0.4zm-8-2.3c0.7 0.2 1.3 0.9 2 0.4-0.6-0.6-0.8-1.3-1.6-1.8-0.6-0.5-0.3 0.4-0.3 0.6 0 0.2-0.2 0.5-0.1 0.8zm4.3 5.4c0 0 0-0.9 0-1 0-0.1-0.3-0.8-0.4-0.9 0 0-0.1 0-0.1 0-0.1 0-0.4 0.6-0.4 0.7-0.2 0.6 0.6 1.8 0.9 1.2zm-0.2 2.3c0.2 0.2 0.3 0.2 0.4 0 0-0.1 0-1 0-1.1 0-0.4-0.1-0.4-0.4-0.6-0.2-0.1-0.2-0.2-0.4-0.1-0.5 0.5 0 1.5 0.4 1.8zm0.5 1.3l-0.1-0.2c-0.7 0.5-1.1 1.2-0.5 1.9 0.3-0.6 0.6-1.1 0.6-1.7zm-1.2 3.1c0 0.1 0.2 0.4 0.2 0.4 0.2 0 0.1-0.4 0.1-0.5 0.1-0.4 0.4-0.9-0.1-1.3-0.2 0-0.3 1.2-0.2 1.4zm0-3c0.2-0.4 0.3-1.1-0.1-1.4-0.5-0.4-0.6 0.1-0.6 0.5-0.1 0.4-0.1 1.3 0.5 1 0.2 0 0.1-0.1 0.2-0.1zm-0.2 3.6c0-0.1-0.1-0.6-0.3-0.4-0.2 0.5-1 0.9-0.5 1.4 0.2-0.2 0.5-0.4 0.7-0.6 0 0 0.1-0.3 0.1-0.4zm-0.9 2.5c0.2-0.2 0.8-1.1 0.6-1.3-0.1 0-0.7 0.5-0.8 0.7-0.1 0.1 0 0.4 0.2 0.6zm-1.1 1.8c0.1 0 0.7-1.1 0.7-1.2 0-0.2-0.1-0.2-0.2-0.3-0.2 0.1-0.3 0.2-0.4 0.4 0 0 0.1 0.1 0 0.1-0.1 0.3-0.6 0.8-0.1 1zm0.4-2.1c-0.1-0.4-0.7-0.3-0.7-0.2 0 0 0.1 0 0.1 0.1-0.1 0.1-0.3 0.1-0.3 0.4-0.2 0.8 0.9 0.2 0.9-0.3zm-1.7 3.7c0.1 0 0.6-0.4 0.7-0.5 0.5-0.5-0.6-0.3-0.8-0.1-0.4 0.2-0.2 0.7 0.1 0.6zm-0.5-1c0.4 0.1 1.5-0.7 1.2-1.1-0.2-0.3-0.6-0.1-0.9 0.1-0.2 0.1-0.7 0.8-0.3 1zm-1.7 2.4c0.1 0.6 0.8-0.4 0.9-0.6 0.1-0.2 0-0.5-0.3-0.4-0.3 0.2-0.7 0.7-0.6 1zm0.3-1.2c0.2 0.1 0.8-0.7 0.7-0.9-0.1-0.1-0.2-0.3-0.3-0.3-0.1 0-0.8 0.4-0.8 0.6 0 0.1 0.2 0.6 0.4 0.6zm-0.5-1c0.2-0.1 0.2-0.3 0.3-0.4 0.4-0.3 1.1-0.6 1.5-1 0.7-0.5 1-0.9 0.6-1.7-0.3-0.7-1.5-1.8-2.1-2.3-0.4-0.3-1.2-0.8-1.6-0.4-0.4 0.2-0.4 0.3-0.2 0.6q0 0 0.1 0c-0.1 0.1-0.1 0.3 0 0.4 0.1 0.4 0.3 0.8 0.4 1.3 0.2 0.8 0.4 2.5 0.7 3.2q0.1 0.2 0.3 0.3zm-1.1 2.4c0.2 0.1 0.5-0.1 0.6-0.2 0.1-0.1 0.2-0.1 0.3-0.2 0.1-0.3-0.2-0.7-0.5-0.7-0.5 0.1-1.2 0.9-0.4 1.1zm0.2-2.5c0-0.7-0.4-1.3-0.6-1.9-0.3-1.1-0.5-2.2-1-3.3-0.3-0.6-0.5-0.6-1-1-0.5-0.4-0.9-0.9-1.4-1.2-0.3-0.3-1-0.6-0.6 0.1 0 0 0 0.1 0 0.1 0.1 0.7 0.6 1.2 0.8 1.7 0.3 0.5 0.5 1.4 0.7 2 0.1 0.4 0.1 0.8 0.3 1.3q-0.1 0-0.1 0.1c0 0.3 0.2 0.9 0.2 1.2 0 0.6 0 1.4 0.1 1.9 0.1 0.9 0.8 0.4 1.5 0.6 0.6-0.1 1.1-1.1 1.1-1.6zm-2.2 3.6c0.1-0.2 0.3-0.2 0.4-0.3 0 0 0.1 0 0.2 0 0.3-0.3 0.3-0.7 0.1-1.1 0 0-0.2 0.1-0.3 0.2-0.8 0.3-0.7 0.5-0.4 1.2zm0.9-0.1c-0.3 0.2-0.5 0.7-0.1 0.9 0.7 0.4 1-1.5 0.1-0.9zm-3 2c0.1 0.5 0.6 0.1 0.8 0 0.6-0.2 1 0 1.5 0.2 0.3 0.1 0.8 0.4 1.1 0.4 0 0 0.1 0 0.1-0.1 0.2-0.3-0.6-0.7-0.8-0.9-0.1 0-0.1 0-0.2 0q0 0-0.1-0.1c-0.1 0-0.1-0.1-0.2-0.1-0.2-0.1-1.2-0.2-1.5-0.2-0.4 0.1-0.7 0.5-0.7 0.8zm-0.1-1.7c0.1 0.1 0.2 0 0.2-0.1 0.1-0.2 0.2-0.7 0-0.8-0.2-0.2-1.1 0.4-0.9 0.9 0.3 0.4 0.5 0.2 0.7 0zm-0.6 1.9c-0.3-0.4-0.7-0.1-1 0-0.4 0-1.2-0.3-1.3 0.2 0.7 0.4 1.7 0.2 2.3-0.2zm-2.2-1.3c0.1 0 0.5-0.1 0.6-0.2 0.7-0.5-1-1-1.2-0.5-0.1 0.3 0.3 0.7 0.6 0.7zm-1-2.1c0.3 0.8 1.8 1.2 1.8 0 0-0.7-0.5-1.4-0.7-2.1-1.1-2.9-2.1-6-3.1-9q0-0.1-0.1-0.1 0-0.2-0.1-0.3c-0.3-1-0.4-2-0.7-2.9-0.1-0.2-0.2-0.4-0.3-0.7-0.2-0.9-0.4-1.5-0.7-2.4 0-0.1 0.1-0.3-0.1-0.4-0.3 0.1-0.1 0.4-0.1 0.4-0.2 1.2-0.1 2.2 0 3.3 0.2 1.7 0.9 3.7 1.4 5.4 0.1 0.4 0.2 1.4 0.5 1.8q0 0.2 0 0.3c0.3 1.1 0.8 2 1.1 3 0.4 1.2 0.6 2.6 1.1 3.7zm-5.4-13.4q0 0.1 0 0.2v0.1q0 0 0 0 0 0 0 0l0.1 0.1c-0.1 0.1 0 0.2 0 0.3 0.4 1.5 0.7 3 1.3 4.5 0.8 2.3 1.7 4.6 2.6 6.8 0.2 0.4 0.6 1.3 0.9 1.5 0.1 0.1 0-0.2 0-0.2 0-0.5-0.1-0.5-0.2-0.8-0.9-3-2.2-5.8-3-8.8-0.4-1.5-0.9-3.3-1.1-4.8-0.1-0.6 0.1-1.5 0.2-2.1 0-0.1 0.2-0.7-0.1-0.4-0.2 0.2-0.4 1-0.5 1.3-0.2 0.5-0.7 1.2-0.3 1.6-0.1 0.5 0 0.4 0.1 0.8z"/>
		<path class="s1" d="m15.4 46.7c-0.5 0.3-1.5-0.5-1.9-0.7-1.3-1-1.9-1.7-2.9-3-0.5-0.7-1-1.4-1.5-2.2l0.4 0.1 0.2-4.7c1.2 0.8 2.4 0.8 3.1 2.1 0.4 0.8 0 2.1 0.6 2.8 0.7 0.8 1.4 1.4 1.8 2.3 0.3 0.5 0 0.8 0.1 1.2 0.2 0.7 1.2 1.6 0.1 2.1z"/>
		<path class="s1" d="m7.7 46.3c0.2 0 0.2 0.1 0.3 0 0-0.2 0.1-0.7 0.1-0.9 0-0.9-0.1-1.7 0.1-2.6 0-0.1-0.1-0.5-0.1-0.6 0-0.1-0.2-0.2 0-0.3 0.9 1.3 1.9 2.4 2.3 3.9 0.4 1.8 0.6 2.5 1.4 4.1 0.5 1.1 0.6 2.1 0.9 3.2 0.2 0.8 0.6 1.2 0.1 2-0.5 0.8-1.1 1-2 1.3l-0.1-0.1c-0.1-0.5-0.3-0.9-0.4-1.4-0.6-2-1-4-1.6-6q-0.4-1.3-1-2.6z"/>
		<path class="s1" d="m13.6 35c-1.6 0.4-2.9 0-4.3-0.6-0.5-0.2-2.1-0.9-2.3-1.1-0.4-0.4-0.2-1.2 0.1-1.5 0.4-0.4 1.4-1.1 2-1.1 1.5-0.1 3.8 1.1 5.2 1.5 0.5 0.1 1.2 0 1.2 0.6 0 1-0.9 2-1.9 2.2z"/>
		<path class="s1" d="m21.1 37.6c0 0.6 0 1.2 0 1.8 0 0.2 0 1.5-0.1 1.6-0.1 0.2-0.4 0-0.6 0-2.4-1.1-4.7-2.4-6.9-3.7-0.3-0.2-0.5-0.8-0.1-1 0-0.1 0.7-0.2 0.9-0.3 1.3-0.2 3.3 0.1 4.6 0.5 0.4 0.1 1.5 0.3 1.8 0.5 0.3 0.2 0.3 0.3 0.4 0.6z"/>
		<path class="s1" d="m21.6 46.1c-0.1 0-0.1 0.1-0.2 0l-1.3-1.1c-2.2-1.3-5.9-2.7-5.9-5.5 0-0.1 0-0.2 0.1-0.2 0.2-0.2 0.8 0.1 1 0.2 0.8 0.3 1.5 0.7 2.3 1.1 1.2 0.6 2.6 1.1 3.8 1.7 0.2 0.1 0.7 0.3 0.8 0.5 0.1 0.2-0.2 1-0.3 1.3 0 0.5 0 1.7-0.3 2z"/>
		<path class="s1" d="m16.1 43.6c0.1 0 1.3 1 1.5 1.2 0.8 0.4 1.8 0.8 2.6 1.3 0.3 0.2 1.5 0.9 1.7 1.2 0.5 0.6-0.4 2.2-0.8 2.7-0.2 0.2-0.6 0.4-0.8 0.6-0.4 0.1-0.3-0.3-0.4-0.4-0.2-0.6-0.7-1.6-1.1-2.1-0.4-0.4-1.1-0.7-1.5-1.2-0.4-0.4-0.4-0.8-0.5-1.3-0.1-0.2-0.9-1.7-0.8-1.8 0-0.1 0.1-0.2 0.1-0.2z"/>
		<path class="s1" d="m6 49.4q-0.1-0.2 0-0.3c0 0 0 0 0.1 0 0 0.1 0.2 0.4 0.2 0.1 0-0.1-0.1-0.3-0.1-0.4-0.1-1 0.1-2.1 0-3.1-0.1-0.2-0.3-0.5-0.1-0.7 1 3 2.1 6.1 3.1 9 0.2 0.7 0.8 1.4 0.7 2.1 0 1.2-1.4 0.8-1.8 0-0.5-1.1-0.7-2.5-1.1-3.7-0.3-1-0.8-1.9-1.1-3z"/>
		<path class="s1" d="m13.7 51.4c0 0 0-0.4 0-0.5 0.1-0.6 0.1-2.5-0.1-3.1 0-0.1-0.1-0.1 0.1-0.2 0.5 0.4 0.7 0.4 1 1 0.5 1.1 0.7 2.2 1 3.3 0.2 0.6 0.6 1.2 0.6 1.9 0 0.5-0.5 1.5-1.1 1.6-0.7-0.2-1.4 0.3-1.5-0.6-0.1-0.5-0.1-1.3-0.1-1.9 0-0.3-0.2-0.9-0.2-1.2q0-0.1 0.1-0.1c0-0.1 0.1 0 0.2-0.2z"/>
		<path class="s1" d="m10.2 29.4c-0.7 0.2-1.4 0-2 0-0.9 0.1-1.2 1.4-1.8 1.9-0.3 0.3-0.5-0.1-0.5-0.3-0.1-0.3-0.4-1.7-0.4-2-0.1-0.2 0.1-0.7-0.1-0.7-0.4 0-0.1 2-0.1 2.2 0 0.2-0.1 0.9-0.3 1-0.1 0-0.2-0.2-0.2-0.3-0.1-0.4 0-1.7 0-2.2 0-0.6-0.1-1.2-0.1-1.8 0.1-0.2 0.7-0.2 0.9-0.2 1.6 0.2 3.3 1.1 4.9 1.5 0.6 0.5 0.4 0.7-0.3 0.9z"/>
		<path class="s1" d="m32.5 17.7c0.2 0 1.2 0.5 1.4 0.6 1.3 1 0.6 1.5 0.2 2.6-0.2 0.3-0.2 1-0.7 1.1-0.7 0.2-1.3-0.8-1.5-1.3-0.4-0.8 0.2-1.2 0.4-1.8 0-0.3 0-1.1 0.2-1.2z"/>
		<path class="s1" d="m17.4 49.6l0.1-1.1c0.6 0.5 1.8 1.6 2.1 2.3 0.5 0.8 0.1 1.2-0.6 1.7-0.4 0.4-1.1 0.7-1.5 1-0.3-0.3 0.1-0.7 0-0.9 0-0.2-0.2-0.6-0.2-0.8-0.1-0.4 0.3-1.6 0.1-2.2z"/>
		<path class="s1" d="m25.6 14.4c0.2-0.1 0.9 0.1 1.1 0.2 0.3 0.1 1.8 0.7 1.9 0.8 0.2 0.2 0.2 1.1 0.2 1.4 0 0.3 0 0.8-0.4 0.7-0.2-0.1-1.2-0.6-1.5-0.7-0.3-0.2-0.8-0.5-1.1-0.8-0.1-0.1-0.3-0.9-0.3-1.2-0.1-0.1-0.1-0.3 0.1-0.4z"/>
		<path class="s1" d="m24.5 10.5c0.1 0 0.6-0.2 0.7-0.2 0.5-0.2 1.3 0 1.4 0.5 0.1 0.4 0.3 1.8 0.3 2.1-0.1 0.4-0.3 0.4-0.6 0.4-0.5-0.1-1.4-0.5-1.7-0.9-0.4-0.4-0.6-1.6-0.1-1.9z"/>
		<path class="s1" d="m4.4 47.1c0-0.2 0-0.5 0-0.7 0.8 3 2.1 5.8 3 8.8 0.1 0.3 0.2 0.3 0.2 0.8 0 0 0.2 0.3 0 0.2-0.3-0.2-0.7-1.1-0.8-1.5-1-2.2-1.9-4.5-2.7-6.8 0.4-0.1 0.3-0.6 0.3-0.8z"/>
		<path class="s1" d="m31.6 11.6c0.5 0.2 0.6 0.5 0.7 0.9 0 0.4-0.2 0.7-0.2 1-0.1 0.7 0.1 1.6-0.5 2.1-0.3-0.2-0.4-0.6-0.6-0.9 0-0.2-0.2-0.2-0.2-0.4-0.1-0.1-0.3-1.5-0.3-1.8-0.1-0.7 0.3-1.1 1.1-0.9z"/>
		<path class="s1" d="m21.6 12.8c0 0-0.1 0-0.2 0-0.4-0.1-1.5-1-1.4-1.5 0.1-0.1 0.2-0.2 0.3-0.3 0.1 0 1.1-0.3 1.2-0.4 0.2 0 0.7 0 0.6 0.2-0.1 0.5 0 1.6-0.5 2z"/>
		<path class="s1" d="m31.4 11.2c-0.2-0.1-0.3 0.1-0.5-0.3 0-0.1 0-0.1 0-0.1-0.2-0.5-0.8-1.6 0.2-1.7 0 0 0.8 0.1 0.8 0.1 0.2 0.1 0.2 0.6 0.2 0.8 0.1 0.3 0 1.3-0.1 1.5-0.1 0.1-0.4-0.2-0.6-0.3z"/>
		<path class="s1" d="m6 44.9q-0.2-0.1 0-0.3 0 0.1 0.1 0.3z"/>
		<path class="s1" d="m9.4 36c0.1 0 0.2 0.1 0.2 0.1-0.2 0.2-0.2-0.1-0.2-0.1z"/>
		<path class="s1" d="m7.9 41.5q-0.2 0.1 0-0.1 0 0.1 0 0.1z"/>
		<path class="s2" d="m41.4 8.8c-0.3-0.3-0.9-0.6-1.2-1-0.1-0.2 0-1.1 0.3-1.3 0.3-0.3 1.1-0.2 1.5-0.2 0.8 0 1.6 0.3 2.2 0.8 0.2 0.1 0.6 0.6 0.7 0.7 0.2 0.5-0.1 1.7-0.4 2.2-0.2 0.5-0.3 0.9-1 0.6-0.9-0.3-1.3-1.2-2.1-1.8z"/>
		<path class="s2" d="m4 36.9c0.1-0.3 0.3-0.9 0.8-0.5 0.2 0.2 0.9 1.4 1.1 1.7 0.7 1.1 1.3 2.2 2 3.3q-0.2 0.1 0 0.1 0.2 0.2 0.2 0.4c-0.2 0.1 0 0.1 0 0.2 0 0.2 0.1 0.6 0.1 0.7-0.2 0.9-0.1 1.7-0.1 2.6 0 0.2-0.1 0.7-0.1 0.8-0.1 0.2-0.1 0.1-0.2 0.1-0.1 0-0.2-0.1-0.2-0.2-0.8-2-1.6-4.2-2.4-6.2q-0.6-1.5-1.2-3zm2.1 5q0.1 0.2 0.3 0.3c0.1 0 0-0.6 0-0.7 0.1-0.4 0.2-0.5 0.2-0.9 0.1-0.1 0.2-0.4 0.2-0.5-0.1-0.6-0.9-1.6-1.2-2.1-0.2-0.3-0.8-1.6-1.1-1.6-0.2 0.1-0.3 0.5-0.3 0.8 0.3 0.7 0.7 1.5 1.1 2.3 0.2 0.6 0.5 1.9 0.8 2.4z"/>
		<path class="s2" d="m8.1 35.2c0.4 0.2 1 0.5 1.3 0.8 0 0 0 0.3 0.2 0.1q0.1 0.1 0.1 0.1l-0.2 4.7-0.4-0.1c-0.7-0.8-1.3-1.7-1.9-2.6l0.3 0.2c0.1 0 0.2-0.4 0.2-0.5 0.2-0.4 0.5-1.8 0.4-2.2 0-0.2-0.3-0.4 0-0.5z"/>
		<path class="s2" d="m12.7 12.9c-1.1 0.6-2.4 0.8-3.6 1.3-1.1 0.5-2.1 1.2-3 1.8-0.4 0.3-1 0.7-1.3 0.8-0.3 0.1-0.3 0-0.2-0.2 1.2-1.3 3.2-2.4 4.9-3.2 0.8-0.5 1.9-1.1 2.9-1.4 0.3-0.1 1.2-0.1 1.1 0.3 0 0.2-0.6 0.5-0.8 0.6z"/>
		<path class="s2" d="m41.4 13c0.1-0.6 0.2-0.8 0.1-1.4-0.1-0.3-0.5-1.2-0.2-1.4 0.4-0.2 1.4 1.4 1.6 1.7 0.4 0.5 0.5 0.3 0.5 1.1-0.1 0.3-0.4 1-0.7 1.3-0.1 0.1-0.3 0.1-0.4 0.2-0.3 0.1-0.3 0.4-0.6 0-0.3-0.5-0.4-1-0.3-1.5z"/>
		<path class="s2" d="m4.2 42.3c0.2 0.6 0.4 1.2 0.5 1.8l0.2 0.6c0.5-0.3 0.2-0.4 0.1-0.6 0-0.1 0.2-0.6 0.2-0.8 0-0.3 0-0.8 0-1 0-0.2-0.1-0.5 0-0.6 0.3 0.9 0.5 1.9 0.8 2.9q-0.2 0.2 0 0.3h0.1q0 0 0 0.1c-0.2 0.2 0 0.5 0.1 0.7 0.1 1-0.1 2.1 0 3.1 0 0.1 0.1 0.3 0.1 0.4 0 0.3-0.2 0-0.2-0.1-0.1 0-0.1 0-0.1 0-0.3-0.4-0.5-1.4-0.6-1.8-0.5-1.7-1.2-3.7-1.4-5.4 0.3 0.2 0.2 0.3 0.2 0.4z"/>
		<path class="s2" d="m15.9 48.1c0.5-0.4 1.2 0.1 1.6 0.4l-0.1 1.1c0.2 0.6-0.2 1.8-0.1 2.2 0 0.2 0.2 0.6 0.3 0.8 0 0.2-0.4 0.6-0.1 0.9 0 0.1-0.1 0.3-0.3 0.4-0.1-0.1-0.2-0.2-0.2-0.3-0.4-0.7-0.6-2.4-0.8-3.2 0-0.5-0.3-0.9-0.4-1.3 0-0.1-0.1-0.3 0-0.4 0.2 0.3 0.3 0.8 0.5 1.1 0.1 0.1 0.1 0.2 0.2 0.1 0-0.3 0.2-2.2-0.6-1.7-0.3 0.2-0.1 0.3-0.2 0.4-0.2-0.2-0.1-0.3 0.2-0.5z"/>
		<path class="s2" d="m2.9 40.4c0.2-0.3 0.3-1.1 0.5-1.3 0.3-0.3 0.1 0.3 0.1 0.3 0 0.7-0.3 1.6-0.2 2.2 0.2 1.5 0.7 3.3 1.1 4.7 0 0.2 0 0.5 0 0.8 0 0.2 0.2 0.7-0.3 0.8-0.5-1.5-0.8-3-1.3-4.5 0-0.1-0.1-0.2 0-0.3q0.2 0.4 0.5 0.7c0 0 0.1-0.1 0.1-0.1 0-0.1 0-0.7-0.1-0.8 0-0.7-0.1-1.2-0.1-1.9 0-0.1-0.3-0.2 0-0.3-0.1-0.1-0.1-0.1-0.2 0 0 0-0.4 0.9-0.4 1 0 0.1 0 0.1 0 0.3-0.4-0.4 0.2-1.1 0.3-1.6z"/>
		<path class="s2" d="m11.7 46.5c-0.3-0.7 0.3-0.4 0.6-0.1 0.5 0.3 0.9 0.8 1.4 1.2-0.2 0.1-0.1 0.1-0.1 0.2 0.2 0.6 0.2 2.5 0.1 3.1 0 0.1 0 0.5 0 0.5-0.1 0.2-0.2 0.1-0.2 0.2-0.2-0.5-0.2-0.9-0.3-1.3-0.2-0.6-0.4-1.5-0.7-2-0.2-0.5-0.7-1.1-0.8-1.7 0 0 0.1 0 0.2 0.1 0.1 0.1 0.3 1.1 0.6 1.1 0.5 0-0.3-2.1-0.8-1.3z"/>
		<path class="s2" d="m40 12.2c0 0.1-0.1 0.6-0.3 0.4-0.1 0-0.9-1.1-1-1.3-0.1-0.1-0.3-0.7-0.3-0.9-0.1-0.3 0.1-0.6 0.4-0.7 0.3-0.2 1 0.1 1.2 0.3 0.5 0.4 0.1 1.6 0 2.2z"/>
		<path class="s2" d="m11.2 29.6c0.1-0.2-0.1-0.4 0.3-0.4 0.3 0.1 1.2 0.5 1.5 0.6 0.5 0.3 0.8 0.5 1.3 0.9 0 0.1 0 0.2 0.1 0q0.1 0.1 0.2 0.2c0 0 0 0.1 0.1 0.1 0 0.1 0.2 0.1 0.2 0.1 0 0.1-0.3 0.1-0.3 0.3-0.5-0.2-1-0.4-1.5-0.5-0.2 0-0.7 0-0.8 0-0.1 0-1-0.6-1.2-0.6-0.5-0.4-0.1-0.4 0.1-0.7z"/>
		<path class="s2" d="m33 26.5c-0.1-0.1-0.7-1.3-0.7-1.4-0.1-0.2 0.2-0.8 0.4-1 0.2-0.2 0.6-0.2 0.8-0.1 0.1 0.1 0.6 0.7 0.7 0.8 0.1 0.2 0.1 0.8 0 0.9-0.2 0.3-0.7 0.7-1 0.9 0 0.1-0.2 0-0.2-0.1z"/>
		<path class="s2" d="m15.5 11.7c-0.1 0-0.2 0-0.2 0-0.3 0-0.7 0.2-0.9 0-0.3-0.2-0.2-0.8 0.1-1 0.3-0.3 1.3-0.3 1.7-0.6 0.2 0 0.7 0.4 0.7 0.6 0 0-0.3 0.6-0.3 0.6-0.3 0.4-0.6 0.4-1.1 0.4z"/>
		<path class="s2" d="m40.1 16.4c-0.3 0.1-1-1.4-1.1-1.7 0-0.2 0.3-1.1 0.6-1.2 0.2 0 0.9 1.2 1 1.4 0.1 0.6-0.2 0.7-0.3 1-0.1 0.1 0 0.4-0.2 0.5z"/>
		<path class="s2" d="m28.8 8.1c-0.3 0.1-0.9 0.4-1.1 0.4-0.5 0-0.4-0.6-0.8-0.8 0.4-0.7 1.4-0.7 2.1-0.6 0.2 0 0.2-0.2 0.4 0.1 0.5 0.8 0 0.7-0.6 0.9z"/>
		<path class="s2" d="m29.6 29.2c0-0.2 0.3-0.7 0.6-0.6 0.1 0.1 0.6 0.6 0.6 0.8 0.2 0.3 0.1 0.5 0 0.8-0.6 1.6-1.2 1.1-1.3-0.2 0-0.1 0.1-0.2 0.1-0.3 0-0.1-0.1-0.3 0-0.5z"/>
		<path class="s2" d="m18.1 11.6c-0.2 0.1-1.5 0.5-1.5 0.5-0.3 0-0.1-0.4 0-0.5 0.5-0.4 2.8-1.6 3.4-1.5 0.1 0 0.1 0 0.2 0.1-0.2 0.1-0.2 0.4-0.3 0.5-0.2 0.2-1.4 0.7-1.8 0.9z"/>
		<path class="s2" d="m22.3 9.6c-0.2 0.1-0.5 0.4-0.7 0.3-0.1-0.1-0.1-0.2-0.1-0.3-0.1-0.1-0.4-0.4-0.4-0.5 0-0.2 1.6-0.9 1.9-1 0.3-0.1 0.6 0.2 0.7 0.4 0.2 0.5-1.1 0.9-1.4 1.1z"/>
		<path class="s2" d="m39.2 19c0 0.2-0.4 1.1-0.5 1.4-0.3 0.3-0.6-0.2-0.7-0.4-0.2-0.4-0.1-1.4 0.1-1.7 0.5-0.8 1.2 0.1 1.1 0.7z"/>
		<path class="s2" d="m23.5 10.1c-0.1 0-0.3 0.2-0.4-0.1-0.1-0.1 0-0.1 0.1-0.2 0.4-0.4 1.4-0.9 2-1.2 0.1 0 1-0.3 1-0.1 0 0.1-0.3 0.7-0.3 0.7-0.1 0.2-0.2 0.2-0.3 0.3-0.2 0.1-1.5 0.6-1.6 0.6-0.2 0-0.3 0-0.5 0z"/>
		<path class="s2" d="m31.9 27.2c0.1 0.3-0.2 1.1-0.4 1.4-0.1 0.2-0.3 0-0.5-0.1-0.6-0.6-0.9-1.6-0.1-2.1 0.4-0.2 0.9 0.5 1 0.8z"/>
		<path class="s2" d="m38.5 7.7c0 0-0.1 0-0.1 0-0.6-0.2-0.4-0.5-0.5-0.9 0-0.2-0.3-0.3 0-0.5 0.4-0.3 1.3 0.2 1.5 0.5 0.2 0.3 0 0.9 0 1.2-0.4 0-0.6-0.2-0.9-0.3z"/>
		<path class="s2" d="m28.1 34.1c0.2 0.1 0.3 0.5 0.4 0.6 0.2 0.2 0.3 0.2 0.4 0.3 0.3 0.4 0.2 1.2-0.1 1.5-0.9 0.1-0.9-1.2-1.2-1.8q0.1-0.4 0.5-0.6z"/>
		<path class="s2" d="m19.8 36.1c-0.2-0.3 0.1-0.6 0.1-0.8 0-0.2-0.4-1.1 0.2-0.6 0.8 0.5 1 1.2 1.6 1.8-0.7 0.5-1.3-0.2-1.9-0.4z"/>
		<path class="s2" d="m28.8 9.8c-0.3 0-1.3-0.3-1.1-0.7 0-0.2 0.8-0.6 1-0.6 0.1 0 0.2 0 0.3 0 0.3 0 0.3-0.2 0.6 0.1 0.6 0.7 0 1.1-0.8 1.2z"/>
		<path class="s2" d="m34.3 17.5c0.2 0.3 0.4 0.6 0.7 0.8 0.1 0.1 0.2 0.2 0.1 0.3-0.7-0.6-1.2-1.2-1.8-1.8-0.4-0.4-0.7-0.4-0.8-0.9 0-0.5 0-1.7 0.2-2.2 0.1-0.2 0.3-0.4 0.3-0.7 0.2-0.1 0.3 0 0.5 0 0.8 0.3 1.8 1 2.3 1.6-0.5-0.3-1-0.7-1.5-1-0.2-0.1-0.9-0.5-1-0.4-0.2 0.2-0.5 1.1-0.5 1.4 0 0.1 0.1 1.3 0.1 1.4 0.1 0.5 1.1 1.2 1.4 1.5z"/>
		<path class="s2" d="m35.8 22.9c0-0.1 0-0.1 0-0.1-0.1-0.5-0.1-1 0.3-1.4 0.3-0.4 0.6-0.1 0.8 0.2 0.4 0.6-0.2 1-0.4 1.5-0.3 0.2-0.5 0-0.7-0.2z"/>
		<path class="s2" d="m28.2 33.2c-0.2-0.4 0.1-1 0.5-1.2 0.4-0.2 0.6 0.3 0.7 0.6 0.1 0.9-0.6 1.8-1.2 0.6z"/>
		<path class="s2" d="m38.3 8c0.5 0.1 1 0.3 0.8 0.9-0.1 0.3-0.2 0.4-0.5 0.4-1.1-0.2-1.9-1.6-0.3-1.3z"/>
		<path class="s2" d="m12.7 58.5c0.3 0 1.3 0.1 1.5 0.2 0.1 0 0.2 0.1 0.2 0.1-0.1 0.1-0.3 0.1-0.4 0.2v0.2c0.1 0.1 0.6 0.1 0.3 0.3-0.5-0.2-0.9-0.4-1.5-0.2-0.2 0-0.7 0.5-0.8 0 0-0.3 0.3-0.7 0.7-0.8z"/>
		<path class="s2" d="m17.2 35.2c-0.1 0-0.2 0-0.3 0-1.1-0.4-0.7-0.9-0.6-1.7 0.1-0.1 0-0.5 0.1-0.5 0.1-0.2 0.8 0.1 0.9 0.2-0.1 0.1-0.4 0.1-0.4 0.2 0 0 0 0.1 0 0.2 0 0.4 0.1 0.7 0.1 0.9 0 0.3-0.4 0.3 0.2 0.7z"/>
		<path class="s2" d="m23.5 39.6c0 0 0.1 0 0.2 0 0 0.1 0.3 0.8 0.3 0.9 0 0.1 0.1 1 0 1-0.3 0.6-1.1-0.6-0.9-1.2 0-0.1 0.3-0.7 0.4-0.7z"/>
		<path class="s2" d="m36 9c-0.7-0.1-1.7-0.2-2.5-0.3-0.1 0-0.2 0.1-0.3 0.1-0.2-0.1-0.6-0.4-0.4-0.6 0.1-0.1 0.8-0.2 1.1-0.3 0.7-0.1 1.2 0 1.9 0 0.1 0 0.2 0 0.3 0-0.5 0.1-1 0.1-1.5 0.1-0.1 0-0.3 0.1-0.4 0.1-0.2 0.1-0.2-0.1-0.4 0.2q0.1 0.2 0.2 0.2c0.2 0.1 1.8 0.4 2.1 0.4 0.3 0 0.6-0.1 0.7-0.4 0.1-0.4-0.4-0.3-0.6-0.6 1.1 0 1 1.3-0.2 1.1z"/>
		<path class="s2" d="m32.7 27.8c0.1 0 0.3 0.2 0.4 0.3 0.3 0.3-0.4 2.2-0.9 1.3-0.2-0.4 0-1.4 0.5-1.6z"/>
		<path class="s2" d="m35 12.9c0.2 0.1 0.3 0.3 0.4 0.4l-2.1-1.4c-0.1-0.2-0.3-0.3-0.3-0.5 0 0-0.1-1.1-0.1-1.2 0.2-0.9 1.5-0.6 2.2-0.5 0.3 0.1 0.6 0.2 0.9 0.3-0.2 0.2-0.5-0.1-0.6-0.1-0.1 0-0.4 0-0.5 0-1-0.1-1.8-0.5-1.7 0.8 0 0.1 0 0.6 0 0.6 0.1 0.6 1.3 1.1 1.8 1.6z"/>
		<path class="s2" d="m22.4 39.9c0.1 0 0.1 0.1 0.2 0.2-0.2 0.2-0.5-0.1-0.6-0.3-0.1-0.1-0.3-0.9-0.3-1.1-0.1-0.7-0.2-1.6 0.8-0.9 0 0.1 0 0.1 0.1 0.2-0.3-0.3-0.4 0.3-0.4 0.4 0 0.3 0.1 0.7 0.1 1-0.1 0.4-0.3 0.3 0.1 0.5z"/>
		<path class="s2" d="m27.2 37.2q0.1-0.1 0.2 0c0.1 0.2 0.5 1 0.4 1.2-0.5 0.6-1.1 0.1-1.1-0.4 0-0.2 0.3-0.7 0.5-0.8z"/>
		<path class="s2" d="m40.7 16.6c0.2-0.6 0.8-0.5 1 0 0 0.1-0.2 1.2-0.4 1.2-0.3-0.3-0.8-0.7-0.6-1.2z"/>
		<path class="s2" d="m34.8 24.2c-0.1-0.1-0.6-0.6-0.6-0.7-0.1-0.3 0.5-0.7 0.6-0.7 0.1 0 0.5 0.3 0.5 0.3 0.3 0.4-0.1 1.1-0.5 1.1z"/>
		<path class="s2" d="m19.4 52.7c0.3-0.2 0.7-0.4 0.9-0.1 0.3 0.4-0.8 1.2-1.2 1.1-0.4-0.2 0.1-0.9 0.3-1z"/>
		<path class="s2" d="m34.2 26.6c0.6-0.4 1.2 0.1 0.7 0.6-0.6 0.8-1.6-0.1-0.7-0.6z"/>
		<path class="s2" d="m31.7 30.4c0.1 0 0.2 0.1 0.2 0.2 0 0.1-0.5 1.1-0.5 1.1-0.1 0.1-0.4 0.2-0.5 0.1-0.5-0.4 0.3-1.5 0.8-1.4z"/>
		<path class="s2" d="m31 8.2c-0.3 0-0.5 0.2-0.7-0.2-0.8-1.1 1.4-1.1 2.1-1-0.5 0.1-1 0.1-1.5 0.2l-0.4 0.2c-0.2 0.2 0 0.5 0.2 0.6 0.7 0.3 1.4-0.3 2.1-0.3-0.4 0.1-1.2 0.6-1.5 0.6-0.1 0-0.2-0.1-0.3-0.1z"/>
		<path class="s2" d="m39.6 17.5c-0.3 0.2-0.8-0.1-0.9-0.4 0-0.2 0-0.9 0.5-0.7 0.1 0 0.6 0.5 0.7 0.7 0 0-0.3 0.4-0.3 0.4z"/>
		<path class="s2" d="m36.3 24.4c0.3 0.3-0.1 0.9-0.4 1.2-0.4-0.2-0.5-0.8-0.3-1.2 0.3-0.3 0.4-0.3 0.7 0z"/>
		<path class="s2" d="m9.7 58c-0.1 0.1-0.5 0.2-0.6 0.2-0.3 0-0.7-0.4-0.6-0.7 0.3-0.5 1.9 0 1.2 0.5z"/>
		<path class="s2" d="m10.3 59.5c0.4-0.1 0.7-0.4 1 0-0.6 0.4-1.5 0.6-2.3 0.2 0.1-0.5 0.9-0.2 1.3-0.2z"/>
		<path class="s2" d="m30.3 33.5c0 0.2-0.2 0.8-0.4 0.8-0.3 0.1-0.3-0.5-0.3-0.6 0-1.3 0.9-1.2 0.7-0.2z"/>
		<path class="s2" d="m24.2 44.9l0.1 0.2c0 0.6-0.3 1.1-0.6 1.7-0.5-0.7-0.2-1.4 0.5-1.9z"/>
		<path class="s2" d="m22.4 44.3c0-0.4 0.1-0.9 0.6-0.5-0.4 0.3-0.1 0.2 0 0.4 0 0-0.1 0.1-0.1 0.2 0 0.2 0 0.6 0.2 0.8-0.1 0 0 0.1-0.1 0.1-0.7 0.3-0.7-0.6-0.6-1z"/>
		<path class="s2" d="m40 20.4c0.3 0.4-0.2 1.1-0.5 1.3 0-0.1-0.4-0.6-0.4-0.6-0.1-0.1 0.5-1.1 0.9-0.7z"/>
		<path class="s2" d="m18.1 53.7c0.1 0 0.2 0.2 0.3 0.3 0.1 0.2-0.5 1-0.7 0.9-0.2 0-0.4-0.5-0.4-0.6 0-0.2 0.7-0.6 0.8-0.6z"/>
		<path class="s2" d="m23.8 43.8c-0.4-0.3-0.9-1.3-0.4-1.8 0.2-0.1 0.3 0 0.4 0.1-0.1 0.2 0 0.4 0.1 0.5 0 0.2-0.1 0.6-0.1 0.9 0 0.1 0.3 0.2 0 0.3z"/>
		<path class="s2" d="m40 18c0.1-0.6 0.7 0.2 0.7 0.6 0.1 0.1 0 0.7-0.3 0.6-0.4-0.1-0.5-0.9-0.4-1.2z"/>
		<path class="s2" d="m13.2 55.6c0.5 0.1 0.4 1.5-0.3 1.3-0.2-0.1-0.4-0.5-0.3-0.7 0-0.1 0.5-0.6 0.6-0.6z"/>
		<path class="s2" d="m37.5 23.2c0.7 0.2 0 1.2-0.3 1.1-0.6-0.1-0.3-1.3 0.3-1.1z"/>
		<path class="s2" d="m10.2 58.5c-0.1 0-0.2-0.4-0.2-0.4 0-0.1 0.6-0.4 0.7-0.4 0.1 0 0.3 0.2 0.4 0.3 0.3 0.5-0.5 0.9-0.9 0.5z"/>
		<path class="s2" d="m22.1 49.8c-0.4-0.5 0.3-0.9 0.5-1.4 0.2-0.2 0.3 0.3 0.3 0.4 0 0.1-0.1 0.4-0.1 0.4-0.2 0.2-0.5 0.4-0.7 0.6z"/>
		<path class="s2" d="m36.3 7.7c-0.1-0.1-0.9-0.2-0.9-0.2-0.2-0.1-0.2-0.3-0.1-0.4 0.1-0.1 1 0 1.1 0 0.3 0.2 0.5 0.6-0.1 0.6z"/>
		<path class="s2" d="m22.3 40.7c0 0.1-0.2 0.3-0.2 0.4 0 0.1 0.1 0.2 0.1 0.2 0 0.3-0.1 0.4 0.1 0.7-0.3 0-0.4 0-0.6-0.3-0.2-0.2 0-1.5 0.6-1z"/>
		<path class="s2" d="m15 57.3c0.9-0.6 0.6 1.3-0.1 0.9-0.4-0.2-0.2-0.7 0.1-0.9z"/>
		<path class="s2" d="m18 55.1c0.3-0.1 0.4 0.2 0.3 0.4-0.1 0.2-0.8 1.2-0.9 0.6 0-0.3 0.3-0.8 0.6-1z"/>
		<path class="s2" d="m23.3 46.8c0.6 0.4 0.2 0.9 0.1 1.3 0 0.1 0.1 0.5 0 0.5-0.1 0-0.3-0.3-0.3-0.4-0.1-0.2 0-1.4 0.2-1.4z"/>
		<path class="s2" d="m21 52c0.1-0.2 0.2-0.3 0.4-0.4 0.1 0.1 0.2 0.1 0.2 0.3 0 0.1-0.6 1.2-0.7 1.2-0.5-0.2 0-0.7 0.1-1 0.1 0 0-0.1 0-0.1z"/>
		<path class="s2" d="m20.4 51.3c0-0.3 0.2-0.3 0.3-0.4 0-0.1-0.1-0.1-0.1-0.1 0.1-0.1 0.7-0.2 0.7 0.2 0 0.5-1.1 1.1-0.9 0.3z"/>
		<path class="s2" d="m14.2 57.4c-0.4-0.7-0.5-0.9 0.3-1.3 0.2 0.3 0 0.7 0 1-0.1 0.1-0.3 0.1-0.3 0.3z"/>
		<path class="s2" d="m33.8 6.8c0-0.1-0.1-0.2-0.1-0.2 0.1-0.3 0.9-0.2 1.2-0.2 0.1 0 0.1 0 0.1 0.1 0.1 0.5-0.9 0.5-1.2 0.3z"/>
		<path class="s2" d="m19.5 54.1c0.3-0.2 1.4-0.4 0.8 0.1-0.1 0.1-0.6 0.5-0.7 0.5-0.3 0.1-0.5-0.4-0.1-0.6z"/>
		<path class="s2" d="m38.8 22.2c0 0.2-0.3 0.6-0.5 0.4-0.1-0.1-0.2-0.6-0.2-0.7 0-0.4 0.7-0.5 0.7 0.3z"/>
		<path class="s2" d="m22.6 50c0.3 0.2-0.4 1.1-0.6 1.3-0.2-0.1-0.3-0.5-0.2-0.6 0.1-0.2 0.7-0.7 0.8-0.7z"/>
		<path class="s2" d="m16.5 55.2c0.2 0.1-0.1 0.2-0.2 0.4-0.2 0.4-0.1 0.6 0.5 0.5-0.2 0.1-0.4 0.3-0.7 0.2-0.8-0.2-0.1-1 0.4-1.1z"/>
		<path class="s2" d="m22.5 47.2c-0.5-0.3-0.4-0.8 0-1.1 0.4 0.1 0.3 1.1 0 1.1z"/>
		<path class="s2" d="m12.1 56.7c-0.3 0.1-0.5 0.3-0.4 0.6 0 0.3 0.2 0.3 0.3 0.1 0.1 0 0 0.1-0.1 0.2-0.2 0.2-0.4 0.4-0.6 0-0.3-0.5 0.6-1.1 0.8-0.9z"/>
		<path class="s2" d="m37.7 21c0 0.4-0.9 0.1-0.5-0.3 0.3-0.2 0.5 0.1 0.5 0.3z"/>
		<path class="s2" d="m4 38.6c0 0-0.2-0.3 0.1-0.4 0.2 0.1 0.1 0.3 0.1 0.4z"/>
		<path class="s2" d="m35.2 18.7c0 0 0.4 0.1 0.2 0.3-0.1-0.1-0.2-0.2-0.2-0.3z"/>
		<path class="s2" d="m36.4 14.3c-0.1-0.1-0.2-0.1-0.2-0.2 0.1 0 0.4 0 0.2 0.2z"/>
		<path class="s2" d="m14.7 58.9c0 0.3-0.4 0.1-0.2 0q0.1 0 0.2 0z"/>
		<path class="s2" d="m7.8 35c0 0 0.1 0 0.2 0.1q-0.2 0.1-0.2-0.1z"/>
		<path class="s2" d="m7.5 34.7q0.1 0.1 0.2 0.2c-0.1 0-0.3-0.1-0.2-0.2z"/>
		<path class="s2" d="m32.5 7q0.1-0.1 0.2 0c-0.1 0-0.1 0.1-0.2 0z"/>
		<path class="s2" d="m35.7 19.2q-0.1 0-0.2-0.1c0.1-0.1 0.3 0.1 0.2 0.1z"/>
		<path class="s2" d="m35.6 13.5q-0.1-0.1-0.2-0.1c0.1-0.1 0.3 0 0.2 0.1z"/>
		<path class="s2" d="m2.8 43.1q-0.1-0.1-0.1-0.1z"/>
		<path class="s2" d="m35.7 13.6l0.2 0.1h-0.1q0 0-0.1-0.1z"/>
		<path class="s2" d="m33.2 7.7q-0.1 0-0.3 0c0.1-0.1 0.2 0 0.3 0z"/>
		<path class="s2" d="m36.3 10.1c-0.1 0-0.1 0-0.1 0 0-0.1 0.1 0 0.1 0z"/>
		<path class="s2" d="m2.7 42.7v0.2q0-0.1 0-0.2z"/>
		<path class="s2" d="m36 13.9h0.1z"/>
		<path class="s2" d="m6.8 37.7h0.1v0.1z"/>
		<path class="s3" d="m6.8 21.6c0.3-0.3 1.3-0.2 1.7-0.1 0.4 0.1 0.8 0.2 1.2 0.3 0.4 0 0.7 0 1.2 0.1-0.1 0.3-0.4 0.1-0.5 0.5 0 0.6 0 1.2 0 1.8 0.1 0.5 0.4 0.7 0.6 1.2 0 0.1 0 0.2 0 0.3 0.1 0.2 0.2 0.2 0.3 0.4 0 0.1 0 0.2 0.1 0.3 0.1 0.2 0.3 0.2 0.4 0.4 0.1 0.1 0 0.2 0 0.3 0.1 0.1 0.3 0.2 0.5 0.3 0.1 0.2 0.2 0.4 0.4 0.5 0.2 0.2 0.6 0.2 0.6 0.2 0.1 0.1 0 0.2 0.1 0.2 0 0.1 0.2 0.1 0.3 0.2 0.1 0.1 0.2 0.3 0.3 0.4 0.2 0.1 1 0.3 1.3 0.4 0.2 0.1 0.4 0.3 0.5 0.3 0.1 0.1 0.3 0 0.4 0 0.2 0.1 0.5 0.3 0.8 0.3 0.2 0.1 2.6 0 2.8 0 0.3-0.1 1-0.4 1.3-0.5 0.1-0.1 0.7-0.3 0.7-0.3 0-0.1-0.1-0.3-0.2-0.4 0-0.1-0.2-0.1 0-0.2 0.2 0.3 0.5 0.4 0.7 0.7 1 0.8 2 1.8 3 2.6 0.5 0.6 1.1 0.8 1.4 1.5 0.5 1.2 0.6 2.2-0.2 3.3-0.6 0.8-0.7 0.8-1.5 0.2-2.2-1.3-4.2-3.1-6.3-4.5-2.7-1.7-5.3-3.6-8-5.3-0.5-0.3-1.2-0.8-1.7-1-0.9-0.4-2 0.8-2.2 0.7q-0.2-0.2-0.3-0.4c-0.1-0.4 0-1.2-0.1-1.7-0.1-0.2-0.2-0.3-0.2-0.5-0.1-0.5 0.3-0.9 0.4-1.4 0.1-0.3 0.1-0.9 0.2-1.1z"/>
		<path class="s3" d="m24.3 17.5c-0.3-0.2-0.4-0.4-0.6-0.6-0.3-0.3-2-1.2-2.3-1.3-1.5-0.4-3-0.6-4.6-0.4-1.2 0.2-3.5 1.1-4.4 2-0.1 0.1-0.1 0.3-0.2 0.4-0.1 0.1-0.4 0.2-0.5 0.3 0 0.1 0 0.2-0.1 0.3-0.3 0.5-1.1 1.5-1.2 2-0.2 0.7 0.3 0.5 0.6 0.6 0.2 0.1 0.2 0.2 0.3 0.2-0.1 0.1-0.2 0.1-0.3 0-0.7 0-1.4-0.2-2.1-0.2-1-0.1-2.6-0.1-3.5-0.4-0.9-0.3-0.7-0.7-0.2-1.3 2.2-2.5 5-4.1 8.2-5.4 1.3-0.6 4.1-1.7 5.5-1.5 0.8 0.1 2.6 1 3.2 1.5 0.2 0.3 1.8 2.6 1.8 2.8 0 0-0.1 0.1 0 0.1 0.2 0.4 1 0.5 0.4 0.9z"/>
		<path class="s3" d="m28.4 25.7c-0.4-0.3-1-0.7-1.4-1.1-0.9-0.7-1.7-1.3-2.5-2.1 0.1-0.2 0.2 0 0.3 0.1 0.3 0.3 0.6 0.6 1 0.9 0.1 0 0.1 0.1 0.2-0.1-0.2-0.1-0.1-0.2-0.1-0.3-0.1-0.4 0-0.8 0-1.2 0-0.2-0.2-0.3-0.2-0.4 0-0.3 0.1-0.6 0-1-0.2-0.7-0.7-1-1-1.5 0-0.2 0.2-0.4-0.2-0.4-0.4 0.4-0.9 0.7-1.4 1.1-0.1 0.1-0.1 0.2-0.2 0.1 0.3-0.4 0.7-0.6 1.1-0.9 0.1-0.1 0.1-0.2 0.2-0.3 0.8-0.6 1.4-0.9 2.4-0.7 1.5 0.5 3.3 1.9 4 3.3 0.3 0.9 0.4 3-0.2 3.8-0.4 0.4-1.4 1.1-2 0.7z"/>
		<path class="s3" d="m23.6 29.2c-0.5-0.5-0.8-0.9-1.3-1.4 0.2-0.1 0.5 0.3 0.6 0.3 0.1-0.2 0.3-0.2 0.6-0.4q0.9-0.9 1.4-1.9c0.2-0.4 0.3-1.2 0.9-0.9l-0.1-0.3c1.3 1 2.1 1.2 3 2.6 0.4 0.6 0.4 0.7 0.4 1.4 0 0.8-0.4 1.9-0.8 2.6-0.2 0.4-0.4 1-1 0.8-1.1-0.3-2.8-2-3.7-2.8z"/>
		<path class="s3" d="m4.5 22.7c0-0.3 0.2-0.8 0.2-1.2q0-0.1 0.2-0.2c0.1 0 0.2 0 0.3 0 1.8 0.2 0.3 1.6 0.3 2.5 0 0.5 0.4 2-0.5 1.8 0-0.4-0.3-0.6-0.4-0.9 0-0.2-0.1-1.7-0.1-2z"/>
		<path class="s3" d="m17.4 34.9c0-0.3 0.1-0.5 0.1-0.9 0-0.1-0.1-0.2-0.1-0.3 0-0.1 0.2-0.3 0.1-0.4 0.6 0.3 0.8 0.8 0.7 1.5-0.2 0.6-0.5 0.5-1 0.4 0.4-0.1 0.2-0.1 0.2-0.3z"/>
		<path class="s3" d="m14.4 58.8q0.1 0.1 0.1 0.1c-0.2 0.1 0.2 0.3 0.2 0 0.2 0.2 1 0.6 0.8 0.9q0 0.1-0.1 0.1c-0.3 0-0.8-0.3-1.1-0.4 0.3-0.2-0.2-0.2-0.3-0.3v-0.2c0.1-0.1 0.3-0.1 0.4-0.2z"/>
		<path class="s3" d="m23.8 42.1c0.3 0.2 0.4 0.2 0.4 0.6 0.1 0.1 0.1 1 0 1.1 0 0.2-0.2 0.2-0.4 0 0.3-0.1 0-0.2 0-0.4 0-0.2 0.1-0.6 0.1-0.8 0-0.1-0.1-0.3-0.1-0.5z"/>
		<path class="s3" d="m22.5 37.8c0 0 0.1-0.1 0.1 0 0.1 0.1 0.3 0.4 0.3 0.6 0 0.2 0 1-0.1 1.1 0 0.1-0.1 0.5-0.2 0.6-0.1-0.1-0.1-0.2-0.2-0.2 0.2-0.1 0.2-0.1 0.2-0.3 0-0.4 0-0.9 0-1.3 0-0.1 0.1 0 0-0.3 0-0.1-0.1-0.1-0.1-0.2z"/>
		<path class="s3" d="m22.3 40.7c0.3 0.2 0.3 0.4 0.4 0.6 0 0.3 0 0.8-0.4 0.7-0.2-0.3-0.1-0.4-0.1-0.7 0 0-0.1-0.1-0.1-0.2 0-0.1 0.2-0.3 0.2-0.4z"/>
		<path class="s3" d="m16.5 55.2c0.3 0 0.6 0.4 0.5 0.7-0.1 0.1-0.2 0.1-0.2 0.2-0.6 0.1-0.7-0.1-0.5-0.5 0.1-0.2 0.4-0.3 0.2-0.4z"/>
		<path class="s3" d="m23 43.8c0.4 0.3 0.3 1 0.1 1.4-0.2-0.2-0.2-0.6-0.2-0.8 0-0.1 0.1-0.2 0.1-0.2-0.1-0.2-0.4-0.1 0-0.4z"/>
		<path class="s3" d="m12.1 56.7c0.3 0.1 0.2 0.6 0 0.8 0 0.1 0 0.2-0.2 0.1 0.1-0.1 0.2-0.2 0.1-0.2-0.1 0.2-0.3 0.2-0.3-0.1-0.1-0.3 0.1-0.5 0.4-0.6z"/>
		<path class="s3" d="m14.8 56c0.2 0.4 0.3 0.8-0.1 1.1-0.1 0-0.2 0-0.2 0 0-0.3 0.2-0.6 0-1 0.1 0 0.3-0.1 0.3-0.1z"/>
		<path class="s3" d="m14.7 31c-0.1 0-0.1-0.1-0.1-0.1 0.4 0.1 0.6 0.4 0.9 0.6 0 0.2-0.8-0.1-0.9-0.1 0-0.2 0.3-0.2 0.3-0.3 0 0-0.2 0-0.2-0.1z"/>
		<path class="s3" d="m23.7 21.6c0.3 0.3 0.4 0.6 0.7 0.8-0.4-0.2-0.7-0.6-1-0.8 0.1-0.2 0.2 0 0.3 0z"/>
		<path class="s3" d="m22.4 20.8c-0.3-0.4-0.1-0.7 0.3-0.9 0 0.1-0.2 0.3-0.2 0.4-0.1 0.2 0.1 0.3-0.1 0.5z"/>
		<path class="s3" d="m23.1 21.2c0.1 0.1 0.1 0.1 0.1 0.2-0.2-0.1-0.3-0.2-0.5-0.4 0.1-0.1 0.3 0.1 0.4 0.2z"/>
		<path class="s3" d="m14.2 30.7c0 0 0.1 0 0.2 0-0.1 0.2-0.1 0.1-0.2 0z"/>
		<path class="s3" d="m11.4 21.9c-0.2 0.2-0.2 0.1-0.2 0 0.1-0.1 0.1 0 0.2 0z"/>
		<path class="s3" d="m24.1 16.6q0 0.1 0.1 0.2c-0.1 0-0.2-0.1-0.1-0.2z"/>
		<path class="s3" d="m19.8 25q0 0 0.1 0.1l-0.1-0.1z"/>
		<path class="s3" d="m21.3 26.7h0.1-0.1z"/>
		<path class="s3" d="m24.9 24.1v-0.1z"/>
		<path class="s3" d="m25.1 24.2z"/>
		<path class="s3" d="m22 27.4h0.1v0.1z"/>
		<path class="s3" d="m24.4 23.6h0.1z"/>
		<path class="s3" d="m24.1 17.7h0.1c-0.1 0-0.1 0-0.1 0z"/>
		<path class="s4" d="m11.6 18.2c0.1-0.1 0.1-0.2 0.1-0.3 0.1-0.1 0.4-0.2 0.6-0.3 0-0.1 0-0.3 0.1-0.4 0.9-0.9 3.2-1.8 4.4-2 1.6-0.3 3.1 0 4.6 0.4 0.3 0.1 2 1 2.3 1.3 0.2 0.2 0.3 0.4 0.6 0.6 0.6-0.4-0.2-0.5-0.4-0.9-0.1-0.1 0-0.1 0-0.1q0.1 0.1 0.2 0.1c-0.1 0.1 0 0.2 0.1 0.2 0.6 0.4 0.7 0.4 0 0.9h-0.1c-1 0.6-1.5 1.3-2.3 2-0.7 0.6-1.6 0.5-2.6 0.7-1.2 0.3-2.5 1.1-3.9 1.1-0.5-0.1-3.6-0.3-4-0.5 0 0-0.1-0.1-0.2-0.2-0.4-0.1-0.8 0.1-0.7-0.6 0.1-0.5 0.9-1.5 1.2-2z"/>
		<path class="s4" d="m10.9 21.9c0.1 0 0.1 0 0.3 0 0 0.1 0 0.2 0.2 0 0.8 0.1 1.5 0.3 2.2 0.4 0.6 0 2-0.1 2.5 0.2 0.2 0.3 0.7 1 1 1.3 1.5 1.6 3.1 3.1 4.7 4.7 0.2 0.2 0.4 0.4 0.5 0.7-0.2-0.3-0.5-0.4-0.7-0.7-0.2 0.1 0 0.1 0 0.2 0.1 0.1 0.2 0.3 0.2 0.4 0 0-0.6 0.2-0.7 0.3-0.3 0.1-1 0.4-1.3 0.5-0.2 0-2.6 0.1-2.8 0-0.3 0-0.6-0.2-0.8-0.3-0.2 0-0.3 0.1-0.4 0-0.2 0-0.3-0.2-0.5-0.3-0.3-0.1-1.1-0.3-1.3-0.4-0.1-0.1-0.2-0.3-0.3-0.4-0.1-0.1-0.3-0.1-0.3-0.2-0.1 0 0-0.1-0.1-0.2-0.1 0-0.4 0-0.6-0.2-0.2-0.1-0.3-0.3-0.5-0.5-0.1-0.1-0.3-0.2-0.4-0.3 0-0.1 0.1-0.2 0-0.3-0.1-0.2-0.3-0.2-0.4-0.4-0.1-0.1-0.1-0.2-0.1-0.3-0.1-0.2-0.2-0.2-0.3-0.4 0-0.1 0-0.2 0-0.3-0.2-0.5-0.5-0.7-0.6-1.2 0-0.6 0-1.2 0-1.8 0.1-0.4 0.4-0.2 0.5-0.5z"/>
		<path class="s4" d="m22.3 27.8q-0.1-0.2-0.2-0.3v-0.1h-0.1q-0.3-0.3-0.7-0.7h0.1-0.1c-0.5-0.5-0.9-1.1-1.4-1.6q-0.1-0.1-0.1-0.1c-0.9-0.9-1.6-1.8-2.4-2.8 0.2-0.2 0.7-0.2 1-0.4 0.9-0.4 1.3-0.7 2.5-0.7 1.4 0.1 2.5 1.6 3.5 2.5h0.1q0.2 0.2 0.4 0.4v0.1-0.1q0.1 0.1 0.2 0.2c0.2 0.2 0.4 0.3 0.6 0.4l0.1 0.3c-0.6-0.3-0.7 0.5-0.9 0.9q-0.5 1-1.4 1.9c-0.2 0.2-0.5 0.2-0.6 0.4-0.1 0-0.4-0.4-0.6-0.3z"/>
		<path class="s4" d="m36.2 14.1q-0.1-0.1-0.1-0.2h-0.1q-0.1-0.1-0.2-0.2h0.1l-0.2-0.1q0 0-0.1-0.1c0.1-0.1-0.1-0.2-0.2-0.1q0-0.1 0-0.1c-0.1-0.1-0.2-0.3-0.4-0.5-0.5-0.4-1.7-0.9-1.8-1.5 0 0 0-0.5 0-0.6-0.1-1.3 0.7-1 1.7-0.8 0.1 0 0.4-0.1 0.4 0 0.2 0 0.5 0.3 0.7 0.1q0.1 0 0.2 0.1c0 0 0 0 0.1 0 1.4 0.6 2.9 3 2.5 4.4 0 0.2-0.1 0.3-0.2 0.4-0.1 0.5 0.3 1.9-0.8 1.2-0.7-0.3-0.9-1.2-1.4-1.8 0.2-0.2-0.1-0.2-0.2-0.2z"/>
		<path class="s4" d="m33.2 13.3c0.2-0.2 0.9 0.2 1.1 0.3 0.5 0.3 1 0.7 1.5 1 0.5 0.5 1.1 1.1 1.4 1.7 0.2 0.5 0.3 2.3 0.1 2.9-0.1 0.4-0.4 0.6-1 0.5-0.2-0.1-0.4-0.3-0.6-0.5 0 0-0.1-0.2-0.2-0.1q0-0.1-0.1-0.1c0.2-0.2-0.2-0.3-0.2-0.3q-0.1-0.1-0.1-0.1c0.1-0.1 0-0.2-0.1-0.3-0.3-0.2-0.5-0.5-0.7-0.8-0.4-0.3-1.3-1-1.4-1.5-0.1 0-0.1-1.3-0.1-1.4 0-0.2 0.3-1.2 0.5-1.3z"/>
		<path class="s4" d="m4.6 34.4c-0.1-0.4 0-0.6 0.3-0.8 0.8-0.5 2 0.7 2.6 1.1 0 0.1 0.1 0.2 0.2 0.2q0.1 0.1 0.1 0.1 0 0.2 0.2 0.1 0 0 0.1 0.1c-0.3 0.1 0 0.3 0 0.5 0.1 0.4-0.2 1.8-0.3 2.2-0.1 0.1-0.2 0.5-0.2 0.5l-0.4-0.2q-0.1-0.1-0.1-0.2v-0.1c-0.1 0-0.2-0.1-0.2-0.1v-0.1h-0.1c-0.5-0.7-2.1-2.6-2.2-3.3z"/>
		<path class="s4" d="m24.5 22.5q-0.1-0.1-0.1-0.1c-0.3-0.3-0.5-0.5-0.7-0.8-0.1 0-0.2-0.2-0.3 0q-0.1-0.1-0.2-0.2c0 0 0-0.1-0.1-0.2-0.1-0.1-0.3-0.3-0.4-0.1-0.1-0.1-0.2-0.2-0.3-0.3 0.2-0.2 0-0.3 0.1-0.5 0-0.1 0.2-0.3 0.2-0.4q0.1-0.1 0.2-0.1c0.1 0.1 0.1 0 0.2-0.1 0.5-0.4 1-0.7 1.4-1.1 0.4 0 0.2 0.2 0.2 0.4 0.3 0.5 0.8 0.8 1 1.5 0.1 0.4 0 0.7 0 1 0.1 0.1 0.2 0.2 0.2 0.4 0 0.4-0.1 0.8 0 1.2 0 0.1-0.1 0.2 0.1 0.3-0.1 0.2-0.1 0.1-0.2 0.1-0.4-0.3-0.7-0.6-1-0.9-0.1-0.1-0.2-0.3-0.3-0.1z"/>
		<path class="s4" d="m4.2 38.6c0.4 0.9 0.6 1.5 0.8 2.4 0 0.3 0.1 0.5 0.2 0.7-0.1 0.1 0 0.4 0 0.6 0 0.2 0 0.7 0 1 0 0.2-0.2 0.7-0.2 0.8 0.1 0.2 0.4 0.3-0.1 0.6l-0.2-0.6c-0.1-0.6-0.3-1.2-0.5-1.8 0-0.1 0.1-0.2-0.2-0.4-0.1-1.1-0.1-2.1 0-3.3h0.2z"/>
		<path class="s4" d="m30.9 7.2c0.5-0.1 1-0.1 1.5-0.2h0.1c0.1 0.1 0.2 0 0.2 0 0.4-0.1 0.9 0 1.2 0.1 0.6 0.3-0.4 0.6-0.7 0.6-0.1 0-0.2-0.1-0.3 0 0 0-0.1 0-0.1 0-0.7 0-1.4 0.6-2.1 0.3-0.2-0.1-0.4-0.4-0.2-0.6l0.4-0.2z"/>
		<path class="s4" d="m36.1 8.9c-0.3 0-1.9-0.3-2.1-0.4q-0.1 0-0.2-0.2c0.2-0.3 0.2-0.1 0.4-0.1 0.2-0.1 0.3-0.2 0.4-0.2 0.5 0 1 0 1.5 0q0 0 0.1 0c0.2 0.2 0.7 0.1 0.6 0.5-0.1 0.3-0.4 0.4-0.7 0.4z"/>
		<path class="s4" d="m2.6 42c0-0.2 0-0.1 0-0.3 0-0.1 0.4-1 0.4-1 0.1-0.1 0.1-0.1 0.2 0-0.3 0.1-0.1 0.2 0 0.3 0 0.7 0.1 1.2 0.1 1.9 0.1 0.1 0.1 0.8 0.1 0.8 0 0-0.1 0.1-0.2 0.1q-0.2-0.3-0.4-0.7l-0.1-0.1v-0.1-0.2c-0.1-0.3-0.2-0.2-0.1-0.7z"/>
		<path class="s4" d="m16.9 33.4c0-0.1 0.3-0.1 0.4-0.2q0.1 0 0.2 0.1c0.1 0.1-0.1 0.3-0.1 0.4 0 0.1 0.1 0.2 0.1 0.3 0 0.4-0.1 0.6-0.1 0.9 0 0.2 0.2 0.2-0.2 0.3-0.6-0.4-0.2-0.4-0.2-0.7 0-0.2-0.1-0.5-0.1-0.9 0-0.1 0-0.2 0-0.2z"/>
		<path class="s4" d="m15.9 48.2c0.8-0.5 0.6 1.4 0.6 1.7-0.1 0.1-0.1 0-0.2-0.1-0.2-0.3-0.3-0.8-0.5-1.1q-0.1 0-0.1-0.1c0.1-0.2-0.1-0.2 0.2-0.4z"/>
		<path class="s4" d="m12.5 47.8c-0.3 0-0.5-1-0.6-1.1-0.1-0.1-0.1-0.1-0.2-0.1q0-0.1 0-0.1c0.5-0.8 1.3 1.3 0.8 1.3z"/>
		<path class="s4" d="m4.5 36.5c0.3-0.1 0.9 1.3 1.1 1.5 0.3 0.5 1 1.5 1.2 2.1 0 0.1-0.2 0.4-0.2 0.5 0 0.4-0.1 0.5-0.2 0.9 0 0.1 0.1 0.7-0.1 0.7q-0.1-0.1-0.2-0.3c-0.3-0.5-0.6-1.7-0.8-2.4-0.4-0.8-0.8-1.5-1.1-2.3-0.1-0.3 0-0.7 0.3-0.7z"/>
		<path class="s4" d="m22.2 38.4c0-0.1 0.1-0.7 0.4-0.4 0.1 0.3 0 0.2 0 0.3 0 0.4 0 0.9 0 1.3 0 0.2 0 0.2-0.2 0.3-0.4-0.2-0.1-0.1-0.1-0.5 0-0.3-0.1-0.7-0.1-1z"/>
		<path class="s0" d="m0 24.6v28.1c0.5 0 0.5-0.8 0.9-2.1q0.2-0.9 0.4-2c0.3-2.5 0.5-5.9 1.1-9.9 0.6-4.7 0.9-9.5 0.2-12.1q-0.3-1.1-0.9-1.6-0.6-0.6-1.7-0.4z"/>
		<path class="s0" d="m9.9 2.9c-2.3 0.3-4.7 1-6.3 2.8-1.1 1.9-2.1 3.9-3 6.1-0.2 0.5-0.6 1.3-0.5 1.8 0.1-0.6 0.4-1.2 0.6-1.8 1.1-2.2 2-4.9 4.1-6.3 1.6-1 3.4-1.7 5-2.6z"/>
		<path class="s0" d="m0 14.2v10.9c0.6 0.1 1.2 0.1 1.7-0.1q0.4-0.1 0.7-0.5 0.1-0.1 0.2-0.2 0.2-0.3 0.4-0.7c0.4-0.8 0.7-2 0.8-3q0-0.5 0-0.9c0.1-2.6-1.1-4.8-2.8-5.4q-0.4-0.1-0.8-0.1 0 0-0.1 0z"/>
		<path class="s0" d="m0 12.4v2.4c0.4 0 0.8-0.2 1-0.5 0.2-0.2 0.3-0.5 0.3-0.8 0.1-0.6-0.3-0.9-0.9-1q0 0 0 0-0.2-0.1-0.4-0.1z"/>
	</g>
</svg>