<svg width="75" height="65" viewBox="0 0 75 65" fill="none" xmlns="http://www.w3.org/2000/svg">
<path d="M28.467 36.0445C28.467 36.0445 22.0007 50.9962 9.73586 52.4009C3.30491 53.1382 0.577688 46.0496 0.709242 44.015C0.926811 40.6504 4.20552 37.4724 6.48747 35.3631C10.854 31.3218 13.9708 32.3812 16.101 32.3952C18.2312 32.4092 28.4721 36.0445 28.4721 36.0445H28.467Z" fill="black"/>
<path d="M27.1567 37.001C27.1112 37.0896 26.6608 37.939 25.9373 39.1196C24.1056 42.1249 20.5537 47.3188 17.6342 47.6782C14.8463 48.0188 13.2171 45.6669 13.6977 44.5096C14.1784 43.3523 16.1517 42.2463 18.1857 41.6909C19.5164 41.3269 22.1577 39.9969 24.3435 38.751C25.4971 38.0883 26.5242 37.4536 27.1516 37.001H27.1567Z" fill="#EE5800"/>
<path d="M26.5697 36.3197C26.5697 36.3197 25.0063 37.2623 22.9722 38.3543C20.073 39.9129 16.2124 41.7889 14.482 41.7189C11.5422 41.5929 10.5303 39.3483 11.2134 38.345C11.7446 37.5703 12.2759 36.609 14.1177 36.1423C14.6641 36.0023 15.3168 35.8997 16.1163 35.8624C19.6581 35.6757 26.5697 36.3243 26.5697 36.3243V36.3197Z" fill="#EE5800"/>
<path d="M11.8154 46.7964C12.3669 46.9224 12.21 47.5757 13.141 48.3877C14.0872 49.209 14.9119 49.1157 14.9777 49.4937C15.1042 50.2124 12.2859 51.7617 9.37655 51.5004C6.60886 51.253 4.44327 49.4377 4.68108 48.9897C4.87841 48.6211 6.54813 49.517 8.47589 48.8637C10.3834 48.2151 10.9349 46.5957 11.8103 46.7964H11.8154Z" fill="#FE7800"/>
<path d="M6.29529 37.3836C6.51286 37.3229 7.42362 37.071 8.04091 37.4443C8.78469 37.8969 8.25343 38.7602 9.1237 40.0342C9.51331 40.6082 9.85736 40.7762 9.75111 41.0049C9.57402 41.4062 8.46593 41.0982 6.9986 41.4015C4.96458 41.8215 3.49725 43.1468 3.13801 43.4688C2.39422 44.1408 1.98945 44.7615 1.72128 44.6728C1.43794 44.5795 1.56947 43.7722 1.60995 43.5388C1.80222 42.3955 2.33352 41.6348 4.09937 39.3809C5.15686 38.0322 5.52115 37.5936 6.29529 37.3789V37.3836Z" fill="#FE7800"/>
<path d="M22.6534 34.9807C22.6534 34.9807 19.7542 34.9153 17.7809 34.808C16.0656 34.7147 13.8798 34.78 11.9622 35.606C11.6636 35.732 11.3752 35.8813 11.0919 36.0493C8.98704 37.2953 8.49116 37.1413 7.93458 36.3713C7.59558 35.8953 7.81822 35.0833 8.83017 34.3086C8.88077 34.262 8.94656 34.22 9.00222 34.1734C13.5408 30.9581 22.6585 34.9853 22.6585 34.9853L22.6534 34.9807Z" fill="#EE5800"/>
<path d="M9.11871 42.354C9.94345 42.354 10.5861 42.7413 11.1882 43.1753C11.7903 43.6047 10.9352 45.1167 10.7783 45.4247C10.6974 45.5833 9.55386 46.8433 8.21303 47.4873C6.94809 48.0939 4.45363 48.2106 3.88188 47.5619C3.31013 46.9086 2.02494 45.462 4.43844 43.9547C6.85194 42.4474 8.29397 42.3587 9.11871 42.3587V42.354Z" fill="#FE7800"/>
<path d="M11.9622 35.6011C10.6923 35.2371 9.64488 34.8171 8.8252 34.3038C8.87579 34.2571 8.94158 34.2151 8.99724 34.1685C13.5358 30.9532 22.6535 34.9805 22.6535 34.9805C22.6535 34.9805 19.7543 34.9151 17.781 34.8078C16.0657 34.7145 13.8799 34.7798 11.9622 35.6058V35.6011Z" fill="#EE5800"/>
<path d="M26.5697 36.3195C26.5697 36.3195 25.0063 37.2621 22.9722 38.3541C20.9332 37.7381 18.6866 36.9868 16.0353 36.5108C15.3624 36.3895 14.7198 36.2635 14.1177 36.1375C14.6641 35.9975 15.3168 35.8948 16.1163 35.8575C19.6581 35.6708 26.5697 36.3195 26.5697 36.3195Z" fill="#EE5800"/>
<path d="M27.1566 37.001C27.111 37.0896 26.6607 37.939 25.9372 39.1196C25.416 39.0263 24.8898 38.9003 24.3484 38.7509C25.502 38.0883 26.5292 37.4536 27.1566 37.001Z" fill="#EE5800"/>
<path d="M28.3557 36.5159C28.3557 36.5159 34.6602 16.1089 23.7817 6.64502C12.9032 -2.81883 7.21608 -0.196229 4.98979 2.5384C2.7635 5.27302 6.7202 8.92232 7.08957 9.26298C7.45893 9.60364 5.76899 19.1795 6.22437 22.9454C7.09971 30.16 11.0463 31.042 13.1461 32.4093C15.2459 33.7766 28.3507 36.5159 28.3507 36.5159H28.3557Z" fill="black"/>
<path d="M10.2672 1.11051C9.2856 1.15718 7.36287 1.2505 6.25985 2.50115C6.11311 2.66448 5.70835 3.13581 5.58692 3.84513C5.39465 4.96511 6.0524 5.83776 6.25985 6.11309C6.44706 6.36042 7.17568 7.2564 8.29894 7.50373C10.2216 7.92372 10.7833 5.89844 13.9406 5.31045C15.0335 5.10512 16.9157 4.98375 18.9447 5.39442C19.9515 5.59975 20.5284 5.84241 20.6296 5.68841C20.837 5.36175 18.6613 3.60242 16.1719 2.45444C14.9475 1.88978 12.9185 0.984514 10.2672 1.11051Z" fill="#FE7800"/>
<path d="M27.9359 34.9805C27.9359 34.9805 31.5182 19.1094 27.5665 15.5675C24.895 13.1735 20.9837 14.7975 20.4272 16.5102C19.8706 18.2228 20.9686 20.9434 22.6383 23.0434C24.308 25.1434 27.1971 32.1619 27.9359 34.9805Z" fill="#EE5800"/>
<path d="M26.7316 34.9807C26.7316 34.9807 22.0311 22.3249 18.7726 20.4443C15.5142 18.5636 12.3771 20.4443 12.1848 22.0682C11.9926 23.6922 11.5271 25.6615 15.1448 28.3121C18.7625 30.9628 26.7316 34.9807 26.7316 34.9807Z" fill="#EE5800"/>
<path d="M10.2875 25.2603C10.2875 25.2603 8.24837 26.6276 8.86566 27.7102C9.48295 28.7929 10.844 29.8755 11.4006 29.9921C11.9572 30.1088 13.7483 29.0822 13.379 28.0555C13.0096 27.0289 11.77 25.3209 10.2875 25.2603Z" fill="#FE7800"/>
<path d="M14.7855 29.3758C14.7855 29.3758 12.4884 29.5671 12.8375 30.7851C13.1866 32.0031 14.8058 32.6657 15.4585 32.4931C16.1112 32.3204 17.199 31.6157 16.8044 30.8458C16.4097 30.0758 14.7855 29.3711 14.7855 29.3711V29.3758Z" fill="#FE7800"/>
<path d="M18.3324 31.364C18.3324 31.364 17.2648 31.6953 17.1484 32.5213C17.032 33.3473 17.9833 33.5853 18.6309 33.7113C19.2786 33.8373 26.3268 35.6573 26.3268 35.6573C26.3268 35.6573 19.2786 31.252 18.3324 31.3594V31.364Z" fill="#EE5800"/>
<path d="M14.5983 28.2888C14.7349 28.4382 14.9221 28.6108 14.8412 28.8441C14.7602 29.0775 14.2492 29.2735 14.062 29.1008C13.8748 28.9282 13.7128 28.6528 13.7584 28.4615C13.8039 28.2702 14.4516 28.1395 14.5932 28.2888H14.5983Z" fill="#FE7800"/>
<path d="M11.431 23.0293C11.7295 23.7713 11.6334 24.2706 11.3602 24.322C11.0869 24.3733 10.5 24.3126 10.2926 23.7106C10.0851 23.1133 9.88271 22.2967 10.2521 22.3433C10.6214 22.39 11.0616 22.1006 11.431 23.0293Z" fill="#FE7800"/>
<path d="M9.80158 24.7607C9.78134 24.1493 9.73077 23.608 9.31587 23.426C8.90097 23.244 7.48423 23.3094 7.41339 23.8414C7.34256 24.378 7.42856 24.658 7.52976 25.1013C7.78275 26.254 9.82182 25.372 9.80158 24.7607Z" fill="#FE7800"/>
<path d="M11.4006 12.9774C11.4259 13.0521 11.4815 13.1221 11.5473 13.1688C11.8559 13.3834 12.1646 13.598 12.4985 13.7754C12.9539 14.0227 13.4548 14.2187 13.9304 14.4287C14.5983 14.7227 14.9575 14.9047 15.1144 14.9841C15.1144 14.9841 15.1347 14.9934 15.165 15.012C15.3269 15.096 15.671 15.2687 15.757 15.1894C15.8025 15.152 15.7671 15.054 15.757 15.0214C15.3016 13.8174 14.6388 12.9448 14.6388 12.9448C14.32 12.3334 13.8849 11.5401 13.2221 10.4574C12.539 9.34678 13.2625 10.5508 12.4732 9.29546C12.0027 8.54413 11.7902 8.16613 11.5068 8.17546C11.441 8.17546 11.2892 8.20349 11.0818 8.49282C10.4291 9.39814 10.6972 10.4528 11.0818 11.9134C11.1577 12.1887 11.2538 12.5527 11.4006 12.9727V12.9774Z" fill="#FE7800"/>
<path d="M16.9411 17.2847C16.8399 17.1027 16.7539 16.9488 16.6071 16.6688C16.3289 16.1274 16.3592 16.1274 16.2833 16.0481C16.0455 15.7914 15.7116 15.8241 14.9779 15.6794C14.5833 15.6048 14.1633 15.5207 13.6877 15.3014C13.1868 15.0681 12.9489 14.7134 12.1748 14.3774C11.9775 14.2934 11.9269 14.2841 11.8965 14.3074C11.6587 14.4708 12.4582 16.1554 13.8041 17.3874C13.966 17.5367 15.9089 19.2727 17.0018 18.7781C17.1688 18.7034 17.6444 18.4607 17.4977 18.2367C17.3003 17.9241 17.1131 17.6067 16.936 17.2894L16.9411 17.2847Z" fill="#FE7800"/>
<path d="M17.5584 9.81814C17.4268 9.44014 17.2447 9.13681 16.9816 8.88014C16.6881 8.59548 16.3744 8.46485 16.0911 8.32952C15.1753 7.89086 13.9761 7.65286 12.9388 7.74152C12.6352 7.76952 12.4734 8.09619 12.6454 8.32952C12.8022 8.53951 12.9591 8.74951 13.1058 8.96884C13.465 9.49616 13.799 10.0421 14.1279 10.5881C14.7755 11.6568 15.7571 13.4394 16.3187 14.5501C16.3238 14.5594 16.3289 14.5734 16.3339 14.5828C16.5009 14.9094 17.0271 14.8534 17.103 14.4987C17.3206 13.5328 18.0492 11.2135 17.5584 9.82281V9.81814Z" fill="#FE7800"/>
<path d="M18.9901 18.6896C18.8788 18.7129 18.7473 18.6756 18.6663 18.6476C18.4437 18.5776 18.2666 18.4283 17.8416 17.7283C17.6999 17.4996 17.4671 17.0983 17.2546 16.557C17.1433 16.277 17.0927 16.0949 17.1484 15.8849C17.2141 15.6376 17.3862 15.4883 17.4823 15.3997C17.7606 15.129 17.8567 14.7277 18.0389 13.9297C18.2463 13.015 18.1856 12.7677 18.388 11.573C18.5297 10.7237 18.6005 10.299 18.6967 10.2897C19.0154 10.2664 19.5011 13.0383 19.572 15.5909C19.6074 16.8509 19.5518 18.5589 18.9952 18.6849L18.9901 18.6896Z" fill="#FE7800"/>
<path d="M21.1001 14.0553C21.7478 14.2746 22.1424 13.4673 23.7413 13.2013C25.3604 12.9306 26.0941 13.5653 26.4786 13.2013C27.2123 12.5059 25.7551 9.00134 22.6788 7.3867C19.7542 5.85139 16.096 6.40672 15.9594 7.04605C15.843 7.57337 18.2363 7.69002 19.5771 9.65466C20.9028 11.596 20.073 13.7053 21.1052 14.06L21.1001 14.0553Z" fill="#FE7800"/>
<path d="M7.74748 20.64C7.90939 20.85 8.59248 21.7132 9.5083 21.7086C10.6214 21.7039 10.8238 20.4253 12.7516 19.6133C13.6168 19.2493 14.0975 19.2913 14.1886 18.974C14.3505 18.428 13.0096 18.036 11.8256 16.7527C10.1863 14.9747 9.86247 12.5854 9.78658 12.0068C9.62466 10.7981 9.75623 9.86012 9.41722 9.78545C9.05798 9.70146 8.51151 10.6628 8.34959 10.9381C7.57039 12.3007 7.45402 13.4674 7.28199 17.0513C7.1808 19.198 7.17067 19.912 7.74748 20.6446V20.64Z" fill="#FE7800"/>
<path d="M31.6852 38.3821C31.6852 38.3821 23.6604 52.6759 30.5366 62.1491C34.1442 67.1143 41.7389 64.3797 43.3176 62.9564C45.9335 60.6044 46.3939 56.2365 46.6267 53.2638C47.082 47.5706 44.1777 46.0913 42.7711 44.6167C41.3645 43.142 31.6852 38.3774 31.6852 38.3774V38.3821Z" fill="black"/>
<path d="M31.7559 39.9272C31.7155 40.0159 31.3107 40.8839 30.8199 42.1626C29.5499 45.4058 27.6221 51.2811 29.2362 53.5537C30.7794 55.7237 33.7748 55.3177 34.4073 54.2257C35.0448 53.1337 34.6552 51.0337 33.7798 49.2511C33.2081 48.0891 32.5706 45.3732 32.1607 43.0305C31.9482 41.7892 31.8015 40.6599 31.7559 39.9272Z" fill="#EE5800"/>
<path d="M32.7022 39.8896C32.7022 39.8896 32.9502 41.5976 33.3853 43.7302C34.0026 46.7729 34.9943 50.6928 36.1833 51.8501C38.2123 53.8194 40.7118 53.0541 41.0913 51.9201C41.3797 51.0428 41.8199 50.0442 40.9952 48.4528C40.7523 47.9815 40.4082 47.4589 39.9174 46.8755C37.7518 44.2809 32.6971 39.8896 32.6971 39.8896H32.7022Z" fill="#EE5800"/>
<path d="M33.7697 57.03C33.3042 56.7313 32.8741 57.2633 31.5991 57.1466C30.3088 57.0253 29.8433 56.3906 29.4892 56.5866C28.8162 56.9693 29.393 59.9466 31.508 61.8086C33.5218 63.5772 36.4311 63.8992 36.6386 63.4419C36.8106 63.0639 34.9841 62.4852 34.2605 60.7119C33.542 58.9573 34.5135 57.5106 33.7697 57.0346V57.03Z" fill="#FE7800"/>
<path d="M45.0985 54.72C45.0024 54.5287 44.6179 53.7261 43.9095 53.5441C43.0494 53.3201 42.6952 54.2581 41.076 54.4821C40.3474 54.5847 39.9882 54.454 39.8668 54.678C39.6543 55.0653 40.6308 55.6347 41.3442 56.8573C42.3309 58.5513 42.2044 60.4412 42.174 60.9032C42.1082 61.8599 41.8654 62.5506 42.1133 62.6766C42.3764 62.8119 42.9532 62.1913 43.1151 62.0093C43.9297 61.1273 44.203 60.2593 44.8962 57.5527C45.3111 55.9333 45.4325 55.392 45.1036 54.7107L45.0985 54.72Z" fill="#FE7800"/>
<path d="M36.3604 41.742C36.3604 41.742 38.3134 43.7206 39.6947 45.0273C40.8939 46.1613 42.2701 47.7292 42.8469 49.6052C42.938 49.8945 43.0089 50.1932 43.0544 50.5012C43.4136 52.7831 43.8589 53.0304 44.8607 52.9138C45.473 52.8391 45.9891 52.1531 45.9688 50.9398C45.9739 50.8745 45.9688 50.7998 45.9688 50.7298C45.6349 45.4613 36.3705 41.7373 36.3705 41.7373L36.3604 41.742Z" fill="#EE5800"/>
<path d="M39.1736 56.0078C38.6322 55.4338 37.8935 55.2425 37.1497 55.1025C36.4059 54.9625 35.7228 56.5491 35.5761 56.8571C35.5002 57.0158 35.2169 58.6398 35.566 59.9977C35.8949 61.2764 37.433 63.0917 38.3387 63.0637C39.2444 63.0357 41.2734 62.9844 40.9344 60.3151C40.5903 57.6458 39.72 56.5818 39.1786 56.0078H39.1736Z" fill="#FE7800"/>
<path d="M42.8469 49.6054C43.9752 50.254 45.0074 50.7067 45.9637 50.9447C45.9688 50.8794 45.9637 50.8047 45.9637 50.7347C45.6298 45.4661 36.3654 41.7422 36.3654 41.7422C36.3654 41.7422 38.3184 43.7208 39.6997 45.0275C40.8989 46.1615 42.2752 47.7294 42.852 49.6054H42.8469Z" fill="#EE5800"/>
<path d="M32.7021 39.8896C32.7021 39.8896 32.9501 41.5976 33.3852 43.7302C35.227 44.7522 37.3116 45.8256 39.4367 47.3609C39.9781 47.7529 40.4992 48.1168 41.0002 48.4528C40.7573 47.9815 40.4132 47.4589 39.9224 46.8755C37.7569 44.2809 32.7021 39.8896 32.7021 39.8896Z" fill="#EE5800"/>
<path d="M31.7561 39.9272C31.7156 40.0159 31.3109 40.8839 30.8201 42.1626C31.24 42.4659 31.6853 42.7459 32.1609 43.0305C31.9484 41.7892 31.8016 40.6599 31.7561 39.9272Z" fill="#EE5800"/>
<path d="M31.3714 38.7698C31.3714 38.7698 43.9752 21.018 58.8559 22.4087C73.7316 23.804 75.3052 29.4833 74.5159 32.8246C73.7266 36.1659 68.1507 35.7972 67.6245 35.7599C67.1034 35.7272 60.3638 43.1704 56.9737 45.3171C50.4871 49.4283 47.1831 47.2537 44.6836 46.6843C42.1891 46.115 31.3663 38.7651 31.3663 38.7651L31.3714 38.7698Z" fill="black"/>
<path d="M72.239 28.2138C72.8411 28.9277 74.0251 30.3277 73.7215 31.919C73.681 32.129 73.5596 32.7217 73.0587 33.2723C72.2694 34.1403 71.1208 34.2523 70.7616 34.285C70.4327 34.3177 69.2234 34.3923 68.2873 33.7717C66.6834 32.7077 67.9787 30.9904 66.395 28.4004C65.8485 27.5044 64.7152 26.1091 63.0505 24.9658C62.2258 24.4012 61.6439 24.1538 61.7097 23.9811C61.8412 23.6218 64.705 23.9858 67.2754 24.9751C68.5403 25.4604 70.6098 26.2818 72.239 28.2138Z" fill="#FE7800"/>
<path d="M32.9045 38.0558C32.9045 38.0558 43.5705 25.1714 49.0603 25.6101C52.7742 25.9087 53.9987 29.698 52.9614 31.2053C51.9242 32.7126 48.9743 33.7253 46.1611 33.9399C43.3479 34.1499 35.7026 36.7305 32.9045 38.0558Z" fill="#EE5800"/>
<path d="M33.6937 38.8959C33.6937 38.8959 47.1476 33.8933 50.821 34.9339C54.4944 35.9746 55.0054 39.3952 53.8012 40.5945C52.597 41.7938 51.2865 43.4038 46.7479 42.6151C42.2093 41.8265 33.6937 38.8959 33.6937 38.8959Z" fill="#EE5800"/>
<path d="M52.4251 44.0012C52.4251 44.0012 52.6376 46.3205 51.3473 46.5958C50.0571 46.8712 48.2761 46.6331 47.8207 46.3205C47.3653 46.0078 47.0314 44.0852 48.1142 43.6745C49.1969 43.2639 51.4081 43.0025 52.4251 44.0012Z" fill="#FE7800"/>
<path d="M46.1054 43.5624C46.1054 43.5624 47.4513 45.289 46.2217 45.8443C44.9922 46.3997 43.3883 45.6997 43.1049 45.135C42.8216 44.5704 42.685 43.3477 43.5755 43.119C44.466 42.8903 46.1054 43.5577 46.1054 43.5577V43.5624Z" fill="#FE7800"/>
<path d="M42.1538 42.3913C42.1538 42.3913 42.5788 43.3527 41.9767 43.9733C41.3746 44.594 40.56 44.0853 40.0287 43.7166C39.4975 43.348 33.3954 39.624 33.3954 39.624C33.3954 39.624 41.6175 41.654 42.1538 42.3867V42.3913Z" fill="#EE5800"/>
<path d="M47.1174 42.9793C46.9049 42.9793 46.6418 42.9606 46.5001 43.1706C46.3584 43.3806 46.5355 43.8612 46.7986 43.8799C47.0617 43.8986 47.3957 43.8286 47.5222 43.6699C47.6487 43.5113 47.3299 42.9746 47.1174 42.9746V42.9793Z" fill="#FE7800"/>
<path d="M53.5078 41.747C52.7033 42.027 52.3592 42.419 52.4959 42.643C52.6325 42.867 53.0676 43.2356 53.695 42.9883C54.3224 42.741 55.1219 42.3489 54.8436 42.1203C54.5653 41.8916 54.5147 41.4016 53.5078 41.747Z" fill="#FE7800"/>
<path d="M53.1537 44.0148C53.6698 43.6275 54.1454 43.3102 54.5653 43.4782C54.9853 43.6462 55.8606 44.6775 55.466 45.0742C55.0713 45.4708 54.7879 45.5968 54.3579 45.8208C53.2447 46.3995 52.6376 44.3975 53.1537 44.0148Z" fill="#FE7800"/>
<path d="M61.7653 35.1905C61.6844 35.2232 61.5933 35.2279 61.5124 35.2139C61.1329 35.1345 60.7585 35.0599 60.3891 34.9479C59.8882 34.7892 59.4024 34.5745 58.9167 34.3785C58.2387 34.1079 57.8542 33.9726 57.6821 33.9166C57.6821 33.9166 57.6619 33.9119 57.6265 33.8979C57.4494 33.8372 57.0851 33.7112 57.0901 33.6039C57.0901 33.5479 57.1913 33.5105 57.2268 33.4965C58.5119 33.0252 59.6605 32.9179 59.6605 32.9179C60.3689 32.7406 61.31 32.5259 62.6255 32.2786C63.9815 32.0266 62.5243 32.3112 64.0675 32.0359C64.9884 31.8726 65.4387 31.7699 65.6209 31.9752C65.6614 32.0266 65.7423 32.1479 65.6411 32.4793C65.3224 33.5292 64.2851 34.0332 62.838 34.7192C62.5648 34.8499 62.2005 35.0179 61.7653 35.1905Z" fill="#FE7800"/>
<path d="M54.6108 34.1452C54.8233 34.0985 55.0105 34.0565 55.3343 33.9725C55.9617 33.8139 55.9364 33.7905 56.0528 33.7905C56.4222 33.7905 56.6094 34.0425 57.2064 34.4579C57.5302 34.6819 57.8692 34.9245 58.36 35.1065C58.8812 35.3025 59.3265 35.2325 60.1057 35.5545C60.3081 35.6385 60.3435 35.6665 60.3485 35.7038C60.3688 35.9792 58.4663 36.5252 56.5739 36.3852C56.3462 36.3665 53.6494 36.1518 53.3408 35.0645C53.2952 34.8965 53.1839 34.4112 53.4622 34.3645C53.8467 34.2992 54.2313 34.2199 54.6057 34.1359L54.6108 34.1452Z" fill="#FE7800"/>
<path d="M60.3233 28.8251C60.7179 28.6711 61.0822 28.5965 61.4718 28.6151C61.8969 28.6338 62.2106 28.7645 62.5091 28.8765C63.4654 29.2265 64.447 29.9077 65.0541 30.6917C65.2312 30.9204 65.0693 31.2471 64.7657 31.2797C64.4925 31.3077 64.2142 31.3358 63.941 31.3778C63.2731 31.4758 62.6052 31.5971 61.9424 31.7231C60.642 31.9704 58.5372 32.451 57.2621 32.787C57.2469 32.787 57.2368 32.7917 57.2216 32.7964C56.8422 32.8944 56.5487 32.493 56.7865 32.2037C57.4392 31.4197 58.861 29.3944 60.3233 28.8251Z" fill="#FE7800"/>
<path d="M54.2718 31.2098C56.407 29.5859 59.0027 28.1159 59.1899 28.3492C59.2456 28.4192 58.9471 28.7505 58.3399 29.4038C57.4899 30.3231 57.247 30.4445 56.6347 31.1911C56.1035 31.8398 55.8353 32.1711 55.7948 32.5398C55.7796 32.6611 55.7746 32.8804 55.6127 33.0904C55.4761 33.2631 55.2939 33.3471 54.9903 33.4544C54.4034 33.6598 53.9278 33.7624 53.6444 33.8138C52.7944 33.9771 52.5566 33.9491 52.3542 33.8417C52.2834 33.8044 52.1619 33.7391 52.1113 33.6411C51.8482 33.1698 53.2143 32.0124 54.2718 31.2144V31.2098Z" fill="#FE7800"/>
<path d="M54.535 29.1335C53.9329 28.8255 54.3326 28.0228 53.5078 26.7302C52.673 25.4235 51.6712 25.3255 51.7167 24.8215C51.8078 23.8555 55.633 22.5769 58.9724 23.6689C62.1449 24.7049 64.0828 27.6168 63.6527 28.1348C63.2985 28.5595 61.6338 26.9682 59.1495 27.3181C56.6904 27.6635 55.5014 29.6235 54.5401 29.1335H54.535Z" fill="#FE7800"/>
<path d="M57.8745 42.7553C57.5962 42.7786 56.4426 42.8673 55.8455 42.228C55.122 41.4486 56.0378 40.4733 55.4407 38.5927C55.1726 37.748 54.8285 37.4447 55.0258 37.1693C55.3699 36.698 56.564 37.3793 58.3956 37.3653C60.9306 37.3467 63.0962 36.0074 63.6224 35.6807C64.7203 35.0041 65.4034 34.2994 65.6867 34.486C65.9903 34.682 65.5602 35.6947 65.4388 35.9841C64.8316 37.4167 63.9513 38.266 61.1229 40.7299C59.4278 42.2046 58.851 42.6806 57.8745 42.7553Z" fill="#FE7800"/>
<path d="M31.5283 38.6154C30.9262 40.7901 28.7758 45.4333 26.1093 48.6626C23.4226 51.9245 21.3076 55.4525 19.6682 57.0578C18.7726 57.9211 18.3628 58.5231 17.9783 58.3364C17.5988 58.1498 17.9125 57.5571 18.1908 56.4138C18.3122 55.8958 18.5095 55.3265 18.7524 54.6918C19.5367 52.6759 20.8522 50.0346 22.1526 46.7213C23.6503 42.9087 26.1397 38.4427 27.7588 36.7534C27.8397 36.6648 27.9257 36.5948 28.0067 36.5388C28.9731 35.8481 29.894 36.8514 30.2887 37.0474C30.7187 37.2527 31.928 37.2155 31.5384 38.6154H31.5283Z" fill="black"/>
<path d="M30.238 37.6588C30.1925 37.8268 30.1368 38.0088 30.071 38.2001C29.3879 40.2301 27.6575 43.7813 25.5628 46.334C23.2404 49.1386 21.4239 52.1905 19.9971 53.5672C19.3848 54.1645 19.0307 54.6172 18.7473 54.6918C19.5316 52.6759 20.8471 50.0346 22.1475 46.7213C23.6451 42.9087 26.1345 38.4427 27.7537 36.7534C27.8346 36.6648 27.9206 36.5948 28.0016 36.5388C28.968 35.8481 29.8889 36.8514 30.2835 37.0474C30.319 37.2014 30.3139 37.4021 30.238 37.6588Z" fill="#131C47"/>
<path d="M35.0904 35.4841C34.4579 36.5761 33.4207 37.934 32.4694 38.4054C32.1507 38.564 31.8369 38.6247 31.5333 38.62C31.0274 38.6153 30.5467 38.4241 30.0711 38.2047C29.9496 38.1441 29.8181 38.0834 29.6916 38.0227C28.9023 37.6354 28.1939 37.3881 28.0016 36.5434C27.9814 36.4641 27.9662 36.3894 27.9561 36.3101C27.9359 36.1234 27.9359 35.9134 27.9561 35.6801C28.0219 34.9148 28.285 33.9581 28.6392 33.1461C28.7404 32.9034 28.8517 32.6795 28.968 32.4741C30.233 30.2995 32.5706 29.1562 34.2504 29.8888C34.2859 29.8935 34.3314 29.9168 34.3668 29.9355C36.0568 30.7661 36.3857 33.2534 35.0954 35.4794L35.0904 35.4841Z" fill="black"/>
<path d="M31.5586 17.7515C33.198 18.8808 34.8474 20.3647 35.2623 22.2874C35.3028 24.1914 35.2421 26.0814 34.9993 27.9713C34.893 28.4706 34.8879 29.1473 34.5843 29.5299C34.807 29.04 34.8323 28.4893 34.9031 27.962C34.9588 25.9273 35.5002 23.58 34.4275 21.7181C33.5926 20.3414 32.4188 19.1001 31.5637 17.7561L31.5586 17.7515Z" fill="black"/>
<path d="M44.9366 23.6732C42.8266 23.8225 40.8635 24.2331 39.214 25.5118C37.6505 26.8138 35.9049 28.0084 34.6096 29.5391C35.0397 28.7224 36.0213 28.0458 36.7246 27.3551L39.0622 25.3578C39.8212 24.7092 40.5801 23.8598 41.6781 23.5472C42.7103 23.2438 44.0309 23.1692 44.9315 23.6732H44.9366Z" fill="black"/>
<path d="M33.6787 33.7621C32.4289 35.3161 30.5113 35.9507 29.3931 35.1901C28.7707 34.7701 28.5228 34.0048 28.6392 33.1461C28.7404 32.9034 28.8517 32.6795 28.968 32.4741C30.233 30.2995 32.5706 29.1562 34.2504 29.8888C34.9841 30.7801 34.7716 32.3995 33.6837 33.7621H33.6787Z" fill="#131C47"/>
<path d="M35.8542 29.9871C35.5355 30.5425 34.7866 30.7525 34.1895 30.4538C33.5874 30.1598 33.3597 29.4692 33.6836 28.9185C34.0023 28.3632 34.5994 28.4145 35.2015 28.7085C35.8036 29.0025 36.178 29.4318 35.8593 29.9871H35.8542Z" fill="black"/>
</svg>
