<svg version="1.2" xmlns="http://www.w3.org/2000/svg" viewBox="0 0 50 67" width="50" height="67">
	<title>motyl_03_pół_lewa</title>
	<style>
		.s0 { fill: #000000 } 
		.s1 { fill: #008fd6 } 
		.s2 { fill: #c7f7ff } 
		.s3 { fill: #ff7c00 } 
		.s4 { fill: #ffce00 } 
	</style>
	<g>
		<path class="s0" d="m46.8 16.6c-0.1-0.3-0.4-0.3-0.6-0.5-7.9-6.8-21-9.9-31.5-10.5-3.3-0.3-5.2-0.4-8.5-0.2-0.5 0.1-2.6 0.2-3.1 1.7-1.2 4 3.1 8.8 3.3 9.3 0.4 0.7 0.1 1.6 0.5 2.4 0.2 0.5 1 1 1.3 1.5 0.5 1.2 0.3 2.2 1.1 3.3 0.8 1.1 1.7 1.3 2.7 2.1 0.9 0.8 0.7 1.8 1.3 2.6 0.7 0.7 1.8 0.7 2.5 1.6 1 1.5 1.4 4 2.3 5.4 2.7 4.3 4.6 5.4 5.6 5.4 0.5 0 1 0 1 0 0 0.1-0.2 0.5-0.3 0.7-0.2 1.2-0.3 4 0 5.2 0.2 0.8 0.6 1.6 0.8 2.5 0.2 0.5 0.2 1.3 0.5 1.8 0.2 0.4 0.6 0.8 0.9 1.2 0.7 1 1.2 2.5 2.1 3.3 0.2 0.2 0.8 0.3 1.1 0.5 0.6 0.3 0.9 0.7 1.4 1.1 0.7 0.5 1.4 0.5 1.7 1.3 0.2 0.6 0 1.2-0.4 1.7-0.1 0.1-0.3 0.1-0.4 0.3-0.5 0.5-1.4 1.7-1.5 2.4-0.1 0.7 0.9 1.1 1.6 0.7 1-0.5-0.1-1 0.5-1.6 0.8-0.9 1.3-0.9 2.4-1 0.1 0 0.4-0.1 0.7 0 0.4 0.1 0.8 1 1.3 0.9 0.4 0 0.4-0.3 0.7-0.5 0.2-0.2 0.4-0.1 0.4-0.1 1-0.1 1.7 0.7 2.7 0.3 0.5-0.2 1.2-0.9 1.1-1.5-0.1-0.1-0.2-0.2-0.2-0.4-0.2-0.6 1-2.2 1.2-2.8 0.6-1.1 0.8-2.3 1.3-3.4 0.7-1.8 1.6-3.5 2.2-5.4 0.5-1.7 0.8-4 0.9-4.5 0.1-0.6 0.4-1.6 0.6-1.6l0.1-16.6-1.3-8.7zm-1.3 20.6q-0.6 1.4-1.1 2.9c-0.8 2.1-1.6 4.2-2.4 6.2-0.1 0.1-0.2 0.2-0.2 0.2-0.3 0.9-0.6 1.8-0.9 2.7-0.6 1.9-1.1 3.9-1.6 5.9-0.2 0.5-0.3 0.9-0.5 1.4l-0.1 0.1c-0.8-0.3-1.4-0.5-1.9-1.3-0.6-0.8-0.1-1.2 0.1-2 0.2-1.1 0.4-2.1 0.8-3.2 0.8-1.6 1.1-2.3 1.5-4.1 0.3-1.5 1.4-2.6 2.2-3.9 0.1-0.1 0.1-0.2 0.2-0.3 0 0 0-0.1 0.1-0.2 0.7-1 1.3-2.1 1.9-3.2 0.3-0.4 0.9-1.5 1.2-1.8 0.4-0.4 0.6 0.2 0.8 0.6zm-6 21.2c0 0-0.2 0.3-0.2 0.3-0.4 0.5-1.2 0-0.9-0.5 0.1 0 0.3-0.2 0.3-0.3 0.2 0 0.8 0.3 0.8 0.5zm-2.9-1.3c-0.7 0.2-0.8-1.1-0.3-1.2 0.1-0.1 0.5 0.4 0.6 0.5 0.1 0.2-0.1 0.6-0.3 0.7zm-7.2-11.9l-1.3 1.2c-0.1 0-0.2 0-0.2-0.1-0.3-0.3-0.3-1.5-0.4-1.9 0-0.4-0.3-1.1-0.2-1.4 0.1-0.2 0.6-0.4 0.8-0.5 1.2-0.6 2.6-1.1 3.8-1.7 0.8-0.4 1.5-0.8 2.3-1.1 0.2-0.1 0.7-0.4 0.9-0.2 0.1 0 0.1 0.1 0.1 0.2 0.1 2.9-3.6 4.2-5.8 5.5zm4.1-1.2c0 0.1-0.7 1.6-0.8 1.8-0.2 0.5-0.1 0.9-0.5 1.3-0.4 0.5-1.1 0.8-1.5 1.2-0.4 0.5-0.9 1.5-1.2 2.1 0 0.1 0.1 0.5-0.3 0.4-0.2-0.2-0.6-0.4-0.8-0.6-0.5-0.4-1.3-2.1-0.8-2.7 0.2-0.2 1.3-1 1.7-1.2 0.8-0.5 1.7-0.9 2.5-1.3 0.3-0.2 1.5-1.2 1.6-1.2 0 0 0.1 0.1 0.1 0.2zm-9-6.9c-0.8 0.5-1 0.5-1.5-0.3-0.8-1.1-0.8-2.1-0.3-3.3 0.4-0.7 0.9-0.9 1.5-1.5 1-0.8 2-1.8 2.9-2.6 0.2-0.2 0.4-0.5 0.6-0.7 1.6-1.6 3.1-3 4.7-4.7 0.2-0.3 0.7-1 1-1.2 0.5-0.4 1.8-0.3 2.4-0.3 0.8-0.1 1.5-0.3 2.3-0.4 0 0 0.1-0.1 0.2 0 0.2 0 0.2 0 0.2 0 0.5-0.1 0.8-0.1 1.3-0.1 0.4-0.1 0.8-0.2 1.2-0.3 0.4-0.1 1.4-0.2 1.7 0.1 0.1 0.2 0 0.8 0.1 1.1 0.2 0.5 0.6 0.9 0.5 1.4 0 0.2-0.2 0.4-0.2 0.5-0.1 0.5 0 1.3-0.2 1.7 0 0.2-0.1 0.3-0.2 0.4-0.2 0.1-1.3-1.1-2.3-0.7-0.4 0.2-1.2 0.7-1.6 1-2.7 1.7-5.4 3.6-8 5.3-2.1 1.5-4.2 3.2-6.3 4.6zm8.6-3.3c0.2 0.8 0.6 1.2-0.5 1.6-0.1 0-0.2 0-0.3 0-0.5 0.1-0.9 0.2-1-0.4-0.1-0.6 0-1.1 0.6-1.5q0.1 0 0.2-0.1c0.2 0 0.9-0.4 1-0.2 0 0 0 0.4 0 0.6zm2.1 2.5c0.1 0 0.8 0.1 0.9 0.2 0.4 0.2 0.1 0.8-0.1 1-2.3 1.4-4.6 2.6-6.9 3.7-0.2 0-0.5 0.2-0.6 0.1-0.1-0.2-0.2-1.5-0.2-1.7 0.1-0.6 0.1-1.2 0.1-1.7 0-0.4 0.1-0.5 0.4-0.7 0.2-0.1 1.3-0.4 1.7-0.5 1.4-0.3 3.3-0.7 4.7-0.5zm3-6.4c0.2 0.3 0.6 0.3 0.1 0.7-0.1 0.1-1.1 0.6-1.1 0.6-0.2 0-0.7 0-0.8 0-0.5 0.1-1.1 0.3-1.6 0.5 0 0-0.8 0.3-0.8 0.1 0.2-0.2 0.5-0.5 0.8-0.6q0.1-0.1 0.2-0.1c0.1-0.1 0.2-0.1 0.2-0.1 0.4-0.3 0.8-0.6 1.2-0.9 0.3-0.1 1.3-0.5 1.6-0.6 0.4 0 0.1 0.3 0.2 0.4zm-3.1 2.6c1.5-0.4 3.7-1.6 5.2-1.5 0.6 0 1.7 0.7 2 1.1 0.3 0.3 0.5 1.1 0.2 1.5-0.3 0.2-1.9 0.9-2.3 1.1-1.4 0.6-2.8 1-4.3 0.7-1-0.3-2-1.3-2-2.2 0-0.7 0.8-0.6 1.2-0.7zm9.5-1c0 0.1-0.1 0.3-0.1 0.3-0.2 0-0.3-0.8-0.3-0.9 0-0.3 0.3-2.3-0.2-2.3-0.2 0 0 0.5 0 0.7 0 0.3-0.3 1.7-0.4 2-0.1 0.2-0.3 0.6-0.6 0.3-0.5-0.5-0.8-1.7-1.7-1.8-0.6-0.1-1.3 0.1-2-0.1-0.8-0.2-0.9-0.4-0.3-0.9 1.6-0.4 3.2-1.2 4.9-1.5 0.2 0 0.8 0 0.8 0.2 0 0.6-0.1 1.2-0.1 1.8 0 0.5 0.2 1.8 0 2.2zm-16.8 7.5c0 0.2-0.2 1-0.3 1.1-0.1 0.2-0.4 0.5-0.6 0.3-0.1-0.1-0.2-0.5-0.3-0.6 0-0.1 0-0.9 0-1 0-0.2 0.1-0.6 0.3-0.7 0 0 0.1 0 0.1 0 0.9-0.7 0.8 0.2 0.8 0.9zm-1 2.7c0-0.3 0.1-0.5 0.3-0.7 0.7-0.5 0.8 0.8 0.7 1-0.2 0.3-0.4 0.3-0.7 0.3-0.3 0.1-0.3-0.4-0.3-0.6zm0.1 5.9c-0.2 0-0.3-1.1 0-1.2 0.5 0.4 0.6 0.8 0 1.2zm7.2-2.7c0.1-0.4-0.1-0.6 0.1-1.2 0.5-0.9 1.2-1.5 1.9-2.3 0.6-0.7 0.1-2 0.6-2.8 0.7-1.3 1.9-1.3 3.1-2.1q0 0 0.1-0.1c0 0 0.1-0.1 0.1-0.1 0.4-0.3 1-0.5 1.4-0.8q0-0.1 0.1-0.1c0.1-0.1 0.1-0.1 0.1-0.1q0.1 0 0.2-0.1 0.1-0.1 0.2-0.2c0.5-0.4 1.8-1.6 2.6-1.1 0.3 0.2 0.4 0.4 0.3 0.8-0.1 0.7-1.7 2.6-2.2 3.3l-0.1 0.1c0 0-0.1 0.1-0.2 0.1 0 0 0 0.1 0 0.1q-0.1 0.1-0.1 0.3c-0.6 0.9-1.3 1.7-1.9 2.6-0.6 0.7-1 1.4-1.5 2.1-1 1.3-1.6 2-3 3-0.4 0.3-1.4 1-1.9 0.7-1-0.5 0-1.4 0.1-2.1zm10.7-19.9c0 0.3-0.3 0.6-0.4 0.9-0.8 0.2-0.4-1.3-0.4-1.8-0.1-0.9-1.5-2.3 0.3-2.4 0.1-0.1 0.2-0.1 0.3 0q0.1 0 0.2 0.2c0 0.4 0.2 0.8 0.2 1.2 0 0.2-0.1 1.7-0.1 1.9zm-32.7-5.5c-0.2-0.5-0.1-2.4 0.1-2.9 0.2-0.6 0.9-1.2 1.3-1.7 0.6-0.6 1.5-1.3 2.4-1.6 0.1 0 0.3-0.1 0.4 0.1 0.1 0.2 0.3 0.5 0.4 0.7 0.1 0.4 0.2 1.6 0.1 2.1 0 0.6-0.3 0.6-0.7 0.9-0.6 0.6-1.1 1.3-1.8 1.8q0 0-0.1 0.1c0 0.1-0.1 0.2-0.2 0.3q-0.1 0.1-0.2 0.1 0 0.1-0.1 0.2c-0.2 0.1-0.4 0.3-0.7 0.4-0.5 0.2-0.8 0-0.9-0.5zm-0.5 1.8c0.1-0.2 0.3-0.5 0.5-0.3 0.5 0.4-0.5 0.7-0.5 0.3zm3.9-2.6c0.1-0.2 1.2-0.7 1.3-0.6 0.2 0 0.2 0.8 0.3 1.1 0.2 0.7 0.8 1 0.4 1.8-0.2 0.5-0.8 1.5-1.6 1.4-0.4-0.2-0.4-0.8-0.6-1.2-0.4-1.1-1.1-1.6 0.2-2.5zm3-7.5c-0.2 0.4-0.3 0.3-0.5 0.4-0.2 0-0.5 0.3-0.7 0.2-0.1-0.2-0.1-1.2-0.1-1.4 0.1-0.3 0-0.8 0.3-0.9 0 0 0.7-0.1 0.8-0.1 0.9 0.1 0.3 1.2 0.2 1.7 0 0 0 0.1 0 0.1zm-0.7 0.7c0.8-0.2 1.2 0.2 1.1 0.9 0 0.3-0.2 1.7-0.3 1.8 0 0.2-0.2 0.3-0.3 0.4-0.1 0.3-0.2 0.7-0.5 0.9-0.6-0.5-0.4-1.4-0.5-2.1 0-0.3-0.2-0.6-0.2-1 0-0.4 0.2-0.7 0.7-0.9zm-0.3 15.6c0.1-0.3 0.6-1 0.9-0.8 0.9 0.6 0.6 1.5 0 2.1-0.2 0.2-0.4 0.4-0.5 0.1-0.2-0.2-0.5-1.1-0.4-1.4zm1.3-6c0.6-1.3 2.5-2.8 4-3.2 0.9-0.3 1.6 0.1 2.4 0.6 0.1 0.1 0.1 0.3 0.2 0.3 0.4 0.3 0.8 0.5 1.1 0.9q0.1 0.1 0.2 0.1c0.4 0.2 0.6 0.6 0.3 0.9-0.1 0.1-0.2 0.2-0.3 0.3-0.2 0.1-0.3 0.2-0.5 0.3q-0.1 0.1-0.2 0.2c-0.3 0.3-0.6 0.6-1 0.8q0 0.1-0.1 0.1c-0.8 0.8-1.6 1.5-2.5 2.1-0.4 0.4-1 0.8-1.4 1.1-0.6 0.4-1.6-0.3-2-0.7-0.6-0.8-0.5-2.9-0.2-3.8zm2-5.7c0.1-0.2 1.6-0.8 1.9-0.9 0.2-0.1 0.9-0.3 1.1-0.2 0.2 0.1 0.2 0.3 0.1 0.5 0 0.2-0.2 1-0.3 1.2-0.3 0.3-0.8 0.5-1.1 0.7-0.3 0.1-1.3 0.7-1.5 0.7-0.3 0.1-0.3-0.4-0.4-0.6 0-0.3 0-1.2 0.2-1.4zm-0.1 11.7c0.9-1.4 1.7-1.6 3-2.6 0.2-0.1 0.4-0.2 0.6-0.3v-0.1q0.1-0.1 0.2-0.1v-0.1q0.2-0.2 0.5-0.4c1-0.9 2.1-2.3 3.5-2.4 1.2-0.1 1.6 0.2 2.6 0.7 0.3 0.1 0.7 0.1 0.9 0.4-0.7 0.9-1.5 1.8-2.4 2.7v0.1h-0.1c-0.4 0.5-0.9 1.1-1.4 1.6v0.1q-0.4 0.3-0.7 0.7-0.1 0.2-0.3 0.3c-0.4 0.5-0.8 0.9-1.3 1.4-0.9 0.8-2.6 2.5-3.7 2.9-0.6 0.2-0.8-0.4-1-0.9-0.4-0.7-0.7-1.7-0.8-2.5 0-0.7 0-0.9 0.4-1.5zm9.5-6.8c-1-0.2-1.8-0.1-2.6-0.7-0.8-0.7-1.3-1.3-2.3-2 0 0 0 0-0.1 0-0.6-0.4-0.6-0.4 0-0.9q0.1-0.1 0.1-0.1 0.1-0.1 0.2-0.2 0 0 0 0 0 0 0 0 0 0 0 0 0-0.1 0-0.1 0.1-0.1 0.2-0.3 0-0.1 0.1-0.2 0 0 0.1-0.1 0 0 0-0.1 0.1-0.1 0.2-0.2 0.1-0.1 0.1-0.3 0.1 0 0.2-0.1 0-0.1 0-0.1 0.1-0.1 0.2-0.2c0.2-0.3 0.4-0.7 0.6-0.9q0 0 0.1-0.1 0 0 0 0c0.6-0.6 2.4-1.5 3.3-1.6 1.3-0.2 4.2 0.9 5.5 1.5 3.1 1.3 5.9 2.9 8.1 5.4 0.5 0.6 0.8 1.1-0.1 1.3-1 0.3-2.6 0.3-3.6 0.4-0.7 0.1-1.4 0.2-2.1 0.3-0.1 0-0.2 0-0.3-0.1-0.4 0.2-3.5 0.5-4 0.5-1.4 0-2.6-0.7-3.9-1.1zm6.8-8.3c1 0.3 2.1 0.9 3 1.3 1.6 0.8 3.6 1.9 4.8 3.2 0.1 0.2 0.1 0.4-0.2 0.3-0.3-0.2-0.9-0.6-1.3-0.8-0.9-0.6-1.9-1.4-3-1.9-1.2-0.4-2.5-0.7-3.6-1.3-0.2-0.1-0.8-0.4-0.8-0.6-0.1-0.4 0.9-0.3 1.1-0.2zm-3.8-1.9c0.4 0.2 1.4 0.3 1.7 0.5 0.3 0.3 0.4 0.8 0.1 1-0.2 0.3-0.6 0-0.8 0-0.1 0-0.2 0.1-0.3 0.1-0.4-0.1-0.8-0.1-1-0.4-0.1-0.1-0.4-0.7-0.4-0.7 0-0.2 0.5-0.5 0.7-0.5zm-3.7-0.1c0.6 0 2.8 1.2 3.3 1.6 0.1 0.1 0.3 0.4 0 0.5 0 0-1.3-0.5-1.5-0.6-0.3-0.1-1.5-0.6-1.7-0.9-0.2-0.1-0.2-0.3-0.4-0.5 0.1-0.1 0.2-0.1 0.3-0.1zm-0.1 1.3c0.1 0.4-0.9 1.3-1.4 1.4-0.1 0.1-0.1 0.1-0.2 0-0.5-0.3-0.4-1.4-0.5-1.9-0.1-0.3 0.4-0.3 0.6-0.2 0.1 0 1.1 0.3 1.2 0.4 0.1 0.1 0.2 0.1 0.3 0.3zm-3.7-2.8c0.1-0.2 0.4-0.5 0.7-0.5 0.3 0.1 1.9 0.9 1.9 1.1 0 0-0.3 0.4-0.4 0.4 0 0.1 0 0.3-0.1 0.3-0.2 0.2-0.5-0.2-0.7-0.3-0.3-0.2-1.6-0.5-1.4-1zm-1.5 0.1c0.6 0.2 1.6 0.8 2 1.1 0.1 0.1 0.2 0.2 0.1 0.3-0.1 0.3-0.3 0-0.4 0-0.2 0-0.3 0.1-0.5 0.1-0.1-0.1-1.4-0.5-1.5-0.6-0.2-0.1-0.3-0.2-0.4-0.3 0-0.1-0.3-0.7-0.3-0.7 0.1-0.3 0.9 0 1 0.1zm-1.4 2.2c0.1-0.6 0.9-0.7 1.4-0.6 0.1 0 0.6 0.2 0.7 0.2 0.5 0.4 0.3 1.6-0.1 2-0.3 0.3-1.2 0.7-1.7 0.8-0.3 0-0.5 0-0.6-0.4 0-0.3 0.2-1.7 0.3-2zm-2.8-3.7c0.2-0.3 0.2-0.1 0.4-0.1 0.7 0 1.7 0 2.1 0.6-0.4 0.2-0.3 0.8-0.8 0.8-0.2 0-0.8-0.2-1.1-0.3-0.6-0.2-1.1-0.1-0.6-1zm-0.2 1.5c0.3-0.3 0.3-0.1 0.6-0.1 0.1 0 0.2-0.1 0.3-0.1 0.2 0.1 1 0.4 1 0.6 0.2 0.5-0.8 0.7-1.1 0.7-0.8 0-1.4-0.5-0.8-1.1zm-3.1-1.7q0.1 0 0.2 0h0.1c0.7 0 2.9-0.1 2.1 1.1-0.2 0.3-0.3 0.1-0.7 0.2-0.1 0-0.2 0.1-0.3 0.1-0.3-0.1-1.1-0.6-1.5-0.7 0 0-0.1 0.1-0.1 0.1q-0.2 0-0.3-0.1c-0.3 0-1.3-0.2-0.7-0.5 0.4-0.2 0.8-0.3 1.2-0.2zm-2.3-0.4c0-0.1 0-0.1 0.1-0.1 0.3-0.1 1.1-0.2 1.2 0.1 0 0.1-0.1 0.2-0.1 0.2-0.3 0.2-1.3 0.3-1.2-0.2zm-1.4 0.6c0.1-0.1 1-0.2 1.1-0.1 0.2 0.1 0.1 0.3-0.1 0.4 0 0-0.8 0.2-0.9 0.2-0.6 0.1-0.4-0.4-0.1-0.5zm0.2 0.8q0.1 0 0.1 0c0.1-0.1 0.2-0.1 0.3-0.1 0.7 0 1.2 0 1.9 0.1 0.3 0 1 0.1 1.1 0.3 0.2 0.2-0.2 0.4-0.3 0.5-0.2 0-0.3 0-0.4 0-0.8 0-1.7 0.1-2.5 0.3-1.2 0.2-1.3-1.1-0.2-1.1zm-0.1 2.1c0 0 0.1 0 0.1 0q0.1 0 0.2-0.1c0.3-0.1 0.6-0.2 0.9-0.3 0.7-0.1 2-0.3 2.2 0.6 0 0 0 1.1-0.1 1.2 0 0.1-0.2 0.3-0.3 0.4l-2 1.4q-0.1 0.1-0.1 0.1-0.1 0.1-0.2 0.1-0.1 0.1-0.1 0.2-0.1 0-0.1 0.1-0.1 0-0.2 0.1l-0.1 0.1q0 0.1-0.1 0.1c0 0.1-0.1 0.2-0.2 0.2-0.5 0.6-0.7 1.5-1.4 1.9-1.1 0.6-0.7-0.7-0.8-1.2-0.1-0.2-0.2-0.3-0.2-0.4-0.4-1.5 1.1-3.8 2.5-4.5zm-4 5.9c-0.1-0.4-0.4-0.5-0.3-1 0.1-0.3 0.8-1.5 1-1.4 0.3 0 0.6 0.9 0.6 1.2-0.1 0.3-0.8 1.7-1.1 1.7-0.2-0.1-0.1-0.4-0.2-0.5zm1.1 0.4c0.5-0.2 0.5 0.6 0.5 0.8-0.1 0.2-0.6 0.5-0.9 0.4 0-0.1-0.3-0.4-0.3-0.5 0-0.1 0.6-0.6 0.7-0.7zm0.6-7.1c-0.3 0.1-0.4-0.1-0.5-0.3-0.2-0.6 0.3-0.8 0.8-0.9 1.6-0.4 0.8 1-0.3 1.2zm-0.8-2.4c0.2-0.4 1.1-0.9 1.5-0.6 0.3 0.2 0 0.3 0 0.5-0.1 0.5 0.1 0.8-0.5 1 0 0-0.1 0-0.1 0-0.3 0.1-0.6 0.3-0.9 0.3 0-0.4-0.2-0.9 0-1.2zm-0.6 3.1c0.2-0.2 0.9-0.4 1.2-0.3 0.3 0.2 0.5 0.5 0.4 0.8 0 0.1-0.2 0.7-0.3 0.9-0.1 0.1-0.9 1.2-1 1.3-0.2 0.1-0.3-0.4-0.3-0.5-0.1-0.5-0.5-1.8 0-2.2zm-4.5 0c-0.3-0.5-0.6-1.6-0.4-2.1 0.1-0.2 0.5-0.6 0.7-0.8 0.6-0.4 1.4-0.7 2.2-0.8 0.4 0 1.2 0 1.5 0.2 0.3 0.2 0.4 1.1 0.3 1.4-0.3 0.4-0.9 0.7-1.2 1-0.8 0.6-1.2 1.4-2.1 1.8-0.7 0.2-0.8-0.1-1-0.7zm2.2 4.5c-0.1 0-0.3-0.1-0.5-0.2-0.2-0.2-0.5-0.9-0.6-1.3-0.1-0.7 0.1-0.6 0.5-1.1 0.2-0.2 1.2-1.8 1.6-1.6 0.3 0.1-0.1 1.1-0.2 1.3-0.1 0.7 0 0.9 0.1 1.4 0.1 0.6 0 1.1-0.3 1.5-0.3 0.4-0.3 0.1-0.6 0zm1 3.3c-0.2 0-0.4-1-0.4-1.2 0.1-0.4 0.8-0.5 1 0 0.2 0.6-0.3 0.9-0.6 1.2zm0.9 1.5c-0.3 0-0.4-0.5-0.4-0.7 0.1-0.4 0.7-1.2 0.8-0.6 0 0.3 0 1.2-0.4 1.3zm0.9 2.5c-0.3-0.3-0.8-1-0.5-1.3 0.4-0.5 0.9 0.5 0.9 0.6 0 0.1-0.4 0.5-0.4 0.7zm1.2 0.8c-0.2 0.2-0.5-0.1-0.5-0.4-0.1-0.7 0.7-0.7 0.7-0.2 0 0-0.1 0.6-0.2 0.6zm0.3-2.6c-0.1 0.2-0.4 0.8-0.7 0.4-0.1-0.2-0.5-1.1-0.5-1.4 0-0.6 0.6-1.4 1.1-0.7 0.2 0.4 0.4 1.4 0.1 1.7zm0.8 4.4c-0.3 0.1-1-1-0.3-1.2 0.6-0.1 0.9 1 0.3 1.2zm0.3-2.7c0.2-0.4 0.5-0.7 0.8-0.3 0.4 0.4 0.4 0.9 0.3 1.4 0 0 0 0.1 0 0.1-0.2 0.2-0.4 0.5-0.7 0.2-0.2-0.4-0.8-0.9-0.4-1.4zm1 3.9c-0.3-0.3-0.7-0.8-0.4-1.2 0.3-0.3 0.4-0.3 0.7 0.1 0.2 0.3 0.1 0.9-0.3 1.1zm0.6-2.4c0-0.1 0.4-0.3 0.5-0.3 0.1-0.1 0.7 0.4 0.6 0.6 0 0.2-0.5 0.7-0.6 0.7-0.4 0.1-0.8-0.6-0.5-1zm0.4 4.1c-0.5-0.6 0.1-1.1 0.7-0.7 0.9 0.5-0.1 1.4-0.7 0.7zm0.7-1.5c-0.1-0.2-0.1-0.8 0-0.9 0-0.2 0.6-0.7 0.7-0.8 0.2-0.2 0.6-0.1 0.8 0.1 0.2 0.1 0.4 0.8 0.4 1 0 0.1-0.6 1.3-0.7 1.4 0 0-0.2 0.1-0.2 0.1-0.3-0.3-0.8-0.7-1-0.9zm2 3.6c-0.5 0.9-1.2-0.9-0.9-1.3 0.1-0.1 0.3-0.3 0.4-0.2 0.5 0.2 0.7 1.1 0.5 1.5zm1.3 2.4c-0.1 0.1-0.4 0.1-0.5 0 0-0.1-0.5-1.1-0.5-1.1 0-0.1 0.1-0.2 0.2-0.2 0.5-0.2 1.3 1 0.8 1.3zm1 2.6c-0.2 0-0.4-0.7-0.4-0.8-0.2-1 0.7-1.1 0.7 0.1 0 0.2 0 0.7-0.3 0.7zm-0.9-4.1c-0.2-0.3-0.2-0.6 0-0.9 0-0.1 0.5-0.7 0.6-0.7 0.2-0.2 0.6 0.4 0.6 0.6 0.1 0.1 0 0.3 0 0.4 0 0.1 0.1 0.2 0.1 0.3-0.1 1.4-0.7 1.9-1.3 0.3zm1.4 2.3c0.1-0.3 0.3-0.8 0.7-0.6 0.4 0.2 0.7 0.8 0.5 1.2-0.6 1.3-1.3 0.3-1.2-0.6zm0.6 4c-0.3-0.4-0.5-1.2-0.2-1.5 0.2-0.2 0.3-0.2 0.5-0.3 0.1-0.2 0.2-0.6 0.4-0.7q0.3 0.2 0.5 0.6c-0.3 0.6-0.4 1.9-1.2 1.9zm1 1.8c-0.1-0.2 0.3-1 0.4-1.2q0.1 0 0.2 0c0.2 0.1 0.5 0.6 0.5 0.8 0 0.5-0.7 1-1.1 0.4zm8-2.3c-0.6 0.2-1.2 0.9-1.9 0.5 0.6-0.6 0.8-1.4 1.5-1.9 0.7-0.4 0.3 0.4 0.3 0.6 0 0.2 0.3 0.5 0.1 0.8zm-4.2 5.5c-0.1-0.1 0-0.9 0-1.1 0-0.1 0.3-0.8 0.3-0.8 0.1-0.1 0.2-0.1 0.2-0.1 0.1 0.1 0.4 0.6 0.4 0.7 0.2 0.6-0.6 1.8-0.9 1.3zm0.2 2.3c-0.2 0.1-0.4 0.2-0.5-0.1 0 0 0-1 0-1.1 0.1-0.4 0.2-0.4 0.5-0.5 0.1-0.1 0.1-0.3 0.4-0.1 0.5 0.4 0 1.4-0.5 1.8zm-0.4 1.2l0.1-0.1c0.7 0.5 1 1.1 0.4 1.8-0.2-0.5-0.5-1-0.5-1.7zm1.2 3.2c-0.1 0-0.2 0.3-0.3 0.3-0.2 0 0-0.3 0-0.4-0.1-0.5-0.5-1 0.1-1.4 0.2 0 0.2 1.3 0.2 1.5zm0-3.1c-0.2-0.4-0.4-1.1 0.1-1.4 0.5-0.4 0.6 0.2 0.6 0.5 0.1 0.4 0.1 1.4-0.6 1.1-0.1-0.1-0.1-0.2-0.1-0.2zm0.2 3.7c0-0.1 0.1-0.6 0.3-0.5 0.2 0.5 0.9 1 0.5 1.5-0.2-0.2-0.6-0.5-0.7-0.7 0 0-0.1-0.3-0.1-0.3zm0.9 2.4c-0.2-0.1-0.9-1.1-0.6-1.2 0.1-0.1 0.7 0.5 0.8 0.6 0.1 0.2-0.1 0.5-0.2 0.6zm1.1 1.9c-0.1 0-0.7-1.1-0.7-1.3 0-0.1 0.1-0.2 0.2-0.3 0.2 0.1 0.3 0.3 0.3 0.4 0.1 0.1 0 0.1 0 0.2 0.2 0.3 0.6 0.7 0.2 1zm-0.4-2.2c0-0.4 0.6-0.3 0.7-0.2 0 0-0.1 0.1-0.1 0.1 0.1 0.2 0.3 0.2 0.3 0.4 0.1 0.9-0.9 0.2-0.9-0.3zm1.7 3.8c-0.1-0.1-0.6-0.5-0.7-0.5-0.6-0.6 0.5-0.3 0.8-0.1 0.4 0.2 0.2 0.6-0.1 0.6zm0.5-1.1c-0.4 0.1-1.5-0.6-1.2-1.1 0.2-0.3 0.6-0.1 0.9 0.1 0.2 0.2 0.7 0.8 0.3 1zm1.7 2.4c-0.1 0.6-0.8-0.3-0.9-0.6-0.1-0.2 0-0.5 0.3-0.3 0.3 0.1 0.6 0.6 0.6 0.9zm-0.3-1.1c-0.2 0-0.8-0.7-0.7-1 0-0.1 0.2-0.3 0.3-0.3 0.1 0 0.7 0.5 0.8 0.6 0 0.1-0.2 0.6-0.4 0.7zm0.5-1.1c-0.2 0-0.3-0.3-0.3-0.4-0.4-0.3-1.1-0.6-1.6-0.9-0.6-0.6-1-1-0.6-1.8 0.4-0.6 1.6-1.8 2.2-2.2 0.4-0.3 1.1-0.8 1.6-0.5 0.3 0.2 0.4 0.3 0.2 0.6q-0.1 0-0.1 0.1c0.1 0.1 0 0.2 0 0.3-0.1 0.4-0.4 0.9-0.5 1.3-0.1 0.9-0.3 2.5-0.7 3.3q-0.1 0.1-0.2 0.2zm1.1 2.4c-0.3 0.1-0.5-0.1-0.7-0.2 0-0.1-0.1 0-0.2-0.2-0.1-0.3 0.2-0.7 0.5-0.6 0.5 0 1.2 0.8 0.4 1zm-0.2-2.5c-0.1-0.7 0.4-1.2 0.6-1.9 0.3-1 0.4-2.2 0.9-3.2 0.3-0.7 0.6-0.6 1.1-1.1 0.5-0.3 0.9-0.8 1.3-1.2 0.4-0.3 1-0.6 0.7 0.1 0 0.1 0 0.1-0.1 0.2 0 0.6-0.5 1.1-0.7 1.7-0.3 0.5-0.6 1.3-0.7 1.9-0.1 0.4-0.1 0.9-0.3 1.3q0.1 0 0.1 0.1c0 0.3-0.2 0.9-0.2 1.3-0.1 0.6 0 1.3-0.1 1.9-0.1 0.8-0.9 0.3-1.5 0.5-0.6-0.1-1.1-1.1-1.1-1.6zm2.1 3.6c-0.1-0.1-0.2-0.2-0.4-0.2 0-0.1-0.1 0-0.1-0.1-0.4-0.3-0.3-0.7-0.1-1 0-0.1 0.2 0.1 0.2 0.1 0.8 0.3 0.8 0.5 0.4 1.2zm-0.8 0c0.3 0.2 0.4 0.7 0.1 0.9-0.7 0.3-1-1.5-0.1-0.9zm2.9 2c0 0.4-0.5 0-0.8-0.1-0.5-0.2-0.9 0-1.5 0.2-0.2 0.1-0.8 0.4-1 0.5-0.1 0-0.1-0.1-0.1-0.1-0.2-0.4 0.5-0.8 0.8-0.9 0.1-0.1 0.1-0.1 0.1-0.1q0.1 0 0.2 0c0 0 0.1-0.1 0.2-0.2 0.2 0 1.2-0.2 1.5-0.1 0.3 0 0.7 0.4 0.6 0.8zm0.2-1.8c-0.2 0.2-0.2 0-0.3-0.1-0.1-0.2-0.2-0.7 0.1-0.8 0.2-0.1 1.1 0.4 0.8 0.9-0.2 0.5-0.4 0.3-0.6 0zm0.6 1.9c0.3-0.3 0.6 0 1 0 0.4 0.1 1.2-0.2 1.3 0.3-0.8 0.4-1.7 0.1-2.3-0.3zm2.2-1.3c-0.1 0-0.5-0.1-0.6-0.1-0.7-0.6 0.9-1.1 1.2-0.5 0.1 0.2-0.4 0.6-0.6 0.6zm1-2c-0.4 0.8-1.8 1.2-1.8 0-0.1-0.8 0.4-1.4 0.7-2.1 1-3 2.1-6.1 3.1-9.1q0 0 0-0.1 0.1-0.2 0.1-0.3c0.3-0.9 0.5-1.9 0.8-2.9 0.1-0.2 0.2-0.3 0.2-0.6 0.2-0.9 0.4-1.6 0.8-2.5 0 0-0.1-0.3 0.1-0.4 0.3 0.2 0.1 0.4 0.1 0.5 0.1 1.2 0.1 2.1 0 3.3-0.2 1.6-0.9 3.7-1.4 5.3-0.1 0.5-0.3 1.4-0.6 1.8q0.1 0.2 0 0.4c-0.2 1-0.7 1.9-1 3-0.4 1.1-0.6 2.6-1.1 3.7zm5.4-13.4q0 0 0 0.1v0.1h-0.1q0 0 0 0.1 0 0 0 0v0.1c0.1 0.1 0 0.1 0 0.2-0.5 1.5-0.8 3-1.3 4.6-0.9 2.2-1.8 4.5-2.7 6.7-0.1 0.4-0.5 1.4-0.8 1.5-0.2 0.2 0-0.2 0-0.2 0-0.4 0.1-0.4 0.2-0.8 0.8-2.9 2.1-5.8 3-8.8 0.4-1.5 0.9-3.3 1.1-4.7 0.1-0.7-0.2-1.5-0.2-2.2 0 0-0.2-0.7 0.1-0.4 0.2 0.2 0.3 1 0.4 1.3 0.2 0.5 0.8 1.2 0.4 1.7 0.1 0.4 0 0.3-0.1 0.7z"/>
		<path class="s1" d="m34.1 46.9c0.5 0.2 1.5-0.5 1.9-0.8 1.4-0.9 2-1.7 3-2.9 0.5-0.8 0.9-1.5 1.5-2.2h-0.5l-0.1-4.7c-1.2 0.8-2.4 0.8-3.1 2.1-0.5 0.8 0 2.1-0.6 2.8-0.7 0.8-1.4 1.4-1.9 2.4-0.2 0.5 0 0.7-0.1 1.2-0.1 0.6-1.1 1.5-0.1 2.1z"/>
		<path class="s1" d="m41.8 46.5c-0.1 0-0.1 0-0.2-0.1-0.1-0.1-0.1-0.7-0.1-0.8-0.1-1 0-1.8-0.1-2.7 0-0.1 0.1-0.5 0.1-0.6 0-0.1 0.1-0.1-0.1-0.3-0.8 1.4-1.8 2.4-2.2 3.9-0.4 1.8-0.7 2.5-1.4 4.2-0.5 1-0.7 2.1-0.9 3.1-0.2 0.8-0.6 1.2-0.1 2.1 0.5 0.7 1.1 1 1.9 1.2l0.1-0.1c0.2-0.5 0.4-0.9 0.5-1.4 0.5-1.9 1-4 1.6-5.9q0.4-1.3 0.9-2.6z"/>
		<path class="s1" d="m36 35.2c1.5 0.3 2.9-0.1 4.3-0.7 0.4-0.1 2-0.8 2.3-1.1 0.3-0.3 0.1-1.1-0.2-1.5-0.3-0.4-1.4-1.1-1.9-1.1-1.5 0-3.8 1.1-5.2 1.5-0.5 0.2-1.2 0.1-1.2 0.7-0.1 0.9 0.9 1.9 1.9 2.2z"/>
		<path class="s1" d="m28.5 37.8c0 0.5 0 1.2 0 1.7 0 0.2 0 1.6 0.1 1.7 0.1 0.2 0.4 0 0.6 0 2.3-1.2 4.7-2.4 6.9-3.8 0.2-0.2 0.5-0.8 0.1-1-0.1 0-0.8-0.2-0.9-0.2-1.4-0.3-3.3 0.1-4.7 0.4-0.3 0.1-1.5 0.4-1.7 0.5-0.3 0.3-0.4 0.4-0.4 0.7z"/>
		<path class="s1" d="m28 46.2c0 0.1 0.1 0.1 0.2 0.1l1.3-1.1c2.2-1.4 5.9-2.7 5.8-5.6 0-0.1 0-0.1-0.1-0.2-0.2-0.2-0.7 0.1-0.9 0.2-0.8 0.3-1.5 0.8-2.3 1.1-1.2 0.6-2.6 1.1-3.8 1.7-0.2 0.1-0.7 0.4-0.8 0.5-0.1 0.3 0.2 1 0.2 1.4 0.1 0.4 0.1 1.7 0.4 1.9z"/>
		<path class="s1" d="m33.5 43.8c-0.1 0-1.3 0.9-1.6 1.1-0.8 0.5-1.7 0.8-2.5 1.3-0.4 0.2-1.5 1-1.7 1.2-0.5 0.6 0.3 2.3 0.8 2.7 0.2 0.2 0.6 0.4 0.8 0.6 0.4 0.1 0.3-0.3 0.3-0.4 0.3-0.6 0.8-1.6 1.2-2.1 0.4-0.4 1.1-0.7 1.5-1.2 0.4-0.3 0.3-0.8 0.5-1.2 0.1-0.3 0.8-1.8 0.8-1.9 0 0-0.1-0.1-0.1-0.1z"/>
		<path class="s1" d="m43.6 49.6q0.1-0.2 0-0.4c0 0 0 0-0.1 0.1-0.1 0-0.2 0.3-0.3 0 0-0.1 0.2-0.3 0.2-0.4 0.1-1-0.2-2.1 0-3 0-0.2 0.3-0.6 0.1-0.8-1 3-2.1 6.1-3.1 9.1-0.3 0.7-0.8 1.3-0.8 2.1 0.1 1.2 1.5 0.8 1.9 0 0.5-1.1 0.7-2.6 1.1-3.7 0.3-1.1 0.7-2 1-3z"/>
		<path class="s1" d="m35.9 51.6c0 0-0.1-0.5-0.1-0.5 0-0.7 0-2.6 0.1-3.1 0-0.1 0.1-0.2 0-0.3-0.5 0.5-0.8 0.4-1.1 1.1-0.5 1-0.6 2.1-1 3.2-0.1 0.7-0.6 1.2-0.5 1.9 0 0.5 0.5 1.5 1.1 1.6 0.6-0.2 1.3 0.3 1.5-0.5 0.1-0.6 0-1.3 0.1-1.9 0-0.4 0.2-1 0.2-1.3q0-0.1-0.1-0.1c0 0-0.1 0-0.2-0.1z"/>
		<path class="s1" d="m39.4 29.5c0.7 0.2 1.4 0 2 0.1 0.9 0.1 1.2 1.3 1.8 1.8 0.2 0.3 0.4 0 0.5-0.3 0.1-0.3 0.4-1.7 0.4-2 0-0.1-0.2-0.6 0-0.6 0.5-0.1 0.2 1.9 0.2 2.2 0 0.1 0.1 0.9 0.3 0.9 0 0 0.1-0.2 0.1-0.3 0.2-0.4 0-1.7 0-2.2 0-0.6 0.1-1.2 0.1-1.8 0-0.2-0.6-0.2-0.8-0.1-1.6 0.2-3.3 1-4.9 1.4-0.6 0.5-0.5 0.7 0.3 0.9z"/>
		<path class="s1" d="m17 17.9c-0.1-0.1-1.2 0.5-1.4 0.6-1.2 0.9-0.5 1.5-0.1 2.5 0.2 0.4 0.2 1.1 0.6 1.2 0.8 0.2 1.4-0.8 1.6-1.4 0.4-0.7-0.2-1.1-0.4-1.8-0.1-0.3-0.1-1-0.3-1.1z"/>
		<path class="s1" d="m32.2 49.8l-0.1-1.1c-0.6 0.4-1.8 1.6-2.2 2.2-0.4 0.8 0 1.2 0.6 1.8 0.5 0.3 1.2 0.6 1.5 0.9 0.4-0.2 0-0.6 0-0.9 0-0.2 0.2-0.5 0.3-0.7 0-0.5-0.3-1.6-0.1-2.2z"/>
		<path class="s1" d="m24 14.5c-0.2-0.1-0.9 0.1-1.2 0.2-0.3 0.1-1.7 0.7-1.9 0.9-0.1 0.2-0.1 1.1-0.1 1.4 0 0.2 0 0.7 0.4 0.6 0.2 0 1.2-0.6 1.4-0.7 0.4-0.2 0.9-0.4 1.1-0.7 0.2-0.2 0.4-1 0.4-1.2 0-0.2 0.1-0.4-0.1-0.5z"/>
		<path class="s1" d="m25 10.6c0 0-0.5-0.2-0.6-0.2-0.5-0.1-1.3 0-1.5 0.6-0.1 0.3-0.2 1.7-0.2 2 0.1 0.4 0.2 0.4 0.6 0.4 0.5-0.1 1.4-0.5 1.7-0.8 0.4-0.4 0.6-1.6 0-2z"/>
		<path class="s1" d="m45.2 47.2c0-0.2 0-0.5 0-0.7-0.9 3-2.2 5.9-3 8.8-0.1 0.4-0.2 0.4-0.2 0.8 0 0.1-0.2 0.4 0 0.2 0.3-0.1 0.7-1.1 0.8-1.5 0.9-2.2 1.8-4.5 2.6-6.7-0.4-0.2-0.2-0.6-0.2-0.9z"/>
		<path class="s1" d="m18 11.8c-0.5 0.1-0.7 0.4-0.7 0.9-0.1 0.4 0.2 0.6 0.2 1 0.1 0.6-0.1 1.5 0.5 2 0.3-0.2 0.4-0.6 0.5-0.9 0.1-0.1 0.2-0.2 0.3-0.3 0.1-0.2 0.3-1.6 0.3-1.8 0.1-0.8-0.3-1.2-1.1-0.9z"/>
		<path class="s1" d="m27.9 12.9c0.1 0.1 0.2 0.1 0.3 0 0.4-0.1 1.4-1 1.3-1.4 0-0.2-0.1-0.2-0.2-0.3-0.1-0.1-1.1-0.4-1.2-0.4-0.2-0.1-0.7-0.1-0.7 0.2 0.2 0.5 0 1.6 0.5 1.9z"/>
		<path class="s1" d="m18.1 11.4c0.3-0.1 0.4 0 0.6-0.4 0 0-0.1-0.1-0.1-0.1 0.2-0.5 0.8-1.6-0.1-1.7-0.1 0-0.8 0.1-0.8 0.1-0.3 0.1-0.3 0.6-0.3 0.9 0 0.2 0 1.3 0.1 1.4 0.2 0.1 0.5-0.2 0.6-0.2z"/>
		<path class="s1" d="m43.6 45q0.2-0.1 0-0.3 0 0.1-0.1 0.3z"/>
		<path class="s1" d="m40.1 36.2c-0.1 0-0.1 0-0.2 0.1 0.2 0.2 0.2-0.1 0.2-0.1z"/>
		<path class="s1" d="m41.6 41.7q0.3 0 0.1-0.1-0.1 0.1-0.1 0.1z"/>
		<path class="s2" d="m8.1 9c0.4-0.4 1-0.6 1.2-1 0.2-0.3 0.1-1.2-0.2-1.4-0.3-0.2-1.1-0.2-1.5-0.2-0.8 0.1-1.6 0.4-2.2 0.8-0.2 0.2-0.6 0.6-0.7 0.8-0.2 0.5 0.1 1.6 0.3 2.1 0.3 0.6 0.4 0.9 1.1 0.6 0.9-0.3 1.3-1.1 2-1.7z"/>
		<path class="s2" d="m45.6 37.1c-0.1-0.4-0.4-1-0.8-0.5-0.3 0.2-0.9 1.3-1.1 1.7-0.7 1.1-1.3 2.2-2 3.3q0.2 0.1-0.1 0.1-0.1 0.2-0.2 0.3c0.2 0.2 0.1 0.2 0.1 0.3 0 0.1-0.2 0.5-0.1 0.6 0.1 0.9 0 1.7 0.1 2.6 0 0.2 0 0.7 0.1 0.9 0.1 0.1 0.1 0.1 0.2 0 0 0 0.1-0.1 0.2-0.2 0.8-2 1.6-4.1 2.4-6.2q0.5-1.5 1.2-2.9zm-2.1 4.9q-0.1 0.2-0.3 0.3c-0.1 0 0-0.5-0.1-0.6-0.1-0.4-0.1-0.5-0.2-1 0-0.1-0.1-0.4-0.1-0.5 0.1-0.5 0.9-1.5 1.2-2.1 0.1-0.2 0.7-1.6 1-1.5 0.3 0 0.4 0.5 0.3 0.7-0.3 0.8-0.7 1.6-1 2.4-0.2 0.6-0.5 1.9-0.8 2.3z"/>
		<path class="s2" d="m41.5 35.3c-0.4 0.3-1 0.5-1.4 0.9 0 0 0 0.3-0.2 0.1q0 0 0 0.1l0.1 4.6h0.5c0.6-0.9 1.3-1.7 1.9-2.6l-0.4 0.1c0 0-0.2-0.4-0.2-0.4-0.1-0.5-0.4-1.9-0.4-2.3 0.1-0.2 0.4-0.4 0.1-0.5z"/>
		<path class="s2" d="m36.8 13c1.2 0.6 2.5 0.9 3.7 1.3 1 0.5 2 1.3 3 1.9 0.3 0.2 0.9 0.6 1.3 0.8 0.3 0.1 0.3-0.1 0.1-0.2-1.1-1.4-3.1-2.5-4.8-3.3-0.9-0.4-2-1-2.9-1.3-0.3-0.1-1.2-0.2-1.1 0.2 0 0.2 0.6 0.5 0.7 0.6z"/>
		<path class="s2" d="m8.2 13.1c-0.1-0.5-0.2-0.7-0.1-1.4 0-0.2 0.4-1.2 0.2-1.3-0.4-0.2-1.4 1.4-1.6 1.6-0.4 0.5-0.6 0.4-0.5 1.1 0.1 0.4 0.3 1.1 0.6 1.3 0.2 0.1 0.3 0.1 0.5 0.2 0.2 0.1 0.3 0.4 0.6 0 0.3-0.4 0.4-0.9 0.3-1.5z"/>
		<path class="s2" d="m45.4 42.5c-0.2 0.6-0.4 1.2-0.5 1.7l-0.2 0.6c-0.5-0.3-0.2-0.3-0.1-0.6 0-0.1-0.2-0.6-0.2-0.7 0-0.3 0-0.8 0-1.1 0-0.2 0.1-0.4 0-0.6-0.3 1-0.5 2-0.8 2.9q0.2 0.2 0 0.3h-0.1q0 0.1 0 0.1c0.2 0.2-0.1 0.6-0.1 0.8-0.2 0.9 0.1 2 0 3 0 0.1-0.2 0.3-0.2 0.4 0.1 0.3 0.2 0 0.3 0 0-0.1 0.1-0.1 0.1-0.1 0.3-0.4 0.4-1.3 0.6-1.8 0.4-1.6 1.1-3.7 1.3-5.3-0.3 0.1-0.1 0.3-0.2 0.4z"/>
		<path class="s2" d="m33.7 48.2c-0.5-0.3-1.2 0.2-1.6 0.5l0.1 1.1c-0.3 0.6 0.1 1.7 0.1 2.2-0.1 0.2-0.3 0.5-0.3 0.7 0 0.3 0.4 0.7 0 0.9 0.1 0.1 0.2 0.4 0.4 0.4 0.1 0 0.1-0.1 0.2-0.3 0.4-0.7 0.6-2.3 0.7-3.2 0.1-0.4 0.3-0.9 0.5-1.3 0-0.1 0.1-0.2 0-0.3-0.2 0.3-0.3 0.8-0.5 1.1-0.1 0-0.1 0.1-0.2 0-0.1-0.3-0.3-2.2 0.6-1.7 0.3 0.2 0 0.3 0.2 0.5 0.2-0.3 0.1-0.4-0.2-0.6z"/>
		<path class="s2" d="m46.6 40.5c-0.1-0.3-0.2-1.1-0.5-1.3-0.3-0.3-0.1 0.4-0.1 0.4 0.1 0.6 0.3 1.5 0.3 2.1-0.2 1.5-0.8 3.3-1.2 4.8 0.1 0.2 0.1 0.5 0.1 0.7 0 0.3-0.2 0.7 0.2 0.9 0.6-1.6 0.9-3.1 1.3-4.6 0.1-0.1 0.2-0.1 0-0.2q-0.2 0.3-0.4 0.6c0 0-0.1-0.1-0.1-0.1 0 0 0-0.7 0-0.8 0.1-0.7 0.2-1.1 0.2-1.8 0-0.1 0.2-0.2 0-0.4 0.1 0 0.1-0.1 0.2 0 0 0.1 0.4 1 0.4 1 0 0.2-0.1 0.1 0 0.4 0.4-0.5-0.2-1.2-0.4-1.7z"/>
		<path class="s2" d="m37.9 46.6c0.3-0.7-0.3-0.4-0.7-0.1-0.4 0.4-0.8 0.9-1.3 1.2 0.1 0.1 0.1 0.2 0 0.3-0.1 0.5-0.1 2.4-0.1 3.1 0 0 0.1 0.5 0.1 0.5 0.1 0.1 0.2 0.1 0.2 0.1 0.2-0.4 0.2-0.9 0.3-1.3 0.1-0.6 0.4-1.4 0.6-2 0.3-0.5 0.8-1 0.8-1.6 0 0-0.1-0.1-0.1 0-0.1 0.2-0.4 1.1-0.6 1.1-0.5 0 0.3-2.1 0.8-1.3z"/>
		<path class="s2" d="m9.6 12.3c0 0.1 0 0.6 0.3 0.5 0.1-0.1 0.9-1.2 1-1.3 0-0.2 0.3-0.8 0.3-0.9 0.1-0.4-0.2-0.6-0.5-0.8-0.3-0.1-0.9 0.1-1.1 0.3-0.5 0.4-0.1 1.7 0 2.2z"/>
		<path class="s2" d="m38.3 29.8c-0.1-0.2 0.2-0.5-0.2-0.4-0.3 0-1.3 0.4-1.6 0.6-0.4 0.2-0.8 0.5-1.2 0.8 0 0.2-0.1 0.2-0.2 0.1q-0.1 0.1-0.2 0.2c0 0 0 0 0 0.1 0 0-0.2 0-0.2 0.1 0 0 0.2 0.1 0.2 0.2 0.5-0.2 1.1-0.4 1.6-0.4 0.1-0.1 0.6 0 0.8-0.1 0.1 0 1-0.5 1.1-0.6 0.5-0.3 0.1-0.3-0.1-0.6z"/>
		<path class="s2" d="m16.6 26.7c0.1-0.1 0.7-1.3 0.7-1.4 0-0.2-0.2-0.9-0.4-1.1-0.2-0.1-0.6-0.2-0.8 0-0.1 0-0.7 0.6-0.7 0.8-0.1 0.1-0.1 0.7 0 0.9 0.2 0.2 0.7 0.6 1 0.9 0 0 0.1-0.1 0.2-0.1z"/>
		<path class="s2" d="m34 11.9c0.1 0 0.2-0.1 0.3-0.1 0.2 0 0.7 0.3 0.9 0.1 0.2-0.3 0.2-0.8-0.1-1.1-0.3-0.2-1.3-0.3-1.7-0.5-0.2 0-0.8 0.3-0.8 0.5 0.1 0.1 0.4 0.6 0.4 0.7 0.3 0.3 0.6 0.3 1 0.4z"/>
		<path class="s2" d="m9.5 16.6c0.3 0 1-1.4 1-1.7 0.1-0.3-0.2-1.2-0.5-1.2-0.3-0.1-0.9 1.1-1 1.4-0.1 0.5 0.2 0.6 0.3 1 0.1 0.1-0.1 0.4 0.1 0.5z"/>
		<path class="s2" d="m20.8 8.3c0.2 0.1 0.8 0.3 1.1 0.3 0.5 0 0.3-0.6 0.7-0.8-0.3-0.6-1.3-0.6-2-0.6-0.2 0-0.3-0.2-0.4 0.1-0.5 0.9 0 0.8 0.6 1z"/>
		<path class="s2" d="m20 29.4c0-0.2-0.4-0.8-0.7-0.6 0 0-0.5 0.6-0.6 0.7-0.1 0.3-0.1 0.5 0.1 0.9 0.6 1.6 1.2 1.1 1.3-0.3 0-0.1-0.1-0.2-0.1-0.2 0-0.2 0.1-0.3 0-0.5z"/>
		<path class="s2" d="m31.5 11.7c0.2 0.1 1.4 0.6 1.5 0.6 0.3-0.1 0-0.4-0.1-0.5-0.4-0.5-2.7-1.6-3.3-1.6-0.1 0-0.1 0-0.2 0.1 0.1 0.1 0.2 0.4 0.3 0.5 0.2 0.3 1.4 0.8 1.8 0.9z"/>
		<path class="s2" d="m27.3 9.7c0.2 0.1 0.5 0.5 0.7 0.3 0-0.1 0-0.2 0.1-0.3 0.1 0 0.4-0.4 0.4-0.4-0.1-0.2-1.6-1-1.9-1.1-0.3 0-0.6 0.3-0.7 0.5-0.2 0.5 1 0.8 1.4 1z"/>
		<path class="s2" d="m10.3 19.1c0.1 0.3 0.4 1.2 0.6 1.4 0.3 0.3 0.6-0.2 0.7-0.4 0.2-0.3 0-1.3-0.2-1.7-0.5-0.7-1.1 0.1-1.1 0.7z"/>
		<path class="s2" d="m26 10.2c0.2 0 0.4 0.2 0.5 0 0.1-0.1 0-0.2-0.1-0.3-0.4-0.3-1.5-0.9-2-1.1-0.1-0.1-1-0.4-1-0.1 0 0 0.2 0.6 0.3 0.7 0.1 0.1 0.2 0.2 0.3 0.3 0.2 0.1 1.4 0.5 1.6 0.6 0.2 0 0.3-0.1 0.4-0.1z"/>
		<path class="s2" d="m17.7 27.3c-0.1 0.3 0.2 1.2 0.3 1.4 0.2 0.3 0.4 0.1 0.5-0.1 0.6-0.5 1-1.5 0.1-2-0.3-0.3-0.9 0.4-0.9 0.7z"/>
		<path class="s2" d="m11.1 7.9c0-0.1 0.1 0 0.1 0 0.5-0.2 0.4-0.5 0.4-1 0.1-0.2 0.3-0.3 0-0.5-0.4-0.3-1.2 0.2-1.5 0.6-0.1 0.3 0 0.8 0.1 1.2 0.3 0 0.6-0.2 0.9-0.3z"/>
		<path class="s2" d="m21.5 34.2c-0.3 0.1-0.3 0.5-0.5 0.7-0.1 0.1-0.3 0.1-0.4 0.3-0.3 0.3-0.1 1.1 0.1 1.5 0.9 0 1-1.3 1.2-1.9q-0.1-0.4-0.4-0.6z"/>
		<path class="s2" d="m29.8 36.2c0.2-0.3-0.1-0.6-0.1-0.8 0-0.2 0.4-1-0.3-0.6-0.7 0.5-0.9 1.3-1.5 1.9 0.7 0.4 1.3-0.3 1.9-0.5z"/>
		<path class="s2" d="m20.7 9.9c0.4 0 1.4-0.2 1.2-0.7-0.1-0.2-0.8-0.5-1-0.6-0.1 0-0.2 0.1-0.3 0.1-0.3 0-0.3-0.2-0.6 0.1-0.6 0.6 0 1.1 0.7 1.1z"/>
		<path class="s2" d="m15.3 17.7c-0.3 0.2-0.4 0.5-0.7 0.8-0.1 0.1-0.3 0.1-0.1 0.2 0.7-0.5 1.2-1.2 1.8-1.8 0.4-0.3 0.7-0.3 0.7-0.9 0.1-0.5 0-1.7-0.1-2.1-0.1-0.2-0.3-0.5-0.4-0.7-0.1-0.2-0.3-0.1-0.4-0.1-0.9 0.3-1.8 1-2.4 1.6 0.6-0.3 1-0.6 1.6-0.9 0.2-0.2 0.8-0.5 1-0.4 0.2 0.1 0.5 1.1 0.5 1.3 0 0.1-0.1 1.4-0.1 1.5-0.1 0.4-1.1 1.1-1.4 1.5z"/>
		<path class="s2" d="m13.8 23c0 0-0.1-0.1-0.1-0.1 0.1-0.5 0.2-1-0.2-1.4-0.3-0.4-0.6-0.1-0.8 0.3-0.4 0.5 0.2 1 0.4 1.4 0.2 0.2 0.5 0 0.7-0.2z"/>
		<path class="s2" d="m21.3 33.3c0.2-0.4 0-1-0.5-1.2-0.3-0.2-0.5 0.3-0.6 0.6-0.2 0.9 0.5 1.9 1.1 0.6z"/>
		<path class="s2" d="m11.3 8.2c-0.5 0.1-1.1 0.3-0.8 0.9 0.1 0.2 0.2 0.4 0.4 0.3 1.2-0.2 2-1.6 0.4-1.2z"/>
		<path class="s2" d="m36.8 58.7c-0.2-0.1-1.2 0-1.5 0.1 0 0.1-0.1 0.2-0.1 0.2 0.1 0.1 0.3 0 0.3 0.1v0.2c0 0.1-0.5 0.2-0.3 0.3 0.5-0.2 1-0.4 1.5-0.2 0.2 0.1 0.8 0.5 0.8 0.1 0.1-0.4-0.3-0.8-0.7-0.8z"/>
		<path class="s2" d="m32.3 35.3h0.1c0.1 0 0.2 0 0.3 0 1.1-0.4 0.7-0.8 0.5-1.6 0-0.1 0.1-0.5 0-0.6-0.1-0.2-0.8 0.2-1 0.3 0.2 0 0.5 0 0.5 0.1 0 0-0.1 0.2-0.1 0.2 0.1 0.4-0.1 0.7 0 1 0 0.3 0.4 0.3-0.3 0.6z"/>
		<path class="s2" d="m26.1 39.7c-0.1 0-0.1 0-0.2 0.1 0 0-0.3 0.7-0.3 0.9 0 0.1-0.1 0.9-0.1 1 0.4 0.5 1.2-0.7 1-1.3-0.1-0.1-0.3-0.6-0.4-0.7z"/>
		<path class="s2" d="m13.6 9.2c0.7-0.2 1.6-0.3 2.4-0.3 0.2-0.1 0.3 0 0.4 0 0.2-0.1 0.6-0.3 0.4-0.5-0.1-0.2-0.9-0.3-1.1-0.3-0.7-0.2-1.2-0.1-1.9-0.1-0.1 0-0.2 0-0.3 0.1 0.4 0 1 0 1.5 0.1 0.1 0 0.2 0.1 0.4 0.1 0.1 0 0.2-0.2 0.4 0.2q-0.1 0.1-0.2 0.2c-0.2 0.1-1.9 0.3-2.1 0.3-0.3 0-0.6 0-0.7-0.3-0.1-0.4 0.4-0.4 0.6-0.6-1.2 0-1 1.3 0.2 1.1z"/>
		<path class="s2" d="m16.9 28c-0.2-0.1-0.4 0.1-0.4 0.2-0.3 0.4 0.3 2.2 0.8 1.3 0.3-0.4 0-1.3-0.4-1.5z"/>
		<path class="s2" d="m14.6 13c-0.2 0.1-0.3 0.3-0.4 0.4l2.1-1.4c0.1-0.1 0.2-0.3 0.3-0.4 0-0.1 0.1-1.2 0.1-1.2-0.2-0.9-1.5-0.7-2.2-0.6-0.3 0.1-0.7 0.2-0.9 0.3 0.2 0.2 0.5-0.1 0.6-0.1 0.1 0 0.3 0 0.4 0 1.1-0.1 1.8-0.4 1.8 0.9 0 0 0 0.5 0 0.6-0.2 0.6-1.3 1.1-1.8 1.5z"/>
		<path class="s2" d="m27.1 40.1c0 0-0.1 0.1-0.1 0.1 0.2 0.2 0.5-0.1 0.6-0.2 0.1-0.2 0.3-1 0.3-1.2 0-0.6 0.1-1.5-0.8-0.9 0 0.1-0.1 0.2-0.1 0.3 0.3-0.4 0.4 0.2 0.4 0.4 0 0.2-0.1 0.6-0.1 0.9 0 0.4 0.3 0.3-0.2 0.6z"/>
		<path class="s2" d="m22.4 37.3q-0.1 0-0.2 0c-0.1 0.2-0.5 1-0.4 1.2 0.4 0.6 1.1 0.1 1.1-0.4 0-0.2-0.3-0.7-0.5-0.8z"/>
		<path class="s2" d="m8.9 16.7c-0.2-0.5-0.9-0.4-1 0 0 0.2 0.2 1.2 0.3 1.2 0.4-0.3 0.9-0.6 0.7-1.2z"/>
		<path class="s2" d="m14.7 24.3c0.2 0 0.7-0.6 0.7-0.7 0.1-0.2-0.5-0.7-0.7-0.6 0 0-0.4 0.2-0.4 0.3-0.4 0.3 0.1 1.1 0.4 1z"/>
		<path class="s2" d="m30.1 52.8c-0.2-0.2-0.6-0.4-0.8-0.1-0.3 0.5 0.8 1.2 1.2 1.1 0.4-0.2-0.1-0.8-0.4-1z"/>
		<path class="s2" d="m15.4 26.7c-0.6-0.4-1.3 0.1-0.8 0.7 0.7 0.7 1.6-0.2 0.8-0.7z"/>
		<path class="s2" d="m17.9 30.6c-0.1 0-0.2 0.1-0.2 0.1-0.1 0.1 0.5 1.1 0.5 1.2 0.1 0.1 0.4 0.1 0.5 0 0.5-0.3-0.3-1.5-0.8-1.3z"/>
		<path class="s2" d="m18.6 8.4c0.3-0.1 0.4 0.1 0.7-0.2 0.8-1.2-1.4-1.1-2.1-1.1 0.5 0.2 1 0.1 1.4 0.3l0.5 0.2c0.2 0.1 0 0.5-0.2 0.6-0.7 0.3-1.5-0.4-2.1-0.4 0.3 0.1 1.1 0.6 1.4 0.7 0.1 0 0.3-0.1 0.4-0.1z"/>
		<path class="s2" d="m10 17.7c0.2 0.1 0.7-0.2 0.8-0.4 0.1-0.2 0-1-0.4-0.8-0.2 0.1-0.7 0.6-0.7 0.7 0 0.1 0.2 0.4 0.3 0.5z"/>
		<path class="s2" d="m13.3 24.5c-0.4 0.4 0.1 0.9 0.4 1.2 0.4-0.2 0.5-0.8 0.2-1.1-0.2-0.4-0.3-0.4-0.6-0.1z"/>
		<path class="s2" d="m39.9 58.2c0 0 0.5 0.1 0.6 0.1 0.2 0 0.6-0.4 0.5-0.6-0.2-0.6-1.8-0.1-1.1 0.5z"/>
		<path class="s2" d="m39.2 59.6c-0.3 0-0.6-0.3-0.9 0 0.6 0.4 1.5 0.7 2.2 0.3 0-0.5-0.8-0.2-1.3-0.3z"/>
		<path class="s2" d="m19.3 33.7c0 0.1 0.2 0.8 0.3 0.8 0.4 0 0.3-0.5 0.3-0.7 0-1.2-0.8-1.1-0.6-0.1z"/>
		<path class="s2" d="m25.4 45.1l-0.1 0.1c0 0.6 0.3 1.2 0.5 1.7 0.6-0.7 0.3-1.3-0.4-1.8z"/>
		<path class="s2" d="m27.2 44.4c0-0.3-0.1-0.9-0.6-0.5 0.4 0.3 0.1 0.3 0 0.4 0 0.1 0.1 0.2 0.1 0.2 0 0.3 0 0.6-0.2 0.8 0 0 0 0.1 0.1 0.2 0.7 0.2 0.6-0.7 0.6-1.1z"/>
		<path class="s2" d="m9.6 20.6c-0.3 0.3 0.1 1 0.4 1.2 0.1-0.1 0.5-0.5 0.5-0.6 0-0.1-0.5-1.1-0.9-0.6z"/>
		<path class="s2" d="m31.5 53.8c-0.1 0-0.3 0.2-0.3 0.3-0.2 0.3 0.5 1 0.7 1 0.2-0.1 0.4-0.6 0.4-0.7-0.1-0.1-0.7-0.6-0.8-0.6z"/>
		<path class="s2" d="m25.7 44c0.5-0.4 1-1.4 0.4-1.8-0.2-0.2-0.2 0-0.3 0.1 0 0.1-0.1 0.3-0.1 0.5 0 0.2 0.1 0.6 0.1 0.8-0.1 0.1-0.3 0.2-0.1 0.4z"/>
		<path class="s2" d="m9.6 18.1c-0.1-0.6-0.7 0.2-0.8 0.6 0 0.2 0.1 0.7 0.4 0.7 0.4-0.1 0.4-1 0.4-1.3z"/>
		<path class="s2" d="m36.4 55.8c-0.5 0.1-0.4 1.5 0.3 1.2 0.2-0.1 0.4-0.5 0.3-0.6-0.1-0.1-0.5-0.7-0.6-0.6z"/>
		<path class="s2" d="m12.1 23.3c-0.7 0.2 0 1.3 0.3 1.2 0.6-0.2 0.3-1.3-0.3-1.2z"/>
		<path class="s2" d="m39.4 58.6c0 0 0.2-0.3 0.2-0.3 0-0.2-0.6-0.5-0.8-0.5 0 0.1-0.2 0.3-0.3 0.4-0.3 0.4 0.5 0.9 0.9 0.4z"/>
		<path class="s2" d="m27.5 50c0.4-0.5-0.3-1-0.5-1.5-0.2-0.1-0.3 0.4-0.3 0.5 0 0 0.1 0.3 0.1 0.3 0.1 0.2 0.5 0.5 0.7 0.7z"/>
		<path class="s2" d="m13.2 7.8c0.1 0 1-0.2 1-0.2 0.2-0.1 0.2-0.3 0.1-0.4-0.2-0.1-1 0-1.1 0.1-0.4 0.1-0.6 0.6 0 0.5z"/>
		<path class="s2" d="m27.2 40.8c0.1 0.2 0.2 0.3 0.2 0.5 0 0 0 0.1 0 0.2 0 0.3 0.1 0.4-0.2 0.7 0.3-0.1 0.5-0.1 0.7-0.4 0.1-0.2 0-1.5-0.7-1z"/>
		<path class="s2" d="m34.6 57.5c-0.9-0.6-0.6 1.2 0.1 0.9 0.3-0.2 0.1-0.7-0.1-0.9z"/>
		<path class="s2" d="m31.6 55.3c-0.3-0.2-0.4 0.1-0.3 0.3 0.1 0.3 0.8 1.2 0.9 0.6 0-0.3-0.3-0.8-0.6-0.9z"/>
		<path class="s2" d="m26.3 46.9c-0.6 0.4-0.2 0.9-0.2 1.4 0 0.1-0.1 0.4 0.1 0.4 0 0 0.2-0.3 0.3-0.3 0-0.2 0-1.5-0.2-1.5z"/>
		<path class="s2" d="m28.5 52.1c0-0.1-0.1-0.3-0.3-0.4-0.1 0.1-0.2 0.2-0.2 0.3 0 0.2 0.6 1.3 0.7 1.3 0.4-0.3 0-0.7-0.2-1 0-0.1 0-0.1 0-0.2z"/>
		<path class="s2" d="m29.2 51.4c-0.1-0.2-0.2-0.2-0.3-0.4 0 0 0-0.1 0-0.1 0-0.1-0.6-0.2-0.6 0.2 0 0.5 1 1.2 0.9 0.3z"/>
		<path class="s2" d="m35.4 57.5c0.4-0.7 0.4-0.9-0.4-1.2-0.1 0.3 0.1 0.6 0 0.9 0.2 0.1 0.3 0.2 0.4 0.3z"/>
		<path class="s2" d="m15.7 6.9c0.1 0 0.2-0.2 0.1-0.2 0-0.3-0.9-0.2-1.1-0.1-0.1 0-0.2-0.1-0.2 0.1 0 0.5 1 0.4 1.2 0.2z"/>
		<path class="s2" d="m30.1 54.3c-0.3-0.2-1.4-0.5-0.8 0.1 0 0 0.6 0.4 0.6 0.4 0.4 0.1 0.5-0.3 0.2-0.6z"/>
		<path class="s2" d="m10.8 22.3c0 0.3 0.3 0.6 0.5 0.4 0 0 0.2-0.6 0.2-0.6 0-0.5-0.8-0.5-0.7 0.2z"/>
		<path class="s2" d="m27 50.2c-0.3 0.1 0.4 1.1 0.6 1.2 0.1-0.1 0.3-0.4 0.2-0.6-0.1-0.1-0.7-0.7-0.8-0.6z"/>
		<path class="s2" d="m33.1 55.4c-0.2 0.1 0.1 0.1 0.1 0.3 0.2 0.5 0.1 0.6-0.4 0.5 0.2 0.1 0.4 0.3 0.7 0.2 0.7-0.2 0.1-1-0.4-1z"/>
		<path class="s2" d="m27 47.4c0.6-0.3 0.5-0.8 0-1.2-0.3 0.1-0.2 1.2 0 1.2z"/>
		<path class="s2" d="m37.4 56.8c0.3 0.1 0.6 0.3 0.5 0.6 0 0.3-0.2 0.3-0.4 0.1-0.1 0.1 0.1 0.1 0.1 0.2 0.3 0.3 0.5 0.5 0.7 0 0.2-0.5-0.6-1-0.9-0.9z"/>
		<path class="s2" d="m11.8 21.1c0 0.5 1 0.1 0.5-0.3-0.2-0.1-0.5 0.1-0.5 0.3z"/>
		<path class="s2" d="m45.6 38.8c0-0.1 0.1-0.3-0.1-0.5-0.2 0.1-0.1 0.4-0.2 0.4z"/>
		<path class="s2" d="m14.4 18.8c-0.1 0.1-0.5 0.2-0.2 0.3 0.1-0.1 0.2-0.2 0.2-0.3z"/>
		<path class="s2" d="m13.2 14.4c0.1 0 0.2-0.1 0.2-0.2-0.1 0.1-0.4 0.1-0.2 0.2z"/>
		<path class="s2" d="m34.9 59.1c0 0.3 0.3 0.1 0.1-0.1q0 0-0.1 0.1z"/>
		<path class="s2" d="m41.7 35.2c0 0 0-0.1-0.1 0q0.1 0.2 0.1 0z"/>
		<path class="s2" d="m42.1 34.9q-0.1 0-0.2 0.1c0.1 0.1 0.2-0.1 0.2-0.1z"/>
		<path class="s2" d="m17.1 7.1q-0.1 0-0.2 0c0 0 0 0.2 0.2 0z"/>
		<path class="s2" d="m13.9 19.4q0.1-0.1 0.1-0.2c0 0-0.2 0.1-0.1 0.2z"/>
		<path class="s2" d="m14 13.6q0.1 0 0.1-0.1c-0.1-0.1-0.2 0.1-0.1 0.1z"/>
		<path class="s2" d="m46.8 43.2q0-0.1 0-0.1z"/>
		<path class="s2" d="m13.8 13.8h-0.1v0.1q0.1-0.1 0.1-0.1z"/>
		<path class="s2" d="m16.4 7.8q0.1 0.1 0.2 0.1c-0.1-0.1-0.1-0.1-0.2-0.1z"/>
		<path class="s2" d="m13.3 10.2c0 0.1 0.1 0 0.1 0-0.1 0-0.1 0-0.1 0z"/>
		<path class="s2" d="m46.9 42.9l-0.1 0.1q0.1-0.1 0.1-0.1z"/>
		<path class="s2" d="m13.5 14v0.1z"/>
		<path class="s2" d="m42.7 37.8v0.1z"/>
		<path class="s3" d="m42.8 21.7c-0.3-0.3-1.3-0.1-1.7-0.1-0.4 0.1-0.8 0.3-1.2 0.3-0.5 0.1-0.8 0-1.3 0.1 0.1 0.3 0.5 0.2 0.6 0.5-0.1 0.6 0 1.2 0 1.8-0.1 0.6-0.4 0.7-0.6 1.2 0 0.1 0 0.3 0 0.4-0.1 0.1-0.2 0.2-0.3 0.3-0.1 0.1 0 0.3-0.1 0.4-0.1 0.1-0.3 0.1-0.4 0.3-0.1 0.1 0 0.3-0.1 0.3 0 0.1-0.3 0.2-0.4 0.3-0.2 0.2-0.2 0.4-0.5 0.6-0.1 0.1-0.5 0.1-0.5 0.2-0.1 0-0.1 0.1-0.1 0.2 0 0-0.2 0-0.3 0.1-0.2 0.1-0.2 0.3-0.4 0.4-0.2 0.2-1 0.4-1.3 0.5-0.1 0.1-0.3 0.2-0.4 0.3-0.2 0-0.3-0.1-0.4 0-0.3 0-0.5 0.2-0.8 0.3-0.3 0-2.6 0-2.8-0.1-0.3-0.1-1-0.3-1.3-0.5-0.1 0-0.7-0.3-0.7-0.3 0 0 0.1-0.3 0.1-0.4 0.1-0.1 0.2-0.1 0.1-0.2-0.3 0.3-0.5 0.5-0.8 0.7-0.9 0.8-1.9 1.8-2.9 2.7-0.6 0.5-1.1 0.7-1.4 1.5-0.6 1.1-0.6 2.2 0.2 3.2 0.5 0.8 0.7 0.8 1.5 0.3 2.1-1.4 4.2-3.1 6.3-4.5 2.6-1.8 5.3-3.6 8-5.4 0.4-0.3 1.2-0.8 1.6-1 1-0.4 2.1 0.8 2.3 0.7q0.2-0.1 0.2-0.3c0.2-0.4 0.1-1.3 0.2-1.8 0-0.1 0.2-0.2 0.2-0.5 0.1-0.4-0.3-0.9-0.5-1.4-0.1-0.3 0-0.9-0.1-1.1z"/>
		<path class="s3" d="m25.3 17.7c0.3-0.2 0.4-0.5 0.6-0.7 0.3-0.2 2-1.2 2.3-1.3 1.5-0.3 3-0.6 4.5-0.3 1.3 0.2 3.6 1.1 4.4 2 0.1 0.1 0.1 0.2 0.2 0.3 0.1 0.1 0.4 0.2 0.5 0.3 0.1 0.1 0.1 0.3 0.2 0.4 0.3 0.5 1.1 1.5 1.2 2 0.1 0.7-0.3 0.5-0.7 0.6-0.1 0-0.2 0.1-0.2 0.1 0.1 0.2 0.2 0.1 0.3 0.1 0.7-0.1 1.4-0.2 2-0.3 1.1-0.1 2.7-0.1 3.6-0.4 0.9-0.2 0.7-0.7 0.2-1.2-2.2-2.6-5-4.2-8.2-5.5-1.3-0.6-4.1-1.6-5.5-1.5-0.8 0.1-2.6 1-3.2 1.6-0.3 0.2-1.9 2.5-1.9 2.7 0 0.1 0.2 0.1 0.1 0.2-0.2 0.3-1.1 0.4-0.4 0.9z"/>
		<path class="s3" d="m21.1 25.9c0.5-0.3 1-0.8 1.5-1.2 0.8-0.6 1.7-1.3 2.5-2.1-0.2-0.1-0.2 0-0.3 0.1-0.4 0.3-0.7 0.6-1.1 0.9-0.1 0 0 0.1-0.1 0 0.2-0.2 0.1-0.2 0.1-0.4 0.1-0.4-0.1-0.8 0-1.2 0-0.1 0.1-0.2 0.1-0.3 0.1-0.4 0-0.7 0.1-1 0.2-0.7 0.7-1 0.9-1.6 0.1-0.1-0.1-0.4 0.2-0.3 0.5 0.3 1 0.7 1.4 1 0.1 0.1 0.2 0.3 0.3 0.1-0.4-0.4-0.8-0.6-1.1-0.9-0.1 0-0.2-0.2-0.3-0.3-0.7-0.5-1.4-0.9-2.3-0.6-1.6 0.4-3.4 1.9-4 3.2-0.4 0.9-0.5 3 0.2 3.8 0.3 0.4 1.3 1.1 1.9 0.8z"/>
		<path class="s3" d="m25.9 29.3c0.5-0.4 0.9-0.9 1.4-1.4-0.3-0.1-0.5 0.4-0.6 0.4-0.1-0.3-0.4-0.3-0.6-0.5q-0.9-0.8-1.5-1.9c-0.2-0.3-0.2-1.2-0.8-0.9l0.1-0.2c-1.3 0.9-2.2 1.1-3.1 2.5-0.3 0.6-0.4 0.8-0.3 1.5 0 0.8 0.3 1.8 0.7 2.5 0.3 0.5 0.5 1.1 1.1 0.9 1.1-0.4 2.8-2.1 3.7-2.9z"/>
		<path class="s3" d="m45.1 22.9c0-0.4-0.2-0.8-0.2-1.2q-0.1-0.2-0.2-0.2c-0.1-0.1-0.2 0-0.3 0-1.8 0.2-0.4 1.5-0.3 2.4 0 0.5-0.4 2 0.4 1.8 0.1-0.3 0.4-0.6 0.4-0.9 0.1-0.1 0.2-1.7 0.2-1.9z"/>
		<path class="s3" d="m32.2 35c-0.1-0.3-0.1-0.5-0.1-0.8 0-0.2 0.1-0.3 0.1-0.4 0 0-0.2-0.2-0.2-0.4-0.6 0.4-0.7 0.9-0.6 1.5 0.1 0.6 0.5 0.5 1 0.4h-0.1c-0.3 0-0.1-0.1-0.1-0.3z"/>
		<path class="s3" d="m35.2 59q-0.1 0-0.2 0c0.2 0.1-0.1 0.4-0.1 0.1-0.3 0.1-1 0.5-0.8 0.9q0 0.1 0.1 0.1c0.2-0.1 0.8-0.4 1-0.5-0.2-0.1 0.3-0.2 0.3-0.2v-0.2c0-0.2-0.2-0.1-0.3-0.2z"/>
		<path class="s3" d="m25.8 42.3c-0.3 0.1-0.4 0.1-0.5 0.5 0 0.1 0 1.1 0 1.1 0.1 0.3 0.2 0.2 0.4 0.1-0.2-0.2 0-0.3 0-0.4 0.1-0.2 0-0.6 0-0.8 0-0.2 0.1-0.4 0.1-0.5z"/>
		<path class="s3" d="m27.1 37.9c0 0-0.1 0-0.1 0-0.2 0.2-0.3 0.5-0.3 0.7 0 0.1 0 0.9 0 1 0.1 0.2 0.2 0.5 0.3 0.6 0 0 0.1-0.1 0.1-0.1-0.1-0.1-0.1-0.2-0.1-0.3 0-0.5 0-0.9 0-1.4 0-0.1-0.1 0 0-0.2 0-0.1 0.1-0.2 0.1-0.3z"/>
		<path class="s3" d="m27.2 40.8c-0.2 0.3-0.3 0.4-0.3 0.7 0 0.2 0 0.7 0.3 0.7 0.3-0.3 0.2-0.4 0.2-0.7 0-0.1 0-0.2 0-0.2 0-0.2-0.1-0.3-0.2-0.5z"/>
		<path class="s3" d="m33.1 55.4c-0.3-0.1-0.6 0.3-0.5 0.6 0.1 0.2 0.2 0.1 0.2 0.2 0.5 0.1 0.6 0 0.5-0.5-0.1-0.2-0.4-0.2-0.2-0.3z"/>
		<path class="s3" d="m26.6 43.9c-0.5 0.3-0.3 1-0.1 1.4 0.2-0.2 0.2-0.5 0.2-0.8 0 0-0.1-0.1-0.1-0.2 0.1-0.1 0.4-0.1 0-0.4z"/>
		<path class="s3" d="m37.4 56.8c-0.2 0.1-0.1 0.6 0 0.8 0.1 0.1 0.1 0.2 0.2 0.1 0-0.1-0.2-0.1-0.1-0.2 0.2 0.2 0.4 0.2 0.4 0 0.1-0.4-0.2-0.6-0.5-0.7z"/>
		<path class="s3" d="m34.8 56.2c-0.2 0.3-0.3 0.7 0.1 1 0 0.1 0.1 0 0.1 0.1 0.1-0.4-0.1-0.7 0-1 0 0-0.2-0.2-0.2-0.1z"/>
		<path class="s3" d="m34.9 31.2c0-0.1 0-0.1 0-0.1-0.3 0.1-0.5 0.3-0.8 0.5 0 0.2 0.8-0.1 0.8-0.1 0-0.1-0.2-0.2-0.2-0.2 0-0.1 0.2-0.1 0.2-0.1z"/>
		<path class="s3" d="m25.9 21.8c-0.3 0.2-0.5 0.5-0.7 0.7 0.4-0.2 0.7-0.5 1-0.8-0.2-0.1-0.2 0-0.3 0.1z"/>
		<path class="s3" d="m27.1 20.9c0.3-0.3 0.1-0.7-0.3-0.9 0.1 0.1 0.3 0.4 0.3 0.4 0.1 0.2-0.1 0.4 0 0.5z"/>
		<path class="s3" d="m26.4 21.4c0 0.1 0 0.1 0 0.1 0.2-0.1 0.3-0.2 0.4-0.3 0-0.2-0.3 0.1-0.4 0.2z"/>
		<path class="s3" d="m35.3 30.8c0 0-0.1 0-0.2 0.1 0.1 0.1 0.2 0.1 0.2-0.1z"/>
		<path class="s3" d="m38.2 22.1c0.1 0.1 0.1 0 0.2 0-0.1-0.2-0.2 0-0.2 0z"/>
		<path class="s3" d="m25.5 16.8q-0.1 0-0.1 0.1c0 0 0.2 0 0.1-0.1z"/>
		<path class="s3" d="m29.8 25.1q-0.1 0.1-0.1 0.1h0.1v-0.1z"/>
		<path class="s3" d="m28.3 26.8h-0.1v0.1z"/>
		<path class="s3" d="m24.7 24.2v-0.1l-0.1 0.1z"/>
		<path class="s3" d="m24.5 24.4v-0.1l-0.1 0.1z"/>
		<path class="s3" d="m27.6 27.6h-0.1z"/>
		<path class="s3" d="m25.2 23.8v-0.1h-0.1z"/>
		<path class="s3" d="m25.5 17.8h-0.1c0 0.1 0.1 0 0.1 0z"/>
		<path class="s4" d="m38 18.4c-0.1-0.1-0.1-0.3-0.2-0.4-0.1-0.1-0.4-0.2-0.5-0.3-0.1-0.1-0.1-0.2-0.2-0.3-0.8-0.9-3.1-1.8-4.4-2.1-1.5-0.2-3 0.1-4.5 0.4-0.3 0.1-2 1.1-2.3 1.3-0.2 0.2-0.3 0.5-0.6 0.7-0.7-0.5 0.2-0.6 0.4-1 0 0-0.1-0.1-0.1-0.1q0 0.1-0.1 0.2c0 0.1-0.1 0.1-0.2 0.1-0.5 0.5-0.6 0.5 0.1 0.9h0.1c0.9 0.7 1.4 1.3 2.2 2 0.8 0.6 1.7 0.5 2.6 0.7 1.3 0.4 2.5 1.1 3.9 1.1 0.6 0 3.7-0.3 4-0.5 0.1 0 0.2-0.1 0.3-0.1 0.3-0.2 0.8 0 0.7-0.6-0.1-0.5-0.9-1.6-1.2-2z"/>
		<path class="s4" d="m38.6 22c0 0 0 0-0.2 0.1-0.1 0-0.1 0.1-0.2 0-0.8 0-1.5 0.2-2.3 0.3-0.6 0.1-1.9-0.1-2.4 0.3-0.3 0.2-0.8 0.9-1 1.2-1.6 1.7-3.1 3.1-4.7 4.7-0.2 0.2-0.4 0.5-0.6 0.7 0.3-0.2 0.6-0.4 0.8-0.7 0.1 0.1 0 0.1-0.1 0.2 0 0.1-0.1 0.4-0.1 0.4 0 0 0.6 0.3 0.7 0.3 0.3 0.1 1 0.4 1.3 0.5 0.2 0.1 2.6 0.1 2.8 0.1 0.3-0.1 0.5-0.3 0.8-0.3 0.1 0 0.2 0 0.4 0 0.1-0.1 0.3-0.2 0.4-0.3 0.3-0.1 1.1-0.3 1.4-0.5 0.1-0.1 0.1-0.3 0.3-0.4 0.1-0.1 0.3-0.1 0.3-0.1 0-0.1 0-0.2 0.1-0.2 0-0.1 0.4-0.1 0.6-0.2 0.2-0.2 0.3-0.4 0.4-0.5 0.1-0.2 0.4-0.3 0.4-0.4 0.1 0 0-0.2 0.1-0.3 0.1-0.2 0.3-0.2 0.4-0.3 0.1-0.1 0-0.3 0.1-0.4 0.1-0.1 0.2-0.2 0.3-0.3 0-0.1 0-0.3 0-0.4 0.2-0.5 0.5-0.6 0.6-1.2 0-0.6-0.1-1.2 0-1.8-0.1-0.3-0.5-0.2-0.5-0.5z"/>
		<path class="s4" d="m27.3 27.9q0.1-0.1 0.2-0.3h0.1q0.3-0.4 0.6-0.7v-0.1h0.1c0.5-0.5 0.9-1.1 1.4-1.6q0 0 0.1-0.1c0.9-0.8 1.6-1.8 2.4-2.7-0.2-0.3-0.7-0.3-1-0.4-1-0.5-1.3-0.8-2.5-0.7-1.4 0.1-2.6 1.5-3.5 2.4v0.1l-0.1-0.1q-0.2 0.2-0.4 0.4v0.1h-0.1q0 0-0.1 0.1v0.1h-0.1c-0.2 0.1-0.3 0.2-0.5 0.4l-0.1 0.2c0.6-0.3 0.6 0.6 0.8 0.9q0.6 1.1 1.5 1.9c0.2 0.2 0.5 0.2 0.6 0.5 0.1 0 0.3-0.5 0.6-0.4z"/>
		<path class="s4" d="m13.4 14.2q0 0 0.1-0.1v-0.1q0.1 0 0.2-0.1v-0.1h0.1q0.1-0.1 0.2-0.2c-0.1 0 0-0.2 0.1-0.1q0.1 0 0.1-0.1c0.1-0.1 0.2-0.3 0.4-0.4 0.5-0.4 1.6-0.9 1.8-1.6 0 0 0-0.5 0-0.5 0-1.3-0.7-1-1.8-0.9-0.1 0-0.3 0-0.4 0-0.1 0-0.4 0.3-0.6 0.1q-0.1 0-0.2 0.1c0 0-0.1 0.1-0.1 0-1.4 0.7-2.9 3-2.5 4.5 0 0.1 0.1 0.2 0.1 0.4 0.1 0.5-0.2 1.8 0.9 1.2 0.7-0.4 0.8-1.3 1.4-1.9-0.2-0.1 0.1-0.1 0.2-0.2z"/>
		<path class="s4" d="m16.3 13.4c-0.2-0.1-0.8 0.3-1 0.4-0.6 0.3-1 0.7-1.6 0.9-0.4 0.5-1.1 1.2-1.3 1.7-0.2 0.5-0.3 2.4-0.1 2.9 0.1 0.5 0.4 0.7 0.9 0.5 0.3-0.1 0.5-0.3 0.7-0.4-0.1-0.1 0.1-0.2 0.1-0.2q0.1 0 0.2-0.1c-0.3-0.1 0.1-0.2 0.2-0.3q0.1 0 0.1-0.1c-0.2-0.1 0-0.1 0.1-0.2 0.3-0.3 0.4-0.6 0.7-0.8 0.3-0.4 1.3-1.1 1.4-1.5 0-0.1 0.1-1.4 0.1-1.5 0-0.2-0.3-1.2-0.5-1.3z"/>
		<path class="s4" d="m45 34.5c0.1-0.3 0-0.6-0.4-0.8-0.7-0.5-2 0.8-2.5 1.1 0 0.1-0.1 0.3-0.2 0.2q-0.1 0.1-0.2 0.2 0 0.2-0.1 0-0.1 0.1-0.1 0.1c0.2 0.1 0 0.3-0.1 0.5 0 0.4 0.3 1.8 0.4 2.3 0 0 0.2 0.4 0.2 0.4l0.4-0.1q0-0.1 0.1-0.2v-0.1c0-0.1 0.1-0.1 0.2-0.2v-0.1 0.1c0.6-0.8 2.2-2.6 2.3-3.4z"/>
		<path class="s4" d="m25.1 22.6q0 0 0.1-0.1c0.2-0.2 0.4-0.5 0.7-0.7 0.1-0.1 0.1-0.2 0.3-0.1q0.1-0.1 0.2-0.2c0 0 0 0 0-0.1 0.1-0.1 0.4-0.4 0.4-0.2 0.1-0.1 0.3-0.2 0.3-0.3-0.1-0.1 0.1-0.3 0-0.5 0 0-0.2-0.3-0.3-0.4q0 0-0.1-0.1c-0.1 0.2-0.2 0-0.3-0.1-0.4-0.3-0.9-0.7-1.4-1-0.3-0.1-0.1 0.2-0.2 0.3-0.2 0.6-0.7 0.9-0.9 1.6-0.1 0.3 0 0.6-0.1 1 0 0.1-0.1 0.2-0.1 0.3-0.1 0.4 0.1 0.8 0 1.2 0 0.2 0.1 0.2-0.1 0.4 0.1 0.1 0 0.1 0.1 0 0.4-0.3 0.7-0.6 1.1-0.9 0.1-0.1 0.1-0.2 0.3-0.1z"/>
		<path class="s4" d="m45.3 38.7c-0.3 0.9-0.5 1.6-0.7 2.5 0 0.3-0.2 0.4-0.2 0.6 0.1 0.2 0 0.4 0 0.6 0 0.3 0 0.8 0 1.1 0 0.1 0.2 0.6 0.1 0.7 0 0.3-0.3 0.3 0.2 0.6l0.2-0.6c0.1-0.6 0.3-1.2 0.4-1.7 0.1-0.1-0.1-0.3 0.2-0.4 0.2-1.2 0.2-2.2 0.1-3.3l-0.3-0.1z"/>
		<path class="s4" d="m18.6 7.4c-0.4-0.2-0.9-0.1-1.4-0.3h-0.1c-0.2 0.2-0.2 0-0.2 0-0.4-0.1-0.9 0-1.2 0.2-0.6 0.3 0.4 0.5 0.7 0.5 0.1 0 0.1 0 0.2 0.1 0.1 0 0.2-0.1 0.2-0.1 0.6 0 1.4 0.7 2.1 0.4 0.2-0.1 0.4-0.5 0.2-0.6l-0.5-0.2z"/>
		<path class="s4" d="m13.5 9c0.2 0 1.9-0.2 2-0.3q0.2-0.1 0.2-0.2c-0.1-0.4-0.2-0.2-0.4-0.2-0.1 0-0.2-0.1-0.3-0.1-0.5-0.1-1.1-0.1-1.5-0.1q-0.1 0-0.1 0c-0.2 0.2-0.7 0.2-0.6 0.6 0.1 0.3 0.4 0.3 0.7 0.3z"/>
		<path class="s4" d="m47 42.2c-0.1-0.3 0-0.2 0-0.4 0 0-0.4-0.9-0.4-1-0.1-0.1-0.1 0-0.2 0.1 0.2 0.1 0 0.2 0 0.3 0 0.7-0.1 1.2-0.2 1.8 0 0.1 0 0.8 0 0.8 0 0.1 0.1 0.2 0.1 0.1q0.3-0.3 0.4-0.6l0.1-0.1v-0.1-0.1l0.1-0.1c0.1-0.4 0.2-0.3 0.1-0.7z"/>
		<path class="s4" d="m32.7 33.5c0-0.1-0.3-0.1-0.5-0.1q0 0-0.2 0c0 0.2 0.2 0.4 0.2 0.4 0 0.1-0.1 0.2-0.1 0.4 0 0.3 0 0.5 0.1 0.8 0 0.2-0.2 0.3 0.1 0.3 0.7-0.3 0.3-0.3 0.3-0.6 0-0.3 0.1-0.6 0-1 0 0 0.1-0.2 0.1-0.2z"/>
		<path class="s4" d="m33.7 48.3c-0.8-0.5-0.6 1.4-0.6 1.7 0.1 0.1 0.1 0 0.2 0 0.2-0.3 0.3-0.8 0.5-1.1q0-0.1 0.1-0.1c-0.2-0.2 0.1-0.3-0.2-0.5z"/>
		<path class="s4" d="m37.1 47.9c0.2 0 0.5-0.9 0.6-1.1 0-0.1 0.1 0 0.1 0q0.1-0.1 0.1-0.2c-0.5-0.8-1.3 1.3-0.8 1.3z"/>
		<path class="s4" d="m45 36.6c-0.2 0-0.9 1.3-1 1.5-0.3 0.6-1.1 1.6-1.2 2.1 0 0.1 0.1 0.4 0.1 0.5 0.1 0.5 0.1 0.6 0.2 1 0.1 0.1 0 0.7 0.1 0.7q0.2-0.2 0.3-0.3c0.3-0.5 0.6-1.8 0.8-2.4 0.3-0.8 0.7-1.6 1.1-2.4 0-0.2-0.1-0.7-0.4-0.7z"/>
		<path class="s4" d="m27.4 38.6c0-0.2-0.1-0.8-0.4-0.4-0.1 0.2 0 0.1 0 0.2 0 0.5 0 0.9 0 1.4 0 0.1 0 0.2 0.1 0.3 0.5-0.3 0.2-0.2 0.2-0.6 0-0.3 0.1-0.7 0.1-0.9z"/>
		<path class="s0" d="m50.2 24.7v28.1c-0.5 0-0.5-0.7-0.9-2q-0.2-0.9-0.4-2.1c-0.4-2.5-0.6-5.8-1.2-9.9-0.7-4.7-0.9-9.5-0.3-12q0.3-1.2 1-1.7 0.7-0.5 1.8-0.4z"/>
		<path class="s0" d="m39.8 3c2.4 0.3 5 1 6.6 2.8 1.2 2 2.3 4 3.2 6.1 0.2 0.6 0.6 1.3 0.5 1.9-0.1-0.7-0.4-1.3-0.6-1.9-1.2-2.1-2.1-4.9-4.3-6.3-1.7-1-3.7-1.6-5.4-2.6z"/>
		<path class="s0" d="m50.2 14.3v11c-0.7 0-1.3 0-1.8-0.2q-0.4-0.1-0.8-0.5-0.1-0.1-0.1-0.2-0.2-0.3-0.4-0.7c-0.4-0.8-0.7-1.9-0.9-3q0-0.4 0-0.9c-0.1-2.5 1.2-4.7 3-5.3q0.3-0.2 0.8-0.2 0 0 0.1 0z"/>
		<path class="s0" d="m50.2 12.6v2.3c-0.4 0-0.8-0.1-1-0.4-0.3-0.3-0.4-0.6-0.4-0.9 0-0.6 0.4-0.9 1-1q0 0 0 0 0.2 0 0.4 0z"/>
	</g>
</svg>