<svg version="1.2" xmlns="http://www.w3.org/2000/svg" viewBox="0 0 49 69" width="49" height="69">
	<title>motyl_05_pół_lewa</title>
	<style>
		.s0 { fill: #000000 } 
		.s1 { fill: #d9fff6 } 
		.s2 { fill: #07cff9 } 
	</style>
	<g>
		<path class="s0" d="m48 28.9l-0.3 15.8c-1.2 3.7-9.8 20-15.2 20-0.7 0.3-0.9 0.6-1.8 0.6-1 0.1-1.6-0.4-2.5-0.5-0.7-0.1-1.4 0-2.9-0.1-1.5-0.2-2.3-1.7-2.8-1.9-0.6-0.2-2.6 0.7-3.9-2.9-0.2-0.5-1.5-2-1.5-2-0.4-0.4-1.6-0.4-2.2-2-0.4-1.2-0.1-1.7-0.3-2.7-0.1-0.4-0.2-1.2-0.2-1.5-0.1-0.2-0.7-0.9-0.8-2.4-0.2-1.5 0.7-2.1 0.9-3.2 0.1-0.7 0-1.5 0-2.2 0-1.3-0.1-1.2 0.5-2.3 0.6-1 2-2.6 2.2-2.9 0.8-1.4 2.7-2.5 2.8-2.8-1.3-0.2-2.6 0-4-0.1-2.4-0.2-3.9-1.7-4.7-3.9-0.2-0.5-0.3-0.7-0.4-1.3-0.5-1.9-0.7-3.5-1.7-5.2q-0.1-0.2-0.1-0.3c-0.4-0.7-0.7-1.1-1.1-1.8-1.4-3.2-0.6-5.9-1.6-8.7 0 0-0.2-0.2-0.3-0.4-0.3-0.8-0.9-1.7-1.3-2.5-0.2-0.5-0.6-1-0.9-1.5-2.1-4.1-1.2-6.7 3.5-7.2 0.4 0 0.8 0 1.2 0h0.1c2.5 0 6.7 0.9 7.3 1.1 0.7 0.2 1.7 0.5 2.4 0.8 4.2 1.5 9.2 4 12.7 6.9 4.5 3.6 9.2 8.1 13 12.4 1.4 1.6 2.5 3.2 3.9 4.7z"/>
		<path class="s1" d="m8.7 3c-0.4 0-0.9 0-1.3 0-0.4 0.5-1 0.4-1.4 1-0.7 1.4 0 1.5 1.1 0.9 0.6-0.3 1.8-1.1 1.6-1.9z"/>
		<path class="s1" d="m17.2 38.7c-0.2 0.2-0.3 0.4-0.4 0.5 1.3 2 2.6-0.7 0.4-0.5z"/>
		<path class="s1" d="m14.4 51.7c0.1 0.3 0.1 1.1 0.2 1.5 1.2 0.1 0.7-2.8-0.2-1.5z"/>
		<path class="s1" d="m10.3 13c1.5 0.3 3.5-0.2 5 0 1.1 0.2 2.4 1.1 3.5 1.1 1.4 0 2.3-1.1 1-2.1-1.3-1.2-5.8-1.9-7.5-1.9-0.7-0.1-1.6 0-2.1 0.5-0.6 0.7-1 2.1 0.1 2.4z"/>
		<path class="s1" d="m12.7 9.2c1.5 0.2 2.9 0.3 4.2 0.7 1 0.2 3.4 1.2 4.2 0.9 0.7-0.2 0.5-1 0-1.5-1.2-0.9-5.3-2.1-6.8-2-0.8 0.1-2.8 1-1.6 1.9z"/>
		<path class="s1" d="m15.2 31.8c1.2 0.2 2.3 0.3 3.5 0.4 0.8 0 2.9-0.3 3.5 0.1 0.4 0.4 0.1 1-0.4 1.2-1.1 0.5-4.7 0.5-5.7 0.1-0.7-0.2-2.1-1.4-0.9-1.8z"/>
		<path class="s1" d="m18.4 7.3c0.5 0.3 2.4 1 2.9 1.1 0.3 0.1 0.5 0.1 0.8 0.1-0.4-1-1.8-1.8-2.7-2.2-1.9-0.8-3.3 0-1 1z"/>
		<path class="s1" d="m5.3 6.9c-0.7 0.2-0.9 2.3 0.5 2 1.2-0.3 0.1-2.2-0.5-2z"/>
		<path class="s1" d="m10.8 7.4c0.1-0.8-1.7-1.7-1.9-0.3-0.2 1.3 1.9 0.9 1.9 0.3z"/>
		<path class="s1" d="m9.8 9.7c0-0.5-1.2-1.1-1.3-0.2-0.1 0.8 1.2 0.6 1.3 0.2z"/>
		<path class="s1" d="m16.1 43.7c0.1-0.2-0.1-1-0.3-1.1-0.9-0.6-1.2 0.7-0.9 1.4 0.4 0.1 1 0.3 1.2-0.3z"/>
		<path class="s1" d="m15.2 44.8c-0.7 0.3-0.5 2.3 0.4 1.7 0.3-0.2 0.7-2.1-0.4-1.7z"/>
		<path class="s1" d="m16.7 53.4c-0.7-0.3-2 1.2-1 1.5 0.4 0.1 2-0.9 1-1.5z"/>
		<path class="s1" d="m17.8 55.1c-0.7-0.4-1.9 1.2-0.9 1.5 0.3 0 2-1 0.9-1.5z"/>
		<path class="s1" d="m20.9 35.5c-1 0.3-0.1 2 0.5 1.3 0.3-0.3 0.4-1.5-0.5-1.3z"/>
		<path class="s1" d="m20.4 38.1c-0.5 0.1-0.7 0.8-0.3 1.1 0.8 0.7 1.8-1.6 0.3-1.1z"/>
		<path class="s1" d="m25.9 62.2c-0.4 0.1-0.7 0.8-0.3 1.1 0.8 0.7 1.9-1.6 0.3-1.1z"/>
		<path class="s1" d="m26.7 12.4c-0.4-0.4-1.4 0.2-0.7 0.8 0.7 0.6 1.2-0.3 0.7-0.8z"/>
		<path class="s1" d="m23.8 12.2c-0.4-0.4-1.4 0.2-0.7 0.8 0.7 0.6 1.2-0.2 0.7-0.8z"/>
		<path class="s1" d="m26.1 14.7c-0.3-0.4-1.4 0.3-0.7 0.9 0.7 0.6 1.3-0.3 0.7-0.9z"/>
		<path class="s1" d="m29.4 12.5c0.8-0.1-0.1-0.8-0.3-0.9-0.3-0.2-1-0.7-0.8 0.1 0.2 0.1 1.1 0.7 1.1 0.8z"/>
		<path class="s1" d="m9.2 14.2c-0.7 0.2-0.9 1.6-0.2 1.9 1.5 0.7 2.2-2.5 0.2-1.9z"/>
		<path class="s1" d="m12.5 15.2c-0.6 0.2-0.7 1.3-0.2 1.6 1.3 0.6 1.8-2 0.2-1.6z"/>
		<path class="s1" d="m9.5 17.3c-0.6 0.8 0.7 1.3 1.1 1 0.6-0.3-0.6-1.7-1.1-1z"/>
		<path class="s1" d="m8.6 20.8c-0.3 2.3 3 1.6 3.6 0.5 0.7-1.3-3.4-2.7-3.6-0.5z"/>
		<path class="s1" d="m10.2 25.2c0 2.3 3.2 1.2 3.6 0 0.5-1.4-3.7-2.2-3.6 0z"/>
		<path class="s1" d="m12.5 29.6c-0.4 0.1-0.8 0.6-0.8 0.6-0.2 1.5 2 1.2 1.5-0.2 0-0.1-0.5-0.4-0.7-0.4z"/>
		<path class="s1" d="m15.1 48.4c-0.2 0-0.4 0.3-0.5 0.3-0.1 1 1.2 0.8 1 0-0.1-0.1-0.3-0.3-0.5-0.3z"/>
		<path class="s1" d="m30.1 61.7c-0.9 1.6 2.5 0.9 1.8-0.1-0.2-0.3-1.5-0.5-1.8 0.1z"/>
		<path class="s1" d="m29.7 63.3c-1 0.2-0.7 1.3 0.2 1.3 1.1 0.1 0.8-1.5-0.2-1.3z"/>
		<path class="s1" d="m24.7 59.7c-0.7 0.2-0.6 1 0.2 1 0.8 0.1 0.6-1.1-0.2-1z"/>
		<path class="s1" d="m29.2 60.5c-0.4 0-0.7 0.1-0.8 0.6 0 0-0.1 0.3 0.3 0.5 1 0.8 1.8-1 0.5-1.1z"/>
		<path class="s1" d="m20.8 59.5c-0.6-1.7-2 0.4-0.9 0.9 0.2 0.1 1.1-0.4 0.9-0.9z"/>
		<path class="s1" d="m20.4 57.6c0.6-0.7-0.3-1.4-1-0.8-0.9 0.7 0.3 1.7 1 0.8z"/>
		<path class="s1" d="m22.6 59.4c0.3-0.2 0.5-0.5 0.3-0.9-0.1 0-0.2-0.3-0.6-0.3-1.2 0.2-0.7 2 0.3 1.2z"/>
		<path class="s1" d="m21.8 62.4c1 0.4 1.6-0.4 1-1-0.6-0.7-2.5 0.4-1 1z"/>
		<path class="s1" d="m15.9 50.8c-0.4 0.7 0.7 0.6 0.8 0.5 0.3-0.2-0.5-1.2-0.8-0.5z"/>
		<path class="s1" d="m33.3 63.1c0.2 0.6 2.4-0.3 2.1-0.8-0.3-0.5-2.3 0.1-2.1 0.8z"/>
		<path class="s2" d="m45.6 34.4c-2.7-0.2-6.2-1.6-8.9-2.1-0.6-0.1-8.9-1.9-10.9-1.7-1.9 0.2-5.9 0.2-7.6 0.1-1.6-0.1-3.2-0.5-3.4-2.4-0.3-1.9 1.4-2.3 1.9-2.5 0.7-0.2 2.8-0.4 3.7-0.4 1 0 2 0.1 3 0.1 1.8 0.1 3.6 0.2 5.4-0.1 1.4-0.3 2.2-1.1 3.6-0.8 0.4 0.1 0.7 0.1 0.9 0.3 0.2 0.1 0.4 0.2 0.8 0.3 3.5 1.7 8.1 4.5 11 7.2 0.5 0.6 2.3 2.2 0.5 2z"/>
		<path class="s2" d="m32.2 45.7c4.6-1.4 8.1-4.7 12.3-6.7 0.3-0.2 1.6-0.7 1.6-1 0-0.3-0.6-0.6-1.2-0.8-1.7-0.3-8.5 0.2-10.3 0.7-0.2 0.1-1.3 0.3-2.6 2.1-0.9 1.2-2.5 3.3-3 4.7-0.9 2.2 2.1 1.3 3.3 1z"/>
		<path class="s2" d="m47.4 33.1c-0.9-0.6-1.6-1.5-2.5-2.1-2.7-2.2-5.9-4.4-8.9-6-2.4-1.4-3.2-1.3-5.1-3.5-0.6-0.7-1-1.4-1.4-2-0.2-0.4-1-0.7-1-1.4 0.2-4.8 8.3 0.3 12 4.2 1.5 1.6 2.7 3.1 4 4.8 0.5 0.6 3 3.7 3.1 4.4 0 0.3 0.1 1.6-0.2 1.6z"/>
		<path class="s2" d="m27.6 45.7c0.7-1.1 2.1-3.5 1.9-3.8-0.7-0.7-11.7 3.1-12.1 4.8-0.2 0.8-0.6 3.5-0.1 4.1 0.1 0.2 2.8-1.2 5.3-2.4 2.4-1.2 4.7-2.2 5-2.7z"/>
		<path class="s2" d="m18.8 41.7c-0.7 1.2-1.2 2.9 0.7 2.5 1-0.2 2.2-0.8 3.1-1.2 2-0.7 4-1.4 6.1-1.8 2.9-0.5 3.1-2.3 2.5-2.5-0.5-0.1-2.6 0-3.2 0-2.4 0.2-8 0.7-9.3 3z"/>
		<path class="s2" d="m22.7 35.6c-0.4 0.6-0.7 2.6-0.1 2.9 0.3 0.2 4.3-0.7 5.1-0.7 1.2-0.1 2.6-0.1 3.9 0 0.5 0 0.9 0.3 1.3-0.2 0-0.5-3.7-2.4-4.3-2.6-1.3-0.4-4.9-0.5-5.9 0.6z"/>
		<path class="s2" d="m40.9 36.6c0.4-0.1 2.5-0.2 2.5-0.6 0-0.3-0.9-0.7-1.2-0.7-0.6-0.2-1.5-0.3-2.2-0.5-2.4-0.4-5.5-0.8-7.9-0.6-3.2 0.2-0.3 1.7 1 2.2 2 0.8 5.6 0.4 7.8 0.2z"/>
		<path class="s2" d="m47 41.5c-0.8 0.3-6.8 7.8-7.4 8.6-1.2 1.9-3.6 5.7-4.4 7.8-0.2 0.7-0.6 1.7 0 2.3 0.8 0.7 2.5 0.6 10.1-11.5 0.8-1.3 1.7-3.5 1.9-5-0.3-1.6-0.1-2-0.2-2.2z"/>
		<path class="s2" d="m43.5 43.4c-2.7 3.1-8.7 12.5-10.4 16.5-0.8 1.4-2.3 1.4-3.1 0.1-0.8-1.2-0.4-2.5 0-3.7 1.7-5.2 11.8-15.4 15.7-16.9 0.4-0.1 0.8-0.2 0.9 0.1 0.3 0.5-2.9 3.6-3.1 3.9z"/>
		<path class="s2" d="m17.9 24.2c1 0.3 9.8 0.9 12.2-0.2 0.5-0.2 0.7-0.3 0.6-0.9 0-0.6-2.4-2.7-3.1-3-1.9-1-4.1-1.5-5.6-1.5-1.6 0-7.3-1.5-8 1.3-0.7 2.7 2.9 4 3.9 4.3z"/>
		<path class="s2" d="m25.1 18c1.7-0.1-4.4-3.1-6.9-2.9-1.4 0.1-2.8 1.7-0.4 2.2 1.2 0.3 5.5 0.9 7.3 0.7z"/>
		<path class="s2" d="m28.9 47.8c0.6-1-0.6-1-1.3-1-1.4 0.1-5.9 2.7-7.9 4.1-3.6 2.5 1 4.7 1.6 4.7 1.8 0.1 4.3-4.1 5.4-5.3 0.6-0.7 1.8-1.7 2.2-2.5z"/>
		<path class="s2" d="m32.7 49.8c0.3-0.4 2.3-2.9 2.4-3 0.2-0.4 0.5-0.9-0.1-1-0.1 0-3.8 1.1-4.5 1.5-0.3 0.2-4.4 4.5-5.9 6.7-0.4 0.6-2.3 2.5-0.9 4 3.1 3.3 6.5-5.1 9-8.2z"/>
		<path class="s0" d="m49 34.2v28.4c-0.5 0-0.5-0.8-0.9-2.1q-0.3-0.9-0.4-2.1c-0.4-2.5-0.6-5.9-1.2-10-0.7-4.7-0.9-9.6-0.3-12.2q0.3-1.1 1-1.6 0.7-0.6 1.8-0.4z"/>
		<path class="s0" d="m38.6 12.2c2.4 0.3 5 1 6.6 2.9 1.2 2 2.2 4 3.1 6.1 0.2 0.6 0.7 1.3 0.6 1.9-0.1-0.6-0.4-1.2-0.7-1.8-1.1-2.2-2-5-4.2-6.4-1.7-1-3.7-1.7-5.4-2.7z"/>
		<path class="s0" d="m49 23.6v11.1c-0.7 0-1.3 0.1-1.8-0.1q-0.4-0.1-0.8-0.5-0.1-0.1-0.2-0.2-0.2-0.3-0.3-0.7c-0.4-0.9-0.8-2-0.9-3.1q-0.1-0.4-0.1-0.8c0-2.6 1.3-4.9 3-5.5q0.4-0.1 0.9-0.1 0-0.1 0.1 0h0.1z"/>
		<path class="s0" d="m49 21.9v2.4c-0.4 0-0.8-0.2-1.1-0.5-0.2-0.2-0.3-0.5-0.3-0.9 0-0.6 0.4-0.9 0.9-1q0.1 0 0.1 0 0.2 0 0.4 0z"/>
	</g>
</svg>