<svg version="1.2" xmlns="http://www.w3.org/2000/svg" viewBox="0 0 43 69" width="43" height="69">
	<title>motyl_04_pół_prawa</title>
	<style>
		.s0 { fill: #000000 } 
		.s1 { fill: #55cf75 } 
		.s2 { fill: #08eecf } 
		.s3 { fill: #69ff99 } 
	</style>
	<g>
		<path class="s0" d="m0.5 29.8l0.8-4.2c1.8-3.3 3.7-6.6 6.2-9.5 6.2-7.2 15.4-12.5 25.1-13.1 2.6-0.1 6.2 1.5 6.9 4.2 0.1 0.4 0 0.9 0.1 1.3-0.1 1.5-0.9 2.6-2.1 3.5 0.7 3.4-1 6.8-4 8.4 0.6 2.2-0.2 4.1-1.8 5.6-0.3 0.2-1.2 0.7-1.3 0.9-0.1 0.2-0.3 0.8-0.4 1-0.6 1.2-1.7 2.5-2.6 3.5-1 1-2.6 2.9-3.6 3.7-0.3 0.2-0.7 0.3-1 0.5 0 0 0.1 0 0.2 0 0.7 0.2 1.3 0.2 1.9 0.6 1.3 0.7 0.7 1.6 1.4 2.5 0.5 0.8 1.8 0.8 2.3 1.8 0.5 0.9 0.2 2.1-0.5 2.8-0.1 0.2-0.8 0.6-0.8 0.8 0.1 0.3 1 1.4 1.2 1.8 0.7 1.7-0.9 1.6-1.5 2.5-0.8 1.4 0.1 3.3-1.2 5-0.8 0.9-2.3 1.2-2 2.8 0.1 0.1 0.2 0.6 0.3 0.7 0.6 0.8 2.2 1.9 2.9 2.8 1.4 1.6 3 4.2 0.5 5.6l-0.8 0.1c-1.6-0.3-1.7-1.7-2-3.1-0.5-1.5-1.8-4.9-4-3.7-1.3 0.8-2.2 1.8-3.9 1.8-0.3 0-0.6-0.1-0.8-0.2-1.4-0.2-2 1.5-3.4 0.9-1-0.3-1.4-2-1.9-2.9-0.7-1.2-1.4-1.5-2.3-2.5-1.8-2.1-1.9-6.3-2.5-9.1-0.5-2.4-1.6-4.7-3-6.8l-1.8-3.5-0.6-6.5zm3.6-4.2l0.6-0.4-0.3 0.4c0.1 0.1 0.4-0.3 0.5-0.2 0.1 0.1-0.4 0.3-0.2 0.4 0 0 0.5-0.4 0.3-0.1 0 0.1-0.5 0.4-0.6 0.5-0.1 0.1-0.3 0.2-0.3 0.4l2.8-2.2 0.1 0.1-2.5 2.1 0.1 0.1c1-0.9 2.1-1.7 3.2-2.5 0.7-0.5 1.3-1 2.1-1.5 0 0 0.3-0.2 0.3-0.1-1.6 1.3-3.4 2.5-5 3.8-0.3 0.3-0.7 0.6-1 1 0.6-0.2 1-0.8 1.5-1.1 0.4-0.3 1.2-1 1.6-1.2 0 0 0.4-0.2 0.4-0.1-0.3 0.3-0.6 0.4-0.9 0.7-0.4 0.3-0.8 0.6-1.2 0.9-0.5 0.4-1.1 0.8-1.5 1.3l4.4-2.8c0 0.2 0 0.1-0.1 0.2-1.2 0.9-2.6 1.6-3.9 2.6 0 0.1-0.1 0-0.1 0.2l3-1.8c0.1 0.1-0.1 0.2-0.1 0.2-0.8 0.5-1.5 0.9-2.2 1.5q-0.1 0.1-0.2 0.1c0 0.1 0.3 0 0.4 0 0.2-0.1 0.2-0.3 0.4-0.4q0.6-0.3 1.3-0.6c-0.1 0.3-0.6 0.4-0.9 0.6-0.3 0.2-0.7 0.4-0.9 0.6-0.1 0.1-0.3 0.2-0.1 0.2 0 0.1 1.5-0.6 1.8-0.7 0 0 0.2-0.1 0.2 0-0.3 0.1-0.6 0.2-0.8 0.4-0.1 0-0.2 0-0.1 0.1 0.7-0.2 1.4-0.4 2.1-0.6 0.4-0.1 1.1-0.1 1.5-0.2 0.5-0.2 2.3-1.6 2.8-2 2-1.5 6.9-5.1 7.4-7.7 0.1-0.8-0.1-1.3-0.6-1.9-0.3-0.4-0.5-0.6-0.8-1 0-0.1-0.1-0.4-0.1-0.4-0.3-0.1-1.2 0.7-1.4 0.9-3.1 2.4-6.2 4.6-9.4 6.9-0.9 0.7-2 1.4-2.7 2.2-0.2 0.2-0.3 0.3-0.4 0.4l0.2 0.1-0.7 0.6zm0.4-0.6c0 0.1-0.1 0.2-0.2 0.2 0.1 0 0.2-0.1 0.2-0.2zm-0.2 1.8q0 0 0 0 0 0 0 0h0.2-0.2zm17.5-20.7c-0.2 0-1.4 0.5-1.6 0.6-5.6 2.7-10.6 7-14.3 12-0.5 0.6-0.9 1.3-1.4 2l0.2 0.1 1.9-2.5c0-0.1 0.1-0.1 0.1-0.1-0.1 0.4-1.2 1.6-1.5 2.1-0.2 0.2-0.5 0.7-0.7 0.9 0 0.1 0 0.3 0.1 0.2 0 0 0-0.1 0.1-0.1 0.6-0.7 1.2-1.6 1.8-2.3 0.2-0.2 1-1.2 1.2-1.2 0-0.1 0.1 0 0.1 0-0.1 0.2-0.7 0.7-0.8 0.9q-1.1 1.3-2.1 2.6l0.1 0.1c0.7-0.8 1.4-1.6 2.1-2.4 0.4-0.5 1-1.1 1.5-1.4-0.1 0.4-0.5 0.6-0.8 0.9-1 1-2 2.1-2.9 3.3-0.2 0.2-0.4 0.5-0.5 0.7 0.1 0.2 0 0 0.1-0.1 0.1 0 0.2 0.1 0.2 0.1 0 0.1 0 0.2-0.1 0.3 0.1 0.1 0.4-0.3 0.5-0.4 0.8-0.9 1.7-1.8 2.6-2.6 0.1-0.1 0.7-0.6 0.8-0.5q-0.1 0.1-0.1 0.2c-0.5 0.5-1.6 1.4-2.2 2-0.2 0.1-0.3 0.3-0.4 0.5-0.3 0.3-0.9 0.8-1.2 1.1-0.1 0.2 0 0.2 0.2 0.1 0.2 0 0.4-0.3 0.6-0.5 0 0 0 0.1 0 0.2-0.1 0.2-0.8 0.7-0.9 0.9 0 0.1 0.1 0.1 0.2 0 0.3-0.2 0.8-0.6 1.1-0.9 0.1 0 0-0.1 0-0.1 0.1-0.1 0.2 0 0.2 0.1-0.1 0.1-0.5 0.3-0.5 0.3-0.1 0.1-0.1 0.2-0.1 0.2-0.1 0.1-0.3 0.3-0.4 0.3-0.1 0.2 0.5-0.1 0.5-0.1 0.3-0.2 0.7-0.7 1.1-0.9 4.9-3.7 10.9-7 14.6-11.9 0.5-0.7 1.3-1.9 1.6-2.7 0-0.1 0.2-0.7 0.2-0.7 0-0.3-0.9-1.3-1.2-1.3zm15.9 5.2l-0.2-0.1-1.2-0.3h1.3l-0.8-0.4c0.1 0 0.4 0 0.5 0 0.1-0.1-0.3-0.1-0.2-0.2 0-0.1 0.4 0 0.3-0.2l-0.3-0.2c0.6-0.1 0.9-0.3 0.1-0.4l0.4-0.1c0.1-0.3-0.2-0.1-0.3-0.3l0.7-0.1c-0.2-0.2-0.6-0.1-0.9-0.2 0-0.1 0.4-0.1 0.5-0.1 0.2-0.3-0.5-0.1-0.5-0.3l0.8-0.1c-0.1-0.3-0.6-0.2-0.9-0.3-0.1-0.1 0.1 0 0.2-0.1q0.3 0 0.6 0c0-0.2-0.1-0.1-0.2-0.2-0.2 0-0.4 0-0.5-0.1l0.6-0.1v-0.2l-1.1-0.2c0.3-0.1 0.7 0 1 0 0-0.1 0.2 0 0.1-0.2-0.1-0.1-1.4-0.3-1.7-0.3 0-0.1 0.1-0.1 0.2-0.1 0.4 0 0.7 0.1 1.1 0 0.1 0 0-0.1 0-0.1-0.3-0.1-0.6 0-0.9-0.1l-1.2-0.2h1.8c0-0.2 0-0.1-0.1-0.1-0.3-0.2-0.8-0.1-1-0.3h1.5c0-0.1-0.1-0.1-0.2-0.1q-0.2 0-0.4-0.1c-0.1 0-0.1 0.1-0.1-0.1q0.2-0.1 0.4-0.1c0.1 0 0.3 0 0.3-0.1-0.8-0.2-1.6-0.3-2.4-0.3l-0.1-0.1c0.6-0.1 1.2 0 1.8-0.1l-0.8-0.2h-1.2c-0.1-0.2 0.1-0.2 0.2-0.2 0.3 0 0.7 0.1 1 0 0.1 0 0.2-0.1 0.1-0.1-0.1-0.1-1.8-0.1-2.1-0.2 0-0.1 0.2-0.1 0.3-0.1 0.4 0 0.8 0 1.1 0-0.5-0.4-1.4-0.1-2-0.3l-0.4 0.1 0.7-0.2c-1.4-0.1-2.9 0.1-4.3 0.3-1.2 0.2-2.5 0.5-3.7 0.9-0.3 0.1-1.3 0.3-1.5 0.5-0.2 0.9-0.6 1.8-0.8 2.8 0.1 0 1-0.8 1.1-0.9 0.1 0 0.2-0.1 0.3 0-0.2 0.2-0.5 0.4-0.7 0.6-0.3 0.2-0.5 0.4-0.7 0.6-0.1 0.1-0.3 0.2-0.4 0.4l1.4-0.9h0.1c-0.4 0.4-1 0.8-1.4 1.3l-0.2 0.1c0 0.2 0.1 0.1 0.2 0 0.3-0.1 0.5-0.4 0.8-0.5 0.1 0 0.1-0.1 0.1 0.1-0.2 0-0.3 0.3-0.4 0.4-0.2 0.1-0.5 0.2-0.6 0.4l-0.5 0.5 2.7-1.5v0.2c-0.8 0.4-1.6 0.9-2.3 1.5 0.4 0.1 1.9-1 2.1-0.9l-0.1 0.1-2 1.3q0.2 0 0.3-0.1c0.8-0.3 1.7-1 2.5-1.3 0.1 0 0.3-0.1 0.3 0l-3.3 1.9c0 0.1 0.1 0 0.2 0 0.6-0.2 1.2-0.6 1.9-0.8l-0.8 0.5-0.8 0.3c0 0.1 0.1 0.1 0.2 0.1 0.2-0.1 0.4-0.1 0.6-0.2 0 0 0.2 0 0.2 0.1-0.6 0.1-1.1 0.3-1.6 0.5-0.1 0.1-0.2 0.1-0.2 0.2l1.5-0.2c0.1 0 0.3-0.2 0.4 0-0.5 0.1-1.1 0.3-1.6 0.4-0.1 0.1 0.3 0.1 0.3 0.1l3.1-0.4-1 0.3-1.2 0.1 0.6 0.1c3.5-0.3 7-0.9 10.5-0.8 0.6 0 1.3 0.1 2 0.1 0 0 0.4 0 0.4-0.1l-1.7-0.3c0.7 0 1.4 0 2.1 0zm-3.9 8.6c0-0.1-0.1-0.1-0.2-0.1-0.3-0.1-0.7-0.1-1.1-0.2-0.1 0-0.2 0-0.2-0.2 0.6 0 1.3 0.4 1.9 0.1 0-0.1-0.1-0.1-0.2-0.1-0.4-0.1-0.8-0.1-1.2-0.2 0 0-0.1 0-0.1-0.1 0.4 0 0.9 0.1 1.3 0.1 0.1 0 1.1-0.1 0.6-0.2l-0.7-0.2c0.3-0.1 0.7 0 1 0 0 0 0.2-0.1 0.2-0.2-0.2-0.2-0.9-0.1-1-0.3q0.2 0 0.4 0c0.2 0 0.9 0.1 0.8-0.2 0-0.1-0.9-0.1-1-0.3 0.5-0.1 1.1 0.1 1.5-0.1 0.2 0 0.3-0.2 0-0.3-0.2-0.1-0.9 0-1.2-0.1 0-0.2 0.3-0.1 0.4-0.1l1.2-0.1c0.1 0 0.2-0.2 0.1-0.2-0.1-0.1-1.7-0.1-2-0.4 0-0.1 2.1 0.2 2.3 0.1-0.1-0.4-0.5-0.2-0.7-0.2-0.6 0-1.1-0.2-1.6-0.2 0-0.1 0.1-0.1 0.2-0.1 0.5 0 0.9 0.1 1.4 0.1-0.1-0.1-0.3-0.1-0.4-0.2-0.2 0-0.3 0-0.4-0.1h1c0-0.2-0.1-0.1-0.2-0.2-0.2 0-0.4 0-0.6-0.1l0.8-0.1-0.8-0.2c0-0.1 0.2-0.1 0.3-0.1q0.2 0 0.4-0.1l-0.3-0.2c0.1-0.1 0.5 0.1 0.6-0.1 0 0 0-0.1-0.1-0.2-0.1 0-0.5 0-0.6 0-0.1-0.1 0.1-0.1 0.2-0.1q0.2 0 0.5 0l-0.5-0.3c0.4 0 0.7 0 1-0.1 0 0 0.1 0.1 0.2 0.1 0.1-0.1-0.2-0.2-0.3-0.2-0.3-0.1-0.7 0-0.9-0.2 0.4 0 0.7 0 1 0 0.1 0 0.3 0 0.3-0.1l-1.4-0.2c0.3-0.1 0.6 0 0.9 0 0.1-0.1 0.2 0 0.2-0.1-0.4-0.1-0.9-0.2-1.3-0.2-0.1-0.1 0.1-0.1 0.2-0.1 0.2 0 0.4 0 0.6 0-0.3-0.2-0.6-0.1-0.9-0.2 0-0.1 1.2 0.1 1.3-0.1l-0.5-0.1-0.9-0.1q0.4-0.1 0.9 0c0.1 0 0.9 0.1 1 0 0.1-0.2-0.3-0.2-0.4-0.2-0.7-0.1-1.6 0-2.2-0.1-0.1-0.1-0.1 0-0.1-0.2h2.6c-0.1 0-0.1-0.1-0.3-0.1-0.6-0.1-1.6-0.1-2.3-0.1-4 0-7.9 0.8-11.9 1l-0.4 0.2h0.6l-0.6 0.1c0.2 0.2-0.4 0.3-0.6 0.3l0.7 0.1c-0.3 0.1-0.6 0.1-0.9 0.2 0 0-0.2 0.1-0.2 0.1l1.6-0.2-1.2 0.4-0.2 0.2c1-0.2 1.9-0.4 2.8-0.5h0.7c-1.2 0.1-2.3 0.4-3.4 0.7-0.1 0.1-0.1 0-0.1 0.2l1.9-0.3-1.6 0.5-0.1 0.2c0.9-0.1 1.8-0.2 2.8-0.3 0 0 0.2 0 0.3 0.1q-2 0.2-3.9 0.7c-0.1 0-0.2 0-0.2 0.1l1.8-0.2 1.2 0.1-1.7 0.2c-0.4 0.1-0.9 0.1-1.2 0.3-0.1 0.1-0.1 0.1-0.1 0.2l2.8-0.3c0 0 0.4 0 0.4 0l-2.3 0.4c-0.2 0.1-1 0.2-0.9 0.4 0.1 0.2 0.3 0 0.5 0 0.7-0.1 1.4-0.2 2.1-0.2 0.1 0 0.3 0 0.3 0l-2.8 0.5v0.2c1.3-0.1 2.5-0.3 3.8-0.2 0.2 0.1 0.7 0.1 0.9 0.2-1.1 0.1-2.1 0-3.2 0-0.5 0.2-1.3 0.2-1.7 0.4-0.1 0-0.1 0.1-0.1 0.2 0.5-0.1 1-0.2 1.5-0.2 0.7 0 1.4 0 2.2 0 0 0.2-0.2 0.1-0.3 0.1-0.5 0.1-1 0-1.4 0.1-0.1 0.1 0 0.1 0.1 0.2 0.3 0 0.9 0 1.2 0 0.8 0.1 1.8 0.3 2.7 0.4 2 0.4 3.9 1.1 5.9 1.4 0.5 0 1 0.2 1.5 0zm-3.6 6.7c0.1-0.1 0-0.1 0-0.1-0.2-0.1-1.7-0.5-2-0.6-0.5 0-1-0.1-1.5-0.1-0.1-0.1-0.3-0.1-0.3-0.2 1 0 2.1 0.2 3.1 0.5 0.3 0.1 0.6 0.3 1 0.3l-0.2-0.2-0.7-0.4c0.2-0.1 1.2 0.5 1.3 0.4-0.1-0.3-0.4-0.4-0.7-0.5 0 0-0.2 0-0.1-0.1 0.1-0.1 0.5 0.2 0.7 0.1 0-0.1-0.4-0.4-0.1-0.3 0.1 0 0.4 0.3 0.5 0.1 0.1-0.2-0.6-0.3-0.6-0.5 0.2 0 0.5 0.2 0.7 0.2 0.2 0.1-0.2-0.3-0.1-0.4 0 0 1 0.4 0.5 0-0.2-0.2-0.4-0.2-0.5-0.3l0.8 0.1c0-0.1-0.6-0.2-0.5-0.3 0.1-0.1 0.6 0.1 0.7 0l-0.5-0.3c0.2 0 0.9 0.3 1 0.1 0.1-0.2-0.7-0.3-0.7-0.4h0.9c0.1-0.2-0.8-0.2-0.8-0.4h0.9c0-0.1-0.2-0.1-0.4-0.1-0.1-0.1-0.1 0-0.1-0.2h0.6l-0.9-0.4c0.2 0 0.9 0.1 1 0.1 0-0.1 0-0.2-0.1-0.2-0.1-0.1-0.7-0.2-0.9-0.2 0-0.2 0-0.2 0.1-0.2 0.3 0 0.6 0.2 0.8 0.1 0.2 0-0.5-0.3-0.5-0.3-0.3-0.1-0.6-0.1-0.9-0.2-0.1 0-0.3 0-0.3-0.1l1.7 0.2c0 0 0-0.1 0-0.1-0.1-0.2-1.2-0.3-1.3-0.5l1.4 0.2c-0.1-0.1-0.5-0.3-0.8-0.4-0.2 0-1.4-0.2-1.5-0.2 0-0.1 0-0.2 0.1-0.2 0.7 0.1 1.3 0.3 2 0.4 0.1-0.1 0-0.1-0.1-0.2-0.2-0.1-0.6-0.1-0.8-0.2-0.1-0.1-0.3-0.1-0.3-0.2 0.4 0 0.8 0.2 1.1 0.2 0.2 0 0.2 0 0.2-0.1-2.5-0.5-5-1.3-7.5-1.8-1.6-0.2-3.7-0.5-5.2-0.1-0.5 0.1-0.7 0.7-1 1.1-0.5 0.8-1.1 1.5-1.7 2.1-0.1 0.1-0.5 0.4-0.5 0.5-0.1 0.1 0.1 0.1 0.2 0.1 0.7-0.2 1.5-0.7 2.2-0.8 0.1 0 0.2-0.1 0.2 0.1-0.5 0.1-1 0.3-1.4 0.4-0.6 0.3-1.7 0.7-2.1 0.9-0.1 0.1-0.3 0.3-0.4 0.4 0.7-0.1 1.5-0.5 2.3-0.6 0 0 0.2-0.1 0.2 0-1 0.4-2.3 0.7-3.2 1.2-0.1 0.1-0.3 0.1-0.2 0.3 1-0.2 2-0.5 3-0.6 0.1 0 0.2-0.1 0.2 0l-2 0.5c-0.9 0.3-2.1 0.3-2.7 1.1 0.8-0.2 1.6-0.4 2.5-0.6 0.1 0 0.3-0.1 0.4 0l-3.4 0.9-0.3 0.3q0.6-0.1 1.2-0.2c1-0.2 1.9-0.5 2.9-0.6q0.2-0.1 0.5-0.1c0.1 0 0.3-0.1 0.3 0-0.3 0.1-0.5 0.1-0.8 0.1-0.1 0.1-0.2 0.2-0.3 0.2-1.3 0.3-2.7 0.5-4 0.9-0.2 0.1-0.6 0.2-0.6 0.3 0.8-0.1 1.6-0.4 2.5-0.5 0.2-0.1 0.5-0.1 0.8-0.2 0.6-0.1 1.1-0.2 1.7-0.3 0.1 0 0.2-0.1 0.2 0-1.1 0.4-2.3 0.5-3.4 0.8 0 0-0.3 0.1-0.3 0.2 2.2-0.4 4.3-0.9 6.5-1 0 0.1-0.2 0-0.3 0-1.2 0.3-2.5 0.4-3.7 0.7l-0.7 0.2c0.7-0.1 1.3-0.2 2-0.3 3.6-0.3 8-0.5 11.7 0.2 0.2 0.1 1.2 0.5 1.3 0.3zm-4.6 6.2l0.9-0.9c0.1-0.2 0.4-0.7 0.6-0.8 0-0.1 0.2-0.1 0.2-0.1 0.1-0.2 0-0.4 0-0.4 0 0 0.3 0.1 0.4-0.1 0.1-0.3-0.3-0.2-0.4-0.4l0.7 0.1c0-0.4-0.4-0.3-0.6-0.5 0.2 0 0.9 0.2 0.9-0.1 0-0.2-0.6-0.3-0.7-0.4l0.6-0.1c0-0.3-0.5-0.2-0.6-0.5 0.1-0.1 1 0.2 1.1 0.2l-0.4-0.4-0.8-0.3c0.2-0.1 1.1 0.2 1.3 0.2 0.2-0.1-0.3-0.4-0.4-0.5l-0.8-0.2c0.3 0 1.2 0.2 1.4 0 0 0 0.1-0.1 0-0.1-0.3-0.1-0.8-0.1-1-0.3 0.5-0.1 1.1 0.2 1.6 0.2 0.2 0 0.1-0.1 0.1-0.2-0.1-0.1-2-0.4-2.3-0.4-0.5-0.1-1.5-0.1-1.9-0.2l-0.1-0.1q0.2-0.1 0.4-0.1c0.9 0.1 1.9 0.3 2.7 0.4 0.1 0 0.3 0 0.3-0.1-1.3-0.3-2.7-0.4-4-0.5q-3.1-0.1-6.1 0.2-0.5 0-0.9 0.1c-0.1 0-0.3 0-0.2 0.1l1.1-0.2 0.6 0.1-5 0.5 0.6 0.1h0.6 0.5l-1.2 0.2 0.6 0.1c0.1 0.1-0.2 0.1 0 0.2 0.7 0.3 1.7 0.4 2.5 0.6 1.8 0.6 3.6 1.5 5.2 2.6 0.9 0.6 1.6 1.3 2.5 2zm-2.4 2c0 0 0.6-0.2 0.1-0.3-0.3 0-1.5 0.5-1.9 0.7-1.4 0.4-2.9 0.6-4.3 0.7-0.1-0.2 0.1-0.1 0.2-0.1 1.4-0.3 2.7-0.4 4.1-0.8 0.7-0.2 1.6-0.4 2-1 0-0.1 0.4-0.2 0.1-0.2-0.2-0.1-0.4 0-0.6 0 0-0.1 0.4-0.1 0.5-0.2 0-0.1-0.1-0.2-0.1-0.3 0 0 0.2 0 0.2 0 0-0.1 0-0.5 0-0.7 0.1-0.4 0.3-0.3 0-0.9-0.4-0.7-2.3-1.7-3-2.1-4.3-2.1-9.2-2.7-13.8-1 0 0.1 0.1 0.1 0.2 0.1 0.3 0 0.8-0.2 1.1-0.3 0.4 0 0.8-0.1 1.1-0.1 0.1 0 0.2-0.1 0.2 0-0.8 0.1-1.6 0.4-2.4 0.6-0.3 0.1-0.8 0.2-1.2 0.4l-1.4 0.6c0.3-0.1 0.8 0.1 1-0.2 1-0.3 2-0.5 3-0.7l-2.3 0.7-0.2 0.2c1-0.2 2-0.3 3.1-0.4 0.1 0 0.2-0.1 0.2 0q-2.2 0.4-4.4 0.9c0 0.4 0.5 0 0.5 0.3q-0.3 0-0.6 0.1c-0.1 0-0.3 0-0.3 0.1l1.3 0.1-1.4 0.1c-0.1 0-0.1 0.1-0.1 0.2 0.1 0 1.5 0.2 1.7 0.3 0 0.1-0.2 0.1-0.2 0.1-0.2 0-0.9-0.2-0.9-0.2-0.1 0.1-0.2 0.2 0 0.3l3.1 0.8c0.1 0.1 0 0.1-0.2 0.1-0.8-0.1-1.7-0.6-2.6-0.7 0 0-0.5 0-0.4 0.2l2.8 1c-0.1 0-0.4 0-0.5-0.1-0.5-0.1-1.4-0.5-1.9-0.6q-0.1 0-0.1 0c-0.1 0.2 2 0.9 2.2 1 0.7 0.2 1.5 0.4 2.3 0.7 0 0.1-0.2 0.1-0.2 0.1-0.4-0.1-1.1-0.3-1.5-0.4-0.3-0.1-2.5-1-2.6-0.9 0 0.2 0.2 0.3 0.3 0.3 0.6 0.4 2 0.9 2.7 1.2 3.7 1.3 8.2 2.2 12.1 1.5 1.3-0.2 2.1-0.4 3-1.2zm3.7 6.7l-1.4-0.4c0-0.1-0.1-0.2 0.1-0.2 0.2 0 0.5 0.2 0.8 0.1 0-0.1 0-0.2-0.1-0.2-0.1-0.1-0.5-0.2-0.6-0.2-0.1 0-0.2 0.1-0.1-0.1 0 0 1 0.1 0.8-0.2-0.1 0-0.9-0.1-1-0.2l0.4-0.1c0.2 0 0.4 0.2 0.4-0.1h-0.1l-1.1-0.3c0.4-0.1 0.9 0 1.3 0.1 0.1-0.1 0.1-0.1 0-0.1-1-0.5-3.2-0.4-4.3-0.6-1.7-0.1-2.5-0.2-4-1-0.8-0.5-2.3-1.4-3.2-1.6-0.3-0.1-1-0.1-1.4-0.2-1.4-0.2-2.8-0.6-4.1-1-1-0.3-2-0.8-3-1l0.1 0.2c-0.2 0-0.9-0.5-1-0.4 0 0.2 0.3 0.3 0.5 0.4l-0.2 0.1c-0.1 0.1 0.3 0.2 0.4 0.3 1.9 1.2 3.8 2.2 5.9 3 4 1.6 8.3 2.4 12.2 4.2 0.5 0.2 0.9 0.5 1.4 0.6 0.2 0 0-0.2 0.1-0.3h0.3l-0.5-0.3 1 0.1c-0.2-0.4-0.6-0.3-0.9-0.6 0.3 0 0.5 0.1 0.7 0.2 0.2 0 0.9 0 0.6-0.2zm-2.2-5c-0.7-0.4-1.9-0.5-2.6-0.5-1 0.1-2 0.6-3 0.6h0.4 0.6c-0.6 0.2-1.2 0.2-1.9 0.2-0.1 0-0.3 0-0.2 0.1l1.3 0.2c-0.5 0.1-1.1-0.1-1.5 0-0.4 0 0 0.1 0.1 0.2l-0.2 0.1c1.1 0.8 2.3 1.1 3.6 1.2 0.7 0.2 2.5 0.4 3.2 0.3 0.5 0 0.7-0.6 0.8-1 0-0.6-0.1-1.1-0.6-1.4zm-10.1 21.4c-0.2-0.3-0.4-0.7-0.6-1 0-0.1-0.1-0.2 0-0.2 0.3 0.4 0.5 0.9 0.8 1.3 0.3 0.3 0.6 0.5 0.8 0.9 0.3-0.1-0.1-0.5-0.1-0.6-0.1-0.2-0.3-0.3-0.4-0.4l-0.4-0.8 0.4 0.4c0.2 0.4 0.5 0.8 0.8 1.1 0.1 0 0.5 0.4 0.4 0.1-0.1-0.1-0.9-1-0.8-1 0.1-0.2 0.1 0 0.2 0.1 0.1 0.1 0.4 0.5 0.6 0.4 0-0.2-0.3-0.4-0.3-0.6 0.3 0.1 0.4 0.6 0.8 0.5 0 0-0.5-0.5-0.5-0.7 0.2 0.1 0.3 0.4 0.5 0.5 0.5 0.5 0.5 0.2 0.2-0.3 0.2 0.2 0.4 0.5 0.7 0.5 0.1-0.1-0.7-0.9-0.8-1-3.1-3.9-5.3-8.4-7.6-12.8-0.1-0.1-0.1-0.1-0.1 0 0 0.2 0.2 0.4 0.2 0.6 0.1 0.1 0.1 0.2 0 0.2-0.2-0.4-0.3-0.8-0.5-1.2-0.1 0-0.2-0.2-0.2-0.2l0.5 1.4-0.2-0.1c0 0.3 0.2 0.4 0.2 0.6l-0.2-0.2v0.2l-0.5-0.8-0.1 0.3q-0.1-0.6-0.5-1c-0.1 0.2 0.3 0.7 0.3 0.8h-0.2c0.3 0.7 0.7 1.4 1 2.2 1.5 3.1 2.8 6.3 4.5 9.2 0.3 0.7 0.7 1.4 1.3 2 0.1-0.3-0.1-0.3-0.2-0.4zm-10.7-17.3c0.7 1.6 1.5 3.1 2 4.9 0.8 2.8 0.8 7.5 2.6 9.8 0.6 0.9 1.6 1.4 2.2 2.4 0.2 0.2 0.3 0.7 0.5 0.8 0.1 0.1 0.2 0.1 0.2 0.1 0.1 0 0.2 0.4 0.4 0.5 0.1-0.1-0.1-0.4-0.1-0.5 0.2-0.1 0.2 0.4 0.4 0.4 0 0.1 0-0.2 0.1 0v-0.2c0.8 0.2 0.2-0.2 0.1-0.6 0.2 0 0.6 0.8 0.7 0.6-0.3-0.5-0.5-1.2 0.1-0.3l0.2-0.1v0.3c0.3-0.5-0.4-0.8-0.4-1.2 0.2-0.1 0.2 0.2 0.3 0.3 0.1 0 0.1 0.1 0.2 0.1 0-0.5-0.4-1-0.6-1.5l0.9 1.3c0.1 0 0.1 0 0.1-0.1-0.1-0.3-0.6-1.1-0.8-1.5-2-3.7-3.7-7.8-5.6-11.6-0.5-1.1-0.9-2-1.4-3-0.2-0.4-0.5-0.7-0.7-1.1-0.2 0.1 0.3 0.4 0.1 0.6l-0.8-1.4h-0.2c0.1 0.3 0.9 1.6 0.9 1.8h-0.1c-0.1 0.1 0.1 0.4 0 0.3-0.1-0.1-0.8-1.5-0.9-1.4v0.2c-0.1-0.3-0.3-0.5-0.5-0.8l0.1 0.7-0.1-0.3c-0.3 0.2 0 0.4 0.1 0.5zm14.8 17.8c0.4 0.1-0.4-0.7-0.1-0.6 0.2 0.1 0.5 0.7 0.8 0.7-0.1-0.3-0.4-0.6-0.6-0.9 0 0-0.1 0-0.1-0.1-0.1 0-0.6-0.8-0.2-0.6 0 0.1 0.3 0.4 0.4 0.5 0 0.1 0 0.2 0.2 0.1 0-0.2-0.6-0.9-0.6-0.9 0.1-0.2 0.2 0 0.2 0.1 0.1 0.1 0.4 0.6 0.6 0.4-0.1-0.2-0.5-0.5-0.5-0.7 0-0.1 0-0.1 0.1-0.1l1.1 1.3h0.1c0-0.3-1-1.2-0.9-1.3 0.3 0 0.3 0.3 0.5 0.4q0.2 0.3 0.5 0.6c0-0.4-0.5-0.7-0.6-1.1 0.2 0.1 0.4 0.5 0.6 0.5q0.1 0.1 0.1-0.1c-0.1-0.1-0.7-0.7-0.6-0.8 0-0.1 0.1 0.1 0.1 0.1 0.3 0.3 0.6 0.5 0.8 0.9 0.1 0 0.2 0 0.1-0.2 0-0.1-0.5-0.6-0.6-0.8-1.2-1.4-2.3-2.8-3.3-4.3-1.3-2-2.5-4-3.5-6 0-0.1 0-0.3-0.2-0.1 0.2 0.3 0.3 0.6 0.4 1-0.2-0.1-0.2-0.5-0.4-0.7l-0.3-0.3c0.1 0.4 0.3 0.9 0.5 1.3 0.1 0 0.2 0.2 0 0.2 0-0.2-0.1-0.3-0.1-0.4-0.1-0.1-0.1-0.1-0.2-0.1 0-0.1-0.1-0.4-0.2-0.4-0.3-0.3 0.2 0.7 0.1 0.7-0.1-0.4-0.4-0.6-0.6-0.9-0.1-0.3-0.2-0.6-0.4-0.9-0.1-0.1-0.1-0.3-0.2-0.2l0.5 1.4c-0.2-0.1-0.5-0.9-0.5-0.9-0.1 0-0.2 0-0.2 0.1 0.1 0.3 0.3 0.5 0.3 0.8-0.1 0-0.4-0.8-0.5-0.5-0.1 0 0.3 0.7 0.3 0.8l-0.7-0.9c-0.1 0-0.1 0.1-0.1 0.2 0.1 0.2 0.3 0.4 0.3 0.6l-0.6-0.5q0.3 0.7 0.6 1.3c1.5 3 4.6 8.5 6.9 10.8 0.1 0 0.7 0.5 0.7 0.5zm-5.6-13.2c0 0 0-0.1-0.1-0.3q0-0.1 0-0.1 0 0 0 0.1c0.1 0.2 0.1 0.3 0.1 0.3zm13.5 2.6c0.1 0 0-0.1 0-0.1-0.3-0.2-0.7-0.2-1-0.3l-1-0.5c0.6 0.1 1 0.4 1.6 0.3 0.1-0.1-0.5-0.3-0.6-0.4 0-0.1 0-0.1 0.1-0.1 0.4 0.1 0.9 0.4 1.4 0.4 0.1-0.2-1.1-0.7-1-0.8 0.3 0.1 0.6 0.3 0.9 0.3 0.4 0 0-0.4-0.1-0.5-0.1-0.1-1.2-0.6-1.1-0.8 0-0.1 1 0.6 1.2 0.6 0.1 0.1 0.1 0 0.1-0.1 0-0.4-0.9-0.6-1.1-0.9 0.4 0 0.8 0.4 1.1 0.6 0.1 0 0.2 0 0.2 0 0 0 0 0.1 0.1 0.1 0.2 0.1 0.2-0.2-0.1-0.1-0.3-0.7-1-0.8-1.5-1.2 0-0.1 0.1 0 0.2 0 0.4 0.1 0.7 0.5 1.2 0.6 0.1-0.2-1-0.8-1.1-0.9 0.2-0.2 0.4 0.2 0.6 0.2 0-0.1-0.5-0.6-0.6-0.7-2.3-1.8-6.9-3-9.7-3.8-0.2-0.1-1-0.3-1.1-0.3l0.1 0.1c-0.4-0.1-0.8-0.3-1.3-0.3-0.1 0.1 1.2 0.6 1.3 0.6 0.4 0.2 0.7 0.4 1.1 0.6 0.1 0 0.2 0.1 0.1 0.2l-2.3-1.1c-0.3 0.1 0.3 0.2 0.3 0.5-0.3-0.1-0.5-0.4-0.8-0.4-0.1 0-0.1 0.1 0 0.1 0 0 0.1 0 0.1 0.1 0.1 0 0.8 0.4 0.7 0.5-0.1 0.1-0.5-0.3-0.7-0.3-0.1 0-0.2 0-0.2 0-0.1-0.1-0.1-0.3-0.3-0.2 0 0.2 0.1 0.2 0.3 0.2 0.3 0.5 0.6 0.4 0.9 0.7 0.1 0.1 0.3 0.4 0.1 0.3 0 0-0.5-0.4-0.6-0.3 0.1 0.1 0.2 0.3 0.3 0.4 0.3 0.2 0.7 0.5 1 0.7 0.1 0.1 0.6 0.3 0.6 0.4 0 0 0 0.2-0.1 0.1l-1.2-0.9c-0.2 0.1 0.2 0.4 0.2 0.5 1 0.9 2.7 2.1 3.8 2.9 1.2 0.9 5.5 3.8 6.7 3.8q0.2 0 0.4 0c0 0 0.2-0.1 0.1-0.2-0.8-0.2-1.6-0.4-2.3-0.8-0.1 0-0.3 0-0.2-0.1 0.1-0.1 1 0.3 1.2 0.4 0.5 0.2 1.1 0.3 1.6 0.2 0-0.1-0.1-0.1-0.2-0.1-0.3-0.1-0.7-0.2-1-0.4 0.5 0 1 0.2 1.6 0.2zm-3.2 5.3c-0.1-0.1-0.7-0.5-0.6-0.6l0.7 0.3c0.1 0-0.4-0.4 0-0.3 0.1 0 0.6 0.4 0.7 0.4 0 0 0.1-0.2 0-0.2-0.2-0.1-0.7-0.5-0.7-0.6-0.1-0.1 0-0.1 0-0.1 0.1 0 0.6 0.5 0.7 0.4 0.1-0.2-0.7-0.6-0.6-0.7 0-0.1 0.8 0.4 0.6 0.1-0.1-0.1-0.5-0.2-0.5-0.4 0.2 0 1.4 0.9 1.6 0.7 0.1-0.2-0.4-0.2-0.4-0.3l-0.5-0.3c-0.2-0.2 0.5 0.1 0.6 0.2 0 0 0.1 0 0.1-0.1-0.3-0.1-0.6-0.3-0.9-0.5 0.4 0.1 0.7 0.4 1 0.3-0.3-0.2-0.7-0.2-0.9-0.5 0.4 0 0.7 0.3 1.1 0.3 0.1 0.1 0.2 0 0.2-0.1-0.2-0.2-1.1-0.3-1.3-0.6 0.5 0 1 0.4 1.5 0.4 0.1 0 0.2 0.1 0.2 0-0.5-0.2-1.1-0.4-1.6-0.7 0.6 0.1 1.1 0.3 1.7 0.4 0.1 0 0.2 0.1 0.1-0.1-0.1-0.1-1.1-0.3-1.3-0.4-0.3-0.2-1-0.4-1.3-0.6 0 0-0.2-0.1-0.2-0.2 0.7 0.2 1.3 0.6 2 0.8 0.2 0.1 0.6 0.2 0.8 0.1l-2.8-1.2c0.3 0 0.6 0.2 0.9 0.3 0.5 0.2 1.1 0.4 1.6 0.4l-2.4-1 0.1-0.2c0.6 0.3 1.2 0.6 1.9 0.8 0 0 0.2 0.1 0.2 0-0.7-0.4-1.5-0.7-2.2-1.1-3-1.5-5.7-3.8-8.4-5.8-0.2 0 0.3 0.4 0 0.4-0.1-0.1-0.6-0.6-0.8-0.7-0.1-0.1-0.1-0.1-0.3-0.1 0 0.1 0.6 0.7 0.7 0.8 0.2 0.1 0.5 0.3 0.6 0.5 0.1 0.1 0 0.1-0.1 0.1 0 0-0.6-0.6-0.7-0.7-0.1 0-0.3-0.2-0.4-0.1-0.1 0.1 1 0.9 1 1.1q0.1 0.1 0 0.1c-0.1 0-0.6-0.5-0.7-0.5-0.1-0.2-0.2-0.5-0.5-0.5l0.9 1.3 0.2 0.1c0.1 0.2-0.4-0.3-0.5-0.3q-0.1-0.1-0.1-0.2c-0.1 0-0.1 0-0.1 0.2 0.1 0.2 0.8 1.1 1 1.3 1.7 2.5 4.2 5.9 6.4 7.8 0.2 0.2 0.9 0.7 1.2 0.8 0.1 0 0-0.1 0-0.2-0.2-0.3-0.6-0.4-0.9-0.7l-0.6-0.6c0.1 0 0.2 0.1 0.3 0.1 0.3 0.2 1 1 1.3 1q0.1 0 0.1-0.1c-0.1-0.2-0.8-0.4-0.8-0.8 0.1-0.1 0.8 0.7 1 0.7q0.1 0 0.1-0.1zm0.9-0.7c0 0 0 0 0 0l0.2 0.1c0 0-0.1 0-0.1 0q0 0 0.1 0l-0.2-0.1q0 0 0 0zm-3.4 3.9v-0.1c0.3 0 0.5 0.5 0.6 0.7 0.1 0.1 0.6 0.7 0.7 0.6l-1.2-1.8c0.1-0.1 0.1 0 0.2 0 0.2 0.4 0.5 0.8 0.8 1.1 0.1 0.1 0.1 0.2 0.2 0.2-0.3-0.6-0.8-1.2-1.1-1.7 0-0.1 0-0.2 0.1-0.1l0.6 0.9 0.4 0.3c-0.2-0.2-0.3-0.5-0.5-0.7-0.1-0.2-0.3-0.4-0.5-0.7 0 0-0.2-0.2 0-0.3 0.4 0.5 0.7 1 1.1 1.5 0 0.1 0 0.2 0.2 0.1-0.1-0.2-0.3-0.6-0.4-0.8-0.1 0-0.2 0-0.2-0.1-0.1-0.2-0.4-0.5-0.4-0.7 0.2 0.1 0.2 0.3 0.3 0.4 0.1 0.1 0.1 0.2 0.2 0l-0.8-1.3c0 0 0.1 0.1 0.2 0.1 0.4 0.5 0.7 1.1 1.1 1.5 0.1 0.2 0.3 0.6 0.5 0.6 0.2 0.1-0.1-0.3-0.1-0.3-0.1-0.1-0.2-0.1-0.2-0.1-0.3-0.4-0.6-0.9-0.8-1.3 0.1-0.1 0.1 0 0.1 0.1 0.3 0.3 0.6 0.7 0.9 1.1 0.1 0 0-0.3-0.1-0.3-0.1-0.3-0.4-0.6-0.5-0.9l0.3 0.3c0.2 0.2 0.6 0.8 0.7 0.9 0 0 0.1 0 0.1-0.1-0.3-1.1-1.3-1.6-2.1-2.4-1.1-1-2.3-2.3-3.3-3.6-1-1.2-2-2.9-3-4-0.1 0-0.1-0.1-0.2-0.1 0 0.2 0.1 0.2 0.2 0.4 0 0 0.1 0.1 0 0.1l-0.4-0.5-0.4-0.3c0.1 0.3 0.3 0.5 0.4 0.8 0 0.1 0.1 0.1 0.1 0.1 0.1 0.1 0.1 0.3 0.2 0.4-0.1 0.2-0.1 0.1-0.2 0 0-0.1-0.3-0.7-0.4-0.6-0.1 0.2 0.4 1 0.4 1.2 0.1 0.1 0 0.1-0.1 0.1 0 0 0-0.2-0.1-0.1l0.1 0.2c1.4 2.6 3 5.1 4.8 7.4 0.1 0.1 1.4 1.9 1.5 1.8zm1.6-0.5l-0.2-0.2 0.2 0.2zm-0.4-0.5l-0.1-0.1zm-9.3-10.6q0 0-0.1 0 0.1 0 0.1 0zm-0.2-0.4q0 0 0 0 0 0 0 0c0 0.1 0 0.2 0 0.2 0 0 0-0.1 0-0.2zm-4 0q0 0.1 0 0.1 0-0.1 0-0.1 0 0 0.1 0 0 0-0.1 0zm-0.1-0.8q0 0 0 0.1 0-0.1 0-0.1zm0.3 1.1q0-0.1 0-0.1 0 0 0 0.1-0.1-0.1-0.2-0.1 0.1 0 0.2 0.1zm0 0.1q0 0 0-0.1 0 0.1 0 0.1zm0.1 0.2q0 0 0 0 0 0 0 0zm3.8-0.4q0 0 0 0.1c0 0 0 0 0-0.1zm-8.8-7.4c0.1 0.1 0.2 0.1 0.2 0.1 0.1 0.2 0.7 0.9 0.7 1 0 0-0.1 0-0.1 0-0.2-0.2-0.4-0.5-0.6-0.7-0.1 0-0.1-0.2-0.2-0.1-0.1 0.2 0.4 0.8 0.6 0.9 1.1 1.4 3.8 4 5.4 4.6 0.2 0.1 0.6 0.2 0.8 0.2 0.1 0 0.6-0.5 0.7-0.6 0.1 0 0.5-0.6 0.6-0.6 0.1-0.2-0.1-1.3-0.2-1.5-0.1-0.2-0.3-0.8-0.4-1-1.3-2.2-4-3.3-6.2-4.7 0 0-0.1 0.1 0 0.2 0.1 0.1 0.6 0.3 0.7 0.5-0.1 0.2-0.2-0.1-0.3-0.2-0.1 0-0.2 0-0.4-0.1-0.5-0.3-0.9-0.7-1.5-0.9 0.1 0.3 0.5 0.5 0.7 0.7 0.1 0.1 0.2 0 0.3 0.1 0.2 0.2 0.5 0.4 0.7 0.6-0.8-0.1-1.3-0.9-2-1.2v0.1c0.1 0.2 0.8 0.7 1 0.9l1.8 1.2c0.1 0.2 0 0.2-0.1 0.1-0.7-0.2-1.6-1.1-2.3-1.6 0 0-0.1-0.1-0.2 0-0.1 0 0.3 0.4 0.3 0.5 0.3 0.2 0.8 0.5 1.1 0.7q0.4 0.3 0.8 0.6c0 0.1 0 0.1-0.1 0.1-0.3-0.1-0.6-0.4-0.9-0.6l-1.3-1 0.2 0.4c0.2 0.3 1 0.8 1.2 1 0 0.1 0.1 0.2 0 0.2-0.3-0.3-0.7-0.6-1.1-0.9-0.2-0.1-0.3-0.5-0.6-0.5-0.1 0.1 1 1.1 1.1 1.3 0.1 0 0.1 0.1 0.1 0.1-0.4-0.2-0.7-0.5-1-0.8 0 0-0.2-0.4-0.3-0.3-0.1 0.1 0.7 1.1 0.8 1.2zm1.1 3.2h0.2q0-0.1-0.1-0.2 0.1 0.1 0.1 0.2h-0.2z"/>
		<path class="s1" d="m20.4 17.9c0.5-0.1 1-0.2 1.5-0.2 0.7-0.1 1.4 0 2.2 0 0 0.1-0.2 0.1-0.3 0.1-0.5 0-1 0-1.4 0.1 0 0.1 0 0.1 0.1 0.1 0.3 0.1 0.9 0.1 1.2 0.1 0.8 0.1 1.8 0.3 2.7 0.4 2 0.4 3.9 1.1 5.9 1.3 0.5 0.1 1 0.3 1.5 0.1 0-0.1-0.1-0.1-0.2-0.1-0.3-0.1-0.8-0.1-1.1-0.2-0.1 0-0.2 0-0.2-0.2 0.6 0 1.3 0.4 1.9 0.1 0-0.1-0.1-0.1-0.2-0.1-0.4-0.1-0.8-0.1-1.2-0.2-0.1 0-0.1 0-0.1-0.1 0.4 0 0.9 0.1 1.3 0.1 0.1 0 1-0.1 0.6-0.2l-0.7-0.2c0.3-0.1 0.7 0 1 0 0 0 0.2-0.1 0.2-0.2-0.2-0.2-0.9-0.1-1-0.3q0.2 0 0.4-0.1c0.2 0 0.9 0.2 0.8-0.1 0-0.1-0.9-0.1-1-0.3 0.5-0.1 1.1 0.1 1.5-0.1 0.1 0 0.3-0.2 0-0.3-0.3-0.1-0.9 0-1.2-0.1 0-0.2 0.3-0.1 0.4-0.1l1.2-0.1c0.1 0 0.1-0.2 0.1-0.2-0.1-0.1-1.7-0.2-2-0.4 0-0.1 2.1 0.2 2.3 0.1-0.1-0.4-0.5-0.2-0.8-0.2-0.5 0-1-0.2-1.5-0.2 0-0.2 0.1-0.1 0.2-0.1 0.4 0 0.9 0.1 1.4 0-0.1-0.1-0.3 0-0.5-0.1-0.1 0-0.3 0-0.3-0.1h1c0-0.2-0.1-0.1-0.2-0.2-0.2-0.1-0.5 0-0.7-0.1l0.9-0.1-0.8-0.2c0-0.2 0.2-0.1 0.2-0.1q0.3-0.1 0.5-0.1l-0.3-0.2c0.1-0.1 0.5 0.1 0.6-0.1 0-0.1 0-0.1-0.1-0.2-0.1 0-0.5 0-0.6 0-0.1-0.1 0.1-0.1 0.2-0.1q0.2 0 0.4-0.1l-0.4-0.2c0.4 0 0.7-0.1 1-0.1 0 0 0.1 0.1 0.1 0.1 0.2-0.2-0.1-0.2-0.2-0.3-0.3 0-0.7 0.1-0.9-0.1 0.4 0 0.7 0 1 0 0.1 0 0.3 0 0.2-0.1l-1.3-0.2c0.3-0.1 0.6 0 0.9-0.1 0.1 0 0.2 0 0.2-0.1-0.4 0-0.9-0.1-1.4-0.1 0-0.1 0.2-0.1 0.3-0.1 0.2 0 0.4 0 0.6 0-0.3-0.2-0.6-0.1-0.9-0.2 0-0.1 1.2 0 1.3-0.1l-0.5-0.1-0.9-0.1q0.4-0.1 0.9-0.1c0.1 0 0.9 0.1 1 0.1 0.1-0.2-0.3-0.2-0.4-0.3-0.7 0-1.6 0-2.2-0.1-0.1 0-0.1 0.1-0.1-0.1h2.6c-0.1-0.1-0.2-0.1-0.3-0.1-0.6-0.1-1.6-0.1-2.3-0.1-4-0.1-7.9 0.8-11.9 0.9l-0.4 0.2 0.6 0.1-0.6 0.1c0.2 0.2-0.4 0.3-0.6 0.3l0.7 0.1c-0.3 0.1-0.6 0.1-0.9 0.2-0.1 0-0.2 0-0.2 0.1l1.6-0.2-1.2 0.4-0.2 0.2c1-0.2 1.9-0.4 2.8-0.5h0.7c-1.2 0.1-2.3 0.4-3.4 0.7-0.1 0.1-0.1 0-0.1 0.2l1.8-0.3-1.5 0.5-0.1 0.2c0.9-0.1 1.8-0.3 2.7-0.3 0.1 0 0.3 0 0.3 0.1q-1.9 0.2-3.8 0.7c-0.1 0-0.2 0-0.2 0.1l1.8-0.2h1.2l-1.8 0.3c-0.3 0.1-0.8 0.1-1.1 0.3-0.1 0.1-0.1 0.1-0.1 0.2l2.8-0.4c0 0 0.4 0.1 0.4 0.1l-2.3 0.4c-0.2 0.1-1 0.2-1 0.4 0.2 0.2 0.4 0 0.6-0.1 0.7-0.1 1.4-0.1 2.1-0.1 0 0 0.3-0.1 0.3 0l-2.8 0.5v0.2c1.3-0.2 2.5-0.3 3.7-0.2 0.3 0 0.7 0.1 0.9 0.2-1 0-2.1-0.1-3.1 0-0.5 0.2-1.3 0.2-1.8 0.4 0 0 0 0.1 0 0.2z"/>
		<path class="s1" d="m23.1 30.8c-1.6-1.1-3.4-2-5.2-2.6-0.8-0.2-1.8-0.4-2.5-0.6-0.2-0.1 0.1-0.1 0-0.2l-0.6-0.1 1.3-0.2h-0.6-0.6l-0.6-0.1 5-0.5-0.6-0.1-1.1 0.1c-0.1-0.1 0.1 0 0.2 0 0.3-0.1 0.6-0.1 0.9-0.2q3-0.3 6.1-0.1c1.3 0 2.7 0.2 4 0.5 0 0.1-0.2 0.1-0.3 0.1-0.8-0.1-1.8-0.3-2.7-0.4q-0.2 0-0.4 0.1h0.1c0.4 0.2 1.4 0.2 1.9 0.2 0.3 0.1 2.2 0.4 2.3 0.5 0 0 0.1 0.2-0.1 0.2-0.5 0-1.1-0.3-1.6-0.2 0.2 0.2 0.7 0.1 1 0.3 0.1 0 0.1 0 0 0.1-0.2 0.2-1.1-0.1-1.4 0l0.8 0.2c0.1 0.1 0.6 0.4 0.4 0.5-0.2 0-1-0.3-1.3-0.2l0.9 0.3 0.3 0.3c-0.1 0.1-1-0.2-1.1-0.1 0.1 0.2 0.6 0.1 0.6 0.5l-0.6 0.1c0.1 0.1 0.7 0.2 0.7 0.4 0 0.3-0.7 0-0.9 0.1 0.2 0.2 0.6 0.1 0.6 0.5l-0.7-0.1c0.1 0.2 0.5 0.1 0.4 0.4-0.1 0.2-0.4 0-0.4 0.1 0 0 0.1 0.2 0 0.3 0 0.1-0.2 0.1-0.2 0.2-0.2 0.1-0.4 0.6-0.6 0.8l-0.9 0.9c-0.9-0.7-1.6-1.4-2.5-2z"/>
		<path class="s1" d="m5.9 34.4l-0.2 0.1c-0.1 0.1 0.3 0.2 0.4 0.3 1.9 1.2 3.8 2.2 5.9 3 4 1.6 8.3 2.3 12.3 4.2 0.4 0.2 0.8 0.4 1.3 0.6 0.2 0 0-0.3 0.1-0.3h0.3l-0.5-0.4 1 0.2c-0.2-0.4-0.6-0.3-0.9-0.6 0.3-0.1 0.5 0.1 0.7 0.1 0.2 0.1 0.9 0.1 0.6-0.2l-1.4-0.3c0-0.2-0.1-0.2 0.1-0.2 0.2 0 0.5 0.1 0.8 0 0 0 0-0.1-0.1-0.1-0.1-0.1-0.5-0.2-0.6-0.2-0.1 0-0.2 0.1-0.1-0.1 0 0 1 0.1 0.8-0.2-0.1 0-0.9-0.1-1-0.2l0.4-0.1c0.2 0 0.4 0.2 0.4-0.1h-0.1l-1.1-0.3c0.4-0.1 0.9 0 1.3 0.1 0.1-0.1 0.1-0.1 0-0.1-1-0.5-3.2-0.4-4.3-0.6-1.7-0.1-2.5-0.3-4-1.1-0.8-0.4-2.3-1.3-3.2-1.5-0.3-0.1-1-0.1-1.4-0.2-1.4-0.2-2.8-0.6-4.1-1-1-0.3-2-0.8-3-1l0.1 0.2c-0.2-0.1-0.9-0.5-1-0.4 0 0.2 0.3 0.3 0.5 0.4z"/>
		<path class="s1" d="m15.3 45.2c1.7 2.4 4.3 5.9 6.5 7.8 0.2 0.1 0.9 0.7 1.1 0.7 0.2 0.1 0.1 0 0-0.1-0.1-0.3-0.6-0.4-0.9-0.7l-0.5-0.6c0.1 0 0.1 0.1 0.2 0.1 0.3 0.2 1.1 0.9 1.4 1q0.1 0 0-0.1c0-0.2-0.8-0.4-0.8-0.8 0.1-0.1 0.9 0.6 1.1 0.7q0.1 0 0-0.1c0-0.1-0.6-0.5-0.5-0.6l0.7 0.3c0-0.1-0.5-0.5-0.1-0.3 0.1 0 0.6 0.4 0.7 0.4 0.1 0 0.1-0.2 0-0.2-0.1-0.1-0.6-0.5-0.7-0.6 0-0.1 0-0.1 0.1-0.1 0.1 0 0.6 0.5 0.6 0.4 0.1-0.3-0.6-0.6-0.6-0.7 0.1-0.1 0.8 0.4 0.6 0.1-0.1-0.2-0.5-0.2-0.5-0.5 0.2 0.1 1.5 1 1.6 0.8 0.2-0.2-0.3-0.2-0.4-0.3l-0.4-0.3c-0.2-0.2 0.5 0.1 0.5 0.1 0.1 0.1 0.2 0.1 0.2 0-0.4-0.1-0.6-0.3-0.9-0.5 0.3 0.1 0.6 0.3 1 0.3-0.3-0.2-0.7-0.2-1-0.5 0.4 0 0.8 0.3 1.2 0.3 0.1 0 0.2 0 0.1-0.1-0.1-0.2-1.1-0.3-1.3-0.6 0.6 0 1 0.4 1.5 0.4 0.1 0 0.3 0.1 0.2-0.1-0.5-0.1-1.1-0.3-1.5-0.7 0.5 0.2 1.1 0.4 1.6 0.5 0.1 0 0.2 0 0.2-0.1-0.1-0.1-1.1-0.3-1.3-0.4-0.4-0.2-1-0.4-1.3-0.6-0.1 0-0.2-0.1-0.2-0.2 0.6 0.2 1.3 0.6 1.9 0.8 0.3 0 0.6 0.2 0.9 0.1l-2.9-1.2c0.3 0 0.6 0.2 0.9 0.3 0.5 0.2 1.1 0.4 1.7 0.4l-2.4-1v-0.2c0.7 0.3 1.3 0.6 1.9 0.8 0.1 0 0.2 0 0.3-0.1-0.8-0.4-1.6-0.6-2.3-1-3-1.5-5.6-3.8-8.3-5.8-0.3 0 0.2 0.4 0 0.3-0.2 0-0.7-0.5-0.9-0.6-0.1-0.1-0.1-0.2-0.2-0.1-0.1 0 0.6 0.7 0.7 0.8 0.1 0.1 0.5 0.3 0.6 0.5 0.1 0.1-0.1 0.1-0.1 0.1-0.1 0-0.6-0.6-0.8-0.7 0 0-0.3-0.2-0.3-0.1-0.1 0.1 0.9 0.9 1 1.1q0 0.1-0.1 0.1c0 0-0.5-0.5-0.6-0.6-0.1-0.1-0.2-0.4-0.5-0.4l0.9 1.2 0.2 0.1c0 0.3-0.5-0.2-0.5-0.2q-0.1-0.1-0.1-0.2c-0.2 0-0.1 0-0.1 0.1 0.1 0.3 0.7 1.2 0.9 1.4z"/>
		<path class="s1" d="m3.9 40.6c0.7 1.6 1.5 3.1 2 4.8 0.8 2.9 0.9 7.6 2.6 9.9 0.7 0.9 1.6 1.4 2.2 2.3 0.2 0.2 0.4 0.7 0.5 0.9 0.1 0.1 0.2 0 0.2 0 0.1 0.1 0.2 0.5 0.4 0.6 0.1-0.1-0.1-0.4-0.1-0.5 0.2-0.1 0.2 0.3 0.4 0.4 0.1 0 0-0.2 0.2-0.1l-0.1-0.2c0.8 0.3 0.2-0.1 0.2-0.6 0.1 0.1 0.5 0.9 0.7 0.7-0.4-0.6-0.5-1.3 0.1-0.3l0.1-0.2v0.4c0.3-0.5-0.4-0.8-0.4-1.3 0.2 0 0.2 0.2 0.3 0.3 0.1 0.1 0.2 0.1 0.2 0.2 0.1-0.6-0.4-1-0.6-1.5l0.9 1.3c0.1 0 0.1 0 0.1-0.2 0-0.3-0.6-1-0.8-1.4-2-3.8-3.7-7.8-5.6-11.7-0.5-1-0.9-2-1.4-2.9-0.2-0.4-0.5-0.8-0.7-1.2-0.2 0.2 0.3 0.5 0.1 0.7l-0.8-1.5-0.2 0.1c0.1 0.2 0.9 1.6 0.9 1.7l-0.1 0.1c0 0.1 0.1 0.4 0 0.2-0.1-0.1-0.8-1.4-0.9-1.3v0.2c-0.1-0.3-0.3-0.6-0.5-0.8l0.2 0.6-0.2-0.2c-0.2 0.2 0 0.3 0.1 0.5z"/>
		<path class="s1" d="m11.2 47.1c1.4 2.9 4.5 8.5 6.9 10.7 0 0.1 0.6 0.5 0.7 0.6 0.3 0.1-0.5-0.7-0.2-0.6 0.2 0.1 0.6 0.6 0.8 0.7-0.1-0.4-0.4-0.6-0.6-0.9 0-0.1-0.1-0.1-0.1-0.1 0 0-0.5-0.8-0.2-0.6 0.1 0 0.3 0.4 0.4 0.5 0.1 0 0 0.2 0.2 0.1 0-0.2-0.6-0.9-0.5-1 0-0.1 0.1 0.1 0.1 0.1 0.1 0.1 0.4 0.6 0.6 0.5-0.1-0.3-0.5-0.5-0.5-0.8 0 0 0.1 0 0.1 0l1.1 1.3 0.1-0.1c0-0.2-0.9-1.1-0.9-1.2 0.3-0.1 0.3 0.2 0.5 0.4q0.2 0.3 0.5 0.5c0-0.4-0.5-0.7-0.6-1.1 0.2 0.1 0.4 0.5 0.6 0.6q0.2 0 0.1-0.1c-0.1-0.1-0.7-0.7-0.6-0.8 0.1-0.2 0.1 0 0.2 0.1 0.2 0.2 0.5 0.5 0.7 0.8 0.1 0 0.2 0 0.2-0.1-0.1-0.2-0.6-0.6-0.7-0.8-1.2-1.4-2.3-2.8-3.3-4.4-1.2-1.9-2.4-3.9-3.5-5.9 0-0.1 0.1-0.3-0.2-0.2 0.2 0.3 0.3 0.7 0.5 1.1-0.3-0.2-0.3-0.5-0.5-0.7l-0.3-0.3c0.1 0.4 0.4 0.8 0.6 1.2 0 0.1 0.1 0.2 0 0.2-0.1-0.1-0.2-0.3-0.2-0.3-0.1-0.1-0.1-0.1-0.1-0.1-0.1-0.1-0.2-0.4-0.2-0.5-0.4-0.2 0.2 0.8 0 0.7-0.1-0.3-0.4-0.6-0.6-0.9-0.1-0.2-0.2-0.6-0.4-0.9 0-0.1-0.1-0.2-0.2-0.1l0.5 1.4c-0.2-0.1-0.5-0.9-0.5-0.9-0.1-0.1-0.2 0-0.1 0.1 0 0.3 0.2 0.5 0.3 0.8-0.2-0.1-0.4-0.8-0.6-0.6-0.1 0.1 0.4 0.7 0.3 0.9l-0.7-0.9c-0.1 0-0.1 0.1 0 0.2 0 0.2 0.2 0.3 0.2 0.6l-0.6-0.5q0.4 0.6 0.7 1.3z"/>
		<path class="s2" d="m4.1 31.2c0.1 0.1 1.5 0.3 1.7 0.4 0 0.1-0.2 0.1-0.2 0.1-0.2 0-0.9-0.2-0.9-0.2-0.1 0.1-0.2 0.2 0 0.3l3.1 0.7c0.1 0.2 0 0.2-0.2 0.2-0.8-0.1-1.7-0.6-2.6-0.7 0 0-0.5 0-0.4 0.1l2.8 1c-0.1 0.1-0.4 0-0.5 0-0.5-0.1-1.4-0.5-1.9-0.6q0 0-0.1 0c-0.1 0.1 2.1 0.9 2.2 0.9 0.7 0.3 1.5 0.5 2.3 0.8 0 0.1-0.2 0.1-0.2 0.1-0.4-0.1-1.1-0.3-1.5-0.4-0.3-0.1-2.5-1-2.6-0.9 0.1 0.1 0.2 0.3 0.3 0.3 0.6 0.4 2 0.9 2.7 1.1 3.7 1.4 8.2 2.3 12.1 1.6 1.3-0.2 2.1-0.4 3-1.2 0-0.1 0.6-0.3 0.1-0.3-0.2 0-1.5 0.5-1.9 0.6-1.4 0.5-2.9 0.7-4.3 0.7 0-0.1 0.1 0 0.2-0.1 1.4-0.2 2.7-0.3 4.1-0.7 0.7-0.2 1.6-0.4 2-1 0.1-0.1 0.4-0.2 0.1-0.3-0.2 0-0.4 0.1-0.6 0.1 0.1-0.1 0.4-0.1 0.5-0.2 0-0.1-0.1-0.2-0.1-0.3 0 0 0.2 0 0.2-0.1 0.1 0 0-0.4 0.1-0.6 0.1-0.5 0.2-0.3-0.1-0.9-0.4-0.7-2.3-1.7-3-2.1-4.3-2.1-9.2-2.7-13.7-1-0.1 0.1 0 0.1 0.1 0.1 0.3 0 0.8-0.2 1.1-0.3 0.4-0.1 0.8-0.1 1.1-0.1 0.1 0 0.2-0.1 0.2 0-0.8 0.1-1.6 0.4-2.3 0.6-0.4 0.1-0.9 0.2-1.2 0.3l-1.5 0.7c0.3-0.1 0.8 0 1-0.3 1-0.2 2-0.5 3-0.6l-2.3 0.7-0.2 0.2c1-0.2 2-0.4 3.1-0.5 0.1 0 0.2 0 0.2 0.1q-2.2 0.3-4.4 0.9c0 0.3 0.5 0 0.5 0.3q-0.3 0-0.6 0.1c-0.1 0-0.3-0.1-0.2 0l1.2 0.2-1.4 0.1c-0.1 0-0.1 0.1-0.1 0.1z"/>
		<path class="s2" d="m4.7 23.8c0.3-0.2 0.8-0.6 1.1-0.9 0.1 0 0-0.1 0-0.1 0.1-0.1 0.2 0 0.2 0.1-0.1 0.1-0.5 0.3-0.5 0.3-0.1 0.1-0.1 0.2-0.1 0.2-0.1 0.1-0.3 0.2-0.4 0.3-0.1 0.2 0.5-0.1 0.5-0.1 0.3-0.2 0.7-0.7 1.1-0.9 4.9-3.7 10.9-7 14.5-11.9 0.6-0.7 1.4-1.9 1.7-2.7 0-0.1 0.1-0.7 0.1-0.7 0.1-0.3-0.8-1.3-1.1-1.3-0.2 0-1.4 0.5-1.6 0.6-5.6 2.7-10.6 7-14.3 12-0.5 0.6-1 1.3-1.4 2l0.1 0.1 2-2.5c0-0.1 0.1-0.1 0.1-0.1-0.1 0.4-1.2 1.6-1.5 2.1-0.2 0.2-0.6 0.7-0.7 0.9 0 0.1 0 0.3 0.1 0.2 0 0 0-0.1 0.1-0.1 0.6-0.7 1.2-1.6 1.8-2.3 0.2-0.2 1-1.2 1.2-1.2 0-0.1 0.1 0 0.1 0-0.1 0.2-0.7 0.7-0.8 0.9q-1.1 1.3-2.1 2.6l0.1 0.1c0.7-0.8 1.4-1.6 2.1-2.4 0.4-0.5 1-1.1 1.5-1.4-0.2 0.4-0.5 0.6-0.8 0.9-1 1-2 2.1-2.9 3.3-0.2 0.2-0.4 0.5-0.5 0.7 0.1 0.2 0 0 0.1-0.1 0.1 0 0.2 0.1 0.2 0.1 0 0.1-0.1 0.2-0.1 0.3 0.1 0.1 0.4-0.3 0.5-0.4 0.8-0.9 1.6-1.8 2.6-2.6 0.1-0.1 0.7-0.6 0.8-0.5q-0.1 0.1-0.1 0.2c-0.5 0.5-1.6 1.4-2.2 2-0.2 0.1-0.3 0.3-0.4 0.5-0.3 0.3-0.9 0.8-1.2 1.1-0.1 0.2 0 0.2 0.2 0.1 0.2 0 0.3-0.3 0.6-0.5 0 0 0 0.1 0 0.2-0.1 0.2-0.8 0.7-0.9 0.9 0 0.1 0.1 0.1 0.2 0z"/>
		<path class="s2" d="m4.4 28.1l3.1-1.8c0 0.1-0.2 0.2-0.2 0.2-0.8 0.5-1.5 0.9-2.2 1.5q-0.1 0.1-0.2 0.1c0 0.1 0.3 0 0.4 0 0.2-0.1 0.2-0.3 0.4-0.4q0.6-0.3 1.3-0.6c-0.1 0.3-0.6 0.4-0.9 0.6-0.3 0.2-0.7 0.4-0.9 0.6-0.1 0.1-0.2 0.1-0.1 0.2 0.1 0.1 1.5-0.7 1.8-0.7 0 0 0.2-0.1 0.2 0-0.3 0.1-0.6 0.2-0.8 0.4-0.1 0-0.2 0-0.1 0.1 0.7-0.2 1.4-0.4 2.1-0.6 0.4-0.1 1.1-0.1 1.5-0.3 0.5-0.1 2.3-1.6 2.8-1.9 2-1.6 6.9-5.1 7.4-7.7 0.1-0.8-0.1-1.4-0.6-2-0.3-0.3-0.5-0.5-0.8-0.9 0-0.1-0.1-0.4-0.1-0.4-0.3-0.1-1.2 0.7-1.4 0.9-3.1 2.4-6.2 4.6-9.4 6.9-0.9 0.7-2 1.4-2.7 2.2-0.2 0.2-0.3 0.3-0.4 0.4l0.2 0.1-0.7 0.6 0.6-0.4-0.3 0.4c0.2 0.1 0.4-0.3 0.5-0.3 0.1 0.1-0.4 0.4-0.2 0.5 0 0 0.5-0.4 0.3-0.1 0 0-0.5 0.4-0.6 0.5-0.1 0.1-0.3 0.2-0.3 0.4l2.8-2.2 0.1 0.1-2.5 2 0.1 0.2c1.1-0.9 2.1-1.7 3.2-2.5 0.7-0.5 1.3-1.1 2.1-1.5 0 0 0.3-0.2 0.3-0.1-1.6 1.3-3.4 2.5-5 3.8-0.3 0.3-0.7 0.6-1 0.9 0.6-0.1 1-0.7 1.5-1 0.4-0.3 1.2-1 1.6-1.2 0-0.1 0.4-0.2 0.4-0.1-0.2 0.3-0.6 0.4-0.9 0.7-0.4 0.3-0.8 0.6-1.2 0.9-0.5 0.4-1.1 0.8-1.5 1.3l4.4-2.8c0 0.1 0 0.1-0.1 0.2-1.2 0.9-2.6 1.6-3.8 2.6-0.1 0.1-0.2 0-0.1 0.2z"/>
		<path class="s2" d="m4 37.4c-0.1 0.2 0.4 0.8 0.5 1 1.2 1.4 3.8 3.9 5.5 4.6 0.2 0 0.6 0.2 0.8 0.1 0 0 0.6-0.5 0.7-0.6 0 0 0.5-0.6 0.5-0.6 0.1-0.2 0-1.3-0.1-1.5-0.1-0.2-0.4-0.7-0.5-1-1.3-2.2-3.9-3.3-6.1-4.6-0.1-0.1-0.1 0 0 0.1 0.1 0.1 0.6 0.3 0.7 0.5-0.2 0.2-0.3-0.1-0.3-0.1-0.1-0.1-0.3-0.1-0.4-0.2-0.5-0.3-1-0.7-1.5-0.9 0.1 0.3 0.5 0.5 0.7 0.7 0.1 0.1 0.2 0.1 0.2 0.1 0.3 0.2 0.5 0.5 0.8 0.6-0.8-0.1-1.3-0.9-2-1.2v0.1c0.1 0.2 0.8 0.7 1 0.9l1.8 1.3c0 0.1 0 0.1-0.1 0-0.7-0.2-1.7-1.1-2.3-1.5-0.1-0.1-0.1-0.2-0.2-0.1-0.1 0.1 0.3 0.4 0.3 0.5 0.3 0.2 0.8 0.5 1.1 0.7q0.4 0.3 0.8 0.6c0 0.1 0 0.1-0.1 0.1-0.3-0.1-0.6-0.4-0.9-0.6l-1.3-1 0.2 0.4c0.2 0.3 1 0.8 1.2 1 0 0.1 0 0.2 0 0.2-0.4-0.3-0.8-0.5-1.1-0.8-0.2-0.2-0.3-0.6-0.6-0.6-0.1 0.1 1 1.1 1.1 1.3 0 0 0 0.1 0 0.1-0.3-0.2-0.6-0.4-0.9-0.8 0 0-0.2-0.4-0.4-0.3 0 0.1 0.8 1.1 0.9 1.2 0.1 0.1 0.2 0.1 0.2 0.1 0.1 0.2 0.7 0.9 0.7 1 0 0-0.1 0-0.1 0-0.2-0.2-0.4-0.4-0.6-0.7-0.1 0-0.1-0.2-0.2-0.1z"/>
		<path class="s3" d="m19.9 25.4c0 0.1-0.2 0.1-0.2 0.1-1.3 0.2-2.6 0.4-3.8 0.6l-0.7 0.2c0.7 0 1.3-0.2 2-0.2 3.6-0.4 8-0.5 11.7 0.2 0.2 0.1 1.3 0.4 1.4 0.3 0-0.1-0.1-0.1-0.1-0.1-0.2-0.1-1.7-0.5-2-0.6-0.5-0.1-1-0.1-1.5-0.2-0.1 0-0.3 0-0.3-0.1 1 0 2.1 0.2 3.1 0.5 0.3 0.1 0.6 0.3 1 0.2l-0.2-0.1-0.7-0.4c0.2-0.1 1.2 0.5 1.3 0.3-0.1-0.2-0.4-0.3-0.6-0.4-0.1 0-0.3 0-0.2-0.2 0.1 0 0.5 0.2 0.7 0.2 0-0.1-0.3-0.4-0.1-0.4 0.1 0.1 0.4 0.3 0.5 0.2 0.2-0.2-0.6-0.3-0.6-0.5 0.2 0 0.5 0.2 0.7 0.2 0.2 0.1-0.1-0.3-0.1-0.4 0 0 1 0.3 0.5-0.1-0.2-0.1-0.4-0.1-0.4-0.3l0.7 0.2c0-0.1-0.6-0.2-0.4-0.3 0.1-0.1 0.5 0.1 0.6 0l-0.5-0.3c0.2 0 0.9 0.2 1 0 0.2-0.1-0.7-0.2-0.7-0.4l0.9 0.1c0.1-0.2-0.8-0.3-0.8-0.4h0.9c0-0.2-0.2-0.1-0.4-0.2-0.1 0-0.1 0-0.1-0.1h0.6l-0.8-0.4c0.1-0.1 0.9 0.1 0.9 0 0 0 0-0.1 0-0.1-0.2-0.1-0.8-0.2-1-0.2 0-0.2 0-0.2 0.2-0.2 0.2 0 0.5 0.1 0.7 0.1 0.3 0-0.4-0.3-0.5-0.3-0.2-0.1-0.6-0.1-0.9-0.2 0 0-0.2 0-0.3-0.1l1.7 0.2c0 0 0-0.1 0-0.2-0.1-0.1-1.2-0.2-1.3-0.4l1.5 0.2c-0.2-0.2-0.6-0.3-0.8-0.4-0.3 0-1.5-0.2-1.6-0.2 0-0.1 0-0.2 0.1-0.2 0.7 0.1 1.4 0.3 2 0.4 0.1-0.1 0-0.1 0-0.2-0.3-0.1-0.7-0.2-0.9-0.3-0.1 0-0.3 0-0.3-0.1 0.4 0 0.8 0.2 1.1 0.2 0.2 0 0.2 0 0.2-0.1-2.5-0.6-5-1.3-7.5-1.8-1.5-0.3-3.7-0.5-5.2-0.1-0.5 0.1-0.7 0.7-1 1.1-0.5 0.7-1.1 1.5-1.7 2.1-0.1 0.1-0.5 0.4-0.5 0.4-0.1 0.2 0.1 0.2 0.2 0.1 0.7-0.1 1.5-0.6 2.2-0.7 0.2-0.1 0.2-0.1 0.2 0.1-0.5 0.1-1 0.2-1.4 0.4-0.6 0.3-1.7 0.7-2.1 0.9-0.1 0.1-0.3 0.3-0.4 0.4 0.7-0.1 1.6-0.6 2.3-0.6 0 0 0.2-0.1 0.2 0-1 0.4-2.3 0.7-3.2 1.2-0.1 0.1-0.3 0.1-0.2 0.3 1-0.2 2-0.5 3-0.6 0.1 0 0.3-0.1 0.3 0l-2.1 0.5c-0.9 0.3-2.1 0.3-2.7 1.1 0.8-0.2 1.7-0.4 2.5-0.6 0.1 0 0.4-0.1 0.4 0l-3.4 0.9-0.3 0.3q0.6-0.1 1.2-0.2c1-0.3 1.9-0.5 2.9-0.6q0.3-0.1 0.6-0.1c0 0 0.2-0.1 0.2 0-0.3 0.1-0.5 0.1-0.7 0.1-0.2 0-0.2 0.2-0.4 0.2-1.3 0.3-2.7 0.5-4 0.9-0.2 0-0.5 0.2-0.6 0.3 0.8-0.1 1.7-0.4 2.5-0.6 0.3 0 0.5 0 0.8-0.1 0.6-0.1 1.1-0.3 1.7-0.3 0.1 0 0.2-0.1 0.2 0-1.1 0.3-2.2 0.5-3.3 0.8-0.1 0-0.3 0-0.3 0.1 2.1-0.3 4.2-0.8 6.4-1z"/>
		<path class="s3" d="m22.6 12.1c-0.1 0.2 0.3 0.2 0.3 0.2l3.1-0.4-1 0.3-1.2 0.1 0.6 0.1c3.5-0.3 7-0.9 10.5-0.8 0.6 0 1.3 0.1 2 0.1 0 0 0.4 0 0.4-0.1l-1.7-0.3c0.7-0.1 1.4 0 2.1 0l-0.2-0.1-1.2-0.3h1.3l-0.8-0.4c0.1 0 0.4 0 0.4 0 0.2-0.1-0.2-0.1-0.1-0.3 0 0 0.4 0.1 0.3-0.1l-0.3-0.2c0.6-0.1 0.9-0.3 0.1-0.4l0.4-0.1c0.1-0.3-0.2-0.1-0.3-0.3l0.7-0.1c-0.2-0.2-0.6-0.1-0.9-0.2 0-0.1 0.4-0.1 0.5-0.2 0.2-0.2-0.6 0-0.5-0.2l0.8-0.1c-0.1-0.3-0.6-0.2-1-0.3 0-0.1 0.2-0.1 0.2-0.1q0.3 0 0.7 0c0-0.2-0.1-0.1-0.2-0.2-0.2 0-0.4 0-0.5-0.1l0.6-0.1v-0.2l-1.1-0.2c0.3-0.1 0.7 0 1-0.1 0 0 0.2 0 0.1-0.1-0.1-0.1-1.4-0.3-1.7-0.3 0-0.1 0.1-0.1 0.2-0.1 0.4 0 0.7 0.1 1.1 0 0.1 0 0-0.1-0.1-0.1-0.2-0.1-0.5-0.1-0.8-0.1l-1.2-0.2h1.8c0-0.2 0-0.1-0.1-0.1-0.4-0.2-0.8-0.1-1-0.3h1.5c0-0.1-0.1-0.1-0.2-0.1q-0.2-0.1-0.4-0.1c-0.1 0-0.2 0.1-0.1-0.1q0.2-0.1 0.4-0.1c0.1 0 0.3 0 0.2-0.1-0.7-0.2-1.5-0.3-2.3-0.4h-0.1c0.6-0.1 1.2 0 1.7-0.1l-0.7-0.2h-1.2c-0.1-0.2 0.1-0.2 0.2-0.2 0.3 0 0.7 0.1 1 0 0.1 0 0.2-0.1 0.1-0.1-0.1-0.1-1.8-0.1-2.1-0.2-0.1-0.1 0.2-0.1 0.3-0.1 0.4 0 0.8 0 1.1 0-0.6-0.4-1.4-0.1-2-0.3l-0.4 0.1 0.7-0.2c-1.4-0.1-2.9 0.1-4.3 0.3-1.3 0.2-2.5 0.5-3.7 0.9-0.3 0.1-1.3 0.3-1.5 0.5-0.2 0.9-0.6 1.8-0.8 2.8 0 0 1-0.8 1.1-0.9 0.1 0 0.2-0.1 0.2 0-0.1 0.2-0.4 0.4-0.6 0.6-0.3 0.2-0.5 0.4-0.7 0.6-0.1 0.1-0.4 0.2-0.4 0.4l1.3-0.9h0.2c-0.5 0.4-1 0.8-1.4 1.3l-0.2 0.1c0 0.2 0.1 0.1 0.2 0 0.3-0.1 0.5-0.4 0.8-0.5 0 0 0.1-0.1 0.1 0.1-0.2 0-0.3 0.3-0.4 0.4-0.2 0.1-0.5 0.2-0.6 0.4l-0.6 0.5 2.8-1.5v0.2c-0.8 0.4-1.6 0.9-2.3 1.5 0.4 0.1 1.9-1 2.1-0.9l-0.1 0.1-2 1.3q0.2 0 0.3-0.1c0.8-0.3 1.7-1 2.5-1.3 0.1 0 0.3-0.1 0.3 0l-3.4 1.9c0 0.1 0.2 0 0.3 0 0.6-0.2 1.2-0.6 1.9-0.8l-0.8 0.5-0.8 0.3c0 0.1 0.1 0.1 0.2 0.1 0.2-0.1 0.4-0.1 0.6-0.2 0 0 0.2 0 0.2 0.1-0.6 0.1-1.1 0.3-1.6 0.5-0.1 0.1-0.2 0.1-0.2 0.2l1.5-0.2c0 0 0.3-0.2 0.3 0-0.5 0.1-1 0.3-1.5 0.3z"/>
		<path class="s3" d="m13.4 39.8c0.2-0.1 0.2 0.1 0.3 0.2-0.1-0.1-0.3-0.1-0.3-0.2z"/>
		<path class="s3" d="m13.7 40c0.1 0 0.1 0 0.3 0 0.1 0 0.6 0.4 0.6 0.3 0.1-0.1-0.6-0.5-0.6-0.5-0.1-0.1-0.2-0.1-0.2-0.1 0 0 0-0.1 0.1-0.1 0.2 0 0.4 0.3 0.7 0.3 0.1-0.2-0.6-0.3-0.3-0.4l2.4 1.1c0-0.1-0.1-0.2-0.2-0.2-0.4-0.2-0.7-0.4-1.1-0.6 0-0.1-1.3-0.5-1.2-0.7 0.4 0.1 0.8 0.3 1.2 0.4v-0.1c0-0.1 0.8 0.2 1 0.2 2.9 0.9 7.4 2 9.7 3.9 0.1 0 0.7 0.6 0.6 0.7-0.2-0.1-0.4-0.4-0.6-0.3 0.1 0.2 1.2 0.8 1.1 1-0.4-0.2-0.8-0.5-1.2-0.6-0.1-0.1-0.2-0.1-0.2 0 0.5 0.3 1.3 0.5 1.5 1.1 0 0-0.1 0.1-0.1 0-0.4-0.2-0.8-0.5-1.2-0.6 0.3 0.4 1.1 0.6 1.1 1 0.1 0.1 0.1 0.1 0 0.1-0.2 0-1.2-0.7-1.3-0.6-0.1 0.2 1 0.6 1.1 0.7 0.2 0.2 0.6 0.5 0.2 0.6-0.3 0-0.6-0.3-0.9-0.3-0.1 0.1 1 0.6 0.9 0.8-0.5 0-0.9-0.4-1.4-0.4 0-0.1-0.1 0 0 0.1 0 0 0.6 0.3 0.5 0.4-0.5 0.1-1-0.3-1.5-0.3l0.9 0.5c0.3 0 0.8 0.1 1 0.3 0.1 0 0.1 0 0.1 0.1-0.6 0-1.1-0.2-1.6-0.2 0.2 0.2 0.7 0.2 1 0.4 0.1 0 0.2 0 0.2 0.1-0.5 0.1-1.1 0-1.6-0.2-0.2-0.1-1.1-0.5-1.2-0.4-0.1 0.1 0.1 0.1 0.2 0.1 0.7 0.4 1.5 0.6 2.3 0.8 0.1 0.1-0.1 0.1-0.2 0.2q-0.1 0-0.3 0c-1.3 0-5.5-2.9-6.7-3.8-1.1-0.8-2.8-2-3.8-3-0.1 0-0.4-0.3-0.3-0.4l1.3 0.9c0.1 0.1 0.1-0.1 0.1-0.1-0.1-0.1-0.6-0.3-0.7-0.4-0.3-0.2-0.6-0.5-0.9-0.7-0.1-0.1-0.3-0.3-0.3-0.4 0.1-0.1 0.5 0.3 0.6 0.3 0.2 0.1 0-0.2-0.1-0.3-0.4-0.3-0.6-0.2-1-0.7zm10.9 6.9l-0.1-0.1c-0.1 0 0.1 0.1 0.1 0.1z"/>
		<path class="s3" d="m27.4 45.6c0-0.1-0.1-0.2-0.1-0.2 0.3 0 0.3 0.3 0.1 0.2z"/>
		<path class="s3" d="m14.6 46.9v0.2c1.5 2.6 3 5.1 4.8 7.4 0.1 0.1 1.5 1.9 1.6 1.8v-0.1c0.2 0 0.5 0.5 0.6 0.7 0.1 0.1 0.5 0.7 0.6 0.6l-1.1-1.8c0.1-0.2 0.1-0.1 0.1 0 0.3 0.4 0.6 0.8 0.9 1.1 0 0.1 0 0.2 0.2 0.2-0.3-0.6-0.9-1.2-1.1-1.7-0.1-0.1-0.1-0.3 0-0.2l0.6 1 0.4 0.3c-0.1-0.2-0.3-0.5-0.4-0.7-0.2-0.2-0.4-0.4-0.5-0.7 0 0-0.2-0.3-0.1-0.3 0.4 0.5 0.8 1 1.1 1.5 0.1 0.1 0 0.1 0.2 0.1-0.1-0.2-0.3-0.6-0.4-0.8 0-0.1-0.1 0-0.2-0.1-0.1-0.2-0.3-0.5-0.3-0.7 0.1 0.1 0.2 0.2 0.3 0.4 0 0 0.1 0.1 0.1 0l-0.8-1.3c0.1-0.1 0.2 0.1 0.2 0.1 0.4 0.5 0.8 1 1.2 1.5 0.1 0.2 0.3 0.6 0.4 0.6 0.2 0.1-0.1-0.3-0.1-0.3 0-0.1-0.1-0.1-0.2-0.2-0.3-0.3-0.6-0.8-0.8-1.3 0.2 0 0.1 0.1 0.2 0.1 0.3 0.4 0.6 0.8 0.8 1.2 0.2-0.1 0-0.3 0-0.3-0.2-0.3-0.4-0.6-0.6-0.9l0.4 0.3c0.1 0.2 0.5 0.8 0.6 0.9 0 0 0.1 0 0.1-0.1-0.3-1.1-1.3-1.6-2-2.4-1.2-1-2.3-2.4-3.3-3.6-1-1.2-2.1-3-3.1-4 0-0.1-0.1-0.1-0.2-0.1 0 0.1 0.2 0.2 0.2 0.4 0.1 0 0.2 0.1 0 0.1l-0.4-0.5-0.3-0.3c0 0.2 0.2 0.5 0.3 0.8 0.1 0.1 0.2 0 0.2 0.1 0 0.1 0 0.3 0.1 0.4-0.1 0.2-0.1 0-0.1 0-0.1-0.1-0.4-0.7-0.5-0.6-0.1 0.2 0.4 0.9 0.5 1.1 0 0.2-0.1 0.2-0.1 0.2-0.1-0.1 0-0.2-0.1-0.2z"/>
		<path class="s3" d="m17.8 37c0.4 0 1 0.1 1.5 0l-1.3-0.1c0-0.1 0.1-0.1 0.2-0.1 0.7-0.1 1.3 0 1.9-0.2h-0.6l-0.4-0.1c1 0.1 2-0.5 3-0.5 0.7-0.1 1.9 0.1 2.6 0.4 0.5 0.3 0.6 0.8 0.6 1.4-0.1 0.5-0.3 1-0.8 1.1-0.7 0-2.5-0.2-3.2-0.3-1.3-0.2-2.5-0.5-3.6-1.2l0.2-0.1c-0.1-0.1-0.5-0.2-0.1-0.3z"/>
		<path class="s3" d="m8.2 44.8h-0.2c0.3 0.8 0.7 1.5 1.1 2.2 1.4 3.1 2.7 6.3 4.4 9.3 0.4 0.7 0.7 1.4 1.3 1.9 0.1-0.2-0.1-0.3-0.2-0.3-0.2-0.4-0.4-0.7-0.6-1 0-0.1-0.1-0.3 0-0.2 0.3 0.4 0.6 0.8 0.8 1.2 0.3 0.4 0.6 0.6 0.9 0.9 0.2-0.1-0.1-0.4-0.2-0.6-0.1-0.1-0.3-0.2-0.4-0.3l-0.4-0.8 0.4 0.4c0.2 0.3 0.5 0.7 0.8 1 0.1 0.1 0.5 0.5 0.4 0.2-0.1-0.1-0.9-1-0.8-1.1 0.1-0.1 0.1 0.1 0.2 0.1 0.1 0.2 0.4 0.6 0.6 0.4 0-0.1-0.3-0.3-0.3-0.5 0.3 0.1 0.4 0.6 0.8 0.5 0 0-0.5-0.6-0.5-0.7 0.2 0.1 0.3 0.3 0.5 0.4 0.5 0.6 0.5 0.3 0.2-0.2 0.2 0.1 0.4 0.4 0.7 0.4 0.1-0.1-0.7-0.8-0.8-1-3.1-3.8-5.3-8.4-7.6-12.7-0.1-0.1-0.1-0.1-0.1 0 0 0.2 0.2 0.4 0.2 0.6 0.1 0 0.1 0.2 0 0.2-0.2-0.4-0.3-0.8-0.5-1.2-0.1-0.1-0.2-0.2-0.2-0.2l0.5 1.4-0.2-0.1c0 0.2 0.2 0.3 0.2 0.5l-0.2-0.1v0.2l-0.5-0.9v0.4q-0.2-0.6-0.6-1.1c-0.1 0.2 0.3 0.7 0.3 0.8z"/>
		<path class="s0" d="m0 30.3v25.5c0.4 0 0.4-0.7 0.8-1.9q0.2-0.8 0.3-1.9c0.4-2.2 0.5-5.3 1-9 0.6-4.2 0.8-8.5 0.3-10.8q-0.3-1.1-0.8-1.5-0.6-0.5-1.6-0.4z"/>
		<path class="s0" d="m8.9 10.6c-2 0.3-4.2 0.9-5.6 2.6-1 1.8-2 3.6-2.7 5.5-0.2 0.5-0.6 1.2-0.5 1.7 0.1-0.6 0.3-1.1 0.5-1.7 1.1-1.9 1.8-4.4 3.7-5.7 1.5-0.9 3.2-1.5 4.6-2.4z"/>
		<path class="s0" d="m0 20.9v9.9c0.6 0 1.1 0.1 1.6-0.1q0.3-0.1 0.6-0.5 0.1-0.1 0.2-0.2 0.1-0.2 0.3-0.6c0.3-0.7 0.6-1.8 0.7-2.7q0.1-0.4 0.1-0.8c0-2.3-1.1-4.3-2.6-4.9q-0.3-0.1-0.7-0.1 0 0-0.1 0z"/>
		<path class="s0" d="m0 19.3v2.2c0.4 0 0.7-0.2 0.9-0.5q0.3-0.3 0.3-0.8c0-0.5-0.3-0.8-0.8-0.9q0 0-0.1 0-0.1 0-0.3 0z"/>
	</g>
</svg>