<svg width="103" height="76" viewBox="0 0 103 76" fill="none" xmlns="http://www.w3.org/2000/svg">
<path d="M100.307 57.6824C99.3957 61.2594 95.0542 64.0518 89.2034 63.5598C89.1435 63.5598 89.0837 63.5532 89.0305 63.5465C89.0305 63.5465 88.9906 63.8923 88.8045 64.4508C88.2127 66.2858 86.1316 70.4545 79.1173 72.5355C69.9621 75.2548 66.0727 74.3838 63.7456 73.1405C63.7456 73.1405 63.5595 73.2203 63.1938 73.3466C61.6248 73.8852 56.8177 75.2814 50.4217 74.7894C42.5497 74.1844 36.8917 72.6618 35.9676 70.8933C35.9676 70.8933 35.9477 70.8999 35.9078 70.9265C35.828 70.9664 35.6618 71.0595 35.4091 71.1659C33.8533 71.8573 28.9865 73.473 20.6225 71.5316C14.1334 70.029 13.1096 66.9107 12.9965 65.4347C12.9566 64.9361 13.0297 64.6303 13.0297 64.6303C13.0297 64.6303 13.0165 64.6303 12.9899 64.6303C12.5577 64.7034 8.56189 65.2552 4.51951 61.2927C0.74308 57.596 5.38379 51.8383 5.38379 51.8383C5.38379 51.8383 0.922545 49.9168 5.38379 43.6471C8.60838 39.1061 14.6188 27.6172 17.6904 21.6334C18.1691 20.7093 18.5747 19.9181 18.8872 19.2998C18.8939 19.2798 18.9071 19.2599 18.9138 19.2466C18.9271 19.2133 18.9404 19.1934 18.9404 19.1934C19.3659 18.3557 19.6053 17.8703 19.6053 17.8703C19.6053 17.8703 20.0375 17.0193 20.7356 15.9422C20.7356 15.9355 20.7488 15.9223 20.7555 15.9156C21.6331 14.5859 22.9229 12.9171 24.3391 12.1192C24.4056 12.0793 24.4788 12.0461 24.5452 12.0128C24.5452 12.0128 24.5453 11.9996 24.5586 11.9663C24.5586 11.9597 24.5651 11.9397 24.5718 11.9264C24.5851 11.8865 24.6051 11.84 24.6317 11.7868C24.6649 11.7137 24.7114 11.6139 24.7646 11.5009C24.7846 11.461 24.8045 11.4278 24.8244 11.3812C25.0172 11.0023 25.3298 10.497 25.8018 9.94512C25.9681 9.75231 26.1542 9.55284 26.3603 9.35338C26.4002 9.31349 26.4467 9.26695 26.4932 9.22706C26.7924 8.94781 27.1249 8.66858 27.5105 8.40263C27.6235 8.32285 27.7432 8.24306 27.8629 8.16992C27.9094 8.13668 27.9626 8.10345 28.0158 8.07685C28.1155 8.01702 28.2152 7.95716 28.3216 7.89733C28.428 7.83749 28.5344 7.77766 28.6474 7.72448C28.7205 7.68458 28.8004 7.6447 28.8735 7.6048C29.1195 7.48513 29.3788 7.3721 29.6514 7.26572C29.7178 7.23912 29.791 7.21253 29.8575 7.18594C30.0171 7.1261 30.1766 7.06625 30.3495 7.01306C30.4891 6.96652 30.6421 6.91999 30.795 6.87345C30.8083 6.87345 30.8215 6.86679 30.8415 6.86014C31.1939 6.76041 31.5728 6.67398 31.9651 6.5942C32.0183 6.5809 32.0715 6.57426 32.1313 6.56096C32.2177 6.54766 32.3108 6.52772 32.3973 6.52107C32.63 6.48118 32.8759 6.44793 33.1286 6.41469C33.2483 6.39474 33.3746 6.3881 33.501 6.3748C33.5209 6.3748 33.5408 6.3748 33.5608 6.3748C33.7403 6.35485 33.9265 6.34156 34.106 6.33491C34.106 6.33491 34.1059 6.32826 34.1259 6.30831C34.1259 6.30831 34.1325 6.30166 34.1392 6.28836C34.1791 6.22853 34.2589 6.12879 34.3785 5.98917C34.4251 5.93598 34.4717 5.88279 34.5249 5.82295C34.6379 5.69663 34.7775 5.55035 34.9371 5.40408C34.9836 5.35754 35.0368 5.30437 35.09 5.25783C35.2496 5.10491 35.429 4.95863 35.6285 4.80571C35.6817 4.76582 35.7349 4.72593 35.788 4.68604C35.9277 4.57966 36.0673 4.47993 36.2202 4.39349C36.3067 4.33366 36.3931 4.28047 36.4862 4.22728C36.5327 4.20068 36.5792 4.16744 36.6258 4.1475C36.6723 4.1209 36.7189 4.0943 36.7655 4.07435C36.8585 4.02116 36.9582 3.97464 37.0646 3.9281C37.1577 3.88156 37.2575 3.84167 37.3572 3.80178C37.5899 3.70205 37.8226 3.62224 38.0752 3.55576C38.1351 3.53581 38.1949 3.51588 38.2614 3.50258C38.3811 3.46933 38.5074 3.44274 38.6337 3.4228C38.6869 3.41615 38.7401 3.40285 38.7932 3.3962C38.873 3.3829 38.9528 3.36961 39.0392 3.36296C39.5911 3.30312 40.0299 3.32306 40.3756 3.3962C40.3956 3.3962 40.4156 3.40284 40.4355 3.40949C40.5552 3.43608 40.6682 3.46934 40.768 3.50923C40.8079 3.52918 40.8477 3.54247 40.8876 3.56241C41.0405 3.63555 41.1735 3.71533 41.2666 3.80841C41.2932 3.835 41.3198 3.85496 41.3397 3.88156C41.4129 3.95469 41.4661 4.02118 41.5126 4.08766C41.5326 4.11426 41.5525 4.1475 41.5724 4.1741C41.5924 4.20069 41.6056 4.23394 41.6189 4.26053C41.6788 4.39351 41.6921 4.48659 41.6921 4.48659C41.6921 4.48659 41.6987 4.47329 41.7187 4.4467C41.7187 4.42675 41.7387 4.4068 41.7586 4.3802C41.7586 4.3802 41.7852 4.33366 41.7985 4.31371C41.8117 4.28712 41.8317 4.26053 41.8516 4.23393C42.1574 3.80177 42.8955 2.92414 44.1721 2.29252C44.2518 2.25263 44.3383 2.21274 44.4247 2.17285C44.5976 2.09971 44.7771 2.02658 44.9632 1.96674C45.0231 1.9468 45.0829 1.92685 45.1361 1.90691C45.1959 1.88696 45.2558 1.86702 45.3223 1.84707C45.5084 1.79388 45.7013 1.75397 45.914 1.70743C46.1002 1.66754 46.2996 1.64096 46.5057 1.62102C46.6386 1.60772 46.7717 1.59441 46.9046 1.58776C47.1307 1.57447 47.3434 1.57446 47.5429 1.58111C47.6027 1.58111 47.6493 1.58111 47.6958 1.58111C48.1346 1.59441 48.5003 1.65425 48.8062 1.73403C48.8793 1.75398 48.9524 1.77393 49.0189 1.80053C49.0588 1.80717 49.092 1.82712 49.1253 1.84042C49.1785 1.86036 49.225 1.88031 49.2715 1.90025C49.358 1.94014 49.4311 1.97338 49.5042 2.01992C49.5375 2.03987 49.5641 2.05981 49.5973 2.07976C49.6571 2.11965 49.7103 2.15291 49.7635 2.19945C49.7901 2.21939 49.8101 2.23934 49.8366 2.25928C49.8699 2.28588 49.8965 2.31247 49.9231 2.33906C49.9696 2.3856 50.0095 2.42549 50.0428 2.47868C50.0827 2.51857 50.1159 2.56513 50.1425 2.61832C50.1558 2.63826 50.1691 2.65821 50.1824 2.67815C50.2023 2.7114 50.2223 2.74463 50.2356 2.77788C50.2356 2.78453 50.2423 2.79117 50.2423 2.79782C50.2622 2.83771 50.2755 2.87096 50.2888 2.9042C50.322 2.98399 50.342 3.05711 50.3619 3.1236C50.4151 3.3563 50.3952 3.52252 50.3952 3.52252C50.3952 3.52252 50.3952 3.49593 50.4085 3.46269C50.4085 3.44274 50.4151 3.42279 50.4284 3.38954C50.4417 3.343 50.4617 3.28317 50.4883 3.21004C50.5681 2.97733 50.721 2.63826 50.9803 2.30583C51.0202 2.24599 51.0667 2.1928 51.1199 2.13961C51.1664 2.07978 51.2196 2.02659 51.2728 1.9734C51.3127 1.9335 51.3459 1.90026 51.3925 1.86702C51.4656 1.80718 51.5387 1.74733 51.6119 1.68749C51.6916 1.62765 51.7781 1.57446 51.8712 1.52127C51.9111 1.49468 51.9443 1.47475 51.9908 1.4548C52.0639 1.41491 52.1438 1.38167 52.2302 1.34842C52.2635 1.33512 52.2966 1.32183 52.3299 1.30853C52.3764 1.28859 52.4297 1.26863 52.4829 1.25533C52.6092 1.21544 52.7488 1.1822 52.8951 1.15561C53.0015 1.13566 53.1078 1.12236 53.2142 1.11572C53.2475 1.11572 53.2741 1.11571 53.3073 1.10906C53.3339 1.10906 53.3671 1.10906 53.3937 1.10906C53.6796 1.10241 53.9921 1.10907 54.3311 1.16226C54.9628 1.24869 55.4747 1.34841 55.9002 1.46144C55.9733 1.48138 56.0399 1.50133 56.1064 1.52127C56.133 1.52127 56.1662 1.53458 56.1928 1.54787C56.2593 1.56782 56.3191 1.58776 56.379 1.60771C56.4521 1.62765 56.5186 1.65426 56.585 1.68085C56.6382 1.7008 56.6848 1.72074 56.7379 1.74069C56.8111 1.76728 56.8776 1.80052 56.9441 1.83376C57.0039 1.86036 57.0638 1.8936 57.1236 1.9202C57.1835 1.95344 57.2366 1.98669 57.2832 2.01329C57.3297 2.05318 57.3762 2.08642 57.4228 2.11967C57.8682 2.4654 58.0345 2.87761 58.2605 3.36296C58.2738 3.39621 58.2871 3.42944 58.307 3.46269C58.307 3.46269 58.307 3.4627 58.3203 3.4494C58.327 3.4494 58.347 3.43609 58.3669 3.41614C58.3935 3.40285 58.4268 3.37625 58.46 3.34965C58.5331 3.29646 58.6328 3.22998 58.7592 3.16349C58.7991 3.1369 58.839 3.11031 58.8855 3.09036C58.9188 3.07042 58.952 3.05048 58.9918 3.03053C59.0517 2.99729 59.1115 2.96405 59.178 2.9308C59.3309 2.85767 59.4972 2.77787 59.6833 2.71139C59.7498 2.68479 59.8229 2.65155 59.8894 2.63161C59.9692 2.60501 60.0556 2.57841 60.1421 2.55846C60.7604 2.3856 61.4851 2.31911 62.2032 2.53852C62.3295 2.57841 62.4625 2.61831 62.5888 2.65821C62.7085 2.6981 62.8215 2.73799 62.9412 2.78453C63.1473 2.85767 63.3534 2.93745 63.5595 3.03053C63.6658 3.07042 63.7722 3.11696 63.8786 3.17015C63.965 3.21004 64.0648 3.25657 64.1512 3.30976C64.3374 3.40284 64.5235 3.51588 64.7097 3.6289C64.7695 3.66215 64.8227 3.70204 64.8759 3.73528C65.1418 3.90815 65.3878 4.10096 65.6338 4.31371C65.6937 4.36025 65.7402 4.41345 65.7934 4.46664C65.953 4.61291 66.1126 4.77911 66.2589 4.95198C66.3453 5.05171 66.4317 5.15809 66.5115 5.26447C66.7775 5.61684 67.0301 6.02242 67.2495 6.48118C67.3093 6.60751 67.3692 6.74046 67.4224 6.88008C67.4224 6.88008 67.5088 6.88008 67.6551 6.90003C67.6817 6.90003 67.7149 6.90004 67.7481 6.90668H67.7681C67.8612 6.91333 67.9742 6.93328 68.1005 6.94657C68.187 6.95322 68.2734 6.97317 68.3731 6.98646C68.4196 6.99311 68.4729 6.99977 68.5261 7.01306C68.6324 7.03301 68.7388 7.05295 68.8585 7.0729C69.3239 7.15268 69.869 7.27237 70.4674 7.43859C70.6403 7.48513 70.8198 7.54496 70.9927 7.59815C71.4847 7.75772 71.9967 7.95052 72.5086 8.18987C72.7413 8.29625 72.9806 8.40927 73.2133 8.54225C73.313 8.59544 73.4128 8.64862 73.5126 8.70846C73.599 8.76165 73.6987 8.81485 73.7851 8.86804C74.1774 9.10075 74.5563 9.37334 74.9286 9.67252C75.0417 9.75896 75.1481 9.85204 75.2545 9.94512C75.2545 9.94512 75.2611 9.95176 75.2677 9.95841C75.3675 10.0515 75.4606 10.1446 75.5603 10.2377C75.6667 10.3374 75.7664 10.4438 75.8595 10.5435C75.8794 10.5634 75.8994 10.5834 75.9127 10.6033C76.2185 10.9358 76.5044 11.3014 76.7637 11.7004C76.8036 11.7602 76.8435 11.8267 76.8834 11.8932C78.7251 14.8319 82.3951 22.0656 86.4973 29.0201C90.174 35.2632 94.263 41.2669 96.836 43.8133C99.4755 46.4396 97.7003 48.6934 96.7296 49.6043C96.59 49.7373 96.4636 49.837 96.3705 49.9101C96.2708 49.9833 96.2176 50.0298 96.2176 50.0298C96.2176 50.0298 101.237 54.1121 100.313 57.729L100.307 57.6824Z" fill="#E68958"/>
<path d="M30.1899 25.031C30.1899 25.031 13.9273 59.9032 13.0231 64.6304C13.0231 64.6304 33.7935 30.5161 32.5036 25.4366C31.9119 23.0829 30.1833 25.031 30.1833 25.031H30.1899Z" fill="#D47E51"/>
<path d="M47.1241 24.2004C47.1241 24.2004 35.7416 66.18 35.7017 70.9869C35.7017 70.9869 51.6518 28.9542 49.4777 24.1871C48.4738 21.9797 47.1241 24.2004 47.1241 24.2004Z" fill="#D47E51"/>
<path d="M60.8867 22.1722C60.8867 22.1722 64.7363 33.0428 65.2416 44.6779C65.7802 57.184 62.9944 70.601 63.739 73.1408C63.739 73.1408 68.2535 58.4539 68.4928 44.6248C68.679 33.721 64.876 23.2826 63.2603 21.4409C61.5649 19.5062 60.8867 22.1722 60.8867 22.1722Z" fill="#D47E51"/>
<path d="M68.4995 17.3316C68.4995 17.3316 69.0845 17.4314 70.6403 20.1174C72.841 23.9072 76.4911 31.3404 78.8447 37.743C83.1663 49.4912 87.714 61.3723 89.1967 63.5664C90.1873 63.6395 86.8431 50.9406 81.0721 37.5635C76.7504 27.5506 72.6282 17.1854 70.5339 15.9221C68.3332 14.5924 68.4928 17.3383 68.4928 17.3383L68.4995 17.3316Z" fill="#D47E51"/>
<path d="M73.26 12.731C73.26 12.731 73.8251 12.8573 75.4806 15.5234C77.821 19.2866 81.87 26.3142 85.0946 32.2913C91.0717 43.3813 94.6421 47.8226 96.3641 49.8637C95.8455 48.5606 94.0104 46.074 86.524 32.8365C81.1453 23.3289 77.196 12.844 75.1149 11.501C72.9275 10.0981 73.26 12.731 73.26 12.731Z" fill="#D47E51"/>
<path d="M22.4507 18.4025C22.4507 18.4025 6.28117 47.7962 5.37695 51.8386C5.37695 51.8386 7.38485 48.9531 13.116 39.1862C16.048 34.1864 24.0863 20.4636 24.7711 18.7482C25.549 16.8002 22.4507 18.4025 22.4507 18.4025Z" fill="#D47E51"/>
<path d="M76.9498 13.3225C76.89 14.1203 75.8461 13.5352 75.2611 13.4156C75.0616 13.3757 74.9419 13.4289 74.9419 13.6549C74.9419 13.8344 75.7398 15.7027 76.2185 16.7332C77.5083 19.5057 76.1254 19.2996 75.5736 18.9672C75.0218 18.6348 73.6255 16.6801 74.051 18.2757C74.4832 19.8714 73.8449 21.6798 72.5285 21.015C72.2492 20.8754 72.0299 20.6427 71.8371 20.3568C71.5645 19.9445 71.5711 20.1174 71.3451 19.6188C71.3451 19.6188 71.3451 19.6121 71.3451 19.6055C71.3451 19.5988 71.3451 19.5922 71.3384 19.5789C71.1855 19.2597 71.0326 18.9539 70.8398 18.7012C70.6004 18.3821 70.3012 18.1561 69.9023 18.1095C68.3664 17.93 69.3172 19.0935 68.9582 19.6653C68.4196 20.5163 68.5725 18.5217 66.5513 19.3994C64.5302 20.2703 66.2056 23.5814 65.2283 24.1531C64.2443 24.7249 62.8946 23.5282 62.9012 26.2142C62.9012 26.6597 62.9345 27.0985 62.9877 27.524C63.3201 30.3896 64.5701 32.7432 64.4371 34.7245C64.4371 34.8109 64.4504 34.9107 64.4105 34.9838C63.8121 36.1074 63.3866 35.5423 63.021 35.0237C62.15 33.8003 60.275 30.6688 59.6833 29.4056C59.0916 28.1423 60.4811 27.3578 60.1354 25.9749C59.783 24.5919 57.7153 24.4457 56.4454 23.5614C55.1755 22.6771 55.0957 29.7446 53.1809 29.9441C51.2595 30.1436 52.6224 26.6198 51.6916 26.5865C50.5215 26.5467 50.3486 32.3975 48.7928 33.7006C47.2437 35.0104 46.9378 30.6688 46.9378 29.9441C46.9378 29.738 46.9711 29.0532 46.9179 28.262C46.8781 27.7501 46.8115 27.2115 46.6852 26.7262C46.2796 25.2369 45.3089 24.3127 42.8489 26.7262C39.365 30.1569 38.3145 27.7301 38.4741 26.9655C38.647 26.2076 38.1483 23.9138 36.0606 28.4149C33.9796 32.9094 31.1274 34.3256 30.9612 32.8828C30.8016 31.4401 32.5967 26.3671 32.1047 26.3671C32.0848 26.3671 32.0648 26.3671 32.0448 26.3738C31.8387 26.427 31.4931 26.7328 31.1074 27.0719C30.416 27.6836 30.0503 27.9163 29.7444 27.5772C29.2524 27.0187 29.7178 26.3007 28.9 27.0254C28.0823 27.7501 27.0318 28.7075 26.2938 28.1822C25.5625 27.657 26.4467 25.7023 25.5425 25.7821C24.6981 25.8552 22.2979 29.3191 20.6823 30.1436C20.4629 30.2566 20.1903 30.2433 20.0108 30.0771C19.7648 29.851 19.5388 29.3524 19.7914 28.2288C20.4031 25.5161 24.0731 20.9219 23.7473 20.7623C23.5678 20.6759 23.0493 21.2078 22.5373 21.6001C22.2248 21.8328 21.919 22.0189 21.6929 21.9857C21.5998 21.979 21.5201 21.9258 21.4602 21.8461C20.9682 21.1612 22.7634 19.6786 21.8658 19.16C20.9682 18.6348 18.6412 22.0588 17.7769 22.0522C17.6439 22.0522 17.6372 21.8793 17.6838 21.6333C18.1625 20.7091 18.5681 19.918 18.8806 19.2996C18.8872 19.2797 18.9005 19.2597 18.9072 19.2464C18.9205 19.2132 18.9337 19.1933 18.9337 19.1933C19.3592 18.3555 19.5986 17.8702 19.5986 17.8702C19.5986 17.8702 20.0307 17.0058 20.7421 15.9221C21.6264 14.7453 23.9335 12.9369 23.9468 12.9036C23.9468 12.897 25.1436 12.6177 25.2234 12.4981C25.3032 12.3784 25.5558 10.4902 25.7686 10.2841C25.8084 10.2442 25.855 10.1976 25.9082 10.1577C26.2073 9.8785 26.5465 9.59924 26.9454 9.33329C27.0584 9.25351 27.1781 9.17374 27.3044 9.10061C27.351 9.06736 27.4041 9.03411 27.4573 9.00752C27.5637 8.94768 27.6634 8.88785 27.7698 8.82801C27.8828 8.76817 27.9892 8.70833 28.1022 8.65514C28.1754 8.61525 28.2551 8.57536 28.3349 8.53547C28.5809 8.41579 28.8469 8.30276 29.1195 8.19638C29.1926 8.16979 29.2591 8.14319 29.3256 8.1166C29.4918 8.05676 29.6513 7.99692 29.8242 7.94373C29.9638 7.89719 30.1234 7.85065 30.2764 7.80411C30.2897 7.80411 30.3029 7.79747 30.3229 7.79082C30.6819 7.69109 31.0608 7.60464 31.4664 7.52486C31.5262 7.51156 31.5728 7.49827 31.6326 7.49163C31.7257 7.47833 31.8188 7.45838 31.9052 7.45173C32.1446 7.41184 32.3972 7.3786 32.6499 7.34535C32.7762 7.32541 32.9026 7.31876 33.0289 7.30546C33.0489 7.30546 33.0688 7.30546 33.0887 7.30546C33.2682 7.28552 33.4544 7.27222 33.6472 7.26557C33.6472 7.26557 33.6472 7.25892 33.6672 7.23897C33.6672 7.23897 33.6738 7.23232 33.6805 7.21903C33.7204 7.15919 33.8001 7.05947 33.9265 6.91985C33.973 6.86666 34.0195 6.81347 34.0727 6.75363C34.1924 6.62731 34.3254 6.48104 34.4916 6.33477C34.5381 6.28823 34.5913 6.23504 34.6445 6.1885C34.8107 6.03558 34.9969 5.88929 35.1897 5.73637C35.2496 5.69648 35.2961 5.65659 35.3559 5.6167C35.4956 5.51032 35.6418 5.41059 35.788 5.32416C35.8745 5.26432 35.9676 5.21113 36.0606 5.15794C36.1138 5.13135 36.1604 5.09811 36.2069 5.07816C36.2534 5.05157 36.3 5.02498 36.3532 5.00504C36.4463 4.95185 36.546 4.90531 36.6524 4.85877C36.7455 4.81222 36.8452 4.77233 36.9515 4.73244C37.1842 4.63271 37.4237 4.55293 37.6763 4.48644C37.7428 4.4665 37.8026 4.44654 37.8691 4.43324C37.9887 4.4 38.1218 4.37341 38.2481 4.35346C38.3079 4.34681 38.3611 4.33351 38.4143 4.32686C38.4941 4.31356 38.5805 4.30027 38.6669 4.29363C39.2254 4.23379 39.6775 4.25373 40.0232 4.32686C40.0432 4.32686 40.0632 4.33352 40.0831 4.34017C40.2028 4.36677 40.3158 4.40001 40.4155 4.4399C40.4554 4.45984 40.5019 4.47313 40.5352 4.49308C40.6881 4.56621 40.8211 4.64599 40.9209 4.73907C40.9474 4.76567 40.974 4.78563 40.994 4.81222C41.0671 4.88535 41.127 4.95184 41.1668 5.01833C41.1868 5.04492 41.2067 5.07817 41.2267 5.10476C41.2466 5.13136 41.2599 5.1646 41.2732 5.1912C41.3397 5.32417 41.3529 5.41725 41.3529 5.41725C41.3529 5.41725 41.3596 5.40395 41.3796 5.37736C41.3796 5.35741 41.3996 5.33746 41.4195 5.31087C41.4195 5.31087 41.4461 5.26432 41.4594 5.24438C41.4726 5.21778 41.4926 5.19119 41.5126 5.1646C41.8251 4.73244 42.5763 3.8548 43.8728 3.22318C43.9526 3.18329 44.039 3.1434 44.1255 3.10351C44.2983 3.03038 44.4779 2.95724 44.6707 2.89741C44.7305 2.87746 44.7903 2.85752 44.8435 2.83757C44.91 2.81762 44.9698 2.79768 45.0363 2.77773C45.2291 2.72455 45.4286 2.67801 45.6347 2.63812C45.8275 2.59823 46.0337 2.57163 46.2331 2.55168C46.3727 2.53839 46.4991 2.52508 46.6453 2.51843C46.878 2.50513 47.0908 2.50514 47.2902 2.51179C47.3501 2.51179 47.3966 2.51179 47.4498 2.51179C47.8952 2.52509 48.2676 2.58491 48.5801 2.6647C48.6532 2.68464 48.7263 2.70459 48.7995 2.73119C48.8394 2.73784 48.8726 2.75778 48.9059 2.77108C48.9591 2.79103 49.0056 2.81097 49.0521 2.83091C49.1386 2.87081 49.2183 2.90407 49.2848 2.95061C49.3181 2.97055 49.3513 2.9905 49.3846 3.01044C49.4444 3.05033 49.4976 3.08357 49.5508 3.13011C49.5774 3.15006 49.5973 3.17 49.6239 3.18995C49.6572 3.21654 49.6838 3.24313 49.7103 3.26973C49.7569 3.31627 49.7967 3.35615 49.83 3.40934C49.8699 3.44924 49.9031 3.49579 49.9364 3.54898C49.9497 3.56893 49.963 3.58887 49.9763 3.60882C49.9963 3.64206 50.0162 3.6753 50.0295 3.70854C50.0295 3.71519 50.0361 3.72184 50.0361 3.72849C50.0561 3.76838 50.0693 3.80162 50.0826 3.83487C50.1159 3.91465 50.1359 3.98778 50.1558 4.05426C50.2157 4.28697 50.1957 4.45319 50.1957 4.45319C50.1957 4.45319 50.1957 4.42659 50.209 4.39335C50.209 4.37341 50.2157 4.35347 50.229 4.32023C50.2423 4.27369 50.2622 4.21383 50.2888 4.1407C50.3686 3.908 50.5281 3.56893 50.7874 3.23649C50.8273 3.17666 50.8738 3.12347 50.927 3.07028C50.9736 3.01044 51.0334 2.95725 51.0866 2.90406C51.1265 2.86417 51.1598 2.83092 51.2063 2.79768C51.2794 2.73784 51.3592 2.67801 51.4323 2.61817C51.5121 2.55834 51.6052 2.50515 51.6983 2.45196C51.7382 2.42536 51.7715 2.40541 51.818 2.38547C51.8978 2.34557 51.9776 2.31233 52.064 2.27909C52.0972 2.26579 52.1371 2.25249 52.1703 2.2392C52.2169 2.21925 52.27 2.19929 52.3232 2.186C52.4562 2.1461 52.5892 2.11286 52.7421 2.08627C52.8485 2.06632 52.9616 2.05303 53.0679 2.04638C53.1012 2.04638 53.1277 2.04637 53.161 2.03972C53.1875 2.03972 53.2208 2.03972 53.254 2.03972C53.5399 2.03308 53.8658 2.03974 54.2048 2.09292C54.8431 2.17936 55.3684 2.27907 55.8072 2.3921C55.8803 2.41205 55.9468 2.43201 56.0199 2.45196C56.0465 2.45196 56.0797 2.46524 56.1063 2.47854C56.1728 2.49848 56.2327 2.51843 56.2992 2.53837C56.3723 2.55832 56.4388 2.58492 56.5052 2.61152C56.5651 2.63146 56.6116 2.65141 56.6582 2.67135C56.7313 2.69795 56.7978 2.7312 56.8643 2.76444C56.9241 2.79104 56.984 2.82427 57.0438 2.85086C57.1037 2.8841 57.1635 2.91736 57.21 2.94395C57.2566 2.98384 57.3031 3.01709 57.3496 3.05033C57.8084 3.39606 57.9746 3.80827 58.2007 4.29363C58.214 4.32687 58.2272 4.36011 58.2472 4.39335C58.2472 4.39335 58.2472 4.39336 58.2605 4.38006C58.2671 4.38006 58.2871 4.3601 58.307 4.34681C58.3336 4.33351 58.3669 4.30693 58.4001 4.28034C58.4799 4.22715 58.5797 4.16066 58.6993 4.09417C58.7392 4.06758 58.7857 4.04097 58.8323 4.02103C58.8655 4.00108 58.8988 3.98114 58.9387 3.96119C58.9985 3.92795 59.065 3.89471 59.1315 3.86147C59.2844 3.78833 59.4572 3.70854 59.6434 3.64205C59.7099 3.61546 59.783 3.58222 59.8495 3.56227C59.936 3.53568 60.0224 3.50909 60.1022 3.48915C60.7338 3.31628 61.4652 3.24979 62.2032 3.4692C62.3295 3.50909 62.4691 3.54898 62.5954 3.58887C62.7151 3.62876 62.8347 3.66866 62.9611 3.7152C63.1672 3.78833 63.38 3.86811 63.5861 3.96119C63.6924 4.00109 63.8055 4.04762 63.9052 4.10081C63.9916 4.1407 64.0914 4.18724 64.1845 4.24043C64.3773 4.33351 64.5634 4.44654 64.7496 4.55957C64.8094 4.59281 64.8693 4.63271 64.9225 4.66595C65.1884 4.83881 65.4477 5.03162 65.6937 5.24438C65.7536 5.29092 65.8001 5.34412 65.8533 5.3973C66.0195 5.54357 66.1724 5.70978 66.332 5.88264C66.4184 5.98237 66.5048 6.08875 66.5846 6.19513C66.8572 6.54751 67.1099 6.95309 67.3359 7.41184C67.3958 7.53817 67.4556 7.67115 67.5088 7.81077C67.5088 7.81077 67.5952 7.81077 67.7481 7.83071C67.7747 7.83071 67.808 7.8307 67.8412 7.83735H67.8612C67.9609 7.844 68.0739 7.86394 68.2068 7.87724C68.2933 7.88389 68.3797 7.90385 68.4861 7.91715C68.5327 7.9238 68.5858 7.93043 68.639 7.94373C68.7454 7.95703 68.8584 7.97697 68.9715 8.00356C69.4435 8.08335 70.002 8.20304 70.607 8.36925C70.7865 8.41579 70.9661 8.47562 71.1456 8.52881C71.6442 8.68838 72.1694 8.8812 72.6947 9.12055C72.934 9.22693 73.1734 9.33996 73.4128 9.47293C73.5192 9.52612 73.6189 9.57931 73.7186 9.63915C73.805 9.69234 73.9048 9.74552 73.9979 9.79871C74.317 9.98487 74.8422 9.8519 75.2212 9.95163C75.3209 10.0447 75.414 10.1378 75.5137 10.2309C75.6201 10.3306 75.7199 10.437 75.8129 10.5367C75.8329 10.5566 75.8528 10.5766 75.8661 10.5966C76.1719 10.929 76.4579 11.2947 76.7172 11.6936C76.757 11.7534 76.797 11.8199 76.8369 11.8864C76.9698 12.5047 76.9499 12.7308 76.9033 13.3624L76.9498 13.3225Z" fill="#C7764C"/>
<path d="M74.5432 12.8436C74.5432 13.0231 74.6163 13.309 74.7692 13.7146C74.7692 13.7146 74.7692 13.7146 74.7692 13.7212C74.9687 14.2598 75.2944 15.0177 75.7665 16.0549C77.0297 18.8274 76.0657 18.8274 75.5272 18.495C74.982 18.1625 73.2401 15.789 73.6656 17.3847C74.0844 18.9803 73.8184 21.4536 72.522 20.7888C72.2494 20.6491 72.03 20.4164 71.8505 20.1305C71.5846 19.7183 71.3718 19.1864 71.1524 18.6944C71.1524 18.6944 71.1524 18.6878 71.1524 18.6811C71.1524 18.6745 71.1524 18.6678 71.1457 18.6545C70.9994 18.3354 70.8465 18.0296 70.6604 17.7769C70.4277 17.4578 70.1351 17.2317 69.7362 17.1852C68.2336 17.0057 69.0381 18.8939 68.8985 19.2662C68.5328 20.197 68.3532 18.362 66.372 19.2396C64.384 20.1106 66.0728 23.4216 65.1021 23.9934C64.1381 24.5652 62.8482 22.6038 62.8549 25.2899C62.8549 25.7353 62.8881 26.1742 62.9413 26.5997C63.2671 29.4652 64.4971 31.8189 64.3641 33.8002C64.3641 33.8866 64.3508 33.973 64.3375 34.0595C64.0383 36.3931 63.533 35.4823 62.9678 34.0993C62.4094 32.7098 60.4813 30.5224 59.8962 29.2591C59.3177 27.9959 60.7805 27.2911 60.4414 25.9082C60.1023 24.5253 57.7553 23.5214 56.5054 22.6371C55.2554 21.7528 55.1025 29.4187 53.2143 29.6248C51.3261 29.8243 52.8951 26.2872 51.7449 26.2539C50.6014 26.2141 50.249 31.9452 48.7198 33.2483C47.1973 34.5581 47.1508 29.7445 47.1508 29.0198C47.1508 28.8137 47.184 28.1289 47.1308 27.3377C47.0976 26.8257 47.0311 26.2872 46.9048 25.8018C46.5058 24.3125 45.5351 23.3684 43.135 25.8018C38.7202 30.2963 38.6737 26.8058 38.84 26.0412C39.0062 25.2832 38.5208 22.9895 36.473 27.4906C34.4252 31.9851 31.3801 33.993 31.2139 32.5502C31.0543 31.1075 33.0623 25.4428 32.5835 25.4428C32.5636 25.4428 32.5437 25.4428 32.5237 25.4495C32.3243 25.5027 31.9785 25.8085 31.5996 26.1476C30.928 26.7592 30.1302 27.4839 29.8377 27.1382C29.359 26.5797 30.2366 25.3763 29.4388 26.0944C28.6343 26.8191 27.3511 28.2618 26.6264 27.7432C25.9017 27.218 27.0252 24.7713 26.1476 24.8511C25.2634 24.9309 21.5734 30.1102 20.3235 29.9905C20.3235 29.9905 19.6387 29.9506 20.483 27.2978C21.3274 24.6516 24.6983 19.9909 24.3725 19.8314C24.1996 19.7449 23.6876 20.2768 23.1823 20.6691C22.8832 20.9018 22.5773 21.0879 22.3513 21.0547C22.2648 21.0481 22.1851 20.9949 22.1252 20.9151C21.6465 20.2303 23.4084 18.7476 22.5241 18.229C21.6399 17.7038 19.3527 21.1278 18.5017 21.1212C18.136 21.1212 18.7211 19.7183 18.894 19.3128C18.9007 19.2928 18.9139 19.2729 18.9205 19.2596C18.9338 19.2263 18.9472 19.2064 18.9472 19.2064C19.3727 18.3686 19.612 17.8833 19.612 17.8833C19.612 17.8833 21.8992 13.3423 24.552 12.0192C24.552 12.0192 24.5519 12.0059 24.5652 11.9726C24.5652 11.966 24.5719 11.9461 24.5785 11.9328C24.5918 11.8995 24.6119 11.853 24.6384 11.7931C24.6717 11.72 24.7182 11.6203 24.7714 11.5073C24.7913 11.4674 24.8113 11.4341 24.8312 11.3942C25.024 11.0152 25.3366 10.5033 25.8086 9.95147C25.9682 9.75866 26.1543 9.55919 26.3671 9.35973C26.407 9.31984 26.4535 9.2733 26.5 9.2334C26.7992 8.95416 27.1317 8.67492 27.5173 8.40898C27.6303 8.32919 27.75 8.24941 27.8697 8.17627C27.9162 8.14303 27.9694 8.1098 28.0226 8.0832C28.1223 8.02336 28.222 7.96351 28.3284 7.90367C28.4348 7.84384 28.5411 7.78399 28.6542 7.7308C28.7273 7.69091 28.8072 7.65102 28.8803 7.61113C29.1263 7.49146 29.3855 7.37844 29.6581 7.27207C29.7246 7.24547 29.7978 7.21886 29.8643 7.19226C30.0238 7.13243 30.1834 7.0726 30.3563 7.01941C30.4959 6.97287 30.6488 6.92632 30.8017 6.87978C30.815 6.87978 30.8283 6.87314 30.8483 6.86649C31.2006 6.76676 31.5729 6.68033 31.9718 6.60055C32.0317 6.58725 32.0782 6.57394 32.1381 6.56729C32.2245 6.55399 32.3176 6.53405 32.404 6.5274C32.6367 6.48751 32.8827 6.45428 33.1354 6.42104C33.255 6.40109 33.3814 6.39443 33.5077 6.38113C33.5277 6.38113 33.5476 6.38113 33.5675 6.38113C33.7471 6.36118 33.9333 6.34789 34.1128 6.34124C34.1128 6.34124 34.1127 6.3346 34.1327 6.31466C34.1327 6.31466 34.1393 6.30801 34.146 6.29471C34.1859 6.23488 34.2656 6.13514 34.3853 5.99552C34.4318 5.94233 34.4785 5.88914 34.5316 5.8293C34.6447 5.70298 34.7843 5.5567 34.9439 5.41043C34.9904 5.36389 35.0436 5.3107 35.0968 5.26416C35.2563 5.11124 35.4358 4.96498 35.6353 4.81206C35.6884 4.77217 35.7416 4.73228 35.7948 4.69239C35.9344 4.58601 36.0741 4.48628 36.227 4.39984C36.3134 4.34001 36.3999 4.28682 36.493 4.23363C36.5395 4.20703 36.586 4.17379 36.6326 4.15385C36.6791 4.12725 36.7257 4.10065 36.7722 4.0807C36.8653 4.02751 36.965 3.98097 37.0714 3.93443C37.1645 3.88789 37.2642 3.848 37.3639 3.8081C37.5966 3.70837 37.8293 3.62859 38.082 3.56211C38.1418 3.54216 38.2017 3.52222 38.2682 3.50893C38.3879 3.47568 38.5141 3.44909 38.6405 3.42915C38.6936 3.4225 38.7468 3.4092 38.8 3.40255C38.8798 3.38925 38.9596 3.37594 39.046 3.36929C39.5979 3.30945 40.0367 3.32941 40.3824 3.40255C40.4023 3.40255 40.4223 3.40919 40.4422 3.41584C40.5619 3.44243 40.6749 3.47567 40.7747 3.51556C40.8145 3.53551 40.8545 3.54882 40.8944 3.56876C41.0473 3.6419 41.1802 3.72168 41.2733 3.81476C41.2999 3.84135 41.3266 3.86129 41.3465 3.88789C41.4196 3.96102 41.4728 4.02753 41.5193 4.09401C41.5392 4.12061 41.5592 4.15383 41.5792 4.18043C41.5991 4.20702 41.6124 4.24027 41.6257 4.26686C41.6855 4.39984 41.6988 4.49291 41.6988 4.49291C41.6988 4.49291 41.7055 4.47962 41.7254 4.45302C41.7254 4.43308 41.7454 4.41313 41.7654 4.38653C41.7654 4.38653 41.7919 4.34001 41.8052 4.32006C41.8185 4.29347 41.8384 4.26686 41.8584 4.24026C42.1642 3.8081 42.9022 2.93049 44.1788 2.29887C44.2585 2.25898 44.345 2.21909 44.4314 2.1792C44.6043 2.10606 44.7838 2.03293 44.97 1.97309C45.0298 1.95315 45.0897 1.93318 45.1429 1.91324C45.2027 1.89329 45.2626 1.87335 45.329 1.8534C45.5152 1.80021 45.7147 1.75368 45.9208 1.71378C46.1069 1.67389 46.3063 1.64729 46.5124 1.62735C46.6454 1.61405 46.7784 1.60076 46.9114 1.59411C47.1375 1.58082 47.3502 1.58081 47.5497 1.58746C47.6095 1.58746 47.656 1.58746 47.7026 1.58746C48.1414 1.60076 48.5071 1.6606 48.8129 1.74038C48.8861 1.76033 48.9592 1.78028 49.0256 1.80687C49.0655 1.81352 49.0988 1.83347 49.132 1.84677C49.1852 1.86671 49.2318 1.88665 49.2783 1.9066C49.3647 1.94649 49.4379 1.97973 49.511 2.02627C49.5442 2.04622 49.5708 2.06616 49.6041 2.08611C49.6639 2.126 49.7171 2.15924 49.7703 2.20578C49.7969 2.22572 49.8168 2.24569 49.8434 2.26563C49.8767 2.29223 49.9033 2.31882 49.9299 2.34541C49.9764 2.39195 50.0163 2.43184 50.0496 2.48503C50.0895 2.52492 50.1227 2.57146 50.1493 2.62465C50.1626 2.64459 50.1759 2.66454 50.1892 2.68448C50.2091 2.71772 50.2291 2.75098 50.2424 2.78423C50.2424 2.79088 50.249 2.79752 50.249 2.80417C50.2689 2.84406 50.2823 2.87729 50.2956 2.91053C50.3288 2.99032 50.3487 3.06346 50.3687 3.12995C50.4219 3.36265 50.402 3.52887 50.402 3.52887C50.402 3.52887 50.4019 3.50228 50.4152 3.46904C50.4152 3.44909 50.4219 3.42913 50.4352 3.39589C50.4485 3.34935 50.4684 3.28952 50.495 3.21639C50.5748 2.98368 50.7277 2.64459 50.987 2.31216C51.0269 2.25232 51.0735 2.19913 51.1266 2.14594C51.1732 2.0861 51.2264 2.03292 51.2795 1.97973C51.3194 1.93983 51.3527 1.90659 51.3993 1.87335C51.4724 1.81351 51.5455 1.75368 51.6186 1.69384C51.6984 1.634 51.7849 1.58081 51.8779 1.52762C51.9178 1.50103 51.951 1.48108 51.9976 1.46113C52.0707 1.42124 52.1506 1.38799 52.237 1.35475C52.2702 1.34145 52.3034 1.32816 52.3367 1.31486C52.3832 1.29492 52.4364 1.27498 52.4896 1.26168C52.6159 1.22179 52.7556 1.18855 52.9019 1.16196C53.0082 1.14201 53.1146 1.12871 53.221 1.12206C53.2542 1.12206 53.2808 1.12206 53.3141 1.11541C53.3407 1.11541 53.3739 1.11541 53.4005 1.11541C53.6864 1.10876 53.9988 1.1154 54.3379 1.16859C54.9695 1.25502 55.4815 1.35476 55.907 1.46779C55.9801 1.48773 56.0466 1.50768 56.1131 1.52762C56.1397 1.52762 56.173 1.54093 56.1996 1.55422C56.2661 1.57417 56.3259 1.59411 56.3857 1.61406C56.4589 1.634 56.5253 1.66059 56.5918 1.68718C56.645 1.70713 56.6915 1.72707 56.7447 1.74702C56.8179 1.77361 56.8844 1.80687 56.9509 1.84011C57.0107 1.8667 57.0706 1.89995 57.1304 1.92655C57.1902 1.95979 57.2434 1.99302 57.29 2.01962C57.3365 2.05951 57.383 2.09275 57.4295 2.126C57.875 2.47173 58.0412 2.88394 58.2673 3.36929C58.2806 3.40253 58.2938 3.43579 58.3138 3.46904C58.3138 3.46904 58.3138 3.46902 58.3271 3.45573C58.3337 3.45573 58.3537 3.43579 58.3737 3.42249C58.4003 3.40919 58.4335 3.3826 58.4668 3.356C58.5399 3.30281 58.6396 3.23633 58.7659 3.16984C58.8058 3.14325 58.8457 3.11666 58.8922 3.09671C58.9255 3.07677 58.9587 3.0568 58.9986 3.03686C59.0585 3.00362 59.1183 2.97038 59.1848 2.93713C59.3377 2.864 59.5039 2.78422 59.6901 2.71774C59.7566 2.69114 59.8297 2.6579 59.8962 2.63796C59.976 2.61136 60.0624 2.58476 60.1488 2.56481C60.7671 2.39195 61.4919 2.32546 62.21 2.54487C62.3363 2.58476 62.4692 2.62464 62.5956 2.66454C62.7152 2.70443 62.8283 2.74432 62.948 2.79086C63.1541 2.864 63.3601 2.94378 63.5662 3.03686C63.6726 3.07675 63.779 3.12331 63.8854 3.1765C63.9718 3.21639 64.0715 3.26292 64.158 3.31611C64.3441 3.40919 64.5303 3.52223 64.7164 3.63525C64.7763 3.6685 64.8295 3.70837 64.8827 3.74161C65.1486 3.91448 65.3946 4.10731 65.6406 4.32006C65.7005 4.3666 65.747 4.41978 65.8002 4.47297C65.9597 4.61924 66.1194 4.78546 66.2656 4.95833C66.3521 5.05806 66.4385 5.16444 66.5183 5.27082C66.7842 5.62319 67.0369 6.02875 67.2563 6.48751C67.3161 6.61383 67.376 6.74681 67.4291 6.88643C67.4291 6.88643 67.5156 6.88643 67.6618 6.90638C67.6884 6.90638 67.7217 6.90638 67.7549 6.91303H67.7749C67.868 6.91968 67.981 6.93963 68.1073 6.95292C68.1938 6.95957 68.2801 6.97952 68.3799 6.99281C68.4264 6.99946 68.4796 7.00612 68.5328 7.01941C68.6391 7.03271 68.7455 7.05265 68.8652 7.07925C69.3306 7.15903 69.8758 7.2787 70.4742 7.44492C70.6471 7.49146 70.8266 7.55131 70.9995 7.6045C71.4915 7.76407 72.0034 7.95687 72.5154 8.19622C72.7481 8.3026 72.9874 8.41562 73.2201 8.54859C73.3198 8.60178 73.4195 8.65497 73.5192 8.71481C73.6057 8.768 73.7054 8.82118 73.7919 8.87437C74.1841 9.10707 74.5631 9.37968 74.9354 9.67887C75.0484 9.76531 75.1548 9.85839 75.2612 9.95147C75.3676 10.0446 75.474 10.1443 75.5737 10.244C75.6801 10.3437 75.7798 10.4501 75.8729 10.5498C75.8928 10.5698 75.9128 10.5897 75.9261 10.6097C76.3782 11.1549 76.7638 11.9593 76.7173 12.9699C76.6641 14.2398 75.4274 12.7638 74.8556 12.6375C74.6562 12.5976 74.5565 12.6641 74.5565 12.8902L74.5432 12.8436Z" fill="#FFFCFA"/>
<path d="M23.1625 20.6624C22.0189 22.2116 21.1346 23.9469 20.1839 25.6157C19.1866 27.3842 18.176 29.1461 17.192 30.9213C16.2213 32.6699 15.2705 34.4251 14.3796 36.2203C13.5087 37.9821 12.7307 39.7839 11.8731 41.5458C10.1577 45.0763 7.95037 48.3208 5.72972 51.5454C5.55686 51.798 5.1513 51.552 5.31751 51.306C5.6034 50.8938 5.88931 50.4816 6.16856 50.0627C7.30548 48.4006 8.42907 46.7251 9.45961 44.9965C10.4968 43.2612 11.4077 41.4594 12.2587 39.6177C13.1164 37.7561 13.9807 35.9078 14.9314 34.0993C15.8755 32.2909 16.8729 30.5157 17.8768 28.7405C18.914 26.9055 19.9446 25.0638 20.9884 23.2288C21.4139 22.4842 21.8527 21.7528 22.3314 21.0414C22.5574 21.0746 22.8566 20.8885 23.1625 20.6558V20.6624Z" fill="#C7764C"/>
<path d="M32.5035 25.437C31.8785 26.534 31.3001 27.6444 30.7084 28.7613C29.7908 30.4966 28.8866 32.2452 27.9957 34.0005C26.2338 37.4711 24.5251 40.9683 22.8696 44.4987C21.2074 48.0424 19.6118 51.6127 18.0693 55.2097C17.3047 56.9849 16.6065 58.7867 15.8021 60.5419C15.4297 61.3663 14.9843 62.1442 14.4989 62.9088C14.0202 63.6801 13.5349 64.4446 13.2091 65.289C13.1692 65.3954 13.0695 65.4419 12.9764 65.4419C12.9365 64.9433 13.0097 64.6375 13.0097 64.6375C13.0097 64.6375 12.9963 64.6375 12.9697 64.6375C13.0695 64.4181 13.1758 64.1986 13.2955 63.9859C13.721 63.2013 14.2264 62.47 14.6718 61.6988C15.1572 60.861 15.5428 59.9768 15.9151 59.0858C16.6731 57.2774 17.431 55.4623 18.2155 53.6605C19.7846 50.037 21.4202 46.4401 23.1156 42.8698C24.7977 39.3194 26.533 35.7956 28.3347 32.2984C29.2456 30.5365 30.1632 28.7746 31.1073 27.026C31.2602 26.7335 31.4264 26.441 31.5726 26.1484C31.9516 25.8093 32.2973 25.5035 32.4968 25.4503L32.5035 25.437Z" fill="#C7764C"/>
<path d="M24.5253 12.0126C24.5253 12.0126 27.9227 10.4036 30.0835 10.2507C31.134 10.1775 33.0489 10.1244 34.106 10.2374C35.1698 10.3504 36.2734 10.6762 37.2375 11.1881C37.8691 11.5272 38.5007 11.9528 38.8332 12.5711C38.9794 12.837 39.2719 13.2825 39.2919 13.2825C39.3251 13.2825 39.2055 12.8171 39.0792 12.5511C38.3545 10.9488 36.6125 10.2773 34.9371 10.018C32.6699 9.6656 30.3295 9.76534 28.0956 10.2773C26.9653 10.5432 24.5319 12.0126 24.5319 12.0126H24.5253Z" fill="#FFE7D6"/>
<path d="M39.1058 8.60863C37.6298 7.2523 35.848 6.52096 33.86 6.3082C33.747 6.2949 33.7071 6.28825 33.5343 6.34143C33.4545 6.36803 35.1898 6.73371 36.7522 7.45177C37.7761 7.92382 38.6271 8.59534 39.1922 9.22031C40.9541 11.1684 41.6988 13.9874 41.7586 13.9674C41.865 13.9342 40.5619 9.93836 39.1058 8.60863Z" fill="#FFE7D6"/>
<path d="M44.9167 11.3812C44.8436 10.5302 44.6042 9.41322 44.2519 8.64198C43.5737 7.16598 41.7786 4.42672 41.6722 4.45332C41.5525 4.47991 43.4008 7.12609 43.9792 8.58214C45.2159 11.6738 44.5643 14.1271 44.684 14.1271C44.8036 14.1271 45.0032 12.3187 44.9167 11.3812Z" fill="#FFE7D6"/>
<path d="M50.3953 3.4361C50.2491 3.36297 50.3953 7.15935 49.6772 8.90129C49.019 10.5036 46.6255 13.3825 46.7053 13.4689C46.7851 13.5553 49.152 10.7297 49.8368 9.08082C50.5948 7.27238 50.4552 3.47599 50.3887 3.4361H50.3953Z" fill="#FFE7D6"/>
<path d="M54.9096 8.8816C53.4868 11.1156 50.2889 13.2697 50.3022 13.3761C50.3221 13.5024 53.1411 11.4812 54.0852 10.3908C55.2354 9.05446 55.9535 7.43885 56.8378 5.91631C57.3098 5.10518 58.4401 3.48291 58.3005 3.42307C58.2207 3.38983 56.02 7.1596 54.9163 8.8816H54.9096Z" fill="#FFE7D6"/>
<path d="M60.3483 7.84457C58.2606 8.84852 57.5026 10.3312 57.2367 10.7367C56.9175 11.2088 54.4309 15.1315 54.3245 15.0584C54.2381 14.9919 56.7779 10.9428 56.9109 10.7301C57.3231 10.0918 57.7486 9.46019 58.2672 8.90171C58.972 8.13711 59.8296 7.66505 60.8269 7.37916C62.8947 6.78743 67.3493 6.70101 67.4091 6.83399C67.4091 6.83399 61.3323 7.36587 60.3483 7.84457Z" fill="#FFE7D6"/>
<path d="M96.723 49.5581C96.5834 49.6911 96.4571 49.7908 96.3641 49.8639C95.4 48.7004 94.4891 47.4771 93.6248 46.2338C92.0158 43.9134 90.5598 41.4866 89.117 39.0665C87.528 36.3938 85.9323 33.7277 84.3632 31.0482C81.7636 26.6069 77.3023 17.7842 75.6269 14.7458C75.2745 14.1075 74.8157 13.7618 74.7758 13.7219C74.7758 13.7152 74.7758 13.7152 74.7758 13.7152C74.6229 13.3096 74.5565 13.0238 74.5498 12.8442C74.7293 13.0038 75.587 13.7884 76.2386 14.912C77.7212 17.485 79.6227 21.7335 80.7131 23.6948C83.705 29.0669 86.8565 34.3593 90.0146 39.6317C92.0624 43.0557 94.1833 46.4931 96.7297 49.5647L96.723 49.5581Z" fill="#C7764C"/>
<path d="M74.5964 13.1635C73.9249 12.452 73.5127 12.226 72.7482 11.6276C72.203 11.1955 71.6378 10.7899 71.0195 10.484C70.3746 10.1583 68.4398 9.44021 67.7284 9.40697C64.4639 9.25405 62.4959 9.86571 61.359 10.4774C60.8338 10.7633 58.0081 13.1834 57.9349 13.0704C57.8751 12.9906 60.9667 10.2979 61.7579 9.93885C64.2113 8.82188 67.1101 8.78199 69.6831 9.48675C70.3812 9.67291 71.0528 9.94551 71.6844 10.3045C72.316 10.6769 72.8944 11.1423 73.4662 11.5944C73.905 11.9468 74.1377 12.4653 74.5499 12.8443C74.5632 12.9108 74.5499 12.9374 74.6031 13.1635H74.5964Z" fill="#FFE7D6"/>
<path opacity="0.32" d="M59.5969 12.7374C58.839 12.9103 58.0811 13.522 57.4694 14.147C56.6848 14.9514 56.1462 15.7825 56.1462 15.7825C56.1462 15.7825 55.169 15.3437 53.7328 15.3371C53.3273 15.3371 52.8817 15.3703 52.4097 15.4567C49.5242 16.0019 48.4405 18.8741 48.4405 18.8741C48.4405 18.8741 46.7517 16.9062 45.2292 16.1017C44.93 15.9487 44.6109 15.8357 44.2917 15.7759C43.0019 15.5099 41.732 15.8956 41.732 15.8956C41.5192 15.5365 41.2267 15.2373 40.9076 14.9913C40.0167 14.2866 38.9263 14.0073 38.9263 14.0073C38.8665 13.0566 38.7734 12.5579 38.6803 12.3119C40.4621 13.409 41.3331 11.4808 41.3331 11.4808C43.2612 12.3651 44.7837 10.191 44.7837 10.191C48.5203 11.2415 49.8433 9.06738 49.8433 9.06738C52.3698 10.7561 55.2221 8.66846 55.2221 8.66846C55.2221 8.66846 54.298 10.796 57.0306 10.7163C58.5265 10.6764 61.3256 12.3252 59.6036 12.7241L59.5969 12.7374Z" fill="#DEB59F"/>
<path opacity="0.56" d="M57.4695 14.1465C56.685 14.951 56.1464 15.7821 56.1464 15.7821C56.1464 15.7821 55.1691 15.3433 53.733 15.3366C53.3274 15.3366 52.8819 15.3699 52.4098 15.4563C49.5243 16.0015 48.4406 18.8737 48.4406 18.8737C48.4406 18.8737 46.7519 16.9057 45.2293 16.1012C44.9301 15.9483 44.611 15.8353 44.2919 15.7754C43.002 15.5095 41.7321 15.8951 41.7321 15.8951C41.5194 15.5361 41.2269 15.2369 40.9077 14.9909C42.663 13.7809 45.9872 12.0788 50.249 12.6439C54.0055 13.1359 56.2062 13.588 57.4761 14.1332L57.4695 14.1465Z" fill="#DEAD93"/>
<path d="M41.4328 15.5036C40.8344 14.7124 40.5153 14.6991 40.01 14.4398C39.8837 14.3002 39.7573 14.1738 39.6177 14.0542C39.478 13.9345 39.3318 13.8215 39.1856 13.7217C39.1856 13.7217 39.1988 13.7217 39.2054 13.7217C39.1855 13.7151 39.1656 13.7018 39.1723 13.7084C39.0858 13.6486 38.9861 13.5888 38.893 13.5356C38.4209 13.2696 37.8957 13.1034 37.3439 13.0369C36.4596 12.9305 35.562 13.0369 34.6911 13.1765C33.8866 13.2962 33.082 13.4824 32.2975 13.7217C29.1859 14.6658 26.3204 16.4344 24.0997 18.8146C23.4482 19.5127 22.8764 20.2574 22.3445 21.0352C22.5705 21.0685 22.8697 20.8823 23.1756 20.6496C23.1889 20.6297 23.2022 20.6164 23.2155 20.5964C25.1237 18.0367 27.7698 16.0155 30.7151 14.7922C32.1911 14.1805 33.7536 13.755 35.336 13.5622C36.2335 13.4558 37.1178 13.4092 37.9821 13.6818C38.8198 13.9411 39.5977 14.3201 40.2958 14.8188C40.5219 14.9783 41.0538 15.4171 41.24 15.6897C38.6802 17.292 35.8213 19.6856 34.0461 22.1323C33.1286 23.3955 32.3507 24.7585 31.5994 26.1281C31.9784 25.789 32.3241 25.4832 32.5236 25.43C32.8427 24.8516 33.1818 24.2864 33.5276 23.7346C35.3559 20.8358 37.8026 18.3492 40.6947 16.5075C40.7878 16.4477 41.5658 15.9823 41.732 15.8825C41.7519 15.8692 41.4793 15.4836 41.446 15.5036H41.4328Z" fill="#FFE7D6"/>
<path opacity="0.56" d="M53.7329 15.3439C53.3273 15.3439 52.8818 15.3771 52.4097 15.4636C49.5242 16.0087 48.4405 18.881 48.4405 18.881C48.4405 18.881 46.7518 16.913 45.2292 16.1085C44.93 15.9556 44.6109 15.8425 44.2917 15.7827C45.4087 14.9583 47.0776 14.3665 49.5642 14.5394C51.1997 14.6524 52.5827 14.9383 53.7329 15.3372V15.3439Z" fill="#DEA485"/>
<path d="M89.2035 63.5601C89.1436 63.5601 89.0838 63.5534 89.0306 63.5468C89.0306 63.5468 88.9907 63.8925 88.8046 64.451C88.7979 64.4311 88.7913 64.4111 88.7913 64.3845C88.7647 63.8593 88.7247 63.3341 88.6582 62.8088C88.1529 58.5603 86.5108 54.5512 84.8819 50.6285C83.1532 46.4598 81.4378 42.2911 79.6826 38.1357C78.8182 36.0879 77.9273 34.0467 76.9367 32.0522C75.9527 30.0775 74.8357 28.1693 73.8916 26.1814C72.4821 23.2161 71.5779 19.8918 69.7229 17.1592C70.1218 17.2057 70.4144 17.4318 70.6471 17.7509C70.8199 18.0368 70.9795 18.3293 71.1324 18.6285C71.1324 18.6352 71.1391 18.6418 71.1391 18.6551C71.1391 18.6551 71.1391 18.6618 71.1391 18.6684C71.3585 19.1671 71.5713 19.6923 71.8372 20.1045C71.9436 20.3306 72.0433 20.5633 72.1364 20.7893C72.994 22.8105 73.7454 24.8783 74.7427 26.8396C75.7599 28.8608 76.8835 30.8354 77.8608 32.8832C78.8249 34.9111 79.7092 36.9788 80.5735 39.0532C82.3554 43.315 84.1439 47.5768 85.8925 51.8585C87.4283 55.615 88.8444 59.4845 89.1968 63.5468L89.2035 63.5601Z" fill="#C7764C"/>
<path d="M69.1778 15.6697C69.7363 16.3213 70.2149 17.0261 70.6471 17.7574C70.4144 17.4383 70.1218 17.2122 69.7229 17.1657C69.324 16.5739 68.8785 16.0154 68.3732 15.4836C67.0834 14.1339 65.4811 12.9371 63.6195 12.6778C59.5372 12.1127 57.8618 13.9278 57.8884 13.7549C57.8884 13.6951 58.8125 13.0103 59.1317 12.8839C60.847 12.1858 62.9014 12.1659 64.6899 12.6579C66.4718 13.1565 67.9943 14.2801 69.1778 15.6697Z" fill="#FFE7D6"/>
<path d="M71.8436 20.1178C71.5777 19.7055 71.3649 19.1736 71.1455 18.6816C71.3982 19.1537 71.6242 19.6324 71.8436 20.1178Z" fill="#FFE7D6"/>
<path d="M47.1174 27.3049C47.0443 27.757 46.9779 28.2091 46.8981 28.6479C45.6548 36.0412 44.2586 43.4212 42.3238 50.6682C41.3597 54.2851 40.2494 57.8554 39.0061 61.3792C38.3878 63.1212 37.7163 64.8498 37.0647 66.5718C36.5328 67.9747 36.0408 69.4174 35.8945 70.9134C35.8147 70.9533 35.6485 71.0463 35.3959 71.1527C35.5222 69.3842 36.1273 67.6821 36.7655 66.0333C37.5168 64.0919 38.2482 62.1372 38.9263 60.1625C41.3863 53.0019 43.2213 45.6485 44.684 38.2286C45.422 34.512 46.0669 30.7755 46.6853 27.0389C46.7584 26.6201 46.8249 26.2012 46.8914 25.769C47.0177 26.2477 47.0842 26.7929 47.1174 27.2916V27.3049Z" fill="#C7764C"/>
<path d="M47.8887 22.6377C47.6028 24.1868 47.3634 25.7493 47.1174 27.3051C47.0841 26.8064 47.0177 26.2612 46.8914 25.7825C47.2437 23.4489 47.5629 21.042 48.4073 18.8413C48.6599 18.1831 49.6505 16.8002 49.717 16.9531C49.7237 16.9664 49.1851 17.6978 48.8062 18.7748C48.3674 20.0115 48.0748 21.667 47.8887 22.6377Z" fill="#FFE7D6"/>
<path d="M66.4717 51.4795C66.3653 53.7267 66.1725 55.9606 65.9863 58.2012C65.8068 60.3554 65.6207 62.5096 65.3614 64.6571C65.1021 66.798 64.763 68.9388 64.2843 71.0464C64.1248 71.7445 63.9519 72.4493 63.7391 73.1474C63.7391 73.1474 63.553 73.2272 63.1873 73.3535C63.3269 72.9413 63.4399 72.5158 63.5529 72.0969C63.8056 71.0996 64.025 70.0957 64.2178 69.0917C64.6167 66.9908 64.8894 64.8632 65.1154 62.7356C65.3348 60.6147 65.5077 58.4805 65.6805 56.3463C65.86 54.1788 66.0129 52.018 66.0661 49.8439C66.1659 45.6353 65.7869 41.4267 65.0555 37.2779C64.8494 36.1078 64.6101 34.9443 64.3508 33.7874C64.4838 31.7994 63.2538 29.4458 62.928 26.5869C64.138 30.5562 65.1287 34.5985 65.767 38.6941C66.4252 42.9293 66.6711 47.1977 66.4783 51.4795H66.4717Z" fill="#C7764C"/>
<path d="M64.3441 33.7806C63.6991 30.8752 63.1074 28.0428 62.2032 25.2105C61.6115 23.3622 60.92 20.9487 59.8429 19.3198C58.0943 16.667 55.9003 15.7362 55.5413 15.5833C55.6077 15.4835 56.0798 15.6498 56.1862 15.7229C56.4721 15.9024 56.7646 16.0886 57.0505 16.2747C57.8484 16.8066 58.6262 17.3984 59.2645 18.1164C59.9028 18.8212 60.3948 19.6389 60.7871 20.4966C61.6381 22.325 62.2098 24.3063 62.8015 26.2278C62.8414 26.3474 62.8747 26.4605 62.9079 26.5801C63.2337 29.4457 64.4637 31.7993 64.3308 33.7806H64.3441Z" fill="#FFE7D6"/>
<path d="M19.5855 32.6768C19.5855 32.6768 16.095 37.5503 11.0952 46.8916C6.87996 54.7769 3.99444 57.1306 6.52093 60.0826C9.04742 63.0346 9.22689 63.1542 14.7054 50.4486C17.7106 43.4809 20.257 37.8694 20.9684 34.4919C21.5535 31.7061 20.6958 30.2035 19.5855 32.6835V32.6768Z" fill="#F09362"/>
<path d="M79.9418 25.9214C79.9418 25.9214 82.5415 31.4598 87.5413 40.8078C91.7565 48.6931 98.6445 53.7593 96.1114 56.7113C93.5849 59.6633 91.7166 55.4481 86.2314 42.7425C83.2262 35.7747 79.2703 31.114 78.5523 27.7365C77.9672 24.9507 78.8249 23.4482 79.9352 25.9281L79.9418 25.9214Z" fill="#F09362"/>
<path d="M38.0419 32.2781C36.0872 35.8152 32.6033 38.1489 26.5132 50.2095C21.3738 60.3886 12.7571 65.3618 21.2142 68.8124C25.8018 70.6874 25.7552 71.4453 32.3574 55.0763C35.9809 46.1007 39.0525 38.8736 39.8636 34.5386C40.5285 30.9683 39.9966 28.741 38.0419 32.2781Z" fill="#F09362"/>
<path d="M57.0771 31.5069C55.7141 35.3099 53.7261 40.8083 49.0056 52.2108C44.6441 62.7489 39.2986 69.9294 48.3009 71.4985C53.3938 72.3828 54.6769 71.6448 57.004 58.2345C58.6595 48.7003 59.1382 37.8563 59.2379 33.4483C59.3177 29.8181 58.4401 27.7038 57.0771 31.5069Z" fill="#F09362"/>
<path d="M70.2079 27.0386C70.3741 31.0743 72.8475 38.1817 72.7477 50.5216C72.6546 61.924 67.6881 71.2056 76.7103 69.7695C81.6037 68.9916 83.9507 69.0647 81.0984 51.6452C79.536 42.0978 74.5029 32.1447 72.9405 28.0226C71.6573 24.6251 70.0483 22.9962 70.2079 27.0319V27.0386Z" fill="#F09362"/>
</svg>
