<svg width="104" height="80" viewBox="0 0 104 80" fill="none" xmlns="http://www.w3.org/2000/svg">
<g filter="url(#filter0_d_73_16958)">
<path d="M100.307 59.6824C99.3957 63.2594 95.0542 66.0518 89.2034 65.5598C89.1435 65.5598 89.0837 65.5532 89.0305 65.5465C89.0305 65.5465 88.9906 65.8923 88.8045 66.4508C88.2127 68.2858 86.1316 72.4545 79.1173 74.5355C69.9621 77.2548 66.0727 76.3838 63.7456 75.1405C63.7456 75.1405 63.5595 75.2203 63.1938 75.3466C61.6248 75.8852 56.8177 77.2814 50.4217 76.7894C42.5497 76.1844 36.8917 74.6618 35.9676 72.8933C35.9676 72.8933 35.9477 72.8999 35.9078 72.9265C35.828 72.9664 35.6618 73.0595 35.4091 73.1659C33.8533 73.8573 28.9865 75.473 20.6225 73.5316C14.1334 72.029 13.1096 68.9108 12.9965 67.4347C12.9566 66.9361 13.0297 66.6303 13.0297 66.6303C13.0297 66.6303 13.0165 66.6303 12.9899 66.6303C12.5577 66.7034 8.56189 67.2552 4.51951 63.2927C0.74308 59.596 5.38379 53.8383 5.38379 53.8383C5.38379 53.8383 0.922545 51.9168 5.38379 45.6471C8.60838 41.1061 14.6188 29.6172 17.6904 23.6334C18.1691 22.7093 18.5747 21.9181 18.8872 21.2998C18.8939 21.2798 18.9071 21.2599 18.9138 21.2466C18.9271 21.2133 18.9404 21.1934 18.9404 21.1934C19.3659 20.3557 19.6053 19.8703 19.6053 19.8703C19.6053 19.8703 20.0375 19.0193 20.7356 17.9422C20.7356 17.9355 20.7488 17.9223 20.7555 17.9156C21.6331 16.5859 22.9229 14.9171 24.3391 14.1192C24.4056 14.0793 24.4788 14.0461 24.5452 14.0128C24.5452 14.0128 24.5453 13.9996 24.5585 13.9663C24.5585 13.9597 24.5651 13.9397 24.5718 13.9264C24.5851 13.8865 24.6051 13.84 24.6317 13.7868C24.6649 13.7137 24.7114 13.6139 24.7646 13.5009C24.7846 13.461 24.8045 13.4278 24.8244 13.3812C25.0172 13.0023 25.3298 12.497 25.8018 11.9451C25.9681 11.7523 26.1542 11.5528 26.3603 11.3534C26.4002 11.3135 26.4467 11.2669 26.4932 11.2271C26.7924 10.9478 27.1249 10.6686 27.5105 10.4026C27.6235 10.3228 27.7432 10.2431 27.8629 10.1699C27.9095 10.1367 27.9626 10.1034 28.0158 10.0769C28.1155 10.017 28.2152 9.95716 28.3216 9.89733C28.428 9.83749 28.5344 9.77766 28.6474 9.72448C28.7205 9.68458 28.8004 9.6447 28.8735 9.6048C29.1195 9.48513 29.3788 9.3721 29.6514 9.26572C29.7178 9.23912 29.791 9.21253 29.8575 9.18594C30.0171 9.1261 30.1766 9.06625 30.3495 9.01306C30.4891 8.96652 30.6421 8.91999 30.795 8.87345C30.8083 8.87345 30.8215 8.86679 30.8415 8.86014C31.1939 8.76041 31.5728 8.67398 31.9651 8.5942C32.0183 8.5809 32.0715 8.57426 32.1313 8.56096C32.2177 8.54766 32.3108 8.52772 32.3973 8.52107C32.63 8.48118 32.8759 8.44793 33.1286 8.41469C33.2483 8.39474 33.3746 8.3881 33.5009 8.3748C33.5209 8.3748 33.5408 8.3748 33.5608 8.3748C33.7403 8.35485 33.9265 8.34156 34.106 8.33491C34.106 8.33491 34.1059 8.32826 34.1259 8.30831C34.1259 8.30831 34.1325 8.30166 34.1392 8.28836C34.1791 8.22853 34.2589 8.12879 34.3785 7.98917C34.4251 7.93598 34.4717 7.88279 34.5249 7.82295C34.6379 7.69663 34.7775 7.55035 34.9371 7.40408C34.9836 7.35754 35.0368 7.30437 35.09 7.25783C35.2496 7.10491 35.429 6.95863 35.6285 6.80571C35.6817 6.76582 35.7349 6.72593 35.788 6.68604C35.9277 6.57966 36.0673 6.47993 36.2202 6.39349C36.3067 6.33366 36.3931 6.28047 36.4862 6.22728C36.5327 6.20068 36.5792 6.16744 36.6258 6.1475C36.6723 6.1209 36.7189 6.0943 36.7655 6.07435C36.8585 6.02116 36.9582 5.97464 37.0646 5.9281C37.1577 5.88156 37.2575 5.84167 37.3572 5.80178C37.5899 5.70205 37.8226 5.62224 38.0752 5.55576C38.1351 5.53581 38.1949 5.51588 38.2614 5.50258C38.3811 5.46933 38.5074 5.44274 38.6337 5.4228C38.6869 5.41615 38.7401 5.40285 38.7932 5.3962C38.873 5.3829 38.9528 5.36961 39.0392 5.36296C39.5911 5.30312 40.0299 5.32306 40.3756 5.3962C40.3956 5.3962 40.4156 5.40284 40.4355 5.40949C40.5552 5.43608 40.6682 5.46934 40.768 5.50923C40.8078 5.52918 40.8477 5.54247 40.8876 5.56241C41.0405 5.63555 41.1735 5.71533 41.2666 5.80841C41.2932 5.835 41.3198 5.85496 41.3397 5.88156C41.4129 5.95469 41.4661 6.02118 41.5126 6.08766C41.5326 6.11426 41.5525 6.1475 41.5724 6.1741C41.5924 6.20069 41.6056 6.23394 41.6189 6.26053C41.6788 6.39351 41.6921 6.48659 41.6921 6.48659C41.6921 6.48659 41.6987 6.47329 41.7187 6.4467C41.7187 6.42675 41.7387 6.4068 41.7586 6.3802C41.7586 6.3802 41.7852 6.33366 41.7985 6.31371C41.8117 6.28712 41.8317 6.26053 41.8516 6.23393C42.1574 5.80177 42.8955 4.92414 44.1721 4.29252C44.2519 4.25263 44.3383 4.21274 44.4247 4.17285C44.5976 4.09971 44.7771 4.02658 44.9632 3.96674C45.0231 3.9468 45.0829 3.92685 45.1361 3.90691C45.1959 3.88696 45.2558 3.86702 45.3223 3.84707C45.5084 3.79388 45.7013 3.75397 45.914 3.70743C46.1002 3.66754 46.2996 3.64096 46.5057 3.62102C46.6386 3.60772 46.7717 3.59441 46.9046 3.58776C47.1307 3.57447 47.3434 3.57446 47.5429 3.58111C47.6027 3.58111 47.6493 3.58111 47.6958 3.58111C48.1346 3.59441 48.5003 3.65425 48.8062 3.73403C48.8793 3.75398 48.9524 3.77393 49.0189 3.80053C49.0588 3.80717 49.092 3.82712 49.1253 3.84042C49.1785 3.86036 49.225 3.88031 49.2715 3.90025C49.358 3.94014 49.4311 3.97338 49.5042 4.01992C49.5375 4.03987 49.5641 4.05981 49.5973 4.07976C49.6571 4.11965 49.7103 4.15291 49.7635 4.19945C49.7901 4.21939 49.8101 4.23934 49.8366 4.25928C49.8699 4.28588 49.8965 4.31247 49.9231 4.33906C49.9696 4.3856 50.0095 4.42549 50.0428 4.47868C50.0827 4.51857 50.1159 4.56513 50.1425 4.61832C50.1558 4.63826 50.1691 4.65821 50.1824 4.67815C50.2023 4.7114 50.2223 4.74463 50.2356 4.77788C50.2356 4.78453 50.2423 4.79117 50.2423 4.79782C50.2622 4.83771 50.2755 4.87096 50.2888 4.9042C50.322 4.98399 50.342 5.05711 50.3619 5.1236C50.4151 5.3563 50.3952 5.52252 50.3952 5.52252C50.3952 5.52252 50.3952 5.49593 50.4085 5.46269C50.4085 5.44274 50.4151 5.42279 50.4284 5.38954C50.4417 5.343 50.4617 5.28317 50.4883 5.21004C50.5681 4.97733 50.721 4.63826 50.9803 4.30583C51.0202 4.24599 51.0667 4.1928 51.1199 4.13961C51.1664 4.07978 51.2196 4.02659 51.2728 3.9734C51.3127 3.9335 51.3459 3.90026 51.3925 3.86702C51.4656 3.80718 51.5387 3.74733 51.6119 3.68749C51.6916 3.62765 51.7781 3.57446 51.8712 3.52127C51.9111 3.49468 51.9443 3.47475 51.9908 3.4548C52.0639 3.41491 52.1438 3.38167 52.2302 3.34842C52.2635 3.33512 52.2966 3.32183 52.3299 3.30853C52.3764 3.28859 52.4297 3.26863 52.4829 3.25533C52.6092 3.21544 52.7488 3.1822 52.8951 3.15561C53.0015 3.13566 53.1078 3.12236 53.2142 3.11572C53.2475 3.11572 53.2741 3.11571 53.3073 3.10906C53.3339 3.10906 53.3671 3.10906 53.3937 3.10906C53.6796 3.10241 53.9921 3.10907 54.3311 3.16226C54.9628 3.24869 55.4747 3.34841 55.9002 3.46144C55.9733 3.48138 56.0399 3.50133 56.1064 3.52127C56.1329 3.52127 56.1662 3.53458 56.1928 3.54787C56.2593 3.56782 56.3191 3.58776 56.379 3.60771C56.4521 3.62765 56.5186 3.65426 56.585 3.68085C56.6382 3.7008 56.6848 3.72074 56.7379 3.74069C56.8111 3.76728 56.8776 3.80052 56.9441 3.83376C57.0039 3.86036 57.0638 3.8936 57.1236 3.9202C57.1835 3.95344 57.2366 3.98669 57.2832 4.01329C57.3297 4.05318 57.3762 4.08642 57.4228 4.11967C57.8682 4.4654 58.0345 4.87761 58.2605 5.36296C58.2738 5.39621 58.2871 5.42944 58.307 5.46269C58.307 5.46269 58.307 5.4627 58.3203 5.4494C58.327 5.4494 58.347 5.43609 58.3669 5.41614C58.3935 5.40285 58.4268 5.37625 58.46 5.34965C58.5331 5.29646 58.6328 5.22998 58.7592 5.16349C58.7991 5.1369 58.839 5.11031 58.8855 5.09036C58.9188 5.07042 58.952 5.05048 58.9918 5.03053C59.0517 4.99729 59.1115 4.96405 59.178 4.9308C59.3309 4.85767 59.4972 4.77787 59.6833 4.71139C59.7498 4.68479 59.8229 4.65155 59.8894 4.63161C59.9692 4.60501 60.0556 4.57841 60.1421 4.55846C60.7604 4.3856 61.4851 4.31911 62.2032 4.53852C62.3295 4.57841 62.4625 4.61831 62.5888 4.65821C62.7085 4.6981 62.8215 4.73799 62.9412 4.78453C63.1473 4.85767 63.3534 4.93745 63.5595 5.03053C63.6658 5.07042 63.7722 5.11696 63.8786 5.17015C63.965 5.21004 64.0648 5.25657 64.1512 5.30976C64.3374 5.40284 64.5235 5.51588 64.7097 5.6289C64.7695 5.66215 64.8227 5.70204 64.8759 5.73528C65.1418 5.90815 65.3878 6.10096 65.6338 6.31371C65.6937 6.36025 65.7402 6.41345 65.7934 6.46664C65.953 6.61291 66.1126 6.77911 66.2589 6.95198C66.3453 7.05171 66.4317 7.15809 66.5115 7.26447C66.7775 7.61684 67.0301 8.02242 67.2495 8.48118C67.3093 8.60751 67.3692 8.74046 67.4224 8.88008C67.4224 8.88008 67.5088 8.88008 67.6551 8.90003C67.6816 8.90003 67.7149 8.90004 67.7481 8.90668H67.7681C67.8612 8.91333 67.9742 8.93328 68.1005 8.94657C68.187 8.95322 68.2734 8.97317 68.3731 8.98646C68.4196 8.99311 68.4729 8.99977 68.5261 9.01306C68.6324 9.03301 68.7388 9.05295 68.8585 9.0729C69.3239 9.15268 69.869 9.27237 70.4674 9.43859C70.6403 9.48513 70.8198 9.54496 70.9927 9.59815C71.4847 9.75772 71.9967 9.95052 72.5086 10.1899C72.7413 10.2962 72.9806 10.4093 73.2133 10.5422C73.313 10.5954 73.4128 10.6486 73.5126 10.7085C73.599 10.7617 73.6987 10.8149 73.7851 10.868C74.1774 11.1007 74.5563 11.3733 74.9286 11.6725C75.0417 11.759 75.1481 11.852 75.2545 11.9451C75.2545 11.9451 75.2611 11.9518 75.2677 11.9584C75.3675 12.0515 75.4606 12.1446 75.5603 12.2377C75.6667 12.3374 75.7664 12.4438 75.8595 12.5435C75.8794 12.5634 75.8994 12.5834 75.9127 12.6033C76.2185 12.9358 76.5044 13.3014 76.7637 13.7004C76.8036 13.7602 76.8435 13.8267 76.8834 13.8932C78.7251 16.8319 82.3951 24.0656 86.4973 31.0201C90.174 37.2632 94.263 43.2669 96.836 45.8133C99.4755 48.4396 97.7003 50.6935 96.7296 51.6043C96.59 51.7373 96.4636 51.837 96.3705 51.9101C96.2708 51.9833 96.2176 52.0298 96.2176 52.0298C96.2176 52.0298 101.237 56.1121 100.313 59.729L100.307 59.6824Z" fill="#E68958"/>
<path d="M30.1899 27.031C30.1899 27.031 13.9273 61.9032 13.0231 66.6304C13.0231 66.6304 33.7935 32.5161 32.5036 27.4366C31.9119 25.0829 30.1833 27.031 30.1833 27.031H30.1899Z" fill="#D47E51"/>
<path d="M47.1241 26.2004C47.1241 26.2004 35.7416 68.18 35.7017 72.9869C35.7017 72.9869 51.6518 30.9542 49.4777 26.1871C48.4738 23.9797 47.1241 26.2004 47.1241 26.2004Z" fill="#D47E51"/>
<path d="M60.8867 24.1722C60.8867 24.1722 64.7363 35.0428 65.2416 46.6779C65.7802 59.184 62.9944 72.601 63.739 75.1408C63.739 75.1408 68.2535 60.4539 68.4928 46.6248C68.679 35.721 64.876 25.2826 63.2603 23.4409C61.5649 21.5062 60.8867 24.1722 60.8867 24.1722Z" fill="#D47E51"/>
<path d="M68.4995 19.3316C68.4995 19.3316 69.0845 19.4314 70.6403 22.1174C72.841 25.9072 76.4911 33.3404 78.8447 39.743C83.1663 51.4912 87.7141 63.3723 89.1967 65.5664C90.1873 65.6395 86.8431 52.9406 81.0721 39.5635C76.7504 29.5506 72.6282 19.1854 70.5339 17.9221C68.3332 16.5924 68.4928 19.3383 68.4928 19.3383L68.4995 19.3316Z" fill="#D47E51"/>
<path d="M73.26 14.731C73.26 14.731 73.8251 14.8573 75.4806 17.5234C77.821 21.2866 81.87 28.3142 85.0946 34.2913C91.0717 45.3813 94.6421 49.8226 96.3641 51.8637C95.8455 50.5606 94.0104 48.074 86.524 34.8365C81.1453 25.3289 77.196 14.844 75.1149 13.501C72.9275 12.0981 73.26 14.731 73.26 14.731Z" fill="#D47E51"/>
<path d="M22.4507 20.4025C22.4507 20.4025 6.28117 49.7962 5.37695 53.8386C5.37695 53.8386 7.38486 50.9531 13.116 41.1862C16.048 36.1864 24.0863 22.4636 24.7711 20.7482C25.549 18.8002 22.4507 20.4025 22.4507 20.4025Z" fill="#D47E51"/>
<path d="M76.9498 15.3225C76.89 16.1203 75.8461 15.5352 75.2611 15.4156C75.0616 15.3757 74.9419 15.4289 74.9419 15.6549C74.9419 15.8344 75.7398 17.7027 76.2185 18.7332C77.5083 21.5057 76.1254 21.2996 75.5736 20.9672C75.0218 20.6348 73.6255 18.6801 74.051 20.2757C74.4832 21.8714 73.8449 23.6798 72.5285 23.015C72.2492 22.8754 72.0299 22.6427 71.8371 22.3568C71.5645 21.9445 71.5711 22.1174 71.3451 21.6188C71.3451 21.6188 71.3451 21.6121 71.3451 21.6055C71.3451 21.5988 71.3451 21.5922 71.3384 21.5789C71.1855 21.2597 71.0326 20.9539 70.8398 20.7012C70.6004 20.3821 70.3012 20.1561 69.9023 20.1095C68.3665 19.93 69.3172 21.0935 68.9581 21.6653C68.4196 22.5163 68.5725 20.5217 66.5513 21.3994C64.5302 22.2703 66.2056 25.5814 65.2283 26.1531C64.2443 26.7249 62.8946 25.5282 62.9012 28.2142C62.9012 28.6597 62.9345 29.0985 62.9877 29.524C63.3201 32.3896 64.5701 34.7432 64.4371 36.7245C64.4371 36.8109 64.4504 36.9107 64.4105 36.9838C63.8121 38.1074 63.3866 37.5423 63.021 37.0237C62.15 35.8003 60.275 32.6688 59.6833 31.4056C59.0916 30.1423 60.4811 29.3578 60.1354 27.9749C59.783 26.5919 57.7153 26.4457 56.4454 25.5614C55.1755 24.6771 55.0957 31.7446 53.1809 31.9441C51.2595 32.1436 52.6224 28.6198 51.6916 28.5865C50.5215 28.5467 50.3486 34.3975 48.7928 35.7006C47.2437 37.0104 46.9378 32.6688 46.9378 31.9441C46.9378 31.738 46.9711 31.0532 46.9179 30.262C46.8781 29.7501 46.8115 29.2115 46.6852 28.7262C46.2796 27.2369 45.3089 26.3127 42.8489 28.7262C39.365 32.1569 38.3145 29.7301 38.4741 28.9655C38.647 28.2076 38.1483 25.9138 36.0606 30.4149C33.9796 34.9094 31.1274 36.3256 30.9612 34.8828C30.8016 33.4401 32.5967 28.3671 32.1047 28.3671C32.0848 28.3671 32.0648 28.3671 32.0448 28.3738C31.8387 28.427 31.4931 28.7328 31.1074 29.0719C30.416 29.6836 30.0503 29.9163 29.7444 29.5772C29.2524 29.0187 29.7178 28.3007 28.9 29.0254C28.0823 29.7501 27.0318 30.7075 26.2938 30.1822C25.5625 29.657 26.4467 27.7023 25.5425 27.7821C24.6981 27.8552 22.2979 31.3191 20.6823 32.1436C20.4629 32.2566 20.1903 32.2433 20.0108 32.0771C19.7648 31.851 19.5388 31.3524 19.7914 30.2288C20.4031 27.5161 24.0731 22.9219 23.7473 22.7623C23.5678 22.6759 23.0493 23.2078 22.5373 23.6001C22.2248 23.8328 21.919 24.0189 21.6929 23.9857C21.5998 23.979 21.5201 23.9258 21.4602 23.8461C20.9682 23.1612 22.7634 21.6786 21.8658 21.16C20.9682 20.6348 18.6412 24.0588 17.7769 24.0522C17.6439 24.0522 17.6372 23.8793 17.6838 23.6333C18.1625 22.7091 18.5681 21.918 18.8806 21.2996C18.8872 21.2797 18.9005 21.2597 18.9072 21.2464C18.9205 21.2132 18.9337 21.1933 18.9337 21.1933C19.3592 20.3555 19.5986 19.8702 19.5986 19.8702C19.5986 19.8702 20.0307 19.0058 20.7421 17.9221C21.6264 16.7453 23.9335 14.9369 23.9468 14.9036C23.9468 14.897 25.1436 14.6177 25.2234 14.4981C25.3032 14.3784 25.5558 12.4902 25.7686 12.2841C25.8084 12.2442 25.855 12.1976 25.9082 12.1577C26.2073 11.8785 26.5465 11.5992 26.9454 11.3333C27.0584 11.2535 27.1781 11.1737 27.3044 11.1006C27.351 11.0674 27.4041 11.0341 27.4573 11.0075C27.5637 10.9477 27.6634 10.8878 27.7698 10.828C27.8828 10.7682 27.9892 10.7083 28.1022 10.6551C28.1754 10.6152 28.2551 10.5754 28.3349 10.5355C28.5809 10.4158 28.8469 10.3028 29.1195 10.1964C29.1926 10.1698 29.2591 10.1432 29.3256 10.1166C29.4918 10.0568 29.6513 9.99692 29.8242 9.94373C29.9638 9.89719 30.1234 9.85065 30.2764 9.80411C30.2897 9.80411 30.3029 9.79747 30.3229 9.79082C30.6819 9.69109 31.0608 9.60464 31.4664 9.52486C31.5262 9.51156 31.5728 9.49827 31.6326 9.49163C31.7257 9.47833 31.8188 9.45838 31.9052 9.45174C32.1446 9.41184 32.3972 9.3786 32.6499 9.34535C32.7762 9.32541 32.9026 9.31876 33.0289 9.30546C33.0489 9.30546 33.0688 9.30546 33.0887 9.30546C33.2682 9.28552 33.4544 9.27222 33.6472 9.26557C33.6472 9.26557 33.6472 9.25892 33.6672 9.23897C33.6672 9.23897 33.6738 9.23233 33.6805 9.21903C33.7204 9.15919 33.8001 9.05947 33.9265 8.91985C33.973 8.86666 34.0195 8.81347 34.0727 8.75363C34.1924 8.62731 34.3254 8.48104 34.4916 8.33477C34.5381 8.28823 34.5913 8.23504 34.6445 8.1885C34.8107 8.03558 34.9969 7.88929 35.1897 7.73637C35.2496 7.69648 35.2961 7.65659 35.3559 7.6167C35.4956 7.51032 35.6418 7.41059 35.788 7.32416C35.8745 7.26432 35.9676 7.21113 36.0606 7.15794C36.1138 7.13135 36.1604 7.09811 36.2069 7.07816C36.2534 7.05157 36.3 7.02498 36.3532 7.00504C36.4463 6.95185 36.546 6.90531 36.6524 6.85877C36.7455 6.81222 36.8452 6.77233 36.9515 6.73244C37.1842 6.63271 37.4237 6.55293 37.6763 6.48644C37.7428 6.4665 37.8026 6.44654 37.8691 6.43324C37.9887 6.4 38.1218 6.37341 38.2481 6.35346C38.3079 6.34681 38.3611 6.33351 38.4143 6.32686C38.4941 6.31356 38.5805 6.30027 38.6669 6.29363C39.2254 6.23379 39.6775 6.25373 40.0232 6.32686C40.0432 6.32686 40.0632 6.33352 40.0831 6.34017C40.2028 6.36677 40.3158 6.40001 40.4155 6.4399C40.4554 6.45984 40.5019 6.47313 40.5352 6.49308C40.6881 6.56621 40.8211 6.64599 40.9209 6.73907C40.9474 6.76567 40.974 6.78563 40.994 6.81222C41.0671 6.88535 41.127 6.95184 41.1668 7.01833C41.1868 7.04492 41.2067 7.07817 41.2267 7.10476C41.2466 7.13136 41.2599 7.1646 41.2732 7.1912C41.3397 7.32417 41.3529 7.41725 41.3529 7.41725C41.3529 7.41725 41.3596 7.40395 41.3796 7.37736C41.3796 7.35741 41.3996 7.33746 41.4195 7.31087C41.4195 7.31087 41.4461 7.26432 41.4594 7.24438C41.4726 7.21778 41.4926 7.19119 41.5126 7.1646C41.8251 6.73244 42.5763 5.8548 43.8728 5.22318C43.9526 5.18329 44.039 5.1434 44.1255 5.10351C44.2983 5.03038 44.4779 4.95724 44.6707 4.89741C44.7305 4.87746 44.7903 4.85752 44.8435 4.83757C44.91 4.81762 44.9698 4.79768 45.0363 4.77773C45.2291 4.72455 45.4286 4.67801 45.6347 4.63812C45.8275 4.59823 46.0337 4.57163 46.2331 4.55168C46.3727 4.53839 46.4991 4.52508 46.6453 4.51843C46.878 4.50513 47.0908 4.50514 47.2902 4.51179C47.3501 4.51179 47.3966 4.51179 47.4498 4.51179C47.8952 4.52509 48.2676 4.58491 48.5801 4.6647C48.6532 4.68464 48.7263 4.70459 48.7995 4.73119C48.8394 4.73784 48.8726 4.75778 48.9059 4.77108C48.9591 4.79103 49.0056 4.81097 49.0521 4.83091C49.1386 4.87081 49.2183 4.90407 49.2848 4.95061C49.3181 4.97055 49.3513 4.9905 49.3846 5.01044C49.4444 5.05033 49.4976 5.08357 49.5508 5.13011C49.5774 5.15006 49.5973 5.17 49.6239 5.18995C49.6572 5.21654 49.6838 5.24313 49.7103 5.26973C49.7569 5.31627 49.7967 5.35616 49.83 5.40934C49.8699 5.44924 49.9031 5.49579 49.9364 5.54898C49.9497 5.56893 49.963 5.58887 49.9763 5.60882C49.9963 5.64206 50.0162 5.6753 50.0295 5.70854C50.0295 5.71519 50.0361 5.72184 50.0361 5.72849C50.0561 5.76838 50.0693 5.80162 50.0826 5.83487C50.1159 5.91465 50.1359 5.98778 50.1558 6.05426C50.2157 6.28697 50.1957 6.45319 50.1957 6.45319C50.1957 6.45319 50.1957 6.42659 50.209 6.39335C50.209 6.37341 50.2157 6.35347 50.229 6.32023C50.2423 6.27369 50.2622 6.21383 50.2888 6.1407C50.3686 5.908 50.5281 5.56893 50.7874 5.23649C50.8273 5.17666 50.8738 5.12347 50.927 5.07028C50.9736 5.01044 51.0334 4.95725 51.0866 4.90406C51.1265 4.86417 51.1598 4.83092 51.2063 4.79768C51.2794 4.73784 51.3592 4.67801 51.4323 4.61817C51.5121 4.55834 51.6052 4.50515 51.6983 4.45196C51.7382 4.42536 51.7715 4.40541 51.818 4.38547C51.8978 4.34557 51.9776 4.31233 52.064 4.27909C52.0972 4.26579 52.1371 4.25249 52.1703 4.2392C52.2169 4.21925 52.27 4.19929 52.3232 4.186C52.4562 4.1461 52.5892 4.11286 52.7421 4.08627C52.8485 4.06632 52.9616 4.05303 53.0679 4.04638C53.1012 4.04638 53.1277 4.04637 53.161 4.03972C53.1875 4.03972 53.2208 4.03972 53.254 4.03972C53.5399 4.03308 53.8658 4.03974 54.2048 4.09292C54.8431 4.17936 55.3684 4.27907 55.8072 4.3921C55.8803 4.41205 55.9468 4.43201 56.0199 4.45196C56.0465 4.45196 56.0797 4.46524 56.1063 4.47854C56.1728 4.49848 56.2327 4.51843 56.2992 4.53837C56.3723 4.55832 56.4388 4.58492 56.5052 4.61152C56.5651 4.63146 56.6116 4.65141 56.6581 4.67135C56.7313 4.69795 56.7978 4.7312 56.8643 4.76444C56.9241 4.79104 56.984 4.82427 57.0438 4.85086C57.1037 4.8841 57.1635 4.91736 57.21 4.94395C57.2566 4.98384 57.3031 5.01709 57.3496 5.05033C57.8084 5.39606 57.9746 5.80827 58.2007 6.29363C58.214 6.32687 58.2272 6.36011 58.2472 6.39335C58.2472 6.39335 58.2472 6.39336 58.2605 6.38006C58.2671 6.38006 58.2871 6.3601 58.307 6.34681C58.3336 6.33351 58.3669 6.30693 58.4001 6.28034C58.4799 6.22715 58.5797 6.16066 58.6993 6.09417C58.7392 6.06758 58.7857 6.04097 58.8323 6.02103C58.8655 6.00108 58.8988 5.98114 58.9387 5.96119C58.9985 5.92795 59.065 5.89471 59.1315 5.86147C59.2844 5.78833 59.4572 5.70854 59.6434 5.64205C59.7099 5.61546 59.783 5.58222 59.8495 5.56227C59.936 5.53568 60.0224 5.50909 60.1022 5.48915C60.7338 5.31628 61.4652 5.24979 62.2032 5.4692C62.3295 5.50909 62.4691 5.54898 62.5954 5.58887C62.7151 5.62876 62.8347 5.66866 62.9611 5.7152C63.1672 5.78833 63.38 5.86811 63.5861 5.96119C63.6925 6.00109 63.8055 6.04762 63.9052 6.10081C63.9916 6.1407 64.0914 6.18724 64.1845 6.24043C64.3773 6.33351 64.5634 6.44654 64.7496 6.55957C64.8094 6.59281 64.8693 6.63271 64.9225 6.66595C65.1884 6.83881 65.4477 7.03162 65.6937 7.24438C65.7536 7.29092 65.8001 7.34412 65.8533 7.3973C66.0195 7.54357 66.1724 7.70978 66.332 7.88264C66.4184 7.98237 66.5048 8.08875 66.5846 8.19513C66.8572 8.54751 67.1099 8.95309 67.3359 9.41184C67.3958 9.53817 67.4556 9.67115 67.5088 9.81077C67.5088 9.81077 67.5952 9.81077 67.7481 9.83071C67.7747 9.83071 67.808 9.8307 67.8412 9.83735H67.8612C67.9609 9.844 68.0739 9.86394 68.2068 9.87724C68.2933 9.88389 68.3797 9.90385 68.4861 9.91715C68.5327 9.9238 68.5858 9.93043 68.639 9.94373C68.7454 9.95703 68.8584 9.97697 68.9715 10.0036C69.4435 10.0833 70.002 10.203 70.607 10.3693C70.7865 10.4158 70.9661 10.4756 71.1456 10.5288C71.6442 10.6884 72.1694 10.8812 72.6947 11.1206C72.934 11.2269 73.1734 11.34 73.4128 11.4729C73.5192 11.5261 73.6189 11.5793 73.7186 11.6391C73.805 11.6923 73.9048 11.7455 73.9979 11.7987C74.317 11.9849 74.8422 11.8519 75.2212 11.9516C75.3209 12.0447 75.414 12.1378 75.5137 12.2309C75.6201 12.3306 75.7199 12.437 75.8129 12.5367C75.8329 12.5566 75.8528 12.5766 75.8661 12.5966C76.1719 12.929 76.4579 13.2947 76.7172 13.6936C76.757 13.7534 76.797 13.8199 76.8369 13.8864C76.9698 14.5047 76.9499 14.7308 76.9033 15.3624L76.9498 15.3225Z" fill="#C7764C"/>
<path d="M74.5432 14.8436C74.5432 15.0231 74.6163 15.309 74.7692 15.7146C74.7692 15.7146 74.7692 15.7146 74.7692 15.7212C74.9687 16.2598 75.2944 17.0177 75.7665 18.0549C77.0297 20.8274 76.0657 20.8274 75.5272 20.495C74.982 20.1625 73.2401 17.789 73.6656 19.3847C74.0844 20.9803 73.8184 23.4536 72.522 22.7888C72.2494 22.6491 72.03 22.4164 71.8505 22.1305C71.5846 21.7183 71.3718 21.1864 71.1524 20.6944C71.1524 20.6944 71.1524 20.6878 71.1524 20.6811C71.1524 20.6745 71.1524 20.6678 71.1457 20.6545C70.9994 20.3354 70.8465 20.0296 70.6604 19.7769C70.4277 19.4578 70.1351 19.2317 69.7362 19.1852C68.2336 19.0057 69.0381 20.8939 68.8985 21.2662C68.5328 22.197 68.3532 20.362 66.372 21.2396C64.384 22.1106 66.0728 25.4216 65.1021 25.9934C64.1381 26.5652 62.8482 24.6038 62.8549 27.2899C62.8549 27.7353 62.8881 28.1742 62.9413 28.5997C63.2671 31.4652 64.4971 33.8189 64.3641 35.8002C64.3641 35.8866 64.3508 35.973 64.3375 36.0595C64.0383 38.3931 63.533 37.4823 62.9678 36.0993C62.4094 34.7098 60.4813 32.5224 59.8962 31.2591C59.3177 29.9959 60.7805 29.2911 60.4414 27.9082C60.1023 26.5253 57.7553 25.5214 56.5054 24.6371C55.2554 23.7528 55.1025 31.4187 53.2143 31.6248C51.3261 31.8243 52.8951 28.2872 51.7449 28.254C50.6014 28.2141 50.249 33.9452 48.7198 35.2483C47.1973 36.5581 47.1508 31.7445 47.1508 31.0198C47.1508 30.8137 47.184 30.1289 47.1308 29.3377C47.0976 28.8257 47.0311 28.2872 46.9048 27.8018C46.5058 26.3125 45.5351 25.3684 43.135 27.8018C38.7202 32.2963 38.6737 28.8058 38.84 28.0412C39.0062 27.2832 38.5208 24.9895 36.473 29.4906C34.4252 33.9851 31.3801 35.993 31.2139 34.5502C31.0543 33.1075 33.0623 27.4428 32.5835 27.4428C32.5636 27.4428 32.5437 27.4428 32.5237 27.4495C32.3243 27.5027 31.9785 27.8085 31.5996 28.1476C30.928 28.7592 30.1302 29.4839 29.8377 29.1382C29.359 28.5797 30.2366 27.3763 29.4388 28.0944C28.6343 28.8191 27.3511 30.2618 26.6264 29.7432C25.9017 29.218 27.0252 26.7713 26.1476 26.8511C25.2634 26.9309 21.5734 32.1102 20.3235 31.9905C20.3235 31.9905 19.6387 31.9506 20.483 29.2978C21.3274 26.6516 24.6983 21.9909 24.3725 21.8314C24.1996 21.7449 23.6876 22.2768 23.1823 22.6691C22.8832 22.9018 22.5773 23.0879 22.3513 23.0547C22.2648 23.0481 22.1851 22.9949 22.1252 22.9151C21.6465 22.2303 23.4084 20.7476 22.5241 20.229C21.6399 19.7038 19.3527 23.1278 18.5017 23.1212C18.136 23.1212 18.7211 21.7183 18.894 21.3128C18.9007 21.2928 18.9139 21.2729 18.9205 21.2596C18.9338 21.2263 18.9472 21.2064 18.9472 21.2064C19.3727 20.3686 19.612 19.8833 19.612 19.8833C19.612 19.8833 21.8992 15.3423 24.552 14.0192C24.552 14.0192 24.5519 14.0059 24.5652 13.9726C24.5652 13.966 24.5719 13.9461 24.5785 13.9328C24.5918 13.8995 24.6119 13.853 24.6384 13.7931C24.6717 13.72 24.7182 13.6203 24.7714 13.5073C24.7913 13.4674 24.8113 13.4341 24.8312 13.3942C25.024 13.0152 25.3366 12.5033 25.8086 11.9515C25.9682 11.7587 26.1543 11.5592 26.3671 11.3597C26.407 11.3198 26.4535 11.2733 26.5 11.2334C26.7992 10.9542 27.1317 10.6749 27.5173 10.409C27.6303 10.3292 27.75 10.2494 27.8697 10.1763C27.9162 10.143 27.9694 10.1098 28.0226 10.0832C28.1223 10.0234 28.222 9.96351 28.3284 9.90367C28.4348 9.84384 28.5411 9.78399 28.6542 9.7308C28.7273 9.69091 28.8072 9.65102 28.8803 9.61113C29.1263 9.49146 29.3855 9.37844 29.6581 9.27207C29.7246 9.24547 29.7978 9.21886 29.8643 9.19226C30.0238 9.13243 30.1834 9.0726 30.3563 9.01941C30.4959 8.97287 30.6488 8.92632 30.8017 8.87978C30.815 8.87978 30.8283 8.87314 30.8483 8.86649C31.2006 8.76676 31.5729 8.68033 31.9718 8.60055C32.0317 8.58725 32.0782 8.57394 32.1381 8.56729C32.2245 8.55399 32.3176 8.53405 32.404 8.5274C32.6367 8.48751 32.8827 8.45428 33.1354 8.42104C33.255 8.40109 33.3814 8.39443 33.5077 8.38113C33.5277 8.38113 33.5476 8.38113 33.5675 8.38113C33.7471 8.36118 33.9333 8.34789 34.1128 8.34124C34.1128 8.34124 34.1127 8.3346 34.1327 8.31466C34.1327 8.31466 34.1393 8.30801 34.146 8.29471C34.1859 8.23488 34.2656 8.13514 34.3853 7.99552C34.4318 7.94233 34.4785 7.88914 34.5316 7.8293C34.6447 7.70298 34.7843 7.5567 34.9439 7.41043C34.9904 7.36389 35.0436 7.3107 35.0968 7.26416C35.2563 7.11124 35.4358 6.96498 35.6353 6.81206C35.6884 6.77217 35.7416 6.73228 35.7948 6.69239C35.9344 6.58601 36.0741 6.48628 36.227 6.39984C36.3134 6.34001 36.3999 6.28682 36.493 6.23363C36.5395 6.20703 36.586 6.17379 36.6326 6.15385C36.6791 6.12725 36.7257 6.10065 36.7722 6.0807C36.8653 6.02751 36.965 5.98097 37.0714 5.93443C37.1645 5.88789 37.2642 5.848 37.3639 5.8081C37.5966 5.70837 37.8293 5.62859 38.082 5.56211C38.1418 5.54216 38.2017 5.52222 38.2682 5.50893C38.3879 5.47568 38.5141 5.44909 38.6405 5.42915C38.6936 5.4225 38.7468 5.4092 38.8 5.40255C38.8798 5.38925 38.9596 5.37594 39.046 5.36929C39.5979 5.30945 40.0367 5.32941 40.3824 5.40255C40.4023 5.40255 40.4223 5.40919 40.4422 5.41584C40.5619 5.44243 40.6749 5.47567 40.7747 5.51556C40.8145 5.53551 40.8545 5.54882 40.8944 5.56876C41.0473 5.6419 41.1802 5.72168 41.2733 5.81476C41.2999 5.84135 41.3266 5.86129 41.3465 5.88789C41.4196 5.96102 41.4728 6.02753 41.5193 6.09401C41.5392 6.12061 41.5592 6.15383 41.5792 6.18043C41.5991 6.20702 41.6124 6.24027 41.6257 6.26686C41.6855 6.39984 41.6988 6.49291 41.6988 6.49291C41.6988 6.49291 41.7055 6.47962 41.7254 6.45302C41.7254 6.43308 41.7454 6.41313 41.7654 6.38653C41.7654 6.38653 41.7919 6.34001 41.8052 6.32006C41.8185 6.29347 41.8384 6.26686 41.8584 6.24026C42.1642 5.8081 42.9022 4.93049 44.1788 4.29887C44.2585 4.25898 44.345 4.21909 44.4314 4.1792C44.6043 4.10606 44.7838 4.03293 44.97 3.97309C45.0298 3.95315 45.0897 3.93318 45.1429 3.91324C45.2027 3.89329 45.2626 3.87335 45.329 3.8534C45.5152 3.80021 45.7147 3.75368 45.9208 3.71378C46.1069 3.67389 46.3063 3.64729 46.5124 3.62735C46.6454 3.61405 46.7784 3.60076 46.9114 3.59411C47.1375 3.58082 47.3502 3.58081 47.5497 3.58746C47.6095 3.58746 47.656 3.58746 47.7026 3.58746C48.1414 3.60076 48.5071 3.6606 48.8129 3.74038C48.8861 3.76033 48.9592 3.78028 49.0256 3.80687C49.0655 3.81352 49.0988 3.83347 49.132 3.84677C49.1852 3.86671 49.2318 3.88665 49.2783 3.9066C49.3647 3.94649 49.4379 3.97973 49.511 4.02627C49.5442 4.04622 49.5708 4.06616 49.6041 4.08611C49.6639 4.126 49.7171 4.15924 49.7703 4.20578C49.7969 4.22572 49.8168 4.24569 49.8434 4.26563C49.8767 4.29223 49.9033 4.31882 49.9299 4.34541C49.9764 4.39195 50.0163 4.43184 50.0496 4.48503C50.0895 4.52492 50.1227 4.57146 50.1493 4.62465C50.1626 4.64459 50.1759 4.66454 50.1892 4.68448C50.2091 4.71772 50.2291 4.75098 50.2424 4.78423C50.2424 4.79088 50.249 4.79752 50.249 4.80417C50.2689 4.84406 50.2823 4.87729 50.2956 4.91053C50.3288 4.99032 50.3487 5.06346 50.3687 5.12995C50.4219 5.36265 50.402 5.52887 50.402 5.52887C50.402 5.52887 50.4019 5.50228 50.4152 5.46904C50.4152 5.44909 50.4219 5.42913 50.4352 5.39589C50.4485 5.34935 50.4684 5.28952 50.495 5.21639C50.5748 4.98368 50.7277 4.64459 50.987 4.31216C51.0269 4.25232 51.0735 4.19913 51.1266 4.14594C51.1732 4.0861 51.2264 4.03292 51.2795 3.97973C51.3194 3.93983 51.3527 3.90659 51.3993 3.87335C51.4724 3.81351 51.5455 3.75368 51.6186 3.69384C51.6984 3.634 51.7849 3.58081 51.8779 3.52762C51.9178 3.50103 51.951 3.48108 51.9976 3.46113C52.0707 3.42124 52.1506 3.38799 52.237 3.35475C52.2702 3.34145 52.3034 3.32816 52.3367 3.31486C52.3832 3.29492 52.4364 3.27498 52.4896 3.26168C52.6159 3.22179 52.7556 3.18855 52.9019 3.16196C53.0082 3.14201 53.1146 3.12871 53.221 3.12206C53.2542 3.12206 53.2808 3.12206 53.3141 3.11541C53.3407 3.11541 53.3739 3.11541 53.4005 3.11541C53.6864 3.10876 53.9988 3.1154 54.3379 3.16859C54.9695 3.25502 55.4815 3.35476 55.907 3.46779C55.9801 3.48773 56.0466 3.50768 56.1131 3.52762C56.1397 3.52762 56.173 3.54093 56.1996 3.55422C56.2661 3.57417 56.3259 3.59411 56.3857 3.61406C56.4589 3.634 56.5253 3.66059 56.5918 3.68718C56.645 3.70713 56.6915 3.72707 56.7447 3.74702C56.8179 3.77361 56.8844 3.80687 56.9509 3.84011C57.0107 3.8667 57.0706 3.89995 57.1304 3.92655C57.1902 3.95979 57.2434 3.99302 57.29 4.01962C57.3365 4.05951 57.383 4.09275 57.4296 4.126C57.875 4.47173 58.0412 4.88394 58.2673 5.36929C58.2806 5.40253 58.2938 5.43579 58.3138 5.46904C58.3138 5.46904 58.3138 5.46902 58.3271 5.45573C58.3338 5.45573 58.3537 5.43579 58.3737 5.42249C58.4003 5.40919 58.4335 5.3826 58.4668 5.356C58.5399 5.30281 58.6396 5.23633 58.7659 5.16984C58.8058 5.14325 58.8457 5.11666 58.8922 5.09671C58.9255 5.07677 58.9587 5.0568 58.9986 5.03686C59.0585 5.00362 59.1183 4.97038 59.1848 4.93713C59.3377 4.864 59.5039 4.78422 59.6901 4.71774C59.7566 4.69114 59.8297 4.6579 59.8962 4.63796C59.976 4.61136 60.0624 4.58476 60.1488 4.56481C60.7672 4.39195 61.4919 4.32546 62.21 4.54487C62.3363 4.58476 62.4692 4.62464 62.5956 4.66454C62.7152 4.70443 62.8283 4.74432 62.948 4.79086C63.1541 4.864 63.3601 4.94378 63.5662 5.03686C63.6726 5.07675 63.779 5.12331 63.8854 5.1765C63.9718 5.21639 64.0715 5.26292 64.158 5.31611C64.3441 5.40919 64.5303 5.52223 64.7164 5.63525C64.7763 5.6685 64.8295 5.70837 64.8827 5.74161C65.1486 5.91448 65.3946 6.10731 65.6406 6.32006C65.7005 6.3666 65.747 6.41978 65.8002 6.47297C65.9597 6.61924 66.1194 6.78546 66.2656 6.95833C66.3521 7.05806 66.4385 7.16444 66.5183 7.27082C66.7842 7.62319 67.0369 8.02875 67.2563 8.48751C67.3161 8.61383 67.376 8.74681 67.4291 8.88643C67.4291 8.88643 67.5156 8.88643 67.6618 8.90638C67.6884 8.90638 67.7217 8.90638 67.7549 8.91303H67.7749C67.868 8.91968 67.981 8.93963 68.1073 8.95292C68.1938 8.95957 68.2801 8.97952 68.3799 8.99281C68.4264 8.99946 68.4796 9.00612 68.5328 9.01941C68.6391 9.03271 68.7455 9.05265 68.8652 9.07925C69.3306 9.15903 69.8758 9.2787 70.4742 9.44492C70.6471 9.49146 70.8266 9.55131 70.9995 9.6045C71.4915 9.76407 72.0034 9.95687 72.5154 10.1962C72.7481 10.3026 72.9874 10.4156 73.2201 10.5486C73.3198 10.6018 73.4195 10.655 73.5192 10.7148C73.6057 10.768 73.7054 10.8212 73.7919 10.8744C74.1841 11.1071 74.5631 11.3797 74.9354 11.6789C75.0484 11.7653 75.1548 11.8584 75.2612 11.9515C75.3676 12.0446 75.474 12.1443 75.5737 12.244C75.6801 12.3437 75.7798 12.4501 75.8729 12.5498C75.8928 12.5698 75.9128 12.5897 75.9261 12.6097C76.3782 13.1549 76.7638 13.9593 76.7173 14.9699C76.6641 16.2398 75.4274 14.7638 74.8556 14.6375C74.6562 14.5976 74.5565 14.6641 74.5565 14.8902L74.5432 14.8436Z" fill="#FFFCFA"/>
<path d="M23.1625 22.6624C22.0189 24.2116 21.1346 25.9469 20.1839 27.6157C19.1866 29.3842 18.176 31.1461 17.192 32.9213C16.2213 34.6699 15.2705 36.4251 14.3796 38.2203C13.5087 39.9821 12.7307 41.7839 11.8731 43.5458C10.1577 47.0763 7.95037 50.3208 5.72972 53.5454C5.55686 53.798 5.1513 53.552 5.31751 53.306C5.6034 52.8938 5.88931 52.4816 6.16856 52.0627C7.30548 50.4006 8.42907 48.7251 9.45961 46.9965C10.4968 45.2612 11.4077 43.4594 12.2587 41.6177C13.1164 39.7561 13.9807 37.9078 14.9314 36.0993C15.8755 34.2909 16.8729 32.5157 17.8768 30.7405C18.914 28.9055 19.9446 27.0638 20.9884 25.2288C21.4139 24.4842 21.8527 23.7528 22.3314 23.0414C22.5574 23.0746 22.8566 22.8885 23.1625 22.6558V22.6624Z" fill="#C7764C"/>
<path d="M32.5035 27.437C31.8785 28.534 31.3001 29.6444 30.7084 30.7613C29.7908 32.4966 28.8866 34.2452 27.9957 36.0005C26.2338 39.4711 24.5251 42.9683 22.8696 46.4987C21.2074 50.0424 19.6118 53.6127 18.0693 57.2097C17.3047 58.9849 16.6065 60.7867 15.8021 62.5419C15.4297 63.3663 14.9843 64.1442 14.4989 64.9088C14.0202 65.6801 13.5349 66.4446 13.2091 67.289C13.1692 67.3954 13.0695 67.4419 12.9764 67.4419C12.9365 66.9433 13.0097 66.6375 13.0097 66.6375C13.0097 66.6375 12.9963 66.6375 12.9697 66.6375C13.0695 66.4181 13.1758 66.1986 13.2955 65.9859C13.721 65.2013 14.2264 64.47 14.6718 63.6988C15.1572 62.861 15.5428 61.9768 15.9151 61.0858C16.6731 59.2774 17.431 57.4623 18.2155 55.6605C19.7846 52.037 21.4202 48.4401 23.1156 44.8698C24.7977 41.3194 26.533 37.7956 28.3347 34.2984C29.2456 32.5365 30.1632 30.7746 31.1073 29.026C31.2602 28.7335 31.4264 28.441 31.5726 28.1484C31.9516 27.8093 32.2973 27.5035 32.4968 27.4503L32.5035 27.437Z" fill="#C7764C"/>
<path d="M24.5253 14.0126C24.5253 14.0126 27.9227 12.4036 30.0835 12.2507C31.134 12.1775 33.0489 12.1244 34.106 12.2374C35.1698 12.3504 36.2734 12.6762 37.2375 13.1881C37.8691 13.5272 38.5007 13.9528 38.8332 14.5711C38.9794 14.837 39.2719 15.2825 39.2919 15.2825C39.3251 15.2825 39.2055 14.8171 39.0792 14.5511C38.3545 12.9488 36.6125 12.2773 34.9371 12.018C32.6699 11.6656 30.3295 11.7653 28.0956 12.2773C26.9653 12.5432 24.5319 14.0126 24.5319 14.0126H24.5253Z" fill="#FFE7D6"/>
<path d="M39.1058 10.6086C37.6298 9.2523 35.848 8.52096 33.86 8.3082C33.747 8.2949 33.7071 8.28825 33.5343 8.34143C33.4545 8.36803 35.1898 8.73371 36.7522 9.45177C37.7761 9.92382 38.6271 10.5953 39.1922 11.2203C40.9541 13.1684 41.6988 15.9874 41.7586 15.9674C41.865 15.9342 40.5619 11.9384 39.1058 10.6086Z" fill="#FFE7D6"/>
<path d="M44.9167 13.3812C44.8436 12.5302 44.6042 11.4132 44.2519 10.642C43.5737 9.16598 41.7786 6.42672 41.6722 6.45332C41.5525 6.47991 43.4008 9.12609 43.9792 10.5821C45.2159 13.6738 44.5643 16.1271 44.684 16.1271C44.8036 16.1271 45.0032 14.3187 44.9167 13.3812Z" fill="#FFE7D6"/>
<path d="M50.3953 5.4361C50.2491 5.36297 50.3953 9.15934 49.6772 10.9013C49.019 12.5036 46.6255 15.3825 46.7053 15.4689C46.7851 15.5553 49.152 12.7297 49.8368 11.0808C50.5948 9.27238 50.4552 5.47599 50.3887 5.4361H50.3953Z" fill="#FFE7D6"/>
<path d="M54.9096 10.8816C53.4868 13.1156 50.2889 15.2697 50.3022 15.3761C50.3221 15.5024 53.1411 13.4812 54.0852 12.3908C55.2354 11.0545 55.9535 9.43885 56.8378 7.91631C57.3098 7.10518 58.4401 5.48291 58.3005 5.42307C58.2207 5.38983 56.02 9.1596 54.9163 10.8816H54.9096Z" fill="#FFE7D6"/>
<path d="M60.3483 9.84457C58.2606 10.8485 57.5026 12.3312 57.2367 12.7367C56.9175 13.2088 54.4309 17.1315 54.3245 17.0584C54.2381 16.9919 56.7779 12.9428 56.9109 12.7301C57.3231 12.0918 57.7486 11.4602 58.2672 10.9017C58.972 10.1371 59.8296 9.66505 60.8269 9.37916C62.8947 8.78743 67.3493 8.70101 67.4091 8.83399C67.4091 8.83399 61.3323 9.36587 60.3483 9.84457Z" fill="#FFE7D6"/>
<path d="M96.723 51.5581C96.5834 51.6911 96.4571 51.7908 96.3641 51.8639C95.4 50.7004 94.4891 49.4771 93.6248 48.2338C92.0158 45.9134 90.5598 43.4866 89.117 41.0665C87.528 38.3938 85.9323 35.7277 84.3632 33.0482C81.7636 28.6069 77.3023 19.7842 75.6269 16.7458C75.2745 16.1075 74.8157 15.7618 74.7758 15.7219C74.7758 15.7152 74.7758 15.7152 74.7758 15.7152C74.6229 15.3096 74.5565 15.0238 74.5498 14.8442C74.7293 15.0038 75.587 15.7884 76.2386 16.912C77.7212 19.485 79.6227 23.7335 80.7131 25.6948C83.705 31.0669 86.8565 36.3593 90.0146 41.6317C92.0624 45.0557 94.1833 48.4931 96.7297 51.5647L96.723 51.5581Z" fill="#C7764C"/>
<path d="M74.5964 15.1635C73.9249 14.452 73.5127 14.226 72.7482 13.6276C72.203 13.1955 71.6378 12.7899 71.0195 12.484C70.3746 12.1583 68.4398 11.4402 67.7284 11.407C64.4639 11.254 62.4959 11.8657 61.359 12.4774C60.8338 12.7633 58.0081 15.1834 57.9349 15.0704C57.8751 14.9906 60.9667 12.2979 61.7579 11.9389C64.2113 10.8219 67.1101 10.782 69.6831 11.4867C70.3812 11.6729 71.0528 11.9455 71.6844 12.3045C72.316 12.6769 72.8944 13.1423 73.4662 13.5944C73.905 13.9468 74.1377 14.4653 74.5499 14.8443C74.5632 14.9108 74.5499 14.9374 74.6031 15.1635H74.5964Z" fill="#FFE7D6"/>
<path opacity="0.32" d="M59.5969 14.7374C58.839 14.9103 58.0811 15.522 57.4694 16.147C56.6848 16.9514 56.1462 17.7825 56.1462 17.7825C56.1462 17.7825 55.169 17.3437 53.7328 17.3371C53.3273 17.3371 52.8817 17.3703 52.4097 17.4567C49.5242 18.0019 48.4405 20.8741 48.4405 20.8741C48.4405 20.8741 46.7517 18.9061 45.2292 18.1017C44.93 17.9487 44.6109 17.8357 44.2917 17.7759C43.0019 17.5099 41.732 17.8956 41.732 17.8956C41.5192 17.5365 41.2267 17.2373 40.9076 16.9913C40.0167 16.2866 38.9263 16.0073 38.9263 16.0073C38.8665 15.0566 38.7734 14.5579 38.6803 14.3119C40.4621 15.409 41.3331 13.4808 41.3331 13.4808C43.2612 14.3651 44.7837 12.191 44.7837 12.191C48.5203 13.2415 49.8433 11.0674 49.8433 11.0674C52.3698 12.7561 55.2221 10.6685 55.2221 10.6685C55.2221 10.6685 54.298 12.796 57.0306 12.7163C58.5265 12.6764 61.3256 14.3252 59.6036 14.7241L59.5969 14.7374Z" fill="#DEB59F"/>
<path opacity="0.56" d="M57.4695 16.1465C56.685 16.951 56.1464 17.7821 56.1464 17.7821C56.1464 17.7821 55.1691 17.3433 53.733 17.3366C53.3274 17.3366 52.8819 17.3699 52.4098 17.4563C49.5243 18.0015 48.4406 20.8737 48.4406 20.8737C48.4406 20.8737 46.7519 18.9057 45.2293 18.1012C44.9301 17.9483 44.611 17.8353 44.2919 17.7754C43.002 17.5095 41.7321 17.8951 41.7321 17.8951C41.5194 17.5361 41.2269 17.2369 40.9077 16.9909C42.663 15.7809 45.9872 14.0788 50.249 14.6439C54.0055 15.1359 56.2062 15.588 57.4761 16.1332L57.4695 16.1465Z" fill="#DEAD93"/>
<path d="M41.4328 17.5036C40.8344 16.7124 40.5153 16.6991 40.01 16.4398C39.8837 16.3002 39.7573 16.1738 39.6177 16.0542C39.478 15.9345 39.3318 15.8215 39.1856 15.7217C39.1856 15.7217 39.1988 15.7217 39.2054 15.7217C39.1855 15.7151 39.1656 15.7018 39.1723 15.7084C39.0858 15.6486 38.9861 15.5888 38.893 15.5356C38.4209 15.2696 37.8957 15.1034 37.3439 15.0369C36.4596 14.9305 35.562 15.0369 34.6911 15.1765C33.8866 15.2962 33.082 15.4824 32.2975 15.7217C29.1859 16.6658 26.3204 18.4344 24.0997 20.8146C23.4482 21.5127 22.8764 22.2574 22.3445 23.0352C22.5705 23.0685 22.8697 22.8823 23.1756 22.6496C23.1889 22.6297 23.2022 22.6164 23.2155 22.5964C25.1237 20.0367 27.7698 18.0155 30.7151 16.7922C32.1911 16.1805 33.7536 15.755 35.336 15.5622C36.2335 15.4558 37.1178 15.4092 37.9821 15.6818C38.8198 15.9411 39.5977 16.3201 40.2958 16.8188C40.5219 16.9783 41.0538 17.4171 41.24 17.6897C38.6802 19.292 35.8213 21.6856 34.0461 24.1323C33.1286 25.3955 32.3507 26.7585 31.5994 28.1281C31.9784 27.789 32.3241 27.4832 32.5236 27.43C32.8427 26.8516 33.1818 26.2864 33.5276 25.7346C35.3559 22.8358 37.8026 20.3492 40.6947 18.5075C40.7878 18.4477 41.5658 17.9823 41.732 17.8825C41.7519 17.8692 41.4793 17.4836 41.446 17.5036H41.4328Z" fill="#FFE7D6"/>
<path opacity="0.56" d="M53.7329 17.3439C53.3273 17.3439 52.8818 17.3771 52.4097 17.4636C49.5242 18.0087 48.4405 20.881 48.4405 20.881C48.4405 20.881 46.7518 18.913 45.2292 18.1085C44.93 17.9556 44.6109 17.8425 44.2917 17.7827C45.4087 16.9583 47.0776 16.3665 49.5642 16.5394C51.1997 16.6524 52.5827 16.9383 53.7329 17.3372V17.3439Z" fill="#DEA485"/>
<path d="M89.2035 65.5601C89.1436 65.5601 89.0838 65.5534 89.0306 65.5468C89.0306 65.5468 88.9907 65.8925 88.8046 66.451C88.7979 66.4311 88.7913 66.4111 88.7913 66.3845C88.7647 65.8593 88.7247 65.3341 88.6582 64.8088C88.1529 60.5603 86.5108 56.5512 84.8819 52.6285C83.1532 48.4598 81.4378 44.2911 79.6826 40.1357C78.8182 38.0879 77.9273 36.0467 76.9367 34.0522C75.9527 32.0775 74.8357 30.1693 73.8916 28.1814C72.4821 25.2161 71.5779 21.8918 69.7229 19.1592C70.1218 19.2057 70.4144 19.4318 70.6471 19.7509C70.8199 20.0368 70.9795 20.3293 71.1324 20.6285C71.1324 20.6352 71.1391 20.6418 71.1391 20.6551C71.1391 20.6551 71.1391 20.6618 71.1391 20.6684C71.3585 21.1671 71.5713 21.6923 71.8372 22.1045C71.9436 22.3306 72.0433 22.5633 72.1364 22.7893C72.994 24.8105 73.7454 26.8783 74.7427 28.8396C75.7599 30.8608 76.8835 32.8354 77.8608 34.8832C78.8249 36.9111 79.7092 38.9788 80.5735 41.0532C82.3554 45.315 84.1439 49.5768 85.8925 53.8585C87.4283 57.615 88.8444 61.4845 89.1968 65.5468L89.2035 65.5601Z" fill="#C7764C"/>
<path d="M69.1778 17.6697C69.7363 18.3213 70.2149 19.0261 70.6471 19.7574C70.4144 19.4383 70.1218 19.2122 69.7229 19.1657C69.324 18.5739 68.8785 18.0154 68.3732 17.4836C67.0834 16.1339 65.4811 14.9371 63.6195 14.6778C59.5372 14.1127 57.8618 15.9278 57.8884 15.7549C57.8884 15.6951 58.8125 15.0103 59.1317 14.8839C60.847 14.1858 62.9014 14.1659 64.6899 14.6579C66.4718 15.1565 67.9943 16.2801 69.1778 17.6697Z" fill="#FFE7D6"/>
<path d="M71.8436 22.1178C71.5777 21.7055 71.3649 21.1736 71.1455 20.6816C71.3982 21.1537 71.6242 21.6324 71.8436 22.1178Z" fill="#FFE7D6"/>
<path d="M47.1174 29.3049C47.0443 29.757 46.9779 30.2091 46.8981 30.6479C45.6548 38.0412 44.2586 45.4212 42.3238 52.6682C41.3597 56.2851 40.2494 59.8554 39.0061 63.3792C38.3878 65.1212 37.7163 66.8498 37.0647 68.5718C36.5328 69.9747 36.0408 71.4174 35.8945 72.9134C35.8147 72.9533 35.6485 73.0463 35.3959 73.1527C35.5222 71.3842 36.1273 69.6821 36.7655 68.0333C37.5168 66.0919 38.2482 64.1372 38.9263 62.1625C41.3863 55.0019 43.2213 47.6485 44.684 40.2286C45.422 36.512 46.0669 32.7755 46.6853 29.0389C46.7584 28.6201 46.8249 28.2012 46.8914 27.769C47.0177 28.2477 47.0842 28.7929 47.1174 29.2916V29.3049Z" fill="#C7764C"/>
<path d="M47.8887 24.6377C47.6028 26.1868 47.3634 27.7493 47.1174 29.3051C47.0841 28.8064 47.0177 28.2612 46.8914 27.7825C47.2437 25.4489 47.5629 23.042 48.4073 20.8413C48.6599 20.1831 49.6505 18.8002 49.717 18.9531C49.7237 18.9664 49.1851 19.6978 48.8062 20.7748C48.3674 22.0115 48.0748 23.667 47.8887 24.6377Z" fill="#FFE7D6"/>
<path d="M66.4717 53.4795C66.3653 55.7267 66.1725 57.9606 65.9863 60.2012C65.8068 62.3554 65.6207 64.5096 65.3614 66.6571C65.1021 68.798 64.763 70.9388 64.2843 73.0464C64.1248 73.7445 63.9519 74.4493 63.7391 75.1474C63.7391 75.1474 63.553 75.2272 63.1873 75.3535C63.3269 74.9413 63.4399 74.5158 63.5529 74.0969C63.8056 73.0996 64.025 72.0957 64.2178 71.0917C64.6167 68.9908 64.8894 66.8632 65.1154 64.7356C65.3348 62.6147 65.5077 60.4805 65.6805 58.3463C65.86 56.1788 66.0129 54.018 66.0661 51.8439C66.1659 47.6353 65.7869 43.4267 65.0555 39.2779C64.8494 38.1078 64.6101 36.9443 64.3508 35.7874C64.4838 33.7994 63.2538 31.4458 62.928 28.5869C64.138 32.5562 65.1287 36.5985 65.767 40.6941C66.4252 44.9293 66.6711 49.1977 66.4783 53.4795H66.4717Z" fill="#C7764C"/>
<path d="M64.3441 35.7806C63.6991 32.8752 63.1074 30.0428 62.2032 27.2105C61.6115 25.3622 60.92 22.9487 59.8429 21.3198C58.0943 18.667 55.9003 17.7362 55.5413 17.5833C55.6077 17.4835 56.0798 17.6498 56.1862 17.7229C56.4721 17.9024 56.7646 18.0886 57.0505 18.2747C57.8484 18.8066 58.6262 19.3984 59.2645 20.1164C59.9028 20.8212 60.3948 21.6389 60.7871 22.4966C61.6381 24.325 62.2098 26.3063 62.8015 28.2277C62.8414 28.3474 62.8747 28.4605 62.9079 28.5801C63.2337 31.4457 64.4637 33.7993 64.3308 35.7806H64.3441Z" fill="#FFE7D6"/>
<path d="M19.5855 34.6768C19.5855 34.6768 16.095 39.5503 11.0952 48.8916C6.87996 56.7769 3.99444 59.1306 6.52093 62.0826C9.04742 65.0346 9.22689 65.1542 14.7054 52.4486C17.7106 45.4809 20.257 39.8694 20.9684 36.4919C21.5535 33.7061 20.6958 32.2035 19.5855 34.6835V34.6768Z" fill="#F09362"/>
<path d="M79.9418 27.9214C79.9418 27.9214 82.5415 33.4598 87.5413 42.8078C91.7565 50.6931 98.6445 55.7593 96.1114 58.7113C93.5849 61.6633 91.7166 57.4481 86.2314 44.7425C83.2262 37.7747 79.2703 33.114 78.5523 29.7365C77.9672 26.9507 78.8249 25.4482 79.9352 27.9281L79.9418 27.9214Z" fill="#F09362"/>
<path d="M38.0419 34.2781C36.0872 37.8152 32.6033 40.1489 26.5132 52.2095C21.3738 62.3886 12.7571 67.3618 21.2142 70.8124C25.8018 72.6874 25.7552 73.4453 32.3574 57.0763C35.9809 48.1007 39.0525 40.8736 39.8636 36.5386C40.5285 32.9683 39.9966 30.741 38.0419 34.2781Z" fill="#F09362"/>
<path d="M57.0771 33.5069C55.7141 37.3099 53.7261 42.8083 49.0056 54.2108C44.6441 64.7489 39.2986 71.9294 48.3009 73.4985C53.3938 74.3828 54.6769 73.6448 57.004 60.2344C58.6595 50.7003 59.1382 39.8563 59.2379 35.4483C59.3177 31.8181 58.4401 29.7038 57.0771 33.5069Z" fill="#F09362"/>
<path d="M70.2079 29.0386C70.3741 33.0743 72.8475 40.1817 72.7477 52.5216C72.6546 63.924 67.6881 73.2056 76.7103 71.7695C81.6037 70.9916 83.9507 71.0647 81.0984 53.6452C79.536 44.0978 74.5029 34.1447 72.9405 30.0226C71.6573 26.6251 70.0483 24.9962 70.2079 29.0319V29.0386Z" fill="#F09362"/>
</g>
<defs>
<filter id="filter0_d_73_16958" x="0.769185" y="0.406934" width="102.788" height="79.1856" filterUnits="userSpaceOnUse" color-interpolation-filters="sRGB">
<feFlood flood-opacity="0" result="BackgroundImageFix"/>
<feColorMatrix in="SourceAlpha" type="matrix" values="0 0 0 0 0 0 0 0 0 0 0 0 0 0 0 0 0 0 127 0" result="hardAlpha"/>
<feMorphology radius="1" operator="dilate" in="SourceAlpha" result="effect1_dropShadow_73_16958"/>
<feOffset dx="0.43"/>
<feGaussianBlur stdDeviation="0.85"/>
<feComposite in2="hardAlpha" operator="out"/>
<feColorMatrix type="matrix" values="0 0 0 0 0.132578 0 0 0 0 0.132578 0 0 0 0 0.253333 0 0 0 0.54 0"/>
<feBlend mode="normal" in2="BackgroundImageFix" result="effect1_dropShadow_73_16958"/>
<feBlend mode="normal" in="SourceGraphic" in2="effect1_dropShadow_73_16958" result="shape"/>
</filter>
</defs>
</svg>
