<svg width="96" height="46" viewBox="0 0 96 46" fill="none" xmlns="http://www.w3.org/2000/svg">
<path d="M46.5313 43.1821C45.8731 43.9884 42.2326 44.9962 38.9415 44.6065C36.9533 44.378 35.0861 43.639 34.0921 42.0399C27.7113 31.7198 35.8787 26.721 35.8787 26.721C35.8787 26.721 37.0877 26.2103 38.7668 25.9819C41.4938 25.6056 45.47 25.955 47.5522 30.4432C50.8971 37.6323 47.5791 41.919 46.5313 43.1955V43.1821Z" fill="#3C5069"/>
<path d="M43.4551 43.1826C43.0118 43.7336 41.1311 44.3786 38.9415 44.607C36.9533 44.3786 35.0861 43.6395 34.0921 42.0404C27.7113 31.7203 35.8787 26.7215 35.8787 26.7215C35.8787 26.7215 37.0877 26.2109 38.7668 25.9824C40.8893 26.3049 43.1058 27.4606 44.476 30.4437C47.8208 37.6329 44.5029 41.9195 43.4551 43.1961V43.1826Z" fill="#4A6482"/>
<path d="M38.7171 40.0538C40.8729 39.8401 42.4064 37.5056 42.1423 34.8395C41.8781 32.1734 39.9164 30.1854 37.7606 30.3991C35.6048 30.6129 34.0713 32.9474 34.3355 35.6135C34.5996 38.2795 36.5613 40.2676 38.7171 40.0538Z" fill="#3C5069"/>
<path d="M38.5966 38.8373C40.2061 38.6778 41.3506 36.9319 41.1531 34.9379C40.9555 32.9439 39.4907 31.4568 37.8812 31.6164C36.2718 31.7759 35.1272 33.5217 35.3248 35.5158C35.5223 37.5098 36.9872 38.9969 38.5966 38.8373Z" fill="#8F9CAB"/>
<path d="M89.0742 43.1821C88.416 43.9884 84.7756 44.9962 81.4845 44.6065C79.4963 44.378 77.6291 43.639 76.635 42.0399C70.2542 31.7198 78.4217 26.721 78.4217 26.721C78.4217 26.721 79.6307 26.2103 81.3098 25.9819C84.0368 25.6056 88.013 25.955 90.0952 30.4432C93.4401 37.6323 90.122 41.919 89.0742 43.1955V43.1821Z" fill="#3C5069"/>
<path d="M85.998 43.1826C85.5547 43.7336 83.6741 44.3786 81.4845 44.607C79.4963 44.3786 77.6291 43.6395 76.635 42.0404C70.2542 31.7203 78.4217 26.7215 78.4217 26.7215C78.4217 26.7215 79.6307 26.2109 81.3098 25.9824C83.4323 26.3049 85.6488 27.4606 87.019 30.4437C90.3638 37.6329 87.0458 41.9195 85.998 43.1961V43.1826Z" fill="#4A6482"/>
<path d="M81.2677 40.0616C83.4234 39.8479 84.9569 37.5134 84.6928 34.8473C84.4286 32.1813 82.4669 30.1932 80.3111 30.407C78.1553 30.6207 76.6218 32.9552 76.886 35.6213C77.1501 38.2874 79.1119 40.2754 81.2677 40.0616Z" fill="#3C5069"/>
<path d="M81.1472 38.8451C82.7567 38.6856 83.9012 36.9398 83.7037 34.9457C83.5061 32.9517 82.0412 31.4646 80.4318 31.6242C78.8223 31.7837 77.6777 33.5296 77.8753 35.5236C78.0728 37.5176 79.5377 39.0047 81.1472 38.8451Z" fill="#8F9CAB"/>
<path d="M3.58497 38.0357L66.681 39.0301L67.8093 19.4648L1.83862 22.1927L3.58497 38.0357Z" fill="#1D2733"/>
<path d="M19.6514 44.3247C18.9932 45.1309 15.3528 46.1388 12.0616 45.7491C10.0735 45.5206 8.20625 44.7816 7.21219 43.1825C0.831393 32.8624 8.99883 27.8635 8.99883 27.8635C8.99883 27.8635 10.2078 27.3529 11.887 27.1245C14.6139 26.7482 18.5902 27.0976 20.6723 31.5858C24.0172 38.7749 20.6992 43.0615 19.6514 44.3381V44.3247Z" fill="#47607D"/>
<path d="M16.5752 44.3252C16.1319 44.8761 14.2512 45.5212 12.0616 45.7496C10.0735 45.5212 8.20625 44.7821 7.21219 43.183C0.831393 32.8629 8.99883 27.8641 8.99883 27.8641C8.99883 27.8641 10.2078 27.3534 11.887 27.125C14.0094 27.4475 16.2259 28.6031 17.5961 31.5863C20.941 38.7754 17.623 43.0621 16.5752 44.3386V44.3252Z" fill="#6183AB"/>
<path d="M11.8406 41.2208C13.9964 41.0071 15.5299 38.6726 15.2658 36.0065C15.0016 33.3404 13.0399 31.3524 10.8841 31.5661C8.7283 31.7799 7.19484 34.1144 7.45899 36.7805C7.72313 39.4465 9.68484 41.4346 11.8406 41.2208Z" fill="#566D87"/>
<path d="M11.7199 40.0043C13.3294 39.8447 14.474 38.0989 14.2764 36.1049C14.0788 34.1109 12.6139 32.6238 11.0045 32.7834C9.39504 32.9429 8.25048 34.6887 8.44804 36.6827C8.6456 38.6768 10.1105 40.1639 11.7199 40.0043Z" fill="#8F9CAB"/>
<path d="M62.1943 44.3247C61.5361 45.1309 57.8957 46.1388 54.6045 45.7491C52.6164 45.5206 50.7492 44.7816 49.7552 43.1825C43.3744 32.8624 51.5418 27.8635 51.5418 27.8635C51.5418 27.8635 52.7508 27.3529 54.4299 27.1245C57.1569 26.7482 61.1331 27.0976 63.2153 31.5858C66.5601 38.7749 63.2421 43.0615 62.1943 44.3381V44.3247Z" fill="#47607D"/>
<path d="M59.1181 44.3252C58.6748 44.8761 56.7942 45.5212 54.6045 45.7496C52.6164 45.5212 50.7492 44.7821 49.7552 43.183C43.3744 32.8629 51.5418 27.8641 51.5418 27.8641C51.5418 27.8641 52.7508 27.3534 54.4299 27.125C56.5524 27.4475 58.7689 28.6031 60.139 31.5863C63.4839 38.7754 60.1659 43.0621 59.1181 44.3386V44.3252Z" fill="#6183AB"/>
<path d="M54.4044 41.2159C56.5602 41.0022 58.0936 38.6677 57.8295 36.0016C57.5653 33.3355 55.6036 31.3475 53.4478 31.5613C51.2921 31.775 49.7586 34.1095 50.0227 36.7756C50.2868 39.4417 52.2486 41.4297 54.4044 41.2159Z" fill="#566D87"/>
<path d="M54.2839 39.9994C55.8934 39.8399 57.0379 38.094 56.8404 36.1C56.6428 34.106 55.178 32.6189 53.5685 32.7785C51.959 32.938 50.8144 34.6838 51.012 36.6779C51.2096 38.6719 52.6745 40.159 54.2839 39.9994Z" fill="#8F9CAB"/>
<path opacity="0.33" d="M3.41042 36.4358C3.41042 36.4358 5.64033 30.577 11.9271 32.9017C18.2139 35.2264 19.6647 38.2902 19.6647 38.2902H45.7789C45.7789 38.2902 48.7879 30.7517 54.4702 32.9017C60.1525 35.0517 62.3018 36.5702 62.463 38.9621L69.905 37.3093L57.5061 20.2031L4.76715 21.4125L3.39697 36.4358H3.41042Z" fill="#2D3A4D"/>
<path d="M94.7564 35.3895C94.4071 37.1767 93.6683 37.9023 92.607 38.3055C89.1278 39.6224 61.9255 39.2864 61.9255 39.2864C61.9255 39.2864 63.5106 27.421 55.2223 26.3191C46.9205 25.2038 45.3892 33.8173 47.028 39.273L18.751 38.722C18.751 38.722 19.7719 26.8297 12.5045 26.4266C5.23715 26.0235 3.69233 33.5082 4.61922 37.9695C4.61922 37.9695 2.12064 38.507 1.85198 35.9539C1.85198 35.9539 1.08626 29.4097 0.992229 24.1019C0.938496 20.9037 1.12658 18.1355 1.85198 17.5309C3.7998 15.9183 11.5105 9.50857 13.8344 5.58477C15.1912 3.31381 17.945 1.47285 21.7332 0.94878C28.8931 -0.0590442 55.5313 -0.287486 63.1076 1.54004C70.6974 3.36756 76.5677 12.1558 82.0619 16.8321C83.4724 18.028 92.1772 18.0952 94.1921 23.5778C94.3399 23.9809 94.4474 24.3975 94.5145 24.8409C94.528 24.9619 94.5414 25.0963 94.5683 25.2172C94.5683 25.3247 94.5952 25.4456 94.5952 25.5397C95.0922 30.5385 95.1325 33.562 94.7698 35.4164L94.7564 35.3895Z" fill="#00C37F"/>
<path d="M94.7563 35.3902C94.4071 37.1774 93.6682 37.903 92.607 38.3061C89.1278 39.623 61.9254 39.2871 61.9254 39.2871C61.9254 39.2871 63.5105 27.4216 55.2222 26.3197C46.9205 25.2044 45.3891 33.818 47.028 39.2736L18.7509 38.7227C18.7509 38.7227 19.7719 26.8304 12.5045 26.4272C5.23711 26.0241 3.69229 33.5089 4.61918 37.9702C4.61918 37.9702 2.1206 38.5077 1.85194 35.9545C1.85194 35.9545 1.08622 29.4104 0.992188 24.1025C2.72508 26.1451 5.06247 27.7307 7.46703 25.8897C12.2493 22.2213 19.0062 24.7207 20.5107 29.612C22.0152 34.5033 43.589 35.7127 44.8115 33.6298C46.0473 31.5336 46.719 23.2425 54.1744 24.116C61.6165 24.9894 63.8732 33.0251 63.8732 34.6108C63.8732 36.0755 86.2799 40.9265 94.7563 35.4305V35.3902Z" fill="#00B073"/>
<path d="M94.5012 24.8148C92.9967 25.7151 91.5055 26.5079 90.6995 27.1261C88.6443 28.6848 76.1514 27.2873 74.6065 27.5426C73.0617 27.798 64.9883 25.3657 62.4629 23.6592C59.9374 21.9391 51.367 20.8104 50.0371 19.7488C48.7072 18.6738 45.6444 5.02113 32.9366 2.38735C20.2287 -0.259868 13.8345 5.57207 13.8345 5.57207C15.1912 3.30111 17.9451 1.46015 21.7332 0.936084C28.8932 -0.0717407 55.5313 -0.30018 63.1077 1.52734C70.6975 3.35486 76.5678 12.1431 82.062 16.8194C83.4725 18.0153 92.1772 18.0825 94.1922 23.5651C94.34 23.9682 94.4474 24.3848 94.5146 24.8282L94.5012 24.8148Z" fill="#00D48A"/>
<path d="M26.0989 11.4168C25.9914 12.9352 25.9243 14.4403 25.8303 15.9587C25.8168 16.2544 25.8034 16.55 25.7765 16.8456C25.7362 17.7191 25.7093 18.5925 25.669 19.4659C18.7778 19.0359 12.4776 17.6787 13.0015 14.924C13.0015 14.924 14.0224 9.26677 20.7659 7.62737C22.2973 7.25112 24.1242 7.07643 26.3004 7.22424C26.4482 8.60832 26.193 10.0327 26.0855 11.4168H26.0989Z" fill="#BFDDFF"/>
<path d="M42.2994 18.0552C42.1651 19.1706 34.5753 19.8693 27.1467 19.5468C27.187 18.3509 27.2408 17.1549 27.3079 15.959C27.3885 14.4943 27.4557 13.043 27.5632 11.5783C27.6572 10.2077 27.9124 8.76982 27.7915 7.38574C28.3289 7.45293 28.8528 7.53356 29.3498 7.62762C39.5322 9.40139 42.1517 14.9915 42.2994 17.5043C42.3129 17.7193 42.2994 17.9074 42.2994 18.0687V18.0552Z" fill="#BFDDFF"/>
<path d="M79.8992 16.6035C78.4887 16.1869 59.6419 17.2754 53.3283 17.6382C52.2133 17.7054 51.0043 17.2216 50.5744 16.2004C47.6057 9.22622 37.6382 2.48052 37.6382 2.48052C37.6382 2.48052 41.0234 2.38646 45.5369 2.37302C51.958 2.34614 60.6359 2.49396 64.9883 3.32709C68.2929 3.95866 72.8064 8.36621 76.0036 11.9272C78.2872 14.4803 79.8992 16.6035 79.8992 16.6035Z" fill="#BFDDFF"/>
<path d="M76.0035 11.9399C71.8257 13.0149 66.1032 13.3374 61.5627 13.0149C55.6118 12.5849 48.9758 6.18857 45.5369 2.38571C51.958 2.35884 60.6359 2.50665 64.9882 3.33979C68.2928 3.97136 72.8064 8.37891 76.0035 11.9399Z" fill="#CCE4FF"/>
<path d="M42.3129 17.49C38.256 18.0275 31.6334 18.135 29.8602 17.154C28.0736 16.1731 28.7721 10.8114 29.3632 7.61328C39.5456 9.38705 42.1651 14.9771 42.3129 17.49Z" fill="#CCE4FF"/>
<path d="M26.099 11.4156C25.9916 12.934 25.9244 14.4391 25.8304 15.9575C25.817 16.2531 25.8035 16.5488 25.7766 16.8444C24.0303 17.5969 20.3631 17.046 17.0585 15.635C14.0226 14.345 17.9316 10.1121 20.7795 7.61272C22.3109 7.23647 24.1378 7.06178 26.314 7.2096C26.4617 8.59368 26.2065 10.0181 26.099 11.4021V11.4156Z" fill="#CCE4FF"/>
<path d="M62.4629 23.6445C62.4629 23.6445 62.6644 28.8987 72.0139 27.958C81.3635 27.0308 62.4629 23.6445 62.4629 23.6445Z" fill="#FFFEB6"/>
<path d="M94.5817 25.5118C93.9906 26.7074 92.5801 27.8626 89.2621 27.4328C84.5067 26.8148 91.6666 24.3297 94.1786 23.5371C94.3667 24.0341 94.4876 24.5849 94.5548 25.1894C94.5548 25.2969 94.5817 25.4178 94.5817 25.5118Z" fill="#FFFEB6"/>
<path d="M73.7602 32.3646L74.6871 33.896C74.8618 34.1915 75.2244 34.3661 75.6274 34.3661C75.6274 34.3661 80.7052 34.6482 81.8067 34.6482C82.9083 34.6482 87.5159 34.2587 87.5159 34.2587C87.986 34.2587 88.3891 33.99 88.51 33.6139L88.9935 32.069C89.1682 31.5317 88.6577 31.0078 87.986 31.0078C87.986 31.0078 83.9426 31.2899 81.3366 31.3033C78.9454 31.3302 74.6871 31.1287 74.6871 31.1287C73.9214 31.1287 73.4378 31.8004 73.7737 32.3511L73.7602 32.3646Z" fill="#3C5069"/>
</svg>
