<svg width="69" height="60" viewBox="0 0 69 60" fill="none" xmlns="http://www.w3.org/2000/svg">
<path d="M47.9779 33.2879C47.872 33.3773 47.7492 33.4794 47.6094 33.5943C45.7795 35.0925 40.9251 38.6207 35.0117 42.6215C34.5034 42.9619 33.9909 43.3067 33.4698 43.6557C27.7301 47.5032 21.1856 51.6528 15.4883 54.8108C15.0689 55.0449 14.658 55.2705 14.2514 55.4875C7.84667 58.9477 2.72118 60.9608 1.36569 59.5393L1.31909 59.4925L1.28097 59.4457L1.25979 59.4202L1.23437 59.3861C1.20048 59.3393 1.17083 59.284 1.14965 59.2286L1.12424 59.1776L1.09882 59.118L1.07764 59.0541C1.06493 59.0073 1.05223 58.9605 1.04375 58.9137C1.03105 58.8584 1.02257 58.8073 1.01834 58.7477L1.00987 58.6839C0.988687 58.4583 1.0014 58.2029 1.04799 57.922C1.05223 57.888 1.0607 57.8539 1.06493 57.8199C1.07764 57.7518 1.09035 57.6794 1.10729 57.6071C1.11577 57.5688 1.12424 57.5347 1.13271 57.4964C1.20896 57.1942 1.31062 56.8665 1.44617 56.5175C1.45888 56.4792 1.47582 56.4409 1.48853 56.4026C1.53936 56.2707 1.59443 56.1387 1.65373 56.0025C1.67491 55.9557 1.69185 55.9132 1.71303 55.8663C1.84435 55.5727 1.98837 55.2705 2.14933 54.9513C2.19169 54.8662 2.23405 54.7853 2.28065 54.6959L2.28912 54.6789C2.36113 54.5427 2.43314 54.4065 2.50939 54.2661C2.54328 54.2022 2.5814 54.1341 2.61952 54.066C2.82708 53.6915 3.05159 53.3042 3.29727 52.9084C3.36505 52.7935 3.43706 52.6785 3.50907 52.5636C3.61497 52.3891 3.72934 52.2146 3.83947 52.0359C3.91572 51.9167 3.99197 51.7975 4.07245 51.6741C4.11057 51.6145 4.15293 51.5549 4.19105 51.4911C4.30966 51.3081 4.4325 51.1251 4.55534 50.9378C4.67819 50.7505 4.8095 50.5633 4.93658 50.3718C5.06366 50.1802 5.19921 49.9887 5.33476 49.7972C5.38135 49.7333 5.42371 49.6695 5.47031 49.6014C5.5169 49.5376 5.5635 49.4695 5.61009 49.4056C5.70328 49.2737 5.79647 49.1418 5.88966 49.0098C5.93626 48.946 5.98285 48.8779 6.02945 48.8098C6.22007 48.5459 6.41492 48.2778 6.61401 48.0054C6.66908 47.9288 6.72414 47.8522 6.78345 47.7756C6.87664 47.6479 6.97406 47.5202 7.06725 47.3925C7.21975 47.1882 7.37648 46.9797 7.53321 46.7711C7.6391 46.6307 7.74077 46.4945 7.8509 46.354C8.01187 46.1455 8.17283 45.9327 8.3338 45.7199C8.4397 45.5794 8.54983 45.4347 8.65997 45.2943C8.78704 45.1325 8.91412 44.9708 9.0412 44.8048C9.5834 44.1068 10.1468 43.4003 10.7186 42.6853C10.8372 42.5363 10.9558 42.3916 11.0744 42.2427C11.3244 41.932 11.5785 41.6213 11.8327 41.3106C11.8708 41.2595 11.9132 41.2084 11.9513 41.1616L11.9725 41.1318C12.3198 40.7147 12.6629 40.2976 13.0145 39.872C15.2511 37.1822 17.6063 34.4626 19.9106 31.8706L19.9784 31.794C20.457 31.2578 20.9315 30.73 21.4017 30.2065C21.5626 30.0277 21.7236 29.8532 21.8803 29.6787C21.9184 29.6362 21.9566 29.5936 21.9947 29.5553C22.2912 29.2319 22.5835 28.9084 22.8715 28.5892C23.0664 28.3764 23.257 28.1678 23.4476 27.955C23.7357 27.6444 24.0195 27.3337 24.299 27.0272C24.5828 26.7208 24.8582 26.4229 25.1335 26.1249C25.3157 25.9249 25.502 25.7291 25.68 25.5376C26.3746 24.7928 27.0482 24.0778 27.6878 23.401C27.9631 23.1116 28.2342 22.8265 28.4968 22.5498C28.8145 22.2179 29.128 21.8944 29.4288 21.5795C29.882 21.1113 30.3098 20.6729 30.7165 20.2601C30.852 20.1196 30.9876 19.9834 31.1147 19.8515L31.1443 19.8217C31.2163 19.7493 31.2841 19.6812 31.3519 19.6131H31.3561C31.4747 19.4855 31.5933 19.3706 31.7077 19.2556C31.7458 19.2173 31.7839 19.179 31.8221 19.1407C31.8941 19.0684 31.9661 18.996 32.0381 18.9279L32.072 18.8939C32.1525 18.813 32.2287 18.7364 32.305 18.6598C32.449 18.5151 32.5888 18.3789 32.7243 18.2512C32.7709 18.2086 32.8133 18.1661 32.8556 18.1235C32.9403 18.0427 33.0251 17.9618 33.1055 17.8852C33.1987 17.7958 33.2835 17.7149 33.3682 17.6341L33.4487 17.5617C33.5249 17.4894 33.5969 17.4255 33.6647 17.3617C33.7536 17.2808 33.8384 17.2042 33.9146 17.1319C33.9739 17.0765 34.029 17.0297 34.084 16.9829C37.5363 13.9951 42.3441 13.6291 46.1141 15.7061C46.8215 16.0976 47.495 16.5701 48.1135 17.1319C48.4608 17.4383 48.7912 17.7788 49.1047 18.1448C49.7485 18.9024 50.2696 19.7238 50.6677 20.5878C52.4299 24.3885 51.8411 28.9595 49.0581 32.1813C48.7234 32.5771 48.3549 32.9432 47.9483 33.2964" fill="#EE5800"/>
<path d="M45.699 31.5727C41.7638 34.9776 13.078 55.3939 1.37416 59.5393L1.32756 59.4925L1.28944 59.4457L1.26826 59.4202L1.24284 59.3861C1.20896 59.3393 1.1793 59.284 1.15812 59.2286L1.13271 59.1776L1.10729 59.118L1.08611 59.0541C1.07341 59.0073 1.0607 58.9605 1.05223 58.9137C1.03952 58.8584 1.03105 58.8073 1.02681 58.7477L1.01834 58.6839C0.997159 58.4583 1.00987 58.2029 1.05646 57.922C1.0607 57.888 1.06917 57.8539 1.07341 57.8199C1.08611 57.7518 1.09882 57.6794 1.11577 57.6071C1.12424 57.5688 1.13271 57.5347 1.14118 57.4964C1.21743 57.1942 1.31909 56.8665 1.45464 56.5175C1.46735 56.4792 1.48429 56.4409 1.497 56.4026C1.54783 56.2707 1.6029 56.1387 1.6622 56.0025C1.68338 55.9557 1.70032 55.9132 1.7215 55.8663C1.85282 55.5727 1.99684 55.2705 2.15781 54.9513C2.20016 54.8662 2.24252 54.7853 2.28912 54.6959L2.29759 54.6789C2.3696 54.5427 2.44161 54.4065 2.51786 54.2661C2.55175 54.2022 2.58987 54.1341 2.62799 54.066C2.83555 53.6915 3.06006 53.3042 3.30574 52.9084C3.37352 52.7935 3.44553 52.6785 3.51754 52.5636C3.62344 52.3891 3.73781 52.2146 3.84794 52.0359C3.92419 51.9167 4.00044 51.7975 4.08092 51.6741C4.11904 51.6145 4.1614 51.5549 4.19953 51.4911C4.31813 51.3081 4.44097 51.1251 4.56382 50.9378C4.68666 50.7505 4.81797 50.5633 4.94505 50.3718C5.07636 50.1802 5.20768 49.9887 5.34323 49.7972C5.38982 49.7333 5.43218 49.6695 5.47878 49.6014C5.52537 49.5376 5.57197 49.4695 5.61856 49.4056C5.71175 49.2737 5.80495 49.1418 5.89814 49.0098C5.94473 48.946 5.99133 48.8779 6.03792 48.8098C6.22854 48.5459 6.42339 48.2778 6.62248 48.0054C6.67755 47.9288 6.73261 47.8522 6.79192 47.7756C6.88511 47.6479 6.98253 47.5202 7.07573 47.3925C7.22822 47.1882 7.38495 46.9797 7.54168 46.7711C7.64758 46.6307 7.74924 46.4945 7.85937 46.354C8.02034 46.1455 8.1813 45.9327 8.34227 45.7199C8.44817 45.5794 8.5583 45.4347 8.66844 45.2943C8.79551 45.1325 8.92259 44.9708 9.04967 44.8048C9.59187 44.1068 10.1553 43.4003 10.7271 42.6853C10.8457 42.5363 10.9643 42.3916 11.0829 42.2427C11.3752 41.8852 11.6675 41.5234 11.964 41.1616L11.9852 41.1318C14.5225 38.0377 17.2589 34.8626 19.9276 31.8706L19.9953 31.794C20.474 31.2578 20.9484 30.7257 21.4186 30.2065C21.5796 30.0277 21.7405 29.8532 21.8973 29.6787C21.9354 29.6362 21.9735 29.5936 22.0116 29.5553C22.3081 29.2319 22.5962 28.9084 22.8885 28.5892C23.0833 28.3764 23.2739 28.1678 23.4646 27.955C23.7526 27.6401 24.0364 27.3337 24.316 27.0272C24.5956 26.7208 24.8751 26.4186 25.1505 26.1249C25.3326 25.9249 25.519 25.7291 25.6969 25.5376C26.3916 24.7928 27.0651 24.0778 27.7047 23.401C27.9801 23.1116 28.2512 22.8265 28.5138 22.5498C28.8357 22.2136 29.1449 21.8901 29.4457 21.5795C30.0472 20.9538 30.6148 20.375 31.1316 19.8515L31.1613 19.8217C31.2333 19.7493 31.301 19.6812 31.3688 19.6131H31.373C31.4917 19.4855 31.6103 19.3706 31.7246 19.2556C31.7628 19.2173 31.8009 19.179 31.839 19.1407C31.911 19.0684 31.983 18.996 32.055 18.9279L32.0889 18.8939C32.3219 18.664 32.5379 18.447 32.7413 18.2512C32.7879 18.2086 32.8302 18.1661 32.8726 18.1235C32.9573 18.0427 33.042 17.9618 33.1225 17.8852C33.2157 17.7958 33.3004 17.7149 33.3851 17.6341L33.4656 17.5617C33.5418 17.4894 33.6139 17.4255 33.6816 17.3617C33.7706 17.2808 33.8553 17.2042 33.9316 17.1319C33.9909 17.0765 34.0459 17.0297 34.101 16.9829C37.5533 13.9951 42.3611 13.6291 46.131 15.7061C46.8384 16.0976 47.512 16.5701 48.1304 17.1319C48.8802 18.3023 49.3673 19.5919 49.6045 20.924C50.2653 24.6864 48.9013 28.7977 45.6863 31.577" fill="#FE7800"/>
<path d="M32.1906 23.2563C31.5764 22.3541 31.0088 21.3071 30.7461 20.2601C31.3349 19.66 31.8687 19.1194 32.3388 18.6555C32.2965 19.6046 32.3219 21.2475 32.8302 22.9371C32.9488 23.3372 32.4236 23.6096 32.1863 23.2606L32.1906 23.2563Z" fill="#D75102"/>
<path d="M13.9591 44.9197C13.1501 43.7791 12.3495 42.5023 11.8454 41.3063C12.2393 40.8254 12.629 40.353 13.0314 39.872C13.1882 40.8382 13.5864 42.6981 14.514 44.7495C14.7258 45.2134 14.2683 45.3581 13.9549 44.9197H13.9591Z" fill="#D75102"/>
<path d="M47.9821 33.2879C47.8762 33.3773 47.7534 33.4794 47.6136 33.5943C46.4106 32.9687 45.2542 31.8791 44.2884 30.8024C43.9538 30.4321 44.3096 29.9469 44.7205 30.215C46.3852 31.3131 48.0753 31.8962 49.092 32.1771C48.7573 32.5729 48.3888 32.9389 47.9821 33.2922V33.2879Z" fill="#D75102"/>
<path d="M35.016 42.6215C34.5076 42.9619 33.9951 43.3067 33.4741 43.6599C32.3092 42.979 31.0977 41.9192 30.0387 40.8765C29.6617 40.5019 29.8693 40.0636 30.2929 40.3487C32.2795 41.6681 34.1476 42.3491 35.0117 42.6215H35.016Z" fill="#D75102"/>
<path d="M15.4925 54.8108C15.0732 55.0449 14.6623 55.2705 14.2556 55.4875C13.5821 54.9513 12.9213 54.3469 12.3113 53.7468C11.9343 53.3723 12.1419 52.9339 12.5655 53.2191C13.6202 53.9213 14.6369 54.4363 15.4925 54.8108Z" fill="#D75102"/>
<path d="M49.7655 18.9577C49.7401 18.9747 49.7146 18.9918 49.6892 19.0088C49.5198 19.1152 49.3376 19.2088 49.1724 19.2301C49.3673 19.7791 49.5156 20.3452 49.6172 20.9198C49.7485 20.9538 49.8756 20.9708 49.9942 20.9708C50.2103 20.9708 50.3966 20.9112 50.5364 20.7921C50.6042 20.7368 50.655 20.6644 50.6974 20.5878C50.439 20.026 50.1255 19.4812 49.7655 18.962" fill="#E15300"/>
<path d="M46.1438 15.6976C45.5761 16.2679 46.0506 17.8128 47.2282 19.2003C48.0118 20.1196 48.9098 20.741 49.613 20.9155C49.5113 20.3409 49.3631 19.7791 49.1682 19.2258C49.147 19.2258 49.1259 19.2258 49.1047 19.2258C49.092 19.2258 49.0793 19.2258 49.0708 19.2258C48.9988 19.2216 48.8971 19.1833 48.7827 19.1237C48.2024 18.8173 47.2493 17.8682 47.8254 16.8467C47.2959 16.4041 46.7325 16.021 46.1438 15.6933" fill="#E96300"/>
<path d="M65.1335 23.2734C64.9852 23.3968 64.82 23.4862 64.6506 23.5032C64.0406 23.567 63.2739 23.2734 63.2739 23.2734C62.4097 23.2393 63.2019 25.0184 61.9861 25.146C60.7662 25.2695 59.8131 23.1329 59.8131 23.1329C59.7242 23.0521 59.7199 23.6479 59.6098 24.2438C59.4997 24.8353 59.2836 25.4269 58.7626 25.3588C57.7248 25.2226 57.3309 24.2267 57.1826 23.899L56.7802 22.7158C56.5726 22.0136 55.9711 23.0052 55.9711 23.0052C55.8525 23.1968 54.9121 23.367 54.7385 22.1966C54.7385 22.1966 54.5013 21.3241 54.5817 19.6685C54.5987 19.3493 54.4038 19.0599 54.1031 18.962L52.4977 18.43C51.7394 18.1789 50.9134 18.2597 50.2145 18.6555C50.0874 18.7279 49.901 18.8768 49.6935 19.0088C49.4901 19.1407 49.2699 19.2471 49.0793 19.2344C49.0072 19.2301 48.9056 19.1918 48.7912 19.1322C48.1812 18.813 47.1731 17.7916 47.9228 16.719C49.1852 14.9144 48.6387 13.361 48.2321 12.3097C48.0923 11.948 47.7746 11.6841 47.3976 11.6075C45.7329 11.2713 44.64 10.4711 44.64 10.4711C44.0131 10.0115 44.3816 9.4454 44.5934 9.36879L45.2542 9.12194C45.4533 9.04533 45.4914 8.78145 45.322 8.65377L44.2588 8.01536C43.975 7.7983 43.0854 7.20671 43.1659 6.15546C43.221 5.45746 44.2884 5.5213 44.9746 5.58514C45.3305 5.61919 45.5804 5.64899 45.5422 5.57663C45.5422 5.57663 43.6615 4.19341 44.0343 3.01874C44.2333 2.38884 44.7755 2.42289 45.2584 2.46119C45.6736 2.49524 46.0463 2.52503 46.1141 2.12922C46.1141 2.12922 45.987 1.31205 46.1734 0.720459C46.2878 0.358693 46.7283 0.0735366 47.118 0.0139516C47.5035 -0.0456334 48.0118 0.0863047 48.2321 0.396998C48.5879 0.899214 48.715 1.72064 48.715 1.72064C48.9056 2.09091 49.2614 1.92493 49.6638 1.75894C50.1044 1.57593 50.5915 1.39717 50.9642 1.92067C51.6759 2.9251 50.3077 4.82331 50.3077 4.82331C50.2865 4.9212 50.6211 4.7467 51.0532 4.5722C51.6801 4.31684 52.5061 4.06147 52.7433 4.64455C53.1415 5.62345 52.4765 6.4619 52.2689 6.75556L51.4514 7.6919C51.3285 7.8664 51.4471 8.10474 51.6547 8.11325L52.3621 8.14304C52.5866 8.15155 53.1076 8.57716 52.6544 9.20706C52.6544 9.20706 51.8792 10.2753 50.4093 11.1053C50.0916 11.284 49.9137 11.6458 49.9646 12.0118L50.3246 14.7357C50.3289 14.9187 50.5491 15.0166 50.6847 14.8932L54.9418 11.1861C53.7939 8.66654 53.7642 6.29165 53.7642 6.29165C53.8447 5.21912 54.7681 5.24892 55.0096 5.44044L55.7763 6.0448C56.005 6.22356 56.3396 6.07885 56.3651 5.78518L56.3396 4.06573C56.382 3.57202 56.4286 2.09517 57.7121 1.43122C58.3856 1.08222 58.9659 1.83555 59.3895 2.58887C59.775 3.2741 60.0291 3.95933 60.1054 3.81888C60.1054 3.81888 60.3511 0.601289 61.9861 0.184194C62.7994 -0.0200969 63.1595 0.537448 63.4475 1.09499C63.7398 1.66105 63.9643 2.22711 64.5235 1.99728C64.5235 1.99728 65.3834 1.25247 66.2009 1.04818C66.705 0.920494 67.3573 1.23544 67.7089 1.64828C68.0605 2.06112 68.268 2.75912 68.069 3.24005C67.9122 3.61459 67.6369 3.98061 67.3912 4.25725C67.1201 4.56369 66.8871 4.76372 66.8871 4.76372C66.2729 5.79369 68.9331 6.00224 68.2807 7.56847C67.6284 9.13896 64.4345 8.89211 64.4345 8.89211C64.1168 9.00702 67.2599 10.4583 66.4085 11.6415C65.5613 12.8205 64.1084 12.6417 63.617 12.6077L61.9353 12.3182C61.6473 12.297 61.4524 12.6119 61.5922 12.8673L62.0666 13.7227C62.2149 13.9951 62.1048 14.9187 61.0415 14.8378C61.0415 14.8378 58.716 14.442 56.4244 12.9141L52.5273 16.1317C52.4511 16.1955 52.4087 16.2721 52.3875 16.353C52.3367 16.5658 52.4595 16.8041 52.7052 16.8552L54.9291 17.3021C55.1324 17.3404 55.3357 17.2638 55.467 17.1063C56.598 15.7146 57.7714 15.3741 57.7714 15.3741C58.4788 15.0549 58.7838 15.655 58.7457 15.8806L58.6313 16.5828C58.6016 16.7914 58.805 16.9574 58.9998 16.8722L60.08 16.2551C60.4061 16.1104 61.355 15.6252 62.2234 16.2211C63.0917 16.8169 61.3042 18.5917 61.5456 18.5917C61.5456 18.5917 63.6636 17.6298 64.4938 18.5364C65.3241 19.4472 63.5577 20.2473 64.227 20.8006C64.227 20.8006 64.9979 21.0943 65.413 21.5497C65.6672 21.8306 65.6968 22.3583 65.557 22.7286C65.4808 22.9329 65.3368 23.1372 65.1589 23.2861" fill="#74A900"/>
<path d="M51.6123 17.5234C50.9388 17.5234 50.367 17.6596 49.8417 18.0001C49.3715 18.3023 49.0284 18.7109 48.7827 19.128C48.8971 19.1875 48.9988 19.2258 49.0708 19.2301C49.0835 19.2301 49.0962 19.2301 49.1047 19.2301C49.2868 19.2301 49.4944 19.128 49.685 19.0045C49.8883 18.8726 50.0789 18.7236 50.206 18.6513C50.6338 18.4087 51.1167 18.2853 51.5996 18.2853C51.9004 18.2853 52.1969 18.3321 52.4892 18.43L54.0946 18.962C54.3826 19.0556 54.5733 19.328 54.5733 19.6302C54.5733 19.6429 54.5733 19.6557 54.5733 19.6685C54.5606 19.9068 54.5563 20.1324 54.5563 20.3367C54.5563 21.5582 54.73 22.1966 54.73 22.1966C54.8401 22.9371 55.2595 23.1414 55.5814 23.1414C55.7678 23.1414 55.9203 23.0733 55.9626 23.0052C55.9626 23.0052 56.2931 22.4647 56.5472 22.4647C56.6362 22.4647 56.7209 22.5328 56.7717 22.7158L57.1741 23.899C57.3224 24.2267 57.7163 25.2226 58.7541 25.3588C58.7796 25.3588 58.8092 25.3631 58.8346 25.3631C59.2963 25.3631 59.4954 24.8013 59.6013 24.2438C59.7072 23.6819 59.7157 23.1244 59.7877 23.1244C59.7919 23.1244 59.7962 23.1244 59.8046 23.1329C59.8046 23.1329 60.7069 25.1545 61.876 25.1545C61.9099 25.1545 61.9438 25.1545 61.9777 25.1503C63.1849 25.0269 62.4182 23.2776 63.24 23.2776C63.2485 23.2776 63.2569 23.2776 63.2654 23.2776C63.2654 23.2776 63.8923 23.516 64.4642 23.516C64.5235 23.516 64.5828 23.516 64.6421 23.5074C64.8115 23.4904 64.981 23.401 65.125 23.2776C63.9008 22.1753 62.647 21.2475 61.7574 20.6687C59.3387 19.0939 57.4029 18.6513 53.9125 17.8596C53.0144 17.6554 52.2647 17.5234 51.6039 17.5234" fill="#628F12"/>
<path d="M67.37 4.253C66.0823 4.4658 64.803 4.98078 63.7525 5.40213C60.8636 6.5683 59.0125 8.51758 55.3103 12.4204C52.2943 15.5997 52.2901 16.2125 52.3579 16.3487C52.3748 16.2679 52.4214 16.187 52.4977 16.1274L56.3947 12.9098C58.6864 14.4378 61.0119 14.8336 61.0119 14.8336C61.0585 14.8336 61.1008 14.8378 61.1432 14.8378C61.8675 14.8378 62.092 14.3271 62.092 13.9781C62.092 13.8717 62.0709 13.7823 62.037 13.7227L61.5626 12.8673C61.5329 12.8077 61.516 12.7481 61.516 12.6885C61.516 12.4927 61.6685 12.3182 61.8803 12.3182C61.8887 12.3182 61.8972 12.3182 61.9057 12.3182L63.5873 12.6077C63.7229 12.6162 63.9262 12.6375 64.1761 12.6375C64.8285 12.6375 65.7646 12.497 66.3788 11.6415C66.4805 11.5011 66.5228 11.3564 66.5271 11.2117C66.5271 10.1945 64.3879 9.12194 64.3837 8.9219C64.3837 8.90913 64.3922 8.90062 64.4049 8.89637C64.4049 8.89637 64.587 8.90913 64.8751 8.90913C65.79 8.90913 67.7555 8.76443 68.2511 7.57273C68.3231 7.39823 68.357 7.24076 68.357 7.09605C68.357 6.08311 66.7685 5.75964 66.7685 5.0659C66.7685 4.97227 66.7982 4.87438 66.8617 4.76372C66.8617 4.76372 67.0947 4.55943 67.3658 4.25725" fill="#628F12"/>
</svg>
