<svg width="77" height="75" viewBox="0 0 77 75" fill="none" xmlns="http://www.w3.org/2000/svg">
<path d="M36.0887 57.0192L34.339 61.6848L32.8317 65.6775L32.724 65.9557L32.3292 67.0054L32.1767 67.4182C31.2974 67.1938 30.5527 66.6376 29.9336 65.8121C28.7851 64.3137 28.0315 61.9181 27.5649 58.9303C26.3447 51.0526 27.1432 39.0834 28.3455 28.7293C28.4621 27.6437 28.5967 26.567 28.7313 25.5262C29.153 22.1795 29.6016 19.084 30.0233 16.4641C30.472 13.584 30.8847 11.2691 31.1718 9.8066C31.3602 8.85553 31.4948 8.26335 31.5486 8.11082C31.6025 7.96726 31.6653 7.83268 31.7371 7.71604C32.4548 6.37915 33.8635 6.27148 33.8635 6.27148L34.0788 7.8237L34.6082 11.5921L34.8594 13.4404L34.9312 13.9339L34.9671 15.2618L35.2453 25.7325L35.3619 30.1111L36.0887 57.0192Z" fill="#DBE0B8"/>
<path d="M61.7407 49.7527L61.6958 49.8066C61.1036 50.8922 60.4486 51.9779 59.7309 53.0097C59.031 54.0415 58.2325 55.0554 57.3891 56.0693C56.9943 56.5269 56.5816 56.9486 56.1419 57.3972C55.7023 57.8189 55.2447 58.2316 54.7512 58.6443C54.2667 59.0212 53.7553 59.4249 53.2438 59.7928C52.203 60.5375 51.0905 61.2284 49.9061 61.8744C49.296 62.1974 48.6679 62.5114 48.0399 62.7985C47.2682 63.1485 46.4787 63.4715 45.6622 63.7676C45.393 63.8663 45.1149 63.965 44.8457 64.0547C44.5676 64.1534 44.2894 64.2431 44.0113 64.3238C43.4281 64.5123 42.8449 64.6738 42.2437 64.8263C41.4093 65.0416 40.5659 65.2211 39.7135 65.3736C39.1752 65.4723 38.6279 65.562 38.0895 65.6338C37.7845 65.6787 37.4884 65.7146 37.1923 65.7415C36.2322 65.8491 35.2632 65.912 34.2942 65.9478H34.2673C33.7559 65.9658 33.2444 65.9658 32.724 65.9478C32.5625 65.9478 32.3921 65.9478 32.2306 65.9478C32.0511 65.9478 31.8627 65.9389 31.6743 65.9299H31.5487C31.2526 65.912 30.9565 65.903 30.6604 65.8761C30.4181 65.8581 30.1759 65.8402 29.9336 65.8133C29.7901 65.8043 29.6465 65.7953 29.503 65.7774C29.0543 65.7325 28.5968 65.6697 28.1481 65.6159C26.0935 65.3198 24.0298 64.8442 22.011 64.1623C21.8944 64.1265 21.7867 64.0816 21.6701 64.0457C21.4368 63.965 21.2035 63.8842 20.9792 63.7945C20.71 63.6958 20.4409 63.5971 20.1807 63.4894L20.082 63.4715C19.2834 63.1574 18.4939 62.8165 17.7402 62.4486C17.3544 62.2423 16.9147 62.0269 16.4841 61.7847C12.294 59.4877 6.85671 55.3694 4.75718 51.4306C4.38931 50.7666 4.07528 50.1116 3.73433 49.4566C-6.2878 28.219 6.38118 12.5533 12.3478 10.8485C13.2809 10.5884 14.3756 10.2923 15.5779 9.99617C15.9816 9.89748 16.4033 9.79878 16.825 9.70009C17.0762 9.64625 17.3185 9.59242 17.5697 9.53858H17.5877C17.9824 9.45783 18.3862 9.36811 18.7989 9.27839C19.2206 9.18866 19.6423 9.10791 20.082 9.02716C20.71 8.91052 21.3561 8.79388 22.0021 8.67724C22.0021 8.66826 22.02 8.66826 22.029 8.67724C22.4597 8.60546 22.8903 8.53368 23.321 8.4619C23.7696 8.39012 24.2272 8.31834 24.6758 8.26451C25.1065 8.21067 25.5372 8.14787 25.9678 8.09403C27.9866 7.85178 29.9606 7.70822 31.7371 7.71719C32.1408 7.71719 32.5266 7.72617 32.9035 7.74411C33.3072 7.76206 33.702 7.78897 34.0789 7.82486C34.366 7.85178 34.6531 7.88767 34.9223 7.93253C35.0299 7.95048 35.1376 7.96842 35.2363 7.98636C35.7657 8.08506 36.2502 8.2017 36.6898 8.35423C37.0218 8.47087 37.3179 8.59649 37.5781 8.74902C37.6678 8.79388 37.7575 8.84771 37.8383 8.89257C37.8921 8.92846 37.946 8.96435 37.9998 9.00024C38.0805 9.05408 38.1703 9.09894 38.26 9.1438C38.4484 9.25147 38.6458 9.34119 38.8522 9.41297C38.9509 9.44886 39.0406 9.48475 39.1393 9.51167C39.4802 9.61934 39.8302 9.69111 40.189 9.74495C40.3147 9.77187 40.4313 9.78084 40.5569 9.78981C41.0235 9.84364 41.499 9.83467 42.0015 9.8257C42.1181 9.8257 42.2258 9.81673 42.3424 9.80776C42.5488 9.79878 42.7551 9.78084 42.9705 9.76289C43.114 9.76289 43.2576 9.74495 43.4012 9.727C43.446 9.727 43.4819 9.71803 43.5268 9.71803C43.7152 9.70009 43.9126 9.67317 44.11 9.65522C44.6035 9.61036 45.1059 9.55653 45.6263 9.51167C45.8416 9.48475 46.057 9.47578 46.2903 9.45783C46.8465 9.41297 47.4208 9.38605 48.0129 9.38605C48.327 9.38605 48.641 9.39503 48.9551 9.41297H48.982C49.296 9.43092 49.619 9.45783 49.942 9.49372C50.1035 9.52064 50.274 9.53858 50.4445 9.5655C50.6149 9.59242 50.7854 9.61934 50.9649 9.65522C51.3507 9.727 51.7455 9.81673 52.1492 9.93337C52.2928 9.96926 52.4363 10.0141 52.5799 10.059C52.6337 10.0769 52.6876 10.0949 52.7504 10.1218C52.8042 10.1308 52.858 10.1487 52.9208 10.1756C53.0644 10.2205 53.208 10.2743 53.3605 10.3371C53.5489 10.4089 53.7463 10.4897 53.9437 10.5704C53.9616 10.5794 53.9796 10.5884 54.0065 10.5973C54.2039 10.687 54.4013 10.7857 54.6076 10.8844C54.7422 10.9562 54.8858 11.028 55.0293 11.1087C55.1011 11.1446 55.1639 11.1805 55.2357 11.2254C55.451 11.342 55.6664 11.4676 55.8817 11.6022H55.8907C56.0791 11.7189 56.2765 11.8445 56.4649 11.9701C56.9853 12.32 57.4967 12.7148 57.9812 13.1455C58.1786 13.3159 58.3671 13.4954 58.5555 13.6838C58.6631 13.7825 58.7708 13.8902 58.8695 13.9978C59.022 14.1504 59.1656 14.3029 59.3092 14.4554C59.354 14.5003 59.3899 14.5452 59.4258 14.59C59.5335 14.7067 59.6411 14.8323 59.7488 14.9579C59.7667 14.9758 59.7757 14.9938 59.7937 15.0117C59.9821 15.2271 60.1615 15.4514 60.332 15.6757C60.4666 15.8462 60.6012 16.0256 60.7358 16.2051C60.7537 16.2409 60.7806 16.2679 60.8075 16.3037C60.9511 16.5191 61.1036 16.7434 61.2562 16.9587C61.2562 16.9767 61.2831 16.9946 61.292 17.0126C61.4805 17.2997 61.6599 17.5958 61.8483 17.8919C66.6486 25.9221 67.6265 38.6988 61.7407 49.7527Z" fill="#82472A"/>
<path d="M61.8483 17.8916C61.1664 18.4209 60.0359 19.058 58.2325 19.7937C56.7879 20.3679 56.2316 21.0139 55.9086 21.7228C55.5318 22.5751 55.4869 23.5172 54.6435 24.5401C53.6565 25.7424 51.5929 27.0434 46.6402 28.47C42.0912 29.7799 38.0446 30.2465 34.68 30.094C33.1726 30.0132 31.8088 29.8158 30.5886 29.5018C26.9099 28.5687 24.604 26.6396 24.1105 24.1991C23.4645 20.9691 19.8307 20.2244 16.6635 17.6852C15.6676 16.8867 14.7165 15.9087 13.9179 14.6256C13.4514 13.8719 13.0386 13.0016 12.6977 12.0057C12.5721 11.6378 12.4554 11.252 12.3478 10.8483C13.7654 10.4266 15.5689 9.96897 17.5697 9.53829H17.5876C17.9824 9.45754 18.3862 9.36782 18.7989 9.27809C19.2206 9.18837 19.6423 9.10762 20.082 9.02687C20.71 8.91023 21.356 8.79359 22.002 8.67695C22.002 8.66797 22.02 8.66797 22.029 8.67695C22.4596 8.60517 22.8903 8.53339 23.321 8.46161C23.7696 8.38983 24.2272 8.31805 24.6758 8.26422C25.1065 8.21038 25.5372 8.14758 25.9678 8.09374C28.4352 7.79765 30.8398 7.64512 32.9035 7.74382C33.6213 7.77074 34.3032 7.83354 34.9222 7.93224C35.0299 7.95018 35.1376 7.96813 35.2363 7.98607C35.7657 8.08477 36.2502 8.20141 36.6898 8.35394C37.1295 8.50647 37.5063 8.68592 37.8383 8.90125C37.8921 8.93714 37.9459 8.97303 37.9998 8.99995C38.0805 9.05378 38.1702 9.09865 38.26 9.14351C38.4484 9.25118 38.6458 9.3409 38.8521 9.41268C38.9508 9.44857 39.0406 9.48446 39.1393 9.51138C39.4802 9.62802 39.8301 9.69979 40.189 9.74466C40.3146 9.77157 40.4313 9.78055 40.5569 9.78952C41.0235 9.84335 41.499 9.83438 42.0014 9.82541C42.1181 9.82541 42.2258 9.81644 42.3424 9.80746C42.5488 9.79849 42.7551 9.78055 42.9705 9.7626C43.5806 9.71774 44.2087 9.65493 44.8547 9.58315C45.1059 9.55624 45.3571 9.52932 45.6173 9.51138C45.8685 9.48446 46.1287 9.46651 46.3979 9.44857C46.6581 9.43062 46.9273 9.41268 47.1964 9.40371C48.0757 9.36782 48.9909 9.38576 49.942 9.49343C50.1035 9.52035 50.274 9.53829 50.4444 9.56521C50.6149 9.59213 50.7854 9.61904 50.9648 9.65493C52.5171 9.95102 54.159 10.5342 55.8817 11.6019C55.8817 11.6019 55.8907 11.593 55.8907 11.6019C56.0881 11.7275 56.2765 11.8532 56.4649 11.9788C56.9853 12.3287 57.4967 12.7235 57.9812 13.1452C59.4437 14.4372 60.7447 16.0522 61.8483 17.8916Z" fill="#EBD399"/>
<g style="mix-blend-mode:multiply" opacity="0.21">
<path d="M61.7405 49.7524L61.6957 49.8062C61.1035 50.8919 60.4485 51.9776 59.7307 53.0094C59.0309 54.0412 58.2324 55.0551 57.3889 56.069C56.9942 56.5266 56.5814 56.9483 56.1418 57.3969C55.7021 57.8186 55.2446 58.2313 54.7511 58.644C54.2666 59.0209 53.7551 59.4246 53.2437 59.7925C52.2029 60.5372 51.0903 61.2281 49.906 61.8741C49.2959 62.1971 48.6678 62.5111 48.0397 62.7982C47.2681 63.1482 46.4786 63.4712 45.6621 63.7673C45.3929 63.8659 45.1148 63.9646 44.8456 64.0544C44.5674 64.1531 44.2893 64.2428 44.0112 64.3235C43.4279 64.512 42.8447 64.6735 42.2436 64.826C41.4092 65.0413 40.5658 65.2208 39.7134 65.3733C39.175 65.472 38.6277 65.5617 38.0894 65.6335C37.7843 65.6784 37.4882 65.7143 37.1922 65.7412C36.2321 65.8488 35.2631 65.9116 34.2941 65.9475H34.2672C33.7557 65.9655 33.2443 65.9655 32.7239 65.9475C32.5624 65.9475 32.3919 65.9475 32.2304 65.9475C32.051 65.9475 31.8626 65.9386 31.6742 65.9296H31.5485C31.2525 65.9117 30.9564 65.9027 30.6603 65.8758C30.418 65.8578 30.1758 65.8399 29.9335 65.813C29.79 65.804 29.6464 65.795 29.5028 65.7771C29.0542 65.7322 28.5966 65.6694 28.148 65.6156C26.0933 65.3195 24.0297 64.8439 22.0109 64.162C21.8943 64.1261 21.7866 64.0813 21.67 64.0454C21.4367 63.9646 21.2034 63.8839 20.9791 63.7942C20.7099 63.6955 20.4408 63.5968 20.1806 63.4891L20.0819 63.4712C19.2833 63.1571 18.4937 62.8162 17.7401 62.4483C17.3543 62.2419 16.9146 62.0266 16.4839 61.7844C12.2938 59.4874 6.85659 55.3691 4.75706 51.4302C4.38919 50.7663 4.07516 50.1113 3.73421 49.4563C2.9895 38.519 9.91617 27.5548 12.0247 22.0547C13.0385 19.372 14.7523 18.0441 16.6634 17.6852C20.1806 17.0123 24.3348 19.6501 25.8959 23.2929C26.3715 24.3965 27.3943 25.1143 28.7312 25.527C29.5477 25.7783 30.4808 25.9039 31.4857 25.9487C32.5086 25.9936 33.6122 25.9398 34.7248 25.8052C34.8952 25.7872 35.0657 25.7603 35.2452 25.7334C40.0813 25.0335 45.043 22.8981 45.5813 21.0139C46.3081 18.3491 42.4859 12.535 40.5568 9.7895C41.0234 9.84333 41.4989 9.83436 42.0013 9.82539C42.118 9.82539 42.2257 9.81642 42.3423 9.80744C42.5487 9.79847 42.755 9.78053 42.9704 9.76258C43.1139 9.76258 43.2575 9.74464 43.401 9.72669C43.4459 9.72669 43.4818 9.71772 43.5266 9.71772C43.7151 9.69977 43.9125 9.67286 44.1098 9.65491C44.6033 9.61005 45.1058 9.55622 45.6262 9.51136C45.8415 9.48444 46.0569 9.47547 46.2901 9.45752C46.8464 9.41266 47.4207 9.38574 48.0128 9.38574C48.3269 9.38574 48.6409 9.39471 48.9549 9.41266H48.9818C49.2959 9.4306 49.6189 9.45752 49.9419 9.49341C50.1034 9.52033 50.2739 9.53827 50.4443 9.56519C50.6148 9.59211 50.7853 9.61902 50.9647 9.65491C51.3505 9.72669 51.7453 9.81642 52.1491 9.93306C52.2926 9.96895 52.4362 10.0138 52.5798 10.0587C52.6336 10.0766 52.6874 10.0946 52.7502 10.1215C52.8041 10.1304 52.8579 10.1484 52.9207 10.1753C53.0643 10.2202 53.2078 10.274 53.3604 10.3368C53.5488 10.4086 53.7462 10.4893 53.9436 10.5701C53.9615 10.5791 53.9794 10.588 54.0064 10.597C54.2038 10.6867 54.4012 10.7854 54.6075 10.8841C54.7421 10.9559 54.8857 11.0277 55.0292 11.1084C55.101 11.1443 55.1638 11.1802 55.2356 11.2251C55.4509 11.3417 55.6663 11.4673 55.8816 11.6019H55.8906C56.079 11.7186 56.2764 11.8442 56.4648 11.9698C56.9852 12.3197 57.4966 12.7145 57.9811 13.1452C58.1785 13.3156 58.3669 13.4951 58.5554 13.6835C58.663 13.7822 58.7707 13.8899 58.8694 13.9975C59.0219 14.1501 59.1655 14.3026 59.309 14.4551C59.3539 14.5 59.3898 14.5449 59.4257 14.5897C59.5333 14.7064 59.641 14.832 59.7487 14.9576C59.7666 14.9755 59.7756 14.9935 59.7935 15.0114C59.982 15.2268 60.1614 15.4511 60.3319 15.6754C60.4665 15.8458 60.6011 16.0253 60.7356 16.2047C60.7536 16.2406 60.7805 16.2675 60.8074 16.3034C60.951 16.5188 61.1035 16.7431 61.256 16.9584C61.256 16.9764 61.283 16.9943 61.2919 17.0123C61.4803 17.2994 61.6598 17.5955 61.8482 17.8915C66.6484 25.9218 67.6264 38.6985 61.7405 49.7524Z" fill="#A19EB3"/>
</g>
<g style="mix-blend-mode:soft-light" opacity="0.4">
<path d="M11.7376 12.4457C12.8233 11.8356 19.086 9.36816 20.1268 12.6072C21.1676 15.8462 15.5688 11.9163 11.5492 16.3038C2.44226 26.2362 5.9684 34.437 4.54179 34.7869C3.11519 35.1368 2.12823 28.7933 3.85092 24.4687C5.57361 20.135 8.0141 14.5362 11.7376 12.4457Z" fill="#FFF8E6"/>
</g>
<g style="mix-blend-mode:soft-light" opacity="0.4">
<path d="M30.1938 9.77132C28.4532 9.77132 25.1872 8.63183 23.5184 10.0315C21.8495 11.4312 21.9572 13.1898 23.0518 14.2306C24.1464 15.2714 26.8292 14.6702 28.6057 15.7559C30.3822 16.8415 33.2175 17.5683 34.2762 16.052C35.335 14.5356 36.5821 14.6523 35.2453 12.5169C33.9084 10.3814 33.0291 9.75337 30.1938 9.76234V9.77132Z" fill="#FFF8E6"/>
</g>
<g style="mix-blend-mode:multiply" opacity="0.21">
<path d="M34.9222 7.93158L34.8774 11.9691L34.8594 13.4406L34.8415 15.3966L34.7248 25.8045L34.68 30.0933L34.3749 58.3114L34.339 61.685L34.3211 62.8245L34.2942 65.9469H34.2672C33.8904 65.9469 33.2892 65.7495 32.8317 65.6777C32.4548 65.6149 32.1856 65.6418 32.2305 65.9469C32.2933 66.3327 32.3292 66.6826 32.3292 67.0056L32.1767 67.4184C31.2974 67.1941 30.5527 66.6378 29.9336 65.8123C29.79 65.8033 29.6465 65.7944 29.5029 65.7764C29.0543 65.7316 28.5967 65.6688 28.1481 65.6149C26.0934 65.3188 24.0298 64.8433 22.011 64.1614C23.8055 63.309 25.9768 61.7927 27.5649 58.9305C29.0812 56.2119 30.0682 52.273 29.7003 46.5397C29.5747 44.5657 28.2916 43.9377 28.8659 38.9042C28.9556 38.1236 29.7811 33.1978 30.5886 29.5011C30.9116 27.9848 31.2346 26.6838 31.4858 25.9481C31.5755 25.6789 31.6563 25.4905 31.7281 25.3918C32.1677 24.7817 32.6971 20.5378 33.0649 16.8411C33.2982 14.4814 33.4597 12.346 33.4866 11.5295C33.4956 11.1616 33.4866 10.8027 33.4687 10.4618C33.3521 8.88265 32.9034 7.74316 32.9034 7.74316C33.3072 7.76111 33.702 7.78803 34.0788 7.82392C34.3659 7.85083 34.653 7.88672 34.9222 7.93158Z" fill="#433C6E"/>
</g>
<path d="M75.4594 49.9133L75.4774 49.9222L68.784 49.5185C67.9316 51.313 66.8908 53.0177 65.6885 54.6327L68.3892 62.1516L68.3982 62.1605V62.1785C68.3982 62.1785 68.4161 62.2054 68.4251 62.2144L68.5058 62.4566L62.1444 58.5985C61.0947 59.5944 59.9731 60.5186 58.7977 61.38C58.7977 61.38 59.0041 63.1026 58.8516 64.7266C58.7708 65.579 58.2953 66.7185 57.8556 67.6157C57.8287 67.6786 57.8018 67.7324 57.7749 67.7862C57.7121 67.9029 57.6582 68.0195 57.5954 68.1272C57.5596 68.1989 57.5237 68.2707 57.4878 68.3335C57.4609 68.3784 57.4429 68.4143 57.425 68.4502C57.398 68.504 57.3711 68.5578 57.3442 68.5937C57.2635 68.7373 57.2007 68.845 57.1648 68.9167C57.1468 68.9526 57.1378 68.9706 57.1199 68.9885V68.7104C57.1289 68.4861 57.1289 68.1272 57.1109 67.7234C57.1109 67.4901 57.084 67.2389 57.0661 66.9877C57.0391 66.6198 56.9943 66.2519 56.9135 65.902C56.8956 65.7944 56.8687 65.6867 56.8418 65.588C56.8148 65.4893 56.7879 65.3996 56.761 65.3098C56.7251 65.2022 56.6892 65.1035 56.6444 65.0138C56.0342 63.6589 55.0563 63.7307 55.0563 63.7307C54.5359 64.0089 54.0065 64.278 53.4771 64.5203C52.8042 64.8523 52.1133 65.1483 51.4135 65.4355C51.0007 65.6059 50.5701 65.7585 50.1484 65.911C50.1484 65.911 50.1484 65.911 50.1843 65.9379C50.1932 65.9379 50.2022 65.9469 50.2112 65.9648C50.2291 65.9738 50.2381 65.9828 50.2471 66.0007C50.265 66.0187 50.274 66.0366 50.2919 66.0635C50.3099 66.0815 50.3278 66.1084 50.3368 66.1353C50.3996 66.2519 50.4534 66.4404 50.5073 66.7095C50.579 67.1133 50.6329 67.7055 50.6149 68.6027C50.5701 71.1867 48.0847 74.4078 48.0847 74.4078C48.0847 74.4078 46.9183 69.814 46.2005 68.5489C46.1646 68.4861 46.1198 68.4233 46.0839 68.3605C46.0031 68.2528 45.9224 68.1451 45.8327 68.0554C45.6173 67.8311 45.393 67.6875 45.1777 67.5888C45.0969 67.5529 45.0162 67.526 44.9354 67.4991C44.5676 67.3914 44.2984 67.4184 44.2984 67.4184C43.6793 67.526 43.0512 67.6157 42.4232 67.6875C41.7951 67.7593 41.167 67.8131 40.53 67.858L34.671 74.9641H34.6621L34.6441 75C34.6441 75 34.68 74.9103 34.7428 74.7398C34.7608 74.686 34.7787 74.6232 34.8056 74.5514C34.8146 74.5424 34.8236 74.5245 34.8236 74.5065C34.8325 74.4975 34.8325 74.4796 34.8325 74.4617C34.8505 74.4168 34.8684 74.363 34.8864 74.3091C34.8954 74.2912 34.9043 74.2732 34.9043 74.2463C34.9312 74.1566 34.9582 74.0579 34.994 73.9502C35.003 73.9323 35.003 73.9143 35.012 73.8964C35.012 73.8515 35.0389 73.8067 35.0479 73.7618C35.0569 73.7349 35.0658 73.708 35.0658 73.69C35.1107 73.5196 35.1556 73.3401 35.2004 73.1517C35.2812 72.7928 35.3529 72.416 35.3978 72.0212C35.3978 72.0122 35.3978 72.0032 35.4068 71.9943V71.9404C35.4068 71.8597 35.4247 71.7879 35.4337 71.7071V71.6802C35.4337 71.6802 35.4427 71.6623 35.4427 71.6533C35.4696 71.3124 35.4786 70.9714 35.4606 70.6394C35.3529 68.5489 34.6441 67.7503 34.6441 67.7503C34.348 67.7234 34.0609 67.6875 33.7648 67.6516C33.2355 67.5799 32.7061 67.5081 32.1767 67.4184C32.0332 65.5072 31.773 62.1067 31.4859 58.3922C31.2257 55.0544 30.9385 51.4655 30.6873 48.4687C30.4181 45.3194 30.1938 42.8161 30.0682 41.9368C29.7542 39.6668 31.7012 30.0843 32.9035 22.1797C33.3611 19.1201 33.72 16.3207 33.7828 14.284C33.8276 12.8395 33.8635 11.5744 33.8725 10.4618C33.8815 9.77988 33.8904 9.15181 33.8904 8.58655C33.8904 7.6624 33.8815 6.89078 33.8635 6.27168C34.2224 6.22682 34.5813 6.19093 34.9402 6.15504C34.9402 6.15504 37.0577 5.00658 37.7845 3.61586C38.5292 2.22515 38.7176 0 38.7176 0L42.0732 6.20888C42.2706 6.23579 42.477 6.25374 42.6744 6.28066C43.2666 6.34346 43.8677 6.43319 44.4419 6.53188L49.8702 1.91111L51.0546 8.36224C51.7813 8.64039 52.4902 8.94545 53.19 9.27743C53.3425 9.34023 53.4771 9.40304 53.6297 9.47482C53.6297 9.47482 56.2406 8.9275 58.0261 7.91363C58.3671 7.72521 58.7349 7.46501 59.1118 7.17789C59.3361 7.00742 59.5694 6.819 59.7937 6.63058C59.9462 6.50496 60.0987 6.37038 60.2423 6.23579C60.3679 6.12813 60.4845 6.02046 60.6012 5.91279C60.6819 5.84101 60.7627 5.76923 60.8434 5.69745C60.996 5.55389 61.1395 5.41034 61.2831 5.28472C61.4446 5.13219 61.5971 4.98864 61.7407 4.84508L61.974 4.6118C62.0457 4.54002 62.1175 4.47721 62.1803 4.40543L62.4585 4.12729C62.5033 4.06448 62.5302 4.03756 62.5302 4.03756V4.06448C62.5302 4.06448 62.5123 4.10037 62.5033 4.11832L59.5514 13.0997C59.6322 13.1714 59.7219 13.2432 59.8026 13.306C59.9552 13.4227 60.1077 13.5483 60.2602 13.6739C60.4935 13.8623 60.7268 14.0597 60.9511 14.2571L68.0931 13.7098C68.0931 13.7098 68.0841 13.7098 68.0752 13.7187H68.0662C68.0662 13.7187 67.9854 13.7457 67.9137 13.7726C67.8419 13.7995 67.7432 13.8354 67.6355 13.8802H67.6265C67.5727 13.9072 67.5099 13.9341 67.4471 13.961C67.3843 13.9789 67.3125 14.0148 67.2318 14.0597C67.1869 14.0776 67.151 14.0956 67.1061 14.1225C67.0074 14.1674 66.8998 14.2302 66.7921 14.293C66.7473 14.3109 66.7114 14.3378 66.6665 14.3558C66.6486 14.3737 66.6306 14.3827 66.6127 14.3917C66.2448 14.607 65.8231 14.8852 65.3745 15.244C64.5221 15.917 64.226 17.5051 64.226 17.5051C64.54 17.855 64.8361 18.2229 65.1322 18.5907C65.3655 18.8779 65.5898 19.1739 65.8051 19.47C66.3525 20.2058 66.8639 20.9684 67.3305 21.749C67.6086 22.1976 67.8778 22.6552 68.129 23.1218C68.2815 23.3999 68.4341 23.696 68.5776 23.9831C68.5776 23.9831 68.5776 23.9921 68.5866 23.9831C68.6045 23.9742 68.6584 23.9562 68.7301 23.9293C68.7571 23.9203 68.784 23.9114 68.8109 23.9024C68.8737 23.8844 68.9455 23.8575 69.0262 23.8396C69.1518 23.8127 69.2864 23.7768 69.4479 23.7409C69.5556 23.7229 69.6722 23.696 69.7889 23.6781C70.3093 23.6063 70.9463 23.5883 71.6282 23.7319C71.9333 23.7947 72.2473 23.8755 72.5524 23.9652C72.7587 24.019 72.9651 24.0818 73.1625 24.1446C73.3689 24.2074 73.5573 24.2702 73.7367 24.3331C74.5622 24.6112 75.1723 24.8624 75.1723 24.8624C75.1723 24.8624 75.0826 24.8804 74.9211 24.9342C74.625 25.006 74.1136 25.1495 73.5483 25.338C73.4945 25.3559 73.4317 25.3738 73.3778 25.3918C73.3419 25.4097 73.2971 25.4187 73.2612 25.4367C73.1625 25.4636 73.0638 25.4995 72.9651 25.5443C72.7677 25.6071 72.5793 25.6879 72.3909 25.7686C72.3011 25.8045 72.2114 25.8404 72.1217 25.8853C71.9512 25.966 71.7897 26.0468 71.6551 26.1365C70.5426 26.8094 70.4439 28.7026 70.4439 28.7026C70.5605 29.0974 70.6682 29.4922 70.7758 29.9049C70.8656 30.2458 70.9373 30.5778 71.0091 30.9098C71.2334 31.9237 71.3949 32.9555 71.5026 34.0053C71.5026 34.0053 72.6421 35.2255 73.3778 35.6023C74.1225 35.9702 75.8811 35.8177 75.8811 35.8177C75.8811 35.8177 75.271 37.4955 73.7188 38.1326C73.5932 38.1864 73.4676 38.2312 73.3509 38.2671C73.2612 38.2941 73.1804 38.321 73.0997 38.3389C73.001 38.3658 72.9113 38.3838 72.8215 38.3928C72.7857 38.3928 72.7587 38.3928 72.7318 38.4017C72.7139 38.4107 72.6959 38.4107 72.678 38.4017C72.5255 38.4197 72.3909 38.4107 72.2742 38.4017C72.1935 38.3928 72.1307 38.3838 72.0679 38.3658C71.8077 38.303 71.6731 38.1774 71.6372 38.1415L71.6282 38.1236C71.6103 38.5004 71.5923 38.8773 71.5654 39.2541C71.359 41.8651 70.8028 44.3953 69.9414 46.7909L75.4684 49.9133H75.4594Z" fill="#96BD0B"/>
<g style="mix-blend-mode:multiply" opacity="0.15">
<path d="M75.4594 49.9132L75.4774 49.9222L68.784 49.5185C67.9316 51.3129 66.8908 53.0177 65.6885 54.6327L68.3802 62.1336C68.3802 62.1336 68.3802 62.1336 68.3802 62.1515C68.3892 62.1515 68.3892 62.1605 68.3892 62.1605V62.1785L68.4969 62.4566L62.1355 58.5985C61.0857 59.5944 59.9641 60.5186 58.7888 61.3799C58.7888 61.3799 58.9951 63.1026 58.8426 64.7266C58.7619 65.579 58.2863 66.7185 57.8467 67.6157C57.8198 67.6785 57.7928 67.7324 57.7659 67.7862C57.739 67.8221 57.7211 67.858 57.7031 67.8939C57.6672 67.9746 57.6224 68.0554 57.5865 68.1271C57.5506 68.1989 57.5147 68.2707 57.4788 68.3335C57.4519 68.3784 57.4339 68.4143 57.416 68.4501C57.3891 68.504 57.3622 68.5578 57.3352 68.5937C57.2545 68.7373 57.1917 68.8449 57.1558 68.9167C57.1379 68.9347 57.1289 68.9616 57.1199 68.9705H57.1109V68.9885H57.102C57.102 68.9885 57.102 68.9347 57.1109 68.827V68.7103C57.1199 68.486 57.1199 68.1271 57.102 67.7234C57.102 67.4901 57.075 67.2389 57.0571 66.9877C57.0302 66.6198 56.9853 66.2519 56.9046 65.902C56.8866 65.7943 56.8597 65.6867 56.8328 65.588C56.8059 65.4893 56.779 65.3995 56.752 65.3098C56.7162 65.2022 56.6803 65.1035 56.6354 65.0137C56.0253 63.6589 55.0473 63.7307 55.0473 63.7307C54.5269 64.0088 53.9975 64.278 53.4682 64.5203C52.7952 64.8522 52.1044 65.1483 51.4045 65.4354C50.9918 65.6059 50.5611 65.7584 50.1394 65.911C50.1394 65.911 50.1394 65.911 50.1753 65.9379C50.1843 65.9379 50.1932 65.9469 50.2022 65.9648C50.2202 65.9738 50.2291 65.9827 50.2381 66.0007C50.256 66.0186 50.265 66.0366 50.283 66.0635C50.3009 66.0814 50.3189 66.1084 50.3278 66.1353C50.3906 66.2519 50.4445 66.4403 50.4983 66.7095C50.5701 67.1133 50.6239 67.7054 50.606 68.6027C50.5611 71.1867 48.0758 74.4078 48.0758 74.4078C48.0758 74.4078 46.9094 69.8139 46.1916 68.5488C46.1557 68.486 46.1108 68.4232 46.0749 68.3604C45.9942 68.2528 45.9134 68.1451 45.8237 68.0554C45.6084 67.8311 45.3841 67.6875 45.1687 67.5888C45.088 67.5529 45.0072 67.526 44.9265 67.4991C44.5586 67.3914 44.2894 67.4183 44.2894 67.4183C43.6703 67.526 43.0423 67.6157 42.4142 67.6875C41.7861 67.7593 41.1581 67.8131 40.5121 67.849L34.6621 74.9641C34.6621 74.9641 34.6621 74.9282 34.68 74.9102C34.698 74.8744 34.7159 74.8205 34.7339 74.7577V74.7398C34.7339 74.7398 34.7518 74.7039 34.7608 74.6859C34.7697 74.65 34.7877 74.6052 34.7967 74.5514C34.8056 74.5424 34.8146 74.5244 34.8146 74.5065C34.8236 74.4975 34.8236 74.4796 34.8236 74.4616C34.8415 74.4257 34.8505 74.3899 34.8684 74.354C34.8684 74.345 34.8774 74.327 34.8774 74.3091C34.8864 74.2912 34.8954 74.2732 34.8954 74.2463C34.9133 74.2194 34.9223 74.1925 34.9312 74.1566C34.9492 74.0848 34.9671 74.022 34.9851 73.9502C34.9941 73.9323 34.9941 73.9143 35.003 73.8964C35.003 73.8515 35.0299 73.8066 35.0389 73.7618C35.0479 73.7349 35.0569 73.708 35.0569 73.69C35.1017 73.5195 35.1466 73.3401 35.1914 73.1517C35.2722 72.7928 35.344 72.4159 35.3888 72.0211C35.3888 72.0122 35.3888 72.0032 35.3978 71.9942C35.3978 71.8955 35.4158 71.8058 35.4247 71.7071V71.6802C35.4247 71.6802 35.4337 71.6623 35.4337 71.6533C35.4606 71.3123 35.4696 70.9714 35.4516 70.6394C35.344 68.5488 34.6352 67.7503 34.6352 67.7503C34.3391 67.7234 34.052 67.6875 33.7559 67.6516C33.2265 67.5798 32.6971 67.508 32.1678 67.4183C32.0242 65.5072 31.764 62.1067 31.4769 58.3921C31.2167 55.0544 30.9296 51.4655 30.6783 48.4687C32.2485 48.4149 33.8456 48.2444 35.4337 47.9303C35.658 47.3292 35.8823 46.5396 35.8823 45.7142C35.8644 43.9376 36.1874 41.3626 36.2681 40.7614C36.2771 40.6807 36.2861 40.6358 36.2861 40.6358C36.2861 40.6358 36.3399 40.7076 36.4296 40.8332C37.1115 41.8291 40.2878 46.3871 40.862 46.2884C40.871 46.2794 40.8799 46.2794 40.8799 46.2794C46.1826 44.0543 50.2381 41.4074 53.0016 38.1415C53.5758 38.0787 54.3205 38.0518 55.155 38.1146C57.0302 38.2851 60.4128 38.3299 60.4128 38.3299C60.4128 38.3299 57.9454 37.3071 56.3842 36.0061C55.9625 35.6382 55.5946 35.1716 55.3075 34.6871C56.9853 31.3853 57.6044 27.5362 57.1109 22.9961C57.3891 22.7359 57.7928 22.386 58.3401 22.063C59.3092 21.4888 60.978 20.3224 60.978 20.3224C60.978 20.3224 59.4258 20.6992 58.1966 20.6005C57.6403 20.5646 57.0661 20.2955 56.6623 20.0712C56.0163 16.8142 54.8589 13.2342 53.181 9.2774C53.3336 9.3402 53.4682 9.40301 53.6207 9.47479C53.6207 9.47479 56.2316 8.92747 58.0171 7.9136C58.3581 7.72518 58.726 7.46498 59.1028 7.17786C59.3271 7.00739 59.5604 6.81897 59.7847 6.63055C59.9372 6.50494 60.0898 6.37035 60.2333 6.23577C60.3589 6.1281 60.4756 6.02043 60.5922 5.91276C60.673 5.84098 60.7537 5.7692 60.8345 5.69742C60.987 5.55387 61.1395 5.41928 61.2741 5.28469C61.4356 5.13216 61.5881 4.98861 61.7317 4.84505L61.965 4.61177C62.0368 4.53999 62.1085 4.47718 62.1714 4.4054L62.4495 4.12726C62.4495 4.12726 62.4944 4.07343 62.5123 4.06445C62.5123 4.0824 62.5033 4.10034 62.4944 4.11829L59.5424 13.0996C59.6322 13.1624 59.7129 13.2342 59.7937 13.306C59.9462 13.4226 60.0987 13.5482 60.2513 13.6739C60.4845 13.8623 60.7178 14.0597 60.9421 14.2571L68.0572 13.7187H68.0841C68.0841 13.7187 68.0213 13.7367 67.9047 13.7726C67.8329 13.7995 67.7342 13.8354 67.6266 13.8802H67.6176C67.5637 13.9071 67.5009 13.9341 67.4381 13.961C67.3664 13.9879 67.2946 14.0238 67.2228 14.0597C67.1779 14.0776 67.142 14.0956 67.0972 14.1225C67.0613 14.1404 67.0254 14.1584 66.9805 14.1763H66.9716C66.8729 14.2301 66.7652 14.2929 66.6575 14.3558C66.6396 14.3558 66.6216 14.3737 66.6037 14.3916C66.2358 14.607 65.8141 14.8851 65.3655 15.244C64.5131 15.9169 64.217 17.5051 64.217 17.5051C64.5311 17.855 64.8272 18.2228 65.1233 18.5907C65.3565 18.8778 65.5809 19.1739 65.7962 19.47C66.3435 20.2057 66.8549 20.9684 67.3215 21.749C67.5996 22.1976 67.8688 22.6552 68.12 23.1218C68.2726 23.3999 68.4251 23.696 68.5686 23.9831H68.5776C68.5776 23.9831 68.6494 23.9472 68.7212 23.9293C68.7481 23.9203 68.775 23.9113 68.8019 23.9024C68.8647 23.8844 68.9365 23.8575 69.0173 23.8395C69.1339 23.8037 69.2775 23.7678 69.439 23.7408C69.5466 23.7229 69.6633 23.696 69.7799 23.678C70.3003 23.6063 70.9374 23.5883 71.6193 23.7319C71.9243 23.7947 72.2383 23.8754 72.5434 23.9652C72.7498 24.019 72.9561 24.0818 73.1535 24.1446C73.3599 24.2074 73.5483 24.2702 73.7278 24.333C74.5532 24.6112 75.1633 24.8624 75.1633 24.8624C75.1633 24.8624 75.0736 24.8803 74.9121 24.9342C74.616 25.006 74.1046 25.1495 73.5393 25.3379C73.4855 25.3559 73.4227 25.3738 73.3689 25.3918C73.333 25.4097 73.2881 25.4187 73.2522 25.4366C73.1535 25.4635 73.0548 25.4994 72.9561 25.5443C72.7587 25.6071 72.5703 25.6879 72.3819 25.7686C72.2922 25.8045 72.2025 25.8404 72.1127 25.8852C71.9423 25.966 71.7808 26.0467 71.6462 26.1365C70.5336 26.8094 70.4349 28.7026 70.4349 28.7026C70.5515 29.0974 70.6592 29.4921 70.7579 29.8959C70.8476 30.2368 70.9284 30.5778 71.0002 30.9098C71.2245 31.9236 71.386 32.9555 71.4936 34.0052C71.4936 34.0052 72.6331 35.2255 73.3689 35.6023C74.1136 35.9702 75.8722 35.8177 75.8722 35.8177C75.8722 35.8177 75.262 37.4955 73.7098 38.1325C73.5842 38.1864 73.4586 38.2312 73.3419 38.2671C73.2522 38.294 73.1715 38.3209 73.0907 38.3389C72.992 38.3658 72.9023 38.3838 72.8126 38.3927C72.7767 38.4017 72.7498 38.4017 72.7229 38.4017C72.6959 38.4107 72.678 38.4107 72.66 38.4107C72.5075 38.4286 72.3729 38.4107 72.2653 38.4017C72.1845 38.4017 72.1217 38.3837 72.0589 38.3658C71.7987 38.303 71.6641 38.1774 71.6282 38.1415C71.6103 38.5094 71.5923 38.8862 71.5564 39.2541C71.3501 41.865 70.7938 44.3952 69.9324 46.7909L75.4594 49.9132Z" fill="#6990E0"/>
</g>
<g style="mix-blend-mode:multiply" opacity="0.15">
<path d="M75.4595 49.9136L75.4774 49.9226L68.784 49.5189C67.9317 51.3133 66.8909 53.0181 65.6886 54.6331L68.3803 62.134C68.3803 62.134 68.3803 62.134 68.3803 62.1519C68.3892 62.1519 68.3892 62.1609 68.3892 62.1609V62.1789L68.4969 62.457L62.1355 58.5989C61.0857 59.5948 59.9642 60.519 58.7888 61.3803C58.7888 61.3803 58.9952 63.103 58.8426 64.727C58.7619 65.5794 58.2864 66.7189 57.8467 67.6161C57.8018 67.7148 57.748 67.8045 57.7031 67.8943C57.6673 67.975 57.6224 68.0558 57.5865 68.1275C57.5506 68.1993 57.5147 68.2711 57.4788 68.3339C57.4519 68.3788 57.434 68.4147 57.416 68.4506C57.3891 68.5044 57.3622 68.5582 57.3353 68.5941C57.2545 68.7377 57.1917 68.8453 57.1558 68.9171C57.1379 68.9351 57.1289 68.962 57.1199 68.971H57.111V68.9889H57.102C57.102 68.9889 57.102 68.9351 57.111 68.8274V68.7108C57.1199 68.4864 57.1199 68.1276 57.102 67.7238C57.102 67.4905 57.0751 67.2393 57.0571 66.9881C57.0302 66.6202 56.9854 66.2523 56.9046 65.9024C56.8867 65.7947 56.8597 65.6871 56.8328 65.5884C56.8059 65.4897 56.779 65.3999 56.7521 65.3102C56.7162 65.2026 56.6803 65.1039 56.6354 65.0141C56.0253 63.6593 55.0473 63.7311 55.0473 63.7311C54.5269 64.0092 53.9976 64.2784 53.4682 64.5207C52.7953 64.8526 52.1044 65.1487 51.4046 65.4358C50.9918 65.6063 50.5611 65.7588 50.1394 65.9114C50.1394 65.9114 50.1394 65.9114 50.1753 65.9383C50.1843 65.9383 50.1933 65.9473 50.2023 65.9652C50.2202 65.9742 50.2292 65.9832 50.2381 66.0011C50.2561 66.019 50.2651 66.037 50.283 66.0639C50.301 66.0818 50.3189 66.1088 50.3279 66.1357C50.3907 66.2523 50.4445 66.4407 50.4983 66.7099C50.5701 67.1137 50.624 67.7058 50.606 68.6031C50.5611 71.1871 48.0758 74.4082 48.0758 74.4082C48.0758 74.4082 46.9094 69.8144 46.1916 68.5493C46.1557 68.4864 46.1109 68.4236 46.075 68.3608C45.9942 68.2532 45.9135 68.1455 45.8237 68.0558C45.6084 67.8315 45.3841 67.6879 45.1688 67.5892C45.088 67.5533 45.0073 67.5264 44.9265 67.4995C44.5586 67.3918 44.2895 67.4187 44.2895 67.4187C43.6704 67.5264 43.0423 67.6161 42.4142 67.6879C41.7862 67.7597 41.1581 67.8135 40.5121 67.8494L34.6621 74.9645C34.6621 74.9645 34.6621 74.9286 34.6801 74.9107C34.698 74.8748 34.716 74.8209 34.7339 74.7581V74.7402C34.7339 74.7402 34.7518 74.7043 34.7608 74.6863C34.7698 74.6505 34.7877 74.6056 34.7967 74.5518C34.8057 74.5428 34.8146 74.5248 34.8146 74.5069C34.8326 74.462 34.8505 74.4082 34.8685 74.3544C34.8685 74.3454 34.8775 74.3275 34.8775 74.3095C34.8864 74.2916 34.8954 74.2736 34.8954 74.2467C34.9133 74.2198 34.9223 74.1929 34.9313 74.157C34.9492 74.0852 34.9672 74.0224 34.9851 73.9506C34.9941 73.9327 34.9941 73.9147 35.0031 73.8968C35.0031 73.8519 35.03 73.8071 35.039 73.7622C35.0479 73.7353 35.0569 73.7084 35.0569 73.6904C35.1018 73.5199 35.1466 73.3405 35.1915 73.1521C35.2722 72.7932 35.344 72.4163 35.3889 72.0216C35.3978 71.9946 35.3979 71.9677 35.3979 71.9408C35.3979 71.8601 35.4158 71.7883 35.4248 71.7075V71.6806C35.4248 71.6806 35.4337 71.6627 35.4337 71.6537C35.4607 71.3127 35.4696 70.9718 35.4517 70.6398C35.344 68.5493 34.6352 67.7507 34.6352 67.7507C34.3391 67.7238 34.052 67.6879 33.7559 67.652C33.2265 67.5802 32.6972 67.5085 32.1678 67.4187C32.0242 65.5076 31.764 62.1071 31.4769 58.3925C34.8146 58.7425 38.3408 58.7514 41.9746 58.2579H41.9836C42.4322 58.2041 42.8808 58.1413 43.3294 58.0606C43.6435 58.5899 43.9485 59.209 44.0831 59.8461C44.4061 61.3534 43.9575 63.7401 43.9575 63.7401C43.9844 63.6952 44.0203 63.6683 44.0382 63.6324C44.0831 63.5696 44.1369 63.4888 44.1818 63.426C44.1818 63.426 44.1848 63.4171 44.1908 63.3991C44.6573 62.6903 45.6981 60.9855 45.725 59.6397C45.743 58.7335 45.743 58.0606 45.734 57.576C46.2993 57.4594 46.8556 57.3248 47.4208 57.1633C51.7993 55.952 55.3793 54.1127 58.2684 51.9683V51.9504C58.7439 51.6094 59.1746 51.2685 59.6053 50.9096C60.0001 51.1249 60.4487 51.421 60.9063 51.7889C61.965 52.6143 62.8623 54.355 63.3019 55.2791C63.3019 55.2881 63.3109 55.306 63.3199 55.324C63.4006 55.4765 63.4724 55.647 63.5352 55.8175C63.5352 55.7995 63.5262 55.7816 63.5262 55.7636C63.4365 55.1715 63.0238 52.6054 62.5123 50.9006C62.2342 49.9854 62.2611 48.9805 62.3508 48.3166C63.93 46.6028 65.222 44.8173 66.2628 43.0498H66.2718C66.4871 42.6819 66.6845 42.3141 66.8819 41.9552C67.16 41.9372 67.4741 41.9282 67.8329 41.9552C68.784 42.0359 70.5157 42.0808 70.5157 42.0808C70.5157 42.0808 69.2506 41.5514 68.461 40.8964C68.1918 40.6631 67.9855 40.367 67.8329 40.0799C70.3452 34.6786 70.74 30.1386 70.7579 29.9053C70.8477 30.2373 70.9284 30.5782 71.0002 30.9102C71.2245 31.9241 71.386 32.9559 71.4937 34.0056C71.4937 34.0056 72.6332 35.2259 73.3689 35.6027C74.1136 35.9706 75.8722 35.8181 75.8722 35.8181C75.8722 35.8181 75.2621 37.4959 73.7099 38.1329C73.5842 38.1868 73.4586 38.2316 73.342 38.2675C73.2523 38.2944 73.1715 38.3213 73.0908 38.3393C72.9921 38.3662 72.9023 38.3842 72.8126 38.3931C72.7767 38.4021 72.7498 38.4021 72.7229 38.4021C72.696 38.4111 72.678 38.4111 72.6601 38.4111C72.5076 38.429 72.373 38.4111 72.2653 38.4021C72.1845 38.4021 72.1217 38.3842 72.0589 38.3662C71.7987 38.3034 71.6642 38.1778 71.6283 38.1419C71.6103 38.5098 71.5924 38.8866 71.5565 39.2545C71.3501 41.8654 70.7938 44.3956 69.9325 46.7913L75.4595 49.9136Z" fill="#6990E0"/>
</g>
<g style="mix-blend-mode:overlay" opacity="0.28">
<path d="M42.6744 6.28066C42.2885 7.42912 41.7951 8.78395 41.0952 10.3451C40.8171 10.9642 40.5389 11.5564 40.2428 12.1396H40.2339C39.9468 11.9961 39.6686 11.8794 39.4084 11.7987C39.3007 11.7628 39.1931 11.7359 39.0854 11.7C38.8611 11.6372 38.6278 11.5833 38.3856 11.5385C37.4165 11.35 36.3488 11.2513 35.658 11.2065H35.6221C35.4606 11.1975 35.317 11.1885 35.2093 11.1796C35.0299 11.1706 34.9312 11.1706 34.9312 11.1706C35.1106 11.3142 37.0307 12.8395 37.6229 14.1853C37.8741 14.7865 38.0446 15.3786 38.1523 15.8542C36.5193 18.4203 34.7517 20.5198 32.9034 22.1797C33.361 19.1201 33.7199 16.3207 33.7827 14.284C33.8276 12.8395 33.8635 11.5744 33.8725 10.4618C33.8814 9.77988 33.8904 9.15181 33.8904 8.58655C33.8904 7.6624 33.8814 6.89078 33.8635 6.27168C34.2224 6.22682 34.5813 6.19093 34.9402 6.15504C34.9402 6.15504 37.0576 5.00658 37.7844 3.61586C38.5291 2.22515 38.7175 0 38.7175 0L42.0732 6.20888C42.2706 6.23579 42.477 6.25374 42.6744 6.28066Z" fill="#A9CFBD"/>
</g>
<g style="mix-blend-mode:multiply" opacity="0.15">
<path d="M48.5873 71.4018C48.3181 73.0168 48.0849 74.3985 48.0849 74.3985C48.0849 74.3985 46.9185 69.8136 46.2007 68.5485C45.4918 67.2834 44.3075 67.418 44.3075 67.418C44.3075 67.418 45.9315 66.9245 46.9543 67.8756C47.9592 68.8267 48.8475 69.7867 48.5963 71.4107L48.5873 71.4018Z" fill="#6990E0"/>
</g>
<g style="mix-blend-mode:multiply" opacity="0.15">
<path d="M34.689 74.9104C34.8505 74.4528 35.5504 72.461 35.4607 70.6396C35.353 68.558 34.6442 67.7594 34.6442 67.7594C34.6442 67.7594 37.1116 67.257 37.4974 67.7594C37.8652 68.2529 35.7029 72.8647 34.698 74.9104H34.689Z" fill="#6990E0"/>
</g>
<g style="mix-blend-mode:multiply" opacity="0.15">
<path d="M57.1379 68.9702C57.1379 68.9702 57.129 68.9882 57.12 68.9971C57.12 68.9971 57.2546 66.3593 56.6534 65.0134C56.0433 63.6586 55.0653 63.7304 55.0653 63.7304C55.0653 63.7304 56.456 62.7972 57.0841 62.9408C57.7122 63.0844 58.2684 66.8169 57.129 68.9702H57.1379Z" fill="#6990E0"/>
</g>
<g style="mix-blend-mode:multiply" opacity="0.15">
<path d="M68.5149 62.465L62.1534 58.5979C62.1534 58.5979 62.6918 58.1852 63.5172 57.4495C64.244 56.7945 67.7432 60.9487 68.4162 62.16C68.5059 62.3215 68.5418 62.4291 68.5238 62.465H68.5149Z" fill="#6990E0"/>
</g>
<g style="mix-blend-mode:multiply" opacity="0.15">
<path d="M43.9665 63.7399C43.9665 63.7399 43.5448 58.8051 42.0015 58.2757H41.9926C42.4322 58.2039 42.8898 58.1501 43.3384 58.0693C43.6524 58.5897 43.9575 59.2178 44.1011 59.8548C44.4151 61.3532 43.9754 63.7399 43.9754 63.7399H43.9665Z" fill="#6990E0"/>
</g>
<g style="mix-blend-mode:multiply" opacity="0.15">
<path d="M75.4773 49.9217L68.7839 49.518C68.7839 49.518 69.1697 48.3516 69.6901 48.3516C70.2105 48.3516 75.1453 49.823 75.4504 49.9128C75.4594 49.9217 75.4683 49.9217 75.4683 49.9217H75.4773Z" fill="#6990E0"/>
</g>
<g style="mix-blend-mode:multiply" opacity="0.15">
<path d="M63.3108 55.2789C61.9291 52.6679 58.2773 51.9591 58.2773 51.9591H58.2863C58.7529 51.6002 59.1836 51.2593 59.6142 50.9004C60.009 51.1157 60.4487 51.4118 60.9062 51.7797C61.974 52.6051 62.8712 54.3458 63.3019 55.2699L63.3108 55.2789Z" fill="#6990E0"/>
</g>
<path d="M63.5621 55.8536C63.4903 55.6652 63.4095 55.4857 63.3378 55.3242C63.4185 55.4857 63.4903 55.6472 63.5531 55.8177C63.5621 55.8446 63.5621 55.8536 63.5621 55.8536Z" fill="#6990E0"/>
<g style="mix-blend-mode:multiply" opacity="0.15">
<path d="M75.8813 35.8176C75.8813 35.8176 75.2711 37.4954 73.7189 38.1235C72.2923 38.7156 71.7271 38.2222 71.6373 38.1324H71.6284C71.6284 38.1324 71.754 37.2083 71.4579 36.1765C71.4579 36.1765 74.3111 37.0019 75.8813 35.8086V35.8176Z" fill="#6990E0"/>
</g>
<g style="mix-blend-mode:multiply" opacity="0.15">
<path d="M70.5247 42.0799C67.1242 42.385 66.3615 42.9772 66.2808 43.0489C66.4961 42.6811 66.6935 42.3222 66.8909 41.9633C67.169 41.9453 67.4831 41.9364 67.842 41.9633C68.802 42.044 70.5247 42.0799 70.5247 42.0799Z" fill="#6990E0"/>
</g>
<g style="mix-blend-mode:multiply" opacity="0.15">
<path d="M40.889 46.2787C40.889 46.2787 39.0227 47.5618 38.3049 46.9427C37.5782 46.3146 36.2861 40.7607 36.2861 40.7607L36.4476 40.8325C37.1385 41.8374 40.3775 46.4941 40.8979 46.2787H40.889Z" fill="#6990E0"/>
</g>
<g style="mix-blend-mode:multiply" opacity="0.15">
<path d="M39.5251 13.7819C38.6009 12.1758 34.9222 11.1709 34.9222 11.1709C34.9222 11.1709 37.7485 11.2606 39.3995 11.799C39.6597 11.8797 39.9378 11.9964 40.2249 12.1309C40.9876 12.7231 39.9019 14.4368 39.5161 13.7819H39.5251Z" fill="#B8C5E0"/>
</g>
<g style="mix-blend-mode:multiply" opacity="0.15">
<path d="M62.5034 4.11816L59.5515 13.0995C57.5327 13.916 55.9087 12.6957 55.9087 12.6957C59.4797 11.4934 62.1714 4.94362 62.5034 4.11816Z" fill="#6990E0"/>
</g>
<g style="mix-blend-mode:multiply" opacity="0.15">
<path d="M66.9806 14.1758C66.541 14.4091 65.9847 14.759 65.3746 15.2435C64.5222 15.9164 64.2261 17.5045 64.2261 17.5045C64.2261 17.5045 62.8623 18.007 61.6959 16.8944C61.6959 16.8944 65.3118 14.2924 66.9717 14.1848L66.9806 14.1758Z" fill="#6990E0"/>
</g>
<g style="mix-blend-mode:multiply" opacity="0.15">
<path d="M73.3778 25.3912C72.7587 25.6065 72.1037 25.8667 71.6641 26.1449C70.5515 26.8178 70.4528 28.711 70.4528 28.711C70.4528 28.711 68.7301 28.8007 68.3802 27.7599C68.0393 26.737 71.1796 24.8169 73.3868 25.3912H73.3778Z" fill="#6990E0"/>
</g>
<path d="M32.9303 6.55919C32.9303 6.55919 33.5046 6.04776 34.4018 6.20927C34.4018 6.20927 34.9312 6.79247 34.4018 12.3105C34.2313 14.1229 31.0102 40.1607 30.9654 41.3809C30.5616 52.5426 31.8447 58.8322 31.8626 60.205C31.8806 61.5777 32.706 66.7189 32.1766 67.4187C32.1766 67.4187 28.8748 47.527 30.0053 39.5147C31.3602 29.9681 33.7378 15.1906 33.7917 9.43932C33.8006 8.27291 33.038 6.73864 32.9213 6.55919H32.9303Z" fill="#D4FF95"/>
</svg>
