<svg width="107" height="76" viewBox="0 0 107 76" fill="none" xmlns="http://www.w3.org/2000/svg">
<path d="M96.2454 61.1873C95.5362 61.9472 94.8649 62.6945 94.105 63.4544C89.7355 67.9506 79.9959 71.8895 72.7387 73.8272C71.9788 74.0426 71.2316 74.2072 70.5603 74.3718C69.2558 74.6632 67.9133 74.9165 66.5708 75.1318H66.4061C50.4099 77.7281 34.0464 74.2959 22.2044 67.8239C21.2798 67.3173 20.3553 66.7727 19.4814 66.2281C17.7589 65.1389 16.1631 63.999 14.6939 62.8338C13.9847 62.2512 13.2627 61.6179 12.5915 61.0227C11.9202 60.3894 11.287 59.7688 10.7044 59.1356C10.1218 58.4643 9.57716 57.831 9.07055 57.1598C7.98134 55.6906 6.96812 54.2214 6.13222 52.7523C5.24565 51.2831 4.4984 49.7759 3.82714 48.2561L3.78915 48.1675C-2.74612 32.8425 2.13 16.935 11.8696 7.91731C14.8459 5.14362 18.2909 2.9652 21.9891 1.66068C32.1846 -1.91092 39.4545 1.24273 45.5845 2.29394C46.3824 2.4206 47.1423 2.54725 47.8895 2.58524C49.4853 2.6739 50.9925 2.58524 52.4617 2.07863C60.1875 -0.479745 82.7316 6.57479 92.5472 10.4377C101.615 13.9586 117.738 36.6801 96.2454 61.1873Z" fill="#989898"/>
<path d="M92.5597 10.4105C86.3284 21.6572 73.2832 18.4023 70.3449 24.5702C67.4319 30.7129 52.6642 32.3214 33.3371 24.7602C14.0099 17.1991 24.864 14.97 17.1256 11.1324C14.4405 9.78989 12.8067 8.72601 11.8568 7.90277C14.8331 5.12908 18.2781 2.95066 21.9763 1.67147C36.1867 -3.2933 44.7231 4.69847 52.4489 2.07676C60.1621 -0.506949 82.7315 6.56026 92.5471 10.4105H92.5597Z" fill="#989898"/>
<g style="mix-blend-mode:multiply" opacity="0.21">
<path d="M96.2454 61.1873C95.5362 61.9472 94.8649 62.6945 94.105 63.4544C89.7355 67.9506 79.9959 71.8895 72.7387 73.8272C71.9788 74.0426 71.2316 74.2072 70.5603 74.3718C69.2558 74.6632 67.9133 74.9165 66.5708 75.1318H66.4061C50.4099 77.7281 34.0464 74.2959 22.2044 67.8239C21.2798 67.3173 20.3553 66.7727 19.4814 66.2281C17.7589 65.1389 16.1631 63.999 14.6939 62.8338C13.9847 62.2512 13.2627 61.6179 12.5915 61.0227C11.9202 60.3894 11.287 59.7688 10.7044 59.1356C10.1218 58.4643 9.57716 57.831 9.07055 57.1598C7.98134 55.6906 6.96812 54.2214 6.13222 52.7523C5.24565 51.2831 4.4984 49.7759 3.82714 48.2561L3.78915 48.1675C-2.74612 32.8425 2.13 16.935 11.8696 7.91731C14.8459 5.14362 18.2909 2.9652 21.9891 1.66068C32.1846 -1.91092 39.4545 1.24273 45.5845 2.29394C46.3824 2.4206 47.1423 2.54725 47.8895 2.58524C44.1153 5.61224 36.5161 12.0715 36.9721 15.5924C37.6433 20.2533 62.4546 29.5242 67.736 23.0269C73.03 16.479 87.5444 14.3766 90.1534 24.6608C92.0786 32.0953 100.273 47.5342 96.2454 61.1873Z" fill="#989898"/>
</g>
<g style="mix-blend-mode:multiply" opacity="0.21">
<path d="M72.7385 73.8137C71.9786 74.029 71.2314 74.1936 70.5601 74.3583C69.2556 74.6496 67.9131 74.9029 66.5706 75.1182H66.4059C50.4097 77.7146 34.0462 74.2823 22.2042 67.8103C21.2796 67.3037 20.3551 66.7591 19.4812 66.2145C17.7587 65.1253 16.1629 63.9854 14.6937 62.8202C13.9845 62.2376 13.2625 61.6044 12.5913 61.0091C12.5533 61.0471 12.5913 61.0978 12.6293 61.0978C11.958 60.4645 11.2868 59.7932 10.7042 59.122C10.1216 58.4507 9.57696 57.8175 9.07035 57.1462C7.98114 55.677 6.96792 54.2079 6.13201 52.7387C5.24544 51.2695 4.49819 49.7624 3.82694 48.2425L3.78894 48.1539C4.54886 38.8323 6.60063 29.2193 11.3501 23.3427C17.2268 15.9968 18.0627 17.086 23.9013 10.2468C29.2714 3.91418 43.2538 2.48301 45.3056 2.31836C42.9499 2.73631 26.2951 6.01661 21.1277 19.1505C15.5803 33.2596 17.6827 44.4683 20.1144 50.041C21.419 53.068 44.1277 68.4309 72.7512 73.801L72.7385 73.8137Z" fill="#989898"/>
</g>
<g style="mix-blend-mode:soft-light" opacity="0.4">
<path d="M93.117 12.5907C91.5465 11.5648 82.1996 7.00531 79.7172 10.8682C77.2221 14.7184 87.1517 11.0455 92.4204 17.5175C104.351 32.1585 96.5873 41.7081 98.7784 42.4807C100.969 43.2532 104.186 35.4768 102.553 29.6001C100.931 23.7361 98.4997 16.099 93.1043 12.5907H93.117Z" fill="#989898"/>
</g>
<g style="mix-blend-mode:soft-light" opacity="0.4">
<path d="M64.4176 4.95305C67.1913 5.35833 72.688 4.67441 74.9804 6.8275C77.2728 8.98059 76.6395 11.1717 74.6384 12.2482C72.6373 13.3248 68.4958 11.9316 65.3928 12.8942C62.2898 13.8567 57.5784 14.1227 56.2738 11.9569C54.9693 9.79117 52.9682 9.65185 55.6532 7.25812C58.3383 4.86439 59.8961 4.28179 64.4176 4.95305Z" fill="#989898"/>
</g>
<g style="mix-blend-mode:multiply" opacity="0.21">
<path d="M66.3933 75.118C50.3971 77.7144 34.0336 74.2821 22.1916 67.8101C21.2671 67.3035 20.3425 66.7589 19.4686 66.2143C17.7461 65.1251 16.1503 63.9852 14.6811 62.82C13.9719 62.2374 13.25 61.6042 12.5787 61.0089C11.9075 60.3756 11.2742 59.755 10.6916 59.1218C10.109 58.4505 9.56438 57.8173 9.05777 57.146C7.96856 55.6768 6.95534 54.2077 6.11944 52.7385C5.23287 51.2693 4.48562 49.7622 3.81436 48.2423L3.77637 48.1537C3.77637 48.1537 6.80336 39.174 9.81769 40.2252C12.8827 41.3144 13.098 51.3453 19.8866 59.0331C25.5479 65.4924 51.0304 75.1053 66.3933 75.1053V75.118Z" fill="#989898"/>
</g>
</svg>
