<svg width="31" height="100" viewBox="0 0 31 100" fill="none" xmlns="http://www.w3.org/2000/svg">
<mask id="mask0_287_190747" style="mask-type:luminance" maskUnits="userSpaceOnUse" x="0" y="0" width="31" height="100">
<path d="M3.05176e-05 100H30.53L30.53 0H3.05176e-05L3.05176e-05 100Z" fill="white"/>
</mask>
<g mask="url(#mask0_287_190747)">
<path d="M18.6601 38.24C19.0501 38.25 19.4801 38.31 19.9101 38.43H19.9501C20.2401 38.52 20.5301 38.62 20.8201 38.75C20.9601 38.79 21.1201 38.85 21.2601 38.94C21.3701 38.98 21.5001 39.04 21.6201 39.1C21.8201 39.2 22.0001 39.31 22.2001 39.44C22.3801 39.54 22.5501 39.67 22.7401 39.79C22.9501 39.93 23.1401 40.09 23.3701 40.25C23.5601 40.39 23.7501 40.56 23.9401 40.74C24.1601 40.94 24.4001 41.17 24.6401 41.4C24.9401 41.71 25.2301 42.01 25.5101 42.34C25.8501 42.74 26.1801 43.16 26.5101 43.61C26.6201 43.74 26.7201 43.91 26.8301 44.06C26.9701 44.26 27.1101 44.46 27.2401 44.67C27.5201 45.12 27.7801 45.57 28.0401 46.06C28.2401 46.43 28.4301 46.79 28.6201 47.18C28.7201 47.4 28.8101 47.61 28.9001 47.82C28.9701 47.95 29.0201 48.09 29.0801 48.22C29.1501 48.38 29.2101 48.55 29.2701 48.73C29.6401 49.69 29.9501 50.68 30.1901 51.66C31.6801 57.9 28.2201 68.46 25.6101 69.73C25.5301 69.77 25.4401 69.74 25.3101 69.66C24.9901 69.46 24.5101 68.91 23.9901 68.23C22.7801 66.61 21.2801 64.2 20.8401 63.63C20.4301 63.13 17.3101 59.26 16.2701 57.68C15.7301 56.85 15.2301 55.99 14.8001 55.07C13.8601 53.11 13.3001 51.18 13.0001 49.38L12.9901 49.36C12.7401 47.97 12.6201 46.63 12.5901 45.47C12.5001 43.01 13.3401 41.04 13.7201 40.53C14.1701 39.94 14.9201 39.25 15.9301 38.79C16.1701 38.68 16.4101 38.58 16.6801 38.5C16.9501 38.4 17.2401 38.34 17.5701 38.3C17.9201 38.23 18.2901 38.21 18.6801 38.23L18.6601 38.24Z" fill="#FFD62D"/>
<path d="M24.8101 69.2296C24.9901 69.4296 25.1601 69.5796 25.3101 69.6596C27.8301 67.3496 30.7302 57.7996 29.3302 51.9896C29.1102 50.9996 28.7801 50.0196 28.4101 49.0496C28.3401 48.8796 28.2801 48.7196 28.2201 48.5396C28.1601 48.4096 28.1002 48.2796 28.0401 48.1496C27.9501 47.9296 27.8401 47.7196 27.7501 47.4996C27.7201 47.4396 27.7002 47.3896 27.6702 47.3296C27.2902 46.5496 26.6101 45.3396 26.1501 44.6396C26.0901 44.5496 26.0301 44.4596 25.9701 44.3796C25.8701 44.2396 25.7601 44.0696 25.6501 43.9196C25.3301 43.4796 25.0001 43.0496 24.6601 42.6596C24.3801 42.3296 24.0901 42.0196 23.8001 41.7096C23.5501 41.4896 23.3201 41.2496 23.1001 41.0596C22.9101 40.8796 22.7201 40.7096 22.5201 40.5696C22.3101 40.3996 22.1201 40.2496 21.9101 40.1096C21.7301 39.9896 21.5501 39.8596 21.3701 39.7496C21.1701 39.6296 20.9801 39.4996 20.7901 39.4196C20.6802 39.3496 20.5501 39.2996 20.4301 39.2396C20.2901 39.1596 20.1301 39.1096 19.9901 39.0496C19.6901 38.9196 19.4101 38.8196 19.1201 38.7496H19.0701C18.6401 38.6196 18.2301 38.5696 17.8201 38.5496C17.4401 38.5196 17.0801 38.5396 16.7201 38.6096H16.7101C16.4201 38.6496 16.1702 38.6996 15.9202 38.7896C14.9002 39.2396 14.1501 39.9296 13.7101 40.5196C13.6001 40.6596 13.4601 40.9096 13.3201 41.2696C12.9301 42.1596 12.5201 43.6896 12.5901 45.4596C12.6201 46.6296 12.7401 47.9596 12.9901 49.3596C12.9901 49.3596 12.9901 49.3696 13.0001 49.3696C13.3101 51.1696 13.8601 53.0996 14.8101 55.0596C15.2401 55.9796 15.7501 56.8396 16.2801 57.6696C16.7501 58.3796 17.6401 59.5596 18.5201 60.6896C18.7901 61.0396 19.0601 61.3796 19.3101 61.6996C19.6301 62.0996 19.8801 62.5596 20.0701 63.0696C20.1601 63.3096 20.2301 63.5096 20.2901 63.6396C20.3301 63.7396 20.3701 63.8196 20.4001 63.9296C20.6101 64.5896 21.1101 66.3896 21.5601 67.6496C21.7601 68.2296 21.9601 68.7196 22.1201 68.9196C22.3801 68.7496 22.6601 68.4696 22.9701 68.1096C23.0701 68.4096 23.1602 68.7196 23.2602 68.9896C23.4602 69.5696 23.6601 70.0596 23.8101 70.2596C24.1201 70.0596 24.4601 69.6896 24.8201 69.2196L24.8101 69.2296Z" fill="#F6CA15"/>
<path d="M23.9801 68.2296C26.0001 66.2296 28.26 58.6696 27.15 54.0696C26.96 53.2896 26.71 52.4796 26.4 51.7096C26.35 51.5696 26.28 51.4396 26.24 51.3096C26.2 51.1896 26.15 51.0896 26.1 50.9896C26.03 50.8196 25.94 50.6396 25.88 50.4696C25.74 50.1496 25.5701 49.8496 25.4201 49.5696C25.2101 49.1796 25 48.7996 24.77 48.4496C24.67 48.2796 24.56 48.1196 24.44 47.9496C24.35 47.8196 24.28 47.7096 24.18 47.5796C23.93 47.2096 23.6601 46.8796 23.3901 46.5596C23.1601 46.2896 22.93 46.0396 22.69 45.8096C22.5 45.6296 22.31 45.4396 22.13 45.2796C21.97 45.1396 21.83 44.9996 21.66 44.8896C21.49 44.7496 21.3201 44.6296 21.1701 44.5296C21.0101 44.3996 20.87 44.3196 20.74 44.2196C20.57 44.1396 20.4201 44.0396 20.2601 43.9596C20.1801 43.9196 20.0801 43.8596 19.9801 43.8196C19.8601 43.7496 19.73 43.7096 19.63 43.6696C19.4 43.5596 19.16 43.4796 18.93 43.4196H18.88C18.54 43.3296 18.2 43.2696 17.88 43.2596C17.57 43.2396 17.28 43.2596 16.99 43.3096H16.9801C16.8901 43.3296 16.79 43.3496 16.69 43.3696C16.55 43.3896 16.4 43.4296 16.27 43.4896C15.15 43.8296 14.3301 44.5296 13.8901 45.1196C13.5901 45.5296 12.9 47.1096 12.97 49.0996C12.99 49.1896 12.9901 49.2696 12.9801 49.3796C12.9801 49.3796 12.98 49.3896 12.99 49.3896C13.3 51.1896 13.85 53.1196 14.8 55.0796C15.23 55.9996 15.74 56.8596 16.27 57.6896C16.74 58.3996 17.6301 59.5796 18.5101 60.7096C19.5801 62.0896 20.61 63.3696 20.85 63.6396C20.85 63.6396 21.78 66.5796 22.34 68.1196C22.61 67.9196 22.91 67.5796 23.22 67.1596C23.48 67.5496 23.74 67.9196 23.99 68.2396L23.9801 68.2296Z" fill="#DAB313"/>
<path d="M13.3101 41.2795C14.1701 41.8095 15.2601 42.5595 16.6901 43.3495C17.0301 43.5495 17.3901 43.7495 17.7801 43.9395C23.3901 46.8295 22.4701 54.9695 21.0101 58.6195C20.4501 60.0095 19.4801 60.5595 18.5001 60.6895C17.6201 59.5695 16.7201 58.3795 16.2601 57.6795C15.7201 56.8495 15.2201 55.9895 14.7901 55.0695C13.8501 53.1095 13.2901 51.1795 12.9901 49.3795L12.9801 49.3595C12.7301 47.9695 12.6101 46.6295 12.5801 45.4695C12.5201 43.6995 12.9301 42.1795 13.3201 41.2695L13.3101 41.2795Z" fill="#FFE887"/>
<path d="M24.31 56.6692C24.31 43.9592 13.92 33.6592 0.0199585 33.6592C-13.88 33.6592 -24.27 43.9592 -24.27 56.6692C-24.27 69.3792 -13.88 79.6792 0.0199585 79.6792C13.92 79.6792 24.31 69.3792 24.31 56.6692Z" fill="#FFD62D"/>
<path d="M19.9101 56.6692C19.9101 43.9592 12.1401 33.6592 0.0101013 33.6592C-12.1199 33.6592 -19.8899 43.9592 -19.8899 56.6692C-19.8899 69.3792 -12.1199 79.6792 0.0101013 79.6792C12.1401 79.6792 19.9101 69.3792 19.9101 56.6692Z" fill="#F6CA15"/>
<path d="M-19.88 24.0093C-19.88 26.8993 -19.22 29.6493 -18.03 32.1093C-14.87 38.6993 -7.97 43.2493 0.0299988 43.2493C11.01 43.2493 19.92 34.6393 19.92 24.0093C19.92 20.2693 18.81 16.7793 16.89 13.8193C13.38 8.3893 7.14 4.7793 0.0299988 4.7793C-10.97 4.7793 -19.87 13.3893 -19.87 23.9993L-19.88 24.0093Z" fill="#F6CA15"/>
<path d="M-19.88 24.0095C-19.88 26.8995 -19.22 29.6495 -18.03 32.1095C-14.51 37.4995 -8.28 41.0795 -1.19 41.0795C9.8 41.0795 18.71 32.4695 18.71 21.8495C18.71 18.9795 18.06 16.2595 16.88 13.8095C13.37 8.37953 7.12999 4.76953 0.019989 4.76953C-10.98 4.76953 -19.88 13.3795 -19.88 23.9895V24.0095Z" fill="#FFD62D"/>
<path d="M0.200104 32.5792C2.6101 32.5792 6.1201 28.1392 6.5401 27.8692C6.1201 27.9092 1.9801 31.0692 0.350098 30.9092C-1.3899 30.7392 -5.88989 27.7592 -6.13989 27.6592C-6.13989 27.6592 -2.2099 32.5792 0.200104 32.5792Z" fill="#E8B62C"/>
<path d="M-6.13989 27.6593C-6.11989 28.5493 -0.559913 31.2693 0.120087 31.2693C0.800086 31.2693 6.55008 28.6193 6.55008 27.8693C6.55008 27.4593 2.18008 22.3993 0.210083 22.3193C-1.75992 22.2393 -6.13991 27.4193 -6.12991 27.6593H-6.13989Z" fill="#E8CF2C"/>
<path d="M1.53003 27.3098C1.53003 27.3098 2.47004 26.4798 2.57004 25.9498C2.67004 25.4198 2.31003 25.0098 2.31003 25.0098C2.31003 25.0098 1.87003 26.5898 1.78003 26.7398C1.69003 26.8898 1.53003 27.3098 1.53003 27.3098Z" fill="#E8B62C"/>
<path d="M7.87006 20.1293C8.87521 20.1293 9.69006 19.3144 9.69006 18.3093C9.69006 17.3041 8.87521 16.4893 7.87006 16.4893C6.8649 16.4893 6.05005 17.3041 6.05005 18.3093C6.05005 19.3144 6.8649 20.1293 7.87006 20.1293Z" fill="black"/>
<path d="M6.73002 90.4397C6.73002 90.4397 6.22 89.7697 5.65 89.0397C4.36 87.4097 0.590021 88.2497 4.39002 91.3597C5.50002 92.2697 8.36001 96.8097 9.35001 97.8297C10.26 98.7697 11.46 98.5997 11.65 97.6597C11.73 97.2697 9.16001 94.9197 9.38001 94.6097C9.58001 94.3397 11.49 96.8197 12.37 96.6797C13.53 96.4897 13.41 95.2497 12.61 94.7797C9.22002 92.8097 6.73002 90.4397 6.73002 90.4397Z" fill="#D0671F"/>
<path d="M7.65005 91.3892C7.44005 91.9792 6.94006 92.0792 6.22006 91.9392C5.65006 91.8292 5.38005 91.5992 5.21005 91.0692C5.19005 91.0392 5.18007 91.0092 5.17007 90.9692C4.99007 90.3692 4.43005 80.9592 4.43005 80.9592C4.70005 81.0092 4.97005 81.0292 5.21005 81.0292C6.10005 81.0092 6.68005 80.6592 6.68005 80.6592C6.68005 80.6592 6.62005 84.7792 6.68005 86.2492C6.79005 88.6992 7.70008 91.2092 7.64008 91.3892H7.65005Z" fill="#C4611D"/>
<path d="M7.65004 91.3892C7.44004 91.9792 6.94004 92.0792 6.22004 91.9392C5.65004 91.8292 5.38003 91.5992 5.21003 91.0692C5.15003 89.5892 5.19003 83.5192 5.21003 81.0292C6.10003 81.0092 6.68004 80.6592 6.68004 80.6592C6.68004 80.6592 6.62004 84.7792 6.68004 86.2492C6.79004 88.6992 7.70006 91.2092 7.64006 91.3892H7.65004Z" fill="#D0671F"/>
<path d="M11.58 75.4797C11.58 75.4797 11.49 80.4097 7.76004 81.3497C6.25004 81.7297 5.46002 81.4597 4.62002 81.1397C2.97002 80.5097 1.88003 79.6097 1.03003 77.6997C-2.95997 68.7197 13.23 70.0697 11.59 75.4797H11.58Z" fill="#F6CA15"/>
<path d="M-12.17 75.1698C-12.17 75.1698 -11.25 80.2498 -8.10002 81.4398C-6.83002 81.9198 -5.55 81.7698 -4.8 81.5098C-3.33 80.9898 -2.77003 78.9998 -1.70003 77.2698C2.42997 70.5598 -13.64 67.7098 -12.17 75.1798V75.1698Z" fill="#F6CA15"/>
</g>
</svg>
