<svg width="39" height="100" viewBox="0 0 39 100" fill="none" xmlns="http://www.w3.org/2000/svg">
<mask id="mask0_287_190742" style="mask-type:luminance" maskUnits="userSpaceOnUse" x="0" y="0" width="39" height="100">
<path d="M0.060112 100H38.9901L38.9901 0H0.060112L0.060112 100Z" fill="white"/>
</mask>
<g mask="url(#mask0_287_190742)">
<path d="M38.9901 48.7099L38.3201 52.1399C35.8401 64.9199 29.5001 73.0799 23.3201 77.5699C20.4801 79.6499 17.6501 80.9599 15.2801 81.5799C7.74007 83.5399 -3.96993 82.3499 -13.2399 78.4999C-28.6299 72.0799 -30.5799 62.4999 -28.6999 52.7599L-28.1799 50.1099C-26.8199 43.0499 -20.7099 37.2099 -13.0099 35.8199C-10.4799 35.3699 -7.75993 35.3899 -4.99993 36.0099C8.33007 39.0099 18.8001 49.0799 24.8101 50.1499C34.3501 51.8399 39.0001 48.7199 39.0001 48.7199L38.9901 48.7099Z" fill="#F6CA15"/>
<path d="M38.9901 48.7101L38.4701 51.3401L38.3201 52.1301C38.2901 52.2901 38.2701 52.4401 38.2201 52.5801C38.2001 52.6501 38.2001 52.7201 38.1901 52.7901C38.1201 53.1301 38.0501 53.4801 37.9701 53.8101C35.2801 65.6401 29.2401 73.2901 23.3301 77.5701C15.7701 79.1901 4.7201 77.9301 -4.1399 74.2501C-19.5299 67.8301 -21.4999 58.2501 -19.5999 48.5201L-19.0799 45.8501C-18.3199 41.9601 -16.1199 38.4301 -12.9999 35.8101C-10.4699 35.3601 -7.7499 35.3801 -4.9899 36.0001C-3.8999 36.2401 -2.8399 36.5301 -1.7999 36.8601C10.0101 40.5801 19.2901 49.1501 24.8201 50.1401C34.3601 51.8301 39.0101 48.7101 39.0101 48.7101H38.9901Z" fill="#FFD62D"/>
<path opacity="0.61" d="M38.9901 48.7094L38.4701 51.3394C38.3701 51.7494 38.2801 52.1694 38.2101 52.5794C38.1901 52.6494 38.1901 52.7194 38.1801 52.7894C38.1101 53.1294 38.0401 53.4794 37.9601 53.8094C35.3401 62.7094 18.8801 63.2594 14.0801 64.5894C9.10013 65.9694 0.0101318 54.6194 -0.399868 48.8494C-0.809868 43.0794 -5.23987 38.0694 -5.23987 38.0694C-5.23987 38.0694 -3.94987 37.6194 -1.80987 36.8594C10.0001 40.5794 19.2801 49.1494 24.8101 50.1394C34.3501 51.8294 39.0001 48.7094 39.0001 48.7094H38.9901Z" fill="#DAB313"/>
<path d="M9.03016 24.1895C9.03016 27.3395 8.31016 30.3395 7.02016 33.0195C3.58016 40.1995 -3.94984 45.1595 -12.6598 45.1595C-24.6298 45.1595 -34.3398 35.7795 -34.3398 24.1895C-34.3398 20.1095 -33.1298 16.2995 -31.0298 13.0795C-27.2198 7.15949 -20.4198 3.22949 -12.6698 3.22949C-0.679848 3.22949 9.03016 12.6095 9.03016 24.1895Z" fill="#F6CA15"/>
<path d="M9.03008 24.1895C9.03008 27.3395 8.31009 30.3395 7.02008 33.0195C3.18008 38.8895 -3.59992 42.7995 -11.3399 42.7995C-23.3199 42.7995 -33.0399 33.4195 -33.0399 21.8395C-33.0399 18.7095 -32.3299 15.7395 -31.0399 13.0795C-27.2199 7.15949 -20.4199 3.22949 -12.6699 3.22949C-0.679916 3.22949 9.03008 12.6095 9.03008 24.1895Z" fill="#FFD62D"/>
<path d="M-3.72992 51.6194C-3.69992 52.1994 -3.60992 52.8294 -3.44992 53.4694V53.5194C-3.32992 53.9394 -3.19993 54.3694 -3.02993 54.7894C-2.96993 54.9894 -2.88992 55.2294 -2.78992 55.4294C-2.72992 55.5894 -2.65993 55.7894 -2.57993 55.9494C-2.44993 56.2394 -2.30992 56.4994 -2.15992 56.7894C-2.02992 57.0494 -1.87992 57.2994 -1.71992 57.5594C-1.53992 57.8594 -1.34992 58.1394 -1.14992 58.4594C-0.969925 58.7394 -0.769922 58.9994 -0.549922 59.2794C-0.309922 59.5994 -0.0199249 59.9294 0.260075 60.2594C0.630075 60.6794 1.01008 61.0894 1.41008 61.4794C1.89008 61.9494 2.40008 62.4194 2.95008 62.8694C3.11008 63.0194 3.32008 63.1694 3.50008 63.3094C3.74008 63.5094 3.99008 63.6894 4.23008 63.8694C4.77008 64.2494 5.32008 64.6094 5.91008 64.9494C6.35008 65.2194 6.79007 65.4794 7.26007 65.7194C7.52007 65.8494 7.78008 65.9694 8.02008 66.0794C8.18008 66.1794 8.34008 66.2394 8.50008 66.3194C8.70008 66.4094 8.89007 66.4894 9.10007 66.5694C10.2501 67.0494 11.4201 67.4394 12.5801 67.7194C19.9901 69.4594 32.2301 63.4994 33.6001 59.5294C33.6401 59.4094 33.6001 59.2694 33.5001 59.0894C33.2501 58.6194 32.5901 57.9494 31.7601 57.2394C29.8001 55.5594 26.9001 53.5194 26.2101 52.9094C25.6001 52.3394 20.9101 47.9894 19.0101 46.5594C18.0101 45.8294 16.9701 45.1494 15.8801 44.5694C13.5401 43.3194 11.2401 42.6394 9.11008 42.3194C9.10008 42.3094 9.09008 42.3094 9.09008 42.3094C7.44008 42.0394 5.87008 41.9694 4.50008 42.0094C1.60008 42.0694 -0.669923 43.4594 -1.24992 44.0594C-1.91992 44.7694 -2.68993 45.9494 -3.18993 47.4894C-3.30993 47.8494 -3.40992 48.2294 -3.49992 48.6294C-3.59992 49.0494 -3.65993 49.4794 -3.68993 49.9594H-3.69992C-3.74992 50.4994 -3.75993 51.0494 -3.70993 51.6194H-3.72992Z" fill="#DAB313"/>
<path d="M32.9601 58.3897C33.2001 58.6497 33.3901 58.8897 33.4901 59.0997C30.8901 63.0297 19.8001 68.0697 12.9101 66.4397C11.7401 66.1797 10.5701 65.7697 9.41014 65.2997C9.20014 65.2097 9.01014 65.1297 8.81014 65.0597C8.65014 64.9697 8.50014 64.9097 8.35014 64.8197C8.09014 64.6997 7.83014 64.5597 7.57014 64.4397C7.50014 64.3997 7.43014 64.3697 7.37014 64.3297C6.44014 63.8297 4.98014 62.8997 4.14014 62.2697C4.03014 62.1897 3.93014 62.1097 3.82014 62.0297C3.65014 61.8897 3.44014 61.7397 3.27014 61.5797C2.74014 61.1297 2.22014 60.6797 1.74014 60.1997C1.34014 59.7997 0.970144 59.4097 0.590144 58.9897C0.310144 58.6297 0.0201433 58.3197 -0.199857 57.9897C-0.419857 57.7097 -0.629855 57.4597 -0.799855 57.1597C-1.00986 56.8697 -1.19986 56.5897 -1.36986 56.2797C-1.52986 56.0197 -1.67986 55.7597 -1.81986 55.4997C-1.96986 55.2097 -2.12986 54.9297 -2.22986 54.6597C-2.31986 54.5097 -2.38986 54.3197 -2.44986 54.1397C-2.54986 53.9297 -2.61986 53.7097 -2.68986 53.4997C-2.85986 53.0697 -2.97986 52.6597 -3.08986 52.2297L-3.10986 52.1597C-3.25986 51.5197 -3.34986 50.9197 -3.38986 50.3197C-3.43986 49.7497 -3.43986 49.2197 -3.36986 48.6797V48.6597C-3.33986 48.2297 -3.27986 47.8497 -3.19986 47.4697C-2.71986 45.9197 -1.93986 44.7497 -1.26986 44.0397C-1.10986 43.8697 -0.819856 43.6397 -0.409856 43.3997C0.620144 42.7497 2.40014 42.0197 4.48014 41.9897C5.86014 41.9397 7.42014 42.0197 9.08014 42.2797C9.08014 42.2797 9.10014 42.2797 9.10014 42.2997C11.2401 42.6297 13.5301 43.2997 15.8701 44.5597C16.9701 45.1297 18.0101 45.8197 19.0001 46.5397C19.8601 47.1797 21.2901 48.4197 22.6501 49.6397C23.0701 50.0197 23.4801 50.3897 23.8701 50.7397C24.3501 51.1797 24.9101 51.5297 25.5201 51.7697C25.8101 51.8897 26.0401 51.9797 26.2001 52.0497C26.3201 52.0997 26.4201 52.1497 26.5401 52.1897C27.3201 52.4597 29.4601 53.0597 30.9701 53.6297C31.6601 53.8897 32.2401 54.1497 32.4901 54.3697C32.3001 54.7697 31.9901 55.2097 31.5801 55.6997C31.9401 55.8197 32.3001 55.9397 32.6301 56.0597C33.3201 56.3197 33.9001 56.5797 34.1501 56.7797C33.9301 57.2597 33.5101 57.7997 32.9801 58.3597L32.9601 58.3897Z" fill="#F6CA15"/>
<path d="M31.7601 57.24C29.5001 60.39 20.7201 64.33 15.2601 63.04C14.3301 62.82 13.3701 62.51 12.4501 62.11C12.2801 62.04 12.1201 61.95 11.9701 61.9C11.8301 61.85 11.7101 61.78 11.5901 61.71C11.3801 61.62 11.1801 61.5 10.9701 61.42C10.5901 61.23 10.2301 61.01 9.88008 60.8C9.42008 60.52 8.95008 60.23 8.54008 59.92C8.33008 59.78 8.14008 59.63 7.94008 59.47C7.79008 59.35 7.65008 59.25 7.49008 59.11C7.04008 58.77 6.65008 58.39 6.25008 58.01C5.92008 57.68 5.61008 57.37 5.34008 57.03C5.12008 56.75 4.89008 56.5 4.69008 56.24C4.52008 56.02 4.35008 55.81 4.21008 55.57C4.04008 55.33 3.88008 55.09 3.76008 54.86C3.60008 54.64 3.50008 54.43 3.38008 54.24C3.28008 54 3.16008 53.78 3.05008 53.55C3.00008 53.43 2.93008 53.29 2.88008 53.14C2.79008 52.97 2.74008 52.78 2.69008 52.62C2.55008 52.29 2.45008 51.93 2.36008 51.6V51.53C2.24008 51.03 2.15008 50.53 2.12008 50.05C2.09008 49.59 2.09008 49.15 2.14008 48.72V48.7C2.16008 48.56 2.17008 48.41 2.19008 48.27C2.21008 48.06 2.24008 47.84 2.31008 47.63C2.65008 45.94 3.45008 44.67 4.12008 43.96C4.58008 43.48 6.41008 42.34 8.75008 42.29C8.85008 42.31 8.96008 42.31 9.08008 42.29C9.08008 42.29 9.10008 42.29 9.10008 42.31C11.2401 42.64 13.5301 43.31 15.8701 44.57C16.9701 45.14 18.0101 45.83 19.0001 46.55C19.8601 47.19 21.2901 48.43 22.6501 49.65C24.3201 51.13 25.8701 52.58 26.2001 52.9C26.2001 52.9 29.7001 54.05 31.5401 54.78C31.3201 55.19 30.9401 55.68 30.4501 56.16C30.9101 56.52 31.3601 56.88 31.7601 57.23V57.24Z" fill="#FFD62D"/>
<path d="M-10.7899 95.1697C-4.35986 97.4697 -2.80986 96.9397 -2.80986 96.9397C-2.80986 96.9397 -2.10986 93.6997 -1.98986 91.0397C-1.91986 89.4397 -2.15986 84.6797 -2.15986 84.6797C-2.15986 84.6797 -0.349859 85.6497 1.08014 85.3597C1.08014 85.3597 1.32014 90.8397 0.13014 97.5197C0.18014 97.5197 0.840141 97.3397 1.49014 97.6997C2.33014 98.1597 2.16014 99.9897 0.110144 99.9997C-0.639856 99.9997 -1.96986 99.6797 -1.99986 99.6697C-4.36986 99.8497 -9.43986 99.3197 -11.4499 99.0097C-13.3199 98.7297 -15.2399 98.0397 -13.5299 97.1297C-13.0799 96.8897 -9.91986 97.5197 -9.71986 97.1297C-9.53986 96.7797 -12.5599 96.3897 -12.9099 95.8597C-13.2599 95.3297 -11.9999 94.7397 -10.7899 95.1697Z" fill="#D0671F"/>
<path d="M10.5901 95.1097C11.3101 94.9397 18.5101 91.8197 18.5101 91.8197C18.5101 91.8197 17.2601 89.2497 16.8601 88.2897C16.4601 87.3297 15.6701 84.3397 15.6701 84.3397L18.2001 83.4697C18.2001 83.4697 18.7201 86.3097 18.9701 87.0797C19.5201 88.8097 20.1401 90.2197 20.8101 91.1797C21.3501 91.0297 21.4601 89.1297 23.1701 90.1597C23.9201 90.6097 23.9801 92.1197 22.0901 93.1097C20.8701 93.7497 19.4801 94.3297 18.6401 95.0697C17.8001 95.8097 12.7101 100.33 11.3601 98.9497C9.93012 97.4797 14.2401 95.6497 14.2401 95.6497C14.2401 95.6497 9.85012 97.2397 9.16012 96.5497C8.57012 95.9597 9.90012 95.2797 10.5701 95.1197L10.5901 95.1097Z" fill="#D0671F"/>
<path d="M-8.38989 79.6397C-8.38989 79.6397 -6.61989 83.9897 -2.54989 85.0097C-0.909891 85.4197 0.570107 85.7197 1.49011 85.3697C3.29011 84.6797 3.57011 83.8897 4.69011 81.9097C6.05011 79.4897 -8.62989 77.5497 -8.37989 79.6397H-8.38989Z" fill="#F6CA15"/>
<path d="M9.2501 82.0699C9.2501 82.0699 12.4601 85.3699 16.0901 84.8299C17.5501 84.6099 18.8401 84.3399 19.4101 83.6899C20.5401 82.4099 20.4301 81.5899 20.4701 79.3799C20.5301 76.6899 8.1701 80.2599 9.2501 82.0699Z" fill="#F6CA15"/>
</g>
</svg>
