<svg width="30" height="100" viewBox="0 0 30 100" fill="none" xmlns="http://www.w3.org/2000/svg">
<mask id="mask0_287_190748" style="mask-type:luminance" maskUnits="userSpaceOnUse" x="0" y="0" width="30" height="100">
<path d="M29.56 0H0V100H29.56V0Z" fill="white"/>
</mask>
<g mask="url(#mask0_287_190748)">
<path d="M39.4501 99.2488C39.1201 100.149 37.4501 100.559 36.5401 98.5988C35.9501 97.3288 32.6701 95.1388 31.8001 94.3888C29.8101 92.6788 28.4801 90.9988 29.4601 90.0888C30.4401 89.1788 32.9701 93.3888 33.4201 93.2088C33.87 93.0288 30.8301 89.0488 31.9901 88.2288C32.9901 87.5288 33.6701 88.1888 33.9801 89.2888C35.3301 94.0688 36.7901 96.3688 36.7901 96.3688C36.7901 96.3688 39.8701 98.0588 39.4401 99.2388L39.4501 99.2488Z" fill="#D0671F"/>
<path d="M19.3299 97.0399C19.3299 97.0399 19.86 97.7399 20.48 98.5199C21.84 100.25 25.82 99.3599 21.81 96.0599C20.64 95.0999 17.62 90.2999 16.57 89.2299C15.6 88.2399 14.3399 88.4199 14.1399 89.4099C14.0499 89.8199 16.77 92.3099 16.54 92.6299C16.33 92.9199 14.31 90.2899 13.38 90.4399C12.16 90.6399 12.28 91.9599 13.12 92.4399C16.7 94.5199 19.34 97.0299 19.34 97.0299L19.3299 97.0399Z" fill="#D0671F"/>
<path d="M23.0299 86.0699C23.0299 86.0699 23.0299 86.0699 23.0299 86.0899C22.9099 86.2999 21.4799 89.1399 20.7999 96.4599C20.7699 96.6899 20.5899 97.0899 20.2099 97.0899C19.4299 97.0899 19.2599 96.4399 19.1699 96.0899C19.1499 96.0199 19.1499 95.8299 19.1699 95.5599C19.2299 94.4599 19.4799 92.0899 19.5799 91.2899C19.6999 90.2799 20.4899 85.6299 20.4899 85.6299L23.0399 86.0899L23.0299 86.0699Z" fill="#C4611D"/>
<path d="M23.02 86.09C22.9 86.3 21.47 89.14 20.79 96.46C20.76 96.69 20.58 97.09 20.2 97.09C19.42 97.09 19.25 96.44 19.16 96.09C19.14 96.02 19.14 95.83 19.16 95.56C19.47 94.08 19.85 91.52 20.06 90.5C20.27 89.5 21.07 85.75 21.07 85.75L23.02 86.1V86.09Z" fill="#D0671F"/>
<path d="M41.4 79.7597C41.4 79.7597 41.31 84.9697 37.36 85.9697C35.77 86.3697 34.9301 86.0897 34.0401 85.7497C32.2901 85.0897 31.14 84.1297 30.24 82.1097C26.02 72.6197 43.13 74.0497 41.4 79.7597Z" fill="#F6CA15"/>
<path d="M16.2901 79.4297C16.2901 79.4297 17.2701 84.7997 20.5901 86.0497C21.9301 86.5497 23.28 86.3997 24.08 86.1197C25.64 85.5697 26.2301 83.4597 27.3501 81.6397C31.7101 74.5497 14.7301 71.5397 16.2801 79.4297H16.2901Z" fill="#F6CA15"/>
<path d="M8.15002 25.3796C8.15002 28.4396 8.85004 31.3396 10.1 33.9396C13.44 40.8996 20.73 45.7096 29.18 45.7096C40.78 45.7096 50.2 36.6096 50.2 25.3796C50.2 21.4196 49.03 17.7296 46.99 14.6096C43.28 8.86957 36.69 5.05957 29.18 5.05957C17.56 5.05957 8.15002 14.1596 8.15002 25.3796Z" fill="#F6CA15"/>
<path d="M55.7801 59.8796C55.7801 60.7996 55.7201 61.7196 55.6001 62.6196C55.1201 66.6096 53.5801 70.3096 51.2301 73.4796C46.4401 79.9496 38.35 84.1896 29.17 84.1896C19.99 84.1896 12.7001 80.3596 7.84006 74.4196C5.15006 71.1196 3.35006 67.1696 2.78006 62.8796C2.63006 61.8896 2.57007 60.8796 2.57007 59.8696C2.57007 46.4396 14.4801 35.5596 29.1801 35.5596C43.8801 35.5596 55.7901 46.4496 55.7901 59.8696L55.7801 59.8796Z" fill="#F6CA15"/>
<path d="M41.18 38.8596C45.91 35.1296 48.93 29.4596 48.93 23.1096C48.93 20.0696 48.25 17.1996 46.99 14.6096C43.28 8.86957 36.69 5.05957 29.18 5.05957C17.56 5.05957 8.15002 14.1596 8.15002 25.3796C8.15002 28.4396 8.85004 31.3396 10.1 33.9396C11.59 36.2096 13.53 38.1696 15.81 39.7196C9.46003 44.0896 5.28003 51.4896 5.28003 59.8796C5.28003 73.3096 15.98 84.1996 29.18 84.1996C42.38 84.1996 53.08 73.3096 53.08 59.8796C53.08 50.8996 48.3 43.0696 41.19 38.8596H41.18Z" fill="#FFD62D"/>
<path d="M10.05 67.4501C10.05 67.4501 14.18 79.7002 27.52 83.4802C39.01 86.7302 47.48 85.7502 47.48 85.7502C47.48 85.7502 41.76 79.1202 45.3 71.7602C49.68 62.6702 24.26 57.3501 10.04 67.4501H10.05Z" fill="#FFD62D"/>
<path d="M39.5099 84.7297C39.5099 84.7297 21.5599 84.2797 13.3899 76.2097C-0.590082 62.3997 10.1499 39.6997 15.8099 39.7197C18.1799 39.7197 20.0199 45.4497 17.2999 55.3997C16.1899 59.4597 14.7699 69.3597 18.0099 73.6197C23.7499 81.1597 39.5099 84.7297 39.5099 84.7297Z" fill="#F6CA15"/>
<g style="mix-blend-mode:multiply" opacity="0.3">
<path d="M7.84003 74.4293C5.15003 71.1293 3.35003 67.1793 2.78003 62.8893C6.46003 60.4493 15.09 52.8193 15.09 52.8193C15.09 52.8193 14.18 66.7493 17.04 71.8593C18.44 74.3393 12.53 76.3893 7.85004 74.4293H7.84003Z" fill="#50617D" fill-opacity="0.41"/>
</g>
<path d="M0.019989 55.8898C0.019989 56.2998 0.0200085 56.6998 0.0400085 57.1198C0.0400085 57.3498 0.0699963 57.5798 0.0899963 57.7898C0.0899963 57.9398 0.109995 58.0798 0.119995 58.2198C0.119995 58.3998 0.149993 58.5698 0.179993 58.7398C0.289993 59.7298 0.479991 60.6998 0.709991 61.6198C2.24999 67.5198 9.97001 74.0498 12.76 73.5898C12.84 73.5698 12.92 73.4998 12.98 73.3598C13.05 73.2298 13.12 73.0498 13.18 72.8298C13.18 72.7898 13.2 72.7598 13.21 72.7298C13.3 72.3798 13.39 71.9498 13.47 71.4598C13.78 69.4598 13.96 66.6598 14.09 65.9498C14.13 65.7498 14.24 65.1698 14.39 64.3798C14.41 64.2398 14.44 64.0998 14.47 63.9498C14.49 63.8098 14.51 63.6598 14.54 63.5198C14.56 63.4398 14.57 63.3598 14.59 63.2798C14.63 63.0898 14.66 62.8998 14.69 62.7098C14.71 62.5598 14.74 62.3998 14.76 62.2498C14.9 61.4298 15.04 60.5898 15.14 59.8598C15.16 59.7298 15.18 59.5998 15.2 59.4798C15.25 59.1198 15.29 58.7998 15.31 58.5398C15.39 57.5698 15.44 56.5798 15.39 55.5898C15.32 53.4698 14.91 51.6098 14.37 49.9698V49.9498C13.95 48.6798 13.46 47.5298 12.96 46.5798C12.89 46.4498 12.83 46.3298 12.75 46.2098C12.7 46.1198 12.65 46.0298 12.6 45.9498C12.23 45.3398 11.81 44.8398 11.41 44.4398C11.35 44.3798 11.31 44.3298 11.25 44.2798C11.05 44.0898 10.87 43.9298 10.69 43.7898C10.61 43.7198 10.52 43.6698 10.44 43.6098C10.37 43.5498 10.3 43.5198 10.23 43.4698C10.19 43.4398 10.15 43.4098 10.11 43.3998C9.96999 43.3198 9.86001 43.2598 9.76001 43.2298C9.64001 43.1898 9.50001 43.1498 9.35001 43.1198C8.87001 43.0098 8.3 42.9598 7.66 43.0198C7.47 43.0398 7.29 43.0698 7.09 43.0998C6.84 43.1398 6.59001 43.1998 6.32001 43.2898C6.05001 43.3698 5.77001 43.4898 5.48001 43.6398H5.45999C5.13999 43.7798 4.82 43.9898 4.5 44.2198C4.16 44.4498 3.84001 44.7398 3.51001 45.0898L3.48001 45.1198C3.27001 45.3498 3.07 45.5998 2.88 45.8698C2.78 45.9798 2.66999 46.1298 2.57999 46.2798C2.50999 46.3698 2.42001 46.4898 2.35001 46.6198C2.23001 46.8198 2.13001 47.0098 2.01001 47.2198C1.90001 47.4098 1.80001 47.6098 1.70001 47.8198C1.59001 48.0498 1.49 48.2898 1.37 48.5498C1.28 48.7698 1.19001 49.0198 1.10001 49.2698C1.00001 49.5598 0.899988 49.8898 0.799988 50.1898C0.689988 50.6098 0.580011 51.0298 0.480011 51.4498C0.370011 51.9698 0.270012 52.4898 0.200012 53.0498C0.160012 53.2198 0.150005 53.4198 0.130005 53.5998C0.110005 53.7998 0.0799976 53.9998 0.0599976 54.1898C0.0599976 54.2398 0.0599976 54.2698 0.0599976 54.3198C0.0199976 54.8398 0 55.3598 0 55.9098L0.019989 55.8898Z" fill="#FFE887"/>
<path d="M0.889965 56.5501V56.7201C0.889965 56.7901 0.889965 56.8401 0.889965 56.9101C0.909965 57.1301 0.909973 57.3701 0.929973 57.6001C0.929973 57.7401 0.949972 57.8701 0.959972 58.0101C0.989972 58.1901 0.999979 58.3501 1.02998 58.5201C1.14998 59.5101 1.31999 60.4901 1.56999 61.4201C2.98999 66.9001 9.75997 72.9501 12.96 73.3701C13.03 73.2401 13.1 73.0601 13.16 72.8401C13.16 72.8001 13.18 72.7701 13.19 72.7401C13.71 72.9201 14.16 73.0201 14.52 73.0001C14.56 72.7601 14.5 72.2401 14.42 71.6701C14.38 71.3901 14.33 71.0901 14.27 70.7901C14.69 70.9001 15.06 70.9701 15.36 70.9601C15.41 70.7101 15.36 70.1901 15.27 69.6201C15.08 68.3401 14.7 66.6101 14.59 65.9501C14.57 65.8501 14.56 65.7501 14.55 65.6501C14.53 65.5201 14.51 65.3101 14.48 65.0701C14.45 64.8401 14.43 64.6001 14.43 64.3701C14.43 64.2301 14.43 64.1001 14.45 63.9601C14.47 63.8201 14.49 63.6701 14.52 63.5301C14.54 63.4501 14.55 63.3701 14.57 63.2901C14.6 63.1001 14.64 62.9201 14.67 62.7201C14.69 62.5701 14.72 62.4101 14.74 62.2601C14.88 61.4401 15.02 60.6001 15.12 59.8701C15.14 59.7401 15.16 59.6101 15.18 59.4901C15.23 59.1301 15.27 58.8101 15.29 58.5501C15.37 57.5801 15.42 56.5901 15.37 55.6001C15.3 53.4801 14.89 51.6201 14.35 49.9801V49.9601C13.93 48.6901 13.44 47.5401 12.94 46.5901C12.87 46.4601 12.81 46.3401 12.73 46.2201C12.68 46.1301 12.63 46.0401 12.58 45.9601C12.21 45.3501 11.79 44.8501 11.39 44.4501C11.33 44.3901 11.29 44.3401 11.23 44.2901C11.03 44.1001 10.85 43.9401 10.67 43.8001C10.59 43.7301 10.5 43.6801 10.42 43.6201C10.35 43.5601 10.28 43.5301 10.21 43.4801C10.17 43.4501 10.13 43.4201 10.09 43.4101C9.94998 43.3301 9.83997 43.2701 9.73997 43.2401C9.61997 43.2001 9.47997 43.1601 9.32997 43.1301C8.84997 43.0201 8.28996 42.9601 7.63996 43.0301C7.44996 43.0501 7.26999 43.0801 7.06999 43.1101C6.81999 43.1801 6.57998 43.2901 6.30998 43.4201C5.96998 43.5701 5.66999 43.7701 5.34999 44.0101C5.00999 44.2501 4.68998 44.5301 4.36998 44.8801L4.32997 44.9201C4.11997 45.1401 3.90998 45.3801 3.71998 45.6601C3.61998 45.7801 3.50997 45.9101 3.42997 46.0601C3.35997 46.1701 3.25997 46.2901 3.20997 46.4101C3.07997 46.5901 2.97997 46.7901 2.85997 47.0101C2.75997 47.2101 2.65998 47.4101 2.55998 47.6101C2.43998 47.8501 2.34997 48.0901 2.23997 48.3401C2.12997 48.5601 2.03997 48.8101 1.95997 49.0701C1.84997 49.3401 1.76997 49.6701 1.64997 49.9901C1.53997 50.4101 1.43998 50.8201 1.33998 51.2401C1.22998 51.7601 1.13999 52.2801 1.06999 52.8301C1.02999 53.0101 1.00998 53.2101 0.99998 53.3901C0.99998 53.4901 0.969972 53.6001 0.959972 53.7001C0.889972 54.4701 0.859985 55.7201 0.879985 56.5701L0.889965 56.5501Z" fill="#FFD62D"/>
</g>
</svg>
