<svg width="30" height="100" viewBox="0 0 30 100" fill="none" xmlns="http://www.w3.org/2000/svg">
<mask id="mask0_287_190749" style="mask-type:luminance" maskUnits="userSpaceOnUse" x="0" y="0" width="30" height="100">
<path d="M29.56 0H0V100H29.56V0Z" fill="white"/>
</mask>
<g mask="url(#mask0_287_190749)">
<path d="M9.88001 99.2488C9.55001 100.149 7.88001 100.559 6.97001 98.5988C6.38001 97.3288 3.09999 95.1388 2.22999 94.3888C0.239987 92.6788 -1.09001 90.9988 -0.11001 90.0888C0.86999 89.1788 3.39998 93.3888 3.84998 93.2088C4.29998 93.0288 1.25999 89.0488 2.41999 88.2288C3.41999 87.5288 4.10001 88.1888 4.41001 89.2888C5.76001 94.0688 7.22001 96.3688 7.22001 96.3688C7.22001 96.3688 10.3 98.0588 9.87 99.2388L9.88001 99.2488Z" fill="#D0671F"/>
<path d="M7.27002 96.3693C7.05002 96.9993 6.93003 97.2993 6.16003 97.1493C5.55003 97.0293 5.27001 96.7993 5.10001 96.2393C5.08001 96.2093 5.07003 96.1693 5.06003 96.1393C4.87003 95.5093 4.28003 85.5593 4.28003 85.5593C4.57003 85.6193 4.85001 85.6293 5.10001 85.6293C6.04001 85.6093 6.65002 85.2393 6.65002 85.2393C6.65002 85.2393 6.58002 89.5993 6.65002 91.1493C6.76002 93.7293 7.33001 96.1893 7.26001 96.3793L7.27002 96.3693Z" fill="#C4611D"/>
<path d="M7.26002 96.6593C7.04002 97.2893 6.92004 97.2993 6.16004 97.1493C5.55004 97.0293 5.27001 96.7993 5.10001 96.2393C5.03001 94.6693 5.08001 88.2593 5.10001 85.6293C6.04001 85.6093 6.65003 85.2393 6.65003 85.2393C6.65003 85.2393 6.58003 89.5993 6.65003 91.1493C6.76003 93.7293 7.32002 96.4793 7.26002 96.6693V96.6593Z" fill="#D0671F"/>
<path d="M11.83 79.7597C11.83 79.7597 11.74 84.9697 7.78996 85.9697C6.19996 86.3697 5.35998 86.0897 4.46998 85.7497C2.71998 85.0897 1.56996 84.1297 0.669964 82.1097C-3.55004 72.6197 13.56 74.0497 11.83 79.7597Z" fill="#F6CA15"/>
<path d="M-13.28 79.4297C-13.28 79.4297 -12.3 84.7997 -8.98001 86.0497C-7.64001 86.5497 -6.29002 86.3997 -5.49002 86.1197C-3.93002 85.5697 -3.34 83.4597 -2.22 81.6397C2.14 74.5497 -14.84 71.5397 -13.29 79.4297H-13.28Z" fill="#F6CA15"/>
<path d="M-21.42 25.3796C-21.42 28.4396 -20.72 31.3396 -19.47 33.9396C-16.13 40.8996 -8.84004 45.7096 -0.390045 45.7096C11.21 45.7096 20.63 36.6096 20.63 25.3796C20.63 21.4196 19.46 17.7296 17.42 14.6096C13.71 8.86957 7.11996 5.05957 -0.390045 5.05957C-12.01 5.05957 -21.42 14.1596 -21.42 25.3796Z" fill="#F6CA15"/>
<path d="M26.21 59.8796C26.21 60.7996 26.15 61.7196 26.03 62.6196C25.55 66.6096 24.01 70.3096 21.66 73.4796C16.87 79.9496 8.77998 84.1896 -0.400024 84.1896C-9.58002 84.1896 -16.87 80.3596 -21.73 74.4196C-24.42 71.1196 -26.22 67.1696 -26.79 62.8796C-26.94 61.8896 -27 60.8796 -27 59.8696C-27 46.4396 -15.09 35.5596 -0.390015 35.5596C14.31 35.5596 26.22 46.4496 26.22 59.8696L26.21 59.8796Z" fill="#F6CA15"/>
<path d="M11.61 38.8596C16.34 35.1296 19.36 29.4596 19.36 23.1096C19.36 20.0696 18.68 17.1996 17.42 14.6096C13.71 8.86957 7.11996 5.05957 -0.390045 5.05957C-12.01 5.05957 -21.42 14.1596 -21.42 25.3796C-21.42 28.4396 -20.72 31.3396 -19.47 33.9396C-17.98 36.2096 -16.04 38.1696 -13.76 39.7196C-20.11 44.0896 -24.29 51.4896 -24.29 59.8796C-24.29 73.3096 -13.59 84.1996 -0.390045 84.1996C12.81 84.1996 23.5099 73.3096 23.5099 59.8796C23.5099 50.8996 18.73 43.0696 11.62 38.8596H11.61Z" fill="#FFD62D"/>
<path d="M-19.5201 67.4492C-19.5201 67.4492 -15.39 79.6992 -2.05005 83.4792C9.43995 86.7292 17.91 85.7492 17.91 85.7492C17.91 85.7492 12.1899 79.1192 15.7299 71.7592C20.11 62.6692 -5.31003 57.3492 -19.53 67.4492H-19.5201Z" fill="#FFD62D"/>
<path d="M17.9099 85.7394C17.9099 85.7394 10.8599 77.2994 18.7199 70.5694C30.9699 60.0794 17.5799 38.8894 11.6099 38.8594C9.68989 38.8494 13.2999 43.8294 14.8999 54.0194C15.6899 59.0694 12.4099 66.8794 11.9499 72.6494C11.2999 80.9494 14.3199 81.3194 17.9099 85.7394Z" fill="#F6CA15"/>
<path d="M9.93988 84.7297C9.93988 84.7297 -8.01015 84.2797 -16.1802 76.2097C-30.1602 62.3997 -19.4201 39.6997 -13.7601 39.7197C-11.3901 39.7197 -9.55015 45.4497 -12.2701 55.3997C-13.3801 59.4597 -14.8001 69.3597 -11.5601 73.6197C-5.82013 81.1597 9.93988 84.7297 9.93988 84.7297Z" fill="#F6CA15"/>
<g style="mix-blend-mode:multiply" opacity="0.3">
<path d="M26.03 62.6191C25.55 66.6091 24.01 70.3091 21.66 73.4791C17.52 75.6891 13.21 73.7491 13.63 70.9191C13.79 69.8391 15.93 61.9591 15.93 61.9591C15.93 61.9591 23.04 60.5191 26.04 62.5991L26.03 62.6191Z" fill="#50617D" fill-opacity="0.41"/>
</g>
<path d="M29.5599 55.8898C29.5599 56.2998 29.5599 56.6998 29.5399 57.1198C29.5399 57.3498 29.5099 57.5798 29.4899 57.7898C29.4899 57.9398 29.4699 58.0798 29.4599 58.2198C29.4599 58.3998 29.4299 58.5698 29.3999 58.7398C29.2899 59.7298 29.0999 60.6998 28.8699 61.6198C27.3299 67.5198 19.6099 74.0498 16.8199 73.5898C16.7399 73.5698 16.6599 73.4998 16.5999 73.3598C16.5299 73.2298 16.4599 73.0498 16.3999 72.8298C16.3999 72.7898 16.3799 72.7598 16.3699 72.7298C16.2799 72.3798 16.1899 71.9498 16.1099 71.4598C15.7999 69.4598 15.6199 66.6598 15.4899 65.9498C15.4499 65.7498 15.3399 65.1698 15.1899 64.3798C15.1699 64.2398 15.1399 64.0998 15.1099 63.9498C15.0899 63.8098 15.0699 63.6598 15.0399 63.5198C15.0199 63.4398 15.0099 63.3598 14.9899 63.2798C14.9499 63.0898 14.9199 62.8998 14.8899 62.7098C14.8699 62.5598 14.8399 62.3998 14.8199 62.2498C14.6799 61.4298 14.5399 60.5898 14.4399 59.8598C14.4199 59.7298 14.3999 59.5998 14.3799 59.4798C14.3299 59.1198 14.2899 58.7998 14.2699 58.5398C14.1899 57.5698 14.1399 56.5798 14.1899 55.5898C14.2599 53.4698 14.6699 51.6098 15.2099 49.9698V49.9498C15.6299 48.6798 16.1199 47.5298 16.6199 46.5798C16.6899 46.4498 16.7499 46.3298 16.8299 46.2098C16.8799 46.1198 16.9299 46.0298 16.9799 45.9498C17.3499 45.3398 17.7699 44.8398 18.1699 44.4398C18.2299 44.3798 18.2699 44.3298 18.3299 44.2798C18.5299 44.0898 18.7099 43.9298 18.8899 43.7898C18.9699 43.7198 19.0599 43.6698 19.1399 43.6098C19.2099 43.5498 19.2799 43.5198 19.3499 43.4698C19.3899 43.4398 19.4299 43.4098 19.4699 43.3998C19.6099 43.3198 19.7199 43.2598 19.8199 43.2298C19.9399 43.1898 20.0799 43.1498 20.2299 43.1198C20.7099 43.0098 21.2799 42.9598 21.9199 43.0198C22.1099 43.0398 22.2899 43.0698 22.4899 43.0998C22.7399 43.1398 22.9899 43.1998 23.2599 43.2898C23.5299 43.3698 23.8099 43.4898 24.0999 43.6398H24.1199C24.4399 43.7798 24.7599 43.9898 25.0799 44.2198C25.4199 44.4498 25.7399 44.7398 26.0699 45.0898L26.0999 45.1198C26.3099 45.3498 26.5099 45.5998 26.6999 45.8698C26.7999 45.9798 26.9099 46.1298 26.9999 46.2798C27.0699 46.3698 27.1599 46.4898 27.2299 46.6198C27.3499 46.8198 27.4499 47.0098 27.5699 47.2198C27.6799 47.4098 27.7799 47.6098 27.8799 47.8198C27.9899 48.0498 28.0899 48.2898 28.2099 48.5498C28.2999 48.7698 28.3899 49.0198 28.4799 49.2698C28.5799 49.5598 28.6799 49.8898 28.7799 50.1898C28.8899 50.6098 28.9999 51.0298 29.0999 51.4498C29.2099 51.9698 29.3099 52.4898 29.3799 53.0498C29.4199 53.2198 29.4299 53.4198 29.4499 53.5998C29.4699 53.7998 29.4999 53.9998 29.5199 54.1898C29.5199 54.2398 29.5199 54.2698 29.5199 54.3198C29.5599 54.8398 29.5799 55.3598 29.5799 55.9098L29.5599 55.8898Z" fill="#FFE887"/>
<path d="M28.68 56.5501V56.7201C28.68 56.7901 28.68 56.8401 28.68 56.9101C28.66 57.1301 28.66 57.3701 28.6399 57.6001C28.6399 57.7401 28.62 57.8701 28.61 58.0101C28.58 58.1901 28.5699 58.3501 28.5399 58.5201C28.4199 59.5101 28.25 60.4901 28 61.4201C26.58 66.9001 19.81 72.9501 16.61 73.3701C16.54 73.2401 16.47 73.0601 16.41 72.8401C16.41 72.8001 16.39 72.7701 16.38 72.7401C15.86 72.9201 15.41 73.0201 15.05 73.0001C15.01 72.7601 15.07 72.2401 15.15 71.6701C15.19 71.3901 15.24 71.0901 15.3 70.7901C14.88 70.9001 14.51 70.9701 14.21 70.9601C14.16 70.7101 14.21 70.1901 14.3 69.6201C14.49 68.3401 14.8699 66.6101 14.9799 65.9501C14.9999 65.8501 15.01 65.7501 15.02 65.6501C15.04 65.5201 15.06 65.3101 15.09 65.0701C15.12 64.8401 15.1399 64.6001 15.1399 64.3701C15.1399 64.2301 15.14 64.1001 15.12 63.9601C15.1 63.8201 15.08 63.6701 15.05 63.5301C15.03 63.4501 15.02 63.3701 15 63.2901C14.97 63.1001 14.93 62.9201 14.9 62.7201C14.88 62.5701 14.85 62.4101 14.83 62.2601C14.69 61.4401 14.5499 60.6001 14.4499 59.8701C14.4299 59.7401 14.4099 59.6101 14.3899 59.4901C14.3399 59.1301 14.3 58.8101 14.28 58.5501C14.2 57.5801 14.1499 56.5901 14.1999 55.6001C14.2699 53.4801 14.68 51.6201 15.22 49.9801V49.9601C15.64 48.6901 16.13 47.5401 16.63 46.5901C16.7 46.4601 16.76 46.3401 16.84 46.2201C16.89 46.1301 16.94 46.0401 16.99 45.9601C17.36 45.3501 17.78 44.8501 18.18 44.4501C18.24 44.3901 18.28 44.3401 18.34 44.2901C18.54 44.1001 18.72 43.9401 18.9 43.8001C18.98 43.7301 19.07 43.6801 19.15 43.6201C19.22 43.5601 19.29 43.5301 19.36 43.4801C19.4 43.4501 19.4399 43.4201 19.4799 43.4101C19.6199 43.3301 19.73 43.2701 19.83 43.2401C19.95 43.2001 20.09 43.1601 20.24 43.1301C20.72 43.0201 21.28 42.9601 21.93 43.0301C22.12 43.0501 22.3 43.0801 22.5 43.1101C22.75 43.1801 22.9899 43.2901 23.2599 43.4201C23.5999 43.5701 23.9 43.7701 24.22 44.0101C24.56 44.2501 24.8799 44.5301 25.1999 44.8801L25.24 44.9201C25.45 45.1401 25.6599 45.3801 25.8499 45.6601C25.9499 45.7801 26.0599 45.9101 26.1399 46.0601C26.2099 46.1701 26.31 46.2901 26.36 46.4101C26.49 46.5901 26.59 46.7901 26.71 47.0101C26.81 47.2101 26.9099 47.4101 27.0099 47.6101C27.1299 47.8501 27.22 48.0901 27.33 48.3401C27.44 48.5601 27.53 48.8101 27.61 49.0701C27.72 49.3401 27.7999 49.6701 27.9199 49.9901C28.0299 50.4101 28.1299 50.8201 28.2299 51.2401C28.3399 51.7601 28.43 52.2801 28.5 52.8301C28.54 53.0101 28.5599 53.2101 28.5699 53.3901C28.5699 53.4901 28.6 53.6001 28.61 53.7001C28.68 54.4701 28.71 55.7201 28.69 56.5701L28.68 56.5501Z" fill="#FFD62D"/>
</g>
</svg>
