<svg width="63" height="90" viewBox="0 0 63 90" fill="none" xmlns="http://www.w3.org/2000/svg">
<g filter="url(#filter0_d_408_339611)">
<path d="M20.1413 85.287C20.1413 85.287 18.0564 83.3556 22.1002 79.9266C22.1002 79.9266 21.4146 78.2191 19.5956 77.0155C18.3083 76.1617 11.6898 71.907 10.5424 66.2807C9.98275 63.4955 11.2281 60.6684 11.5779 60.1366C12.7393 58.3311 44.852 51.3052 48.1682 53.4746C51.4844 55.6439 53.4294 63.5375 53.4294 63.5375C53.4294 63.5375 56.9695 63.7335 58.4527 67.3444C59.698 70.3675 20.1273 85.287 20.1273 85.287H20.1413Z" fill="#5E0000"/>
<path d="M32.4406 41.8863C32.4406 41.8863 31.3072 41.5084 32.3566 39.283C33.9378 35.9101 32.4825 34.0486 32.5385 31.9492C32.5945 29.8499 25.6262 35.6022 25.6262 35.6022L28.6766 43.8177L32.4406 41.8863Z" fill="#5E0000"/>
<path d="M53.5275 79.7727C52.3102 79.9406 50.841 79.7167 49.0779 78.9889C38.7515 74.7202 52.2262 64.5732 52.2262 64.5732C52.2262 64.5732 52.716 64.6012 53.4436 64.7272C54.9967 64.9791 57.6133 65.6649 58.4669 67.3584C59.5163 69.4018 59.4603 78.9889 53.5415 79.7727H53.5275Z" fill="#721F1F"/>
<path d="M32.133 32.2852L30.9576 32.1592C30.9576 32.1592 31.1115 32.2712 31.3074 32.5231C31.8112 33.1809 32.6367 34.7624 31.6992 37.5896C29.8382 43.2439 11.7879 40.3048 8.37377 39.535C4.9736 38.7652 5.49132 34.5805 6.55475 32.0332C7.61818 29.486 13.0613 27.5966 15.9017 27.9745C18.7422 28.3663 21.4288 25.5532 21.4288 25.5532C21.1209 23.9157 28.383 8.47831 30.4119 6.32296C31.3214 5.37125 32.2589 4.22359 32.8046 3.22989C33.2524 3.04795 33.7002 2.97797 34.1199 3.00596C34.3298 3.00596 34.5397 3.06194 34.7496 3.13192C38.7095 4.48951 35.827 10.6337 35.911 12.6491C35.911 13.0409 36.0509 13.2649 36.3447 13.2929C39.2552 13.4888 45.5798 7.47062 48.3643 10.4517C48.7001 10.8156 48.882 11.2495 48.938 11.7533C49.4837 17.3237 33.98 30.7316 32.147 32.2992L32.133 32.2852Z" fill="#873333"/>
<path d="M52.9399 69.2343C52.1423 73.8249 50.785 76.932 49.0499 79.0033C46.8671 81.6066 44.0826 82.5303 41.1722 82.6003C40.9903 82.6003 40.8084 82.6003 40.6265 82.6003C39.0313 82.5863 37.4082 82.3203 35.8131 81.9704C31.9372 81.1027 28.2711 79.6332 25.8364 79.5212C25.8224 79.5212 25.7945 79.5212 25.7665 79.5212H25.7525C24.829 77.7017 26.676 73.2791 28.8868 69.1083C29.0827 68.7164 29.3345 68.3246 29.6004 67.9187C32.4689 63.58 38.4017 58.1776 35.925 55.7423C33.2245 53.0691 20.2954 65.9593 13.3971 57.8977C6.48483 49.8361 16.5454 48.4085 14.3766 47.9327C12.2078 47.4568 12.4316 45.6094 12.7395 45.9033C13.0473 46.2112 22.2404 45.9313 27.9493 43.482C29.1666 42.9642 30.3 42.2644 31.1256 41.3687C31.6293 41.5646 37.1004 43.678 40.2487 45.6234C46.5173 49.4862 49.7636 54.2448 51.4147 58.4715C52.3102 60.7668 52.744 62.9082 52.9399 64.6577C53.2337 67.4148 52.9399 69.2343 52.9399 69.2343Z" fill="#7B2525"/>
<path d="M29.6143 67.9184C29.3484 68.3243 29.1105 68.7161 28.9006 69.108C26.6898 73.2788 24.8428 77.7015 25.7663 79.5209C25.5844 79.5209 25.3885 79.4929 25.2066 79.4649C25.0807 79.4509 24.9548 79.4229 24.8288 79.395C24.7449 79.381 24.6609 79.353 24.591 79.339C24.563 79.339 24.549 79.339 24.521 79.325C24.437 79.311 24.3531 79.283 24.2831 79.255H24.2691C24.1572 79.213 24.0453 79.185 23.9333 79.143C23.7934 79.087 23.6535 79.0311 23.5275 78.9751C23.4016 78.9191 23.2757 78.8631 23.1497 78.7931C23.0378 78.7371 22.9259 78.6672 22.8279 78.6112C22.7579 78.5692 22.688 78.5412 22.632 78.4852C22.4641 78.3733 22.2822 78.2613 22.1283 78.1353C21.1208 77.3656 20.1973 76.3299 19.3438 75.1262C19.2178 74.9303 19.0779 74.7483 18.952 74.5524C18.91 74.4964 18.882 74.4404 18.8401 74.3845C18.5322 73.9086 18.2244 73.4047 17.9305 72.9009C17.7626 72.607 17.5807 72.2991 17.4128 71.9772C17.2869 71.7392 17.147 71.5013 17.021 71.2494C16.4194 70.1297 15.8317 68.9401 15.216 67.7364C15.146 67.5965 15.0761 67.4425 14.9921 67.2886C14.7962 66.8967 14.6003 66.5188 14.4044 66.1269C14.3625 66.0569 14.3345 65.987 14.2925 65.917C13.9987 65.3292 13.6908 64.7553 13.383 64.1675C13.2011 63.8316 13.0192 63.4817 12.8233 63.1598C12.6694 62.8799 12.5015 62.6 12.3335 62.3201C12.1656 62.0262 11.9837 61.7322 11.8158 61.4523C11.6479 61.1864 11.494 60.9205 11.3121 60.6546C6.20484 52.7609 10.7104 46.8127 10.8783 45.847C11.0462 44.8813 7.99588 42.516 7.99588 42.516C7.99588 42.516 5.74309 41.3264 4.27388 39.199C4.21791 39.115 4.14795 39.0311 4.09198 38.9331C4.00803 38.8071 3.93806 38.6812 3.8681 38.5552C3.82612 38.4992 3.79814 38.4292 3.77015 38.3593C3.56027 37.9674 3.39236 37.5475 3.26642 37.1136C3.23844 37.0157 3.21045 36.9177 3.18247 36.8197C3.18247 36.8197 3.18247 36.7917 3.18247 36.7777H3.15448C3.14049 36.7078 3.1265 36.6238 3.11251 36.5538C3.09851 36.4838 3.08452 36.4278 3.07053 36.3579C3.07053 36.3019 3.05654 36.2459 3.04254 36.1899C3.00057 35.812 2.98657 35.4202 3.01456 35.0143C3.01456 34.9023 3.02855 34.8043 3.04254 34.6924C3.05654 34.5384 3.08452 34.3845 3.1265 34.2165C3.15448 34.0766 3.19646 33.9366 3.23844 33.7826C3.4903 32.9009 4.86157 32.537 5.56119 31.5153C10.8084 23.9436 18.1824 28.2823 19.1479 24.8813C20.3372 20.6546 27.4034 5.3012 32.8045 3.25781C32.2588 4.25151 31.3213 5.38517 30.4118 6.35088C28.3689 8.50624 21.1068 23.9436 21.4287 25.5811C21.4287 25.5811 18.7421 28.3943 15.9016 28.0024C13.0612 27.6105 7.61808 29.5139 6.55466 32.0612C5.49123 34.6084 4.95951 38.7931 8.37368 39.5629C11.7878 40.3327 29.8381 43.2718 31.6991 37.6175C32.6366 34.7903 31.8251 33.2088 31.3073 32.551C31.1115 32.3131 30.9575 32.1871 30.9575 32.1871L32.1329 32.3131C32.1329 32.3131 32.021 32.4111 31.993 32.439C31.965 32.453 31.951 32.467 31.951 32.467C31.951 32.467 32.9445 33.6287 32.7486 36.9877C32.6786 38.0794 32.4827 38.9331 32.2448 39.5769C32.2169 39.6609 32.1889 39.7589 32.1469 39.8288C32.049 40.0808 31.923 40.3187 31.7831 40.5426C31.6432 40.7805 31.5172 40.9625 31.3913 41.0884C31.3633 41.1164 31.3493 41.1444 31.3213 41.1724C31.1814 41.3264 31.0835 41.3964 31.0835 41.3964C31.0835 41.3964 31.0835 41.3964 31.1254 41.3964C30.2999 42.2921 29.1665 42.9779 27.9492 43.5097C22.2402 45.973 13.0472 46.2389 12.7393 45.931C12.4315 45.6371 12.2076 47.4845 14.3765 47.9604C16.5453 48.4362 6.49869 49.8638 13.397 57.9254C20.2953 65.987 33.2243 53.0968 35.9249 55.77C38.4015 58.2053 32.4687 63.6077 29.6003 67.9464L29.6143 67.9184Z" fill="#7B2E2E"/>
<path d="M32.147 32.2849C32.147 32.2849 32.0351 32.3829 32.0071 32.4109C31.7552 32.4809 31.5173 32.5229 31.3074 32.5229C31.1116 32.5229 30.9297 32.5229 30.7757 32.4669C30.0201 32.2429 27.4735 32.7748 27.6694 31.4732C28.467 26.3087 38.1778 13.3206 44.5443 11.5571C47.1189 10.8434 48.4202 11.0533 48.938 11.7531C49.4837 17.3234 33.98 30.7314 32.147 32.2989V32.2849Z" fill="#6D1717"/>
<path d="M30.2301 30.9833C30.2301 30.9833 49.3158 16.5397 47.7627 13.4746C46.2095 10.4095 27.5295 31.4172 30.2301 30.9833Z" fill="#7B2E2E"/>
<path d="M35.9112 12.6495C33.6724 14.5249 30.664 17.2261 28.7331 20.725C24.2135 28.9126 23.248 27.499 23.248 27.499C22.1426 26.8552 25.3329 18.6676 25.7667 17.492C26.1585 16.4703 30.9859 6.01544 34.1202 3.00635C34.3301 3.00635 34.5399 3.06233 34.7498 3.13231C38.7097 4.4899 35.8273 10.6341 35.9112 12.6495Z" fill="#6D1717"/>
<path d="M11.914 29.0521C11.914 29.0521 16.9094 27.8066 15.72 30.7314C14.5306 33.6561 9.9271 34.9156 8.49987 34.4818C7.07264 34.048 8.6258 30.6894 11.914 29.0521Z" fill="#7B2525"/>
<path d="M29.6143 67.9184C29.3484 68.3243 29.1105 68.7161 28.9006 69.108C26.6898 73.2788 24.8428 77.7015 25.7663 79.5209C25.5844 79.5209 25.3885 79.4929 25.2066 79.4649C25.0807 79.4509 24.9548 79.4229 24.8288 79.395C24.7449 79.381 24.6609 79.353 24.591 79.339C24.563 79.339 24.549 79.339 24.521 79.325C24.437 79.311 24.3531 79.283 24.2831 79.255H24.2691C24.1572 79.213 24.0453 79.185 23.9333 79.143C23.7934 79.087 23.6535 79.0311 23.5275 78.9751C23.4016 78.9191 23.2757 78.8631 23.1497 78.7931C23.0378 78.7371 22.9259 78.6672 22.8279 78.6112C22.7579 78.5692 22.688 78.5412 22.632 78.4852C22.4641 78.3733 22.2822 78.2613 22.1283 78.1353C21.1208 77.3656 20.1973 76.3299 19.3438 75.1262C19.2178 74.9303 19.0779 74.7483 18.952 74.5524C18.91 74.4964 18.882 74.4404 18.8401 74.3845C18.5322 73.9086 18.2244 73.4047 17.9305 72.9009C17.7626 72.607 17.5807 72.2991 17.4128 71.9772C17.2869 71.7392 17.147 71.5013 17.021 71.2494C16.4194 70.1297 15.8317 68.9401 15.216 67.7364C15.146 67.5965 15.0761 67.4425 14.9921 67.2886C14.7962 66.8967 14.6003 66.5188 14.4044 66.1269C14.3625 66.0569 14.3345 65.987 14.2925 65.917C13.9987 65.3292 13.6908 64.7553 13.383 64.1675C13.2011 63.8316 13.0192 63.4817 12.8233 63.1598C12.6694 62.8799 12.5015 62.6 12.3335 62.3201C12.1656 62.0262 11.9837 61.7322 11.8158 61.4523C11.6479 61.1864 11.494 60.9205 11.3121 60.6546C6.20484 52.7609 10.7104 46.8127 10.8783 45.847C11.0462 44.8813 7.99588 42.516 7.99588 42.516C7.99588 42.516 5.74309 41.3264 4.27388 39.199C4.21791 39.115 4.14795 39.0311 4.09198 38.9331C4.00803 38.8071 3.93806 38.6812 3.8681 38.5552C3.82612 38.4992 3.79814 38.4292 3.77015 38.3593C3.56027 37.9674 3.39236 37.5475 3.26642 37.1136C3.23844 37.0157 3.21045 36.9177 3.18247 36.8197C3.18247 36.8197 3.18247 36.7917 3.18247 36.7777H3.15448C3.14049 36.7078 3.1265 36.6238 3.11251 36.5538C3.09851 36.4838 3.08452 36.4278 3.07053 36.3579C3.07053 36.3019 3.05654 36.2459 3.04254 36.1899C3.00057 35.812 2.98657 35.4202 3.01456 35.0143C3.01456 34.9023 3.02855 34.8043 3.04254 34.6924C3.05654 34.5384 3.08452 34.3845 3.1265 34.2165C3.15448 34.0766 3.19646 33.9366 3.23844 33.7826C3.4903 32.9009 4.86157 32.537 5.56119 31.5153C10.8084 23.9436 18.1824 28.2823 19.1479 24.8813C20.3372 20.6546 27.4034 5.3012 32.8045 3.25781C32.2588 4.25151 31.3213 5.38517 30.4118 6.35088C28.3689 8.50624 21.1068 23.9436 21.4287 25.5811C21.4287 25.5811 18.7421 28.3943 15.9016 28.0024C13.0612 27.6105 7.61808 29.5139 6.55466 32.0612C5.49123 34.6084 4.95951 38.7931 8.37368 39.5629C11.7878 40.3327 29.8381 43.2718 31.6991 37.6175C32.6366 34.7903 31.8251 33.2088 31.3073 32.551C31.1115 32.3131 30.9575 32.1871 30.9575 32.1871L32.1329 32.3131C32.1329 32.3131 32.021 32.4111 31.993 32.439C31.965 32.453 31.951 32.467 31.951 32.467C31.951 32.467 32.9445 33.6287 32.7486 36.9877C32.6786 38.0794 32.4827 38.9331 32.2448 39.5769C32.2169 39.6609 32.1889 39.7589 32.1469 39.8288C32.049 40.0808 31.923 40.3187 31.7831 40.5426C31.6712 40.7386 31.5452 40.9065 31.3913 41.0884C31.3633 41.1164 31.3493 41.1444 31.3213 41.1724C31.2654 41.2424 31.1954 41.3264 31.1254 41.3964C30.2999 42.2921 29.1665 42.9779 27.9492 43.5097C22.2402 45.973 13.0472 46.2389 12.7393 45.931C12.4315 45.6371 12.2076 47.4845 14.3765 47.9604C16.5453 48.4362 6.49869 49.8638 13.397 57.9254C20.2953 65.987 33.2243 53.0968 35.9249 55.77C38.4015 58.2053 32.4687 63.6077 29.6003 67.9464L29.6143 67.9184Z" fill="#6D1717"/>
<path d="M46.3494 79.3811C46.2515 79.8009 46.1116 80.2068 45.9436 80.5707C45.5798 81.3545 43.2991 81.9703 41.1862 82.5861C39.2692 83.1319 37.4922 83.6918 37.4362 84.3636C37.2963 85.7911 19.8617 89.444 19.9036 84.3636C19.9456 79.395 26.9838 80.8086 27.3336 80.8646C27.2357 80.7946 26.5361 80.3048 25.7805 79.507C24.2273 77.8555 22.4083 74.8884 24.9969 71.5574C30.7618 64.1536 38.8774 69.0242 43.0612 70.5777C46.0556 71.6834 47.147 76.162 46.3494 79.3811Z" fill="#873333"/>
<path d="M19.3859 77.4633C19.26 84.0133 14.0268 85.7068 11.3822 85.8327C9.61917 85.9167 8.76563 84.6711 9.22738 83.2995C9.46525 82.5997 10.025 81.8719 10.9764 81.2561C13.8169 79.4507 12.7815 73.7124 11.2003 67.9321C9.95499 63.3835 12.3897 60.7383 12.6555 60.7383C15.58 60.7383 18.6303 68.324 19.246 74.3562C19.3579 75.4339 19.3999 76.4836 19.3859 77.4633Z" fill="#873333"/>
<path d="M53.5276 79.7725C57.2077 78.7788 58.1312 71.7809 57.5575 69.0098C56.9838 66.2526 54.4931 65.4128 53.4297 64.7271C54.9829 64.979 57.5994 65.6648 58.453 67.3583C59.5024 69.4016 59.4465 78.9888 53.5276 79.7725Z" fill="#7B2E2E"/>
<path d="M52.94 69.2341C52.1424 73.8247 50.7851 76.9318 49.05 79.0032C46.8672 81.6064 44.0827 82.5301 41.1723 82.6001C39.2553 83.1459 37.4783 83.7058 37.4223 84.3776C37.2824 85.8051 19.8477 89.458 19.8897 84.3776C19.8897 84.3776 26.7181 87.0088 31.3636 85.0214C33.8822 83.9437 35.0156 82.852 35.7992 81.9703C36.4708 81.2145 36.8766 80.6127 37.6462 80.2768C38.8076 79.773 43.0193 80.6547 46.3215 79.3951C47.8187 78.8212 49.148 77.8135 49.9036 76.0221C52.3383 70.2838 52.4922 62.4322 51.4008 58.4854C52.2963 60.7807 52.7301 62.908 52.926 64.6715C53.2198 67.4287 52.926 69.2481 52.926 69.2481L52.94 69.2341Z" fill="#6D1717"/>
<path d="M19.3859 77.4633C19.26 84.0126 14.0268 85.7059 11.3822 85.8318C9.61917 85.9158 8.76563 84.6703 9.22738 83.2989C9.22738 83.2989 9.33932 85.398 11.8999 84.1105C14.4746 82.8231 19.0641 81.8995 19.246 74.3706C19.3579 75.4342 19.3999 76.4837 19.3859 77.4773V77.4633Z" fill="#6D1717"/>
<path d="M10.2488 31.5713C10.2488 31.5713 10.9628 32.2713 12.0828 32.4113C12.8248 32.4953 13.8188 32.2293 14.3928 31.4873C14.3928 31.4873 12.8948 32.0753 12.2648 32.0613C11.7328 32.0613 10.2488 31.5853 10.2488 31.5853V31.5713Z" fill="#5E0000"/>
<path d="M4.69467 35.0145C4.19067 35.4205 3.15467 35.7985 3.16867 36.7645C2.98667 35.9805 2.94467 35.1265 3.14067 34.1885C3.14067 34.1885 3.39267 35.0985 4.28867 34.4405C5.18467 33.7825 5.18467 34.6225 4.69467 35.0145Z" fill="#5E0000"/>
</g>
<defs>
<filter id="filter0_d_408_339611" x="0.73" y="0.3" width="61.4" height="89.4" filterUnits="userSpaceOnUse" color-interpolation-filters="sRGB">
<feFlood flood-opacity="0" result="BackgroundImageFix"/>
<feColorMatrix in="SourceAlpha" type="matrix" values="0 0 0 0 0 0 0 0 0 0 0 0 0 0 0 0 0 0 127 0" result="hardAlpha"/>
<feMorphology radius="1" operator="dilate" in="SourceAlpha" result="effect1_dropShadow_408_339611"/>
<feOffset dx="0.43"/>
<feGaussianBlur stdDeviation="0.85"/>
<feComposite in2="hardAlpha" operator="out"/>
<feColorMatrix type="matrix" values="0 0 0 0 0.132578 0 0 0 0 0.132578 0 0 0 0 0.253333 0 0 0 0.54 0"/>
<feBlend mode="normal" in2="BackgroundImageFix" result="effect1_dropShadow_408_339611"/>
<feBlend mode="normal" in="SourceGraphic" in2="effect1_dropShadow_408_339611" result="shape"/>
</filter>
</defs>
</svg>
