<svg width="63" height="76" viewBox="0 0 63 76" fill="none" xmlns="http://www.w3.org/2000/svg">
<path d="M62.2388 27.9161C62.3887 30.7258 60.6703 33.4055 57.873 34.3454L47.8325 37.725C46.5338 38.1549 45.5247 39.1548 45.0552 40.3847C45.0552 40.3847 45.0552 40.3847 45.0552 40.4047C44.8554 40.9146 44.7455 41.4645 44.7455 42.0345V48.4837C44.7455 50.2235 45.2749 51.9033 46.284 53.3232L53.4872 63.522C55.6052 66.5317 54.9857 70.2812 52.7379 72.571C51.509 73.8308 49.7707 74.6507 47.7326 74.6507C46.6436 74.6507 45.5847 74.4308 44.6056 74.0208C43.2369 73.4409 42.028 72.481 41.1489 71.2311L35.5742 63.332C34.735 62.1522 33.3663 61.4422 31.9176 61.4422H30.6588C30.1193 61.4422 29.5798 61.5422 29.0803 61.7322C29.0803 61.7322 29.0603 61.7322 29.0503 61.7522C28.2411 62.0622 27.5118 62.6121 27.0023 63.342L20.2387 72.9209C17.8809 76.2605 13.2254 77.0105 9.93849 74.5407C7.12116 72.421 6.40184 68.5514 7.88043 65.4418C8.07025 65.0418 8.29005 64.6519 8.54981 64.2919L16.1726 53.5032C17.1816 52.0833 17.7111 50.3935 17.7111 48.6637V42.0145C17.7111 40.0647 16.4723 38.3249 14.614 37.705L4.68347 34.3654C1.74626 33.3755 -0.0120732 30.4658 0.357576 27.4961V27.4661C0.417519 26.9962 0.537406 26.5163 0.717235 26.0463C1.92609 22.7567 5.7025 21.1569 9.02935 22.2767L18.5603 25.4764C19.6093 25.8363 20.6683 26.0963 21.7573 26.2963C23.2758 25.0864 21.9671 24.2865 21.9671 24.2865C18.9499 21.7368 17.0417 18.0272 17.0417 13.8677C17.0417 7.50844 21.4975 2.15905 27.5717 0.529239H27.5917C28.6008 0.25927 29.6598 0.0992888 30.7587 0.0492946C30.9885 0.0492946 31.2183 0.0292969 31.4581 0.0292969C39.4105 0.0292969 45.8544 6.21859 45.8544 13.8777C45.8544 18.4172 43.5766 22.4167 40.0799 24.9464H40.0999C40.0999 24.9464 39.2706 25.8063 40.3796 26.4263C40.6693 26.3763 40.9491 26.3263 41.2388 26.2663C42.108 26.0863 42.9671 25.8563 43.8063 25.5764L53.5871 22.2967C56.9139 21.1769 60.6803 22.7667 61.8992 26.0663C62.1389 26.6862 62.2588 27.3162 62.2888 27.9461L62.2388 27.9161Z" fill="#BD864D"/>
<g style="mix-blend-mode:multiply">
<path d="M34.4258 30.4055C34.4258 30.9355 34.246 31.4255 33.9462 31.8155C33.5366 32.3555 32.8671 32.7155 32.1277 32.7155C30.8588 32.7155 29.8297 31.6755 29.8297 30.4055C29.8297 29.3555 30.5291 28.4755 31.4983 28.1955C31.6981 28.1355 31.9079 28.1055 32.1277 28.1055C33.3967 28.1055 34.4258 29.1455 34.4258 30.4055Z" fill="#CCC188"/>
</g>
<g style="mix-blend-mode:multiply">
<path d="M34.4258 38.6555C34.4258 39.1855 34.246 39.6755 33.9462 40.0655C33.5366 40.6055 32.8671 40.9655 32.1277 40.9655C30.8588 40.9655 29.8297 39.9255 29.8297 38.6555C29.8297 37.6055 30.5291 36.7255 31.4983 36.4455C31.6981 36.3855 31.9079 36.3555 32.1277 36.3555C33.3967 36.3555 34.4258 37.3955 34.4258 38.6555Z" fill="#CCC188"/>
</g>
<g style="mix-blend-mode:multiply">
<path d="M34.4258 46.8938C34.4258 47.4238 34.246 47.9138 33.9462 48.3038C33.5366 48.8438 32.8671 49.2038 32.1277 49.2038C30.8588 49.2038 29.8297 48.1638 29.8297 46.8938C29.8297 45.8438 30.5291 44.9638 31.4983 44.6838C31.6981 44.6238 31.9079 44.5938 32.1277 44.5938C33.3967 44.5938 34.4258 45.6338 34.4258 46.8938Z" fill="#CCC188"/>
</g>
<path d="M34.6458 30.2863C34.6458 30.8163 34.466 31.3063 34.1662 31.6963C33.7566 32.2363 33.0871 32.5963 32.3477 32.5963C31.0788 32.5963 30.0497 31.5563 30.0497 30.2863C30.0497 29.2363 30.7491 28.3563 31.7183 28.0763C31.9181 28.0163 32.1279 27.9863 32.3477 27.9863C33.6167 27.9863 34.6458 29.0263 34.6458 30.2863Z" fill="#FF78E5"/>
<path d="M34.6458 38.5363C34.6458 39.0663 34.4659 39.5563 34.1662 39.9463C33.7565 40.4863 33.0871 40.8463 32.3477 40.8463C31.0788 40.8463 30.0496 39.8063 30.0496 38.5363C30.0496 37.4863 30.749 36.6063 31.7182 36.3263C31.9181 36.2663 32.1279 36.2363 32.3477 36.2363C33.6166 36.2363 34.6458 37.2763 34.6458 38.5363Z" fill="#FF78E5"/>
<path d="M34.6458 46.7844C34.6458 47.3144 34.4659 47.8044 34.1662 48.1944C33.7565 48.7344 33.0871 49.0944 32.3477 49.0944C31.0788 49.0944 30.0496 48.0544 30.0496 46.7844C30.0496 45.7344 30.749 44.8544 31.7182 44.5744C31.9181 44.5144 32.1279 44.4844 32.3477 44.4844C33.6166 44.4844 34.6458 45.5244 34.6458 46.7844Z" fill="#FF78E5"/>
<path d="M34.6456 30.2863C34.6456 30.8163 34.4658 31.3063 34.166 31.6963C33.9562 31.7563 33.7563 31.7863 33.5265 31.7863C32.2676 31.7863 31.2285 30.7563 31.2285 29.4863C31.2285 28.9663 31.4083 28.4663 31.718 28.0763C31.9179 28.0163 32.1277 27.9863 32.3475 27.9863C33.6165 27.9863 34.6456 29.0263 34.6456 30.2863Z" fill="#FFA1ED"/>
<path d="M34.6454 38.5344C34.6454 39.0644 34.4656 39.5544 34.1658 39.9444C33.956 40.0044 33.7562 40.0344 33.5264 40.0344C32.2674 40.0344 31.2283 39.0044 31.2283 37.7344C31.2283 37.2144 31.4081 36.7144 31.7179 36.3244C31.9177 36.2644 32.1275 36.2344 32.3473 36.2344C33.6163 36.2344 34.6454 37.2744 34.6454 38.5344Z" fill="#FFA1ED"/>
<path d="M34.6454 46.7844C34.6454 47.3144 34.4656 47.8044 34.1658 48.1944C33.956 48.2544 33.7562 48.2844 33.5264 48.2844C32.2674 48.2844 31.2283 47.2444 31.2283 45.9844C31.2283 45.4644 31.4081 44.9644 31.7179 44.5744C31.9177 44.5144 32.1275 44.4844 32.3473 44.4844C33.6163 44.4844 34.6454 45.5244 34.6454 46.7844Z" fill="#FFA1ED"/>
<path d="M28.1514 12.5393C28.9129 12.5393 29.5303 11.9214 29.5303 11.1593C29.5303 10.3971 28.9129 9.7793 28.1514 9.7793C27.3899 9.7793 26.7726 10.3971 26.7726 11.1593C26.7726 11.9214 27.3899 12.5393 28.1514 12.5393Z" fill="white"/>
<path d="M36.4635 12.7405C37.225 12.7405 37.8424 12.1226 37.8424 11.3605C37.8424 10.5983 37.225 9.98047 36.4635 9.98047C35.702 9.98047 35.0847 10.5983 35.0847 11.3605C35.0847 12.1226 35.702 12.7405 36.4635 12.7405Z" fill="white"/>
<path d="M25.5137 16.5391C27.5218 18.1289 29.7397 19.6787 32.3672 19.5987C33.636 19.5387 34.8948 19.4687 36.1136 19.0488C37.3425 18.5988 38.2116 17.5889 38.9709 16.5591L39.0609 16.5891C38.2017 19.1988 34.9448 20.6586 32.3372 20.3986C29.6498 20.1786 26.5827 19.2987 25.4238 16.5991L25.5037 16.5491L25.5137 16.5391Z" fill="white"/>
<path d="M4.6036 24.368L10.4088 26.558C10.6585 26.658 10.9483 26.528 11.0482 26.268C11.1481 26.008 11.0183 25.728 10.7585 25.628L4.95331 23.438C4.70351 23.338 4.41376 23.468 4.31384 23.728C4.21392 23.988 4.34382 24.268 4.6036 24.368Z" fill="white"/>
<path d="M2.66566 27.2967L9.8097 29.1267C10.0695 29.1967 10.3393 29.0367 10.4092 28.7667C10.4791 28.5067 10.3193 28.2367 10.0495 28.1667L2.90546 26.3367C2.64568 26.2667 2.37591 26.4267 2.30597 26.6967C2.23602 26.9567 2.39588 27.2267 2.66566 27.2967Z" fill="white"/>
<path d="M2.46566 30.9577L8.57057 31.7777C8.84034 31.8177 9.09014 31.6277 9.12011 31.3577C9.15009 31.0877 8.97023 30.8377 8.70046 30.8077L2.59555 29.9877C2.32577 29.9477 2.07599 30.1377 2.04601 30.4077C2.01604 30.6777 2.19588 30.9277 2.46566 30.9577Z" fill="white"/>
<path d="M52.0586 26.6973L56.8846 23.8473C57.1144 23.7073 57.1943 23.4073 57.0545 23.1673C56.9146 22.9273 56.6148 22.8573 56.375 22.9973L51.5491 25.8473C51.3193 25.9873 51.2393 26.2873 51.3792 26.5273C51.5191 26.7673 51.8188 26.8373 52.0586 26.6973Z" fill="white"/>
<path d="M53.3474 29.1184L59.3824 26.5584C59.6322 26.4484 59.7521 26.1584 59.6422 25.9084C59.5322 25.6584 59.2425 25.5384 58.9927 25.6484L52.9577 28.2084C52.7079 28.3184 52.588 28.6084 52.698 28.8584C52.8079 29.1084 53.0976 29.2284 53.3474 29.1184Z" fill="white"/>
<path d="M54.3364 31.9564L59.8019 30.9064C60.0717 30.8564 60.2415 30.5964 60.1916 30.3264C60.1416 30.0564 59.8818 29.8864 59.612 29.9364L54.1466 30.9864C53.8768 31.0364 53.707 31.2964 53.7569 31.5664C53.8069 31.8364 54.0667 32.0064 54.3364 31.9564Z" fill="white"/>
<path d="M8.42005 69.4729L11.7972 66.4029C11.9971 66.2229 12.0171 65.9029 11.8272 65.7029C11.6474 65.5029 11.3276 65.4829 11.1278 65.6729L7.75061 68.7429C7.55078 68.9229 7.5308 69.2429 7.72064 69.4429C7.90049 69.6429 8.22022 69.6629 8.42005 69.4729Z" fill="white"/>
<path d="M10.0885 72.9237L14.0851 68.7037C14.275 68.5037 14.265 68.1937 14.0652 68.0037C13.8653 67.8137 13.5556 67.8237 13.3657 68.0237L9.36908 72.2437C9.17924 72.4437 9.18923 72.7537 9.38906 72.9437C9.58889 73.1337 9.89863 73.1237 10.0885 72.9237Z" fill="white"/>
<path d="M13.3754 74.562L16.0531 69.812C16.183 69.572 16.1031 69.272 15.8633 69.142C15.6235 69.012 15.3237 69.092 15.1938 69.332L12.5161 74.082C12.3862 74.322 12.4661 74.622 12.7059 74.752C12.9457 74.882 13.2455 74.802 13.3754 74.562Z" fill="white"/>
<path d="M17.4715 74.1931L18.3507 70.5931C18.4107 70.3331 18.2508 70.0631 17.991 69.9931C17.7313 69.9331 17.4615 70.0931 17.3916 70.3531L16.5123 73.9531C16.4523 74.2131 16.6122 74.4831 16.872 74.5531C17.1318 74.6131 17.4015 74.4531 17.4715 74.1931Z" fill="white"/>
<path d="M43.7364 69.8632L45.485 73.4232C45.6049 73.6632 45.9046 73.7732 46.1444 73.6532C46.3842 73.5332 46.4941 73.2332 46.3742 72.9932L44.6257 69.4332C44.5058 69.1932 44.206 69.0832 43.9662 69.2032C43.7264 69.3232 43.6165 69.6232 43.7364 69.8632Z" fill="white"/>
<path d="M45.8145 68.5327L48.8319 73.2827C48.9818 73.5127 49.2816 73.5827 49.5114 73.4327C49.7412 73.2827 49.8111 72.9827 49.6613 72.7527L46.6438 68.0027C46.4939 67.7727 46.1941 67.7027 45.9643 67.8527C45.7345 68.0027 45.6646 68.3027 45.8145 68.5327Z" fill="white"/>
<path d="M48.2022 67.5431L51.6593 71.5431C51.8392 71.7531 52.1489 71.7731 52.3588 71.5931C52.5686 71.4131 52.5886 71.1031 52.4087 70.8931L48.9516 66.8931C48.7717 66.6831 48.462 66.6631 48.2522 66.8431C48.0424 67.0231 48.0224 67.3331 48.2022 67.5431Z" fill="white"/>
<path d="M50.4101 66.0327L53.2977 68.0327C53.5175 68.1827 53.8273 68.1327 53.9871 67.9127C54.137 67.6927 54.087 67.3827 53.8672 67.2227L50.9796 65.2227C50.7598 65.0727 50.4501 65.1227 50.2902 65.3427C50.1403 65.5627 50.1903 65.8727 50.4101 66.0327Z" fill="white"/>
<path d="M11.7368 61.2944C11.7368 61.2944 11.6669 61.5944 11.6669 61.9843C11.6669 62.3843 11.7268 62.9042 11.9966 63.4342C12.2663 63.9541 12.7658 64.454 13.5351 64.734C14.3244 65.014 15.0437 65.014 15.6431 65.044C16.2525 65.074 16.7021 65.124 17.0717 65.3739C17.2815 65.5139 17.4714 65.7739 17.6512 66.1138C17.9209 66.6238 18.1507 67.3037 18.5803 67.9136C18.8001 68.2136 19.0698 68.4936 19.4395 68.7035C19.7992 68.9035 20.2487 69.0235 20.7582 69.0235C20.8981 69.0235 21.058 69.0235 21.2078 68.9935C21.4776 68.9635 21.6774 68.7235 21.6374 68.4436C21.6074 68.1736 21.3677 67.9736 21.0879 68.0136C20.968 68.0236 20.8482 68.0336 20.7483 68.0336C20.2587 68.0336 19.969 67.9036 19.7192 67.7137C19.3496 67.4237 19.0898 66.8838 18.8201 66.2738C18.5404 65.6739 18.2606 65.004 17.6312 64.564C16.9918 64.1341 16.3125 64.0941 15.693 64.0641C15.0636 64.0341 14.4642 64.0241 13.8748 63.8141C13.3253 63.6141 13.0456 63.3142 12.8757 62.9942C12.7059 62.6642 12.6559 62.2943 12.6559 62.0043C12.6559 61.8543 12.6659 61.7344 12.6759 61.6444L12.6959 61.5444V61.5244C12.7558 61.2544 12.596 60.9944 12.3262 60.9344C12.0565 60.8744 11.7967 61.0344 11.7368 61.3044V61.2944Z" fill="white"/>
<path d="M51.5091 35.456C51.5091 35.456 51.6589 34.7561 51.6589 33.9962C51.6589 33.6162 51.629 33.2062 51.4991 32.8363C51.2193 32.0364 50.7398 31.5164 50.3502 31.0965C49.9606 30.6665 49.6808 30.3466 49.5809 29.9066C49.5509 29.7866 49.5409 29.6667 49.5409 29.5467C49.5409 29.2167 49.6309 28.8267 49.7408 28.4068C49.8507 27.9868 49.9705 27.5269 49.9705 27.027C49.9705 26.667 49.9006 26.287 49.7208 25.9271C49.531 25.5571 49.2412 25.2172 48.8216 24.8972C48.6018 24.7272 48.2921 24.7772 48.1323 24.9872C47.9624 25.2072 48.0124 25.5171 48.2222 25.6771C48.5519 25.9271 48.7317 26.1571 48.8416 26.367C48.9515 26.577 48.9915 26.787 48.9915 27.027C48.9915 27.3569 48.9015 27.7369 48.7916 28.1568C48.6818 28.5768 48.5619 29.0367 48.5619 29.5367C48.5619 29.7266 48.5818 29.9266 48.6218 30.1266C48.7916 30.8665 49.2412 31.3465 49.6209 31.7664C50.0105 32.1964 50.3602 32.5763 50.57 33.1662C50.6399 33.3662 50.6799 33.6862 50.6799 34.0062C50.6799 34.3261 50.6499 34.6461 50.6199 34.8861C50.5999 35.006 50.5899 35.106 50.58 35.176L50.56 35.276C50.51 35.546 50.6799 35.8059 50.9396 35.8559C51.2094 35.9059 51.4691 35.736 51.5191 35.476L51.5091 35.456Z" fill="white"/>
<path d="M12.3562 35.1572L12.3362 35.0572C12.2963 34.8573 12.2264 34.3773 12.2264 33.8974C12.2264 33.5774 12.2663 33.2674 12.3362 33.0675C12.546 32.4775 12.8957 32.0976 13.2854 31.6676C13.665 31.2477 14.1146 30.7677 14.2844 30.0278C14.3344 29.8278 14.3443 29.6379 14.3443 29.4479C14.3443 28.9479 14.2245 28.488 14.1146 28.068C14.0047 27.6481 13.9148 27.2681 13.9148 26.9382C13.9148 26.6982 13.9547 26.4982 14.0646 26.2782C14.1745 26.0683 14.3543 25.8383 14.684 25.5883C14.9038 25.4183 14.9438 25.1184 14.7739 24.8984C14.6041 24.6784 14.3044 24.6384 14.0846 24.8084C13.665 25.1284 13.3753 25.4683 13.1854 25.8383C12.9956 26.2082 12.9257 26.5882 12.9357 26.9382C12.9357 27.4381 13.0556 27.8981 13.1655 28.318C13.2754 28.738 13.3653 29.1179 13.3653 29.4579C13.3653 29.5879 13.3553 29.7078 13.3253 29.8178C13.2254 30.2578 12.9457 30.5877 12.556 31.0077C12.1664 31.4276 11.6869 31.9476 11.4071 32.7475C11.2773 33.1275 11.2473 33.5274 11.2473 33.9074C11.2473 34.6673 11.3872 35.3472 11.3971 35.3672C11.4471 35.6372 11.7168 35.8071 11.9766 35.7472C12.2463 35.6972 12.4162 35.4272 12.3562 35.1672V35.1572Z" fill="white"/>
<path d="M49.1413 60.7844C49.1413 60.7844 49.1813 61.0043 49.1813 61.2543C49.1813 61.5443 49.1313 61.9242 48.9615 62.2442C48.7917 62.5742 48.5119 62.8641 47.9624 63.0641C47.363 63.2841 46.7736 63.2941 46.1442 63.3141C45.5248 63.3441 44.8454 63.3841 44.206 63.814C43.7864 64.104 43.5167 64.5139 43.3069 64.9139C42.9972 65.5238 42.7674 66.1638 42.4577 66.5937C42.2978 66.8137 42.128 66.9737 41.9282 67.0936C41.7184 67.2136 41.4586 67.2836 41.089 67.2836C40.9891 67.2836 40.8692 67.2836 40.7493 67.2636C40.4796 67.2336 40.2298 67.4236 40.1998 67.6936C40.1699 67.9635 40.3597 68.2035 40.6294 68.2435C40.7893 68.2635 40.9391 68.2735 41.079 68.2735C41.7583 68.2735 42.3178 68.0635 42.7274 67.7336C43.3468 67.2236 43.6366 66.5337 43.9063 65.9338C44.176 65.3339 44.4358 64.8439 44.7555 64.6339C45.1252 64.384 45.5747 64.324 46.1841 64.304C46.7836 64.274 47.5129 64.274 48.2921 63.994C49.0614 63.724 49.5609 63.2241 49.8307 62.6942C50.1004 62.1742 50.1604 61.6443 50.1604 61.2443C50.1604 60.8444 50.1004 60.5744 50.0904 60.5544C50.0305 60.2844 49.7608 60.1244 49.501 60.1844C49.2313 60.2444 49.0714 60.5144 49.1314 60.7744L49.1413 60.7844Z" fill="white"/>
<g style="mix-blend-mode:multiply">
<path d="M22.9062 24.0971C22.9062 24.0971 23.8553 26.0368 21.7173 26.2768C23.2359 25.0669 21.9271 24.267 21.9271 24.267C18.91 21.7173 17.0018 18.0078 17.0018 13.8482C17.0018 7.48896 21.4576 2.13958 27.5318 0.509766C27.0423 0.72974 19.1598 4.30933 18.3505 11.5785C18.0408 14.3082 17.4714 18.1277 22.9262 24.0971H22.9062Z" fill="#D9BDA1"/>
</g>
<g style="mix-blend-mode:multiply">
<path d="M17.871 51.5055C17.2116 53.4253 10.6079 62.4143 7.86048 65.4339C8.0503 65.034 8.27009 64.644 8.52984 64.2841L16.1526 53.4953C17.1616 52.0755 17.6911 50.3857 17.6911 48.6559V42.0066C17.6911 40.0568 16.4523 38.317 14.5941 37.6971L4.66351 34.3575C1.72629 33.3676 -0.0320315 30.4579 0.337618 27.4883C0.337618 27.8282 0.487475 30.7179 2.83525 32.7277C5.01318 34.5975 14.5242 36.6372 15.8129 37.4571C17.1017 38.277 18.2007 39.027 18.3805 40.3168C18.5803 41.6067 18.3205 50.2457 17.881 51.5255L17.871 51.5055Z" fill="#D9BDA1"/>
</g>
<g style="mix-blend-mode:multiply">
<path d="M44.5856 74.0112C43.2169 73.4413 42.0081 72.4814 41.1289 71.2316L35.5542 63.3325C34.715 62.1526 33.3463 61.4427 31.8977 61.4427H30.6389C30.0994 61.4427 29.5599 61.5427 29.0604 61.7326C29.47 61.3627 32.2274 60.9727 33.3163 61.1527C34.9048 61.4127 37.1127 63.1725 38.5114 66.0521C39.9101 68.9318 42.3278 72.5914 44.5956 74.0212L44.5856 74.0112Z" fill="#D9BDA1"/>
</g>
<g style="mix-blend-mode:soft-light">
<path d="M45.8045 13.8484C45.8045 18.3879 43.5266 22.3874 40.0299 24.9171C45.8244 15.0983 44.4857 12.4686 42.8473 8.35904C40.9091 3.4796 30.6988 0.0199977 30.6988 0.0199977C30.9286 0.0199977 31.1584 0 31.3981 0C39.3506 0 45.7945 6.18929 45.7945 13.8484H45.8045Z" fill="#D9BDA1"/>
</g>
<g style="mix-blend-mode:soft-light">
<path d="M62.2389 27.916C57.3635 25.1863 48.382 33.8653 44.1061 32.7154C39.3806 31.4556 41.019 26.3262 41.019 26.3262L41.1788 26.2362C42.048 26.0562 42.9072 25.8262 43.7464 25.5463L53.5271 22.2666C56.854 21.1468 60.6204 22.7366 61.8392 26.0362C62.079 26.6561 62.1989 27.2861 62.2289 27.916H62.2389Z" fill="#D9BDA1"/>
</g>
<g style="mix-blend-mode:soft-light">
<path d="M52.7279 72.5726C50.3002 73.0025 47.4729 72.2726 45.7445 70.9927C42.6475 68.693 43.4167 63.6236 43.2868 60.174C43.157 56.7244 39.8301 55.4445 40.1898 51.415C40.5494 47.5054 44.7754 40.8262 45.0352 40.4062C44.8354 40.9162 44.7255 41.4661 44.7255 42.0361V48.4853C44.7255 50.2251 45.255 51.9049 46.264 53.3248L53.4672 63.5236C55.5852 66.5332 54.9658 70.2828 52.7179 72.5726H52.7279Z" fill="#D9BDA1"/>
</g>
</svg>
