<svg width="59" height="72" viewBox="0 0 59 72" fill="none" xmlns="http://www.w3.org/2000/svg">
<path d="M58.0198 26.6327C58.1591 29.2428 56.5627 31.7322 53.9641 32.6054L44.6367 35.7449C43.4302 36.1443 42.4928 37.0732 42.0566 38.2157C42.0566 38.2157 42.0566 38.2157 42.0566 38.2343C41.871 38.708 41.7689 39.2189 41.7689 39.7484V45.7396C41.7689 47.3558 42.2608 48.9163 43.1982 50.2353L49.8897 59.7098C51.8573 62.5057 51.2819 65.9889 49.1937 68.116C48.0521 69.2864 46.4372 70.0481 44.5439 70.0481C43.5323 70.0481 42.5485 69.8437 41.639 69.4629C40.3675 68.9241 39.2445 68.0324 38.4277 66.8713L33.249 59.5333C32.4694 58.4372 31.1979 57.7777 29.8521 57.7777H28.6827C28.1816 57.7777 27.6804 57.8706 27.2164 58.0471C27.2164 58.0471 27.1978 58.0471 27.1885 58.0657C26.4368 58.3536 25.7592 58.8645 25.2859 59.5426L19.0027 68.4411C16.8124 71.5436 12.4875 72.2402 9.43405 69.9459C6.81682 67.9767 6.14859 64.382 7.52217 61.4932C7.69851 61.1216 7.90269 60.7594 8.144 60.425L15.2254 50.4025C16.1627 49.0835 16.6546 47.5137 16.6546 45.9068V39.7298C16.6546 37.9185 15.5038 36.3023 13.7775 35.7264L4.55227 32.6239C1.82367 31.7044 0.190219 29.0013 0.533614 26.2426V26.2147C0.5893 25.7782 0.700672 25.3323 0.867729 24.8957C1.99072 21.8398 5.49892 20.3536 8.58948 21.3939L17.4435 24.3663C18.418 24.7007 19.4018 24.9422 20.4134 25.128C21.8241 24.004 20.6083 23.2609 20.6083 23.2609C17.8055 20.8923 16.0328 17.4462 16.0328 13.5821C16.0328 7.6745 20.1721 2.70505 25.8149 1.191H25.8335C26.7709 0.940202 27.7546 0.791583 28.7756 0.74514C28.989 0.74514 29.2025 0.726562 29.4252 0.726562C36.8129 0.726562 42.7991 6.47626 42.7991 13.5914C42.7991 17.8085 40.683 21.5239 37.4347 23.874H37.4532C37.4532 23.874 36.6829 24.6728 37.7131 25.2487C37.9823 25.2023 38.2421 25.1558 38.5113 25.1001C39.3187 24.9329 40.1169 24.7193 40.8965 24.4592L49.9825 21.4125C53.0731 20.3721 56.572 21.849 57.7043 24.9143C57.927 25.4902 58.0384 26.0754 58.0662 26.6606L58.0198 26.6327Z" fill="#BD864D"/>
<g style="mix-blend-mode:multiply">
<path d="M32.1828 28.9462C32.1828 29.4386 32.0157 29.8938 31.7373 30.2561C31.3567 30.7577 30.7348 31.0922 30.048 31.0922C28.8691 31.0922 27.9131 30.126 27.9131 28.9462C27.9131 27.9708 28.5628 27.1533 29.4632 26.8932C29.6488 26.8374 29.8437 26.8096 30.048 26.8096C31.2268 26.8096 32.1828 27.7757 32.1828 28.9462Z" fill="#CCC188"/>
</g>
<g style="mix-blend-mode:multiply">
<path d="M32.1828 36.6093C32.1828 37.1017 32.0157 37.5569 31.7373 37.9192C31.3567 38.4208 30.7348 38.7552 30.048 38.7552C28.8691 38.7552 27.9131 37.7891 27.9131 36.6093C27.9131 35.6339 28.5628 34.8164 29.4632 34.5563C29.6488 34.5005 29.8437 34.4727 30.048 34.4727C31.2268 34.4727 32.1828 35.4388 32.1828 36.6093Z" fill="#CCC188"/>
</g>
<g style="mix-blend-mode:multiply">
<path d="M32.1828 44.2626C32.1828 44.755 32.0157 45.2102 31.7373 45.5725C31.3567 46.0741 30.7348 46.4086 30.048 46.4086C28.8691 46.4086 27.9131 45.4424 27.9131 44.2626C27.9131 43.2872 28.5628 42.4697 29.4632 42.2096C29.6488 42.1538 29.8437 42.126 30.048 42.126C31.2268 42.126 32.1828 43.0921 32.1828 44.2626Z" fill="#CCC188"/>
</g>
<path d="M32.3869 28.8344C32.3869 29.3268 32.2198 29.782 31.9414 30.1443C31.5608 30.6459 30.9389 30.9803 30.2521 30.9803C29.0732 30.9803 28.1172 30.0142 28.1172 28.8344C28.1172 27.859 28.7669 27.0415 29.6673 26.7814C29.8529 26.7256 30.0479 26.6978 30.2521 26.6978C31.4309 26.6978 32.3869 27.6639 32.3869 28.8344Z" fill="#FF78E5"/>
<path d="M32.3869 36.4975C32.3869 36.9898 32.2198 37.445 31.9414 37.8073C31.5608 38.309 30.9389 38.6434 30.2521 38.6434C29.0732 38.6434 28.1172 37.6773 28.1172 36.4975C28.1172 35.5221 28.7669 34.7046 29.6673 34.4444C29.8529 34.3887 30.0479 34.3608 30.2521 34.3608C31.4309 34.3608 32.3869 35.327 32.3869 36.4975Z" fill="#FF78E5"/>
<path d="M32.3869 44.1606C32.3869 44.6529 32.2198 45.1081 31.9414 45.4704C31.5608 45.9721 30.9389 46.3065 30.2521 46.3065C29.0732 46.3065 28.1172 45.3404 28.1172 44.1606C28.1172 43.1851 28.7669 42.3676 29.6673 42.1075C29.8529 42.0518 30.0479 42.0239 30.2521 42.0239C31.4309 42.0239 32.3869 42.9901 32.3869 44.1606Z" fill="#FF78E5"/>
<path d="M32.3864 28.8344C32.3864 29.3268 32.2193 29.782 31.9408 30.1443C31.7459 30.2 31.5603 30.2279 31.3468 30.2279C30.1772 30.2279 29.2119 29.271 29.2119 28.0912C29.2119 27.6082 29.379 27.1437 29.6667 26.7814C29.8524 26.7256 30.0473 26.6978 30.2515 26.6978C31.4303 26.6978 32.3864 27.6639 32.3864 28.8344Z" fill="#FFA1ED"/>
<path d="M32.3864 36.4975C32.3864 36.9898 32.2193 37.445 31.9408 37.8073C31.7459 37.8631 31.5603 37.8909 31.3468 37.8909C30.1772 37.8909 29.2119 36.9341 29.2119 35.7543C29.2119 35.2712 29.379 34.8067 29.6667 34.4444C29.8524 34.3887 30.0473 34.3608 30.2515 34.3608C31.4303 34.3608 32.3864 35.327 32.3864 36.4975Z" fill="#FFA1ED"/>
<path d="M32.3864 44.1611C32.3864 44.6534 32.2193 45.1086 31.9408 45.4709C31.7459 45.5267 31.5603 45.5545 31.3468 45.5545C30.1772 45.5545 29.2119 44.5884 29.2119 43.4179C29.2119 42.9348 29.379 42.4703 29.6667 42.108C29.8524 42.0523 30.0473 42.0244 30.2515 42.0244C31.4303 42.0244 32.3864 42.9905 32.3864 44.1611Z" fill="#FFA1ED"/>
<path d="M26.3532 12.3472C27.0606 12.3472 27.6341 11.7732 27.6341 11.0652C27.6341 10.3572 27.0606 9.7832 26.3532 9.7832C25.6457 9.7832 25.0723 10.3572 25.0723 11.0652C25.0723 11.7732 25.6457 12.3472 26.3532 12.3472Z" fill="white"/>
<path d="M34.0749 12.5332C34.7823 12.5332 35.3558 11.9592 35.3558 11.2512C35.3558 10.5432 34.7823 9.96924 34.0749 9.96924C33.3674 9.96924 32.7939 10.5432 32.7939 11.2512C32.7939 11.9592 33.3674 12.5332 34.0749 12.5332Z" fill="white"/>
<path d="M23.9029 16.062C25.7683 17.5389 27.8287 18.9787 30.2696 18.9044C31.4483 18.8486 32.6177 18.7836 33.75 18.3935C34.8915 17.9755 35.6989 17.0373 36.4043 16.0806L36.4878 16.1085C35.6897 18.5328 32.6641 19.889 30.2418 19.6474C27.7452 19.4431 24.8959 18.6257 23.8193 16.1177L23.8936 16.0713L23.9029 16.062Z" fill="white"/>
<path d="M4.47821 23.3352L9.87106 25.3697C10.1031 25.4626 10.3723 25.3418 10.4651 25.1003C10.5579 24.8587 10.4373 24.5986 10.1959 24.5057L4.80308 22.4713C4.57103 22.3784 4.30185 22.4991 4.20903 22.7407C4.11621 22.9822 4.23688 23.2423 4.47821 23.3352Z" fill="white"/>
<path d="M2.67752 26.057L9.31416 27.757C9.5555 27.822 9.80611 27.6734 9.87108 27.4226C9.93606 27.181 9.78755 26.9302 9.53694 26.8652L2.90029 25.1652C2.65896 25.1001 2.40835 25.2488 2.34337 25.4996C2.2784 25.7411 2.42691 25.992 2.67752 26.057Z" fill="white"/>
<path d="M2.49248 29.4563L8.16379 30.2181C8.41441 30.2553 8.64646 30.0788 8.67431 29.8279C8.70215 29.5771 8.53507 29.3449 8.28446 29.317L2.61314 28.5552C2.36253 28.5181 2.13048 28.6946 2.10263 28.9454C2.07479 29.1962 2.24186 29.4285 2.49248 29.4563Z" fill="white"/>
<path d="M48.5617 25.4998L53.0449 22.8522C53.2584 22.7221 53.3326 22.4434 53.2027 22.2205C53.0727 21.9975 52.7943 21.9325 52.5715 22.0626L48.0883 24.7102C47.8748 24.8402 47.8006 25.1189 47.9305 25.3419C48.0605 25.5648 48.3389 25.6298 48.5617 25.4998Z" fill="white"/>
<path d="M49.7595 27.7474L55.3658 25.3692C55.5979 25.2671 55.7093 24.9977 55.6072 24.7654C55.5051 24.5332 55.2359 24.4217 55.0038 24.5239L49.3975 26.9021C49.1654 27.0042 49.0541 27.2736 49.1562 27.5059C49.2583 27.7381 49.5275 27.8496 49.7595 27.7474Z" fill="white"/>
<path d="M50.6783 30.3856L55.7555 29.4102C56.0062 29.3637 56.164 29.1222 56.1175 28.8714C56.0711 28.6205 55.8298 28.4626 55.5792 28.5091L50.5019 29.4845C50.2513 29.5309 50.0935 29.7725 50.1399 30.0233C50.1863 30.2741 50.4277 30.432 50.6783 30.3856Z" fill="white"/>
<path d="M8.0231 65.2371L11.1604 62.3851C11.3461 62.2179 11.3646 61.9206 11.1883 61.7348C11.0212 61.549 10.7242 61.5305 10.5385 61.707L7.40121 64.5589C7.21557 64.7261 7.197 65.0234 7.37336 65.2092C7.54044 65.395 7.83746 65.4136 8.0231 65.2371Z" fill="white"/>
<path d="M9.57329 68.442L13.2861 64.5217C13.4625 64.3359 13.4532 64.0479 13.2675 63.8714C13.0819 63.6949 12.7942 63.7042 12.6178 63.89L8.90499 67.8103C8.72863 67.9961 8.73791 68.284 8.92355 68.4605C9.10919 68.637 9.39693 68.6278 9.57329 68.442Z" fill="white"/>
<path d="M12.6262 69.9651L15.1138 65.5525C15.2345 65.3295 15.1602 65.0509 14.9375 64.9301C14.7147 64.8093 14.4362 64.8836 14.3156 65.1066L11.828 69.5192C11.7073 69.7422 11.7816 70.0209 12.0043 70.1416C12.2271 70.2624 12.5056 70.1881 12.6262 69.9651Z" fill="white"/>
<path d="M16.4321 69.6214L17.2489 66.2771C17.3046 66.0356 17.1561 65.7847 16.9147 65.7197C16.6734 65.664 16.4228 65.8126 16.3578 66.0541L15.541 69.3985C15.4853 69.64 15.6338 69.8908 15.8751 69.9558C16.1165 70.0116 16.3671 69.8629 16.4321 69.6214Z" fill="white"/>
<path d="M40.8315 65.5985L42.4559 68.9057C42.5673 69.1286 42.8457 69.2308 43.0685 69.1193C43.2913 69.0078 43.3934 68.7291 43.282 68.5062L41.6576 65.199C41.5462 64.9761 41.2678 64.8739 41.045 64.9854C40.8222 65.0968 40.7201 65.3755 40.8315 65.5985Z" fill="white"/>
<path d="M42.7621 64.3635L45.5652 68.7762C45.7045 68.9898 45.9829 69.0549 46.1964 68.9155C46.4099 68.7762 46.4749 68.4975 46.3356 68.2838L43.5325 63.8712C43.3932 63.6575 43.1148 63.5925 42.9013 63.7318C42.6878 63.8712 42.6228 64.1499 42.7621 64.3635Z" fill="white"/>
<path d="M44.9798 63.4437L48.1914 67.1596C48.3585 67.3547 48.6462 67.3733 48.8412 67.2061C49.0361 67.0388 49.0547 66.7509 48.8876 66.5558L45.676 62.8399C45.5089 62.6448 45.2212 62.6262 45.0263 62.7934C44.8313 62.9606 44.8128 63.2486 44.9798 63.4437Z" fill="white"/>
<path d="M47.0311 62.0414L49.7136 63.8993C49.9178 64.0387 50.2055 63.9922 50.354 63.7878C50.4933 63.5835 50.4469 63.2955 50.2427 63.1469L47.5602 61.2889C47.3559 61.1496 47.0682 61.196 46.9197 61.4004C46.7805 61.6048 46.8269 61.8927 47.0311 62.0414Z" fill="white"/>
<path d="M11.105 57.6385C11.105 57.6385 11.04 57.9172 11.04 58.2795C11.04 58.651 11.0957 59.134 11.3463 59.6263C11.5969 60.1093 12.0609 60.5738 12.7756 60.8339C13.5088 61.0939 14.177 61.0939 14.7339 61.1218C15.3 61.1497 15.7176 61.1961 16.061 61.4283C16.2559 61.5584 16.4323 61.7999 16.5993 62.1157C16.8499 62.5894 17.0634 63.2211 17.4625 63.7877C17.6666 64.0663 17.9172 64.3264 18.2606 64.5215C18.5947 64.7072 19.0124 64.8187 19.4857 64.8187C19.6156 64.8187 19.7641 64.8187 19.9034 64.7908C20.1539 64.763 20.3396 64.54 20.3024 64.28C20.2746 64.0292 20.0518 63.8434 19.792 63.8805C19.6806 63.8898 19.5692 63.8991 19.4764 63.8991C19.0217 63.8991 18.7525 63.7784 18.5205 63.6019C18.1771 63.3325 17.9358 62.8309 17.6852 62.2643C17.4253 61.707 17.1655 61.0847 16.5808 60.676C15.9868 60.2765 15.3557 60.2394 14.7803 60.2115C14.1956 60.1836 13.6387 60.1744 13.0911 59.9793C12.5807 59.7935 12.3208 59.5149 12.163 59.2176C12.0053 58.9111 11.9589 58.5674 11.9589 58.298C11.9589 58.1587 11.9681 58.0473 11.9774 57.9637L11.996 57.8708V57.8522C12.0517 57.6014 11.9032 57.3599 11.6526 57.3042C11.402 57.2484 11.1607 57.397 11.105 57.6478V57.6385Z" fill="white"/>
<path d="M48.0522 33.6363C48.0522 33.6363 48.1914 32.9861 48.1914 32.2801C48.1914 31.9272 48.1636 31.5463 48.0429 31.2027C47.7831 30.4596 47.3376 29.9766 46.9756 29.5864C46.6137 29.187 46.3538 28.8898 46.261 28.4811C46.2331 28.3696 46.2239 28.2581 46.2239 28.1467C46.2239 27.8402 46.3074 27.4779 46.4095 27.0878C46.5116 26.6976 46.6229 26.2704 46.6229 25.8059C46.6229 25.4715 46.558 25.1186 46.3909 24.7842C46.2146 24.4405 45.9454 24.1247 45.5556 23.8274C45.3514 23.6695 45.0637 23.716 44.9152 23.911C44.7575 24.1154 44.8039 24.4033 44.9988 24.552C45.305 24.7842 45.4721 24.9978 45.5742 25.1929C45.6763 25.3879 45.7134 25.583 45.7134 25.8059C45.7134 26.1125 45.6299 26.4654 45.5278 26.8555C45.4257 27.2457 45.3143 27.673 45.3143 28.1374C45.3143 28.3139 45.3329 28.4996 45.37 28.6854C45.5278 29.3728 45.9454 29.8186 46.2981 30.2088C46.6601 30.6082 46.9849 30.9612 47.1798 31.5092C47.2448 31.695 47.2819 31.9922 47.2819 32.2894C47.2819 32.5867 47.254 32.8839 47.2262 33.1068C47.2076 33.2183 47.1984 33.3112 47.1891 33.3762L47.1705 33.4691C47.1241 33.7199 47.2819 33.9614 47.5232 34.0078C47.7738 34.0543 48.0151 33.8964 48.0615 33.6549L48.0522 33.6363Z" fill="white"/>
<path d="M11.6796 33.3576L11.661 33.2647C11.6239 33.0789 11.559 32.6331 11.559 32.1872C11.559 31.89 11.5961 31.602 11.661 31.4163C11.8559 30.8682 12.1808 30.5153 12.5427 30.1158C12.8954 29.7257 13.313 29.2799 13.4708 28.5925C13.5172 28.4067 13.5265 28.2302 13.5265 28.0538C13.5265 27.5893 13.4151 27.162 13.313 26.7719C13.211 26.3818 13.1274 26.0288 13.1274 25.7223C13.1274 25.4994 13.1646 25.3136 13.2666 25.1092C13.3687 24.9142 13.5358 24.7005 13.8421 24.4683C14.0462 24.3104 14.0834 24.0318 13.9256 23.8274C13.7678 23.623 13.4894 23.5859 13.2852 23.7438C12.8954 24.041 12.6263 24.3569 12.4499 24.7005C12.2736 25.0442 12.2086 25.3972 12.2179 25.7223C12.2179 26.1867 12.3293 26.614 12.4314 27.0041C12.5334 27.3943 12.617 27.7472 12.617 28.063C12.617 28.1838 12.6077 28.2953 12.5799 28.3974C12.487 28.8061 12.2272 29.1127 11.8652 29.5028C11.5033 29.8929 11.0578 30.3759 10.7979 31.119C10.6773 31.472 10.6494 31.8435 10.6494 32.1965C10.6494 32.9025 10.7793 33.5341 10.7886 33.5527C10.835 33.8035 11.0856 33.9614 11.3269 33.9056C11.5775 33.8592 11.7353 33.6084 11.6796 33.3669V33.3576Z" fill="white"/>
<path d="M45.8523 57.1647C45.8523 57.1647 45.8894 57.369 45.8894 57.6013C45.8894 57.8706 45.843 58.2236 45.6852 58.5208C45.5275 58.8274 45.2676 59.0967 44.7571 59.2825C44.2003 59.4869 43.6527 59.4962 43.068 59.5147C42.4926 59.5426 41.8615 59.5798 41.2675 59.9792C40.8777 60.2485 40.6271 60.6294 40.4322 61.0009C40.1445 61.5675 39.9311 62.162 39.6433 62.5614C39.4949 62.7658 39.3371 62.9144 39.1515 63.0259C38.9566 63.1373 38.7153 63.2024 38.3719 63.2024C38.2791 63.2024 38.1677 63.2023 38.0563 63.1838C37.8057 63.1559 37.5737 63.3324 37.5459 63.5832C37.518 63.834 37.6943 64.0569 37.9449 64.0941C38.0934 64.1126 38.2326 64.1219 38.3626 64.1219C38.9937 64.1219 39.5134 63.9269 39.8939 63.6203C40.4694 63.1466 40.7385 62.5057 40.9891 61.9484C41.2397 61.3911 41.481 60.9359 41.778 60.7408C42.1214 60.5086 42.539 60.4529 43.1051 60.4343C43.662 60.4065 44.3395 60.4065 45.0634 60.1464C45.7781 59.8956 46.2421 59.4311 46.4927 58.9388C46.7433 58.4558 46.799 57.9635 46.799 57.592C46.799 57.2204 46.7433 56.9696 46.734 56.9511C46.6783 56.7003 46.4277 56.5516 46.1864 56.6074C45.9358 56.6631 45.7873 56.9139 45.843 57.1554L45.8523 57.1647Z" fill="white"/>
<g style="mix-blend-mode:multiply">
<path d="M21.4811 23.0844C21.4811 23.0844 22.3628 24.8864 20.3767 25.1093C21.7874 23.9854 20.5716 23.2423 20.5716 23.2423C17.7688 20.8737 15.9961 17.4276 15.9961 13.5635C15.9961 7.65587 20.1354 2.68642 25.7782 1.17236C25.3235 1.37671 18.0008 4.70207 17.249 11.4549C16.9613 13.9908 16.4323 17.539 21.4997 23.0844H21.4811Z" fill="#D9BDA1"/>
</g>
<g style="mix-blend-mode:multiply">
<path d="M16.8031 48.5453C16.1906 50.3288 10.0559 58.6793 7.50362 61.4845C7.67995 61.1129 7.88413 60.7507 8.12544 60.4163L15.2068 50.3938C16.1442 49.0748 16.6361 47.505 16.6361 45.8981V39.7211C16.6361 37.9098 15.4852 36.2935 13.759 35.7176L4.53371 32.6152C1.80511 31.6956 0.171665 28.9926 0.51506 26.2339C0.51506 26.5497 0.654274 29.2341 2.8353 31.1012C4.85855 32.8381 13.694 34.733 14.8913 35.4947C16.0885 36.2564 17.1094 36.953 17.2765 38.1513C17.4621 39.3495 17.2208 47.375 16.8124 48.5639L16.8031 48.5453Z" fill="#D9BDA1"/>
</g>
<g style="mix-blend-mode:multiply">
<path d="M41.6208 69.4536C40.3494 68.9242 39.2264 68.0325 38.4096 66.8714L33.2309 59.5333C32.4513 58.4373 31.1798 57.7778 29.834 57.7778H28.6646C28.1635 57.7778 27.6623 57.8706 27.1982 58.0471C27.5788 57.7034 30.1403 57.3412 31.1519 57.5084C32.6276 57.7499 34.6787 59.3847 35.978 62.0598C37.2774 64.735 39.5233 68.1346 41.6301 69.4629L41.6208 69.4536Z" fill="#D9BDA1"/>
</g>
<g style="mix-blend-mode:soft-light">
<path d="M42.7525 13.5636C42.7525 17.7806 40.6365 21.4961 37.3881 23.8462C42.7711 14.7247 41.5274 12.2817 40.0054 8.46408C38.2049 3.9312 28.7197 0.717308 28.7197 0.717308C28.9332 0.717308 29.1466 0.69873 29.3694 0.69873C36.757 0.69873 42.7432 6.44843 42.7432 13.5636H42.7525Z" fill="#D9BDA1"/>
</g>
<g style="mix-blend-mode:soft-light">
<path d="M58.0197 26.633C53.4906 24.0972 45.147 32.1598 41.1748 31.0916C36.7849 29.9212 38.307 25.1561 38.307 25.1561L38.4555 25.0725C39.2629 24.9053 40.0611 24.6917 40.8407 24.4316L49.9267 21.3849C53.0173 20.3445 56.5162 21.8214 57.6485 24.8867C57.8712 25.4626 57.9826 26.0478 58.0104 26.633H58.0197Z" fill="#D9BDA1"/>
</g>
<g style="mix-blend-mode:soft-light">
<path d="M49.1846 68.1161C46.9293 68.5155 44.3028 67.8374 42.6972 66.6485C39.8201 64.5121 40.5347 59.8027 40.4141 56.5981C40.2934 53.3935 37.2028 52.2046 37.537 48.4612C37.8711 44.8293 41.7969 38.6245 42.0382 38.2344C41.8526 38.7081 41.7505 39.219 41.7505 39.7484V45.7396C41.7505 47.3559 42.2424 48.9164 43.1798 50.2354L49.8714 59.7098C51.8389 62.5057 51.2635 65.989 49.1753 68.1161H49.1846Z" fill="#D9BDA1"/>
</g>
</svg>
