<svg width="108" height="60" viewBox="0 0 108 60" fill="none" xmlns="http://www.w3.org/2000/svg">
<path d="M104.826 55.7541C102.402 59.2511 97.5951 60.4588 90.9406 59.8273C78.1607 58.6748 58.5447 50.8442 35.7712 39.9035C34.9897 39.5246 34.2003 39.1535 33.4109 38.7668C31.3901 37.7879 29.4956 36.8091 27.7432 35.8382C23.528 33.5016 20.0705 31.2361 17.2287 29.0338H17.2129C0.367667 15.9696 5.46704 5.74718 5.46704 5.74718C7.32207 2.88175 9.79282 1.31089 12.6583 0.726756C16.9288 -0.181025 22.0439 1.09776 27.2143 3.48168C30.0403 4.77625 32.8663 6.39447 35.5975 8.18635C37.4052 9.3862 39.1892 10.6413 40.8863 11.9359C43.0492 13.5936 46.183 15.4091 49.8694 17.3115C55.2135 20.0507 61.7022 22.924 68.0961 25.6C70.78 26.7209 73.4323 27.8023 75.9662 28.8206C84.6493 32.3018 91.9905 35.0014 94.2402 35.8934C94.2639 35.8934 94.2876 35.9092 94.3034 35.9171C94.6744 36.0671 94.9033 36.1618 94.9428 36.1934C95.0296 36.2644 95.4243 36.4855 96.0321 36.8565C98.7713 38.5536 105.741 43.203 106.57 49.1786C106.783 50.6626 106.61 52.2098 105.915 53.8202V53.8359C105.631 54.4753 105.268 55.1068 104.826 55.7541Z" fill="#41A35A"/>
<path d="M104.826 55.7539C97.5952 66.221 69.1776 56.117 33.4031 38.7587C-2.35562 21.424 5.46709 5.74699 5.46709 5.74699C7.32213 2.88156 9.79287 1.3107 12.6583 0.726562C12.5004 1.21598 9.95075 10.6411 30.8929 22.3318C52.4113 34.3303 65.9254 51.1598 78.1449 51.4124C90.3724 51.6729 93.6325 62.6373 105.907 53.8278C105.631 54.4672 105.268 55.0987 104.826 55.746V55.7539Z" fill="#2D9647"/>
<g style="mix-blend-mode:multiply" opacity="0.2">
<path d="M30.4429 35.854C32.2032 37.2196 33.9793 38.5694 35.7712 39.8956C34.9897 39.5167 34.2003 39.1457 33.4109 38.7589C31.3901 37.78 29.4956 36.8012 27.7432 35.8303C24.8383 33.5569 22.0045 31.244 19.2495 28.8048C16.2341 26.1446 11.0558 19.2929 10.2112 20.0428C9.35866 20.7769 14.8211 27.084 17.2129 29.018C0.367667 15.9696 5.46704 5.74718 5.46704 5.74718C7.32207 2.88175 9.79282 1.31089 12.6583 0.726756C16.9288 -0.181025 22.0439 1.09776 27.2143 3.48168C30.0403 4.77625 32.8663 6.39447 35.5975 8.18635C30.5692 5.8577 25.3593 3.88426 19.9679 3.03963C23.1885 3.93162 26.275 5.3446 29.1799 7.01019C35.7554 10.7834 47.6039 21.44 47.3987 21.7478C47.1303 22.0873 35.3844 12.0622 28.9352 8.70734C18.7917 3.4501 14.087 3.9632 13.2582 5.58931C12.4214 7.21542 24.641 13.5936 30.0008 16.609C36.8921 20.4611 49.2695 31.0625 49.0248 31.3782C48.7801 31.694 32.5821 18.5035 24.5699 14.975C21.444 13.6094 12.974 8.08374 11.9636 9.53619C11.5768 10.0888 14.9869 18.1483 33.3241 30.1705C39.1734 34.0068 52.277 41.0323 52.1034 41.4112C51.8587 41.7269 32.5821 32.6017 22.115 24.558C14.5528 18.764 10.3217 11.3675 9.48496 11.6912C8.64033 11.9911 10.2507 15.3065 10.5901 15.9538C14.016 22.6398 24.791 31.4729 30.435 35.8461L30.4429 35.854Z" fill="#296587"/>
</g>
<path opacity="0.39" d="M104.826 55.7539C102.402 59.2508 97.5952 60.4586 90.9407 59.8271C92.5589 59.5981 94.1219 59.2508 95.6928 58.8009C97.6346 57.3642 89.5593 58.2088 86.5044 57.8063C79.5579 56.9064 66.3201 50.9229 66.4148 50.544C66.549 50.0783 79.8342 55.4223 86.5597 55.9591C97.1058 56.8038 105.82 54.7356 104.108 53.741C101.139 52.0201 89.1173 49.4626 83.4811 48.7758C76.2268 47.9233 70.5511 44.8368 70.6695 44.4185C70.9458 44.0632 80.6788 47.3786 88.7857 47.4339C91.9669 47.4339 100.421 50.8282 100.895 48.9653C101.076 48.2548 95.8901 43.4791 79.4 37.3299C73.3534 35.0722 67.2752 32.3094 67.3226 31.8595C67.6383 31.4569 75.8952 35.0801 87.499 38.506C95.9059 40.9768 100.737 42.5476 100.247 42.0503C95.2665 36.9352 84.6257 33.9119 77.7424 30.2255C77.3003 29.9808 76.6925 29.4519 75.9742 28.8125C84.6573 32.2936 91.9985 34.9933 94.2482 35.8853C94.2719 35.8853 94.2956 35.9011 94.3114 35.909C94.9113 36.2326 95.4875 36.5563 96.0401 36.8404C98.7792 38.5376 105.749 43.187 106.578 49.1626C106.791 50.6466 106.618 52.1938 105.923 53.8041V53.8199C105.639 54.4593 105.276 55.0908 104.834 55.7381L104.826 55.7539Z" fill="#A8DE2A"/>
<path d="M0.020374 1.56296C0.020374 1.56296 4.77242 3.96267 4.85925 7.99637C4.85925 7.99637 5.64862 4.88624 6.92741 5.01254L8.04043 2.84965C8.04043 2.84965 6.00384 3.52851 4.81978 2.60494C3.63572 1.68137 1.22812 0 1.22812 0C1.22812 0 -0.184864 0.371006 0.020374 1.56296Z" fill="#5AC962"/>
<path opacity="0.19" d="M40.8864 11.9352C43.0493 13.5929 46.1831 15.4084 49.8695 17.3108C44.5491 18.4633 31.9822 15.0848 27.1039 7.99619C25.4067 5.54912 25.8409 4.17561 27.2144 3.48096C31.9269 5.65174 36.6711 8.7382 40.8864 11.9352Z" fill="#A9EBA4"/>
<path opacity="0.19" d="M106.57 49.1708C106.57 49.1708 100.484 42.8084 96.1901 41.6796C91.8801 40.535 63.131 34.7173 68.0409 25.7026C68.0567 25.679 68.0804 25.6316 68.0962 25.6079C81.6024 31.2598 94.5876 35.9251 94.9428 36.1934C95.448 36.5881 105.568 41.9085 106.57 49.1708Z" fill="#A9EBA4"/>
</svg>
