<svg width="90" height="50" viewBox="0 0 90 50" fill="none" xmlns="http://www.w3.org/2000/svg">
<path d="M87.3548 46.4618C85.3353 49.3759 81.3293 50.3823 75.7839 49.8561C65.1339 48.8957 48.7872 42.3702 29.8093 33.2529C29.1581 32.9371 28.5003 32.628 27.8425 32.3056C26.1585 31.4899 24.5797 30.6743 23.1194 29.8651C19.6066 27.918 16.7254 26.0301 14.3573 24.1948H14.3441C0.30641 13.308 4.55588 4.78932 4.55588 4.78932C6.10174 2.40146 8.1607 1.09241 10.5486 0.60563C14.1073 -0.150854 18.37 0.914802 22.6786 2.9014C25.0336 3.98021 27.3886 5.32873 29.6646 6.82196C31.171 7.82184 32.6577 8.86776 34.072 9.94657C35.8744 11.328 38.4859 12.8409 41.5579 14.4263C46.0113 16.7089 51.4185 19.1033 56.7468 21.3333C58.9833 22.2674 61.1936 23.1686 63.3052 24.0172C70.5411 26.9181 76.6588 29.1679 78.5336 29.9112C78.5533 29.9112 78.573 29.9244 78.5862 29.9309C78.8954 30.0559 79.0861 30.1348 79.119 30.1612C79.1914 30.2204 79.5203 30.4046 80.0268 30.7137C82.3094 32.128 88.1179 36.0025 88.8086 40.9822C88.9862 42.2189 88.8415 43.5082 88.2626 44.8501V44.8633C88.0258 45.3961 87.7232 45.9224 87.3548 46.4618Z" fill="#41A35A"/>
<path d="M87.3549 46.4616C81.3293 55.1842 57.648 46.7642 27.8359 32.2989C-1.96302 17.8533 4.55591 4.78916 4.55591 4.78916C6.10177 2.4013 8.16073 1.09225 10.5486 0.605469C10.417 1.01331 8.29229 8.8676 25.7441 18.6098C43.6761 28.6086 54.9378 42.6331 65.1208 42.8436C75.3103 43.0607 78.0271 52.1977 88.2561 44.8565C88.0258 45.3894 87.7232 45.9156 87.3549 46.455V46.4616Z" fill="#2D9647"/>
<g style="mix-blend-mode:multiply" opacity="0.2">
<path d="M25.3691 29.8783C26.836 31.0163 28.3161 32.1412 29.8093 33.2463C29.1581 32.9306 28.5003 32.6214 27.8425 32.2991C26.1585 31.4834 24.5797 30.6677 23.1194 29.8586C20.6986 27.9641 18.3371 26.0367 16.0413 24.004C13.5285 21.7872 9.2132 16.0774 8.50934 16.7023C7.7989 17.3141 12.351 22.57 14.3441 24.1816C0.30641 13.308 4.55588 4.78932 4.55588 4.78932C6.10175 2.40146 8.1607 1.09241 10.5486 0.60563C14.1073 -0.150854 18.37 0.914802 22.6786 2.9014C25.0336 3.98021 27.3886 5.32873 29.6646 6.82196C25.4743 4.88141 21.1328 3.23688 16.6399 2.53302C19.3238 3.27635 21.8958 4.45384 24.3166 5.84182C29.7962 8.98617 39.67 17.8666 39.4989 18.1232C39.2753 18.406 29.487 10.0518 24.1127 7.25612C15.6598 2.87508 11.7392 3.30266 11.0485 4.65776C10.3512 6.01285 20.5342 11.328 25.0007 13.8408C30.7434 17.051 41.0579 25.8854 40.854 26.1485C40.6501 26.4116 27.1518 15.4196 20.475 12.4792C17.87 11.3411 10.8117 6.73645 9.96969 7.94682C9.64736 8.40729 12.4891 15.1236 27.7701 25.142C32.6445 28.339 43.5642 34.1936 43.4195 34.5093C43.2156 34.7724 27.1518 27.1681 18.4292 20.465C12.1273 15.6367 8.60144 9.47295 7.90415 9.74265C7.20029 9.99262 8.54223 12.7554 8.82509 13.2948C11.68 18.8665 20.6592 26.2274 25.3625 29.8717L25.3691 29.8783Z" fill="#296587"/>
</g>
<path opacity="0.39" d="M87.3548 46.4614C85.3353 49.3755 81.3293 50.382 75.7839 49.8557C77.1324 49.665 78.4349 49.3755 79.7439 49.0006C81.3622 47.8033 74.6327 48.5072 72.087 48.1717C66.2982 47.4218 55.2667 42.4356 55.3456 42.1198C55.4575 41.7317 66.5285 46.1851 72.133 46.6324C80.9214 47.3363 88.1837 45.6128 86.7562 44.784C84.2828 43.3499 74.2643 41.2186 69.5676 40.6463C63.5223 39.9359 58.7926 37.3639 58.8912 37.0152C59.1215 36.7192 67.2323 39.482 73.9881 39.5281C76.6391 39.5281 83.6842 42.3567 84.0789 40.8042C84.2302 40.2122 79.9084 36.2324 66.1667 31.1081C61.1278 29.2267 56.0627 26.9244 56.1021 26.5494C56.3652 26.2139 63.246 29.2333 72.9158 32.0882C79.9215 34.1471 83.9474 35.4562 83.5395 35.0418C79.3887 30.7791 70.5214 28.2597 64.7853 25.1877C64.4169 24.9838 63.9104 24.5431 63.3118 24.0103C70.5477 26.9112 76.6654 29.1609 78.5401 29.9043C78.5599 29.9043 78.5796 29.9174 78.5928 29.924C79.0927 30.1937 79.5729 30.4634 80.0334 30.7002C82.316 32.1145 88.1245 35.989 88.8152 40.9687C88.9928 42.2054 88.8481 43.4947 88.2692 44.8366V44.8498C88.0324 45.3826 87.7298 45.9088 87.3614 46.4482L87.3548 46.4614Z" fill="#A8DE2A"/>
<path d="M0.0169783 1.30247C0.0169783 1.30247 3.97701 3.30222 4.04937 6.66364C4.04937 6.66364 4.70719 4.07186 5.77284 4.17711L6.70036 2.3747C6.70036 2.3747 5.0032 2.94042 4.01648 2.17078C3.02976 1.40114 1.02343 0 1.02343 0C1.02343 0 -0.154053 0.309172 0.0169783 1.30247Z" fill="#5AC962"/>
<path opacity="0.19" d="M34.0719 9.94605C35.8744 11.3275 38.4859 12.8404 41.5579 14.4258C37.1242 15.3862 26.6518 12.5707 22.5865 6.66357C21.1722 4.62435 21.534 3.47975 22.6786 2.90088C26.6058 4.70986 30.5592 7.28191 34.0719 9.94605Z" fill="#A9EBA4"/>
<path opacity="0.19" d="M88.8086 40.9756C88.8086 40.9756 83.7369 35.6736 80.1584 34.7329C76.5667 33.7791 52.6092 28.931 56.7008 21.4188C56.7139 21.399 56.7337 21.3596 56.7468 21.3398C68.002 26.0498 78.823 29.9375 79.119 30.1611C79.54 30.49 87.9732 34.9237 88.8086 40.9756Z" fill="#A9EBA4"/>
</svg>
