<svg width="52" height="76" viewBox="0 0 52 76" fill="none" xmlns="http://www.w3.org/2000/svg">
<path d="M50.3961 2.35596C50.3961 2.35596 50.3707 2.67262 50.3454 3.24262C50.3201 3.90129 50.2694 4.90196 50.2061 6.20662C50.1934 6.62462 50.1554 7.09329 50.1427 7.56196L49.6614 16.9733C49.5981 18.1513 49.5221 19.3926 49.4714 20.6593C49.3954 22.1033 49.3067 23.6233 49.2307 25.1433C49.1421 26.6253 49.0534 28.1326 48.9774 29.678C48.8381 31.692 48.7241 33.744 48.6101 35.8086C48.5847 36.3786 48.5341 36.9613 48.5087 37.5313C48.4454 38.4306 48.3947 39.2793 48.3441 40.166C48.2554 41.5466 48.1667 42.9146 48.0781 44.27C47.9387 46.246 47.8121 48.1713 47.6727 50.0333C47.5207 52.1233 47.3561 54.112 47.2041 55.9993C46.9381 59.3433 46.6467 62.3453 46.3807 64.8026C46.2667 65.7906 46.1527 66.6646 46.0387 67.4626C45.7221 69.7553 45.4054 71.1993 45.1267 71.5286C44.1134 72.6686 42.1627 73.7833 38.9961 74.6066C38.4134 74.7586 37.8054 74.9106 37.1341 75.0373C34.6767 75.5313 31.6241 75.8606 27.8621 75.962C27.1147 75.9746 26.3167 75.9873 25.5187 75.9873C25.2021 75.9873 24.8854 75.9873 24.5941 75.9746C20.2621 75.9493 16.7281 75.5693 13.9414 75.012C13.4601 74.9233 13.0041 74.822 12.5607 74.708C8.93808 73.8466 6.79741 72.6306 5.91075 71.5033C5.60675 71.1106 5.31541 69.8313 5.01141 67.83C4.87208 66.9686 4.74541 65.968 4.60608 64.8406C4.32741 62.3706 4.03608 59.356 3.75741 55.974C3.66875 54.91 3.59275 53.808 3.50408 52.668C3.40275 51.3253 3.28875 49.9446 3.20008 48.5386C3.14941 47.956 3.11141 47.3986 3.06075 46.8286C2.99741 45.9673 2.94675 45.0933 2.88341 44.2193C2.82008 43.1553 2.74408 42.066 2.66808 40.9893C2.56675 39.2413 2.45275 37.4933 2.35141 35.7453C2.04741 30.666 1.76875 25.6246 1.54075 21.0646C1.47741 19.798 1.42675 18.5693 1.36341 17.3913C1.21141 14.4906 1.08475 11.856 0.970748 9.65196C0.945415 9.05662 0.907415 8.48662 0.882081 7.94196C0.818748 5.66196 0.742748 3.95196 0.692081 3.06529C0.679415 2.60929 0.666748 2.38129 0.666748 2.38129C0.666748 2.38129 2.04741 2.65996 4.46675 3.05262H4.47941C4.99875 3.14129 5.56875 3.22996 6.20208 3.31862C10.1034 3.88862 15.7781 4.54729 22.3774 4.71196C22.3774 4.71196 22.3774 4.72462 22.3901 4.72462C22.9854 4.72462 23.6061 4.73729 24.2141 4.73729C24.6447 4.74996 25.0754 4.74996 25.5314 4.74996C25.9874 4.74996 26.4181 4.74996 26.8361 4.73729C27.2667 4.73729 27.6974 4.73729 28.1154 4.72462C36.0321 4.55996 42.7201 3.69862 46.6341 3.06529C46.6467 3.05262 46.6467 3.06529 46.6594 3.06529C49.0407 2.65996 50.3961 2.36862 50.3961 2.36862V2.35596Z" fill="#8BD0FF"/>
<path d="M6.20209 15.4411C6.20209 18.2404 4.21343 20.5711 1.56609 21.1031C1.50276 19.8364 1.45209 18.6078 1.38876 17.4298C1.23676 14.5291 1.11009 11.8944 0.996094 9.69043C3.90943 9.95643 6.20209 12.4264 6.20209 15.4411Z" fill="#E6FCFF"/>
<path d="M3.49145 46.816C3.49145 47.424 3.40278 48.0067 3.21278 48.564C3.16212 47.994 3.12412 47.4493 3.07345 46.8793C3.01012 46.018 2.95945 45.144 2.89612 44.27C3.28878 45.03 3.49145 45.904 3.49145 46.8287V46.816Z" fill="#E6FCFF"/>
<path d="M17.488 23.7375C20.685 23.7375 23.2767 21.1458 23.2767 17.9488C23.2767 14.7518 20.685 12.1602 17.488 12.1602C14.291 12.1602 11.6993 14.7518 11.6993 17.9488C11.6993 21.1458 14.291 23.7375 17.488 23.7375Z" fill="#E6FCFF"/>
<path d="M25.2653 73.2896C25.2653 74.1383 25.0753 74.9489 24.746 75.6836C24.6953 75.7849 24.6573 75.8736 24.594 75.9876C20.262 75.9623 16.728 75.5823 13.9413 75.0249C13.764 74.4929 13.6753 73.885 13.6753 73.2896C13.6753 70.9083 15.094 68.8816 17.146 67.9949C17.868 67.6656 18.6533 67.4883 19.4766 67.4883C22.6813 67.4883 25.278 70.085 25.278 73.2896H25.2653Z" fill="#E6FCFF"/>
<path d="M36.4626 22.7873C39.6596 22.7873 42.2513 20.1956 42.2513 16.9986C42.2513 13.8016 39.6596 11.21 36.4626 11.21C33.2656 11.21 30.674 13.8016 30.674 16.9986C30.674 20.1956 33.2656 22.7873 36.4626 22.7873Z" fill="#E6FCFF"/>
<path d="M50.1553 7.5625L49.6739 16.9738C48.7366 16.2392 48.0273 15.2258 47.6979 14.0478C47.5333 13.5412 47.4573 12.9965 47.4573 12.4392C47.4573 11.5272 47.6726 10.6658 48.0653 9.89317C48.5339 8.91783 49.2433 8.11983 50.1426 7.5625H50.1553Z" fill="#E6FCFF"/>
<path d="M9.28 38.4938C12.477 38.4938 15.0687 35.9022 15.0687 32.7052C15.0687 29.5082 12.477 26.9165 9.28 26.9165C6.08301 26.9165 3.49133 29.5082 3.49133 32.7052C3.49133 35.9022 6.08301 38.4938 9.28 38.4938Z" fill="#E6FCFF"/>
<path d="M29.6353 39.5837C32.8323 39.5837 35.424 36.992 35.424 33.795C35.424 30.598 32.8323 28.0063 29.6353 28.0063C26.4384 28.0063 23.8467 30.598 23.8467 33.795C23.8467 36.992 26.4384 39.5837 29.6353 39.5837Z" fill="#E6FCFF"/>
<path d="M49.2433 25.1562C49.1546 26.6382 49.066 28.1456 48.99 29.6909C48.8506 31.7049 48.7366 33.7569 48.6226 35.8216C47.0266 35.0743 45.8233 33.5796 45.4686 31.7809C45.3926 31.3882 45.3546 31.0209 45.3546 30.6282C45.3546 29.6909 45.5826 28.7916 45.9879 28.0189C46.6593 26.6889 47.8246 25.6629 49.2559 25.1689L49.2433 25.1562Z" fill="#E6FCFF"/>
<path d="M13.6754 60.0782C13.6754 60.1795 13.6754 60.2682 13.6627 60.3822C13.5107 63.4475 10.99 65.8795 7.89938 65.8795C6.67071 65.8795 5.55605 65.5122 4.63138 64.8662C4.35271 62.3962 4.06138 59.3815 3.78271 55.9995C4.83405 54.9355 6.29071 54.2769 7.91205 54.2769C9.71071 54.2769 11.3194 55.1002 12.3834 56.3795C13.2067 57.3802 13.7007 58.6722 13.7007 60.0655L13.6754 60.0782Z" fill="#E6FCFF"/>
<path d="M31.32 66.6398C34.517 66.6398 37.1087 64.0482 37.1087 60.8512C37.1087 57.6542 34.517 55.0625 31.32 55.0625C28.123 55.0625 25.5314 57.6542 25.5314 60.8512C25.5314 64.0482 28.123 66.6398 31.32 66.6398Z" fill="#E6FCFF"/>
<path d="M46.0386 67.4629C45.722 69.7556 45.4053 71.1996 45.1266 71.5289C44.1133 72.6689 42.1626 73.7836 38.996 74.6069C38.8566 74.1129 38.7806 73.6063 38.7806 73.0616C38.7806 69.8569 41.3773 67.2603 44.582 67.2603C45.0886 67.2603 45.57 67.3236 46.026 67.4503L46.0386 67.4629Z" fill="#E6FCFF"/>
<path d="M19.464 53.6437C22.661 53.6437 25.2526 51.0521 25.2526 47.8551C25.2526 44.6581 22.661 42.0664 19.464 42.0664C16.267 42.0664 13.6753 44.6581 13.6753 47.8551C13.6753 51.0521 16.267 53.6437 19.464 53.6437Z" fill="#E6FCFF"/>
<path d="M48.078 44.2705C47.9387 46.2465 47.812 48.1718 47.6727 50.0338C46.6214 51.5918 44.8607 52.6051 42.8594 52.6051C42.6947 52.6051 42.53 52.6051 42.3654 52.5798C40.7567 52.4658 39.3127 51.6551 38.3627 50.4518C37.552 49.4511 37.0834 48.1845 37.0834 46.8038C37.0834 44.7771 38.1347 42.9785 39.718 41.9525C40.63 41.3571 41.7067 41.0151 42.872 41.0151C43.3027 41.0151 43.7334 41.0658 44.1387 41.1671C45.8867 41.5345 47.318 42.7251 48.0907 44.2705H48.078Z" fill="#E6FCFF"/>
<g style="mix-blend-mode:multiply" opacity="0.49">
<path d="M25.5187 76C25.2021 76 24.8854 76 24.5941 75.9873C20.2621 75.962 16.7281 75.582 13.9414 75.0247C13.4601 74.936 13.0041 74.8347 12.5607 74.7207C8.93808 73.8593 6.79741 72.6433 5.91075 71.516C5.60675 71.1233 5.31541 69.844 5.01141 67.8427C4.87208 66.9813 4.74541 65.9807 4.60608 64.8533C4.32741 62.3833 4.03608 59.3687 3.75741 55.9867C3.66875 54.9227 3.59275 53.8207 3.50408 52.6807C3.40275 51.338 3.28875 49.9573 3.20008 48.5513C3.14941 47.9687 3.11141 47.4113 3.06075 46.8413C2.99741 45.98 2.94675 45.106 2.88341 44.232C2.82008 43.168 2.74408 42.0787 2.66808 41.002C2.56675 39.254 2.45275 37.506 2.35141 35.758C2.04741 30.6787 1.76875 25.6373 1.54075 21.0773C1.47741 19.8107 1.42675 18.582 1.36341 17.404C1.21141 14.5033 1.08475 11.8687 0.970748 9.66468C0.945415 9.06935 0.907415 8.49935 0.882081 7.95468C0.818748 5.66201 0.742748 3.95201 0.692081 3.06535C0.679415 2.60935 0.666748 2.38135 0.666748 2.38135C0.666748 2.38135 2.04741 2.66001 4.46675 3.05268H4.47941C4.99875 3.14135 5.56875 3.23001 6.20208 3.31868V3.87601C6.20208 4.12935 6.21475 4.38268 6.21475 4.63601C6.27808 9.95601 6.53141 18.202 7.35475 27.246C7.67141 30.9067 8.10208 34.694 8.63408 38.456C9.52075 44.688 10.7114 50.8567 12.3581 56.392C12.7634 57.7727 13.1941 59.1027 13.6627 60.382C14.6761 63.2067 15.8287 65.778 17.1461 68.0073C19.2487 71.6047 21.7694 74.3153 24.7587 75.6833C25.0121 75.7847 25.2654 75.8987 25.5314 76H25.5187Z" fill="#8DB9D6"/>
</g>
<path d="M50.3961 2.36867C50.3961 2.71067 49.6234 3.05267 48.2047 3.344C46.2414 3.762 43.0621 4.11667 39.0974 4.37C37.5521 4.45867 35.8801 4.54733 34.1321 4.598C31.8267 4.68667 29.3821 4.73733 26.8234 4.73733C26.4054 4.73733 25.9747 4.73733 25.5187 4.73733C25.0627 4.73733 24.6321 4.73733 24.2014 4.73733C14.6761 4.68667 6.58208 4.12933 2.85808 3.344C1.43941 3.04 0.666748 2.72333 0.666748 2.36867C0.666748 1.064 11.8007 0 25.5187 0C28.6981 0 31.7381 0.0633333 34.5374 0.164667C36.2727 0.240667 37.9194 0.329333 39.4394 0.405333C46.0514 0.836 50.3961 1.54533 50.3961 2.36867Z" fill="#57BBFF"/>
<path d="M48.192 3.34402C46.2287 3.76202 43.0493 4.11668 39.0847 4.37002C37.5393 4.45868 35.8673 4.54735 34.1193 4.59802C31.814 4.68668 29.3693 4.73735 26.8107 4.73735C26.3927 4.73735 25.962 4.73735 25.506 4.73735C25.05 4.73735 24.6193 4.73735 24.1887 4.73735C14.6633 4.68668 6.56934 4.12935 2.84534 3.34402C6.74667 2.52068 15.436 1.95068 25.506 1.95068C28.6853 1.95068 31.7253 2.01402 34.5247 2.11535C36.26 2.17868 37.9067 2.26735 39.4267 2.35602C43.2267 2.59668 46.292 2.93868 48.1793 3.34402H48.192Z" fill="#4FAAE8"/>
<path d="M50.3834 2.36865C50.3834 2.36865 50.3707 2.67265 50.3454 3.24265C45.5954 5.43399 29.4961 5.47199 23.8087 5.47199C10.1034 5.47199 1.74341 4.44599 0.704748 3.05265C0.679415 2.60932 0.666748 2.36865 0.666748 2.36865C0.666748 3.63532 11.0914 4.67399 24.2014 4.73732C24.6447 4.73732 25.0754 4.73732 25.5187 4.73732C25.9621 4.73732 26.3927 4.73732 26.8234 4.73732C29.3821 4.73732 31.8267 4.67399 34.1194 4.59799C35.8674 4.53465 37.5394 4.45865 39.0721 4.35732C45.8741 3.92665 50.3707 3.20465 50.3707 2.36865H50.3834Z" fill="#C6E8FF"/>
<g style="mix-blend-mode:screen" opacity="0.29">
<path d="M32.4854 72.9858C33.3721 74.9998 34.2207 75.2532 37.3494 71.6938C40.4781 68.1345 49.5221 11.7932 48.7621 9.25983C48.0021 6.72649 44.1387 7.38516 41.6561 8.84183C40.2881 9.63983 41.3521 24.0292 39.3127 36.9998C36.6907 53.6312 31.9914 71.8458 32.4854 72.9732V72.9858Z" fill="#FEFFE0"/>
</g>
</svg>
