<svg width="31" height="96" viewBox="0 0 31 96" fill="none" xmlns="http://www.w3.org/2000/svg">
<path d="M28.7233 59.3239C28.7612 59.526 28.7612 59.6902 28.7233 59.8796C28.4076 61.4331 25.5027 62.734 22.1558 63.8075C19.1877 64.7674 15.8661 65.5378 13.7569 66.1062C12.0013 66.5988 10.0816 67.1545 8.43967 67.8491C7.03775 68.4554 5.82528 69.1247 5.118 69.9457C5.00433 69.7562 4.87803 69.592 4.77699 69.4152C4.57491 69.0616 4.4865 68.7206 4.43599 68.3922C4.2718 66.8892 5.68635 65.7147 7.68187 64.7674C9.46269 63.9086 11.7108 63.2392 13.7442 62.6835C15.7777 62.1278 18.9478 61.3952 21.8274 60.4859C24.1639 59.7533 26.311 58.9071 27.574 57.9473C28.1423 58.3262 28.5212 58.7177 28.6602 59.1345C28.6854 59.1976 28.6981 59.2608 28.6981 59.3366L28.7233 59.3239Z" fill="#F8FF94"/>
<path d="M30.7693 26.2444V26.8506C30.7693 28.5557 30.5673 29.9828 26.753 32.332C24.6438 33.6581 21.3727 35.2495 16.4218 37.3713C12.6707 38.9627 9.6016 40.5414 7.53029 42.1202C6.40623 42.979 5.57265 43.8252 5.10534 44.6841C4.85275 44.2547 4.71382 43.8252 4.65067 43.4084C4.61278 43.1306 4.61278 42.8527 4.65067 42.5875C4.81486 41.2866 5.83788 40.011 7.4924 38.7227C9.55108 37.1314 12.6454 35.5526 16.4218 33.9486C19.9202 32.4457 22.5852 31.2079 24.5807 30.1597C28.357 28.1515 29.8347 26.7875 30.4157 25.5371C30.6557 25.7897 30.7693 26.0297 30.7693 26.2444Z" fill="#F8FF94"/>
<path d="M27.3593 76.9297V80.3651C26.0205 80.1377 24.7323 80.0114 23.4819 79.9483H23.4567C20.7539 79.822 18.2531 80.0367 15.9671 80.504C14.0348 80.9081 12.2539 81.4891 10.612 82.1838C9.86688 82.5121 9.22275 82.8531 8.73019 83.2068C8.23762 83.5478 7.85872 83.8888 7.58086 84.2046C7.10093 83.6615 6.69677 82.9921 6.67151 82.2722C6.67151 81.6912 6.91148 81.085 7.5556 80.4661C8.26288 79.7967 9.47535 79.1273 11.4077 78.4958C12.4181 78.1548 13.618 77.8264 15.0451 77.5233C25.2627 75.3131 27.3341 76.9297 27.3341 76.9297H27.3593Z" fill="#F8FF94"/>
<path d="M25.2627 87.5999V91.0226C24.3281 90.8837 23.4819 90.7321 22.7115 90.6058C20.9306 90.2774 19.5287 89.9869 18.2405 89.8606C16.7628 89.6964 15.4114 89.7722 13.8326 90.2395C13.4537 90.3532 13.0875 90.4921 12.6833 90.6437C12.5444 90.6942 12.4307 90.7447 12.2918 90.8079C10.7762 91.452 8.86907 93.1949 8.30072 93.8517V90.0753C8.30072 89.6964 8.55332 89.3302 9.00799 89.0902H9.03325C9.80368 88.6608 11.054 88.0672 12.3928 87.7641C12.4686 87.7514 12.5696 87.7262 12.6454 87.7136C13.479 87.5494 14.262 87.4231 15.0198 87.3347C21.7263 86.4253 25.2627 87.6251 25.2627 87.6251V87.5999Z" fill="#F8FF94"/>
<path opacity="0.45" d="M6.69677 86.0234V86.6297C6.69677 86.6297 6.64625 86.4024 6.69677 86.0234Z" fill="#FFE52E"/>
<path opacity="0.45" d="M8.31341 93.2344V93.8407C8.31341 93.8407 8.26288 93.6133 8.31341 93.2344Z" fill="#FFE52E"/>
<g style="mix-blend-mode:multiply" opacity="0.45">
<path d="M30.7702 26.2445V26.8508C30.7702 28.5561 30.5681 29.9834 26.7533 32.3329C26.046 31.5624 25.2754 30.8171 24.5807 30.1603C28.3575 28.1519 29.8354 26.7876 30.4165 25.5371C30.6565 25.7897 30.7702 26.0297 30.7702 26.2445Z" fill="#D8CEDB"/>
</g>
<g style="mix-blend-mode:multiply" opacity="0.45">
<path d="M28.7242 59.3241C28.7621 59.5262 28.7621 59.6904 28.7242 59.8799C28.4084 61.4336 25.5032 62.7346 22.1558 63.8083C22.0548 62.7599 21.9411 61.5473 21.84 60.4862C24.1769 59.7536 26.3242 58.9073 27.5874 57.9473C28.1558 58.3262 28.5348 58.7178 28.6737 59.1346C28.699 59.1978 28.7116 59.2609 28.7116 59.3367L28.7242 59.3241Z" fill="#D8CEDB"/>
</g>
<g style="mix-blend-mode:multiply" opacity="0.45">
<path d="M7.51804 42.1225C6.39383 42.9814 5.56015 43.8278 5.09278 44.6867C4.84015 44.2572 4.7012 43.8278 4.63804 43.4109C4.60015 43.133 4.60015 42.8551 4.63804 42.5899C4.80225 41.2888 5.82541 40.013 7.48015 38.7246C7.3412 39.7604 7.3033 40.9478 7.51804 42.1225Z" fill="#D8CEDB"/>
</g>
<g style="mix-blend-mode:multiply" opacity="0.45">
<path d="M8.45289 67.836C7.05079 68.4423 5.83815 69.1118 5.13078 69.9329C5.0171 69.7434 4.89078 69.5792 4.78973 69.4023C4.58763 69.0486 4.49921 68.7076 4.44868 68.3792C4.28447 66.876 5.69921 65.7013 7.695 64.7539L8.44026 67.836H8.45289Z" fill="#D8CEDB"/>
</g>
<g style="mix-blend-mode:multiply" opacity="0.45">
<path d="M27.3594 76.9288V78.7854L23.482 79.9474H23.4567C20.7539 79.8211 18.2532 80.0358 15.9672 80.5031L11.4204 78.5076C12.4308 78.1665 13.6306 77.8382 15.0578 77.535C25.2754 75.3248 27.3467 76.9414 27.3467 76.9414L27.3594 76.9288Z" fill="#D8CEDB"/>
</g>
<g style="mix-blend-mode:multiply" opacity="0.45">
<path d="M25.2628 87.6008V90.2783L22.7115 90.6067C20.9307 90.2783 19.5288 89.9878 18.2405 89.8615L15.0199 87.3229C21.7264 86.4136 25.2628 87.6134 25.2628 87.6134V87.6008Z" fill="#D8CEDB"/>
</g>
<g style="mix-blend-mode:multiply" opacity="0.45">
<path d="M7.58099 80.4785C7.75783 81.388 8.11151 82.4112 8.74309 83.2196C8.25046 83.5606 7.87151 83.9017 7.59362 84.2175C7.11362 83.6743 6.70941 83.0048 6.68414 82.2848C6.68414 81.7038 6.92414 81.0975 7.56835 80.4785H7.58099Z" fill="#D8CEDB"/>
</g>
<g style="mix-blend-mode:multiply" opacity="0.45">
<path d="M13.846 90.2286C13.467 90.3423 13.1007 90.4813 12.6965 90.6329C11.5723 90.2286 10.006 89.5086 9.03333 89.0539C9.80385 88.6371 11.0544 88.0434 12.3933 87.7402C13.0502 88.7129 13.5807 89.6223 13.8333 90.2286H13.846Z" fill="#D8CEDB"/>
</g>
<path d="M30.7694 22.8087V26.2441C30.7694 26.0167 30.6557 25.7894 30.4157 25.5368C29.8221 24.8927 28.5212 24.1222 26.7783 23.2634C25.3006 22.5182 23.4945 21.6973 21.5369 20.8258C19.1877 19.7649 16.5986 18.603 14.06 17.3652C11.0414 15.8749 8.1113 14.2709 5.76214 12.5785C4.39811 11.5933 3.21089 10.583 2.33943 9.52205C0.87436 7.76649 0.343906 5.88463 0.230237 4.23011C0.0155282 3.42179 0.0913071 1.40101 0.204976 0.0117188C0.204976 0.580065 0.242867 1.1863 0.343906 1.80516C0.583875 3.18183 1.17748 4.68479 2.33943 6.09934C3.28667 7.2234 4.53704 8.30958 6.04 9.35786C8.38916 11.0124 11.2562 12.5659 14.2242 14.0309C16.8386 15.2939 19.5035 16.4811 21.9158 17.5547C23.5956 18.3125 25.1617 19.0324 26.4752 19.6765C29.0643 20.9521 30.7694 22.0257 30.7694 22.8087Z" fill="#FFAB2E"/>
<path d="M27.3593 76.9292V80.3646C26.5637 80.4277 25.7553 80.4656 24.9849 80.4656C23.4441 80.4909 21.9158 80.4025 20.476 80.213C15.9545 79.6573 12.0014 78.2427 9.147 76.6135C6.94939 75.3505 5.40854 73.9991 4.77705 72.8119C4.61286 72.5214 4.52445 72.2435 4.48656 71.9783V71.1447L4.44867 68.3535C4.48656 68.6819 4.58759 69.0229 4.78967 69.3765C4.89071 69.5534 5.00438 69.7175 5.13068 69.907C5.92637 70.9805 7.37881 72.1804 9.36171 73.2666C12.0898 74.7948 15.7903 76.1209 19.9961 76.7019C21.4991 76.9292 23.0652 77.0303 24.6818 77.0303C25.5659 77.0303 26.4626 76.9924 27.372 76.9166L27.3593 76.9292Z" fill="#FFAB2E"/>
<path d="M28.7233 55.9001V59.3228C28.7233 59.2597 28.6981 59.1965 28.6854 59.1207C28.5465 58.7166 28.1676 58.3124 27.5993 57.9335C26.9804 57.5167 26.1594 57.1126 25.149 56.7337C23.1156 55.9127 20.4507 55.1423 17.7227 54.3214C16.6491 54.0182 15.5882 53.6899 14.5399 53.3615C12.3044 52.6542 10.2079 51.8838 8.56597 51.0376C7.65661 50.5829 6.88619 50.0903 6.31784 49.5599C5.29482 48.6379 4.75173 47.7285 4.63806 46.8192V43.3965C4.70121 43.8133 4.84014 44.2427 5.09274 44.6721C5.3706 45.152 5.76213 45.632 6.31784 46.1246C7.01249 46.756 7.95973 47.337 9.07116 47.8801C10.8899 48.7516 13.138 49.522 15.4998 50.2545C16.4344 50.545 17.3564 50.8229 18.291 51.1007C20.7159 51.808 23.0777 52.5153 24.9343 53.2099C26.9551 54.0056 28.3949 54.8013 28.7107 55.7107C28.7359 55.7738 28.7486 55.837 28.7486 55.9127L28.7233 55.9001Z" fill="#FFAB2E"/>
<path d="M25.2628 87.6013V91.1124C25.2628 91.1124 24.5681 91.2387 23.3683 91.3145C22.5978 91.3524 21.5874 91.365 20.4002 91.3145C19.7435 91.2892 19.0362 91.2387 18.291 91.1377C16.5734 90.9482 14.5778 90.5946 12.456 89.9631C11.8877 89.7863 11.3698 89.6221 10.8899 89.4327C7.45457 88.1191 6.68414 86.6162 6.68414 86.6162V82.2715C6.7094 82.9914 7.11356 83.6608 7.5935 84.2039C7.61876 84.2165 7.63139 84.2291 7.63139 84.2418C8.16184 84.848 9.65218 85.6184 11.6603 86.3257C13.5169 86.9572 15.8156 87.5129 18.2279 87.7781H18.2531C19.2004 87.8918 20.1855 87.9676 21.158 87.9676C22.0295 87.9802 22.901 87.9297 23.7472 87.8287C24.265 87.7781 24.7702 87.7024 25.2628 87.6013Z" fill="#FFAB2E"/>
<path d="M18.1395 92.6648L15.4114 95.9991C13.7695 95.8854 12.4308 95.6581 11.3825 95.3802C10.991 95.2918 10.6121 95.1655 10.2963 95.0518C9.42485 94.7361 8.81862 94.3825 8.50287 94.0414C8.42709 93.9783 8.36394 93.9151 8.32605 93.8394C7.94716 93.2963 8.32605 89.9746 8.32605 89.9746C8.35131 90.2019 8.84388 90.7198 10.0058 91.2502C10.4352 91.4523 10.991 91.6544 11.6477 91.8439C12.1655 92.008 12.7592 92.1343 13.4033 92.248C14.7042 92.488 16.2703 92.6395 18.1521 92.6648H18.1395Z" fill="#FFAB2E"/>
<g style="mix-blend-mode:soft-light">
<path d="M21.0574 89.7352C21.0195 89.9626 20.6405 90.8468 20.4005 91.3142C19.7437 91.2889 19.0363 91.2384 18.2911 91.1373C18.43 90.8721 18.67 90.2531 18.6447 89.5331C18.6195 88.5858 18.1647 87.79 18.1647 87.79C18.1647 87.79 18.19 87.79 18.2279 87.7773H18.2532C19.2005 87.891 20.1858 87.9668 21.1584 87.9668C21.2216 88.4215 21.1963 89.1415 21.0574 89.7352Z" fill="#FBFFBD"/>
</g>
<g style="mix-blend-mode:soft-light">
<path d="M13.3911 92.2499C12.9363 92.5531 12.09 93.0836 11.6858 93.8415C11.5469 94.132 11.4458 94.9025 11.37 95.3825C10.9784 95.2941 10.5995 95.1678 10.2837 95.0541C10.2837 94.6246 10.3595 93.9552 10.5237 93.4752C10.8016 92.6541 11.3195 92.1236 11.6353 91.8457C12.1532 92.0099 12.7468 92.1362 13.3911 92.2499Z" fill="#FBFFBD"/>
</g>
<g style="mix-blend-mode:soft-light">
<path d="M24.9981 80.4781C23.4571 80.5034 21.9287 80.415 20.4887 80.2255C20.9055 78.6466 20.4129 77.396 19.996 76.7266C21.4992 76.9539 23.0655 77.055 24.6823 77.055C25.0739 77.8255 25.2002 79.455 24.9981 80.4781Z" fill="#FBFFBD"/>
</g>
<g style="mix-blend-mode:soft-light">
<path d="M18.2788 51.1022C17.8493 52.1759 17.723 53.3632 17.723 54.3359C16.6493 54.0327 15.5883 53.7043 14.5399 53.3759C14.5651 52.3022 15.0578 51.0895 15.4872 50.2559C16.422 50.5464 17.3441 50.8243 18.2788 51.1022Z" fill="#FBFFBD"/>
</g>
<g style="mix-blend-mode:soft-light">
<path d="M21.9042 17.5574C21.841 18.7448 21.7021 19.8437 21.5253 20.8164C19.1758 19.7553 16.5863 18.5932 14.0474 17.3553C14.1232 16.7995 14.1863 16.2185 14.2116 15.65C14.2368 15.1448 14.2368 14.6016 14.2116 14.0332C16.8263 15.2964 19.4916 16.4837 21.9042 17.5574Z" fill="#FBFFBD"/>
</g>
<g style="mix-blend-mode:color-burn">
<path d="M9.05911 47.8807L8.56648 51.0386C7.65701 50.5839 6.88648 50.0912 6.31806 49.5607C5.29491 48.6386 4.75175 47.7291 4.63806 46.8196V43.3965C4.70122 43.8133 4.84017 44.2428 5.0928 44.6723C5.37069 45.1523 5.76227 45.6323 6.31806 46.1249C7.0128 46.7565 7.96017 47.3375 9.07175 47.8807H9.05911Z" fill="#DB9393"/>
</g>
<g style="mix-blend-mode:color-burn">
<path d="M28.7239 55.9004V59.3236C28.7239 59.2604 28.6986 59.1973 28.686 59.1215C28.547 58.7173 28.1681 58.3131 27.5996 57.9341C26.9807 57.5173 26.1596 57.113 25.1491 56.7341L24.9091 53.1973C26.9302 53.9931 28.3702 54.7888 28.686 55.6983C28.7112 55.7615 28.7239 55.8246 28.7239 55.9004Z" fill="#DB9393"/>
</g>
<g style="mix-blend-mode:color-burn">
<path d="M9.36236 73.2926C9.32446 74.3157 9.24867 75.6042 9.16025 76.64C6.96236 75.3768 5.4213 74.0252 4.78972 72.8379C4.62551 72.5473 4.53709 72.2694 4.4992 72.0042V71.1705L4.4613 68.3789C4.4992 68.7073 4.60025 69.0484 4.80236 69.4021C4.90341 69.5789 5.01709 69.7431 5.14341 69.9326C5.9392 71.0063 7.39183 72.2063 9.37499 73.2926H9.36236Z" fill="#DB9393"/>
</g>
<g style="mix-blend-mode:color-burn">
<path d="M11.6736 86.3379L10.903 89.4453C7.46724 88.1316 6.69672 86.6285 6.69672 86.6285V82.2832C6.72198 83.0032 7.12619 83.6727 7.60619 84.2158C7.63145 84.2285 7.64408 84.2411 7.64408 84.2537C8.17461 84.86 9.66514 85.6306 11.6736 86.3379Z" fill="#DB9393"/>
</g>
<g style="mix-blend-mode:color-burn">
<path d="M9.99344 91.2387C9.5766 91.7692 8.73028 92.8808 8.49028 94.0303C8.41449 93.9671 8.35134 93.9039 8.31344 93.8282C7.93449 93.285 8.31344 89.9629 8.31344 89.9629C8.3387 90.1903 8.83134 90.7081 9.99344 91.2387Z" fill="#DB9393"/>
</g>
<g style="mix-blend-mode:color-burn">
<path d="M25.263 87.6016V91.1131C25.263 91.1131 24.5683 91.2394 23.3683 91.3152L23.7472 87.8289C24.2651 87.7784 24.7704 87.7026 25.263 87.6016Z" fill="#DB9393"/>
</g>
<g style="mix-blend-mode:color-burn">
<path d="M6.04 9.35877C5.86318 10.4576 5.7874 11.5564 5.76214 12.5668C4.39811 11.5816 3.2109 10.5712 2.33943 9.51033C0.87436 7.75477 0.343906 5.87292 0.230237 4.2184C0.0155281 3.41008 0.0913071 1.38929 0.204976 0C0.204976 0.568346 0.242867 1.17458 0.343906 1.79345C0.583875 3.17011 1.17748 4.67307 2.33943 6.08762C3.28667 7.21168 4.53704 8.29786 6.04 9.34614V9.35877Z" fill="#DB9393"/>
</g>
<g style="mix-blend-mode:color-burn">
<path d="M30.77 22.8095V26.2452C30.77 26.0179 30.6563 25.7905 30.4163 25.5379C29.8226 24.8937 28.5215 24.1231 26.7784 23.2642C26.6773 22.0894 26.5763 20.7758 26.4879 19.6895C29.0773 20.9652 30.7826 22.0389 30.7826 22.8221L30.77 22.8095Z" fill="#DB9393"/>
</g>
</svg>
