<svg width="83" height="80" viewBox="0 0 83 80" fill="none" xmlns="http://www.w3.org/2000/svg">
<path d="M71.673 39.0299C71.673 39.0299 81.4228 38.9999 82.8185 34.2999C83.0194 33.6499 83.0595 32.9199 82.9089 32.0799C81.8847 26.1699 71.673 27.9799 71.673 27.9799V31.3399C71.673 31.3399 79.4447 29.9299 79.3744 32.3899C79.3744 32.4099 79.3744 32.4299 79.3744 32.4499C79.3744 32.5699 79.3544 32.6899 79.3242 32.8199C78.7218 35.4999 71.673 35.1299 71.673 35.1299V39.0299Z" fill="#8AEDF2"/>
<path d="M71.673 29.5596V31.3396C71.673 31.3396 79.4447 29.9296 79.3745 32.3896C79.7158 29.2896 73.2896 29.4796 71.673 29.5596Z" fill="#74DDE3"/>
<path d="M71.673 37.9498V39.0298C71.673 39.0298 81.4228 38.9998 82.8185 34.2998C82.8185 34.2998 81.1718 37.2798 75.589 37.7498C73.6611 37.9098 72.5666 37.9598 71.673 37.9498Z" fill="#74DDE3"/>
<path d="M75.9906 28.5804C75.9906 28.5804 81.4027 28.4604 81.1216 31.5804C80.8404 34.7004 78.3502 35.8804 78.3502 35.8804C78.3502 35.8804 82.216 35.1904 81.8546 31.4604C81.4931 27.7304 75.9906 28.5804 75.9906 28.5804Z" fill="#A8FBFF"/>
<path d="M74.2233 22V73.86C74.2233 73.86 72.4461 75.94 65.4374 77.7H65.4073C60.3968 78.93 52.7154 80 41.108 80C13.214 80 8.0127 73.86 8.0127 73.86V22C8.0127 22 13.4549 23.6 24.5603 24.53C29.1089 24.92 34.6315 25.19 41.118 25.19C63.379 25.19 74.2334 22 74.2334 22H74.2233Z" fill="#00C9D4"/>
<path d="M16.4773 35.8702C18.1187 35.8702 19.4494 34.545 19.4494 32.9102C19.4494 31.2754 18.1187 29.9502 16.4773 29.9502C14.8358 29.9502 13.5051 31.2754 13.5051 32.9102C13.5051 34.545 14.8358 35.8702 16.4773 35.8702Z" fill="#DEFEFF"/>
<path d="M29.9927 38.1104C31.6341 38.1104 32.9648 36.7852 32.9648 35.1504C32.9648 33.5157 31.6341 32.1904 29.9927 32.1904C28.3512 32.1904 27.0205 33.5157 27.0205 35.1504C27.0205 36.7852 28.3512 38.1104 29.9927 38.1104Z" fill="#DEFEFF"/>
<path d="M45.9477 38.1104C47.5892 38.1104 48.9199 36.7852 48.9199 35.1504C48.9199 33.5157 47.5892 32.1904 45.9477 32.1904C44.3063 32.1904 42.9756 33.5157 42.9756 35.1504C42.9756 36.7852 44.3063 38.1104 45.9477 38.1104Z" fill="#DEFEFF"/>
<path d="M62.4352 35.8702C64.0766 35.8702 65.4073 34.545 65.4073 32.9102C65.4073 31.2754 64.0766 29.9502 62.4352 29.9502C60.7937 29.9502 59.463 31.2754 59.463 32.9102C59.463 34.545 60.7937 35.8702 62.4352 35.8702Z" fill="#DEFEFF"/>
<path d="M74.2233 25.7002V31.2902C73.0586 30.8802 72.2452 29.7902 72.2452 28.5002C72.2452 27.2102 73.0586 26.1102 74.2233 25.7102V25.7002Z" fill="#DEFEFF"/>
<path d="M12.0693 42.3506C11.9689 43.9906 10.5531 45.2206 8.91639 45.1206C8.59508 45.0906 8.29384 45.0306 8.0127 44.9206V39.4206C8.4043 39.2506 8.84611 39.1806 9.29795 39.2006C10.9346 39.3106 12.1797 40.7206 12.0693 42.3506Z" fill="#DEFEFF"/>
<path d="M22.4418 48.2198C24.0832 48.2198 25.4139 46.8946 25.4139 45.2598C25.4139 43.625 24.0832 42.2998 22.4418 42.2998C20.8003 42.2998 19.4696 43.625 19.4696 45.2598C19.4696 46.8946 20.8003 48.2198 22.4418 48.2198Z" fill="#DEFEFF"/>
<path d="M38.3668 49.2501C40.0083 49.2501 41.339 47.9248 41.339 46.2901C41.339 44.6553 40.0083 43.3301 38.3668 43.3301C36.7253 43.3301 35.3947 44.6553 35.3947 46.2901C35.3947 47.9248 36.7253 49.2501 38.3668 49.2501Z" fill="#DEFEFF"/>
<path d="M54.9647 48.0802C56.6062 48.0802 57.9369 46.7549 57.9369 45.1202C57.9369 43.4854 56.6062 42.1602 54.9647 42.1602C53.3232 42.1602 51.9926 43.4854 51.9926 45.1202C51.9926 46.7549 53.3232 48.0802 54.9647 48.0802Z" fill="#DEFEFF"/>
<path d="M70.9801 45.1202C72.6215 45.1202 73.9522 43.795 73.9522 42.1602C73.9522 40.5254 72.6215 39.2002 70.9801 39.2002C69.3386 39.2002 68.0079 40.5254 68.0079 42.1602C68.0079 43.795 69.3386 45.1202 70.9801 45.1202Z" fill="#DEFEFF"/>
<path d="M14.5194 57.3702C16.1609 57.3702 17.4915 56.045 17.4915 54.4102C17.4915 52.7754 16.1609 51.4502 14.5194 51.4502C12.8779 51.4502 11.5472 52.7754 11.5472 54.4102C11.5472 56.045 12.8779 57.3702 14.5194 57.3702Z" fill="#DEFEFF"/>
<path d="M29.9927 60.4698C31.6341 60.4698 32.9648 59.1446 32.9648 57.5098C32.9648 55.875 31.6341 54.5498 29.9927 54.5498C28.3512 54.5498 27.0205 55.875 27.0205 57.5098C27.0205 59.1446 28.3512 60.4698 29.9927 60.4698Z" fill="#DEFEFF"/>
<path d="M47.5644 61.1602C49.2059 61.1602 50.5366 59.835 50.5366 58.2002C50.5366 56.5655 49.2059 55.2402 47.5644 55.2402C45.923 55.2402 44.5923 56.5655 44.5923 58.2002C44.5923 59.835 45.923 61.1602 47.5644 61.1602Z" fill="#DEFEFF"/>
<path d="M65.4073 59.3507C67.0488 59.3507 68.3795 58.0254 68.3795 56.3907C68.3795 54.7559 67.0488 53.4307 65.4073 53.4307C63.7658 53.4307 62.4352 54.7559 62.4352 56.3907C62.4352 58.0254 63.7658 59.3507 65.4073 59.3507Z" fill="#DEFEFF"/>
<path d="M57.9368 72.0899C59.5782 72.0899 60.9089 70.7647 60.9089 69.1299C60.9089 67.4952 59.5782 66.1699 57.9368 66.1699C56.2953 66.1699 54.9646 67.4952 54.9646 69.1299C54.9646 70.7647 56.2953 72.0899 57.9368 72.0899Z" fill="#DEFEFF"/>
<path d="M74.2234 63.2803V69.0303C72.8176 68.7103 71.8336 67.4303 71.924 65.9703C72.0143 64.6203 72.9682 63.5703 74.2234 63.2803Z" fill="#DEFEFF"/>
<path d="M38.3668 75.0499C40.0083 75.0499 41.339 73.7246 41.339 72.0899C41.339 70.4551 40.0083 69.1299 38.3668 69.1299C36.7253 69.1299 35.3947 70.4551 35.3947 72.0899C35.3947 73.7246 36.7253 75.0499 38.3668 75.0499Z" fill="#DEFEFF"/>
<path d="M20.4736 73.1007C22.1151 73.1007 23.4458 71.7754 23.4458 70.1407C23.4458 68.5059 22.1151 67.1807 20.4736 67.1807C18.8321 67.1807 17.5015 68.5059 17.5015 70.1407C17.5015 71.7754 18.8321 73.1007 20.4736 73.1007Z" fill="#DEFEFF"/>
<g style="mix-blend-mode:multiply" opacity="0.19">
<path d="M65.4073 77.7C60.3968 78.93 52.7154 80 41.108 80C33.9989 80 28.3659 79.61 23.9277 79.01C10.9045 77.27 8.0127 73.87 8.0127 73.87V22C8.0127 22 11.6174 23.07 18.9574 23.96C20.6242 24.16 22.4919 24.37 24.5603 24.53C25.1427 25.24 25.5343 25.97 25.6347 26.69C25.6347 26.69 18.6863 66.79 45.3955 74.48C53.7396 76.88 60.3064 77.71 65.4173 77.71L65.4073 77.7Z" fill="#00BDC7"/>
</g>
<g style="mix-blend-mode:multiply" opacity="0.19">
<path d="M23.9277 79.01C10.9045 77.27 8.0127 73.87 8.0127 73.87V22C8.0127 22 11.6174 23.07 18.9574 23.96L20.8552 25.83C20.8552 25.83 13.0533 26.05 12.2801 28.42C11.517 30.8 13.9972 35.84 13.5654 38.82C13.1336 41.82 9.0168 66.36 14.6599 72.09C17.3207 74.81 20.8954 77.23 23.9177 79.01H23.9277Z" fill="#00B3BD"/>
</g>
<path d="M74.0527 20.4398C74.0527 20.5398 74.0527 20.6298 74.0226 20.7298C73.6109 24.6398 64.7547 25.8498 52.836 26.2198C48.91 26.3298 44.6525 26.3598 40.2445 26.3598C29.1191 26.3598 19.7106 26.1898 14.1378 24.7798C14.1378 24.7798 14.1278 24.7798 14.1278 24.7698C11.0151 23.9798 9.08719 22.7998 8.74579 21.0498C8.70563 20.8598 8.68555 20.6598 8.68555 20.4398C8.68555 16.3098 14.0575 12.6498 22.2912 10.4098H22.3012C27.6732 8.94984 34.25 8.08984 41.3691 8.08984C42.8251 8.08984 44.2509 8.12984 45.6566 8.18984C45.6566 8.18984 45.6968 8.18984 45.7872 8.19984C61.7524 9.00984 74.0527 14.1998 74.0527 20.4498V20.4398Z" fill="#00C9D4"/>
<path opacity="0.46" d="M74.0527 20.4404C74.0527 20.5404 74.0527 20.6304 74.0225 20.7304L73.2193 21.5904C73.2193 21.5304 73.1389 19.1304 69.4137 15.6204C65.1161 11.5504 56.7018 9.52043 45.7771 8.19043C61.7424 9.00043 74.0426 14.1904 74.0426 20.4404H74.0527Z" fill="#8AEDF2"/>
<path d="M54.7639 24.5004L52.836 26.2104C48.91 26.3204 44.6525 26.3504 40.2445 26.3504C29.1191 26.3504 19.7106 26.1804 14.1378 24.7704C14.1378 24.7704 14.1278 24.7704 14.1278 24.7604C11.7983 23.3404 10.031 22.0804 8.74579 21.0404C8.70563 20.8504 8.68555 20.6504 8.68555 20.4304C8.68555 16.3004 14.0575 12.6404 22.2912 10.4004C21.9297 10.6404 15.7143 14.8804 19.9215 19.5504C24.2592 24.3404 54.7639 24.5004 54.7639 24.5004Z" fill="#00BDC7"/>
<path d="M8.68554 20.0803C8.68554 20.0803 6.40622 20.7603 6.32589 22.0003C6.24556 23.2403 9.30808 24.5803 12.0292 25.1903C26.6891 28.5003 47.3335 28.2203 60.5576 26.6403C69.1527 25.6103 73.9523 23.9603 75.5287 22.0003C76.6031 20.6603 74.0628 20.0803 74.0628 20.0803C74.0628 20.0803 69.0924 23.0803 59.2422 24.1303C49.3919 25.1803 25.8658 25.5603 15.1118 22.9903C8.15336 21.3303 8.6755 20.0703 8.6755 20.0703L8.68554 20.0803Z" fill="#8AEDF2"/>
<path d="M53.6293 25.7004C53.6293 25.7004 61.9734 26.9204 70.8497 23.6004C73.6511 22.5504 75.4083 21.6904 74.7556 21.0804C74.103 20.4704 73.4905 22.0404 69.2632 23.5004C65.0359 24.9604 53.6293 25.7004 53.6293 25.7004Z" fill="#A8FBFF"/>
<path d="M12.2802 37.3596C12.1798 38.1296 11.7179 38.5696 11.7179 38.5696C11.7179 38.5696 2.65084 40.1096 0.47193 35.7096C0.170699 35.0996 0 34.3896 0 33.5396C0 27.5396 8.01275 27.7896 8.01275 27.7896V30.9896C8.01275 30.9896 3.05247 30.8396 3.53444 33.2496C3.53444 33.2796 3.53445 33.2896 3.54449 33.3096C3.57461 33.4196 3.60473 33.5396 3.65494 33.6696C4.70925 36.2096 10.9849 34.6896 10.9849 34.6896C10.9849 34.6896 11.8384 35.0096 12.2099 36.3896C12.3103 36.7596 12.3103 37.0896 12.2702 37.3696L12.2802 37.3596Z" fill="#8AEDF2"/>
<path d="M8.01277 29.2393V30.9793C8.01277 30.9793 3.05249 30.8293 3.53446 33.2393C2.67093 30.2393 6.4062 29.4393 8.01277 29.2393Z" fill="#74DDE3"/>
<path d="M12.2802 37.36C12.1798 38.13 11.7179 38.57 11.7179 38.57C11.7179 38.57 2.65083 40.11 0.471924 35.71C0.471924 35.71 2.60062 38.36 8.18344 37.88C10.1113 37.71 11.3966 37.52 12.2802 37.36Z" fill="#74DDE3"/>
<path opacity="0.58" d="M38.7584 20.4098C40.606 20.5498 60.5475 20.8198 68.4498 17.5698C69.8455 16.9998 70.9199 17.9598 68.3394 18.8598C61.5014 21.2498 54.2518 21.8098 45.004 21.5198C35.3043 21.2198 36.9209 20.2598 38.7584 20.4098Z" fill="#8AEDF2"/>
<path d="M48.3979 9.24008C48.3979 9.88008 45.2751 11.4401 41.4193 11.4401C37.5636 11.4401 34.4408 9.89008 34.4408 9.24008C34.4408 8.29008 37.5636 8.08008 41.4193 8.08008C45.2751 8.08008 48.3979 8.37008 48.3979 9.24008Z" fill="#28A9B0"/>
<path d="M45.4558 8.61996C45.4558 9.25996 43.6484 10.25 41.4193 10.25C39.1902 10.25 37.3828 9.25996 37.3828 8.61996C37.3828 7.66996 39.1902 7.45996 41.4193 7.45996C43.6484 7.45996 45.4558 7.74996 45.4558 8.61996Z" fill="#259DA3"/>
<path d="M48.3878 4.74C48.3878 4.99 48.3577 5.25 48.2874 5.49C47.7653 7.74 44.8835 9.47 41.4093 9.47C37.5535 9.47 34.4408 7.35 34.4408 4.74C34.4408 4.6 34.4508 4.46 34.4709 4.32C34.4709 4.32 34.4609 4.31 34.4709 4.29C34.6115 3.27 35.234 2.35 36.1779 1.61C37.4531 0.62 39.3107 0 41.4093 0C45.0943 0 48.1067 1.93 48.3577 4.4C48.3878 4.51 48.3878 4.63 48.3878 4.74Z" fill="#40CCD4"/>
<path opacity="0.51" d="M48.3677 4.39977C48.3577 4.52977 48.3275 4.63977 48.2874 4.76977C47.7652 7.01977 44.8835 8.74977 41.4093 8.74977C37.7142 8.74977 34.6918 6.78977 34.4709 4.32977C34.4709 4.32977 34.4609 4.31977 34.4709 4.29977C34.6115 3.27977 35.234 2.35977 36.1779 1.61977C36.3988 1.44977 36.6197 1.28977 36.8808 1.14977C38.0957 0.439766 39.6722 0.00976562 41.4093 0.00976562C44.8533 0.00976562 47.715 1.69977 48.2874 3.91977C48.3175 4.08977 48.3476 4.23977 48.3677 4.39977Z" fill="#8AEDF2"/>
<path opacity="0.4" d="M48.2874 3.91C46.7912 4.86 44.5722 5.22 42.2527 4.71C39.7424 4.18 37.7543 2.77 36.8807 1.14C38.0957 0.43 39.6721 0 41.4092 0C44.8533 0 47.715 1.69 48.2874 3.91Z" fill="#CFFDFF"/>
</svg>
