<svg width="176" height="228" viewBox="0 0 176 228" fill="none" xmlns="http://www.w3.org/2000/svg">
<g style="mix-blend-mode:multiply" opacity="0.41">
<path d="M25.9403 184.733C24.3203 184.733 22.7603 184.763 21.2803 184.823C-1.75972 185.823 -12.4097 210.433 22.3903 216.073C32.2403 217.673 37.4303 222.543 56.1303 226.423C61.4503 227.523 66.9403 228.003 72.4303 228.003C100.31 228.003 128.26 215.813 135.34 212.183C139.77 209.913 156.03 201.903 161.26 201.903C161.55 201.903 161.81 201.923 162.02 201.983C164.55 202.583 166.63 203.563 168.23 203.563C169.25 203.563 170.08 203.163 170.69 202.003C172.26 199.033 165.96 198.613 166.68 197.763C167.39 196.913 171.22 193.503 166.86 192.123C166.34 191.963 165.91 191.883 165.53 191.883C162.73 191.883 163.38 195.923 161.62 197.153C160.95 197.623 160.51 197.813 159.56 197.813C157.7 197.813 153.85 197.073 142.3 196.243C124.85 194.993 118.98 196.513 106.78 194.463C95.3003 192.533 51.9703 184.733 25.9303 184.733" fill="#4A55C4"/>
</g>
<path d="M43.8303 134.343C50.7703 139.303 57.5203 132.413 57.6003 126.033C57.6603 119.663 73.0203 111.913 74.0803 106.083C74.1303 105.793 74.1803 105.493 74.2103 105.223C74.5503 102.293 73.8603 99.6527 71.9403 98.3527C70.2703 97.2127 67.6603 97.1127 63.9703 98.7427C62.8703 99.2227 61.6603 99.9527 60.4003 100.883C58.9603 101.943 57.4503 103.243 55.9603 104.743C54.2503 106.433 52.5503 108.363 50.9703 110.413C50.9703 110.423 50.9503 110.433 50.9503 110.433C49.4403 112.393 48.0503 114.483 46.8603 116.573C46.7703 116.733 46.6803 116.893 46.5803 117.053C45.0103 119.853 43.6903 122.343 42.8103 124.543C42.7003 124.783 42.6103 125.033 42.5203 125.263L42.4903 125.363C40.9703 129.393 41.0703 132.353 43.8303 134.343Z" fill="#4F5FFF"/>
<path d="M43.3703 132.003C48.6603 135.893 51.8403 133.083 55.4703 124.913C59.0903 116.743 71.4003 102.833 71.4303 102.763C71.6003 101.293 71.8403 99.7428 71.9403 98.3528C72.2403 94.6028 71.5603 91.9628 65.9103 94.8328C63.1103 96.2528 59.5103 99.8828 56.2803 103.653C54.2503 106.023 52.3903 108.433 50.9603 110.413C50.9603 110.423 50.9403 110.433 50.9403 110.433C50.4103 111.163 49.9503 111.833 49.5603 112.403C48.5403 113.923 47.5103 115.493 46.5703 117.053C45.0203 119.593 43.6603 122.123 42.8103 124.383C42.6903 124.683 42.5903 124.973 42.5003 125.263L42.4703 125.363C41.5303 128.293 41.5803 130.683 43.3503 131.993L43.3703 132.003Z" fill="#4F5FFF"/>
<path d="M66.7803 99.7527C66.7803 99.7527 65.4203 109.063 62.4403 112.913C59.4603 116.763 51.8103 124.193 48.6103 123.913C45.4103 123.633 51.1703 119.913 54.8403 113.103C61.2403 101.223 66.7803 99.7427 66.7803 99.7427V99.7527Z" fill="#293CFF"/>
<path d="M42.8303 124.383C42.8303 124.443 42.8103 124.493 42.8103 124.543C42.5803 126.133 42.5403 127.773 42.6303 128.203C42.6703 128.373 42.8703 129.553 42.8703 129.553C43.2203 128.323 44.2503 126.843 44.4303 126.433C44.5903 126.053 45.2403 124.963 45.9003 124.373C45.9303 123.763 44.8503 122.733 45.6703 121.103C47.9103 116.733 54.3303 107.833 55.9403 104.733C56.2603 104.113 56.4003 103.723 56.2703 103.653C54.2403 106.023 52.3803 108.433 50.9503 110.413C50.9503 110.423 50.9303 110.433 50.9303 110.433C49.4203 112.393 48.0303 114.483 46.8403 116.573C46.7503 116.733 46.6603 116.893 46.5603 117.053C45.0103 119.593 43.6503 122.123 42.8003 124.383H42.8303Z" fill="#7B87FF"/>
<g style="mix-blend-mode:multiply" opacity="0.41">
<path d="M117.38 205.483C117.38 205.483 121.13 210.663 115.73 214.793C110.98 218.423 69.0203 224.093 45.8703 211.673C41.8303 209.503 38.8403 203.913 31.5903 202.943C18.1003 201.143 15.6703 196.183 15.6703 196.183C15.6703 196.183 104.57 192.573 117.37 205.483H117.38Z" fill="#000EAB"/>
</g>
<mask id="mask0_6007_54001" style="mask-type:luminance" maskUnits="userSpaceOnUse" x="85" y="66" width="46" height="46">
<path d="M125.63 74.8427C122.72 72.0227 124.85 67.7527 124.13 67.0127H124.09C124 67.0427 123.23 66.7127 122.35 66.7427C112.93 66.9927 104.95 72.4027 99.7703 75.5327C89.4903 81.7327 86.6603 95.9527 85.5903 101.113C85.2503 102.763 89.3903 106.363 91.3203 108.083H91.3403C101.72 106.603 104.01 109.293 107.11 110.213C121.04 114.383 120.19 106.383 123.91 101.483C126.1 98.5927 129.02 100.183 130.43 95.8327C131.47 92.6227 128.79 90.8727 128.96 86.7827C129.08 83.9327 131.47 81.0627 130.82 79.2727C129.75 76.2927 126.94 76.1027 125.63 74.8327" fill="white"/>
</mask>
<g mask="url(#mask0_6007_54001)">
<path d="M149.83 73.8726C148.29 76.4226 146.13 79.7726 143.48 83.3726C141.81 85.6526 142.3 88.8526 144.61 90.4926C146.63 91.9126 148.68 93.9026 148.44 96.2626C147.91 101.433 143.6 105.643 129.54 107.093C126.06 107.453 128.19 109.423 129.12 112.953C130.31 117.473 120.34 122.093 112.84 118.233C108.46 115.973 104.61 112.713 88.7703 114.983H88.7403C85.8003 112.353 79.4703 106.853 79.9903 104.333C81.6203 96.4526 85.9403 74.7426 101.63 65.2726C109.53 60.4926 121.72 52.2326 136.1 51.8526C137.44 51.8126 138.63 52.3226 138.76 52.2526H138.81C139.92 53.3826 140.49 55.0826 140.08 56.7726C139.87 57.6626 139.63 58.6326 139.35 59.6726C138.65 62.2826 140.14 64.9926 142.72 65.8026C144.52 66.3726 146.12 66.9026 147.46 67.3826C150.09 68.2726 151.26 71.5326 149.83 73.8826" fill="#4450CF"/>
<path d="M88.4503 96.8627C89.7403 95.4127 91.2503 94.1427 92.8103 93.0027C96.0303 90.6427 99.6103 88.8427 103.29 87.3427C111.42 84.0227 120.02 81.6627 128.64 80.0227C133.67 79.0727 138.76 78.3827 143.86 77.9627C145.25 77.8527 145.07 75.6927 143.69 75.8027C134.25 76.5827 124.88 78.2727 115.76 80.8427C111.44 82.0627 107.14 83.4527 102.98 85.1227C99.0803 86.6927 95.2603 88.5627 91.8503 91.0227C90.9803 91.6427 90.1303 92.3127 89.3103 93.0227C89.5803 92.2627 89.8703 91.5027 90.2403 90.7727C91.1003 89.0627 92.1303 87.4427 93.1203 85.8127C94.2303 83.9827 95.3203 81.8627 96.7903 80.1727C97.5903 79.4527 98.4103 78.7627 99.2603 78.0927C99.3803 78.0027 99.4703 77.9027 99.5403 77.8027C101.46 76.5227 103.5 75.4027 105.52 74.2827C107.77 73.0327 110.04 71.8427 112.35 70.7127C112.84 70.4727 113.33 70.2427 113.83 70.0027C117.68 68.5527 121.64 67.4027 125.7 66.7127C131.08 65.8027 136.58 65.6027 142.01 66.1527C142.74 66.2227 143.45 65.8427 143.59 65.0827C143.72 64.4127 143.25 63.5727 142.52 63.5027C139.11 63.1627 135.7 63.1027 132.31 63.3027C133.32 63.0527 134.34 62.8227 135.36 62.6227C136.08 62.4827 136.66 61.9527 136.6 61.1627C136.55 60.5027 135.86 59.7827 135.14 59.9227C127.46 61.4427 120.12 64.1027 113.06 67.4027C112.87 67.4727 112.68 67.5427 112.49 67.6127C107.89 69.3927 103.2 71.4227 99.1003 74.1927C95.9003 76.3527 93.2203 79.1227 91.0103 82.2627C90.4903 82.9227 90.0203 83.6227 89.6203 84.3827C89.5903 84.4427 89.5603 84.5027 89.5403 84.5527C87.4103 88.1427 85.9003 92.0827 84.8903 96.1327C84.7003 96.2727 84.5603 96.4427 84.4503 96.6527C84.4103 96.7527 84.3703 96.8427 84.3303 96.9427C84.2403 97.1027 84.2003 97.2727 84.2103 97.4527C84.1803 97.6327 84.2103 97.8127 84.2803 97.9927C84.3403 98.1627 84.4303 98.3127 84.5603 98.4327C84.6103 98.5027 84.6703 98.5627 84.7403 98.6127C84.3403 99.5627 84.1003 100.583 84.1103 101.663C84.1103 101.983 84.2303 102.213 84.4103 102.373C84.3903 102.433 84.3803 102.493 84.3703 102.543C83.9703 102.923 83.8303 103.503 84.1703 103.983C84.3703 104.263 84.7403 104.453 85.1003 104.453C85.6103 104.593 86.1903 104.413 86.3403 103.803C87.3103 103.263 88.3703 103.213 89.5503 103.243C91.1403 103.273 92.7303 103.313 94.3103 103.403C97.4703 103.573 100.59 103.993 103.64 104.843C109.47 106.483 114.93 109.163 120.87 110.443C124.32 111.183 127.84 111.553 131.37 111.593C131.95 111.593 132.4 110.973 132.36 110.433C132.31 109.803 131.78 109.453 131.2 109.443C124.9 109.373 118.85 107.983 112.96 105.813C110.01 104.723 107.08 103.573 104.04 102.723C100.95 101.853 97.7903 101.443 94.5903 101.273C92.7703 101.173 90.9503 101.113 89.1303 101.083C88.6603 101.083 88.2003 101.093 87.7503 101.143C88.2303 100.713 88.8003 100.353 89.3903 100.063C91.1003 99.2227 92.9603 98.6427 94.7803 98.1127C98.5703 97.0127 102.49 96.3727 106.42 96.0327C114.55 95.3327 122.7 95.9327 130.81 96.5527C135.5 96.9127 140.18 97.2627 144.88 97.3927C145.46 97.4127 145.91 96.7627 145.87 96.2327C145.82 95.5927 145.29 95.2627 144.71 95.2427C127.85 94.7727 110.6 91.2727 94.0403 96.0927C91.8603 96.7227 89.0003 97.5326 86.9203 99.0227C87.3303 98.2427 87.8803 97.5227 88.4603 96.8727" fill="#1F2EC4"/>
</g>
<path d="M88.7203 77.8027C88.7203 77.8027 97.4403 78.3327 100.44 81.5727C103.45 84.8227 90.3803 87.4227 90.3803 87.4227L88.7203 77.8027Z" fill="#E80083"/>
<path d="M89.8803 90.7526C89.8803 90.7526 99.2603 88.2026 102.17 91.5326C105.19 94.9826 93.1403 100.503 93.1403 100.503L89.8803 90.7626" fill="#E80083"/>
<path d="M94.4103 105.023C94.4103 105.023 101.95 102.983 104.3 105.663C106.73 108.433 97.4103 113.953 97.4103 113.953L94.4103 105.023Z" fill="#E80083"/>
<path d="M97.3703 116.843C97.3703 116.843 105.17 117.243 106.58 120.513C108.04 123.903 97.4603 126.263 97.4603 126.263L97.3703 116.843Z" fill="#FF0090"/>
<path d="M99.5703 136.033C99.5703 136.033 107.18 134.263 109.43 137.013C111.77 139.873 102.26 145.053 102.26 145.053L99.5703 136.023V136.033Z" fill="#FF0090"/>
<path d="M105.03 153.423C105.03 153.423 111.97 149.833 114.83 151.943C117.8 154.133 109.86 161.503 109.86 161.503L105.03 153.423Z" fill="#FF0090"/>
<path d="M174.06 183.843C174.82 184.113 175.34 184.853 175.26 185.663C175.12 187.143 173.89 188.893 172.59 189.073C168.87 189.563 164.59 188.553 162.41 186.023C159.99 183.213 163.75 178.003 167.74 175.173C168.86 174.383 171.24 174.753 172.23 176.163C172.78 176.943 172.7 178.013 172.07 178.733L169.62 181.513C169.37 181.803 169.49 182.243 169.84 182.373L174.05 183.853L174.06 183.843Z" fill="#FF0090"/>
<path d="M114.76 168.013C114.76 168.013 119.5 163.353 122.35 164.353C125.31 165.393 120.71 173.373 120.71 173.373L114.76 168.013Z" fill="#FF0090"/>
<path d="M125.72 177.353C125.72 177.353 128.58 172.433 131.17 172.613C133.85 172.803 131.85 180.443 131.85 180.443L125.72 177.353Z" fill="#FF0090"/>
<path d="M136.62 182.173C136.62 182.173 138.03 177.543 140.21 177.183C142.47 176.813 142.3 183.533 142.3 183.533L136.62 182.173Z" fill="#FF0090"/>
<path d="M146.4 183.663C146.4 183.663 147.69 179.443 149.67 179.123C151.73 178.793 151.57 184.903 151.57 184.903L146.4 183.663Z" fill="#FF0090"/>
<path d="M154.97 184.053C154.97 184.053 155.93 180.903 157.41 180.663C158.95 180.413 158.83 184.983 158.83 184.983L154.97 184.053Z" fill="#FF0090"/>
<mask id="mask1_6007_54001" style="mask-type:luminance" maskUnits="userSpaceOnUse" x="92" y="79" width="52" height="40">
<path d="M140.95 92.5727C139.98 88.5927 144.11 86.0827 143.89 85.0627L143.86 85.0327C143.76 85.0227 143.28 84.3227 142.51 83.8627C134.32 78.9927 124.57 79.3227 118.45 79.2127C106.31 78.9727 96.2203 89.6127 92.5303 93.4527C91.3503 94.6827 92.9503 100.003 93.6703 102.503L93.6903 102.523C103.37 106.843 103.89 110.383 106.03 112.843C115.7 123.913 119.29 116.613 125.11 114.433C128.55 113.143 130.18 116.083 133.73 113.113C136.35 110.923 135 107.983 137.35 104.583C138.99 102.203 142.58 101.043 142.99 99.1627C143.68 96.0327 141.38 94.3527 140.95 92.5727Z" fill="white"/>
</mask>
<g mask="url(#mask1_6007_54001)">
<path d="M162.19 104.793C159.5 106.143 155.84 107.843 151.63 109.503C148.97 110.543 147.67 113.553 148.76 116.193C149.72 118.503 150.4 121.303 148.92 123.193C145.68 127.333 139.72 128.603 126.91 122.263C123.74 120.693 124.5 123.533 123.39 127.043C121.97 131.543 110.95 130.133 106.62 122.783C104.09 118.493 102.55 113.623 87.7803 107.023L87.7603 106.993C86.6603 103.163 84.2103 95.0427 86.0203 93.1727C91.6603 87.3127 107.07 71.0627 125.6 71.4327C134.93 71.6027 149.82 71.1027 162.33 78.5327C163.5 79.2227 164.24 80.2927 164.39 80.3127L164.43 80.3527C164.77 81.9127 164.35 83.6627 163.08 84.8927C162.42 85.5427 161.69 86.2327 160.89 86.9727C158.88 88.8327 158.7 91.9527 160.46 94.0327C161.69 95.4827 162.77 96.8027 163.67 97.9427C165.44 100.123 164.68 103.543 162.2 104.783" fill="#828DFF"/>
<path d="M97.2703 91.3626C99.1603 90.8226 101.13 90.5426 103.08 90.4026C107.11 90.1226 111.14 90.5126 115.1 91.2126C123.85 92.7526 132.48 95.3726 140.74 98.6226C145.56 100.523 150.28 102.683 154.87 105.073C156.12 105.723 157.13 103.783 155.88 103.133C147.38 98.7026 138.46 95.1026 129.27 92.3826C124.91 91.0926 120.49 89.9726 116.02 89.1526C111.84 88.3926 107.56 87.9326 103.31 88.1926C102.23 88.2626 101.14 88.3726 100.06 88.5326C100.7 88.0226 101.36 87.5326 102.07 87.1126C103.72 86.1126 105.48 85.2826 107.21 84.4126C109.15 83.4426 111.22 82.2126 113.39 81.5626C114.46 81.3826 115.54 81.2326 116.63 81.1126C116.78 81.0926 116.91 81.0626 117.03 81.0226C119.36 80.9626 121.71 81.1126 124.04 81.2426C126.64 81.3826 129.23 81.5926 131.81 81.8726C132.36 81.9326 132.91 81.9926 133.46 82.0626C137.54 82.8926 141.54 84.0426 145.39 85.6526C150.48 87.7826 155.3 90.5726 159.65 93.9626C160.23 94.4126 161.05 94.4726 161.58 93.8926C162.05 93.3926 162.1 92.4126 161.51 91.9626C158.78 89.8326 155.89 87.9426 152.88 86.2826C153.88 86.6226 154.87 86.9626 155.85 87.3426C156.54 87.6126 157.32 87.4726 157.69 86.7626C158 86.1626 157.81 85.1826 157.11 84.9226C149.72 82.0726 142.01 80.3926 134.19 79.4226C133.99 79.3826 133.79 79.3326 133.59 79.2926C128.69 78.3326 123.59 77.5326 118.58 77.7026C114.68 77.8326 110.89 78.7426 107.31 80.2426C106.51 80.5326 105.73 80.8726 104.98 81.3126C104.92 81.3426 104.87 81.3826 104.81 81.4126C101.05 83.3326 97.6303 85.8926 94.5903 88.8126C94.3603 88.8226 94.1403 88.8926 93.9403 89.0226C93.8603 89.0826 93.7703 89.1426 93.6903 89.2026C93.5303 89.2926 93.4003 89.4226 93.3103 89.5826C93.1903 89.7226 93.1103 89.8926 93.0803 90.0726C93.0403 90.2526 93.0403 90.4226 93.0803 90.6026C93.0803 90.6926 93.1103 90.7726 93.1403 90.8526C92.2803 91.4526 91.5303 92.1826 90.9603 93.1226C90.7903 93.3926 90.7703 93.6526 90.8303 93.8826C90.7903 93.9226 90.7403 93.9726 90.7003 94.0126C90.1603 94.1226 89.7203 94.5426 89.7503 95.1326C89.7703 95.4826 89.9903 95.8426 90.3003 96.0326C90.6603 96.4326 91.2603 96.5826 91.7103 96.1426C92.8303 96.2026 93.7703 96.7326 94.7603 97.3926C96.1003 98.2826 97.4403 99.1726 98.7503 100.103C101.36 101.953 103.8 103.993 105.95 106.363C110.05 110.903 113.28 116.153 117.67 120.443C120.22 122.943 123.04 125.153 126.04 127.083C126.54 127.403 127.26 127.113 127.52 126.623C127.81 126.063 127.56 125.473 127.06 125.143C121.71 121.683 117.28 117.243 113.41 112.203C111.47 109.683 109.58 107.113 107.45 104.753C105.27 102.343 102.79 100.293 100.14 98.4126C98.6403 97.3426 97.1103 96.3126 95.5703 95.3026C95.1703 95.0426 94.7703 94.8126 94.3503 94.6126C95.0003 94.5026 95.6803 94.5026 96.3403 94.5726C98.2503 94.7726 100.16 95.2826 102 95.8126C105.84 96.9126 109.53 98.4726 113.08 100.303C120.41 104.083 127.06 108.993 133.67 113.893C137.49 116.723 141.31 119.553 145.25 122.203C145.74 122.533 146.47 122.223 146.73 121.743C147.03 121.173 146.76 120.593 146.27 120.263C132.1 110.773 119.23 98.4726 102.47 93.6626C100.26 93.0326 97.3803 92.1726 94.8003 92.3326C95.5703 91.8826 96.4303 91.5626 97.2703 91.3226" fill="#4555FF"/>
<path d="M94.7203 97.3727C94.7203 97.3727 94.7503 97.3927 94.7703 97.4027C95.4803 97.8727 96.1903 98.3427 96.8903 98.8127C96.9003 98.8127 96.9103 98.8327 96.9303 98.8427C96.9403 98.8427 96.9603 98.8627 96.9703 98.8727C97.0003 98.8927 97.0203 98.9127 97.0503 98.9227C97.0503 98.9227 97.0503 98.9227 97.0603 98.9227C97.3503 99.1227 97.6503 99.3227 97.9403 99.5227C97.3703 100.813 96.8803 102.053 96.4603 103.263C96.4203 103.213 96.3703 103.163 96.3303 103.113C95.8203 101.143 95.2803 99.2227 94.7203 97.3627M100.11 95.3127C99.6703 96.0727 99.2603 96.8127 98.8903 97.5527C98.7703 97.4727 98.6503 97.3827 98.5303 97.3027C98.5303 97.3027 98.5303 97.3027 98.5203 97.3027C98.5003 97.2927 98.4803 97.2727 98.4603 97.2627C98.4503 97.2527 98.4303 97.2428 98.4203 97.2327C98.4003 97.2227 98.3803 97.2027 98.3603 97.1927C98.3403 97.1727 98.3203 97.1627 98.2903 97.1427C98.2803 97.1427 98.2703 97.1327 98.2603 97.1227C98.2303 97.1027 98.2103 97.0927 98.1803 97.0727C98.1803 97.0727 98.1803 97.0727 98.1703 97.0727C98.1403 97.0527 98.1103 97.0327 98.0803 97.0127C98.0803 97.0127 98.0803 97.0127 98.0703 97.0127C98.0403 96.9927 98.0103 96.9727 97.9803 96.9527C97.9103 96.9027 97.8503 96.8627 97.7803 96.8127C97.7103 96.7627 97.6403 96.7227 97.5803 96.6727C97.5103 96.6327 97.4503 96.5827 97.3803 96.5427C97.3803 96.5427 97.3803 96.5427 97.3703 96.5427C97.3403 96.5227 97.3103 96.5028 97.2703 96.4827C97.2403 96.4627 97.2103 96.4427 97.1703 96.4227C97.1703 96.4227 97.1603 96.4228 97.1503 96.4128C97.1203 96.3927 97.1003 96.3827 97.0703 96.3627C97.0703 96.3627 97.0603 96.3627 97.0503 96.3527C97.0203 96.3327 96.9903 96.3127 96.9603 96.2927C96.9603 96.2927 96.9403 96.2827 96.9303 96.2727C96.9103 96.2627 96.8903 96.2428 96.8703 96.2327C96.8603 96.2327 96.8403 96.2127 96.8303 96.2027C96.8003 96.1827 96.7803 96.1727 96.7503 96.1527C96.7403 96.1527 96.7203 96.1327 96.7103 96.1227C96.6903 96.1127 96.6803 96.1027 96.6603 96.0927C96.6403 96.0827 96.6303 96.0727 96.6103 96.0627C96.6003 96.0627 96.5903 96.0427 96.5703 96.0427C96.5403 96.0227 96.5103 96.0028 96.4803 95.9827C96.4803 95.9827 96.4603 95.9727 96.4503 95.9627C96.4303 95.9527 96.4103 95.9327 96.3903 95.9227C96.3903 95.9227 96.3703 95.9127 96.3703 95.9027C96.3103 95.8627 96.2403 95.8227 96.1803 95.7727C96.1803 95.7727 96.1603 95.7627 96.1603 95.7527C96.1003 95.7127 96.0303 95.6727 95.9703 95.6327C95.9703 95.6327 95.9503 95.6227 95.9403 95.6127C95.9203 95.6027 95.9003 95.5927 95.8803 95.5727C95.8703 95.5727 95.8603 95.5527 95.8403 95.5527C95.8103 95.5327 95.7903 95.5227 95.7603 95.5027C95.7403 95.4927 95.7303 95.4827 95.7103 95.4727C95.7003 95.4727 95.6903 95.4527 95.6703 95.4527C95.6403 95.4327 95.6103 95.4127 95.5803 95.3927C95.5803 95.3927 95.5603 95.3827 95.5503 95.3727C95.1703 95.1327 94.7903 94.9127 94.4003 94.7227C94.3903 94.7227 94.3803 94.7127 94.3703 94.7027C95.0203 94.5927 95.7003 94.5928 96.3603 94.6628C96.3703 94.6628 96.3803 94.6628 96.3903 94.6628C96.3903 94.6628 96.3903 94.6628 96.4003 94.6628C96.4003 94.6628 96.4103 94.6628 96.4203 94.6628C96.4203 94.6628 96.4303 94.6628 96.4403 94.6628C96.4403 94.6628 96.4403 94.6628 96.4503 94.6628C96.4503 94.6628 96.4603 94.6628 96.4703 94.6628H96.4803C96.4803 94.6628 96.4903 94.6628 96.5003 94.6628C96.5003 94.6628 96.5103 94.6628 96.5203 94.6628H96.5403C96.5903 94.6628 96.6403 94.6727 96.6903 94.6827C97.2003 94.7427 97.7103 94.8327 98.2203 94.9327C98.2403 94.9327 98.2603 94.9327 98.2803 94.9427C98.2803 94.9427 98.3003 94.9427 98.3103 94.9427C98.3103 94.9427 98.3303 94.9427 98.3403 94.9427C98.3403 94.9427 98.4303 94.9627 98.4803 94.9727C98.4803 94.9727 98.4903 94.9727 98.5003 94.9727C98.5003 94.9727 98.5003 94.9727 98.5103 94.9727C98.5103 94.9727 98.5203 94.9727 98.5303 94.9727C98.5303 94.9727 98.5303 94.9727 98.5403 94.9727C98.5403 94.9727 98.5503 94.9727 98.5603 94.9727C98.5603 94.9727 98.5703 94.9727 98.5803 94.9727C98.5803 94.9727 98.5903 94.9727 98.6003 94.9727C98.6003 94.9727 98.6103 94.9727 98.6203 94.9727C98.6203 94.9727 98.6203 94.9727 98.6303 94.9727C98.6303 94.9727 98.6503 94.9727 98.6603 94.9727C99.1403 95.0727 99.6203 95.1927 100.09 95.3127M103.42 90.3827C103.17 90.7027 102.93 91.0227 102.69 91.3527C102.2 92.0327 101.74 92.7027 101.3 93.3627C101.28 93.3627 101.26 93.3527 101.24 93.3427C101.24 93.3427 101.23 93.3427 101.22 93.3427C101.03 93.2927 100.83 93.2327 100.63 93.1827C98.8703 92.7127 96.9003 92.2927 95.0603 92.3627C94.9703 92.3627 94.8903 92.3627 94.8003 92.3727C95.5703 91.9227 96.4303 91.6027 97.2703 91.3627C99.1603 90.8227 101.13 90.5427 103.08 90.4027C103.13 90.4027 103.19 90.4027 103.24 90.3927C103.3 90.3927 103.36 90.3927 103.42 90.3827ZM113.41 81.5827C110.99 83.1527 108.06 85.3027 105.38 88.1327C105.23 88.1327 105.08 88.1327 104.94 88.1327C104.93 88.1327 104.92 88.1327 104.91 88.1327C104.41 88.1427 103.9 88.1627 103.4 88.1927C103.38 88.1927 103.37 88.1927 103.35 88.1927C102.27 88.2627 101.18 88.3727 100.1 88.5327C100.74 88.0227 101.4 87.5327 102.11 87.1127C103.76 86.1127 105.52 85.2828 107.25 84.4128C109.19 83.4428 111.26 82.2127 113.43 81.5627" fill="#6873EB"/>
<path d="M97.0503 98.9228C97.0503 98.9228 97.0503 98.9228 97.0603 98.9228C97.0603 98.9228 97.0603 98.9228 97.0503 98.9228ZM96.9203 98.8428C96.9203 98.8428 96.9503 98.8628 96.9603 98.8728C96.9503 98.8728 96.9303 98.8528 96.9203 98.8428ZM94.7203 97.3728C94.7203 97.3728 94.7503 97.3928 94.7703 97.4028C95.4803 97.8728 96.1903 98.3428 96.8903 98.8128C96.1903 98.3328 95.4803 97.8728 94.7703 97.4028C94.7503 97.3928 94.7403 97.3828 94.7203 97.3728ZM98.5103 97.2928C98.5103 97.2928 98.5103 97.2928 98.5203 97.2928C98.5203 97.2928 98.5203 97.2928 98.5103 97.2928ZM98.4103 97.2228C98.4103 97.2228 98.4403 97.2428 98.4503 97.2528C98.4403 97.2428 98.4203 97.2328 98.4103 97.2228ZM98.2803 97.1428C98.2803 97.1428 98.3203 97.1728 98.3503 97.1928C98.3303 97.1728 98.3103 97.1628 98.2803 97.1428ZM98.1803 97.0628C98.1803 97.0628 98.2303 97.0928 98.2603 97.1128C98.2303 97.0928 98.2103 97.0828 98.1803 97.0628ZM98.0703 96.9928C98.0703 96.9928 98.1303 97.0328 98.1603 97.0528C98.1303 97.0328 98.1003 97.0128 98.0703 96.9928ZM97.9603 96.9228C97.9603 96.9228 98.0203 96.9628 98.0503 96.9828C98.0203 96.9628 97.9903 96.9428 97.9603 96.9228ZM97.5503 96.6428C97.6203 96.6928 97.6903 96.7328 97.7503 96.7828C97.6803 96.7328 97.6103 96.6928 97.5503 96.6428ZM97.2403 96.4328C97.2403 96.4328 97.3003 96.4728 97.3403 96.4928C97.3103 96.4728 97.2803 96.4528 97.2403 96.4328ZM97.1403 96.3628C97.1403 96.3628 97.2003 96.4028 97.2403 96.4228C97.2103 96.4028 97.1803 96.3828 97.1403 96.3628ZM97.0403 96.3028C97.0403 96.3028 97.0903 96.3328 97.1203 96.3528C97.0903 96.3328 97.0703 96.3228 97.0403 96.3028ZM96.9303 96.2328C96.9303 96.2328 96.9903 96.2728 97.0203 96.2928C96.9903 96.2728 96.9603 96.2528 96.9303 96.2328ZM96.8403 96.1728C96.8403 96.1728 96.8803 96.2028 96.9003 96.2128C96.8803 96.2028 96.8603 96.1828 96.8403 96.1728ZM96.7303 96.0928C96.7303 96.0928 96.7803 96.1228 96.8103 96.1428C96.7803 96.1228 96.7603 96.1128 96.7303 96.0928ZM96.6403 96.0328C96.6403 96.0328 96.6703 96.0528 96.6903 96.0628C96.6703 96.0528 96.6603 96.0428 96.6403 96.0328ZM96.5503 95.9728C96.5503 95.9728 96.5703 95.9928 96.5903 95.9928C96.5803 95.9928 96.5703 95.9728 96.5503 95.9728ZM96.4303 95.8928C96.4303 95.8928 96.4503 95.9028 96.4603 95.9128C96.4603 95.9128 96.4403 95.9028 96.4303 95.8928ZM96.3503 95.8428C96.3503 95.8428 96.3703 95.8528 96.3703 95.8628C96.3703 95.8628 96.3503 95.8528 96.3503 95.8428ZM96.1403 95.7028C96.1403 95.7028 96.1603 95.7128 96.1603 95.7228C96.1603 95.7228 96.1403 95.7128 96.1403 95.7028ZM95.9203 95.5528C95.9203 95.5528 95.9403 95.5628 95.9503 95.5728C95.9503 95.5728 95.9303 95.5628 95.9203 95.5528ZM95.8303 95.4928C95.8303 95.4928 95.8503 95.5128 95.8703 95.5128C95.8603 95.5128 95.8503 95.4928 95.8303 95.4928ZM95.7003 95.4128C95.7003 95.4128 95.7303 95.4328 95.7503 95.4428C95.7303 95.4328 95.7203 95.4228 95.7003 95.4128ZM95.5703 95.3328C95.5703 95.3328 95.6303 95.3728 95.6603 95.3928C95.6303 95.3728 95.6003 95.3528 95.5703 95.3328ZM95.5403 95.3128C95.5403 95.3128 95.5603 95.3228 95.5703 95.3328C95.5703 95.3328 95.5503 95.3228 95.5403 95.3128ZM94.3903 94.6528C94.7803 94.8428 95.1703 95.0628 95.5403 95.3028C95.2403 95.1128 94.9403 94.9328 94.6303 94.7728C94.5503 94.7328 94.4703 94.6928 94.3903 94.6528ZM94.3603 94.6328C94.3603 94.6328 94.3803 94.6428 94.3903 94.6528C94.3803 94.6528 94.3703 94.6428 94.3603 94.6328ZM96.3803 94.6028C96.3803 94.6028 96.3603 94.6028 96.3503 94.6028C96.3603 94.6028 96.3703 94.6028 96.3803 94.6028ZM96.4103 94.6028C96.4103 94.6028 96.4003 94.6028 96.3903 94.6028C96.3903 94.6028 96.4003 94.6028 96.4103 94.6028ZM96.4403 94.6028C96.4403 94.6028 96.4403 94.6028 96.4303 94.6028C96.4303 94.6028 96.4303 94.6028 96.4403 94.6028ZM96.4703 94.6128H96.4603C96.4603 94.6128 96.4603 94.6128 96.4703 94.6128ZM98.5303 94.9428C98.5303 94.9428 98.5303 94.9428 98.5203 94.9428C98.5203 94.9428 98.5203 94.9428 98.5303 94.9428ZM98.5603 94.9528C98.5603 94.9528 98.5603 94.9528 98.5503 94.9528C98.5503 94.9528 98.5503 94.9528 98.5603 94.9528ZM98.6003 94.9628C98.6003 94.9628 98.5903 94.9628 98.5803 94.9628C98.5803 94.9628 98.5903 94.9628 98.6003 94.9628ZM98.6303 94.9628C98.6303 94.9628 98.6203 94.9628 98.6103 94.9628C98.6103 94.9628 98.6203 94.9628 98.6303 94.9628ZM98.6703 94.9728C98.6703 94.9728 98.6503 94.9728 98.6403 94.9728C98.6403 94.9728 98.6603 94.9728 98.6703 94.9728ZM100.11 95.3128C99.6303 95.1928 99.1603 95.0728 98.6803 94.9728C99.1603 95.0728 99.6403 95.1928 100.11 95.3128ZM101.22 93.3428C101.22 93.3428 101.23 93.3428 101.24 93.3428C101.24 93.3428 101.23 93.3428 101.22 93.3428ZM103.25 90.4028C103.2 90.4028 103.14 90.4028 103.09 90.4128C101.13 90.5528 99.1603 90.8228 97.2803 91.3728C99.1703 90.8328 101.14 90.5528 103.09 90.4128C103.14 90.4128 103.2 90.4128 103.25 90.4028ZM103.38 88.2028C103.38 88.2028 103.35 88.2028 103.33 88.2028C103.35 88.2028 103.36 88.2028 103.38 88.2028ZM104.93 88.1328C104.93 88.1328 104.91 88.1328 104.9 88.1328C104.91 88.1328 104.92 88.1328 104.93 88.1328ZM105.38 88.1328C105.23 88.1328 105.08 88.1328 104.94 88.1328C105.09 88.1328 105.24 88.1328 105.38 88.1328ZM113.4 81.5828C111.23 82.2328 109.15 83.4628 107.22 84.4328C105.49 85.2928 103.73 86.1328 102.08 87.1328C101.37 87.5628 100.71 88.0428 100.07 88.5528C100.71 88.0428 101.37 87.5528 102.08 87.1328C103.73 86.1328 105.49 85.3028 107.22 84.4328C109.16 83.4628 111.23 82.2328 113.4 81.5828Z" fill="#3745EB"/>
<path d="M117.25 79.2327C105.65 79.6827 96.1103 89.7526 92.5403 93.4626C92.4703 93.5326 92.4103 93.6226 92.3603 93.7126C92.0803 94.2426 92.0703 95.1526 92.1903 96.2026C92.7103 96.2926 93.2003 96.4827 93.6703 96.7327C94.0403 96.9227 94.4003 97.1526 94.7703 97.3926C95.8303 98.0926 96.9003 98.8026 97.9403 99.5226C98.2303 98.8726 98.5503 98.2126 98.8903 97.5426C97.8003 96.7826 96.6903 96.0426 95.5703 95.3126C95.2603 95.1126 94.9503 94.9326 94.6303 94.7626C94.5403 94.7126 94.4403 94.6627 94.3503 94.6227C95.0003 94.5127 95.6803 94.5126 96.3403 94.5826C97.6003 94.7126 98.8603 94.9827 100.1 95.3027C100.47 94.6627 100.87 94.0126 101.3 93.3526C99.3003 92.7926 96.9403 92.2226 94.7903 92.3626C95.5603 91.9126 96.4203 91.5926 97.2603 91.3526C99.1503 90.8126 101.12 90.5326 103.07 90.3926C103.18 90.3926 103.3 90.3727 103.41 90.3727C104.04 89.5726 104.69 88.8226 105.36 88.1126C104.68 88.1126 103.99 88.1426 103.31 88.1826C102.23 88.2526 101.14 88.3626 100.06 88.5226C100.7 88.0126 101.36 87.5226 102.07 87.1026C103.72 86.1026 105.48 85.2727 107.21 84.4127C109.15 83.4427 111.22 82.2126 113.39 81.5626C114.95 80.5526 116.29 79.7826 117.23 79.2126" fill="#3D4CE3"/>
</g>
<path d="M8.81028 193.013C10.0903 195.903 12.2403 198.393 15.2203 199.983C16.0703 200.443 17.0003 200.823 18.0003 201.113C20.7403 201.943 24.0203 202.083 27.8003 201.313C35.8803 199.643 48.7703 202.673 57.8303 204.443C62.3503 205.323 65.9103 205.893 67.4503 205.403C69.3803 204.783 66.1803 199.163 61.8203 192.853C55.7903 184.133 47.5603 174.103 47.5603 174.103C45.4403 173.553 42.1403 173.013 38.0903 173.133C37.6603 173.143 37.2203 173.163 36.7703 173.193C36.7703 173.193 36.7703 173.193 36.7403 173.193C34.2803 173.343 31.5803 173.743 28.7203 174.523C24.2703 175.743 21.8003 177.453 18.7403 176.783C14.7003 175.903 10.0003 171.313 7.19028 173.013C7.09028 173.073 7.00028 173.143 6.91028 173.223C6.71028 173.393 6.53028 173.603 6.37028 173.843C4.12028 177.503 6.98028 188.933 8.81028 193.023V193.013Z" fill="#4F5FFF"/>
<path d="M18.0003 201.103C20.7403 201.933 24.0203 202.073 27.8003 201.303C35.8803 199.633 48.7703 202.663 57.8303 204.433L61.8203 192.843C55.7903 184.123 47.5603 174.093 47.5603 174.093C45.4403 173.543 42.1403 173.003 38.0903 173.123C38.0503 173.213 38.0303 173.303 38.0003 173.383C38.0003 173.383 40.7803 188.253 37.3103 193.853C33.8603 199.453 25.3503 201.293 18.0103 201.103H18.0003Z" fill="#293CFF"/>
<path opacity="0.49" d="M8.81028 193.013C10.0903 195.903 12.2403 198.393 15.2203 199.983C16.0903 197.453 14.9803 192.983 13.5203 188.353C12.2303 184.273 11.6703 179.443 10.5203 177.313C8.62028 173.793 7.13028 173.603 6.37028 173.843C4.12028 177.503 6.98028 188.933 8.81028 193.023V193.013Z" fill="#FF0090"/>
<path d="M6.90028 173.213C10.1203 171.953 14.9703 176.013 15.9903 177.253C18.2903 180.023 19.9903 182.143 20.9003 181.713C21.8103 181.283 22.1003 179.383 24.4103 177.113C26.5803 174.973 36.1403 173.293 36.7303 173.193C34.2703 173.343 31.5703 173.743 28.7103 174.523C24.2603 175.743 21.7903 177.453 18.7303 176.783C14.6903 175.903 9.99028 171.313 7.18028 173.013C7.08028 173.073 6.99028 173.143 6.90028 173.223V173.213Z" fill="#7884FF"/>
<path d="M40.8703 150.703C40.7403 151.183 40.6203 151.663 40.5003 152.143C40.3803 152.623 40.2703 153.103 40.1603 153.573C40.0503 154.053 39.9503 154.523 39.8503 155.003C39.7503 155.483 39.6603 155.953 39.5703 156.423V156.453C39.4703 156.913 39.4003 157.373 39.3203 157.833C39.2503 158.253 39.1803 158.673 39.1303 159.103C38.9303 160.483 38.7903 161.853 38.6903 163.213C38.6603 163.563 38.6403 163.933 38.6203 164.283C38.6203 164.293 38.6203 164.313 38.6203 164.323C38.6003 164.683 38.5803 165.053 38.5703 165.413C38.5503 165.783 38.5503 166.143 38.5503 166.513C38.5503 166.873 38.5503 167.243 38.5503 167.603C38.5503 167.963 38.5603 168.333 38.5803 168.683C38.5803 169.043 38.6103 169.403 38.6303 169.763C38.6503 170.053 38.6703 170.343 38.6903 170.643C38.7203 170.963 38.7403 171.273 38.7803 171.593C38.8103 171.923 38.8503 172.243 38.9003 172.563C38.9103 172.693 38.9303 172.823 38.9403 172.953C38.9903 173.353 39.0503 173.753 39.1103 174.153C39.1603 174.473 39.2203 174.793 39.2803 175.113C39.3103 175.323 39.3603 175.543 39.4003 175.753C39.4403 176.003 39.5003 176.263 39.5703 176.513C39.6203 176.763 39.6803 177.013 39.7403 177.263C39.8003 177.553 39.8803 177.843 39.9603 178.123C40.1503 178.853 40.3703 179.573 40.6103 180.293C40.6903 180.523 40.7703 180.763 40.8603 181.003C40.8803 181.073 40.9103 181.153 40.9403 181.223C41.0403 181.523 41.1603 181.823 41.2803 182.113C41.4103 182.443 41.5403 182.763 41.6803 183.093C41.9503 183.753 42.2603 184.403 42.5803 185.053C42.7303 185.353 42.8903 185.653 43.0403 185.943C43.2003 186.253 43.3703 186.553 43.5403 186.863C44.1603 187.953 44.8403 189.033 45.5903 190.083C45.7703 190.343 45.9603 190.603 46.1603 190.863C46.4803 191.303 46.8203 191.733 47.1703 192.153C47.3603 192.393 47.5603 192.633 47.7803 192.873C50.3603 195.883 53.5303 198.693 57.3803 201.253C59.1903 202.473 61.1503 203.633 63.2703 204.723C66.6103 206.453 69.9703 207.863 73.3403 208.963C74.2403 209.253 75.1303 209.533 76.0203 209.773C76.0603 209.783 78.4203 212.273 83.1603 214.223C86.3303 215.523 90.5603 216.583 95.8503 216.523H95.8703C103.22 216.423 112.62 214.143 124.14 207.303C137.18 199.553 144.84 196.773 156.08 190.963H156.1C159.22 189.333 161.9 187.803 163.96 186.283C164.73 185.723 169.13 183.243 168.84 182.523C168.56 181.803 163.6 182.843 162.66 182.943C145.7 184.763 103.9 182.563 98.8903 118.063C97.7503 103.373 92.2003 91.0527 89.8303 81.3427C89.6303 80.5027 89.4503 79.6827 89.2903 78.8827C89.2903 78.8827 89.2803 78.8127 89.2803 78.7827C89.2603 78.7027 89.2503 78.6327 89.2503 78.5527C89.2503 78.5227 89.2503 78.4827 89.2503 78.4527C89.2503 78.3727 89.2503 78.3027 89.2503 78.2227C89.2503 78.0927 89.2503 77.9727 89.2703 77.8527V77.8227C89.3003 77.6927 89.3203 77.5627 89.3603 77.4327C89.9203 75.3427 92.2303 73.6827 92.2303 73.6827L82.0603 67.8427L74.4203 63.4627L73.6003 62.9927C73.6003 62.9927 73.6003 63.0727 73.6003 63.2427C73.6003 63.5227 73.5703 64.0627 73.5303 64.8127C73.5303 64.9827 73.5103 65.1727 73.4903 65.3627V65.3827C73.4803 65.5827 73.4603 65.7827 73.4403 65.9927C73.4403 66.1027 73.4203 66.2127 73.4103 66.3227C73.4003 66.5327 73.3703 66.7427 73.3503 66.9827C73.3503 67.0427 73.3303 67.1127 73.3303 67.1727C73.3003 67.5227 73.2603 67.8827 73.2103 68.2627C73.0303 69.8027 72.7703 71.6427 72.3903 73.7627C72.3403 74.0227 72.2903 74.2927 72.2403 74.5727C72.1203 75.2027 72.0003 75.8527 71.8503 76.5227C71.7803 76.8527 71.7103 77.1827 71.6403 77.5227C71.5303 78.0527 71.4103 78.5927 71.2803 79.1427C71.2203 79.4027 71.1503 79.6727 71.0903 79.9427C70.5703 82.1027 69.9503 84.4327 69.2003 86.9227C69.1103 87.2427 69.0003 87.5727 68.9003 87.9027C68.7203 88.4827 68.5403 89.0627 68.3403 89.6527C68.3003 89.7627 68.2703 89.8727 68.2303 89.9827C68.0403 90.5427 67.8503 91.1227 67.6503 91.7027C66.8603 94.0127 65.9503 96.4327 64.9303 98.9527C64.5603 99.8627 64.1703 100.793 63.7703 101.733C63.0003 103.513 62.1703 105.353 61.2703 107.233C61.1203 107.543 60.9703 107.863 60.8103 108.183C60.4003 109.023 59.9903 109.863 59.5503 110.713C59.1703 111.463 58.7803 112.213 58.3703 112.983C58.2803 113.163 58.1803 113.343 58.0803 113.523C57.7103 114.223 57.3303 114.913 56.9403 115.623C56.1703 117.023 55.3603 118.433 54.5103 119.873C53.5403 121.503 52.6003 123.153 51.7003 124.803C51.4103 125.353 51.1103 125.893 50.8203 126.433C50.7003 126.663 50.5803 126.903 50.4503 127.133C50.4103 127.213 50.3603 127.283 50.3303 127.363C50.1803 127.643 50.0403 127.913 49.9103 128.183C48.6403 130.633 47.4503 133.083 46.3603 135.523C45.7803 136.803 45.2303 138.093 44.7103 139.373C43.1603 143.193 41.8603 146.983 40.8603 150.723L40.8703 150.703Z" fill="#6B78FF"/>
<path d="M40.8703 150.703C40.7403 151.183 40.6203 151.663 40.5003 152.143C40.3803 152.623 40.2703 153.103 40.1603 153.573C40.0503 154.053 39.9503 154.523 39.8503 155.003C39.7503 155.483 39.6603 155.953 39.5703 156.423V156.453C39.4703 156.913 39.4003 157.373 39.3203 157.833C39.2503 158.253 39.1803 158.673 39.1303 159.103C38.9303 160.483 38.7903 161.853 38.6903 163.213C38.6603 163.563 38.6403 163.933 38.6203 164.283C38.6203 164.293 38.6203 164.313 38.6203 164.323C38.6003 164.683 38.5803 165.053 38.5703 165.413C38.5503 165.783 38.5503 166.143 38.5503 166.513C38.5503 166.873 38.5503 167.243 38.5503 167.603C38.5503 167.963 38.5603 168.333 38.5803 168.683C38.5803 169.043 38.6103 169.403 38.6303 169.763C38.6503 170.053 38.6703 170.343 38.6903 170.643C38.7203 170.963 38.7403 171.273 38.7803 171.593C38.8103 171.923 38.8503 172.243 38.9003 172.563C38.9103 172.693 38.9303 172.823 38.9403 172.953C38.9903 173.353 39.0503 173.753 39.1103 174.153C39.1603 174.473 39.2203 174.793 39.2803 175.113C39.3103 175.323 39.3603 175.543 39.4003 175.753C39.4403 176.003 39.5003 176.263 39.5703 176.513C39.6203 176.763 39.6803 177.013 39.7403 177.263C39.8003 177.553 39.8803 177.843 39.9603 178.123C40.1503 178.853 40.3703 179.573 40.6103 180.293C40.6903 180.523 40.7703 180.763 40.8603 181.003C40.8803 181.073 40.9103 181.153 40.9403 181.223C41.0403 181.523 41.1603 181.823 41.2803 182.113C41.4103 182.443 41.5403 182.763 41.6803 183.093C41.9503 183.753 42.2603 184.403 42.5803 185.053C42.7303 185.353 42.8903 185.653 43.0403 185.943C43.2003 186.253 43.3703 186.553 43.5403 186.863C44.1603 187.953 44.8403 189.033 45.5903 190.083C45.7703 190.343 45.9603 190.603 46.1603 190.863C46.4803 191.303 46.8203 191.733 47.1703 192.153C47.3603 192.393 47.5603 192.633 47.7803 192.873C50.3603 195.883 53.5303 198.693 57.3803 201.253C59.1903 202.473 61.1503 203.633 63.2703 204.723C66.6103 206.453 69.9703 207.863 73.3403 208.963C74.1103 209.213 74.8903 209.453 75.6603 209.673C75.9003 209.743 76.0203 209.773 76.0203 209.773C77.2003 207.333 86.7003 181.833 81.9703 120.963C80.9403 107.783 80.8603 95.5527 81.1003 85.9627C81.3203 77.4727 81.7803 71.0427 82.0503 67.8327L74.5703 63.5427L74.4103 63.4527L73.5903 63.2327C73.5903 63.5127 73.5603 64.0527 73.5203 64.8027C73.5203 64.9727 73.5003 65.1627 73.4803 65.3527V65.3727C73.4703 65.5727 73.4503 65.7727 73.4303 65.9827C73.4303 66.0927 73.4103 66.2027 73.4003 66.3127C73.3903 66.5227 73.3603 66.7327 73.3403 66.9727C73.3403 67.0327 73.3203 67.1027 73.3203 67.1627C73.2903 67.5127 73.2503 67.8727 73.2003 68.2527C73.0203 69.7927 72.7603 71.6327 72.3803 73.7527C72.3303 74.0227 72.2803 74.2827 72.2303 74.5627C72.1103 75.1927 71.9903 75.8427 71.8403 76.5127C71.7703 76.8427 71.7003 77.1727 71.6303 77.5127C71.5203 78.0427 71.4003 78.5827 71.2703 79.1327C71.2103 79.3927 71.1403 79.6627 71.0803 79.9327C70.5603 82.0927 69.9403 84.4227 69.1903 86.9127C69.1003 87.2327 68.9903 87.5627 68.8903 87.8927C68.7203 88.4627 68.5303 89.0527 68.3303 89.6427C68.2903 89.7527 68.2603 89.8627 68.2203 89.9727C68.0303 90.5327 67.8403 91.1127 67.6403 91.6927C66.8503 94.0027 65.9403 96.4227 64.9203 98.9427C64.5503 99.8527 64.1603 100.783 63.7603 101.723C62.9903 103.503 62.1603 105.343 61.2603 107.223C61.1103 107.533 60.9603 107.853 60.8003 108.173C60.3903 109.013 59.9803 109.853 59.5403 110.703C59.1603 111.453 58.7703 112.203 58.3603 112.973C58.2703 113.153 58.1703 113.333 58.0703 113.513C57.7003 114.213 57.3203 114.903 56.9303 115.613C56.1603 117.013 55.3503 118.423 54.5003 119.863C53.5303 121.493 52.5903 123.143 51.6903 124.793C51.4003 125.343 51.1003 125.883 50.8103 126.423C50.6903 126.653 50.5703 126.893 50.4403 127.123C50.4003 127.203 50.3503 127.273 50.3203 127.353C50.1703 127.633 50.0303 127.903 49.9003 128.173C48.6303 130.623 47.4403 133.073 46.3503 135.513C45.7703 136.793 45.2203 138.083 44.7003 139.363C43.1503 143.183 41.8503 146.973 40.8503 150.713L40.8703 150.703Z" fill="#B3B9FF"/>
<mask id="mask2_6007_54001" style="mask-type:luminance" maskUnits="userSpaceOnUse" x="38" y="63" width="46" height="147">
<path d="M76.0603 209.793C75.1603 209.543 74.2703 209.273 73.3803 208.983C70.0103 207.873 66.6403 206.473 63.3003 204.743C61.1903 203.643 59.2303 202.483 57.4103 201.273C53.5703 198.713 50.3903 195.903 47.8103 192.883C47.6003 192.643 47.4003 192.403 47.2003 192.163C35.4403 177.773 36.8003 158.863 44.7303 139.353C45.2503 138.073 45.8003 136.783 46.3803 135.503C47.4703 133.053 48.6603 130.613 49.9303 128.163C50.0603 127.893 50.2003 127.623 50.3503 127.353C50.3903 127.273 50.4303 127.203 50.4703 127.123C50.5903 126.893 50.7203 126.663 50.8403 126.423C51.1303 125.883 51.4303 125.343 51.7303 124.793C52.6303 123.143 53.5603 121.503 54.5403 119.863C72.5803 89.4227 73.5703 65.8927 73.6303 63.2327L82.3003 65.5427C82.3003 65.5427 79.6703 90.7427 82.0203 120.973C86.7403 181.853 77.2503 207.343 76.0703 209.793" fill="white"/>
</mask>
<g mask="url(#mask2_6007_54001)">
<path d="M68.9403 66.6126C70.5603 65.7826 72.2403 66.4726 73.7503 67.2226C75.4003 68.0426 77.0903 68.6826 78.9003 69.0426C82.5703 69.7826 86.4103 69.4326 89.8903 68.0626C90.7503 67.7226 91.1203 69.1126 90.2703 69.4426C86.8503 70.7826 83.1203 71.1526 79.4903 70.5926C77.6903 70.3226 75.9503 69.7926 74.2903 69.0626C72.9803 68.4826 71.1303 67.0926 69.6603 67.8526C68.8403 68.2726 68.1203 67.0326 68.9403 66.6126Z" fill="#8792FF"/>
<path d="M68.6303 79.1028C69.7703 79.2228 70.7903 79.7828 71.8203 80.2328C72.8703 80.6928 73.9203 81.0528 75.0503 81.2228C77.1703 81.5528 79.3303 81.4328 81.4503 81.1528C85.3203 80.6428 89.0203 79.3928 92.0803 76.9228C93.1903 76.0228 91.6203 74.4628 90.5203 75.3528C87.7103 77.6228 84.0903 78.6728 80.5503 79.0428C78.5303 79.2528 76.4203 79.3628 74.4303 78.8428C73.6003 78.6228 72.8303 78.2928 72.0603 77.9728C70.9503 77.5028 69.8503 77.0328 68.6103 76.9028C67.2003 76.7528 67.2203 78.9728 68.6303 79.1228" fill="#8792FF"/>
<path d="M64.4203 90.7226C66.2903 89.6226 68.5703 90.3826 70.5103 90.8826C72.6803 91.4326 74.8803 91.7426 77.1203 91.5626C81.5803 91.2026 85.8703 89.2926 88.9503 86.0126C89.9203 84.9726 88.3703 83.3926 87.3903 84.4426C84.3903 87.6526 80.1103 89.3926 75.7403 89.4126C73.5303 89.4126 71.5103 88.8026 69.3803 88.3326C67.3303 87.8726 65.2003 87.7126 63.3203 88.8226C62.0903 89.5426 63.2003 91.4626 64.4303 90.7426" fill="#8792FF"/>
<path d="M62.4103 101.423C64.4603 101.453 66.4103 102.023 68.3603 102.593C69.1003 102.803 69.8303 103.023 70.5703 103.213C73.0003 103.823 75.5003 104.033 78.0003 103.803C82.8603 103.363 87.4703 101.533 91.6803 99.1226C92.9203 98.4126 91.8103 96.4926 90.5703 97.2026C86.5403 99.5126 82.0703 101.323 77.3903 101.633C74.9703 101.793 72.6403 101.493 70.3003 100.843C67.6903 100.123 65.1303 99.2426 62.3903 99.2026C60.9703 99.1826 60.9803 101.393 62.4103 101.423Z" fill="#8792FF"/>
<path d="M56.3303 109.163C64.4203 113.573 74.4203 114.133 83.0103 110.813C85.4703 109.863 87.8003 108.623 89.9403 107.063C91.0803 106.233 89.9803 104.303 88.8303 105.143C79.8203 111.693 67.2503 112.593 57.4503 107.253C56.2003 106.573 55.0803 108.483 56.3303 109.163Z" fill="#8792FF"/>
<path d="M52.5903 121.203C57.3903 125.083 63.6703 125.703 69.6303 125.373C75.9203 125.033 82.0003 123.783 87.4103 120.423C88.6203 119.673 87.5103 117.753 86.3003 118.503C81.3003 121.613 75.7503 122.793 69.9303 123.143C64.5603 123.463 58.5403 123.183 54.1603 119.643C53.0603 118.753 51.4803 120.303 52.5903 121.203Z" fill="#8792FF"/>
<path d="M47.1703 130.443C56.1003 137.123 67.9903 139.373 78.8103 136.883C81.8703 136.183 84.8403 135.073 87.6203 133.613C88.8903 132.953 87.7703 131.033 86.5103 131.693C77.1803 136.573 65.7903 136.873 56.0703 132.943C53.2903 131.823 50.6803 130.313 48.2803 128.523C47.1403 127.673 46.0303 129.593 47.1603 130.433" fill="#8792FF"/>
<path d="M41.8203 143.523C47.8003 146.313 53.8903 149.163 60.4003 150.463C66.4103 151.663 72.5203 151.303 78.4703 149.983C81.7703 149.243 85.0003 148.233 88.1703 147.073C87.8903 147.033 87.6003 147.003 87.3203 146.963L87.4303 147.023C87.2603 146.803 87.0903 146.583 86.9203 146.363C87.0903 146.063 87.2603 145.763 87.4303 145.463C87.7103 145.503 88.0003 145.533 88.2803 145.573L88.1703 145.513C86.9203 144.833 85.8003 146.743 87.0503 147.423C88.1903 148.043 89.5503 146.853 89.0003 145.633C88.6703 144.903 87.9703 144.823 87.2903 145.033C86.4703 145.283 85.6703 145.613 84.8603 145.883C81.7103 146.933 78.4903 147.803 75.2103 148.363C71.9503 148.923 68.6203 149.143 65.3203 148.903C61.6603 148.643 58.0703 147.743 54.6003 146.543C50.6003 145.163 46.7703 143.373 42.9403 141.593C41.6603 140.993 40.5303 142.903 41.8203 143.503" fill="#8792FF"/>
<path d="M38.6303 158.003C50.5803 164.073 64.6603 165.533 77.6403 162.223C81.3203 161.283 84.9003 159.943 88.3003 158.253C89.5803 157.623 88.4603 155.703 87.1903 156.333C75.7103 162.023 62.1903 163.223 49.8303 159.943C46.3403 159.013 42.9603 157.733 39.7403 156.093C38.4703 155.453 37.3503 157.363 38.6203 158.003" fill="#8792FF"/>
<path d="M37.9903 173.383C51.8503 177.523 66.9703 179.413 80.9503 174.733C84.4903 173.553 87.8803 171.973 91.0303 169.973C91.9903 169.363 91.5703 167.963 90.4703 167.903C89.5403 167.853 88.7403 168.323 88.2903 169.123C87.5903 170.363 89.5003 171.483 90.2003 170.243C90.2303 170.083 90.3203 170.043 90.4803 170.113C90.2903 169.423 90.1003 168.733 89.9203 168.043C78.3403 175.393 64.0803 176.453 50.8403 174.173C46.6903 173.453 42.6003 172.433 38.5603 171.233C37.1903 170.823 36.6203 172.963 37.9903 173.373" fill="#8792FF"/>
<path d="M40.0703 188.003C53.6903 192.013 68.6303 190.713 81.4903 184.753C85.1603 183.053 88.6303 180.953 91.8503 178.503C92.6803 177.873 92.4903 176.433 91.2903 176.433C90.6703 176.433 90.0503 176.433 89.4303 176.433C88.0103 176.433 88.0203 178.653 89.4503 178.653C90.0703 178.653 90.6903 178.653 91.3103 178.653C91.1203 177.963 90.9303 177.273 90.7503 176.583C79.7803 184.933 65.8503 188.943 52.1203 187.953C48.2303 187.673 44.3903 186.953 40.6503 185.853C39.2803 185.453 38.7103 187.593 40.0803 187.993" fill="#8792FF"/>
<path d="M55.7603 207.203C58.9603 207.723 62.0903 207.083 65.1003 205.993C68.1103 204.903 71.0403 203.533 73.8803 202.053C79.5303 199.103 84.8303 195.483 89.6603 191.313C92.2503 189.083 95.5803 186.513 95.6803 182.793C95.7203 181.373 93.5003 181.383 93.4603 182.813C93.3803 185.663 90.2803 187.833 88.3303 189.533C86.0903 191.483 83.7503 193.303 81.3003 194.983C76.5203 198.283 71.3703 201.103 65.9903 203.283C62.9503 204.513 59.6403 205.593 56.3203 205.053C54.9303 204.833 54.3403 206.963 55.7503 207.193L55.7603 207.203Z" fill="#8792FF"/>
<mask id="mask3_6007_54001" style="mask-type:luminance" maskUnits="userSpaceOnUse" x="73" y="63" width="1" height="5">
<path d="M73.6203 63.2327C73.6103 63.7427 73.5603 65.0527 73.3603 67.0327C73.5603 65.0427 73.6103 63.7427 73.6203 63.2327Z" fill="white"/>
</mask>
<g mask="url(#mask3_6007_54001)">
<path d="M73.6167 63.2244L69.863 77.2922L71.6118 77.7589L75.3655 63.691L73.6167 63.2244Z" fill="#C5CAFF"/>
</g>
<path d="M73.3603 67.0327C73.3103 67.4927 73.2603 67.9827 73.2003 68.5127C73.2603 67.9827 73.3203 67.4927 73.3603 67.0327Z" fill="#A3ACFF"/>
<path d="M71.6103 77.7627C71.4603 78.4527 71.2903 79.1727 71.1203 79.9127C71.3003 79.1727 71.4603 78.4627 71.6103 77.7727" fill="#A3ACFF"/>
</g>
<path d="M119.68 179.393C119.29 180.873 117.77 181.753 116.29 181.353C114.81 180.953 113.93 179.443 114.33 177.963C114.73 176.483 116.24 175.603 117.72 176.003C119.2 176.403 120.08 177.913 119.68 179.393Z" fill="#FF0090"/>
<path d="M118.59 191.593C119.507 191.593 120.25 190.849 120.25 189.933C120.25 189.016 119.507 188.273 118.59 188.273C117.673 188.273 116.93 189.016 116.93 189.933C116.93 190.849 117.673 191.593 118.59 191.593Z" fill="#FF0090"/>
<path d="M124.15 184.673C123.98 185.303 123.34 185.673 122.71 185.503C122.08 185.333 121.71 184.693 121.88 184.063C122.05 183.433 122.69 183.063 123.32 183.233C123.95 183.403 124.32 184.043 124.15 184.673Z" fill="#FF0090"/>
<path opacity="0.42" d="M73.6203 62.9827C73.6203 62.9827 73.6203 63.0627 73.6203 63.2327C73.6203 63.5127 73.5903 64.0527 73.5503 64.8027C73.5503 64.9727 73.5303 65.1627 73.5103 65.3527V65.3727C73.5003 65.5727 73.4803 65.7727 73.4603 65.9827C73.4603 66.0927 73.4403 66.2027 73.4303 66.3127C73.4203 66.5227 73.3903 66.7327 73.3703 66.9727C73.3703 67.0327 73.3503 67.1027 73.3503 67.1627C73.3203 67.5127 73.2803 67.8727 73.2303 68.2527C73.0503 69.7927 72.7903 71.6327 72.4103 73.7527C72.3603 74.0227 72.3103 74.2827 72.2603 74.5627C72.1403 75.1927 72.0203 75.8427 71.8703 76.5127C71.8003 76.8427 71.7303 77.1727 71.6603 77.5127C71.5503 78.0427 71.4303 78.5827 71.3003 79.1327C71.2403 79.3927 71.1703 79.6627 71.1103 79.9327C70.5903 82.0927 69.9703 84.4227 69.2203 86.9127C73.1603 88.7627 78.6503 87.3727 81.1403 85.9627C81.5803 85.7027 81.9403 85.4527 82.1603 85.2227C83.3603 83.9827 87.4503 82.2727 89.8603 81.3227C89.6603 80.4827 89.4803 79.6627 89.3203 78.8627C89.3203 78.8627 89.3103 78.7927 89.3103 78.7627C89.2903 78.6827 89.2803 78.6127 89.2803 78.5327C89.2803 78.5027 89.2803 78.4627 89.2803 78.4327C89.2803 78.3527 89.2803 78.2827 89.2803 78.2027C89.2803 78.0727 89.2803 77.9527 89.3003 77.8327V77.8027C89.3303 77.6727 89.3503 77.5427 89.3903 77.4127C89.9503 75.3227 92.2603 73.6627 92.2603 73.6627L82.0903 67.8227L74.4503 63.4427L73.6303 62.9727L73.6203 62.9827Z" fill="#1F2EC4"/>
<g style="mix-blend-mode:overlay">
<path d="M40.8703 150.703C40.7403 151.183 40.6203 151.663 40.5003 152.143C40.3803 152.623 40.2703 153.103 40.1603 153.573C40.0503 154.053 39.9503 154.523 39.8503 155.003C39.7503 155.483 39.6603 155.953 39.5703 156.423V156.453C39.4703 156.913 39.4003 157.373 39.3203 157.833C39.2503 158.253 39.1803 158.673 39.1303 159.103C38.9303 160.483 38.7903 161.853 38.6903 163.213C38.6603 163.563 38.6403 163.933 38.6203 164.283C38.6203 164.293 38.6203 164.313 38.6203 164.323C38.6003 164.683 38.5803 165.053 38.5703 165.413C38.5503 165.783 38.5503 166.143 38.5503 166.513C38.5503 166.873 38.5503 167.243 38.5503 167.603C38.5503 167.963 38.5603 168.333 38.5803 168.683C38.5803 169.043 38.6103 169.403 38.6303 169.763C38.6503 170.053 38.6703 170.343 38.6903 170.643C38.7203 170.963 38.7403 171.273 38.7803 171.593C38.8103 171.923 38.8503 172.243 38.9003 172.563C38.9103 172.693 38.9303 172.823 38.9403 172.953C38.9903 173.353 39.0503 173.753 39.1103 174.153C39.1603 174.473 39.2203 174.793 39.2803 175.113C39.3103 175.323 39.3603 175.543 39.4003 175.753C39.4403 176.003 39.5003 176.263 39.5703 176.513C39.6203 176.763 39.6803 177.013 39.7403 177.263C39.8003 177.553 39.8803 177.843 39.9603 178.123C40.1503 178.853 40.3703 179.573 40.6103 180.293C40.6903 180.523 40.7703 180.763 40.8603 181.003C40.8803 181.073 40.9103 181.153 40.9403 181.223C41.0403 181.523 41.1603 181.823 41.2803 182.113C41.4103 182.443 41.5403 182.763 41.6803 183.093C41.9503 183.753 42.2603 184.403 42.5803 185.053C42.7303 185.353 42.8903 185.653 43.0403 185.943C43.2003 186.253 43.3703 186.553 43.5403 186.863C44.1603 187.953 44.8403 189.033 45.5903 190.083C45.7703 190.343 45.9603 190.603 46.1603 190.863C46.4803 191.303 46.8203 191.733 47.1703 192.153C47.3603 192.393 47.5603 192.633 47.7803 192.873C50.3603 195.883 53.5303 198.693 57.3803 201.253C59.1903 202.473 61.1503 203.633 63.2703 204.723C66.6103 206.453 69.9703 207.863 73.3403 208.963C74.1103 209.213 74.8903 209.453 75.6603 209.673C72.9503 208.833 55.5103 202.913 45.7703 186.203C35.1803 168.033 45.3803 141.673 48.7503 134.663C52.1303 127.643 62.7703 106.793 68.2903 92.8227C72.9503 81.0427 74.2703 67.4827 74.5603 63.5427L74.4003 63.4527L73.5803 63.2327C73.5803 63.5127 73.5503 64.0527 73.5103 64.8027C73.5103 64.9727 73.4903 65.1627 73.4703 65.3527V65.3727C73.4603 65.5727 73.4403 65.7727 73.4203 65.9827C73.4203 66.0927 73.4003 66.2027 73.3903 66.3127C73.3803 66.5227 73.3503 66.7327 73.3303 66.9727C73.3303 67.0327 73.3103 67.1027 73.3103 67.1627C73.2803 67.5127 73.2403 67.8727 73.1903 68.2527C73.0103 69.7927 72.7503 71.6327 72.3703 73.7527C72.3203 74.0227 72.2703 74.2827 72.2203 74.5627C72.1003 75.1927 71.9803 75.8427 71.8303 76.5127C71.7603 76.8427 71.6903 77.1727 71.6203 77.5127C71.5103 78.0427 71.3903 78.5827 71.2603 79.1327C71.2003 79.3927 71.1303 79.6627 71.0703 79.9327C70.5503 82.0927 69.9303 84.4227 69.1803 86.9127C69.0903 87.2327 68.9803 87.5627 68.8803 87.8927C68.7103 88.4627 68.5203 89.0527 68.3203 89.6427C68.2803 89.7527 68.2503 89.8627 68.2103 89.9727C68.0203 90.5327 67.8303 91.1127 67.6303 91.6927C66.8403 94.0027 65.9303 96.4227 64.9103 98.9427C64.5403 99.8527 64.1503 100.783 63.7503 101.723C62.9803 103.503 62.1503 105.343 61.2503 107.223C61.1003 107.533 60.9503 107.853 60.7903 108.173C60.3803 109.013 59.9703 109.853 59.5303 110.703C59.1503 111.453 58.7603 112.203 58.3503 112.973C58.2603 113.153 58.1603 113.333 58.0603 113.513C57.6903 114.213 57.3103 114.903 56.9203 115.613C56.1503 117.013 55.3403 118.423 54.4903 119.863C53.5203 121.493 52.5803 123.143 51.6803 124.793C51.3903 125.343 51.0903 125.883 50.8003 126.423C50.6803 126.653 50.5603 126.893 50.4303 127.123C50.3903 127.203 50.3403 127.273 50.3103 127.353C50.1603 127.633 50.0203 127.903 49.8903 128.173C48.6203 130.623 47.4303 133.073 46.3403 135.513C45.7603 136.793 45.2103 138.083 44.6903 139.363C43.1403 143.183 41.8403 146.973 40.8403 150.713L40.8703 150.703Z" fill="#B3B9FF"/>
</g>
<path d="M42.2603 205.373C42.5003 205.913 42.7703 206.433 43.0803 206.933C44.4003 209.103 46.3003 210.923 48.6403 212.323C48.7203 212.363 48.8403 212.413 49.0103 212.463C50.8103 213.033 57.8003 214.003 65.8803 214.873C78.0603 216.193 92.7203 217.303 95.8903 216.533H95.9103C95.9903 216.513 96.0503 216.493 96.1203 216.473C96.7703 216.253 96.9203 215.423 96.7203 214.153C96.5903 213.383 96.3303 212.453 95.9703 211.403C92.8303 202.363 81.8703 184.483 81.6603 184.143C78.3603 183.283 71.6903 184.403 64.2303 186.333C63.5503 186.503 62.8703 186.693 62.1803 186.873C57.7303 188.093 55.2603 189.803 52.2003 189.133C49.0003 188.433 45.3803 185.393 42.6103 185.023C42.5203 185.013 42.4303 184.993 42.3403 184.993H42.2103C42.1203 184.973 42.0303 184.973 41.9403 184.983C41.8103 184.983 41.6803 185.003 41.5603 185.023C41.4503 185.043 41.3503 185.063 41.2503 185.093C41.1603 185.123 41.0603 185.153 40.9803 185.193C40.8703 185.233 40.7603 185.293 40.6603 185.353C40.5403 185.423 40.4403 185.503 40.3303 185.593C40.0703 185.833 39.8403 186.143 39.6703 186.523C37.7603 190.493 40.5103 201.393 42.2803 205.353L42.2603 205.373Z" fill="#6B78FF"/>
<path opacity="0.49" d="M42.2603 205.373C42.5003 205.913 42.7703 206.433 43.0803 206.933C44.3603 209.143 46.2303 211.023 48.6403 212.323C49.7503 209.933 48.6203 205.333 47.1103 200.553C45.8403 196.553 45.2903 191.813 44.1703 189.723C41.8203 185.363 40.1003 186.193 39.6503 186.533C37.7403 190.503 40.4903 201.403 42.2603 205.363V205.373Z" fill="#FF0090"/>
<path d="M40.3103 185.603C45.6603 183.403 55.1203 195.563 56.4403 193.093C57.3703 191.333 62.0803 189.313 64.7403 188.283C65.8303 187.853 66.5703 187.603 66.5703 187.603C70.5103 185.533 81.6403 184.133 81.6403 184.133C78.3403 183.283 71.6703 184.403 64.2103 186.333C63.5303 186.503 62.8503 186.693 62.1603 186.873C57.7103 188.093 55.2403 189.803 52.1803 189.133C48.9803 188.433 45.3603 185.393 42.5903 185.023C42.5003 185.013 42.4103 184.993 42.3203 184.993H42.1903C42.1003 184.973 42.0103 184.973 41.9203 184.983C41.7903 184.983 41.6603 185.003 41.5403 185.023C41.4303 185.043 41.3303 185.063 41.2303 185.093C41.1403 185.123 41.0403 185.153 40.9603 185.193C40.8503 185.233 40.7403 185.293 40.6403 185.353C40.5203 185.423 40.4203 185.503 40.3103 185.593V185.603Z" fill="#7884FF"/>
<path d="M49.0103 212.463C50.8103 213.033 57.8003 214.003 65.8803 214.873C78.0603 216.193 92.7203 217.303 95.8903 216.533H95.9103C103.26 216.433 112.66 214.153 124.18 207.313C137.22 199.563 144.88 196.783 156.12 190.973H156.14C162.66 186.793 157.69 189.873 129.86 201.373C114.78 207.603 103.81 210.263 95.9703 211.413C89.1203 212.423 84.6803 212.273 82.0103 212.353C77.8103 212.473 72.0703 212.563 66.5503 212.623C58.2503 212.703 50.4303 212.683 49.0303 212.483L49.0103 212.463Z" fill="#4F5FFF"/>
<path d="M96.5503 69.7327C96.5503 69.7327 102.59 77.6227 102.04 82.6227C101.49 87.6227 86.8403 75.6927 86.8403 75.6927L96.5403 69.7327H96.5503Z" fill="#E80083"/>
<path d="M105.27 36.6326C105.27 36.6326 114.94 34.3326 119.28 36.8726C123.63 39.4126 106.76 47.9226 106.76 47.9226L105.27 36.6326Z" fill="#FF0090"/>
<path d="M101.23 58.0227C101.23 58.0227 110.76 60.8427 113.26 65.2127C115.76 69.5827 96.9003 68.5527 96.9003 68.5527L101.23 58.0227Z" fill="#E80083"/>
<path d="M87.8103 23.9727C85.7003 25.3927 90.4403 19.7527 88.8103 14.8927C84.0203 0.622726 76.4603 1.95273 78.5703 0.532726C80.6803 -0.887274 87.9603 -0.237273 96.3603 12.2627C104.76 24.7627 89.9203 22.5627 87.8103 23.9727Z" fill="#FF0090"/>
<path d="M89.6203 25.6428C87.0803 25.5328 94.2403 23.8028 95.8103 18.9228C100.42 4.58282 93.5503 1.17282 96.0803 1.28282C98.6203 1.39282 104.1 6.23283 103.45 21.2828C102.8 36.3228 92.1603 25.7528 89.6203 25.6428Z" fill="#FF0090"/>
<path d="M92.4403 28.5726C90.1803 27.4226 97.4103 28.8126 100.85 25.0226C110.98 13.8826 106.15 7.93263 108.41 9.08263C110.67 10.2326 113.65 16.9126 106.83 30.3326C100 43.7526 94.7003 29.7126 92.4403 28.5626V28.5726Z" fill="#FF0090"/>
<path d="M95.3403 30.9727C93.6103 29.1127 99.3903 31.6027 103.48 29.6627C115.48 23.9627 113.82 19.9227 115.55 21.7827C117.28 23.6427 117.41 29.0927 107.79 38.0227C98.1603 46.9627 97.0803 32.8327 95.3503 30.9727H95.3403Z" fill="#FF0090"/>
<path d="M78.2503 26.9327C75.8103 27.6327 82.1803 24.2027 82.4503 20.2527C83.2503 8.6427 75.8603 8.3327 78.3003 7.6327C80.7403 6.9327 87.1603 8.6827 90.3103 19.5727C93.4603 30.4627 80.6903 26.2327 78.2503 26.9327Z" fill="#FF0090"/>
<path d="M136.08 49.3727C136.06 49.4527 135.91 48.9127 135.45 48.6927C133.26 47.6127 126.54 45.3727 123.38 44.8827C117.1 43.9127 111.05 48.4527 108.87 50.1827C108.17 50.7427 108.63 53.6127 108.83 54.9627C108.72 54.8527 108.6 54.7527 108.49 54.6427C108.39 54.5627 108.3 54.4627 108.2 54.3727C106.64 52.8427 106.9 51.2327 107.68 49.4627C108.38 47.8927 108.82 41.6227 108.85 41.2527C108.94 41.3827 110.99 44.4527 114.02 43.3627C118.32 41.8227 121.33 41.5327 124.5 42.1927C129.63 43.2627 133.43 46.5027 135.5 48.3027L135.58 48.3727C135.88 48.6327 136.05 48.9927 136.09 49.3727H136.08Z" fill="#6B78FF"/>
<path d="M33.1303 39.9227C31.9303 54.4427 40.5603 68.4027 55.5003 76.6127C75.0703 87.3727 98.7003 81.9528 108.29 64.5127C113.7 54.6628 108.99 37.6627 105.2 32.1227C101.42 26.5827 99.3703 23.5527 94.7703 20.6627C92.1903 19.0427 85.2303 15.8227 78.4503 17.9827C75.5503 18.9027 76.1203 17.4827 72.1503 13.3027C66.0903 6.91275 52.9803 8.46275 48.4103 16.5427C46.2703 20.3227 44.5703 24.5827 43.9803 28.3527C43.3703 29.9127 42.7303 31.3127 41.9303 32.4127C39.1503 36.2127 33.5003 35.4227 33.1303 39.9227Z" fill="#6B78FF"/>
<path d="M90.8703 23.0127C93.4103 23.7627 95.6203 25.3327 97.0903 27.5927C98.4103 29.6127 99.6603 32.8127 98.8803 35.0027C98.7003 35.5027 97.9403 34.9827 97.8303 34.0727C97.6503 32.5027 96.4203 29.7327 94.6303 28.7927C92.9903 27.9327 91.0803 27.1727 89.3503 26.6427C85.6603 25.5127 88.9703 22.4627 90.8603 23.0127H90.8703Z" fill="#1C30FF"/>
<path d="M65.8903 13.3827C63.8003 11.9727 61.3203 11.3427 58.8103 11.7327C56.5603 12.0727 53.5103 13.2527 52.4303 15.2827C52.1803 15.7427 53.0203 15.9827 53.7403 15.4527C54.9703 14.5527 57.6903 13.6427 59.4603 14.3627C61.0803 15.0227 62.7903 15.9527 64.2403 16.9027C67.3103 18.9227 67.4503 14.4327 65.8903 13.3727V13.3827Z" fill="#1C30FF"/>
<path d="M134.21 57.5927C132.87 58.0527 130.86 58.6627 128.64 59.1027C128.84 59.7627 129 60.3527 129.13 60.8527C129.35 61.6827 128.72 62.3527 127.92 62.5527C126.37 62.9527 123.37 63.8327 121.43 61.9227C118.18 58.7327 120.55 62.2427 120.02 63.3827C119.33 64.8527 115.65 63.8627 114.52 61.1727C113.86 59.6027 113.56 57.8727 108.83 54.9527C108.63 53.6027 108.17 50.7327 108.87 50.1727C111.05 48.4427 117.11 43.9027 123.38 44.8727C126.54 45.3527 133.26 47.6027 135.45 48.6827C135.91 48.9127 136.06 49.4427 136.08 49.3727C136.13 49.9227 135.91 50.5127 135.42 50.8727C134.81 51.3227 134.05 51.8627 133.18 52.4327C133.94 53.5627 134.57 54.5627 135.03 55.3327C135.53 56.1527 135.12 57.2827 134.22 57.5827L134.21 57.5927Z" fill="#828DFF"/>
<path d="M64.2103 32.8128C62.1603 38.0728 59.7903 40.2528 52.1303 37.2628C44.4703 34.2828 44.1903 31.0628 46.2403 25.8128C48.2903 20.5528 54.8703 15.5528 59.8303 17.4928C64.7903 19.4328 66.2603 27.5628 64.2103 32.8128Z" fill="#3647FF"/>
<path d="M64.0303 32.7827C62.1003 37.7527 59.8503 39.8127 52.6103 36.9927C45.3703 34.1727 45.1103 31.1327 47.0403 26.1627C48.9703 21.1927 55.2003 16.4627 59.8903 18.2927C64.5803 20.1227 65.9703 27.8127 64.0303 32.7727V32.7827Z" fill="white"/>
<path d="M56.4351 36.2283C59.8933 34.7081 61.4644 30.6722 59.9442 27.214C58.424 23.7558 54.3881 22.1847 50.9299 23.7049C47.4716 25.2251 45.9006 29.261 47.4208 32.7192C48.941 36.1774 52.9768 37.7485 56.4351 36.2283Z" fill="#E80083"/>
<path d="M59.0103 32.1026C57.8303 35.0426 54.5003 36.4826 51.5503 35.3026C48.6103 34.1226 47.1703 30.7926 48.3503 27.8426C49.5303 24.9026 52.8603 23.4626 55.8103 24.6426C58.7503 25.8226 60.1903 29.1526 59.0103 32.1026Z" fill="#00074D"/>
<path d="M52.2003 26.8426C52.5703 26.7826 52.9703 27.4026 53.1003 28.2226C53.2303 29.0426 53.0303 29.7526 52.6603 29.8126C52.2903 29.8726 51.8903 29.2526 51.7603 28.4326C51.6303 27.6126 51.8303 26.9026 52.2003 26.8426Z" fill="white"/>
<path d="M51.9003 24.8628C52.2703 24.8028 52.6103 25.0128 52.6603 25.3328C52.7103 25.6428 52.4503 25.9528 52.0803 26.0028C51.7103 26.0628 51.3703 25.8528 51.3203 25.5328C51.2703 25.2228 51.5303 24.9128 51.9003 24.8628Z" fill="white"/>
<path d="M73.9903 36.3028C70.1503 41.9628 69.6003 45.8328 77.8503 51.4328C86.1003 57.0328 89.5003 55.1028 93.3403 49.4428C97.1803 43.7828 97.6503 33.7728 92.3103 30.1428C86.9703 26.5128 77.8403 30.6428 73.9903 36.3028Z" fill="#3647FF"/>
<path d="M74.1503 36.4628C70.5203 41.8128 70.0003 45.4728 77.8003 50.7628C85.6003 56.0528 88.8103 54.2328 92.4403 48.8828C96.0703 43.5328 96.5203 34.0728 91.4603 30.6428C86.4103 27.2128 77.7803 31.1128 74.1403 36.4628H74.1503Z" fill="white"/>
<path d="M89.129 43.3399C89.5938 38.7796 86.2737 34.7059 81.7134 34.241C77.1531 33.7762 73.0794 37.0963 72.6145 41.6566C72.1497 46.2169 75.4698 50.2906 80.0301 50.7555C84.5905 51.2203 88.6642 47.9002 89.129 43.3399Z" fill="#E80083"/>
<path d="M80.8703 49.5029C84.7418 49.5029 87.8803 46.3644 87.8803 42.4929C87.8803 38.6214 84.7418 35.4829 80.8703 35.4829C76.9988 35.4829 73.8603 38.6214 73.8603 42.4929C73.8603 46.3644 76.9988 49.5029 80.8703 49.5029Z" fill="#00074D"/>
<path d="M79.8003 38.0127C79.4403 37.9327 79.0203 38.5127 78.8503 39.3027C78.6803 40.0927 78.8303 40.7927 79.1803 40.8727C79.5403 40.9527 79.9603 40.3728 80.1303 39.5828C80.3003 38.7928 80.1503 38.0927 79.8003 38.0127Z" fill="white"/>
<path d="M80.2103 36.1128C79.8503 36.0328 79.5103 36.2228 79.4503 36.5228C79.3803 36.8228 79.6203 37.1328 79.9703 37.2128C80.3303 37.2928 80.6703 37.1028 80.7303 36.8028C80.8003 36.5028 80.5603 36.1928 80.2103 36.1128Z" fill="white"/>
<path d="M30.3603 40.6528C32.4703 33.0028 53.2403 31.4328 64.1603 37.5528C73.7703 42.9428 83.9803 56.6528 88.5703 59.1628C93.7403 61.9928 78.0403 84.8428 59.1203 82.3028C54.2403 81.6528 46.3303 78.8328 38.1103 68.5528C27.8203 55.6828 28.2603 48.3028 30.3603 40.6528Z" fill="#6B78FF"/>
<mask id="mask4_6007_54001" style="mask-type:luminance" maskUnits="userSpaceOnUse" x="29" y="33" width="61" height="50">
<path d="M30.3603 40.6528C32.4703 33.0028 53.2403 31.4328 64.1603 37.5528C73.7703 42.9428 83.9803 56.6528 88.5703 59.1628C93.7403 61.9928 78.0403 84.8428 59.1203 82.3028C54.2403 81.6528 46.3303 78.8328 38.1103 68.5528C27.8203 55.6828 28.2603 48.3028 30.3603 40.6528Z" fill="white"/>
</mask>
<g mask="url(#mask4_6007_54001)">
<path d="M76.4303 46.0629C77.0603 41.9929 71.4803 39.3529 68.6903 37.5429C64.8803 35.0729 60.8403 32.9729 56.5503 31.4529C53.8103 30.4829 40.7903 27.4829 36.7003 30.5129C34.3103 30.2729 32.6803 33.7929 35.2103 34.9729C36.7803 35.7029 38.0703 37.5329 39.1503 38.8229C40.4003 40.3229 42.4903 42.2329 44.2503 43.0229C48.0803 44.7329 51.0603 44.8729 55.1903 45.3929C59.5803 45.9429 63.7203 46.6729 67.9103 48.1329C70.8203 49.1529 75.7303 50.5629 76.4203 46.0629H76.4303Z" fill="#828DFF"/>
<path d="M55.5103 50.6229C55.5903 50.2029 55.4603 48.8629 54.1303 48.2629C52.8003 47.6629 52.0003 48.3029 51.3003 48.8529C50.8903 49.1729 51.9903 49.6729 52.5303 49.6629H52.5703C52.5703 49.6629 52.6703 49.6829 52.7203 49.7029C52.8903 49.7829 52.5903 50.6529 52.6003 50.8829C52.6203 51.1129 52.9803 51.9529 54.0303 52.0429C55.2903 52.1529 55.4603 50.8829 55.5103 50.6229Z" fill="#99A2FF"/>
<path d="M41.3903 43.053C41.3503 42.393 40.8803 41.803 40.3903 41.503C39.9003 41.213 39.3903 41.003 38.9003 41.043C38.5803 41.063 37.8303 41.033 37.2703 41.793C37.0003 42.163 36.6903 42.693 36.9903 43.033C38.4603 44.663 40.3403 44.053 40.5703 44.013C41.0303 43.943 41.4203 43.523 41.3903 43.043V43.053Z" fill="#99A2FF"/>
<path d="M91.1903 58.803C89.3603 58.503 87.8403 57.143 86.4703 55.973C85.0003 54.713 83.6303 53.343 82.2803 51.953C79.6903 49.263 77.1803 46.483 74.3303 44.063C68.9103 39.463 62.6003 35.863 55.7503 33.883C51.9403 32.783 47.9703 32.223 44.0003 32.263C42.7603 32.273 42.8103 34.203 44.0503 34.193C51.0203 34.123 57.8703 36.053 63.9903 39.323C67.0803 40.973 69.9803 42.943 72.6603 45.183C75.5203 47.583 78.0403 50.323 80.6103 53.013C82.0803 54.543 83.5803 56.053 85.1903 57.433C86.7903 58.793 88.5803 60.333 90.7203 60.683C91.9403 60.883 92.4003 59.003 91.1703 58.803H91.1903Z" fill="#1C30FF"/>
<path d="M62.6903 79.3329C58.8003 79.5429 55.4003 77.3029 55.2303 77.4429C55.0303 77.6129 58.4703 80.3529 62.8603 80.2729C66.5403 80.2129 69.6203 77.4529 69.4603 77.2429C69.3303 77.0729 66.3403 79.1229 62.6903 79.3229V79.3329Z" fill="#1C30FF"/>
<path d="M40.0603 35.4428C39.5803 35.3928 39.5703 36.4928 40.8203 38.4528C42.0803 40.4128 43.8803 41.9928 48.0803 42.4928C48.6003 42.5528 54.9603 43.2928 54.6803 42.1128C54.5303 41.5028 49.2503 40.0828 45.6803 38.5028C42.4103 37.0428 41.5603 35.6028 40.0503 35.4428H40.0603Z" fill="#919BFF"/>
</g>
<path d="M72.4203 72.5728C71.5303 73.2628 70.7003 73.8928 69.9203 74.4428C66.3803 76.4928 64.0503 77.7628 60.1003 77.1728C59.7803 77.1228 59.4403 77.0628 59.1003 76.9828C54.6403 76.0228 51.7703 72.3228 49.8803 70.3528C49.2603 69.7128 49.8703 68.6928 50.7403 68.8828H50.7803C51.4303 69.0028 55.5503 70.4328 60.8003 71.2128C61.6703 71.3428 62.5703 71.4528 63.5003 71.5328C66.2303 71.7828 69.1303 71.7928 71.9303 71.3128C72.0503 71.2928 72.1503 71.2928 72.2503 71.3128C72.5103 71.3628 72.7003 71.5028 72.8303 71.7028L72.8603 71.7528L72.9003 71.8828C72.9703 72.2028 72.8503 72.2628 72.4403 72.5828L72.4203 72.5728Z" fill="#00074D"/>
<path d="M63.4803 71.5326C63.4203 71.7526 63.2503 72.2126 62.9603 72.5726C62.7203 72.8526 62.3603 73.1626 62.1103 73.3626C61.9503 73.4926 61.7203 73.4526 61.6003 73.2926C61.4203 73.0526 61.1803 72.6826 61.0203 72.3426C60.8303 71.9226 60.7903 71.4626 60.7903 71.2126C61.6603 71.3426 62.5703 71.4526 63.4903 71.5326H63.4803Z" fill="white"/>
<path d="M57.7403 70.7627C57.6403 70.9627 57.4003 71.3927 57.0503 71.7027C56.7703 71.9427 56.3603 72.1827 56.0803 72.3427C55.9003 72.4427 55.6803 72.3727 55.5903 72.1927C55.4603 71.9227 55.2703 71.5227 55.1703 71.1527C55.0503 70.7127 55.0903 70.2427 55.1303 70.0027C55.9703 70.2827 56.8403 70.5327 57.7303 70.7727L57.7403 70.7627Z" fill="white"/>
<path d="M72.4803 72.6526C68.2103 75.7026 65.2203 78.5426 59.5203 77.4226C55.4103 76.8726 52.4603 73.6326 49.9903 70.6126C49.8303 70.4226 49.6103 70.2026 49.5803 69.9126C49.4903 69.3526 49.9803 68.8026 50.5303 68.8426C56.6103 70.2126 62.8203 71.2926 69.0703 71.2926C69.9803 71.2926 70.8903 71.2326 71.7903 71.1326C72.0803 71.0826 72.4203 71.1226 72.6703 71.3226C72.8803 71.4926 73.0103 71.7426 73.0103 72.0026C73.0203 72.3326 72.6703 72.5026 72.4603 72.6526H72.4803ZM72.3603 72.5026C72.5203 72.3426 72.7703 72.2426 72.7603 72.0126C72.7303 71.7526 72.5303 71.5126 72.2003 71.4926C71.9303 71.4726 71.0403 71.7026 70.6903 71.7426C67.0303 72.4126 63.2603 72.1926 59.6203 71.4826C57.0503 70.9626 54.5003 70.1626 52.0203 69.3226C51.6103 69.2026 50.9503 68.9026 50.5203 68.8826C49.9903 68.8526 49.5503 69.4026 49.6703 69.8926C49.7103 70.1426 49.9103 70.3026 50.1003 70.4926C52.4503 72.8826 54.9503 75.2626 58.1603 76.3526C63.8903 78.2026 67.9603 76.1926 72.3503 72.5026H72.3603Z" fill="#1C30FF"/>
<path d="M49.5103 50.8328C49.1103 50.8628 48.8903 50.3528 49.2103 50.0928C50.2903 49.1928 52.0803 48.0728 53.3403 49.2028C55.2503 50.9328 54.1003 51.8128 53.2203 51.4128C52.4803 51.0828 51.5103 50.6828 49.5103 50.8328Z" fill="#00074D"/>
<path d="M40.2803 46.1626C40.4503 46.5026 40.9603 46.3926 41.0203 46.0026C41.2403 44.6226 41.3003 42.5526 39.7903 42.1726C37.4903 41.5826 37.3203 43.0026 38.0603 43.4926C38.6803 43.9026 39.4603 44.4726 40.2803 46.1626Z" fill="#00074D"/>
<path d="M54.9203 48.0327C57.0903 48.3427 57.6503 51.0227 56.0803 52.3327C55.6203 52.7327 54.9903 52.9627 54.3903 52.8627C56.5803 52.0827 57.1203 49.2727 54.9203 48.0327Z" fill="#1C30FF"/>
<path d="M39.7503 40.7727C38.3403 39.2727 35.9603 40.3627 35.8103 42.3127C35.7603 42.8927 35.9203 43.5227 36.3203 43.9227C35.7303 41.7927 37.6103 39.7727 39.7603 40.7727H39.7503Z" fill="#1C30FF"/>
<path d="M82.3803 62.2228C80.0903 63.1628 79.8003 61.1428 77.7603 57.9428C75.8403 54.9328 74.0103 53.7228 74.5403 52.8928C75.4703 51.4428 77.6603 52.8228 80.1403 55.3928C82.6203 57.9628 83.9703 61.5528 82.3803 62.2128V62.2228Z" fill="#828DFF"/>
<path d="M122.82 48.0426C124.54 48.5626 129.63 49.9926 131.89 51.4426C134.1 52.8526 135.28 55.3426 135.09 55.4926C134.77 55.7426 133.2 51.1726 123.94 49.2326C120.81 48.5826 114.74 48.0326 112.3 47.9926C111.79 47.9926 111.41 48.3926 111.42 48.3226C111.5 47.9726 111.63 47.8326 112.12 47.7026C114.45 47.0926 120.07 47.2126 122.82 48.0426Z" fill="#6E7BFF"/>
<path d="M119.48 52.3526C121.01 53.0426 125.32 55.1426 127.06 56.9626C128.76 58.7326 129.32 61.3326 129.12 61.4326C128.78 61.6026 129.54 57.4826 120.34 53.3026C117.65 52.0826 112.29 50.3626 110.1 49.8426C109.64 49.7326 109.13 49.9226 109.16 49.8526C109.3 49.5426 109.33 49.5326 109.79 49.5326C111.37 49.5126 117.24 51.3426 119.47 52.3526H119.48Z" fill="#6E7BFF"/>
<path d="M136.08 49.3727C136.06 49.4527 135.91 48.9127 135.45 48.6927C133.26 47.6127 126.54 45.3727 123.38 44.8827C117.1 43.9127 111.03 48.4327 108.87 50.1827C108.35 50.6027 108.58 52.9827 108.77 54.3327C108.84 54.7427 108.87 55.0127 108.85 55.0327C108.74 55.1127 108.58 54.6727 108.43 54.0127C108.15 52.8227 107.95 51.5527 107.96 50.7727C107.98 49.5627 114.15 45.4527 115.86 44.8427C119.57 43.5127 123.22 43.5727 124.94 44.0927C127.58 44.8827 133.43 46.7427 135.5 48.3127C135.59 48.3927 135.67 48.4527 135.75 48.5227C136.12 48.8527 136.18 49.0427 136.09 49.3827L136.08 49.3727Z" fill="#1C30FF"/>
<path d="M73.3303 71.6828C70.9103 70.1228 70.7503 67.6428 70.5303 67.6328C70.2803 67.6328 70.0703 70.3428 72.6703 72.1828C74.8403 73.7228 78.8403 73.7628 78.9103 73.6028C78.9703 73.4728 75.6003 73.1428 73.3303 71.6828Z" fill="#1C30FF"/>
<path d="M81.9903 1.58283C81.9903 1.58283 85.7703 2.61283 88.8703 5.31283C91.7603 7.83283 93.8603 11.9428 94.0903 14.3828C94.4403 18.1228 92.5303 18.2728 91.7403 17.6728C89.6303 16.0928 91.9603 10.3328 86.7603 5.77283C83.3003 2.74283 79.0303 0.852831 81.9903 1.58283Z" fill="#FF87CB"/>
<path d="M100.32 7.29272C101.05 7.52272 101.65 11.0027 101.51 14.9327C101.36 19.0727 100.8 20.1727 99.3103 19.6327C97.3803 18.9327 98.5303 17.5627 99.3503 14.5227C100.03 11.9727 99.5903 7.06272 100.32 7.29272Z" fill="#FF87CB"/>
<path d="M73.9003 134.433C72.0303 134.803 67.2603 131.293 67.2603 131.293C67.2603 131.293 66.8103 129.763 69.4303 128.913C69.4303 128.913 69.6103 128.913 69.9103 128.953C71.1103 129.093 74.2303 129.783 74.6303 133.033C74.7403 133.923 74.4403 134.343 73.9103 134.433" fill="#293CFF"/>
<path d="M73.9003 134.433C71.7803 134.163 67.8603 131.283 67.8603 131.283C67.8603 131.283 67.4203 129.803 69.9003 128.953C70.3403 129.003 71.0403 129.123 71.7703 129.433C73.0303 129.943 74.3703 130.983 74.6203 133.033C74.7103 133.763 74.5203 134.183 74.1503 134.363C74.0703 134.403 73.9903 134.433 73.9003 134.443" fill="#4F5FFF"/>
<path d="M71.7703 129.433C73.0303 129.943 74.3703 130.983 74.6203 133.033C74.6203 133.093 74.6303 133.153 74.6403 133.203C74.0503 133.273 73.4803 133.343 72.9303 133.403C71.9303 132.583 70.7603 131.503 70.2903 130.603C70.2003 130.123 70.4203 129.743 71.1203 129.543C71.3503 129.483 71.5703 129.433 71.7803 129.423" fill="#7B87FF"/>
<path d="M56.7703 125.033C56.7703 125.033 54.5103 125.223 52.5203 125.043C51.4103 124.943 50.3703 124.733 49.8803 124.303L49.8403 124.273C49.7703 124.223 49.7303 124.163 49.6803 124.093L49.6403 124.013C49.6003 123.913 49.5703 123.803 49.5703 123.693C49.5703 123.473 49.6603 123.213 49.8703 122.923C49.9003 122.883 49.9303 122.833 49.9703 122.793C50.3903 122.273 50.8403 121.913 51.3103 121.663C51.5503 121.533 51.8003 121.443 52.0403 121.373C52.1403 121.343 52.2403 121.323 52.3403 121.303C52.4903 121.283 52.6403 121.253 52.7803 121.243C52.8703 121.243 52.9603 121.223 53.0503 121.223C53.1403 121.223 53.2203 121.223 53.3003 121.223C53.5603 121.223 53.8103 121.253 54.0503 121.293L54.1503 121.313C54.5903 121.393 54.9703 121.513 55.3003 121.623C55.4903 121.703 55.6603 121.763 55.8003 121.833C56.0603 121.943 56.2003 122.033 56.2003 122.033C57.9003 124.013 56.7703 125.033 56.7703 125.033Z" fill="#293CFF"/>
<path d="M56.2803 124.723C56.2803 124.723 54.1203 124.903 52.1603 124.753C51.2903 124.683 50.4503 124.543 49.8703 124.293L49.8303 124.273C49.7603 124.223 49.7203 124.163 49.6703 124.093L49.6303 124.013C49.5803 123.913 49.5503 123.813 49.5603 123.693C49.5603 123.473 49.6503 123.213 49.8603 122.923C49.8903 122.883 49.9203 122.833 49.9603 122.793C50.3803 122.273 50.8303 121.913 51.3003 121.663C51.5403 121.533 51.7903 121.443 52.0303 121.373C52.1303 121.343 52.2303 121.323 52.3303 121.303C52.4803 121.283 52.6303 121.253 52.7703 121.243C52.8603 121.243 52.9503 121.223 53.0403 121.223C53.1303 121.223 53.2103 121.223 53.2903 121.223C53.5503 121.223 53.8003 121.253 54.0403 121.293L54.1403 121.313C54.5803 121.383 54.9703 121.503 55.2903 121.623C55.4803 121.703 55.6503 121.763 55.7903 121.833C57.3703 123.743 56.2803 124.723 56.2803 124.723Z" fill="#4F5FFF"/>
<path d="M54.0503 121.283C54.2103 121.393 54.3703 121.543 54.5203 121.713C54.9903 122.213 54.9803 122.643 54.6603 122.973C53.8303 123.463 52.3503 123.753 51.1403 123.923C50.8903 123.723 50.6403 123.533 50.3903 123.333C50.2103 123.193 50.0403 123.053 49.8603 122.903C49.8903 122.863 49.9203 122.813 49.9603 122.773C50.3803 122.253 50.8303 121.893 51.3003 121.643C51.5403 121.513 51.7903 121.423 52.0303 121.353C52.1303 121.323 52.2303 121.303 52.3303 121.283C52.4803 121.263 52.6303 121.233 52.7703 121.223C52.8603 121.223 52.9503 121.203 53.0403 121.203C53.1303 121.203 53.2103 121.203 53.2903 121.203C53.3503 121.203 53.4003 121.203 53.4603 121.203C53.6603 121.213 53.8503 121.233 54.0403 121.273L54.0503 121.283Z" fill="#7B87FF"/>
<path d="M42.5003 129.953C42.2203 130.993 42.0503 132.223 42.3203 133.503C42.4303 134.053 42.6203 134.603 42.9103 135.143C43.4803 136.213 44.5703 136.933 45.7703 137.103C45.7703 137.103 45.7803 137.103 45.7903 137.103H45.8003C45.8603 137.103 45.9203 137.123 45.9803 137.133C46.4403 137.183 46.8703 137.183 47.3103 137.133C47.4103 137.133 47.5103 137.113 47.6203 137.093C48.3303 136.983 48.9703 136.823 49.5703 136.623C49.9803 136.473 50.3503 136.323 50.7103 136.143C50.8203 136.083 50.9303 136.023 51.0403 135.973H51.0503C51.5303 135.713 51.9303 135.413 52.3203 135.093C52.9003 134.573 53.3803 134.023 53.7603 133.433C53.7603 133.433 53.7603 133.413 53.7703 133.433C53.9303 133.153 54.0803 132.893 54.2103 132.613C54.2603 132.503 54.3103 132.393 54.3603 132.283C54.5803 131.763 54.7303 131.233 54.8303 130.703C55.0303 129.643 54.9803 128.633 54.7603 127.823C54.7103 127.603 54.6403 127.393 54.5603 127.213C54.3003 126.653 53.5403 125.903 52.5103 125.043C52.4003 124.953 52.2803 124.843 52.1603 124.753C51.8403 124.483 51.4903 124.203 51.1403 123.923C50.9003 123.723 50.6403 123.533 50.3903 123.323C50.2203 123.193 50.0403 123.043 49.8603 122.903C49.0103 122.873 48.1603 123.083 47.3703 123.463C47.3703 123.463 47.3603 123.469 47.3403 123.483C46.8503 123.723 46.3703 124.023 45.9203 124.373C44.8303 125.253 43.9403 126.433 43.3903 127.663C43.1803 128.123 42.7903 128.943 42.5103 129.953H42.5003Z" fill="#4F5FFF"/>
<path d="M42.5003 129.953C42.2203 130.993 42.0503 132.223 42.3203 133.503C42.7503 133.803 43.3603 134.003 44.1903 134.043C45.6503 134.123 46.7703 133.433 47.9203 132.533C50.3103 130.653 52.4603 127.473 50.5703 124.693L50.5503 124.663L50.5303 124.643C50.4803 124.583 50.4403 124.523 50.3803 124.453C50.2603 124.293 50.1403 124.163 50.0103 124.043H50.0003C49.8703 123.923 49.7303 123.823 49.5803 123.723H49.5703C48.9103 123.323 48.1603 123.283 47.4103 123.453C47.4003 123.453 47.3803 123.453 47.3703 123.453C47.3703 123.453 47.3603 123.459 47.3403 123.473C46.8503 123.713 46.3703 124.013 45.9203 124.363C44.8303 125.243 43.9403 126.423 43.3903 127.653C43.1803 128.113 42.7903 128.933 42.5103 129.943L42.5003 129.953Z" fill="#6B78FF"/>
<path d="M43.3803 127.663C43.1703 128.123 42.7803 128.943 42.5003 129.953C43.2903 130.093 44.3103 129.833 44.8203 129.333C45.4903 128.663 46.4803 126.653 46.1803 125.103C46.1203 124.853 46.0403 124.613 45.9103 124.393C44.8203 125.263 43.9303 126.443 43.3803 127.673V127.663Z" fill="#8892FF"/>
<path d="M52.1603 128.343C51.9503 130.143 55.6203 134.393 55.6203 134.393C55.6203 134.393 57.1003 134.703 57.7103 132.163C57.7103 132.163 57.6903 131.993 57.6403 131.713C57.4203 130.583 56.5403 127.683 53.4403 127.553C52.5903 127.513 52.2203 127.823 52.1703 128.333L52.1603 128.343Z" fill="#293CFF"/>
<path d="M52.1603 128.342C52.5703 130.332 55.5803 133.822 55.5803 133.822C55.5803 133.822 57.0103 134.122 57.6403 131.722C57.5603 131.312 57.3903 130.652 57.0503 129.992C56.4803 128.842 55.4003 127.642 53.4403 127.562C52.7403 127.532 52.3603 127.742 52.2203 128.102C52.1903 128.182 52.1703 128.262 52.1703 128.342H52.1603Z" fill="#4F5FFF"/>
<path d="M54.4003 127.702C55.7603 128.062 56.5803 129.042 57.0503 129.992C57.0503 130.192 57.0303 130.402 56.9903 130.622C56.8503 131.292 56.5103 131.532 56.0503 131.482C54.7503 130.922 52.9503 128.942 52.2203 128.102C52.3603 127.742 52.7403 127.532 53.4403 127.562C53.7903 127.582 54.1103 127.632 54.4003 127.702Z" fill="#7B87FF"/>
<path d="M48.6103 132.363C48.3403 133.923 51.8403 137.513 52.7103 138.153C53.6103 138.823 55.8803 137.403 55.4703 135.843C55.4503 135.703 55.3903 135.573 55.3103 135.433C53.6203 132.473 50.4703 130.793 48.9203 131.873C48.7403 131.993 48.6403 132.173 48.6103 132.363Z" fill="#293CFF"/>
<path d="M48.6103 132.363C49.0503 134.093 51.8903 136.973 52.6703 137.553C53.4503 138.133 55.2703 137.133 55.4703 135.843C55.4503 135.703 55.3903 135.573 55.3103 135.433C54.9903 134.863 54.6103 134.353 54.2103 133.903C52.5203 131.993 50.2903 131.053 49.0203 131.813L48.9203 131.873C48.7403 131.993 48.6403 132.173 48.6103 132.363Z" fill="#4F5FFF"/>
<path d="M50.9003 131.663C51.9803 131.953 53.1903 132.753 54.2103 133.903C54.3203 134.523 54.2003 135.063 53.8303 135.443C53.7103 135.573 53.5403 135.653 53.3603 135.663C51.8503 135.163 49.5303 132.643 49.0903 131.973C49.0503 131.923 49.0303 131.863 49.0203 131.813C49.5303 131.513 50.1903 131.483 50.9003 131.673V131.663Z" fill="#7B87FF"/>
<path d="M45.6703 136.253C45.6403 137.243 46.2203 138.403 47.6203 139.563C48.8903 140.613 50.7003 138.743 50.3003 137.803L50.2803 137.763C49.8103 136.833 47.4703 133.553 46.3403 134.703C45.9203 135.133 45.6803 135.663 45.6603 136.263L45.6703 136.253Z" fill="#293CFF"/>
<path d="M45.6703 136.253C45.8203 137.123 46.4203 138.083 47.5903 139.043C48.6503 139.923 50.1103 138.743 50.3003 137.793L50.2803 137.753C50.1503 137.503 49.9003 137.093 49.5603 136.633C48.6503 135.383 47.1703 133.843 46.3503 134.693C46.2103 134.833 46.0903 134.993 46.0003 135.163C45.7903 135.483 45.6803 135.863 45.6703 136.253Z" fill="#4F5FFF"/>
<path d="M47.1803 134.493C47.9703 134.703 48.9103 135.743 49.5603 136.643C49.6003 137.013 49.4803 137.303 49.1303 137.423C48.7203 137.553 48.2903 137.573 47.8603 137.463C47.7803 137.443 47.7103 137.423 47.6403 137.393C47.0003 137.013 46.4203 136.283 46.0103 135.183C46.1003 135.013 46.2203 134.853 46.3603 134.713C46.5903 134.473 46.8803 134.423 47.1903 134.513L47.1803 134.493Z" fill="#7B87FF"/>
<path d="M92.6403 148.623C86.5503 150.063 69.7503 151.613 65.1703 145.683C60.5903 139.753 64.2803 134.233 67.0503 133.083C69.8303 131.923 84.4903 135.913 87.3903 131.853C89.7403 128.553 88.1903 121.953 87.2403 115.143C86.6703 111.053 85.6903 107.553 86.4103 104.833C88.4603 97.053 97.5903 98.233 99.9503 102.743C100.59 103.953 101.14 105.453 101.6 107.173C103.31 113.463 103.8 122.613 102.52 130.693C100.72 142.003 98.7203 147.183 92.6403 148.623Z" fill="#4F5FFF"/>
<path d="M94.6903 146.603C89.0303 149.273 75.3303 149.963 72.9203 147.783C65.9903 141.493 70.1803 136.633 72.7403 135.043C75.2903 133.453 87.1503 136.663 88.9803 132.013C91.5703 125.433 87.7303 114.973 86.7003 107.483C86.4003 105.313 87.0403 103.273 87.8503 101.623C90.1203 97.0228 93.8703 90.6228 99.9503 102.733C100.56 103.953 101.14 105.443 101.6 107.163C102.73 112.453 102.94 119.023 102.42 125.413C101.57 135.903 98.2303 144.923 94.6803 146.593" fill="#6B78FF"/>
<path d="M100.56 103.813C102.59 108.953 103.5 117.363 102.68 120.483C102.53 121.043 102.41 111.353 100.04 104.373C97.1203 95.7728 93.7303 96.0728 93.7303 96.0728C93.7303 96.0728 96.9403 94.6028 100.57 103.803L100.56 103.813Z" fill="#B3B9FF"/>
<path d="M97.0403 140.453C97.0403 140.453 97.1203 140.483 97.1403 140.503C98.7703 141.713 94.4703 147.073 78.6303 147.023C77.4103 147.023 76.3903 146.903 75.5703 146.703C73.2603 146.123 72.4303 144.823 72.8203 143.113C73.3403 140.793 81.9203 142.203 87.1703 142.473C90.8103 142.653 96.0303 140.213 97.0403 140.463" fill="#7884FF"/>
<path d="M68.0803 135.683C66.9303 137.213 61.0403 137.783 61.0403 137.783C61.0403 137.783 59.6803 136.943 61.0703 134.563C61.0703 134.563 61.2103 134.443 61.4503 134.273C62.4403 133.573 65.2203 132.003 67.6803 134.153C68.3503 134.743 68.4103 135.253 68.0803 135.673" fill="#293CFF"/>
<path d="M68.0803 135.683C66.3203 136.903 61.4803 137.373 61.4803 137.373C61.4803 137.373 60.1603 136.563 61.4403 134.273C61.8003 134.013 62.4003 133.633 63.1503 133.383C64.4303 132.923 66.1203 132.793 67.6803 134.163C68.2403 134.643 68.3803 135.083 68.2203 135.463C68.1803 135.543 68.1403 135.623 68.0803 135.683Z" fill="#4F5FFF"/>
<path d="M65.8603 133.193C66.4603 133.343 67.0803 133.643 67.6703 134.163C68.1703 134.593 68.3303 134.993 68.2503 135.343C68.2503 135.383 68.2303 135.423 68.2103 135.463C67.1503 135.563 64.6903 135.743 63.2103 135.373C63.0703 135.343 62.9503 135.303 62.8303 135.253C62.4403 134.963 62.3503 134.523 62.7303 133.913C62.8603 133.713 62.9903 133.533 63.1403 133.383C63.9303 133.103 64.8803 132.943 65.8603 133.183" fill="#7B87FF"/>
<path d="M67.8603 141.343C66.9303 142.723 61.6503 142.923 60.5203 142.773C59.3403 142.633 58.6503 139.893 60.1003 139.003C60.2203 138.913 60.3603 138.853 60.5103 138.803C63.9603 137.773 67.5803 138.793 67.9803 140.733C68.0303 140.953 67.9803 141.163 67.8603 141.333" fill="#293CFF"/>
<path d="M67.8603 141.343C66.2603 142.343 62.0003 142.473 60.9903 142.343C59.9703 142.223 59.3103 140.133 60.1003 139.003C60.2203 138.913 60.3603 138.853 60.5103 138.803C61.1703 138.603 61.8303 138.493 62.4703 138.433C65.1503 138.203 67.5403 139.113 67.9603 140.613L67.9903 140.733C68.0403 140.953 67.9903 141.163 67.8703 141.333" fill="#4F5FFF"/>
<path d="M65.2903 138.633C66.6703 138.973 67.6903 139.683 67.9503 140.613C67.9003 140.643 67.8403 140.673 67.7803 140.683C67.0603 140.853 64.2303 141.053 62.5103 140.623C62.2603 140.563 62.0303 140.483 61.8303 140.393C61.7003 140.263 61.6303 140.073 61.6303 139.883C61.6303 139.323 61.9303 138.823 62.4603 138.433C63.4703 138.343 64.4503 138.423 65.2903 138.633Z" fill="#7B87FF"/>
<path d="M67.2603 146.453C66.5603 147.233 65.2803 147.693 63.3603 147.553C61.6303 147.423 61.6003 144.693 62.6003 144.253L62.6403 144.233C63.6703 143.863 67.8503 143.073 67.8703 144.763C67.8803 145.393 67.6703 145.983 67.2503 146.443" fill="#293CFF"/>
<path d="M67.2603 146.453C66.5203 147.003 65.3603 147.303 63.7603 147.193C62.3103 147.093 62.0503 145.133 62.6003 144.263L62.6403 144.243C62.9203 144.143 63.4103 144.013 64.0103 143.913C65.6203 143.623 67.8603 143.523 67.8803 144.773C67.8803 144.983 67.8603 145.193 67.8003 145.383C67.7303 145.783 67.5403 146.153 67.2603 146.453Z" fill="#4F5FFF"/>
<path d="M66.9403 143.833C67.5003 143.973 67.8803 144.253 67.8803 144.763C67.8803 144.943 67.8703 145.123 67.8303 145.293C67.8303 145.323 67.8203 145.353 67.8103 145.373C66.6903 145.923 65.7203 146.043 64.9503 145.873C64.4403 145.653 64.0403 145.283 63.7803 144.813C63.6003 144.463 63.7103 144.163 64.0103 143.903C64.9603 143.733 66.1303 143.623 66.9303 143.823" fill="#7B87FF"/>
</svg>
