<svg width="221" height="228" viewBox="0 0 221 228" fill="none" xmlns="http://www.w3.org/2000/svg">
<mask id="mask0_6007_53472" style="mask-type:luminance" maskUnits="userSpaceOnUse" x="0" y="0" width="221" height="228">
<path d="M5.81609 180.06C14.2262 194.922 25.0275 203.229 42.0642 204.27C52.9788 204.93 66.0888 209.052 78.2505 221.606C81.5898 225.048 105.192 228.738 124.97 227.872C151.324 226.718 170.968 222.688 177.173 218.205C197.456 203.528 214.142 213.69 217.348 204.25C222.264 189.789 220.893 21.7928 217.348 13.2487C213.802 4.70456 83.5377 -10.5697 65.8929 11.0843C24.5946 61.7822 42.9609 35.5417 22.1004 64.9566C1.23999 94.3715 -2.32608 128.62 1.17815 163.023L2.27064 173.804L5.81609 180.06Z" fill="white"/>
</mask>
<g mask="url(#mask0_6007_53472)">
<path d="M105.058 184.316C103.501 187.274 100.76 190.757 99.1624 192.808L99.1212 192.829C81.9814 193.643 79.1265 198.621 74.4473 201.033C65.089 205.856 59.6574 205.98 55.8543 204.032C54.6175 203.403 53.5456 202.569 52.5768 201.6C49.8044 198.827 47.7946 195.055 44.7129 192.324C42.6825 190.52 40.6831 190.273 38.7764 189.912C36.7666 189.49 34.829 188.964 33.0459 186.305C32.8398 186.037 32.644 185.697 32.4585 185.357C32.0153 184.584 31.7473 183.821 31.603 183.11C30.8506 179.338 33.283 175.936 31.9844 170.567C30.9537 166.351 26.6971 162.723 26.5734 159.786C26.5734 159.601 26.594 159.425 26.6147 159.24C26.8002 158.065 27.1815 157.096 27.6865 156.282C29.3253 153.551 32.2626 152.468 33.5613 150.613C37.3541 145.244 32.5718 139.142 33.4994 137.73L33.5613 137.71C33.7056 137.751 34.8599 136.998 36.2719 136.761C51.4843 134.267 66.0269 140.41 75.3337 143.79C76.7354 144.295 78.0855 144.883 79.3635 145.573C95.1428 153.695 103.089 172.741 106.181 179.997C106.583 180.945 106.057 182.512 105.068 184.295L105.058 184.316Z" fill="#828DFF"/>
<path d="M105.058 184.316C103.563 184.017 102.1 184.254 100.502 184.584C97.9668 185.13 95.4005 185.676 92.8857 186.285C87.8664 187.521 82.9811 189.139 78.3638 191.428C70.6236 195.272 63.5945 200.26 55.8543 204.032C54.6175 203.404 53.5456 202.569 52.5768 201.6C56.3696 199.92 60.0697 197.972 63.677 195.808C68.0779 193.19 72.4272 190.459 77.0446 188.191C81.7237 185.862 86.6709 184.244 91.7726 182.986C94.6688 182.275 97.5649 181.626 100.482 181.018C101.234 180.874 101.997 180.771 102.728 180.698C101.821 180.152 100.801 179.75 99.7499 179.482C96.7507 178.689 93.5556 178.328 90.474 178.06C84.0324 177.452 77.529 177.637 71.108 178.307C58.163 179.627 45.5787 182.945 33.0459 186.305C32.8398 186.037 32.644 185.697 32.4585 185.357C32.0153 184.584 31.7473 183.821 31.603 183.11C51.0721 177.885 70.6442 172.721 91.0202 174.597C94.7306 174.937 99.585 175.329 103.378 177.07C102.471 175.957 101.368 174.989 100.234 174.133C97.7195 172.247 94.8852 170.691 92.0097 169.351C86.0937 166.599 79.7758 164.837 73.3754 163.579C59.2555 160.786 44.6923 159.673 30.325 159.714C29.0676 159.714 27.8308 159.735 26.5734 159.776C26.5734 159.591 26.594 159.415 26.6147 159.23C26.8002 158.055 27.1815 157.086 27.6865 156.272C35.5504 156.169 43.4452 156.437 51.2885 157.086C58.6268 157.694 65.9547 158.601 73.1899 159.982C79.9407 161.26 86.6606 163.064 92.9373 165.919C94.5348 166.63 96.1014 167.434 97.6577 168.31C96.9877 167.176 96.2766 166.084 95.4521 165.032C93.5247 162.6 91.3604 160.333 89.2578 158.045C86.8873 155.489 84.4756 152.438 81.5794 150.222C80.0644 149.315 78.5184 148.48 76.9415 147.687C76.7354 147.583 76.5602 147.46 76.3953 147.305C72.9116 145.862 69.2837 144.729 65.6764 143.574C61.6878 142.276 57.6373 141.08 53.5663 139.988C52.7108 139.761 51.8451 139.544 50.9896 139.318C45.1973 138.328 39.3638 137.741 33.4891 137.72L33.551 137.699C33.6952 137.741 34.8496 136.988 36.2616 136.751C51.474 134.257 66.0166 140.4 75.3234 143.78C93.7824 150.469 102.832 172.144 106.161 179.998C106.563 180.946 106.037 182.512 105.047 184.295L105.058 184.316Z" fill="#4555FF"/>
<g style="mix-blend-mode:multiply" opacity="0.32">
<path d="M105.058 184.316C103.501 187.274 100.76 190.758 99.1624 192.809L99.1212 192.829C81.9814 193.644 79.1265 198.622 74.4474 201.033C65.089 205.857 59.6575 205.981 55.8543 204.033C54.6176 203.404 53.5457 202.569 52.5769 201.6C49.8044 198.828 47.7946 195.056 44.713 192.324C42.6826 190.521 40.6831 190.273 38.7764 189.913C44.5687 186.656 52.8551 180.091 59.6059 173.567C70.6442 162.889 79.075 146.079 79.3533 145.574C95.1326 153.696 103.079 172.742 106.171 179.998C106.573 180.946 106.047 182.513 105.058 184.296V184.316Z" fill="#4E6587"/>
</g>
<path d="M140.162 136.607C140.162 136.607 150.077 147.254 149.974 154.623C149.881 161.992 126.856 146.667 126.856 146.667L140.152 136.607H140.162Z" fill="#E80083"/>
<path d="M156.261 118.097C156.261 118.097 169.67 130.877 170.113 140.256C170.546 149.635 140.121 131.897 140.121 131.897L156.261 118.097Z" fill="#E80083"/>
<path d="M214.029 183.121C213.884 183.832 213.606 184.584 213.173 185.368C212.988 185.708 212.792 186.037 212.586 186.316C210.803 188.985 208.875 189.5 206.855 189.923C204.949 190.284 202.949 190.531 200.919 192.335C197.837 195.066 195.817 198.838 193.055 201.611C192.086 202.579 191.025 203.414 189.777 204.043C185.985 205.991 180.543 205.867 171.184 201.044C168.835 199.828 166.948 197.983 163.485 196.323C160.043 194.685 155.034 193.242 146.511 192.84L146.469 192.819C144.872 190.758 142.13 187.285 140.574 184.327C139.585 182.544 139.059 180.967 139.461 180.029C142.543 172.773 150.499 153.716 166.279 145.605C167.557 144.914 168.896 144.327 170.308 143.822C179.626 140.441 194.168 134.299 209.37 136.793C210.772 137.02 211.926 137.782 212.081 137.741L212.143 137.762C213.07 139.163 208.278 145.275 212.081 150.645C213.379 152.49 216.317 153.582 217.956 156.313C218.461 157.128 218.832 158.096 219.027 159.271C219.048 159.457 219.069 159.632 219.069 159.818C218.945 162.755 214.688 166.383 213.658 170.598C212.359 175.968 214.791 179.369 214.039 183.141L214.029 183.121Z" fill="#828DFF"/>
<path d="M140.574 184.316C142.069 184.017 143.532 184.254 145.13 184.584C147.665 185.13 150.231 185.676 152.746 186.285C157.765 187.521 162.651 189.139 167.268 191.428C175.008 195.272 182.037 200.26 189.778 204.032C191.014 203.404 192.086 202.569 193.055 201.6C189.262 199.92 185.562 197.972 181.955 195.808C177.554 193.19 173.205 190.459 168.587 188.191C163.908 185.862 158.961 184.244 153.859 182.986C150.963 182.275 148.067 181.626 145.15 181.018C144.398 180.874 143.635 180.771 142.903 180.698C143.81 180.152 144.831 179.75 145.882 179.482C148.881 178.689 152.076 178.328 155.158 178.06C161.599 177.452 168.103 177.637 174.524 178.307C187.469 179.627 200.053 182.945 212.586 186.305C212.792 186.037 212.988 185.697 213.173 185.357C213.617 184.584 213.885 183.821 214.029 183.11C194.56 177.885 174.988 172.721 154.612 174.597C150.901 174.937 146.047 175.329 142.254 177.07C143.161 175.957 144.264 174.989 145.398 174.133C147.912 172.247 150.747 170.691 153.622 169.351C159.538 166.599 165.856 164.837 172.256 163.579C186.376 160.786 200.94 159.673 215.307 159.714C216.564 159.714 217.801 159.735 219.058 159.776C219.058 159.591 219.038 159.415 219.017 159.23C218.832 158.055 218.45 157.086 217.945 156.272C210.081 156.169 202.187 156.437 194.343 157.086C187.005 157.694 179.677 158.601 172.442 159.982C165.691 161.26 158.971 163.064 152.695 165.919C151.097 166.63 149.53 167.434 147.974 168.31C148.644 167.176 149.355 166.084 150.18 165.032C152.107 162.6 154.271 160.333 156.374 158.045C158.745 155.489 161.156 152.438 164.052 150.222C165.567 149.315 167.113 148.48 168.69 147.687C168.896 147.583 169.072 147.46 169.237 147.305C172.72 145.862 176.348 144.729 179.955 143.574C183.944 142.276 187.994 141.08 192.066 139.988C192.921 139.761 193.787 139.544 194.642 139.318C200.434 138.328 206.268 137.741 212.143 137.72L212.081 137.699C211.937 137.741 210.782 136.988 209.37 136.751C194.158 134.257 179.615 140.4 170.308 143.78C151.849 150.469 142.8 172.144 139.471 179.998C139.069 180.946 139.595 182.512 140.584 184.295L140.574 184.316Z" fill="#4555FF"/>
<g style="mix-blend-mode:multiply" opacity="0.32">
<path d="M162.032 187.965C164.568 191.387 167.227 196.313 163.486 196.313C160.043 194.674 155.034 193.232 146.511 192.83L146.469 192.809C144.872 190.748 142.13 187.274 140.574 184.316C139.585 182.533 139.059 180.956 139.461 180.019C142.543 172.763 150.499 153.706 166.279 145.595C166.547 146.1 148.809 170.124 162.032 187.975V187.965Z" fill="#4E6587"/>
</g>
<path d="M187.036 336.214C181.46 348.067 173.617 356.848 164.557 363.042C164.557 363.042 164.557 363.053 164.547 363.073C150.86 372.473 134.4 375.956 118.724 375.152C107.098 374.555 95.6478 371.452 85.4959 366.351C70.1082 358.631 57.7198 346.304 52.2264 331.04C36.5707 287.392 78.4462 223.049 92.2158 195.479C99.6365 180.637 101.966 167.713 102.512 158.952C102.976 151.459 102.151 147.017 102.151 147.017L108.479 146.615L135.617 144.894L138.41 144.708C138.41 144.708 138.626 149.037 139.646 155.747C139.914 157.468 140.234 159.354 140.626 161.354C142.532 171.31 146.016 184.327 152.344 196.324C164.897 220.142 210.05 287.454 187.036 336.194V336.214Z" fill="#6B78FF"/>
<path d="M164.557 363.042C164.557 363.042 164.557 363.053 164.547 363.073C150.87 372.463 134.4 375.957 118.724 375.153C107.098 374.545 95.6479 371.463 85.4959 366.361C85.4959 366.361 62.1516 331.968 63.8522 293.906C65.5425 255.823 90.7317 214.7 99.0181 199.158C106.995 184.162 108.294 156.314 108.49 146.636C108.552 144.461 108.541 143.194 108.541 143.194C108.541 143.194 135.854 130.156 135.627 144.904C135.204 171.815 138.121 184.853 143.017 196.777C154.127 223.749 176.183 264.605 179.492 293.844C182.748 322.744 165.011 362.084 164.578 363.042H164.557Z" fill="#B3B9FF"/>
<mask id="mask1_6007_53472" style="mask-type:luminance" maskUnits="userSpaceOnUse" x="63" y="137" width="117" height="239">
<path d="M164.557 363.042C164.557 363.042 164.557 363.053 164.547 363.073C150.87 372.463 134.4 375.957 118.724 375.153C107.098 374.545 95.6479 371.463 85.4959 366.361C85.4959 366.361 62.1516 331.968 63.8522 293.906C65.5425 255.823 90.7317 214.7 99.0181 199.158C106.995 184.162 108.294 156.314 108.49 146.636C108.552 144.461 108.541 143.194 108.541 143.194C108.541 143.194 135.854 130.156 135.627 144.904C135.204 171.815 138.121 184.853 143.017 196.777C154.127 223.749 176.183 264.605 179.492 293.844C182.748 322.744 165.011 362.084 164.578 363.042H164.557Z" fill="white"/>
</mask>
<g mask="url(#mask1_6007_53472)">
<path d="M141.09 160.086C140.574 162.796 135.74 162.137 133.679 162.209C130.505 162.322 127.32 162.374 124.146 162.26C117.859 162.023 111.551 161.034 105.882 158.189C103.378 156.932 101.11 160.663 103.625 161.931C110.582 165.425 118.271 166.548 125.99 166.682C129.773 166.744 133.576 166.651 137.348 166.435C140.698 166.249 144.573 165.115 145.295 161.312C145.81 158.571 141.615 157.324 141.1 160.086H141.09Z" fill="#8792FF"/>
<path d="M143.068 176.153C140.275 177.669 137.462 179.235 134.411 180.183C131.051 181.224 127.65 181.266 124.197 180.678C117.415 179.534 110.685 177.401 104.202 175.154C101.543 174.236 100.327 178.431 102.976 179.348C110.057 181.791 117.446 184.162 124.888 185.161C132.422 186.182 138.74 183.471 145.222 179.957C147.696 178.617 145.542 174.803 143.068 176.153Z" fill="#8792FF"/>
<path d="M142.831 192.242C137.637 197.22 130.278 198.457 123.342 197.911C115.261 197.272 107.243 194.726 99.4924 192.479C96.792 191.696 95.5656 195.891 98.2659 196.674C113.076 200.962 132.999 207.723 145.882 195.376C147.913 193.428 144.872 190.294 142.842 192.242H142.831Z" fill="#8792FF"/>
<path d="M155.818 211.33C145.408 215.288 134.359 217.256 123.228 217.03C117.725 216.916 112.231 216.288 106.851 215.102C101.956 214.02 96.9466 212.495 93.1434 209.073C91.0615 207.197 87.9077 210.238 90.0103 212.114C94.0195 215.71 98.977 217.689 104.161 218.947C109.943 220.359 115.911 221.142 121.857 221.358C133.782 221.781 145.779 219.792 156.931 215.556C159.528 214.566 158.466 210.32 155.828 211.33H155.818Z" fill="#8792FF"/>
<path d="M172.926 219.647C162.888 227.439 150.355 231.17 137.864 232.561C131.443 233.283 124.97 233.437 118.508 233.283C112.272 233.138 105.924 232.912 99.7706 231.85C93.1229 230.706 86.5576 228.501 81.7754 223.533C79.8274 221.502 76.6839 224.553 78.6422 226.573C87.9799 236.272 102.595 237.045 115.22 237.539C128.814 238.075 142.831 237.436 155.869 233.252C163.146 230.912 169.917 227.46 175.957 222.77C178.172 221.049 175.111 217.926 172.916 219.637L172.926 219.647Z" fill="#8792FF"/>
</g>
<g style="mix-blend-mode:multiply" opacity="0.48">
<path d="M139.647 155.757C125.073 153.366 103.151 157.757 144.326 180.957C150.623 184.512 118.549 181.08 102.512 158.962C102.976 151.47 102.151 147.027 102.151 147.027L108.48 146.625L135.617 144.904L138.41 144.719C138.41 144.719 138.626 149.048 139.647 155.757Z" fill="#6988B5"/>
</g>
<path d="M21.2243 159.333C19.297 156.499 21.75 146.151 21.75 146.151C21.75 146.151 23.9659 144.337 27.2124 148.068C27.2124 148.068 27.3361 148.367 27.4804 148.882C28.0988 150.975 29.1398 156.602 24.0586 159.539C22.6672 160.343 21.7706 160.147 21.2346 159.343L21.2243 159.333Z" fill="#7B87FF"/>
<path d="M21.2244 159.333C20.1834 155.633 22.1829 147.141 22.1829 147.141C22.1829 147.141 24.3266 145.378 27.4701 148.872C27.6969 149.635 27.9855 150.882 27.9958 152.294C28.037 154.726 27.264 157.674 24.0484 159.529C22.9043 160.189 22.0798 160.178 21.5233 159.694C21.4099 159.591 21.2965 159.467 21.2244 159.333Z" fill="#4F5FFF"/>
<path opacity="0.45" d="M27.9957 152.294C28.037 154.726 27.264 157.674 24.0483 159.529C23.9556 159.58 23.8628 159.632 23.7804 159.673C23.2547 158.746 22.7394 157.849 22.2447 156.983C22.894 154.757 23.8628 152.057 25.0068 150.655C25.7283 150.16 26.5219 150.263 27.3361 151.273C27.5938 151.603 27.8308 151.943 27.9957 152.283V152.294Z" fill="#FF0090"/>
<path d="M97.4722 185.13C97.4207 185.986 97.3176 187.058 97.3691 187.563C97.5959 189.407 97.1218 191.541 96.287 193.499H96.2767C94.8956 196.766 92.4735 199.559 90.4844 199.786C88.4643 200.023 80.8375 199.869 72.0254 199.199C71.2421 199.147 70.4382 199.075 69.6445 199.003C69.3766 198.982 69.1189 198.962 68.851 198.931C68.047 198.859 67.2328 198.786 66.4289 198.704C66.027 198.673 65.625 198.622 65.2127 198.591C64.8211 198.549 64.4294 198.498 64.0378 198.467C63.7698 198.436 63.5019 198.395 63.2339 198.374C62.9453 198.343 62.6567 198.302 62.3681 198.271C60.379 198.044 58.4207 197.787 56.5037 197.508C56.1842 197.467 55.875 197.405 55.5761 197.364C52.917 196.952 50.4022 196.478 48.1554 195.952C47.5164 195.798 46.8877 195.633 46.2899 195.478C45.1047 195.148 44.0122 194.818 43.0434 194.447C37.045 192.139 28.2741 188.779 20.6679 184.914C20.0392 184.584 19.4105 184.264 18.7921 183.935C18.4932 183.77 18.1737 183.595 17.8748 183.44C16.6689 182.78 15.5146 182.1 14.4221 181.42C14.1541 181.255 13.8862 181.069 13.6182 180.905C10.5571 178.926 8.08357 176.895 6.58912 174.824C6.54789 174.782 6.53759 174.721 6.48606 174.679C6.249 174.329 6.03257 174.009 5.86766 173.659C5.81613 173.546 5.75429 173.432 5.71306 173.319C5.57908 173.061 5.46571 172.793 5.38325 172.536C5.31111 172.34 5.26988 172.154 5.22866 171.979C4.99161 170.99 4.85762 170.041 4.79578 169.134V169.083C4.77517 169.001 4.77517 168.939 4.77517 168.846V168.743C4.73394 168.124 4.73394 167.527 4.78548 166.96C4.78548 166.908 4.79578 166.846 4.79578 166.795C4.79578 166.671 4.79578 166.548 4.80609 166.414C4.80609 166.331 4.81639 166.249 4.8267 166.166C4.83701 165.96 4.86793 165.764 4.89885 165.568C4.92977 165.434 4.95038 165.3 4.9813 165.177C5.23896 163.724 5.73368 162.446 6.37268 161.302C6.45514 161.157 6.52728 161.023 6.62004 160.879C6.63035 160.869 6.63035 160.858 6.64065 160.848C6.73341 160.673 6.8674 160.477 7.00138 160.322C7.00138 160.302 7.022 160.302 7.022 160.302C7.28997 159.9 7.56824 159.508 7.89805 159.168C7.92897 159.137 7.94958 159.096 7.99081 159.065C8.03204 159.024 8.07326 158.962 8.11449 158.921C8.1351 158.9 8.15572 158.869 8.18663 158.838C8.26909 158.756 8.33093 158.684 8.43399 158.612L8.46491 158.581C8.74319 158.251 9.09361 157.952 9.44403 157.674C10.0521 157.169 10.6911 156.746 11.3404 156.385C11.5981 156.241 11.8661 156.107 12.1237 155.983C12.6391 155.746 13.1647 155.55 13.6697 155.396C14.0717 155.262 14.4633 155.179 14.8447 155.118H14.8756C15.3806 155.035 15.8444 154.994 16.2876 155.015C16.772 155.035 17.411 155.169 18.1531 155.406H18.1634C18.9157 155.643 19.7815 155.963 20.7297 156.365H20.74C20.9564 156.447 21.142 156.519 21.3584 156.633H21.3687C22.018 156.921 22.6776 157.22 23.3888 157.55C24.3061 157.983 25.2749 158.467 26.2849 158.972C26.2952 158.972 26.2952 158.983 26.3055 158.983C27.9134 159.807 29.6242 160.673 31.3042 161.58C37.0037 164.6 42.559 167.692 44.8264 168.392C44.8264 168.392 86.5164 180.441 94.0092 183.193C94.0814 183.213 94.1741 183.234 94.3493 183.275C94.4009 183.275 94.473 183.285 94.5452 183.296C94.7719 183.327 95.0193 183.337 95.2975 183.368C95.514 183.388 95.7304 183.388 95.9468 183.409C96.0705 183.419 96.1942 183.44 96.3282 183.44C96.5343 183.461 96.7404 183.481 96.8847 183.533C97.1218 183.584 97.3073 183.656 97.4104 183.759C97.5341 183.873 97.5134 184.429 97.4619 185.13H97.4722Z" fill="#6B78FF"/>
<path opacity="0.35" d="M96.2972 193.5C94.9264 197.395 93.6793 199.446 90.4946 199.807C86.0525 200.302 54.8443 198.983 43.0433 194.458C35.0557 191.376 22.121 186.44 13.6078 180.926C17.2666 182.07 61.5744 204.497 96.2868 193.5H96.2972Z" fill="#293CFF"/>
<path opacity="0.35" d="M97.4825 185.13C94.9883 183.203 60.2038 172.794 51.536 171.217C43.9606 169.836 35.8185 165.321 31.3145 161.59C37.0243 164.61 42.5796 167.692 44.847 168.413C44.847 168.413 86.537 180.451 94.0298 183.203C94.0917 183.224 94.1947 183.244 94.37 183.286C94.5967 183.306 94.9574 183.327 95.3182 183.368C95.5243 183.389 95.7613 183.389 95.9675 183.409C96.0911 183.43 96.2148 183.451 96.3488 183.451C96.5549 183.471 96.7714 183.492 96.9157 183.533C97.1424 183.595 97.3382 183.657 97.4413 183.76C97.565 183.863 97.5444 184.43 97.5031 185.12L97.4825 185.13Z" fill="#293CFF"/>
<path opacity="0.45" d="M12.536 172.721C11.0209 171.804 13.1544 160.797 17.9881 160.673C21.8943 160.57 24.2751 166.909 22.7085 170.104C20.8946 173.804 16.7616 175.288 12.536 172.721Z" fill="#FF0090"/>
<path d="M4.23928 163.146C4.92982 166.217 10.5469 168.979 11.794 169.216C13.0926 169.474 14.4325 164.548 13.0823 162.177V162.156C12.9689 161.94 12.8349 161.765 12.6803 161.6C9.20704 158.075 5.10503 158.374 4.23928 161.919C4.13622 162.321 4.14652 162.744 4.23928 163.136" fill="#293CFF"/>
<path d="M4.23933 163.146C5.73378 165.785 10.279 167.97 11.3921 168.186C12.5155 168.413 13.6801 164.702 13.0823 162.188V162.167C12.969 161.951 12.835 161.775 12.6804 161.61C12.0208 160.941 11.3405 160.415 10.6603 160.023C7.83631 158.374 5.07416 159.034 4.29086 161.724L4.23933 161.94C4.13626 162.342 4.14657 162.765 4.23933 163.156" fill="#4F5FFF"/>
<path d="M7.589 159.127C6.03271 159.158 4.78562 160.054 4.30121 161.724C4.34243 161.806 4.40427 161.889 4.46611 161.93C5.19788 162.579 8.18677 164.249 10.1244 164.198C10.413 164.198 10.6707 164.146 10.9077 164.053C11.0726 163.857 11.1963 163.538 11.2375 163.177C11.3612 162.116 11.1448 161.013 10.6603 160.023C9.58847 159.395 8.5372 159.106 7.589 159.127Z" fill="#7B87FF"/>
<path d="M7.98059 156.024C8.39285 158.704 13.7316 161.6 14.9478 161.92C16.2155 162.27 17.9985 158.209 16.8648 156.065C16.7824 155.859 16.6587 155.694 16.5144 155.54C13.3812 152.2 9.2586 152.056 8.09396 154.983C7.95998 155.313 7.92906 155.674 7.98059 156.014" fill="#293CFF"/>
<path d="M7.9806 156.024C9.2277 158.405 13.5564 160.714 14.6386 161.002C15.7414 161.301 17.2256 158.271 16.8648 156.076C16.7824 155.87 16.6587 155.705 16.5144 155.55C15.9166 154.911 15.2879 154.406 14.6489 154.004C11.9898 152.324 9.17616 152.613 8.16612 154.818L8.09398 154.994C7.95999 155.323 7.92907 155.684 7.9806 156.024Z" fill="#4F5FFF"/>
<path d="M11.6806 152.932C10.1347 152.808 8.80511 153.437 8.17641 154.818C8.20733 154.901 8.25886 154.962 8.3207 155.014C8.99063 155.632 11.8146 157.343 13.7523 157.498C14.0408 157.518 14.3088 157.508 14.5459 157.457C14.7314 157.302 14.8757 157.044 14.9478 156.745C15.1642 155.849 15.0509 154.901 14.6592 154.004C13.6492 153.365 12.6288 153.014 11.6806 152.942" fill="#7B87FF"/>
<path d="M3.08484 171.134C3.82691 172.7 5.48627 173.958 8.2175 174.452C10.6911 174.906 11.5671 170.35 10.3097 169.247L10.2582 169.196C8.91834 168.186 3.30128 165.269 2.74473 168.083C2.52829 169.134 2.64166 170.185 3.08484 171.123" fill="#293CFF"/>
<path d="M3.08504 171.133C3.96109 172.339 5.49677 173.277 7.76421 173.689C9.83582 174.071 10.8046 170.906 10.2996 169.247L10.2481 169.196C9.88736 168.928 9.22774 168.526 8.43413 168.134C6.26976 167.031 3.14688 166.021 2.74492 168.082C2.67278 168.433 2.64186 168.783 2.66247 169.134C2.64186 169.835 2.78615 170.515 3.08504 171.123" fill="#4F5FFF"/>
<path d="M4.3526 166.908C3.52808 166.928 2.90969 167.258 2.74478 168.103C2.68294 168.402 2.65202 168.701 2.65202 169C2.65202 169.051 2.65202 169.093 2.65202 169.144C4.05371 170.484 5.38326 171.061 6.51698 171.072C7.30027 170.907 7.98051 170.433 8.48553 169.752C8.85656 169.247 8.78442 168.691 8.43399 168.155C7.15598 167.506 5.53785 166.887 4.3526 166.918" fill="#7B87FF"/>
<path d="M163.073 63.9565C163.073 63.9565 180.048 58.3703 188.221 62.2662C196.394 66.1621 167.464 83.9718 167.464 83.9718L163.073 63.9565Z" fill="#FF0090"/>
<path d="M159.085 102.905C159.085 102.905 176.585 106.522 181.728 113.974C186.871 121.426 152.911 122.446 152.911 122.446L159.085 102.915V102.905Z" fill="#E80083"/>
<path d="M125.691 43.4982C122.125 46.3531 129.763 35.5415 126.104 27.0798C115.344 2.22046 102.007 5.74529 105.573 2.89038C109.139 0.0251615 122.29 0.0870013 139.245 21.2051C156.199 42.3232 129.258 40.6329 125.691 43.4878V43.4982Z" fill="#FF0090"/>
<path d="M133.36 46.621C128.794 46.8065 141.357 42.6324 143.429 33.6451C149.51 7.25001 136.689 2.17919 141.244 1.99368C145.81 1.80816 156.364 9.65144 157.487 36.7164C158.6 63.7711 137.925 46.4355 133.36 46.621Z" fill="#FF0090"/>
<path d="M138.863 51.4551C134.627 49.7339 147.799 51.1356 153.406 43.8282C169.876 22.3288 160.311 12.4036 164.537 14.1145C168.773 15.8357 175.122 27.3584 164.918 52.4445C154.715 77.5306 143.089 53.1763 138.853 51.4551H138.863Z" fill="#FF0090"/>
<path d="M144.418 55.3091C141.038 52.2377 151.777 55.8141 158.796 51.7224C179.43 39.6947 175.843 32.7068 179.224 35.7782C182.604 38.8495 183.676 48.5892 167.773 66.0691C151.87 83.549 147.789 58.3908 144.418 55.3194V55.3091Z" fill="#FF0090"/>
<path d="M107.676 49.9397C103.409 51.5682 114.313 44.4464 114.2 37.3245C113.86 16.3919 100.585 16.9691 104.852 15.3304C109.119 13.7019 120.899 15.8663 128.186 34.9128C135.472 53.9593 111.953 48.301 107.686 49.9294L107.676 49.9397Z" fill="#FF0090"/>
<path d="M220.223 82.117C220.192 82.2613 219.842 81.3234 218.997 80.9833C214.905 79.3858 202.527 76.3762 196.786 75.9949C185.387 75.2116 175.225 84.2607 171.576 87.6928C170.401 88.7956 171.679 93.8768 172.236 96.2679C172.019 96.0927 171.793 95.9277 171.576 95.7422C171.391 95.6082 171.205 95.4537 171.02 95.3094C168 92.8049 168.206 89.8778 169.34 86.59C170.35 83.6733 170.195 72.367 170.185 71.7074C170.37 71.9238 174.513 77.1183 179.77 74.7066C187.252 71.3054 192.581 70.316 198.363 71.0168C207.711 72.1506 215.028 77.3966 218.997 80.303L219.151 80.4164C219.728 80.839 220.079 81.4574 220.213 82.1273L220.223 82.117Z" fill="#6B78FF"/>
<path d="M34.293 80.7769C34.3549 106.986 51.9275 130.681 79.9407 143.132C116.642 159.447 158.167 146.151 172.71 113.449C180.914 94.9794 169.886 65.2347 162.269 55.866C154.653 46.5077 150.53 41.3956 141.842 36.9123C136.977 34.3975 124.011 29.6771 112.19 34.583C107.14 36.6752 107.933 34.0368 100.193 27.1417C88.3611 16.6084 65.1096 21.37 58.1424 36.5413C54.8752 43.6425 52.4841 51.527 51.9997 58.3808V58.4117C51.1442 61.277 50.196 63.8845 48.9283 65.9664C44.5171 73.2016 34.2827 72.6451 34.293 80.7563V80.7769Z" fill="#6B78FF"/>
<path d="M135.204 41.7257C139.863 42.6739 144.068 45.1681 147.047 48.9815C149.716 52.4033 152.447 57.9482 151.386 61.9987C151.138 62.9159 149.695 62.112 149.366 60.4939C148.809 57.7111 146.191 52.9289 142.831 51.5169C139.77 50.2183 136.225 49.1464 133.04 48.4662C126.258 47.0026 131.721 41.0249 135.194 41.736L135.204 41.7257Z" fill="#1C30FF"/>
<path d="M88.9796 28.2548C85.0218 26.0389 80.4767 25.2968 76.0345 26.3687C72.0562 27.3272 66.7689 29.8832 65.1405 33.6967C64.7695 34.5624 66.3052 34.8613 67.511 33.81C69.5723 32.0064 74.3236 29.976 77.6011 30.9964C80.6003 31.9343 83.816 33.3462 86.5472 34.8304C92.3601 37.9945 91.9272 29.9142 88.9796 28.2548Z" fill="#1C30FF"/>
<path d="M218.11 97.1337C215.771 98.1643 212.277 99.5557 208.35 100.689C208.803 101.833 209.185 102.874 209.494 103.75C210.02 105.204 208.979 106.492 207.577 106.976C204.866 107.914 199.62 109.955 195.858 106.832C189.561 101.607 194.343 107.543 193.55 109.666C192.54 112.398 185.799 111.192 183.357 106.533C181.924 103.812 181.13 100.772 172.215 96.2576C171.659 93.8768 170.391 88.7854 171.556 87.6826C175.204 84.2402 185.366 75.2013 196.765 75.9846C202.506 76.3763 214.884 79.3755 218.976 80.973C219.831 81.3131 220.182 82.251 220.202 82.117C220.378 83.0962 220.068 84.1886 219.244 84.9101C218.224 85.8171 216.935 86.889 215.461 88.0433C216.997 89.95 218.285 91.6506 219.213 92.9595C220.233 94.3612 219.666 96.4328 218.1 97.1234L218.11 97.1337Z" fill="#828DFF"/>
<path d="M88.9177 63.3384C86.0421 73.0677 82.1256 77.3346 67.9438 73.1502C53.762 68.9657 52.7829 63.2559 55.6481 53.5265C58.5134 43.7972 69.5517 33.841 78.7348 36.5517C87.9179 39.2623 91.7829 53.6193 88.9074 63.3487L88.9177 63.3384Z" fill="#3647FF"/>
<path d="M88.5879 63.3071C85.8772 72.5005 82.1669 76.5407 68.7581 72.583C55.3493 68.6253 54.4217 63.2247 57.1426 54.0209C59.8532 44.8275 70.2834 35.4073 78.9719 37.9736C87.6603 40.5399 91.3088 54.1034 88.5982 63.3071H88.5879Z" fill="white"/>
<path d="M73.9765 71.5161C79.9459 68.2669 82.1511 60.7937 78.9019 54.8243C75.6526 48.8549 68.1795 46.6498 62.21 49.899C56.2406 53.1482 54.0355 60.6214 57.2847 66.5908C60.5339 72.5602 68.0071 74.7654 73.9765 71.5161Z" fill="#E80083"/>
<path d="M77.9619 63.709C76.3026 69.1612 70.5309 72.2325 65.0788 70.5732C59.6266 68.9138 56.5553 63.1422 58.2146 57.69C59.874 52.2378 65.6456 49.1665 71.0978 50.8258C76.55 52.4852 79.6213 58.2569 77.9619 63.709Z" fill="#00074D"/>
<path d="M64.9652 55.3195C65.6146 55.1649 66.4288 56.2162 66.7792 57.6591C67.1296 59.1123 66.8823 60.411 66.233 60.5759C65.5836 60.7305 64.7694 59.6792 64.419 58.2363C64.0686 56.7831 64.3159 55.4844 64.9652 55.3195Z" fill="white"/>
<path d="M64.1202 51.836C64.7695 51.6814 65.4085 52.0009 65.5425 52.5575C65.6764 53.114 65.2539 53.6912 64.6046 53.8458C63.9553 54.0004 63.3162 53.6809 63.1823 53.1243C63.0483 52.5678 63.4708 51.9906 64.1202 51.836Z" fill="white"/>
<path d="M106.975 68.1C100.945 78.8188 100.564 85.8479 116.189 94.6291C131.814 103.41 137.616 99.4319 143.645 88.7131C149.675 77.9943 148.995 59.9785 138.874 54.2893C128.753 48.6 113.014 57.3812 106.985 68.1H106.975Z" fill="#3647FF"/>
<path d="M107.274 68.3677C101.574 78.5093 101.213 85.1467 115.983 93.4435C130.762 101.751 136.235 97.9887 141.935 87.847C147.634 77.7054 146.995 60.679 137.42 55.299C127.845 49.9189 112.973 58.226 107.274 68.3574V68.3677Z" fill="white"/>
<path d="M133.706 81.1553C133.847 72.9086 127.276 66.1089 119.029 65.9679C110.783 65.8268 103.983 72.3977 103.842 80.6444C103.701 88.8911 110.272 95.6908 118.518 95.8318C126.765 95.9729 133.565 89.402 133.706 81.1553Z" fill="#E80083"/>
<path d="M118.776 93.5052C125.737 93.5052 131.381 87.8618 131.381 80.9003C131.381 73.9388 125.737 68.2954 118.776 68.2954C111.814 68.2954 106.171 73.9388 106.171 80.9003C106.171 87.8618 111.814 93.5052 118.776 93.5052Z" fill="#00074D"/>
<path d="M116.168 73.0263C115.519 72.9439 114.839 74.0364 114.653 75.4793C114.468 76.9222 114.839 78.159 115.488 78.2415C116.137 78.3239 116.817 77.2314 117.003 75.7885C117.189 74.3456 116.817 73.1088 116.168 73.0263Z" fill="white"/>
<path d="M116.622 69.5637C115.972 69.4813 115.385 69.8626 115.313 70.4088C115.241 70.9654 115.704 71.4807 116.354 71.5632C117.003 71.6456 117.59 71.2643 117.663 70.718C117.735 70.1615 117.271 69.6462 116.622 69.5637Z" fill="white"/>
<path d="M29.4283 82.5084C32.0462 68.4812 69.0364 62.5137 89.5258 71.8206C107.573 80.0143 127.949 103.049 136.555 106.852C146.243 111.14 121.579 154.469 87.279 152.789C78.4256 152.356 63.8213 148.501 47.5472 131.331C27.1609 109.831 26.8208 96.5253 29.4386 82.5084H29.4283Z" fill="#6B78FF"/>
<mask id="mask2_6007_53472" style="mask-type:luminance" maskUnits="userSpaceOnUse" x="28" y="67" width="111" height="86">
<path d="M29.4283 82.5086C32.0462 68.4917 69.0364 62.5139 89.5258 71.8207C107.562 80.0144 127.949 103.05 136.555 106.853C146.243 111.14 121.579 154.469 87.279 152.789C78.4256 152.356 63.8213 148.501 47.5472 131.331C27.1609 109.831 26.8208 96.5255 29.4386 82.5086" fill="white"/>
</mask>
<g mask="url(#mask2_6007_53472)">
<path d="M112.819 85.2293C113.324 77.8395 102.924 73.9539 97.6474 71.1403C90.4328 67.2856 82.8884 64.1318 74.973 62.0705C69.9124 60.7513 46.1249 57.3398 39.2608 63.3897C34.9423 63.3176 32.5512 69.8726 37.2716 71.6041C40.1884 72.6759 42.7856 75.7473 44.9191 77.9013C47.3823 80.4058 51.4225 83.5081 54.7 84.6521C61.8321 87.136 67.1812 86.9402 74.6638 87.2494C82.6204 87.5689 90.1545 88.2388 97.8844 90.228C103.254 91.6091 112.262 93.3921 112.829 85.2396L112.819 85.2293Z" fill="#828DFF"/>
<path d="M76.0243 96.5668C76.1067 95.8145 75.6636 93.4233 73.19 92.5576C70.7164 91.6918 69.3766 92.9492 68.2016 94.0417C67.5111 94.6807 69.5724 95.4022 70.5309 95.2991H70.6134C70.7061 95.2991 70.7989 95.3198 70.8813 95.3404C71.1905 95.4537 70.7886 97.0513 70.8504 97.4738C70.9123 97.8861 71.6955 99.3393 73.5816 99.3393C75.8491 99.3393 75.9625 97.0512 76.0243 96.5668Z" fill="#99A2FF"/>
<path d="M49.5777 85.1368C49.4025 83.9619 48.4749 82.9724 47.5473 82.5189C46.6197 82.0655 45.6819 81.7666 44.8161 81.9109C44.2595 82.0036 42.8888 82.0551 42.0024 83.5084C41.5798 84.2092 41.0954 85.2193 41.6932 85.7758C44.579 88.4658 47.8462 87.095 48.2585 86.992C49.0727 86.7962 49.7014 85.9922 49.5777 85.1265V85.1368Z" fill="#99A2FF"/>
<path d="M141.203 105.812C137.874 105.554 134.947 103.349 132.319 101.463C129.495 99.422 126.825 97.1855 124.207 94.8871C119.157 90.4553 114.241 85.8586 108.758 81.9421C98.3585 74.5111 86.4957 69.028 73.9217 66.5235C66.9236 65.1321 59.7296 64.7302 52.6181 65.4001C50.3919 65.6165 50.7732 69.0589 52.9994 68.8528C65.4806 67.6675 78.0443 70.0793 89.5155 75.0161C95.2975 77.5 100.801 80.5919 105.944 84.2095C111.438 88.0745 116.354 92.6094 121.383 97.0412C124.249 99.5663 127.155 102.04 130.268 104.266C133.339 106.472 136.781 108.945 140.677 109.254C142.883 109.43 143.429 105.998 141.193 105.822L141.203 105.812Z" fill="#1C30FF"/>
<path d="M93.2362 146.935C86.2999 147.904 79.8583 144.4 79.5697 144.688C79.2399 145.018 85.8155 149.409 93.6794 148.605C100.265 147.935 105.367 142.524 105.047 142.173C104.78 141.885 99.7396 146.028 93.2362 146.935Z" fill="#1C30FF"/>
<path d="M46.022 71.6969C45.1562 71.6763 45.2902 73.6449 47.8462 76.9739C50.3919 80.3029 53.8652 82.8486 61.4818 83.1166C62.43 83.1475 73.9321 83.4979 73.2415 81.4366C72.8808 80.3647 63.203 78.6332 56.5759 76.3349C50.4847 74.222 48.7635 71.7588 46.0323 71.7072L46.022 71.6969Z" fill="#919BFF"/>
</g>
<path d="M116.55 123.394C115.055 125.497 113.664 127.403 112.324 129.114C105.944 135.937 101.698 140.235 92.6797 141.544C91.9376 141.647 91.1646 141.73 90.371 141.791C80.0026 142.636 71.3039 136.463 65.8724 133.412C64.1099 132.423 64.749 129.795 66.7793 129.63H66.8721C68.3562 129.434 78.3124 129.836 90.268 128.073C92.2468 127.785 94.2978 127.424 96.3591 126.991C102.481 125.734 108.82 123.837 114.612 120.962C114.849 120.848 115.076 120.766 115.303 120.745C115.89 120.684 116.426 120.869 116.828 121.22L116.931 121.312L117.106 121.56C117.467 122.209 117.25 122.436 116.56 123.384L116.55 123.394Z" fill="#00074D"/>
<path d="M95.0604 128.362C95.0501 128.785 94.978 129.723 94.6172 130.506C94.3183 131.135 93.8236 131.877 93.4629 132.361C93.2361 132.67 92.793 132.722 92.4941 132.485C92.0509 132.124 91.4222 131.588 90.9687 131.032C90.4225 130.362 90.1236 129.537 89.9896 129.084C91.6386 128.898 93.3392 128.651 95.0604 128.352V128.362Z" fill="white"/>
<path d="M84.3726 129.496C84.2798 129.908 84.0428 130.815 83.5481 131.527C83.1461 132.093 82.5174 132.732 82.0742 133.145C81.796 133.413 81.3528 133.382 81.1054 133.093C80.7344 132.66 80.219 132.021 79.8583 131.382C79.4358 130.63 79.2915 129.764 79.2502 129.3C80.9096 129.414 82.6205 129.486 84.3726 129.496Z" fill="white"/>
<path d="M116.725 123.518C109.417 132.99 104.769 141.153 91.5872 142.472C82.2391 143.987 73.6847 138.854 66.2949 133.887C65.8208 133.588 65.1818 133.248 64.9448 132.64C64.3882 131.475 65.0994 129.96 66.3258 129.671C80.4973 128.651 94.7616 126.909 108.418 122.786C110.386 122.168 112.355 121.467 114.251 120.632C114.849 120.344 115.612 120.189 116.302 120.457C116.879 120.694 117.323 121.148 117.498 121.725C117.745 122.426 117.075 123.044 116.725 123.518ZM116.374 123.271C116.611 122.817 117.106 122.415 116.931 121.931C116.704 121.385 116.096 120.993 115.364 121.168C114.767 121.292 112.973 122.405 112.241 122.714C104.697 126.6 96.3179 128.599 87.918 129.455C81.9712 130.011 75.88 129.95 69.9125 129.754C68.9437 129.754 67.2946 129.558 66.3464 129.774C65.1818 130.063 64.5634 131.547 65.1612 132.536C65.4292 133.052 65.9445 133.279 66.4907 133.567C73.2106 137.236 80.2294 140.771 87.9387 141.039C101.677 141.297 109.222 134.227 116.374 123.281V123.271Z" fill="#1C30FF"/>
<path d="M65.3054 97.8448C64.5839 97.9582 64.1304 97.0821 64.6457 96.5668C66.4494 94.7837 69.4898 92.506 71.9119 94.3509C75.6016 97.1543 73.664 98.9064 72.0355 98.3292C70.6648 97.8448 68.8508 97.2779 65.3054 97.8448Z" fill="#00074D"/>
<path d="M48.0522 90.8878C48.4026 91.4753 49.2993 91.2073 49.3508 90.4858C49.5364 87.9813 49.3302 84.271 46.5681 83.7969C42.3527 83.0857 42.2806 85.6624 43.6719 86.425C44.8469 87.0641 46.331 87.971 48.0625 90.8775L48.0522 90.8878Z" fill="#00074D"/>
<path d="M74.571 92.0215C78.5081 92.2482 79.9098 96.9686 77.3022 99.5556C76.5293 100.339 75.4368 100.854 74.3546 100.761C78.1577 99.0299 78.6936 93.9076 74.571 92.0215Z" fill="#1C30FF"/>
<path d="M46.2796 81.3129C43.5174 78.8394 39.4257 81.148 39.4463 84.6729C39.4463 85.7241 39.8174 86.8166 40.6007 87.4762C39.2196 83.7453 42.2909 79.8494 46.2899 81.3129H46.2796Z" fill="#1C30FF"/>
<path d="M125.928 113.284C121.971 115.314 121.136 111.738 117.003 106.327C113.107 101.225 109.644 99.3392 110.469 97.7726C111.912 95.031 116.055 97.1748 120.878 101.411C125.712 105.647 128.68 111.872 125.928 113.294V113.284Z" fill="#828DFF"/>
<path d="M196.26 81.7353C199.424 82.4052 208.762 84.1986 213.029 86.4557C217.193 88.651 219.697 92.9385 219.388 93.2271C218.863 93.7218 215.348 85.7652 198.456 83.7039C192.746 83.003 181.79 82.9515 177.41 83.2504C176.492 83.3122 175.874 84.1058 175.884 83.9718C175.977 83.3431 176.193 83.0546 177.039 82.7557C181.13 81.3024 191.21 80.6737 196.26 81.7353Z" fill="#6E7BFF"/>
<path d="M190.922 89.9805C193.756 90.9906 201.816 94.0929 205.206 97.0921C208.525 100.009 209.927 104.575 209.576 104.791C208.999 105.152 209.721 97.6486 192.612 91.5574C187.592 89.7744 177.739 87.507 173.73 86.8989C172.895 86.7752 171.999 87.1875 172.04 87.0638C172.246 86.4763 172.298 86.4763 173.132 86.3939C175.967 86.1156 186.768 88.5067 190.911 89.9805H190.922Z" fill="#6E7BFF"/>
<path d="M220.223 82.1168C220.192 82.2611 219.842 81.3232 218.997 80.9831C214.905 79.3856 202.527 76.3761 196.786 75.9947C185.387 75.2114 175.204 84.2297 171.576 87.6927C170.7 88.5275 171.473 92.7532 172.03 95.134C172.215 95.8555 172.318 96.3399 172.277 96.3708C172.091 96.5357 171.741 95.7627 171.37 94.6084C170.69 92.5161 170.133 90.2693 170.03 88.8779C169.886 86.7135 180.316 78.4065 183.284 77.046C189.736 74.0983 196.271 73.6552 199.445 74.3251C204.299 75.3351 215.059 77.7881 219.007 80.2926C219.182 80.4163 219.337 80.5193 219.491 80.6327C220.202 81.1686 220.336 81.4984 220.223 82.1168Z" fill="#1C30FF"/>
<path d="M117.941 120.849C111.644 119.045 109.644 113.738 109.17 113.861C108.614 114.016 109.964 120.086 116.838 122.385C122.6 124.312 131.339 121.766 131.391 121.364C131.432 121.035 123.857 122.539 117.951 120.849H117.941Z" fill="#1C30FF"/>
<path d="M111.86 4.24058C111.86 4.24058 118.786 5.51859 124.764 9.87825C130.329 13.9493 137.008 20.8856 137.791 25.2247C138.977 31.8827 136.122 30.5944 134.617 29.6565C130.597 27.1417 131.391 17.3093 121.383 9.92979C114.725 5.02387 106.459 3.38513 111.86 4.23027V4.24058Z" fill="#FF87CB"/>
<path d="M147.005 6.93023C148.345 7.22912 153.756 16.876 154.385 25.75C154.91 33.181 154.581 35.6236 151.819 34.8816C148.252 33.9128 152.303 28.5637 151.736 22.9466C150.365 9.20797 145.655 6.64165 146.995 6.94053L147.005 6.93023Z" fill="#FF87CB"/>
<path d="M93.2981 141.245C91.3089 139.122 91.9994 130.114 91.9994 130.114C91.9994 130.114 93.6176 128.3 96.8332 131.001C96.8332 131.001 96.9775 131.238 97.163 131.65C97.9566 133.32 99.5747 137.916 95.6892 141.039C94.6276 141.895 93.8443 141.853 93.2981 141.245Z" fill="#293CFF"/>
<path d="M93.2981 141.246C91.9376 138.277 92.5045 130.888 92.5045 130.888C92.5045 130.888 94.0711 129.125 97.163 131.65C97.4516 132.258 97.8639 133.268 98.0494 134.443C98.3998 136.484 98.1421 139.061 95.6892 141.04C94.8131 141.751 94.1226 141.843 93.597 141.503C93.4836 141.431 93.3805 141.349 93.2981 141.246Z" fill="#4F5FFF"/>
<path d="M98.0493 134.443C98.3997 136.484 98.1421 139.061 95.6891 141.04C95.617 141.101 95.5448 141.153 95.483 141.205C94.9161 140.504 94.3699 139.813 93.8442 139.154C94.1019 137.195 94.5554 134.814 95.3284 133.485C95.8746 132.98 96.5445 132.959 97.3691 133.691C97.637 133.938 97.8638 134.186 98.0596 134.454L98.0493 134.443Z" fill="#7B87FF"/>
<path d="M145.14 199.354C144.295 199.457 143.419 199.621 142.481 199.694C141.491 199.776 140.347 199.714 139.059 199.529C135.05 198.91 110.335 187.625 100.152 179.524C99.5746 179.07 99.0696 178.637 98.5852 178.215C92.5456 172.67 82.7337 163.765 77.0754 155.87C76.2612 154.747 75.5398 153.644 74.9111 152.562C73.4475 150.047 72.6024 147.687 72.6436 145.718C72.6436 145.481 72.6642 145.224 72.7055 144.997C72.7673 144.554 72.8395 144.131 72.9425 143.708C73.0456 143.214 73.1693 142.75 73.2929 142.286C73.3754 142.049 73.4578 141.802 73.5506 141.544C73.9319 140.452 74.437 139.472 75.0141 138.596C75.1378 138.37 75.2924 138.174 75.4264 137.968C76.2818 136.824 77.261 135.886 78.2916 135.164C78.5596 134.979 78.7863 134.835 79.0337 134.68C79.1986 134.577 79.3532 134.494 79.5284 134.412C80.3838 133.958 81.2599 133.618 82.1359 133.381H82.1566C82.4142 133.299 82.6925 133.247 82.9399 133.196C84.2591 132.938 85.5371 132.928 86.6502 133.113C86.9594 133.175 87.248 133.247 87.516 133.33C87.65 133.361 87.7942 133.412 87.9076 133.464C88.124 133.536 88.2993 133.608 88.4848 133.711C89.7937 134.371 90.948 135.113 91.9478 135.906C92.123 136.04 92.2776 136.185 92.4322 136.308V136.329C93.03 136.803 93.5453 137.277 94.0297 137.782C94.9264 138.658 95.6581 139.576 96.3281 140.431L96.3487 140.452C97.6473 142.152 98.6161 143.729 99.5746 144.801C100.76 146.141 103.8 150.748 107.243 155.52C110.314 159.828 113.715 164.219 116.405 166.476C116.745 166.764 117.096 167.042 117.446 167.31C128.309 175.782 144.14 178.462 146.49 179.74C146.892 179.957 147.304 180.245 147.83 180.864C148.582 181.75 149.551 183.317 151.025 186.347C151.386 187.089 151.922 188.47 152.19 190.078C152.839 193.726 152.159 198.498 145.13 199.354H145.14Z" fill="#6B78FF"/>
<path opacity="0.13" d="M145.14 199.354C144.295 199.457 143.419 199.622 142.481 199.694C141.491 199.776 140.347 199.714 139.059 199.529C135.05 198.91 110.335 187.625 100.152 179.524C99.5747 179.07 99.0696 178.637 98.5852 178.215C92.5456 172.67 82.7338 163.765 77.0755 155.87C76.2613 154.747 75.5398 153.644 74.9111 152.562C74.8802 151.356 75.0966 150.253 75.6016 149.212C79.7449 140.812 92.0612 136.855 101.626 152.211C111.2 167.579 124.063 178.339 131.226 182.956C138.441 187.614 145.624 190.964 152.2 190.078C152.849 193.726 152.169 198.498 145.14 199.354Z" fill="#293CFF"/>
<path d="M77.0754 155.87C106.367 189.078 139.059 199.539 142.481 199.694C141.491 199.776 140.347 199.714 139.059 199.529C135.06 198.91 110.345 187.625 100.152 179.524C99.5746 179.07 99.0696 178.637 98.5852 178.204C92.5456 172.66 82.7337 163.765 77.0754 155.86V155.87Z" fill="#4F5FFF"/>
<path d="M79.9202 139.132C81.1776 136.782 77.7764 129.794 76.7973 128.444C75.777 127.043 71.5307 128.403 71.3039 131.011C71.2627 131.248 71.2833 131.474 71.3245 131.711C72.3037 137.019 76.2201 140.874 79.1781 139.792C79.5182 139.668 79.7759 139.431 79.9305 139.132H79.9202Z" fill="#293CFF"/>
<path d="M79.9202 139.132C80.1882 136.246 77.4054 130.609 76.5293 129.403C75.643 128.176 72.314 129.053 71.3039 131.011C71.2627 131.248 71.2833 131.475 71.3245 131.712C71.5101 132.722 71.8089 133.68 72.18 134.546C73.726 138.205 76.6324 140.544 78.9926 139.854L79.1781 139.792C79.5182 139.668 79.7759 139.431 79.9305 139.132H79.9202Z" fill="#4F5FFF"/>
<path d="M78.5597 139.276C79.9202 138.287 77.7249 132.989 75.9419 131.114C75.6739 130.835 74.8494 130.011 73.9012 130.32C72.953 130.629 72.4583 131.753 72.551 132.897C72.8396 136.226 77.1993 140.256 78.5597 139.266V139.276Z" fill="#7B87FF"/>
<path d="M87.279 135.464C88.9795 133.413 87.0522 125.878 86.3514 124.363C85.6402 122.786 81.1981 123.271 80.456 125.775C80.3736 125.992 80.3427 126.219 80.3427 126.466C80.2396 131.867 83.3109 136.422 86.4235 135.948C86.7739 135.896 87.0728 135.711 87.2893 135.453L87.279 135.464Z" fill="#293CFF"/>
<path d="M87.279 135.463C88.1138 132.691 86.5163 126.61 85.8979 125.249C85.2795 123.878 81.8371 124.064 80.4663 125.775C80.3839 125.991 80.353 126.218 80.353 126.465C80.3324 127.496 80.4354 128.486 80.6209 129.413C81.4042 133.309 83.7851 136.184 86.238 135.978L86.4338 135.958C86.7843 135.906 87.0832 135.721 87.2996 135.463H87.279Z" fill="#4F5FFF"/>
<path d="M85.9184 135.339C87.4438 134.638 86.3616 129.011 84.9805 126.816C84.7744 126.496 84.1251 125.517 83.1357 125.63C82.1462 125.744 81.4351 126.744 81.3011 127.888C80.9198 131.206 84.3828 136.03 85.9184 135.339Z" fill="#7B87FF"/>
<path d="M66.7174 139.947C66.7174 139.947 66.6968 139.833 66.6968 139.782C66.501 138.153 68.4901 135.639 70.7885 137.865C72.7467 139.741 74.5504 143.07 74.6225 144.337C74.6328 144.409 74.6535 144.471 74.6329 144.533C74.6329 144.616 74.6122 144.667 74.5813 144.708C74.1381 145.378 72.8601 145.76 72.5509 145.718C70.8916 145.667 69.696 144.966 68.2943 143.358C67.4286 142.348 66.9648 141.06 66.7071 139.936L66.7174 139.947Z" fill="#293CFF"/>
<path d="M67.3976 141.915C67.0781 141.256 66.872 140.565 66.7174 139.937C66.7174 139.885 66.6968 139.823 66.6968 139.772C67.3564 138.576 68.8303 137.772 70.4793 139.339C72.386 141.194 74.4164 143.338 74.6328 144.327C74.6432 144.399 74.6638 144.461 74.6431 144.523C74.6431 144.605 74.6225 144.657 74.5916 144.698C74.4576 144.925 74.2 145.121 73.9217 145.265C73.3961 145.574 72.7571 145.729 72.5612 145.708C70.9019 145.657 69.7063 144.956 68.3046 143.348C67.913 142.905 67.6244 142.41 67.3976 141.905V141.915Z" fill="#4F5FFF"/>
<path d="M67.3978 141.915C67.5215 141.091 69.2942 139.967 70.5619 141.183C72.1079 142.688 73.7466 144.409 73.9218 145.223C73.9321 145.244 73.9218 145.254 73.9218 145.275C73.3962 145.584 72.7572 145.739 72.5614 145.718C70.902 145.667 69.7065 144.966 68.3048 143.358C67.9131 142.915 67.6245 142.42 67.3978 141.915Z" fill="#7B87FF"/>
<g style="mix-blend-mode:screen" opacity="0.22">
<path d="M147.84 180.864C147.84 180.864 142.254 182.554 129.134 175.69C109.778 165.558 107.15 156.014 107.253 155.52C110.324 159.828 113.726 164.219 116.416 166.476C116.756 166.764 117.106 167.042 117.457 167.31C128.32 175.782 144.151 178.462 146.5 179.74C146.902 179.957 147.315 180.245 147.84 180.864Z" fill="#B3B9FF"/>
</g>
</g>
</svg>
