<svg width="221" height="228" viewBox="0 0 221 228" fill="none" xmlns="http://www.w3.org/2000/svg">
<mask id="mask0_21_12210" style="mask-type:luminance" maskUnits="userSpaceOnUse" x="0" y="0" width="221" height="228">
<path d="M5.81609 180.06C14.2262 194.922 25.0275 203.229 42.0642 204.27C52.9788 204.93 66.0888 209.052 78.2505 221.606C81.5898 225.048 105.192 228.738 124.97 227.872C151.324 226.718 170.968 222.688 177.173 218.205C197.456 203.528 214.142 213.69 217.348 204.25C222.264 189.789 220.893 21.7928 217.348 13.2487C213.802 4.70456 83.5377 -10.5697 65.8929 11.0843C24.5946 61.7822 42.9609 35.5417 22.1004 64.9566C1.23999 94.3715 -2.32608 128.62 1.17815 163.023L2.27064 173.804L5.81609 180.06Z" fill="white"/>
</mask>
<g mask="url(#mask0_21_12210)">
<path d="M105.058 184.316C103.501 187.274 100.76 190.757 99.1622 192.808L99.121 192.829C81.9812 193.643 79.1263 198.621 74.4471 201.033C65.0888 205.856 59.6572 205.98 55.8541 204.032C54.6173 203.403 53.5455 202.569 52.5766 201.6C49.8042 198.827 47.7944 195.055 44.7128 192.324C42.6824 190.52 40.6829 190.273 38.7762 189.912C36.7664 189.49 34.8288 188.964 33.0457 186.305C32.8396 186.037 32.6438 185.697 32.4583 185.357C32.0151 184.584 31.7471 183.821 31.6028 183.11C30.8505 179.338 33.2828 175.936 31.9842 170.567C30.9535 166.351 26.6969 162.723 26.5732 159.786C26.5732 159.601 26.5939 159.425 26.6145 159.24C26.8 158.065 27.1813 157.096 27.6863 156.282C29.3251 153.551 32.2625 152.468 33.5611 150.613C37.3539 145.244 32.5716 139.142 33.4992 137.73L33.5611 137.71C33.7054 137.751 34.8597 136.998 36.2717 136.761C51.4842 134.267 66.0267 140.41 75.3335 143.79C76.7352 144.295 78.0853 144.883 79.3633 145.573C95.1427 153.695 103.089 172.741 106.181 179.997C106.583 180.945 106.057 182.512 105.068 184.295L105.058 184.316Z" fill="#828DFF"/>
<path d="M105.058 184.316C103.563 184.017 102.1 184.254 100.502 184.584C97.9667 185.13 95.4003 185.677 92.8855 186.285C87.8663 187.522 82.9809 189.14 78.3636 191.428C70.6234 195.272 63.5943 200.26 55.8541 204.033C54.6173 203.404 53.5455 202.569 52.5766 201.6C56.3695 199.92 60.0695 197.972 63.6768 195.808C68.0777 193.19 72.427 190.459 77.0444 188.191C81.7236 185.862 86.6707 184.244 91.7724 182.987C94.6686 182.276 97.5647 181.626 100.481 181.018C101.234 180.874 101.997 180.771 102.728 180.699C101.821 180.152 100.801 179.75 99.7497 179.482C96.7505 178.689 93.5555 178.328 90.4738 178.06C84.0322 177.452 77.5288 177.638 71.1078 178.308C58.1628 179.627 45.5785 182.945 33.0458 186.305C32.8396 186.037 32.6438 185.697 32.4583 185.357C32.0151 184.584 31.7471 183.822 31.6028 183.11C51.0719 177.885 70.644 172.721 91.0201 174.597C94.7304 174.937 99.5848 175.329 103.378 177.071C102.471 175.958 101.368 174.989 100.234 174.133C97.7193 172.247 94.885 170.691 92.0095 169.351C86.0935 166.599 79.7756 164.837 73.3753 163.579C59.2553 160.786 44.6921 159.673 30.3248 159.715C29.0674 159.715 27.8306 159.735 26.5732 159.776C26.5732 159.591 26.5939 159.416 26.6145 159.23C26.8 158.055 27.1813 157.086 27.6863 156.272C35.5502 156.169 43.4451 156.437 51.2883 157.086C58.6266 157.694 65.9545 158.601 73.1897 159.982C79.9405 161.26 86.6604 163.064 92.9371 165.919C94.5346 166.63 96.1012 167.434 97.6575 168.31C96.9875 167.176 96.2764 166.084 95.4519 165.033C93.5245 162.6 91.3602 160.333 89.2576 158.045C86.8871 155.489 84.4754 152.438 81.5793 150.222C80.0642 149.315 78.5182 148.48 76.9413 147.687C76.7352 147.584 76.56 147.46 76.3951 147.305C72.9115 145.863 69.2836 144.729 65.6763 143.574C61.6876 142.276 57.6372 141.08 53.5661 139.988C52.7106 139.761 51.8449 139.545 50.9894 139.318C45.1972 138.328 39.3637 137.741 33.4889 137.72L33.5508 137.7C33.6951 137.741 34.8494 136.989 36.2614 136.752C51.4738 134.257 66.0164 140.4 75.3232 143.781C93.7822 150.47 102.831 172.144 106.16 179.998C106.562 180.946 106.037 182.513 105.047 184.296L105.058 184.316Z" fill="#4555FF"/>
<g style="mix-blend-mode:multiply" opacity="0.32">
<path d="M105.058 184.317C103.501 187.274 100.76 190.758 99.1624 192.809L99.1212 192.83C81.9814 193.644 79.1265 198.622 74.4473 201.034C65.089 205.857 59.6574 205.981 55.8543 204.033C54.6175 203.404 53.5456 202.569 52.5768 201.601C49.8044 198.828 47.7946 195.056 44.7129 192.325C42.6825 190.521 40.6831 190.274 38.7764 189.913C44.5686 186.656 52.8551 180.091 59.6059 173.567C70.6442 162.889 79.075 146.079 79.3532 145.574C95.1325 153.696 103.079 172.742 106.171 179.998C106.573 180.946 106.047 182.513 105.058 184.296V184.317Z" fill="#4E6587"/>
</g>
<path d="M140.162 136.607C140.162 136.607 150.077 147.254 149.974 154.623C149.881 161.992 126.856 146.667 126.856 146.667L140.151 136.607H140.162Z" fill="#E80083"/>
<path d="M156.261 118.097C156.261 118.097 169.669 130.877 170.113 140.256C170.546 149.635 140.121 131.897 140.121 131.897L156.261 118.097Z" fill="#E80083"/>
<path d="M214.029 183.121C213.885 183.832 213.606 184.584 213.173 185.368C212.988 185.708 212.792 186.038 212.586 186.316C210.803 188.985 208.876 189.501 206.855 189.923C204.949 190.284 202.949 190.531 200.919 192.335C197.837 195.066 195.817 198.838 193.055 201.611C192.086 202.58 191.025 203.415 189.778 204.043C185.985 205.991 180.543 205.868 171.185 201.044C168.835 199.828 166.949 197.983 163.486 196.324C160.043 194.685 155.034 193.242 146.511 192.84L146.469 192.819C144.872 190.758 142.13 187.285 140.574 184.327C139.585 182.544 139.059 180.967 139.461 180.029C142.543 172.773 150.499 153.716 166.279 145.605C167.557 144.915 168.896 144.327 170.308 143.822C179.626 140.442 194.168 134.299 209.37 136.793C210.772 137.02 211.926 137.782 212.081 137.741L212.143 137.762C213.07 139.164 208.278 145.275 212.081 150.645C213.38 152.49 216.317 153.582 217.956 156.314C218.461 157.128 218.832 158.097 219.027 159.272C219.048 159.457 219.069 159.632 219.069 159.818C218.945 162.755 214.688 166.383 213.658 170.599C212.359 175.968 214.791 179.369 214.039 183.142L214.029 183.121Z" fill="#828DFF"/>
<path d="M140.574 184.316C142.068 184.017 143.532 184.254 145.13 184.584C147.665 185.13 150.231 185.677 152.746 186.285C157.765 187.522 162.651 189.14 167.268 191.428C175.008 195.272 182.037 200.26 189.777 204.033C191.014 203.404 192.086 202.569 193.055 201.6C189.262 199.92 185.562 197.972 181.955 195.808C177.554 193.19 173.205 190.459 168.587 188.191C163.908 185.862 158.961 184.244 153.859 182.987C150.963 182.276 148.067 181.626 145.15 181.018C144.398 180.874 143.635 180.771 142.903 180.699C143.81 180.152 144.831 179.75 145.882 179.482C148.881 178.689 152.076 178.328 155.158 178.06C161.599 177.452 168.103 177.638 174.524 178.308C187.469 179.627 200.053 182.945 212.586 186.305C212.792 186.037 212.988 185.697 213.173 185.357C213.616 184.584 213.884 183.822 214.029 183.11C194.56 177.885 174.988 172.721 154.612 174.597C150.901 174.937 146.047 175.329 142.254 177.071C143.161 175.958 144.264 174.989 145.397 174.133C147.912 172.247 150.747 170.691 153.622 169.351C159.538 166.599 165.856 164.837 172.256 163.579C186.376 160.786 200.939 159.673 215.307 159.715C216.564 159.715 217.801 159.735 219.058 159.776C219.058 159.591 219.038 159.416 219.017 159.23C218.832 158.055 218.45 157.086 217.945 156.272C210.081 156.169 202.187 156.437 194.343 157.086C187.005 157.694 179.677 158.601 172.442 159.982C165.691 161.26 158.971 163.064 152.695 165.919C151.097 166.63 149.53 167.434 147.974 168.31C148.644 167.176 149.355 166.084 150.18 165.033C152.107 162.6 154.271 160.333 156.374 158.045C158.744 155.489 161.156 152.438 164.052 150.222C165.567 149.315 167.113 148.48 168.69 147.687C168.896 147.584 169.072 147.46 169.237 147.305C172.72 145.863 176.348 144.729 179.955 143.574C183.944 142.276 187.994 141.08 192.066 139.988C192.921 139.761 193.787 139.545 194.642 139.318C200.434 138.328 206.268 137.741 212.143 137.72L212.081 137.7C211.937 137.741 210.782 136.989 209.37 136.752C194.158 134.257 179.615 140.4 170.308 143.781C151.849 150.47 142.8 172.144 139.471 179.998C139.069 180.946 139.595 182.513 140.584 184.296L140.574 184.316Z" fill="#4555FF"/>
<g style="mix-blend-mode:multiply" opacity="0.32">
<path d="M162.032 187.965C164.568 191.387 167.227 196.313 163.486 196.313C160.043 194.674 155.034 193.232 146.511 192.83L146.469 192.809C144.872 190.748 142.13 187.274 140.574 184.316C139.585 182.533 139.059 180.956 139.461 180.019C142.543 172.763 150.499 153.706 166.279 145.595C166.547 146.1 148.809 170.124 162.032 187.975V187.965Z" fill="#4E6587"/>
</g>
<path d="M187.036 336.214C181.46 348.067 173.617 356.848 164.557 363.042C164.557 363.042 164.557 363.053 164.547 363.073C150.86 372.473 134.4 375.956 118.724 375.152C107.098 374.555 95.6479 371.452 85.4959 366.351C70.1082 358.631 57.7198 346.304 52.2264 331.04C36.5708 287.392 78.4462 223.049 92.2158 195.479C99.6365 180.637 101.966 167.713 102.512 158.952C102.976 151.459 102.151 147.017 102.151 147.017L108.479 146.615L135.617 144.894L138.41 144.708C138.41 144.708 138.626 149.037 139.646 155.747C139.914 157.468 140.234 159.354 140.626 161.354C142.532 171.31 146.016 184.327 152.344 196.324C164.898 220.142 210.05 287.454 187.036 336.194V336.214Z" fill="#6B78FF"/>
<path d="M164.558 363.042C164.558 363.042 164.558 363.053 164.547 363.073C150.87 372.463 134.401 375.957 118.724 375.153C107.099 374.545 95.648 371.463 85.496 366.361C85.496 366.361 62.1517 331.968 63.8523 293.906C65.5425 255.823 90.7317 214.7 99.0182 199.158C106.995 184.162 108.294 156.314 108.49 146.636C108.552 144.461 108.541 143.194 108.541 143.194C108.541 143.194 135.854 130.156 135.627 144.904C135.204 171.815 138.121 184.853 143.017 196.777C154.127 223.749 176.183 264.605 179.492 293.844C182.749 322.744 165.011 362.084 164.578 363.042H164.558Z" fill="#B3B9FF"/>
<mask id="mask1_21_12210" style="mask-type:luminance" maskUnits="userSpaceOnUse" x="63" y="137" width="117" height="239">
<path d="M164.558 363.042C164.558 363.042 164.558 363.053 164.547 363.073C150.87 372.463 134.401 375.957 118.724 375.153C107.099 374.545 95.648 371.463 85.496 366.361C85.496 366.361 62.1517 331.968 63.8523 293.906C65.5425 255.823 90.7317 214.7 99.0182 199.158C106.995 184.162 108.294 156.314 108.49 146.636C108.552 144.461 108.541 143.194 108.541 143.194C108.541 143.194 135.854 130.156 135.627 144.904C135.204 171.815 138.121 184.853 143.017 196.777C154.127 223.749 176.183 264.605 179.492 293.844C182.749 322.744 165.011 362.084 164.578 363.042H164.558Z" fill="white"/>
</mask>
<g mask="url(#mask1_21_12210)">
<path d="M141.09 160.086C140.574 162.796 135.74 162.137 133.679 162.209C130.505 162.322 127.32 162.374 124.146 162.26C117.859 162.023 111.551 161.034 105.882 158.189C103.378 156.932 101.11 160.663 103.625 161.931C110.582 165.425 118.271 166.548 125.99 166.682C129.773 166.744 133.576 166.651 137.348 166.435C140.698 166.249 144.573 165.115 145.295 161.312C145.81 158.571 141.615 157.324 141.1 160.086H141.09Z" fill="#8792FF"/>
<path d="M143.068 176.153C140.275 177.669 137.461 179.235 134.411 180.183C131.051 181.224 127.65 181.266 124.197 180.678C117.415 179.534 110.685 177.401 104.202 175.154C101.543 174.236 100.327 178.431 102.976 179.348C110.056 181.791 117.446 184.162 124.887 185.161C132.422 186.182 138.739 183.471 145.222 179.957C147.696 178.617 145.542 174.803 143.068 176.153Z" fill="#8792FF"/>
<path d="M142.831 192.242C137.637 197.22 130.278 198.457 123.341 197.911C115.261 197.272 107.243 194.726 99.492 192.479C96.7917 191.696 95.5652 195.891 98.2656 196.674C113.076 200.961 132.999 207.723 145.882 195.375C147.912 193.427 144.872 190.294 142.841 192.242H142.831Z" fill="#8792FF"/>
<path d="M155.817 211.33C145.408 215.288 134.359 217.257 123.228 217.03C117.724 216.917 112.231 216.288 106.851 215.103C101.955 214.02 96.9463 212.495 93.1432 209.073C91.0613 207.198 87.9075 210.238 90.01 212.114C94.0193 215.711 98.9767 217.69 104.161 218.947C109.943 220.359 115.91 221.142 121.857 221.359C133.782 221.781 145.779 219.792 156.93 215.556C159.528 214.567 158.466 210.32 155.828 211.33H155.817Z" fill="#8792FF"/>
<path d="M172.926 219.647C162.888 227.439 150.355 231.17 137.864 232.561C131.443 233.283 124.97 233.437 118.508 233.283C112.272 233.138 105.924 232.911 99.7706 231.85C93.1229 230.706 86.5577 228.5 81.7754 223.533C79.8275 221.502 76.684 224.553 78.6422 226.573C87.98 236.271 102.595 237.044 115.22 237.539C128.814 238.075 142.831 237.436 155.869 233.252C163.146 230.912 169.917 227.459 175.957 222.77C178.173 221.049 175.111 217.926 172.916 219.637L172.926 219.647Z" fill="#8792FF"/>
</g>
<g style="mix-blend-mode:multiply" opacity="0.48">
<path d="M139.647 155.757C125.073 153.366 103.151 157.757 144.326 180.957C150.623 184.512 118.549 181.08 102.512 158.962C102.976 151.47 102.151 147.027 102.151 147.027L108.48 146.625L135.617 144.904L138.41 144.719C138.41 144.719 138.626 149.048 139.647 155.757Z" fill="#6988B5"/>
</g>
<path d="M21.2241 159.333C19.2968 156.499 21.7497 146.151 21.7497 146.151C21.7497 146.151 23.9656 144.337 27.2122 148.068C27.2122 148.068 27.3359 148.367 27.4802 148.883C28.0986 150.975 29.1395 156.602 24.0584 159.54C22.667 160.343 21.7703 160.148 21.2344 159.344L21.2241 159.333Z" fill="#7B87FF"/>
<path d="M21.2241 159.333C20.1832 155.633 22.1826 147.141 22.1826 147.141C22.1826 147.141 24.3264 145.378 27.4699 148.872C27.6966 149.635 27.9852 150.882 27.9955 152.294C28.0368 154.726 27.2638 157.674 24.0481 159.529C22.9041 160.189 22.0796 160.179 21.523 159.694C21.4096 159.591 21.2963 159.467 21.2241 159.333Z" fill="#4F5FFF"/>
<path opacity="0.45" d="M27.9957 152.294C28.0369 154.726 27.2639 157.674 24.0483 159.529C23.9555 159.581 23.8628 159.632 23.7803 159.673C23.2547 158.746 22.7393 157.849 22.2446 156.983C22.8939 154.757 23.8628 152.057 25.0068 150.655C25.7282 150.161 26.5218 150.264 27.3361 151.274C27.5937 151.603 27.8308 151.944 27.9957 152.284V152.294Z" fill="#FF0090"/>
<path d="M97.4724 185.13C97.4209 185.986 97.3178 187.058 97.3693 187.563C97.5961 189.407 97.122 191.541 96.2871 193.499H96.2768C94.8958 196.766 92.4737 199.559 90.4846 199.786C88.4645 200.023 80.8376 199.869 72.0255 199.199C71.2422 199.147 70.4383 199.075 69.6447 199.003C69.3768 198.982 69.1191 198.962 68.8511 198.931C68.0472 198.859 67.233 198.786 66.4291 198.704C66.0271 198.673 65.6252 198.622 65.2129 198.591C64.8213 198.549 64.4296 198.498 64.038 198.467C63.77 198.436 63.502 198.395 63.2341 198.374C62.9455 198.343 62.6569 198.302 62.3683 198.271C60.3791 198.044 58.4209 197.787 56.5039 197.508C56.1844 197.467 55.8752 197.405 55.5763 197.364C52.9172 196.952 50.4024 196.478 48.1556 195.952C47.5166 195.798 46.8879 195.633 46.2901 195.478C45.1049 195.148 44.0124 194.818 43.0435 194.447C37.0451 192.139 28.2743 188.779 20.668 184.914C20.0393 184.584 19.4106 184.264 18.7922 183.935C18.4934 183.77 18.1739 183.595 17.875 183.44C16.6691 182.78 15.5148 182.1 14.4223 181.42C14.1543 181.255 13.8863 181.069 13.6184 180.905C10.5573 178.926 8.08374 176.895 6.5893 174.824C6.54807 174.782 6.53776 174.721 6.48623 174.679C6.24918 174.329 6.03274 174.009 5.86784 173.659C5.81631 173.546 5.75447 173.432 5.71324 173.319C5.57925 173.061 5.46588 172.793 5.38343 172.536C5.31128 172.34 5.27006 172.154 5.22883 171.979C4.99178 170.99 4.8578 170.041 4.79596 169.134V169.083C4.77534 169.001 4.77534 168.939 4.77534 168.846V168.743C4.73412 168.124 4.73412 167.527 4.78565 166.96C4.78565 166.908 4.79596 166.846 4.79596 166.795C4.79596 166.671 4.79596 166.548 4.80626 166.414C4.80626 166.331 4.81657 166.249 4.82688 166.166C4.83718 165.96 4.8681 165.764 4.89902 165.568C4.92994 165.434 4.95056 165.3 4.98148 165.177C5.23914 163.724 5.73385 162.446 6.37286 161.302C6.45531 161.157 6.52746 161.023 6.62022 160.879C6.63052 160.869 6.63052 160.858 6.64083 160.848C6.73359 160.673 6.86757 160.477 7.00156 160.322C7.00156 160.302 7.02217 160.302 7.02217 160.302C7.29014 159.9 7.56842 159.508 7.89823 159.168C7.92915 159.137 7.94976 159.096 7.99099 159.065C8.03221 159.024 8.07344 158.962 8.11466 158.921C8.13528 158.9 8.15589 158.869 8.18681 158.838C8.26926 158.756 8.3311 158.684 8.43417 158.612L8.46509 158.581C8.74336 158.251 9.09379 157.952 9.44421 157.674C10.0523 157.169 10.6913 156.746 11.3406 156.385C11.5983 156.241 11.8662 156.107 12.1239 155.983C12.6392 155.746 13.1649 155.55 13.6699 155.396C14.0718 155.262 14.4635 155.179 14.8448 155.118H14.8758C15.3808 155.035 15.8446 154.994 16.2878 155.015C16.7722 155.035 17.4112 155.169 18.1532 155.406H18.1635C18.9159 155.643 19.7817 155.963 20.7299 156.365H20.7402C20.9566 156.447 21.1421 156.519 21.3586 156.633H21.3689C22.0182 156.921 22.6778 157.22 23.389 157.55C24.3062 157.983 25.2751 158.467 26.2851 158.972C26.2954 158.972 26.2954 158.983 26.3057 158.983C27.9135 159.807 29.6244 160.673 31.3044 161.58C37.0039 164.6 42.5591 167.692 44.8266 168.392C44.8266 168.392 86.5165 180.441 94.0094 183.193C94.0815 183.213 94.1743 183.234 94.3495 183.275C94.401 183.275 94.4732 183.285 94.5453 183.296C94.7721 183.327 95.0194 183.337 95.2977 183.368C95.5141 183.388 95.7306 183.388 95.947 183.409C96.0707 183.419 96.1944 183.44 96.3284 183.44C96.5345 183.461 96.7406 183.481 96.8849 183.533C97.122 183.584 97.3075 183.656 97.4106 183.759C97.5342 183.873 97.5136 184.429 97.4621 185.13H97.4724Z" fill="#6B78FF"/>
<path opacity="0.35" d="M96.2973 193.5C94.9265 197.396 93.6794 199.447 90.4947 199.807C86.0526 200.302 54.8444 198.983 43.0434 194.458C35.0558 191.377 22.1211 186.44 13.6079 180.926C17.2667 182.07 61.5745 204.497 96.287 193.5H96.2973Z" fill="#293CFF"/>
<path opacity="0.35" d="M97.4825 185.13C94.9883 183.203 60.2037 172.794 51.5359 171.217C43.9606 169.836 35.8184 165.321 31.3145 161.59C37.0243 164.61 42.5795 167.692 44.8469 168.413C44.8469 168.413 86.5369 180.451 94.0298 183.203C94.0916 183.224 94.1947 183.244 94.3699 183.286C94.5966 183.306 94.9574 183.327 95.3181 183.368C95.5242 183.389 95.7613 183.389 95.9674 183.409C96.0911 183.43 96.2148 183.451 96.3487 183.451C96.5549 183.471 96.7713 183.492 96.9156 183.533C97.1423 183.595 97.3382 183.657 97.4412 183.76C97.5649 183.863 97.5443 184.43 97.5031 185.12L97.4825 185.13Z" fill="#293CFF"/>
<path opacity="0.45" d="M12.5359 172.721C11.0208 171.804 13.1543 160.797 17.988 160.673C21.8942 160.57 24.275 166.909 22.7084 170.104C20.8945 173.804 16.7616 175.288 12.5359 172.721Z" fill="#FF0090"/>
<path d="M4.2395 163.147C4.93004 166.218 10.5471 168.98 11.7942 169.217C13.0928 169.475 14.4327 164.548 13.0825 162.178V162.157C12.9691 161.941 12.8352 161.766 12.6806 161.601C9.20725 158.076 5.10525 158.375 4.2395 161.92C4.13644 162.322 4.14674 162.745 4.2395 163.136" fill="#293CFF"/>
<path d="M4.2395 163.147C5.73395 165.785 10.2791 167.97 11.3922 168.187C12.5157 168.413 13.6803 164.703 13.0825 162.188V162.168C12.9691 161.951 12.8352 161.776 12.6806 161.611C12.0209 160.941 11.3407 160.416 10.6605 160.024C7.83648 158.375 5.07433 159.035 4.29103 161.725L4.2395 161.941C4.13644 162.343 4.14674 162.765 4.2395 163.157" fill="#4F5FFF"/>
<path d="M7.58906 159.127C6.03277 159.158 4.78568 160.055 4.30127 161.725C4.3425 161.807 4.40433 161.89 4.46617 161.931C5.19794 162.58 8.18684 164.25 10.1245 164.198C10.413 164.198 10.6707 164.147 10.9078 164.054C11.0727 163.858 11.1963 163.539 11.2376 163.178C11.3613 162.116 11.1448 161.014 10.6604 160.024C9.58853 159.395 8.53726 159.107 7.58906 159.127Z" fill="#7B87FF"/>
<path d="M7.98059 156.025C8.39285 158.704 13.7316 161.601 14.9478 161.92C16.2155 162.27 17.9986 158.21 16.8648 156.066C16.7824 155.86 16.6587 155.695 16.5144 155.54C13.3812 152.201 9.2586 152.057 8.09396 154.984C7.95998 155.314 7.92906 155.674 7.98059 156.014" fill="#293CFF"/>
<path d="M7.98059 156.025C9.22768 158.405 13.5564 160.714 14.6386 161.003C15.7414 161.302 17.2256 158.272 16.8648 156.076C16.7824 155.87 16.6587 155.705 16.5144 155.551C15.9166 154.912 15.2879 154.407 14.6489 154.005C11.9898 152.325 9.17615 152.613 8.16611 154.819L8.09396 154.994C7.95998 155.324 7.92906 155.685 7.98059 156.025Z" fill="#4F5FFF"/>
<path d="M11.6805 152.933C10.1345 152.809 8.80497 153.438 8.17627 154.819C8.20719 154.901 8.25872 154.963 8.32056 155.015C8.99049 155.633 11.8145 157.344 13.7521 157.499C14.0407 157.519 14.3087 157.509 14.5457 157.457C14.7312 157.303 14.8755 157.045 14.9477 156.746C15.1641 155.849 15.0507 154.901 14.6591 154.005C13.649 153.366 12.6287 153.015 11.6805 152.943" fill="#7B87FF"/>
<path d="M3.08483 171.134C3.8269 172.701 5.48625 173.958 8.21748 174.453C10.6911 174.906 11.5671 170.351 10.3097 169.248L10.2582 169.196C8.91833 168.186 3.30126 165.27 2.74471 168.083C2.52827 169.135 2.64165 170.186 3.08483 171.124" fill="#293CFF"/>
<path d="M3.08509 171.134C3.96114 172.34 5.49682 173.278 7.76426 173.69C9.83587 174.071 10.8047 170.907 10.2997 169.248L10.2481 169.196C9.88741 168.928 9.22779 168.526 8.43418 168.135C6.26981 167.032 3.14693 166.022 2.74497 168.083C2.67283 168.434 2.64191 168.784 2.66252 169.134C2.64191 169.835 2.7862 170.516 3.08509 171.124" fill="#4F5FFF"/>
<path d="M4.35243 166.908C3.52791 166.929 2.90952 167.259 2.74461 168.104C2.68278 168.403 2.65186 168.702 2.65186 169C2.65186 169.052 2.65186 169.093 2.65186 169.145C4.05355 170.485 5.38309 171.062 6.51681 171.072C7.30011 170.907 7.98034 170.433 8.48536 169.753C8.85639 169.248 8.78425 168.691 8.43383 168.155C7.15581 167.506 5.53769 166.888 4.35243 166.919" fill="#7B87FF"/>
<path d="M163.073 63.9567C163.073 63.9567 180.048 58.3706 188.221 62.2664C196.394 66.1623 167.464 83.972 167.464 83.972L163.073 63.9567Z" fill="#FF0090"/>
<path d="M159.085 102.905C159.085 102.905 176.585 106.522 181.728 113.974C186.871 121.426 152.911 122.446 152.911 122.446L159.085 102.915V102.905Z" fill="#E80083"/>
<path d="M125.691 43.4982C122.125 46.3531 129.762 35.5415 126.104 27.0798C115.344 2.22046 102.007 5.74529 105.573 2.89038C109.139 0.0251615 122.29 0.0870013 139.244 21.2051C156.199 42.3232 129.257 40.6329 125.691 43.4878V43.4982Z" fill="#FF0090"/>
<path d="M133.359 46.6212C128.794 46.8068 141.357 42.6326 143.429 33.6453C149.51 7.25026 136.688 2.17944 141.244 1.99392C145.81 1.8084 156.364 9.65168 157.487 36.7167C158.6 63.7713 137.925 46.4357 133.359 46.6212Z" fill="#FF0090"/>
<path d="M138.863 51.4551C134.627 49.7339 147.799 51.1356 153.406 43.8282C169.876 22.3288 160.311 12.4036 164.537 14.1145C168.773 15.8357 175.122 27.3584 164.918 52.4445C154.715 77.5306 143.089 53.1763 138.853 51.4551H138.863Z" fill="#FF0090"/>
<path d="M144.419 55.3093C141.038 52.238 151.777 55.8144 158.796 51.7227C179.43 39.6949 175.843 32.7071 179.224 35.7784C182.604 38.8498 183.676 48.5895 167.773 66.0694C151.87 83.5493 147.789 58.391 144.419 55.3196V55.3093Z" fill="#FF0090"/>
<path d="M107.676 49.94C103.409 51.5684 114.313 44.4466 114.2 37.3248C113.86 16.3922 100.585 16.9694 104.852 15.3306C109.119 13.7022 120.899 15.8666 128.186 34.913C135.472 53.9595 111.953 48.3012 107.686 49.9297L107.676 49.94Z" fill="#FF0090"/>
<path d="M220.223 82.1172C220.192 82.2615 219.842 81.3236 218.997 80.9835C214.905 79.386 202.527 76.3765 196.786 75.9951C185.387 75.2118 175.225 84.261 171.576 87.6931C170.401 88.7959 171.679 93.877 172.236 96.2681C172.019 96.0929 171.793 95.928 171.576 95.7425C171.391 95.6085 171.205 95.4539 171.02 95.3096C168 92.8051 168.206 89.8781 169.34 86.5903C170.35 83.6735 170.195 72.3672 170.185 71.7076C170.37 71.9241 174.514 77.1186 179.77 74.7068C187.252 71.3057 192.581 70.3162 198.363 71.0171C207.711 72.1508 215.029 77.3968 218.997 80.3033L219.151 80.4166C219.728 80.8392 220.079 81.4576 220.213 82.1275L220.223 82.1172Z" fill="#6B78FF"/>
<path d="M34.293 80.7767C34.3548 106.986 51.9275 130.681 79.9407 143.131C116.642 159.447 158.167 146.151 172.71 113.448C180.914 94.9791 169.886 65.2344 162.269 55.8658C154.653 46.5074 150.53 41.3954 141.842 36.912C136.977 34.3972 124.011 29.6769 112.19 34.5828C107.14 36.675 107.933 34.0365 100.193 27.1414C88.3611 16.6082 65.1095 21.3698 58.1423 36.541C54.8751 43.6422 52.484 51.5267 51.9996 58.3806V58.4115C51.1442 61.2767 50.196 63.8843 48.9283 65.9662C44.5171 73.2014 34.2827 72.6448 34.293 80.7561V80.7767Z" fill="#6B78FF"/>
<path d="M135.205 41.7255C139.863 42.6737 144.068 45.1678 147.047 48.9813C149.716 52.403 152.447 57.948 151.386 61.9984C151.138 62.9157 149.695 62.1118 149.366 60.4937C148.809 57.7109 146.191 52.9287 142.831 51.5167C139.77 50.218 136.225 49.1462 133.04 48.4659C126.258 47.0024 131.721 41.0246 135.194 41.7358L135.205 41.7255Z" fill="#1C30FF"/>
<path d="M88.9794 28.2551C85.0217 26.0392 80.4765 25.2971 76.0344 26.369C72.0561 27.3275 66.7688 29.8835 65.1404 33.6969C64.7694 34.5627 66.305 34.8616 67.5109 33.8103C69.5722 32.0066 74.3235 29.9763 77.601 30.9966C80.6002 31.9345 83.8159 33.3465 86.5471 34.8306C92.36 37.9947 91.9271 29.9144 88.9794 28.2551Z" fill="#1C30FF"/>
<path d="M218.11 97.1334C215.771 98.1641 212.277 99.5555 208.35 100.689C208.803 101.833 209.185 102.874 209.494 103.75C210.02 105.203 208.979 106.492 207.577 106.976C204.866 107.914 199.62 109.955 195.858 106.832C189.561 101.606 194.343 107.543 193.55 109.666C192.54 112.397 185.799 111.192 183.356 106.533C181.924 103.812 181.13 100.772 172.215 96.2574C171.659 93.8766 170.391 88.7851 171.555 87.6823C175.204 84.2399 185.366 75.2011 196.765 75.9844C202.506 76.376 214.884 79.3752 218.976 80.9728C219.831 81.3129 220.182 82.2508 220.202 82.1168C220.378 83.0959 220.068 84.1884 219.244 84.9099C218.224 85.8168 216.935 86.8887 215.461 88.0431C216.997 89.9498 218.285 91.6503 219.213 92.9593C220.233 94.361 219.666 96.4326 218.1 97.1231L218.11 97.1334Z" fill="#828DFF"/>
<path d="M88.9178 63.3386C86.0423 73.068 82.1258 77.3349 67.944 73.1504C53.7622 68.966 52.7831 63.2561 55.6483 53.5268C58.5135 43.7974 69.5518 33.8413 78.7349 36.5519C87.9181 39.2625 91.783 53.6195 88.9075 63.3489L88.9178 63.3386Z" fill="#3647FF"/>
<path d="M88.588 63.3069C85.8774 72.5003 82.167 76.5405 68.7582 72.5827C55.3494 68.625 54.4218 63.2244 57.1428 54.0207C59.8534 44.8272 70.2836 35.407 78.972 37.9734C87.6604 40.5397 91.3089 54.1031 88.5983 63.3069H88.588Z" fill="white"/>
<path d="M73.9764 71.5161C79.9458 68.2669 82.151 60.7937 78.9018 54.8243C75.6525 48.8549 68.1794 46.6498 62.2099 49.899C56.2405 53.1482 54.0354 60.6214 57.2846 66.5908C60.5338 72.5602 68.007 74.7654 73.9764 71.5161Z" fill="#E80083"/>
<path d="M77.9616 63.7088C76.3023 69.1609 70.5306 72.2323 65.0784 70.5729C59.6263 68.9136 56.5549 63.1419 58.2143 57.6898C59.8736 52.2376 65.6453 49.1662 71.0975 50.8256C76.5496 52.485 79.621 58.2566 77.9616 63.7088Z" fill="#00074D"/>
<path d="M64.9649 55.3193C65.6142 55.1647 66.4284 56.216 66.7789 57.6589C67.1293 59.1121 66.8819 60.4107 66.2326 60.5756C65.5833 60.7302 64.7691 59.679 64.4187 58.236C64.0682 56.7828 64.3156 55.4842 64.9649 55.3193Z" fill="white"/>
<path d="M64.1199 51.8358C64.7692 51.6812 65.4082 52.0007 65.5422 52.5572C65.6762 53.1138 65.2536 53.691 64.6043 53.8456C63.955 54.0002 63.316 53.6807 63.182 53.1241C63.048 52.5675 63.4706 51.9904 64.1199 51.8358Z" fill="white"/>
<path d="M106.975 68.0998C100.945 78.8186 100.564 85.8477 116.189 94.6288C131.813 103.41 137.616 99.4317 143.645 88.7129C149.675 77.9941 148.994 59.9782 138.873 54.289C128.752 48.5998 113.014 57.381 106.985 68.0998H106.975Z" fill="#3647FF"/>
<path d="M107.274 68.3677C101.574 78.5093 101.214 85.1467 115.983 93.4435C130.762 101.751 136.235 97.9887 141.935 87.847C147.634 77.7054 146.995 60.679 137.42 55.299C127.846 49.9189 112.973 58.226 107.274 68.3574V68.3677Z" fill="white"/>
<path d="M133.706 81.1555C133.847 72.9088 127.276 66.1092 119.029 65.9681C110.783 65.827 103.983 72.3979 103.842 80.6447C103.701 88.8914 110.272 95.691 118.518 95.8321C126.765 95.9732 133.565 89.4022 133.706 81.1555Z" fill="#E80083"/>
<path d="M118.776 93.5057C125.737 93.5057 131.381 87.8623 131.381 80.9008C131.381 73.9393 125.737 68.2959 118.776 68.2959C111.814 68.2959 106.171 73.9393 106.171 80.9008C106.171 87.8623 111.814 93.5057 118.776 93.5057Z" fill="#00074D"/>
<path d="M116.168 73.0263C115.519 72.9439 114.839 74.0364 114.653 75.4793C114.468 76.9222 114.839 78.159 115.488 78.2415C116.137 78.3239 116.818 77.2314 117.003 75.7885C117.189 74.3456 116.818 73.1088 116.168 73.0263Z" fill="white"/>
<path d="M116.621 69.5639C115.972 69.4815 115.385 69.8628 115.313 70.4091C115.24 70.9656 115.704 71.481 116.354 71.5634C117.003 71.6459 117.59 71.2645 117.662 70.7183C117.735 70.1617 117.271 69.6464 116.621 69.5639Z" fill="white"/>
<path d="M29.4284 82.5082C32.0462 68.481 69.0364 62.5135 89.5258 71.8203C107.573 80.014 127.949 103.049 136.555 106.852C146.243 111.14 121.579 154.468 87.279 152.788C78.4257 152.356 63.8213 148.501 47.5473 131.33C27.1609 109.831 26.8208 96.5251 29.4387 82.5082H29.4284Z" fill="#6B78FF"/>
<mask id="mask2_21_12210" style="mask-type:luminance" maskUnits="userSpaceOnUse" x="28" y="67" width="111" height="86">
<path d="M29.4284 82.5089C32.0462 68.492 69.0364 62.5142 89.5258 71.821C107.562 80.0147 127.949 103.05 136.555 106.853C146.243 111.14 121.579 154.469 87.279 152.789C78.4257 152.356 63.8213 148.502 47.5473 131.331C27.1609 109.832 26.8208 96.5258 29.4387 82.5089" fill="white"/>
</mask>
<g mask="url(#mask2_21_12210)">
<path d="M112.819 85.2293C113.324 77.8395 102.924 73.9539 97.6474 71.1403C90.4328 67.2856 82.8884 64.1318 74.973 62.0705C69.9125 60.7513 46.125 57.3398 39.2608 63.3897C34.9424 63.3176 32.5513 69.8726 37.2717 71.6041C40.1884 72.6759 42.7856 75.7473 44.9191 77.9013C47.3824 80.4058 51.4225 83.5081 54.7 84.6521C61.8321 87.136 67.1812 86.9402 74.6638 87.2494C82.6204 87.5689 90.1545 88.2388 97.8844 90.228C103.254 91.6091 112.262 93.3921 112.829 85.2396L112.819 85.2293Z" fill="#828DFF"/>
<path d="M76.0245 96.5666C76.1069 95.8142 75.6637 93.4231 73.1902 92.5574C70.7166 91.6916 69.3767 92.949 68.2018 94.0415C67.5113 94.6805 69.5726 95.402 70.5311 95.2989H70.6135C70.7063 95.2989 70.799 95.3195 70.8815 95.3401C71.1907 95.4535 70.7887 97.051 70.8506 97.4736C70.9124 97.8858 71.6957 99.3391 73.5818 99.3391C75.8492 99.3391 75.9626 97.051 76.0245 96.5666Z" fill="#99A2FF"/>
<path d="M49.5775 85.1366C49.4023 83.9616 48.4747 82.9722 47.5471 82.5187C46.6195 82.0652 45.6816 81.7663 44.8159 81.9106C44.2593 82.0034 42.8886 82.0549 42.0022 83.5081C41.5796 84.209 41.0952 85.219 41.693 85.7756C44.5788 88.4656 47.846 87.0948 48.2583 86.9917C49.0725 86.7959 49.7012 85.992 49.5775 85.1263V85.1366Z" fill="#99A2FF"/>
<path d="M141.203 105.812C137.874 105.554 134.947 103.349 132.319 101.463C129.495 99.422 126.825 97.1855 124.207 94.8871C119.157 90.4553 114.241 85.8586 108.758 81.9421C98.3586 74.5111 86.4957 69.028 73.9218 66.5235C66.9236 65.1321 59.7296 64.7302 52.6181 65.4001C50.3919 65.6165 50.7733 69.0589 52.9995 68.8528C65.4807 67.6675 78.0444 70.0793 89.5156 75.0161C95.2975 77.5 100.801 80.5919 105.944 84.2095C111.438 88.0745 116.354 92.6094 121.383 97.0412C124.249 99.5663 127.155 102.04 130.268 104.266C133.339 106.472 136.781 108.945 140.677 109.254C142.883 109.43 143.429 105.998 141.193 105.822L141.203 105.812Z" fill="#1C30FF"/>
<path d="M93.236 146.935C86.2997 147.904 79.8581 144.399 79.5695 144.688C79.2397 145.018 85.8153 149.408 93.6792 148.604C100.265 147.934 105.367 142.523 105.047 142.173C104.779 141.884 99.7394 146.028 93.236 146.935Z" fill="#1C30FF"/>
<path d="M46.0222 71.6969C45.1564 71.6763 45.2904 73.6449 47.8465 76.9739C50.3922 80.3029 53.8655 82.8486 61.482 83.1166C62.4302 83.1475 73.9323 83.4979 73.2418 81.4366C72.881 80.3647 63.2032 78.6332 56.5761 76.3349C50.4849 74.222 48.7637 71.7588 46.0325 71.7072L46.0222 71.6969Z" fill="#919BFF"/>
</g>
<path d="M116.55 123.394C115.055 125.496 113.664 127.403 112.324 129.114C105.944 135.937 101.698 140.235 92.6799 141.544C91.9378 141.647 91.1648 141.729 90.3712 141.791C80.0028 142.636 71.3041 136.463 65.8726 133.412C64.1101 132.422 64.7492 129.794 66.7795 129.629H66.8723C68.3564 129.434 78.3126 129.836 90.2682 128.073C92.247 127.785 94.298 127.424 96.3593 126.991C102.481 125.734 108.82 123.837 114.612 120.962C114.849 120.848 115.076 120.766 115.303 120.745C115.89 120.683 116.426 120.869 116.828 121.219L116.931 121.312L117.106 121.559C117.467 122.209 117.251 122.435 116.56 123.384L116.55 123.394Z" fill="#00074D"/>
<path d="M95.0606 128.362C95.0503 128.785 94.9781 129.723 94.6174 130.506C94.3185 131.135 93.8238 131.877 93.463 132.361C93.2363 132.67 92.7931 132.722 92.4942 132.485C92.0511 132.124 91.4224 131.588 90.9689 131.032C90.4226 130.362 90.1237 129.537 89.9897 129.084C91.6388 128.898 93.3394 128.651 95.0606 128.352V128.362Z" fill="white"/>
<path d="M84.3728 129.496C84.2801 129.908 84.043 130.815 83.5483 131.527C83.1464 132.093 82.5177 132.732 82.0745 133.145C81.7962 133.413 81.353 133.382 81.1057 133.093C80.7346 132.66 80.2193 132.021 79.8586 131.382C79.436 130.63 79.2917 129.764 79.2505 129.3C80.9098 129.414 82.6207 129.486 84.3728 129.496Z" fill="white"/>
<path d="M116.725 123.518C109.417 132.99 104.769 141.153 91.587 142.472C82.2389 143.987 73.6845 138.855 66.2947 133.887C65.8206 133.588 65.1816 133.248 64.9446 132.64C64.388 131.475 65.0991 129.96 66.3256 129.671C80.4971 128.651 94.7614 126.909 108.418 122.787C110.386 122.168 112.355 121.467 114.251 120.633C114.849 120.344 115.612 120.189 116.302 120.457C116.879 120.694 117.322 121.148 117.498 121.725C117.745 122.426 117.075 123.044 116.725 123.518ZM116.374 123.271C116.611 122.818 117.106 122.416 116.931 121.931C116.704 121.385 116.096 120.993 115.364 121.169C114.766 121.292 112.973 122.405 112.241 122.715C104.697 126.6 96.3177 128.6 87.9178 129.455C81.971 130.012 75.8798 129.95 69.9123 129.754C68.9435 129.754 67.2944 129.558 66.3462 129.775C65.1816 130.063 64.5632 131.547 65.161 132.537C65.429 133.052 65.9443 133.279 66.4905 133.567C73.2104 137.236 80.2292 140.772 87.9384 141.04C101.677 141.297 109.221 134.227 116.374 123.281V123.271Z" fill="#1C30FF"/>
<path d="M65.3056 97.8446C64.5841 97.9579 64.1306 97.0819 64.646 96.5665C66.4496 94.7835 69.49 92.5058 71.9121 94.3506C75.6018 97.154 73.6642 98.9061 72.0357 98.329C70.665 97.8446 68.851 97.2777 65.3056 97.8446Z" fill="#00074D"/>
<path d="M48.0522 90.8875C48.4027 91.475 49.2993 91.207 49.3509 90.4856C49.5364 87.9811 49.3303 84.2707 46.5681 83.7966C42.3527 83.0855 42.2806 85.6621 43.672 86.4248C44.8469 87.0638 46.331 87.9708 48.0625 90.8772L48.0522 90.8875Z" fill="#00074D"/>
<path d="M74.5709 92.0215C78.508 92.2482 79.9097 96.9686 77.3022 99.5556C76.5292 100.339 75.4367 100.854 74.3545 100.761C78.1576 99.0299 78.6935 93.9076 74.5709 92.0215Z" fill="#1C30FF"/>
<path d="M46.2796 81.3127C43.5175 78.8391 39.4258 81.1478 39.4464 84.6726C39.4464 85.7239 39.8174 86.8164 40.6007 87.476C39.2196 83.745 42.291 79.8492 46.2899 81.3127H46.2796Z" fill="#1C30FF"/>
<path d="M125.929 113.284C121.971 115.314 121.136 111.738 117.003 106.327C113.107 101.225 109.644 99.3389 110.469 97.7723C111.912 95.0308 116.055 97.1745 120.878 101.411C125.712 105.647 128.68 111.872 125.929 113.294V113.284Z" fill="#828DFF"/>
<path d="M196.26 81.7353C199.425 82.4052 208.762 84.1986 213.029 86.4557C217.193 88.651 219.698 92.9385 219.388 93.2271C218.863 93.7218 215.348 85.7652 198.456 83.7039C192.746 83.003 181.79 82.9515 177.41 83.2504C176.492 83.3122 175.874 84.1058 175.884 83.9718C175.977 83.3431 176.194 83.0546 177.039 82.7557C181.13 81.3024 191.21 80.6737 196.26 81.7353Z" fill="#6E7BFF"/>
<path d="M190.922 89.9805C193.756 90.9906 201.816 94.0929 205.206 97.0921C208.525 100.009 209.927 104.575 209.576 104.791C208.999 105.152 209.721 97.6486 192.612 91.5574C187.593 89.7744 177.739 87.507 173.73 86.8989C172.895 86.7752 171.999 87.1875 172.04 87.0638C172.246 86.4763 172.298 86.4763 173.132 86.3939C175.967 86.1156 186.768 88.5067 190.911 89.9805H190.922Z" fill="#6E7BFF"/>
<path d="M220.223 82.1168C220.192 82.2611 219.842 81.3232 218.997 80.9831C214.905 79.3856 202.527 76.3761 196.786 75.9947C185.387 75.2114 175.204 84.2297 171.576 87.6927C170.7 88.5275 171.473 92.7532 172.03 95.134C172.215 95.8555 172.318 96.3399 172.277 96.3708C172.092 96.5357 171.741 95.7627 171.37 94.6084C170.69 92.5161 170.133 90.2693 170.03 88.8779C169.886 86.7135 180.316 78.4065 183.285 77.046C189.736 74.0983 196.271 73.6552 199.445 74.3251C204.3 75.3351 215.06 77.7881 219.007 80.2926C219.182 80.4163 219.337 80.5193 219.491 80.6327C220.203 81.1686 220.337 81.4984 220.223 82.1168Z" fill="#1C30FF"/>
<path d="M117.941 120.849C111.644 119.045 109.644 113.737 109.17 113.861C108.614 114.016 109.964 120.086 116.838 122.385C122.599 124.312 131.339 121.766 131.391 121.364C131.432 121.034 123.857 122.539 117.951 120.849H117.941Z" fill="#1C30FF"/>
<path d="M111.86 4.24033C111.86 4.24033 118.786 5.51834 124.764 9.87801C130.329 13.9491 137.008 20.8854 137.791 25.2245C138.977 31.8825 136.122 30.5942 134.617 29.6563C130.597 27.1415 131.391 17.309 121.383 9.92954C114.725 5.02363 106.459 3.38489 111.86 4.23002V4.24033Z" fill="#FF87CB"/>
<path d="M147.005 6.93047C148.345 7.22936 153.756 16.8763 154.385 25.7502C154.911 33.1812 154.581 35.6239 151.819 34.8818C148.253 33.913 152.303 28.5639 151.736 22.9468C150.365 9.20822 145.655 6.64189 146.995 6.94078L147.005 6.93047Z" fill="#FF87CB"/>
<path d="M93.2984 141.246C91.3092 139.123 91.9997 130.115 91.9997 130.115C91.9997 130.115 93.6179 128.301 96.8335 131.001C96.8335 131.001 96.9778 131.238 97.1633 131.65C97.9569 133.32 99.5751 137.917 95.6895 141.04C94.6279 141.895 93.8446 141.854 93.2984 141.246Z" fill="#293CFF"/>
<path d="M93.2984 141.246C91.938 138.278 92.5048 130.888 92.5048 130.888C92.5048 130.888 94.0714 129.126 97.1634 131.651C97.452 132.259 97.8642 133.269 98.0497 134.444C98.4002 136.485 98.1425 139.061 95.6895 141.04C94.8135 141.751 94.1229 141.844 93.5973 141.504C93.4839 141.432 93.3809 141.349 93.2984 141.246Z" fill="#4F5FFF"/>
<path d="M98.0498 134.444C98.4002 136.485 98.1426 139.061 95.6896 141.04C95.6175 141.102 95.5453 141.153 95.4835 141.205C94.9166 140.504 94.3704 139.814 93.8447 139.154C94.1024 137.196 94.5559 134.815 95.3289 133.485C95.8751 132.98 96.545 132.96 97.3696 133.692C97.6375 133.939 97.8643 134.186 98.0601 134.454L98.0498 134.444Z" fill="#7B87FF"/>
<path d="M145.14 199.354C144.295 199.457 143.419 199.622 142.481 199.694C141.491 199.776 140.347 199.714 139.059 199.529C135.05 198.911 110.335 187.625 100.152 179.524C99.5745 179.07 99.0695 178.638 98.5851 178.215C92.5455 172.67 82.7336 163.765 77.0753 155.87C76.2611 154.747 75.5397 153.644 74.911 152.562C73.4474 150.047 72.6023 147.687 72.6435 145.719C72.6435 145.481 72.6641 145.224 72.7054 144.997C72.7672 144.554 72.8394 144.131 72.9424 143.709C73.0455 143.214 73.1692 142.75 73.2928 142.286C73.3753 142.049 73.4577 141.802 73.5505 141.544C73.9318 140.452 74.4369 139.473 75.014 138.597C75.1377 138.37 75.2923 138.174 75.4263 137.968C76.2817 136.824 77.2609 135.886 78.2915 135.165C78.5595 134.979 78.7862 134.835 79.0336 134.68C79.1985 134.577 79.3531 134.495 79.5283 134.412C80.3837 133.959 81.2598 133.619 82.1359 133.382H82.1565C82.4141 133.299 82.6924 133.248 82.9398 133.196C84.259 132.938 85.537 132.928 86.6501 133.114C86.9593 133.175 87.2479 133.248 87.5159 133.33C87.6499 133.361 87.7941 133.412 87.9075 133.464C88.124 133.536 88.2992 133.608 88.4847 133.711C89.7936 134.371 90.9479 135.113 91.9477 135.907C92.1229 136.041 92.2775 136.185 92.4321 136.309V136.329C93.0299 136.803 93.5452 137.277 94.0296 137.782C94.9263 138.659 95.658 139.576 96.328 140.431L96.3486 140.452C97.6472 142.152 98.616 143.729 99.5745 144.801C100.76 146.141 103.8 150.748 107.243 155.52C110.314 159.828 113.715 164.219 116.405 166.476C116.745 166.764 117.096 167.043 117.446 167.311C128.309 175.783 144.14 178.462 146.49 179.74C146.892 179.957 147.304 180.245 147.83 180.864C148.582 181.75 149.551 183.317 151.025 186.347C151.386 187.089 151.921 188.47 152.189 190.078C152.839 193.726 152.158 198.498 145.129 199.354H145.14Z" fill="#6B78FF"/>
<path opacity="0.13" d="M145.14 199.354C144.295 199.457 143.419 199.622 142.481 199.694C141.491 199.776 140.347 199.715 139.059 199.529C135.05 198.911 110.335 187.625 100.152 179.524C99.5746 179.071 99.0696 178.638 98.5852 178.215C92.5456 172.67 82.7338 163.765 77.0755 155.871C76.2612 154.747 75.5398 153.644 74.9111 152.562C74.8802 151.356 75.0966 150.253 75.6016 149.213C79.7449 140.813 92.0612 136.855 101.626 152.212C111.2 167.579 124.063 178.339 131.226 182.956C138.441 187.615 145.624 190.964 152.2 190.078C152.849 193.726 152.169 198.498 145.14 199.354Z" fill="#293CFF"/>
<path d="M77.0757 155.871C106.367 189.078 139.059 199.539 142.481 199.694C141.492 199.777 140.348 199.715 139.059 199.529C135.06 198.911 110.345 187.625 100.152 179.524C99.5749 179.071 99.0698 178.638 98.5854 178.205C92.5458 172.66 82.734 163.765 77.0757 155.86V155.871Z" fill="#4F5FFF"/>
<path d="M79.9205 139.132C81.1779 136.783 77.7767 129.795 76.7976 128.445C75.7772 127.043 71.531 128.403 71.3042 131.011C71.263 131.248 71.2836 131.475 71.3248 131.712C72.3039 137.02 76.2204 140.874 79.1784 139.792C79.5185 139.668 79.7762 139.431 79.9308 139.132H79.9205Z" fill="#293CFF"/>
<path d="M79.9205 139.132C80.1884 136.246 77.4057 130.609 76.5296 129.403C75.6433 128.176 72.3142 129.053 71.3042 131.011C71.263 131.248 71.2836 131.475 71.3248 131.712C71.5103 132.722 71.8092 133.68 72.1803 134.546C73.7262 138.205 76.6327 140.544 78.9929 139.854L79.1784 139.792C79.5185 139.668 79.7762 139.431 79.9308 139.132H79.9205Z" fill="#4F5FFF"/>
<path d="M78.5598 139.277C79.9203 138.287 77.725 132.99 75.9419 131.114C75.674 130.836 74.8495 130.011 73.9013 130.32C72.9531 130.629 72.4583 131.753 72.5511 132.897C72.8397 136.226 77.1993 140.256 78.5598 139.266V139.277Z" fill="#7B87FF"/>
<path d="M87.2792 135.464C88.9797 133.413 87.0524 125.879 86.3516 124.364C85.6404 122.787 81.1983 123.271 80.4562 125.776C80.3738 125.992 80.3429 126.219 80.3429 126.466C80.2398 131.867 83.3111 136.422 86.4237 135.948C86.7741 135.897 87.073 135.711 87.2895 135.453L87.2792 135.464Z" fill="#293CFF"/>
<path d="M87.2792 135.463C88.114 132.691 86.5165 126.61 85.8981 125.249C85.2797 123.879 81.8373 124.064 80.4666 125.775C80.3841 125.992 80.3532 126.218 80.3532 126.466C80.3326 127.496 80.4356 128.486 80.6212 129.413C81.4045 133.309 83.7853 136.185 86.2382 135.979L86.434 135.958C86.7845 135.906 87.0834 135.721 87.2998 135.463H87.2792Z" fill="#4F5FFF"/>
<path d="M85.9184 135.339C87.4438 134.639 86.3616 129.011 84.9805 126.816C84.7744 126.496 84.1251 125.517 83.1357 125.631C82.1462 125.744 81.4351 126.744 81.3011 127.888C80.9197 131.207 84.3827 136.03 85.9184 135.339Z" fill="#7B87FF"/>
<path d="M66.7175 139.947C66.7175 139.947 66.6969 139.833 66.6969 139.782C66.5011 138.153 68.4903 135.639 70.7886 137.865C72.7469 139.741 74.5505 143.07 74.6227 144.337C74.633 144.409 74.6536 144.471 74.633 144.533C74.633 144.616 74.6124 144.667 74.5814 144.708C74.1383 145.378 72.8602 145.76 72.551 145.718C70.8917 145.667 69.6961 144.966 68.2944 143.358C67.4287 142.348 66.9649 141.06 66.7072 139.936L66.7175 139.947Z" fill="#293CFF"/>
<path d="M67.3976 141.915C67.0781 141.256 66.872 140.565 66.7174 139.936C66.7174 139.885 66.6968 139.823 66.6968 139.771C67.3564 138.576 68.8302 137.772 70.4793 139.339C72.386 141.194 74.4164 143.337 74.6328 144.327C74.6431 144.399 74.6637 144.461 74.6431 144.523C74.6431 144.605 74.6225 144.657 74.5916 144.698C74.4576 144.925 74.1999 145.12 73.9217 145.265C73.396 145.574 72.757 145.729 72.5612 145.708C70.9018 145.656 69.7063 144.956 68.3046 143.348C67.913 142.905 67.6244 142.41 67.3976 141.905V141.915Z" fill="#4F5FFF"/>
<path d="M67.3979 141.915C67.5216 141.091 69.2944 139.967 70.5621 141.183C72.108 142.688 73.7468 144.409 73.922 145.223C73.9323 145.244 73.922 145.254 73.922 145.275C73.3964 145.584 72.7574 145.739 72.5615 145.718C70.9022 145.667 69.7066 144.966 68.3049 143.358C67.9133 142.915 67.6247 142.42 67.3979 141.915Z" fill="#7B87FF"/>
<g style="mix-blend-mode:screen" opacity="0.22">
<path d="M147.84 180.864C147.84 180.864 142.254 182.554 129.134 175.69C109.778 165.559 107.15 156.015 107.253 155.52C110.325 159.828 113.726 164.219 116.416 166.476C116.756 166.764 117.106 167.043 117.457 167.311C128.32 175.783 144.151 178.462 146.501 179.74C146.903 179.957 147.315 180.245 147.84 180.864Z" fill="#B3B9FF"/>
</g>
</g>
</svg>
