<svg width="147" height="228" viewBox="0 0 147 228" fill="none" xmlns="http://www.w3.org/2000/svg">
<g style="mix-blend-mode:multiply" opacity="0.41">
<path d="M121.675 203.069C136.876 203.459 136.806 204.359 138.486 203.069C140.166 201.779 138.996 197.469 142.826 198.489C146.656 199.509 143.476 202.619 142.896 203.389C142.316 204.159 147.796 204.259 146.556 206.909C145.306 209.549 142.676 207.939 139.036 207.249C135.386 206.559 123.765 213.459 119.765 215.66C103.285 224.71 43.9124 235.13 15.2013 221.27C11.2911 219.38 1.28076 211.079 22.9316 207.809C44.5824 204.539 106.495 202.679 121.695 203.059L121.675 203.069Z" fill="#4A55C4"/>
</g>
<g style="mix-blend-mode:multiply" opacity="0.41">
<path d="M21.7015 215.49C22.3615 219.97 38.3922 222.1 63.7231 221.56C89.0541 221.02 105.615 219.58 105.615 214.62C105.615 211.699 88.7941 207.799 63.4631 208.339C38.1322 208.879 21.2815 212.6 21.7015 215.48V215.49Z" fill="#4A55C4"/>
</g>
<mask id="mask0_20_10955" style="mask-type:luminance" maskUnits="userSpaceOnUse" x="74" y="74" width="42" height="37">
<path d="M112.515 82.2849C110.635 79.4548 113.195 76.3647 112.735 75.6346H112.705C112.625 75.6346 112.045 75.2346 111.315 75.0846C103.485 73.5745 95.8643 76.5347 91.0041 78.1447C81.3538 81.3248 76.3536 92.4053 74.5135 96.4254C73.9235 97.7055 76.6736 101.406 77.9536 103.146H77.9736C86.834 103.826 88.224 106.446 90.6141 107.756C101.355 113.686 102.145 107.006 106.135 103.696C108.485 101.736 110.605 103.566 112.575 100.276C114.035 97.8455 112.145 95.9354 113.045 92.6353C113.675 90.3352 116.185 88.4251 115.985 86.8551C115.655 84.225 113.365 83.5649 112.525 82.2949" fill="white"/>
</mask>
<g mask="url(#mask0_20_10955)">
<path d="M132.716 85.8949C130.966 87.6949 128.555 90.035 125.695 92.4851C123.885 94.0352 123.705 96.7353 125.295 98.4954C126.705 100.025 128.025 102.015 127.385 103.896C125.985 108.016 121.635 110.656 109.745 109.286C106.805 108.946 108.195 110.936 108.305 113.986C108.445 117.886 99.3443 119.846 93.8641 115.326C90.664 112.686 88.0839 109.326 74.5634 108.296H74.5334C72.5933 105.606 68.3831 99.9754 69.2832 98.0153C72.0933 91.8851 79.7236 74.9745 94.4641 70.1043C101.884 67.6442 113.505 63.124 125.465 65.4341C126.585 65.6441 127.465 66.2741 127.585 66.2441L127.625 66.2641C128.325 67.3842 128.485 68.8642 127.835 70.1743C127.495 70.8643 127.115 71.6043 126.685 72.4044C125.625 74.4044 126.345 76.8845 128.325 78.0146C129.705 78.8046 130.926 79.5346 131.956 80.1647C133.966 81.3747 134.326 84.2348 132.706 85.8949" fill="#828DFF"/>
<path d="M77.6735 93.4749C79.0136 92.5249 80.4936 91.7649 81.9937 91.1148C85.0938 89.7748 88.3939 88.9647 91.714 88.4047C99.0543 87.1747 106.605 86.8147 114.045 87.0447C118.385 87.1847 122.715 87.5547 127.015 88.1347C128.185 88.2947 128.445 86.5046 127.275 86.3446C119.325 85.2646 111.265 84.9346 103.244 85.3746C99.4443 85.5846 95.6342 85.9346 91.8741 86.5447C88.3639 87.1147 84.8538 87.9447 81.5737 89.3248C80.7436 89.6748 79.9136 90.0648 79.1036 90.4948C79.4636 89.9248 79.8536 89.3648 80.2936 88.8347C81.3236 87.6047 82.4737 86.4646 83.6037 85.3146C84.8638 84.0246 86.1638 82.4945 87.6939 81.3845C88.4939 80.9444 89.304 80.5244 90.124 80.1344C90.234 80.0844 90.334 80.0144 90.414 79.9544C92.2441 79.2544 94.1341 78.7244 96.0142 78.1743C98.1043 77.5643 100.204 77.0043 102.324 76.5043C102.774 76.3943 103.224 76.2943 103.675 76.1943C107.125 75.7042 110.615 75.4942 114.105 75.6742C118.725 75.9142 123.305 76.7443 127.695 78.1843C128.285 78.3743 128.945 78.1843 129.205 77.5943C129.435 77.0743 129.205 76.3043 128.615 76.1143C125.865 75.2142 123.055 74.5442 120.215 74.0942C121.095 74.0742 121.975 74.0742 122.865 74.0942C123.485 74.1042 124.065 73.7842 124.165 73.1341C124.245 72.5841 123.815 71.8741 123.195 71.8641C116.565 71.7041 109.995 72.5341 103.544 73.9542C103.374 73.9742 103.204 73.9942 103.034 74.0242C98.8943 74.6342 94.6442 75.4342 90.734 76.9543C87.6839 78.1343 84.9538 79.9044 82.5437 82.0645C81.9937 82.5145 81.4737 82.9945 81.0036 83.5445C80.9636 83.5845 80.9336 83.6245 80.9036 83.6645C78.4735 86.2046 76.4935 89.1448 74.8934 92.2549C74.7134 92.3349 74.5634 92.4449 74.4334 92.5949C74.3834 92.6649 74.3334 92.7349 74.2834 92.8049C74.1834 92.9249 74.1134 93.0549 74.0934 93.2049C74.0334 93.3449 74.0234 93.4949 74.0534 93.6549C74.0634 93.8049 74.1134 93.9449 74.2034 94.0649C74.2334 94.1349 74.2734 94.1949 74.3234 94.2449C73.8134 94.945 73.4233 95.735 73.2333 96.615C73.1733 96.875 73.2333 97.0851 73.3433 97.2451C73.3233 97.2851 73.3033 97.3351 73.2733 97.3751C72.8733 97.6151 72.6433 98.0551 72.8333 98.5151C72.9433 98.7851 73.2133 98.9951 73.5133 99.0651C73.9134 99.2751 74.4234 99.2251 74.6634 98.7651C75.5634 98.5051 76.4535 98.6551 77.4235 98.8851C78.7336 99.2051 80.0336 99.5251 81.3336 99.8852C83.9137 100.595 86.4138 101.505 88.7739 102.755C93.2841 105.145 97.3043 108.335 101.974 110.456C104.695 111.686 107.535 112.626 110.445 113.306C110.925 113.416 111.415 112.986 111.485 112.536C111.565 112.016 111.195 111.626 110.705 111.516C105.505 110.316 100.764 108.085 96.3042 105.245C94.0641 103.825 91.854 102.345 89.514 101.105C87.1239 99.8352 84.5838 98.9251 81.9637 98.2051C80.4836 97.7951 78.9836 97.4151 77.4835 97.0551C77.0935 96.965 76.7135 96.895 76.3335 96.855C76.8135 96.585 77.3535 96.395 77.8935 96.275C79.4636 95.905 81.1136 95.765 82.7137 95.665C86.0538 95.455 89.414 95.645 92.7241 96.085C99.5743 96.995 106.205 98.9651 112.795 100.945C116.605 102.085 120.415 103.225 124.275 104.185C124.755 104.305 125.245 103.865 125.315 103.415C125.395 102.885 125.015 102.515 124.535 102.395C110.685 98.9451 97.0742 92.9549 82.4837 93.8749C80.5636 93.9949 78.0435 94.1249 76.0534 94.975C76.5335 94.415 77.1335 93.9249 77.7235 93.5049" fill="#4555FF"/>
<path d="M77.3335 98.855C77.3335 98.855 77.3635 98.855 77.3835 98.865C78.0735 99.035 78.7635 99.205 79.4535 99.375C79.4635 99.375 79.4735 99.375 79.4935 99.375C79.5035 99.375 79.5235 99.375 79.5335 99.385C79.5635 99.385 79.5835 99.395 79.6135 99.405C79.6135 99.405 79.6135 99.405 79.6235 99.405C79.9135 99.475 80.2035 99.555 80.4935 99.625C80.4035 100.785 80.4235 102.835 80.4335 103.895C80.3835 103.865 77.4035 103.815 77.3535 103.785C76.4035 102.395 70.8535 97.065 77.3535 98.835M81.0135 95.765C80.8735 96.475 80.7635 97.165 80.6735 97.845C80.5535 97.815 80.4335 97.785 80.3135 97.755C80.3135 97.755 80.3135 97.755 80.3035 97.755C80.2835 97.755 80.2635 97.755 80.2435 97.745C80.2335 97.745 80.2135 97.745 80.2035 97.735C80.1835 97.735 80.1635 97.735 80.1435 97.725C80.1235 97.725 80.1035 97.715 80.0735 97.705C80.0635 97.705 80.0535 97.705 80.0435 97.705C80.0235 97.705 79.9935 97.695 79.9735 97.685C79.9735 97.685 79.9735 97.685 79.9635 97.685C79.9335 97.685 79.9035 97.665 79.8735 97.665C79.8735 97.665 79.8735 97.665 79.8635 97.665C79.8335 97.665 79.8035 97.645 79.7735 97.645C79.7035 97.625 79.6435 97.615 79.5735 97.595C79.5035 97.575 79.4435 97.565 79.3735 97.545C79.3035 97.525 79.2435 97.515 79.1735 97.495C79.1735 97.495 79.1735 97.495 79.1635 97.495C79.1335 97.495 79.1035 97.475 79.0735 97.475C79.0435 97.475 79.0135 97.455 78.9835 97.455C78.9835 97.455 78.9735 97.455 78.9635 97.455C78.9435 97.455 78.9135 97.445 78.8935 97.435C78.8935 97.435 78.8835 97.435 78.8735 97.435C78.8435 97.435 78.8135 97.425 78.7835 97.415C78.7835 97.415 78.7635 97.415 78.7535 97.415C78.7335 97.415 78.7135 97.415 78.6935 97.405C78.6835 97.405 78.6735 97.405 78.6535 97.405C78.6335 97.405 78.6035 97.395 78.5835 97.385C78.5735 97.385 78.5535 97.385 78.5435 97.375C78.5335 97.375 78.5135 97.375 78.5035 97.365C78.4835 97.365 78.4735 97.365 78.4535 97.355C78.4435 97.355 78.4335 97.355 78.4135 97.355C78.3835 97.355 78.3535 97.335 78.3235 97.335C78.3235 97.335 78.3035 97.335 78.2935 97.335C78.2735 97.335 78.2535 97.335 78.2335 97.325H78.2135C78.1535 97.315 78.0935 97.295 78.0335 97.285H78.0135C77.9535 97.275 77.8935 97.255 77.8335 97.245C77.8335 97.245 77.8135 97.245 77.8035 97.245C77.7835 97.245 77.7635 97.245 77.7535 97.235C77.7435 97.235 77.7335 97.235 77.7135 97.235C77.6835 97.235 77.6635 97.225 77.6335 97.215C77.6135 97.215 77.6035 97.215 77.5835 97.205C77.5735 97.205 77.5635 97.205 77.5435 97.205C77.5135 97.205 77.4835 97.195 77.4535 97.185C77.4535 97.185 77.4335 97.185 77.4235 97.185C77.0635 97.095 76.6935 97.035 76.3335 96.995C76.3235 96.995 76.3135 96.995 76.3035 96.995C76.7835 96.725 77.3235 96.535 77.8635 96.415C77.8635 96.415 77.8835 96.415 77.8935 96.415C77.8935 96.415 77.8935 96.415 77.9035 96.415C77.9035 96.415 77.9035 96.415 77.9135 96.415C77.9135 96.415 77.9135 96.415 77.9235 96.415C77.9235 96.415 77.9235 96.415 77.9335 96.415C77.9335 96.415 77.9435 96.415 77.9535 96.415H77.9635C77.9635 96.415 77.9735 96.415 77.9835 96.415C77.9835 96.415 77.9935 96.415 78.0035 96.415C78.0035 96.415 78.0135 96.415 78.0235 96.415C78.0635 96.415 78.1035 96.395 78.1435 96.385C78.5635 96.295 78.9935 96.215 79.4235 96.155C79.4435 96.155 79.4535 96.155 79.4735 96.155C79.4735 96.155 79.4835 96.155 79.4935 96.155H79.5135C79.5135 96.155 79.5935 96.145 79.6335 96.135C79.6335 96.135 79.6435 96.135 79.6535 96.135C79.6535 96.135 79.6535 96.135 79.6635 96.135C79.6635 96.135 79.6735 96.135 79.6835 96.135C79.6835 96.135 79.6835 96.135 79.6935 96.135C79.6935 96.135 79.6935 96.135 79.7035 96.135C79.7035 96.135 79.7035 96.135 79.7135 96.135C79.7135 96.135 79.7135 96.135 79.7235 96.135C79.7235 96.135 79.7235 96.135 79.7335 96.135C79.7335 96.135 79.7335 96.135 79.7435 96.135H79.7635C80.1735 96.085 80.5835 96.035 80.9935 96.005M82.2535 91.005C82.1435 91.315 82.0435 91.635 81.9435 91.965C81.7435 92.625 81.5635 93.275 81.4135 93.915C81.3935 93.915 81.3835 93.915 81.3635 93.915C81.3635 93.915 81.3535 93.915 81.3435 93.915C81.1735 93.925 81.0035 93.935 80.8335 93.955C79.3135 94.075 77.6335 94.295 76.2035 94.865C76.1335 94.895 76.0635 94.915 76.0035 94.945C76.4835 94.385 77.0835 93.895 77.6735 93.475C79.0135 92.525 80.4935 91.765 81.9935 91.115C82.0335 91.095 82.0735 91.075 82.1135 91.065C82.1635 91.045 82.2035 91.025 82.2535 91.005ZM87.6835 81.385C86.2135 83.285 84.4935 85.765 83.1735 88.715C83.0535 88.755 82.9435 88.795 82.8235 88.845C82.8235 88.845 82.8035 88.845 82.7935 88.845C82.3935 88.995 82.0035 89.145 81.6135 89.315C81.6035 89.315 81.5835 89.325 81.5735 89.335C80.7435 89.685 79.9135 90.075 79.1035 90.505C79.4635 89.935 79.8535 89.375 80.2935 88.845C81.3235 87.615 82.4735 86.475 83.6035 85.325C84.8635 84.035 86.1635 82.505 87.6935 81.395" fill="#5D68D4"/>
<path d="M79.6132 99.425C79.6132 99.425 79.6132 99.425 79.6232 99.425C79.6232 99.425 79.6232 99.425 79.6132 99.425ZM79.4932 99.395C79.4932 99.395 79.5232 99.395 79.5332 99.405C79.5232 99.405 79.5032 99.405 79.4932 99.395ZM77.3332 98.855C77.3332 98.855 77.3632 98.855 77.3832 98.865C77.3632 98.865 77.3532 98.865 77.3332 98.855ZM80.3132 97.745C80.3132 97.745 80.3132 97.745 80.3232 97.745C80.3232 97.745 80.3232 97.745 80.3132 97.745ZM80.2132 97.725C80.2132 97.725 80.2432 97.725 80.2532 97.735C80.2432 97.735 80.2232 97.735 80.2132 97.725ZM80.0932 97.685C80.0932 97.685 80.1332 97.695 80.1632 97.705C80.1432 97.705 80.1232 97.695 80.0932 97.685ZM79.9832 97.665C79.9832 97.665 80.0332 97.675 80.0532 97.685C80.0332 97.685 80.0032 97.675 79.9832 97.665ZM79.8732 97.635C79.8732 97.635 79.9332 97.655 79.9632 97.655C79.9332 97.655 79.9032 97.635 79.8732 97.635ZM79.7732 97.605C79.7732 97.605 79.8332 97.625 79.8632 97.625C79.8332 97.625 79.8032 97.605 79.7732 97.605ZM79.0632 97.425C79.0632 97.425 79.1232 97.445 79.1532 97.445C79.1232 97.445 79.0932 97.425 79.0632 97.425ZM78.9632 97.405C78.9632 97.405 79.0232 97.425 79.0532 97.425C79.0232 97.425 78.9932 97.405 78.9632 97.405ZM78.8732 97.385C78.8732 97.385 78.9232 97.395 78.9432 97.405C78.9232 97.405 78.8932 97.395 78.8732 97.385ZM78.7632 97.355C78.7632 97.355 78.8232 97.365 78.8532 97.375C78.8232 97.375 78.7932 97.365 78.7632 97.355ZM78.6832 97.335C78.6832 97.335 78.7232 97.335 78.7432 97.345C78.7232 97.345 78.7032 97.345 78.6832 97.335ZM78.5632 97.305C78.5632 97.305 78.6132 97.315 78.6332 97.325C78.6132 97.325 78.5832 97.315 78.5632 97.305ZM78.4832 97.285C78.4832 97.285 78.5132 97.285 78.5232 97.295C78.5132 97.295 78.4932 97.295 78.4832 97.285ZM78.3932 97.265C78.3932 97.265 78.4132 97.265 78.4332 97.265C78.4232 97.265 78.4132 97.265 78.3932 97.265ZM78.2732 97.235C78.2732 97.235 78.2932 97.235 78.3032 97.235C78.3032 97.235 78.2832 97.235 78.2732 97.235ZM77.7732 97.115C77.7732 97.115 77.7932 97.115 77.8032 97.115C77.8032 97.115 77.7832 97.115 77.7732 97.115ZM77.6832 97.095C77.6832 97.095 77.7032 97.095 77.7232 97.095C77.7132 97.095 77.7032 97.095 77.6832 97.095ZM77.5632 97.065C77.5632 97.065 77.5932 97.065 77.6132 97.075C77.5932 97.075 77.5832 97.075 77.5632 97.065ZM77.4432 97.035C77.4432 97.035 77.5032 97.045 77.5332 97.055C77.5032 97.055 77.4732 97.045 77.4432 97.035ZM77.4132 97.025C77.4132 97.025 77.4332 97.025 77.4432 97.025C77.4432 97.025 77.4232 97.025 77.4132 97.025ZM76.3132 96.835C76.6732 96.875 77.0432 96.935 77.4032 97.025C77.1132 96.955 76.8232 96.905 76.5332 96.865C76.4532 96.855 76.3832 96.845 76.3032 96.835M76.2832 96.835C76.2832 96.835 76.3032 96.835 76.3132 96.835C76.3032 96.835 76.2932 96.835 76.2832 96.835ZM77.8732 96.245C77.8732 96.245 77.8532 96.245 77.8432 96.245C77.3032 96.375 76.7632 96.565 76.2832 96.825C76.7632 96.555 77.3032 96.365 77.8432 96.245C77.8432 96.245 77.8632 96.245 77.8732 96.245ZM77.8932 96.235C77.8932 96.235 77.8932 96.235 77.8832 96.235C77.8832 96.235 77.8832 96.235 77.8932 96.235ZM77.9232 96.235C77.9232 96.235 77.9232 96.235 77.9132 96.235C77.9132 96.235 77.9132 96.235 77.9232 96.235ZM77.9432 96.225H77.9332C77.9332 96.225 77.9332 96.225 77.9432 96.225ZM79.6732 95.915C79.6732 95.915 79.6732 95.915 79.6632 95.915C79.6632 95.915 79.6632 95.915 79.6732 95.915ZM79.6932 95.915C79.6932 95.915 79.6932 95.915 79.6832 95.915C79.6832 95.915 79.6832 95.915 79.6932 95.915ZM79.7232 95.905C79.7232 95.905 79.7232 95.905 79.7132 95.905C79.7132 95.905 79.7132 95.905 79.7232 95.905ZM79.7532 95.905C79.7532 95.905 79.7532 95.905 79.7432 95.905C79.7432 95.905 79.7432 95.905 79.7532 95.905ZM79.7832 95.895C79.7832 95.895 79.7732 95.895 79.7632 95.895C79.7632 95.895 79.7732 95.895 79.7832 95.895ZM81.0132 95.765C80.6032 95.805 80.1932 95.845 79.7832 95.895C80.1932 95.845 80.6032 95.795 81.0132 95.765ZM81.3432 93.915C81.3432 93.915 81.3532 93.915 81.3632 93.915C81.3632 93.915 81.3532 93.915 81.3432 93.915ZM80.8332 93.955C81.0032 93.945 81.1732 93.925 81.3432 93.915C81.1732 93.925 81.0032 93.935 80.8332 93.955C79.3132 94.075 77.6332 94.295 76.2032 94.865C77.6332 94.305 79.3132 94.085 80.8332 93.955ZM82.1232 91.065C82.1232 91.065 82.0432 91.105 82.0032 91.115C80.4932 91.765 79.0132 92.525 77.6832 93.475C77.0832 93.895 76.4932 94.385 76.0132 94.945C76.4932 94.385 77.0932 93.895 77.6832 93.475C79.0232 92.525 80.5032 91.765 82.0032 91.115C82.0432 91.095 82.0832 91.075 82.1232 91.065ZM81.6132 89.315C81.6132 89.315 81.5832 89.325 81.5732 89.335C81.5832 89.335 81.6032 89.325 81.6132 89.315ZM82.8132 88.845C82.8132 88.845 82.7932 88.845 82.7832 88.845C82.7832 88.845 82.8032 88.845 82.8132 88.845ZM83.5832 85.315C82.4632 86.465 81.3032 87.605 80.2732 88.835C81.3032 87.605 82.4532 86.465 83.5832 85.315Z" fill="#3745EB"/>
<path d="M90.0635 78.4946C81.0335 82.0646 76.3035 92.5446 74.5235 96.4246C74.4935 96.4946 74.4635 96.5846 74.4535 96.6746C74.3835 97.1646 74.6235 97.8746 75.0135 98.6646C75.4535 98.5946 75.8835 98.6046 76.3335 98.6646C76.6735 98.7146 77.0235 98.7846 77.3835 98.8746C78.4235 99.1246 79.4535 99.3746 80.4835 99.6546C80.5335 99.0646 80.5935 98.4646 80.6735 97.8446C79.5935 97.5646 78.5135 97.2946 77.4335 97.0346C77.1335 96.9646 76.8335 96.9046 76.5435 96.8646C76.4535 96.8546 76.3735 96.8446 76.2835 96.8346C76.7635 96.5646 77.3035 96.3746 77.8435 96.2546C78.8735 96.0046 79.9435 95.8646 81.0135 95.7746C81.1335 95.1746 81.2635 94.5546 81.4135 93.9246C79.6735 94.0446 77.6535 94.2546 75.9935 94.9546C76.4735 94.3946 77.0635 93.9046 77.6635 93.4846C79.0035 92.5346 80.4835 91.7746 81.9835 91.1246C82.0735 91.0846 82.1535 91.0546 82.2435 91.0146C82.5135 90.2246 82.8235 89.4546 83.1535 88.7146C82.6135 88.9046 82.0835 89.1146 81.5535 89.3346C80.7235 89.6846 79.8935 90.0746 79.0835 90.5046C79.4435 89.9346 79.8335 89.3746 80.2735 88.8446C81.3035 87.6146 82.4535 86.4746 83.5835 85.3246C84.8435 84.0346 86.1435 82.5046 87.6735 81.3946C88.6235 80.1746 89.4635 79.2046 90.0535 78.5046" fill="#3A48D6"/>
</g>
<mask id="mask1_20_10955" style="mask-type:luminance" maskUnits="userSpaceOnUse" x="15" y="73" width="43" height="37">
<path d="M19.5813 80.9648C21.5414 78.1947 19.0713 75.0245 19.5513 74.3045H19.5813C19.6613 74.3045 20.2513 73.9245 20.9914 73.8045C28.8617 72.5145 36.392 75.6946 41.2021 77.4446C50.7625 80.9048 55.4327 92.1252 57.1627 96.1854C57.7128 97.4854 54.8527 101.096 53.5326 102.806H53.5126C44.6423 103.236 43.1722 105.806 40.7521 107.056C29.8517 112.676 29.2517 105.976 25.3615 102.546C23.0614 100.526 20.9014 102.286 19.0213 98.9455C17.6312 96.4754 19.5813 94.6153 18.7713 91.2952C18.2113 88.9751 15.7512 86.995 16.0012 85.4249C16.4112 82.8048 18.7113 82.2048 19.5913 80.9648" fill="white"/>
</mask>
<g mask="url(#mask1_20_10955)">
<path d="M-0.709488 83.995C0.990577 85.845 3.33067 88.2551 6.12077 90.7852C7.88084 92.3853 7.99084 95.0954 6.35078 96.7955C4.90073 98.2855 3.52067 100.236 4.1107 102.136C5.39074 106.286 9.67091 109.066 21.5914 108.026C24.5415 107.766 23.0914 109.726 22.8914 112.766C22.6414 116.656 31.6817 118.876 37.292 114.516C40.5621 111.976 43.2322 108.686 56.7827 108.046H56.8127C58.8328 105.416 63.193 99.9056 62.3529 97.9155C59.7128 91.7153 52.5825 74.5846 37.982 69.3044C30.6317 66.6343 19.1513 61.7841 7.12081 63.7442C6.00077 63.9242 5.09073 64.5242 4.97073 64.4942L4.93073 64.5142C4.1907 65.6143 3.99069 67.0843 4.61072 68.4144C4.93073 69.1044 5.29074 69.8644 5.69076 70.6745C6.70079 72.7045 5.90076 75.1646 3.89069 76.2347C2.49063 76.9847 1.25059 77.6747 0.200547 78.2748C-1.83953 79.4248 -2.27955 82.2749 -0.709488 83.975" fill="#828DFF"/>
<path d="M54.0822 93.145C52.7722 92.1649 51.3121 91.3549 49.8221 90.6649C46.762 89.2348 43.4918 88.3248 40.1817 87.6748C32.8814 86.2347 25.3412 85.6547 17.9009 85.6847C13.5607 85.6947 9.22054 85.9447 4.90037 86.4047C3.73033 86.5347 3.52032 84.7347 4.69036 84.6047C12.6707 83.7446 20.731 83.6546 28.7413 84.3246C32.5314 84.6447 36.3316 85.1047 40.0717 85.8147C43.5718 86.4847 47.052 87.4148 50.2921 88.8848C51.1121 89.2548 51.9322 89.6748 52.7322 90.1249C52.3822 89.5448 52.0222 88.9648 51.5922 88.4248C50.6021 87.1647 49.4721 85.9947 48.392 84.8047C47.172 83.4746 45.9219 81.9046 44.4219 80.7545C43.6419 80.2945 42.8418 79.8545 42.0218 79.4345C41.9118 79.3745 41.8218 79.3144 41.7418 79.2444C39.9317 78.4944 38.0516 77.9044 36.1916 77.3044C34.1215 76.6343 32.0314 76.0143 29.9313 75.4543C29.4813 75.3343 29.0313 75.2243 28.5913 75.1043C25.1511 74.5243 21.671 74.2043 18.1809 74.2843C13.5607 74.3943 8.95053 75.0943 4.52036 76.4043C3.93034 76.5743 3.27031 76.3743 3.0303 75.7743C2.82029 75.2443 3.0703 74.4843 3.67033 74.3043C6.45043 73.4842 9.28054 72.8942 12.1306 72.5242C11.2506 72.4842 10.3706 72.4542 9.48055 72.4542C8.86052 72.4542 8.2905 72.1142 8.2105 71.4541C8.1505 70.9041 8.60051 70.2041 9.22054 70.2041C15.8608 70.2341 22.391 71.2541 28.8013 72.8542C28.9713 72.8842 29.1413 72.9042 29.3113 72.9342C33.4315 73.6642 37.6616 74.5843 41.5218 76.2143C44.5319 77.4844 47.222 79.3244 49.5621 81.5545C50.1021 82.0146 50.6121 82.5146 51.0621 83.0746C51.0921 83.1146 51.1321 83.1646 51.1621 83.2046C53.5222 85.8147 55.4223 88.8048 56.9224 91.9649C57.1024 92.0449 57.2524 92.1649 57.3724 92.3149C57.4224 92.3849 57.4724 92.455 57.5124 92.535C57.6124 92.655 57.6724 92.785 57.6924 92.935C57.7424 93.085 57.7524 93.235 57.7224 93.385C57.7024 93.535 57.6524 93.665 57.5624 93.785C57.5324 93.845 57.4924 93.905 57.4424 93.965C57.9324 94.685 58.3024 95.4751 58.4624 96.3651C58.5124 96.6251 58.4524 96.8351 58.3324 96.9951C58.3524 97.0351 58.3724 97.0851 58.3924 97.1351C58.7824 97.3851 59.0024 97.8352 58.8024 98.2852C58.6824 98.5452 58.4024 98.7552 58.1024 98.8152C57.7024 99.0152 57.1924 98.9552 56.9624 98.4752C56.0723 98.1852 55.1723 98.3152 54.2023 98.5252C52.8822 98.8052 51.5722 99.0852 50.2621 99.4052C47.662 100.045 45.1419 100.885 42.7418 102.065C38.1616 104.325 34.0615 107.396 29.3313 109.386C26.5812 110.546 23.7111 111.396 20.781 111.986C20.291 112.086 19.8209 111.636 19.7709 111.186C19.7109 110.666 20.091 110.286 20.581 110.186C25.8112 109.136 30.6114 107.036 35.1515 104.325C37.4316 102.965 39.6817 101.555 42.0618 100.375C44.4919 99.1752 47.052 98.3352 49.6921 97.6852C51.1921 97.3151 52.6922 96.9751 54.2023 96.6651C54.5923 96.5851 54.9723 96.5251 55.3623 96.4951C54.8923 96.2151 54.3623 96.0151 53.8222 95.8651C52.2622 95.4451 50.6221 95.2651 49.0221 95.1251C45.6819 94.815 42.3318 94.915 39.0017 95.2551C32.1314 95.9651 25.4512 97.7452 18.8009 99.5352C14.9608 100.565 11.1206 101.605 7.24046 102.455C6.76044 102.565 6.28043 102.105 6.23042 101.655C6.17042 101.125 6.55044 100.765 7.04045 100.655C20.981 97.6052 34.7615 92.0049 49.3121 93.335C51.2321 93.515 53.7422 93.715 55.7123 94.615C55.2423 94.035 54.6723 93.535 54.0822 93.095" fill="#4555FF"/>
<path d="M54.2721 98.5349C60.8121 96.9449 55.1121 102.115 54.1221 103.485C54.0721 103.515 51.0921 103.485 51.0421 103.505C51.0821 102.455 51.1621 100.395 51.1021 99.2349C51.3921 99.1649 51.6821 99.1049 51.9721 99.0349C51.9721 99.0349 51.9721 99.0349 51.9821 99.0349C52.0121 99.0349 52.0321 99.0249 52.0621 99.0149C52.0721 99.0149 52.0921 99.0149 52.1021 99.0149C52.1121 99.0149 52.1221 99.0149 52.1421 99.0149C52.8321 98.8649 53.5321 98.7149 54.2221 98.5649C54.2421 98.5649 54.2521 98.5649 54.2721 98.5549M50.6821 95.3349C51.0921 95.3849 51.5021 95.4349 51.9021 95.5049C51.9021 95.5049 51.9121 95.5049 51.9221 95.5049C51.9221 95.5049 51.9221 95.5049 51.9321 95.5049C51.9321 95.5049 51.9321 95.5049 51.9421 95.5049C51.9421 95.5049 51.9421 95.5049 51.9521 95.5049C51.9521 95.5049 51.9521 95.5049 51.9621 95.5049C51.9621 95.5049 51.9621 95.5049 51.9721 95.5049C51.9721 95.5049 51.9721 95.5049 51.9821 95.5049C51.9821 95.5049 51.9921 95.5049 52.0021 95.5049C52.0021 95.5049 52.0021 95.5049 52.0121 95.5049C52.0121 95.5049 52.0221 95.5049 52.0321 95.5049C52.0721 95.5049 52.1121 95.5149 52.1521 95.5249H52.1721C52.1721 95.5249 52.1821 95.5249 52.1921 95.5249C52.2121 95.5249 52.2221 95.5249 52.2421 95.5249C52.6721 95.6049 53.0921 95.6849 53.5121 95.7949C53.5521 95.7949 53.5921 95.8149 53.6321 95.8249C53.6321 95.8249 53.6421 95.8249 53.6521 95.8249C53.6521 95.8249 53.6621 95.8249 53.6721 95.8249C53.6721 95.8249 53.6821 95.8249 53.6921 95.8249H53.7021C53.7021 95.8249 53.7121 95.8249 53.7221 95.8249C53.7221 95.8249 53.7221 95.8249 53.7321 95.8249C53.7321 95.8249 53.7321 95.8249 53.7421 95.8249C53.7421 95.8249 53.7421 95.8249 53.7521 95.8249C53.7521 95.8249 53.7521 95.8249 53.7621 95.8249C53.7621 95.8249 53.7821 95.8249 53.7921 95.8249C54.3321 95.9649 54.8621 96.1749 55.3321 96.4549C55.3321 96.4549 55.3121 96.4549 55.3021 96.4549C54.9421 96.4849 54.5721 96.5349 54.2021 96.6149C54.2021 96.6149 54.1821 96.6149 54.1721 96.6149C54.1721 96.6149 54.1121 96.6249 54.0821 96.6349C54.0721 96.6349 54.0621 96.6349 54.0421 96.6349C54.0221 96.6349 54.0121 96.6349 53.9921 96.6449C53.9621 96.6449 53.9421 96.6549 53.9121 96.6649C53.9021 96.6649 53.8921 96.6649 53.8721 96.6649C53.8521 96.6649 53.8321 96.6649 53.8221 96.6749C53.8221 96.6749 53.8021 96.6749 53.7921 96.6749C53.7321 96.6849 53.6721 96.7049 53.6121 96.7149H53.5921C53.5321 96.7249 53.4721 96.7449 53.4021 96.7549H53.3821C53.3621 96.7549 53.3421 96.7549 53.3221 96.7649C53.3221 96.7649 53.3021 96.7649 53.2921 96.7649C53.2621 96.7649 53.2321 96.7749 53.2021 96.7849C53.1921 96.7849 53.1821 96.7849 53.1621 96.7849C53.1421 96.7849 53.1321 96.7849 53.1121 96.7949C53.1021 96.7949 53.0821 96.7949 53.0721 96.7949C53.0621 96.7949 53.0421 96.7949 53.0321 96.7949C53.0121 96.7949 52.9821 96.8049 52.9621 96.8149C52.9521 96.8149 52.9421 96.8149 52.9221 96.8149C52.9021 96.8149 52.8821 96.8149 52.8621 96.8249C52.8621 96.8249 52.8421 96.8249 52.8321 96.8249C52.8021 96.8249 52.7721 96.8349 52.7421 96.8449C52.7421 96.8449 52.7321 96.8449 52.7221 96.8449C52.7021 96.8449 52.6721 96.8549 52.6521 96.8649C52.6521 96.8649 52.6421 96.8649 52.6321 96.8649C52.6021 96.8649 52.5721 96.8749 52.5421 96.8849C52.5121 96.8849 52.4821 96.8949 52.4521 96.9049C52.4521 96.9049 52.4521 96.9049 52.4421 96.9049C52.3721 96.9149 52.3121 96.9349 52.2421 96.9449C52.1721 96.9549 52.1121 96.9749 52.0421 96.9849C51.9721 96.9949 51.9121 97.0149 51.8421 97.0249C51.8121 97.0249 51.7821 97.0349 51.7521 97.0449C51.7521 97.0449 51.7521 97.0449 51.7421 97.0449C51.7121 97.0449 51.6821 97.0549 51.6521 97.0649C51.6521 97.0649 51.6521 97.0649 51.6421 97.0649C51.6121 97.0649 51.5921 97.0749 51.5721 97.0849C51.5621 97.0849 51.5521 97.0849 51.5421 97.0849C51.5221 97.0849 51.5021 97.0849 51.4721 97.0949C51.4521 97.0949 51.4321 97.0949 51.4121 97.1049C51.4021 97.1049 51.3821 97.1049 51.3721 97.1149C51.3521 97.1149 51.3321 97.1149 51.3121 97.1249C51.3121 97.1249 51.3121 97.1249 51.3021 97.1249C51.1821 97.1549 51.0621 97.1849 50.9421 97.2049C50.8721 96.5249 50.7821 95.8349 50.6621 95.1149M49.5721 90.5449C49.5721 90.5449 49.6621 90.5849 49.7121 90.6049C49.7521 90.6249 49.7921 90.6449 49.8321 90.6649C51.3221 91.3549 52.7721 92.1549 54.0921 93.1449C54.6721 93.5849 55.2521 94.0849 55.7221 94.6649C55.6521 94.6349 55.5921 94.6049 55.5221 94.5749C54.1021 93.9749 52.4421 93.7049 50.9221 93.5349C50.7521 93.5149 50.5821 93.4949 50.4121 93.4849C50.4121 93.4849 50.4021 93.4849 50.3921 93.4849C50.3721 93.4849 50.3621 93.4849 50.3421 93.4849C50.2021 92.8449 50.0421 92.1849 49.8621 91.5149C49.7721 91.1849 49.6821 90.8649 49.5821 90.5549M44.4321 80.7649C45.9321 81.9149 47.1821 83.4849 48.4021 84.8149C49.4921 85.9949 50.6121 87.1649 51.6021 88.4349C52.0221 88.9749 52.3921 89.5449 52.7421 90.1349C51.9421 89.6849 51.1321 89.2649 50.3021 88.8949C50.3021 88.8949 50.2721 88.8849 50.2621 88.8749C49.8721 88.7049 49.4921 88.5349 49.0921 88.3749C49.0921 88.3749 49.0721 88.3749 49.0621 88.3649C48.9521 88.3149 48.8321 88.2749 48.7121 88.2249C47.4721 85.2449 45.8321 82.7049 44.4121 80.7749" fill="#5D68D4"/>
<path d="M51.9821 99.0249C51.9821 99.0249 51.9821 99.0249 51.9721 99.0249C51.9721 99.0249 51.9721 99.0249 51.9821 99.0249ZM52.1021 99.0049C52.1021 99.0049 52.0721 99.0049 52.0621 99.0049C52.0721 99.0049 52.0921 99.0049 52.1021 99.0049ZM54.2721 98.5349C54.2721 98.5349 54.2421 98.5349 54.2221 98.5449C53.5221 98.6949 52.8321 98.8449 52.1421 98.9949C52.8321 98.8449 53.5321 98.6949 54.2221 98.5449C54.2421 98.5449 54.2521 98.5449 54.2721 98.5349ZM51.3321 97.3349C51.3321 97.3349 51.3321 97.3349 51.3221 97.3349C51.3221 97.3349 51.3221 97.3349 51.3321 97.3349ZM51.4321 97.3049C51.4321 97.3049 51.4021 97.3049 51.3921 97.3149C51.4021 97.3149 51.4221 97.3149 51.4321 97.3049ZM51.5521 97.2849C51.5521 97.2849 51.5121 97.2849 51.4821 97.2949C51.5021 97.2949 51.5221 97.2849 51.5521 97.2849ZM51.6521 97.2549C51.6521 97.2549 51.6021 97.2649 51.5821 97.2749C51.6121 97.2749 51.6321 97.2649 51.6521 97.2549ZM51.7621 97.2349C51.7621 97.2349 51.7021 97.2449 51.6721 97.2549C51.7021 97.2549 51.7321 97.2449 51.7621 97.2349ZM51.8721 97.2149C51.8721 97.2149 51.8121 97.2249 51.7821 97.2349C51.8121 97.2349 51.8421 97.2249 51.8721 97.2149ZM52.0721 97.1649C52.0021 97.1749 51.9421 97.1949 51.8721 97.2049C51.9421 97.1849 52.0021 97.1749 52.0721 97.1649ZM52.5821 97.0549C52.5821 97.0549 52.5221 97.0649 52.4921 97.0749C52.5221 97.0749 52.5521 97.0649 52.5821 97.0549ZM52.6821 97.0249C52.6821 97.0249 52.6221 97.0349 52.5921 97.0449C52.6221 97.0449 52.6521 97.0349 52.6821 97.0249ZM52.7721 97.0049C52.7721 97.0049 52.7221 97.0149 52.7021 97.0249C52.7221 97.0249 52.7521 97.0149 52.7721 97.0049ZM52.8821 96.9849C52.8821 96.9849 52.8221 96.9949 52.7921 97.0049C52.8221 97.0049 52.8521 96.9949 52.8821 96.9849ZM52.9721 96.9649C52.9721 96.9649 52.9321 96.9649 52.9121 96.9749C52.9321 96.9749 52.9521 96.9749 52.9721 96.9649ZM53.0821 96.9449C53.0821 96.9449 53.0321 96.9549 53.0121 96.9649C53.0321 96.9649 53.0621 96.9549 53.0821 96.9449ZM53.1721 96.9249C53.1721 96.9249 53.1421 96.9249 53.1321 96.9249C53.1421 96.9249 53.1621 96.9249 53.1721 96.9249ZM53.2521 96.9049C53.2521 96.9049 53.2321 96.9049 53.2121 96.9049C53.2221 96.9049 53.2321 96.9049 53.2521 96.9049ZM53.3721 96.8749C53.3721 96.8749 53.3521 96.8749 53.3421 96.8749C53.3421 96.8749 53.3621 96.8749 53.3721 96.8749ZM53.8821 96.7749C53.8821 96.7749 53.8621 96.7749 53.8521 96.7749C53.8521 96.7749 53.8721 96.7749 53.8821 96.7749ZM53.9721 96.7549C53.9721 96.7549 53.9521 96.7549 53.9321 96.7549C53.9421 96.7549 53.9521 96.7549 53.9721 96.7549ZM54.0921 96.7249C54.0921 96.7249 54.0621 96.7249 54.0421 96.7349C54.0621 96.7349 54.0721 96.7349 54.0921 96.7249ZM54.2221 96.7049C54.2221 96.7049 54.1621 96.7149 54.1321 96.7249C54.1621 96.7249 54.1921 96.7149 54.2221 96.7049ZM54.2421 96.6949C54.2421 96.6949 54.2221 96.6949 54.2121 96.6949C54.2121 96.6949 54.2321 96.6949 54.2421 96.6949ZM55.3421 96.5349C55.2621 96.5349 55.1921 96.5449 55.1121 96.5549C54.8221 96.5849 54.5321 96.6349 54.2421 96.6949C54.6121 96.6249 54.9721 96.5649 55.3421 96.5349ZM55.3821 96.5349C55.3821 96.5349 55.3621 96.5349 55.3521 96.5349C55.3621 96.5349 55.3721 96.5349 55.3821 96.5349ZM53.8121 95.8949C53.8121 95.8949 53.8321 95.8949 53.8421 95.8949C54.3821 96.0349 54.9121 96.2449 55.3821 96.5249C54.9121 96.2449 54.3821 96.0449 53.8421 95.8949C53.8421 95.8949 53.8221 95.8949 53.8121 95.8949ZM53.7821 95.8949C53.7821 95.8949 53.7821 95.8949 53.7921 95.8949C53.7921 95.8949 53.7921 95.8949 53.7821 95.8949ZM53.7621 95.8849C53.7621 95.8849 53.7621 95.8849 53.7721 95.8849C53.7721 95.8849 53.7721 95.8849 53.7621 95.8849ZM53.7321 95.8749H53.7421C53.7421 95.8749 53.7421 95.8749 53.7321 95.8749ZM52.0221 95.5249C52.0221 95.5249 52.0221 95.5249 52.0321 95.5249C52.0321 95.5249 52.0321 95.5249 52.0221 95.5249ZM51.9921 95.5149C51.9921 95.5149 51.9921 95.5149 52.0021 95.5149C52.0021 95.5149 52.0021 95.5149 51.9921 95.5149ZM51.9621 95.5149C51.9621 95.5149 51.9621 95.5149 51.9721 95.5149C51.9721 95.5149 51.9721 95.5149 51.9621 95.5149ZM51.9421 95.5049C51.9421 95.5049 51.9421 95.5049 51.9521 95.5049C51.9521 95.5049 51.9521 95.5049 51.9421 95.5049ZM51.9021 95.5049C51.9021 95.5049 51.9121 95.5049 51.9221 95.5049C51.9221 95.5049 51.9121 95.5049 51.9021 95.5049ZM50.6821 95.3349C51.0921 95.3849 51.5021 95.4349 51.9021 95.5049C51.4921 95.4349 51.0921 95.3849 50.6821 95.3349ZM50.4021 93.4749C50.4021 93.4749 50.3921 93.4749 50.3821 93.4749C50.3821 93.4749 50.3921 93.4749 50.4021 93.4749ZM50.9121 93.5349C52.4321 93.7049 54.0921 93.9649 55.5121 94.5749C54.0921 93.9749 52.4321 93.7049 50.9121 93.5349C50.7421 93.5149 50.5721 93.4949 50.4021 93.4849C50.5721 93.5049 50.7421 93.5149 50.9121 93.5349ZM49.7121 90.6049C49.7121 90.6049 49.7921 90.6449 49.8321 90.6649C51.3221 91.3549 52.7721 92.1549 54.0921 93.1449C54.6721 93.5849 55.2521 94.0849 55.7221 94.6649C55.2521 94.0849 54.6821 93.5849 54.0921 93.1449C52.7821 92.1649 51.3221 91.3549 49.8321 90.6649C49.7921 90.6449 49.7521 90.6249 49.7121 90.6049ZM50.2721 88.8749C50.2721 88.8749 50.3021 88.8849 50.3121 88.8949C50.3021 88.8949 50.2821 88.8849 50.2721 88.8749ZM49.0721 88.3549C49.0721 88.3549 49.0921 88.3549 49.1021 88.3649C49.1021 88.3649 49.0821 88.3649 49.0721 88.3549ZM48.7321 88.2149C48.8521 88.2649 48.9621 88.3049 49.0821 88.3549C48.9721 88.3049 48.8521 88.2649 48.7321 88.2149ZM48.4021 84.8149C49.4921 85.9949 50.6121 87.1649 51.6021 88.4349C52.0221 88.9749 52.3921 89.5449 52.7421 90.1349C52.3921 89.5549 52.0321 88.9749 51.6021 88.4349C50.6121 87.1749 49.4821 86.0049 48.4021 84.8149Z" fill="#3745EB"/>
<path d="M42.1321 77.8047C51.0621 81.6347 55.4821 92.2447 57.1521 96.1747C57.1821 96.2547 57.2021 96.3347 57.2121 96.4247C57.2721 96.9147 57.0121 97.6247 56.5921 98.3947C56.1621 98.3047 55.7221 98.3147 55.2721 98.3547C54.9321 98.3947 54.5721 98.4547 54.2121 98.5347C53.1721 98.7547 52.1221 98.9847 51.0821 99.2247C51.0521 98.6347 51.0021 98.0347 50.9421 97.4147C52.0221 97.1647 53.1121 96.9247 54.2021 96.6947C54.5021 96.6347 54.8021 96.5847 55.1021 96.5547C55.1921 96.5547 55.2721 96.5347 55.3621 96.5347C54.8921 96.2547 54.3621 96.0547 53.8221 95.9047C52.7921 95.6247 51.7321 95.4547 50.6621 95.3347C50.5621 94.7247 50.4521 94.1047 50.3121 93.4747C52.0421 93.6447 54.0621 93.9147 55.7021 94.6647C55.2321 94.0847 54.6621 93.5847 54.0721 93.1447C52.7621 92.1547 51.3021 91.3547 49.8121 90.6647C49.7221 90.6247 49.6421 90.5847 49.5521 90.5447C49.3021 89.7447 49.0121 88.9647 48.7021 88.2247C49.2321 88.4347 49.7621 88.6547 50.2821 88.8947C51.1021 89.2647 51.9221 89.6847 52.7221 90.1347C52.3721 89.5547 52.0121 88.9747 51.5821 88.4347C50.5921 87.1747 49.4621 86.0047 48.3821 84.8147C47.1621 83.4847 45.9121 81.9147 44.4121 80.7647C43.5021 79.5147 42.6821 78.5247 42.1221 77.8047" fill="#3A48D6"/>
</g>
<path d="M74.5834 73.7842C74.5834 73.7842 80.9634 77.7842 81.8934 81.4842C82.8234 85.1842 69.2734 80.5942 69.2734 80.5942L74.5834 73.7942V73.7842Z" fill="#E80083"/>
<path d="M85.4636 136.717C85.4636 136.717 90.0136 133.307 92.3236 134.487C94.7136 135.707 89.8936 141.957 89.8936 141.957L85.4536 136.727L85.4636 136.717Z" fill="#FF0090"/>
<path d="M139.725 149.297C140.315 149.277 140.865 149.647 141.025 150.207C141.325 151.247 140.955 152.757 140.115 153.227C137.725 154.547 134.225 154.787 132.075 153.647C129.685 152.387 131.245 148.337 133.195 145.367C133.745 144.527 135.455 144.157 136.505 144.847C137.085 145.227 137.315 145.977 137.075 146.637L136.285 149.337C136.195 149.597 136.385 149.867 136.665 149.857L139.725 149.297Z" fill="#FF0090"/>
<path d="M94.2041 146.037C94.2041 146.037 97.0541 142.117 99.2241 142.497C101.474 142.887 99.1241 149.177 99.1241 149.177L94.2041 146.037Z" fill="#FF0090"/>
<path d="M103.194 151.437C103.194 151.437 104.664 147.557 106.544 147.377C108.494 147.197 107.964 152.917 107.964 152.917L103.194 151.427V151.437Z" fill="#FF0090"/>
<path d="M111.604 153.597C111.604 153.597 112.064 150.097 113.584 149.587C115.164 149.057 115.844 153.897 115.844 153.897L111.604 153.597Z" fill="#FF0090"/>
<path d="M118.805 153.497C118.805 153.497 119.225 150.307 120.615 149.837C122.055 149.347 122.675 153.767 122.675 153.767L118.815 153.497H118.805Z" fill="#FF0090"/>
<path d="M125.015 152.747C125.015 152.747 125.325 150.367 126.365 150.017C127.435 149.657 127.905 152.947 127.905 152.947L125.015 152.747Z" fill="#FF0090"/>
<path d="M132.535 153.517C127.635 158.398 118.175 166.848 106.114 172.948C99.7742 176.158 95.3041 182.198 94.104 189.199C94.104 189.199 82.7836 179.328 78.2034 163.618C71.3131 140.017 78.3234 111.376 78.3234 111.376C88.8738 157.297 119.225 154.387 131.245 151.247C131.915 151.077 135.376 149.797 135.656 150.277C135.936 150.767 133.035 153.027 132.545 153.507" fill="#4F5FFF"/>
<path d="M103.045 215.26C103.005 215.34 102.955 215.41 102.895 215.49C102.765 215.66 102.605 215.82 102.405 215.97C99.4845 218.12 89.7842 217.41 86.254 216.55C83.7639 215.95 81.5538 214.649 80.0438 212.619C79.6038 212.039 79.2338 211.389 78.9238 210.669C78.0637 208.719 77.7437 206.279 78.1537 203.359C79.0438 197.099 73.6935 189.089 71.6535 182.518C71.6535 182.488 71.6335 182.458 71.6335 182.428C71.1635 179.218 98.3145 177.788 98.3145 177.788C98.3445 177.808 98.6945 179.148 99.1345 180.828C99.7345 183.148 100.475 186.128 100.675 187.098C100.905 188.188 101.055 192.789 101.055 193.129C101.055 193.129 101.055 193.129 101.055 193.149C101.075 194.789 100.945 196.599 100.595 198.549C100.555 198.799 100.495 199.059 100.445 199.319C100.335 199.829 100.215 200.319 100.085 200.769C99.5045 202.919 98.8445 204.499 98.9545 206.019C98.9745 206.369 99.0445 206.719 99.1645 207.069C99.2945 207.469 99.4945 207.859 99.7245 208.259C99.8545 208.499 100.015 208.739 100.175 208.969C100.285 209.129 100.395 209.279 100.505 209.439C100.615 209.589 100.735 209.749 100.845 209.909C101.655 210.999 102.515 212.069 102.965 213.069C103.025 213.209 103.085 213.359 103.125 213.499C103.325 214.109 103.325 214.7 103.035 215.25L103.045 215.26Z" fill="#6B78FF"/>
<g style="mix-blend-mode:multiply" opacity="0.48">
<path d="M83.6637 194.229C78.8635 196.979 78.3235 205.199 78.9335 210.669C78.0735 208.719 77.7535 206.279 78.1635 203.359C79.0535 197.099 73.7033 189.089 71.6632 182.518C71.6632 182.488 71.6432 182.458 71.6432 182.428C71.1732 179.218 98.3243 177.788 98.3243 177.788C98.3543 177.808 96.4142 186.938 83.6637 194.229Z" fill="#4E6587"/>
</g>
<path d="M102.894 215.488C103.744 212.918 100.054 209.798 98.9544 209.188C96.5044 207.808 94.6244 206.798 94.9344 206.068C95.2444 205.328 96.7944 204.878 98.5544 202.868C100.204 200.978 101.014 193.608 101.054 193.148C101.084 195.008 100.914 197.088 100.444 199.318C99.7044 202.808 98.4344 204.868 99.1844 207.078C100.174 209.998 104.294 212.938 103.054 215.258C103.004 215.338 102.964 215.418 102.904 215.488H102.894Z" fill="#96A0FF"/>
<path d="M26.0514 215.26C26.0914 215.34 26.1414 215.41 26.2014 215.49C26.3314 215.66 26.4914 215.82 26.6914 215.97C29.6115 218.12 39.3119 217.41 42.842 216.55C45.3321 215.95 47.5422 214.649 49.0522 212.619C49.4923 212.039 49.8623 211.389 50.1723 210.669C51.0323 208.719 51.3523 206.279 50.9423 203.359C50.0523 197.099 55.4025 189.089 57.4426 182.518C57.4426 182.488 57.4626 182.458 57.4626 182.428C57.9326 179.218 30.7816 177.788 30.7816 177.788C30.7516 177.808 30.4015 179.148 29.9615 180.828C29.3615 183.148 28.6215 186.128 28.4215 187.098C28.1915 188.188 28.0414 192.789 28.0414 193.129C28.0414 193.129 28.0414 193.129 28.0414 193.149C28.0214 194.789 28.1515 196.599 28.5015 198.549C28.5415 198.799 28.6015 199.059 28.6515 199.319C28.7615 199.829 28.8815 200.319 29.0115 200.769C29.5915 202.919 30.2515 204.499 30.1415 206.019C30.1215 206.369 30.0515 206.719 29.9315 207.069C29.8015 207.469 29.6015 207.859 29.3715 208.259C29.2415 208.499 29.0815 208.739 28.9215 208.969C28.8115 209.129 28.7015 209.279 28.5915 209.439C28.4815 209.589 28.3615 209.749 28.2515 209.909C27.4414 210.999 26.5814 212.069 26.1314 213.069C26.0714 213.209 26.0114 213.359 25.9714 213.499C25.7714 214.109 25.7714 214.7 26.0614 215.25L26.0514 215.26Z" fill="#6B78FF"/>
<g style="mix-blend-mode:multiply" opacity="0.48">
<path d="M45.4421 194.229C50.2423 196.979 50.7824 205.199 50.1723 210.669C51.0324 208.719 51.3524 206.279 50.9424 203.359C50.0523 197.099 55.4025 189.089 57.4426 182.518C57.4426 182.488 57.4626 182.458 57.4626 182.428C57.9326 179.218 30.7816 177.788 30.7816 177.788C30.7516 177.808 32.6917 186.938 45.4421 194.229Z" fill="#4E6587"/>
</g>
<path d="M26.2016 215.488C25.3516 212.918 29.0416 209.798 30.1416 209.188C32.5916 207.808 34.4716 206.798 34.1616 206.068C33.8516 205.328 32.3016 204.878 30.5416 202.868C28.8916 200.978 28.0816 193.608 28.0416 193.148C28.0116 195.008 28.1816 197.088 28.6516 199.318C29.3916 202.808 30.6616 204.868 29.9116 207.078C28.9216 209.998 24.8016 212.938 26.0416 215.258C26.0916 215.338 26.1316 215.418 26.1916 215.488H26.2016Z" fill="#4F5FFF"/>
<path d="M14.4811 110.796C14.8512 110.586 15.8012 110.456 16.7212 110.246C16.8112 110.216 18.9213 109.706 19.4913 109.656C20.4214 109.586 21.4014 109.566 22.3514 109.656C22.4114 109.656 22.4715 109.656 22.5215 109.666C25.6216 109.966 27.1316 109.996 30.1617 109.866C36.762 109.586 46.8924 103.736 52.2726 99.8755C52.3626 99.8055 52.4926 99.8655 52.6426 100.006C53.2026 100.566 54.0727 102.416 54.4127 102.566C54.7827 102.736 55.1027 102.996 55.3727 103.336C56.8628 105.166 56.9028 109.056 55.7127 110.006C54.0527 111.326 41.1522 118.706 35.2619 119.886C31.2718 120.666 24.8115 121.966 19.9914 121.906C18.2613 121.886 16.7412 121.696 15.6212 121.236C15.6012 121.236 15.5712 121.216 15.5412 121.196C15.3112 121.096 15.0912 120.976 14.8912 120.856C14.6812 120.736 14.5111 120.596 14.3511 120.436C14.0011 120.086 13.6911 119.736 13.4311 119.386L13.3611 119.296C13.1711 119.016 12.6711 118.016 12.6211 117.866C12.6911 117.206 12.6911 116.666 12.2911 116.286C12.0711 116.076 12.2911 114.616 12.2911 114.616C12.8511 113.276 12.0811 112.966 12.0811 112.966C12.0811 112.966 14.3211 110.906 14.5111 110.796H14.4811Z" fill="#6B78FF"/>
<path opacity="0.35" d="M55.3728 103.335C56.8629 105.166 56.9029 109.056 55.7128 110.006C54.0527 111.326 41.1523 118.716 35.262 119.886C31.2619 120.676 24.8116 121.966 19.9814 121.906C21.7415 121.446 46.0724 114.906 51.4826 107.326C53.0327 105.156 54.3328 103.925 55.3728 103.335Z" fill="#293CFF"/>
<g style="mix-blend-mode:multiply" opacity="0.48">
<path d="M22.3516 109.656C25.1617 110.036 30.5519 110.926 34.012 109.936C38.2922 108.706 46.9425 104.756 53.0427 100.736C52.8727 100.656 52.7527 100.346 52.6527 100.006C52.5027 99.8656 52.3827 99.8156 52.2827 99.8756C46.9025 103.736 36.7721 109.586 30.1719 109.866C27.1417 109.996 25.6217 109.966 22.5316 109.666C22.4816 109.666 22.4216 109.656 22.3616 109.656H22.3516Z" fill="#939AED"/>
</g>
<path opacity="0.45" d="M17.4613 118.876C16.6213 118.886 14.6813 113.916 16.6013 112.646C18.1513 111.616 20.7113 113.556 20.8913 115.246C21.1013 117.196 19.8113 118.836 17.4613 118.876Z" fill="#FF0090"/>
<path d="M24.4617 126.746C25.0417 128.006 25.8617 131.106 23.7616 131.926C21.6616 132.746 20.3815 130.306 19.7415 128.576C19.3015 127.386 18.9715 125.806 18.1414 122.666C14.8013 110.085 11.9512 101.845 10.0311 98.955C9.19109 97.675 7.82104 97.255 6.34098 96.5649C4.46091 95.6949 2.40083 94.3949 0.980778 90.4047C-1.55932 83.2644 1.4608 79.1143 2.99085 78.4642C4.56091 77.9142 9.58111 78.9343 12.5312 85.9145C15.4813 92.8948 11.0812 94.9049 11.6212 98.335C12.1612 101.765 15.6213 109.775 21.6616 121.306C23.1716 124.196 23.9317 125.586 24.4717 126.746H24.4617Z" fill="#B4CCF7"/>
<path d="M3.88061 79.2541C3.88061 79.2541 0.900606 79.0741 0.860606 85.0841C0.820606 91.0941 5.51061 96.8641 8.98061 95.8041C12.7506 94.6541 12.9706 89.4341 12.0606 89.3841C11.6206 89.3641 11.7806 92.9041 8.94061 93.4441C6.90061 93.8341 3.73061 92.2441 2.61061 86.3241C1.39061 79.8241 4.51061 79.6841 3.87061 79.2441L3.88061 79.2541Z" fill="#6593E6"/>
<path d="M16.9112 114.816C16.5512 114.956 19.9112 127.366 20.7512 128.996C21.8212 131.076 23.1912 132.066 24.1712 130.546C25.0012 129.256 24.4612 128.006 24.4612 128.006C24.4612 128.006 24.0112 129.366 22.9312 128.806C21.1412 127.866 17.2712 114.686 16.9112 114.826V114.816Z" fill="#6593E6"/>
<path d="M12.6305 93.6241C11.6405 95.2741 11.1105 97.6741 10.5105 97.9141C9.91051 98.1541 8.76051 96.9841 6.35051 96.5841C4.47051 95.7141 2.41051 94.4141 0.990506 90.4241C-1.54949 83.2841 1.47051 79.1341 3.00051 78.4841C3.00051 78.4841 1.24051 80.0341 0.730506 82.2741C0.0105062 85.4341 0.600506 90.6541 3.72051 94.4641C5.47051 96.6041 8.54051 96.4041 9.71051 95.9741C11.8905 95.1741 12.6605 92.9641 12.7905 92.9141C12.9205 92.8641 13.0405 92.9741 12.6505 93.6241H12.6305Z" fill="#D6E5FF"/>
<path d="M18.3214 115.806C18.5614 115.706 23.3614 125.396 23.7914 126.286C24.4314 127.606 23.7214 128.136 23.2514 128.016C22.6414 127.866 21.7614 125.756 21.0214 123.896C19.1114 119.116 18.0814 115.896 18.3314 115.806H18.3214Z" fill="#D6E5FF"/>
<path d="M19.0514 110.706C17.8514 111.386 13.7814 110.086 13.7814 110.086C13.7814 110.086 13.1214 109.136 14.7214 107.956C14.7214 107.956 14.8414 107.916 15.0514 107.876C15.9114 107.696 18.2014 107.446 19.2114 109.586C19.4914 110.166 19.3814 110.526 19.0414 110.716" fill="#293CFF"/>
<path d="M14.1911 109.936C14.1911 109.936 17.5311 111.006 19.0511 110.696C19.1011 110.676 19.1611 110.636 19.2111 110.586C19.2411 110.556 19.2611 110.536 19.2711 110.506C19.4211 110.316 19.4311 110.046 19.2711 109.686C19.2511 109.656 19.2411 109.616 19.2211 109.576C18.5811 108.226 17.4211 107.826 16.4411 107.766C15.8811 107.726 15.3711 107.806 15.0611 107.876C13.5611 109.026 14.2011 109.936 14.2011 109.936H14.1911Z" fill="#6B78FF"/>
<path d="M15.6914 108.916C16.2114 109.416 17.2414 109.956 18.1414 110.216C18.5814 110.356 18.9814 110.466 19.2614 110.506C19.4114 110.316 19.4214 110.046 19.2614 109.686C19.2414 109.656 19.2314 109.616 19.2114 109.576C18.5714 108.226 17.4114 107.826 16.4314 107.766C16.2914 107.826 16.1514 107.906 16.0014 108.006C15.5714 108.306 15.5114 108.616 15.6814 108.916H15.6914Z" fill="#7B87FF"/>
<path d="M11.9914 112.936C12.9514 113.926 17.2314 113.786 17.2314 113.786C17.2314 113.786 18.1214 113.056 16.9114 111.486C16.9114 111.486 16.8014 111.416 16.6114 111.316C15.8414 110.906 13.7014 110.046 12.1414 111.816C11.7114 112.296 11.7214 112.666 11.9914 112.946" fill="#293CFF"/>
<path d="M11.9912 112.936C13.3612 113.646 16.8712 113.536 16.8712 113.536C16.8712 113.536 17.7412 112.836 16.6112 111.316C16.3312 111.166 15.8612 110.946 15.3112 110.836C14.3512 110.626 13.1312 110.696 12.1412 111.816C11.7912 112.216 11.7312 112.536 11.8812 112.796C11.9112 112.856 11.9512 112.906 12.0012 112.946" fill="#6B78FF"/>
<path d="M13.3512 110.946C12.9312 111.106 12.5212 111.386 12.1412 111.816C11.8212 112.176 11.7412 112.476 11.8412 112.716C11.8512 112.746 11.8612 112.766 11.8812 112.796C12.6512 112.776 14.4212 112.676 15.4512 112.266C15.5412 112.226 15.6312 112.186 15.7112 112.146C15.9612 111.896 15.9912 111.576 15.6512 111.176C15.5412 111.046 15.4312 110.926 15.3112 110.836C14.7212 110.706 14.0212 110.686 13.3512 110.946Z" fill="#7B87FF"/>
<path d="M11.5309 115.796C12.1209 116.846 15.9109 117.276 16.7309 117.236C17.5909 117.196 18.2409 115.266 17.2509 114.546C17.1709 114.476 17.0709 114.426 16.9609 114.376C14.5409 113.446 11.8709 113.976 11.4809 115.346C11.4309 115.506 11.4609 115.656 11.5309 115.786" fill="#293CFF"/>
<path d="M11.5311 115.796C12.6211 116.606 15.6911 116.936 16.4211 116.906C17.1611 116.876 17.7511 115.406 17.2511 114.546C17.1711 114.476 17.0711 114.426 16.9611 114.376C16.5011 114.196 16.0311 114.076 15.5711 114.006C13.6511 113.696 11.8911 114.216 11.5011 115.266L11.4711 115.346C11.4211 115.506 11.4511 115.656 11.5211 115.786" fill="#6B78FF"/>
<path d="M13.531 113.986C12.521 114.156 11.741 114.606 11.501 115.266C11.531 115.296 11.571 115.316 11.621 115.326C12.131 115.486 14.151 115.786 15.411 115.576C15.601 115.546 15.771 115.506 15.911 115.446C16.011 115.356 16.071 115.226 16.081 115.096C16.111 114.696 15.921 114.316 15.561 114.006C14.841 113.886 14.131 113.886 13.521 113.996" fill="#7B87FF"/>
<path d="M12.9511 119.307C13.4311 119.897 14.3411 120.257 15.7311 120.217C16.9811 120.177 17.0811 118.207 16.3811 117.857H16.3511C15.6111 117.547 12.6311 116.847 12.5611 118.067C12.5311 118.527 12.6711 118.947 12.9511 119.297" fill="#293CFF"/>
<path d="M12.9513 119.307C13.4713 119.727 14.3013 119.977 15.4513 119.937C16.5013 119.907 16.7413 118.497 16.3713 117.857H16.3413C16.1413 117.767 15.7913 117.657 15.3613 117.567C14.2113 117.307 12.5913 117.177 12.5513 118.067C12.5513 118.217 12.5513 118.367 12.5913 118.507C12.6313 118.797 12.7513 119.067 12.9513 119.297" fill="#6B78FF"/>
<path d="M13.271 117.427C12.861 117.507 12.581 117.707 12.561 118.067C12.561 118.197 12.561 118.327 12.581 118.447C12.581 118.467 12.581 118.487 12.591 118.507C13.381 118.937 14.081 119.057 14.641 118.947C15.021 118.807 15.321 118.547 15.511 118.217C15.651 117.977 15.581 117.747 15.371 117.557C14.691 117.407 13.851 117.297 13.261 117.417" fill="#7B87FF"/>
<path d="M99.0048 177.008C96.1146 183.138 92.0645 187.688 87.3743 190.899C87.3743 190.899 87.3743 190.899 87.3743 190.909C80.294 195.769 71.7737 197.579 63.6534 197.159C57.6332 196.849 51.7129 195.249 46.4627 192.609C38.4924 188.619 32.0822 182.228 29.2421 174.338C21.1418 151.747 42.8126 118.446 49.9429 104.185C53.783 96.505 54.9831 89.8147 55.2731 85.2846C55.5131 81.4044 55.0831 79.1043 55.0831 79.1043L58.3532 78.8943L72.3937 78.0043L73.8338 77.9043C73.8338 77.9043 73.9438 80.1444 74.4738 83.6145C74.6138 84.5045 74.7738 85.4846 74.9738 86.5146C75.9639 91.6648 77.7639 98.4051 81.0441 104.615C87.5343 116.936 110.905 151.777 98.9948 176.998L99.0048 177.008Z" fill="#6B78FF"/>
<path d="M87.3741 190.899C87.3741 190.899 87.3741 190.899 87.3741 190.909C80.2939 195.769 71.7736 197.579 63.6632 197.159C57.643 196.849 51.7228 195.249 46.4626 192.609C46.4626 192.609 34.3821 174.808 35.2622 155.108C36.1422 135.397 49.1727 114.116 53.4629 106.076C57.593 98.3154 58.263 83.9049 58.363 78.8947C58.393 77.7747 58.393 77.1146 58.393 77.1146C58.393 77.1146 72.5236 70.3644 72.4136 78.0047C72.1936 91.9352 73.7036 98.6755 76.2337 104.856C81.9839 118.816 93.3944 139.957 95.1144 155.088C96.8045 170.048 87.6242 190.409 87.3941 190.899H87.3741Z" fill="#B3B9FF"/>
<mask id="mask2_20_10955" style="mask-type:luminance" maskUnits="userSpaceOnUse" x="35" y="74" width="61" height="124">
<path d="M87.3741 190.899C87.3741 190.899 87.3741 190.899 87.3741 190.909C80.2939 195.769 71.7736 197.579 63.6632 197.159C57.643 196.849 51.7228 195.249 46.4626 192.609C46.4626 192.609 34.3821 174.808 35.2622 155.108C36.1422 135.397 49.1727 114.116 53.4629 106.076C57.593 98.3154 58.263 83.9049 58.363 78.8947C58.393 77.7747 58.393 77.1146 58.393 77.1146C58.393 77.1146 72.5236 70.3644 72.4136 78.0047C72.1936 91.9352 73.7036 98.6755 76.2337 104.856C81.9839 118.816 93.3944 139.957 95.1144 155.088C96.8045 170.048 87.6242 190.409 87.3941 190.899H87.3741Z" fill="white"/>
</mask>
<g mask="url(#mask2_20_10955)">
<path d="M75.233 85.8645C74.973 87.2645 72.463 86.9245 71.393 86.9645C69.753 87.0245 68.103 87.0545 66.463 86.9845C63.213 86.8645 59.943 86.3545 57.013 84.8745C55.723 84.2245 54.543 86.1545 55.843 86.8145C59.443 88.6245 63.423 89.2045 67.413 89.2745C69.373 89.3045 71.333 89.2545 73.293 89.1445C75.033 89.0445 77.033 88.4545 77.403 86.4945C77.673 85.0745 75.503 84.4345 75.233 85.8645Z" fill="#8792FF"/>
<path d="M76.2527 94.175C74.8027 94.965 73.3527 95.765 71.7727 96.255C70.0327 96.795 68.2727 96.815 66.4827 96.515C62.9727 95.925 59.4927 94.815 56.1327 93.655C54.7527 93.175 54.1327 95.355 55.5027 95.825C59.1627 97.095 62.9927 98.315 66.8427 98.835C70.7427 99.365 74.0127 97.965 77.3627 96.135C78.6427 95.435 77.5327 93.465 76.2527 94.165V94.175Z" fill="#8792FF"/>
<path d="M76.1326 102.505C73.4426 105.085 69.6426 105.715 66.0426 105.435C61.8626 105.105 57.7126 103.785 53.7026 102.625C52.3026 102.215 51.6726 104.395 53.0726 104.795C60.7326 107.015 71.0526 110.515 77.7126 104.125C78.7626 103.115 77.1926 101.495 76.1326 102.505Z" fill="#8792FF"/>
<path d="M82.854 112.385C77.4738 114.436 71.7535 115.456 65.9933 115.336C63.1432 115.276 60.3031 114.956 57.523 114.335C54.9829 113.775 52.3928 112.985 50.4227 111.215C49.3427 110.245 47.7126 111.815 48.8027 112.795C50.8728 114.656 53.4428 115.676 56.123 116.336C59.1131 117.066 62.2032 117.476 65.2833 117.586C71.4535 117.806 77.6638 116.776 83.434 114.586C84.774 114.075 84.224 111.875 82.864 112.395L82.854 112.385Z" fill="#8792FF"/>
<path d="M91.7044 116.686C86.5142 120.716 80.024 122.646 73.5637 123.366C70.2436 123.736 66.8934 123.816 63.5433 123.736C60.3132 123.656 57.0331 123.546 53.843 122.996C50.4028 122.406 47.0027 121.266 44.5326 118.696C43.5226 117.646 41.9025 119.226 42.9125 120.276C47.7427 125.296 55.313 125.696 61.8433 125.956C68.8835 126.236 76.1338 125.906 82.8841 123.736C86.6542 122.526 90.1543 120.736 93.2845 118.316C94.4345 117.426 92.8444 115.806 91.7044 116.696V116.686Z" fill="#8792FF"/>
<path d="M94.9542 128.196C87.9639 132.227 79.8936 133.557 71.9333 133.917C67.9431 134.097 63.953 134.057 59.9628 133.977C55.7427 133.897 51.5125 133.787 47.3223 133.267C42.7322 132.697 38.172 131.587 34.0218 129.496C32.7318 128.846 31.5517 130.777 32.8518 131.437C40.6221 135.347 49.3724 135.997 57.9328 136.197C66.3031 136.397 74.8034 136.557 83.0437 134.917C87.5939 134.007 92.0341 132.487 96.0642 130.167C97.3243 129.436 96.2142 127.466 94.9542 128.196Z" fill="#8792FF"/>
<path d="M95.5341 140.497C91.624 142.217 87.7438 144.077 83.7437 145.607C81.8436 146.327 79.9035 146.897 77.8935 147.187C75.7634 147.497 73.5933 147.537 71.4332 147.597C63.0129 147.847 54.4126 148.087 46.2222 145.827C42.0721 144.677 38.1419 142.897 34.6918 140.317C33.5218 139.447 32.3717 141.387 33.5218 142.257C40.062 147.157 48.2123 149.167 56.2426 149.777C60.7928 150.127 65.363 150.047 69.9232 149.907C74.2933 149.777 78.6635 149.717 82.8536 148.317C87.5738 146.737 92.094 144.467 96.6442 142.467C97.9742 141.887 96.8542 139.917 95.5341 140.497Z" fill="#8792FF"/>
<path d="M100.035 149.577C84.1439 160.408 63.8231 157.797 45.8825 155.317C41.0523 154.647 36.1121 153.747 32.0019 150.957C30.7919 150.137 29.6318 152.077 30.8319 152.897C34.552 155.417 38.9422 156.517 43.3224 157.217C48.2625 157.997 53.2427 158.607 58.2129 159.118C67.9233 160.098 77.8737 160.268 87.374 157.727C92.2542 156.427 96.9644 154.407 101.145 151.557C102.335 150.747 101.235 148.767 100.035 149.587V149.577Z" fill="#8792FF"/>
<path d="M99.5844 163.067C83.5738 169.078 65.8731 170.278 49.1825 166.527C44.4223 165.457 39.7621 163.987 35.252 162.147C33.9019 161.597 33.2819 163.777 34.6219 164.317C50.7825 170.908 68.8232 172.568 85.9439 169.268C90.7841 168.338 95.5443 166.987 100.154 165.257C101.504 164.747 100.954 162.557 99.5844 163.067Z" fill="#8792FF"/>
<path d="M115.065 158.258C108.245 166.168 98.9644 171.558 89.014 174.518C77.3836 177.988 65.0331 178.228 53.0326 177.018C46.9824 176.408 40.7722 175.268 35.742 171.638C34.5619 170.788 33.4019 172.728 34.5719 173.578C39.1321 176.878 44.6723 178.218 50.1625 178.958C56.3528 179.788 62.653 180.098 68.8832 179.888C80.5837 179.508 92.3241 177.018 102.595 171.248C107.875 168.278 112.685 164.478 116.645 159.888C117.585 158.788 116.025 157.157 115.065 158.268V158.258Z" fill="#8792FF"/>
<path d="M110.145 177.038C93.9842 186.318 74.5935 189.779 56.1928 186.839C51.0526 186.018 46.0124 184.698 41.1222 182.918C39.7521 182.418 39.1321 184.588 40.4922 185.088C58.3728 191.629 78.4836 191.729 96.5043 185.648C101.625 183.918 106.575 181.698 111.255 179.008C112.515 178.288 111.405 176.308 110.145 177.038Z" fill="#8792FF"/>
</g>
<g style="mix-blend-mode:multiply" opacity="0.48">
<path d="M74.4828 83.6243C68.0628 84.3543 70.4028 86.6343 63.3628 87.4843C59.6428 87.9343 57.0728 86.3743 55.2628 85.2843C55.5028 81.4043 55.0728 79.1043 55.0728 79.1043L58.3428 78.8943L72.3828 78.0043L73.8228 77.9043C73.8228 77.9043 73.9328 80.1443 74.4628 83.6143L74.4828 83.6243Z" fill="#4E6587"/>
</g>
<path d="M69.0733 133.406C69.0733 133.406 70.0533 132.436 70.7833 131.446C71.1833 130.896 71.5133 130.336 71.5333 129.946V129.916C71.5333 129.916 71.5333 129.826 71.5333 129.776L71.5133 129.716C71.4933 129.656 71.4533 129.606 71.4133 129.556C71.3233 129.466 71.1833 129.406 70.9733 129.396C70.9433 129.396 70.9133 129.396 70.8833 129.396C70.5033 129.386 70.1733 129.456 69.8833 129.576C69.7333 129.636 69.5933 129.716 69.4733 129.806C69.4233 129.836 69.3733 129.876 69.3233 129.916C69.2533 129.976 69.1833 130.036 69.1233 130.096C69.0833 130.136 69.0433 130.176 69.0133 130.216C68.9733 130.256 68.9433 130.296 68.9133 130.336C68.8133 130.456 68.7233 130.586 68.6433 130.706L68.6133 130.756C68.4733 130.986 68.3633 131.216 68.2833 131.406C68.2333 131.526 68.2033 131.626 68.1733 131.716C68.1133 131.876 68.0933 131.986 68.0933 131.986C68.2233 133.536 69.0833 133.416 69.0833 133.416" fill="#293CFF"/>
<path d="M74.0532 130.487C74.1632 130.927 74.3532 131.377 74.6433 131.817C74.8233 132.097 75.0433 132.367 75.3033 132.637C75.3633 132.697 75.4333 132.757 75.4933 132.827C75.6933 133.017 75.9133 133.187 76.1633 133.367C76.5233 133.627 76.9433 133.867 77.4134 134.087C77.4834 134.117 77.5434 134.147 77.6234 134.177C77.9134 134.297 78.2334 134.397 78.5634 134.467C78.6034 134.477 78.6434 134.487 78.6934 134.497C83.7836 135.507 92.924 131.207 96.2041 129.117C99.7742 126.847 99.8842 123.406 97.6141 116.706C97.0641 115.066 96.4541 113.596 95.7941 112.266C95.7941 112.266 95.7941 112.266 95.7941 112.256C95.7941 112.236 95.7541 112.186 95.7141 112.096C94.624 109.946 93.424 108.206 92.1739 106.816C89.7238 104.086 87.0737 102.666 84.7936 102.156C81.5535 101.436 79.0234 102.496 78.7334 104.136C78.7034 104.336 78.6734 104.536 78.6534 104.736C78.2434 108.826 88.1038 115.546 87.2537 121.066C86.9637 122.936 73.9632 128.037 72.7232 128.667C72.4232 128.817 74.0632 130.497 74.0632 130.497L74.0532 130.487Z" fill="#4F5FFF"/>
<path d="M74.513 128.757C73.523 129.967 75.9431 132.127 78.8632 134.077C79.5632 134.547 81.8533 133.027 83.0734 133.387C85.2534 134.027 94.0238 130.347 96.9739 127.487C98.8239 125.687 98.4739 119.846 96.0738 113.766C95.4738 112.246 94.4738 110.366 93.3237 108.546C92.9537 107.956 92.5637 107.376 92.1737 106.806C90.8236 104.866 89.3836 103.136 88.1935 102.176C86.3335 100.676 83.8434 99.9756 81.7533 99.8856C80.5233 99.8256 79.4232 99.9756 78.6832 100.286C77.1831 100.916 78.8232 103.576 78.7332 104.126C78.7332 104.176 78.7332 104.216 78.7432 104.256C79.1032 108.356 89.2936 115.296 89.4936 120.856C89.6036 123.906 75.7331 127.257 74.523 128.767L74.513 128.757Z" fill="#6B78FF"/>
<path d="M87.5333 102.066C89.0333 102.976 92.4933 107.526 93.3133 108.546C94.6633 110.206 95.4533 111.626 95.7033 112.096C94.8733 110.466 94.0233 109.016 93.1333 107.796C91.7933 105.956 89.8333 103.466 88.4533 102.286C85.1433 99.4455 79.3133 99.4755 78.6733 100.296C77.7133 100.926 81.8933 98.6455 87.5333 102.076V102.066Z" fill="#B3B9FF"/>
<path d="M98.1234 124.016C98.2134 126.536 97.2334 129.246 88.5034 132.256C86.7134 132.876 85.3234 133.176 84.1734 133.456C75.7734 135.496 78.4534 132.796 78.2834 132.026C77.9734 130.596 85.7834 131.816 91.8634 129.426C98.2134 126.926 98.0834 123.366 98.1034 124.006L98.1234 124.016Z" fill="#8792FF"/>
<path d="M86.9733 60.6438C86.9733 60.6438 93.6933 67.4838 93.7533 72.3438C93.8133 77.2038 78.3833 67.5038 78.3833 67.5038L86.9733 60.6438Z" fill="#E80083"/>
<path d="M83.2534 29.6926C83.2534 29.6926 91.4134 24.6626 96.1634 25.6726C100.913 26.6826 88.0334 39.5826 88.0334 39.5826L83.2534 29.6926Z" fill="#FF0090"/>
<path d="M86.0237 50.5136C86.0237 50.5136 95.6036 50.2136 99.2236 53.4636C102.834 56.7136 85.2437 61.4736 85.2437 61.4736L86.0337 50.5136H86.0237Z" fill="#E80083"/>
<path d="M61.2022 23.6717C59.7022 25.6117 62.3322 19.0117 59.3722 15.0517C50.6622 3.42167 44.1422 6.92167 45.6422 4.99167C47.1422 3.05167 54.0122 1.45167 65.4922 10.3517C76.9722 19.2617 62.7022 21.7317 61.2022 23.6717Z" fill="#FF0090"/>
<path d="M65.5929 24.3514C63.2329 25.0214 69.2729 21.2714 69.2329 16.3314C69.1129 1.80145 61.7929 0.75145 64.1529 0.0914496C66.5129 -0.57855 72.9929 2.20145 76.9529 16.1814C80.9129 30.1614 67.9529 23.6915 65.6029 24.3615L65.5929 24.3514Z" fill="#FF0090"/>
<path d="M69.0632 26.1823C66.6431 25.8123 73.6834 24.9023 75.7035 20.3921C81.6237 7.1216 75.3934 3.13144 77.8135 3.50146C80.2336 3.87147 84.9838 9.09167 82.7937 23.4522C80.5936 37.8128 71.4933 26.5523 69.0732 26.1823H69.0632Z" fill="#FF0090"/>
<path d="M72.4431 27.5017C70.2931 26.3217 76.3431 26.8517 79.5031 23.8417C88.7731 14.9917 86.0331 11.7917 88.1731 12.9717C90.3231 14.1517 92.0931 19.1017 85.9731 30.2017C79.8531 41.3017 74.5931 28.6817 72.4431 27.5017Z" fill="#FF0090"/>
<path d="M52.6024 29.282C50.5824 30.662 55.3824 25.592 54.4324 21.892C51.6524 11.012 44.7924 12.962 46.8124 11.582C48.8324 10.202 55.2524 9.862 61.4224 18.892C67.6024 27.922 54.6224 27.902 52.6024 29.282Z" fill="#FF0090"/>
<path d="M115.335 32.0428C115.335 32.1228 115.035 31.6727 114.555 31.6027C112.215 31.2727 105.385 31.2527 102.344 31.7628C96.3042 32.7728 92.124 38.763 90.654 41.0131C90.1839 41.7331 91.474 44.2332 92.064 45.4033C91.924 45.3433 91.794 45.2833 91.654 45.2133C91.544 45.1633 91.424 45.1133 91.314 45.0533C89.4239 44.1232 89.1739 42.5732 89.3539 40.7131C89.5239 39.063 88.0239 33.1828 87.9438 32.8428C88.0639 32.9328 90.874 35.1229 93.3241 33.2128C96.8042 30.5027 99.4643 29.3227 102.564 28.9726C107.585 28.4026 112.055 30.2227 114.485 31.2427L114.575 31.2827C114.925 31.4327 115.185 31.7027 115.345 32.0428H115.335Z" fill="#6B78FF"/>
<path d="M18.1611 54.5136C21.4612 68.1841 33.5817 78.3545 49.7523 81.3547C70.9331 85.2948 90.9539 73.1843 94.454 54.3036C96.4341 43.6432 86.9737 29.4927 81.8335 25.5625C76.6933 21.6224 73.9032 19.4823 68.813 18.2222C65.9629 17.5222 58.6026 16.6722 53.0524 20.7023C50.6823 22.4224 50.7623 20.9423 45.8721 18.3122C38.3919 14.2921 26.8514 19.6723 25.1014 28.4626C24.2813 32.5728 24.0213 36.983 24.6213 40.6231C24.5313 42.2332 24.3613 43.7132 23.9613 44.9633C22.5613 49.2834 17.1511 50.2735 18.1711 54.5036L18.1611 54.5136Z" fill="#6B78FF"/>
<path d="M65.9429 21.562C68.4929 21.482 71.0029 22.252 73.0329 23.872C74.8529 25.322 76.9729 27.882 76.9129 30.122C76.9029 30.632 76.0429 30.392 75.6729 29.582C75.0329 28.202 73.0729 26.032 71.1429 25.712C69.3829 25.412 67.4029 25.302 65.6529 25.342C61.9329 25.422 64.0429 21.622 65.9429 21.562Z" fill="#1C30FF"/>
<path d="M40.1414 20.2921C37.8014 19.6321 35.3314 19.8121 33.1514 20.9221C31.1914 21.9221 28.7514 23.9121 28.3814 26.1021C28.3014 26.6021 29.1314 26.5621 29.6314 25.8621C30.4814 24.6621 32.7014 23.0121 34.5514 23.1321C36.2314 23.2421 38.0914 23.5821 39.7014 24.0221C43.1214 24.9521 41.8914 20.7821 40.1514 20.2921H40.1414Z" fill="#1C30FF"/>
<path d="M116.104 40.1424C115.014 40.9724 113.364 42.1324 111.454 43.2124C111.834 43.7524 112.164 44.2524 112.434 44.6624C112.884 45.3524 112.504 46.1624 111.834 46.5824C110.534 47.4124 108.054 49.1324 105.704 47.9724C101.764 46.0324 104.994 48.5324 104.854 49.7424C104.664 51.2924 100.994 51.5024 99.1438 49.3824C98.0638 48.1424 97.2638 46.6524 92.0538 45.4124C91.4638 44.2424 90.1638 41.7424 90.6438 41.0224C92.1138 38.7724 96.2938 32.7824 102.334 31.7724C105.374 31.2624 112.204 31.2824 114.544 31.6124C115.034 31.6824 115.334 32.1224 115.324 32.0524C115.534 32.5424 115.514 33.1424 115.174 33.6324C114.754 34.2324 114.214 34.9524 113.594 35.7424C114.634 36.5424 115.514 37.2724 116.164 37.8424C116.874 38.4424 116.834 39.6024 116.104 40.1524V40.1424Z" fill="#828DFF"/>
<path d="M44.4815 38.6122C44.1915 44.0422 42.6815 46.7622 34.7615 46.3422C26.8415 45.9222 25.6215 43.0622 25.9015 37.6322C26.1815 32.2022 30.7015 25.6322 35.8315 25.8922C40.9615 26.1622 44.7615 33.1722 44.4815 38.6022V38.6122Z" fill="#3647FF"/>
<path d="M44.3114 38.6323C44.0414 43.7723 42.6114 46.3423 35.1214 45.9423C27.6314 45.5523 26.4714 42.8423 26.7414 37.7123C27.0114 32.5723 31.2814 26.3623 36.1314 26.6123C40.9814 26.8623 44.5814 33.4923 44.3114 38.6323Z" fill="white"/>
<path d="M41.7148 43.0246C44.4236 40.5856 44.6423 36.4124 42.2033 33.7036C39.7643 30.9948 35.5911 30.7761 32.8823 33.2151C30.1735 35.6541 29.9548 39.8273 32.3938 42.5361C34.8328 45.2449 39.006 45.4636 41.7148 43.0246Z" fill="#E80083"/>
<path d="M42.8318 38.4629C42.6418 41.5129 40.0218 43.8429 36.9718 43.6529C33.9218 43.4629 31.5918 40.8429 31.7818 37.7929C31.9718 34.7429 34.5918 32.4129 37.6418 32.6029C40.6918 32.7929 43.0218 35.4129 42.8318 38.4629Z" fill="#00074D"/>
<path d="M35.0021 35.7032C35.3221 35.5432 35.8821 35.9832 36.2421 36.7032C36.6021 37.4132 36.6421 38.1332 36.3221 38.2932C36.0021 38.4532 35.4421 38.0132 35.0821 37.2932C34.7221 36.5832 34.6821 35.8632 35.0021 35.7032Z" fill="white"/>
<path d="M34.132 33.9828C34.452 33.8228 34.822 33.9128 34.962 34.1828C35.102 34.4528 34.962 34.8128 34.632 34.9728C34.312 35.1328 33.942 35.0428 33.802 34.7728C33.662 34.5028 33.802 34.1428 34.132 33.9828Z" fill="white"/>
<path d="M54.5025 38.8422C52.6925 45.1922 53.3625 48.9022 62.6125 51.5322C71.8625 54.1722 74.3925 51.3722 76.2025 45.0222C78.0125 38.6722 75.4125 29.3622 69.4225 27.6522C63.4325 25.9422 56.3125 32.4922 54.5025 38.8322V38.8422Z" fill="#3647FF"/>
<path d="M54.6926 38.9424C52.9826 44.9424 53.6226 48.4524 62.3626 50.9424C71.1026 53.4324 73.4926 50.7924 75.2026 44.7924C76.9126 38.7924 74.4526 29.9924 68.7926 28.3724C63.1226 26.7624 56.4026 32.9424 54.6926 38.9424Z" fill="white"/>
<path d="M68.3276 50.3681C72.6474 49.4144 75.3761 45.1394 74.4224 40.8196C73.4687 36.4998 69.1937 33.7711 64.8739 34.7248C60.5541 35.6785 57.8254 39.9535 58.7791 44.2733C59.7328 48.5931 64.0078 51.3218 68.3276 50.3681Z" fill="#E80083"/>
<path d="M66.6028 49.303C70.3362 49.303 73.3628 46.2764 73.3628 42.543C73.3628 38.8095 70.3362 35.783 66.6028 35.783C62.8693 35.783 59.8428 38.8095 59.8428 42.543C59.8428 46.2764 62.8693 49.303 66.6028 49.303Z" fill="#00074D"/>
<path d="M64.2629 38.7528C63.9129 38.7928 63.6929 39.4428 63.7829 40.2228C63.8629 40.9928 64.2129 41.5928 64.5629 41.5628C64.9129 41.5228 65.1329 40.8728 65.0429 40.0928C64.9629 39.3228 64.6129 38.7228 64.2629 38.7528Z" fill="white"/>
<path d="M64.0726 36.8931C63.7226 36.9331 63.4626 37.2031 63.4926 37.4931C63.5226 37.7931 63.8326 38.0031 64.1826 37.9631C64.5326 37.9231 64.7926 37.6531 64.7626 37.3631C64.7326 37.0631 64.4226 36.8531 64.0726 36.8931Z" fill="white"/>
<path d="M15.8308 56.0236C15.4508 48.3833 34.0115 40.653 45.8519 42.9531C56.2923 44.9832 69.7929 54.4535 74.7531 55.3736C80.3433 56.4036 72.873 82.0846 54.7623 85.4847C50.0921 86.3648 41.9918 86.1748 31.3514 79.2445C18.0309 70.5642 16.2008 63.6639 15.8208 56.0236H15.8308Z" fill="#6B78FF"/>
<mask id="mask3_20_10955" style="mask-type:luminance" maskUnits="userSpaceOnUse" x="15" y="42" width="62" height="44">
<path d="M15.831 56.0236C15.451 48.3833 34.0117 40.653 45.8522 42.9531C56.2926 44.9832 69.7931 54.4535 74.7533 55.3736C80.3435 56.4036 72.8732 82.0846 54.7625 85.4847C50.0923 86.3648 41.992 86.1748 31.3516 79.2445C18.0311 70.5642 16.2011 63.6639 15.811 56.0236" fill="white"/>
</mask>
<g mask="url(#mask3_20_10955)">
<path d="M59.6825 47.0533C59.0225 43.1332 53.1122 42.4032 50.0121 41.5931C45.772 40.4831 41.4418 39.7731 37.0516 39.683C34.2415 39.623 21.411 40.8131 18.5809 44.8232C16.3208 45.3233 15.8908 49.0434 18.5609 49.3534C20.221 49.5434 21.961 50.8335 23.3311 51.6935C24.9312 52.6935 27.4213 53.8036 29.2813 53.9936C33.3115 54.4036 36.0816 53.6336 40.0217 52.8636C44.2119 52.0435 48.232 51.4535 52.5122 51.5235C55.4823 51.5735 60.4125 51.3835 59.6825 47.0533Z" fill="#828DFF"/>
<path d="M41.9015 57.5536C41.8515 57.1436 41.3215 55.9636 39.9215 55.8136C38.5215 55.6636 37.9815 56.4936 37.5015 57.2136C37.2215 57.6336 38.3815 57.7536 38.8715 57.5736H38.9115C38.9115 57.5736 39.0115 57.5536 39.0615 57.5536C39.2415 57.5736 39.2215 58.4636 39.3115 58.6736C39.4015 58.8836 39.9815 59.5436 40.9715 59.3036C42.1515 59.0236 41.9315 57.8136 41.9015 57.5536Z" fill="#99A2FF"/>
<path d="M26.671 54.8935C26.441 54.3035 25.821 53.9035 25.281 53.7835C24.741 53.6635 24.221 53.6235 23.781 53.8035C23.501 53.9235 22.791 54.1135 22.511 54.9835C22.371 55.4035 22.251 55.9835 22.631 56.2035C24.471 57.2435 26.011 56.1235 26.211 56.0235C26.611 55.8235 26.841 55.3235 26.661 54.8835L26.671 54.8935Z" fill="#99A2FF"/>
<path d="M77.0632 54.254C75.2932 54.534 73.4931 53.7539 71.883 53.0939C70.153 52.3839 68.4829 51.5439 66.8328 50.6738C63.6427 48.9938 60.5126 47.2037 57.1625 45.8436C50.8122 43.2635 43.932 41.8735 37.0617 42.1335C33.2316 42.2735 29.4314 42.9635 25.8113 44.2036C24.6812 44.5936 25.3013 46.3437 26.4413 45.9536C32.8016 43.7736 39.6618 43.4735 46.2621 44.6236C49.5822 45.2036 52.8423 46.1237 55.9824 47.3737C59.3326 48.7037 62.4627 50.4538 65.6428 52.1439C67.4529 53.1039 69.2829 54.034 71.173 54.804C73.0531 55.574 75.1532 56.434 77.2232 56.104C78.3933 55.914 78.2533 54.064 77.0632 54.254Z" fill="#1C30FF"/>
<path d="M57.1524 81.6947C53.6524 83.0647 49.8524 82.0347 49.7424 82.2247C49.6124 82.4447 53.5824 83.9047 57.5924 82.5147C60.9424 81.3447 62.9324 77.8847 62.7224 77.7447C62.5524 77.6247 60.4324 80.4147 57.1524 81.7047V81.6947Z" fill="#1C30FF"/>
<path d="M23.141 48.3235C22.691 48.4235 23.001 49.4335 24.751 50.8535C26.501 52.2735 28.621 53.1735 32.631 52.3535C33.131 52.2535 39.171 51.0035 38.561 50.0135C38.241 49.4935 32.971 49.8035 29.231 49.4235C25.791 49.0835 24.581 48.0135 23.151 48.3235H23.141Z" fill="#919BFF"/>
</g>
<path d="M64.032 72.5544C63.422 73.4544 62.852 74.2844 62.302 75.0244C59.672 77.9744 57.932 79.8444 54.122 80.4944C53.812 80.5444 53.482 80.5844 53.142 80.6244C48.772 81.0944 45.022 78.5744 42.692 77.3444C41.932 76.9444 42.182 75.8244 43.032 75.7344H43.072C43.702 75.6344 47.912 75.7044 52.952 74.8244C53.792 74.6844 54.652 74.5044 55.522 74.3044C58.102 73.7044 60.762 72.8344 63.182 71.5544C63.282 71.5044 63.382 71.4644 63.472 71.4544C63.722 71.4244 63.952 71.4944 64.122 71.6344L64.172 71.6744L64.252 71.7744C64.412 72.0444 64.322 72.1444 64.042 72.5544H64.032Z" fill="#00074D"/>
<path d="M55.5226 74.3042C55.5226 74.5242 55.5226 75.0042 55.3526 75.4142C55.2226 75.7442 54.9826 76.1342 54.8126 76.3942C54.7026 76.5642 54.4826 76.6042 54.3226 76.4842C54.0826 76.3142 53.7526 76.0542 53.5026 75.7842C53.2026 75.4642 53.0226 75.0442 52.9526 74.8242C53.7926 74.6842 54.6526 74.5042 55.5226 74.3042Z" fill="white"/>
<path d="M50.0324 75.3345C50.0024 75.5545 49.9124 76.0145 49.6824 76.4045C49.4924 76.7045 49.2024 77.0545 48.9924 77.2845C48.8624 77.4345 48.6324 77.4345 48.4924 77.2845C48.2824 77.0745 48.0024 76.7645 47.8024 76.4545C47.5624 76.0845 47.4524 75.6445 47.4224 75.4145C48.2724 75.4145 49.1524 75.3845 50.0424 75.3345H50.0324Z" fill="white"/>
<path d="M64.1019 72.6043C61.1119 76.6843 59.2319 80.1943 53.6719 80.8943C49.7319 81.6343 46.0619 79.5543 42.8819 77.5343C42.6719 77.4143 42.4019 77.2743 42.2919 77.0143C42.0419 76.5243 42.3319 75.8843 42.8419 75.7443C48.8319 75.1643 54.8419 74.2743 60.5719 72.3843C61.4019 72.1043 62.2219 71.7843 63.0119 71.4143C63.2619 71.2843 63.5819 71.2143 63.8819 71.3143C64.1219 71.4043 64.3219 71.5943 64.4019 71.8343C64.5119 72.1243 64.2419 72.3943 64.0919 72.5943L64.1019 72.6043ZM63.9519 72.5043C64.0519 72.3043 64.2519 72.1343 64.1719 71.9343C64.0719 71.7043 63.8019 71.5443 63.5019 71.6243C63.2519 71.6843 62.5019 72.1743 62.2019 72.3143C59.0519 74.0343 55.5319 74.9743 51.9819 75.4243C49.4719 75.7243 46.8919 75.7643 44.3719 75.7443C43.9619 75.7543 43.2619 75.6843 42.8619 75.7943C42.3719 75.9343 42.1219 76.5643 42.3919 76.9743C42.5119 77.1943 42.7319 77.2843 42.9619 77.3943C45.8419 78.8743 48.8519 80.2943 52.1119 80.3243C57.9219 80.2843 61.0419 77.2143 63.9519 72.5043Z" fill="#1C30FF"/>
<path d="M36.4617 59.5638C36.1017 59.7138 35.7517 59.3138 35.9617 58.9838C36.6817 57.8338 37.9817 56.2638 39.4817 56.9238C41.7617 57.9238 40.9617 59.0838 40.0417 58.9838C39.2617 58.9038 38.2517 58.8338 36.4717 59.5738L36.4617 59.5638Z" fill="#00074D"/>
<path d="M26.6014 58.0736C26.8614 58.3436 27.2914 58.0736 27.2314 57.7036C27.0114 56.3736 26.4414 54.4636 24.9414 54.5636C22.6514 54.7136 22.9314 56.0736 23.7514 56.3036C24.4414 56.4936 25.3314 56.7736 26.5914 58.0836L26.6014 58.0736Z" fill="#00074D"/>
<path d="M40.572 55.3638C42.652 54.9938 43.972 57.2838 42.932 58.9538C42.632 59.4538 42.122 59.8638 41.542 59.9538C43.312 58.5738 42.952 55.8338 40.562 55.3638H40.572Z" fill="#1C30FF"/>
<path d="M24.4811 53.3033C22.7311 52.3533 20.8911 54.0733 21.3311 55.9133C21.4611 56.4633 21.7911 56.9833 22.2811 57.2333C21.1011 55.4533 22.2111 53.0433 24.4811 53.3133V53.3033Z" fill="#1C30FF"/>
<path d="M70.0226 60.0536C68.2126 61.6036 67.3326 59.8436 64.5026 57.5336C61.8326 55.3536 59.7926 54.8036 60.0226 53.8836C60.4326 52.2736 62.8626 52.8736 65.9126 54.4836C68.9626 56.0936 71.2926 58.9736 70.0226 60.0536Z" fill="#828DFF"/>
<path d="M102.784 34.8326C104.514 34.7826 109.614 34.5626 112.124 35.2026C114.574 35.8326 116.414 37.7526 116.284 37.9426C116.064 38.2626 113.244 34.5526 104.174 35.5826C101.114 35.9326 95.3839 37.2726 93.1339 37.9626C92.6639 38.1126 92.4339 38.6026 92.4339 38.5326C92.4039 38.1926 92.4839 38.0226 92.8839 37.7526C94.8339 36.4826 100.014 34.9026 102.784 34.8226V34.8326Z" fill="#6E7BFF"/>
<path d="M101.024 39.8029C102.634 39.9729 107.224 40.5929 109.364 41.7329C111.464 42.8429 112.754 45.0529 112.604 45.2029C112.344 45.4629 111.794 41.4529 102.104 40.4129C99.2637 40.1029 93.8437 40.1529 91.6737 40.3329C91.2237 40.3729 90.8037 40.6929 90.8137 40.6329C90.8537 40.3029 90.8736 40.2929 91.2936 40.1429C92.7336 39.6429 98.6737 39.5429 101.024 39.7929V39.8029Z" fill="#6E7BFF"/>
<path d="M115.334 32.0427C115.334 32.1227 115.034 31.6727 114.554 31.6027C112.214 31.2727 105.384 31.2527 102.344 31.7627C96.3041 32.7727 92.1041 38.7527 90.6541 41.0127C90.3041 41.5627 91.2341 43.6627 91.8241 44.8427C92.0041 45.1927 92.1241 45.4327 92.1041 45.4627C92.0241 45.5727 91.7541 45.2127 91.4141 44.6527C90.7941 43.6427 90.2241 42.5427 90.0041 41.8327C89.6541 40.7227 94.0641 35.0827 95.4441 34.0027C98.4441 31.6627 101.804 30.6127 103.534 30.5727C106.194 30.4927 112.114 30.4327 114.484 31.2527C114.594 31.2927 114.684 31.3327 114.774 31.3727C115.214 31.5627 115.324 31.7227 115.344 32.0527L115.334 32.0427Z" fill="#1C30FF"/>
<path d="M64.5929 71.464C61.9129 70.764 61.0029 68.544 60.8029 68.604C60.5729 68.674 61.2029 71.234 64.1329 72.124C66.5929 72.874 70.2629 71.704 70.2729 71.534C70.2829 71.394 67.0929 72.114 64.5829 71.454L64.5929 71.464Z" fill="#1C30FF"/>
<path d="M49.0922 4.91158C49.0922 4.91158 52.8622 4.71158 56.5222 6.25158C59.9322 7.68158 64.2822 10.4716 65.2322 12.6316C66.6822 15.9516 65.0322 15.6416 64.1322 15.3416C61.7222 14.5316 60.9122 9.30158 54.7722 6.70158C50.6822 4.97158 46.1722 5.14158 49.0922 4.91158Z" fill="#FF87CB"/>
<path d="M67.7632 1.94142C68.5032 1.93142 72.5232 6.29142 73.9632 10.8414C75.1632 14.6514 75.2932 15.9714 73.7632 15.9214C71.7832 15.8614 73.2332 12.5614 72.2332 9.70142C69.8032 2.70142 67.0232 1.95142 67.7632 1.94142Z" fill="#FF87CB"/>
<path d="M79.5232 134.156C79.6632 134.966 79.5832 136.646 78.0832 137.606C78.0432 137.626 78.0032 137.646 77.9732 137.676C77.6732 137.836 77.3632 137.956 77.0432 138.046C76.9732 138.066 76.9032 138.086 76.8232 138.106C76.3032 138.226 75.8032 138.286 75.3332 138.306C75.0132 138.316 74.7132 138.306 74.4232 138.286C74.3332 138.276 74.2432 138.266 74.1432 138.256C73.7432 138.206 73.3632 138.106 73.0132 137.996C72.4632 137.796 71.9732 137.536 71.5532 137.226C71.5532 137.226 71.5532 137.226 71.5532 137.216C71.3632 137.076 71.1832 136.936 71.0232 136.776C70.9632 136.716 70.8932 136.646 70.8332 136.586C70.5432 136.276 70.2832 135.946 70.0732 135.616C69.6432 134.926 69.4032 134.206 69.3432 133.586C69.3232 133.416 69.3232 133.256 69.3332 133.116C69.3532 132.656 69.6732 131.926 70.1632 131.036C70.2232 130.936 70.2732 130.836 70.3332 130.736C70.9332 129.466 72.6632 128.486 73.3032 128.536C73.7332 128.566 74.1532 128.646 74.5732 128.776C75.5732 129.086 76.5232 129.656 77.2432 130.376C77.5132 130.646 78.0032 131.106 78.4732 131.736C78.9632 132.386 79.4132 133.206 79.5832 134.176L79.5232 134.156Z" fill="#4F5FFF"/>
<path d="M79.523 134.156C79.293 134.476 78.933 134.776 78.363 135.026C77.363 135.486 76.403 135.316 75.343 134.996C73.173 134.336 70.803 132.706 71.363 130.256V130.216C71.383 130.156 71.403 130.096 71.423 130.046C71.463 129.906 71.513 129.776 71.573 129.656C71.633 129.536 71.703 129.416 71.783 129.316C72.133 128.856 72.643 128.616 73.213 128.526C73.643 128.556 74.063 128.636 74.483 128.766C75.483 129.076 76.433 129.646 77.153 130.366C77.423 130.636 77.913 131.096 78.383 131.726C78.873 132.376 79.323 133.196 79.493 134.166L79.523 134.156Z" fill="#6B78FF"/>
<path d="M78.4137 131.717C77.9037 132.027 77.1337 132.137 76.6437 131.917C75.9837 131.627 74.7437 130.497 74.5337 129.327C74.5037 129.137 74.5037 128.947 74.5237 128.767C75.5237 129.067 76.4737 129.637 77.1937 130.357C77.4637 130.627 77.9537 131.087 78.4237 131.717H78.4137Z" fill="#8892FF"/>
<path d="M76.543 137.297C76.593 138.037 76.183 138.917 75.153 139.817C74.223 140.627 72.833 139.277 73.103 138.557V138.527C73.443 137.817 75.123 135.317 75.993 136.147C76.323 136.457 76.513 136.857 76.533 137.297H76.543Z" fill="#293CFF"/>
<path d="M76.5428 137.297C76.4528 137.947 76.0228 138.687 75.1728 139.437C74.3928 140.117 73.2828 139.267 73.1128 138.557V138.527C73.2128 138.337 73.3928 138.017 73.6428 137.677C74.2928 136.717 75.3728 135.537 76.0028 136.147C76.1128 136.247 76.2028 136.367 76.2728 136.487C76.4428 136.727 76.5328 136.997 76.5428 137.297Z" fill="#4F5FFF"/>
<path d="M75.3728 136.007C74.7928 136.177 74.1028 136.987 73.6428 137.667C73.6228 137.947 73.7128 138.157 73.9828 138.237C74.2928 138.327 74.6228 138.327 74.9328 138.237C74.9928 138.217 75.0428 138.197 75.1028 138.177C75.5728 137.877 75.9928 137.317 76.2728 136.487C76.2028 136.357 76.1128 136.247 76.0028 136.147C75.8228 135.977 75.6028 135.947 75.3728 136.017V136.007Z" fill="#7B87FF"/>
<path d="M73.6529 136.057C73.7029 136.797 73.2929 137.677 72.2629 138.577C71.3329 139.387 69.9429 138.037 70.2129 137.317V137.287C70.5529 136.577 72.2329 134.077 73.1029 134.907C73.4329 135.217 73.6229 135.617 73.6429 136.057H73.6529Z" fill="#293CFF"/>
<path d="M73.6527 136.057C73.5627 136.707 73.1327 137.447 72.2827 138.197C71.5027 138.877 70.3927 138.027 70.2227 137.317V137.287C70.3227 137.097 70.5027 136.777 70.7527 136.437C71.4027 135.477 72.4827 134.297 73.1127 134.907C73.2227 135.007 73.3127 135.127 73.3827 135.247C73.5527 135.487 73.6427 135.757 73.6527 136.057Z" fill="#4F5FFF"/>
<path d="M72.4729 134.767C71.8929 134.937 71.2029 135.747 70.7429 136.427C70.7229 136.707 70.8129 136.917 71.0829 136.997C71.3929 137.087 71.7229 137.087 72.0329 136.997C72.0929 136.977 72.1429 136.957 72.2029 136.937C72.6729 136.637 73.0929 136.077 73.3729 135.247C73.3029 135.117 73.2129 135.007 73.1029 134.907C72.9229 134.737 72.7029 134.707 72.4729 134.777V134.767Z" fill="#7B87FF"/>
<path d="M71.293 133.967C71.343 134.707 70.933 135.587 69.903 136.487C68.973 137.297 67.583 135.947 67.853 135.227V135.197C68.193 134.487 69.873 131.987 70.743 132.817C71.073 133.127 71.263 133.527 71.283 133.967H71.293Z" fill="#293CFF"/>
<path d="M71.2928 133.967C71.2028 134.617 70.7728 135.357 69.9228 136.107C69.1428 136.787 68.0328 135.937 67.8628 135.227V135.197C67.9628 135.007 68.1428 134.687 68.3928 134.347C69.0428 133.387 70.1228 132.207 70.7528 132.817C70.8628 132.917 70.9528 133.037 71.0228 133.157C71.1928 133.397 71.2828 133.667 71.2928 133.967Z" fill="#4F5FFF"/>
<path d="M70.113 132.687C69.533 132.857 68.843 133.667 68.383 134.347C68.363 134.627 68.453 134.837 68.723 134.917C69.033 135.007 69.363 135.007 69.673 134.917C69.733 134.897 69.783 134.877 69.843 134.857C70.313 134.557 70.733 133.997 71.013 133.167C70.943 133.037 70.853 132.927 70.743 132.827C70.563 132.657 70.343 132.627 70.113 132.697V132.687Z" fill="#7B87FF"/>
</svg>
