<svg width="221" height="228" viewBox="0 0 221 228" fill="none" xmlns="http://www.w3.org/2000/svg">
<mask id="mask0_21_14373" style="mask-type:luminance" maskUnits="userSpaceOnUse" x="0" y="0" width="221" height="228">
<path d="M5.81609 180.06C14.2262 194.922 25.0275 203.229 42.0642 204.27C52.9788 204.93 66.0888 209.052 78.2505 221.606C81.5898 225.048 105.192 228.738 124.97 227.872C151.324 226.718 170.968 222.688 177.173 218.205C197.456 203.528 214.142 213.69 217.348 204.25C222.264 189.789 220.893 21.7928 217.348 13.2487C213.802 4.70456 83.5377 -10.5697 65.8929 11.0843C24.5946 61.7822 42.9609 35.5417 22.1004 64.9566C1.23999 94.3715 -2.32608 128.62 1.17815 163.023L2.27064 173.804L5.81609 180.06Z" fill="white"/>
</mask>
<g mask="url(#mask0_21_14373)">
<path d="M105.058 184.316C103.502 187.274 100.76 190.757 99.1627 192.808L99.1215 192.829C81.9817 193.643 79.1268 198.621 74.4476 201.033C65.0893 205.856 59.6577 205.98 55.8546 204.032C54.6178 203.404 53.546 202.569 52.5771 201.6C49.8047 198.827 47.7949 195.055 44.7132 192.324C42.6829 190.52 40.6834 190.273 38.7767 189.912C36.7669 189.49 34.8293 188.964 33.0462 186.305C32.8401 186.037 32.6443 185.697 32.4588 185.357C32.0156 184.584 31.7476 183.821 31.6033 183.11C30.8509 179.338 33.2833 175.937 31.9847 170.567C30.954 166.352 26.6974 162.724 26.5737 159.786C26.5737 159.601 26.5943 159.426 26.615 159.24C26.8005 158.065 27.1818 157.096 27.6868 156.282C29.3256 153.551 32.2629 152.469 33.5616 150.613C37.3544 145.244 32.5721 139.142 33.4997 137.73L33.5616 137.71C33.7059 137.751 34.8602 136.998 36.2722 136.761C51.4846 134.267 66.0272 140.41 75.334 143.79C76.7357 144.296 78.0858 144.883 79.3638 145.574C95.1432 153.695 103.09 172.742 106.181 179.997C106.583 180.946 106.058 182.512 105.068 184.295L105.058 184.316Z" fill="#828DFF"/>
<path d="M105.058 184.316C103.564 184.017 102.1 184.254 100.503 184.584C97.9672 185.13 95.4008 185.677 92.886 186.285C87.8667 187.521 82.9814 189.14 78.3641 191.428C70.6239 195.272 63.5948 200.26 55.8546 204.033C54.6178 203.404 53.546 202.569 52.5771 201.6C56.3699 199.92 60.07 197.972 63.6773 195.808C68.0782 193.19 72.4275 190.459 77.0449 188.191C81.724 185.862 86.6712 184.244 91.7729 182.987C94.6691 182.275 97.5652 181.626 100.482 181.018C101.234 180.874 101.997 180.771 102.729 180.699C101.822 180.152 100.801 179.75 99.7502 179.482C96.751 178.689 93.556 178.328 90.4743 178.06C84.0327 177.452 77.5293 177.637 71.1083 178.307C58.1633 179.627 45.579 182.945 33.0462 186.305C32.8401 186.037 32.6443 185.697 32.4588 185.357C32.0156 184.584 31.7476 183.821 31.6033 183.11C51.0724 177.885 70.6445 172.721 91.0205 174.597C94.7309 174.937 99.5853 175.329 103.378 177.071C102.471 175.958 101.368 174.989 100.235 174.133C97.7198 172.247 94.8855 170.691 92.01 169.351C86.094 166.599 79.7761 164.837 73.3757 163.579C59.2558 160.786 44.6926 159.673 30.3253 159.714C29.0679 159.714 27.8311 159.735 26.5737 159.776C26.5737 159.591 26.5943 159.416 26.615 159.23C26.8005 158.055 27.1818 157.086 27.6868 156.272C35.5507 156.169 43.4455 156.437 51.2888 157.086C58.6271 157.694 65.955 158.601 73.1902 159.982C79.941 161.26 86.6609 163.064 92.9376 165.919C94.5351 166.63 96.1017 167.434 97.658 168.31C96.988 167.176 96.2769 166.084 95.4524 165.033C93.525 162.6 91.3607 160.333 89.2581 158.045C86.8876 155.489 84.4759 152.438 81.5797 150.222C80.0647 149.315 78.5187 148.48 76.9418 147.687C76.7357 147.584 76.5605 147.46 76.3956 147.305C72.9119 145.862 69.284 144.729 65.6768 143.574C61.6881 142.276 57.6377 141.08 53.5666 139.988C52.7111 139.761 51.8454 139.544 50.9899 139.318C45.1977 138.328 39.3641 137.741 33.4894 137.72L33.5513 137.7C33.6956 137.741 34.8499 136.988 36.2619 136.751C51.4743 134.257 66.0169 140.4 75.3237 143.78C93.7827 150.469 102.832 172.144 106.161 179.998C106.563 180.946 106.037 182.512 105.048 184.296L105.058 184.316Z" fill="#4555FF"/>
<g style="mix-blend-mode:multiply" opacity="0.32">
<path d="M105.058 184.316C103.502 187.274 100.76 190.758 99.1629 192.809L99.1217 192.83C81.9819 193.644 79.127 198.622 74.4478 201.034C65.0895 205.857 59.6579 205.981 55.8548 204.033C54.618 203.404 53.5461 202.569 52.5773 201.6C49.8049 198.828 47.7951 195.056 44.7134 192.325C42.683 190.521 40.6836 190.274 38.7769 189.913C44.5691 186.656 52.8556 180.091 59.6064 173.567C70.6447 162.889 79.0754 146.079 79.3537 145.574C95.133 153.696 103.079 172.742 106.171 179.998C106.573 180.946 106.048 182.513 105.058 184.296V184.316Z" fill="#4E6587"/>
</g>
<path d="M140.162 136.607C140.162 136.607 150.077 147.254 149.974 154.623C149.881 161.992 126.856 146.667 126.856 146.667L140.152 136.607H140.162Z" fill="#E80083"/>
<path d="M156.261 118.097C156.261 118.097 169.669 130.877 170.113 140.256C170.546 149.635 140.121 131.897 140.121 131.897L156.261 118.097Z" fill="#E80083"/>
<path d="M214.029 183.121C213.885 183.832 213.606 184.584 213.173 185.368C212.988 185.708 212.792 186.038 212.586 186.316C210.803 188.985 208.876 189.501 206.855 189.923C204.949 190.284 202.949 190.531 200.919 192.335C197.837 195.066 195.817 198.838 193.055 201.611C192.086 202.58 191.025 203.414 189.778 204.043C185.985 205.991 180.543 205.867 171.185 201.044C168.835 199.828 166.949 197.983 163.486 196.324C160.043 194.685 155.034 193.242 146.511 192.84L146.469 192.819C144.872 190.758 142.13 187.285 140.574 184.327C139.585 182.544 139.059 180.967 139.461 180.029C142.543 172.773 150.499 153.716 166.279 145.605C167.557 144.915 168.896 144.327 170.308 143.822C179.626 140.442 194.168 134.299 209.37 136.793C210.772 137.02 211.926 137.782 212.081 137.741L212.143 137.762C213.07 139.163 208.278 145.275 212.081 150.645C213.38 152.49 216.317 153.582 217.956 156.314C218.461 157.128 218.832 158.097 219.027 159.272C219.048 159.457 219.069 159.632 219.069 159.818C218.945 162.755 214.688 166.383 213.658 170.598C212.359 175.968 214.791 179.369 214.039 183.142L214.029 183.121Z" fill="#828DFF"/>
<path d="M140.574 184.316C142.068 184.017 143.532 184.254 145.13 184.584C147.665 185.13 150.231 185.677 152.746 186.285C157.765 187.522 162.651 189.14 167.268 191.428C175.008 195.272 182.037 200.26 189.777 204.033C191.014 203.404 192.086 202.569 193.055 201.6C189.262 199.92 185.562 197.972 181.955 195.808C177.554 193.19 173.205 190.459 168.587 188.191C163.908 185.862 158.961 184.244 153.859 182.987C150.963 182.276 148.067 181.626 145.15 181.018C144.398 180.874 143.635 180.771 142.903 180.699C143.81 180.152 144.831 179.75 145.882 179.482C148.881 178.689 152.076 178.328 155.158 178.06C161.599 177.452 168.103 177.638 174.524 178.308C187.469 179.627 200.053 182.945 212.586 186.305C212.792 186.037 212.988 185.697 213.173 185.357C213.616 184.584 213.884 183.822 214.029 183.11C194.56 177.885 174.988 172.721 154.612 174.597C150.901 174.937 146.047 175.329 142.254 177.071C143.161 175.958 144.264 174.989 145.397 174.133C147.912 172.247 150.747 170.691 153.622 169.351C159.538 166.599 165.856 164.837 172.256 163.579C186.376 160.786 200.939 159.673 215.307 159.715C216.564 159.715 217.801 159.735 219.058 159.776C219.058 159.591 219.038 159.416 219.017 159.23C218.832 158.055 218.45 157.086 217.945 156.272C210.081 156.169 202.187 156.437 194.343 157.086C187.005 157.694 179.677 158.601 172.442 159.982C165.691 161.26 158.971 163.064 152.695 165.919C151.097 166.63 149.53 167.434 147.974 168.31C148.644 167.176 149.355 166.084 150.18 165.033C152.107 162.6 154.271 160.333 156.374 158.045C158.744 155.489 161.156 152.438 164.052 150.222C165.567 149.315 167.113 148.48 168.69 147.687C168.896 147.584 169.072 147.46 169.237 147.305C172.72 145.863 176.348 144.729 179.955 143.574C183.944 142.276 187.994 141.08 192.066 139.988C192.921 139.761 193.787 139.545 194.642 139.318C200.434 138.328 206.268 137.741 212.143 137.72L212.081 137.7C211.937 137.741 210.782 136.989 209.37 136.752C194.158 134.257 179.615 140.4 170.308 143.781C151.849 150.47 142.8 172.144 139.471 179.998C139.069 180.946 139.595 182.513 140.584 184.296L140.574 184.316Z" fill="#4555FF"/>
<g style="mix-blend-mode:multiply" opacity="0.32">
<path d="M162.032 187.965C164.568 191.387 167.227 196.313 163.486 196.313C160.043 194.675 155.034 193.232 146.511 192.83L146.469 192.809C144.872 190.748 142.13 187.274 140.574 184.316C139.585 182.533 139.059 180.957 139.461 180.019C142.543 172.763 150.499 153.706 166.279 145.595C166.547 146.1 148.809 170.124 162.032 187.975V187.965Z" fill="#4E6587"/>
</g>
<path d="M187.036 336.214C181.46 348.067 173.617 356.848 164.557 363.042C164.557 363.042 164.557 363.053 164.547 363.073C150.86 372.473 134.4 375.957 118.724 375.153C107.098 374.555 95.6479 371.453 85.4959 366.351C70.1082 358.631 57.7198 346.305 52.2264 331.041C36.5708 287.392 78.4462 223.049 92.2158 195.479C99.6365 180.637 101.966 167.713 102.512 158.952C102.976 151.459 102.151 147.017 102.151 147.017L108.479 146.615L135.617 144.894L138.41 144.709C138.41 144.709 138.626 149.037 139.646 155.747C139.914 157.468 140.234 159.354 140.626 161.354C142.532 171.31 146.016 184.327 152.344 196.324C164.898 220.142 210.05 287.454 187.036 336.194V336.214Z" fill="#6B78FF"/>
<path d="M164.558 363.042C164.558 363.042 164.558 363.053 164.547 363.073C150.87 372.463 134.401 375.957 118.724 375.153C107.099 374.545 95.648 371.463 85.496 366.361C85.496 366.361 62.1517 331.968 63.8523 293.906C65.5425 255.824 90.7317 214.7 99.0182 199.158C106.995 184.162 108.294 156.314 108.49 146.636C108.552 144.461 108.541 143.194 108.541 143.194C108.541 143.194 135.854 130.156 135.627 144.905C135.204 171.815 138.121 184.853 143.017 196.777C154.127 223.75 176.183 264.605 179.492 293.844C182.749 322.744 165.011 362.084 164.578 363.042H164.558Z" fill="#B3B9FF"/>
<mask id="mask1_21_14373" style="mask-type:luminance" maskUnits="userSpaceOnUse" x="63" y="137" width="117" height="239">
<path d="M164.558 363.042C164.558 363.042 164.558 363.053 164.547 363.073C150.87 372.463 134.401 375.957 118.724 375.153C107.099 374.545 95.648 371.463 85.496 366.361C85.496 366.361 62.1517 331.968 63.8523 293.906C65.5425 255.824 90.7317 214.7 99.0182 199.158C106.995 184.162 108.294 156.314 108.49 146.636C108.552 144.461 108.541 143.194 108.541 143.194C108.541 143.194 135.854 130.156 135.627 144.905C135.204 171.815 138.121 184.853 143.017 196.777C154.127 223.75 176.183 264.605 179.492 293.844C182.749 322.744 165.011 362.084 164.578 363.042H164.558Z" fill="white"/>
</mask>
<g mask="url(#mask1_21_14373)">
<path d="M141.09 160.086C140.574 162.797 135.74 162.137 133.679 162.209C130.505 162.322 127.32 162.374 124.146 162.261C117.859 162.024 111.551 161.034 105.882 158.19C103.378 156.932 101.11 160.663 103.625 161.931C110.582 165.425 118.271 166.548 125.99 166.682C129.773 166.744 133.576 166.651 137.348 166.435C140.698 166.249 144.573 165.116 145.295 161.312C145.81 158.571 141.615 157.324 141.1 160.086H141.09Z" fill="#8792FF"/>
<path d="M143.068 176.154C140.275 177.669 137.461 179.235 134.411 180.184C131.051 181.224 127.65 181.266 124.197 180.678C117.415 179.534 110.685 177.401 104.202 175.154C101.543 174.237 100.327 178.431 102.976 179.349C110.056 181.791 117.446 184.162 124.887 185.162C132.422 186.182 138.739 183.471 145.222 179.957C147.696 178.617 145.542 174.803 143.068 176.154Z" fill="#8792FF"/>
<path d="M142.831 192.242C137.637 197.22 130.278 198.457 123.341 197.911C115.261 197.272 107.243 194.726 99.492 192.479C96.7917 191.696 95.5652 195.891 98.2656 196.674C113.076 200.962 132.999 207.723 145.882 195.376C147.912 193.428 144.872 190.294 142.841 192.242H142.831Z" fill="#8792FF"/>
<path d="M155.817 211.33C145.408 215.288 134.359 217.257 123.228 217.03C117.724 216.917 112.231 216.288 106.851 215.103C101.955 214.02 96.9463 212.495 93.1432 209.073C91.0613 207.197 87.9075 210.238 90.01 212.114C94.0193 215.711 98.9767 217.69 104.161 218.947C109.943 220.359 115.91 221.142 121.857 221.359C133.782 221.781 145.779 219.792 156.93 215.556C159.528 214.567 158.466 210.32 155.828 211.33H155.817Z" fill="#8792FF"/>
<path d="M172.926 219.647C162.888 227.439 150.355 231.17 137.864 232.561C131.443 233.283 124.97 233.437 118.508 233.283C112.272 233.139 105.924 232.912 99.7706 231.85C93.1229 230.706 86.5577 228.501 81.7754 223.533C79.8275 221.502 76.684 224.553 78.6422 226.573C87.98 236.272 102.595 237.045 115.22 237.539C128.814 238.075 142.831 237.436 155.869 233.252C163.146 230.912 169.917 227.46 175.957 222.77C178.173 221.049 175.111 217.926 172.916 219.637L172.926 219.647Z" fill="#8792FF"/>
</g>
<g style="mix-blend-mode:multiply" opacity="0.48">
<path d="M139.647 155.757C125.073 153.366 103.151 157.757 144.326 180.957C150.623 184.512 118.549 181.08 102.512 158.962C102.976 151.47 102.151 147.027 102.151 147.027L108.48 146.625L135.617 144.904L138.41 144.719C138.41 144.719 138.626 149.048 139.647 155.757Z" fill="#6988B5"/>
</g>
<path d="M21.2246 159.333C19.2973 156.499 21.7502 146.151 21.7502 146.151C21.7502 146.151 23.9661 144.337 27.2127 148.068C27.2127 148.068 27.3364 148.367 27.4807 148.883C28.099 150.975 29.14 156.602 24.0589 159.54C22.6675 160.343 21.7708 160.148 21.2349 159.344L21.2246 159.333Z" fill="#7B87FF"/>
<path d="M21.2246 159.333C20.1837 155.633 22.1831 147.141 22.1831 147.141C22.1831 147.141 24.3269 145.378 27.4704 148.872C27.6971 149.635 27.9857 150.882 27.996 152.294C28.0372 154.726 27.2643 157.674 24.0486 159.529C22.9046 160.189 22.0801 160.178 21.5235 159.694C21.4101 159.591 21.2968 159.467 21.2246 159.333Z" fill="#4F5FFF"/>
<path opacity="0.45" d="M27.9957 152.294C28.0369 154.726 27.2639 157.674 24.0483 159.529C23.9555 159.581 23.8628 159.632 23.7803 159.673C23.2547 158.746 22.7393 157.849 22.2446 156.983C22.8939 154.757 23.8628 152.057 25.0068 150.655C25.7282 150.16 26.5218 150.263 27.3361 151.273C27.5937 151.603 27.8308 151.943 27.9957 152.284V152.294Z" fill="#FF0090"/>
<path d="M97.4724 185.13C97.4209 185.986 97.3178 187.058 97.3693 187.563C97.5961 189.408 97.122 191.541 96.2871 193.499H96.2768C94.8958 196.766 92.4737 199.56 90.4846 199.786C88.4645 200.023 80.8376 199.869 72.0255 199.199C71.2422 199.147 70.4383 199.075 69.6447 199.003C69.3768 198.982 69.1191 198.962 68.8511 198.931C68.0472 198.859 67.233 198.787 66.4291 198.704C66.0271 198.673 65.6252 198.622 65.2129 198.591C64.8213 198.549 64.4296 198.498 64.038 198.467C63.77 198.436 63.502 198.395 63.2341 198.374C62.9455 198.343 62.6569 198.302 62.3683 198.271C60.3791 198.044 58.4209 197.787 56.5039 197.509C56.1844 197.467 55.8752 197.405 55.5763 197.364C52.9172 196.952 50.4024 196.478 48.1556 195.952C47.5166 195.798 46.8879 195.633 46.2901 195.478C45.1049 195.148 44.0124 194.819 43.0435 194.447C37.0451 192.139 28.2743 188.779 20.668 184.914C20.0393 184.584 19.4106 184.265 18.7922 183.935C18.4934 183.77 18.1739 183.595 17.875 183.44C16.6691 182.78 15.5148 182.1 14.4223 181.42C14.1543 181.255 13.8863 181.07 13.6184 180.905C10.5573 178.926 8.08374 176.895 6.5893 174.824C6.54807 174.783 6.53776 174.721 6.48623 174.68C6.24918 174.329 6.03274 174.01 5.86784 173.659C5.81631 173.546 5.75447 173.432 5.71324 173.319C5.57925 173.061 5.46588 172.793 5.38343 172.536C5.31128 172.34 5.27006 172.154 5.22883 171.979C4.99178 170.99 4.8578 170.042 4.79596 169.135V169.083C4.77534 169.001 4.77534 168.939 4.77534 168.846V168.743C4.73412 168.125 4.73412 167.527 4.78565 166.96C4.78565 166.908 4.79596 166.847 4.79596 166.795C4.79596 166.671 4.79596 166.548 4.80626 166.414C4.80626 166.331 4.81657 166.249 4.82688 166.166C4.83718 165.96 4.8681 165.764 4.89902 165.569C4.92994 165.435 4.95056 165.301 4.98148 165.177C5.23914 163.724 5.73385 162.446 6.37286 161.302C6.45531 161.157 6.52746 161.023 6.62022 160.879C6.63052 160.869 6.63052 160.858 6.64083 160.848C6.73359 160.673 6.86757 160.477 7.00156 160.323C7.00156 160.302 7.02217 160.302 7.02217 160.302C7.29014 159.9 7.56842 159.508 7.89823 159.168C7.92915 159.137 7.94976 159.096 7.99099 159.065C8.03221 159.024 8.07344 158.962 8.11466 158.921C8.13528 158.9 8.15589 158.869 8.18681 158.838C8.26926 158.756 8.3311 158.684 8.43417 158.612L8.46509 158.581C8.74336 158.251 9.09379 157.952 9.44421 157.674C10.0523 157.169 10.6913 156.746 11.3406 156.385C11.5983 156.241 11.8662 156.107 12.1239 155.983C12.6392 155.746 13.1649 155.551 13.6699 155.396C14.0718 155.262 14.4635 155.18 14.8448 155.118H14.8758C15.3808 155.035 15.8446 154.994 16.2878 155.015C16.7722 155.035 17.4112 155.169 18.1532 155.406H18.1635C18.9159 155.643 19.7817 155.963 20.7299 156.365H20.7402C20.9566 156.447 21.1421 156.519 21.3586 156.633H21.3689C22.0182 156.921 22.6778 157.22 23.389 157.55C24.3062 157.983 25.2751 158.467 26.2851 158.972C26.2954 158.972 26.2954 158.983 26.3057 158.983C27.9135 159.807 29.6244 160.673 31.3044 161.58C37.0039 164.6 42.5591 167.692 44.8266 168.393C44.8266 168.393 86.5165 180.441 94.0094 183.193C94.0815 183.213 94.1743 183.234 94.3495 183.275C94.401 183.275 94.4732 183.286 94.5453 183.296C94.7721 183.327 95.0194 183.337 95.2977 183.368C95.5141 183.389 95.7306 183.389 95.947 183.409C96.0707 183.419 96.1944 183.44 96.3284 183.44C96.5345 183.461 96.7406 183.481 96.8849 183.533C97.122 183.584 97.3075 183.657 97.4106 183.76C97.5342 183.873 97.5136 184.43 97.4621 185.13H97.4724Z" fill="#6B78FF"/>
<path opacity="0.35" d="M96.2973 193.5C94.9265 197.395 93.6794 199.446 90.4947 199.807C86.0526 200.302 54.8444 198.983 43.0434 194.458C35.0558 191.376 22.1211 186.44 13.6079 180.926C17.2667 182.07 61.5745 204.497 96.287 193.5H96.2973Z" fill="#293CFF"/>
<path opacity="0.35" d="M97.4825 185.131C94.9883 183.203 60.2037 172.794 51.5359 171.217C43.9606 169.836 35.8184 165.321 31.3145 161.59C37.0243 164.61 42.5795 167.692 44.8469 168.413C44.8469 168.413 86.5369 180.451 94.0298 183.203C94.0916 183.224 94.1947 183.244 94.3699 183.286C94.5966 183.306 94.9574 183.327 95.3181 183.368C95.5242 183.389 95.7613 183.389 95.9674 183.409C96.0911 183.43 96.2148 183.451 96.3487 183.451C96.5549 183.471 96.7713 183.492 96.9156 183.533C97.1423 183.595 97.3382 183.657 97.4412 183.76C97.5649 183.863 97.5443 184.43 97.5031 185.12L97.4825 185.131Z" fill="#293CFF"/>
<path opacity="0.45" d="M12.5359 172.722C11.0208 171.804 13.1543 160.797 17.988 160.673C21.8942 160.57 24.275 166.909 22.7084 170.104C20.8945 173.804 16.7616 175.288 12.5359 172.722Z" fill="#FF0090"/>
<path d="M4.2395 163.146C4.93004 166.218 10.5471 168.98 11.7942 169.217C13.0928 169.474 14.4327 164.548 13.0825 162.177V162.157C12.9691 161.94 12.8352 161.765 12.6806 161.6C9.20725 158.075 5.10525 158.374 4.2395 161.92C4.13644 162.322 4.14674 162.744 4.2395 163.136" fill="#293CFF"/>
<path d="M4.2395 163.146C5.73395 165.785 10.2791 167.97 11.3922 168.186C12.5157 168.413 13.6803 164.703 13.0825 162.188V162.167C12.9691 161.951 12.8352 161.776 12.6806 161.611C12.0209 160.941 11.3407 160.415 10.6605 160.023C7.83648 158.374 5.07433 159.034 4.29103 161.724L4.2395 161.94C4.13644 162.342 4.14674 162.765 4.2395 163.157" fill="#4F5FFF"/>
<path d="M7.58906 159.127C6.03277 159.158 4.78568 160.055 4.30127 161.724C4.3425 161.807 4.40433 161.889 4.46617 161.93C5.19794 162.58 8.18684 164.249 10.1245 164.198C10.413 164.198 10.6707 164.146 10.9078 164.053C11.0727 163.858 11.1963 163.538 11.2376 163.177C11.3613 162.116 11.1448 161.013 10.6604 160.024C9.58853 159.395 8.53726 159.106 7.58906 159.127Z" fill="#7B87FF"/>
<path d="M7.98059 156.025C8.39285 158.704 13.7316 161.6 14.9478 161.92C16.2155 162.27 17.9986 158.21 16.8648 156.066C16.7824 155.86 16.6587 155.695 16.5144 155.54C13.3812 152.201 9.2586 152.057 8.09396 154.984C7.95998 155.313 7.92906 155.674 7.98059 156.014" fill="#293CFF"/>
<path d="M7.98059 156.025C9.22768 158.405 13.5564 160.714 14.6386 161.003C15.7414 161.302 17.2256 158.272 16.8648 156.076C16.7824 155.87 16.6587 155.705 16.5144 155.551C15.9166 154.912 15.2879 154.407 14.6489 154.005C11.9898 152.325 9.17615 152.613 8.16611 154.819L8.09396 154.994C7.95998 155.324 7.92906 155.685 7.98059 156.025Z" fill="#4F5FFF"/>
<path d="M11.6805 152.932C10.1345 152.809 8.80497 153.437 8.17627 154.819C8.20719 154.901 8.25872 154.963 8.32056 155.014C8.99049 155.633 11.8145 157.344 13.7521 157.498C14.0407 157.519 14.3087 157.509 14.5457 157.457C14.7312 157.302 14.8755 157.045 14.9477 156.746C15.1641 155.849 15.0507 154.901 14.6591 154.004C13.649 153.365 12.6287 153.015 11.6805 152.943" fill="#7B87FF"/>
<path d="M3.08483 171.134C3.8269 172.7 5.48625 173.958 8.21748 174.453C10.6911 174.906 11.5671 170.351 10.3097 169.248L10.2582 169.196C8.91833 168.186 3.30126 165.269 2.74471 168.083C2.52827 169.134 2.64165 170.186 3.08483 171.124" fill="#293CFF"/>
<path d="M3.08509 171.134C3.96114 172.34 5.49682 173.277 7.76426 173.69C9.83587 174.071 10.8047 170.907 10.2997 169.248L10.2481 169.196C9.88741 168.928 9.22779 168.526 8.43418 168.135C6.26981 167.032 3.14693 166.022 2.74497 168.083C2.67283 168.433 2.64191 168.784 2.66252 169.134C2.64191 169.835 2.7862 170.515 3.08509 171.123" fill="#4F5FFF"/>
<path d="M4.35243 166.908C3.52791 166.929 2.90952 167.259 2.74461 168.104C2.68278 168.403 2.65186 168.701 2.65186 169C2.65186 169.052 2.65186 169.093 2.65186 169.145C4.05355 170.484 5.38309 171.062 6.51681 171.072C7.30011 170.907 7.98034 170.433 8.48536 169.753C8.85639 169.248 8.78425 168.691 8.43383 168.155C7.15581 167.506 5.53769 166.887 4.35243 166.918" fill="#7B87FF"/>
<path d="M163.073 63.9566C163.073 63.9566 180.048 58.3704 188.221 62.2663C196.394 66.1622 167.464 83.9719 167.464 83.9719L163.073 63.9566Z" fill="#FF0090"/>
<path d="M159.085 102.905C159.085 102.905 176.585 106.523 181.728 113.974C186.871 121.426 152.911 122.446 152.911 122.446L159.085 102.915V102.905Z" fill="#E80083"/>
<path d="M125.692 43.4982C122.126 46.3531 129.763 35.5415 126.104 27.0798C115.344 2.22046 102.007 5.74529 105.573 2.89038C109.139 0.0251615 122.291 0.0870013 139.245 21.2051C156.199 42.3232 129.258 40.6329 125.692 43.4878V43.4982Z" fill="#FF0090"/>
<path d="M133.359 46.621C128.794 46.8065 141.357 42.6324 143.429 33.6451C149.51 7.25001 136.688 2.17919 141.244 1.99368C145.81 1.80816 156.364 9.65144 157.487 36.7164C158.6 63.7711 137.925 46.4355 133.359 46.621Z" fill="#FF0090"/>
<path d="M138.863 51.4552C134.627 49.734 147.799 51.1357 153.406 43.8284C169.876 22.3289 160.311 12.4037 164.537 14.1146C168.773 15.8358 175.122 27.3585 164.918 52.4446C154.715 77.5308 143.089 53.1764 138.853 51.4552H138.863Z" fill="#FF0090"/>
<path d="M144.419 55.3091C141.038 52.2377 151.777 55.8141 158.796 51.7224C179.43 39.6947 175.843 32.7068 179.224 35.7782C182.604 38.8495 183.676 48.5892 167.773 66.0691C151.87 83.549 147.789 58.3908 144.419 55.3194V55.3091Z" fill="#FF0090"/>
<path d="M107.676 49.9399C103.409 51.5683 114.313 44.4465 114.2 37.3247C113.86 16.3921 100.585 16.9692 104.852 15.3305C109.119 13.7021 120.899 15.8664 128.186 34.9129C135.472 53.9594 111.953 48.3011 107.686 49.9296L107.676 49.9399Z" fill="#FF0090"/>
<path d="M220.223 82.117C220.192 82.2613 219.842 81.3234 218.997 80.9833C214.905 79.3858 202.527 76.3762 196.786 75.9949C185.387 75.2116 175.225 84.2607 171.576 87.6928C170.401 88.7956 171.679 93.8768 172.236 96.2679C172.019 96.0927 171.793 95.9278 171.576 95.7422C171.391 95.6082 171.205 95.4537 171.02 95.3094C168 92.8049 168.206 89.8778 169.34 86.59C170.35 83.6733 170.195 72.367 170.185 71.7074C170.37 71.9238 174.514 77.1183 179.77 74.7066C187.252 71.3054 192.581 70.316 198.363 71.0168C207.711 72.1506 215.029 77.3966 218.997 80.303L219.151 80.4164C219.728 80.839 220.079 81.4574 220.213 82.1273L220.223 82.117Z" fill="#6B78FF"/>
<path d="M34.293 80.7768C34.3548 106.986 51.9275 130.681 79.9407 143.131C116.642 159.447 158.167 146.151 172.71 113.449C180.914 94.9792 169.886 65.2345 162.269 55.8659C154.653 46.5076 150.53 41.3955 141.842 36.9122C136.977 34.3974 124.011 29.677 112.19 34.5829C107.14 36.6751 107.933 34.0366 100.193 27.1416C88.3611 16.6083 65.1095 21.3699 58.1423 36.5411C54.8751 43.6423 52.484 51.5268 51.9996 58.3807V58.4116C51.1442 61.2768 50.196 63.8844 48.9283 65.9663C44.5171 73.2015 34.2827 72.6449 34.293 80.7562V80.7768Z" fill="#6B78FF"/>
<path d="M135.205 41.7257C139.863 42.6739 144.068 45.1681 147.047 48.9815C149.716 52.4033 152.447 57.9482 151.386 61.9987C151.138 62.9159 149.695 62.112 149.366 60.4939C148.809 57.7111 146.191 52.9289 142.831 51.5169C139.77 50.2183 136.225 49.1464 133.04 48.4662C126.258 47.0026 131.721 41.0249 135.194 41.736L135.205 41.7257Z" fill="#1C30FF"/>
<path d="M88.9794 28.2548C85.0217 26.0389 80.4765 25.2968 76.0344 26.3687C72.0561 27.3272 66.7688 29.8832 65.1404 33.6967C64.7694 34.5624 66.305 34.8613 67.5109 33.81C69.5722 32.0064 74.3235 29.976 77.601 30.9964C80.6002 31.9343 83.8159 33.3462 86.5471 34.8304C92.36 37.9945 91.9271 29.9142 88.9794 28.2548Z" fill="#1C30FF"/>
<path d="M218.11 97.1335C215.771 98.1642 212.277 99.5556 208.35 100.689C208.803 101.833 209.185 102.874 209.494 103.75C210.02 105.204 208.979 106.492 207.577 106.976C204.866 107.914 199.62 109.955 195.858 106.832C189.561 101.607 194.343 107.543 193.55 109.666C192.54 112.398 185.799 111.192 183.356 106.533C181.924 103.812 181.13 100.772 172.215 96.2575C171.659 93.8767 170.391 88.7852 171.555 87.6824C175.204 84.2401 185.366 75.2012 196.765 75.9845C202.506 76.3762 214.884 79.3754 218.976 80.9729C219.831 81.313 220.182 82.2509 220.202 82.1169C220.378 83.096 220.068 84.1885 219.244 84.91C218.224 85.817 216.935 86.8888 215.461 88.0432C216.997 89.9499 218.285 91.6505 219.213 92.9594C220.233 94.3611 219.666 96.4327 218.1 97.1232L218.11 97.1335Z" fill="#828DFF"/>
<path d="M88.9178 63.3384C86.0423 73.0677 82.1258 77.3346 67.944 73.1502C53.7622 68.9657 52.7831 63.2559 55.6483 53.5265C58.5135 43.7972 69.5518 33.841 78.7349 36.5517C87.9181 39.2623 91.783 53.6193 88.9075 63.3487L88.9178 63.3384Z" fill="#3647FF"/>
<path d="M88.588 63.3071C85.8774 72.5005 82.167 76.5407 68.7582 72.583C55.3494 68.6253 54.4218 63.2247 57.1428 54.0209C59.8534 44.8275 70.2836 35.4073 78.972 37.9736C87.6604 40.5399 91.3089 54.1034 88.5983 63.3071H88.588Z" fill="white"/>
<path d="M73.9764 71.5161C79.9458 68.2669 82.151 60.7937 78.9018 54.8243C75.6525 48.8549 68.1794 46.6498 62.2099 49.899C56.2405 53.1482 54.0354 60.6214 57.2846 66.5908C60.5338 72.5602 68.007 74.7654 73.9764 71.5161Z" fill="#E80083"/>
<path d="M77.9616 63.709C76.3023 69.1612 70.5306 72.2325 65.0784 70.5732C59.6263 68.9138 56.5549 63.1422 58.2143 57.69C59.8736 52.2378 65.6453 49.1665 71.0975 50.8258C76.5496 52.4852 79.621 58.2569 77.9616 63.709Z" fill="#00074D"/>
<path d="M64.9649 55.3197C65.6142 55.1651 66.4284 56.2163 66.7789 57.6592C67.1293 59.1125 66.8819 60.4111 66.2326 60.576C65.5833 60.7306 64.7691 59.6793 64.4187 58.2364C64.0682 56.7832 64.3156 55.4846 64.9649 55.3197Z" fill="white"/>
<path d="M64.1199 51.8361C64.7692 51.6815 65.4082 52.0011 65.5422 52.5576C65.6762 53.1142 65.2536 53.6913 64.6043 53.8459C63.955 54.0005 63.316 53.681 63.182 53.1245C63.048 52.5679 63.4706 51.9907 64.1199 51.8361Z" fill="white"/>
<path d="M106.975 68.0999C100.945 78.8187 100.564 85.8478 116.189 94.6289C131.813 103.41 137.616 99.4318 143.645 88.713C149.675 77.9942 148.994 59.9784 138.873 54.2891C128.752 48.5999 113.014 57.3811 106.985 68.0999H106.975Z" fill="#3647FF"/>
<path d="M107.274 68.3675C101.574 78.5092 101.214 85.1466 115.983 93.4434C130.762 101.75 136.235 97.9885 141.935 87.8469C147.634 77.7053 146.995 60.6789 137.42 55.2988C127.846 49.9188 112.973 58.2259 107.274 68.3572V68.3675Z" fill="white"/>
<path d="M133.706 81.1553C133.847 72.9086 127.276 66.109 119.029 65.9679C110.783 65.8268 103.983 72.3978 103.842 80.6445C103.701 88.8912 110.272 95.6908 118.518 95.8319C126.765 95.973 133.565 89.402 133.706 81.1553Z" fill="#E80083"/>
<path d="M118.776 93.5053C125.737 93.5053 131.381 87.8619 131.381 80.9004C131.381 73.9389 125.737 68.2955 118.776 68.2955C111.814 68.2955 106.171 73.9389 106.171 80.9004C106.171 87.8619 111.814 93.5053 118.776 93.5053Z" fill="#00074D"/>
<path d="M116.168 73.0262C115.519 72.9438 114.839 74.0363 114.653 75.4792C114.468 76.9221 114.839 78.1589 115.488 78.2413C116.137 78.3238 116.818 77.2313 117.003 75.7884C117.189 74.3455 116.818 73.1087 116.168 73.0262Z" fill="white"/>
<path d="M116.621 69.5637C115.972 69.4813 115.385 69.8626 115.313 70.4088C115.24 70.9654 115.704 71.4807 116.354 71.5632C117.003 71.6456 117.59 71.2643 117.662 70.718C117.735 70.1615 117.271 69.6462 116.621 69.5637Z" fill="white"/>
<path d="M29.4284 82.5084C32.0462 68.4812 69.0364 62.5137 89.5258 71.8206C107.573 80.0143 127.949 103.049 136.555 106.852C146.243 111.14 121.579 154.469 87.279 152.789C78.4257 152.356 63.8213 148.501 47.5473 131.331C27.1609 109.831 26.8208 96.5253 29.4387 82.5084H29.4284Z" fill="#6B78FF"/>
<mask id="mask2_21_14373" style="mask-type:luminance" maskUnits="userSpaceOnUse" x="28" y="67" width="111" height="86">
<path d="M29.4284 82.5086C32.0462 68.4917 69.0364 62.5139 89.5258 71.8207C107.562 80.0144 127.949 103.05 136.555 106.853C146.243 111.14 121.579 154.469 87.279 152.789C78.4257 152.356 63.8213 148.501 47.5473 131.331C27.1609 109.831 26.8208 96.5255 29.4387 82.5086" fill="white"/>
</mask>
<g mask="url(#mask2_21_14373)">
<path d="M112.819 85.2293C113.324 77.8395 102.924 73.9539 97.6474 71.1403C90.4328 67.2856 82.8884 64.1318 74.973 62.0705C69.9125 60.7513 46.125 57.3398 39.2608 63.3897C34.9424 63.3176 32.5513 69.8726 37.2717 71.6041C40.1884 72.6759 42.7856 75.7473 44.9191 77.9013C47.3824 80.4058 51.4225 83.5081 54.7 84.6521C61.8321 87.136 67.1812 86.9402 74.6638 87.2494C82.6204 87.5689 90.1545 88.2388 97.8844 90.228C103.254 91.6091 112.262 93.3921 112.829 85.2396L112.819 85.2293Z" fill="#828DFF"/>
<path d="M76.0245 96.5668C76.1069 95.8145 75.6637 93.4233 73.1902 92.5576C70.7166 91.6918 69.3767 92.9492 68.2018 94.0417C67.5113 94.6807 69.5726 95.4022 70.5311 95.2991H70.6135C70.7063 95.2991 70.799 95.3198 70.8815 95.3404C71.1907 95.4537 70.7887 97.0513 70.8506 97.4738C70.9124 97.8861 71.6957 99.3393 73.5818 99.3393C75.8492 99.3393 75.9626 97.0512 76.0245 96.5668Z" fill="#99A2FF"/>
<path d="M49.5775 85.1368C49.4023 83.9619 48.4747 82.9724 47.5471 82.5189C46.6195 82.0655 45.6816 81.7666 44.8159 81.9109C44.2593 82.0036 42.8886 82.0551 42.0022 83.5084C41.5796 84.2092 41.0952 85.2193 41.693 85.7758C44.5788 88.4658 47.846 87.095 48.2583 86.992C49.0725 86.7962 49.7012 85.9922 49.5775 85.1265V85.1368Z" fill="#99A2FF"/>
<path d="M141.203 105.812C137.874 105.554 134.947 103.349 132.319 101.463C129.495 99.4219 126.825 97.1853 124.207 94.887C119.157 90.4552 114.241 85.8585 108.758 81.942C98.3586 74.5109 86.4957 69.0279 73.9218 66.5234C66.9236 65.132 59.7296 64.73 52.6181 65.4C50.3919 65.6164 50.7733 69.0588 52.9995 68.8527C65.4807 67.6674 78.0444 70.0791 89.5156 75.016C95.2975 77.4998 100.801 80.5918 105.944 84.2094C111.438 88.0744 116.354 92.6092 121.383 97.0411C124.249 99.5662 127.155 102.04 130.268 104.266C133.339 106.472 136.781 108.945 140.677 109.254C142.883 109.43 143.429 105.997 141.193 105.822L141.203 105.812Z" fill="#1C30FF"/>
<path d="M93.236 146.935C86.2997 147.904 79.8581 144.4 79.5695 144.688C79.2397 145.018 85.8153 149.409 93.6792 148.605C100.265 147.935 105.367 142.524 105.047 142.173C104.779 141.885 99.7394 146.028 93.236 146.935Z" fill="#1C30FF"/>
<path d="M46.0222 71.6969C45.1564 71.6763 45.2904 73.6449 47.8465 76.9739C50.3922 80.3029 53.8655 82.8486 61.482 83.1166C62.4302 83.1475 73.9323 83.4979 73.2418 81.4366C72.881 80.3647 63.2032 78.6332 56.5761 76.3349C50.4849 74.222 48.7637 71.7588 46.0325 71.7072L46.0222 71.6969Z" fill="#919BFF"/>
</g>
<path d="M116.55 123.394C115.055 125.497 113.664 127.403 112.324 129.114C105.944 135.937 101.698 140.235 92.6799 141.544C91.9378 141.647 91.1648 141.729 90.3712 141.791C80.0028 142.636 71.3041 136.463 65.8726 133.412C64.1101 132.423 64.7492 129.794 66.7795 129.63H66.8723C68.3564 129.434 78.3126 129.836 90.2682 128.073C92.247 127.785 94.298 127.424 96.3593 126.991C102.481 125.734 108.82 123.837 114.612 120.962C114.849 120.848 115.076 120.766 115.303 120.745C115.89 120.684 116.426 120.869 116.828 121.219L116.931 121.312L117.106 121.56C117.467 122.209 117.251 122.436 116.56 123.384L116.55 123.394Z" fill="#00074D"/>
<path d="M95.0606 128.362C95.0503 128.785 94.9781 129.723 94.6174 130.506C94.3185 131.135 93.8238 131.877 93.463 132.361C93.2363 132.67 92.7931 132.722 92.4942 132.485C92.0511 132.124 91.4224 131.588 90.9689 131.032C90.4226 130.362 90.1237 129.537 89.9897 129.084C91.6388 128.898 93.3394 128.651 95.0606 128.352V128.362Z" fill="white"/>
<path d="M84.3728 129.496C84.2801 129.908 84.043 130.815 83.5483 131.527C83.1464 132.093 82.5177 132.732 82.0745 133.145C81.7962 133.413 81.353 133.382 81.1057 133.093C80.7346 132.66 80.2193 132.021 79.8586 131.382C79.436 130.63 79.2917 129.764 79.2505 129.3C80.9098 129.414 82.6207 129.486 84.3728 129.496Z" fill="white"/>
<path d="M116.725 123.518C109.418 132.99 104.77 141.153 91.5875 142.472C82.2394 143.987 73.685 138.854 66.2952 133.887C65.8211 133.588 65.1821 133.248 64.945 132.64C64.3885 131.475 65.0996 129.96 66.3261 129.671C80.4976 128.651 94.7619 126.909 108.418 122.787C110.387 122.168 112.355 121.467 114.252 120.632C114.849 120.344 115.612 120.189 116.303 120.457C116.88 120.694 117.323 121.148 117.498 121.725C117.745 122.426 117.076 123.044 116.725 123.518ZM116.375 123.271C116.612 122.817 117.106 122.415 116.931 121.931C116.705 121.385 116.096 120.993 115.365 121.168C114.767 121.292 112.974 122.405 112.242 122.714C104.697 126.6 96.3182 128.599 87.9183 129.455C81.9715 130.011 75.8803 129.95 69.9128 129.754C68.944 129.754 67.2949 129.558 66.3467 129.774C65.1821 130.063 64.5637 131.547 65.1615 132.537C65.4294 133.052 65.9448 133.279 66.491 133.567C73.2109 137.236 80.2296 140.771 87.9389 141.039C101.678 141.297 109.222 134.227 116.375 123.281V123.271Z" fill="#1C30FF"/>
<path d="M65.3056 97.8447C64.5841 97.9581 64.1306 97.082 64.646 96.5667C66.4496 94.7837 69.49 92.5059 71.9121 94.3508C75.6018 97.1542 73.6642 98.9063 72.0357 98.3291C70.665 97.8447 68.851 97.2779 65.3056 97.8447Z" fill="#00074D"/>
<path d="M48.0522 90.8877C48.4027 91.4751 49.2993 91.2072 49.3509 90.4857C49.5364 87.9812 49.3303 84.2709 46.5681 83.7968C42.3527 83.0856 42.2806 85.6622 43.672 86.4249C44.8469 87.0639 46.331 87.9709 48.0625 90.8774L48.0522 90.8877Z" fill="#00074D"/>
<path d="M74.5709 92.0215C78.508 92.2483 79.9097 96.9687 77.3022 99.5556C76.5292 100.339 75.4367 100.854 74.3545 100.761C78.1576 99.03 78.6935 93.9076 74.5709 92.0215Z" fill="#1C30FF"/>
<path d="M46.2796 81.3129C43.5175 78.8394 39.4258 81.148 39.4464 84.6729C39.4464 85.7241 39.8174 86.8166 40.6007 87.4762C39.2196 83.7453 42.291 79.8494 46.2899 81.3129H46.2796Z" fill="#1C30FF"/>
<path d="M125.929 113.284C121.971 115.314 121.136 111.738 117.003 106.327C113.107 101.225 109.644 99.3391 110.469 97.7725C111.912 95.031 116.055 97.1747 120.878 101.411C125.712 105.647 128.68 111.872 125.929 113.294V113.284Z" fill="#828DFF"/>
<path d="M196.26 81.7352C199.425 82.4051 208.762 84.1985 213.029 86.4556C217.193 88.6509 219.698 92.9384 219.388 93.227C218.863 93.7217 215.348 85.7651 198.456 83.7037C192.746 83.0029 181.79 82.9514 177.41 83.2503C176.492 83.3121 175.874 84.1057 175.884 83.9717C175.977 83.343 176.194 83.0544 177.039 82.7555C181.13 81.3023 191.21 80.6736 196.26 81.7352Z" fill="#6E7BFF"/>
<path d="M190.922 89.9807C193.756 90.9907 201.816 94.093 205.206 97.0922C208.525 100.009 209.927 104.575 209.576 104.791C208.999 105.152 209.721 97.6487 192.612 91.5576C187.593 89.7745 177.739 87.5071 173.73 86.899C172.895 86.7753 171.999 87.1876 172.04 87.0639C172.246 86.4765 172.298 86.4765 173.132 86.394C175.967 86.1157 186.768 88.5068 190.911 89.9807H190.922Z" fill="#6E7BFF"/>
<path d="M220.223 82.1168C220.192 82.2611 219.842 81.3232 218.997 80.9831C214.905 79.3856 202.527 76.3761 196.786 75.9947C185.387 75.2114 175.204 84.2297 171.576 87.6927C170.7 88.5275 171.473 92.7532 172.03 95.134C172.215 95.8555 172.318 96.3399 172.277 96.3708C172.092 96.5357 171.741 95.7627 171.37 94.6084C170.69 92.5161 170.133 90.2693 170.03 88.8779C169.886 86.7135 180.316 78.4065 183.285 77.046C189.736 74.0983 196.271 73.6552 199.445 74.3251C204.3 75.3351 215.06 77.7881 219.007 80.2926C219.182 80.4163 219.337 80.5193 219.491 80.6327C220.203 81.1686 220.337 81.4984 220.223 82.1168Z" fill="#1C30FF"/>
<path d="M117.941 120.849C111.644 119.045 109.644 113.738 109.17 113.861C108.614 114.016 109.964 120.086 116.838 122.385C122.599 124.312 131.339 121.766 131.391 121.364C131.432 121.035 123.857 122.539 117.951 120.849H117.941Z" fill="#1C30FF"/>
<path d="M111.86 4.24045C111.86 4.24045 118.786 5.51846 124.764 9.87813C130.329 13.9492 137.008 20.8855 137.791 25.2246C138.977 31.8826 136.122 30.5943 134.617 29.6564C130.597 27.1416 131.391 17.3092 121.383 9.92967C114.725 5.02375 106.459 3.38501 111.86 4.23015V4.24045Z" fill="#FF87CB"/>
<path d="M147.005 6.93035C148.345 7.22924 153.756 16.8762 154.385 25.7501C154.911 33.1811 154.581 35.6238 151.819 34.8817C148.253 33.9129 152.303 28.5638 151.736 22.9467C150.365 9.2081 145.655 6.64177 146.995 6.94066L147.005 6.93035Z" fill="#FF87CB"/>
<path d="M93.2984 141.245C91.3092 139.122 91.9997 130.114 91.9997 130.114C91.9997 130.114 93.6179 128.3 96.8335 131.001C96.8335 131.001 96.9778 131.238 97.1633 131.65C97.9569 133.32 99.5751 137.916 95.6895 141.039C94.6279 141.895 93.8446 141.853 93.2984 141.245Z" fill="#293CFF"/>
<path d="M93.2984 141.246C91.938 138.277 92.5048 130.888 92.5048 130.888C92.5048 130.888 94.0714 129.125 97.1634 131.65C97.452 132.258 97.8642 133.268 98.0497 134.443C98.4002 136.484 98.1425 139.061 95.6895 141.04C94.8135 141.751 94.1229 141.844 93.5973 141.503C93.4839 141.431 93.3809 141.349 93.2984 141.246Z" fill="#4F5FFF"/>
<path d="M98.0498 134.444C98.4002 136.484 98.1426 139.061 95.6896 141.04C95.6175 141.102 95.5453 141.153 95.4835 141.205C94.9166 140.504 94.3704 139.813 93.8447 139.154C94.1024 137.195 94.5559 134.815 95.3289 133.485C95.8751 132.98 96.545 132.959 97.3696 133.691C97.6375 133.939 97.8643 134.186 98.0601 134.454L98.0498 134.444Z" fill="#7B87FF"/>
<path d="M145.14 199.353C144.295 199.457 143.419 199.621 142.481 199.694C141.492 199.776 140.348 199.714 139.059 199.529C135.05 198.91 110.335 187.625 100.152 179.524C99.575 179.07 99.07 178.637 98.5856 178.215C92.5459 172.67 82.7341 163.765 77.0758 155.87C76.2616 154.747 75.5402 153.644 74.9115 152.562C73.4479 150.047 72.6028 147.687 72.644 145.718C72.644 145.481 72.6646 145.223 72.7059 144.997C72.7677 144.554 72.8398 144.131 72.9429 143.708C73.046 143.214 73.1697 142.75 73.2933 142.286C73.3758 142.049 73.4582 141.802 73.551 141.544C73.9323 140.452 74.4374 139.472 75.0145 138.596C75.1382 138.37 75.2928 138.174 75.4268 137.968C76.2822 136.824 77.2613 135.886 78.292 135.164C78.56 134.979 78.7867 134.834 79.0341 134.68C79.199 134.577 79.3536 134.494 79.5288 134.412C80.3842 133.958 81.2603 133.618 82.1363 133.381H82.157C82.4146 133.299 82.6929 133.247 82.9403 133.196C84.2595 132.938 85.5375 132.928 86.6506 133.113C86.9598 133.175 87.2484 133.247 87.5164 133.33C87.6503 133.361 87.7946 133.412 87.908 133.464C88.1244 133.536 88.2997 133.608 88.4852 133.711C89.7941 134.371 90.9484 135.113 91.9482 135.906C92.1234 136.04 92.278 136.185 92.4326 136.308V136.329C93.0304 136.803 93.5457 137.277 94.0301 137.782C94.9268 138.658 95.6585 139.575 96.3284 140.431L96.3491 140.452C97.6477 142.152 98.6165 143.729 99.575 144.801C100.76 146.141 103.801 150.748 107.243 155.52C110.314 159.828 113.716 164.218 116.406 166.476C116.746 166.764 117.096 167.042 117.447 167.31C128.31 175.782 144.141 178.462 146.49 179.74C146.892 179.957 147.305 180.245 147.83 180.864C148.583 181.75 149.551 183.316 151.025 186.347C151.386 187.089 151.922 188.47 152.19 190.078C152.839 193.726 152.159 198.498 145.13 199.353H145.14Z" fill="#6B78FF"/>
<path opacity="0.13" d="M145.14 199.354C144.295 199.457 143.419 199.622 142.481 199.694C141.491 199.776 140.347 199.714 139.059 199.529C135.05 198.911 110.335 187.625 100.152 179.524C99.5746 179.07 99.0696 178.638 98.5852 178.215C92.5456 172.67 82.7338 163.765 77.0755 155.87C76.2612 154.747 75.5398 153.644 74.9111 152.562C74.8802 151.356 75.0966 150.253 75.6016 149.212C79.7449 140.813 92.0612 136.855 101.626 152.212C111.2 167.579 124.063 178.339 131.226 182.956C138.441 187.615 145.624 190.964 152.2 190.078C152.849 193.726 152.169 198.498 145.14 199.354Z" fill="#293CFF"/>
<path d="M77.0757 155.87C106.367 189.078 139.059 199.539 142.481 199.694C141.492 199.776 140.348 199.714 139.059 199.529C135.06 198.91 110.345 187.625 100.152 179.524C99.5749 179.07 99.0698 178.637 98.5854 178.205C92.5458 172.66 82.734 163.765 77.0757 155.86V155.87Z" fill="#4F5FFF"/>
<path d="M79.9205 139.132C81.1779 136.782 77.7767 129.795 76.7976 128.444C75.7772 127.043 71.531 128.403 71.3042 131.011C71.263 131.248 71.2836 131.474 71.3248 131.712C72.3039 137.019 76.2204 140.874 79.1784 139.792C79.5185 139.668 79.7762 139.431 79.9308 139.132H79.9205Z" fill="#293CFF"/>
<path d="M79.9205 139.132C80.1884 136.246 77.4057 130.609 76.5296 129.403C75.6433 128.176 72.3142 129.052 71.3042 131.011C71.263 131.248 71.2836 131.474 71.3248 131.712C71.5103 132.722 71.8092 133.68 72.1803 134.546C73.7262 138.205 76.6327 140.544 78.9929 139.854L79.1784 139.792C79.5185 139.668 79.7762 139.431 79.9308 139.132H79.9205Z" fill="#4F5FFF"/>
<path d="M78.5598 139.276C79.9203 138.287 77.725 132.989 75.9419 131.114C75.674 130.835 74.8495 130.011 73.9013 130.32C72.9531 130.629 72.4583 131.753 72.5511 132.897C72.8397 136.226 77.1993 140.256 78.5598 139.266V139.276Z" fill="#7B87FF"/>
<path d="M87.2792 135.464C88.9797 133.413 87.0524 125.878 86.3516 124.363C85.6404 122.787 81.1983 123.271 80.4562 125.775C80.3738 125.992 80.3429 126.219 80.3429 126.466C80.2398 131.867 83.3111 136.422 86.4237 135.948C86.7741 135.896 87.073 135.711 87.2895 135.453L87.2792 135.464Z" fill="#293CFF"/>
<path d="M87.2792 135.463C88.114 132.691 86.5165 126.61 85.8981 125.249C85.2797 123.879 81.8373 124.064 80.4666 125.775C80.3841 125.991 80.3532 126.218 80.3532 126.466C80.3326 127.496 80.4356 128.486 80.6212 129.413C81.4045 133.309 83.7853 136.185 86.2382 135.978L86.434 135.958C86.7845 135.906 87.0834 135.721 87.2998 135.463H87.2792Z" fill="#4F5FFF"/>
<path d="M85.9184 135.339C87.4438 134.638 86.3616 129.011 84.9805 126.816C84.7744 126.496 84.1251 125.517 83.1357 125.631C82.1462 125.744 81.4351 126.744 81.3011 127.888C80.9197 131.206 84.3827 136.03 85.9184 135.339Z" fill="#7B87FF"/>
<path d="M66.7175 139.947C66.7175 139.947 66.6969 139.833 66.6969 139.782C66.5011 138.153 68.4903 135.639 70.7886 137.865C72.7469 139.741 74.5505 143.07 74.6227 144.337C74.633 144.409 74.6536 144.471 74.633 144.533C74.633 144.616 74.6124 144.667 74.5814 144.708C74.1383 145.378 72.8602 145.76 72.551 145.718C70.8917 145.667 69.6961 144.966 68.2944 143.358C67.4287 142.348 66.9649 141.06 66.7072 139.936L66.7175 139.947Z" fill="#293CFF"/>
<path d="M67.3976 141.915C67.0781 141.256 66.872 140.565 66.7174 139.936C66.7174 139.885 66.6968 139.823 66.6968 139.772C67.3564 138.576 68.8302 137.772 70.4793 139.339C72.386 141.194 74.4164 143.338 74.6328 144.327C74.6431 144.399 74.6637 144.461 74.6431 144.523C74.6431 144.605 74.6225 144.657 74.5916 144.698C74.4576 144.925 74.1999 145.121 73.9217 145.265C73.396 145.574 72.757 145.729 72.5612 145.708C70.9018 145.657 69.7063 144.956 68.3046 143.348C67.913 142.905 67.6244 142.41 67.3976 141.905V141.915Z" fill="#4F5FFF"/>
<path d="M67.3979 141.915C67.5216 141.09 69.2944 139.967 70.5621 141.183C72.108 142.688 73.7468 144.409 73.922 145.223C73.9323 145.244 73.922 145.254 73.922 145.275C73.3964 145.584 72.7574 145.739 72.5615 145.718C70.9022 145.667 69.7066 144.966 68.3049 143.358C67.9133 142.915 67.6247 142.42 67.3979 141.915Z" fill="#7B87FF"/>
<g style="mix-blend-mode:screen" opacity="0.22">
<path d="M147.84 180.864C147.84 180.864 142.254 182.554 129.134 175.69C109.778 165.558 107.15 156.015 107.253 155.52C110.325 159.828 113.726 164.219 116.416 166.476C116.756 166.764 117.106 167.043 117.457 167.311C128.32 175.783 144.151 178.462 146.501 179.74C146.903 179.957 147.315 180.245 147.84 180.864Z" fill="#B3B9FF"/>
</g>
</g>
</svg>
