<svg width="176" height="228" viewBox="0 0 176 228" fill="none" xmlns="http://www.w3.org/2000/svg">
<g style="mix-blend-mode:multiply" opacity="0.41">
<path d="M25.9403 184.733C24.3203 184.733 22.7603 184.763 21.2803 184.823C-1.75972 185.823 -12.4097 210.433 22.3903 216.073C32.2403 217.673 37.4303 222.543 56.1303 226.423C61.4503 227.523 66.9403 228.003 72.4303 228.003C100.31 228.003 128.26 215.813 135.34 212.183C139.77 209.913 156.03 201.903 161.26 201.903C161.55 201.903 161.81 201.923 162.02 201.983C164.55 202.583 166.63 203.563 168.23 203.563C169.25 203.563 170.08 203.163 170.69 202.003C172.26 199.033 165.96 198.613 166.68 197.763C167.39 196.913 171.22 193.503 166.86 192.123C166.34 191.963 165.91 191.883 165.53 191.883C162.73 191.883 163.38 195.923 161.62 197.153C160.95 197.623 160.51 197.813 159.56 197.813C157.7 197.813 153.85 197.073 142.3 196.243C124.85 194.993 118.98 196.513 106.78 194.463C95.3003 192.533 51.9703 184.733 25.9303 184.733" fill="#4A55C4"/>
</g>
<path d="M43.8298 134.343C50.7698 139.303 57.5198 132.413 57.5998 126.033C57.6598 119.663 73.0198 111.913 74.0798 106.083C74.1298 105.793 74.1798 105.493 74.2098 105.223C74.5498 102.293 73.8598 99.6527 71.9398 98.3527C70.2698 97.2127 67.6598 97.1127 63.9698 98.7427C62.8698 99.2227 61.6598 99.9527 60.3998 100.883C58.9598 101.943 57.4498 103.243 55.9598 104.743C54.2498 106.433 52.5498 108.363 50.9698 110.413C50.9698 110.423 50.9498 110.433 50.9498 110.433C49.4398 112.393 48.0498 114.483 46.8598 116.573C46.7698 116.733 46.6798 116.893 46.5798 117.053C45.0098 119.853 43.6898 122.343 42.8098 124.543C42.6998 124.783 42.6098 125.033 42.5198 125.263L42.4898 125.363C40.9698 129.393 41.0698 132.353 43.8298 134.343Z" fill="#4F5FFF"/>
<path d="M43.3699 132.003C48.6599 135.893 51.8399 133.083 55.4699 124.913C59.0899 116.743 71.3999 102.833 71.4299 102.763C71.5999 101.293 71.8399 99.7427 71.9399 98.3527C72.2399 94.6027 71.5599 91.9627 65.9099 94.8327C63.1099 96.2527 59.5099 99.8827 56.2799 103.653C54.2499 106.023 52.3899 108.433 50.9599 110.413C50.9599 110.423 50.9399 110.433 50.9399 110.433C50.4099 111.163 49.9499 111.833 49.5599 112.403C48.5399 113.923 47.5099 115.493 46.5699 117.053C45.0199 119.593 43.6599 122.123 42.8099 124.383C42.6899 124.683 42.5899 124.973 42.4999 125.263L42.4699 125.363C41.5299 128.293 41.5799 130.683 43.3499 131.993L43.3699 132.003Z" fill="#4F5FFF"/>
<path d="M66.7798 99.7527C66.7798 99.7527 65.4198 109.063 62.4398 112.913C59.4598 116.763 51.8098 124.193 48.6098 123.913C45.4098 123.633 51.1698 119.913 54.8398 113.103C61.2398 101.223 66.7798 99.7427 66.7798 99.7427V99.7527Z" fill="#293CFF"/>
<path d="M42.8299 124.383C42.8299 124.443 42.8099 124.493 42.8099 124.543C42.5799 126.133 42.5399 127.773 42.6299 128.203C42.6699 128.373 42.8699 129.553 42.8699 129.553C43.2199 128.323 44.2499 126.843 44.4299 126.433C44.5899 126.053 45.2399 124.963 45.8999 124.373C45.9299 123.763 44.8499 122.733 45.6699 121.103C47.9099 116.733 54.3299 107.833 55.9399 104.733C56.2599 104.113 56.3999 103.723 56.2699 103.653C54.2399 106.023 52.3799 108.433 50.9499 110.413C50.9499 110.423 50.9299 110.433 50.9299 110.433C49.4199 112.393 48.0299 114.483 46.8399 116.573C46.7499 116.733 46.6599 116.893 46.5599 117.053C45.0099 119.593 43.6499 122.123 42.7999 124.383H42.8299Z" fill="#7B87FF"/>
<g style="mix-blend-mode:multiply" opacity="0.41">
<path d="M117.38 205.483C117.38 205.483 121.13 210.663 115.73 214.793C110.98 218.423 69.0199 224.093 45.8699 211.673C41.8299 209.503 38.8399 203.913 31.5899 202.943C18.0999 201.143 15.6699 196.183 15.6699 196.183C15.6699 196.183 104.57 192.573 117.37 205.483H117.38Z" fill="#000EAB"/>
</g>
<mask id="mask0_20_8277" style="mask-type:luminance" maskUnits="userSpaceOnUse" x="85" y="66" width="46" height="46">
<path d="M125.63 74.8428C122.72 72.0228 124.85 67.7528 124.13 67.0128H124.09C124 67.0428 123.23 66.7128 122.35 66.7428C112.93 66.9928 104.95 72.4028 99.77 75.5328C89.49 81.7328 86.66 95.9528 85.59 101.113C85.25 102.763 89.3901 106.363 91.3201 108.083H91.34C101.72 106.603 104.01 109.293 107.11 110.213C121.04 114.383 120.19 106.383 123.91 101.483C126.1 98.5928 129.02 100.183 130.43 95.8328C131.47 92.6228 128.79 90.8728 128.96 86.7828C129.08 83.9328 131.47 81.0628 130.82 79.2728C129.75 76.2928 126.94 76.1028 125.63 74.8328" fill="white"/>
</mask>
<g mask="url(#mask0_20_8277)">
<path d="M149.83 73.8728C148.29 76.4228 146.13 79.7728 143.48 83.3728C141.81 85.6528 142.3 88.8528 144.61 90.4928C146.63 91.9128 148.68 93.9028 148.44 96.2628C147.91 101.433 143.6 105.643 129.54 107.093C126.06 107.453 128.19 109.423 129.12 112.953C130.31 117.473 120.34 122.093 112.84 118.233C108.46 115.973 104.61 112.713 88.7702 114.983H88.7402C85.8002 112.353 79.4702 106.853 79.9902 104.333C81.6202 96.4528 85.9402 74.7428 101.63 65.2728C109.53 60.4928 121.72 52.2328 136.1 51.8528C137.44 51.8128 138.63 52.3228 138.76 52.2528H138.81C139.92 53.3828 140.49 55.0828 140.08 56.7728C139.87 57.6628 139.63 58.6328 139.35 59.6728C138.65 62.2828 140.14 64.9928 142.72 65.8028C144.52 66.3728 146.12 66.9028 147.46 67.3828C150.09 68.2728 151.26 71.5328 149.83 73.8828" fill="#4450CF"/>
<path d="M88.4503 96.8628C89.7403 95.4128 91.2503 94.1428 92.8103 93.0028C96.0303 90.6428 99.6103 88.8428 103.29 87.3428C111.42 84.0228 120.02 81.6628 128.64 80.0228C133.67 79.0728 138.76 78.3828 143.86 77.9628C145.25 77.8528 145.07 75.6928 143.69 75.8028C134.25 76.5828 124.88 78.2728 115.76 80.8428C111.44 82.0628 107.14 83.4528 102.98 85.1228C99.0803 86.6928 95.2603 88.5628 91.8503 91.0228C90.9803 91.6428 90.1303 92.3128 89.3103 93.0228C89.5803 92.2628 89.8703 91.5028 90.2403 90.7728C91.1003 89.0628 92.1303 87.4428 93.1203 85.8128C94.2303 83.9828 95.3203 81.8628 96.7903 80.1728C97.5903 79.4528 98.4103 78.7628 99.2603 78.0928C99.3803 78.0028 99.4703 77.9028 99.5403 77.8028C101.46 76.5228 103.5 75.4028 105.52 74.2828C107.77 73.0328 110.04 71.8428 112.35 70.7128C112.84 70.4728 113.33 70.2428 113.83 70.0028C117.68 68.5528 121.64 67.4028 125.7 66.7128C131.08 65.8028 136.58 65.6028 142.01 66.1528C142.74 66.2228 143.45 65.8428 143.59 65.0828C143.72 64.4128 143.25 63.5728 142.52 63.5028C139.11 63.1628 135.7 63.1028 132.31 63.3028C133.32 63.0528 134.34 62.8228 135.36 62.6228C136.08 62.4828 136.66 61.9528 136.6 61.1628C136.55 60.5028 135.86 59.7828 135.14 59.9228C127.46 61.4428 120.12 64.1028 113.06 67.4028C112.87 67.4728 112.68 67.5428 112.49 67.6128C107.89 69.3928 103.2 71.4228 99.1003 74.1928C95.9003 76.3528 93.2203 79.1228 91.0103 82.2628C90.4903 82.9228 90.0203 83.6228 89.6203 84.3828C89.5903 84.4428 89.5603 84.5028 89.5403 84.5528C87.4103 88.1428 85.9003 92.0828 84.8903 96.1328C84.7003 96.2728 84.5603 96.4428 84.4503 96.6528C84.4103 96.7528 84.3703 96.8428 84.3303 96.9428C84.2403 97.1028 84.2003 97.2728 84.2103 97.4528C84.1803 97.6328 84.2103 97.8128 84.2803 97.9928C84.3403 98.1628 84.4303 98.3128 84.5603 98.4328C84.6103 98.5028 84.6703 98.5628 84.7403 98.6128C84.3403 99.5628 84.1003 100.583 84.1103 101.663C84.1103 101.983 84.2303 102.213 84.4103 102.373C84.3903 102.433 84.3803 102.493 84.3703 102.543C83.9703 102.923 83.8303 103.503 84.1703 103.983C84.3703 104.263 84.7403 104.453 85.1003 104.453C85.6103 104.593 86.1903 104.413 86.3403 103.803C87.3103 103.263 88.3703 103.213 89.5503 103.243C91.1403 103.273 92.7303 103.313 94.3103 103.403C97.4703 103.573 100.59 103.993 103.64 104.843C109.47 106.483 114.93 109.163 120.87 110.443C124.32 111.183 127.84 111.553 131.37 111.593C131.95 111.593 132.4 110.973 132.36 110.433C132.31 109.803 131.78 109.453 131.2 109.443C124.9 109.373 118.85 107.983 112.96 105.813C110.01 104.723 107.08 103.573 104.04 102.723C100.95 101.853 97.7903 101.443 94.5903 101.273C92.7703 101.173 90.9503 101.113 89.1303 101.083C88.6603 101.083 88.2003 101.093 87.7503 101.143C88.2303 100.713 88.8003 100.353 89.3903 100.063C91.1003 99.2228 92.9603 98.6428 94.7803 98.1128C98.5703 97.0128 102.49 96.3728 106.42 96.0328C114.55 95.3328 122.7 95.9328 130.81 96.5528C135.5 96.9128 140.18 97.2628 144.88 97.3928C145.46 97.4128 145.91 96.7628 145.87 96.2328C145.82 95.5928 145.29 95.2628 144.71 95.2428C127.85 94.7728 110.6 91.2728 94.0403 96.0928C91.8603 96.7228 89.0003 97.5328 86.9203 99.0228C87.3303 98.2428 87.8803 97.5228 88.4603 96.8728" fill="#1F2EC4"/>
</g>
<path d="M88.7202 77.8027C88.7202 77.8027 97.4402 78.3327 100.44 81.5727C103.45 84.8227 90.3802 87.4227 90.3802 87.4227L88.7202 77.8027Z" fill="#E80083"/>
<path d="M89.8804 90.7528C89.8804 90.7528 99.2604 88.2028 102.17 91.5328C105.19 94.9828 93.1404 100.503 93.1404 100.503L89.8804 90.7628" fill="#E80083"/>
<path d="M94.4102 105.023C94.4102 105.023 101.95 102.983 104.3 105.663C106.73 108.433 97.4102 113.953 97.4102 113.953L94.4102 105.023Z" fill="#E80083"/>
<path d="M97.3701 116.843C97.3701 116.843 105.17 117.243 106.58 120.513C108.04 123.903 97.4601 126.263 97.4601 126.263L97.3701 116.843Z" fill="#FF0090"/>
<path d="M99.5703 136.033C99.5703 136.033 107.18 134.263 109.43 137.013C111.77 139.873 102.26 145.053 102.26 145.053L99.5703 136.023V136.033Z" fill="#FF0090"/>
<path d="M105.03 153.423C105.03 153.423 111.97 149.833 114.83 151.943C117.8 154.133 109.86 161.503 109.86 161.503L105.03 153.423Z" fill="#FF0090"/>
<path d="M174.06 183.843C174.82 184.113 175.34 184.853 175.26 185.663C175.12 187.143 173.89 188.893 172.59 189.073C168.87 189.563 164.59 188.553 162.41 186.023C159.99 183.213 163.75 178.003 167.74 175.173C168.86 174.383 171.24 174.753 172.23 176.163C172.78 176.943 172.7 178.013 172.07 178.733L169.62 181.513C169.37 181.803 169.49 182.243 169.84 182.373L174.05 183.853L174.06 183.843Z" fill="#FF0090"/>
<path d="M114.76 168.013C114.76 168.013 119.5 163.353 122.35 164.353C125.31 165.393 120.71 173.373 120.71 173.373L114.76 168.013Z" fill="#FF0090"/>
<path d="M125.72 177.353C125.72 177.353 128.58 172.433 131.17 172.613C133.85 172.803 131.85 180.443 131.85 180.443L125.72 177.353Z" fill="#FF0090"/>
<path d="M136.62 182.173C136.62 182.173 138.03 177.543 140.21 177.183C142.47 176.813 142.3 183.533 142.3 183.533L136.62 182.173Z" fill="#FF0090"/>
<path d="M146.4 183.663C146.4 183.663 147.69 179.443 149.67 179.123C151.73 178.793 151.57 184.903 151.57 184.903L146.4 183.663Z" fill="#FF0090"/>
<path d="M154.97 184.053C154.97 184.053 155.93 180.903 157.41 180.663C158.95 180.413 158.83 184.983 158.83 184.983L154.97 184.053Z" fill="#FF0090"/>
<mask id="mask1_20_8277" style="mask-type:luminance" maskUnits="userSpaceOnUse" x="92" y="79" width="52" height="40">
<path d="M140.95 92.5727C139.98 88.5927 144.11 86.0827 143.89 85.0627L143.86 85.0327C143.76 85.0227 143.28 84.3227 142.51 83.8627C134.32 78.9927 124.57 79.3227 118.45 79.2127C106.31 78.9727 96.22 89.6127 92.53 93.4527C91.35 94.6827 92.95 100.003 93.67 102.503L93.69 102.523C103.37 106.843 103.89 110.383 106.03 112.843C115.7 123.913 119.29 116.613 125.11 114.433C128.55 113.143 130.18 116.083 133.73 113.113C136.35 110.923 135 107.983 137.35 104.583C138.99 102.203 142.58 101.043 142.99 99.1627C143.68 96.0327 141.38 94.3527 140.95 92.5727Z" fill="white"/>
</mask>
<g mask="url(#mask1_20_8277)">
<path d="M162.19 104.793C159.5 106.143 155.84 107.843 151.63 109.503C148.97 110.543 147.67 113.553 148.76 116.193C149.72 118.503 150.4 121.303 148.92 123.193C145.68 127.333 139.72 128.603 126.91 122.263C123.74 120.693 124.5 123.533 123.39 127.043C121.97 131.543 110.95 130.133 106.62 122.783C104.09 118.493 102.55 113.623 87.7802 107.023L87.7602 106.993C86.6602 103.163 84.2102 95.0427 86.0202 93.1727C91.6602 87.3127 107.07 71.0627 125.6 71.4327C134.93 71.6027 149.82 71.1027 162.33 78.5327C163.5 79.2227 164.24 80.2927 164.39 80.3127L164.43 80.3527C164.77 81.9127 164.35 83.6627 163.08 84.8927C162.42 85.5427 161.69 86.2327 160.89 86.9727C158.88 88.8327 158.7 91.9527 160.46 94.0327C161.69 95.4827 162.77 96.8027 163.67 97.9427C165.44 100.123 164.68 103.543 162.2 104.783" fill="#828DFF"/>
<path d="M97.27 91.3627C99.16 90.8227 101.13 90.5427 103.08 90.4027C107.11 90.1227 111.14 90.5127 115.1 91.2127C123.85 92.7527 132.48 95.3727 140.74 98.6227C145.56 100.523 150.28 102.683 154.87 105.073C156.12 105.723 157.13 103.783 155.88 103.133C147.38 98.7027 138.46 95.1027 129.27 92.3827C124.91 91.0927 120.49 89.9727 116.02 89.1527C111.84 88.3927 107.56 87.9327 103.31 88.1927C102.23 88.2627 101.14 88.3727 100.06 88.5327C100.7 88.0227 101.36 87.5327 102.07 87.1127C103.72 86.1127 105.48 85.2827 107.21 84.4127C109.15 83.4427 111.22 82.2127 113.39 81.5627C114.46 81.3827 115.54 81.2327 116.63 81.1127C116.78 81.0927 116.91 81.0627 117.03 81.0227C119.36 80.9627 121.71 81.1127 124.04 81.2427C126.64 81.3827 129.23 81.5927 131.81 81.8727C132.36 81.9327 132.91 81.9927 133.46 82.0627C137.54 82.8927 141.54 84.0427 145.39 85.6527C150.48 87.7827 155.3 90.5727 159.65 93.9627C160.23 94.4127 161.05 94.4727 161.58 93.8927C162.05 93.3927 162.1 92.4127 161.51 91.9627C158.78 89.8327 155.89 87.9427 152.88 86.2827C153.88 86.6227 154.87 86.9627 155.85 87.3427C156.54 87.6127 157.32 87.4727 157.69 86.7627C158 86.1627 157.81 85.1827 157.11 84.9227C149.72 82.0727 142.01 80.3927 134.19 79.4227C133.99 79.3827 133.79 79.3327 133.59 79.2927C128.69 78.3327 123.59 77.5327 118.58 77.7027C114.68 77.8327 110.89 78.7427 107.31 80.2427C106.51 80.5327 105.73 80.8727 104.98 81.3127C104.92 81.3427 104.87 81.3827 104.81 81.4127C101.05 83.3327 97.63 85.8927 94.59 88.8127C94.36 88.8227 94.14 88.8927 93.94 89.0227C93.86 89.0827 93.77 89.1427 93.69 89.2027C93.53 89.2927 93.4 89.4227 93.31 89.5827C93.19 89.7227 93.11 89.8927 93.08 90.0727C93.04 90.2527 93.04 90.4227 93.08 90.6027C93.08 90.6927 93.11 90.7727 93.14 90.8527C92.28 91.4527 91.53 92.1827 90.96 93.1227C90.79 93.3927 90.77 93.6527 90.83 93.8827C90.79 93.9227 90.74 93.9727 90.7 94.0127C90.16 94.1227 89.72 94.5427 89.75 95.1327C89.77 95.4827 89.99 95.8427 90.3 96.0327C90.66 96.4327 91.26 96.5827 91.71 96.1427C92.83 96.2027 93.77 96.7327 94.76 97.3927C96.1 98.2827 97.44 99.1727 98.75 100.103C101.36 101.953 103.8 103.993 105.95 106.363C110.05 110.903 113.28 116.153 117.67 120.443C120.22 122.943 123.04 125.153 126.04 127.083C126.54 127.403 127.26 127.113 127.52 126.623C127.81 126.063 127.56 125.473 127.06 125.143C121.71 121.683 117.28 117.243 113.41 112.203C111.47 109.683 109.58 107.113 107.45 104.753C105.27 102.343 102.79 100.293 100.14 98.4127C98.64 97.3427 97.11 96.3127 95.57 95.3027C95.17 95.0427 94.77 94.8127 94.35 94.6127C95 94.5027 95.68 94.5027 96.34 94.5727C98.25 94.7727 100.16 95.2827 102 95.8127C105.84 96.9127 109.53 98.4727 113.08 100.303C120.41 104.083 127.06 108.993 133.67 113.893C137.49 116.723 141.31 119.553 145.25 122.203C145.74 122.533 146.47 122.223 146.73 121.743C147.03 121.173 146.76 120.593 146.27 120.263C132.1 110.773 119.23 98.4727 102.47 93.6627C100.26 93.0327 97.38 92.1727 94.8 92.3327C95.57 91.8827 96.43 91.5627 97.27 91.3227" fill="#4555FF"/>
<path d="M94.7201 97.3727C94.7201 97.3727 94.7501 97.3927 94.7701 97.4027C95.4801 97.8727 96.1901 98.3427 96.8901 98.8127C96.9001 98.8127 96.9101 98.8327 96.9301 98.8427C96.9401 98.8427 96.9601 98.8627 96.9701 98.8727C97.0001 98.8927 97.0201 98.9127 97.0501 98.9227C97.0501 98.9227 97.0501 98.9227 97.0601 98.9227C97.3501 99.1227 97.6501 99.3227 97.9401 99.5227C97.3701 100.813 96.8801 102.053 96.4601 103.263C96.4201 103.213 96.3701 103.163 96.3301 103.113C95.8201 101.143 95.2801 99.2227 94.7201 97.3627M100.11 95.3127C99.6701 96.0727 99.2601 96.8127 98.8901 97.5527C98.7701 97.4727 98.6501 97.3827 98.5301 97.3027C98.5301 97.3027 98.5301 97.3027 98.5201 97.3027C98.5001 97.2927 98.4801 97.2727 98.4601 97.2627C98.4501 97.2527 98.4301 97.2427 98.4201 97.2327C98.4001 97.2227 98.3801 97.2027 98.3601 97.1927C98.3401 97.1727 98.3201 97.1627 98.2901 97.1427C98.2801 97.1427 98.2701 97.1327 98.2601 97.1227C98.2301 97.1027 98.2101 97.0927 98.1801 97.0727C98.1801 97.0727 98.1801 97.0727 98.1701 97.0727C98.1401 97.0527 98.1101 97.0327 98.0801 97.0127C98.0801 97.0127 98.0801 97.0127 98.0701 97.0127C98.0401 96.9927 98.0101 96.9727 97.9801 96.9527C97.9101 96.9027 97.8501 96.8627 97.7801 96.8127C97.7101 96.7627 97.6401 96.7227 97.5801 96.6727C97.5101 96.6327 97.4501 96.5827 97.3801 96.5427C97.3801 96.5427 97.3801 96.5427 97.3701 96.5427C97.3401 96.5227 97.3101 96.5027 97.2701 96.4827C97.2401 96.4627 97.2101 96.4427 97.1701 96.4227C97.1701 96.4227 97.1601 96.4228 97.1501 96.4128C97.1201 96.3928 97.1001 96.3827 97.0701 96.3627C97.0701 96.3627 97.0601 96.3627 97.0501 96.3527C97.0201 96.3327 96.9901 96.3127 96.9601 96.2927C96.9601 96.2927 96.9401 96.2827 96.9301 96.2727C96.9101 96.2627 96.8901 96.2427 96.8701 96.2327C96.8601 96.2327 96.8401 96.2127 96.8301 96.2027C96.8001 96.1827 96.7801 96.1727 96.7501 96.1527C96.7401 96.1527 96.7201 96.1327 96.7101 96.1227C96.6901 96.1127 96.6801 96.1027 96.6601 96.0927C96.6401 96.0827 96.6301 96.0727 96.6101 96.0627C96.6001 96.0627 96.5901 96.0427 96.5701 96.0427C96.5401 96.0227 96.5101 96.0027 96.4801 95.9827C96.4801 95.9827 96.4601 95.9727 96.4501 95.9627C96.4301 95.9527 96.4101 95.9327 96.3901 95.9227C96.3901 95.9227 96.3701 95.9127 96.3701 95.9027C96.3101 95.8627 96.2401 95.8227 96.1801 95.7727C96.1801 95.7727 96.1601 95.7627 96.1601 95.7527C96.1001 95.7127 96.0301 95.6727 95.9701 95.6327C95.9701 95.6327 95.9501 95.6227 95.9401 95.6127C95.9201 95.6027 95.9001 95.5927 95.8801 95.5727C95.8701 95.5727 95.8601 95.5527 95.8401 95.5527C95.8101 95.5327 95.7901 95.5227 95.7601 95.5027C95.7401 95.4927 95.7301 95.4827 95.7101 95.4727C95.7001 95.4727 95.6901 95.4527 95.6701 95.4527C95.6401 95.4327 95.6101 95.4127 95.5801 95.3927C95.5801 95.3927 95.5601 95.3827 95.5501 95.3727C95.1701 95.1327 94.7901 94.9127 94.4001 94.7227C94.3901 94.7227 94.3801 94.7127 94.3701 94.7027C95.0201 94.5927 95.7001 94.5928 96.3601 94.6628C96.3701 94.6628 96.3801 94.6628 96.3901 94.6628C96.3901 94.6628 96.3901 94.6628 96.4001 94.6628C96.4001 94.6628 96.4101 94.6628 96.4201 94.6628C96.4201 94.6628 96.4301 94.6628 96.4401 94.6628C96.4401 94.6628 96.4401 94.6628 96.4501 94.6628C96.4501 94.6628 96.4601 94.6628 96.4701 94.6628H96.4801C96.4801 94.6628 96.4901 94.6628 96.5001 94.6628C96.5001 94.6628 96.5101 94.6628 96.5201 94.6628H96.5401C96.5901 94.6628 96.6401 94.6727 96.6901 94.6827C97.2001 94.7427 97.7101 94.8327 98.2201 94.9327C98.2401 94.9327 98.2601 94.9327 98.2801 94.9427C98.2801 94.9427 98.3001 94.9427 98.3101 94.9427C98.3101 94.9427 98.3301 94.9427 98.3401 94.9427C98.3401 94.9427 98.4301 94.9627 98.4801 94.9727C98.4801 94.9727 98.4901 94.9727 98.5001 94.9727C98.5001 94.9727 98.5001 94.9727 98.5101 94.9727C98.5101 94.9727 98.5201 94.9727 98.5301 94.9727C98.5301 94.9727 98.5301 94.9727 98.5401 94.9727C98.5401 94.9727 98.5501 94.9727 98.5601 94.9727C98.5601 94.9727 98.5701 94.9727 98.5801 94.9727C98.5801 94.9727 98.5901 94.9727 98.6001 94.9727C98.6001 94.9727 98.6101 94.9727 98.6201 94.9727C98.6201 94.9727 98.6201 94.9727 98.6301 94.9727C98.6301 94.9727 98.6501 94.9727 98.6601 94.9727C99.1401 95.0727 99.6201 95.1927 100.09 95.3127M103.42 90.3827C103.17 90.7027 102.93 91.0227 102.69 91.3527C102.2 92.0327 101.74 92.7027 101.3 93.3627C101.28 93.3627 101.26 93.3527 101.24 93.3427C101.24 93.3427 101.23 93.3427 101.22 93.3427C101.03 93.2927 100.83 93.2327 100.63 93.1827C98.8701 92.7127 96.9001 92.2927 95.0601 92.3627C94.9701 92.3627 94.8901 92.3627 94.8001 92.3727C95.5701 91.9227 96.4301 91.6027 97.2701 91.3627C99.1601 90.8227 101.13 90.5427 103.08 90.4027C103.13 90.4027 103.19 90.4027 103.24 90.3927C103.3 90.3927 103.36 90.3927 103.42 90.3827ZM113.41 81.5827C110.99 83.1527 108.06 85.3027 105.38 88.1327C105.23 88.1327 105.08 88.1327 104.94 88.1327C104.93 88.1327 104.92 88.1327 104.91 88.1327C104.41 88.1427 103.9 88.1627 103.4 88.1927C103.38 88.1927 103.37 88.1927 103.35 88.1927C102.27 88.2627 101.18 88.3727 100.1 88.5327C100.74 88.0227 101.4 87.5327 102.11 87.1127C103.76 86.1127 105.52 85.2828 107.25 84.4128C109.19 83.4428 111.26 82.2127 113.43 81.5627" fill="#6873EB"/>
<path d="M97.0504 98.9228C97.0504 98.9228 97.0503 98.9228 97.0603 98.9228C97.0603 98.9228 97.0604 98.9228 97.0504 98.9228ZM96.9203 98.8428C96.9203 98.8428 96.9504 98.8628 96.9604 98.8728C96.9504 98.8728 96.9303 98.8528 96.9203 98.8428ZM94.7204 97.3728C94.7204 97.3728 94.7503 97.3928 94.7703 97.4028C95.4803 97.8728 96.1904 98.3428 96.8904 98.8128C96.1904 98.3328 95.4803 97.8728 94.7703 97.4028C94.7503 97.3928 94.7404 97.3828 94.7204 97.3728ZM98.5104 97.2928C98.5104 97.2928 98.5103 97.2928 98.5203 97.2928C98.5203 97.2928 98.5204 97.2928 98.5104 97.2928ZM98.4104 97.2228C98.4104 97.2228 98.4403 97.2428 98.4503 97.2528C98.4403 97.2428 98.4204 97.2328 98.4104 97.2228ZM98.2803 97.1428C98.2803 97.1428 98.3203 97.1728 98.3503 97.1928C98.3303 97.1728 98.3103 97.1628 98.2803 97.1428ZM98.1804 97.0628C98.1804 97.0628 98.2304 97.0928 98.2604 97.1128C98.2304 97.0928 98.2104 97.0828 98.1804 97.0628ZM98.0704 96.9928C98.0704 96.9928 98.1304 97.0328 98.1604 97.0528C98.1304 97.0328 98.1004 97.0128 98.0704 96.9928ZM97.9604 96.9228C97.9604 96.9228 98.0204 96.9628 98.0504 96.9828C98.0204 96.9628 97.9904 96.9428 97.9604 96.9228ZM97.5504 96.6428C97.6204 96.6928 97.6904 96.7328 97.7504 96.7828C97.6804 96.7328 97.6104 96.6928 97.5504 96.6428ZM97.2403 96.4328C97.2403 96.4328 97.3003 96.4728 97.3403 96.4928C97.3103 96.4728 97.2803 96.4528 97.2403 96.4328ZM97.1404 96.3628C97.1404 96.3628 97.2003 96.4028 97.2403 96.4228C97.2103 96.4028 97.1804 96.3828 97.1404 96.3628ZM97.0404 96.3028C97.0404 96.3028 97.0904 96.3328 97.1204 96.3528C97.0904 96.3328 97.0704 96.3228 97.0404 96.3028ZM96.9304 96.2328C96.9304 96.2328 96.9903 96.2728 97.0203 96.2928C96.9903 96.2728 96.9604 96.2528 96.9304 96.2328ZM96.8403 96.1728C96.8403 96.1728 96.8804 96.2028 96.9004 96.2128C96.8804 96.2028 96.8603 96.1828 96.8403 96.1728ZM96.7304 96.0928C96.7304 96.0928 96.7803 96.1228 96.8103 96.1428C96.7803 96.1228 96.7604 96.1128 96.7304 96.0928ZM96.6404 96.0328C96.6404 96.0328 96.6704 96.0528 96.6904 96.0628C96.6704 96.0528 96.6604 96.0428 96.6404 96.0328ZM96.5504 95.9728C96.5504 95.9728 96.5703 95.9928 96.5903 95.9928C96.5803 95.9928 96.5704 95.9728 96.5504 95.9728ZM96.4304 95.8928C96.4304 95.8928 96.4504 95.9028 96.4604 95.9128C96.4604 95.9128 96.4404 95.9028 96.4304 95.8928ZM96.3503 95.8428C96.3503 95.8428 96.3704 95.8528 96.3704 95.8628C96.3704 95.8628 96.3503 95.8528 96.3503 95.8428ZM96.1404 95.7028C96.1404 95.7028 96.1604 95.7128 96.1604 95.7228C96.1604 95.7228 96.1404 95.7128 96.1404 95.7028ZM95.9203 95.5528C95.9203 95.5528 95.9403 95.5628 95.9503 95.5728C95.9503 95.5728 95.9303 95.5628 95.9203 95.5528ZM95.8304 95.4928C95.8304 95.4928 95.8504 95.5128 95.8704 95.5128C95.8604 95.5128 95.8504 95.4928 95.8304 95.4928ZM95.7003 95.4128C95.7003 95.4128 95.7304 95.4328 95.7504 95.4428C95.7304 95.4328 95.7203 95.4228 95.7003 95.4128ZM95.5704 95.3328C95.5704 95.3328 95.6304 95.3728 95.6604 95.3928C95.6304 95.3728 95.6004 95.3528 95.5704 95.3328ZM95.5404 95.3128C95.5404 95.3128 95.5604 95.3228 95.5704 95.3328C95.5704 95.3328 95.5504 95.3228 95.5404 95.3128ZM94.3904 94.6528C94.7804 94.8428 95.1704 95.0628 95.5404 95.3028C95.2404 95.1128 94.9403 94.9328 94.6303 94.7728C94.5503 94.7328 94.4704 94.6928 94.3904 94.6528ZM94.3604 94.6328C94.3604 94.6328 94.3804 94.6428 94.3904 94.6528C94.3804 94.6528 94.3704 94.6428 94.3604 94.6328ZM96.3803 94.6028C96.3803 94.6028 96.3603 94.6028 96.3503 94.6028C96.3603 94.6028 96.3703 94.6028 96.3803 94.6028ZM96.4104 94.6028C96.4104 94.6028 96.4004 94.6028 96.3904 94.6028C96.3904 94.6028 96.4004 94.6028 96.4104 94.6028ZM96.4404 94.6028C96.4404 94.6028 96.4404 94.6028 96.4304 94.6028C96.4304 94.6028 96.4304 94.6028 96.4404 94.6028ZM96.4704 94.6128H96.4604C96.4604 94.6128 96.4604 94.6128 96.4704 94.6128ZM98.5303 94.9428C98.5303 94.9428 98.5303 94.9428 98.5203 94.9428C98.5203 94.9428 98.5203 94.9428 98.5303 94.9428ZM98.5603 94.9528C98.5603 94.9528 98.5604 94.9528 98.5504 94.9528C98.5504 94.9528 98.5503 94.9528 98.5603 94.9528ZM98.6003 94.9628C98.6003 94.9628 98.5904 94.9628 98.5804 94.9628C98.5804 94.9628 98.5903 94.9628 98.6003 94.9628ZM98.6303 94.9628C98.6303 94.9628 98.6204 94.9628 98.6104 94.9628C98.6104 94.9628 98.6203 94.9628 98.6303 94.9628ZM98.6703 94.9728C98.6703 94.9728 98.6504 94.9728 98.6404 94.9728C98.6404 94.9728 98.6603 94.9728 98.6703 94.9728ZM100.11 95.3128C99.6304 95.1928 99.1604 95.0728 98.6804 94.9728C99.1604 95.0728 99.6404 95.1928 100.11 95.3128ZM101.22 93.3428C101.22 93.3428 101.23 93.3428 101.24 93.3428C101.24 93.3428 101.23 93.3428 101.22 93.3428ZM103.25 90.4028C103.2 90.4028 103.14 90.4028 103.09 90.4128C101.13 90.5528 99.1603 90.8228 97.2803 91.3728C99.1703 90.8328 101.14 90.5528 103.09 90.4128C103.14 90.4128 103.2 90.4128 103.25 90.4028ZM103.38 88.2028C103.38 88.2028 103.35 88.2028 103.33 88.2028C103.35 88.2028 103.36 88.2028 103.38 88.2028ZM104.93 88.1328C104.93 88.1328 104.91 88.1328 104.9 88.1328C104.91 88.1328 104.92 88.1328 104.93 88.1328ZM105.38 88.1328C105.23 88.1328 105.08 88.1328 104.94 88.1328C105.09 88.1328 105.24 88.1328 105.38 88.1328ZM113.4 81.5828C111.23 82.2328 109.15 83.4628 107.22 84.4328C105.49 85.2928 103.73 86.1328 102.08 87.1328C101.37 87.5628 100.71 88.0428 100.07 88.5528C100.71 88.0428 101.37 87.5528 102.08 87.1328C103.73 86.1328 105.49 85.3028 107.22 84.4328C109.16 83.4628 111.23 82.2328 113.4 81.5828Z" fill="#3745EB"/>
<path d="M117.25 79.2328C105.65 79.6828 96.11 89.7528 92.54 93.4628C92.47 93.5328 92.41 93.6228 92.36 93.7128C92.08 94.2428 92.07 95.1528 92.19 96.2028C92.71 96.2928 93.2 96.4828 93.67 96.7328C94.04 96.9228 94.4 97.1528 94.77 97.3928C95.83 98.0928 96.9 98.8028 97.94 99.5228C98.23 98.8728 98.55 98.2128 98.89 97.5428C97.8 96.7828 96.69 96.0428 95.57 95.3128C95.26 95.1128 94.95 94.9328 94.63 94.7628C94.54 94.7128 94.44 94.6628 94.35 94.6228C95 94.5128 95.68 94.5128 96.34 94.5828C97.6 94.7128 98.86 94.9828 100.1 95.3028C100.47 94.6628 100.87 94.0128 101.3 93.3528C99.3 92.7928 96.94 92.2228 94.79 92.3628C95.56 91.9128 96.42 91.5928 97.26 91.3528C99.15 90.8128 101.12 90.5328 103.07 90.3928C103.18 90.3928 103.3 90.3728 103.41 90.3728C104.04 89.5728 104.69 88.8228 105.36 88.1128C104.68 88.1128 103.99 88.1428 103.31 88.1828C102.23 88.2528 101.14 88.3628 100.06 88.5228C100.7 88.0128 101.36 87.5228 102.07 87.1028C103.72 86.1028 105.48 85.2728 107.21 84.4128C109.15 83.4428 111.22 82.2128 113.39 81.5628C114.95 80.5528 116.29 79.7828 117.23 79.2128" fill="#3D4CE3"/>
</g>
<path d="M8.81008 193.013C10.0901 195.903 12.2401 198.393 15.2201 199.983C16.0701 200.443 17.0001 200.823 18.0001 201.113C20.7401 201.943 24.0201 202.083 27.8001 201.313C35.8801 199.643 48.7701 202.673 57.8301 204.443C62.3501 205.323 65.9101 205.893 67.4501 205.403C69.3801 204.783 66.1801 199.163 61.8201 192.853C55.7901 184.133 47.5601 174.103 47.5601 174.103C45.4401 173.553 42.1401 173.013 38.0901 173.133C37.6601 173.143 37.2201 173.163 36.7701 173.193C36.7701 173.193 36.7701 173.193 36.7401 173.193C34.2801 173.343 31.5801 173.743 28.7201 174.523C24.2701 175.743 21.8001 177.453 18.7401 176.783C14.7001 175.903 10.0001 171.313 7.19008 173.013C7.09008 173.073 7.00008 173.143 6.91008 173.223C6.71008 173.393 6.53008 173.603 6.37008 173.843C4.12008 177.503 6.98008 188.933 8.81008 193.023V193.013Z" fill="#4F5FFF"/>
<path d="M18 201.103C20.74 201.933 24.02 202.073 27.8 201.303C35.88 199.633 48.77 202.663 57.83 204.433L61.82 192.843C55.79 184.123 47.56 174.093 47.56 174.093C45.44 173.543 42.14 173.003 38.09 173.123C38.05 173.213 38.03 173.303 38 173.383C38 173.383 40.78 188.253 37.31 193.853C33.86 199.453 25.35 201.293 18.01 201.103H18Z" fill="#293CFF"/>
<path opacity="0.49" d="M8.81008 193.013C10.0901 195.903 12.2401 198.393 15.2201 199.983C16.0901 197.453 14.9801 192.983 13.5201 188.353C12.2301 184.273 11.6701 179.443 10.5201 177.313C8.62008 173.793 7.13008 173.603 6.37008 173.843C4.12008 177.503 6.98008 188.933 8.81008 193.023V193.013Z" fill="#FF0090"/>
<path d="M6.8999 173.213C10.1199 171.953 14.9699 176.013 15.9899 177.253C18.2899 180.023 19.9899 182.143 20.8999 181.713C21.8099 181.283 22.0999 179.383 24.4099 177.113C26.5799 174.973 36.1399 173.293 36.7299 173.193C34.2699 173.343 31.5699 173.743 28.7099 174.523C24.2599 175.743 21.7899 177.453 18.7299 176.783C14.6899 175.903 9.9899 171.313 7.1799 173.013C7.0799 173.073 6.9899 173.143 6.8999 173.223V173.213Z" fill="#7884FF"/>
<path d="M40.8703 150.703C40.7403 151.183 40.6203 151.663 40.5003 152.143C40.3803 152.623 40.2703 153.103 40.1603 153.573C40.0503 154.053 39.9503 154.523 39.8503 155.003C39.7503 155.483 39.6603 155.953 39.5703 156.423V156.453C39.4703 156.913 39.4003 157.373 39.3203 157.833C39.2503 158.253 39.1803 158.673 39.1303 159.103C38.9303 160.483 38.7903 161.853 38.6903 163.213C38.6603 163.563 38.6403 163.933 38.6203 164.283C38.6203 164.293 38.6203 164.313 38.6203 164.323C38.6003 164.683 38.5803 165.053 38.5703 165.413C38.5503 165.783 38.5503 166.143 38.5503 166.513C38.5503 166.873 38.5503 167.243 38.5503 167.603C38.5503 167.963 38.5603 168.333 38.5803 168.683C38.5803 169.043 38.6103 169.403 38.6303 169.763C38.6503 170.053 38.6703 170.343 38.6903 170.643C38.7203 170.963 38.7403 171.273 38.7803 171.593C38.8103 171.923 38.8503 172.243 38.9003 172.563C38.9103 172.693 38.9303 172.823 38.9403 172.953C38.9903 173.353 39.0503 173.753 39.1103 174.153C39.1603 174.473 39.2203 174.793 39.2803 175.113C39.3103 175.323 39.3603 175.543 39.4003 175.753C39.4403 176.003 39.5003 176.263 39.5703 176.513C39.6203 176.763 39.6803 177.013 39.7403 177.263C39.8003 177.553 39.8803 177.843 39.9603 178.123C40.1503 178.853 40.3703 179.573 40.6103 180.293C40.6903 180.523 40.7703 180.763 40.8603 181.003C40.8803 181.073 40.9103 181.153 40.9403 181.223C41.0403 181.523 41.1603 181.823 41.2803 182.113C41.4103 182.443 41.5403 182.763 41.6803 183.093C41.9503 183.753 42.2603 184.403 42.5803 185.053C42.7303 185.353 42.8903 185.653 43.0403 185.943C43.2003 186.253 43.3703 186.553 43.5403 186.863C44.1603 187.953 44.8403 189.033 45.5903 190.083C45.7703 190.343 45.9603 190.603 46.1603 190.863C46.4803 191.303 46.8203 191.733 47.1703 192.153C47.3603 192.393 47.5603 192.633 47.7803 192.873C50.3603 195.883 53.5303 198.693 57.3803 201.253C59.1903 202.473 61.1503 203.633 63.2703 204.723C66.6103 206.453 69.9703 207.863 73.3403 208.963C74.2403 209.253 75.1303 209.533 76.0203 209.773C76.0603 209.783 78.4203 212.273 83.1603 214.223C86.3303 215.523 90.5603 216.583 95.8503 216.523H95.8703C103.22 216.423 112.62 214.143 124.14 207.303C137.18 199.553 144.84 196.773 156.08 190.963H156.1C159.22 189.333 161.9 187.803 163.96 186.283C164.73 185.723 169.13 183.243 168.84 182.523C168.56 181.803 163.6 182.843 162.66 182.943C145.7 184.763 103.9 182.563 98.8903 118.063C97.7503 103.373 92.2003 91.0528 89.8303 81.3428C89.6303 80.5028 89.4503 79.6828 89.2903 78.8828C89.2903 78.8828 89.2803 78.8128 89.2803 78.7828C89.2603 78.7028 89.2503 78.6328 89.2503 78.5528C89.2503 78.5228 89.2503 78.4828 89.2503 78.4528C89.2503 78.3728 89.2503 78.3028 89.2503 78.2228C89.2503 78.0928 89.2503 77.9728 89.2703 77.8528V77.8228C89.3003 77.6928 89.3203 77.5628 89.3603 77.4328C89.9203 75.3428 92.2303 73.6828 92.2303 73.6828L82.0603 67.8428L74.4203 63.4628L73.6003 62.9928C73.6003 62.9928 73.6003 63.0728 73.6003 63.2428C73.6003 63.5228 73.5703 64.0628 73.5303 64.8128C73.5303 64.9828 73.5103 65.1728 73.4903 65.3628V65.3828C73.4803 65.5828 73.4603 65.7828 73.4403 65.9928C73.4403 66.1028 73.4203 66.2128 73.4103 66.3228C73.4003 66.5328 73.3703 66.7428 73.3503 66.9828C73.3503 67.0428 73.3303 67.1128 73.3303 67.1728C73.3003 67.5228 73.2603 67.8828 73.2103 68.2628C73.0303 69.8028 72.7703 71.6428 72.3903 73.7628C72.3403 74.0228 72.2903 74.2928 72.2403 74.5728C72.1203 75.2028 72.0003 75.8528 71.8503 76.5228C71.7803 76.8528 71.7103 77.1828 71.6403 77.5228C71.5303 78.0528 71.4103 78.5928 71.2803 79.1428C71.2203 79.4028 71.1503 79.6728 71.0903 79.9428C70.5703 82.1028 69.9503 84.4328 69.2003 86.9228C69.1103 87.2428 69.0003 87.5728 68.9003 87.9028C68.7203 88.4828 68.5403 89.0628 68.3403 89.6528C68.3003 89.7628 68.2703 89.8728 68.2303 89.9828C68.0403 90.5428 67.8503 91.1228 67.6503 91.7028C66.8603 94.0128 65.9503 96.4328 64.9303 98.9528C64.5603 99.8628 64.1703 100.793 63.7703 101.733C63.0003 103.513 62.1703 105.353 61.2703 107.233C61.1203 107.543 60.9703 107.863 60.8103 108.183C60.4003 109.023 59.9903 109.863 59.5503 110.713C59.1703 111.463 58.7803 112.213 58.3703 112.983C58.2803 113.163 58.1803 113.343 58.0803 113.523C57.7103 114.223 57.3303 114.913 56.9403 115.623C56.1703 117.023 55.3603 118.433 54.5103 119.873C53.5403 121.503 52.6003 123.153 51.7003 124.803C51.4103 125.353 51.1103 125.893 50.8203 126.433C50.7003 126.663 50.5803 126.903 50.4503 127.133C50.4103 127.213 50.3603 127.283 50.3303 127.363C50.1803 127.643 50.0403 127.913 49.9103 128.183C48.6403 130.633 47.4503 133.083 46.3603 135.523C45.7803 136.803 45.2303 138.093 44.7103 139.373C43.1603 143.193 41.8603 146.983 40.8603 150.723L40.8703 150.703Z" fill="#6B78FF"/>
<path d="M40.8703 150.703C40.7403 151.183 40.6203 151.663 40.5003 152.143C40.3803 152.623 40.2703 153.103 40.1603 153.573C40.0503 154.053 39.9503 154.523 39.8503 155.003C39.7503 155.483 39.6603 155.953 39.5703 156.423V156.453C39.4703 156.913 39.4003 157.373 39.3203 157.833C39.2503 158.253 39.1803 158.673 39.1303 159.103C38.9303 160.483 38.7903 161.853 38.6903 163.213C38.6603 163.563 38.6403 163.933 38.6203 164.283C38.6203 164.293 38.6203 164.313 38.6203 164.323C38.6003 164.683 38.5803 165.053 38.5703 165.413C38.5503 165.783 38.5503 166.143 38.5503 166.513C38.5503 166.873 38.5503 167.243 38.5503 167.603C38.5503 167.963 38.5603 168.333 38.5803 168.683C38.5803 169.043 38.6103 169.403 38.6303 169.763C38.6503 170.053 38.6703 170.343 38.6903 170.643C38.7203 170.963 38.7403 171.273 38.7803 171.593C38.8103 171.923 38.8503 172.243 38.9003 172.563C38.9103 172.693 38.9303 172.823 38.9403 172.953C38.9903 173.353 39.0503 173.753 39.1103 174.153C39.1603 174.473 39.2203 174.793 39.2803 175.113C39.3103 175.323 39.3603 175.543 39.4003 175.753C39.4403 176.003 39.5003 176.263 39.5703 176.513C39.6203 176.763 39.6803 177.013 39.7403 177.263C39.8003 177.553 39.8803 177.843 39.9603 178.123C40.1503 178.853 40.3703 179.573 40.6103 180.293C40.6903 180.523 40.7703 180.763 40.8603 181.003C40.8803 181.073 40.9103 181.153 40.9403 181.223C41.0403 181.523 41.1603 181.823 41.2803 182.113C41.4103 182.443 41.5403 182.763 41.6803 183.093C41.9503 183.753 42.2603 184.403 42.5803 185.053C42.7303 185.353 42.8903 185.653 43.0403 185.943C43.2003 186.253 43.3703 186.553 43.5403 186.863C44.1603 187.953 44.8403 189.033 45.5903 190.083C45.7703 190.343 45.9603 190.603 46.1603 190.863C46.4803 191.303 46.8203 191.733 47.1703 192.153C47.3603 192.393 47.5603 192.633 47.7803 192.873C50.3603 195.883 53.5303 198.693 57.3803 201.253C59.1903 202.473 61.1503 203.633 63.2703 204.723C66.6103 206.453 69.9703 207.863 73.3403 208.963C74.1103 209.213 74.8903 209.453 75.6603 209.673C75.9003 209.743 76.0203 209.773 76.0203 209.773C77.2003 207.333 86.7003 181.833 81.9703 120.963C80.9403 107.783 80.8603 95.5528 81.1003 85.9628C81.3203 77.4728 81.7803 71.0428 82.0503 67.8328L74.5703 63.5428L74.4103 63.4528L73.5903 63.2328C73.5903 63.5128 73.5603 64.0528 73.5203 64.8028C73.5203 64.9728 73.5003 65.1628 73.4803 65.3528V65.3728C73.4703 65.5728 73.4503 65.7728 73.4303 65.9828C73.4303 66.0928 73.4103 66.2028 73.4003 66.3128C73.3903 66.5228 73.3603 66.7328 73.3403 66.9728C73.3403 67.0328 73.3203 67.1028 73.3203 67.1628C73.2903 67.5128 73.2503 67.8728 73.2003 68.2528C73.0203 69.7928 72.7603 71.6328 72.3803 73.7528C72.3303 74.0228 72.2803 74.2828 72.2303 74.5628C72.1103 75.1928 71.9903 75.8428 71.8403 76.5128C71.7703 76.8428 71.7003 77.1728 71.6303 77.5128C71.5203 78.0428 71.4003 78.5828 71.2703 79.1328C71.2103 79.3928 71.1403 79.6628 71.0803 79.9328C70.5603 82.0928 69.9403 84.4228 69.1903 86.9128C69.1003 87.2328 68.9903 87.5628 68.8903 87.8928C68.7203 88.4628 68.5303 89.0528 68.3303 89.6428C68.2903 89.7528 68.2603 89.8628 68.2203 89.9728C68.0303 90.5328 67.8403 91.1128 67.6403 91.6928C66.8503 94.0028 65.9403 96.4228 64.9203 98.9428C64.5503 99.8528 64.1603 100.783 63.7603 101.723C62.9903 103.503 62.1603 105.343 61.2603 107.223C61.1103 107.533 60.9603 107.853 60.8003 108.173C60.3903 109.013 59.9803 109.853 59.5403 110.703C59.1603 111.453 58.7703 112.203 58.3603 112.973C58.2703 113.153 58.1703 113.333 58.0703 113.513C57.7003 114.213 57.3203 114.903 56.9303 115.613C56.1603 117.013 55.3503 118.423 54.5003 119.863C53.5303 121.493 52.5903 123.143 51.6903 124.793C51.4003 125.343 51.1003 125.883 50.8103 126.423C50.6903 126.653 50.5703 126.893 50.4403 127.123C50.4003 127.203 50.3503 127.273 50.3203 127.353C50.1703 127.633 50.0303 127.903 49.9003 128.173C48.6303 130.623 47.4403 133.073 46.3503 135.513C45.7703 136.793 45.2203 138.083 44.7003 139.363C43.1503 143.183 41.8503 146.973 40.8503 150.713L40.8703 150.703Z" fill="#B3B9FF"/>
<mask id="mask2_20_8277" style="mask-type:luminance" maskUnits="userSpaceOnUse" x="38" y="63" width="46" height="147">
<path d="M76.0603 209.793C75.1603 209.543 74.2703 209.273 73.3803 208.983C70.0103 207.873 66.6403 206.473 63.3003 204.743C61.1903 203.643 59.2303 202.483 57.4103 201.273C53.5703 198.713 50.3903 195.903 47.8103 192.883C47.6003 192.643 47.4003 192.403 47.2003 192.163C35.4403 177.773 36.8003 158.863 44.7303 139.353C45.2503 138.073 45.8003 136.783 46.3803 135.503C47.4703 133.053 48.6603 130.613 49.9303 128.163C50.0603 127.893 50.2003 127.623 50.3503 127.353C50.3903 127.273 50.4303 127.203 50.4703 127.123C50.5903 126.893 50.7203 126.663 50.8403 126.423C51.1303 125.883 51.4303 125.343 51.7303 124.793C52.6303 123.143 53.5603 121.503 54.5403 119.863C72.5803 89.4228 73.5703 65.8928 73.6303 63.2328L82.3003 65.5428C82.3003 65.5428 79.6703 90.7428 82.0203 120.973C86.7403 181.853 77.2503 207.343 76.0703 209.793" fill="white"/>
</mask>
<g mask="url(#mask2_20_8277)">
<path d="M68.9401 66.6128C70.5601 65.7828 72.2401 66.4728 73.7501 67.2228C75.4001 68.0428 77.0901 68.6828 78.9001 69.0428C82.5701 69.7828 86.4101 69.4328 89.8901 68.0628C90.7501 67.7228 91.1201 69.1128 90.2701 69.4428C86.8501 70.7828 83.1201 71.1528 79.4901 70.5928C77.6901 70.3228 75.9501 69.7928 74.2901 69.0628C72.9801 68.4828 71.1301 67.0928 69.6601 67.8528C68.8401 68.2728 68.1201 67.0328 68.9401 66.6128Z" fill="#8792FF"/>
<path d="M68.6305 79.1028C69.7705 79.2228 70.7905 79.7828 71.8205 80.2328C72.8705 80.6928 73.9205 81.0528 75.0505 81.2228C77.1705 81.5528 79.3305 81.4328 81.4505 81.1528C85.3205 80.6428 89.0205 79.3928 92.0805 76.9228C93.1905 76.0228 91.6205 74.4628 90.5205 75.3528C87.7105 77.6228 84.0905 78.6728 80.5505 79.0428C78.5305 79.2528 76.4205 79.3628 74.4305 78.8428C73.6005 78.6228 72.8305 78.2928 72.0605 77.9728C70.9505 77.5028 69.8505 77.0328 68.6105 76.9028C67.2005 76.7528 67.2205 78.9728 68.6305 79.1228" fill="#8792FF"/>
<path d="M64.4201 90.7228C66.2901 89.6228 68.5701 90.3828 70.5101 90.8828C72.6801 91.4328 74.8801 91.7428 77.1201 91.5628C81.5801 91.2028 85.8701 89.2928 88.9501 86.0128C89.9201 84.9728 88.3701 83.3928 87.3901 84.4428C84.3901 87.6528 80.1101 89.3928 75.7401 89.4128C73.5301 89.4128 71.5101 88.8028 69.3801 88.3328C67.3301 87.8728 65.2001 87.7128 63.3201 88.8228C62.0901 89.5428 63.2001 91.4628 64.4301 90.7428" fill="#8792FF"/>
<path d="M62.4103 101.423C64.4603 101.453 66.4103 102.023 68.3603 102.593C69.1003 102.803 69.8303 103.023 70.5703 103.213C73.0003 103.823 75.5003 104.033 78.0003 103.803C82.8603 103.363 87.4703 101.533 91.6803 99.1228C92.9203 98.4128 91.8103 96.4928 90.5703 97.2028C86.5403 99.5128 82.0703 101.323 77.3903 101.633C74.9703 101.793 72.6403 101.493 70.3003 100.843C67.6903 100.123 65.1303 99.2428 62.3903 99.2028C60.9703 99.1828 60.9803 101.393 62.4103 101.423Z" fill="#8792FF"/>
<path d="M56.3301 109.163C64.4201 113.573 74.4201 114.133 83.0101 110.813C85.4701 109.863 87.8001 108.623 89.9401 107.063C91.0801 106.233 89.9801 104.303 88.8301 105.143C79.8201 111.693 67.2501 112.593 57.4501 107.253C56.2001 106.573 55.0801 108.483 56.3301 109.163Z" fill="#8792FF"/>
<path d="M52.5906 121.203C57.3906 125.083 63.6706 125.703 69.6306 125.373C75.9206 125.033 82.0006 123.783 87.4106 120.423C88.6206 119.673 87.5106 117.753 86.3006 118.503C81.3006 121.613 75.7506 122.793 69.9306 123.143C64.5606 123.463 58.5406 123.183 54.1606 119.643C53.0606 118.753 51.4806 120.303 52.5906 121.203Z" fill="#8792FF"/>
<path d="M47.1705 130.443C56.1005 137.123 67.9905 139.373 78.8105 136.883C81.8705 136.183 84.8405 135.073 87.6205 133.613C88.8905 132.953 87.7705 131.033 86.5105 131.693C77.1805 136.573 65.7905 136.873 56.0705 132.943C53.2905 131.823 50.6805 130.313 48.2805 128.523C47.1405 127.673 46.0305 129.593 47.1605 130.433" fill="#8792FF"/>
<path d="M41.8202 143.523C47.8002 146.313 53.8902 149.163 60.4002 150.463C66.4102 151.663 72.5202 151.303 78.4702 149.983C81.7702 149.243 85.0002 148.233 88.1702 147.073C87.8902 147.033 87.6002 147.003 87.3202 146.963L87.4302 147.023C87.2602 146.803 87.0902 146.583 86.9202 146.363C87.0902 146.063 87.2602 145.763 87.4302 145.463C87.7102 145.503 88.0002 145.533 88.2802 145.573L88.1702 145.513C86.9202 144.833 85.8002 146.743 87.0502 147.423C88.1902 148.043 89.5502 146.853 89.0002 145.633C88.6702 144.903 87.9702 144.823 87.2902 145.033C86.4702 145.283 85.6702 145.613 84.8602 145.883C81.7102 146.933 78.4902 147.803 75.2102 148.363C71.9502 148.923 68.6202 149.143 65.3202 148.903C61.6602 148.643 58.0702 147.743 54.6002 146.543C50.6002 145.163 46.7702 143.373 42.9402 141.593C41.6602 140.993 40.5302 142.903 41.8202 143.503" fill="#8792FF"/>
<path d="M38.6303 158.003C50.5803 164.073 64.6603 165.533 77.6403 162.223C81.3203 161.283 84.9003 159.943 88.3003 158.253C89.5803 157.623 88.4603 155.703 87.1903 156.333C75.7103 162.023 62.1903 163.223 49.8303 159.943C46.3403 159.013 42.9603 157.733 39.7403 156.093C38.4703 155.453 37.3503 157.363 38.6203 158.003" fill="#8792FF"/>
<path d="M37.9904 173.383C51.8503 177.523 66.9703 179.413 80.9503 174.733C84.4903 173.553 87.8803 171.973 91.0303 169.973C91.9903 169.363 91.5703 167.963 90.4703 167.903C89.5403 167.853 88.7403 168.323 88.2903 169.123C87.5903 170.363 89.5003 171.483 90.2003 170.243C90.2303 170.083 90.3204 170.043 90.4804 170.113C90.2904 169.423 90.1003 168.733 89.9203 168.043C78.3403 175.393 64.0803 176.453 50.8403 174.173C46.6903 173.453 42.6003 172.433 38.5603 171.233C37.1903 170.823 36.6204 172.963 37.9904 173.373" fill="#8792FF"/>
<path d="M40.0702 188.003C53.6902 192.013 68.6302 190.713 81.4902 184.753C85.1602 183.053 88.6302 180.953 91.8502 178.503C92.6802 177.873 92.4902 176.433 91.2902 176.433C90.6702 176.433 90.0502 176.433 89.4302 176.433C88.0102 176.433 88.0202 178.653 89.4502 178.653C90.0702 178.653 90.6902 178.653 91.3102 178.653C91.1202 177.963 90.9302 177.273 90.7502 176.583C79.7802 184.933 65.8502 188.943 52.1202 187.953C48.2302 187.673 44.3902 186.953 40.6502 185.853C39.2802 185.453 38.7102 187.593 40.0802 187.993" fill="#8792FF"/>
<path d="M55.7602 207.203C58.9602 207.723 62.0902 207.083 65.1002 205.993C68.1102 204.903 71.0402 203.533 73.8802 202.053C79.5302 199.103 84.8302 195.483 89.6602 191.313C92.2502 189.083 95.5802 186.513 95.6802 182.793C95.7202 181.373 93.5002 181.383 93.4602 182.813C93.3802 185.663 90.2802 187.833 88.3302 189.533C86.0902 191.483 83.7502 193.303 81.3002 194.983C76.5202 198.283 71.3702 201.103 65.9902 203.283C62.9502 204.513 59.6402 205.593 56.3202 205.053C54.9302 204.833 54.3402 206.963 55.7502 207.193L55.7602 207.203Z" fill="#8792FF"/>
<mask id="mask3_20_8277" style="mask-type:luminance" maskUnits="userSpaceOnUse" x="71" y="63" width="3" height="15">
<path d="M73.6204 63.2328C73.6104 63.7428 73.5604 65.0528 73.3604 67.0328C73.5604 65.0428 73.6104 63.7428 73.6204 63.2328Z" fill="white"/>
</mask>
<g mask="url(#mask3_20_8277)">
<path d="M73.617 63.2245L69.8633 77.2924L71.6121 77.759L75.3658 63.6912L73.617 63.2245Z" fill="#C5CAFF"/>
</g>
<path d="M73.3602 67.0328C73.3102 67.4928 73.2602 67.9828 73.2002 68.5128C73.2602 67.9828 73.3202 67.4928 73.3602 67.0328Z" fill="#A3ACFF"/>
<path d="M71.6101 77.7628C71.4601 78.4528 71.2901 79.1728 71.1201 79.9128C71.3001 79.1728 71.4601 78.4628 71.6101 77.7728" fill="#A3ACFF"/>
</g>
<path d="M119.68 179.393C119.29 180.873 117.77 181.753 116.29 181.353C114.81 180.953 113.93 179.443 114.33 177.963C114.73 176.483 116.24 175.603 117.72 176.003C119.2 176.403 120.08 177.913 119.68 179.393Z" fill="#FF0090"/>
<path d="M118.59 191.593C119.507 191.593 120.25 190.85 120.25 189.933C120.25 189.016 119.507 188.273 118.59 188.273C117.673 188.273 116.93 189.016 116.93 189.933C116.93 190.85 117.673 191.593 118.59 191.593Z" fill="#FF0090"/>
<path d="M124.15 184.673C123.98 185.303 123.34 185.673 122.71 185.503C122.08 185.333 121.71 184.693 121.88 184.063C122.05 183.433 122.69 183.063 123.32 183.233C123.95 183.403 124.32 184.043 124.15 184.673Z" fill="#FF0090"/>
<path opacity="0.42" d="M73.6202 62.9828C73.6202 62.9828 73.6202 63.0628 73.6202 63.2328C73.6202 63.5128 73.5902 64.0528 73.5502 64.8028C73.5502 64.9728 73.5302 65.1628 73.5102 65.3528V65.3728C73.5002 65.5728 73.4802 65.7728 73.4602 65.9828C73.4602 66.0928 73.4402 66.2028 73.4302 66.3128C73.4202 66.5228 73.3902 66.7328 73.3702 66.9728C73.3702 67.0328 73.3502 67.1028 73.3502 67.1628C73.3202 67.5128 73.2802 67.8728 73.2302 68.2528C73.0502 69.7928 72.7902 71.6328 72.4102 73.7528C72.3602 74.0228 72.3102 74.2828 72.2602 74.5628C72.1402 75.1928 72.0202 75.8428 71.8702 76.5128C71.8002 76.8428 71.7302 77.1728 71.6602 77.5128C71.5502 78.0428 71.4302 78.5828 71.3002 79.1328C71.2402 79.3928 71.1702 79.6628 71.1102 79.9328C70.5902 82.0928 69.9702 84.4228 69.2202 86.9128C73.1602 88.7628 78.6502 87.3728 81.1402 85.9628C81.5802 85.7028 81.9402 85.4528 82.1602 85.2228C83.3602 83.9828 87.4502 82.2728 89.8602 81.3228C89.6602 80.4828 89.4802 79.6628 89.3202 78.8628C89.3202 78.8628 89.3102 78.7928 89.3102 78.7628C89.2902 78.6828 89.2802 78.6128 89.2802 78.5328C89.2802 78.5028 89.2802 78.4628 89.2802 78.4328C89.2802 78.3528 89.2802 78.2828 89.2802 78.2028C89.2802 78.0728 89.2802 77.9528 89.3002 77.8328V77.8028C89.3302 77.6728 89.3502 77.5428 89.3902 77.4128C89.9502 75.3228 92.2602 73.6628 92.2602 73.6628L82.0902 67.8228L74.4502 63.4428L73.6302 62.9728L73.6202 62.9828Z" fill="#1F2EC4"/>
<g style="mix-blend-mode:overlay">
<path d="M40.8703 150.703C40.7403 151.183 40.6203 151.663 40.5003 152.143C40.3803 152.623 40.2703 153.103 40.1603 153.573C40.0503 154.053 39.9503 154.523 39.8503 155.003C39.7503 155.483 39.6603 155.953 39.5703 156.423V156.453C39.4703 156.913 39.4003 157.373 39.3203 157.833C39.2503 158.253 39.1803 158.673 39.1303 159.103C38.9303 160.483 38.7903 161.853 38.6903 163.213C38.6603 163.563 38.6403 163.933 38.6203 164.283C38.6203 164.293 38.6203 164.313 38.6203 164.323C38.6003 164.683 38.5803 165.053 38.5703 165.413C38.5503 165.783 38.5503 166.143 38.5503 166.513C38.5503 166.873 38.5503 167.243 38.5503 167.603C38.5503 167.963 38.5603 168.333 38.5803 168.683C38.5803 169.043 38.6103 169.403 38.6303 169.763C38.6503 170.053 38.6703 170.343 38.6903 170.643C38.7203 170.963 38.7403 171.273 38.7803 171.593C38.8103 171.923 38.8503 172.243 38.9003 172.563C38.9103 172.693 38.9303 172.823 38.9403 172.953C38.9903 173.353 39.0503 173.753 39.1103 174.153C39.1603 174.473 39.2203 174.793 39.2803 175.113C39.3103 175.323 39.3603 175.543 39.4003 175.753C39.4403 176.003 39.5003 176.263 39.5703 176.513C39.6203 176.763 39.6803 177.013 39.7403 177.263C39.8003 177.553 39.8803 177.843 39.9603 178.123C40.1503 178.853 40.3703 179.573 40.6103 180.293C40.6903 180.523 40.7703 180.763 40.8603 181.003C40.8803 181.073 40.9103 181.153 40.9403 181.223C41.0403 181.523 41.1603 181.823 41.2803 182.113C41.4103 182.443 41.5403 182.763 41.6803 183.093C41.9503 183.753 42.2603 184.403 42.5803 185.053C42.7303 185.353 42.8903 185.653 43.0403 185.943C43.2003 186.253 43.3703 186.553 43.5403 186.863C44.1603 187.953 44.8403 189.033 45.5903 190.083C45.7703 190.343 45.9603 190.603 46.1603 190.863C46.4803 191.303 46.8203 191.733 47.1703 192.153C47.3603 192.393 47.5603 192.633 47.7803 192.873C50.3603 195.883 53.5303 198.693 57.3803 201.253C59.1903 202.473 61.1503 203.633 63.2703 204.723C66.6103 206.453 69.9703 207.863 73.3403 208.963C74.1103 209.213 74.8903 209.453 75.6603 209.673C72.9503 208.833 55.5103 202.913 45.7703 186.203C35.1803 168.033 45.3803 141.673 48.7503 134.663C52.1303 127.643 62.7703 106.793 68.2903 92.8228C72.9503 81.0428 74.2703 67.4828 74.5603 63.5428L74.4003 63.4528L73.5803 63.2328C73.5803 63.5128 73.5503 64.0528 73.5103 64.8028C73.5103 64.9728 73.4903 65.1628 73.4703 65.3528V65.3728C73.4603 65.5728 73.4403 65.7728 73.4203 65.9828C73.4203 66.0928 73.4003 66.2028 73.3903 66.3128C73.3803 66.5228 73.3503 66.7328 73.3303 66.9728C73.3303 67.0328 73.3103 67.1028 73.3103 67.1628C73.2803 67.5128 73.2403 67.8728 73.1903 68.2528C73.0103 69.7928 72.7503 71.6328 72.3703 73.7528C72.3203 74.0228 72.2703 74.2828 72.2203 74.5628C72.1003 75.1928 71.9803 75.8428 71.8303 76.5128C71.7603 76.8428 71.6903 77.1728 71.6203 77.5128C71.5103 78.0428 71.3903 78.5828 71.2603 79.1328C71.2003 79.3928 71.1303 79.6628 71.0703 79.9328C70.5503 82.0928 69.9303 84.4228 69.1803 86.9128C69.0903 87.2328 68.9803 87.5628 68.8803 87.8928C68.7103 88.4628 68.5203 89.0528 68.3203 89.6428C68.2803 89.7528 68.2503 89.8628 68.2103 89.9728C68.0203 90.5328 67.8303 91.1128 67.6303 91.6928C66.8403 94.0028 65.9303 96.4228 64.9103 98.9428C64.5403 99.8528 64.1503 100.783 63.7503 101.723C62.9803 103.503 62.1503 105.343 61.2503 107.223C61.1003 107.533 60.9503 107.853 60.7903 108.173C60.3803 109.013 59.9703 109.853 59.5303 110.703C59.1503 111.453 58.7603 112.203 58.3503 112.973C58.2603 113.153 58.1603 113.333 58.0603 113.513C57.6903 114.213 57.3103 114.903 56.9203 115.613C56.1503 117.013 55.3403 118.423 54.4903 119.863C53.5203 121.493 52.5803 123.143 51.6803 124.793C51.3903 125.343 51.0903 125.883 50.8003 126.423C50.6803 126.653 50.5603 126.893 50.4303 127.123C50.3903 127.203 50.3403 127.273 50.3103 127.353C50.1603 127.633 50.0203 127.903 49.8903 128.173C48.6203 130.623 47.4303 133.073 46.3403 135.513C45.7603 136.793 45.2103 138.083 44.6903 139.363C43.1403 143.183 41.8403 146.973 40.8403 150.713L40.8703 150.703Z" fill="#B3B9FF"/>
</g>
<path d="M42.2599 205.373C42.4999 205.913 42.7699 206.433 43.0799 206.933C44.3999 209.103 46.2999 210.923 48.6399 212.323C48.7199 212.363 48.8399 212.413 49.0099 212.463C50.8099 213.033 57.7999 214.003 65.8799 214.873C78.0599 216.193 92.7199 217.303 95.8899 216.533H95.9099C95.9899 216.513 96.0499 216.493 96.1199 216.473C96.7699 216.253 96.9199 215.423 96.7199 214.153C96.5899 213.383 96.3299 212.453 95.9699 211.403C92.8299 202.363 81.8699 184.483 81.6599 184.143C78.3599 183.283 71.6899 184.403 64.2299 186.333C63.5499 186.503 62.8699 186.693 62.1799 186.873C57.7299 188.093 55.2599 189.803 52.1999 189.133C48.9999 188.433 45.3799 185.393 42.6099 185.023C42.5199 185.013 42.4299 184.993 42.3399 184.993H42.2099C42.1199 184.973 42.0299 184.973 41.9399 184.983C41.8099 184.983 41.6799 185.003 41.5599 185.023C41.4499 185.043 41.3499 185.063 41.2499 185.093C41.1599 185.123 41.0599 185.153 40.9799 185.193C40.8699 185.233 40.7599 185.293 40.6599 185.353C40.5399 185.423 40.4399 185.503 40.3299 185.593C40.0699 185.833 39.8399 186.143 39.6699 186.523C37.7599 190.493 40.5099 201.393 42.2799 205.353L42.2599 205.373Z" fill="#6B78FF"/>
<path opacity="0.49" d="M42.2599 205.373C42.4999 205.913 42.7699 206.433 43.0799 206.933C44.3599 209.143 46.2299 211.023 48.6399 212.323C49.7499 209.933 48.6199 205.333 47.1099 200.553C45.8399 196.553 45.2899 191.813 44.1699 189.723C41.8199 185.363 40.0999 186.193 39.6499 186.533C37.7399 190.503 40.4899 201.403 42.2599 205.363V205.373Z" fill="#FF0090"/>
<path d="M40.3101 185.603C45.6601 183.403 55.1201 195.563 56.4401 193.093C57.3701 191.333 62.0801 189.313 64.7401 188.283C65.8301 187.853 66.5701 187.603 66.5701 187.603C70.5101 185.533 81.6401 184.133 81.6401 184.133C78.3401 183.283 71.6701 184.403 64.2101 186.333C63.5301 186.503 62.8501 186.693 62.1601 186.873C57.7101 188.093 55.2401 189.803 52.1801 189.133C48.9801 188.433 45.3601 185.393 42.5901 185.023C42.5001 185.013 42.4101 184.993 42.3201 184.993H42.1901C42.1001 184.973 42.0101 184.973 41.9201 184.983C41.7901 184.983 41.6601 185.003 41.5401 185.023C41.4301 185.043 41.3301 185.063 41.2301 185.093C41.1401 185.123 41.0401 185.153 40.9601 185.193C40.8501 185.233 40.7401 185.293 40.6401 185.353C40.5201 185.423 40.4201 185.503 40.3101 185.593V185.603Z" fill="#7884FF"/>
<path d="M49.0098 212.463C50.8098 213.033 57.7998 214.003 65.8798 214.873C78.0598 216.193 92.7198 217.303 95.8898 216.533H95.9098C103.26 216.433 112.66 214.153 124.18 207.313C137.22 199.563 144.88 196.783 156.12 190.973H156.14C162.66 186.793 157.69 189.873 129.86 201.373C114.78 207.603 103.81 210.263 95.9698 211.413C89.1198 212.423 84.6798 212.273 82.0098 212.353C77.8098 212.473 72.0698 212.563 66.5498 212.623C58.2498 212.703 50.4298 212.683 49.0298 212.483L49.0098 212.463Z" fill="#4F5FFF"/>
<path d="M96.5503 69.7327C96.5503 69.7327 102.59 77.6227 102.04 82.6227C101.49 87.6227 86.8403 75.6927 86.8403 75.6927L96.5403 69.7327H96.5503Z" fill="#E80083"/>
<path d="M105.27 36.6328C105.27 36.6328 114.94 34.3328 119.28 36.8728C123.63 39.4128 106.76 47.9228 106.76 47.9228L105.27 36.6328Z" fill="#FF0090"/>
<path d="M101.23 58.0227C101.23 58.0227 110.76 60.8427 113.26 65.2127C115.76 69.5827 96.9004 68.5527 96.9004 68.5527L101.23 58.0227Z" fill="#E80083"/>
<path d="M87.81 23.9727C85.7 25.3927 90.44 19.7527 88.81 14.8927C84.02 0.622726 76.46 1.95273 78.57 0.532726C80.68 -0.887274 87.96 -0.237273 96.36 12.2627C104.76 24.7627 89.92 22.5627 87.81 23.9727Z" fill="#FF0090"/>
<path d="M89.62 25.6427C87.08 25.5327 94.24 23.8027 95.81 18.9227C100.42 4.5827 93.55 1.1727 96.08 1.2827C98.62 1.3927 104.1 6.2327 103.45 21.2827C102.8 36.3227 92.16 25.7527 89.62 25.6427Z" fill="#FF0090"/>
<path d="M92.4402 28.5727C90.1802 27.4227 97.4102 28.8127 100.85 25.0227C110.98 13.8827 106.15 7.93275 108.41 9.08275C110.67 10.2327 113.65 16.9127 106.83 30.3327C100 43.7527 94.7002 29.7127 92.4402 28.5627V28.5727Z" fill="#FF0090"/>
<path d="M95.3401 30.9727C93.6101 29.1127 99.3901 31.6027 103.48 29.6627C115.48 23.9627 113.82 19.9227 115.55 21.7827C117.28 23.6427 117.41 29.0927 107.79 38.0227C98.1601 46.9627 97.0801 32.8327 95.3501 30.9727H95.3401Z" fill="#FF0090"/>
<path d="M78.25 26.9327C75.81 27.6327 82.18 24.2027 82.45 20.2527C83.25 8.6427 75.86 8.3327 78.3 7.6327C80.74 6.9327 87.16 8.6827 90.31 19.5727C93.46 30.4627 80.69 26.2327 78.25 26.9327Z" fill="#FF0090"/>
<path d="M136.08 49.3727C136.06 49.4527 135.91 48.9127 135.45 48.6927C133.26 47.6127 126.54 45.3727 123.38 44.8827C117.1 43.9127 111.05 48.4527 108.87 50.1827C108.17 50.7427 108.63 53.6127 108.83 54.9627C108.72 54.8527 108.6 54.7527 108.49 54.6427C108.39 54.5627 108.3 54.4627 108.2 54.3727C106.64 52.8427 106.9 51.2327 107.68 49.4627C108.38 47.8927 108.82 41.6227 108.85 41.2527C108.94 41.3827 110.99 44.4527 114.02 43.3627C118.32 41.8227 121.33 41.5327 124.5 42.1927C129.63 43.2627 133.43 46.5027 135.5 48.3027L135.58 48.3727C135.88 48.6327 136.05 48.9927 136.09 49.3727H136.08Z" fill="#6B78FF"/>
<path d="M33.1302 39.9227C31.9302 54.4427 40.5602 68.4027 55.5002 76.6127C75.0702 87.3727 98.7002 81.9527 108.29 64.5127C113.7 54.6627 108.99 37.6627 105.2 32.1227C101.42 26.5827 99.3702 23.5527 94.7702 20.6627C92.1902 19.0427 85.2302 15.8227 78.4502 17.9827C75.5502 18.9027 76.1202 17.4827 72.1502 13.3027C66.0902 6.91275 52.9802 8.46275 48.4102 16.5427C46.2702 20.3227 44.5702 24.5827 43.9802 28.3527C43.3702 29.9127 42.7302 31.3127 41.9302 32.4127C39.1502 36.2127 33.5002 35.4227 33.1302 39.9227Z" fill="#6B78FF"/>
<path d="M90.87 23.0127C93.41 23.7627 95.62 25.3327 97.09 27.5927C98.41 29.6127 99.66 32.8127 98.88 35.0027C98.7 35.5027 97.94 34.9827 97.83 34.0727C97.65 32.5027 96.42 29.7327 94.63 28.7927C92.99 27.9327 91.08 27.1727 89.35 26.6427C85.66 25.5127 88.97 22.4627 90.86 23.0127H90.87Z" fill="#1C30FF"/>
<path d="M65.8903 13.3827C63.8003 11.9727 61.3203 11.3427 58.8103 11.7327C56.5603 12.0727 53.5103 13.2527 52.4303 15.2827C52.1803 15.7427 53.0203 15.9827 53.7403 15.4527C54.9703 14.5527 57.6903 13.6427 59.4603 14.3627C61.0803 15.0227 62.7903 15.9527 64.2403 16.9027C67.3103 18.9227 67.4503 14.4327 65.8903 13.3727V13.3827Z" fill="#1C30FF"/>
<path d="M134.21 57.5927C132.87 58.0527 130.86 58.6627 128.64 59.1027C128.84 59.7627 129 60.3527 129.13 60.8527C129.35 61.6827 128.72 62.3527 127.92 62.5527C126.37 62.9527 123.37 63.8327 121.43 61.9227C118.18 58.7327 120.55 62.2427 120.02 63.3827C119.33 64.8527 115.65 63.8627 114.52 61.1727C113.86 59.6027 113.56 57.8727 108.83 54.9527C108.63 53.6027 108.17 50.7327 108.87 50.1727C111.05 48.4427 117.11 43.9027 123.38 44.8727C126.54 45.3527 133.26 47.6027 135.45 48.6827C135.91 48.9127 136.06 49.4427 136.08 49.3727C136.13 49.9227 135.91 50.5127 135.42 50.8727C134.81 51.3227 134.05 51.8627 133.18 52.4327C133.94 53.5627 134.57 54.5627 135.03 55.3327C135.53 56.1527 135.12 57.2827 134.22 57.5827L134.21 57.5927Z" fill="#828DFF"/>
<path d="M64.2104 32.8128C62.1604 38.0728 59.7904 40.2528 52.1304 37.2628C44.4704 34.2828 44.1904 31.0628 46.2404 25.8128C48.2904 20.5528 54.8704 15.5528 59.8304 17.4928C64.7904 19.4328 66.2604 27.5628 64.2104 32.8128Z" fill="#3647FF"/>
<path d="M64.03 32.7828C62.1 37.7528 59.85 39.8128 52.61 36.9928C45.37 34.1728 45.11 31.1328 47.04 26.1628C48.97 21.1928 55.2 16.4628 59.89 18.2928C64.58 20.1228 65.97 27.8128 64.03 32.7728V32.7828Z" fill="white"/>
<path d="M56.4349 36.2282C59.8931 34.708 61.4642 30.6721 59.944 27.2139C58.4237 23.7556 54.3879 22.1846 50.9297 23.7048C47.4714 25.225 45.9004 29.2609 47.4206 32.7191C48.9408 36.1773 52.9766 37.7484 56.4349 36.2282Z" fill="#E80083"/>
<path d="M59.0099 32.1027C57.8299 35.0427 54.4999 36.4827 51.5499 35.3027C48.6099 34.1227 47.1699 30.7927 48.3499 27.8427C49.5299 24.9027 52.8599 23.4627 55.8099 24.6427C58.7499 25.8227 60.1899 29.1527 59.0099 32.1027Z" fill="#00074D"/>
<path d="M52.1999 26.8428C52.5699 26.7828 52.9699 27.4028 53.0999 28.2228C53.2299 29.0428 53.0299 29.7528 52.6599 29.8128C52.2899 29.8728 51.8899 29.2528 51.7599 28.4328C51.6299 27.6128 51.8299 26.9028 52.1999 26.8428Z" fill="white"/>
<path d="M51.9001 24.8628C52.2701 24.8028 52.6101 25.0128 52.6601 25.3328C52.7101 25.6428 52.4501 25.9528 52.0801 26.0028C51.7101 26.0628 51.3701 25.8528 51.3201 25.5328C51.2701 25.2228 51.5301 24.9128 51.9001 24.8628Z" fill="white"/>
<path d="M73.9904 36.3027C70.1504 41.9627 69.6004 45.8327 77.8504 51.4327C86.1004 57.0327 89.5004 55.1027 93.3404 49.4427C97.1804 43.7827 97.6504 33.7727 92.3104 30.1427C86.9704 26.5127 77.8404 30.6427 73.9904 36.3027Z" fill="#3647FF"/>
<path d="M74.1503 36.4627C70.5203 41.8127 70.0003 45.4727 77.8003 50.7627C85.6003 56.0527 88.8103 54.2327 92.4403 48.8827C96.0703 43.5327 96.5203 34.0727 91.4603 30.6427C86.4103 27.2127 77.7803 31.1127 74.1403 36.4627H74.1503Z" fill="white"/>
<path d="M89.129 43.3398C89.5939 38.7794 86.2738 34.7057 81.7135 34.2409C77.1531 33.7761 73.0794 37.0961 72.6146 41.6565C72.1498 46.2168 75.4698 50.2905 80.0302 50.7553C84.5905 51.2202 88.6642 47.9001 89.129 43.3398Z" fill="#E80083"/>
<path d="M80.8704 49.5027C84.7419 49.5027 87.8803 46.3642 87.8803 42.4927C87.8803 38.6212 84.7419 35.4827 80.8704 35.4827C76.9988 35.4827 73.8604 38.6212 73.8604 42.4927C73.8604 46.3642 76.9988 49.5027 80.8704 49.5027Z" fill="#00074D"/>
<path d="M79.8004 38.0127C79.4404 37.9327 79.0204 38.5127 78.8504 39.3027C78.6804 40.0927 78.8304 40.7927 79.1804 40.8727C79.5404 40.9527 79.9604 40.3728 80.1304 39.5828C80.3004 38.7928 80.1504 38.0927 79.8004 38.0127Z" fill="white"/>
<path d="M80.2101 36.1127C79.8501 36.0327 79.5101 36.2227 79.4501 36.5227C79.3801 36.8227 79.6202 37.1327 79.9702 37.2127C80.3302 37.2927 80.6702 37.1027 80.7302 36.8027C80.8002 36.5027 80.5601 36.1927 80.2101 36.1127Z" fill="white"/>
<path d="M30.3602 40.6528C32.4702 33.0028 53.2402 31.4328 64.1602 37.5528C73.7702 42.9428 83.9802 56.6528 88.5702 59.1628C93.7402 61.9928 78.0402 84.8428 59.1202 82.3028C54.2402 81.6528 46.3302 78.8328 38.1102 68.5528C27.8202 55.6828 28.2602 48.3028 30.3602 40.6528Z" fill="#6B78FF"/>
<mask id="mask4_20_8277" style="mask-type:luminance" maskUnits="userSpaceOnUse" x="29" y="33" width="61" height="50">
<path d="M30.3602 40.6528C32.4702 33.0028 53.2402 31.4328 64.1602 37.5528C73.7702 42.9428 83.9802 56.6528 88.5702 59.1628C93.7402 61.9928 78.0402 84.8428 59.1202 82.3028C54.2402 81.6528 46.3302 78.8328 38.1102 68.5528C27.8202 55.6828 28.2602 48.3028 30.3602 40.6528Z" fill="white"/>
</mask>
<g mask="url(#mask4_20_8277)">
<path d="M76.4303 46.0628C77.0603 41.9928 71.4803 39.3528 68.6903 37.5428C64.8803 35.0728 60.8403 32.9728 56.5503 31.4528C53.8103 30.4828 40.7903 27.4828 36.7003 30.5128C34.3103 30.2728 32.6803 33.7928 35.2103 34.9728C36.7803 35.7028 38.0703 37.5328 39.1503 38.8228C40.4003 40.3228 42.4903 42.2328 44.2503 43.0228C48.0803 44.7328 51.0603 44.8728 55.1903 45.3928C59.5803 45.9428 63.7203 46.6728 67.9103 48.1328C70.8203 49.1528 75.7303 50.5628 76.4203 46.0628H76.4303Z" fill="#828DFF"/>
<path d="M55.5105 50.6228C55.5905 50.2028 55.4605 48.8628 54.1305 48.2628C52.8005 47.6628 52.0005 48.3028 51.3005 48.8528C50.8905 49.1728 51.9905 49.6728 52.5305 49.6628H52.5705C52.5705 49.6628 52.6705 49.6828 52.7205 49.7028C52.8905 49.7828 52.5905 50.6528 52.6005 50.8828C52.6205 51.1128 52.9805 51.9528 54.0305 52.0428C55.2905 52.1528 55.4605 50.8828 55.5105 50.6228Z" fill="#99A2FF"/>
<path d="M41.3901 43.0527C41.3501 42.3927 40.8801 41.8027 40.3901 41.5027C39.9001 41.2127 39.3901 41.0027 38.9001 41.0427C38.5801 41.0627 37.8301 41.0327 37.2701 41.7927C37.0001 42.1627 36.6901 42.6927 36.9901 43.0327C38.4601 44.6627 40.3401 44.0527 40.5701 44.0127C41.0301 43.9427 41.4201 43.5227 41.3901 43.0427V43.0527Z" fill="#99A2FF"/>
<path d="M91.1901 58.8027C89.3601 58.5027 87.8401 57.1427 86.4701 55.9727C85.0001 54.7127 83.6301 53.3427 82.2801 51.9527C79.6901 49.2627 77.1801 46.4827 74.3301 44.0627C68.9101 39.4627 62.6001 35.8627 55.7501 33.8827C51.9401 32.7827 47.9701 32.2227 44.0001 32.2627C42.7601 32.2727 42.8101 34.2027 44.0501 34.1927C51.0201 34.1227 57.8701 36.0527 63.9901 39.3227C67.0801 40.9727 69.9801 42.9427 72.6601 45.1827C75.5201 47.5827 78.0401 50.3227 80.6101 53.0127C82.0801 54.5427 83.5801 56.0527 85.1901 57.4327C86.7901 58.7927 88.5801 60.3327 90.7201 60.6827C91.9401 60.8827 92.4001 59.0027 91.1701 58.8027H91.1901Z" fill="#1C30FF"/>
<path d="M62.6905 79.3328C58.8005 79.5428 55.4005 77.3028 55.2305 77.4428C55.0305 77.6128 58.4705 80.3528 62.8605 80.2728C66.5405 80.2128 69.6205 77.4528 69.4605 77.2428C69.3305 77.0728 66.3405 79.1228 62.6905 79.3228V79.3328Z" fill="#1C30FF"/>
<path d="M40.0601 35.4428C39.5801 35.3928 39.5701 36.4928 40.8201 38.4528C42.0801 40.4128 43.8801 41.9928 48.0801 42.4928C48.6001 42.5528 54.9601 43.2928 54.6801 42.1128C54.5301 41.5028 49.2501 40.0828 45.6801 38.5028C42.4101 37.0428 41.5601 35.6028 40.0501 35.4428H40.0601Z" fill="#919BFF"/>
</g>
<path d="M72.4203 72.5727C71.5303 73.2627 70.7003 73.8927 69.9203 74.4427C66.3803 76.4927 64.0503 77.7627 60.1003 77.1727C59.7803 77.1227 59.4403 77.0627 59.1003 76.9827C54.6403 76.0227 51.7703 72.3227 49.8803 70.3527C49.2603 69.7127 49.8703 68.6927 50.7403 68.8827H50.7803C51.4303 69.0027 55.5503 70.4327 60.8003 71.2127C61.6703 71.3427 62.5703 71.4527 63.5003 71.5327C66.2303 71.7827 69.1303 71.7927 71.9303 71.3127C72.0503 71.2927 72.1503 71.2927 72.2503 71.3127C72.5103 71.3627 72.7003 71.5027 72.8303 71.7027L72.8603 71.7527L72.9003 71.8827C72.9703 72.2027 72.8503 72.2627 72.4403 72.5827L72.4203 72.5727Z" fill="#00074D"/>
<path d="M63.48 71.5328C63.42 71.7528 63.25 72.2128 62.96 72.5728C62.72 72.8528 62.36 73.1628 62.11 73.3628C61.95 73.4928 61.72 73.4528 61.6 73.2928C61.42 73.0528 61.18 72.6828 61.02 72.3428C60.83 71.9228 60.79 71.4628 60.79 71.2128C61.66 71.3428 62.57 71.4528 63.49 71.5328H63.48Z" fill="white"/>
<path d="M57.7403 70.7627C57.6403 70.9627 57.4003 71.3927 57.0503 71.7027C56.7703 71.9427 56.3603 72.1827 56.0803 72.3427C55.9003 72.4427 55.6803 72.3727 55.5903 72.1927C55.4603 71.9227 55.2703 71.5227 55.1703 71.1527C55.0503 70.7127 55.0903 70.2427 55.1303 70.0027C55.9703 70.2827 56.8403 70.5327 57.7303 70.7727L57.7403 70.7627Z" fill="white"/>
<path d="M72.4801 72.6528C68.2101 75.7028 65.2201 78.5428 59.5201 77.4228C55.4101 76.8728 52.4601 73.6328 49.9901 70.6128C49.8301 70.4228 49.6101 70.2028 49.5801 69.9128C49.4901 69.3528 49.9801 68.8028 50.5301 68.8428C56.6101 70.2128 62.8201 71.2928 69.0701 71.2928C69.9801 71.2928 70.8901 71.2328 71.7901 71.1328C72.0801 71.0828 72.4201 71.1228 72.6701 71.3228C72.8801 71.4928 73.0101 71.7428 73.0101 72.0028C73.0201 72.3328 72.6701 72.5028 72.4601 72.6528H72.4801ZM72.3601 72.5028C72.5201 72.3428 72.7701 72.2428 72.7601 72.0128C72.7301 71.7528 72.5301 71.5128 72.2001 71.4928C71.9301 71.4728 71.0401 71.7028 70.6901 71.7428C67.0301 72.4128 63.2601 72.1928 59.6201 71.4828C57.0501 70.9628 54.5001 70.1628 52.0201 69.3228C51.6101 69.2028 50.9501 68.9028 50.5201 68.8828C49.9901 68.8528 49.5501 69.4028 49.6701 69.8928C49.7101 70.1428 49.9101 70.3028 50.1001 70.4928C52.4501 72.8828 54.9501 75.2628 58.1601 76.3528C63.8901 78.2028 67.9601 76.1928 72.3501 72.5028H72.3601Z" fill="#1C30FF"/>
<path d="M49.51 50.8328C49.11 50.8628 48.89 50.3528 49.21 50.0928C50.29 49.1928 52.08 48.0728 53.34 49.2028C55.25 50.9328 54.1 51.8128 53.22 51.4128C52.48 51.0828 51.51 50.6828 49.51 50.8328Z" fill="#00074D"/>
<path d="M40.2804 46.1627C40.4504 46.5027 40.9604 46.3927 41.0204 46.0027C41.2404 44.6227 41.3004 42.5527 39.7904 42.1727C37.4904 41.5827 37.3204 43.0027 38.0604 43.4927C38.6804 43.9027 39.4604 44.4727 40.2804 46.1627Z" fill="#00074D"/>
<path d="M54.9201 48.0327C57.0901 48.3427 57.6501 51.0227 56.0801 52.3327C55.6201 52.7327 54.9901 52.9627 54.3901 52.8627C56.5801 52.0827 57.1201 49.2727 54.9201 48.0327Z" fill="#1C30FF"/>
<path d="M39.7501 40.7727C38.3401 39.2727 35.9601 40.3627 35.8101 42.3127C35.7601 42.8927 35.9201 43.5227 36.3201 43.9227C35.7301 41.7927 37.6101 39.7727 39.7601 40.7727H39.7501Z" fill="#1C30FF"/>
<path d="M82.38 62.2227C80.09 63.1627 79.8 61.1427 77.76 57.9427C75.84 54.9327 74.01 53.7227 74.54 52.8927C75.47 51.4427 77.66 52.8227 80.14 55.3927C82.62 57.9627 83.97 61.5527 82.38 62.2127V62.2227Z" fill="#828DFF"/>
<path d="M122.82 48.0427C124.54 48.5627 129.63 49.9927 131.89 51.4427C134.1 52.8527 135.28 55.3427 135.09 55.4927C134.77 55.7427 133.2 51.1727 123.94 49.2327C120.81 48.5827 114.74 48.0327 112.3 47.9927C111.79 47.9927 111.41 48.3927 111.42 48.3227C111.5 47.9727 111.63 47.8327 112.12 47.7027C114.45 47.0927 120.07 47.2127 122.82 48.0427Z" fill="#6E7BFF"/>
<path d="M119.48 52.3528C121.01 53.0428 125.32 55.1428 127.06 56.9628C128.76 58.7328 129.32 61.3328 129.12 61.4328C128.78 61.6028 129.54 57.4828 120.34 53.3028C117.65 52.0828 112.29 50.3628 110.1 49.8428C109.64 49.7328 109.13 49.9228 109.16 49.8528C109.3 49.5428 109.33 49.5328 109.79 49.5328C111.37 49.5128 117.24 51.3428 119.47 52.3528H119.48Z" fill="#6E7BFF"/>
<path d="M136.08 49.3727C136.06 49.4527 135.91 48.9127 135.45 48.6927C133.26 47.6127 126.54 45.3727 123.38 44.8827C117.1 43.9127 111.03 48.4327 108.87 50.1827C108.35 50.6027 108.58 52.9827 108.77 54.3327C108.84 54.7427 108.87 55.0127 108.85 55.0327C108.74 55.1127 108.58 54.6727 108.43 54.0127C108.15 52.8227 107.95 51.5527 107.96 50.7727C107.98 49.5627 114.15 45.4527 115.86 44.8427C119.57 43.5127 123.22 43.5727 124.94 44.0927C127.58 44.8827 133.43 46.7427 135.5 48.3127C135.59 48.3927 135.67 48.4527 135.75 48.5227C136.12 48.8527 136.18 49.0427 136.09 49.3827L136.08 49.3727Z" fill="#1C30FF"/>
<path d="M73.33 71.6827C70.91 70.1227 70.75 67.6427 70.53 67.6327C70.28 67.6327 70.07 70.3427 72.67 72.1827C74.84 73.7227 78.84 73.7627 78.91 73.6027C78.97 73.4727 75.6 73.1427 73.33 71.6827Z" fill="#1C30FF"/>
<path d="M81.9904 1.58271C81.9904 1.58271 85.7704 2.61271 88.8704 5.31271C91.7604 7.83271 93.8604 11.9427 94.0904 14.3827C94.4404 18.1227 92.5304 18.2727 91.7404 17.6727C89.6304 16.0927 91.9604 10.3327 86.7604 5.77271C83.3004 2.74271 79.0304 0.852709 81.9904 1.58271Z" fill="#FF87CB"/>
<path d="M100.32 7.29272C101.05 7.52272 101.65 11.0027 101.51 14.9327C101.36 19.0727 100.8 20.1727 99.3103 19.6327C97.3803 18.9327 98.5303 17.5627 99.3503 14.5227C100.03 11.9727 99.5903 7.06272 100.32 7.29272Z" fill="#FF87CB"/>
<path d="M73.8999 134.433C72.0299 134.803 67.2599 131.293 67.2599 131.293C67.2599 131.293 66.8099 129.763 69.4299 128.913C69.4299 128.913 69.6099 128.913 69.9099 128.953C71.1099 129.093 74.2299 129.783 74.6299 133.033C74.7399 133.923 74.4399 134.343 73.9099 134.433" fill="#293CFF"/>
<path d="M73.8998 134.433C71.7798 134.163 67.8598 131.283 67.8598 131.283C67.8598 131.283 67.4198 129.803 69.8998 128.953C70.3398 129.003 71.0398 129.123 71.7698 129.433C73.0298 129.943 74.3698 130.983 74.6198 133.033C74.7098 133.763 74.5198 134.183 74.1498 134.363C74.0698 134.403 73.9898 134.433 73.8998 134.443" fill="#4F5FFF"/>
<path d="M71.7701 129.433C73.0301 129.943 74.3701 130.983 74.6201 133.033C74.6201 133.093 74.6301 133.153 74.6401 133.203C74.0501 133.273 73.4801 133.343 72.9301 133.403C71.9301 132.583 70.7601 131.503 70.2901 130.603C70.2001 130.123 70.4201 129.743 71.1201 129.543C71.3501 129.483 71.5701 129.433 71.7801 129.423" fill="#7B87FF"/>
<path d="M56.7698 125.033C56.7698 125.033 54.5098 125.223 52.5198 125.043C51.4098 124.943 50.3698 124.733 49.8798 124.303L49.8398 124.273C49.7698 124.223 49.7298 124.163 49.6798 124.093L49.6398 124.013C49.5998 123.913 49.5698 123.803 49.5698 123.693C49.5698 123.473 49.6598 123.213 49.8698 122.923C49.8998 122.883 49.9298 122.833 49.9698 122.793C50.3898 122.273 50.8398 121.913 51.3098 121.663C51.5498 121.533 51.7998 121.443 52.0398 121.373C52.1398 121.343 52.2398 121.323 52.3398 121.303C52.4898 121.283 52.6398 121.253 52.7798 121.243C52.8698 121.243 52.9598 121.223 53.0498 121.223C53.1398 121.223 53.2198 121.223 53.2998 121.223C53.5598 121.223 53.8098 121.253 54.0498 121.293L54.1498 121.313C54.5898 121.393 54.9698 121.513 55.2998 121.623C55.4898 121.703 55.6598 121.763 55.7998 121.833C56.0598 121.943 56.1998 122.033 56.1998 122.033C57.8998 124.013 56.7698 125.033 56.7698 125.033Z" fill="#293CFF"/>
<path d="M56.28 124.723C56.28 124.723 54.12 124.903 52.16 124.753C51.29 124.683 50.45 124.543 49.87 124.293L49.83 124.273C49.76 124.223 49.72 124.163 49.67 124.093L49.63 124.013C49.58 123.913 49.55 123.813 49.56 123.693C49.56 123.473 49.65 123.213 49.86 122.923C49.89 122.883 49.92 122.833 49.96 122.793C50.38 122.273 50.83 121.913 51.3 121.663C51.54 121.533 51.79 121.443 52.03 121.373C52.13 121.343 52.23 121.323 52.33 121.303C52.48 121.283 52.63 121.253 52.77 121.243C52.86 121.243 52.95 121.223 53.04 121.223C53.13 121.223 53.21 121.223 53.29 121.223C53.55 121.223 53.8 121.253 54.04 121.293L54.14 121.313C54.58 121.383 54.97 121.503 55.29 121.623C55.48 121.703 55.65 121.763 55.79 121.833C57.37 123.743 56.28 124.723 56.28 124.723Z" fill="#4F5FFF"/>
<path d="M54.0499 121.283C54.2099 121.393 54.3699 121.543 54.5199 121.713C54.9899 122.213 54.9799 122.643 54.6599 122.973C53.8299 123.463 52.3499 123.753 51.1399 123.923C50.8899 123.723 50.6399 123.533 50.3899 123.333C50.2099 123.193 50.0399 123.053 49.8599 122.903C49.8899 122.863 49.9199 122.813 49.9599 122.773C50.3799 122.253 50.8299 121.893 51.2999 121.643C51.5399 121.513 51.7899 121.423 52.0299 121.353C52.1299 121.323 52.2299 121.303 52.3299 121.283C52.4799 121.263 52.6299 121.233 52.7699 121.223C52.8599 121.223 52.9499 121.203 53.0399 121.203C53.1299 121.203 53.2099 121.203 53.2899 121.203C53.3499 121.203 53.3999 121.203 53.4599 121.203C53.6599 121.213 53.8499 121.233 54.0399 121.273L54.0499 121.283Z" fill="#7B87FF"/>
<path d="M42.5 129.953C42.22 130.993 42.05 132.223 42.32 133.503C42.43 134.053 42.62 134.603 42.91 135.143C43.48 136.213 44.57 136.933 45.77 137.103C45.77 137.103 45.78 137.103 45.79 137.103H45.8C45.86 137.103 45.92 137.123 45.98 137.133C46.44 137.183 46.87 137.183 47.31 137.133C47.41 137.133 47.51 137.113 47.62 137.093C48.33 136.983 48.97 136.823 49.57 136.623C49.98 136.473 50.35 136.323 50.71 136.143C50.82 136.083 50.93 136.023 51.04 135.973H51.05C51.53 135.713 51.93 135.413 52.32 135.093C52.9 134.573 53.38 134.023 53.76 133.433C53.76 133.433 53.76 133.413 53.77 133.433C53.93 133.153 54.08 132.893 54.21 132.613C54.26 132.503 54.31 132.393 54.36 132.283C54.58 131.763 54.73 131.233 54.83 130.703C55.03 129.643 54.98 128.633 54.76 127.823C54.71 127.603 54.64 127.393 54.56 127.213C54.3 126.653 53.54 125.903 52.51 125.043C52.4 124.953 52.28 124.843 52.16 124.753C51.84 124.483 51.49 124.203 51.14 123.923C50.9 123.723 50.64 123.533 50.39 123.323C50.22 123.193 50.04 123.043 49.86 122.903C49.01 122.873 48.16 123.083 47.37 123.463C47.37 123.463 47.36 123.469 47.34 123.483C46.85 123.723 46.37 124.023 45.92 124.373C44.83 125.253 43.94 126.433 43.39 127.663C43.18 128.123 42.79 128.943 42.51 129.953H42.5Z" fill="#4F5FFF"/>
<path d="M42.5 129.953C42.22 130.993 42.05 132.223 42.32 133.503C42.75 133.803 43.36 134.003 44.19 134.043C45.65 134.123 46.77 133.433 47.92 132.533C50.31 130.653 52.46 127.473 50.57 124.693L50.55 124.663L50.53 124.643C50.48 124.583 50.44 124.523 50.38 124.453C50.26 124.293 50.14 124.163 50.01 124.043H50C49.87 123.923 49.73 123.823 49.58 123.723H49.57C48.91 123.323 48.16 123.283 47.41 123.453C47.4 123.453 47.38 123.453 47.37 123.453C47.37 123.453 47.36 123.459 47.34 123.473C46.85 123.713 46.37 124.013 45.92 124.363C44.83 125.243 43.94 126.423 43.39 127.653C43.18 128.113 42.79 128.933 42.51 129.943L42.5 129.953Z" fill="#6B78FF"/>
<path d="M43.38 127.663C43.17 128.123 42.78 128.943 42.5 129.953C43.29 130.093 44.31 129.833 44.82 129.333C45.49 128.663 46.48 126.653 46.18 125.103C46.12 124.853 46.04 124.613 45.91 124.393C44.82 125.263 43.93 126.443 43.38 127.673V127.663Z" fill="#8892FF"/>
<path d="M52.16 128.343C51.95 130.143 55.62 134.393 55.62 134.393C55.62 134.393 57.1 134.703 57.71 132.163C57.71 132.163 57.69 131.993 57.64 131.713C57.42 130.583 56.54 127.683 53.44 127.553C52.59 127.513 52.22 127.823 52.17 128.333L52.16 128.343Z" fill="#293CFF"/>
<path d="M52.1602 128.343C52.5702 130.333 55.5802 133.823 55.5802 133.823C55.5802 133.823 57.0102 134.123 57.6402 131.723C57.5602 131.313 57.3902 130.653 57.0502 129.993C56.4802 128.843 55.4002 127.643 53.4402 127.563C52.7402 127.533 52.3602 127.743 52.2202 128.103C52.1902 128.183 52.1702 128.263 52.1702 128.343H52.1602Z" fill="#4F5FFF"/>
<path d="M54.4002 127.703C55.7602 128.063 56.5802 129.043 57.0502 129.993C57.0502 130.193 57.0302 130.403 56.9902 130.623C56.8502 131.293 56.5102 131.533 56.0502 131.483C54.7502 130.923 52.9502 128.943 52.2202 128.103C52.3602 127.743 52.7402 127.533 53.4402 127.563C53.7902 127.583 54.1102 127.633 54.4002 127.703Z" fill="#7B87FF"/>
<path d="M48.61 132.363C48.34 133.923 51.84 137.513 52.71 138.153C53.61 138.823 55.88 137.403 55.47 135.843C55.45 135.703 55.39 135.573 55.31 135.433C53.62 132.473 50.47 130.793 48.92 131.873C48.74 131.993 48.64 132.173 48.61 132.363Z" fill="#293CFF"/>
<path d="M48.6099 132.363C49.0499 134.093 51.8899 136.973 52.6699 137.553C53.4499 138.133 55.2699 137.133 55.4699 135.843C55.4499 135.703 55.3899 135.573 55.3099 135.433C54.9899 134.863 54.6099 134.353 54.2099 133.903C52.5199 131.993 50.2899 131.053 49.0199 131.813L48.9199 131.873C48.7399 131.993 48.6399 132.173 48.6099 132.363Z" fill="#4F5FFF"/>
<path d="M50.9 131.663C51.98 131.953 53.19 132.753 54.21 133.903C54.32 134.523 54.2 135.063 53.83 135.443C53.71 135.573 53.54 135.653 53.36 135.663C51.85 135.163 49.53 132.643 49.09 131.973C49.05 131.923 49.03 131.863 49.02 131.813C49.53 131.513 50.19 131.483 50.9 131.673V131.663Z" fill="#7B87FF"/>
<path d="M45.6702 136.253C45.6402 137.243 46.2202 138.403 47.6202 139.563C48.8902 140.613 50.7002 138.743 50.3002 137.803L50.2802 137.763C49.8102 136.833 47.4702 133.553 46.3402 134.703C45.9202 135.133 45.6802 135.663 45.6602 136.263L45.6702 136.253Z" fill="#293CFF"/>
<path d="M45.6699 136.253C45.8199 137.123 46.4199 138.083 47.5899 139.043C48.6499 139.923 50.1099 138.743 50.2999 137.793L50.2799 137.753C50.1499 137.503 49.8999 137.093 49.5599 136.633C48.6499 135.383 47.1699 133.843 46.3499 134.693C46.2099 134.833 46.0899 134.993 45.9999 135.163C45.7899 135.483 45.6799 135.863 45.6699 136.253Z" fill="#4F5FFF"/>
<path d="M47.1803 134.493C47.9703 134.703 48.9103 135.743 49.5603 136.643C49.6003 137.013 49.4803 137.303 49.1303 137.423C48.7203 137.553 48.2903 137.573 47.8603 137.463C47.7803 137.443 47.7103 137.423 47.6403 137.393C47.0003 137.013 46.4203 136.283 46.0103 135.183C46.1003 135.013 46.2203 134.853 46.3603 134.713C46.5903 134.473 46.8803 134.423 47.1903 134.513L47.1803 134.493Z" fill="#7B87FF"/>
<path d="M92.6402 148.623C86.5502 150.063 69.7502 151.613 65.1702 145.683C60.5902 139.753 64.2802 134.233 67.0502 133.083C69.8302 131.923 84.4902 135.913 87.3902 131.853C89.7402 128.553 88.1902 121.953 87.2402 115.143C86.6702 111.053 85.6902 107.553 86.4102 104.833C88.4602 97.0527 97.5902 98.2327 99.9502 102.743C100.59 103.953 101.14 105.453 101.6 107.173C103.31 113.463 103.8 122.613 102.52 130.693C100.72 142.003 98.7202 147.183 92.6402 148.623Z" fill="#4F5FFF"/>
<path d="M94.6901 146.603C89.0301 149.273 75.3301 149.963 72.9201 147.783C65.9901 141.493 70.1801 136.633 72.7401 135.043C75.2901 133.453 87.1501 136.663 88.9801 132.013C91.5701 125.433 87.7301 114.973 86.7001 107.483C86.4001 105.313 87.0401 103.273 87.8501 101.623C90.1201 97.0227 93.8701 90.6227 99.9501 102.733C100.56 103.953 101.14 105.443 101.6 107.163C102.73 112.453 102.94 119.023 102.42 125.413C101.57 135.903 98.2301 144.923 94.6801 146.593" fill="#6B78FF"/>
<path d="M100.56 103.813C102.59 108.953 103.5 117.363 102.68 120.483C102.53 121.043 102.41 111.353 100.04 104.373C97.12 95.7727 93.73 96.0727 93.73 96.0727C93.73 96.0727 96.94 94.6027 100.57 103.803L100.56 103.813Z" fill="#B3B9FF"/>
<path d="M97.04 140.453C97.04 140.453 97.12 140.483 97.14 140.503C98.77 141.713 94.47 147.073 78.63 147.023C77.41 147.023 76.39 146.903 75.57 146.703C73.26 146.123 72.43 144.823 72.82 143.113C73.34 140.793 81.92 142.203 87.17 142.473C90.81 142.653 96.03 140.213 97.04 140.463" fill="#7884FF"/>
<path d="M68.08 135.683C66.93 137.213 61.04 137.783 61.04 137.783C61.04 137.783 59.68 136.943 61.07 134.563C61.07 134.563 61.21 134.443 61.45 134.273C62.44 133.573 65.22 132.003 67.68 134.153C68.35 134.743 68.41 135.253 68.08 135.673" fill="#293CFF"/>
<path d="M68.0801 135.683C66.3201 136.903 61.48 137.373 61.48 137.373C61.48 137.373 60.16 136.563 61.44 134.273C61.8 134.013 62.4001 133.633 63.1501 133.383C64.4301 132.923 66.12 132.793 67.68 134.163C68.24 134.643 68.3801 135.083 68.2201 135.463C68.1801 135.543 68.1401 135.623 68.0801 135.683Z" fill="#4F5FFF"/>
<path d="M65.8599 133.193C66.4599 133.343 67.0799 133.643 67.6699 134.163C68.1699 134.593 68.3299 134.993 68.2499 135.343C68.2499 135.383 68.2299 135.423 68.2099 135.463C67.1499 135.563 64.6899 135.743 63.2099 135.373C63.0699 135.343 62.9499 135.303 62.8299 135.253C62.4399 134.963 62.3499 134.523 62.7299 133.913C62.8599 133.713 62.9899 133.533 63.1399 133.383C63.9299 133.103 64.8799 132.943 65.8599 133.183" fill="#7B87FF"/>
<path d="M67.8601 141.343C66.9301 142.723 61.6501 142.923 60.5201 142.773C59.3401 142.633 58.6501 139.893 60.1001 139.003C60.2201 138.913 60.3601 138.853 60.5101 138.803C63.9601 137.773 67.5801 138.793 67.9801 140.733C68.0301 140.953 67.9801 141.163 67.8601 141.333" fill="#293CFF"/>
<path d="M67.8601 141.343C66.2601 142.343 62.0001 142.473 60.9901 142.343C59.9701 142.223 59.3101 140.133 60.1001 139.003C60.2201 138.913 60.3601 138.853 60.5101 138.803C61.1701 138.603 61.8301 138.493 62.4701 138.433C65.1501 138.203 67.5401 139.113 67.9601 140.613L67.9901 140.733C68.0401 140.953 67.9901 141.163 67.8701 141.333" fill="#4F5FFF"/>
<path d="M65.2904 138.633C66.6704 138.973 67.6904 139.683 67.9504 140.613C67.9004 140.643 67.8404 140.673 67.7804 140.683C67.0604 140.853 64.2304 141.053 62.5104 140.623C62.2604 140.563 62.0304 140.483 61.8304 140.393C61.7004 140.263 61.6304 140.073 61.6304 139.883C61.6304 139.323 61.9304 138.823 62.4604 138.433C63.4704 138.343 64.4504 138.423 65.2904 138.633Z" fill="#7B87FF"/>
<path d="M67.26 146.453C66.56 147.233 65.28 147.693 63.36 147.553C61.63 147.423 61.6 144.693 62.6 144.253L62.64 144.233C63.67 143.863 67.85 143.073 67.87 144.763C67.88 145.393 67.67 145.983 67.25 146.443" fill="#293CFF"/>
<path d="M67.2603 146.453C66.5203 147.003 65.3603 147.303 63.7603 147.193C62.3103 147.093 62.0503 145.133 62.6003 144.263L62.6403 144.243C62.9203 144.143 63.4103 144.013 64.0103 143.913C65.6203 143.623 67.8603 143.523 67.8803 144.773C67.8803 144.983 67.8603 145.193 67.8003 145.383C67.7303 145.783 67.5403 146.153 67.2603 146.453Z" fill="#4F5FFF"/>
<path d="M66.9399 143.833C67.4999 143.973 67.8799 144.253 67.8799 144.763C67.8799 144.943 67.8699 145.123 67.8299 145.293C67.8299 145.323 67.8199 145.353 67.8099 145.373C66.6899 145.923 65.7199 146.043 64.9499 145.873C64.4399 145.653 64.0399 145.283 63.7799 144.813C63.5999 144.463 63.7099 144.163 64.0099 143.903C64.9599 143.733 66.1299 143.623 66.9299 143.823" fill="#7B87FF"/>
</svg>
