<svg width="155" height="228" viewBox="0 0 155 228" fill="none" xmlns="http://www.w3.org/2000/svg">
<g style="mix-blend-mode:multiply" opacity="0.41">
<path d="M0.0100011 215.069C0.0100011 211.398 30.0734 208.428 67.1476 208.428C82.6894 208.428 98.4112 211.868 112.283 212.748C131.515 213.958 146.527 212.938 146.527 215.069C146.527 218.739 103.732 228 66.6476 228C55.0463 228 54.2462 223.639 44.7951 222.279C24.0227 219.299 0 217.589 0 215.069H0.0100011Z" fill="#4A55C4"/>
</g>
<g style="mix-blend-mode:multiply" opacity="0.41">
<path d="M68.4433 215.087C77.3066 214.847 79.7532 214.914 79.6497 216.721C79.3788 221.45 66.3888 221.62 62.42 221.695C55.9819 221.821 50.9778 219.499 54.3439 217.977C55.9596 217.247 60.4951 216.076 68.4433 215.087Z" fill="#4A55C4"/>
</g>
<path d="M40.3841 68.4211C38.8741 67.5611 37.6641 62.3011 37.6641 62.3011C37.6641 62.3011 38.2641 60.9711 40.5841 61.9511C40.5841 61.9511 40.7041 62.0611 40.8841 62.2611C41.6341 63.0711 43.3741 65.4011 41.7141 67.8811C41.2641 68.5611 40.8041 68.6711 40.3841 68.4211Z" fill="#7B87FF"/>
<path d="M40.3845 68.421C39.0745 66.971 38.0845 62.661 38.0845 62.661C38.0845 62.661 38.6645 61.381 40.8845 62.261C41.1645 62.561 41.5745 63.061 41.8945 63.701C42.4545 64.801 42.7745 66.311 41.7245 67.881C41.3545 68.441 40.9745 68.621 40.6145 68.521C40.5345 68.501 40.4645 68.471 40.3945 68.421" fill="#4F5FFF"/>
<path d="M35.7833 67.5412C34.1933 68.2612 29.2233 66.1512 29.2233 66.1512C29.2233 66.1512 28.5033 64.8912 30.6533 63.5812C30.6533 63.5812 30.8133 63.5412 31.0833 63.5212C32.1833 63.3912 35.0933 63.3512 36.1233 66.1412C36.4033 66.9012 36.2333 67.3412 35.7833 67.5312" fill="#7B87FF"/>
<path d="M35.7833 67.5415C33.8433 67.7515 29.7633 66.0215 29.7633 66.0215C29.7633 66.0215 29.0633 64.8015 31.0833 63.5215C31.4833 63.4715 32.1333 63.4315 32.8433 63.5515C34.0633 63.7415 35.4733 64.3715 36.1333 66.1415C36.3633 66.7715 36.2933 67.1815 35.9933 67.4115C35.9333 67.4615 35.8633 67.5015 35.7833 67.5315" fill="#4F5FFF"/>
<path opacity="0.45" d="M35.7536 66.1614C35.9636 66.7214 35.7336 67.4814 35.5136 67.7214C35.4836 67.7514 35.4636 67.7714 35.4336 67.8014C34.5336 67.4214 32.4736 66.5614 31.4536 65.6214C31.3636 65.5314 30.8336 64.9714 30.9836 64.6414C31.1336 64.3114 31.2636 64.0514 32.2836 63.9314C33.3036 63.8114 35.5036 65.4814 35.7536 66.1614Z" fill="#FF0090"/>
<path d="M33.143 71.9619C31.793 72.6619 27.483 70.5219 26.643 69.9119C25.763 69.2819 26.403 66.7919 27.953 66.7119C28.083 66.6919 28.223 66.7119 28.363 66.7319C31.573 67.4119 34.033 69.8019 33.503 71.5319C33.443 71.7319 33.313 71.8719 33.143 71.9619Z" fill="#7B87FF"/>
<path d="M33.143 71.9619C31.433 72.0619 27.953 70.3119 27.203 69.7719C26.443 69.2219 26.823 67.2719 27.953 66.7119C28.083 66.6919 28.223 66.7119 28.363 66.7319C28.973 66.8619 29.553 67.0519 30.093 67.2919C32.343 68.2719 33.853 70.0419 33.533 71.4319L33.503 71.5419C33.443 71.7419 33.313 71.8819 33.143 71.9719" fill="#4F5FFF"/>
<path opacity="0.45" d="M31.4933 68.3919C32.4433 69.2719 32.7633 70.7619 32.5733 71.6219C32.5233 71.6219 32.4633 71.6219 32.4033 71.6019C31.7533 71.4219 29.3933 70.5519 28.2033 69.4619C28.0233 69.3019 27.5033 68.7919 27.6533 68.2419C27.8033 67.6919 28.4433 67.4319 29.1333 67.4919C29.8233 67.5519 31.4933 68.4019 31.4933 68.4019V68.3919Z" fill="#FF0090"/>
<path d="M30.433 75.7922C29.533 76.1122 28.303 75.9222 26.833 74.9722C25.503 74.1122 26.673 71.9122 27.663 72.0022H27.703C28.693 72.1622 32.383 73.3422 31.663 74.7122C31.393 75.2222 30.973 75.6022 30.433 75.7922Z" fill="#7B87FF"/>
<path d="M30.4332 75.7924C29.5932 75.9124 28.5332 75.6424 27.3132 74.8524C26.1932 74.1324 26.8432 72.4624 27.6632 72.0024H27.7032C27.9732 72.0424 28.4232 72.1624 28.9432 72.3424C30.3532 72.8124 32.1932 73.7124 31.6632 74.7124C31.5732 74.8824 31.4732 75.0424 31.3332 75.1724C31.1032 75.4624 30.7932 75.6724 30.4332 75.7924Z" fill="#4F5FFF"/>
<path opacity="0.45" d="M31.0432 72.9623C31.5032 73.2123 31.7532 73.5823 31.6032 74.1123C31.5532 74.3023 31.4832 74.4823 31.3932 74.6523C31.3832 74.6823 31.3632 74.7123 31.3432 74.7323C30.1532 75.0923 29.7632 75.1223 28.7532 74.8623C27.7432 74.6023 26.7732 73.2323 28.1032 72.6123C28.5432 72.4023 30.3832 72.6023 31.0432 72.9623Z" fill="#FF0090"/>
<path opacity="0.45" d="M41.8847 63.6915C42.4447 64.7915 42.7647 66.3015 41.7147 67.8715C41.6847 67.9215 41.6547 67.9615 41.6247 68.0015C41.1747 67.7015 40.7447 67.4015 40.3247 67.1215C40.1247 65.9615 39.9547 64.5215 40.1647 63.6215C40.3847 63.2315 40.7647 63.1015 41.3647 63.3815C41.5547 63.4715 41.7347 63.5715 41.8947 63.6915" fill="#FF0090"/>
<path d="M80.929 85.3538C81.169 85.7838 81.289 86.2539 81.319 86.7739C81.459 89.6042 78.7287 93.4147 76.8985 93.4847C74.3382 93.5847 56.5562 91.5945 49.9955 88.5441C45.555 86.4639 38.3641 83.1335 33.7236 79.6531C31.2933 77.8429 29.5631 75.9727 29.2931 74.2225C28.213 67.4917 33.5736 64.6814 36.3039 64.9714C37.7241 65.1215 41.2145 67.2017 44.6148 69.3219C47.7552 71.2722 50.8156 73.2524 52.0757 73.7524C52.0757 73.7524 75.4183 82.2934 79.5888 84.1536C80.2289 84.4437 80.6689 84.8537 80.939 85.3538H80.929Z" fill="#6B78FF"/>
<path opacity="0.35" d="M81.319 86.7741C81.4591 89.6045 78.7287 93.4149 76.8985 93.4849C74.3382 93.5849 56.5562 91.5947 49.9955 88.5443C45.555 86.4641 38.3642 83.1337 33.7236 79.6533C35.7639 80.4534 64.0471 91.3947 74.6983 87.8843C77.7486 86.8741 79.8889 86.6041 81.319 86.7741Z" fill="#293CFF"/>
<g style="mix-blend-mode:multiply" opacity="0.48">
<path d="M80.9293 85.3536C75.3387 83.3734 61.0971 78.1928 56.1965 76.9526C51.926 75.8525 47.0255 71.642 44.5952 69.3218C47.7356 71.272 50.7959 73.2522 52.0561 73.7523C52.0561 73.7523 75.3987 82.2933 79.5692 84.1535C80.2093 84.4435 80.6493 84.8535 80.9193 85.3536H80.9293Z" fill="#939AED"/>
</g>
<path opacity="0.45" d="M33.4335 74.9221C31.5535 72.7521 34.2635 68.1421 37.0335 68.2621C39.2735 68.3621 40.3735 72.0721 39.3535 73.8321C38.1635 75.8721 35.3135 77.0921 33.4335 74.9221Z" fill="#FF0090"/>
<mask id="mask0_21_11875" style="mask-type:luminance" maskUnits="userSpaceOnUse" x="89" y="81" width="43" height="36">
<path d="M128.655 89.9043C127.074 86.854 129.945 84.0036 129.565 83.2136L129.535 83.1935C129.455 83.1935 128.915 82.7335 128.205 82.5135C120.564 80.1632 112.693 82.3535 107.692 83.4636C97.7611 85.6538 91.6404 96.305 89.3901 100.155C88.67 101.386 91.0303 105.396 92.1104 107.296H92.1304C100.871 108.916 101.992 111.697 104.222 113.277C114.293 120.388 115.763 113.737 120.074 110.817C122.614 109.086 124.534 111.157 126.834 108.046C128.535 105.746 126.854 103.626 128.095 100.386C128.955 98.1252 131.655 96.4751 131.615 94.8649C131.555 92.1746 129.355 91.2745 128.645 89.9043" fill="white"/>
</mask>
<g mask="url(#mask0_21_11875)">
<path d="M148.367 95.6749C146.446 97.3051 143.796 99.4153 140.696 101.586C138.736 102.956 138.275 105.666 139.676 107.596C140.916 109.286 142.026 111.437 141.196 113.267C139.376 117.267 134.775 119.488 123.084 116.847C120.193 116.197 121.374 118.347 121.164 121.438C120.894 125.388 111.642 126.398 106.662 121.268C103.752 118.267 101.541 114.607 88.1998 112.147L88.1698 112.127C86.5196 109.226 82.9192 103.106 84.0193 101.216C87.4497 95.3349 96.7908 79.073 111.953 75.7226C119.593 74.0224 131.615 70.6921 143.276 74.2725C144.366 74.6025 145.176 75.3326 145.306 75.3126L145.346 75.3326C145.926 76.5327 145.936 78.0429 145.146 79.293C144.736 79.9531 144.276 80.6632 143.776 81.4233C142.506 83.3335 142.976 85.9038 144.826 87.2539C146.116 88.1941 147.257 89.0542 148.207 89.8042C150.077 91.2344 150.137 94.1647 148.357 95.6549" fill="#4450CF"/>
<path d="M92.8403 97.5252C94.2704 96.7151 95.8206 96.105 97.3908 95.6049C100.611 94.5848 103.982 94.1048 107.342 93.8948C114.773 93.4247 122.324 93.8547 129.694 94.8749C133.995 95.4749 138.265 96.295 142.486 97.3451C143.626 97.6252 144.076 95.855 142.926 95.5649C135.125 93.6347 127.144 92.4546 119.123 92.0545C115.323 91.8645 111.492 91.8145 107.692 92.0345C104.142 92.2346 100.561 92.7046 97.1508 93.7547C96.2807 94.0248 95.4206 94.3248 94.5705 94.6748C94.9905 94.1348 95.4306 93.6047 95.9206 93.1247C97.0708 91.9845 98.3409 90.9644 99.571 89.9243C100.951 88.7542 102.401 87.344 104.042 86.3839C104.882 86.0239 105.732 85.6838 106.592 85.3838C106.712 85.3438 106.812 85.2838 106.902 85.2238C108.792 84.7137 110.732 84.3737 112.653 84.0236C114.793 83.6336 116.943 83.2835 119.103 83.0035C119.563 82.9435 120.023 82.8935 120.483 82.8335C123.974 82.7035 127.464 82.8535 130.915 83.4036C135.485 84.1336 139.956 85.4538 144.176 87.364C144.736 87.614 145.416 87.504 145.736 86.934C146.016 86.4339 145.866 85.6338 145.296 85.3738C142.646 84.1736 139.926 83.2035 137.145 82.4534C138.025 82.5335 138.906 82.6135 139.776 82.7335C140.386 82.8135 141.006 82.5535 141.166 81.9034C141.306 81.3533 140.946 80.5932 140.326 80.5132C133.745 79.6531 127.134 79.8031 120.563 80.5432C120.393 80.5432 120.223 80.5432 120.053 80.5532C115.873 80.7333 111.562 81.0933 107.512 82.2134C104.362 83.0835 101.451 84.5737 98.831 86.5039C98.2309 86.8939 97.6708 87.334 97.1408 87.8341C97.1008 87.8741 97.0608 87.9141 97.0308 87.9541C94.3505 90.2543 92.0702 93.0146 90.17 95.985C89.98 96.045 89.8199 96.145 89.6799 96.285C89.6199 96.355 89.5699 96.415 89.5099 96.485C89.3999 96.5951 89.3199 96.7151 89.2799 96.8651C89.2099 97.0051 89.1799 97.1551 89.1899 97.3151C89.1899 97.4652 89.2199 97.6152 89.2999 97.7452C89.3199 97.8152 89.3599 97.8752 89.3999 97.9352C88.8198 98.5853 88.3498 99.3354 88.0697 100.205C87.9897 100.465 88.0197 100.676 88.1197 100.856C88.0897 100.896 88.0697 100.946 88.0397 100.986C87.6197 101.186 87.3397 101.606 87.4897 102.086C87.5697 102.366 87.8197 102.616 88.1097 102.716C88.4798 102.966 88.9998 102.976 89.2799 102.526C90.2 102.356 91.0701 102.606 92.0102 102.946C93.2803 103.406 94.5405 103.866 95.7906 104.366C98.2809 105.356 100.671 106.536 102.891 108.046C107.132 110.937 110.792 114.567 115.223 117.197C117.793 118.728 120.523 119.978 123.354 120.958C123.824 121.118 124.354 120.738 124.464 120.288C124.594 119.768 124.264 119.338 123.794 119.178C118.753 117.417 114.263 114.667 110.122 111.337C108.042 109.667 106.002 107.946 103.792 106.446C101.541 104.916 99.111 103.736 96.5907 102.726C95.1605 102.156 93.7104 101.616 92.2502 101.096C91.8802 100.966 91.5001 100.856 91.1201 100.776C91.6301 100.556 92.1802 100.425 92.7303 100.345C94.3304 100.135 95.9806 100.175 97.5908 100.245C100.941 100.385 104.252 100.936 107.502 101.726C114.223 103.356 120.613 106.046 126.964 108.736C130.635 110.287 134.305 111.837 138.045 113.217C138.515 113.387 139.046 112.997 139.156 112.547C139.286 112.027 138.956 111.607 138.485 111.437C125.064 106.506 112.152 99.0253 97.5408 98.4153C95.6206 98.3353 93.1003 98.2052 91.0301 98.8453C91.5701 98.3253 92.2102 97.9052 92.8403 97.5352" fill="#1F2EC4"/>
</g>
<path d="M96.3612 83.4834C96.3612 83.4834 103.222 86.2637 104.762 89.6841C106.302 93.1045 95.1011 91.6543 95.1011 91.6543L96.3612 83.4834Z" fill="#E80083"/>
<path d="M95.6311 93.0044C95.6311 93.0044 103.852 93.4945 105.302 96.9548C106.802 100.545 95.6211 101.705 95.6211 101.705V93.0044" fill="#E80083"/>
<path d="M95.4312 105.686C95.4312 105.686 102.041 106.086 103.201 108.866C104.411 111.746 95.4312 113.656 95.4312 113.656V105.686Z" fill="#E80083"/>
<path d="M94.6109 115.977C94.6109 115.977 100.772 118.407 101.022 121.408C101.272 124.518 92.1406 123.558 92.1406 123.558L94.6109 115.977Z" fill="#FF0090"/>
<path d="M91.2404 129.948C91.2404 129.948 97.8304 130.588 98.9004 133.398C100.01 136.318 90.9604 137.908 90.9604 137.908L91.2404 129.938V129.948Z" fill="#FF0090"/>
<path d="M91.1404 143.7C91.1404 143.7 97.3804 142.74 99.0304 145.1C100.74 147.54 92.7504 151.14 92.7504 151.14L91.1304 143.7H91.1404Z" fill="#FF0090"/>
<path d="M142.136 168.133C142.786 168.273 143.286 168.823 143.306 169.483C143.346 170.704 142.536 172.264 141.486 172.534C138.506 173.324 134.915 172.944 132.865 171.114C130.595 169.083 133.105 164.433 136.056 161.713C136.886 160.952 138.866 161.002 139.826 162.053C140.356 162.633 140.406 163.513 139.966 164.163L138.266 166.683C138.096 166.943 138.236 167.293 138.536 167.363L142.126 168.123L142.136 168.133Z" fill="#FF0090"/>
<path d="M93.8105 154.851C93.8105 154.851 98.6405 152.501 100.581 154.011C102.581 155.571 97.0005 160.491 97.0005 160.491L93.8205 154.851H93.8105Z" fill="#FF0090"/>
<path d="M99.5815 163.542C99.5815 163.542 103.042 160.512 104.982 161.322C106.992 162.162 103.482 167.492 103.482 167.492L99.5815 163.542Z" fill="#FF0090"/>
<path d="M108.522 169.703C108.522 169.703 109.622 165.953 111.382 165.643C113.202 165.333 113.132 170.753 113.132 170.753L108.532 169.703H108.522Z" fill="#FF0090"/>
<path d="M116.653 171.083C116.653 171.083 116.803 167.743 118.193 167.133C119.643 166.503 120.683 171.023 120.683 171.023L116.653 171.083Z" fill="#FF0090"/>
<path d="M124.254 170.613C124.254 170.613 124.244 167.823 125.384 167.253C126.564 166.663 127.614 170.393 127.614 170.393L124.254 170.613Z" fill="#FF0090"/>
<mask id="mask1_21_11875" style="mask-type:luminance" maskUnits="userSpaceOnUse" x="95" y="90" width="46" height="34">
<path d="M136.186 108.287C136.476 104.826 140.476 103.936 140.576 103.056V103.026C140.486 102.986 140.286 102.296 139.796 101.726C134.525 95.6052 126.605 93.2249 121.724 91.4847C112.033 88.0144 101.052 93.825 97.0512 95.9053C95.771 96.5753 95.621 101.276 95.521 103.476V103.496C102.142 109.587 101.602 112.567 102.662 115.117C107.442 126.619 112.293 121.728 117.564 121.548C120.674 121.438 121.194 124.238 124.844 122.818C127.535 121.768 127.245 119.048 130.055 116.948C132.015 115.487 135.216 115.517 136.056 114.127C137.456 111.797 136.056 109.837 136.196 108.287" fill="white"/>
</mask>
<g mask="url(#mask1_21_11875)">
<path d="M149.947 123.839C147.417 124.199 144.017 124.569 140.196 124.759C137.776 124.879 135.916 126.939 136.076 129.349C136.226 131.459 136.016 133.9 134.316 135.01C130.595 137.45 125.465 136.86 116.884 128.309C114.763 126.189 114.603 128.669 112.763 131.199C110.403 134.43 101.932 130.309 100.432 123.238C99.5617 119.108 99.6417 114.787 89.5405 105.496V105.466C89.6805 102.096 89.9006 94.9152 91.8608 93.9051C97.9715 90.7247 114.743 81.8537 129.535 87.1643C136.986 89.8246 149.087 93.4551 157.128 102.796C157.878 103.666 158.188 104.726 158.298 104.786L158.318 104.826C158.168 106.166 157.358 107.467 156.008 108.107C155.308 108.447 154.528 108.807 153.688 109.187C151.578 110.137 150.577 112.587 151.438 114.737C152.038 116.238 152.548 117.588 152.958 118.738C153.788 120.968 152.258 123.508 149.927 123.829" fill="#828DFF"/>
<path d="M101.412 95.4953C103.072 95.5653 104.732 95.8853 106.343 96.3054C109.653 97.1655 112.793 98.5757 115.784 100.206C122.394 103.806 128.625 108.247 134.386 113.087C137.746 115.918 140.957 118.918 143.997 122.088C144.827 122.948 146.167 121.668 145.337 120.808C139.706 114.958 133.506 109.647 126.855 104.986C123.705 102.776 120.454 100.676 117.084 98.8157C113.933 97.0755 110.623 95.5553 107.133 94.6052C106.243 94.3652 105.342 94.1651 104.422 94.0051C105.072 93.7651 105.733 93.5551 106.423 93.4051C108.023 93.055 109.663 92.855 111.283 92.635C113.103 92.385 115.104 91.9549 117.024 92.0149C117.934 92.1549 118.844 92.3249 119.744 92.535C119.864 92.565 119.984 92.565 120.094 92.565C121.984 93.145 123.835 93.9051 125.665 94.6352C127.715 95.4553 129.735 96.3154 131.735 97.2355C132.156 97.4355 132.586 97.6355 133.006 97.8356C136.056 99.6058 138.966 101.616 141.627 103.946C145.147 107.027 148.257 110.567 150.838 114.477C151.178 114.998 151.828 115.258 152.408 114.948C152.918 114.667 153.218 113.907 152.878 113.377C151.258 110.927 149.447 108.627 147.477 106.487C148.187 107.027 148.897 107.577 149.578 108.147C150.058 108.547 150.728 108.647 151.218 108.177C151.628 107.787 151.738 106.947 151.248 106.537C146.077 102.256 140.336 98.8157 134.316 95.9254C134.166 95.8353 134.016 95.7453 133.866 95.6653C130.195 93.5651 126.305 91.5549 122.234 90.3247C119.064 89.3746 115.774 89.0846 112.493 89.3146C111.773 89.3246 111.053 89.3946 110.333 89.5346C110.283 89.5446 110.223 89.5546 110.173 89.5746C106.633 90.0947 103.192 91.2348 99.9619 92.745C99.7718 92.695 99.5718 92.685 99.3818 92.735C99.3018 92.765 99.2118 92.785 99.1318 92.815C98.9818 92.845 98.8417 92.915 98.7217 93.015C98.5917 93.095 98.4817 93.205 98.4017 93.3451C98.3217 93.4751 98.2717 93.6151 98.2617 93.7651C98.2417 93.8351 98.2417 93.9151 98.2417 93.9851C97.3916 94.2352 96.5915 94.6252 95.8814 95.2153C95.6714 95.3853 95.5814 95.5953 95.5714 95.7953C95.5214 95.8153 95.4814 95.8453 95.4314 95.8653C94.9613 95.8053 94.5012 96.0254 94.3612 96.5054C94.2812 96.7854 94.3612 97.1355 94.5613 97.3755C94.7413 97.7956 95.1813 98.0756 95.6614 97.8456C96.5415 98.1956 97.1515 98.8757 97.7716 99.6758C98.6117 100.746 99.4418 101.826 100.252 102.926C101.852 105.116 103.262 107.417 104.342 109.897C106.413 114.647 107.583 119.728 109.953 124.369C111.333 127.059 112.993 129.599 114.884 131.969C115.194 132.359 115.854 132.319 116.194 131.999C116.584 131.629 116.534 131.079 116.224 130.689C112.853 126.469 110.503 121.698 108.753 116.618C107.873 114.067 107.053 111.497 105.973 109.027C104.872 106.507 103.432 104.186 101.812 101.966C100.892 100.706 99.9419 99.4658 98.9818 98.2356C98.7317 97.9256 98.4717 97.6255 98.1917 97.3555C98.7417 97.4455 99.2918 97.6255 99.8018 97.8656C101.282 98.5456 102.682 99.4658 104.012 100.396C106.803 102.316 109.343 104.576 111.703 106.997C116.574 112.017 120.594 117.748 124.575 123.478C126.875 126.779 129.185 130.089 131.635 133.28C131.945 133.68 132.616 133.63 132.946 133.31C133.336 132.93 133.276 132.399 132.976 131.999C124.155 120.548 117.134 107.197 104.962 98.8057C103.362 97.7056 101.272 96.2354 99.1618 95.6653C99.9019 95.5153 100.682 95.4953 101.422 95.5253" fill="#4555FF"/>
<path d="M97.7315 99.6258C97.7315 99.6258 97.7515 99.6558 97.7615 99.6658C98.2015 100.236 98.6416 100.806 99.0816 101.376C99.0816 101.386 99.1016 101.396 99.1016 101.406C99.1016 101.416 99.1216 101.426 99.1316 101.436C99.1516 101.456 99.1616 101.476 99.1816 101.506C99.1816 101.506 99.1816 101.506 99.1816 101.516C99.3616 101.756 99.5417 101.996 99.7317 102.236C98.9216 103.116 98.2015 103.986 97.5314 104.836C97.5114 104.786 97.4914 104.726 97.4614 104.676C97.5914 102.956 97.6614 101.266 97.7214 99.6258M102.622 99.4358C102.062 99.9258 101.532 100.416 101.042 100.906C100.972 100.806 100.892 100.706 100.812 100.606C100.812 100.606 100.812 100.606 100.812 100.596C100.802 100.576 100.792 100.566 100.772 100.546C100.772 100.536 100.752 100.526 100.742 100.506C100.732 100.486 100.722 100.476 100.712 100.456C100.702 100.436 100.682 100.416 100.672 100.406C100.672 100.406 100.662 100.386 100.652 100.376C100.632 100.356 100.622 100.336 100.602 100.316C100.602 100.316 100.602 100.316 100.602 100.306C100.582 100.276 100.562 100.256 100.542 100.226C100.542 100.226 100.542 100.226 100.542 100.216C100.522 100.196 100.502 100.166 100.482 100.146C100.442 100.096 100.402 100.036 100.352 99.9859C100.312 99.9359 100.272 99.8758 100.222 99.8258C100.182 99.7758 100.142 99.7158 100.102 99.6658C100.082 99.6358 100.062 99.6158 100.042 99.5858C100.022 99.5558 100.002 99.5358 99.9817 99.5058C99.9817 99.5058 99.9817 99.4958 99.9717 99.4858C99.9517 99.4658 99.9417 99.4458 99.9217 99.4258C99.9217 99.4258 99.9217 99.4158 99.9117 99.4058C99.8917 99.3858 99.8717 99.3558 99.8517 99.3358C99.8517 99.3358 99.8417 99.3258 99.8317 99.3158C99.8217 99.2958 99.8017 99.2858 99.7917 99.2658C99.7917 99.2558 99.7717 99.2458 99.7717 99.2358C99.7517 99.2158 99.7417 99.1958 99.7217 99.1758C99.7217 99.1658 99.7017 99.1558 99.6917 99.1358C99.6917 99.1258 99.6717 99.1158 99.6617 99.0958C99.6517 99.0858 99.6417 99.0658 99.6317 99.0558C99.6317 99.0558 99.6117 99.0358 99.6117 99.0258C99.5917 98.9957 99.5717 98.9757 99.5517 98.9457C99.5517 98.9457 99.5417 98.9257 99.5317 98.9257C99.5217 98.9057 99.5117 98.8957 99.4917 98.8757C99.4917 98.8757 99.4816 98.8657 99.4716 98.8557C99.4316 98.8057 99.3916 98.7557 99.3516 98.7057C99.3516 98.7057 99.3416 98.6957 99.3316 98.6857C99.2916 98.6357 99.2516 98.5857 99.2116 98.5357C99.2116 98.5357 99.2016 98.5257 99.1916 98.5157C99.1816 98.5057 99.1716 98.4857 99.1616 98.4757C99.1616 98.4757 99.1416 98.4557 99.1416 98.4457C99.1216 98.4257 99.1116 98.4057 99.0916 98.3857C99.0816 98.3757 99.0716 98.3557 99.0616 98.3457C99.0616 98.3457 99.0416 98.3257 99.0416 98.3157C99.0216 98.2957 99.0016 98.2657 98.9816 98.2457C98.9816 98.2457 98.9716 98.2357 98.9616 98.2257C98.7216 97.9256 98.4815 97.6456 98.2115 97.3856L98.1915 97.3656C98.7416 97.4556 99.2916 97.6356 99.8017 97.8756C99.8017 97.8756 99.8217 97.8756 99.8217 97.8856C99.8217 97.8856 99.8217 97.8856 99.8317 97.8856C99.8317 97.8856 99.8317 97.8856 99.8417 97.8856C99.8417 97.8856 99.8417 97.8856 99.8517 97.8856C99.8517 97.8856 99.8517 97.8856 99.8617 97.8856C99.8617 97.8856 99.8617 97.8856 99.8717 97.8856C99.8717 97.8856 99.8817 97.8856 99.8917 97.8956C99.8917 97.8956 99.9017 97.8956 99.9117 97.8956C99.9117 97.8956 99.9217 97.8956 99.9317 97.8956C99.9717 97.9156 100.012 97.9356 100.042 97.9456C100.432 98.1356 100.822 98.3457 101.202 98.5557C101.212 98.5557 101.232 98.5757 101.242 98.5757C101.242 98.5757 101.252 98.5757 101.262 98.5857C101.262 98.5857 101.272 98.5857 101.282 98.5957C101.282 98.5957 101.352 98.6357 101.382 98.6557C101.382 98.6557 101.382 98.6557 101.392 98.6557C101.392 98.6557 101.392 98.6557 101.402 98.6557C101.402 98.6557 101.402 98.6557 101.412 98.6557C101.412 98.6557 101.412 98.6557 101.422 98.6557C101.422 98.6557 101.422 98.6557 101.432 98.6557C101.432 98.6557 101.432 98.6557 101.442 98.6557C101.442 98.6557 101.452 98.6557 101.462 98.6657C101.822 98.8757 102.172 99.0958 102.522 99.3258M106.622 96.3754C106.342 96.5655 106.052 96.7555 105.772 96.9555C105.192 97.3656 104.642 97.7756 104.112 98.1957C104.102 98.1957 104.082 98.1757 104.072 98.1657C104.072 98.1657 104.062 98.1657 104.052 98.1556C103.912 98.0556 103.762 97.9656 103.622 97.8656C102.332 97.0155 100.862 96.1454 99.3716 95.7054C99.3016 95.6854 99.2316 95.6654 99.1616 95.6454C99.9017 95.4954 100.682 95.4753 101.422 95.5053C103.082 95.5754 104.742 95.8954 106.352 96.3154C106.392 96.3254 106.442 96.3354 106.482 96.3454C106.532 96.3554 106.582 96.3755 106.632 96.3855M117.024 92.015C114.653 92.625 111.723 93.5551 108.803 95.0953C108.683 95.0553 108.563 95.0153 108.443 94.9753C108.443 94.9753 108.423 94.9753 108.413 94.9753C108.003 94.8453 107.593 94.7253 107.183 94.6152C107.173 94.6152 107.153 94.6153 107.143 94.6053C106.252 94.3652 105.352 94.1652 104.432 94.0052C105.082 93.7651 105.742 93.5551 106.432 93.4051C108.033 93.0551 109.673 92.8551 111.293 92.635C113.113 92.385 115.113 91.9549 117.034 92.015" fill="#6873EB"/>
<path d="M99.1916 101.506C99.1916 101.506 99.1916 101.506 99.1916 101.516C99.1916 101.516 99.1916 101.516 99.1916 101.506ZM99.1116 101.406C99.1116 101.406 99.1316 101.426 99.1416 101.436C99.1416 101.426 99.1216 101.416 99.1116 101.406ZM97.7314 99.6254C97.7314 99.6254 97.7514 99.6555 97.7614 99.6655C97.7514 99.6555 97.7414 99.6354 97.7314 99.6254ZM100.802 100.596C100.802 100.596 100.802 100.596 100.802 100.606C100.802 100.606 100.802 100.606 100.802 100.596ZM100.742 100.506C100.742 100.506 100.762 100.526 100.772 100.546C100.772 100.536 100.752 100.526 100.742 100.506ZM100.662 100.406C100.662 100.406 100.692 100.446 100.702 100.456C100.692 100.436 100.672 100.416 100.662 100.406ZM100.602 100.326C100.602 100.326 100.632 100.366 100.652 100.386C100.632 100.366 100.622 100.346 100.602 100.326ZM100.532 100.236C100.532 100.236 100.572 100.286 100.592 100.316C100.572 100.286 100.552 100.266 100.532 100.236ZM100.472 100.146C100.472 100.146 100.512 100.196 100.532 100.216C100.512 100.196 100.492 100.166 100.472 100.146ZM100.342 99.9755C100.382 100.025 100.422 100.086 100.472 100.136C100.432 100.086 100.392 100.025 100.342 99.9755ZM100.212 99.8055C100.252 99.8555 100.292 99.9155 100.342 99.9655C100.302 99.9155 100.262 99.8555 100.212 99.8055ZM100.012 99.5554C100.012 99.5554 100.052 99.6054 100.072 99.6355C100.052 99.6054 100.032 99.5854 100.012 99.5554ZM99.9517 99.4754C99.9517 99.4754 99.9917 99.5254 100.012 99.5554C99.9917 99.5254 99.9717 99.5054 99.9517 99.4754ZM99.8917 99.3954C99.8917 99.3954 99.9217 99.4354 99.9417 99.4554C99.9217 99.4354 99.9117 99.4154 99.8917 99.3954ZM99.8217 99.3054C99.8217 99.3054 99.8617 99.3554 99.8817 99.3754C99.8617 99.3554 99.8417 99.3254 99.8217 99.3054ZM99.7717 99.2354C99.7717 99.2354 99.8017 99.2654 99.8117 99.2854C99.8017 99.2654 99.7817 99.2554 99.7717 99.2354ZM99.7017 99.1454C99.7017 99.1454 99.7317 99.1854 99.7517 99.2054C99.7317 99.1854 99.7217 99.1654 99.7017 99.1454ZM99.6417 99.0754C99.6417 99.0754 99.6617 99.0954 99.6717 99.1154C99.6717 99.1054 99.6517 99.0954 99.6417 99.0754ZM99.5917 99.0054C99.5917 99.0054 99.6117 99.0254 99.6117 99.0354C99.6117 99.0354 99.5917 99.0154 99.5917 99.0054ZM99.5116 98.9054C99.5116 98.9054 99.5217 98.9254 99.5317 98.9254C99.5317 98.9254 99.5216 98.9054 99.5116 98.9054ZM99.4616 98.8454C99.4616 98.8454 99.4716 98.8554 99.4816 98.8654C99.4816 98.8654 99.4716 98.8554 99.4616 98.8454ZM99.3316 98.6653C99.3316 98.6653 99.3416 98.6753 99.3516 98.6853C99.3516 98.6853 99.3416 98.6753 99.3316 98.6653ZM99.1916 98.4953C99.1916 98.4953 99.2016 98.5053 99.2116 98.5153C99.2116 98.5153 99.2016 98.5053 99.1916 98.4953ZM99.1316 98.4253C99.1316 98.4253 99.1516 98.4453 99.1516 98.4553C99.1516 98.4553 99.1316 98.4353 99.1316 98.4253ZM99.0516 98.3253C99.0516 98.3253 99.0716 98.3553 99.0816 98.3653C99.0716 98.3553 99.0616 98.3353 99.0516 98.3253ZM98.9716 98.2253C98.9716 98.2253 99.0116 98.2753 99.0316 98.2953C99.0116 98.2753 98.9916 98.2453 98.9716 98.2253ZM98.9616 98.1953C98.9616 98.1953 98.9716 98.2053 98.9816 98.2153C98.9816 98.2153 98.9716 98.2053 98.9616 98.1953ZM98.2115 97.3552C98.4715 97.6152 98.7216 97.8953 98.9616 98.1953C98.7716 97.9553 98.5815 97.7352 98.3715 97.5252C98.3215 97.4652 98.2615 97.4152 98.2115 97.3552ZM99.8217 97.8552C99.8217 97.8552 99.8017 97.8552 99.8017 97.8452C99.8017 97.8452 99.8217 97.8452 99.8217 97.8552ZM99.8417 97.8652C99.8417 97.8652 99.8417 97.8652 99.8317 97.8652C99.8317 97.8652 99.8317 97.8652 99.8417 97.8652ZM99.8717 97.8752C99.8717 97.8752 99.8717 97.8752 99.8617 97.8752C99.8617 97.8752 99.8617 97.8752 99.8717 97.8752ZM101.502 98.7454C101.502 98.7454 101.502 98.7454 101.492 98.7454C101.492 98.7454 101.492 98.7454 101.502 98.7454ZM101.532 98.7553C101.532 98.7553 101.532 98.7553 101.522 98.7553C101.522 98.7553 101.522 98.7553 101.532 98.7553ZM101.562 98.7754C101.562 98.7754 101.552 98.7754 101.542 98.7653C101.542 98.7653 101.552 98.7654 101.562 98.7754ZM104.052 98.1553C104.052 98.1553 104.062 98.1553 104.072 98.1653C104.072 98.1653 104.062 98.1653 104.052 98.1553ZM103.612 97.8652C103.762 97.9653 103.902 98.0553 104.042 98.1553C103.902 98.0553 103.752 97.9653 103.612 97.8652C102.322 97.0151 100.852 96.1451 99.3616 95.695C100.852 96.1351 102.322 97.0052 103.612 97.8552M106.472 96.3351C106.472 96.3351 106.382 96.3151 106.342 96.3051C104.732 95.885 103.072 95.575 101.412 95.495C103.072 95.565 104.732 95.885 106.342 96.3051C106.382 96.3151 106.432 96.3251 106.472 96.3351ZM107.173 94.6149C107.173 94.6149 107.143 94.6149 107.133 94.6049C107.143 94.6049 107.163 94.6049 107.173 94.6149ZM108.433 94.9749C108.433 94.9749 108.413 94.9749 108.403 94.9749C108.403 94.9749 108.423 94.9749 108.433 94.9749ZM117.014 92.0146C115.093 91.9546 113.093 92.3746 111.273 92.6347C109.653 92.8647 108.013 93.0547 106.412 93.4047C105.732 93.5548 105.072 93.7648 104.412 94.0048C105.062 93.7648 105.722 93.5548 106.412 93.4047C108.013 93.0547 109.653 92.8547 111.273 92.6347C113.093 92.3846 115.093 91.9546 117.014 92.0146Z" fill="#3745EB"/>
<path d="M120.744 91.1647C111.303 88.3944 100.912 93.8851 97.0416 95.8953C96.9716 95.9353 96.9016 95.9853 96.8316 96.0453C96.4615 96.3953 96.2015 97.1154 96.0215 98.0055C96.4115 98.2155 96.7516 98.5056 97.0716 98.8356C97.3116 99.0856 97.5417 99.3657 97.7717 99.6657C98.4318 100.516 99.1018 101.366 99.7419 102.236C100.152 101.796 100.582 101.346 101.042 100.896C100.362 99.9958 99.6819 99.0956 98.9818 98.2155C98.7918 97.9755 98.5918 97.7355 98.3818 97.5155C98.3217 97.4555 98.2617 97.3854 98.1917 97.3254C98.7418 97.4155 99.2919 97.5955 99.8019 97.8355C100.782 98.2856 101.722 98.8356 102.632 99.4257C103.102 99.0156 103.602 98.5956 104.122 98.1855C102.662 97.1954 100.922 96.0953 99.1618 95.6253C99.9019 95.4752 100.682 95.4552 101.422 95.4852C103.082 95.5552 104.742 95.8753 106.353 96.2953C106.443 96.3153 106.543 96.3453 106.633 96.3653C107.353 95.8953 108.083 95.4752 108.813 95.0852C108.263 94.9052 107.703 94.7351 107.143 94.5851C106.253 94.3451 105.353 94.1451 104.432 93.9851C105.083 93.745 105.743 93.535 106.433 93.385C108.033 93.035 109.673 92.8349 111.293 92.6149C113.113 92.3649 115.114 91.9348 117.034 91.9948C118.554 91.6048 119.844 91.3548 120.754 91.1547" fill="#3D4CE3"/>
</g>
<path d="M69.2178 177.104C68.6578 178.344 66.2875 180.275 63.1671 182.615C56.9164 187.325 47.7154 193.746 44.185 199.777C42.5348 202.597 40.5846 204.577 38.5143 205.837C37.7642 206.307 37.0042 206.678 36.2241 206.958C35.0839 207.368 33.9438 207.598 32.7937 207.658C31.2235 207.748 29.6733 207.528 28.2032 207.048C24.7128 205.927 16.3218 201.497 14.8616 198.047C14.8216 197.937 14.7816 197.827 14.7516 197.716C14.6916 197.486 14.6616 197.246 14.6616 197.026C14.6616 196.926 14.6616 196.826 14.6816 196.726C15.2017 193.996 20.7623 193.636 23.6026 191.586C25.7529 190.036 26.0729 187.515 27.8331 184.015C28.9632 181.775 30.2334 179.844 31.5435 178.204C31.5435 178.184 31.5635 178.184 31.5635 178.184C31.7936 177.884 32.0336 177.594 32.2736 177.314C34.4839 174.694 36.6941 172.914 38.2443 171.894C38.2443 171.894 49.2255 172.384 58.1266 173.524C64.5773 174.354 69.9279 175.514 69.2178 177.084V177.104Z" fill="#4F5FFF"/>
<path d="M38.5041 205.857C40.5844 204.597 42.5246 202.607 44.1748 199.787C47.6952 193.746 56.9162 187.335 63.1569 182.625L58.1164 173.544C49.2153 172.404 38.2341 171.914 38.2341 171.914C36.6839 172.944 34.4737 174.714 32.2534 177.344C32.2834 177.414 32.3334 177.484 32.3734 177.544C32.3734 177.544 43.3047 184.215 44.8749 189.576C46.435 194.926 42.7846 201.327 38.4941 205.857H38.5041Z" fill="#293CFF"/>
<path d="M14.6616 197.046C15.6917 194.306 21.0023 193.546 22.3525 193.606C25.3928 193.726 27.7031 193.856 27.9431 193.036C28.1832 192.216 27.163 190.956 27.033 188.215C26.913 185.635 31.2735 178.654 31.5435 178.224C30.2434 179.854 28.9632 181.795 27.8431 184.035C26.0829 187.535 25.7629 190.055 23.6126 191.606C20.7723 193.656 15.2117 194.016 14.6916 196.746C14.6716 196.846 14.6616 196.936 14.6616 197.036V197.046Z" fill="#7884FF"/>
<path d="M135.935 168.523C136.005 168.643 134.535 169.524 133.465 170.214L133.445 170.234C133.445 170.234 133.275 170.334 133.095 170.464C132.885 170.594 132.715 170.704 132.585 170.804C132.565 170.824 132.525 170.854 132.495 170.874C125.324 176.254 109.802 191.746 79.2887 194.626C78.9887 194.646 78.6986 194.676 78.3986 194.686C63.2769 195.757 54.2459 186.805 52.6457 185.085C52.4857 184.895 52.3856 184.795 52.3856 184.795C51.7356 184.355 51.0855 183.885 50.4554 183.425C48.0352 181.635 45.7149 179.585 43.4946 177.294C42.0945 175.834 40.8243 174.384 39.7042 172.914C37.3139 169.814 35.5237 166.703 34.2536 163.593C34.1536 163.333 34.0536 163.093 33.9636 162.843C33.8035 162.413 33.6335 161.973 33.5135 161.543C33.4935 161.533 33.4935 161.513 33.4935 161.483C33.4135 161.253 33.3435 161.003 33.2635 160.763C32.9334 159.712 32.6934 158.672 32.4834 157.612C32.4234 157.332 32.3834 157.042 32.3334 156.752C32.2734 156.482 32.2434 156.192 32.2034 155.922C32.1133 155.312 32.0433 154.702 31.9933 154.092C31.9833 153.802 31.9633 153.502 31.9433 153.202C31.9233 152.922 31.9233 152.662 31.9133 152.402V152.202C31.9133 151.982 31.9033 151.762 31.9033 151.562C31.9033 150.921 31.9233 150.281 31.9733 149.651C31.9833 149.391 31.9933 149.141 32.0333 148.891L32.0933 148.241C32.1033 148.021 32.1233 147.801 32.1634 147.591C32.1834 147.401 32.2134 147.221 32.2334 147.031C32.2634 146.761 32.3234 146.491 32.3634 146.231C32.4234 145.891 32.4834 145.551 32.5534 145.221C32.5734 145.121 32.5834 145.001 32.6234 144.911C32.6734 144.631 32.7234 144.351 32.7834 144.091C32.8434 143.831 32.9134 143.551 32.9834 143.301C33.0335 143.071 33.1035 142.821 33.1535 142.59C33.2235 142.29 33.3235 141.98 33.4135 141.7C33.5035 141.41 33.5835 141.11 33.6735 140.83C33.7735 140.54 33.8735 140.24 33.9736 139.96C34.0636 139.66 34.1736 139.37 34.2836 139.07L34.6136 138.21C34.6136 138.21 34.6136 138.19 34.6236 138.18C34.7436 137.9 34.8537 137.61 34.9637 137.34C35.4137 136.28 35.8938 135.22 36.4338 134.16C36.5939 133.829 36.7639 133.519 36.9339 133.189C37.1039 132.849 37.3039 132.499 37.494 132.139H37.514C37.704 131.759 37.914 131.419 38.104 131.059C38.314 130.699 38.5241 130.349 38.7441 129.999C38.9541 129.639 39.1841 129.289 39.4042 128.939C39.6242 128.579 39.8442 128.229 40.0842 127.889C41.8945 125.148 43.9547 122.458 46.235 119.818C47.005 118.928 47.7951 118.048 48.6052 117.178C50.1454 115.507 51.7656 113.867 53.4458 112.247C53.6358 112.057 53.8058 111.897 54.0058 111.707C54.0658 111.647 54.1058 111.607 54.1659 111.547C54.3259 111.407 54.4759 111.257 54.6559 111.097C55.0259 110.737 55.416 110.387 55.806 110.027C56.9762 108.957 58.1763 107.897 59.3864 106.846C60.4566 105.926 61.5067 105.006 62.4868 104.096C62.9969 103.626 63.4969 103.186 63.977 102.726C64.107 102.606 64.237 102.486 64.357 102.366C64.8771 101.866 65.4071 101.366 65.9072 100.866C66.4872 100.306 67.0473 99.7456 67.6074 99.1855C67.8174 98.9655 68.0174 98.7555 68.2274 98.5355C69.4476 97.2753 70.6277 96.0252 71.7278 94.8151C72.2979 94.165 72.868 93.5249 73.418 92.8948C74.9182 91.1446 76.2984 89.4444 77.5585 87.8143C77.8685 87.3942 78.1886 86.9842 78.4786 86.5741C78.5586 86.5041 78.6086 86.4341 78.6686 86.3441C78.9987 85.924 79.2987 85.514 79.5987 85.0939C79.7588 84.8539 79.9288 84.6139 80.0988 84.3839C81.3789 82.5937 82.5091 80.8735 83.4992 79.2933C83.6292 79.0933 83.7392 78.8932 83.8692 78.7032C84.1092 78.2932 84.3593 77.9031 84.5893 77.5031C84.7393 77.2631 84.8793 77.013 85.0294 76.773C85.3194 76.2629 85.5994 75.7829 85.8694 75.3028C85.9695 75.0928 86.0995 74.8928 86.2095 74.6928C87.0796 73.0926 87.7797 71.7024 88.3397 70.5123C88.4797 70.2123 88.6198 69.9322 88.7398 69.6622L88.8198 69.5122C88.8898 69.3222 88.9698 69.1721 89.0298 69.0121C89.0798 68.9121 89.1098 68.8421 89.1498 68.7421C89.2198 68.5821 89.2898 68.4121 89.3498 68.262L89.3698 68.242C89.4299 68.092 89.4899 67.952 89.5299 67.822C89.7699 67.2119 89.9299 66.7919 90.0199 66.5718C90.0699 66.4318 90.0799 66.3618 90.0799 66.3618L90.62 66.9719L95.5806 72.5525L102.171 79.9834C102.171 79.9834 99.871 80.6934 98.8609 82.2236C98.8009 82.3136 98.7309 82.4236 98.6909 82.5137H98.6709C98.6409 82.6337 98.5909 82.7237 98.5709 82.8237C98.5409 82.8937 98.5209 82.9437 98.5009 82.9937C98.4909 83.0237 98.4909 83.0537 98.4709 83.0737C98.4609 83.1437 98.4509 83.2037 98.4509 83.2737C98.4409 83.2937 98.4409 83.3337 98.4309 83.3538C98.3509 84.0438 98.2709 84.7539 98.2009 85.474C97.4908 93.8949 98.6109 105.306 95.5706 117.388C87.9497 147.661 94.8205 161.293 105.022 167.603C112.763 172.394 121.103 170.824 128.444 169.884C132.835 169.334 135.875 168.403 135.985 168.553L135.935 168.523Z" fill="#6B78FF"/>
<path d="M40.0745 127.859C39.8445 128.209 39.6144 128.559 39.3844 128.919C39.1544 129.269 38.9344 129.619 38.7243 129.979C38.5043 130.329 38.2943 130.689 38.0943 131.039C37.8943 131.389 37.6842 131.749 37.4842 132.109L37.4642 132.139C37.2742 132.489 37.0842 132.84 36.9041 133.19C36.7341 133.51 36.5641 133.83 36.4041 134.16C35.874 135.21 35.384 136.27 34.9439 137.34C34.8239 137.62 34.7139 137.9 34.6039 138.18C34.6039 138.19 34.6039 138.2 34.6039 138.22C34.4839 138.5 34.3739 138.79 34.2738 139.08C34.1638 139.37 34.0638 139.66 33.9638 139.96C33.8638 140.25 33.7638 140.54 33.6738 140.84C33.5838 141.14 33.4838 141.43 33.4037 141.721C33.3137 142.011 33.2337 142.301 33.1537 142.601C33.0937 142.841 33.0237 143.081 32.9637 143.321C32.9037 143.581 32.8337 143.841 32.7737 144.111C32.7137 144.381 32.6537 144.651 32.6037 144.921C32.5736 145.031 32.5536 145.131 32.5336 145.241C32.4636 145.581 32.4036 145.911 32.3536 146.251C32.3136 146.521 32.2636 146.791 32.2336 147.071C32.2036 147.251 32.1836 147.431 32.1636 147.621C32.1336 147.841 32.1036 148.051 32.0936 148.271C32.0636 148.481 32.0436 148.701 32.0336 148.921C32.0036 149.171 31.9936 149.421 31.9736 149.671C31.9336 150.312 31.9136 150.942 31.9136 151.592C31.9136 151.802 31.9136 152.012 31.9136 152.222C31.9136 152.282 31.9136 152.352 31.9136 152.422C31.9136 152.692 31.9236 152.962 31.9436 153.232C31.9536 153.532 31.9736 153.822 31.9936 154.122C32.0336 154.722 32.1036 155.332 32.1836 155.932C32.2236 156.212 32.2636 156.492 32.3136 156.772C32.3636 157.062 32.4136 157.352 32.4736 157.642C32.6737 158.692 32.9337 159.733 33.2537 160.783C33.3237 161.043 33.4137 161.303 33.5038 161.563C33.6438 162.003 33.8038 162.443 33.9638 162.873C34.0538 163.113 34.1538 163.363 34.2638 163.623C35.524 166.733 37.3142 169.854 39.7145 172.944C40.8446 174.414 42.1047 175.874 43.5149 177.325C45.7251 179.615 48.0554 181.655 50.4657 183.455C51.0157 183.865 51.5758 184.275 52.1359 184.645C52.3059 184.765 52.3959 184.825 52.3959 184.825C54.0061 183.185 68.5177 165.293 81.1592 115.158C83.8895 104.306 87.1298 94.4652 89.9102 86.8343C92.3704 80.0835 94.4807 75.043 95.5708 72.5327L90.7202 67.0621L90.6202 66.942L90.0202 66.542C89.9402 66.772 89.7801 67.1921 89.5401 67.7821C89.4901 67.9122 89.4301 68.0622 89.3601 68.2122V68.2322C89.2901 68.3922 89.2201 68.5422 89.1501 68.7122C89.1201 68.8023 89.0801 68.8823 89.0401 68.9723C88.9701 69.1423 88.89 69.3023 88.81 69.4923C88.79 69.5423 88.76 69.5923 88.74 69.6424C88.62 69.9124 88.49 70.1924 88.35 70.4824C87.7899 71.6626 87.0898 73.0727 86.2097 74.6729C86.0997 74.8729 85.9897 75.073 85.8697 75.283C85.6097 75.753 85.3296 76.2431 85.0296 76.7432C84.8896 76.9932 84.7396 77.2332 84.5896 77.4832C84.3595 77.8833 84.1195 78.2733 83.8595 78.6834C83.7395 78.8734 83.6194 79.0734 83.4894 79.2734C82.4893 80.8636 81.3592 82.5638 80.089 84.364C79.929 84.594 79.759 84.8341 79.579 85.0741C79.279 85.4841 78.9789 85.9042 78.6589 86.3342C78.5989 86.4143 78.5389 86.4843 78.4789 86.5743C78.1788 86.9743 77.8688 87.3844 77.5488 87.7944C76.2886 89.4346 74.9085 91.1348 73.3983 92.875C72.8582 93.5051 72.2982 94.1451 71.7181 94.7952C70.618 96.0153 69.4578 97.2655 68.2277 98.5256C68.0177 98.7357 67.8177 98.9557 67.5976 99.1657C67.0476 99.7258 66.4775 100.296 65.9074 100.856C65.3974 101.356 64.8773 101.856 64.3473 102.356C64.2272 102.476 64.0972 102.596 63.9672 102.716C63.4772 103.176 62.9871 103.636 62.487 104.086C61.4869 105.006 60.4568 105.916 59.3867 106.837C58.1666 107.887 56.9664 108.957 55.7963 110.027C55.4162 110.387 55.0262 110.737 54.6462 111.087C54.4861 111.237 54.3261 111.397 54.1561 111.547C54.0961 111.597 54.0461 111.647 53.9961 111.697C53.8061 111.887 53.616 112.057 53.436 112.237C51.7458 113.857 50.1356 115.498 48.6055 117.168C47.7954 118.038 47.0053 118.918 46.2452 119.808C43.9649 122.448 41.9047 125.139 40.0845 127.879L40.0745 127.859Z" fill="#B3B9FF"/>
<mask id="mask2_21_11875" style="mask-type:luminance" maskUnits="userSpaceOnUse" x="31" y="66" width="66" height="119">
<path d="M52.3859 184.795C51.7358 184.355 51.0957 183.895 50.4557 183.415C48.0454 181.615 45.7151 179.575 43.5049 177.284C42.1047 175.834 40.8446 174.374 39.7145 172.904C37.3242 169.813 35.524 166.693 34.2638 163.583C34.1638 163.333 34.0638 163.083 33.9638 162.843C28.3932 148.111 34.5939 133.309 46.2352 119.798C46.9953 118.908 47.7854 118.028 48.5955 117.157C50.1256 115.487 51.7458 113.847 53.426 112.227C53.606 112.047 53.7961 111.867 53.9861 111.687C54.0361 111.627 54.0861 111.587 54.1461 111.537C54.3061 111.387 54.4661 111.237 54.6261 111.077C55.0062 110.717 55.3862 110.367 55.7763 110.007C56.9464 108.927 58.1365 107.866 59.3667 106.816C82.0893 87.2641 89.2301 68.652 90.0002 66.5317L96.3409 70.7322C96.3409 70.7322 87.4299 90.2444 81.1492 115.137C68.5077 165.273 53.9961 183.165 52.3859 184.805" fill="white"/>
</mask>
<g mask="url(#mask2_21_11875)">
<path d="M85.3298 67.9715C86.86 67.7415 88.0201 68.7516 89.0303 69.7617C90.1404 70.8619 91.3205 71.832 92.6807 72.6221C95.431 74.2123 98.6114 74.9623 101.772 74.8023C102.552 74.7623 102.472 75.9725 101.702 76.0125C98.5913 76.1625 95.491 75.4524 92.7307 74.0222C91.3605 73.3122 90.1004 72.4221 88.9703 71.3819C88.0802 70.5618 86.96 68.9417 85.5799 69.1517C84.8098 69.2717 84.5598 68.0816 85.3398 67.9615" fill="#8792FF"/>
<path d="M81.7091 77.9128C82.5892 78.3128 83.2593 79.0429 83.9694 79.683C84.6895 80.3331 85.4396 80.9031 86.2997 81.3532C87.9098 82.1933 89.68 82.6833 91.4602 83.0234C94.7106 83.6534 98.011 83.6634 101.141 82.5033C102.271 82.0833 101.431 80.4031 100.311 80.8231C97.4409 81.8832 94.2506 81.7532 91.3002 81.0932C89.62 80.7131 87.8898 80.2331 86.4397 79.273C85.8296 78.8729 85.2995 78.4028 84.7695 77.9328C84.0094 77.2527 83.2493 76.5726 82.2892 76.1326C81.1891 75.6325 80.619 77.4127 81.7091 77.9128Z" fill="#8792FF"/>
<path d="M75.1885 86.0935C76.9887 85.7135 78.6089 86.9436 80.039 87.8737C81.6292 88.9038 83.3194 89.7439 85.1696 90.204C88.85 91.1241 92.8205 90.754 96.1809 88.9538C97.241 88.3838 96.4209 86.6936 95.3508 87.2736C92.0704 89.0338 88.1699 89.2739 84.6495 88.1037C82.8693 87.5137 81.4192 86.4735 79.829 85.5134C78.2988 84.5933 76.6386 83.8833 74.8284 84.2633C73.6483 84.5133 74.0183 86.3535 75.1985 86.1035" fill="#8792FF"/>
<path d="M70.6878 94.1448C72.328 94.7248 73.7381 95.705 75.1483 96.6951C75.6784 97.0651 76.2184 97.4352 76.7585 97.7852C78.5487 98.9353 80.4989 99.7754 82.5691 100.275C86.5996 101.236 90.7901 101.016 94.8305 100.225C96.0207 99.9954 95.6406 98.1552 94.4605 98.3853C90.6001 99.1453 86.5196 99.3954 82.6692 98.3753C80.6789 97.8452 78.8887 96.9751 77.1885 95.825C75.2883 94.5448 73.4681 93.1447 71.2779 92.3746C70.1377 91.9745 69.5477 93.7547 70.6978 94.1548" fill="#8792FF"/>
<path d="M63.707 98.715C69.0176 104.446 76.8985 107.596 84.6994 107.256C86.9397 107.156 89.1399 106.786 91.2802 106.126C92.4203 105.766 92.0603 103.926 90.9101 104.286C81.9091 107.106 71.5579 104.426 65.1272 97.4849C64.3071 96.5948 62.8869 97.8249 63.707 98.715Z" fill="#8792FF"/>
<path d="M57.4465 107.356C60.2568 111.767 65.1373 113.957 70.0079 115.307C75.1585 116.737 80.3791 117.377 85.6297 116.137C86.8098 115.857 86.4398 114.017 85.2596 114.297C80.3991 115.437 75.6285 114.887 70.858 113.587C66.4575 112.397 61.6869 110.537 59.1367 106.516C58.4966 105.506 56.8064 106.326 57.4465 107.346" fill="#8792FF"/>
<path d="M50.5959 113.307C55.9665 121.078 64.9175 126.098 74.2786 127.039C76.9289 127.299 79.6092 127.219 82.2395 126.799C83.4396 126.609 83.0596 124.768 81.8694 124.958C73.0584 126.349 63.8274 123.518 57.0766 117.728C55.1464 116.077 53.4562 114.157 52.016 112.067C51.326 111.077 49.9258 112.317 50.5959 113.297" fill="#8792FF"/>
<path d="M42.7749 122.368C46.8254 126.228 50.9458 130.159 55.8364 132.969C60.3369 135.56 65.3475 136.92 70.488 137.47C73.3384 137.77 76.2087 137.83 79.069 137.76C78.849 137.65 78.629 137.55 78.4089 137.44L78.479 137.52C78.3989 137.3 78.3289 137.07 78.2489 136.85C78.469 136.66 78.679 136.46 78.899 136.27C79.119 136.38 79.3391 136.48 79.5591 136.59L79.4891 136.51C78.669 135.62 77.2488 136.85 78.0689 137.74C78.819 138.55 80.2292 137.96 80.1191 136.83C80.0491 136.16 79.5091 135.9 78.899 135.89C78.1789 135.87 77.4488 135.91 76.7187 135.91C73.8984 135.9 71.0781 135.73 68.2978 135.289C65.5275 134.859 62.7872 134.129 60.1969 133.049C57.3266 131.849 54.6862 130.159 52.226 128.259C49.3856 126.068 46.7854 123.598 44.1951 121.128C43.325 120.298 41.9048 121.528 42.7749 122.358" fill="#8792FF"/>
<path d="M36.294 133.109C44.2549 141.22 55.1761 146.201 66.4974 147.051C69.7078 147.291 72.9482 147.181 76.1385 146.751C77.3387 146.591 76.9586 144.75 75.7685 144.91C65.0073 146.371 53.826 143.68 44.775 137.7C42.2247 136.009 39.8544 134.069 37.7042 131.879C36.8641 131.019 35.4439 132.249 36.284 133.109" fill="#8792FF"/>
<path d="M31.6334 145.28C41.6545 152.351 53.2858 157.952 65.7873 157.992C68.9476 157.992 72.108 157.652 75.1783 156.902C76.1084 156.672 76.1585 155.441 75.2784 155.091C74.5483 154.801 73.7782 154.961 73.1981 155.481C72.298 156.291 73.5382 157.702 74.4283 156.902C74.4883 156.782 74.5783 156.772 74.6883 156.872C74.7283 156.271 74.7583 155.661 74.7883 155.061C63.497 157.832 51.7557 154.821 41.7245 149.411C38.5842 147.71 35.5638 145.79 32.6535 143.73C31.6634 143.03 30.6333 144.6 31.6134 145.29" fill="#8792FF"/>
<path d="M29.3533 157.582C39.2145 164.483 51.5759 167.483 63.5172 166.173C66.9276 165.803 70.288 165.063 73.5284 163.963C74.3585 163.682 74.5985 162.472 73.6284 162.152C73.1283 161.982 72.6283 161.822 72.1282 161.652C70.9881 161.272 70.398 163.052 71.5481 163.432C72.0482 163.602 72.5483 163.763 73.0483 163.933C73.0883 163.332 73.1183 162.722 73.1483 162.122C62.0871 165.853 49.7957 165.313 39.0344 160.792C35.9841 159.512 33.0938 157.902 30.3835 156.012C29.3934 155.322 28.3532 156.882 29.3433 157.572" fill="#8792FF"/>
<path d="M36.7741 177.234C39.2044 178.514 41.8947 178.854 44.605 178.794C47.3153 178.734 50.0456 178.434 52.7159 178.004C58.0565 177.164 63.2871 175.694 68.2977 173.654C70.978 172.564 74.3584 171.403 75.4385 168.443C75.8585 167.313 74.0683 166.723 73.6583 167.863C72.8282 170.123 69.7478 171.033 67.7176 171.874C65.3973 172.834 63.0171 173.654 60.5968 174.354C55.8663 175.704 50.9657 176.584 46.0552 176.874C43.2848 177.034 40.3245 177.004 37.8042 175.684C36.7441 175.124 35.694 176.684 36.7641 177.244L36.7741 177.234Z" fill="#8792FF"/>
<mask id="mask3_21_11875" style="mask-type:luminance" maskUnits="userSpaceOnUse" x="84" y="66" width="7" height="12">
<path d="M90.0004 66.5215C89.8503 66.9315 89.4603 67.9616 88.7702 69.5018C89.4703 67.9616 89.8503 66.9315 90.0004 66.5215Z" fill="white"/>
</mask>
<g mask="url(#mask3_21_11875)">
<path d="M90.0043 66.5351L83.1982 76.8062L84.4738 77.6514L91.2798 67.3803L90.0043 66.5351Z" fill="#C5CAFF"/>
</g>
<path d="M88.7702 69.5117C88.6102 69.8617 88.4302 70.2517 88.2402 70.6517C88.4302 70.2417 88.6102 69.8617 88.7702 69.5117Z" fill="#A3ACFF"/>
</g>
<path d="M95.6403 172.203C94.9203 173.283 93.4703 173.573 92.3903 172.863C91.3103 172.143 91.0103 170.693 91.7303 169.613C92.4503 168.533 93.9003 168.243 94.9803 168.953C96.0603 169.673 96.3603 171.123 95.6403 172.203Z" fill="#FF0090"/>
<path d="M93.2392 180.885C93.5196 180.159 93.1581 179.343 92.4316 179.062C91.7052 178.782 90.8889 179.143 90.6084 179.87C90.3279 180.596 90.6895 181.412 91.416 181.693C92.1424 181.973 92.9587 181.612 93.2392 180.885Z" fill="#FF0090"/>
<path d="M97.8109 177.654C97.5109 178.114 96.8909 178.234 96.4309 177.934C95.9709 177.634 95.8409 177.014 96.1509 176.554C96.4609 176.094 97.0709 175.974 97.5309 176.274C97.9909 176.574 98.1109 177.194 97.8109 177.654Z" fill="#FF0090"/>
<path opacity="0.42" d="M90.0702 66.3218C90.0702 66.3218 90.0502 66.3918 90.0102 66.5218C89.9302 66.7518 89.7702 67.1719 89.5302 67.7619C89.4802 67.892 89.4202 68.042 89.3502 68.192V68.212C89.2802 68.372 89.2101 68.522 89.1401 68.692C89.1101 68.7821 89.0701 68.8621 89.0301 68.9521C88.9601 69.1221 88.8801 69.2821 88.8001 69.4721C88.7801 69.5221 88.7501 69.5721 88.7301 69.6222C88.6101 69.8922 88.4801 70.1722 88.34 70.4623C87.78 71.6424 87.0799 73.0525 86.1998 74.6527C86.0898 74.8527 85.9798 75.0528 85.8598 75.2628C85.5997 75.7328 85.3197 76.2229 85.0197 76.723C84.8796 76.973 84.7296 77.213 84.5796 77.463C84.3496 77.8631 84.1096 78.2531 83.8495 78.6632C83.7295 78.8532 83.6095 79.0532 83.4795 79.2532C82.4794 80.8434 81.3492 82.5436 80.0791 84.3438C82.7394 86.8941 87.5299 87.2642 89.9102 86.8041C90.3403 86.7141 90.6903 86.6141 90.9303 86.4841C92.2305 85.814 95.9809 85.544 98.1712 85.444C98.2312 84.7139 98.3112 84.0138 98.4012 83.3237C98.4012 83.3237 98.4012 83.2637 98.4112 83.2437C98.4112 83.1737 98.4312 83.1137 98.4412 83.0537C98.4412 83.0337 98.4512 82.9937 98.4712 82.9737C98.4812 82.9137 98.5112 82.8537 98.5312 82.7936C98.5612 82.6936 98.6012 82.5936 98.6512 82.5036V82.4836C98.7212 82.3836 98.7712 82.2836 98.8312 82.1936C99.8413 80.6634 102.142 79.9633 102.142 79.9633L95.5509 72.5225L90.5903 66.9419L90.0602 66.3418L90.0702 66.3218Z" fill="#1F2EC4"/>
<g style="mix-blend-mode:overlay">
<path d="M40.0745 127.859C39.8445 128.209 39.6144 128.559 39.3844 128.919C39.1544 129.269 38.9344 129.619 38.7243 129.979C38.5043 130.329 38.2943 130.689 38.0943 131.039C37.8943 131.389 37.6842 131.749 37.4842 132.109L37.4642 132.139C37.2742 132.489 37.0842 132.839 36.9041 133.189C36.7341 133.509 36.5641 133.829 36.4041 134.159C35.874 135.21 35.384 136.27 34.9439 137.34C34.8239 137.62 34.7139 137.9 34.6039 138.18C34.6039 138.19 34.6039 138.2 34.6039 138.22C34.4839 138.5 34.3739 138.79 34.2738 139.08C34.1638 139.37 34.0638 139.66 33.9638 139.96C33.8638 140.25 33.7638 140.54 33.6738 140.84C33.5838 141.14 33.4838 141.43 33.4037 141.72C33.3137 142.01 33.2337 142.3 33.1537 142.6C33.0937 142.84 33.0237 143.08 32.9637 143.32C32.9037 143.581 32.8337 143.841 32.7737 144.111C32.7137 144.381 32.6537 144.651 32.6037 144.921C32.5736 145.031 32.5536 145.131 32.5336 145.241C32.4636 145.581 32.4036 145.911 32.3536 146.251C32.3136 146.521 32.2636 146.791 32.2336 147.071C32.2036 147.251 32.1836 147.431 32.1636 147.621C32.1336 147.841 32.1036 148.051 32.0936 148.271C32.0636 148.481 32.0436 148.701 32.0336 148.921C32.0036 149.171 31.9936 149.421 31.9736 149.671C31.9336 150.311 31.9136 150.941 31.9136 151.591C31.9136 151.801 31.9136 152.011 31.9136 152.221C31.9136 152.281 31.9136 152.351 31.9136 152.422C31.9136 152.692 31.9236 152.962 31.9436 153.232C31.9536 153.532 31.9736 153.822 31.9936 154.122C32.0336 154.722 32.1036 155.332 32.1836 155.932C32.2236 156.212 32.2636 156.492 32.3136 156.772C32.3636 157.062 32.4136 157.352 32.4736 157.642C32.6737 158.692 32.9337 159.732 33.2537 160.782C33.3237 161.042 33.4137 161.303 33.5038 161.563C33.6438 162.003 33.8038 162.443 33.9638 162.873C34.0538 163.113 34.1538 163.363 34.2638 163.623C35.524 166.733 37.3142 169.853 39.7145 172.944C40.8446 174.414 42.1047 175.874 43.5149 177.324C45.7251 179.615 48.0554 181.655 50.4657 183.455C51.0157 183.865 51.5758 184.275 52.1359 184.645C50.1856 183.235 37.7742 173.774 34.4539 157.722C30.8535 140.28 46.1652 121.878 50.7657 117.168C55.3762 112.447 69.5578 98.5954 77.7688 88.8743C84.6896 80.6734 89.4201 70.1522 90.7202 67.0718L90.6202 66.9518L90.0202 66.5518C89.9402 66.7818 89.7801 67.2018 89.5401 67.7919C89.4901 67.9219 89.4301 68.0719 89.3601 68.2219V68.242C89.2901 68.402 89.2201 68.552 89.1501 68.722C89.1201 68.812 89.0801 68.892 89.0401 68.982C88.9701 69.1521 88.89 69.3121 88.81 69.5021C88.79 69.5521 88.76 69.6021 88.74 69.6521C88.62 69.9221 88.49 70.2022 88.35 70.4922C87.7899 71.6723 87.0898 73.0825 86.2097 74.6827C86.0997 74.8827 85.9897 75.0827 85.8697 75.2927C85.6097 75.7628 85.3296 76.2529 85.0296 76.7529C84.8896 77.0029 84.7396 77.243 84.5896 77.493C84.3595 77.893 84.1195 78.2831 83.8595 78.6931C83.7395 78.8832 83.6194 79.0832 83.4894 79.2832C82.4893 80.8734 81.3592 82.5736 80.089 84.3738C79.929 84.6038 79.759 84.8438 79.579 85.0839C79.279 85.4939 78.9789 85.914 78.6589 86.344C78.5989 86.424 78.5389 86.494 78.4789 86.584C78.1788 86.9841 77.8688 87.3941 77.5488 87.8042C76.2886 89.4444 74.9085 91.1446 73.3983 92.8848C72.8582 93.5148 72.2982 94.1549 71.7181 94.805C70.618 96.0251 69.4578 97.2753 68.2277 98.5354C68.0177 98.7454 67.8177 98.9654 67.5976 99.1755C67.0476 99.7355 66.4775 100.306 65.9074 100.866C65.3974 101.366 64.8773 101.866 64.3473 102.366C64.2272 102.486 64.0972 102.606 63.9672 102.726C63.4772 103.186 62.9871 103.646 62.487 104.096C61.4869 105.016 60.4568 105.926 59.3867 106.846C58.1666 107.896 56.9664 108.967 55.7963 110.037C55.4162 110.397 55.0262 110.747 54.6462 111.097C54.4861 111.247 54.3261 111.407 54.1561 111.557C54.0961 111.607 54.0461 111.657 53.9961 111.707C53.8061 111.897 53.616 112.067 53.436 112.247C51.7458 113.867 50.1356 115.507 48.6055 117.178C47.7954 118.048 47.0053 118.928 46.2452 119.818C43.9649 122.458 41.9047 125.148 40.0845 127.889L40.0745 127.859Z" fill="#B3B9FF"/>
</g>
<path d="M79.519 191.696C79.489 192.176 79.439 192.656 79.399 193.116C79.369 193.466 79.339 193.806 79.319 194.156C79.309 194.316 79.299 194.466 79.289 194.636C79.219 195.536 79.139 196.416 79.0689 197.296C78.4589 204.127 77.7788 210.048 77.3287 211.618C77.3287 211.618 77.3254 211.625 77.3188 211.638C77.2687 211.778 77.2487 211.898 77.1987 211.948C76.0586 213.968 74.5384 215.608 72.7282 216.758C72.3182 217.019 71.8881 217.259 71.4481 217.479C71.4381 217.479 71.4381 217.489 71.4381 217.489C70.398 217.979 68.8078 218.559 66.9876 219.069C66.9676 219.069 66.9576 219.079 66.9376 219.079C62.9171 220.229 57.8765 221.079 55.5363 220.019C55.1962 219.879 54.9462 219.689 54.7362 219.469C54.6562 219.389 54.5862 219.299 54.5162 219.199L54.3761 218.919C54.3561 218.849 54.3161 218.769 54.2961 218.699C54.2661 218.609 54.2461 218.529 54.2261 218.429C54.2061 218.329 54.1961 218.209 54.1961 218.119C54.1861 218.039 54.1861 217.959 54.1861 217.889V217.789C54.1961 217.709 54.1961 217.649 54.2161 217.559C54.2961 216.789 54.6262 215.928 55.0362 215.028C55.9063 213.198 57.1565 211.188 57.5165 209.368C58.0366 206.757 56.5464 204.697 55.4463 200.947C55.2762 200.357 55.0962 199.797 54.9462 199.227C54.0461 196.076 53.346 193.096 52.946 190.546C52.716 189.015 52.5859 187.635 52.5859 186.475C52.5859 185.975 52.6059 185.505 52.6659 185.085C52.686 184.865 52.726 184.655 52.766 184.465C53.056 184.305 79.749 188.565 79.529 191.686L79.519 191.696Z" fill="#6B78FF"/>
<path d="M54.7261 219.489C52.7659 214.998 62.897 206.757 60.7868 205.677C59.2866 204.917 57.4864 200.967 56.5663 198.736C56.1863 197.826 55.9562 197.196 55.9562 197.196C54.136 193.896 52.7559 184.485 52.7559 184.485C52.0958 187.295 53.1559 192.926 54.9261 199.217C55.0861 199.787 55.2562 200.367 55.4262 200.947C56.5363 204.697 58.0265 206.757 57.5164 209.368C56.9764 212.098 54.4761 215.218 54.206 217.569C54.206 217.649 54.186 217.719 54.186 217.799V217.909C54.186 217.989 54.186 218.069 54.186 218.139C54.186 218.249 54.206 218.359 54.226 218.459C54.2461 218.549 54.2661 218.639 54.2961 218.719C54.3261 218.789 54.3461 218.879 54.3861 218.949C54.4261 219.039 54.4761 219.129 54.5261 219.219C54.5861 219.319 54.6561 219.409 54.7361 219.499L54.7261 219.489Z" fill="#7884FF"/>
<path d="M132.485 170.883C125.314 176.264 109.793 191.756 79.2791 194.636C79.2091 195.536 79.1291 196.416 79.0591 197.296C78.449 204.127 77.769 210.048 77.3189 211.618C77.3189 211.618 77.3156 211.625 77.3089 211.638C77.2589 211.778 77.2389 211.898 77.1889 211.948C76.0488 213.968 74.5286 215.608 72.7184 216.758C72.3083 217.019 71.8783 217.259 71.4382 217.479C71.4282 217.479 71.4282 217.489 71.4282 217.489C70.3881 217.979 68.7979 218.559 66.9777 219.069C66.9577 219.069 66.9477 219.079 66.9277 219.079C67.1878 218.809 75.8587 215.108 76.6488 210.768C77.1689 207.917 78.049 198.516 78.399 194.676C78.479 193.636 78.539 193.006 78.539 193.006C78.539 193.006 78.8091 193.066 79.3991 193.096C81.6394 193.186 88.4402 192.946 102.602 188.145C110.773 185.385 128.195 173.774 132.495 170.863L132.485 170.883Z" fill="#4F5FFF"/>
<path d="M113.573 77.9733C113.573 77.9733 113.943 86.9243 110.943 90.3247C107.943 93.7251 103.312 77.3433 103.312 77.3433L113.563 77.9733H113.573Z" fill="#E80083"/>
<path d="M137.516 60.5015C137.516 60.5015 145.847 63.8118 147.737 67.9423C149.627 72.0728 132.765 69.6025 132.765 69.6025L137.516 60.5015Z" fill="#FF0090"/>
<path d="M123.444 74.1828C123.444 74.1828 129.015 81.2037 128.605 85.7142C128.185 90.2347 114.793 79.6935 114.793 79.6935L123.454 74.1729L123.444 74.1828Z" fill="#E80083"/>
<path d="M131.185 42.1291C128.895 42.0791 135.316 40.3789 136.626 35.9584C140.476 22.9469 134.215 20.0165 136.506 20.0566C138.796 20.1066 143.837 24.357 143.566 37.9286C143.296 51.5001 133.475 42.1791 131.185 42.1291Z" fill="#FF0090"/>
<path d="M131.655 44.2892C129.835 42.889 136.016 45.3293 139.706 42.549C150.537 34.3681 147.227 28.2874 149.047 29.6875C150.867 31.0877 152.398 37.4984 144.127 48.2496C135.856 59.0009 133.475 45.6893 131.655 44.2992V44.2892Z" fill="#FF0090"/>
<path d="M132.215 47.9198C131.145 45.8995 135.755 50.6701 140.266 49.67C153.517 46.7096 153.027 39.8189 154.107 41.8391C155.178 43.8593 153.927 50.3301 141.926 56.6908C129.935 63.0515 133.285 49.95 132.215 47.9298V47.9198Z" fill="#FF0090"/>
<path d="M133.115 51.1803C132.805 48.9101 135.785 53.7406 139.806 54.4307C151.617 56.4409 152.487 52.6105 152.797 54.8708C153.107 57.141 150.387 61.2215 138.646 62.8217C126.904 64.4218 133.425 53.4406 133.115 51.1803Z" fill="#FF0090"/>
<path d="M122.584 39.3489C120.414 38.6088 126.905 39.3789 129.145 36.5986C135.746 28.4477 130.455 24.3972 132.615 25.1473C134.786 25.8874 138.616 30.5179 135.296 40.179C131.975 49.8401 124.744 40.099 122.574 39.3589L122.584 39.3489Z" fill="#FF0090"/>
<path d="M153.668 85.8643C153.618 85.9043 153.778 85.4342 153.558 85.0342C152.498 83.1039 148.697 77.9634 146.617 75.9731C142.487 72.0027 135.666 72.2127 133.156 72.3627C132.355 72.4127 131.205 74.773 130.655 75.8631C130.625 75.7231 130.595 75.5931 130.575 75.4531C130.545 75.3431 130.525 75.223 130.505 75.103C130.145 73.1628 131.165 72.1127 132.665 71.2126C133.996 70.4125 137.566 66.022 137.776 65.772C137.776 65.912 137.706 69.2424 140.506 70.0024C144.477 71.1026 146.847 72.4427 148.847 74.563C152.078 78.0034 153.208 82.3739 153.798 84.7641L153.818 84.8541C153.898 85.2042 153.838 85.5542 153.678 85.8543L153.668 85.8643Z" fill="#6B78FF"/>
<path d="M82.5395 25.5472C74.1386 35.6284 73.2785 50.3901 80.0492 64.1816C88.9303 82.2537 109.183 90.5046 125.294 82.6137C134.395 78.1632 139.716 63.1815 139.796 57.1308C139.876 51.0802 139.926 47.7998 138.026 43.2793C136.966 40.749 133.485 34.7683 127.365 32.8481C124.744 32.028 125.904 31.2679 125.144 26.1373C123.974 18.2864 113.493 12.6358 105.932 16.2262C102.392 17.9064 98.9414 20.1666 96.5411 22.6469H96.5311C95.281 23.477 94.0808 24.1771 92.9207 24.5771C88.9003 25.9373 85.1398 22.4369 82.5295 25.5573L82.5395 25.5472Z" fill="#6B78FF"/>
<path d="M133.935 42.9995C135.425 44.8697 136.245 47.17 136.155 49.6002C136.085 51.7705 135.345 54.7808 133.635 55.991C133.245 56.271 132.945 55.4909 133.345 54.7608C134.025 53.5107 134.555 50.8304 133.725 49.2102C132.965 47.73 131.945 46.1798 130.945 44.8897C128.805 42.1494 132.825 41.6093 133.935 42.9995Z" fill="#1C30FF"/>
<path d="M120.484 22.9569C119.674 20.8266 118.163 19.0864 116.113 18.0663C114.273 17.1562 111.413 16.4361 109.562 17.3762C109.142 17.5863 109.632 18.1963 110.433 18.1763C111.803 18.1463 114.283 18.8964 115.223 20.3466C116.073 21.6767 116.863 23.2469 117.433 24.6971C118.654 27.7774 121.084 24.537 120.484 22.9569Z" fill="#1C30FF"/>
<path d="M148.027 90.9547C146.797 90.5947 145.006 90.0046 143.126 89.1845C142.936 89.7746 142.746 90.2947 142.586 90.7247C142.316 91.4548 141.506 91.6148 140.816 91.3448C139.466 90.8347 136.795 89.9346 136.355 87.5243C135.615 83.4939 135.545 87.3043 134.555 87.8744C133.285 88.5945 131.085 85.9642 131.635 83.3939C131.965 81.8937 132.635 80.4635 130.655 75.863C131.205 74.7629 132.355 72.4026 133.155 72.3626C135.665 72.2126 142.486 72.0026 146.617 75.973C148.697 77.9733 152.497 83.1038 153.557 85.0341C153.777 85.4341 153.607 85.9142 153.667 85.8742C153.417 86.3042 152.947 86.6242 152.397 86.6443C151.717 86.6643 150.877 86.6643 149.927 86.6342C149.907 87.8644 149.857 88.9245 149.787 89.7346C149.727 90.6047 148.847 91.2148 148.017 90.9747L148.027 90.9547Z" fill="#828DFF"/>
<path d="M109.172 36.4185C104.942 39.2288 102.052 39.6089 97.9411 33.4382C93.8306 27.2675 95.2908 24.7572 99.5213 21.9469C103.752 19.1365 111.203 18.8565 113.863 22.847C116.523 26.8374 113.393 33.5982 109.162 36.4085L109.172 36.4185Z" fill="#3647FF"/>
<path d="M109.053 36.2985C105.052 38.9588 102.322 39.3088 98.4314 33.4782C94.551 27.6475 95.9311 25.2672 99.9316 22.6069C100.252 22.3969 100.582 22.1969 100.942 22.0169C101.472 21.7468 102.052 21.4968 102.642 21.3068C104.952 20.5367 107.612 20.3667 109.803 20.9867C110.513 21.1768 111.163 21.4568 111.743 21.8168C112.443 22.2469 113.033 22.7969 113.483 23.467C115.993 27.2374 113.043 33.6282 109.033 36.2985H109.053Z" fill="#6B78FF"/>
<path d="M114.593 44.0493C108.822 46.2295 106.422 48.7998 109.602 57.2008C112.793 65.6017 116.303 65.9418 122.074 63.7615C127.844 61.5813 133.375 54.4405 131.305 48.9999C129.235 43.5592 120.354 41.8691 114.593 44.0493Z" fill="#3647FF"/>
<path d="M121.694 62.8916C116.244 64.9518 112.923 64.6318 109.903 56.6909C107.133 49.3701 108.843 46.7298 113.403 44.7495C113.783 44.5895 114.193 44.4195 114.623 44.2595C114.823 44.1795 115.043 44.1095 115.253 44.0495C118.194 43.1094 121.844 43.1794 124.875 44.2195C125.565 44.4395 126.215 44.7295 126.815 45.0696C128.485 45.9797 129.795 47.2698 130.435 48.94C132.395 54.0906 127.165 60.8314 121.714 62.8916H121.694Z" fill="#6B78FF"/>
<path d="M80.1093 24.6472C85.6299 20.0967 101.782 29.7078 106.672 39.8689C110.983 48.82 111.413 64.2217 113.503 68.4522C115.853 73.2127 92.4307 81.9237 79.7692 70.2524C76.4989 67.242 72.1184 61.0613 71.3783 49.23C70.4482 34.4083 74.5986 29.1877 80.1093 24.6472Z" fill="#6B78FF"/>
<mask id="mask4_21_11875" style="mask-type:luminance" maskUnits="userSpaceOnUse" x="71" y="23" width="43" height="54">
<path d="M80.1093 24.6472C85.6299 20.0967 101.782 29.7078 106.672 39.8689C110.983 48.82 111.413 64.2217 113.503 68.4522C115.853 73.2127 92.4307 81.9237 79.7692 70.2524C76.4989 67.242 72.1184 61.0613 71.3783 49.23C70.4482 34.4083 74.5986 29.1877 80.1093 24.6472Z" fill="white"/>
</mask>
<g mask="url(#mask4_21_11875)">
<path d="M111.333 52.5102C113.903 49.8299 111.153 44.9993 110.033 42.219C108.493 38.4186 106.602 34.7782 104.222 31.4378C102.702 29.2976 94.6411 20.3465 90.0506 20.4565C88.4104 19.0464 85.38 20.7866 86.6402 22.9668C87.4203 24.317 87.4303 26.3372 87.5503 27.8474C87.6903 29.5976 88.2504 32.0879 89.1405 33.588C91.0807 36.8384 93.2109 38.4786 95.9912 41.0089C98.9516 43.6892 101.632 46.3695 103.972 49.6199C105.592 51.8801 108.483 55.4605 111.323 52.5102H111.333Z" fill="#828DFF"/>
<path d="M93.5208 45.0387C93.8008 44.7787 94.3908 43.7187 93.7208 42.5887C93.0508 41.4587 92.1308 41.5087 91.3208 41.5587C90.8508 41.5887 91.4108 42.5187 91.8108 42.7887L91.8408 42.8087C91.8408 42.8087 91.9008 42.8787 91.9308 42.9087C92.0208 43.0487 91.3408 43.5387 91.2308 43.7187C91.1208 43.8987 90.9608 44.7087 91.6808 45.3087C92.5508 46.0387 93.3308 45.1987 93.5108 45.0287L93.5208 45.0387Z" fill="#99A2FF"/>
<path d="M87.0195 32.1372C87.3295 31.6372 87.2895 30.9472 87.0795 30.4772C86.8695 30.0072 86.5995 29.5872 86.2195 29.3672C85.9695 29.2172 85.4295 28.8072 84.6195 29.0772C84.2295 29.2072 83.7195 29.4372 83.7695 29.8472C84.0195 31.8072 85.7095 32.3372 85.8995 32.4272C86.2695 32.6072 86.7795 32.5072 87.0095 32.1372H87.0195Z" fill="#99A2FF"/>
<path d="M115.633 69.5518C114.433 68.3817 114.013 66.5915 113.613 65.0213C113.183 63.3311 112.873 61.6109 112.603 59.8907C112.083 56.5604 111.673 53.22 110.823 49.9496C109.213 43.7489 106.412 37.8282 102.382 32.8177C100.142 30.0274 97.5014 27.5571 94.5411 25.5368C93.621 24.9068 92.6509 26.3469 93.581 26.987C98.7616 30.5474 102.822 35.518 105.652 41.0986C107.073 43.9089 108.203 46.8693 109.023 49.9196C109.893 53.17 110.333 56.5004 110.833 59.8207C111.123 61.711 111.443 63.6012 111.923 65.4514C112.403 67.2816 112.923 69.3418 114.323 70.712C115.123 71.4921 116.434 70.3419 115.623 69.5619L115.633 69.5518Z" fill="#1C30FF"/>
<path d="M83.9497 69.9223C80.9694 68.0621 79.6192 64.6417 79.4192 64.6617C79.1792 64.6817 80.3093 68.4821 83.5897 70.7024C86.34 72.5626 90.0404 72.1226 90.0304 71.8925C90.0204 71.7025 86.75 71.6625 83.9497 69.9223Z" fill="#1C30FF"/>
<path d="M89.9802 25.8372C89.6501 25.5471 89.0701 26.3472 88.9801 28.4475C88.8901 30.5477 89.4101 32.6379 92.2504 35.1882C92.6005 35.5083 96.921 39.3387 97.321 38.3286C97.531 37.7985 94.3607 34.0181 92.5505 31.0078C90.8903 28.2374 91.0103 26.7373 89.9802 25.8372Z" fill="#919BFF"/>
</g>
<path d="M94.6311 69.9824C93.611 70.0324 92.6809 70.0624 91.8208 70.0624C88.1403 69.7424 85.7701 69.4724 83.1498 66.9821C82.9397 66.7721 82.7197 66.552 82.5097 66.322C79.7194 63.3017 79.5094 59.0912 79.1293 56.6609C79.0093 55.8708 79.9794 55.4308 80.5295 56.0208L80.5595 56.0508C80.9795 56.4709 83.2798 59.6612 86.7502 62.9516C87.3203 63.5017 87.9403 64.0417 88.5704 64.5818C90.4506 66.182 92.6008 67.6922 94.9011 68.7923C94.9911 68.8423 95.0711 68.8923 95.1311 68.9523C95.2912 69.1223 95.3612 69.3323 95.3612 69.5424V69.5924L95.3212 69.7024C95.2111 69.9724 95.0811 69.9624 94.6211 69.9824H94.6311Z" fill="#00074D"/>
<path d="M88.5798 64.5814C88.4198 64.7114 88.0598 64.9614 87.6598 65.0714C87.3398 65.1614 86.9098 65.2014 86.6198 65.2214C86.4398 65.2314 86.2798 65.0914 86.2798 64.9014C86.2798 64.6314 86.2798 64.2314 86.3398 63.8914C86.4198 63.4814 86.6298 63.1214 86.7498 62.9414C87.3298 63.4914 87.9398 64.0414 88.5698 64.5814H88.5798Z" fill="white"/>
<path d="M84.7394 61.0411C84.5594 61.1411 84.1594 61.3311 83.7494 61.3711C83.4194 61.4011 82.9894 61.3711 82.6994 61.3411C82.5194 61.3211 82.3894 61.1511 82.4194 60.9711C82.4594 60.7011 82.5293 60.3111 82.6493 59.9911C82.7893 59.6011 83.0593 59.2811 83.2193 59.1211C83.6993 59.7611 84.2094 60.4011 84.7394 61.0411Z" fill="white"/>
<path d="M94.6411 70.0724C89.9105 70.1124 86.2301 70.6524 82.5997 66.872C79.8494 64.3317 79.3493 60.4213 79.0893 56.9109C79.0693 56.6908 79.0193 56.4108 79.1493 56.1808C79.3793 55.7207 80.0194 55.5707 80.4095 55.8807C84.1899 60.0412 88.2103 64.0517 92.8309 67.302C93.5009 67.7621 94.201 68.2021 94.9211 68.5922C95.1611 68.7122 95.3912 68.9122 95.4812 69.1923C95.5512 69.4323 95.5112 69.6823 95.3812 69.8723C95.2211 70.1224 94.8711 70.0624 94.6411 70.0724ZM94.6311 69.8923C94.8311 69.8523 95.0711 69.9123 95.1811 69.7423C95.2911 69.5423 95.2711 69.2523 95.0311 69.0622C94.8411 68.9022 94.061 68.6222 93.791 68.4722C90.7406 67.072 88.0703 64.9518 85.7501 62.5515C84.1199 60.8313 82.6597 58.9311 81.2596 57.0209C81.0195 56.7208 80.6795 56.1608 80.3795 55.9207C79.9994 55.6307 79.3893 55.8007 79.2293 56.2308C79.1293 56.4408 79.1893 56.6608 79.2293 56.8909C79.7294 59.8712 80.3394 62.9215 82.1497 65.3818C85.42 69.7123 89.4705 70.3424 94.6211 69.9023L94.6311 69.8923Z" fill="#1C30FF"/>
<path d="M88.9904 42.0789C88.6804 41.8889 88.7804 41.4089 89.1504 41.3789C90.4204 41.2789 92.3204 41.3789 92.6604 42.8689C93.1804 45.1289 91.8704 45.1789 91.4304 44.4389C91.0604 43.8089 90.5404 43.0089 88.9904 42.0889V42.0789Z" fill="#00074D"/>
<path d="M84.5899 33.8577C84.5299 34.1977 84.9698 34.3777 85.2198 34.1177C86.0898 33.2177 87.2098 31.7177 86.2998 30.6577C84.9098 29.0277 84.0499 29.9977 84.3399 30.7377C84.5799 31.3577 84.8699 32.1877 84.5899 33.8577Z" fill="#00074D"/>
<path d="M94.4305 42.8193C95.8705 44.1693 94.8905 46.4393 93.0605 46.5893C92.5105 46.6393 91.9205 46.4893 91.5405 46.1093C93.5605 46.6693 95.4205 44.8693 94.4305 42.8193Z" fill="#1C30FF"/>
<path d="M86.9794 29.6076C86.7094 27.7676 84.3994 27.3376 83.2694 28.6976C82.9294 29.0976 82.7194 29.6376 82.8094 30.1476C83.4794 28.2676 85.9094 27.7576 86.9794 29.6076Z" fill="#1C30FF"/>
<path d="M107.352 67.5118C105.172 67.0218 106.002 65.3816 106.152 61.9712C106.292 58.7608 105.562 56.9206 106.392 56.5806C107.832 55.9905 108.732 58.1508 109.232 61.3311C109.733 64.5115 108.872 67.8619 107.352 67.5218V67.5118Z" fill="#828DFF"/>
<path d="M144.567 78.0131C145.567 79.2832 148.587 82.9836 149.507 85.2139C150.407 87.4042 149.987 89.8444 149.777 89.8644C149.417 89.8844 150.617 85.694 144.787 79.4732C142.816 77.373 138.616 73.8226 136.836 72.5325C136.466 72.2624 135.966 72.3624 136.016 72.3224C136.256 72.1124 136.426 72.0724 136.846 72.2224C138.886 72.9825 142.966 75.9828 144.567 78.0131Z" fill="#6E7BFF"/>
<path d="M139.856 79.4635C140.626 80.7636 142.726 84.544 143.066 86.7943C143.407 88.9845 142.476 91.1848 142.276 91.1548C141.936 91.1048 144.627 88.4545 140.006 80.6136C138.646 78.3133 135.586 74.2729 134.236 72.7527C133.955 72.4327 133.475 72.3026 133.535 72.2726C133.805 72.1126 133.825 72.1326 134.165 72.3626C135.346 73.1627 138.736 77.5532 139.856 79.4635Z" fill="#6E7BFF"/>
<path d="M153.667 85.8642C153.617 85.9042 153.778 85.4341 153.557 85.0341C152.497 83.1039 148.697 77.9633 146.617 75.973C142.486 72.0026 135.665 72.1926 133.155 72.3626C132.545 72.4026 131.485 74.2729 130.935 75.373C130.775 75.703 130.655 75.933 130.635 75.923C130.515 75.923 130.635 75.523 130.855 74.9529C131.265 73.9328 131.775 72.8827 132.185 72.3226C132.825 71.4425 139.516 71.6025 141.096 72.0426C144.526 72.9827 147.187 74.9129 148.187 76.1931C149.727 78.1433 153.077 82.5438 153.798 84.774C153.828 84.8741 153.858 84.9641 153.878 85.0641C153.978 85.5041 153.928 85.6641 153.687 85.8742L153.667 85.8642Z" fill="#1C30FF"/>
<path d="M95.7709 69.7917C94.7909 67.3917 95.9609 65.4717 95.8009 65.3617C95.6209 65.2217 94.0609 67.1217 95.0209 69.8217C95.8309 72.0817 98.7509 74.1818 98.8909 74.1018C99.0009 74.0318 96.6809 72.0417 95.7709 69.7917Z" fill="#1C30FF"/>
<path d="M138.486 22.597C138.486 22.597 140.746 25.3173 141.636 28.9177C142.467 32.2681 141.887 36.3886 140.796 38.3088C139.116 41.2491 137.636 40.369 137.356 39.519C136.616 37.2587 141.316 34.2183 139.836 28.1677C138.846 24.1372 136.676 20.5368 138.486 22.607V22.597Z" fill="#FF87CB"/>
<path d="M149.057 36.3083C149.477 36.8584 148.117 39.7287 145.977 42.5491C143.727 45.5194 142.736 46.0495 141.916 44.8793C140.856 43.3591 142.416 42.9491 144.587 41.1289C146.417 39.5987 148.627 35.7583 149.047 36.3083H149.057Z" fill="#FF87CB"/>
<path d="M98.0112 22.0867C104.522 23.2768 110.673 29.2375 109.343 36.2483L108.722 36.0082C109.503 34.7981 110.083 33.3779 110.523 31.9778C110.943 30.5476 111.213 29.0675 111.343 27.5573C111.413 31.1177 110.513 34.6981 108.512 37.7084C108.772 35.6782 108.922 33.458 108.172 31.5377C106.512 26.9572 101.862 24.4469 98.0212 22.0767L98.0112 22.0867Z" fill="#3647FF"/>
<path d="M120.744 66.0219C121.714 57.361 120.784 47.8399 111.633 44.1895C115.653 44.2995 120.174 45.0396 122.934 48.2199C121.674 46.9498 120.054 46.1697 118.384 45.6896C116.703 45.2196 114.943 44.9895 113.223 44.9595L113.373 44.3095C115.283 45.1796 117.063 46.4197 118.414 48.0699C122.474 52.8704 122.974 60.5413 120.744 66.0219Z" fill="#3647FF"/>
<path d="M60.6167 108.847C60.6167 108.847 62.2167 108.997 63.6467 108.897C64.4367 108.847 65.1867 108.717 65.5567 108.437L65.5867 108.417C65.5867 108.417 65.6667 108.347 65.7067 108.297L65.7367 108.247C65.7767 108.187 65.7967 108.107 65.7967 108.037C65.8067 107.887 65.7567 107.717 65.6167 107.527C65.5967 107.497 65.5767 107.467 65.5567 107.437C65.2767 107.087 64.9767 106.847 64.6467 106.687C64.4767 106.597 64.3067 106.537 64.1367 106.487C64.0667 106.467 63.9967 106.447 63.9267 106.437C63.8267 106.417 63.7167 106.407 63.6167 106.397C63.5567 106.397 63.4867 106.387 63.4267 106.387C63.3667 106.387 63.3067 106.387 63.2467 106.387C63.0667 106.387 62.8867 106.407 62.7167 106.427H62.6467C62.3367 106.487 62.0567 106.557 61.8167 106.637C61.6767 106.687 61.5567 106.727 61.4567 106.767C61.2667 106.837 61.1567 106.897 61.1567 106.897C59.8667 108.177 60.6267 108.857 60.6267 108.857" fill="#293CFF"/>
<path d="M66.9475 111.077C66.6374 111.507 66.3774 112.017 66.2074 112.597C66.0974 112.967 66.0174 113.367 65.9774 113.797C65.9774 113.897 65.9574 113.998 65.9574 114.108C65.9474 114.428 65.9574 114.758 65.9874 115.108C66.0274 115.628 66.1274 116.178 66.2874 116.768C66.3074 116.848 66.3374 116.938 66.3574 117.018C66.4674 117.368 66.6174 117.718 66.8075 118.068C66.8275 118.108 66.8475 118.158 66.8775 118.208C69.7978 123.499 80.509 128.399 84.8295 129.749C89.54 131.219 92.6804 128.729 96.9409 121.678C97.981 119.958 98.8411 118.298 99.5212 116.718C99.5212 116.718 99.5212 116.718 99.5212 116.708C99.5312 116.688 99.5612 116.618 99.6012 116.518C100.691 113.937 101.341 111.557 101.641 109.397C102.231 105.157 101.501 101.746 100.241 99.3258C98.4511 95.8954 95.6007 94.4453 93.9205 95.4154C93.7205 95.5354 93.5205 95.6654 93.3205 95.7954C89.37 98.5057 90.8102 112.337 85.2496 115.728C83.3693 116.878 69.0577 109.137 67.5575 108.497C67.1875 108.347 66.9375 111.067 66.9375 111.067L66.9475 111.077Z" fill="#4F5FFF"/>
<path d="M68.8374 110.197C67.0172 110.227 66.9172 113.997 67.3672 118.068C67.4772 119.048 70.5476 119.938 71.1476 121.298C72.2178 123.718 82.0889 128.759 86.8494 129.229C89.8398 129.529 94.7803 124.809 98.3807 118.108C99.2808 116.428 100.201 114.127 100.961 111.727C101.211 110.957 101.441 110.177 101.641 109.397C102.351 106.737 102.801 104.156 102.761 102.366C102.691 99.5857 101.441 96.8454 99.9609 94.9152C99.0908 93.775 98.1307 92.9049 97.2906 92.4849C95.6004 91.6348 94.4703 95.0852 93.9102 95.4152C93.8802 95.4552 93.8402 95.4852 93.8102 95.5252C90.4298 98.9256 91.92 113.217 87.1194 117.578C84.4891 119.968 71.0776 110.147 68.8174 110.197H68.8374Z" fill="#6B78FF"/>
<path d="M102.391 101.716C102.711 103.736 101.251 110.237 100.971 111.737C100.511 114.187 99.8411 115.957 99.6111 116.527C100.441 114.567 101.091 112.707 101.511 111.007C102.141 108.427 102.881 104.816 102.901 102.696C102.941 97.6153 98.531 92.4447 97.3208 92.4847C96.0407 92.1047 101.211 94.1149 102.401 101.716H102.391Z" fill="#B3B9FF"/>
<path d="M90.8203 127.649C88.64 129.629 85.4997 130.779 76.2486 125.289C74.3484 124.158 73.0382 123.148 71.9281 122.338C63.7972 116.398 68.2177 116.748 68.7778 116.028C69.8179 114.677 74.6084 122.548 81.2992 126.169C88.3 129.949 91.3703 127.149 90.8103 127.649H90.8203Z" fill="#8792FF"/>
<path d="M67.8074 118.708C67.1973 119.438 65.6272 120.628 63.6569 120.018C63.6069 119.998 63.5669 119.978 63.5169 119.968C63.1569 119.808 62.8068 119.628 62.4968 119.408C62.4268 119.358 62.3468 119.308 62.2768 119.258C61.7767 118.878 61.3467 118.478 60.9766 118.088C60.7266 117.808 60.5066 117.538 60.3165 117.248C60.2565 117.158 60.2065 117.068 60.1365 116.968C59.8865 116.568 59.6865 116.167 59.5265 115.767C59.2764 115.127 59.1464 114.497 59.1064 113.887C59.1064 113.887 59.1064 113.877 59.1064 113.867C59.0864 113.587 59.0864 113.327 59.0964 113.067C59.0964 112.967 59.1064 112.857 59.1164 112.757C59.1564 112.267 59.2664 111.787 59.3964 111.347C59.6865 110.447 60.1465 109.687 60.6466 109.167C60.7866 109.017 60.9266 108.897 61.0566 108.787C61.4867 108.457 62.3768 108.197 63.5269 107.957C63.6569 107.937 63.7869 107.907 63.917 107.887C65.5071 107.466 67.6674 108.267 68.1074 108.877C68.3975 109.287 68.6475 109.717 68.8475 110.197C69.3276 111.317 69.5276 112.597 69.4276 113.767C69.3976 114.207 69.3476 114.997 69.1476 115.887C68.9375 116.808 68.5475 117.838 67.8074 118.708Z" fill="#4F5FFF"/>
<path d="M67.8078 118.708C67.3477 118.748 66.8076 118.648 66.1676 118.328C65.0074 117.788 64.4374 116.798 63.9273 115.618C62.8772 113.187 62.5472 109.857 65.1575 108.517L65.2075 108.497C65.2675 108.467 65.3375 108.437 65.3975 108.417C65.5575 108.357 65.7075 108.297 65.8575 108.257C66.0076 108.227 66.1676 108.207 66.3176 108.187C66.9877 108.157 67.5877 108.437 68.0978 108.877C68.3878 109.287 68.6379 109.717 68.8379 110.197C69.3179 111.317 69.518 112.597 69.4179 113.767C69.3879 114.207 69.3379 114.998 69.1379 115.888C68.9279 116.808 68.5378 117.838 67.7978 118.708H67.8078Z" fill="#6B78FF"/>
<path d="M69.1377 115.887C68.4777 115.667 67.7977 115.057 67.6277 114.457C67.3877 113.647 67.4577 111.707 68.3377 110.627C68.4777 110.457 68.6477 110.317 68.8277 110.197C69.3077 111.317 69.5077 112.587 69.4077 113.767C69.3777 114.207 69.3277 114.997 69.1277 115.887H69.1377Z" fill="#8892FF"/>
<path d="M62.7764 118.417C62.1464 119.017 61.0564 119.317 59.4964 119.077C58.0764 118.857 58.2264 116.607 59.0764 116.307H59.1164C59.9964 116.057 63.4864 115.667 63.3964 117.067C63.3664 117.587 63.1564 118.057 62.7764 118.417Z" fill="#293CFF"/>
<path d="M62.7766 118.418C62.1266 118.828 61.1566 118.998 59.8466 118.798C58.6566 118.618 58.5666 116.988 59.0766 116.308H59.1166C59.3566 116.228 59.7666 116.158 60.2666 116.108C61.6066 115.968 63.4666 116.038 63.3966 117.058C63.3966 117.228 63.3566 117.398 63.2966 117.558C63.2066 117.888 63.0366 118.178 62.7866 118.408L62.7766 118.418Z" fill="#4F5FFF"/>
<path d="M63.0364 116.407C62.4464 116.017 61.2164 116.017 60.2564 116.117C59.9964 116.307 59.8764 116.557 60.0064 116.847C60.1564 117.187 60.4064 117.487 60.7264 117.697C60.7864 117.737 60.8464 117.767 60.9064 117.797C61.5264 117.987 62.3364 117.947 63.2964 117.567C63.3564 117.407 63.3864 117.247 63.3964 117.067C63.4164 116.777 63.2764 116.557 63.0464 116.407H63.0364Z" fill="#7B87FF"/>
<path d="M61.6963 114.907C61.0663 115.507 59.9763 115.807 58.4163 115.567C56.9963 115.347 57.1463 113.097 57.9963 112.797H58.0363C58.9163 112.547 62.4063 112.157 62.3163 113.557C62.2863 114.077 62.0763 114.547 61.6963 114.907Z" fill="#293CFF"/>
<path d="M61.6965 114.907C61.0465 115.317 60.0765 115.487 58.7665 115.287C57.5765 115.107 57.4865 113.477 57.9965 112.797H58.0365C58.2765 112.717 58.6865 112.647 59.1865 112.597C60.5265 112.457 62.3865 112.527 62.3165 113.547C62.3165 113.717 62.2765 113.887 62.2165 114.047C62.1265 114.377 61.9565 114.667 61.7065 114.897L61.6965 114.907Z" fill="#4F5FFF"/>
<path d="M61.9564 112.897C61.3664 112.507 60.1364 112.507 59.1764 112.607C58.9164 112.797 58.7964 113.047 58.9264 113.337C59.0764 113.677 59.3264 113.977 59.6464 114.187C59.7064 114.227 59.7664 114.257 59.8264 114.287C60.4464 114.477 61.2564 114.437 62.2164 114.057C62.2764 113.897 62.3064 113.737 62.3164 113.557C62.3364 113.267 62.1964 113.047 61.9664 112.897H61.9564Z" fill="#7B87FF"/>
<path d="M61.7764 111.236C61.1464 111.836 60.0564 112.136 58.4964 111.896C57.0764 111.676 57.2264 109.426 58.0764 109.126H58.1164C58.9964 108.876 62.4864 108.486 62.3964 109.886C62.3664 110.406 62.1564 110.876 61.7764 111.236Z" fill="#293CFF"/>
<path d="M61.7766 111.236C61.1266 111.646 60.1566 111.816 58.8466 111.616C57.6566 111.436 57.5666 109.806 58.0766 109.126H58.1166C58.3566 109.046 58.7666 108.976 59.2666 108.926C60.6066 108.786 62.4666 108.856 62.3966 109.876C62.3966 110.046 62.3566 110.216 62.2966 110.376C62.2066 110.706 62.0366 110.996 61.7866 111.226L61.7766 111.236Z" fill="#4F5FFF"/>
<path d="M62.0462 109.226C61.4562 108.836 60.2262 108.836 59.2662 108.936C59.0062 109.126 58.8862 109.376 59.0162 109.666C59.1662 110.006 59.4162 110.306 59.7362 110.516C59.7962 110.556 59.8562 110.586 59.9162 110.616C60.5362 110.806 61.3462 110.766 62.3062 110.386C62.3662 110.226 62.3962 110.066 62.4062 109.886C62.4262 109.596 62.2862 109.376 62.0562 109.226H62.0462Z" fill="#7B87FF"/>
<path d="M47.3453 19.6664C47.1253 19.2663 46.9153 18.8663 46.7053 18.4562C46.4952 18.0462 46.2952 17.6462 46.1052 17.2461C45.9152 16.8461 45.7351 16.456 45.5551 16.076C45.3851 15.6959 45.2351 15.3159 45.0951 14.9658C45.0051 14.7858 44.905 14.6358 44.805 14.5158C44.705 14.3958 44.575 14.2958 44.425 14.1958C44.265 14.1057 44.085 14.0457 43.8749 14.0357C43.6649 14.0257 43.4249 14.0857 43.1448 14.2158C42.8948 14.3358 42.7148 14.4858 42.6148 14.6358C42.5148 14.7858 42.4648 14.9358 42.4548 15.0759C42.4548 15.2159 42.4648 15.3759 42.5248 15.5759C42.6948 15.996 42.8648 16.416 43.0548 16.8561C43.2349 17.2861 43.4349 17.7262 43.6349 18.1562L41.1746 19.6064C40.9946 19.2363 40.8246 18.8663 40.6646 18.5062C40.4945 18.1262 40.3445 17.7462 40.2045 17.3861C40.1145 17.2061 40.0145 17.0561 39.9145 16.9361C39.8145 16.8161 39.6845 16.716 39.5344 16.616C39.3844 16.516 39.2044 16.466 38.9844 16.456C38.7744 16.456 38.5243 16.506 38.2443 16.636C37.9943 16.756 37.8142 16.8961 37.7142 17.0561C37.6142 17.2061 37.5642 17.3561 37.5542 17.4961C37.5442 17.6361 37.5642 17.7962 37.6242 17.9962C37.7942 18.4162 37.9643 18.8363 38.1543 19.2763C38.3443 19.7164 38.5343 20.1564 38.7343 20.5965C38.9344 21.0365 39.1544 21.4666 39.3644 21.8866C39.5844 22.3067 39.8045 22.7167 40.0245 23.1068C40.2445 23.4968 40.4545 23.8669 40.6746 24.2069C40.8246 24.3869 40.9846 24.5269 41.1346 24.6269C41.2846 24.727 41.4647 24.787 41.6847 24.817C41.8947 24.847 42.1347 24.797 42.4048 24.6669C42.6848 24.5369 42.8748 24.3869 42.9848 24.2269C43.0948 24.0669 43.1448 23.9069 43.1548 23.7568C43.1548 23.6068 43.1348 23.4368 43.0748 23.2468C42.8648 22.8667 42.6548 22.4867 42.4348 22.0867C42.3648 21.9666 42.3048 21.8366 42.2347 21.7166L44.715 20.2864C44.785 20.4165 44.855 20.5465 44.9251 20.6665C45.1451 21.0565 45.3551 21.4266 45.5751 21.7666C45.7251 21.9466 45.8852 22.0867 46.0352 22.1867C46.1852 22.2867 46.3652 22.3467 46.5852 22.3767C46.7953 22.4067 47.0353 22.3567 47.3053 22.2267C47.5854 22.0967 47.7754 21.9566 47.8854 21.7866C47.9954 21.6266 48.0454 21.4666 48.0554 21.3166C48.0654 21.1666 48.0354 20.9965 47.9754 20.8065C47.7654 20.4265 47.5553 20.0464 47.3353 19.6464L47.3453 19.6664Z" fill="#FF0090"/>
<path d="M54.396 15.7659C54.046 15.3058 53.6859 14.8758 53.3459 14.4757C52.9959 14.0757 52.6758 13.7356 52.3758 13.4256C52.0757 13.1256 51.8257 12.8755 51.6257 12.6855C51.3657 12.3855 51.0756 12.1555 50.7656 11.9854C50.4456 11.8154 50.1455 11.6954 49.8355 11.6254C49.5355 11.5554 49.2554 11.5354 49.0154 11.5454C48.7754 11.5554 48.5854 11.6154 48.4553 11.7154C48.2653 11.8054 48.0853 11.9154 47.9053 12.0454C47.7353 12.1655 47.5852 12.3655 47.4552 12.6255C47.3252 12.8955 47.2452 13.2756 47.2052 13.7856C47.1652 14.2957 47.1852 14.9758 47.2752 15.8359C47.3952 16.626 47.5352 17.396 47.6953 18.1561C47.8553 18.9062 48.0853 19.6063 48.3953 20.2664C48.5153 20.4764 48.6554 20.6364 48.8054 20.7564C48.9554 20.8764 49.1454 20.9565 49.3754 21.0065C49.6055 21.0565 49.8855 21.0165 50.2155 20.9064C50.5056 20.8064 50.7156 20.6764 50.8456 20.5264C50.9756 20.3764 51.0456 20.2264 51.0756 20.0664C51.1056 19.9163 51.1056 19.7363 51.0756 19.5263C50.9956 19.3163 50.9356 19.1462 50.8856 18.9962C51.1456 18.8462 51.4157 18.6962 51.7157 18.5562C52.0757 18.3862 52.4358 18.2361 52.7958 18.0961C52.8158 18.0961 52.8258 18.0961 52.8458 18.0761C52.9058 18.1561 52.9658 18.2261 53.0259 18.3062C53.1959 18.4662 53.3659 18.5962 53.5359 18.6862C53.6959 18.7762 53.896 18.8262 54.116 18.8462C54.346 18.8562 54.586 18.7962 54.8561 18.6662C55.1261 18.5362 55.3061 18.3862 55.4061 18.2261C55.5061 18.0661 55.5461 17.9061 55.5461 17.7561C55.5461 17.6061 55.5061 17.4361 55.4361 17.246C55.1161 16.726 54.7761 16.2359 54.426 15.7759L54.396 15.7659ZM50.3256 17.156C50.3055 17.086 50.2955 17.036 50.2655 16.956C50.2155 16.736 50.1755 16.4759 50.1355 16.1959C50.0955 15.9159 50.0655 15.6258 50.0355 15.3458C50.0055 15.0658 49.9755 14.8258 49.9355 14.6257C50.1855 14.8858 50.4456 15.1658 50.7056 15.4558C50.9456 15.7259 51.2357 16.0559 51.5557 16.4359C51.4957 16.4659 51.4257 16.4859 51.3757 16.5159C51.0056 16.716 50.6556 16.926 50.3256 17.156Z" fill="#FF0090"/>
<path d="M70.3174 13.4557C70.2674 13.3557 70.1874 13.2757 70.0774 13.2057C69.9674 13.1357 69.8274 13.0957 69.6374 13.0757C69.4674 13.0757 69.3374 13.0857 69.2374 13.1357C69.1374 13.1857 69.0674 13.2457 69.0174 13.3157C68.9674 13.3857 68.9274 13.4757 68.9074 13.5957C68.8674 13.8657 68.8374 14.1457 68.8074 14.4357C68.7774 14.7157 68.7474 15.0057 68.7274 15.2957L66.9874 15.3257C67.0074 15.0757 67.0274 14.8357 67.0474 14.5957C67.0774 14.3457 67.0974 14.0957 67.1374 13.8657C67.1374 13.7357 67.1374 13.6357 67.1174 13.5457C67.0974 13.4557 67.0674 13.3557 67.0174 13.2657C66.9674 13.1657 66.8874 13.0857 66.7774 13.0157C66.6674 12.9457 66.5174 12.9057 66.3374 12.8857C66.1674 12.8857 66.0374 12.8957 65.9374 12.9457C65.8374 12.9957 65.7674 13.0557 65.7174 13.1257C65.6674 13.1957 65.6374 13.2857 65.6074 13.4057C65.5674 13.6757 65.5374 13.9557 65.5074 14.2457C65.4774 14.5357 65.4474 14.8257 65.4274 15.1157C65.3974 15.4057 65.3874 15.6957 65.3774 15.9857C65.3774 16.2757 65.3674 16.5557 65.3574 16.8257C65.3574 17.0957 65.3574 17.3557 65.3674 17.6057C65.3974 17.7457 65.4274 17.8657 65.4874 17.9657C65.5374 18.0657 65.6174 18.1557 65.7174 18.2357C65.8174 18.3157 65.9674 18.3557 66.1474 18.3657C66.3374 18.3857 66.4774 18.3657 66.5874 18.3057C66.6974 18.2557 66.7674 18.1857 66.8174 18.1057C66.8674 18.0257 66.9074 17.9357 66.9274 17.8157C66.9274 17.5557 66.9274 17.2857 66.9374 17.0157C66.9374 16.9357 66.9374 16.8457 66.9374 16.7657H68.6774C68.6774 16.8357 68.6774 16.9257 68.6774 17.0157C68.6774 17.2857 68.6774 17.5457 68.6874 17.7957C68.7174 17.9357 68.7574 18.0557 68.8074 18.1557C68.8574 18.2557 68.9374 18.3457 69.0374 18.4257C69.1374 18.5057 69.2874 18.5457 69.4674 18.5557C69.6574 18.5757 69.7974 18.5557 69.9074 18.4957C70.0074 18.4457 70.0874 18.3757 70.1374 18.2957C70.1874 18.2157 70.2274 18.1257 70.2474 18.0057C70.2474 17.7457 70.2474 17.4757 70.2574 17.2057C70.2574 16.9257 70.2674 16.6557 70.2774 16.3757C70.2874 16.0957 70.3074 15.8257 70.3174 15.5557C70.3274 15.2857 70.3574 15.0257 70.3774 14.7757C70.3974 14.5257 70.4274 14.2757 70.4674 14.0457C70.4674 13.9157 70.4674 13.8157 70.4474 13.7157C70.4274 13.6257 70.3974 13.5257 70.3374 13.4357L70.3174 13.4557Z" fill="#FF0090"/>
<path d="M74.9481 16.2656C74.8781 15.9556 74.8181 15.6756 74.7481 15.4156C74.6781 15.1656 74.6181 14.9556 74.5681 14.7956C74.5181 14.5556 74.4381 14.3556 74.3181 14.1656C74.1981 13.9756 74.0781 13.8256 73.9381 13.6956C73.7981 13.5656 73.6581 13.4756 73.5281 13.4056C73.3981 13.3456 73.2781 13.3156 73.1881 13.3256C73.0581 13.3256 72.9281 13.3256 72.7981 13.3256C72.6681 13.3356 72.5281 13.3956 72.3881 13.4956C72.2381 13.5956 72.0781 13.7756 71.9081 14.0256C71.7381 14.2756 71.5381 14.6456 71.3281 15.1256C71.1581 15.5856 70.9981 16.0356 70.8581 16.4756C70.7181 16.9256 70.6281 17.3656 70.5981 17.7956C70.5981 17.9456 70.6281 18.0756 70.6681 18.1756C70.7081 18.2856 70.7881 18.3856 70.8981 18.4756C71.0081 18.5656 71.1681 18.6356 71.3781 18.6756C71.5581 18.7056 71.7081 18.7056 71.8281 18.6656C71.9381 18.6256 72.0281 18.5656 72.0881 18.4956C72.1481 18.4156 72.1981 18.3256 72.2481 18.2056C72.2681 18.0656 72.2881 17.9656 72.3081 17.8656C72.4881 17.8656 72.6781 17.8656 72.8781 17.8756C73.1181 17.8956 73.3581 17.9256 73.5881 17.9556C73.5981 17.9556 73.6081 17.9556 73.6181 17.9556C73.6181 18.0156 73.6381 18.0656 73.6481 18.1356C73.6881 18.2756 73.7481 18.3956 73.8081 18.4856C73.8681 18.5856 73.9581 18.6656 74.0681 18.7456C74.1881 18.8156 74.3281 18.8656 74.5081 18.8756C74.6881 18.8756 74.8281 18.8656 74.9281 18.8056C75.0281 18.7456 75.0981 18.6756 75.1481 18.5956C75.1981 18.5156 75.2281 18.4156 75.2381 18.2956C75.2281 17.9256 75.1881 17.5656 75.1481 17.2156C75.0981 16.8656 75.0381 16.5356 74.9781 16.2156L74.9481 16.2656ZM72.5381 16.7756C72.5381 16.7756 72.5581 16.7056 72.5681 16.6556C72.6081 16.5156 72.6681 16.3756 72.7281 16.2156C72.7881 16.0556 72.8581 15.8956 72.9281 15.7356C72.9981 15.5756 73.0481 15.4356 73.0881 15.3256C73.1481 15.5356 73.1981 15.7656 73.2481 15.9956C73.2981 16.2156 73.3481 16.4756 73.4081 16.7656C73.3681 16.7656 73.3281 16.7556 73.2881 16.7556C73.0281 16.7556 72.7881 16.7556 72.5381 16.7856V16.7756Z" fill="#FF0090"/>
<path d="M85.5389 1.2841C85.5289 1.1741 85.4889 1.0641 85.4389 0.954095C85.3889 0.844095 85.2989 0.734095 85.1789 0.654095C85.0589 0.564095 84.8989 0.504095 84.6889 0.474095C84.4989 0.444095 84.3389 0.464095 84.2189 0.514095C84.0989 0.564095 84.0089 0.624095 83.9489 0.704095C83.8889 0.784095 83.8389 0.884095 83.7989 1.0241C83.7389 1.3341 83.6689 1.6441 83.6089 1.9741C83.5489 2.2941 83.4889 2.6241 83.4389 2.9541L81.4489 2.8441C81.4889 2.5641 81.5289 2.2841 81.5789 2.0141C81.6289 1.7241 81.6789 1.4541 81.7389 1.1941C81.7589 1.0541 81.7589 0.924095 81.7389 0.824095C81.7289 0.714095 81.6889 0.604095 81.6389 0.494095C81.5889 0.384095 81.4989 0.274095 81.3789 0.194095C81.2589 0.104095 81.0889 0.0440954 80.8789 0.0140954C80.6889 -0.0159046 80.5289 0.0040954 80.4089 0.0540954C80.2889 0.104095 80.1989 0.164095 80.1389 0.244095C80.0789 0.324095 80.0289 0.424095 79.9889 0.564095C79.9189 0.874095 79.8589 1.1841 79.7989 1.5141C79.7389 1.8441 79.6789 2.1741 79.6289 2.5041C79.5789 2.8341 79.5289 3.1741 79.4989 3.5041C79.4589 3.8341 79.4389 4.1541 79.4089 4.4641C79.3889 4.7741 79.3689 5.0741 79.3589 5.3541C79.3789 5.5241 79.4089 5.6641 79.4589 5.7741C79.5089 5.8841 79.5889 5.9941 79.6989 6.0941C79.8089 6.1941 79.9689 6.2541 80.1789 6.2841C80.3889 6.3141 80.5589 6.3041 80.6889 6.2541C80.8089 6.2041 80.9089 6.1341 80.9689 6.0441C81.0289 5.9541 81.0789 5.8541 81.1189 5.7141C81.1389 5.4141 81.1689 5.1041 81.1989 4.7941C81.1989 4.6941 81.2189 4.6041 81.2289 4.5041L83.2189 4.6341C83.2189 4.7341 83.1989 4.8341 83.1889 4.9341C83.1689 5.2441 83.1489 5.5441 83.1389 5.8241C83.1589 5.9941 83.1889 6.1341 83.2389 6.2441C83.2889 6.3641 83.3689 6.4641 83.4789 6.5641C83.5889 6.6641 83.7489 6.7241 83.9589 6.7541C84.1689 6.7841 84.3389 6.7841 84.4689 6.7241C84.5889 6.6741 84.6889 6.6041 84.7489 6.5241C84.8089 6.4441 84.8589 6.3341 84.8989 6.1941C84.9189 5.8941 84.9489 5.5941 84.9789 5.2741C85.0089 4.9641 85.0389 4.6441 85.0689 4.3241C85.1089 4.0041 85.1489 3.6941 85.1889 3.3841C85.2289 3.0841 85.2789 2.7841 85.3289 2.4941C85.3789 2.2041 85.4289 1.9341 85.4889 1.6741C85.5089 1.5341 85.5089 1.4041 85.4889 1.3041L85.5389 1.2841Z" fill="#FF0090"/>
<path d="M90.6294 5.71396C90.5994 5.30396 90.5694 4.92396 90.5194 4.55396C90.4694 4.19396 90.4194 3.86396 90.3594 3.57396C90.2994 3.28396 90.2494 3.04396 90.2094 2.85396C90.1694 2.58396 90.0994 2.33396 89.9794 2.11396C89.8594 1.89396 89.7294 1.70396 89.5794 1.54396C89.4294 1.38396 89.2794 1.26396 89.1294 1.18396C88.9794 1.10396 88.8494 1.06396 88.7394 1.06396C88.5894 1.04396 88.4394 1.03396 88.2994 1.04396C88.1494 1.04396 87.9894 1.10396 87.8094 1.20396C87.6294 1.30396 87.4294 1.50396 87.2094 1.77396C86.9894 2.05396 86.7394 2.45396 86.4594 2.99396C86.2194 3.50396 86.0094 4.00396 85.8094 4.50396C85.6094 5.00396 85.4794 5.50396 85.3994 5.99396C85.3994 6.16396 85.3994 6.31396 85.4494 6.43396C85.4894 6.56396 85.5694 6.68396 85.6794 6.79396C85.7994 6.91396 85.9694 7.00396 86.2094 7.06396C86.4194 7.11396 86.5894 7.12396 86.7294 7.08396C86.8594 7.04396 86.9694 6.98396 87.0394 6.90396C87.1194 6.82396 87.1894 6.72396 87.2494 6.59396C87.2894 6.44396 87.3194 6.32396 87.3394 6.21396C87.5494 6.22396 87.7694 6.24396 87.9894 6.27396C88.2594 6.31396 88.5294 6.36396 88.7894 6.42396C88.7994 6.42396 88.8094 6.42396 88.8194 6.42396C88.8194 6.49396 88.8294 6.55396 88.8394 6.62396C88.8794 6.78396 88.9294 6.92396 88.9894 7.04396C89.0494 7.15396 89.1394 7.26396 89.2694 7.36396C89.3994 7.45396 89.5594 7.51396 89.7694 7.54396C89.9794 7.57396 90.1394 7.55396 90.2594 7.49396C90.3794 7.43396 90.4694 7.36396 90.5194 7.27396C90.5794 7.18396 90.6194 7.07396 90.6494 6.93396C90.6594 6.51396 90.6494 6.09396 90.6294 5.68396V5.71396ZM87.7194 4.94396C87.7194 4.94396 87.7494 4.86396 87.7594 4.81396C87.8194 4.66396 87.8894 4.50396 87.9794 4.32396C88.0694 4.14396 88.1594 3.96396 88.2494 3.79396C88.3394 3.61396 88.4094 3.46396 88.4694 3.33396C88.5194 3.58396 88.5594 3.84396 88.5994 4.11396C88.6394 4.36396 88.6694 4.66396 88.7194 5.01396C88.6794 5.01396 88.6294 4.99396 88.5794 4.99396C88.2894 4.96396 87.9994 4.95396 87.7194 4.96396V4.94396Z" fill="#FF0090"/>
</svg>
