<svg width="221" height="228" viewBox="0 0 221 228" fill="none" xmlns="http://www.w3.org/2000/svg">
<mask id="mask0_115_721" style="mask-type:luminance" maskUnits="userSpaceOnUse" x="0" y="0" width="221" height="228">
<path d="M5.81609 180.06C14.2262 194.922 25.0275 203.229 42.0642 204.27C52.9788 204.93 66.0888 209.052 78.2505 221.606C81.5898 225.048 105.192 228.738 124.97 227.872C151.324 226.718 170.968 222.688 177.173 218.205C197.456 203.528 214.142 213.69 217.348 204.25C222.264 189.789 220.893 21.7928 217.348 13.2487C213.802 4.70456 83.5377 -10.5697 65.8929 11.0843C24.5946 61.7822 42.9609 35.5417 22.1004 64.9566C1.23999 94.3715 -2.32608 128.62 1.17815 163.023L2.27064 173.804L5.81609 180.06Z" fill="white"/>
</mask>
<g mask="url(#mask0_115_721)">
<path d="M105.058 184.316C103.501 187.274 100.76 190.757 99.1624 192.808L99.1212 192.829C81.9814 193.643 79.1265 198.621 74.4473 201.033C65.089 205.856 59.6575 205.98 55.8543 204.032C54.6176 203.404 53.5457 202.569 52.5769 201.6C49.8044 198.827 47.7946 195.055 44.713 192.324C42.6826 190.52 40.6831 190.273 38.7764 189.912C36.7666 189.49 34.829 188.964 33.046 186.305C32.8398 186.037 32.644 185.697 32.4585 185.357C32.0153 184.584 31.7473 183.821 31.603 183.11C30.8507 179.338 33.283 175.937 31.9844 170.567C30.9537 166.352 26.6971 162.724 26.5735 159.786C26.5735 159.601 26.5941 159.426 26.6147 159.24C26.8002 158.065 27.1815 157.096 27.6866 156.282C29.3253 153.551 32.2627 152.469 33.5613 150.613C37.3541 145.244 32.5719 139.142 33.4994 137.73L33.5613 137.71C33.7056 137.751 34.8599 136.998 36.2719 136.761C51.4844 134.267 66.0269 140.41 75.3337 143.79C76.7354 144.296 78.0855 144.883 79.3636 145.574C95.1429 153.695 103.089 172.742 106.181 179.997C106.583 180.946 106.058 182.512 105.068 184.295L105.058 184.316Z" fill="#828DFF"/>
<path d="M105.058 184.316C103.563 184.017 102.1 184.254 100.502 184.584C97.9669 185.13 95.4005 185.677 92.8858 186.285C87.8665 187.521 82.9812 189.14 78.3638 191.428C70.6236 195.272 63.5946 200.26 55.8543 204.033C54.6176 203.404 53.5457 202.569 52.5769 201.6C56.3697 199.92 60.0697 197.972 63.677 195.808C68.0779 193.19 72.4273 190.459 77.0446 188.191C81.7238 185.862 86.6709 184.244 91.7726 182.987C94.6688 182.275 97.5649 181.626 100.482 181.018C101.234 180.874 101.997 180.771 102.729 180.699C101.822 180.152 100.801 179.75 99.7499 179.482C96.7507 178.689 93.5557 178.328 90.474 178.06C84.0324 177.452 77.529 177.637 71.108 178.307C58.163 179.627 45.5787 182.945 33.046 186.305C32.8398 186.037 32.644 185.697 32.4585 185.357C32.0153 184.584 31.7473 183.821 31.603 183.11C51.0721 177.885 70.6442 172.721 91.0203 174.597C94.7306 174.937 99.585 175.329 103.378 177.071C102.471 175.958 101.368 174.989 100.234 174.133C97.7195 172.247 94.8852 170.691 92.0097 169.351C86.0937 166.599 79.7758 164.837 73.3755 163.579C59.2555 160.786 44.6924 159.673 30.325 159.714C29.0676 159.714 27.8309 159.735 26.5735 159.776C26.5735 159.591 26.5941 159.416 26.6147 159.23C26.8002 158.055 27.1815 157.086 27.6866 156.272C35.5505 156.169 43.4453 156.437 51.2885 157.086C58.6268 157.694 65.9548 158.601 73.1899 159.982C79.9407 161.26 86.6606 163.064 92.9373 165.919C94.5348 166.63 96.1014 167.434 97.6577 168.31C96.9878 167.176 96.2766 166.084 95.4521 165.033C93.5248 162.6 91.3604 160.333 89.2578 158.045C86.8873 155.489 84.4756 152.438 81.5795 150.222C80.0644 149.315 78.5184 148.48 76.9415 147.687C76.7354 147.584 76.5602 147.46 76.3953 147.305C72.9117 145.862 69.2838 144.729 65.6765 143.574C61.6878 142.276 57.6374 141.08 53.5663 139.988C52.7108 139.761 51.8451 139.544 50.9897 139.318C45.1974 138.328 39.3639 137.741 33.4891 137.72L33.551 137.7C33.6953 137.741 34.8496 136.988 36.2616 136.751C51.4741 134.257 66.0166 140.4 75.3234 143.78C93.7824 150.469 102.832 172.144 106.161 179.998C106.563 180.946 106.037 182.512 105.047 184.296L105.058 184.316Z" fill="#4555FF"/>
<g style="mix-blend-mode:multiply" opacity="0.32">
<path d="M105.058 184.316C103.502 187.274 100.76 190.758 99.1625 192.809L99.1212 192.83C81.9815 193.644 79.1265 198.622 74.4474 201.034C65.089 205.857 59.6575 205.981 55.8544 204.033C54.6176 203.404 53.5457 202.569 52.5769 201.6C49.8044 198.828 47.7947 195.056 44.713 192.325C42.6826 190.521 40.6831 190.274 38.7764 189.913C44.5687 186.656 52.8552 180.091 59.606 173.567C70.6443 162.889 79.075 146.079 79.3533 145.574C95.1326 153.696 103.079 172.742 106.171 179.998C106.573 180.946 106.047 182.513 105.058 184.296V184.316Z" fill="#4E6587"/>
</g>
<path d="M140.162 136.608C140.162 136.608 150.077 147.254 149.974 154.623C149.881 161.993 126.856 146.667 126.856 146.667L140.152 136.608H140.162Z" fill="#E80083"/>
<path d="M156.261 118.097C156.261 118.097 169.67 130.877 170.113 140.256C170.546 149.635 140.121 131.897 140.121 131.897L156.261 118.097Z" fill="#E80083"/>
<path d="M214.029 183.121C213.885 183.832 213.606 184.584 213.173 185.368C212.988 185.708 212.792 186.038 212.586 186.316C210.803 188.985 208.876 189.501 206.855 189.923C204.949 190.284 202.949 190.531 200.919 192.335C197.837 195.066 195.817 198.838 193.055 201.611C192.086 202.58 191.025 203.414 189.778 204.043C185.985 205.991 180.543 205.867 171.185 201.044C168.835 199.828 166.949 197.983 163.486 196.324C160.043 194.685 155.034 193.242 146.511 192.84L146.469 192.819C144.872 190.758 142.13 187.285 140.574 184.327C139.585 182.544 139.059 180.967 139.461 180.029C142.543 172.773 150.499 153.716 166.279 145.605C167.557 144.915 168.896 144.327 170.308 143.822C179.626 140.442 194.168 134.299 209.37 136.793C210.772 137.02 211.926 137.782 212.081 137.741L212.143 137.762C213.07 139.163 208.278 145.275 212.081 150.645C213.38 152.49 216.317 153.582 217.956 156.314C218.461 157.128 218.832 158.097 219.027 159.272C219.048 159.457 219.069 159.632 219.069 159.818C218.945 162.755 214.688 166.383 213.658 170.598C212.359 175.968 214.791 179.369 214.039 183.142L214.029 183.121Z" fill="#828DFF"/>
<path d="M140.574 184.316C142.069 184.017 143.532 184.254 145.13 184.584C147.665 185.13 150.231 185.677 152.746 186.285C157.765 187.522 162.651 189.14 167.268 191.428C175.008 195.272 182.037 200.26 189.778 204.033C191.014 203.404 192.086 202.569 193.055 201.6C189.262 199.92 185.562 197.972 181.955 195.808C177.554 193.19 173.205 190.459 168.587 188.191C163.908 185.862 158.961 184.244 153.859 182.987C150.963 182.276 148.067 181.626 145.15 181.018C144.398 180.874 143.635 180.771 142.903 180.699C143.81 180.152 144.831 179.75 145.882 179.482C148.881 178.689 152.076 178.328 155.158 178.06C161.6 177.452 168.103 177.638 174.524 178.308C187.469 179.627 200.053 182.945 212.586 186.305C212.792 186.037 212.988 185.697 213.173 185.357C213.617 184.584 213.885 183.822 214.029 183.11C194.56 177.885 174.988 172.721 154.612 174.597C150.901 174.937 146.047 175.329 142.254 177.071C143.161 175.958 144.264 174.989 145.398 174.133C147.912 172.247 150.747 170.691 153.622 169.351C159.538 166.599 165.856 164.837 172.256 163.579C186.376 160.786 200.94 159.673 215.307 159.715C216.564 159.715 217.801 159.735 219.058 159.776C219.058 159.591 219.038 159.416 219.017 159.23C218.832 158.055 218.45 157.086 217.945 156.272C210.081 156.169 202.187 156.437 194.343 157.086C187.005 157.694 179.677 158.601 172.442 159.982C165.691 161.26 158.971 163.064 152.695 165.919C151.097 166.63 149.531 167.434 147.974 168.31C148.644 167.176 149.355 166.084 150.18 165.033C152.107 162.6 154.272 160.333 156.374 158.045C158.745 155.489 161.156 152.438 164.052 150.222C165.568 149.315 167.113 148.48 168.69 147.687C168.897 147.584 169.072 147.46 169.237 147.305C172.72 145.863 176.348 144.729 179.955 143.574C183.944 142.276 187.995 141.08 192.066 139.988C192.921 139.761 193.787 139.545 194.642 139.318C200.435 138.328 206.268 137.741 212.143 137.72L212.081 137.7C211.937 137.741 210.782 136.989 209.37 136.752C194.158 134.257 179.615 140.4 170.309 143.781C151.85 150.47 142.8 172.144 139.471 179.998C139.069 180.946 139.595 182.513 140.584 184.296L140.574 184.316Z" fill="#4555FF"/>
<g style="mix-blend-mode:multiply" opacity="0.32">
<path d="M162.032 187.965C164.568 191.387 167.227 196.313 163.486 196.313C160.043 194.675 155.034 193.232 146.511 192.83L146.469 192.809C144.872 190.748 142.13 187.274 140.574 184.316C139.585 182.533 139.059 180.957 139.461 180.019C142.543 172.763 150.499 153.706 166.279 145.595C166.547 146.1 148.809 170.124 162.032 187.975V187.965Z" fill="#4E6587"/>
</g>
<path d="M187.036 336.215C181.46 348.067 173.617 356.848 164.557 363.042C164.557 363.042 164.557 363.053 164.547 363.073C150.86 372.473 134.4 375.957 118.724 375.153C107.098 374.555 95.6479 371.453 85.4959 366.351C70.1082 358.631 57.7198 346.305 52.2264 331.041C36.5708 287.392 78.4462 223.049 92.2158 195.479C99.6365 180.637 101.966 167.713 102.512 158.952C102.976 151.459 102.151 147.017 102.151 147.017L108.479 146.615L135.617 144.894L138.41 144.709C138.41 144.709 138.626 149.037 139.646 155.747C139.914 157.468 140.234 159.354 140.626 161.354C142.532 171.31 146.016 184.327 152.344 196.324C164.898 220.142 210.05 287.454 187.036 336.194V336.215Z" fill="#6B78FF"/>
<path d="M164.557 363.043C164.557 363.043 164.557 363.053 164.547 363.073C150.87 372.463 134.4 375.957 118.724 375.153C107.098 374.545 95.6479 371.463 85.496 366.361C85.496 366.361 62.1516 331.968 63.8522 293.906C65.5425 255.824 90.7317 214.7 99.0181 199.158C106.995 184.162 108.294 156.314 108.49 146.636C108.552 144.461 108.541 143.194 108.541 143.194C108.541 143.194 135.854 130.156 135.627 144.905C135.204 171.815 138.121 184.853 143.017 196.777C154.127 223.75 176.183 264.605 179.492 293.844C182.749 322.744 165.011 362.084 164.578 363.043H164.557Z" fill="#B3B9FF"/>
<mask id="mask1_115_721" style="mask-type:luminance" maskUnits="userSpaceOnUse" x="63" y="137" width="117" height="239">
<path d="M164.557 363.043C164.557 363.043 164.557 363.053 164.547 363.073C150.87 372.463 134.4 375.957 118.724 375.153C107.098 374.545 95.6479 371.463 85.496 366.361C85.496 366.361 62.1516 331.968 63.8522 293.906C65.5425 255.824 90.7317 214.7 99.0181 199.158C106.995 184.162 108.294 156.314 108.49 146.636C108.552 144.461 108.541 143.194 108.541 143.194C108.541 143.194 135.854 130.156 135.627 144.905C135.204 171.815 138.121 184.853 143.017 196.777C154.127 223.75 176.183 264.605 179.492 293.844C182.749 322.744 165.011 362.084 164.578 363.043H164.557Z" fill="white"/>
</mask>
<g mask="url(#mask1_115_721)">
<path d="M141.09 160.086C140.574 162.797 135.74 162.137 133.679 162.209C130.505 162.322 127.32 162.374 124.146 162.261C117.859 162.024 111.551 161.034 105.882 158.19C103.378 156.932 101.11 160.663 103.625 161.931C110.582 165.425 118.271 166.548 125.99 166.682C129.773 166.744 133.576 166.651 137.348 166.435C140.698 166.249 144.573 165.116 145.295 161.312C145.81 158.571 141.615 157.324 141.1 160.086H141.09Z" fill="#8792FF"/>
<path d="M143.068 176.154C140.275 177.669 137.462 179.235 134.411 180.184C131.051 181.225 127.65 181.266 124.197 180.678C117.415 179.534 110.685 177.401 104.202 175.154C101.543 174.237 100.327 178.431 102.976 179.349C110.057 181.791 117.446 184.162 124.888 185.162C132.422 186.182 138.74 183.471 145.222 179.957C147.696 178.617 145.542 174.804 143.068 176.154Z" fill="#8792FF"/>
<path d="M142.831 192.242C137.637 197.22 130.278 198.457 123.342 197.911C115.261 197.272 107.243 194.726 99.4924 192.479C96.792 191.696 95.5656 195.891 98.2659 196.674C113.076 200.962 132.999 207.723 145.882 195.376C147.913 193.428 144.872 190.295 142.842 192.242H142.831Z" fill="#8792FF"/>
<path d="M155.818 211.33C145.408 215.288 134.359 217.257 123.228 217.03C117.725 216.917 112.231 216.288 106.851 215.103C101.956 214.02 96.9466 212.495 93.1434 209.073C91.0615 207.198 87.9077 210.238 90.0103 212.114C94.0195 215.711 98.977 217.69 104.161 218.947C109.943 220.359 115.911 221.142 121.857 221.359C133.782 221.781 145.779 219.792 156.931 215.556C159.528 214.567 158.466 210.32 155.828 211.33H155.818Z" fill="#8792FF"/>
<path d="M172.926 219.647C162.888 227.439 150.355 231.17 137.864 232.561C131.443 233.283 124.97 233.437 118.508 233.283C112.272 233.139 105.924 232.912 99.7706 231.85C93.1229 230.706 86.5576 228.501 81.7754 223.533C79.8274 221.502 76.684 224.553 78.6422 226.573C87.9799 236.272 102.595 237.045 115.22 237.539C128.814 238.075 142.831 237.436 155.869 233.252C163.146 230.912 169.917 227.46 175.957 222.77C178.172 221.049 175.111 217.926 172.916 219.637L172.926 219.647Z" fill="#8792FF"/>
</g>
<g style="mix-blend-mode:multiply" opacity="0.48">
<path d="M139.647 155.757C125.073 153.366 103.151 157.757 144.326 180.957C150.623 184.512 118.549 181.08 102.512 158.962C102.976 151.47 102.151 147.027 102.151 147.027L108.48 146.626L135.617 144.904L138.41 144.719C138.41 144.719 138.626 149.048 139.647 155.757Z" fill="#6988B5"/>
</g>
<path d="M21.2244 159.333C19.297 156.499 21.75 146.151 21.75 146.151C21.75 146.151 23.9659 144.337 27.2125 148.068C27.2125 148.068 27.3361 148.367 27.4804 148.883C28.0988 150.975 29.1398 156.602 24.0587 159.54C22.6673 160.343 21.7706 160.148 21.2347 159.344L21.2244 159.333Z" fill="#7B87FF"/>
<path d="M21.2244 159.333C20.1834 155.633 22.1829 147.141 22.1829 147.141C22.1829 147.141 24.3267 145.378 27.4702 148.872C27.6969 149.635 27.9855 150.882 27.9958 152.294C28.037 154.726 27.264 157.674 24.0484 159.529C22.9044 160.189 22.0798 160.179 21.5233 159.694C21.4099 159.591 21.2966 159.467 21.2244 159.333Z" fill="#4F5FFF"/>
<path opacity="0.45" d="M27.9958 152.294C28.037 154.726 27.264 157.674 24.0484 159.529C23.9556 159.581 23.8629 159.632 23.7804 159.673C23.2548 158.746 22.7395 157.849 22.2448 156.983C22.8941 154.757 23.8629 152.057 25.0069 150.655C25.7284 150.16 26.522 150.263 27.3362 151.274C27.5938 151.603 27.8309 151.943 27.9958 152.284V152.294Z" fill="#FF0090"/>
<path d="M97.4723 185.13C97.4207 185.986 97.3177 187.058 97.3692 187.563C97.5959 189.408 97.1218 191.541 96.287 193.499H96.2767C94.8956 196.767 92.4736 199.56 90.4844 199.786C88.4643 200.023 80.8375 199.869 72.0254 199.199C71.2421 199.147 70.4382 199.075 69.6446 199.003C69.3766 198.982 69.119 198.962 68.851 198.931C68.0471 198.859 67.2329 198.787 66.429 198.704C66.027 198.673 65.6251 198.622 65.2128 198.591C64.8211 198.55 64.4295 198.498 64.0378 198.467C63.7699 198.436 63.5019 198.395 63.2339 198.374C62.9454 198.343 62.6568 198.302 62.3682 198.271C60.379 198.045 58.4208 197.787 56.5038 197.509C56.1843 197.467 55.8751 197.406 55.5762 197.364C52.9171 196.952 50.4023 196.478 48.1555 195.952C47.5165 195.798 46.8878 195.633 46.29 195.478C45.1047 195.148 44.0122 194.819 43.0434 194.448C37.045 192.139 28.2741 188.779 20.6679 184.914C20.0392 184.584 19.4105 184.265 18.7921 183.935C18.4932 183.77 18.1737 183.595 17.8748 183.44C16.669 182.781 15.5146 182.1 14.4221 181.42C14.1542 181.255 13.8862 181.07 13.6182 180.905C10.5572 178.926 8.08362 176.896 6.58917 174.824C6.54795 174.783 6.53764 174.721 6.48611 174.68C6.24906 174.329 6.03262 174.01 5.86772 173.659C5.81618 173.546 5.75434 173.433 5.71312 173.319C5.57913 173.061 5.46576 172.794 5.38331 172.536C5.31116 172.34 5.26994 172.154 5.22871 171.979C4.99166 170.99 4.85767 170.042 4.79584 169.135V169.083C4.77522 169.001 4.77522 168.939 4.77522 168.846V168.743C4.734 168.125 4.734 167.527 4.78553 166.96C4.78553 166.908 4.79584 166.847 4.79584 166.795C4.79584 166.671 4.79584 166.548 4.80614 166.414C4.80614 166.331 4.81645 166.249 4.82675 166.166C4.83706 165.96 4.86798 165.764 4.8989 165.569C4.92982 165.435 4.95043 165.301 4.98135 165.177C5.23902 163.724 5.73373 162.446 6.37274 161.302C6.45519 161.157 6.52733 161.023 6.62009 160.879C6.6304 160.869 6.6304 160.859 6.64071 160.848C6.73347 160.673 6.86745 160.477 7.00144 160.323C7.00144 160.302 7.02205 160.302 7.02205 160.302C7.29002 159.9 7.5683 159.508 7.8981 159.168C7.92902 159.137 7.94964 159.096 7.99086 159.065C8.03209 159.024 8.07332 158.962 8.11454 158.921C8.13516 158.9 8.15577 158.869 8.18669 158.838C8.26914 158.756 8.33098 158.684 8.43405 158.612L8.46496 158.581C8.74324 158.251 9.09366 157.952 9.44409 157.674C10.0522 157.169 10.6912 156.746 11.3405 156.385C11.5982 156.241 11.8661 156.107 12.1238 155.984C12.6391 155.746 13.1647 155.551 13.6698 155.396C14.0717 155.262 14.4634 155.18 14.8447 155.118H14.8756C15.3807 155.035 15.8444 154.994 16.2876 155.015C16.772 155.035 17.411 155.169 18.1531 155.406H18.1634C18.9158 155.643 19.7815 155.963 20.7298 156.365H20.7401C20.9565 156.447 21.142 156.519 21.3585 156.633H21.3688C22.0181 156.921 22.6777 157.22 23.3888 157.55C24.3061 157.983 25.2749 158.467 26.285 158.972C26.2953 158.972 26.2953 158.983 26.3056 158.983C27.9134 159.807 29.6243 160.673 31.3043 161.58C37.0038 164.6 42.559 167.692 44.8264 168.393C44.8264 168.393 86.5164 180.441 94.0093 183.193C94.0814 183.213 94.1742 183.234 94.3494 183.275C94.4009 183.275 94.4731 183.286 94.5452 183.296C94.772 183.327 95.0193 183.337 95.2976 183.368C95.514 183.389 95.7305 183.389 95.9469 183.409C96.0706 183.42 96.1943 183.44 96.3282 183.44C96.5344 183.461 96.7405 183.481 96.8848 183.533C97.1218 183.584 97.3074 183.657 97.4104 183.76C97.5341 183.873 97.5135 184.43 97.462 185.13H97.4723Z" fill="#6B78FF"/>
<path opacity="0.35" d="M96.2972 193.5C94.9265 197.395 93.6794 199.446 90.4947 199.807C86.0525 200.302 54.8443 198.983 43.0433 194.458C35.0558 191.376 22.1211 186.44 13.6078 180.926C17.2667 182.07 61.5745 204.497 96.2869 193.5H96.2972Z" fill="#293CFF"/>
<path opacity="0.35" d="M97.4826 185.131C94.9884 183.203 60.2038 172.794 51.536 171.217C43.9607 169.836 35.8185 165.321 31.3146 161.59C37.0244 164.61 42.5796 167.692 44.8471 168.413C44.8471 168.413 86.537 180.451 94.0299 183.203C94.0917 183.224 94.1948 183.245 94.37 183.286C94.5968 183.306 94.9575 183.327 95.3182 183.368C95.5243 183.389 95.7614 183.389 95.9675 183.409C96.0912 183.43 96.2149 183.451 96.3489 183.451C96.555 183.471 96.7714 183.492 96.9157 183.533C97.1425 183.595 97.3383 183.657 97.4414 183.76C97.565 183.863 97.5444 184.43 97.5032 185.12L97.4826 185.131Z" fill="#293CFF"/>
<path opacity="0.45" d="M12.536 172.722C11.0209 171.804 13.1544 160.797 17.9882 160.673C21.8943 160.57 24.2752 166.909 22.7086 170.104C20.8946 173.804 16.7617 175.288 12.536 172.722Z" fill="#FF0090"/>
<path d="M4.23938 163.146C4.92992 166.218 10.547 168.98 11.7941 169.217C13.0927 169.475 14.4325 164.548 13.0824 162.177V162.157C12.969 161.94 12.835 161.765 12.6804 161.6C9.20713 158.075 5.10513 158.374 4.23938 161.92C4.13631 162.322 4.14662 162.744 4.23938 163.136" fill="#293CFF"/>
<path d="M4.23944 163.146C5.73389 165.785 10.2791 167.97 11.3922 168.186C12.5156 168.413 13.6802 164.703 13.0825 162.188V162.167C12.9691 161.951 12.8351 161.776 12.6805 161.611C12.0209 160.941 11.3406 160.415 10.6604 160.024C7.83642 158.374 5.07427 159.034 4.29097 161.724L4.23944 161.941C4.13637 162.343 4.14668 162.765 4.23944 163.157" fill="#4F5FFF"/>
<path d="M7.58912 159.127C6.03283 159.158 4.78574 160.055 4.30133 161.724C4.34256 161.807 4.4044 161.889 4.46624 161.93C5.198 162.58 8.1869 164.249 10.1245 164.198C10.4131 164.198 10.6708 164.146 10.9078 164.054C11.0727 163.858 11.1964 163.538 11.2376 163.177C11.3613 162.116 11.1449 161.013 10.6605 160.024C9.58859 159.395 8.53732 159.106 7.58912 159.127Z" fill="#7B87FF"/>
<path d="M7.98068 156.025C8.39295 158.704 13.7317 161.6 14.9479 161.92C16.2156 162.27 17.9986 158.21 16.8649 156.066C16.7825 155.86 16.6588 155.695 16.5145 155.54C13.3813 152.201 9.2587 152.057 8.09406 154.984C7.96007 155.314 7.92915 155.674 7.98068 156.014" fill="#293CFF"/>
<path d="M7.98071 156.025C9.22781 158.406 13.5566 160.714 14.6387 161.003C15.7415 161.302 17.2257 158.272 16.865 156.076C16.7825 155.87 16.6588 155.705 16.5145 155.551C15.9168 154.912 15.2881 154.407 14.649 154.005C11.99 152.325 9.17627 152.613 8.16623 154.819L8.09409 154.994C7.9601 155.324 7.92918 155.685 7.98071 156.025Z" fill="#4F5FFF"/>
<path d="M11.6807 152.932C10.1348 152.809 8.80521 153.438 8.17651 154.819C8.20743 154.901 8.25897 154.963 8.32081 155.014C8.99073 155.633 11.8147 157.344 13.7524 157.498C14.0409 157.519 14.3089 157.509 14.546 157.457C14.7315 157.302 14.8758 157.045 14.9479 156.746C15.1644 155.849 15.051 154.901 14.6593 154.004C13.6493 153.365 12.6289 153.015 11.6807 152.943" fill="#7B87FF"/>
<path d="M3.08495 171.134C3.82702 172.7 5.48637 173.958 8.21761 174.453C10.6912 174.906 11.5672 170.351 10.3098 169.248L10.2583 169.196C8.91845 168.186 3.30139 165.269 2.74483 168.083C2.5284 169.134 2.64177 170.186 3.08495 171.124" fill="#293CFF"/>
<path d="M3.08515 171.134C3.9612 172.34 5.49688 173.278 7.76432 173.69C9.83593 174.071 10.8047 170.907 10.2997 169.248L10.2482 169.196C9.88747 168.928 9.22785 168.526 8.43424 168.135C6.26987 167.032 3.14699 166.022 2.74503 168.083C2.67289 168.433 2.64197 168.784 2.66258 169.134C2.64197 169.835 2.78626 170.515 3.08515 171.123" fill="#4F5FFF"/>
<path d="M4.35274 166.908C3.52822 166.929 2.90982 167.259 2.74492 168.104C2.68308 168.403 2.65216 168.701 2.65216 169C2.65216 169.052 2.65216 169.093 2.65216 169.145C4.05385 170.485 5.38339 171.062 6.51711 171.072C7.30041 170.907 7.98064 170.433 8.48566 169.753C8.8567 169.248 8.78455 168.691 8.43413 168.155C7.15612 167.506 5.53799 166.888 4.35274 166.918" fill="#7B87FF"/>
<path d="M163.073 63.9565C163.073 63.9565 180.048 58.3703 188.221 62.2662C196.394 66.1621 167.464 83.9718 167.464 83.9718L163.073 63.9565Z" fill="#FF0090"/>
<path d="M159.085 102.905C159.085 102.905 176.585 106.522 181.728 113.974C186.871 121.426 152.911 122.446 152.911 122.446L159.085 102.915V102.905Z" fill="#E80083"/>
<path d="M125.692 43.4981C122.125 46.353 129.763 35.5414 126.104 27.0798C115.344 2.22039 102.007 5.74523 105.573 2.89032C109.139 0.0251004 122.29 0.0869402 139.245 21.205C156.199 42.3231 129.258 40.6329 125.692 43.4878V43.4981Z" fill="#FF0090"/>
<path d="M133.36 46.6209C128.794 46.8064 141.357 42.6323 143.429 33.6449C149.51 7.24989 136.689 2.17907 141.244 1.99355C145.81 1.80804 156.364 9.65132 157.487 36.7163C158.6 63.771 137.925 46.4354 133.36 46.6209Z" fill="#FF0090"/>
<path d="M138.863 51.4551C134.627 49.7339 147.799 51.1356 153.406 43.8282C169.876 22.3288 160.311 12.4036 164.537 14.1145C168.773 15.8357 175.122 27.3584 164.918 52.4445C154.715 77.5306 143.089 53.1763 138.853 51.4551H138.863Z" fill="#FF0090"/>
<path d="M144.419 55.309C141.038 52.2377 151.777 55.8141 158.796 51.7224C179.43 39.6946 175.843 32.7068 179.224 35.7781C182.604 38.8495 183.676 48.5892 167.773 66.0691C151.87 83.549 147.789 58.3907 144.419 55.3193V55.309Z" fill="#FF0090"/>
<path d="M107.676 49.9397C103.409 51.5682 114.313 44.4464 114.2 37.3245C113.86 16.3919 100.585 16.9691 104.852 15.3304C109.119 13.7019 120.899 15.8663 128.186 34.9128C135.472 53.9593 111.953 48.301 107.686 49.9294L107.676 49.9397Z" fill="#FF0090"/>
<path d="M220.223 82.1169C220.192 82.2612 219.842 81.3233 218.997 80.9831C214.905 79.3856 202.527 76.3761 196.786 75.9948C185.387 75.2115 175.225 84.2606 171.576 87.6927C170.401 88.7955 171.679 93.8766 172.236 96.2677C172.019 96.0925 171.793 95.9276 171.576 95.7421C171.391 95.6081 171.205 95.4535 171.02 95.3092C168 92.8047 168.206 89.8777 169.34 86.5899C170.35 83.6731 170.195 72.3669 170.185 71.7073C170.37 71.9237 174.514 77.1182 179.77 74.7065C187.252 71.3053 192.581 70.3159 198.363 71.0167C207.711 72.1504 215.029 77.3965 218.997 80.3029L219.151 80.4163C219.728 80.8388 220.079 81.4572 220.213 82.1272L220.223 82.1169Z" fill="#6B78FF"/>
<path d="M34.2931 80.7767C34.355 106.986 51.9276 130.681 79.9408 143.131C116.642 159.447 158.167 146.151 172.71 113.448C180.914 94.9791 169.886 65.2344 162.269 55.8658C154.653 46.5074 150.53 41.3954 141.842 36.912C136.977 34.3972 124.012 29.6769 112.19 34.5828C107.14 36.675 107.933 34.0365 100.193 27.1414C88.3612 16.6082 65.1097 21.3698 58.1425 36.541C54.8753 43.6422 52.4842 51.5267 51.9998 58.3806V58.4115C51.1443 61.2767 50.1961 63.8843 48.9284 65.9662C44.5172 73.2014 34.2828 72.6448 34.2931 80.7561V80.7767Z" fill="#6B78FF"/>
<path d="M135.205 41.7256C139.863 42.6738 144.068 45.168 147.047 48.9814C149.716 52.4032 152.447 57.9481 151.386 61.9985C151.138 62.9158 149.695 62.1119 149.366 60.4938C148.809 57.711 146.191 52.9288 142.831 51.5168C139.77 50.2182 136.225 49.1463 133.04 48.4661C126.258 47.0025 131.721 41.0247 135.194 41.7359L135.205 41.7256Z" fill="#1C30FF"/>
<path d="M88.9796 28.2548C85.0219 26.0388 80.4767 25.2968 76.0346 26.3687C72.0563 27.3272 66.769 29.8832 65.1406 33.6966C64.7696 34.5624 66.3052 34.8612 67.5111 33.81C69.5724 32.0063 74.3237 29.9759 77.6012 30.9963C80.6004 31.9342 83.8161 33.3462 86.5473 34.8303C92.3602 37.9944 91.9273 29.9141 88.9796 28.2548Z" fill="#1C30FF"/>
<path d="M218.11 97.1334C215.771 98.1641 212.277 99.5555 208.35 100.689C208.804 101.833 209.185 102.874 209.494 103.75C210.02 105.203 208.979 106.492 207.577 106.976C204.866 107.914 199.62 109.955 195.858 106.832C189.561 101.606 194.343 107.543 193.55 109.666C192.54 112.397 185.799 111.192 183.357 106.533C181.924 103.812 181.13 100.772 172.215 96.2574C171.659 93.8766 170.391 88.7851 171.556 87.6823C175.204 84.2399 185.366 75.2011 196.765 75.9844C202.506 76.376 214.884 79.3752 218.976 80.9728C219.832 81.3129 220.182 82.2508 220.203 82.1168C220.378 83.0959 220.069 84.1884 219.244 84.9099C218.224 85.8168 216.935 86.8887 215.462 88.0431C216.997 89.9498 218.286 91.6503 219.213 92.9593C220.233 94.361 219.667 96.4326 218.1 97.1231L218.11 97.1334Z" fill="#828DFF"/>
<path d="M88.9177 63.3383C86.0422 73.0677 82.1257 77.3346 67.9439 73.1501C53.7621 68.9657 52.783 63.2558 55.6482 53.5265C58.5134 43.7971 69.5517 33.841 78.7349 36.5516C87.918 39.2622 91.783 53.6192 88.9074 63.3486L88.9177 63.3383Z" fill="#3647FF"/>
<path d="M88.588 63.307C85.8773 72.5004 82.167 76.5406 68.7582 72.5829C55.3494 68.6252 54.4218 63.2245 57.1427 54.0208C59.8533 44.8273 70.2835 35.4072 78.972 37.9735C87.6604 40.5398 91.3089 54.1032 88.5983 63.307H88.588Z" fill="white"/>
<path d="M73.9766 71.516C79.946 68.2668 82.1512 60.7936 78.9019 54.8242C75.6527 48.8548 68.1795 46.6496 62.2101 49.8989C56.2407 53.1481 54.0356 60.6213 57.2848 66.5907C60.534 72.5601 68.0072 74.7652 73.9766 71.516Z" fill="#E80083"/>
<path d="M77.962 63.7089C76.3027 69.1611 70.531 72.2324 65.0789 70.5731C59.6267 68.9137 56.5553 63.142 58.2147 57.6899C59.8741 52.2377 65.6457 49.1664 71.0979 50.8257C76.55 52.4851 79.6214 58.2567 77.962 63.7089Z" fill="#00074D"/>
<path d="M64.9653 55.3195C65.6147 55.1649 66.4289 56.2161 66.7793 57.6591C67.1297 59.1123 66.8824 60.4109 66.233 60.5758C65.5837 60.7304 64.7695 59.6791 64.4191 58.2362C64.0687 56.783 64.316 55.4844 64.9653 55.3195Z" fill="white"/>
<path d="M64.1203 51.836C64.7696 51.6814 65.4086 52.0009 65.5426 52.5574C65.6765 53.114 65.254 53.6911 64.6047 53.8457C63.9554 54.0003 63.3163 53.6808 63.1824 53.1243C63.0484 52.5677 63.4709 51.9906 64.1203 51.836Z" fill="white"/>
<path d="M106.975 68.0998C100.946 78.8186 100.564 85.8477 116.189 94.6288C131.814 103.41 137.616 99.4317 143.646 88.7129C149.675 77.9941 148.995 59.9782 138.874 54.289C128.753 48.5998 113.014 57.381 106.985 68.0998H106.975Z" fill="#3647FF"/>
<path d="M107.274 68.3675C101.574 78.5091 101.213 85.1465 115.983 93.4433C130.762 101.75 136.235 97.9885 141.935 87.8468C147.634 77.7052 146.995 60.6788 137.42 55.2988C127.846 49.9188 112.973 58.2258 107.274 68.3572V68.3675Z" fill="white"/>
<path d="M133.706 81.1553C133.847 72.9086 127.276 66.1089 119.029 65.9679C110.783 65.8268 103.983 72.3977 103.842 80.6444C103.701 88.8911 110.272 95.6908 118.518 95.8318C126.765 95.9729 133.565 89.402 133.706 81.1553Z" fill="#E80083"/>
<path d="M118.776 93.5053C125.737 93.5053 131.381 87.8619 131.381 80.9004C131.381 73.9389 125.737 68.2955 118.776 68.2955C111.814 68.2955 106.171 73.9389 106.171 80.9004C106.171 87.8619 111.814 93.5053 118.776 93.5053Z" fill="#00074D"/>
<path d="M116.168 73.0262C115.519 72.9438 114.839 74.0363 114.653 75.4792C114.468 76.9221 114.839 78.1589 115.488 78.2413C116.137 78.3238 116.818 77.2313 117.003 75.7884C117.189 74.3455 116.818 73.1087 116.168 73.0262Z" fill="white"/>
<path d="M116.622 69.5636C115.972 69.4812 115.385 69.8625 115.313 70.4088C115.241 70.9653 115.704 71.4807 116.354 71.5631C117.003 71.6456 117.591 71.2642 117.663 70.718C117.735 70.1614 117.271 69.6461 116.622 69.5636Z" fill="white"/>
<path d="M29.4284 82.5082C32.0463 68.481 69.0365 62.5136 89.5259 71.8204C107.573 80.0141 127.949 103.049 136.555 106.852C146.243 111.14 121.579 154.469 87.2791 152.789C78.4257 152.356 63.8214 148.501 47.5473 131.33C27.161 109.831 26.8209 96.5251 29.4387 82.5082H29.4284Z" fill="#6B78FF"/>
<mask id="mask2_115_721" style="mask-type:luminance" maskUnits="userSpaceOnUse" x="28" y="67" width="111" height="86">
<path d="M29.4284 82.5085C32.0463 68.4916 69.0365 62.5138 89.5259 71.8206C107.562 80.0143 127.949 103.049 136.555 106.853C146.243 111.14 121.579 154.469 87.2791 152.789C78.4257 152.356 63.8214 148.501 47.5473 131.331C27.161 109.831 26.8209 96.5254 29.4387 82.5085" fill="white"/>
</mask>
<g mask="url(#mask2_115_721)">
<path d="M112.819 85.2292C113.324 77.8394 102.924 73.9538 97.6474 71.1401C90.4329 67.2855 82.8885 64.1317 74.973 62.0704C69.9125 60.7511 46.125 57.3397 39.2609 63.3896C34.9424 63.3175 32.5513 69.8724 37.2717 71.6039C40.1885 72.6758 42.7857 75.7472 44.9192 77.9012C47.3824 80.4057 51.4226 83.508 54.7001 84.652C61.8322 87.1359 67.1813 86.9401 74.6638 87.2493C82.6205 87.5688 90.1546 88.2387 97.8845 90.2279C103.254 91.6089 112.262 93.392 112.829 85.2395L112.819 85.2292Z" fill="#828DFF"/>
<path d="M76.0244 96.5667C76.1068 95.8143 75.6636 93.4232 73.1901 92.5575C70.7165 91.6917 69.3766 92.9491 68.2017 94.0416C67.5112 94.6806 69.5725 95.4021 70.531 95.299H70.6134C70.7062 95.299 70.799 95.3196 70.8814 95.3402C71.1906 95.4536 70.7886 97.0511 70.8505 97.4737C70.9123 97.886 71.6956 99.3392 73.5817 99.3392C75.8492 99.3392 75.9625 97.0511 76.0244 96.5667Z" fill="#99A2FF"/>
<path d="M49.5778 85.1367C49.4026 83.9617 48.475 82.9723 47.5474 82.5188C46.6198 82.0653 45.6819 81.7664 44.8162 81.9107C44.2596 82.0035 42.8889 82.055 42.0025 83.5082C41.5799 84.2091 41.0955 85.2191 41.6933 85.7757C44.5791 88.4657 47.8463 87.0949 48.2586 86.9919C49.0728 86.796 49.7015 85.9921 49.5778 85.1264V85.1367Z" fill="#99A2FF"/>
<path d="M141.203 105.812C137.874 105.554 134.947 103.349 132.319 101.462C129.495 99.4218 126.825 97.1853 124.207 94.8869C119.157 90.4551 114.241 85.8584 108.758 81.9419C98.3586 74.5109 86.4958 69.0278 73.9218 66.5233C66.9236 65.1319 59.7297 64.73 52.6182 65.3999C50.3919 65.6163 50.7733 69.0587 52.9995 68.8526C65.4807 67.6673 78.0444 70.0791 89.5156 75.0159C95.2976 77.4998 100.801 80.5917 105.944 84.2093C111.438 88.0743 116.354 92.6092 121.383 97.041C124.249 99.5661 127.155 102.04 130.268 104.266C133.339 106.471 136.781 108.945 140.677 109.254C142.883 109.429 143.429 105.997 141.193 105.822L141.203 105.812Z" fill="#1C30FF"/>
<path d="M93.2363 146.935C86.3 147.904 79.8584 144.399 79.5698 144.688C79.24 145.018 85.8156 149.408 93.6795 148.604C100.265 147.935 105.367 142.524 105.048 142.173C104.78 141.885 99.7397 146.028 93.2363 146.935Z" fill="#1C30FF"/>
<path d="M46.022 71.6969C45.1563 71.6763 45.2903 73.6448 47.8463 76.9738C50.392 80.3028 53.8653 82.8486 61.4819 83.1165C62.4301 83.1474 73.9322 83.4979 73.2416 81.4366C72.8809 80.3647 63.203 78.6332 56.5759 76.3348C50.4848 74.222 48.7636 71.7587 46.0323 71.7072L46.022 71.6969Z" fill="#919BFF"/>
</g>
<path d="M116.55 123.394C115.055 125.497 113.664 127.403 112.324 129.114C105.944 135.937 101.698 140.235 92.6798 141.544C91.9377 141.647 91.1647 141.729 90.3711 141.791C80.0027 142.636 71.304 136.463 65.8724 133.412C64.11 132.423 64.749 129.794 66.7794 129.629H66.8722C68.3563 129.434 78.3124 129.836 90.268 128.073C92.2469 127.785 94.2979 127.424 96.3592 126.991C102.481 125.734 108.82 123.837 114.612 120.962C114.849 120.848 115.076 120.766 115.303 120.745C115.89 120.683 116.426 120.869 116.828 121.219L116.931 121.312L117.106 121.559C117.467 122.209 117.251 122.435 116.56 123.384L116.55 123.394Z" fill="#00074D"/>
<path d="M95.0605 128.362C95.0502 128.785 94.978 129.723 94.6173 130.506C94.3184 131.135 93.8237 131.877 93.463 132.361C93.2362 132.67 92.7931 132.722 92.4942 132.485C92.051 132.124 91.4223 131.588 90.9688 131.032C90.4226 130.362 90.1237 129.537 89.9897 129.084C91.6387 128.898 93.3393 128.651 95.0605 128.352V128.362Z" fill="white"/>
<path d="M84.3727 129.496C84.2799 129.908 84.0429 130.815 83.5481 131.526C83.1462 132.093 82.5175 132.732 82.0743 133.145C81.796 133.412 81.3528 133.382 81.1055 133.093C80.7345 132.66 80.2191 132.021 79.8584 131.382C79.4358 130.63 79.2915 129.764 79.2503 129.3C80.9097 129.414 82.6205 129.486 84.3727 129.496Z" fill="white"/>
<path d="M116.725 123.518C109.418 132.99 104.769 141.153 91.5873 142.472C82.2392 143.987 73.6848 138.854 66.295 133.887C65.8209 133.588 65.1819 133.248 64.9449 132.639C64.3883 131.475 65.0995 129.96 66.3259 129.671C80.4974 128.651 94.7617 126.909 108.418 122.786C110.386 122.168 112.355 121.467 114.251 120.632C114.849 120.344 115.612 120.189 116.302 120.457C116.88 120.694 117.323 121.148 117.498 121.725C117.745 122.426 117.075 123.044 116.725 123.518ZM116.375 123.271C116.612 122.817 117.106 122.415 116.931 121.931C116.704 121.385 116.096 120.993 115.364 121.168C114.767 121.292 112.973 122.405 112.242 122.714C104.697 126.6 96.318 128.599 87.9181 129.455C81.9713 130.011 75.8801 129.949 69.9126 129.754C68.9438 129.754 67.2948 129.558 66.3465 129.774C65.1819 130.063 64.5635 131.547 65.1613 132.536C65.4293 133.052 65.9446 133.278 66.4908 133.567C73.2107 137.236 80.2295 140.771 87.9388 141.039C101.677 141.297 109.222 134.227 116.375 123.281V123.271Z" fill="#1C30FF"/>
<path d="M65.3054 97.8446C64.584 97.958 64.1305 97.0819 64.6458 96.5666C66.4495 94.7836 69.4899 92.5058 71.9119 94.3507C75.6017 97.1541 73.6641 98.9062 72.0356 98.329C70.6648 97.8446 68.8509 97.2778 65.3054 97.8446Z" fill="#00074D"/>
<path d="M48.0523 90.8875C48.4027 91.475 49.2994 91.207 49.3509 90.4856C49.5364 87.9811 49.3303 84.2707 46.5682 83.7966C42.3528 83.0855 42.2806 85.6621 43.672 86.4248C44.847 87.0638 46.3311 87.9708 48.0626 90.8772L48.0523 90.8875Z" fill="#00074D"/>
<path d="M74.5711 92.0214C78.5082 92.2482 79.9099 96.9686 77.3023 99.5555C76.5294 100.339 75.4369 100.854 74.3547 100.761C78.1578 99.0299 78.6937 93.9075 74.5711 92.0214Z" fill="#1C30FF"/>
<path d="M46.2796 81.3128C43.5175 78.8392 39.4258 81.1479 39.4464 84.6728C39.4464 85.724 39.8174 86.8165 40.6007 87.4761C39.2197 83.7452 42.291 79.8493 46.2899 81.3128H46.2796Z" fill="#1C30FF"/>
<path d="M125.929 113.284C121.971 115.314 121.136 111.738 117.003 106.327C113.107 101.225 109.644 99.339 110.469 97.7724C111.912 95.0308 116.055 97.1746 120.878 101.411C125.712 105.647 128.68 111.872 125.929 113.294V113.284Z" fill="#828DFF"/>
<path d="M196.26 81.7351C199.425 82.4051 208.762 84.1984 213.029 86.4555C217.193 88.6508 219.698 92.9383 219.388 93.2269C218.863 93.7216 215.348 85.765 198.456 83.7037C192.746 83.0028 181.79 82.9513 177.41 83.2502C176.492 83.312 175.874 84.1056 175.884 83.9717C175.977 83.343 176.194 83.0544 177.039 82.7555C181.13 81.3023 191.21 80.6736 196.26 81.7351Z" fill="#6E7BFF"/>
<path d="M190.922 89.9805C193.756 90.9905 201.816 94.0928 205.206 97.092C208.525 100.009 209.927 104.575 209.576 104.791C208.999 105.152 209.721 97.6486 192.612 91.5574C187.593 89.7744 177.74 87.5069 173.73 86.8988C172.895 86.7752 171.999 87.1874 172.04 87.0637C172.246 86.4763 172.298 86.4763 173.132 86.3938C175.967 86.1155 186.768 88.5067 190.911 89.9805H190.922Z" fill="#6E7BFF"/>
<path d="M220.223 82.1166C220.192 82.2609 219.842 81.323 218.997 80.9829C214.905 79.3854 202.527 76.3759 196.786 75.9946C185.387 75.2113 175.204 84.2295 171.576 87.6925C170.7 88.5273 171.473 92.753 172.03 95.1338C172.215 95.8553 172.318 96.3397 172.277 96.3706C172.092 96.5355 171.741 95.7625 171.37 94.6082C170.69 92.516 170.133 90.2691 170.03 88.8777C169.886 86.7134 180.316 78.4063 183.284 77.0458C189.736 74.0982 196.271 73.655 199.445 74.3249C204.3 75.3349 215.06 77.7879 219.007 80.2924C219.182 80.4161 219.337 80.5191 219.491 80.6325C220.203 81.1684 220.336 81.4983 220.223 82.1166Z" fill="#1C30FF"/>
<path d="M117.941 120.849C111.644 119.045 109.644 113.737 109.17 113.861C108.614 114.016 109.964 120.086 116.838 122.385C122.6 124.312 131.34 121.766 131.391 121.364C131.432 121.034 123.857 122.539 117.951 120.849H117.941Z" fill="#1C30FF"/>
<path d="M111.86 4.24033C111.86 4.24033 118.786 5.51834 124.764 9.87801C130.329 13.9491 137.008 20.8854 137.791 25.2245C138.977 31.8825 136.122 30.5942 134.617 29.6563C130.597 27.1415 131.391 17.309 121.383 9.92954C114.725 5.02363 106.459 3.38489 111.86 4.23002V4.24033Z" fill="#FF87CB"/>
<path d="M147.005 6.93017C148.345 7.22906 153.756 16.876 154.385 25.7499C154.911 33.1809 154.581 35.6236 151.819 34.8815C148.253 33.9127 152.303 28.5636 151.736 22.9465C150.365 9.20791 145.655 6.64158 146.995 6.94047L147.005 6.93017Z" fill="#FF87CB"/>
<path d="M93.2981 141.245C91.3089 139.122 91.9995 130.114 91.9995 130.114C91.9995 130.114 93.6176 128.3 96.8332 131.001C96.8332 131.001 96.9775 131.238 97.1631 131.65C97.9567 133.32 99.5748 137.916 95.6892 141.039C94.6276 141.895 93.8443 141.854 93.2981 141.245Z" fill="#293CFF"/>
<path d="M93.2981 141.246C91.9377 138.278 92.5045 130.888 92.5045 130.888C92.5045 130.888 94.0711 129.125 97.1631 131.65C97.4517 132.259 97.8639 133.269 98.0494 134.444C98.3999 136.484 98.1422 139.061 95.6892 141.04C94.8132 141.751 94.1226 141.844 93.597 141.504C93.4836 141.431 93.3806 141.349 93.2981 141.246Z" fill="#4F5FFF"/>
<path d="M98.0493 134.444C98.3998 136.484 98.1421 139.061 95.6891 141.04C95.617 141.102 95.5448 141.153 95.483 141.205C94.9161 140.504 94.3699 139.813 93.8443 139.154C94.1019 137.196 94.5554 134.815 95.3284 133.485C95.8747 132.98 96.5446 132.96 97.3691 133.691C97.6371 133.939 97.8638 134.186 98.0596 134.454L98.0493 134.444Z" fill="#7B87FF"/>
<path d="M145.14 199.354C144.295 199.457 143.419 199.622 142.481 199.694C141.491 199.776 140.347 199.714 139.059 199.529C135.05 198.91 110.335 187.625 100.152 179.524C99.5747 179.07 99.0697 178.637 98.5852 178.215C92.5456 172.67 82.7338 163.765 77.0755 155.87C76.2613 154.747 75.5398 153.644 74.9111 152.562C73.4476 150.047 72.6025 147.687 72.6437 145.718C72.6437 145.481 72.6643 145.224 72.7055 144.997C72.7674 144.554 72.8395 144.131 72.9426 143.709C73.0456 143.214 73.1693 142.75 73.293 142.286C73.3754 142.049 73.4579 141.802 73.5507 141.544C73.932 140.452 74.437 139.473 75.0142 138.596C75.1379 138.37 75.2925 138.174 75.4264 137.968C76.2819 136.824 77.261 135.886 78.2917 135.164C78.5596 134.979 78.7864 134.835 79.0337 134.68C79.1986 134.577 79.3532 134.494 79.5285 134.412C80.3839 133.959 81.26 133.618 82.136 133.381H82.1566C82.4143 133.299 82.6926 133.247 82.9399 133.196C84.2592 132.938 85.5372 132.928 86.6503 133.113C86.9595 133.175 87.2481 133.247 87.516 133.33C87.65 133.361 87.7943 133.412 87.9077 133.464C88.1241 133.536 88.2993 133.608 88.4848 133.711C89.7938 134.371 90.9481 135.113 91.9478 135.906C92.123 136.04 92.2776 136.185 92.4322 136.308V136.329C93.03 136.803 93.5454 137.277 94.0298 137.782C94.9264 138.658 95.6582 139.576 96.3281 140.431L96.3487 140.452C97.6474 142.152 98.6162 143.729 99.5747 144.801C100.76 146.141 103.8 150.748 107.243 155.52C110.314 159.828 113.715 164.219 116.405 166.476C116.745 166.764 117.096 167.043 117.446 167.311C128.309 175.783 144.14 178.462 146.49 179.74C146.892 179.957 147.304 180.245 147.83 180.864C148.582 181.75 149.551 183.317 151.025 186.347C151.386 187.089 151.922 188.47 152.19 190.078C152.839 193.726 152.159 198.498 145.13 199.354H145.14Z" fill="#6B78FF"/>
<path opacity="0.13" d="M145.14 199.354C144.295 199.457 143.419 199.622 142.481 199.694C141.491 199.776 140.347 199.715 139.059 199.529C135.05 198.911 110.335 187.625 100.152 179.524C99.5747 179.071 99.0697 178.638 98.5853 178.215C92.5456 172.67 82.7338 163.765 77.0755 155.871C76.2613 154.747 75.5399 153.644 74.9112 152.562C74.8802 151.356 75.0967 150.253 75.6017 149.213C79.7449 140.813 92.0612 136.855 101.626 152.212C111.2 167.579 124.063 178.339 131.226 182.956C138.441 187.615 145.624 190.964 152.2 190.078C152.849 193.726 152.169 198.498 145.14 199.354Z" fill="#293CFF"/>
<path d="M77.0755 155.87C106.367 189.078 139.059 199.539 142.481 199.694C141.491 199.776 140.347 199.714 139.059 199.529C135.06 198.91 110.345 187.625 100.152 179.524C99.5747 179.07 99.0697 178.638 98.5853 178.205C92.5456 172.66 82.7338 163.765 77.0755 155.86V155.87Z" fill="#4F5FFF"/>
<path d="M79.9202 139.132C81.1776 136.782 77.7765 129.795 76.7974 128.444C75.777 127.043 71.5307 128.403 71.304 131.011C71.2627 131.248 71.2834 131.475 71.3246 131.712C72.3037 137.02 76.2202 140.874 79.1782 139.792C79.5183 139.668 79.7759 139.431 79.9305 139.132H79.9202Z" fill="#293CFF"/>
<path d="M79.9202 139.132C80.1882 136.247 77.4054 130.609 76.5294 129.403C75.643 128.177 72.314 129.053 71.304 131.011C71.2627 131.248 71.2834 131.475 71.3246 131.712C71.5101 132.722 71.809 133.68 72.18 134.546C73.726 138.205 76.6324 140.544 78.9926 139.854L79.1782 139.792C79.5183 139.668 79.7759 139.431 79.9305 139.132H79.9202Z" fill="#4F5FFF"/>
<path d="M78.5598 139.277C79.9202 138.287 77.7249 132.99 75.9419 131.114C75.6739 130.835 74.8494 130.011 73.9012 130.32C72.953 130.629 72.4583 131.753 72.5511 132.897C72.8396 136.226 77.1993 140.256 78.5598 139.266V139.277Z" fill="#7B87FF"/>
<path d="M87.279 135.464C88.9796 133.413 87.0523 125.879 86.3514 124.364C85.6403 122.787 81.1981 123.271 80.4561 125.776C80.3736 125.992 80.3427 126.219 80.3427 126.466C80.2396 131.867 83.311 136.422 86.4236 135.948C86.774 135.897 87.0729 135.711 87.2893 135.453L87.279 135.464Z" fill="#293CFF"/>
<path d="M87.279 135.463C88.1138 132.691 86.5163 126.61 85.8979 125.249C85.2795 123.879 81.8371 124.064 80.4664 125.775C80.3839 125.992 80.353 126.218 80.353 126.466C80.3324 127.496 80.4355 128.486 80.621 129.413C81.4043 133.309 83.7851 136.185 86.238 135.979L86.4339 135.958C86.7843 135.906 87.0832 135.721 87.2996 135.463H87.279Z" fill="#4F5FFF"/>
<path d="M85.9185 135.339C87.4438 134.639 86.3617 129.011 84.9806 126.816C84.7745 126.496 84.1251 125.517 83.1357 125.631C82.1463 125.744 81.4351 126.744 81.3012 127.888C80.9198 131.207 84.3828 136.03 85.9185 135.339Z" fill="#7B87FF"/>
<path d="M66.7175 139.947C66.7175 139.947 66.6969 139.833 66.6969 139.782C66.501 138.153 68.4902 135.639 70.7886 137.865C72.7468 139.741 74.5505 143.07 74.6226 144.337C74.6329 144.41 74.6535 144.471 74.6329 144.533C74.6329 144.616 74.6123 144.667 74.5814 144.708C74.1382 145.378 72.8602 145.76 72.551 145.718C70.8916 145.667 69.6961 144.966 68.2944 143.358C67.4286 142.348 66.9648 141.06 66.7072 139.937L66.7175 139.947Z" fill="#293CFF"/>
<path d="M67.3977 141.915C67.0782 141.256 66.8721 140.565 66.7175 139.937C66.7175 139.885 66.6969 139.823 66.6969 139.772C67.3565 138.576 68.8303 137.772 70.4794 139.339C72.3861 141.194 74.4165 143.338 74.6329 144.327C74.6432 144.399 74.6638 144.461 74.6432 144.523C74.6432 144.605 74.6226 144.657 74.5917 144.698C74.4577 144.925 74.2 145.121 73.9218 145.265C73.3961 145.574 72.7571 145.729 72.5613 145.708C70.9019 145.657 69.7064 144.956 68.3047 143.348C67.913 142.905 67.6245 142.41 67.3977 141.905V141.915Z" fill="#4F5FFF"/>
<path d="M67.3979 141.915C67.5215 141.091 69.2943 139.967 70.562 141.183C72.1079 142.688 73.7467 144.409 73.9219 145.223C73.9322 145.244 73.9219 145.254 73.9219 145.275C73.3963 145.584 72.7573 145.739 72.5614 145.718C70.9021 145.667 69.7065 144.966 68.3048 143.358C67.9132 142.915 67.6246 142.42 67.3979 141.915Z" fill="#7B87FF"/>
<g style="mix-blend-mode:screen" opacity="0.22">
<path d="M147.84 180.864C147.84 180.864 142.254 182.554 129.134 175.69C109.778 165.559 107.15 156.015 107.253 155.52C110.325 159.828 113.726 164.219 116.416 166.476C116.756 166.764 117.106 167.043 117.457 167.311C128.32 175.783 144.151 178.462 146.5 179.74C146.902 179.957 147.315 180.245 147.84 180.864Z" fill="#B3B9FF"/>
</g>
</g>
</svg>
