<svg width="136" height="228" viewBox="0 0 136 228" fill="none" xmlns="http://www.w3.org/2000/svg">
<g style="mix-blend-mode:multiply" opacity="0.41">
<path d="M0 216.63C0 212.08 27.96 208.4 62.45 208.4C96.94 208.4 124.9 212.09 124.9 216.63C124.9 221.17 92.55 228 58.06 228C23.57 228 0 221.18 0 216.63Z" fill="#4A55C4"/>
</g>
<path d="M9.47 122.4C8.12 123.44 2.93 122.54 2.93 122.54C2.93 122.54 1.96 121.5 3.71 119.78C3.71 119.78 3.85 119.71 4.1 119.62C5.12 119.25 7.87 118.56 9.48 120.99C9.92 121.65 9.85 122.1 9.47 122.39V122.4Z" fill="#7B87FF"/>
<path d="M9.47 122.4C7.67 123.03 3.41 122.29 3.41 122.29C3.41 122.29 2.47 121.28 4.11 119.62C4.48 119.48 5.09 119.3 5.79 119.26C6.99 119.17 8.48 119.46 9.49 121C9.85 121.55 9.87 121.96 9.65 122.24C9.6 122.3 9.55 122.36 9.48 122.4H9.47Z" fill="#4F5FFF"/>
<path d="M6.93 126.21C6.98 127.91 3.2 131.59 3.2 131.59C3.2 131.59 1.79 131.76 1.43 129.33C1.43 129.33 1.46 129.17 1.54 128.92C1.84 127.88 2.9 125.24 5.81 125.37C6.61 125.4 6.93 125.72 6.94 126.21H6.93Z" fill="#7B87FF"/>
<path d="M6.93 126.21C6.38 128.04 3.28 131.05 3.28 131.05C3.28 131.05 1.91 131.22 1.53 128.92C1.64 128.54 1.85 127.94 2.22 127.35C2.85 126.32 3.96 125.29 5.8 125.37C6.46 125.4 6.8 125.62 6.9 125.97C6.92 126.05 6.93 126.12 6.93 126.2V126.21Z" fill="#4F5FFF"/>
<path opacity="0.45" d="M5.68 125.71C6.27 125.73 6.86 126.22 7 126.52C7.02 126.55 7.03 126.59 7.04 126.62C6.36 127.28 4.81 128.81 3.57 129.38C3.46 129.43 2.75 129.69 2.51 129.43C2.27 129.17 2.09 128.96 2.36 127.99C2.63 127.02 4.98 125.68 5.68 125.71Z" fill="#FF0090"/>
<path d="M9.93 130.26C10.05 131.74 6.49 134.81 5.62 135.34C4.72 135.89 2.72 134.38 3.23 132.95C3.26 132.82 3.33 132.7 3.41 132.58C5.24 129.95 8.32 128.64 9.68 129.77C9.83 129.9 9.92 130.07 9.93 130.26Z" fill="#7B87FF"/>
<path d="M9.93 130.26C9.38 131.84 6.48 134.31 5.71 134.78C4.93 135.26 3.31 134.17 3.23 132.95C3.26 132.82 3.33 132.7 3.41 132.58C3.76 132.08 4.15 131.63 4.57 131.24C6.31 129.59 8.47 128.89 9.6 129.71L9.69 129.78C9.84 129.91 9.93 130.08 9.94 130.27L9.93 130.26Z" fill="#4F5FFF"/>
<path opacity="0.45" d="M6.08 130.4C7.23 129.87 8.7 130.15 9.4 130.65C9.39 130.7 9.36 130.75 9.32 130.79C8.91 131.31 7.23 133.11 5.8 133.76C5.59 133.86 4.93 134.14 4.49 133.8C4.05 133.46 4.06 132.78 4.37 132.18C4.68 131.58 6.08 130.39 6.08 130.39V130.4Z" fill="#FF0090"/>
<path d="M12.35 134.15C12.3 135.08 11.66 136.12 10.25 137.08C8.98 137.95 7.44 136.06 7.89 135.21L7.91 135.17C8.42 134.34 10.89 131.46 11.84 132.63C12.2 133.06 12.38 133.59 12.35 134.14V134.15Z" fill="#7B87FF"/>
<path d="M12.35 134.15C12.14 134.95 11.5 135.8 10.33 136.61C9.26 137.35 7.99 136.13 7.89 135.22L7.91 135.18C8.05 134.96 8.32 134.59 8.68 134.19C9.63 133.09 11.14 131.78 11.85 132.64C11.97 132.78 12.07 132.94 12.14 133.11C12.31 133.43 12.39 133.79 12.36 134.16L12.35 134.15Z" fill="#4F5FFF"/>
<path opacity="0.45" d="M10.03 132.53C10.43 132.21 10.86 132.12 11.28 132.46C11.43 132.58 11.57 132.71 11.69 132.86C11.71 132.88 11.73 132.91 11.75 132.93C11.63 134.13 11.51 134.51 10.89 135.31C10.27 136.12 8.67 136.48 8.62 135.04C8.6 134.57 9.47 132.98 10.04 132.52L10.03 132.53Z" fill="#FF0090"/>
<path opacity="0.45" d="M5.78 119.26C6.98 119.17 8.47 119.46 9.48 121C9.51 121.04 9.54 121.09 9.56 121.13C9.12 121.42 8.69 121.7 8.28 121.97C7.16 121.71 5.79 121.32 5.06 120.79C4.79 120.45 4.82 120.05 5.3 119.62C5.46 119.48 5.62 119.36 5.78 119.26Z" fill="#FF0090"/>
<path d="M8.81 134.03L8.94 134.08C9.42 134.28 9.94 134.44 10.5 134.59C10.76 134.65 11.02 134.69 11.3 134.68C11.57 134.69 11.87 134.68 12.16 134.63C12.2 134.63 12.23 134.63 12.26 134.62C13.66 134.4 15.31 133.68 17.07 132.65C21.96 129.79 27.69 124.57 31.24 121.36C36.47 116.6 45 101.35 45.86 99.01C46.48 97.33 44.08 93.43 41.48 92.49C41.01 92.31 40.53 92.25 40.05 92.3C39.62 92.35 37.62 91.01 36.71 90.79C36.48 90.74 36.32 90.76 36.26 90.88C33.17 98.03 26.51 110.06 20.03 114.35C17.05 116.32 15.51 117.2 12.21 118.78C12.16 118.8 12.09 118.83 12.03 118.87C11.03 119.37 10.05 119.97 9.16 120.61C8.61 121.01 8.09 121.41 7.61 121.82C7.27 122.1 6.95 122.38 6.67 122.65C6.57 122.74 6.48 122.82 6.4 122.9C5.6 123.67 5.04 124.35 4.79 124.79C4.67 125.01 4.56 125.26 4.47 125.54C4.4 125.75 4.35 125.98 4.31 126.22C4.17 127.02 4.17 127.96 4.39 128.91C4.44 129.15 4.51 129.4 4.6 129.65C4.63 129.75 4.67 129.86 4.72 129.96C4.82 130.23 4.95 130.5 5.1 130.78C5.16 130.89 5.23 131.01 5.3 131.12C5.73 131.8 6.28 132.45 7.02 133.01C7.16 133.13 7.33 133.24 7.5 133.35C7.59 133.41 7.69 133.47 7.79 133.53C8.1 133.72 8.44 133.89 8.8 134.05L8.81 134.03Z" fill="#4F5FFF"/>
<path opacity="0.35" d="M41.5 92.49C44.11 93.43 46.5 97.33 45.88 99.01C45.01 101.35 36.48 116.61 31.25 121.36C27.7 124.57 21.98 129.79 17.08 132.65C18.57 131.11 39.13 109.79 40 98.87C40.25 95.74 40.81 93.71 41.5 92.49Z" fill="#293CFF"/>
<g style="mix-blend-mode:multiply" opacity="0.48">
<path d="M12.05 118.86C15.11 117.53 21.09 115.17 23.97 112.08C27.53 108.24 33.86 99.03 37.57 91.28C37.35 91.3 37.04 91.06 36.73 90.79C36.5 90.74 36.34 90.76 36.28 90.88C33.19 98.03 26.53 110.06 20.05 114.35C17.07 116.32 15.53 117.2 12.23 118.78C12.18 118.8 12.11 118.83 12.05 118.87V118.86Z" fill="#939AED"/>
</g>
<path opacity="0.45" d="M12.7 131.11C11.86 131.64 6.9 127.8 8.05 125.35C8.98 123.37 12.75 123.78 13.95 125.37C15.34 127.21 15.04 129.65 12.7 131.11Z" fill="#FF0090"/>
<path d="M57.59 184.65C52.79 186.46 48.71 189.67 45.83 193.78C42.78 192.91 39.72 191.77 36.68 190.35C34.75 189.44 32.96 188.48 31.3 187.45L57.59 184.65Z" fill="#4F5FFF"/>
<mask id="mask0_6008_8998" style="mask-type:luminance" maskUnits="userSpaceOnUse" x="52" y="65" width="41" height="41">
<path d="M87.79 72.1799C85.09 69.7599 86.85 65.8799 86.18 65.2399H86.15C86.07 65.2699 85.37 65.0099 84.58 65.0599C76.18 65.6099 69.24 70.7299 64.73 73.6999C55.77 79.5999 53.74 92.3899 52.97 97.0399C52.72 98.5299 56.55 101.6 58.33 103.06H58.35C67.56 101.37 69.71 103.69 72.5 104.41C85.08 107.64 84.04 100.53 87.19 96.0199C89.05 93.3599 91.71 94.6799 92.81 90.7499C93.62 87.8499 91.17 86.3799 91.18 82.7199C91.18 80.1699 93.22 77.5199 92.58 75.9499C91.52 73.3199 89.01 73.2499 87.79 72.1699" fill="white"/>
</mask>
<g mask="url(#mask0_6008_8998)">
<path d="M109.37 70.4699C108.08 72.7999 106.27 75.8699 104.03 79.1799C102.62 81.2699 103.17 84.1099 105.28 85.4899C107.14 86.6899 109.03 88.3899 108.9 90.5099C108.61 95.1399 104.9 99.0499 92.4 100.84C89.3 101.28 91.28 102.97 92.23 106.08C93.45 110.07 84.71 114.55 77.88 111.36C73.89 109.5 70.34 106.72 56.27 109.3H56.24C53.52 107.06 47.68 102.37 48.06 100.1C49.24 93.0099 52.33 73.4699 66.02 64.4699C72.9 59.9299 83.5 52.1199 96.33 51.2799C97.53 51.1999 98.6 51.6099 98.72 51.5499H98.77C99.8 52.5199 100.37 54.0099 100.06 55.5399C99.9 56.3399 99.72 57.2099 99.51 58.1499C98.98 60.5099 100.4 62.8699 102.73 63.5099C104.36 63.9499 105.8 64.3699 107.02 64.7499C109.4 65.4599 110.56 68.3199 109.36 70.4699" fill="#4450CF"/>
<path d="M55.36 93.14C56.46 91.8 57.76 90.62 59.12 89.54C61.91 87.32 65.04 85.59 68.28 84.11C75.42 80.86 83.02 78.45 90.66 76.69C95.12 75.66 99.64 74.87 104.18 74.32C105.41 74.17 105.19 72.25 103.95 72.4C95.55 73.42 87.24 75.26 79.19 77.88C75.37 79.12 71.59 80.51 67.93 82.15C64.51 83.68 61.16 85.49 58.19 87.8C57.44 88.39 56.7 89.02 55.99 89.68C56.2 88.99 56.44 88.31 56.74 87.64C57.45 86.09 58.31 84.6 59.14 83.11C60.07 81.44 60.97 79.5 62.22 77.94C62.91 77.27 63.62 76.62 64.36 76C64.46 75.92 64.54 75.82 64.6 75.73C66.27 74.52 68.06 73.45 69.82 72.38C71.78 71.19 73.77 70.04 75.79 68.95C76.22 68.72 76.65 68.49 77.08 68.27C80.47 66.84 83.96 65.67 87.57 64.92C92.34 63.92 97.25 63.55 102.11 63.85C102.76 63.89 103.38 63.52 103.48 62.83C103.57 62.23 103.12 61.5 102.46 61.46C99.4 61.27 96.36 61.34 93.34 61.64C94.23 61.39 95.13 61.14 96.04 60.93C96.67 60.78 97.18 60.29 97.09 59.59C97.02 59 96.39 58.38 95.75 58.54C88.94 60.16 82.49 62.79 76.3 66C76.13 66.07 75.96 66.14 75.8 66.21C71.75 67.96 67.64 69.93 64.07 72.55C61.29 74.59 58.99 77.16 57.13 80.04C56.69 80.65 56.29 81.29 55.96 81.98C55.94 82.03 55.91 82.08 55.89 82.14C54.11 85.42 52.9 88.99 52.14 92.64C51.98 92.77 51.85 92.93 51.77 93.12C51.74 93.21 51.71 93.29 51.68 93.38C51.61 93.53 51.58 93.68 51.59 93.84C51.57 94 51.59 94.16 51.67 94.32C51.73 94.47 51.81 94.6 51.93 94.7C51.98 94.76 52.04 94.81 52.1 94.86C51.77 95.72 51.6 96.64 51.64 97.6C51.65 97.88 51.77 98.08 51.93 98.22C51.92 98.27 51.91 98.33 51.9 98.38C51.56 98.73 51.45 99.25 51.77 99.68C51.96 99.92 52.3 100.08 52.62 100.06C53.08 100.17 53.59 99.98 53.7 99.44C54.55 98.93 55.49 98.84 56.54 98.83C57.96 98.81 59.38 98.78 60.8 98.81C63.62 98.85 66.43 99.12 69.18 99.77C74.44 101.03 79.41 103.24 84.76 104.17C87.87 104.71 91.03 104.92 94.18 104.83C94.7 104.82 95.08 104.24 95.02 103.76C94.95 103.2 94.47 102.9 93.95 102.92C88.32 103.08 82.87 102.05 77.54 100.32C74.87 99.45 72.21 98.53 69.47 97.87C66.68 97.2 63.84 96.95 60.98 96.91C59.35 96.88 57.72 96.9 56.1 96.93C55.68 96.93 55.27 96.97 54.87 97.03C55.29 96.63 55.78 96.29 56.3 96C57.79 95.19 59.44 94.61 61.04 94.07C64.39 92.95 67.86 92.24 71.36 91.8C78.59 90.89 85.89 91.14 93.15 91.41C97.35 91.56 101.54 91.72 105.74 91.67C106.26 91.67 106.64 91.07 106.58 90.6C106.51 90.03 106.03 89.75 105.51 89.76C90.44 89.93 74.92 87.41 60.3 92.29C58.38 92.93 55.85 93.75 54.05 95.16C54.39 94.45 54.86 93.79 55.35 93.19" fill="#1F2EC4"/>
</g>
<path d="M54.93 76.1099C54.93 76.1099 62.73 76.2799 65.53 79.0699C68.33 81.8599 56.75 84.6399 56.75 84.6399L54.93 76.1099Z" fill="#E80083"/>
<path d="M56.42 87.6399C56.42 87.6399 64.7 85.0299 67.42 87.8999C70.24 90.8799 59.67 96.2199 59.67 96.2199L56.42 87.6299" fill="#E80083"/>
<path d="M60.97 100.22C60.97 100.22 67.63 98.14 69.82 100.44C72.09 102.83 63.96 108.08 63.96 108.08L60.97 100.22Z" fill="#E80083"/>
<path d="M64.03 110.68C64.03 110.68 71.01 110.76 72.38 113.63C73.8 116.61 64.44 119.08 64.44 119.08L64.03 110.68Z" fill="#FF0090"/>
<path d="M66.66 127.74C66.66 127.74 73.39 125.89 75.5 128.27C77.69 130.74 69.38 135.7 69.38 135.7L66.66 127.74Z" fill="#FF0090"/>
<path d="M72.14 143.07C72.14 143.07 78.21 139.62 80.84 141.41C83.57 143.26 76.74 150.12 76.74 150.12L72.15 143.07H72.14Z" fill="#FF0090"/>
<path d="M134.85 167.81C135.54 168.02 136.03 168.67 135.99 169.39C135.92 170.72 134.88 172.32 133.72 172.52C130.42 173.09 126.56 172.33 124.53 170.15C122.27 167.73 125.44 162.94 128.9 160.28C129.87 159.53 132.01 159.79 132.95 161.01C133.47 161.69 133.44 162.65 132.9 163.31L130.81 165.88C130.6 166.14 130.72 166.54 131.04 166.64L134.85 167.81Z" fill="#FF0090"/>
<path d="M81.35 155.75C81.35 155.75 85.42 151.42 88 152.21C90.68 153.03 86.85 160.32 86.85 160.32L81.35 155.74V155.75Z" fill="#FF0090"/>
<path d="M91.46 163.71C91.46 163.71 93.85 159.22 96.16 159.29C98.56 159.37 97.04 166.25 97.04 166.25L91.46 163.71Z" fill="#FF0090"/>
<path d="M101.36 167.63C101.36 167.63 102.46 163.44 104.39 163.05C106.39 162.64 106.48 168.64 106.48 168.64L101.36 167.62V167.63Z" fill="#FF0090"/>
<path d="M110.14 168.62C110.14 168.62 111.14 164.81 112.9 164.45C114.73 164.08 114.8 169.55 114.8 169.55L110.14 168.62Z" fill="#FF0090"/>
<path d="M117.81 168.67C117.81 168.67 118.56 165.82 119.87 165.55C121.23 165.27 121.29 169.36 121.29 169.36L117.81 168.67Z" fill="#FF0090"/>
<mask id="mask1_6008_8998" style="mask-type:luminance" maskUnits="userSpaceOnUse" x="58" y="76" width="47" height="36">
<path d="M102.09 87.4798C101.08 83.9598 104.68 81.5798 104.45 80.6798L104.43 80.6598C104.34 80.6598 103.88 80.0398 103.19 79.6698C95.7 75.6098 87.01 76.2498 81.55 76.3598C70.7 76.5698 62.07 86.4298 58.9 89.9798C57.89 91.1198 59.51 95.8098 60.24 98.0198V98.0398C69.05 101.56 69.63 104.7 71.64 106.82C80.66 116.37 83.61 109.72 88.73 107.57C91.75 106.3 93.32 108.86 96.38 106.09C98.64 104.05 97.33 101.47 99.31 98.3398C100.69 96.1598 103.85 94.9898 104.16 93.2998C104.67 90.4798 102.56 89.0698 102.1 87.4798" fill="white"/>
</mask>
<g mask="url(#mask1_6008_8998)">
<path d="M121.48 97.6499C119.12 98.9499 115.91 100.6 112.22 102.22C109.88 103.25 108.83 105.98 109.89 108.3C110.83 110.33 111.53 112.81 110.28 114.55C107.54 118.36 102.25 119.7 90.6 114.49C87.71 113.2 88.5 115.7 87.63 118.88C86.52 122.95 76.63 122.07 72.5 115.66C70.09 111.92 68.55 107.62 55.12 102.25L55.1 102.23C53.98 98.8499 51.51 91.6899 53.06 89.9499C57.89 84.5199 71.08 69.4699 87.64 69.1499C95.98 68.9799 109.25 68.0099 120.69 74.2099C121.76 74.7899 122.46 75.7199 122.59 75.7299L122.63 75.7599C122.99 77.1399 122.67 78.7199 121.59 79.8599C121.02 80.4599 120.4 81.1099 119.71 81.7999C117.98 83.5299 117.93 86.3199 119.58 88.1199C120.73 89.3799 121.74 90.5199 122.58 91.4999C124.24 93.3899 123.68 96.4599 121.5 97.6599" fill="#828DFF"/>
<path d="M63.05 87.9299C64.72 87.3799 66.47 87.0599 68.21 86.8699C71.8 86.4799 75.41 86.6799 78.98 87.1699C86.85 88.2399 94.64 90.2699 102.13 92.8899C106.5 94.4199 110.79 96.1799 114.98 98.1499C116.12 98.6899 116.96 96.9199 115.82 96.3799C108.08 92.7199 99.98 89.8199 91.68 87.7199C87.75 86.7199 83.76 85.8699 79.74 85.2999C75.98 84.7699 72.15 84.5099 68.36 84.8899C67.4 84.9899 66.43 85.1299 65.47 85.3099C66.02 84.8299 66.59 84.3799 67.21 83.9699C68.65 83.0199 70.19 82.2099 71.7 81.3799C73.39 80.4499 75.21 79.2799 77.12 78.6199C78.07 78.4199 79.03 78.2499 80 78.1099C80.13 78.0899 80.25 78.0599 80.35 78.0099C82.43 77.8699 84.54 77.9199 86.62 77.9599C88.94 77.9999 91.26 78.0899 93.58 78.2499C94.07 78.2799 94.56 78.3199 95.06 78.3599C98.73 78.9599 102.35 79.8499 105.84 81.1499C110.46 82.8699 114.86 85.1899 118.86 88.0699C119.4 88.4499 120.13 88.4699 120.58 87.9399C120.98 87.4699 120.99 86.5999 120.45 86.2199C117.94 84.4099 115.29 82.8199 112.55 81.4499C113.45 81.7099 114.35 81.9899 115.24 82.2899C115.86 82.4999 116.56 82.3499 116.87 81.7099C117.13 81.1699 116.92 80.2999 116.29 80.0799C109.59 77.7999 102.65 76.5699 95.63 75.9699C95.45 75.9399 95.27 75.9099 95.09 75.8799C90.68 75.1899 86.1 74.6599 81.64 74.9799C78.16 75.2299 74.81 76.1799 71.66 77.6499C70.95 77.9399 70.27 78.2699 69.62 78.6799C69.57 78.7099 69.52 78.7399 69.48 78.7799C66.19 80.6299 63.23 83.0299 60.61 85.7399C60.4 85.7599 60.21 85.8299 60.04 85.9499C59.97 86.0099 59.89 86.0599 59.82 86.1199C59.68 86.2099 59.57 86.3199 59.49 86.4699C59.39 86.5999 59.32 86.7499 59.3 86.9199C59.27 87.0799 59.27 87.2399 59.32 87.3899C59.33 87.4699 59.35 87.5399 59.38 87.6099C58.64 88.1699 57.99 88.8599 57.51 89.7099C57.37 89.9599 57.36 90.1899 57.42 90.3999C57.38 90.4399 57.35 90.4799 57.31 90.5199C56.83 90.6399 56.45 91.0199 56.5 91.5599C56.53 91.8699 56.74 92.1799 57.02 92.3399C57.36 92.6799 57.89 92.7999 58.28 92.3899C59.28 92.4099 60.14 92.8499 61.04 93.3999C62.27 94.1399 63.5 94.8899 64.7 95.6799C67.09 97.2399 69.35 98.9799 71.35 101.02C75.17 104.93 78.23 109.5 82.31 113.18C84.68 115.32 87.27 117.2 90.01 118.82C90.46 119.09 91.1 118.8 91.31 118.36C91.55 117.85 91.31 117.33 90.85 117.06C85.95 114.16 81.84 110.34 78.21 105.99C76.39 103.81 74.62 101.58 72.63 99.5399C70.6 97.4599 68.31 95.7199 65.88 94.1399C64.5 93.2399 63.1 92.3699 61.69 91.5299C61.33 91.3099 60.96 91.1199 60.58 90.9599C61.15 90.8399 61.76 90.8099 62.36 90.8499C64.07 90.9599 65.79 91.3499 67.46 91.7599C70.93 92.6099 74.28 93.8799 77.51 95.3899C84.19 98.5099 90.3 102.66 96.37 106.81C99.88 109.21 103.39 111.6 107 113.82C107.45 114.1 108.09 113.8 108.3 113.36C108.55 112.84 108.29 112.34 107.84 112.06C94.86 104.08 82.93 93.5499 67.8 89.8499C65.81 89.3599 63.21 88.6999 60.91 88.9299C61.58 88.4999 62.34 88.1899 63.08 87.9399" fill="#4555FF"/>
<path d="M60.97 93.3799C60.97 93.3799 61 93.3999 61.02 93.4099C61.67 93.7999 62.32 94.1999 62.96 94.5999C62.97 94.5999 62.98 94.6099 62.99 94.6199C63 94.6199 63.02 94.6399 63.03 94.6399C63.05 94.6599 63.08 94.6699 63.1 94.6899C63.1 94.6899 63.1 94.6899 63.11 94.6899C63.38 94.8599 63.65 95.0299 63.92 95.1999C63.45 96.3699 63.06 97.4999 62.73 98.5899C62.69 98.5399 62.65 98.4999 62.6 98.4599C62.08 96.7199 61.52 95.0199 60.96 93.3799M65.71 91.3599C65.34 92.0499 65.01 92.7299 64.7 93.3999C64.59 93.3299 64.48 93.2599 64.37 93.1899C64.37 93.1899 64.37 93.1899 64.36 93.1899C64.34 93.1799 64.32 93.1699 64.31 93.1599C64.3 93.1599 64.28 93.1399 64.27 93.1299C64.25 93.1199 64.24 93.1099 64.22 93.0999C64.2 93.0899 64.18 93.0699 64.16 93.0599C64.16 93.0599 64.14 93.0499 64.13 93.0399C64.11 93.0299 64.08 93.0099 64.06 92.9999C64.06 92.9999 64.06 92.9999 64.05 92.9999C64.02 92.9799 63.99 92.9599 63.96 92.9499C63.96 92.9499 63.96 92.9499 63.95 92.9499C63.92 92.9299 63.89 92.9199 63.87 92.8999C63.81 92.8599 63.75 92.8199 63.68 92.7799C63.62 92.7399 63.56 92.6999 63.49 92.6599C63.43 92.6199 63.37 92.5799 63.31 92.5499C63.31 92.5499 63.31 92.5499 63.3 92.5499C63.27 92.5299 63.24 92.5099 63.21 92.4999C63.18 92.4799 63.15 92.4599 63.12 92.4499C63.12 92.4499 63.11 92.4499 63.1 92.4399C63.08 92.4299 63.05 92.4099 63.03 92.3999C63.03 92.3999 63.02 92.3999 63.01 92.3899C62.98 92.3699 62.96 92.3599 62.93 92.3399C62.93 92.3399 62.91 92.3299 62.9 92.3199C62.88 92.3099 62.86 92.2999 62.84 92.2899C62.83 92.2899 62.82 92.2799 62.81 92.2699C62.79 92.2599 62.76 92.2399 62.74 92.2299C62.73 92.2299 62.71 92.2099 62.7 92.2099C62.69 92.2099 62.67 92.1899 62.66 92.1799C62.64 92.1799 62.63 92.1599 62.61 92.1499C62.6 92.1499 62.59 92.1399 62.58 92.1299C62.55 92.1099 62.52 92.0899 62.49 92.0799C62.49 92.0799 62.47 92.0699 62.46 92.0599C62.44 92.0499 62.42 92.0399 62.41 92.0299C62.41 92.0299 62.4 92.0299 62.39 92.0199C62.33 91.9799 62.27 91.9499 62.22 91.9099C62.22 91.9099 62.21 91.9099 62.2 91.8999C62.14 91.8699 62.09 91.8299 62.03 91.7999C62.03 91.7999 62.01 91.7899 62 91.7799C61.98 91.7699 61.97 91.7599 61.95 91.7499C61.94 91.7499 61.93 91.7399 61.92 91.7299C61.9 91.7199 61.87 91.6999 61.85 91.6899C61.83 91.6899 61.82 91.6699 61.8 91.6599C61.79 91.6599 61.78 91.6499 61.77 91.6399C61.74 91.6199 61.72 91.6099 61.69 91.5899C61.69 91.5899 61.67 91.5899 61.67 91.5799C61.33 91.3799 60.98 91.1899 60.62 91.0399C60.61 91.0399 60.6 91.0399 60.59 91.0299C61.16 90.9099 61.77 90.8799 62.37 90.9199C62.37 90.9199 62.39 90.9199 62.4 90.9199C62.4 90.9199 62.4 90.9199 62.41 90.9199C62.41 90.9199 62.42 90.9199 62.43 90.9199C62.43 90.9199 62.44 90.9199 62.45 90.9199C62.45 90.9199 62.45 90.9199 62.46 90.9199C62.46 90.9199 62.47 90.9199 62.48 90.9199H62.49C62.49 90.9199 62.5 90.9199 62.51 90.9199C62.51 90.9199 62.52 90.9199 62.53 90.9199C62.53 90.9199 62.54 90.9199 62.55 90.9199C62.59 90.9199 62.64 90.9199 62.68 90.9299C63.14 90.9699 63.6 91.0299 64.06 91.0999C64.08 91.0999 64.09 91.0999 64.11 91.0999H64.13H64.15C64.15 91.0999 64.23 91.1099 64.28 91.1199C64.28 91.1199 64.29 91.1199 64.3 91.1199C64.3 91.1199 64.3 91.1199 64.31 91.1199C64.31 91.1199 64.32 91.1199 64.33 91.1199C64.33 91.1199 64.33 91.1199 64.34 91.1199C64.34 91.1199 64.34 91.1199 64.35 91.1199C64.35 91.1199 64.35 91.1199 64.36 91.1199C64.36 91.1199 64.36 91.1199 64.37 91.1199C64.37 91.1199 64.38 91.1199 64.39 91.1199C64.39 91.1199 64.39 91.1199 64.4 91.1199H64.42C64.85 91.1899 65.28 91.2799 65.71 91.3699M68.5 86.8399C68.29 87.1299 68.08 87.4299 67.88 87.7299C67.46 88.3499 67.08 88.9699 66.71 89.5799C66.69 89.5799 66.67 89.5799 66.66 89.5699C66.66 89.5699 66.65 89.5699 66.64 89.5699C66.46 89.5299 66.29 89.4899 66.11 89.4499C64.52 89.0899 62.75 88.7899 61.11 88.9099C61.03 88.9099 60.96 88.9199 60.88 88.9299C61.55 88.4999 62.31 88.1899 63.05 87.9399C64.72 87.3899 66.47 87.0699 68.21 86.8799C68.26 86.8799 68.31 86.8699 68.35 86.8599C68.4 86.8599 68.46 86.8499 68.51 86.8399M77.11 78.6299C75 80.1199 72.46 82.1399 70.17 84.7599C70.04 84.7599 69.91 84.7699 69.77 84.7799C69.76 84.7799 69.75 84.7799 69.74 84.7799C69.29 84.8099 68.84 84.8399 68.39 84.8899C68.37 84.8899 68.36 84.8899 68.34 84.8899C67.38 84.9899 66.41 85.1299 65.45 85.3099C66 84.8299 66.57 84.3799 67.19 83.9699C68.63 83.0199 70.17 82.2099 71.68 81.3799C73.37 80.4499 75.19 79.2799 77.1 78.6199" fill="#6873EB"/>
<path d="M63.11 94.6899C63.11 94.6899 63.11 94.6899 63.12 94.6899C63.12 94.6899 63.12 94.6899 63.11 94.6899ZM63 94.6199C63 94.6199 63.03 94.6399 63.04 94.6399C63.03 94.6399 63.01 94.6199 63 94.6199ZM60.97 93.3799C60.97 93.3799 61 93.3999 61.02 93.4099C61.67 93.7999 62.32 94.1999 62.96 94.5999C62.31 94.1999 61.67 93.8099 61.02 93.4099C61 93.4099 60.99 93.3899 60.97 93.3799ZM64.36 93.1799C64.36 93.1799 64.36 93.1799 64.37 93.1799C64.37 93.1799 64.37 93.1799 64.36 93.1799ZM64.26 93.1199C64.26 93.1199 64.29 93.1399 64.3 93.1499C64.29 93.1499 64.27 93.1299 64.26 93.1199ZM64.15 93.0499C64.15 93.0499 64.19 93.0799 64.21 93.0899C64.19 93.0799 64.17 93.0599 64.15 93.0499ZM64.05 92.9899C64.05 92.9899 64.1 93.0199 64.12 93.0299C64.1 93.0199 64.07 92.9999 64.05 92.9899ZM63.95 92.9299C63.95 92.9299 64.01 92.9699 64.04 92.9799C64.01 92.9599 63.98 92.9399 63.95 92.9299ZM63.86 92.8699C63.86 92.8699 63.92 92.8999 63.94 92.9199C63.91 92.8999 63.88 92.8899 63.86 92.8699ZM63.67 92.7499C63.73 92.7899 63.79 92.8299 63.86 92.8699C63.8 92.8299 63.74 92.7899 63.67 92.7499ZM63.48 92.6299C63.54 92.6699 63.6 92.7099 63.67 92.7499C63.61 92.7099 63.55 92.6699 63.48 92.6299ZM63.29 92.5099C63.35 92.5499 63.41 92.5899 63.47 92.6199C63.41 92.5799 63.35 92.5399 63.29 92.5099ZM63.19 92.4499C63.19 92.4499 63.25 92.4899 63.28 92.4999C63.25 92.4799 63.22 92.4599 63.19 92.4499ZM63.1 92.3999C63.1 92.3999 63.16 92.4399 63.19 92.4499C63.16 92.4299 63.13 92.4099 63.1 92.3999ZM63.01 92.3399C63.01 92.3399 63.06 92.3699 63.08 92.3799C63.06 92.3699 63.03 92.3499 63.01 92.3399ZM62.91 92.2799C62.91 92.2799 62.96 92.3099 62.99 92.3299C62.96 92.3099 62.94 92.2999 62.91 92.2799ZM62.83 92.2299C62.83 92.2299 62.87 92.2499 62.89 92.2599C62.87 92.2499 62.85 92.2399 62.83 92.2299ZM62.73 92.1699C62.73 92.1699 62.78 92.1999 62.8 92.2099C62.78 92.1999 62.75 92.1799 62.73 92.1699ZM62.64 92.1199C62.64 92.1199 62.67 92.1399 62.68 92.1499C62.67 92.1499 62.65 92.1299 62.64 92.1199ZM62.57 92.0699C62.57 92.0699 62.59 92.0799 62.6 92.0899C62.59 92.0899 62.58 92.0799 62.57 92.0699ZM62.45 91.9999C62.45 91.9999 62.47 92.0099 62.48 92.0199C62.48 92.0199 62.46 92.0099 62.45 91.9999ZM62.38 91.9599C62.38 91.9599 62.39 91.9599 62.4 91.9699C62.4 91.9699 62.39 91.9699 62.38 91.9599ZM62.18 91.8399C62.18 91.8399 62.19 91.8399 62.2 91.8499C62.2 91.8499 62.19 91.8499 62.18 91.8399ZM61.98 91.7199C61.98 91.7199 62 91.7299 62.01 91.7399C62.01 91.7399 61.99 91.7299 61.98 91.7199ZM61.9 91.6699C61.9 91.6699 61.92 91.6799 61.93 91.6899C61.92 91.6899 61.91 91.6799 61.9 91.6699ZM61.78 91.5999C61.78 91.5999 61.81 91.6199 61.83 91.6299C61.81 91.6299 61.8 91.6099 61.78 91.5999ZM61.67 91.5299C61.67 91.5299 61.72 91.5599 61.75 91.5799C61.72 91.5599 61.7 91.5499 61.67 91.5299ZM61.64 91.5099C61.64 91.5099 61.66 91.5099 61.66 91.5199C61.66 91.5199 61.64 91.5199 61.64 91.5099ZM60.59 90.9699C60.95 91.1299 61.3 91.3099 61.64 91.5099C61.37 91.3499 61.09 91.1999 60.81 91.0699C60.74 91.0399 60.66 90.9999 60.59 90.9699ZM60.56 90.9499C60.56 90.9499 60.58 90.9499 60.59 90.9599C60.58 90.9599 60.57 90.9599 60.56 90.9499ZM62.36 90.8499C62.36 90.8499 62.34 90.8499 62.33 90.8499C61.74 90.8099 61.13 90.8399 60.55 90.9599C61.12 90.8399 61.73 90.8099 62.33 90.8499C62.33 90.8499 62.35 90.8499 62.36 90.8499ZM62.39 90.8499C62.39 90.8499 62.39 90.8499 62.37 90.8499C62.37 90.8499 62.38 90.8499 62.39 90.8499ZM62.41 90.8499C62.41 90.8499 62.41 90.8499 62.4 90.8499C62.4 90.8499 62.4 90.8499 62.41 90.8499ZM62.44 90.8499H62.43C62.43 90.8499 62.43 90.8499 62.44 90.8499ZM64.3 91.0799C64.3 91.0799 64.3 91.0799 64.29 91.0799C64.29 91.0799 64.29 91.0799 64.3 91.0799ZM64.32 91.0899C64.32 91.0899 64.32 91.0899 64.31 91.0899C64.31 91.0899 64.31 91.0899 64.32 91.0899ZM64.35 91.0899C64.35 91.0899 64.35 91.0899 64.34 91.0899C64.34 91.0899 64.34 91.0899 64.35 91.0899ZM64.38 91.0999C64.38 91.0999 64.37 91.0999 64.36 91.0999C64.36 91.0999 64.37 91.0999 64.38 91.0999ZM66.64 89.5599C66.64 89.5599 66.65 89.5599 66.66 89.5599C66.66 89.5599 66.65 89.5599 66.64 89.5599ZM66.1 89.4299C66.28 89.4699 66.46 89.5099 66.63 89.5499C66.45 89.5099 66.28 89.4699 66.1 89.4299C64.51 89.0699 62.74 88.7699 61.1 88.8899C62.74 88.7599 64.51 89.0699 66.1 89.4299ZM68.35 86.8599C68.35 86.8599 68.25 86.8699 68.21 86.8799C66.47 87.0699 64.72 87.3799 63.05 87.9399C64.72 87.3899 66.47 87.0699 68.21 86.8799C68.26 86.8799 68.31 86.8699 68.35 86.8599ZM68.39 84.8899C68.39 84.8899 68.36 84.8899 68.34 84.8899C68.36 84.8899 68.37 84.8899 68.39 84.8899ZM69.77 84.7799C69.77 84.7799 69.75 84.7799 69.74 84.7799C69.75 84.7799 69.76 84.7799 69.77 84.7799ZM70.17 84.7599C70.04 84.7599 69.91 84.7699 69.77 84.7799C69.9 84.7799 70.03 84.7699 70.17 84.7599ZM71.69 81.3899C70.18 82.2199 68.64 83.0299 67.2 83.9799C66.58 84.3799 66.01 84.8399 65.46 85.3199C66.01 84.8399 66.58 84.3899 67.2 83.9799C68.64 83.0299 70.18 82.2199 71.69 81.3899Z" fill="#3745EB"/>
<path d="M80.46 76.3999C70.12 77.2099 61.95 86.5299 58.89 89.9699C58.83 90.0399 58.78 90.1099 58.74 90.1999C58.51 90.6899 58.53 91.4899 58.68 92.4299C59.15 92.4899 59.59 92.6499 60.02 92.8499C60.35 93.0099 60.68 93.1999 61.02 93.3999C61.99 93.9899 62.97 94.5799 63.93 95.1899C64.17 94.5999 64.42 93.9999 64.7 93.3899C63.7 92.7499 62.68 92.1299 61.66 91.5199C61.38 91.3499 61.09 91.1999 60.8 91.0599C60.72 91.0199 60.63 90.9799 60.55 90.9399C61.12 90.8199 61.73 90.7899 62.33 90.8299C63.46 90.9099 64.59 91.0999 65.71 91.3399C66.02 90.7499 66.35 90.1599 66.71 89.5599C64.9 89.1299 62.78 88.6999 60.87 88.8999C61.54 88.4699 62.3 88.1599 63.04 87.9099C64.71 87.3599 66.46 87.0399 68.2 86.8499C68.3 86.8399 68.4 86.8299 68.5 86.8199C69.03 86.0899 69.59 85.3899 70.16 84.7399C69.55 84.7699 68.94 84.8099 68.33 84.8799C67.37 84.9799 66.4 85.1199 65.44 85.2999C65.99 84.8199 66.56 84.3699 67.18 83.9599C68.62 83.0099 70.16 82.1999 71.67 81.3699C73.36 80.4399 75.18 79.2699 77.09 78.6099C78.44 77.6499 79.62 76.9199 80.44 76.3799" fill="#3D4CE3"/>
</g>
<path d="M20.81 192.39C20.81 192.39 20.79 192.48 20.79 192.52C20.73 192.82 20.69 193.14 20.64 193.47C20.64 193.47 20.64 193.47 20.64 193.49C20.4 195.26 20.33 197.26 20.52 199.45C20.83 202.86 21.81 204.98 20.85 207C19.58 209.67 15.31 212.01 16.23 214.36C16.26 214.45 16.3 214.52 16.35 214.6C16.45 214.78 16.59 214.95 16.76 215.11C19.3 217.48 28.64 217.91 32.1 217.49C34.54 217.2 36.8 216.21 38.47 214.44C38.95 213.93 39.38 213.36 39.75 212.71C40.79 210.95 41.38 208.66 41.32 205.82C41.18 199.75 47.19 192.71 49.88 186.68C51.22 183.67 45.17 178.21 39.61 179.94C31.93 182.34 24.39 180.58 24.39 180.58C22.8 181.48 21.31 189.39 20.8 192.39H20.81Z" fill="#4F5FFF"/>
<path d="M37.98 194.96C42.58 197.62 40.97 207.57 39.76 212.72C40.8 210.96 41.39 208.67 41.33 205.83C41.19 199.76 47.2 192.72 49.89 186.69C51.23 183.68 45.18 178.22 39.62 179.95C31.94 182.35 23.7 180.67 23.7 180.67C22.11 181.57 31.9 191.45 37.97 194.96H37.98Z" fill="#293CFF"/>
<path d="M16.36 214.6C15.84 212.05 19.71 209.49 20.83 209.03C23.32 208 25.23 207.25 25.02 206.51C24.81 205.77 23.38 205.16 21.93 203.04C20.57 201.04 20.64 193.92 20.64 193.48C20.4 195.25 20.33 197.25 20.52 199.44C20.83 202.85 21.81 204.97 20.85 206.99C19.58 209.66 15.31 212.01 16.23 214.35C16.26 214.43 16.3 214.51 16.35 214.59L16.36 214.6Z" fill="#7884FF"/>
<path d="M125.94 170.33C125.19 170.94 124.35 171.6 123.44 172.28H123.43C123.18 172.49 122.87 172.71 122.54 172.97C122.07 173.31 121.58 173.67 121.07 174.05C120.83 174.22 120.57 174.41 120.3 174.61C120.01 174.81 119.7 175.03 119.39 175.25C119.27 175.34 119.14 175.43 119.01 175.52C111.97 180.43 102.27 186.27 91.13 190.51C90.18 190.87 89.25 191.21 88.32 191.53C88.27 191.55 88.23 191.56 88.18 191.58C87.11 191.94 86.04 192.29 85.01 192.6C68.99 197.49 56.39 196.57 49.56 194.78C49.22 194.7 48.9 194.6 48.58 194.51C48.48 194.47 48.36 194.44 48.25 194.41C48.2 194.39 48.15 194.37 48.1 194.36C47.35 194.14 46.59 193.99 45.83 193.78C42.79 192.9 39.72 191.77 36.69 190.34C34.76 189.44 32.97 188.47 31.31 187.45C27.79 185.29 24.85 182.9 22.44 180.3C22.24 180.09 22.06 179.88 21.87 179.67C10.86 167.24 11.42 150.3 17.81 132.6C18.23 131.45 18.68 130.28 19.15 129.11C20.03 126.89 21 124.67 22.06 122.43C22.17 122.19 22.28 121.94 22.41 121.7C22.44 121.62 22.47 121.56 22.51 121.48C22.61 121.28 22.71 121.06 22.81 120.86C23.06 120.36 23.3 119.87 23.55 119.37H23.56C24.3 117.86 25.08 116.36 25.89 114.86C31.16 105.11 34.6 96.1899 36.82 88.6199C38.9 81.5499 39.94 75.6599 40.45 71.3499C40.96 67.0999 40.95 64.3999 40.94 63.6299C40.94 63.4799 40.93 63.4199 40.93 63.4199L56.5 71.5499L57.96 72.3099C57.96 72.3099 55.67 74.0799 55.46 76.1299C55.43 76.4299 55.44 76.7399 55.51 77.0499C57.58 85.9599 63.79 97.4899 65.45 111.7C72.18 169.11 109.58 169.61 124.66 167.4C125.5 167.28 129.89 166.18 130.16 166.81C130.45 167.44 126.61 169.81 125.94 170.33Z" fill="#6B78FF"/>
<path d="M48.25 194.41C47.44 194.22 46.64 194.01 45.83 193.78C42.78 192.91 39.72 191.77 36.68 190.35C34.75 189.44 32.96 188.48 31.3 187.45C27.78 185.3 24.85 182.9 22.43 180.3C22.23 180.09 22.04 179.88 21.86 179.68C10.85 167.24 11.41 150.31 17.8 132.61C18.22 131.45 18.66 130.28 19.13 129.12C20.02 126.9 20.99 124.68 22.04 122.44C22.15 122.19 22.27 121.95 22.39 121.7C22.42 121.63 22.45 121.56 22.49 121.49C22.59 121.28 22.69 121.07 22.8 120.86C23.04 120.37 23.29 119.87 23.53 119.38C24.27 117.88 25.05 116.38 25.86 114.88C40.91 87.0599 40.96 66.0199 40.92 63.6499L48.74 65.4099C48.74 65.4099 47.28 87.9999 50.43 114.91C56.78 169.1 49.2 192.2 48.23 194.42" fill="#B3B9FF"/>
<mask id="mask2_6008_8998" style="mask-type:luminance" maskUnits="userSpaceOnUse" x="13" y="63" width="40" height="132">
<path d="M48.25 194.41C47.44 194.22 46.64 194.01 45.83 193.78C42.78 192.91 39.72 191.77 36.68 190.35C34.75 189.44 32.96 188.48 31.3 187.45C27.78 185.3 24.85 182.9 22.43 180.3C22.23 180.09 22.04 179.88 21.86 179.68C10.85 167.24 11.41 150.31 17.8 132.61C18.22 131.45 18.66 130.28 19.13 129.12C20.02 126.9 20.99 124.68 22.04 122.44C22.15 122.19 22.27 121.95 22.39 121.7C22.42 121.63 22.45 121.56 22.49 121.49C22.59 121.28 22.69 121.07 22.8 120.86C23.04 120.37 23.29 119.87 23.53 119.38C24.27 117.88 25.05 116.38 25.86 114.88C40.91 87.0599 40.96 66.0199 40.92 63.6499L48.74 65.4099C48.74 65.4099 47.28 87.9999 50.43 114.91C56.78 169.1 49.2 192.2 48.23 194.42" fill="white"/>
</mask>
<g mask="url(#mask2_6008_8998)">
<path d="M36.88 66.82C38.3 66.02 39.82 66.58 41.2 67.19C42.71 67.86 44.23 68.37 45.86 68.64C49.16 69.17 52.58 68.72 55.64 67.38C56.39 67.05 56.77 68.27 56.03 68.6C53.02 69.92 49.7 70.37 46.45 70.01C44.84 69.83 43.26 69.42 41.75 68.82C40.56 68.35 38.86 67.17 37.57 67.9C36.85 68.3 36.17 67.22 36.89 66.82" fill="#8792FF"/>
<path d="M37.05 77.9798C38.07 78.0498 39.01 78.5098 39.94 78.8798C40.89 79.2498 41.84 79.5298 42.86 79.6498C44.76 79.8698 46.69 79.6898 48.57 79.3598C52 78.7598 55.26 77.5298 57.91 75.2098C58.87 74.3698 57.41 73.0298 56.46 73.8598C54.03 75.9798 50.84 77.0498 47.69 77.5098C45.89 77.7698 44.01 77.9398 42.22 77.5398C41.48 77.3798 40.77 77.1098 40.08 76.8398C39.07 76.4598 38.08 76.0698 36.96 75.9998C35.69 75.9198 35.79 77.8998 37.05 77.9798Z" fill="#8792FF"/>
<path d="M33.69 88.4999C35.32 87.4499 37.38 88.0499 39.13 88.4299C41.09 88.8499 43.06 89.0399 45.05 88.7999C49.02 88.3199 52.79 86.4699 55.42 83.4299C56.25 82.4699 54.81 81.1199 53.97 82.0799C51.4 85.0499 47.65 86.7599 43.74 86.9199C41.77 86.9999 39.94 86.5299 38.02 86.1799C36.17 85.8399 34.26 85.7699 32.62 86.8299C31.55 87.5199 32.6 89.1899 33.68 88.4999" fill="#8792FF"/>
<path d="M32.27 98.1299C34.1 98.0899 35.86 98.5299 37.62 98.9699C38.28 99.1399 38.95 99.2999 39.62 99.4399C41.81 99.8999 44.05 99.9999 46.27 99.7099C50.6 99.1399 54.65 97.3499 58.32 95.0499C59.4 94.3699 58.34 92.6999 57.26 93.3799C53.74 95.5799 49.81 97.3599 45.64 97.7899C43.48 98.0199 41.39 97.8299 39.28 97.3299C36.92 96.7799 34.61 96.0899 32.16 96.1499C30.89 96.1799 30.98 98.1599 32.25 98.1299" fill="#8792FF"/>
<path d="M27.11 105.26C34.49 108.92 43.44 109.07 50.99 105.8C53.16 104.86 55.19 103.67 57.05 102.21C58.04 101.43 56.99 99.75 55.99 100.54C48.18 106.7 36.98 107.95 28.05 103.52C26.91 102.95 25.97 104.7 27.12 105.27" fill="#8792FF"/>
<path d="M24.19 116.13C28.61 119.43 34.24 119.76 39.55 119.26C45.16 118.73 50.54 117.41 55.25 114.21C56.3 113.5 55.25 111.82 54.19 112.54C49.84 115.49 44.92 116.74 39.74 117.25C34.96 117.72 29.57 117.68 25.54 114.68C24.53 113.92 23.17 115.37 24.19 116.13Z" fill="#8792FF"/>
<path d="M19.68 124.57C27.88 130.22 38.59 131.81 48.16 129.21C50.87 128.47 53.48 127.38 55.91 125.98C57.02 125.34 55.96 123.67 54.85 124.31C46.69 128.99 36.53 129.66 27.72 126.5C25.2 125.6 22.81 124.34 20.61 122.82C19.56 122.1 18.64 123.85 19.68 124.57Z" fill="#8792FF"/>
<path d="M15.36 136.45C20.8 138.73 26.33 141.06 32.2 142C37.61 142.86 43.05 142.33 48.32 140.94C51.24 140.17 54.09 139.15 56.88 138C56.62 137.98 56.37 137.95 56.11 137.93L56.21 137.98C56.05 137.79 55.89 137.6 55.73 137.41C55.87 137.14 56.01 136.86 56.15 136.59C56.41 136.61 56.66 136.64 56.92 136.66L56.82 136.61C55.68 136.04 54.74 137.79 55.89 138.36C56.93 138.87 58.1 137.77 57.57 136.7C57.25 136.06 56.62 136.02 56.02 136.23C55.3 136.48 54.6 136.8 53.88 137.07C51.1 138.12 48.26 139.01 45.35 139.63C42.46 140.24 39.49 140.55 36.53 140.46C33.25 140.36 30.01 139.68 26.88 138.73C23.26 137.64 19.78 136.18 16.3 134.72C15.13 134.23 14.19 135.97 15.37 136.47" fill="#8792FF"/>
<path d="M13.02 149.48C23.9 154.49 36.53 155.3 48 151.88C51.26 150.91 54.4 149.59 57.38 147.96C58.5 147.35 57.44 145.68 56.32 146.29C46.27 151.77 34.24 153.32 23.09 150.82C19.94 150.11 16.88 149.08 13.95 147.73C12.8 147.2 11.86 148.94 13.02 149.48Z" fill="#8792FF"/>
<path d="M12.98 163.24C25.5 166.45 39.06 167.61 51.39 162.94C54.51 161.76 57.48 160.23 60.22 158.34C61.05 157.76 60.63 156.53 59.64 156.51C58.81 156.5 58.11 156.95 57.74 157.68C57.16 158.81 58.91 159.75 59.49 158.61C59.51 158.47 59.59 158.43 59.74 158.49C59.55 157.88 59.36 157.27 59.16 156.66C49.08 163.63 36.38 165.07 24.48 163.5C20.75 163.01 17.06 162.24 13.41 161.3C12.18 160.98 11.74 162.91 12.97 163.23" fill="#8792FF"/>
<path d="M15.36 176.22C27.67 179.32 40.96 177.64 52.23 171.87C55.45 170.22 58.48 168.23 61.26 165.93C61.98 165.34 61.76 164.06 60.68 164.1C60.13 164.12 59.57 164.14 59.02 164.17C57.75 164.22 57.84 166.2 59.11 166.15C59.66 166.13 60.22 166.11 60.77 166.08C60.58 165.47 60.39 164.86 60.19 164.25C50.69 172.09 38.39 176.16 26.09 175.75C22.61 175.63 19.15 175.13 15.77 174.28C14.53 173.97 14.1 175.9 15.33 176.21" fill="#8792FF"/>
<path d="M30.04 192.82C32.91 193.17 35.69 192.5 38.34 191.41C40.99 190.33 43.56 189.01 46.04 187.59C50.98 184.76 55.59 181.34 59.75 177.45C61.98 175.37 64.87 172.96 64.83 169.63C64.81 168.36 62.84 168.45 62.85 169.72C62.88 172.26 60.19 174.32 58.51 175.9C56.58 177.72 54.55 179.43 52.43 181.02C48.28 184.13 43.78 186.83 39.05 188.96C36.38 190.16 33.46 191.24 30.48 190.88C29.23 190.73 28.78 192.66 30.04 192.81V192.82Z" fill="#8792FF"/>
<mask id="mask3_6008_8998" style="mask-type:luminance" maskUnits="userSpaceOnUse" x="39" y="63" width="2" height="14">
<path d="M40.75 68.3699C40.58 70.5199 40.25 73.3299 39.66 76.6799C40.26 73.3199 40.58 70.5199 40.75 68.3699ZM40.94 63.6399C40.94 64.0999 40.95 65.2599 40.84 67.0499C40.95 65.2699 40.94 64.1099 40.94 63.6499" fill="white"/>
</mask>
<g mask="url(#mask3_6008_8998)">
<path d="M40.9443 63.6413L38.0841 76.333L39.6645 76.6892L42.5247 63.9975L40.9443 63.6413Z" fill="#C5CAFF"/>
</g>
<path d="M23.55 119.37C24 118.46 24.46 117.56 24.93 116.65L23.55 119.37Z" fill="#C5CAFF"/>
<path d="M40.85 67.0398C40.83 67.4498 40.79 67.8898 40.76 68.3698C40.8 67.8998 40.83 67.4498 40.85 67.0398Z" fill="#A3ACFF"/>
<g style="mix-blend-mode:multiply" opacity="0.28">
<path d="M13.59 149.74C13.67 149.06 13.76 148.38 13.86 147.7C14.1 146.12 14.4 144.53 14.76 142.92C15.21 140.92 15.75 138.91 16.38 136.88C16.57 136.25 16.77 135.63 16.98 135L19.89 125.61L24.41 116.31C24.54 116.4 24.73 116.52 24.94 116.65C25.24 116.08 25.55 115.5 25.86 114.93C25.86 114.91 25.88 114.9 25.88 114.88C27.43 112.02 28.82 109.23 30.07 106.52C30.35 105.91 30.62 105.31 30.89 104.72C31.88 102.48 32.78 100.3 33.59 98.1899C33.84 97.5499 34.07 96.9099 34.3 96.2899C35.36 93.3899 36.25 90.6199 37.01 88.0199C37.2 87.3799 37.37 86.7399 37.54 86.1199C37.99 84.4499 38.38 82.8599 38.72 81.3499C38.93 80.4099 39.12 79.4999 39.3 78.6299C39.21 79.0799 39.12 79.5399 39.02 79.9999C39.02 79.9999 39.02 79.9999 39.03 79.9999C39.2 80.0399 39.37 80.0799 39.54 80.1299C39.13 81.9599 38.62 84.0299 38.05 86.1999C37.89 86.8299 37.72 87.4599 37.54 88.1099C36.8 90.8599 35.99 93.7199 35.18 96.4199C34.99 97.0599 34.8 97.6999 34.6 98.3199C33.81 100.89 33.04 103.26 32.36 105.19C32.12 105.86 31.89 106.49 31.68 107.05C31.38 107.84 31.1 108.5 30.86 109.01C30.19 110.42 28.82 112.73 27.15 115.73C26.85 116.27 26.53 116.84 26.21 117.43C25.94 117.92 25.67 118.43 25.4 118.95L19.15 132.91C18.84 133.78 18.55 134.66 18.26 135.55C18.06 136.18 17.87 136.81 17.69 137.45C16.68 140.99 15.91 144.69 15.57 148.47C15.51 149.16 15.46 149.85 15.42 150.54C15.24 154.22 15.47 157.96 16.28 161.68C16.31 161.8 16.33 161.93 16.36 162.05C16.52 162.78 16.69 163.49 16.87 164.19C17.96 168.46 19.32 172.15 20.8 175.32C21.14 176.06 21.49 176.76 21.85 177.44C22.97 179.58 24.13 181.45 25.27 183.08C24.25 182.19 23.31 181.27 22.43 180.33C22.23 180.12 22.04 179.91 21.86 179.71C21.13 178.88 20.44 178.03 19.81 177.16C19.27 176.41 18.76 175.66 18.29 174.88C16.13 171.34 14.72 167.53 13.95 163.51C13.82 162.81 13.7 162.1 13.61 161.38C13.11 157.66 13.13 153.77 13.59 149.76V149.74Z" fill="#4552FF"/>
</g>
</g>
<path d="M55.46 76.1399C55.43 76.4399 55.44 76.7499 55.51 77.0499C55.44 76.7399 55.43 76.4399 55.46 76.1399Z" fill="#970083"/>
<path d="M41.07 67.1399C41.07 67.1399 41.15 67.1799 41.19 67.1899C42.4 67.7299 43.62 68.1699 44.9 68.4499C45.21 68.5199 45.53 68.5799 45.86 68.6299C46.77 68.7799 47.68 68.8499 48.6 68.8499C48.59 69.2399 48.57 69.6699 48.56 70.1199C47.85 70.1199 47.15 70.0799 46.44 69.9999C45.8 69.9299 45.16 69.8199 44.53 69.6799C43.58 69.4699 42.65 69.1799 41.74 68.8099C41.53 68.7299 41.3 68.6199 41.06 68.4999C41.06 68.0199 41.07 67.5599 41.07 67.1199" fill="#5863FF"/>
<path d="M40.75 68.3699C40.85 68.4199 40.96 68.4699 41.06 68.5199C41.06 68.5299 41.06 68.5499 41.06 68.5599C41.01 71.2799 40.73 73.9899 40.25 76.6699C40.24 76.7399 40.22 76.8199 40.21 76.8899C40.16 76.8699 40.12 76.8599 40.07 76.8399C39.93 76.7899 39.8 76.7399 39.66 76.6799C40.26 73.3199 40.58 70.5199 40.75 68.3699ZM40.94 63.6399H40.96C41.03 64.5899 41.07 65.7399 41.07 67.1399C41 67.1099 40.92 67.0699 40.84 67.0399C40.95 65.2599 40.94 64.0899 40.94 63.6299" fill="#8089FF"/>
<path d="M39.3 78.6099C39.47 78.6799 39.65 78.7499 39.82 78.8199C39.73 79.2399 39.64 79.6699 39.54 80.1099C39.37 80.0599 39.2 80.0199 39.03 79.9799C39.03 79.9799 39.03 79.9799 39.02 79.9799C39.12 79.5099 39.21 79.0599 39.3 78.6099Z" fill="#8089FF"/>
<path d="M40.85 67.04C40.93 67.07 41 67.1 41.08 67.14C41.08 67.57 41.08 68.03 41.07 68.52C40.97 68.47 40.87 68.42 40.76 68.37C40.8 67.9 40.83 67.45 40.85 67.04Z" fill="#6A75FF"/>
<path d="M39.66 76.6799C39.8 76.7299 39.93 76.7799 40.07 76.8399C40.12 76.8599 40.16 76.8699 40.21 76.8899C40.1 77.4899 39.97 78.1399 39.82 78.8299C39.65 78.7599 39.47 78.6899 39.3 78.6199C39.43 77.9599 39.55 77.3099 39.66 76.6899" fill="#6A75FF"/>
<path d="M86.14 165.75C85.84 167.08 84.51 167.92 83.18 167.62C81.85 167.32 81.01 165.99 81.31 164.66C81.61 163.33 82.94 162.49 84.27 162.79C85.6 163.09 86.44 164.42 86.14 165.75Z" fill="#FF0090"/>
<path d="M85.53 176.69C86.3529 176.69 87.02 176.023 87.02 175.2C87.02 174.377 86.3529 173.71 85.53 173.71C84.7071 173.71 84.04 174.377 84.04 175.2C84.04 176.023 84.7071 176.69 85.53 176.69Z" fill="#FF0090"/>
<path d="M90.31 170.3C90.18 170.87 89.62 171.22 89.05 171.09C88.48 170.96 88.13 170.4 88.26 169.83C88.39 169.26 88.95 168.91 89.52 169.04C90.09 169.17 90.44 169.73 90.31 170.3Z" fill="#FF0090"/>
<path d="M89.78 190.53C89.78 190.61 89.15 190.98 88.17 191.59C84.45 193.9 75.54 199.66 75.32 205.77C75.11 211.62 74.62 216.66 74.25 217.98C74.22 218.1 74.18 218.19 74.16 218.24C73.14 219.93 71.76 221.33 70.08 222.3C69.69 222.53 69.28 222.71 68.86 222.89C67.23 223.58 64.07 224.46 60.96 224.96C59.13 225.25 57.31 225.41 55.82 225.31C55.01 225.26 54.29 225.12 53.73 224.9C53.42 224.77 53.15 224.62 52.95 224.42C52.86 224.34 52.79 224.27 52.73 224.18C52.67 224.1 52.62 224.02 52.57 223.94C52.54 223.88 52.51 223.81 52.48 223.75C52.45 223.67 52.43 223.59 52.4 223.52C52.38 223.42 52.36 223.33 52.35 223.25C52.35 223.18 52.35 223.12 52.35 223.04V222.95C52.35 222.88 52.35 222.82 52.35 222.76C52.5 220.75 54.77 218.13 55.17 215.81C55.56 213.6 54.04 211.82 52.82 208.61C52.63 208.11 52.45 207.62 52.27 207.13C50.73 202.89 49.62 198.99 49.48 196.36C49.45 195.76 49.46 195.22 49.55 194.77C49.55 194.69 49.55 194.62 49.58 194.55C49.82 194.4 84.13 191.05 89.14 190.56C89.54 190.52 89.76 190.5 89.76 190.5L89.78 190.53Z" fill="#6B78FF"/>
<path d="M52.95 224.41C50.89 220.56 60.25 213.65 58.18 212.71C56.71 212.05 54.82 208.66 53.85 206.75C53.45 205.97 53.2 205.43 53.2 205.43C51.32 202.6 49.6 194.56 49.6 194.56C49.08 196.95 50.34 201.76 52.29 207.13C52.47 207.62 52.65 208.11 52.84 208.61C54.06 211.82 55.58 213.59 55.19 215.81C54.79 218.13 52.52 220.76 52.36 222.76C52.36 222.83 52.35 222.89 52.36 222.95V223.04C52.36 223.11 52.36 223.17 52.37 223.24C52.37 223.33 52.4 223.42 52.42 223.51C52.44 223.59 52.46 223.66 52.49 223.74C52.52 223.8 52.55 223.87 52.58 223.93C52.62 224.01 52.68 224.09 52.73 224.16C52.79 224.24 52.86 224.32 52.94 224.4L52.95 224.41Z" fill="#7884FF"/>
<path opacity="0.48" d="M123.43 172.3C123.18 172.5 122.87 172.72 122.54 172.98C122.11 173.29 121.62 173.66 121.07 174.06C120.83 174.24 120.57 174.42 120.3 174.62C120.02 174.83 119.7 175.04 119.39 175.27C119.27 175.36 119.15 175.45 119.01 175.53C111.98 180.45 102.28 186.29 91.13 190.53C90.18 190.88 89.25 191.23 88.32 191.55C88.27 191.57 88.23 191.58 88.18 191.6C84.46 193.91 75.55 199.67 75.33 205.78C75.12 211.63 74.63 216.67 74.26 217.99C74.23 218.11 74.19 218.2 74.17 218.25C73.15 219.94 71.77 221.34 70.09 222.31C69.7 222.54 69.29 222.72 68.87 222.9C67.24 223.59 64.08 224.47 60.97 224.97C59.14 225.26 57.32 225.42 55.83 225.32C61.62 225.02 69.36 223.54 73.23 218.22C75.23 215.46 72.05 205.79 74.83 201.09C76.76 197.8 80.3 194.82 85.02 192.63C86.23 192.06 87.65 191.39 89.18 190.61C101.71 184.37 123.02 172.52 123.45 172.32L123.43 172.3Z" fill="#4F5FFF"/>
<g style="mix-blend-mode:multiply" opacity="0.42">
<path d="M57.37 90.62L54.09 99.9C54.09 99.9 38.79 92.15 37.16 89.22C37.06 89.03 36.95 88.83 36.82 88.62C38.9 81.55 39.94 75.66 40.45 71.35L40.76 71.05L56.5 71.55L57.96 72.31C57.96 72.31 55.67 74.08 55.46 76.13C55.46 76.13 50.6 78.11 49.96 80.92C49.33 83.73 57.37 90.62 57.37 90.62Z" fill="#7B80B8"/>
</g>
<path d="M64.74 65.6399C64.74 65.6399 69.42 73.5199 68.37 78.0499C67.32 82.5699 55.2 70.0599 55.2 70.0599L64.74 65.6499V65.6399Z" fill="#E80083"/>
<path d="M76.32 36.25C76.32 36.25 85.43 35.19 89.13 37.99C92.84 40.79 76.46 46.76 76.46 46.76L76.32 36.25Z" fill="#FF0090"/>
<path d="M70.3 55.4199C70.3 55.4199 78.72 59.0399 80.54 63.3099C82.36 67.5799 65.19 64.5999 65.19 64.5999L70.3 55.4199Z" fill="#E80083"/>
<path d="M61.69 22.7699C59.61 23.8399 64.56 19.1899 63.59 14.5599C60.74 0.959929 53.68 1.35993 55.76 0.28993C57.84 -0.78007 64.45 0.59993 70.79 12.9599C77.13 25.3199 63.77 21.6899 61.69 22.7599V22.7699Z" fill="#FF0090"/>
<path d="M63.17 24.4898C60.86 24.1098 67.6 23.3098 69.57 19.0098C75.34 6.36983 69.42 2.49983 71.73 2.87983C74.04 3.25983 78.54 8.28983 76.32 21.9998C74.1 35.7098 65.49 24.8698 63.18 24.4898H63.17Z" fill="#FF0090"/>
<path d="M65.43 27.48C63.48 26.18 69.95 28.24 73.52 25.14C84.01 16.03 80.23 10.06 82.17 11.36C84.12 12.66 86.13 19.1 78.42 30.66C70.71 42.22 67.37 28.78 65.43 27.48Z" fill="#FF0090"/>
<path d="M67.83 29.99C66.45 28.1 71.48 31 75.43 29.67C87.04 25.75 85.96 21.87 87.34 23.76C88.72 25.65 88.26 30.66 78.47 37.8C68.68 44.94 69.22 31.88 67.84 29.99H67.83Z" fill="#FF0090"/>
<path d="M52.61 24.4399C50.3 24.8199 56.51 22.3699 57.19 18.7699C59.18 8.21988 52.44 7.13988 54.76 6.75988C57.07 6.37988 62.77 8.67988 64.47 18.9999C66.17 29.3199 54.93 24.0599 52.62 24.4399H52.61Z" fill="#FF0090"/>
<path d="M103.16 51.2599C103.13 51.3299 103.05 50.8199 102.66 50.5599C100.77 49.3299 94.86 46.5499 92.01 45.7599C86.36 44.1899 80.33 47.6899 78.14 49.0399C77.44 49.4699 77.55 52.1599 77.59 53.4199C77.5 53.3099 77.4 53.1999 77.31 53.0899C77.23 52.9999 77.15 52.9099 77.08 52.8099C75.82 51.2399 76.23 49.7899 77.14 48.2599C77.95 46.8999 79.03 41.1999 79.1 40.8699C79.17 40.9999 80.72 44.0299 83.61 43.3599C87.72 42.4199 90.5 42.4699 93.33 43.4199C97.91 44.9499 101.05 48.3399 102.74 50.2099L102.8 50.2799C103.04 50.5499 103.16 50.8999 103.16 51.2499V51.2599Z" fill="#6B78FF"/>
<path d="M76.07 62.12C68.36 72.9 54.65 77.15 41.31 74.19C40.29 73.96 39.27 73.7 38.25 73.38C34.16 72.12 30.14 70.17 26.4 67.49C25.45 66.82 24.55 66.12 23.68 65.4C12.71 56.34 7.4 43.66 9.88 31.46C10.49 28.46 13.38 28.39 16.06 27.3C17.03 26.91 17.97 26.39 18.76 25.53C19.61 24.6 20.35 23.4 21.08 22.04C22.03 18.63 24.05 14.92 26.42 11.69C31.49 4.78999 43.66 4.78999 48.52 11.29C51.7 15.55 51.02 16.8 53.78 16.26C60.23 15.01 66.25 18.72 68.44 20.49C72.34 23.64 73.89 26.62 76.75 32.11C79.62 37.6 82.1 53.69 76.08 62.12H76.07Z" fill="#6B78FF"/>
<path d="M64.6 22.22C66.85 23.18 68.7 24.86 69.8 27.09C70.79 29.08 71.59 32.15 70.64 34.08C70.42 34.52 69.78 33.96 69.78 33.11C69.78 31.65 68.96 28.98 67.42 27.92C66.01 26.95 64.35 26.05 62.82 25.38C59.56 23.95 62.92 21.51 64.6 22.22Z" fill="#1C30FF"/>
<path d="M42.76 10.69C41 9.17002 38.79 8.33002 36.45 8.41002C34.35 8.48002 31.43 9.22002 30.22 10.97C29.95 11.37 30.69 11.67 31.4 11.27C32.62 10.58 35.22 10.04 36.76 10.9C38.17 11.68 39.64 12.72 40.86 13.75C43.45 15.94 44.07 11.83 42.76 10.7V10.69Z" fill="#1C30FF"/>
<path d="M100.55 58.6C99.27 58.88 97.37 59.22 95.28 59.38C95.39 60 95.47 60.56 95.54 61.03C95.65 61.81 95 62.36 94.25 62.45C92.79 62.64 89.95 63.13 88.38 61.17C85.75 57.89 87.54 61.37 86.93 62.36C86.14 63.63 82.88 62.33 82.13 59.74C81.69 58.23 81.6 56.61 77.59 53.43C77.55 52.17 77.44 49.49 78.14 49.05C80.33 47.7 86.36 44.2 92.01 45.77C94.85 46.56 100.76 49.34 102.66 50.57C103.05 50.83 103.13 51.33 103.16 51.27C103.15 51.78 102.88 52.3 102.39 52.58C101.79 52.93 101.03 53.34 100.17 53.77C100.75 54.89 101.22 55.87 101.55 56.63C101.92 57.44 101.42 58.42 100.56 58.61L100.55 58.6Z" fill="#828DFF"/>
<path d="M39.11 28.3099C36.67 32.8999 34.25 34.6399 27.56 31.0799C20.87 27.5199 20.96 24.5399 23.4 19.9499C25.84 15.3599 32.41 11.4899 36.75 13.7999C41.09 16.1099 41.55 23.7199 39.11 28.3099Z" fill="#3647FF"/>
<path d="M38.95 28.26C36.64 32.6 34.36 34.25 28.03 30.88C21.7 27.51 21.79 24.7 24.1 20.36C26.41 16.02 32.62 12.36 36.72 14.54C40.82 16.72 41.26 23.92 38.95 28.26Z" fill="white"/>
<path d="M31.0814 30.7391C34.4144 29.7213 36.2913 26.1944 35.2736 22.8614C34.2559 19.5284 30.7289 17.6515 27.3959 18.6692C24.0629 19.6869 22.186 23.2139 23.2037 26.5469C24.2215 29.8799 27.7484 31.7568 31.0814 30.7391Z" fill="#E80083"/>
<path d="M33.89 27.2201C32.49 29.7901 29.28 30.7401 26.71 29.3401C24.14 27.9401 23.19 24.7301 24.59 22.1601C25.99 19.5901 29.2 18.6401 31.77 20.0401C34.34 21.4401 35.29 24.6501 33.89 27.2201Z" fill="#00074D"/>
<path d="M28.22 21.67C28.56 21.66 28.87 22.27 28.89 23.03C28.92 23.8 28.66 24.43 28.31 24.44C27.97 24.45 27.66 23.84 27.64 23.08C27.61 22.31 27.87 21.68 28.22 21.67Z" fill="white"/>
<path d="M28.16 19.8301C28.5 19.8201 28.79 20.0501 28.8 20.3401C28.81 20.6301 28.54 20.8801 28.19 20.8901C27.85 20.9001 27.56 20.6701 27.55 20.3801C27.54 20.0901 27.81 19.8401 28.16 19.8301Z" fill="white"/>
<path d="M47.7 32.5598C43.57 37.3298 42.65 40.8198 49.6 46.8398C56.55 52.8598 59.87 51.4598 64 46.6898C68.13 41.9198 69.65 32.7998 65.14 28.8998C60.64 24.9998 51.83 27.7898 47.69 32.5598H47.7Z" fill="#3647FF"/>
<path d="M47.82 32.73C43.91 37.24 43.05 40.53 49.61 46.23C56.18 51.92 59.32 50.6 63.23 46.09C67.14 41.58 68.57 32.96 64.31 29.27C60.05 25.58 51.72 28.22 47.82 32.73Z" fill="white"/>
<path d="M60.3213 42.0291C61.2412 37.8999 58.6396 33.8067 54.5103 32.8867C50.3811 31.9667 46.2879 34.5684 45.3679 38.6976C44.4479 42.8269 47.0496 46.9201 51.1788 47.8401C55.3081 48.76 59.4013 46.1584 60.3213 42.0291Z" fill="#E80083"/>
<path d="M52.84 46.8399C56.4133 46.8399 59.31 43.9432 59.31 40.3699C59.31 36.7966 56.4133 33.8999 52.84 33.8999C49.2667 33.8999 46.37 36.7966 46.37 40.3699C46.37 43.9432 49.2667 46.8399 52.84 46.8399Z" fill="#00074D"/>
<path d="M52.34 36.14C52.02 36.03 51.57 36.51 51.33 37.22C51.09 37.92 51.15 38.58 51.46 38.69C51.78 38.8 52.23 38.32 52.47 37.61C52.71 36.91 52.65 36.25 52.34 36.14Z" fill="white"/>
<path d="M52.92 34.45C52.6 34.34 52.27 34.47 52.18 34.74C52.09 35.01 52.27 35.32 52.59 35.43C52.91 35.54 53.24 35.41 53.33 35.14C53.42 34.87 53.24 34.56 52.92 34.45Z" fill="white"/>
<path d="M40.63 72.83C39.84 73.05 39.04 73.24 38.24 73.38C35.28 73.91 32.17 73.89 29.07 73.1C27.78 72.76 26.26 72.23 24.6 71.37C20.63 69.34 15.85 65.5 11.32 58.22C3.29 45.31 4.49 38.6 7.24 31.82C8.29 29.25 11.7 27.77 16.04 27.3C23.15 26.52 32.75 28.43 38.54 32.65C46.76 38.62 54.63 52.29 58.56 55.1C61.96 57.52 52.79 69.4399 40.62 72.84L40.63 72.83Z" fill="#6B78FF"/>
<mask id="mask4_6008_8998" style="mask-type:luminance" maskUnits="userSpaceOnUse" x="5" y="27" width="55" height="47">
<path d="M7.25 31.8199C10.01 25.0399 29.21 25.8499 38.55 32.6399C46.77 38.6199 54.64 52.2899 58.57 55.0899C63 58.2399 46.15 77.4699 29.08 73.0999C24.68 71.9699 17.73 68.5299 11.32 58.2299C3.29 45.3299 4.49 38.6099 7.25 31.8299" fill="white"/>
</mask>
<g mask="url(#mask4_6008_8998)">
<path d="M48.87 41.7698C49.89 38.1098 45.06 35.0898 42.7 33.1298C39.47 30.4498 36.01 28.0898 32.24 26.2398C29.83 25.0598 18.23 20.8898 14.16 23.2298C12 22.7498 10.12 25.7998 12.31 27.1498C13.67 27.9898 14.66 29.7998 15.5 31.0998C16.48 32.6098 18.19 34.5798 19.72 35.4998C23.05 37.4798 25.76 37.9398 29.48 38.8598C33.44 39.8398 37.16 40.9498 40.84 42.7498C43.4 43.9998 47.74 45.8198 48.86 41.7798L48.87 41.7698Z" fill="#828DFF"/>
<path d="M29.21 43.6799C29.33 43.3099 29.35 42.0599 28.2 41.3699C27.05 40.6799 26.24 41.1699 25.54 41.5999C25.13 41.8499 26.09 42.4299 26.58 42.4699H26.62C26.62 42.4699 26.71 42.5099 26.75 42.5199C26.9 42.6099 26.53 43.3699 26.51 43.5899C26.5 43.7999 26.74 44.6099 27.69 44.8099C28.83 45.0399 29.12 43.8999 29.2 43.6699L29.21 43.6799Z" fill="#99A2FF"/>
<path d="M17.1 35.2097C17.13 34.5997 16.77 34.0097 16.35 33.6897C15.93 33.3697 15.49 33.1197 15.04 33.0997C14.75 33.0897 14.06 32.9697 13.46 33.6097C13.17 33.9197 12.83 34.3697 13.07 34.7197C14.24 36.3697 16.03 36.0197 16.24 36.0097C16.67 35.9897 17.07 35.6597 17.09 35.2097H17.1Z" fill="#99A2FF"/>
<path d="M61.01 55.0398C59.36 54.5698 58.12 53.1598 56.99 51.9398C55.78 50.6298 54.67 49.2198 53.59 47.7998C51.51 45.0498 49.51 42.2398 47.16 39.7098C42.7 34.9098 37.3 30.9298 31.25 28.3698C27.88 26.9498 24.3 26.0098 20.66 25.6098C19.52 25.4898 19.36 27.2598 20.5 27.3798C26.89 28.0698 32.96 30.5798 38.21 34.2398C40.86 36.0798 43.31 38.1998 45.52 40.5498C47.88 43.0598 49.89 45.8398 51.96 48.5898C53.14 50.1498 54.35 51.6998 55.68 53.1298C57 54.5498 58.47 56.1498 60.4 56.7098C61.49 57.0198 62.12 55.3598 61.01 55.0398Z" fill="#1C30FF"/>
<path d="M16.7 28.0999C16.27 27.9999 16.13 28.9999 17.07 30.9399C18.01 32.8699 19.49 34.5099 23.29 35.4299C23.76 35.5399 29.51 36.8998 29.37 35.7998C29.3 35.2198 24.61 33.3599 21.52 31.5199C18.68 29.8299 18.06 28.4199 16.7 28.1099V28.0999Z" fill="#919BFF"/>
</g>
<path d="M23.7 43.2199C23.33 43.1999 23.19 42.7199 23.5 42.5099C24.59 41.7999 26.35 40.9699 27.38 42.1399C28.95 43.9299 27.79 44.6099 27.03 44.1499C26.39 43.7599 25.54 43.2899 23.7 43.2099V43.2199Z" fill="#00074D"/>
<path d="M15.74 37.95C15.86 38.28 16.33 38.24 16.44 37.88C16.79 36.64 17.07 34.75 15.73 34.23C13.69 33.44 13.38 34.73 14 35.25C14.52 35.69 15.18 36.3 15.75 37.94L15.74 37.95Z" fill="#00074D"/>
<path d="M28.95 41.24C30.9 41.76 31.12 44.28 29.54 45.3C29.07 45.61 28.47 45.76 27.94 45.6C30.03 45.12 30.83 42.6 28.95 41.23V41.24Z" fill="#1C30FF"/>
<path d="M15.84 32.95C14.71 31.42 12.41 32.16 12.06 33.94C11.95 34.47 12.03 35.06 12.35 35.47C12.04 33.45 13.98 31.81 15.84 32.96V32.95Z" fill="#1C30FF"/>
<path d="M52.57 57.2199C50.37 57.8299 50.32 55.9499 48.8 52.7999C47.37 49.8299 45.82 48.5299 46.4 47.8299C47.41 46.5999 49.27 48.1099 51.26 50.7299C53.25 53.3499 54.1 56.7899 52.57 57.2199Z" fill="#828DFF"/>
<path d="M91.16 48.6099C92.68 49.2699 97.19 51.1399 99.1 52.7099C100.97 54.2399 101.79 56.6499 101.6 56.7699C101.28 56.9599 100.34 52.5999 92.06 49.8299C89.26 48.8899 83.76 47.7399 81.53 47.4299C81.06 47.3699 80.67 47.6999 80.69 47.6399C80.8 47.3299 80.94 47.2099 81.39 47.1499C83.59 46.8399 88.73 47.5599 91.15 48.6199L91.16 48.6099Z" fill="#6E7BFF"/>
<path d="M87.63 52.1999C88.95 52.9999 92.68 55.3899 94.08 57.2399C95.45 59.0499 95.68 61.4899 95.48 61.5599C95.15 61.6799 96.29 57.9899 88.32 53.1599C85.98 51.7499 81.26 49.5899 79.31 48.8799C78.9 48.7299 78.41 48.8499 78.44 48.7899C78.6 48.5199 78.63 48.5199 79.06 48.5599C80.51 48.7099 85.69 51.0199 87.63 52.1899V52.1999Z" fill="#6E7BFF"/>
<path d="M103.16 51.26C103.13 51.33 103.05 50.8201 102.66 50.5601C100.77 49.3301 94.86 46.55 92.01 45.76C86.36 44.19 80.32 47.6701 78.14 49.0401C77.61 49.3701 77.57 51.5701 77.6 52.8301C77.62 53.2101 77.62 53.47 77.6 53.48C77.49 53.54 77.4 53.12 77.33 52.5C77.2 51.38 77.15 50.19 77.25 49.48C77.4 48.37 83.5 45.2801 85.13 44.9001C88.68 44.0801 92.01 44.5301 93.53 45.2001C95.87 46.2101 101.02 48.55 102.74 50.21C102.82 50.29 102.88 50.36 102.95 50.43C103.25 50.7701 103.28 50.95 103.17 51.25L103.16 51.26Z" fill="#1C30FF"/>
<path d="M58.78 1.61991C58.78 1.61991 62.13 2.96991 64.68 5.77991C67.06 8.39991 68.54 12.3899 68.48 14.6499C68.39 18.1199 66.63 18.0399 65.97 17.4099C64.21 15.7299 66.96 10.7099 62.69 5.96991C59.85 2.81991 56.14 0.629907 58.77 1.60991L58.78 1.61991Z" fill="#FF87CB"/>
<path d="M74.95 8.84001C75.59 9.13001 75.76 12.38 75.21 15.96C74.63 19.74 73.99 20.69 72.69 20.03C71 19.18 72.2 18.05 73.28 15.35C74.18 13.09 74.31 8.55001 74.96 8.83001L74.95 8.84001Z" fill="#FF87CB"/>
<path d="M37.54 62.3998C36.29 61.1698 35.01 60.0398 33.54 59.0698C32.58 58.4598 31.61 57.8398 30.38 57.8198C28.31 57.8598 27.16 59.9398 26.97 61.7498C27.06 61.9398 27.16 62.1198 27.3 62.2898C28.02 63.2998 29.3 64.0098 30.43 64.4498C32.08 65.0398 33.8 64.6698 35.35 63.9298C36.1 63.5698 36.81 63.1198 37.46 62.6698C37.53 62.6198 37.64 62.4698 37.53 62.3898L37.54 62.3998ZM33.09 63.9598C32.26 64.0498 31.43 64.0198 30.61 63.8398C29.57 63.5898 28.3 63.1598 27.56 62.2998C27.41 62.1298 27.29 61.9498 27.18 61.7398C27.42 60.2498 28.78 58.8298 30.35 59.0598C32.8 59.4498 35.06 60.8498 37.09 62.2598C37.17 62.3098 37.3 62.4498 37.35 62.4798C36.08 63.2398 34.59 63.7998 33.09 63.9498V63.9598Z" fill="#1C30FF"/>
<path d="M27.07 61.6999C27.02 62.1499 28.98 64.1999 31.91 64.3899C34.36 64.5499 37.52 62.6599 37.49 62.4899C37.48 62.3999 34.95 60.2599 32.63 59.1299C32.26 58.9499 31.89 58.7899 31.55 58.6799C31.12 58.5399 30.73 58.4499 30.37 58.4399C29.92 58.4399 29.52 58.5199 29.18 58.6599C27.53 59.3699 27.09 61.5299 27.07 61.6899V61.6999Z" fill="#00074D"/>
<path d="M37.32 63.8699C35.01 66.4699 32 67.9899 29.16 65.1599C29.43 65.4699 29.67 65.7999 29.99 66.0699C32.4 68.3499 35.96 66.2699 37.32 63.8699Z" fill="#1C30FF"/>
<path d="M29.18 58.6599C29.22 58.7299 29.28 58.8099 29.36 58.8799C29.5 59.0099 29.7 59.1399 29.83 59.2199C29.92 59.2799 30.03 59.2399 30.09 59.1599C30.16 59.0199 30.26 58.8299 30.32 58.6399C30.34 58.5699 30.36 58.5099 30.37 58.4399C29.92 58.4399 29.52 58.5199 29.18 58.6599Z" fill="white"/>
<path d="M31.55 58.6799C31.55 58.7699 31.57 58.8699 31.6 58.9699C31.66 59.1499 31.77 59.3599 31.85 59.4999C31.9 59.5899 32.01 59.6199 32.1 59.5599C32.23 59.4799 32.41 59.3499 32.55 59.2199C32.58 59.1899 32.61 59.1599 32.63 59.1199C32.26 58.9399 31.89 58.7799 31.55 58.6699V58.6799Z" fill="white"/>
<g style="mix-blend-mode:multiply" opacity="0.42">
<path d="M41.3 74.1899C40.28 73.9599 39.26 73.6999 38.24 73.3799C35.28 73.9099 32.17 73.8899 29.07 73.0999C27.78 72.7599 26.26 72.2299 24.6 71.3699C23.96 70.1499 23.13 68.2899 23.23 67.1499C23.27 66.6099 23.43 65.9999 23.67 65.3999C24.22 63.9099 25.15 62.4599 25.7 62.3699C25.97 62.3299 26.59 62.2899 27.31 62.2999C28.03 63.3099 29.31 64.0199 30.44 64.4599C32.09 65.0499 33.81 64.6799 35.36 63.9399C35.48 63.9099 35.59 63.8899 35.69 63.8499C36.67 63.4599 38.2 64.9099 38.32 66.3899C38.41 67.4099 39.61 70.6199 40.63 72.8299C40.87 73.3599 41.11 73.8199 41.3 74.1899Z" fill="#7B80B8"/>
</g>
<path d="M35.58 68.7698C34.69 67.5898 35.53 63.0898 35.53 63.0898C35.53 63.0898 36.44 62.2598 37.92 63.7998C37.92 63.7998 37.98 63.9298 38.05 64.1398C38.36 65.0198 38.93 67.4198 36.8 68.7898C36.22 69.1598 35.83 69.0998 35.58 68.7598V68.7698Z" fill="#293CFF"/>
<path d="M35.58 68.7697C35.06 67.1997 35.74 63.5097 35.74 63.5097C35.74 63.5097 36.62 62.7097 38.05 64.1397C38.16 64.4597 38.31 64.9897 38.35 65.5997C38.42 66.6497 38.15 67.9297 36.8 68.7897C36.32 69.0997 35.97 69.1097 35.72 68.9097C35.67 68.8697 35.62 68.8197 35.58 68.7597V68.7697Z" fill="#4F5FFF"/>
<path d="M38.34 65.6098C38.41 66.6598 38.14 67.9398 36.79 68.7998C36.75 68.8298 36.71 68.8498 36.68 68.8698C36.43 68.4798 36.2 68.1098 35.96 67.7498C36.19 66.7798 36.55 65.5998 37.01 64.9698C37.31 64.7398 37.65 64.7698 38.03 65.1898C38.15 65.3298 38.25 65.4698 38.34 65.6098Z" fill="#7B87FF"/>
<path d="M58.54 100.83C58.11 100.83 57.66 100.87 57.18 100.86C56.68 100.85 56.1 100.76 55.47 100.59C53.48 100.06 41.65 93.0398 36.96 88.4098C36.69 88.1498 36.46 87.9098 36.24 87.6698C33.5 84.5498 29.04 79.5398 26.62 75.2598C26.27 74.6498 25.97 74.0598 25.71 73.4798C25.11 72.1298 24.81 70.8998 24.94 69.9098C24.95 69.7898 24.98 69.6598 25.01 69.5498C25.07 69.3298 25.12 69.1198 25.2 68.9098C25.28 68.6698 25.37 68.4398 25.45 68.2098C25.5 68.0998 25.56 67.9698 25.62 67.8498C25.87 67.3198 26.18 66.8498 26.52 66.4398C26.59 66.3298 26.68 66.2398 26.76 66.1498C27.25 65.6198 27.8 65.1998 28.35 64.8898C28.49 64.8098 28.62 64.7498 28.75 64.6898C28.84 64.6498 28.92 64.6098 29.01 64.5798C29.47 64.3998 29.92 64.2698 30.38 64.1998H30.39C30.52 64.1698 30.67 64.1598 30.79 64.1498C31.47 64.0898 32.11 64.1498 32.66 64.3098C32.81 64.3598 32.95 64.4098 33.08 64.4698C33.15 64.4898 33.22 64.5298 33.27 64.5598C33.38 64.6098 33.46 64.6498 33.55 64.7198C34.17 65.1198 34.71 65.5598 35.17 66.0098C35.25 66.0898 35.32 66.1698 35.39 66.2398C35.66 66.5198 35.89 66.7898 36.11 67.0698C36.51 67.5598 36.83 68.0598 37.12 68.5298C37.68 69.4698 38.08 70.3098 38.51 70.9098C39.03 71.6498 40.32 74.1298 41.79 76.7198C43.1 79.0598 44.58 81.4498 45.81 82.7298C45.97 82.8898 46.13 83.0498 46.29 83.2098C51.3 88.0598 59.13 90.2698 60.24 91.0398C60.43 91.1698 60.62 91.3398 60.85 91.6798C61.18 92.1698 61.58 93.0098 62.16 94.6098C62.3 94.9998 62.5 95.7298 62.54 96.5498C62.67 98.4198 62.07 100.79 58.48 100.84L58.54 100.83Z" fill="#6B78FF"/>
<path opacity="0.13" d="M58.54 100.83C58.11 100.83 57.66 100.87 57.18 100.86C56.68 100.85 56.1 100.76 55.47 100.59C53.48 100.06 41.65 93.0399 36.96 88.4099C36.69 88.1499 36.46 87.9099 36.24 87.6699C33.5 84.5499 29.04 79.5399 26.62 75.2599C26.27 74.6499 25.97 74.0599 25.71 73.4799C25.76 72.8699 25.93 72.3299 26.24 71.8299C28.78 67.8199 35.2 66.4999 39.18 74.7499C43.17 82.9999 49.06 89.1199 52.42 91.8299C55.8 94.5699 59.24 96.6399 62.6 96.5499C62.73 98.4199 62.13 100.79 58.54 100.84V100.83Z" fill="#293CFF"/>
<path d="M26.62 75.2598C39.57 93.5598 55.47 100.59 57.18 100.86C56.68 100.85 56.11 100.76 55.46 100.59C53.48 100.06 41.64 93.0398 36.95 88.4098C36.68 88.1498 36.45 87.8998 36.23 87.6598C33.49 84.5398 29.03 79.5298 26.61 75.2498L26.62 75.2598Z" fill="#4F5FFF"/>
<path d="M28.96 66.9798C29.72 65.8698 28.39 62.1598 27.96 61.4298C27.52 60.6698 25.31 61.1198 25.06 62.4198C25.03 62.5398 25.03 62.6498 25.03 62.7698C25.24 65.4998 27 67.6498 28.55 67.2598C28.73 67.2198 28.87 67.1098 28.96 66.9698V66.9798Z" fill="#293CFF"/>
<path d="M28.96 66.9798C29.25 65.5398 28.15 62.5498 27.78 61.8998C27.4 61.2398 25.68 61.4998 25.06 62.4298C25.03 62.5498 25.03 62.6598 25.03 62.7798C25.07 63.2998 25.17 63.7998 25.31 64.2498C25.89 66.1798 27.23 67.5098 28.46 67.2898L28.56 67.2698C28.74 67.2298 28.88 67.1198 28.97 66.9798H28.96Z" fill="#4F5FFF"/>
<path d="M28.27 66.9899C29.01 66.5699 28.19 63.7799 27.39 62.7399C27.27 62.5899 26.9 62.1299 26.4 62.2299C25.9 62.3299 25.59 62.8699 25.58 63.4499C25.54 65.1399 27.52 67.4099 28.26 66.9799L28.27 66.9899Z" fill="#7B87FF"/>
<path d="M32.86 65.5398C33.83 64.5998 33.26 60.6998 32.99 59.8998C32.72 59.0698 30.46 59.0698 29.95 60.2898C29.9 60.3998 29.87 60.5098 29.85 60.6298C29.51 63.3398 30.8 65.7998 32.4 65.7298C32.58 65.7298 32.74 65.6498 32.86 65.5298V65.5398Z" fill="#293CFF"/>
<path d="M32.86 65.5398C33.43 64.1898 32.96 61.0398 32.72 60.3198C32.48 59.5898 30.74 59.5098 29.95 60.2898C29.9 60.3998 29.87 60.5098 29.85 60.6298C29.78 61.1498 29.78 61.6498 29.82 62.1298C30 64.1298 31.05 65.7098 32.29 65.7398H32.39C32.57 65.7398 32.73 65.6598 32.85 65.5398H32.86Z" fill="#4F5FFF"/>
<path d="M32.19 65.3998C33 65.1298 32.75 62.2398 32.18 61.0598C32.1 60.8898 31.82 60.3598 31.32 60.3698C30.82 60.3798 30.4 60.8398 30.27 61.4098C29.9 63.0598 31.38 65.6798 32.19 65.4098V65.3998Z" fill="#7B87FF"/>
<path d="M22.27 66.6798C22.27 66.6798 22.27 66.6198 22.27 66.5998C22.26 65.7698 23.4 64.6098 24.43 65.8598C25.32 66.9098 26.04 68.6798 26.01 69.3298C26.01 69.3698 26.01 69.3998 26.01 69.4298C26.01 69.4698 25.99 69.4998 25.98 69.5198C25.72 69.8298 25.06 69.9498 24.9 69.9198C24.07 69.7998 23.5 69.3798 22.88 68.4998C22.5 67.9398 22.33 67.2698 22.27 66.6898V66.6798Z" fill="#293CFF"/>
<path d="M22.5 67.7098C22.38 67.3598 22.31 66.9998 22.27 66.6798C22.27 66.6598 22.27 66.6198 22.27 66.5998C22.67 66.0298 23.45 65.7098 24.2 66.5898C25.06 67.6298 25.97 68.8198 26.02 69.3298C26.02 69.3698 26.02 69.3998 26.02 69.4298C26.02 69.4698 26 69.4998 25.99 69.5198C25.91 69.6298 25.77 69.7098 25.62 69.7698C25.34 69.8998 25.01 69.9398 24.91 69.9198C24.08 69.7998 23.51 69.3798 22.89 68.4998C22.72 68.2598 22.6 67.9898 22.51 67.7198L22.5 67.7098Z" fill="#4F5FFF"/>
<path d="M22.5 67.7097C22.61 67.2997 23.56 66.8297 24.13 67.5197C24.82 68.3597 25.56 69.3197 25.6 69.7297C25.6 69.7397 25.6 69.7397 25.6 69.7497C25.32 69.8797 24.99 69.9197 24.89 69.8997C24.06 69.7797 23.49 69.3597 22.87 68.4797C22.7 68.2397 22.58 67.9697 22.49 67.6997L22.5 67.7097Z" fill="#7B87FF"/>
<g style="mix-blend-mode:screen" opacity="0.22">
<path d="M60.9 91.67C60.9 91.67 58 92.22 51.76 88.05C42.56 81.9 41.75 76.96 41.83 76.71C43.14 79.05 44.62 81.44 45.85 82.72C46.01 82.88 46.17 83.04 46.33 83.2C51.34 88.05 59.17 90.26 60.28 91.03C60.47 91.16 60.66 91.33 60.89 91.67H60.9Z" fill="#B3B9FF"/>
</g>
</svg>
