<svg width="153" height="228" viewBox="0 0 153 228" fill="none" xmlns="http://www.w3.org/2000/svg">
<g style="mix-blend-mode:multiply" opacity="0.41">
<path d="M117.518 203.594C85.6143 199.324 81.515 204.954 57.8694 203.874C20.2963 202.174 0 210.304 0 214.453C0 218.603 30.1845 224.833 62.3685 224.833C66.1978 224.833 99.5317 228.003 116.129 228.003C148.313 228.003 149.772 207.924 117.518 203.604V203.594Z" fill="#4A55C4"/>
</g>
<path d="M124.067 124.806C123.837 124.416 123.007 123.796 122.268 123.106C122.198 123.036 120.508 121.436 119.988 121.096C119.158 120.536 118.258 120.006 117.328 119.576C117.278 119.546 117.218 119.526 117.169 119.506C114.119 118.146 112.689 117.376 109.93 115.656C103.911 111.906 97.5521 101.087 94.5627 94.6469C94.5127 94.5369 94.3627 94.5169 94.1527 94.5769C93.3329 94.7969 91.5432 96.0769 91.1433 96.0369C90.7034 96.0069 90.2734 96.0769 89.8435 96.2469C87.494 97.1669 85.3943 100.777 86.0042 102.297C86.8541 104.407 94.9926 118.116 99.8717 122.336C103.191 125.176 108.53 129.806 113.069 132.296C114.689 133.196 116.209 133.816 117.498 133.986C117.528 133.986 117.558 133.986 117.598 133.996C117.868 134.026 118.138 134.036 118.388 134.016C118.648 134.016 118.888 133.976 119.118 133.916C119.628 133.776 120.108 133.606 120.528 133.416L120.638 133.366C120.968 133.206 121.948 132.536 122.078 132.426C122.358 131.776 122.647 131.266 123.217 131.126C123.537 131.046 124.107 129.566 124.107 129.566C124.297 128.016 125.167 128.136 125.167 128.136C125.167 128.136 124.167 125.026 124.047 124.826L124.067 124.806Z" fill="#4F5FFF"/>
<path opacity="0.35" d="M89.8435 96.2368C87.494 97.1568 85.3943 100.767 86.0042 102.287C86.8541 104.397 94.9926 118.106 99.8817 122.316C103.201 125.166 108.54 129.776 113.079 132.276C111.68 130.906 92.4231 111.956 91.3732 102.017C91.0733 99.1767 90.5134 97.3368 89.8535 96.2368H89.8435Z" fill="#293CFF"/>
<g style="mix-blend-mode:multiply" opacity="0.48">
<path d="M117.329 119.587C114.51 118.447 109 116.437 106.301 113.687C102.961 110.277 96.9723 102.017 93.4028 95.0369C93.6128 95.0569 93.8828 94.8169 94.1527 94.5669C94.3627 94.5169 94.5127 94.5269 94.5627 94.6369C97.5522 101.087 103.911 111.897 109.93 115.647C112.69 117.367 114.12 118.137 117.169 119.497C117.219 119.517 117.279 119.547 117.329 119.567V119.587Z" fill="#939AED"/>
</g>
<path opacity="0.45" d="M117.029 130.776C117.809 131.236 122.239 127.616 121.129 125.416C120.229 123.636 116.809 124.096 115.749 125.576C114.529 127.286 114.859 129.506 117.029 130.776Z" fill="#FF0090"/>
<path d="M70.417 181.494C74.6763 183.434 78.1958 186.604 80.5654 190.524C83.395 189.924 86.2446 189.074 89.1041 187.954C90.9139 187.244 92.6036 186.474 94.1834 185.644L70.427 181.484L70.417 181.494Z" fill="#4F5FFF"/>
<mask id="mask0_20_7892" style="mask-type:luminance" maskUnits="userSpaceOnUse" x="44" y="70" width="36" height="38">
<path d="M49.8208 77.2479C52.4303 75.218 51.0606 71.5681 51.7104 71.0281H51.7404C51.8104 71.0681 52.4703 70.8681 53.1802 70.9581C60.7988 71.9781 66.7977 77.0579 70.7169 80.0378C78.5155 85.9576 79.5753 97.7273 79.9952 102.007C80.1252 103.377 76.4559 105.937 74.7462 107.157H74.7262C66.4477 105.057 64.3481 107.037 61.7586 107.517C50.1107 109.687 51.4905 103.277 48.9009 98.9872C47.3712 96.4573 44.8717 97.4973 44.1118 93.8374C43.5519 91.1475 45.8715 89.9575 46.0915 86.6276C46.2414 84.3077 44.5517 81.7778 45.2316 80.3778C46.3614 78.0479 48.651 78.1379 49.8208 77.2279" fill="white"/>
</mask>
<g mask="url(#mask0_20_7892)">
<path d="M30.2843 74.3678C31.3141 76.5677 32.7739 79.4776 34.6135 82.6175C35.7733 84.6074 35.0934 87.1574 33.0838 88.2873C31.3241 89.2673 29.4945 90.6972 29.4845 92.6372C29.4645 96.8671 32.6039 100.657 43.8618 103.047C46.6513 103.637 44.7517 105.047 43.6919 107.827C42.3421 111.387 50.0207 115.996 56.4295 113.517C60.1788 112.067 63.5782 109.757 76.2259 112.967H76.2559C78.8654 111.087 84.4744 107.177 84.2644 105.087C83.6245 98.557 82.0048 80.5776 70.107 71.5478C64.1181 66.988 54.9498 59.2382 43.3319 57.6783C42.2521 57.5383 41.2423 57.8383 41.1423 57.7783H41.0923C40.1025 58.5982 39.4826 59.9182 39.6726 61.3282C39.7626 62.0681 39.8826 62.8781 40.0125 63.7381C40.3525 65.918 38.9127 67.9779 36.7531 68.4179C35.2434 68.7179 33.9037 69.0179 32.7739 69.2879C30.5643 69.7879 29.3345 72.3178 30.2943 74.3478" fill="#4450CF"/>
<path d="M78.0554 98.317C77.1355 97.027 76.0257 95.8671 74.856 94.8071C72.4464 92.6172 69.7069 90.8472 66.8474 89.3073C60.5486 85.9074 53.7798 83.2475 46.9311 81.1775C42.9318 79.9676 38.8726 78.9776 34.7733 78.1876C33.6635 77.9776 33.9835 76.2377 35.1033 76.4577C42.6919 77.9076 50.1405 80.0876 57.3092 82.9575C60.7085 84.3174 64.0679 85.8174 67.2973 87.5373C70.3168 89.1473 73.2562 90.9972 75.8158 93.2772C76.4657 93.8571 77.0955 94.4771 77.6954 95.1171C77.5455 94.4771 77.3755 93.8371 77.1355 93.2172C76.5856 91.7572 75.8958 90.3473 75.2359 88.9473C74.496 87.3673 73.7961 85.5474 72.7463 84.0574C72.1564 83.4075 71.5566 82.7675 70.9167 82.1575C70.8267 82.0775 70.7667 81.9875 70.7167 81.8975C69.277 80.6876 67.7073 79.6076 66.1775 78.5276C64.4679 77.3177 62.7282 76.1577 60.9485 75.0377C60.5686 74.7977 60.1886 74.5677 59.8087 74.3377C56.8093 72.8278 53.7098 71.5478 50.4704 70.6479C46.1812 69.4479 41.752 68.8079 37.3029 68.7779C36.713 68.7779 36.1631 68.3979 36.1131 67.7679C36.0731 67.218 36.523 66.578 37.1229 66.578C39.9124 66.598 42.6819 66.838 45.4114 67.298C44.6115 67.008 43.8117 66.738 43.0018 66.488C42.4319 66.308 42.002 65.838 42.122 65.198C42.222 64.668 42.8418 64.1381 43.4117 64.3181C49.5106 66.208 55.2196 69.0079 60.6586 72.2978C60.8085 72.3678 60.9585 72.4378 61.0985 72.5178C64.6778 74.3577 68.2972 76.4077 71.3866 79.0076C73.7961 81.0375 75.7258 83.5175 77.2455 86.2474C77.6054 86.8274 77.9354 87.4373 78.1853 88.0873C78.2053 88.1373 78.2253 88.1873 78.2353 88.2373C79.6551 91.3272 80.5349 94.6571 81.0048 98.027C81.1448 98.157 81.2448 98.307 81.3148 98.487C81.3348 98.567 81.3648 98.647 81.3847 98.727C81.4447 98.867 81.4547 99.007 81.4347 99.157C81.4347 99.307 81.4047 99.447 81.3348 99.587C81.2748 99.717 81.1848 99.837 81.0748 99.917C81.0248 99.967 80.9748 100.017 80.9148 100.047C81.1548 100.857 81.2648 101.697 81.1648 102.567C81.1348 102.827 81.0148 102.997 80.8648 103.117C80.8648 103.167 80.8748 103.217 80.8848 103.267C81.1748 103.607 81.2448 104.087 80.9248 104.457C80.7449 104.667 80.4249 104.787 80.125 104.757C79.6951 104.827 79.2451 104.627 79.1752 104.127C78.4353 103.607 77.5754 103.477 76.6256 103.397C75.3359 103.287 74.0461 103.177 72.7463 103.117C70.1768 102.987 67.6073 103.047 65.0578 103.477C60.1886 104.297 55.5295 106.007 50.6104 106.527C47.7509 106.827 44.8615 106.817 41.992 106.547C41.5221 106.497 41.2021 105.957 41.2921 105.517C41.3921 105.017 41.842 104.767 42.3219 104.817C47.431 105.307 52.4601 104.707 57.4192 103.457C59.9087 102.827 62.3782 102.147 64.9178 101.727C67.4973 101.287 70.0968 101.237 72.7063 101.367C74.1861 101.447 75.6658 101.557 77.1455 101.687C77.5255 101.717 77.8954 101.777 78.2653 101.857C77.9054 101.467 77.4855 101.127 77.0256 100.837C75.7158 100.007 74.2561 99.377 72.8263 98.787C69.8469 97.567 66.7274 96.7071 63.568 96.0871C57.0392 94.8171 50.3804 94.5971 43.7517 94.3971C39.9224 94.2771 36.0931 94.1571 32.2738 93.8571C31.7939 93.8171 31.4939 93.2572 31.5739 92.8272C31.6739 92.3172 32.1238 92.0872 32.6037 92.1272C46.3112 93.2072 60.5986 91.8572 73.5962 97.197C75.3059 97.897 77.5555 98.797 79.1052 100.197C78.8452 99.527 78.4553 98.897 78.0454 98.327" fill="#1F2EC4"/>
</g>
<path d="M79.4858 82.8477C79.4858 82.8477 72.3769 82.5177 69.6573 84.8877C66.9377 87.2577 77.3062 90.4977 77.3062 90.4977L79.4858 82.8477Z" fill="#E80083"/>
<path d="M77.4261 93.2472C77.4261 93.2472 70.0472 90.3672 67.3976 92.8172C64.648 95.3572 73.9466 100.867 73.9466 100.867L77.4261 93.2472Z" fill="#E80083"/>
<path d="M72.5171 104.417C72.5171 104.417 66.578 102.107 64.4483 104.077C62.2387 106.117 69.3176 111.397 69.3176 111.397L72.5271 104.417" fill="#E80083"/>
<path d="M69.0874 113.747C69.0874 113.747 62.7284 113.397 61.3086 115.927C59.8388 118.547 68.1976 121.377 68.1976 121.377L69.0874 113.747Z" fill="#FF0090"/>
<path d="M65.6482 129.116C65.6482 129.116 59.6291 127.016 57.5694 129.056C55.4297 131.166 62.6886 136.196 62.6886 136.196L65.6482 129.116Z" fill="#FF0090"/>
<path d="M59.7192 142.736C59.7192 142.736 54.41 139.226 51.9004 140.686C49.3008 142.206 55.0999 148.866 55.0999 148.866L59.7092 142.726L59.7192 142.736Z" fill="#FF0090"/>
<path d="M1.12992 161.425C0.490013 161.575 8.83545e-05 162.135 8.83545e-05 162.795C-0.00991012 164.005 0.829961 165.535 1.8698 165.785C4.83935 166.505 8.3988 166.055 10.3785 164.195C12.5882 162.125 9.98856 157.575 6.99902 154.935C6.15915 154.195 4.19945 154.295 3.26959 155.345C2.74967 155.935 2.72967 156.805 3.1796 157.445L4.91934 159.905C5.09931 160.155 4.96933 160.515 4.65938 160.585L1.11992 161.415L1.12992 161.425Z" fill="#FF0090"/>
<path d="M50.571 153.726C50.571 153.726 47.1315 149.536 44.7319 150.096C42.2423 150.676 45.2818 157.556 45.2818 157.556L50.571 153.726Z" fill="#FF0090"/>
<path d="M40.8738 160.345C40.8738 160.345 38.9738 156.105 36.8638 156.035C34.6738 155.955 35.6338 162.325 35.6338 162.325L40.8738 160.355V160.345Z" fill="#FF0090"/>
<path d="M31.6253 163.315C31.6253 163.315 30.8853 159.435 29.1453 158.965C27.3453 158.475 26.9053 163.925 26.9053 163.925L31.6253 163.315Z" fill="#FF0090"/>
<path d="M23.5666 163.675C23.5666 163.675 22.8866 160.145 21.3066 159.705C19.6666 159.255 19.2666 164.225 19.2666 164.225L23.5666 163.665V163.675Z" fill="#FF0090"/>
<path d="M16.5877 163.245C16.5877 163.245 16.0777 160.605 14.8977 160.285C13.6777 159.945 13.3677 163.665 13.3677 163.665L16.5777 163.245H16.5877Z" fill="#FF0090"/>
<mask id="mask1_20_7892" style="mask-type:luminance" maskUnits="userSpaceOnUse" x="33" y="80" width="43" height="34">
<path d="M35.8635 90.2972C36.9933 87.1472 33.8639 84.7673 34.1338 83.9573L34.1538 83.9373C34.2338 83.9373 34.6937 83.4074 35.3436 83.1074C42.4023 79.8675 50.2809 80.9774 55.2499 81.4174C65.1081 82.2774 72.3668 91.7771 75.0263 95.207C75.8762 96.307 74.1165 100.477 73.3166 102.447H73.3066C65.0881 105.127 64.3583 107.957 62.4086 109.757C53.6102 117.896 51.3407 111.666 46.8015 109.387C44.132 108.047 42.5523 110.287 39.9228 107.567C37.9931 105.567 39.3429 103.297 37.7332 100.337C36.6134 98.2669 33.8039 97.0169 33.6339 95.457C33.344 92.8571 35.3536 91.6971 35.8635 90.2872" fill="white"/>
</mask>
<g mask="url(#mask1_20_7892)">
<path d="M17.5968 98.3669C19.6664 99.6969 22.4859 101.397 25.7453 103.097C27.8049 104.177 28.6047 106.727 27.4949 108.777C26.5151 110.567 25.7253 112.776 26.7551 114.436C29.0247 118.066 33.7438 119.616 44.6718 115.586C47.3813 114.586 46.5114 116.816 47.1113 119.766C47.8712 123.546 56.9295 123.346 61.0788 117.766C63.4983 114.506 65.168 110.687 77.7157 106.617L77.7357 106.597C78.9555 103.587 81.645 97.2169 80.3452 95.547C76.286 90.3072 65.198 75.7976 50.1508 74.4876C42.5722 73.8177 30.5444 72.1277 19.7664 77.0676C18.7565 77.5275 18.0667 78.3275 17.9467 78.3375L17.9067 78.3675C17.4968 79.5975 17.6867 81.0574 18.6066 82.1674C19.0865 82.7474 19.6164 83.3774 20.1963 84.0473C21.666 85.7273 21.546 88.2672 19.9263 89.8072C18.7965 90.8771 17.8167 91.8571 16.9869 92.6971C15.3672 94.317 15.6771 97.1469 17.5868 98.3669" fill="#828DFF"/>
<path d="M71.377 93.0972C69.8973 92.4972 68.3176 92.0972 66.7478 91.8172C63.5084 91.2372 60.209 91.2072 56.9296 91.4272C49.701 91.9172 42.4823 93.2972 35.5036 95.2171C31.4343 96.3371 27.4251 97.677 23.4858 99.227C22.416 99.647 21.7661 97.987 22.8359 97.567C30.1046 94.7171 37.6532 92.5672 45.3418 91.1572C48.9811 90.4872 52.6704 89.9573 56.3597 89.6873C59.8091 89.4273 63.3185 89.4273 66.7378 90.0073C67.6077 90.1573 68.4775 90.3372 69.3474 90.5672C68.8774 90.0973 68.3775 89.6473 67.8476 89.2373C66.5879 88.2873 65.2381 87.4573 63.9184 86.6074C62.4286 85.6574 60.8589 84.4774 59.1492 83.7575C58.2994 83.5175 57.4296 83.2975 56.5597 83.1175C56.4397 83.0875 56.3398 83.0575 56.2498 83.0075C54.3601 82.7575 52.4505 82.6675 50.5508 82.5775C48.4312 82.4675 46.3216 82.4075 44.202 82.4175C43.7521 82.4175 43.3021 82.4175 42.8522 82.4275C39.4729 82.7475 36.1235 83.3375 32.8741 84.3074C28.5649 85.5874 24.4156 87.4373 20.5963 89.8073C20.0864 90.1273 19.4165 90.0973 19.0366 89.5873C18.6967 89.1373 18.7467 88.3473 19.2566 88.0273C21.6561 86.5374 24.1557 85.2574 26.7452 84.1674C25.9053 84.3574 25.0755 84.5474 24.2457 84.7674C23.6658 84.9274 23.0359 84.7474 22.7959 84.1374C22.596 83.6275 22.8359 82.8475 23.4258 82.6875C29.6647 81.0175 36.0535 80.3276 42.4823 80.2076C42.6523 80.1876 42.8122 80.1676 42.9822 80.1576C47.0315 79.7976 51.2407 79.5976 55.2799 80.1576C58.4294 80.5976 61.4288 81.6675 64.1983 83.1975C64.8182 83.4975 65.4281 83.8474 65.998 84.2674C66.038 84.2974 66.078 84.3274 66.128 84.3674C69.0074 86.2474 71.557 88.6173 73.7765 91.2472C73.9665 91.2772 74.1365 91.3572 74.2865 91.4672C74.3464 91.5272 74.4164 91.5772 74.4764 91.6372C74.5964 91.7272 74.6864 91.8372 74.7464 91.9772C74.8364 92.1072 74.8763 92.2472 74.8863 92.3972C74.9063 92.5472 74.8863 92.6872 74.8364 92.8272C74.8264 92.8972 74.7964 92.9672 74.7664 93.0272C75.4062 93.5871 75.9561 94.2471 76.3361 95.0571C76.4461 95.2971 76.4461 95.5071 76.3761 95.6871C76.4061 95.7271 76.4361 95.7671 76.4661 95.7971C76.896 95.9371 77.2159 96.3071 77.1459 96.7871C77.1059 97.067 76.896 97.337 76.626 97.467C76.2961 97.757 75.8062 97.827 75.4762 97.437C74.5664 97.397 73.7566 97.737 72.8967 98.187C71.7369 98.787 70.5671 99.397 69.4273 100.037C67.1578 101.307 64.9982 102.757 63.0485 104.487C59.3292 107.817 56.2598 111.787 52.3305 114.886C50.0409 116.686 47.5714 118.236 44.9718 119.546C44.5419 119.766 43.982 119.466 43.8121 119.046C43.6221 118.566 43.882 118.106 44.312 117.886C48.9511 115.546 52.9204 112.327 56.4897 108.577C58.2794 106.697 60.0291 104.777 61.9687 103.047C63.9384 101.287 66.1379 99.837 68.4375 98.537C69.7473 97.807 71.077 97.097 72.4068 96.4171C72.7467 96.2371 73.0967 96.0871 73.4566 95.9571C72.9367 95.8171 72.3868 95.7471 71.8469 95.7471C70.2772 95.7471 68.6875 95.9971 67.1478 96.2671C63.9384 96.827 60.8089 97.777 57.7795 98.947C51.5106 101.377 45.6917 104.777 39.9128 108.187C36.5734 110.157 33.234 112.117 29.8046 113.917C29.3747 114.137 28.8148 113.827 28.6448 113.417C28.4549 112.927 28.7148 112.487 29.1448 112.257C41.4525 105.787 52.9504 96.937 66.9578 94.4871C68.7975 94.1671 71.207 93.7171 73.2866 94.0771C72.6967 93.6471 72.0269 93.3172 71.367 93.0472" fill="#4555FF"/>
<path d="M72.9268 98.1876C72.9268 98.1876 72.8968 98.2076 72.8868 98.2076C72.2769 98.5276 71.657 98.8476 71.0471 99.1676C71.0371 99.1676 71.0271 99.1776 71.0171 99.1876C71.0071 99.1876 70.9971 99.1976 70.9771 99.2076C70.9571 99.2176 70.9271 99.2276 70.9071 99.2476C70.9071 99.2476 70.9071 99.2476 70.8971 99.2476C70.6372 99.3876 70.3872 99.5176 70.1272 99.6576C70.4772 100.748 70.7671 101.808 71.0071 102.818C71.0471 102.778 71.0871 102.738 71.1271 102.708C71.707 101.148 72.3169 99.6476 72.9368 98.1876M68.7375 96.0576C69.0274 96.7076 69.2974 97.3476 69.5273 97.9776C69.6373 97.9176 69.7373 97.8676 69.8473 97.8076C69.8473 97.8076 69.8473 97.8076 69.8573 97.8076C69.8773 97.8076 69.8873 97.7876 69.9073 97.7776C69.9173 97.7776 69.9373 97.7676 69.9473 97.7576C69.9673 97.7576 69.9773 97.7376 69.9973 97.7276C70.0173 97.7176 70.0373 97.7076 70.0573 97.6976C70.0573 97.6976 70.0773 97.6976 70.0873 97.6876C70.1072 97.6776 70.1272 97.6676 70.1572 97.6476C70.1572 97.6476 70.1572 97.6476 70.1672 97.6476C70.1972 97.6376 70.2172 97.6176 70.2472 97.6076C70.2472 97.6076 70.2472 97.6076 70.2572 97.6076C70.2872 97.5976 70.3072 97.5776 70.3372 97.5676C70.3972 97.5376 70.4572 97.5076 70.5172 97.4776C70.5772 97.4476 70.6372 97.4176 70.6972 97.3876C70.7571 97.3576 70.8171 97.3276 70.8671 97.2976C70.8671 97.2976 70.8671 97.2976 70.8771 97.2976C70.9071 97.2876 70.9371 97.2676 70.9571 97.2576C70.9871 97.2476 71.0171 97.2276 71.0371 97.2176C71.0371 97.2176 71.0471 97.2176 71.0571 97.2176C71.0771 97.2076 71.0971 97.1976 71.1271 97.1876C71.1271 97.1876 71.1371 97.1876 71.1471 97.1876C71.1771 97.1776 71.1971 97.1576 71.2271 97.1476C71.2271 97.1476 71.2471 97.1476 71.2471 97.1376C71.2671 97.1376 71.2871 97.1176 71.2971 97.1076C71.3071 97.1076 71.3171 97.0976 71.3271 97.0876C71.3471 97.0776 71.3671 97.0676 71.3971 97.0576C71.4071 97.0576 71.427 97.0476 71.437 97.0376C71.447 97.0376 71.467 97.0276 71.477 97.0176C71.487 97.0176 71.507 97.0076 71.517 96.9976C71.527 96.9976 71.537 96.9876 71.547 96.9776C71.577 96.9676 71.597 96.9476 71.627 96.9376C71.627 96.9376 71.647 96.9376 71.647 96.9276C71.667 96.9276 71.677 96.9076 71.697 96.8976C71.697 96.8976 71.707 96.8976 71.717 96.8876C71.767 96.8576 71.827 96.8276 71.877 96.8076C71.877 96.8076 71.887 96.8076 71.897 96.7976C71.947 96.7676 72.007 96.7376 72.057 96.7176C72.057 96.7176 72.0769 96.7176 72.0769 96.7076C72.0969 96.7076 72.1069 96.6876 72.1269 96.6876C72.1369 96.6876 72.1469 96.6776 72.1569 96.6676C72.1769 96.6576 72.2069 96.6476 72.2269 96.6276C72.2369 96.6276 72.2569 96.6076 72.2669 96.6076C72.2769 96.6076 72.2869 96.5976 72.2969 96.5876C72.3269 96.5776 72.3469 96.5576 72.3769 96.5476C72.3769 96.5476 72.3969 96.5476 72.3969 96.5376C72.7269 96.3676 73.0568 96.2276 73.3867 96.1076C73.3867 96.1076 73.4067 96.1076 73.4167 96.0976C72.8968 95.9576 72.3469 95.8876 71.807 95.8876C71.807 95.8876 71.787 95.8876 71.777 95.8876C71.777 95.8876 71.777 95.8876 71.767 95.8876C71.767 95.8876 71.767 95.8876 71.757 95.8876C71.757 95.8876 71.757 95.8876 71.747 95.8876C71.747 95.8876 71.747 95.8876 71.737 95.8876C71.737 95.8876 71.727 95.8876 71.717 95.8876H71.707C71.707 95.8876 71.697 95.8876 71.687 95.8876C71.687 95.8876 71.677 95.8876 71.667 95.8876C71.667 95.8876 71.657 95.8876 71.647 95.8876C71.607 95.8876 71.567 95.8876 71.527 95.8876C71.1071 95.8876 70.6872 95.9176 70.2672 95.9576C70.2472 95.9576 70.2372 95.9576 70.2172 95.9576C70.2172 95.9576 70.2072 95.9576 70.1972 95.9576C70.1972 95.9576 70.1872 95.9576 70.1772 95.9576C70.1772 95.9576 70.0973 95.9576 70.0573 95.9676C70.0573 95.9676 70.0473 95.9676 70.0373 95.9676C70.0373 95.9676 70.0373 95.9676 70.0273 95.9676C70.0273 95.9676 70.0173 95.9676 70.0073 95.9676C70.0073 95.9676 70.0073 95.9676 69.9973 95.9676C69.9973 95.9676 69.9973 95.9676 69.9873 95.9676C69.9873 95.9676 69.9873 95.9676 69.9773 95.9676C69.9773 95.9676 69.9773 95.9676 69.9673 95.9676C69.9673 95.9676 69.9673 95.9676 69.9573 95.9676C69.9573 95.9676 69.9573 95.9676 69.9473 95.9676C69.9473 95.9676 69.9373 95.9676 69.9273 95.9676C69.5273 96.0076 69.1274 96.0576 68.7375 96.1176M66.4778 91.7776C66.6478 92.0576 66.8178 92.3376 66.9877 92.6276C67.3277 93.2176 67.6476 93.8076 67.9376 94.3776C67.9576 94.3776 67.9676 94.3776 67.9876 94.3776C67.9876 94.3776 67.9976 94.3776 68.0076 94.3776C68.1675 94.3476 68.3375 94.3276 68.4975 94.2976C69.9673 94.0676 71.597 93.8976 73.0768 94.1176C73.1468 94.1276 73.2168 94.1376 73.2868 94.1476C72.6969 93.7176 72.027 93.3876 71.3671 93.1176C69.8873 92.5176 68.3075 92.1176 66.7378 91.8376C66.6978 91.8376 66.6478 91.8176 66.6078 91.8176C66.5578 91.8176 66.5078 91.7976 66.4678 91.7976M59.1489 83.7676C60.9786 85.2476 63.1683 87.2476 65.088 89.7776C65.208 89.7876 65.328 89.8076 65.448 89.8176C65.448 89.8176 65.468 89.8176 65.478 89.8176C65.8879 89.8676 66.2978 89.9276 66.6978 89.9976C66.7078 89.9976 66.7278 89.9976 66.7378 89.9976C67.6076 90.1476 68.4775 90.3276 69.3474 90.5576C68.8774 90.0876 68.3775 89.6376 67.8476 89.2276C66.5878 88.2776 65.238 87.4476 63.9182 86.5976C62.4284 85.6476 60.8587 84.4676 59.1489 83.7476" fill="#6873EB"/>
<path d="M70.9071 99.2478C70.9071 99.2478 70.9071 99.2478 70.8971 99.2478C70.8971 99.2478 70.8971 99.2478 70.9071 99.2478ZM71.0171 99.1978C71.0171 99.1978 70.9971 99.2078 70.9771 99.2178C70.9871 99.2178 70.9971 99.2078 71.0171 99.1978ZM72.9268 98.1878C72.9268 98.1878 72.8968 98.2078 72.8868 98.2078C72.8968 98.2078 72.9168 98.1878 72.9268 98.1878ZM69.8673 97.7978C69.8673 97.7978 69.8673 97.7978 69.8573 97.7978C69.8573 97.7978 69.8573 97.7978 69.8673 97.7978ZM69.9473 97.7578C69.9473 97.7578 69.9173 97.7678 69.9073 97.7778C69.9173 97.7778 69.9373 97.7678 69.9473 97.7578ZM70.0573 97.6978C70.0573 97.6978 70.0173 97.7178 69.9973 97.7278C70.0173 97.7178 70.0373 97.7078 70.0573 97.6978ZM70.1472 97.6478C70.1472 97.6478 70.1072 97.6678 70.0773 97.6878C70.0972 97.6778 70.1173 97.6678 70.1472 97.6478ZM70.2472 97.5978C70.2472 97.5978 70.1972 97.6278 70.1672 97.6378C70.1972 97.6278 70.2172 97.6078 70.2472 97.5978ZM70.3372 97.5478C70.3372 97.5478 70.2872 97.5778 70.2572 97.5878C70.2872 97.5778 70.3072 97.5578 70.3372 97.5478ZM70.8771 97.2578C70.8171 97.2878 70.7572 97.3178 70.7072 97.3478C70.7671 97.3178 70.8271 97.2878 70.8771 97.2578ZM70.9671 97.2178C70.9671 97.2178 70.9071 97.2478 70.8871 97.2578C70.9171 97.2478 70.9471 97.2278 70.9671 97.2178ZM71.0571 97.1678C71.0571 97.1678 70.9971 97.1978 70.9771 97.2078C71.0071 97.1978 71.0371 97.1778 71.0571 97.1678ZM71.1371 97.1278C71.1371 97.1278 71.0971 97.1478 71.0671 97.1578C71.0871 97.1478 71.1071 97.1378 71.1371 97.1278ZM71.2371 97.0778C71.2371 97.0778 71.1871 97.1078 71.1571 97.1178C71.1871 97.1078 71.2071 97.0878 71.2371 97.0778ZM71.3071 97.0378C71.3071 97.0378 71.2671 97.0578 71.2571 97.0678C71.2771 97.0678 71.2971 97.0478 71.3071 97.0378ZM71.407 96.9778C71.407 96.9778 71.3671 96.9978 71.3371 97.0078C71.3571 96.9978 71.3771 96.9878 71.407 96.9778ZM71.487 96.9378C71.487 96.9378 71.457 96.9478 71.447 96.9578C71.457 96.9578 71.477 96.9478 71.487 96.9378ZM71.557 96.8978C71.557 96.8978 71.537 96.9078 71.527 96.9178C71.537 96.9178 71.547 96.9078 71.557 96.8978ZM71.667 96.8478C71.667 96.8478 71.647 96.8478 71.647 96.8578C71.647 96.8578 71.667 96.8578 71.667 96.8478ZM71.737 96.8078C71.737 96.8078 71.727 96.8078 71.717 96.8178C71.717 96.8178 71.727 96.8178 71.737 96.8078ZM71.927 96.7178C71.927 96.7178 71.917 96.7178 71.907 96.7278C71.907 96.7278 71.917 96.7278 71.927 96.7178ZM72.1169 96.6178C72.1169 96.6178 72.0969 96.6178 72.0969 96.6278C72.0969 96.6278 72.1169 96.6278 72.1169 96.6178ZM72.1969 96.5778C72.1969 96.5778 72.1769 96.5878 72.1669 96.5978C72.1769 96.5978 72.1869 96.5878 72.1969 96.5778ZM72.3069 96.5178C72.3069 96.5178 72.2769 96.5378 72.2669 96.5378C72.2769 96.5378 72.2969 96.5178 72.3069 96.5178ZM72.4169 96.4678C72.4169 96.4678 72.3669 96.4978 72.3369 96.5078C72.3669 96.4978 72.3869 96.4778 72.4169 96.4678ZM72.4369 96.4478C72.4369 96.4478 72.4169 96.4478 72.4169 96.4578C72.4169 96.4578 72.4369 96.4578 72.4369 96.4478ZM73.4267 96.0178C73.0968 96.1378 72.7668 96.2878 72.4369 96.4478C72.6969 96.3178 72.9568 96.1978 73.2168 96.0978C73.2868 96.0678 73.3568 96.0478 73.4267 96.0178ZM73.4567 96.0078C73.4567 96.0078 73.4367 96.0078 73.4267 96.0178C73.4267 96.0178 73.4467 96.0178 73.4567 96.0078ZM71.827 95.7978C71.827 95.7978 71.847 95.7978 71.857 95.7978C72.3969 95.7978 72.9468 95.8578 73.4667 96.0078C72.9468 95.8678 72.3969 95.7978 71.857 95.7978C71.857 95.7978 71.837 95.7978 71.827 95.7978ZM71.797 95.7978C71.797 95.7978 71.797 95.7978 71.807 95.7978C71.807 95.7978 71.807 95.7978 71.797 95.7978ZM71.777 95.7978C71.777 95.7978 71.777 95.7978 71.787 95.7978C71.787 95.7978 71.787 95.7978 71.777 95.7978ZM71.747 95.7978H71.757C71.757 95.7978 71.757 95.7978 71.747 95.7978ZM70.0473 95.8978C70.0473 95.8978 70.0473 95.8978 70.0573 95.8978C70.0573 95.8978 70.0573 95.8978 70.0473 95.8978ZM70.0173 95.8978C70.0173 95.8978 70.0173 95.8978 70.0273 95.8978C70.0273 95.8978 70.0273 95.8978 70.0173 95.8978ZM69.9973 95.9078C69.9973 95.9078 69.9973 95.9078 70.0073 95.9078C70.0073 95.9078 70.0073 95.9078 69.9973 95.9078ZM69.9673 95.9078C69.9673 95.9078 69.9673 95.9078 69.9773 95.9078C69.9773 95.9078 69.9773 95.9078 69.9673 95.9078ZM69.9373 95.9078C69.9373 95.9078 69.9473 95.9078 69.9573 95.9078C69.9573 95.9078 69.9473 95.9078 69.9373 95.9078ZM68.7375 96.0578C69.1374 95.9978 69.5273 95.9478 69.9273 95.9078C69.5273 95.9478 69.1274 95.9978 68.7375 96.0578ZM68.0076 94.3678C68.0076 94.3678 67.9976 94.3678 67.9876 94.3678C67.9876 94.3678 67.9976 94.3678 68.0076 94.3678ZM68.5075 94.2878C68.3375 94.3178 68.1775 94.3378 68.0176 94.3678C68.1775 94.3378 68.3475 94.3178 68.5075 94.2878C69.9773 94.0578 71.607 93.8878 73.0968 94.1078C71.617 93.8978 69.9773 94.0678 68.5175 94.2878M66.6178 91.7978C66.6178 91.7978 66.7078 91.8178 66.7478 91.8178C68.3175 92.0978 69.8973 92.4878 71.3771 93.0978C69.8973 92.4978 68.3175 92.0978 66.7478 91.8178C66.7078 91.8178 66.6578 91.7978 66.6178 91.7978ZM66.6978 90.0078C66.6978 90.0078 66.7278 90.0078 66.7378 90.0078C66.7278 90.0078 66.7078 90.0078 66.6978 90.0078ZM65.458 89.8278C65.458 89.8278 65.478 89.8278 65.488 89.8278C65.488 89.8278 65.468 89.8278 65.458 89.8278ZM65.088 89.7778C65.208 89.7878 65.328 89.8078 65.448 89.8178C65.328 89.7978 65.208 89.7878 65.088 89.7778ZM59.1489 83.7778C60.8487 84.4978 62.4284 85.6678 63.9182 86.6278C65.238 87.4778 66.5978 88.3078 67.8476 89.2578C68.3875 89.6678 68.8774 90.1178 69.3474 90.5878C68.8774 90.1178 68.3775 89.6678 67.8476 89.2578C66.5878 88.3078 65.238 87.4778 63.9182 86.6278C62.4284 85.6778 60.8587 84.4978 59.1489 83.7778Z" fill="#3745EB"/>
<path d="M56.2397 81.5376C65.5983 82.9076 72.4673 91.8976 75.0369 95.2176C75.0869 95.2776 75.1269 95.3576 75.1568 95.4376C75.3368 95.8976 75.2668 96.6276 75.0769 97.4776C74.6469 97.5076 74.237 97.6176 73.8271 97.7776C73.5171 97.8976 73.1972 98.0576 72.8772 98.2176C71.9573 98.6976 71.0275 99.1776 70.1176 99.6676C69.9376 99.1176 69.7377 98.5476 69.5277 97.9776C70.4776 97.4576 71.4374 96.9576 72.4073 96.4576C72.6772 96.3176 72.9472 96.1976 73.2172 96.0876C73.2971 96.0576 73.3771 96.0276 73.4571 95.9976C72.9372 95.8576 72.3873 95.7876 71.8474 95.7876C70.8175 95.7876 69.7677 95.8976 68.7378 96.0476C68.4879 95.4976 68.2279 94.9376 67.938 94.3676C69.6077 94.0876 71.5674 93.8276 73.2971 94.1276C72.7072 93.6976 72.0373 93.3676 71.3774 93.0976C69.8977 92.4976 68.3179 92.0976 66.7481 91.8176C66.6582 91.7976 66.5682 91.7876 66.4782 91.7676C66.0382 91.0676 65.5683 90.3976 65.0884 89.7676C65.6383 89.8276 66.1982 89.9076 66.7381 89.9976C67.608 90.1476 68.4779 90.3276 69.3477 90.5576C68.8778 90.0876 68.3779 89.6376 67.848 89.2276C66.5882 88.2776 65.2384 87.4476 63.9186 86.5976C62.4288 85.6476 60.859 84.4676 59.1493 83.7476C57.9795 82.7976 56.9496 82.0476 56.2397 81.5176" fill="#3D4CE3"/>
</g>
<path d="M97.7219 197.084C97.7219 197.084 97.7219 197.164 97.7119 197.204C97.6919 197.484 97.6719 197.774 97.6419 198.074C97.6419 198.074 97.6419 198.074 97.6419 198.094C97.472 199.714 97.102 201.504 96.4621 203.403C95.4523 206.363 94.1226 208.023 94.5425 210.023C95.0924 212.663 98.3818 215.663 97.052 217.543C97.002 217.613 96.9521 217.673 96.8921 217.733C96.7621 217.873 96.6021 217.993 96.4222 218.103C93.6627 219.663 85.2842 218.033 82.3147 216.923C80.2151 216.143 78.4255 214.783 77.3257 212.853C77.0057 212.303 76.7558 211.693 76.5658 211.043C76.0159 209.253 75.9959 207.103 76.6558 204.593C78.0855 199.234 74.2662 191.704 73.1764 185.774C72.6365 182.814 79.1753 179.274 83.7345 182.004C90.0233 185.784 97.032 181.874 97.032 181.874C98.2518 183.014 97.9319 194.314 97.7419 197.074L97.7219 197.084Z" fill="#4F5FFF"/>
<path d="M81.9451 195.665C77.2958 197.035 76.5859 206.205 76.5459 211.035C75.996 209.245 75.976 207.095 76.6359 204.585C78.0657 199.225 74.2462 191.695 73.1564 185.765C72.6165 182.805 79.1555 179.265 83.7148 181.995C90.0038 185.775 97.5427 183.265 97.5427 183.265C97.4227 187.415 88.0941 193.855 81.9451 195.655V195.665Z" fill="#293CFF"/>
<path d="M96.8921 217.734C97.9019 215.584 95.0124 212.484 94.1225 211.834C92.1328 210.384 90.603 209.304 90.943 208.704C91.2829 208.094 92.6927 207.864 94.4225 206.294C96.0522 204.814 97.532 198.484 97.622 198.094C97.452 199.714 97.092 201.504 96.4421 203.404C95.4323 206.364 94.1125 208.024 94.5324 210.024C95.0824 212.664 98.3618 215.664 97.042 217.544C96.9921 217.614 96.9421 217.674 96.8821 217.734H96.8921Z" fill="#7884FF"/>
<path d="M103.241 179.154C103.061 179.324 102.871 179.504 102.681 179.684C100.622 181.624 98.2121 183.404 95.4026 184.984C95.0027 185.214 94.5928 185.434 94.1828 185.654C93.393 186.074 92.5731 186.464 91.7233 186.844C90.8834 187.234 89.9936 187.604 89.0938 187.954C86.2443 189.074 83.3848 189.914 80.5554 190.524C79.8655 190.674 79.1556 190.754 78.4657 190.914C78.4057 190.914 78.3658 190.934 78.3058 190.944C78.2058 190.974 78.1058 190.994 78.0058 191.024C76.0462 191.474 73.4866 191.804 70.4072 191.854C63.9184 192.004 55.14 190.924 44.9719 187.054C44.0021 186.694 43.0223 186.294 42.0224 185.874C41.2026 185.534 40.3727 185.164 39.5329 184.774C27.3651 179.184 17.347 171.515 11.2381 166.215C10.4482 165.525 9.73837 164.875 9.08849 164.285C8.5186 163.765 5.16921 161.375 5.45916 160.815C5.74911 160.265 9.67838 161.535 10.4382 161.685C24.0357 164.625 58.1095 166.455 67.7377 114.616C70.1273 101.787 76.4761 91.6571 78.9057 83.6774C79.5655 81.5174 76.976 79.2075 76.976 79.2075L85.7344 75.3576L92.3032 72.4677L93.0131 72.1577C93.0131 72.1577 93.0131 72.2277 92.9931 72.3577C92.8131 74.5176 91.5633 93.677 103.561 119.926C103.661 120.136 103.751 120.366 103.851 120.576C104.281 121.516 104.681 122.446 105.081 123.386C105.191 123.636 105.291 123.896 105.401 124.156C105.591 124.636 105.791 125.086 105.971 125.556C106.061 125.756 106.141 125.966 106.211 126.156C106.241 126.226 106.271 126.286 106.291 126.346C106.391 126.586 106.481 126.816 106.561 127.046C107.38 129.146 108.13 131.226 108.8 133.306C109.16 134.396 109.5 135.476 109.81 136.566C114.549 153.075 114.009 168.525 103.231 179.164L103.241 179.154Z" fill="#6B78FF"/>
<path d="M103.241 179.154C103.061 179.324 102.871 179.504 102.681 179.684C100.621 181.624 98.2119 183.404 95.4024 184.984C94.9925 185.204 94.5826 185.434 94.1727 185.644C93.3828 186.064 92.5729 186.464 91.7231 186.844C90.8833 187.234 89.9934 187.604 89.0936 187.954C86.2441 189.074 83.3846 189.914 80.5552 190.524C79.8653 190.674 79.1554 190.754 78.4655 190.914C78.4056 190.914 78.3656 190.934 78.3056 190.944C78.2056 190.974 78.1056 190.994 78.0056 191.024C76.046 191.474 73.4865 191.804 70.407 191.854C69.6672 189.724 72.0867 167.304 81.175 118.426C84.8944 98.4566 85.5942 80.9471 85.7142 75.3373C85.7442 74.1273 85.7442 73.4674 85.7442 73.4674L92.283 72.4474L92.9729 72.3374C92.7929 74.4973 91.5431 93.6568 103.541 119.906C103.641 120.116 103.731 120.346 103.831 120.556C104.261 121.496 104.661 122.426 105.061 123.366C105.171 123.616 105.271 123.876 105.381 124.136C105.571 124.616 105.771 125.066 105.95 125.536C106.04 125.736 106.12 125.946 106.19 126.136C106.22 126.206 106.25 126.266 106.27 126.326C106.37 126.566 106.46 126.796 106.54 127.026C107.36 129.126 108.11 131.206 108.78 133.286C109.14 134.375 109.48 135.455 109.79 136.545C114.529 153.055 113.989 168.504 103.211 179.144L103.241 179.154Z" fill="#B3B9FF"/>
<mask id="mask2_20_7892" style="mask-type:luminance" maskUnits="userSpaceOnUse" x="70" y="72" width="43" height="126">
<path d="M76.2763 197.434C77.0261 197.314 79.8156 190.674 80.5655 190.514C83.3949 189.904 86.2444 189.064 89.1039 187.944C90.9136 187.234 92.6033 186.464 94.183 185.634C97.5223 183.894 100.332 181.884 102.691 179.664C102.881 179.484 103.071 179.304 103.251 179.134C114.029 168.485 114.569 153.045 109.83 136.536C109.52 135.446 109.19 134.366 108.83 133.276C108.16 131.196 107.411 129.116 106.591 127.016C106.511 126.786 106.411 126.556 106.321 126.326C106.301 126.256 106.271 126.196 106.241 126.126C106.161 125.936 106.081 125.726 106.001 125.526C105.811 125.066 105.621 124.596 105.421 124.126C104.831 122.716 104.221 121.296 103.571 119.886C91.5834 93.647 92.8232 74.4876 93.0032 72.3276L85.7745 73.4476C85.7745 73.4476 85.7245 94.107 81.2054 118.406C72.107 167.345 69.6875 189.754 70.4373 191.844" fill="white"/>
</mask>
<g mask="url(#mask2_20_7892)">
<path d="M96.4935 75.4877C95.2537 74.6677 93.8339 75.0877 92.5441 75.5677C91.1343 76.0877 89.7145 76.4577 88.2048 76.5977C85.1652 76.8777 82.0857 76.2577 79.3861 74.8477C78.7162 74.4977 78.2963 75.5877 78.9562 75.9377C81.6158 77.3177 84.6053 77.9377 87.5949 77.8077C89.0746 77.7377 90.5344 77.4677 91.9442 77.0177C93.054 76.6577 94.6738 75.6977 95.8036 76.4377C96.4335 76.8477 97.1234 75.9077 96.4935 75.4977" fill="#8792FF"/>
<path d="M95.6538 85.6376C94.7239 85.6376 93.844 85.9976 92.9642 86.2776C92.0743 86.5576 91.1944 86.7576 90.2646 86.7976C88.5149 86.8776 86.7751 86.5976 85.0854 86.1876C81.9959 85.4376 79.1063 84.1076 76.8366 81.8376C76.0168 81.0176 77.4266 79.8876 78.2364 80.6976C80.3161 82.7776 83.1557 83.9476 85.9952 84.5576C87.615 84.9076 89.3147 85.1776 90.9745 84.9276C91.6644 84.8276 92.3143 84.6276 92.9642 84.4276C93.904 84.1376 94.8339 83.8576 95.8537 83.8576C97.0136 83.8576 96.8036 85.6576 95.6438 85.6476" fill="#8792FF"/>
<path d="M98.0633 95.4279C96.6435 94.3779 94.7338 94.7979 93.114 95.0279C91.3043 95.2879 89.5046 95.3479 87.6949 95.0079C84.1054 94.3279 80.7959 92.4079 78.5863 89.4779C77.8864 88.5479 79.2862 87.4079 79.986 88.3379C82.1457 91.1979 85.4552 92.9779 89.0047 93.3779C90.7944 93.5779 92.4841 93.2479 94.2539 93.0479C95.9536 92.8579 97.6933 92.9079 99.1231 93.9679C100.063 94.6579 98.9931 96.1179 98.0533 95.4279" fill="#8792FF"/>
<path d="M98.7628 104.277C97.1031 104.127 95.4733 104.417 93.8336 104.707C93.2137 104.817 92.6038 104.927 91.9839 105.017C89.9642 105.297 87.9145 105.257 85.9148 104.857C82.0154 104.077 78.4259 102.197 75.2264 99.877C74.2866 99.197 75.3464 97.737 76.2963 98.417C79.3658 100.637 82.8353 102.497 86.6047 103.147C88.5544 103.487 90.4741 103.437 92.4238 103.117C94.6035 102.757 96.7531 102.267 98.9728 102.477C100.133 102.587 99.9226 104.377 98.7628 104.267" fill="#8792FF"/>
<path d="M103.022 111.077C96.0835 113.957 87.9247 113.547 81.2557 110.107C79.336 109.117 77.5563 107.917 75.9665 106.467C75.1167 105.697 76.1665 104.227 77.0364 105.007C83.7653 111.097 93.8838 112.917 102.293 109.427C103.362 108.987 104.112 110.627 103.032 111.077" fill="#8792FF"/>
<path d="M105.022 121.156C100.803 123.886 95.6536 123.846 90.8543 123.066C85.7851 122.246 80.9658 120.706 76.8765 117.506C75.9566 116.796 77.0264 115.326 77.9463 116.046C81.7257 118.996 86.1251 120.436 90.8143 121.226C95.1437 121.956 100.043 122.246 103.892 119.756C104.862 119.126 106.012 120.526 105.032 121.156" fill="#8792FF"/>
<path d="M108.61 129.116C100.802 133.756 90.9636 134.546 82.4052 131.596C79.9856 130.756 77.6761 129.606 75.5465 128.186C74.5766 127.536 75.6464 126.086 76.6163 126.726C83.755 131.486 92.9633 132.726 101.182 130.376C103.531 129.706 105.781 128.706 107.881 127.466C108.88 126.876 109.61 128.526 108.62 129.116" fill="#8792FF"/>
<path d="M111.81 140.195C106.721 141.945 101.542 143.725 96.1428 144.215C91.1737 144.665 86.2447 143.855 81.5355 142.255C78.926 141.375 76.3965 140.265 73.9169 139.055C74.1469 139.055 74.3868 139.045 74.6168 139.035L74.5268 139.075C74.6868 138.915 74.8367 138.745 74.9967 138.585C74.8867 138.325 74.7768 138.075 74.6668 137.815C74.4368 137.815 74.1969 137.825 73.9669 137.835L74.0569 137.795C75.1267 137.355 75.8766 138.995 74.7967 139.445C73.8169 139.845 72.8171 138.765 73.367 137.825C73.697 137.265 74.2668 137.255 74.8067 137.485C75.4466 137.755 76.0665 138.095 76.7064 138.385C79.1759 139.505 81.7055 140.495 84.315 141.235C86.9145 141.975 89.594 142.435 92.2935 142.535C95.283 142.645 98.2724 142.225 101.182 141.555C104.541 140.785 107.801 139.665 111.06 138.545C112.15 138.175 112.9 139.815 111.8 140.195" fill="#8792FF"/>
<path d="M113.14 152.195C102.932 156.085 91.3838 156.045 81.1557 152.235C78.2562 151.155 75.4667 149.755 72.8572 148.096C71.8774 147.476 72.9472 146.016 73.927 146.636C82.7354 152.245 93.5934 154.385 103.891 152.795C106.801 152.345 109.65 151.595 112.4 150.545C113.48 150.135 114.23 151.775 113.14 152.195Z" fill="#8792FF"/>
<path d="M112.33 164.725C100.732 166.885 88.3242 167.105 77.3862 162.105C74.6267 160.845 72.0072 159.265 69.6276 157.375C68.9078 156.795 69.3677 155.705 70.2675 155.745C71.0274 155.785 71.6273 156.235 71.9272 156.925C72.3871 157.995 70.7374 158.735 70.2775 157.665C70.2775 157.535 70.1975 157.495 70.0576 157.535C70.2675 156.995 70.4775 156.455 70.6974 155.905C79.4458 162.865 90.9137 164.955 101.852 164.255C105.281 164.035 108.68 163.565 112.06 162.935C113.2 162.725 113.48 164.505 112.34 164.715" fill="#8792FF"/>
<path d="M109.38 176.395C97.9924 178.465 85.9946 176.125 76.0864 170.175C73.257 168.475 70.6274 166.475 68.2279 164.215C67.608 163.635 67.8879 162.485 68.8678 162.585C69.3677 162.635 69.8776 162.695 70.3775 162.745C71.5273 162.865 71.3273 164.665 70.1675 164.535C69.6676 164.485 69.1577 164.425 68.6578 164.375C68.8678 163.835 69.0777 163.295 69.2977 162.745C77.4662 170.465 88.4142 174.925 99.6321 175.305C102.812 175.415 105.981 175.165 109.11 174.595C110.25 174.385 110.53 176.175 109.39 176.375" fill="#8792FF"/>
<path d="M94.9939 190.605C92.3543 190.745 89.8747 189.965 87.5251 188.815C85.1754 187.665 82.9258 186.305 80.7561 184.865C76.4367 181.985 72.4474 178.585 68.8979 174.795C66.9982 172.765 64.5086 170.395 64.7485 167.365C64.8385 166.205 66.6382 166.415 66.5383 167.575C66.3583 169.885 68.6779 171.925 70.1177 173.465C71.7675 175.235 73.5072 176.915 75.3469 178.495C78.9364 181.585 82.8658 184.315 87.0451 186.545C89.4048 187.805 91.9944 188.965 94.7239 188.825C95.8738 188.765 96.1637 190.545 95.0039 190.605H94.9939Z" fill="#8792FF"/>
<mask id="mask3_20_7892" style="mask-type:luminance" maskUnits="userSpaceOnUse" x="92" y="72" width="2" height="13">
<path d="M92.9833 72.3477C92.9433 72.7677 92.8733 73.8277 92.8633 75.4577C92.8733 73.8277 92.9533 72.7677 92.9833 72.3477Z" fill="white"/>
</mask>
<g mask="url(#mask3_20_7892)">
<path d="M92.9922 72.335L91.5298 72.5627L93.356 84.2914L94.8183 84.0637L92.9922 72.335Z" fill="#C5CAFF"/>
</g>
<path d="M105.401 124.146C105.051 123.296 104.681 122.436 104.311 121.586Z" fill="#C5CAFF"/>
<path d="M93.353 84.2979C93.413 84.8779 93.483 85.4679 93.563 86.0779C93.483 85.4679 93.413 84.8679 93.353 84.2979Z" fill="#A3ACFF"/>
<g style="mix-blend-mode:multiply" opacity="0.28">
<path d="M112.61 152.406C112.58 151.786 112.54 151.156 112.49 150.526C112.37 149.076 112.2 147.606 111.96 146.116C111.67 144.276 111.3 142.406 110.86 140.516C110.72 139.936 110.58 139.346 110.43 138.766L108.351 130.036L104.801 121.297C104.671 121.367 104.491 121.467 104.301 121.577C104.061 121.037 103.821 120.497 103.572 119.957C103.572 119.947 103.562 119.927 103.552 119.917C102.322 117.217 101.222 114.587 100.252 112.047C100.032 111.477 99.8222 110.917 99.6222 110.357C98.8524 108.257 98.1725 106.217 97.5626 104.247C97.3827 103.647 97.2027 103.057 97.0327 102.467C96.2429 99.7572 95.603 97.1873 95.0731 94.7774C94.9431 94.1774 94.8231 93.5874 94.7032 93.0174C94.3932 91.4775 94.1333 90.0075 93.9233 88.6076C93.7933 87.7376 93.6733 86.9076 93.5634 86.0977C93.6134 86.5076 93.6733 86.9376 93.7333 87.3676C93.7333 87.3676 93.7333 87.3676 93.7233 87.3676C93.5634 87.3876 93.4134 87.4176 93.2534 87.4476C93.5134 89.1376 93.8533 91.0575 94.2332 93.0574C94.3432 93.6374 94.4632 94.2274 94.5732 94.8274C95.0731 97.3773 95.643 100.027 96.2129 102.537C96.3529 103.137 96.4828 103.727 96.6228 104.297C97.1827 106.687 97.7426 108.887 98.2425 110.687C98.4225 111.317 98.5924 111.897 98.7524 112.417C98.9824 113.157 99.1923 113.777 99.3823 114.257C99.9022 115.577 101.012 117.767 102.352 120.597C102.592 121.107 102.842 121.647 103.102 122.207C103.312 122.667 103.532 123.147 103.751 123.636L108.581 136.726C108.811 137.536 109.021 138.356 109.23 139.186C109.37 139.766 109.51 140.356 109.63 140.946C110.34 144.226 110.8 147.646 110.89 151.106C110.91 151.736 110.91 152.366 110.89 152.996C110.83 156.355 110.39 159.745 109.42 163.085C109.39 163.195 109.36 163.305 109.32 163.415C109.13 164.065 108.931 164.705 108.731 165.325C107.481 169.145 106.011 172.415 104.471 175.215C104.111 175.865 103.751 176.485 103.392 177.085C102.242 178.965 101.072 180.605 99.9322 182.005C100.912 181.255 101.832 180.485 102.682 179.675C102.872 179.495 103.062 179.315 103.242 179.145C103.961 178.435 104.631 177.705 105.261 176.955C105.801 176.305 106.311 175.645 106.781 174.975C108.961 171.885 110.48 168.505 111.43 164.885C111.6 164.255 111.74 163.615 111.87 162.975C112.55 159.615 112.77 156.076 112.6 152.406H112.61Z" fill="#4552FF"/>
</g>
</g>
<path d="M85.7347 75.3377L76.9761 79.1977L85.7347 75.3477" fill="#A6AEFF"/>
<path d="M79.0055 82.8276C79.0055 83.1076 78.9855 83.3776 78.8955 83.6576C78.9755 83.3776 79.0055 83.1076 78.9955 82.8276" fill="#970083"/>
<path opacity="0.42" d="M85.7347 75.3477L76.9761 79.1977C76.9761 79.1977 78.9458 80.9477 79.0158 82.8277C79.0158 83.1077 78.9958 83.3777 78.9158 83.6577C79.4857 83.4577 79.8956 83.3377 80.2356 83.2877C80.8455 83.1877 81.2154 83.3277 81.7953 83.6677C82.8052 84.2577 82.7752 85.4577 85.1948 86.7277C85.2048 86.5577 85.2148 86.3877 85.2348 86.2177C85.2748 85.5977 85.3148 84.9877 85.3548 84.3977C85.5148 81.7677 85.6148 79.5377 85.6847 77.7877C85.6947 77.3777 85.7147 76.9877 85.7247 76.6277C85.7347 76.1477 85.7547 75.7177 85.7547 75.3377M93.0136 72.1377L92.3037 72.4477L92.9636 72.3477H92.9836C93.0036 72.2077 93.0036 72.1377 93.0036 72.1377" fill="#1F2EC4"/>
<path d="M85.2143 86.2177C85.2043 86.3877 85.1943 86.5577 85.1743 86.7277C85.2043 86.7377 85.2343 86.7577 85.2543 86.7677C87.8139 88.0777 89.5736 88.1377 91.0534 87.9077C91.5333 87.8377 91.9833 87.7277 92.4132 87.6277C92.6932 87.5577 92.9631 87.4977 93.2431 87.4377C93.1831 87.0277 93.1231 86.6277 93.0631 86.2477C93.0231 86.2577 92.9931 86.2677 92.9531 86.2777C92.3732 86.4577 91.7833 86.6077 91.1934 86.7077C90.8834 86.7577 90.5735 86.7877 90.2535 86.8077C88.5538 86.8877 86.8541 86.6177 85.2043 86.2277M85.6542 77.7877C85.5942 79.5377 85.4943 81.7677 85.3243 84.3977C85.5443 84.4477 85.7642 84.5077 85.9942 84.5477C87.6139 84.8977 89.3137 85.1677 90.9734 84.9177C90.9834 84.9177 90.9934 84.9177 91.0034 84.9177C91.6333 84.8177 92.2332 84.6377 92.8331 84.4577C92.8331 84.3877 92.8131 84.3177 92.8131 84.2577C92.5332 81.7877 92.4432 79.3077 92.5732 76.8277C92.5732 76.8177 92.5732 76.7977 92.5732 76.7877C92.3432 76.8777 92.1332 76.9577 91.9333 77.0277C91.0834 77.2977 90.2135 77.5077 89.3437 77.6477C88.7638 77.7377 88.1739 77.7977 87.5939 77.8277C86.944 77.8577 86.3041 77.8477 85.6542 77.8077M92.9631 72.3477L92.3032 72.4477L85.7342 75.3377C85.7342 75.7177 85.7142 76.1477 85.7042 76.6277C86.5341 76.6877 87.374 76.6777 88.2139 76.5977C88.5138 76.5677 88.8038 76.5377 89.0937 76.4877C90.2735 76.3077 91.4134 75.9777 92.5432 75.5677C92.5832 75.5577 92.6232 75.5377 92.6632 75.5277C92.7532 74.2577 92.8531 73.2077 92.9731 72.3477" fill="#747EFF"/>
<path d="M92.6532 75.5276C92.6532 75.5276 92.5732 75.5576 92.5332 75.5676C91.4034 75.9876 90.2636 76.3076 89.0838 76.4876C88.7938 76.5376 88.5039 76.5676 88.2039 76.5976C87.364 76.6776 86.5342 76.6876 85.6943 76.6276C85.6843 76.9876 85.6743 77.3676 85.6543 77.7876C86.2942 77.8276 86.9441 77.8376 87.594 77.8076C88.1839 77.7776 88.7638 77.7176 89.3437 77.6276C90.2236 77.4876 91.0835 77.2876 91.9333 77.0076C92.1333 76.9476 92.3433 76.8576 92.5732 76.7676C92.5932 76.3276 92.6232 75.9076 92.6432 75.5176" fill="#5863FF"/>
<path d="M85.3343 84.3977C85.2943 84.9877 85.2543 85.5877 85.2144 86.2177C86.8641 86.6177 88.5638 86.8777 90.2636 86.7977C90.5835 86.7877 90.8935 86.7477 91.2034 86.6977C91.8033 86.6077 92.3833 86.4577 92.9632 86.2677C93.0032 86.2577 93.0332 86.2477 93.0731 86.2377C92.9832 85.5977 92.9032 84.9977 92.8332 84.4477C92.2333 84.6277 91.6334 84.8077 91.0035 84.9077C90.9935 84.9077 90.9835 84.9077 90.9735 84.9077C89.3237 85.1577 87.614 84.8877 85.9942 84.5377C85.7743 84.4877 85.5543 84.4377 85.3243 84.3877" fill="#5863FF"/>
<path d="M92.8733 76.6674C92.7733 76.7074 92.6833 76.7474 92.5833 76.7874C92.5833 76.7974 92.5833 76.8174 92.5833 76.8274C92.4533 79.3074 92.5433 81.7974 92.8233 84.2574C92.8233 84.3274 92.8433 84.3974 92.8433 84.4574C92.8833 84.4474 92.9333 84.4274 92.9733 84.4174C93.1033 84.3774 93.2333 84.3374 93.3633 84.2974C93.0233 81.2074 92.9033 78.6374 92.8733 76.6674ZM92.9833 72.3474H92.9633C92.8433 73.2074 92.7333 74.2574 92.6533 75.5274C92.7233 75.4974 92.7933 75.4774 92.8633 75.4474C92.8733 73.8174 92.9533 72.7574 92.9833 72.3374" fill="#8089FF"/>
<path d="M93.5628 86.0776C93.4028 86.1276 93.2328 86.1876 93.0728 86.2376C93.1328 86.6176 93.1928 87.0176 93.2528 87.4276C93.4128 87.3976 93.5628 87.3676 93.7228 87.3476C93.7228 87.3476 93.7228 87.3476 93.7328 87.3476C93.6728 86.9176 93.6128 86.4976 93.5628 86.0776Z" fill="#8089FF"/>
<path d="M92.863 75.4478C92.793 75.4678 92.723 75.4978 92.653 75.5278C92.623 75.9278 92.603 76.3378 92.583 76.7778C92.673 76.7378 92.773 76.6978 92.873 76.6578C92.873 76.2278 92.873 75.8178 92.873 75.4478" fill="#6A75FF"/>
<path d="M93.353 84.2974C93.223 84.3374 93.093 84.3774 92.963 84.4174C92.923 84.4274 92.883 84.4474 92.833 84.4574C92.893 85.0074 92.973 85.6074 93.073 86.2474C93.233 86.1974 93.403 86.1374 93.563 86.0874C93.483 85.4774 93.413 84.8774 93.353 84.3074" fill="#6A75FF"/>
<path d="M86.0043 129.336C87.4243 129.746 91.3443 127.376 91.3443 127.376C91.3443 127.376 91.7943 126.226 89.8343 125.386C89.8343 125.386 89.6943 125.376 89.4643 125.386C88.5243 125.406 86.0743 125.726 85.5443 128.206C85.3943 128.886 85.5943 129.226 86.0043 129.336Z" fill="#293CFF"/>
<path d="M86.0043 129.336C87.6643 129.276 90.8843 127.326 90.8843 127.326C90.8843 127.326 91.3243 126.216 89.4743 125.386C89.1343 125.386 88.5843 125.436 88.0043 125.626C87.0043 125.936 85.8943 126.636 85.5543 128.206C85.4343 128.766 85.5543 129.096 85.8243 129.266C85.8843 129.296 85.9443 129.326 86.0143 129.346" fill="#4F5FFF"/>
<path d="M87.9944 125.626C86.9944 125.936 85.8844 126.636 85.5444 128.206C85.5444 128.256 85.5244 128.296 85.5244 128.336C85.9744 128.426 86.4144 128.526 86.8344 128.606C87.6644 128.046 88.6444 127.286 89.0644 126.636C89.1744 126.276 89.0244 125.966 88.5044 125.756C88.3344 125.696 88.1644 125.646 88.0044 125.616" fill="#7B87FF"/>
<path d="M91.1141 130.836C91.1141 130.836 91.0241 131.706 90.8541 133.046C90.5941 135.046 90.1441 138.066 89.5441 140.686C89.2441 141.996 88.9041 143.196 88.5341 144.096C88.3541 144.546 88.1641 144.926 87.9741 145.206C87.7841 145.486 87.6041 145.646 87.4741 145.696C87.2941 145.776 87.2041 145.996 87.2941 146.176C87.3741 146.356 87.5941 146.446 87.7741 146.356C88.2041 146.156 88.5041 145.756 88.7941 145.236C89.2941 144.326 89.7141 142.996 90.0941 141.486C91.2141 136.976 91.8341 130.906 91.8341 130.896C91.8541 130.696 91.7141 130.516 91.5141 130.496C91.3141 130.476 91.1341 130.616 91.1141 130.816V130.836Z" fill="#080000"/>
<path d="M131.046 49.9385C131.046 49.9385 130.166 50.6285 128.916 51.9985C124.407 56.9183 114.869 70.9079 121.478 95.4571C123.177 101.757 125.557 112.547 122.138 123.886C120.028 130.896 116.199 138.856 109.73 145.936C109.46 146.226 110 146.726 110.27 146.426C116.819 139.256 120.698 131.196 122.837 124.096C126.327 112.537 123.887 101.607 122.188 95.2671C115.659 70.9679 125.077 57.3083 129.456 52.4884C130.066 51.8185 130.586 51.3185 130.946 50.9885C131.126 50.8285 131.266 50.6985 131.366 50.6185C131.466 50.5385 131.506 50.4985 131.506 50.4985C131.666 50.3785 131.696 50.1485 131.566 49.9885C131.446 49.8285 131.216 49.7985 131.056 49.9285L131.046 49.9385Z" fill="#080000"/>
<path d="M117.439 16.2195C117.009 36.1189 128.017 48.0685 130.726 50.7184C130.176 51.3584 129.126 52.7083 129.256 53.0483C129.296 53.1683 129.356 53.2283 129.406 53.2583C129.586 53.3883 129.826 53.2583 129.796 53.7583C129.756 54.4083 130.286 54.5183 130.836 54.4183C130.996 54.3983 131.056 54.3283 131.066 54.2583C131.126 54.0783 130.926 53.8683 131.486 54.0883C132.276 54.3983 132.726 53.4383 132.726 53.4383L131.756 51.0084C132.536 50.5484 134.305 49.4284 136.515 47.6585C136.565 47.6185 136.615 47.5885 136.635 47.5685C142.434 42.9086 151.092 33.8389 152.802 20.3793C154.012 10.8496 149.783 1.78991 137.185 0.189964C125.247 -1.32999 117.648 6.62976 117.429 16.2295L117.439 16.2195Z" fill="#ECF4FF"/>
<path d="M129.397 22.9197L129.057 15.1797L121.468 13.6497L129.197 13.3097L130.726 5.71973L131.066 13.4597L138.655 14.9797L130.926 15.3297L129.397 22.9197Z" fill="#FFF44A"/>
<path d="M140.564 33.8089L141.474 29.2989L137.315 27.3389L141.824 28.2489L143.784 24.0889L142.874 28.5989L147.033 30.5589L142.524 29.6489L140.564 33.8089Z" fill="#FFF44A"/>
<path d="M128.987 37.529L127.447 34.539L124.167 35.319L127.157 33.769L126.377 30.499L127.927 33.489L131.196 32.709L128.207 34.249L128.987 37.529Z" fill="#FFF44A"/>
<g style="mix-blend-mode:screen" opacity="0.6">
<path d="M124.277 15.3796C119.938 27.9493 130.066 48.1886 130.066 48.1886C130.066 48.1886 121.228 37.709 118.659 23.7394C116.009 9.33983 125.097 2.24005 128.017 3.48001C132.226 5.27995 125.397 12.1297 124.277 15.3696V15.3796Z" fill="#70B8FF"/>
</g>
<g style="mix-blend-mode:multiply">
<path d="M144.623 18.3995C147.483 30.0292 136.355 46.7387 136.355 46.7387C136.355 46.7387 149.623 37.7989 151.632 21.9694C152.752 13.1597 147.893 3.78998 143.694 5.24993C140.664 6.2999 143.534 13.9797 144.613 18.3995H144.623Z" fill="#E8F2FF"/>
</g>
<g style="mix-blend-mode:multiply">
<path d="M131.176 52.8587C131.086 53.2187 131.076 53.9087 131.076 54.2587C131.136 54.0787 130.936 53.8687 131.496 54.0887C132.286 54.3987 132.736 53.4387 132.736 53.4387L131.766 51.0087C132.546 50.5487 134.316 49.4287 136.526 47.6587C135.696 48.2187 132.306 50.4987 131.446 50.7487C131.126 50.8487 131.316 52.3487 131.176 52.8587Z" fill="#E8F2FF"/>
</g>
<g style="mix-blend-mode:multiply">
<path d="M129.417 53.2586C129.597 53.3886 129.837 53.2586 129.807 53.7586L130.697 51.3086L129.417 53.2586Z" fill="#E8F2FF"/>
</g>
<path d="M132.426 50.6085C132.426 50.6085 132.466 50.8985 132.356 51.0085C132.006 51.3485 130.806 51.3985 130.406 50.8985C130.316 50.7885 130.386 50.5785 130.536 50.4985C130.536 50.4985 131.496 50.9285 132.426 50.6085Z" fill="#080000"/>
<path d="M69.9373 69.8081C69.9373 69.8081 64.1182 75.4381 63.9682 79.5381C63.8083 83.6381 77.0462 75.7781 77.0462 75.7781L69.9473 69.8081H69.9373Z" fill="#E80083"/>
<path d="M66.8884 42.0886C66.8884 42.0886 59.3795 39.0686 55.5701 40.5986C51.7607 42.1286 64.3288 51.0086 64.3288 51.0086L66.8884 42.0886Z" fill="#FF0090"/>
<path d="M67.5681 59.8081C67.5681 59.8081 59.5494 60.9381 57.0098 64.1581C54.4702 67.3781 69.7878 68.8181 69.7878 68.8181L67.5581 59.8081H67.5681Z" fill="#E80083"/>
<path d="M82.475 33.9896C84.0048 35.3896 80.8653 30.2696 82.765 26.5596C88.3441 15.6396 94.2732 17.6096 92.7434 16.2196C91.2137 14.8196 85.2646 14.4696 76.9959 23.5296C68.7271 32.5896 80.9452 32.5996 82.475 33.9996V33.9896Z" fill="#FF0090"/>
<path d="M80.8154 35.1095C82.8751 35.3295 77.316 33.0695 76.6361 28.9595C74.6464 16.8495 80.5955 14.9295 78.5358 14.7095C76.4761 14.4895 71.4769 17.7395 70.197 29.9395C68.9072 42.1395 78.7557 34.8995 80.8154 35.1095Z" fill="#FF0090"/>
<path d="M78.1959 37.1397C80.1556 36.4797 74.1666 36.7397 71.8469 33.2697C65.018 23.0797 69.6373 18.8597 67.6676 19.5197C65.7079 20.1797 62.4984 25.1997 66.3878 36.8297C70.2772 48.4697 76.2362 37.7897 78.1959 37.1397Z" fill="#FF0090"/>
<path d="M75.5669 38.719C77.1866 37.429 72.2274 38.739 69.1679 36.679C60.1892 30.649 62.009 27.589 60.3992 28.879C58.7795 30.169 58.0196 34.539 64.6986 42.899C71.3775 51.259 73.9471 39.999 75.5669 38.709V38.719Z" fill="#FF0090"/>
<path d="M89.8238 37.5193C91.7035 38.3793 86.9842 34.8493 87.2442 31.6293C88.004 22.1793 93.9831 22.8193 92.1034 21.9593C90.2237 21.0993 84.8345 21.7393 80.9951 30.1393C77.1557 38.5393 87.944 36.6593 89.8238 37.5193Z" fill="#FF0090"/>
<path d="M40.5425 48.6485C40.5425 48.7185 40.7325 48.2985 41.1324 48.1685C43.0321 47.5585 48.7112 46.5585 51.3208 46.5485C56.49 46.5185 60.8294 50.9085 62.3791 52.5685C62.8791 53.0985 62.1592 55.3585 61.8292 56.4285C61.9292 56.3585 62.0392 56.2885 62.1392 56.2085C62.2292 56.1485 62.3191 56.0885 62.3991 56.0285C63.8389 54.9785 63.8289 53.6585 63.409 52.1385C63.039 50.7885 63.429 45.6785 63.459 45.3885C63.369 45.4785 61.3493 47.7085 59.0396 46.4685C55.7602 44.7085 53.3705 44.1185 50.7409 44.2585C46.4816 44.4985 43.0221 46.6585 41.1424 47.8585L41.0724 47.9085C40.8024 48.0885 40.6225 48.3485 40.5425 48.6485Z" fill="#6B78FF"/>
<path d="M124.607 53.408C123.827 65.2476 115.199 75.4573 102.171 80.2771C85.1143 86.5969 66.7276 79.3872 61.0987 64.1876C57.9193 55.6079 63.7682 42.4783 67.4775 38.4584C71.1868 34.4486 73.2064 32.2586 77.2557 30.4787C79.5253 29.4787 85.5242 27.7188 90.7232 30.2787C92.9428 31.3686 92.6629 30.1487 96.3622 27.2588C102.011 22.8389 112.389 25.6688 115.099 32.7186C116.369 36.0285 117.218 39.6584 117.248 42.7683C117.548 44.0983 117.898 45.3082 118.418 46.2882C120.198 49.6881 124.847 49.7281 124.607 53.398V53.408Z" fill="#6B78FF"/>
<path d="M80.1254 32.839C77.9857 33.139 76.016 34.139 74.5662 35.779C73.2664 37.249 71.8667 39.679 72.2366 41.539C72.3166 41.959 72.9965 41.639 73.1965 40.919C73.5264 39.679 74.8562 37.589 76.406 37.049C77.8257 36.549 79.4555 36.169 80.9153 35.949C84.0248 35.479 81.7252 32.629 80.1354 32.849L80.1254 32.839Z" fill="#1C30FF"/>
<path d="M101.401 28.089C103.261 27.199 105.331 26.999 107.31 27.609C109.08 28.159 111.4 29.469 112.02 31.239C112.16 31.639 111.46 31.729 110.95 31.219C110.07 30.349 107.98 29.289 106.471 29.659C105.091 29.999 103.591 30.539 102.321 31.139C99.6017 32.399 100.032 28.759 101.411 28.099L101.401 28.089Z" fill="#1C30FF"/>
<path d="M41.0525 55.4984C42.0824 56.0284 43.6221 56.7584 45.3619 57.3884C45.1219 57.8984 44.9219 58.3484 44.752 58.7384C44.472 59.3784 44.9019 59.9984 45.5218 60.2484C46.7216 60.7484 49.0313 61.8284 50.821 60.5184C53.8206 58.3384 51.4909 60.8784 51.7809 61.8684C52.1608 63.1284 55.2403 62.7784 56.4802 60.7484C57.2 59.5584 57.65 58.2084 61.8093 56.4284C62.1293 55.3684 62.8492 53.1084 62.3593 52.5684C60.8095 50.9084 56.4802 46.5284 51.301 46.5484C48.6914 46.5484 43.0122 47.5584 41.1125 48.1684C40.7226 48.2984 40.5326 48.7084 40.5226 48.6484C40.4126 49.0884 40.5226 49.5884 40.8725 49.9384C41.3025 50.3784 41.8524 50.8984 42.4923 51.4684C41.7424 52.2884 41.1125 53.0184 40.6526 53.5784C40.1527 54.1784 40.3426 55.1384 41.0325 55.4884L41.0525 55.4984Z" fill="#828DFF"/>
<path d="M100.422 43.9492C101.441 48.4292 103.091 50.4692 109.62 48.9892C116.149 47.5092 116.759 44.9492 115.739 40.4692C114.719 35.9892 110.02 31.1692 105.791 32.1292C101.561 33.0892 99.4017 39.4692 100.422 43.9492Z" fill="#3647FF"/>
<path d="M100.572 43.949C101.532 48.189 103.091 50.119 109.27 48.719C115.439 47.319 116.019 44.899 115.06 40.669C114.1 36.429 109.66 31.879 105.651 32.779C101.652 33.689 99.6119 39.719 100.572 43.949Z" fill="white"/>
<path d="M111.04 45.4798C112.68 42.8774 111.9 39.4382 109.298 37.7983C106.695 36.1583 103.256 36.9385 101.616 39.5409C99.976 42.1433 100.756 45.5824 103.358 47.2224C105.96 48.8623 109.4 48.0822 111.04 45.4798Z" fill="#E80083"/>
<path d="M101.781 43.589C102.371 46.099 104.891 47.659 107.401 47.069C109.91 46.479 111.47 43.959 110.88 41.449C110.29 38.939 107.771 37.379 105.261 37.969C102.751 38.559 101.192 41.079 101.781 43.589Z" fill="#00074D"/>
<path d="M107.891 40.1682C107.601 40.0782 107.201 40.5282 107.001 41.1782C106.801 41.8282 106.871 42.4182 107.161 42.5082C107.451 42.5982 107.851 42.1482 108.051 41.4982C108.251 40.8482 108.181 40.2582 107.891 40.1682Z" fill="white"/>
<path d="M108.38 38.6184C108.09 38.5284 107.79 38.6584 107.71 38.9084C107.63 39.1584 107.81 39.4284 108.1 39.5184C108.39 39.6084 108.69 39.4784 108.77 39.2284C108.85 38.9784 108.67 38.7084 108.38 38.6184Z" fill="white"/>
<path d="M92.1236 45.5789C94.5332 50.5989 94.5132 53.7889 87.1943 57.3089C79.8754 60.8289 77.3758 58.8589 74.9562 53.8389C72.5466 48.8189 73.3664 40.6988 78.1057 38.4188C82.845 36.1388 89.7039 40.5589 92.1236 45.5789Z" fill="#3647FF"/>
<path d="M91.9838 45.689C94.2635 50.439 94.2435 53.449 87.3245 56.779C80.4056 60.109 78.036 58.249 75.7563 53.499C73.4767 48.749 74.2565 41.069 78.7358 38.919C83.2152 36.759 89.7042 40.949 91.9838 45.689Z" fill="white"/>
<path d="M89.3299 50.6998C89.5038 46.9704 86.622 43.8062 82.8932 43.6323C79.1643 43.4584 76.0005 46.3407 75.8266 50.0701C75.6527 53.7995 78.5345 56.9637 82.2633 57.1376C85.9922 57.3115 89.156 54.4292 89.3299 50.6998Z" fill="#E80083"/>
<path d="M82.5851 56.0982C85.7382 56.0982 88.2942 53.5418 88.2942 50.3882C88.2942 47.2347 85.7382 44.6782 82.5851 44.6782C79.432 44.6782 76.876 47.2347 76.876 50.3882C76.876 53.5418 79.432 56.0982 82.5851 56.0982Z" fill="#00074D"/>
<path d="M83.9846 46.9083C84.2846 46.8883 84.5546 47.4083 84.5946 48.0583C84.6346 48.7183 84.4346 49.2583 84.1346 49.2783C83.8346 49.2983 83.5646 48.7783 83.5246 48.1283C83.4846 47.4683 83.6846 46.9283 83.9846 46.9083Z" fill="white"/>
<path d="M83.885 45.3286C84.185 45.3086 84.435 45.4986 84.455 45.7486C84.475 45.9986 84.245 46.2186 83.955 46.2386C83.655 46.2586 83.405 46.0686 83.385 45.8186C83.365 45.5686 83.595 45.3486 83.885 45.3286Z" fill="white"/>
<path d="M126.757 54.3282C125.977 47.9184 109.43 44.1485 99.9015 47.7584C91.5131 50.9483 81.6349 60.768 77.6356 62.238C73.1364 63.8979 83.0246 84.1873 98.5818 84.4273C102.591 84.4873 109.31 83.1673 117.158 75.8776C126.997 66.7478 127.526 60.748 126.757 54.3282Z" fill="#6B78FF"/>
<mask id="mask4_20_7892" style="mask-type:luminance" maskUnits="userSpaceOnUse" x="76" y="46" width="51" height="39">
<path d="M126.757 54.3282C125.977 47.9184 109.43 44.1485 99.9015 47.7584C91.5131 50.9483 81.6349 60.768 77.6356 62.238C73.1364 63.8979 83.0246 84.1873 98.5818 84.4273C102.591 84.4873 109.31 83.1673 117.158 75.8776C126.997 66.7478 127.526 60.748 126.757 54.3282Z" fill="white"/>
</mask>
<g mask="url(#mask4_20_7892)">
<path d="M88.9936 53.1483C88.9736 49.7884 93.7927 48.3385 96.2523 47.2185C99.6217 45.6885 103.121 44.4786 106.76 43.7686C109.09 43.3186 119.938 42.4686 122.857 45.3986C124.807 45.4886 125.707 48.5285 123.517 49.1684C122.168 49.5684 120.908 50.8784 119.878 51.7984C118.688 52.8583 116.779 54.1383 115.259 54.5683C111.969 55.4882 109.55 55.2482 106.16 55.1682C102.551 55.0883 99.1318 55.1682 95.5824 55.8482C93.1129 56.3182 88.9936 56.8682 88.9736 53.1583L88.9936 53.1483Z" fill="#828DFF"/>
<path d="M105.291 59.3381C105.271 58.9981 105.541 57.9281 106.691 57.6081C107.831 57.2881 108.401 57.8981 108.901 58.4281C109.191 58.7381 108.241 59.0081 107.811 58.9281H107.771C107.771 58.9281 107.691 58.9281 107.651 58.9281C107.511 58.9681 107.651 59.7082 107.601 59.8982C107.561 60.0882 107.161 60.7181 106.311 60.6581C105.281 60.5881 105.301 59.5481 105.291 59.3381Z" fill="#99A2FF"/>
<path d="M117.578 54.9388C117.688 54.4188 118.138 53.9888 118.568 53.8188C118.998 53.6388 119.428 53.5388 119.818 53.6288C120.068 53.6888 120.688 53.7488 121.038 54.4288C121.208 54.7588 121.398 55.2288 121.108 55.4588C119.728 56.5888 118.288 55.8788 118.108 55.8188C117.748 55.7088 117.488 55.3288 117.568 54.9388H117.578Z" fill="#99A2FF"/>
<path d="M75.5661 61.638C77.0759 61.618 78.4656 60.708 79.7054 59.9281C81.0451 59.0881 82.3149 58.1481 83.5647 57.1881C85.9742 55.3282 88.3238 53.3983 90.9233 51.7883C95.8424 48.7284 101.361 46.5885 107.11 45.8185C110.31 45.3885 113.579 45.4185 116.769 45.9285C117.768 46.0885 117.498 47.6384 116.499 47.4784C110.89 46.5785 105.151 47.3084 99.8217 49.2084C97.1422 50.1684 94.5626 51.3983 92.1331 52.8883C89.5436 54.4782 87.184 56.3882 84.7844 58.2481C83.4147 59.3081 82.0349 60.338 80.5652 61.258C79.1155 62.168 77.4858 63.188 75.7161 63.208C74.7163 63.218 74.5663 61.658 75.5861 61.638H75.5661Z" fill="#1C30FF"/>
<path d="M96.0626 81.6177C99.1721 82.2577 102.182 80.8577 102.302 80.9977C102.442 81.1577 99.3421 82.9477 95.8126 82.3577C92.8531 81.8677 90.7034 79.2677 90.8634 79.1277C90.9933 79.0077 93.153 81.0177 96.0626 81.6177Z" fill="#1C30FF"/>
<path d="M119.568 48.9687C119.958 48.9887 119.838 49.8687 118.588 51.2987C117.339 52.7287 115.699 53.7787 112.249 53.6787C111.819 53.6687 106.61 53.4887 106.98 52.5787C107.17 52.0987 111.6 51.5987 114.659 50.7487C117.469 49.9687 118.328 48.9087 119.558 48.9587L119.568 48.9687Z" fill="#919BFF"/>
</g>
<path d="M89.0336 74.9978C89.6735 75.6678 90.2634 76.2678 90.8233 76.7978C93.4329 78.8778 95.1527 80.1778 98.4122 80.1778C98.6821 80.1778 98.9521 80.1678 99.2421 80.1478C102.951 79.9078 105.701 77.2778 107.471 75.9178C108.041 75.4778 107.681 74.5778 106.951 74.6278H106.921C106.381 74.6378 102.891 75.2978 98.5722 75.2878C97.8523 75.2878 97.1124 75.2678 96.3625 75.2178C94.1328 75.0878 91.7932 74.7478 89.6035 74.0278C89.5135 73.9978 89.4236 73.9878 89.3536 73.9878C89.1436 73.9878 88.9636 74.0878 88.8336 74.2378L88.8036 74.2778L88.7537 74.3778C88.6637 74.6278 88.7537 74.6978 89.0436 74.9978H89.0336Z" fill="#00074D"/>
<path d="M96.3525 75.2275C96.3825 75.4075 96.4525 75.8075 96.6525 76.1275C96.8125 76.3875 97.0625 76.6775 97.2425 76.8675C97.3525 76.9875 97.5425 76.9875 97.6625 76.8675C97.8325 76.6875 98.0725 76.4275 98.2525 76.1675C98.4525 75.8575 98.5425 75.4875 98.5725 75.2875C97.8525 75.2875 97.1125 75.2675 96.3625 75.2275H96.3525Z" fill="white"/>
<path d="M101.071 75.2978C101.131 75.4778 101.271 75.8478 101.511 76.1378C101.711 76.3678 102.011 76.6078 102.211 76.7678C102.341 76.8678 102.531 76.8378 102.631 76.6978C102.771 76.4978 102.961 76.1978 103.091 75.9078C103.241 75.5678 103.261 75.1878 103.261 74.9878C102.551 75.1078 101.821 75.2178 101.071 75.2978Z" fill="white"/>
<path d="M88.9735 75.0477C92.043 78.0177 94.1127 80.6677 98.8419 80.4477C102.221 80.4977 104.981 78.2377 107.341 76.1077C107.491 75.9777 107.701 75.8277 107.751 75.5977C107.891 75.1577 107.561 74.6577 107.111 74.6177C102.051 74.9877 96.9122 75.1177 91.873 74.3677C91.1431 74.2477 90.4132 74.1077 89.7033 73.9077C89.4734 73.8377 89.2034 73.8177 88.9735 73.9577C88.7835 74.0677 88.6435 74.2577 88.6135 74.4677C88.5635 74.7277 88.8335 74.9077 88.9835 75.0577L88.9735 75.0477ZM89.0834 74.9477C88.9735 74.7977 88.7835 74.6877 88.8135 74.4977C88.8635 74.2877 89.0634 74.1277 89.3334 74.1477C89.5534 74.1577 90.2433 74.4577 90.5132 74.5377C93.3828 75.5177 96.4423 75.7977 99.4619 75.6577C101.592 75.5477 103.741 75.2077 105.841 74.8277C106.181 74.7777 106.761 74.6177 107.101 74.6477C107.531 74.6877 107.821 75.1877 107.661 75.5677C107.591 75.7677 107.421 75.8677 107.241 75.9977C105.061 77.6477 102.761 79.2577 100.042 79.7477C95.2025 80.5477 92.163 78.4377 89.0734 74.9377L89.0834 74.9477Z" fill="#1C30FF"/>
<path d="M110.101 60.2281C110.421 60.2981 110.651 59.9181 110.431 59.6681C109.671 58.8081 108.361 57.6981 107.211 58.4581C105.461 59.6181 106.291 60.4681 107.041 60.2481C107.671 60.0681 108.511 59.8681 110.101 60.2281Z" fill="#00074D"/>
<path d="M118.098 57.5784C117.918 57.8384 117.528 57.6884 117.518 57.3584C117.508 56.2184 117.708 54.5484 118.968 54.4184C120.888 54.2184 120.858 55.3884 120.208 55.6884C119.658 55.9484 118.958 56.3084 118.098 57.5784Z" fill="#00074D"/>
<path d="M106.081 57.3279C104.301 57.3179 103.521 59.4079 104.631 60.6479C104.961 61.0279 105.441 61.2879 105.931 61.2779C104.261 60.3879 104.161 58.0579 106.081 57.3179V57.3279Z" fill="#1C30FF"/>
<path d="M119.168 53.3087C120.488 52.2687 122.268 53.4287 122.158 55.0287C122.128 55.5087 121.928 55.9887 121.558 56.2587C122.288 54.6087 121.018 52.7587 119.168 53.3087Z" fill="#1C30FF"/>
<path d="M82.2551 65.4583C83.9848 66.4883 84.4647 64.8983 86.4944 62.5683C88.4041 60.3783 90.0239 59.6183 89.6939 58.8883C89.124 57.6083 87.1843 58.4583 84.8847 60.2283C82.575 61.9983 81.0553 64.7383 82.2551 65.4483V65.4583Z" fill="#828DFF"/>
<path d="M51.3811 49.1688C49.9313 49.3788 45.662 49.9188 43.6623 50.8188C41.7126 51.6888 40.4628 53.5588 40.5928 53.6988C40.8227 53.9388 42.6324 50.4388 50.3313 49.9988C52.9309 49.8488 57.8801 50.1388 59.8598 50.3988C60.2697 50.4488 60.5297 50.8288 60.5297 50.7688C60.5097 50.4788 60.4197 50.3488 60.0398 50.1888C58.2301 49.4088 53.6907 48.8388 51.3811 49.1688Z" fill="#6E7BFF"/>
<path d="M53.5504 53.0485C52.2406 53.4185 48.5112 54.5985 46.8914 55.8485C45.3116 57.0785 44.5418 59.0985 44.6917 59.1985C44.9417 59.3785 44.8317 55.9685 52.7405 53.7085C55.0602 53.0485 59.5795 52.3085 61.4092 52.1485C61.7891 52.1185 62.1791 52.3285 62.1691 52.2685C62.0891 51.9985 62.0691 51.9985 61.6991 51.9285C60.4293 51.7185 55.4801 52.4885 53.5604 53.0385L53.5504 53.0485Z" fill="#6E7BFF"/>
<path d="M40.5426 48.6486C40.5426 48.7186 40.7325 48.2986 41.1325 48.1686C43.0322 47.5586 48.7113 46.5586 51.3209 46.5486C56.4901 46.5186 60.8395 50.8886 62.3792 52.5686C62.7492 52.9686 62.2793 54.8586 61.9593 55.9186C61.8593 56.2386 61.7893 56.4586 61.8093 56.4686C61.8893 56.5486 62.0693 56.2086 62.2693 55.6986C62.6392 54.7686 62.9591 53.7786 63.0391 53.1486C63.1691 52.1686 58.6898 48.1186 57.39 47.4186C54.5604 45.8986 51.6209 45.5086 50.1611 45.7186C47.9414 46.0386 43.0022 46.8286 41.1525 47.8486C41.0725 47.8986 40.9925 47.9386 40.9225 47.9886C40.5826 48.2086 40.5126 48.3586 40.5526 48.6386L40.5426 48.6486Z" fill="#1C30FF"/>
<path d="M88.4038 74.1682C90.5335 73.2082 90.9734 71.2282 91.1434 71.2482C91.3434 71.2682 91.1834 73.4882 88.8738 74.6582C86.9341 75.6382 83.7146 75.1882 83.6746 75.0482C83.6446 74.9282 86.4041 75.0682 88.3938 74.1682H88.4038Z" fill="#1C30FF"/>
<path d="M89.8639 16.6396C89.8639 16.6396 86.6944 17.0196 83.8748 18.8196C81.2452 20.4996 79.0556 23.5596 78.5856 25.4996C77.8557 28.4696 79.3755 28.8196 80.0754 28.4396C81.9651 27.4196 80.7853 22.4996 85.5246 19.4496C88.6741 17.4196 92.3435 16.4196 89.8739 16.6496L89.8639 16.6396Z" fill="#FF87CB"/>
<path d="M74.4069 19.0497C73.7869 19.1497 72.8969 21.8797 72.5369 25.0597C72.1569 28.4097 72.4769 29.3697 73.7369 29.1097C75.3769 28.7797 74.6169 27.5297 74.3269 24.9897C74.0769 22.8497 75.0269 18.9497 74.4069 19.0497Z" fill="#FF87CB"/>
<path d="M70.557 138.976C75.1461 140.506 88.0038 142.875 91.943 138.626C95.8823 134.376 93.4328 129.856 91.3631 128.776C89.3035 127.686 77.7157 129.746 75.766 126.406C74.1863 123.696 75.846 118.716 77.0458 113.526C77.7656 110.416 78.7655 107.777 78.4055 105.627C77.3657 99.4868 70.247 99.7568 68.1074 103.067C67.5375 103.957 66.9976 105.077 66.5277 106.367C64.768 111.096 63.7482 118.126 64.1781 124.446C64.778 133.286 65.9578 137.426 70.547 138.966" fill="#4F5FFF"/>
<path d="M69.1175 137.276C73.2968 139.736 83.8148 141.216 85.8245 139.706C91.6034 135.336 88.7139 131.296 86.8543 129.896C84.9946 128.496 75.6263 130.146 74.5365 126.426C72.9968 121.166 76.6861 113.367 78.0059 107.667C78.3858 106.007 78.0359 104.397 77.526 103.067C76.0962 99.3571 73.6467 94.1572 68.1177 103.087C67.5578 103.987 67.0079 105.097 66.538 106.387C65.2982 110.387 64.6783 115.437 64.6284 120.406C64.5484 128.556 66.498 135.746 69.1175 137.286" fill="#6B78FF"/>
<path d="M67.5778 103.867C65.6581 107.697 64.3583 114.117 64.7783 116.577C64.8582 117.017 65.6281 109.557 67.9378 104.337C70.7873 97.907 73.3869 98.377 73.3869 98.377C73.3869 98.377 71.0173 97.017 67.5778 103.867Z" fill="#B3B9FF"/>
<path d="M67.7478 132.366C67.7478 132.366 67.6878 132.376 67.6678 132.396C66.328 133.216 69.2675 137.656 81.4857 138.716C82.4255 138.796 83.2154 138.786 83.8653 138.676C85.685 138.396 86.4149 137.446 86.2449 136.096C86.005 134.266 79.286 134.756 75.2266 134.596C72.407 134.486 68.5576 132.236 67.7478 132.356" fill="#7884FF"/>
<path d="M40.1826 84.9775C40.1826 84.9775 40.8425 89.5074 44.0919 94.9172C47.3413 100.327 53.1902 106.647 63.5383 110.257C67.4076 111.607 73.3265 113.737 78.6755 116.707C84.0246 119.676 88.7837 123.506 90.4034 128.166C90.4734 128.356 90.6733 128.456 90.8633 128.386C91.0533 128.316 91.1532 128.116 91.0833 127.926C89.3436 122.976 84.4345 119.086 79.0255 116.077C73.6065 113.067 67.6576 110.927 63.7783 109.567C53.6102 106.017 47.9012 99.8371 44.7218 94.5472C43.1321 91.8973 42.1823 89.4774 41.6224 87.7174C41.3424 86.8375 41.1624 86.1275 41.0525 85.6275C41.0025 85.3775 40.9625 85.1875 40.9425 85.0675C40.9225 84.9375 40.9125 84.8775 40.9125 84.8775C40.8825 84.6775 40.7025 84.5375 40.5026 84.5675C40.3026 84.5975 40.1626 84.7775 40.1926 84.9775H40.1826Z" fill="#080000"/>
<path d="M53.7803 53.6984L53.8103 53.7984C53.8903 54.0684 53.9603 54.3484 54.0202 54.6284C54.0502 54.7584 54.0702 54.8683 54.1002 54.9983C54.1502 55.2683 54.2002 55.5283 54.2402 55.7983C54.7201 58.9082 54.4002 62.1981 53.5803 65.408C53.5703 65.468 53.5603 65.518 53.5403 65.578C52.4605 69.7479 50.5409 73.7878 48.4013 77.1177C48.2413 77.3677 48.0813 77.6176 47.9114 77.8576C47.8914 77.8776 47.8814 77.8976 47.8614 77.9376C47.6814 78.1876 47.5114 78.4476 47.3415 78.6976C47.1015 79.0376 46.8516 79.3776 46.6116 79.7076C44.692 82.2275 42.7623 84.1074 41.2226 84.9674C40.8627 85.1574 40.5427 85.2974 40.2328 85.3874C40.1328 85.4174 40.0328 85.4474 39.9228 85.4674C34.9338 86.6374 26.2554 83.2375 19.7865 77.2277C19.6966 77.1477 19.6066 77.0677 19.5166 76.9777C17.6269 75.1777 15.9273 73.1578 14.5875 70.9479C13.9376 69.8879 13.3677 68.7779 12.9078 67.638C12.8578 67.508 12.7978 67.388 12.7478 67.258C12.5279 66.658 12.3179 66.048 12.1479 65.438C8.49862 52.4884 14.8774 39.3688 26.3653 36.1289C37.8532 32.889 50.151 40.7588 53.8003 53.7084L53.7803 53.6984Z" fill="#080050"/>
<path d="M42.6926 87.2774C42.3726 87.4774 42.0426 88.0274 41.5926 88.1674C40.8126 88.3974 39.9326 88.1374 39.9326 88.1374C39.7726 87.4074 39.8326 86.2374 39.9126 85.4674C39.9526 84.9774 40.0026 84.6274 40.0026 84.6274C40.0026 84.6274 40.0826 83.3174 40.7626 84.4174C40.8726 84.5974 41.0326 84.7874 41.2026 84.9674C42.0626 85.8974 43.3926 86.8374 42.6926 87.2774Z" fill="#080050"/>
<path d="M16.168 67.7481L14.648 67.6981L14.128 69.1281L13.708 67.6681L12.888 67.6381C12.838 67.5081 12.778 67.3881 12.728 67.2581L13.458 66.7681L13.038 65.3081L14.228 66.2381L15.488 65.3981L14.968 66.8281L16.168 67.7581V67.7481Z" fill="#9BDFFF"/>
<path d="M26.1955 61.6479L27.1555 62.8179L28.5655 62.2679L27.7555 63.5379L28.7155 64.7079L27.2455 64.3279L26.4355 65.6079L26.3455 64.0979L24.8755 63.7179L26.2855 63.1579L26.1955 61.6479Z" fill="#9BDFFF"/>
<path d="M42.7728 57.0278L42.7228 58.5478L44.1428 59.0678L42.6828 59.4778L42.6328 60.9978L41.7828 59.7378L40.3228 60.1578L41.2628 58.9578L40.4128 57.7078L41.8428 58.2278L42.7728 57.0278Z" fill="#9BDFFF"/>
<path d="M53.2603 56.0783L54.1003 55.0083C54.1503 55.2783 54.2003 55.5383 54.2403 55.8083L53.2703 56.0783H53.2603Z" fill="#9BDFFF"/>
<path d="M53.8106 53.7984C53.8906 54.0684 53.9606 54.3484 54.0206 54.6284L53.3506 53.6284L53.8206 53.7984H53.8106Z" fill="#9BDFFF"/>
<path d="M53.5712 65.408C53.5612 65.468 53.5512 65.518 53.5312 65.578L52.3612 65.908L52.3112 67.428L51.4712 66.168L50.0112 66.578L50.9512 65.388L50.1112 64.128L51.5312 64.648L52.4712 63.458L52.4112 64.968L53.5812 65.408H53.5712Z" fill="#9BDFFF"/>
<path d="M37.8538 68.958L37.8038 70.468L39.2238 70.998L37.7638 71.408L37.7138 72.918L36.8638 71.668L35.4038 72.078L36.3438 70.888L35.4938 69.628L36.9238 70.148L37.8538 68.958Z" fill="#9BDFFF"/>
<path d="M34.0442 78.9976L33.9842 80.5076L35.4042 81.0276L33.9542 81.4476L33.8942 82.9576L33.0442 81.6976L31.5942 82.1176L32.5242 80.9276L31.6842 79.6676L33.1042 80.1876L34.0442 78.9976Z" fill="#9BDFFF"/>
<path d="M47.8917 76.9475L48.3917 77.1275C48.2317 77.3775 48.0717 77.6275 47.9017 77.8675H47.8517V77.9475C47.6717 78.1975 47.5017 78.4575 47.3317 78.7075L46.9517 78.1375L45.4917 78.5575L46.4317 77.3575L45.5917 76.0975L47.0217 76.6175L47.9517 75.4175L47.9017 76.9375L47.8917 76.9475Z" fill="#9BDFFF"/>
<path d="M22.9866 76.3076L21.5266 76.7176L21.4766 78.2376L20.6366 76.9776L19.7766 77.2176C19.6866 77.1376 19.5966 77.0576 19.5066 76.9676L20.1066 76.1976L19.2666 74.9376L20.6866 75.4576L21.6266 74.2676L21.5666 75.7776L22.9866 76.3076Z" fill="#9BDFFF"/>
<path d="M46.3421 46.7783L46.2821 48.2883L47.7021 48.8183L46.2521 49.2283L46.1921 50.7483L45.3521 49.4883L43.8921 49.8983L44.8221 48.7083L43.9821 47.4483L45.4021 47.9683L46.3421 46.7783Z" fill="#9BDFFF"/>
<path d="M17.4673 52.5684L17.4173 54.0884L18.8373 54.6084L17.3773 55.0184L17.3273 56.5384L16.4773 55.2784L15.0273 55.6884L15.9573 54.4984L15.1173 53.2384L16.5373 53.7584L17.4673 52.5684Z" fill="#9BDFFF"/>
<path d="M36.9437 37.8789L36.8837 39.3889L38.3037 39.9089L36.8537 40.3289L36.7937 41.8389L35.9537 40.5889L34.4937 40.9989L35.4237 39.8089L34.5837 38.5489L36.0037 39.0689L36.9437 37.8789Z" fill="#9BDFFF"/>
<path d="M31.6148 48.9585L31.5648 50.4785L32.9848 50.9985L31.5248 51.4085L31.4748 52.9285L30.6248 51.6685L29.1748 52.0785L30.1048 50.8885L29.2648 49.6285L30.6848 50.1585L31.6148 48.9585Z" fill="#9BDFFF"/>
<path d="M24.1761 39.3291L24.1261 40.8491L25.5461 41.3691L24.0861 41.7791L24.0361 43.2991L23.1861 42.0391L21.7261 42.4491L22.6661 41.2591L21.8161 39.9991L23.2461 40.5291L24.1761 39.3291Z" fill="#9BDFFF"/>
<g style="mix-blend-mode:soft-light" opacity="0.39">
<path d="M21.7362 45.0489C23.5259 50.9489 36.7839 49.2889 43.0929 52.9089C49.402 56.5289 49.7319 65.9889 51.8216 64.9789C56.2409 62.8389 50.2318 42.8289 42.0831 39.1589C30.1149 33.7689 19.9365 39.1589 21.7262 45.0589L21.7362 45.0489Z" fill="#9BDFFF"/>
</g>
<g style="mix-blend-mode:multiply">
<path d="M41.2133 84.9678C42.0732 85.8978 43.403 86.8378 42.7031 87.2778C42.3831 87.4778 42.0532 88.0278 41.6033 88.1678C40.8234 88.3978 39.9435 88.1378 39.9435 88.1378C39.7835 87.4078 39.8435 86.2378 39.9235 85.4678C34.9343 86.6278 26.2556 83.2378 19.7866 77.2278C19.6966 77.1478 19.6066 77.0678 19.5166 76.9778C17.6269 75.1778 15.9272 73.1578 14.5874 70.9478C17.8869 74.3578 22.9161 78.6778 28.9552 81.0878C31.0249 81.9078 37.4939 82.7678 39.9535 82.2978C42.4431 81.8278 44.6928 80.8478 46.6125 79.7078C44.6928 82.2278 42.7631 84.1078 41.2233 84.9678H41.2133Z" fill="#60A5C4"/>
</g>
<g style="mix-blend-mode:soft-light" opacity="0.39">
<path d="M35.5835 41.159C36.1134 43.449 40.7327 42.239 42.4025 43.809C44.1622 45.459 46.1519 48.739 46.3919 48.379C47.1117 47.259 45.0721 42.679 42.2425 40.619C37.8432 37.409 35.0436 38.879 35.5835 41.169V41.159Z" fill="#9BDFFF"/>
</g>
<path d="M39.9128 85.4674C39.9128 85.4674 39.8028 85.6074 39.8928 85.6674C40.1728 85.8574 41.2028 85.6074 41.4528 85.2174C41.5128 85.1274 41.3328 84.9474 41.2128 84.9674C41.2128 84.9674 40.7228 85.3474 39.9128 85.4674Z" fill="#080000"/>
<path d="M91.2436 131.276C91.8336 132.566 94.8936 133.646 94.8936 133.646C94.8936 133.646 95.6036 133.156 94.8936 131.186C94.8936 131.186 94.8236 131.086 94.6936 130.926C94.1836 130.286 92.7536 128.786 91.4536 130.156C91.1036 130.526 91.0636 130.906 91.2336 131.276" fill="#293CFF"/>
<path d="M91.2438 131.276C92.1538 132.396 94.6638 133.286 94.6638 133.286C94.6638 133.286 95.3538 132.816 94.7038 130.936C94.5138 130.696 94.2038 130.346 93.8238 130.066C93.1638 129.576 92.2838 129.296 91.4638 130.166C91.1738 130.476 91.0938 130.796 91.1738 131.096C91.1938 131.166 91.2138 131.226 91.2438 131.286" fill="#4F5FFF"/>
<path d="M92.4136 129.616C92.1036 129.666 91.7736 129.826 91.4636 130.156C91.2036 130.436 91.1136 130.716 91.1536 130.996C91.1536 131.026 91.1636 131.056 91.1736 131.086C91.7236 131.286 93.0036 131.686 93.7736 131.566C93.8436 131.556 93.9136 131.536 93.9736 131.516C94.1736 131.336 94.2236 131.016 94.0336 130.506C93.9736 130.346 93.9036 130.186 93.8236 130.056C93.4136 129.756 92.9236 129.526 92.4136 129.606" fill="#7B87FF"/>
<path d="M90.8137 134.855C91.2837 136.125 93.8437 136.995 94.3837 137.025C94.9537 137.065 95.2437 134.875 94.5337 133.945C94.4737 133.855 94.4037 133.785 94.3337 133.725C92.6537 132.415 90.9137 132.775 90.7437 134.335C90.7237 134.515 90.7437 134.695 90.8137 134.855Z" fill="#293CFF"/>
<path d="M90.8137 134.855C91.6037 135.895 93.6637 136.575 94.1537 136.605C94.6437 136.635 94.9337 134.985 94.5337 133.945C94.4737 133.855 94.4037 133.785 94.3337 133.725C94.0137 133.475 93.6937 133.285 93.3837 133.155C92.0837 132.605 90.9437 133.045 90.7637 134.245V134.345C90.7337 134.525 90.7637 134.705 90.8237 134.865" fill="#4F5FFF"/>
<path d="M92.0134 132.945C91.3534 133.045 90.8634 133.495 90.7534 134.245C90.7734 134.275 90.8034 134.305 90.8334 134.325C91.1834 134.555 92.5534 135.105 93.3834 134.975C93.5034 134.955 93.6134 134.925 93.7134 134.875C93.7734 134.785 93.8034 134.635 93.8034 134.485C93.8034 134.025 93.6434 133.565 93.3834 133.165C92.8934 132.955 92.4234 132.895 92.0234 132.955" fill="#7B87FF"/>
<path d="M90.7737 138.335C91.1737 138.965 91.9637 139.405 93.1537 139.465C94.2337 139.515 94.3537 137.525 93.7537 137.125L93.7337 137.105C93.1037 136.745 90.5437 135.825 90.4637 137.055C90.4337 137.515 90.5337 137.965 90.7837 138.335" fill="#293CFF"/>
<path d="M90.7736 138.335C91.2136 138.795 91.9236 139.115 92.9236 139.165C93.8336 139.215 94.0636 137.805 93.7536 137.125L93.7336 137.105C93.5636 137.005 93.2636 136.875 92.8936 136.755C91.9036 136.405 90.5136 136.155 90.4536 137.055C90.4436 137.205 90.4536 137.355 90.4736 137.505C90.5036 137.805 90.6036 138.085 90.7636 138.335" fill="#4F5FFF"/>
<path d="M91.0736 136.455C90.7236 136.505 90.4736 136.685 90.4536 137.055C90.4536 137.185 90.4536 137.315 90.4636 137.445C90.4636 137.465 90.4636 137.485 90.4736 137.505C91.1536 137.995 91.7436 138.175 92.2336 138.105C92.5636 137.995 92.8236 137.755 93.0036 137.435C93.1336 137.195 93.0736 136.965 92.8936 136.755C92.3136 136.545 91.5836 136.375 91.0836 136.455" fill="#7B87FF"/>
<path d="M45.5917 162.525C45.7817 163.755 46.9417 164.605 48.1717 164.405C49.4017 164.205 50.2517 163.055 50.0517 161.825C49.8517 160.595 48.7017 159.745 47.4717 159.945C46.2417 160.145 45.3917 161.295 45.5917 162.525Z" fill="#FF0090"/>
<path d="M45.5719 172.525C46.323 172.525 46.9319 171.916 46.9319 171.165C46.9319 170.414 46.323 169.805 45.5719 169.805C44.8208 169.805 44.2119 170.414 44.2119 171.165C44.2119 171.916 44.8208 172.525 45.5719 172.525Z" fill="#FF0090"/>
<path d="M41.5123 166.425C41.5923 166.945 42.0823 167.305 42.6123 167.225C43.1423 167.145 43.4923 166.655 43.4123 166.125C43.3323 165.595 42.8423 165.245 42.3123 165.325C41.7823 165.405 41.4323 165.895 41.5123 166.425Z" fill="#FF0090"/>
<path d="M71.1668 219.413C71.1668 219.493 71.1668 219.583 71.1468 219.663C71.1368 219.733 71.1268 219.803 71.1068 219.873C71.0868 219.933 71.0668 220.003 71.0468 220.063C71.0168 220.133 70.9768 220.213 70.9368 220.293C70.8868 220.373 70.8369 220.453 70.7769 220.533C70.6069 220.733 70.3869 220.903 70.117 221.053C68.7572 221.823 66.2077 222.033 63.5882 221.953C60.7187 221.863 57.7593 221.423 56.1995 221.003C55.7996 220.893 55.3997 220.763 55.0198 220.603C53.3901 219.923 51.9803 218.833 50.8605 217.403C50.8305 217.353 50.7905 217.283 50.7406 217.173C50.2606 216.033 49.2208 211.524 48.361 206.254C47.2112 199.314 40.0525 193.704 35.5933 183.594C35.2134 182.745 34.8535 181.855 34.5235 180.925C34.4036 180.605 34.2936 180.285 34.1836 179.955C34.2036 179.955 41.1423 184.104 41.1423 184.104C41.2723 184.104 45.9914 186.454 46.0914 186.454C46.2214 186.004 46.8313 185.824 47.7711 185.854C48.341 185.874 49.0309 185.964 49.8207 186.104C56.5695 187.374 70.067 190.804 70.317 190.904C70.327 190.904 70.7469 192.424 70.6469 194.754C70.5069 198.224 70.277 200.804 69.3771 204.824C69.2671 205.284 69.1572 205.754 69.0572 206.224C68.3273 209.274 67.1575 211.054 67.7574 213.014C68.3873 215.064 70.7469 217.183 71.1268 218.973C71.1368 219.033 71.1468 219.083 71.1568 219.143L71.1768 219.223C71.1768 219.283 71.1868 219.343 71.1868 219.403L71.1668 219.413Z" fill="#6B78FF"/>
<path d="M70.7668 220.534C72.1866 216.814 62.918 211.644 64.6778 210.554C65.9376 209.784 67.2474 206.494 67.9073 204.654C68.1772 203.904 68.3372 203.384 68.3372 203.384C69.707 200.604 70.4569 191.654 70.4569 191.654C70.9468 194.864 70.4969 199.724 69.357 204.824C69.2571 205.284 69.1471 205.754 69.0371 206.224C68.3072 209.274 67.1374 211.054 67.7473 213.014C68.3772 215.064 70.7368 217.184 71.1168 218.974C71.1268 219.034 71.1468 219.084 71.1468 219.144V219.224C71.1668 219.284 71.1668 219.344 71.1668 219.404C71.1668 219.484 71.1668 219.574 71.1568 219.654C71.1568 219.724 71.1368 219.794 71.1168 219.864C71.0968 219.924 71.0768 219.994 71.0568 220.054C71.0268 220.134 70.9868 220.204 70.9468 220.284C70.8968 220.364 70.8468 220.444 70.7768 220.524L70.7668 220.534Z" fill="#7884FF"/>
<path d="M63.5785 221.943C60.709 221.853 57.7496 221.413 56.1899 220.993C55.7899 220.883 55.39 220.753 55.0101 220.593C53.3804 219.913 51.9706 218.823 50.8508 217.393C50.8208 217.343 50.7809 217.273 50.7309 217.163C50.2509 216.023 49.2111 211.513 48.3513 206.244C47.8614 203.264 38.3731 188.504 33.2741 184.094C19.9965 172.605 12.3679 168.135 9.62842 164.775C10.0083 165.085 34.7138 181.764 35.5137 182.804C38.4131 186.594 45.9117 195.284 47.7214 198.254C50.021 202.044 51.7307 217.403 54.2302 219.263C56.5298 220.973 62.6087 221.813 63.5785 221.943Z" fill="#4F5FFF"/>
<path d="M119.858 122.306C120.618 123.576 125.108 124.506 125.108 124.506C125.108 124.506 126.228 123.976 125.358 122.026C125.358 122.026 125.268 121.926 125.088 121.776C124.388 121.156 122.378 119.716 120.298 121.166C119.728 121.566 119.638 121.946 119.858 122.306Z" fill="#293CFF"/>
<path d="M124.798 124.156C124.798 124.156 121.108 123.386 119.858 122.306C119.818 122.256 119.788 122.186 119.768 122.126C119.768 122.086 119.748 122.046 119.768 122.016C119.728 121.766 119.868 121.506 120.198 121.246C120.238 121.226 120.268 121.196 120.308 121.166C121.618 120.246 122.908 120.486 123.858 120.946C124.398 121.206 124.838 121.546 125.088 121.776C125.888 123.636 124.808 124.156 124.808 124.156H124.798Z" fill="#4F5FFF"/>
<path d="M123.938 122.416C123.178 122.606 121.938 122.566 120.958 122.336C120.468 122.226 120.048 122.126 119.768 122.016C119.728 121.766 119.868 121.506 120.198 121.246C120.238 121.226 120.268 121.196 120.308 121.166C121.618 120.246 122.908 120.486 123.858 120.946C123.958 121.076 124.038 121.226 124.128 121.396C124.368 121.896 124.268 122.216 123.948 122.416H123.938Z" fill="#7B87FF"/>
<path d="M125.268 128.116C123.848 128.526 119.928 126.146 119.928 126.146C119.928 126.146 119.478 124.996 121.448 124.166C121.448 124.166 121.588 124.156 121.818 124.166C122.758 124.196 125.208 124.516 125.728 126.996C125.868 127.676 125.668 128.016 125.268 128.126" fill="#293CFF"/>
<path d="M125.268 128.116C123.608 128.046 120.398 126.096 120.398 126.096C120.398 126.096 119.958 124.986 121.818 124.156C122.158 124.156 122.708 124.206 123.288 124.396C124.288 124.706 125.398 125.416 125.728 126.986C125.848 127.546 125.728 127.876 125.458 128.046C125.398 128.076 125.338 128.106 125.268 128.126" fill="#4F5FFF"/>
<path d="M125.058 125.546C125.358 125.916 125.598 126.396 125.728 126.996C125.838 127.496 125.748 127.816 125.538 127.996C125.518 128.016 125.488 128.036 125.458 128.046C124.748 127.616 123.148 126.586 122.398 125.666C122.328 125.586 122.268 125.496 122.218 125.416C122.108 125.056 122.258 124.746 122.778 124.546C122.948 124.486 123.118 124.436 123.278 124.406C123.898 124.596 124.558 124.946 125.048 125.546" fill="#7B87FF"/>
<path d="M124.189 131.026C123.079 131.686 119.319 130.096 118.569 129.626C117.789 129.136 118.199 126.996 119.509 126.846C119.619 126.816 119.739 126.826 119.859 126.846C122.619 127.256 124.819 129.156 124.469 130.656C124.429 130.826 124.329 130.956 124.189 131.036" fill="#293CFF"/>
<path d="M124.188 131.026C122.738 131.206 119.708 129.896 119.038 129.476C118.358 129.056 118.588 127.376 119.508 126.836C119.618 126.806 119.738 126.816 119.858 126.836C120.388 126.916 120.888 127.046 121.348 127.216C123.308 127.936 124.678 129.356 124.478 130.546L124.458 130.636C124.418 130.806 124.318 130.936 124.178 131.016" fill="#4F5FFF"/>
<path d="M123.268 128.286C124.118 128.976 124.608 129.806 124.488 130.546C124.448 130.546 124.398 130.546 124.348 130.546C123.788 130.426 121.738 129.636 120.668 128.776C120.508 128.646 120.378 128.516 120.268 128.386C120.218 128.246 120.228 128.096 120.288 127.966C120.468 127.576 120.848 127.326 121.348 127.226C122.088 127.496 122.748 127.866 123.268 128.296" fill="#7B87FF"/>
<path d="M121.009 133.556C120.249 133.846 119.199 133.706 117.939 132.936C116.789 132.236 117.739 130.346 118.579 130.396H118.619C119.459 130.506 122.619 131.436 122.039 132.616C121.819 133.056 121.469 133.386 121.019 133.556" fill="#293CFF"/>
<path d="M121.009 133.556C120.299 133.676 119.399 133.466 118.339 132.826C117.379 132.236 117.889 130.796 118.579 130.396H118.619C118.849 130.426 119.229 130.516 119.679 130.656C120.889 131.026 122.469 131.756 122.039 132.616C121.969 132.766 121.879 132.896 121.769 133.006C121.579 133.256 121.319 133.446 121.019 133.556" fill="#4F5FFF"/>
<path d="M121.708 131.636C122.038 131.926 122.208 132.256 122.028 132.616C121.968 132.746 121.898 132.856 121.808 132.966C121.798 132.986 121.778 132.996 121.758 133.016C120.798 132.996 120.078 132.736 119.608 132.346C119.328 132.016 119.188 131.616 119.178 131.206C119.178 130.906 119.368 130.736 119.658 130.666C120.368 130.886 121.218 131.226 121.698 131.646" fill="#7B87FF"/>
</svg>
