<svg width="136" height="228" viewBox="0 0 136 228" fill="none" xmlns="http://www.w3.org/2000/svg">
<g style="mix-blend-mode:multiply" opacity="0.41">
<path d="M0 216.63C0 212.08 27.96 208.4 62.45 208.4C96.94 208.4 124.9 212.09 124.9 216.63C124.9 221.17 92.55 228 58.06 228C23.57 228 0 221.18 0 216.63Z" fill="#4A55C4"/>
</g>
<path d="M9.47023 122.4C8.12023 123.44 2.93023 122.54 2.93023 122.54C2.93023 122.54 1.96023 121.5 3.71023 119.78C3.71023 119.78 3.85023 119.71 4.10023 119.62C5.12023 119.25 7.87022 118.56 9.48022 120.99C9.92022 121.65 9.85023 122.1 9.47023 122.39V122.4Z" fill="#7B87FF"/>
<path d="M9.47023 122.4C7.67023 123.03 3.41023 122.29 3.41023 122.29C3.41023 122.29 2.47023 121.28 4.11023 119.62C4.48023 119.48 5.09023 119.3 5.79023 119.26C6.99023 119.17 8.48023 119.46 9.49023 121C9.85023 121.55 9.87023 121.96 9.65023 122.24C9.60023 122.3 9.55023 122.36 9.48023 122.4H9.47023Z" fill="#4F5FFF"/>
<path d="M6.93018 126.21C6.98018 127.91 3.20018 131.59 3.20018 131.59C3.20018 131.59 1.79018 131.76 1.43018 129.33C1.43018 129.33 1.46018 129.17 1.54018 128.92C1.84018 127.88 2.90018 125.24 5.81018 125.37C6.61018 125.4 6.93018 125.72 6.94018 126.21H6.93018Z" fill="#7B87FF"/>
<path d="M6.93027 126.21C6.38027 128.04 3.28027 131.05 3.28027 131.05C3.28027 131.05 1.91027 131.22 1.53027 128.92C1.64027 128.54 1.85027 127.94 2.22027 127.35C2.85027 126.32 3.96027 125.29 5.80027 125.37C6.46027 125.4 6.80027 125.62 6.90027 125.97C6.92027 126.05 6.93027 126.12 6.93027 126.2V126.21Z" fill="#4F5FFF"/>
<path opacity="0.45" d="M5.67996 125.71C6.26996 125.73 6.85996 126.22 6.99996 126.52C7.01996 126.55 7.02996 126.59 7.03996 126.62C6.35996 127.28 4.80996 128.81 3.56996 129.38C3.45996 129.43 2.74996 129.69 2.50996 129.43C2.26996 129.17 2.08996 128.96 2.35996 127.99C2.62996 127.02 4.97996 125.68 5.67996 125.71Z" fill="#FF0090"/>
<path d="M9.92994 130.26C10.0499 131.74 6.48994 134.81 5.61994 135.34C4.71994 135.89 2.71994 134.38 3.22994 132.95C3.25994 132.82 3.32994 132.7 3.40994 132.58C5.23994 129.95 8.31994 128.64 9.67994 129.77C9.82994 129.9 9.91994 130.07 9.92994 130.26Z" fill="#7B87FF"/>
<path d="M9.92998 130.26C9.37998 131.84 6.47998 134.31 5.70998 134.78C4.92998 135.26 3.30998 134.17 3.22998 132.95C3.25998 132.82 3.32998 132.7 3.40998 132.58C3.75998 132.08 4.14998 131.63 4.56998 131.24C6.30998 129.59 8.46998 128.89 9.59998 129.71L9.68998 129.78C9.83998 129.91 9.92998 130.08 9.93998 130.27L9.92998 130.26Z" fill="#4F5FFF"/>
<path opacity="0.45" d="M6.08023 130.4C7.23023 129.87 8.70023 130.15 9.40023 130.65C9.39023 130.7 9.36023 130.75 9.32023 130.79C8.91023 131.31 7.23023 133.11 5.80023 133.76C5.59023 133.86 4.93023 134.14 4.49023 133.8C4.05023 133.46 4.06023 132.78 4.37023 132.18C4.68023 131.58 6.08023 130.39 6.08023 130.39V130.4Z" fill="#FF0090"/>
<path d="M12.35 134.15C12.3 135.08 11.66 136.12 10.25 137.08C8.98001 137.95 7.44001 136.06 7.89001 135.21L7.91001 135.17C8.42001 134.34 10.89 131.46 11.84 132.63C12.2 133.06 12.38 133.59 12.35 134.14V134.15Z" fill="#7B87FF"/>
<path d="M12.3501 134.15C12.1401 134.95 11.5001 135.8 10.3301 136.61C9.26014 137.35 7.99014 136.13 7.89014 135.22L7.91014 135.18C8.05014 134.96 8.32014 134.59 8.68014 134.19C9.63014 133.09 11.1401 131.78 11.8501 132.64C11.9701 132.78 12.0701 132.94 12.1401 133.11C12.3101 133.43 12.3901 133.79 12.3601 134.16L12.3501 134.15Z" fill="#4F5FFF"/>
<path opacity="0.45" d="M10.03 132.53C10.43 132.21 10.86 132.12 11.28 132.46C11.43 132.58 11.57 132.71 11.69 132.86C11.71 132.88 11.73 132.91 11.75 132.93C11.63 134.13 11.51 134.51 10.89 135.31C10.27 136.12 8.66997 136.48 8.61997 135.04C8.59997 134.57 9.46997 132.98 10.04 132.52L10.03 132.53Z" fill="#FF0090"/>
<path opacity="0.45" d="M5.78012 119.26C6.98012 119.17 8.47012 119.46 9.48012 121C9.51012 121.04 9.54012 121.09 9.56012 121.13C9.12012 121.42 8.69012 121.7 8.28012 121.97C7.16012 121.71 5.79012 121.32 5.06012 120.79C4.79012 120.45 4.82012 120.05 5.30012 119.62C5.46012 119.48 5.62012 119.36 5.78012 119.26Z" fill="#FF0090"/>
<path d="M8.81006 134.03L8.94006 134.08C9.42006 134.28 9.94006 134.44 10.5001 134.59C10.7601 134.65 11.0201 134.69 11.3001 134.68C11.5701 134.69 11.8701 134.68 12.1601 134.63C12.2001 134.63 12.2301 134.63 12.2601 134.62C13.6601 134.4 15.3101 133.68 17.0701 132.65C21.9601 129.79 27.6901 124.57 31.2401 121.36C36.4701 116.6 45.0001 101.35 45.8601 99.01C46.4801 97.33 44.0801 93.43 41.4801 92.49C41.0101 92.31 40.5301 92.25 40.0501 92.3C39.6201 92.35 37.6201 91.01 36.7101 90.79C36.4801 90.74 36.3201 90.76 36.2601 90.88C33.1701 98.03 26.5101 110.06 20.0301 114.35C17.0501 116.32 15.5101 117.2 12.2101 118.78C12.1601 118.8 12.0901 118.83 12.0301 118.87C11.0301 119.37 10.0501 119.97 9.16006 120.61C8.61006 121.01 8.09006 121.41 7.61006 121.82C7.27006 122.1 6.95006 122.38 6.67006 122.65C6.57006 122.74 6.48006 122.82 6.40006 122.9C5.60006 123.67 5.04006 124.35 4.79006 124.79C4.67006 125.01 4.56006 125.26 4.47006 125.54C4.40006 125.75 4.35006 125.98 4.31006 126.22C4.17006 127.02 4.17006 127.96 4.39006 128.91C4.44006 129.15 4.51006 129.4 4.60006 129.65C4.63006 129.75 4.67006 129.86 4.72006 129.96C4.82006 130.23 4.95006 130.5 5.10006 130.78C5.16006 130.89 5.23006 131.01 5.30006 131.12C5.73006 131.8 6.28006 132.45 7.02006 133.01C7.16006 133.13 7.33006 133.24 7.50006 133.35C7.59006 133.41 7.69006 133.47 7.79006 133.53C8.10006 133.72 8.44006 133.89 8.80006 134.05L8.81006 134.03Z" fill="#4F5FFF"/>
<path opacity="0.35" d="M41.5001 92.49C44.1101 93.43 46.5001 97.33 45.8801 99.01C45.0101 101.35 36.4801 116.61 31.2501 121.36C27.7001 124.57 21.9801 129.79 17.0801 132.65C18.5701 131.11 39.1301 109.79 40.0001 98.87C40.2501 95.74 40.8101 93.71 41.5001 92.49Z" fill="#293CFF"/>
<g style="mix-blend-mode:multiply" opacity="0.48">
<path d="M12.0503 118.86C15.1103 117.53 21.0903 115.17 23.9703 112.08C27.5303 108.24 33.8603 99.03 37.5703 91.28C37.3503 91.3 37.0403 91.06 36.7303 90.79C36.5003 90.74 36.3403 90.76 36.2803 90.88C33.1903 98.03 26.5303 110.06 20.0503 114.35C17.0703 116.32 15.5303 117.2 12.2303 118.78C12.1803 118.8 12.1103 118.83 12.0503 118.87V118.86Z" fill="#939AED"/>
</g>
<path opacity="0.45" d="M12.7 131.11C11.86 131.64 6.9 127.8 8.05 125.35C8.98 123.37 12.75 123.78 13.95 125.37C15.34 127.21 15.04 129.65 12.7 131.11Z" fill="#FF0090"/>
<path d="M57.5898 184.65C52.7898 186.46 48.7098 189.67 45.8298 193.78C42.7798 192.91 39.7198 191.77 36.6798 190.35C34.7498 189.44 32.9598 188.48 31.2998 187.45L57.5898 184.65Z" fill="#4F5FFF"/>
<mask id="mask0_20_7498" style="mask-type:luminance" maskUnits="userSpaceOnUse" x="52" y="65" width="41" height="41">
<path d="M87.7902 72.1799C85.0902 69.7599 86.8502 65.8799 86.1802 65.2399H86.1502C86.0702 65.2699 85.3702 65.0099 84.5802 65.0599C76.1802 65.6099 69.2402 70.7299 64.7302 73.6999C55.7702 79.5999 53.7402 92.3899 52.9702 97.0399C52.7202 98.5299 56.5502 101.6 58.3302 103.06H58.3502C67.5602 101.37 69.7102 103.69 72.5002 104.41C85.0802 107.64 84.0402 100.53 87.1902 96.0199C89.0502 93.3599 91.7102 94.6799 92.8102 90.7499C93.6202 87.8499 91.1702 86.3799 91.1802 82.7199C91.1802 80.1699 93.2202 77.5199 92.5802 75.9499C91.5202 73.3199 89.0102 73.2499 87.7902 72.1699" fill="white"/>
</mask>
<g mask="url(#mask0_20_7498)">
<path d="M109.37 70.4699C108.08 72.7999 106.27 75.8699 104.03 79.1799C102.62 81.2699 103.17 84.1099 105.28 85.4899C107.14 86.6899 109.03 88.3899 108.9 90.5099C108.61 95.1399 104.9 99.0499 92.4002 100.84C89.3002 101.28 91.2802 102.97 92.2302 106.08C93.4502 110.07 84.7102 114.55 77.8802 111.36C73.8902 109.5 70.3402 106.72 56.2702 109.3H56.2402C53.5202 107.06 47.6802 102.37 48.0602 100.1C49.2402 93.0099 52.3302 73.4699 66.0202 64.4699C72.9002 59.9299 83.5002 52.1199 96.3302 51.2799C97.5302 51.1999 98.6002 51.6099 98.7202 51.5499H98.7702C99.8002 52.5199 100.37 54.0099 100.06 55.5399C99.9002 56.3399 99.7202 57.2099 99.5102 58.1499C98.9802 60.5099 100.4 62.8699 102.73 63.5099C104.36 63.9499 105.8 64.3699 107.02 64.7499C109.4 65.4599 110.56 68.3199 109.36 70.4699" fill="#4450CF"/>
<path d="M55.3601 93.14C56.4601 91.8 57.7601 90.62 59.1201 89.54C61.9101 87.32 65.0401 85.59 68.2801 84.11C75.4201 80.86 83.0201 78.45 90.6601 76.69C95.1201 75.66 99.6401 74.87 104.18 74.32C105.41 74.17 105.19 72.25 103.95 72.4C95.5501 73.42 87.2401 75.26 79.1901 77.88C75.3701 79.12 71.5901 80.51 67.9301 82.15C64.5101 83.68 61.1601 85.49 58.1901 87.8C57.4401 88.39 56.7001 89.02 55.9901 89.68C56.2001 88.99 56.4401 88.31 56.7401 87.64C57.4501 86.09 58.3101 84.6 59.1401 83.11C60.0701 81.44 60.9701 79.5 62.2201 77.94C62.9101 77.27 63.6201 76.62 64.3601 76C64.4601 75.92 64.5401 75.82 64.6001 75.73C66.2701 74.52 68.0601 73.45 69.8201 72.38C71.7801 71.19 73.7701 70.04 75.7901 68.95C76.2201 68.72 76.6501 68.49 77.0801 68.27C80.4701 66.84 83.9601 65.67 87.5701 64.92C92.3401 63.92 97.2501 63.55 102.11 63.85C102.76 63.89 103.38 63.52 103.48 62.83C103.57 62.23 103.12 61.5 102.46 61.46C99.4001 61.27 96.3601 61.34 93.3401 61.64C94.2301 61.39 95.1301 61.14 96.0401 60.93C96.6701 60.78 97.1801 60.29 97.0901 59.59C97.0201 59 96.3901 58.38 95.7501 58.54C88.9401 60.16 82.4901 62.79 76.3001 66C76.1301 66.07 75.9601 66.14 75.8001 66.21C71.7501 67.96 67.6401 69.93 64.0701 72.55C61.2901 74.59 58.9901 77.16 57.1301 80.04C56.6901 80.65 56.2901 81.29 55.9601 81.98C55.9401 82.03 55.9101 82.08 55.8901 82.14C54.1101 85.42 52.9001 88.99 52.1401 92.64C51.9801 92.77 51.8501 92.93 51.7701 93.12C51.7401 93.21 51.7101 93.29 51.6801 93.38C51.6101 93.53 51.5801 93.68 51.5901 93.84C51.5701 94 51.5901 94.16 51.6701 94.32C51.7301 94.47 51.8101 94.6 51.9301 94.7C51.9801 94.76 52.0401 94.81 52.1001 94.86C51.7701 95.72 51.6001 96.64 51.6401 97.6C51.6501 97.88 51.7701 98.08 51.9301 98.22C51.9201 98.27 51.9101 98.33 51.9001 98.38C51.5601 98.73 51.4501 99.25 51.7701 99.68C51.9601 99.92 52.3001 100.08 52.6201 100.06C53.0801 100.17 53.5901 99.98 53.7001 99.44C54.5501 98.93 55.4901 98.84 56.5401 98.83C57.9601 98.81 59.3801 98.78 60.8001 98.81C63.6201 98.85 66.4301 99.12 69.1801 99.77C74.4401 101.03 79.4101 103.24 84.7601 104.17C87.8701 104.71 91.0301 104.92 94.1801 104.83C94.7001 104.82 95.0801 104.24 95.0201 103.76C94.9501 103.2 94.4701 102.9 93.9501 102.92C88.3201 103.08 82.8701 102.05 77.5401 100.32C74.8701 99.45 72.2101 98.53 69.4701 97.87C66.6801 97.2 63.8401 96.95 60.9801 96.91C59.3501 96.88 57.7201 96.9 56.1001 96.93C55.6801 96.93 55.2701 96.97 54.8701 97.03C55.2901 96.63 55.7801 96.29 56.3001 96C57.7901 95.19 59.4401 94.61 61.0401 94.07C64.3901 92.95 67.8601 92.24 71.3601 91.8C78.5901 90.89 85.8901 91.14 93.1501 91.41C97.3501 91.56 101.54 91.72 105.74 91.67C106.26 91.67 106.64 91.07 106.58 90.6C106.51 90.03 106.03 89.75 105.51 89.76C90.4401 89.93 74.9201 87.41 60.3001 92.29C58.3801 92.93 55.8501 93.75 54.0501 95.16C54.3901 94.45 54.8601 93.79 55.3501 93.19" fill="#1F2EC4"/>
</g>
<path d="M54.9302 76.1099C54.9302 76.1099 62.7302 76.2799 65.5302 79.0699C68.3302 81.8599 56.7502 84.6399 56.7502 84.6399L54.9302 76.1099Z" fill="#E80083"/>
<path d="M56.4199 87.6399C56.4199 87.6399 64.6999 85.0299 67.4199 87.8999C70.2399 90.8799 59.6699 96.2199 59.6699 96.2199L56.4199 87.6299" fill="#E80083"/>
<path d="M60.9702 100.22C60.9702 100.22 67.6302 98.14 69.8202 100.44C72.0902 102.83 63.9602 108.08 63.9602 108.08L60.9702 100.22Z" fill="#E80083"/>
<path d="M64.0298 110.68C64.0298 110.68 71.0098 110.76 72.3798 113.63C73.7998 116.61 64.4398 119.08 64.4398 119.08L64.0298 110.68Z" fill="#FF0090"/>
<path d="M66.6602 127.74C66.6602 127.74 73.3902 125.89 75.5002 128.27C77.6902 130.74 69.3801 135.7 69.3801 135.7L66.6602 127.74Z" fill="#FF0090"/>
<path d="M72.1401 143.07C72.1401 143.07 78.2101 139.62 80.8401 141.41C83.5701 143.26 76.7401 150.12 76.7401 150.12L72.1501 143.07H72.1401Z" fill="#FF0090"/>
<path d="M134.85 167.81C135.54 168.02 136.03 168.67 135.99 169.39C135.92 170.72 134.88 172.32 133.72 172.52C130.42 173.09 126.56 172.33 124.53 170.15C122.27 167.73 125.44 162.94 128.9 160.28C129.87 159.53 132.01 159.79 132.95 161.01C133.47 161.69 133.44 162.65 132.9 163.31L130.81 165.88C130.6 166.14 130.72 166.54 131.04 166.64L134.85 167.81Z" fill="#FF0090"/>
<path d="M81.3501 155.75C81.3501 155.75 85.4201 151.42 88.0001 152.21C90.6801 153.03 86.8501 160.32 86.8501 160.32L81.3501 155.74V155.75Z" fill="#FF0090"/>
<path d="M91.46 163.71C91.46 163.71 93.85 159.22 96.16 159.29C98.56 159.37 97.04 166.25 97.04 166.25L91.46 163.71Z" fill="#FF0090"/>
<path d="M101.36 167.63C101.36 167.63 102.46 163.44 104.39 163.05C106.39 162.64 106.48 168.64 106.48 168.64L101.36 167.62V167.63Z" fill="#FF0090"/>
<path d="M110.14 168.62C110.14 168.62 111.14 164.81 112.9 164.45C114.73 164.08 114.8 169.55 114.8 169.55L110.14 168.62Z" fill="#FF0090"/>
<path d="M117.81 168.67C117.81 168.67 118.56 165.82 119.87 165.55C121.23 165.27 121.29 169.36 121.29 169.36L117.81 168.67Z" fill="#FF0090"/>
<mask id="mask1_20_7498" style="mask-type:luminance" maskUnits="userSpaceOnUse" x="58" y="76" width="47" height="36">
<path d="M102.09 87.4798C101.08 83.9598 104.68 81.5798 104.45 80.6798L104.43 80.6598C104.34 80.6598 103.88 80.0398 103.19 79.6698C95.7001 75.6098 87.0101 76.2498 81.5501 76.3598C70.7001 76.5698 62.0701 86.4298 58.9001 89.9798C57.8901 91.1198 59.5101 95.8098 60.2401 98.0198V98.0398C69.0501 101.56 69.6301 104.7 71.6401 106.82C80.6601 116.37 83.6101 109.72 88.7301 107.57C91.7501 106.3 93.3201 108.86 96.3801 106.09C98.6401 104.05 97.3301 101.47 99.3101 98.3398C100.69 96.1598 103.85 94.9898 104.16 93.2998C104.67 90.4798 102.56 89.0698 102.1 87.4798" fill="white"/>
</mask>
<g mask="url(#mask1_20_7498)">
<path d="M121.48 97.6499C119.12 98.9499 115.91 100.6 112.22 102.22C109.88 103.25 108.83 105.98 109.89 108.3C110.83 110.33 111.53 112.81 110.28 114.55C107.54 118.36 102.25 119.7 90.5999 114.49C87.7099 113.2 88.4999 115.7 87.6299 118.88C86.5199 122.95 76.6299 122.07 72.4999 115.66C70.0899 111.92 68.5499 107.62 55.1199 102.25L55.0999 102.23C53.9799 98.8499 51.5099 91.6899 53.0599 89.9499C57.8899 84.5199 71.0799 69.4699 87.6399 69.1499C95.9799 68.9799 109.25 68.0099 120.69 74.2099C121.76 74.7899 122.46 75.7199 122.59 75.7299L122.63 75.7599C122.99 77.1399 122.67 78.7199 121.59 79.8599C121.02 80.4599 120.4 81.1099 119.71 81.7999C117.98 83.5299 117.93 86.3199 119.58 88.1199C120.73 89.3799 121.74 90.5199 122.58 91.4999C124.24 93.3899 123.68 96.4599 121.5 97.6599" fill="#828DFF"/>
<path d="M63.05 87.9299C64.72 87.3799 66.47 87.0599 68.21 86.8699C71.8 86.4799 75.41 86.6799 78.98 87.1699C86.85 88.2399 94.64 90.2699 102.13 92.8899C106.5 94.4199 110.79 96.1799 114.98 98.1499C116.12 98.6899 116.96 96.9199 115.82 96.3799C108.08 92.7199 99.98 89.8199 91.68 87.7199C87.75 86.7199 83.76 85.8699 79.74 85.2999C75.98 84.7699 72.15 84.5099 68.36 84.8899C67.4 84.9899 66.43 85.1299 65.47 85.3099C66.02 84.8299 66.59 84.3799 67.21 83.9699C68.65 83.0199 70.19 82.2099 71.7 81.3799C73.39 80.4499 75.21 79.2799 77.12 78.6199C78.07 78.4199 79.03 78.2499 80 78.1099C80.13 78.0899 80.25 78.0599 80.35 78.0099C82.43 77.8699 84.54 77.9199 86.62 77.9599C88.94 77.9999 91.26 78.0899 93.58 78.2499C94.07 78.2799 94.56 78.3199 95.06 78.3599C98.73 78.9599 102.35 79.8499 105.84 81.1499C110.46 82.8699 114.86 85.1899 118.86 88.0699C119.4 88.4499 120.13 88.4699 120.58 87.9399C120.98 87.4699 120.99 86.5999 120.45 86.2199C117.94 84.4099 115.29 82.8199 112.55 81.4499C113.45 81.7099 114.35 81.9899 115.24 82.2899C115.86 82.4999 116.56 82.3499 116.87 81.7099C117.13 81.1699 116.92 80.2999 116.29 80.0799C109.59 77.7999 102.65 76.5699 95.63 75.9699C95.45 75.9399 95.27 75.9099 95.09 75.8799C90.68 75.1899 86.1 74.6599 81.64 74.9799C78.16 75.2299 74.81 76.1799 71.66 77.6499C70.95 77.9399 70.27 78.2699 69.62 78.6799C69.57 78.7099 69.52 78.7399 69.48 78.7799C66.19 80.6299 63.23 83.0299 60.61 85.7399C60.4 85.7599 60.21 85.8299 60.04 85.9499C59.97 86.0099 59.89 86.0599 59.82 86.1199C59.68 86.2099 59.57 86.3199 59.49 86.4699C59.39 86.5999 59.32 86.7499 59.3 86.9199C59.27 87.0799 59.27 87.2399 59.32 87.3899C59.33 87.4699 59.35 87.5399 59.38 87.6099C58.64 88.1699 57.99 88.8599 57.51 89.7099C57.37 89.9599 57.36 90.1899 57.42 90.3999C57.38 90.4399 57.35 90.4799 57.31 90.5199C56.83 90.6399 56.45 91.0199 56.5 91.5599C56.53 91.8699 56.74 92.1799 57.02 92.3399C57.36 92.6799 57.89 92.7999 58.28 92.3899C59.28 92.4099 60.14 92.8499 61.04 93.3999C62.27 94.1399 63.5 94.8899 64.7 95.6799C67.09 97.2399 69.35 98.9799 71.35 101.02C75.17 104.93 78.23 109.5 82.31 113.18C84.68 115.32 87.27 117.2 90.01 118.82C90.46 119.09 91.1 118.8 91.31 118.36C91.55 117.85 91.31 117.33 90.85 117.06C85.95 114.16 81.84 110.34 78.21 105.99C76.39 103.81 74.62 101.58 72.63 99.5399C70.6 97.4599 68.31 95.7199 65.88 94.1399C64.5 93.2399 63.1 92.3699 61.69 91.5299C61.33 91.3099 60.96 91.1199 60.58 90.9599C61.15 90.8399 61.76 90.8099 62.36 90.8499C64.07 90.9599 65.79 91.3499 67.46 91.7599C70.93 92.6099 74.28 93.8799 77.51 95.3899C84.19 98.5099 90.3 102.66 96.37 106.81C99.88 109.21 103.39 111.6 107 113.82C107.45 114.1 108.09 113.8 108.3 113.36C108.55 112.84 108.29 112.34 107.84 112.06C94.86 104.08 82.93 93.5499 67.8 89.8499C65.81 89.3599 63.21 88.6999 60.91 88.9299C61.58 88.4999 62.34 88.1899 63.08 87.9399" fill="#4555FF"/>
<path d="M60.9698 93.3799C60.9698 93.3799 60.9998 93.3999 61.0198 93.4099C61.6698 93.7999 62.3198 94.1999 62.9598 94.5999C62.9698 94.5999 62.9798 94.6099 62.9898 94.6199C62.9998 94.6199 63.0198 94.6399 63.0298 94.6399C63.0498 94.6599 63.0798 94.6699 63.0998 94.6899C63.0998 94.6899 63.0998 94.6899 63.1098 94.6899C63.3798 94.8599 63.6498 95.0299 63.9198 95.1999C63.4498 96.3699 63.0598 97.4999 62.7298 98.5899C62.6898 98.5399 62.6498 98.4999 62.5998 98.4599C62.0798 96.7199 61.5198 95.0199 60.9598 93.3799M65.7098 91.3599C65.3398 92.0499 65.0098 92.7299 64.6998 93.3999C64.5898 93.3299 64.4798 93.2599 64.3698 93.1899C64.3698 93.1899 64.3698 93.1899 64.3598 93.1899C64.3398 93.1799 64.3198 93.1699 64.3098 93.1599C64.2998 93.1599 64.2798 93.1399 64.2698 93.1299C64.2498 93.1199 64.2398 93.1099 64.2198 93.0999C64.1998 93.0899 64.1798 93.0699 64.1598 93.0599C64.1598 93.0599 64.1398 93.0499 64.1298 93.0399C64.1098 93.0299 64.0798 93.0099 64.0598 92.9999C64.0598 92.9999 64.0598 92.9999 64.0498 92.9999C64.0198 92.9799 63.9898 92.9599 63.9598 92.9499C63.9598 92.9499 63.9598 92.9499 63.9498 92.9499C63.9198 92.9299 63.8898 92.9199 63.8698 92.8999C63.8098 92.8599 63.7498 92.8199 63.6798 92.7799C63.6198 92.7399 63.5598 92.6999 63.4898 92.6599C63.4298 92.6199 63.3698 92.5799 63.3098 92.5499C63.3098 92.5499 63.3098 92.5499 63.2998 92.5499C63.2698 92.5299 63.2398 92.5099 63.2098 92.4999C63.1798 92.4799 63.1498 92.4599 63.1198 92.4499C63.1198 92.4499 63.1098 92.4499 63.0998 92.4399C63.0798 92.4299 63.0498 92.4099 63.0298 92.3999C63.0298 92.3999 63.0198 92.3999 63.0098 92.3899C62.9798 92.3699 62.9598 92.3599 62.9298 92.3399C62.9298 92.3399 62.9098 92.3299 62.8998 92.3199C62.8798 92.3099 62.8598 92.2999 62.8398 92.2899C62.8298 92.2899 62.8198 92.2799 62.8098 92.2699C62.7898 92.2599 62.7598 92.2399 62.7398 92.2299C62.7298 92.2299 62.7098 92.2099 62.6998 92.2099C62.6898 92.2099 62.6698 92.1899 62.6598 92.1799C62.6398 92.1799 62.6298 92.1599 62.6098 92.1499C62.5998 92.1499 62.5898 92.1399 62.5798 92.1299C62.5498 92.1099 62.5198 92.0899 62.4898 92.0799C62.4898 92.0799 62.4698 92.0699 62.4598 92.0599C62.4398 92.0499 62.4198 92.0399 62.4098 92.0299C62.4098 92.0299 62.3998 92.0299 62.3898 92.0199C62.3298 91.9799 62.2698 91.9499 62.2198 91.9099C62.2198 91.9099 62.2098 91.9099 62.1998 91.8999C62.1398 91.8699 62.0898 91.8299 62.0298 91.7999C62.0298 91.7999 62.0098 91.7899 61.9998 91.7799C61.9798 91.7699 61.9698 91.7599 61.9498 91.7499C61.9398 91.7499 61.9298 91.7399 61.9198 91.7299C61.8998 91.7199 61.8698 91.6999 61.8498 91.6899C61.8298 91.6899 61.8198 91.6699 61.7998 91.6599C61.7898 91.6599 61.7798 91.6499 61.7698 91.6399C61.7398 91.6199 61.7198 91.6099 61.6898 91.5899C61.6898 91.5899 61.6698 91.5899 61.6698 91.5799C61.3298 91.3799 60.9798 91.1899 60.6198 91.0399C60.6098 91.0399 60.5998 91.0399 60.5898 91.0299C61.1598 90.9099 61.7698 90.8799 62.3698 90.9199C62.3698 90.9199 62.3898 90.9199 62.3998 90.9199C62.3998 90.9199 62.3998 90.9199 62.4098 90.9199C62.4098 90.9199 62.4198 90.9199 62.4298 90.9199C62.4298 90.9199 62.4398 90.9199 62.4498 90.9199C62.4498 90.9199 62.4498 90.9199 62.4598 90.9199C62.4598 90.9199 62.4698 90.9199 62.4798 90.9199H62.4898C62.4898 90.9199 62.4998 90.9199 62.5098 90.9199C62.5098 90.9199 62.5198 90.9199 62.5298 90.9199C62.5298 90.9199 62.5398 90.9199 62.5498 90.9199C62.5898 90.9199 62.6398 90.9199 62.6798 90.9299C63.1398 90.9699 63.5998 91.0299 64.0598 91.0999C64.0798 91.0999 64.0898 91.0999 64.1098 91.0999H64.1298H64.1498C64.1498 91.0999 64.2298 91.1099 64.2798 91.1199C64.2798 91.1199 64.2898 91.1199 64.2998 91.1199C64.2998 91.1199 64.2998 91.1199 64.3098 91.1199C64.3098 91.1199 64.3198 91.1199 64.3298 91.1199C64.3298 91.1199 64.3298 91.1199 64.3398 91.1199C64.3398 91.1199 64.3398 91.1199 64.3498 91.1199C64.3498 91.1199 64.3498 91.1199 64.3598 91.1199C64.3598 91.1199 64.3598 91.1199 64.3698 91.1199C64.3698 91.1199 64.3798 91.1199 64.3898 91.1199C64.3898 91.1199 64.3898 91.1199 64.3998 91.1199H64.4198C64.8498 91.1899 65.2798 91.2799 65.7098 91.3699M68.4998 86.8399C68.2898 87.1299 68.0798 87.4299 67.8798 87.7299C67.4598 88.3499 67.0798 88.9699 66.7098 89.5799C66.6898 89.5799 66.6698 89.5799 66.6598 89.5699C66.6598 89.5699 66.6498 89.5699 66.6398 89.5699C66.4598 89.5299 66.2898 89.4899 66.1098 89.4499C64.5198 89.0899 62.7498 88.7899 61.1098 88.9099C61.0298 88.9099 60.9598 88.9199 60.8798 88.9299C61.5498 88.4999 62.3098 88.1899 63.0498 87.9399C64.7198 87.3899 66.4698 87.0699 68.2098 86.8799C68.2598 86.8799 68.3098 86.8699 68.3498 86.8599C68.3998 86.8599 68.4598 86.8499 68.5098 86.8399M77.1098 78.6299C74.9998 80.1199 72.4598 82.1399 70.1698 84.7599C70.0398 84.7599 69.9098 84.7699 69.7698 84.7799C69.7598 84.7799 69.7498 84.7799 69.7398 84.7799C69.2898 84.8099 68.8398 84.8399 68.3898 84.8899C68.3698 84.8899 68.3598 84.8899 68.3398 84.8899C67.3798 84.9899 66.4098 85.1299 65.4498 85.3099C65.9998 84.8299 66.5698 84.3799 67.1898 83.9699C68.6298 83.0199 70.1698 82.2099 71.6798 81.3799C73.3698 80.4499 75.1898 79.2799 77.0998 78.6199" fill="#6873EB"/>
<path d="M63.1098 94.6899C63.1098 94.6899 63.1098 94.6899 63.1198 94.6899C63.1198 94.6899 63.1198 94.6899 63.1098 94.6899ZM62.9998 94.6199C62.9998 94.6199 63.0298 94.6399 63.0398 94.6399C63.0298 94.6399 63.0098 94.6199 62.9998 94.6199ZM60.9698 93.3799C60.9698 93.3799 60.9998 93.3999 61.0198 93.4099C61.6698 93.7999 62.3198 94.1999 62.9598 94.5999C62.3098 94.1999 61.6698 93.8099 61.0198 93.4099C60.9998 93.4099 60.9898 93.3899 60.9698 93.3799ZM64.3598 93.1799C64.3598 93.1799 64.3598 93.1799 64.3698 93.1799C64.3698 93.1799 64.3698 93.1799 64.3598 93.1799ZM64.2598 93.1199C64.2598 93.1199 64.2898 93.1399 64.2998 93.1499C64.2898 93.1499 64.2698 93.1299 64.2598 93.1199ZM64.1498 93.0499C64.1498 93.0499 64.1898 93.0799 64.2098 93.0899C64.1898 93.0799 64.1698 93.0599 64.1498 93.0499ZM64.0498 92.9899C64.0498 92.9899 64.0998 93.0199 64.1198 93.0299C64.0998 93.0199 64.0698 92.9999 64.0498 92.9899ZM63.9498 92.9299C63.9498 92.9299 64.0098 92.9699 64.0398 92.9799C64.0098 92.9599 63.9798 92.9399 63.9498 92.9299ZM63.8598 92.8699C63.8598 92.8699 63.9198 92.8999 63.9398 92.9199C63.9098 92.8999 63.8798 92.8899 63.8598 92.8699ZM63.6698 92.7499C63.7298 92.7899 63.7898 92.8299 63.8598 92.8699C63.7998 92.8299 63.7398 92.7899 63.6698 92.7499ZM63.4798 92.6299C63.5398 92.6699 63.5998 92.7099 63.6698 92.7499C63.6098 92.7099 63.5498 92.6699 63.4798 92.6299ZM63.2898 92.5099C63.3498 92.5499 63.4098 92.5899 63.4698 92.6199C63.4098 92.5799 63.3498 92.5399 63.2898 92.5099ZM63.1898 92.4499C63.1898 92.4499 63.2498 92.4899 63.2798 92.4999C63.2498 92.4799 63.2198 92.4599 63.1898 92.4499ZM63.0998 92.3999C63.0998 92.3999 63.1598 92.4399 63.1898 92.4499C63.1598 92.4299 63.1298 92.4099 63.0998 92.3999ZM63.0098 92.3399C63.0098 92.3399 63.0598 92.3699 63.0798 92.3799C63.0598 92.3699 63.0298 92.3499 63.0098 92.3399ZM62.9098 92.2799C62.9098 92.2799 62.9598 92.3099 62.9898 92.3299C62.9598 92.3099 62.9398 92.2999 62.9098 92.2799ZM62.8298 92.2299C62.8298 92.2299 62.8698 92.2499 62.8898 92.2599C62.8698 92.2499 62.8498 92.2399 62.8298 92.2299ZM62.7298 92.1699C62.7298 92.1699 62.7798 92.1999 62.7998 92.2099C62.7798 92.1999 62.7498 92.1799 62.7298 92.1699ZM62.6398 92.1199C62.6398 92.1199 62.6698 92.1399 62.6798 92.1499C62.6698 92.1499 62.6498 92.1299 62.6398 92.1199ZM62.5698 92.0699C62.5698 92.0699 62.5898 92.0799 62.5998 92.0899C62.5898 92.0899 62.5798 92.0799 62.5698 92.0699ZM62.4498 91.9999C62.4498 91.9999 62.4698 92.0099 62.4798 92.0199C62.4798 92.0199 62.4598 92.0099 62.4498 91.9999ZM62.3798 91.9599C62.3798 91.9599 62.3898 91.9599 62.3998 91.9699C62.3998 91.9699 62.3898 91.9699 62.3798 91.9599ZM62.1798 91.8399C62.1798 91.8399 62.1898 91.8399 62.1998 91.8499C62.1998 91.8499 62.1898 91.8499 62.1798 91.8399ZM61.9798 91.7199C61.9798 91.7199 61.9998 91.7299 62.0098 91.7399C62.0098 91.7399 61.9898 91.7299 61.9798 91.7199ZM61.8998 91.6699C61.8998 91.6699 61.9198 91.6799 61.9298 91.6899C61.9198 91.6899 61.9098 91.6799 61.8998 91.6699ZM61.7798 91.5999C61.7798 91.5999 61.8098 91.6199 61.8298 91.6299C61.8098 91.6299 61.7998 91.6099 61.7798 91.5999ZM61.6698 91.5299C61.6698 91.5299 61.7198 91.5599 61.7498 91.5799C61.7198 91.5599 61.6998 91.5499 61.6698 91.5299ZM61.6398 91.5099C61.6398 91.5099 61.6598 91.5099 61.6598 91.5199C61.6598 91.5199 61.6398 91.5199 61.6398 91.5099ZM60.5898 90.9699C60.9498 91.1299 61.2998 91.3099 61.6398 91.5099C61.3698 91.3499 61.0898 91.1999 60.8098 91.0699C60.7398 91.0399 60.6598 90.9999 60.5898 90.9699ZM60.5598 90.9499C60.5598 90.9499 60.5798 90.9499 60.5898 90.9599C60.5798 90.9599 60.5698 90.9599 60.5598 90.9499ZM62.3598 90.8499C62.3598 90.8499 62.3398 90.8499 62.3298 90.8499C61.7398 90.8099 61.1298 90.8399 60.5498 90.9599C61.1198 90.8399 61.7298 90.8099 62.3298 90.8499C62.3298 90.8499 62.3498 90.8499 62.3598 90.8499ZM62.3898 90.8499C62.3898 90.8499 62.3898 90.8499 62.3698 90.8499C62.3698 90.8499 62.3798 90.8499 62.3898 90.8499ZM62.4098 90.8499C62.4098 90.8499 62.4098 90.8499 62.3998 90.8499C62.3998 90.8499 62.3998 90.8499 62.4098 90.8499ZM62.4398 90.8499H62.4298C62.4298 90.8499 62.4298 90.8499 62.4398 90.8499ZM64.2998 91.0799C64.2998 91.0799 64.2998 91.0799 64.2898 91.0799C64.2898 91.0799 64.2898 91.0799 64.2998 91.0799ZM64.3198 91.0899C64.3198 91.0899 64.3198 91.0899 64.3098 91.0899C64.3098 91.0899 64.3098 91.0899 64.3198 91.0899ZM64.3498 91.0899C64.3498 91.0899 64.3498 91.0899 64.3398 91.0899C64.3398 91.0899 64.3398 91.0899 64.3498 91.0899ZM64.3798 91.0999C64.3798 91.0999 64.3698 91.0999 64.3598 91.0999C64.3598 91.0999 64.3698 91.0999 64.3798 91.0999ZM66.6398 89.5599C66.6398 89.5599 66.6498 89.5599 66.6598 89.5599C66.6598 89.5599 66.6498 89.5599 66.6398 89.5599ZM66.0998 89.4299C66.2798 89.4699 66.4598 89.5099 66.6298 89.5499C66.4498 89.5099 66.2798 89.4699 66.0998 89.4299C64.5098 89.0699 62.7398 88.7699 61.0998 88.8899C62.7398 88.7599 64.5098 89.0699 66.0998 89.4299ZM68.3498 86.8599C68.3498 86.8599 68.2498 86.8699 68.2098 86.8799C66.4698 87.0699 64.7198 87.3799 63.0498 87.9399C64.7198 87.3899 66.4698 87.0699 68.2098 86.8799C68.2598 86.8799 68.3098 86.8699 68.3498 86.8599ZM68.3898 84.8899C68.3898 84.8899 68.3598 84.8899 68.3398 84.8899C68.3598 84.8899 68.3698 84.8899 68.3898 84.8899ZM69.7698 84.7799C69.7698 84.7799 69.7498 84.7799 69.7398 84.7799C69.7498 84.7799 69.7598 84.7799 69.7698 84.7799ZM70.1698 84.7599C70.0398 84.7599 69.9098 84.7699 69.7698 84.7799C69.8998 84.7799 70.0298 84.7699 70.1698 84.7599ZM71.6898 81.3899C70.1798 82.2199 68.6398 83.0299 67.1998 83.9799C66.5798 84.3799 66.0098 84.8399 65.4598 85.3199C66.0098 84.8399 66.5798 84.3899 67.1998 83.9799C68.6398 83.0299 70.1798 82.2199 71.6898 81.3899Z" fill="#3745EB"/>
<path d="M80.4598 76.3999C70.1198 77.2099 61.9498 86.5299 58.8898 89.9699C58.8298 90.0399 58.7798 90.1099 58.7398 90.1999C58.5098 90.6899 58.5298 91.4899 58.6798 92.4299C59.1498 92.4899 59.5898 92.6499 60.0198 92.8499C60.3498 93.0099 60.6798 93.1999 61.0198 93.3999C61.9898 93.9899 62.9698 94.5799 63.9298 95.1899C64.1698 94.5999 64.4198 93.9999 64.6998 93.3899C63.6998 92.7499 62.6798 92.1299 61.6598 91.5199C61.3798 91.3499 61.0898 91.1999 60.7998 91.0599C60.7198 91.0199 60.6298 90.9799 60.5498 90.9399C61.1198 90.8199 61.7298 90.7899 62.3298 90.8299C63.4598 90.9099 64.5898 91.0999 65.7098 91.3399C66.0198 90.7499 66.3498 90.1599 66.7098 89.5599C64.8998 89.1299 62.7798 88.6999 60.8698 88.8999C61.5398 88.4699 62.2998 88.1599 63.0398 87.9099C64.7098 87.3599 66.4598 87.0399 68.1998 86.8499C68.2998 86.8399 68.3998 86.8299 68.4998 86.8199C69.0298 86.0899 69.5898 85.3899 70.1598 84.7399C69.5498 84.7699 68.9398 84.8099 68.3298 84.8799C67.3698 84.9799 66.3998 85.1199 65.4398 85.2999C65.9898 84.8199 66.5598 84.3699 67.1798 83.9599C68.6198 83.0099 70.1598 82.1999 71.6698 81.3699C73.3598 80.4399 75.1798 79.2699 77.0898 78.6099C78.4398 77.6499 79.6198 76.9199 80.4398 76.3799" fill="#3D4CE3"/>
</g>
<path d="M20.8098 192.39C20.8098 192.39 20.7898 192.48 20.7898 192.52C20.7298 192.82 20.6898 193.14 20.6398 193.47C20.6398 193.47 20.6398 193.47 20.6398 193.49C20.3998 195.26 20.3298 197.26 20.5198 199.45C20.8298 202.86 21.8098 204.98 20.8498 207C19.5798 209.67 15.3098 212.01 16.2298 214.36C16.2598 214.45 16.2998 214.52 16.3498 214.6C16.4498 214.78 16.5898 214.95 16.7598 215.11C19.2998 217.48 28.6398 217.91 32.0998 217.49C34.5398 217.2 36.7998 216.21 38.4698 214.44C38.9498 213.93 39.3798 213.36 39.7498 212.71C40.7898 210.95 41.3798 208.66 41.3198 205.82C41.1798 199.75 47.1898 192.71 49.8798 186.68C51.2198 183.67 45.1698 178.21 39.6098 179.94C31.9298 182.34 24.3898 180.58 24.3898 180.58C22.7998 181.48 21.3098 189.39 20.7998 192.39H20.8098Z" fill="#4F5FFF"/>
<path d="M37.98 194.96C42.58 197.62 40.97 207.57 39.76 212.72C40.8 210.96 41.39 208.67 41.33 205.83C41.19 199.76 47.2 192.72 49.89 186.69C51.23 183.68 45.18 178.22 39.62 179.95C31.94 182.35 23.7 180.67 23.7 180.67C22.11 181.57 31.9 191.45 37.97 194.96H37.98Z" fill="#293CFF"/>
<path d="M16.3598 214.6C15.8398 212.05 19.7098 209.49 20.8298 209.03C23.3198 208 25.2298 207.25 25.0198 206.51C24.8098 205.77 23.3798 205.16 21.9298 203.04C20.5698 201.04 20.6398 193.92 20.6398 193.48C20.3998 195.25 20.3298 197.25 20.5198 199.44C20.8298 202.85 21.8098 204.97 20.8498 206.99C19.5798 209.66 15.3098 212.01 16.2298 214.35C16.2598 214.43 16.2998 214.51 16.3498 214.59L16.3598 214.6Z" fill="#7884FF"/>
<path d="M125.94 170.33C125.19 170.94 124.35 171.6 123.44 172.28H123.43C123.18 172.49 122.87 172.71 122.54 172.97C122.07 173.31 121.58 173.67 121.07 174.05C120.83 174.22 120.57 174.41 120.3 174.61C120.01 174.81 119.7 175.03 119.39 175.25C119.27 175.34 119.14 175.43 119.01 175.52C111.97 180.43 102.27 186.27 91.1298 190.51C90.1798 190.87 89.2498 191.21 88.3198 191.53C88.2698 191.55 88.2298 191.56 88.1798 191.58C87.1098 191.94 86.0398 192.29 85.0098 192.6C68.9898 197.49 56.3898 196.57 49.5598 194.78C49.2198 194.7 48.8998 194.6 48.5798 194.51C48.4798 194.47 48.3598 194.44 48.2498 194.41C48.1998 194.39 48.1498 194.37 48.0998 194.36C47.3498 194.14 46.5898 193.99 45.8298 193.78C42.7898 192.9 39.7198 191.77 36.6898 190.34C34.7598 189.44 32.9698 188.47 31.3098 187.45C27.7898 185.29 24.8498 182.9 22.4398 180.3C22.2398 180.09 22.0598 179.88 21.8698 179.67C10.8598 167.24 11.4198 150.3 17.8098 132.6C18.2298 131.45 18.6798 130.28 19.1498 129.11C20.0298 126.89 20.9998 124.67 22.0598 122.43C22.1698 122.19 22.2798 121.94 22.4098 121.7C22.4398 121.62 22.4698 121.56 22.5098 121.48C22.6098 121.28 22.7098 121.06 22.8098 120.86C23.0598 120.36 23.2998 119.87 23.5498 119.37H23.5598C24.2998 117.86 25.0798 116.36 25.8898 114.86C31.1598 105.11 34.5998 96.1899 36.8198 88.6199C38.8998 81.5499 39.9398 75.6599 40.4498 71.3499C40.9598 67.0999 40.9498 64.3999 40.9398 63.6299C40.9398 63.4799 40.9298 63.4199 40.9298 63.4199L56.4998 71.5499L57.9598 72.3099C57.9598 72.3099 55.6698 74.0799 55.4598 76.1299C55.4298 76.4299 55.4398 76.7399 55.5098 77.0499C57.5798 85.9599 63.7898 97.4899 65.4498 111.7C72.1798 169.11 109.58 169.61 124.66 167.4C125.5 167.28 129.89 166.18 130.16 166.81C130.45 167.44 126.61 169.81 125.94 170.33Z" fill="#6B78FF"/>
<path d="M48.25 194.41C47.44 194.22 46.64 194.01 45.83 193.78C42.78 192.91 39.72 191.77 36.68 190.35C34.75 189.44 32.96 188.48 31.3 187.45C27.78 185.3 24.85 182.9 22.43 180.3C22.23 180.09 22.04 179.88 21.86 179.68C10.85 167.24 11.41 150.31 17.8 132.61C18.22 131.45 18.66 130.28 19.13 129.12C20.02 126.9 20.99 124.68 22.04 122.44C22.15 122.19 22.27 121.95 22.39 121.7C22.42 121.63 22.45 121.56 22.49 121.49C22.59 121.28 22.69 121.07 22.8 120.86C23.04 120.37 23.29 119.87 23.53 119.38C24.27 117.88 25.05 116.38 25.86 114.88C40.91 87.0599 40.96 66.0199 40.92 63.6499L48.74 65.4099C48.74 65.4099 47.28 87.9999 50.43 114.91C56.78 169.1 49.2 192.2 48.23 194.42" fill="#B3B9FF"/>
<mask id="mask2_20_7498" style="mask-type:luminance" maskUnits="userSpaceOnUse" x="13" y="63" width="40" height="132">
<path d="M48.25 194.41C47.44 194.22 46.64 194.01 45.83 193.78C42.78 192.91 39.72 191.77 36.68 190.35C34.75 189.44 32.96 188.48 31.3 187.45C27.78 185.3 24.85 182.9 22.43 180.3C22.23 180.09 22.04 179.88 21.86 179.68C10.85 167.24 11.41 150.31 17.8 132.61C18.22 131.45 18.66 130.28 19.13 129.12C20.02 126.9 20.99 124.68 22.04 122.44C22.15 122.19 22.27 121.95 22.39 121.7C22.42 121.63 22.45 121.56 22.49 121.49C22.59 121.28 22.69 121.07 22.8 120.86C23.04 120.37 23.29 119.87 23.53 119.38C24.27 117.88 25.05 116.38 25.86 114.88C40.91 87.0599 40.96 66.0199 40.92 63.6499L48.74 65.4099C48.74 65.4099 47.28 87.9999 50.43 114.91C56.78 169.1 49.2 192.2 48.23 194.42" fill="white"/>
</mask>
<g mask="url(#mask2_20_7498)">
<path d="M36.8802 66.82C38.3002 66.02 39.8202 66.58 41.2002 67.19C42.7102 67.86 44.2302 68.37 45.8602 68.64C49.1602 69.17 52.5802 68.72 55.6402 67.38C56.3902 67.05 56.7702 68.27 56.0302 68.6C53.0202 69.92 49.7002 70.37 46.4502 70.01C44.8402 69.83 43.2602 69.42 41.7502 68.82C40.5602 68.35 38.8602 67.17 37.5702 67.9C36.8502 68.3 36.1702 67.22 36.8902 66.82" fill="#8792FF"/>
<path d="M37.0503 77.9798C38.0703 78.0498 39.0103 78.5098 39.9403 78.8798C40.8903 79.2498 41.8403 79.5298 42.8603 79.6498C44.7603 79.8698 46.6903 79.6898 48.5703 79.3598C52.0003 78.7598 55.2603 77.5298 57.9103 75.2098C58.8703 74.3698 57.4103 73.0298 56.4603 73.8598C54.0303 75.9798 50.8403 77.0498 47.6903 77.5098C45.8903 77.7698 44.0103 77.9398 42.2203 77.5398C41.4803 77.3798 40.7703 77.1098 40.0803 76.8398C39.0703 76.4598 38.0803 76.0698 36.9603 75.9998C35.6903 75.9198 35.7903 77.8998 37.0503 77.9798Z" fill="#8792FF"/>
<path d="M33.69 88.4999C35.32 87.4499 37.38 88.0499 39.13 88.4299C41.09 88.8499 43.06 89.0399 45.05 88.7999C49.02 88.3199 52.79 86.4699 55.42 83.4299C56.25 82.4699 54.81 81.1199 53.97 82.0799C51.4 85.0499 47.65 86.7599 43.74 86.9199C41.77 86.9999 39.94 86.5299 38.02 86.1799C36.17 85.8399 34.26 85.7699 32.62 86.8299C31.55 87.5199 32.6 89.1899 33.68 88.4999" fill="#8792FF"/>
<path d="M32.2702 98.1299C34.1002 98.0899 35.8602 98.5299 37.6202 98.9699C38.2802 99.1399 38.9502 99.2999 39.6202 99.4399C41.8102 99.8999 44.0502 99.9999 46.2702 99.7099C50.6002 99.1399 54.6502 97.3499 58.3202 95.0499C59.4002 94.3699 58.3402 92.6999 57.2602 93.3799C53.7402 95.5799 49.8102 97.3599 45.6402 97.7899C43.4802 98.0199 41.3902 97.8299 39.2802 97.3299C36.9202 96.7799 34.6102 96.0899 32.1602 96.1499C30.8902 96.1799 30.9802 98.1599 32.2502 98.1299" fill="#8792FF"/>
<path d="M27.1101 105.26C34.4901 108.92 43.4401 109.07 50.9901 105.8C53.1601 104.86 55.1901 103.67 57.0501 102.21C58.0401 101.43 56.9901 99.75 55.9901 100.54C48.1801 106.7 36.9801 107.95 28.0501 103.52C26.9101 102.95 25.9701 104.7 27.1201 105.27" fill="#8792FF"/>
<path d="M24.19 116.13C28.61 119.43 34.24 119.76 39.55 119.26C45.16 118.73 50.54 117.41 55.25 114.21C56.3 113.5 55.25 111.82 54.19 112.54C49.84 115.49 44.92 116.74 39.74 117.25C34.96 117.72 29.57 117.68 25.54 114.68C24.53 113.92 23.17 115.37 24.19 116.13Z" fill="#8792FF"/>
<path d="M19.6803 124.57C27.8803 130.22 38.5903 131.81 48.1603 129.21C50.8703 128.47 53.4803 127.38 55.9103 125.98C57.0203 125.34 55.9603 123.67 54.8503 124.31C46.6903 128.99 36.5303 129.66 27.7203 126.5C25.2003 125.6 22.8103 124.34 20.6103 122.82C19.5603 122.1 18.6403 123.85 19.6803 124.57Z" fill="#8792FF"/>
<path d="M15.3603 136.45C20.8003 138.73 26.3303 141.06 32.2003 142C37.6103 142.86 43.0503 142.33 48.3203 140.94C51.2403 140.17 54.0903 139.15 56.8803 138C56.6203 137.98 56.3703 137.95 56.1103 137.93L56.2103 137.98C56.0503 137.79 55.8903 137.6 55.7303 137.41C55.8703 137.14 56.0103 136.86 56.1503 136.59C56.4103 136.61 56.6603 136.64 56.9203 136.66L56.8203 136.61C55.6803 136.04 54.7403 137.79 55.8903 138.36C56.9303 138.87 58.1003 137.77 57.5703 136.7C57.2503 136.06 56.6203 136.02 56.0203 136.23C55.3003 136.48 54.6003 136.8 53.8803 137.07C51.1003 138.12 48.2603 139.01 45.3503 139.63C42.4603 140.24 39.4903 140.55 36.5303 140.46C33.2503 140.36 30.0103 139.68 26.8803 138.73C23.2603 137.64 19.7803 136.18 16.3003 134.72C15.1303 134.23 14.1903 135.97 15.3703 136.47" fill="#8792FF"/>
<path d="M13.0202 149.48C23.9002 154.49 36.5302 155.3 48.0002 151.88C51.2602 150.91 54.4002 149.59 57.3802 147.96C58.5002 147.35 57.4402 145.68 56.3202 146.29C46.2702 151.77 34.2402 153.32 23.0902 150.82C19.9402 150.11 16.8802 149.08 13.9502 147.73C12.8002 147.2 11.8602 148.94 13.0202 149.48Z" fill="#8792FF"/>
<path d="M12.9802 163.24C25.5002 166.45 39.0602 167.61 51.3902 162.94C54.5102 161.76 57.4802 160.23 60.2202 158.34C61.0502 157.76 60.6302 156.53 59.6402 156.51C58.8102 156.5 58.1102 156.95 57.7402 157.68C57.1602 158.81 58.9102 159.75 59.4902 158.61C59.5102 158.47 59.5902 158.43 59.7402 158.49C59.5502 157.88 59.3602 157.27 59.1602 156.66C49.0802 163.63 36.3802 165.07 24.4802 163.5C20.7502 163.01 17.0602 162.24 13.4102 161.3C12.1802 160.98 11.7402 162.91 12.9702 163.23" fill="#8792FF"/>
<path d="M15.3601 176.22C27.6701 179.32 40.9601 177.64 52.2301 171.87C55.4501 170.22 58.4801 168.23 61.2601 165.93C61.9801 165.34 61.7601 164.06 60.6801 164.1C60.1301 164.12 59.5701 164.14 59.0201 164.17C57.7501 164.22 57.8401 166.2 59.1101 166.15C59.6601 166.13 60.2201 166.11 60.7701 166.08C60.5801 165.47 60.3901 164.86 60.1901 164.25C50.6901 172.09 38.3901 176.16 26.0901 175.75C22.6101 175.63 19.1501 175.13 15.7701 174.28C14.5301 173.97 14.1001 175.9 15.3301 176.21" fill="#8792FF"/>
<path d="M30.0403 192.82C32.9103 193.17 35.6903 192.5 38.3403 191.41C40.9903 190.33 43.5603 189.01 46.0403 187.59C50.9803 184.76 55.5903 181.34 59.7503 177.45C61.9803 175.37 64.8703 172.96 64.8303 169.63C64.8103 168.36 62.8403 168.45 62.8503 169.72C62.8803 172.26 60.1903 174.32 58.5103 175.9C56.5803 177.72 54.5503 179.43 52.4303 181.02C48.2803 184.13 43.7803 186.83 39.0503 188.96C36.3803 190.16 33.4603 191.24 30.4803 190.88C29.2303 190.73 28.7803 192.66 30.0403 192.81V192.82Z" fill="#8792FF"/>
<mask id="mask3_20_7498" style="mask-type:luminance" maskUnits="userSpaceOnUse" x="39" y="63" width="2" height="14">
<path d="M40.7502 68.3699C40.5802 70.5199 40.2502 73.3299 39.6602 76.6799C40.2602 73.3199 40.5802 70.5199 40.7502 68.3699ZM40.9402 63.6399C40.9402 64.0999 40.9502 65.2599 40.8402 67.0499C40.9502 65.2699 40.9402 64.1099 40.9402 63.6499" fill="white"/>
</mask>
<g mask="url(#mask3_20_7498)">
<path d="M40.9447 63.6413L38.0845 76.333L39.6648 76.6892L42.525 63.9975L40.9447 63.6413Z" fill="#C5CAFF"/>
</g>
<path d="M23.5503 119.37C24.0003 118.46 24.4603 117.56 24.9303 116.65Z" fill="#C5CAFF"/>
<path d="M40.8503 67.0398C40.8303 67.4498 40.7903 67.8898 40.7603 68.3698C40.8003 67.8998 40.8303 67.4498 40.8503 67.0398Z" fill="#A3ACFF"/>
<g style="mix-blend-mode:multiply" opacity="0.28">
<path d="M13.5902 149.74C13.6702 149.06 13.7602 148.38 13.8602 147.7C14.1002 146.12 14.4002 144.53 14.7602 142.92C15.2102 140.92 15.7502 138.91 16.3802 136.88C16.5702 136.25 16.7702 135.63 16.9802 135L19.8902 125.61L24.4102 116.31C24.5402 116.4 24.7302 116.52 24.9402 116.65C25.2402 116.08 25.5502 115.5 25.8602 114.93C25.8602 114.91 25.8802 114.9 25.8802 114.88C27.4302 112.02 28.8202 109.23 30.0702 106.52C30.3502 105.91 30.6202 105.31 30.8902 104.72C31.8802 102.48 32.7802 100.3 33.5902 98.1899C33.8402 97.5499 34.0702 96.9099 34.3002 96.2899C35.3602 93.3899 36.2502 90.6199 37.0102 88.0199C37.2002 87.3799 37.3702 86.7399 37.5402 86.1199C37.9902 84.4499 38.3802 82.8599 38.7202 81.3499C38.9302 80.4099 39.1202 79.4999 39.3002 78.6299C39.2102 79.0799 39.1202 79.5399 39.0202 79.9999C39.0202 79.9999 39.0202 79.9999 39.0302 79.9999C39.2002 80.0399 39.3702 80.0799 39.5402 80.1299C39.1302 81.9599 38.6202 84.0299 38.0502 86.1999C37.8902 86.8299 37.7202 87.4599 37.5402 88.1099C36.8002 90.8599 35.9902 93.7199 35.1802 96.4199C34.9902 97.0599 34.8002 97.6999 34.6002 98.3199C33.8102 100.89 33.0402 103.26 32.3602 105.19C32.1202 105.86 31.8902 106.49 31.6802 107.05C31.3802 107.84 31.1002 108.5 30.8602 109.01C30.1902 110.42 28.8202 112.73 27.1502 115.73C26.8502 116.27 26.5302 116.84 26.2102 117.43C25.9402 117.92 25.6702 118.43 25.4002 118.95L19.1502 132.91C18.8402 133.78 18.5502 134.66 18.2602 135.55C18.0602 136.18 17.8702 136.81 17.6902 137.45C16.6802 140.99 15.9102 144.69 15.5702 148.47C15.5102 149.16 15.4602 149.85 15.4202 150.54C15.2402 154.22 15.4702 157.96 16.2802 161.68C16.3102 161.8 16.3302 161.93 16.3602 162.05C16.5202 162.78 16.6902 163.49 16.8702 164.19C17.9602 168.46 19.3202 172.15 20.8002 175.32C21.1402 176.06 21.4902 176.76 21.8502 177.44C22.9702 179.58 24.1302 181.45 25.2702 183.08C24.2502 182.19 23.3102 181.27 22.4302 180.33C22.2302 180.12 22.0402 179.91 21.8602 179.71C21.1302 178.88 20.4402 178.03 19.8102 177.16C19.2702 176.41 18.7602 175.66 18.2902 174.88C16.1302 171.34 14.7202 167.53 13.9502 163.51C13.8202 162.81 13.7002 162.1 13.6102 161.38C13.1102 157.66 13.1302 153.77 13.5902 149.76V149.74Z" fill="#4552FF"/>
</g>
</g>
<path d="M55.4598 76.1399C55.4298 76.4399 55.4398 76.7499 55.5098 77.0499C55.4398 76.7399 55.4298 76.4399 55.4598 76.1399Z" fill="#970083"/>
<path d="M41.0701 67.1399C41.0701 67.1399 41.1501 67.1799 41.1901 67.1899C42.4001 67.7299 43.6201 68.1699 44.9001 68.4499C45.2101 68.5199 45.5301 68.5799 45.8601 68.6299C46.7701 68.7799 47.6801 68.8499 48.6001 68.8499C48.5901 69.2399 48.5701 69.6699 48.5601 70.1199C47.8501 70.1199 47.1501 70.0799 46.4401 69.9999C45.8001 69.9299 45.1601 69.8199 44.5301 69.6799C43.5801 69.4699 42.6501 69.1799 41.7401 68.8099C41.5301 68.7299 41.3001 68.6199 41.0601 68.4999C41.0601 68.0199 41.0701 67.5599 41.0701 67.1199" fill="#5863FF"/>
<path d="M40.7502 68.3699C40.8502 68.4199 40.9602 68.4699 41.0602 68.5199C41.0602 68.5299 41.0602 68.5499 41.0602 68.5599C41.0102 71.2799 40.7302 73.9899 40.2502 76.6699C40.2402 76.7399 40.2202 76.8199 40.2102 76.8899C40.1602 76.8699 40.1202 76.8599 40.0702 76.8399C39.9302 76.7899 39.8002 76.7399 39.6602 76.6799C40.2602 73.3199 40.5802 70.5199 40.7502 68.3699ZM40.9402 63.6399H40.9602C41.0302 64.5899 41.0702 65.7399 41.0702 67.1399C41.0002 67.1099 40.9202 67.0699 40.8402 67.0399C40.9502 65.2599 40.9402 64.0899 40.9402 63.6299" fill="#8089FF"/>
<path d="M39.3 78.6099C39.47 78.6799 39.65 78.7499 39.82 78.8199C39.73 79.2399 39.64 79.6699 39.54 80.1099C39.37 80.0599 39.2 80.0199 39.03 79.9799C39.03 79.9799 39.03 79.9799 39.02 79.9799C39.12 79.5099 39.21 79.0599 39.3 78.6099Z" fill="#8089FF"/>
<path d="M40.8498 67.04C40.9298 67.07 40.9998 67.1 41.0798 67.14C41.0798 67.57 41.0798 68.03 41.0698 68.52C40.9698 68.47 40.8698 68.42 40.7598 68.37C40.7998 67.9 40.8298 67.45 40.8498 67.04Z" fill="#6A75FF"/>
<path d="M39.6598 76.6799C39.7998 76.7299 39.9298 76.7799 40.0698 76.8399C40.1198 76.8599 40.1598 76.8699 40.2098 76.8899C40.0998 77.4899 39.9698 78.1399 39.8198 78.8299C39.6498 78.7599 39.4698 78.6899 39.2998 78.6199C39.4298 77.9599 39.5498 77.3099 39.6598 76.6899" fill="#6A75FF"/>
<path d="M86.1398 165.75C85.8398 167.08 84.5098 167.92 83.1798 167.62C81.8498 167.32 81.0098 165.99 81.3098 164.66C81.6098 163.33 82.9398 162.49 84.2698 162.79C85.5998 163.09 86.4398 164.42 86.1398 165.75Z" fill="#FF0090"/>
<path d="M85.53 176.69C86.3529 176.69 87.02 176.023 87.02 175.2C87.02 174.377 86.3529 173.71 85.53 173.71C84.7071 173.71 84.04 174.377 84.04 175.2C84.04 176.023 84.7071 176.69 85.53 176.69Z" fill="#FF0090"/>
<path d="M90.31 170.3C90.18 170.87 89.62 171.22 89.05 171.09C88.48 170.96 88.13 170.4 88.26 169.83C88.39 169.26 88.95 168.91 89.52 169.04C90.09 169.17 90.44 169.73 90.31 170.3Z" fill="#FF0090"/>
<path d="M89.78 190.53C89.78 190.61 89.15 190.98 88.17 191.59C84.45 193.9 75.54 199.66 75.32 205.77C75.11 211.62 74.62 216.66 74.25 217.98C74.22 218.1 74.1801 218.19 74.1601 218.24C73.1401 219.93 71.76 221.33 70.08 222.3C69.69 222.53 69.28 222.71 68.86 222.89C67.23 223.58 64.07 224.46 60.96 224.96C59.13 225.25 57.31 225.41 55.82 225.31C55.01 225.26 54.29 225.12 53.73 224.9C53.42 224.77 53.15 224.62 52.95 224.42C52.86 224.34 52.79 224.27 52.73 224.18C52.67 224.1 52.62 224.02 52.57 223.94C52.54 223.88 52.51 223.81 52.48 223.75C52.45 223.67 52.43 223.59 52.4 223.52C52.38 223.42 52.36 223.33 52.35 223.25C52.35 223.18 52.35 223.12 52.35 223.04V222.95C52.35 222.88 52.35 222.82 52.35 222.76C52.5 220.75 54.77 218.13 55.17 215.81C55.56 213.6 54.04 211.82 52.82 208.61C52.63 208.11 52.45 207.62 52.27 207.13C50.73 202.89 49.62 198.99 49.48 196.36C49.45 195.76 49.46 195.22 49.55 194.77C49.55 194.69 49.55 194.62 49.58 194.55C49.82 194.4 84.13 191.05 89.14 190.56C89.54 190.52 89.76 190.5 89.76 190.5L89.78 190.53Z" fill="#6B78FF"/>
<path d="M52.95 224.41C50.89 220.56 60.25 213.65 58.18 212.71C56.71 212.05 54.82 208.66 53.85 206.75C53.45 205.97 53.2 205.43 53.2 205.43C51.32 202.6 49.6 194.56 49.6 194.56C49.08 196.95 50.34 201.76 52.29 207.13C52.47 207.62 52.65 208.11 52.84 208.61C54.06 211.82 55.58 213.59 55.19 215.81C54.79 218.13 52.52 220.76 52.36 222.76C52.36 222.83 52.35 222.89 52.36 222.95V223.04C52.36 223.11 52.36 223.17 52.37 223.24C52.37 223.33 52.4 223.42 52.42 223.51C52.44 223.59 52.46 223.66 52.49 223.74C52.52 223.8 52.55 223.87 52.58 223.93C52.62 224.01 52.68 224.09 52.73 224.16C52.79 224.24 52.86 224.32 52.94 224.4L52.95 224.41Z" fill="#7884FF"/>
<path opacity="0.48" d="M123.43 172.3C123.18 172.5 122.87 172.72 122.54 172.98C122.11 173.29 121.62 173.66 121.07 174.06C120.83 174.24 120.57 174.42 120.3 174.62C120.02 174.83 119.7 175.04 119.39 175.27C119.27 175.36 119.15 175.45 119.01 175.53C111.98 180.45 102.28 186.29 91.1301 190.53C90.1801 190.88 89.2501 191.23 88.3201 191.55C88.2701 191.57 88.2301 191.58 88.1801 191.6C84.4601 193.91 75.5501 199.67 75.3301 205.78C75.1201 211.63 74.6301 216.67 74.2601 217.99C74.2301 218.11 74.1901 218.2 74.1701 218.25C73.1501 219.94 71.7701 221.34 70.0901 222.31C69.7001 222.54 69.2901 222.72 68.8701 222.9C67.2401 223.59 64.0801 224.47 60.9701 224.97C59.1401 225.26 57.3201 225.42 55.8301 225.32C61.6201 225.02 69.3601 223.54 73.2301 218.22C75.2301 215.46 72.0501 205.79 74.8301 201.09C76.7601 197.8 80.3001 194.82 85.0201 192.63C86.2301 192.06 87.6501 191.39 89.1801 190.61C101.71 184.37 123.02 172.52 123.45 172.32L123.43 172.3Z" fill="#4F5FFF"/>
<g style="mix-blend-mode:multiply" opacity="0.42">
<path d="M57.3698 90.62L54.0898 99.9C54.0898 99.9 38.7898 92.15 37.1598 89.22C37.0598 89.03 36.9498 88.83 36.8198 88.62C38.8998 81.55 39.9398 75.66 40.4498 71.35L40.7598 71.05L56.4998 71.55L57.9598 72.31C57.9598 72.31 55.6698 74.08 55.4598 76.13C55.4598 76.13 50.5998 78.11 49.9598 80.92C49.3298 83.73 57.3698 90.62 57.3698 90.62Z" fill="#7B80B8"/>
</g>
<path d="M64.7402 65.6399C64.7402 65.6399 69.4202 73.5199 68.3702 78.0499C67.3202 82.5699 55.2002 70.0599 55.2002 70.0599L64.7402 65.6499V65.6399Z" fill="#E80083"/>
<path d="M76.3203 36.25C76.3203 36.25 85.4303 35.19 89.1303 37.99C92.8403 40.79 76.4603 46.76 76.4603 46.76L76.3203 36.25Z" fill="#FF0090"/>
<path d="M70.3004 55.4199C70.3004 55.4199 78.7204 59.0399 80.5404 63.3099C82.3604 67.5799 65.1904 64.5999 65.1904 64.5999L70.3004 55.4199Z" fill="#E80083"/>
<path d="M61.69 22.7699C59.61 23.8399 64.56 19.1899 63.59 14.5599C60.74 0.959929 53.68 1.35993 55.76 0.28993C57.84 -0.78007 64.45 0.59993 70.79 12.9599C77.13 25.3199 63.77 21.6899 61.69 22.7599V22.7699Z" fill="#FF0090"/>
<path d="M63.1701 24.4898C60.8601 24.1098 67.6001 23.3098 69.5701 19.0098C75.3401 6.36983 69.4201 2.49983 71.7301 2.87983C74.0401 3.25983 78.5401 8.28983 76.3201 21.9998C74.1001 35.7098 65.4901 24.8698 63.1801 24.4898H63.1701Z" fill="#FF0090"/>
<path d="M65.43 27.48C63.48 26.18 69.95 28.24 73.52 25.14C84.01 16.03 80.23 10.06 82.17 11.36C84.12 12.66 86.13 19.1 78.42 30.66C70.71 42.22 67.37 28.78 65.43 27.48Z" fill="#FF0090"/>
<path d="M67.8303 29.99C66.4503 28.1 71.4803 31 75.4303 29.67C87.0403 25.75 85.9603 21.87 87.3403 23.76C88.7203 25.65 88.2603 30.66 78.4703 37.8C68.6803 44.94 69.2203 31.88 67.8403 29.99H67.8303Z" fill="#FF0090"/>
<path d="M52.6101 24.4399C50.3001 24.8199 56.5101 22.3699 57.1901 18.7699C59.1801 8.21988 52.4401 7.13988 54.7601 6.75988C57.0701 6.37988 62.7701 8.67988 64.4701 18.9999C66.1701 29.3199 54.9301 24.0599 52.6201 24.4399H52.6101Z" fill="#FF0090"/>
<path d="M103.16 51.2599C103.13 51.3299 103.05 50.8199 102.66 50.5599C100.77 49.3299 94.8602 46.5499 92.0102 45.7599C86.3602 44.1899 80.3302 47.6899 78.1402 49.0399C77.4402 49.4699 77.5502 52.1599 77.5902 53.4199C77.5002 53.3099 77.4002 53.1999 77.3102 53.0899C77.2302 52.9999 77.1502 52.9099 77.0802 52.8099C75.8202 51.2399 76.2302 49.7899 77.1402 48.2599C77.9502 46.8999 79.0302 41.1999 79.1002 40.8699C79.1702 40.9999 80.7202 44.0299 83.6102 43.3599C87.7202 42.4199 90.5002 42.4699 93.3302 43.4199C97.9102 44.9499 101.05 48.3399 102.74 50.2099L102.8 50.2799C103.04 50.5499 103.16 50.8999 103.16 51.2499V51.2599Z" fill="#6B78FF"/>
<path d="M76.0703 62.12C68.3603 72.9 54.6503 77.15 41.3103 74.19C40.2903 73.96 39.2703 73.7 38.2503 73.38C34.1603 72.12 30.1403 70.17 26.4003 67.49C25.4503 66.82 24.5503 66.12 23.6803 65.4C12.7103 56.34 7.40032 43.66 9.88032 31.46C10.4903 28.46 13.3803 28.39 16.0603 27.3C17.0303 26.91 17.9703 26.39 18.7603 25.53C19.6103 24.6 20.3503 23.4 21.0803 22.04C22.0303 18.63 24.0503 14.92 26.4203 11.69C31.4903 4.78999 43.6603 4.78999 48.5203 11.29C51.7003 15.55 51.0203 16.8 53.7803 16.26C60.2303 15.01 66.2503 18.72 68.4403 20.49C72.3403 23.64 73.8903 26.62 76.7503 32.11C79.6203 37.6 82.1003 53.69 76.0803 62.12H76.0703Z" fill="#6B78FF"/>
<path d="M64.6001 22.22C66.8501 23.18 68.7001 24.86 69.8001 27.09C70.7901 29.08 71.5901 32.15 70.6401 34.08C70.4201 34.52 69.7801 33.96 69.7801 33.11C69.7801 31.65 68.9601 28.98 67.4201 27.92C66.0101 26.95 64.3501 26.05 62.8201 25.38C59.5601 23.95 62.9201 21.51 64.6001 22.22Z" fill="#1C30FF"/>
<path d="M42.76 10.69C41 9.17002 38.79 8.33002 36.45 8.41002C34.35 8.48002 31.43 9.22002 30.22 10.97C29.95 11.37 30.69 11.67 31.4 11.27C32.62 10.58 35.22 10.04 36.76 10.9C38.17 11.68 39.64 12.72 40.86 13.75C43.45 15.94 44.07 11.83 42.76 10.7V10.69Z" fill="#1C30FF"/>
<path d="M100.55 58.6C99.2703 58.88 97.3703 59.22 95.2803 59.38C95.3903 60 95.4703 60.56 95.5403 61.03C95.6503 61.81 95.0003 62.36 94.2503 62.45C92.7903 62.64 89.9503 63.13 88.3803 61.17C85.7503 57.89 87.5403 61.37 86.9303 62.36C86.1403 63.63 82.8803 62.33 82.1303 59.74C81.6903 58.23 81.6003 56.61 77.5903 53.43C77.5503 52.17 77.4403 49.49 78.1403 49.05C80.3303 47.7 86.3603 44.2 92.0103 45.77C94.8503 46.56 100.76 49.34 102.66 50.57C103.05 50.83 103.13 51.33 103.16 51.27C103.15 51.78 102.88 52.3 102.39 52.58C101.79 52.93 101.03 53.34 100.17 53.77C100.75 54.89 101.22 55.87 101.55 56.63C101.92 57.44 101.42 58.42 100.56 58.61L100.55 58.6Z" fill="#828DFF"/>
<path d="M39.1104 28.3099C36.6704 32.8999 34.2504 34.6399 27.5604 31.0799C20.8704 27.5199 20.9604 24.5399 23.4004 19.9499C25.8404 15.3599 32.4104 11.4899 36.7504 13.7999C41.0904 16.1099 41.5504 23.7199 39.1104 28.3099Z" fill="#3647FF"/>
<path d="M38.95 28.26C36.64 32.6 34.36 34.25 28.03 30.88C21.7 27.51 21.79 24.7 24.1 20.36C26.41 16.02 32.62 12.36 36.72 14.54C40.82 16.72 41.26 23.92 38.95 28.26Z" fill="white"/>
<path d="M31.0818 30.7391C34.4148 29.7213 36.2917 26.1944 35.2739 22.8614C34.2562 19.5284 30.7293 17.6515 27.3963 18.6692C24.0633 19.6869 22.1864 23.2139 23.2041 26.5469C24.2218 29.8799 27.7488 31.7568 31.0818 30.7391Z" fill="#E80083"/>
<path d="M33.8902 27.2201C32.4902 29.7901 29.2802 30.7401 26.7102 29.3401C24.1402 27.9401 23.1902 24.7301 24.5902 22.1601C25.9902 19.5901 29.2002 18.6401 31.7702 20.0401C34.3402 21.4401 35.2902 24.6501 33.8902 27.2201Z" fill="#00074D"/>
<path d="M28.2205 21.67C28.5605 21.66 28.8705 22.27 28.8905 23.03C28.9205 23.8 28.6605 24.43 28.3105 24.44C27.9705 24.45 27.6605 23.84 27.6405 23.08C27.6105 22.31 27.8705 21.68 28.2205 21.67Z" fill="white"/>
<path d="M28.1606 19.8301C28.5006 19.8201 28.7906 20.0501 28.8006 20.3401C28.8106 20.6301 28.5406 20.8801 28.1906 20.8901C27.8506 20.9001 27.5606 20.6701 27.5506 20.3801C27.5406 20.0901 27.8106 19.8401 28.1606 19.8301Z" fill="white"/>
<path d="M47.7 32.5598C43.57 37.3298 42.65 40.8198 49.6 46.8398C56.55 52.8598 59.87 51.4598 64 46.6898C68.13 41.9198 69.65 32.7998 65.14 28.8998C60.64 24.9998 51.83 27.7898 47.69 32.5598H47.7Z" fill="#3647FF"/>
<path d="M47.8203 32.73C43.9103 37.24 43.0503 40.53 49.6103 46.23C56.1803 51.92 59.3203 50.6 63.2303 46.09C67.1403 41.58 68.5703 32.96 64.3103 29.27C60.0503 25.58 51.7203 28.22 47.8203 32.73Z" fill="white"/>
<path d="M60.3213 42.0291C61.2413 37.8999 58.6396 33.8067 54.5104 32.8867C50.3811 31.9667 46.2879 34.5684 45.3679 38.6976C44.4479 42.8269 47.0496 46.9201 51.1788 47.8401C55.3081 48.76 59.4013 46.1584 60.3213 42.0291Z" fill="#E80083"/>
<path d="M52.8401 46.8399C56.4134 46.8399 59.3101 43.9432 59.3101 40.3699C59.3101 36.7966 56.4134 33.8999 52.8401 33.8999C49.2668 33.8999 46.3701 36.7966 46.3701 40.3699C46.3701 43.9432 49.2668 46.8399 52.8401 46.8399Z" fill="#00074D"/>
<path d="M52.34 36.14C52.02 36.03 51.57 36.51 51.33 37.22C51.09 37.92 51.15 38.58 51.46 38.69C51.78 38.8 52.23 38.32 52.47 37.61C52.71 36.91 52.65 36.25 52.34 36.14Z" fill="white"/>
<path d="M52.9199 34.45C52.5999 34.34 52.2699 34.47 52.1799 34.74C52.0899 35.01 52.2699 35.32 52.5899 35.43C52.9099 35.54 53.2399 35.41 53.3299 35.14C53.4199 34.87 53.2399 34.56 52.9199 34.45Z" fill="white"/>
<path d="M40.6302 72.83C39.8402 73.05 39.0402 73.24 38.2402 73.38C35.2802 73.91 32.1702 73.89 29.0702 73.1C27.7802 72.76 26.2602 72.23 24.6002 71.37C20.6302 69.34 15.8502 65.5 11.3202 58.22C3.29019 45.31 4.49019 38.6 7.24019 31.82C8.29019 29.25 11.7002 27.77 16.0402 27.3C23.1502 26.52 32.7502 28.43 38.5402 32.65C46.7602 38.62 54.6302 52.29 58.5602 55.1C61.9602 57.52 52.7902 69.44 40.6202 72.84L40.6302 72.83Z" fill="#6B78FF"/>
<mask id="mask4_20_7498" style="mask-type:luminance" maskUnits="userSpaceOnUse" x="5" y="27" width="55" height="47">
<path d="M7.25029 31.8199C10.0103 25.0399 29.2103 25.8499 38.5503 32.6399C46.7703 38.6199 54.6403 52.2899 58.5703 55.0899C63.0003 58.2399 46.1503 77.4699 29.0803 73.0999C24.6803 71.9699 17.7303 68.5299 11.3203 58.2299C3.29029 45.3299 4.49029 38.6099 7.25029 31.8299" fill="white"/>
</mask>
<g mask="url(#mask4_20_7498)">
<path d="M48.8705 41.7698C49.8905 38.1098 45.0605 35.0898 42.7005 33.1298C39.4705 30.4498 36.0105 28.0898 32.2405 26.2398C29.8305 25.0598 18.2305 20.8898 14.1605 23.2298C12.0005 22.7498 10.1205 25.7998 12.3105 27.1498C13.6705 27.9898 14.6605 29.7998 15.5005 31.0998C16.4805 32.6098 18.1905 34.5798 19.7205 35.4998C23.0505 37.4798 25.7605 37.9398 29.4805 38.8598C33.4405 39.8398 37.1605 40.9498 40.8405 42.7498C43.4005 43.9998 47.7405 45.8198 48.8605 41.7798L48.8705 41.7698Z" fill="#828DFF"/>
<path d="M29.2103 43.6799C29.3303 43.3099 29.3503 42.0599 28.2003 41.3699C27.0503 40.6799 26.2403 41.1699 25.5403 41.5999C25.1303 41.8499 26.0903 42.4299 26.5803 42.4699H26.6203C26.6203 42.4699 26.7103 42.5099 26.7503 42.5199C26.9003 42.6099 26.5303 43.3699 26.5103 43.5899C26.5003 43.7999 26.7403 44.6099 27.6903 44.8099C28.8303 45.0399 29.1203 43.8999 29.2003 43.6699L29.2103 43.6799Z" fill="#99A2FF"/>
<path d="M17.1006 35.2097C17.1306 34.5997 16.7706 34.0097 16.3506 33.6897C15.9306 33.3697 15.4906 33.1197 15.0406 33.0997C14.7506 33.0897 14.0606 32.9697 13.4606 33.6097C13.1706 33.9197 12.8306 34.3697 13.0706 34.7197C14.2406 36.3697 16.0306 36.0197 16.2406 36.0097C16.6706 35.9897 17.0706 35.6597 17.0906 35.2097H17.1006Z" fill="#99A2FF"/>
<path d="M61.0104 55.0398C59.3604 54.5698 58.1204 53.1598 56.9904 51.9398C55.7804 50.6298 54.6704 49.2198 53.5904 47.7998C51.5104 45.0498 49.5104 42.2398 47.1604 39.7098C42.7004 34.9098 37.3004 30.9298 31.2504 28.3698C27.8804 26.9498 24.3004 26.0098 20.6604 25.6098C19.5204 25.4898 19.3604 27.2598 20.5004 27.3798C26.8904 28.0698 32.9604 30.5798 38.2104 34.2398C40.8604 36.0798 43.3104 38.1998 45.5204 40.5498C47.8804 43.0598 49.8904 45.8398 51.9604 48.5898C53.1404 50.1498 54.3504 51.6998 55.6804 53.1298C57.0004 54.5498 58.4704 56.1498 60.4004 56.7098C61.4904 57.0198 62.1204 55.3598 61.0104 55.0398Z" fill="#1C30FF"/>
<path d="M16.7006 28.0999C16.2706 27.9999 16.1306 28.9999 17.0706 30.9399C18.0106 32.8699 19.4906 34.5099 23.2906 35.4299C23.7606 35.5399 29.5106 36.8998 29.3706 35.7998C29.3006 35.2198 24.6106 33.3599 21.5206 31.5199C18.6806 29.8299 18.0606 28.4199 16.7006 28.1099V28.0999Z" fill="#919BFF"/>
</g>
<path d="M23.7001 43.2199C23.3301 43.1999 23.1901 42.7199 23.5001 42.5099C24.5901 41.7999 26.3501 40.9699 27.3801 42.1399C28.9501 43.9299 27.7901 44.6099 27.0301 44.1499C26.3901 43.7599 25.5401 43.2899 23.7001 43.2099V43.2199Z" fill="#00074D"/>
<path d="M15.7402 37.95C15.8602 38.28 16.3302 38.24 16.4402 37.88C16.7902 36.64 17.0702 34.75 15.7302 34.23C13.6902 33.44 13.3802 34.73 14.0002 35.25C14.5202 35.69 15.1802 36.3 15.7502 37.94L15.7402 37.95Z" fill="#00074D"/>
<path d="M28.9504 41.24C30.9004 41.76 31.1204 44.28 29.5404 45.3C29.0704 45.61 28.4704 45.76 27.9404 45.6C30.0304 45.12 30.8304 42.6 28.9504 41.23V41.24Z" fill="#1C30FF"/>
<path d="M15.8403 32.95C14.7103 31.42 12.4103 32.16 12.0603 33.94C11.9503 34.47 12.0303 35.06 12.3503 35.47C12.0403 33.45 13.9803 31.81 15.8403 32.96V32.95Z" fill="#1C30FF"/>
<path d="M52.5702 57.2199C50.3702 57.8299 50.3202 55.9499 48.8002 52.7999C47.3702 49.8299 45.8202 48.5299 46.4002 47.8299C47.4102 46.5999 49.2702 48.1099 51.2602 50.7299C53.2502 53.3499 54.1002 56.7899 52.5702 57.2199Z" fill="#828DFF"/>
<path d="M91.1602 48.6099C92.6802 49.2699 97.1902 51.1399 99.1002 52.7099C100.97 54.2399 101.79 56.6499 101.6 56.7699C101.28 56.9599 100.34 52.5999 92.0602 49.8299C89.2602 48.8899 83.7602 47.7399 81.5302 47.4299C81.0602 47.3699 80.6702 47.6999 80.6902 47.6399C80.8002 47.3299 80.9402 47.2099 81.3902 47.1499C83.5902 46.8399 88.7302 47.5599 91.1502 48.6199L91.1602 48.6099Z" fill="#6E7BFF"/>
<path d="M87.6303 52.1999C88.9503 52.9999 92.6803 55.3899 94.0803 57.2399C95.4503 59.0499 95.6803 61.4899 95.4803 61.5599C95.1503 61.6799 96.2903 57.9899 88.3203 53.1599C85.9803 51.7499 81.2603 49.5899 79.3103 48.8799C78.9003 48.7299 78.4103 48.8499 78.4403 48.7899C78.6003 48.5199 78.6303 48.5199 79.0603 48.5599C80.5103 48.7099 85.6903 51.0199 87.6303 52.1899V52.1999Z" fill="#6E7BFF"/>
<path d="M103.16 51.26C103.13 51.33 103.05 50.8201 102.66 50.5601C100.77 49.3301 94.8602 46.55 92.0102 45.76C86.3602 44.19 80.3202 47.6701 78.1402 49.0401C77.6102 49.3701 77.5702 51.5701 77.6002 52.8301C77.6202 53.2101 77.6202 53.47 77.6002 53.48C77.4902 53.54 77.4002 53.12 77.3302 52.5C77.2002 51.38 77.1502 50.19 77.2502 49.48C77.4002 48.37 83.5002 45.2801 85.1302 44.9001C88.6802 44.0801 92.0102 44.5301 93.5302 45.2001C95.8702 46.2101 101.02 48.55 102.74 50.21C102.82 50.29 102.88 50.36 102.95 50.43C103.25 50.77 103.28 50.95 103.17 51.25L103.16 51.26Z" fill="#1C30FF"/>
<path d="M58.7803 1.61991C58.7803 1.61991 62.1303 2.96991 64.6803 5.77991C67.0603 8.39991 68.5403 12.3899 68.4803 14.6499C68.3903 18.1199 66.6303 18.0399 65.9703 17.4099C64.2103 15.7299 66.9603 10.7099 62.6903 5.96991C59.8503 2.81991 56.1403 0.629907 58.7703 1.60991L58.7803 1.61991Z" fill="#FF87CB"/>
<path d="M74.9501 8.84001C75.5901 9.13001 75.7601 12.38 75.2101 15.96C74.6301 19.74 73.9901 20.69 72.6901 20.03C71.0001 19.18 72.2001 18.05 73.2801 15.35C74.1801 13.09 74.3101 8.55001 74.9601 8.83001L74.9501 8.84001Z" fill="#FF87CB"/>
<path d="M37.5402 62.3998C36.2902 61.1698 35.0102 60.0398 33.5402 59.0698C32.5802 58.4598 31.6102 57.8398 30.3802 57.8198C28.3102 57.8598 27.1602 59.9398 26.9702 61.7498C27.0602 61.9398 27.1602 62.1198 27.3002 62.2898C28.0202 63.2998 29.3002 64.0098 30.4302 64.4498C32.0802 65.0398 33.8002 64.6698 35.3502 63.9298C36.1002 63.5698 36.8102 63.1198 37.4602 62.6698C37.5302 62.6198 37.6402 62.4698 37.5302 62.3898L37.5402 62.3998ZM33.0902 63.9598C32.2602 64.0498 31.4302 64.0198 30.6102 63.8398C29.5702 63.5898 28.3002 63.1598 27.5602 62.2998C27.4102 62.1298 27.2902 61.9498 27.1802 61.7398C27.4202 60.2498 28.7802 58.8298 30.3502 59.0598C32.8002 59.4498 35.0602 60.8498 37.0902 62.2598C37.1702 62.3098 37.3002 62.4498 37.3502 62.4798C36.0802 63.2398 34.5902 63.7998 33.0902 63.9498V63.9598Z" fill="#1C30FF"/>
<path d="M27.0703 61.6999C27.0203 62.1499 28.9803 64.1999 31.9103 64.3899C34.3603 64.5499 37.5203 62.6599 37.4903 62.4899C37.4803 62.3999 34.9503 60.2599 32.6303 59.1299C32.2603 58.9499 31.8903 58.7899 31.5503 58.6799C31.1203 58.5399 30.7303 58.4499 30.3703 58.4399C29.9203 58.4399 29.5203 58.5199 29.1803 58.6599C27.5303 59.3699 27.0903 61.5299 27.0703 61.6899V61.6999Z" fill="#00074D"/>
<path d="M37.3202 63.8699C35.0102 66.4699 32.0002 67.9899 29.1602 65.1599C29.4302 65.4699 29.6702 65.7999 29.9902 66.0699C32.4002 68.3499 35.9602 66.2699 37.3202 63.8699Z" fill="#1C30FF"/>
<path d="M29.1802 58.6599C29.2202 58.7299 29.2802 58.8099 29.3602 58.8799C29.5002 59.0099 29.7002 59.1399 29.8302 59.2199C29.9202 59.2799 30.0302 59.2399 30.0902 59.1599C30.1602 59.0199 30.2602 58.8299 30.3202 58.6399C30.3402 58.5699 30.3602 58.5099 30.3702 58.4399C29.9202 58.4399 29.5202 58.5199 29.1802 58.6599Z" fill="white"/>
<path d="M31.5503 58.6799C31.5503 58.7699 31.5703 58.8699 31.6003 58.9699C31.6603 59.1499 31.7703 59.3599 31.8503 59.4999C31.9003 59.5899 32.0103 59.6199 32.1003 59.5599C32.2303 59.4799 32.4103 59.3499 32.5503 59.2199C32.5803 59.1899 32.6103 59.1599 32.6303 59.1199C32.2603 58.9399 31.8903 58.7799 31.5503 58.6699V58.6799Z" fill="white"/>
<g style="mix-blend-mode:multiply" opacity="0.42">
<path d="M41.2999 74.1899C40.2799 73.9599 39.2599 73.6999 38.2399 73.3799C35.2799 73.9099 32.1699 73.8899 29.0699 73.0999C27.7799 72.7599 26.2599 72.2299 24.5999 71.3699C23.9599 70.1499 23.1299 68.2899 23.2299 67.1499C23.2699 66.6099 23.4299 65.9999 23.6699 65.3999C24.2199 63.9099 25.1499 62.4599 25.6999 62.3699C25.9699 62.3299 26.5899 62.2899 27.3099 62.2999C28.0299 63.3099 29.3099 64.0199 30.4399 64.4599C32.0899 65.0499 33.8099 64.6799 35.3599 63.9399C35.4799 63.9099 35.5899 63.8899 35.6899 63.8499C36.6699 63.4599 38.1999 64.9099 38.3199 66.3899C38.4099 67.4099 39.6099 70.6199 40.6299 72.8299C40.8699 73.3599 41.1099 73.8199 41.2999 74.1899Z" fill="#7B80B8"/>
</g>
<path d="M35.5798 68.7698C34.6898 67.5898 35.5298 63.0898 35.5298 63.0898C35.5298 63.0898 36.4398 62.2598 37.9198 63.7998C37.9198 63.7998 37.9798 63.9298 38.0498 64.1398C38.3598 65.0198 38.9298 67.4198 36.7998 68.7898C36.2198 69.1598 35.8298 69.0998 35.5798 68.7598V68.7698Z" fill="#293CFF"/>
<path d="M35.5796 68.7697C35.0596 67.1997 35.7396 63.5097 35.7396 63.5097C35.7396 63.5097 36.6196 62.7097 38.0496 64.1397C38.1596 64.4597 38.3096 64.9897 38.3496 65.5997C38.4196 66.6497 38.1496 67.9297 36.7996 68.7897C36.3196 69.0997 35.9696 69.1097 35.7196 68.9097C35.6696 68.8697 35.6196 68.8197 35.5796 68.7597V68.7697Z" fill="#4F5FFF"/>
<path d="M38.34 65.6098C38.41 66.6598 38.14 67.9398 36.79 68.7998C36.75 68.8298 36.71 68.8498 36.68 68.8698C36.43 68.4798 36.2 68.1098 35.96 67.7498C36.19 66.7798 36.55 65.5998 37.01 64.9698C37.31 64.7398 37.65 64.7698 38.03 65.1898C38.15 65.3298 38.25 65.4698 38.34 65.6098Z" fill="#7B87FF"/>
<path d="M58.5401 100.83C58.1101 100.83 57.6601 100.87 57.1801 100.86C56.6801 100.85 56.1001 100.76 55.4701 100.59C53.4801 100.06 41.6501 93.0398 36.9601 88.4098C36.6901 88.1498 36.4601 87.9098 36.2401 87.6698C33.5001 84.5498 29.0401 79.5398 26.6201 75.2598C26.2701 74.6498 25.9701 74.0598 25.7101 73.4798C25.1101 72.1298 24.8101 70.8998 24.9401 69.9098C24.9501 69.7898 24.9801 69.6598 25.0101 69.5498C25.0701 69.3298 25.1201 69.1198 25.2001 68.9098C25.2801 68.6698 25.3701 68.4398 25.4501 68.2098C25.5001 68.0998 25.5601 67.9698 25.6201 67.8498C25.8701 67.3198 26.1801 66.8498 26.5201 66.4398C26.5901 66.3298 26.6801 66.2398 26.7601 66.1498C27.2501 65.6198 27.8001 65.1998 28.3501 64.8898C28.4901 64.8098 28.6201 64.7498 28.7501 64.6898C28.8401 64.6498 28.9201 64.6098 29.0101 64.5798C29.4701 64.3998 29.9201 64.2698 30.3801 64.1998H30.3901C30.5201 64.1698 30.6701 64.1598 30.7901 64.1498C31.4701 64.0898 32.1101 64.1498 32.6601 64.3098C32.8101 64.3598 32.9501 64.4098 33.0801 64.4698C33.1501 64.4898 33.2201 64.5298 33.2701 64.5598C33.3801 64.6098 33.4601 64.6498 33.5501 64.7198C34.1701 65.1198 34.7101 65.5598 35.1701 66.0098C35.2501 66.0898 35.3201 66.1698 35.3901 66.2398C35.6601 66.5198 35.8901 66.7898 36.1101 67.0698C36.5101 67.5598 36.8301 68.0598 37.1201 68.5298C37.6801 69.4698 38.0801 70.3098 38.5101 70.9098C39.0301 71.6498 40.3201 74.1298 41.7901 76.7198C43.1001 79.0598 44.5801 81.4498 45.8101 82.7298C45.9701 82.8898 46.1301 83.0498 46.2901 83.2098C51.3001 88.0598 59.1301 90.2698 60.2401 91.0398C60.4301 91.1698 60.6201 91.3398 60.8501 91.6798C61.1801 92.1698 61.5801 93.0098 62.1601 94.6098C62.3001 94.9998 62.5001 95.7298 62.5401 96.5498C62.6701 98.4198 62.0701 100.79 58.4801 100.84L58.5401 100.83Z" fill="#6B78FF"/>
<path opacity="0.13" d="M58.54 100.83C58.11 100.83 57.66 100.87 57.18 100.86C56.68 100.85 56.1 100.76 55.47 100.59C53.48 100.06 41.65 93.0399 36.96 88.4099C36.69 88.1499 36.46 87.9099 36.24 87.6699C33.5 84.5499 29.04 79.5399 26.62 75.2599C26.27 74.6499 25.97 74.0599 25.71 73.4799C25.76 72.8699 25.93 72.3299 26.24 71.8299C28.78 67.8199 35.2 66.4999 39.18 74.7499C43.17 82.9999 49.06 89.1199 52.42 91.8299C55.8 94.5699 59.24 96.6399 62.6 96.5499C62.73 98.4199 62.13 100.79 58.54 100.84V100.83Z" fill="#293CFF"/>
<path d="M26.6199 75.2598C39.5699 93.5598 55.4699 100.59 57.1799 100.86C56.6799 100.85 56.1099 100.76 55.4599 100.59C53.4799 100.06 41.6399 93.0398 36.9499 88.4098C36.6799 88.1498 36.4499 87.8998 36.2299 87.6598C33.4899 84.5398 29.0299 79.5298 26.6099 75.2498L26.6199 75.2598Z" fill="#4F5FFF"/>
<path d="M28.9603 66.9798C29.7203 65.8698 28.3903 62.1598 27.9603 61.4298C27.5203 60.6698 25.3103 61.1198 25.0603 62.4198C25.0303 62.5398 25.0303 62.6498 25.0303 62.7698C25.2403 65.4998 27.0003 67.6498 28.5503 67.2598C28.7303 67.2198 28.8703 67.1098 28.9603 66.9698V66.9798Z" fill="#293CFF"/>
<path d="M28.9603 66.9798C29.2503 65.5398 28.1503 62.5498 27.7803 61.8998C27.4003 61.2398 25.6803 61.4998 25.0603 62.4298C25.0303 62.5498 25.0303 62.6598 25.0303 62.7798C25.0703 63.2998 25.1703 63.7998 25.3103 64.2498C25.8903 66.1798 27.2303 67.5098 28.4603 67.2898L28.5603 67.2698C28.7403 67.2298 28.8803 67.1198 28.9703 66.9798H28.9603Z" fill="#4F5FFF"/>
<path d="M28.2702 66.9899C29.0102 66.5699 28.1902 63.7799 27.3902 62.7399C27.2702 62.5899 26.9002 62.1299 26.4002 62.2299C25.9002 62.3299 25.5902 62.8699 25.5802 63.4499C25.5402 65.1399 27.5202 67.4099 28.2602 66.9799L28.2702 66.9899Z" fill="#7B87FF"/>
<path d="M32.8602 65.5398C33.8302 64.5998 33.2602 60.6998 32.9902 59.8998C32.7202 59.0698 30.4602 59.0698 29.9502 60.2898C29.9002 60.3998 29.8702 60.5098 29.8502 60.6298C29.5102 63.3398 30.8002 65.7998 32.4002 65.7298C32.5802 65.7298 32.7402 65.6498 32.8602 65.5298V65.5398Z" fill="#293CFF"/>
<path d="M32.86 65.5398C33.43 64.1898 32.96 61.0398 32.72 60.3198C32.48 59.5898 30.74 59.5098 29.95 60.2898C29.9 60.3998 29.87 60.5098 29.85 60.6298C29.78 61.1498 29.78 61.6498 29.82 62.1298C30 64.1298 31.05 65.7098 32.29 65.7398H32.39C32.57 65.7398 32.73 65.6598 32.85 65.5398H32.86Z" fill="#4F5FFF"/>
<path d="M32.1902 65.3998C33.0002 65.1298 32.7502 62.2398 32.1802 61.0598C32.1002 60.8898 31.8202 60.3598 31.3202 60.3698C30.8202 60.3798 30.4002 60.8398 30.2702 61.4098C29.9002 63.0598 31.3802 65.6798 32.1902 65.4098V65.3998Z" fill="#7B87FF"/>
<path d="M22.2701 66.6798C22.2701 66.6798 22.2701 66.6198 22.2701 66.5998C22.2601 65.7698 23.4001 64.6098 24.4301 65.8598C25.3201 66.9098 26.0401 68.6798 26.0101 69.3298C26.0101 69.3698 26.0101 69.3998 26.0101 69.4298C26.0101 69.4698 25.9901 69.4998 25.9801 69.5198C25.7201 69.8298 25.0601 69.9498 24.9001 69.9198C24.0701 69.7998 23.5001 69.3798 22.8801 68.4998C22.5001 67.9398 22.3301 67.2698 22.2701 66.6898V66.6798Z" fill="#293CFF"/>
<path d="M22.5 67.7098C22.38 67.3598 22.31 66.9998 22.27 66.6798C22.27 66.6598 22.27 66.6198 22.27 66.5998C22.67 66.0298 23.45 65.7098 24.2 66.5898C25.06 67.6298 25.97 68.8198 26.02 69.3298C26.02 69.3698 26.02 69.3998 26.02 69.4298C26.02 69.4698 26 69.4998 25.99 69.5198C25.91 69.6298 25.77 69.7098 25.62 69.7698C25.34 69.8998 25.01 69.9398 24.91 69.9198C24.08 69.7998 23.51 69.3798 22.89 68.4998C22.72 68.2598 22.6 67.9898 22.51 67.7198L22.5 67.7098Z" fill="#4F5FFF"/>
<path d="M22.5002 67.7097C22.6102 67.2997 23.5602 66.8297 24.1302 67.5197C24.8202 68.3597 25.5602 69.3197 25.6002 69.7297C25.6002 69.7397 25.6002 69.7397 25.6002 69.7497C25.3202 69.8797 24.9902 69.9197 24.8902 69.8997C24.0602 69.7797 23.4902 69.3597 22.8702 68.4797C22.7002 68.2397 22.5802 67.9697 22.4902 67.6997L22.5002 67.7097Z" fill="#7B87FF"/>
<g style="mix-blend-mode:screen" opacity="0.22">
<path d="M60.9 91.67C60.9 91.67 58 92.22 51.76 88.05C42.56 81.9 41.75 76.96 41.83 76.71C43.14 79.05 44.62 81.44 45.85 82.72C46.01 82.88 46.17 83.04 46.33 83.2C51.3401 88.05 59.17 90.26 60.28 91.03C60.47 91.16 60.66 91.33 60.89 91.67H60.9Z" fill="#B3B9FF"/>
</g>
</svg>
