<svg width="174" height="228" viewBox="0 0 174 228" fill="none" xmlns="http://www.w3.org/2000/svg">
<mask id="mask0_20_6608" style="mask-type:luminance" maskUnits="userSpaceOnUse" x="0" y="0" width="174" height="228">
<path d="M154.634 208.147C133.675 217.493 112.465 228 87.8043 228C64.8366 228 43.356 221.672 24.9905 210.666C-10.655 189.283 -4.10987 35.0975 19.3137 12.8136C30.2874 2.38261 58.5954 -0.135585 87.7935 0.005521C116.992 0.146627 147.666 2.30663 157.825 12.3251C181.292 35.4448 176.169 198.541 154.634 208.147Z" fill="white"/>
</mask>
<g mask="url(#mask0_20_6608)">
<mask id="mask1_20_6608" style="mask-type:luminance" maskUnits="userSpaceOnUse" x="107" y="105" width="66" height="56">
<path d="M167.214 117.112C164.251 112.662 168.278 107.81 167.562 106.66L167.518 106.638C167.388 106.671 166.476 106.019 165.336 105.802C153.028 103.425 141.066 108.082 133.436 110.611C118.261 115.614 110.425 133.025 107.526 139.331C106.604 141.35 110.924 147.146 112.921 149.892H112.954C126.869 150.967 129.061 155.07 132.817 157.143C149.685 166.456 150.933 155.971 157.196 150.761C160.897 147.689 164.218 150.565 167.312 145.388C169.602 141.567 166.628 138.571 168.05 133.383C169.038 129.758 172.978 126.773 172.663 124.298C172.142 120.162 168.549 119.131 167.225 117.134" fill="white"/>
</mask>
<g mask="url(#mask1_20_6608)">
<path d="M198.941 122.789C196.195 125.611 192.396 129.291 187.903 133.144C185.059 135.575 184.766 139.83 187.284 142.576C189.498 144.975 191.571 148.112 190.562 151.064C188.369 157.534 181.52 161.691 162.84 159.531C158.216 158.999 160.409 162.125 160.582 166.912C160.799 173.034 146.493 176.116 137.886 169.017C132.86 164.871 128.812 159.596 107.57 157.979L107.526 157.957C104.476 153.756 97.8661 144.91 99.288 141.827C103.706 132.2 115.689 105.618 138.852 97.9761C150.509 94.112 168.766 87.0132 187.566 90.6277C189.314 90.9642 190.714 91.9519 190.909 91.9085L190.974 91.9411C192.081 93.6995 192.331 96.0223 191.3 98.0846C190.768 99.1592 190.16 100.331 189.498 101.591C187.827 104.738 188.966 108.624 192.071 110.404C194.241 111.642 196.163 112.781 197.769 113.78C200.928 115.679 201.492 120.184 198.941 122.778" fill="#828DFF"/>
<path d="M112.465 134.696C114.571 133.209 116.893 132.015 119.26 130.995C124.133 128.889 129.311 127.608 134.543 126.74C146.081 124.808 157.944 124.243 169.624 124.612C176.44 124.829 183.246 125.405 190.008 126.327C191.842 126.577 192.255 123.766 190.41 123.516C177.916 121.812 165.249 121.302 152.648 121.996C146.678 122.322 140.697 122.876 134.781 123.831C129.257 124.721 123.753 126.034 118.587 128.205C117.273 128.759 115.971 129.366 114.701 130.05C115.265 129.149 115.873 128.27 116.568 127.434C118.185 125.492 119.998 123.701 121.756 121.899C123.732 119.869 125.772 117.459 128.171 115.723C129.419 115.028 130.7 114.377 131.992 113.769C132.165 113.682 132.317 113.584 132.448 113.476C135.313 112.38 138.298 111.533 141.24 110.686C144.529 109.731 147.828 108.852 151.16 108.06C151.866 107.897 152.582 107.734 153.288 107.571C158.715 106.811 164.197 106.464 169.678 106.757C176.939 107.137 184.136 108.439 191.028 110.697C191.951 111.001 192.982 110.697 193.395 109.774C193.753 108.95 193.395 107.745 192.461 107.441C188.13 106.03 183.723 104.977 179.262 104.261C180.652 104.239 182.03 104.228 183.419 104.261C184.396 104.282 185.308 103.772 185.46 102.752C185.579 101.883 184.907 100.776 183.93 100.755C173.509 100.505 163.198 101.807 153.06 104.033C152.789 104.065 152.528 104.098 152.257 104.141C145.755 105.096 139.069 106.355 132.936 108.743C128.149 110.599 123.851 113.378 120.063 116.776C119.195 117.481 118.381 118.241 117.642 119.098C117.588 119.163 117.534 119.229 117.48 119.294C113.659 123.277 110.544 127.901 108.047 132.796C107.765 132.916 107.526 133.09 107.331 133.328C107.255 133.437 107.179 133.545 107.092 133.665C106.929 133.849 106.832 134.056 106.788 134.283C106.701 134.511 106.68 134.75 106.723 134.989C106.745 135.228 106.821 135.434 106.951 135.629C106.994 135.738 107.059 135.825 107.135 135.912C106.332 137.019 105.724 138.245 105.42 139.635C105.334 140.036 105.421 140.373 105.594 140.622C105.562 140.688 105.529 140.764 105.486 140.839C104.856 141.219 104.498 141.914 104.802 142.63C104.975 143.043 105.41 143.39 105.876 143.488C106.506 143.814 107.309 143.748 107.678 143.01C109.089 142.598 110.489 142.837 112.009 143.206C114.061 143.705 116.112 144.204 118.153 144.769C122.201 145.887 126.13 147.32 129.843 149.284C136.931 153.04 143.237 158.044 150.585 161.387C154.851 163.33 159.323 164.795 163.893 165.859C164.652 166.032 165.423 165.359 165.521 164.654C165.64 163.84 165.054 163.232 164.294 163.047C156.132 161.159 148.686 157.653 141.663 153.192C138.146 150.956 134.673 148.644 130.982 146.679C127.216 144.682 123.232 143.26 119.129 142.12C116.796 141.469 114.451 140.883 112.096 140.318C111.488 140.177 110.88 140.069 110.283 140.004C111.043 139.591 111.879 139.287 112.736 139.081C115.2 138.495 117.794 138.289 120.313 138.126C125.566 137.8 130.83 138.093 136.04 138.788C146.808 140.21 157.217 143.314 167.572 146.419C173.553 148.22 179.544 150.011 185.601 151.52C186.361 151.705 187.132 151.01 187.229 150.315C187.349 149.49 186.763 148.904 186.003 148.709C164.24 143.293 142.857 133.871 119.944 135.315C116.926 135.499 112.975 135.716 109.838 137.04C110.598 136.15 111.531 135.391 112.465 134.729" fill="#4555FF"/>
<path d="M111.933 143.152C111.933 143.152 111.988 143.163 112.009 143.173C113.095 143.434 114.18 143.705 115.266 143.977C115.287 143.977 115.298 143.977 115.32 143.987C115.342 143.987 115.363 143.998 115.385 144.009C115.428 144.009 115.472 144.031 115.504 144.042C115.504 144.042 115.515 144.042 115.526 144.042C115.982 144.161 116.438 144.27 116.883 144.4C116.731 146.223 116.774 149.447 116.785 151.108C116.709 151.064 112.02 150.978 111.944 150.934C110.446 148.742 101.73 140.373 111.933 143.163M117.73 138.289C117.512 139.407 117.339 140.492 117.198 141.556C117.013 141.502 116.818 141.458 116.633 141.404C116.633 141.404 116.622 141.404 116.612 141.404C116.579 141.404 116.557 141.393 116.525 141.382C116.503 141.382 116.481 141.372 116.46 141.361C116.427 141.361 116.405 141.35 116.373 141.339C116.34 141.339 116.308 141.317 116.275 141.317C116.264 141.317 116.243 141.317 116.232 141.306C116.188 141.306 116.156 141.285 116.112 141.274C116.112 141.274 116.101 141.274 116.091 141.274C116.047 141.263 115.993 141.252 115.949 141.241C115.949 141.241 115.939 141.241 115.928 141.241C115.884 141.23 115.83 141.22 115.787 141.209C115.678 141.187 115.58 141.155 115.472 141.133C115.363 141.111 115.266 141.079 115.157 141.057C115.059 141.035 114.951 141.003 114.853 140.981C114.853 140.981 114.842 140.981 114.831 140.981C114.777 140.97 114.734 140.959 114.68 140.948C114.625 140.937 114.582 140.927 114.528 140.916C114.528 140.916 114.506 140.916 114.495 140.916C114.452 140.916 114.419 140.894 114.376 140.883C114.365 140.883 114.354 140.883 114.343 140.883C114.3 140.872 114.256 140.861 114.202 140.851C114.191 140.851 114.169 140.851 114.159 140.851C114.126 140.851 114.093 140.84 114.061 140.829C114.039 140.829 114.017 140.829 114.007 140.818C113.963 140.818 113.931 140.796 113.887 140.785C113.865 140.785 113.844 140.775 113.822 140.764C113.8 140.764 113.779 140.753 113.757 140.742C113.735 140.742 113.703 140.731 113.681 140.72C113.659 140.72 113.648 140.72 113.627 140.709C113.583 140.699 113.529 140.688 113.486 140.677C113.475 140.677 113.453 140.677 113.442 140.677C113.41 140.677 113.388 140.666 113.355 140.655C113.344 140.655 113.334 140.655 113.323 140.655C113.225 140.633 113.127 140.612 113.03 140.59C113.019 140.59 113.008 140.59 112.997 140.59C112.899 140.568 112.802 140.547 112.715 140.525C112.704 140.525 112.682 140.525 112.671 140.525C112.639 140.525 112.617 140.514 112.585 140.503C112.563 140.503 112.552 140.503 112.53 140.492C112.487 140.492 112.454 140.471 112.411 140.46C112.389 140.46 112.357 140.449 112.335 140.438C112.313 140.438 112.302 140.438 112.281 140.427C112.237 140.427 112.194 140.406 112.15 140.395C112.15 140.395 112.118 140.395 112.107 140.395C111.532 140.264 110.956 140.156 110.392 140.102C110.37 140.102 110.36 140.102 110.338 140.102C111.098 139.689 111.933 139.385 112.791 139.179C112.802 139.179 112.813 139.179 112.834 139.179C112.834 139.179 112.845 139.179 112.856 139.179C112.856 139.179 112.867 139.179 112.878 139.179C112.878 139.179 112.889 139.179 112.899 139.179C112.899 139.179 112.91 139.179 112.921 139.179C112.921 139.179 112.932 139.179 112.943 139.179H112.954H112.975C112.975 139.179 112.975 139.179 112.986 139.179C112.986 139.179 113.008 139.179 113.019 139.179C113.019 139.179 113.041 139.179 113.051 139.179C113.117 139.168 113.182 139.146 113.236 139.136C113.898 138.994 114.571 138.875 115.244 138.767C115.266 138.767 115.298 138.767 115.32 138.756C115.331 138.756 115.342 138.756 115.352 138.756C115.363 138.756 115.374 138.756 115.385 138.756C115.45 138.756 115.504 138.734 115.57 138.734H115.591C115.591 138.734 115.602 138.734 115.613 138.734C115.613 138.734 115.624 138.734 115.635 138.734C115.635 138.734 115.646 138.734 115.656 138.734C115.656 138.734 115.667 138.734 115.678 138.734C115.678 138.734 115.689 138.734 115.7 138.734C115.7 138.734 115.711 138.734 115.722 138.734C115.722 138.734 115.732 138.734 115.743 138.734C115.743 138.734 115.743 138.734 115.754 138.734C115.765 138.734 115.776 138.734 115.787 138.734C116.427 138.647 117.067 138.582 117.719 138.528M119.673 130.821C119.499 131.31 119.336 131.82 119.184 132.319C118.869 133.361 118.598 134.381 118.348 135.38C118.316 135.38 118.294 135.38 118.261 135.38C118.261 135.38 118.24 135.38 118.229 135.38C117.968 135.402 117.697 135.423 117.426 135.445C115.038 135.641 112.4 135.988 110.153 136.867C110.045 136.91 109.936 136.954 109.839 136.997C110.598 136.107 111.532 135.347 112.465 134.685C114.571 133.198 116.894 132.004 119.26 130.984C119.325 130.951 119.39 130.93 119.455 130.897C119.531 130.865 119.597 130.832 119.673 130.81M128.193 115.701C125.881 118.675 123.189 122.583 121.105 127.218C120.921 127.283 120.736 127.348 120.552 127.424C120.541 127.424 120.519 127.424 120.508 127.435C119.89 127.663 119.271 127.912 118.652 128.173C118.63 128.173 118.609 128.194 118.587 128.194C117.274 128.748 115.971 129.356 114.701 130.04C115.266 129.139 115.873 128.26 116.568 127.424C118.185 125.481 119.998 123.69 121.757 121.888C123.732 119.858 125.773 117.449 128.171 115.712" fill="#5D68D4"/>
<path d="M115.515 144.042C115.515 144.042 115.526 144.042 115.537 144.042C115.537 144.042 115.526 144.042 115.515 144.042ZM115.331 143.987C115.331 143.987 115.374 143.987 115.396 144.009C115.374 144.009 115.352 143.998 115.331 143.987ZM111.933 143.152C111.933 143.152 111.988 143.163 112.009 143.173C111.988 143.173 111.955 143.163 111.933 143.152ZM116.611 141.404C116.611 141.404 116.622 141.404 116.633 141.404C116.633 141.404 116.622 141.404 116.611 141.404ZM116.459 141.361C116.459 141.361 116.503 141.372 116.525 141.382C116.503 141.382 116.481 141.372 116.459 141.361ZM116.264 141.317C116.264 141.317 116.329 141.339 116.362 141.339C116.329 141.339 116.297 141.317 116.264 141.317ZM116.101 141.274C116.101 141.274 116.177 141.296 116.221 141.306C116.177 141.306 116.145 141.285 116.101 141.274ZM115.938 141.23C115.938 141.23 116.036 141.252 116.08 141.263C116.036 141.252 115.982 141.241 115.938 141.23ZM115.776 141.187C115.776 141.187 115.873 141.209 115.917 141.22C115.873 141.209 115.819 141.198 115.776 141.187ZM114.658 140.905C114.658 140.905 114.755 140.927 114.81 140.937C114.755 140.927 114.712 140.916 114.658 140.905ZM114.506 140.872C114.506 140.872 114.603 140.894 114.658 140.905C114.603 140.894 114.56 140.883 114.506 140.872ZM114.354 140.829C114.354 140.829 114.43 140.851 114.473 140.861C114.43 140.861 114.397 140.84 114.354 140.829ZM114.191 140.785C114.191 140.785 114.278 140.807 114.332 140.818C114.289 140.807 114.245 140.796 114.191 140.785ZM114.05 140.753C114.05 140.753 114.115 140.764 114.148 140.775C114.115 140.775 114.082 140.764 114.05 140.753ZM113.876 140.709C113.876 140.709 113.952 140.731 113.996 140.742C113.952 140.742 113.92 140.72 113.876 140.709ZM113.735 140.677C113.735 140.677 113.778 140.688 113.8 140.699C113.778 140.699 113.757 140.688 113.735 140.677ZM113.605 140.644C113.605 140.644 113.637 140.644 113.659 140.655C113.637 140.655 113.627 140.655 113.605 140.644ZM113.42 140.601C113.42 140.601 113.453 140.601 113.464 140.601C113.453 140.601 113.431 140.601 113.42 140.601ZM113.29 140.568C113.29 140.568 113.312 140.568 113.323 140.568C113.312 140.568 113.301 140.568 113.29 140.568ZM112.964 140.492C112.964 140.492 112.986 140.492 112.997 140.492C112.986 140.492 112.975 140.492 112.964 140.492ZM112.639 140.416C112.639 140.416 112.671 140.416 112.682 140.416C112.671 140.416 112.65 140.416 112.639 140.416ZM112.498 140.373C112.498 140.373 112.53 140.373 112.552 140.384C112.53 140.384 112.519 140.384 112.498 140.373ZM112.291 140.33C112.291 140.33 112.346 140.34 112.367 140.351C112.346 140.351 112.313 140.34 112.291 140.33ZM112.107 140.286C112.107 140.286 112.194 140.308 112.237 140.319C112.194 140.319 112.15 140.297 112.107 140.286ZM112.064 140.275C112.064 140.275 112.096 140.275 112.107 140.275C112.096 140.275 112.074 140.275 112.064 140.275ZM110.338 139.971C110.913 140.037 111.477 140.134 112.053 140.264C111.597 140.156 111.141 140.069 110.696 140.015C110.576 139.993 110.457 139.982 110.338 139.971ZM110.294 139.971C110.294 139.971 110.327 139.971 110.349 139.971C110.327 139.971 110.316 139.971 110.294 139.971ZM112.78 139.038C112.78 139.038 112.758 139.038 112.736 139.038C111.879 139.244 111.043 139.537 110.283 139.961C111.043 139.548 111.879 139.244 112.736 139.038C112.747 139.038 112.758 139.038 112.78 139.038ZM112.823 139.038C112.823 139.038 112.812 139.038 112.802 139.038C112.802 139.038 112.812 139.038 112.823 139.038ZM112.856 139.027C112.856 139.027 112.845 139.027 112.834 139.027C112.834 139.027 112.845 139.027 112.856 139.027ZM112.899 139.016H112.888C112.888 139.016 112.888 139.016 112.899 139.016ZM112.943 139.005C112.943 139.005 112.943 139.005 112.932 139.005C112.932 139.005 112.932 139.005 112.943 139.005ZM115.613 138.528C115.613 138.528 115.602 138.528 115.591 138.528C115.591 138.528 115.602 138.528 115.613 138.528ZM115.656 138.517C115.656 138.517 115.645 138.517 115.635 138.517C115.635 138.517 115.645 138.517 115.656 138.517ZM115.689 138.517C115.689 138.517 115.678 138.517 115.667 138.517C115.667 138.517 115.678 138.517 115.689 138.517ZM115.743 138.506C115.743 138.506 115.732 138.506 115.721 138.506C115.721 138.506 115.732 138.506 115.743 138.506ZM115.787 138.506C115.787 138.506 115.765 138.506 115.754 138.506C115.765 138.506 115.776 138.506 115.787 138.506ZM117.729 138.289C117.089 138.343 116.438 138.419 115.797 138.506C116.438 138.419 117.078 138.354 117.729 138.289ZM118.25 135.391C118.25 135.391 118.272 135.391 118.283 135.391C118.283 135.391 118.261 135.391 118.25 135.391ZM117.436 135.456C115.048 135.651 112.411 135.999 110.164 136.878C112.411 135.988 115.048 135.651 117.436 135.456ZM118.663 128.162C118.663 128.162 118.62 128.184 118.598 128.184C118.62 128.184 118.641 128.162 118.663 128.162ZM120.552 127.413C120.552 127.413 120.519 127.413 120.508 127.424C120.519 127.424 120.541 127.424 120.552 127.413ZM121.105 127.207C120.921 127.272 120.736 127.337 120.552 127.413C120.736 127.348 120.921 127.283 121.105 127.207ZM128.193 115.701C125.783 117.449 123.754 119.858 121.778 121.877C120.02 123.69 118.196 125.47 116.59 127.413C115.895 128.238 115.298 129.117 114.723 130.029C115.287 129.128 115.895 128.249 116.59 127.413C118.207 125.47 120.02 123.679 121.778 121.877C123.754 119.848 125.794 117.438 128.193 115.701Z" fill="#3745EB"/>
<path d="M131.927 111.153C117.73 116.765 110.305 133.231 107.516 139.331C107.461 139.45 107.429 139.581 107.407 139.722C107.299 140.492 107.678 141.61 108.297 142.848C108.981 142.728 109.665 142.75 110.37 142.848C110.913 142.924 111.456 143.043 112.02 143.173C113.648 143.564 115.276 143.966 116.894 144.4C116.97 143.477 117.067 142.533 117.198 141.567C115.504 141.122 113.811 140.699 112.107 140.297C111.64 140.189 111.174 140.102 110.707 140.037C110.566 140.015 110.435 140.004 110.294 139.982C111.054 139.57 111.89 139.266 112.747 139.06C114.376 138.669 116.047 138.452 117.73 138.3C117.914 137.356 118.12 136.39 118.359 135.391C115.624 135.575 112.454 135.912 109.849 137.019C110.609 136.129 111.543 135.369 112.476 134.707C114.582 133.22 116.905 132.026 119.271 131.006C119.412 130.952 119.542 130.886 119.683 130.832C120.118 129.584 120.595 128.379 121.116 127.218C120.269 127.522 119.434 127.847 118.609 128.195C117.295 128.748 115.993 129.356 114.723 130.04C115.287 129.139 115.895 128.26 116.59 127.424C118.207 125.481 120.02 123.69 121.789 121.888C123.765 119.858 125.805 117.449 128.204 115.712C129.691 113.802 131.026 112.26 131.938 111.164" fill="#3A48D6"/>
</g>
<mask id="mask2_20_6608" style="mask-type:luminance" maskUnits="userSpaceOnUse" x="15" y="103" width="66" height="57">
<path d="M21.1913 115.029C24.2739 110.665 20.3881 105.694 21.1479 104.565L21.1913 104.543C21.3215 104.576 22.2441 103.957 23.4055 103.773C35.7794 101.754 47.5998 106.747 55.1652 109.493C70.1876 114.931 77.5359 132.558 80.2495 138.941C81.1178 140.981 76.6242 146.658 74.551 149.35H74.5184C60.5815 150.023 58.2696 154.061 54.4597 156.025C37.3316 164.861 36.3873 154.332 30.2763 148.948C26.6727 145.768 23.2644 148.547 20.3121 143.282C18.1304 139.407 21.1913 136.488 19.9213 131.256C19.0313 127.609 15.178 124.504 15.5687 122.04C16.2092 117.927 19.8236 116.993 21.213 115.029" fill="white"/>
</mask>
<g mask="url(#mask2_20_6608)">
<path d="M-10.6878 119.805C-8.01765 122.703 -4.33805 126.491 0.0470888 130.474C2.81493 132.992 2.9886 137.247 0.40528 139.928C-1.87412 142.262 -4.03413 145.334 -3.12237 148.319C-1.11432 154.842 5.61534 159.206 24.3499 157.577C28.9955 157.176 26.7052 160.248 26.4013 165.024C26.0106 171.145 40.2188 174.63 49.0217 167.781C54.1666 163.786 58.3564 158.619 79.6416 157.61L79.6851 157.588C82.8545 153.475 89.7144 144.813 88.3793 141.698C84.233 131.95 73.0205 105.043 50.0854 96.7392C38.5364 92.5494 20.4966 84.9188 1.59925 88.0123C-0.159144 88.3054 -1.58106 89.2388 -1.77643 89.1954L-1.84156 89.228C-3.00297 90.9538 -3.31774 93.2766 -2.34086 95.3607C-1.84156 96.4569 -1.26628 97.6401 -0.636732 98.91C0.947995 102.101 -0.300248 105.965 -3.4697 107.648C-5.67312 108.82 -7.6269 109.916 -9.2659 110.861C-12.4788 112.662 -13.1626 117.156 -10.6987 119.826" fill="#828DFF"/>
<path d="M75.4086 134.165C73.3463 132.612 71.056 131.353 68.7224 130.268C63.9139 128.032 58.769 126.599 53.5698 125.579C42.0968 123.321 30.2547 122.409 18.5647 122.453C11.7373 122.475 4.92081 122.854 -1.85227 123.592C-3.6975 123.788 -4.02313 120.966 -2.1779 120.77C10.3588 119.424 23.0366 119.272 35.6059 120.325C41.5649 120.825 47.5348 121.541 53.4069 122.67C58.8992 123.723 64.3698 125.188 69.4713 127.5C70.763 128.086 72.0546 128.737 73.3029 129.454C72.7602 128.531 72.1849 127.641 71.5119 126.795C69.9489 124.808 68.1905 122.974 66.4755 121.107C64.5543 119.023 62.5897 116.559 60.2343 114.746C59.0078 114.019 57.7487 113.324 56.4679 112.684C56.2942 112.597 56.1531 112.489 56.0228 112.38C53.1899 111.208 50.2266 110.274 47.3068 109.341C44.0505 108.288 40.7725 107.311 37.462 106.432C36.7565 106.247 36.0509 106.063 35.3454 105.889C29.94 104.967 24.4803 104.478 18.988 104.597C11.7265 104.771 4.48664 105.867 -2.47096 107.93C-3.40443 108.201 -4.42474 107.886 -4.81549 106.942C-5.15197 106.117 -4.75037 104.912 -3.8169 104.641C0.546531 103.349 4.99679 102.427 9.46876 101.84C8.07941 101.775 6.70092 101.732 5.31157 101.721C4.33468 101.721 3.43377 101.178 3.32523 100.147C3.22754 99.2789 3.93307 98.1826 4.90996 98.1934C15.3409 98.2369 25.6091 99.8433 35.671 102.351C35.9424 102.394 36.2029 102.437 36.4742 102.481C42.9434 103.621 49.5971 105.075 55.6646 107.637C60.3971 109.634 64.6194 112.521 68.299 116.027C69.1457 116.754 69.9489 117.536 70.6544 118.415C70.7087 118.48 70.7521 118.545 70.8064 118.621C74.5185 122.713 77.4926 127.424 79.848 132.384C80.1302 132.515 80.369 132.699 80.5535 132.938C80.6295 133.047 80.7055 133.166 80.7815 133.275C80.9334 133.459 81.0311 133.676 81.0745 133.904C81.1505 134.132 81.1722 134.371 81.1288 134.61C81.0963 134.848 81.0203 135.055 80.8792 135.239C80.8249 135.337 80.7598 135.435 80.6946 135.521C81.4653 136.65 82.0406 137.898 82.3011 139.288C82.3771 139.7 82.2794 140.026 82.0948 140.276C82.1274 140.341 82.16 140.417 82.1925 140.493C82.8112 140.883 83.1477 141.589 82.8329 142.305C82.6484 142.718 82.2034 143.043 81.7367 143.141C81.0963 143.456 80.3039 143.358 79.9565 142.609C78.5563 142.164 77.1453 142.36 75.6257 142.685C73.5634 143.119 71.4902 143.564 69.4387 144.075C65.3575 145.084 61.3849 146.397 57.6293 148.253C50.4329 151.814 43.9854 156.633 36.5502 159.759C32.2302 161.572 27.7257 162.918 23.1235 163.851C22.3637 164.003 21.6147 163.308 21.5279 162.592C21.4302 161.767 22.0272 161.181 22.7978 161.029C31.0145 159.379 38.5583 156.079 45.7004 151.825C49.2823 149.686 52.81 147.472 56.5547 145.627C60.3754 143.738 64.4023 142.425 68.5378 141.404C70.8824 140.818 73.2486 140.297 75.6257 139.809C76.2335 139.679 76.8414 139.592 77.4492 139.548C76.7003 139.114 75.8753 138.789 75.0287 138.561C72.5865 137.909 70.0032 137.616 67.485 137.388C62.2423 136.911 56.9672 137.063 51.7462 137.595C40.9462 138.713 30.4501 141.513 20.0083 144.324C13.9733 145.952 7.94916 147.57 1.83819 148.905C1.07839 149.068 0.329445 148.351 0.24261 147.646C0.144922 146.81 0.752762 146.245 1.51256 146.083C23.4165 141.285 45.06 132.482 67.93 134.577C70.9366 134.848 74.8876 135.174 77.9811 136.585C77.2538 135.673 76.3421 134.892 75.4195 134.197" fill="#4555FF"/>
<path d="M75.7017 142.642C85.9808 140.146 77.026 148.265 75.463 150.414C75.387 150.457 70.6979 150.414 70.6219 150.446C70.6762 148.786 70.8065 145.562 70.7196 143.738C71.1755 143.63 71.6314 143.532 72.0873 143.424C72.0873 143.424 72.0981 143.424 72.109 143.424C72.1524 143.424 72.1958 143.402 72.2392 143.391C72.2609 143.391 72.2826 143.391 72.3044 143.38C72.3261 143.38 72.3478 143.38 72.3586 143.369C73.4441 143.131 74.5403 142.892 75.6366 142.664C75.6583 142.664 75.6909 142.653 75.7126 142.642M70.0575 137.617C70.6979 137.693 71.3383 137.779 71.9787 137.888C71.9896 137.888 72.0004 137.888 72.0113 137.888C72.0113 137.888 72.0113 137.888 72.0221 137.888C72.0221 137.888 72.033 137.888 72.0438 137.888C72.0438 137.888 72.0547 137.888 72.0656 137.888C72.0656 137.888 72.0764 137.888 72.0873 137.888C72.0873 137.888 72.0981 137.888 72.109 137.888C72.109 137.888 72.1198 137.888 72.1307 137.888C72.1307 137.888 72.1415 137.888 72.1524 137.888C72.1524 137.888 72.1632 137.888 72.1741 137.888H72.1958C72.2609 137.888 72.3152 137.91 72.3803 137.92C72.3803 137.92 72.402 137.92 72.4129 137.92C72.4238 137.92 72.4346 137.92 72.4455 137.92C72.4672 137.92 72.4997 137.92 72.5214 137.931C73.1944 138.051 73.8674 138.192 74.5186 138.355C74.5838 138.365 74.6489 138.387 74.7032 138.398C74.7032 138.398 74.7249 138.398 74.7357 138.398C74.7357 138.398 74.7574 138.398 74.7683 138.398C74.7683 138.398 74.7683 138.398 74.7791 138.398H74.8008H74.8117C74.8117 138.398 74.8226 138.398 74.8334 138.398C74.8334 138.398 74.8443 138.398 74.8551 138.398C74.8551 138.398 74.866 138.398 74.8768 138.398C74.8768 138.398 74.8877 138.398 74.8985 138.398C74.8985 138.398 74.9094 138.398 74.9202 138.398C74.9311 138.398 74.9419 138.398 74.9637 138.398C75.8103 138.626 76.6461 138.952 77.3842 139.386C77.3842 139.386 77.3516 139.386 77.3299 139.386C76.7546 139.429 76.1793 139.516 75.6041 139.635C75.5932 139.635 75.5715 139.635 75.5606 139.635C75.5606 139.635 75.4738 139.657 75.4304 139.668C75.4087 139.668 75.387 139.668 75.3761 139.679C75.3544 139.679 75.3218 139.69 75.3001 139.701C75.2567 139.701 75.2133 139.722 75.1807 139.722C75.159 139.722 75.1482 139.722 75.1265 139.733C75.0939 139.733 75.0722 139.744 75.0396 139.755C75.0288 139.755 75.0071 139.755 74.9962 139.755C74.8985 139.777 74.8008 139.798 74.7032 139.82C74.6923 139.82 74.6814 139.82 74.6706 139.82C74.5729 139.842 74.4752 139.863 74.3775 139.885C74.3667 139.885 74.3558 139.885 74.345 139.885C74.3124 139.885 74.2907 139.896 74.2581 139.907C74.2473 139.907 74.2256 139.907 74.2147 139.907C74.1713 139.907 74.117 139.929 74.0736 139.939C74.0519 139.939 74.041 139.939 74.0193 139.95C73.9976 139.95 73.9651 139.961 73.9433 139.972C73.9216 139.972 73.8999 139.972 73.8674 139.983C73.8457 139.983 73.824 139.983 73.8022 139.994C73.7588 139.994 73.7263 140.015 73.6828 140.015C73.6611 140.015 73.6394 140.015 73.6286 140.026C73.596 140.026 73.5635 140.037 73.5309 140.048C73.52 140.048 73.4983 140.048 73.4875 140.048C73.4441 140.048 73.4006 140.07 73.3464 140.08C73.3355 140.08 73.3247 140.08 73.3138 140.08C73.2704 140.08 73.2378 140.102 73.1944 140.102C73.1944 140.102 73.1727 140.102 73.1618 140.102C73.1076 140.102 73.0642 140.124 73.0099 140.135C72.9556 140.146 72.9122 140.156 72.8579 140.167C72.8579 140.167 72.8471 140.167 72.8362 140.167C72.7385 140.189 72.63 140.211 72.5323 140.232C72.4238 140.254 72.3261 140.276 72.2175 140.298C72.109 140.319 72.0113 140.341 71.9027 140.363C71.8593 140.363 71.8051 140.384 71.7616 140.395C71.7616 140.395 71.7508 140.395 71.7399 140.395C71.6857 140.406 71.6422 140.417 71.588 140.428C71.588 140.428 71.5771 140.428 71.5663 140.428C71.5228 140.428 71.4903 140.45 71.4469 140.45C71.436 140.45 71.4143 140.45 71.4034 140.46C71.3709 140.46 71.3383 140.471 71.3058 140.482C71.2732 140.482 71.2515 140.493 71.2189 140.504C71.1972 140.504 71.1755 140.504 71.1538 140.515C71.1212 140.515 71.0887 140.526 71.067 140.536C71.067 140.536 71.0561 140.536 71.0453 140.536C70.8607 140.58 70.6654 140.623 70.4808 140.667C70.3723 139.603 70.2312 138.507 70.0467 137.389M68.3208 130.084C68.3968 130.116 68.4619 130.149 68.5379 130.181C68.603 130.214 68.6682 130.236 68.7333 130.268C71.067 131.354 73.3572 132.613 75.4195 134.165C76.3421 134.86 77.2431 135.641 77.9811 136.553C77.8726 136.509 77.7749 136.455 77.6664 136.412C75.4412 135.467 72.8254 135.044 70.4374 134.784C70.1661 134.751 69.8947 134.729 69.6342 134.697C69.6342 134.697 69.6125 134.697 69.6016 134.697C69.5691 134.697 69.5474 134.697 69.5148 134.697C69.2977 133.687 69.0481 132.656 68.7659 131.603C68.6247 131.093 68.4836 130.583 68.3208 130.084ZM60.2344 114.725C62.5898 116.538 64.5544 119.001 66.4756 121.085C68.1906 122.942 69.949 124.787 71.512 126.773C72.1741 127.62 72.7602 128.521 73.3029 129.432C72.0547 128.727 70.7739 128.076 69.4714 127.479C69.4714 127.479 69.428 127.457 69.4063 127.446C68.7984 127.175 68.1906 126.914 67.5719 126.654C67.561 126.654 67.5393 126.643 67.5285 126.632C67.3439 126.556 67.1703 126.491 66.9857 126.415C65.0428 121.726 62.4595 117.753 60.2344 114.703" fill="#5D68D4"/>
<path d="M72.098 143.423C72.098 143.423 72.0872 143.423 72.0763 143.423C72.0763 143.423 72.0872 143.423 72.098 143.423ZM72.2934 143.38C72.2934 143.38 72.25 143.38 72.2283 143.391C72.25 143.391 72.2717 143.391 72.2934 143.38ZM75.7016 142.642C75.7016 142.642 75.6474 142.653 75.6257 142.663C74.5294 142.891 73.4439 143.13 72.3477 143.369C73.4331 143.13 74.5294 142.891 75.6257 142.663C75.6474 142.663 75.6799 142.653 75.7016 142.642ZM71.0777 140.753C71.0777 140.753 71.0668 140.753 71.056 140.753C71.056 140.753 71.0668 140.753 71.0777 140.753ZM71.2405 140.721C71.2405 140.721 71.1971 140.721 71.1754 140.731C71.1971 140.731 71.2188 140.731 71.2405 140.721ZM71.425 140.677C71.425 140.677 71.3599 140.688 71.3274 140.699C71.3599 140.699 71.3925 140.688 71.425 140.677ZM71.5987 140.634C71.5987 140.634 71.5227 140.655 71.4793 140.655C71.5227 140.655 71.5553 140.634 71.5987 140.634ZM71.7615 140.601C71.7615 140.601 71.6638 140.623 71.6096 140.634C71.6638 140.623 71.7073 140.612 71.7615 140.601ZM71.9243 140.569C71.9243 140.569 71.8266 140.59 71.7832 140.601C71.8266 140.601 71.8809 140.579 71.9243 140.569ZM73.0532 140.308C73.0532 140.308 72.9555 140.33 72.9012 140.341C72.9555 140.33 72.9989 140.319 73.0532 140.308ZM73.2052 140.276C73.2052 140.276 73.1075 140.297 73.0532 140.308C73.1075 140.308 73.1509 140.286 73.2052 140.276ZM73.3463 140.243C73.3463 140.243 73.2703 140.265 73.2269 140.265C73.2703 140.265 73.3028 140.243 73.3463 140.243ZM73.5199 140.21C73.5199 140.21 73.4331 140.232 73.3788 140.243C73.4222 140.243 73.4656 140.221 73.5199 140.21ZM73.661 140.178C73.661 140.178 73.5959 140.189 73.5633 140.2C73.5959 140.2 73.6285 140.189 73.661 140.178ZM73.8347 140.145C73.8347 140.145 73.7587 140.167 73.7153 140.167C73.7587 140.167 73.7913 140.145 73.8347 140.145ZM73.9758 140.113C73.9758 140.113 73.9324 140.113 73.8998 140.124C73.9215 140.124 73.9432 140.124 73.9758 140.113ZM74.1061 140.08C74.1061 140.08 74.0735 140.08 74.0518 140.091C74.0735 140.091 74.0843 140.091 74.1061 140.08ZM74.3014 140.048C74.3014 140.048 74.2689 140.048 74.258 140.048C74.2689 140.048 74.2906 140.048 74.3014 140.048ZM74.4208 140.015C74.4208 140.015 74.3991 140.015 74.3883 140.015C74.3991 140.015 74.41 140.015 74.4208 140.015ZM74.7573 139.95C74.7573 139.95 74.7356 139.95 74.7247 139.95C74.7356 139.95 74.7465 139.95 74.7573 139.95ZM75.0829 139.874C75.0829 139.874 75.0504 139.874 75.0395 139.874C75.0504 139.874 75.0721 139.874 75.0829 139.874ZM75.224 139.852C75.224 139.852 75.1915 139.852 75.1698 139.863C75.1915 139.863 75.2023 139.863 75.224 139.852ZM75.4303 139.809C75.4303 139.809 75.376 139.82 75.3543 139.83C75.376 139.83 75.4086 139.82 75.4303 139.809ZM75.6148 139.765C75.6148 139.765 75.528 139.787 75.4846 139.798C75.528 139.798 75.5714 139.776 75.6148 139.765ZM75.6582 139.755C75.6582 139.755 75.6257 139.755 75.6148 139.755C75.6257 139.755 75.6474 139.755 75.6582 139.755ZM77.3949 139.505C77.2755 139.505 77.1561 139.527 77.0367 139.537C76.5808 139.592 76.125 139.657 75.6691 139.755C76.2443 139.635 76.8196 139.548 77.3949 139.505ZM77.4383 139.505C77.4383 139.505 77.4058 139.505 77.3841 139.505C77.4058 139.505 77.4166 139.505 77.4383 139.505ZM74.9744 138.506C74.9744 138.506 74.9961 138.506 75.0178 138.506C75.8645 138.734 76.7002 139.06 77.4383 139.494C76.6894 139.06 75.8645 138.734 75.0178 138.506C75.007 138.506 74.9961 138.506 74.9744 138.506ZM74.9418 138.495C74.9418 138.495 74.9527 138.495 74.9635 138.495C74.9635 138.495 74.9527 138.495 74.9418 138.495ZM74.8984 138.485C74.8984 138.485 74.9093 138.485 74.9201 138.485C74.9201 138.485 74.9093 138.485 74.8984 138.485ZM74.855 138.474H74.8659C74.8659 138.474 74.8659 138.474 74.855 138.474ZM74.8224 138.463C74.8224 138.463 74.8224 138.463 74.8333 138.463C74.8333 138.463 74.8333 138.463 74.8224 138.463ZM72.1631 137.909C72.1631 137.909 72.174 137.909 72.1848 137.909C72.1848 137.909 72.174 137.909 72.1631 137.909ZM72.1197 137.898C72.1197 137.898 72.1306 137.898 72.1414 137.898C72.1414 137.898 72.1306 137.898 72.1197 137.898ZM72.0763 137.898C72.0763 137.898 72.0872 137.898 72.098 137.898C72.098 137.898 72.0872 137.898 72.0763 137.898ZM72.0329 137.888C72.0329 137.888 72.0437 137.888 72.0546 137.888C72.0546 137.888 72.0437 137.888 72.0329 137.888ZM71.9895 137.877C71.9895 137.877 72.0112 137.877 72.022 137.877C72.0112 137.877 72.0003 137.877 71.9895 137.877ZM70.0574 137.605C70.6978 137.681 71.3382 137.768 71.9786 137.877C71.3382 137.779 70.6978 137.692 70.0574 137.605ZM69.6232 134.696C69.6232 134.696 69.6015 134.696 69.5907 134.696C69.5907 134.696 69.6124 134.696 69.6232 134.696ZM70.4264 134.783C70.1551 134.751 69.8837 134.729 69.6232 134.696C69.8837 134.718 70.1551 134.751 70.4264 134.783ZM68.7332 130.268C71.0669 131.353 73.3571 132.612 75.4194 134.165C76.342 134.859 77.2429 135.641 77.981 136.552C77.2538 135.641 76.342 134.859 75.4194 134.165C73.3571 132.612 71.0669 131.353 68.7332 130.268ZM69.417 127.457C69.417 127.457 69.4604 127.478 69.4821 127.489C69.4604 127.489 69.4387 127.467 69.417 127.457ZM67.5392 126.653C67.5392 126.653 67.5718 126.664 67.5826 126.675C67.5718 126.675 67.5501 126.664 67.5392 126.653ZM66.4863 121.096C68.2013 122.952 69.9597 124.797 71.5227 126.784C72.1848 127.63 72.771 128.531 73.3137 129.443C72.771 128.52 72.1957 127.63 71.5227 126.784C69.9597 124.797 68.2013 122.963 66.4863 121.096Z" fill="#3745EB"/>
<path d="M56.6304 110.079C70.6541 116.092 77.6117 132.765 80.2276 138.941C80.2819 139.06 80.3144 139.19 80.3253 139.331C80.4121 140.102 80.0105 141.209 79.3484 142.425C78.6646 142.295 77.9808 142.295 77.2752 142.371C76.7325 142.425 76.179 142.533 75.6145 142.653C73.9755 143 72.3365 143.348 70.7084 143.738C70.665 142.816 70.589 141.86 70.4913 140.894C72.1954 140.493 73.9104 140.124 75.6145 139.766C76.0813 139.668 76.5589 139.592 77.0256 139.538C77.1667 139.527 77.2969 139.505 77.4381 139.494C76.6891 139.06 75.8642 138.734 75.0176 138.506C73.4003 138.072 71.7287 137.801 70.0571 137.606C69.9052 136.65 69.7207 135.684 69.5036 134.686C72.228 134.957 75.3975 135.37 77.9699 136.553C77.2427 135.641 76.3309 134.859 75.4083 134.165C73.346 132.613 71.0557 131.354 68.7221 130.268C68.5918 130.203 68.4507 130.138 68.3205 130.084C67.9297 128.824 67.4847 127.609 66.9962 126.437C67.832 126.762 68.6569 127.12 69.4819 127.489C70.7735 128.076 72.0652 128.727 73.3134 129.443C72.7707 128.521 72.1954 127.63 71.5225 126.784C69.9594 124.798 68.2011 122.963 66.4861 121.096C64.5649 119.012 62.6002 116.548 60.2449 114.736C58.8121 112.782 57.5204 111.208 56.6412 110.09" fill="#3A48D6"/>
</g>
<path d="M115.949 202.633C115.949 202.633 123.102 197.271 126.738 199.127C130.505 201.049 122.929 210.861 122.929 210.861L115.96 202.644L115.949 202.633Z" fill="#FF0090"/>
<path d="M129.68 217.276C129.68 217.276 134.152 211.122 137.56 211.719C141.099 212.337 137.408 222.215 137.408 222.215L129.68 217.287V217.276Z" fill="#FF0090"/>
<path d="M143.812 225.764C143.812 225.764 146.124 219.675 149.077 219.393C152.138 219.1 151.313 228.098 151.313 228.098L143.812 225.764Z" fill="#FF0090"/>
<path d="M157.022 229.161C157.022 229.161 157.749 223.669 160.137 222.855C162.612 222.019 163.687 229.628 163.687 229.628L157.022 229.161Z" fill="#FF0090"/>
<path d="M168.343 228.998C168.343 228.998 169.005 223.994 171.176 223.256C173.434 222.497 174.411 229.432 174.411 229.432L168.343 229.009V228.998Z" fill="#FF0090"/>
<path d="M189.911 229.031C182.204 236.694 167.345 249.969 148.404 259.564C138.45 264.601 131.417 274.087 129.528 285.094C129.528 285.094 111.749 269.594 104.542 244.9C93.7198 207.822 104.726 162.809 104.726 162.809C121.301 234.958 168.984 230.388 187.87 225.46C188.912 225.189 194.35 223.181 194.795 223.94C195.24 224.711 190.681 228.25 189.911 229.02" fill="#4F5FFF"/>
<path d="M145.994 265.947C141.446 275.585 135.085 282.727 127.715 287.764C127.715 287.764 127.715 287.775 127.704 287.785C116.579 295.416 103.196 298.26 90.4417 297.609C80.9876 297.12 71.6746 294.602 63.4254 290.456C50.9104 284.182 40.8376 274.142 36.3765 261.735C23.6444 226.242 57.6943 173.924 68.8959 151.51C74.9309 139.44 76.8087 128.933 77.2537 121.812C77.6336 115.723 76.9607 112.109 76.9607 112.109L82.1056 111.783L104.172 110.383L106.452 110.242C106.452 110.242 106.712 115.799 108.254 123.766C109.806 131.863 112.639 142.446 117.784 152.215C127.987 171.568 164.707 226.318 145.994 265.947Z" fill="#6B78FF"/>
<path d="M127.715 287.764C127.715 287.764 127.715 287.775 127.704 287.785C116.579 295.416 103.195 298.26 90.4416 297.609C80.9875 297.12 71.6745 294.602 63.4252 290.456C63.4252 290.456 44.4519 262.495 45.8196 231.538C47.1981 200.571 67.6801 167.129 74.4098 154.495C80.9006 142.305 81.9535 119.663 82.1163 111.783C82.1706 110.014 82.1597 108.993 82.1597 108.993C82.1597 108.993 104.368 98.3889 104.183 110.383C103.836 132.265 106.202 142.87 110.186 152.563C119.216 174.499 137.148 207.713 139.839 231.495C142.488 254.995 128.073 286.982 127.715 287.764Z" fill="#B3B9FF"/>
<mask id="mask3_20_6608" style="mask-type:luminance" maskUnits="userSpaceOnUse" x="45" y="104" width="96" height="194">
<path d="M127.715 287.764C127.715 287.764 127.715 287.775 127.704 287.785C116.579 295.416 103.195 298.26 90.4416 297.609C80.9875 297.12 71.6745 294.602 63.4252 290.456C63.4252 290.456 44.4519 262.495 45.8196 231.538C47.1981 200.571 67.6801 167.129 74.4098 154.495C80.9006 142.305 81.9535 119.663 82.1163 111.783C82.1706 110.014 82.1597 108.993 82.1597 108.993C82.1597 108.993 104.368 98.3889 104.183 110.383C103.836 132.265 106.202 142.87 110.186 152.563C119.216 174.499 137.148 207.713 139.839 231.495C142.488 254.995 128.073 286.982 127.715 287.764Z" fill="white"/>
</mask>
<g mask="url(#mask3_20_6608)">
<path d="M108.633 122.735C108.221 124.939 104.281 124.407 102.609 124.461C100.026 124.548 97.4427 124.602 94.8593 124.504C89.747 124.309 84.6129 123.506 80.0107 121.194C77.9809 120.174 76.1248 123.213 78.1763 124.233C83.8422 127.077 90.0834 127.989 96.3572 128.097C99.429 128.151 102.522 128.075 105.594 127.902C108.319 127.75 111.466 126.827 112.053 123.734C112.476 121.509 109.068 120.499 108.644 122.746L108.633 122.735Z" fill="#8792FF"/>
<path d="M110.24 135.804C107.971 137.041 105.681 138.311 103.195 139.082C100.46 139.929 97.6921 139.961 94.8917 139.484C89.3777 138.55 83.9072 136.813 78.632 134.99C76.4611 134.241 75.4842 137.66 77.6442 138.398C83.397 140.384 89.4103 142.306 95.467 143.131C101.589 143.955 106.734 141.763 111.998 138.897C114.006 137.801 112.259 134.708 110.251 135.804H110.24Z" fill="#8792FF"/>
<path d="M110.044 148.883C105.822 152.932 99.8415 153.93 94.1972 153.485C87.6304 152.964 81.1069 150.891 74.8006 149.068C72.5972 148.427 71.6094 151.846 73.8129 152.476C85.8503 155.96 102.056 161.463 112.53 151.423C114.18 149.838 111.705 147.288 110.055 148.872L110.044 148.883Z" fill="#8792FF"/>
<path d="M120.606 164.405C112.15 167.628 103.163 169.224 94.1104 169.039C89.6276 168.952 85.1665 168.442 80.7922 167.465C76.8087 166.586 72.7383 165.349 69.6449 162.57C67.9516 161.051 65.39 163.514 67.0941 165.045C70.3504 167.965 74.3882 169.582 78.5997 170.602C83.2996 171.753 88.1514 172.393 92.9924 172.556C102.685 172.893 112.443 171.286 121.507 167.834C123.623 167.031 122.755 163.58 120.617 164.394L120.606 164.405Z" fill="#8792FF"/>
<path d="M134.521 171.167C126.359 177.506 116.167 180.534 106.018 181.663C100.797 182.249 95.5325 182.369 90.279 182.249C85.2101 182.13 80.0543 181.945 75.0396 181.088C69.6341 180.154 64.2938 178.363 60.408 174.326C58.8233 172.676 56.2725 175.15 57.8572 176.8C65.4444 184.681 77.3407 185.321 87.598 185.723C98.6585 186.157 110.045 185.636 120.649 182.238C126.565 180.339 132.068 177.528 136.985 173.718C138.787 172.317 136.301 169.778 134.51 171.167H134.521Z" fill="#8792FF"/>
<path d="M139.612 189.239C128.627 195.567 115.96 197.662 103.445 198.227C97.1822 198.509 90.9084 198.444 84.6346 198.324C78.0027 198.205 71.3598 198.02 64.7821 197.206C57.5749 196.316 50.4002 194.569 43.8876 191.291C41.8579 190.271 40.0018 193.31 42.0532 194.33C54.2643 200.463 68.0167 201.494 81.4543 201.809C94.5989 202.123 107.961 202.373 120.921 199.79C128.074 198.368 135.042 195.969 141.37 192.322C143.346 191.182 141.609 188.089 139.623 189.228L139.612 189.239Z" fill="#8792FF"/>
<path d="M140.545 208.571C134.402 211.274 128.301 214.204 122.028 216.592C119.054 217.732 115.993 218.622 112.834 219.078C109.48 219.566 106.072 219.621 102.696 219.729C89.4648 220.131 75.9621 220.511 63.078 216.95C56.5546 215.149 50.3894 212.348 44.9514 208.289C43.117 206.921 41.3043 209.971 43.117 211.328C53.396 219.024 66.2041 222.182 78.8168 223.148C85.9697 223.691 93.1553 223.572 100.319 223.365C107.179 223.17 114.061 223.072 120.638 220.869C128.052 218.394 135.151 214.812 142.304 211.675C144.398 210.753 142.64 207.67 140.556 208.582L140.545 208.571Z" fill="#8792FF"/>
<path d="M147.6 222.834C122.635 239.853 90.713 235.75 62.5135 231.853C54.9264 230.811 47.1547 229.379 40.7072 225.004C38.8077 223.713 36.9842 226.763 38.8729 228.044C44.7125 232.005 51.6158 233.742 58.4974 234.828C66.2582 236.054 74.0842 237.02 81.8993 237.812C97.1604 239.354 112.791 239.614 127.715 235.631C135.389 233.579 142.781 230.41 149.348 225.938C151.226 224.657 149.489 221.553 147.6 222.844V222.834Z" fill="#8792FF"/>
</g>
<g style="mix-blend-mode:multiply" opacity="0.48">
<path d="M108.243 123.766C103.825 126.143 98.4629 127.337 90.0725 126.143C84.2546 125.329 80.0866 123.538 77.2428 121.812C77.6227 115.723 76.9497 112.109 76.9497 112.109L82.0946 111.783L104.161 110.383L106.441 110.242C106.441 110.242 106.701 115.799 108.243 123.766Z" fill="#4E6587"/>
</g>
<path d="M70.8062 192.452C72.7817 193.266 78.7732 190.444 78.7732 190.444C78.7732 190.444 79.5982 188.859 76.9063 187.361C76.9063 187.361 76.7109 187.329 76.3744 187.307C75.0177 187.199 71.4574 187.285 70.3177 190.759C70.003 191.714 70.2418 192.235 70.8062 192.452Z" fill="#293CFF"/>
<path d="M70.8059 192.452C73.1939 192.615 78.1109 190.303 78.1109 190.303C78.1109 190.303 78.9141 188.773 76.3742 187.307C75.8749 187.264 75.0825 187.253 74.225 187.427C72.738 187.72 71.0339 188.556 70.3175 190.759C70.057 191.541 70.1764 192.04 70.5454 192.311C70.6214 192.366 70.7082 192.42 70.8059 192.452Z" fill="#4F5FFF"/>
<path d="M74.2255 187.427C72.7385 187.72 71.0343 188.556 70.3179 190.759C70.2962 190.824 70.2745 190.889 70.2637 190.944C70.8932 191.15 71.5119 191.345 72.0981 191.541C73.3789 190.857 74.8876 189.923 75.604 189.044C75.8102 188.534 75.6474 188.067 74.931 187.698C74.6922 187.579 74.4643 187.481 74.2363 187.427H74.2255Z" fill="#7B87FF"/>
<path d="M79.0772 199.454C79.0772 199.595 79.0664 199.736 79.0447 199.877C79.0121 200.235 78.9578 200.604 78.8819 200.962C78.7082 201.776 78.4151 202.601 77.9592 203.405C77.677 203.915 77.3297 204.414 76.9172 204.902C76.8195 205.011 76.7219 205.13 76.6133 205.239C76.2985 205.575 75.9512 205.901 75.5496 206.227C74.9852 206.704 74.3231 207.149 73.585 207.562C73.4764 207.627 73.3787 207.67 73.2593 207.725C72.8034 207.952 72.3041 208.126 71.7831 208.256C71.718 208.278 71.6529 208.289 71.5769 208.311C63.5882 210.167 49.2171 202.265 44.0721 198.433C38.4605 194.265 38.2976 187.948 41.847 175.65C42.7153 172.643 43.6814 169.93 44.7125 167.509C44.7125 167.509 44.7125 167.509 44.7125 167.488C44.7234 167.455 44.7777 167.347 44.8428 167.205C46.5469 163.265 48.4464 160.074 50.411 157.502C54.2643 152.487 58.4215 149.893 62.0034 148.949C67.0941 147.613 71.0668 149.578 71.5335 152.585C71.5769 152.943 71.6203 153.323 71.6637 153.692C72.315 161.203 56.8042 173.534 58.1501 183.671C58.606 187.112 64.9558 189.261 70.2635 190.966C70.7411 191.128 71.2187 191.28 71.6746 191.421C72.3367 191.638 72.9771 191.856 73.5632 192.051C73.7261 192.116 73.8997 192.17 74.0517 192.235C75.5604 192.767 76.7219 193.288 77.232 193.82C77.3948 193.983 77.5468 194.178 77.6879 194.385C78.2632 195.188 78.719 196.295 78.947 197.543C79.0555 198.151 79.1098 198.802 79.0772 199.475V199.454Z" fill="#4F5FFF"/>
<path d="M70.5134 193.277C72.0655 195.502 73.7697 200.376 69.1891 203.969C68.082 204.837 66.6167 205.619 64.6955 206.281C61.2655 207.453 47.4914 200.691 42.8675 195.448C39.9585 192.148 40.5121 181.414 44.2785 170.266C45.2229 167.466 46.7967 164.025 48.5985 160.682C49.1847 159.596 49.7817 158.533 50.4112 157.491C52.5387 153.93 54.7963 150.761 56.6741 148.992C59.6048 146.235 63.5123 144.965 66.7903 144.78C68.7224 144.672 70.4482 144.943 71.6097 145.518C73.965 146.68 71.3817 151.553 71.5337 152.563C71.5228 152.65 71.5228 152.726 71.512 152.802C70.9475 160.324 55.4802 172.784 55.1654 182.977C54.9917 188.567 68.603 190.509 70.5134 193.277Z" fill="#6B78FF"/>
<path d="M57.6945 148.796C55.3391 150.468 49.912 158.826 48.6095 160.682C46.482 163.732 45.2446 166.326 44.8647 167.195C46.1673 164.199 47.5132 161.529 48.9025 159.303C51.0083 155.928 54.08 151.369 56.2509 149.187C61.4501 143.977 70.6111 144.021 71.6206 145.529C73.1293 146.691 66.5625 142.501 57.6945 148.796Z" fill="#B3B9FF"/>
<path d="M41.0548 189.088C40.9028 193.723 42.455 198.683 56.164 204.219C58.9752 205.358 61.1244 206.194 62.9588 206.411C67.8866 206.998 69.7644 204.642 70.0249 203.242C70.5134 200.626 60.4189 203.405 50.8671 199.02C41.3153 194.634 41.0982 187.894 41.0548 189.077V189.088Z" fill="#8792FF"/>
<path d="M75.0396 196.002C75.5497 198.075 81.3459 201.277 81.3459 201.277C81.3459 201.277 83.1152 201.016 82.7461 197.955C82.7461 197.955 82.6593 197.771 82.4856 197.489C81.7801 196.327 79.6201 193.494 76.1358 194.612C75.1807 194.916 74.8985 195.415 75.0504 196.002H75.0396Z" fill="#293CFF"/>
<path d="M75.0394 196.002C76.3094 198.031 81.0744 200.658 81.0744 200.658C81.0744 200.658 82.7894 200.409 82.4854 197.489C82.2249 197.065 81.7799 196.414 81.1287 195.817C80.0215 194.786 78.3391 193.907 76.1357 194.612C75.3542 194.862 75.0177 195.253 75.0068 195.709C75.0068 195.806 75.0068 195.904 75.0503 196.002H75.0394Z" fill="#4F5FFF"/>
<path d="M78.4152 194.406C77.7314 194.298 76.9607 194.33 76.1249 194.601C75.4194 194.829 75.0721 195.166 75.007 195.557C75.007 195.6 74.9961 195.643 74.9961 195.698C76.049 196.273 78.4803 197.543 80.1736 197.814C80.3256 197.836 80.4775 197.858 80.6186 197.869C81.1505 197.738 81.4327 197.337 81.3133 196.534C81.2699 196.273 81.2048 196.023 81.1288 195.806C80.445 195.166 79.5332 194.58 78.4261 194.406H78.4152Z" fill="#7B87FF"/>
<path d="M72.7603 201.907C73.1076 203.742 78.4371 206.271 79.6636 206.629C80.9335 206.998 82.8548 204.501 81.7693 202.938C81.6933 202.786 81.5739 202.667 81.4328 202.548C78.3502 199.964 74.1713 199.411 72.9014 201.234C72.7603 201.44 72.7168 201.679 72.7603 201.907Z" fill="#293CFF"/>
<path d="M72.7601 201.907C73.9541 203.633 78.285 205.662 79.3813 205.977C80.4884 206.303 82.084 204.447 81.7692 202.938C81.6932 202.786 81.5738 202.667 81.4327 202.547C80.8466 202.059 80.217 201.646 79.5875 201.299C76.939 199.877 74.0844 199.758 72.9881 201.114L72.9121 201.223C72.771 201.429 72.7276 201.668 72.771 201.896L72.7601 201.907Z" fill="#4F5FFF"/>
<path d="M76.592 200.257C75.0181 199.997 73.6614 200.268 72.9775 201.115C73.0101 201.169 73.0644 201.223 73.1187 201.267C73.7808 201.755 76.6029 203.22 78.5566 203.535C78.8497 203.579 79.1211 203.6 79.3599 203.6C79.5552 203.524 79.7072 203.361 79.794 203.166C80.0437 202.591 79.946 201.95 79.577 201.31C78.5784 200.767 77.5363 200.42 76.5812 200.268L76.592 200.257Z" fill="#7B87FF"/>
<path d="M71.1101 207.41C71.4791 208.528 72.5971 209.559 74.6269 210.264C76.4613 210.905 77.6986 208.104 76.8629 207.214L76.8303 207.182C75.9294 206.346 71.9893 203.687 71.2186 205.413C70.9256 206.064 70.8822 206.748 71.1101 207.41Z" fill="#293CFF"/>
<path d="M71.1102 207.409C71.6312 208.31 72.6841 209.124 74.3774 209.711C75.9187 210.242 77.0475 208.343 76.863 207.214L76.8304 207.181C76.5916 206.954 76.1358 206.606 75.5713 206.237C74.0517 205.228 71.7832 204.142 71.2188 205.412C71.1211 205.629 71.0451 205.846 71.0234 206.074C70.9148 206.519 70.9474 206.975 71.0994 207.42L71.1102 207.409Z" fill="#4F5FFF"/>
<path d="M72.608 204.87C71.9785 204.761 71.4575 204.892 71.2295 205.413C71.1427 205.597 71.0776 205.782 71.045 205.977C71.045 206.01 71.045 206.042 71.0342 206.075C71.9459 207.128 72.8794 207.692 73.7478 207.855C74.3664 207.855 74.9526 207.649 75.4193 207.28C75.7666 207.008 75.7775 206.639 75.5821 206.248C74.6812 205.651 73.5307 205.033 72.608 204.881V204.87Z" fill="#7B87FF"/>
<path d="M114.864 192.452C112.889 193.266 106.897 190.444 106.897 190.444C106.897 190.444 106.072 188.859 108.764 187.361C108.764 187.361 108.959 187.329 109.296 187.307C110.653 187.199 114.213 187.285 115.352 190.759C115.667 191.714 115.428 192.235 114.864 192.452Z" fill="#293CFF"/>
<path d="M114.864 192.452C112.476 192.615 107.559 190.303 107.559 190.303C107.559 190.303 106.756 188.773 109.296 187.307C109.795 187.264 110.587 187.253 111.445 187.427C112.932 187.72 114.636 188.556 115.352 190.759C115.613 191.541 115.494 192.04 115.124 192.311C115.049 192.366 114.962 192.42 114.864 192.452Z" fill="#4F5FFF"/>
<path d="M111.434 187.427C112.921 187.72 114.625 188.556 115.341 190.759C115.363 190.824 115.385 190.889 115.396 190.944C114.766 191.15 114.148 191.345 113.561 191.541C112.281 190.857 110.772 189.923 110.055 189.044C109.849 188.534 110.012 188.067 110.728 187.698C110.967 187.579 111.195 187.481 111.423 187.427H111.434Z" fill="#7B87FF"/>
<path d="M106.582 199.454C106.582 199.595 106.593 199.736 106.615 199.877C106.647 200.235 106.702 200.604 106.778 200.962C106.951 201.776 107.244 202.601 107.7 203.405C107.982 203.915 108.33 204.414 108.742 204.902C108.84 205.011 108.938 205.13 109.046 205.239C109.361 205.575 109.708 205.901 110.11 206.227C110.674 206.704 111.336 207.149 112.074 207.562C112.183 207.627 112.281 207.67 112.4 207.725C112.856 207.952 113.355 208.126 113.876 208.256C113.941 208.278 114.006 208.289 114.082 208.311C122.071 210.167 136.442 202.265 141.587 198.433C147.199 194.265 147.362 187.948 143.812 175.65C142.944 172.643 141.978 169.93 140.947 167.509C140.947 167.509 140.947 167.509 140.947 167.488C140.936 167.455 140.882 167.347 140.817 167.205C139.112 163.265 137.213 160.074 135.248 157.502C131.395 152.487 127.238 149.893 123.656 148.949C118.565 147.613 114.593 149.578 114.126 152.585C114.082 152.943 114.039 153.323 113.996 153.692C113.344 161.203 128.855 173.534 127.509 183.671C127.053 187.112 120.704 189.261 115.396 190.966C114.918 191.128 114.441 191.28 113.985 191.421C113.323 191.638 112.682 191.856 112.096 192.051C111.933 192.116 111.76 192.17 111.608 192.235C110.099 192.767 108.938 193.288 108.427 193.82C108.265 193.983 108.113 194.178 107.971 194.385C107.396 195.188 106.94 196.295 106.712 197.543C106.604 198.151 106.55 198.802 106.582 199.475V199.454Z" fill="#4F5FFF"/>
<path d="M115.146 193.277C113.594 195.502 111.89 200.376 116.47 203.969C117.577 204.837 119.043 205.619 120.964 206.281C124.394 207.453 138.168 200.691 142.792 195.448C145.701 192.148 145.147 181.414 141.381 170.266C140.437 167.466 138.863 164.025 137.061 160.682C136.475 159.596 135.878 158.533 135.248 157.491C133.121 153.93 130.863 150.761 128.985 148.992C126.055 146.235 122.147 144.965 118.869 144.78C116.937 144.672 115.211 144.943 114.05 145.518C111.694 146.68 114.278 151.553 114.126 152.563C114.137 152.65 114.137 152.726 114.147 152.802C114.712 160.324 130.179 172.784 130.494 182.977C130.668 188.567 117.056 190.509 115.146 193.277Z" fill="#6B78FF"/>
<path d="M127.965 148.796C130.321 150.468 135.748 158.826 137.05 160.682C139.178 163.732 140.415 166.326 140.795 167.195C139.492 164.199 138.147 161.529 136.757 159.303C134.651 155.928 131.58 151.369 129.409 149.187C124.21 143.977 115.049 144.021 114.039 145.529C112.53 146.691 119.097 142.501 127.965 148.796Z" fill="#B3B9FF"/>
<path d="M144.616 189.088C144.768 193.723 143.215 198.683 129.506 204.219C126.695 205.358 124.546 206.194 122.712 206.411C117.784 206.998 115.906 204.642 115.645 203.242C115.157 200.626 125.252 203.405 134.803 199.02C144.355 194.634 144.572 187.894 144.616 189.077V189.088Z" fill="#8792FF"/>
<path d="M110.62 196.002C110.11 198.075 104.314 201.277 104.314 201.277C104.314 201.277 102.544 201.016 102.913 197.955C102.913 197.955 103 197.771 103.174 197.489C103.879 196.327 106.039 193.494 109.524 194.612C110.479 194.916 110.761 195.415 110.609 196.002H110.62Z" fill="#293CFF"/>
<path d="M110.62 196.002C109.35 198.031 104.585 200.658 104.585 200.658C104.585 200.658 102.87 200.409 103.174 197.489C103.434 197.065 103.879 196.414 104.531 195.817C105.638 194.786 107.32 193.907 109.524 194.612C110.305 194.862 110.642 195.253 110.652 195.709C110.652 195.806 110.652 195.904 110.609 196.002H110.62Z" fill="#4F5FFF"/>
<path d="M107.244 194.406C107.928 194.298 108.699 194.33 109.534 194.601C110.24 194.829 110.587 195.166 110.652 195.557C110.652 195.6 110.663 195.643 110.663 195.698C109.61 196.273 107.179 197.543 105.486 197.814C105.334 197.836 105.182 197.858 105.041 197.869C104.509 197.738 104.227 197.337 104.346 196.534C104.389 196.273 104.455 196.023 104.531 195.806C105.214 195.166 106.126 194.58 107.233 194.406H107.244Z" fill="#7B87FF"/>
<path d="M112.899 201.907C112.552 203.742 107.223 206.271 105.996 206.629C104.726 206.998 102.805 204.501 103.89 202.938C103.966 202.786 104.086 202.667 104.227 202.548C107.309 199.964 111.488 199.411 112.758 201.234C112.899 201.44 112.943 201.679 112.899 201.907Z" fill="#293CFF"/>
<path d="M112.9 201.907C111.706 203.633 107.375 205.662 106.278 205.977C105.171 206.303 103.576 204.447 103.89 202.938C103.966 202.786 104.086 202.667 104.227 202.547C104.813 202.059 105.443 201.646 106.072 201.299C108.721 199.877 111.575 199.758 112.672 201.114L112.748 201.223C112.889 201.429 112.932 201.668 112.889 201.896L112.9 201.907Z" fill="#4F5FFF"/>
<path d="M109.068 200.257C110.642 199.997 111.999 200.268 112.682 201.115C112.65 201.169 112.596 201.223 112.541 201.267C111.879 201.755 109.057 203.22 107.103 203.535C106.81 203.579 106.539 203.6 106.3 203.6C106.105 203.524 105.953 203.361 105.866 203.166C105.616 202.591 105.714 201.95 106.083 201.31C107.082 200.767 108.124 200.42 109.079 200.268L109.068 200.257Z" fill="#7B87FF"/>
<path d="M114.549 207.41C114.18 208.528 113.062 209.559 111.033 210.264C109.198 210.905 107.961 208.104 108.797 207.214L108.829 207.182C109.73 206.346 113.67 203.687 114.441 205.413C114.734 206.064 114.777 206.748 114.549 207.41Z" fill="#293CFF"/>
<path d="M114.549 207.41C114.028 208.311 112.976 209.125 111.282 209.711C109.741 210.243 108.612 208.343 108.797 207.215L108.829 207.182C109.068 206.954 109.524 206.607 110.088 206.238C111.608 205.228 113.876 204.143 114.441 205.413C114.539 205.63 114.615 205.847 114.636 206.075C114.745 206.52 114.712 206.976 114.56 207.421L114.549 207.41Z" fill="#4F5FFF"/>
<path d="M113.052 204.87C113.681 204.761 114.202 204.892 114.43 205.413C114.517 205.597 114.582 205.782 114.615 205.977C114.615 206.01 114.615 206.042 114.626 206.075C113.714 207.128 112.78 207.692 111.912 207.855C111.293 207.855 110.707 207.649 110.24 207.28C109.893 207.008 109.882 206.639 110.078 206.248C110.978 205.651 112.129 205.033 113.052 204.881V204.87Z" fill="#7B87FF"/>
<path d="M131.004 37.8332C134.76 38.072 132.73 37.996 141.326 30.0615L139.253 51.9981L136.29 56.5786C136.29 56.5786 126.033 37.5184 131.004 37.8332Z" fill="#6B78FF"/>
<path d="M167.084 32.3734C166.237 34.3163 164.88 37.1276 163.122 40.0257C164.045 40.4707 164.859 40.894 165.542 41.2522C166.671 41.8492 166.769 43.2168 166.183 44.2914C165.054 46.3863 163.003 50.576 158.943 50.7823C152.159 51.1296 158.411 52.0631 159.128 53.8106C160.039 56.0466 155.253 59.0967 151.15 57.6205C148.751 56.763 146.471 55.3845 138.494 57.6205C136.811 56.4808 133.273 54.0494 133.359 52.7252C133.653 48.5788 134.781 37.3555 142.173 31.4291C145.896 28.4441 155.133 23.3318 158.531 22.0075C159.236 21.7362 159.974 22.1161 159.92 22.0075C160.582 22.5068 161.005 23.3426 160.908 24.2544C160.799 25.3724 160.615 26.7617 160.354 28.2922C162.362 28.5961 164.099 28.9109 165.412 29.1822C166.823 29.4644 167.637 31.0492 167.073 32.3517L167.084 32.3734Z" fill="#828DFF"/>
<path d="M145.104 35.2387C147.405 33.8711 154.113 29.7247 157.988 28.7044C161.765 27.7058 165.694 28.9107 165.673 29.2689C165.629 29.8658 159.019 26.9786 147.546 35.2062C143.671 37.9849 136.952 44.1067 134.445 46.7443C133.924 47.2978 133.989 48.1336 133.924 48.0359C133.62 47.6018 133.598 47.3087 133.945 46.6466C135.628 43.4663 141.424 37.4204 145.104 35.2387Z" fill="#6E7BFF"/>
<path d="M146.471 43.2711C148.772 42.2942 155.426 39.6674 159.182 39.5915C162.85 39.5155 166.259 41.5127 166.172 41.8383C166.02 42.381 162.253 37.3989 148.392 43.2819C144.333 45.0078 137.039 49.1541 134.249 51.0427C133.663 51.4335 133.359 52.1933 133.316 52.0956C133.11 51.6289 133.142 51.5855 133.598 51.0753C135.172 49.3169 143.106 44.7147 146.471 43.2819V43.2711Z" fill="#6E7BFF"/>
<path d="M159.942 22.0183C159.996 22.1269 159.258 21.747 158.552 22.0183C155.155 23.3425 145.907 28.4549 142.195 31.4398C134.792 37.3554 133.642 48.5788 133.381 52.736C133.316 53.7346 136.16 55.8837 137.842 57.0234C138.352 57.3599 138.548 57.6638 138.537 57.7072C138.515 57.9135 138.016 57.5661 137.148 57.0668C135.552 56.1659 133.956 55.1131 133.11 54.3207C131.807 53.0725 133.511 42.153 134.564 39.6566C136.844 34.2294 140.588 30.2893 142.9 28.9217C146.428 26.8159 154.373 22.268 158.194 21.5841C158.368 21.5624 158.52 21.5299 158.682 21.519C159.421 21.4539 159.681 21.5733 159.963 22.0075L159.942 22.0183Z" fill="#1C30FF"/>
<path d="M36.6697 65.0555C33.6196 67.259 35.2912 66.1084 23.7856 63.981L37.2341 81.4455L42.1837 83.7466C42.1837 83.7466 40.6966 62.1574 36.6697 65.0664V65.0555Z" fill="#6B78FF"/>
<path d="M3.22747 79.6655C4.98586 80.8595 7.62346 82.5202 10.6518 84.0289C10.1091 84.8973 9.64236 85.6896 9.26246 86.3518C8.62205 87.4589 9.26246 88.6637 10.337 89.2716C12.4102 90.4438 16.3829 92.8969 19.9214 90.9106C25.8478 87.5891 21.0502 91.7138 21.3758 93.5699C21.7883 95.9469 27.476 95.9795 30.157 92.5496C31.7308 90.5415 32.9248 88.1644 40.8702 85.8199C41.6842 83.9638 43.3884 80.0128 42.6069 78.9383C40.1429 75.5843 33.2179 66.6838 23.7964 65.62C19.053 65.0773 8.51351 65.6743 4.93159 66.369C4.18265 66.521 3.75933 67.2265 3.75933 67.1179C3.46626 67.8886 3.5531 68.8221 4.12837 69.5384C4.82305 70.4285 5.7131 71.5031 6.74426 72.6645C5.20295 73.9887 3.90043 75.1827 2.94526 76.1162C1.90324 77.1039 2.0552 78.884 3.22747 79.6764V79.6655Z" fill="#828DFF"/>
<path d="M23.3621 70.3744C20.681 70.4396 12.8008 70.5155 8.98012 71.7095C5.24624 72.8818 2.56523 75.9969 2.78231 76.2792C3.14051 76.7567 7.20001 70.7977 21.278 71.6444C26.0431 71.9266 34.9762 73.533 38.5147 74.4231C39.2527 74.6076 39.6435 75.3457 39.6435 75.2371C39.6652 74.7053 39.5241 74.4448 38.8837 74.0757C35.7685 72.2739 27.6387 70.255 23.3621 70.3636V70.3744Z" fill="#6E7BFF"/>
<path d="M26.4773 77.8965C24.0134 78.2981 16.9798 79.6223 13.756 81.5543C10.6083 83.443 8.78478 86.9489 9.03443 87.1769C9.4469 87.5568 9.98961 81.3264 24.8491 78.9276C29.2017 78.2221 37.5812 77.853 40.9461 77.9616C41.6516 77.9833 42.3137 78.45 42.3028 78.3523C42.2269 77.8422 42.1726 77.8313 41.5213 77.6468C39.2528 76.9955 30.0809 77.3212 26.4773 77.9073V77.8965Z" fill="#6E7BFF"/>
<path d="M3.75939 67.0854C3.75939 67.2048 4.19356 66.4993 4.93165 66.3473C8.51357 65.6526 19.0531 65.0557 23.7964 65.5984C33.2071 66.6621 40.1756 75.5409 42.6069 78.9166C43.193 79.7307 41.9339 83.0629 41.1199 84.919C40.8594 85.4834 40.8594 85.8416 40.8919 85.8633C41.0222 86.0261 41.261 85.4726 41.7277 84.5825C42.5961 82.9761 43.3884 81.2286 43.6815 80.1106C44.1265 78.363 36.865 70.0269 34.6399 68.4748C29.8206 65.0991 24.5562 63.764 21.8644 63.84C17.7506 63.9377 8.61126 64.3284 5.01849 65.7829C4.85567 65.8589 4.71457 65.9131 4.57346 65.9891C3.91135 66.3256 3.75939 66.5753 3.74854 67.0854H3.75939Z" fill="#1C30FF"/>
<path d="M59.1595 51.5742C56.3373 53.6474 62.101 46.1254 60.8961 40.0035C57.8135 24.3191 51.7785 26.3488 52.8531 24.2974C54.0796 21.942 62.7631 25.144 71.0883 35.5316C82.2574 49.4685 61.9924 49.501 59.1703 51.5742H59.1595Z" fill="#F00088"/>
<path d="M85.1989 34.3812C88.3901 35.8466 80.6727 29.2037 81.8233 22.2027C85.2098 1.63382 95.8253 1.77493 92.6341 0.309598C89.443 -1.15573 76.5806 3.57674 70.9255 20.2815C64.2393 40.0146 82.0078 32.9159 85.1989 34.3812Z" fill="#FF0090"/>
<path d="M83.5492 36.9104C86.99 36.1941 76.8304 35.4234 73.6067 29.1062C64.1309 10.5454 71.4358 8.8955 69.6991 8.32022C66.3669 7.21309 58.5409 13.9645 63.6859 34.0232C68.8634 54.2122 80.1084 37.616 83.5492 36.9104Z" fill="#FF0090"/>
<path d="M88.2707 2.45861C88.2707 2.45861 83.6576 4.58605 80.1191 8.41762C76.8085 11.9887 73.8779 16.9382 73.9104 19.7386C73.9647 24.0369 75.2998 24.1129 76.2115 23.2446C78.6538 20.9326 76.8954 14.8542 82.8327 8.39591C86.7836 4.09761 91.896 0.884737 88.2815 2.45861H88.2707Z" fill="#FF87CB"/>
<path d="M66.9745 10.7188C66.0627 11.1421 65.2161 11.7499 64.5323 16.6778C63.7616 22.2677 64.9013 24.927 66.5512 24.6231C68.6895 24.2323 66.4101 21.3668 66.0193 17.0359C65.6937 13.3998 67.3327 11.4351 66.9745 10.7296V10.7188Z" fill="#FF87CB"/>
<path d="M77.9484 34.0232C80.9442 35.8576 89.4974 29.9963 90.5828 24.6234C93.7849 8.84125 103.662 11.2726 100.753 9.30799C98.4414 7.74497 89.0741 7.79924 80.3472 20.8353C72.2174 32.9704 75.9187 31.2337 77.9484 34.0232Z" fill="#FF0090"/>
<path d="M138.472 57.5768C135.835 54.1468 134.228 50.0656 133.533 45.789C133.533 45.7673 133.533 45.7564 133.533 45.7347C131.091 30.8318 115.211 16.0808 100.851 17.5136C90.2248 18.5664 85.0256 23.1687 83.4083 28.3462C81.1506 35.5968 79.1643 34.7176 72.923 30.4085C69.1023 27.7709 63.0131 27.0436 54.08 30.5279C40.6207 35.7705 33.7607 54.7221 37.9396 69.2126C38.0699 69.6467 38.2002 70.0809 38.3521 70.5151C39.8066 74.8025 40.4036 79.3288 39.8174 83.8116C38.6777 92.4842 36.0076 90.3025 38.4172 98.6386C45.5377 123.321 88.6726 129.975 104.422 125.438C120.172 120.901 153.125 92.278 146.005 67.5953C143.899 60.3121 143.259 63.7746 138.494 57.5876L138.472 57.5768ZM85.9808 58.749C85.9808 58.749 85.9265 58.7599 85.8939 58.7707C85.8939 58.7056 85.8939 58.6405 85.8939 58.5754C85.9265 58.6296 85.9482 58.6839 85.9808 58.749Z" fill="#6B78FF"/>
<path d="M104.411 75.2042C104.129 74.7592 102.794 73.6738 100.862 74.2816C98.9297 74.8894 98.6475 76.1485 98.4087 77.2557C98.2676 77.8961 99.8632 77.3968 100.428 76.9083L100.471 76.8758L100.656 76.7781C100.894 76.7021 101.35 77.7441 101.589 77.9395C101.817 78.1349 102.946 78.569 104.118 77.755C105.54 76.7672 104.596 75.4864 104.411 75.2042Z" fill="#99A2FF"/>
<path d="M82.8113 80.5985C82.1817 80.0449 81.1614 79.9147 80.3799 80.0775C79.5984 80.2403 78.882 80.49 78.4044 80.9458C78.0897 81.2389 77.2647 81.8576 77.3516 83.0299C77.395 83.5943 77.5361 84.3432 78.1657 84.3866C81.1614 84.5712 82.5942 82.4112 82.8113 82.1832C83.2346 81.7273 83.2672 81.0218 82.8113 80.6094V80.5985Z" fill="#99A2FF"/>
<path d="M98.2785 80.566C97.8768 80.9459 97.2039 80.6637 97.3016 80.1644C97.638 78.4277 98.5281 75.877 100.862 75.8119C104.411 75.7033 103.977 77.4943 102.696 77.8959C101.622 78.2324 100.243 78.7208 98.2676 80.566H98.2785Z" fill="#00074D"/>
<path d="M84.4068 84.343C84.8844 84.5058 85.3294 83.9631 85.0364 83.5615C84.0378 82.1396 82.2685 80.2292 80.3256 81.1844C77.3841 82.6389 78.4695 84.0608 79.6744 83.8654C80.6947 83.7026 82.0189 83.5289 84.396 84.343H84.4068Z" fill="#00074D"/>
<path d="M101.491 73.4022C104.053 71.8066 107.027 73.7278 106.538 76.2569C106.408 77.0167 105.952 77.7656 105.236 78.1889C106.853 75.6056 104.91 72.6207 101.491 73.4022Z" fill="#1C30FF"/>
<path d="M79.0556 79.9801C76.2335 79.8499 74.703 82.8782 76.2769 84.7669C76.7328 85.3422 77.46 85.7546 78.2415 85.7655C75.7233 84.3653 75.9187 80.9353 79.0664 79.9801H79.0556Z" fill="#1C30FF"/>
<path d="M101.589 111.479C94.2407 113.813 86.621 112.641 86.3605 112.923C86.0566 113.248 93.9802 115.05 102.371 112.63C109.393 110.6 113.963 105.325 113.551 105.129C113.214 104.977 108.482 109.276 101.589 111.468V111.479Z" fill="#1C30FF"/>
<path d="M99.44 107.712C84.8084 111.815 70.1985 107.333 63.4689 104.662C62.6548 104.337 62.7199 102.969 63.5449 102.958C70.1009 102.839 83.8098 102.144 96.0318 98.7577C107.331 95.6208 119.89 88.7717 125.252 85.6783C125.946 85.2767 126.695 86.3404 126.239 87.0568C122.874 92.4188 114.332 103.544 99.44 107.723V107.712Z" fill="#00074D"/>
<path d="M103.445 96.8149C103.499 97.1189 103.597 97.8027 103.467 98.4322C103.358 98.9315 103.109 99.5394 102.935 99.9518C102.826 100.212 102.512 100.321 102.262 100.191C101.882 100.006 101.35 99.713 100.927 99.3874C100.428 98.9966 100.08 98.4431 99.9175 98.1392C101.079 97.7484 102.262 97.3034 103.456 96.8149H103.445Z" fill="white"/>
<path d="M93.7634 99.9302C93.7634 100.245 93.7417 100.929 93.4921 101.526C93.2858 102.003 92.9385 102.557 92.6889 102.926C92.526 103.165 92.2113 103.208 91.9833 103.045C91.6468 102.796 91.1693 102.416 90.8219 102.014C90.3986 101.537 90.1598 100.94 90.0513 100.603C91.267 100.419 92.5152 100.202 93.7743 99.9302H93.7634Z" fill="white"/>
<path d="M99.6682 108.516C93.8611 109.992 87.8153 110.22 81.9648 109.471C75.7345 108.722 69.6778 107.05 63.8599 104.814C63.1109 104.662 62.5573 103.859 63.0784 103.154C63.3389 102.85 63.773 102.958 64.1204 102.926C74.3451 102.622 84.5916 101.167 94.4907 98.6492C105.052 95.7945 115.222 91.3008 124.763 85.9388C125.078 85.7868 125.393 85.4612 125.773 85.6132C126.12 85.7543 126.337 86.1125 126.37 86.4815C126.424 86.8723 126.142 87.1762 125.957 87.4801C124.601 89.6618 123.092 91.7567 121.442 93.7213C115.722 100.538 108.232 105.846 99.6465 108.505L99.6682 108.516ZM99.2123 106.909C104.781 105.466 110.099 102.926 114.723 99.3764C118.783 96.2829 122.365 92.5382 125.328 88.3702C125.86 87.5561 127.075 86.3404 125.784 85.624C125.415 85.4612 125.089 85.7868 124.774 85.9388L122.864 87.0351C103.055 98.4212 91.4732 102.123 68.5272 102.828L64.1312 102.947C63.7839 102.98 63.3497 102.861 63.1001 103.165C62.6116 103.827 63.1001 104.673 63.8707 104.804L64.9019 105.194C75.8864 109.221 88.1626 110.187 99.2232 106.898L99.2123 106.909Z" fill="#1C30FF"/>
<path d="M125.946 85.3094C122.484 83.4316 121.865 79.0573 121.572 79.1333C121.236 79.2093 121.398 84.148 125.143 86.46C128.28 88.392 133.588 86.9701 133.653 86.6553C133.707 86.3948 129.181 87.0678 125.935 85.3094H125.946Z" fill="#1C30FF"/>
<path d="M62.3401 103.284C64.1094 99.7675 62.123 95.8274 62.4053 95.7188C62.7309 95.5994 65.4119 99.7458 63.6535 103.773C62.1773 107.148 57.0107 109.015 56.7719 108.787C56.5765 108.603 60.6794 106.573 62.3401 103.273V103.284Z" fill="#1C30FF"/>
<path d="M98.3655 25.0899C101.546 23.6246 105.128 23.2664 108.547 24.2325C111.619 25.1008 115.656 27.1957 116.785 30.0612C117.046 30.7125 115.83 30.8644 114.929 30.0504C113.388 28.6393 109.752 26.9569 107.147 27.5756C104.77 28.14 102.197 29.0518 100.015 30.0286C95.3589 32.1127 95.9884 26.1971 98.3547 25.1008L98.3655 25.0899Z" fill="#1C30FF"/>
<path d="M92.4822 51.4332C92.9163 60.388 95.402 64.8708 108.449 64.2304C121.496 63.59 123.536 58.8901 123.091 49.9353C122.657 40.9805 115.254 30.137 106.799 30.5495C98.3435 30.962 92.0372 42.4784 92.4713 51.4332H92.4822Z" fill="#3647FF"/>
<path d="M92.775 51.4872C93.1875 59.9536 95.532 64.1867 107.873 63.5898C120.215 62.9928 122.136 58.5425 121.723 50.0762C121.311 41.6098 114.31 31.3525 106.321 31.7433C98.3324 32.134 92.3626 43.0209 92.775 51.4872Z" fill="white"/>
<path d="M115.6 56.285C116.803 50.2779 112.909 44.4324 106.902 43.2288C100.895 42.0251 95.0495 45.9192 93.8458 51.9263C92.6422 57.9335 96.5363 63.7789 102.543 64.9826C108.551 66.1862 114.396 62.2922 115.6 56.285Z" fill="#E80083"/>
<path d="M104.726 63.4811C109.899 63.4811 114.093 59.2872 114.093 54.1138C114.093 48.9404 109.899 44.7466 104.726 44.7466C99.5523 44.7466 95.3584 48.9404 95.3584 54.1138C95.3584 59.2872 99.5523 63.4811 104.726 63.4811Z" fill="#00074D"/>
<path d="M107.863 48.8061C108.351 48.8495 108.666 49.7504 108.568 50.825C108.481 51.8996 108.014 52.7354 107.526 52.7028C107.038 52.6594 106.723 51.7585 106.821 50.6839C106.907 49.6093 107.374 48.7735 107.863 48.8061Z" fill="white"/>
<path d="M108.08 46.2229C108.568 46.2663 108.926 46.6353 108.894 47.0478C108.861 47.4603 108.438 47.7642 107.949 47.7208C107.461 47.6774 107.103 47.3083 107.135 46.8958C107.168 46.4834 107.591 46.1795 108.08 46.2229Z" fill="white"/>
<path d="M58.1611 36.4979C54.6769 36.8019 51.388 38.2563 48.8915 40.7963C46.6555 43.0757 44.1808 46.8964 44.6149 49.9356C44.7126 50.6302 45.8415 50.1635 46.2214 49.0021C46.8618 47.0158 49.1846 43.7486 51.7571 42.9888C54.1016 42.305 56.7826 41.8166 59.1706 41.5886C64.2504 41.0893 60.7661 36.27 58.1719 36.4871L58.1611 36.4979Z" fill="#1C30FF"/>
<path d="M76.4833 57.175C80.4234 65.0769 80.4452 70.1242 68.9179 75.8661C57.3906 81.608 53.3854 78.5363 49.4453 70.6343C45.5052 62.7324 46.6449 49.8375 54.1018 46.1253C61.5695 42.4132 72.5324 49.2731 76.4725 57.175H76.4833Z" fill="#3647FF"/>
<path d="M76.2554 57.3598C79.9785 64.8384 80.0002 69.6034 69.1025 75.0306C58.2048 80.4577 54.4166 77.5596 50.6936 70.081C46.9706 62.6024 48.0451 50.4239 55.1004 46.9071C62.1557 43.3903 72.5324 49.8811 76.2554 57.3598Z" fill="white"/>
<path d="M73.3492 69.4974C74.5528 63.4903 70.6588 57.6448 64.6516 56.4412C58.6445 55.2375 52.799 59.1316 51.5954 65.1387C50.3917 71.1459 54.2858 76.9914 60.2929 78.195C66.3001 79.3986 72.1456 75.5046 73.3492 69.4974Z" fill="#E80083"/>
<path d="M62.4703 76.6911C67.6437 76.6911 71.8375 72.4972 71.8375 67.3238C71.8375 62.1504 67.6437 57.9565 62.4703 57.9565C57.2969 57.9565 53.103 62.1504 53.103 67.3238C53.103 72.4972 57.2969 76.6911 62.4703 76.6911Z" fill="#00074D"/>
<path d="M65.6072 62.0161C66.0956 62.0595 66.4104 62.9604 66.3127 64.035C66.2258 65.1095 65.7591 65.9453 65.2707 65.9127C64.7822 65.8693 64.4674 64.9684 64.5651 63.8938C64.652 62.8193 65.1187 61.9835 65.6072 62.0161Z" fill="white"/>
<path d="M65.8243 59.4328C66.3128 59.4763 66.6709 59.8453 66.6384 60.2578C66.6058 60.6702 66.1825 60.9742 65.6941 60.9307C65.2056 60.8873 64.8474 60.5183 64.88 60.1058C64.9125 59.6933 65.3359 59.3894 65.8243 59.4328Z" fill="white"/>
<path d="M50.1831 85.1144C50.1831 85.1144 61.7755 79.481 73.433 77.1907C80.1627 75.8774 85.0145 77.994 91.0821 76.2464C96.4333 74.7051 98.9732 70.7216 104.52 68.1817C112.791 64.3935 128.757 62.4398 128.757 62.4398C128.757 62.4398 109.621 57.3165 87.4676 63.7097C62.0251 71.0581 50.1831 85.1144 50.1831 85.1144Z" fill="#828DFF"/>
<path d="M128.757 62.4394C121.745 61.4626 114.744 60.0623 107.635 60.7245C90.1378 62.3743 72.5538 67.8123 58.1936 78.1565C55.328 80.2405 52.5928 82.509 50.1831 85.1141C54.8396 79.7303 60.7118 75.508 66.877 71.9804C79.3269 65.1096 93.4375 61.1695 107.602 60.1166C114.755 59.5956 121.778 61.1369 128.757 62.4394Z" fill="#1C30FF"/>
<path d="M76.0817 71.9477C75.463 70.5258 81.7694 70.4932 87.5438 68.8542C93.0144 67.302 97.9531 64.0566 98.3764 65.5111C99.0385 67.8122 93.4811 71.2313 88.8898 72.5555C84.2984 73.8797 77.0152 74.086 76.0817 71.9368V71.9477Z" fill="#919BFF"/>
</g>
</svg>
