<svg width="174" height="228" viewBox="0 0 174 228" fill="none" xmlns="http://www.w3.org/2000/svg">
<mask id="mask0_6007_52985" style="mask-type:luminance" maskUnits="userSpaceOnUse" x="0" y="0" width="174" height="228">
<path d="M154.634 208.147C133.675 217.493 112.465 228 87.8043 228C64.8366 228 43.356 221.672 24.9905 210.666C-10.655 189.283 -4.10987 35.0975 19.3137 12.8136C30.2874 2.38261 58.5954 -0.135585 87.7935 0.005521C116.992 0.146627 147.666 2.30663 157.825 12.3251C181.292 35.4448 176.169 198.541 154.634 208.147Z" fill="white"/>
</mask>
<g mask="url(#mask0_6007_52985)">
<mask id="mask1_6007_52985" style="mask-type:luminance" maskUnits="userSpaceOnUse" x="107" y="105" width="66" height="56">
<path d="M167.214 117.113C164.251 112.662 168.278 107.81 167.562 106.66L167.518 106.638C167.388 106.671 166.476 106.019 165.337 105.802C153.028 103.425 141.066 108.082 133.436 110.611C118.261 115.615 110.425 133.025 107.527 139.331C106.604 141.35 110.924 147.146 112.921 149.892H112.954C126.869 150.967 129.062 155.07 132.817 157.143C149.685 166.456 150.933 155.971 157.196 150.761C160.897 147.689 164.219 150.565 167.312 145.388C169.602 141.567 166.628 138.571 168.05 133.383C169.038 129.758 172.978 126.773 172.663 124.298C172.142 120.163 168.549 119.131 167.225 117.134" fill="white"/>
</mask>
<g mask="url(#mask1_6007_52985)">
<path d="M198.941 122.789C196.195 125.611 192.396 129.291 187.903 133.144C185.059 135.576 184.766 139.831 187.284 142.577C189.498 144.975 191.571 148.112 190.562 151.065C188.369 157.534 181.52 161.691 162.84 159.531C158.216 158.999 160.409 162.125 160.582 166.912C160.799 173.034 146.493 176.116 137.886 169.018C132.86 164.871 128.812 159.596 107.57 157.979L107.527 157.957C104.476 153.757 97.8662 144.91 99.2881 141.828C103.706 132.2 115.689 105.618 138.852 97.9763C150.51 94.1122 168.766 87.0135 187.566 90.628C189.314 90.9645 190.714 91.9522 190.909 91.9088L190.974 91.9413C192.082 93.6997 192.331 96.0226 191.3 98.0849C190.768 99.1594 190.16 100.332 189.498 101.591C187.827 104.739 188.966 108.624 192.071 110.404C194.242 111.642 196.163 112.782 197.769 113.78C200.928 115.68 201.492 120.184 198.941 122.778" fill="#828DFF"/>
<path d="M112.465 134.696C114.571 133.209 116.894 132.015 119.26 130.995C124.134 128.889 129.311 127.609 134.543 126.74C146.081 124.808 157.945 124.244 169.624 124.613C176.44 124.83 183.246 125.405 190.008 126.328C191.843 126.577 192.255 123.766 190.41 123.517C177.917 121.812 165.25 121.302 152.648 121.997C146.678 122.323 140.697 122.876 134.782 123.831C129.257 124.721 123.754 126.035 118.587 128.206C117.274 128.759 115.971 129.367 114.701 130.051C115.266 129.15 115.873 128.271 116.568 127.435C118.185 125.492 119.998 123.701 121.757 121.899C123.732 119.869 125.773 117.46 128.171 115.723C129.42 115.028 130.7 114.377 131.992 113.769C132.166 113.683 132.318 113.585 132.448 113.476C135.314 112.38 138.298 111.533 141.24 110.687C144.529 109.732 147.829 108.852 151.161 108.06C151.866 107.897 152.583 107.734 153.288 107.572C158.715 106.812 164.197 106.464 169.678 106.757C176.94 107.137 184.136 108.44 191.029 110.698C191.951 111.002 192.982 110.698 193.395 109.775C193.753 108.95 193.395 107.745 192.461 107.441C188.131 106.03 183.724 104.977 179.263 104.261C180.652 104.239 182.03 104.228 183.42 104.261C184.397 104.283 185.308 103.773 185.46 102.752C185.58 101.884 184.907 100.777 183.93 100.755C173.51 100.505 163.198 101.808 153.06 104.033C152.789 104.066 152.528 104.098 152.257 104.142C145.755 105.097 139.069 106.356 132.936 108.744C128.15 110.6 123.851 113.379 120.063 116.776C119.195 117.482 118.381 118.241 117.643 119.099C117.588 119.164 117.534 119.229 117.48 119.294C113.659 123.278 110.544 127.902 108.048 132.797C107.765 132.916 107.527 133.09 107.331 133.329C107.255 133.437 107.179 133.546 107.092 133.665C106.93 133.85 106.832 134.056 106.788 134.284C106.702 134.512 106.68 134.751 106.723 134.99C106.745 135.228 106.821 135.435 106.951 135.63C106.995 135.738 107.06 135.825 107.136 135.912C106.333 137.019 105.725 138.246 105.421 139.635C105.334 140.037 105.421 140.373 105.594 140.623C105.562 140.688 105.529 140.764 105.486 140.84C104.856 141.22 104.498 141.915 104.802 142.631C104.976 143.043 105.41 143.391 105.877 143.488C106.506 143.814 107.309 143.749 107.678 143.011C109.09 142.598 110.49 142.837 112.009 143.206C114.061 143.706 116.112 144.205 118.153 144.769C122.202 145.887 126.131 147.32 129.843 149.285C136.931 153.04 143.237 158.044 150.586 161.387C154.851 163.33 159.323 164.795 163.893 165.859C164.653 166.033 165.423 165.36 165.521 164.654C165.64 163.84 165.054 163.232 164.294 163.048C156.132 161.159 148.686 157.653 141.663 153.192C138.146 150.956 134.673 148.644 130.983 146.68C127.216 144.682 123.233 143.26 119.13 142.121C116.796 141.47 114.452 140.883 112.096 140.319C111.488 140.178 110.881 140.069 110.284 140.004C111.043 139.592 111.879 139.288 112.737 139.082C115.201 138.495 117.795 138.289 120.313 138.126C125.566 137.801 130.831 138.094 136.041 138.789C146.808 140.21 157.217 143.315 167.572 146.419C173.553 148.221 179.545 150.012 185.601 151.521C186.361 151.705 187.132 151.01 187.23 150.316C187.349 149.491 186.763 148.905 186.003 148.709C164.24 143.293 142.857 133.872 119.944 135.315C116.926 135.5 112.975 135.717 109.838 137.041C110.598 136.151 111.532 135.391 112.465 134.729" fill="#4555FF"/>
<path d="M111.933 143.152C111.933 143.152 111.988 143.163 112.009 143.174C113.095 143.434 114.18 143.705 115.266 143.977C115.287 143.977 115.298 143.977 115.32 143.988C115.342 143.988 115.363 143.998 115.385 144.009C115.428 144.009 115.472 144.031 115.504 144.042C115.504 144.042 115.515 144.042 115.526 144.042C115.982 144.161 116.438 144.27 116.883 144.4C116.731 146.224 116.774 149.447 116.785 151.108C116.709 151.065 112.02 150.978 111.944 150.934C110.446 148.742 101.73 140.373 111.933 143.163M117.73 138.289C117.512 139.407 117.339 140.493 117.198 141.556C117.013 141.502 116.818 141.459 116.633 141.404C116.633 141.404 116.622 141.404 116.612 141.404C116.579 141.404 116.557 141.393 116.525 141.383C116.503 141.383 116.481 141.372 116.46 141.361C116.427 141.361 116.405 141.35 116.373 141.339C116.34 141.339 116.308 141.317 116.275 141.317C116.264 141.317 116.243 141.317 116.232 141.307C116.188 141.307 116.156 141.285 116.112 141.274C116.112 141.274 116.101 141.274 116.091 141.274C116.047 141.263 115.993 141.252 115.949 141.241C115.949 141.241 115.939 141.241 115.928 141.241C115.884 141.231 115.83 141.22 115.787 141.209C115.678 141.187 115.58 141.155 115.472 141.133C115.363 141.111 115.266 141.079 115.157 141.057C115.059 141.035 114.951 141.003 114.853 140.981C114.853 140.981 114.842 140.981 114.831 140.981C114.777 140.97 114.734 140.959 114.68 140.948C114.625 140.938 114.582 140.927 114.528 140.916C114.528 140.916 114.506 140.916 114.495 140.916C114.452 140.916 114.419 140.894 114.376 140.883C114.365 140.883 114.354 140.883 114.343 140.883C114.3 140.872 114.256 140.862 114.202 140.851C114.191 140.851 114.169 140.851 114.158 140.851C114.126 140.851 114.093 140.84 114.061 140.829C114.039 140.829 114.017 140.829 114.007 140.818C113.963 140.818 113.931 140.796 113.887 140.786C113.865 140.786 113.844 140.775 113.822 140.764C113.8 140.764 113.779 140.753 113.757 140.742C113.735 140.742 113.703 140.731 113.681 140.72C113.659 140.72 113.648 140.72 113.627 140.71C113.583 140.699 113.529 140.688 113.486 140.677C113.475 140.677 113.453 140.677 113.442 140.677C113.41 140.677 113.388 140.666 113.355 140.655C113.344 140.655 113.334 140.655 113.323 140.655C113.225 140.634 113.127 140.612 113.03 140.59C113.019 140.59 113.008 140.59 112.997 140.59C112.899 140.568 112.802 140.547 112.715 140.525C112.704 140.525 112.682 140.525 112.671 140.525C112.639 140.525 112.617 140.514 112.585 140.503C112.563 140.503 112.552 140.503 112.53 140.493C112.487 140.493 112.454 140.471 112.411 140.46C112.389 140.46 112.357 140.449 112.335 140.438C112.313 140.438 112.302 140.438 112.281 140.427C112.237 140.427 112.194 140.406 112.15 140.395C112.15 140.395 112.118 140.395 112.107 140.395C111.532 140.265 110.956 140.156 110.392 140.102C110.37 140.102 110.359 140.102 110.338 140.102C111.098 139.689 111.933 139.385 112.791 139.179C112.802 139.179 112.813 139.179 112.834 139.179C112.834 139.179 112.845 139.179 112.856 139.179C112.856 139.179 112.867 139.179 112.878 139.179C112.878 139.179 112.889 139.179 112.899 139.179C112.899 139.179 112.91 139.179 112.921 139.179C112.921 139.179 112.932 139.179 112.943 139.179H112.954H112.975C112.975 139.179 112.975 139.179 112.986 139.179C112.986 139.179 113.008 139.179 113.019 139.179C113.019 139.179 113.041 139.179 113.051 139.179C113.116 139.168 113.182 139.147 113.236 139.136C113.898 138.995 114.571 138.875 115.244 138.767C115.266 138.767 115.298 138.767 115.32 138.756C115.331 138.756 115.342 138.756 115.352 138.756C115.363 138.756 115.374 138.756 115.385 138.756C115.45 138.756 115.504 138.734 115.57 138.734H115.591C115.591 138.734 115.602 138.734 115.613 138.734C115.613 138.734 115.624 138.734 115.635 138.734C115.635 138.734 115.646 138.734 115.656 138.734C115.656 138.734 115.667 138.734 115.678 138.734C115.678 138.734 115.689 138.734 115.7 138.734C115.7 138.734 115.711 138.734 115.722 138.734C115.722 138.734 115.732 138.734 115.743 138.734C115.743 138.734 115.743 138.734 115.754 138.734C115.765 138.734 115.776 138.734 115.787 138.734C116.427 138.647 117.067 138.582 117.719 138.528M119.672 130.821C119.499 131.31 119.336 131.82 119.184 132.319C118.869 133.361 118.598 134.382 118.348 135.38C118.316 135.38 118.294 135.38 118.261 135.38C118.261 135.38 118.24 135.38 118.229 135.38C117.968 135.402 117.697 135.424 117.426 135.445C115.038 135.641 112.4 135.988 110.153 136.867C110.045 136.911 109.936 136.954 109.838 136.997C110.598 136.107 111.532 135.348 112.465 134.685C114.571 133.198 116.894 132.004 119.26 130.984C119.325 130.952 119.39 130.93 119.455 130.897C119.531 130.865 119.596 130.832 119.672 130.81M128.193 115.701C125.881 118.675 123.189 122.583 121.105 127.218C120.921 127.283 120.736 127.348 120.552 127.424C120.541 127.424 120.519 127.424 120.508 127.435C119.89 127.663 119.271 127.912 118.652 128.173C118.63 128.173 118.609 128.195 118.587 128.195C117.274 128.748 115.971 129.356 114.701 130.04C115.266 129.139 115.873 128.26 116.568 127.424C118.185 125.481 119.998 123.69 121.757 121.888C123.732 119.858 125.773 117.449 128.171 115.712" fill="#5D68D4"/>
<path d="M115.515 144.042C115.515 144.042 115.526 144.042 115.537 144.042C115.537 144.042 115.526 144.042 115.515 144.042ZM115.331 143.988C115.331 143.988 115.374 143.988 115.396 144.009C115.374 144.009 115.352 143.998 115.331 143.988ZM111.933 143.152C111.933 143.152 111.988 143.163 112.009 143.174C111.988 143.174 111.955 143.163 111.933 143.152ZM116.612 141.404C116.612 141.404 116.622 141.404 116.633 141.404C116.633 141.404 116.622 141.404 116.612 141.404ZM116.46 141.361C116.46 141.361 116.503 141.372 116.525 141.383C116.503 141.383 116.481 141.372 116.46 141.361ZM116.264 141.317C116.264 141.317 116.329 141.339 116.362 141.339C116.329 141.339 116.297 141.317 116.264 141.317ZM116.101 141.274C116.101 141.274 116.177 141.296 116.221 141.307C116.177 141.307 116.145 141.285 116.101 141.274ZM115.939 141.231C115.939 141.231 116.036 141.252 116.08 141.263C116.036 141.252 115.982 141.241 115.939 141.231ZM115.776 141.187C115.776 141.187 115.873 141.209 115.917 141.22C115.873 141.209 115.819 141.198 115.776 141.187ZM114.658 140.905C114.658 140.905 114.755 140.927 114.81 140.938C114.755 140.927 114.712 140.916 114.658 140.905ZM114.506 140.872C114.506 140.872 114.604 140.894 114.658 140.905C114.604 140.894 114.56 140.883 114.506 140.872ZM114.354 140.829C114.354 140.829 114.43 140.851 114.473 140.862C114.43 140.862 114.397 140.84 114.354 140.829ZM114.191 140.786C114.191 140.786 114.278 140.807 114.332 140.818C114.289 140.807 114.245 140.796 114.191 140.786ZM114.05 140.753C114.05 140.753 114.115 140.764 114.148 140.775C114.115 140.775 114.083 140.764 114.05 140.753ZM113.876 140.71C113.876 140.71 113.952 140.731 113.996 140.742C113.952 140.742 113.92 140.72 113.876 140.71ZM113.735 140.677C113.735 140.677 113.779 140.688 113.8 140.699C113.779 140.699 113.757 140.688 113.735 140.677ZM113.605 140.644C113.605 140.644 113.638 140.644 113.659 140.655C113.638 140.655 113.627 140.655 113.605 140.644ZM113.42 140.601C113.42 140.601 113.453 140.601 113.464 140.601C113.453 140.601 113.431 140.601 113.42 140.601ZM113.29 140.568C113.29 140.568 113.312 140.568 113.323 140.568C113.312 140.568 113.301 140.568 113.29 140.568ZM112.965 140.493C112.965 140.493 112.986 140.493 112.997 140.493C112.986 140.493 112.975 140.493 112.965 140.493ZM112.639 140.417C112.639 140.417 112.671 140.417 112.682 140.417C112.671 140.417 112.65 140.417 112.639 140.417ZM112.498 140.373C112.498 140.373 112.53 140.373 112.552 140.384C112.53 140.384 112.52 140.384 112.498 140.373ZM112.292 140.33C112.292 140.33 112.346 140.341 112.368 140.351C112.346 140.351 112.313 140.341 112.292 140.33ZM112.107 140.286C112.107 140.286 112.194 140.308 112.237 140.319C112.194 140.319 112.15 140.297 112.107 140.286ZM112.064 140.275C112.064 140.275 112.096 140.275 112.107 140.275C112.096 140.275 112.074 140.275 112.064 140.275ZM110.338 139.971C110.913 140.037 111.477 140.134 112.053 140.265C111.597 140.156 111.141 140.069 110.696 140.015C110.577 139.993 110.457 139.982 110.338 139.971ZM110.294 139.971C110.294 139.971 110.327 139.971 110.349 139.971C110.327 139.971 110.316 139.971 110.294 139.971ZM112.78 139.038C112.78 139.038 112.758 139.038 112.737 139.038C111.879 139.244 111.043 139.537 110.284 139.961C111.043 139.548 111.879 139.244 112.737 139.038C112.747 139.038 112.758 139.038 112.78 139.038ZM112.823 139.038C112.823 139.038 112.813 139.038 112.802 139.038C112.802 139.038 112.813 139.038 112.823 139.038ZM112.856 139.027C112.856 139.027 112.845 139.027 112.834 139.027C112.834 139.027 112.845 139.027 112.856 139.027ZM112.899 139.016H112.889C112.889 139.016 112.889 139.016 112.899 139.016ZM112.943 139.005C112.943 139.005 112.943 139.005 112.932 139.005C112.932 139.005 112.932 139.005 112.943 139.005ZM115.613 138.528C115.613 138.528 115.602 138.528 115.591 138.528C115.591 138.528 115.602 138.528 115.613 138.528ZM115.656 138.517C115.656 138.517 115.646 138.517 115.635 138.517C115.635 138.517 115.646 138.517 115.656 138.517ZM115.689 138.517C115.689 138.517 115.678 138.517 115.667 138.517C115.667 138.517 115.678 138.517 115.689 138.517ZM115.743 138.506C115.743 138.506 115.732 138.506 115.722 138.506C115.722 138.506 115.732 138.506 115.743 138.506ZM115.787 138.506C115.787 138.506 115.765 138.506 115.754 138.506C115.765 138.506 115.776 138.506 115.787 138.506ZM117.73 138.289C117.089 138.343 116.438 138.419 115.798 138.506C116.438 138.419 117.078 138.354 117.73 138.289ZM118.251 135.391C118.251 135.391 118.272 135.391 118.283 135.391C118.283 135.391 118.261 135.391 118.251 135.391ZM117.437 135.456C115.049 135.651 112.411 135.999 110.164 136.878C112.411 135.988 115.049 135.651 117.437 135.456ZM118.663 128.162C118.663 128.162 118.62 128.184 118.598 128.184C118.62 128.184 118.641 128.162 118.663 128.162ZM120.552 127.413C120.552 127.413 120.519 127.413 120.508 127.424C120.519 127.424 120.541 127.424 120.552 127.413ZM121.105 127.207C120.921 127.272 120.736 127.337 120.552 127.413C120.736 127.348 120.921 127.283 121.105 127.207ZM128.193 115.701C125.783 117.449 123.754 119.858 121.778 121.877C120.02 123.69 118.196 125.47 116.59 127.413C115.895 128.238 115.298 129.117 114.723 130.029C115.287 129.128 115.895 128.249 116.59 127.413C118.207 125.47 120.02 123.679 121.778 121.877C123.754 119.848 125.794 117.438 128.193 115.701Z" fill="#3745EB"/>
<path d="M131.927 111.153C117.73 116.765 110.305 133.231 107.516 139.331C107.461 139.451 107.429 139.581 107.407 139.722C107.299 140.493 107.678 141.611 108.297 142.848C108.981 142.729 109.665 142.75 110.37 142.848C110.913 142.924 111.456 143.043 112.02 143.174C113.648 143.564 115.276 143.966 116.894 144.4C116.97 143.478 117.067 142.533 117.198 141.567C115.504 141.122 113.811 140.699 112.107 140.297C111.64 140.189 111.174 140.102 110.707 140.037C110.566 140.015 110.435 140.004 110.294 139.982C111.054 139.57 111.89 139.266 112.747 139.06C114.376 138.669 116.047 138.452 117.73 138.3C117.914 137.356 118.12 136.39 118.359 135.391C115.624 135.576 112.454 135.912 109.849 137.019C110.609 136.129 111.543 135.369 112.476 134.707C114.582 133.22 116.905 132.026 119.271 131.006C119.412 130.952 119.542 130.887 119.683 130.832C120.118 129.584 120.595 128.379 121.116 127.218C120.269 127.522 119.434 127.847 118.609 128.195C117.295 128.748 115.993 129.356 114.723 130.04C115.287 129.139 115.895 128.26 116.59 127.424C118.207 125.481 120.02 123.69 121.789 121.888C123.765 119.859 125.805 117.449 128.204 115.712C129.691 113.802 131.026 112.261 131.938 111.164" fill="#3A48D6"/>
</g>
<mask id="mask2_6007_52985" style="mask-type:luminance" maskUnits="userSpaceOnUse" x="15" y="103" width="66" height="57">
<path d="M21.1915 115.028C24.2741 110.665 20.3883 105.694 21.1481 104.565L21.1915 104.543C21.3218 104.576 22.2444 103.957 23.4058 103.773C35.7797 101.754 47.6 106.747 55.1655 109.493C70.1878 114.931 77.5362 132.558 80.2497 138.94C81.1181 140.981 76.6244 146.658 74.5512 149.35H74.5187C60.5818 150.023 58.2698 154.061 54.4599 156.025C37.3318 164.861 36.3875 154.332 30.2766 148.948C26.6729 145.768 23.2647 148.547 20.3123 143.282C18.1306 139.407 21.1915 136.487 19.9216 131.256C19.0315 127.609 15.1782 124.504 15.569 122.04C16.2094 117.927 19.8239 116.993 21.2132 115.028" fill="white"/>
</mask>
<g mask="url(#mask2_6007_52985)">
<path d="M-10.6876 119.804C-8.01741 122.703 -4.33781 126.491 0.0473289 130.474C2.81517 132.992 2.98884 137.247 0.40552 139.928C-1.87388 142.262 -4.03389 145.334 -3.12213 148.319C-1.11408 154.842 5.61558 159.206 24.3501 157.577C28.9957 157.176 26.7055 160.248 26.4016 165.023C26.0108 171.145 40.2191 174.629 49.0219 167.78C54.1668 163.786 58.3566 158.619 79.6419 157.61L79.6853 157.588C82.8547 153.474 89.7147 144.813 88.3796 141.698C84.2332 131.95 73.0208 105.043 50.0856 96.739C38.5367 92.5493 20.4968 84.9187 1.59949 88.0122C-0.158903 88.3052 -1.58082 89.2387 -1.77619 89.1953L-1.84132 89.2279C-3.00273 90.9537 -3.3175 93.2765 -2.34062 95.3605C-1.84132 96.4568 -1.26604 97.6399 -0.636492 98.9099C0.948236 102.101 -0.300008 105.965 -3.46946 107.648C-5.67288 108.82 -7.62666 109.916 -9.26566 110.86C-12.4785 112.662 -13.1623 117.156 -10.6984 119.826" fill="#828DFF"/>
<path d="M75.4087 134.165C73.3464 132.612 71.0561 131.353 68.7225 130.268C63.914 128.032 58.7691 126.599 53.5699 125.579C42.0969 123.321 30.2548 122.409 18.5648 122.453C11.7374 122.475 4.92092 122.854 -1.85216 123.592C-3.69739 123.788 -4.02302 120.966 -2.17779 120.77C10.3589 119.424 23.0367 119.272 35.606 120.325C41.565 120.825 47.5349 121.541 53.4071 122.67C58.8993 123.723 64.3699 125.188 69.4714 127.5C70.7631 128.086 72.0547 128.737 73.303 129.454C72.7603 128.531 72.185 127.641 71.512 126.795C69.949 124.808 68.1906 122.974 66.4756 121.107C64.5544 119.023 62.5898 116.559 60.2344 114.746C59.0079 114.019 57.7488 113.324 56.468 112.684C56.2943 112.597 56.1532 112.489 56.0229 112.38C53.19 111.208 50.2267 110.274 47.3069 109.341C44.0507 108.288 40.7727 107.311 37.4621 106.432C36.7566 106.247 36.051 106.063 35.3455 105.889C29.9401 104.967 24.4804 104.478 18.9881 104.597C11.7266 104.771 4.48675 105.867 -2.47086 107.93C-3.40433 108.201 -4.42463 107.886 -4.81538 106.942C-5.15187 106.117 -4.75026 104.912 -3.81679 104.641C0.546638 103.349 4.9969 102.427 9.46887 101.84C8.07952 101.775 6.70102 101.732 5.31167 101.721C4.33479 101.721 3.43388 101.178 3.32534 100.147C3.22765 99.2789 3.93318 98.1826 4.91006 98.1934C15.341 98.2369 25.6092 99.8433 35.6711 102.351C35.9425 102.394 36.203 102.437 36.4744 102.481C42.9435 103.621 49.5972 105.075 55.6647 107.637C60.3972 109.634 64.6195 112.521 68.2991 116.027C69.1458 116.754 69.949 117.536 70.6545 118.415C70.7088 118.48 70.7522 118.545 70.8065 118.621C74.5187 122.713 77.4927 127.424 79.8481 132.384C80.1303 132.515 80.3691 132.699 80.5536 132.938C80.6296 133.047 80.7056 133.166 80.7816 133.275C80.9335 133.459 81.0312 133.676 81.0747 133.904C81.1506 134.132 81.1723 134.371 81.1289 134.61C81.0964 134.848 81.0204 135.055 80.8793 135.239C80.825 135.337 80.7599 135.435 80.6947 135.521C81.4654 136.65 82.0407 137.898 82.3012 139.288C82.3772 139.7 82.2795 140.026 82.095 140.276C82.1275 140.341 82.1601 140.417 82.1926 140.493C82.8113 140.883 83.1478 141.589 82.833 142.305C82.6485 142.718 82.2035 143.043 81.7368 143.141C81.0964 143.456 80.304 143.358 79.9567 142.609C78.5564 142.164 77.1454 142.36 75.6258 142.685C73.5635 143.119 71.4903 143.564 69.4389 144.075C65.3576 145.084 61.385 146.397 57.6294 148.253C50.433 151.814 43.9855 156.633 36.5503 159.759C32.2303 161.572 27.7258 162.918 23.1236 163.851C22.3638 164.003 21.6148 163.308 21.528 162.592C21.4303 161.767 22.0273 161.181 22.7979 161.029C31.0146 159.379 38.5584 156.079 45.7005 151.825C49.2824 149.686 52.8101 147.472 56.5548 145.627C60.3755 143.738 64.4025 142.425 68.5379 141.404C70.8825 140.818 73.2487 140.297 75.6258 139.809C76.2336 139.679 76.8415 139.592 77.4493 139.548C76.7004 139.114 75.8754 138.789 75.0288 138.561C72.5866 137.909 70.0033 137.616 67.4851 137.388C62.2424 136.911 56.9673 137.063 51.7463 137.595C40.9463 138.713 30.4502 141.513 20.0084 144.324C13.9734 145.952 7.94927 147.57 1.8383 148.905C1.0785 149.068 0.329552 148.351 0.242717 147.646C0.145029 146.81 0.752869 146.245 1.51267 146.083C23.4166 141.285 45.0601 132.482 67.9301 134.577C70.9367 134.848 74.8877 135.174 77.9812 136.585C77.2539 135.673 76.3422 134.892 75.4196 134.197" fill="#4555FF"/>
<path d="M75.7018 142.642C85.9808 140.145 77.026 148.264 75.463 150.414C75.387 150.457 70.6979 150.414 70.6219 150.446C70.6762 148.785 70.8065 145.562 70.7196 143.738C71.1755 143.63 71.6314 143.532 72.0873 143.423C72.0873 143.423 72.0981 143.423 72.109 143.423C72.1524 143.423 72.1958 143.402 72.2392 143.391C72.2609 143.391 72.2827 143.391 72.3044 143.38C72.3261 143.38 72.3478 143.38 72.3586 143.369C73.4441 143.13 74.5403 142.891 75.6366 142.664C75.6583 142.664 75.6909 142.653 75.7126 142.642M70.0575 137.616C70.6979 137.692 71.3383 137.779 71.9787 137.888C71.9896 137.888 72.0004 137.888 72.0113 137.888C72.0113 137.888 72.0113 137.888 72.0221 137.888C72.0221 137.888 72.033 137.888 72.0439 137.888C72.0439 137.888 72.0547 137.888 72.0656 137.888C72.0656 137.888 72.0764 137.888 72.0873 137.888C72.0873 137.888 72.0981 137.888 72.109 137.888C72.109 137.888 72.1198 137.888 72.1307 137.888C72.1307 137.888 72.1415 137.888 72.1524 137.888C72.1524 137.888 72.1633 137.888 72.1741 137.888H72.1958C72.2609 137.888 72.3152 137.909 72.3803 137.92C72.3803 137.92 72.402 137.92 72.4129 137.92C72.4238 137.92 72.4346 137.92 72.4455 137.92C72.4672 137.92 72.4997 137.92 72.5214 137.931C73.1944 138.05 73.8674 138.192 74.5186 138.354C74.5838 138.365 74.6489 138.387 74.7032 138.398C74.7032 138.398 74.7249 138.398 74.7357 138.398C74.7357 138.398 74.7574 138.398 74.7683 138.398C74.7683 138.398 74.7683 138.398 74.7791 138.398H74.8008H74.8117C74.8117 138.398 74.8226 138.398 74.8334 138.398C74.8334 138.398 74.8443 138.398 74.8551 138.398C74.8551 138.398 74.866 138.398 74.8768 138.398C74.8768 138.398 74.8877 138.398 74.8985 138.398C74.8985 138.398 74.9094 138.398 74.9202 138.398C74.9311 138.398 74.942 138.398 74.9637 138.398C75.8103 138.626 76.6461 138.951 77.3842 139.386C77.3842 139.386 77.3516 139.386 77.3299 139.386C76.7546 139.429 76.1793 139.516 75.6041 139.635C75.5932 139.635 75.5715 139.635 75.5606 139.635C75.5606 139.635 75.4738 139.657 75.4304 139.668C75.4087 139.668 75.387 139.668 75.3761 139.679C75.3544 139.679 75.3218 139.689 75.3001 139.7C75.2567 139.7 75.2133 139.722 75.1807 139.722C75.159 139.722 75.1482 139.722 75.1265 139.733C75.0939 139.733 75.0722 139.744 75.0396 139.755C75.0288 139.755 75.0071 139.755 74.9962 139.755C74.8985 139.776 74.8008 139.798 74.7032 139.82C74.6923 139.82 74.6815 139.82 74.6706 139.82C74.5729 139.841 74.4752 139.863 74.3775 139.885C74.3667 139.885 74.3558 139.885 74.345 139.885C74.3124 139.885 74.2907 139.896 74.2581 139.907C74.2473 139.907 74.2256 139.907 74.2147 139.907C74.1713 139.907 74.117 139.928 74.0736 139.939C74.0519 139.939 74.041 139.939 74.0193 139.95C73.9976 139.95 73.9651 139.961 73.9434 139.972C73.9216 139.972 73.8999 139.972 73.8674 139.983C73.8457 139.983 73.824 139.983 73.8022 139.993C73.7588 139.993 73.7263 140.015 73.6829 140.015C73.6611 140.015 73.6394 140.015 73.6286 140.026C73.596 140.026 73.5635 140.037 73.5309 140.048C73.52 140.048 73.4983 140.048 73.4875 140.048C73.4441 140.048 73.4006 140.069 73.3464 140.08C73.3355 140.08 73.3247 140.08 73.3138 140.08C73.2704 140.08 73.2378 140.102 73.1944 140.102C73.1944 140.102 73.1727 140.102 73.1618 140.102C73.1076 140.102 73.0642 140.124 73.0099 140.135C72.9556 140.145 72.9122 140.156 72.8579 140.167C72.8579 140.167 72.8471 140.167 72.8362 140.167C72.7385 140.189 72.63 140.21 72.5323 140.232C72.4238 140.254 72.3261 140.276 72.2175 140.297C72.109 140.319 72.0113 140.341 71.9027 140.362C71.8593 140.362 71.8051 140.384 71.7616 140.395C71.7616 140.395 71.7508 140.395 71.7399 140.395C71.6857 140.406 71.6422 140.417 71.588 140.428C71.588 140.428 71.5771 140.428 71.5663 140.428C71.5229 140.428 71.4903 140.449 71.4469 140.449C71.436 140.449 71.4143 140.449 71.4035 140.46C71.3709 140.46 71.3383 140.471 71.3058 140.482C71.2732 140.482 71.2515 140.493 71.2189 140.504C71.1972 140.504 71.1755 140.504 71.1538 140.514C71.1212 140.514 71.0887 140.525 71.067 140.536C71.067 140.536 71.0561 140.536 71.0453 140.536C70.8607 140.58 70.6654 140.623 70.4808 140.666C70.3723 139.603 70.2312 138.506 70.0467 137.388M68.3208 130.083C68.3968 130.116 68.4619 130.149 68.5379 130.181C68.603 130.214 68.6682 130.235 68.7333 130.268C71.067 131.353 73.3572 132.612 75.4195 134.165C76.3422 134.859 77.2431 135.641 77.9812 136.553C77.8726 136.509 77.7749 136.455 77.6664 136.411C75.4412 135.467 72.8254 135.044 70.4374 134.783C70.1661 134.751 69.8947 134.729 69.6342 134.696C69.6342 134.696 69.6125 134.696 69.6016 134.696C69.5691 134.696 69.5474 134.696 69.5148 134.696C69.2977 133.687 69.0481 132.656 68.7659 131.603C68.6248 131.093 68.4836 130.583 68.3208 130.083ZM60.2344 114.725C62.5898 116.537 64.5544 119.001 66.4756 121.085C68.1906 122.941 69.949 124.787 71.512 126.773C72.1741 127.619 72.7602 128.52 73.303 129.432C72.0547 128.727 70.7739 128.075 69.4714 127.478C69.4714 127.478 69.428 127.457 69.4063 127.446C68.7984 127.174 68.1906 126.914 67.5719 126.653C67.561 126.653 67.5393 126.643 67.5285 126.632C67.3439 126.556 67.1703 126.491 66.9858 126.415C65.0428 121.726 62.4595 117.753 60.2344 114.703" fill="#5D68D4"/>
<path d="M72.0981 143.423C72.0981 143.423 72.0873 143.423 72.0764 143.423C72.0764 143.423 72.0873 143.423 72.0981 143.423ZM72.2935 143.38C72.2935 143.38 72.2501 143.38 72.2284 143.391C72.2501 143.391 72.2718 143.391 72.2935 143.38ZM75.7018 142.642C75.7018 142.642 75.6475 142.653 75.6258 142.664C74.5295 142.892 73.4441 143.13 72.3478 143.369C73.4332 143.13 74.5295 142.892 75.6258 142.664C75.6475 142.664 75.6801 142.653 75.7018 142.642ZM71.0778 140.753C71.0778 140.753 71.067 140.753 71.0561 140.753C71.0561 140.753 71.067 140.753 71.0778 140.753ZM71.2406 140.721C71.2406 140.721 71.1972 140.721 71.1755 140.732C71.1972 140.732 71.2189 140.732 71.2406 140.721ZM71.4252 140.677C71.4252 140.677 71.36 140.688 71.3275 140.699C71.36 140.699 71.3926 140.688 71.4252 140.677ZM71.5988 140.634C71.5988 140.634 71.5229 140.656 71.4794 140.656C71.5229 140.656 71.5554 140.634 71.5988 140.634ZM71.7617 140.601C71.7617 140.601 71.664 140.623 71.6097 140.634C71.664 140.623 71.7074 140.612 71.7617 140.601ZM71.9245 140.569C71.9245 140.569 71.8268 140.59 71.7834 140.601C71.8268 140.601 71.8811 140.58 71.9245 140.569ZM73.0533 140.308C73.0533 140.308 72.9556 140.33 72.9013 140.341C72.9556 140.33 72.999 140.319 73.0533 140.308ZM73.2053 140.276C73.2053 140.276 73.1076 140.297 73.0533 140.308C73.1076 140.308 73.151 140.286 73.2053 140.276ZM73.3464 140.243C73.3464 140.243 73.2704 140.265 73.227 140.265C73.2704 140.265 73.303 140.243 73.3464 140.243ZM73.52 140.211C73.52 140.211 73.4332 140.232 73.3789 140.243C73.4224 140.243 73.4658 140.221 73.52 140.211ZM73.6612 140.178C73.6612 140.178 73.596 140.189 73.5635 140.2C73.596 140.2 73.6286 140.189 73.6612 140.178ZM73.8348 140.145C73.8348 140.145 73.7588 140.167 73.7154 140.167C73.7588 140.167 73.7914 140.145 73.8348 140.145ZM73.9759 140.113C73.9759 140.113 73.9325 140.113 73.9 140.124C73.9217 140.124 73.9434 140.124 73.9759 140.113ZM74.1062 140.08C74.1062 140.08 74.0736 140.08 74.0519 140.091C74.0736 140.091 74.0845 140.091 74.1062 140.08ZM74.3016 140.048C74.3016 140.048 74.269 140.048 74.2581 140.048C74.269 140.048 74.2907 140.048 74.3016 140.048ZM74.421 140.015C74.421 140.015 74.3992 140.015 74.3884 140.015C74.3992 140.015 74.4101 140.015 74.421 140.015ZM74.7574 139.95C74.7574 139.95 74.7357 139.95 74.7249 139.95C74.7357 139.95 74.7466 139.95 74.7574 139.95ZM75.0831 139.874C75.0831 139.874 75.0505 139.874 75.0396 139.874C75.0505 139.874 75.0722 139.874 75.0831 139.874ZM75.2242 139.852C75.2242 139.852 75.1916 139.852 75.1699 139.863C75.1916 139.863 75.2025 139.863 75.2242 139.852ZM75.4304 139.809C75.4304 139.809 75.3761 139.82 75.3544 139.831C75.3761 139.831 75.4087 139.82 75.4304 139.809ZM75.6149 139.765C75.6149 139.765 75.5281 139.787 75.4847 139.798C75.5281 139.798 75.5715 139.776 75.6149 139.765ZM75.6583 139.755C75.6583 139.755 75.6258 139.755 75.6149 139.755C75.6258 139.755 75.6475 139.755 75.6583 139.755ZM77.395 139.505C77.2756 139.505 77.1562 139.527 77.0368 139.538C76.581 139.592 76.1251 139.657 75.6692 139.755C76.2445 139.635 76.8197 139.548 77.395 139.505ZM77.4384 139.505C77.4384 139.505 77.4059 139.505 77.3842 139.505C77.4059 139.505 77.4167 139.505 77.4384 139.505ZM74.9745 138.506C74.9745 138.506 74.9962 138.506 75.0179 138.506C75.8646 138.734 76.7004 139.06 77.4384 139.494C76.6895 139.06 75.8646 138.734 75.0179 138.506C75.0071 138.506 74.9962 138.506 74.9745 138.506ZM74.942 138.496C74.942 138.496 74.9528 138.496 74.9637 138.496C74.9637 138.496 74.9528 138.496 74.942 138.496ZM74.8985 138.485C74.8985 138.485 74.9094 138.485 74.9202 138.485C74.9202 138.485 74.9094 138.485 74.8985 138.485ZM74.8551 138.474H74.866C74.866 138.474 74.866 138.474 74.8551 138.474ZM74.8226 138.463C74.8226 138.463 74.8226 138.463 74.8334 138.463C74.8334 138.463 74.8334 138.463 74.8226 138.463ZM72.1633 137.909C72.1633 137.909 72.1741 137.909 72.185 137.909C72.185 137.909 72.1741 137.909 72.1633 137.909ZM72.1198 137.899C72.1198 137.899 72.1307 137.899 72.1416 137.899C72.1416 137.899 72.1307 137.899 72.1198 137.899ZM72.0764 137.899C72.0764 137.899 72.0873 137.899 72.0981 137.899C72.0981 137.899 72.0873 137.899 72.0764 137.899ZM72.033 137.888C72.033 137.888 72.0439 137.888 72.0547 137.888C72.0547 137.888 72.0439 137.888 72.033 137.888ZM71.9896 137.877C71.9896 137.877 72.0113 137.877 72.0222 137.877C72.0113 137.877 72.0004 137.877 71.9896 137.877ZM70.0575 137.605C70.6979 137.681 71.3383 137.768 71.9787 137.877C71.3383 137.779 70.6979 137.692 70.0575 137.605ZM69.6234 134.697C69.6234 134.697 69.6016 134.697 69.5908 134.697C69.5908 134.697 69.6125 134.697 69.6234 134.697ZM70.4266 134.783C70.1552 134.751 69.8839 134.729 69.6234 134.697C69.8839 134.718 70.1552 134.751 70.4266 134.783ZM68.7333 130.268C71.067 131.353 73.3572 132.612 75.4195 134.165C76.3422 134.859 77.2431 135.641 77.9812 136.553C77.2539 135.641 76.3422 134.859 75.4195 134.165C73.3572 132.612 71.067 131.353 68.7333 130.268ZM69.4171 127.457C69.4171 127.457 69.4605 127.478 69.4823 127.489C69.4605 127.489 69.4388 127.468 69.4171 127.457ZM67.5393 126.653C67.5393 126.653 67.5719 126.664 67.5827 126.675C67.5719 126.675 67.5502 126.664 67.5393 126.653ZM66.4865 121.096C68.2014 122.952 69.9598 124.797 71.5229 126.784C72.185 127.63 72.7711 128.531 73.3138 129.443C72.7711 128.52 72.1958 127.63 71.5229 126.784C69.9598 124.797 68.2014 122.963 66.4865 121.096Z" fill="#3745EB"/>
<path d="M56.6308 110.079C70.6546 116.092 77.6122 132.764 80.228 138.94C80.2823 139.06 80.3149 139.19 80.3257 139.331C80.4126 140.102 80.011 141.209 79.3489 142.425C78.665 142.294 77.9812 142.294 77.2757 142.37C76.733 142.425 76.1794 142.533 75.615 142.653C73.976 143 72.337 143.347 70.7088 143.738C70.6654 142.815 70.5894 141.86 70.4917 140.894C72.1959 140.493 73.9108 140.124 75.615 139.765C76.0817 139.668 76.5593 139.592 77.026 139.537C77.1671 139.527 77.2974 139.505 77.4385 139.494C76.6895 139.06 75.8646 138.734 75.018 138.506C73.4007 138.072 71.7291 137.801 70.0576 137.605C69.9056 136.65 69.7211 135.684 69.504 134.686C72.2284 134.957 75.3979 135.369 77.9704 136.552C77.2431 135.641 76.3314 134.859 75.4087 134.165C73.3464 132.612 71.0562 131.353 68.7225 130.268C68.5922 130.203 68.4511 130.138 68.3209 130.083C67.9301 128.824 67.4851 127.609 66.9967 126.436C67.8324 126.762 68.6574 127.12 69.4823 127.489C70.774 128.075 72.0656 128.727 73.3139 129.443C72.7712 128.52 72.1959 127.63 71.5229 126.784C69.9599 124.797 68.2015 122.963 66.4865 121.096C64.5653 119.012 62.6007 116.548 60.2453 114.735C58.8125 112.782 57.5209 111.208 56.6417 110.09" fill="#3A48D6"/>
</g>
<path d="M115.95 202.633C115.95 202.633 123.102 197.271 126.739 199.128C130.505 201.049 122.929 210.861 122.929 210.861L115.96 202.644L115.95 202.633Z" fill="#FF0090"/>
<path d="M129.68 217.276C129.68 217.276 134.152 211.122 137.56 211.719C141.099 212.337 137.408 222.215 137.408 222.215L129.68 217.287V217.276Z" fill="#FF0090"/>
<path d="M143.812 225.764C143.812 225.764 146.124 219.675 149.077 219.393C152.138 219.1 151.313 228.098 151.313 228.098L143.812 225.764Z" fill="#FF0090"/>
<path d="M157.022 229.161C157.022 229.161 157.749 223.669 160.137 222.855C162.612 222.019 163.687 229.628 163.687 229.628L157.022 229.161Z" fill="#FF0090"/>
<path d="M168.343 228.999C168.343 228.999 169.005 223.995 171.176 223.257C173.434 222.497 174.411 229.433 174.411 229.433L168.343 229.009V228.999Z" fill="#FF0090"/>
<path d="M189.911 229.031C182.204 236.694 167.345 249.969 148.404 259.564C138.45 264.601 131.417 274.087 129.528 285.094C129.528 285.094 111.749 269.594 104.542 244.9C93.7199 207.822 104.726 162.809 104.726 162.809C121.301 234.958 168.984 230.388 187.87 225.46C188.912 225.189 194.35 223.181 194.795 223.94C195.24 224.711 190.681 228.25 189.911 229.02" fill="#4F5FFF"/>
<path d="M145.994 265.947C141.446 275.585 135.086 282.727 127.716 287.764C127.716 287.764 127.716 287.775 127.705 287.785C116.579 295.416 103.196 298.26 90.4419 297.609C80.9878 297.12 71.6748 294.602 63.4256 290.456C50.9106 284.182 40.8378 274.142 36.3767 261.735C23.6446 226.242 57.6945 173.924 68.8961 151.51C74.9311 139.44 76.8089 128.933 77.2539 121.812C77.6338 115.723 76.9609 112.109 76.9609 112.109L82.1058 111.783L104.173 110.383L106.452 110.242C106.452 110.242 106.712 115.799 108.254 123.766C109.806 131.863 112.639 142.446 117.784 152.215C127.987 171.568 164.707 226.318 145.994 265.947Z" fill="#6B78FF"/>
<path d="M127.716 287.764C127.716 287.764 127.716 287.775 127.705 287.786C116.579 295.416 103.196 298.26 90.4419 297.609C80.9878 297.12 71.6748 294.602 63.4256 290.456C63.4256 290.456 44.4523 262.495 45.8199 231.539C47.1984 200.571 67.6805 167.129 74.4101 154.495C80.901 142.305 81.9539 119.663 82.1167 111.783C82.1709 110.014 82.1601 108.994 82.1601 108.994C82.1601 108.994 104.368 98.389 104.183 110.383C103.836 132.265 106.202 142.87 110.186 152.563C119.217 174.499 137.148 207.713 139.84 231.495C142.488 254.995 128.074 286.982 127.716 287.764Z" fill="#B3B9FF"/>
<mask id="mask3_6007_52985" style="mask-type:luminance" maskUnits="userSpaceOnUse" x="45" y="104" width="96" height="194">
<path d="M127.716 287.764C127.716 287.764 127.716 287.775 127.705 287.786C116.579 295.416 103.196 298.26 90.4419 297.609C80.9878 297.12 71.6748 294.602 63.4256 290.456C63.4256 290.456 44.4523 262.495 45.8199 231.539C47.1984 200.571 67.6805 167.129 74.4101 154.495C80.901 142.305 81.9539 119.663 82.1167 111.783C82.1709 110.014 82.1601 108.994 82.1601 108.994C82.1601 108.994 104.368 98.389 104.183 110.383C103.836 132.265 106.202 142.87 110.186 152.563C119.217 174.499 137.148 207.713 139.84 231.495C142.488 254.995 128.074 286.982 127.716 287.764Z" fill="white"/>
</mask>
<g mask="url(#mask3_6007_52985)">
<path d="M108.634 122.735C108.221 124.938 104.281 124.407 102.61 124.461C100.026 124.548 97.443 124.602 94.8596 124.504C89.7473 124.309 84.6132 123.506 80.011 121.194C77.9812 120.173 76.1251 123.213 78.1766 124.233C83.8425 127.077 90.0837 127.988 96.3575 128.097C99.4293 128.151 102.523 128.075 105.595 127.902C108.319 127.75 111.467 126.827 112.053 123.734C112.476 121.508 109.068 120.499 108.645 122.746L108.634 122.735Z" fill="#8792FF"/>
<path d="M110.24 135.804C107.972 137.041 105.681 138.311 103.196 139.082C100.46 139.928 97.6926 139.961 94.8922 139.483C89.3782 138.55 83.9077 136.813 78.6325 134.99C76.4616 134.241 75.4847 137.66 77.6447 138.398C83.3975 140.384 89.4108 142.305 95.4675 143.13C101.589 143.955 106.734 141.763 111.999 138.897C114.007 137.801 112.259 134.707 110.251 135.804H110.24Z" fill="#8792FF"/>
<path d="M110.045 148.883C105.822 152.932 99.8418 153.93 94.1975 153.485C87.6307 152.964 81.1073 150.891 74.8009 149.068C72.5975 148.427 71.6098 151.846 73.8132 152.476C85.8506 155.96 102.056 161.463 112.53 151.423C114.18 149.838 111.706 147.287 110.056 148.872L110.045 148.883Z" fill="#8792FF"/>
<path d="M120.606 164.405C112.151 167.628 103.163 169.224 94.1107 169.039C89.6279 168.953 85.1668 168.442 80.7925 167.466C76.809 166.586 72.7386 165.349 69.6451 162.57C67.9518 161.051 65.3902 163.515 67.0944 165.045C70.3506 167.965 74.3884 169.582 78.5999 170.602C83.2998 171.753 88.1517 172.393 92.9927 172.556C102.686 172.893 112.444 171.286 121.507 167.835C123.624 167.031 122.755 163.58 120.617 164.394L120.606 164.405Z" fill="#8792FF"/>
<path d="M134.521 171.167C126.359 177.506 116.167 180.534 106.018 181.663C100.797 182.249 95.5326 182.368 90.2792 182.249C85.2102 182.13 80.0544 181.945 75.0397 181.088C69.6343 180.154 64.294 178.363 60.4081 174.325C58.8234 172.676 56.2726 175.15 57.8574 176.8C65.4445 184.68 77.3408 185.321 87.5981 185.722C98.6587 186.157 110.045 185.636 120.649 182.238C126.565 180.339 132.068 177.527 136.985 173.718C138.787 172.317 136.301 169.777 134.51 171.167H134.521Z" fill="#8792FF"/>
<path d="M139.612 189.239C128.627 195.567 115.96 197.662 103.445 198.227C97.1825 198.509 90.9087 198.444 84.6349 198.324C78.0029 198.205 71.3601 198.02 64.7824 197.206C57.5752 196.316 50.4005 194.569 43.8879 191.291C41.8581 190.271 40.0021 193.31 42.0535 194.33C54.2646 200.463 68.017 201.494 81.4546 201.809C94.5992 202.123 107.961 202.373 120.921 199.79C128.074 198.368 135.042 195.969 141.37 192.322C143.346 191.182 141.609 188.089 139.623 189.228L139.612 189.239Z" fill="#8792FF"/>
<path d="M140.545 208.571C134.402 211.274 128.302 214.204 122.028 216.592C119.054 217.732 115.993 218.622 112.834 219.078C109.48 219.566 106.072 219.621 102.696 219.729C89.4651 220.131 75.9623 220.511 63.0783 216.95C56.5548 215.149 50.3896 212.348 44.9516 208.289C43.1172 206.921 41.3045 209.971 43.1172 211.328C53.3962 219.024 66.2043 222.182 78.817 223.148C85.97 223.691 93.1555 223.571 100.319 223.365C107.179 223.17 114.061 223.072 120.639 220.869C128.052 218.394 135.151 214.812 142.304 211.675C144.399 210.753 142.64 207.67 140.556 208.582L140.545 208.571Z" fill="#8792FF"/>
<path d="M147.601 222.833C122.636 239.853 90.7133 235.75 62.5138 231.853C54.9267 230.811 47.155 229.379 40.7076 225.004C38.8081 223.713 36.9845 226.763 38.8732 228.044C44.7128 232.005 51.6161 233.742 58.4978 234.827C66.2586 236.054 74.0845 237.02 81.8996 237.812C97.1608 239.354 112.791 239.614 127.716 235.631C135.39 233.579 142.781 230.41 149.348 225.938C151.226 224.657 149.489 221.553 147.601 222.844V222.833Z" fill="#8792FF"/>
</g>
<g style="mix-blend-mode:multiply" opacity="0.48">
<path d="M108.243 123.766C103.825 126.143 98.4632 127.337 90.0729 126.143C84.255 125.329 80.0869 123.538 77.2431 121.812C77.623 115.723 76.95 112.109 76.95 112.109L82.095 111.783L104.162 110.383L106.441 110.242C106.441 110.242 106.702 115.799 108.243 123.766Z" fill="#4E6587"/>
</g>
<path d="M70.8065 192.452C72.782 193.266 78.7736 190.444 78.7736 190.444C78.7736 190.444 79.5985 188.859 76.9066 187.361C76.9066 187.361 76.7112 187.329 76.3748 187.307C75.018 187.199 71.4578 187.285 70.3181 190.759C70.0033 191.714 70.2421 192.235 70.8065 192.452Z" fill="#293CFF"/>
<path d="M70.8065 192.452C73.1944 192.615 78.1114 190.303 78.1114 190.303C78.1114 190.303 78.9146 188.772 76.3747 187.307C75.8754 187.264 75.0831 187.253 74.2256 187.427C72.7385 187.72 71.0344 188.555 70.318 190.759C70.0575 191.54 70.1769 192.04 70.546 192.311C70.622 192.365 70.7088 192.42 70.8065 192.452Z" fill="#4F5FFF"/>
<path d="M74.2256 187.427C72.7386 187.72 71.0344 188.555 70.318 190.759C70.2963 190.824 70.2746 190.889 70.2638 190.943C70.8933 191.15 71.512 191.345 72.0981 191.54C73.379 190.857 74.8877 189.923 75.6041 189.044C75.8103 188.534 75.6475 188.067 74.9311 187.698C74.6923 187.579 74.4644 187.481 74.2364 187.427H74.2256Z" fill="#7B87FF"/>
<path d="M79.0775 199.453C79.0775 199.594 79.0666 199.735 79.0449 199.877C79.0124 200.235 78.9581 200.604 78.8821 200.962C78.7084 201.776 78.4154 202.601 77.9595 203.404C77.6773 203.914 77.3299 204.414 76.9175 204.902C76.8198 205.011 76.7221 205.13 76.6136 205.239C76.2988 205.575 75.9514 205.901 75.5498 206.226C74.9854 206.704 74.3233 207.149 73.5852 207.561C73.4767 207.627 73.379 207.67 73.2596 207.724C72.8037 207.952 72.3044 208.126 71.7834 208.256C71.7183 208.278 71.6532 208.289 71.5772 208.31C63.5884 210.166 49.2173 202.264 44.0724 198.433C38.4607 194.265 38.2979 187.948 41.8472 175.65C42.7156 172.643 43.6816 169.93 44.7128 167.509C44.7128 167.509 44.7128 167.509 44.7128 167.487C44.7236 167.455 44.7779 167.346 44.843 167.205C46.5472 163.265 48.4467 160.074 50.4113 157.501C54.2646 152.487 58.4218 149.893 62.0037 148.948C67.0943 147.613 71.067 149.578 71.5338 152.584C71.5772 152.943 71.6206 153.322 71.664 153.692C72.3153 161.203 56.8045 173.533 58.1504 183.671C58.6063 187.112 64.956 189.261 70.2638 190.965C70.7414 191.128 71.219 191.28 71.6749 191.421C72.337 191.638 72.9774 191.855 73.5635 192.051C73.7263 192.116 73.9 192.17 74.0519 192.235C75.5607 192.767 76.7221 193.288 77.2323 193.82C77.3951 193.983 77.547 194.178 77.6881 194.384C78.2634 195.187 78.7193 196.295 78.9472 197.543C79.0558 198.151 79.11 198.802 79.0775 199.475V199.453Z" fill="#4F5FFF"/>
<path d="M70.5134 193.277C72.0656 195.502 73.7697 200.376 69.1892 203.969C68.0821 204.837 66.6167 205.618 64.6955 206.281C61.2656 207.453 47.4915 200.691 42.8675 195.448C39.9586 192.148 40.5122 181.413 44.2786 170.266C45.2229 167.466 46.7968 164.025 48.5986 160.682C49.1847 159.596 49.7817 158.532 50.4113 157.49C52.5387 153.93 54.7964 150.761 56.6742 148.992C59.6049 146.235 63.5124 144.965 66.7904 144.78C68.7225 144.672 70.4483 144.943 71.6097 145.518C73.9651 146.68 71.3818 151.553 71.5337 152.563C71.5229 152.649 71.5229 152.725 71.512 152.801C70.9476 160.323 55.4802 172.784 55.1655 182.976C54.9918 188.566 68.6031 190.509 70.5134 193.277Z" fill="#6B78FF"/>
<path d="M57.6946 148.796C55.3392 150.468 49.912 158.825 48.6095 160.682C46.4821 163.732 45.2447 166.326 44.8648 167.194C46.1673 164.198 47.5132 161.528 48.9026 159.303C51.0083 155.927 54.0801 151.369 56.2509 149.187C61.4501 143.977 70.6112 144.02 71.6206 145.529C73.1294 146.69 66.5625 142.501 57.6946 148.796Z" fill="#B3B9FF"/>
<path d="M41.0549 189.087C40.9029 193.722 42.4551 198.682 56.1641 204.218C58.9753 205.358 61.1245 206.194 62.9589 206.411C67.8867 206.997 69.7645 204.642 70.025 203.241C70.5134 200.625 60.419 203.404 50.8672 199.019C41.3154 194.634 41.0983 187.893 41.0549 189.076V189.087Z" fill="#8792FF"/>
<path d="M75.0396 196.001C75.5498 198.075 81.346 201.277 81.346 201.277C81.346 201.277 83.1152 201.016 82.7462 197.955C82.7462 197.955 82.6594 197.771 82.4857 197.488C81.7802 196.327 79.6202 193.494 76.1359 194.612C75.1807 194.916 74.8985 195.415 75.0505 196.001H75.0396Z" fill="#293CFF"/>
<path d="M75.0397 196.002C76.3096 198.031 81.0747 200.658 81.0747 200.658C81.0747 200.658 82.7896 200.408 82.4857 197.489C82.2252 197.065 81.7802 196.414 81.1289 195.817C80.0218 194.786 78.3394 193.907 76.1359 194.612C75.3544 194.862 75.018 195.253 75.0071 195.708C75.0071 195.806 75.0071 195.904 75.0505 196.002H75.0397Z" fill="#4F5FFF"/>
<path d="M78.4153 194.406C77.7315 194.297 76.9609 194.33 76.1251 194.601C75.4196 194.829 75.0722 195.166 75.0071 195.556C75.0071 195.6 74.9962 195.643 74.9962 195.697C76.0491 196.273 78.4805 197.543 80.1737 197.814C80.3257 197.836 80.4777 197.858 80.6188 197.868C81.1506 197.738 81.4328 197.336 81.3134 196.533C81.27 196.273 81.2049 196.023 81.1289 195.806C80.4451 195.166 79.5333 194.58 78.4262 194.406H78.4153Z" fill="#7B87FF"/>
<path d="M72.7603 201.906C73.1076 203.741 78.4371 206.27 79.6636 206.628C80.9336 206.997 82.8548 204.5 81.7693 202.937C81.6934 202.785 81.574 202.666 81.4328 202.547C78.3502 199.963 74.1713 199.41 72.9014 201.233C72.7603 201.44 72.7169 201.678 72.7603 201.906Z" fill="#293CFF"/>
<path d="M72.7603 201.906C73.9542 203.632 78.2851 205.662 79.3814 205.977C80.4885 206.302 82.0841 204.446 81.7693 202.937C81.6934 202.785 81.574 202.666 81.4329 202.547C80.8467 202.058 80.2172 201.646 79.5876 201.298C76.9392 199.876 74.0845 199.757 72.9882 201.114L72.9122 201.222C72.7711 201.429 72.7277 201.667 72.7711 201.895L72.7603 201.906Z" fill="#4F5FFF"/>
<path d="M76.5918 200.256C75.018 199.996 73.6612 200.267 72.9773 201.114C73.0099 201.168 73.0642 201.222 73.1185 201.266C73.7806 201.754 76.6027 203.22 78.5565 203.534C78.8495 203.578 79.1209 203.6 79.3597 203.6C79.5551 203.524 79.707 203.361 79.7939 203.165C80.0435 202.59 79.9458 201.95 79.5768 201.309C78.5782 200.767 77.5362 200.419 76.581 200.267L76.5918 200.256Z" fill="#7B87FF"/>
<path d="M71.1104 207.409C71.4794 208.527 72.5974 209.558 74.6272 210.264C76.4616 210.904 77.699 208.104 76.8632 207.214L76.8306 207.181C75.9297 206.346 71.9896 203.686 71.2189 205.412C70.9259 206.063 70.8825 206.747 71.1104 207.409Z" fill="#293CFF"/>
<path d="M71.1104 207.409C71.6314 208.31 72.6843 209.124 74.3776 209.71C75.9189 210.242 77.0477 208.343 76.8632 207.214L76.8306 207.181C76.5918 206.953 76.136 206.606 75.5715 206.237C74.0519 205.227 71.7834 204.142 71.219 205.412C71.1213 205.629 71.0453 205.846 71.0236 206.074C70.915 206.519 70.9476 206.975 71.0996 207.42L71.1104 207.409Z" fill="#4F5FFF"/>
<path d="M72.6083 204.869C71.9788 204.761 71.4578 204.891 71.2298 205.412C71.143 205.597 71.0779 205.781 71.0453 205.976C71.0453 206.009 71.0453 206.042 71.0344 206.074C71.9462 207.127 72.8797 207.691 73.748 207.854C74.3667 207.854 74.9528 207.648 75.4196 207.279C75.7669 207.008 75.7778 206.639 75.5824 206.248C74.6815 205.651 73.5309 205.032 72.6083 204.88V204.869Z" fill="#7B87FF"/>
<path d="M114.864 192.452C112.889 193.266 106.897 190.444 106.897 190.444C106.897 190.444 106.072 188.859 108.764 187.361C108.764 187.361 108.959 187.329 109.296 187.307C110.653 187.199 114.213 187.285 115.353 190.759C115.667 191.714 115.429 192.235 114.864 192.452Z" fill="#293CFF"/>
<path d="M114.864 192.452C112.476 192.615 107.559 190.303 107.559 190.303C107.559 190.303 106.756 188.772 109.296 187.307C109.795 187.264 110.588 187.253 111.445 187.427C112.932 187.72 114.636 188.555 115.353 190.759C115.613 191.54 115.494 192.04 115.125 192.311C115.049 192.365 114.962 192.42 114.864 192.452Z" fill="#4F5FFF"/>
<path d="M111.434 187.427C112.921 187.72 114.625 188.555 115.342 190.759C115.363 190.824 115.385 190.889 115.396 190.943C114.766 191.15 114.148 191.345 113.562 191.54C112.281 190.857 110.772 189.923 110.056 189.044C109.849 188.534 110.012 188.067 110.729 187.698C110.967 187.579 111.195 187.481 111.423 187.427H111.434Z" fill="#7B87FF"/>
<path d="M106.582 199.453C106.582 199.594 106.593 199.735 106.615 199.877C106.647 200.235 106.702 200.604 106.778 200.962C106.951 201.776 107.244 202.601 107.7 203.404C107.983 203.914 108.33 204.414 108.742 204.902C108.84 205.011 108.938 205.13 109.046 205.239C109.361 205.575 109.708 205.901 110.11 206.226C110.674 206.704 111.337 207.149 112.075 207.561C112.183 207.627 112.281 207.67 112.4 207.724C112.856 207.952 113.355 208.126 113.876 208.256C113.942 208.278 114.007 208.289 114.083 208.31C122.071 210.166 136.443 202.264 141.587 198.433C147.199 194.265 147.362 187.948 143.813 175.65C142.944 172.643 141.978 169.93 140.947 167.509C140.947 167.509 140.947 167.509 140.947 167.487C140.936 167.455 140.882 167.346 140.817 167.205C139.113 163.265 137.213 160.074 135.249 157.501C131.395 152.487 127.238 149.893 123.656 148.948C118.565 147.613 114.593 149.578 114.126 152.584C114.083 152.943 114.039 153.322 113.996 153.692C113.345 161.203 128.855 173.533 127.509 183.671C127.054 187.112 120.704 189.261 115.396 190.965C114.918 191.128 114.441 191.28 113.985 191.421C113.323 191.638 112.682 191.855 112.096 192.051C111.933 192.116 111.76 192.17 111.608 192.235C110.099 192.767 108.938 193.288 108.428 193.82C108.265 193.983 108.113 194.178 107.972 194.384C107.396 195.187 106.941 196.295 106.713 197.543C106.604 198.151 106.55 198.802 106.582 199.475V199.453Z" fill="#4F5FFF"/>
<path d="M115.146 193.277C113.594 195.502 111.89 200.376 116.471 203.969C117.578 204.837 119.043 205.618 120.964 206.281C124.394 207.453 138.168 200.691 142.792 195.448C145.701 192.148 145.148 181.413 141.381 170.266C140.437 167.466 138.863 164.025 137.061 160.682C136.475 159.596 135.878 158.532 135.249 157.49C133.121 153.93 130.863 150.761 128.986 148.992C126.055 146.235 122.147 144.965 118.869 144.78C116.937 144.672 115.212 144.943 114.05 145.518C111.695 146.68 114.278 151.553 114.126 152.563C114.137 152.649 114.137 152.725 114.148 152.801C114.712 160.323 130.18 172.784 130.494 182.976C130.668 188.566 117.057 190.509 115.146 193.277Z" fill="#6B78FF"/>
<path d="M127.965 148.796C130.321 150.468 135.748 158.825 137.05 160.682C139.178 163.732 140.415 166.326 140.795 167.194C139.493 164.198 138.147 161.528 136.757 159.303C134.652 155.927 131.58 151.369 129.409 149.187C124.21 143.977 115.049 144.02 114.039 145.529C112.531 146.69 119.097 142.501 127.965 148.796Z" fill="#B3B9FF"/>
<path d="M144.616 189.087C144.768 193.722 143.216 198.682 129.507 204.218C126.695 205.358 124.546 206.194 122.712 206.411C117.784 206.997 115.906 204.642 115.646 203.241C115.157 200.625 125.252 203.404 134.804 199.019C144.355 194.634 144.572 187.893 144.616 189.076V189.087Z" fill="#8792FF"/>
<path d="M110.62 196.001C110.11 198.075 104.314 201.277 104.314 201.277C104.314 201.277 102.545 201.016 102.914 197.955C102.914 197.955 103 197.771 103.174 197.488C103.88 196.327 106.04 193.494 109.524 194.612C110.479 194.916 110.761 195.415 110.609 196.001H110.62Z" fill="#293CFF"/>
<path d="M110.62 196.002C109.35 198.031 104.585 200.658 104.585 200.658C104.585 200.658 102.87 200.408 103.174 197.489C103.435 197.065 103.88 196.414 104.531 195.817C105.638 194.786 107.32 193.907 109.524 194.612C110.305 194.862 110.642 195.253 110.653 195.708C110.653 195.806 110.653 195.904 110.609 196.002H110.62Z" fill="#4F5FFF"/>
<path d="M107.244 194.406C107.928 194.297 108.699 194.33 109.535 194.601C110.24 194.829 110.588 195.166 110.653 195.556C110.653 195.6 110.663 195.643 110.663 195.697C109.611 196.273 107.179 197.543 105.486 197.814C105.334 197.836 105.182 197.858 105.041 197.868C104.509 197.738 104.227 197.336 104.346 196.533C104.39 196.273 104.455 196.023 104.531 195.806C105.215 195.166 106.126 194.58 107.234 194.406H107.244Z" fill="#7B87FF"/>
<path d="M112.899 201.906C112.552 203.741 107.223 206.27 105.996 206.628C104.726 206.997 102.805 204.5 103.89 202.937C103.966 202.785 104.086 202.666 104.227 202.547C107.31 199.963 111.488 199.41 112.758 201.233C112.899 201.44 112.943 201.678 112.899 201.906Z" fill="#293CFF"/>
<path d="M112.899 201.906C111.706 203.632 107.375 205.662 106.278 205.977C105.171 206.302 103.576 204.446 103.89 202.937C103.966 202.785 104.086 202.666 104.227 202.547C104.813 202.058 105.443 201.646 106.072 201.298C108.721 199.876 111.575 199.757 112.672 201.114L112.748 201.222C112.889 201.429 112.932 201.667 112.889 201.895L112.899 201.906Z" fill="#4F5FFF"/>
<path d="M109.068 200.256C110.642 199.996 111.999 200.267 112.682 201.114C112.65 201.168 112.596 201.222 112.541 201.266C111.879 201.754 109.057 203.22 107.103 203.534C106.81 203.578 106.539 203.6 106.3 203.6C106.105 203.524 105.953 203.361 105.866 203.165C105.616 202.59 105.714 201.95 106.083 201.309C107.082 200.767 108.124 200.419 109.079 200.267L109.068 200.256Z" fill="#7B87FF"/>
<path d="M114.549 207.409C114.18 208.527 113.062 209.558 111.033 210.264C109.198 210.904 107.961 208.104 108.797 207.214L108.829 207.181C109.73 206.346 113.67 203.686 114.441 205.412C114.734 206.063 114.777 206.747 114.549 207.409Z" fill="#293CFF"/>
<path d="M114.549 207.409C114.028 208.31 112.976 209.124 111.282 209.71C109.741 210.242 108.612 208.343 108.797 207.214L108.829 207.181C109.068 206.953 109.524 206.606 110.088 206.237C111.608 205.228 113.876 204.142 114.441 205.412C114.539 205.629 114.615 205.846 114.636 206.074C114.745 206.519 114.712 206.975 114.56 207.42L114.549 207.409Z" fill="#4F5FFF"/>
<path d="M113.051 204.869C113.681 204.761 114.202 204.891 114.43 205.412C114.517 205.597 114.582 205.781 114.614 205.976C114.614 206.009 114.614 206.042 114.625 206.074C113.714 207.127 112.78 207.691 111.912 207.854C111.293 207.854 110.707 207.648 110.24 207.279C109.893 207.008 109.882 206.639 110.077 206.248C110.978 205.651 112.129 205.032 113.051 204.88V204.869Z" fill="#7B87FF"/>
<path d="M131.004 37.8327C134.76 38.0715 132.73 37.9955 141.327 30.061L139.254 51.9976L136.29 56.5781C136.29 56.5781 126.033 37.5179 131.004 37.8327Z" fill="#6B78FF"/>
<path d="M167.084 32.373C166.237 34.3159 164.881 37.1272 163.122 40.0253C164.045 40.4703 164.859 40.8936 165.543 41.2518C166.672 41.8488 166.769 43.2165 166.183 44.291C165.054 46.3859 163.003 50.5757 158.943 50.7819C152.159 51.1292 158.411 52.0627 159.128 53.8103C160.04 56.0462 155.253 59.0963 151.15 57.6201C148.751 56.7626 146.472 55.3841 138.494 57.6201C136.811 56.4804 133.273 54.049 133.36 52.7248C133.653 48.5785 134.782 37.3551 142.173 31.4287C145.896 28.4438 155.133 23.3314 158.531 22.0072C159.236 21.7358 159.974 22.1157 159.92 22.0072C160.582 22.5065 161.006 23.3422 160.908 24.254C160.799 25.372 160.615 26.7613 160.354 28.2918C162.362 28.5957 164.099 28.9105 165.412 29.1819C166.824 29.4641 167.638 31.0488 167.073 32.3513L167.084 32.373Z" fill="#828DFF"/>
<path d="M145.104 35.2385C147.405 33.8708 154.113 29.7245 157.988 28.7042C161.765 27.7056 165.695 28.9104 165.673 29.2686C165.63 29.8656 159.019 26.9784 147.546 35.2059C143.671 37.9846 136.953 44.1064 134.445 46.744C133.924 47.2976 133.989 48.1334 133.924 48.0357C133.62 47.6015 133.599 47.3085 133.946 46.6463C135.628 43.466 141.424 37.4202 145.104 35.2385Z" fill="#6E7BFF"/>
<path d="M146.472 43.2707C148.773 42.2938 155.427 39.6671 159.182 39.5911C162.851 39.5151 166.259 41.5123 166.172 41.8379C166.02 42.3807 162.254 37.3985 148.393 43.2816C144.333 45.0074 137.039 49.1537 134.25 51.0424C133.664 51.4331 133.36 52.1929 133.316 52.0953C133.11 51.6285 133.143 51.5851 133.599 51.0749C135.172 49.3165 143.107 44.7143 146.472 43.2816V43.2707Z" fill="#6E7BFF"/>
<path d="M159.942 22.0181C159.996 22.1266 159.258 21.7467 158.553 22.0181C155.155 23.3423 145.907 28.4547 142.195 31.4396C134.793 37.3552 133.642 48.5785 133.381 52.7357C133.316 53.7343 136.16 55.8835 137.843 57.0232C138.353 57.3597 138.548 57.6636 138.537 57.707C138.516 57.9132 138.016 57.5659 137.148 57.0666C135.552 56.1657 133.957 55.1128 133.11 54.3205C131.808 53.0722 133.512 42.1528 134.565 39.6563C136.844 34.2292 140.589 30.2891 142.901 28.9214C146.428 26.8157 154.374 22.2677 158.194 21.5839C158.368 21.5622 158.52 21.5296 158.683 21.5188C159.421 21.4537 159.681 21.5731 159.964 22.0072L159.942 22.0181Z" fill="#1C30FF"/>
<path d="M36.6698 65.0553C33.6197 67.2587 35.2913 66.1082 23.7857 63.9807L37.2342 81.4453L42.1838 83.7464C42.1838 83.7464 40.6967 62.1572 36.6698 65.0661V65.0553Z" fill="#6B78FF"/>
<path d="M3.22768 79.6651C4.98607 80.8591 7.62367 82.5198 10.652 84.0286C10.1093 84.8969 9.64257 85.6893 9.26267 86.3514C8.62226 87.4585 9.26266 88.6633 10.3372 89.2712C12.4104 90.4434 16.3831 92.8965 19.9216 90.9102C25.848 87.5888 21.0504 91.7134 21.3761 93.5695C21.7885 95.9466 27.4762 95.9791 30.1572 92.5492C31.7311 90.5411 32.925 88.164 40.8704 85.8195C41.6844 83.9634 43.3886 80.0125 42.6071 78.9379C40.1431 75.5839 33.2181 66.6834 23.7966 65.6197C19.0532 65.077 8.51372 65.6739 4.9318 66.3686C4.18286 66.5206 3.75954 67.2261 3.75954 67.1176C3.46647 67.8882 3.55331 68.8217 4.12858 69.5381C4.82326 70.4281 5.71331 71.5027 6.74447 72.6641C5.20316 73.9883 3.90064 75.1823 2.94547 76.1158C1.90345 77.1035 2.05541 78.8836 3.22768 79.676V79.6651Z" fill="#828DFF"/>
<path d="M23.3624 70.3738C20.6814 70.4389 12.8012 70.5149 8.98046 71.7089C5.24659 72.8812 2.56558 75.9963 2.78266 76.2785C3.14085 76.7561 7.20036 70.7971 21.2784 71.6438C26.0434 71.926 34.9765 73.5324 38.515 74.4225C39.2531 74.607 39.6439 75.3451 39.6439 75.2365C39.6656 74.7047 39.5245 74.4442 38.884 74.0751C35.7689 72.2733 27.639 70.2544 23.3624 70.363V70.3738Z" fill="#6E7BFF"/>
<path d="M26.4776 77.896C24.0136 78.2976 16.98 79.6218 13.7563 81.5539C10.6086 83.4425 8.78505 86.9484 9.0347 87.1764C9.44716 87.5563 9.98988 81.3259 24.8494 78.9271C29.202 78.2216 37.5815 77.8525 40.9463 77.9611C41.6519 77.9828 42.314 78.4495 42.3031 78.3518C42.2271 77.8417 42.1729 77.8308 41.5216 77.6463C39.2531 76.9951 30.0812 77.3207 26.4776 77.9068V77.896Z" fill="#6E7BFF"/>
<path d="M3.75953 67.085C3.75953 67.2044 4.1937 66.4989 4.93179 66.3469C8.51371 65.6523 19.0532 65.0553 23.7966 65.598C33.2072 66.6617 40.1757 75.5405 42.6071 78.9162C43.1932 79.7303 41.9341 83.0626 41.12 84.9186C40.8595 85.4831 40.8595 85.8413 40.8921 85.863C41.0223 86.0258 41.2611 85.4722 41.7279 84.5822C42.5962 82.9757 43.3886 81.2282 43.6816 80.1102C44.1267 78.3627 36.8651 70.0266 34.64 68.4744C29.8207 65.0987 24.5564 63.7636 21.8645 63.8396C17.7507 63.9373 8.6114 64.328 5.01863 65.7825C4.85581 65.8585 4.71471 65.9128 4.5736 65.9888C3.91149 66.3252 3.75953 66.5749 3.74867 67.085H3.75953Z" fill="#1C30FF"/>
<path d="M59.1599 51.5743C56.3377 53.6475 62.1014 46.1255 60.8965 40.0037C57.8139 24.3192 51.7789 26.349 52.8535 24.2975C54.08 21.9421 62.7635 25.1441 71.0887 35.5317C82.2578 49.4686 61.9928 49.5012 59.1707 51.5743H59.1599Z" fill="#F00088"/>
<path d="M85.1993 34.3811C88.3904 35.8464 80.673 29.2036 81.8236 22.2026C85.2101 1.6337 95.8256 1.77481 92.6345 0.309476C89.4433 -1.15585 76.581 3.57662 70.9259 20.2814C64.2396 40.0145 82.0081 32.9158 85.1993 34.3811Z" fill="#FF0090"/>
<path d="M83.5495 36.9101C86.9903 36.1937 76.8306 35.423 73.6069 29.1058C64.1311 10.545 71.4361 8.89513 69.6994 8.31986C66.3671 7.21272 58.5412 13.9641 63.6861 34.0228C68.8636 54.2118 80.1087 37.6156 83.5495 36.9101Z" fill="#FF0090"/>
<path d="M88.2711 2.45861C88.2711 2.45861 83.658 4.58605 80.1195 8.41762C76.809 11.9887 73.8783 16.9382 73.9109 19.7386C73.9651 24.0369 75.3002 24.1129 76.212 23.2446C78.6542 20.9326 76.8958 14.8542 82.8331 8.39591C86.7841 4.09761 91.8964 0.884737 88.282 2.45861H88.2711Z" fill="#FF87CB"/>
<path d="M66.9749 10.7188C66.0632 11.1421 65.2165 11.7499 64.5327 16.6778C63.7621 22.2677 64.9018 24.927 66.5516 24.6231C68.6899 24.2323 66.4105 21.3668 66.0198 17.0359C65.6941 13.3998 67.3331 11.4351 66.9749 10.7296V10.7188Z" fill="#FF87CB"/>
<path d="M77.9487 34.0229C80.9444 35.8572 89.4976 29.9959 90.5831 24.623C93.7851 8.84089 103.662 11.2723 100.754 9.30762C98.4416 7.7446 89.0743 7.79888 80.3475 20.8349C72.2176 32.97 75.9189 31.2333 77.9487 34.0229Z" fill="#FF0090"/>
<path d="M138.472 57.5768C135.835 54.1468 134.228 50.0656 133.533 45.789C133.533 45.7673 133.533 45.7564 133.533 45.7347C131.091 30.8318 115.211 16.0808 100.851 17.5136C90.2248 18.5664 85.0256 23.1687 83.4083 28.3462C81.1506 35.5968 79.1643 34.7176 72.9231 30.4085C69.1024 27.7709 63.0131 27.0436 54.08 30.5279C40.6207 35.7705 33.7608 54.7221 37.9397 69.2126C38.0699 69.6467 38.2002 70.0809 38.3522 70.5151C39.8066 74.8025 40.4036 79.3288 39.8175 83.8116C38.6778 92.4842 36.0076 90.3025 38.4173 98.6386C45.5377 123.321 88.6727 129.975 104.422 125.438C120.172 120.901 153.125 92.278 146.005 67.5953C143.899 60.3121 143.259 63.7746 138.494 57.5876L138.472 57.5768ZM85.9808 58.749C85.9808 58.749 85.9265 58.7599 85.894 58.7707C85.894 58.7056 85.894 58.6405 85.894 58.5754C85.9265 58.6296 85.9482 58.6839 85.9808 58.749Z" fill="#6B78FF"/>
<path d="M104.411 75.2041C104.129 74.7591 102.794 73.6736 100.862 74.2815C98.9299 74.8893 98.6477 76.1484 98.4089 77.2556C98.2678 77.896 99.8634 77.3967 100.428 76.9082L100.471 76.8757L100.656 76.778C100.895 76.702 101.35 77.744 101.589 77.9394C101.817 78.1348 102.946 78.5689 104.118 77.7549C105.54 76.7671 104.596 75.4863 104.411 75.2041Z" fill="#99A2FF"/>
<path d="M82.8113 80.5987C82.1818 80.0452 81.1615 79.9149 80.38 80.0777C79.5985 80.2405 78.8821 80.4902 78.4045 80.9461C78.0897 81.2391 77.2648 81.8578 77.3516 83.0301C77.395 83.5945 77.5361 84.3435 78.1657 84.3869C81.1615 84.5714 82.5942 82.4114 82.8113 82.1835C83.2346 81.7276 83.2672 81.0221 82.8113 80.6096V80.5987Z" fill="#99A2FF"/>
<path d="M98.2787 80.566C97.8771 80.9459 97.2041 80.6637 97.3018 80.1644C97.6383 78.4277 98.5283 75.877 100.862 75.8119C104.411 75.7033 103.977 77.4943 102.696 77.8959C101.622 78.2324 100.243 78.7208 98.2678 80.566H98.2787Z" fill="#00074D"/>
<path d="M84.4069 84.3434C84.8845 84.5062 85.3295 83.9635 85.0364 83.5619C84.0378 82.14 82.2686 80.2296 80.3257 81.1848C77.3841 82.6393 78.4696 84.0612 79.6744 83.8658C80.6947 83.703 82.0189 83.5293 84.396 84.3434H84.4069Z" fill="#00074D"/>
<path d="M101.492 73.4023C104.053 71.8067 107.027 73.7279 106.539 76.257C106.409 77.0168 105.953 77.7657 105.236 78.189C106.854 75.6057 104.911 72.6208 101.492 73.4023Z" fill="#1C30FF"/>
<path d="M79.0557 79.98C76.2336 79.8498 74.7031 82.8781 76.277 84.7668C76.7329 85.342 77.4601 85.7545 78.2416 85.7654C75.7235 84.3652 75.9188 80.9352 79.0666 79.98H79.0557Z" fill="#1C30FF"/>
<path d="M101.589 111.479C94.2409 113.813 86.6212 112.64 86.3607 112.923C86.0568 113.248 93.9804 115.05 102.371 112.63C109.394 110.6 113.963 105.325 113.551 105.129C113.214 104.977 108.482 109.276 101.589 111.468V111.479Z" fill="#1C30FF"/>
<path d="M99.4401 107.713C84.8085 111.816 70.1987 107.333 63.469 104.663C62.6549 104.337 62.7201 102.969 63.545 102.958C70.101 102.839 83.81 102.144 96.0319 98.7578C107.331 95.6209 119.89 88.7719 125.252 85.6784C125.946 85.2768 126.695 86.3405 126.239 87.0569C122.875 92.4189 114.332 103.545 99.4401 107.723V107.713Z" fill="#00074D"/>
<path d="M103.445 96.8149C103.5 97.1189 103.597 97.8027 103.467 98.4322C103.359 98.9315 103.109 99.5394 102.935 99.9518C102.827 100.212 102.512 100.321 102.262 100.191C101.882 100.006 101.351 99.713 100.927 99.3874C100.428 98.9966 100.081 98.4431 99.9177 98.1392C101.079 97.7484 102.262 97.3034 103.456 96.8149H103.445Z" fill="white"/>
<path d="M93.7633 99.9302C93.7633 100.245 93.7416 100.929 93.492 101.526C93.2857 102.003 92.9384 102.557 92.6887 102.926C92.5259 103.165 92.2112 103.208 91.9832 103.045C91.6467 102.796 91.1691 102.416 90.8218 102.014C90.3985 101.537 90.1597 100.94 90.0512 100.603C91.2668 100.419 92.5151 100.202 93.7742 99.9302H93.7633Z" fill="white"/>
<path d="M99.6681 108.516C93.861 109.992 87.8152 110.22 81.9647 109.471C75.7344 108.722 69.6777 107.051 63.8598 104.815C63.1108 104.663 62.5573 103.859 63.0783 103.154C63.3388 102.85 63.7729 102.958 64.1203 102.926C74.345 102.622 84.5915 101.167 94.4906 98.6493C105.052 95.7946 115.222 91.3009 124.763 85.9389C125.078 85.787 125.393 85.4613 125.773 85.6133C126.12 85.7544 126.337 86.1126 126.37 86.4816C126.424 86.8724 126.142 87.1763 125.957 87.4802C124.6 89.6619 123.092 91.7568 121.442 93.7214C115.722 100.538 108.232 105.846 99.6464 108.505L99.6681 108.516ZM99.2122 106.909C104.78 105.466 110.099 102.926 114.723 99.3765C118.783 96.2831 122.364 92.5383 125.328 88.3703C125.86 87.5562 127.075 86.3405 125.784 85.6241C125.414 85.4613 125.089 85.787 124.774 85.9389L122.864 87.0352C103.055 98.4214 91.4731 102.123 68.5271 102.828L64.1311 102.948C63.7838 102.98 63.3496 102.861 63.1 103.165C62.6115 103.827 63.1 104.673 63.8706 104.804L64.9018 105.194C75.8863 109.221 88.1625 110.187 99.2231 106.899L99.2122 106.909Z" fill="#1C30FF"/>
<path d="M125.946 85.3094C122.484 83.4316 121.865 79.0573 121.572 79.1333C121.236 79.2093 121.398 84.148 125.143 86.46C128.28 88.392 133.588 86.9701 133.653 86.6553C133.707 86.3948 129.181 87.0678 125.935 85.3094H125.946Z" fill="#1C30FF"/>
<path d="M62.3401 103.284C64.1094 99.7674 62.1231 95.8272 62.4053 95.7187C62.7309 95.5993 65.4119 99.7456 63.6535 103.773C62.1773 107.148 57.0107 109.015 56.7719 108.787C56.5765 108.603 60.6794 106.573 62.3401 103.273V103.284Z" fill="#1C30FF"/>
<path d="M98.3656 25.0898C101.546 23.6245 105.128 23.2663 108.547 24.2323C111.619 25.1007 115.656 27.1956 116.785 30.0611C117.046 30.7123 115.83 30.8643 114.929 30.0502C113.388 28.6392 109.752 26.9568 107.147 27.5755C104.77 28.1399 102.197 29.0516 100.015 30.0285C95.3589 32.1126 95.9885 26.197 98.3547 25.1007L98.3656 25.0898Z" fill="#1C30FF"/>
<path d="M92.4826 51.4332C92.9167 60.388 95.4024 64.8708 108.449 64.2304C121.496 63.59 123.537 58.8901 123.092 49.9353C122.658 40.9805 115.255 30.137 106.799 30.5495C98.3439 30.962 92.0376 42.4784 92.4717 51.4332H92.4826Z" fill="#3647FF"/>
<path d="M92.7756 51.4875C93.1881 59.9538 95.5326 64.187 107.874 63.59C120.215 62.993 122.136 58.5428 121.724 50.0764C121.312 41.6101 114.311 31.3527 106.322 31.7435C98.333 32.1343 92.3631 43.0211 92.7756 51.4875Z" fill="white"/>
<path d="M115.6 56.2851C116.804 50.278 112.91 44.4325 106.903 43.2289C100.895 42.0253 95.0499 45.9193 93.8463 51.9264C92.6426 57.9336 96.5367 63.7791 102.544 64.9827C108.551 66.1863 114.396 62.2923 115.6 56.2851Z" fill="#E80083"/>
<path d="M104.726 63.4813C109.9 63.4813 114.093 59.2875 114.093 54.1141C114.093 48.9407 109.9 44.7468 104.726 44.7468C99.5528 44.7468 95.3589 48.9407 95.3589 54.1141C95.3589 59.2875 99.5528 63.4813 104.726 63.4813Z" fill="#00074D"/>
<path d="M107.863 48.8063C108.352 48.8498 108.666 49.7507 108.569 50.8252C108.482 51.8998 108.015 52.7356 107.527 52.703C107.038 52.6596 106.723 51.7587 106.821 50.6841C106.908 49.6096 107.375 48.7738 107.863 48.8063Z" fill="white"/>
<path d="M108.08 46.223C108.569 46.2664 108.927 46.6355 108.894 47.0479C108.862 47.4604 108.438 47.7643 107.95 47.7209C107.461 47.6775 107.103 47.3084 107.136 46.896C107.168 46.4835 107.592 46.1796 108.08 46.223Z" fill="white"/>
<path d="M58.1613 36.4977C54.677 36.8016 51.3882 38.2561 48.8917 40.796C46.6557 43.0754 44.1809 46.8961 44.6151 49.9353C44.7128 50.63 45.8416 50.1633 46.2215 49.0019C46.8619 47.0155 49.1848 43.7484 51.7572 42.9886C54.1017 42.3048 56.7828 41.8163 59.1707 41.5884C64.2505 41.0891 60.7663 36.2698 58.1721 36.4869L58.1613 36.4977Z" fill="#1C30FF"/>
<path d="M76.4833 57.175C80.4234 65.0769 80.4451 70.1242 68.9179 75.8661C57.3906 81.608 53.3854 78.5363 49.4453 70.6343C45.5052 62.7324 46.6449 49.8375 54.1018 46.1253C61.5695 42.4132 72.5324 49.2731 76.4725 57.175H76.4833Z" fill="#3647FF"/>
<path d="M76.2554 57.3596C79.9784 64.8382 80.0001 69.6033 69.1024 75.0304C58.2047 80.4576 54.4165 77.5595 50.6935 70.0809C46.9705 62.6023 48.0451 50.4237 55.1004 46.9069C62.1557 43.3902 72.5324 49.881 76.2554 57.3596Z" fill="white"/>
<path d="M73.3493 69.4973C74.553 63.4901 70.6589 57.6447 64.6518 56.441C58.6446 55.2374 52.7992 59.1314 51.5955 65.1386C50.3919 71.1457 54.2859 76.9912 60.2931 78.1948C66.3002 79.3985 72.1457 75.5044 73.3493 69.4973Z" fill="#E80083"/>
<path d="M62.4704 76.6911C67.6438 76.6911 71.8377 72.4972 71.8377 67.3238C71.8377 62.1504 67.6438 57.9565 62.4704 57.9565C57.297 57.9565 53.1032 62.1504 53.1032 67.3238C53.1032 72.4972 57.297 76.6911 62.4704 76.6911Z" fill="#00074D"/>
<path d="M65.6073 62.0161C66.0957 62.0595 66.4105 62.9604 66.3128 64.035C66.226 65.1095 65.7592 65.9453 65.2708 65.9127C64.7823 65.8693 64.4676 64.9684 64.5652 63.8938C64.6521 62.8193 65.1188 61.9835 65.6073 62.0161Z" fill="white"/>
<path d="M65.8244 59.4327C66.3128 59.4761 66.671 59.8452 66.6384 60.2576C66.6059 60.6701 66.1826 60.974 65.6941 60.9306C65.2057 60.8872 64.8475 60.5181 64.88 60.1057C64.9126 59.6932 65.3359 59.3893 65.8244 59.4327Z" fill="white"/>
<path d="M50.1834 85.1141C50.1834 85.1141 61.7758 79.4808 73.4333 77.1905C80.1629 75.8771 85.0148 77.9937 91.0824 76.2462C96.4335 74.7049 98.9734 70.7213 104.52 68.1814C112.791 64.3933 128.758 62.4395 128.758 62.4395C128.758 62.4395 109.621 57.3163 87.4679 63.7095C62.0254 71.0578 50.1834 85.1141 50.1834 85.1141Z" fill="#828DFF"/>
<path d="M128.758 62.4394C121.746 61.4626 114.745 60.0623 107.635 60.7245C90.138 62.3743 72.5541 67.8123 58.1938 78.1565C55.3283 80.2405 52.593 82.509 50.1834 85.1141C54.8399 79.7303 60.712 75.508 66.8773 71.9804C79.3272 65.1096 93.4377 61.1695 107.603 60.1166C114.756 59.5956 121.778 61.1369 128.758 62.4394Z" fill="#1C30FF"/>
<path d="M76.0817 71.9478C75.463 70.5259 81.7694 70.4933 87.5439 68.8543C93.0144 67.3022 97.9531 64.0567 98.3764 65.5112C99.0386 67.8123 93.4812 71.2314 88.8898 72.5556C84.2984 73.8799 77.0152 74.0861 76.0817 71.9369V71.9478Z" fill="#919BFF"/>
</g>
</svg>
