<svg width="65" height="76" viewBox="0 0 65 76" fill="none" xmlns="http://www.w3.org/2000/svg">
<path d="M46.2142 65.5973C46.2142 65.5973 43.6945 66.7272 49.2938 69.4769C49.2938 69.4769 43.9545 68.8969 45.5643 71.9966L40.3149 68.277L41.8947 65.5273L46.2242 65.5973H46.2142Z" fill="#FFD88F"/>
<path d="M33.7958 67.2877C33.9058 67.4177 35.3756 66.8677 36.3855 67.3277C36.8454 67.5376 39.5151 69.3374 40.375 69.9174C40.9049 70.2773 46.0943 72.937 46.2942 72.5871C46.3842 72.4371 45.7143 71.4772 44.1345 70.3873C43.7646 70.1273 42.0148 68.7975 42.1648 68.5075C42.2447 68.3376 45.6543 69.0475 45.6543 69.0475C46.6942 69.2574 49.2339 69.5874 49.2939 69.4674C49.3939 69.2674 46.1143 67.7676 44.7744 67.2377C44.4245 67.0977 42.5147 66.3778 43.1446 66.0278C43.3846 65.8878 46.1443 65.8279 46.2143 65.5979C46.2742 65.3979 42.6147 64.968 39.1551 65.2779C38.8652 64.388 38.8652 63.8281 38.7052 62.8182C38.6352 62.3583 38.3152 59.0686 38.2152 58.9287C38.1952 58.8887 37.3054 59.2786 36.3155 59.2786C36.1555 59.2786 35.9955 59.2686 35.8255 59.2386C35.5756 59.2086 37.1254 65.4679 37.1554 65.5379C36.4755 65.6379 33.6458 67.1177 33.7958 67.2977V67.2877Z" fill="#FFCD71"/>
<path d="M33.7958 67.2886C34.3458 66.6686 37.4058 65.6286 37.4058 65.6286C36.7058 64.3286 36.3158 59.2686 36.3158 59.2686C36.1558 59.2686 35.9958 59.2586 35.8258 59.2286C35.5758 59.1986 37.1258 65.4586 37.1558 65.5286C36.4758 65.6286 33.6458 67.1086 33.7958 67.2886Z" fill="#F5B845"/>
<path d="M54.6633 41.5006C54.6633 41.8105 54.6433 42.1405 54.6233 42.4704C54.6033 42.8504 54.5633 43.2304 54.5133 43.6203C54.4933 43.7803 54.4733 43.9403 54.4533 44.1003C52.8735 54.0291 39.4651 60.2984 33.9758 60.4783C25.2869 60.7783 17.2979 58.8885 10.9986 54.2791C10.9986 54.2791 8.71893 53.6991 6.80916 52.7992C5.78929 52.3193 4.8694 51.7494 4.45945 51.1294C4.45945 51.1294 5.10937 51.1394 5.6593 50.8495C6.11925 50.6095 6.36921 50.2195 6.42921 50.1095C6.40921 50.1095 6.39921 50.0796 6.38921 50.0696C5.92927 49.9396 2.27972 48.7897 0 44.5302C0.0799901 44.5702 1.40983 45.1101 3.05962 45.4401C1.90976 43.5103 0.909888 41.3806 0.0899889 39.0409C0.199975 39.1808 4.0795 43.8803 21.0574 32.6216C26.6867 28.892 33.9458 33.1515 38.1253 29.242C38.3053 29.072 38.4653 28.902 38.5952 28.7321C38.7852 28.5021 38.9352 28.2621 39.0352 28.0221C39.1652 27.7422 39.2552 27.4422 39.2852 27.1523C39.3051 27.0223 39.3152 26.9023 39.3152 26.7723C39.3351 25.4025 38.6152 23.8526 37.7453 22.0029C37.0454 20.513 36.2555 18.8032 35.6856 16.8435C35.4956 16.1635 35.3256 15.4636 35.1957 14.7237C35.0757 14.0438 34.9857 13.3239 34.9457 12.574C34.9457 12.524 34.9457 12.444 34.9457 12.354C34.9457 12.094 34.9457 11.8541 34.9457 11.6241C34.9557 11.4841 34.9657 11.3441 34.9857 11.2241C35.0257 10.8742 35.0957 10.5842 35.1957 10.3342C35.3156 10.0243 35.4656 9.7843 35.6656 9.59432C36.4855 8.76442 37.9453 9.04438 39.4951 9.7743C42.5248 11.1941 45.9543 14.3338 45.9543 14.3338C45.9043 14.3738 45.4644 14.7337 45.1144 15.5336L44.8445 16.3735C44.8245 16.4535 44.8045 16.5335 44.7945 16.6235C44.7645 16.7535 44.7445 16.9035 44.7345 17.0534C44.7245 17.1834 44.7145 17.3234 44.7145 17.4634V17.5634C44.7145 17.8233 44.7145 18.1033 44.7545 18.3933C44.8345 19.2632 45.1044 20.2931 45.6144 21.4929C46.0243 22.4328 46.5543 23.3827 47.1742 24.3626C47.9141 25.5524 48.764 26.7823 49.6339 28.0621C50.0838 28.7421 50.5338 29.442 50.9837 30.1519C51.2237 30.5219 51.4437 30.9018 51.6636 31.2918C53.2634 34.0814 54.5533 37.1811 54.6633 40.8106L54.6833 41.5006H54.6633Z" fill="#ECE5DD"/>
<g style="mix-blend-mode:multiply" opacity="0.11">
<path d="M45.9643 14.3436C45.9143 14.3636 45.3744 14.5636 45.1244 15.5435L44.8544 16.3834C44.8344 16.4634 44.8145 16.5434 44.8045 16.6334C44.7745 16.7634 44.7545 16.9133 44.7445 17.0633C44.7345 17.1933 44.7245 17.3333 44.7245 17.4733V17.5733C42.3848 17.2033 38.7052 16.5534 36.8054 14.0737C36.4855 13.6637 36.2055 13.2138 36.0055 12.6938C36.0255 12.5039 35.7656 11.9039 35.5356 11.354C35.3456 10.884 35.1756 10.4641 35.2256 10.3441L35.6056 10.2941L39.5251 9.78418C42.5547 11.204 45.9843 14.3436 45.9843 14.3436H45.9643Z" fill="#795E41"/>
</g>
<path d="M55.4131 7.94474C55.4131 8.15471 55.4131 8.35469 55.3831 8.55467C55.1832 10.5444 53.9333 12.4042 53.1334 13.5641C51.4136 16.0238 48.144 16.6437 44.8444 16.3737C41.7548 16.1238 38.6452 15.0939 36.7954 14.064C36.3255 13.804 35.9455 13.5441 35.6556 13.3041C35.3156 13.0241 35.0956 12.7442 35.0656 12.5042C35.0157 12.2042 34.9757 11.9243 34.9557 11.6343C34.9557 11.5043 34.9357 11.3743 34.9257 11.2443C34.9257 10.8944 34.9257 10.5844 34.9257 10.4244C34.9257 10.3645 34.9257 10.3145 34.9357 10.2545C34.9357 10.1145 34.9557 9.9845 34.9657 9.85451C34.9957 9.52455 35.0356 9.19459 35.0956 8.86463C35.1456 8.61466 35.2056 8.36469 35.2656 8.11472C35.3256 7.89474 35.3856 7.66477 35.4656 7.4548C35.4656 7.4348 35.4656 7.4148 35.4856 7.3948C35.5756 7.13483 35.6756 6.88486 35.7856 6.64489C35.8655 6.44491 35.9655 6.26494 36.0555 6.07496C36.1655 5.86498 36.2755 5.64501 36.4055 5.44503C36.4955 5.29505 36.5855 5.14507 36.6954 5.00508C36.8054 4.8251 36.9254 4.65512 37.0654 4.49514C37.1354 4.38516 37.2254 4.29517 37.3054 4.19518C37.8053 3.57525 38.3852 3.01532 39.0152 2.51538C39.1951 2.37539 39.3751 2.23541 39.5551 2.11542C40.575 1.39551 41.6948 0.845573 42.8847 0.495614C42.9847 0.465618 43.0847 0.435621 43.1946 0.405625C43.3846 0.35563 43.5746 0.315635 43.7646 0.27564C46.5942 -0.334288 49.6738 0.155654 52.2735 2.16542C53.9233 3.42527 55.3731 5.75499 55.4031 7.98473L55.4131 7.94474Z" fill="#ECE5DD"/>
<path opacity="0.39" d="M55.4132 7.94446C55.4132 8.15444 55.4132 8.35441 55.3832 8.55439C54.7333 8.52439 53.9234 8.24443 53.3135 7.99445C51.7637 7.36453 51.4037 6.50463 51.1537 3.98493C50.9038 1.46522 43.7646 0.245366 43.7646 0.245366C46.5943 -0.364562 49.6739 0.125381 52.2736 2.13514C53.9234 3.395 55.3732 5.72472 55.4032 7.95446L55.4132 7.94446Z" fill="white"/>
<g style="mix-blend-mode:multiply" opacity="0.11">
<path d="M38.7452 23.1125C39.5551 25.5022 39.3551 26.6521 39.3251 26.782C39.3451 25.4222 38.6252 23.8724 37.7553 22.0226C37.0554 20.5328 36.2655 18.823 35.6956 16.8632C35.5056 16.1833 35.3356 15.4834 35.2056 14.7435C35.0856 14.0635 34.9957 13.3436 34.9557 12.5937C34.9557 12.5437 34.9557 12.4637 34.9557 12.3737C34.9557 12.0938 34.9357 11.6538 34.9257 11.2639C34.9257 10.9139 34.9257 10.6039 34.9257 10.444C34.9257 10.394 34.9357 10.324 34.9357 10.274C34.9357 10.084 34.9557 9.89403 34.9857 9.71405C34.9857 9.67405 34.9857 9.63406 34.9957 9.59406C35.0157 9.35409 35.0456 9.12412 35.0956 8.87415C35.1456 8.62418 35.2056 8.37421 35.2656 8.12423C35.3256 7.90426 35.3856 7.67429 35.4656 7.46431C35.4656 7.44431 35.4656 7.42432 35.4856 7.40432C35.5756 7.14435 35.6756 6.89438 35.7856 6.65441C35.8655 6.45443 35.9655 6.27445 36.0555 6.08447C36.1655 5.8745 36.2755 5.65452 36.4055 5.45455C36.4955 5.30457 36.5855 5.15458 36.6954 5.0146C36.8054 4.83462 36.9254 4.66464 37.0654 4.50466C37.1354 4.39467 37.2254 4.30468 37.3054 4.2047C37.8053 3.58477 38.3852 3.02483 39.0152 2.52489C39.1851 2.38491 39.3651 2.24493 39.5551 2.12494C40.575 1.40502 41.6948 0.855089 42.8847 0.50513C42.9847 0.475134 43.0847 0.445137 43.1946 0.415141C43.3846 0.365147 43.5746 0.325152 43.7646 0.285156C40.7049 1.39503 37.2554 3.71475 35.9055 8.55418C35.8056 8.91414 35.7156 9.2841 35.6656 9.65405C35.6256 9.88403 35.5956 10.114 35.5756 10.344C35.5356 10.6939 35.5156 11.0539 35.5156 11.4038C35.5156 12.0538 35.5556 12.7137 35.6456 13.3636C36.0555 16.6032 37.4553 19.7429 38.3952 22.2426C38.5252 22.5625 38.6352 22.8725 38.7352 23.1725L38.7452 23.1125Z" fill="#795E41"/>
</g>
<g style="mix-blend-mode:multiply" opacity="0.11">
<path d="M54.5133 43.6201C54.4933 43.7801 54.4733 43.9401 54.4533 44.1C52.8735 54.0289 39.4652 60.2981 33.9758 60.4781C25.2869 60.7781 17.2979 58.8883 10.9987 54.2788C10.9987 54.2788 8.71895 53.6989 6.80918 52.799C5.78931 52.3191 4.86942 51.7491 4.45947 51.1292C5.19938 51.7091 5.97929 52.1491 6.72919 52.4891C9.19889 53.6289 11.4586 53.7089 11.4586 53.7089C27.6966 61.138 35.2057 58.1284 43.8246 52.859C49.6839 49.2794 54.3533 43.6301 54.5033 43.6001L54.5133 43.6201Z" fill="#795E41"/>
</g>
<g style="mix-blend-mode:multiply" opacity="0.11">
<path d="M42.4448 39.9214C42.4448 39.9214 36.6355 54.3997 17.9178 50.4701C9.73878 48.7503 8.19897 41.5712 8.19897 41.5712L42.4448 39.9214Z" fill="#130854"/>
</g>
<path d="M14.2183 38.9814C15.4181 42.761 21.6074 39.7913 21.6074 39.7913C21.6873 41.6111 24.657 40.9812 24.657 40.9812C23.9671 42.441 26.5067 41.6811 26.5067 41.6811C25.6768 43.3409 28.4165 42.851 28.4165 42.851C26.3668 44.5108 29.6464 43.5909 29.6464 43.5909C28.2065 45.9506 31.8661 44.9107 31.8661 44.9107C32.576 48.0804 36.6555 46.3706 36.4355 46.4906C40.885 44.0608 42.0548 41.2012 42.3548 40.1013L42.0248 41.7111C42.2548 41.0612 42.4048 40.3713 42.4448 39.6514C42.4448 39.7014 42.4148 39.8613 42.3548 40.0913L42.4448 39.6514C42.4448 39.6514 42.4448 39.6514 42.4448 39.6414C42.4648 39.3114 42.4648 38.9814 42.4448 38.6515C42.4448 38.6515 41.8249 32.3022 34.7057 31.7723C27.6966 31.2524 20.2175 32.0123 14.2383 38.9814H14.2183Z" fill="#E3DCD5"/>
<path d="M36.4255 46.4904C34.0758 47.7703 30.8062 48.9401 26.2567 49.6701C26.1068 49.7001 25.8468 49.7301 25.5068 49.7701C28.7864 49.2101 31.4661 45.5605 31.4661 45.5605C31.4661 45.5605 32.456 48.6202 36.4255 46.4904Z" fill="#E3DCD5"/>
<path d="M10.5487 43.9504C10.5487 43.9504 10.5487 43.9504 10.5487 43.9704C10.5487 43.9904 10.5487 44.0004 10.5388 44.0204C10.5388 44.0404 10.5388 44.0504 10.5288 44.0804C10.5188 44.1303 10.5188 44.2003 10.5188 44.2803C10.5188 44.3003 10.5188 44.3203 10.5188 44.3403C10.5188 44.3803 10.5188 44.4303 10.5388 44.4703C10.5388 44.5003 10.5587 44.5403 10.5687 44.5803C10.5687 44.6103 10.5887 44.6303 10.5987 44.6603C10.5987 44.6903 10.6187 44.7203 10.6387 44.7403C10.6687 44.8003 10.6987 44.8603 10.7387 44.9203C10.7787 44.9703 10.8087 45.0102 10.8487 45.0602C10.9087 45.1302 10.9887 45.2002 11.0787 45.2702C11.0987 45.2902 11.1287 45.3102 11.1587 45.3302C11.1987 45.3602 11.2387 45.3802 11.2887 45.4102C11.3287 45.4302 11.3586 45.4502 11.4086 45.4702C11.4486 45.4902 11.4986 45.5202 11.5386 45.5302C11.5686 45.5502 11.6086 45.5602 11.6486 45.5802C11.6886 45.6002 11.7286 45.6102 11.7686 45.6302C11.8086 45.6502 11.8486 45.6602 11.8886 45.6702C11.9286 45.6902 11.9786 45.7002 12.0186 45.7102C12.0886 45.7302 12.1486 45.7502 12.2185 45.7702C12.3185 45.7902 12.4185 45.8201 12.5185 45.8401C12.5785 45.8501 12.6285 45.8601 12.6985 45.8701C12.3085 45.7702 10.6587 45.2902 10.5388 43.9504H10.5487ZM37.2255 46.0301C36.9755 46.1801 36.7055 46.3401 36.4356 46.4901C36.4356 46.4601 32.556 47.9999 31.8561 44.9103C31.8561 44.9103 28.1966 45.9401 29.6364 43.5904C29.6364 43.5904 26.3568 44.5003 28.4065 42.8505C28.4065 42.8505 25.6769 43.3404 26.4968 41.6806C26.4968 41.6806 23.9471 42.4405 24.647 40.9807C24.647 40.9807 21.6774 41.6106 21.5974 39.7909C21.5974 39.7909 15.4082 42.7605 14.2183 38.981C14.2183 38.981 13.8983 43.4104 21.1974 40.5708C21.1974 40.5708 21.7474 42.4705 23.9171 41.5906C23.9171 41.5906 23.5571 43.1705 25.5369 42.7305C25.5369 42.7305 25.8869 43.7504 27.2667 43.4604C27.2667 43.4604 27.2467 43.5004 27.2267 43.5704C27.1567 43.8504 27.1367 44.5403 28.7965 44.2003C28.7965 44.2003 28.5865 46.2301 31.4662 45.5602C31.4662 45.5602 32.456 48.6198 36.4256 46.4901C34.0758 47.7699 30.8063 48.9398 26.2568 49.6697C26.1068 49.6997 25.8469 49.7297 25.5069 49.7697C25.2969 49.7897 25.057 49.8197 24.797 49.8397C24.777 49.8397 24.767 49.8397 24.747 49.8397C22.4573 50.0497 18.5378 50.1296 17.9378 48.5498C17.9378 48.5498 13.4784 48.7898 12.7785 45.8901C12.7785 45.8901 12.2885 48.8398 17.0579 48.9498C17.0579 48.9498 17.2079 51.2095 24.697 50.7096C24.787 50.7096 24.877 50.6996 24.967 50.6896C28.2066 50.4396 32.0061 49.5897 35.2257 48.0799C36.4856 47.49 37.6554 46.8 38.6753 46.0101C40.2151 44.8203 41.4049 43.3904 41.9949 41.7206L42.3248 40.1108C42.0449 41.1407 41.005 43.7204 37.2055 46.0401L37.2255 46.0301ZM8.20904 41.1207C7.92907 41.7306 8.18904 43.2505 10.5288 43.9404C10.2788 43.8404 8.04906 42.8705 8.21904 41.1207H8.20904Z" fill="#B3AA9F"/>
<path d="M21.2074 40.571C18.1578 44.4705 10.5287 43.9406 10.5287 43.9406C10.2888 43.8406 8.07904 42.8807 8.21902 41.1509V41.1109C8.25902 41.011 8.31901 40.941 8.379 40.891C8.85894 40.551 11.1987 42.6108 13.9583 39.2912C14.0483 39.1812 14.1383 39.0712 14.2283 38.9712C14.2283 38.9712 14.2183 39.1512 14.2583 39.4111C14.4083 40.451 15.3781 42.8207 21.2174 40.561L21.2074 40.571Z" fill="#E3DCD5"/>
<path d="M14.249 39.421C13.969 40.241 13.249 41.341 11.419 41.381C8.59898 41.451 8.24898 41.461 8.20898 41.161V41.121C8.24898 41.021 8.30898 40.951 8.36898 40.901C8.84898 40.561 11.189 42.621 13.949 39.301C14.039 39.191 14.129 39.081 14.219 38.981C14.219 38.981 14.209 39.161 14.249 39.421Z" fill="#F0F2DC"/>
<path d="M23.927 41.5912C20.1475 46.7106 12.7384 45.8807 12.7384 45.8807C12.7284 45.8807 12.7184 45.8807 12.7084 45.8807C12.3185 45.7807 10.6687 45.3008 10.5487 43.9609C10.5487 43.9609 10.5487 43.9609 10.5287 43.9609C10.5287 43.9609 18.1677 44.4909 21.2074 40.5913C21.2074 40.5913 21.7573 42.4911 23.927 41.6112V41.5912Z" fill="#F0F2DC"/>
<path d="M27.2766 43.4611C27.2766 43.4611 27.2566 43.5011 27.2366 43.5711C25.2369 48.2205 17.9478 48.5505 17.9478 48.5505C17.9478 48.5505 13.4883 48.7905 12.7884 45.8908C12.7884 45.8908 12.7584 45.8908 12.7484 45.8808C12.7484 45.8808 20.1575 46.7107 23.937 41.5913C23.937 41.5913 23.5771 43.1711 25.5568 42.7312C25.5568 42.7312 25.9068 43.7511 27.2866 43.4611H27.2766Z" fill="#E3DCD5"/>
<path d="M40.9649 43.9106C40.435 44.6405 39.6451 45.3404 38.6952 46.0104C37.6853 46.7303 36.4855 47.4202 35.2456 48.0801C31.8461 49.8799 27.8466 50.4798 24.9869 50.6898C24.8969 50.6898 24.8069 50.7098 24.7169 50.7098C17.2279 51.2098 17.0779 48.95 17.0779 48.95C12.3085 48.85 12.7984 45.8904 12.7984 45.8904C13.4983 48.8 17.9578 48.5501 17.9578 48.5501C18.5577 50.1299 22.4772 50.0499 24.7669 49.8399C24.7869 49.8399 24.7969 49.8399 24.8169 49.8399C25.0769 49.8199 25.3169 49.7899 25.5268 49.7699C25.8568 49.7299 26.1168 49.6999 26.2767 49.6699C30.8262 48.94 34.0958 47.7802 36.4455 46.4903C36.7155 46.3403 36.9854 46.1903 37.2354 46.0304C41.0449 43.6606 42.1748 40.681 42.4448 39.6411C42.4448 39.6411 42.5347 41.7709 40.9649 43.9106Z" fill="#B3AA9F"/>
<path d="M12.7087 45.8712C12.6487 45.8612 12.5887 45.8512 12.5287 45.8412C12.4187 45.8212 12.3187 45.8012 12.2287 45.7712C12.1587 45.7512 12.0887 45.7312 12.0287 45.7112C11.9787 45.7012 11.9387 45.6812 11.8987 45.6712C11.8587 45.6612 11.8187 45.6412 11.7787 45.6312C11.7387 45.6112 11.6987 45.6012 11.6587 45.5812C11.6187 45.5612 11.5887 45.5512 11.5487 45.5312C11.4987 45.5112 11.4587 45.4912 11.4187 45.4712C11.3787 45.4512 11.3387 45.4312 11.2987 45.4112C11.2587 45.3812 11.2087 45.3612 11.1687 45.3312C11.1387 45.3112 11.1087 45.2912 11.0887 45.2712C10.9987 45.2012 10.9187 45.1312 10.8587 45.0612C10.8187 45.0212 10.7787 44.9712 10.7487 44.9212C10.7087 44.8612 10.6687 44.8012 10.6487 44.7412C10.6287 44.7112 10.6187 44.6812 10.6087 44.6612C10.5987 44.6312 10.5887 44.6012 10.5787 44.5812C10.5687 44.5412 10.5587 44.5012 10.5487 44.4712C10.5487 44.4212 10.5387 44.3812 10.5287 44.3412C10.5287 44.3212 10.5287 44.3012 10.5287 44.2812C10.5287 44.2012 10.5287 44.1312 10.5387 44.0812C10.5387 44.0612 10.5387 44.0412 10.5487 44.0212C10.5487 44.0012 10.5487 43.9912 10.5587 43.9712C10.5687 43.9512 10.5587 43.9512 10.5587 43.9512C10.6787 45.2912 12.3387 45.7812 12.7187 45.8712H12.7087Z" fill="#B3AA9F"/>
<path d="M10.519 43.9416C8.17904 43.2516 7.91904 41.7316 8.19904 41.1216C8.02904 42.8716 10.269 43.8416 10.509 43.9416H10.519Z" fill="#B3AA9F"/>
<path d="M31.4762 45.5611C31.4762 45.5611 28.7965 49.2106 25.5169 49.7706C25.307 49.7906 25.067 49.8206 24.807 49.8405C24.787 49.8405 24.777 49.8405 24.757 49.8405C22.4673 50.0505 18.5478 50.1305 17.9479 48.5507C17.9479 48.5507 25.227 48.2207 27.2367 43.5713C27.1667 43.8513 27.1467 44.5412 28.8065 44.2012C28.8065 44.2012 28.5966 46.231 31.4762 45.5611Z" fill="#F0F2DC"/>
<path d="M35.1556 68.7171C35.1556 68.7171 33.6258 69.727 38.4552 72.3866C38.4552 72.3866 34.3957 72.4766 35.3756 75.6862C35.3756 75.6862 29.9863 71.9667 29.7063 70.6868C29.4263 69.407 30.7862 68.5171 30.7862 68.5171L35.1456 68.7071L35.1556 68.7171Z" fill="#FFD88F"/>
<path d="M38.9152 72.6963C38.9152 72.6963 38.3153 72.6663 37.4954 72.5263C35.5756 72.2163 32.296 71.5964 31.2461 71.5064C31.1661 71.5664 32.596 72.7863 33.2759 73.6462C33.7158 74.2161 34.7057 74.966 35.3156 75.466C35.6456 75.7259 35.8656 75.9259 35.8356 75.9759C35.7656 76.1659 31.946 75.286 27.1366 71.2065C26.8067 70.9265 25.4568 70.4965 25.0269 70.5065C24.137 70.5465 23.3071 70.9665 23.2171 70.8765C23.1171 70.7865 23.1971 70.3366 23.3971 70.1266C24.357 69.0967 26.6167 68.5968 26.8267 68.5568C26.7567 68.3768 25.7568 65.6871 25.5368 64.3173C25.2169 62.3275 25.2169 59.0879 25.2169 59.0879C25.2669 59.1279 25.5168 59.3079 25.8668 59.4778C26.0868 59.5878 26.3467 59.6878 26.6267 59.7378C27.1266 59.8278 28.1065 59.8278 28.1065 59.8278C28.1065 59.8278 28.0765 66.627 28.7864 68.3168C33.1459 67.8169 35.4256 68.4468 35.4356 68.5968C35.4356 68.6368 35.3156 68.6968 35.1256 68.7668C34.3357 69.0467 32.316 69.4967 32.306 69.5667C32.396 69.6267 36.4955 71.3864 38.1953 72.2463C38.2053 72.2463 38.2153 72.2563 38.2353 72.2663C38.2653 72.2763 38.2853 72.2963 38.3153 72.3063C38.7252 72.5163 38.9652 72.6663 38.9352 72.6963H38.9152Z" fill="#FFCD71"/>
<path d="M27.1266 68.647C27.1266 68.647 23.4771 69.3869 23.2071 70.8667C23.1071 70.7767 23.1871 70.3268 23.3871 70.1168C24.347 69.0869 26.6067 68.587 26.8167 68.547C26.7467 68.367 25.7468 65.6773 25.5268 64.3075C25.2069 62.3177 25.2069 59.0781 25.2069 59.0781C25.2569 59.1181 25.5068 59.2981 25.8568 59.4681C25.7868 59.948 25.5568 61.8278 25.8568 64.0375C26.0668 65.6674 26.6767 67.4071 27.1266 68.647Z" fill="#F5B845"/>
<path d="M64.172 17.6435C64.172 17.7235 64.152 17.8035 64.132 17.8835C63.8321 19.0034 62.0823 20.1932 57.6328 18.3034C52.5535 16.1537 49.4938 16.9136 48.6339 14.4139C48.6339 14.4039 48.6239 14.3839 48.6239 14.3739C48.5939 14.2939 48.574 14.2039 48.554 14.1139C48.554 14.1139 50.1038 13.274 50.8537 11.7342C51.7336 9.92442 51.3236 7.62469 53.4234 7.31473C54.7632 7.11475 55.4531 7.99465 55.8631 8.98453C56.173 9.70445 56.333 10.4744 56.493 10.9243C56.513 10.9743 56.533 11.0143 56.543 11.0643C57.5129 13.344 61.6223 15.3438 63.3821 16.6636C63.8921 17.0436 64.202 17.3735 64.182 17.6235L64.172 17.6435Z" fill="#FFCD71"/>
<path d="M53.9532 11.2647C53.9532 11.2647 55.0232 11.1247 55.3432 12.4247C55.3432 12.4247 54.0432 12.4247 53.9532 11.2647Z" fill="#B59250"/>
<path d="M64.132 17.8841C63.832 19.004 62.0823 20.1939 57.6328 18.3041C52.5534 16.1543 49.4938 16.9143 48.6339 14.4146C48.9339 15.0545 50.1837 16.5643 55.4831 16.8643C56.5429 16.9243 61.4823 20.1039 64.132 17.8841Z" fill="#F5B845"/>
<path d="M63.373 16.6744C62.493 16.7444 58.983 14.2144 57.613 12.8844C56.073 11.3844 55.843 8.98438 55.843 8.98438C56.153 9.70438 56.313 10.4744 56.473 10.9244C56.493 10.9744 56.513 11.0144 56.523 11.0644C57.493 13.3444 61.603 15.3444 63.363 16.6644L63.373 16.6744Z" fill="#FFD88F"/>
<path d="M47.0404 8.29884C48.0726 7.9057 48.6003 6.7753 48.219 5.77403C47.8376 4.77276 46.6917 4.27977 45.6594 4.67292C44.6272 5.06606 44.0995 6.19646 44.4809 7.19773C44.8622 8.199 46.0082 8.69198 47.0404 8.29884Z" fill="#3E1506"/>
<path d="M47.4986 7.8913C48.2613 7.29759 48.434 6.24398 47.8844 5.53798C47.3348 4.83198 46.271 4.74096 45.5083 5.33467C44.7457 5.92837 44.573 6.98199 45.1226 7.68799C45.6722 8.39398 46.736 8.48501 47.4986 7.8913Z" fill="#FBFCFA"/>
<path d="M48 6.75066C48.0779 5.937 47.4681 5.21295 46.6379 5.13346C45.8078 5.05396 45.0717 5.64912 44.9937 6.46278C44.9158 7.27643 45.5256 8.00048 46.3558 8.07998C47.1859 8.15947 47.9221 7.56432 48 6.75066Z" fill="#95771E"/>
<path d="M47.2434 6.67833C47.2824 6.2715 46.9797 5.90969 46.5674 5.8702C46.155 5.83072 45.7892 6.12851 45.7502 6.53534C45.7113 6.94217 46.0139 7.30398 46.4263 7.34347C46.8386 7.38295 47.2044 7.08516 47.2434 6.67833Z" fill="#3E1506"/>
<path d="M47.3543 6.48958C47.4755 6.45168 47.5284 6.27566 47.4724 6.09644C47.4163 5.91722 47.2726 5.80265 47.1514 5.84055C47.0302 5.87845 46.9773 6.05447 47.0333 6.23369C47.0894 6.41292 47.2331 6.52748 47.3543 6.48958Z" fill="white"/>
</svg>
