<svg width="55" height="68" viewBox="0 0 55 68" fill="none" xmlns="http://www.w3.org/2000/svg">
<path d="M53.8701 44.2698C53.8701 51.2298 52.2601 56.2898 49.4801 59.9098C44.7801 66.0398 36.7401 67.9998 27.6101 67.9998C13.1001 67.9998 1.3501 63.0498 1.3501 44.2698C1.3501 40.7998 1.7501 37.0998 2.5001 33.3698C2.5001 33.3298 2.5201 33.2798 2.5301 33.2398C2.5301 33.2098 2.5301 33.1798 2.5501 33.1498C2.5501 33.1398 2.5501 33.1198 2.5501 33.1098C2.6501 32.6198 2.7501 32.1398 2.8701 31.6498C2.8701 31.6098 2.8901 31.5598 2.9001 31.5198C2.9101 31.4798 2.9201 31.4298 2.9301 31.3898C2.9501 31.2798 2.9801 31.1698 3.0101 31.0498C3.0101 31.0098 3.0301 30.9598 3.0401 30.9198C3.0401 30.8798 3.0501 30.8398 3.0701 30.7998C3.1101 30.6098 3.1601 30.4298 3.2001 30.2398C3.2101 30.1998 3.2201 30.1498 3.2301 30.1098C3.2401 30.0598 3.2601 30.0098 3.2701 29.9698C3.3101 29.8298 3.3401 29.6798 3.3901 29.5298C3.4001 29.4898 3.4101 29.4398 3.4201 29.3998C3.4301 29.3598 3.4401 29.3098 3.4501 29.2698C3.5501 28.9298 3.6401 28.5798 3.7401 28.2398C3.7501 28.1898 3.7601 28.1498 3.7801 28.0998C3.7801 28.0598 3.8001 28.0098 3.8201 27.9698C5.8701 20.8298 9.1101 13.9498 13.1201 8.80977C14.2901 7.30977 15.5301 5.94977 16.8201 4.77977C20.1101 1.79977 23.7601 0.00976562 27.6101 0.00976562C37.3901 0.00976562 45.9201 11.6098 50.4401 24.9198L50.4701 25.0198C50.4701 25.0198 50.4901 25.0898 50.5001 25.1198C50.7801 25.9598 51.0501 26.7998 51.2901 27.6398C51.2901 27.6498 51.3001 27.6598 51.3001 27.6698C51.3001 27.6898 51.3101 27.7098 51.3201 27.7298C51.3201 27.7398 51.3201 27.7498 51.3301 27.7598C51.3301 27.7898 51.3401 27.8098 51.3501 27.8298C51.3501 27.8398 51.3501 27.8498 51.3501 27.8498C51.3601 27.8798 51.3701 27.9198 51.3801 27.9498C51.6401 28.8398 51.8801 29.7298 52.1001 30.6198C52.1001 30.6498 52.1201 30.6798 52.1201 30.7098C52.1301 30.7398 52.1401 30.7798 52.1401 30.8098C52.2801 31.3798 52.4101 31.9598 52.5401 32.5298C53.4001 36.5398 53.8601 40.5298 53.8601 44.2598L53.8701 44.2698Z" fill="#008FFF"/>
<path d="M17.2202 22.3794C17.2802 22.3794 17.3302 22.3794 17.3902 22.3594L18.9102 24.1594L19.3602 23.7794L17.8402 21.9694C17.8702 21.8994 17.8902 21.8194 17.8902 21.7394C17.8902 21.3794 17.6102 21.0894 17.2502 21.0794C16.8902 21.0694 16.6002 21.3594 16.5902 21.7194C16.5802 22.0794 16.8702 22.3694 17.2302 22.3794H17.2202Z" fill="#FFBF00"/>
<path d="M16.9402 24.6294C17.0002 24.6094 17.0502 24.5794 17.0902 24.5494L19.1002 25.7594L19.4002 25.2594L17.3802 24.0394C17.3802 23.9594 17.3802 23.8794 17.3502 23.8094C17.2402 23.4694 16.8702 23.2794 16.5302 23.3994C16.1902 23.5094 16.0002 23.8794 16.1202 24.2194C16.2402 24.5594 16.6002 24.7494 16.9402 24.6294Z" fill="#FFBF00"/>
<path d="M17.6202 25.8299C17.5102 25.4899 17.1402 25.2999 16.8002 25.4199C16.4602 25.5299 16.2702 25.8999 16.3902 26.2399C16.5002 26.5799 16.8702 26.7699 17.2102 26.6499C17.2702 26.6299 17.3202 26.5999 17.3602 26.5699L19.3702 27.7799L19.6702 27.2799L17.6502 26.0599C17.6502 25.9799 17.6502 25.8999 17.6202 25.8299Z" fill="#FFBF00"/>
<path d="M21.0702 20.5498C21.2802 20.2598 21.2102 19.8498 20.9202 19.6498C20.6302 19.4398 20.2202 19.5098 20.0202 19.7998C19.8102 20.0898 19.8802 20.4998 20.1702 20.6998C20.2402 20.7498 20.3102 20.7798 20.3802 20.7998L20.9302 23.0998L21.5002 22.9598L20.9502 20.6698C20.9502 20.6698 21.0302 20.5998 21.0702 20.5498Z" fill="#FFBF00"/>
<path d="M22.3002 20.5993C22.0102 20.8093 21.9402 21.2093 22.1502 21.4993C22.2002 21.5693 22.2602 21.6193 22.3202 21.6593L22.1102 24.0093L22.6902 24.0593L22.9002 21.7193C22.9502 21.6993 23.0002 21.6793 23.0502 21.6393C23.3402 21.4293 23.4102 21.0293 23.2002 20.7393C22.9902 20.4493 22.5902 20.3793 22.3002 20.5893V20.5993Z" fill="#FFBF00"/>
<path d="M24.5402 22.2695C24.3302 21.9795 23.9302 21.9095 23.6402 22.1195C23.3502 22.3295 23.2801 22.7295 23.4901 23.0195C23.5401 23.0895 23.6002 23.1395 23.6602 23.1795L23.4501 25.5295L24.0301 25.5795L24.2401 23.2395C24.2901 23.2195 24.3402 23.1995 24.3902 23.1595C24.6802 22.9495 24.7502 22.5495 24.5402 22.2595V22.2695Z" fill="#FFBF00"/>
<path d="M18.6602 19.8897C18.7302 19.5397 18.5002 19.1997 18.1402 19.1297C17.7802 19.0597 17.4502 19.2897 17.3802 19.6497C17.3102 19.9997 17.5402 20.3397 17.9002 20.4097C17.9602 20.4197 18.0102 20.4197 18.0702 20.4097L19.2502 22.4397L19.7602 22.1497L18.5702 20.0997C18.6102 20.0297 18.6402 19.9597 18.6602 19.8797V19.8897Z" fill="#FFBF00"/>
<path d="M26.9801 35.8301C26.9801 35.8301 23.2301 35.4501 20.2701 29.3901C18.4501 25.6601 19.3401 21.8701 19.3401 21.8701C19.3401 21.8701 22.3001 23.0801 24.7601 26.9801C27.0801 30.6601 27.7301 34.2701 26.9701 35.8201L26.9801 35.8301Z" fill="#00D974"/>
<path d="M26.9802 35.8293L27.0102 35.5693C27.0102 35.5693 26.0802 35.4593 24.8302 34.6193C23.5702 33.7793 21.9602 32.2193 20.5202 29.2693C19.5902 27.3693 19.3902 25.4493 19.4002 24.0493C19.4002 23.4093 19.4602 22.8793 19.5102 22.5093C19.5402 22.3193 19.5602 22.1793 19.5802 22.0793C19.5802 22.0293 19.6002 21.9893 19.6002 21.9693V21.9393L19.3402 21.8793L19.2402 22.1193C19.3802 22.1793 22.1902 23.4093 24.5302 27.1293C25.3802 28.4793 26.0102 29.8293 26.4202 31.0593C26.8302 32.2893 27.0202 33.3993 27.0102 34.2793C27.0102 34.8793 26.9002 35.3693 26.7302 35.7193L26.9702 35.8393L27.2102 35.9593C27.4302 35.5093 27.5302 34.9493 27.5402 34.2993C27.5502 33.3393 27.3502 32.1793 26.9302 30.8993C26.5102 29.6293 25.8702 28.2493 24.9902 26.8593C22.4902 22.8993 19.4802 21.6593 19.4502 21.6493L19.1702 21.5293L19.1002 21.8293C19.1002 21.8293 18.8902 22.7293 18.8702 24.0593C18.8502 25.5193 19.0702 27.5193 20.0402 29.5193C21.5302 32.5893 23.2402 34.2393 24.5902 35.1093C25.9402 35.9893 26.9202 36.0993 26.9502 36.0993L27.1302 36.1193L27.2102 35.9593L26.9702 35.8393L26.9802 35.8293Z" fill="white"/>
<path d="M25.0402 32.5193C24.4202 32.2693 22.7602 31.3593 21.2302 28.3193C20.3502 26.5793 20.3002 24.8593 20.3402 24.0693C20.9402 24.4793 22.1702 25.4593 23.2902 27.2593C24.6902 29.4993 25.2102 31.5393 25.0402 32.5293V32.5193Z" fill="#FCFFB5"/>
<path d="M20.6202 24.6393C21.2502 25.1393 22.1702 26.0193 23.0302 27.4093C24.2602 29.3793 24.7402 31.1093 24.7602 32.0693C24.0302 31.6693 22.7202 30.6493 21.4802 28.1893C20.8002 26.8393 20.6402 25.5093 20.6202 24.6393ZM20.0802 23.5693C20.0802 23.5693 19.7102 25.9693 20.9602 28.4493C22.9802 32.4793 25.2302 32.8893 25.2302 32.8893C25.6202 31.9193 25.0702 29.5693 23.5302 27.0993C21.9002 24.4793 20.0802 23.5693 20.0802 23.5693Z" fill="#FFBF00"/>
<path d="M9.6001 36.3399C9.6001 36.3399 9.66011 36.2399 9.69011 36.1899L12.0401 36.1199L12.0201 35.5299L9.66011 35.5999C9.62011 35.5299 9.57011 35.4699 9.51011 35.4199C9.23011 35.1899 8.8201 35.2299 8.6001 35.5099C8.3801 35.7899 8.42011 36.1999 8.69011 36.4199C8.96011 36.6399 9.3801 36.6099 9.6001 36.3299V36.3399Z" fill="#FFBF00"/>
<path d="M11.1801 37.9599C11.2001 37.9099 11.2101 37.8499 11.2201 37.7899L13.4301 36.9699L13.2301 36.4199L11.0101 37.2399C10.9501 37.1899 10.8901 37.1499 10.8101 37.1199C10.4701 36.9899 10.1001 37.1699 9.98012 37.4999C9.85012 37.8399 10.0301 38.2099 10.3601 38.3299C10.6901 38.4499 11.0701 38.2799 11.1901 37.9499L11.1801 37.9599Z" fill="#FFBF00"/>
<path d="M12.5501 38.1797C12.2101 38.0497 11.8401 38.2297 11.7201 38.5597C11.5901 38.8997 11.7701 39.2697 12.1001 39.3897C12.4401 39.5197 12.8101 39.3397 12.9301 39.0097C12.9501 38.9597 12.9601 38.8997 12.9701 38.8397L15.1801 38.0197L14.9801 37.4697L12.7601 38.2897C12.7001 38.2397 12.6401 38.1997 12.5601 38.1697L12.5501 38.1797Z" fill="#FFBF00"/>
<path d="M10.5701 32.1903C10.4701 31.8503 10.1101 31.6503 9.77013 31.7403C9.43013 31.8403 9.23013 32.2003 9.32013 32.5403C9.42013 32.8803 9.78013 33.0803 10.1201 32.9903C10.2001 32.9703 10.2701 32.9303 10.3301 32.8803L12.4701 33.8803L12.7201 33.3503L10.5901 32.3603C10.5901 32.3003 10.5901 32.2503 10.5701 32.1903Z" fill="#FFBF00"/>
<path d="M11.3801 31.2594C11.3601 31.6194 11.6401 31.9194 11.9901 31.9394C12.0701 31.9394 12.1501 31.9394 12.2201 31.9094L13.9301 33.5494L14.3301 33.1294L12.6301 31.4994C12.6501 31.4494 12.6601 31.3894 12.6601 31.3294C12.6801 30.9694 12.4001 30.6694 12.0501 30.6494C11.7001 30.6294 11.3901 30.9094 11.3701 31.2594H11.3801Z" fill="#FFBF00"/>
<path d="M14.0802 30.5498C13.7202 30.5298 13.4202 30.8098 13.4002 31.1598C13.3802 31.5198 13.6602 31.8198 14.0102 31.8398C14.0902 31.8398 14.1702 31.8398 14.2402 31.8098L15.9502 33.4498L16.3502 33.0298L14.6502 31.3998C14.6702 31.3498 14.6802 31.2898 14.6802 31.2298C14.7002 30.8698 14.4202 30.5698 14.0702 30.5498H14.0802Z" fill="#FFBF00"/>
<path d="M8.55015 33.6599C8.32015 33.3899 7.91014 33.3599 7.64014 33.5899C7.37014 33.8199 7.34014 34.2299 7.57014 34.4999C7.80014 34.7699 8.21015 34.7999 8.48015 34.5699C8.52015 34.5299 8.56014 34.4899 8.59014 34.4399L10.9201 34.7899L11.0101 34.2099L8.67014 33.8599C8.64014 33.7899 8.61015 33.7199 8.55015 33.6599Z" fill="#FFBF00"/>
<path d="M26.2002 37.0895C26.2002 37.0895 23.5602 39.7795 16.9902 38.3195C12.9402 37.4195 10.5402 34.3595 10.5402 34.3595C10.5402 34.3595 13.3402 32.7995 17.9102 33.3095C22.2302 33.7895 25.4602 35.5295 26.2002 37.0995V37.0895Z" fill="#00D974"/>
<path d="M26.2001 37.0894L26.0101 36.9094C26.0101 36.9094 25.3401 37.5694 23.9101 38.0294C22.4701 38.4894 20.2401 38.7794 17.0401 38.0694C14.9801 37.6094 13.3501 36.5694 12.2601 35.6894C11.7601 35.2794 11.3801 34.9094 11.1201 34.6394C10.9901 34.4994 10.8901 34.3894 10.8301 34.3194C10.8001 34.2794 10.7701 34.2494 10.7601 34.2294L10.7401 34.2094L10.5301 34.3694L10.6601 34.5994C10.8001 34.5194 13.5101 33.0894 17.8701 33.5794C19.4601 33.7594 20.9001 34.1094 22.1201 34.5494C23.3301 34.9994 24.3201 35.5394 25.0101 36.0994C25.4801 36.4794 25.8001 36.8594 25.9601 37.2094L26.2001 37.0994L26.4401 36.9894C26.2301 36.5394 25.8501 36.1094 25.3501 35.6994C24.6001 35.0894 23.5701 34.5294 22.3101 34.0594C21.0501 33.5994 19.5701 33.2394 17.9401 33.0594C13.2901 32.5494 10.4401 34.1294 10.4101 34.1394L10.1401 34.2894L10.3301 34.5294C10.3301 34.5294 10.9001 35.2494 11.9301 36.0994C13.0601 37.0194 14.7601 38.1094 16.9301 38.5894C20.2601 39.3294 22.6101 39.0194 24.1401 38.5194C25.6701 38.0094 26.3601 37.3094 26.3901 37.2894L26.5201 37.1594L26.4401 36.9894L26.2001 37.0994V37.0894Z" fill="white"/>
<path d="M22.4001 36.5501C21.8201 36.8801 20.0701 37.6101 16.7401 36.9101C14.8301 36.5101 13.4601 35.4801 12.8601 34.9501C13.5601 34.7301 15.0801 34.3901 17.1901 34.6301C19.8201 34.9301 21.7401 35.8001 22.4001 36.5501Z" fill="#FCFFB5"/>
<path d="M13.4902 35.0894C14.2802 34.9094 15.5402 34.7394 17.1602 34.9294C19.4702 35.1994 21.1202 35.8994 21.8802 36.4794C21.1102 36.7994 19.5002 37.1894 16.8002 36.6294C15.3302 36.3194 14.1802 35.6194 13.4902 35.0894ZM12.3202 34.8394C12.3202 34.8394 13.9702 36.6194 16.6902 37.1894C21.1002 38.1194 22.8302 36.6194 22.8302 36.6194C22.3102 35.7094 20.1302 34.6694 17.2402 34.3394C14.1802 33.9894 12.3302 34.8394 12.3302 34.8394H12.3202Z" fill="#FFBF00"/>
<path d="M15.7601 50.9994C15.7501 50.9394 15.7301 50.8894 15.7001 50.8394L17.1101 48.9594L16.6401 48.6094L15.2201 50.4994C15.1401 50.4894 15.0601 50.4894 14.9801 50.4994C14.6301 50.5794 14.4101 50.9194 14.4801 51.2694C14.5501 51.6194 14.9001 51.8394 15.2501 51.7694C15.6001 51.6994 15.8201 51.3494 15.7501 50.9994H15.7601Z" fill="#FFBF00"/>
<path d="M18.0201 50.7793C17.9901 50.7293 17.9501 50.6893 17.9101 50.6493L18.6501 48.4193L18.0901 48.2393L17.3501 50.4893C17.2701 50.4993 17.2001 50.5293 17.1301 50.5693C16.8201 50.7493 16.7201 51.1493 16.9101 51.4593C17.0901 51.7693 17.4901 51.8693 17.8001 51.6793C18.1101 51.4893 18.2101 51.0993 18.0201 50.7893V50.7793Z" fill="#FFBF00"/>
<path d="M19.0401 49.8395C18.7301 50.0195 18.6301 50.4195 18.8201 50.7295C19.0001 51.0395 19.4001 51.1395 19.7101 50.9495C20.0201 50.7695 20.1201 50.3695 19.9301 50.0595C19.9001 50.0095 19.8601 49.9695 19.8201 49.9295L20.5601 47.6995L20.0001 47.5195L19.2601 49.7695C19.1801 49.7795 19.1101 49.8095 19.0401 49.8495V49.8395Z" fill="#FFBF00"/>
<path d="M13.1202 47.6492C12.7902 47.5092 12.4102 47.6692 12.2702 47.9992C12.1302 48.3292 12.2902 48.7092 12.6202 48.8492C12.9502 48.9892 13.3302 48.8292 13.4702 48.4992C13.5002 48.4192 13.5202 48.3492 13.5202 48.2692L15.6402 47.2192L15.3802 46.6992L13.2702 47.7492C13.2702 47.7492 13.1802 47.6792 13.1202 47.6592V47.6492Z" fill="#FFBF00"/>
<path d="M12.9001 46.4393C13.1701 46.6793 13.5801 46.6493 13.8101 46.3793C13.8601 46.3193 13.9001 46.2493 13.9301 46.1793L16.2701 45.8593L16.1901 45.2793L13.8601 45.5893C13.8601 45.5893 13.7901 45.4993 13.7501 45.4593C13.4801 45.2193 13.0701 45.2493 12.8401 45.5193C12.6101 45.7893 12.6301 46.1993 12.9001 46.4293V46.4393Z" fill="#FFBF00"/>
<path d="M14.0302 43.8896C13.7902 44.1596 13.8202 44.5696 14.0902 44.7996C14.3602 45.0396 14.7702 45.0097 15.0002 44.7397C15.0502 44.6797 15.0902 44.6096 15.1202 44.5396L17.4602 44.2197L17.3802 43.6396L15.0502 43.9496C15.0502 43.9496 14.9802 43.8596 14.9402 43.8196C14.6702 43.5796 14.2602 43.6097 14.0302 43.8797V43.8896Z" fill="#FFBF00"/>
<path d="M13.0202 50.1493C12.6602 50.1593 12.3802 50.4593 12.4002 50.8193C12.4202 51.1793 12.7102 51.4593 13.0702 51.4393C13.4302 51.4293 13.7102 51.1293 13.6902 50.7693C13.6902 50.7093 13.6802 50.6593 13.6602 50.5993L15.3802 48.9993L14.9802 48.5693L13.2502 50.1793C13.1802 50.1593 13.1002 50.1393 13.0202 50.1393V50.1493Z" fill="#FFBF00"/>
<path d="M26.7002 38.4903C26.7002 38.4903 27.1602 42.2303 21.9202 46.4603C18.6902 49.0703 14.8002 49.0303 14.8002 49.0303C14.8002 49.0303 15.3202 45.8703 18.5702 42.6103C21.6402 39.5303 25.0102 38.0903 26.7002 38.4903Z" fill="#00D974"/>
<path d="M26.7001 38.49L26.4401 38.52C26.4401 38.52 26.5401 39.46 26.0001 40.87C25.4601 42.28 24.3001 44.2 21.7501 46.26C20.1101 47.59 18.2801 48.22 16.9101 48.51C16.2801 48.65 15.7501 48.71 15.3801 48.74C15.1901 48.76 15.0501 48.76 14.9501 48.77C14.9001 48.77 14.8601 48.77 14.8401 48.77H14.8101V49.03L15.0701 49.07C15.1001 48.91 15.6701 45.9 18.7701 42.79C19.9001 41.66 21.0701 40.75 22.1801 40.08C23.2901 39.41 24.3301 38.98 25.1901 38.79C25.7801 38.66 26.2801 38.65 26.6501 38.74L26.7101 38.48L26.7701 38.22C26.2901 38.11 25.7101 38.13 25.0801 38.27C24.1401 38.47 23.0501 38.93 21.9101 39.62C20.7601 40.31 19.5601 41.25 18.4001 42.41C15.1001 45.72 14.5601 48.94 14.5501 48.97L14.5001 49.27H14.8101C14.8101 49.27 15.7301 49.27 17.0401 49C18.4701 48.69 20.3701 48.04 22.1001 46.64C24.7601 44.5 25.9801 42.47 26.5401 40.96C27.1001 39.45 26.9801 38.47 26.9801 38.44L26.9601 38.26L26.7801 38.22L26.7201 38.48L26.7001 38.49Z" fill="white"/>
<path d="M23.9102 41.1203C23.8102 41.7803 23.2902 43.6004 20.6602 45.7704C19.1602 47.0104 17.4902 47.4404 16.7102 47.5804C16.9702 46.9004 17.6502 45.4904 19.1602 43.9904C21.0302 42.1304 22.9102 41.1704 23.9102 41.1104V41.1203Z" fill="#FCFFB5"/>
<path d="M17.2102 47.18C17.5602 46.45 18.2102 45.36 19.3702 44.21C21.0202 42.57 22.6002 41.72 23.5302 41.48C23.3002 42.28 22.6002 43.79 20.4802 45.54C19.3202 46.5 18.0602 46.96 17.2202 47.17M16.2902 47.94C16.2902 47.94 18.7102 47.76 20.8502 45.99C24.3302 43.12 24.2302 40.84 24.2302 40.84C23.2002 40.68 21.0302 41.74 18.9602 43.79C16.7702 45.97 16.2902 47.94 16.2902 47.94Z" fill="#FFBF00"/>
<path d="M31.0701 55.3193C31.0201 55.2893 30.9601 55.2793 30.9101 55.2693L30.3201 52.9893L29.7501 53.1393L30.3401 55.4293C30.2801 55.4793 30.2301 55.5393 30.2001 55.6193C30.0401 55.9393 30.1701 56.3293 30.4901 56.4893C30.8101 56.6493 31.2001 56.5193 31.3601 56.1993C31.5201 55.8793 31.3901 55.4893 31.0701 55.3293V55.3193Z" fill="#FFBF00"/>
<path d="M32.3001 53.4192C32.2401 53.4192 32.1901 53.4192 32.1301 53.4192L30.8401 51.4492L30.3501 51.7692L31.6401 53.7492C31.6001 53.8192 31.5801 53.8892 31.5701 53.9692C31.5201 54.3192 31.7701 54.6492 32.1301 54.6992C32.4801 54.7492 32.8101 54.4992 32.8601 54.1392C32.9101 53.7792 32.6601 53.4592 32.3001 53.4092V53.4192Z" fill="#FFBF00"/>
<path d="M32.2001 52.0398C32.1501 52.3898 32.4001 52.7198 32.7601 52.7698C33.1101 52.8198 33.4401 52.5698 33.4901 52.2098C33.5401 51.8598 33.2901 51.5298 32.9301 51.4798C32.8701 51.4798 32.8201 51.4798 32.7601 51.4798L31.4701 49.5098L30.9801 49.8298L32.2701 51.8098C32.2301 51.8798 32.2101 51.9498 32.2001 52.0298V52.0398Z" fill="#FFBF00"/>
<path d="M26.8101 55.2992C26.5001 55.4692 26.3801 55.8692 26.5501 56.1792C26.7201 56.4892 27.1201 56.6092 27.4301 56.4392C27.7401 56.2692 27.8601 55.8692 27.6901 55.5592C27.6501 55.4892 27.6001 55.4292 27.5401 55.3792L28.0401 53.0692L27.4701 52.9492L26.9701 55.2492C26.9201 55.2592 26.8601 55.2792 26.8101 55.3092V55.2992Z" fill="#FFBF00"/>
<path d="M25.7201 54.7199C26.0701 54.6599 26.3101 54.3199 26.2501 53.9699C26.2401 53.8899 26.2101 53.8199 26.1701 53.7499L27.3801 51.7199L26.8801 51.4199L25.6701 53.4399C25.6101 53.4399 25.5601 53.4399 25.5001 53.4399C25.1501 53.4999 24.9101 53.8399 24.9701 54.1899C25.0301 54.5399 25.3701 54.7799 25.7201 54.7199Z" fill="#FFBF00"/>
<path d="M24.4301 52.2495C24.4901 52.5995 24.8301 52.8395 25.1801 52.7795C25.5301 52.7195 25.7701 52.3795 25.7101 52.0295C25.7001 51.9495 25.6701 51.8795 25.6301 51.8095L26.8401 49.7795L26.3401 49.4795L25.1301 51.4995C25.0701 51.4995 25.0201 51.4995 24.9601 51.4995C24.6101 51.5595 24.3701 51.8995 24.4301 52.2495Z" fill="#FFBF00"/>
<path d="M28.6901 56.9399C28.4801 57.2299 28.5401 57.6299 28.8301 57.8499C29.1201 58.0699 29.5201 57.9999 29.7401 57.7099C29.9501 57.4199 29.8901 57.0199 29.6001 56.7999C29.5501 56.7699 29.5001 56.7399 29.4501 56.7199L29.2701 54.3799L28.6901 54.4199L28.8701 56.7799C28.8001 56.8199 28.7501 56.8699 28.7001 56.9399H28.6901Z" fill="#FFBF00"/>
<path d="M28.1101 38.97C28.1101 38.97 31.3201 40.94 31.3601 47.68C31.3801 51.83 28.9301 54.85 28.9301 54.85C28.9301 54.85 26.7901 52.47 26.2601 47.89C25.7701 43.57 26.7401 40.03 28.1101 38.96V38.97Z" fill="#00D974"/>
<path d="M28.1101 38.9696L27.9701 39.1896C27.9701 39.1896 28.7601 39.6896 29.5301 40.9896C30.3001 42.2896 31.0801 44.3996 31.0901 47.6796C31.1001 49.7896 30.4501 51.6096 29.8301 52.8696C29.5401 53.4496 29.2701 53.8996 29.0601 54.2096C28.9601 54.3696 28.8701 54.4796 28.8101 54.5596C28.7801 54.5996 28.7601 54.6296 28.7401 54.6496L28.7201 54.6696L28.9201 54.8396L29.1201 54.6596C29.0201 54.5396 27.0201 52.2096 26.5201 47.8496C26.3401 46.2596 26.3601 44.7796 26.5201 43.4896C26.6901 42.2096 27.0001 41.1196 27.3901 40.3296C27.6601 39.7896 27.9601 39.3896 28.2601 39.1496L28.1001 38.9396L27.9401 38.7296C27.5501 39.0396 27.2101 39.4996 26.9201 40.0796C26.4901 40.9396 26.1701 42.0796 26.0001 43.4096C25.8301 44.7396 25.8101 46.2596 26.0001 47.8896C26.5301 52.5396 28.7101 54.9696 28.7301 54.9896L28.9401 55.2196L29.1301 54.9796C29.1301 54.9796 29.7101 54.2596 30.3001 53.0696C30.9501 51.7596 31.6301 49.8596 31.6101 47.6396C31.5901 44.2296 30.7701 41.9996 29.9301 40.6196C29.1001 39.2396 28.2601 38.7196 28.2301 38.6996L28.0701 38.5996L27.9301 38.7096L28.0901 38.9196L28.1101 38.9696Z" fill="white"/>
<path d="M28.4302 42.79C28.8802 43.28 29.9802 44.82 30.0402 48.23C30.0702 50.18 29.3702 51.75 29.0002 52.45C28.6302 51.82 27.9602 50.41 27.7202 48.3C27.4302 45.67 27.8502 43.61 28.4302 42.79Z" fill="#FCFFB5"/>
<path d="M28.9801 51.8099C28.6301 51.0799 28.1801 49.8899 28.0001 48.2699C27.7501 45.9599 28.0701 44.1999 28.4601 43.3199C28.9501 43.9999 29.6901 45.4799 29.7301 48.2399C29.7601 49.7499 29.3301 51.0199 28.9701 51.8099M29.0101 53.0099C29.0101 53.0099 30.3801 51.0099 30.3301 48.2299C30.2501 43.7199 28.4101 42.3799 28.4101 42.3799C27.6401 43.0899 27.1101 45.4499 27.4301 48.3399C27.7701 51.4099 29.0101 53.0199 29.0101 53.0199V53.0099Z" fill="#FFBF00"/>
<path d="M43.9901 46.0497C43.9401 46.0697 43.8901 46.1097 43.8501 46.1397L41.7001 45.1797L41.4601 45.7097L43.6201 46.6797C43.6201 46.7597 43.6401 46.8297 43.6801 46.9097C43.8301 47.2297 44.2201 47.3697 44.5401 47.2197C44.8601 47.0697 45.0001 46.6797 44.8501 46.3597C44.7001 46.0397 44.3101 45.8997 43.9901 46.0497Z" fill="#FFBF00"/>
<path d="M43.27 43.8994C43.27 43.8994 43.19 43.9894 43.17 44.0294L40.83 43.8094L40.78 44.3894L43.13 44.6094C43.16 44.6794 43.2 44.7494 43.26 44.8094C43.51 45.0694 43.92 45.0794 44.18 44.8294C44.44 44.5794 44.45 44.1694 44.2 43.9094C43.95 43.6494 43.54 43.6394 43.28 43.8894L43.27 43.8994Z" fill="#FFBF00"/>
<path d="M42.1301 43.1092C42.3801 43.3692 42.7902 43.3792 43.0502 43.1292C43.3102 42.8792 43.3202 42.4692 43.0702 42.2092C42.8202 41.9492 42.4102 41.9392 42.1502 42.1892C42.1102 42.2292 42.0702 42.2792 42.0502 42.3192L39.7102 42.0992L39.6602 42.6792L42.0102 42.8992C42.0402 42.9692 42.0802 43.0392 42.1402 43.0992L42.1301 43.1092Z" fill="#FFBF00"/>
<path d="M41.3101 49.3688C41.2501 49.7188 41.4801 50.0588 41.8401 50.1188C42.1901 50.1788 42.5301 49.9488 42.5901 49.5888C42.6501 49.2388 42.4201 48.8988 42.0601 48.8388C41.9801 48.8288 41.9001 48.8288 41.8201 48.8388L40.3201 47.0088L39.8701 47.3788L41.3601 49.1988C41.3401 49.2488 41.3201 49.2988 41.3101 49.3588V49.3688Z" fill="#FFBF00"/>
<path d="M40.1901 49.8592C40.3601 49.5492 40.2501 49.1492 39.9301 48.9792C39.8601 48.9392 39.7801 48.9192 39.7101 48.9092L38.8801 46.6992L38.3301 46.9092L39.1501 49.1092C39.1501 49.1092 39.0801 49.1892 39.0501 49.2492C38.8801 49.5592 38.9901 49.9592 39.3101 50.1292C39.6301 50.2992 40.0201 50.1892 40.1901 49.8692V49.8592Z" fill="#FFBF00"/>
<path d="M37.4501 49.3292C37.7601 49.4992 38.1601 49.3892 38.3301 49.0692C38.5001 48.7592 38.3901 48.3592 38.0701 48.1892C38.0001 48.1492 37.9201 48.1292 37.8501 48.1192L37.0201 45.9092L36.4701 46.1192L37.2901 48.3192C37.2901 48.3192 37.2201 48.3992 37.1901 48.4592C37.0201 48.7692 37.1301 49.1692 37.4501 49.3392V49.3292Z" fill="#FFBF00"/>
<path d="M43.77 48.9189C43.86 49.2689 44.22 49.4689 44.56 49.3789C44.9 49.2889 45.11 48.9289 45.02 48.5889C44.93 48.2389 44.57 48.0389 44.23 48.1289C44.17 48.1489 44.12 48.1689 44.07 48.1989L42.12 46.8789L41.79 47.3589L43.75 48.6889C43.75 48.7689 43.75 48.8489 43.77 48.9289V48.9189Z" fill="#FFBF00"/>
<path d="M29.3601 38.1696C29.3601 38.1696 32.9001 36.8896 38.1901 41.0596C41.4501 43.6296 42.2901 47.4296 42.2901 47.4296C42.2901 47.4296 39.0901 47.6196 35.1901 45.1796C31.5101 42.8696 29.3501 39.9096 29.3601 38.1696Z" fill="#00D974"/>
<path d="M29.3601 38.1695L29.4501 38.4195L29.4401 38.3895V38.4195C29.4401 38.4195 30.3401 38.1195 31.8301 38.3195C33.3301 38.5295 35.4601 39.2395 38.0301 41.2695C39.6901 42.5795 40.7101 44.2195 41.3001 45.4895C41.5701 46.0695 41.7501 46.5695 41.8701 46.9295C41.9301 47.1095 41.9701 47.2495 41.9901 47.3495C42.0001 47.3995 42.0101 47.4295 42.0201 47.4595V47.4895L42.2801 47.4295L42.2601 47.1695C42.1001 47.1695 39.0401 47.2895 35.3201 44.9595C33.9601 44.1095 32.8201 43.1695 31.9201 42.2395C31.0201 41.3095 30.3701 40.3895 29.9901 39.5895C29.7301 39.0495 29.6101 38.5595 29.6201 38.1695H29.3601H29.1001C29.1001 38.6595 29.2501 39.2195 29.5201 39.8095C29.9301 40.6795 30.6101 41.6395 31.5501 42.5995C32.4801 43.5595 33.6601 44.5295 35.0501 45.3995C39.0201 47.8795 42.2701 47.6895 42.3101 47.6895L42.6201 47.6695L42.5501 47.3695C42.5501 47.3695 42.3501 46.4695 41.7901 45.2595C41.1701 43.9395 40.1101 42.2295 38.3701 40.8495C35.6901 38.7395 33.4401 37.9895 31.8401 37.7895C30.2401 37.5795 29.3101 37.9095 29.2801 37.9195L29.1101 37.9795V38.1595H29.3701L29.3601 38.1695Z" fill="white"/>
<path d="M32.55 40.3098C33.22 40.2598 35.11 40.3598 37.81 42.4398C39.35 43.6298 40.15 45.1598 40.46 45.8798C39.74 45.7698 38.21 45.4198 36.42 44.2898C34.19 42.8798 32.83 41.2598 32.56 40.2998L32.55 40.3098Z" fill="#FCFFB5"/>
<path d="M39.9401 45.4895C39.1501 45.3095 37.9401 44.9195 36.5601 44.0495C34.6001 42.8095 33.4201 41.4595 32.9801 40.5995C33.8101 40.6395 35.4401 40.9895 37.6201 42.6695C38.8101 43.5895 39.5401 44.7195 39.9401 45.4895ZM40.8901 46.2195C40.8901 46.2195 40.1801 43.8995 37.9801 42.1995C34.4101 39.4495 32.2001 40.0495 32.2001 40.0495C32.2701 41.0895 33.7901 42.9695 36.2501 44.5295C38.8601 46.1795 40.8901 46.2095 40.8901 46.2095V46.2195Z" fill="#FFBF00"/>
<path d="M44.8002 30.1696C44.7902 30.2296 44.7802 30.2796 44.7802 30.3396L42.6902 31.4196L42.9602 31.9396L45.0602 30.8596C45.1202 30.8996 45.2002 30.9396 45.2702 30.9596C45.6202 31.0396 45.9702 30.8296 46.0502 30.4796C46.1302 30.1296 45.9202 29.7796 45.5702 29.6996C45.2202 29.6196 44.8702 29.8296 44.7902 30.1796L44.8002 30.1696Z" fill="#FFBF00"/>
<path d="M42.6702 29.3899C42.6702 29.4499 42.6902 29.4999 42.7102 29.5599L41.0802 31.2499L41.5002 31.6599L43.1402 29.9599C43.2102 29.9799 43.2902 29.9899 43.3702 29.9799C43.7302 29.9499 43.9902 29.6299 43.9602 29.2799C43.9302 28.9199 43.6102 28.6599 43.2602 28.6899C42.9102 28.7199 42.6402 29.0399 42.6702 29.3899Z" fill="#FFBF00"/>
<path d="M41.3402 29.7894C41.7002 29.7594 41.9602 29.4394 41.9302 29.0894C41.9002 28.7294 41.5802 28.4694 41.2302 28.4994C40.8702 28.5294 40.6102 28.8494 40.6402 29.1994C40.6402 29.2594 40.6602 29.3094 40.6802 29.3694L39.0502 31.0594L39.4702 31.4694L41.1102 29.7694C41.1802 29.7894 41.2602 29.7994 41.3402 29.7894Z" fill="#FFBF00"/>
<path d="M45.7202 34.3294C45.9602 34.5994 46.3701 34.6194 46.6301 34.3894C46.9001 34.1494 46.9202 33.7394 46.6902 33.4794C46.4502 33.2094 46.0402 33.1894 45.7802 33.4194C45.7202 33.4694 45.6702 33.5394 45.6402 33.6094L43.2802 33.6394V34.2294L45.6402 34.1994C45.6602 34.2494 45.6902 34.2994 45.7302 34.3394L45.7202 34.3294Z" fill="#FFBF00"/>
<path d="M45.4002 35.5193C45.2602 35.1893 44.8802 35.0293 44.5502 35.1693C44.4702 35.1993 44.4102 35.2493 44.3502 35.2993L42.1002 34.5693L41.9202 35.1293L44.1602 35.8593C44.1602 35.9193 44.1802 35.9693 44.2002 36.0193C44.3402 36.3493 44.7202 36.5093 45.0502 36.3693C45.3802 36.2293 45.5402 35.8493 45.4002 35.5193Z" fill="#FFBF00"/>
<path d="M43.2801 37.3293C43.6101 37.1893 43.7701 36.8093 43.6301 36.4793C43.4901 36.1493 43.1101 35.9893 42.7801 36.1293C42.7001 36.1593 42.6401 36.2093 42.5801 36.2593L40.3301 35.5293L40.1501 36.0893L42.3901 36.8193C42.3901 36.8793 42.4101 36.9293 42.4301 36.9793C42.5701 37.3093 42.9501 37.4693 43.2801 37.3293Z" fill="#FFBF00"/>
<path d="M46.9002 32.1197C47.2302 32.2597 47.6102 32.1197 47.7502 31.7897C47.8902 31.4597 47.7502 31.0797 47.4202 30.9397C47.0902 30.7997 46.7102 30.9397 46.5702 31.2697C46.5502 31.3197 46.5302 31.3797 46.5302 31.4297L44.2802 32.1297L44.4501 32.6897L46.7102 31.9897C46.7702 32.0397 46.8302 32.0897 46.9002 32.1197Z" fill="#FFBF00"/>
<path d="M29.5101 36.6891C29.5101 36.6891 30.7201 33.1191 37.2801 31.5791C41.3201 30.6291 44.8101 32.3491 44.8101 32.3491C44.8101 32.3491 42.9701 34.9691 38.6201 36.4991C34.5201 37.9391 30.8501 37.7791 29.5101 36.6891Z" fill="#00D974"/>
<path d="M29.5102 36.6895L29.7602 36.7695L29.7302 36.7595H29.7602C29.7602 36.7595 30.0702 35.8895 31.1702 34.8495C32.2602 33.8095 34.1502 32.5795 37.3402 31.8395C39.4002 31.3595 41.3202 31.5795 42.6802 31.9095C43.3002 32.0595 43.8102 32.2295 44.1602 32.3595C44.3302 32.4295 44.4702 32.4795 44.5602 32.5195C44.6102 32.5395 44.6402 32.5595 44.6602 32.5695H44.6802V32.5895L44.8002 32.3495L44.5902 32.1995C44.5002 32.3295 42.6802 34.7895 38.5302 36.2495C37.0202 36.7795 35.5702 37.0895 34.2802 37.2195C32.9902 37.3395 31.8602 37.2795 31.0102 37.0695C30.4302 36.9295 29.9702 36.7195 29.6702 36.4795L29.5002 36.6795L29.3302 36.8795C29.7202 37.1895 30.2402 37.4195 30.8802 37.5695C31.8202 37.7895 32.9902 37.8595 34.3302 37.7295C35.6602 37.5995 37.1502 37.2795 38.7002 36.7395C43.1102 35.1895 44.9902 32.5195 45.0102 32.4895L45.1902 32.2395L44.9102 32.0995C44.9102 32.0995 44.0802 31.6895 42.7802 31.3795C41.3602 31.0395 39.3602 30.7995 37.2002 31.3095C33.8802 32.0895 31.8902 33.3895 30.7302 34.4995C29.5702 35.6195 29.2502 36.5495 29.2402 36.5795L29.1802 36.7495L29.3202 36.8695L29.4902 36.6695L29.5102 36.6895Z" fill="white"/>
<path d="M33.1702 35.5293C33.5502 34.9793 34.8102 33.5593 38.1102 32.7493C40.0002 32.2793 41.6902 32.6193 42.4502 32.8293C41.9202 33.3293 40.6902 34.2993 38.6902 34.9993C36.1902 35.8693 34.0902 35.9193 33.1702 35.5393V35.5293Z" fill="#FCFFB5"/>
<path d="M41.8301 32.9795C41.2001 33.4895 40.1301 34.1895 38.6001 34.7195C36.4101 35.4795 34.6101 35.5595 33.6701 35.3695C34.2201 34.7495 35.5101 33.6895 38.1801 33.0295C39.6401 32.6695 40.9801 32.7995 41.8301 32.9795ZM43.0001 32.6895C43.0001 32.6895 40.7401 31.7995 38.0401 32.4595C33.6601 33.5395 32.7601 35.6395 32.7601 35.6395C33.6201 36.2295 36.0401 36.2195 38.7901 35.2695C41.7001 34.2595 43.0001 32.6895 43.0001 32.6895Z" fill="#FFBF00"/>
<path d="M32.8902 19.6293C32.8902 19.6293 32.9702 19.7093 33.0102 19.7493L32.5502 22.0593L33.1202 22.1693L33.5802 19.8493C33.6502 19.8293 33.7302 19.7893 33.7902 19.7393C34.0702 19.5193 34.1202 19.1093 33.9002 18.8293C33.6802 18.5493 33.2702 18.4993 32.9902 18.7193C32.7102 18.9393 32.6602 19.3493 32.8802 19.6293H32.8902Z" fill="#FFBF00"/>
<path d="M30.9502 20.8093C30.9502 20.8093 31.0502 20.8593 31.1002 20.8793L31.4102 23.2093L31.9902 23.1293L31.6802 20.7893C31.7402 20.7393 31.8002 20.6893 31.8402 20.6193C32.0402 20.3193 31.9502 19.9193 31.6502 19.7193C31.3502 19.5193 30.9502 19.6093 30.7502 19.9093C30.5502 20.2093 30.6402 20.6093 30.9402 20.8093H30.9502Z" fill="#FFBF00"/>
<path d="M30.4301 22.0998C30.6301 21.7998 30.5401 21.3998 30.2401 21.1998C29.9401 20.9998 29.5401 21.0898 29.3401 21.3898C29.1401 21.6898 29.2301 22.0898 29.5301 22.2898C29.5801 22.3198 29.6301 22.3398 29.6801 22.3598L29.9901 24.6898L30.5701 24.6098L30.2601 22.2698C30.3201 22.2198 30.3801 22.1698 30.4201 22.0998H30.4301Z" fill="#FFBF00"/>
<path d="M36.7101 21.5098C37.0701 21.4898 37.3401 21.1898 37.3201 20.8298C37.3001 20.4698 37.0001 20.1998 36.6401 20.2198C36.2801 20.2398 36.0101 20.5398 36.0301 20.8998C36.0301 20.9798 36.0501 21.0598 36.0901 21.1298L34.6401 22.9998L35.1001 23.3598L36.5401 21.4998C36.5901 21.5098 36.6501 21.5198 36.7101 21.5198V21.5098Z" fill="#FFBF00"/>
<path d="M37.4401 22.4994C37.1001 22.3994 36.7401 22.5994 36.6401 22.9494C36.6201 23.0294 36.6101 23.1094 36.6201 23.1794L34.6501 24.4794L34.9701 24.9694L36.9301 23.6794C36.9301 23.6794 37.0301 23.7294 37.0901 23.7494C37.4301 23.8494 37.7901 23.6494 37.8901 23.2994C37.9901 22.9494 37.7901 22.5994 37.4401 22.4994Z" fill="#FFBF00"/>
<path d="M37.5302 25.2798C37.6302 24.9398 37.4302 24.5798 37.0802 24.4798C36.7402 24.3798 36.3802 24.5798 36.2802 24.9298C36.2602 25.0098 36.2502 25.0898 36.2602 25.1598L34.2902 26.4598L34.6102 26.9498L36.5702 25.6598C36.5702 25.6598 36.6702 25.7098 36.7302 25.7298C37.0702 25.8298 37.4302 25.6298 37.5302 25.2798Z" fill="#FFBF00"/>
<path d="M35.7202 19.2096C36.0402 19.0396 36.1602 18.6496 35.9902 18.3296C35.8202 18.0096 35.4302 17.8896 35.1102 18.0596C34.7902 18.2296 34.6702 18.6196 34.8402 18.9396C34.8702 18.9896 34.9002 19.0396 34.9402 19.0796L34.0802 21.2696L34.6302 21.4796L35.4902 19.2796C35.5702 19.2796 35.6402 19.2496 35.7202 19.2096Z" fill="#FFBF00"/>
<path d="M28.4501 35.6495C28.4501 35.6495 26.4101 32.4795 29.3001 26.3895C31.0801 22.6395 34.6001 20.9795 34.6001 20.9795C34.6001 20.9795 35.5001 24.0495 33.9901 28.3995C32.5601 32.4995 30.1501 35.2695 28.4501 35.6395V35.6495Z" fill="#00D974"/>
<path d="M28.4501 35.6494L28.6701 35.5094C28.6701 35.5094 28.1801 34.7094 28.0401 33.2094C27.9101 31.7094 28.1301 29.4694 29.5301 26.5094C30.4401 24.5994 31.8101 23.2394 32.9201 22.3794C33.4301 21.9894 33.8801 21.6994 34.2001 21.4994C34.3601 21.3994 34.4901 21.3294 34.5801 21.2894C34.6201 21.2694 34.6601 21.2494 34.6801 21.2394H34.7001V21.2194L34.5901 20.9794L34.3401 21.0494C34.3801 21.2094 35.1701 24.1694 33.7301 28.3094C33.2001 29.8194 32.5401 31.1494 31.8401 32.2294C31.1301 33.3094 30.3801 34.1594 29.6801 34.6994C29.2101 35.0694 28.7601 35.2994 28.3801 35.3794L28.4401 35.6394L28.5001 35.8994C28.9801 35.7894 29.4901 35.5194 30.0101 35.1194C30.7701 34.5294 31.5501 33.6494 32.2801 32.5194C33.0101 31.3994 33.6901 30.0294 34.2301 28.4794C35.7701 24.0594 34.8601 20.9294 34.8501 20.8994L34.7601 20.6094L34.4801 20.7394C34.4801 20.7394 33.6501 21.1294 32.5901 21.9494C31.4401 22.8494 30.0101 24.2594 29.0501 26.2694C27.5901 29.3494 27.3601 31.7194 27.5201 33.3194C27.6701 34.9194 28.2001 35.7594 28.2201 35.7794L28.3201 35.9294L28.5001 35.8894L28.4401 35.6294L28.4501 35.6494Z" fill="white"/>
<path d="M29.8302 32.0691C29.6302 31.4291 29.3102 29.5591 30.7402 26.4691C31.5602 24.6991 32.8702 23.5891 33.5102 23.1191C33.5702 23.8491 33.5702 25.4091 32.8602 27.4091C31.9802 29.8991 30.7102 31.5791 29.8302 32.0591V32.0691Z" fill="#FCFFB5"/>
<path d="M33.2301 23.7094C33.2301 24.5194 33.1201 25.7894 32.5701 27.3194C31.8001 29.5094 30.7401 30.9594 30.0101 31.5794C29.8701 30.7594 29.8401 29.0994 31.0001 26.5894C31.6301 25.2194 32.5701 24.2594 33.2301 23.6994M33.7401 22.6094C33.7401 22.6094 31.6401 23.8194 30.4701 26.3394C28.5801 30.4394 29.6601 32.4494 29.6601 32.4494C30.6601 32.1494 32.1601 30.2494 33.1301 27.5094C34.1601 24.5994 33.7401 22.6094 33.7401 22.6094Z" fill="#FFBF00"/>
<path d="M28.0002 36.1195C28.0002 36.1195 24.3002 33.8095 24.3102 26.0095C24.3102 21.1995 27.1802 17.7295 27.1802 17.7295C27.1802 17.7295 29.6402 20.4995 30.2102 25.7995C30.7502 30.7995 29.5902 34.8895 28.0002 36.1195Z" fill="#FF8500"/>
<path d="M28.0002 36.1198L28.0702 36.0098C27.9802 35.9398 27.0702 35.3198 26.1902 33.7898C25.3102 32.2498 24.4502 29.7998 24.4502 26.0598V26.0098C24.4502 23.6298 25.1602 21.5798 25.8802 20.1198C26.2402 19.3898 26.5902 18.8098 26.8602 18.4098C26.9902 18.2098 27.1002 18.0598 27.1802 17.9598C27.2202 17.9098 27.2502 17.8698 27.2702 17.8398C27.2902 17.8098 27.3002 17.7998 27.3002 17.7998L27.2002 17.7198L27.1002 17.8098L27.1302 17.8398C27.3902 18.1498 29.5702 20.8698 30.1002 25.8098C30.1902 26.6498 30.2302 27.4598 30.2302 28.2398C30.2302 30.1598 29.9802 31.8598 29.5602 33.1998C29.1402 34.5398 28.5602 35.5298 27.9402 36.0098L28.0202 36.1098L28.1002 36.2098C28.7902 35.6698 29.3902 34.6398 29.8102 33.2698C30.2402 31.8998 30.4902 30.1698 30.4902 28.2298C30.4902 27.4398 30.4502 26.6198 30.3602 25.7698C29.7902 20.4298 27.3102 17.6398 27.3002 17.6198L27.2002 17.5098L27.1002 17.6298C27.1002 17.6298 24.2102 21.1398 24.2002 25.9998V26.0498C24.2002 29.9498 25.1302 32.4898 26.0602 34.0598C26.9902 35.6298 27.9302 36.2198 27.9502 36.2198L28.0302 36.2698L28.1002 36.2098L28.0202 36.1098L28.0002 36.1198Z" fill="white"/>
<path d="M27.6702 31.7701C27.2302 31.2901 26.1702 29.7801 26.1402 26.4701C26.1202 24.5701 26.8102 23.0501 27.1802 22.3701C27.5302 22.9901 28.1802 24.3601 28.3902 26.4201C28.6502 28.9801 28.2302 30.9901 27.6602 31.7701H27.6702Z" fill="#FFBF00"/>
<path d="M27.1902 22.9893C27.5302 23.6993 27.9502 24.8693 28.1102 26.4393C28.3402 28.6893 28.0202 30.4093 27.6202 31.2593C27.1502 30.5993 26.4402 29.1493 26.4202 26.4593C26.4102 24.9893 26.8302 23.7593 27.1802 22.9893M27.1802 21.8193C27.1802 21.8193 25.8302 23.7593 25.8602 26.4593C25.9002 30.8493 27.6902 32.1693 27.6902 32.1693C28.4402 31.4893 28.9702 29.1993 28.6802 26.3793C28.3702 23.3893 27.1802 21.8193 27.1802 21.8193Z" fill="#F9FF54"/>
<path d="M27.2702 36.5498C27.2702 36.5498 23.1603 38.0098 17.0703 33.1298C13.3203 30.1298 12.3802 25.7198 12.3802 25.7198C12.3802 25.7198 16.0803 25.5198 20.5803 28.3798C24.8303 31.0798 27.3002 34.5398 27.2702 36.5398V36.5498Z" fill="#FF8500"/>
<path d="M27.2702 36.5494L27.2302 36.4294C27.1702 36.4494 26.6202 36.6294 25.6602 36.6294C23.9502 36.6294 20.9502 36.0694 17.1502 33.0394C15.2902 31.5494 14.1302 29.7194 13.4402 28.2494C13.0902 27.5194 12.8602 26.8794 12.7102 26.4194C12.6402 26.1894 12.5902 26.0094 12.5502 25.8894C12.5302 25.8294 12.5202 25.7794 12.5102 25.7494C12.5102 25.7194 12.5002 25.6994 12.5002 25.6994L12.3702 25.7294V25.8594C12.3702 25.8594 12.3902 25.8594 12.4102 25.8594C12.4402 25.8594 12.4702 25.8594 12.5202 25.8594C13.2502 25.8594 16.5602 26.0094 20.5002 28.5094C22.6002 29.8394 24.2602 31.3594 25.3902 32.7994C26.5302 34.2294 27.1302 35.5794 27.1202 36.5294V36.5594H27.2502H27.3802V36.5294C27.3802 35.4694 26.7402 34.0994 25.5902 32.6394C24.4302 31.1794 22.7502 29.6394 20.6302 28.2994C16.6502 25.7694 13.2802 25.6094 12.5102 25.6094C12.4002 25.6094 12.3502 25.6094 12.3502 25.6094H12.2002L12.2302 25.7694C12.2302 25.7794 13.1702 30.2094 16.9602 33.2494C20.7902 36.3194 23.8602 36.8994 25.6302 36.8994C26.6902 36.8994 27.2802 36.6894 27.2902 36.6894L27.3802 36.6594V36.5694H27.2502L27.2702 36.5494Z" fill="white"/>
<path d="M23.4403 34.0994C22.6303 34.0994 20.9202 33.8194 18.5602 31.9794C17.0602 30.8094 16.3003 29.3194 16.0103 28.6094C16.7103 28.7194 18.1903 29.0694 19.9303 30.1894C22.1003 31.5794 23.4003 33.1594 23.6603 34.0994C23.6003 34.0994 23.5203 34.0994 23.4403 34.0994Z" fill="#FFBF00"/>
<path d="M16.5002 28.9893C17.2702 29.1693 18.4402 29.5593 19.7802 30.4193C21.6802 31.6393 22.8302 32.9693 23.2502 33.8093C22.4102 33.7593 20.8502 33.4093 18.7502 31.7593C17.5902 30.8593 16.8902 29.7493 16.5102 28.9993M15.5802 28.2793C15.5802 28.2793 16.2602 30.5393 18.3902 32.2093C20.8202 34.1093 22.6002 34.3893 23.4502 34.3893C23.8102 34.3893 24.0002 34.3393 24.0002 34.3393C23.9402 33.3293 22.4702 31.4793 20.0902 29.9493C17.5602 28.3293 15.5902 28.2793 15.5902 28.2793H15.5802Z" fill="#F9FF54"/>
<path d="M27.1401 37.3894C27.1401 37.3894 25.7101 41.5094 18.1101 43.2394C13.4201 44.2994 9.39014 42.2894 9.39014 42.2894C9.39014 42.2894 11.5401 39.2694 16.5901 37.5394C21.3501 35.8994 25.5901 36.1294 27.1401 37.3994V37.3894Z" fill="#FF8500"/>
<path d="M27.1402 37.39L27.0202 37.35C26.9802 37.47 26.5802 38.49 25.2702 39.69C23.9602 40.89 21.7502 42.28 18.0902 43.11C17.1202 43.33 16.1902 43.42 15.3102 43.42C13.6402 43.42 12.1702 43.11 11.1302 42.79C10.6102 42.63 10.1902 42.48 9.9002 42.36C9.7602 42.3 9.6502 42.25 9.5702 42.22C9.5302 42.2 9.5002 42.19 9.4902 42.18H9.4602L9.4002 42.28L9.5102 42.36L9.5302 42.33C9.7702 42.01 11.9402 39.27 16.6402 37.66C18.9702 36.86 21.1802 36.51 23.0002 36.51C24.8702 36.51 26.3302 36.89 27.0702 37.5L27.1502 37.4L27.2302 37.3C26.4002 36.62 24.9002 36.25 22.9902 36.25C21.1402 36.25 18.9102 36.61 16.5502 37.42C11.4702 39.17 9.3002 42.2 9.2902 42.22L9.2002 42.34L9.34019 42.41C9.34019 42.41 11.8902 43.69 15.3002 43.69C16.2002 43.69 17.1602 43.6 18.1402 43.38C21.9602 42.52 24.2502 41.04 25.5702 39.78C26.9002 38.52 27.2602 37.47 27.2702 37.45L27.3002 37.36L27.2302 37.3L27.1502 37.4L27.1402 37.39Z" fill="white"/>
<path d="M16.2602 41.57C15.2302 41.57 14.3902 41.38 13.9102 41.25C14.4302 40.77 15.6301 39.83 17.5901 39.17C18.9401 38.71 20.3101 38.46 21.4501 38.46C22.0801 38.46 22.6202 38.54 22.9702 38.69C22.6002 39.22 21.3602 40.59 18.1402 41.36C17.5402 41.5 16.9002 41.58 16.2602 41.58V41.57Z" fill="#FFBF00"/>
<path d="M21.4501 38.7402C21.9101 38.7402 22.2401 38.7802 22.4901 38.8302C21.9501 39.4302 20.6901 40.4502 18.0801 41.0702C17.5001 41.2102 16.8901 41.2802 16.2701 41.2802C15.5901 41.2802 14.9901 41.1902 14.5301 41.1002C15.1501 40.6102 16.1901 39.9402 17.6901 39.4302C19.0101 38.9802 20.3501 38.7302 21.4601 38.7302M21.4501 38.1702C20.3701 38.1702 18.9901 38.3902 17.5001 38.9002C14.6601 39.8602 13.3901 41.3802 13.3901 41.3802C13.3901 41.3802 14.5801 41.8602 16.2701 41.8602C16.8701 41.8602 17.5301 41.8002 18.2201 41.6302C22.4901 40.6102 23.3801 38.5702 23.3801 38.5702C23.0101 38.3102 22.3301 38.1602 21.4601 38.1602L21.4501 38.1702Z" fill="#F9FF54"/>
<path d="M27.7302 38.0098C27.7302 38.0098 30.0702 41.6998 26.6702 48.7198C24.5802 53.0498 20.4902 54.9398 20.4902 54.9398C20.4902 54.9398 19.4702 51.3698 21.2602 46.3498C22.9502 41.6098 25.7702 38.4298 27.7302 38.0098Z" fill="#FF8500"/>
<path d="M27.7302 38.0094L27.6202 38.0794C27.7002 38.2194 28.3802 39.4194 28.3802 41.6494C28.3802 43.3794 27.9702 45.7194 26.5502 48.6594C25.5102 50.7994 23.9802 52.3394 22.7102 53.3494C22.0702 53.8494 21.5002 54.2194 21.0902 54.4594C20.8802 54.5794 20.7202 54.6694 20.6002 54.7294C20.5402 54.7594 20.5002 54.7794 20.4702 54.7994C20.4402 54.8094 20.4302 54.8194 20.4302 54.8194L20.4902 54.9394L20.6202 54.8994C20.6202 54.8994 20.6202 54.8894 20.6102 54.8594C20.5602 54.6494 20.3402 53.7094 20.3402 52.2294C20.3402 50.7494 20.5602 48.7294 21.3902 46.3894C22.2302 44.0294 23.3502 42.0694 24.5002 40.6394C25.6502 39.2094 26.8302 38.3294 27.7602 38.1394L27.7302 38.0094L27.7002 37.8794C26.6702 38.0994 25.4602 39.0194 24.2902 40.4694C23.1202 41.9194 21.9902 43.9094 21.1402 46.2994C20.3002 48.6694 20.0702 50.7194 20.0702 52.2294C20.0702 53.9394 20.3602 54.9594 20.3602 54.9694L20.4002 55.1194L20.5402 55.0594C20.5402 55.0594 24.6602 53.1494 26.7802 48.7794C28.2202 45.8094 28.6402 43.4194 28.6402 41.6494C28.6402 39.2194 27.8502 37.9594 27.8402 37.9394L27.7902 37.8594L27.7002 37.8794L27.7302 38.0094Z" fill="white"/>
<path d="M22.4902 50.7601C22.4402 50.0501 22.4502 48.5301 23.1502 46.5901C24.0202 44.1701 25.2702 42.5401 26.1302 42.0801C26.3202 42.7001 26.6202 44.5201 25.2102 47.5201C24.4002 49.2401 23.1202 50.3101 22.4902 50.7601Z" fill="#FFBF00"/>
<path d="M25.9502 42.5502C26.0802 43.3502 26.0902 44.9702 24.9502 47.4002C24.3302 48.7302 23.4102 49.6602 22.7602 50.1902C22.7602 49.4002 22.8902 48.1702 23.4202 46.6802C24.1902 44.5602 25.2202 43.1502 25.9502 42.5502ZM26.3002 41.7002C25.3302 41.9902 23.8502 43.8202 22.8902 46.4902C21.8702 49.3102 22.2602 51.2502 22.2602 51.2502C22.2602 51.2502 24.3202 50.0902 25.4702 47.6402C27.3402 43.6702 26.3002 41.7002 26.3002 41.7002Z" fill="#F9FF54"/>
<path d="M28.5702 37.9395C28.5702 37.9395 32.9102 38.4095 36.2802 45.4495C38.3602 49.7795 37.2902 54.1595 37.2902 54.1595C37.2902 54.1595 33.8702 52.7295 31.0602 48.1995C28.4102 43.9295 27.6802 39.7395 28.5802 37.9395H28.5702Z" fill="#FF8500"/>
<path d="M28.5702 37.9398V38.0698C28.8002 38.0998 32.9202 38.7298 36.1702 45.4998C37.1802 47.6098 37.4402 49.7398 37.4402 51.3498C37.4402 52.1798 37.3702 52.8698 37.3002 53.3598C37.2702 53.5998 37.2302 53.7898 37.2102 53.9198C37.2002 53.9798 37.1902 54.0298 37.1802 54.0698C37.1802 54.0998 37.1702 54.1198 37.1702 54.1198L37.3002 54.1498L37.3502 54.0298C37.3502 54.0298 37.3402 54.0298 37.3102 54.0098C36.9402 53.8398 33.7902 52.3398 31.1702 48.1198C29.2402 45.0198 28.3402 41.9498 28.3402 39.8598C28.3402 39.0898 28.4602 38.4498 28.6902 37.9898L28.5702 37.9298L28.4502 37.8698C28.2002 38.3798 28.0702 39.0598 28.0702 39.8598C28.0702 42.0298 28.9902 45.1198 30.9402 48.2598C33.7702 52.8198 37.2202 54.2598 37.2302 54.2698L37.3702 54.3298L37.4102 54.1798C37.4102 54.1798 37.6902 53.0398 37.6902 51.3498C37.6902 49.7098 37.4302 47.5398 36.3902 45.3798C34.7002 41.8398 32.7502 39.9498 31.2302 38.9398C29.7002 37.9298 28.6002 37.8098 28.5802 37.7998H28.4902L28.4502 37.8698L28.5702 37.9298V37.9398Z" fill="white"/>
<path d="M35.2802 49.9797C34.6902 49.5797 33.5102 48.6197 32.4302 46.8597C31.0802 44.6697 30.5902 42.6797 30.7602 41.7197C31.3602 41.9597 32.9702 42.8597 34.4402 45.8397C35.2802 47.5397 35.3202 49.2097 35.2802 49.9897V49.9797Z" fill="#FFBF00"/>
<path d="M31.0202 42.1594C31.7302 42.5594 33.0002 43.5494 34.1902 45.9594C34.8402 47.2694 34.9902 48.5694 35.0102 49.4194C34.4002 48.9194 33.5102 48.0594 32.6802 46.7094C31.5002 44.7894 31.0402 43.0994 31.0302 42.1594M30.5702 41.3594C30.1902 42.2994 30.7002 44.5994 32.1902 47.0094C33.7602 49.5694 35.5202 50.4694 35.5202 50.4694C35.5202 50.4694 35.8902 48.1394 34.7002 45.7094C32.7602 41.7694 30.5702 41.3594 30.5702 41.3594Z" fill="#F9FF54"/>
<path d="M29.0502 37.2399C29.0502 37.2399 32.1202 34.1399 39.7302 35.8899C44.4102 36.9699 47.1702 40.5299 47.1702 40.5299C47.1702 40.5299 43.9202 42.3099 38.6202 41.6899C33.6202 41.0999 29.9002 39.0599 29.0502 37.2399Z" fill="#FF8500"/>
<path d="M29.0503 37.2397L29.1403 37.3297C29.2403 37.2297 31.0902 35.4897 35.3402 35.4897C36.5802 35.4897 38.0303 35.6397 39.6903 36.0197C42.0103 36.5497 43.8503 37.6997 45.1103 38.7197C45.7403 39.2297 46.2302 39.6997 46.5602 40.0497C46.7202 40.2197 46.8503 40.3697 46.9303 40.4597C46.9703 40.5097 47.0002 40.5497 47.0202 40.5697C47.0402 40.5997 47.0503 40.6097 47.0503 40.6097L47.1503 40.5297L47.0902 40.4097H47.0703C46.8103 40.5597 44.5302 41.6797 40.8402 41.6797C40.1502 41.6797 39.4102 41.6397 38.6302 41.5497C36.1502 41.2597 33.9803 40.5997 32.3303 39.7997C30.6803 38.9997 29.5603 38.0397 29.1603 37.1697L29.0403 37.2297L28.9202 37.2897C29.3702 38.2497 30.5303 39.2197 32.2103 40.0397C33.8903 40.8597 36.0802 41.5197 38.5902 41.8197C39.3802 41.9097 40.1303 41.9497 40.8303 41.9497C44.8203 41.9497 47.2003 40.6497 47.2103 40.6397L47.3402 40.5697L47.2503 40.4497C47.2503 40.4497 44.4702 36.8497 39.7402 35.7597C38.0602 35.3697 36.5903 35.2197 35.3303 35.2197C30.8703 35.2197 28.9603 37.1197 28.9403 37.1397L28.8802 37.1997L28.9202 37.2797L29.0403 37.2197L29.0503 37.2397Z" fill="white"/>
<path d="M39.9102 39.8795C39.4302 39.8795 38.9302 39.8495 38.4302 39.7895C35.8802 39.4795 34.0102 38.6195 33.3702 37.8895C33.7602 37.6695 34.6802 37.2695 36.2602 37.2695C37.0702 37.2695 37.9502 37.3695 38.8902 37.5795C40.7402 37.9795 42.0802 38.9995 42.6502 39.5095C42.1502 39.6595 41.2002 39.8795 39.9102 39.8795Z" fill="#FFBF00"/>
<path d="M36.2502 36.9797V37.5497C37.0402 37.5497 37.9002 37.6497 38.8202 37.8497C40.2502 38.1597 41.3602 38.8497 42.0302 39.3697C41.5102 39.4897 40.7902 39.5897 39.9002 39.5897C39.4302 39.5897 38.9402 39.5597 38.4502 39.4997C36.2102 39.2197 34.6002 38.5297 33.8602 37.9497C34.3202 37.7597 35.1002 37.5397 36.2402 37.5397V36.9697M36.2502 36.9797C33.9302 36.9797 32.9602 37.8097 32.9602 37.8097C33.4602 38.6997 35.5702 39.7197 38.3902 40.0697C38.9402 40.1397 39.4402 40.1597 39.9102 40.1597C41.9702 40.1597 43.1802 39.6197 43.1802 39.6197C43.1802 39.6197 41.5902 37.8697 38.9502 37.2997C37.9002 37.0697 37.0102 36.9897 36.2602 36.9897L36.2502 36.9797Z" fill="#F9FF54"/>
<path d="M28.8002 36.4197C28.8002 36.4197 28.3002 32.0797 34.4002 27.2297C38.1602 24.2397 42.6702 24.3097 42.6702 24.3097C42.6702 24.3097 42.0402 27.9597 38.2502 31.7097C34.6702 35.2497 30.7502 36.8897 28.8002 36.4097V36.4197Z" fill="#FF8500"/>
<path d="M28.8002 36.4195L28.9302 36.3995C28.9302 36.3995 28.9302 36.2795 28.9302 36.1595C28.9302 35.1995 29.2802 31.4695 34.4902 27.3295C38.0502 24.4995 42.3002 24.4395 42.6502 24.4395H42.6702V24.3095L42.5402 24.2895C42.5402 24.2895 42.5402 24.2995 42.5402 24.3295C42.4602 24.7295 41.6902 28.1295 38.1602 31.6195C36.5802 33.1795 34.9402 34.3695 33.4302 35.1695C31.9202 35.9695 30.5502 36.3695 29.5402 36.3695C29.2802 36.3695 29.0502 36.3395 28.8402 36.2895L28.8102 36.4195L28.7802 36.5495C29.0102 36.6095 29.2702 36.6295 29.5402 36.6295C30.6202 36.6295 32.0202 36.2095 33.5602 35.3995C35.0902 34.5895 36.7602 33.3895 38.3502 31.8095C42.1702 28.0295 42.8102 24.3495 42.8102 24.3395L42.8402 24.1895H42.6902H42.6602C42.2802 24.1895 37.9802 24.2495 34.3402 27.1395C29.0702 31.3195 28.6702 35.1595 28.6802 36.1795C28.6802 36.3495 28.6902 36.4395 28.6902 36.4495V36.5395L28.7902 36.5595L28.8202 36.4295L28.8002 36.4195Z" fill="white"/>
<path d="M31.9902 33.45C32.0902 32.81 32.6102 31.04 35.1802 28.95C36.6502 27.75 38.2702 27.34 39.0402 27.21C38.7802 27.87 38.1102 29.24 36.6302 30.68C34.7502 32.53 32.9302 33.4 31.9902 33.45Z" fill="#FFBF00"/>
<path d="M38.5502 27.6001C38.2002 28.3101 37.5602 29.3701 36.4302 30.4801C34.9002 31.9801 33.3402 32.8801 32.3602 33.1101C32.5902 32.3301 33.2802 30.8701 35.3602 29.1701C36.5002 28.2401 37.7302 27.8101 38.5502 27.6001ZM39.4602 26.8701C39.4602 26.8701 37.1002 27.0301 35.0002 28.7301C31.5902 31.5001 31.6802 33.7201 31.6802 33.7201C31.7502 33.7301 31.8302 33.7401 31.9102 33.7401C32.9802 33.7401 34.9502 32.7301 36.8302 30.8901C38.9702 28.7901 39.4602 26.8701 39.4602 26.8701Z" fill="#F9FF54"/>
<path d="M28.0501 38.9098C26.9901 38.9098 26.1201 38.0498 26.1201 36.9798C26.1201 35.9098 26.9801 35.0498 28.0501 35.0498C29.1201 35.0498 29.9801 35.9098 29.9801 36.9798C29.9801 38.0498 29.1201 38.9098 28.0501 38.9098Z" fill="#FFBF00"/>
<path d="M28.0501 35.1799C29.0401 35.1799 29.8501 35.9899 29.8501 36.9799C29.8501 37.9699 29.0401 38.7799 28.0501 38.7799C27.0601 38.7799 26.2501 37.9699 26.2501 36.9799C26.2501 35.9899 27.0601 35.1799 28.0501 35.1799ZM28.0501 34.9199C26.9101 34.9199 25.9901 35.8399 25.9901 36.9799C25.9901 38.1199 26.9101 39.0399 28.0501 39.0399C29.1901 39.0399 30.1101 38.1199 30.1101 36.9799C30.1101 35.8399 29.1901 34.9199 28.0501 34.9199Z" fill="white"/>
<path d="M15.0801 56.8896C15.0801 57.7396 14.3901 58.4296 13.5401 58.4296C12.6901 58.4296 12.0001 57.7396 12.0001 56.8896C12.0001 56.0396 12.6901 55.3496 13.5401 55.3496C14.3901 55.3496 15.0801 56.0396 15.0801 56.8896Z" fill="#FF5E16"/>
<path d="M15.0802 56.8898H14.9802C14.9802 57.2898 14.8202 57.6498 14.5602 57.9098C14.3002 58.1698 13.9402 58.3298 13.5402 58.3298C13.1402 58.3298 12.7801 58.1698 12.5201 57.9098C12.2601 57.6498 12.1002 57.2898 12.1002 56.8898C12.1002 56.4898 12.2601 56.1298 12.5201 55.8698C12.7801 55.6098 13.1402 55.4498 13.5402 55.4498C13.9402 55.4498 14.3002 55.6098 14.5602 55.8698C14.8202 56.1298 14.9802 56.4898 14.9802 56.8898H15.1702C15.1702 55.9898 14.4402 55.2598 13.5402 55.2598C12.6402 55.2598 11.9102 55.9898 11.9102 56.8898C11.9102 57.7898 12.6402 58.5198 13.5402 58.5198C14.4402 58.5198 15.1702 57.7898 15.1702 56.8898H15.0702H15.0802Z" fill="white"/>
<path d="M11.6102 57.2602C12.4202 57.5202 12.8602 58.3902 12.6002 59.2002C12.3402 60.0102 11.4702 60.4502 10.6602 60.1902C9.85016 59.9302 9.41015 59.0602 9.67015 58.2502C9.93015 57.4402 10.8002 57.0002 11.6102 57.2602Z" fill="#FF5E16"/>
<path d="M11.6101 57.2598L11.5801 57.3498C12.1901 57.5498 12.5701 58.1098 12.5801 58.7198C12.5801 58.8698 12.5601 59.0198 12.5101 59.1698C12.3101 59.7798 11.7501 60.1698 11.1401 60.1698C10.9901 60.1698 10.8401 60.1498 10.6901 60.0998C10.0801 59.8998 9.69012 59.3398 9.69012 58.7298C9.69012 58.5798 9.71012 58.4298 9.76012 58.2798C9.96012 57.6698 10.5201 57.2798 11.1301 57.2798C11.2801 57.2798 11.4301 57.2998 11.5801 57.3498L11.6101 57.2598L11.6401 57.1698C11.4701 57.1198 11.3001 57.0898 11.1301 57.0898C10.4401 57.0898 9.80012 57.5298 9.58012 58.2198C9.53012 58.3898 9.50012 58.5598 9.50012 58.7298C9.50012 59.4198 9.94012 60.0598 10.6301 60.2798C10.8001 60.3298 10.9701 60.3598 11.1301 60.3598C11.8201 60.3598 12.4601 59.9198 12.6801 59.2298C12.7301 59.0598 12.7601 58.8898 12.7601 58.7198C12.7601 58.0298 12.3201 57.3898 11.6301 57.1698L11.6001 57.2598H11.6101Z" fill="white"/>
<path d="M10.9002 60.6702C11.4002 59.9802 12.3602 59.8302 13.0502 60.3302C13.7402 60.8302 13.8901 61.7902 13.3901 62.4802C12.8901 63.1702 11.9301 63.3202 11.2401 62.8202C10.5501 62.3202 10.4002 61.3602 10.9002 60.6702Z" fill="#FF5E16"/>
<path d="M10.9001 60.6695L10.9801 60.7295C11.2601 60.3395 11.7001 60.1395 12.1501 60.1395C12.4401 60.1395 12.7401 60.2295 13.0001 60.4195C13.3901 60.6995 13.5901 61.1395 13.5901 61.5895C13.5901 61.8795 13.5001 62.1795 13.3101 62.4295C13.0301 62.8195 12.5901 63.0195 12.1401 63.0195C11.8501 63.0195 11.5501 62.9295 11.3001 62.7395C10.9101 62.4595 10.7101 62.0195 10.7101 61.5695C10.7101 61.2795 10.8001 60.9795 10.9901 60.7295L10.9101 60.6695L10.8301 60.6095C10.6201 60.8995 10.5201 61.2395 10.5201 61.5695C10.5201 62.0695 10.7501 62.5695 11.1901 62.8895C11.4801 63.0995 11.8201 63.1995 12.1501 63.1995C12.6501 63.1995 13.1501 62.9695 13.4701 62.5295C13.6801 62.2395 13.7801 61.8995 13.7801 61.5695C13.7801 61.0695 13.5501 60.5695 13.1101 60.2495C12.8201 60.0395 12.4801 59.9395 12.1501 59.9395C11.6501 59.9395 11.1501 60.1695 10.8301 60.6095L10.9101 60.6695H10.9001Z" fill="white"/>
<path d="M13.9202 62.4001C13.4202 61.7101 13.5702 60.7501 14.2602 60.2501C14.9502 59.7501 15.9102 59.9001 16.4102 60.5901C16.9102 61.2801 16.7602 62.2401 16.0702 62.7401C15.3802 63.2401 14.4202 63.0901 13.9202 62.4001Z" fill="#FF5E16"/>
<path d="M13.9202 62.4001L14.0002 62.3401C13.8102 62.0801 13.7202 61.7901 13.7202 61.5001C13.7202 61.0501 13.9302 60.6201 14.3102 60.3301C14.5702 60.1401 14.8602 60.0501 15.1502 60.0501C15.6002 60.0501 16.0302 60.2601 16.3202 60.6401C16.5102 60.9001 16.5902 61.1901 16.6002 61.4801C16.6002 61.9301 16.3902 62.3601 16.0102 62.6501C15.7502 62.8401 15.4602 62.9201 15.1702 62.9301C14.7202 62.9301 14.2902 62.7201 14.0002 62.3401L13.9202 62.4001L13.8401 62.4601C14.1601 62.9001 14.6602 63.1301 15.1602 63.1301C15.4902 63.1301 15.8302 63.0301 16.1202 62.8201C16.5602 62.5001 16.7902 62.0001 16.7902 61.5001C16.7902 61.1701 16.6902 60.8301 16.4802 60.5401C16.1602 60.1001 15.6602 59.8701 15.1602 59.8701C14.8302 59.8701 14.4901 59.9701 14.2001 60.1801C13.7601 60.5001 13.5302 61.0001 13.5302 61.5001C13.5302 61.8301 13.6301 62.1701 13.8401 62.4601L13.9202 62.4001Z" fill="white"/>
<path d="M16.5002 60.0701C15.6902 60.3301 14.8302 59.8901 14.5602 59.0801C14.2902 58.2701 14.7402 57.4101 15.5502 57.1401C16.3602 56.8801 17.2202 57.3201 17.4902 58.1301C17.7602 58.9401 17.3102 59.8001 16.5002 60.0701Z" fill="#FF5E16"/>
<path d="M16.5001 60.0697L16.4701 59.9797C16.3201 60.0297 16.1701 60.0497 16.0201 60.0497C15.4101 60.0497 14.8501 59.6597 14.6501 59.0497C14.6001 58.8997 14.5801 58.7497 14.5801 58.5997C14.5801 57.9897 14.9701 57.4297 15.5801 57.2297C15.7301 57.1797 15.8801 57.1597 16.0301 57.1597C16.6401 57.1597 17.2001 57.5497 17.4001 58.1597C17.4501 58.3097 17.4701 58.4597 17.4701 58.6097C17.4701 59.2197 17.0801 59.7797 16.4701 59.9797L16.5001 60.0697L16.5301 60.1597C17.2201 59.9397 17.6601 59.2997 17.6601 58.6097C17.6601 58.4397 17.6301 58.2697 17.5801 58.0997C17.3601 57.4097 16.7201 56.9697 16.0301 56.9697C15.8601 56.9697 15.6901 56.9997 15.5301 57.0497C14.8401 57.2697 14.4001 57.9097 14.4001 58.5997C14.4001 58.7697 14.4301 58.9397 14.4801 59.1097C14.7001 59.7997 15.3401 60.2397 16.0301 60.2397C16.2001 60.2397 16.3701 60.2097 16.5401 60.1597L16.5101 60.0697H16.5001Z" fill="white"/>
<path d="M14.0101 60.95C13.2001 61.21 12.3401 60.77 12.0701 59.96C11.8001 59.15 12.2501 58.29 13.0601 58.02C13.8701 57.76 14.7301 58.2 15.0001 59.01C15.2701 59.82 14.8201 60.68 14.0101 60.95Z" fill="#FFC116"/>
<path d="M14.0101 60.9496L13.9801 60.8596C13.8301 60.9096 13.6801 60.9296 13.5301 60.9296C12.9201 60.9296 12.3601 60.5396 12.1601 59.9296C12.1101 59.7796 12.0901 59.6296 12.0901 59.4796C12.0901 58.8696 12.4801 58.3096 13.0901 58.1096C13.2401 58.0596 13.3901 58.0396 13.5401 58.0396C14.1501 58.0396 14.7101 58.4296 14.9101 59.0396C14.9601 59.1896 14.9801 59.3396 14.9801 59.4896C14.9801 60.0996 14.5901 60.6596 13.9801 60.8596L14.0101 60.9496L14.0401 61.0396C14.7301 60.8196 15.1701 60.1796 15.1701 59.4896C15.1701 59.3196 15.1401 59.1496 15.0901 58.9796C14.8701 58.2896 14.2301 57.8496 13.5401 57.8496C13.3701 57.8496 13.2001 57.8796 13.0301 57.9296C12.3401 58.1496 11.9001 58.7896 11.9001 59.4796C11.9001 59.6496 11.9301 59.8196 11.9801 59.9896C12.2001 60.6796 12.8401 61.1196 13.5301 61.1196C13.7001 61.1196 13.8701 61.0896 14.0401 61.0396L14.0101 60.9496Z" fill="white"/>
<path d="M42.9201 55.4204C43.7301 55.6804 44.1701 56.5504 43.9101 57.3604C43.6501 58.1704 42.7801 58.6104 41.9701 58.3504C41.1601 58.0904 40.7201 57.2204 40.9801 56.4104C41.2401 55.6004 42.1101 55.1604 42.9201 55.4204Z" fill="#FF5E16"/>
<path d="M42.9201 55.4199L42.8901 55.5099C43.2701 55.6299 43.5601 55.8999 43.7301 56.2299C43.9001 56.5599 43.9401 56.9499 43.8201 57.3299C43.7001 57.7099 43.4301 57.9999 43.1001 58.1699C42.7701 58.3399 42.3801 58.3799 42.0001 58.2599C41.6201 58.1399 41.3301 57.8699 41.1601 57.5399C40.9901 57.2099 40.9501 56.8199 41.0701 56.4399C41.1901 56.0599 41.4601 55.7699 41.7901 55.5999C42.1201 55.4299 42.5101 55.3899 42.8901 55.5099L42.9201 55.4199L42.9501 55.3299C42.0901 55.0499 41.1701 55.5199 40.8901 56.3799C40.6101 57.2399 41.0801 58.1599 41.9401 58.4399C42.8001 58.7199 43.7201 58.2499 44.0001 57.3899C44.2801 56.5299 43.8101 55.6099 42.9501 55.3299L42.9201 55.4199Z" fill="white"/>
<path d="M42.2001 58.8304C42.7001 58.1404 43.6601 57.9904 44.3501 58.4904C45.0401 58.9904 45.1901 59.9504 44.6901 60.6404C44.1901 61.3304 43.2301 61.4804 42.5401 60.9804C41.8501 60.4804 41.7001 59.5204 42.2001 58.8304Z" fill="#FF5E16"/>
<path d="M42.2002 58.83L42.2802 58.89C42.6602 58.37 43.3102 58.18 43.8902 58.37C44.0302 58.42 44.1702 58.48 44.2902 58.57C44.8102 58.95 45.0002 59.6 44.8102 60.18C44.7602 60.32 44.7002 60.46 44.6102 60.58C44.2302 61.1 43.5802 61.29 43.0002 61.1C42.8602 61.05 42.7202 60.99 42.6002 60.9C42.0802 60.52 41.8902 59.87 42.0802 59.29C42.1302 59.15 42.1902 59.01 42.2902 58.89L42.2102 58.83L42.1302 58.77C42.0302 58.91 41.9502 59.07 41.9002 59.23C41.6902 59.88 41.9002 60.63 42.4902 61.06C42.6302 61.16 42.7902 61.24 42.9502 61.29C43.6002 61.5 44.3502 61.29 44.7802 60.7C44.8802 60.56 44.9602 60.4 45.0102 60.24C45.2202 59.59 45.0102 58.84 44.4202 58.41C44.2802 58.31 44.1202 58.23 43.9602 58.18C43.3102 57.97 42.5602 58.18 42.1302 58.77L42.2102 58.83H42.2002Z" fill="white"/>
<path d="M45.2301 60.5603C44.7301 59.8703 44.8801 58.9103 45.5701 58.4103C46.2601 57.9103 47.2201 58.0603 47.7201 58.7503C48.2201 59.4403 48.0701 60.4003 47.3801 60.9003C46.6901 61.4003 45.7301 61.2503 45.2301 60.5603Z" fill="#FF5E16"/>
<path d="M45.2301 60.5602L45.3101 60.5002C45.0301 60.1102 44.9701 59.6302 45.1101 59.2102C45.2001 58.9302 45.3801 58.6802 45.6301 58.4902C46.0201 58.2102 46.5001 58.1502 46.9201 58.2902C47.2001 58.3802 47.4501 58.5602 47.6401 58.8102C47.9201 59.2002 47.9801 59.6802 47.8401 60.1002C47.7501 60.3802 47.5701 60.6302 47.3201 60.8202C46.9301 61.1002 46.4501 61.1602 46.0301 61.0202C45.7501 60.9302 45.5001 60.7502 45.3101 60.5002L45.2301 60.5602L45.1501 60.6202C45.3601 60.9102 45.6501 61.1102 45.9701 61.2102C46.4501 61.3702 47.0001 61.3002 47.4401 60.9802C47.7301 60.7702 47.9301 60.4802 48.0301 60.1602C48.1901 59.6802 48.1201 59.1302 47.8001 58.6902C47.5901 58.4002 47.3001 58.2002 46.9801 58.1002C46.5001 57.9402 45.9501 58.0102 45.5101 58.3302C45.2201 58.5402 45.0201 58.8302 44.9201 59.1502C44.7601 59.6302 44.8301 60.1802 45.1501 60.6202L45.2301 60.5602Z" fill="white"/>
<path d="M47.8101 58.2205C47.0001 58.4805 46.1401 58.0405 45.8701 57.2305C45.6001 56.4205 46.0501 55.5605 46.8601 55.2905C47.6701 55.0305 48.5301 55.4705 48.8001 56.2805C49.0601 57.0905 48.6201 57.9505 47.8101 58.2205Z" fill="#FF5E16"/>
<path d="M47.8101 58.2199L47.7801 58.1299C47.4801 58.2299 47.1701 58.2199 46.8901 58.1299C46.4701 57.9899 46.1101 57.6599 45.9601 57.2099C45.8601 56.9099 45.8701 56.5999 45.9601 56.3199C46.1001 55.8999 46.4301 55.5399 46.8801 55.3899C47.1801 55.2899 47.4901 55.2999 47.7701 55.3899C48.1901 55.5299 48.5501 55.8599 48.7001 56.3099C48.8001 56.6099 48.7901 56.9199 48.7001 57.1999C48.5601 57.6199 48.2301 57.9799 47.7801 58.1299L47.8101 58.2199L47.8401 58.3099C48.3601 58.1399 48.7301 57.7399 48.8901 57.2599C48.9901 56.9399 49.0001 56.5899 48.8901 56.2499C48.7201 55.7299 48.3201 55.3599 47.8401 55.1999C47.5201 55.0999 47.1701 55.0899 46.8301 55.1999C46.3101 55.3699 45.9401 55.7699 45.7801 56.2499C45.6801 56.5699 45.6701 56.9199 45.7801 57.2599C45.9501 57.7799 46.3501 58.1499 46.8301 58.3099C47.1501 58.4099 47.5001 58.4199 47.8401 58.3099L47.8101 58.2199Z" fill="white"/>
<path d="M46.3802 55.04C46.3802 55.89 45.6902 56.58 44.8402 56.58C43.9902 56.58 43.3002 55.89 43.3002 55.04C43.3002 54.19 43.9902 53.5 44.8402 53.5C45.6902 53.5 46.3802 54.19 46.3802 55.04Z" fill="#FF5E16"/>
<path d="M46.3801 55.0402H46.2801C46.2801 55.2002 46.2601 55.3502 46.2101 55.4902C46.0201 56.0702 45.4801 56.4802 44.8401 56.4802C44.6801 56.4802 44.5301 56.4602 44.3901 56.4102C43.8101 56.2202 43.4001 55.6802 43.4001 55.0402C43.4001 54.8802 43.4201 54.7302 43.4701 54.5902C43.6601 54.0102 44.2001 53.6002 44.8401 53.6002C45.0001 53.6002 45.1501 53.6202 45.2901 53.6702C45.8701 53.8602 46.2801 54.4002 46.2801 55.0402H46.3801H46.4801C46.4801 54.3102 46.0101 53.7002 45.3501 53.4902C45.1901 53.4402 45.0201 53.4102 44.8401 53.4102C44.1101 53.4102 43.5001 53.8802 43.2901 54.5402C43.2401 54.7002 43.2101 54.8702 43.2101 55.0502C43.2101 55.7802 43.6801 56.3902 44.3401 56.6002C44.5001 56.6502 44.6701 56.6802 44.8501 56.6802C45.5801 56.6802 46.1901 56.2102 46.4001 55.5502C46.4501 55.3902 46.4801 55.2202 46.4801 55.0402H46.3801Z" fill="white"/>
<path d="M46.4501 57.6806C46.4501 58.5306 45.7601 59.2206 44.9101 59.2206C44.0601 59.2206 43.3701 58.5306 43.3701 57.6806C43.3701 56.8306 44.0601 56.1406 44.9101 56.1406C45.7601 56.1406 46.4501 56.8306 46.4501 57.6806Z" fill="#FFC116"/>
<path d="M46.4501 57.6798H46.3502C46.3502 57.8398 46.3302 57.9898 46.2802 58.1298C46.0902 58.7098 45.5502 59.1198 44.9102 59.1198C44.7502 59.1198 44.6002 59.0998 44.4602 59.0498C43.8802 58.8598 43.4702 58.3198 43.4702 57.6798C43.4702 57.5198 43.4902 57.3698 43.5402 57.2298C43.7302 56.6498 44.2702 56.2398 44.9102 56.2398C45.0702 56.2398 45.2202 56.2598 45.3602 56.3098C45.9402 56.4998 46.3502 57.0398 46.3502 57.6798H46.4501H46.5502C46.5502 56.9498 46.0802 56.3398 45.4202 56.1298C45.2602 56.0798 45.0902 56.0498 44.9102 56.0498C44.1802 56.0498 43.5702 56.5198 43.3602 57.1798C43.3102 57.3398 43.2802 57.5098 43.2802 57.6898C43.2802 58.4198 43.7502 59.0298 44.4102 59.2398C44.5702 59.2898 44.7402 59.3198 44.9202 59.3198C45.6502 59.3198 46.2602 58.8498 46.4702 58.1898C46.5202 58.0298 46.5502 57.8598 46.5502 57.6798H46.4501Z" fill="white"/>
<path d="M52.1301 30.7098C51.6201 31.0098 50.9701 30.9998 50.4701 30.6298C49.7801 30.1298 49.6301 29.1698 50.1301 28.4798C50.2201 28.3498 50.3301 28.2398 50.4501 28.1598C50.5001 28.1198 50.5601 28.0798 50.6201 28.0498H50.6301C50.7901 27.9598 50.9501 27.8998 51.1201 27.8698C51.1901 27.8498 51.2601 27.8398 51.3401 27.8398H51.3801C51.3801 27.8398 51.4001 27.9098 51.4101 27.9398C51.6701 28.8298 51.9101 29.7198 52.1301 30.6098C52.1301 30.6398 52.1501 30.6698 52.1501 30.6998L52.1301 30.7098Z" fill="#FF5E16"/>
<path d="M52.1502 30.8207C51.6102 31.1207 50.9302 31.1007 50.4102 30.7107C49.6802 30.1807 49.5202 29.1607 50.0502 28.4307C50.1302 28.3307 50.2102 28.2407 50.3002 28.1707C50.3402 28.1307 50.3802 28.1007 50.4202 28.0707C50.4702 28.0307 50.5302 28.0007 50.5902 27.9607C50.7502 27.8707 50.9202 27.8007 51.1002 27.7807C51.1602 27.7607 51.2302 27.7607 51.3002 27.7607C51.3202 27.7607 51.3302 27.7607 51.3502 27.7607C51.3502 27.7907 51.3602 27.8107 51.3702 27.8307C51.3702 27.8407 51.3702 27.8507 51.3702 27.8507C51.3802 27.8807 51.3902 27.9207 51.4002 27.9507C51.3202 27.9507 51.2402 27.9507 51.1602 27.9707H51.1502C50.9702 28.0007 50.8102 28.0607 50.6602 28.1507C50.4902 28.2507 50.3402 28.3807 50.2202 28.5507C49.9802 28.8707 49.9002 29.2607 49.9602 29.6207C50.0202 29.9807 50.2102 30.3307 50.5302 30.5607C50.8502 30.7907 51.2402 30.8807 51.6002 30.8207C51.7802 30.7907 51.9602 30.7307 52.1202 30.6307C52.1202 30.6607 52.1402 30.6907 52.1402 30.7207C52.1502 30.7507 52.1602 30.7907 52.1602 30.8207H52.1502Z" fill="white"/>
<path d="M51.3101 27.6606C51.3101 27.6606 51.3201 27.7006 51.3301 27.7206C51.3201 27.7406 51.3001 27.7506 51.2901 27.7506C51.2301 27.8006 51.1701 27.8406 51.1101 27.8706C50.9501 27.9606 50.7901 28.0206 50.6201 28.0506H50.6101C50.5501 28.0606 50.4801 28.0706 50.4101 28.0706C50.2401 28.0806 50.0601 28.0506 49.8901 28.0006C49.0801 27.7406 48.6401 26.8706 48.9101 26.0606C49.1301 25.3706 49.8001 24.9506 50.4801 25.0106C50.4901 25.0506 50.5001 25.0806 50.5101 25.1106C50.7901 25.9506 51.0601 26.7906 51.3001 27.6306C51.3001 27.6306 51.3001 27.6506 51.3001 27.6606H51.3101Z" fill="#FF5E16"/>
<path d="M51.3401 27.7503C51.3401 27.7503 51.3501 27.8003 51.3601 27.8203C51.3501 27.8303 51.3401 27.8403 51.3301 27.8403C51.2801 27.8803 51.2201 27.9203 51.1501 27.9603C50.9901 28.0503 50.8201 28.1003 50.6501 28.1403C50.5901 28.1603 50.5201 28.1603 50.4501 28.1603C50.4001 28.1603 50.3501 28.1603 50.3001 28.1603C50.1601 28.1603 50.0101 28.1303 49.8701 28.0903C49.7001 28.0403 49.5501 27.9603 49.4101 27.8603C48.8501 27.4503 48.6001 26.7303 48.8201 26.0303C48.8701 25.8603 48.9501 25.7103 49.0501 25.5703C49.3701 25.1303 49.9001 24.8703 50.4501 24.9103L50.4801 25.0103C50.4801 25.0103 50.5001 25.0803 50.5101 25.1103C50.0001 25.0503 49.5001 25.2803 49.2001 25.6903C49.1101 25.8103 49.0401 25.9403 49.0001 26.0903C48.8001 26.6903 49.0301 27.3403 49.5201 27.7003C49.6401 27.7903 49.7701 27.8603 49.9201 27.9103C50.1401 27.9803 50.3601 28.0003 50.5701 27.9603C50.7501 27.9303 50.9201 27.8703 51.0801 27.7803C51.1601 27.7403 51.2201 27.6803 51.2901 27.6303C51.2901 27.6303 51.2901 27.6503 51.2901 27.6603C51.2901 27.6803 51.3001 27.7003 51.3101 27.7203C51.3101 27.7303 51.3101 27.7403 51.3201 27.7503H51.3401Z" fill="white"/>
<path d="M26.7301 13.3103C26.2301 12.6203 26.3801 11.6603 27.0701 11.1603C27.7601 10.6603 28.7201 10.8103 29.2201 11.5003C29.7201 12.1903 29.5701 13.1503 28.8801 13.6503C28.1901 14.1503 27.2301 14.0003 26.7301 13.3103Z" fill="#FF5E16"/>
<path d="M26.73 13.3098L26.81 13.2498C26.58 12.9298 26.5 12.5398 26.55 12.1798C26.61 11.8198 26.8 11.4698 27.13 11.2398C27.45 11.0098 27.84 10.9298 28.2 10.9798C28.56 11.0398 28.91 11.2298 29.14 11.5598C29.37 11.8798 29.45 12.2698 29.4 12.6298C29.34 12.9898 29.15 13.3398 28.82 13.5698C28.5 13.7998 28.11 13.8798 27.75 13.8298C27.39 13.7698 27.04 13.5798 26.81 13.2498L26.73 13.3098L26.65 13.3698C27.18 14.0998 28.2 14.2598 28.93 13.7298C29.66 13.1998 29.82 12.1798 29.29 11.4498C28.76 10.7198 27.74 10.5598 27.01 11.0898C26.28 11.6198 26.12 12.6398 26.65 13.3698L26.73 13.3098Z" fill="white"/>
<path d="M29.31 10.9705C28.5 11.2305 27.64 10.7905 27.37 9.98051C27.1 9.17051 27.55 8.31051 28.36 8.04051C29.17 7.78051 30.03 8.22051 30.3 9.03051C30.56 9.84051 30.12 10.7005 29.31 10.9705Z" fill="#FF5E16"/>
<path d="M29.31 10.9698L29.28 10.8798C28.67 11.0798 28.03 10.8498 27.67 10.3598C27.58 10.2398 27.51 10.1098 27.47 9.95982C27.27 9.34982 27.5 8.70982 27.99 8.34982C28.11 8.25982 28.24 8.18982 28.39 8.14982C29 7.94982 29.64 8.17982 30 8.66982C30.09 8.78982 30.16 8.91982 30.2 9.06982C30.4 9.67982 30.17 10.3198 29.68 10.6798C29.56 10.7698 29.43 10.8398 29.28 10.8798L29.31 10.9698L29.34 11.0598C29.51 11.0098 29.66 10.9298 29.8 10.8298C30.36 10.4298 30.62 9.68982 30.39 8.99982C30.34 8.82982 30.26 8.67982 30.16 8.53982C29.76 7.97982 29.02 7.71982 28.33 7.94982C28.16 7.99982 28.01 8.07982 27.87 8.17982C27.31 8.57982 27.05 9.31982 27.28 10.0098C27.33 10.1798 27.41 10.3298 27.51 10.4698C27.91 11.0298 28.65 11.2898 29.34 11.0598L29.31 10.9698Z" fill="white"/>
<path d="M27.8901 7.79C27.8901 8.64 27.2001 9.33 26.3501 9.33C25.5001 9.33 24.8101 8.64 24.8101 7.79C24.8101 6.94 25.5001 6.25 26.3501 6.25C27.2001 6.25 27.8901 6.94 27.8901 7.79Z" fill="#FF5E16"/>
<path d="M27.8901 7.79016H27.7901C27.7901 8.27016 27.5601 8.69016 27.2001 8.96016C26.9601 9.13016 26.6701 9.23016 26.3501 9.23016C25.8701 9.23016 25.4501 9.00016 25.1801 8.64016C25.0101 8.40016 24.9101 8.11016 24.9101 7.79016C24.9101 7.31016 25.1401 6.89016 25.5001 6.62016C25.7401 6.45016 26.0301 6.35016 26.3501 6.35016C26.8301 6.35016 27.2501 6.58016 27.5201 6.94016C27.6901 7.18016 27.7901 7.47016 27.7901 7.79016H27.8901H27.9901C27.9901 7.43016 27.8701 7.10016 27.6801 6.83016C27.3801 6.42016 26.9001 6.16016 26.3601 6.16016C26.0001 6.16016 25.6701 6.28016 25.4001 6.47016C24.9901 6.77016 24.7301 7.25016 24.7301 7.79016C24.7301 8.15016 24.8501 8.48016 25.0401 8.75016C25.3401 9.16016 25.8201 9.42016 26.3601 9.42016C26.7201 9.42016 27.0501 9.30016 27.3201 9.11016C27.7301 8.81016 27.9901 8.33016 27.9901 7.79016H27.8901Z" fill="white"/>
<path d="M24.4301 8.1704C25.2401 8.4304 25.6801 9.3004 25.4201 10.1104C25.1601 10.9204 24.2901 11.3604 23.4801 11.1004C22.6701 10.8404 22.2301 9.9704 22.4901 9.1604C22.7501 8.3504 23.6201 7.9104 24.4301 8.1704Z" fill="#FF5E16"/>
<path d="M24.43 8.17046L24.4 8.26046C24.7 8.36046 24.95 8.54046 25.12 8.78046C25.38 9.14046 25.47 9.62046 25.33 10.0705C25.23 10.3705 25.05 10.6205 24.81 10.7905C24.45 11.0505 23.97 11.1405 23.52 11.0005C23.22 10.9005 22.97 10.7205 22.8 10.4805C22.54 10.1205 22.45 9.64046 22.59 9.19046C22.69 8.89046 22.87 8.64046 23.11 8.47046C23.47 8.21046 23.95 8.12046 24.4 8.26046L24.43 8.17046L24.46 8.08046C23.94 7.91046 23.4 8.02046 22.99 8.31046C22.72 8.51046 22.51 8.79046 22.4 9.13046C22.23 9.65046 22.34 10.1905 22.63 10.6005C22.83 10.8705 23.11 11.0805 23.45 11.1905C23.97 11.3605 24.51 11.2505 24.92 10.9605C25.19 10.7605 25.4 10.4805 25.51 10.1405C25.68 9.62046 25.57 9.08046 25.28 8.67046C25.08 8.40046 24.8 8.19046 24.46 8.08046L24.43 8.17046Z" fill="white"/>
<path d="M23.7101 11.5804C24.2101 10.8904 25.1701 10.7404 25.8601 11.2404C26.5501 11.7404 26.7001 12.7004 26.2001 13.3904C25.7001 14.0804 24.7401 14.2304 24.0501 13.7304C23.3601 13.2304 23.2101 12.2704 23.7101 11.5804Z" fill="#FF5E16"/>
<path d="M23.71 11.5798L23.79 11.6398C23.88 11.5098 23.99 11.4098 24.11 11.3198C24.6 10.9598 25.29 10.9398 25.8 11.3198C25.93 11.4098 26.03 11.5198 26.12 11.6398C26.48 12.1298 26.5 12.8098 26.12 13.3298C26.03 13.4598 25.92 13.5598 25.8 13.6498C25.31 14.0098 24.63 14.0298 24.11 13.6498C23.98 13.5598 23.88 13.4498 23.79 13.3298C23.43 12.8398 23.41 12.1598 23.79 11.6398L23.71 11.5798L23.63 11.5198C23.2 12.1098 23.22 12.8798 23.63 13.4398C23.73 13.5798 23.85 13.6998 23.99 13.7998C24.58 14.2298 25.35 14.2098 25.91 13.7998C26.05 13.6998 26.17 13.5798 26.27 13.4398C26.7 12.8498 26.68 12.0798 26.27 11.5198C26.17 11.3798 26.05 11.2598 25.91 11.1598C25.32 10.7298 24.55 10.7498 23.99 11.1598C23.85 11.2598 23.73 11.3798 23.63 11.5198L23.71 11.5798Z" fill="white"/>
<path d="M25.2001 9.3997C25.7001 8.7097 26.6601 8.5597 27.3501 9.0597C28.0401 9.5597 28.1901 10.5197 27.6901 11.2097C27.1901 11.8997 26.2301 12.0497 25.5401 11.5497C24.8501 11.0497 24.7001 10.0897 25.2001 9.3997Z" fill="#FFC116"/>
<path d="M25.2001 9.40008L25.2801 9.46008C25.3701 9.33008 25.4801 9.23008 25.6001 9.14008C26.0901 8.78008 26.7701 8.76008 27.2901 9.14008C27.4201 9.23008 27.5201 9.34008 27.6101 9.46008C27.9701 9.95008 27.9901 10.6301 27.6101 11.1501C27.5201 11.2801 27.4101 11.3801 27.2901 11.4701C26.8001 11.8301 26.1201 11.8501 25.6001 11.4701C25.4701 11.3801 25.3701 11.2701 25.2801 11.1501C24.9201 10.6601 24.9001 9.98008 25.2801 9.46008L25.2001 9.40008L25.1201 9.34008C24.6901 9.93008 24.7101 10.7001 25.1201 11.2601C25.2201 11.4001 25.3401 11.5201 25.4801 11.6201C26.0701 12.0501 26.8401 12.0301 27.4001 11.6201C27.5401 11.5201 27.6601 11.4001 27.7601 11.2601C28.1901 10.6701 28.1701 9.90008 27.7601 9.34008C27.6601 9.20008 27.5401 9.08008 27.4001 8.98008C26.8101 8.55008 26.0401 8.57008 25.4801 8.98008C25.3401 9.08008 25.2201 9.20008 25.1201 9.34008L25.2001 9.40008Z" fill="white"/>
<path d="M5.07011 30.8602C4.92011 30.9102 4.78011 30.9302 4.63011 30.9302C4.55011 30.9302 4.49011 30.9302 4.42011 30.9102C4.24011 30.8902 4.07012 30.8402 3.91012 30.7602C3.85012 30.7302 3.79011 30.7002 3.74011 30.6502C3.74011 30.6502 3.72011 30.6402 3.71011 30.6302C3.68011 30.6102 3.65012 30.5902 3.62012 30.5602C3.59012 30.5402 3.56011 30.5202 3.53011 30.4902C3.41011 30.3802 3.32011 30.2502 3.24011 30.1002C3.25011 30.0502 3.27011 30.0002 3.28011 29.9602C3.32011 29.8202 3.35012 29.6702 3.40012 29.5202C3.41012 29.4802 3.42011 29.4302 3.43011 29.3902C3.44011 29.3502 3.45011 29.3002 3.46011 29.2602C3.56011 28.9202 3.65011 28.5702 3.75011 28.2302C3.76011 28.1802 3.77012 28.1402 3.79012 28.0902C3.89012 28.0202 4.00012 27.9702 4.12012 27.9302C4.93012 27.6702 5.80011 28.1102 6.06011 28.9202C6.32011 29.7202 5.88012 30.5902 5.08012 30.8502L5.07011 30.8602Z" fill="#FF5E16"/>
<path d="M6.15021 28.9004C5.87021 28.0404 4.9502 27.5704 4.0902 27.8504C3.9902 27.8804 3.90021 27.9204 3.82021 27.9704C3.80021 28.0204 3.7902 28.0604 3.7802 28.1004C3.7602 28.1504 3.7502 28.1904 3.7402 28.2404C3.8602 28.1504 4.00021 28.0804 4.15021 28.0304C4.53021 27.9104 4.92021 27.9504 5.25021 28.1204C5.58021 28.2904 5.84021 28.5704 5.97021 28.9604C6.10021 29.3504 6.0502 29.7304 5.8802 30.0604C5.7102 30.3904 5.42021 30.6504 5.04021 30.7804C4.84021 30.8404 4.64021 30.8604 4.46021 30.8404C4.28021 30.8304 4.1002 30.7804 3.9502 30.7004C3.9502 30.7004 3.94021 30.7004 3.93021 30.6904C3.86021 30.6504 3.79021 30.6004 3.73021 30.5604C3.70021 30.5404 3.67021 30.5104 3.64021 30.4904C3.61021 30.4704 3.58021 30.4404 3.55021 30.4104C3.44021 30.2904 3.3502 30.1504 3.2802 30.0004C3.2702 30.0504 3.2502 30.1004 3.2402 30.1404C3.2302 30.1804 3.22021 30.2304 3.21021 30.2704C3.29021 30.4104 3.39021 30.5304 3.50021 30.6304C3.53021 30.6604 3.5502 30.6804 3.5902 30.7004C3.5902 30.7004 3.6402 30.7504 3.6702 30.7704C3.6802 30.7704 3.70021 30.7904 3.71021 30.7904C3.77021 30.8304 3.83021 30.8704 3.89021 30.9004C4.05021 30.9804 4.22021 31.0304 4.40021 31.0504C4.46021 31.0704 4.54021 31.0704 4.61021 31.0704C4.66021 31.0704 4.71021 31.0704 4.75021 31.0604C4.87021 31.0504 4.9902 31.0304 5.1002 30.9904C5.9602 30.7104 6.43021 29.7904 6.15021 28.9304V28.9004Z" fill="white"/>
<path d="M4.64016 33.5503C3.97016 34.0403 3.04016 33.9003 2.54016 33.2503C2.54016 33.2203 2.54016 33.1903 2.56016 33.1603C2.56016 33.1503 2.56016 33.1303 2.56016 33.1203C2.66016 32.6303 2.76016 32.1503 2.88016 31.6603C2.88016 31.6203 2.90016 31.5703 2.91016 31.5303C2.92016 31.4903 2.93016 31.4403 2.94016 31.4003C2.96016 31.2903 2.99016 31.1803 3.02016 31.0603C3.02016 31.0203 3.04016 30.9703 3.05016 30.9303C3.17016 30.8703 3.31016 30.8203 3.44016 30.8003C3.48016 30.7903 3.52016 30.7803 3.56016 30.7803C3.60016 30.7803 3.63016 30.7803 3.67016 30.7803C3.69016 30.7803 3.70016 30.7803 3.71016 30.7803C3.78016 30.7803 3.85016 30.7803 3.91016 30.7903C4.09016 30.8103 4.26016 30.8603 4.42016 30.9403C4.48016 30.9703 4.54016 31.0103 4.60016 31.0503C4.74016 31.1503 4.87016 31.2703 4.97016 31.4103C5.47016 32.1003 5.32016 33.0503 4.63016 33.5603L4.64016 33.5503Z" fill="#FF5E16"/>
<path d="M3.70014 30.7604C3.70014 30.7604 3.67015 30.7504 3.66015 30.7404C3.66015 30.7404 3.66015 30.7504 3.66015 30.7604C3.63015 30.7604 3.59015 30.7604 3.55015 30.7604C3.53015 30.8004 3.52015 30.8304 3.51015 30.8604C3.55015 30.8604 3.58015 30.8504 3.62015 30.8604C3.71015 30.8404 3.80014 30.8504 3.88014 30.8604C3.82014 30.8304 3.76014 30.8004 3.70014 30.7504V30.7604ZM5.29015 31.7904C5.24015 31.6304 5.16014 31.4804 5.06014 31.3404C4.97014 31.2204 4.86014 31.1104 4.75014 31.0204C4.71014 30.9804 4.68014 30.9604 4.64014 30.9304C4.59014 30.8904 4.53014 30.8604 4.46014 30.8204C4.29014 30.7404 4.11015 30.6904 3.93015 30.6604C3.87015 30.6604 3.81014 30.6504 3.74014 30.6504C3.74014 30.6504 3.71014 30.6504 3.70014 30.6504C3.66014 30.6504 3.63014 30.6504 3.60014 30.6504C3.56014 30.6504 3.53014 30.6504 3.49014 30.6604C3.41014 30.6804 3.33014 30.6904 3.25014 30.7204C3.20014 30.7404 3.14014 30.7604 3.09014 30.7804C3.07014 30.8204 3.07014 30.8604 3.06014 30.9004C3.04014 30.9404 3.03014 30.9904 3.03014 31.0304C3.12014 30.9804 3.21014 30.9304 3.31014 30.9004C3.34014 30.8904 3.37015 30.8804 3.40015 30.8804C3.44015 30.8604 3.49014 30.8504 3.53014 30.8504C3.57014 30.8504 3.60014 30.8404 3.64014 30.8504C3.73014 30.8304 3.82015 30.8404 3.90015 30.8504C4.08015 30.8704 4.25015 30.9104 4.41015 31.0004C4.60015 31.1004 4.78015 31.2504 4.91015 31.4304C5.00015 31.5604 5.07015 31.6904 5.12015 31.8304C5.31015 32.4104 5.12014 33.0704 4.60014 33.4404C4.47014 33.5304 4.34014 33.6004 4.20014 33.6404C3.62014 33.8304 2.96014 33.6404 2.59014 33.1204C2.59014 33.1204 2.58014 33.1004 2.57014 33.1004C2.57014 33.1104 2.57014 33.1304 2.57014 33.1404C2.56014 33.1704 2.55015 33.2004 2.55015 33.2304C2.54015 33.2704 2.53014 33.3204 2.52014 33.3604C2.96014 33.8604 3.64014 34.0304 4.25014 33.8404C4.41014 33.7904 4.57014 33.7104 4.70014 33.6004C5.29014 33.1704 5.51015 32.4304 5.29015 31.7704V31.7904ZM3.70014 30.7604C3.70014 30.7604 3.67015 30.7504 3.66015 30.7404C3.66015 30.7404 3.66015 30.7504 3.66015 30.7604C3.63015 30.7604 3.59015 30.7604 3.55015 30.7604C3.53015 30.8004 3.52015 30.8304 3.51015 30.8604C3.55015 30.8604 3.58015 30.8504 3.62015 30.8604C3.71015 30.8404 3.80014 30.8504 3.88014 30.8604C3.82014 30.8304 3.76014 30.8004 3.70014 30.7504V30.7604Z" fill="white"/>
<path d="M3.63014 30.4702C3.63014 30.4702 3.62015 30.5402 3.61015 30.5802C3.61015 30.6202 3.59015 30.6502 3.58015 30.6802C3.58015 30.6802 3.56015 30.7502 3.55015 30.7802C3.53015 30.8202 3.52015 30.8502 3.51015 30.8802C3.40015 31.1002 3.24014 31.3002 3.02014 31.4602C2.98014 31.4902 2.94015 31.5102 2.90015 31.5302C2.91015 31.4902 2.92015 31.4402 2.93015 31.4002C2.95015 31.2902 2.98015 31.1802 3.01015 31.0602C3.01015 31.0202 3.03015 30.9702 3.04015 30.9302C3.04015 30.8902 3.05014 30.8502 3.07014 30.8102C3.11014 30.6202 3.16014 30.4402 3.20014 30.2502C3.21014 30.2102 3.22015 30.1602 3.23015 30.1202C3.24015 30.0702 3.26014 30.0202 3.27014 29.9802C3.31014 29.8402 3.34014 29.6902 3.39014 29.5402C3.40014 29.5002 3.41014 29.4502 3.42014 29.4102C3.63014 29.7402 3.69014 30.1202 3.63014 30.4802V30.4702Z" fill="#FFC116"/>
<path d="M3.72013 30.5405C3.72013 30.5405 3.71013 30.6105 3.70013 30.6405C3.70013 30.6505 3.70013 30.6605 3.69013 30.6705C3.69013 30.6905 3.68013 30.7205 3.67013 30.7405C3.67013 30.7405 3.67013 30.7505 3.67013 30.7605C3.65013 30.7905 3.64013 30.8305 3.63013 30.8605C3.52013 31.1205 3.34013 31.3505 3.09013 31.5205C3.02013 31.5705 2.95013 31.6205 2.88013 31.6505C2.88013 31.6105 2.90013 31.5605 2.91013 31.5205C2.92013 31.4805 2.93013 31.4305 2.94013 31.3905C2.95013 31.3905 2.97013 31.3805 2.98013 31.3705C3.16013 31.2405 3.29013 31.0805 3.39013 30.9005C3.41013 30.8605 3.43013 30.8305 3.45013 30.7905C3.47013 30.7505 3.48013 30.7205 3.49013 30.6805C3.51013 30.6505 3.51013 30.6305 3.52013 30.6005C3.53013 30.5705 3.54013 30.5305 3.55013 30.5005C3.56013 30.4605 3.57013 30.4205 3.57013 30.3805C3.60013 30.1705 3.57013 29.9605 3.51013 29.7505C3.49013 29.6805 3.46013 29.5905 3.41013 29.5305C3.42013 29.4905 3.43013 29.4405 3.44013 29.4005C3.45013 29.3605 3.46013 29.3105 3.47013 29.2705C3.57013 29.4105 3.64013 29.5505 3.69013 29.7005C3.78013 29.9705 3.79013 30.2605 3.73013 30.5405H3.72013Z" fill="white"/>
<path d="M13.8502 18.9596C15.0541 18.9596 16.0302 17.9836 16.0302 16.7796C16.0302 15.5756 15.0541 14.5996 13.8502 14.5996C12.6462 14.5996 11.6702 15.5756 11.6702 16.7796C11.6702 17.9836 12.6462 18.9596 13.8502 18.9596Z" fill="#72D126"/>
<path d="M11.0102 22.6199C11.6177 22.6199 12.1102 22.1274 12.1102 21.5199C12.1102 20.9124 11.6177 20.4199 11.0102 20.4199C10.4026 20.4199 9.91016 20.9124 9.91016 21.5199C9.91016 22.1274 10.4026 22.6199 11.0102 22.6199Z" fill="#F9FF54"/>
<path d="M4.34015 46.3795C5.54413 46.3795 6.52015 45.4035 6.52015 44.1995C6.52015 42.9956 5.54413 42.0195 4.34015 42.0195C3.13617 42.0195 2.16016 42.9956 2.16016 44.1995C2.16016 45.4035 3.13617 46.3795 4.34015 46.3795Z" fill="#72D126"/>
<path d="M7.96011 49.4695C8.56762 49.4695 9.0601 48.977 9.0601 48.3695C9.0601 47.762 8.56762 47.2695 7.96011 47.2695C7.35259 47.2695 6.86011 47.762 6.86011 48.3695C6.86011 48.977 7.35259 49.4695 7.96011 49.4695Z" fill="#F9FF54"/>
<path d="M27.4702 63.9C28.6741 63.9 29.6502 62.924 29.6502 61.72C29.6502 60.5161 28.6741 59.54 27.4702 59.54C26.2662 59.54 25.2902 60.5161 25.2902 61.72C25.2902 62.924 26.2662 63.9 27.4702 63.9Z" fill="#72D126"/>
<path d="M32.5502 60.66C33.1577 60.66 33.6502 60.1675 33.6502 59.56C33.6502 58.9524 33.1577 58.46 32.5502 58.46C31.9427 58.46 31.4502 58.9524 31.4502 59.56C31.4502 60.1675 31.9427 60.66 32.5502 60.66Z" fill="#F9FF54"/>
<path d="M51.2801 47.3092C52.4841 47.3092 53.4601 46.3332 53.4601 45.1292C53.4601 43.9252 52.4841 42.9492 51.2801 42.9492C50.0761 42.9492 49.1001 43.9252 49.1001 45.1292C49.1001 46.3332 50.0761 47.3092 51.2801 47.3092Z" fill="#72D126"/>
<path d="M50.8002 40.7293C51.4077 40.7293 51.9002 40.2368 51.9002 39.6293C51.9002 39.0218 51.4077 38.5293 50.8002 38.5293C50.1927 38.5293 49.7002 39.0218 49.7002 39.6293C49.7002 40.2368 50.1927 40.7293 50.8002 40.7293Z" fill="#F9FF54"/>
<path d="M42.8702 19.5397C44.0742 19.5397 45.0502 18.5637 45.0502 17.3597C45.0502 16.1557 44.0742 15.1797 42.8702 15.1797C41.6662 15.1797 40.6902 16.1557 40.6902 17.3597C40.6902 18.5637 41.6662 19.5397 42.8702 19.5397Z" fill="#72D126"/>
<path d="M37.4901 17.2195C38.0976 17.2195 38.5901 16.727 38.5901 16.1195C38.5901 15.512 38.0976 15.0195 37.4901 15.0195C36.8826 15.0195 36.3901 15.512 36.3901 16.1195C36.3901 16.727 36.8826 17.2195 37.4901 17.2195Z" fill="#F9FF54"/>
<path opacity="0.32" d="M52.5402 32.54C47.9002 38.5 42.3302 42.12 36.4902 42.12C15.3001 42.13 19.2202 20.99 16.5302 5.13C16.6302 5.01 16.7202 4.9 16.8202 4.78C20.1202 1.79 23.7702 0 27.6102 0C39.2302 0 49.0902 16.37 52.5402 32.54Z" fill="white"/>
<path opacity="0.23" d="M40.0384 21.6581C43.3864 19.7251 43.9784 14.4824 41.3606 9.9482C38.7427 5.41399 33.9064 3.30528 30.5584 5.23828C27.2103 7.17128 26.6184 12.414 29.2362 16.9482C31.854 21.4824 36.6903 23.5911 40.0384 21.6581Z" fill="white"/>
<g style="mix-blend-mode:multiply" opacity="0.24">
<path d="M49.4801 59.9095C44.7801 66.0395 36.7401 67.9995 27.6101 67.9995C13.1001 67.9995 1.3501 63.0495 1.3501 44.2695C1.3501 32.4195 6.0301 17.9095 13.1201 8.79953C14.2901 7.29953 15.5301 5.93953 16.8201 4.76953C16.7201 4.88953 16.6201 5.00953 16.5301 5.11953C15.3801 6.48953 14.2901 8.01953 13.2801 9.63953C7.6201 18.6895 4.0301 31.1195 4.0301 41.4995C4.0301 60.2695 15.7801 65.2295 30.2901 65.2295C37.8701 65.2295 44.7001 63.8795 49.4901 59.8995L49.4801 59.9095Z" fill="#232740"/>
</g>
</svg>
