<svg width="66" height="120" viewBox="0 0 66 120" fill="none" xmlns="http://www.w3.org/2000/svg">
<path d="M47.0676 87.3196C47.0876 88.3895 47.0476 89.4394 46.9576 90.4393C46.9576 90.4892 46.9576 90.5392 46.9476 90.5892C46.5077 95.6987 44.9679 99.8182 43.598 101.078C43.1781 101.468 42.2782 101.688 41.1584 101.818C37.6188 102.218 31.8695 101.598 31.8695 101.598C31.8695 101.598 22.7107 103.348 20.4009 100.208C20.071 99.7682 19.811 99.2083 19.611 98.5684C18.7612 95.9187 18.8711 91.9691 19.0211 89.7293C19.0911 88.6994 19.1711 88.0295 19.1711 88.0295C19.1711 88.0295 21.7208 87.2196 25.2703 86.2897C33.4093 84.1699 46.8376 81.4102 47.0476 86.2697C47.0676 86.6297 47.0676 86.9796 47.0676 87.3296V87.3196Z" fill="#AD4834"/>
<g style="mix-blend-mode:multiply">
<path d="M30.0197 88.0698C30.0197 88.0698 32.1695 89.5396 32.0395 93.2092C31.9395 96.0389 31.6995 99.5385 31.8695 101.588C31.8695 101.588 32.1195 99.9285 32.2295 97.7587C32.3894 94.589 32.5694 90.3495 33.7293 88.8397C35.3791 86.6899 30.4897 85.0301 30.0297 88.0698H30.0197Z" fill="#D1CAC3"/>
</g>
<g style="mix-blend-mode:multiply">
<path d="M47.0676 87.3199C47.0876 88.3898 47.0476 89.4396 46.9576 90.4395C46.9576 90.4395 46.9476 90.4895 46.9476 90.5895C46.5077 95.699 44.9679 99.8185 43.598 101.078C43.1781 101.468 42.2782 101.688 41.1584 101.818C38.1687 101.618 32.7794 100.768 32.8694 99.0486C32.9094 98.2487 34.5692 97.2388 35.799 97.8387C35.799 97.8387 35.879 97.5588 36.6289 97.2988C37.5788 96.9588 37.7688 97.6987 37.7688 97.6987C38.2687 97.3288 38.5487 96.4089 39.7685 97.1588C39.9285 97.2588 39.9485 96.2489 41.7783 96.5389C43.658 96.8388 42.5082 91.3494 42.2382 91.2294C41.5183 90.9195 41.2383 90.9195 41.1883 91.0495C41.1384 91.1795 39.9785 91.6894 39.3286 91.7094C38.6887 91.7394 38.1187 91.3794 37.2788 90.5995C36.4289 89.8296 36.8389 90.6995 36.219 90.8395C35.599 90.9695 34.7791 91.4294 34.0692 91.6594C33.3593 91.8894 33.1594 91.3294 32.7494 90.9395C32.3495 90.5495 31.7395 90.8895 30.9396 91.2694C30.1397 91.6494 29.5998 91.5494 28.6499 91.4994C27.7 91.4494 28.09 91.1695 27.4701 90.7995C26.8501 90.4395 26.4702 91.1395 25.1804 91.2894C23.8905 91.4494 24.0005 90.7795 23.2206 90.1096C22.4507 89.4396 20.5209 92.9393 22.6607 98.7186C22.8806 99.2986 21.1709 98.9386 19.611 98.5487C18.7612 95.8989 18.8711 91.9494 19.0211 89.7096C19.0911 88.6797 19.1711 88.0098 19.1711 88.0098C19.1711 88.0098 21.7208 87.1999 25.2703 86.27L32.0695 85.79L46.7576 86.4C46.7576 86.4 46.8876 86.7799 47.0676 87.3099V87.3199Z" fill="#D1CAC3"/>
</g>
<path d="M31.6495 116.196C31.6495 116.706 31.5696 117.266 31.3196 117.816C31.0096 118.466 30.3697 118.886 29.5198 119.176C28.3 119.596 26.6602 119.746 24.9804 119.926C22.1507 120.236 19.0411 119.536 18.6112 118.616C18.3312 118.016 18.3412 117.436 18.3912 117.096C18.4112 116.906 18.4512 116.796 18.4512 116.796L30.6797 114.616L31.3096 114.506C31.3096 114.506 31.6295 115.246 31.6395 116.206L31.6495 116.196Z" fill="#8775A1"/>
<path d="M31.6496 116.196C31.6296 116.296 31.6196 116.386 31.5996 116.466C31.4496 117.116 30.8697 117.656 30.0198 118.076C26.7402 119.716 19.5411 119.626 18.6812 117.806C18.5712 117.566 18.4712 117.326 18.3912 117.096C17.6913 115.057 18.2012 113.347 18.9811 112.077C18.9811 112.077 18.9911 112.057 18.9911 112.047C19.0011 112.027 19.0311 111.997 19.0511 111.967C19.861 110.687 20.9209 109.887 21.2209 109.677C21.2409 109.657 21.2709 109.637 21.3008 109.627C20.6909 108.097 20.301 106.687 20.051 105.458C19.821 104.318 19.721 103.358 19.6711 102.608C19.6111 101.588 19.6611 100.998 19.6611 100.998C21.3308 101.828 22.9706 102.278 24.4705 102.468C25.5203 102.598 26.4902 102.618 27.3801 102.568C30.0698 102.408 31.8595 101.618 31.8595 101.618C31.8595 101.618 31.8695 102.508 31.8795 103.858C31.9095 107.437 31.9295 114.237 31.6396 116.206L31.6496 116.196Z" fill="#1E004A"/>
<g style="mix-blend-mode:multiply" opacity="0.59">
<path d="M31.6496 116.195C31.6496 116.705 31.5696 117.265 31.3196 117.815C31.0096 118.465 30.3697 118.885 29.5198 119.175C29.7098 118.865 29.8798 118.485 30.0198 118.075C30.3797 117.045 30.5797 115.795 30.6797 114.606C30.7997 113.346 30.8197 112.156 30.8097 111.356C30.7897 109.696 29.9198 107.286 29.5498 106.327C29.4498 106.367 29.3099 106.406 29.1399 106.456C27.6201 106.896 28.6799 106.227 27.88 106.357C27.0801 106.486 26.5402 106.536 24.8804 106.407C23.2106 106.277 23.9505 105.557 22.1708 105.967C21.2809 106.177 20.551 105.817 20.051 105.427C19.821 104.287 19.7211 103.327 19.6711 102.577L24.4605 102.437L26.8202 102.367L27.3701 102.537L31.7796 103.907L31.8795 103.827C31.9095 107.406 31.9295 114.206 31.6396 116.175L31.6496 116.195Z" fill="#80798C"/>
</g>
<g style="mix-blend-mode:multiply">
<path d="M29.31 111.056C29.31 111.056 28.4401 109.766 26.0904 109.346C21.341 108.496 19.4912 111.366 19.0712 111.946C19.8811 110.666 20.941 109.866 21.241 109.656C21.261 109.636 21.291 109.616 21.321 109.606C23.3407 108.396 25.7404 108.946 27.3702 109.526C28.4801 109.926 29.32 111.056 29.32 111.056H29.31Z" fill="#8775A1"/>
</g>
<g style="mix-blend-mode:soft-light">
<path d="M19.5712 112.507C19.7112 112.717 20.1512 110.967 23.7007 110.617C25.1905 110.467 27.3603 110.697 28.5001 112.377C28.8901 112.937 28.9801 112.057 27.4602 110.887C25.9404 109.717 24.0107 109.547 22.5309 109.937C20.3511 110.527 19.2613 112.037 19.5612 112.507H19.5712Z" fill="#B69ED9"/>
</g>
<path d="M32.1194 104.636C31.7695 105.265 31.0396 105.655 29.9897 105.155C29.5498 104.945 29.3698 104.686 29.3398 104.656C29.3398 104.706 29.3098 104.995 28.6399 105.255C27.73 105.605 26.1902 105.585 25.9902 104.816C25.9902 104.816 24.7504 105.835 23.3805 104.766C23.3805 104.766 21.2608 105.645 20.9808 103.976C20.9808 103.976 19.551 103.946 19.0611 103.556C18.5611 103.156 18.7111 101.856 18.7111 101.856C18.7111 101.856 17.2213 101.726 17.3413 100.326C17.4413 99.2661 18.5211 99.4561 18.5211 99.3961C18.5211 99.3461 17.2313 98.7462 18.2112 97.4963C18.2312 97.4563 18.2512 97.4463 18.2512 97.4463C18.2712 97.4263 18.2912 97.4063 18.3012 97.3763C18.9811 96.6064 19.771 97.2863 19.771 97.2863C19.771 97.2863 19.931 96.8164 20.3009 96.6264C20.3009 96.6264 20.3043 96.6264 20.3109 96.6264C20.4909 96.5364 20.7109 96.5064 20.9808 96.6064C21.8407 96.9364 21.7507 97.8863 21.7507 97.8863C21.7507 97.8863 22.7106 96.5364 23.4305 97.1463C24.0405 97.6563 23.9505 98.0562 23.9105 98.1562C24.0105 97.9863 24.5404 97.1963 25.4103 97.5663C25.8902 97.7663 25.8102 98.3462 25.7802 98.5262C25.8502 98.2762 26.2202 97.2363 27.43 97.7363C28.03 97.9863 27.77 98.6162 27.73 98.7062C27.8 98.6062 28.4899 97.6463 29.4898 98.0562C30.5496 98.4962 30.5096 99.1961 30.5096 99.1961C30.5096 99.1961 30.6996 98.8262 31.0296 98.7862C31.2096 98.7662 31.4295 98.8362 31.6895 99.1161C31.7395 99.1761 31.7895 99.2361 31.8295 99.3061C31.8295 99.3061 31.8295 99.3061 31.8295 99.3161C32.0095 99.6261 32.0295 100.026 31.9495 100.486C31.8495 101.046 32.1294 100.596 32.2694 101.436C32.4194 102.266 32.1394 102.286 32.2494 102.926C32.3594 103.576 32.6094 103.686 32.0894 104.636H32.1194Z" fill="#CAE6EB"/>
<g style="mix-blend-mode:multiply" opacity="0.59">
<path d="M32.1194 104.636C31.7695 105.266 31.0396 105.656 29.9897 105.156C29.5498 104.946 29.3698 104.686 29.3398 104.656C29.3398 104.706 29.3098 104.996 28.6399 105.256C27.73 105.606 26.1902 105.586 25.9902 104.816C25.9902 104.816 24.7504 105.836 23.3805 104.766C23.3805 104.766 21.2608 105.646 20.9808 103.976C20.9808 103.976 19.551 103.946 19.0611 103.556C18.5611 103.156 18.7111 101.857 18.7111 101.857C18.7111 101.857 17.2213 101.727 17.3413 100.327C17.4413 99.2669 18.5211 99.4569 18.5211 99.3969C18.5211 99.3469 17.2313 98.7469 18.2112 97.4971C18.0812 97.687 17.7212 98.267 18.2512 98.7869C18.8811 99.4069 19.2211 99.4669 18.6111 99.7768C17.9912 100.087 17.3713 100.107 18.0112 100.717C18.6411 101.337 19.881 100.897 19.461 101.737C19.0411 102.577 18.8711 103.226 19.941 103.336C21.0008 103.436 21.7807 102.966 21.8107 103.636C21.8507 104.296 22.4107 104.816 23.3505 104.326C24.2704 103.846 24.6204 103.206 25.0203 103.846C25.4203 104.476 26.3702 104.376 26.8901 104.226C27.4 104.086 26.8401 105.426 27.92 104.596C28.9998 103.776 27.99 103.006 29.3198 103.556C29.7497 103.736 30.2897 104.446 30.4896 104.386C30.9096 104.266 31.3195 104.176 31.0596 103.616C30.6496 102.717 30.9796 102.397 31.1796 101.857C31.3895 101.317 30.7196 100.587 31.3495 100.297C31.8595 100.057 31.9395 99.6668 31.8595 99.3169C32.0394 99.6268 32.0594 100.027 31.9795 100.487C31.8795 101.047 32.1594 100.597 32.2994 101.437C32.4494 102.267 32.1694 102.287 32.2794 102.926C32.3894 103.576 32.6394 103.686 32.1194 104.636Z" fill="#BDD7DB"/>
</g>
<path d="M20.2609 98.8271C20.6109 98.9871 20.5709 97.9372 21.5708 98.4571C22.2207 98.7871 21.2808 98.8571 21.6908 99.187C22.1007 99.517 22.0607 98.9171 22.5407 99.457C23.0206 99.9969 22.9006 100.137 23.4905 100.227C24.0805 100.317 23.8705 98.8571 25.2103 99.647C25.4703 99.797 25.3903 100.617 26.0702 99.9469C26.7501 99.277 27.63 99.797 27.63 99.797C27.63 99.797 27.84 99.437 28.1799 99.877C28.5199 100.317 28.2299 99.067 28.9898 99.467C29.7498 99.867 29.8097 99.867 29.9997 100.217C30.1897 100.567 30.4097 100.357 30.6096 100.797C30.8096 101.237 30.3297 101.607 30.4097 101.897C30.4897 102.187 30.9896 102.567 29.6498 102.627C28.3099 102.687 28.1699 101.937 27.76 102.467C27.3501 102.997 26.7901 103.247 26.5402 102.997C25.8402 102.297 25.3203 103.197 24.8904 103.037C24.2704 102.797 24.2204 102.187 23.6905 102.617C23.0206 103.167 22.4607 103.027 22.1207 102.887C21.7807 102.747 21.7108 102.327 21.3008 102.257C20.8909 102.187 20.2109 102.677 20.5709 101.887C20.9309 101.097 20.3609 101.337 19.781 100.907C19.2011 100.477 20.011 100.337 19.681 99.727C19.531 99.447 19.731 98.6171 20.2609 98.8471V98.8271Z" fill="#D5F2F7"/>
<path d="M31.0496 98.7869C30.9896 98.8669 30.9496 99.0368 30.8296 99.2568C30.5996 99.6568 30.4896 99.3568 30.1797 99.1168C29.8697 98.8869 30.1797 98.9668 29.9997 98.6569C29.8197 98.3469 29.6098 98.7669 29.5298 98.6369C29.4498 98.4969 29.3498 98.4169 28.7999 98.2669C28.2499 98.1069 28.2899 98.4769 28.1799 98.7369C28.0599 98.9968 27.63 98.8969 27.58 98.8469C27.53 98.7969 27.5 98.6969 27.53 98.3969C27.55 98.0869 27.5 97.957 27.28 97.797C27.0601 97.647 26.7801 98.0669 26.7201 98.3269C26.6601 98.5769 25.7802 98.8469 25.5603 98.5569C25.3403 98.2669 25.6202 98.1969 25.6402 97.917C25.6602 97.637 25.4803 97.657 24.7904 97.747C24.1104 97.827 23.8405 98.3769 23.8405 98.3769C23.8405 98.3769 23.7305 98.1069 23.6305 97.757C23.5305 97.417 23.4305 97.527 22.9306 97.387C22.4406 97.257 22.4007 97.807 21.8807 98.1569C21.3508 98.5169 21.4808 97.717 21.4308 97.477C21.3808 97.237 21.4308 97.297 21.1308 97.107C20.8308 96.9171 20.8908 97.0471 20.7709 96.7771C20.6809 96.5671 20.5809 96.5371 20.3109 96.5971C20.4909 96.5071 20.7109 96.4771 20.9808 96.5771C21.8407 96.9071 21.7507 97.857 21.7507 97.857C21.7507 97.857 22.7106 96.5071 23.4305 97.117C24.0404 97.627 23.9505 98.0269 23.9105 98.1269C24.0105 97.957 24.5404 97.167 25.4103 97.537C25.8902 97.737 25.8102 98.3169 25.7802 98.4969C25.8502 98.2469 26.2202 97.207 27.43 97.707C28.0299 97.957 27.77 98.5869 27.73 98.6769C27.8 98.5769 28.4899 97.617 29.4898 98.0269C30.5496 98.4669 30.5096 99.1668 30.5096 99.1668C30.5096 99.1668 30.6996 98.7969 31.0296 98.7569L31.0496 98.7869Z" fill="#D5F2F7"/>
<path d="M32.1495 116.196C32.1495 116.706 32.2295 117.266 32.4795 117.816C32.7894 118.466 33.4293 118.886 34.2792 119.176C35.4991 119.596 37.1389 119.746 38.8187 119.926C41.6483 120.236 44.7579 119.536 45.1879 118.616C45.4678 118.016 45.4578 117.436 45.4078 117.096C45.3878 116.906 45.3479 116.796 45.3479 116.796L33.1194 114.616L32.4895 114.506C32.4895 114.506 32.1695 115.246 32.1595 116.206L32.1495 116.196Z" fill="#8775A1"/>
<path d="M32.1495 116.196C32.1695 116.296 32.1795 116.386 32.1995 116.466C32.3495 117.116 32.9294 117.656 33.7793 118.076C37.0589 119.716 44.258 119.626 45.1179 117.806C45.2279 117.566 45.3278 117.326 45.4078 117.096C46.1077 115.057 45.5978 113.347 44.8179 112.077C44.8179 112.077 44.8079 112.057 44.8079 112.047C44.7979 112.027 44.7679 111.997 44.7479 111.967C43.938 110.687 42.8782 109.887 42.5782 109.677C42.5582 109.657 42.5282 109.637 42.4982 109.627C43.1081 108.097 43.4981 106.687 43.748 105.458C43.978 104.318 44.078 103.358 44.128 102.608C44.188 101.588 44.138 100.998 44.138 100.998C42.4682 101.828 40.8284 102.278 39.3286 102.468C38.2787 102.598 37.3088 102.618 36.419 102.568C33.7293 102.408 31.9395 101.618 31.9395 101.618C31.9395 101.618 31.9295 102.508 31.9195 103.858C31.8895 107.437 31.8695 114.237 32.1595 116.206L32.1495 116.196Z" fill="#1E004A"/>
<g style="mix-blend-mode:multiply" opacity="0.59">
<path d="M32.1495 116.197C32.1495 116.707 32.2295 117.267 32.4794 117.817C32.7894 118.467 33.4293 118.887 34.2792 119.177C34.0892 118.867 33.9993 118.447 33.7793 118.077C33.0794 116.927 32.5494 116.687 32.4394 115.497C32.3195 114.237 32.4894 112.098 32.4394 111.308C32.2795 109.018 32.7694 107.118 33.1494 106.168C33.2493 106.208 33.8893 106.768 34.0592 106.818C35.1691 107.168 35.1091 106.248 35.909 106.368C36.7089 106.498 37.2488 106.548 38.9086 106.418C40.5784 106.288 39.8385 105.568 41.6183 105.978C42.5082 106.188 43.2381 105.828 43.738 105.438C43.968 104.298 44.068 103.339 44.118 102.589L39.3286 102.449L36.9689 102.379L36.4189 102.549L32.0095 103.918L31.9095 103.839C31.8795 107.418 31.8595 114.217 32.1495 116.187V116.197Z" fill="#80798C"/>
</g>
<g style="mix-blend-mode:multiply">
<path d="M34.4992 111.056C34.4992 111.056 35.3691 109.766 37.7188 109.346C42.4682 108.496 44.318 111.366 44.7379 111.946C43.928 110.666 42.8681 109.866 42.5682 109.656C42.5482 109.636 42.5182 109.616 42.4882 109.606C40.4684 108.396 38.0687 108.946 36.4389 109.526C35.3291 109.926 34.4892 111.056 34.4892 111.056H34.4992Z" fill="#8775A1"/>
</g>
<g style="mix-blend-mode:soft-light">
<path d="M44.2279 112.507C44.088 112.717 43.648 110.967 40.0985 110.617C38.6086 110.467 36.4389 110.697 35.2991 112.377C34.9091 112.937 34.8191 112.057 36.3389 110.887C37.8587 109.717 39.7885 109.547 41.2683 109.937C43.448 110.527 44.5379 112.037 44.2379 112.507H44.2279Z" fill="#B69ED9"/>
</g>
<path d="M31.6895 104.636C32.0394 105.265 32.7693 105.655 33.8192 105.155C34.2591 104.945 34.4391 104.686 34.4691 104.656C34.4691 104.706 34.4991 104.995 35.169 105.255C36.0789 105.605 37.6187 105.585 37.8187 104.816C37.8187 104.816 39.0585 105.835 40.4284 104.766C40.4284 104.766 42.5481 105.645 42.8281 103.976C42.8281 103.976 44.2579 103.946 44.7478 103.556C45.2478 103.156 45.0978 101.856 45.0978 101.856C45.0978 101.856 46.5876 101.726 46.4676 100.326C46.3676 99.2661 45.2878 99.4561 45.2878 99.3961C45.2878 99.3461 46.5776 98.7462 45.5977 97.4963C45.5777 97.4563 45.5577 97.4463 45.5577 97.4463C45.5377 97.4263 45.5177 97.4063 45.5077 97.3763C44.8278 96.6064 44.0379 97.2863 44.0379 97.2863C44.0379 97.2863 43.8779 96.8164 43.508 96.6264C43.508 96.6264 43.5047 96.6264 43.498 96.6264C43.318 96.5364 43.098 96.5064 42.8281 96.6064C41.9682 96.9364 42.0582 97.8863 42.0582 97.8863C42.0582 97.8863 41.0983 96.5364 40.3784 97.1463C39.7685 97.6563 39.8584 98.0562 39.8984 98.1562C39.7985 97.9863 39.2685 97.1963 38.3986 97.5663C37.9187 97.7663 37.9987 98.3462 38.0287 98.5262C37.9587 98.2762 37.5887 97.2363 36.3789 97.7363C35.779 97.9863 36.0389 98.6162 36.0789 98.7062C36.0089 98.6062 35.319 97.6463 34.3191 98.0562C33.2593 98.4962 33.2993 99.1961 33.2993 99.1961C33.2993 99.1961 33.1093 98.8262 32.7793 98.7862C32.5994 98.7662 32.3794 98.8362 32.1194 99.1161C32.0694 99.1761 32.0194 99.2361 31.9794 99.3061C31.9794 99.3061 31.9794 99.3061 31.9794 99.3161C31.7995 99.6261 31.7795 100.026 31.8594 100.486C31.9594 101.046 31.6795 100.596 31.5395 101.436C31.3895 102.266 31.6695 102.286 31.5595 102.926C31.4495 103.576 31.1995 103.686 31.7195 104.636H31.6895Z" fill="#CAE6EB"/>
<g style="mix-blend-mode:multiply" opacity="0.59">
<path d="M31.6894 104.636C32.0394 105.266 32.7693 105.656 33.8192 105.156C34.2591 104.946 34.4391 104.686 34.4691 104.656C34.4691 104.706 34.4991 104.996 35.169 105.256C36.0789 105.606 37.6187 105.586 37.8187 104.816C37.8187 104.816 39.0585 105.836 40.4283 104.766C40.4283 104.766 42.5481 105.646 42.8281 103.976C42.8281 103.976 44.2579 103.946 44.7478 103.556C45.2477 103.156 45.0978 101.857 45.0978 101.857C45.0978 101.857 46.5876 101.727 46.4676 100.327C46.4676 100.327 46.5176 100.667 45.8777 101.277C45.2477 101.897 43.9179 100.897 44.3479 101.727C44.7778 102.557 44.9378 103.216 43.8679 103.326C42.8081 103.426 42.0281 102.957 41.9982 103.626C41.9582 104.286 41.3982 104.806 40.4583 104.316C39.5385 103.836 39.4185 103.806 39.0185 104.436C38.6186 105.066 38.0286 104.316 37.5087 104.166C36.9988 104.026 37.1688 105.076 35.8989 104.586C35.509 104.436 35.069 103.876 34.4991 103.976C33.0793 104.216 33.5592 104.896 32.6793 104.476C31.8094 104.056 31.1395 104.256 31.5995 103.386C32.0694 102.507 31.9594 102.167 31.7594 101.627C31.5495 101.087 33.0993 100.597 32.4693 100.307C31.9594 100.067 31.8794 99.6769 31.9594 99.3269C31.7794 99.6369 31.7594 100.037 31.8394 100.497C31.9394 101.057 31.6594 100.607 31.5195 101.447C31.3695 102.277 31.6494 102.297 31.5395 102.937C31.4295 103.586 31.1795 103.696 31.6994 104.646L31.6894 104.636Z" fill="#CAE6EB"/>
</g>
<path d="M43.8579 98.4065C43.5779 98.5765 43.6079 97.7666 42.758 98.1965C42.2181 98.4765 42.5481 98.9765 42.2181 99.2264C41.8881 99.4764 41.5582 98.9765 41.1782 99.3664C40.7983 99.7564 41.2382 99.9563 40.7183 100.076C40.1984 100.196 40.1184 98.8465 39.2385 99.5864C39.0485 99.7464 39.0285 100.086 38.3786 99.7464C37.7287 99.4064 37.3687 100.356 37.3687 100.356C37.3687 100.356 37.1087 99.5664 36.5588 100.396C36.3288 100.736 36.5788 99.7164 35.8589 99.6464C35.319 99.5964 34.779 99.6464 34.759 100.676C34.759 100.956 34.0191 99.4264 33.3492 100.336C32.5993 101.346 34.0491 101.396 34.0091 101.576C33.9691 101.756 33.9791 102.746 35.159 102.626C36.3388 102.506 36.8788 101.756 36.8488 102.246C36.8088 102.926 37.9586 103.106 38.4586 102.496C38.9585 101.886 39.3085 102.556 39.6984 102.496C41.0583 102.276 40.4583 101.086 40.7283 101.556C41.1282 102.246 41.6382 102.146 41.9481 102.136C42.688 102.106 42.4281 100.976 42.708 101.216C43.008 101.476 43.7979 101.196 43.418 100.756C43.038 100.316 43.5879 100.726 44.0679 100.396C44.5478 100.066 44.1479 99.2464 44.6078 99.1364C44.9878 99.0464 45.0977 97.6866 43.8479 98.4265L43.8579 98.4065Z" fill="#D5F2F7"/>
<path d="M32.7493 98.7869C32.8093 98.8669 32.8493 99.0368 32.9693 99.2568C33.1993 99.6568 33.3093 99.3568 33.6192 99.1168C33.9292 98.8869 33.6192 98.9668 33.7992 98.6569C33.9792 98.3469 34.1891 98.7669 34.2691 98.6369C34.3491 98.4969 34.4491 98.4169 34.999 98.2669C35.549 98.1069 35.509 98.4769 35.619 98.7369C35.739 98.9968 36.1689 98.8969 36.2189 98.8469C36.2689 98.7969 36.2989 98.6969 36.2689 98.3969C36.2489 98.0869 36.2989 97.957 36.5189 97.797C36.7388 97.647 37.0188 98.0669 37.0788 98.3269C37.1388 98.5769 38.0187 98.8469 38.2386 98.5569C38.4586 98.2669 38.1786 98.1969 38.1587 97.917C38.1387 97.637 38.3186 97.657 39.0085 97.747C39.6885 97.827 39.9584 98.3769 39.9584 98.3769C39.9584 98.3769 40.0684 98.1069 40.1684 97.757C40.2684 97.417 40.3684 97.527 40.8683 97.387C41.3583 97.257 41.3982 97.807 41.9182 98.1569C42.4481 98.5169 42.3181 97.717 42.3681 97.477C42.4181 97.237 42.3681 97.297 42.6681 97.107C42.968 96.9171 42.9081 97.0471 43.028 96.7771C43.118 96.5671 43.218 96.5371 43.488 96.5971C43.308 96.5071 43.088 96.4771 42.8181 96.5771C41.9582 96.9071 42.0482 97.857 42.0482 97.857C42.0482 97.857 41.0883 96.5071 40.3684 97.117C39.7585 97.627 39.8484 98.0269 39.8884 98.1269C39.7884 97.957 39.2585 97.167 38.3886 97.537C37.9087 97.737 37.9887 98.3169 38.0187 98.4969C37.9487 98.2469 37.5787 97.207 36.3689 97.707C35.7689 97.957 36.0289 98.5869 36.0689 98.6769C35.9989 98.5769 35.309 97.617 34.3091 98.0269C33.2493 98.4669 33.2893 99.1668 33.2893 99.1668C33.2893 99.1668 33.0993 98.7969 32.7693 98.7569L32.7493 98.7869Z" fill="#D5F2F7"/>
<path d="M0.043361 83.0882C-0.156614 85.4479 0.343324 87.5577 1.3632 88.9376C1.52318 89.1475 1.69315 89.3475 1.87313 89.5275C2.64304 90.2674 3.62291 90.6474 4.75277 90.5574C5.47268 90.4874 6.05261 90.4374 6.51255 90.3674C7.82239 90.1674 8.16234 89.8475 7.95237 88.7276C7.91238 88.5276 7.85238 88.2876 7.78239 88.0277C7.19247 85.9079 8.23234 84.1681 8.30233 84.0481C8.30233 84.0481 9.08223 85.4379 9.02224 87.1378C8.96224 88.8376 10.562 88.4276 11.212 86.6078C11.302 86.3678 11.3919 86.0579 11.4719 85.6979C11.8619 84.1581 12.1818 81.7583 11.5519 80.6785C10.772 79.3486 2.57304 75.729 2.57304 75.729C2.57304 75.729 2.1331 76.3489 1.62316 77.4188C1.50318 77.6688 1.37319 77.9588 1.24321 78.2587C0.713277 79.5186 0.183343 81.1984 0.0233635 83.0982L0.043361 83.0882Z" fill="#2AAD63"/>
<g style="mix-blend-mode:multiply" opacity="0.59">
<path d="M1.64314 77.4091C1.72313 77.4591 1.81312 77.509 1.90311 77.549C2.93298 78.029 2.41305 78.229 2.71301 78.8089C3.01297 79.3988 3.40292 79.4188 4.51278 79.7688C5.63264 80.1188 5.46266 79.8488 5.73263 80.6087C6.0026 81.3586 6.58252 81.0787 7.04247 81.6186C7.49241 82.1585 8.98222 82.3485 10.522 82.9285C11.3319 83.2384 11.5119 84.5283 11.5119 85.6882C11.9019 84.1483 12.2218 81.7486 11.5919 80.6687C10.812 79.3388 2.61302 75.7192 2.61302 75.7192C2.61302 75.7192 2.17308 76.3392 1.66314 77.4091H1.64314Z" fill="#CAE6EB"/>
</g>
<g style="mix-blend-mode:multiply" opacity="0.59">
<path d="M7.12249 85.0088C6.69249 85.8588 7.21249 87.5688 7.46249 88.0188C7.57249 88.2388 7.81249 88.4488 7.97249 88.7188C7.93249 88.5188 7.87249 88.2788 7.80249 88.0188C7.21249 85.8988 8.25249 84.1588 8.32249 84.0388C8.23249 84.0488 7.53249 84.2188 7.12249 85.0188V85.0088Z" fill="#CAE6EB"/>
</g>
<g style="mix-blend-mode:multiply" opacity="0.59">
<path d="M1.88316 89.5175C2.65316 90.2575 3.63316 90.6375 4.76316 90.5475C5.48316 90.4775 6.06316 90.4275 6.52316 90.3575C6.08316 90.2775 5.59316 90.0775 5.12316 89.8375C3.97316 89.2575 3.07316 88.3575 2.93316 88.9475C2.82316 89.4475 2.62316 89.6775 1.88316 89.5275V89.5175Z" fill="#CAE6EB"/>
</g>
<g style="mix-blend-mode:soft-light" opacity="0.54">
<path d="M0.043361 83.0885C-0.156614 85.4482 0.343324 87.558 1.3632 88.9379C2.1231 88.9479 2.27308 87.588 3.33295 87.608C4.66278 87.638 5.88263 89.1178 6.51255 88.4879C7.14247 87.848 5.06273 85.4682 5.15272 83.5185C5.24271 81.5587 2.63304 82.4186 2.52305 80.8387C2.43306 79.6989 1.67316 78.709 1.26321 78.259C0.733275 79.5189 0.203341 81.1987 0.043361 83.0985V83.0885Z" fill="#9AB08B"/>
</g>
<path d="M4.18286 72.7902C4.18286 72.7902 10.722 76.6698 14.7515 77.6797C15.3115 77.8297 15.8314 77.9097 16.2713 77.9197L19.9509 64.9611L20.0609 64.5811L20.1309 64.3312L21.5907 59.2117L21.6607 58.9717L21.7607 58.6218L24.6403 48.4629C24.6403 48.4629 24.1304 48.5329 23.2905 48.8429C22.5706 49.1128 21.6107 49.5428 20.5108 50.2527C19.011 51.2126 17.2612 52.6824 15.5014 54.9122C15.4914 54.9322 15.4714 54.9522 15.4515 54.9722C15.3415 55.1122 15.2315 55.2522 15.1215 55.4121C14.6116 56.0921 14.1016 56.852 13.6017 57.6719C13.0118 58.6518 12.3418 59.7317 11.6319 60.8715C11.5919 60.9415 11.5419 61.0215 11.5019 61.0915C11.432 61.2015 11.372 61.3115 11.292 61.4215C9.74217 63.9312 8.06238 66.6109 6.73254 68.7407C5.25273 71.1104 4.19286 72.7902 4.19286 72.7902H4.18286Z" fill="#AD4834"/>
<path d="M11.4919 61.0918C12.5518 62.2816 14.0816 63.6715 15.7714 64.0914C17.5112 64.5314 19.031 64.6014 20.0509 64.5914L21.6407 58.982C21.2207 58.962 18.4311 58.652 15.4414 54.9924C14.8215 55.7823 14.2016 56.6722 13.5917 57.6721C12.9618 58.712 12.2418 59.8719 11.4919 61.0818V61.0918Z" fill="#2AAD63"/>
<path d="M15.1214 55.4224C15.6014 55.9724 16.2914 56.5924 17.2614 57.2424C19.4214 58.7024 20.8214 59.1224 21.5914 59.2224L21.6614 58.9824L21.7614 58.6324C21.1414 58.5724 19.8214 58.2324 17.6014 56.7424C16.6214 56.0724 15.9514 55.4624 15.5014 54.9224C15.4914 54.9424 15.4714 54.9624 15.4514 54.9824C15.3414 55.1224 15.2314 55.2624 15.1214 55.4224Z" fill="#FFCA45"/>
<path d="M11.2819 61.422C11.9419 62.2119 12.9917 63.2018 14.6015 63.9817C16.0313 64.6716 17.4112 64.9216 18.501 64.9816C19.071 65.0116 19.5609 64.9916 19.9409 64.9716L20.0508 64.5917L20.1208 64.3417C20.1208 64.3417 20.1008 64.3417 20.0808 64.3417C19.7109 64.3817 19.171 64.4117 18.531 64.3717C17.5012 64.3117 16.1913 64.0817 14.8515 63.4318C13.2217 62.6419 12.2018 61.622 11.6119 60.8621C11.5719 60.9321 11.5219 61.012 11.4819 61.082C11.4119 61.192 11.3519 61.302 11.2719 61.412L11.2819 61.422Z" fill="#FFCA45"/>
<g style="mix-blend-mode:multiply">
<path d="M16.2713 77.9294L24.6203 48.4727C24.6203 48.4727 24.1104 48.5426 23.2705 48.8526C23.5704 49.3726 23.2805 50.2925 22.9805 51.1024C22.6405 52.0123 16.7613 64.9809 15.7014 68.6705C14.5916 72.56 11.032 73.3499 9.20223 72.92C8.74228 72.81 8.32234 73.01 8.32234 73.01C8.32234 73.01 8.11236 72.1201 7.51244 72.2001C5.81265 72.41 7.0425 70.7202 5.36271 70.9202L5.31271 71.0102C5.31271 71.0102 5.88264 72.55 5.88264 72.56C5.74266 74.3498 16.0314 77.9195 16.2813 77.9294H16.2713Z" fill="#D1CAC3"/>
</g>
<path d="M1.75315 74.9601C1.75315 74.9601 0.583301 76.03 1.52318 76.6699C2.46307 77.3198 3.06299 77.2798 3.06299 77.2798C3.06299 77.2798 2.48306 78.8097 4.05287 79.2896C5.01275 79.5796 5.68266 79.1496 5.68266 79.1496C5.68266 79.1496 6.2026 81.2594 7.46244 80.8194C7.46244 80.8194 7.48244 81.7793 9.07224 81.5094C9.07224 81.5094 10.1221 82.5293 11.272 82.2493C11.272 82.2493 11.352 82.2793 11.4719 82.3393C11.9919 82.5593 13.3417 83.0292 13.5217 82.1493C13.5217 82.1493 14.6515 82.3193 15.0115 82.1493C15.5214 81.9293 15.3914 80.9394 15.5314 80.5195C15.7614 79.7896 16.6813 79.4196 16.5713 78.5897C16.4513 77.7498 17.3312 77.6998 16.4313 77.2398C16.4313 77.2398 16.3813 75.95 15.4814 76.3299C15.4614 76.3399 15.4314 76.3499 15.4114 76.3599C14.7015 76.6799 14.4816 76.9099 14.4216 76.9699C14.4816 76.8399 14.8715 75.83 14.1816 75.69C13.4417 75.54 12.9817 75.98 12.9817 75.98C12.9817 75.98 13.1517 75.0501 12.7118 74.7801C12.6718 74.7501 12.6218 74.7301 12.5618 74.7201C11.8919 74.5801 11.202 75.0501 11.132 75.1001C11.152 75.0301 11.5619 73.8602 10.752 73.5902C10.752 73.5902 9.74216 73.2503 9.56218 74.1102C9.56218 74.1102 9.69216 72.8803 9.00225 73.0703C8.48231 73.2203 8.32233 73.5502 8.28234 73.7002C8.27234 73.7402 8.26234 73.7702 8.26234 73.7702C8.26234 73.7702 8.26234 73.7502 8.26234 73.7102C8.24234 73.3903 8.08236 71.9604 6.92251 72.5404C6.51256 72.7403 6.00262 72.4404 6.00262 72.4404C6.00262 72.4404 6.53256 71.4105 5.85264 71.0905C5.17273 70.7705 4.68279 71.2305 4.68279 71.2305C4.68279 71.2305 3.7829 70.3306 3.003 70.8405C2.23309 71.3505 2.34308 72.5404 2.34308 72.5404C2.34308 72.5404 1.71316 72.2204 1.3532 73.1003C0.99325 73.9802 1.76315 74.9501 1.76315 74.9501L1.75315 74.9601Z" fill="#CAE6EB"/>
<g style="mix-blend-mode:multiply" opacity="0.59">
<path d="M11.4819 82.3496C12.0019 82.5696 13.3519 83.0396 13.5319 82.1596C13.5319 82.1596 14.6619 82.3296 15.0219 82.1596C15.5319 81.9396 15.4019 80.9496 15.5419 80.5296C15.7719 79.7996 16.6919 79.4296 16.5819 78.5996C16.4619 77.7596 17.3419 77.7096 16.4419 77.2496C16.4419 77.2496 16.3919 75.9596 15.4919 76.3396C15.4719 76.3496 15.4419 76.3596 15.4219 76.3696C15.5319 76.5196 15.6019 76.7096 15.5919 76.9396C15.5519 77.6596 16.0019 77.8696 15.8619 78.3096C15.6419 79.0096 15.2219 78.9796 14.7019 78.9496C14.3119 78.9296 13.9119 78.9096 13.5519 79.6696C13.2719 80.2596 12.2719 80.3596 12.0819 80.5596C11.7519 80.9196 11.5019 81.3296 11.5019 82.3496H11.4819Z" fill="#CAE6EB"/>
</g>
<path d="M8.28232 73.7207C8.61232 73.5407 9.27232 73.1407 9.41232 74.1707C9.49232 74.7607 9.69232 73.8907 10.3523 73.7907C11.0223 73.7007 10.7523 74.6207 10.7523 75.1707C10.7623 75.7107 11.4223 75.2307 12.2023 74.8807C12.4023 74.7907 12.5823 74.7707 12.7123 74.7907C12.6723 74.7607 12.6223 74.7407 12.5623 74.7307C11.8923 74.5907 11.2023 75.0607 11.1323 75.1107C11.1523 75.0407 11.5623 73.8707 10.7523 73.6007C10.7523 73.6007 9.74232 73.2607 9.56232 74.1207C9.56232 74.1207 9.69232 72.8907 9.00232 73.0807C8.48232 73.2307 8.32232 73.5607 8.28232 73.7107V73.7207Z" fill="#D5F2F7"/>
<path d="M1.75315 74.9601C1.75315 74.9601 0.583301 76.03 1.52318 76.6699C2.46307 77.3198 3.06299 77.2798 3.06299 77.2798C3.06299 77.2798 2.48306 78.8097 4.05287 79.2896C5.01275 79.5796 5.68266 79.1496 5.68266 79.1496C5.68266 79.1496 6.2026 81.2594 7.46244 80.8195C7.46244 80.8195 6.66254 80.4895 6.53256 80.1695C6.41257 79.8496 6.31258 79.1196 5.75265 78.9697C5.20272 78.8197 4.34283 79.2296 4.34283 79.2296C4.34283 79.2296 3.67291 78.7897 3.50294 78.0998C3.33296 77.4098 3.7829 77.6698 3.8029 77.2898C3.8229 76.9099 3.20297 77.0399 2.48306 76.7099C1.77315 76.3799 1.80315 76.17 1.61317 75.69C1.43319 75.2201 1.85314 75.47 2.35308 75.2701C2.85302 75.0601 2.82302 74.9501 2.41307 74.4802C2.01312 74.0102 1.83314 73.7902 1.81315 73.2303C1.78315 72.6703 2.47306 73.2103 2.47306 73.2103C2.47306 73.2103 2.82302 73.1503 3.38295 72.8703C3.93288 72.5904 3.14298 72.5903 3.12298 72.0904C3.09299 71.5905 3.27296 70.8605 4.50281 71.5105C4.97275 71.7604 5.21272 71.2305 5.4227 71.3705C6.40257 72.0404 4.90276 72.4404 5.45269 73.0003C6.00262 73.5602 6.2026 72.9403 6.89251 72.8203C7.59242 72.7103 7.8024 72.8203 7.70241 73.4903C7.62242 74.0202 7.94238 73.9102 8.26234 73.7202C8.24234 73.4003 8.08236 71.9704 6.92251 72.5504C6.51256 72.7503 6.00262 72.4504 6.00262 72.4504C6.00262 72.4504 6.53256 71.4205 5.85264 71.1005C5.17273 70.7805 4.68279 71.2405 4.68279 71.2405C4.68279 71.2405 3.7829 70.3406 3.003 70.8505C2.23309 71.3605 2.34308 72.5504 2.34308 72.5504C2.34308 72.5504 1.71316 72.2304 1.3532 73.1103C0.99325 73.9902 1.76315 74.9601 1.76315 74.9601H1.75315Z" fill="#D5F2F7"/>
<path d="M8.01291 75.2098C8.01291 74.9298 7.82291 73.6698 6.83291 74.3598C6.09291 74.8698 6.18291 75.3198 5.80291 74.4398C5.42291 73.5598 4.99291 72.9498 4.45291 73.6898C3.91291 74.4298 3.25291 74.0698 3.46291 74.8598C3.67291 75.6498 3.97291 75.3598 3.76291 76.0298C3.55291 76.6998 4.66291 77.2198 4.82291 77.4998C4.98291 77.7798 3.72291 77.9998 5.15291 78.4298C7.29291 79.0698 6.36291 79.1798 6.96291 79.3298C7.15291 79.3798 7.11291 78.5198 6.63291 78.2498C6.15291 77.9798 5.71291 78.3698 5.57291 78.0198C5.43291 77.6698 6.03291 77.4998 5.53291 77.1198C5.03291 76.7398 4.59291 76.9798 4.21291 76.4498C3.83291 75.9198 4.66291 75.8998 4.48291 75.5798C4.30291 75.2598 3.82291 74.8398 4.33291 74.6498C4.66291 74.5298 4.45291 73.3498 5.07291 74.1498C5.69291 74.9498 5.47291 74.7998 5.74291 75.4098C6.01291 76.0198 6.28291 76.0198 6.58291 75.5798C6.88291 75.1398 7.16291 74.3598 7.54291 74.9598C7.92291 75.5598 7.66291 75.4898 7.91291 75.7398C8.16291 75.9898 8.32291 76.0898 8.32291 76.0898C8.32291 76.0898 8.01291 75.7198 8.01291 75.2098Z" fill="#D5F2F7"/>
<path d="M12.5424 77.5104C12.7224 76.9604 11.7524 76.2704 11.2124 76.4504C10.6724 76.6304 10.6324 76.2304 10.1724 76.1204C9.71242 76.0104 8.91242 75.9704 9.07242 76.4504C9.23242 76.9304 10.1924 77.0704 9.30242 77.3604C8.41242 77.6504 7.73242 77.7204 8.13242 78.2504C8.53242 78.7804 9.69242 78.3304 8.55242 79.0304C7.41242 79.7304 7.26242 79.9504 7.85242 80.1504C8.44242 80.3504 8.98242 80.2404 9.39242 80.5004C9.80242 80.7604 10.4224 80.8504 10.8724 80.7804C11.6724 80.6504 11.6524 80.1604 11.4324 80.2104C10.2924 80.4904 8.54242 80.0704 8.31242 79.7404C8.08242 79.4104 9.82242 79.3704 9.77242 78.9704C9.72242 78.5704 8.82242 78.2604 8.80242 78.0404C8.78242 77.8204 9.55242 77.8204 9.96242 77.5004C10.3724 77.1804 10.1124 76.8804 10.1024 76.7104C10.0924 76.5404 9.95242 76.0404 10.6324 76.5304C11.3124 77.0204 11.3824 76.5304 11.8124 76.9304C12.2424 77.3304 12.4324 77.8504 12.5424 77.5004V77.5104Z" fill="#D5F2F7"/>
<path d="M65.5352 83.7587C65.5952 86.1284 64.9753 88.2082 63.8754 89.5181C63.7054 89.728 63.5255 89.908 63.3355 90.078C62.5256 90.7779 61.5257 91.0979 60.4058 90.9379C59.6959 90.8279 59.116 90.7479 58.6561 90.648C57.3562 90.378 57.0363 90.028 57.3062 88.9281C57.3562 88.7282 57.4262 88.4982 57.5162 88.2382C58.2261 86.1484 57.2962 84.3586 57.2262 84.2287C57.2262 84.2287 56.3664 85.5685 56.3264 87.2683C56.2864 88.9681 54.7166 88.4682 54.1766 86.6184C54.1066 86.3784 54.0266 86.0584 53.9667 85.6985C53.6667 84.1387 53.4867 81.7189 54.1766 80.679C55.0265 79.3892 63.4255 76.2595 63.4255 76.2595C63.4255 76.2595 63.8254 76.9095 64.2754 78.0093C64.3853 78.2693 64.4953 78.5593 64.6053 78.8692C65.0653 80.1591 65.4952 81.8689 65.5452 83.7687L65.5352 83.7587Z" fill="#2AAD63"/>
<g style="mix-blend-mode:multiply" opacity="0.59">
<path d="M64.2653 77.9993C64.1853 78.0493 64.0854 78.0893 63.9954 78.1293C62.9355 78.5493 63.4554 78.7792 63.1155 79.3392C62.7855 79.9091 62.3956 79.9091 61.2657 80.1891C60.1259 80.4691 60.3158 80.2091 60.0059 80.959C59.6959 81.6989 59.126 81.379 58.636 81.8889C58.1561 82.3989 56.6563 82.5088 55.0865 82.9988C54.2666 83.2588 54.0066 84.5386 53.9466 85.6985C53.6467 84.1387 53.4667 81.7189 54.1566 80.679C55.0065 79.3892 63.4054 76.2595 63.4054 76.2595C63.4054 76.2595 63.8054 76.9095 64.2553 78.0093L64.2653 77.9993Z" fill="#CAE6EB"/>
</g>
<g style="mix-blend-mode:multiply" opacity="0.59">
<path d="M58.3562 85.2783C58.7362 86.1583 58.1162 87.8283 57.8462 88.2683C57.7162 88.4783 57.4762 88.6783 57.2962 88.9283C57.3462 88.7283 57.4162 88.4983 57.5062 88.2383C58.2162 86.1483 57.2862 84.3583 57.2162 84.2283C57.3062 84.2483 57.9962 84.4583 58.3562 85.2783Z" fill="#CAE6EB"/>
</g>
<g style="mix-blend-mode:multiply" opacity="0.59">
<path d="M63.336 90.0781C62.526 90.7781 61.526 91.0981 60.406 90.9381C59.696 90.8281 59.116 90.7481 58.656 90.6481C59.106 90.5981 59.596 90.4281 60.086 90.2081C61.266 89.6981 62.216 88.8481 62.326 89.4381C62.406 89.9381 62.596 90.1781 63.346 90.0681L63.336 90.0781Z" fill="#CAE6EB"/>
</g>
<g style="mix-blend-mode:soft-light" opacity="0.54">
<path d="M65.5352 83.7591C65.5952 86.1288 64.9753 88.2086 63.8754 89.5185C63.1155 89.4885 63.0455 88.1186 61.9857 88.0786C60.6558 88.0286 59.356 89.4485 58.7661 88.7785C58.1761 88.1086 60.3859 85.8489 60.4059 83.8991C60.4259 81.9393 62.9755 82.9492 63.1855 81.3794C63.3355 80.2395 64.1554 79.2996 64.5853 78.8696C65.0453 80.1595 65.4752 81.8693 65.5252 83.7691L65.5352 83.7591Z" fill="#9AB08B"/>
</g>
<path d="M61.9856 73.2405C61.9856 73.2405 55.2365 76.7301 51.147 77.52C50.577 77.63 50.0571 77.69 49.6172 77.68L46.6875 64.5314L46.6075 64.1514L46.5576 63.9015L45.3977 58.712L45.3477 58.4621L45.2677 58.1121L42.978 47.8032C42.978 47.8032 43.4779 47.9032 44.3078 48.2632C45.0077 48.5731 45.9376 49.0631 46.9975 49.833C48.4373 50.8829 50.0971 52.4427 51.7269 54.7725C51.7369 54.7925 51.7569 54.8125 51.7669 54.8325C51.8669 54.9824 51.9769 55.1324 52.0669 55.2824C52.5368 55.9923 53.0067 56.7722 53.4567 57.6222C53.9866 58.632 54.5965 59.7519 55.2365 60.9318C55.2765 61.0018 55.3165 61.0818 55.3564 61.1518C55.4164 61.2618 55.4764 61.3817 55.5464 61.4917C56.9462 64.0915 58.4761 66.8611 59.6759 69.0609C61.0157 71.5106 61.9756 73.2505 61.9756 73.2505L61.9856 73.2405Z" fill="#AD4834"/>
<path d="M55.3664 61.1423C54.2366 62.2722 52.6368 63.562 50.917 63.892C49.1572 64.232 47.6274 64.222 46.6175 64.142L45.3477 58.4526C45.7676 58.4526 48.5773 58.3026 51.7669 54.823C52.3368 55.6429 52.9068 56.5728 53.4567 57.6127C54.0266 58.6926 54.6765 59.8924 55.3565 61.1423H55.3664Z" fill="#2AAD63"/>
<path d="M52.0777 55.2725C51.5677 55.8025 50.8477 56.3725 49.8377 56.9725C47.5977 58.3125 46.1777 58.6425 45.3977 58.7025L45.3477 58.4525L45.2677 58.1025C45.8877 58.0825 47.2277 57.8225 49.5277 56.4525C50.5477 55.8425 51.2477 55.2725 51.7277 54.7625C51.7377 54.7825 51.7577 54.8025 51.7677 54.8225C51.8677 54.9725 51.9777 55.1225 52.0677 55.2725H52.0777Z" fill="#FFCA45"/>
<path d="M55.5564 61.4913C54.8565 62.2412 53.7466 63.1711 52.0969 63.851C50.637 64.451 49.2372 64.621 48.1473 64.621C47.5774 64.621 47.0875 64.571 46.7075 64.521L46.6275 64.141L46.5775 63.891C46.5775 63.891 46.5975 63.891 46.6175 63.891C46.9875 63.951 47.5174 64.011 48.1573 64.011C49.1872 64.011 50.5071 63.851 51.8769 63.2811C53.5467 62.5812 54.6265 61.6313 55.2565 60.9014C55.2965 60.9714 55.3364 61.0513 55.3764 61.1213C55.4364 61.2313 55.4964 61.3513 55.5664 61.4613L55.5564 61.4913Z" fill="#FFCA45"/>
<g style="mix-blend-mode:multiply">
<path d="M49.6272 77.6802L42.978 47.7935C42.978 47.7935 43.4779 47.8934 44.3078 48.2534C44.5078 48.7933 43.9379 49.6733 44.1978 50.5032C44.4878 51.4331 48.7573 66.3314 49.5172 70.091C49.6172 70.571 49.3372 75.6904 50.827 75.9604C51.337 76.0504 51.287 75.0205 52.0669 75.2805C53.2767 75.6704 52.1968 74.6705 53.5467 74.4506C53.9666 74.3806 54.6265 74.9305 54.5865 74.7305C54.2266 72.8107 56.3963 73.5807 56.3963 73.5807C56.3963 73.5807 56.3563 73.2807 56.9762 73.1107C57.4362 72.9807 57.8561 73.2507 57.8561 73.2507C57.8561 73.2507 58.1161 72.3808 58.706 72.4808C60.3958 72.7807 59.256 71.0309 60.9258 71.3209L60.9757 71.4109L60.3158 72.9207C60.3558 74.7205 49.8771 77.6902 49.6272 77.6802Z" fill="#D1CAC3"/>
</g>
<path d="M64.2953 75.5498C64.2953 75.5498 65.4052 76.6897 64.4253 77.2696C63.4454 77.8596 62.8555 77.7896 62.8555 77.7896C62.8555 77.7896 63.3454 79.3594 61.7456 79.7394C60.7658 79.9793 60.1258 79.5094 60.1258 79.5094C60.1258 79.5094 59.4859 81.5892 58.2561 81.0792C58.2561 81.0792 58.1761 82.0291 56.6063 81.6692C56.6063 81.6692 55.4964 82.6191 54.3666 82.2891C54.3666 82.2891 54.2866 82.3191 54.1566 82.3691C53.6267 82.5591 52.2468 82.949 52.1268 82.0591C52.1268 82.0591 50.987 82.1691 50.637 81.9791C50.1371 81.7292 50.3271 80.7493 50.2171 80.3193C50.0271 79.5794 49.1372 79.1594 49.2972 78.3295C49.4572 77.4996 48.5873 77.3996 49.5172 76.9897C49.5172 76.9897 49.6472 75.6998 50.517 76.1398C50.537 76.1498 50.567 76.1598 50.587 76.1698C51.2769 76.5297 51.4869 76.7697 51.5369 76.8397C51.4869 76.7097 51.157 75.6698 51.8469 75.5798C52.5868 75.4798 53.0267 75.9398 53.0267 75.9398C53.0267 75.9398 52.9067 74.9999 53.3667 74.7599C53.4067 74.7399 53.4667 74.7199 53.5167 74.7099C54.1966 74.6099 54.8565 75.1099 54.9265 75.1699C54.9065 75.0999 54.5665 73.91 55.3964 73.68C55.3964 73.68 56.4263 73.4001 56.5563 74.27C56.5563 74.27 56.5063 73.0301 57.1762 73.2701C57.6861 73.4501 57.8261 73.79 57.8561 73.94C57.8661 73.98 57.8661 74.01 57.8661 74.01C57.8661 74.01 57.8661 73.99 57.8661 73.95C57.9061 73.63 58.1461 72.2102 59.2759 72.8601C59.6659 73.0801 60.1958 72.8101 60.1958 72.8101C60.1958 72.8101 59.7259 71.7502 60.4258 71.4703C61.1257 71.1903 61.5857 71.6803 61.5857 71.6803C61.5857 71.6803 62.5355 70.8303 63.2854 71.3803C64.0254 71.9302 63.8454 73.1101 63.8454 73.1101C63.8454 73.1101 64.4953 72.8301 64.7953 73.73C65.1052 74.6299 64.2853 75.5598 64.2853 75.5598L64.2953 75.5498Z" fill="#CAE6EB"/>
<g style="mix-blend-mode:multiply" opacity="0.59">
<path d="M54.1572 82.3696C53.6272 82.5596 52.2472 82.9496 52.1272 82.0596C52.1272 82.0596 50.9872 82.1696 50.6372 81.9796C50.1372 81.7296 50.3272 80.7496 50.2172 80.3196C50.0272 79.5796 49.1372 79.1596 49.2972 78.3296C49.4572 77.4996 48.5872 77.3996 49.5172 76.9896C49.5172 76.9896 49.6472 75.6996 50.5172 76.1396C50.5372 76.1496 50.5672 76.1596 50.5872 76.1696C50.4772 76.3096 50.3872 76.4996 50.3872 76.7296C50.3872 77.4496 49.9272 77.6296 50.0472 78.0796C50.2272 78.7896 50.6472 78.7896 51.1672 78.7896C51.5572 78.7896 51.9572 78.7896 52.2772 79.5696C52.5172 80.1696 52.1072 80.8196 52.2772 81.0396C52.5872 81.4096 53.0372 81.4096 54.1672 82.3596L54.1572 82.3696Z" fill="#CAE6EB"/>
</g>
<path d="M57.8467 73.9398C57.5367 73.7398 56.8867 73.3098 56.6867 74.3198C56.5767 74.8998 56.4267 74.0298 55.7667 73.8898C55.1067 73.7598 55.3167 74.6998 55.2867 75.2398C55.2467 75.7798 54.6067 75.2598 53.8567 74.8698C53.6567 74.7698 53.4867 74.7398 53.3567 74.7498C53.3967 74.7298 53.4567 74.7098 53.5067 74.6998C54.1867 74.5998 54.8467 75.0998 54.9167 75.1598C54.8967 75.0898 54.5567 73.8998 55.3867 73.6698C55.3867 73.6698 56.4167 73.3898 56.5467 74.2598C56.5467 74.2598 56.4967 73.0198 57.1667 73.2598C57.6767 73.4398 57.8167 73.7798 57.8467 73.9298V73.9398Z" fill="#D5F2F7"/>
<path d="M64.2953 75.5498C64.2953 75.5498 65.4052 76.6897 64.4253 77.2696C63.4454 77.8596 62.8555 77.7896 62.8555 77.7896C62.8555 77.7896 63.3454 79.3594 61.7456 79.7394C60.7658 79.9793 60.1258 79.5094 60.1258 79.5094C60.1258 79.5094 59.4859 81.5892 58.2561 81.0792C58.2561 81.0792 59.076 80.7993 59.216 80.4893C59.3459 80.1793 59.4959 79.4494 60.0659 79.3394C60.6258 79.2294 61.4557 79.6794 61.4557 79.6794C61.4557 79.6794 62.1556 79.2794 62.3656 78.5995C62.5755 77.9196 62.1156 78.1595 62.1156 77.7696C62.1156 77.3796 62.7355 77.5596 63.4654 77.2696C64.1953 76.9797 64.1753 76.7697 64.3853 76.2998C64.5953 75.8398 64.1553 76.0698 63.6754 75.8398C63.1955 75.5998 63.2255 75.4898 63.6554 75.0499C64.0754 74.5999 64.2753 74.39 64.3253 73.84C64.3853 73.2801 63.6754 73.78 63.6754 73.78C63.6754 73.78 63.3254 73.7 62.7855 73.3901C62.2456 73.0801 63.0355 73.1201 63.0955 72.6202C63.1555 72.1202 63.0155 71.3803 61.7556 71.9602C61.2757 72.1802 61.0657 71.6403 60.8458 71.7702C59.8359 72.3902 61.2957 72.8701 60.7258 73.3901C60.1458 73.92 59.9859 73.2901 59.2959 73.1301C58.596 72.9801 58.3861 73.0801 58.4461 73.75C58.4961 74.28 58.1761 74.16 57.8761 73.95C57.9161 73.63 58.1561 72.2102 59.286 72.8601C59.6759 73.0801 60.2058 72.8101 60.2058 72.8101C60.2058 72.8101 59.7359 71.7502 60.4358 71.4703C61.1357 71.1903 61.5957 71.6803 61.5957 71.6803C61.5957 71.6803 62.5455 70.8303 63.2954 71.3803C64.0354 71.9302 63.8554 73.1101 63.8554 73.1101C63.8554 73.1101 64.5053 72.8301 64.8053 73.73C65.1152 74.6299 64.2953 75.5598 64.2953 75.5598V75.5498Z" fill="#D5F2F7"/>
<path d="M57.2163 75.5198C57.2363 75.2398 57.4963 73.9898 58.4463 74.7398C59.1563 75.2898 59.0463 75.7398 59.4663 74.8798C59.8863 74.0198 60.3563 73.4398 60.8563 74.2098C61.3563 74.9798 62.0263 74.6598 61.7763 75.4298C61.5263 76.1998 61.2363 75.8998 61.4163 76.5798C61.5963 77.2598 60.4563 77.7198 60.2763 77.9898C60.0963 78.2598 61.3463 78.5498 59.8863 78.8998C57.7163 79.4198 59.0363 79.8598 58.4263 79.9798C58.2363 80.0198 58.0263 79.3798 58.5163 79.1298C59.0063 78.8798 59.3363 78.8098 59.4863 78.4698C59.6363 78.1298 59.0563 77.9198 59.5763 77.5698C60.0963 77.2198 60.5263 77.4798 60.9263 76.9798C61.3263 76.4798 60.5063 76.3998 60.7063 76.0898C60.9063 75.7798 61.4063 75.3898 60.9163 75.1698C60.5963 75.0298 60.8763 73.8598 60.2063 74.6198C59.5363 75.3798 59.7763 75.2398 59.4663 75.8298C59.1563 76.4198 58.8863 76.4098 58.6163 75.9498C58.3463 75.4898 58.1063 74.6998 57.6863 75.2798C57.2663 75.8598 57.5363 75.7998 57.2763 76.0298C57.0163 76.2598 56.6563 76.2598 56.6563 76.2598C56.6563 76.2598 57.1763 75.9998 57.2063 75.4898L57.2163 75.5198Z" fill="#D5F2F7"/>
<path d="M52.6968 77.5397C52.5768 76.9797 53.4068 76.3397 53.8368 76.5597C54.2668 76.7797 54.3268 76.3797 54.7068 76.2897C55.0868 76.1997 55.7468 76.2097 55.5968 76.6797C55.4468 77.1497 54.6468 77.2297 55.3668 77.5797C56.0868 77.9297 56.6368 78.0297 56.2968 78.5297C55.9568 79.0297 55.0068 78.5197 55.9068 79.2897C56.8068 80.0597 56.9268 80.2797 56.4368 80.4497C55.9468 80.6197 55.4968 80.4797 55.1468 80.7097C54.7968 80.9397 54.2868 80.9997 53.9168 80.8997C53.2568 80.7197 53.3068 80.2297 53.4768 80.2997C54.4068 80.6397 55.5468 80.4097 55.7568 80.0897C55.9668 79.7697 54.8368 79.5497 54.9068 79.1497C54.9768 78.7497 55.7268 78.4997 55.7468 78.2797C55.7668 78.0597 55.1368 78.0197 54.8168 77.6697C54.4968 77.3197 54.7268 77.0397 54.7368 76.8697C54.7468 76.6997 54.8868 76.2097 54.3168 76.6597C53.7468 77.1097 53.6968 76.6197 53.3268 76.9897C52.9568 77.3597 52.7768 77.8797 52.6968 77.5197V77.5397Z" fill="#D5F2F7"/>
<g style="mix-blend-mode:soft-light" opacity="0.54">
<path d="M59.6859 69.0514C59.6859 69.2214 59.6559 69.3714 59.606 69.5013C59.106 70.8512 56.1364 70.5312 54.7066 66.5317C53.2767 62.5321 49.6072 60.5023 47.6574 55.8228C46.3876 52.7832 46.6576 50.8234 46.9975 49.8235C48.9573 51.2533 51.347 53.6431 53.4667 57.6126C55.2765 61.0023 57.8462 65.6918 59.6959 69.0514H59.6859Z" fill="#BFAF97"/>
</g>
<path d="M50.637 82.2098C50.637 82.2098 49.2972 83.2597 45.4277 84.2996C43.4379 84.8396 40.7783 85.3795 37.2887 85.7795C36.0589 85.9194 34.719 86.0494 33.2692 86.1394C22.1706 86.8993 16.4513 83.5997 14.7615 82.3898C14.3916 82.1299 14.2216 81.9699 14.2216 81.9699L14.4616 81.15L16.8913 72.9309L16.9713 72.6709L17.2412 71.751L23.7904 49.6534L24.3803 47.6736L24.6403 46.7937L40.4683 47.1337L42.848 47.1837L43.4179 49.7734L48.2373 71.391L48.3773 72.021L48.5073 72.5809L50.2271 80.3201L50.3571 80.9L50.647 82.2098H50.637Z" fill="#AD4834"/>
<path d="M50.2071 80.3299C47.3474 82.4496 38.4086 87.4991 22.2706 83.0296C21.1107 82.6996 17.0112 83.2496 14.7615 82.4096C14.3916 82.1497 14.2216 81.9897 14.2216 81.9897L14.4016 81.3798L14.8515 79.8699L16.9712 72.6907C18.2511 73.3406 22.2606 74.8105 32.1093 74.7605H32.2393C41.7081 74.7005 47.1875 72.5607 48.3673 72.0408L49.9371 79.09L50.1671 80.1199L50.2171 80.3399L50.2071 80.3299Z" fill="#2AAD63"/>
<path d="M50.1671 80.1L50.0871 80.16L45.1377 74.5306L43.248 82.9997L39.1385 75.7605L36.0589 83.6296L32.3093 76.2004L29.2997 83.7596L26.66 75.9104L21.6407 82.5897L19.5509 75.0005L14.4016 81.3598L14.8415 79.85L19.8309 73.7107L21.9006 81.2399L26.87 74.6306L29.3497 82.0098L32.2393 74.7406L35.9889 82.1498L39.0385 74.3606L42.998 81.3398L44.7978 73.2407L49.9371 79.0701L50.1671 80.1Z" fill="#FFF373"/>
<path d="M48.4973 72.5803C42.2981 74.72 36.7288 75.33 31.1595 75.33C29.7196 75.33 28.2898 75.29 26.84 75.23C21.6707 75 18.3811 73.6901 16.8913 72.9302L16.9712 72.6702L17.2412 71.7503C17.6512 71.9703 18.2711 72.2603 19.101 72.5703C20.8008 73.1902 23.3804 73.8601 26.89 74.0201C28.3298 74.0901 29.7396 74.1201 31.1595 74.1201C36.6888 74.1201 42.1381 73.5201 48.2273 71.3904L48.3673 72.0203L48.4973 72.5803Z" fill="#FFCA45"/>
<g style="mix-blend-mode:multiply">
<path d="M50.2071 80.3295L48.4873 72.5903L48.3573 72.0304L48.2173 71.4004L43.3979 49.7828L42.828 47.1931L40.4483 47.1431L37.9086 49.4428C37.9086 49.4428 43.7679 70.9605 42.718 78.5097C42.458 80.4094 40.2983 79.6695 39.2484 80.4894C38.1886 81.3093 38.0686 80.8794 36.6288 81.0794C35.189 81.2894 34.669 81.9793 34.669 81.9793C34.669 81.9793 32.9492 82.2592 31.6394 82.2892C30.3296 82.3092 25.3802 78.7896 23.8404 80.4594C23.5204 80.7994 23.2105 80.8794 22.9205 80.7894C21.5807 77.6697 20.9807 71.1105 21.9906 65.4111C23.5204 56.822 27.5399 49.1828 27.5399 49.1828L24.3703 47.683L23.7804 49.6628L17.2312 71.7604L16.9612 72.6803L16.8812 72.9403L14.4516 81.1594C15.8714 81.8393 17.9411 82.7792 19.7809 83.4091L19.7109 83.7691L37.2787 85.7889C40.7683 85.3889 43.4279 84.849 45.4177 84.309L50.3371 80.9094L50.2071 80.3295Z" fill="#F2EAE2"/>
</g>
<g style="mix-blend-mode:multiply">
<path d="M32.6593 48.103C32.6593 48.103 31.5794 48.9429 32.0893 49.9928C32.5993 51.0427 32.4193 50.1728 31.9594 52.0126C31.4994 53.8524 33.1992 53.9823 32.3293 54.8922C31.2094 56.0721 31.7594 58.0819 31.7594 58.0819C31.9394 58.8118 32.5593 58.8518 32.4393 59.9317C32.3193 61.0116 31.8694 60.2217 31.8894 61.8715C31.9094 63.5213 32.2593 63.2713 31.9494 64.4412C31.6394 65.6111 30.6095 66.361 30.7895 67.1909C30.9695 68.0208 31.1595 68.4408 31.1395 69.3607C31.1195 70.2806 30.4695 70.4706 30.4295 71.9104C30.3896 73.3502 31.7694 74.2701 31.3094 75.13C30.5595 76.5299 30.6995 77.3798 30.6995 77.3798L31.1195 79.2996C31.1195 79.2996 29.9496 80.2995 30.3696 80.9294C30.7895 81.5593 31.1894 81.5693 30.6295 82.3793C30.0696 83.1892 30.0296 82.8292 30.1896 83.8091C30.3496 84.789 30.2996 84.329 30.4695 85.4589C30.6395 86.5888 29.9596 86.6788 30.6295 86.9088C31.2994 87.1387 33.6091 87.2487 33.7591 86.5888C33.9091 85.9289 33.5292 85.9989 32.9592 84.589C32.3893 83.1792 34.0391 83.0992 33.5991 81.8493C33.1592 80.5994 32.7792 80.9594 33.1692 79.2196C33.5592 77.4798 33.9891 77.8497 33.9591 76.5599C33.9291 75.27 32.6893 75.33 33.5392 74.1202C34.3891 72.9103 33.0592 72.9703 33.1792 71.1805C33.2992 69.3907 33.9691 69.5607 33.7391 68.1108C33.5092 66.661 33.0792 67.3709 33.5292 66.051C33.9791 64.7312 34.3191 64.4812 33.9391 63.5413C33.5592 62.6014 33.4192 63.0114 34.2591 61.8015C35.099 60.5916 34.659 59.5017 34.0791 58.6018C33.4992 57.7019 34.2991 56.932 34.1891 55.7722C34.0791 54.6123 34.529 54.4423 34.479 53.8224C34.429 53.2024 33.9291 53.0125 33.8891 52.0526C33.8491 51.0927 34.629 50.8827 34.609 50.2627C34.589 49.6428 34.649 49.0929 34.569 48.373C34.489 47.653 34.3191 48.193 34.2591 48.073C34.1391 47.863 33.0192 47.823 32.6593 48.123V48.103Z" fill="#D1CAC3"/>
</g>
<g style="mix-blend-mode:multiply">
<path d="M43.4079 49.7731C42.758 49.8731 42.1481 49.5232 41.9181 49.6131C41.5282 49.7731 41.8081 50.3531 41.2982 50.893C40.7983 51.433 39.6384 51.083 38.8685 50.813C38.0986 50.543 38.6385 51.053 38.3286 51.393C38.0186 51.7429 36.8288 51.393 36.2388 51.243C35.6589 51.083 34.889 51.393 34.509 51.5429C34.1191 51.6929 33.2392 50.903 32.8792 50.783C32.5193 50.673 31.3894 51.283 30.3396 51.5129C29.2997 51.7529 27.9099 50.593 27.9099 50.593C27.9099 50.593 27.02 50.703 25.8201 50.553C24.6303 50.3931 25.0102 49.7431 24.5903 49.8231C24.3803 49.8631 24.0504 49.7631 23.7704 49.6531L24.6203 46.7935L33.5092 48.9032L42.828 47.1734L43.3979 49.7631L43.4079 49.7731Z" fill="#D1CAC3"/>
</g>
<path d="M32.7693 48.1035C32.7693 48.1035 31.9394 48.9534 32.3193 49.9933C32.6993 51.0332 32.5693 50.1733 32.2094 52.0131C31.8494 53.8529 33.1392 53.9728 32.4693 54.8927C31.6094 56.0826 32.0194 58.0824 32.0194 58.0824C32.1494 58.8023 32.6193 58.8423 32.5193 59.9222C32.4193 61.0021 32.0794 60.2222 32.0894 61.862C32.0994 63.5018 32.3593 63.2618 32.1194 64.4317C31.8794 65.6016 31.0895 66.3615 31.2195 67.1814C31.3495 68.0013 31.4894 68.4213 31.4695 69.3512C31.4495 70.2811 30.9595 70.4711 30.9195 71.9109C30.8795 73.3507 31.9194 74.2606 31.5694 75.1205C30.9895 76.5304 31.0995 77.3703 31.0995 77.3703L31.4095 79.2801C31.4095 79.2801 30.5196 80.28 30.8295 80.9099C31.1395 81.5398 31.4495 81.5398 31.0195 82.3598C30.5896 83.1797 30.5596 82.8097 30.6796 83.7896C30.7995 84.7695 30.7595 84.3095 30.8795 85.4394C30.9995 86.5693 30.4896 86.6593 30.9895 86.8793C31.4894 87.0992 33.2492 87.1992 33.3692 86.5393C33.4892 85.8794 33.1992 85.9494 32.7693 84.5495C32.3393 83.1497 33.5992 83.0597 33.2692 81.8098C32.9393 80.5599 32.6593 80.9299 32.9593 79.1901C33.2592 77.4503 33.5892 77.8102 33.5792 76.5304C33.5692 75.2505 32.6293 75.3105 33.2792 74.0907C33.9291 72.8708 32.9293 72.9508 33.0293 71.151C33.1292 69.3512 33.6392 69.5212 33.4792 68.0813C33.3192 66.6415 32.9893 67.3514 33.3292 66.0215C33.6692 64.6917 33.9391 64.4417 33.6592 63.5118C33.3792 62.5819 33.2692 62.9819 33.9091 61.772C34.5491 60.5621 34.2291 59.4622 33.7892 58.5823C33.3492 57.7024 33.9691 56.9125 33.8991 55.7527C33.8292 54.5928 34.1691 54.4228 34.1291 53.8029C34.0891 53.1829 33.7192 52.993 33.6892 52.0431C33.6592 51.0932 34.2591 50.8632 34.2491 50.2433C34.2391 49.6233 34.2891 49.0734 34.2291 48.3535C34.1691 47.6335 34.0391 48.1735 33.9891 48.0535C33.8991 47.8435 33.0493 47.8135 32.7693 48.1135V48.1035Z" fill="#CAE6EB"/>
<path d="M32.9093 51.3134C32.7493 51.7034 32.3694 52.2033 32.5593 52.8532C32.7493 53.5032 33.1193 54.4931 33.1193 54.4931C33.1193 54.4931 33.1993 54.863 33.0593 55.303C32.9193 55.7429 32.5193 55.8029 32.4194 56.2829C32.3194 56.7628 32.4794 57.4827 32.7093 58.2527C32.9393 59.0226 32.7493 59.2926 32.8493 59.8125C32.9493 60.3324 33.4292 60.2524 33.2393 61.0424C33.0493 61.8323 31.9894 61.7323 32.4294 62.8722C32.8693 64.012 33.2793 63.972 33.1193 64.782C32.9593 65.5919 31.6695 66.0918 31.8694 67.2117C32.0694 68.3316 32.3694 67.9216 32.1194 68.9115C31.8694 69.9014 31.2495 69.4714 31.7694 70.5113C32.2894 71.5512 32.0394 72.4011 32.0394 72.4011C32.0394 72.4011 32.0194 72.4811 32.2294 73.481C32.4394 74.4809 32.1294 74.2309 32.0394 74.9109C31.9494 75.5908 31.1695 75.7408 31.4795 76.6107C31.7894 77.4806 32.0394 77.4406 31.9194 78.0605C31.7994 78.6804 32.0194 78.5804 31.9394 79.3104C31.8594 80.0403 31.2295 80.8502 31.2295 80.8502C31.2295 80.8502 31.7494 81.3701 31.7694 81.7201C31.7894 82.0701 31.4795 82.2801 31.5995 82.55C31.7194 82.82 31.8694 82.99 32.2194 82.88C32.5693 82.77 33.1093 82.47 32.8893 81.8601C32.6693 81.2502 32.4494 80.9502 32.4794 80.3903C32.5093 79.8303 32.2094 79.2304 32.3094 78.5005C32.4094 77.7705 32.6393 77.6905 32.4594 77.0306C32.2794 76.3707 31.9794 76.5107 32.2794 76.1007C32.5793 75.6908 32.7093 75.2908 32.6893 74.7909C32.6693 74.2909 32.7293 74.1109 32.7493 73.571C32.7693 73.0311 32.5593 72.8011 32.4794 72.3511C32.3994 71.9012 32.5793 71.2912 32.5793 71.2912C32.5793 71.2912 32.3494 70.4813 32.5193 70.0214C32.6893 69.5614 32.3494 69.7914 32.4194 69.0415C32.4893 68.2916 32.8993 68.7915 32.7693 67.7716C32.6393 66.7517 32.6093 66.7417 32.6893 66.4418C32.7693 66.1418 32.8293 66.0918 33.0193 65.6819C33.2093 65.2719 33.6592 64.582 33.4592 64.022C33.2593 63.4621 32.8593 63.5021 32.8793 62.8422C32.8993 62.1822 33.3192 62.0323 33.4792 61.5723C33.6392 61.1124 33.7092 60.2424 33.5192 59.9725C33.3292 59.7025 33.4592 58.2727 33.3492 57.7927C33.2393 57.3128 32.6593 57.1128 32.8693 56.6728C33.0793 56.2329 33.3692 56.0329 33.5292 55.533C33.6892 55.033 33.6492 54.2031 33.4292 53.6632C33.2093 53.1232 33.3892 53.4932 33.3692 52.7033C33.3492 51.9134 33.1593 51.6034 33.2893 51.2934C33.4192 50.9835 32.9993 51.0634 32.8993 51.2934L32.9093 51.3134Z" fill="#D5F2F7"/>
<path d="M31.5195 90.5389C30.1496 91.1189 28.9498 91.9288 28.2399 90.9089C27.8399 90.339 27.7699 89.809 27.7699 89.809C27.7699 89.819 27.7599 90.069 26.79 90.4389C24.5103 91.3289 23.7004 90.359 23.4305 89.3191C23.4305 89.3191 21.7407 90.7089 19.8609 89.2391C19.8609 89.2391 16.9613 90.439 16.5813 88.1592C16.5813 88.1592 14.5716 88.8891 13.9017 88.3492C13.2217 87.8092 13.1917 86.7294 13.1917 86.7294C13.1917 86.7294 11.152 86.5494 11.322 84.6496C11.452 83.1897 12.9418 83.4497 12.9418 83.3697C12.9418 83.2897 11.402 81.23 12.6518 80.61C13.9117 79.9901 14.6616 80.48 14.6616 80.48C14.6616 80.48 14.9515 79.6501 15.6514 79.4901C15.8414 79.4401 16.0714 79.4501 16.3214 79.5401C17.4912 79.9901 17.3812 81.2999 17.3812 81.2999C17.3812 81.2999 18.6911 79.4401 19.6809 80.2701C20.5108 80.97 20.3908 81.5099 20.3409 81.6599C20.4808 81.4299 21.2007 80.34 22.4006 80.85C23.1705 81.18 22.8805 82.2398 22.8805 82.2398C22.8805 82.2398 24.2904 79.9401 25.1503 81.08C25.6602 81.7399 25.7102 82.0899 25.6702 82.2598C25.9702 81.8899 26.82 81.05 27.9699 81.5299C29.4197 82.1299 29.3597 83.0797 29.3597 83.0797C29.3597 83.0797 29.7397 82.5698 30.3296 82.5198C30.6196 82.4998 30.9695 82.5898 31.3495 82.9098C32.4893 83.8897 31.4595 84.0596 31.3295 84.8396C31.2895 85.0795 31.2895 85.1795 31.3295 85.2395C31.3295 85.2395 31.3295 85.2595 31.3395 85.2595C31.4095 85.3395 31.5495 85.3695 31.6594 85.6995C31.6994 85.8094 31.7294 85.9494 31.7594 86.1194C31.9494 87.2593 31.5794 87.2693 31.7294 88.1592C31.8894 89.0491 32.8793 89.909 31.5095 90.4889L31.5195 90.5389Z" fill="#CAE6EB"/>
<path d="M52.5568 85.0001C52.5568 85.0001 53.4067 86.5699 52.5768 87.3698C51.7569 88.1697 49.7772 87.9098 49.7772 87.9098C49.7772 87.9098 49.9571 89.9995 47.7274 90.1995C46.7276 90.2895 45.9476 89.0596 45.9476 89.0596C45.9476 89.0596 44.8578 90.7195 43.328 90.8595C42.0781 90.9694 41.3982 89.8896 41.3982 89.8896C41.3982 89.8896 40.5783 91.5794 39.0285 91.1194C37.4887 90.6495 37.1288 89.6496 37.1288 89.6496C37.1288 89.6496 35.8389 90.8595 34.819 90.8595C33.2792 90.8595 32.6593 91.0994 32.4793 89.3996C32.3693 88.3497 32.0094 88.4397 31.7394 88.1997C31.5694 88.0498 31.4295 87.7898 31.3995 87.0599C31.3795 86.7299 31.4095 86.4499 31.4795 86.21C31.5095 86.08 31.5495 85.97 31.6094 85.87C31.6294 85.82 31.6494 85.78 31.6794 85.74C31.9594 85.2701 32.4093 85.0901 32.7693 85.1001C32.7693 85.1001 31.7194 84.2402 32.5393 83.2703C32.6393 83.1403 32.7593 83.0403 32.8793 82.9503C33.6292 82.4004 34.6291 82.4504 35.029 82.8403C35.029 82.8403 35.039 82.8303 35.059 82.8103C35.189 82.6303 35.9989 81.6505 36.9288 81.5805C37.9586 81.5005 38.5786 82.4004 38.5786 82.4004C38.5786 82.4004 39.4785 80.9405 40.5883 81.1705C41.6982 81.4005 42.3381 82.8703 42.3381 82.8703C42.3381 82.8703 43.508 80.7505 44.5578 81.0605C45.6077 81.3705 46.0976 82.0604 46.0976 82.0604C46.0976 82.0604 45.8677 80.1006 46.8475 80.0306C47.8174 79.9506 48.0774 80.6206 48.0774 80.6206C48.0774 80.6206 48.3074 78.4608 50.0271 79.5907C50.0271 79.5907 50.797 78.3608 51.6969 79.4607C52.5968 80.5706 51.6569 81.3005 51.6569 81.3005C51.6569 81.3005 52.0769 81.3505 52.5168 81.5805C52.6268 81.6405 52.7368 81.7104 52.8468 81.8004C53.1567 82.0504 53.4067 82.4204 53.4467 82.9803C53.5467 84.4701 52.5568 85.0101 52.5568 85.0101V85.0001Z" fill="#CAE6EB"/>
<g style="mix-blend-mode:multiply" opacity="0.55">
<path d="M30.3296 82.5505C30.6196 82.5305 30.9696 82.6205 31.3496 82.9405C32.4896 83.9205 31.4596 84.0905 31.3296 84.8705C31.2896 85.1105 31.2896 85.2105 31.3296 85.2705C30.7896 84.4105 31.0896 84.8005 31.0596 83.7605C31.0396 83.1005 30.6196 82.7205 30.3296 82.5505Z" fill="#E5E7F5"/>
</g>
<g style="mix-blend-mode:multiply" opacity="0.55">
<path d="M52.5568 85.0004C52.5568 85.0004 53.4067 86.5702 52.5768 87.3701C51.7569 88.17 49.7772 87.91 49.7772 87.91C49.7772 87.91 49.9571 89.9998 47.7274 90.1998C46.7276 90.2898 45.9477 89.0599 45.9477 89.0599C45.9477 89.0599 44.8578 90.7197 43.328 90.8597C42.0781 90.9697 41.3982 89.8898 41.3982 89.8898C41.3982 89.8898 40.5783 91.5796 39.0285 91.1197C37.4887 90.6497 37.1288 89.6498 37.1288 89.6498C37.1288 89.6498 35.8389 90.8597 34.819 90.8597C33.2792 90.8597 32.6593 91.0997 32.4793 89.3999C32.3693 88.35 32.0094 88.44 31.7394 88.2C31.8994 89.0899 32.8893 89.9498 31.5195 90.5297C30.1496 91.1097 28.9498 91.9196 28.2399 90.8997C27.8399 90.3298 27.7699 89.7998 27.7699 89.7998C27.7699 89.8098 27.7599 90.0598 26.79 90.4298C24.5103 91.3197 23.7004 90.3498 23.4305 89.3099C23.4305 89.3099 21.7407 90.6997 19.8609 89.2299C19.8609 89.2299 16.9613 90.4298 16.5813 88.15C16.5813 88.15 14.5716 88.8799 13.9017 88.34C13.2217 87.8 13.1917 86.7202 13.1917 86.7202C13.1917 86.7202 11.152 86.5402 11.322 84.6404C11.452 83.1806 12.9418 83.4405 12.9418 83.3605C12.9418 83.2805 11.402 81.2208 12.6518 80.6008C13.9117 79.9809 14.6616 80.4708 14.6616 80.4708C14.6616 80.4708 14.9515 79.6409 15.6514 79.481C15.5715 79.531 14.9715 79.9709 14.9715 80.4409C14.9715 80.9408 13.1618 80.1309 13.1218 81.1408C13.0818 82.1407 14.9015 81.8407 13.6617 83.3005C12.4318 84.7704 12.4318 85.2703 12.8918 85.5003C13.3517 85.7303 14.8215 85.0404 14.5916 86.2302C14.3516 87.4301 14.4016 87.89 15.1615 87.5101C15.9314 87.1201 16.2814 85.8503 16.9413 86.7802C17.6012 87.7001 17.1313 88.21 17.9811 88.32C18.831 88.43 20.1409 87.7401 20.5708 87.98C20.9908 88.21 21.4907 88.9199 21.4907 88.9199C21.4907 88.9199 23.2205 88.17 23.6904 88.24C24.1604 88.32 23.6104 89.3199 24.5403 89.7098C25.4702 90.0998 27.01 89.2099 27.48 89.2099C27.9499 89.2099 28.0999 89.1699 28.5598 89.9398C29.0298 90.7097 28.6398 91.4896 29.7597 90.8297C30.8795 90.1798 31.5195 90.9297 31.3295 89.6498C31.1495 88.37 30.4996 87.7601 30.9995 86.8901C31.1895 86.5502 31.3795 86.3602 31.4995 86.2102C31.5894 86.1002 31.6494 86.0002 31.6294 85.8703C31.6194 85.7403 31.5395 85.5703 31.3795 85.3003C31.4495 85.3803 31.5894 85.4103 31.6994 85.7403C31.9794 85.2803 32.4293 85.0903 32.7893 85.1103C32.7893 85.1103 31.7394 84.2504 32.5593 83.2805C32.6593 83.1506 32.7793 83.0506 32.8993 82.9606C32.7693 83.1406 32.6893 83.3505 32.7193 83.5905C32.7993 84.4004 33.5692 84.1604 33.1692 85.3003C32.7693 86.4402 32.2294 85.9003 32.6493 86.9401C33.0693 87.99 33.0393 89.0599 33.1493 89.4099C33.2592 89.7498 32.7393 90.0298 33.6592 90.2198C34.5791 90.4098 35.159 90.4298 35.8889 89.6498C36.6188 88.8599 37.1188 88.48 37.6187 89.0199C38.1186 89.5599 37.2287 90.2198 38.9285 90.0198C40.6283 89.8298 40.3983 88.67 41.2882 88.9199C42.1681 89.1699 42.948 89.8598 43.098 89.9398C43.248 90.0198 44.2479 90.0198 44.5578 89.0199C44.8678 88.02 43.358 86.1702 45.2177 87.5501C47.0675 88.9399 45.7177 89.3299 47.0875 89.1299C48.4573 88.9399 48.6773 88.8599 49.0873 87.9C49.4972 86.9301 49.6472 86.3202 50.2271 86.6202C50.807 86.9301 50.6571 86.3902 51.307 86.3902C51.9569 86.3902 52.6568 86.0102 52.2769 85.0803C51.8869 84.1504 51.6969 83.9905 52.1669 83.7405C52.6268 83.4905 52.8968 83.3405 52.8968 82.4206C52.8968 82.1807 52.8868 81.9607 52.8668 81.7707C53.1767 82.0207 53.4267 82.3906 53.4667 82.9506C53.5667 84.4404 52.5768 84.9804 52.5768 84.9804L52.5568 85.0004Z" fill="#E5E7F5"/>
</g>
<path d="M52.5168 81.5805C52.5168 81.5805 51.7469 81.7304 51.437 81.6505C51.127 81.5705 51.437 81.0005 51.6669 80.4906C51.8969 79.9806 51.437 79.8306 50.967 79.6707C50.4971 79.5107 50.2071 80.3306 49.8871 79.9306C49.5772 79.5307 49.4472 79.8006 49.1472 80.3406C48.8373 80.8805 48.7373 81.3105 48.1674 81.1905C47.6074 81.0605 47.4475 80.8305 47.2475 81.1905C47.0375 81.5505 46.8575 82.5803 46.0676 83.1703C45.2677 83.7602 45.3277 82.7803 44.6578 82.0604C43.9979 81.3405 44.2179 81.8504 43.318 82.6203C42.4181 83.3903 42.6781 83.7302 41.9081 83.9602C41.1382 84.1902 41.4982 83.6202 41.3182 82.2604C41.1382 80.8905 39.5384 82.5903 39.5384 82.5903C39.5384 82.5903 39.2285 82.8203 38.0986 82.7203C36.9688 82.6203 37.3587 82.3404 36.6388 82.1304C35.9889 81.9404 35.229 82.6403 35.059 82.8103C35.189 82.6303 35.9989 81.6505 36.9288 81.5805C37.9586 81.5005 38.5786 82.4004 38.5786 82.4004C38.5786 82.4004 39.4785 80.9405 40.5883 81.1705C41.6982 81.4005 42.3381 82.8703 42.3381 82.8703C42.3381 82.8703 43.5079 80.7505 44.5578 81.0605C45.6077 81.3705 46.0976 82.0604 46.0976 82.0604C46.0976 82.0604 45.8677 80.1006 46.8475 80.0306C47.8174 79.9506 48.0774 80.6206 48.0774 80.6206C48.0774 80.6206 48.3073 78.4608 50.0271 79.5907C50.0271 79.5907 50.797 78.3608 51.6969 79.4607C52.5968 80.5706 51.6569 81.3005 51.6569 81.3005C51.6569 81.3005 52.0769 81.3505 52.5168 81.5805Z" fill="#D5F2F7"/>
<path d="M35.4391 84.6806C35.7191 84.0106 36.9791 83.4706 37.4691 84.0106C37.9591 84.5506 37.1891 85.7306 38.6291 85.0606C40.0691 84.3906 40.5591 83.3406 40.7591 84.3906C40.9591 85.4406 40.7891 86.0906 41.2491 86.5806C41.7091 87.0706 40.4291 88.6206 39.7091 88.1706C38.5291 87.4506 38.8091 88.0406 38.0891 88.1406C37.3691 88.2406 37.5991 87.9306 36.9291 87.6506C36.2591 87.3706 36.4891 87.6006 35.6991 88.1406C34.9091 88.6806 34.3591 89.3206 34.2591 88.3506C34.1591 87.3806 35.0591 86.1606 35.1891 86.6806C35.3191 87.2006 34.3691 87.4306 34.7391 87.7106C35.1091 87.9906 35.3191 88.1006 36.0091 87.3806C36.6991 86.6606 36.6491 86.5306 37.2391 86.8406C37.8291 87.1506 37.2891 87.6606 38.3191 87.2306C39.3491 86.8006 39.8391 87.8006 39.9391 87.2606C39.9791 87.0406 40.7091 87.4106 40.6891 86.4206C40.6791 85.8806 40.5091 84.6106 39.8891 85.1106C39.7191 85.2506 38.9591 86.0006 38.2191 85.8106C37.4791 85.6206 37.1691 85.3806 37.1091 84.9006C37.0491 84.4206 36.6691 83.8706 36.2091 84.5106C35.7491 85.1506 35.1591 85.3606 35.4391 84.6906V84.6806Z" fill="#D5F2F7"/>
<path d="M44.2779 84.9696C44.2779 84.9696 45.5679 84.3896 45.7679 84.9896C45.9679 85.5896 46.8679 84.8696 47.2579 85.6096C47.6479 86.3496 46.8379 86.2996 47.6479 86.7896C48.5079 87.3096 47.3579 88.7396 47.5079 88.5296C47.6579 88.3196 48.9379 87.1396 48.0679 86.4996C47.1979 85.8596 47.8379 85.8596 47.6479 85.4596C47.4579 85.0596 47.1479 85.1496 46.4679 84.7996C45.7879 84.4496 46.6379 84.1596 45.1979 84.1396C43.7579 84.1196 43.3879 84.3496 43.4979 84.8196C43.6079 85.2896 43.9179 85.5096 44.2879 84.9696H44.2779Z" fill="#D5F2F7"/>
<path d="M48.2074 82.9201C48.5774 82.5901 49.0374 81.9001 49.5374 82.5201C50.0374 83.1401 49.8274 83.3501 50.0374 83.5601C50.2474 83.7701 50.4274 83.3101 50.6174 84.0001C50.8074 84.6901 51.0974 85.0601 50.5574 85.2501C50.0174 85.4401 49.6074 85.5701 49.2074 85.2601C48.8074 84.9501 48.9374 84.5701 48.9374 84.5701C48.9374 84.5701 49.2674 85.0501 49.5374 84.9401C49.8074 84.8301 50.2474 84.7501 49.9174 84.3801C49.5874 84.0101 49.4374 83.8601 49.4174 83.6501C49.3974 83.4401 49.4974 83.1301 49.2674 82.9601C49.0374 82.7901 49.2674 82.5401 48.8074 82.9601C48.3474 83.3801 48.2074 82.9201 48.2074 82.9201Z" fill="#D5F2F7"/>
<path d="M15.2215 82.5807C15.0715 83.5906 15.6615 83.5606 15.8414 84.2305C16.0214 84.9005 14.8516 85.1504 15.1915 85.4304C15.5315 85.7104 17.3312 85.8004 17.3312 85.8004C17.3312 85.8004 18.3111 84.7405 18.3811 85.7204C18.4511 86.7003 18.7111 87.3402 19.381 87.1902C20.0509 87.0402 20.8708 85.4804 21.4607 86.4103C22.0507 87.3402 22.9805 86.9802 23.5905 86.9302C24.2004 86.8802 24.6103 87.4402 24.6103 87.4402C24.6103 87.4402 24.6403 86.5103 23.9804 86.3703C23.3205 86.2303 22.8706 86.5503 22.6206 86.4003C22.3706 86.2503 22.4406 85.5004 21.7607 85.4404C21.0808 85.3804 21.7007 84.5505 20.6208 85.4404C19.541 86.3303 19.571 87.4602 19.151 86.3703C18.7311 85.2804 18.971 85.0204 18.6611 84.7105C18.3511 84.4005 18.4011 83.7106 17.5812 84.4305C16.7613 85.1504 16.1114 85.4804 16.1414 85.1004C16.1714 84.7205 17.7112 84.7405 16.9413 83.9106C16.1714 83.0807 15.9914 82.9507 16.0714 82.6607C16.1514 82.3707 15.8114 82.3007 16.5113 82.3007C17.2113 82.3007 17.7212 82.1208 17.7212 82.1208C17.7212 82.1208 15.5415 80.5409 15.2315 82.5807H15.2215Z" fill="#D5F2F7"/>
<path d="M20.8008 82.6698C21.1907 82.3498 22.6805 82.2198 22.8805 83.0898C23.0805 83.9597 22.2606 84.5596 23.5004 84.5596C24.7403 84.5596 24.9403 83.6297 25.3502 84.6596C25.7601 85.6895 25.3202 85.5095 25.7901 86.3094C26.2601 87.1093 26.0501 86.3094 27.05 87.4193C28.0499 88.5292 27.31 88.8291 28.0999 88.7191C28.8898 88.6092 29.1797 88.5492 29.2797 89.0691C29.3797 89.5891 29.8496 88.9691 29.5097 88.4792C29.1697 87.9892 28.3298 87.6293 27.9199 87.7593C27.5099 87.8892 27.35 87.3893 27.12 87.0693C26.89 86.7494 26.91 86.6994 26.4801 86.4994C26.0501 86.2994 25.9901 86.0894 26.1201 85.6895C26.2501 85.2895 26.4801 84.8496 25.9401 84.2596C25.4002 83.6697 25.7601 83.0998 24.7803 83.4397C23.8004 83.7797 23.2105 84.0797 23.1605 83.4697C23.1105 82.8598 23.3105 82.4898 22.8605 82.2798C22.4106 82.0699 22.6905 81.7999 21.9706 81.9799C21.2507 82.1599 20.7908 82.6898 20.7908 82.6898L20.8008 82.6698Z" fill="#D5F2F7"/>
<path d="M27.87 83.3702C28.58 83.7102 29.12 83.5802 28.83 84.2402C28.54 84.9002 28.81 84.4902 28.95 85.3402C29.09 86.1902 28.72 86.6702 28.35 86.4202C27.98 86.1702 27.12 85.5402 27.48 85.4402C27.84 85.3402 28.06 86.5202 28.29 85.9602C28.52 85.4002 28.39 85.0002 28.17 84.6702C27.95 84.3402 28.13 84.2102 28.19 84.1702C28.25 84.1302 28.67 83.8602 28.05 83.6502C27.43 83.4402 27.18 83.3402 27.2 83.1902C27.22 83.0402 27.76 82.6502 27.82 82.8402C27.88 83.0302 27.49 83.2102 27.86 83.3802L27.87 83.3702Z" fill="#D5F2F7"/>
<path d="M15.9015 23.7568C16.0814 27.5264 17.7212 30.906 20.3109 33.4558C23.5105 36.6254 28.1699 38.5152 33.2593 38.2752C38.7586 38.0153 43.518 35.3256 46.3577 31.396C48.2774 28.7563 49.3273 25.5666 49.1573 22.167C49.0373 19.5973 48.2274 17.2075 46.9076 15.1378C43.898 10.3983 38.1887 7.34861 31.7895 7.65858C23.7505 8.03854 17.3013 13.6079 16.0714 20.6572V20.6772C15.9015 21.6771 15.8315 22.7169 15.8815 23.7668L15.9015 23.7568Z" fill="#331F08"/>
<g style="mix-blend-mode:multiply" opacity="0.24">
<path d="M46.3576 31.3964C48.2773 28.7567 49.3272 25.567 49.1572 22.1674C49.0372 19.5977 48.2273 17.208 46.9075 15.1382C46.9075 15.1382 47.8374 17.8879 46.5376 18.3678C46.5376 18.3678 47.0875 19.0078 46.2876 19.7777C46.2876 19.7777 46.8175 21.2075 45.8576 21.4775C45.8576 21.4775 45.9976 22.8873 45.3177 22.7374C44.8278 22.6274 45.7876 28.2568 46.3576 31.4064V31.3964Z" fill="#EB8D23"/>
</g>
<g style="mix-blend-mode:multiply" opacity="0.24">
<path d="M15.9014 23.7567C16.0814 27.5262 17.7212 30.9059 20.3108 33.4556L20.6508 22.2268C20.6508 22.2268 19.051 25.2765 18.1711 25.1065C17.2912 24.9465 17.1412 23.3367 17.1412 23.3367C17.1412 23.3367 16.7513 23.3267 16.5413 22.5568C16.3213 21.7969 15.9814 22.6068 16.0814 20.667C15.9114 21.6669 15.8414 22.7068 15.8914 23.7567H15.9014Z" fill="#EB8D23"/>
</g>
<g style="mix-blend-mode:overlay" opacity="0.16">
<path d="M27.04 11.6978C29.0897 9.93803 31.4594 10.258 31.4094 9.39809C31.3494 8.48819 27.5999 9.48808 25.9501 10.398C27.3999 9.09813 30.6795 8.30821 31.7994 8.24822C32.9192 8.18822 36.2888 8.51819 37.8786 9.60807C36.1388 8.92814 32.4893 8.59818 32.4393 9.3181C32.3893 10.038 34.769 9.86804 37.0487 11.3679C35.5489 10.7579 32.4493 9.65806 32.5093 11.1679C32.5393 11.8578 34.669 11.7078 35.9489 12.4978C34.829 12.2078 32.4593 11.5479 32.4493 12.4978C32.4493 13.0177 34.769 13.1177 35.6089 13.5376C34.669 13.3377 32.8093 13.0977 32.4593 13.4377C32.1093 13.7776 32.0494 13.6776 31.7494 13.4776C31.4494 13.2777 29.6597 13.5276 28.7698 13.8176C29.5497 13.3077 31.5694 13.0277 31.5294 12.5278C31.4594 11.6878 29.2697 12.5278 28.2098 12.9977C29.2697 12.0178 31.4294 11.4979 31.3994 10.8879C31.3694 10.278 29.1397 10.698 27.04 11.6978Z" fill="#FFFDE8"/>
</g>
<path d="M47.2676 26.9062C47.2676 26.9062 48.3376 25.0462 49.9676 27.3362C51.5976 29.6362 50.0676 33.5062 47.5976 33.7762C45.1276 34.0362 47.2676 26.9062 47.2676 26.9062Z" fill="#FFCD8C"/>
<g style="mix-blend-mode:multiply" opacity="0.15">
<path d="M48.8976 27.4261C48.5276 27.1061 47.7676 27.2761 47.2876 27.8661C47.1176 28.0761 47.9876 29.6761 47.9176 29.9961C47.6676 31.2061 45.7576 32.3961 47.5376 32.0061C50.1176 31.4461 49.3976 27.8661 48.8976 27.4261Z" fill="#A1654B"/>
</g>
<path d="M18.2015 28.2963C18.2015 28.2963 16.9615 26.5463 15.5615 28.9863C14.1615 31.4263 16.0515 35.1463 18.5315 35.1663C21.0115 35.1863 18.2015 28.2963 18.2015 28.2963Z" fill="#FFCD8C"/>
<g style="mix-blend-mode:multiply" opacity="0.15">
<path d="M16.6315 28.9667C16.9715 28.6067 17.7415 28.7067 18.2715 29.2467C18.4615 29.4467 17.7515 31.1167 17.8515 31.4267C18.2215 32.6067 20.2315 33.6067 18.4215 33.3967C15.7915 33.0867 16.1715 29.4467 16.6315 28.9667Z" fill="#A1654B"/>
</g>
<path d="M18.1811 31.2766C18.6011 40.1656 20.9608 48.3647 33.6892 47.7648C46.4176 47.1649 47.9874 38.7658 47.5574 29.8768C47.1275 20.9877 42.838 13.8285 31.7694 14.3585C21.0008 14.8684 17.7512 22.3976 18.1711 31.2866L18.1811 31.2766Z" fill="#FFCD8C"/>
<path d="M31.4997 33.5763C31.4997 33.5763 30.7497 32.8363 29.7897 33.4263C28.8297 34.0163 29.2597 34.8963 29.2597 34.8963C29.2597 34.8963 29.5297 34.0563 29.9797 33.7063C30.6297 33.2063 31.4997 33.5763 31.4997 33.5763Z" fill="#E89961"/>
<path d="M42.3886 25.8665C42.3886 25.8665 41.4486 24.4465 39.7886 24.3565C38.1286 24.2665 37.9386 25.3865 37.9386 25.3865C37.9386 25.3865 39.0486 24.9465 39.8886 25.0265C40.7286 25.1065 42.3886 25.8665 42.3886 25.8665Z" fill="#241300"/>
<path d="M22.0506 25.9269C22.0506 25.9269 22.9606 24.4869 24.6206 24.3569C26.2806 24.2269 26.4906 25.3469 26.4906 25.3469C26.4906 25.3469 25.3706 24.9269 24.5406 25.0269C23.7106 25.1269 22.0506 25.9169 22.0506 25.9169V25.9269Z" fill="#241300"/>
<g style="mix-blend-mode:multiply" opacity="0.15">
<path d="M30.3395 40.0352C30.3395 40.0352 30.5995 40.7052 31.8795 40.5952C33.1595 40.4852 33.2995 39.8252 33.2995 39.8252C33.2995 39.8252 32.4895 40.0652 31.8395 40.0952C31.1895 40.1252 30.3395 40.0452 30.3395 40.0452V40.0352Z" fill="#A1654B"/>
</g>
<path d="M27.0105 31.1864C26.8605 31.2464 26.7105 31.2964 26.5705 31.3464C26.3305 31.4264 26.0905 31.4864 25.8705 31.5264C25.8005 31.5464 25.7305 31.5664 25.6605 31.5764C25.0605 31.6764 24.5505 31.6764 24.1405 31.6164C23.9105 31.5864 23.7105 31.5364 23.5405 31.4764C23.5305 31.4764 23.5205 31.4764 23.5005 31.4564C22.8905 31.2464 22.6105 30.9464 22.6105 30.9464C22.6805 30.6964 22.7705 30.4164 22.9105 30.1164C22.9905 29.9564 23.0705 29.8064 23.1605 29.6864C23.2405 29.5564 23.3405 29.4464 23.4305 29.3564C23.8605 28.9664 24.3605 28.8264 24.8405 28.8264C25.4505 28.8264 26.0105 29.0064 26.3205 29.4364C26.3605 29.4864 26.4005 29.5364 26.4305 29.5864C26.6305 29.8964 26.8005 30.2864 26.9005 30.6964C26.9005 30.7164 26.9105 30.7364 26.9105 30.7564C26.9205 30.7964 26.9305 30.8364 26.9505 30.8864C26.9605 30.9064 26.9705 30.9464 26.9705 30.9664C26.9805 31.0464 26.9905 31.1164 27.0005 31.1864H27.0105Z" fill="white"/>
<path d="M27.0205 31.1763C26.9905 31.0263 26.9605 30.8863 26.9205 30.7463C26.9205 30.7263 26.9205 30.7063 26.9005 30.6863C26.4005 29.0863 24.8205 28.3663 23.4305 29.3363H23.4005C22.3405 29.2863 22.4605 28.6263 22.4605 28.6263C23.8105 29.1763 23.5005 28.3663 25.0105 28.4263C25.8705 28.4563 26.5405 29.2563 26.7705 29.7563C26.9905 30.2263 27.0105 31.0863 27.0105 31.1763H27.0205Z" fill="#4F0000"/>
<path d="M26.7103 30.7658C26.7203 30.9858 26.6703 31.1858 26.5703 31.3358C26.3303 31.4158 26.0903 31.4758 25.8703 31.5158C25.8003 31.5358 25.7303 31.5558 25.6603 31.5658C25.0603 31.6658 24.5503 31.6658 24.1403 31.6058C24.0703 31.4458 24.0203 31.2158 24.0203 30.8958C24.0203 30.1858 24.5603 29.3558 25.3003 29.3158C25.6703 29.3058 26.0103 29.4758 26.2603 29.7458C26.4003 29.8958 26.5003 30.0658 26.5903 30.2458C26.6603 30.4158 26.7003 30.5858 26.7003 30.7658H26.7103Z" fill="#004C8F"/>
<path d="M24.1203 29.5963C24.6103 29.4763 25.5203 30.8463 24.6003 30.5963C23.6803 30.3463 23.6303 29.7263 24.1203 29.5963Z" fill="white"/>
<path d="M41.8687 30.9367C41.8687 30.9367 41.7287 31.0867 41.4287 31.2467C41.3087 31.3167 41.1587 31.3867 40.9787 31.4467C40.9687 31.4567 40.9587 31.4567 40.9387 31.4667C40.9087 31.4767 40.8687 31.4867 40.8387 31.4967C40.7787 31.5167 40.7087 31.5367 40.6487 31.5467C40.2187 31.6467 39.6787 31.6967 39.0087 31.5967C38.9487 31.5967 38.8887 31.5767 38.8187 31.5667C38.7487 31.5567 38.6887 31.5467 38.6087 31.5167C38.2587 31.4467 37.8787 31.3367 37.4787 31.1767C37.4787 31.1067 37.4987 31.0367 37.5087 30.9567C37.5087 30.9367 37.5087 30.8967 37.5187 30.8767C37.5387 30.8267 37.5487 30.7867 37.5587 30.7467C37.5587 30.7267 37.5587 30.7067 37.5687 30.6867C37.6687 30.2767 37.8387 29.8867 38.0387 29.5767C38.0687 29.5267 38.1087 29.4767 38.1487 29.4267C38.4587 28.9867 39.0187 28.8167 39.6287 28.8167C40.1087 28.8167 40.6187 28.9467 41.0387 29.3467C41.1287 29.4467 41.2287 29.5467 41.3087 29.6767C41.4087 29.7967 41.4887 29.9467 41.5587 30.1067C41.6987 30.4167 41.7987 30.6967 41.8587 30.9367H41.8687Z" fill="white"/>
<path d="M37.4487 31.1763C37.4787 31.0263 37.5087 30.8863 37.5487 30.7463C37.5487 30.7263 37.5487 30.7063 37.5687 30.6863C38.0687 29.0863 39.6487 28.3663 41.0387 29.3363H41.0687C42.1287 29.2863 42.0087 28.6263 42.0087 28.6263C40.6587 29.1763 40.9687 28.3663 39.4587 28.4263C38.5987 28.4563 37.9287 29.2563 37.6987 29.7563C37.4787 30.2263 37.4587 31.0863 37.4587 31.1763H37.4487Z" fill="#4F0000"/>
<path d="M41.5085 30.8958C41.4985 31.0258 41.4685 31.1458 41.4285 31.2458C41.3085 31.3158 41.1585 31.3858 40.9785 31.4458C40.9685 31.4558 40.9585 31.4558 40.9385 31.4658C40.9085 31.4758 40.8685 31.4858 40.8385 31.4958C40.7785 31.5158 40.7085 31.5358 40.6485 31.5458C40.2185 31.6458 39.6785 31.6958 39.0085 31.5958C38.7885 31.2858 38.8185 30.9558 38.8285 30.7658C38.8285 30.5858 38.8785 30.4158 38.9385 30.2458C39.0285 30.0658 39.1385 29.9058 39.2685 29.7458C39.5285 29.4758 39.8685 29.3058 40.2285 29.3158C40.9685 29.3558 41.5485 30.1858 41.5085 30.8958Z" fill="#004C8F"/>
<path d="M38.9087 29.8063C39.3987 29.6863 40.3087 31.0563 39.3887 30.8063C38.4687 30.5563 38.4187 29.9363 38.9087 29.8063Z" fill="white"/>
<path d="M27.7199 37.4359C27.7899 37.7058 30.4095 38.6057 31.7094 38.5957C33.6991 38.5757 36.2288 37.5258 36.2788 37.2659C35.1489 37.5158 31.1395 38.2758 27.7199 37.4359Z" fill="#E06648"/>
<path d="M24.0303 16.0479C24.0303 16.0479 20.6308 18.8876 21.6306 20.6674C22.6305 22.4473 26.71 14.9681 26.71 14.9681C26.71 14.9681 23.5904 19.2076 25.3702 19.6376C27.1499 20.0675 29.4597 14.3281 29.4597 14.3281C29.4597 14.3281 27.6899 18.4377 28.1498 19.1376C28.6098 19.8375 31.5094 14.3281 31.5094 14.3281C31.5094 14.3281 28.2498 20.0575 30.3395 18.7477C32.4293 17.4378 33.0092 13.8082 33.0092 13.8082C33.0092 13.8082 33.1992 17.0478 33.9391 18.0877C34.679 19.1276 33.9991 13.8082 33.9991 13.8082C33.9991 13.8082 34.829 18.5877 36.4888 18.5877C38.1486 18.5877 35.3289 13.8082 35.3289 13.8082C35.3289 13.8082 37.7986 19.3976 38.9885 18.5477C40.1783 17.6978 37.4687 14.3181 37.4687 14.3181C37.4687 14.3181 41.6181 21.4374 41.8581 19.3976C42.0981 17.3578 40.1583 14.9181 40.1583 14.9181C40.1583 14.9181 43.2679 19.6976 43.9578 20.9274C44.6478 22.1573 43.6079 16.3979 43.6079 16.3979C43.6079 16.3979 38.2386 11.7284 33.9791 11.9484C29.7196 12.1684 28.7897 9.76863 24.0203 16.028L24.0303 16.0479Z" fill="#331F08"/>
<g style="mix-blend-mode:multiply" opacity="0.15">
<path d="M19.5509 17.3771C19.5509 17.3771 18.921 21.2967 19.301 22.5566C19.6809 23.8164 20.0709 23.6964 19.7609 25.5362C19.4509 27.376 18.991 27.446 19.4509 29.0359C19.9109 30.6257 20.0309 30.6957 20.0309 31.6556C20.0309 32.6155 18.821 32.5955 19.5209 34.0553C20.2208 35.5152 20.5308 36.555 20.5308 37.135C20.5308 37.7149 21.2607 37.7549 21.5707 38.5248C21.8806 39.2947 21.8806 39.7947 21.8806 39.7947C21.8806 39.7947 20.9907 40.7246 21.6107 41.4145C22.2306 42.1044 23.1605 43.8443 24.8003 43.9942C26.4401 44.1442 25.9301 44.3042 26.67 45.1541C27.4099 46.004 27.8999 45.924 29.2197 46.084C30.5396 46.244 30.4496 46.7039 31.2295 46.8539C32.0094 47.0039 32.1194 46.6239 32.8893 47.0039C33.6592 47.3839 34.4691 47.5039 35.5089 47.1539C36.5488 46.8039 37.5487 45.844 37.9386 45.6141C38.3286 45.3841 38.3286 45.694 39.2985 45.3041C40.2683 44.9141 40.6483 45.1541 41.6882 44.7242C42.728 44.2942 42.1481 43.5643 43.078 42.7144C44.0079 41.8645 44.3478 42.0244 44.5778 41.2145C44.8078 40.4046 44.3878 39.5147 45.1177 37.9749C45.8476 36.4351 47.5674 35.0652 47.1875 34.0453C46.8075 33.0254 46.2276 31.8256 46.2076 30.5357C46.1876 29.2458 46.4776 26.8861 46.3976 26.1862C46.3176 25.4862 47.3674 25.4163 46.5775 22.9565C45.7876 20.4968 44.8378 19.027 45.1877 18.647C45.5377 18.267 49.1772 17.5271 49.1772 17.5271C49.1772 17.5271 52.0569 25.7462 52.0869 26.0562C52.1169 26.3662 45.4877 44.3042 45.4877 44.3042L35.9189 49.4336L26.2701 47.3639C26.2701 47.3639 20.2908 44.4142 19.9109 44.0742C19.5309 43.7343 15.9714 36.2051 15.9714 36.2051L15.8614 22.3966L18.821 16.4172L19.5309 17.3771H19.5509Z" fill="#A1654B"/>
</g>
<path d="M55.0965 27.0467C55.3964 26.9967 55.6964 26.8667 55.9564 26.6467C56.6663 26.0368 56.7963 25.0169 56.2363 24.367C55.8664 23.927 55.2764 23.767 54.7165 23.897C54.7165 23.877 54.7165 23.857 54.7165 23.847C54.8665 23.847 55.0065 23.847 55.1565 23.827C56.0763 23.667 56.7063 22.8371 56.5563 21.9972C56.5163 21.7772 56.4263 21.5773 56.3063 21.4073C55.9164 20.8773 55.7164 20.2374 55.8264 19.5875C55.8764 19.2875 55.8764 18.9775 55.8264 18.6576C55.7464 18.2076 55.5564 17.8077 55.3064 17.4977C54.8665 16.9578 54.7465 16.2278 54.9065 15.5479C54.9765 15.2179 54.9865 14.858 54.9265 14.488C54.7165 13.3082 53.7966 12.4782 52.8767 12.6482C52.7868 12.6682 52.6968 12.6982 52.6068 12.7282C52.8268 12.2883 52.9167 11.7383 52.8168 11.1684C52.5968 9.98851 51.6769 9.1586 50.767 9.32859C50.557 9.36858 50.3871 9.44857 50.2271 9.56856C50.2871 9.25859 50.2971 8.91863 50.2371 8.57867C50.0171 7.3988 49.0972 6.57889 48.1873 6.73887C47.9774 6.77886 47.7874 6.86885 47.6174 6.98884C47.6674 6.68887 47.6674 6.37891 47.6174 6.04894C47.3974 4.86907 46.4775 4.04916 45.5677 4.20914C45.2477 4.26914 44.9777 4.43912 44.7578 4.68909C44.8578 3.84918 44.3978 2.96928 43.5479 2.52933C43.068 2.27935 42.548 2.21936 42.0781 2.31935C41.3882 2.45933 40.7083 2.15937 40.1783 1.68942C40.0284 1.55943 39.8684 1.43945 39.6784 1.34945C38.6085 0.809514 37.3387 1.15948 36.8488 2.13937C36.7488 2.32935 36.6988 2.52933 36.6688 2.7293C36.5588 2.07938 36.1288 1.47944 35.4689 1.14948C34.3991 0.609535 33.1292 0.959497 32.6393 1.93939C32.6193 1.97939 32.6093 2.02938 32.5893 2.06938C32.5493 1.78941 32.4593 1.50944 32.3193 1.24947C31.7194 0.139586 30.3696 -0.300366 29.3197 0.259573C29.2397 0.299569 29.1697 0.349564 29.0997 0.399558C28.5098 0.819512 27.7799 1.01949 27.08 0.799515C26.85 0.729522 26.61 0.689527 26.3501 0.689527C25.6402 0.689527 25.0102 0.989494 24.5503 1.45944C24.1903 1.8194 23.7304 2.05938 23.2305 2.11937C23.0805 2.13937 22.9305 2.14937 22.7805 2.13937C22.3806 2.11937 21.9506 2.18936 21.5607 2.40934C20.8208 2.8093 20.4008 3.56921 20.4108 4.32913C20.2708 4.27914 20.1308 4.22914 19.9709 4.20914C18.831 4.02916 17.7611 4.85907 17.5812 6.03894C17.5412 6.31891 17.5512 6.59888 17.6112 6.85886C17.5112 6.82886 17.4212 6.79886 17.3212 6.77886C16.2313 6.61888 15.2015 7.43879 15.0215 8.62866C14.9815 8.92863 14.9915 9.2286 15.0615 9.50857C14.9915 9.48857 14.9315 9.46857 14.8715 9.45857C13.7516 9.28859 12.6918 10.1085 12.5118 11.2984C12.5118 11.3584 12.5018 11.4184 12.4918 11.4784C12.4418 12.1483 12.1019 12.7882 11.5219 13.1282C10.982 13.4481 10.582 13.9981 10.4821 14.668C10.4421 14.938 10.4521 15.1979 10.5021 15.4379C10.652 16.1178 10.3921 16.8178 9.90213 17.3277C9.60217 17.6477 9.3822 18.0676 9.3122 18.5376C9.25221 18.9375 9.30221 19.3375 9.43219 19.6875C9.68216 20.3374 9.64216 21.0673 9.25221 21.6572C9.14222 21.8172 9.07223 22.0172 9.04224 22.2172C8.92225 23.0071 9.47218 23.747 10.2921 23.967C9.96212 24.077 9.65216 24.287 9.41219 24.5869C9.3722 24.6369 9.3322 24.6869 9.3022 24.7369C8.79227 25.5068 8.90225 26.5367 9.58217 27.0867C9.74215 27.2166 9.93213 27.3066 10.1321 27.3666C9.92213 27.4666 9.72215 27.5966 9.57217 27.7866C9.03224 28.4465 9.19222 29.4764 9.92213 30.0563C10.1321 30.2363 10.3721 30.3363 10.622 30.3963C10.2321 30.6963 9.99212 31.1362 10.0021 31.6362C10.0121 31.9461 10.1221 32.2261 10.3021 32.4661C10.672 32.976 10.722 33.6359 10.632 34.2659C10.622 34.3459 10.612 34.4359 10.612 34.5158C10.612 34.7758 10.692 35.0258 10.832 35.2358C11.142 35.7457 11.282 36.3456 11.142 36.9256C11.112 37.0456 11.092 37.1756 11.102 37.3055C11.122 38.1655 11.9019 38.8454 12.8418 38.8054H12.8818C12.6118 39.0854 12.4618 39.4553 12.4718 39.8553C12.4918 40.7152 13.2717 41.3951 14.2116 41.3551C14.3116 41.3551 14.4016 41.3351 14.4916 41.3251C14.3216 41.5751 14.2216 41.875 14.2316 42.185C14.2516 43.0449 15.0315 43.7248 15.9714 43.6948C16.2813 43.6848 16.5713 43.5949 16.8213 43.4549C16.8213 43.4549 16.8313 43.4649 16.8413 43.4749C16.5813 43.7548 16.4213 44.1248 16.4313 44.5248C16.4513 45.3847 17.2312 46.0546 18.1711 46.0246C18.601 46.0146 18.991 45.8446 19.281 45.6046C19.321 45.6346 19.3609 45.6546 19.4009 45.6846C19.3809 45.7846 19.3809 45.8846 19.3809 45.9946C19.4009 46.8545 20.1808 47.5244 21.1207 47.4944C21.3707 47.4944 21.6107 47.4244 21.8306 47.3345C21.8306 47.3845 21.8106 47.4344 21.8206 47.4844C21.8406 48.3443 22.6205 49.0243 23.5504 48.9943C24.1203 48.9743 24.6203 48.6943 24.9203 48.2944C24.9203 48.3543 24.9103 48.4143 24.9103 48.4743C24.9302 49.3342 25.7102 50.0142 26.65 49.9842C27.4099 49.9642 28.0399 49.4742 28.2298 48.8343C28.1898 48.9443 28.1698 49.0743 28.1798 49.1943C28.1998 50.0542 29.2297 50.7141 30.4796 50.6841C30.8695 50.6741 31.2195 50.5941 31.5394 50.4641C32.1094 50.2341 32.7393 50.3541 33.2692 50.6641C33.6692 50.9041 34.2091 51.0441 34.789 51.0241C35.249 51.0141 35.6689 50.9041 36.0189 50.7341C36.1088 50.6941 36.1988 50.6541 36.2988 50.6341C36.4788 50.5841 36.6488 50.5541 36.8388 50.5541C37.1087 50.5541 37.3787 50.5941 37.6487 50.6641C37.7486 50.6841 37.8586 50.6941 37.9586 50.6641C38.3186 50.5841 38.5385 50.1641 38.5385 49.6742C38.8485 50.0042 39.3084 50.2141 39.8184 50.2141C40.7583 50.2141 41.5182 49.5142 41.5182 48.6643C41.5182 48.5943 41.5082 48.5443 41.4982 48.4843C41.8081 48.8843 42.3081 49.1443 42.878 49.1443C43.8179 49.1443 44.5778 48.4443 44.5778 47.5844C44.5778 47.5344 44.5678 47.4844 44.5578 47.4344C44.7778 47.5244 45.0077 47.5844 45.2677 47.5844C46.2076 47.5844 46.9675 46.8845 46.9675 46.0346C46.9675 45.8146 46.9175 45.6146 46.8375 45.4347C47.1475 45.7946 47.6274 46.0346 48.1773 46.0346C49.1172 46.0346 49.8771 45.3347 49.8771 44.4748C49.8771 44.0548 49.6871 43.6749 49.3972 43.3949C49.6672 43.5449 49.9671 43.6449 50.3071 43.6449C51.247 43.6449 52.0069 42.9449 52.0069 42.085C52.0069 41.7651 51.8969 41.4751 51.7269 41.2251C51.8169 41.2351 51.9169 41.2451 52.0069 41.2451C52.9467 41.2451 53.7066 40.5452 53.7066 39.6953C53.7066 39.2953 53.5367 38.9254 53.2567 38.6554H53.2967C54.2366 38.6554 54.9965 37.9555 54.9965 37.1056C54.9965 36.9756 54.9765 36.8456 54.9465 36.7256C54.7865 36.1457 54.9065 35.5457 55.2065 35.0258C55.3364 34.8058 55.4064 34.5558 55.4064 34.2959C55.4064 34.2159 55.3964 34.1259 55.3864 34.0459C55.2764 33.426 55.3064 32.756 55.6664 32.2461C55.8364 32.0061 55.9364 31.7162 55.9364 31.4062C55.9364 30.9062 55.6764 30.4663 55.2864 30.1863C55.5264 30.1163 55.7664 30.0063 55.9764 29.8264C56.6963 29.2264 56.8263 28.1965 56.2663 27.5466C55.9964 27.2266 55.6064 27.0567 55.1965 27.0367L55.0965 27.0467ZM44.2278 5.69898C44.2278 5.69898 44.2078 5.77897 44.2078 5.81897C44.1878 5.80897 44.1678 5.79897 44.1478 5.77897C44.1778 5.75897 44.2078 5.72898 44.2278 5.69898ZM11.242 21.0073C11.242 21.0073 11.202 21.0073 11.192 21.0073C11.212 21.0073 11.222 21.0073 11.242 21.0073ZM11.222 27.2966V27.3166H11.202C11.202 27.3166 11.212 27.3066 11.222 27.3066V27.2966ZM47.2575 34.5758C46.7475 36.1757 45.0277 37.9055 45.1877 39.6653C45.3577 41.4151 45.6676 40.4352 43.8679 42.295C42.0681 44.1448 42.988 43.9948 41.8081 44.9647C40.6283 45.9446 40.5783 44.6048 38.2586 45.9946C35.9489 47.3745 37.9986 47.3345 35.9489 47.3744C35.149 47.3944 34.569 47.4544 34.1391 47.5244C33.6192 47.6044 33.0992 47.4844 32.6493 47.2245C32.3593 47.0545 31.9694 46.9545 31.5094 47.1545C30.4896 47.5944 30.2596 46.1246 29.0497 46.3546C27.8399 46.5845 26.2901 45.3047 25.9101 45.7946C25.5302 46.2746 26.1201 43.8948 24.2903 44.0948C22.4606 44.3048 23.3704 42.9849 21.5407 41.905C19.7109 40.8252 22.6705 39.5453 20.6608 38.4554C18.651 37.3755 20.3008 38.5354 19.9609 36.7056C19.6309 34.8758 18.881 34.6658 18.911 33.446C18.941 32.2261 19.8609 31.9261 19.141 30.9762C18.4211 30.0263 18.911 28.7865 18.911 27.1966C18.911 25.6068 19.5009 25.3268 18.991 24.347C18.4811 23.3771 18.3411 18.8376 19.8109 17.3777C20.4408 16.7478 23.0905 14.708 24.7803 14.788C27.24 14.888 30.7295 11.5083 32.0993 12.0283C34.519 12.9582 33.7991 12.9282 35.7689 12.8582C37.7486 12.7782 37.4987 13.5781 38.7085 13.7281C39.9184 13.8881 41.7581 12.8282 42.828 15.7079C43.9079 18.5876 43.8079 18.2776 45.3577 19.9774C46.8975 21.6772 45.8576 20.8573 46.7875 22.7571C47.7274 24.6569 47.1075 24.8669 46.7975 26.9167C46.4875 28.9764 46.9475 28.9764 46.7475 31.0362C46.5375 33.086 47.7774 32.986 47.2575 34.5858V34.5758ZM48.8473 43.1149C48.8473 43.1149 48.8772 43.0849 48.8872 43.0649L48.9972 43.1949C48.9972 43.1949 48.8972 43.1449 48.8473 43.1149ZM54.6265 27.0967V27.0567C54.6265 27.0567 54.6765 27.0667 54.7065 27.0667C54.6765 27.0667 54.6565 27.0867 54.6265 27.0867V27.0967Z" fill="#DAF1F5"/>
<path d="M56.1663 27.5562C56.7262 28.2062 56.5963 29.2361 55.8764 29.836C55.6664 30.016 55.4264 30.136 55.1864 30.196C55.5764 30.4759 55.8364 30.9259 55.8364 31.4158C55.8364 31.7258 55.7364 32.0158 55.5664 32.2557C55.5364 32.2957 55.5164 32.3357 55.4864 32.3757C55.1864 32.8757 55.1764 33.4856 55.2764 34.0555C55.2864 34.1355 55.2964 34.2255 55.2964 34.3055C55.2964 34.5655 55.2264 34.8155 55.0964 35.0354C54.7965 35.5454 54.6765 36.1553 54.8365 36.7352C54.8765 36.8552 54.8865 36.9852 54.8865 37.1152C54.8865 37.9751 54.1266 38.665 53.1867 38.665H53.1467C53.4267 38.935 53.5966 39.295 53.5966 39.7049C53.5966 40.5648 52.8367 41.2548 51.8969 41.2548C51.7969 41.2548 51.7069 41.2448 51.6169 41.2348C51.7969 41.4847 51.8969 41.7747 51.8969 42.0947C51.8969 42.9546 51.1369 43.6545 50.1971 43.6545C49.8571 43.6545 49.5471 43.5545 49.2872 43.4045C49.5871 43.6845 49.7671 44.0644 49.7671 44.4844C49.7671 45.3443 49.0072 46.0442 48.0673 46.0442C47.5274 46.0442 47.0375 45.8043 46.7275 45.4443C46.8075 45.6243 46.8575 45.8343 46.8575 46.0442C46.8575 46.9041 46.0976 47.5941 45.1577 47.5941C44.9077 47.5941 44.6678 47.5441 44.4478 47.4441C44.4478 47.4941 44.4678 47.5441 44.4678 47.5941C44.4678 48.454 43.7079 49.1539 42.768 49.1539C42.1981 49.1539 41.6881 48.8939 41.3882 48.494C41.3882 48.554 41.4082 48.604 41.4082 48.6739C41.4082 49.5338 40.6483 50.2238 39.7084 50.2238C39.1984 50.2238 38.7385 50.0138 38.4285 49.6838C38.4285 50.1838 38.2086 50.5937 37.8486 50.6737C37.7486 50.6937 37.6386 50.6937 37.5386 50.6737C37.2687 50.6037 36.9987 50.5537 36.7287 50.5637C37.0287 50.2838 37.3187 49.9038 37.4287 49.4239C37.6986 48.254 38.5185 50.3338 39.6384 49.1739C40.7682 48.004 41.8581 49.1039 42.358 47.5441C42.858 45.9842 44.6878 47.5441 45.1577 45.9642C45.6276 44.3944 49.7271 44.9843 48.4873 44.0045C47.2574 43.0346 49.6171 41.6947 52.3968 38.815C55.1664 35.9353 53.6866 37.2152 52.2968 33.7156C50.907 30.226 51.9868 26.9263 52.8067 23.8966C53.6266 20.867 51.6769 21.017 49.8171 18.9572C47.9673 16.8974 50.1771 16.1275 49.3472 13.4478C48.5273 10.7681 46.2676 13.5478 44.1078 10.7181C41.9481 7.88838 41.7981 10.3081 39.9383 10.0481C38.0886 9.79818 30.0596 7.06847 28.4198 7.68841C26.78 8.30834 26.98 10.5681 24.7003 11.238C22.4205 11.9079 20.2908 11.088 19.5109 8.92827C18.731 6.76851 20.7008 7.63841 20.6508 6.50853C20.6008 5.37866 20.8207 5.38866 22.4205 3.83882C23.0105 3.26889 23.1904 2.66895 23.1205 2.10901C23.6204 2.04902 24.0803 1.80905 24.4403 1.44908C24.9002 0.969137 25.5301 0.679169 26.2401 0.679169C26.49 0.679169 26.74 0.719164 26.97 0.789157C27.6699 1.00913 28.3998 0.809155 28.9897 0.3892C29.0597 0.339206 29.1397 0.289211 29.2097 0.249216C30.2596 -0.320722 31.5994 0.11923 32.2093 1.23911C32.3493 1.50908 32.4293 1.77905 32.4793 2.05902C32.4993 2.01902 32.4993 1.96903 32.5293 1.92903C33.0292 0.949139 34.2891 0.589179 35.3589 1.13912C36.0188 1.46908 36.4488 2.07902 36.5588 2.71895C36.5888 2.51897 36.6388 2.31899 36.7388 2.12901C37.2387 1.14912 38.4985 0.789157 39.5684 1.3391C39.7584 1.43909 39.9283 1.54907 40.0683 1.67906C40.5983 2.14901 41.2782 2.44898 41.9681 2.30899C42.438 2.209 42.958 2.269 43.4379 2.51897C44.2978 2.95892 44.7577 3.83882 44.6478 4.67873C44.8677 4.42876 45.1377 4.25878 45.4577 4.19879C46.3775 4.0388 47.2974 4.85871 47.5074 6.03859C47.5574 6.36855 47.5574 6.67852 47.5074 6.97848C47.6674 6.8585 47.8674 6.75851 48.0773 6.72851C48.9972 6.56853 49.9171 7.38844 50.1271 8.56831C50.1871 8.90827 50.1771 9.24824 50.1171 9.5582C50.2771 9.44821 50.457 9.35822 50.657 9.31823C51.3469 9.18824 52.0368 9.6182 52.4268 10.3481C52.5568 10.5881 52.6568 10.8581 52.7067 11.158C52.8067 11.728 52.7167 12.2779 52.4968 12.7179C52.5768 12.6779 52.6768 12.6479 52.7667 12.6379C53.6866 12.4679 54.6065 13.2878 54.8165 14.4777C54.8865 14.8476 54.8665 15.2076 54.7965 15.5376C54.6365 16.2175 54.7665 16.9474 55.1964 17.4873C55.4464 17.7973 55.6364 18.1973 55.7164 18.6472C55.7664 18.9672 55.7664 19.2771 55.7164 19.5771C55.6064 20.227 55.7964 20.867 56.1963 21.3969C56.3263 21.5769 56.4163 21.7669 56.4463 21.9868C56.5963 22.8368 55.9763 23.6567 55.0465 23.8167C54.9565 23.8366 54.8665 23.8466 54.7765 23.8466C54.7265 23.8466 54.6665 23.8466 54.6165 23.8466C54.6165 23.8666 54.6165 23.8866 54.6165 23.8966C54.6665 23.8866 54.7265 23.8766 54.7765 23.8766C55.2864 23.8067 55.7964 23.9766 56.1363 24.3766C56.6963 25.0265 56.5663 26.0464 55.8564 26.6563C55.5964 26.8763 55.2964 26.9963 54.9965 27.0563C55.4064 27.0763 55.7964 27.2463 56.0663 27.5662L56.1663 27.5562Z" fill="#E3FBFF"/>
<path d="M27.02 4.29863C25.9501 5.78847 24.1404 5.4985 24.2704 6.4584C24.4003 7.41829 24.6803 8.53817 25.9501 7.3083C27.22 6.07844 27.1 4.72858 28.4098 5.4585C29.7197 6.18843 31.2595 6.49839 31.2595 6.49839C31.2595 6.49839 32.9593 4.91856 34.5391 5.99845C36.1189 7.07833 36.3488 7.26831 37.0887 7.53828C37.8287 7.80825 39.3285 6.60838 39.9384 6.53839C40.5483 6.4684 40.9483 5.99845 41.5082 6.68837C42.0681 7.3783 42.5681 6.79836 43.6779 7.62827C44.7878 8.45818 45.1877 9.80803 45.1877 9.80803C45.1877 9.80803 46.2676 9.49807 45.9976 8.45818C45.7277 7.41829 44.8378 6.13843 44.4178 5.81847C43.9979 5.4985 44.5378 4.67859 42.798 4.29863C41.0583 3.91867 40.9083 3.40873 39.9784 3.90867C39.0485 4.40862 38.5886 4.5686 37.9386 4.13865C37.2887 3.7087 36.9788 2.90878 35.6989 3.71869C34.4191 4.52861 33.7892 4.91856 33.0093 4.48861C32.2294 4.05866 32.2694 2.7188 30.9595 3.79869C29.6497 4.87857 29.7997 5.14854 29.1897 4.6086C28.5798 4.06866 27.7299 3.33874 27.03 4.29863H27.02Z" fill="#F5FDFF"/>
<path d="M56.1666 27.5564C56.7266 28.2064 56.5966 29.2364 55.8766 29.8364C55.6666 30.0164 55.4266 30.1364 55.1866 30.1964C55.5766 30.4764 55.8366 30.9264 55.8366 31.4164C55.8366 31.7264 55.7366 32.0164 55.5666 32.2564C55.5366 32.2964 55.5166 32.3364 55.4866 32.3764C55.4366 32.1964 55.3766 32.0164 55.2866 31.8264C54.5166 30.1364 54.3666 30.3864 53.9466 28.9964C53.5366 27.6164 54.9766 27.3564 55.3366 25.8564C55.6166 24.6564 55.1566 24.4864 54.8666 23.8564C55.3766 23.7864 55.8866 23.9564 56.2266 24.3564C56.7866 25.0064 56.6566 26.0264 55.9466 26.6364C55.6866 26.8564 55.3866 26.9764 55.0866 27.0364C55.4966 27.0564 55.8866 27.2264 56.1566 27.5464L56.1666 27.5564Z" fill="#F5FDFF"/>
<path d="M53.3467 15.7478C53.8566 13.538 53.1367 14.7179 51.4469 13.0181C50.0771 11.6482 51.7969 10.6684 52.5068 10.3484C52.6368 10.5884 52.7368 10.8583 52.7868 11.1583C52.8867 11.7282 52.7968 12.2782 52.5768 12.7181C52.6568 12.6781 52.7568 12.6481 52.8467 12.6381C53.7666 12.4682 54.6865 13.2881 54.8965 14.4779C54.9665 14.8479 54.9465 15.2079 54.8765 15.5378C54.7165 16.2177 54.8465 16.9477 55.2764 17.4876C55.5264 17.7976 55.7164 18.1975 55.7964 18.6475C55.8464 18.9674 55.8464 19.2774 55.7964 19.5774C55.6864 20.2273 55.8764 20.8672 56.2763 21.3972C56.4063 21.5772 56.4963 21.7671 56.5263 21.9871C56.6763 22.837 56.0564 23.6569 55.1265 23.8169C55.0365 23.8369 54.9465 23.8469 54.8565 23.8469C54.7865 23.6869 54.7265 23.507 54.6965 23.277C54.5265 22.0571 54.8165 21.9271 53.9366 20.2773C53.0567 18.6275 52.8068 17.9676 53.3167 15.7478H53.3467Z" fill="#F5FDFF"/>
<g style="mix-blend-mode:multiply" opacity="0.59">
<path d="M36.2188 50.664C36.1188 50.684 36.0289 50.724 35.9389 50.764C35.5889 50.934 35.169 51.044 34.709 51.054C34.1291 51.074 33.5992 50.934 33.1892 50.694C32.6593 50.3841 32.0294 50.2641 31.4594 50.494C31.1495 50.624 30.7895 50.704 30.3996 50.714C29.1497 50.744 28.1298 50.0841 28.0998 49.2242C28.0998 49.0942 28.1198 48.9742 28.1498 48.8642C27.9599 49.5042 27.3299 49.9841 26.57 50.0141C25.6302 50.0341 24.8503 49.3642 24.8303 48.5043C24.8303 48.4443 24.8303 48.3843 24.8403 48.3243C24.5403 48.7242 24.0504 49.0042 23.4704 49.0242C22.5305 49.0442 21.7506 48.3743 21.7406 47.5144C21.7406 47.4644 21.7406 47.4144 21.7506 47.3644C21.5307 47.4644 21.3007 47.5244 21.0407 47.5244C20.1009 47.5444 19.3209 46.8744 19.3009 46.0245C19.3009 45.9145 19.3009 45.8146 19.3209 45.7146C19.281 45.6846 19.241 45.6646 19.201 45.6346C18.911 45.8845 18.521 46.0445 18.0911 46.0545C17.1512 46.0745 16.3713 45.4046 16.3513 44.5547C16.3513 44.1547 16.5013 43.7948 16.7613 43.5048C16.7613 43.5048 16.7513 43.4948 16.7413 43.4848C16.4913 43.6248 16.2113 43.7148 15.8914 43.7248C14.9515 43.7448 14.1716 43.0749 14.1516 42.2149C14.1516 41.905 14.2416 41.595 14.4116 41.355C14.3216 41.365 14.2316 41.385 14.1316 41.385C13.1917 41.415 12.4118 40.7351 12.3918 39.8852C12.3818 39.4852 12.5418 39.1153 12.8018 38.8353H12.7618C11.8219 38.8653 11.042 38.1854 11.022 37.3355C11.022 37.2055 11.032 37.0755 11.062 36.9555C11.212 36.3756 11.062 35.7756 10.752 35.2657C10.622 35.0557 10.542 34.8058 10.532 34.5458C10.532 34.4658 10.532 34.3758 10.552 34.2958C10.642 33.6759 10.592 33.006 10.2221 32.496C10.0421 32.256 9.94212 31.9761 9.92212 31.6661C9.91213 31.1661 10.1621 30.7262 10.542 30.4262C10.2921 30.3662 10.0521 30.2562 9.84213 30.0863C9.11223 29.4963 8.95224 28.4764 9.49218 27.8165C9.64216 27.6265 9.84213 27.4865 10.0521 27.3966C9.85213 27.3466 9.66216 27.2466 9.50218 27.1166C8.81226 26.5667 8.70228 25.5468 9.22221 24.7668C9.03224 25.8267 10.0721 26.1467 10.812 27.0866C11.3719 27.8065 9.21221 28.3665 11.8119 29.7763C13.9716 30.9462 11.072 29.9663 11.6019 33.2359C11.7919 34.3658 13.1217 34.9357 12.8318 35.5857C11.7619 37.9854 13.7216 36.9955 13.7216 37.7454C13.7216 38.4954 13.0417 39.2053 13.6417 39.7152C15.4914 41.255 15.3015 39.6352 16.2513 42.3649C16.4013 42.8049 17.5712 41.855 18.0311 44.2147C18.4611 46.3845 18.4711 42.6749 21.4007 45.8046C21.5707 45.9945 22.1106 43.8748 23.4204 45.8845C24.7303 47.8943 26.4601 47.8343 27.6799 48.5143C28.8898 49.2042 32.0394 50.0241 32.0394 50.0241C32.0394 50.0241 35.3789 50.0341 36.1688 50.694L36.2188 50.664Z" fill="#CAE6EB"/>
</g>
<g style="mix-blend-mode:multiply" opacity="0.59">
<path d="M17.3212 11.3577C15.5614 11.9677 16.6013 13.5975 15.8814 14.0475C14.4816 14.9274 12.6618 14.5274 13.3817 15.7573C14.4616 17.6071 15.1215 17.5971 12.9618 20.0768C10.3621 23.0565 12.6618 22.9265 13.0518 25.1662C13.4417 27.406 12.1219 27.116 13.0018 28.4259C13.8817 29.7357 14.4916 29.3358 15.1815 29.9857C15.8014 30.5757 14.2616 31.2556 15.6014 31.8755C16.9413 32.4954 18.3811 29.5658 16.3713 28.0159C14.3616 26.4661 13.9017 27.166 14.3616 24.7763C14.8215 22.3865 13.4817 21.7966 14.4616 20.6567C15.4415 19.5169 16.6013 19.8368 16.0614 18.137C15.5215 16.4372 13.6317 16.2872 15.8914 15.5873C18.1511 14.8874 16.1714 14.7874 18.2811 13.7975C20.3908 12.8076 16.7613 13.0776 19.231 10.7278C20.0109 9.9779 18.1611 11.0578 17.3312 11.3477L17.3212 11.3577Z" fill="#DFF2F5"/>
</g>
</svg>
