<svg width="75" height="64" viewBox="0 0 75 64" fill="none" xmlns="http://www.w3.org/2000/svg">
<path d="M69.622 33.4908C69.622 33.4908 69.8298 33.7438 69.9473 34.1143C69.3057 35.4969 67.86 37.53 66.3961 38.5511C66.1341 38.7318 65.872 38.9035 65.619 39.0571C65.619 39.0571 65.619 39.0571 65.61 39.0571C63.6762 40.2228 61.0919 41.2619 57.6943 41.7408C53.8178 42.3011 48.875 42.1204 42.631 40.5842C38.131 39.4728 34.2003 37.042 30.9925 34.5842C29.4112 33.3824 28.0106 32.1535 26.8088 31.0872C26.7455 31.024 26.6732 30.9697 26.61 30.9155C26.5829 30.8884 26.5467 30.8613 26.5196 30.8342C26.0588 30.4095 25.1823 29.4788 24.2877 28.5571C23.3389 27.5812 22.381 26.6053 21.866 26.2438C18.4503 23.795 14.5196 22.3041 12.2154 21.3191C12.2063 21.3191 12.1973 21.3101 12.1883 21.3011C7.22743 19.1776 0.730445 13.9547 0.260566 11.8402L0.0527344 7.02396C0.0527344 7.02396 8.82683 3.54505 11.5196 4.90951C12.4232 5.37035 18.6853 8.31613 26.6371 12.0481C27.0798 12.2559 27.5317 12.4728 27.9925 12.6896C31.9774 14.5511 36.3238 16.5842 40.5889 18.5902C46.128 21.1836 51.5407 23.7047 55.869 25.7288C55.9774 25.783 56.0859 25.8282 56.1853 25.8824C56.4654 26.0179 56.7455 26.1444 57.0166 26.271C57.0618 26.289 57.107 26.3161 57.1521 26.3342C61.9774 28.5842 65.1582 30.0752 65.1582 30.0752L66.0708 29.9035L69.4955 29.1625L69.613 33.5089L69.622 33.4908Z" fill="#0DB4A6"/>
<path d="M70.2545 33.1112C70.2183 33.4003 70.128 33.7076 69.9924 34.0238C69.9834 34.051 69.9653 34.0871 69.9563 34.1142C69.3147 35.4967 67.8689 37.5299 66.4051 38.551C66.143 38.7317 65.881 38.9034 65.628 39.057C65.628 39.057 65.628 39.057 65.6189 39.057C63.6852 40.2226 61.1009 41.2618 57.7033 41.7407L57.649 37.819V36.6443C59.9804 37.4666 61.128 35.6142 62.7364 33.4184C62.9533 33.1293 63.1701 32.8311 63.4051 32.5329C64.137 31.5931 64.9954 30.6443 66.0978 29.8672L69.6671 26.7769C69.6671 26.7769 70.4623 31.3582 70.2635 33.0931L70.2545 33.1112Z" fill="#25C6B8"/>
<path d="M32.0949 24.5632L32.0135 25.2681L31.7605 27.6175L31.5437 29.6054L30.9925 34.6024C29.4111 33.4006 28.0105 32.1717 26.8087 31.1054C26.7455 31.0421 26.6732 30.9879 26.6099 30.9337C26.5828 30.9066 26.5467 30.8795 26.5196 30.8524C26.0587 30.4277 25.1822 29.497 24.2876 28.5753C23.3388 27.5994 22.381 26.6235 21.866 26.262C18.4503 23.8132 14.5196 22.3223 12.2154 21.3373C12.2063 21.3373 12.1973 21.3283 12.1882 21.3193L12.1611 16.6928L12.1431 13.3042L15.9473 15.4548L16.4533 15.7349L23.9623 19.9729L25.4172 20.7952L32.0949 24.5632Z" fill="#02AB9D"/>
<path d="M0.0527753 7.0151C0.0527753 7.0151 -0.462285 1.84642 9.31482 0.491C17.4293 -0.629482 22.0106 6.55425 30.0257 9.78919C35.5016 12.003 55.2546 15.3916 64.9865 21.6536C70.4353 25.1597 71.2215 27.8886 67.1823 33.3916C59.2757 44.1446 43.9684 37.0151 39.8208 34.8645C34.5166 32.1085 28.616 25.982 22.7606 21.7711C20.2395 19.9458 0.567835 12.5362 0.0527753 7.0151Z" fill="#66D0C7"/>
<path d="M54.3418 29.8494C54.3418 29.8494 49.0196 24.3735 42.9473 22.9909C36.875 21.6084 21.8208 19.3855 21.8208 19.3855L15.1882 15.5903L28.3358 12.0662L24.8388 8.1084L48.8298 20.0451C48.8298 20.0451 49.381 22.6204 51.3238 24.2921C52.887 25.6295 56.4834 28.7198 56.4834 28.7198L54.3328 29.8494H54.3418Z" fill="#21BAAD"/>
<path d="M51.8389 13.1778C51.8389 13.1778 51.7485 13.1688 51.5768 13.1326C49.6069 12.8525 37.1099 11.1085 32.6732 11.7049C32.1401 11.7772 30.5768 12.238 30.3148 12.3826L24.8389 8.09949C24.8389 8.09949 28.2365 6.68986 31.878 6.12961C37.2997 5.30733 45.3148 5.18986 49.4533 8.06335V8.09046L50.7003 10.3043L51.8479 13.1597L51.8389 13.1778Z" fill="#AB17A3"/>
<path d="M51.5769 13.1418C49.607 12.8617 37.11 11.1177 32.6733 11.7141C31.6612 11.3797 31.0558 11.1809 31.0558 11.1809C31.0558 11.1809 35.9805 10.1779 44.4022 9.62672C45.9474 9.52732 49.4624 8.09961 49.4624 8.09961C49.4624 8.09961 50.601 10.7111 51.5769 13.1327V13.1418Z" fill="#9E1597"/>
<path d="M55.6882 21.247L54.64 22.1777L54.125 22.6295L52.634 23.4247L52.4262 23.5331C37.6521 17.4789 29.1852 17.6686 25.0196 18.3644C24.9111 18.3825 24.8117 18.4006 24.7214 18.4186C23.3117 18.6626 21.8208 19.3945 21.8208 19.3945L15.1882 15.5994C15.1882 15.5994 15.2063 15.5723 15.2153 15.5632C15.6039 15.1114 19.137 11.8494 25.0105 11.1897C29.7184 10.6566 34.4623 11.1355 38.5376 11.7229C44.7726 12.6084 49.4714 13.9367 50.1943 13.3765C51.6129 12.2741 49.6521 8.46081 49.4623 8.1084C49.4985 8.15358 49.5708 8.26201 49.6792 8.4337C50.7184 10.006 54.9021 16.3855 55.1099 17.1445C55.1822 17.4337 55.3991 17.9849 55.4804 18.5994C55.6431 19.765 55.6882 21.1295 55.6882 21.265V21.247Z" fill="#BF2CB7"/>
<path d="M56.6281 28.4401C56.619 28.5124 56.6009 28.5666 56.5829 28.6028C56.357 29.154 54.5317 29.9763 54.5317 29.9763C54.5317 29.9763 54.5317 29.9672 54.5407 29.9582C55.3359 28.413 52.6973 23.6419 52.6973 23.6419L52.6341 23.4431V23.416L51.1883 18.907L50.8991 18.0034L49.5076 13.6479C49.5076 13.6479 54.3148 18.7895 55.616 21.0847C55.6431 21.1299 55.6702 21.1841 55.6883 21.2293C56.8178 23.416 56.8088 27.4371 56.6281 28.422V28.4401Z" fill="#C238BB"/>
<path d="M54.5497 29.9575C54.5497 29.9575 54.5497 29.9665 54.5406 29.9756C54.5406 29.9756 54.3057 30.0027 54.3509 29.6864C54.7214 27.1563 52.4262 23.5328 52.4262 23.5328C52.4262 23.5328 52.372 23.4244 52.5888 23.2979C52.5888 23.2979 55.3449 28.4213 54.5497 29.9665V29.9575Z" fill="#AB17A3"/>
<g style="mix-blend-mode:overlay" opacity="0.28">
<path d="M56.6281 28.44C56.348 28.44 56.2666 25.187 54.6763 22.2502C54.6672 22.2231 54.6492 22.196 54.6311 22.1779C53.8992 20.8406 53.0407 19.4942 51.8751 18.6267C51.5678 18.3918 51.2425 18.193 50.8992 18.0213C50.2937 17.7231 49.6251 17.5333 48.8931 17.4791C43.7877 17.1086 40.7154 14.4701 38.5468 11.7141C44.7817 12.5996 49.4805 13.9279 50.2034 13.3677C51.6221 12.2653 49.6612 8.45202 49.4715 8.09961C49.5076 8.14479 49.5799 8.25322 49.6883 8.42491C50.7275 9.9972 54.9112 16.3767 55.119 17.1358C55.1913 17.4249 55.4082 17.9761 55.4895 18.5906C55.6522 19.7562 55.6974 21.1207 55.6974 21.2562C56.8269 23.443 56.8178 27.4641 56.6371 28.449L56.6281 28.44Z" fill="#E3A3E0"/>
</g>
<path d="M25.0196 18.3554C24.9111 18.3734 24.8117 18.3915 24.7214 18.4096C23.3117 18.6536 21.8208 19.3855 21.8208 19.3855L15.1882 15.5903C15.1882 15.5903 15.2063 15.5632 15.2153 15.5542C15.6039 15.1023 19.137 11.8403 25.0105 11.1807C25.0105 11.1807 22.8147 15.1204 25.0105 18.3644L25.0196 18.3554Z" fill="#B91BB2"/>
<g style="mix-blend-mode:multiply" opacity="0.38">
<path d="M62.2576 40.6479C59.8449 41.7322 61.0829 41.2804 57.6853 41.7593C53.8088 42.3196 48.866 42.1389 42.6221 40.6027C38.1221 39.4913 34.1913 37.0606 30.9835 34.6027C29.4022 33.4009 28.0016 32.172 26.7998 31.1057C26.7365 31.0425 26.6642 30.9883 26.601 30.934C26.5739 30.9069 23.5558 27.8256 23.5558 27.8256C23.5558 27.8256 25.0106 27.6449 25.869 27.2744C26.7275 26.9039 27.8118 25.7925 27.8118 25.7925C27.8118 25.7925 29.3028 26.4792 31.7606 27.6178C41.3299 32.0365 44.0949 26.4973 53.4564 30.7804C55.1552 31.5575 61.8419 36.6991 61.9594 37.7292C62.1492 38.2081 62.4383 39.5726 62.2666 40.6479H62.2576Z" fill="#00B0A1"/>
</g>
<path d="M74.8359 49.9371L74.4564 54.9431C74.4564 54.9431 71.7546 61.4491 61.6431 63.1931C57.7847 63.8708 52.8419 63.8437 46.5437 62.4883C42.0076 61.5124 38.0046 59.1992 34.7335 56.8407C33.116 55.6841 31.6793 54.5004 30.4413 53.4793C24.2877 48.3196 19.1461 45.5726 15.5678 44.154C15.5588 44.154 15.5497 44.154 15.5407 44.1449C10.5166 42.1479 3.86601 37.1329 3.33288 35.0184L2.98047 30.2022C2.98047 30.2022 11.6461 26.4612 14.3841 27.7534C17.122 29.0455 68.7636 51.2745 68.7636 51.2745L69.6672 51.0757L74.8359 49.9371Z" fill="#0DB4A6"/>
<path d="M74.8359 49.937L74.4564 54.943C74.4564 54.943 71.7546 61.4491 61.6431 63.193L61.4263 58.1057C65.0949 59.2713 65.7094 54.0756 69.6763 51.0756L74.8449 49.937H74.8359Z" fill="#25C6B8"/>
<path d="M35.5377 46.7835L34.7335 56.8498C33.116 55.6931 31.6793 54.5094 30.4414 53.4883C24.2877 48.3287 19.1462 45.5817 15.5679 44.163C15.5588 44.163 15.5498 44.163 15.5407 44.154L15.2426 36.1479L35.5287 46.7925L35.5377 46.7835Z" fill="#02AB9D"/>
<path d="M2.98046 30.2116C2.98046 30.2116 2.31179 25.061 12.0437 23.4074C20.122 22.0429 24.9202 29.0821 33.0256 32.0821C38.5648 34.1243 58.6793 37.7297 68.5919 43.6935C74.1491 47.0369 77.8359 49.7929 71.5829 55.1604C63.116 62.4255 47.7726 58.8743 43.5708 56.8411C38.1853 54.2477 30.875 48.8803 24.9022 44.8411C22.3268 43.0971 3.89311 34.1152 2.98046 30.2116Z" fill="#66D0C7"/>
<path d="M59.7184 48.4643C59.7184 48.4643 52.7245 44.2353 46.5166 43.8558C40.2998 43.4673 25.7425 43.142 25.7425 43.142L19.4263 38.4884L31.2275 35.154L27.351 31.5034L51.866 39.9884C51.866 39.9884 52.8239 42.4462 55.0106 43.7835C56.7727 44.8588 61.5347 46.7926 61.5347 46.7926L59.7365 48.4643H59.7184Z" fill="#21BAAD"/>
<path d="M53.7184 32.7413C53.7184 32.7413 53.6281 32.7413 53.4564 32.7413C51.4684 32.7775 38.854 33.0576 34.5708 34.3588C34.0558 34.5124 33.6672 34.6841 33.4232 34.8648L27.3329 31.5124C27.3329 31.5124 29.3841 30.1118 32.8901 28.9823C38.113 27.3016 46.0016 25.901 50.5467 28.0787L50.5648 28.1058L52.1371 30.0937L53.7275 32.7323L53.7184 32.7413Z" fill="#AB17A3"/>
<path d="M53.4564 32.7413C51.4684 32.7774 38.854 33.0575 34.5709 34.3587C33.5227 34.1961 32.8901 34.0967 32.8901 34.0967C32.8901 34.0967 46.5438 31.4491 48.2335 31.3316C49.9233 31.2051 50.5648 28.1147 50.5648 28.1147C50.5648 28.1147 52.11 30.5093 53.4564 32.7503V32.7413Z" fill="#9E1597"/>
<path d="M59.3479 39.5543L58.0196 41.1537L56.881 42.5272C41.3298 38.9217 32.0768 40.8013 28.0738 42.1567C26.4924 42.6898 25.7334 43.1416 25.7334 43.1416L18.5858 38.479C21.1611 36.9157 24.0165 35.8223 26.9262 35.0633C31.4985 33.8615 36.2424 33.5 40.3629 33.4187C46.6611 33.2922 51.5135 33.8525 52.128 33.1838C53.3479 31.8645 50.8087 28.4217 50.5557 28.1055C50.9804 28.5482 56.7545 34.6928 58.1551 36.1657C58.1732 36.1928 58.2003 36.2199 58.2183 36.247C59.2485 37.4037 59.3388 39.5452 59.3388 39.5452L59.3479 39.5543Z" fill="#BF2CB7"/>
<path d="M61.5076 46.8016C61.372 47.3889 59.7003 48.4913 59.7003 48.4913C59.7003 48.4913 59.7003 48.4823 59.7003 48.4732C60.2335 46.8196 56.872 42.5365 56.872 42.5365L56.7817 42.3467L54.6311 38.1088L52.1281 33.1841C52.1281 33.1841 57.6943 37.4853 59.3479 39.5546C60.9925 41.6238 61.6431 46.2142 61.5076 46.8016Z" fill="#C238BB"/>
<path d="M59.7184 48.4642C59.7184 48.4642 59.7184 48.4732 59.7184 48.4823C59.7184 48.4823 59.4925 48.5455 59.4835 48.2202C59.4473 45.663 56.601 42.4461 56.601 42.4461C56.601 42.4461 56.5287 42.3467 56.7275 42.1841C56.7275 42.1841 60.2606 46.8016 59.7275 48.4552L59.7184 48.4642Z" fill="#AB17A3"/>
<g style="mix-blend-mode:overlay" opacity="0.28">
<path d="M61.5075 46.8013C61.2364 46.9006 60.0707 43.8103 58.0195 41.1537C57.0798 39.9247 55.9503 38.7952 54.631 38.1085C53.6822 37.6115 52.643 37.3494 51.4954 37.4488C46.3991 37.9006 42.9473 35.7952 40.3629 33.4187C46.6611 33.2922 51.5135 33.8525 52.128 33.1838C53.3479 31.8645 50.8087 28.4217 50.5557 28.1055C50.9804 28.5482 56.7545 34.6928 58.1551 36.1657C58.1732 36.1928 58.2003 36.2199 58.2183 36.247C59.2485 37.4037 59.3388 39.5452 59.3388 39.5452C60.9834 41.6145 61.634 46.2049 61.4985 46.7922L61.5075 46.8013Z" fill="#E3A3E0"/>
</g>
<path d="M28.0738 42.1481C26.4924 42.6812 25.7334 43.133 25.7334 43.133L18.5858 38.4703C21.1611 36.9071 24.0165 35.8137 26.9262 35.0547C26.9262 35.0547 25.39 39.2926 28.0738 42.1481Z" fill="#B91BB2"/>
</svg>
