<svg width="54" height="78" viewBox="0 0 54 78" fill="none" xmlns="http://www.w3.org/2000/svg">
<path d="M25.785 52.1162C25.425 56.0569 22.305 74.0301 23.045 76.6805C23.045 76.6805 22.355 76.8305 21.465 76.8806C20.895 76.9106 20.255 76.9006 19.655 76.7905C19.275 76.7305 18.925 76.6105 18.615 76.4505C17.045 75.6103 19.875 60.3676 20.415 59.1774C20.885 58.1372 22.725 45.9451 24.615 43.0346C24.805 42.7545 25.045 42.5245 25.225 42.5345C25.245 42.5345 25.255 42.5345 25.275 42.5345C25.335 42.5545 25.385 42.6045 25.425 42.7045C25.565 43.0746 26.165 48.1755 25.795 52.1162H25.785Z" fill="white" stroke="black" stroke-width="0.1" stroke-miterlimit="10"/>
<path d="M25.265 42.5344C25.335 43.7846 25.265 45.0449 25.155 46.2951C24.805 50.8259 23.375 55.1666 22.665 59.6374C21.785 65.3184 21.475 71.1295 21.475 76.8705C20.905 76.9005 20.265 76.8905 19.665 76.7805C19.965 70.9594 20.565 65.1784 21.755 59.4674C22.975 53.8464 25.245 48.3354 25.225 42.5244C25.245 42.5244 25.255 42.5244 25.275 42.5244L25.265 42.5344Z" fill="white" stroke="black" stroke-width="0.1" stroke-miterlimit="10"/>
<path d="M21.475 76.9903C21.225 77.0203 21.005 76.8302 21.005 76.5802C20.745 63.6679 20.965 50.0655 22.115 37.1932C22.955 29.1018 23.865 20.7503 27.775 13.449C29.325 10.6185 31.195 7.40796 34.445 6.31777C36.095 5.77767 37.945 6.33777 39.235 7.41796L38.985 7.72802C37.005 6.09773 34.445 6.25776 32.545 7.92805C30.695 9.47833 29.435 11.6087 28.355 13.7491C24.625 21.0004 23.875 29.2818 23.185 37.2932C22.455 47.005 22.335 56.7767 22.445 66.5184C22.475 69.2889 22.555 72.2594 22.645 75.0399L22.745 76.4602C22.755 76.6802 22.595 76.8702 22.365 76.9002L21.465 77.0003L21.475 76.9903Z" fill="white" stroke="black" stroke-width="0.1" stroke-miterlimit="10"/>
<path d="M36.755 1.1566C36.195 1.51666 25.105 7.70775 23.645 24.6207C23.625 24.8008 23.745 24.9708 23.925 25.0208L24.445 25.1608C24.665 25.2208 24.885 25.0908 24.935 24.8708C25.505 22.4804 28.695 9.88814 33.605 5.44736C39.035 0.526487 37.325 0.816538 36.755 1.1766V1.1566Z" fill="white" stroke="black" stroke-width="0.1" stroke-miterlimit="10"/>
<path d="M41.5592 17.6585C42.4351 17.451 42.8315 15.958 42.4444 14.324C42.0573 12.69 41.0333 11.5337 40.1574 11.7413C39.2814 11.9489 38.8851 13.4418 39.2722 15.0758C39.6593 16.7098 40.6832 17.8661 41.5592 17.6585Z" fill="white" stroke="black" stroke-width="0.1" stroke-miterlimit="10"/>
<path d="M39.2548 12.3079C39.0748 12.5279 37.4248 17.0487 35.8348 20.8594C34.4648 24.13 36.3248 29.5209 36.8648 29.7209C37.4048 29.921 39.5448 28.9508 40.1048 27.5606C40.6648 26.1703 41.0148 22.8697 40.4548 20.2793C40.1648 18.939 39.7448 16.9887 39.5248 15.3884C39.3248 13.8881 40.0948 12.0078 40.0948 12.0078L39.2548 12.3079Z" fill="white"/>
<path d="M39.2548 12.3079C39.0748 12.5279 37.4248 17.0487 35.8348 20.8594C34.4648 24.13 36.3248 29.5209 36.8648 29.7209C37.4048 29.921 39.5448 28.9508 40.1048 27.5606C40.6648 26.1703 41.0148 22.8697 40.4548 20.2793C40.1648 18.939 39.7448 16.9887 39.5248 15.3884C39.3248 13.8881 40.0948 12.0078 40.0948 12.0078L39.2548 12.3079Z" stroke="black" stroke-width="0.1" stroke-miterlimit="10"/>
<path d="M41.0249 12.1079C41.0549 12.2179 41.9449 12.878 42.3449 14.2282C43.0049 16.4686 44.0849 20.1893 47.3049 23.3199C52.4549 28.3407 52.9949 25.8303 52.9749 25.6803C52.9649 25.5803 52.4949 21.9996 50.0249 18.8691C48.6649 17.1488 45.5949 16.0786 44.0949 14.6683C42.5949 13.2581 41.4649 11.7578 41.4649 11.7578L41.0249 12.1079Z" fill="white"/>
<mask id="mask0_208_195574" style="mask-type:luminance" maskUnits="userSpaceOnUse" x="41" y="11" width="12" height="16">
<path d="M41.0249 12.1079C41.0549 12.2179 41.9449 12.878 42.3449 14.2282C43.0049 16.4686 44.0849 20.1893 47.3049 23.3199C52.4549 28.3407 52.9949 25.8303 52.9749 25.6803C52.9649 25.5803 52.4949 21.9996 50.0249 18.8691C48.6649 17.1488 45.5949 16.0786 44.0949 14.6683C42.5949 13.2581 41.4649 11.7578 41.4649 11.7578L41.0249 12.1079Z" fill="white"/>
</mask>
<g mask="url(#mask0_208_195574)">
<path d="M45.4648 18.6289C45.5248 18.7089 45.5948 18.7989 45.6548 18.8789C46.1748 19.5589 46.6048 20.2689 46.9748 21.0289C46.8848 20.8589 46.7948 20.6889 46.6948 20.5289C46.3048 19.8789 45.8848 19.2589 45.4648 18.6389V18.6289Z" fill="white" stroke="black" stroke-width="0.1" stroke-miterlimit="10"/>
</g>
<path d="M41.0249 12.1079C41.0549 12.2179 41.9449 12.878 42.3449 14.2282C43.0049 16.4686 44.0849 20.1893 47.3049 23.3199C52.4549 28.3407 52.9949 25.8303 52.9749 25.6803C52.9649 25.5803 52.4949 21.9996 50.0249 18.8691C48.6649 17.1488 45.5949 16.0786 44.0949 14.6683C42.5949 13.2581 41.4649 11.7578 41.4649 11.7578L41.0249 12.1079Z" stroke="black" stroke-width="0.1" stroke-miterlimit="10"/>
<path d="M39.895 12.6581C39.895 12.6581 39.395 17.4989 38.895 20.6695C38.395 23.84 39.7549 26.7405 41.6849 27.9007C43.6149 29.061 44.6249 28.9409 44.6249 28.9409C44.6249 28.9409 47.685 27.9708 47.495 23.56C47.335 20.0294 45.865 18.8992 44.455 17.2789C43.045 15.6586 40.9849 12.168 40.9849 12.168L39.895 12.6581Z" fill="white" stroke="black" stroke-width="0.1" stroke-miterlimit="10"/>
<path d="M41.5148 9.91722C41.9048 11.4472 41.8648 12.1772 40.6348 12.5272C40.6048 12.5372 40.5648 12.5472 40.5248 12.5572C39.1148 12.9272 38.7548 12.2772 38.3548 10.7072C37.9548 9.13722 38.3348 7.68722 39.2048 7.46722C39.2448 7.45722 39.2748 7.45722 39.3148 7.44722C40.1648 7.33722 41.1348 8.40722 41.5148 9.91722Z" fill="white" stroke="black" stroke-width="0.1" stroke-miterlimit="10"/>
<path d="M38.4748 55.4961C38.1148 55.8262 31.2248 60.7871 28.7248 64.4677C26.4048 67.8583 25.5348 71.829 25.5748 75.9097C25.5748 76.2498 25.3248 76.5399 24.9848 76.5799L22.9248 76.8199C22.7148 76.8399 22.5148 76.6999 22.4748 76.4898C21.0748 68.9185 24.7148 61.3072 31.3648 57.3565C33.5048 56.1162 38.2248 55.1461 38.3548 55.1161C38.4248 55.0961 38.5348 55.1161 38.5948 55.1661C38.6548 55.2261 38.6548 55.3261 38.4748 55.4961Z" fill="white" stroke="black" stroke-width="0.1" stroke-miterlimit="10"/>
<path d="M38.4749 55.4961C38.1149 55.8261 31.2249 60.787 28.7249 64.4677C26.3949 67.8783 25.5349 71.859 25.5749 75.9697C25.5749 76.2797 25.3449 76.5498 25.0349 76.5798L23.5249 76.7498C22.2749 69.1685 26.0249 61.6372 32.7349 57.7965C34.5649 56.7763 36.5249 55.5461 38.6049 55.166C38.6649 55.226 38.6649 55.326 38.4849 55.4961H38.4749Z" fill="white" stroke="black" stroke-width="0.1" stroke-miterlimit="10"/>
<path d="M19.3949 76.3398C19.3649 76.6699 19.1549 76.9099 18.9449 76.8999L18.3249 76.8599L16.8049 76.7699C16.4549 76.7399 16.1949 76.3198 16.1849 75.7997C16.1849 75.7197 16.1849 75.6397 16.1849 75.5497C16.1349 71.899 15.7749 68.3384 14.9849 65.0378C13.7749 57.4665 11.8549 48.8049 10.2849 45.6644C7.66493 40.3834 1.75494 31.1718 1.17494 30.3917C1.17494 30.3717 1.15494 30.3617 1.15494 30.3517C0.954935 30.1116 0.954932 29.9516 1.01493 29.8516C1.07493 29.7516 1.19493 29.7316 1.26493 29.7416C1.40493 29.7816 4.62493 29.8516 7.50493 31.992C14.5449 37.2129 20.6549 64.5077 19.4049 76.3298L19.3949 76.3398Z" fill="white" stroke="black" stroke-width="0.1" stroke-miterlimit="10"/>
<path d="M18.3249 76.8599L16.8049 76.7698H16.7549C16.4349 76.7498 16.1849 76.3698 16.1849 75.8897V75.7997C16.1849 75.7197 16.1849 75.6396 16.1849 75.5496C16.1249 73.1692 15.6649 69.2785 14.9849 65.0378C13.7749 57.4664 11.8549 48.8049 10.2849 45.6644C7.66493 40.3834 1.75494 31.1718 1.17494 30.3917C1.17494 30.3717 1.15494 30.3617 1.15494 30.3517C0.954935 30.1116 0.954932 29.9516 1.01493 29.8516C3.16493 30.2116 4.82494 31.9919 6.40494 33.7322C14.4049 42.5238 19.4349 65.0178 18.3249 76.8499V76.8599Z" fill="white" stroke="black" stroke-width="0.1" stroke-miterlimit="10"/>
</svg>
