<svg width="22" height="76" viewBox="0 0 22 76" fill="none" xmlns="http://www.w3.org/2000/svg">
<path d="M12.9756 67.9072C12.7671 68.4818 12.5753 68.6118 12.3043 68.2385C11.7289 67.45 10.8199 64.3547 8.74768 58.399C4.45306 46.0514 2.33911 22.1152 2.33911 22.1152C2.33911 22.1152 2.33912 22.1194 2.34328 22.132C2.66851 22.7737 13.0965 43.5894 12.9714 52.1623C12.8505 60.8652 13.6177 66.1037 12.9756 67.9072Z" fill="#6CBD52"/>
<path d="M12.9756 67.907C12.7671 68.4816 12.5753 68.6116 12.3043 68.2383C12.0708 64.2874 11.3203 56.5534 10.7824 52.3047C10.0986 46.9487 2.58091 22.8826 2.34741 22.1318C2.67264 22.7735 13.1006 43.5892 12.9756 52.1621C12.8546 60.865 13.6218 66.1035 12.9797 67.907H12.9756Z" fill="#5FA648"/>
<path d="M11.8707 17.4854C12.8547 23.4998 13.8554 29.5142 14.0931 35.6209C14.1431 37.6677 13.8596 39.6809 13.8012 41.7235C13.5218 48.4425 13.5385 56.1975 13.4426 62.9334C13.4301 63.94 13.3008 64.9298 12.8797 65.9532L12.4544 65.9993C11.8915 65.0892 11.7164 63.9903 11.6872 62.9459C11.6122 55.8284 12.1584 48.7403 12.7421 41.6521C12.8881 39.6473 13.255 37.6425 13.2466 35.6335C13.1633 29.5855 12.3377 23.5417 11.4537 17.5608L11.8749 17.4895L11.8707 17.4854Z" fill="#559541"/>
<path d="M18.6962 59.6364C16.5823 69.5807 12.0166 75.8217 12.0166 75.8217C11.8248 75.9517 11.6622 76.0104 11.5163 75.9978C11.3995 75.9936 11.2953 75.9391 11.2077 75.8426H11.1994C10.9993 75.6036 10.8742 75.1338 10.8158 74.4627C10.674 72.8228 10.9409 69.9666 11.4662 66.3512C11.5663 65.6508 11.6789 64.9252 11.7998 64.1745C11.8415 63.9102 11.8832 63.6418 11.9291 63.3734C12.2376 61.486 12.5962 59.4518 12.9881 57.3254C13.1132 56.6669 13.2383 55.9958 13.3676 55.3206C13.4218 55.0437 13.4718 54.7502 13.526 54.444C14.3099 49.9856 15.1313 42.952 15.1062 39.9783C15.0771 36.8033 16.97 28.1172 16.97 28.1172C16.97 28.1172 20.806 49.6962 18.6962 59.6364Z" fill="#6CBD52"/>
<path d="M16.4697 52.0617C16.2278 53.3829 15.9401 57.7993 15.0562 61.6496C13.6261 67.8569 11.4746 74.2237 11.5163 75.9978C11.3995 75.9936 11.2953 75.9391 11.2077 75.8426H11.1994C10.9993 75.6036 10.8742 75.1338 10.8158 74.4628C10.674 72.8228 10.9409 69.9666 11.4662 66.3512C11.5663 65.6508 11.6789 64.9252 11.7998 64.1745C11.8415 63.9102 11.8832 63.6418 11.9291 63.3734C12.2376 61.486 12.5962 59.4518 12.9881 57.3254C13.1132 56.6669 13.2383 55.9958 13.3676 55.3206C13.4218 55.0438 13.4718 54.7502 13.526 54.444C14.3099 49.9856 15.1313 42.952 15.1062 39.9783C15.0771 36.8033 16.97 28.1172 16.97 28.1172C16.97 28.1172 17.1034 48.6057 16.4697 52.0617Z" fill="#5FA648"/>
<path d="M0.596283 5.54912L9.15633 10.5192L7.34258 13.6774C7.34258 13.6774 5.52467 13.3629 4.07367 12.8554C-0.662918 11.1945 -0.104208 8.48084 0.71719 6.40473C0.771394 6.26632 0.833937 5.83432 0.600443 5.54492L0.596283 5.54912Z" fill="#FFC933"/>
<path d="M0.842285 5.6871L9.15633 10.5146L7.68449 13.0772C7.11743 12.985 6.37526 12.834 5.40376 12.5865C1.81796 11.6806 2.25992 9.02566 1.72622 7.31863C1.53026 6.70209 1.19253 6.14007 0.842285 5.67871V5.6871Z" fill="#FFBB00"/>
<path d="M0.596313 5.54883L9.15636 10.5189L9.0146 10.758L0.596313 5.54883Z" fill="#FFE08A"/>
<path d="M0.596313 5.54865L9.15636 10.5187L10.9701 7.36053C10.9701 7.36053 9.79012 5.93451 8.62683 4.92372C4.82838 1.6271 2.76863 3.47253 1.39686 5.2215C1.30513 5.33894 0.963224 5.61156 0.600474 5.54865H0.596313Z" fill="#FFC933"/>
<path d="M0.596313 5.54883L9.15636 10.5189L9.29395 10.2757L0.596313 5.54883Z" fill="#FFBB00"/>
<path d="M10.4072 23.1638V13.2236H14.0347C14.0347 13.2236 14.6727 14.9642 14.9603 16.4825C15.8985 21.44 13.2842 22.3124 11.0869 22.6312C10.9409 22.6563 10.5365 22.8157 10.4072 23.1638Z" fill="#FFC933"/>
<path d="M10.4072 22.8789V13.2197H13.3509C13.5552 13.7608 13.7971 14.4822 14.0681 15.451C15.0813 19.0286 12.5712 19.9681 11.3745 21.2893C10.9409 21.7674 10.6282 22.342 10.4072 22.8789Z" fill="#FFBB00"/>
<path d="M10.4072 23.1638V13.2236H10.6866L10.4072 23.1638Z" fill="#FFE08A"/>
<path d="M10.4071 23.1638V13.2236H6.77962C6.77962 13.2236 6.14168 14.9642 5.85398 16.4825C4.91583 21.44 7.53014 22.3124 9.72748 22.6312C9.87341 22.6563 10.2779 22.8157 10.4071 23.1638Z" fill="#FFC933"/>
<path d="M10.4072 23.1638V13.2236H10.1278L10.4072 23.1638Z" fill="#FFBB00"/>
<path d="M20.8644 5.32209L12.3044 10.2922L10.4906 7.13397C10.4906 7.13397 11.6706 5.70795 12.8339 4.69715C16.6323 1.40054 18.6921 3.24597 20.0639 4.99494C20.1556 5.11238 20.4975 5.385 20.8602 5.32209H20.8644Z" fill="#FFC933"/>
<path d="M20.6226 5.46055L12.3085 10.288L10.8367 7.7254C11.1994 7.27662 11.6998 6.70621 12.3961 5.98482C14.9687 3.31313 17.0326 5.02855 18.7671 5.41441C19.3967 5.55282 20.0472 5.54023 20.6184 5.46055H20.6226Z" fill="#FFBB00"/>
<path d="M20.8644 5.32227L12.3085 10.2924L12.1667 10.0491L20.8644 5.32227Z" fill="#FFE08A"/>
<path d="M20.8644 5.32255L12.3043 10.2926L14.1181 13.4509C14.1181 13.4509 15.936 13.1363 17.387 12.6288C22.1236 10.9679 21.5648 8.25428 20.7435 6.17816C20.6892 6.03976 20.6267 5.60776 20.8602 5.31836L20.8644 5.32255Z" fill="#FFC933"/>
<path d="M20.8643 5.32227L12.3085 10.2924L12.4461 10.5314L20.8643 5.32227Z" fill="#FFBB00"/>
<g style="mix-blend-mode:multiply" opacity="0.8">
<path d="M6.29184 4.71875C6.29184 4.71875 6.71712 7.43238 6.49614 8.03634C6.27515 8.6361 2.63099 9.65948 2.3558 10.0915C2.08061 10.5235 8.04303 17.7039 8.25151 17.5277C8.45999 17.3516 10.1653 16.0975 10.8033 16.1479C11.4412 16.1982 12.4127 17.3013 13.0506 17.7584C13.6094 18.1569 15.1479 18.7566 15.1479 18.7566L18.5461 9.78531C18.5461 9.78531 16.7115 9.0723 15.8984 8.40542C15.0854 7.73855 15.7317 5.3269 15.7317 5.3269L6.296 4.72294L6.29184 4.71875Z" fill="#EBAF21"/>
</g>
<path d="M11.0451 0V9.94018H7.41756C7.41756 9.94018 6.77962 8.1996 6.49192 6.68131C5.55377 1.7238 8.16807 0.851416 10.3654 0.532659C10.5114 0.507494 10.9158 0.348116 11.0451 0Z" fill="#FFE524"/>
<path d="M11.045 0.28125V9.94042H8.1013C7.897 9.39937 7.65516 8.67798 7.38414 7.70912C6.37095 4.1315 8.881 3.192 10.0777 1.87084C10.5113 1.3927 10.824 0.818104 11.045 0.28125Z" fill="#FFD024"/>
<path d="M11.0451 0V9.94018H10.7657L11.0451 0Z" fill="#FFEC61"/>
<path d="M11.045 0V9.94018H14.6725C14.6725 9.94018 15.3105 8.1996 15.5982 6.68131C16.5363 1.7238 13.922 0.851416 11.7247 0.532659C11.5787 0.507494 11.1743 0.348116 11.045 0Z" fill="#FFE524"/>
<path d="M11.045 0V9.94018H11.3202L11.045 0Z" fill="#FFD024"/>
<path d="M0.429443 16.7181L8.98951 11.748L10.8032 14.9063C10.8032 14.9063 9.62327 16.3323 8.45997 17.3431C4.66152 20.6397 2.60178 18.7943 1.23 17.0453C1.13827 16.9278 0.796366 16.6552 0.433617 16.7181H0.429443Z" fill="#FFE524"/>
<path d="M0.675415 16.5755L8.98946 11.748L10.4613 14.3107C10.0986 14.7595 9.59821 15.3299 8.9019 16.0513C6.32929 18.7229 4.26538 17.0075 2.53085 16.6217C1.90125 16.4833 1.2508 16.4958 0.679576 16.5755H0.675415Z" fill="#FFD024"/>
<path d="M0.429443 16.7181L8.98951 11.748L9.1271 11.9913L0.429443 16.7181Z" fill="#FFEC61"/>
<path d="M0.4294 16.7181L8.98946 11.7481L7.17571 8.58984C7.17571 8.58984 5.3578 8.90441 3.9068 9.4119C-0.829788 11.0728 -0.271078 13.7864 0.55032 15.8625C0.604524 16.0009 0.667067 16.4329 0.433573 16.7223L0.4294 16.7181Z" fill="#FFE524"/>
<path d="M0.429443 16.7182L8.98951 11.7481L8.84773 11.5049L0.429443 16.7182Z" fill="#FFD024"/>
<path d="M21.0812 16.7142L12.5211 11.7441L14.3349 8.58594C14.3349 8.58594 16.1528 8.9005 17.6038 9.40799C22.3404 11.0689 21.7817 13.7825 20.9603 15.8586C20.9061 15.997 20.8435 16.429 21.077 16.7184L21.0812 16.7142Z" fill="#FFE524"/>
<path d="M20.8393 16.5718L12.5253 11.7443L13.7636 9.25293C14.3307 9.3452 15.3063 9.4207 16.2737 9.66815C19.8595 10.5741 19.4175 13.229 19.9512 14.936C20.1472 15.5526 20.4849 16.1146 20.8351 16.5759L20.8393 16.5718Z" fill="#FFD024"/>
<path d="M21.0812 16.7143L12.5253 11.7442L12.6629 11.501L21.0812 16.7143Z" fill="#FFEC61"/>
<path d="M21.0812 16.7142L12.5211 11.7441L10.7074 14.9023C10.7074 14.9023 11.8874 16.3284 13.0507 17.3392C16.8491 20.6358 18.9089 18.7903 20.2806 17.0414C20.3724 16.9239 20.7143 16.6513 21.077 16.7142H21.0812Z" fill="#FFE524"/>
<path d="M21.0812 16.7142L12.5253 11.7441L12.3835 11.9874L21.0812 16.7142Z" fill="#FFD024"/>
<g style="mix-blend-mode:multiply" opacity="0.53">
<path d="M10.3862 7.40654C10.3862 7.40654 9.67324 8.18665 8.76846 8.4425C7.86367 8.70254 7.01309 8.63543 7.02977 9.0171C7.04645 9.39877 6.32511 10.0698 6.42518 10.8583C6.52942 11.6468 7.17987 11.8859 7.05061 12.4731C6.91718 13.0561 7.1757 13.8404 7.66771 14.004C8.15971 14.1675 8.78097 15.1196 9.36471 15.019C9.94844 14.9183 11.241 15.4551 11.8623 15.1028C12.4835 14.7505 13.4133 15.149 13.9679 13.2993C14.5224 11.4497 14.0179 12.1376 14.3556 11.7727C14.6934 11.412 14.9144 10.074 14.5975 9.72591C14.2806 9.3778 12.0957 7.503 10.3862 7.40234V7.40654Z" fill="#D19C1D"/>
</g>
<path d="M7.69278 13.1023C8.14309 13.4672 9.25218 13.4966 9.41063 13.6392C9.56907 13.7818 10.1486 15.0358 11.2327 14.8261C11.5621 14.7632 11.8373 14.4822 12.15 14.3522C12.863 14.0544 13.5009 13.7818 13.5093 13.3037C13.5135 12.943 14.1055 12.8717 14.4641 12.5529C14.7893 12.2635 14.8936 11.7266 14.8018 11.3953C14.8018 11.3953 14.8519 11.1562 14.9811 10.7788C15.1104 10.4013 14.5183 9.83927 14.0096 9.76378C14.0096 9.76378 13.6969 9.60021 13.9012 8.96269C13.993 8.6691 13.7344 8.13225 13.5593 7.59959C13.3467 6.96627 13.4009 6.63073 12.9506 6.34553C12.5836 6.11485 12.4169 5.87578 12.5545 5.41862C12.5545 5.41862 12.9255 4.80627 11.8623 4.75594C11.8623 4.75594 11.4871 4.56301 11.0993 4.52526C10.7115 4.48751 10.3988 4.74336 10.3905 4.81885C10.3821 4.89435 10.3654 5.02856 9.64412 5.22149C9.32723 5.30538 9.49818 5.85901 9.13544 6.10646C8.77269 6.35392 8.51418 6.3665 8.37659 6.40005C8.239 6.43361 8.23899 6.72301 7.73448 6.95788C7.22996 7.19275 6.74212 7.04176 6.37103 7.47796C5.99994 7.91415 6.14171 8.27065 6.37103 8.47617C6.47944 8.57263 6.37104 8.90817 6.44609 9.07174C6.52115 9.23531 7.15491 10.028 7.15491 10.028C7.15491 10.028 6.58785 10.46 6.90891 10.934L7.55102 11.8818C7.55102 11.8818 7.25081 12.7416 7.70111 13.1065L7.69278 13.1023Z" fill="#FFBE23"/>
<path d="M7.9929 8.92031C8.55579 9.04614 8.87267 8.93709 9.19373 8.40862C9.51895 7.88435 9.70657 7.39783 10.1402 7.56979C10.5738 7.74175 10.8949 7.05391 11.3118 7.25942C11.7288 7.46494 11.9957 8.04793 12.6211 8.47573C13.2465 8.90354 12.9213 9.47814 13.0214 9.88078C13.1214 10.2834 13.3049 11.0803 13.4592 11.1558C13.6134 11.2313 13.8052 11.8353 13.8052 11.8353L12.9088 12.0282L13.0172 12.8293L12.5335 13.2864L11.8789 13.1564L11.4911 12.7328L11.0533 12.8125L10.7198 13.3116L10.7073 13.9617L10.2903 13.9785C10.2903 13.9785 9.44806 13.1606 9.42305 13.0767C9.39803 12.9929 9.36468 12.305 9.36468 12.305L8.60165 12.2715L7.67601 12.5525L7.55926 12.1372L7.92619 11.2397L7.70103 11.0803L7.15066 10.9125L6.8421 10.5435L7.37164 9.82206L7.28407 9.41522L6.90466 9.12163L6.53356 8.8574L6.48353 8.36668C6.48353 8.36668 5.95817 8.19053 6.33759 7.48591C6.33759 7.48591 7.43001 8.79029 7.98873 8.91612L7.9929 8.92031Z" fill="#E6AB20"/>
<path opacity="0.86" d="M9.8526 11.2446C10.2404 12.0541 10.3238 12.3015 10.5698 12.6664C10.8158 13.0313 11.3119 12.658 11.3119 12.658L11.658 12.9097C11.658 12.9097 12.2334 12.809 12.3793 12.7126C12.8463 12.4022 12.9672 12.0373 13.0006 11.7773C13.034 11.513 12.4127 11.1523 12.2793 10.8504C12.1458 10.5484 12.3418 10.2758 12.1667 9.86892C11.9916 9.46209 11.5996 9.39498 11.2286 9.47467C10.8575 9.55436 10.207 9.55016 10.0486 10.0451C9.89013 10.5358 9.61494 10.7497 9.8526 11.2488V11.2446Z" fill="#E6D702"/>
<path opacity="0.43" d="M10.2612 11.3949C10.5531 12.0072 10.6156 12.196 10.8033 12.4686C10.9909 12.7412 11.362 12.4602 11.362 12.4602L11.6247 12.6489C11.6247 12.6489 12.0625 12.5734 12.1709 12.4979C12.5253 12.2631 12.6129 11.9904 12.6379 11.7891C12.6629 11.5878 12.1959 11.3152 12.0958 11.0887C11.9958 10.8622 12.1459 10.6567 12.0125 10.3463C11.879 10.0402 11.583 9.98563 11.3036 10.0485C11.0243 10.1115 10.5323 10.1073 10.4113 10.4805C10.2904 10.8538 10.082 11.0132 10.2612 11.3907V11.3949Z" fill="#5E5601"/>
<path d="M6.20419 7.74219C6.20419 7.74219 6.03741 8.02739 6.45437 8.30421C6.87132 8.58102 6.52942 8.77815 6.61698 8.87461C6.70454 8.97108 7.41752 9.12207 7.48007 9.57923C7.54261 10.0364 6.97973 10.2209 7.00475 10.5103C7.02976 10.7997 7.83032 10.8836 7.95957 11.0891C8.26395 11.5673 7.55929 11.9993 7.60099 12.2258C7.64268 12.4522 7.79696 12.5948 8.20557 12.3096C8.61419 12.0244 9.54816 11.9238 9.55233 12.4187C9.5565 12.9136 9.79833 13.7273 10.5072 13.9034C10.5072 13.9034 10.7323 14.1299 10.6156 13.3456C10.5405 12.8423 11.3828 12.3977 11.6204 12.5781C11.8581 12.7584 11.8497 13.1401 11.954 13.1569C12.0582 13.1736 12.7962 13.1736 12.8337 12.7836C12.8713 12.3935 12.5169 12.0202 12.8379 11.8692C13.159 11.7183 13.5009 11.7686 13.7219 11.7434C13.9428 11.7183 14.1471 11.7099 14.0846 11.3911C14.0221 11.0724 13.897 10.9381 14.1555 10.7746C14.414 10.611 14.585 10.0322 14.585 10.0322C14.585 10.0322 14.931 10.3426 14.4098 10.7704C13.8887 11.1982 14.3306 11.3282 14.3056 11.5086C14.2806 11.6889 14.1763 11.9154 13.6093 12.016C13.0464 12.1209 12.9213 12.0664 13.0256 12.4313C13.1298 12.7962 13.4425 13.3708 12.1583 13.4756C11.5329 13.5259 11.6288 12.8926 11.5329 12.8129C11.437 12.7332 10.8532 12.922 10.7949 13.3456C10.7365 13.7692 11.216 14.4906 9.88172 13.916C9.1729 13.6098 9.43141 12.8255 9.33551 12.4942C9.23962 12.1628 8.45992 12.5068 8.20557 12.6913C7.95123 12.8758 7.35498 12.9975 7.37583 12.2467C7.39251 11.7141 7.78861 11.777 7.78027 11.3743C7.77194 10.9717 7.18404 11.2905 6.91719 10.8375C6.65034 10.3845 6.88383 10.2293 7.05895 10.0112C7.23407 9.79314 7.54679 9.36533 6.85048 9.21434C6.37515 9.11368 6.40434 8.89558 6.38349 8.50553C6.36264 8.11547 5.90816 8.26226 6.19586 7.74638L6.20419 7.74219Z" fill="#FFCD54"/>
<path d="M9.82339 10.5396C9.82339 10.5396 10.2028 11.3533 10.3779 11.4455C10.5531 11.5378 10.6781 11.3574 10.6781 11.3574C10.6781 11.3574 10.3988 11.1519 10.257 10.9758C10.1152 10.7996 10.182 10.4473 9.81921 10.5354L9.82339 10.5396Z" fill="#D9A703"/>
<path d="M9.91516 10.7533C9.91516 10.7533 10.8283 10.9379 11.0785 11.1476C11.3286 11.3573 11.5746 11.3992 11.5746 11.3992C11.5746 11.3992 11.4287 11.1182 11.1494 10.7995C10.845 10.4513 10.3988 10.0613 10.3488 9.96063C10.2487 9.77189 9.91516 10.7533 9.91516 10.7533Z" fill="#F2D203"/>
<path d="M9.46056 10.0995C9.46056 10.0995 9.28545 9.83111 9.47725 9.68432C9.66904 9.53752 9.73158 9.28168 9.90253 9.4117C10.0735 9.54172 9.91505 9.72207 10.1611 9.68851C10.4071 9.65496 10.4529 9.65076 10.4863 9.86467C10.5196 10.0786 10.4779 10.3512 10.3237 10.4393C10.1694 10.5273 10.2444 10.5525 10.1235 10.6993C10.0026 10.8461 9.86918 10.8251 9.76077 10.8042C9.65236 10.7832 9.45223 10.6112 9.50226 10.4477C9.5523 10.2841 9.52311 10.1373 9.46474 10.0995H9.46056Z" fill="#F2DE03"/>
<path d="M11.1617 9.40751C11.1617 9.40751 11.3202 10.0073 11.537 10.217C11.7538 10.4267 11.9915 10.8377 12.0165 10.8797C12.0415 10.9216 12.0123 11.1397 12.0123 11.1397C12.0123 11.1397 11.5954 10.7329 11.5412 10.6322C11.487 10.5316 11.2576 9.83532 11.095 9.69272C10.9324 9.55012 11.1617 9.40332 11.1617 9.40332V9.40751Z" fill="#D9A703"/>
<path d="M10.6948 11.727C10.6948 11.727 10.7699 11.7983 11.0701 11.8612C11.3703 11.9242 11.4036 11.9703 11.4662 11.9661C11.5287 11.9619 11.5746 11.7648 11.5746 11.7648C11.5746 11.7648 10.9074 11.7774 10.7907 11.639C10.6739 11.5005 10.6948 11.7312 10.6948 11.7312V11.727Z" fill="#D9A703"/>
<path d="M11.658 11.7811C11.658 11.7811 11.7539 11.8859 11.879 11.995C12.0041 12.104 12.1375 12.104 12.1583 12.0243C12.1792 11.9447 11.9999 11.8104 11.9749 11.7643C11.9498 11.7182 11.9207 11.4665 11.854 11.3994C11.7872 11.3323 11.6538 11.7811 11.6538 11.7811H11.658Z" fill="#F2D203"/>
<path d="M10.4613 11.9033C10.4613 11.9033 10.1277 11.6684 10.307 11.3664C10.4863 11.0645 10.7364 11.0351 10.7948 11.14C10.8532 11.2448 10.8115 11.4 10.8282 11.5048C10.8448 11.6097 11.0366 11.572 10.8865 11.7817C10.7406 11.9914 10.628 12.0249 10.4571 11.8991L10.4613 11.9033Z" fill="#F2DE03"/>
<path d="M11.2744 11.1398C11.2911 11.1817 11.2995 11.1272 11.3203 11.4334C11.3412 11.7396 11.0576 11.8109 11.337 11.8822C11.6163 11.9535 11.6789 11.9493 11.7664 11.7899C11.854 11.6305 12.025 11.4711 11.854 11.2782C11.6789 11.0853 11.6247 10.9217 11.4746 10.9343C11.3245 10.9469 11.2119 10.9636 11.2786 11.1398H11.2744Z" fill="#F2DE03"/>
<path d="M10.6489 9.23545C10.8241 9.15157 10.8199 8.90411 10.9617 8.92508C11.1034 8.94605 11.216 8.92928 11.2285 9.18512C11.241 9.44097 11.1785 9.49549 11.1826 9.69681C11.1868 9.89813 11.1076 10.0449 10.9617 9.95685C10.8157 9.86877 10.7073 9.72198 10.6573 9.54582C10.6072 9.36967 10.5989 9.26062 10.6531 9.23545H10.6489Z" fill="#F2DE03"/>
</svg>
