<svg width="46" height="76" viewBox="0 0 46 76" fill="none" xmlns="http://www.w3.org/2000/svg">
<path d="M18.8615 49.3239C18.8615 49.3239 19.014 58.4456 19.262 62.3247C19.6053 67.6632 19.4527 73.213 19.7769 74.9798C19.9104 75.6903 23.6674 75.8439 23.7247 75.287C23.8391 74.4229 21.3789 62.2094 21.2072 58.8104C21.0356 55.4114 20.883 46.2321 20.6732 46.1553C20.4635 46.0785 18.7852 43.7549 18.7852 43.7549L18.5182 45.8865L18.8615 49.3239Z" fill="#99C956"/>
<mask id="mask0_129_372507" style="mask-type:luminance" maskUnits="userSpaceOnUse" x="18" y="43" width="6" height="33">
<path d="M18.8615 49.3239C18.8615 49.3239 19.014 58.4456 19.262 62.3247C19.6053 67.6632 19.4527 73.213 19.7769 74.9798C19.9104 75.6903 23.6674 75.8439 23.7247 75.287C23.8391 74.4229 21.3789 62.2094 21.2072 58.8104C21.0356 55.4114 20.883 46.2321 20.6732 46.1553C20.4635 46.0785 18.7852 43.7549 18.7852 43.7549L18.5182 45.8865L18.8615 49.3239Z" fill="white"/>
</mask>
<g mask="url(#mask0_129_372507)">
<path d="M26.3755 67.4133C27.062 67.3365 27.6533 66.53 27.1193 65.8194C26.0131 64.3408 25.4219 62.5932 24.8688 60.8457C24.3158 59.1174 23.8199 57.3507 23.3813 55.584C22.504 51.9929 21.8937 48.3634 21.4932 44.6764C21.4169 44.0235 20.8829 43.7738 20.368 43.8698C20.2917 43.2361 20.1964 42.6024 20.1201 41.9687C19.9675 40.6821 17.9841 40.9701 18.1367 42.2567C18.6897 47.1728 19.5861 52.0505 20.5206 56.8898C21.3216 61.1146 22.3133 65.4738 24.9833 68.9496C25.7652 69.9674 27.3481 68.7384 26.5662 67.7206C26.4899 67.6246 26.4327 67.5093 26.3564 67.4133H26.3755Z" fill="#6CBD52"/>
<path d="M21.3787 82.5265C20.5968 80.6254 20.5586 78.4554 20.4442 76.439C20.3298 74.2882 20.2916 72.1374 20.2344 69.9674C20.12 65.7427 19.8911 61.5371 18.8422 57.4275C18.518 56.1793 16.5346 56.4674 16.8588 57.7156C17.9649 61.9596 18.1557 66.338 18.2701 70.6972C18.3273 72.848 18.3654 75.0179 18.4989 77.1687C18.6324 79.2427 18.7469 81.3743 19.5479 83.3139C20.0437 84.5045 21.8936 83.7171 21.3978 82.5265H21.3787Z" fill="#6CBD52"/>
<path d="M29.6558 77.418C29.5795 76.9379 29.0455 76.4194 28.5306 76.573C27.2719 76.9187 25.9941 76.765 24.8307 76.285C24.7735 76.1505 24.6782 76.0353 24.5828 75.9393C24.0679 75.4592 23.5911 74.9407 23.1524 74.403C23.1524 74.3646 23.1334 74.3454 23.1143 74.307C21.9891 72.8283 21.1881 72.8859 20.6732 71.1C20.4634 69.4293 19.7387 68.5843 19.4717 66.9136C19.2619 65.627 17.7743 63.3034 17.9841 64.59C17.9841 64.6284 17.9841 64.686 17.9841 64.7244C17.9841 65.0125 17.9841 65.3006 17.9841 65.5886C17.3357 64.8397 15.9053 65.5502 16.344 66.6448C16.4393 66.8752 16.5538 67.1249 16.6491 67.3553C17.1831 70.2358 17.9841 73.174 19.7959 75.3824C20.6732 77.9941 22.6375 81.9884 25.9178 81.5275C27.1956 81.3547 26.9095 79.3575 25.6317 79.5303C24.5065 79.684 23.6292 78.5702 23.0571 77.6484C24.7926 78.6662 26.8714 79.1271 28.8166 78.5702C29.3316 78.4165 29.7511 78.0133 29.6558 77.4372V77.418Z" fill="#5FA648"/>
<path d="M26.4517 79.7615C22.8091 71.5616 21.1308 62.5359 21.5885 53.5679C21.6267 52.915 20.635 52.7997 20.5968 53.4335C20.1201 62.5935 21.8174 71.792 25.5172 80.1455C25.7842 80.7408 26.6997 80.3376 26.4327 79.7423L26.4517 79.7615Z" fill="#D7E6B1"/>
</g>
<path d="M12.0339 7.5564C12.0339 7.5564 14.1127 0.374292 18.7852 0.00942537C22.6948 -0.297831 27.3101 6.9995 27.5771 8.38215C27.825 9.78401 21.951 22.9 21.951 22.9L13.6931 22.9768C13.6931 22.9768 10.2412 11.4931 12.0339 7.5564Z" fill="#FF7E0D"/>
<mask id="mask1_129_372507" style="mask-type:luminance" maskUnits="userSpaceOnUse" x="11" y="0" width="17" height="23">
<path d="M12.0339 7.5564C12.0339 7.5564 14.1127 0.374292 18.7852 0.00942537C22.6948 -0.297831 27.3101 6.9995 27.5771 8.38215C27.825 9.78401 21.951 22.9 21.951 22.9L13.6931 22.9768C13.6931 22.9768 10.2412 11.4931 12.0339 7.5564Z" fill="white"/>
</mask>
<g mask="url(#mask1_129_372507)">
<path d="M18.0034 2.77426C18.0034 2.77426 19.1668 1.04594 20.9786 1.66045C21.8368 1.94851 23.5723 2.467 25.0408 4.15691C26.7 6.05806 28.0731 9.18823 28.3401 10.1292C28.855 11.9151 18.4993 8.61212 18.4039 8.59292C18.3086 8.57371 17.9844 2.77426 17.9844 2.77426H18.0034Z" fill="#EB6D00"/>
<path opacity="0.48" d="M13.1783 3.96507C13.1783 3.96507 15.3715 0.911714 17.6792 0.566051C19.9868 0.220388 22.7522 2.10233 23.6676 3.17773C24.583 4.25312 26.9097 7.72896 27.3102 8.4971C27.7107 9.26523 28.5117 7.47931 28.5117 7.47931C28.5117 7.47931 25.384 0.0475569 25.2696 -0.125274C25.1551 -0.298106 18.7853 -2.4873 18.6518 -2.4873C18.5183 -2.4873 13.9031 0.316406 13.9031 0.316406L13.1783 3.96507Z" fill="#FFE7D1"/>
<path d="M15.5813 1.16107C15.5813 1.16107 17.4694 -0.0295509 18.9951 0.296909C20.1966 0.546554 22.9238 1.21868 25.384 5.07858C25.9752 6.00035 26.5855 7.03734 27.1767 8.26636C28.6261 11.2429 27.0622 3.17743 27.0622 3.17743C27.0622 3.17743 22.6377 -1.22017 22.0655 -1.50822C21.4934 -1.79627 16.1534 -0.778487 16.1534 -0.778487L15.6004 1.18027L15.5813 1.16107Z" fill="#FF851A"/>
</g>
<path d="M23.1527 29.0069C22.3898 29.7174 20.9023 28.9493 21.4172 27.8355C22.3708 25.8191 23.4769 23.8988 24.6784 22.0552C24.831 21.3063 24.9835 20.5766 25.1361 19.8468C24.6402 19.6164 24.297 19.1171 24.583 18.5026C24.9263 17.8305 25.3077 17.1967 25.7273 16.6014C26.2804 13.356 26.5092 10.802 26.1469 9.59216C24.7356 4.8681 22.18 3.75429 21.3028 3.04376C20.4255 2.33324 18.8807 4.23438 18.8807 4.23438C15.219 7.95986 18.3658 29.4678 18.3658 29.4678L19.3384 44.8114L20.3301 51.8783C20.3301 51.8783 20.6353 49.8043 20.1776 45.1186C19.9678 42.9294 21.5507 36.1314 23.1527 29.0069Z" fill="#FF8317"/>
<mask id="mask2_129_372507" style="mask-type:luminance" maskUnits="userSpaceOnUse" x="17" y="2" width="10" height="50">
<path d="M23.1527 29.0069C22.3898 29.7174 20.9023 28.9493 21.4172 27.8355C22.3708 25.8191 23.4769 23.8988 24.6784 22.0552C24.831 21.3063 24.9835 20.5766 25.1361 19.8468C24.6402 19.6164 24.297 19.1171 24.583 18.5026C24.9263 17.8305 25.3077 17.1967 25.7273 16.6014C26.2804 13.356 26.5092 10.802 26.1469 9.59216C24.7356 4.8681 22.18 3.75429 21.3028 3.04376C20.4255 2.33324 18.8807 4.23438 18.8807 4.23438C15.219 7.95986 18.3658 29.4678 18.3658 29.4678L19.3384 44.8114L20.3301 51.8783C20.3301 51.8783 20.6353 49.8043 20.1776 45.1186C19.9678 42.9294 21.5507 36.1314 23.1527 29.0069Z" fill="white"/>
</mask>
<g mask="url(#mask2_129_372507)">
<path d="M23.0192 8.1706C22.8857 7.076 21.9894 4.75238 21.6079 4.08026C21.2265 3.40814 21.1121 2.83203 20.5018 2.83203C19.472 2.83203 18.5947 3.65778 18.3277 4.61796C18.2705 4.8292 18.3277 5.00203 18.4802 5.09804C18.3658 5.52052 18.3467 6.00061 18.423 6.36547C18.6137 7.36406 19.2812 8.28582 19.7008 9.18839C20.2157 10.283 20.6734 11.416 21.0358 12.5874C21.1693 13.0099 21.6842 13.0099 21.9131 12.7602C22.0657 12.8179 22.2564 12.7986 22.3899 12.7218C22.3899 12.9523 22.428 13.1635 22.428 13.394C22.428 14.0469 23.4388 14.0469 23.4197 13.394C23.3816 11.6656 23.2481 9.8029 23.0383 8.1514L23.0192 8.1706ZM19.7008 7.0568C19.7008 7.0568 19.8534 7.15282 19.9297 7.17202C20.0059 7.34485 20.1394 7.44087 20.3111 7.47928C20.3683 7.88255 20.4446 8.28582 20.5209 8.6891C20.4827 8.61228 20.4446 8.53547 20.4064 8.43945C20.1776 7.97857 19.9297 7.51768 19.7008 7.0568Z" fill="#FF7803"/>
</g>
<path d="M11.7099 9.68771C11.7289 9.45726 13.6742 2.21755 16.02 2.06392C18.3658 1.91029 20.2157 4.59878 20.5208 6.55754C20.826 8.51629 18.8235 38.781 18.8425 41.7575C18.8616 44.7341 18.8425 44.5036 18.8425 44.5036C18.8425 44.5036 15.219 30.5235 15.219 30.2354C15.219 29.9474 10.7944 13.8549 10.7944 13.8549L11.7099 9.68771Z" fill="#EB6D00"/>
<mask id="mask3_129_372507" style="mask-type:luminance" maskUnits="userSpaceOnUse" x="10" y="2" width="11" height="43">
<path d="M11.7099 9.68771C11.7289 9.45726 13.6742 2.21755 16.02 2.06392C18.3658 1.91029 20.2157 4.59878 20.5208 6.55754C20.826 8.51629 18.8235 38.781 18.8425 41.7575C18.8616 44.7341 18.8425 44.5036 18.8425 44.5036C18.8425 44.5036 15.219 30.5235 15.219 30.2354C15.219 29.9474 10.7944 13.8549 10.7944 13.8549L11.7099 9.68771Z" fill="white"/>
</mask>
<g mask="url(#mask3_129_372507)">
<path opacity="0.14" d="M20.5782 5.80811C20.0633 4.77112 19.0716 3.0236 17.8892 2.23626C17.1835 1.77538 15.9821 1.96741 15.9821 1.96741C17.7175 5.57767 16.9356 8.07412 18.5567 10.801C18.8809 11.3579 19.5484 11.4539 19.5484 10.801C19.5484 8.74625 19.6247 7.34439 18.919 5.40484C19.3195 6.00015 19.4912 5.86572 19.7772 6.48023C20.6545 8.30457 21.1504 10.3017 21.2267 12.3373C21.2457 12.9902 22.2565 12.9902 22.2184 12.3373C22.1421 10.0713 21.5509 7.84368 20.5592 5.80811H20.5782Z" fill="#FF7803"/>
<path d="M16.02 1.68014C16.02 1.68014 16.02 1.58413 16.02 1.52652C16.02 1.48811 16.02 1.4497 16.02 1.41129C15.8675 1.16165 15.5242 1.02722 15.2572 1.29607C13.1593 3.37005 12.3011 6.25058 11.8625 9.09269C11.4238 11.954 10.8517 15.4106 12.1676 18.1183C12.4537 18.6944 13.3119 18.1952 13.0258 17.619C12.4156 16.3324 12.3774 14.8921 12.4156 13.4903C12.4537 12.0308 12.6253 10.5714 12.8542 9.1503C13.2738 6.55783 14.0175 3.94616 15.9056 2.06421C15.9438 2.0066 15.9819 1.92979 16.0391 1.87218C16.02 1.81457 16.001 1.75696 16.001 1.68014H16.02Z" fill="#FF7803"/>
<path opacity="0.32" d="M20.4447 5.4052C19.5293 3.69609 18.1943 2.23663 16.5732 1.18043C16.0392 0.815568 15.5243 1.69893 16.0774 2.04459C16.8974 2.58229 17.9273 3.1968 18.2134 4.2722C18.4994 5.34759 18.6139 6.21175 18.7092 7.15272C18.7283 7.42157 18.919 7.67122 19.2051 7.65201C19.453 7.65201 19.7391 7.42157 19.7009 7.15272C19.6628 6.71104 19.5865 6.28856 19.5293 5.84688C19.5293 5.86609 19.5483 5.88529 19.5674 5.90449C20.521 7.70962 20.7308 9.66838 20.9215 11.6847C20.9787 12.3185 21.9895 12.3377 21.9132 11.6847C21.7034 9.49555 21.4746 7.36396 20.4256 5.386L20.4447 5.4052Z" fill="#FF7700"/>
<path d="M14.0366 4.88689C14.2273 4.46441 14.4561 4.04194 14.7041 3.63866C14.952 3.23539 15.2381 2.85132 15.5623 2.48645C15.6386 2.40964 15.753 2.27522 15.9056 2.1984C16.02 2.12159 16.1726 2.10239 16.2488 2.08318C16.3442 2.08318 16.1153 1.94876 15.8483 2.08318C15.7339 2.14079 15.6004 2.29442 15.5051 2.42884C15.1999 2.77451 14.9329 3.13937 14.6659 3.52344C14.418 3.92672 14.1891 4.32999 13.9984 4.77167C13.7696 5.25176 13.5026 6.32715 13.5026 6.32715C13.5026 6.32715 13.8458 5.34778 14.0366 4.9061V4.88689Z" fill="#FF8E2B"/>
</g>
<path d="M18.709 4.77148C18.709 4.77148 22.5996 6.30776 23.4196 12.6641C23.8201 15.7559 22.0656 22.1507 21.0167 28.7759C19.9105 35.7467 19.4719 42.9288 19.6435 45.1372C19.6817 45.5789 19.5863 49.8037 19.5863 49.8037C19.5863 49.8037 19.1667 46.3279 18.8616 45.3869C18.709 44.926 18.1178 37.8975 16.287 30.6194C14.3798 23.0148 10.2986 18.1179 12.4155 12.184C14.4752 6.42298 17.3359 5.05954 18.69 4.77148H18.709Z" fill="#FF8F2E"/>
<mask id="mask4_129_372507" style="mask-type:luminance" maskUnits="userSpaceOnUse" x="11" y="4" width="13" height="46">
<path d="M18.709 4.77148C18.709 4.77148 22.5996 6.30776 23.4196 12.6641C23.8201 15.7559 22.0656 22.1507 21.0167 28.7759C19.9105 35.7467 19.4719 42.9288 19.6435 45.1372C19.6817 45.5789 19.5863 49.8037 19.5863 49.8037C19.5863 49.8037 19.1667 46.3279 18.8616 45.3869C18.709 44.926 18.1178 37.8975 16.287 30.6194C14.3798 23.0148 10.2986 18.1179 12.4155 12.184C14.4752 6.42298 17.3359 5.05954 18.69 4.77148H18.709Z" fill="white"/>
</mask>
<g mask="url(#mask4_129_372507)">
<path d="M23.248 43.5823C23.0573 41.1243 23.5532 38.6662 23.5913 36.2082C23.6104 34.6911 23.496 33.1933 23.3625 31.6762C23.9727 31.1193 24.1444 30.2167 23.8774 29.391C23.5913 28.5268 23.3434 27.6242 23.1527 26.7217C23.2671 25.6463 23.3815 24.5901 23.4769 23.5147C23.4769 23.3034 23.4769 23.1114 23.4387 22.9194C23.496 22.4969 23.5532 22.0744 23.6295 21.6519C23.8583 20.4229 24.1444 19.2131 24.5258 18.0225C24.7928 17.1967 25.0026 15.9293 25.7273 15.3916C26.8334 14.5851 26.6618 13.3368 25.9562 12.5303C25.6701 12.1654 25.2696 11.935 24.831 11.839C24.7165 11.8198 24.6021 11.8006 24.4877 11.8006C24.4877 11.8006 24.4686 11.8006 24.4495 11.8006C24.1635 11.8006 23.8774 11.839 23.6104 11.935C22.0465 12.4535 21.112 14.297 20.4445 15.6989C19.6817 17.2351 19.2049 18.9443 18.9761 20.6534C18.69 22.7081 18.7663 24.7821 19.1286 26.8177C18.8807 29.2565 18.6137 31.6954 18.2895 34.115C17.6983 32.4635 17.2406 30.7736 16.7066 29.1029C13.9603 20.6918 13.4644 17.1583 13.4644 13.1832C13.6933 11.3397 14.3989 9.13127 14.8948 7.32614C15.1999 6.28915 14.8948 5.13694 13.8077 4.69526C12.8923 4.31119 11.481 4.73367 11.1949 5.78986C10.661 7.6718 10.2605 9.59215 9.99346 11.5125C9.80274 11.8582 9.70739 12.2614 9.7646 12.7607C9.7646 12.8375 9.78367 12.9144 9.80274 12.9912C9.32596 17.3312 9.53574 21.7288 10.4893 26.0303C11.6908 31.3689 13.9412 36.3042 16.4014 41.1435C16.5349 41.8732 16.6303 42.603 16.6303 43.3519C16.6303 43.64 16.6684 43.9472 16.7638 44.2161C16.6493 44.9074 16.5349 45.5987 16.4014 46.3092C15.9437 48.8633 19.9105 49.3626 20.3683 46.8085C20.4255 46.4629 20.4827 46.098 20.5399 45.7523C21.7605 46.098 23.4006 45.2723 23.2671 43.5823H23.248Z" fill="#FF8A24"/>
<path opacity="0.48" d="M23.3816 8.5165C22.8094 7.4603 22.2373 6.40411 21.5889 5.40553C21.5316 5.32872 21.4744 5.2519 21.4172 5.17509C21.5507 5.02146 21.6461 4.84863 21.6651 4.65659C21.7033 4.09969 21.36 3.6196 20.7879 3.52359C20.5399 3.48518 20.292 3.46598 20.0441 3.42757C19.7199 3.0627 19.3957 2.69784 19.0333 2.37138C18.6328 2.02571 17.9272 2.14093 17.622 2.56341C17.4122 2.87067 17.3932 3.19713 17.5076 3.50438C17.4504 3.56199 17.3932 3.6196 17.336 3.69642C17.1452 3.75403 16.9545 3.83084 16.7638 3.88845C15.6005 4.29173 14.4943 4.81022 13.6552 5.73199C13.2928 6.11606 13.4263 6.84579 13.8459 7.15305C14.3227 7.49871 14.8758 7.38349 15.2572 6.96101C15.2763 6.94181 15.2763 6.94181 15.2953 6.92261C15.3335 6.8842 15.3716 6.84579 15.4098 6.80738C15.5051 6.73057 15.6005 6.65376 15.6958 6.57694C15.7149 6.57694 15.8865 6.44252 15.9056 6.42331C16.001 6.3657 16.0963 6.3273 16.1917 6.26969C16.6303 6.05845 17.088 5.88562 17.5648 5.73199C17.8318 5.63597 18.0607 5.55916 18.2705 5.50155C18.3086 5.53995 18.3277 5.57836 18.3658 5.61677C18.4421 5.71278 18.5374 5.82801 18.6137 5.92402C18.6709 6.02004 18.7282 6.09685 18.7854 6.19287C18.7854 6.19287 18.7854 6.21208 18.7854 6.23128C18.8235 6.28889 18.8617 6.3657 18.8998 6.42331C19.0142 6.65376 19.1287 6.8842 19.224 7.11464C19.6817 8.13243 20.1394 9.15021 20.9786 9.91835C21.4172 10.3216 22.0466 10.7249 22.6759 10.6097C23.1909 10.5137 23.5914 10.0912 23.6676 9.55348C23.7058 9.15021 23.5532 8.82375 23.3816 8.49729V8.5165Z" fill="#FFE7D1"/>
<path d="M20.788 50.9561C20.6545 49.9191 20.6926 48.8822 20.6545 47.826C20.6163 46.8466 20.521 45.848 20.4447 44.8686C20.2731 42.7947 20.1205 40.7399 20.5591 38.6851C20.5973 38.5315 20.5591 38.397 20.4828 38.301C20.6163 36.6495 20.7498 35.0172 20.807 33.3657C20.807 33.3273 20.8452 33.2889 20.8452 33.2505C21.3029 30.9845 21.6271 28.6801 21.8178 26.3757C21.875 25.7227 20.8833 25.6075 20.8261 26.2412C20.8261 26.2796 20.8261 26.3181 20.8261 26.3565C20.8643 25.4731 20.8643 24.5897 20.8261 23.6872C20.8261 23.4759 20.7117 23.3607 20.5591 23.3031C20.5591 22.9382 20.521 22.5542 20.5019 22.1893C20.5019 22.1317 20.4828 22.0933 20.4638 22.0549C20.3684 20.6146 20.5973 19.1744 21.1885 17.8493C21.4555 17.254 20.5401 16.8699 20.2731 17.4652C19.5102 19.1551 19.2432 21.0371 19.5293 22.8806C19.5293 22.8806 19.5293 22.8806 19.5293 22.8998C19.6056 24.4361 19.6818 25.9724 19.7581 27.5087C19.72 28.3536 19.6437 29.1986 19.5865 30.0435C19.4339 32.0791 18.8999 34.0571 18.6329 36.0926C18.5185 36.9376 18.4422 37.8017 18.4041 38.6467C18.3087 37.917 18.1752 37.2064 18.0226 36.4767C17.4886 33.9802 16.6495 31.5414 15.8676 29.1026C15.8676 28.9681 15.8676 28.8145 15.8294 28.6417C14.4563 23.9944 13.0641 19.2512 12.8734 14.3927C12.8734 14.0086 12.9115 13.6245 12.9306 13.2405C12.9878 12.5875 13.0832 11.9538 13.1785 11.3201C13.5218 9.78384 13.9604 8.26676 14.5326 6.8073C14.7233 6.2888 13.9795 5.80872 13.6744 6.30801C13.6553 6.34641 13.6362 6.38482 13.6172 6.42323C13.6172 6.42323 13.6172 6.42323 13.6172 6.44243C13.4837 6.67287 13.3692 6.90332 13.2739 7.13376C13.1213 7.17216 12.9878 7.24898 12.9306 7.40261C12.7399 7.86349 12.6064 8.32437 12.492 8.80446C11.9389 8.59322 11.2142 8.80446 11.0997 9.5726C10.2034 16.3514 12.1105 22.9766 14.0177 29.4098C14.1893 29.9859 14.6852 30.1011 15.1238 29.9667C15.3717 30.7541 15.6196 31.5606 15.8676 32.3479C16.3253 33.8266 16.8211 35.3053 17.1263 36.8224C17.7175 39.7413 17.8891 42.7754 17.9082 45.752C17.9082 46.3089 18.6329 46.2705 18.8427 45.848C18.9381 46.4817 19.0525 47.1154 19.2051 47.7492C19.2623 48.018 19.4911 48.1332 19.7009 48.1524C19.72 49.1126 19.7009 50.0728 19.8344 51.033C19.9107 51.6667 20.9024 51.5322 20.8261 50.8793L20.788 50.9561Z" fill="#FF7700"/>
<path d="M19.1669 14.2394C19.9297 11.09 19.5483 9.24645 18.9762 8.13265C18.5947 7.38371 17.6602 6.2315 16.249 7.05725C15.7531 7.3453 14.0939 8.20946 13.5027 11.3204C13.2929 12.4534 13.4646 13.548 13.6743 14.5466C13.8841 15.5452 14.5325 17.4463 16.0392 17.5424C17.5458 17.6384 18.8808 15.43 19.186 14.2394H19.1669Z" fill="#FF8E2B"/>
<path d="M18.3467 12.3956C18.8235 10.7441 18.5184 9.74555 18.0797 9.13103C17.7937 8.72776 17.1262 8.09404 16.1535 8.49732C15.8102 8.63174 14.666 9.07342 14.3227 10.7057C14.1892 11.301 14.3418 11.8963 14.5134 12.434C14.685 12.9717 15.1809 13.9895 16.2298 14.0855C17.2787 14.1816 18.1751 13.0293 18.3467 12.3956Z" fill="#FF8519"/>
</g>
<path d="M13.5978 1.5459C13.5978 1.5459 7.5713 2.6405 7.87644 12.5879C8.06716 18.9251 10.9088 21.0182 13.2164 27.8739C14.3226 31.1193 15.0473 36.5731 16.2678 38.8583C17.4884 41.1435 18.2894 45.2915 18.5373 46.3669C18.7852 47.4423 19.0904 52.8768 19.0904 52.8768L18.8234 44.1008C18.8234 44.1008 16.4013 32.7516 16.1153 31.4841C15.8292 30.2167 12.3773 14.6427 12.2628 13.5673C12.1484 12.4919 12.2056 8.6896 12.301 7.55659C12.3963 6.42359 12.5298 3.86952 13.5978 1.5459Z" fill="#FF8A24"/>
<mask id="mask5_129_372507" style="mask-type:luminance" maskUnits="userSpaceOnUse" x="7" y="1" width="13" height="52">
<path d="M13.5978 1.5459C13.5978 1.5459 7.5713 2.6405 7.87644 12.5879C8.06716 18.9251 10.9088 21.0182 13.2164 27.8739C14.3226 31.1193 15.0473 36.5731 16.2678 38.8583C17.4884 41.1435 18.2894 45.2915 18.5373 46.3669C18.7852 47.4423 19.0904 52.8768 19.0904 52.8768L18.8234 44.1008C18.8234 44.1008 16.4013 32.7516 16.1153 31.4841C15.8292 30.2167 12.3773 14.6427 12.2628 13.5673C12.1484 12.4919 12.2056 8.6896 12.301 7.55659C12.3963 6.42359 12.5298 3.86952 13.5978 1.5459Z" fill="white"/>
</mask>
<g mask="url(#mask5_129_372507)">
<path d="M19.1858 42.8144C18.3466 39.5882 17.2405 36.4004 16.1725 33.2318C15.1427 30.1977 14.0365 27.2019 12.7397 24.283C12.0912 22.8043 11.3856 21.3641 10.6418 19.943C10.0315 18.7908 9.36404 17.6578 9.07797 16.3904C8.84911 14.3548 8.83004 12.3 9.02076 10.2837C9.34497 6.99986 10.5846 4.10013 12.015 1.1812C12.8732 -0.566321 10.2795 -2.0834 9.42125 -0.335879C7.91462 2.73668 6.5987 5.77083 6.14098 9.20826C5.89306 11.1286 5.85492 13.0682 5.96934 14.9885C5.9312 15.1229 5.91213 15.2574 5.9312 15.4302C5.95027 15.9103 6.02656 16.352 6.12191 16.8128C6.1982 17.485 6.27448 18.1763 6.38891 18.8484C7.41876 25.128 10.146 31.081 13.7314 36.2852C13.8458 36.458 13.9984 36.5924 14.1509 36.6885C14.5514 37.9367 14.9329 39.1657 15.3334 40.4139C15.8101 41.9502 16.3441 43.4673 16.6111 45.0612C16.7446 45.8101 16.7828 46.5591 16.7828 47.3272C16.7828 47.8841 16.8781 48.9787 16.4967 49.4588C15.3143 50.9759 17.4121 53.1267 18.6136 51.5904C20.4636 49.2475 19.8914 45.5029 19.1858 42.8144Z" fill="#FF7700"/>
<path opacity="0.73" d="M22.4468 46.5017C21.8556 45.1382 21.436 43.7364 21.0736 42.2961C21.1309 42.0657 21.1309 41.816 21.0736 41.5856L20.635 40.2221C20.6731 40.0493 20.6541 39.8765 20.635 39.7036C20.635 39.5884 20.6159 39.4924 20.5778 39.3964C20.3871 38.9355 20.2726 38.4362 20.1964 37.9369C20.1964 37.8985 20.1582 37.8409 20.1391 37.7833C20.0438 37.2648 19.9484 36.7463 19.834 36.2278C19.2237 33.1745 18.0985 30.1211 17.8887 26.9909C17.8887 26.434 17.8697 25.8963 17.8887 25.3394C17.9269 23.3999 14.9136 23.3999 14.8945 25.3394C14.8945 25.3394 14.8945 25.3586 14.8945 25.3778C14.8945 25.4162 14.8945 25.4354 14.8945 25.4739C14.8945 25.5315 14.8945 25.5891 14.8945 25.6659C14.8945 25.8195 14.8945 25.9731 14.8945 26.1268C14.8945 26.2612 14.8945 26.3764 14.8945 26.5108C14.9517 30.7356 15.7146 34.922 17.1449 38.8779C17.1449 38.9163 17.1449 38.9547 17.1449 38.9931C17.2212 39.4348 17.3357 39.8573 17.4882 40.2798C17.5836 40.5678 17.6789 40.8751 17.7743 41.1631C18.2892 43.5059 18.8804 45.8296 19.8531 48.0572C20.6159 49.8431 23.2096 48.3068 22.4468 46.5401V46.5017Z" fill="#FFB16E"/>
<path opacity="0.48" d="M15.009 6.96174C15.2951 4.81095 16.4584 2.87139 16.077 0.643789C15.9435 -0.162758 14.9518 -0.604439 14.2271 -0.412404C13.674 -0.258776 13.3498 0.163701 13.2354 0.643789C13.1972 0.605382 13.1781 0.566975 13.1209 0.528568C12.9874 0.413347 12.8349 0.394143 12.7014 0.413347C12.2818 -0.0667408 11.5571 0.643789 11.9957 1.12388C12.6632 1.89202 12.7586 2.87139 12.6823 3.88918C12.6441 4.0044 12.606 4.11962 12.5679 4.21564C12.2627 5.27183 12.072 6.36643 11.9767 7.48023C11.805 9.65023 12.2055 11.801 13.1591 13.7598C13.5214 14.4895 14.5513 14.7007 15.2188 14.2975C15.9626 13.8558 16.1151 12.9724 15.7528 12.2235C14.9518 10.6104 14.7992 8.74766 15.0281 6.98094L15.009 6.96174Z" fill="#FFE7D1"/>
</g>
<path d="M27.6916 7.88267C27.6916 7.88267 29.942 6.99931 32.8027 12.6835C35.6634 18.3678 30.6477 24.3785 27.3292 27.5086C24.0108 30.6388 19.6816 39.1268 20.8641 50.6489C20.8641 50.6489 19.4719 46.6161 19.9486 43.3131C20.4445 40.0101 21.2455 31.4838 20.7306 27.7775C20.2156 24.0712 18.3848 19.4624 21.0929 15.3528C23.801 11.2433 26.2994 8.36276 27.6916 7.88267Z" fill="#FF8B26"/>
<mask id="mask6_129_372507" style="mask-type:luminance" maskUnits="userSpaceOnUse" x="19" y="7" width="15" height="44">
<path d="M27.6916 7.88267C27.6916 7.88267 29.942 6.99931 32.8027 12.6835C35.6634 18.3678 30.6477 24.3785 27.3292 27.5086C24.0108 30.6388 19.6816 39.1268 20.8641 50.6489C20.8641 50.6489 19.4719 46.6161 19.9486 43.3131C20.4445 40.0101 21.2455 31.4838 20.7306 27.7775C20.2156 24.0712 18.3848 19.4624 21.0929 15.3528C23.801 11.2433 26.2994 8.36276 27.6916 7.88267Z" fill="white"/>
</mask>
<g mask="url(#mask6_129_372507)">
<path opacity="0.73" d="M21.2836 13.6248C21.5315 14.124 22.1227 14.7578 22.7521 14.7194C24.4303 14.6041 24.2968 9.82246 27.1194 8.65105C28.4925 8.07494 29.694 8.72786 29.942 8.17096C30.2471 7.49884 28.9121 5.73212 27.3864 5.50167C24.2587 5.05999 20.0058 11.0515 21.2836 13.6055V13.6248Z" fill="#FFB16E"/>
<path d="M31.9062 16.1214C31.7536 13.9514 30.9526 11.3781 29.0455 10.1491C28.912 10.0531 28.7785 10.0339 28.664 10.0531C28.5687 9.95706 28.4352 9.88024 28.2635 9.89945C27.329 9.97626 26.5662 11.0325 26.0322 11.7238C25.3647 12.5879 24.7353 13.4905 24.1823 14.4507C23.2478 16.083 23.1143 18.0033 23.839 20.1349C24.2967 21.4984 25.7461 24.2445 26.7188 24.4365C27.7486 24.6477 28.7403 23.7644 30.2088 22.2857C30.9526 21.5368 31.2959 20.3077 31.582 19.386C31.9062 18.3298 32.0015 17.2352 31.9252 16.1406L31.9062 16.1214ZM27.2718 11.7814C27.5579 11.4741 27.9584 10.9364 28.397 10.898C28.397 10.898 28.397 10.9172 28.4352 10.9364C29.465 11.9158 30.0181 13.3177 30.1897 14.7195C30.2851 15.5069 30.266 16.3134 30.1707 17.1008C30.1325 17.3504 30.1135 17.6193 30.0753 17.8881C30.0181 17.9265 29.98 17.9841 29.9418 18.0609C29.9418 18.0993 29.9037 18.1185 29.8846 18.1569C29.8465 18.1569 29.8083 18.1569 29.7702 18.1569C29.5985 18.0225 29.4078 17.9265 29.1599 17.8881C29.1027 17.8881 29.0264 17.8881 28.9692 17.8881C28.397 17.5808 27.7295 17.6769 27.2146 18.0801C27.1765 18.1185 27.1383 18.1377 27.1002 18.1762C26.9667 18.0609 26.8141 17.9841 26.6425 17.9265C26.5662 17.7345 26.4327 17.6 26.2992 17.4848C26.2992 17.1968 26.2229 16.9087 25.9559 16.6783C25.9178 16.6399 25.8606 16.6207 25.8224 16.5823C25.8224 16.3134 25.8224 16.0254 25.7843 15.7565C25.7843 15.7565 25.7843 15.7181 25.8033 15.6989C26.1466 14.9116 26.2038 13.5289 27.0239 13.068C27.4435 12.8184 27.329 12.2231 26.9858 12.1078C27.0811 11.9926 27.1574 11.8582 27.2718 11.7622V11.7814Z" fill="#FF8921"/>
<path d="M30.724 15.4297C30.7621 14.4888 30.7049 13.5286 30.3235 12.6644C29.9802 11.4162 29.1983 10.3024 28.4354 10.3408C28.1303 10.3408 27.8251 10.5905 27.5772 10.9361C26.9478 11.493 26.452 12.1843 26.0896 12.9525C25.6319 13.9127 25.2696 15.0457 25.1933 16.1019C25.117 17.1388 25.4603 18.2719 26.3566 18.8864C26.8716 19.2512 27.5391 19.3665 28.1493 19.2512C27.9014 20.8835 27.3483 23.3224 25.7082 25.4924C24.0681 27.6432 22.9429 27.4127 21.9321 29.4867C21.4553 30.4661 21.3409 31.2726 21.2837 35.7662C21.2264 40.0486 21.2074 42.1802 21.4934 42.2762C22.8094 42.6987 27.9205 35.2669 26.452 29.9284C26.2613 29.2178 25.9752 28.6417 25.9752 27.6048C25.9752 25.1083 27.6153 24.2441 28.3782 21.2868C28.588 20.4611 28.6643 19.6929 28.6833 19.0592C28.7406 19.04 28.7787 19.0208 28.8168 18.9824C29.141 18.848 29.4462 18.6751 29.7132 18.4063C30.4951 17.6189 30.6858 16.4859 30.724 15.4297Z" fill="#FF7700"/>
</g>
<path d="M45.9809 22.2663C39.7637 28.277 30.9146 42.814 29.2554 50.457C29.0074 51.8781 28.5307 53.6448 28.3972 55.0658C27.7487 61.7871 25.7653 68.2971 24.888 74.9799C24.8118 75.5944 24.2778 76.0361 23.6484 75.9977L23.0381 75.9592L22.5613 75.9208L21.4171 75.8248C21.0166 75.7864 20.7114 75.4216 20.7686 75.0183C21.2454 71.1776 22.1608 67.8938 22.752 63.9763C23.1907 60.9613 24.1824 57.8696 24.7164 54.8354C25.0788 52.7806 25.4602 50.4762 26.2612 48.4598C28.9693 41.2201 39.1343 27.3168 46 22.2471L45.9809 22.2663Z" fill="#4AAB4C"/>
<path d="M45.6376 22.5732C38.4858 28.8912 28.7404 43.7739 27.291 51.9738C26.1085 60.0777 23.9153 67.8935 23.0381 75.9782L22.5613 75.9398C23.0381 71.8686 23.8581 67.7591 24.5828 63.7071C25.2122 60.2889 26.4328 55.5648 27.043 51.9546C28.5687 43.7355 38.3905 28.8528 45.6376 22.5732Z" fill="#99C956"/>
<path d="M0 35.2477C5.81675 38.6275 11.1377 43.486 14.1891 49.6119C15.0663 51.321 15.6957 53.3374 16.2678 55.1617C17.107 57.831 18.0033 60.7692 18.7662 63.4385C19.7579 66.8759 20.6924 70.3133 21.5697 73.7891C21.6841 74.2308 21.4171 74.6533 20.9785 74.7685L19.3193 75.191C18.9188 75.287 18.4992 75.0566 18.4038 74.6341C16.8591 68.5274 15.2761 61.9406 13.8076 55.8339C13.5025 54.5472 13.1211 53.011 12.7396 51.7627C10.3939 45.0799 5.47347 39.5877 0.0190713 35.2285L0 35.2477Z" fill="#4AAB4C"/>
<path d="M0 35.248C6.23632 39.492 11.9577 45.3683 14.3226 52.7232C15.2952 55.911 16.5158 60.5391 17.4312 63.8036C18.4229 67.5099 19.4146 71.2162 20.3682 74.9417L20.0058 75.0377C18.175 67.7212 16.2297 60.0398 14.1509 52.7808C11.8624 45.4451 6.19818 39.5304 0 35.2673V35.248Z" fill="#99C956"/>
</svg>
