<svg width="23" height="77" viewBox="0 0 23 77" fill="none" xmlns="http://www.w3.org/2000/svg">
<path d="M13.37 68.3203C13.16 68.8903 12.96 69.0203 12.68 68.6503C12.09 67.8603 11.16 64.7703 9.03999 58.8103C4.64999 46.4603 2.48999 22.5303 2.48999 22.5303C2.48999 22.5303 2.48999 22.5303 2.48999 22.5503C2.81999 23.1903 13.49 44.0103 13.35 52.5803C13.22 61.2803 14.01 66.5203 13.35 68.3203H13.37Z" fill="white" stroke="black" stroke-width="0.11" stroke-miterlimit="10"/>
<path d="M13.37 68.3198C13.16 68.8898 12.96 69.0198 12.68 68.6498C12.44 64.6998 11.68 56.9598 11.12 52.7198C10.42 47.3698 2.72999 23.2998 2.48999 22.5498C2.81999 23.1898 13.49 44.0098 13.35 52.5798C13.22 61.2798 14.01 66.5198 13.35 68.3198H13.37Z" fill="white" stroke="black" stroke-width="0.11" stroke-miterlimit="10"/>
<path d="M12.2401 17.9004C13.2401 23.9104 14.2701 29.9304 14.5101 36.0304C14.5601 38.0804 14.2701 40.0904 14.2101 42.1304C13.9201 48.8504 13.9401 56.6104 13.8501 63.3404C13.8401 64.3504 13.7001 65.3404 13.2701 66.3604L12.8301 66.4104C12.2501 65.5004 12.0801 64.4004 12.0501 63.3604C11.9701 56.2404 12.5301 49.1504 13.1301 42.0704C13.2801 40.0704 13.6501 38.0604 13.6401 36.0504C13.5501 30.0004 12.7101 23.9604 11.8101 17.9804L12.2401 17.9104V17.9004Z" fill="white" stroke="black" stroke-width="0.11" stroke-miterlimit="10"/>
<path d="M19.22 60.0505C17.06 69.9905 12.39 76.2305 12.39 76.2305C12.19 76.3605 12.03 76.4205 11.88 76.4105C11.76 76.4105 11.65 76.3505 11.56 76.2505C11.36 76.0105 11.23 75.5405 11.17 74.8705C11.03 73.2305 11.3 70.3705 11.84 66.7605C11.94 66.0605 12.06 65.3305 12.18 64.5805C12.22 64.3205 12.27 64.0505 12.31 63.7805C12.63 61.8905 12.99 59.8605 13.39 57.7305C13.52 57.0705 13.65 56.4005 13.78 55.7305C13.84 55.4505 13.89 55.1605 13.94 54.8505C14.74 50.3905 15.58 43.3605 15.56 40.3805C15.53 37.2105 17.47 28.5205 17.47 28.5205C17.47 28.5205 21.39 50.1005 19.23 60.0405L19.22 60.0505Z" fill="white" stroke="black" stroke-width="0.11" stroke-miterlimit="10"/>
<path d="M16.94 52.4705C16.69 53.7905 16.4 58.2105 15.49 62.0605C14.03 68.2705 11.83 74.6305 11.87 76.4105C11.75 76.4105 11.64 76.3505 11.55 76.2505C11.35 76.0105 11.22 75.5405 11.16 74.8705C11.02 73.2305 11.29 70.3705 11.83 66.7605C11.93 66.0605 12.05 65.3305 12.17 64.5805C12.21 64.3205 12.26 64.0505 12.3 63.7805C12.62 61.8905 12.98 59.8605 13.38 57.7305C13.51 57.0705 13.64 56.4005 13.77 55.7305C13.83 55.4505 13.88 55.1605 13.93 54.8505C14.73 50.3905 15.57 43.3605 15.55 40.3805C15.52 37.2105 17.46 28.5205 17.46 28.5205C17.46 28.5205 17.6 49.0105 16.95 52.4605L16.94 52.4705Z" fill="white" stroke="black" stroke-width="0.11" stroke-miterlimit="10"/>
<path d="M7.59005 14.0407C7.35005 14.0007 5.65005 13.6907 4.28005 13.2207C2.35005 12.5607 1.11005 11.6507 0.600046 10.5407C0.0200462 9.28066 0.440045 7.89067 0.880045 6.83067C0.950045 6.66067 1.00006 6.22066 0.750055 5.93066L9.45005 10.9607L7.59005 14.0407Z" fill="white"/>
<path d="M0.920017 6.17094L9.34001 10.9509L7.56002 13.9909C7.24002 13.9309 5.60001 13.6309 4.29001 13.1809C2.37001 12.5209 1.14001 11.6309 0.630008 10.5209C0.060008 9.28094 0.450007 7.97094 0.910007 6.84094C0.960007 6.71094 1.00002 6.43094 0.920017 6.17094ZM0.71001 5.96094C0.95001 6.25094 0.88002 6.68094 0.83002 6.82094C-0.00997972 8.89094 -0.579987 11.6109 4.26001 13.2709C5.74001 13.7809 7.60001 14.0909 7.60001 14.0909L9.45002 10.9309L0.700015 5.96094H0.71001Z" fill="black"/>
<path d="M7.94 13.4511C7.29 13.3511 6.52 13.1811 5.64 12.9711C2.77 12.2611 2.45 10.4811 2.17 8.90105C2.09 8.48105 2.01999 8.09105 1.90999 7.73105C1.72999 7.18105 1.43 6.63105 1 6.08105L9.45 10.9711L7.94 13.4511Z" fill="white"/>
<path d="M1.26996 6.37059L9.34996 10.9606L7.91997 13.4006C7.27997 13.3006 6.51996 13.1406 5.64996 12.9206C2.79996 12.2206 2.48996 10.4506 2.20996 8.89059C2.13996 8.47059 2.05997 8.07059 1.94997 7.71059C1.80997 7.26059 1.57996 6.81059 1.26996 6.37059ZM0.959961 6.10059C1.31996 6.56059 1.66997 7.12059 1.85997 7.74059C2.40997 9.44059 1.94996 12.1006 5.61996 13.0106C6.60996 13.2606 7.36997 13.4106 7.94997 13.5006L9.45996 10.9406L0.959961 6.11059V6.10059Z" fill="black"/>
<path d="M0.880005 6.01078C1.19 5.98078 1.47001 5.77078 1.56001 5.66078C2.40001 4.62078 3.46 3.55078 5.02 3.55078C6.17 3.55078 7.48001 4.16078 8.90001 5.36078C10.07 6.36078 11.28 7.78078 11.29 7.79078L9.45001 10.8608L0.890015 6.00078L0.880005 6.01078Z" fill="white"/>
<path d="M5.01996 3.59074C6.15996 3.59074 7.45996 4.20074 8.86996 5.39074C9.91996 6.28074 11 7.52074 11.22 7.77074L9.43997 10.8107L1.01996 6.03074C1.30996 5.96074 1.53996 5.76074 1.59996 5.68074C2.42996 4.65074 3.47996 3.59074 5.01996 3.59074ZM5.01996 3.51074C3.45996 3.51074 2.36997 4.59074 1.52997 5.63074C1.43997 5.73074 1.14996 5.97075 0.819962 5.97075C0.779962 5.97075 0.749961 5.97075 0.709961 5.97075L9.45996 10.9407L11.31 7.78074C11.31 7.78074 10.1 6.35074 8.90996 5.34074C7.33996 4.01074 6.06996 3.52074 5.00996 3.52074L5.01996 3.51074Z" fill="black"/>
<path d="M0.719971 5.95117L9.59996 10.6912L9.45996 10.9112L0.719971 5.95117Z" fill="black"/>
<path d="M2.03996 6.69094L9.57997 10.7009L9.45996 10.9109L2.03996 6.70094M0.709961 5.96094L9.45996 10.9309L9.59996 10.6909L0.709961 5.96094Z" fill="white"/>
<path d="M10.78 13.6301L14.45 13.6701C14.45 13.6701 15.07 15.4101 15.36 16.8901C15.74 18.8501 15.57 20.3401 14.87 21.3301C14.06 22.4701 12.68 22.8101 11.44 22.9901C11.29 23.0101 10.97 23.1401 10.79 23.3901V13.6201L10.78 13.6301Z" fill="white"/>
<path d="M14.39 13.7199C14.5 14.0299 15.05 15.5699 15.31 16.9099C15.69 18.8499 15.52 20.3399 14.82 21.3199C14.01 22.4499 12.65 22.7799 11.42 22.9599C11.28 22.9799 11.01 23.0899 10.82 23.2899V13.7199H14.39ZM14.45 13.6299H10.74V23.5699C10.87 23.2199 11.29 23.0599 11.44 23.0399C13.69 22.7199 16.36 21.8499 15.4 16.8899C15.11 15.3699 14.45 13.6299 14.45 13.6299Z" fill="black"/>
<path d="M10.78 13.6299L13.75 13.6699C13.95 14.2499 14.19 14.9999 14.44 15.8699C15.25 18.6699 13.84 19.8299 12.6 20.8599C12.27 21.1299 11.96 21.3899 11.7 21.6699C11.34 22.0499 11.04 22.5299 10.78 23.0899V13.6399V13.6299Z" fill="white"/>
<path d="M13.69 13.7199C13.92 14.3099 14.16 15.0399 14.4 15.8899C15.2 18.6699 13.8 19.8199 12.57 20.8299C12.24 21.0999 11.92 21.3599 11.66 21.6399C11.34 21.9899 11.06 22.4099 10.82 22.8999V13.7199H13.69ZM13.75 13.6299H10.74V23.2899C10.96 22.7499 11.29 22.1799 11.73 21.6999C12.96 20.3799 15.52 19.4399 14.49 15.8599C14.21 14.8899 13.97 14.1699 13.76 13.6299H13.75Z" fill="black"/>
<path d="M10.6999 23.4102C10.5199 23.1602 10.1999 23.0302 10.0499 23.0102C8.80994 22.8302 7.42994 22.5002 6.61994 21.3502C5.90994 20.3602 5.74993 18.8602 6.12993 16.9102C6.41993 15.4102 7.06994 13.6802 7.07994 13.6602L10.7499 13.6902L10.7099 23.4202L10.6999 23.4102Z" fill="white"/>
<path d="M10.66 13.7199V23.2899C10.47 23.0899 10.2 22.9799 10.06 22.9599C8.82998 22.7799 7.45997 22.4499 6.65997 21.3199C5.95997 20.3399 5.79998 18.8499 6.16998 16.9099C6.42998 15.5699 6.97998 14.0299 7.08998 13.7199H10.66ZM10.74 13.6299H7.02998C7.02998 13.6299 6.37999 15.3699 6.07999 16.8899C5.11999 21.8499 7.79998 22.7199 10.04 23.0399C10.19 23.0599 10.6 23.2199 10.74 23.5699V13.6299Z" fill="black"/>
<path d="M10.47 13.6299L10.74 13.6399L10.73 22.8599L10.47 13.6299Z" fill="black"/>
<path d="M10.72 13.6599V22.0999L10.48 13.6599H10.72ZM10.74 13.6299H10.46L10.74 23.5699V13.6299Z" fill="white"/>
<path d="M10.8701 7.52008C10.8701 7.52008 12.1001 6.12008 13.2601 5.14008C14.6801 3.94008 15.9801 3.33008 17.1401 3.33008C18.7001 3.33008 19.7601 4.39007 20.6001 5.44007C20.6901 5.56007 21.0001 5.79008 21.3401 5.79008C21.3801 5.79008 21.4201 5.79008 21.4601 5.79008L12.7201 10.6601L10.8901 7.54008L10.8701 7.52008Z" fill="white"/>
<path d="M17.1301 3.28051V3.36051C18.6701 3.36051 19.7301 4.42051 20.5601 5.45051C20.6301 5.53051 20.8501 5.73051 21.1401 5.80051L12.7201 10.5805L10.9401 7.54051C11.1601 7.29051 12.2301 6.05051 13.2901 5.16051C14.7001 3.96051 15.9901 3.36051 17.1401 3.36051V3.28051M17.1301 3.28051C16.0701 3.28051 14.7901 3.77051 13.2301 5.10051C12.0401 6.11051 10.8301 7.54051 10.8301 7.54051L12.6801 10.7005L21.4301 5.73051C21.4301 5.73051 21.3601 5.73051 21.3201 5.73051C20.9901 5.73051 20.7001 5.50051 20.6101 5.39051C19.7701 4.34051 18.6801 3.27051 17.1201 3.27051L17.1301 3.28051Z" fill="black"/>
<path d="M11.2201 8.11094C11.6401 7.65094 12.1801 7.06094 12.8101 6.42094C13.7701 5.44094 14.7601 4.96094 15.8301 4.96094C16.6501 4.96094 17.4001 5.23094 18.1301 5.49094C18.5401 5.64094 18.9201 5.77094 19.2901 5.85094C19.6201 5.92094 19.9701 5.96094 20.3401 5.96094C20.6301 5.96094 20.9201 5.94094 21.1901 5.90094L12.7001 10.6309L11.2101 8.10094L11.2201 8.11094Z" fill="white"/>
<path d="M15.82 4.9309V5.0109C16.63 5.0109 17.38 5.2809 18.1 5.5409C18.51 5.6909 18.89 5.8209 19.27 5.9109C19.6 5.9809 19.96 6.0209 20.33 6.0209C20.48 6.0209 20.63 6.0209 20.79 6.0009L12.71 10.5909L11.28 8.1509C11.69 7.6609 12.21 7.0909 12.83 6.4609C13.79 5.4909 14.76 5.0209 15.82 5.0209V4.9409M15.82 4.9309C14.89 4.9309 13.88 5.2809 12.77 6.4009C12.06 7.1209 11.54 7.6909 11.17 8.1409L12.68 10.7009L21.18 5.8709C20.91 5.9109 20.62 5.9309 20.33 5.9309C19.99 5.9309 19.63 5.9009 19.29 5.8209C18.26 5.6009 17.11 4.9209 15.82 4.9209V4.9309Z" fill="black"/>
<path d="M12.7201 10.6805L21.4501 5.77051C21.1501 6.00051 21.2101 6.44051 21.2701 6.61051C21.7001 7.67051 22.1201 9.06051 21.5501 10.3205C21.0401 11.4405 19.8001 12.3405 17.8701 13.0005C16.5101 13.4705 14.8001 13.7705 14.5601 13.8205L12.7201 10.6905V10.6805Z" fill="white"/>
<path d="M21.2301 5.95047C21.1501 6.21047 21.1901 6.49047 21.2401 6.62047C21.6901 7.74047 22.0801 9.06047 21.5201 10.3005C21.0201 11.4105 19.7801 12.3005 17.8601 12.9605C16.5401 13.4105 14.9101 13.7105 14.5901 13.7705L12.8101 10.7305L21.2301 5.95047ZM21.4401 5.73047L12.6901 10.7005L14.5401 13.8605C14.5401 13.8605 16.4001 13.5505 17.8801 13.0405C22.7201 11.3805 22.1501 8.66047 21.3101 6.59047C21.2601 6.45047 21.1901 6.02047 21.4301 5.73047H21.4401Z" fill="black"/>
<path d="M12.6901 10.7002L21.4401 5.74023L12.8301 10.9302L12.6901 10.7002Z" fill="black"/>
<path d="M20.1301 6.50047L12.8301 10.9205L12.7101 10.7105L20.1301 6.50047ZM21.4401 5.73047L12.6901 10.7005L12.8301 10.9405L21.4401 5.73047Z" fill="white"/>
<path d="M7.67989 10.3097C7.67989 10.3097 7.05988 8.56969 6.76988 7.08969C6.38988 5.12969 6.55989 3.63969 7.25989 2.64969C8.06989 1.50969 9.4499 1.16969 10.6899 0.989689C10.8699 0.959689 11.2799 0.789688 11.4199 0.429688L11.3399 10.3097H7.66989H7.67989Z" fill="white"/>
<path d="M11.3099 0.700157V10.2702H7.73992C7.62992 9.96016 7.07993 8.42016 6.81993 7.08016C6.43993 5.14016 6.60993 3.65015 7.30993 2.67015C8.11993 1.54015 9.47992 1.21016 10.7099 1.03016C10.8499 1.01016 11.1199 0.900157 11.3099 0.700157ZM11.3899 0.410156C11.2599 0.760156 10.8399 0.920155 10.6899 0.940155C8.43994 1.26016 5.76993 2.13016 6.72993 7.09016C7.01993 8.61016 7.67993 10.3502 7.67993 10.3502H11.3899V0.410156Z" fill="black"/>
<path d="M8.38001 10.31C8.18001 9.72996 7.94003 8.97996 7.69003 8.10996C6.88003 5.30996 8.29002 4.14996 9.53002 3.11996C9.86002 2.84996 10.17 2.58996 10.43 2.30996C10.82 1.87996 11.16 1.34996 11.43 0.709961L11.35 10.31H8.38001Z" fill="white"/>
<path d="M11.31 1.08043V10.2604H8.43998C8.20998 9.67043 7.96997 8.94043 7.72997 8.09043C6.92997 5.31043 8.32998 4.16043 9.55998 3.15043C9.88998 2.88043 10.21 2.62043 10.47 2.34043C10.79 1.99043 11.07 1.57043 11.31 1.08043ZM11.39 0.69043C11.16 1.23043 10.84 1.80043 10.4 2.28043C9.16997 3.60043 6.60998 4.54043 7.63998 8.12043C7.91998 9.09043 8.15997 9.81043 8.36997 10.3504H11.38V0.69043H11.39Z" fill="black"/>
<path d="M11.3899 10.3102L11.4299 0.410156C11.4799 0.780156 11.8999 0.950156 12.0799 0.980156C13.3199 1.16016 14.6999 1.49016 15.5099 2.64016C16.2199 3.63016 16.3799 5.13016 15.9999 7.08016C15.7299 8.47016 15.1499 10.0802 15.0699 10.3002H11.3899V10.3102Z" fill="white"/>
<path d="M11.4799 0.700157C11.6699 0.900157 11.9399 1.01016 12.0799 1.03016C13.3099 1.21016 14.6799 1.54015 15.4799 2.67015C16.1799 3.65015 16.3399 5.14016 15.9699 7.08016C15.7099 8.42016 15.1599 9.96016 15.0499 10.2702H11.4799V0.700157ZM11.3899 0.410156V10.3502H15.0999C15.0999 10.3502 15.7499 8.61016 16.0499 7.09016C17.0099 2.13016 14.3399 1.26016 12.0899 0.940155C11.9399 0.920155 11.5299 0.760156 11.3899 0.410156Z" fill="black"/>
<path d="M11.3899 10.3402L11.3999 0.410156L11.6699 10.3402H11.3899Z" fill="black"/>
<path d="M11.4099 1.89016L11.6499 10.3302H11.4099V1.89016ZM11.3899 0.410156V10.3502H11.6699L11.3899 0.410156Z" fill="white"/>
<path d="M4.85002 19.5297C3.29002 19.5297 2.23003 18.4697 1.39003 17.4197C1.31003 17.3297 1.02002 17.0697 0.650024 17.0697C0.610024 17.0697 0.570029 17.0697 0.530029 17.0697L9.31003 12.1797L11.11 15.3197C11.11 15.3197 9.88003 16.7197 8.72003 17.6997C7.30003 18.8997 6.00003 19.5097 4.84003 19.5097L4.85002 19.5297Z" fill="white"/>
<path d="M9.26004 12.2702L11.04 15.3102C10.82 15.5602 9.75005 16.8002 8.69005 17.6902C7.28005 18.8902 5.99004 19.4902 4.84004 19.4902C3.30004 19.4902 2.24003 18.4302 1.41003 17.4002C1.34003 17.3202 1.12005 17.1202 0.830048 17.0502L9.25005 12.2702M9.29004 12.1602L0.540039 17.1302C0.540039 17.1302 0.61004 17.1302 0.65004 17.1302C0.98004 17.1302 1.27005 17.3602 1.36005 17.4702C2.20005 18.5202 3.29004 19.5902 4.85004 19.5902C5.91004 19.5902 7.19005 19.1002 8.75005 17.7702C9.94005 16.7602 11.15 15.3302 11.15 15.3302L9.30005 12.1702L9.29004 12.1602Z" fill="black"/>
<path d="M6.15004 17.8902C5.33004 17.8902 4.58004 17.6202 3.85004 17.3602C3.44004 17.2102 3.06005 17.0802 2.69005 17.0002C2.36005 16.9302 2.01005 16.8902 1.64005 16.8902C1.35005 16.8902 1.06004 16.9102 0.790039 16.9502L9.32004 12.2002L10.77 14.7502C10.36 15.2002 9.83004 15.7802 9.18004 16.4402C8.22004 17.4202 7.23003 17.8902 6.16003 17.8902H6.15004Z" fill="white"/>
<path d="M9.26004 12.2702L10.69 14.7102C10.28 15.2002 9.76005 15.7702 9.14005 16.4002C8.18005 17.3702 7.21004 17.8402 6.15004 17.8402C5.34004 17.8402 4.59004 17.5702 3.87004 17.3102C3.46004 17.1602 3.08004 17.0302 2.70004 16.9402C2.37004 16.8702 2.01005 16.8302 1.64005 16.8302C1.49005 16.8302 1.34004 16.8302 1.18004 16.8502L9.26004 12.2602M9.29004 12.1602L0.790039 16.9902C1.06004 16.9502 1.35005 16.9302 1.64005 16.9302C1.98005 16.9302 2.34005 16.9602 2.69005 17.0402C3.72005 17.2602 4.87003 17.9402 6.16003 17.9402C7.09003 17.9402 8.10004 17.5902 9.21004 16.4702C9.92004 15.7502 10.44 15.1802 10.81 14.7302L9.30005 12.1702L9.29004 12.1602Z" fill="black"/>
<path d="M0.670013 17.0098C0.800013 16.7298 0.760012 16.3998 0.700012 16.2598C0.270012 15.1998 -0.149987 13.8098 0.420013 12.5498C0.930013 11.4298 2.17001 10.5298 4.10001 9.8698C5.56001 9.3698 7.42002 9.0498 7.44002 9.0498L9.25002 12.1898L0.660004 17.0198L0.670013 17.0098Z" fill="white"/>
<path d="M7.38999 9.09L9.16999 12.13L0.749988 16.91C0.829988 16.65 0.789978 16.37 0.739978 16.24C0.289978 15.12 -0.100021 13.8 0.459979 12.56C0.959979 11.45 2.19998 10.56 4.11998 9.9C5.43998 9.45 7.06999 9.15 7.38999 9.09ZM7.43999 9C7.43999 9 5.57998 9.31 4.09998 9.82C-0.740021 11.48 -0.170014 14.2 0.669986 16.27C0.719986 16.41 0.789991 16.84 0.549991 17.13L9.29999 12.16L7.44999 9H7.43999Z" fill="black"/>
<path d="M9.16003 11.9199L9.28004 12.1599L1.17004 16.7599L9.16003 11.9199Z" fill="black"/>
<path d="M9.14005 11.9399L9.26004 12.1499L1.84004 16.3599L9.14005 11.9399ZM9.15004 11.9199L0.540039 17.1299L9.29004 12.1599L9.15004 11.9199Z" fill="white"/>
<path d="M12.9299 12.1198L14.2899 9.69984C14.3799 9.69984 15.1599 9.58984 16.0499 9.58984C16.8799 9.58984 17.5599 9.67984 18.0799 9.85984C20.0099 10.5198 21.2499 11.4298 21.7599 12.5398C22.3399 13.7998 21.9199 15.1898 21.4799 16.2498C21.4299 16.3898 21.3799 16.7298 21.5099 16.9998L12.9099 12.1098L12.9299 12.1198Z" fill="white"/>
<path d="M16.0599 9.5498V9.62981C16.8899 9.62981 17.5699 9.71981 18.0799 9.89981C19.9999 10.5598 21.2299 11.4498 21.7399 12.5598C22.3099 13.7998 21.9199 15.1098 21.4599 16.2398C21.4099 16.3698 21.3699 16.6498 21.4499 16.9098L13.0199 12.1198L14.2999 9.74981C14.4799 9.71981 15.2099 9.62981 16.0499 9.62981V9.5498M16.0599 9.5498C15.0799 9.5498 14.2499 9.67981 14.2499 9.67981L12.9099 12.1598L21.6599 17.1298C21.4199 16.8398 21.4899 16.4098 21.5399 16.2698C22.3799 14.1998 22.9499 11.4798 18.1099 9.81981C17.4999 9.60981 16.7499 9.5498 16.0599 9.5498Z" fill="black"/>
<path d="M12.9299 12.1195L14.2199 9.68945C14.3399 9.73945 14.5299 9.75946 14.7399 9.78946C15.3099 9.85946 16.0199 9.94946 16.7399 10.1295C19.6099 10.8395 19.9299 12.6195 20.2099 14.1895C20.2899 14.6095 20.3599 14.9995 20.4699 15.3595C20.6299 15.8495 20.8899 16.3495 21.2599 16.8495L12.9399 12.1195H12.9299Z" fill="white"/>
<path d="M14.2199 9.75941C14.3699 9.77941 14.5399 9.79941 14.7299 9.82941C15.2999 9.89941 15.9999 9.98941 16.7199 10.1694C19.5699 10.8694 19.8799 12.6394 20.1599 14.1994C20.2299 14.6194 20.3099 15.0194 20.4199 15.3794C20.5599 15.8294 20.7899 16.2794 21.0999 16.7194L13.0199 12.1294L14.2199 9.76941M14.1699 9.65941L12.8999 12.1494L21.3999 16.9794C21.0399 16.5194 20.6899 15.9594 20.4999 15.3394C19.9499 13.6394 20.4099 10.9794 16.7399 10.0694C15.7499 9.81941 14.7499 9.74941 14.1699 9.64941V9.65941Z" fill="black"/>
<path d="M17.3499 19.5297C16.1999 19.5297 14.89 18.9197 13.47 17.7197C12.3 16.7197 11.09 15.2997 11.08 15.2897L12.94 12.1797L21.4799 17.0797C21.1399 17.1097 20.87 17.3397 20.8 17.4297C19.96 18.4697 18.9 19.5397 17.34 19.5397L17.3499 19.5297Z" fill="white"/>
<path d="M12.9399 12.2696L21.3599 17.0496C21.0699 17.1196 20.8399 17.3197 20.7799 17.3997C19.9499 18.4297 18.8999 19.4897 17.3499 19.4897C16.2099 19.4897 14.9099 18.8796 13.4999 17.6896C12.4499 16.7996 11.3699 15.5597 11.1499 15.3097L12.9299 12.2696M12.9099 12.1497L11.0599 15.3097C11.0599 15.3097 12.2699 16.7396 13.4599 17.7496C15.0299 19.0796 16.2999 19.5696 17.3599 19.5696C18.9199 19.5696 20.0099 18.4896 20.8499 17.4496C20.9399 17.3496 21.2299 17.1096 21.5599 17.1096C21.5999 17.1096 21.6299 17.1096 21.6699 17.1096L12.9199 12.1396L12.9099 12.1497Z" fill="black"/>
<path d="M12.7699 12.3892L12.9199 12.1592L21.0199 16.7692L12.7699 12.3892Z" fill="black"/>
<path d="M12.9099 12.1794L20.3299 16.3894L12.7899 12.3794L12.9099 12.1694M12.9099 12.1494L12.7699 12.3894L21.6599 17.1194L12.9099 12.1494Z" fill="white"/>
<path d="M7.97006 13.5097C8.43006 13.8697 9.56005 13.8997 9.73005 14.0497C9.90005 14.1997 10.4901 15.4497 11.5901 15.2397C11.9301 15.1797 12.2101 14.8997 12.5301 14.7697C13.2601 14.4697 13.9101 14.1997 13.9201 13.7197C13.9201 13.3597 14.53 13.2897 14.9 12.9697C15.23 12.6797 15.34 12.1397 15.24 11.8097C15.24 11.8097 15.2901 11.5697 15.4201 11.1897C15.5501 10.8097 14.95 10.2497 14.43 10.1697C14.43 10.1697 14.11 10.0097 14.32 9.36971C14.41 9.07971 14.1501 8.53971 13.9701 8.00971C13.7501 7.3797 13.81 7.03971 13.35 6.75971C12.98 6.52971 12.8001 6.28971 12.9401 5.82971C12.9401 5.82971 13.3201 5.2197 12.2301 5.1697C12.2301 5.1697 11.8501 4.97971 11.4501 4.93971C11.0501 4.89971 10.7301 5.15971 10.7301 5.22971C10.7301 5.29971 10.7101 5.43971 9.97006 5.62971C9.65006 5.70971 9.82005 6.26971 9.45005 6.51971C9.08005 6.76971 8.81005 6.77971 8.67005 6.80971C8.53005 6.83971 8.53005 7.12971 8.01005 7.36971C7.49005 7.60971 7.00005 7.44971 6.62005 7.88971C6.24005 8.32971 6.39005 8.67971 6.62005 8.88971C6.73005 8.98971 6.62005 9.31971 6.70005 9.48971C6.78005 9.65971 7.43005 10.4497 7.43005 10.4497C7.43005 10.4497 6.85005 10.8797 7.18005 11.3597L7.84005 12.3097C7.84005 12.3097 7.53004 13.1697 7.99004 13.5297L7.97006 13.5097Z" fill="white" stroke="black" stroke-width="0.11" stroke-miterlimit="10"/>
<path d="M10.18 11.6494C10.58 12.4594 10.66 12.7094 10.91 13.0694C11.16 13.4294 11.67 13.0694 11.67 13.0694L12.02 13.3194C12.02 13.3194 12.61 13.2194 12.76 13.1194C13.24 12.8094 13.36 12.4494 13.39 12.1794C13.42 11.9094 12.79 11.5494 12.65 11.2494C12.51 10.9494 12.72 10.6794 12.54 10.2694C12.36 9.85942 11.96 9.78942 11.58 9.87942C11.2 9.96942 10.54 9.95942 10.37 10.4494C10.2 10.9394 9.93 11.1494 10.17 11.6494H10.18Z" fill="white" stroke="black" stroke-width="0.04" stroke-miterlimit="10"/>
<path d="M10.59 11.8094C10.89 12.4194 10.95 12.6094 11.14 12.8794C11.33 13.1494 11.71 12.8794 11.71 12.8794L11.98 13.0694C11.98 13.0694 12.43 12.9894 12.54 12.9194C12.9 12.6894 12.99 12.4094 13.02 12.2094C13.05 12.0094 12.57 11.7394 12.46 11.5094C12.35 11.2794 12.51 11.0794 12.37 10.7694C12.23 10.4594 11.93 10.4094 11.64 10.4694C11.35 10.5294 10.85 10.5294 10.73 10.8994C10.61 11.2694 10.39 11.4294 10.58 11.8094H10.59Z" fill="white" stroke="black" stroke-width="0.04" stroke-miterlimit="10"/>
<path d="M6.44002 8.14941C6.44002 8.14941 6.27001 8.43941 6.70001 8.70941C7.13001 8.97941 6.78001 9.17941 6.87001 9.27941C6.96001 9.37941 7.69002 9.52941 7.75002 9.97941C7.81002 10.4294 7.24001 10.6194 7.26001 10.9094C7.28001 11.1994 8.10001 11.2794 8.24001 11.4894C8.55001 11.9694 7.83001 12.3994 7.87001 12.6294C7.91001 12.8594 8.07001 12.9994 8.49001 12.7094C8.91001 12.4194 9.86001 12.3194 9.87001 12.8194C9.88001 13.3194 10.12 14.1294 10.85 14.2994C10.85 14.2994 11.08 14.5294 10.96 13.7394C10.88 13.2294 11.74 12.7894 11.99 12.9694C12.24 13.1494 12.22 13.5294 12.33 13.5494C12.44 13.5694 13.19 13.5594 13.23 13.1794C13.27 12.7994 12.91 12.4194 13.23 12.2594C13.55 12.0994 13.91 12.1594 14.13 12.1294C14.35 12.0994 14.56 12.0994 14.5 11.7794C14.44 11.4594 14.31 11.3294 14.57 11.1594C14.83 10.9894 15.01 10.4194 15.01 10.4194C15.01 10.4194 15.36 10.7294 14.83 11.1594C14.3 11.5894 14.75 11.7194 14.72 11.8994C14.69 12.0794 14.59 12.3094 14.01 12.4094C13.43 12.5094 13.31 12.4594 13.41 12.8294C13.51 13.1994 13.84 13.7694 12.52 13.8794C11.88 13.9294 11.98 13.2994 11.88 13.2194C11.78 13.1394 11.18 13.3294 11.13 13.7494C11.08 14.1694 11.56 14.8994 10.2 14.3194C9.47001 14.0094 9.74002 13.2294 9.64002 12.8994C9.54002 12.5694 8.75001 12.9094 8.49001 13.0994C8.23001 13.2894 7.62002 13.4094 7.64002 12.6494C7.66002 12.1194 8.06002 12.1794 8.05002 11.7794C8.04002 11.3794 7.44002 11.6894 7.17002 11.2394C6.90002 10.7894 7.13001 10.6294 7.31001 10.4094C7.49001 10.1894 7.81001 9.75941 7.10001 9.61941C6.62001 9.51941 6.64001 9.29941 6.62001 8.90941C6.60001 8.51941 6.13001 8.66941 6.43001 8.14941H6.44002Z" fill="white" stroke="black" stroke-width="0.04" stroke-miterlimit="10"/>
<path d="M10.15 10.9498C10.15 10.9498 10.54 11.7598 10.72 11.8598C10.9 11.9598 11.03 11.7698 11.03 11.7698C11.03 11.7698 10.74 11.5598 10.6 11.3898C10.46 11.2198 10.52 10.8598 10.15 10.9498Z" fill="white" stroke="black" stroke-width="0.04" stroke-miterlimit="10"/>
<path d="M10.24 11.1594C10.24 11.1594 11.17 11.3394 11.43 11.5494C11.69 11.7594 11.94 11.7994 11.94 11.7994C11.94 11.7994 11.79 11.5194 11.51 11.1994C11.2 10.8494 10.74 10.4594 10.69 10.3594C10.59 10.1694 10.25 11.1494 10.25 11.1494L10.24 11.1594Z" fill="white" stroke="black" stroke-width="0.04" stroke-miterlimit="10"/>
<path d="M9.77995 10.5093C9.77995 10.5093 9.59996 10.2393 9.79996 10.0993C9.99996 9.9593 10.0599 9.69931 10.2399 9.82931C10.4199 9.95931 10.25 10.1393 10.5 10.1093C10.75 10.0793 10.8 10.0693 10.83 10.2793C10.86 10.4893 10.8299 10.7693 10.6599 10.8593C10.4899 10.9493 10.5799 10.9693 10.4599 11.1193C10.3399 11.2693 10.1999 11.2493 10.0899 11.2193C9.97995 11.1893 9.77995 11.0293 9.82995 10.8593C9.87995 10.6893 9.84995 10.5493 9.78995 10.5093H9.77995Z" fill="white" stroke="black" stroke-width="0.04" stroke-miterlimit="10"/>
<path d="M11.51 9.81957C11.51 9.81957 11.67 10.4196 11.89 10.6296C12.11 10.8396 12.35 11.2496 12.38 11.2896C12.41 11.3296 12.38 11.5496 12.38 11.5496C12.38 11.5496 11.95 11.1396 11.9 11.0396C11.85 10.9396 11.61 10.2396 11.44 10.0996C11.27 9.95957 11.51 9.80957 11.51 9.80957V9.81957Z" fill="white" stroke="black" stroke-width="0.04" stroke-miterlimit="10"/>
<path d="M11.0401 12.1401C11.0401 12.1401 11.1201 12.2101 11.4201 12.2701C11.7201 12.3301 11.7601 12.3801 11.8201 12.3801C11.8801 12.3801 11.9301 12.1801 11.9301 12.1801C11.9301 12.1801 11.2501 12.1901 11.1301 12.0501C11.0101 11.9101 11.0301 12.1401 11.0301 12.1401H11.0401Z" fill="white" stroke="black" stroke-width="0.04" stroke-miterlimit="10"/>
<path d="M12.02 12.1893C12.02 12.1893 12.12 12.2993 12.25 12.3993C12.38 12.4993 12.51 12.5093 12.54 12.4293C12.57 12.3493 12.38 12.2193 12.35 12.1693C12.32 12.1193 12.3 11.8693 12.23 11.8093C12.16 11.7493 12.03 12.1893 12.03 12.1893H12.02Z" fill="white" stroke="black" stroke-width="0.04" stroke-miterlimit="10"/>
<path d="M10.8 12.3098C10.8 12.3098 10.46 12.0698 10.64 11.7698C10.82 11.4698 11.08 11.4398 11.14 11.5398C11.2 11.6398 11.15 11.7998 11.18 11.9098C11.21 12.0198 11.39 11.9798 11.24 12.1898C11.09 12.3998 10.98 12.4298 10.8 12.3098Z" fill="white" stroke="black" stroke-width="0.04" stroke-miterlimit="10"/>
<path d="M11.6299 11.55C11.6299 11.55 11.66 11.54 11.68 11.85C11.7 12.16 11.41 12.23 11.7 12.3C11.99 12.37 12.05 12.37 12.14 12.21C12.23 12.05 12.41 11.89 12.23 11.7C12.05 11.51 11.99 11.34 11.84 11.36C11.69 11.38 11.57 11.39 11.64 11.57L11.6299 11.55Z" fill="white" stroke="black" stroke-width="0.04" stroke-miterlimit="10"/>
<path d="M10.9901 9.65C11.1701 9.57 11.1701 9.32 11.3101 9.34C11.4501 9.36 11.5701 9.34 11.5801 9.6C11.5901 9.86 11.5301 9.91 11.5301 10.11C11.5301 10.31 11.4601 10.46 11.3001 10.37C11.1401 10.28 11.0401 10.14 10.9901 9.96C10.9401 9.78 10.9301 9.67 10.9901 9.65Z" fill="white" stroke="black" stroke-width="0.04" stroke-miterlimit="10"/>
</svg>
