<svg width="44" height="44" viewBox="0 0 44 44" fill="none" xmlns="http://www.w3.org/2000/svg">
<path d="M25.3365 6.01717C24.429 3.689 23.9341 2.43325 21.8259 0.820029C19.5436 -0.921515 10.1209 0.2884 8.69098 2.78156C7.68272 4.5506 11.0375 4.99974 10.2125 8.07952C11.2025 9.94022 11.9266 11.8926 12.6507 13.8175C13.0723 14.9357 10.9825 15.6048 10.5609 14.4774C10.2125 13.5516 9.85507 12.6259 9.47926 11.7093C8.48933 18.9779 9.99256 27.7956 9.99256 27.7956L25.5381 27.8965C25.5381 27.8965 27.3255 11.141 25.3365 6.01717Z" fill="#FF4B4B"/>
<mask id="mask0_264_217504" style="mask-type:luminance" maskUnits="userSpaceOnUse" x="8" y="0" width="19" height="28">
<path d="M25.3365 6.01717C24.429 3.689 23.9341 2.43325 21.8259 0.820029C19.5436 -0.921515 10.1209 0.2884 8.69098 2.78156C7.68272 4.5506 11.0375 4.99974 10.2125 8.07952C11.2025 9.94022 11.9266 11.8926 12.6507 13.8175C13.0723 14.9357 10.9825 15.6048 10.5609 14.4774C10.2125 13.5516 9.85507 12.6259 9.47926 11.7093C8.48933 18.9779 9.99256 27.7956 9.99256 27.7956L25.5381 27.8965C25.5381 27.8965 27.3255 11.141 25.3365 6.01717Z" fill="white"/>
</mask>
<g mask="url(#mask0_264_217504)">
<path opacity="0.68" d="M25.2266 2.13087C24.365 1.55342 23.2284 1.91089 22.7884 2.58918C21.9635 3.87242 20.1853 4.91735 18.3888 5.08233C18.1504 5.10067 17.9121 5.119 17.6738 5.119C17.628 5.119 17.4997 5.10983 17.4538 5.10983C17.3072 5.10067 17.1697 5.08233 17.023 5.064C16.5281 4.99067 16.2072 4.90818 15.6664 4.68819C15.3365 4.55987 14.8782 4.30322 14.484 4.00991C14.3282 3.89075 14.4199 3.96408 14.3374 3.89075C14.2365 3.79909 14.1449 3.7166 14.0532 3.61577C13.8699 3.43245 12.1559 3.96408 12 3.76243C11.5509 3.16664 8.8011 2.41502 8.18697 2.78166C7.44452 3.2308 8.49862 4.5782 8.94775 5.17399C9.37856 5.74229 12.0275 5.59563 12.66 6.02643C12.5592 6.0906 12.4675 6.15476 12.385 6.23725C11.8992 6.74138 11.9725 7.63049 12.7058 8.02463C15.6939 9.61035 19.6262 10.7378 22.7518 8.96873C24.0075 8.26294 24.8141 7.14469 25.3733 6.02643C25.9874 4.78902 26.8032 3.19413 25.2083 2.13087H25.2266Z" fill="#BF2E2E"/>
</g>
<path d="M21.3766 6.35615C22.2198 3.67967 21.9265 2.68058 23.9522 0.654887C24.603 0.0040988 33.989 0.755713 35.2906 2.7814C36.5922 4.8071 35.4464 4.00965 36.6105 7.41941C35.7397 9.34428 35.1531 11.3333 34.5573 13.304C34.209 14.4498 36.3355 14.9814 36.6838 13.8265C36.968 12.8824 37.2613 11.9383 37.5821 10.9942C39.0395 18.1803 38.1321 27.0805 38.1321 27.0805L22.6232 28.1988C22.6232 28.1988 19.745 11.5991 21.3949 6.34699L21.3766 6.35615Z" fill="#FF4747"/>
<mask id="mask1_264_217504" style="mask-type:luminance" maskUnits="userSpaceOnUse" x="20" y="0" width="19" height="29">
<path d="M21.3766 6.35615C22.2198 3.67967 21.9265 2.68058 23.9522 0.654887C24.603 0.0040988 33.989 0.755713 35.2906 2.7814C36.5922 4.8071 35.4464 4.00965 36.6105 7.41941C35.7397 9.34428 35.1531 11.3333 34.5573 13.304C34.209 14.4498 36.3355 14.9814 36.6838 13.8265C36.968 12.8824 37.2613 11.9383 37.5821 10.9942C39.0395 18.1803 38.1321 27.0805 38.1321 27.0805L22.6232 28.1988C22.6232 28.1988 19.745 11.5991 21.3949 6.34699L21.3766 6.35615Z" fill="white"/>
</mask>
<g mask="url(#mask1_264_217504)">
<path opacity="0.47" d="M21.6698 5.33823C21.6698 5.33823 22.5498 6.35566 23.3564 6.76813C24.5754 7.40059 25.5837 8.02388 29.5343 6.7498C29.8184 6.65814 29.9651 7.07061 30.2584 7.00645C30.3134 6.98812 30.4692 6.95145 30.5242 6.94229C30.6983 6.89646 30.8633 6.84146 31.0375 6.78646C31.6333 6.59398 31.9908 6.42899 32.6049 6.08068C32.9715 5.86986 35.6938 4.33914 36.5371 4.54995C37.5637 4.79744 38.6178 4.07332 38.2145 4.76994C37.8387 5.42989 37.2887 6.05318 36.6288 6.63064C36.7663 6.6673 36.8946 6.70397 37.0137 6.76813C37.7379 7.13477 37.8753 8.02388 37.0779 8.583C33.824 10.8745 30.1942 19.5731 25.9045 18.6381C24.1813 18.2623 20.9182 15.8058 19.9466 14.8526C18.8833 13.8076 20.0016 6.78646 21.6606 5.32907L21.6698 5.33823Z" fill="#BF2E2E"/>
</g>
<path d="M4.27296 5.28356C5.09791 2.52458 7.35275 2.68041 10.7075 2.89122C15.6205 3.20287 22.3117 2.40542 25.6115 15.5495C28.9112 28.6936 29.1312 40.3803 21.056 43.1026C12.9807 45.8249 3.92466 34.1565 2.10062 24.4314C0.945698 18.2535 2.7789 10.279 4.27296 5.28356Z" fill="#FF5C5C"/>
<mask id="mask2_264_217504" style="mask-type:luminance" maskUnits="userSpaceOnUse" x="1" y="2" width="27" height="42">
<path d="M4.27296 5.28356C5.09791 2.52458 7.35275 2.68041 10.7075 2.89122C15.6205 3.20287 22.3117 2.40542 25.6115 15.5495C28.9112 28.6936 29.1312 40.3803 21.056 43.1026C12.9807 45.8249 3.92466 34.1565 2.10062 24.4314C0.945698 18.2535 2.7789 10.279 4.27296 5.28356Z" fill="white"/>
</mask>
<g mask="url(#mask2_264_217504)">
<path opacity="0.26" d="M24.3924 42.3421C23.9616 41.6913 23.0359 41.5447 22.2384 41.8013C22.1284 41.838 22.0093 41.8655 21.8993 41.893C21.221 41.343 20.451 40.8664 19.5069 40.5456C18.6178 40.2431 17.6554 40.124 16.748 39.8581C16.2255 39.7023 15.7305 39.5098 15.2447 39.299C15.0706 39.299 14.8964 39.2715 14.7131 39.1982C14.0165 38.914 13.3749 38.5657 12.7699 38.1899C11.5417 37.6216 10.4326 36.8425 9.45182 35.9626C6.93116 34.111 4.91464 31.8379 3.11809 29.4639C2.40314 29.748 1.90818 30.408 2.34815 31.1413C3.4939 33.0753 4.77715 34.9543 6.20704 36.76C7.50862 38.4099 8.91102 40.0506 10.6801 41.4072C13.3749 43.4879 16.9863 44.8536 20.6527 44.6153C20.7902 44.7711 20.9277 44.927 21.0652 45.0828C21.5601 45.6419 22.3851 45.9627 23.2192 45.6236C23.8975 45.3394 24.3741 44.5053 23.9158 43.9462C24.5391 43.607 24.7132 42.8463 24.3741 42.3421H24.3924Z" fill="#BF2E2E"/>
<path opacity="0.42" d="M8.44354 8.72984C6.91281 6.74081 4.77713 5.37508 2.66895 3.85352C1.9265 4.08267 1.4407 4.84345 1.69735 5.52173C1.54152 5.85171 1.55069 6.22752 1.73401 6.57582C1.99983 7.06162 2.24731 7.55659 2.50396 8.04239C2.17398 9.20647 1.83484 10.3706 1.52319 11.5438C0.753246 12.8271 0.734914 14.6511 0.670752 15.9985C0.670752 16.081 0.670752 16.1635 0.670752 16.246C0.414103 19.5824 0.872404 22.9097 1.77067 26.2094C1.33071 26.7411 1.28488 27.5385 2.07315 28.061C2.3298 28.226 2.57728 28.336 2.8156 28.4093C3.20057 28.9409 3.69554 29.4359 4.3005 29.8484C5.86789 30.9025 8.37938 31.1866 9.69012 29.6925C10.9092 28.2993 11.1292 26.0261 11.34 24.3854C11.5967 22.4422 11.5325 20.4898 11.3217 18.5467C11.0009 15.5494 10.4417 12.3962 9.01183 9.56395C8.81935 9.28897 8.64519 9.01399 8.44354 8.74817V8.72984Z" fill="#FF7575"/>
</g>
<path d="M21.01 43.2866C21.01 43.2866 32.9991 48.7771 40.3503 29.2901C44.9791 17.0351 42.1377 9.29901 39.397 5.24762C37.9579 3.1211 35.6756 4.65183 33.2741 5.56843C27.1145 7.90577 23.2831 6.20089 19.9742 23.433C18.0218 33.6165 18.6451 38.5111 21.01 43.2866Z" fill="#FF6666"/>
<mask id="mask3_264_217504" style="mask-type:luminance" maskUnits="userSpaceOnUse" x="18" y="4" width="25" height="40">
<path d="M21.01 43.2866C21.01 43.2866 32.9991 48.7771 40.3503 29.2901C44.9791 17.0351 42.1377 9.29901 39.397 5.24762C37.9579 3.1211 35.6756 4.65183 33.2741 5.56843C27.1145 7.90577 23.2831 6.20089 19.9742 23.433C18.0218 33.6165 18.6451 38.5111 21.01 43.2866Z" fill="white"/>
</mask>
<g mask="url(#mask3_264_217504)">
<path opacity="0.36" d="M43.045 28.163C45.5014 21.7468 46.3356 14.8264 45.3731 7.88773C44.8873 4.32214 43.9249 0.774893 42.5225 -2.68986C41.8717 -4.29392 38.8652 -3.67979 39.516 -2.07574C41.0376 1.68233 41.9817 5.54123 42.3667 9.40012C41.3492 6.4395 39.626 3.68969 37.7012 0.894052C36.6746 -0.60001 34.0347 0.637403 35.0613 2.1223C37.4445 5.59622 39.4885 8.96932 40.0385 12.8465C40.5885 16.7238 40.7076 20.6743 40.3685 24.5057C40.286 25.459 40.1576 26.3939 40.0018 27.3197C39.351 29.0246 38.5903 30.702 37.692 32.3244C36.5004 34.4692 35.098 36.5407 33.5031 38.4839C32.559 39.0705 31.5874 39.6205 30.5517 40.0971C27.9027 41.3437 23.9613 42.5261 21.0832 40.4271C19.5066 39.2814 17.3892 41.0321 18.975 42.187C22.5956 44.8268 27.3527 44.3777 31.0925 42.8744C31.3949 42.7553 31.6882 42.6178 31.9907 42.4803C32.5865 42.9294 33.4481 43.0669 34.0347 42.4528C34.5022 41.9578 34.9422 41.4354 35.3822 40.9221C34.5755 42.6361 33.7323 44.341 32.8707 46.0367C32.1282 47.5033 34.9605 48.8599 35.703 47.3841C37.417 43.9927 39.0669 40.6013 40.4235 37.1273C40.6984 36.9165 40.9734 36.7057 41.2484 36.4949C41.8992 35.9908 41.7525 35.3308 41.2484 34.8725C42.0092 32.6727 42.6233 30.4361 43.045 28.1446V28.163Z" fill="#FF4343"/>
<path d="M36.1428 13.048C35.8037 12.1222 33.943 11.554 33.1455 12.5805C30.9548 15.4128 29.2774 18.511 28.1592 21.7741C27.0593 24.9913 26.2985 28.6211 26.601 32.0675C26.711 33.3141 27.4351 34.7532 29.1675 35.0281C31.2023 35.3581 32.3114 33.7174 33.2188 32.6083C35.4462 29.8952 36.9677 26.7329 37.6552 23.4423C38.3335 20.2067 38.7368 16.0636 36.1336 13.0388L36.1428 13.048Z" fill="#FF7575"/>
</g>
</svg>
