<svg width="58" height="76" viewBox="0 0 58 76" fill="none" xmlns="http://www.w3.org/2000/svg">
<path d="M26.7713 51.1275C26.4084 55.0671 23.2946 73.0396 24.0362 75.6819C24.0362 75.6819 23.3464 75.8287 22.4573 75.8803C21.8912 75.912 21.2492 75.9041 20.6472 75.793C20.2724 75.7295 19.9176 75.6184 19.6066 75.4518C18.0397 74.6107 20.8665 59.3678 21.4047 58.1816C21.8752 57.1461 23.7052 44.9502 25.5911 42.0421C25.7785 41.7604 26.0177 41.5343 26.1971 41.5422C26.2131 41.5422 26.229 41.5422 26.245 41.5501C26.3088 41.566 26.3566 41.6215 26.3925 41.7168C26.528 42.0897 27.1261 47.1878 26.7673 51.1315L26.7713 51.1275Z" fill="#8EBA50"/>
<path d="M26.249 41.5469C26.3208 42.8006 26.245 44.0583 26.1374 45.312C25.7865 49.8468 24.3552 54.1832 23.6495 58.6545C22.7723 64.3358 22.4613 70.1441 22.4613 75.885C21.8952 75.9167 21.2533 75.9088 20.6512 75.7977C20.9503 69.9775 21.5523 64.2009 22.7404 58.4878C23.9565 52.87 26.2211 47.3592 26.2012 41.543C26.2171 41.543 26.2331 41.543 26.249 41.5509V41.5469Z" fill="#7CA346"/>
<path d="M42.4971 16.6881C43.3718 16.4844 43.7694 14.9944 43.3851 13.3602C43.0008 11.7259 41.9802 10.5662 41.1054 10.7699C40.2306 10.9736 39.833 12.4635 40.2173 14.0978C40.6016 15.7321 41.6223 16.8918 42.4971 16.6881Z" fill="#99C956"/>
<path d="M40.2114 11.3308C40.032 11.557 38.3853 16.0759 36.7985 19.8806C35.4349 23.1458 37.2929 28.5415 37.8271 28.7359C38.3614 28.9303 40.5064 27.9702 41.0606 26.5816C41.6148 25.193 41.9696 21.8881 41.4115 19.3014C41.1244 17.9644 40.7018 16.0084 40.4865 14.4095C40.2831 12.9138 41.0526 11.0293 41.0526 11.0293L40.2154 11.3308H40.2114Z" fill="#DEFFFF"/>
<mask id="mask0_75_32777" style="mask-type:luminance" maskUnits="userSpaceOnUse" x="36" y="11" width="6" height="18">
<path d="M40.2114 11.3308C40.032 11.557 38.3853 16.0759 36.7985 19.8806C35.4349 23.1458 37.2929 28.5415 37.8271 28.7359C38.3614 28.9303 40.5064 27.9702 41.0606 26.5816C41.6148 25.193 41.9696 21.8881 41.4115 19.3014C41.1244 17.9644 40.7018 16.0084 40.4865 14.4095C40.2831 12.9138 41.0526 11.0293 41.0526 11.0293L40.2154 11.3308H40.2114Z" fill="white"/>
</mask>
<g mask="url(#mask0_75_32777)">
<path d="M40.3828 13.965C40.0798 16.2542 39.9203 18.5593 39.8924 20.8644C39.7847 20.9874 39.7289 21.1619 39.7249 21.3405C39.697 22.9195 40.1834 24.4589 40.1555 26.0339C40.1435 26.6886 40.0359 27.3551 39.7488 27.9462C39.4418 28.5771 38.9036 29.0293 38.3773 29.4737C37.7912 29.9657 38.5049 30.9218 39.095 30.4259C39.7129 29.9022 40.311 29.3705 40.7177 28.6604C41.0964 27.9978 41.2759 27.2242 41.3237 26.4664C41.4353 24.6929 40.8811 22.9711 40.913 21.2016C40.917 20.8922 40.5741 20.67 40.2871 20.6779C40.323 18.4522 40.4824 16.2304 40.7735 14.0245C40.8054 13.7706 40.4147 13.7111 40.3788 13.965H40.3828Z" fill="#CAE8E8"/>
<path d="M39.5057 13.1601C39.5057 13.1601 39.5057 13.1363 39.5097 13.1283C39.5256 13.0252 39.4698 12.9577 39.394 12.926C39.2944 12.799 39.0551 12.803 39.0472 13.0014C39.0392 13.2275 39.0232 13.4536 39.0073 13.6838C38.9953 13.7472 38.9874 13.8067 38.9754 13.8702C38.9196 13.8782 38.8717 13.9139 38.8478 13.9853C38.6644 14.5606 38.489 15.1358 38.3335 15.719C38.186 15.7587 38.0544 15.8619 37.9866 16.0563C37.7554 16.699 37.6637 17.3536 37.6278 18.0162C36.9939 18.2741 36.6709 18.889 36.4955 19.5555C35.9851 20.5236 35.8496 21.6305 35.9014 22.7136C35.9293 23.3206 36.0131 23.9396 36.2323 24.5109C36.3041 24.6973 36.4038 24.9195 36.5274 25.1218C36.5593 25.4908 36.655 25.8558 36.8184 26.193C36.958 26.4747 37.1932 26.9508 37.5241 27.0421C37.9069 27.1492 38.0584 26.7167 38.1341 26.4351C38.2179 26.1296 38.2657 25.8161 38.3056 25.5027C38.3454 25.4591 38.3813 25.4035 38.4013 25.3401C38.6166 24.6577 38.6245 23.9316 38.6804 23.2214C38.7402 22.4319 38.788 21.6464 38.8079 20.8529C38.8159 20.4879 38.8079 20.115 38.796 19.742C38.8279 19.2143 38.8677 18.6867 38.9236 18.159C39.099 16.5205 39.5894 14.9176 39.5416 13.2592C39.5416 13.2196 39.5296 13.1918 39.5097 13.164L39.5057 13.1601Z" fill="#F2FFFF"/>
</g>
<path d="M41.9816 11.1236C42.0135 11.2347 42.8986 11.8973 43.2973 13.2422C43.9551 15.4798 45.0316 19.2013 48.2452 22.3356C53.3884 27.3543 53.9227 24.843 53.9067 24.6922C53.8947 24.593 53.4322 21.0104 50.9643 17.8801C49.6087 16.1583 46.5427 15.0871 45.0476 13.6786C43.5524 12.2702 42.4241 10.7705 42.4241 10.7705L41.9856 11.1236H41.9816Z" fill="#DEFFFF"/>
<mask id="mask1_75_32777" style="mask-type:luminance" maskUnits="userSpaceOnUse" x="41" y="10" width="13" height="16">
<path d="M41.9816 11.1236C42.0135 11.2347 42.8986 11.8973 43.2973 13.2422C43.9551 15.4798 45.0316 19.2013 48.2452 22.3356C53.3884 27.3543 53.9227 24.843 53.9067 24.6922C53.8947 24.593 53.4322 21.0104 50.9643 17.8801C49.6087 16.1583 46.5427 15.0871 45.0476 13.6786C43.5524 12.2702 42.4241 10.7705 42.4241 10.7705L41.9856 11.1236H41.9816Z" fill="white"/>
</mask>
<g mask="url(#mask1_75_32777)">
<path d="M54.5845 26.0169C53.512 26.0684 52.5671 25.4654 51.7497 24.8425C50.9722 24.2513 50.1669 23.6364 49.529 22.8905C49.2539 22.1962 48.9907 21.494 48.7036 20.8076C48.289 19.8237 47.8106 18.8676 47.1806 17.9987C46.455 16.9989 45.6695 16.0388 44.912 15.0668L42.3204 11.7381C42.165 11.5357 41.842 11.7738 42.0015 11.9761C42.2567 12.3054 42.5118 12.6308 42.771 12.9601C42.775 12.9878 42.7869 13.0156 42.8029 13.0434C43.5644 14.1662 44.3219 15.285 45.0834 16.4077C45.7493 17.3877 46.439 18.3597 47.065 19.3674C47.045 19.4111 47.0371 19.4587 47.053 19.5142C47.1766 19.9388 47.3241 20.3514 47.4916 20.756C47.4437 20.8076 47.4198 20.883 47.4438 20.9584C47.7826 21.9621 48.4485 22.7834 49.1422 23.5689C49.2937 23.7634 49.4532 23.9498 49.6167 24.1363C50.0233 25.0488 50.4898 25.9335 51.1118 26.7231C51.2713 26.9254 51.5902 26.6873 51.4308 26.485C50.9364 25.8542 50.5417 25.1678 50.1988 24.4537C50.2666 24.3942 50.2905 24.299 50.2147 24.2077C50.1469 24.1244 50.0871 24.0411 50.0194 23.9617C50.4699 24.3704 50.9563 24.7473 51.4347 25.1123C52.3637 25.8224 53.4123 26.4771 54.6283 26.4176C54.8835 26.4057 54.8396 26.0129 54.5845 26.0248V26.0169ZM46.4111 17.6416C46.4749 17.7249 46.5387 17.8082 46.6025 17.8916C47.1168 18.57 47.5474 19.2841 47.9182 20.0379C47.8265 19.8673 47.7388 19.7007 47.6391 19.5341C47.2564 18.8874 46.8337 18.2645 46.4111 17.6416Z" fill="#CAE8E8"/>
<path d="M55.7527 22.9305C53.9027 21.7244 52.5312 20.0065 51.3431 18.1735C50.7131 17.2015 50.0553 16.2969 49.21 15.4955C48.3728 14.706 47.4358 14.0315 46.4989 13.3611C45.8769 12.9127 45.1313 13.8451 45.7573 14.2934C46.6902 14.9639 47.6312 15.6344 48.4684 16.4279C49.3256 17.2372 49.9396 18.2092 50.5855 19.1852C51.7737 20.9825 53.1891 22.6726 55.0111 23.8589C55.649 24.2754 56.3986 23.3471 55.7527 22.9265V22.9305Z" fill="#F2FFFF"/>
</g>
<path d="M40.8493 11.6716C40.8493 11.6716 40.351 16.5119 39.8486 19.6819C39.3462 22.8519 40.7058 25.752 42.6355 26.9066C44.5612 28.0611 45.5739 27.946 45.5739 27.946C45.5739 27.946 48.628 26.978 48.4326 22.5702C48.2771 19.0431 46.8059 17.9124 45.3985 16.2897C43.9911 14.6671 41.9378 11.1797 41.9378 11.1797L40.8533 11.6716H40.8493Z" fill="#F2FFFF"/>
<path d="M42.472 8.93803C42.8628 10.4655 42.8189 11.1955 41.5909 11.5486C41.559 11.5605 41.5231 11.5724 41.4833 11.5803C40.0719 11.9453 39.721 11.3026 39.3143 9.73151C38.9117 8.16041 39.2944 6.70834 40.1636 6.49013C40.2034 6.47823 40.2393 6.47426 40.2752 6.47029C41.1205 6.36317 42.0893 7.43041 42.476 8.93803H42.472Z" fill="#86B04B"/>
<path d="M42.472 8.93803C42.8628 10.4655 42.8189 11.1955 41.5909 11.5486C40.2792 11.8541 39.9323 11.2034 39.5376 9.67597C39.1549 8.18025 39.4818 6.78372 40.2712 6.47029C41.1165 6.36317 42.0853 7.43041 42.472 8.93803Z" fill="#99C956"/>
<path d="M42.1451 8.67979C42.4163 9.7391 42.0973 10.239 41.4793 10.4651C40.9092 10.6714 40.2912 10.2787 40.0161 9.21936C39.741 8.16006 40.0001 7.18011 40.5862 7.02934C41.1723 6.88255 41.87 7.62049 42.1451 8.67979Z" fill="#ABE060"/>
<path d="M41.7026 7.79187C41.9378 8.27986 41.874 8.54964 41.6627 8.71231C41.4634 8.86307 41.1723 8.72421 40.9371 8.23622C40.7018 7.74822 40.6779 7.2523 40.8932 7.12931C41.1085 7.00632 41.4673 7.30387 41.7066 7.79187H41.7026Z" fill="#B5ED66"/>
<path opacity="0.7" d="M46.3702 21.5843C46.9743 21.3529 47.1724 20.411 46.8125 19.4806C46.4527 18.5501 45.6712 17.9834 45.067 18.2148C44.4628 18.4462 44.2647 19.3881 44.6246 20.3185C44.9845 21.2489 45.766 21.8156 46.3702 21.5843Z" fill="white"/>
<path d="M22.4614 75.9959C22.2142 76.0237 21.991 75.8333 21.987 75.5833C21.7278 62.6733 21.9431 49.073 23.0914 36.2066C23.9247 28.1131 24.8337 19.7696 28.7449 12.4656C30.2879 9.63678 32.1618 6.4311 35.4032 5.33212C37.0539 4.79652 38.8919 5.34799 40.1876 6.4311L39.9405 6.74056C37.9629 5.11391 35.4072 5.26864 33.5134 6.94687C31.6674 8.5021 30.4115 10.6247 29.331 12.7631C25.6032 20.0156 24.8576 28.2916 24.1719 36.3018C23.4422 46.0141 23.3186 55.7779 23.4343 65.518C23.4661 68.2912 23.5379 71.2588 23.6376 74.036L23.7333 75.4564C23.7452 75.6785 23.5778 75.869 23.3585 75.8928L22.4614 75.9959Z" fill="#99C956"/>
<path d="M37.7156 0.174195C37.1534 0.531263 26.0855 6.72838 24.6342 23.6296C24.6183 23.8081 24.7379 23.9787 24.9133 24.0264L25.4276 24.1612C25.6469 24.2208 25.8662 24.0898 25.9181 23.8716C26.4882 21.4753 29.6698 8.89063 34.5699 4.45108C39.9962 -0.468528 38.2857 -0.182873 37.7156 0.174195Z" fill="#ABE060"/>
<path d="M39.43 54.5084C39.0672 54.8377 32.1976 59.801 29.6937 63.4748C27.3773 66.867 26.5121 70.8304 26.548 74.9169C26.548 75.262 26.2968 75.5517 25.9579 75.5913L23.9006 75.8294C23.6893 75.8532 23.4939 75.7104 23.4541 75.5041C22.0586 67.9342 25.6868 60.3207 32.3291 56.3731C34.4662 55.1313 39.1748 54.1633 39.3104 54.1276C39.3782 54.1117 39.4938 54.1236 39.5536 54.1791C39.6174 54.2347 39.6174 54.3378 39.43 54.5084Z" fill="#8EBA50"/>
<path d="M39.4299 54.508C39.0671 54.8373 32.1975 59.8006 29.6937 63.4744C27.3693 66.8824 26.5041 70.8657 26.5479 74.972C26.5479 75.2854 26.3207 75.5473 26.0097 75.583L24.4986 75.7575C23.2507 68.1758 26.9945 60.6456 33.6966 56.8131C35.5227 55.7895 37.4803 54.5636 39.5535 54.1787C39.6173 54.2343 39.6173 54.3374 39.4299 54.508Z" fill="#99C956"/>
<path d="M20.3881 75.3455C20.3562 75.6708 20.1529 75.9128 19.9376 75.9009L19.3156 75.8613L17.8005 75.77C17.4537 75.7383 17.1905 75.3217 17.1826 74.798C17.1826 74.7187 17.1786 74.6353 17.1786 74.552C17.1307 70.898 16.7679 67.3472 15.9785 64.0463V64.0383C14.7664 56.4804 12.8527 47.8195 11.2898 44.6773C8.6703 39.4006 2.77751 30.1843 2.19541 29.4027C2.18744 29.3868 2.17946 29.3749 2.17149 29.367C1.97612 29.125 1.97214 28.9663 2.03593 28.8711C2.09573 28.7759 2.21534 28.7481 2.28312 28.764C2.42267 28.8036 5.63221 28.8711 8.51481 31.0135C15.5439 36.2307 21.644 63.5186 20.3881 75.3455Z" fill="#7CA346"/>
<path d="M19.3156 75.8613L17.8005 75.77H17.7527C17.4298 75.7462 17.1865 75.3654 17.1826 74.8853V74.798C17.1826 74.7187 17.1786 74.6353 17.1786 74.552C17.1228 72.1676 16.6603 68.2795 15.9785 64.0463V64.0384C14.7664 56.4804 12.8527 47.8195 11.2898 44.6773C8.6703 39.4006 2.77751 30.1843 2.19541 29.4027C2.18744 29.3869 2.17946 29.375 2.17149 29.367C1.97612 29.125 1.97214 28.9663 2.03593 28.8711C4.18094 29.2282 5.83554 31.0135 7.4144 32.7512C15.4044 41.5431 20.424 64.0344 19.3156 75.8613Z" fill="#99C956"/>
</svg>
