<svg width="42" height="44" viewBox="0 0 42 44" fill="none" xmlns="http://www.w3.org/2000/svg">
<path d="M1.13659 10.5402L17.4524 19.9807L13.9953 25.9796C13.9953 25.9796 10.5303 25.3821 7.76463 24.4182C-1.26349 21.2634 -0.19857 16.1089 1.36705 12.1654C1.47036 11.9025 1.58957 11.0819 1.14452 10.5322L1.13659 10.5402Z" fill="#FFC933"/>
<path d="M1.60547 10.803L17.4524 19.9727L14.647 24.8403C13.5661 24.6651 12.1515 24.3783 10.2998 23.9082C3.46514 22.1874 4.30754 17.1445 3.29029 13.9021C2.91677 12.731 2.27304 11.6634 1.60547 10.7871V10.803Z" fill="#FFBB00"/>
<path d="M1.13672 10.541L17.4525 19.9815L17.1823 20.4356L1.13672 10.541Z" fill="#FFE08A"/>
<path d="M1.1366 10.5406L17.4524 19.9812L20.9095 13.9822C20.9095 13.9822 18.6604 11.2736 16.4431 9.3536C9.20308 3.09179 5.27712 6.59713 2.66246 9.91924C2.48762 10.1423 1.83594 10.6601 1.14453 10.5406H1.1366Z" fill="#FFC933"/>
<path d="M1.13672 10.541L17.4525 19.9815L17.7148 19.5195L1.13672 10.541Z" fill="#FFBB00"/>
<path d="M19.8367 44.0002V25.1191H26.7508C26.7508 25.1191 27.9667 28.4253 28.5151 31.3093C30.3032 40.7259 25.3203 42.3829 21.1321 42.9884C20.8539 43.0362 20.083 43.3389 19.8367 44.0002Z" fill="#FFC933"/>
<path d="M19.8367 43.4586V25.1113H25.4475C25.8369 26.139 26.2978 27.5093 26.8144 29.3496C28.7456 36.1452 23.9613 37.9297 21.6804 40.4392C20.8539 41.3474 20.2579 42.4389 19.8367 43.4586Z" fill="#FFBB00"/>
<path d="M19.8367 44.0002V25.1191H20.3691L19.8367 44.0002Z" fill="#FFE08A"/>
<path d="M19.8365 44.0002V25.1191H12.9223C12.9223 25.1191 11.7064 28.4253 11.158 31.3093C9.36989 40.7259 14.3529 42.3829 18.5411 42.9884C18.8192 43.0362 19.5901 43.3389 19.8365 44.0002Z" fill="#FFC933"/>
<path d="M19.8367 44.0002V25.1191H19.3042L19.8367 44.0002Z" fill="#FFBB00"/>
<path d="M39.7685 10.11L23.4527 19.5505L19.9956 13.5516C19.9956 13.5516 22.2447 10.8429 24.462 8.92294C31.702 2.66112 35.6279 6.16646 38.2426 9.48857C38.4174 9.71164 39.0691 10.2295 39.7605 10.11H39.7685Z" fill="#FFC933"/>
<path d="M39.3074 10.3731L23.4605 19.5427L20.6552 14.6751C21.3466 13.8226 22.3002 12.7392 23.6274 11.3689C28.5309 6.29413 32.4648 9.5525 35.7709 10.2854C36.9709 10.5483 38.2107 10.5244 39.2995 10.3731H39.3074Z" fill="#FFBB00"/>
<path d="M39.7685 10.1104L23.4606 19.5509L23.1904 19.0888L39.7685 10.1104Z" fill="#FFE08A"/>
<path d="M39.7684 10.1095L23.4526 19.5501L26.9097 25.549C26.9097 25.549 30.3747 24.9515 33.1404 23.9875C42.1685 20.8327 41.1036 15.6782 39.5379 11.7347C39.4346 11.4718 39.3154 10.6513 39.7605 10.1016L39.7684 10.1095Z" fill="#FFC933"/>
<path d="M39.7683 10.1104L23.4604 19.5509L23.7227 20.005L39.7683 10.1104Z" fill="#FFBB00"/>
<g style="mix-blend-mode:multiply" opacity="0.8">
<path d="M11.9925 8.96289C11.9925 8.96289 12.8031 14.1173 12.3819 15.2645C11.9607 16.4038 5.01479 18.3476 4.49027 19.1682C3.96574 19.9888 15.3304 33.6277 15.7277 33.2931C16.1251 32.9585 19.3755 30.5765 20.5915 30.6721C21.8074 30.7677 23.6591 32.8629 24.8751 33.7313C25.94 34.4881 28.8725 35.6274 28.8725 35.6274L35.3496 18.5866C35.3496 18.5866 31.8528 17.2323 30.303 15.9656C28.7533 14.6989 29.9852 10.1181 29.9852 10.1181L12.0004 8.97086L11.9925 8.96289Z" fill="#EBAF21"/>
</g>
<path d="M21.0522 0V18.881H14.138C14.138 18.881 12.9221 15.5749 12.3737 12.6909C10.5856 3.27431 15.5685 1.61724 19.7568 1.01177C20.0349 0.963969 20.8058 0.661235 21.0522 0Z" fill="#FFE524"/>
<path d="M21.0522 0.53418V18.8815H15.4415C15.052 17.8538 14.5911 16.4835 14.0745 14.6432C12.1433 7.8476 16.9276 6.06306 19.2085 3.55355C20.035 2.64535 20.631 1.55392 21.0522 0.53418Z" fill="#FFD024"/>
<path d="M21.0523 0V18.881H20.5198L21.0523 0Z" fill="#FFEC61"/>
<path d="M21.0522 0V18.881H27.9664C27.9664 18.881 29.1823 15.5749 29.7307 12.6909C31.5188 3.27431 26.5359 1.61724 22.3477 1.01177C22.0695 0.963969 21.2986 0.661235 21.0522 0Z" fill="#FFE524"/>
<path d="M21.0522 0V18.881H21.5768L21.0522 0Z" fill="#FFD024"/>
<path d="M0.818604 31.755L17.1344 22.3145L20.5915 28.3134C20.5915 28.3134 18.3424 31.022 16.1251 32.942C8.88511 39.2038 4.95915 35.6985 2.34449 32.3764C2.16965 32.1533 1.51797 31.6355 0.826559 31.755H0.818604Z" fill="#FFE524"/>
<path d="M1.28735 31.4841L17.1343 22.3145L19.9396 27.1821C19.2482 28.0345 18.2945 29.118 16.9673 30.4883C12.0639 35.5631 8.12995 32.3047 4.82388 31.5717C3.62384 31.3088 2.38406 31.3327 1.29528 31.4841H1.28735Z" fill="#FFD024"/>
<path d="M0.818604 31.755L17.1344 22.3145L17.3967 22.7765L0.818604 31.755Z" fill="#FFEC61"/>
<path d="M0.818452 31.7549L17.1343 22.3143L13.6772 16.3154C13.6772 16.3154 10.2122 16.9129 7.44651 17.8769C-1.58161 21.0317 -0.516686 26.1862 1.04893 30.1297C1.15225 30.3926 1.27146 31.2131 0.826407 31.7628L0.818452 31.7549Z" fill="#FFE524"/>
<path d="M0.818604 31.7551L17.1344 22.3146L16.8642 21.8525L0.818604 31.7551Z" fill="#FFD024"/>
<path d="M40.1815 31.7471L23.8657 22.3065L27.3228 16.3076C27.3228 16.3076 30.7878 16.9051 33.5535 17.8691C42.5816 21.0239 41.5167 26.1783 39.9511 30.1219C39.8477 30.3848 39.7285 31.2053 40.1736 31.755L40.1815 31.7471Z" fill="#FFE524"/>
<path d="M39.7206 31.4761L23.8737 22.3064L26.234 17.5742C27.3148 17.7495 29.1745 17.8929 31.0183 18.3629C37.8529 20.0837 37.0105 25.1266 38.0278 28.3691C38.4013 29.5402 39.045 30.6077 39.7126 31.4841L39.7206 31.4761Z" fill="#FFD024"/>
<path d="M40.1815 31.7473L23.8737 22.3068L24.1359 21.8447L40.1815 31.7473Z" fill="#FFEC61"/>
<path d="M40.1816 31.7472L23.8657 22.3066L20.4087 28.3056C20.4087 28.3056 22.6578 31.0142 24.8751 32.9342C32.115 39.196 36.041 35.6907 38.6557 32.3686C38.8305 32.1455 39.4822 31.6277 40.1736 31.7472H40.1816Z" fill="#FFE524"/>
<path d="M40.1816 31.7472L23.8737 22.3066L23.6035 22.7687L40.1816 31.7472Z" fill="#FFD024"/>
<g style="mix-blend-mode:multiply" opacity="0.53">
<path d="M19.7965 14.0695C19.7965 14.0695 18.4375 15.5513 16.7129 16.0373C14.9884 16.5312 13.3671 16.4037 13.3989 17.1287C13.4307 17.8537 12.0558 19.1283 12.2466 20.6261C12.4452 22.1238 13.685 22.5779 13.4387 23.6932C13.1843 24.8006 13.6771 26.2904 14.6149 26.6011C15.5526 26.9118 16.7368 28.7202 17.8494 28.529C18.962 28.3378 21.4257 29.3576 22.6098 28.6884C23.794 28.0192 25.5662 28.776 26.6232 25.2627C27.6802 21.7494 26.7186 23.0559 27.3623 22.3628C28.006 21.6777 28.4272 19.1363 27.8232 18.4751C27.2193 17.8138 23.0549 14.2527 19.7965 14.0615V14.0695Z" fill="#D19C1D"/>
</g>
<path d="M14.6627 24.8879C15.521 25.581 17.6349 25.6368 17.9369 25.9076C18.2389 26.1785 19.3436 28.5606 21.4099 28.1622C22.0377 28.0427 22.5623 27.509 23.1583 27.262C24.5173 26.6964 25.7332 26.1785 25.7491 25.2703C25.7571 24.5852 26.8856 24.4497 27.569 23.8443C28.1889 23.2946 28.3876 22.2748 28.2128 21.6455C28.2128 21.6455 28.3082 21.1914 28.5545 20.4744C28.8009 19.7574 27.6724 18.6898 26.7028 18.5464C26.7028 18.5464 26.1068 18.2357 26.4962 17.0248C26.671 16.4671 26.1783 15.4474 25.8445 14.4356C25.4392 13.2327 25.5425 12.5953 24.6842 12.0536C23.9848 11.6154 23.6669 11.1613 23.9292 10.2929C23.9292 10.2929 24.6365 9.12981 22.6099 9.03421C22.6099 9.03421 21.8947 8.66774 21.1556 8.59604C20.4165 8.52434 19.8204 9.01031 19.8046 9.15371C19.7887 9.29711 19.7569 9.55204 18.382 9.91851C17.778 10.0778 18.1038 11.1294 17.4124 11.5995C16.721 12.0695 16.2283 12.0934 15.966 12.1571C15.7038 12.2209 15.7038 12.7706 14.7421 13.2167C13.7805 13.6629 12.8507 13.3761 12.1434 14.2046C11.436 15.0331 11.7063 15.7103 12.1434 16.1007C12.35 16.2839 12.1434 16.9212 12.2864 17.2319C12.4295 17.5426 13.6374 19.0483 13.6374 19.0483C13.6374 19.0483 12.5566 19.8689 13.1686 20.7691L14.3924 22.5696C14.3924 22.5696 13.8202 24.2028 14.6785 24.8959L14.6627 24.8879Z" fill="#FFBE23"/>
<path d="M15.2348 16.9451C16.3077 17.1841 16.9117 16.977 17.5236 15.9732C18.1435 14.9774 18.5011 14.0532 19.3277 14.3799C20.1542 14.7065 20.7661 13.4 21.5608 13.7903C22.3556 14.1807 22.8642 15.2881 24.0563 16.1007C25.2484 16.9133 24.6285 18.0047 24.8192 18.7695C25.01 19.5343 25.3596 21.048 25.6537 21.1914C25.9477 21.3348 26.3133 22.482 26.3133 22.482L24.6047 22.8485L24.8113 24.3701L23.8894 25.2385L22.6417 24.9915L21.9026 24.1869L21.0681 24.3382L20.4323 25.2863L20.4085 26.5211L19.6138 26.553C19.6138 26.553 18.0084 24.9995 17.9607 24.8401C17.913 24.6808 17.8495 23.3743 17.8495 23.3743L16.3951 23.3105L14.6308 23.8443L14.4083 23.0556L15.1077 21.3507L14.6785 21.048L13.6295 20.7293L13.0414 20.0283L14.0507 18.658L13.8838 17.8852L13.1606 17.3275L12.4533 16.8256L12.3579 15.8935C12.3579 15.8935 11.3565 15.5589 12.0797 14.2205C12.0797 14.2205 14.1619 16.6982 15.2269 16.9372L15.2348 16.9451Z" fill="#E6AB20"/>
<path opacity="0.86" d="M18.7796 21.3591C19.5187 22.8967 19.6777 23.3667 20.1465 24.0598C20.6154 24.7529 21.5612 24.0439 21.5612 24.0439L22.2208 24.5219C22.2208 24.5219 23.3175 24.3307 23.5957 24.1474C24.4858 23.5579 24.7162 22.8648 24.7798 22.3709C24.8434 21.869 23.6592 21.1838 23.4049 20.6102C23.1506 20.0366 23.5242 19.5188 23.1904 18.746C22.8566 17.9733 22.1095 17.8458 21.4022 17.9972C20.6949 18.1485 19.4551 18.1406 19.1531 19.0806C18.8511 20.0127 18.3266 20.419 18.7796 21.3671V21.3591Z" fill="#E6D702"/>
<path opacity="0.43" d="M19.5584 21.6452C20.1147 22.8084 20.2339 23.1669 20.5915 23.6847C20.9492 24.2025 21.6565 23.6688 21.6565 23.6688L22.1572 24.0273C22.1572 24.0273 22.9916 23.8839 23.1983 23.7405C23.8738 23.2943 24.0407 22.7765 24.0884 22.3941C24.1361 22.0117 23.2459 21.4939 23.0552 21.0637C22.8645 20.6335 23.1506 20.2431 22.8963 19.6536C22.642 19.072 22.0777 18.9684 21.5452 19.0879C21.0128 19.2074 20.075 19.1995 19.8445 19.9085C19.614 20.6175 19.2167 20.9203 19.5584 21.6373V21.6452Z" fill="#5E5601"/>
<path d="M11.8255 14.7061C11.8255 14.7061 11.5077 15.2478 12.3024 15.7736C13.0971 16.2994 12.4454 16.6738 12.6123 16.8571C12.7792 17.0403 14.1382 17.3271 14.2574 18.1955C14.3766 19.0638 13.3037 19.4144 13.3514 19.9641C13.3991 20.5138 14.925 20.6731 15.1714 21.0635C15.7515 21.9717 14.4084 22.7922 14.4879 23.2224C14.5674 23.6526 14.8614 23.9235 15.6403 23.3818C16.4191 22.84 18.1993 22.6488 18.2072 23.5889C18.2152 24.529 18.6761 26.0745 20.0271 26.4091C20.0271 26.4091 20.4563 26.8393 20.2338 25.3495C20.0907 24.3935 21.6961 23.5491 22.1491 23.8916C22.6021 24.2342 22.5862 24.9592 22.7849 24.991C22.9835 25.0229 24.3902 25.0229 24.4617 24.282C24.5333 23.5411 23.8577 22.8321 24.4697 22.5453C25.0816 22.2585 25.7333 22.3541 26.1545 22.3063C26.5757 22.2585 26.9651 22.2425 26.8459 21.6371C26.7267 21.0316 26.4883 20.7767 26.981 20.466C27.4738 20.1553 27.7996 19.0559 27.7996 19.0559C27.7996 19.0559 28.4592 19.6454 27.4658 20.458C26.4724 21.2706 27.3148 21.5176 27.2671 21.8601C27.2195 22.2027 27.0208 22.6329 25.9399 22.8241C24.8671 23.0233 24.6286 22.9197 24.8273 23.6128C25.026 24.3059 25.622 25.3973 23.1743 25.5965C21.9822 25.6921 22.165 24.4891 21.9822 24.3378C21.7994 24.1864 20.6868 24.5449 20.5755 25.3495C20.4643 26.1542 21.3782 27.5245 18.8351 26.433C17.484 25.8514 17.9767 24.3617 17.794 23.7323C17.6112 23.1029 16.125 23.7562 15.6403 24.1067C15.1555 24.4573 14.019 24.6883 14.0587 23.2623C14.0905 22.2505 14.8455 22.37 14.8296 21.6052C14.8137 20.8404 13.6932 21.4459 13.1845 20.5855C12.6759 19.7251 13.121 19.4303 13.4547 19.016C13.7885 18.6018 14.3846 17.7892 13.0574 17.5024C12.1514 17.3112 12.207 16.8969 12.1673 16.156C12.1276 15.4151 11.2613 15.6939 11.8097 14.714L11.8255 14.7061Z" fill="#FFCD54"/>
<path d="M18.7238 20.0207C18.7238 20.0207 19.447 21.5662 19.7808 21.7415C20.1145 21.9168 20.353 21.5742 20.353 21.5742C20.353 21.5742 19.8205 21.1838 19.5503 20.8492C19.2801 20.5146 19.4072 19.8454 18.7158 20.0127L18.7238 20.0207Z" fill="#D9A703"/>
<path d="M18.8988 20.4265C18.8988 20.4265 20.6393 20.777 21.1161 21.1754C21.5929 21.5737 22.0618 21.6534 22.0618 21.6534C22.0618 21.6534 21.7837 21.1196 21.2512 20.5141C20.6711 19.8529 19.8207 19.112 19.7253 18.9208C19.5346 18.5623 18.8988 20.4265 18.8988 20.4265Z" fill="#F2D203"/>
<path d="M18.0322 19.184C18.0322 19.184 17.6984 18.6741 18.064 18.3953C18.4295 18.1164 18.5487 17.6305 18.8746 17.8774C19.2004 18.1244 18.8985 18.467 19.3673 18.4032C19.8362 18.3395 19.9237 18.3315 19.9872 18.7378C20.0508 19.1441 19.9713 19.662 19.6773 19.8293C19.3832 19.9966 19.5263 20.0444 19.2958 20.3232C19.0653 20.602 18.811 20.5622 18.6044 20.5224C18.3978 20.4825 18.0163 20.1559 18.1117 19.8452C18.207 19.5345 18.1514 19.2557 18.0401 19.184H18.0322Z" fill="#F2DE03"/>
<path d="M21.2747 17.8693C21.2747 17.8693 21.5767 19.0085 21.99 19.4069C22.4032 19.8052 22.8562 20.5859 22.9039 20.6656C22.9516 20.7453 22.896 21.1595 22.896 21.1595C22.896 21.1595 22.1013 20.3868 21.9979 20.1956C21.8946 20.0044 21.4575 18.6819 21.1476 18.411C20.8376 18.1402 21.2747 17.8613 21.2747 17.8613V17.8693Z" fill="#D9A703"/>
<path d="M20.3847 22.2747C20.3847 22.2747 20.5278 22.4102 21.1 22.5297C21.6722 22.6492 21.7357 22.7368 21.8549 22.7288C21.9742 22.7209 22.0616 22.3464 22.0616 22.3464C22.0616 22.3464 20.79 22.3703 20.5675 22.1074C20.345 21.8445 20.3847 22.2827 20.3847 22.2827V22.2747Z" fill="#D9A703"/>
<path d="M22.2206 22.3786C22.2206 22.3786 22.4034 22.5778 22.6418 22.7849C22.8802 22.992 23.1345 22.992 23.1743 22.8407C23.214 22.6893 22.8723 22.4344 22.8246 22.3467C22.7769 22.2591 22.7213 21.7811 22.5941 21.6536C22.467 21.5262 22.2126 22.3786 22.2126 22.3786H22.2206Z" fill="#F2D203"/>
<path d="M19.9397 22.6091C19.9397 22.6091 19.3039 22.1629 19.6456 21.5893C19.9873 21.0157 20.4642 20.96 20.5754 21.1591C20.6867 21.3583 20.6072 21.6531 20.639 21.8522C20.6708 22.0514 21.0364 21.9797 20.7503 22.378C20.4721 22.7764 20.2575 22.8401 19.9317 22.6011L19.9397 22.6091Z" fill="#F2DE03"/>
<path d="M21.4897 21.1592C21.5214 21.2389 21.5374 21.1353 21.5771 21.7169C21.6168 22.2985 21.0764 22.4339 21.6089 22.5693C22.1413 22.7048 22.2605 22.6968 22.4274 22.3941C22.5943 22.0913 22.9202 21.7886 22.5943 21.4221C22.2606 21.0557 22.1572 20.745 21.8711 20.7689C21.585 20.7928 21.3705 20.8246 21.4976 21.1592H21.4897Z" fill="#F2DE03"/>
<path d="M20.2973 17.5431C20.6311 17.3838 20.6232 16.9137 20.8934 16.9536C21.1636 16.9934 21.3782 16.9615 21.402 17.4475C21.4259 17.9335 21.3066 18.037 21.3146 18.4194C21.3225 18.8018 21.1715 19.0807 20.8934 18.9134C20.6152 18.7461 20.4086 18.4672 20.3132 18.1326C20.2179 17.798 20.202 17.5909 20.3053 17.5431H20.2973Z" fill="#F2DE03"/>
</svg>
