<svg width="83" height="47" viewBox="0 0 83 47" fill="none" xmlns="http://www.w3.org/2000/svg">
<path d="M82.7387 4.80477C83.5287 7.29477 82.8087 12.3448 76.1087 14.8248C75.3687 15.1048 74.5487 15.3448 73.6587 15.5448C65.5987 17.3748 61.7887 11.3448 57.6387 14.9648C55.7087 16.6548 54.2787 17.5948 54.2787 17.5948L53.7287 16.9748L53.5687 16.7948C53.5687 16.7948 54.6287 13.7648 57.1787 10.8848C57.1787 10.8848 57.182 10.8781 57.1887 10.8648C58.5487 9.31477 60.3287 7.80477 62.5887 6.82477C67.4287 4.73477 71.8487 6.49477 75.0487 6.59477C75.2687 6.59477 75.4887 6.59477 75.6987 6.59477C76.5187 6.54477 77.2487 6.34477 77.8587 5.88477C80.8987 3.60477 79.2387 1.03477 78.6387 0.634766C78.7487 0.684766 80.2287 1.33477 81.4287 2.61477C81.5087 2.68477 81.5687 2.75477 81.6387 2.85477C82.1087 3.39477 82.5187 4.04477 82.7587 4.79477L82.7387 4.80477Z" fill="#C7C7C7"/>
<g style="mix-blend-mode:multiply" opacity="0.56">
<path d="M82.7386 4.80497C83.5286 7.29497 82.8086 12.345 76.1086 14.825C75.3686 15.105 74.5486 15.345 73.6586 15.545C65.5986 17.375 61.7886 11.345 57.6386 14.965C55.7086 16.655 54.2786 17.595 54.2786 17.595L53.7286 16.975C54.5886 16.125 57.4286 13.395 59.1886 13.055C61.2786 12.645 64.5486 13.415 67.0486 13.885C69.5486 14.365 73.6886 12.715 73.6886 12.715C73.6886 12.715 72.3686 14.185 71.1086 14.385C71.1086 14.385 72.1886 14.885 74.3786 13.565C74.9186 13.235 75.3986 12.895 75.8486 12.575C75.9886 12.475 76.1186 12.375 76.2486 12.275C76.3786 12.185 76.4986 12.095 76.6186 12.005C77.5786 11.305 78.3386 10.845 79.0986 11.105C80.3786 11.545 80.7686 10.035 81.1986 9.05497C81.6386 8.08497 81.0386 4.52497 81.7386 5.36497C82.3686 6.14497 82.3786 3.87497 81.6286 2.84497C82.0986 3.38497 82.5086 4.03497 82.7486 4.78497L82.7386 4.80497Z" fill="#C7C7C7"/>
</g>
<path d="M55.0486 30.7249C55.0486 30.7249 54.4786 31.1449 53.8186 31.8549C53.6086 32.0849 53.3786 32.3449 53.1686 32.6249C52.4186 33.6049 51.7586 34.9149 51.8686 36.3249C51.9986 38.0549 51.3486 42.7349 50.7386 43.8849C50.2686 44.7949 49.7086 45.4849 49.3186 45.9249C48.6886 46.6249 45.1486 46.9649 44.7286 45.8549C44.7086 45.7949 44.6886 45.7249 44.6886 45.6449C44.6586 43.8149 46.5486 44.5449 46.7386 44.3049C46.8986 44.0849 46.9586 42.8849 46.8786 42.3849C46.6286 40.7849 45.9686 35.9549 45.3286 34.9149C44.9286 34.2549 44.5886 33.8349 44.5186 33.8149L48.7386 32.5849L52.3686 31.5249C52.6686 31.4349 52.8086 31.3949 52.8086 31.3949L54.1086 31.0149L55.0686 30.7349L55.0486 30.7249Z" fill="#C7C7C7"/>
<g style="mix-blend-mode:multiply" opacity="0.7">
<path d="M55.0486 30.7248C55.0486 30.7248 54.4786 31.1448 53.8186 31.8548C53.6086 32.0848 53.3786 32.3448 53.1686 32.6248C52.4186 33.6048 51.7586 34.9148 51.8686 36.3248C51.9986 38.0548 51.3486 42.7348 50.7386 43.8848C50.2686 44.7948 49.7086 45.4848 49.3186 45.9248C48.6886 46.6248 45.1486 46.9648 44.7286 45.8548C46.3986 46.1748 48.6286 45.3148 49.4886 44.5148C49.7486 44.2648 50.0486 43.8448 50.3186 43.3348C50.8886 42.2148 51.3386 40.6848 51.1386 39.6548C50.9186 38.5748 49.0486 34.6848 47.9386 34.3848C47.5186 34.2748 47.2286 34.2148 47.2286 34.2148L53.0186 31.4948L54.0886 30.9948L55.0486 30.7148V30.7248Z" fill="#C7C7C7"/>
</g>
<path d="M69.4687 44.3048C68.7387 45.4848 65.7687 46.7748 64.9787 45.7648C64.1987 44.7548 65.5387 43.4048 65.5387 42.8948C65.5387 42.8948 64.9187 41.5148 63.5187 39.9148H63.4987C61.7587 37.9448 58.9687 32.4548 54.4887 32.0248C54.4887 32.0248 53.9987 32.2748 53.1587 32.6448C51.9687 33.1548 50.0887 33.8748 47.9287 34.4048C47.0887 34.6248 46.2087 34.8048 45.3087 34.9248C44.4387 35.0448 43.5387 35.1148 42.6587 35.1148C42.3787 35.1148 42.0887 35.1148 41.8087 35.0848C41.5787 35.0848 41.3487 35.0548 41.1187 35.0348C41.0087 35.0348 40.9187 35.0148 40.8087 34.9948C40.5787 34.9648 40.3487 34.9348 40.1187 34.8848C39.8687 34.8448 39.6287 34.7848 39.3787 34.7148C39.3487 34.7148 39.3287 34.7148 39.2987 34.6948C39.2587 34.6948 39.2287 34.6748 39.1987 34.6648C38.9887 34.6148 38.7887 34.5448 38.5787 34.4748C38.3387 34.3948 38.1087 34.2948 37.8787 34.2048C37.8787 34.2048 37.8087 39.5948 37.5287 41.8148C37.2987 43.6748 36.7887 45.5348 35.7487 46.1248C33.9487 47.1348 30.8887 47.3248 30.9287 45.8748C30.9787 44.0248 32.5787 44.9248 32.6387 44.1348C32.6787 43.6248 32.5587 42.8648 32.3587 42.0648C31.8887 40.2048 31.1187 34.8648 30.5287 34.7048C30.1887 34.6148 29.6187 34.5948 29.0287 34.6148C28.6487 34.6348 28.2687 34.6548 27.9387 34.7248C27.5187 34.7848 27.1787 34.8748 27.0487 34.9848C26.9187 35.0948 26.1587 37.4848 25.1687 38.6448C24.2687 39.6948 23.0887 40.9648 21.7387 42.0848C20.5387 43.0648 19.2187 43.9148 17.8487 44.3748C17.3087 44.5548 16.7587 44.6848 16.2187 44.7148C16.1987 44.7148 16.1887 44.7148 16.1787 44.7148C15.5687 44.7548 15.0587 44.7548 14.6087 44.7348C14.4487 44.7148 14.2887 44.7048 14.1487 44.6948C14.1287 44.6948 14.1187 44.6948 14.1087 44.6948C13.9787 44.6748 13.8587 44.6548 13.7387 44.6448C13.6487 44.6248 13.5687 44.6048 13.4887 44.5848C13.4587 44.5848 13.4487 44.5848 13.4187 44.5648C13.2487 44.5248 13.1087 44.4548 12.9887 44.3948C12.8987 44.3548 12.8287 44.3048 12.7587 44.2648C12.7287 44.2348 12.6987 44.2148 12.6687 44.1948L12.5887 44.1148C12.5887 44.1148 12.5187 44.0248 12.4787 43.9848C12.4187 43.8948 12.3787 43.8048 12.3687 43.7148C12.3687 43.6748 12.3487 43.6248 12.3487 43.5848C12.3487 43.5448 12.3487 43.4848 12.3687 43.4348C12.3887 43.3848 12.3987 43.3248 12.4087 43.2848C12.4487 43.1448 12.5287 43.0148 12.6387 42.8848C13.3687 42.0448 14.4887 42.8848 14.9987 42.3248C15.3287 41.9648 16.8887 40.5648 18.1887 38.9548C18.8987 38.0748 19.6387 35.6348 19.9387 34.7648C20.5987 32.8048 20.7387 29.7448 19.9787 28.0348C19.9387 27.9648 19.9187 27.8948 19.8787 27.8348C19.8787 27.8348 19.8787 27.7948 19.8487 27.7848C19.8487 27.7648 19.8287 27.7448 19.8187 27.7248C19.7987 27.6848 19.7787 27.6548 19.7487 27.6148C19.6787 27.4948 19.5987 27.3848 19.4987 27.2848C19.4587 27.2448 19.4287 27.2048 19.3887 27.1748C19.3387 27.1248 19.2687 27.0648 19.2087 27.0248C18.4587 26.5148 15.9187 23.7248 14.8287 23.2048C14.5587 23.0648 14.2587 22.9448 13.9187 22.8248C13.6687 22.7348 13.3987 22.6548 13.1087 22.5848C13.0087 22.5648 12.9087 22.5448 12.7987 22.5248C11.8587 22.3248 13.6387 21.1748 12.1287 21.2148H11.9387L17.3687 19.0848L24.9387 12.9248L26.1587 11.9348C26.1587 11.9348 26.1587 12.1348 26.1987 12.4748C26.2187 12.6048 26.2387 12.7548 26.2887 12.9148C26.3287 13.0648 26.3687 13.2248 26.4287 13.3848C26.4687 13.4948 26.4987 13.5848 26.5387 13.6948C26.5887 13.8148 26.6487 13.9348 26.7187 14.0648C26.9387 14.4748 27.2487 14.9048 27.6687 15.3248C27.7087 15.3648 27.7287 15.3948 27.7687 15.4148C27.9187 15.5848 28.0887 15.7248 28.2687 15.8548C28.2887 15.8748 28.3087 15.8948 28.3287 15.9048C29.6387 16.8648 31.7487 17.6348 35.1387 17.6648C43.1787 17.7248 51.9187 12.2048 57.7887 16.3248C58.6887 16.9448 59.5087 17.8048 60.2687 18.9348C62.6787 22.5548 63.8587 27.9548 65.4887 30.9648C65.8287 31.6048 66.1987 32.1448 66.6087 32.5248C67.3387 33.2148 67.9787 34.2048 68.4887 35.2748C69.6087 37.6048 69.9687 43.4948 69.4687 44.3048Z" fill="#C7C7C7"/>
<g style="mix-blend-mode:multiply" opacity="0.2">
<path d="M29.0386 34.6148C28.6586 34.6348 28.2786 34.6548 27.9486 34.7248C27.5286 34.7848 27.1886 34.8748 27.0586 34.9848C26.9286 35.0948 26.1686 37.4848 25.1786 38.6448C24.2786 39.6948 23.0986 40.9648 21.7486 42.0848C20.5486 43.0648 19.2286 43.9148 17.8586 44.3748C17.3186 44.4848 16.7686 44.6048 16.2286 44.7148C16.2086 44.7148 16.1986 44.7148 16.1886 44.7148C15.3386 44.7748 14.6586 44.7548 14.1186 44.6748C13.8586 44.6448 13.6286 44.5948 13.4286 44.5448C13.2586 44.5048 13.1186 44.4348 12.9986 44.3748C12.8286 44.2948 12.6886 44.1948 12.5986 44.0948C12.3986 43.8848 12.3386 43.6448 12.3786 43.4048C12.3786 43.3548 12.4086 43.2948 12.4186 43.2548C12.4586 43.1148 14.6986 43.6548 15.2086 43.0948C15.5386 42.7348 18.6486 41.9948 19.9486 40.3848C20.6586 39.5048 21.2586 36.6048 21.5586 35.7348C22.0986 34.1248 21.7286 31.5448 21.1586 29.7248C21.0386 29.3248 20.8986 28.9648 20.7586 28.6548C20.7186 28.5848 19.9286 27.8648 19.8886 27.8048C19.8886 27.8048 19.8886 27.7648 19.8586 27.7548C19.8586 27.7348 19.8386 27.7148 19.8286 27.6948C19.8086 27.6548 19.7886 27.6248 19.7586 27.5848C20.4086 27.4948 21.3386 27.5448 21.9686 28.3448C22.5286 29.0548 24.4986 30.7848 26.2186 32.2448C26.3686 32.3748 26.5086 32.4948 26.6486 32.6148C27.8286 33.6048 28.8186 34.4148 29.0286 34.5948L29.0386 34.6148Z" fill="#C7C7C7"/>
</g>
<g style="mix-blend-mode:multiply" opacity="0.56">
<path d="M29.0387 34.6147C28.6587 34.6347 28.2787 34.6547 27.9487 34.7247C27.5287 34.7847 27.1887 34.8747 27.0587 34.9847C26.9287 35.0947 26.1687 37.4847 25.1787 38.6447C24.2787 39.6947 23.0987 40.9647 21.7487 42.0847C20.5487 43.0647 19.2287 43.9147 17.8587 44.3747C17.3187 44.5547 16.7687 44.6847 16.2287 44.7147C16.2087 44.7147 16.1987 44.7147 16.1887 44.7147C15.3387 44.7747 14.6587 44.7547 14.1187 44.6747C13.8587 44.6447 13.6287 44.5947 13.4287 44.5447C13.2587 44.5047 13.1187 44.4347 12.9987 44.3747C12.8287 44.2947 12.6887 44.1947 12.5987 44.0947C12.3987 43.8847 12.3387 43.6447 12.3787 43.4047C12.3787 43.3547 12.4087 43.2947 12.4187 43.2547C13.0887 43.5647 14.2087 43.8747 15.9287 43.7747C18.0687 43.6547 19.1687 42.5747 20.4187 41.3647C20.4487 41.3447 20.4587 41.3247 20.4787 41.3047C20.6587 41.1247 20.8387 40.9547 21.0287 40.7847C21.4387 40.3847 21.8987 40.0047 22.4187 39.6347C23.8487 38.6347 24.5687 35.4447 24.8187 34.2247C24.9187 33.7647 24.9587 33.3847 24.9887 33.1147C24.9887 33.0047 24.9887 32.9147 24.9887 32.8447C24.9887 32.7747 24.9887 32.7347 24.9887 32.7347L25.7387 32.6847L26.6387 32.6147C27.8187 33.6047 28.8087 34.4147 29.0187 34.5947L29.0387 34.6147Z" fill="#C7C7C7"/>
</g>
<path d="M30.5387 34.7047C30.5387 34.7047 29.0287 35.0247 27.9487 34.7247C27.9187 34.7247 27.9087 34.7247 27.8787 34.7047C27.4087 34.5647 26.2787 34.0147 24.9887 33.1447C24.8587 33.0647 24.7387 32.9747 24.5987 32.8847C23.4287 32.0647 22.1687 31.0147 21.1487 29.7647C20.6987 29.2247 20.3087 28.6447 19.9787 28.0447C19.9387 27.9747 19.9187 27.9047 19.8787 27.8447C19.8787 27.8447 19.8787 27.8047 19.8487 27.7947C19.8487 27.7747 19.8287 27.7547 19.8187 27.7347C19.7987 27.6947 19.7787 27.6647 19.7487 27.6247C19.7287 27.5847 19.6987 27.5347 19.6687 27.4947C19.6187 27.4247 19.5587 27.3647 19.4987 27.3047C19.4587 27.2647 19.4287 27.2247 19.3887 27.1947C19.3387 27.1447 19.2687 27.0847 19.2087 27.0447C18.4587 26.5347 15.9187 23.7447 14.8287 23.2247C14.5587 23.0847 14.2587 22.9647 13.9187 22.8447C13.6687 22.7547 13.3987 22.6747 13.1087 22.6047C13.0087 22.5847 12.9087 22.5647 12.7987 22.5447C11.8587 22.3447 13.6387 21.1947 12.1287 21.2347H11.9387L17.3687 19.1047C17.4387 19.7647 17.6387 20.7847 18.1987 21.8947C18.3787 22.2647 18.6087 22.6447 18.8887 23.0147C19.3087 23.6047 19.8387 24.1847 20.5087 24.7247C22.5087 26.3547 24.6787 28.9747 26.6887 31.1847C28.0887 32.7047 29.4087 34.0347 30.5487 34.7047H30.5387Z" fill="#C7C7C7"/>
<g style="mix-blend-mode:multiply" opacity="0.2">
<path d="M19.8486 27.7849C19.8486 27.7849 19.8786 27.8249 19.8886 27.8349C19.8886 27.8349 19.8886 27.7949 19.8586 27.7849H19.8486Z" fill="#C7C7C7"/>
</g>
<g style="mix-blend-mode:multiply" opacity="0.2">
<path d="M24.2886 16.6447C24.1086 17.4747 25.1986 16.8647 25.1986 16.8647C25.1986 16.8647 24.0386 18.3647 23.1786 18.7047C22.3186 19.0347 20.6786 20.2747 20.4486 20.5747C20.2286 20.8747 21.1586 21.0947 21.3086 20.9947C21.3086 20.9947 20.1086 22.0247 19.4586 22.0847C19.2086 22.1047 18.9886 22.4447 18.8886 23.0047C18.6886 24.0547 18.8486 25.8147 19.8286 27.7147C19.7386 27.5547 19.6386 27.4047 19.5086 27.2847C19.4686 27.2447 19.4386 27.2047 19.3986 27.1747C19.3486 27.1247 19.2786 27.0647 19.2186 27.0247C18.4686 26.5147 15.9286 23.7247 14.8386 23.2047C14.5686 23.0647 14.2686 22.9447 13.9286 22.8247C13.6786 22.7347 13.4086 22.6547 13.1186 22.5847C13.0186 22.5647 12.9186 22.5447 12.8086 22.5247C11.8686 22.3247 13.6486 21.1747 12.1386 21.2147C11.0386 21.4647 9.68864 21.7247 8.41864 21.7747C8.16864 21.7947 7.86864 21.8047 7.53864 21.8147L8.28864 21.6847C8.28864 21.6847 12.3886 19.3747 16.6986 17.0647H16.7186C17.5286 16.6347 18.3386 16.2047 19.1386 15.7947H19.1586C21.4286 14.5947 23.5486 13.5347 24.9486 12.9447C25.4886 12.7147 25.9186 12.5447 26.2086 12.4847C26.3986 12.4447 26.5286 12.4347 26.5886 12.4647L26.6986 12.5347C26.5586 12.6647 26.4186 12.7947 26.2986 12.9247C26.3386 13.0747 26.3786 13.2347 26.4386 13.3947C26.6386 13.3547 26.8786 13.3347 27.1186 13.3547C27.1186 13.3547 26.8686 13.4947 26.5586 13.6947C26.6086 13.8147 26.6686 13.9347 26.7386 14.0647C26.5586 14.2547 26.3586 14.4447 26.1486 14.5847C26.1486 14.5847 26.7786 14.7447 26.8286 15.5247C26.8286 15.5247 24.4986 15.8247 24.3186 16.6447H24.2886Z" fill="#C7C7C7"/>
</g>
<g style="mix-blend-mode:soft-light" opacity="0.31">
<path d="M27.6686 15.3147C27.6686 15.3147 27.7286 15.3847 27.7686 15.4047C27.6986 15.3447 27.6586 15.3147 27.6586 15.3147H27.6686Z" fill="#C7C7C7"/>
</g>
<g style="mix-blend-mode:multiply" opacity="0.2">
<path d="M69.4686 44.3049C68.7386 45.4849 65.7686 46.7749 64.9786 45.7649C64.1986 44.7549 65.5386 43.4049 65.5386 42.8949C65.5386 42.8949 64.9186 41.5149 63.5186 39.9149H63.4986C61.7586 37.9449 58.9686 32.4549 54.4886 32.0249C54.4886 32.0249 53.9986 32.2749 53.1586 32.6449C52.4086 33.6249 51.7486 34.9349 51.8586 36.3449C51.9886 38.0749 51.3386 42.7549 50.7286 43.9049C50.2586 44.8149 49.6986 45.5049 49.3086 45.9449C48.6786 46.6449 45.1386 46.9849 44.7186 45.8749C44.6986 45.8149 44.6786 45.7449 44.6786 45.6649C44.6486 43.8349 46.5386 44.5649 46.7286 44.3249C46.8886 44.1049 46.9486 42.9049 46.8686 42.4049C46.6186 40.8049 45.9586 35.9749 45.3186 34.9349C44.4486 35.0549 43.5486 35.1249 42.6686 35.1249C42.3886 35.1249 42.0986 35.1249 41.8186 35.0949C41.5886 35.0949 41.3586 35.0649 41.1286 35.0449C41.0186 35.0449 40.9286 35.0249 40.8186 35.0049C40.5886 34.9749 40.3586 34.9449 40.1286 34.8949C39.8786 34.8549 39.6386 34.7949 39.3886 34.7249C39.3586 34.7249 39.3386 34.7249 39.3086 34.7049C39.2686 34.7049 39.2386 34.6849 39.2086 34.6749C38.9986 34.6249 38.7986 34.5549 38.5886 34.4849C38.3486 34.4049 38.1186 34.3049 37.8886 34.2149C37.8886 34.2149 37.8186 39.6049 37.5386 41.8249C37.3086 43.6849 36.7986 45.5449 35.7586 46.1349C33.9586 47.1449 30.8986 47.3349 30.9386 45.8849C30.9886 44.0349 32.5886 44.9349 32.6486 44.1449C32.6886 43.6349 32.5686 42.8749 32.3686 42.0749C31.8986 40.2149 31.1286 34.8749 30.5386 34.7149C30.5386 34.7149 29.0286 35.0349 27.9486 34.7349C27.9186 34.7349 27.9086 34.7349 27.8786 34.7149C27.4086 34.5749 26.2786 34.0249 24.9886 33.1549C24.8586 33.0749 24.7386 32.9849 24.5986 32.8949C24.5986 32.8949 24.7686 32.8949 24.9986 32.8949C25.2286 32.8649 25.5186 32.8349 25.7586 32.7349C25.9386 32.6649 26.0886 32.5649 26.1586 32.4249C26.1886 32.3849 26.1986 32.3349 26.2186 32.2949C26.3686 31.9349 26.4586 31.4149 26.6786 31.2049C26.7786 31.0949 26.9186 31.0649 27.0986 31.1449C27.7286 31.4249 28.9586 31.9549 29.4086 31.4049C29.8686 30.8649 29.5186 30.0349 31.0986 31.0849C32.6686 32.1449 33.1186 33.0949 34.6886 32.0849C36.2586 31.0749 36.2786 29.6749 37.6986 30.7449C39.1186 31.8149 40.7986 31.9049 42.9886 31.6349C45.1786 31.3649 49.4186 29.4049 50.8886 30.0749C52.3586 30.7549 53.7586 28.3949 55.4386 29.4049C57.1286 30.4149 57.0086 31.7549 59.8186 31.0249C62.6186 30.3049 62.7786 29.7449 63.6886 30.1949C64.3386 30.5249 64.9886 31.3049 65.4886 30.9849C65.8286 31.6249 66.1986 32.1649 66.6086 32.5449C67.3386 33.2349 67.9786 34.2249 68.4886 35.2949C69.6086 37.6249 69.9686 43.5149 69.4686 44.3249V44.3049Z" fill="#C7C7C7"/>
</g>
<g style="mix-blend-mode:multiply" opacity="0.57">
<path d="M37.8887 34.2053C37.8887 34.2053 37.8187 39.5953 37.5387 41.8153C37.3087 43.6753 36.7987 45.5353 35.7587 46.1253C33.9587 47.1353 30.8987 47.3253 30.9387 45.8753C32.3487 47.2853 33.1787 46.0453 34.4487 45.9853C35.7187 45.9353 35.9587 44.4753 36.4387 43.5653C36.6287 43.1953 36.7087 42.6853 36.7687 42.1353C36.8487 41.3153 36.8687 40.3853 37.1187 39.6253C37.5387 38.3353 37.5187 32.8853 37.5187 32.8853C37.6087 33.3653 37.6787 33.7453 37.9087 34.2153L37.8887 34.2053Z" fill="#C7C7C7"/>
</g>
<path d="M18.7586 2.83482C18.7586 2.98482 18.7586 3.12482 18.7486 3.27482C18.7486 3.41482 18.7286 3.55482 18.7186 3.70482C18.6786 4.13482 18.6186 4.60482 18.5086 5.12482C18.4986 5.21482 18.4786 5.30482 18.4486 5.40482C18.4486 5.43482 18.4386 5.46482 18.4286 5.50482C18.3986 5.65482 18.3686 5.80482 18.3286 5.96482C18.2486 6.31482 17.6786 8.83482 16.6986 9.69482C16.1186 10.1948 15.5586 10.2948 14.9986 10.2448C14.9086 10.2448 10.7086 5.95482 10.7086 5.82482V5.70482C10.7086 5.56482 10.7386 5.38482 10.7886 5.18482C10.9786 4.38482 11.5286 3.18482 12.5786 2.16482C12.6786 2.07482 12.7686 1.98482 12.8786 1.88482C13.0086 1.76482 13.1586 1.62482 13.3186 1.48482C13.7486 1.10482 14.1686 0.814816 14.5486 0.594816C16.4386 -0.445184 17.8586 0.194816 17.8586 0.194816C18.3986 0.604816 18.7086 1.36482 18.7486 2.52482C18.7486 2.62482 18.7486 2.74482 18.7486 2.85482L18.7586 2.83482Z" fill="#C7C7C7"/>
<g style="mix-blend-mode:multiply" opacity="0.2">
<path d="M18.7586 2.83469C18.7586 2.98469 18.7586 3.12469 18.7486 3.27469C18.7486 3.41469 18.7286 3.55469 18.7186 3.70469C18.6786 4.13469 18.6186 4.60469 18.5086 5.12469C18.4986 5.21469 18.4786 5.30469 18.4486 5.40469L16.7186 6.46469L10.7086 5.69469C10.7086 5.55469 10.7386 5.37469 10.7886 5.17469C11.2486 4.86469 13.3986 3.53469 14.1886 3.74469C15.0786 3.98469 15.9986 3.56469 16.3686 3.09469C16.6786 2.68469 18.0786 2.29469 18.7586 2.51469C18.7586 2.61469 18.7586 2.73469 18.7586 2.84469V2.83469Z" fill="#C7C7C7"/>
</g>
<path d="M27.6586 11.9647C27.6586 11.9647 27.6586 11.9647 27.6386 11.9747C27.4486 12.0547 26.0886 12.6947 24.3686 15.4647C22.0786 19.1447 19.3586 20.4147 16.3586 21.6547C12.0186 23.4347 6.57864 23.2047 2.59864 21.2347C1.31864 20.1147 1.25864 19.4847 1.38864 18.9847C1.40864 18.8947 1.44864 18.8147 1.46864 18.7347C1.60864 18.3647 2.20864 17.8647 2.63864 17.5547C2.76864 17.4747 2.89864 17.3847 3.01864 17.2847C3.03864 17.2847 3.04864 17.2647 3.06864 17.2547C3.55864 16.8647 3.96864 16.3647 4.25864 15.7447C4.70864 14.7447 5.08864 13.1947 5.66864 11.5847C6.66864 8.78473 8.28864 5.78473 12.0586 4.98473C12.5686 4.87473 13.7086 4.52473 15.3486 4.67473C17.3386 4.86473 20.0586 5.83473 23.2786 8.92473C23.3586 9.00473 23.4486 9.08473 23.5286 9.15473C24.1086 9.69473 24.6486 10.1447 25.1486 10.5047C26.6086 11.5747 27.6486 11.9847 27.6486 11.9847L27.6586 11.9647Z" fill="#C7C7C7"/>
<path d="M10.1087 15.525C10.5087 14.915 10.6887 13.785 10.3087 13.585C9.94867 13.395 8.46867 13.405 7.85867 14.385C7.50867 14.945 7.68867 15.995 7.96867 16.225C8.26867 16.485 9.56867 16.375 10.1087 15.525Z" fill="#C7C7C7"/>
<path d="M9.93945 15.3093C10.0941 14.7791 9.75525 14.214 9.18264 14.0469C8.61003 13.8799 8.02048 14.1744 7.86584 14.7045C7.7112 15.2347 8.05004 15.7999 8.62265 15.9669C9.19526 16.134 9.78481 15.8395 9.93945 15.3093Z" fill="#C7C7C7"/>
<path d="M9.32083 15.8117C9.77798 15.5775 9.96285 15.0251 9.73375 14.5778C9.50465 14.1305 8.94833 13.9576 8.49117 14.1918C8.03402 14.4259 7.84915 14.9783 8.07825 15.4257C8.30735 15.873 8.86368 16.0458 9.32083 15.8117Z" fill="#C7C7C7"/>
<path d="M9.1795 15.5358C9.47935 15.3823 9.59998 15.0187 9.44892 14.7237C9.29786 14.4288 8.93232 14.3142 8.63247 14.4678C8.33262 14.6214 8.21199 14.9849 8.36305 15.2799C8.51411 15.5748 8.87964 15.6894 9.1795 15.5358Z" fill="#C7C7C7"/>
<path d="M8.38849 15.1364C8.4656 15.1306 8.52107 15.0321 8.51239 14.9165C8.50372 14.8008 8.43418 14.7118 8.35708 14.7176C8.27997 14.7233 8.2245 14.8218 8.23318 14.9374C8.24185 15.0531 8.31139 15.1422 8.38849 15.1364Z" fill="#C7C7C7"/>
<path d="M9.45867 14.1449C9.45867 14.1449 8.57867 13.8849 8.16867 14.7549C7.88867 15.3449 8.10867 15.6449 8.10867 15.6449C8.10867 15.6449 7.58867 15.2349 7.79867 14.7149C7.94867 14.3349 8.60867 13.6249 9.46867 14.1449H9.45867Z" fill="#C7C7C7"/>
<path d="M25.9786 13.3949C25.7686 13.6049 25.6286 13.7949 25.5986 13.9149C25.6486 13.9049 25.8386 13.8149 26.0886 13.7649C26.2486 13.7349 26.4386 13.7149 26.6186 13.7349C26.6186 13.7349 26.4286 13.8449 26.1786 14.0049C25.7586 14.2749 25.1886 14.6649 25.0586 14.8649C25.1186 14.8449 25.4486 14.7149 25.7186 14.8249C26.2086 15.0049 26.1886 15.2549 26.1886 15.2549C26.1886 15.2549 25.0486 15.3149 24.5786 15.6749C24.1086 16.0349 23.3186 17.0849 23.0286 17.3049C22.7286 17.5249 23.7986 17.2449 24.2586 16.9849C24.1986 17.0549 23.6886 17.6449 22.9586 17.8249C22.1786 18.0149 21.5586 19.0549 20.3686 19.6749C20.0186 19.8449 20.7686 20.0549 20.7686 20.0549C20.5886 20.2049 20.0986 20.3449 19.5986 20.4749C19.0486 20.6149 18.4986 20.7349 18.3486 20.8149C17.5086 21.2749 16.9086 21.5849 15.7186 21.9649C15.7186 21.9649 14.9786 22.2049 13.9586 22.4449C13.0886 22.6349 12.0186 22.8449 11.0286 22.8849C10.8286 22.8949 10.5886 22.9049 10.3386 22.9149C8.63864 22.9749 5.83864 22.9149 3.07864 21.6249C2.90864 21.4849 2.74864 21.3549 2.59864 21.2249C1.31864 20.1049 1.25864 19.4749 1.38864 18.9749C3.25864 19.2249 5.82864 19.5049 7.28864 19.3549C9.92864 19.0949 14.4986 18.4749 18.4186 16.6749H18.4286C19.0886 16.3749 19.7286 16.0449 20.3386 15.6649H20.3486C20.3786 15.6449 20.4186 15.6249 20.4486 15.6049C20.4486 15.6049 24.8186 12.3749 27.6586 11.9749C27.6586 11.9749 27.6586 11.9749 27.6386 11.9849C27.5086 12.0849 26.8386 12.6049 26.2886 13.0949C26.1786 13.1949 26.0686 13.3049 25.9786 13.4049V13.3949Z" fill="#C7C7C7"/>
<path d="M10.6386 20.7347C10.6386 20.7347 8.30865 22.6547 6.54865 22.7047C6.54865 22.7047 7.11865 22.8747 7.77865 22.7547C8.43865 22.6347 10.4586 21.0847 10.6586 20.8847C10.8586 20.6847 11.1486 20.7447 11.2486 20.5947C11.3486 20.4447 11.0086 20.2047 10.9086 20.2447C10.7186 20.3347 10.7286 20.5947 10.6486 20.7247L10.6386 20.7347Z" fill="#C7C7C7"/>
<path d="M3.80865 19.945C5.10865 19.615 6.52865 20.005 7.52865 20.875C6.52865 19.985 5.10865 19.565 3.78865 19.885C3.74865 19.885 3.76865 19.955 3.80865 19.935V19.945Z" fill="#C7C7C7"/>
<path d="M3.36865 20.2448C5.03865 19.9748 6.86865 20.4948 7.97865 21.8148C7.15865 20.8248 5.91865 20.2548 4.63865 20.1548C4.20865 20.1248 3.78865 20.1248 3.35865 20.1948C3.31865 20.1948 3.32865 20.2648 3.36865 20.2548V20.2448Z" fill="#C7C7C7"/>
<path d="M4.25867 20.5248C5.27867 20.5048 6.25867 21.0448 6.96867 21.7548C7.06867 21.8548 7.16867 21.9748 7.26867 22.0748C7.16867 21.9648 7.07867 21.8548 6.97867 21.7448C6.26867 21.0148 5.30867 20.4648 4.25867 20.4648C4.21867 20.4648 4.21867 20.5248 4.25867 20.5248Z" fill="#C7C7C7"/>
<path d="M3.37867 20.695C4.40867 20.645 5.39867 21.165 6.07867 21.915C5.40867 21.145 4.40867 20.615 3.36867 20.645C3.32867 20.645 3.33867 20.705 3.36867 20.705L3.37867 20.695Z" fill="#C7C7C7"/>
<path d="M2.58865 21.2447C1.80865 21.0947 0.518646 19.9647 0.128646 19.1047C0.0286465 18.8947 -0.0213535 18.7047 0.00864648 18.5547C0.00864648 18.5047 0.0286465 18.4547 0.0486465 18.4147C0.358646 17.7747 2.04865 18.0247 2.04865 18.0247C2.19865 18.1047 2.30865 18.2147 2.38865 18.3647C2.96865 19.2747 2.58865 21.2547 2.58865 21.2547V21.2447Z" fill="#C7C7C7"/>
<path d="M2.05865 19.8548C2.46865 19.4248 2.71865 19.6148 2.70865 20.0648C2.69865 20.5148 2.58865 21.2448 2.58865 21.2448C2.58865 21.2448 1.63865 20.2848 2.05865 19.8548Z" fill="#C7C7C7"/>
<path opacity="0.47" d="M2.38865 18.3546C2.19865 18.4946 1.80865 18.7746 1.43865 19.0946C1.05865 19.4046 0.438646 19.2146 0.128646 19.0946C0.0286465 18.8846 -0.0213535 18.6946 0.00864648 18.5446C0.00864648 18.4946 0.0286465 18.4446 0.0486465 18.4046C0.358646 17.7646 2.04865 18.0146 2.04865 18.0146C2.19865 18.0946 2.30865 18.2046 2.38865 18.3546Z" fill="#C7C7C7"/>
<path d="M2.04865 18.0146C2.04865 18.0146 1.43865 18.4346 0.578645 18.5546C0.338645 18.5846 0.158645 18.5246 0.048645 18.4046C0.358645 17.7646 2.04865 18.0146 2.04865 18.0146Z" fill="#C7C7C7"/>
<g style="mix-blend-mode:multiply" opacity="0.2">
<path d="M25.1586 10.4848C24.5486 11.1248 23.2086 12.1248 22.3586 12.2848C21.2086 12.4948 20.3886 11.8848 20.3886 11.8848C20.2886 11.3548 22.8686 9.57477 23.5286 9.13477C24.1086 9.67477 24.6486 10.1248 25.1486 10.4848H25.1586Z" fill="#C7C7C7"/>
</g>
<path d="M26.0586 4.81473C26.0386 4.97473 26.0186 5.13473 25.9886 5.30473C25.9686 5.45473 25.9286 5.61473 25.8986 5.77473C25.7986 6.23473 25.6686 6.75473 25.4986 7.30473C25.4586 7.43473 25.4186 7.57473 25.3686 7.70473C25.3186 7.86473 25.2686 8.03473 25.1986 8.19473C25.0686 8.56473 24.9186 8.96473 24.7486 9.38473C24.7086 9.48473 24.6686 9.59473 24.6186 9.69473C24.6186 9.70473 24.6186 9.71473 24.6086 9.72473C24.5986 9.73473 24.5986 9.75473 24.5886 9.77473C24.0986 10.6547 23.4686 11.8947 21.3986 12.2247C21.0486 12.2747 20.3586 12.1547 20.1986 11.9947L20.1086 11.9047L20.0086 11.6847L19.9786 11.6147L18.4686 8.29473L17.9886 7.24473L17.3586 5.85473C17.3986 5.14473 17.6586 4.62473 19.3786 3.31473C19.4886 3.23473 19.6186 3.14473 19.7386 3.04473C19.8986 2.92473 20.0786 2.79473 20.2686 2.66473C20.7886 2.29473 21.2786 2.02473 21.7386 1.83473C23.9486 0.924735 25.4186 1.80473 25.4186 1.80473C26.0086 2.37473 26.2486 3.36473 26.0786 4.82473L26.0586 4.81473Z" fill="#C7C7C7"/>
<path d="M20.6886 4.25467C20.9886 4.02467 21.3186 3.96467 21.6686 3.99467C22.3386 4.05467 22.1486 4.63467 21.9286 5.05467C22.3486 4.55467 22.9986 4.29467 23.4486 4.68467C24.3386 5.45467 22.7286 7.07467 22.6086 7.19467C22.6986 7.11467 23.5686 6.43467 23.9386 7.02467C24.4986 7.94467 22.4386 9.21467 22.0486 9.44467C22.3286 9.29467 23.3986 8.78467 22.6886 10.2147C22.3786 10.8447 21.8586 11.2147 21.3386 11.4147C21.9986 11.2647 22.7086 11.0247 23.1986 10.6047C23.5986 10.2647 24.1686 9.39467 24.6686 8.33467C25.5986 6.37467 26.2886 3.78467 25.1486 2.79467C24.0886 1.86467 23.1786 2.42467 21.8586 3.26467C21.8386 3.26467 21.8286 3.28467 21.8086 3.29467C21.4086 3.55467 21.0386 3.88467 20.6986 4.26467L20.6886 4.25467Z" fill="#C7C7C7"/>
<path d="M20.4786 8.36483C20.5986 8.84483 21.2486 8.98483 21.0486 9.53483C20.8386 10.0848 20.4986 10.0448 20.4486 10.3648C20.3986 10.6748 21.0886 10.9448 20.8386 11.3548C20.8086 11.4148 20.7686 11.4748 20.7386 11.5248C20.5686 11.8048 20.4786 11.9248 20.1886 11.9948L20.0986 11.9048L19.9986 11.6848L19.9686 11.6148L18.4586 8.29483L17.9786 7.24483C18.0686 6.64483 18.1386 6.18483 18.1386 6.18483L19.5386 5.60483C19.6286 5.52483 19.7286 5.45483 19.8486 5.39483C20.2786 5.14483 20.8086 5.00483 20.8686 5.27483C20.9386 5.61483 20.8386 6.26483 20.7086 6.57483C20.5786 6.89483 21.2586 6.74483 21.0786 7.37483C20.8886 8.01483 20.3686 7.88483 20.4986 8.36483H20.4786Z" fill="#C7C7C7"/>
<path d="M19.1086 6.4849C19.1086 6.4849 19.7986 5.6449 20.2186 5.7749C20.4886 5.8649 20.2286 6.7749 19.8086 6.9749C19.8086 6.9749 20.6186 6.9449 20.4986 7.3049C20.3786 7.6649 19.8086 7.9249 19.8086 7.9249C19.8086 7.9249 20.3086 7.8649 20.3386 8.3249C20.3686 8.7849 19.8086 8.7849 19.8086 8.7849C19.8086 8.7849 20.5186 8.7849 20.5386 9.2549C20.5386 9.2549 20.1786 8.8449 19.8486 9.1449C19.6486 9.3149 20.3186 9.1949 20.4286 9.5249C20.5086 9.7649 20.3586 10.0849 20.0286 10.0449C20.0286 10.0449 20.4786 10.1149 20.3686 10.4449C20.2886 10.6749 19.9386 10.6749 19.9386 10.6749C19.9386 10.6749 20.5886 10.7149 20.5886 11.0249C20.5886 11.0249 20.4386 10.9149 20.2586 10.9849C20.1386 11.0349 20.0986 11.1849 20.1186 11.2549C20.1186 11.2549 20.3686 11.2349 20.4186 11.3849C20.5186 11.6949 19.9686 11.6049 19.9686 11.6049C19.9686 11.6049 19.6786 11.6349 19.6186 11.4049C19.5586 11.1749 19.5986 11.0149 19.2586 10.7249C18.9186 10.4349 19.2186 9.8449 18.7786 9.3649C18.3386 8.8849 18.3986 8.4549 18.4786 8.2449C18.5586 8.0349 18.7886 6.7049 19.1286 6.4849H19.1086Z" fill="#C7C7C7"/>
<path d="M26.0586 4.81472C26.0386 4.97472 26.0186 5.13473 25.9886 5.30473C25.9686 5.45473 25.9286 5.61472 25.8986 5.77472C25.7986 6.23472 25.6686 6.75473 25.4986 7.30473C25.4586 7.43473 25.4186 7.57472 25.3686 7.70472C25.3186 7.86472 25.2686 8.03473 25.1986 8.19473C25.0686 8.56473 24.9186 8.96472 24.7486 9.38472C24.7086 9.48472 24.6686 9.59473 24.6186 9.69473C24.6186 9.70473 24.6186 9.71472 24.6086 9.72472C24.5986 9.73472 24.5986 9.75472 24.5886 9.77472C24.0986 10.6547 23.4686 11.8947 21.3986 12.2247C21.0486 12.2747 20.3586 12.1547 20.1986 11.9947L20.1086 11.9047L20.0086 11.6847L19.9786 11.6147C20.1686 11.6047 20.4386 11.5847 20.7586 11.5347C20.9386 11.5047 21.1386 11.4747 21.3386 11.4247C21.9886 11.2847 22.7086 11.0347 23.1986 10.6147C23.5986 10.2747 24.1586 9.40472 24.6586 8.35472C25.5986 6.39472 26.2786 3.79472 25.1486 2.81472C24.0986 1.88472 23.1886 2.44472 21.8586 3.28472C21.8486 3.28472 21.8286 3.29472 21.8086 3.31472C21.4086 3.57472 21.0486 3.90472 20.6986 4.27472C20.4186 4.58472 20.1586 4.93472 19.9186 5.29472C19.8986 5.32472 19.8686 5.36472 19.8486 5.39472C19.1886 6.40472 18.7186 7.51473 18.4586 8.29473C18.4586 8.29473 17.3386 7.49472 17.3386 6.33472V6.09473C17.3386 6.00473 17.3386 5.92473 17.3386 5.84473C17.3786 5.13473 17.6386 4.61472 19.3586 3.30472C19.4686 3.22472 19.5986 3.13472 19.7186 3.03472C19.8786 2.91472 20.0586 2.78473 20.2486 2.65473C20.7686 2.28473 21.2586 2.01473 21.7186 1.82473C23.9286 0.914725 25.3986 1.79472 25.3986 1.79472C25.9886 2.36472 26.2286 3.35472 26.0586 4.81472Z" fill="#C7C7C7"/>
</svg>
