<svg width="72" height="50" viewBox="0 0 72 50" fill="none" xmlns="http://www.w3.org/2000/svg">
<path d="M54.7915 6.74475C54.7915 6.74475 56.101 6.32116 57.7548 4.70081C59.745 2.74735 62.8124 5.02159 63.273 6.6625C63.5813 7.76877 63.7295 10.3597 64.3822 10.7751C65.0349 11.1904 52.8093 10.224 54.7955 6.74886L54.7915 6.74475Z" fill="#B2B2B2"/>
<path d="M44.4481 34.5042C44.3399 34.9278 44.0116 35.1952 43.515 35.154C42.7061 35.08 43.0465 34.4631 42.5339 34.2575C41.8051 33.9737 36.9157 34.3397 36.9157 34.3397C36.9157 34.3397 37.7166 34.3397 38.6416 34.4467C38.6496 34.4384 38.6616 34.4384 38.6696 34.4467C39.7388 34.5618 40.9482 34.8209 41.2725 35.3597C41.6249 35.9519 42.0334 36.6839 41.9533 37.2802C41.8972 37.7285 41.5849 38.0945 40.792 38.2713C39.4986 38.5633 39.7028 36.4659 39.7028 36.4659C39.7028 36.4659 35.366 36.9718 33.8283 36.1081C32.9152 35.5858 23.2205 35.8326 15.7081 32.8304C14.6349 32.4068 13.6057 31.9133 12.6567 31.3417C10.23 29.8776 8.29986 27.9159 7.39886 25.2592C7.3508 25.1359 7.31076 25.0166 7.27472 24.8932C6.94235 23.7705 6.78617 22.5244 6.84624 21.1508C6.92633 19.3289 7.32275 17.9553 7.95546 16.9436C7.97548 16.9025 8.00352 16.8614 8.03555 16.8203C9.11676 15.1629 10.8587 14.5255 12.8689 14.5255C12.8809 14.5255 12.897 14.5172 12.909 14.5255C15.9604 14.5419 19.6204 16.0224 22.4956 17.6099C22.4956 17.6099 22.4997 17.6126 22.5077 17.6181C22.5637 17.651 22.6158 17.6757 22.6718 17.7086C24.622 18.7984 26.1998 19.9129 26.9486 20.6449C26.9686 20.6614 26.9886 20.6861 27.0087 20.7107C27.1168 20.8177 27.2049 20.9123 27.2729 21.0027L27.281 21.011C27.357 21.1097 27.4051 21.1919 27.4171 21.2536C27.5733 21.9856 27.9697 21.1467 27.8776 19.6662C27.8296 18.8354 27.6253 17.8114 27.1488 16.7462C27.0127 16.446 26.8565 16.154 26.6803 15.8497C26.436 15.4426 26.1517 15.0437 25.8153 14.6612C25.3749 14.1389 24.8423 13.6454 24.2096 13.1807C24.2096 13.1807 37.3962 15.9361 34.2607 26.641C33.8523 28.0393 33.1235 29.2772 32.1944 30.2601C32.1944 30.2601 33.9604 30.1861 35.8305 29.8941C37.4203 29.6597 39.0941 29.269 39.7869 28.648C41.3086 27.2991 43.0425 29.5815 42.7862 30.5192C42.7742 30.5768 42.7542 30.6343 42.7382 30.6837V30.6919C42.602 31.1649 42.5139 31.2307 41.717 31.1484C41.2805 31.1073 40.6278 30.8564 39.6547 30.9387C38.9059 30.988 37.6845 31.5391 37.0759 31.8517C36.9477 31.9092 36.8436 31.9668 36.7835 31.9997C36.7635 32.0079 36.7435 32.0162 36.7275 32.0244C37.0318 31.9668 40.1393 31.3252 42.0374 31.6666C42.2336 31.7077 42.4258 31.7571 42.59 31.8146C42.7662 31.8804 42.9184 31.9545 43.0385 32.0326C43.5831 32.4068 44.1597 32.9456 44.38 33.6118C44.4801 33.9367 44.4961 34.2534 44.428 34.5084L44.4481 34.5042Z" fill="#B2B2B2"/>
<path opacity="0.51" d="M12.3403 23.557C12.8579 23.557 13.2774 23.1022 13.2774 22.5412C13.2774 21.9802 12.8579 21.5254 12.3403 21.5254C11.8228 21.5254 11.4033 21.9802 11.4033 22.5412C11.4033 23.1022 11.8228 23.557 12.3403 23.557Z" fill="#B2B2B2"/>
<path d="M11.2913 22.8828C15.0554 29.833 22.8601 31.9592 29.3874 31.1244C30.3485 30.9722 31.3095 30.7172 32.2105 30.2607C25.7113 33.8551 14.631 30.9393 11.2913 22.8828Z" fill="#B2B2B2"/>
<path d="M27.5052 21.5826C27.3009 20.9041 26.8004 20.4435 26.3439 20.0116C24.8903 18.7655 23.2244 17.9307 21.5626 17.174C18.2869 15.6811 14.6949 14.4227 11.191 15.348C7.0424 16.3885 6.12538 20.9123 7.40681 25.2551C5.76898 20.8465 6.65797 15.8785 10.9547 14.7599C14.5467 13.7236 18.399 15.1383 21.6987 16.7627C23.3566 17.6017 25.0264 18.5106 26.424 19.8924C26.8685 20.3612 27.353 20.8794 27.5092 21.5826H27.5052Z" fill="#B2B2B2"/>
<path d="M23.9612 26.0698C25.0714 26.0698 25.9714 25.1787 25.9714 24.0793C25.9714 22.98 25.0714 22.0889 23.9612 22.0889C22.8509 22.0889 21.9509 22.98 21.9509 24.0793C21.9509 25.1787 22.8509 26.0698 23.9612 26.0698Z" fill="#B2B2B2"/>
<path d="M19.5043 25.2389C19.9444 25.2389 20.3012 24.8744 20.3012 24.4246C20.3012 23.9749 19.9444 23.6104 19.5043 23.6104C19.0642 23.6104 18.7074 23.9749 18.7074 24.4246C18.7074 24.8744 19.0642 25.2389 19.5043 25.2389Z" fill="#B2B2B2"/>
<path d="M25.3948 15.237C25.555 14.3487 26.8724 14.3035 27.9136 15.237C28.9547 16.1706 29.7196 16.3145 28.6504 17.1041C27.5812 17.8937 27.9576 18.2474 28.302 18.6628C28.6464 19.0781 29.2991 19.2838 28.8226 19.547C28.3461 19.8102 27.4531 19.7403 27.2168 19.2344C26.9845 18.7327 25.8913 17.9431 26.9285 17.026C27.4851 16.5325 27.1768 16.0019 26.6922 15.8498C25.4508 15.4468 25.2346 16.1253 25.3948 15.237Z" fill="#B2B2B2"/>
<path d="M32.0783 19.6947C32.0783 19.6947 33.0034 19.485 33.2636 20.9737C33.5239 22.4625 34.5371 22.9107 33.4078 23.6386C32.2785 24.3666 32.3947 24.1938 32.0783 24.9176C31.762 25.6415 31.7019 26.3365 31.2094 25.6456C30.7168 24.9547 30.9491 23.9512 31.4697 23.4659C31.9902 22.9806 33.1195 22.6023 32.7991 21.9443C32.4788 21.2863 31.3816 20.7722 32.0743 19.6947H32.0783Z" fill="#B2B2B2"/>
<path d="M16.0164 31.8231C16.0164 32.1973 15.9083 32.5387 15.712 32.8224C14.6388 32.3988 13.6097 31.9053 12.6606 31.3337C12.8649 30.5934 13.5256 30.0547 14.3065 30.0547C15.2515 30.0547 16.0204 30.8443 16.0204 31.819L16.0164 31.8231Z" fill="#B2B2B2"/>
<path d="M24.4458 33.2422C24.7134 33.2422 24.9304 33.0415 24.9304 32.794C24.9304 32.5464 24.7134 32.3457 24.4458 32.3457C24.1782 32.3457 23.9613 32.5464 23.9613 32.794C23.9613 33.0415 24.1782 33.2422 24.4458 33.2422Z" fill="#B2B2B2"/>
<path d="M8.57616 18.2349C8.57616 18.2349 9.7895 14.1758 15.2155 16.1498C20.6416 18.1238 22.0071 17.6221 21.955 19.8717C21.903 22.1212 15.8522 21.2083 14.3426 19.6866C12.8329 18.1608 10.8187 18.5639 10.0778 19.1808C9.33701 19.7976 8.24778 19.2754 8.58015 18.2349H8.57616Z" fill="#B2B2B2"/>
<path d="M44.448 34.5043C44.1077 34.3398 43.6952 33.9985 43.2868 33.5461C42.1575 32.2671 38.3172 33.2705 36.9157 33.2212C35.5221 33.1636 33.9043 35.1171 37.5083 34.5536C37.9248 34.4961 38.3052 34.4549 38.6496 34.4467C38.6576 34.4385 38.6696 34.4385 38.6776 34.4467C39.7468 34.5619 40.9562 34.821 41.2805 35.3597C41.6329 35.9519 42.0414 36.6839 41.9613 37.2803C41.8331 37.3543 41.697 37.5188 41.5328 37.49C40.8801 37.3831 41.0723 36.9225 40.6718 35.9067C40.4075 35.2363 38.998 35.3926 38.4814 35.5078C38.2532 35.5612 36.6153 35.516 35.438 35.516C34.2607 35.516 33.3557 34.7346 32.0102 33.9039C30.6647 33.0649 31.5537 31.5679 32.4587 31.4569C32.8872 31.3911 34.3088 30.692 35.8465 29.9024C37.4362 29.6679 39.1101 29.2772 39.8029 28.6562C41.3246 27.3073 43.0585 29.5898 42.8022 30.5275C42.7902 30.585 42.7702 30.6426 42.7542 30.692V30.7002C42.2576 30.7824 41.3406 30.1779 40.1152 30.0833C38.4574 29.9517 35.8785 31.8805 35.8785 31.8805C35.9106 31.9134 36.1708 32.0738 36.6994 32.0203C36.7315 32.0203 36.7675 32.0121 36.7995 32.0039C36.7795 32.0121 36.7595 32.0203 36.7435 32.0285C37.0478 31.971 40.1553 31.3294 42.0534 31.6707C42.2496 31.7119 42.4418 31.7612 42.606 31.8188C42.7822 31.8846 42.9344 31.9586 43.0545 32.0368C43.5991 32.411 44.1757 32.9498 44.396 33.616C44.4961 33.9409 44.5121 34.2575 44.444 34.5125L44.448 34.5043Z" fill="#B2B2B2"/>
<path d="M7.68311 23.5573C7.68311 23.5573 12.1641 10.1134 27.5292 7.37853C40.0711 5.14541 39.2542 6.82333 50.8752 5.21532C57.4785 4.30234 64.8347 9.64043 64.9468 9.80904C65.8238 11.1662 15.688 27.9248 7.68311 23.5573Z" fill="#B2B2B2"/>
<path d="M67.5258 28.6816C67.4297 29.1052 66.9772 29.3026 66.5967 29.134C66.2964 29.0024 66.7329 29.0147 64.158 28.6076C62.8726 28.406 61.8835 28.4677 61.2188 28.5829C60.546 28.698 60.2056 28.8625 60.2056 28.8625C61.6552 29.208 64.5144 29.8825 65.3554 31.1162C65.6277 31.5151 65.7077 31.8483 65.6437 32.1032C65.5956 32.3459 65.4194 32.5145 65.1671 32.605C64.8548 32.7078 64.3022 32.5515 64.174 32.313C63.8136 31.692 62.9727 31.3095 62.2919 31.2725C61.6032 31.2355 55.2081 31.0175 51.2356 29.6357C46.8187 28.1017 42.2176 25.2394 41.0924 21.571C40.6278 20.0535 41.2325 18.7251 42.2777 17.479C43.7553 15.7188 46.1059 14.1355 47.4835 12.4658C48.1963 11.6063 49.4617 10.9853 50.7871 10.7138C50.8392 10.7015 50.8913 10.6892 50.9473 10.6768C51.4959 10.5781 52.0525 10.537 52.5771 10.5617C52.6893 10.5658 52.7934 10.5781 52.9055 10.5905C52.9936 10.6028 53.0817 10.6151 53.1698 10.6316C53.1858 10.6316 53.2058 10.6316 53.2219 10.6357C53.31 10.648 53.3941 10.6645 53.4741 10.6851C53.7905 10.7632 54.0988 10.8742 54.3751 11.0182C55.6646 11.7255 56.1892 13.2595 54.7476 15.908C54.0708 17.1541 53.4421 18.1206 52.8695 18.8814C52.8575 18.8978 52.8454 18.9184 52.8334 18.9307C51.7963 20.2961 50.9433 20.9664 50.3026 21.2831C50.1544 21.3612 50.0143 21.4147 49.8902 21.4599C49.726 21.5093 49.5778 21.5381 49.4617 21.5504C49.4577 21.5545 49.4457 21.5504 49.4376 21.5504C49.4096 21.5504 49.3776 21.5545 49.3535 21.5545H49.3295C49.3295 21.5545 49.3575 21.5545 49.3776 21.5669C49.8541 21.6532 50.3507 21.8589 50.8432 22.1303C50.9473 22.1838 51.0474 22.2454 51.1556 22.3112C51.3558 22.4387 51.572 22.5703 51.7923 22.7225C52.4971 23.2201 53.1538 23.7877 53.6744 24.2812C54.247 24.8199 55.3682 25.2065 56.5415 25.4121C57.827 25.6465 59.1725 25.6794 59.9093 25.4985C61.3229 25.153 64.4263 23.7506 65.4715 25.1736C65.5356 25.2641 65.5676 25.3422 65.5676 25.4203C65.5676 26.1236 63.2891 26.4402 62.3961 26.3703C61.9195 26.3292 60.9465 26.3086 60.3778 26.5348H60.3738C60.2497 26.5883 60.1456 26.65 60.0695 26.724C59.8052 26.9708 60.1456 27.2299 61.3469 27.0859C64.1861 26.7405 66.7329 26.9173 67.3576 27.9372C67.5338 28.2292 67.5738 28.4801 67.5338 28.6816H67.5258Z" fill="#B2B2B2"/>
<path d="M67.5256 28.681C67.3494 28.7674 67.1372 28.7797 66.949 28.6933C66.6486 28.5617 67.0851 28.5329 64.5063 28.1669C60.9543 27.6652 60.2095 28.8619 60.2095 28.8619C61.6591 29.2074 64.5183 29.8819 65.3592 31.1156C65.6315 31.5145 65.7116 31.8477 65.6475 32.1026C65.6075 32.1273 65.5634 32.1438 65.5194 32.1643C65.207 32.2671 64.6544 32.115 64.5263 31.8806C64.1659 31.2596 63.333 30.8689 62.6482 30.836C61.9594 30.799 55.5603 30.581 51.5839 29.1992C47.167 27.6652 42.5658 24.8029 41.4406 21.1345C41.0281 19.7979 41.4526 18.6011 42.2775 17.4825C43.7071 15.5414 46.334 13.8347 47.8277 12.0293C48.5405 11.1697 49.8059 10.5488 51.1314 10.2773C51.1834 10.265 51.2355 10.2526 51.2916 10.2403C51.8402 10.1416 52.3968 10.1005 52.9214 10.1252C53.0335 10.1293 53.1376 10.1416 53.2497 10.1539C53.3378 10.1663 53.4259 10.1786 53.514 10.1951C53.5301 10.1951 53.5501 10.1951 53.5661 10.1992C53.6542 10.2115 53.7383 10.228 53.8184 10.2485C54.1347 10.3267 54.4431 10.4377 54.7194 10.5817C56.0088 11.289 56.5334 12.823 55.0918 15.4715C54.2789 16.9726 53.5301 18.0788 52.8653 18.889C52.8533 18.9055 52.8413 18.926 52.8293 18.9384C51.716 20.2996 50.8351 20.8301 50.2344 21.0234C50.0702 21.0728 49.922 21.1016 49.8059 21.1139C49.8019 21.118 49.7899 21.1139 49.7819 21.1139C49.7538 21.1139 49.7218 21.118 49.6978 21.118H49.6737C49.6737 21.118 49.7018 21.118 49.7218 21.1303C49.91 21.1674 50.1062 21.2167 50.2984 21.2866C50.1503 21.3648 50.0101 21.4182 49.886 21.4635C49.7218 21.5128 49.5736 21.5416 49.4575 21.5539C49.4535 21.5581 49.4415 21.5539 49.4335 21.5539C49.4055 21.5539 49.3734 21.5581 49.3494 21.5581H49.3254C49.3254 21.5581 49.3534 21.5581 49.3734 21.5704C49.8499 21.6568 50.3465 21.8624 50.8391 22.1338C50.9432 22.1873 51.0433 22.249 51.1514 22.3148C51.3516 22.4423 51.5679 22.5739 51.7881 22.726C52.4929 23.2236 53.1496 23.7912 53.6702 24.2847C54.2428 24.8234 55.3641 25.21 56.5374 25.4156C57.8228 25.65 59.1683 25.6829 59.9052 25.502C61.3187 25.1565 64.4222 23.7542 65.4673 25.1771C65.5314 25.2676 65.5634 25.3457 65.5634 25.4239C64.8907 25.8187 63.4131 25.9873 62.7363 25.9338C62.1517 25.8845 60.5379 25.8433 60.0053 26.5877C59.793 26.8838 60.1334 27.2334 61.3347 27.0853C64.1739 26.7399 66.7207 26.9167 67.3454 27.9366C67.5216 28.2286 67.5617 28.4795 67.5216 28.681H67.5256Z" fill="#B2B2B2"/>
<path d="M70.0206 17.4119C69.7963 17.8067 69.6082 18.0452 69.6082 18.0452C68.4709 19.39 66.4406 19.4271 64.5505 20.0768C63.6735 20.3812 63.0488 21.142 62.1198 21.8C60.4419 22.9844 57.2104 22.9556 55.5005 24.3457C48.4166 30.1279 53.2219 27.8043 40.0473 33.5126C26.8686 39.229 9.40916 34.1253 9.40916 34.1253C9.40916 34.1253 5.3847 31.5015 7.62319 28.9312C12.4766 23.3628 12.8089 20.7513 15.3918 17.4119C17.9747 14.0725 28.0419 6.7604 40.5999 6.54243C52.2969 6.33681 50.0384 7.30737 54.9478 7.12642C57.4386 7.03594 59.1766 7.26624 60.454 7.61581H60.458C62.3761 8.15044 63.2331 9.03464 64.122 9.27317C68.8713 10.5563 69.1196 12.1931 70.0607 13.2582C71.302 14.6606 70.5612 16.4742 70.0206 17.4119Z" fill="#B2B2B2"/>
<mask id="mask0_73_26197" style="mask-type:luminance" maskUnits="userSpaceOnUse" x="6" y="6" width="65" height="31">
<path d="M70.0205 17.4126C69.7962 17.8074 69.608 18.046 69.608 18.046C68.4708 19.3908 66.4405 19.4278 64.5504 20.0776C63.6734 20.3819 63.0487 21.1427 62.1197 21.8007C60.4418 22.9851 57.2102 22.9563 55.5003 24.3464C48.4165 30.1286 53.2218 27.805 40.0471 33.5133C26.8685 39.2297 9.40904 34.126 9.40904 34.126C9.40904 34.126 5.38458 31.5022 7.62307 28.9319C12.4765 23.3635 13.3414 18.6053 16.6571 16.0349C19.4883 13.8347 27.6774 6.73232 40.2354 6.51435C51.9324 6.30873 50.0383 7.30808 54.9477 7.12712C57.4385 7.03665 59.1764 7.26695 60.4539 7.61652H60.4579C62.376 8.15115 63.2089 9.15873 64.1219 9.27388C67.3896 9.68102 69.1195 12.1938 70.0605 13.2589C71.3019 14.6613 70.5611 16.475 70.0205 17.4126Z" fill="white"/>
</mask>
<g mask="url(#mask0_73_26197)">
<path d="M56.4454 24.091C56.4454 24.091 53.5381 27.0767 47.0749 28.7218C40.6117 30.3668 34.0965 31.3456 29.7877 32.0159C25.4789 32.6863 13.4535 31.654 10.6985 33.4553C7.94341 35.2566 31.4936 51.5176 42.8663 41.3267C54.2389 31.1399 56.4454 24.0869 56.4454 24.0869" fill="#B2B2B2"/>
<path d="M-40.074 34.2776H-40.066C-36.9385 34.7916 -33.5627 34.8163 -28.9736 35.4085C-28.8495 35.425 -28.7254 35.4414 -28.6012 35.4579C-28.7254 35.4414 -28.8535 35.425 -28.9736 35.4085C-33.5667 34.8122 -36.9385 34.7916 -40.07 34.2735M-44.9474 32.904C-44.4228 33.1261 -43.9062 33.3152 -43.3937 33.4839C-43.9062 33.3152 -44.4268 33.1261 -44.9514 32.904M24.2376 26.9655C24.2376 26.9655 23.8612 29.6345 23.7811 32.283C26.2038 32.2665 28.3982 32.2295 29.7878 32.0157C29.9279 31.9951 30.0681 31.9704 30.2122 31.9499C29.8158 31.1726 29.151 30.2473 28.3501 29.3219C27.0167 27.7797 24.2376 26.9696 24.2376 26.9696M39.871 24.6172C36.6714 24.6172 32.9793 25.3698 32.0302 27.0806C31.1412 28.6886 31.5057 30.42 31.9982 31.6702C35.0937 31.1849 38.9099 30.5557 42.8943 29.7003C42.2496 28.4172 45.289 26.2787 44.7844 25.6947C44.1878 25.0038 42.1535 24.6172 39.867 24.6172" fill="#B2B2B2"/>
<path d="M42.8983 29.6963C38.9139 30.5558 35.0977 31.1809 32.0022 31.6662C32.4067 32.6861 32.8952 33.3853 32.8672 33.4428C32.6509 33.8952 32.2024 34.0844 31.7619 34.0844C31.1653 34.0844 30.5846 33.743 30.6046 33.2536C30.6207 32.9123 30.4765 32.464 30.2122 31.9459C30.0681 31.9664 29.9279 31.9911 29.7877 32.0117C28.3982 32.2255 26.2078 32.2666 23.7811 32.279C23.765 32.8794 23.761 33.4798 23.7811 34.0474C23.7811 34.0597 23.773 34.0638 23.749 34.0638C23.4647 34.0638 21.2022 33.2002 13.4015 32.6614C12.2082 32.8301 11.2591 33.0809 10.6945 33.451C10.4062 33.6402 10.4062 33.9857 10.6505 34.4463C13.0651 35.0344 18.7274 36.2188 25.2066 36.2188C30.036 36.2188 35.3179 35.5608 40.0472 33.5127C42.8823 32.2831 44.8845 31.4277 46.3502 30.782C46.1139 30.7162 45.8856 30.6792 45.6734 30.6627C43.9315 30.5558 43.1426 30.1898 42.8943 29.6963" fill="#B2B2B2"/>
<path d="M39.7469 8.77227C39.7469 9.13417 40.1113 9.43027 40.5638 9.43027C41.0164 9.43027 41.3808 9.13828 41.3808 8.77227C41.3808 8.40625 41.0164 8.11426 40.5638 8.11426C40.1113 8.11426 39.7469 8.40625 39.7469 8.77227Z" fill="#B2B2B2"/>
<path d="M29.3834 10.7297C30.2348 10.7297 30.9251 10.2712 30.9251 9.70567C30.9251 9.14011 30.2348 8.68164 29.3834 8.68164C28.5319 8.68164 27.8417 9.14011 27.8417 9.70567C27.8417 10.2712 28.5319 10.7297 29.3834 10.7297Z" fill="#B2B2B2"/>
<path d="M25.6793 15.768C25.5351 15.1346 24.8544 14.7563 24.1656 14.9249C23.4728 15.0935 23.0323 15.7433 23.1765 16.3766C23.3206 17.01 24.0014 17.3883 24.6902 17.2197C25.383 17.0511 25.8234 16.4013 25.6793 15.768Z" fill="#B2B2B2"/>
<path d="M46.206 11.2776C46.206 10.6936 45.5773 10.2207 44.8005 10.2207C44.0236 10.2207 43.3949 10.6936 43.3949 11.2776C43.3949 11.8616 44.0236 12.3346 44.8005 12.3346C45.5773 12.3346 46.206 11.8616 46.206 11.2776Z" fill="#B2B2B2"/>
<path d="M37.7688 13.9873C36.8758 13.9873 35.9307 14.0161 34.9656 14.086C32.8433 14.2341 29.2152 15.1429 25.6993 16.1546C25.6353 16.6481 25.2428 17.0882 24.6942 17.2198C24.5821 17.2486 24.474 17.2609 24.3659 17.2609C23.9854 17.2609 23.633 17.1005 23.4088 16.8332C19.3883 18.0505 18.3231 19.3336 18.3231 19.3336C18.3231 19.3336 21.2263 18.9388 24.2217 18.1369C28.2061 17.0676 31.6219 16.2574 35.7585 16.2081C40.0032 16.1546 44.8526 15.5912 44.4762 14.9702C44.1759 14.4726 41.3688 13.9873 37.7728 13.9873" fill="#B2B2B2"/>
<path d="M25.6993 16.1543C24.9225 16.3764 24.1536 16.6067 23.4048 16.8329C23.629 17.1002 23.9814 17.2606 24.3619 17.2606C24.47 17.2606 24.5821 17.2482 24.6902 17.2194C25.2428 17.0878 25.6353 16.6478 25.6953 16.1543" fill="#B2B2B2"/>
</g>
<path d="M58.1714 38.4612C58.0072 38.1692 57.835 37.359 55.2642 36.956C52.6853 36.5488 51.2036 37.8813 51.2036 37.8813C52.6853 37.4742 55.6606 38.3666 56.5016 39.6004C57.0301 40.3735 56.5536 40.9616 56.037 41.1426C55.7247 41.2454 55.3963 41.2084 55.2642 40.974C54.9038 40.353 54.4873 39.5304 53.8025 39.4934C53.1138 39.4564 46.3142 39.3742 42.3378 37.9882C37.9209 36.4543 33.3198 33.5919 32.1945 29.9235C31.0652 26.2592 36.227 23.6642 38.5816 20.8183C39.2944 19.9588 40.5598 19.3378 41.8853 19.0664C41.9373 19.054 41.9894 19.0417 42.0455 19.0294C42.5941 18.9307 43.1507 18.8895 43.6753 18.9142C43.7874 18.9183 43.8915 18.9307 44.0036 18.943C44.0917 18.9553 44.1798 18.9677 44.2679 18.9841C44.2839 18.9841 44.304 18.9841 44.32 18.9882C44.4081 19.0006 44.4922 19.017 44.5723 19.0376C44.8886 19.1157 45.197 19.2268 45.4733 19.3707C46.7627 20.0781 47.2873 21.6121 45.8457 24.2605C43.6392 28.3196 41.9533 29.4958 40.9883 29.8125C40.8241 29.8618 40.6759 29.8906 40.5598 29.903C40.5558 29.9071 40.5438 29.903 40.5358 29.903C40.5078 29.903 40.4757 29.9071 40.4517 29.9071H40.4277C40.4277 29.9071 40.4557 29.9071 40.4757 29.9194C40.9522 30.0058 41.4488 30.2114 41.9413 30.4828C42.0454 30.5363 42.1456 30.598 42.2537 30.6638C42.4539 30.7913 42.6701 30.9229 42.8904 31.075C43.5952 31.5727 44.2519 32.1402 44.7725 32.6337C45.3451 33.1724 46.4664 33.559 47.6397 33.7646C48.9251 33.9991 50.2706 34.032 51.0074 33.851C52.421 33.5056 54.259 31.7289 55.2922 33.156C56.3294 34.583 54.4873 34.801 53.4902 34.7229C52.9055 34.6735 51.0515 35.2328 50.5349 35.5207C50.1625 35.7304 50.4748 35.8045 52.437 35.4343C57.1342 34.546 59.7652 36.4378 59.9133 37.6346C60.0655 38.8313 58.3356 38.7532 58.1634 38.4612H58.1714Z" fill="#B2B2B2"/>
<path d="M44.7764 32.6339C43.3068 31.5358 41.9933 30.8038 40.4196 29.8826C40.8961 29.9854 41.0242 29.7674 41.4287 29.5412C43.4429 28.2376 44.6523 25.9757 45.8136 23.9112C46.4303 22.7021 47.103 21.0694 46.1059 19.885C44.1477 17.9726 39.927 19.0584 38.4254 21.1558C36.8556 22.99 34.7733 24.4129 33.3597 26.317C29.4794 31.3796 38.5615 36.3763 42.3377 37.9884C38.2091 36.8698 32.0142 33.7895 31.6979 28.7928C32.0102 25.5767 35.1898 23.9564 37.228 22.0112C37.9929 21.4066 38.5335 20.5635 39.3544 20.0248C40.1753 19.4902 41.1003 19.1653 42.0454 19.009C43.7993 18.6759 46.4383 18.9802 46.7786 21.1804C47.0069 23.249 45.6454 24.9845 44.6202 26.6172C43.7753 27.8058 42.8022 29.0148 41.4848 29.6687C41.0483 29.8661 40.9321 29.9854 40.9922 30.006C41.5769 30.2116 43.487 31.3014 44.7724 32.638L44.7764 32.6339Z" fill="#B2B2B2"/>
<path d="M51.1515 18.7945C51.1515 18.7945 52.3649 20.1763 53.7264 20.4889C54.2229 20.604 57.4505 20.9577 60.598 20.5259C64.7106 19.9624 68.9633 18.4161 68.4988 18.5272C67.758 18.6999 64.4463 19.9542 60.4539 20.238C58.4396 20.3819 55.8487 20.5917 54.1829 20.2586C52.2687 19.872 51.1515 18.7945 51.1515 18.7945Z" fill="#B2B2B2"/>
<path d="M52.6811 12.2679C52.6811 12.2679 52.3808 11.2727 53.2818 9.83742C54.1307 8.48851 56.5254 7.08201 58.3074 8.59955C60.0893 10.1171 60.1975 11.54 59.9772 12.3831C59.757 13.2262 57.8429 14.3653 56.2691 14.1556C54.2829 13.8883 53.0936 12.8355 52.6811 12.2721V12.2679Z" fill="#B2B2B2"/>
<path d="M56.5575 8.45881C56.5575 8.45881 53.5983 8.37245 53.5983 11.9874C53.5983 13.0937 55.5965 14.1424 57.2383 13.9573C58.5117 13.8134 59.4768 12.9538 59.7371 12.2136C60.3337 10.5274 58.1193 8.24907 56.5615 8.45881H56.5575Z" fill="#B2B2B2"/>
<path d="M59.0362 11.0589C59.0362 11.2646 59.0122 11.4661 58.9562 11.6553C58.6959 12.6505 57.7908 13.3825 56.7096 13.3825C55.8687 13.3825 55.1319 12.9384 54.7235 12.268C54.5072 11.9144 54.3831 11.5072 54.3831 11.0589C54.3831 10.6107 54.5192 10.1665 54.7475 9.80462C55.1599 9.16306 55.8887 8.73535 56.7096 8.73535C57.5306 8.73535 58.3074 9.19184 58.7119 9.88275C58.9201 10.2323 59.0362 10.6312 59.0362 11.0631V11.0589Z" fill="#B2B2B2"/>
<path d="M58.7159 9.87864C57.7828 10.8081 56.2852 10.6888 55.5724 10.5037C55.216 10.4133 54.9437 10.1131 54.7515 9.80462C55.1639 9.16306 55.8927 8.73535 56.7136 8.73535C57.5345 8.73535 58.3114 9.19184 58.7159 9.88275V9.87864Z" fill="#B2B2B2"/>
<path d="M58.9562 11.651C58.6959 12.6462 57.7909 13.3783 56.7097 13.3783C55.8688 13.3783 55.132 12.9341 54.7235 12.2637C54.9277 11.8854 55.3362 11.285 55.8608 11.2891C56.5175 11.2973 58.2955 11.1821 58.9562 11.651Z" fill="#B2B2B2"/>
<path d="M56.7939 12.3134C57.6189 12.3134 58.2876 11.6689 58.2876 10.874C58.2876 10.079 57.6189 9.43457 56.7939 9.43457C55.969 9.43457 55.3003 10.079 55.3003 10.874C55.3003 11.6689 55.969 12.3134 56.7939 12.3134Z" fill="#B2B2B2"/>
<path d="M56.0731 10.2483C56.3495 10.2483 56.5736 10.0512 56.5736 9.80821C56.5736 9.56518 56.3495 9.36816 56.0731 9.36816C55.7966 9.36816 55.5725 9.56518 55.5725 9.80821C55.5725 10.0512 55.7966 10.2483 56.0731 10.2483Z" fill="#B2B2B2"/>
<path d="M66.7649 14.8668C66.7649 14.8668 67.0292 14.3404 67.8621 14.7846C68.4628 15.1053 68.3707 15.3439 68.1104 15.4056C67.8501 15.4673 67.7059 15.204 67.3535 15.0683C67.0011 14.9326 66.7649 14.8668 66.7649 14.8668Z" fill="#B2B2B2"/>
<path d="M42.698 21.1888C41.2444 20.9297 39.8909 22.3732 39.8428 23.2986C39.7947 24.2239 37.5883 24.3267 38.7896 24.8408C39.991 25.3548 41.3965 24.6352 41.2444 23.9155C41.0922 23.1958 40.5436 22.3938 41.845 21.9455C43.1465 21.4973 42.698 21.1888 42.698 21.1888Z" fill="#B2B2B2"/>
<path d="M36.1227 26.6623C35.6782 26.6253 34.4688 28.406 34.617 29.0723C34.7652 29.7385 34.9053 30.3389 35.3618 30.7091C35.8183 31.0792 37.4201 31.1285 36.8194 30.2032C36.2188 29.2779 35.8664 29.1751 35.8183 28.7104C35.7703 28.2456 36.2708 27.8879 36.4711 27.6288C36.6713 27.3697 37.3761 26.7692 36.1227 26.6582V26.6623Z" fill="#B2B2B2"/>
<path d="M39.2543 34.052C39.8189 32.9704 40.5357 34.5743 41.5729 34.854C42.4899 35.1007 43.2908 34.9527 43.3909 35.2734C43.455 35.4708 43.0866 35.952 42.6781 35.9314C42.1856 35.9068 41.5889 35.3475 41.0243 35.2734C40.4596 35.1994 39.879 35.4338 39.6227 35.2734C38.8979 34.8252 39.2583 34.052 39.2583 34.052H39.2543Z" fill="#B2B2B2"/>
<path d="M38.8419 45.0279C38.7898 45.4762 38.4735 45.8422 37.6806 46.019C37.0879 46.1548 36.4872 45.8504 36.0107 45.4803C35.2619 44.9045 34.3569 44.5797 33.4238 44.6043C31.9462 44.6331 29.8639 44.5755 28.9268 44.0491C28.0138 43.5268 18.319 43.7695 10.8027 40.7714C9.72948 40.3478 8.70431 39.8502 7.75125 39.2827C5.32455 37.8186 3.39042 35.8569 2.49343 33.1961C2.44537 33.0768 2.40531 32.9535 2.37327 32.8301C2.0409 31.7074 1.88072 30.4654 1.94479 29.0877C2.02488 27.2658 2.42133 25.8922 3.05404 24.8846C3.07406 24.8435 3.09809 24.8024 3.13413 24.7613C4.21533 23.1039 5.95727 22.4665 7.96751 22.4665C7.98353 22.4665 7.99553 22.4623 8.00754 22.4665C11.0629 22.4829 14.719 23.9634 17.5982 25.5509C17.5982 25.5509 17.6022 25.5536 17.6102 25.5591C17.6663 25.592 17.7184 25.6167 17.7744 25.6496C19.7246 26.7394 21.3023 27.8539 22.0512 28.5859C22.0712 28.6024 22.0912 28.6271 22.1113 28.6517C22.2194 28.7546 22.3115 28.8533 22.3795 28.9437V28.952C22.4596 29.0507 22.5077 29.1288 22.5197 29.1946C22.6759 29.9266 23.0723 29.0877 22.9842 27.6072C22.9362 26.7805 22.7319 25.7565 22.2554 24.6872C22.1193 24.387 21.9631 24.095 21.7869 23.7948C21.5426 23.3877 21.2543 22.9888 20.9219 22.6063C20.4814 22.0922 19.9528 21.5946 19.3241 21.1299C19.6805 21.2039 32.4588 24.0333 29.3673 34.5862C28.9589 35.9885 28.234 37.2223 27.301 38.2093C27.301 38.2093 29.067 38.1353 30.9371 37.8433C29.4034 38.6288 27.9818 39.3279 27.5533 39.3937C26.6483 39.5089 25.7553 41.0058 27.1048 41.8448C28.4503 42.6714 29.3593 43.4528 30.5326 43.4528C31.7059 43.4528 33.3437 43.4981 33.572 43.4446C34.0926 43.3294 35.7584 43.2924 36.0187 43.9628C36.4152 44.9786 37.7606 45.1349 38.4134 45.2377C38.5776 45.2665 38.7137 45.1019 38.8419 45.0279Z" fill="#B2B2B2"/>
<path d="M40.4836 39.805C40.3475 40.2779 39.1661 39.7186 38.3372 39.4924C37.9167 39.3731 35.7383 38.8015 34.7652 38.8837C34.0204 38.9331 32.795 39.4842 32.1904 39.7926C32.0622 39.8502 31.9581 39.9078 31.8981 39.9407C31.862 39.9489 31.83 39.9571 31.7939 39.9571C31.2653 40.0147 31.0051 39.8502 30.973 39.8173C30.973 39.8173 33.5479 37.8885 35.2097 38.0201C36.4311 38.1188 39.9871 39.8872 40.4836 39.805Z" fill="#B2B2B2"/>
<path d="M41.2726 42.5199C40.9202 42.3801 39.8751 43.034 38.3774 41.4876C37.1961 40.2621 33.4079 41.208 32.0063 41.1586C30.6128 41.1052 28.995 43.0545 32.599 42.4952C33.0114 42.4376 33.3919 42.3965 33.7402 42.3883C33.7483 42.3801 33.7603 42.3801 33.7683 42.3883C34.8335 42.5034 36.2991 42.8818 36.6275 43.4164C36.9799 44.0128 38.926 44.4322 38.8419 45.0286C38.7138 45.1026 38.5776 45.2671 38.4134 45.2383C37.7607 45.1355 36.4152 44.9792 36.0188 43.9634C35.7585 43.2931 34.0926 43.3301 33.5721 43.4452C33.3438 43.4987 31.706 43.4534 30.5327 43.4534C29.3594 43.4534 28.4504 42.6721 27.1049 41.8454C25.7554 41.0065 26.6484 39.5095 27.5534 39.3944C27.9818 39.3286 29.4034 38.6294 30.9371 37.8439C31.0372 37.8275 31.1374 37.8151 31.2415 37.7987C32.7992 37.5684 34.7894 37.3134 35.6384 37.1695C37.1761 36.9104 38.87 37.6218 39.811 38.4073C40.2875 38.8063 40.5679 39.2257 40.5358 39.5465C40.5358 39.5753 40.5358 39.6041 40.5238 39.6329C40.5118 39.6863 40.4918 39.7439 40.4798 39.7933V39.8015C39.9832 39.8838 36.4273 38.1154 35.2059 38.0166C33.544 37.885 30.9692 39.8138 30.9692 39.8138C31.0012 39.8467 31.2615 40.0112 31.7901 39.9537C31.8261 39.9537 31.8582 39.9454 31.8942 39.9372C31.8742 39.9454 31.8542 39.9537 31.8381 39.9619C32.1465 39.9043 35.2539 39.2628 37.148 39.6041C37.3483 39.6452 37.5365 39.6905 37.7007 39.748C37.8769 39.8138 38.025 39.8879 38.1492 39.9701C38.1812 39.9948 38.2252 40.0154 38.2693 40.0441C38.9701 40.4513 40.9803 41.2409 41.1885 41.866C41.2566 42.0922 41.2846 42.3184 41.2686 42.5158L41.2726 42.5199Z" fill="#B2B2B2"/>
<path d="M41.2725 42.5197C41.2725 42.6061 41.2565 42.6884 41.2365 42.7624C41.1284 43.186 40.804 43.4533 40.3075 43.4122C39.4986 43.3423 38.141 42.4046 37.6285 42.2031C36.9037 41.9152 32.0142 42.2812 32.0142 42.2812C32.0142 42.2812 32.8151 42.2812 33.7401 42.3881C33.3918 42.3964 33.0113 42.4375 32.5989 42.4951C28.9949 43.0544 30.6127 41.105 32.0062 41.1585C33.4078 41.2078 37.196 40.262 38.3773 41.4875C39.875 43.0338 40.9201 42.3799 41.2725 42.5197Z" fill="#B2B2B2"/>
<path d="M6.17741 32.5587C7.00897 32.5587 7.68309 31.8259 7.68309 30.922C7.68309 30.018 7.00897 29.2852 6.17741 29.2852C5.34585 29.2852 4.67175 30.018 4.67175 30.922C4.67175 31.8259 5.34585 32.5587 6.17741 32.5587Z" fill="#B2B2B2"/>
<path d="M6.38184 30.8242C10.146 37.7744 17.9507 39.9006 24.478 39.0658C25.439 38.9136 26.4001 38.6586 27.3011 38.2021C20.8019 41.7965 9.72155 38.8807 6.38184 30.8242Z" fill="#B2B2B2"/>
<path d="M22.5959 29.5239C22.3916 28.8453 21.8911 28.3847 21.4346 27.9529C19.981 26.7068 18.3151 25.872 16.6533 25.1152C13.3776 23.6224 9.78562 22.3639 6.28172 23.2893C2.13311 24.3297 1.21608 28.8535 2.49751 33.1964C0.859687 28.7877 1.79675 23.8075 6.09353 22.6888C9.68552 21.6525 13.4897 23.0795 16.7894 24.704C18.4473 25.5429 20.1171 26.4518 21.5147 27.8336C21.9592 28.3025 22.4437 28.8207 22.5999 29.5239H22.5959Z" fill="#B2B2B2"/>
<path d="M19.0559 34.0102C20.1661 34.0102 21.0661 33.1191 21.0661 32.0198C21.0661 30.9205 20.1661 30.0293 19.0559 30.0293C17.9457 30.0293 17.0457 30.9205 17.0457 32.0198C17.0457 33.1191 17.9457 34.0102 19.0559 34.0102Z" fill="#B2B2B2"/>
<path d="M14.5989 33.1794C15.039 33.1794 15.3958 32.8148 15.3958 32.3651C15.3958 31.9154 15.039 31.5508 14.5989 31.5508C14.1588 31.5508 13.802 31.9154 13.802 32.3651C13.802 32.8148 14.1588 33.1794 14.5989 33.1794Z" fill="#B2B2B2"/>
<path d="M20.4855 23.1745C20.6457 22.2862 21.9631 22.241 23.0043 23.1745C24.0454 24.1081 24.8103 24.252 23.7411 25.0416C22.6719 25.8312 23.0483 26.1849 23.3927 26.6003C23.7371 27.0156 24.3898 27.2213 23.9133 27.4845C23.4368 27.7477 22.5438 27.6778 22.3075 27.1719C22.0752 26.6702 20.982 25.8806 22.0192 24.9635C22.5758 24.47 22.2675 23.9394 21.7829 23.7873C20.5415 23.3843 20.3253 24.0628 20.4855 23.1745Z" fill="#B2B2B2"/>
<path d="M27.1728 27.6361C27.1728 27.6361 28.0978 27.4264 28.3581 28.9151C28.6184 30.4039 29.6315 30.8521 28.5023 31.58C27.373 32.308 27.4892 32.1352 27.1728 32.8591C26.8565 33.5829 26.7964 34.2779 26.3038 33.587C25.8113 32.8961 26.0436 31.8926 26.5641 31.4073C27.0847 30.922 28.214 30.5437 27.8936 29.8857C27.5733 29.2277 26.4761 28.7136 27.1688 27.6361H27.1728Z" fill="#B2B2B2"/>
<path d="M11.111 39.7645C11.111 40.1387 11.0029 40.4801 10.8066 40.7638C9.73345 40.3402 8.70431 39.8467 7.75525 39.2751C7.95948 38.5348 8.62023 37.9961 9.4011 37.9961C10.3462 37.9961 11.115 38.7857 11.115 39.7604L11.111 39.7645Z" fill="#B2B2B2"/>
<path d="M19.5404 41.1827C19.808 41.1827 20.025 40.982 20.025 40.7344C20.025 40.4868 19.808 40.2861 19.5404 40.2861C19.2728 40.2861 19.0559 40.4868 19.0559 40.7344C19.0559 40.982 19.2728 41.1827 19.5404 41.1827Z" fill="#B2B2B2"/>
<path d="M4.14326 26.9121C4.14326 26.9121 4.88006 22.1169 10.3061 24.0909C15.7321 26.065 17.0977 25.5632 17.0456 27.8128C16.9935 30.0624 10.9428 28.4379 9.43313 26.9121C7.92345 25.3864 5.92523 27.0067 5.18841 27.6236C4.45159 28.2405 3.81487 27.9485 4.14724 26.9121H4.14326Z" fill="#B2B2B2"/>
<path d="M58.1713 38.4606C58.0071 38.1686 57.8349 37.3584 55.264 36.9554C52.6851 36.5482 51.2035 37.8807 51.2035 37.8807C52.6851 37.4735 55.6605 38.366 56.5014 39.5997C57.03 40.3729 56.5534 40.961 56.0369 41.1419C55.7085 40.6402 55.5483 39.9575 54.9116 39.3818C53.9345 38.4976 49.1412 38.0534 47.9238 36.7045C46.9828 35.664 46.8987 34.3521 47.6475 33.764C48.933 33.9984 50.2785 34.0313 51.0153 33.8504C52.4289 33.5049 54.2669 31.7283 55.3001 33.1554C56.3372 34.5824 54.4952 34.8004 53.4981 34.7223C52.9134 34.6729 51.0593 35.2322 50.5428 35.5201C50.1704 35.7298 50.4827 35.8039 52.4449 35.4337C57.1421 34.5454 59.773 36.4372 59.9212 37.6339C60.0734 38.8307 58.3434 38.7526 58.1713 38.4606Z" fill="#B2B2B2"/>
<path d="M65.155 33.156C65.9268 33.156 66.5525 32.5557 66.5525 31.8153C66.5525 31.0749 65.9268 30.4746 65.155 30.4746C64.3831 30.4746 63.7574 31.0749 63.7574 31.8153C63.7574 32.5557 64.3831 33.156 65.155 33.156Z" fill="#B2B2B2"/>
<path d="M66.7368 29.4626C67.5086 29.4626 68.1343 28.8624 68.1343 28.1219C68.1343 27.3815 67.5086 26.7812 66.7368 26.7812C65.9649 26.7812 65.3392 27.3815 65.3392 28.1219C65.3392 28.8624 65.9649 29.4626 66.7368 29.4626Z" fill="#B2B2B2"/>
<path d="M64.6906 26.4724C65.4625 26.4724 66.0882 25.8722 66.0882 25.1317C66.0882 24.3913 65.4625 23.791 64.6906 23.791C63.9188 23.791 63.2931 24.3913 63.2931 25.1317C63.2931 25.8722 63.9188 26.4724 64.6906 26.4724Z" fill="#B2B2B2"/>
<path d="M15.4209 16.9823C15.9746 16.6825 16.2068 16.0176 15.9397 15.4972C15.6725 14.9769 15.0071 14.798 14.4535 15.0978C13.8999 15.3976 13.6676 16.0625 13.9348 16.5828C14.2019 17.1032 14.8673 17.282 15.4209 16.9823Z" fill="#B2B2B2"/>
<path opacity="0.51" d="M53.342 17.8658C54.2178 17.8658 54.9278 17.2269 54.9278 16.4388C54.9278 15.6506 54.2178 15.0117 53.342 15.0117C52.4662 15.0117 51.7562 15.6506 51.7562 16.4388C51.7562 17.2269 52.4662 17.8658 53.342 17.8658Z" fill="#B2B2B2"/>
<path opacity="0.51" d="M63.8737 13.979C64.3536 13.979 64.7427 13.6586 64.7427 13.2634C64.7427 12.8682 64.3536 12.5479 63.8737 12.5479C63.3938 12.5479 63.0048 12.8682 63.0048 13.2634C63.0048 13.6586 63.3938 13.979 63.8737 13.979Z" fill="#B2B2B2"/>
<path d="M59.4247 39.1191C60.347 39.1191 61.0946 38.4655 61.0946 37.6592C61.0946 36.8529 60.347 36.1992 59.4247 36.1992C58.5025 36.1992 57.7549 36.8529 57.7549 37.6592C57.7549 38.4655 58.5025 39.1191 59.4247 39.1191Z" fill="#B2B2B2"/>
<path d="M54.7034 34.8991C55.4554 34.8991 56.0649 34.273 56.0649 33.5008C56.0649 32.7286 55.4554 32.1025 54.7034 32.1025C53.9515 32.1025 53.3419 32.7286 53.3419 33.5008C53.3419 34.273 53.9515 34.8991 54.7034 34.8991Z" fill="#B2B2B2"/>
<path d="M56.2051 41.9533C57.0146 41.9533 57.6708 41.3033 57.6708 40.5015C57.6708 39.6998 57.0146 39.0498 56.2051 39.0498C55.3957 39.0498 54.7395 39.6998 54.7395 40.5015C54.7395 41.3033 55.3957 41.9533 56.2051 41.9533Z" fill="#B2B2B2"/>
</svg>
