<svg width="72" height="50" viewBox="0 0 72 50" fill="none" xmlns="http://www.w3.org/2000/svg">
<path d="M55.248 6.79049C55.248 6.79049 56.5871 6.36795 58.2784 4.75166C60.3136 2.80308 63.4504 5.07164 63.9214 6.70844C64.2367 7.81195 64.3882 10.3964 65.0557 10.8107C65.7232 11.225 53.221 10.261 55.2521 6.79459L55.248 6.79049Z" fill="#1A6E22"/>
<path d="M44.6707 34.4802C44.5602 34.9028 44.2244 35.1694 43.7166 35.1284C42.8894 35.0545 43.2374 34.4392 42.7133 34.2341C41.968 33.951 36.9679 34.3161 36.9679 34.3161C36.9679 34.3161 37.7869 34.3161 38.7329 34.4228C38.7411 34.4146 38.7534 34.4146 38.7616 34.4228C39.8549 34.5377 41.0916 34.7961 41.4233 35.3335C41.7837 35.9242 42.2014 36.6544 42.1195 37.2493C42.0622 37.6964 41.7428 38.0615 40.9319 38.2379C39.6092 38.5292 39.8181 36.437 39.8181 36.437C39.8181 36.437 35.3831 36.9416 33.8106 36.0801C32.877 35.5591 22.9628 35.8053 15.2805 32.8106C14.183 32.3881 13.1306 31.8958 12.16 31.3256C9.67843 29.8652 7.70462 27.9084 6.78323 25.2583C6.73409 25.1353 6.69313 25.0163 6.65628 24.8932C6.31639 23.7733 6.15668 22.5303 6.21811 21.1602C6.30001 19.3429 6.70542 17.9727 7.35244 16.9635C7.37292 16.9225 7.40158 16.8815 7.43434 16.8405C8.54001 15.1873 10.3214 14.5514 12.3771 14.5514C12.3894 14.5514 12.4057 14.5432 12.418 14.5514C15.5385 14.5678 19.2814 16.0446 22.2216 17.6281C22.2216 17.6281 22.2257 17.6308 22.2339 17.6363C22.2912 17.6691 22.3445 17.6937 22.4018 17.7266C24.3961 18.8137 26.0095 19.9254 26.7753 20.6556C26.7958 20.672 26.8163 20.6966 26.8367 20.7212C26.9473 20.8279 27.0374 20.9222 27.107 21.0125L27.1152 21.0207C27.193 21.1191 27.2421 21.2012 27.2544 21.2627C27.4141 21.9929 27.8196 21.1561 27.7254 19.6792C27.6762 18.8506 27.4674 17.8291 26.9801 16.7666C26.8408 16.4672 26.6811 16.1759 26.5009 15.8723C26.2511 15.4662 25.9604 15.0683 25.6164 14.6868C25.166 14.1658 24.6213 13.6735 23.9743 13.21C23.9743 13.21 37.4593 15.9585 34.2529 26.6367C33.8352 28.0315 33.0899 29.2662 32.1398 30.2467C32.1398 30.2467 33.9458 30.1728 35.8582 29.8816C37.4839 29.6478 39.1956 29.258 39.9041 28.6386C41.4602 27.2931 43.2334 29.5698 42.9713 30.5051C42.959 30.5626 42.9385 30.62 42.9221 30.6692V30.6774C42.7829 31.1492 42.6928 31.2148 41.8779 31.1328C41.4315 31.0918 40.764 30.8415 39.7689 30.9236C39.0032 30.9728 37.7542 31.5225 37.1317 31.8343C37.0007 31.8917 36.8942 31.9491 36.8328 31.9819C36.8123 31.9902 36.7918 31.9984 36.7754 32.0066C37.0867 31.9491 40.2644 31.3092 42.2055 31.6497C42.4062 31.6907 42.6027 31.7399 42.7706 31.7973C42.9508 31.863 43.1064 31.9368 43.2293 32.0148C43.7862 32.3881 44.3759 32.9255 44.6011 33.59C44.7035 33.9141 44.7199 34.23 44.6502 34.4843L44.6707 34.4802Z" fill="#1A6E22"/>
<path opacity="0.51" d="M11.8406 23.5597C12.3698 23.5597 12.7988 23.1061 12.7988 22.5465C12.7988 21.9869 12.3698 21.5332 11.8406 21.5332C11.3113 21.5332 10.8823 21.9869 10.8823 22.5465C10.8823 23.1061 11.3113 23.5597 11.8406 23.5597Z" fill="#6EA46B"/>
<path d="M10.7635 22.8877C14.6129 29.8205 22.5942 31.9414 29.2691 31.1086C30.2519 30.9569 31.2348 30.7025 32.1561 30.2472C25.5099 33.8326 14.1788 30.924 10.7635 22.8877Z" fill="#295633"/>
<path d="M27.3445 21.5911C27.1356 20.9142 26.6238 20.4547 26.1569 20.024C24.6704 18.781 22.9669 17.9482 21.2674 17.1934C17.9177 15.7043 14.2444 14.449 10.6612 15.372C6.41873 16.4099 5.48096 20.9224 6.79138 25.2544C5.1165 20.8568 6.0256 15.9012 10.4196 14.7854C14.0929 13.7516 18.0323 15.1628 21.4067 16.7832C23.102 17.6201 24.8096 18.5267 26.2388 19.905C26.6934 20.3727 27.1889 20.8896 27.3486 21.5911H27.3445Z" fill="#03600C"/>
<path d="M23.7244 26.0667C24.8598 26.0667 25.7801 25.1778 25.7801 24.0812C25.7801 22.9846 24.8598 22.0957 23.7244 22.0957C22.5891 22.0957 21.6687 22.9846 21.6687 24.0812C21.6687 25.1778 22.5891 26.0667 23.7244 26.0667Z" fill="#0A6513"/>
<path d="M19.1667 25.2378C19.6168 25.2378 19.9816 24.8741 19.9816 24.4255C19.9816 23.9769 19.6168 23.6133 19.1667 23.6133C18.7167 23.6133 18.3518 23.9769 18.3518 24.4255C18.3518 24.8741 18.7167 25.2378 19.1667 25.2378Z" fill="#0A6513"/>
<path d="M25.1905 15.2617C25.3543 14.3756 26.7016 14.3305 27.7663 15.2617C28.831 16.1929 29.6132 16.3365 28.5198 17.1241C27.4264 17.9117 27.8113 18.2645 28.1635 18.6789C28.5157 19.0932 29.1832 19.2983 28.6959 19.5609C28.2086 19.8234 27.2954 19.7537 27.0538 19.2491C26.8162 18.7486 25.6983 17.961 26.7589 17.0462C27.3281 16.5539 27.0128 16.0247 26.5173 15.8729C25.2478 15.4709 25.0267 16.1478 25.1905 15.2617Z" fill="#0A6513"/>
<path d="M32.0252 19.7084C32.0252 19.7084 32.9711 19.4991 33.2373 20.9842C33.5035 22.4692 34.5395 22.9163 33.3847 23.6424C32.2299 24.3685 32.3487 24.1962 32.0252 24.9182C31.7017 25.6402 31.6402 26.3335 31.1365 25.6443C30.6328 24.9552 30.8704 23.9542 31.4027 23.4701C31.9351 22.9861 33.0899 22.6087 32.7623 21.9523C32.4347 21.2959 31.3126 20.7831 32.0211 19.7084H32.0252Z" fill="#0A6513"/>
<path d="M15.5999 31.806C15.5999 32.1793 15.4893 32.5198 15.2886 32.8028C14.1912 32.3803 13.1387 31.888 12.1682 31.3178C12.3771 30.5794 13.0527 30.042 13.8513 30.042C14.8177 30.042 15.604 30.8296 15.604 31.8019L15.5999 31.806Z" fill="#0A6513"/>
<path d="M24.2201 33.2205C24.4938 33.2205 24.7156 33.0203 24.7156 32.7733C24.7156 32.5264 24.4938 32.3262 24.2201 32.3262C23.9464 32.3262 23.7246 32.5264 23.7246 32.7733C23.7246 33.0203 23.9464 33.2205 24.2201 33.2205Z" fill="#0A6513"/>
<path d="M7.98723 18.2517C7.98723 18.2517 9.22804 14.2028 14.7768 16.1719C20.3256 18.141 21.7221 17.6405 21.6688 19.8844C21.6156 22.1284 15.428 21.2177 13.8841 19.6998C12.3403 18.1779 10.2805 18.5799 9.52288 19.1953C8.76529 19.8106 7.65144 19.2896 7.99133 18.2517H7.98723Z" fill="#297831"/>
<path d="M44.6707 34.4798C44.3226 34.3158 43.9008 33.9753 43.4831 33.524C42.3283 32.2482 38.4012 33.2492 36.9679 33.1999C35.5428 33.1425 33.8884 35.0911 37.5739 34.5291C37.9998 34.4716 38.3889 34.4306 38.741 34.4224C38.7492 34.4142 38.7615 34.4142 38.7697 34.4224C39.8631 34.5373 41.0998 34.7957 41.4315 35.3331C41.7919 35.9238 42.2096 36.654 42.1277 37.2489C41.9966 37.3227 41.8574 37.4868 41.6895 37.4581C41.022 37.3514 41.2186 36.892 40.809 35.8787C40.5388 35.2101 39.0973 35.3659 38.5691 35.4808C38.3356 35.5341 36.6608 35.489 35.4568 35.489C34.2529 35.489 33.3274 34.7096 31.9514 33.8809C30.5755 33.0441 31.4846 31.5508 32.4101 31.4401C32.8482 31.3744 34.302 30.677 35.8745 29.8894C37.5002 29.6556 39.212 29.2659 39.9204 28.6464C41.4765 27.3009 43.2497 29.5776 42.9876 30.513C42.9753 30.5704 42.9549 30.6278 42.9385 30.677V30.6852C42.4307 30.7673 41.4929 30.1643 40.2398 30.0699C38.5445 29.9386 35.9073 31.8626 35.9073 31.8626C35.94 31.8954 36.2062 32.0554 36.7468 32.0021C36.7795 32.0021 36.8164 31.9939 36.8491 31.9857C36.8287 31.9939 36.8082 32.0021 36.7918 32.0103C37.103 31.9528 40.2808 31.3129 42.2218 31.6534C42.4225 31.6944 42.6191 31.7436 42.787 31.8011C42.9671 31.8667 43.1228 31.9405 43.2456 32.0185C43.8025 32.3918 44.3922 32.9292 44.6175 33.5938C44.7198 33.9178 44.7362 34.2337 44.6666 34.4881L44.6707 34.4798Z" fill="#38823F"/>
<path d="M7.07788 23.561C7.07788 23.561 11.6603 10.1507 27.373 7.42266C40.1987 5.19513 39.3633 6.86885 51.2472 5.26487C58 4.35416 65.5226 9.67891 65.6372 9.8471C66.5341 11.2008 15.2639 27.9176 7.07788 23.561Z" fill="#388525"/>
<path d="M68.2704 28.6724C68.1721 29.0949 67.7094 29.2918 67.3203 29.1236C67.0132 28.9924 67.4596 29.0047 64.8264 28.5986C63.5119 28.3975 62.5004 28.4591 61.8206 28.5739C61.1327 28.6888 60.7846 28.8529 60.7846 28.8529C62.267 29.1975 65.1909 29.8703 66.0509 31.1009C66.3293 31.4989 66.4112 31.8311 66.3457 32.0855C66.2966 32.3275 66.1164 32.4957 65.8584 32.586C65.539 32.6885 64.9738 32.5326 64.8428 32.2947C64.4742 31.6753 63.6143 31.2937 62.9181 31.2568C62.2138 31.2199 55.674 31.0025 51.6117 29.6241C47.0948 28.094 42.3896 25.2388 41.2389 21.5796C40.7639 20.0658 41.3822 18.7408 42.451 17.4978C43.9621 15.742 46.3659 14.1627 47.7746 12.4971C48.5035 11.6398 49.7976 11.0203 51.153 10.7496C51.2063 10.7373 51.2595 10.725 51.3168 10.7127C51.8778 10.6142 52.4471 10.5732 52.9835 10.5978C53.0982 10.6019 53.2046 10.6142 53.3193 10.6265C53.4094 10.6388 53.4995 10.6511 53.5896 10.6675C53.606 10.6675 53.6264 10.6675 53.6428 10.6716C53.7329 10.6839 53.8189 10.7004 53.9008 10.7209C54.2243 10.7988 54.5396 10.9096 54.8222 11.0532C56.1408 11.7587 56.6773 13.2889 55.203 15.9307C54.511 17.1737 53.868 18.1378 53.2825 18.8967C53.2702 18.9131 53.2579 18.9336 53.2456 18.9459C52.185 20.3079 51.3127 20.9765 50.6575 21.2924C50.506 21.3704 50.3627 21.4237 50.2357 21.4688C50.0678 21.518 49.9163 21.5468 49.7976 21.5591C49.7935 21.5632 49.7812 21.5591 49.773 21.5591C49.7443 21.5591 49.7116 21.5632 49.687 21.5632H49.6624C49.6624 21.5632 49.6911 21.5632 49.7116 21.5755C50.1989 21.6616 50.7067 21.8667 51.2104 22.1375C51.3168 22.1908 51.4192 22.2523 51.5298 22.318C51.7345 22.4452 51.9557 22.5764 52.1809 22.7282C52.9016 23.2246 53.5732 23.7907 54.1056 24.283C54.6912 24.8204 55.8378 25.206 57.0376 25.4111C58.3521 25.6449 59.7281 25.6777 60.4816 25.4972C61.9271 25.1526 65.1008 23.7538 66.1696 25.1732C66.2351 25.2634 66.2679 25.3414 66.2679 25.4193C66.2679 26.1208 63.9378 26.4367 63.0246 26.3669C62.5373 26.3259 61.5422 26.3054 60.9607 26.531H60.9566C60.8296 26.5843 60.7232 26.6459 60.6454 26.7197C60.3751 26.9659 60.7232 27.2243 61.9517 27.0807C64.8551 26.7361 67.4596 26.9125 68.0984 27.9299C68.2786 28.2211 68.3195 28.4714 68.2786 28.6724H68.2704Z" fill="#086311"/>
<path d="M68.2704 28.6717C68.0902 28.7578 67.8732 28.7701 67.6807 28.684C67.3736 28.5527 67.82 28.524 65.1828 28.1589C61.5504 27.6584 60.7888 28.8522 60.7888 28.8522C62.2712 29.1968 65.195 29.8696 66.055 31.1002C66.3335 31.4982 66.4154 31.8304 66.3499 32.0848C66.3089 32.1094 66.2639 32.1258 66.2188 32.1463C65.8994 32.2489 65.3343 32.0971 65.2032 31.8633C64.8347 31.2438 63.9829 30.8541 63.2826 30.8213C62.5783 30.7844 56.0344 30.5669 51.968 29.1886C47.4511 27.6584 42.7459 24.8032 41.5952 21.144C41.1734 19.8108 41.6075 18.617 42.4511 17.5012C43.913 15.5649 46.5994 13.8625 48.1268 12.0616C48.8557 11.2042 50.1498 10.5848 51.5052 10.314C51.5585 10.3017 51.6117 10.2894 51.6691 10.2771C52.2301 10.1787 52.7993 10.1376 53.3357 10.1623C53.4504 10.1664 53.5569 10.1787 53.6715 10.191C53.7616 10.2033 53.8517 10.2156 53.9418 10.232C53.9582 10.232 53.9787 10.232 53.995 10.2361C54.0851 10.2484 54.1711 10.2648 54.253 10.2853C54.5765 10.3633 54.8919 10.474 55.1744 10.6176C56.493 11.3232 57.0295 12.8533 55.5553 15.4952C54.724 16.9925 53.9582 18.096 53.2784 18.9042C53.2661 18.9206 53.2538 18.9411 53.2416 18.9534C52.1031 20.3113 51.2022 20.8405 50.588 21.0333C50.4201 21.0825 50.2685 21.1112 50.1498 21.1235C50.1457 21.1276 50.1334 21.1235 50.1252 21.1235C50.0966 21.1235 50.0638 21.1276 50.0392 21.1276H50.0146C50.0146 21.1276 50.0433 21.1276 50.0638 21.1399C50.2563 21.1768 50.4569 21.2261 50.6535 21.2958C50.502 21.3738 50.3586 21.4271 50.2317 21.4722C50.0638 21.5214 49.9123 21.5501 49.7935 21.5625C49.7894 21.5666 49.7771 21.5625 49.7689 21.5625C49.7403 21.5625 49.7075 21.5666 49.683 21.5666H49.6584C49.6584 21.5666 49.687 21.5666 49.7075 21.5789C50.1948 21.665 50.7026 21.8701 51.2063 22.1409C51.3128 22.1942 51.4152 22.2557 51.5257 22.3214C51.7305 22.4485 51.9516 22.5798 52.1768 22.7316C52.8976 23.228 53.5692 23.7941 54.1015 24.2864C54.6871 24.8238 55.8337 25.2094 57.0336 25.4145C58.3481 25.6483 59.724 25.6811 60.4775 25.5006C61.9231 25.156 65.0968 23.7572 66.1656 25.1766C66.2311 25.2668 66.2638 25.3447 66.2638 25.4227C65.5759 25.8165 64.0648 25.9847 63.3727 25.9314C62.7749 25.8821 61.1245 25.8411 60.5799 26.5836C60.3629 26.879 60.7109 27.2277 61.9395 27.08C64.8429 26.7354 67.4473 26.9118 68.0862 27.9292C68.2663 28.2204 68.3073 28.4707 68.2663 28.6717H68.2704Z" fill="#24752C"/>
<path d="M70.8259 17.4315C70.5966 17.8254 70.4041 18.0633 70.4041 18.0633C69.2411 19.4047 67.1649 19.4416 65.2321 20.0898C64.3353 20.3934 63.6964 21.1523 62.7464 21.8087C61.0305 22.9901 57.7258 22.9614 55.9772 24.348C48.7331 30.1158 53.6471 27.798 40.1744 33.4919C26.6976 39.1941 8.84309 34.1032 8.84309 34.1032C8.84309 34.1032 4.72755 31.4859 7.01669 28.922C11.9799 23.3675 12.3198 20.7626 14.9611 17.4315C17.6024 14.1005 27.8974 6.80666 40.7395 6.58924C52.7012 6.38412 50.3916 7.35226 55.4121 7.17176C57.9592 7.08151 59.7365 7.31124 61.0428 7.65993H61.0469C63.0085 8.19322 63.8848 9.07521 64.7939 9.31314C69.6506 10.5931 69.9045 12.2258 70.8669 13.2882C72.1364 14.6871 71.3788 16.4962 70.8259 17.4315Z" fill="#388525"/>
<mask id="mask0_186_247218" style="mask-type:luminance" maskUnits="userSpaceOnUse" x="6" y="6" width="66" height="31">
<path d="M70.8259 17.4322C70.5966 17.826 70.4041 18.0639 70.4041 18.0639C69.2411 19.4054 67.1649 19.4423 65.2321 20.0904C64.3353 20.394 63.6964 21.1529 62.7464 21.8093C61.0305 22.9907 57.7258 22.962 55.9772 24.3486C48.7331 30.1164 53.6471 27.7986 40.1744 33.4926C26.6976 39.1947 8.84309 34.1038 8.84309 34.1038C8.84309 34.1038 4.72755 31.4865 7.01669 28.9226C11.9799 23.3682 12.8644 18.6218 16.2551 16.0579C19.1504 13.8632 27.5248 6.77858 40.3669 6.56116C52.3285 6.35605 50.3916 7.3529 55.4121 7.1724C57.9592 7.08215 59.7365 7.31188 61.0428 7.66057H61.0469C63.0085 8.19386 63.8602 9.19892 64.7939 9.31378C68.1355 9.71991 69.9045 12.2264 70.8669 13.2889C72.1364 14.6878 71.3788 16.4969 70.8259 17.4322Z" fill="white"/>
</mask>
<g mask="url(#mask0_186_247218)">
<path d="M56.9437 24.0939C56.9437 24.0939 53.9707 27.0722 47.3613 28.7131C40.7519 30.354 34.0892 31.3303 29.6829 31.999C25.2766 32.6677 12.9792 31.638 10.1618 33.4348C7.34436 35.2316 31.4274 51.452 43.0574 41.2866C54.6873 31.1252 56.9437 24.0898 56.9437 24.0898" fill="#C9DDC8"/>
<path d="M-41.7595 34.2554H-41.7513C-38.5531 34.7682 -35.101 34.7928 -30.408 35.3835C-30.2811 35.3999 -30.1541 35.4163 -30.0272 35.4327C-30.1541 35.4163 -30.2852 35.3999 -30.408 35.3835C-35.1051 34.7887 -38.5531 34.7682 -41.7554 34.2513M-46.7432 32.8852C-46.2068 33.1067 -45.6785 33.2954 -45.1543 33.4636C-45.6785 33.2954 -46.2109 33.1067 -46.7473 32.8852M24.0071 26.9615C24.0071 26.9615 23.6222 29.6239 23.5403 32.2658C26.0178 32.2494 28.2619 32.2124 29.6829 31.9991C29.8262 31.9786 29.9695 31.954 30.117 31.9335C29.7116 31.1582 29.0318 30.2351 28.2128 29.3121C26.8491 27.7738 24.0071 26.9656 24.0071 26.9656M39.9942 24.6191C36.7223 24.6191 32.9466 25.3699 31.9761 27.0764C31.067 28.6804 31.4397 30.4074 31.9434 31.6545C35.1088 31.1705 39.0114 30.5428 43.086 29.6895C42.4267 28.4096 45.5349 26.2765 45.0189 25.6939C44.4087 25.0048 42.3284 24.6191 39.9902 24.6191" fill="#2E7B36"/>
<path d="M43.0901 29.6865C39.0155 30.5439 35.113 31.1674 31.9475 31.6515C32.3611 32.6689 32.8607 33.3663 32.832 33.4237C32.6109 33.8749 32.1522 34.0636 31.7018 34.0636C31.0916 34.0636 30.4978 33.7232 30.5183 33.235C30.5347 32.8945 30.3873 32.4473 30.117 31.9305C29.9696 31.951 29.8262 31.9756 29.6829 31.9961C28.2619 32.2094 26.0219 32.2504 23.5403 32.2627C23.5239 32.8617 23.5198 33.4606 23.5403 34.0267C23.5403 34.039 23.5321 34.0431 23.5076 34.0431C23.2168 34.0431 20.9031 33.1817 12.9259 32.6443C11.7056 32.8125 10.7351 33.0627 10.1577 33.4319C9.86281 33.6206 9.86281 33.9652 10.1126 34.4246C12.5819 35.0113 18.3723 36.1927 24.9982 36.1927C29.9368 36.1927 35.3382 35.5364 40.1744 33.4934C43.0737 32.2669 45.1213 31.4136 46.6201 30.7695C46.3785 30.7039 46.145 30.667 45.928 30.6506C44.1467 30.5439 43.3399 30.1788 43.086 29.6865" fill="#A9C9A6"/>
<path d="M39.8673 8.81359C39.8673 9.17459 40.24 9.46995 40.7027 9.46995C41.1654 9.46995 41.5381 9.17869 41.5381 8.81359C41.5381 8.44849 41.1654 8.15723 40.7027 8.15723C40.24 8.15723 39.8673 8.44849 39.8673 8.81359Z" fill="#6EA46B"/>
<path d="M29.2652 10.7666C30.1359 10.7666 30.8418 10.3092 30.8418 9.7451C30.8418 9.18096 30.1359 8.72363 29.2652 8.72363C28.3945 8.72363 27.6886 9.18096 27.6886 9.7451C27.6886 10.3092 28.3945 10.7666 29.2652 10.7666Z" fill="#6EA46B"/>
<path d="M25.4813 15.7921C25.3338 15.1604 24.6377 14.783 23.9333 14.9512C23.2249 15.1194 22.7744 15.7675 22.9219 16.3993C23.0693 17.031 23.7654 17.4084 24.4698 17.2402C25.1782 17.072 25.6287 16.4239 25.4813 15.7921Z" fill="#6EA46B"/>
<path d="M46.4726 11.3111C46.4726 10.7286 45.8297 10.2568 45.0353 10.2568C44.2408 10.2568 43.5979 10.7286 43.5979 11.3111C43.5979 11.8936 44.2408 12.3654 45.0353 12.3654C45.8297 12.3654 46.4726 11.8936 46.4726 11.3111Z" fill="#6EA46B"/>
<path d="M37.8444 14.0146C36.9312 14.0146 35.9647 14.0434 34.9778 14.1131C32.8074 14.2608 29.0973 15.1674 25.5018 16.1765C25.4363 16.6688 25.035 17.1078 24.474 17.239C24.3593 17.2677 24.2488 17.2801 24.1382 17.2801C23.7492 17.2801 23.3888 17.1201 23.1595 16.8534C19.048 18.0677 17.9587 19.3476 17.9587 19.3476C17.9587 19.3476 20.9277 18.9538 23.9908 18.1538C28.0653 17.0872 31.5584 16.2791 35.7886 16.2299C40.1294 16.1765 45.0885 15.6145 44.7036 14.9951C44.3964 14.4987 41.5258 14.0146 37.8485 14.0146" fill="#1A6E22"/>
<path d="M25.4977 16.1777C24.7033 16.3993 23.917 16.629 23.1512 16.8546C23.3806 17.1213 23.7409 17.2812 24.13 17.2812C24.2405 17.2812 24.3552 17.2689 24.4658 17.2402C25.0309 17.1089 25.4322 16.67 25.4936 16.1777" fill="#559450"/>
</g>
<path d="M58.7045 38.4279C58.5366 38.1367 58.3606 37.3285 55.7315 36.9265C53.0943 36.5204 51.5791 37.8495 51.5791 37.8495C53.0943 37.4434 56.1369 38.3336 56.9969 39.5642C57.5374 40.3355 57.0501 40.9221 56.5219 41.1026C56.2025 41.2051 55.8667 41.1682 55.7315 40.9344C55.363 40.315 54.9371 39.4945 54.2368 39.4576C53.5325 39.4207 46.5791 39.3386 42.5127 37.9562C37.9958 36.426 33.2906 33.5708 32.1399 29.9116C30.9851 26.2565 36.2636 23.6679 38.6715 20.8292C39.4004 19.9718 40.6945 19.3524 42.0499 19.0816C42.1032 19.0693 42.1564 19.057 42.2137 19.0447C42.7747 18.9462 43.344 18.9052 43.8804 18.9298C43.9951 18.9339 44.1015 18.9462 44.2162 18.9585C44.3063 18.9709 44.3964 18.9832 44.4865 18.9996C44.5029 18.9996 44.5233 18.9996 44.5397 19.0037C44.6298 19.016 44.7158 19.0324 44.7977 19.0529C45.1212 19.1308 45.4365 19.2416 45.7191 19.3852C47.0377 20.0908 47.5742 21.6209 46.0999 24.2628C43.8436 28.3117 42.1195 29.485 41.1326 29.8008C40.9647 29.8501 40.8132 29.8788 40.6945 29.8911C40.6904 29.8952 40.6781 29.8911 40.6699 29.8911C40.6412 29.8911 40.6085 29.8952 40.5839 29.8952H40.5593C40.5593 29.8952 40.588 29.8952 40.6085 29.9075C41.0958 29.9936 41.6036 30.1988 42.1073 30.4695C42.2137 30.5228 42.3161 30.5844 42.4267 30.65C42.6314 30.7772 42.8526 30.9085 43.0778 31.0602C43.7985 31.5566 44.4701 32.1227 45.0025 32.615C45.5881 33.1524 46.7347 33.538 47.9345 33.7431C49.249 33.977 50.625 34.0098 51.3785 33.8293C52.824 33.4847 54.7037 31.7125 55.7602 33.136C56.8208 34.5595 54.9371 34.7769 53.9174 34.6989C53.3195 34.6497 51.4235 35.2076 50.8953 35.4948C50.5144 35.704 50.8338 35.7778 52.8404 35.4086C57.6439 34.5226 60.3344 36.4096 60.4859 37.6034C60.6415 38.7971 58.8724 38.7192 58.6963 38.4279H58.7045Z" fill="#388525"/>
<path d="M45.0065 32.6152C43.5037 31.5199 42.1605 30.7896 40.5511 29.8707C41.0384 29.9733 41.1695 29.7559 41.5831 29.5302C43.6429 28.2298 44.8796 25.9736 46.0672 23.9142C46.6978 22.7082 47.3858 21.0796 46.3661 19.8981C44.3636 17.9906 40.0474 19.0736 38.5118 21.1657C36.9065 22.9953 34.7771 24.4147 33.3315 26.3141C29.3634 31.364 38.651 36.3482 42.5127 37.9563C38.2907 36.8405 31.9556 33.7679 31.6321 28.7836C31.9515 25.5757 35.203 23.9594 37.2874 22.019C38.0695 21.416 38.6223 20.575 39.4618 20.0376C40.3013 19.5043 41.2473 19.1802 42.2137 19.0243C44.0074 18.6921 46.706 18.9956 47.0541 21.1903C47.2875 23.2538 45.8952 24.9849 44.8468 26.6135C43.9828 27.7991 42.9877 29.0052 41.6404 29.6574C41.194 29.8543 41.0753 29.9733 41.1367 29.9938C41.7346 30.1989 43.6879 31.286 45.0024 32.6193L45.0065 32.6152Z" fill="#005E09"/>
<path d="M51.5256 18.8094C51.5256 18.8094 52.7664 20.1878 54.1588 20.4996C54.6665 20.6144 57.9672 20.9672 61.1859 20.5365C65.3915 19.9745 69.7405 18.432 69.2654 18.5428C68.5079 18.7151 65.1212 19.9663 61.0385 20.2493C58.9786 20.3929 56.3291 20.6021 54.6256 20.2698C52.6682 19.8842 51.5256 18.8094 51.5256 18.8094Z" fill="#1C4C27"/>
<path d="M53.0942 12.3001C53.0942 12.3001 52.7871 11.3073 53.7084 9.87565C54.5766 8.53011 57.0254 7.12713 58.8477 8.64087C60.67 10.1546 60.7806 11.574 60.5554 12.415C60.3302 13.2559 58.3727 14.3923 56.7634 14.183C54.7322 13.9164 53.516 12.8662 53.0942 12.3042V12.3001Z" fill="#43530D"/>
<path d="M57.0542 8.50077C57.0542 8.50077 54.028 8.41462 54.028 12.0205C54.028 13.124 56.0714 14.1701 57.7504 13.9855C59.0526 13.8419 60.0395 12.9846 60.3057 12.2461C60.9158 10.5642 58.6513 8.29156 57.0583 8.50077H57.0542Z" fill="#D3CC75"/>
<path d="M59.5932 11.0932C59.5932 11.2983 59.5686 11.4993 59.5113 11.688C59.2451 12.6808 58.3196 13.411 57.2139 13.411C56.354 13.411 55.6005 12.9679 55.1828 12.2992C54.9617 11.9464 54.8347 11.5403 54.8347 11.0932C54.8347 10.646 54.974 10.203 55.2074 9.84198C55.6292 9.20203 56.3745 8.77539 57.2139 8.77539C58.0534 8.77539 58.8479 9.23074 59.2615 9.91992C59.4744 10.2686 59.5932 10.6665 59.5932 11.0973V11.0932Z" fill="#B3A812"/>
<path d="M59.2614 9.91582C58.3072 10.8429 56.7757 10.724 56.0468 10.5394C55.6823 10.4491 55.4038 10.1497 55.2073 9.84198C55.6291 9.20203 56.3744 8.77539 57.2139 8.77539C58.0533 8.77539 58.8478 9.23074 59.2614 9.91992V9.91582Z" fill="#5F7829"/>
<path d="M59.5112 11.6842C59.245 12.677 58.3196 13.4072 57.2139 13.4072C56.3539 13.4072 55.6004 12.9641 55.1827 12.2955C55.3916 11.9181 55.8093 11.3191 56.3457 11.3232C57.0173 11.3314 58.8355 11.2166 59.5112 11.6842Z" fill="#5F7829"/>
<path d="M57.2958 12.3452C58.1394 12.3452 58.8232 11.7024 58.8232 10.9094C58.8232 10.1165 58.1394 9.47363 57.2958 9.47363C56.4522 9.47363 55.7683 10.1165 55.7683 10.9094C55.7683 11.7024 56.4522 12.3452 57.2958 12.3452Z" fill="black"/>
<path d="M56.5628 10.2851C56.8455 10.2851 57.0747 10.0886 57.0747 9.84617C57.0747 9.60375 56.8455 9.40723 56.5628 9.40723C56.2801 9.40723 56.0509 9.60375 56.0509 9.84617C56.0509 10.0886 56.2801 10.2851 56.5628 10.2851Z" fill="white"/>
<path d="M67.4923 14.8925C67.4923 14.8925 67.7626 14.3674 68.6144 14.8105C69.2286 15.1305 69.1344 15.3684 68.8683 15.4299C68.6021 15.4915 68.4546 15.2289 68.0943 15.0935C67.7339 14.9582 67.4923 14.8925 67.4923 14.8925Z" fill="#00360C"/>
<path d="M42.8851 21.1985C41.3986 20.9401 40.0144 22.38 39.9653 23.303C39.9162 24.226 37.6598 24.3286 38.8883 24.8413C40.1168 25.3541 41.5542 24.6362 41.3986 23.9183C41.243 23.2004 40.6819 22.4005 42.0128 21.9533C43.3437 21.5062 42.8851 21.1985 42.8851 21.1985Z" fill="#629C5D"/>
<path d="M36.161 26.6574C35.7065 26.6205 34.4698 28.3968 34.6213 29.0614C34.7728 29.7259 34.9161 30.3249 35.383 30.6941C35.8498 31.0633 37.4878 31.1125 36.8736 30.1895C36.2593 29.2665 35.899 29.1639 35.8498 28.7004C35.8007 28.2368 36.3126 27.8799 36.5173 27.6215C36.7221 27.363 37.4428 26.7641 36.161 26.6533V26.6574Z" fill="#629C5D"/>
<path d="M39.3593 34.0296C39.9367 32.9507 40.6697 34.5506 41.7303 34.8295C42.6681 35.0757 43.4871 34.928 43.5895 35.248C43.655 35.4449 43.2782 35.9248 42.8605 35.9043C42.3568 35.8797 41.7467 35.3218 41.1693 35.248C40.5919 35.1741 39.9981 35.408 39.736 35.248C38.9948 34.8008 39.3634 34.0296 39.3634 34.0296H39.3593Z" fill="#629C5D"/>
<path d="M38.9376 44.9789C38.8844 45.4261 38.5609 45.7912 37.75 45.9676C37.144 46.1029 36.5297 45.7994 36.0424 45.4302C35.2766 44.8558 34.3511 44.5318 33.397 44.5564C31.8859 44.5851 29.7565 44.5277 28.7982 44.0026C27.8646 43.4816 17.9504 43.7236 10.264 40.7331C9.16653 40.3105 8.11819 39.8142 7.14356 39.248C4.66196 37.7876 2.68405 35.8308 1.76675 33.1767C1.71761 33.0577 1.67666 32.9346 1.6439 32.8116C1.30401 31.6917 1.14021 30.4528 1.20573 29.0785C1.28763 27.2612 1.69304 25.8911 2.34006 24.886C2.36054 24.845 2.38511 24.804 2.42196 24.7629C3.52763 23.1097 5.30898 22.4739 7.3647 22.4739C7.38108 22.4739 7.39336 22.4698 7.40565 22.4739C10.5302 22.4903 14.269 23.9671 17.2133 25.5506C17.2133 25.5506 17.2174 25.5533 17.2256 25.5588C17.2829 25.5916 17.3362 25.6162 17.3935 25.649C19.3878 26.7361 21.0013 27.8478 21.767 28.578C21.7875 28.5944 21.808 28.6191 21.8285 28.6437C21.939 28.7462 22.0332 28.8447 22.1028 28.9349V28.9431C22.1847 29.0416 22.2339 29.1195 22.2461 29.1852C22.4059 29.9154 22.8113 29.0785 22.7212 27.6017C22.672 26.7771 22.4632 25.7557 21.9759 24.6891C21.8366 24.3896 21.6769 24.0984 21.4968 23.7989C21.247 23.3928 20.9521 22.9949 20.6122 22.6133C20.1618 22.1006 19.6212 21.6042 18.9783 21.1406C19.3428 21.2145 32.4101 24.0368 29.2487 34.5632C28.831 35.9621 28.0898 37.1928 27.1357 38.1773C27.1357 38.1773 28.9416 38.1035 30.854 37.8122C29.2856 38.5958 27.8318 39.2932 27.3936 39.3588C26.4682 39.4737 25.555 40.9669 26.935 41.8038C28.3109 42.6283 29.2405 43.4077 30.4404 43.4077C31.6402 43.4077 33.3151 43.4529 33.5485 43.3995C34.0809 43.2847 35.7844 43.2478 36.0506 43.9164C36.456 44.9297 37.8319 45.0856 38.4994 45.1881C38.6673 45.2168 38.8066 45.0528 38.9376 44.9789Z" fill="#388525"/>
<path d="M40.6166 39.7692C40.4774 40.241 39.2694 39.6831 38.4217 39.4575C37.9917 39.3385 35.764 38.7683 34.7689 38.8503C34.0072 38.8995 32.7541 39.4493 32.1358 39.7569C32.0047 39.8144 31.8983 39.8718 31.8368 39.9046C31.8 39.9128 31.7672 39.921 31.7304 39.921C31.1898 39.9784 30.9236 39.8144 30.8909 39.7815C30.8909 39.7815 33.524 37.8576 35.2234 37.9888C36.4724 38.0873 40.1088 39.8513 40.6166 39.7692Z" fill="#388525"/>
<path d="M41.4233 42.4761C41.0629 42.3366 39.9941 42.9889 38.4625 41.4464C37.2545 40.224 33.3806 41.1675 31.9473 41.1183C30.5222 41.0649 28.8678 43.0094 32.5533 42.4515C32.9751 42.3941 33.3642 42.353 33.7204 42.3448C33.7286 42.3366 33.7409 42.3366 33.7491 42.3448C34.8384 42.4597 36.3372 42.8371 36.673 43.3704C37.0333 43.9652 39.0235 44.3837 38.9375 44.9785C38.8065 45.0523 38.6673 45.2164 38.4994 45.1877C37.8319 45.0852 36.4559 44.9293 36.0505 43.916C35.7843 43.2473 34.0808 43.2843 33.5485 43.3991C33.315 43.4524 31.6401 43.4073 30.4403 43.4073C29.2404 43.4073 28.3109 42.6279 26.9349 41.8033C25.5549 40.9665 26.4681 39.4732 27.3936 39.3584C27.8317 39.2927 29.2855 38.5954 30.8539 37.8118C30.9563 37.7954 31.0587 37.7831 31.1651 37.7667C32.7581 37.537 34.7933 37.2826 35.6615 37.1391C37.234 36.8806 38.9662 37.5903 39.9286 38.3738C40.4159 38.7718 40.7025 39.1902 40.6698 39.5102C40.6698 39.5389 40.6698 39.5676 40.6575 39.5963C40.6452 39.6496 40.6247 39.7071 40.6124 39.7563V39.7645C40.1046 39.8466 36.4682 38.0826 35.2192 37.9841C33.5198 37.8528 30.8867 39.7768 30.8867 39.7768C30.9194 39.8096 31.1856 39.9737 31.7261 39.9163C31.763 39.9163 31.7958 39.9081 31.8326 39.8999C31.8121 39.9081 31.7917 39.9163 31.7753 39.9245C32.0906 39.8671 35.2684 39.2271 37.2053 39.5676C37.4101 39.6086 37.6026 39.6537 37.7705 39.7112C37.9506 39.7768 38.1022 39.8507 38.2291 39.9327C38.2619 39.9573 38.3069 39.9778 38.352 40.0065C39.0686 40.4127 41.1243 41.2003 41.3373 41.8238C41.4069 42.0495 41.4355 42.2751 41.4192 42.472L41.4233 42.4761Z" fill="#4A9438"/>
<path d="M41.4232 42.4765C41.4232 42.5627 41.4068 42.6447 41.3864 42.7186C41.2758 43.1411 40.9441 43.4077 40.4363 43.3667C39.6091 43.297 38.2209 42.3617 37.6967 42.1606C36.9555 41.8735 31.9554 42.2386 31.9554 42.2386C31.9554 42.2386 32.7745 42.2386 33.7204 42.3453C33.3641 42.3535 32.9751 42.3945 32.5533 42.4519C28.8678 43.0098 30.5222 41.0653 31.9473 41.1187C33.3805 41.1679 37.2545 40.2244 38.4625 41.4469C39.994 42.9893 41.0629 42.337 41.4232 42.4765Z" fill="#388525"/>
<path d="M5.53828 32.5408C6.38865 32.5408 7.07802 31.8098 7.07802 30.9081C7.07802 30.0064 6.38865 29.2754 5.53828 29.2754C4.6879 29.2754 3.99854 30.0064 3.99854 30.9081C3.99854 31.8098 4.6879 32.5408 5.53828 32.5408Z" fill="#629C5D"/>
<path d="M5.74719 30.8096C9.59655 37.7424 17.5778 39.8633 24.2528 39.0305C25.2356 38.8787 26.2184 38.6244 27.1398 38.169C20.4935 41.7544 9.16247 38.8459 5.74719 30.8096Z" fill="#005E09"/>
<path d="M22.328 29.5128C22.1192 28.8359 21.6073 28.3764 21.1405 27.9457C19.6539 26.7027 17.9504 25.8699 16.2509 25.1151C12.9012 23.626 9.22792 22.3707 5.64474 23.2937C1.40226 24.3316 0.464494 28.8441 1.77491 33.1761C0.100033 28.7785 1.05828 23.8106 5.45227 22.6948C9.12554 21.661 13.0159 23.0845 16.3902 24.7049C18.0855 25.5418 19.7932 26.4484 21.2224 27.8267C21.6769 28.2944 22.1724 28.8113 22.3321 29.5128H22.328Z" fill="#005E09"/>
<path d="M18.7038 33.9886C19.8391 33.9886 20.7595 33.0996 20.7595 32.0031C20.7595 30.9065 19.8391 30.0176 18.7038 30.0176C17.5685 30.0176 16.6481 30.9065 16.6481 32.0031C16.6481 33.0996 17.5685 33.9886 18.7038 33.9886Z" fill="#629C5D"/>
<path d="M14.1501 33.1597C14.6002 33.1597 14.965 32.796 14.965 32.3474C14.965 31.8988 14.6002 31.5352 14.1501 31.5352C13.7001 31.5352 13.3352 31.8988 13.3352 32.3474C13.3352 32.796 13.7001 33.1597 14.1501 33.1597Z" fill="#629C5D"/>
<path d="M20.1699 23.1796C20.3337 22.2936 21.681 22.2484 22.7457 23.1796C23.8104 24.1109 24.5925 24.2544 23.4992 25.0421C22.4058 25.8297 22.7907 26.1825 23.1429 26.5968C23.4951 27.0112 24.1626 27.2163 23.6752 27.4788C23.1879 27.7414 22.2747 27.6716 22.0331 27.167C21.7956 26.6666 20.6777 25.8789 21.7383 24.9641C22.3075 24.4719 21.9922 23.9427 21.4967 23.7909C20.2272 23.3889 20.0061 24.0657 20.1699 23.1796Z" fill="#629C5D"/>
<path d="M27.0046 27.6302C27.0046 27.6302 27.9506 27.421 28.2168 28.906C28.483 30.3911 29.519 30.8382 28.3642 31.5643C27.2094 32.2904 27.3282 32.1181 27.0046 32.8401C26.6811 33.5621 26.6197 34.2554 26.116 33.5662C25.6123 32.877 25.8498 31.8761 26.3822 31.392C26.9146 30.9079 28.0694 30.5305 27.7418 29.8742C27.4142 29.2178 26.2921 28.705 27.0006 27.6302H27.0046Z" fill="#629C5D"/>
<path d="M10.5792 39.7288C10.5792 40.1021 10.4687 40.4426 10.268 40.7257C9.17054 40.3031 8.11811 39.8109 7.14758 39.2406C7.35643 38.5022 8.03212 37.9648 8.83065 37.9648C9.79709 37.9648 10.5833 38.7525 10.5833 39.7247L10.5792 39.7288Z" fill="#629C5D"/>
<path d="M19.1994 41.1433C19.473 41.1433 19.6949 40.9431 19.6949 40.6962C19.6949 40.4492 19.473 40.249 19.1994 40.249C18.9257 40.249 18.7039 40.4492 18.7039 40.6962C18.7039 40.9431 18.9257 41.1433 19.1994 41.1433Z" fill="#629C5D"/>
<path d="M3.45794 26.9088C3.45794 26.9088 4.21143 22.1255 9.76023 24.0946C15.309 26.0637 16.7055 25.5632 16.6522 27.8072C16.599 30.0511 10.4114 28.4307 8.86751 26.9088C7.32368 25.3868 5.28024 27.0031 4.52675 27.6185C3.77326 28.2338 3.12214 27.9426 3.46203 26.9088H3.45794Z" fill="#52934E"/>
<path d="M58.7043 38.4274C58.5364 38.1361 58.3603 37.328 55.7313 36.9259C53.0941 36.5198 51.5789 37.849 51.5789 37.849C53.0941 37.4428 56.1367 38.333 56.9967 39.5637C57.5372 40.3349 57.0499 40.9216 56.5216 41.1021C56.1858 40.6016 56.022 39.9206 55.3709 39.3463C54.3717 38.4643 49.4699 38.0213 48.225 36.6757C47.2627 35.6378 47.1767 34.3292 47.9425 33.7426C49.257 33.9764 50.6329 34.0092 51.3864 33.8287C52.832 33.4841 54.7116 31.712 55.7681 33.1354C56.8288 34.5589 54.945 34.7764 53.9254 34.6984C53.3275 34.6492 51.4315 35.2071 50.9032 35.4943C50.5224 35.7035 50.8418 35.7773 52.8484 35.4081C57.6519 34.522 60.3423 36.4091 60.4938 37.6028C60.6495 38.7966 58.8804 38.7186 58.7043 38.4274Z" fill="#4A9438"/>
<path d="M65.846 33.1356C66.6354 33.1356 67.2752 32.5369 67.2752 31.7983C67.2752 31.0597 66.6354 30.4609 65.846 30.4609C65.0567 30.4609 64.4169 31.0597 64.4169 31.7983C64.4169 32.5369 65.0567 33.1356 65.846 33.1356Z" fill="#24752C"/>
<path d="M67.4677 29.451C68.2571 29.451 68.8969 28.8523 68.8969 28.1137C68.8969 27.3751 68.2571 26.7764 67.4677 26.7764C66.6784 26.7764 66.0386 27.3751 66.0386 28.1137C66.0386 28.8523 66.6784 29.451 67.4677 29.451Z" fill="#24752C"/>
<path d="M65.3752 26.4686C66.1645 26.4686 66.8044 25.8699 66.8044 25.1313C66.8044 24.3927 66.1645 23.7939 65.3752 23.7939C64.5859 23.7939 63.946 24.3927 63.946 25.1313C63.946 25.8699 64.5859 26.4686 65.3752 26.4686Z" fill="#24752C"/>
<path d="M14.9894 16.9994C15.5556 16.7004 15.7931 16.0372 15.5199 15.5181C15.2467 14.999 14.5663 14.8207 14.0001 15.1197C13.4339 15.4187 13.1964 16.0819 13.4696 16.601C13.7428 17.1201 14.4233 17.2984 14.9894 16.9994Z" fill="#6EA46B"/>
<path opacity="0.51" d="M53.7697 17.8831C54.6653 17.8831 55.3914 17.2458 55.3914 16.4596C55.3914 15.6734 54.6653 15.0361 53.7697 15.0361C52.8741 15.0361 52.1481 15.6734 52.1481 16.4596C52.1481 17.2458 52.8741 17.8831 53.7697 17.8831Z" fill="#6EA46B"/>
<path opacity="0.51" d="M64.5357 14.0067C65.0265 14.0067 65.4243 13.6871 65.4243 13.2929C65.4243 12.8987 65.0265 12.5791 64.5357 12.5791C64.0449 12.5791 63.6471 12.8987 63.6471 13.2929C63.6471 13.6871 64.0449 14.0067 64.5357 14.0067Z" fill="#6EA46B"/>
<path d="M59.9902 39.0835C60.9333 39.0835 61.6979 38.4315 61.6979 37.6272C61.6979 36.8229 60.9333 36.1709 59.9902 36.1709C59.0471 36.1709 58.2826 36.8229 58.2826 37.6272C58.2826 38.4315 59.0471 39.0835 59.9902 39.0835Z" fill="#4A9438"/>
<path d="M55.1621 34.8745C55.9311 34.8745 56.5544 34.25 56.5544 33.4797C56.5544 32.7094 55.9311 32.085 55.1621 32.085C54.3931 32.085 53.7698 32.7094 53.7698 33.4797C53.7698 34.25 54.3931 34.8745 55.1621 34.8745Z" fill="#4A9438"/>
<path d="M56.6978 41.9108C57.5255 41.9108 58.1966 41.2625 58.1966 40.4627C58.1966 39.663 57.5255 39.0146 56.6978 39.0146C55.87 39.0146 55.199 39.663 55.199 40.4627C55.199 41.2625 55.87 41.9108 56.6978 41.9108Z" fill="#4A9438"/>
</svg>
