<svg width="73" height="160" viewBox="0 0 73 160" fill="none" xmlns="http://www.w3.org/2000/svg">
<path d="M20.7742 67.847C19.8172 67.9519 18.9258 68.0305 18.0736 68.083C0.375531 69.2235 1.73894 60.7809 0.939249 51.7745C-0.45038 36.2657 3.40387 21.3731 3.40387 21.3731C9.94562 18.9871 20.3023 25.2536 29.3611 33.2767C38.7083 41.5751 46.6659 51.7614 47.5574 56.2449C49.3141 65.0677 36.4403 66.1558 20.7611 67.8339L20.7742 67.847Z" fill="#E09200"/>
<path d="M20.7741 67.8477C19.8171 67.9526 18.9256 68.0312 18.0735 68.0837C13.9964 66.1959 12.6068 65.3044 9.80128 60.2179C4.49185 50.556 7.24489 34.9555 7.24489 34.9555L29.3741 33.2905C38.7213 41.589 46.6789 51.7752 47.5703 56.2587C49.327 65.0816 36.4533 66.1697 20.7741 67.8477Z" fill="#C88200"/>
<path d="M15.8187 72.7642C15.8187 72.7642 12.1873 76.1989 13.9833 79.3977C15.7794 82.5964 22.544 75.8974 22.544 75.8974L15.8318 72.7642H15.8187Z" fill="#F0B96E"/>
<path d="M72.0988 98.9564C72.0988 98.9564 72.0726 99.0351 72.0464 99.0744C71.522 99.6906 68.1004 98.0388 67.9299 98.5107C67.7726 98.9433 71.2336 100.307 70.8927 100.962C70.8272 101.093 70.7092 101.146 70.5519 101.172C69.6473 101.264 67.4187 99.7299 67.1303 99.861C66.7894 100.005 68.5854 102.352 67.7071 102.614C67.6677 102.614 67.6415 102.627 67.6153 102.627C66.8287 102.719 66.7894 100.962 65.9635 100.569C65.0982 100.163 62.6467 99.1138 62.1748 97.593C62.1748 97.593 51.1102 91.1562 46.2334 84.8373C44.5029 82.5955 42.0121 79.1739 40.1505 76.1587C38.9051 74.1267 37.9481 72.2782 37.7383 71.1114C37.2139 68.2011 40.0456 66.3002 43.3886 69.2105C43.3886 69.2105 46.666 75.7654 50.2843 81.1928C53.7452 86.3973 58.019 90.9333 62.922 95.1808C62.922 95.1808 64.4165 94.3287 65.3736 93.7912C65.4522 93.7388 66.8418 92.1132 67.4056 92.3622C67.9562 92.6244 66.4223 94.7089 66.3961 95.0629C66.3699 95.4037 67.5235 95.5479 67.7857 95.561C68.0479 95.5741 71.0763 94.8662 71.2991 95.6659C71.522 96.4656 68.3495 96.5836 68.2184 96.7147C68.0873 96.8589 72.2955 98.0388 72.0857 98.9433L72.0988 98.9564Z" fill="#F7C888"/>
<g style="mix-blend-mode:multiply" opacity="0.15">
<path d="M67.9167 98.5111C67.7594 98.9437 71.2203 100.307 70.8795 100.963C70.8139 101.094 70.6959 101.146 70.5386 101.172C69.634 101.264 67.4054 99.7303 67.117 99.8614C66.7761 100.006 68.5722 102.352 67.6938 102.614C67.6545 102.614 67.6283 102.628 67.602 102.628C66.8155 102.719 66.7761 100.963 65.9502 100.569C65.085 100.163 62.6335 99.1141 62.1615 97.5934C62.1615 97.5934 51.0969 91.1565 46.2201 84.8376C44.4896 82.5959 41.9988 79.1743 40.1372 76.159C41.8808 74.2319 44.0963 72.567 45.7219 74.0615C45.7219 74.0615 46.2857 82.1895 49.196 85.6767C52.1064 89.1638 61.3618 97.069 62.9612 97.1083C64.5606 97.1608 65.6749 96.715 65.9633 96.3742C66.2517 96.0333 69.0834 97.6852 70.2502 98.1964C70.8139 98.4455 71.5481 99.0355 72.02 99.0617C71.4956 99.6778 68.074 98.026 67.9036 98.498L67.9167 98.5111Z" fill="#F79B74"/>
</g>
<path d="M30.9868 159.498C28.863 159.511 26.4246 158.711 24.7072 157.859C24.0255 157.532 23.4487 157.178 23.0554 156.876C21.0889 155.355 23.6322 151.055 23.6322 151.055C23.6322 151.055 22.1115 140.607 22.1246 137.893C22.1246 137.683 22.1377 137.474 22.1508 137.251V137.212C22.1639 136.897 22.2033 136.582 22.2295 136.241C22.5179 133.606 23.252 130.421 23.252 130.421L22.5179 119.527L30.8163 118.779C30.8163 118.779 30.6459 123.84 30.3051 128.533C30.1346 130.893 29.9249 133.174 29.6627 134.655C28.8892 139.086 28.3386 150.937 28.3386 150.937C28.1944 151.803 32.3633 156.208 32.5599 156.601C33.5956 158.593 32.1535 159.485 30.9868 159.498Z" fill="#FFD7A3"/>
<g style="mix-blend-mode:multiply" opacity="0.15">
<path d="M24.7072 157.859C24.0255 157.532 23.4487 157.178 23.0554 156.876C21.0889 155.355 23.6322 151.055 23.6322 151.055C23.6322 151.055 22.1115 140.607 22.1246 137.893C22.1246 137.683 22.1377 137.474 22.1508 137.251V137.212C22.2557 136.53 22.295 136.163 22.2295 136.241C22.5179 133.606 23.252 130.421 23.252 130.421L22.5179 119.527L30.8163 118.779C30.8163 118.779 30.6459 123.84 30.3051 128.533C29.1776 128.664 27.0801 129.673 26.241 130.683C23.0685 134.485 25.4676 151.318 25.4676 151.318C25.4676 151.318 24.1435 155.722 30.8163 159.288C31.3145 159.55 25.992 157.82 24.7072 157.859Z" fill="#F79B74"/>
</g>
<path d="M31.8913 155.775C31.8913 155.775 30.423 155.722 29.2169 156.692C28.8105 156.994 28.4303 157.44 28.1419 158.03L25.4675 156.627C25.4675 156.627 26.5556 154.857 27.9453 153.939C28.5745 153.533 29.2562 153.297 29.9248 153.481C29.9642 153.481 30.3312 153.507 31.0785 154.438C32.0355 155.631 31.8913 155.775 31.8913 155.775Z" fill="#CC5EE4"/>
<path d="M31.4717 159.93C30.2394 160.179 27.2766 159.812 24.4056 157.99C23.2257 157.243 21.9279 157.02 21.9279 156.05C21.9279 154.201 22.5833 153.441 22.5833 153.441C22.5833 153.441 22.4522 153.808 22.6751 154.516C22.9766 155.486 24.2483 156.207 25.4675 156.613L28.1287 158.016C28.1287 158.016 29.112 158.96 30.8031 159.065C32.4156 159.157 32.7565 158.514 32.7565 158.514C32.7565 158.514 33.3464 159.537 31.4717 159.917V159.93Z" fill="#461863"/>
<g style="mix-blend-mode:screen" opacity="0.56">
<path d="M31.8913 155.775C31.8913 155.775 30.4231 155.722 29.217 156.692C28.1026 155.88 27.8667 154.844 27.9453 153.939C28.5746 153.533 29.2563 153.297 29.9249 153.481C29.9642 153.481 30.3313 153.507 31.0785 154.438C32.0355 155.631 31.8913 155.775 31.8913 155.775Z" fill="#B277FF"/>
</g>
<path d="M43.8736 157.636C41.8547 157.649 39.5474 156.928 37.8431 156.115C37.0434 155.748 36.388 155.355 35.9422 155.014C33.9758 153.506 36.5191 149.206 36.5191 149.206C36.5191 149.206 34.9983 138.758 35.0114 136.044C35.0114 135.546 35.0639 134.969 35.1163 134.379C35.4047 131.744 36.1389 128.572 36.1389 128.572L35.4047 117.664L43.7032 116.93C43.7032 116.93 43.5327 121.977 43.1919 126.671C43.1788 126.828 43.1657 126.985 43.1526 127.13C42.9952 129.332 42.7986 131.403 42.5495 132.793C41.776 137.224 41.2254 149.088 41.2254 149.088C41.0812 149.954 45.2501 154.345 45.4468 154.752C46.4824 156.731 45.0404 157.636 43.8736 157.636Z" fill="#FFD7A3"/>
<g style="mix-blend-mode:multiply" opacity="0.15">
<path d="M43.7294 157.557C43.4934 157.557 39.3245 156.233 37.8431 156.115C37.0434 155.748 36.388 155.355 35.9422 155.014C33.9758 153.506 36.5191 149.206 36.5191 149.206C36.5191 149.206 34.9983 138.758 35.0114 136.044C35.0114 135.546 35.0639 134.969 35.1163 134.379C35.4047 131.744 36.1389 128.572 36.1389 128.572L35.4047 117.664L43.7032 116.93C43.7032 116.93 43.5327 121.977 43.1919 126.671C43.1788 126.828 43.1657 126.985 43.1526 127.13C41.6449 127.536 39.7178 128.218 39.1279 128.926C35.9553 132.727 38.3544 149.56 38.3544 149.56C38.3544 149.56 37.0303 153.965 43.7032 157.531C43.7163 157.531 43.7163 157.544 43.7294 157.557Z" fill="#F79B74"/>
</g>
<path d="M44.7781 153.913C44.7781 153.913 43.4934 153.873 42.3397 154.66C41.8415 154.988 41.3696 155.473 41.0287 156.181L38.3544 154.765C38.3544 154.765 39.4949 152.916 40.9239 152.025C41.5269 151.645 42.1693 151.448 42.8117 151.619C42.851 151.619 43.2181 151.658 43.9653 152.589C44.9223 153.768 44.7781 153.913 44.7781 153.913Z" fill="#CC5EE4"/>
<path d="M44.3587 158.082C43.1264 158.331 40.1636 157.964 37.2926 156.141C36.1127 155.394 34.8148 155.171 34.8148 154.201C34.8148 152.353 35.4703 151.592 35.4703 151.592C35.4703 151.592 35.3392 151.959 35.5621 152.667C35.8636 153.637 37.1352 154.358 38.3544 154.765L41.0157 156.168C41.0157 156.168 41.9989 157.111 43.6901 157.216C45.3026 157.308 45.6434 156.666 45.6434 156.666C45.6434 156.666 46.2334 157.688 44.3587 158.068V158.082Z" fill="#461863"/>
<g style="mix-blend-mode:screen" opacity="0.56">
<path d="M44.7782 153.913C44.7782 153.913 43.4935 153.873 42.3398 154.66C42.1825 154.594 42.0121 154.503 41.8547 154.385C40.8715 153.69 40.7797 152.759 40.924 152.025C41.527 151.645 42.1694 151.448 42.8117 151.619C42.8511 151.619 43.2182 151.658 43.9654 152.589C44.9224 153.768 44.7782 153.913 44.7782 153.913Z" fill="#B277FF"/>
</g>
<path d="M51.936 121.532C51.936 121.532 50.8217 122.45 47.5705 123.499C45.3681 124.193 42.1955 124.941 37.7382 125.491C32.5337 126.147 24.0124 126.029 18.4932 125.098C16.7234 124.81 15.2682 124.429 14.3374 123.971C14.3374 123.971 14.888 97.9477 21.5871 89.8984L21.6526 78.7814L16.3301 74.6256L14.9536 73.5506C14.9536 73.5506 17.3657 68.7524 21.8493 66.432C23.7633 65.4357 25.756 65.1604 28.6925 64.7802C29.1383 64.7146 29.6233 64.6622 30.1084 64.5835C30.7376 64.5049 31.2883 64.4524 31.7995 64.4131C33.9102 64.2689 35.208 64.5311 36.755 64.9244H36.7681C37.2794 65.0555 37.8169 65.2128 38.4199 65.357C43.5327 66.6549 46.5611 73.2622 46.5611 73.2622L42.6544 77.0509L43.2705 89.5051C43.2705 89.5051 48.6193 96.663 51.936 121.532Z" fill="#FF668A"/>
<path d="M34.4084 67.0345C32.5075 67.6899 30.8164 66.9296 29.7151 66.1692C29.2301 65.8284 28.8499 65.5006 28.627 65.2778C28.4828 65.1335 28.4042 65.0418 28.4042 65.0418C28.4566 65.0024 28.5091 64.95 28.5484 64.9107C30.5542 63.0884 30.0036 58.3034 30.0036 58.3034C30.0036 58.3034 34.959 57.8183 35.0508 58.736C35.0508 58.7884 35.0508 58.854 35.0115 58.9195C34.6968 59.6012 34.7231 61.3317 34.8017 62.6558C34.8541 63.6128 34.9328 64.3601 34.9328 64.3601C34.9328 64.3601 37.699 65.8939 34.3822 67.0213L34.4084 67.0345Z" fill="#F7C888"/>
<g style="mix-blend-mode:multiply" opacity="0.15">
<path d="M35.0376 58.9331C34.7229 59.6148 34.7491 61.3452 34.8278 62.6693C34.133 62.8004 33.4382 62.9315 32.9924 63.0364C32.8613 63.0626 32.4287 63.5739 31.7995 64.426C30.2525 66.4842 27.565 70.5351 25.533 74.3501C23.9205 77.3915 23.3568 90.7503 23.3568 90.7503C23.3568 90.7503 20.4071 98.0655 19.5288 107.858C18.9126 114.807 18.7946 120.798 18.4931 125.111C16.7233 124.822 15.2681 124.442 14.3242 123.983C14.3242 123.983 14.8879 97.9606 21.5739 89.9113L21.6525 78.7943L16.33 74.6385C18.6111 72.7638 28.5482 65.0422 28.5482 64.9242C28.5876 64.8849 28.64 64.8324 28.6793 64.7931C30.5278 62.8791 30.0034 58.3169 30.0034 58.3169L35.0507 58.7495C35.0507 58.7495 35.0507 58.8675 35.0113 58.9331H35.0376Z" fill="#9463D4"/>
</g>
<path d="M33.9101 61.7384C28.6138 62.0792 23.6321 61.1353 19.5812 58.6445C15.1764 55.9439 11.8596 51.421 10.4175 44.8006C10.1947 43.7518 10.0111 42.6506 9.88004 41.4839C9.84071 41.2086 9.81449 40.9202 9.78828 40.6317C9.60474 38.5866 9.49986 36.6333 9.47364 34.7979C9.46053 34.5226 9.46053 34.2473 9.46053 33.972C9.44742 29.6589 9.8276 25.9227 10.5749 22.6977C13.2099 11.1742 20.276 6.23188 28.876 5.4453C43.4016 4.13433 48.4488 11.3053 50.3235 19.2105C51.0314 22.2126 51.2805 25.3065 51.4247 28.0989C51.5689 30.9961 51.5951 33.5525 51.8704 35.3092C52.4079 38.6915 60.7588 59.9817 33.9101 61.7384Z" fill="#FFD7A3"/>
<path d="M27.0537 39.518C26.9882 39.6097 26.8964 39.7015 26.7915 39.7801C25.7559 40.5405 24.3925 40.3832 23.8156 40.0423C23.2519 39.7015 22.4916 38.8494 23.1602 36.4503C23.2781 36.0308 23.4355 35.703 23.6059 35.4539C23.9861 34.9165 24.4842 34.7067 24.9693 34.6805C25.5723 34.628 26.1492 34.8116 26.5162 35.336C26.5556 35.4015 26.5949 35.4539 26.6342 35.5195C26.6473 35.5457 26.6604 35.5588 26.6736 35.585C27.3159 36.6994 27.801 38.5872 27.0668 39.5311L27.0537 39.518Z" fill="white"/>
<path d="M27.0539 39.5179C26.8179 39.6621 26.5557 39.7538 26.2673 39.7801C25.1792 39.8718 24.2222 38.9804 24.1173 37.8005C24.0124 36.6206 24.799 35.5718 25.8871 35.467C26.1624 35.4407 26.4246 35.4801 26.6737 35.5718C27.3161 36.6862 27.8011 38.574 27.067 39.5179H27.0539Z" fill="#4F3C00"/>
<path d="M25.1993 37.1686C25.394 37.1511 25.5336 36.9324 25.5109 36.68C25.4883 36.4276 25.3122 36.2371 25.1174 36.2545C24.9227 36.272 24.7832 36.4907 24.8058 36.7431C24.8285 36.9955 25.0046 37.186 25.1993 37.1686Z" fill="white"/>
<path d="M26.6342 35.5059C26.6342 35.5059 25.0348 33.9721 23.619 35.4404H23.5928C22.5309 35.4666 22.5833 34.6145 22.5833 34.6145C23.986 35.2044 23.5928 34.1949 25.1135 34.1556C26.6342 34.1163 26.6473 35.4928 26.6473 35.4928L26.6342 35.5059Z" fill="#4F0000"/>
<path d="M49.5107 37.2883C49.3927 37.4981 49.2616 37.6554 49.1305 37.7734C48.6324 38.206 47.3083 38.5993 46.1546 38.0356C44.9223 37.4325 45.0534 35.1252 45.5647 33.8012C45.5909 33.7356 45.6171 33.6701 45.6434 33.6045C45.9056 33.0146 46.4431 32.7393 47.0461 32.6868C47.5312 32.6344 48.0555 32.7524 48.5275 33.2112C48.6324 33.3161 48.7373 33.4472 48.8421 33.5914C48.947 33.7356 49.0519 33.9191 49.1437 34.1158C49.9302 35.7545 49.8254 36.7246 49.5238 37.2883H49.5107Z" fill="white"/>
<path d="M49.5107 37.2886C49.2092 37.5639 48.8421 37.7606 48.4095 37.7868C47.3214 37.8785 46.3644 36.9871 46.2595 35.8072C46.1546 34.6273 46.9412 33.5786 48.0293 33.4737C48.3046 33.4475 48.5799 33.4868 48.829 33.5917C48.9339 33.7359 49.0388 33.9194 49.1305 34.1161C49.9171 35.7548 49.8122 36.7249 49.5107 37.2886Z" fill="#4F3C00"/>
<path d="M47.429 35.1788C47.6237 35.1614 47.7632 34.9426 47.7406 34.6902C47.7179 34.4378 47.5418 34.2474 47.3471 34.2648C47.1523 34.2822 47.0128 34.501 47.0355 34.7534C47.0581 35.0058 47.2342 35.1963 47.429 35.1788Z" fill="white"/>
<path d="M45.5516 33.8143C45.5778 33.7487 46.8494 32.0314 48.5144 33.2112H48.5406C49.5893 33.0408 49.3927 32.2149 49.3927 32.2149C48.1211 33.0539 48.3308 31.9789 46.8232 32.2149C45.3287 32.4509 45.5516 33.8012 45.5516 33.8012V33.8143Z" fill="#4F0000"/>
<path d="M37.7906 41.0515C37.7906 41.0515 38.7345 39.9109 40.1766 40.6057C41.6187 41.3006 41.1336 42.5984 41.1336 42.5984C41.1336 42.5984 40.6486 41.4448 39.9538 41.0253C38.9705 40.4091 37.7906 41.0646 37.7906 41.0646V41.0515Z" fill="#E89961"/>
<path d="M21.1938 31.5204C21.1938 31.5204 22.2033 29.6195 24.2746 29.2917C26.346 28.964 26.7261 30.3536 26.7261 30.3536C26.7261 30.3536 25.271 29.9472 24.2353 30.1439C23.1996 30.3405 21.1938 31.5204 21.1938 31.5204Z" fill="#AB7147"/>
<path d="M50.1926 28.9118C50.1926 28.9118 48.8685 27.2206 46.7578 27.26C44.6472 27.2993 44.5292 28.7413 44.5292 28.7413C44.5292 28.7413 45.8795 28.0859 46.9414 28.099C48.0032 28.1121 50.1795 28.9118 50.1795 28.9118H50.1926Z" fill="#AB7147"/>
<path opacity="0.35" d="M39.0494 52.2338C39.0494 52.2338 38.7872 53.2039 36.9649 53.2301C35.1427 53.2564 34.8542 52.3387 34.8542 52.3387C34.8542 52.3387 36.021 52.5616 36.9387 52.5091C37.8564 52.4567 39.0494 52.2207 39.0494 52.2207V52.2338Z" fill="#E8AE84"/>
<path d="M31.4456 49.3237C31.4456 49.3237 34.7099 50.7134 37.0303 50.556C39.3508 50.3987 41.5794 49.35 41.5794 49.35C41.5794 49.35 40.6617 51.0935 37.0172 51.1853C33.3727 51.2771 31.4325 49.3237 31.4325 49.3237H31.4456Z" fill="#E86161"/>
<path d="M48.6716 12.5379C48.3308 11.8562 46.1546 9.07692 33.176 7.87083C18.362 6.49431 15.8187 23.2223 14.5733 25.5165C13.3148 27.8238 13.826 38.4296 12.8297 37.8134C11.8202 37.1841 11.3483 34.9293 11.3483 34.9293C8.22819 32.5564 6.77301 34.9817 6.77301 34.9817C4.45259 32.7399 -0.987937 22.3439 8.85745 9.19491C12.03 4.94737 16.0678 2.45652 20.2498 1.15866H20.2629C21.5214 0.765372 22.7931 0.476958 24.0647 0.293422H24.0778C31.6159 -0.807793 38.9573 1.38153 42.0774 3.68884C45.9841 6.55986 48.2783 11.6202 48.6716 12.5379Z" fill="#E09200"/>
<g style="mix-blend-mode:multiply" opacity="0.16">
<path d="M51.4247 28.0987C50.0875 26.9188 48.0555 25.2014 47.2951 24.9654C46.1284 24.5984 45.2894 25.634 42.1693 25.752C39.0491 25.8831 33.2153 26.3813 30.9211 26.6435C28.64 26.8926 25.2184 27.6791 21.1937 27.5874C17.1822 27.4956 18.3489 36.2136 18.0998 37.0919C17.8508 37.9703 13.3672 31.5072 13.695 44.04C13.7867 47.4617 16.3825 54.5016 19.5812 58.6443C15.1764 55.9437 11.8596 51.4208 10.4176 44.8004C10.1291 44.7873 9.84073 44.7349 9.5392 44.5775C7.57275 43.5288 5.26544 40.3562 6.14379 36.5937C6.77305 33.9325 8.24134 33.6572 9.46054 33.9718C9.05414 30.3666 8.11024 29.6456 10.0898 23.0121C14.0883 9.62708 25.769 4.27832 25.769 4.27832C25.769 4.27832 42.2741 12.5899 50.3235 19.2234C51.0314 22.2255 51.2805 25.3194 51.4247 28.1118V28.0987Z" fill="#F79B74"/>
</g>
<path d="M11.8858 44.3683C11.8858 44.3683 11.2435 44.8271 10.4176 44.8009C10.1291 44.7878 9.84073 44.7354 9.5392 44.5781C7.57275 43.5293 5.26544 40.3567 6.14379 36.5942C6.77305 33.933 8.24134 33.6577 9.46054 33.9723C10.4962 34.2345 11.3483 34.9293 11.3483 34.9293L11.8858 44.3683Z" fill="#FFD7A3"/>
<path d="M11.2434 35.7553C11.2434 35.7553 8.25438 32.8843 7.03518 37.0401C6.23548 39.78 8.38548 40.5797 9.97175 41.5498C11.322 42.3757 11.8071 43.5425 11.8071 43.5425C11.8071 43.5425 9.82754 39.1114 10.1684 38.2724C10.5092 37.4334 11.3483 37.3547 11.3483 37.3547L11.2565 35.7553H11.2434Z" fill="#FFC67D"/>
<g style="mix-blend-mode:multiply" opacity="0.15">
<path d="M27.5388 2.66631C25.7166 0.568761 20.6038 1.11937 20.2629 1.1587C21.5215 0.765406 22.7931 0.476993 24.0648 0.293457H24.0779C28.155 1.65687 27.5388 2.66631 27.5388 2.66631Z" fill="#F76E34"/>
</g>
<path d="M15.5826 74.6512C20.9183 70.6265 25.4936 65.776 29.7018 60.283C29.7018 60.283 28.6923 58.736 28.0631 57.7528C28.0106 57.661 26.1753 56.2845 26.4113 55.6815C26.6472 55.0784 28.9808 56.5729 29.3478 56.586C29.7149 56.5992 29.7936 55.3537 29.7936 55.0784C29.7936 54.8031 28.8497 51.6044 29.6887 51.3291C30.5277 51.0538 30.8554 54.4098 31.0128 54.5409C31.1701 54.672 32.1664 50.0967 33.1496 50.2803C34.1329 50.4638 32.4024 54.5934 32.9399 54.7638C33.3987 54.908 34.6441 51.1324 35.3783 51.447C36.3353 51.8534 34.2378 55.1702 34.4213 55.5242C34.6048 55.8781 36.9908 53.8068 37.3316 54.7376C37.6725 55.6684 35.6536 55.7864 35.2603 56.7303C34.867 57.6742 33.9231 60.3616 32.3237 60.9647C32.3237 60.9647 26.1622 73.1829 19.7253 78.7677C17.5884 80.6292 15.4122 81.2585 14.3372 80C13.4982 79.0036 13.1311 76.5128 15.5826 74.6643V74.6512Z" fill="#F7C888"/>
<path d="M47.2951 9.52265V9.57509C47.2951 9.57509 43.4278 5.93059 37.3842 4.90803C32.1927 4.04279 25.1397 5.41931 20.2891 9.16869C9.80137 17.2705 8.85747 30.1967 8.85747 30.1967C8.85747 30.1967 6.83857 14.8059 19.0568 6.28455C20.4333 5.31443 22.0065 4.43608 23.7894 3.67572C37.2006 -2.05322 43.939 4.52785 46.1677 7.14979C47.282 8.47387 47.3213 9.29978 47.2951 9.52265Z" fill="#E1EDF2"/>
<path d="M47.2951 9.52265C46.0496 8.26412 43.349 6.12724 38.0396 4.21322C29.9116 1.28975 22.9635 7.45132 19.9613 6.95315C19.5418 6.87449 19.2403 6.63851 19.0568 6.28455C20.4333 5.31443 22.0064 4.43608 23.7894 3.67572C37.2006 -2.05322 43.939 4.52785 46.1676 7.14979C47.282 8.47387 47.3213 9.29978 47.2951 9.52265Z" fill="#EBF4F7"/>
<g style="mix-blend-mode:multiply" opacity="0.15">
<path d="M11.8858 44.3683C11.8858 44.3683 11.2435 44.8271 10.4176 44.8009C10.1291 44.7878 9.84073 44.7354 9.5392 44.5781C7.57275 43.5293 5.26544 40.3567 6.14379 36.5942C6.77305 33.933 8.24134 33.6577 9.46054 33.9723C10.4962 34.2345 11.3483 34.9293 11.3483 34.9293L11.8858 44.3683Z" fill="#F79B74"/>
</g>
<g style="mix-blend-mode:multiply" opacity="0.15">
<path d="M14.9273 7.03174C14.9273 7.03174 6.34046 11.6726 3.84962 24.2054C0.952377 38.731 3.2859 54.0825 3.45633 54.3184C4.00694 55.0526 0.781951 37.4069 5.26547 20.8887C6.18315 17.5195 10.0505 11.5021 14.9273 7.03174Z" fill="#F76E34"/>
</g>
<g style="mix-blend-mode:multiply" opacity="0.15">
<path d="M13.2623 12.708C13.2623 12.708 5.94711 18.5943 4.78034 31.3107C3.43005 46.0591 8.70015 65.7499 8.89679 65.9596C9.52606 66.6282 3.11541 44.7612 5.84223 27.8628C6.39284 24.415 8.88368 17.6635 13.2623 12.708Z" fill="#F76E34"/>
</g>
<path d="M38.4986 5.37968C40.8452 5.72053 50.2187 7.45101 51.2412 18.8433C52.2638 30.2357 56.3016 28.3741 56.3016 28.3741C56.3016 28.3741 50.1007 31.3631 47.6885 23.5366C45.8531 17.5717 45.0797 16.7065 45.0797 16.7065C45.0797 16.7065 46.9019 21.793 46.1415 24.5985C45.8925 25.5293 44.0702 25.6342 42.7461 25.3851C41.5531 25.1622 39.2852 15.0415 39.2852 15.0415C39.2852 15.0415 41.8809 26.0012 38.4724 26.6043C36.2437 26.9976 32.5992 26.8796 32.2977 25.0705C31.1703 18.1616 30.9867 16.3787 30.9867 16.3787C30.9867 16.3787 31.0785 22.2519 29.4529 25.9095C28.1944 28.7412 21.5084 28.5183 21.0233 26.329C20.1319 22.3436 23.37 16.6802 23.37 16.6802C23.37 16.6802 16.317 26.4863 18.4538 37.328C18.4538 37.328 11.5057 33.6049 13.3279 24.5854C14.3636 19.4333 15.8581 14.9104 19.8697 11.1479C24.6154 6.69065 36.1519 5.06505 38.4986 5.39279V5.37968Z" fill="#E09200"/>
<g style="mix-blend-mode:multiply" opacity="0.15">
<path d="M34.9721 9.52295C34.9721 9.52295 39.6654 14.1507 37.7907 22.0689C37.2007 24.5467 37.109 25.6086 36.8206 25.6086C36.5321 25.6086 37.8169 19.9976 37.594 17.8738C37.3712 15.7501 37.2139 13.8623 34.959 9.52295H34.9721Z" fill="#F76E34"/>
</g>
<g style="mix-blend-mode:multiply" opacity="0.15">
<path d="M41.186 10.1387C41.186 10.1387 42.6937 10.5713 44.2537 16.9426C44.7912 19.1057 44.7388 22.5405 44.4503 22.5536C44.1619 22.5667 44.2799 18.5027 43.7293 16.6149C43.1787 14.7271 43.0476 12.9966 41.186 10.1387Z" fill="#F76E34"/>
</g>
<g style="mix-blend-mode:multiply" opacity="0.15">
<path d="M27.6043 13.4946C27.6043 13.4946 28.7449 14.5696 27.211 20.9409C26.6866 23.104 25.0741 26.1454 24.8119 26.0143C24.5497 25.8832 26.5162 22.3305 26.8833 20.4034C27.2503 18.4762 27.9321 16.8637 27.5912 13.4814L27.6043 13.4946Z" fill="#F76E34"/>
</g>
<path d="M42.6543 77.0509C42.6543 77.0509 43.454 75.0058 42.3921 71.3219C41.3696 67.7561 37.0434 65.0948 36.7681 64.9375C37.2793 65.0555 37.8168 65.2128 38.4199 65.357C43.5327 66.6549 46.561 73.2622 46.561 73.2622L42.6543 77.0509Z" fill="#FC8DA2"/>
<path d="M51.936 121.532C51.936 121.532 50.8216 122.45 47.5704 123.499C46.8887 117.062 44.2537 93.2811 41.7235 90.3183C41.7235 90.3183 42.7723 82.2558 42.6543 77.0513L43.2705 89.5055C43.2705 89.5055 48.6192 96.6634 51.936 121.532Z" fill="#FC8DA2"/>
</svg>
