<svg width="34" height="60" viewBox="0 0 34 60" fill="none" xmlns="http://www.w3.org/2000/svg">
<path d="M33.5805 14.9984C33.5253 16.5687 33.4385 18.3442 33.3201 20.2222C33.2886 20.6877 33.2491 21.1533 33.2255 21.6268C33.0755 23.6074 32.9019 25.6748 32.6968 27.7501C32.6021 28.7127 32.4995 29.6754 32.3969 30.6223C32.3732 30.8985 32.3338 31.1668 32.3022 31.4351C32.1207 33.0527 31.9235 34.6309 31.6946 36.1223C31.3553 38.5211 30.9844 40.7226 30.582 42.5375C30.5583 42.6401 30.5505 42.6875 30.5505 42.6875C30.1165 44.6444 29.6509 46.1515 29.1696 46.9643C28.917 47.4062 28.6488 47.6508 28.3884 47.6508C23.5591 47.6903 10.0027 48.8344 7.73798 47.13C7.61172 47.0353 7.01202 46.6329 6.19926 45.7018C5.51275 44.9206 4.66843 43.7606 3.84778 42.1114C3.7452 41.8984 3.64262 41.6853 3.54004 41.4802C3.52426 41.4486 3.51636 41.417 3.50847 41.4013C2.90088 40.0993 2.31696 38.5053 1.81194 36.6036C1.33849 34.8361 0.936054 32.7844 0.651983 30.4172C0.580965 29.8254 0.517837 29.2099 0.462601 28.5707C0.328456 27.0004 0.233768 25.3039 0.217986 23.4653C0.194314 21.9187 0.217985 20.2774 0.296894 18.5414C0.194313 17.3262 0.296895 12.9152 2.11968 12.5444C2.75095 12.4181 3.43746 12.6469 4.0056 13.0731C4.73156 13.6254 5.10243 21.611 6.86209 25.0356C8.62175 28.4602 7.70641 23.2917 7.70641 23.2917C7.46179 21.8082 7.2882 20.4194 7.17773 19.1017C7.16194 18.936 7.15405 18.7703 7.14616 18.6203C7.01991 16.8212 7.01991 15.1641 7.14616 13.6649C7.84845 4.33787 12.8276 0.542368 18.2802 0.0531342C19.9767 -0.0967921 21.7127 0.0768072 23.3856 0.495023C28.0727 1.67865 32.2312 4.85867 33.3754 8.59894C33.6358 9.45115 33.6989 11.8105 33.6042 14.9748L33.5805 14.9984Z" fill="#8295FF"/>
<g style="mix-blend-mode:multiply">
<path d="M32.3022 31.4351C32.1207 33.0527 31.9234 34.6309 31.6946 36.1222C31.3553 38.5211 30.9844 40.7226 30.582 42.5375C30.5583 42.6401 30.5504 42.6874 30.5504 42.6874C30.1164 44.6444 29.6509 46.1515 29.1695 46.9643L6.2071 45.7096C5.5206 44.9284 4.67628 43.7685 3.85563 42.1193C3.75305 41.9062 3.65046 41.6932 3.54788 41.488C3.5321 41.4565 3.52421 41.4249 3.51632 41.4091C3.27959 40.7857 6.47539 45.2756 19.7242 43.7606C23.5433 43.3266 28.5225 38.8998 32.3101 31.4351H32.3022Z" fill="#CFCCED"/>
</g>
<path d="M4.42381 58.5007C4.49482 58.5402 4.56584 58.5796 4.65264 58.627C4.96828 58.7927 5.35493 58.9347 5.8126 59.0531C6.7595 59.3292 7.99837 59.5265 9.37927 59.6764C9.80538 59.7159 10.2394 59.7553 10.6813 59.7948C11.7781 59.8737 12.938 59.9289 14.1138 59.9684C14.6109 59.9842 15.1159 59.9921 15.6131 59.9921C16.4732 59.9921 17.3333 59.9921 18.1697 59.9921H18.3985C18.872 59.9763 19.3375 59.9684 19.7873 59.9605C21.0262 59.9289 22.1782 59.8816 23.1725 59.8106C23.6538 59.7869 24.0878 59.7475 24.4824 59.7159C25.1136 59.6685 25.6423 59.6054 26.0211 59.5502C26.3525 59.5028 26.676 59.4476 26.9917 59.3924C27.5204 59.2977 28.0254 59.1951 28.483 59.0688C30.6057 58.5165 31.9471 57.6169 31.4342 55.6758C30.7477 53.1034 30.0691 52.1564 31.3238 48.0769C31.3238 48.0769 31.3238 48.0769 31.3238 48.0611C31.3395 47.998 31.3553 47.9348 31.379 47.8717C32.7204 43.6343 30.3769 43.3502 30.3769 43.3502C30.3769 43.3502 29.9507 43.7369 29.0906 44.092C28.7434 44.2419 28.3252 44.3761 27.836 44.4865C27.4809 44.5654 27.0864 44.6286 26.6524 44.6601C26.0763 44.7075 25.4451 44.7469 24.7586 44.7864C24.4193 44.8022 24.0721 44.8101 23.7091 44.8258C22.415 44.8811 21.0025 44.9047 19.5979 44.9205C19.2823 44.9205 18.9667 44.9205 18.6589 44.9205C17.5305 44.9205 16.4179 44.9205 15.4 44.9205C14.9029 44.9205 14.4215 44.9047 13.9718 44.8969C12.796 44.8732 11.8175 44.8258 11.1389 44.7706C10.9259 44.7469 10.7444 44.739 10.6024 44.7154C10.4603 44.6917 10.3183 44.6759 10.1762 44.6522C8.98473 44.4707 7.82477 44.1314 6.8463 43.7842C6.46754 43.658 6.11245 43.5317 5.80471 43.4055C4.79468 43.0109 4.13974 42.6716 4.13974 42.6716C1.55153 44.021 3.77676 47.1379 3.75309 50.523C3.72941 53.2927 1.10965 56.4491 4.4317 58.4849L4.42381 58.5007Z" fill="#CFD6FF"/>
<path d="M30.5425 44.3682C30.5425 44.3682 30.5741 45.2678 30.3374 45.5282C30.1006 45.7886 30.7477 45.8754 30.7477 45.8754L29.4141 46.9643L30.8976 47.5877C30.8976 47.5877 29.1853 48.14 29.7377 48.4004C30.29 48.6608 30.2032 48.9528 29.856 49.4499C29.5088 49.9471 29.8008 50.7282 29.8008 50.7282C29.8008 50.7282 29.0196 51.8882 29.4852 52.0066C29.9507 52.1249 30.148 52.3853 30.1243 52.5274C30.1006 52.6694 30.6451 54.2712 30.6767 54.4448C30.7082 54.6184 31.0239 54.9972 30.5583 54.9972C30.0928 54.9972 29.0512 54.6816 29.0512 54.6816L30.5583 55.8179C30.5583 55.8179 29.1064 56.3781 29.4852 56.678C29.8639 56.9778 28.3804 58.2246 28.1753 57.9957C27.9701 57.7669 26.8417 56.8358 26.8417 56.8358L27.8596 58.6112C27.8596 58.6112 27.1652 58.6112 26.6681 58.4061C26.171 58.2009 25.7133 57.9957 25.7133 57.9957L25.9185 58.8874C25.9185 58.8874 24.6086 57.9721 24.4981 58.0273C24.3877 58.0825 24.5534 59.4477 22.699 59.2188C20.8447 58.99 23.7722 58.4929 23.133 57.6249C22.4939 56.7569 21.6259 58.0036 21.0972 58.264C20.5685 58.5244 19.9372 58.3824 19.6137 58.7296C19.2902 59.0768 18.217 59.424 18.3906 58.99C18.5642 58.556 18.6826 58.0904 18.6826 58.0904L16.5915 59.0215V58.4376L14.5872 58.8716C14.5872 58.8716 13.1905 58.8164 12.9617 58.5797C12.7329 58.3429 10.4366 59.0768 10.4919 58.8085C10.5471 58.5402 11.4466 57.5854 11.3046 57.6722C11.1626 57.759 9.00837 58.5718 9.00837 58.5718C9.00837 58.5718 9.9395 57.5538 8.86634 57.7274C7.79318 57.901 6.89362 58.0194 6.89362 58.0194C6.89362 58.0194 9.39503 55.6995 7.56435 56.3387C5.73367 56.9778 4.97614 57.1199 4.97614 57.1199L5.3549 55.6364L3.38219 55.6679L4.43168 54.0266C4.43168 54.0266 2.71936 53.4269 3.38219 53.4033C4.04502 53.3796 5.03927 53.1981 4.92091 53.1113C4.80255 53.0245 4.16339 52.2433 4.16339 52.2433C4.16339 52.2433 5.58374 51.7462 5.06294 51.5173C4.54215 51.2885 4.47902 50.8466 4.47902 50.8466C4.47902 50.8466 5.49694 50.2943 5.37858 50.2943C5.26021 50.2943 4.47902 49.5683 4.47902 49.5683C4.47902 49.5683 5.55218 48.6372 5.46538 48.5504C5.37858 48.4636 2.99554 46.7355 3.6347 46.6645C4.27386 46.5934 5.37858 46.6171 5.11818 46.3488C4.85778 46.0805 3.86353 45.1257 3.86353 45.1257C3.86353 45.1257 5.63898 44.8101 6.07297 45.0074C6.50697 45.2046 4.76309 44.3682 4.76309 44.3682L4.38433 43.2319L5.31545 43.7527L6.79893 44.5339H7.58013C7.58013 44.5339 8.44812 45.6386 8.53492 45.7807C8.62172 45.9227 9.14252 45.2836 9.14252 45.2836L10.1289 45.8675L10.8548 45.6071C10.8548 45.6071 11.494 45.5518 11.494 45.7491C11.494 45.9464 12.1884 46.3883 12.362 46.2462C12.5356 46.1042 13.9875 45.3467 13.9875 45.3467C13.9875 45.3467 14.3347 45.9543 14.2479 46.0726C14.1611 46.191 15.9918 45.6939 15.9918 45.6939C15.9918 45.6939 16.047 45.8359 16.0786 45.9858C16.1101 46.1358 17.1912 45.7254 17.1912 45.7254C17.1912 45.7254 18.1381 44.8259 17.7278 45.4335C17.3175 46.0411 16.9071 46.4435 17.1912 46.3015C17.4753 46.1594 19.0692 45.5518 19.0692 45.5518L18.8404 46.049L20.7263 45.2678L20.6395 46.1673L22.2098 45.4098L22.0362 45.9937L22.9357 45.615L22.6201 46.4593L23.6696 45.4098L23.2356 46.2541L24.8059 45.1494V46.0174L25.4766 45.0626C25.4766 45.0626 25.445 45.9937 25.3898 46.0805C25.3346 46.1673 26.1158 45.2362 26.1158 45.2362C26.1158 45.2362 26.7865 44.3919 26.2894 45.2362C25.7922 46.0805 27.7097 45.0942 27.7097 45.0942L27.8281 45.5045L28.9012 44.5497L28.6408 45.7097L29.572 44.5497L29.0512 45.7412L30.1006 44.5497C30.1006 44.5497 29.3984 45.8833 29.4615 45.7728C29.5246 45.6623 30.6214 44.7233 30.5662 44.3761L30.5425 44.3682Z" fill="#E0E4FF"/>
<g style="mix-blend-mode:multiply" opacity="0.39">
<path d="M6.00989 51.5253C7.37501 52.2986 11.2652 53.4743 15.4237 53.0876C18.7694 52.7878 13.9165 55.0367 9.46609 54.7211C7.6433 54.5869 11.0364 57.7117 17.3964 56.6701C23.7564 55.6285 29.6272 54.7684 29.5089 56.4413C29.3037 59.4003 18.9667 59.9527 18.1776 60H18.4064C18.8799 59.9843 19.3454 59.9764 19.7952 59.9685C21.0341 59.9369 22.1862 59.8896 23.1804 59.8186C23.6617 59.7949 24.0957 59.7554 24.4903 59.7239C25.1216 59.6765 25.6502 59.6134 26.029 59.5582C26.3604 59.5108 26.684 59.4556 26.9996 59.4003C27.5283 59.3056 28.0333 59.2031 28.491 59.0768C30.6136 58.5244 31.955 57.6249 31.4421 55.6837C30.7556 53.1113 30.077 52.1644 31.3317 48.0848C31.1028 48.6214 29.9902 50.0497 24.7191 50.5705C22.6202 50.7756 6.53858 50.9098 4.40805 48.4478C3.82412 47.7771 3.33489 50.0181 6.002 51.5331L6.00989 51.5253Z" fill="#E8E6FF"/>
</g>
<path d="M7.1383 18.644C11.9202 17.8391 26.3762 15.9611 33.2255 21.6268C33.2492 21.1454 33.2886 20.6877 33.3202 20.2222C33.4385 18.3442 33.5253 16.5687 33.5806 14.9984C33.6753 11.8342 33.6121 9.47483 33.3517 8.62262C31.8051 3.5488 24.7034 -0.499217 18.2565 0.0768162C12.8039 0.558159 7.8248 4.36156 7.12252 13.6886C7.00415 15.1878 6.99626 16.8449 7.12252 18.644H7.1383Z" fill="#215EDE"/>
<g style="mix-blend-mode:soft-light">
<path d="M11.786 29.486C7.31189 31.9716 3.20864 28.5154 0.210112 23.4811C0.18644 21.9345 0.210114 20.2932 0.289023 18.5572C0.186442 17.342 0.289021 12.931 2.11181 12.5601C2.74308 12.4339 3.42958 12.6627 3.99772 13.0888C4.72368 13.6412 5.09456 21.6267 6.85422 25.0513C8.61388 28.476 7.69854 23.3075 7.69854 23.3075C7.45392 21.824 7.28032 20.4352 7.16985 19.1174C7.15407 18.9517 7.14618 18.786 7.13829 18.6361C7.01204 16.837 7.01204 15.1799 7.13829 13.6806C7.84058 4.35362 12.8197 0.558115 18.2723 0.0688814C19.9688 -0.081045 21.7048 0.0925539 23.3777 0.51077C23.7564 4.21947 22.6517 23.2996 11.7939 29.4781L11.786 29.486Z" fill="#B3CBFF"/>
</g>
</svg>
