<svg width="34" height="60" viewBox="0 0 34 60" fill="none" xmlns="http://www.w3.org/2000/svg">
<path d="M33.4377 14.9984C33.3824 16.5687 33.2956 18.3442 33.1773 20.2222C33.1457 20.6877 33.1062 21.1533 33.0826 21.6268C32.9326 23.6074 32.759 25.6748 32.5539 27.7501C32.4592 28.7127 32.3566 29.6754 32.254 30.6223C32.2304 30.8985 32.1909 31.1668 32.1593 31.4351C31.9778 33.0527 31.7806 34.6309 31.5517 36.1223C31.2124 38.5211 30.8416 40.7226 30.4391 42.5375C30.4155 42.6401 30.4076 42.6875 30.4076 42.6875C29.9736 44.6444 29.508 46.1516 29.0267 46.9643C28.7742 47.4062 28.5059 47.6508 28.2455 47.6508C23.4163 47.6903 9.85977 48.8344 7.59509 47.13C7.46884 47.0353 6.86913 46.6329 6.05637 45.7018C5.36987 44.9206 4.52555 43.7606 3.7049 42.1114C3.60232 41.8984 3.49974 41.6853 3.39715 41.4802C3.38137 41.4486 3.37348 41.417 3.36559 41.4013C2.75799 40.0993 2.17407 38.5053 1.66906 36.6036C1.19561 34.8361 0.793171 32.7844 0.5091 30.4172C0.438082 29.8254 0.374954 29.2099 0.319718 28.5707C0.185573 27.0004 0.0908847 25.3039 0.075103 23.4653C0.0514304 21.9187 0.0751018 20.2774 0.15401 18.5414C0.0514292 17.3262 0.154012 12.9152 1.9768 12.5444C2.60807 12.4181 3.29457 12.6469 3.86272 13.0731C4.58867 13.6254 4.95954 21.611 6.71921 25.0356C8.47887 28.4602 7.56353 23.2917 7.56353 23.2917C7.31891 21.8082 7.14531 20.4194 7.03484 19.1017C7.01906 18.936 7.01117 18.7703 7.00328 18.6203C6.87702 16.8212 6.87702 15.1641 7.00328 13.6649C7.70556 4.33787 12.6847 0.542368 18.1373 0.0531342C19.8338 -0.0967921 21.5698 0.0768072 23.2427 0.495023C27.9298 1.67865 32.0883 4.85867 33.2325 8.59894C33.4929 9.45115 33.556 11.8105 33.4613 14.9748L33.4377 14.9984Z" fill="#8295FF"/>
<g style="mix-blend-mode:multiply">
<path d="M32.1593 31.4351C31.9778 33.0527 31.7805 34.6309 31.5517 36.1222C31.2124 38.5211 30.8415 40.7226 30.4391 42.5375C30.4154 42.6401 30.4075 42.6874 30.4075 42.6874C29.9735 44.6444 29.508 46.1515 29.0266 46.9643L6.06422 45.7096C5.37771 44.9284 4.53339 43.7685 3.71274 42.1193C3.61016 41.9062 3.50758 41.6932 3.405 41.488C3.38922 41.4565 3.38133 41.4249 3.37344 41.4091C3.13671 40.7857 6.33251 45.2756 19.5813 43.7606C23.4004 43.3266 28.3796 38.8998 32.1672 31.4351H32.1593Z" fill="#CFCCED"/>
</g>
<path d="M4.28092 58.5007C4.35194 58.5402 4.42296 58.5796 4.50976 58.627C4.82539 58.7927 5.21205 58.9347 5.66972 59.0531C6.61662 59.3292 7.85549 59.5265 9.23639 59.6764C9.66249 59.7159 10.0965 59.7553 10.5384 59.7948C11.6352 59.8737 12.7952 59.9289 13.9709 59.9684C14.468 59.9842 14.973 59.9921 15.4702 59.9921C16.3303 59.9921 17.1904 59.9921 18.0268 59.9921H18.2556C18.7291 59.9763 19.1947 59.9684 19.6444 59.9605C20.8833 59.9289 22.0354 59.8816 23.0296 59.8106C23.511 59.7869 23.945 59.7475 24.3395 59.7159C24.9708 59.6685 25.4994 59.6054 25.8782 59.5502C26.2096 59.5028 26.5332 59.4476 26.8488 59.3924C27.3775 59.2977 27.8825 59.1951 28.3402 59.0688C30.4628 58.5165 31.8042 57.6169 31.2913 55.6758C30.6048 53.1034 29.9262 52.1564 31.1809 48.0769C31.1809 48.0769 31.1809 48.0769 31.1809 48.0611C31.1967 47.998 31.2124 47.9348 31.2361 47.8717C32.5776 43.6343 30.234 43.3502 30.234 43.3502C30.234 43.3502 29.8079 43.7369 28.9478 44.092C28.6006 44.2419 28.1823 44.3761 27.6931 44.4865C27.338 44.5654 26.9435 44.6286 26.5095 44.6601C25.9334 44.7075 25.3022 44.7469 24.6157 44.7864C24.2764 44.8022 23.9292 44.8101 23.5662 44.8258C22.2721 44.8811 20.8596 44.9047 19.455 44.9205C19.1394 44.9205 18.8238 44.9205 18.516 44.9205C17.3876 44.9205 16.275 44.9205 15.2571 44.9205C14.76 44.9205 14.2786 44.9047 13.8289 44.8969C12.6531 44.8732 11.6747 44.8258 10.996 44.7706C10.783 44.7469 10.6015 44.739 10.4595 44.7154C10.3174 44.6917 10.1754 44.6759 10.0334 44.6522C8.84184 44.4707 7.68188 44.1314 6.70342 43.7842C6.32466 43.658 5.96957 43.5317 5.66182 43.4055C4.65179 43.0109 3.99685 42.6716 3.99685 42.6716C1.40865 44.021 3.63387 47.1379 3.6102 50.523C3.58653 53.2927 0.966764 56.4491 4.28882 58.4849L4.28092 58.5007Z" fill="#CFD6FF"/>
<path d="M30.3997 44.3682C30.3997 44.3682 30.4312 45.2678 30.1945 45.5282C29.9578 45.7886 30.6048 45.8754 30.6048 45.8754L29.2713 46.9643L30.7547 47.5877C30.7547 47.5877 29.0424 48.14 29.5948 48.4004C30.1471 48.6608 30.0603 48.9528 29.7131 49.4499C29.3659 49.9471 29.6579 50.7282 29.6579 50.7282C29.6579 50.7282 28.8767 51.8882 29.3423 52.0066C29.8078 52.1249 30.0051 52.3853 29.9814 52.5274C29.9578 52.6694 30.5022 54.2712 30.5338 54.4448C30.5654 54.6184 30.881 54.9972 30.4154 54.9972C29.9499 54.9972 28.9083 54.6816 28.9083 54.6816L30.4154 55.8179C30.4154 55.8179 28.9635 56.3781 29.3423 56.678C29.721 56.9778 28.2376 58.2246 28.0324 57.9957C27.8272 57.7669 26.6988 56.8358 26.6988 56.8358L27.7168 58.6112C27.7168 58.6112 27.0224 58.6112 26.5252 58.4061C26.0281 58.2009 25.5704 57.9957 25.5704 57.9957L25.7756 58.8874C25.7756 58.8874 24.4657 57.9721 24.3552 58.0273C24.2448 58.0825 24.4105 59.4477 22.5561 59.2188C20.7018 58.99 23.6293 58.4929 22.9901 57.6249C22.351 56.7569 21.483 58.0036 20.9543 58.264C20.4256 58.5244 19.7943 58.3824 19.4708 58.7296C19.1473 59.0768 18.0741 59.424 18.2477 58.99C18.4213 58.556 18.5397 58.0904 18.5397 58.0904L16.4486 59.0215V58.4376L14.4443 58.8716C14.4443 58.8716 13.0476 58.8164 12.8188 58.5797C12.59 58.3429 10.2937 59.0768 10.349 58.8085C10.4042 58.5402 11.3038 57.5854 11.1617 57.6722C11.0197 57.759 8.86549 58.5718 8.86549 58.5718C8.86549 58.5718 9.79661 57.5538 8.72346 57.7274C7.6503 57.901 6.75074 58.0194 6.75074 58.0194C6.75074 58.0194 9.25214 55.6995 7.42146 56.3387C5.59078 56.9778 4.83326 57.1199 4.83326 57.1199L5.21202 55.6364L3.23931 55.6679L4.28879 54.0266C4.28879 54.0266 2.57647 53.4269 3.23931 53.4033C3.90214 53.3796 4.89639 53.1981 4.77802 53.1113C4.65966 53.0245 4.0205 52.2433 4.0205 52.2433C4.0205 52.2433 5.44086 51.7462 4.92006 51.5173C4.39926 51.2885 4.33614 50.8466 4.33614 50.8466C4.33614 50.8466 5.35406 50.2943 5.23569 50.2943C5.11733 50.2943 4.33614 49.5683 4.33614 49.5683C4.33614 49.5683 5.40929 48.6372 5.32249 48.5504C5.23569 48.4636 2.85265 46.7355 3.49181 46.6645C4.13097 46.5934 5.23569 46.6171 4.9753 46.3488C4.7149 46.0805 3.72065 45.1257 3.72065 45.1257C3.72065 45.1257 5.49609 44.8101 5.93009 45.0074C6.36409 45.2046 4.62021 44.3682 4.62021 44.3682L4.24145 43.2319L5.17257 43.7527L6.65605 44.5339H7.43724C7.43724 44.5339 8.30524 45.6386 8.39204 45.7807C8.47884 45.9227 8.99963 45.2836 8.99963 45.2836L9.98599 45.8675L10.712 45.6071C10.712 45.6071 11.3511 45.5518 11.3511 45.7491C11.3511 45.9464 12.0455 46.3883 12.2191 46.2462C12.3927 46.1042 13.8446 45.3467 13.8446 45.3467C13.8446 45.3467 14.1918 45.9543 14.105 46.0726C14.0182 46.191 15.8489 45.6939 15.8489 45.6939C15.8489 45.6939 15.9041 45.8359 15.9357 45.9858C15.9673 46.1358 17.0483 45.7254 17.0483 45.7254C17.0483 45.7254 17.9952 44.8259 17.5849 45.4335C17.1746 46.0411 16.7642 46.4435 17.0483 46.3015C17.3324 46.1594 18.9263 45.5518 18.9263 45.5518L18.6975 46.049L20.5834 45.2678L20.4966 46.1673L22.0669 45.4098L21.8933 45.9937L22.7929 45.615L22.4772 46.4593L23.5267 45.4098L23.0927 46.2541L24.663 45.1494V46.0174L25.3337 45.0626C25.3337 45.0626 25.3022 45.9937 25.2469 46.0805C25.1917 46.1673 25.9729 45.2362 25.9729 45.2362C25.9729 45.2362 26.6436 44.3919 26.1465 45.2362C25.6494 46.0805 27.5668 45.0942 27.5668 45.0942L27.6852 45.5045L28.7584 44.5497L28.498 45.7097L29.4291 44.5497L28.9083 45.7412L29.9578 44.5497C29.9578 44.5497 29.2555 45.8833 29.3186 45.7728C29.3817 45.6623 30.4786 44.7233 30.4233 44.3761L30.3997 44.3682Z" fill="#E0E4FF"/>
<g style="mix-blend-mode:multiply" opacity="0.39">
<path d="M5.86701 51.5254C7.23213 52.2987 11.1223 53.4744 15.2808 53.0878C18.6265 52.7879 13.7737 55.0368 9.32321 54.7212C7.50042 54.587 10.8935 57.7118 17.2535 56.6702C23.6136 55.6286 29.4844 54.7685 29.366 56.4414C29.1608 59.4005 18.8238 59.9528 18.0347 60.0002H18.2635C18.737 59.9844 19.2026 59.9765 19.6523 59.9686C20.8912 59.937 22.0433 59.8897 23.0375 59.8187C23.5189 59.795 23.9529 59.7555 24.3474 59.724C24.9787 59.6766 25.5074 59.6135 25.8861 59.5583C26.2175 59.5109 26.5411 59.4557 26.8567 59.4005C27.3854 59.3058 27.8904 59.2032 28.3481 59.0769C30.4707 58.5246 31.8122 57.625 31.2993 55.6839C30.6128 53.1114 29.9341 52.1645 31.1888 48.085C30.96 48.6215 29.8473 50.0498 24.5762 50.5706C22.4773 50.7757 6.3957 50.9099 4.26516 48.4479C3.68124 47.7772 3.19201 50.0182 5.85912 51.5333L5.86701 51.5254Z" fill="#E8E6FF"/>
</g>
<path d="M6.99542 18.6439C11.7773 17.839 26.2333 15.961 33.0826 21.6266C33.1063 21.1453 33.1457 20.6876 33.1773 20.2221C33.2957 18.344 33.3825 16.5686 33.4377 14.9983C33.5324 11.8341 33.4693 9.47471 33.2089 8.6225C31.6622 3.54867 24.5605 -0.499339 18.1136 0.0766942C12.6611 0.558037 7.68192 4.36143 6.97963 13.6884C6.86127 15.1877 6.85338 16.8448 6.97963 18.6439H6.99542Z" fill="#215EDE"/>
<g style="mix-blend-mode:soft-light">
<path d="M11.6431 29.4861C7.16901 31.9718 3.06576 28.5156 0.067229 23.4812C0.0435564 21.9346 0.0672308 20.2933 0.146139 18.5573C0.0435583 17.3421 0.146138 12.9311 1.96893 12.5602C2.6002 12.434 3.2867 12.6628 3.85484 13.0889C4.5808 13.6413 4.95167 21.6268 6.71134 25.0515C8.471 28.4761 7.55566 23.3076 7.55566 23.3076C7.31104 21.8241 7.13744 20.4353 7.02697 19.1175C7.01119 18.9518 7.0033 18.7861 6.99541 18.6362C6.86915 16.8371 6.86915 15.18 6.99541 13.6807C7.69769 4.35374 12.6768 0.558237 18.1294 0.0690034C19.8259 -0.0809229 21.5619 0.092676 23.2348 0.510892C23.6136 4.2196 22.5088 23.2997 11.651 29.4782L11.6431 29.4861Z" fill="#B3CBFF"/>
</g>
</svg>
