<svg width="44" height="76" viewBox="0 0 44 76" fill="none" xmlns="http://www.w3.org/2000/svg">
<path d="M42.0998 36.1942C42.0298 36.9941 41.9398 37.774 41.8598 38.5339C41.4999 41.5335 40.9899 44.1332 40.39 46.3729C39.7301 48.8426 38.9702 50.8824 38.1903 52.5622C38.0603 52.8222 37.9303 53.0921 37.8003 53.3621C36.7504 55.4518 35.6906 56.9217 34.8207 57.9115C33.7908 59.0914 33.0309 59.6013 32.8709 59.7213C30.0113 61.871 12.8334 60.4312 6.70414 60.3812C6.37418 60.3812 6.03422 60.0713 5.71426 59.5113C5.10434 58.4815 4.52441 56.5717 3.96448 54.092C3.43454 51.7523 2.9546 48.8926 2.51466 45.773C2.1847 43.5633 1.89473 41.2036 1.62476 38.8039C1.49478 37.604 1.3648 36.3842 1.24481 35.1643C0.974845 32.5347 0.764871 29.915 0.574894 27.4053C0.544898 26.7954 0.494904 26.2154 0.454909 25.6255C0.304927 23.2458 0.194941 20.9961 0.124949 19.0063C0.00496408 14.9968 0.0849542 12.0072 0.414914 10.9273C2.37467 4.49809 11.3736 -0.631274 19.5426 0.0986363C26.4517 0.708561 32.7609 5.52797 33.6508 17.3465C33.8008 19.2463 33.8108 21.346 33.6508 23.6257C33.6508 23.8257 33.6208 24.0357 33.6108 24.2357C33.4708 25.9055 33.2609 27.6652 32.9409 29.545C32.9409 29.545 31.7811 36.0942 34.0108 31.7547C36.2405 27.4153 36.7204 17.2965 37.6303 16.5966C38.3502 16.0567 39.2101 15.7667 40.02 15.9267C42.3298 16.3966 42.4597 21.9859 42.3298 23.5258C42.5497 28.3552 42.4297 32.5646 42.1098 36.2342L42.0998 36.1942Z" fill="#8295FF"/>
<g style="mix-blend-mode:multiply">
<path d="M42.0998 36.1953C42.0298 36.9952 41.9398 37.7751 41.8598 38.535C41.4998 41.5347 40.9899 44.1343 40.39 46.3741C39.7301 48.8438 38.9702 50.8835 38.1902 52.5633C38.0603 52.8233 37.9303 53.0932 37.8003 53.3632C36.7504 55.4529 35.6906 56.9228 34.8207 57.9126L5.72424 59.5024C5.11432 58.4726 4.53439 56.5628 3.97446 54.0831C3.97446 54.0831 6.8441 55.9929 10.3237 56.1029C11.7335 56.1429 26.4117 55.5629 34.6707 47.9939C38.8902 44.1143 40.9199 39.8249 42.0998 36.2053V36.1953Z" fill="#CFCCED"/>
</g>
<path d="M37.0704 74.1005C36.9804 74.1505 36.8904 74.2005 36.7804 74.2605C36.3805 74.4705 35.8905 74.6504 35.3106 74.8004C34.1108 75.1504 32.541 75.4003 30.7912 75.5903C30.2512 75.6403 29.7013 75.6903 29.1414 75.7403C27.7515 75.8403 26.2817 75.9103 24.7919 75.9603C24.162 75.9803 23.5221 75.9903 22.8921 75.9903C21.8023 75.9903 20.7124 75.9903 19.6525 75.9903H19.3626C18.7627 75.9703 18.1727 75.9603 17.6028 75.9503C16.033 75.9103 14.5732 75.8503 13.3133 75.7603C12.7034 75.7303 12.1535 75.6803 11.6535 75.6403C10.8536 75.5803 10.1837 75.5003 9.70377 75.4303C9.28382 75.3703 8.87387 75.3004 8.47392 75.2304C7.804 75.1104 7.16408 74.9804 6.58415 74.8204C3.89448 74.1205 2.19469 72.9806 2.84461 70.5209C3.7145 67.2613 4.5744 66.0615 2.98459 60.8921C2.98459 60.8921 2.98459 60.8921 2.98459 60.8721C2.9646 60.7921 2.9446 60.7122 2.9146 60.6322C1.21481 55.2628 4.18445 54.9029 4.18445 54.9029C4.18445 54.9029 4.72438 55.3928 5.81425 55.8428C6.25419 56.0327 6.78413 56.2027 7.40405 56.3427C7.85399 56.4427 8.35393 56.5227 8.90387 56.5627C9.63378 56.6227 10.4337 56.6726 11.3036 56.7226C11.7335 56.7426 12.1735 56.7526 12.6334 56.7726C14.2732 56.8426 16.063 56.8726 17.8428 56.8926C18.2427 56.8926 18.6427 56.8926 19.0326 56.8926C20.4624 56.8926 21.8723 56.8926 23.1621 56.8926C23.792 56.8926 24.402 56.8726 24.9719 56.8626C26.4617 56.8326 27.7016 56.7726 28.5614 56.7026C28.8314 56.6726 29.0614 56.6627 29.2414 56.6327C29.4213 56.6027 29.6013 56.5827 29.7813 56.5527C31.2911 56.3227 32.7609 55.8927 34.0008 55.4528C34.4807 55.2928 34.9307 55.1328 35.3206 54.9729C36.6005 54.4729 37.4304 54.043 37.4304 54.043C40.71 55.7528 37.8903 59.7023 37.9203 63.9917C37.9503 67.5013 41.2699 71.5008 37.0604 74.0805L37.0704 74.1005Z" fill="#CFD6FF"/>
<path d="M3.97448 56.1918C3.97448 56.1918 3.93449 57.3316 4.23445 57.6616C4.53441 57.9916 3.71451 58.1015 3.71451 58.1015L5.4043 59.4814L3.52454 60.2713C3.52454 60.2713 5.69427 60.9712 4.99436 61.3011C4.29444 61.6311 4.40443 62.0011 4.84437 62.631C5.28432 63.2609 4.91437 64.2508 4.91437 64.2508C4.91437 64.2508 5.90424 65.7206 5.31432 65.8706C4.72439 66.0206 4.47442 66.3505 4.50442 66.5305C4.53441 66.7105 3.8445 68.7402 3.8045 68.9602C3.76451 69.1802 3.36456 69.6601 3.95448 69.6601C4.54441 69.6601 5.86425 69.2602 5.86425 69.2602L3.95448 70.7C3.95448 70.7 5.79426 71.4099 5.31432 71.7899C4.83437 72.1698 6.71414 73.7496 6.97411 73.4596C7.23408 73.1697 8.6639 71.9898 8.6639 71.9898L7.37406 74.2396C7.37406 74.2396 8.25396 74.2396 8.88388 73.9796C9.5138 73.7196 10.0937 73.4596 10.0937 73.4596L9.83376 74.5895C9.83376 74.5895 11.4936 73.4297 11.6335 73.4996C11.7735 73.5696 11.5635 75.2994 13.9133 75.0095C16.263 74.7195 12.5534 74.0896 13.3633 72.9897C14.1732 71.8898 15.2731 73.4697 15.943 73.7996C16.6129 74.1296 17.4128 73.9496 17.8228 74.3895C18.2327 74.8295 19.5926 75.2694 19.3726 74.7195C19.1526 74.1696 19.0026 73.5796 19.0026 73.5796L21.6523 74.7595V74.0196L24.192 74.5695C24.192 74.5695 25.9618 74.4995 26.2517 74.1996C26.5417 73.8996 29.4513 74.8295 29.3814 74.4895C29.3114 74.1496 28.1715 72.9397 28.3515 73.0497C28.5315 73.1597 31.2611 74.1896 31.2611 74.1896C31.2611 74.1896 30.0813 72.8997 31.4411 73.1197C32.8009 73.3397 33.9408 73.4897 33.9408 73.4897C33.9408 73.4897 30.7712 70.55 33.0909 71.3599C35.4106 72.1698 36.3705 72.3498 36.3705 72.3498L35.8906 70.47L38.3902 70.51L37.0604 68.4303C37.0604 68.4303 39.2301 67.6704 38.3902 67.6404C37.5504 67.6104 36.2905 67.3804 36.4405 67.2704C36.5905 67.1604 37.4004 66.1706 37.4004 66.1706C37.4004 66.1706 35.6006 65.5406 36.2605 65.2507C36.9204 64.9607 37.0004 64.4008 37.0004 64.4008C37.0004 64.4008 35.7106 63.7009 35.8606 63.7009C36.0105 63.7009 37.0004 62.781 37.0004 62.781C37.0004 62.781 35.6406 61.6011 35.7506 61.4911C35.8606 61.3811 38.8802 59.1914 38.0703 59.1014C37.2604 59.0114 35.8606 59.0414 36.1905 58.7015C36.5205 58.3615 37.7803 57.1517 37.7803 57.1517C37.7803 57.1517 35.5306 56.7517 34.9807 57.0017C34.4307 57.2516 36.6405 56.1918 36.6405 56.1918L37.1204 54.752L35.9405 55.4119L34.0608 56.4017H33.0709C33.0709 56.4017 31.971 57.8016 31.8611 57.9816C31.7511 58.1615 31.0911 57.3516 31.0911 57.3516L29.8413 58.0915L28.9214 57.7616C28.9214 57.7616 28.1115 57.6916 28.1115 57.9416C28.1115 58.1915 27.2316 58.7515 27.0116 58.5715C26.7917 58.3915 24.9519 57.4316 24.9519 57.4316C24.9519 57.4316 24.512 58.2015 24.6219 58.3515C24.7319 58.5015 22.4122 57.8716 22.4122 57.8716C22.4122 57.8716 22.3422 58.0515 22.3022 58.2415C22.2622 58.4315 20.8924 57.9116 20.8924 57.9116C20.8924 57.9116 19.6925 56.7717 20.2125 57.5416C20.7324 58.3115 21.2524 58.8214 20.8924 58.6415C20.5324 58.4615 18.5127 57.6916 18.5127 57.6916L18.8027 58.3215L16.413 57.3316L16.5229 58.4715L14.5332 57.5116L14.7532 58.2515L13.6133 57.7716L14.0132 58.8415L12.6834 57.5116L13.2333 58.5815L11.2436 57.1817V58.2815L10.3937 57.0717C10.3937 57.0717 10.4337 58.2515 10.5037 58.3615C10.5737 58.4715 9.58379 57.2916 9.58379 57.2916C9.58379 57.2916 8.7339 56.2218 9.36382 57.2916C9.99374 58.3615 7.56404 57.1117 7.56404 57.1117L7.41406 57.6316L6.05423 56.4217L6.38418 57.8916L5.20433 56.4217L5.86425 57.9316L4.53441 56.4217C4.53441 56.4217 5.4243 58.1115 5.34431 57.9716C5.26432 57.8316 3.87449 56.6417 3.94448 56.2018L3.97448 56.1918Z" fill="#E0E4FF"/>
<g style="mix-blend-mode:multiply" opacity="0.39">
<path d="M35.0606 65.2618C33.3309 66.2417 28.4015 67.7315 23.1321 67.2416C18.8926 66.8616 25.0419 69.7113 30.6812 69.3113C32.9909 69.1413 28.6914 73.1008 20.6324 71.781C12.5734 70.4612 5.13433 69.3713 5.28431 71.491C5.54428 75.2406 18.6427 75.9405 19.6425 76.0005H19.3526C18.7527 75.9805 18.1627 75.9705 17.5928 75.9605C16.023 75.9205 14.5632 75.8605 13.3033 75.7705C12.6934 75.7405 12.1435 75.6905 11.6435 75.6505C10.8436 75.5905 10.1737 75.5105 9.69376 75.4406C9.27382 75.3806 8.86387 75.3106 8.46392 75.2406C7.794 75.1206 7.15408 74.9906 6.57415 74.8306C3.88448 74.1307 2.18469 72.9909 2.83461 70.5312C3.7045 67.2716 4.5644 66.0717 2.97459 60.9023C3.26456 61.5823 4.67438 63.392 11.3536 64.052C14.0132 64.3119 34.3907 64.4819 37.0904 61.3623C37.8303 60.5124 38.4502 63.352 35.0706 65.2718L35.0606 65.2618Z" fill="#E8E6FF"/>
</g>
<path d="M33.6408 23.5964C27.5816 22.5766 9.26384 20.1969 0.584904 27.376C0.554907 26.7661 0.504914 26.1861 0.464919 25.5962C0.314937 23.2165 0.20495 20.9668 0.134959 18.977C0.0149738 14.9675 0.094964 11.9779 0.424923 10.898C2.38468 4.4688 11.3836 -0.660571 19.5526 0.0693394C26.4617 0.679264 32.7709 5.49867 33.6608 17.3172C33.8108 19.217 33.8208 21.3167 33.6608 23.5964H33.6408Z" fill="#215EDE"/>
<g style="mix-blend-mode:soft-light">
<path d="M19.5026 22.0266C15.643 30.1756 7.93398 38.8446 1.2548 35.135C0.164937 24.1264 -0.285008 13.2077 0.414906 10.898C2.37466 4.4688 11.3736 -0.660571 19.5426 0.0693394C22.4422 4.81876 23.2521 14.1176 19.5126 22.0266H19.5026Z" fill="#A3C1FF"/>
</g>
</svg>
