<svg width="70" height="64" viewBox="0 0 70 64" fill="none" xmlns="http://www.w3.org/2000/svg">
<path d="M34.6381 50.4318C28.4991 50.3022 16.3953 50.7687 12.9407 50.8354C9.48616 50.902 2.13275 52.2424 1.23301 53.8604C0.336978 55.4785 2.18455 56.978 4.06178 57.6815C5.93901 58.3887 4.54313 59.6254 4.0766 60.6881C3.61007 61.7507 9.92303 63.2355 12.3483 62.5209C14.7735 61.8063 23.271 59.8328 24.1929 62.0025C25.1149 64.1722 26.022 64.8905 29.1508 62.5468C32.2795 60.203 37.0485 59.4921 39.37 61.1731C41.6916 62.8541 47.1862 63.6502 48.9598 61.6545C50.7334 59.6587 52.2366 61.5212 54.5434 62.806C57.3611 64.3759 60.8933 63.5539 60.8045 61.4582C60.786 60.9991 60.275 59.9735 62.8446 60.5066C65.4143 61.0398 65.8438 62.1247 67.21 61.0694C69.576 59.2403 65.9215 58.4924 68.2097 55.8636C69.5723 54.2973 68.169 52.6238 64.6849 52.2498C61.2007 51.8758 40.7807 50.5614 34.6418 50.4318H34.6381Z" fill="#A18658"/>
<path d="M34.5159 51.6246C29.1027 51.4654 18.4392 51.6765 15.3956 51.6876C12.3521 51.6987 5.88356 52.591 5.10971 53.7462C4.33587 54.9015 5.97982 56.0048 7.6423 56.5343C9.30477 57.0638 8.08661 57.9413 7.68673 58.7003C7.28684 59.4631 12.8667 60.5998 14.9957 60.1111C17.1247 59.6223 24.5966 58.2857 25.4334 59.863C26.2702 61.4403 27.0774 61.9624 29.8099 60.3073C32.5424 58.6485 36.7375 58.1857 38.8036 59.4224C40.8697 60.659 45.7201 61.2922 47.2604 59.8704C48.8007 58.4486 50.1484 59.8074 52.1923 60.759C54.6916 61.9216 57.7981 61.3662 57.6944 59.8556C57.6722 59.5223 57.213 58.7818 59.4827 59.1928C61.7524 59.6038 62.1449 60.3924 63.3372 59.6445C65.4032 58.3523 62.1745 57.7747 64.1629 55.9012C65.3477 54.7867 64.0925 53.5648 61.0193 53.2575C57.9462 52.9502 39.9329 51.7876 34.5196 51.6283L34.5159 51.6246Z" fill="#8E7652"/>
<path opacity="0.64" d="M34.5159 52.0501C30.3763 51.9131 22.2232 52.0019 19.8942 51.9908C17.5653 51.9797 12.626 52.5573 12.0373 53.346C11.4522 54.1347 12.7148 54.8974 13.9885 55.2677C15.2622 55.6379 14.3366 56.234 14.033 56.7524C13.7294 57.2708 18.0059 58.0817 19.6276 57.7558C21.2494 57.43 26.9588 56.5562 27.6068 57.641C28.2548 58.7259 28.8731 59.0888 30.9539 57.9669C33.0348 56.845 36.2413 56.5525 37.826 57.4078C39.4108 58.2668 43.1245 58.7222 44.2945 57.7595C45.4645 56.7931 46.5013 57.7336 48.0712 58.3927C49.9892 59.1999 52.3625 58.837 52.2737 57.8003C52.2552 57.5744 51.8997 57.0634 53.6362 57.3559C55.3728 57.6485 55.6764 58.1927 56.5872 57.6855C58.1609 56.8117 55.6875 56.397 57.1981 55.127C58.0979 54.3716 57.1315 53.5274 54.7804 53.3016C52.4292 53.0757 38.648 52.1871 34.5085 52.0464L34.5159 52.0501Z" fill="#735E41"/>
<path d="M41 0C41 0 43.267 18.3244 42.4117 29.6471C41.5823 40.6587 40.7807 45.352 38.6443 51.328C38.5369 51.6317 38.237 51.8353 37.9001 51.8353H36.4634C35.9043 51.8353 35.523 51.2947 35.7377 50.8023C36.6967 48.6029 39.867 43.3655 41 34.8235C41.7658 29.0523 41 0 41 0Z" fill="#368038"/>
<path d="M27.5662 9.22559C27.5662 9.22559 30.6763 45.4372 32.6165 51.3133C32.7202 51.6243 33.0201 51.8354 33.3644 51.8354H34.5974C35.1047 51.8354 35.4823 51.3837 35.3602 50.9134C34.5086 47.607 31.6538 36.2881 31.0503 31.3377C30.3394 25.506 27.5662 9.22929 27.5662 9.22929V9.22559Z" fill="#368038"/>
<path d="M16.7248 10.9395C16.7248 10.9395 19.972 42.1007 24.1078 50.7797C24.3448 51.2758 23.9634 51.8349 23.3932 51.8349H21.6122C21.2457 51.8349 20.931 51.5943 20.8495 51.2573C20.1867 48.4878 17.369 36.3839 16.6655 28.3788C15.8695 19.2815 16.7211 10.9395 16.7211 10.9395H16.7248Z" fill="#368038"/>
<path d="M26.1221 5.09745C26.1221 5.09745 23.608 23.0774 24.1671 33.1152C24.7113 42.8864 25.189 48.6884 27.2773 52.4096C27.3846 52.6021 27.5624 52.7095 27.7438 52.7095H28.662C29.073 52.7095 29.3544 52.1726 29.1989 51.6802C28.5547 49.6548 27.181 44.6859 26.4516 37.2584C25.4778 27.3391 25.637 8.42981 26.1258 5.09375L26.1221 5.09745Z" fill="#368038"/>
<path d="M40.2551 21.5586C40.2551 21.5586 39.4664 47.7917 38.0853 52.531C37.9965 52.8347 37.7151 53.0531 37.3855 53.0753L36.4895 53.1346C35.9674 53.1679 35.5565 52.7162 35.6675 52.2311C36.3081 49.4542 38.1038 41.4676 38.3593 37.9427C38.674 33.6328 40.2514 21.5623 40.2514 21.5623L40.2551 21.5586Z" fill="#368038"/>
<path d="M52.7957 16.6162C52.7957 16.6162 52.0478 28.9719 50.7556 35.9365C49.4337 43.0529 46.8974 48.5402 45.7644 50.7581C45.5089 51.2542 45.8866 51.8282 46.4642 51.8319H47.3491C47.675 51.8393 47.9712 51.6467 48.086 51.3542C48.8376 49.4585 51.5368 42.3754 52.0515 37.1991C52.9512 28.1351 52.7957 16.6199 52.7957 16.6199V16.6162Z" fill="#368038"/>
<path d="M39.3553 14.7459C39.3553 14.7459 32.3981 39.0166 32.5906 51.5463C32.598 51.9573 32.946 52.2831 33.3755 52.2831H33.6718C34.0865 52.2831 34.4271 51.9795 34.453 51.587C34.6382 48.8619 35.3379 38.9055 35.9711 35.4843C36.7079 31.504 39.3553 14.7422 39.3553 14.7422V14.7459Z" fill="#368038"/>
<path d="M57.0871 5.97831C57.0871 5.97831 59.7418 23.7546 58.968 33.785C58.1941 43.8154 57.361 47.7883 55.4357 53.0498C55.3246 53.3571 55.0247 53.5644 54.6988 53.5644H53.5733C53.0068 53.5644 52.6254 52.9868 52.8549 52.4685C53.7621 50.4024 55.6393 45.4668 56.639 38.1208C57.9905 28.2052 57.7721 9.31067 57.0908 5.97461L57.0871 5.97831Z" fill="#5C855D"/>
<path d="M50.4668 14.002C50.4668 14.002 54.5471 41.9345 52.444 53.7459C52.3774 54.1236 52.0516 54.3976 51.6702 54.3976C51.1703 54.3976 50.8001 53.9422 50.9037 53.4534C51.1999 52.0723 51.6036 48.8547 51.4443 41.8494C51.2074 31.1858 50.4631 14.002 50.4631 14.002H50.4668Z" fill="#5C855D"/>
<path d="M60.9043 11.0291C60.9043 11.0291 64.8328 23.8291 62.7704 34.8814C61.0524 44.0972 59.912 50.9323 59.5825 52.9539C59.5233 53.3131 59.2826 53.5685 59.0012 53.5685H58.2199C57.8089 53.5685 57.5201 53.0317 57.6608 52.5207C58.568 49.1883 61.3412 38.6877 61.9374 32.6561C63.0111 21.7741 60.908 11.0254 60.908 11.0254L60.9043 11.0291Z" fill="#5C855D"/>
<path d="M12.7111 14.002C12.7111 14.002 16.7914 41.9345 14.6883 53.7459C14.6216 54.1236 14.2958 54.3976 13.9145 54.3976C13.4146 54.3976 13.0443 53.9422 13.148 53.4534C13.4442 52.0723 13.8478 48.8547 13.6886 41.8494C13.4516 31.1858 12.7074 14.002 12.7074 14.002H12.7111Z" fill="#5C855D"/>
<path d="M4.75781 16.6455C4.75781 16.6455 7.55702 48.3955 9.32318 53.8495C9.43055 54.1753 9.73047 54.3938 10.0711 54.3938H11.0449C11.5596 54.3938 11.9335 53.9087 11.8039 53.4089C10.9819 50.2838 8.46416 40.5385 7.92728 36.2324C7.27932 31.0635 4.75781 16.6455 4.75781 16.6455Z" fill="#5C855D"/>
<path d="M14.4587 8.21875C14.4587 8.21875 21.6344 37.6916 21.3975 52.7909C21.39 53.2204 21.042 53.5685 20.6125 53.5685H20.2755C19.8609 53.5685 19.5165 53.2464 19.4943 52.8317C19.3166 49.6992 18.5872 37.451 17.9318 33.2744C17.1765 28.4684 14.4587 8.21875 14.4587 8.21875Z" fill="#5C855D"/>
<path d="M41.5731 7.9043C41.5731 7.9043 46.0829 41.1316 43.728 55.0424C43.6651 55.4201 43.3393 55.7015 42.9542 55.7015H42.7839C42.284 55.7015 41.9137 55.246 42.0174 54.7573C42.3432 53.2244 42.8283 49.4477 42.6506 40.8539C42.3877 28.2391 41.5731 7.9043 41.5731 7.9043Z" fill="#419643"/>
<path d="M54.336 5.36405C54.336 5.36405 60.0233 20.5078 57.039 33.5892C54.5138 44.6526 52.8513 52.8169 52.3996 55.0718C52.3255 55.4383 52.0034 55.6975 51.6331 55.6975H50.3113C49.7744 55.6975 49.3967 55.1754 49.5671 54.6682C50.8037 50.973 54.9507 38.2248 55.8319 30.9566C57.3907 18.0789 54.3397 5.36035 54.3397 5.36035L54.336 5.36405Z" fill="#419643"/>
<path d="M35.2786 1.75781C35.2786 1.75781 43.2096 36.818 42.906 54.6424C42.8986 55.0719 42.5505 55.4162 42.121 55.4162H41.6026C41.1842 55.4162 40.8436 55.0904 40.8214 54.6757C40.6363 51.1952 39.8291 36.407 39.0959 31.4047C38.2629 25.7175 35.2786 1.75781 35.2786 1.75781Z" fill="#419643"/>
<path d="M52.4587 17.9531C52.4587 17.9531 55.2579 49.7031 57.0241 55.1571C57.1314 55.4829 57.4314 55.7014 57.772 55.7014H58.7458C59.2605 55.7014 59.6344 55.2163 59.5048 54.7165C58.6829 51.5915 56.165 41.8462 55.6282 37.54C54.9802 32.3711 52.4587 17.9531 52.4587 17.9531Z" fill="#419643"/>
<path d="M48.8709 19.4715C48.8709 19.4715 51.7774 46.6487 55.4986 54.5835C55.7429 55.1055 55.369 55.7016 54.7914 55.7016H53.3659C53.003 55.7016 52.692 55.4573 52.6031 55.1055C51.9663 52.4989 49.4522 41.9353 48.819 34.9188C48.0933 26.8582 48.8709 19.4678 48.8709 19.4678V19.4715Z" fill="#419643"/>
<path d="M54.6877 9.52637C54.6877 9.52637 61.8634 38.9993 61.6265 54.0985C61.6191 54.5281 61.271 54.8761 60.8415 54.8761H60.5046C60.0899 54.8761 59.7455 54.554 59.7233 54.1393C59.5456 51.0069 58.8162 38.7586 58.1608 34.582C57.4055 29.776 54.6877 9.52637 54.6877 9.52637Z" fill="#419643"/>
<path d="M29.4434 8.11503C29.4434 8.11503 32.0982 25.8913 31.3243 35.9217C30.5727 45.6374 29.7174 49.9251 27.792 55.1865C27.681 55.4938 27.381 55.7011 27.0552 55.7011H25.9296C25.3631 55.7011 24.9817 55.1235 25.2113 54.6052C26.1184 52.5391 27.9957 47.6035 28.9954 40.2575C30.3468 30.3419 30.1284 11.4474 29.4471 8.11133L29.4434 8.11503Z" fill="#419643"/>
<path d="M33.4903 13.5135C33.4903 13.5135 38.6628 26.3134 35.9488 37.3658C33.6865 46.5816 32.1869 53.4166 31.75 55.4383C31.6723 55.7974 31.3538 56.0529 30.9836 56.0529H29.9542C29.41 56.0529 29.0323 55.516 29.2137 55.0051C30.4097 51.6727 34.0604 41.1721 34.8454 35.1405C36.2635 24.2585 33.4866 13.5098 33.4866 13.5098L33.4903 13.5135Z" fill="#419643"/>
<path d="M10.6673 19.823C10.6673 19.823 13.5738 47.0003 17.295 54.935C17.5393 55.4571 17.1654 56.0532 16.5877 56.0532H15.1622C14.7994 56.0532 14.4883 55.8088 14.3995 55.4571C13.7626 52.8504 11.2486 42.2869 10.6154 35.2704C9.8897 27.2098 10.6673 19.8193 10.6673 19.8193V19.823Z" fill="#419643"/>
<path d="M50.7739 24.2402C50.7739 24.2402 46.39 45.7858 48.6079 55.0201C48.693 55.3756 49.0078 55.6274 49.3743 55.6274H49.4743C49.9853 55.6274 50.3629 55.146 50.2333 54.6499C49.9223 53.4613 49.5558 50.9436 49.715 45.8784C49.9742 37.5956 50.7739 24.2439 50.7739 24.2439V24.2402Z" fill="#41B543"/>
<path d="M56.7723 28.5645C56.7723 28.5645 56.0651 51.517 54.8247 55.9231C54.7359 56.2416 54.4507 56.4674 54.1212 56.4896L53.4584 56.5341C52.9327 56.5674 52.5217 56.0861 52.6439 55.5751C53.2585 52.9759 54.8247 46.1371 55.0543 43.0787C55.3394 39.2613 56.776 28.5682 56.776 28.5682L56.7723 28.5645Z" fill="#41B543"/>
<path d="M68.4356 24.4248C68.4356 24.4248 67.2064 35.2365 65.9364 41.3828C64.6812 47.4699 62.7669 52.2982 61.8486 54.4086C61.6191 54.9381 61.8487 55.5231 62.2745 55.4861L62.7188 55.4491C62.952 55.4306 63.1742 55.2195 63.2816 54.9196C63.9221 53.1312 66.077 46.8923 66.7176 42.4047C67.8543 34.4515 68.4393 24.4248 68.4393 24.4248H68.4356Z" fill="#41B543"/>
<path d="M7.26448 14.365C7.26448 14.365 4.16909 30.2974 4.85778 39.1874C5.52425 47.8182 6.11297 52.9575 8.66038 56.2528C8.80478 56.4416 9.03436 56.5453 9.27503 56.5453H10.2451C10.8116 56.5453 11.1893 55.9677 10.9634 55.4493C10.1414 53.5499 8.53081 49.2215 7.66439 42.8567C6.46845 34.0667 6.66095 17.316 7.26448 14.3613V14.365Z" fill="#41B543"/>
<path d="M13.0184 24.2402C13.0184 24.2402 8.63452 45.7858 10.8524 55.0201C10.9376 55.3756 11.2523 55.6274 11.6188 55.6274H11.7188C12.2298 55.6274 12.6074 55.146 12.4779 54.6499C12.1668 53.4613 11.8003 50.9436 11.9595 45.8784C12.2187 37.5956 13.0184 24.2439 13.0184 24.2439V24.2402Z" fill="#41B543"/>
<path d="M23.134 30.457C23.134 30.457 20.6458 49.6959 17.432 55.8867C17.1617 56.4087 17.543 57.0271 18.1281 57.0271H19.1092C19.4573 57.0271 19.7646 56.7975 19.8609 56.4643C20.4792 54.3612 22.6304 46.8263 23.1784 41.7871C23.8227 35.8777 23.134 30.457 23.134 30.457Z" fill="#41B543"/>
<path d="M33.3755 20.3291C33.3755 20.3291 28.5213 45.9846 31.0169 56.8518C31.0983 57.2109 31.4168 57.4664 31.7833 57.4664H32.0647C32.5794 57.4664 32.9534 56.9814 32.8238 56.4852C32.4757 55.156 32.0277 52.1865 32.2091 45.929C32.4942 36.1282 33.3755 20.3291 33.3755 20.3291Z" fill="#78B400"/>
<path d="M21.7566 19.8477C21.7566 19.8477 16.7137 30.9518 19.3611 40.5453C21.5419 48.4467 22.9933 54.3339 23.4376 56.163C23.5228 56.5147 23.8375 56.7628 24.2004 56.7628H25.126C25.6814 56.7628 26.0628 56.2037 25.8555 55.689C24.6262 52.627 21.1828 43.7555 20.4311 38.62C19.05 29.1746 21.7529 19.8514 21.7529 19.8514L21.7566 19.8477Z" fill="#78B400"/>
<path d="M44.6055 25.1094C44.6055 25.1094 41.8137 48.3359 38.2295 55.4191C37.9667 55.9374 38.348 56.5483 38.9331 56.5483H40.229C40.5807 56.5483 40.8918 56.3151 40.9843 55.9744C41.6286 53.6233 44.0464 44.5519 44.6573 38.5166C45.3645 31.5223 44.6092 25.1094 44.6092 25.1094H44.6055Z" fill="#78B400"/>
<path d="M46.5049 15.4158C46.5049 15.4158 44.0168 31.3482 44.5722 40.2382C45.1091 48.869 45.5793 54.0083 47.6268 57.3036C47.7453 57.4924 47.9268 57.5961 48.1193 57.5961H48.9006C49.356 57.5961 49.6596 57.0185 49.4782 56.5001C48.8191 54.6007 47.5232 50.2723 46.8271 43.9075C45.8644 35.1175 46.0199 18.3668 46.5049 15.4121V15.4158Z" fill="#78B400"/>
<path d="M41.9582 25.3496C41.9582 25.3496 37.3743 34.7358 39.781 42.8445C41.7323 49.413 43.043 54.3337 43.4688 55.9629C43.5577 56.3072 43.8687 56.5479 44.2279 56.5479H44.8869C45.4497 56.5479 45.8311 55.974 45.6089 55.4556C44.4278 52.712 41.4213 45.4549 40.7548 41.2116C39.4996 33.2288 41.9582 25.3496 41.9582 25.3496Z" fill="#78B400"/>
<path d="M64.1406 32.3896C64.1406 32.3896 61.6524 51.6285 58.4386 57.8193C58.1683 58.3413 58.5496 58.9597 59.1346 58.9597H60.1158C60.4639 58.9597 60.7712 58.7301 60.8675 58.3969C61.4858 56.2938 63.637 48.7589 64.185 43.7197C64.8292 37.8103 64.1406 32.3896 64.1406 32.3896Z" fill="#9CD132"/>
<path d="M58.6682 25.5576C58.6682 25.5576 52.3848 46.9032 52.5144 58.0407C52.5181 58.4702 52.8699 58.8183 53.2994 58.8183H53.4364C53.8474 58.8183 54.188 58.5036 54.2176 58.0926C54.3954 55.5303 55.0211 46.9218 55.5913 43.9374C56.2615 40.4125 58.6682 25.5613 58.6682 25.5613V25.5576Z" fill="#9CD132"/>
<path d="M16.5878 22.3701C16.5878 22.3701 15.8399 35.3219 14.5477 42.6235C13.2258 50.0843 10.6895 55.8381 9.55652 58.1597C9.30104 58.678 9.67871 59.2816 10.2563 59.2853H11.1412C11.467 59.2927 11.7633 59.0927 11.8781 58.7854C12.6297 56.7971 15.3289 49.3734 15.8436 43.9453C16.7433 34.4444 16.5878 22.3701 16.5878 22.3701Z" fill="#9CD132"/>
<path d="M21.4234 30.4082C21.4234 30.4082 20.7162 53.3608 19.4758 57.7669C19.3869 58.0853 19.1019 58.3112 18.7723 58.3334L18.1096 58.3778C17.5838 58.4111 17.1728 57.9298 17.295 57.4188C17.9096 54.8196 19.4758 47.9809 19.7054 44.9225C19.9905 41.1051 21.4271 30.4119 21.4271 30.4119L21.4234 30.4082Z" fill="#9CD132"/>
<path d="M29.2173 27.1357C29.2173 27.1357 30.0615 38.0696 29.7542 44.3418C29.4469 50.5548 27.9288 55.5719 27.1513 57.775C26.955 58.3266 27.4178 58.8894 27.9954 58.808L28.6064 58.7265C28.9248 58.6821 29.184 58.4525 29.2618 58.1415C29.7283 56.2902 31.2464 49.8365 31.0761 45.2897C30.7724 37.2254 29.2173 27.1394 29.2173 27.1394V27.1357Z" fill="#9CD132"/>
<path d="M20.9345 25.2764C20.9345 25.2764 14.6512 46.622 14.7808 57.7595C14.7845 58.189 15.1362 58.537 15.5657 58.537H15.7027C16.1137 58.537 16.4544 58.2223 16.484 57.8113C16.6617 55.2491 17.2874 46.6405 17.8576 43.6562C18.5278 40.1313 20.9345 25.2801 20.9345 25.2801V25.2764Z" fill="#9CD132"/>
</svg>
