<svg width="75" height="66" viewBox="0 0 75 66" fill="none" xmlns="http://www.w3.org/2000/svg">
<path d="M72.5919 64.9244H60.1547C55.7286 64.5682 50.7537 64.0526 45.6874 63.7619C38.5543 62.4307 37.6123 62.2244 37.5026 62.2057C37.3929 62.2338 36.3412 62.4494 28.1656 63.9775C24.2698 64.24 20.6026 64.615 17.3653 64.915H2.41325C2.41325 64.915 0.968343 59.1682 1.80054 51.1901C2.52299 44.1307 5.01958 35.3276 11.8509 27.1994C21.2154 16.0619 37.5026 17.8151 37.5026 17.8151C37.5026 17.8151 39.8254 17.5619 43.2182 17.8526C43.648 17.8901 44.087 17.9369 44.5442 17.9838C44.5442 17.9838 44.5442 17.9838 44.5808 17.9838C50.1227 18.6401 57.7862 20.7869 63.1635 27.1807C69.9948 35.2994 72.4914 44.1026 73.2138 51.1713C74.0369 59.1494 72.6011 64.8963 72.6011 64.8963L72.5919 64.9244Z" fill="#A1D6FF"/>
<path d="M72.592 64.9245C71.3482 65.1777 69.8576 65.2902 68.1749 65.2995C65.8338 65.337 63.1177 65.1683 60.1548 64.9245C55.7286 64.5683 50.7537 64.0527 45.6874 63.762C43.6389 63.6495 41.5813 63.5745 39.5328 63.5652C35.6462 63.5464 31.8053 63.7245 28.1656 63.9776C24.2698 64.2401 20.6027 64.6151 17.3653 64.9151C16.7435 64.9714 16.1308 65.0277 15.5455 65.0933C11.6954 65.4495 8.54955 65.6933 6.45535 65.5433C4.45259 65.3277 2.9711 65.0651 2.4224 64.9151C0.739724 64.437 -0.549721 61.812 0.273329 57.8745C0.575114 56.4589 0.648274 55.1745 0.730579 54.1058C0.840318 52.6245 0.977493 51.5652 1.75482 51.2089C1.77311 51.2089 1.7914 51.1902 1.80054 51.1902C1.80054 51.1902 6.04382 53.787 15.8747 52.4089C16.1216 52.3714 16.3502 52.3433 16.588 52.3058C37.1277 49.4745 45.6234 51.0027 59.1397 52.4089C62.5599 52.7652 65.3034 52.7277 67.4159 52.5214C71.4122 52.1464 73.2138 51.1902 73.2138 51.1902C73.2321 51.1902 73.2504 51.1902 73.2595 51.2089C74.046 51.5652 74.174 52.6245 74.2838 54.1058C74.3661 55.1745 74.4392 56.4589 74.741 57.8745C75.5641 61.812 74.3112 64.5589 72.592 64.9151V64.9245Z" fill="#F4FFC2"/>
<g style="mix-blend-mode:multiply">
<path d="M6.43704 65.5527C4.43428 65.3371 2.95279 65.0746 2.40409 64.9246C0.721413 64.4465 -0.568031 61.8215 0.255018 57.884C0.556803 56.4684 0.629963 55.184 0.712268 54.1152C0.712268 54.1152 1.84625 56.834 9.59206 56.834C17.3379 56.834 21.6269 56.009 21.9378 57.1527C22.2487 58.3059 8.24774 59.8996 6.38217 60.4527C4.52573 61.0152 2.35837 63.4059 6.42789 65.5434L6.43704 65.5527Z" fill="#F0F2E6"/>
</g>
<g style="mix-blend-mode:multiply">
<path d="M42.9439 19.7186C42.1391 20.7123 28.5588 20.8154 26.0897 22.2029C11.5583 30.3592 12.6648 43.4842 13.4879 47.3186C14.3109 51.1529 16.588 52.3248 16.588 52.3248C16.588 52.3248 14.1737 54.4904 15.3534 56.8342C16.5149 59.1779 14.1097 59.1779 14.6676 62.1498C14.9053 63.4436 15.198 64.3248 15.4723 64.9248C15.4998 64.9811 15.5272 65.0467 15.5546 65.1029C11.7046 65.4592 8.5587 65.7029 6.4645 65.5529C4.46175 65.3373 2.98026 65.0748 2.43156 64.9248C0.748879 64.4467 -0.540565 61.8217 0.282484 57.8842C0.584269 56.4686 0.657429 55.1842 0.739734 54.1154C0.849474 52.6342 0.986649 51.5748 1.76397 51.2186C1.78226 51.2186 1.80055 51.1998 1.8097 51.1998C2.53215 44.1404 5.02874 35.3373 11.86 27.2092C21.2245 16.0717 37.5118 17.8248 37.5118 17.8248C37.5118 17.8248 39.8346 17.5717 43.2274 17.8623C43.3554 18.4342 43.392 19.1748 42.953 19.7092L42.9439 19.7186Z" fill="#E2E2EB"/>
</g>
<path d="M37.5026 0.648438C32.3083 0.648438 28.1016 4.97969 28.1016 10.3328C28.1016 15.6859 32.3083 20.0172 37.5026 20.0172C42.697 20.0172 46.8945 15.6859 46.8945 10.3328C46.8945 4.97969 42.6878 0.648438 37.5026 0.648438Z" fill="#F4FFC2"/>
<path d="M6.86688 48.2453L6.64741 47.1203C6.59254 46.8485 6.42793 46.6047 6.18101 46.4641L5.2025 45.9016C4.88242 45.7235 4.96473 45.236 5.31224 45.161L6.40964 44.936C6.68398 44.8797 6.91261 44.7016 7.04978 44.4578L7.58934 43.4547C7.76309 43.1266 8.23863 43.2016 8.31179 43.5672L8.53127 44.6922C8.58614 44.9641 8.75075 45.2078 8.99767 45.3485L9.97618 45.911C10.2963 46.0891 10.214 46.5766 9.86644 46.6516L8.76904 46.8766C8.49469 46.9328 8.26607 47.111 8.12889 47.3547L7.58934 48.3578C7.41558 48.686 6.94004 48.611 6.86688 48.2453Z" fill="#EEFFA1"/>
<path d="M17.8133 49.3897L17.4658 48.2929C17.3835 48.021 17.1823 47.8054 16.9354 47.7022L15.902 47.2616C15.5637 47.121 15.5911 46.6241 15.9295 46.5116L16.9903 46.1554C17.2555 46.071 17.4658 45.8647 17.5664 45.6022L17.9962 44.5429C18.1334 44.196 18.6181 44.2147 18.7278 44.571L19.0753 45.6679C19.1577 45.9397 19.3588 46.1554 19.6058 46.2585L20.6391 46.6991C20.9775 46.8397 20.9501 47.3366 20.6117 47.4491L19.5509 47.8054C19.2857 47.8897 19.0753 48.096 18.9748 48.3585L18.5449 49.4179C18.4078 49.7647 17.9231 49.746 17.8133 49.3897Z" fill="#EEFFA1"/>
<path d="M27.8547 48.8752L27.3975 47.8252C27.2877 47.572 27.0682 47.3752 26.803 47.2908L25.7331 46.9627C25.3856 46.8595 25.3581 46.3627 25.6873 46.2127L26.7116 45.7439C26.9585 45.6314 27.1505 45.4064 27.2328 45.1345L27.5529 44.0283C27.6535 43.672 28.1382 43.6345 28.2845 43.9814L28.7418 45.0314C28.8515 45.2845 29.071 45.4814 29.3362 45.5658L30.4062 45.8939C30.7537 45.997 30.7811 46.4939 30.4519 46.6439L29.4276 47.1127C29.1807 47.2252 28.9887 47.4502 28.9064 47.722L28.5863 48.8283C28.4857 49.1845 28.001 49.222 27.8547 48.8752Z" fill="#EEFFA1"/>
<path d="M68.1384 48.2453L68.3579 47.1203C68.4127 46.8485 68.5774 46.6047 68.8243 46.4641L69.8028 45.9016C70.1229 45.7235 70.0405 45.236 69.693 45.161L68.5956 44.936C68.3213 44.8797 68.0927 44.7016 67.9555 44.4578L67.4159 43.4547C67.2422 43.1266 66.7666 43.2016 66.6935 43.5672L66.474 44.6922C66.4191 44.9641 66.2545 45.2078 66.0076 45.3485L65.0291 45.911C64.709 46.0891 64.7913 46.5766 65.1388 46.6516L66.2362 46.8766C66.5106 46.9328 66.7392 47.111 66.8764 47.3547L67.4159 48.3578C67.5897 48.686 68.0652 48.611 68.1384 48.2453Z" fill="#EEFFA1"/>
<path d="M57.1826 49.3897L57.5301 48.2929C57.6124 48.021 57.8136 47.8054 58.0605 47.7022L59.0939 47.2616C59.4323 47.121 59.4048 46.6241 59.0665 46.5116L58.0057 46.1554C57.7405 46.071 57.5301 45.8647 57.4295 45.6022L56.9997 44.5429C56.8625 44.196 56.3779 44.2147 56.2681 44.571L55.9206 45.6679C55.8383 45.9397 55.6371 46.1554 55.3902 46.2585L54.3568 46.6991C54.0184 46.8397 54.0459 47.3366 54.3842 47.4491L55.4451 47.8054C55.7103 47.8897 55.9206 48.096 56.0212 48.3585L56.451 49.4179C56.5882 49.7647 57.0729 49.746 57.1826 49.3897Z" fill="#EEFFA1"/>
<path d="M47.1505 48.8752L47.6078 47.8252C47.7175 47.572 47.937 47.3752 48.2022 47.2908L49.2722 46.9627C49.6197 46.8595 49.6471 46.3627 49.3179 46.2127L48.2937 45.7439C48.0468 45.6314 47.8547 45.4064 47.7724 45.1345L47.4523 44.0283C47.3517 43.672 46.8671 43.6345 46.7207 43.9814L46.2635 45.0314C46.1537 45.2845 45.9343 45.4814 45.6691 45.5658L44.5991 45.8939C44.2516 45.997 44.2241 46.4939 44.5534 46.6439L45.5776 47.1127C45.8245 47.2252 46.0166 47.4502 46.0989 47.722L46.4189 48.8283C46.5195 49.1845 47.0042 49.222 47.1505 48.8752Z" fill="#EEFFA1"/>
<path d="M37.1276 48.134L36.7435 47.0559C36.6521 46.7934 36.4418 46.5871 36.1857 46.484L35.134 46.0809C34.7957 45.9496 34.7957 45.4621 35.134 45.3309L36.1857 44.9277C36.4418 44.834 36.6429 44.6184 36.7435 44.3559L37.1276 43.2777C37.2557 42.9309 37.7403 42.9309 37.8592 43.2777L38.2433 44.3559C38.3348 44.6184 38.5451 44.8246 38.8012 44.9277L39.8528 45.3309C40.1912 45.4621 40.1912 45.9496 39.8528 46.0809L38.8012 46.484C38.5451 46.5777 38.3439 46.7934 38.2433 47.0559L37.8592 48.134C37.7312 48.4809 37.2465 48.4809 37.1276 48.134Z" fill="#EEFFA1"/>
<path d="M45.6965 4.39922L40.5021 8.45859L46.3641 5.51484C46.4281 5.48672 46.4738 5.58047 46.4098 5.60859L40.7216 8.89922L46.9128 6.79922C46.9768 6.78047 47.0134 6.87422 46.9493 6.90234L40.8862 9.36797L47.306 8.15859C47.37 8.14922 47.3975 8.24297 47.3243 8.26172L40.9868 9.85547L47.5072 9.55547C47.5712 9.55547 47.5803 9.65859 47.5072 9.65859L41.0142 10.343L47.5072 10.9617C47.5712 10.9617 47.5712 11.0742 47.5072 11.0648L40.9868 10.8305L47.3426 12.3586C47.4066 12.3773 47.3883 12.4805 47.3243 12.4617L40.8954 11.318L46.9859 13.718C47.0499 13.7461 47.0134 13.8398 46.9493 13.8211L40.7307 11.7867L46.4464 15.0211C46.5104 15.0586 46.4555 15.143 46.4006 15.1148L40.5113 12.2273L45.7422 16.2305C45.7971 16.268 45.7422 16.3523 45.6782 16.3148L40.2278 12.6305L44.8826 17.3273C44.9283 17.3742 44.8643 17.4492 44.8094 17.4023L39.8986 12.9867L43.8858 18.293C43.9315 18.3492 43.8492 18.4148 43.8035 18.3586L39.5236 13.2961L42.7792 19.118C42.8158 19.1742 42.7244 19.2305 42.6878 19.1742L39.1121 13.5586L41.5629 19.7742C41.5904 19.8398 41.4989 19.8773 41.4623 19.8211L38.664 13.7555L40.2735 20.2617C40.2918 20.3273 40.1912 20.3555 40.1729 20.2898L38.2067 13.8961L38.9383 20.5617C38.9383 20.6273 38.8469 20.6461 38.8377 20.5805L37.7312 13.9711L37.5757 20.6836C37.5757 20.7492 37.4751 20.7492 37.4751 20.6836L37.2556 13.9805L36.2131 20.6086C36.204 20.6742 36.1034 20.6648 36.1125 20.5992L36.7801 13.9242L34.878 20.3367C34.8597 20.4023 34.7591 20.3742 34.7774 20.3086L36.3229 13.793L33.5885 19.8867C33.5611 19.9523 33.4696 19.9055 33.4879 19.8398L35.8839 13.5961L32.3631 19.2492C32.3265 19.3055 32.2442 19.2492 32.2716 19.193L35.4632 13.343L31.2291 18.4523C31.1834 18.5086 31.1102 18.443 31.1468 18.3867L35.0883 13.0336L30.2231 17.4961C30.1683 17.543 30.1043 17.468 30.15 17.4211L34.7591 12.6773L29.3452 16.418C29.2904 16.4555 29.2263 16.3711 29.2812 16.3336L34.4756 12.2742L28.6136 15.218C28.5496 15.2461 28.5039 15.1523 28.5679 15.1242L34.2561 11.8336L28.0649 13.9336C28.0009 13.9523 27.9643 13.8586 28.0283 13.8305L34.0915 11.3648L27.6717 12.5742C27.6077 12.5836 27.5802 12.4898 27.6534 12.4711L33.9909 10.8773L27.4705 11.1773C27.4065 11.1773 27.3973 11.0742 27.4705 11.0742L33.9635 10.3898L27.4705 9.77109C27.4065 9.77109 27.4065 9.65859 27.4705 9.66797L33.9909 9.90234L27.6351 8.37422C27.5711 8.35547 27.5894 8.25234 27.6534 8.27109L34.0823 9.41484L27.9918 7.01484C27.9278 6.98672 27.9643 6.89297 28.0283 6.91172L34.2469 8.94609L28.5313 5.71172C28.4673 5.67422 28.5222 5.58984 28.577 5.61797L34.4664 8.50547L29.2355 4.50234C29.1806 4.46484 29.2355 4.38047 29.2995 4.41797L34.7499 8.10234L30.0951 3.40547C30.0494 3.35859 30.1134 3.28359 30.1683 3.33047L35.0791 7.74609L31.0919 2.43984C31.0462 2.38359 31.1285 2.31797 31.1742 2.37422L35.4541 7.43672L32.1985 1.61484C32.1619 1.55859 32.2533 1.50234 32.2899 1.55859L35.8656 7.17422L33.4147 0.958594C33.3873 0.892969 33.4788 0.855469 33.5153 0.911719L36.3137 6.97734L34.7042 0.471094C34.6859 0.405469 34.7865 0.377344 34.8048 0.442969L36.771 6.83672L36.0394 0.171094C36.0394 0.105469 36.1308 0.0867187 36.14 0.152344L37.2465 6.76172L37.402 0.0492188C37.402 -0.0164062 37.5026 -0.0164062 37.5026 0.0492188L37.722 6.75234L38.7646 0.124219C38.7737 0.0585937 38.8743 0.0679687 38.8652 0.133594L38.1976 6.80859L40.0997 0.396094C40.118 0.330469 40.2186 0.358594 40.2003 0.424219L38.6548 6.93984L41.3892 0.846094C41.4166 0.780469 41.5081 0.827344 41.4898 0.892969L39.0938 7.13672L42.6146 1.48359C42.6512 1.42734 42.7335 1.48359 42.7061 1.53984L39.5145 7.38984L43.7486 2.28047C43.7943 2.22422 43.8675 2.28984 43.8309 2.34609L39.8894 7.69922L44.7545 3.23672C44.8094 3.18984 44.8734 3.26484 44.8277 3.31172L40.2186 8.05547L45.6325 4.31484C45.6873 4.27734 45.7513 4.36172 45.6965 4.39922Z" fill="#FCFFED"/>
<path d="M40.2186 8.37435L38.4902 9.72435L40.4381 8.74935C40.4381 8.74935 40.4747 8.7681 40.4564 8.77747L38.5725 9.86497L40.6301 9.17122C40.6301 9.17122 40.6667 9.19935 40.6393 9.20872L38.6274 10.0243L40.7582 9.62122C40.7582 9.62122 40.7856 9.64935 40.7582 9.65872L38.6548 10.1837L40.813 10.0806C40.813 10.0806 40.8405 10.1181 40.813 10.1181L38.664 10.3431L40.8222 10.5493C40.8222 10.5493 40.8405 10.5868 40.8222 10.5868L38.6548 10.5118L40.7582 11.0181C40.7582 11.0181 40.7764 11.0556 40.7582 11.0556L38.6274 10.6806L40.6484 11.4775C40.6484 11.4775 40.6576 11.515 40.6393 11.515L38.5725 10.84L40.4655 11.9087C40.4655 11.9087 40.4655 11.9462 40.4472 11.9368L38.4902 10.9806L40.2277 12.3118C40.2277 12.3118 40.2277 12.3493 40.2095 12.34L38.3987 11.1212L39.9442 12.6775C39.9442 12.6775 39.9442 12.715 39.9168 12.7056L38.289 11.2431L39.615 13.0056C39.615 13.0056 39.6059 13.0431 39.5876 13.0243L38.1701 11.3462L39.2492 13.2775C39.2492 13.2775 39.2309 13.315 39.2218 13.2962L38.0329 11.4306L38.8469 13.4931C38.8469 13.4931 38.8286 13.5306 38.8194 13.5118L37.8958 11.4962L38.4262 13.6525C38.4262 13.6525 38.3987 13.6806 38.3896 13.6618L37.7403 11.5431L37.9872 13.7556C37.9872 13.7556 37.9598 13.7837 37.9506 13.7556L37.5848 11.5618L37.53 13.7837C37.53 13.7837 37.4934 13.8025 37.4934 13.7837L37.4202 11.5618L37.0727 13.7556C37.0727 13.7556 37.0361 13.7743 37.0361 13.7556L37.2556 11.5431L36.6246 13.6712C36.6246 13.69 36.588 13.6806 36.588 13.6618L37.1002 11.4962L36.1948 13.5212C36.1948 13.5212 36.1582 13.5212 36.1582 13.5118L36.9538 11.44L35.7833 13.315C35.7833 13.315 35.7467 13.315 35.7558 13.2962L36.8167 11.3556L35.4083 13.0525C35.4083 13.0525 35.3718 13.0525 35.3809 13.0337L36.6886 11.2618L35.07 12.7431C35.07 12.7431 35.0334 12.7337 35.0425 12.715L36.5697 11.14L34.7773 12.3775C34.7773 12.3775 34.7407 12.3587 34.759 12.3493L36.4874 10.9993L34.5396 11.9743C34.5396 11.9743 34.503 11.9556 34.5213 11.9462L36.4051 10.8587L34.3475 11.5525C34.3475 11.5525 34.3109 11.5243 34.3384 11.515L36.3503 10.6993L34.2195 11.1025C34.2195 11.1025 34.192 11.0743 34.2195 11.065L36.3228 10.54L34.1646 10.6431C34.1646 10.6431 34.1372 10.6056 34.1646 10.6056L36.3137 10.3806L34.1555 10.1743C34.1555 10.1743 34.1372 10.1368 34.1555 10.1368L36.3228 10.2118L34.2195 9.7056C34.2195 9.7056 34.2012 9.6681 34.2195 9.6681L36.3503 10.0431L34.3292 9.24622C34.3292 9.24622 34.3201 9.20872 34.3384 9.20872L36.4051 9.88372L34.5121 8.81497C34.5121 8.81497 34.5121 8.77747 34.5304 8.78685L36.4874 9.7431L34.7499 8.41185C34.7499 8.41185 34.7499 8.37435 34.7682 8.38372L36.5789 9.60247L35.0334 8.04622C35.0334 8.04622 35.0334 8.00872 35.0608 8.0181L36.6886 9.4806L35.3626 7.7181C35.3626 7.7181 35.3718 7.6806 35.39 7.69935L36.8075 9.37747L35.7284 7.44622C35.7284 7.44622 35.7467 7.40872 35.7558 7.42747L36.9447 9.2931L36.1308 7.2306C36.1308 7.2306 36.1491 7.1931 36.1582 7.21185L37.0819 9.22747L36.5515 7.07122C36.5515 7.07122 36.5789 7.0431 36.588 7.06185L37.2373 9.1806L36.9904 6.9681C36.9904 6.9681 37.0179 6.93997 37.027 6.9681L37.3928 9.16185L37.4477 6.93997C37.4477 6.93997 37.4842 6.92122 37.4842 6.93997L37.5574 9.16185L37.9049 6.9681C37.9049 6.9681 37.9415 6.94935 37.9415 6.9681L37.722 9.1806L38.353 7.05247C38.353 7.03372 38.3896 7.0431 38.3896 7.06185L37.8775 9.22747L38.7828 7.20247C38.7828 7.20247 38.8194 7.20247 38.8194 7.21185L38.0238 9.28372L39.1944 7.40872C39.1944 7.40872 39.2309 7.40872 39.2218 7.42747L38.161 9.3681L39.5693 7.67122C39.5693 7.67122 39.6059 7.67122 39.5967 7.68997L38.289 9.46185L39.9077 7.9806C39.9077 7.9806 39.9442 7.98997 39.9351 8.00872L38.4079 9.58372L40.2003 8.34622C40.2003 8.34622 40.2369 8.36497 40.2186 8.37435Z" fill="white"/>
<g style="mix-blend-mode:soft-light" opacity="0.56">
<path d="M72.5919 64.9242C71.3482 65.1773 69.8576 65.2898 68.1749 65.2992C68.3029 65.1773 68.4218 65.0461 68.5133 64.9242C69.9124 63.1523 68.2206 61.343 68.0286 60.0211C67.8274 58.6055 69.7478 57.3961 69.4735 55.6898C69.1991 53.9836 67.4067 52.5305 67.4067 52.5305C67.4067 52.5305 68.1109 43.0148 63.4103 41.6555C52.8753 38.618 52.1163 33.6211 55.0701 31.7742C58.0331 29.9273 57.777 25.943 56.7162 24.0398C54.5671 20.1305 45.1478 18.1242 44.5717 18.0117C50.1135 18.668 57.777 20.8148 63.1543 27.2086C69.9856 35.3273 72.4822 44.1305 73.2046 51.1992C73.2229 51.1992 73.2412 51.1992 73.2504 51.218C74.0368 51.5742 74.1649 52.6336 74.2746 54.1148C74.3569 55.1836 74.4301 56.468 74.7318 57.8836C75.5549 61.8211 74.302 64.568 72.5828 64.9242H72.5919Z" fill="#F0F2E6"/>
</g>
</svg>
