<svg width="54" height="60" viewBox="0 0 54 60" fill="none" xmlns="http://www.w3.org/2000/svg">
<path d="M43.6734 33.6043C41.5738 35.514 39.8341 37.4037 38.4343 39.2634C29.9358 50.3914 32.7153 59.9897 32.7153 59.9897C32.7153 59.9897 6.19999 40.3832 0.94092 20.9366C-0.738783 14.7177 -0.0189103 10.1285 1.92075 6.84907C6.05002 -0.139698 15.7483 -1.12952 19.7876 0.990102C27.3963 5.01939 28.986 17.7871 28.986 17.7871L29.016 17.6972C29.106 17.3472 29.4759 15.9575 30.2158 14.1978L30.2458 14.1278C31.9255 10.1085 35.4548 4.19954 41.6537 4.05956H41.6737C43.4334 4.02957 45.4131 4.45949 47.6327 5.5393C55.8412 9.5286 55.7313 22.7163 43.6834 33.6043H43.6734Z" fill="#FF4242"/>
<g style="mix-blend-mode:multiply" opacity="0.34">
<path d="M32.7153 59.9902C32.7153 59.9902 6.19999 40.3837 0.94092 20.9371C-0.738783 14.7182 -0.0189103 10.129 1.92075 6.84961C1.50082 12.4786 2.48065 21.0371 9.27945 30.4554C21.2173 46.9925 28.0161 53.1314 31.2956 48.0923C33.0553 45.3928 35.7348 41.7535 38.4343 39.2739C29.9358 50.4019 32.7153 60.0002 32.7153 60.0002V59.9902Z" fill="#C63AD9"/>
</g>
<g style="mix-blend-mode:multiply" opacity="0.34">
<path d="M41.6437 4.07006C34.8649 5.4998 32.2354 15.2981 30.9256 17.5577C29.6159 19.8173 28.986 17.7876 28.986 17.7876L29.016 17.6977L30.2157 14.1983L30.2457 14.1283C31.9254 10.109 35.4548 4.20003 41.6537 4.06006L41.6437 4.07006Z" fill="#C63AD9"/>
</g>
<g style="mix-blend-mode:lighten" opacity="0.59">
<path d="M9.22946 8.27836C6.30997 16.5369 10.6392 21.496 18.2479 25.7853C25.2466 29.7246 30.0458 40.6326 30.0458 40.6326C30.0458 40.6326 33.3152 32.794 38.7343 29.8945C44.1533 26.9951 54.2415 21.746 51.222 12.8775C49.5523 7.94842 46.4529 6.04875 42.4536 6.66864C38.4543 7.28853 34.1951 12.6376 32.2254 18.6265C30.2557 24.6155 31.1456 24.3555 28.4261 17.7967C26.7564 13.7774 23.6069 1.99946 15.0584 2.9493C12.2389 3.25924 9.87934 6.40869 9.21946 8.27836H9.22946Z" fill="#FF645C"/>
</g>
<path opacity="0.32" d="M47.3727 8.91903C50.0723 11.0387 51.732 15.6278 50.0523 18.6173C48.3726 21.6068 45.5331 23.9164 45.2431 22.3866C44.9532 20.8569 49.7223 18.6173 46.053 12.8583C45.0931 11.3586 40.114 10.8487 40.7739 9.23897C41.4338 7.62925 44.6632 6.7994 47.3627 8.91903H47.3727Z" fill="#FFE5E5"/>
<path opacity="0.66" d="M43.8433 9.41896C43.8433 9.41896 44.8033 8.21896 46.2033 8.91896C48.2833 9.95896 48.7333 11.909 48.4233 12.209C48.2033 12.419 47.7133 11.869 46.8933 10.609C46.0733 9.34896 43.7733 9.98896 43.8533 9.41896H43.8433Z" fill="#FFE5E5"/>
<path opacity="0.66" d="M49.0625 16.1485C48.8625 16.8385 49.8625 16.8385 50.0125 16.1485C50.1625 15.4585 50.3625 14.7885 50.0125 14.0685C49.7325 13.4885 48.8025 13.0485 48.7325 13.7385C48.6625 14.4285 49.4725 14.7185 49.0625 16.1485Z" fill="#FFE5E5"/>
</svg>
