<svg width="83" height="60" viewBox="0 0 83 60" fill="none" xmlns="http://www.w3.org/2000/svg">
<path d="M45.8024 57.4911C45.9224 57.7011 46.5222 57.6811 46.5222 57.6811C46.5222 57.6811 46.4722 57.951 46.7921 58.1209C46.8321 58.1409 46.882 58.1609 46.942 58.1809C47.2319 58.2809 47.7018 58.3009 48.2116 58.1509C48.2316 58.1509 48.2516 58.1409 48.2816 58.1309C48.2816 58.1309 48.3915 58.2009 48.5915 58.2809C48.5915 58.2809 48.6015 58.2809 48.6115 58.2809C49.1913 58.4608 50.081 58.6008 51.0907 58.2909C51.1606 58.2709 51.2306 58.2509 51.3006 58.2209C52.7801 57.7011 54.4396 56.8014 55.0993 54.5121C55.0993 54.5121 55.0993 54.5121 55.0993 54.5021C55.1193 54.4422 55.1393 54.3722 55.1493 54.3122C55.1593 54.2722 55.1693 54.2422 55.1693 54.2022C55.2993 53.6624 55.3692 53.0626 55.3792 52.3728C55.3792 52.3728 54.6095 53.0526 54.7494 53.6324C54.7494 53.6324 53.7498 52.3029 54.0297 51.6031C54.0297 51.6031 53.3799 52.4028 53.3799 52.7927C53.3799 52.7927 53.2899 51.6531 52.98 51.2532C52.98 51.2532 53 52.2829 52.7701 52.4928C52.7701 52.4928 52.5602 51.6731 52.1603 51.2732C51.7604 50.8733 51.3206 50.8533 51.3206 50.8533C51.3206 50.8533 52.0403 52.2129 51.8304 52.5128C51.8304 52.5128 51.4605 51.6431 50.5308 50.3535C50.4009 50.1736 50.8207 51.793 50.6008 51.6931C49.3912 51.1033 49.0013 49.1639 48.7914 48.2842C48.7914 48.2842 49.0713 52.1129 50.5908 52.5828C52.1103 53.0526 48.9214 55.8217 47.152 56.3415C46.5721 56.5215 46.4722 56.6514 46.2522 56.8014C46.2023 56.8314 46.1623 56.8714 46.1323 56.9013C46.1123 56.9213 46.1023 56.9313 46.0823 56.9513C46.0623 56.9713 46.0523 56.9813 46.0423 57.0013C45.9024 57.1513 45.8324 57.3212 45.8024 57.4811V57.4911Z" fill="#929472"/>
<path d="M45.7824 57.4408C45.7824 57.4408 45.7924 57.4807 45.8024 57.4907C45.9224 57.7007 46.5222 57.6807 46.5222 57.6807C46.5222 57.6807 46.4722 57.9506 46.7921 58.1205C46.8321 58.1405 46.8821 58.1605 46.9421 58.1805C47.232 58.2805 47.7018 58.3005 48.2116 58.1505C48.2316 58.1505 48.2516 58.1405 48.2816 58.1305C48.2816 58.1305 48.3916 58.2005 48.5915 58.2805C48.5915 58.2805 48.6015 58.2805 48.6115 58.2805C49.0514 58.4504 49.9211 58.6604 51.0907 58.2905C51.1607 58.2705 51.2306 58.2505 51.3006 58.2205C52.7801 57.7007 54.4396 56.801 55.0994 54.5117C54.6095 56.0012 52.7901 57.3408 51.6505 57.8806C50.4409 58.4604 49.2513 58.5704 49.1813 58.0705C49.1413 57.7207 49.4612 57.5207 49.8811 57.2708C49.4112 57.5407 48.7015 57.9706 47.9217 58.0006C47.9017 58.0006 47.8817 58.0006 47.8618 58.0006C47.7918 58.0006 47.7318 58.0006 47.6618 58.0006C46.7021 57.9106 46.8521 57.2508 47.032 57.0909C47.3019 56.8509 47.7618 56.631 48.0117 56.5111C47.7818 56.601 47.3619 56.781 46.992 56.9809C46.6022 57.1908 46.5522 57.4408 46.4222 57.4508C45.9824 57.4707 45.7924 57.2708 46.0424 56.9809C46.0523 56.9609 46.0623 56.9509 46.0823 56.9309C46.0923 56.9109 46.1123 56.9009 46.1323 56.8809C46.1723 56.841 46.2123 56.811 46.2523 56.781C45.8524 57.0009 45.7624 57.3008 45.7824 57.4008V57.4408Z" fill="#74755A"/>
<path d="M29.5578 58.6605C29.5578 58.6605 30.2276 59.4102 33.0766 58.8704C33.0766 58.8704 34.4762 59.4702 37.3352 59.0104C37.8051 58.9404 39.6145 57.2809 40.4342 55.9514C40.6042 55.6715 40.7341 55.4115 40.7941 55.1816C41.024 54.3619 41.5538 53.8021 41.5538 53.7421C41.5538 53.7421 41.6538 53.4322 41.7738 52.9823C42.0437 51.9827 42.3736 50.2832 41.7638 49.7334C41.7638 49.7334 40.914 48.8737 39.5645 48.4938C38.7348 48.2539 37.7251 48.2039 36.6055 48.6538C36.2856 48.7837 35.9557 48.9537 35.6158 49.1736C33.7764 50.3832 34.7961 51.7428 35.006 52.2426C35.006 52.2426 35.3159 52.5525 35.4958 53.0123C35.5558 53.1723 35.6058 53.3522 35.6258 53.5422C35.6658 53.932 35.5558 54.3719 35.146 54.8117C33.9763 56.0713 33.0866 56.3712 33.0866 56.3712C33.0866 56.3712 29.7377 56.2913 29.5378 58.2406C29.5278 58.3706 29.5278 58.5105 29.5378 58.6605H29.5578Z" fill="#B6B88E"/>
<path d="M21.6204 57.1415C21.6204 57.2614 21.6404 57.3814 21.6604 57.5114C21.6604 57.5114 22.3402 58.1112 24.8593 57.3414C24.8593 57.3414 26.1789 57.7413 28.7081 57.0315C29.1279 56.9116 30.5875 55.2421 31.1873 53.9525C31.2772 53.7526 31.3472 53.5727 31.3972 53.4027C31.4172 53.3427 31.4272 53.2828 31.4372 53.2228C31.5571 52.463 31.977 51.9032 31.967 51.8432C31.967 51.8432 32.3469 50.1238 32.1469 49.0142C32.087 48.6543 31.967 48.3544 31.7471 48.2044C31.7471 48.2044 29.7477 46.595 27.4085 47.5646C26.9986 47.7346 26.5788 47.9845 26.1489 48.3344C24.6194 49.614 25.6791 50.7336 25.919 51.1635C25.919 51.1635 25.989 51.2134 26.0789 51.3134C26.2589 51.4934 26.5188 51.8332 26.6088 52.2731C26.6787 52.623 26.6288 53.0328 26.3089 53.4627C25.3892 54.7223 24.6194 55.0822 24.6194 55.0822C24.6194 55.0822 21.5904 55.3521 21.6104 57.1415H21.6204Z" fill="#9FA17C"/>
<g style="mix-blend-mode:multiply">
<path d="M25.9289 51.153C25.9289 51.153 25.9989 51.203 26.0889 51.3029C26.6187 51.6328 27.1285 51.9027 27.3585 52.0627C27.7283 52.3426 27.9683 52.0427 28.3381 52.9224C28.6281 53.6222 30.4774 53.1523 31.4071 53.3723C31.4271 53.3123 31.4371 53.2523 31.4471 53.1923C31.5671 52.4326 31.9869 51.8728 31.9769 51.8128C31.9769 51.8128 32.3568 50.0933 32.1569 48.9837L27.4184 47.5342C27.0086 47.7041 26.5887 47.954 26.1589 48.3039C24.6294 49.5835 25.689 50.7031 25.9289 51.133V51.153Z" fill="#E5E4F5"/>
</g>
<g style="mix-blend-mode:multiply" opacity="0.38">
<path d="M35.026 52.2324C35.026 52.2324 35.3359 52.5423 35.5159 53.0021C35.6258 53.0121 35.3859 52.4723 35.4859 52.4823C35.6758 52.5023 36.1856 53.0821 36.2956 53.1021C36.5355 53.1521 36.1556 52.6023 36.4056 52.6023C36.8054 52.6023 37.8551 53.1521 38.4249 53.382C38.5349 53.422 37.6152 52.5623 37.9351 52.0225C38.055 51.8225 38.8148 52.1824 39.0947 52.1424C39.4146 52.1024 39.2446 51.6726 39.3246 51.6326C39.4146 51.5826 40.2443 53.432 40.3243 53.372C40.5542 53.2121 40.1943 51.9825 40.4442 51.9125C40.8541 51.8025 41.4139 53.0521 41.7938 52.9622C42.0637 51.9625 42.3936 50.263 41.7838 49.7132C41.7838 49.7132 40.9341 48.8535 39.5845 48.4736L36.6255 48.6336C36.3056 48.7635 35.9757 48.9335 35.6358 49.1534C33.7964 50.363 34.8161 51.7226 35.026 52.2224V52.2324Z" fill="#CBC9F5"/>
</g>
<path d="M21.6704 57.5112C21.6704 57.5112 22.3502 58.111 24.8594 57.3313C24.8594 57.3313 26.1789 57.7311 28.7081 57.0214C29.128 56.9014 30.5875 55.232 31.1873 53.9424C30.7474 54.7321 29.5778 56.1117 28.978 56.5415C28.4782 56.9114 27.2986 57.4612 25.7891 57.2613C25.1193 57.1713 25.0293 56.8514 25.2193 56.6015C25.4592 56.2916 26.109 56.0617 26.109 56.0617C26.109 56.0617 25.2093 56.3216 24.8794 56.6415C23.6398 57.8211 22.5001 57.5012 22.3102 57.3912C21.8903 57.1613 21.9003 56.3716 23.3399 55.8318C23.2799 55.8618 22.2702 56.1916 22.0103 56.5715C21.7304 56.9814 21.9103 57.3813 21.9103 57.3813C21.9103 57.3813 21.6804 57.3313 21.6104 57.1313C21.6104 57.2513 21.6304 57.3713 21.6604 57.5012L21.6704 57.5112Z" fill="#838566"/>
<path d="M7.62504 46.165C7.62504 46.165 7.62504 46.255 7.65503 46.395C7.81498 47.0048 8.87463 48.6542 15.5424 48.3743C15.6424 48.3743 15.7524 48.3743 15.8523 48.3643C24.3395 47.9444 27.4985 50.8835 27.4985 50.8835C27.4985 50.8835 27.7784 50.1137 27.3585 49.6039C27.3585 49.6039 29.3879 50.6535 29.6178 51.8931C29.6178 51.8931 30.4175 51.0934 29.6878 49.8338C29.6878 49.8338 31.3672 51.7232 31.2473 52.453C31.2473 52.453 31.967 51.7332 31.4572 50.8635C31.4572 50.8635 32.9967 51.7232 33.2966 53.0628C33.2966 53.0628 33.8564 52.1331 33.5265 51.4733C33.5265 51.4733 34.3662 52.333 34.6961 53.1527C34.6961 53.1527 35.106 52.9828 35.106 52.6129C35.106 52.5029 35.076 52.383 34.996 52.243C35.066 51.7432 36.0257 52.7429 36.0257 52.7429C35.3259 51.4133 36.4955 51.9931 36.4955 51.9931C37.0353 52.6929 37.975 53.0428 38.035 53.0628C37.5352 52.4929 36.9754 51.1034 36.9454 51.0134C37.5352 51.6832 38.9247 51.8432 38.9247 51.8432C38.5548 51.5632 37.6451 49.8138 38.5748 50.0637C39.5145 50.3237 39.9744 51.7432 39.9744 51.7432C40.3043 51.2534 40.2043 50.6735 40.2043 50.6735C41.094 51.4633 41.5339 53.7225 41.5339 53.7225C41.5339 53.7225 41.5339 53.7225 41.5539 53.7425C41.5539 53.7425 41.5539 53.7425 41.5639 53.7425C41.7938 53.8825 42.9934 54.6522 42.9734 55.352C42.9734 55.352 43.5732 54.9221 43.2733 54.2524C43.4932 54.6622 44.183 55.8518 44.8828 55.8718C44.8828 55.8718 44.203 55.222 44.3429 54.4523C44.3429 54.4523 45.3026 55.8518 46.7721 55.9518C48.1317 56.0418 48.4616 56.4716 48.5016 56.5416C48.4816 56.4516 48.3116 55.7319 47.222 55.402C47.222 55.402 49.3213 55.5419 49.7012 56.1517C49.7012 56.1517 50.071 55.9918 49.3513 54.9821C49.4113 55.0021 50.4409 55.382 50.9608 56.8715C50.9608 56.8715 51.5806 56.5016 51.2307 55.5619C51.3806 55.8918 52.0004 56.9915 53.7898 57.1314C53.7898 57.1314 53.5599 56.9215 53.4899 56.5216C53.4899 56.5216 55.5193 56.6416 55.8891 57.9012C55.8891 57.9012 56.5689 57.8112 56.289 57.0614C56.289 57.0614 59.6779 57.5313 63.2567 57.0414C65.246 56.7715 67.2854 56.1917 68.8349 55.0721C69.1048 54.8822 69.3547 54.6822 69.5846 54.4523C70.8242 53.2627 71.8139 52.403 72.5636 51.7332C72.5636 51.7332 72.5636 51.7332 72.5736 51.7232C74.2731 50.1837 74.7629 49.5439 74.2031 48.0144C74.1031 47.7545 73.1834 47.0048 71.6239 45.9251C66.4357 42.3063 54.2197 34.9087 42.4336 29.0507C28.0183 21.883 17.0919 21.3432 14.7127 24.1923C14.5827 24.3522 14.4528 24.5122 14.3428 24.6721C12.4435 27.3312 13.2332 29.7604 9.50442 33.3892C9.03458 33.8491 8.57473 34.3389 8.10488 34.8388C7.47509 35.5185 6.8453 36.2083 6.19551 36.8581C5.29581 37.7578 4.36612 38.5675 3.37644 39.1074C-5.17074 43.7858 7.58506 46.165 7.58506 46.165H7.62504Z" fill="#C7C99B"/>
<g style="mix-blend-mode:multiply">
<path d="M59.9578 57.2616C60.4876 57.2616 61.0574 57.2416 61.6472 57.2016C62.8368 56.5618 63.3966 55.7421 63.6166 55.3222C63.7065 55.1623 63.7365 55.0623 63.7365 55.0623L63.6765 54.9923L62.8468 53.9627L62.0471 53.3828L61.5572 53.033L61.0174 51.8733L60.7775 51.3535C60.7775 51.3535 60.7275 52.7031 60.9774 53.1929C61.2173 53.6827 61.9971 54.3725 61.7972 54.7924C61.6372 55.1423 60.3876 56.7317 59.9578 57.2716V57.2616Z" fill="#E5E4F5"/>
</g>
<g style="mix-blend-mode:multiply">
<path d="M41.6038 53.7524C41.8337 53.8923 43.0334 54.6621 43.0134 55.3618C43.0134 55.3618 43.6132 54.932 43.3133 54.2622C43.5332 54.6721 44.223 55.8617 44.9227 55.8817C44.9227 55.8817 44.243 55.2319 44.3829 54.4621C44.3829 54.4621 45.3426 55.8617 46.8121 55.9616C48.1717 56.0516 48.5015 56.4815 48.5415 56.5514C48.5215 56.4615 48.3516 55.7417 47.262 55.4118C47.262 55.4118 49.3613 55.5518 49.7411 56.1616C49.7411 56.1616 50.111 56.0016 49.3913 54.992C49.4512 55.012 50.4809 55.3918 51.0007 56.8813C51.0007 56.8813 51.6205 56.5115 51.2706 55.5718C51.4206 55.9017 52.0404 57.0013 53.8298 57.1413C53.8298 57.1413 53.5999 56.9313 53.5299 56.5315C53.5299 56.5315 55.5592 56.6514 55.9291 57.911C55.9291 57.911 56.6089 57.821 56.329 57.0713C56.329 57.0713 57.8685 57.2812 59.9678 57.2712C60.4976 57.2712 61.0674 57.2512 61.6572 57.2112C62.197 57.1812 62.7469 57.1213 63.2967 57.0513L63.6166 55.3418L63.6765 55.012L63.7965 54.3522L62.0471 53.4025L61.4273 53.0726L61.0174 51.893L60.5476 50.5234C60.5476 50.5234 60.6076 53.5524 60.3576 54.2522C60.1177 54.952 59.5879 54.7021 58.5382 54.932C57.4886 55.1619 58.9581 56.4615 58.2883 56.5514C57.6285 56.6414 56.6089 55.7017 54.7495 55.9816C52.8901 56.2515 51.9804 55.5718 50.7608 54.5621C49.5312 53.5624 48.2316 54.2622 48.2316 54.6821C48.2316 55.1019 47.3219 55.1419 45.8124 54.5421C44.3029 53.9423 43.0434 53.2225 42.9434 53.7724C42.8434 54.2722 41.7938 53.8623 41.5838 53.7724L41.6038 53.7524Z" fill="#E5E4F5"/>
</g>
<path d="M57.5786 59.6702C57.5786 59.6702 58.4383 59.9301 59.5879 59.5303C59.5879 59.5303 61.1074 60.42 62.9768 59.7502C64.4563 59.2304 66.1158 58.3307 66.7755 56.0414C66.7755 56.0414 66.7755 56.0414 66.7755 56.0314C66.7955 55.9714 66.8155 55.9015 66.8255 55.8415C66.8355 55.8015 66.8455 55.7715 66.8455 55.7315C66.9755 55.1917 67.0455 54.5919 67.0555 53.9021C67.0555 53.9021 66.2857 54.5819 66.4257 55.1617C66.4257 55.1617 65.426 53.8322 65.7059 53.1324C65.7059 53.1324 65.0561 53.9321 65.0561 54.322C65.0561 54.322 64.9661 53.1824 64.6562 52.7825C64.6562 52.7825 64.6762 53.8122 64.4463 54.0221C64.4463 54.0221 64.2364 53.2024 63.8365 52.8025C63.4366 52.4026 62.9968 52.3826 62.9968 52.3826C62.9968 52.3826 63.7166 53.7422 63.5066 54.0421C63.5066 54.0421 63.1368 53.1724 62.2071 51.8828C62.0771 51.7029 62.497 53.3223 62.277 53.2224C61.0674 52.6325 60.6776 50.6932 60.4676 49.8135C60.4676 49.8135 60.7475 53.6422 62.267 54.1121C63.7865 54.5819 60.6076 57.361 58.8282 57.8708C58.4183 57.9908 58.1284 58.1507 57.9285 58.3307C57.2687 58.9105 57.5686 59.6702 57.5686 59.6702H57.5786Z" fill="#B6B88E"/>
<path d="M57.5786 59.6708C57.5786 59.6708 58.4383 59.9307 59.5879 59.5308C59.5879 59.5308 61.1074 60.4205 62.9768 59.7508C64.4563 59.2309 66.1158 58.3312 66.7756 56.042C66.2857 57.5315 64.4663 58.8711 63.3267 59.4109C62.1171 59.9907 59.9578 59.7008 59.8978 59.201C59.8478 58.8211 60.7775 58.2313 61.2274 57.9614C60.7076 58.2513 59.458 58.8711 58.5283 58.941C57.8585 58.991 57.8285 58.6411 57.9385 58.3312C57.2787 58.911 57.5786 59.6708 57.5786 59.6708Z" fill="#838566"/>
<path d="M29.5578 58.6603C29.5578 58.6603 30.2276 59.41 33.0767 58.8702C33.0767 58.8702 34.4762 59.47 37.3352 59.0102C37.8051 58.9402 39.6145 57.2807 40.4342 55.9512C39.8544 56.7609 38.4049 58.1205 37.6951 58.5303C37.0953 58.8702 35.7358 59.3201 34.1063 58.9202C33.3865 58.7402 33.3266 58.3804 33.5665 58.1305C33.8764 57.8206 34.6061 57.6506 34.6061 57.6506C34.6061 57.6506 33.5865 57.8206 33.1866 58.1305C31.6871 59.2601 30.4775 58.7702 30.2776 58.6303C29.8477 58.3204 29.9577 57.4607 31.6071 57.0508C31.5372 57.0708 30.3975 57.3107 30.0576 57.6906C29.6978 58.1005 29.8477 58.5603 29.8477 58.5603C29.8477 58.5603 29.6078 58.4703 29.5478 58.2504C29.5378 58.3804 29.5378 58.5203 29.5478 58.6603H29.5578Z" fill="#929472"/>
<path d="M75.7327 14.8755C75.8527 14.7455 75.7827 14.8155 75.5927 14.9955C75.6427 14.9555 75.6927 14.9155 75.7327 14.8755Z" fill="#74755A"/>
<path d="M8.49475 21.0431L14.5927 24.1021L14.7527 24.182C14.7527 24.182 15.4725 24.6419 15.5424 25.2517C15.5424 25.2517 16.0323 24.0621 15.8723 23.5023C15.8723 23.5023 16.812 24.322 16.6621 25.7915C16.6621 25.7915 18.1616 24.412 18.1616 23.5722C18.1616 23.5722 18.8413 25.2317 18.6714 25.8815C18.6714 25.8815 19.3712 24.6919 19.4411 23.9221C19.4411 23.9221 19.911 25.0817 19.3012 26.0614C19.3012 26.0614 21.1906 24.6319 21.3305 23.8621C21.3305 23.8621 21.4905 24.9618 20.9107 25.7315C20.9107 25.7315 21.8703 25.5416 22.4801 24.5119C22.4801 24.5119 22.4102 25.9115 21.8503 26.3813C21.8503 26.3813 23.4598 26.1514 24.0496 24.9818C24.0496 24.9818 24.1196 26.1214 22.88 26.9711C22.88 26.9711 24.7694 26.7812 25.3992 25.8315C25.3992 25.8315 25.3792 27.181 24.2596 27.5609C24.2596 27.5609 25.6591 27.8408 26.2489 26.6012L25.6591 28.5206L29.8077 34.5086L32.7168 34.0888C32.7168 34.0888 31.8071 35.2084 31.897 35.1884C31.987 35.1684 33.8364 34.2787 34.0063 34.1987C33.8564 34.3087 32.4469 35.3284 33.0666 35.1684C33.7164 35.0085 35.7558 34.6586 35.7558 34.6586L34.4462 35.5483L37.1353 35.1784C37.1353 35.1784 36.2756 36.398 36.5255 36.398C36.7754 36.398 38.8148 36.448 38.8148 36.448L37.3152 37.1677H39.7444C39.7444 37.1677 43.7131 36.518 41.8637 37.0978C40.0244 37.6776 38.2449 38.1674 40.3942 37.9575C42.5435 37.7476 43.9031 37.8175 43.9031 37.8175L41.5638 38.4673L45.3626 37.8875L43.7131 38.7072H47.102C47.102 38.7072 44.133 39.7069 45.3526 39.477C46.5622 39.2471 49.9511 39.2471 49.9511 39.2471C49.9511 39.2471 49.6012 39.9268 50.4909 39.8769C51.3806 39.8269 52.4303 39.2671 51.3806 39.8269C50.331 40.3867 49.0914 40.7166 51.0507 40.7566C53.0101 40.8065 52.5702 40.8465 53.39 40.9165C54.2097 40.9865 57.8485 41.4263 57.8485 41.4263L55.4893 41.7962L58.7382 42.3061C58.7382 42.3061 61.4473 42.7459 60.5176 42.8659C59.5879 42.9858 59.8178 43.5656 61.3073 43.6356C62.8068 43.7056 66.1857 43.9155 64.4363 44.1954C62.6869 44.4753 62.377 44.5453 63.8265 44.7752C65.276 45.0052 68.265 44.8252 66.7455 45.435C65.226 46.0448 65.296 46.5347 66.5156 46.5746C67.7352 46.6246 71.534 46.5547 70.8342 47.1145C70.1344 47.6743 68.9848 48.0941 70.1544 48.514C70.5243 48.644 70.9142 48.7639 71.2541 48.8939C72.0038 49.1638 72.5336 49.4637 72.1338 49.9635C71.554 50.6833 73.8632 50.2834 72.6136 51.7229C72.6136 51.7229 72.6136 51.7229 72.6036 51.7329C72.6036 51.7329 74.7429 53.1025 75.7626 53.1025C75.7626 53.1025 74.9528 51.1031 74.1831 51.0332L77.2321 51.3831L75.3027 49.6336L78.4217 49.2138L75.8925 47.5343H79.9912L77.1921 46.3047L79.9912 45.8849C79.9912 45.8849 77.0122 45.0052 77.1921 44.9352C77.372 44.8652 81.2608 44.4753 81.2608 44.4753L76.7423 43.4257L80.631 43.0058L77.3021 41.7462H82.2404L78.4217 40.1368L82.0305 39.6069L77.422 39.0071C77.422 39.0071 80.9509 38.7672 80.8709 38.6273C80.8009 38.4873 76.9122 37.3277 76.9122 37.3277C76.9122 37.3277 82.4504 37.2877 81.5407 36.9378C80.631 36.5879 76.6723 35.7082 76.6723 35.7082C76.6723 35.7082 82.4504 35.7482 81.7506 35.4283C81.0508 35.1084 76.0725 33.8488 77.0222 33.8488C77.9718 33.8488 81.0908 33.5289 81.0908 33.5289L77.582 32.7592L81.6806 31.2897H77.422C77.422 31.2897 80.9109 29.2903 80.7709 29.2903H76.2524L76.8922 29.0304L80.7409 27.441C80.7409 27.441 77.0621 27.261 77.0621 27.1211C77.0621 26.9811 80.3511 25.1917 80.3511 25.1917H77.582L80.1411 23.3323L74.8129 23.7922L78.7016 20.5732L74.9928 21.6529L77.6919 19.0937L74.8529 19.7635L77.0222 16.4346L76.3924 16.6345L72.7436 17.8041C72.7436 17.8041 74.8829 15.6648 75.5726 14.9951C74.7429 15.6448 71.9038 16.9244 71.8039 16.9644C71.8938 16.8145 75.4227 10.7465 73.5133 12.5859C71.584 14.4452 68.6449 15.105 68.6449 15.105C68.6449 15.105 73.7232 9.21696 72.4337 10.4066C71.1341 11.5962 67.8752 13.1357 67.8752 13.1357C67.8752 13.1357 70.3943 8.05734 68.9248 9.94672C67.5053 11.7761 65.6759 13.1857 65.5659 13.2656C65.6859 13.0557 69.3547 6.53785 67.8752 8.60716C66.3657 10.7065 64.9361 11.8361 64.9361 11.8361L65.9558 8.36724L63.8865 10.5765L64.2364 7.84741L62.7968 9.59684L63.6366 6.26793L61.8172 9.4169C61.8672 9.22696 62.6869 6.068 62.5869 6.26793C62.4869 6.47786 60.6576 8.43722 60.6576 8.43722L61.6072 4.57849L59.328 6.6778C59.328 6.6778 60.3077 3.73877 60.0977 4.04867C59.8878 4.36856 56.9788 7.12765 56.9788 7.12765L57.8885 4.01867L55.7192 6.21795C55.7192 6.21795 57.1587 2.50917 56.9788 2.64913C56.8088 2.78908 54.3596 5.89806 54.2497 6.04801C54.2996 5.91805 56.0291 1.56948 55.8591 1.73943C55.6892 1.91937 52.2903 5.34824 52.2903 5.34824L53.4099 3.38888L49.8011 5.62814C49.8011 5.62814 52.4703 2.24926 52.6402 2.01933C52.4303 2.25926 48.4216 5.1483 48.3016 5.23827C48.3816 5.11831 50.9607 1.10963 50.7508 1.24959C50.5409 1.38954 46.8621 4.8584 46.8621 4.8584L47.9817 1.24959L45.4926 4.01867L46.2923 0.93969L44.5029 4.33857L44.4329 0.869713L41.7038 5.07833L42.1237 1.28957L42.2636 0L40.1943 5.21828L39.9544 1.28957L37.8151 5.49819L38.195 1.22959L35.4958 5.60815C35.4958 5.60815 35.7758 0.179941 35.7458 0.489838C35.7058 0.809733 33.2166 5.21828 33.2166 5.21828C33.2166 5.21828 33.4565 0.449852 33.2166 1.46952C32.9767 2.48918 31.897 5.35823 31.897 5.35823C31.897 5.35823 31.867 0.419862 31.6571 1.67945C31.4472 2.93903 30.4275 6.50785 30.4275 6.50785L29.1579 1.84939L28.1483 6.33791L26.6488 2.51917L26.6788 6.02801L25.2092 3.11897L25.7691 6.54784L23.7397 3.11897L23.8797 6.44787L21.2505 3.29891L22.0903 7.99736L20.1609 5.04834L21.1106 9.11699L19.2512 6.90772L20.0609 10.4466L18.6914 8.76711L18.5814 11.5762L16.5521 7.8974L17.0119 11.5762L15.0126 9.50687L16.4121 13.2856L13.683 10.3066L15.3625 14.0554L12.9133 11.1463L14.7327 15.245L12.1435 13.0057L13.823 17.0344L10.884 14.3753L12.4634 18.5439L9.69436 16.3346L12.0736 20.2633L9.02458 17.8141L12.5334 22.2327L8.50475 21.0431H8.49475Z" fill="#74755A"/>
<path d="M7.62504 46.1648C7.62504 46.1648 7.62504 46.2548 7.65503 46.3947C7.72501 46.6546 7.94494 47.0845 8.6647 47.4844C9.67437 48.0442 11.6537 48.534 15.5524 48.3741C13.9729 48.3341 13.5331 48.0542 13.5331 48.0542C15.3825 47.8143 15.8723 47.0745 15.8723 47.0745C13.4831 47.7343 10.5941 46.0348 12.6234 46.5247C14.6527 47.0145 17.0719 44.7952 15.6024 45.535C14.1329 46.2748 10.734 44.4454 13.1532 44.5153C15.5724 44.5853 17.6018 42.7659 15.9523 43.1858C14.3028 43.6056 12.4135 42.2761 14.5128 42.1361C16.6121 41.9962 16.862 41.1864 16.862 41.1864C15.0326 41.9662 14.3128 41.0865 14.3128 41.0865C16.2122 41.0865 16.822 40.0668 16.862 40.0068C15.7024 40.4967 13.3032 40.4567 13.3032 40.4567C14.2529 40.2467 13.4831 39.7969 15.9523 39.2871C18.4315 38.7872 18.2415 35.5883 16.872 34.9085C15.4924 34.2287 12.0136 34.9885 10.1542 37.0578C8.29482 39.1271 7.31514 38.0775 7.31514 38.0775C9.00459 37.6676 8.89462 35.6982 8.22484 36.388C7.87496 36.7479 7.01524 36.8479 6.26549 36.8679C5.9356 37.1978 5.60571 37.5176 5.26582 37.8175C4.67601 38.3274 4.07621 38.7772 3.44642 39.1271C-5.10076 43.8056 7.65503 46.1848 7.65503 46.1848L7.62504 46.1648Z" fill="#C2C498"/>
<path d="M7.62502 46.1644C7.62502 46.1644 7.62502 46.2544 7.65501 46.3943C7.72498 46.6542 7.94491 47.0841 8.66467 47.484C8.67467 47.394 8.76464 47.314 8.99456 47.254C9.76431 47.0441 10.8639 47.224 11.3538 46.9042C11.8436 46.5743 11.0239 46.5743 11.8636 45.9245C12.7033 45.2747 11.6537 45.5246 11.6537 45.5246C9.99423 45.3147 11.0739 44.7749 11.0739 44.7749C13.853 43.6752 9.15451 43.8851 9.15451 43.8851C9.15451 43.8851 9.97424 43.4153 10.9439 43.2054C13.2832 42.6955 8.42475 42.1357 8.42475 42.1357C8.42475 42.1357 7.46507 42.3956 9.94425 40.8062C12.4234 39.2167 9.71433 40.6662 8.10486 40.8561C6.49539 41.0461 6.30545 40.3663 8.01489 39.9964C9.71433 39.6266 9.46441 38.4769 8.50473 39.0567C7.54504 39.6365 4.27612 39.1267 5.21581 38.6069C6.1455 38.0871 6.66533 37.4473 6.66533 37.4473C6.66533 37.4473 5.8556 37.6572 5.2458 37.8171C4.65599 38.327 4.05619 38.7768 3.4264 39.1267C-5.12078 43.8052 7.63501 46.1844 7.63501 46.1844L7.62502 46.1644Z" fill="#BBBD92"/>
<path d="M1.07719 43.576C1.81694 44.3057 2.69665 44.8256 2.8666 44.6756C3.14651 44.4057 3.44641 44.0658 3.73631 43.606C4.58603 42.2464 4.44608 41.3667 3.99623 40.8069C3.38643 40.0371 2.19682 39.8672 2.19682 39.8672C2.19682 39.8672 0.437399 40.0471 0.0375311 41.4367C-0.152406 42.0965 0.407409 42.9262 1.06719 43.586L1.07719 43.576Z" fill="#47193F"/>
<path d="M3.13676 42.4866C3.13676 42.4866 2.32676 42.4466 2.29676 43.2966C2.26676 44.1466 2.87676 44.6766 2.87676 44.6766C2.87676 44.6766 2.66676 43.4366 3.14676 43.0766C3.62676 42.7166 3.51676 42.6166 3.14676 42.4966L3.13676 42.4866Z" fill="#2E1029"/>
<path d="M1.0772 43.576C1.02722 43.486 0.287462 42.1064 2.06688 42.0465C3.2065 42.0065 3.76631 41.2767 4.00624 40.8069C3.39644 40.0371 2.20683 39.8672 2.20683 39.8672C2.20683 39.8672 0.447409 40.0471 0.0475409 41.4367C-0.142397 42.0965 0.417419 42.9262 1.0772 43.586V43.576Z" fill="#571F4D"/>
<path d="M7.65505 46.3849C8.37481 46.4849 10.844 46.7748 11.8637 45.915C11.7037 46.005 10.5041 46.6648 7.62506 46.165C7.62506 46.165 7.62506 46.2549 7.65505 46.3949V46.3849Z" fill="#855B46"/>
<path d="M14.193 35.8876C14.8928 34.8979 16.3823 34.4281 17.372 35.1678C18.3617 35.9076 18.4017 37.4271 17.8318 38.2868C17.5419 38.7167 16.9321 39.1965 15.9325 39.2765C15.0927 39.3465 14.383 39.0066 14.1031 38.7267C13.4533 38.0669 13.6132 36.7173 14.193 35.8876Z" fill="#3E1506"/>
<path d="M17.2538 38.5972C17.973 37.8875 17.9335 36.6815 17.1657 35.9034C16.3978 35.1253 15.1924 35.0698 14.4732 35.7795C13.7541 36.4892 13.7936 37.6952 14.5614 38.4733C15.3292 39.2514 16.5347 39.3069 17.2538 38.5972Z" fill="#FBFCFA"/>
<path d="M15.9037 39.0445C16.9028 39.0229 17.6948 38.1775 17.6727 37.1564C17.6506 36.1352 16.8228 35.325 15.8237 35.3466C14.8246 35.3682 14.0326 36.2135 14.0547 37.2347C14.0768 38.2558 14.9047 39.0661 15.9037 39.0445Z" fill="#104F46"/>
<path d="M15.894 38.5856C16.6504 38.5693 17.2502 37.9338 17.2336 37.1663C17.217 36.3988 16.5903 35.7899 15.8338 35.8063C15.0774 35.8227 14.4776 36.4581 14.4942 37.2256C14.5108 37.9931 15.1375 38.602 15.894 38.5856Z" fill="#3E1506"/>
<path d="M16.9844 37.2123C17.305 37.0921 17.4989 36.8185 17.4174 36.6013C17.3359 36.3841 17.01 36.3056 16.6894 36.4258C16.3688 36.5461 16.1749 36.8196 16.2564 37.0368C16.3378 37.254 16.6638 37.3326 16.9844 37.2123Z" fill="white"/>
<path d="M25.1392 29.76C25.2892 30.1599 25.759 30.2898 25.819 30.2898C25.819 30.2898 25.869 30.3398 25.929 30.4298C26.2689 30.9396 27.2985 32.709 27.4785 33.5587C27.5085 33.6887 27.5185 33.8087 27.4985 33.8886C27.3985 34.3285 27.6584 34.5784 27.8584 34.7084C27.9683 34.7783 28.0683 34.8083 28.0683 34.8083C28.0683 34.8083 29.2279 34.6984 30.4775 34.3085C32.3869 33.7087 33.5965 31.7893 33.2366 29.78C33.0766 28.8503 32.5668 27.9006 31.6471 27.0509C28.2082 23.8719 25.1292 29.3101 25.1292 29.3101C25.0893 29.4901 25.1093 29.64 25.1492 29.77L25.1392 29.76Z" fill="#C7C99B"/>
<path opacity="0.49" d="M25.819 30.2899C25.819 30.2899 25.869 30.3399 25.929 30.4299C26.2689 30.9397 27.2985 32.7091 27.4785 33.5588C27.5085 33.6888 27.5185 33.8088 27.4985 33.8887C27.4985 33.8887 28.7381 33.9987 29.2479 33.9687C29.7577 33.9287 29.8477 33.8088 29.9876 33.5888C30.1276 33.3589 30.5175 33.3789 30.8674 33.2689C31.2172 33.159 31.5671 32.5692 31.7071 32.3193C31.847 32.0793 32.2169 31.6395 32.3769 31.2496C32.5368 30.8597 32.2869 30.5998 32.4768 30.2C32.6668 29.8001 32.3369 29.6201 32.057 29.1803C31.7771 28.7404 31.827 28.7804 31.4772 28.1106C31.1273 27.4509 30.3875 27.6908 30.3875 27.6908C29.9676 27.7608 30.0076 27.2909 29.3878 27.2309C28.778 27.181 29.1579 27.3009 28.6681 27.3009C28.1782 27.3009 28.2782 27.4009 27.9683 27.7208C27.6484 28.0407 27.5984 28.0007 27.2485 28.3306C26.8987 28.6605 26.9287 28.5405 26.7187 28.9804C26.5088 29.4202 25.809 30.2799 25.809 30.2799L25.819 30.2899Z" fill="#E0768C"/>
<path opacity="0.49" d="M25.929 30.4393C26.2689 30.9491 27.2985 32.7185 27.4785 33.5682C27.7184 33.5682 27.9983 33.5682 28.3182 33.5382C29.038 33.4483 29.5278 33.4283 29.7877 32.6385C30.0476 31.8488 30.0676 31.9688 30.8774 31.5989C31.6871 31.229 31.1972 30.6692 31.0573 30.2493C30.9173 29.8295 30.7574 29.7395 30.1076 28.9697C29.7577 28.5499 29.4478 28.5999 29.018 28.5699C28.6681 28.5499 28.2282 28.3899 27.6384 28.6499C26.7887 29.0197 26.2189 29.8794 25.929 30.4393Z" fill="#E05A75"/>
<path d="M27.8584 34.7086C27.9684 34.7786 28.0683 34.8086 28.0683 34.8086C28.0683 34.8086 29.2279 34.6987 30.4775 34.3088C32.3869 33.709 33.5965 31.7896 33.2366 29.7803C33.2966 30.4301 33.2166 30.8999 33.1367 31.2298C32.9867 31.8896 32.3769 33.0992 31.3373 33.649C30.2976 34.1988 28.7081 34.5687 27.8684 34.6986L27.8584 34.7086Z" fill="#9A9C78"/>
<path opacity="0.58" d="M25.1392 29.76C25.2892 29.4401 25.899 28.4604 27.3385 27.2208C28.5481 26.1712 29.9077 26.4011 30.4975 26.611C31.2572 26.881 32.0869 27.5007 32.6767 28.5004C32.8967 28.8703 33.1966 29.71 33.2266 29.78C33.0666 28.8503 32.5568 27.9006 31.6371 27.0509C28.1982 23.8719 25.1192 29.3101 25.1192 29.3101C25.0793 29.4901 25.0992 29.64 25.1392 29.77V29.76Z" fill="#E1E3AF"/>
<path d="M27.9383 29.1702C27.9383 29.1702 26.8787 29.2201 25.819 30.2898L26.2289 31.1595C26.2289 31.1595 27.2885 33.1788 27.5085 33.8786C27.5085 33.8786 28.918 33.9486 29.2079 33.5487C29.2079 33.5487 28.2682 33.7286 27.8684 33.4287C27.8684 33.4287 28.0883 32.8689 28.898 32.709C28.898 32.709 28.2082 32.5191 27.6684 32.4991C27.1286 32.4791 28.2882 30.6996 29.078 30.5397C29.078 30.5397 28.6681 30.3798 27.0086 31.7093C27.0086 31.7093 26.5388 31.0095 27.2985 30.5897C28.0583 30.1698 28.3882 30.5897 28.3882 30.5897C28.3882 30.5897 28.2982 30.1898 27.4185 30.3198C26.5388 30.4497 26.5288 30.7196 26.5288 30.7196C26.5288 30.7196 26.4888 30.2998 27.0986 30.0799C27.7084 29.8599 28.0483 29.8299 28.0483 29.8299C28.0483 29.8299 27.3685 29.73 26.8787 30.0299C26.4988 30.2598 26.3489 30.1098 26.4788 29.9999C26.7787 29.75 27.9383 29.1602 27.9383 29.1602V29.1702Z" fill="#D4D6A5"/>
<path d="M25.6491 30.3302L25.8091 30.3002C25.8091 30.3002 25.949 30.2202 26.139 30.2602C26.3289 30.3002 26.4089 30.1702 26.4089 30.5101C26.4089 30.85 26.4989 31.1999 26.6688 31.3898C26.8388 31.5798 26.6888 31.4898 26.9087 31.9597C27.1287 32.4295 27.3686 32.4395 27.4086 32.7494C27.4486 33.0593 27.4286 33.1693 27.4486 33.2992C27.4685 33.4292 27.6985 33.5491 27.6385 33.6991C27.5785 33.849 27.4885 33.899 27.4885 33.899C27.4885 33.899 27.0087 34.1589 26.7688 33.6291C26.5289 33.0993 25.4892 30.7501 25.4892 30.7501L25.6391 30.3402L25.6491 30.3302Z" fill="#C7C99B"/>
<path d="M21.0306 11.4361C21.2605 10.6264 24.7094 4.6084 24.7094 4.6084L23.5798 11.0663L30.4975 6.91764L27.9583 12.9856L34.946 6.80767L32.5368 10.3365L38.3849 7.65739L34.5262 11.3262L41.3839 7.78735C41.3839 7.78735 36.9854 12.1759 37.8151 11.5561C38.6448 10.9363 48.5815 7.17755 48.5815 7.17755L45.9224 10.3465L50.251 8.25719L48.7615 10.1066L57.3486 7.96729L51.3906 10.4465L58.5382 9.41681L53.9398 11.4261L61.4773 10.3465L57.1887 12.0659C57.1887 12.0659 65.6059 10.8164 63.6366 11.4461C61.6672 12.0759 58.7682 13.0656 58.7682 13.0656C58.7682 13.0656 67.9951 11.916 64.8562 12.7257C61.7172 13.5355 62.7569 15.2049 62.7569 15.2049L62.0071 13.5355L57.7085 13.4555L58.0984 12.6457L55.4393 12.6957L56.379 11.5461L52.4703 12.1059L53.7698 10.9963L49.0614 11.746L51.1407 10.9763L48.1917 11.3062C48.1917 11.3062 50.5609 10.3765 50.061 10.4965C49.5612 10.6164 46.1623 11.4162 46.0624 11.4261C45.9624 11.4361 47.4419 10.2165 47.4419 10.2165L43.9131 11.1063L46.1223 9.41681L42.8634 10.5464C42.8634 10.5464 45.1027 8.71704 44.4029 9.23687C43.7031 9.7567 40.5342 11.0463 40.5342 11.0463L41.4839 10.2765L37.5152 11.866L38.5348 10.0666C38.5348 10.0666 36.6955 11.2062 36.7254 11.1063C36.7554 11.0063 37.3752 10.2365 37.3152 10.3165C37.2553 10.3965 34.0463 11.7061 34.0463 11.7061L34.6261 10.1366L33.0467 10.9763L33.3965 10.2865L31.6571 11.1762L32.2469 9.67673L30.2476 12.0359L30.4075 11.1862C30.4075 11.1862 28.4582 13.3555 28.5681 13.1956C28.6781 13.0356 28.948 12.4058 28.948 12.4058L27.5085 13.6954L27.8584 11.946C27.8584 11.946 26.3889 12.7757 26.4488 12.7357C26.5088 12.6957 28.3582 9.95663 28.3582 9.95663L25.979 11.6461L27.8284 9.06693L23.1599 11.7161L23.5098 9.06693L22.7101 10.4065L23.1899 7.83733L20.9906 11.4062L21.0306 11.4361Z" fill="#6E6E55"/>
<path d="M64.3664 27.5811L68.435 27.9109L66.0458 28.5008L72.3537 31.0299L69.3747 31.8896L74.1131 33.0792L69.5547 33.9789L75.3727 35.3485L70.3244 36.3682L75.3727 37.0479L71.0142 38.3075L74.473 38.5974L71.0142 39.2872L75.0229 40.6867L71.484 41.4565L72.2838 40.7567L69.8646 39.1073L71.3041 38.7974L70.0445 38.3375L72.0738 37.4978L69.4147 36.2682L72.0738 35.5684L68.3251 34.1289L70.7843 33.1492L67.9752 32.1695L70.1145 31.0899L66.9255 30.5301L68.2551 30.3501L65.0661 28.7707L66.0158 28.1809L64.3664 27.5811Z" fill="#6E6E55"/>
<path d="M35.9257 26.4311L39.5845 24.8916L38.4948 27.4508L43.7931 26.0812L42.3535 28.8903L46.7621 26.651L44.8327 30.3698L50.181 27.5407L46.7521 32.1192L51.2906 30.5597L48.8614 33.3088L52.3702 31.9593L49.6711 34.1685L54.4196 34.0086L51.8104 35.728L52.5802 34.6384L49.3512 34.4085L49.4712 33.5387L48.1816 34.0186L48.9514 31.8793L46.0123 32.659L48.0916 29.3901L44.4029 30.7397L45.0826 28.3605L41.5738 30.0999L42.2236 27.6807L39.4545 29.4001L41.024 27.5007L38.1449 27.9106L38.4448 25.9113L35.9257 26.4311Z" fill="#6E6E55"/>
<path d="M36.4056 17.3443L34.6462 18.0141L38.3849 15.5649L36.6055 17.5443L41.364 14.2354L41.304 17.7042L46.0624 15.415L42.5436 19.0438L48.3617 16.1547L44.4829 20.2034L49.2514 17.3343L46.1024 21.0831L49.2814 19.0038L46.6122 21.7729L50.8508 20.1034L48.3517 22.8225L52.5403 22.0928L50.441 23.4923L57.3987 23.6223L54.4297 25.1717L59.7079 24.8519L55.0794 26.8812L61.5473 26.4113L56.429 28.6906L61.9272 27.8409L57.5986 30.1201L61.3274 29.4004L57.8185 30.9498L64.0465 31.9495L60.0178 33.0691L61.0475 32.2094L57.1787 31.2697L58.0085 30.45L56.569 30.42L58.5383 29.1404L55.4393 28.8605L58.1084 27.521L53.8199 27.361L56.1991 25.8415L53.0101 25.8015L55.0295 24.292L51.5306 24.7119L52.9002 24.1921L50.0611 23.6522L50.5809 22.7026L48.1617 22.9625L48.5016 21.9528L46.4123 21.9828L46.6122 21.233L45.2627 21.7529L46.6022 19.8235L43.6332 20.7332L45.5926 18.4839L41.5539 19.9635L43.1834 17.6542L40.2243 18.8238L40.5442 16.1247L38.4349 18.374L39.1547 16.5146L35.8858 18.384L36.4056 17.3443Z" fill="#6E6E55"/>
<path d="M15.5824 21.0627L15.8523 15.6445L17.6717 19.1433L18.5314 15.6445L19.891 17.2839L21.5304 15.2246L21.0206 17.7438L24.7094 16.1043L22.5101 18.5835L27.7884 17.084C27.7884 17.084 23.6797 19.7031 23.9097 19.7031C24.1396 19.7031 30.0776 19.5132 30.0776 19.5132C30.0776 19.5132 22.88 21.1027 24.7094 21.0527C26.5388 21.0027 33.5865 21.9824 33.5865 21.9824L26.1589 22.6322C26.1589 22.6322 33.3965 23.5219 33.0266 23.6118C32.6568 23.7018 24.5994 23.3819 24.5994 23.3819L27.0986 21.9824L23.2699 21.3526L24.5994 20.3029L22.5701 20.113L23.7797 18.8534L21.3005 19.4232L22.3702 18.1037L20.5008 18.7534L20.6907 17.214L19.3312 18.7135L18.9613 16.8441L17.6817 20.063L16.2522 17.9137L15.5924 21.0427L15.5824 21.0627Z" fill="#898A6A"/>
<g style="mix-blend-mode:soft-light" opacity="0.15">
<path d="M8.49475 21.0436L14.5927 24.1026C14.8127 23.8926 14.9126 23.5328 14.8627 22.9629C14.6327 20.4838 16.872 24.6424 17.2019 22.9629C17.5318 21.2835 18.3215 23.8926 18.6014 22.4031C18.8813 20.9136 21.9703 21.8433 21.9703 21.8433C21.9703 21.8433 28.6081 20.6737 28.1383 17.4548C27.6684 14.2358 34.5362 15.5354 34.5362 15.5354C34.5362 15.5354 34.6761 14.2758 33.5765 12.5464C32.4768 10.8169 35.8357 11.8966 39.0147 11.6567C42.1936 11.4168 40.0843 10.9569 39.3446 9.87726C38.5948 8.79761 41.6338 8.56769 41.6338 8.56769C41.6338 8.56769 44.3929 6.92823 44.253 5.94855C44.113 4.96888 39.1646 9.02754 41.2639 3.93922C41.6938 2.89956 41.9837 2.02985 42.1337 1.31008L42.2736 0.0205078L40.2043 5.23879L39.9644 1.31008L37.8251 5.51869L38.205 1.2501L35.5058 5.62866C35.5058 5.62866 35.7858 0.200448 35.7558 0.510346C35.7158 0.830241 33.2266 5.23879 33.2266 5.23879C33.2266 5.23879 33.4665 0.47036 33.2266 1.49002C32.9867 2.50969 31.907 5.37874 31.907 5.37874C31.907 5.37874 31.877 0.440369 31.6671 1.69995C31.4572 2.95954 30.4375 6.52836 30.4375 6.52836L29.1679 1.8699L28.1583 6.35842L26.6588 2.53968L26.6888 6.04852L25.2192 3.13948L25.7791 6.56835L23.7497 3.13948L23.8897 6.46838L21.2605 3.31942L22.1003 8.01787L20.1709 5.06884L21.1206 9.1375L19.2612 6.92823L20.0709 10.4671L18.7014 8.78762L18.5914 11.5967L16.5621 7.9179L17.0219 11.5967L15.0226 9.52737L16.4221 13.3061L13.693 10.3271L15.3725 14.0759L12.9233 11.1668L14.7427 15.2655L12.1535 13.0262L13.833 17.0549L10.894 14.3958L12.4734 18.5644L9.70435 16.3551L12.0836 20.2838L9.03457 17.8346L12.5434 22.2532L8.51474 21.0636L8.49475 21.0436Z" fill="#D4D6A7"/>
</g>
<g style="mix-blend-mode:soft-light" opacity="0.36">
<path d="M8.1449 34.8388C9.18455 34.8687 10.6241 34.9087 10.994 34.8388C11.5238 34.7388 13.0633 33.1893 14.043 32.8394C15.0226 32.4895 15.8624 32.2796 16.4921 31.7498C17.1219 31.2199 19.0213 29.7504 19.2612 29.0207C19.5012 28.2909 18.4215 28.5008 18.6314 27.2313C18.8414 25.9717 16.7021 27.4712 16.842 26.5615C16.952 25.8117 15.1626 25.022 14.3828 24.6621C12.4835 27.3212 13.2732 29.7504 9.54444 33.3792C9.07459 33.8391 8.61474 34.3289 8.1449 34.8288V34.8388Z" fill="#FDFFC7"/>
</g>
<g style="mix-blend-mode:multiply">
<path d="M68.8749 55.0715C69.1448 54.8816 69.3947 54.6817 69.6246 54.4517C70.8642 53.2621 71.8539 52.4024 72.6037 51.7326C72.6037 51.7326 74.7429 53.1022 75.7626 53.1022C75.7626 53.1022 74.9529 51.1028 74.1831 51.0329L77.2321 51.3828L75.3028 49.6333L78.4217 49.2135L75.8926 47.534H79.9912L77.1921 46.3044L79.9912 45.8846C79.9912 45.8846 77.0122 45.0049 77.1921 44.9349C77.3721 44.8649 81.2608 44.475 81.2608 44.475L76.7423 43.4254L80.631 43.0055L77.3021 41.7459H82.2405L78.4217 40.1365L82.0305 39.6066L77.4221 39.0068C77.4221 39.0068 80.9509 38.7669 80.8709 38.627C80.8009 38.487 76.9122 37.3274 76.9122 37.3274C76.9122 37.3274 82.4504 37.2874 81.5407 36.9375C80.631 36.5876 76.6723 35.7079 76.6723 35.7079C76.6723 35.7079 82.4504 35.7479 81.7506 35.428C81.0509 35.1081 76.0725 33.8485 77.0222 33.8485C77.9719 33.8485 81.0909 33.5286 81.0909 33.5286L77.582 32.7589L81.6807 31.2894H77.4221C77.4221 31.2894 80.9109 29.29 80.771 29.29H77.0222L73.8932 30.2997L76.5124 31.1394L74.0832 32.2391L76.5124 32.8489L75.1128 33.5686L76.3024 34.8582L73.8532 36.3277L75.7226 36.7776L73.9732 38.1071L75.8926 39.1368C75.8926 39.1368 74.1931 39.8566 73.7633 39.9765C73.5133 40.0465 76.3124 41.9159 76.3124 41.9159C76.3124 41.9159 73.6533 41.8559 73.6233 42.1758C73.6033 42.4057 75.4727 43.1255 75.4727 43.1255L73.0635 43.5953L74.8429 44.8549C74.8429 44.8549 71.8039 45.8546 71.6839 45.8946C70.8042 46.2145 71.3641 46.9142 71.7839 48.0439C71.9539 48.5037 71.684 48.7236 71.2741 48.8736C70.6743 49.0935 69.7946 49.1435 69.5447 49.5234C69.1848 50.0632 71.3741 51.8126 68.8949 55.0615L68.8749 55.0715Z" fill="#E5E4F5"/>
</g>
<g style="mix-blend-mode:multiply">
<path d="M77.0621 27.1406C77.0621 27.0006 80.351 25.2112 80.351 25.2112H77.5819L80.1411 23.3518L74.8128 23.8117L78.7015 20.5927L74.9928 21.6724L77.6919 19.1132L74.8528 19.783L77.0221 16.4541L76.3923 16.654C76.0424 17.2838 75.3527 17.9636 74.143 18.6334C69.8645 21.0126 71.204 21.9223 71.204 21.9223L73.5133 20.9726C73.5133 20.9726 72.2937 22.1122 71.0941 23.3618C70.7642 23.7017 74.1131 22.942 73.8132 23.2819C73.4133 23.7417 72.3136 24.4015 71.264 25.0013C70.8841 25.2212 75.5826 25.0413 75.2427 25.2412C74.4429 25.7011 72.6135 26.8307 72.7235 26.9207C73.0334 27.1906 75.8725 26.5008 75.8725 26.5008L75.2027 27.5704C75.2027 27.5704 77.202 27.7904 77.282 28.0003C77.432 28.3902 76.6122 28.96 76.8921 29.04L80.7409 27.4505C80.7409 27.4505 77.0621 27.2705 77.0621 27.1306V27.1406Z" fill="#E5E4F5"/>
</g>
</svg>
