<svg width="77" height="56" viewBox="0 0 77 56" fill="none" xmlns="http://www.w3.org/2000/svg">
<path d="M42.4816 53.1717C42.5914 53.3639 43.1406 53.3456 43.1406 53.3456C43.1406 53.3456 43.0949 53.5928 43.3878 53.7484C43.4244 53.7667 43.4702 53.785 43.5251 53.8033C43.7905 53.8948 44.2208 53.9131 44.6876 53.7758C44.7059 53.7758 44.7242 53.7667 44.7517 53.7575C44.7517 53.7575 44.8523 53.8216 45.0354 53.8948C45.0354 53.8948 45.0446 53.8948 45.0537 53.8948C45.5846 54.0596 46.3993 54.1877 47.3238 53.904C47.3879 53.8857 47.452 53.8674 47.5161 53.8399C48.8708 53.3639 50.3903 52.5401 50.9944 50.4439C50.9944 50.4439 50.9944 50.4439 50.9944 50.4348C51.0127 50.3798 51.031 50.3158 51.0402 50.2608C51.0493 50.2242 51.0585 50.1968 51.0585 50.1601C51.1775 49.6659 51.2416 49.1166 51.2507 48.485C51.2507 48.485 50.5459 49.1075 50.674 49.6384C50.674 49.6384 49.7587 48.421 50.015 47.7802C50.015 47.7802 49.42 48.5125 49.42 48.8695C49.42 48.8695 49.3376 47.826 49.0539 47.4598C49.0539 47.4598 49.0722 48.4027 48.8616 48.5949C48.8616 48.5949 48.6694 47.8443 48.3033 47.4781C47.9371 47.112 47.5344 47.0937 47.5344 47.0937C47.5344 47.0937 48.1934 48.3386 48.0012 48.6132C48.0012 48.6132 47.6625 47.8168 46.8112 46.636C46.6922 46.4712 47.0767 47.9541 46.8753 47.8626C45.7677 47.3225 45.4107 45.5467 45.2185 44.7412C45.2185 44.7412 45.4748 48.247 46.8661 48.6773C48.2575 49.1075 45.3375 51.643 43.7173 52.119C43.1864 52.2838 43.0949 52.4028 42.8935 52.5401C42.8477 52.5675 42.8111 52.6042 42.7836 52.6316C42.7653 52.6499 42.7562 52.6591 42.7379 52.6774C42.7196 52.6957 42.7104 52.7049 42.7013 52.7232C42.5731 52.8605 42.509 53.0161 42.4816 53.1625V53.1717Z" fill="#929472"/>
<path d="M42.4633 53.1263C42.4633 53.1263 42.4725 53.163 42.4816 53.1721C42.5915 53.3643 43.1407 53.346 43.1407 53.346C43.1407 53.346 43.0949 53.5932 43.3878 53.7488C43.4244 53.7671 43.4702 53.7854 43.5251 53.8037C43.7906 53.8952 44.2208 53.9136 44.6876 53.7763C44.7059 53.7763 44.7243 53.7671 44.7517 53.7579C44.7517 53.7579 44.8524 53.822 45.0355 53.8952C45.0355 53.8952 45.0446 53.8952 45.0538 53.8952C45.4565 54.0509 46.2529 54.2431 47.3239 53.9044C47.3879 53.8861 47.452 53.8678 47.5161 53.8403C48.8708 53.3643 50.3903 52.5405 50.9945 50.4443C50.5459 51.8082 48.88 53.0348 47.8365 53.5291C46.7289 54.06 45.6396 54.1607 45.5755 53.703C45.5389 53.3826 45.8318 53.1996 46.2163 52.9707C45.7861 53.2179 45.1362 53.6115 44.4222 53.6389C44.4039 53.6389 44.3856 53.6389 44.3673 53.6389C44.3032 53.6389 44.2483 53.6389 44.1842 53.6389C43.3054 53.5566 43.4427 52.9524 43.6075 52.806C43.8547 52.5863 44.2757 52.3849 44.5046 52.2751C44.294 52.3574 43.9096 52.5222 43.5709 52.7053C43.2139 52.8975 43.1681 53.1263 43.0491 53.1355C42.6464 53.1538 42.4725 52.9707 42.7013 52.7053C42.7105 52.687 42.7196 52.6778 42.7379 52.6595C42.7471 52.6412 42.7654 52.6321 42.7837 52.6137C42.8203 52.5771 42.8569 52.5497 42.8935 52.5222C42.5274 52.7236 42.445 52.9982 42.4633 53.0897V53.1263Z" fill="#74755A"/>
<path d="M27.607 54.2429C27.607 54.2429 28.2203 54.9294 30.829 54.4351C30.829 54.4351 32.1105 54.9844 34.7285 54.5633C35.1587 54.4992 36.8155 52.9797 37.5661 51.7623C37.7217 51.506 37.8407 51.268 37.8956 51.0575C38.1061 50.3069 38.5913 49.7943 38.5913 49.7393C38.5913 49.7393 38.6828 49.4556 38.7927 49.0437C39.0398 48.1283 39.3419 46.5722 38.7835 46.0687C38.7835 46.0687 38.0055 45.2815 36.7697 44.9337C36.01 44.714 35.0855 44.6682 34.0603 45.0802C33.7673 45.1992 33.4653 45.3548 33.154 45.5561C31.4698 46.6637 32.4034 47.9086 32.5957 48.3663C32.5957 48.3663 32.8794 48.6501 33.0442 49.0711C33.0991 49.2176 33.1449 49.3824 33.1632 49.5563C33.1998 49.9133 33.0991 50.316 32.7238 50.7188C31.6529 51.8721 30.8382 52.1467 30.8382 52.1467C30.8382 52.1467 27.7717 52.0735 27.5887 53.8585C27.5795 53.9775 27.5795 54.1056 27.5887 54.2429H27.607Z" fill="#B6B88E"/>
<path d="M20.3391 52.8515C20.3391 52.9614 20.3574 53.0712 20.3757 53.1902C20.3757 53.1902 20.9981 53.7394 23.3048 53.0346C23.3048 53.0346 24.5131 53.4008 26.829 52.7509C27.2134 52.641 28.5499 51.1124 29.0991 49.9315C29.1815 49.7485 29.2455 49.5837 29.2913 49.4281C29.3096 49.3732 29.3188 49.3183 29.3279 49.2633C29.4378 48.5677 29.8222 48.0551 29.8131 48.0001C29.8131 48.0001 30.1609 46.4257 29.9778 45.4097C29.9229 45.0801 29.8131 44.8055 29.6117 44.6682C29.6117 44.6682 27.781 43.1945 25.639 44.0824C25.2637 44.238 24.8793 44.4668 24.4857 44.7872C23.0852 45.9589 24.0554 46.9841 24.2751 47.3777C24.2751 47.3777 24.3392 47.4235 24.4216 47.515C24.5864 47.6798 24.8243 47.991 24.9067 48.3937C24.9708 48.7141 24.925 49.0894 24.6321 49.483C23.79 50.6364 23.0852 50.9659 23.0852 50.9659C23.0852 50.9659 20.3116 51.213 20.3299 52.8515H20.3391Z" fill="#9FA17C"/>
<g style="mix-blend-mode:multiply">
<path d="M24.2843 47.3683C24.2843 47.3683 24.3484 47.4141 24.4308 47.5056C24.9159 47.8077 25.3827 48.0548 25.5933 48.2013C25.932 48.4576 26.1516 48.183 26.4903 48.9885C26.7558 49.6292 28.4492 49.199 29.3005 49.4004C29.3188 49.3455 29.3279 49.2906 29.3371 49.2356C29.4469 48.54 29.8314 48.0274 29.8222 47.9724C29.8222 47.9724 30.1701 46.398 29.987 45.382L25.6482 44.0547C25.2729 44.2103 24.8884 44.4391 24.4948 44.7595C23.0943 45.9312 24.0646 46.9564 24.2843 47.35V47.3683Z" fill="#E5E4F5"/>
</g>
<g style="mix-blend-mode:multiply" opacity="0.38">
<path d="M32.6141 48.3568C32.6141 48.3568 32.8979 48.6406 33.0627 49.0616C33.1634 49.0708 32.9437 48.5765 33.0352 48.5856C33.2091 48.6039 33.676 49.1348 33.7767 49.1532C33.9963 49.1989 33.6485 48.6955 33.8773 48.6955C34.2435 48.6955 35.2046 49.1989 35.7264 49.4095C35.8271 49.4461 34.9849 48.6589 35.2778 48.1646C35.3877 47.9815 36.0834 48.311 36.3397 48.2744C36.6326 48.2378 36.477 47.8442 36.5502 47.8076C36.6326 47.7618 37.3923 49.4552 37.4656 49.4003C37.6761 49.2538 37.3466 48.128 37.5754 48.0639C37.9507 47.9632 38.4633 49.1074 38.8111 49.025C39.0583 48.1096 39.3604 46.5535 38.802 46.0501C38.802 46.0501 38.0239 45.2629 36.7882 44.915L34.0787 45.0615C33.7858 45.1805 33.4837 45.3361 33.1725 45.5375C31.4883 46.6451 32.4219 47.89 32.6141 48.3476V48.3568Z" fill="#CBC9F5"/>
</g>
<path d="M20.3849 53.1907C20.3849 53.1907 21.0073 53.7399 23.3049 53.0259C23.3049 53.0259 24.5132 53.3921 26.829 52.7422C27.2135 52.6323 28.5499 51.1037 29.0991 49.9229C28.6964 50.646 27.6254 51.9092 27.0762 52.3028C26.6185 52.6415 25.5384 53.1449 24.1562 52.9618C23.5429 52.8795 23.4605 52.5866 23.6344 52.3577C23.8541 52.0739 24.4491 51.8634 24.4491 51.8634C24.4491 51.8634 23.6253 52.1014 23.3232 52.3943C22.1881 53.4745 21.1446 53.1815 20.9707 53.0808C20.5863 52.8703 20.5954 52.1472 21.9135 51.6529C21.8586 51.6803 20.9341 51.9824 20.6961 52.3303C20.4398 52.7055 20.6046 53.0717 20.6046 53.0717C20.6046 53.0717 20.394 53.0259 20.33 52.8429C20.33 52.9527 20.3483 53.0625 20.3757 53.1815L20.3849 53.1907Z" fill="#838566"/>
<path d="M7.524 42.8013C7.524 42.8013 7.524 42.8836 7.55146 43.0118C7.69792 43.5702 8.6682 45.0805 14.7737 44.8242C14.8652 44.8242 14.9659 44.8242 15.0574 44.8151C22.8288 44.4306 25.7214 47.1218 25.7214 47.1218C25.7214 47.1218 25.9777 46.4169 25.5932 45.9501C25.5932 45.9501 27.4514 46.9112 27.6619 48.0463C27.6619 48.0463 28.3942 47.314 27.726 46.1606C27.726 46.1606 29.2638 47.8907 29.154 48.5589C29.154 48.5589 29.813 47.8998 29.3462 47.1035C29.3462 47.1035 30.7559 47.8907 31.0305 49.1173C31.0305 49.1173 31.5431 48.266 31.241 47.6618C31.241 47.6618 32.0099 48.449 32.312 49.1996C32.312 49.1996 32.6873 49.044 32.6873 48.7053C32.6873 48.6047 32.6598 48.4948 32.5866 48.3667C32.6507 47.909 33.5294 48.8243 33.5294 48.8243C32.8886 47.6069 33.9596 48.1378 33.9596 48.1378C34.4539 48.7786 35.3144 49.099 35.3693 49.1173C34.9116 48.5955 34.399 47.3231 34.3715 47.2408C34.9116 47.8541 36.1839 48.0005 36.1839 48.0005C35.8453 47.7442 35.0123 46.1423 35.8636 46.3712C36.724 46.6092 37.1451 47.909 37.1451 47.909C37.4471 47.4605 37.3556 46.9295 37.3556 46.9295C38.1703 47.6527 38.573 49.7214 38.573 49.7214C38.573 49.7214 38.573 49.7214 38.5913 49.7397C38.5913 49.7397 38.5913 49.7397 38.6005 49.7397C38.811 49.8679 39.9095 50.5727 39.8912 51.2134C39.8912 51.2134 40.4404 50.8198 40.1658 50.2065C40.3671 50.5818 40.9987 51.6711 41.6395 51.6894C41.6395 51.6894 41.0171 51.0944 41.1452 50.3896C41.1452 50.3896 42.0239 51.6711 43.3695 51.7627C44.6144 51.845 44.9165 52.2386 44.9531 52.3027C44.9348 52.2203 44.7792 51.5613 43.7814 51.2592C43.7814 51.2592 45.7037 51.3874 46.0515 51.9457C46.0515 51.9457 46.3902 51.7993 45.7312 50.8747C45.7861 50.8931 46.7289 51.2409 47.2049 52.6048C47.2049 52.6048 47.7724 52.2661 47.452 51.4057C47.5893 51.7077 48.1569 52.7146 49.7954 52.8428C49.7954 52.8428 49.5848 52.6505 49.5208 52.2844C49.5208 52.2844 51.3789 52.3942 51.7176 53.5476C51.7176 53.5476 52.3401 53.4652 52.0838 52.7787C52.0838 52.7787 55.1868 53.2089 58.4638 52.7604C60.2854 52.5132 62.1527 51.9823 63.5715 50.9571C63.8187 50.7832 64.0475 50.6001 64.2581 50.3896C65.3931 49.3003 66.2993 48.5131 66.9858 47.8998C66.9858 47.8998 66.9858 47.8998 66.995 47.8907C68.5511 46.481 68.9996 45.8952 68.487 44.4947C68.3955 44.2567 67.5534 43.5702 66.1254 42.5816C61.3747 39.268 50.189 32.4943 39.3969 27.1303C26.1974 20.5672 16.1925 20.0729 14.0139 22.6816C13.8949 22.8281 13.7759 22.9746 13.6752 23.121C11.936 25.5559 12.6592 27.7802 9.24488 31.103C8.81466 31.524 8.39359 31.9725 7.96337 32.4302C7.38669 33.0527 6.81002 33.6843 6.21503 34.2793C5.39121 35.1031 4.53992 35.8445 3.63371 36.3388C-4.19262 40.6227 7.48738 42.8013 7.48738 42.8013H7.524Z" fill="#C7C99B"/>
<g style="mix-blend-mode:multiply">
<path d="M55.4431 52.9615C55.9283 52.9615 56.45 52.9432 56.9901 52.9066C58.0794 52.3208 58.592 51.5702 58.7933 51.1857C58.8757 51.0393 58.9032 50.9477 58.9032 50.9477L58.8483 50.8837L58.0885 49.9409L57.3562 49.4099L56.9077 49.0896L56.4134 48.0277L56.1937 47.5518C56.1937 47.5518 56.1479 48.7875 56.3768 49.236C56.5965 49.6845 57.3105 50.3161 57.1274 50.7006C56.9809 51.021 55.8367 52.4764 55.4431 52.9707V52.9615Z" fill="#E5E4F5"/>
</g>
<g style="mix-blend-mode:multiply">
<path d="M38.6372 49.7486C38.8477 49.8768 39.9462 50.5816 39.9279 51.2223C39.9279 51.2223 40.4771 50.8287 40.2025 50.2154C40.4038 50.5907 41.0354 51.68 41.6762 51.6983C41.6762 51.6983 41.0538 51.1033 41.1819 50.3985C41.1819 50.3985 42.0607 51.68 43.4062 51.7716C44.6511 51.8539 44.9532 52.2475 44.9898 52.3116C44.9715 52.2292 44.8159 51.5702 43.8181 51.2681C43.8181 51.2681 45.7404 51.3963 46.0882 51.9546C46.0882 51.9546 46.4269 51.8082 45.7679 50.8837C45.8228 50.902 46.7656 51.2498 47.2416 52.6137C47.2416 52.6137 47.8091 52.275 47.4887 51.4146C47.626 51.7166 48.1936 52.7235 49.8321 52.8517C49.8321 52.8517 49.6215 52.6595 49.5575 52.2933C49.5575 52.2933 51.4156 52.4032 51.7543 53.5565C51.7543 53.5565 52.3768 53.4741 52.1205 52.7876C52.1205 52.7876 53.5301 52.9798 55.4524 52.9707C55.9375 52.9707 56.4593 52.9524 56.9993 52.9158C57.4936 52.8883 57.9971 52.8334 58.5005 52.7693L58.7935 51.204L58.8484 50.902L58.9582 50.2978L57.3563 49.4282L56.7888 49.1262L56.4135 48.046L55.9833 46.792C55.9833 46.792 56.0382 49.5655 55.8094 50.2063C55.5897 50.847 55.1045 50.6182 54.1434 50.8287C53.1823 51.0393 54.5279 52.2292 53.9146 52.3116C53.3104 52.394 52.3768 51.5336 50.6742 51.7899C48.9716 52.037 48.1386 51.4146 47.0219 50.4901C45.896 49.5747 44.706 50.2154 44.706 50.5999C44.706 50.9843 43.8731 51.021 42.4909 50.4717C41.1087 49.9225 39.9553 49.2635 39.8638 49.7669C39.7723 50.2246 38.8111 49.8493 38.6189 49.7669L38.6372 49.7486Z" fill="#E5E4F5"/>
</g>
<path d="M53.2647 55.1671C53.2647 55.1671 54.0519 55.4051 55.1045 55.0389C55.1045 55.0389 56.4959 55.8536 58.2076 55.2403C59.5623 54.7643 61.0818 53.9405 61.686 51.8443C61.686 51.8443 61.686 51.8443 61.686 51.8351C61.7043 51.7802 61.7226 51.7161 61.7317 51.6612C61.7409 51.6246 61.7501 51.5972 61.7501 51.5605C61.8691 51.0662 61.9331 50.517 61.9423 49.8854C61.9423 49.8854 61.2375 50.5079 61.3656 51.0388C61.3656 51.0388 60.4502 49.8214 60.7065 49.1806C60.7065 49.1806 60.1116 49.9129 60.1116 50.2699C60.1116 50.2699 60.0292 49.2264 59.7454 48.8602C59.7454 48.8602 59.7637 49.803 59.5532 49.9953C59.5532 49.9953 59.361 49.2447 58.9948 48.8785C58.6287 48.5124 58.2259 48.4941 58.2259 48.4941C58.2259 48.4941 58.885 49.739 58.6928 50.0136C58.6928 50.0136 58.3541 49.2172 57.5028 48.0364C57.3838 47.8716 57.7682 49.3545 57.5669 49.263C56.4593 48.7229 56.1023 46.9471 55.9101 46.1416C55.9101 46.1416 56.1664 49.6474 57.5577 50.0777C58.9491 50.5079 56.0382 53.0526 54.4089 53.5194C54.0336 53.6293 53.7681 53.7757 53.585 53.9405C52.9809 54.4714 53.2555 55.1671 53.2555 55.1671H53.2647Z" fill="#B6B88E"/>
<path d="M53.2647 55.1675C53.2647 55.1675 54.0519 55.4055 55.1045 55.0393C55.1045 55.0393 56.4959 55.854 58.2076 55.2407C59.5623 54.7647 61.0818 53.9409 61.686 51.8447C61.2375 53.2086 59.5715 54.4352 58.528 54.9295C57.4204 55.4604 55.4432 55.1949 55.3883 54.7373C55.3425 54.3894 56.1938 53.8494 56.6057 53.6022C56.1297 53.8677 54.9855 54.4352 54.1343 54.4993C53.521 54.545 53.4935 54.2247 53.5942 53.9409C52.9901 54.4718 53.2647 55.1675 53.2647 55.1675Z" fill="#838566"/>
<path d="M27.607 54.2423C27.607 54.2423 28.2203 54.9289 30.829 54.4346C30.829 54.4346 32.1105 54.9838 34.7285 54.5627C35.1587 54.4986 36.8155 52.9791 37.5661 51.7617C37.0352 52.5032 35.7079 53.7481 35.058 54.1233C34.5088 54.4346 33.2639 54.8465 31.7719 54.4803C31.1128 54.3156 31.0579 53.986 31.2776 53.7572C31.5613 53.4734 32.2295 53.3178 32.2295 53.3178C32.2295 53.3178 31.2959 53.4734 30.9297 53.7572C29.5567 54.7916 28.4491 54.343 28.266 54.2149C27.8724 53.9311 27.9731 53.1439 29.4835 52.7686C29.4194 52.7869 28.3759 53.0066 28.0646 53.3544C27.7351 53.7297 27.8724 54.1508 27.8724 54.1508C27.8724 54.1508 27.6527 54.0684 27.5978 53.867C27.5887 53.986 27.5887 54.1142 27.5978 54.2423H27.607Z" fill="#929472"/>
<path d="M69.8876 14.1501C69.9975 14.0311 69.9334 14.0952 69.7594 14.26C69.8052 14.2233 69.851 14.1867 69.8876 14.1501Z" fill="#74755A"/>
<path d="M8.32043 19.7976L13.9041 22.5986L14.0506 22.6719C14.0506 22.6719 14.7097 23.0929 14.7737 23.6513C14.7737 23.6513 15.2223 22.562 15.0758 22.0494C15.0758 22.0494 15.9362 22.8 15.7989 24.1456C15.7989 24.1456 17.172 22.8824 17.172 22.1135C17.172 22.1135 17.7944 23.633 17.6388 24.228C17.6388 24.228 18.2796 23.1387 18.3436 22.4339C18.3436 22.4339 18.7739 23.4957 18.2155 24.3928C18.2155 24.3928 19.9455 23.0838 20.0737 22.379C20.0737 22.379 20.2201 23.3859 19.6892 24.0907C19.6892 24.0907 20.568 23.9168 21.1263 22.9739C21.1263 22.9739 21.0623 24.2555 20.5497 24.6857C20.5497 24.6857 22.0234 24.4751 22.5634 23.4042C22.5634 23.4042 22.6275 24.4477 21.4925 25.2257C21.4925 25.2257 23.2225 25.0518 23.7992 24.1822C23.7992 24.1822 23.7809 25.418 22.7557 25.7658C22.7557 25.7658 24.0372 26.0221 24.5772 24.887L24.0372 26.6445L27.8359 32.1276L30.4996 31.7431C30.4996 31.7431 29.6666 32.7683 29.749 32.75C29.8314 32.7317 31.5248 31.917 31.6804 31.8438C31.5431 31.9445 30.2525 32.8781 30.82 32.7317C31.415 32.5852 33.2823 32.2649 33.2823 32.2649L32.0832 33.0795L34.5455 32.7408C34.5455 32.7408 33.7583 33.8576 33.9872 33.8576C34.216 33.8576 36.0833 33.9034 36.0833 33.9034L34.7103 34.5624H36.9346C36.9346 34.5624 40.5686 33.9674 38.8752 34.4983C37.1909 35.0292 35.5616 35.4778 37.5296 35.2855C39.4976 35.0933 40.7425 35.1574 40.7425 35.1574L38.6006 35.7524L42.0789 35.2215L40.5686 35.9721H43.6717C43.6717 35.9721 40.9531 36.8874 42.0698 36.6769C43.1774 36.4664 46.2805 36.4664 46.2805 36.4664C46.2805 36.4664 45.9601 37.0888 46.7747 37.043C47.5894 36.9973 48.5505 36.4847 47.5894 36.9973C46.6283 37.5099 45.4932 37.8119 47.2873 37.8486C49.0815 37.8943 48.6787 37.9309 49.4293 37.995C50.1799 38.0591 53.5118 38.4618 53.5118 38.4618L51.3516 38.8005L54.3265 39.2674C54.3265 39.2674 56.8071 39.6701 55.9558 39.78C55.1045 39.8898 55.3151 40.4207 56.679 40.4848C58.052 40.5489 61.1459 40.7411 59.544 40.9974C57.9421 41.2537 57.6584 41.3178 58.9857 41.5283C60.3129 41.7388 63.0499 41.5741 61.6585 42.1324C60.2672 42.6908 60.3312 43.1393 61.448 43.176C62.5647 43.2217 66.0431 43.1577 65.4023 43.6703C64.7616 44.1829 63.7089 44.5673 64.7799 44.9518C65.1186 45.0708 65.4756 45.1806 65.7868 45.2996C66.4733 45.5467 66.9585 45.8213 66.5923 46.279C66.0614 46.9381 68.1759 46.5719 67.0317 47.8901C67.0317 47.8901 67.0317 47.8901 67.0225 47.8992C67.0225 47.8992 68.9814 49.1533 69.9151 49.1533C69.9151 49.1533 69.1736 47.3225 68.4688 47.2585L71.2606 47.5788L69.494 45.977L72.3499 45.5925L70.0341 44.0547H73.787L71.224 42.9288L73.787 42.5444C73.787 42.5444 71.0593 41.7388 71.224 41.6748C71.3888 41.6107 74.9496 41.2537 74.9496 41.2537L70.8121 40.2926L74.3729 39.9081L71.3247 38.7548H75.8466L72.3499 37.281L75.6544 36.7959L71.4346 36.2467C71.4346 36.2467 74.6658 36.027 74.5926 35.8988C74.5285 35.7707 70.9677 34.7089 70.9677 34.7089C70.9677 34.7089 76.0388 34.6723 75.2059 34.3519C74.3729 34.0315 70.748 33.226 70.748 33.226C70.748 33.226 76.0388 33.2626 75.3981 32.9697C74.7573 32.6768 70.1988 31.5234 71.0684 31.5234C71.938 31.5234 74.7939 31.2305 74.7939 31.2305L71.581 30.5257L75.334 29.1801H71.4346C71.4346 29.1801 74.6292 27.3494 74.501 27.3494H70.3636L70.9494 27.1114L74.4736 25.656C74.4736 25.656 71.105 25.4912 71.105 25.363C71.105 25.2349 74.1166 23.5964 74.1166 23.5964H71.581L73.9244 21.8938L69.0455 22.3149L72.6062 19.3674L69.2102 20.356L71.6817 18.0127L69.0821 18.626L71.0684 15.5778L70.4918 15.7609L67.1507 16.8319C67.1507 16.8319 69.1095 14.873 69.7411 14.2597C68.9814 14.8547 66.3818 16.0264 66.2902 16.063C66.3726 15.9257 69.6038 10.3694 67.8555 12.0537C66.0889 13.7563 63.3977 14.3604 63.3977 14.3604C63.3977 14.3604 68.0477 8.96892 66.8669 10.0582C65.6769 11.1475 62.6929 12.5571 62.6929 12.5571C62.6929 12.5571 64.9996 7.90711 63.654 9.63714C62.3542 11.3122 60.6791 12.6029 60.5784 12.6761C60.6882 12.4839 64.0476 6.51576 62.6929 8.41055C61.3107 10.3328 60.0017 11.3672 60.0017 11.3672L60.9354 8.19087L59.0406 10.2138L59.361 7.71488L58.0428 9.31676L58.8117 6.26861L57.1458 9.152C57.1916 8.97808 57.9421 6.08554 57.8506 6.26861C57.7591 6.46083 56.084 8.25494 56.084 8.25494L56.9536 4.72165L54.8665 6.64391C54.8665 6.64391 55.7636 3.95275 55.5714 4.23651C55.3791 4.52942 52.7154 7.05582 52.7154 7.05582L53.5484 4.20905L51.5621 6.22284C51.5621 6.22284 52.8802 2.82685 52.7154 2.955C52.5598 3.08315 50.3172 5.92993 50.2165 6.06723C50.2623 5.94823 51.8458 1.96641 51.6902 2.12202C51.5346 2.28679 48.4224 5.42648 48.4224 5.42648L49.4476 3.63237L46.1431 5.68278C46.1431 5.68278 48.5872 2.58886 48.7428 2.37833C48.5505 2.59801 44.8799 5.2434 44.7701 5.32579C44.8433 5.21594 47.205 1.54535 47.0127 1.6735C46.8205 1.80165 43.452 4.97795 43.452 4.97795L44.4772 1.6735L42.1979 4.20905L42.9302 1.38974L41.2917 4.50196L41.2277 1.32566L38.7287 5.17933L39.1132 1.71011L39.2413 0.529297L37.3465 5.30748L37.1268 1.71011L35.168 5.56378L35.5158 1.65519L33.0443 5.66447C33.0443 5.66447 33.3006 0.694062 33.2732 0.977824C33.2366 1.27074 30.9573 5.30748 30.9573 5.30748C30.9573 5.30748 31.177 0.941209 30.9573 1.87488C30.7376 2.80855 29.749 5.43563 29.749 5.43563C29.749 5.43563 29.7216 0.913748 29.5293 2.0671C29.3371 3.22046 28.4035 6.4883 28.4035 6.4883L27.2409 2.22271L26.3164 6.33268L24.9434 2.83601L24.9708 6.04892L23.6253 3.38522L24.1379 6.52491L22.2797 3.38522L22.4078 6.43337L20.0004 3.54999L20.7693 7.85218L19.0027 5.15187L19.8723 8.87739L18.1697 6.85444L18.9112 10.0948L17.6571 8.55701L17.5564 11.1292L15.6982 7.76065L16.1193 11.1292L14.2886 9.23438L15.5701 12.6944L13.0712 9.96667L14.609 13.3993L12.3663 10.7356L14.0323 14.4885L11.6615 12.4381L13.1993 16.127L10.5081 13.6922L11.9544 17.5092L9.41887 15.4863L11.5974 19.0837L8.80558 16.841L12.0185 20.8869L8.32959 19.7976H8.32043Z" fill="#74755A"/>
<path d="M7.52401 42.8015C7.52401 42.8015 7.52401 42.8838 7.55147 43.012C7.61554 43.25 7.81692 43.6436 8.47598 44.0097C9.4005 44.5223 11.2129 44.9709 14.7828 44.8244C13.3365 44.7878 12.9338 44.5315 12.9338 44.5315C14.6272 44.3118 15.0757 43.6344 15.0757 43.6344C12.888 44.2386 10.2426 42.6825 12.1008 43.131C13.959 43.5795 16.1742 41.5474 14.8286 42.2248C13.483 42.9022 10.3708 41.227 12.586 41.2911C14.8011 41.3552 16.6593 39.6892 15.149 40.0737C13.6386 40.4581 11.9086 39.2407 13.8308 39.1126C15.7531 38.9844 15.9819 38.243 15.9819 38.243C14.3068 38.9569 13.6478 38.1514 13.6478 38.1514C15.387 38.1514 15.9453 37.2178 15.9819 37.1628C14.9201 37.6114 12.7233 37.5748 12.7233 37.5748C13.5929 37.3825 12.888 36.9706 15.149 36.5038C17.4191 36.0461 17.2451 33.1169 15.9911 32.4945C14.7279 31.8721 11.5424 32.5677 9.83987 34.4625C8.1373 36.3573 7.24025 35.3962 7.24025 35.3962C8.78721 35.0209 8.68652 33.2176 8.07322 33.8492C7.75285 34.1788 6.96564 34.2703 6.27912 34.2886C5.97705 34.5907 5.67498 34.8836 5.36376 35.1582C4.82369 35.625 4.27448 36.0369 3.6978 36.3573C-4.12853 40.6412 7.55147 42.8198 7.55147 42.8198L7.52401 42.8015Z" fill="#C2C498"/>
<path d="M7.52401 42.8003C7.52401 42.8003 7.52401 42.8827 7.55147 43.0108C7.61554 43.2488 7.81692 43.6424 8.47598 44.0086C8.48513 43.9262 8.56752 43.853 8.77805 43.7981C9.48288 43.6058 10.4898 43.7706 10.9383 43.4777C11.3868 43.1756 10.6362 43.1756 11.4051 42.5806C12.174 41.9856 11.2129 42.2145 11.2129 42.2145C9.69341 42.0223 10.682 41.528 10.682 41.528C13.2267 40.5211 8.92451 40.7133 8.92451 40.7133C8.92451 40.7133 9.6751 40.2831 10.563 40.0908C12.7049 39.624 8.25629 39.1114 8.25629 39.1114C8.25629 39.1114 7.37755 39.3494 9.64764 37.894C11.9177 36.4385 9.43711 37.7658 7.96338 37.9397C6.48965 38.1137 6.31573 37.4912 7.881 37.1525C9.43711 36.8138 9.20827 35.7612 8.32952 36.2921C7.45078 36.823 4.45755 36.3562 5.31799 35.8802C6.16927 35.4042 6.64526 34.8184 6.64526 34.8184C6.64526 34.8184 5.90382 35.0106 5.34545 35.157C4.80538 35.6239 4.25617 36.0358 3.67949 36.3562C-4.14685 40.6401 7.53316 42.8186 7.53316 42.8186L7.52401 42.8003Z" fill="#BBBD92"/>
<path d="M1.52846 40.4302C2.20582 41.0984 3.01134 41.5744 3.16695 41.4371C3.42325 41.1899 3.69786 40.8787 3.96332 40.4576C4.74137 39.2127 4.61322 38.4072 4.20131 37.8946C3.64294 37.1898 2.55366 37.0342 2.55366 37.0342C2.55366 37.0342 0.942624 37.1989 0.57648 38.4713C0.402562 39.0754 0.915164 39.8352 1.5193 40.4393L1.52846 40.4302Z" fill="#47193F"/>
<path d="M3.4143 39.4319C3.4143 39.4319 2.67262 39.3953 2.64515 40.1736C2.61768 40.9519 3.17623 41.4372 3.17623 41.4372C3.17623 41.4372 2.98394 40.3018 3.42346 39.9722C3.86298 39.6425 3.76225 39.5509 3.42346 39.4411L3.4143 39.4319Z" fill="#2E1029"/>
<path d="M1.52858 40.4302C1.48281 40.3478 0.805444 39.0846 2.43479 39.0297C3.4783 38.9931 3.9909 38.3248 4.21059 37.8946C3.65222 37.1898 2.56294 37.0342 2.56294 37.0342C2.56294 37.0342 0.951902 37.1989 0.585757 38.4713C0.411839 39.0754 0.924441 39.8352 1.52858 40.4393V40.4302Z" fill="#571F4D"/>
<path d="M7.55139 43.0025C8.21045 43.094 10.4714 43.3595 11.4051 42.5723C11.2586 42.6546 10.1602 43.2588 7.52393 42.8011C7.52393 42.8011 7.52393 42.8835 7.55139 43.0116V43.0025Z" fill="#855B46"/>
<path d="M13.5382 33.3911C14.1789 32.4849 15.5428 32.0547 16.449 32.732C17.3552 33.4094 17.3918 34.8007 16.8701 35.5879C16.6046 35.9816 16.0462 36.4209 15.1309 36.4942C14.362 36.5582 13.7121 36.247 13.4558 35.9907C12.8608 35.3866 13.0072 34.1508 13.5382 33.3911Z" fill="#3E1506"/>
<path d="M16.3409 35.8713C16.9994 35.2214 16.9633 34.1171 16.2602 33.4046C15.5571 32.6921 14.4533 32.6414 13.7949 33.2912C13.1364 33.941 13.1725 35.0453 13.8756 35.7578C14.5787 36.4703 15.6824 36.5211 16.3409 35.8713Z" fill="#FBFCFA"/>
<path d="M15.1046 36.2809C16.0194 36.2611 16.7446 35.487 16.7244 34.552C16.7041 33.6169 15.9461 32.875 15.0313 32.8948C14.1165 32.9146 13.3913 33.6887 13.4115 34.6237C13.4318 35.5587 14.1898 36.3007 15.1046 36.2809Z" fill="#104F46"/>
<path d="M15.0956 35.8606C15.7883 35.8456 16.3375 35.2637 16.3222 34.561C16.307 33.8582 15.7332 33.3006 15.0405 33.3156C14.3479 33.3306 13.7987 33.9125 13.8139 34.6152C13.8291 35.318 14.403 35.8756 15.0956 35.8606Z" fill="#3E1506"/>
<path d="M16.0942 34.6028C16.3877 34.4927 16.5652 34.2422 16.4906 34.0434C16.416 33.8445 16.1176 33.7725 15.824 33.8827C15.5305 33.9928 15.3529 34.2432 15.4275 34.4421C15.5021 34.641 15.8006 34.7129 16.0942 34.6028Z" fill="white"/>
<path d="M23.5612 27.7795C23.6985 28.1456 24.1287 28.2646 24.1837 28.2646C24.1837 28.2646 24.2294 28.3104 24.2844 28.3927C24.5956 28.8596 25.5384 30.4798 25.7032 31.2578C25.7306 31.3768 25.7398 31.4867 25.7215 31.5599C25.6299 31.9627 25.8679 32.1915 26.051 32.3105C26.1517 32.3746 26.2432 32.402 26.2432 32.402C26.2432 32.402 27.305 32.3013 28.4492 31.9443C30.1976 31.3951 31.3052 29.6376 30.9756 27.7978C30.8292 26.9465 30.3623 26.0769 29.5202 25.2988C26.3714 22.388 23.5521 27.3675 23.5521 27.3675C23.5154 27.5323 23.5338 27.6696 23.5704 27.7886L23.5612 27.7795Z" fill="#C7C99B"/>
<path opacity="0.49" d="M24.1837 28.2653C24.1837 28.2653 24.2295 28.3111 24.2844 28.3934C24.5956 28.8603 25.5384 30.4805 25.7032 31.2585C25.7307 31.3775 25.7398 31.4874 25.7215 31.5606C25.7215 31.5606 26.8566 31.6613 27.3234 31.6338C27.7902 31.5972 27.8726 31.4874 28.0008 31.286C28.1289 31.0754 28.4859 31.0937 28.8063 30.9931C29.1267 30.8924 29.447 30.3523 29.5752 30.1235C29.7033 29.9038 30.042 29.501 30.1885 29.144C30.3349 28.787 30.1061 28.549 30.28 28.1829C30.4539 27.8168 30.1519 27.652 29.8956 27.2492C29.6393 26.8465 29.685 26.8831 29.3647 26.2698C29.0443 25.6657 28.3669 25.8853 28.3669 25.8853C27.9825 25.9494 28.0191 25.5192 27.4516 25.4643C26.8932 25.4185 27.241 25.5284 26.7925 25.5284C26.344 25.5284 26.4355 25.6199 26.1517 25.9128C25.8588 26.2057 25.8131 26.1691 25.4927 26.4712C25.1723 26.7732 25.1998 26.6634 25.0075 27.0662C24.8153 27.4689 24.1746 28.2561 24.1746 28.2561L24.1837 28.2653Z" fill="#E0768C"/>
<path opacity="0.49" d="M24.2843 28.4029C24.5955 28.8697 25.5383 30.4899 25.7031 31.268C25.9228 31.268 26.1791 31.268 26.472 31.2405C27.1311 31.1581 27.5796 31.1398 27.8176 30.4167C28.0556 29.6936 28.0739 29.8034 28.8153 29.4647C29.5568 29.126 29.1083 28.6134 28.9801 28.229C28.852 27.8445 28.7055 27.7622 28.1105 27.0573C27.7901 26.6729 27.5064 26.7186 27.1128 26.6912C26.7924 26.6729 26.3896 26.5264 25.8496 26.7644C25.0715 27.1031 24.5498 27.8903 24.2843 28.4029Z" fill="#E05A75"/>
<path d="M26.051 32.3106C26.1517 32.3747 26.2433 32.4021 26.2433 32.4021C26.2433 32.4021 27.3051 32.3014 28.4493 31.9444C30.1976 31.3952 31.3052 29.6377 30.9757 27.7979C31.0306 28.3928 30.9574 28.8231 30.8841 29.1251C30.7468 29.7293 30.1885 30.8368 29.2365 31.3403C28.2845 31.8437 26.8291 32.1824 26.0602 32.3014L26.051 32.3106Z" fill="#9A9C78"/>
<path opacity="0.58" d="M23.5612 27.7795C23.6985 27.4865 24.2569 26.5895 25.575 25.4544C26.6826 24.4933 27.9275 24.7038 28.4675 24.8961C29.1632 25.1432 29.923 25.7107 30.463 26.6261C30.6644 26.9648 30.939 27.7337 30.9665 27.7978C30.82 26.9465 30.3532 26.0769 29.5111 25.2988C26.3622 22.388 23.5429 27.3675 23.5429 27.3675C23.5063 27.5323 23.5246 27.6696 23.5612 27.7886V27.7795Z" fill="#E1E3AF"/>
<path d="M26.1242 27.2396C26.1242 27.2396 25.1539 27.2854 24.1836 28.2648L24.5589 29.0612C24.5589 29.0612 25.5292 30.9102 25.7306 31.551C25.7306 31.551 27.0212 31.615 27.2867 31.2489C27.2867 31.2489 26.4262 31.4137 26.0601 31.1391C26.0601 31.1391 26.2615 30.6265 27.0029 30.48C27.0029 30.48 26.3713 30.3061 25.877 30.2878C25.3827 30.2695 26.4445 28.6401 27.1677 28.4937C27.1677 28.4937 26.7924 28.3472 25.2729 29.5646C25.2729 29.5646 24.8427 28.9239 25.5383 28.5394C26.234 28.155 26.5361 28.5394 26.5361 28.5394C26.5361 28.5394 26.4537 28.1733 25.6482 28.2923C24.8427 28.4113 24.8335 28.6584 24.8335 28.6584C24.8335 28.6584 24.7969 28.274 25.3553 28.0726C25.9136 27.8712 26.2248 27.8438 26.2248 27.8438C26.2248 27.8438 25.6024 27.7522 25.1539 28.0268C24.806 28.2374 24.6687 28.1001 24.7877 27.9994C25.0623 27.7705 26.1242 27.2305 26.1242 27.2305V27.2396Z" fill="#D4D6A5"/>
<path d="M24.028 28.3019L24.1745 28.2744C24.1745 28.2744 24.3027 28.2012 24.4766 28.2378C24.6505 28.2744 24.7237 28.1554 24.7237 28.4666C24.7237 28.7779 24.8061 29.0982 24.9617 29.2721C25.1173 29.4461 24.98 29.3637 25.1814 29.7939C25.3828 30.2241 25.6025 30.2333 25.6391 30.517C25.6757 30.8008 25.6574 30.9015 25.6757 31.0205C25.694 31.1395 25.9045 31.2493 25.8496 31.3866C25.7947 31.5239 25.7123 31.5697 25.7123 31.5697C25.7123 31.5697 25.2729 31.8077 25.0533 31.3226C24.8336 30.8374 23.8816 28.6863 23.8816 28.6863L24.0189 28.311L24.028 28.3019Z" fill="#C7C99B"/>
<path d="M19.7989 11.0009C20.0095 10.2595 23.1675 4.74902 23.1675 4.74902L22.1331 10.6623L28.4674 6.86351L26.1424 12.4197L32.5408 6.76282L30.3347 9.99404L35.6896 7.54087L32.1563 10.9002L38.4357 7.65987C38.4357 7.65987 34.4081 11.6783 35.1679 11.1108C35.9276 10.5433 45.0263 7.1015 45.0263 7.1015L42.5914 10.0032L46.5549 8.09009L45.1911 9.78351L53.054 7.82464L47.5985 10.0947L54.1433 9.15191L49.9326 10.9918L56.8344 10.0032L52.9075 11.5776C52.9075 11.5776 60.6149 10.4334 58.8116 11.0101C57.0084 11.5868 54.3538 12.493 54.3538 12.493C54.3538 12.493 62.8026 11.4403 59.9284 12.1818C57.0541 12.9232 58.0061 14.4518 58.0061 14.4518L57.3196 12.9232L53.3835 12.85L53.7405 12.1085L51.3057 12.1543L52.1661 11.1016L48.587 11.6142L49.777 10.5982L45.4657 11.2847L47.3696 10.5799L44.6693 10.8819C44.6693 10.8819 46.8387 10.0307 46.381 10.1405C45.9233 10.2503 42.8111 10.9826 42.7196 10.9918C42.628 11.0009 43.9828 9.8842 43.9828 9.8842L40.7516 10.6989L42.7745 9.15191L39.7904 10.1863C39.7904 10.1863 41.8408 8.51116 41.2001 8.98714C40.5593 9.46313 37.6576 10.6439 37.6576 10.6439L38.5272 9.93912L34.8932 11.3945L35.8269 9.74689C35.8269 9.74689 34.1426 10.7904 34.1701 10.6989C34.1976 10.6073 34.7651 9.9025 34.7102 9.97573C34.6552 10.049 31.7169 11.2481 31.7169 11.2481L32.2479 9.81097L30.8016 10.5799L31.122 9.94827L29.5292 10.7629L30.0693 9.3899L28.2386 11.5502L28.385 10.7721C28.385 10.7721 26.6001 12.7584 26.7008 12.612C26.8015 12.4655 27.0486 11.8888 27.0486 11.8888L25.7305 13.0697L26.0509 11.4678C26.0509 11.4678 24.7053 12.2275 24.7602 12.1909C24.8151 12.1543 26.5085 9.6462 26.5085 9.6462L24.33 11.1932L26.0234 8.83153L21.7487 11.2572L22.069 8.83153L21.3367 10.0581L21.7761 7.70564L19.7623 10.9735L19.7989 11.0009Z" fill="#6E6E55"/>
<path d="M59.4799 25.7842L63.2054 26.0862L61.0177 26.6263L66.7936 28.9422L64.0658 29.7294L68.4046 30.8187L64.2306 31.6425L69.558 32.8965L64.9354 33.8302L69.558 34.4526L65.567 35.606L68.7342 35.8715L65.567 36.5031L69.2376 37.7846L65.9972 38.4894L66.7295 37.8486L64.5143 36.3383L65.8325 36.0545L64.6791 35.6335L66.5373 34.8646L64.1024 33.7387L66.5373 33.0979L63.1047 31.7798L65.3565 30.8827L62.7843 29.9857L64.7432 28.9971L61.8232 28.4845L63.0406 28.3197L60.1206 26.8735L60.9902 26.3334L59.4799 25.7842Z" fill="#6E6E55"/>
<path d="M33.4379 24.7319L36.7881 23.3223L35.7903 25.6656L40.6418 24.4115L39.3236 26.9837L43.3604 24.9333L41.5937 28.3384L46.4909 25.748L43.3512 29.9403L47.507 28.5124L45.2826 31.0296L48.4956 29.7939L46.0241 31.8168L50.372 31.6704L47.9829 33.2448L48.6878 32.247L45.7312 32.0365L45.841 31.2401L44.6602 31.6795L45.365 29.7206L42.6739 30.4346L44.5778 27.4414L41.2001 28.6771L41.8226 26.4986L38.6097 28.0913L39.2046 25.8761L36.6691 27.4505L38.1062 25.7114L35.47 26.0867L35.7446 24.2559L33.4379 24.7319Z" fill="#6E6E55"/>
<path d="M33.8773 16.4112L32.2662 17.0245L35.6897 14.7819L34.0603 16.5943L38.4175 13.5645L38.3625 16.7408L42.7197 14.6446L39.4976 17.9673L44.825 15.3219L41.2734 19.0292L45.6397 16.4021L42.7563 19.8347L45.6671 17.9307L43.2231 20.4663L47.1042 18.9376L44.8158 21.4274L48.6512 20.7592L46.7289 22.0407L53.0998 22.1597L50.3812 23.5785L55.2143 23.2856L50.9762 25.1438L56.8986 24.7135L52.2119 26.8006L57.2464 26.0225L53.2829 28.1095L56.6972 27.4505L53.4843 28.8693L59.187 29.7846L55.4981 30.8099L56.4409 30.0226L52.8985 29.1622L53.6582 28.4116L52.3401 28.3841L54.1434 27.2125L51.3057 26.9562L53.7498 25.7296L49.8229 25.5831L52.0014 24.1918L49.0814 24.1552L50.9304 22.773L47.7267 23.1574L48.9807 22.6814L46.3811 22.1872L46.8571 21.3176L44.6419 21.5556L44.9531 20.631L43.04 20.6585L43.2231 19.972L41.9874 20.448L43.214 18.6813L40.4953 19.5143L42.2894 17.4547L38.5914 18.8095L40.0834 16.695L37.3739 17.766L37.6669 15.2945L35.7355 17.354L36.3945 15.6515L33.4013 17.3632L33.8773 16.4112Z" fill="#6E6E55"/>
<path d="M14.8103 19.8164L15.0575 14.8552L16.7234 18.0589L17.5106 14.8552L18.7555 16.3563L20.2567 14.4707L19.7899 16.7774L23.1675 15.2762L21.1538 17.5463L25.9869 16.1733C25.9869 16.1733 22.2247 18.5715 22.4353 18.5715C22.6458 18.5715 28.083 18.3976 28.083 18.3976C28.083 18.3976 21.4924 19.853 23.1675 19.8073C24.8427 19.7615 31.296 20.6585 31.296 20.6585L24.4948 21.2535C24.4948 21.2535 31.122 22.0682 30.7833 22.1506C30.4447 22.233 23.0669 21.94 23.0669 21.94L25.3553 20.6585L21.8494 20.0819L23.0669 19.1207L21.2087 18.9468L22.3163 17.7935L20.0462 18.3152L21.0256 17.1069L19.3139 17.7019L19.4878 16.2923L18.2429 17.6653L17.9042 15.9536L16.7326 18.901L15.4236 16.933L14.8195 19.7981L14.8103 19.8164Z" fill="#898A6A"/>
<g style="mix-blend-mode:soft-light" opacity="0.15">
<path d="M8.32043 19.7989L13.9041 22.5999C14.1055 22.4076 14.1971 22.0781 14.1513 21.5564C13.9408 19.2863 15.9912 23.0942 16.2932 21.5564C16.5953 20.0186 17.3184 22.4076 17.5747 21.0438C17.831 19.6799 20.6595 20.5312 20.6595 20.5312C20.6595 20.5312 26.7375 19.4602 26.3073 16.5127C25.8771 13.5653 32.1656 14.7552 32.1656 14.7552C32.1656 14.7552 32.2937 13.6019 31.2868 12.0183C30.2799 10.4347 33.3556 11.4233 36.2664 11.2036C39.1773 10.9839 37.2458 10.5629 36.5685 9.57429C35.8819 8.5857 38.6646 8.37516 38.6646 8.37516C38.6646 8.37516 41.191 6.87397 41.0629 5.97692C40.9347 5.07986 36.4037 8.79623 38.326 4.13704C38.7196 3.18507 38.985 2.3887 39.1223 1.72964L39.2505 0.548828L37.3557 5.32701L37.136 1.72964L35.1771 5.58331L35.525 1.67472L33.0535 5.684C33.0535 5.684 33.3098 0.713593 33.2823 0.997355C33.2457 1.29027 30.9665 5.32701 30.9665 5.32701C30.9665 5.32701 31.1861 0.960741 30.9665 1.89441C30.7468 2.82808 29.7582 5.45516 29.7582 5.45516C29.7582 5.45516 29.7307 0.93328 29.5385 2.08663C29.3463 3.23999 28.4126 6.50783 28.4126 6.50783L27.2501 2.24225L26.3256 6.35222L24.9525 2.85554L24.98 6.06845L23.6344 3.40475L24.147 6.54444L22.2888 3.40475L22.417 6.45291L20.0096 3.56952L20.7785 7.87171L19.0118 5.1714L19.8814 8.89692L18.1789 6.87397L18.9203 10.1143L17.6663 8.57654L17.5656 11.1487L15.7074 7.78018L16.1285 11.1487L14.2977 9.25391L15.5792 12.714L13.0803 9.9862L14.6181 13.4188L12.3755 10.7551L14.0414 14.5081L11.6707 12.4577L13.2085 16.1466L10.5173 13.7117L11.9636 17.5288L9.42802 15.5058L11.6066 19.1032L8.81473 16.8606L12.0276 20.9065L8.33874 19.8172L8.32043 19.7989Z" fill="#D4D6A7"/>
</g>
<g style="mix-blend-mode:soft-light" opacity="0.36">
<path d="M8 32.4307C8.95198 32.4581 10.2701 32.4948 10.6088 32.4307C11.0939 32.3391 12.5036 30.9203 13.4006 30.6C14.2977 30.2796 15.0666 30.0874 15.6433 29.6022C16.2199 29.1171 17.9591 27.7715 18.1788 27.1033C18.3985 26.4351 17.4099 26.6273 17.6021 25.4648C17.7944 24.3114 15.8355 25.6845 15.9636 24.8515C16.0643 24.165 14.4258 23.4418 13.7119 23.1123C11.9727 25.5472 12.6958 27.7715 9.2815 31.0943C8.85129 31.5153 8.43022 31.9638 8 32.4215V32.4307Z" fill="#FDFFC7"/>
</g>
<g style="mix-blend-mode:multiply">
<path d="M63.6082 50.9568C63.8553 50.7828 64.0841 50.5998 64.2947 50.3892C65.4297 49.3 66.3359 48.5128 67.0225 47.8995C67.0225 47.8995 68.9813 49.1535 69.915 49.1535C69.915 49.1535 69.1735 47.3228 68.4687 47.2587L71.2606 47.5791L69.4939 45.9772L72.3499 45.5927L70.034 44.0549H73.787L71.224 42.929L73.787 42.5446C73.787 42.5446 71.0592 41.7391 71.224 41.675C71.3887 41.6109 74.9495 41.2539 74.9495 41.2539L70.812 40.2928L74.3728 39.9084L71.3246 38.755H75.8465L72.3499 37.2813L75.6543 36.7961L71.4345 36.2469C71.4345 36.2469 74.6657 36.0272 74.5925 35.8991C74.5284 35.7709 70.9677 34.7091 70.9677 34.7091C70.9677 34.7091 76.0388 34.6725 75.2058 34.3521C74.3728 34.0317 70.748 33.2262 70.748 33.2262C70.748 33.2262 76.0388 33.2628 75.398 32.9699C74.7572 32.677 70.1988 31.5237 71.0683 31.5237C71.9379 31.5237 74.7939 31.2307 74.7939 31.2307L71.5809 30.5259L75.3339 29.1803H71.4345C71.4345 29.1803 74.6291 27.3496 74.5009 27.3496H71.0683L68.2033 28.2741L70.6015 29.043L68.3772 30.0499L70.6015 30.6083L69.32 31.2674L70.4093 32.4482L68.1667 33.7937L69.8784 34.2057L68.2765 35.4231L70.034 36.3659C70.034 36.3659 68.4779 37.025 68.0843 37.1348C67.8554 37.1989 70.4184 38.9106 70.4184 38.9106C70.4184 38.9106 67.9836 38.8557 67.9561 39.1486C67.9378 39.3591 69.6495 40.0182 69.6495 40.0182L67.4435 40.4484L69.0729 41.6018C69.0729 41.6018 66.2902 42.5171 66.1803 42.5538C65.3748 42.8467 65.8874 43.4874 66.2719 44.5218C66.4275 44.9428 66.1803 45.1442 65.805 45.2815C65.2558 45.4829 64.4503 45.5287 64.2214 45.8765C63.8919 46.3708 65.8966 47.9727 63.6265 50.9476L63.6082 50.9568Z" fill="#E5E4F5"/>
</g>
<g style="mix-blend-mode:multiply">
<path d="M71.105 25.3809C71.105 25.2528 74.1165 23.6143 74.1165 23.6143H71.5809L73.9243 21.9117L69.0454 22.3328L72.6062 19.3853L69.2102 20.3739L71.6816 18.0306L69.082 18.6439L71.0683 15.5957L70.4917 15.7788C70.1713 16.3555 69.5397 16.9779 68.4321 17.5912C64.5144 19.7697 65.7409 20.6027 65.7409 20.6027L67.8554 19.7331C67.8554 19.7331 66.7387 20.7766 65.6403 21.9208C65.3382 22.2321 68.4046 21.5364 68.13 21.8476C67.7639 22.2687 66.757 22.8728 65.7959 23.422C65.448 23.6234 69.7502 23.4587 69.439 23.6417C68.7067 24.0628 67.0316 25.0971 67.1323 25.1795C67.4161 25.4267 70.0157 24.7951 70.0157 24.7951L69.4024 25.7745C69.4024 25.7745 71.2331 25.9759 71.3063 26.1681C71.4436 26.5251 70.6931 27.0469 70.9494 27.1201L74.4735 25.6647C74.4735 25.6647 71.105 25.4999 71.105 25.3718V25.3809Z" fill="#E5E4F5"/>
</g>
</svg>
