<svg width="35" height="83" viewBox="0 0 35 83" fill="none" xmlns="http://www.w3.org/2000/svg">
<path d="M34.6798 21.2495C34.6798 21.7519 34.658 24.6357 34.6033 25.1273C34.3521 27.6506 33.4782 30.0101 32.1128 32.0418C29.6659 34.0736 24.5319 35.2642 17.5081 35.4718C16.4922 35.4936 15.5309 35.4936 14.668 35.4499C9.78519 35.297 6.92325 34.3357 5.14272 33.44C4.85871 33.1014 4.59654 32.7518 4.3453 32.3914C2.90341 30.3487 1.95306 27.9565 1.65813 25.3785C1.60351 24.8214 1.55981 21.8503 1.55981 21.2713C1.55981 14.8156 5.6452 9.29923 11.4893 6.907C13.521 6.05498 15.7603 5.59619 18.1089 5.59619C18.6223 5.59619 19.1248 5.61804 19.6273 5.67266C27.0006 6.29529 32.9757 11.4948 34.363 18.2783C34.5706 19.2614 34.6689 20.2664 34.6689 21.2932L34.6798 21.2495Z" fill="#FFABD4"/>
<path d="M4.33431 32.3808C2.89241 30.3382 1.94207 27.9459 1.64714 25.368C1.59252 24.8109 1.54883 21.8397 1.54883 21.2608C1.54883 14.805 5.6342 9.28872 11.4783 6.89648C11.227 7.42081 3.37304 24.363 21.4951 28.7215C35.3679 32.0531 15.1486 32.4136 4.32339 32.3918L4.33431 32.3808Z" fill="#FF96C9"/>
<path d="M34.3629 18.2348C31.359 21.0203 26.225 20.922 22.3471 17.8416C18.2617 14.5755 17.082 9.20117 19.6163 5.64014C26.9896 6.26277 32.9647 11.4623 34.352 18.2458L34.3629 18.2348Z" fill="#FFD4E9"/>
<path d="M33.2488 30.2611C33.2488 30.2611 33.1724 30.5451 33.085 30.9821C33.085 30.9821 33.085 31.0148 33.0741 31.0804C33.0522 31.1568 33.0413 31.2333 33.0194 31.3316C33.0194 31.3425 33.0195 31.3534 33.0085 31.3644C32.9976 31.4627 32.9758 31.561 32.9539 31.6593C32.8447 32.1946 32.6808 32.8827 32.517 33.6911C32.2657 34.7506 31.9817 36.0505 31.6431 37.4815C31.5229 37.973 31.4137 38.4646 31.2935 38.9998C31.1406 39.5897 31.0095 40.1905 30.8675 40.8131C30.66 41.6433 30.4634 42.5063 30.2449 43.402C29.7424 45.5211 29.1962 47.7932 28.6173 50.1417C28.508 50.6442 28.3879 51.1576 28.2568 51.6492V51.6819C28.0274 52.5558 27.798 53.4297 27.6014 54.3036C26.8695 57.2529 26.094 60.235 25.3293 63.086C25.1873 63.5994 25.0562 64.1019 24.9142 64.6153C24.7613 65.2161 24.6084 65.7841 24.4445 66.363C24.2042 67.1714 23.9857 67.9579 23.7782 68.7334C23.4832 69.7821 23.1774 70.787 22.8825 71.7592C22.7295 72.2726 22.5985 72.7642 22.4455 73.2448C22.0195 74.6102 21.6153 75.8555 21.233 76.9697C20.9599 77.7452 20.6978 78.4662 20.4247 79.1216C20.0096 80.2139 19.5945 81.1206 19.2449 81.7651V81.7869C18.8189 82.5625 18.4148 82.9994 18.098 82.9994C17.9997 82.9994 17.8904 82.9666 17.7921 82.8792C17.4316 82.6389 17.0056 81.9835 16.5468 81.0004L16.525 80.9676L16.2191 80.3232C16.1208 80.1047 16.0116 79.8535 15.9133 79.6022C15.3999 78.3351 14.8428 76.7731 14.2638 74.9707C14.1 74.4791 13.9252 73.9657 13.7614 73.4414C13.2261 71.7483 12.669 69.8913 12.1119 67.9251C11.8716 67.1277 11.6422 66.3084 11.4347 65.4892C11.2053 64.7136 10.9977 63.938 10.7792 63.1297C10.6372 62.6381 10.5171 62.1357 10.3751 61.6332C9.71966 59.1973 9.06426 56.6849 8.43069 54.1943C8.13576 53.0037 7.81899 51.8021 7.52405 50.6114C6.90141 48.0772 6.2897 45.5976 5.75445 43.3146C5.62336 42.8012 5.50321 42.3096 5.37213 41.8072C5.10996 40.693 4.85872 39.6443 4.62933 38.6503C4.37809 37.5907 4.13777 36.5858 3.94114 35.6682C3.18742 32.4567 2.72864 30.4359 2.72864 30.4359C8.39792 33.9969 11.9262 34.8926 18.0324 34.9909C18.6551 35.0019 19.2668 34.98 19.8567 34.9473C20.8507 34.8926 21.801 34.7725 22.7186 34.5868C23.0135 34.5322 23.3085 34.4666 23.5816 34.412H23.5925C25.0016 34.0843 26.3015 33.6911 27.4703 33.2541C30.8675 31.9652 33.0741 30.414 33.3144 30.2393L33.2488 30.2611Z" fill="#FFD35C"/>
<path d="M24.4335 66.3858C23.8545 66.8118 23.2647 67.2159 22.6748 67.6201C21.4732 68.4284 20.2607 69.2259 19.0482 70.0233C18.9827 69.9905 18.9281 69.9577 18.8734 69.9468C16.2736 68.7125 13.6411 67.347 11.3908 65.5228C11.6093 66.353 11.8387 67.1613 12.079 67.9587C13.794 69.1275 15.6292 70.1106 17.508 71.0173C16.2409 71.8256 14.9847 72.6558 13.7394 73.4751C13.9142 74.0103 14.0671 74.5237 14.2419 75.0043C15.8585 73.912 17.5189 72.8524 19.1684 71.7929C20.2389 72.3063 21.3312 72.8087 22.4454 73.2784C22.5983 72.7978 22.7403 72.3172 22.8933 71.7929C22.1614 71.4761 21.4295 71.1593 20.7086 70.8098C21.7354 70.1434 22.7622 69.4662 23.7781 68.7671C23.9965 67.9915 24.215 67.205 24.4444 66.3967L24.4335 66.3858ZM23.1991 36.5648C25.7989 37.6353 28.5189 38.4546 31.2934 39.0007C31.4027 38.4655 31.5119 37.9739 31.632 37.4933C29.2944 37.0236 26.9896 36.3682 24.7612 35.4943C25.6788 34.8061 26.5745 34.0743 27.4156 33.2769C26.2577 33.7138 24.9578 34.118 23.5487 34.4347H23.5378C23.3848 34.5767 23.2101 34.686 23.0571 34.7952C22.937 34.7297 22.8059 34.686 22.6857 34.6204C21.7681 34.7952 20.8178 34.9154 19.8129 34.9809C20.359 35.2758 20.9052 35.538 21.4623 35.8111C20.6212 36.3136 19.7582 36.7724 18.8407 37.1984C15.6947 38.6184 12.4177 39.7545 9.08599 40.7703C8.82383 40.5519 8.55074 40.3334 8.28858 40.1149C6.7156 38.7604 5.23 37.2967 3.89734 35.7237C4.10488 36.6303 4.33428 37.6244 4.58552 38.7058C5.4594 39.6124 6.37697 40.4645 7.34916 41.2947C6.68283 41.4804 6.00558 41.6879 5.33925 41.8517C5.4594 42.3542 5.59048 42.8458 5.71064 43.3592C6.73745 43.0752 7.76426 42.7802 8.80199 42.4744C11.7622 44.812 15.0065 46.7564 18.4365 48.3512C17.8794 48.5806 17.3114 48.8318 16.7652 49.0831C14.22 50.1754 11.653 51.2131 9.08599 52.2727C8.53982 51.7374 7.99364 51.2131 7.49116 50.656C7.7861 51.8358 8.10288 53.0373 8.39781 54.2389C8.51797 54.1734 8.62721 54.1297 8.75829 54.086C10.9539 56.1287 13.368 57.931 15.8913 59.5695C14.0562 60.3014 12.1773 60.9677 10.3422 61.6778C10.4842 62.1802 10.6044 62.6718 10.7464 63.1743C12.9857 62.2895 15.2687 61.4921 17.4752 60.5745C18.0105 60.9022 18.5239 61.2299 19.07 61.5358C20.9598 62.6281 22.9042 63.6986 24.9141 64.6489C25.0561 64.1355 25.1981 63.6331 25.3401 63.1197C23.4504 62.213 21.6262 61.2081 19.8675 60.1922C19.649 60.072 19.4305 59.93 19.2121 59.7989C20.9926 58.9688 22.7185 58.0512 24.357 56.8824C25.4603 56.085 26.5526 55.2329 27.6122 54.3263C27.8198 53.4524 28.0382 52.5786 28.2567 51.7047C26.6073 53.2667 24.794 54.6868 22.9916 55.943C21.3094 57.1118 19.4961 58.0184 17.65 58.8268C15.083 57.221 12.6034 55.4296 10.3422 53.4197C12.6361 52.4802 14.941 51.5517 17.2131 50.5686C18.2617 50.1208 19.3213 49.6511 20.359 49.1704C22.9151 50.2191 25.5477 51.0602 28.2785 51.6828C28.3987 51.1804 28.5298 50.667 28.639 50.1754C26.924 49.8149 25.209 49.3671 23.5268 48.799C23.0899 48.657 22.653 48.4713 22.216 48.2966C23.6688 47.6084 25.0889 46.8656 26.4762 46.0354C27.7979 45.238 29.065 44.386 30.2666 43.4138C30.4851 42.529 30.6926 41.6551 30.8893 40.8249C29.218 42.3651 27.3719 43.7087 25.4057 44.8666C23.7235 45.8497 21.9975 46.7236 20.217 47.5319C16.8089 46.0682 13.5646 44.1784 10.6044 41.9391C13.794 40.9233 16.9618 39.8091 19.9876 38.3999C21.1455 37.8538 22.216 37.2311 23.2428 36.5757L23.1991 36.5648ZM18.6659 78.2595C17.7483 78.7292 16.8089 79.1771 15.8804 79.614C16.1098 80.1493 16.3173 80.6081 16.5249 81.0122C17.4097 80.6081 18.2726 80.182 19.1465 79.767C19.5725 79.5485 19.9985 79.3409 20.4246 79.1334C20.6867 78.478 20.9598 77.7571 21.2329 76.9815C20.3918 77.4184 19.5288 77.8335 18.6768 78.2595H18.6659Z" fill="#CC9C1A"/>
<g style="mix-blend-mode:multiply" opacity="0.37">
<path d="M33.2488 30.2611C33.2488 30.2611 33.1724 30.5451 33.085 30.9821C33.085 30.9821 33.085 31.0148 33.0741 31.0804C33.0522 31.1568 33.0413 31.2333 33.0194 31.3316C33.0194 31.3425 33.0194 31.3534 33.0085 31.3644C32.659 32.4021 30.8347 35.3733 21.2221 37.7327C19.4743 38.1587 14.9738 41.8399 13.379 43.1944C8.27776 47.542 17.7703 82.8792 17.7703 82.8792C17.4098 82.6389 16.9838 81.9835 16.525 81.0004L16.5031 80.9676L16.1973 80.3232C16.099 80.1047 15.9897 79.8535 15.8914 79.6022C15.378 78.3351 14.8209 76.7731 14.242 74.9707C14.0781 74.4791 13.9033 73.9657 13.7395 73.4414C13.2042 71.7483 12.6471 69.8913 12.0901 67.9251C11.8497 67.1277 11.6203 66.3084 11.4128 65.4892C11.1834 64.7136 10.9759 63.938 10.7574 63.1297C10.6154 62.6381 10.4952 62.1357 10.3532 61.6332C9.69781 59.1973 9.04241 56.6849 8.40884 54.1943C8.11391 53.0037 7.79713 51.8021 7.50219 50.6114C6.87955 48.0772 6.26784 45.5976 5.73259 43.3146C5.6015 42.8012 5.48135 42.3096 5.35027 41.8072C5.0881 40.693 4.83686 39.6443 4.60747 38.6503C4.35623 37.5907 4.11592 36.5858 3.91929 35.6682C3.16557 32.4567 2.70679 30.4359 2.70679 30.4359C8.37607 33.9969 11.9043 34.8926 18.0106 34.9909C18.6332 35.0019 19.2449 34.98 19.8348 34.9473C20.8288 34.8926 21.7792 34.7725 22.6968 34.5868C22.9917 34.5322 23.2866 34.4666 23.5597 34.412H23.5706C24.9798 34.0843 26.2796 33.6911 27.4485 33.2541C30.8457 31.9652 33.0522 30.414 33.2925 30.2393L33.2488 30.2611Z" fill="#8B47DE"/>
</g>
<path d="M33.5765 29.9881C33.3472 30.7418 32.8556 31.4191 32.1128 32.0308C29.6659 34.0625 24.5319 35.2532 17.5081 35.4607C16.4922 35.4826 15.531 35.4826 14.668 35.4389C9.78522 35.286 6.92327 34.3247 5.14274 33.429C3.87562 32.7845 3.1656 32.1728 2.68496 31.8779C1.88755 31.3972 0.74058 26.9405 1.06828 25.4658C1.14475 25.1709 1.26491 24.9961 1.4506 24.9961C1.4506 24.9961 1.50522 25.1709 1.65815 25.3566C1.69092 25.3893 1.73462 25.444 1.76739 25.4767C2.53203 26.2414 6.6611 28.3168 13.2698 28.9722C14.6134 29.0924 16.0553 29.1688 17.5955 29.147C28.6282 29.0487 33.7076 25.7717 34.6143 25.1163C34.7235 25.0289 34.7672 24.9961 34.7672 24.9961C34.8655 25.1163 34.9201 25.1599 34.9311 25.2801C34.9857 25.586 34.6907 26.3397 33.5765 29.9772V29.9881Z" fill="#FFD76C"/>
<g style="mix-blend-mode:screen" opacity="0.38">
<path d="M25.1216 50.8509C24.0402 59.1636 19.3759 74.9589 20.1405 75.2647C20.9052 75.5706 32.8336 34.4876 30.4195 35.4816C27.8306 36.5412 25.6241 47.0386 25.1325 50.8509H25.1216Z" fill="#FFEAB3"/>
</g>
<path d="M34.931 25.291C34.8108 25.5313 30.7582 28.3168 21.3859 29.1251C18.7424 29.3545 15.8476 29.2671 13.2806 29.0377C13.1495 29.0268 13.0185 29.0159 12.8874 29.0049C11.1287 28.8302 9.56664 28.5898 8.36506 28.3495C4.32337 27.5084 1.05725 26.1211 1.05725 25.4657C1.05725 25.3784 1.06818 25.3128 1.0791 25.2473C1.09003 25.2036 1.10095 25.149 1.1228 25.1162C1.1228 25.1053 1.13372 25.0943 1.14464 25.0834C1.15556 25.0397 1.18833 24.996 1.2211 24.9633C1.24295 24.9196 1.2648 24.8759 1.31942 24.8431C1.4505 24.7229 1.58158 24.6465 1.58158 24.6465C1.58158 24.6465 1.58158 24.7885 1.61435 25.0507C1.61435 25.0943 1.62527 25.1599 1.63619 25.2145C1.63619 25.2473 1.65804 25.291 1.71266 25.3347C1.81097 25.433 1.95298 25.5422 2.1496 25.6624C2.24791 25.717 2.36807 25.7934 2.51008 25.859C2.51008 25.859 2.51372 25.8626 2.521 25.8699C2.65208 25.9464 2.80501 26.0119 2.97979 26.0884C3.14364 26.1758 3.34026 26.2413 3.52596 26.3287C3.62427 26.3615 3.7335 26.4052 3.83182 26.4488C4.05028 26.5362 4.25783 26.6127 4.49815 26.7001C6.52991 27.432 9.51202 28.2184 13.084 28.6117C14.515 28.7646 16.0443 28.8629 17.65 28.8629C27.1207 28.8629 33.2706 26.0556 34.4722 25.1599C34.636 25.0288 34.6033 24.7994 34.6142 24.7885C34.6579 24.7557 35.0402 25.0288 34.9091 25.291H34.931Z" fill="#FFE399"/>
<g style="mix-blend-mode:multiply" opacity="0.21">
<path d="M14.6679 35.4388C6.34426 35.1657 3.86464 32.5987 2.67398 31.8778C1.87656 31.3972 0.729594 26.9404 1.0573 25.4657C1.0573 25.3784 1.06823 25.3128 1.07915 25.2473C1.09007 25.2036 1.101 25.149 1.12284 25.1162C1.12284 25.1053 1.13376 25.0943 1.14469 25.0834C1.15561 25.0397 1.18838 24.996 1.22115 24.9633C1.243 24.9196 1.26485 24.8759 1.31947 24.8431C1.45055 24.7229 1.58163 24.6465 1.58163 24.6465C1.58163 24.6465 1.58163 24.7885 1.6144 25.0507C1.60347 25.1053 1.60347 25.1599 1.6144 25.2145C1.62532 25.2473 1.64716 25.3019 1.7127 25.3347C1.81102 25.433 1.95302 25.5422 2.14965 25.6624C2.25888 25.717 2.37904 25.7825 2.51012 25.859C2.51012 25.859 2.51377 25.8626 2.52105 25.8699C2.66305 25.9245 2.81598 26.001 2.97983 26.0884C3.14368 26.1648 3.32938 26.2304 3.52601 26.3287C3.62432 26.3615 3.73355 26.4052 3.83186 26.4488C4.05033 26.5362 4.25788 26.6127 4.49819 26.7001C6.52996 27.432 9.51207 28.2184 13.084 28.6117C12.9857 28.6663 12.8437 28.8739 12.8656 29.0049C12.8656 29.0049 13.7504 33.986 14.6461 35.4388H14.6679Z" fill="#8B47DE"/>
</g>
<path d="M33.0851 21.4568C31.6869 20.7468 31.8289 15.0448 29.7971 15.6565C28.2788 16.1262 27.8637 17.7757 27.8091 19.2722C27.7326 21.7627 28.9888 24.6683 25.5588 24.6683C22.1288 24.6683 25.7991 14.9683 21.244 14.8482C19.966 14.8154 19.5509 17.0438 19.4526 18.9554C19.398 20.2662 20.0643 21.5333 19.2123 21.4896C17.6721 21.4132 18.2401 18.1689 16.973 18.3546C15.5748 18.5621 15.3563 21.6535 14.2203 21.6098C11.9263 21.5005 13.4228 18.7697 12.0793 18.7041C10.976 18.6714 10.0475 22.5273 9.39208 23.7726C9.261 24.0239 9.14083 24.1659 9.0316 24.1549C6.61751 23.7726 8.81313 15.5473 6.12595 14.8373C4.66221 14.444 4.05049 18.3437 3.122 19.0537C2.12796 19.8402 1.42886 19.4469 1.83302 17.5353C2.99091 12.0736 7.30569 6.86315 14.0236 5.41033C15.2143 5.15909 16.4814 5.01709 17.825 5.01709C26.7058 5.01709 32.244 10.3914 34.3413 16.6396C35.5538 20.2334 34.1119 21.9812 33.0632 21.4459L33.0851 21.4568Z" fill="#FFFDE3"/>
<path d="M25.8318 23.9248C26.1376 24.307 27.7539 24.2415 27.4481 20.5283C27.4481 20.5283 27.2406 22.1119 26.771 22.8545C26.4215 23.4224 25.526 23.5425 25.8318 23.9248Z" fill="white"/>
<path d="M33.5437 20.7363C34.0025 21.064 35.3133 19.928 33.8714 16.2468C32.2438 12.0849 30.7473 10.8506 30.7473 10.8506C30.7473 10.8506 32.2875 12.795 33.5437 16.6728C33.9807 18.0273 33.0849 20.4086 33.5437 20.7254V20.7363Z" fill="white"/>
<path d="M9.40293 23.7724C9.27185 24.0237 9.1517 24.1657 9.04246 24.1548C6.62838 23.7724 8.82399 15.5471 6.13682 14.8371C4.67307 14.4438 4.06135 18.3435 3.13286 19.0535C2.13882 19.84 1.43972 19.4468 1.84389 17.5352C3.00178 12.0734 7.31656 6.86297 14.0345 5.41016C14.0345 5.41016 10.5608 6.27311 9.2937 10.2711C8.44167 12.9364 7.07623 24.0674 9.40293 23.7615V23.7724Z" fill="#FBF8CA"/>
<path d="M17.0928 2.71275C15.9021 2.45059 13.8048 3.49924 13.8813 2.07919C13.8813 2.07919 13.8813 2.07919 13.8813 2.06827C14.0452 1.77334 14.2309 1.55487 14.4166 1.40194C14.5039 1.3364 14.6132 1.25994 14.7333 1.1944C14.7333 1.1944 14.7333 1.1944 14.7443 1.1944C15.5089 0.746535 16.2298 0.833922 16.5029 0.768382C16.776 0.702841 16.9508 0.244057 17.9558 0.0583587C18.1852 0.0365119 18.3709 0.0255884 18.5456 0.0365119C18.7969 0.0692822 19.0263 0.15667 19.2447 0.276827C19.9111 0.98685 18.0104 2.94214 17.0819 2.74552L17.0928 2.71275Z" fill="#E65353"/>
<path d="M20.8725 3.14937C20.8725 3.3023 20.8616 3.45523 20.8397 3.60816C20.8397 3.60816 20.8397 3.63 20.8288 3.64093C20.7851 3.92494 20.6977 4.1871 20.5885 4.43834C20.512 4.61311 20.4246 4.77696 20.3154 4.92989C20.2171 5.0719 20.0969 5.2139 19.9658 5.34498C19.944 5.37775 19.9112 5.42145 19.8675 5.45422C19.5835 5.74915 19.2449 5.98946 18.8735 6.17516C18.6113 6.29532 18.3492 6.40456 18.0652 6.45917C17.9668 6.50287 17.8685 6.51379 17.7812 6.54656C17.7484 6.54656 17.6938 6.55748 17.6501 6.56841C17.4862 6.59025 17.3114 6.6121 17.1367 6.62302C17.0056 6.62302 16.8745 6.62302 16.7325 6.6121C15.946 6.59025 15.1267 6.15332 14.5369 5.5416C14.373 5.38868 14.231 5.23575 14.1109 5.05005C14.0344 4.94082 13.9798 4.83158 13.9142 4.72235C13.8705 4.64588 13.8269 4.56942 13.7941 4.48203C13.7504 4.38372 13.7067 4.28541 13.6848 4.20895C13.6412 4.06694 13.5865 3.91401 13.5647 3.75016C13.5428 3.58631 13.5319 3.44431 13.5319 3.29138H13.521C13.5319 3.00737 13.5975 2.73428 13.6958 2.43935C13.7504 2.31919 13.8159 2.19904 13.8705 2.0898C13.8705 2.07888 13.8815 2.06795 13.8815 2.05703H13.8924C14.0453 1.75118 14.231 1.53271 14.4167 1.37978C14.4167 1.37978 14.4276 1.37978 14.4276 1.36886C14.5369 1.28147 14.6352 1.21593 14.7335 1.16131C14.7444 1.16131 14.7444 1.15039 14.7444 1.15039C14.8209 1.11762 14.8864 1.09577 14.9738 1.063C15.0066 1.05208 15.0503 1.04115 15.0831 1.03023H15.094C15.094 1.03023 15.1814 1.00838 15.2578 0.997459H15.2797C15.2797 0.997459 15.3343 0.986535 15.378 0.986535C15.4544 0.975612 15.5309 0.975612 15.6183 0.975612C15.6948 0.975612 15.7712 0.975612 15.8586 0.986535C15.9023 0.975612 15.946 0.986535 15.9897 0.986535C16.0225 0.997459 16.0662 0.997459 16.088 0.997459H16.1317C16.1317 0.997459 16.1536 0.986535 16.1645 0.997459H16.2082C16.2082 0.997459 16.2519 0.986535 16.2846 0.986535C16.2956 0.986535 16.3065 0.997459 16.3174 0.986535C16.3502 0.997459 16.4048 0.997459 16.4376 0.986535C16.4813 0.997459 16.525 0.986535 16.5577 0.975612C16.6342 0.986535 16.6779 0.975612 16.7216 0.942842C16.798 0.899148 16.8417 0.855454 16.8636 0.822684C16.8854 0.81176 16.8963 0.789914 16.9073 0.77899C16.9182 0.757143 16.9291 0.74622 16.94 0.724373C16.94 0.724373 16.9619 0.691603 16.9837 0.669756C17.0056 0.626062 17.0384 0.582368 17.0821 0.538675C17.235 0.3639 17.3879 0.254666 17.5518 0.178202C17.5518 0.178202 17.559 0.17456 17.5736 0.167278C17.5736 0.167278 17.6719 0.112661 17.7265 0.0908142C17.803 0.0689673 17.8685 0.0471205 17.945 0.0361971H17.9996C18.1962 -0.00749666 18.3601 -0.00749666 18.5349 0.0143502C18.7752 0.0471205 19.0155 0.134508 19.223 0.254666C19.5944 0.484058 19.9112 0.81176 20.1625 1.19408C20.1952 1.23777 20.2171 1.29239 20.2608 1.33608C20.6213 1.87133 20.8179 2.54859 20.8397 3.14937H20.8725Z" fill="#E63535"/>
<path opacity="0.59" d="M20.8179 3.64111C20.7742 3.92512 20.6868 4.18728 20.5776 4.43852C20.5011 4.6133 20.4137 4.77715 20.3045 4.93008C20.2062 5.07208 20.086 5.21409 19.9549 5.34517C19.9331 5.37794 19.9003 5.42163 19.8566 5.4544C19.5726 5.74933 19.234 5.98965 18.8626 6.17535C18.6004 6.29551 18.3383 6.40474 18.0542 6.45936C17.9559 6.50305 17.8576 6.51397 17.7702 6.54675C17.7375 6.54675 17.6828 6.55767 17.6391 6.56859C17.4753 6.59044 17.3005 6.61229 17.1257 6.62321C16.9947 6.62321 16.8636 6.62321 16.7216 6.61229C15.9351 6.59044 15.1158 6.1535 14.526 5.54179C14.3621 5.38886 14.2201 5.23593 14.0999 5.05024C14.0235 4.941 13.9689 4.83177 13.9033 4.72253C14.0562 4.95192 14.3075 5.22501 14.6789 5.4544C14.7772 5.50902 14.8974 5.57456 15.0284 5.62918C15.0394 5.62918 15.0394 5.6401 15.0503 5.6401C15.6292 5.89134 16.4157 5.98965 17.4753 5.68379C17.8248 5.58548 18.1307 5.47625 18.4038 5.38886C18.4366 5.37794 18.4584 5.36701 18.4912 5.35609C18.7206 5.2687 18.9063 5.18132 19.092 5.09393C19.9986 4.65699 20.4465 4.19821 20.665 3.9142C20.6759 3.89235 20.6868 3.87051 20.6977 3.85958C20.7414 3.80496 20.7742 3.73942 20.796 3.69573C20.807 3.67388 20.807 3.66296 20.8179 3.65204V3.64111Z" fill="#DB3030"/>
<path d="M20.2061 1.19403C20.2061 1.35788 20.1733 1.53265 20.1078 1.71835C20.0313 1.96959 19.9112 2.24268 19.7582 2.52669C19.7036 2.63592 19.6381 2.73423 19.5725 2.83254C18.513 4.38367 16.6232 4.65675 15.2032 4.58029C14.941 4.56937 14.6897 4.5366 14.4604 4.50383C14.3511 4.4929 14.2419 4.47106 14.1436 4.44921C13.936 4.40552 13.7831 4.32905 13.6629 4.20889C13.5646 3.91396 13.51 3.61903 13.51 3.31317C13.51 3.02916 13.5756 2.74515 13.6848 2.47207C13.7503 2.33006 13.8049 2.19898 13.8705 2.07883C14.0343 1.78389 14.22 1.56542 14.4057 1.4125C14.515 1.32511 14.6133 1.25957 14.7225 1.20495C14.7225 1.20495 14.7225 1.20495 14.7334 1.20495C15.2905 0.931865 15.8258 1.06295 16.1098 1.0411C16.372 1.01925 16.5904 1.06295 16.7106 0.986482C16.94 0.844478 16.9072 0.75709 17.0929 0.560468C17.3769 0.243689 17.65 0.123531 17.9449 0.0579908C18.1525 0.0142971 18.3491 0.00337366 18.5348 0.0361439C18.7861 0.0689142 19.0154 0.156302 19.2339 0.276459C19.6053 0.494928 19.9221 0.833554 20.1843 1.21587L20.2061 1.19403Z" fill="#F24444"/>
<path d="M16.3282 0.768095C16.3282 0.768095 15.9787 0.92099 16.2627 1.07388C16.5466 1.22678 17.1254 0.8227 16.9507 0.702569C16.776 0.582437 16.3282 0.768095 16.3282 0.768095Z" fill="#9E6C2C"/>
<path d="M16.3612 0.800712C16.3612 0.800712 16.0445 0.920843 16.2847 0.997291C16.525 1.07374 17.0492 0.800712 16.9072 0.724264C16.7653 0.647817 16.3612 0.789791 16.3612 0.789791V0.800712Z" fill="#B37A32"/>
<path d="M20.8178 3.64048C20.7741 3.92449 20.6867 4.18665 20.5775 4.43789C20.501 4.61267 20.4136 4.77652 20.3044 4.92945C20.1952 5.08237 20.0859 5.22438 19.9658 5.35546C19.933 5.38823 19.8893 5.43192 19.8565 5.45377C19.5725 5.7487 19.2339 5.98902 18.8625 6.17472C18.6003 6.29487 18.3382 6.40411 18.0542 6.45873C17.9559 6.50242 17.8575 6.51334 17.7702 6.54611C17.7374 6.54611 17.6828 6.55704 17.6391 6.56796C17.4752 6.58981 17.3005 6.61165 17.1257 6.62258C16.9946 6.62258 16.8635 6.62258 16.7215 6.61165C15.935 6.58981 15.1158 6.15287 14.5259 5.54116C14.362 5.38823 14.22 5.2353 14.0999 5.0496C14.0234 4.94037 13.9688 4.83114 13.9033 4.7219C13.8596 4.64544 13.8159 4.56897 13.7831 4.48159C13.7394 4.38328 13.6957 4.28496 13.6739 4.2085C13.6302 4.0665 13.5756 3.91357 13.5537 3.74972C13.5319 3.58587 13.5209 3.44386 13.5209 3.29093H13.51C13.5209 3.00692 13.5865 2.73384 13.6848 2.43891C13.7394 2.31875 13.8049 2.19859 13.8596 2.08936C13.7831 2.31875 13.51 3.31278 14.0562 4.3942C14.2091 4.74375 14.4385 5.06053 14.7771 5.38823C14.8645 5.46469 14.941 5.53024 15.0284 5.61762C15.0393 5.61762 15.0393 5.62855 15.0502 5.62855C15.2796 5.80332 15.5309 5.98902 15.8258 6.15287C16.6669 6.6335 17.4425 6.62258 18.1088 6.36042H18.1197C18.7314 6.1201 19.2667 5.69409 19.6818 5.2353C20.1515 4.73283 20.4792 4.21942 20.6649 3.89172C20.6758 3.86987 20.6867 3.84803 20.6977 3.8371C20.7414 3.78249 20.7741 3.71695 20.796 3.67325C20.8069 3.65141 20.8069 3.64048 20.8178 3.62956V3.64048Z" fill="#DB3030"/>
<path d="M15.0831 1.05147C15.0831 1.05147 15.3016 0.996862 15.6292 0.996862C15.8476 0.996862 16.1315 0.996862 16.481 1.02962C16.896 1.05147 16.9615 0.734756 17.0052 0.647388C17.0489 0.56002 17.3219 0.210546 17.6496 0.14502C17.6496 0.14502 17.2346 0.396204 17.0817 0.723835C16.9288 1.05147 16.7104 1.25897 16.3937 1.23712C16.0769 1.21528 15.9459 1.0187 15.094 1.07331L15.0831 1.05147Z" fill="#FF8080"/>
<path opacity="0.53" d="M17.9669 0.0362945C17.9669 0.0362945 18.2618 0.342084 17.9669 0.626031C17.9669 0.626031 18.6003 0.462216 18.9389 0.702479C18.9389 0.702479 19.1136 0.549584 19.3867 0.560505C19.6597 0.571426 18.928 0.0253734 17.9669 0.0362945Z" fill="#FF9696"/>
<path opacity="0.39" d="M15.3666 2.0565C15.3884 2.14387 14.9843 2.17663 14.755 2.68992C14.5803 3.094 14.755 3.83663 14.5366 3.81479C14.4383 3.81479 14.3072 3.31242 14.2854 3.25782C14.2854 3.25782 13.8704 2.15479 14.9625 1.65242C15.0389 1.61966 15.2028 1.82716 15.2246 1.85992C15.3447 2.03466 15.3557 1.95821 15.3666 2.0565Z" fill="#FFE9C7"/>
<path opacity="0.23" d="M20.4897 3.37828C20.4133 3.44381 20.0638 2.22065 19.627 1.83842C19.2666 1.53263 18.6987 1.51078 18.4148 1.35789C18.1526 1.20499 18.24 0.997494 18.2509 0.964731C18.6659 0.779073 19.4413 0.931968 19.8454 1.36881C20.3478 1.90394 20.8174 3.08342 20.4788 3.37828H20.4897Z" fill="#FFE9C7"/>
<path d="M18.513 5.01629C18.513 5.13645 18.5021 5.24568 18.4912 5.36584C18.4366 5.73724 18.3164 6.08679 18.1198 6.38172H18.1089C18.2181 6.20695 18.3055 5.9994 18.3492 5.78093C18.371 5.66078 18.3929 5.52969 18.4038 5.39861C18.4256 5.26753 18.4365 5.13645 18.4365 5.00537C18.4365 4.66674 18.4147 4.31719 18.3382 3.95672C18.2399 3.47609 18.087 2.98454 17.8576 2.5476C17.5954 1.96866 17.235 1.45526 16.809 1.06201C17.2459 1.40064 17.6391 1.92496 17.9231 2.5039C18.1635 2.94084 18.3273 3.42147 18.4147 3.91303C18.5021 4.28442 18.5349 4.65582 18.513 5.01629Z" fill="#C22A2A"/>
<path d="M18.8626 6.18586H18.8408C18.1198 6.30602 17.3443 6.40433 16.9073 6.39341C16.5032 6.37156 15.9898 6.33879 15.5201 6.28418C14.81 6.20771 14.2092 6.14217 14.2092 6.14217L14.7663 7.30005L19.7802 7.43114L20.5667 5.90186C20.5667 5.90186 19.7693 6.05478 18.8736 6.18586H18.8626Z" fill="#FFFCF6"/>
<g style="mix-blend-mode:multiply" opacity="0.18">
<path d="M20.7414 6.0769C20.7414 6.69954 19.2558 7.20202 17.4425 7.20202C15.6292 7.20202 14.1327 6.69954 14.1327 6.0769C14.1327 5.88028 14.2747 5.69458 14.5259 5.54166C14.8099 5.83659 15.1595 6.08783 15.52 6.28445C15.9897 6.32814 16.5031 6.37184 16.9073 6.39368C17.3442 6.40461 18.1307 6.3063 18.8407 6.18614C18.8516 6.18614 18.8626 6.17521 18.8735 6.17521C19.2449 6.00044 19.5835 5.76012 19.8675 5.45427C19.9003 5.43242 19.944 5.39965 19.9767 5.35596C20.4574 5.55258 20.7414 5.79289 20.7414 6.0769Z" fill="#C9659A"/>
</g>
</svg>
