<svg width="34" height="78" viewBox="0 0 34 78" fill="none" xmlns="http://www.w3.org/2000/svg">
<path d="M33.739 15.6806C33.739 16.184 33.7171 19.0728 33.6624 19.5652C33.4107 22.093 32.5353 24.4565 31.1674 26.4918C28.7163 28.5272 23.5733 29.7199 16.5371 29.9278C15.5195 29.9497 14.5565 29.9497 13.6921 29.9059C8.80071 29.7527 5.93374 28.7898 4.15009 27.8925C3.86558 27.5533 3.60296 27.2031 3.35128 26.842C1.90686 24.7958 0.954848 22.3993 0.659397 19.8169C0.604684 19.2588 0.560913 16.2825 0.560913 15.7025C0.560913 9.23549 4.65346 3.70952 10.5078 1.3131C12.5431 0.459586 14.7863 0 17.139 0C17.6533 0 18.1567 0.0218847 18.66 0.0765973C26.0463 0.700321 32.0319 5.90896 33.4216 12.7043C33.6295 13.6891 33.728 14.6958 33.728 15.7244L33.739 15.6806Z" fill="#FFABD4"/>
<path d="M3.3403 26.8312C1.89587 24.7849 0.943861 22.3885 0.648411 19.8061C0.593697 19.248 0.549927 16.2716 0.549927 15.6917C0.549927 9.22463 4.64247 3.69866 10.4968 1.30225C10.2451 1.82749 2.37735 18.7993 20.5312 23.1654C34.4283 26.5029 14.1735 26.864 3.32935 26.8421L3.3403 26.8312Z" fill="#FF96C9"/>
<path d="M33.4215 12.6617C30.4123 15.452 25.2693 15.3535 21.3846 12.2677C17.2921 8.99591 16.1103 3.61218 18.649 0.0449219C26.0353 0.668646 32.0209 5.87729 33.4106 12.6726L33.4215 12.6617Z" fill="#FFD4E9"/>
<path d="M32.3164 24.7084C32.3164 24.7084 32.2398 24.9929 32.1522 25.4306C32.1522 25.4306 32.1522 25.4634 32.1413 25.5291C32.1194 25.6057 32.1085 25.6823 32.0866 25.7808C32.0866 25.7917 32.0866 25.8027 32.0756 25.8136C32.0647 25.9121 32.0428 26.0106 32.0209 26.1091C31.9115 26.6452 31.7474 27.3346 31.5832 28.1444C31.3315 29.2058 31.047 30.5079 30.7078 31.9414C30.5874 32.4338 30.478 32.9262 30.3576 33.4624C30.2044 34.0533 30.0731 34.6552 29.9309 35.2789C29.723 36.1105 29.526 36.975 29.3071 37.8723C28.8038 39.9951 28.2567 42.2712 27.6767 44.6238C27.5673 45.1272 27.4469 45.6415 27.3156 46.1339V46.1667C27.0858 47.0421 26.856 47.9175 26.659 48.7929C25.9259 51.7474 25.149 54.7347 24.383 57.5907C24.2407 58.105 24.1094 58.6083 23.9672 59.1226C23.814 59.7245 23.6608 60.2935 23.4966 60.8734C23.2559 61.6832 23.037 62.4711 22.8291 63.248C22.5337 64.2985 22.2273 65.3052 21.9318 66.279C21.7786 66.7933 21.6473 67.2858 21.4941 67.7672C21.0674 69.135 20.6625 70.3825 20.2795 71.4986C20.0059 72.2756 19.7433 72.9978 19.4697 73.6543C19.0539 74.7486 18.6381 75.6568 18.2879 76.3024V76.3243C17.8612 77.1012 17.4563 77.5389 17.1389 77.5389C17.0405 77.5389 16.931 77.5061 16.8326 77.4185C16.4714 77.1778 16.0447 76.5213 15.5851 75.5364L15.5632 75.5036L15.2568 74.858C15.1583 74.6391 15.0489 74.3875 14.9504 74.1358C14.4361 72.8664 13.878 71.3017 13.2981 69.4961C13.134 69.0037 12.9589 68.4894 12.7947 67.9642C12.2585 66.2681 11.7005 64.4079 11.1424 62.4382C10.9017 61.6394 10.6719 60.8187 10.4639 59.998C10.2342 59.2211 10.0262 58.4442 9.80739 57.6345C9.66514 57.142 9.54477 56.6387 9.40251 56.1353C8.74596 53.6951 8.0894 51.1784 7.45472 48.6835C7.15927 47.4907 6.84194 46.2871 6.54649 45.0943C5.92276 42.5557 5.30997 40.0717 4.77378 37.7847C4.64247 37.2704 4.5221 36.778 4.39079 36.2747C4.12817 35.1585 3.87649 34.108 3.64669 33.1123C3.39501 32.0508 3.15427 31.0441 2.9573 30.125C2.20226 26.9079 1.74268 24.8835 1.74268 24.8835C7.4219 28.4508 10.9564 29.348 17.0733 29.4465C17.697 29.4575 18.3098 29.4356 18.9007 29.4027C19.8965 29.348 20.8485 29.2277 21.7677 29.0416C22.0631 28.9869 22.3586 28.9213 22.6321 28.8666H22.6431C24.0547 28.5383 25.3569 28.1444 26.5277 27.7067C29.9309 26.4154 32.1413 24.8616 32.382 24.6865L32.3164 24.7084Z" fill="#FFD35C"/>
<path d="M23.4746 60.8958C22.8946 61.3225 22.3037 61.7274 21.7128 62.1323C20.5091 62.942 19.2945 63.7408 18.0799 64.5396C18.0142 64.5068 17.9595 64.474 17.9048 64.4631C15.3005 63.2265 12.6633 61.8587 10.4091 60.0313C10.628 60.863 10.8578 61.6727 11.0985 62.4715C12.8165 63.6424 14.6548 64.6272 16.537 65.5354C15.2676 66.3452 14.0092 67.1768 12.7618 67.9975C12.9369 68.5337 13.09 69.048 13.2651 69.5294C14.8846 68.4352 16.5479 67.3738 18.2003 66.3123C19.2726 66.8266 20.3669 67.33 21.483 67.8005C21.6362 67.319 21.7785 66.8376 21.9317 66.3123C21.1985 65.995 20.4654 65.6777 19.7432 65.3275C20.7718 64.66 21.8004 63.9816 22.818 63.2813C23.0369 62.5043 23.2557 61.7165 23.4855 60.9067L23.4746 60.8958ZM22.2381 31.0227C24.8424 32.0951 27.5671 32.9158 30.3466 33.4629C30.456 32.9267 30.5654 32.4343 30.6858 31.9528C28.3441 31.4823 26.0352 30.8257 23.8029 29.9503C24.7221 29.261 25.6194 28.5278 26.4619 27.729C25.302 28.1667 23.9998 28.5716 22.5882 28.8889H22.5773C22.4241 29.0312 22.249 29.1406 22.0958 29.25C21.9755 29.1844 21.8442 29.1406 21.7238 29.0749C20.8046 29.25 19.8526 29.3704 18.8459 29.436C19.393 29.7315 19.9401 29.9941 20.4982 30.2677C19.6556 30.771 18.7912 31.2306 17.872 31.6574C14.7205 33.0799 11.4377 34.2179 8.10021 35.2356C7.83759 35.0167 7.56402 34.7979 7.3014 34.579C5.72566 33.2222 4.23747 31.7559 2.90247 30.1801C3.11038 31.0884 3.34017 32.0841 3.59185 33.1674C4.46726 34.0757 5.38644 34.9292 6.36034 35.7608C5.69283 35.9468 5.01439 36.1547 4.34689 36.3189C4.46726 36.8222 4.59857 37.3147 4.71894 37.829C5.74755 37.5444 6.77616 37.249 7.81571 36.9426C10.7812 39.2843 14.0311 41.2321 17.4671 42.8297C16.909 43.0595 16.34 43.3112 15.7929 43.5628C13.2432 44.6571 10.6717 45.6966 8.10021 46.7581C7.55308 46.2219 7.00595 45.6966 6.50259 45.1386C6.79804 46.3204 7.11538 47.524 7.41083 48.7277C7.53119 48.662 7.64062 48.6183 7.77193 48.5745C9.9714 50.6208 12.3897 52.4263 14.9175 54.0677C13.0791 54.8008 11.197 55.4683 9.35862 56.1796C9.50087 56.6829 9.62124 57.1753 9.76349 57.6787C12.0067 56.7923 14.2937 55.9935 16.5042 55.0744C17.0403 55.4026 17.5546 55.7309 18.1018 56.0373C19.9948 57.1316 21.9426 58.2039 23.9561 59.1559C24.0983 58.6416 24.2406 58.1383 24.3828 57.624C22.4898 56.7157 20.6623 55.709 18.9006 54.6914C18.6817 54.571 18.4629 54.4288 18.244 54.2974C20.0277 53.4658 21.7566 52.5466 23.398 51.3758C24.5032 50.577 25.5975 49.7235 26.6589 48.8152C26.8668 47.9398 27.0857 47.0644 27.3045 46.189C25.6522 47.7538 23.8357 49.1763 22.0302 50.4347C20.345 51.6056 18.5285 52.5138 16.6792 53.3236C14.1077 51.715 11.6237 49.9204 9.35862 47.907C11.6566 46.966 13.9655 46.0358 16.2415 45.051C17.292 44.6024 18.3535 44.1318 19.393 43.6504C21.9536 44.7009 24.5908 45.5434 27.3264 46.1672C27.4468 45.6638 27.5781 45.1495 27.6875 44.6571C25.9695 44.296 24.2515 43.8473 22.5664 43.2783C22.1287 43.1361 21.691 42.9501 21.2532 42.775C22.7086 42.0856 24.1312 41.3415 25.5209 40.5099C26.8449 39.7111 28.1143 38.8575 29.318 37.8837C29.5368 36.9973 29.7447 36.1219 29.9417 35.2903C28.2675 36.8332 26.4182 38.1791 24.4485 39.339C22.7633 40.3238 21.0344 41.1993 19.2507 42.009C15.8366 40.5427 12.5867 38.6496 9.62124 36.4064C12.8165 35.3888 15.9898 34.2726 19.021 32.861C20.1809 32.3139 21.2533 31.6902 22.2819 31.0336L22.2381 31.0227ZM17.6969 72.7903C16.7777 73.2608 15.8366 73.7095 14.9065 74.1472C15.1363 74.6834 15.3442 75.1429 15.5521 75.5478C16.4385 75.1429 17.303 74.7162 18.1784 74.3004C18.6051 74.0815 19.0319 73.8736 19.4587 73.6657C19.7213 73.0092 19.9948 72.287 20.2684 71.51C19.4258 71.9477 18.5614 72.3636 17.7078 72.7903H17.6969Z" fill="#CC9C1A"/>
<g style="mix-blend-mode:multiply" opacity="0.37">
<path d="M32.3163 24.7084C32.3163 24.7084 32.2397 24.9929 32.1521 25.4306C32.1521 25.4306 32.1521 25.4634 32.1412 25.5291C32.1193 25.6057 32.1084 25.6823 32.0865 25.7808C32.0865 25.7917 32.0865 25.8027 32.0755 25.8136C31.7254 26.8531 29.898 29.8295 20.2684 32.1931C18.5176 32.6199 14.0093 36.3075 12.4116 37.6644C7.30144 42.0195 16.8106 77.4185 16.8106 77.4185C16.4495 77.1778 16.0227 76.5213 15.5631 75.5364L15.5412 75.5036L15.2348 74.858C15.1364 74.6391 15.0269 74.3875 14.9285 74.1358C14.4141 72.8664 13.8561 71.3017 13.2761 69.4961C13.112 69.0037 12.9369 68.4894 12.7728 67.9642C12.2366 66.2681 11.6785 64.4079 11.1204 62.4382C10.8797 61.6394 10.6499 60.8187 10.442 59.998C10.2122 59.2211 10.0043 58.4442 9.78542 57.6345C9.64316 57.142 9.52279 56.6387 9.38054 56.1353C8.72398 53.6951 8.06742 51.1784 7.43275 48.6835C7.1373 47.4907 6.81997 46.2871 6.52451 45.0943C5.90079 42.5557 5.288 40.0717 4.75181 37.7847C4.6205 37.2704 4.50013 36.778 4.36882 36.2747C4.10619 35.1585 3.85451 34.108 3.62472 33.1123C3.37304 32.0508 3.1323 31.0441 2.93534 30.125C2.18029 26.9079 1.7207 24.8835 1.7207 24.8835C7.39993 28.4508 10.9344 29.348 17.0513 29.4465C17.6751 29.4575 18.2878 29.4356 18.8787 29.4027C19.8745 29.348 20.8265 29.2277 21.7457 29.0416C22.0412 28.9869 22.3366 28.9213 22.6102 28.8666H22.6211C24.0327 28.5383 25.3349 28.1444 26.5057 27.7067C29.9089 26.4154 32.1193 24.8616 32.3601 24.6865L32.3163 24.7084Z" fill="#8B47DE"/>
</g>
<path d="M32.6336 24.4358C32.4038 25.1908 31.9114 25.8693 31.1673 26.482C28.7162 28.5174 23.5731 29.7101 16.537 29.918C15.5194 29.9399 14.5564 29.9399 13.692 29.8961C8.80061 29.7429 5.93363 28.78 4.14998 27.8827C2.88064 27.2371 2.16937 26.6243 1.68789 26.3288C0.889081 25.8474 -0.259894 21.3828 0.068385 19.9056C0.144983 19.6101 0.265355 19.4351 0.451379 19.4351C0.451379 19.4351 0.506091 19.6101 0.659288 19.7962C0.692116 19.829 0.735885 19.8837 0.768712 19.9165C1.5347 20.6825 5.67101 22.7616 12.2913 23.4181C13.6372 23.5385 15.0817 23.6151 16.6246 23.5932C27.6766 23.4947 32.765 20.212 33.6732 19.5554C33.7826 19.4679 33.8264 19.4351 33.8264 19.4351C33.9249 19.5554 33.9796 19.5992 33.9905 19.7196C34.0452 20.026 33.7498 20.781 32.6336 24.4249V24.4358Z" fill="#FFD76C"/>
<g style="mix-blend-mode:screen" opacity="0.38">
<path d="M24.1642 45.3348C23.0809 53.6621 18.4084 69.485 19.1743 69.7914C19.9403 70.0977 31.8897 28.9429 29.4714 29.9387C26.878 31.0001 24.6675 41.5159 24.1751 45.3348H24.1642Z" fill="#FFEAB3"/>
</g>
<path d="M33.9906 19.7296C33.8702 19.9703 29.8105 22.7607 20.4217 23.5704C17.7736 23.8002 14.8738 23.7127 12.3023 23.4829C12.171 23.4719 12.0397 23.461 11.9084 23.4501C10.1466 23.275 8.5818 23.0342 7.37811 22.7935C3.32934 21.9509 0.0574951 20.5612 0.0574951 19.9047C0.0574951 19.8171 0.0684382 19.7515 0.0793809 19.6858C0.0903235 19.6421 0.101263 19.5873 0.123148 19.5545C0.123148 19.5436 0.134091 19.5326 0.145034 19.5217C0.155977 19.4779 0.188804 19.4341 0.221632 19.4013C0.243517 19.3575 0.265403 19.3138 0.320116 19.281C0.451427 19.1606 0.582741 19.084 0.582741 19.084C0.582741 19.084 0.582739 19.2262 0.615567 19.4889C0.615567 19.5326 0.62651 19.5983 0.637453 19.653C0.637453 19.6858 0.659338 19.7296 0.714051 19.7734C0.812535 19.8718 0.95479 19.9813 1.15176 20.1016C1.25024 20.1564 1.37061 20.233 1.51286 20.2986C1.51286 20.2986 1.51651 20.3023 1.52381 20.3095C1.65512 20.3861 1.80831 20.4518 1.9834 20.5284C2.14753 20.6159 2.3445 20.6816 2.53053 20.7691C2.62901 20.802 2.73844 20.8457 2.83692 20.8895C3.05578 20.977 3.26368 21.0536 3.50442 21.1412C5.53975 21.8743 8.52708 22.6622 12.1053 23.0561C13.5388 23.2093 15.0708 23.3078 16.6793 23.3078C26.1666 23.3078 32.3273 20.4956 33.531 19.5983C33.6951 19.467 33.6623 19.2372 33.6732 19.2262C33.717 19.1934 34.1 19.467 33.9687 19.7296H33.9906Z" fill="#FFE399"/>
<g style="mix-blend-mode:multiply" opacity="0.21">
<path d="M13.692 29.8952C5.35375 29.6216 2.86978 27.0501 1.67703 26.3279C0.878217 25.8465 -0.270758 21.3819 0.0575208 19.9047C0.0575208 19.8171 0.0684639 19.7515 0.0794065 19.6858C0.0903491 19.6421 0.101289 19.5873 0.123174 19.5545C0.123174 19.5436 0.134117 19.5326 0.14506 19.5217C0.156002 19.4779 0.18883 19.4341 0.221658 19.4013C0.243543 19.3575 0.265428 19.3138 0.320141 19.281C0.451453 19.1606 0.582766 19.084 0.582766 19.084C0.582766 19.084 0.582765 19.2262 0.615593 19.4889C0.60465 19.5436 0.60465 19.5983 0.615593 19.653C0.626536 19.6858 0.648421 19.7405 0.714077 19.7734C0.81256 19.8718 0.954816 19.9813 1.15178 20.1016C1.26121 20.1564 1.38158 20.222 1.51289 20.2986C1.51289 20.2986 1.51654 20.3023 1.52383 20.3095C1.66609 20.3643 1.81928 20.4409 1.98342 20.5284C2.14756 20.605 2.33359 20.6707 2.53055 20.7691C2.62904 20.802 2.73847 20.8457 2.83695 20.8895C3.0558 20.977 3.26371 21.0536 3.50445 21.1412C5.53977 21.8743 8.52711 22.6622 12.1053 23.0561C12.0069 23.1108 11.8646 23.3187 11.8865 23.4501C11.8865 23.4501 12.7729 28.4398 13.6701 29.8952H13.692Z" fill="#8B47DE"/>
</g>
</svg>
