<svg width="100" height="45" viewBox="0 0 100 45" fill="none" xmlns="http://www.w3.org/2000/svg">
<path d="M2.24791 28.8112C-1.85156 23.3913 -1.35162 13.6639 12.3609 13.6639C19.9028 13.6639 25.8448 4.86353 37.8147 5.87621C49.7846 6.88889 58.4692 7.70189 70.7533 7.21694C83.0374 6.732 89.108 5.70506 92.879 12.1234C96.6499 18.5418 101.078 17.686 99.7638 24.3897C98.4497 31.0933 98.2069 35.9 85.4657 39.1377C72.7245 42.3754 75.4812 44.9713 62.5258 44.9998C51.9129 45.0283 59.0548 39.9079 29.4587 41.0775C0.291021 42.2328 6.34737 34.2312 2.24791 28.8112Z" fill="#009FC2"/>
<path d="M11.1325 22.1649C11.1325 22.1649 9.73266 26.8146 9.84694 28.5975C9.96121 30.3804 13.4179 29.0111 14.5035 30.0809C15.589 31.1506 29.7586 28.5975 29.7586 28.5975L11.1325 22.1649Z" fill="#0094B5"/>
<path d="M62.4258 36.6283C62.4258 36.6283 64.7258 35.4158 67.1829 35.4158C69.6401 35.4158 72.9686 33.0763 72.9686 33.0763L70.1972 29.7811L62.5401 32.1063L62.4258 36.6426V36.6283Z" fill="#0094B5"/>
<path d="M84.9233 25.9596L86.6804 25.4032C86.6804 25.4032 88.3233 24.9467 88.3947 24.0338C88.4661 23.1208 88.8233 22.6358 87.2947 21.352C85.7661 20.0681 85.3947 18.7272 83.2375 18.0996C81.0804 17.4719 80.7375 24.9325 84.9375 25.9596H84.9233Z" fill="#0094B5"/>
<path d="M13.3321 29.8243L21.7453 35.7863L36.4148 36.4424L59.8404 39.1524L63.7827 35.3013L81.4804 30.9796L86.1512 24.7467L87.2082 11.2823L9.04697 20.0541L13.3321 29.8243Z" fill="#E9E6FF"/>
<path d="M58.8691 27.3279L59.8404 39.152L63.7827 35.301L63.9398 23.3913L58.8691 27.3279Z" fill="#CBC2FF"/>
<path d="M81.9661 21.5945L81.4804 30.9796L86.1512 24.7467L87.2082 11.2823L81.9661 21.5945Z" fill="#CBC2FF"/>
<path d="M17.8887 26.5009L21.7453 35.7861L13.3321 29.8242L9.04697 20.054L17.8887 26.5009Z" fill="#CBC2FF"/>
<g style="mix-blend-mode:multiply">
<path d="M9.84686 21.8937C9.84686 21.8937 9.87543 21.1663 10.761 21.8937C11.6466 22.6211 18.0172 26.8002 18.0172 26.8002L31.4869 26.2867L33.6723 26.2154L58.8833 27.6132L63.9398 23.6909L81.9518 21.7796L87.2082 11.6956V11.2962L9.04697 20.0538L9.84686 21.8794V21.8937Z" fill="#E9E6FF"/>
</g>
<path d="M31.4155 26.059L34.6155 36.3725L36.4155 36.4438L36.9869 36.5152L33.6155 26.059L32.8012 26.0162L31.4155 26.059Z" fill="#CBC2FF"/>
<path d="M49.1703 26.8428L51.4701 26.957L52.9127 38.3531L52.3842 38.2818L49.1703 26.8428Z" fill="#CBC2FF"/>
<path d="M87.2083 11.2821L81.9661 21.6086L63.9399 23.4057L58.8548 27.328L32.8011 26.0158L17.8887 26.5008L9.04703 20.0539L14.7891 9L33.6295 0H61.983L85.4657 10.4976L87.2083 11.2821Z" fill="#F0EDFF"/>
<path d="M85.4656 10.4976C83.7087 11.0681 81.809 11.7242 80.6091 12.309C77.8381 13.664 71.996 15.2615 66.411 16.5452C60.8117 17.8288 58.7263 15.9889 56.0837 13.664C53.4412 11.3391 37.7004 14.3914 33.7152 7.58796C31.8726 4.43582 33.5867 1.8542 35.9578 0H61.983L85.4656 10.4976Z" fill="#F6F5FF"/>
<path d="M18.1744 16.602C21.831 16.4737 24.0165 12.7938 25.2449 14.9475C26.4733 17.1012 26.2876 19.1266 29.7872 19.1837C33.2867 19.2407 38.2003 18.5703 40.9714 19.4261C43.7425 20.2819 45.8851 21.5798 45.9422 22.3786C45.9993 23.1773 42.257 22.9919 38.2003 22.6211C34.1437 22.2502 29.9014 24.2185 26.8875 24.0331C23.8736 23.8477 19.9456 22.9348 19.9456 22.9348C19.9456 22.9348 15.7604 21.6369 15.5176 20.0394C15.2748 18.442 16.3175 16.6591 18.1601 16.602H18.1744Z" fill="#F6F5FF"/>
<path d="M22.6595 7.70235C25.7163 6.36162 28.2445 4.74989 28.1874 6.96067C28.1303 9.17144 26.4019 10.341 29.2872 10.883C32.1726 11.425 34.6151 10.2697 34.2009 11.8101C33.7867 13.3505 29.9015 15.005 28.1874 13.5217C26.4733 12.0383 25.0592 10.7546 22.7738 10.6405C20.4884 10.5264 18.4744 10.7689 20.0027 9.35686C21.5311 7.94482 21.4454 8.23008 22.6453 7.70235H22.6595Z" fill="#F6F5FF"/>
<path d="M58.1692 21.1379C63.1257 19.8827 64.9254 18.7559 66.0967 19.6688C67.268 20.5816 69.5963 21.1379 66.411 21.3803C63.2257 21.6228 62.8114 19.9112 61.4116 21.6941C60.0118 23.477 59.7118 24.5753 58.3549 23.7765C56.9979 22.9778 56.2694 21.6085 58.1692 21.1379Z" fill="#F6F5FF"/>
<path d="M75.3816 16.9589C78.2673 16.5309 82.1388 17.7007 80.4816 18.3711C78.8245 19.0416 77.0959 19.5408 75.3245 19.227C73.553 18.9132 71.753 18.9132 73.2388 18.1857C74.7245 17.4582 75.3959 16.9589 75.3959 16.9589H75.3816Z" fill="#F6F5FF"/>
<path d="M11.3467 29.6671C11.3467 29.6671 13.3179 28.9254 14.0892 29.6671C14.8605 30.4088 16.5032 32.2487 17.3316 32.2915C18.1601 32.3343 19.5885 33.6893 20.4884 34.2598C21.3883 34.8304 21.5168 35.0728 22.8166 35.0728C24.1165 35.0728 28.3588 36.5847 33.4724 36.057C34.658 35.9286 36.2863 36.4421 36.2863 36.4421C36.2863 36.4421 31.6726 36.5419 31.2584 36.7844C30.8442 37.0269 29.7015 37.0269 29.1301 36.7844C28.5588 36.5419 26.2162 36.3708 25.5306 36.6988C24.845 37.0269 22.8881 36.927 21.7596 36.4991C20.6312 36.0713 19.4314 36.656 18.9886 35.4722C18.5458 34.2884 18.5315 33.8319 17.2745 33.4611C16.0175 33.0903 15.0605 31.8636 14.6463 31.2503C14.232 30.637 14.0178 30.2234 13.2322 30.095C12.4466 29.9667 11.3753 29.6529 11.3753 29.6529L11.3467 29.6671Z" fill="#F2F2F2"/>
<path d="M53.3413 38.3966C53.3413 38.3966 56.227 38.2112 56.827 38.468C57.427 38.7247 57.1413 38.8531 58.0556 38.739C58.9698 38.6249 58.727 38.3681 59.3699 38.4965C60.0127 38.6249 59.7556 38.3966 60.2698 38.04C60.7841 37.6834 60.427 37.9402 61.1698 37.4837C61.9127 37.0272 62.0127 36.7847 62.427 36.6135C62.8413 36.4423 61.9413 37.2126 61.9841 37.341C62.027 37.4694 61.9413 37.769 61.5698 38.1113C61.1984 38.4537 61.4127 38.6819 61.0127 38.9102C60.6127 39.1384 60.4841 39.0671 59.9841 39.3239C59.4841 39.5806 59.2413 39.6662 58.6556 39.5236C58.0699 39.3809 57.7556 39.3809 56.9556 39.3809C56.1556 39.3809 56.2556 39.224 55.727 38.8674C55.1984 38.5108 53.327 38.3824 53.327 38.3824L53.3413 38.3966Z" fill="#F2F2F2"/>
<path d="M72.6816 36.257C72.6816 36.257 72.6673 36.7135 75.2812 35.5582C77.8952 34.4028 78.1094 34.2032 80.1949 34.3315C82.2803 34.4599 81.7947 34.7452 84.0801 33.8038C86.3655 32.8624 86.994 31.6358 87.7653 32.2063C88.5367 32.7769 90.3507 30.9797 90.3507 30.9797C90.3507 30.9797 89.7365 32.6057 88.5938 32.5914C87.4511 32.5772 87.194 32.2919 86.4655 33.1049C85.737 33.9179 84.1372 34.7879 83.1945 34.7024C82.2518 34.6168 78.8665 34.5027 77.8666 34.9448C72.7816 37.1984 72.6816 36.257 72.6816 36.257Z" fill="#F2F2F2"/>
<path d="M90.6078 15.0476C90.7364 15.0476 92.8221 15.9035 93.6364 17.4156C94.4507 18.9277 95.0649 18.514 95.3935 19.8264C95.7221 21.1387 95.7649 21.7949 95.3935 22.3655C95.0221 22.9361 93.0649 24.2057 92.8935 24.6194C92.7221 25.0331 94.3221 23.307 94.6078 22.2514C94.8935 21.1958 95.7935 21.153 94.6507 20.3256C93.5078 19.4983 92.8935 19.3413 92.6364 18.6424C92.3792 17.9434 93.2078 17.5154 92.4792 16.8592C91.7506 16.2031 90.5935 15.0333 90.5935 15.0333L90.6078 15.0476Z" fill="#F2F2F2"/>
<path d="M72.9673 33.0619C72.9673 33.0619 74.0671 32.4771 75.4527 32.2917C76.8382 32.1063 77.1667 31.7069 78.4666 31.279C79.7664 30.8511 79.8807 30.8796 80.7091 30.7513C81.5376 30.6229 81.5376 30.2663 82.0232 29.5246C82.5089 28.783 82.6089 28.7544 83.3088 27.9557C84.0087 27.157 83.9516 26.2727 84.9086 25.9589C85.8656 25.6451 86.6655 25.4026 86.6655 25.4026C86.6655 25.4026 85.2657 25.9874 85.0086 26.3012C84.7515 26.615 84.4801 26.9145 84.3087 27.5849C84.1373 28.2552 84.0944 28.4977 83.2945 29.2251C82.4946 29.9525 83.0231 30.3519 82.009 30.9937C80.9948 31.6356 81.0805 31.6641 80.1378 31.7354C79.195 31.8067 78.5094 31.9208 77.2239 32.3202C75.9383 32.7196 75.8098 33.0476 74.7099 33.0619C73.6101 33.0762 72.9958 33.0619 72.9958 33.0619H72.9673Z" fill="#F2F2F2"/>
</svg>
