<svg width="38" height="74" viewBox="0 0 38 74" fill="none" xmlns="http://www.w3.org/2000/svg">
<path d="M31.6355 28.7461C31.6255 28.7961 31.5255 29.216 31.3655 29.9359C31.2756 30.4059 31.1356 30.9958 30.9956 31.6857C30.7856 32.5956 30.5257 33.7054 30.2457 34.9353C30.1357 35.3452 30.0457 35.7751 29.9557 36.2351C29.8257 36.745 29.7058 37.2649 29.5858 37.7949C29.4158 38.5048 29.2358 39.2547 29.0559 40.0146C28.6259 41.8343 28.156 43.7841 27.666 45.8038C27.5761 46.2337 27.4661 46.6737 27.3561 47.1036V47.1336C27.1561 47.8835 26.9661 48.6334 26.7962 49.3833C26.1662 51.913 25.4963 54.4626 24.8464 56.9223C24.7264 57.3622 24.6065 57.7922 24.4865 58.2321C24.3565 58.742 24.2165 59.232 24.0865 59.7319C23.8865 60.4318 23.6966 61.0917 23.5066 61.7616C23.2566 62.6615 22.9967 63.5314 22.7467 64.3513C22.6167 64.7912 22.4967 65.2112 22.3568 65.6211C21.9968 66.781 21.6469 67.8508 21.3269 68.8207C21.0869 69.4906 20.857 70.1005 20.627 70.6704C20.267 71.6103 19.9171 72.3802 19.6071 72.9401C19.2372 73.62 18.8972 74 18.6173 74C18.2573 74 17.7974 73.3801 17.2774 72.2902V72.2502L16.9975 71.7003C16.9175 71.5103 16.8275 71.3003 16.7275 71.0804C16.2876 70.0005 15.8076 68.6507 15.3077 67.1109C15.1577 66.701 15.0277 66.251 14.8778 65.8011C14.4078 64.3413 13.9379 62.7515 13.458 61.0717C13.258 60.3918 13.058 59.6919 12.868 58.982C12.6781 58.3121 12.4981 57.6422 12.3081 56.9623C12.1881 56.5323 12.0781 56.1024 11.9582 55.6825C11.3982 53.5827 10.8383 51.433 10.2884 49.3033C10.0384 48.2735 9.76846 47.2436 9.50849 46.2237C8.97856 44.044 8.44864 41.9143 7.9887 39.9646C7.87871 39.5246 7.77873 39.0947 7.66874 38.6648C7.43877 37.7149 7.2288 36.805 7.02883 35.9651C6.81886 35.0452 6.61888 34.1854 6.43891 33.4155C5.779 30.6458 5.39905 28.9261 5.39905 28.9261C10.2684 31.9757 13.288 32.7456 18.5273 32.8255C19.0572 32.8355 19.5871 32.8155 20.0871 32.7855C20.9469 32.7356 21.7568 32.6256 22.5467 32.4756C22.7967 32.4256 23.0367 32.3656 23.2866 32.3156H23.2966C24.4965 32.0456 25.6263 31.6957 26.6162 31.3257C29.5358 30.2159 31.4255 28.8761 31.6255 28.7461H31.6355Z" fill="#D9B24E"/>
<path d="M24.0665 59.7223C23.5765 60.0823 23.0666 60.4322 22.5567 60.7822C21.5268 61.4821 20.487 62.162 19.4371 62.8419C19.3871 62.8119 19.3271 62.7919 19.2871 62.7719C17.0574 61.7121 14.7977 60.5422 12.868 58.9724C13.058 59.6823 13.2579 60.3722 13.4579 61.0622C14.9277 62.062 16.5075 62.9119 18.1073 63.6818C17.0274 64.3817 15.9376 65.0816 14.8677 65.7915C15.0177 66.2415 15.1477 66.6914 15.2977 67.1013C16.6875 66.1615 18.1073 65.2516 19.5271 64.3517C20.447 64.7916 21.3868 65.2216 22.3367 65.6215C22.4667 65.2116 22.5867 64.7916 22.7267 64.3517C22.0967 64.0817 21.4668 63.8018 20.8569 63.5118C21.7368 62.9419 22.6267 62.362 23.4865 61.7621C23.6765 61.0921 23.8565 60.4222 24.0665 59.7323V59.7223ZM23.0166 34.1458C25.2463 35.0657 27.576 35.7656 29.9557 36.2355C30.0457 35.7856 30.1456 35.3556 30.2456 34.9357C28.2359 34.5357 26.2662 33.9758 24.3464 33.2259C25.1363 32.636 25.8962 32.0061 26.6161 31.3262C25.6263 31.6961 24.5064 32.0461 23.2966 32.316H23.2866C23.1566 32.436 23.0066 32.526 22.8766 32.626C22.7666 32.576 22.6667 32.536 22.5567 32.476C21.7668 32.626 20.9569 32.726 20.097 32.786C20.5669 33.0359 21.0369 33.2659 21.5168 33.4959C20.7969 33.9258 20.057 34.3258 19.2671 34.6857C16.5675 35.9056 13.7579 36.8754 10.8983 37.7453C10.6683 37.5553 10.4483 37.3754 10.2183 37.1854C8.86853 36.0255 7.5987 34.7657 6.44885 33.4159C6.61883 34.1958 6.8188 35.0457 7.03877 35.9655C7.78867 36.7454 8.57857 37.4753 9.40845 38.1852C8.83853 38.3452 8.25861 38.5152 7.68869 38.6652C7.79867 39.0951 7.89866 39.5251 8.00864 39.965C8.88852 39.725 9.7784 39.4751 10.6583 39.2051C13.1979 41.2148 15.9776 42.8846 18.9172 44.2444C18.4372 44.4444 17.9573 44.6544 17.4874 44.8743C15.3077 45.8142 13.098 46.7041 10.8983 47.614C10.4283 47.164 9.95838 46.7041 9.53844 46.2242C9.7884 47.244 10.0584 48.2739 10.3183 49.3037C10.4283 49.2537 10.5183 49.2138 10.6283 49.1738C12.518 50.9235 14.5878 52.4733 16.7475 53.8831C15.1677 54.513 13.5679 55.083 11.9881 55.6929C12.1081 56.1228 12.2181 56.5528 12.3381 56.9727C14.2678 56.2128 16.2175 55.5329 18.1173 54.743C18.5672 55.023 19.0172 55.3029 19.4771 55.5729C21.0969 56.5128 22.7666 57.4326 24.4864 58.2425C24.6064 57.8026 24.7264 57.3726 24.8464 56.9327C23.2266 56.1528 21.6668 55.2929 20.157 54.423C19.967 54.3131 19.787 54.1931 19.5971 54.0931C21.1169 53.3832 22.6067 52.5933 24.0065 51.5934C24.9564 50.9135 25.8962 50.1736 26.7961 49.4037C26.9661 48.6538 27.1561 47.9039 27.346 47.154C25.9262 48.4939 24.3764 49.7037 22.8266 50.7935C21.3868 51.7934 19.827 52.5733 18.2373 53.2632C16.0276 51.8834 13.9078 50.3436 11.9681 48.6238C13.9378 47.8239 15.9076 47.024 17.8673 46.1742C18.7672 45.7842 19.6771 45.3843 20.5669 44.9743C22.7566 45.8742 25.0163 46.5941 27.356 47.124C27.466 46.6941 27.566 46.2542 27.666 45.8242C26.1962 45.5143 24.7264 45.1243 23.2766 44.6444C22.9066 44.5244 22.5267 44.3644 22.1567 44.2144C23.3966 43.6245 24.6164 42.9846 25.8062 42.2747C26.9461 41.5948 28.0259 40.8549 29.0558 40.025C29.2458 39.2651 29.4157 38.5152 29.5857 37.8053C28.1559 39.1251 26.5661 40.275 24.8764 41.2648C23.4366 42.1047 21.9468 42.8546 20.427 43.5545C17.4974 42.2947 14.7177 40.6849 12.1781 38.7552C14.9177 37.8853 17.6373 36.9254 20.227 35.7156C21.2169 35.2456 22.1367 34.7157 23.0166 34.1558V34.1458ZM19.1271 69.911C18.3372 70.3109 17.5374 70.7008 16.7375 71.0708C16.9374 71.5207 17.1074 71.9307 17.2874 72.2706C18.0473 71.9207 18.7872 71.5607 19.5371 71.2008C19.897 71.0108 20.277 70.8408 20.6369 70.6509C20.8669 70.0909 21.0869 69.471 21.3368 68.8011C20.6169 69.1711 19.877 69.541 19.1471 69.901L19.1271 69.911Z" fill="#F5C958"/>
<g style="mix-blend-mode:multiply" opacity="0.29">
<path d="M31.6355 28.7463C31.6255 28.7963 31.5255 29.2163 31.3655 29.9362C31.0956 30.2561 28.196 33.5957 22.7267 33.5557C17.5274 33.5157 16.7275 37.1652 11.8082 34.5355C5.56902 31.176 16.8775 70.8706 17.2674 72.2405L16.9975 71.6905C16.9175 71.5005 16.8275 71.2906 16.7275 71.0706C16.2876 69.9908 15.8076 68.6409 15.3077 67.1011C15.1577 66.6912 15.0277 66.2413 14.8778 65.7913C14.4078 64.3315 13.9379 62.7417 13.458 61.062C13.258 60.3821 13.058 59.6821 12.868 58.9722C12.6781 58.3023 12.4981 57.6324 12.3081 56.9525C12.1881 56.5226 12.0781 56.0926 11.9582 55.6727C11.3982 53.573 10.8383 51.4233 10.2884 49.2935C10.0384 48.2637 9.76846 47.2338 9.50849 46.214C8.97856 44.0343 8.44864 41.9045 7.9887 39.9548C7.87871 39.5149 7.77873 39.0849 7.66874 38.655C7.43877 37.7051 7.2288 36.7952 7.02883 35.9554C6.81886 35.0355 6.61888 34.1756 6.43891 33.4057C5.779 30.6361 5.39905 28.9163 5.39905 28.9163C10.2684 31.9659 13.288 32.7358 18.5273 32.8158C19.0572 32.8258 19.5871 32.8058 20.0871 32.7758C20.9469 32.7258 21.7568 32.6158 22.5467 32.4658C22.7967 32.4158 23.0367 32.3558 23.2866 32.3058H23.2966C24.4965 32.0359 25.6263 31.6859 26.6162 31.316C29.5358 30.2061 31.4255 28.8663 31.6255 28.7363L31.6355 28.7463Z" fill="#7244BD"/>
</g>
<g style="mix-blend-mode:lighten" opacity="0.21">
<path d="M30.9956 31.6858C30.7856 32.5957 30.5257 33.7055 30.2457 34.9353C30.1357 35.3453 30.0457 35.7752 29.9557 36.2352C29.8258 36.7451 29.7058 37.265 29.5858 37.795C29.4158 38.5049 29.2358 39.2548 29.0559 40.0147C28.6259 41.8344 28.156 43.7841 27.666 45.8039C27.5761 46.2338 27.4661 46.6738 27.3561 47.1037V47.1337C27.1561 47.8836 26.9661 48.6335 26.7962 49.3834C26.1662 51.913 25.4963 54.4627 24.8464 56.9224C24.7264 57.3623 24.6065 57.7923 24.4865 58.2322C24.3565 58.7421 24.2165 59.2321 24.0865 59.732C23.8866 60.4319 23.6966 61.0918 23.5066 61.7617C23.2566 62.6616 22.9967 63.5315 22.7467 64.3514C22.6167 64.7913 22.4967 65.2112 22.3568 65.6212C21.9968 66.781 21.6469 67.8509 21.3269 68.8208C21.0869 69.4907 20.857 70.1006 20.627 70.6705C20.267 71.6104 19.9171 72.3803 19.6071 72.9402C19.6071 72.6102 19.5171 66.4411 19.6071 52.083C19.6871 37.325 30.9856 31.6758 30.9856 31.6758H30.9956V31.6858Z" fill="#F8FFBF"/>
</g>
<path d="M37.9447 25.7065C37.8947 26.2564 37.7147 26.7864 37.3947 27.2963V27.3263C37.2648 27.5163 37.1248 27.6963 36.9548 27.8762C34.6251 30.3259 30.6456 29.386 30.6456 29.386C26.7662 35.0453 21.9268 32.5856 21.9268 32.5856C21.9168 32.5856 21.8968 32.5956 21.8868 32.5956C21.4469 32.7556 17.4974 34.1154 14.8778 33.7854C12.0082 33.4355 10.0884 31.9357 10.0884 31.9357C9.01857 32.4956 7.11883 32.3856 5.39906 31.2258C4.00925 30.2659 4.51918 28.5961 4.56918 28.3962C4.31921 28.4262 1.30962 28.8261 0.249759 25.7665C-0.530135 23.5168 0.769689 22.487 1.60958 22.087C1.96953 21.917 2.23949 21.847 2.23949 21.847V15.5279C2.23949 11.0485 4.01925 7.18903 6.98885 4.4194H6.99885C7.3288 4.09945 7.67876 3.79949 8.03871 3.53952C10.0884 1.94974 12.5681 0.839886 15.3777 0.319957C16.5276 0.109985 17.7474 0 18.9972 0C28.4459 0 35.0451 5.99919 35.255 14.748C35.265 14.898 35.265 15.038 35.265 15.1879C35.265 16.8977 35.375 20.5772 35.375 20.5772C35.375 20.5772 35.385 20.5772 35.415 20.5872C36.7248 21.3271 38.1846 23.5868 37.9447 25.7065Z" fill="#D1F6FF"/>
<path d="M35.3151 20.667C35.2451 20.757 35.1251 20.907 34.9551 21.107C35.0751 20.957 35.1951 20.817 35.3151 20.667Z" fill="#BEEEFA"/>
<path d="M6.51892 14.1782C6.51892 14.1782 11.7282 18.1177 16.3376 16.4479C16.3376 16.4479 11.3883 19.5675 6.51892 14.1782Z" fill="#BAE9F5"/>
<path d="M28.7559 16.1479C28.7559 16.1479 26.2163 19.9974 20.807 18.5776C20.807 18.5776 26.6962 21.2073 28.7559 16.1479Z" fill="#BAE9F5"/>
<path d="M31.6062 7.30908C31.6062 7.30908 30.7062 12.2191 26.6162 12.1291C26.6162 12.1291 31.5662 13.1491 31.6062 7.30908Z" fill="#BAE9F5"/>
<path d="M13.4979 23.147C13.4979 23.147 18.6572 26.3465 24.5064 23.7469C24.5064 23.7469 18.8772 28.0963 13.4979 23.147Z" fill="#BAE9F5"/>
<path d="M3.12939 17.3677C3.12939 17.3677 4.66939 20.8177 8.58939 21.0377C8.58939 21.0377 4.10939 21.6277 3.12939 17.3677Z" fill="#BAE9F5"/>
<path d="M30.2357 20.2779C30.2357 20.2779 33.8057 19.0279 34.3357 15.1279C34.3357 15.1279 34.5657 19.6379 30.2357 20.2779Z" fill="#BAE9F5"/>
<path d="M14.4678 11.3184C14.4678 11.3184 17.9278 13.3684 21.5478 11.3184C21.5478 11.3184 18.0078 14.7784 14.4678 11.3184Z" fill="#BAE9F5"/>
<path d="M6.56895 5.44922C6.56895 5.44922 6.99895 8.30922 10.669 8.09922C10.669 8.09922 5.92895 9.67922 6.56895 5.44922Z" fill="#BAE9F5"/>
<path d="M23.2267 7.02914C23.2267 7.02914 26.7367 8.44914 27.9767 4.86914C27.9767 4.86914 27.1467 6.02914 26.2467 6.70914C25.3467 7.38914 23.2267 7.01914 23.2267 7.01914V7.02914Z" fill="#BAE9F5"/>
<path d="M13.0281 2.97949C13.0281 2.97949 14.8281 6.12949 18.9981 3.76949C18.9981 3.76949 15.1181 7.19949 13.0281 2.97949Z" fill="#BAE9F5"/>
<g style="mix-blend-mode:multiply" opacity="0.3">
<path d="M29.1459 25.8063C29.1459 25.8063 12.0982 33.6153 2.24951 21.4569V15.5177C2.24951 11.0383 4.02927 7.17885 6.99887 4.40923C7.00887 4.39923 7.00887 4.40923 7.00887 4.40923C6.96887 4.73918 6.16898 12.0282 9.78849 16.9175C13.708 22.2068 22.3168 25.1364 29.1459 25.8063Z" fill="#CBF1FA"/>
</g>
<g style="mix-blend-mode:soft-light" opacity="0.6">
<path d="M35.265 14.7478C32.0554 17.8774 26.1562 18.1973 21.0369 15.2377C15.1077 11.8182 12.468 5.31905 15.1277 0.739667C15.2077 0.589687 15.2977 0.459705 15.3776 0.329722C16.5275 0.119751 17.7473 0.00976562 18.9972 0.00976562C28.4459 0.00976562 35.045 6.00895 35.255 14.7578L35.265 14.7478Z" fill="#F0FCFF"/>
</g>
<path d="M32.7354 23.3971C29.9558 25.8867 25.0764 29.0663 18.5373 28.7363C5.65905 28.0764 4.13926 25.0868 2.24951 21.8473V18.4277C2.24951 18.4277 3.56933 25.2968 10.5684 26.8666C16.7176 28.2564 25.9063 29.3263 32.7354 23.4071V23.3971Z" fill="#BAE9F5"/>
<path d="M4.5798 28.3969C4.3298 28.4269 1.3198 28.8269 0.259801 25.7669C-0.520199 23.5169 0.779801 22.4869 1.6198 22.0869C1.6198 22.0869 -1.7202 26.2369 4.5798 28.3969Z" fill="#BAE9F5"/>
<path d="M21.8868 32.5954C21.4469 32.7554 17.4974 34.1152 14.8777 33.7853C12.0081 33.4353 10.0884 31.9355 10.0884 31.9355C9.01853 32.4954 7.11879 32.3855 5.39902 31.2256C4.00921 30.2657 4.51914 28.596 4.56913 28.396C4.56913 28.396 5.04907 32.6054 10.1084 31.3256C10.1084 31.3256 14.7078 34.7751 21.8868 32.5954Z" fill="#BAE9F5"/>
<g style="mix-blend-mode:soft-light" opacity="0.6">
<path d="M37.9447 25.7065C34.1652 29.436 30.3257 27.3263 30.4757 26.2864C30.5457 25.7765 33.0453 25.4765 34.2252 24.2167C35.475 22.8769 35.415 20.5872 35.425 20.5972C36.7348 21.3371 38.1946 23.5968 37.9547 25.7165L37.9447 25.7065Z" fill="#F0FCFF"/>
</g>
<g style="mix-blend-mode:soft-light" opacity="0.6">
<path d="M27.6668 30.5463C23.9768 32.2363 21.7368 29.4863 23.1568 29.3663C25.4068 29.1663 27.0068 29.1563 29.1368 27.1463C29.7968 26.5263 30.3568 29.3163 27.6668 30.5463Z" fill="#F0FCFF"/>
</g>
</svg>
