<svg width="80" height="56" viewBox="0 0 80 56" fill="none" xmlns="http://www.w3.org/2000/svg">
<path d="M1.25537 43.1606C1.25537 43.1606 1.72517 44.64 4.81381 46.5091C4.80381 44.8799 4.82381 43.0007 4.95375 41.1815C4.96374 40.9916 4.97374 40.8116 4.99373 40.6317C4.99373 40.5318 5.00373 40.4318 5.01372 40.3418C5.09369 39.4222 5.20364 38.5326 5.34358 37.723C5.45353 37.0633 5.72341 36.4635 6.08325 35.9438C6.13323 35.8638 6.19321 35.7938 6.25318 35.7139C6.76296 35.0542 7.42267 34.5644 8.06239 34.3345C8.15235 34.3045 8.24231 34.2745 8.33227 34.2545C8.37225 34.2545 8.41223 34.2345 8.45221 34.2345C9.80162 33.9946 10.9511 34.0746 11.9507 34.4045C12.0406 34.4344 12.1206 34.4644 12.2106 34.4944C13.6499 35.0542 14.7095 36.1537 15.4591 37.5531C15.4991 37.633 15.5491 37.723 15.5891 37.803C16.4387 39.5422 16.8385 41.6913 16.8485 43.8403V44.0402C16.8485 44.46 16.8285 44.8799 16.7986 45.2997C16.6286 47.5587 16.5287 49.3979 16.4687 50.7973C18.2379 51.2171 20.1971 51.6169 22.3961 51.9967C24.0154 52.2766 25.7546 52.5265 27.6238 52.7664C28.5734 52.8863 29.513 52.9463 30.4326 53.0163C30.5225 53.0163 30.6225 53.0363 30.7125 53.0363C37.4295 53.596 43.247 53.746 48.2847 53.606C48.3747 53.606 48.4747 53.606 48.5646 53.606C55.3017 53.4061 60.6193 52.6864 64.8175 51.7169C64.9075 51.6969 65.0074 51.6769 65.0974 51.6469C69.8153 50.5274 73.0839 49.098 75.3229 47.7586C75.4328 47.6986 75.5328 47.6386 75.6327 47.5687C78.9413 45.5096 79.8109 43.7204 79.8109 43.7204C80.0308 41.7013 80.0608 39.5722 79.8909 37.3731C79.8909 37.2532 79.8709 37.1333 79.8609 37.0133C79.651 34.5244 79.1912 31.9555 78.4815 29.3867C78.4615 29.2967 78.4315 29.1967 78.4015 29.0968C77.7018 26.6279 76.7623 24.1689 75.5728 21.78C75.5328 21.7 75.4928 21.6101 75.4428 21.5301C74.1434 18.9412 72.5641 16.4523 70.6849 14.1233C70.6249 14.0534 70.575 13.9834 70.515 13.9034C70.3351 13.6835 70.1552 13.4736 69.9652 13.2537C67.4363 10.305 64.4177 7.66618 60.8892 5.53711L60.6393 5.38718C58.2304 3.9578 55.5815 2.76833 52.6928 1.86872C52.0931 1.6788 51.4933 1.50888 50.8736 1.34895C50.7637 1.31896 50.6537 1.28897 50.5438 1.25899C47.4051 0.529308 44.0666 0.0895006 40.4682 0.0195312C40.3882 0.0195312 40.3182 0.0195312 40.2383 0.0195312C40.0683 0.0195312 39.9084 0.0195312 39.7385 0.0195312C37.2696 0.0195312 34.9006 0.289413 32.6416 0.769202C32.2418 0.859163 31.852 0.939128 31.4621 1.03908C27.4739 2.02865 23.8255 3.68792 20.5769 5.797C20.4969 5.84698 20.417 5.90695 20.337 5.95693C17.2783 7.96605 14.5795 10.365 12.2705 12.9738C12.2006 13.0438 12.1406 13.1138 12.0806 13.1838C11.3609 14.0034 10.6812 14.843 10.0415 15.7027C8.78207 17.3819 7.67256 19.1112 6.73297 20.8404C6.653 20.9803 6.58303 21.1303 6.50307 21.2702C6.46309 21.3502 6.41311 21.4401 6.37313 21.5201C4.88378 24.3788 3.83424 27.2476 3.08457 29.9064C3.06458 29.9864 3.04459 30.0564 3.0246 30.1363C3.0246 30.1563 3.0246 30.1663 3.0146 30.1863C1.97506 33.9447 1.54524 37.2832 1.37532 39.6322C1.37532 39.6721 1.37532 39.7121 1.37532 39.7521C1.37532 39.8121 1.37532 39.8621 1.36532 39.922C1.22538 41.9511 1.28536 43.1606 1.28536 43.1606H1.25537Z" fill="#C7DBED"/>
<g style="mix-blend-mode:multiply" opacity="0.78">
<path d="M16.4487 50.8273C18.218 51.2471 20.1771 51.6469 22.3761 52.0267C23.2358 52.1767 24.1354 52.3166 25.065 52.4565C25.8846 52.5765 26.7342 52.6964 27.6038 52.8064C28.5534 52.9263 29.493 52.9863 30.4126 53.0563C30.5026 53.0563 30.6025 53.0763 30.6925 53.0763C34.6707 53.4061 38.3391 53.596 41.7077 53.666C44.0266 53.716 46.2157 53.706 48.2648 53.646C48.2848 53.646 48.3148 53.646 48.3447 53.646C48.4147 53.646 48.4747 53.646 48.5447 53.646C55.2817 53.4461 60.5994 52.7264 64.7975 51.7568C64.8875 51.7369 64.9874 51.7169 65.0774 51.6869C69.7953 50.5674 73.0639 49.138 75.3029 47.7986C75.4129 47.7386 75.5128 47.6786 75.6128 47.6087C78.9213 45.5496 79.7909 43.7604 79.7909 43.7604C80.0109 41.7412 80.0408 39.6122 79.8709 37.4131C79.8709 37.2932 79.8509 37.1732 79.8409 37.0533C79.631 34.5644 79.1712 31.9955 78.4615 29.4266C78.4515 29.3867 78.4415 29.3367 78.4215 29.2967C78.4116 29.2467 78.3916 29.1867 78.3816 29.1468C77.6819 26.6778 76.7423 24.2189 75.5528 21.83C75.5128 21.75 75.4728 21.66 75.4229 21.5801C74.1234 18.9912 72.5441 16.5023 70.6649 14.1733C70.605 14.1034 70.555 14.0334 70.495 13.9534C70.3151 13.7335 70.1352 13.5236 69.9453 13.3037C73.0039 20.5006 74.9731 31.6257 63.4181 39.3823C55.4916 44.7099 39.4187 52.2966 28.8833 30.6061C28.8833 30.6061 21.4365 44.8599 16.8386 44.0602C16.8386 44.48 16.8186 44.8999 16.7886 45.3197C16.6187 47.5787 16.5187 49.4179 16.4587 50.8173L16.4487 50.8273Z" fill="#E1EEFA"/>
</g>
<g style="mix-blend-mode:multiply" opacity="0.78">
<path d="M1.2554 43.1608C1.2554 43.1608 1.7252 44.6401 4.81384 46.5093C4.80385 44.88 4.82384 43.0008 4.95378 41.1816C3.38447 40.6419 2.15501 40.1121 1.35536 39.6223C1.35536 39.6623 1.35536 39.7023 1.35536 39.7423C1.35536 39.8022 1.35536 39.8522 1.34536 39.9122C1.20543 41.9413 1.2654 43.1508 1.2654 43.1508L1.2554 43.1608Z" fill="#E1EEFA"/>
</g>
<g style="mix-blend-mode:soft-light">
<path d="M36.38 2.95906C36.38 2.95906 34.2109 2.56923 33.2214 2.14941C33.2214 2.14941 25.4548 6.21763 24.4152 7.86691C24.4152 7.86691 27.5438 8.99641 32.1218 9.21631C32.1218 9.21631 32.5417 7.50706 36.37 2.95906H36.38Z" fill="#E1EEFA"/>
</g>
<path opacity="0.33" d="M62.2886 17.2522C62.2886 17.2522 64.3178 19.2913 65.0874 21.1005C65.8571 22.9097 66.6167 25.1787 66.4968 25.4986C66.3768 25.8184 65.2773 26.0084 65.2773 26.0084C65.2773 26.0084 59.2 27.1778 58.9701 27.1579C58.7402 27.1379 54.4521 27.6476 54.4521 27.6476L51.8132 18.1618C51.8132 18.1618 55.1917 18.2118 57.3408 17.9719C59.4899 17.732 62.2786 17.2622 62.2786 17.2622L62.2886 17.2522Z" fill="#7ABFFF"/>
<path opacity="0.33" d="M76.2125 30.637C76.2125 30.637 77.342 34.6152 77.4819 35.2549C77.6219 35.8947 78.1216 38.0537 77.9717 38.6235C77.8218 39.1932 73.9535 40.8525 73.7436 40.9324C73.5337 41.0124 70.9548 41.992 70.9548 41.992C70.9548 41.992 70.8049 37.7139 70.515 36.7343C70.1651 35.5348 69.5454 33.5557 69.3255 33.3658C69.3255 33.3658 73.2138 31.9664 73.4237 31.9064C73.6336 31.8464 76.2025 30.647 76.2025 30.647L76.2125 30.637Z" fill="#7ABFFF"/>
<path d="M1.34534 39.7526V39.5726C2.22495 40.2424 4.1641 41.022 6.73297 41.6817C13.8499 43.5109 26.4343 45.0502 39.2587 45.2901L39.4886 37.0937C31.9319 37.0637 24.1353 36.474 17.3783 35.1746C11.5309 34.0551 6.46309 32.4258 2.99461 30.1768C3.0146 30.0868 3.04459 29.9868 3.07458 29.8969C4.02416 30.5166 5.09369 31.0964 6.27318 31.6261C6.9129 27.5879 9.46178 24.3593 10.0515 23.6596C8.65213 23.0199 7.41268 22.3102 6.36314 21.5106C6.40312 21.4306 6.4531 21.3406 6.49308 21.2607C6.49308 21.2607 6.50307 21.2607 6.51307 21.2707C8.2623 22.6001 10.5913 23.7096 13.3001 24.6292L17.3883 16.5627C16.0989 16.1329 14.9694 15.6231 14.0398 15.0234C13.2101 14.4836 12.5404 13.8739 12.0606 13.1742C12.1206 13.1043 12.1806 13.0343 12.2506 12.9643C12.5004 13.3441 12.8103 13.694 13.1901 14.0338C13.6699 13.3841 14.4396 12.6545 15.3492 11.9148C17.8681 9.87567 21.4165 7.7566 22.3261 7.21683C21.5765 6.847 20.8968 6.42718 20.317 5.94739C20.397 5.89741 20.4769 5.83744 20.5569 5.78746C21.5365 6.57712 22.8059 7.20684 24.2853 7.70662C25.5847 6.42718 27.7737 5.0078 29.6729 3.90829C31.1423 3.04866 32.4217 2.37896 32.9515 2.10907C32.6916 1.97913 32.4517 1.84919 32.2418 1.70925C31.9219 1.48935 31.662 1.26944 31.4521 1.02955C31.842 0.929592 32.2418 0.839632 32.6316 0.759667C33.7811 0.669706 34.9906 0.629724 36.23 0.629724C37.7494 0.629724 39.2887 0.689697 40.778 0.769662C40.5282 0.559754 40.2483 0.339851 39.9084 0.119947C39.8485 0.0799649 39.7885 0.0399825 39.7285 0C39.8984 0 40.0584 0 40.2283 0C40.6281 0.269882 40.948 0.529768 41.2179 0.789654C45.6659 1.06953 49.4342 1.5993 49.8541 1.65927C50.104 1.53932 50.3139 1.40938 50.4938 1.27944C50.6037 1.30943 50.7137 1.33941 50.8236 1.3694C50.2439 1.85918 49.3143 2.269 47.9549 2.57887C49.6142 3.28856 51.2934 4.558 52.6029 5.68751C53.8223 6.73705 54.7119 7.66664 54.9318 7.90653C57.4207 7.37676 59.1 6.6171 60.1895 5.76747C60.3395 5.65752 60.4794 5.53757 60.5994 5.41762L60.8492 5.56756C60.6993 5.7075 60.5394 5.84744 60.3595 5.98737C59.6798 6.51714 58.8001 6.99693 57.6606 7.42674C58.1804 7.72661 59.4299 8.50627 60.8692 9.65577C62.7384 11.1651 64.9175 13.3242 66.2069 15.973C67.9761 15.3533 69.3755 14.6436 70.475 13.9339C70.535 14.0039 70.595 14.0738 70.6449 14.1538C68.8157 15.3333 66.1869 16.5228 62.4385 17.2924C63.2082 17.9821 65.7671 20.571 66.6367 25.4888C70.9348 24.3393 73.5637 22.9599 75.163 21.7505C75.2529 21.6805 75.3329 21.6205 75.4129 21.5505C75.4528 21.6305 75.5028 21.7205 75.5428 21.8004C75.4728 21.8504 75.4029 21.9104 75.3329 21.9604C74.2634 22.77 72.734 23.6496 70.585 24.4893C71.0748 25.069 72.734 27.298 73.4937 31.7061C75.3029 30.9864 76.6023 30.3067 77.5319 29.707C77.8518 29.4971 78.1317 29.2972 78.3716 29.1072C78.4015 29.1972 78.4315 29.2972 78.4515 29.3971C78.2316 29.567 77.9717 29.747 77.6819 29.9369C77.312 30.1768 76.8922 30.4267 76.4024 30.6765C76.5124 31.0364 76.8822 32.2359 77.262 33.6552C77.6919 35.2745 78.1117 37.1537 78.1517 38.4132C78.8613 37.9134 79.4211 37.4436 79.8409 37.0238C79.8509 37.1437 79.8609 37.2637 79.8709 37.3836C79.2012 38.0133 78.2516 38.753 76.9322 39.5227C76.4624 39.7925 75.9526 40.0724 75.3929 40.3523C75.4728 40.8121 75.7927 42.7712 75.7927 44.9803C75.7927 45.8299 75.7427 46.7095 75.6228 47.5691C75.5228 47.6291 75.4228 47.6991 75.3129 47.7591C75.4628 46.8495 75.5128 45.8999 75.5128 44.9803C75.5128 43.7308 75.4129 42.5613 75.3129 41.6917C75.2629 41.2619 75.2129 40.9121 75.173 40.6722C75.163 40.5922 75.153 40.5322 75.143 40.4723C72.6841 41.6517 69.2955 42.8412 64.6676 43.7608C64.7375 44.4905 65.0974 48.2988 65.0974 51.1176C65.0974 51.2975 65.0974 51.4674 65.0974 51.6374C65.0074 51.6573 64.9175 51.6773 64.8175 51.7073C64.8175 51.5174 64.8175 51.3275 64.8175 51.1276C64.8175 49.5783 64.7075 47.7091 64.5976 46.2397C64.5376 45.5 64.4876 44.8603 64.4477 44.4005C64.4277 44.1406 64.4077 43.9507 64.3977 43.8208C62.0087 44.2906 59.2899 44.6804 56.2013 44.9703C53.7324 45.2102 51.1635 45.3601 48.5646 45.4501V53.5865C48.4747 53.5865 48.3747 53.5865 48.2848 53.5865V45.4501C46.4256 45.51 44.5464 45.54 42.6572 45.54C38.639 45.54 34.6107 45.4001 30.7125 45.1602V53.0068C30.6225 53.0068 30.5225 52.9868 30.4326 52.9868V45.1502C25.3848 44.8303 20.5869 44.3406 16.3687 43.7308C12.5904 43.1911 9.28186 42.5613 6.69299 41.9016C4.1641 41.2519 2.32491 40.5622 1.35533 39.8625C1.35533 39.8025 1.35533 39.7526 1.36533 39.6926L1.34534 39.7526ZM40.0284 36.8238C42.5173 36.8238 44.9762 36.7639 47.3552 36.6439L47.0853 28.2676C45.0962 28.3476 43.057 28.3875 40.9979 28.3875C38.0892 28.3875 35.1305 28.2976 32.2318 28.1177L31.4621 36.574C34.3109 36.7439 37.1896 36.8238 40.0384 36.8238H40.0284ZM40.1683 9.21596C42.8371 9.13599 45.546 8.96607 48.1648 8.74616C47.725 7.34678 46.7254 5.95739 45.8158 4.90785C45.336 4.36808 44.8962 3.91828 44.5664 3.59842C44.4065 3.43849 44.2665 3.31854 44.1766 3.22858C44.1366 3.1886 44.0966 3.15861 44.0766 3.13862C42.9771 3.21859 41.7476 3.26857 40.3482 3.27856C40.3882 3.67839 40.4982 4.82788 40.4982 6.11732C40.4982 7.16686 40.4282 8.30636 40.1783 9.20596L40.1683 9.21596ZM37.6894 18.7618C34.1909 18.7618 30.7125 18.6518 27.4939 18.3819L24.7151 27.1181C29.433 27.7478 34.5008 28.0477 39.4986 28.0977L39.6785 18.7418C39.0188 18.7418 38.3491 18.7518 37.6894 18.7518V18.7618ZM45.7659 18.332C45.7858 18.1121 45.7958 17.8822 45.7958 17.6423C45.7958 16.003 45.336 13.8939 44.8862 12.1947C44.6563 11.345 44.4264 10.6053 44.2565 10.0756C44.1666 9.8057 44.0966 9.59579 44.0466 9.45585C44.0266 9.40587 44.0166 9.36589 44.0066 9.32591C41.7076 9.46585 39.3887 9.54581 37.1396 9.54581C36.5699 9.54581 36.0001 9.54581 35.4404 9.52582C35.4204 9.56581 35.4004 9.62578 35.3604 9.70574C35.1105 10.3055 34.4908 11.8348 33.921 13.5641C33.3713 15.2333 32.8715 17.0825 32.8015 18.4119C34.4108 18.4619 36.0401 18.4919 37.6794 18.4919C40.3882 18.4919 43.117 18.4319 45.7559 18.332H45.7659ZM32.5317 18.4019C32.6116 16.8026 33.2613 14.5936 33.9111 12.7444C34.4408 11.2351 34.9506 9.98562 35.1405 9.52582C32.6716 9.46585 30.3226 9.28593 28.1836 8.93608C28.1536 8.97606 28.1036 9.03604 28.0336 9.10601C27.5938 9.63577 26.4743 11.0052 25.3648 12.6345C24.2853 14.2138 23.2257 16.033 22.7959 17.5523C23.1858 17.6123 23.5856 17.6722 23.9954 17.7322C26.6242 18.0921 29.523 18.302 32.5317 18.4019ZM37.1396 9.26594C38.0392 9.26594 38.9588 9.24595 39.8784 9.22595C40.1283 8.35634 40.2083 7.19684 40.2083 6.12731C40.2083 5.33766 40.1683 4.59798 40.1183 4.05822C40.0983 3.78834 40.0784 3.56844 40.0584 3.4185C40.0584 3.36852 40.0584 3.32854 40.0484 3.29855C40.0084 3.29855 39.9584 3.29855 39.9184 3.29855C38.589 3.29855 37.4595 3.22858 36.4799 3.09864C36.4599 3.12863 36.42 3.16861 36.37 3.20859C36.0301 3.58843 35.1705 4.568 34.3109 5.71749C33.4812 6.82701 32.6416 8.09645 32.2618 9.116C33.8311 9.22595 35.4604 9.27593 37.1296 9.27593L37.1396 9.26594ZM44.2965 9.29592C44.4364 9.69575 44.7963 10.7753 45.1561 12.1147C45.6159 13.8139 46.0757 15.943 46.0757 17.6323C46.0757 17.8722 46.0657 18.0921 46.0457 18.312C49.6741 18.172 53.1426 17.9821 56.1513 17.8122C56.4312 17.7922 56.7011 17.7822 56.9709 17.7522C56.1713 14.5536 54.7819 12.2946 53.5924 10.8352C52.9827 10.0956 52.4229 9.55581 52.0231 9.20596C51.8232 9.03604 51.6533 8.90609 51.5433 8.81613C51.4833 8.77615 51.4434 8.74616 51.4134 8.72617C49.1244 8.94608 46.7254 9.14599 44.2965 9.29592ZM39.9584 18.7518L39.7785 28.1177C40.1883 28.1177 40.5881 28.1177 40.9979 28.1177C45.6359 28.1177 50.1639 27.8978 54.2421 27.5179L51.7632 18.332C48.0948 18.5219 44.0366 18.6918 39.9584 18.7418V18.7518ZM47.3552 28.2576L47.635 36.6239C53.2826 36.3241 58.5003 35.7143 62.6385 34.8247C62.7184 34.8047 62.7984 34.7947 62.8784 34.7747C62.7684 32.5157 62.3386 30.5466 61.9288 29.1272C61.7189 28.4075 61.5189 27.8278 61.369 27.438C61.299 27.2381 61.2291 27.0881 61.1891 26.9882C61.1891 26.9682 61.1691 26.9482 61.1691 26.9282C57.2708 27.5679 52.4929 28.0277 47.3552 28.2476V28.2576ZM10.3114 23.7796C9.8616 24.2993 7.15279 27.6279 6.53306 31.7361C9.57173 33.0655 13.3001 34.115 17.4283 34.9047C21.6964 35.7243 26.3944 36.2541 31.1723 36.554L31.9419 28.0977C28.1736 27.8578 24.4852 27.438 21.0767 26.8382C16.9985 26.1085 13.3101 25.109 10.3114 23.7796ZM13.56 24.7292C15.839 25.4788 18.3979 26.0886 21.1167 26.5683C22.1962 26.7583 23.3057 26.9282 24.4252 27.0881L27.204 18.3619C24.6151 18.132 22.1862 17.7922 20.0471 17.3124C19.1975 17.1225 18.3979 16.9026 17.6482 16.6627L13.56 24.7292ZM23.7355 7.82657C23.3557 7.68663 22.9858 7.53669 22.626 7.36677C22.566 7.39676 22.4861 7.44673 22.3561 7.5267C21.6164 7.96651 19.7373 9.09601 17.8581 10.3954C16.9185 11.0452 15.9689 11.7448 15.1693 12.4246C14.4096 13.0643 13.7799 13.684 13.4 14.2138C13.6399 14.4137 13.9098 14.6036 14.1897 14.7935C16.1388 16.063 19.0576 16.9326 22.5161 17.5023C23.0158 15.6931 24.3652 13.5241 25.6047 11.7848C26.5943 10.3954 27.5039 9.28593 27.8637 8.86611C26.3644 8.60623 24.975 8.26637 23.7355 7.81657V7.82657ZM29.0732 4.58799C27.4339 5.57755 25.6747 6.74704 24.5751 7.81657C25.2349 8.02648 25.9246 8.2064 26.6542 8.36633C28.2835 8.71618 30.0727 8.94608 31.9819 9.09601C32.4217 7.85655 33.5012 6.31723 34.4708 5.06778C35.1905 4.14818 35.8502 3.38851 36.1601 3.04866C34.9606 2.86874 34.021 2.59886 33.2713 2.279C33.2214 2.29899 33.1514 2.33897 33.0514 2.38895C32.4217 2.70881 30.8124 3.55844 29.0832 4.59798L29.0732 4.58799ZM41.1079 1.07953C39.5286 0.97957 37.8593 0.919597 36.24 0.919597C34.7307 0.919597 33.2613 0.97957 31.9219 1.11951C32.0619 1.24945 32.2218 1.3694 32.4017 1.48935C33.6612 2.33897 35.9302 3.00868 39.9384 3.00868C40.0184 3.00868 40.1083 3.00868 40.1883 3.00868C40.918 3.00868 41.5977 2.98869 42.2374 2.9687C42.2174 2.79877 42.1374 2.5189 41.9475 2.15905C41.7776 1.84919 41.5177 1.47935 41.1079 1.07953ZM48.9844 2.03911C49.1244 1.98913 49.2543 1.94915 49.3743 1.89917C48.2148 1.73924 45.1161 1.34941 41.5177 1.10951C41.8176 1.43937 42.0375 1.74923 42.1874 2.02911C42.4073 2.43893 42.4873 2.75879 42.5073 2.9587C45.496 2.83876 47.5851 2.4989 48.9744 2.03911H48.9844ZM54.612 7.9865C54.2221 7.57668 53.1926 6.53713 51.8832 5.45761C50.5837 4.38808 48.9944 3.27856 47.4851 2.70881C46.6255 2.87874 45.6259 3.01868 44.4464 3.11863C44.7663 3.4085 45.366 3.97826 46.0157 4.72793C46.9553 5.80745 47.9949 7.23683 48.4447 8.71618C49.4542 8.62622 50.4638 8.53626 51.4434 8.4463C52.6229 8.32635 53.6824 8.17641 54.622 7.9865H54.612ZM65.947 16.073C64.6776 13.4941 62.5385 11.365 60.6993 9.88566C59.7597 9.126 58.9001 8.53626 58.2804 8.13643C57.9705 7.93652 57.7206 7.78658 57.5407 7.67663C57.4507 7.62665 57.3908 7.58667 57.3408 7.55669C57.3408 7.55669 57.3308 7.55669 57.3208 7.55669C55.8914 8.04647 54.0922 8.4363 51.8232 8.6762C52.7928 9.42587 55.8914 12.2046 57.2608 17.7322C60.8392 17.4423 63.688 16.8326 65.947 16.073ZM63.8479 19.3215C63.3681 18.6418 62.9083 18.142 62.5785 17.8122C62.4186 17.6423 62.2786 17.5223 62.1887 17.4424C62.1487 17.4124 62.1187 17.3824 62.0987 17.3624C60.3595 17.7022 58.4003 17.9521 56.1713 18.0821C54.8719 18.152 53.4925 18.232 52.0431 18.312L54.522 27.4879C56.9509 27.258 59.21 26.9682 61.2291 26.6383C63.1582 26.3185 64.8675 25.9586 66.3768 25.5588C65.877 22.72 64.8075 20.6609 63.8579 19.3215H63.8479ZM71.4246 26.2785C71.1047 25.6787 70.8049 25.2489 70.595 24.969C70.485 24.8291 70.405 24.7192 70.3451 24.6492C70.3351 24.6392 70.3251 24.6292 70.3151 24.6192C68.0761 25.4688 65.1873 26.2585 61.449 26.8882C61.7488 27.6179 62.9483 30.7165 63.1482 34.7248C67.5763 33.7552 70.8349 32.7656 73.2238 31.836C72.794 29.2772 72.0543 27.458 71.4246 26.2885V26.2785ZM76.7723 39.3128C77.1721 39.0729 77.5319 38.853 77.8618 38.6231C77.8618 37.4336 77.422 35.4345 76.9722 33.7552C76.7523 32.9156 76.5324 32.1459 76.3624 31.5861C76.2725 31.3063 76.2125 31.0864 76.1625 30.9264C76.1525 30.8964 76.1425 30.8665 76.1325 30.8465C74.6032 31.6361 72.4741 32.5057 69.5154 33.3854C69.8653 33.9951 71.0548 36.424 71.1347 41.8117C73.5237 41.002 75.3529 40.1424 76.7623 39.3128H76.7723ZM70.8748 41.9016C70.8349 38.753 70.415 36.6239 70.0052 35.2745C69.7953 34.5948 69.5954 34.115 69.4455 33.8152C69.3755 33.6652 69.3055 33.5553 69.2656 33.4853C69.2656 33.4853 69.2656 33.4753 69.2556 33.4653C67.4064 34.0151 65.2373 34.5648 62.6884 35.1046C60.6593 35.5344 58.3803 35.9043 55.9314 36.2041L57.0509 44.6504C62.9783 44.0407 67.4763 43.0311 70.8748 41.9016ZM42.6272 45.3201C47.2452 45.3201 51.8332 45.1402 56.1513 44.7304C56.3612 44.7104 56.5711 44.6904 56.771 44.6704L55.6515 36.2341C50.9236 36.7939 45.5559 37.1037 40.0284 37.1037C39.9384 37.1037 39.8584 37.1037 39.7685 37.1037L39.5386 45.3001C40.5681 45.3201 41.5977 45.3301 42.6272 45.3301V45.3201Z" fill="#3A9AF2"/>
<path d="M4.95373 51.098L10.7212 48.869L17.6981 46.1701C17.6981 46.1701 19.2475 37.274 16.5986 35.015C15.789 34.3253 14.7194 33.6856 13.5699 33.2058C10.9611 32.1063 7.95241 31.7665 6.68297 33.2058C4.84378 35.2849 4.42396 36.7343 4.06412 39.3531C3.71427 41.972 4.95373 51.098 4.95373 51.098Z" fill="#466785"/>
<g style="mix-blend-mode:multiply" opacity="0.78">
<path d="M25.0649 52.4469C25.8846 52.5669 26.7342 52.6868 27.6038 52.7967C28.5534 52.9167 29.493 52.9767 30.4126 53.0466C30.5026 53.0466 30.6025 53.0666 30.6925 53.0666C34.6707 53.3965 38.3391 53.5864 41.7076 53.6564C34.9606 51.5073 31.9519 45.7898 31.4621 43.2809C30.8524 40.1223 29.9528 34.9446 29.9528 34.9446L25.0749 52.4369L25.0649 52.4469Z" fill="#E1EEFA"/>
</g>
<path d="M10.7312 48.8682L17.7081 46.1694C17.7081 46.1694 19.2575 37.2733 16.6086 35.0143C15.799 34.3246 14.7294 33.6849 13.58 33.2051C12.5004 34.4645 12.0206 35.704 11.4909 37.5932C10.8711 39.7822 10.7512 46.959 10.7312 48.8782V48.8682Z" fill="#3F5D78"/>
<path d="M0.155865 49.4482L4.95376 51.0975C4.95376 51.0975 4.43399 42.8611 5.33359 37.7233C5.65345 35.9041 7.17279 34.4648 8.44223 34.2448C14.9894 33.0654 17.1984 39.5525 16.7786 45.33C16.3488 51.1075 16.3488 54.1161 16.3488 54.1161L22.1462 55.9053L27.8237 52.8267C27.8237 52.8267 28.6234 47.679 29.413 42.0614C29.423 41.9615 29.443 41.8615 29.453 41.7516C29.543 41.1118 29.6329 40.4721 29.7229 39.8224C29.9428 38.1931 30.0328 36.6838 29.9628 35.2944C29.8728 33.5152 29.523 31.9459 28.8633 30.5964C28.8233 30.5165 28.7833 30.4265 28.7333 30.3466C27.9637 28.8772 26.8042 27.6977 25.1949 26.8281C24.2653 26.3183 23.3057 25.9385 22.3261 25.6786C22.1762 25.6386 22.0163 25.5886 21.8663 25.5587C18.5278 24.749 15.0293 25.1488 11.9307 25.9985C11.5509 26.1084 11.181 26.2084 10.8212 26.3283C10.6812 26.3683 10.5413 26.4183 10.4014 26.4583C6.15323 27.8676 2.94464 29.9467 2.50484 30.4265C2.15499 30.7964 1.85512 31.2562 1.59523 31.7859C-0.643784 36.3639 0.115883 46.3295 0.155865 49.4482Z" fill="#C7DBED"/>
<g style="mix-blend-mode:soft-light">
<path d="M1.59521 31.7857L14.4696 28.727C14.4696 28.727 17.8281 27.5476 21.4665 27.9374C25.5947 28.3672 28.8732 30.6062 28.8732 30.6062C28.8333 30.5262 28.7933 30.4363 28.7433 30.3563C27.9736 28.887 26.8142 27.7075 25.2049 26.8379C24.2753 26.3281 23.3157 25.9483 22.3361 25.6884C22.1862 25.6484 22.0263 25.5984 21.8763 25.5684C18.5378 24.7588 15.0393 25.1586 11.9407 26.0082C11.5608 26.1182 11.191 26.2181 10.8312 26.3381C10.6912 26.3781 10.5513 26.428 10.4113 26.468C6.16321 27.8774 2.95462 29.9565 2.51481 30.4363C2.16496 30.8061 1.8651 31.2659 1.60521 31.7957L1.59521 31.7857Z" fill="#E1EEFA"/>
</g>
<path d="M21.9664 44.4305L22.0563 44.6904L29.4131 42.0616C29.4231 41.9616 29.4431 41.8617 29.4531 41.7517L21.9564 44.4305H21.9664Z" fill="#3A9AF2"/>
<path d="M19.0476 34.1348L19.1476 34.3947L28.8733 30.5963C28.8333 30.5164 28.7933 30.4264 28.7434 30.3464L19.0476 34.1348Z" fill="#3A9AF2"/>
<path d="M13.52 28.9071L13.56 29.087L22.3262 25.6785C22.1762 25.6386 22.0163 25.5886 21.8664 25.5586L13.52 28.9071Z" fill="#3A9AF2"/>
<path d="M7.01288 28.3378L7.28276 28.2678L11.9307 25.9988C11.5509 26.1087 11.1811 26.2087 10.8212 26.3286L7.01288 28.3378Z" fill="#3A9AF2"/>
<path d="M0.155899 49.4483L0.455768 49.5483L4.96379 51.0976C4.96379 51.0976 4.84384 49.1285 4.81386 46.5096C4.80386 44.7104 4.83385 42.6113 4.98378 40.6322C4.98378 40.5322 4.99378 40.4323 5.00377 40.3423C5.08374 39.4227 5.19369 38.5331 5.33363 37.7235C5.44358 37.0638 5.71346 36.464 6.0733 35.9443C6.12328 35.8643 6.18326 35.7943 6.24323 35.7144C6.75301 35.0546 7.41272 34.5649 8.05244 34.335C8.1424 34.305 8.23236 34.275 8.32232 34.255C8.3623 34.255 8.40228 34.235 8.44226 34.235C9.79167 33.9951 10.9412 34.0751 11.9407 34.4049C12.0307 34.4349 12.1107 34.4649 12.2006 34.4949C13.64 35.0547 14.6995 36.1542 15.4492 37.5536C15.4892 37.6335 15.5392 37.7235 15.5791 37.8034C16.4288 39.5427 16.8286 41.6917 16.8386 43.8408V43.9807C16.8386 44.4305 16.8186 44.8703 16.7886 45.3102C16.6187 47.5692 16.5187 49.4084 16.4587 50.8077C16.3688 52.9868 16.3688 54.0963 16.3688 54.0963L22.1662 55.8855C22.1662 55.8855 22.2862 54.3162 22.3961 52.0072C22.4861 49.9081 22.5661 47.1893 22.5361 44.4705C22.5361 44.3806 22.5361 44.2806 22.5361 44.1906C22.4961 41.182 22.2962 38.1833 21.8264 36.0442C21.6365 35.2046 21.3166 34.4349 20.9068 33.7452C20.8568 33.6653 20.8068 33.5853 20.7569 33.5053C20.1971 32.6257 19.4974 31.866 18.7577 31.2263C18.4779 30.9764 18.188 30.7465 17.9081 30.5366C16.8586 29.767 15.7091 29.1472 14.4996 28.7074C14.4096 28.6774 14.3297 28.6475 14.2397 28.6175C12.8503 28.1477 11.391 27.9078 9.91162 27.9178C8.99202 27.9278 8.1424 28.0477 7.31276 28.2476C7.2228 28.2676 7.13284 28.2876 7.04288 28.3176C5.69347 28.6874 4.41403 29.3072 3.03464 30.1168C2.87471 30.2068 2.70478 30.3067 2.53486 30.4067C2.38492 30.5566 2.25498 30.7265 2.12504 30.9165C2.06506 30.9964 2.01508 31.0764 1.96511 31.1564C0.945553 32.7756 0.435777 35.3545 0.205877 38.1133C0.195882 38.2133 0.185886 38.3132 0.185886 38.4032C-0.153965 42.7513 0.155899 47.4592 0.185886 49.4283L0.155899 49.4483Z" fill="#E3F2FF"/>
<path d="M16.8286 43.8514V43.9913L22.5161 44.4811C22.5161 44.3911 22.5161 44.2912 22.5161 44.2012L16.8286 43.7114V43.8514Z" fill="#3A9AF2"/>
<path d="M0.155884 38.4239L4.98377 40.6329C4.98377 40.533 4.99376 40.433 5.00376 40.3431L0.175875 38.134C0.165879 38.234 0.155884 38.3339 0.155884 38.4239Z" fill="#3A9AF2"/>
<path d="M1.93512 31.1769L6.0733 35.9448C6.12328 35.8648 6.18326 35.7949 6.24323 35.7149L2.09505 30.927C2.03508 31.007 1.9851 31.0869 1.93512 31.1669V31.1769Z" fill="#3A9AF2"/>
<path d="M7.01288 28.338L8.05242 34.3454C8.14238 34.3154 8.23234 34.2854 8.3223 34.2654L7.28276 28.2681C7.1928 28.2881 7.10284 28.308 7.01288 28.338Z" fill="#3A9AF2"/>
<path d="M11.9407 34.4059C12.0306 34.4359 12.1106 34.4659 12.2006 34.4958L14.4696 28.7184C14.3796 28.6884 14.2996 28.6584 14.2097 28.6284L11.9407 34.4059Z" fill="#3A9AF2"/>
<path d="M15.4391 37.5641C15.4791 37.6441 15.5291 37.734 15.5691 37.814L20.8768 33.7558C20.8268 33.6758 20.7768 33.5958 20.7268 33.5159L15.4391 37.5541V37.5641Z" fill="#3A9AF2"/>
<g style="mix-blend-mode:soft-light">
<path d="M10.0215 15.7027C13.3101 13.8235 17.5582 12.734 22.7959 13.9034C38.3491 17.3719 49.4842 12.524 52.6628 8.11598C54.2422 5.92694 53.8123 2.95824 52.6528 1.9187C52.0531 1.72878 51.4534 1.55886 50.8336 1.39893C50.7237 1.36894 50.6137 1.33895 50.5038 1.30897C47.4051 0.529308 44.0666 0.0895006 40.4682 0.0195312C40.3882 0.0195312 40.3183 0.0195312 40.2383 0.0195312C40.0684 0.0195312 39.9084 0.0195312 39.7385 0.0195312C37.2696 0.0195312 34.9006 0.289413 32.6416 0.769202C32.2418 0.859163 31.852 0.939128 31.4621 1.03908C27.4739 2.02865 23.8255 3.68792 20.5769 5.797C20.497 5.84698 20.417 5.90695 20.337 5.95693C17.2784 7.96605 14.5795 10.365 12.2706 12.9738C12.2006 13.0438 12.1406 13.1138 12.0806 13.1838C11.361 14.0034 10.6813 14.843 10.0415 15.7027H10.0215Z" fill="#E1EEFA"/>
</g>
<g style="mix-blend-mode:soft-light">
<path d="M0.155871 49.4481L0.45574 49.5481C0.515713 47.449 0.875556 36.3139 1.60524 33.5151C2.40488 30.4264 5.00375 29.7867 9.48178 28.8371C13.1302 28.0575 17.3183 30.3565 18.7377 31.2361C18.4578 30.9862 18.168 30.7563 17.8881 30.5464C16.8386 29.7767 15.6891 29.157 14.4796 28.7172C14.3896 28.6872 14.3097 28.6572 14.2197 28.6272C12.8303 28.1574 11.371 27.9176 9.8916 27.9275C8.972 27.9375 8.12238 28.0575 7.29274 28.2574C7.20278 28.2774 7.11282 28.2974 7.02286 28.3274C5.67345 28.6972 4.39401 29.3169 3.01462 30.1266C2.85469 30.2165 2.68476 30.3165 2.51484 30.4165C2.3649 30.5664 2.23496 30.7363 2.10502 30.9262C2.04504 31.0062 1.99506 31.0862 1.94509 31.1661C0.925534 32.7854 0.415757 35.3643 0.185858 38.1231C0.175862 38.223 0.165867 38.323 0.165867 38.4129C-0.173984 42.761 0.13588 47.469 0.165867 49.4381L0.155871 49.4481Z" fill="#E1EEFA"/>
</g>
<g style="mix-blend-mode:multiply" opacity="0.43">
<path d="M16.3488 54.1166L22.1462 55.9058L27.8237 52.8272C27.8237 52.8272 28.6234 47.6794 29.413 42.0619C29.423 41.9619 29.443 41.862 29.453 41.752C29.543 41.1123 29.6329 40.4726 29.7229 39.8229C29.9428 38.1936 30.0328 36.6843 29.9628 35.2949C29.8728 33.5156 29.523 31.9463 28.8633 30.5969C28.8633 30.5969 29.563 38.9832 26.5443 45.9102C23.5256 52.8272 22.3361 52.5973 22.3361 52.5973C22.3361 52.5973 22.1562 54.9263 16.3488 54.1166Z" fill="#E1EEFA"/>
</g>
<g style="mix-blend-mode:multiply" opacity="0.78">
<path d="M48.3347 53.6362C48.4047 53.6362 48.4647 53.6362 48.5346 53.6362C55.2717 53.4363 60.5893 52.7166 64.7875 51.747C64.8775 51.727 64.9774 51.707 65.0674 51.677C69.7853 50.5575 73.0539 49.1282 75.2929 47.7888C75.4028 47.7288 75.5028 47.6688 75.6028 47.5988C78.9113 45.5397 79.7809 43.7505 79.7809 43.7505C80.0008 41.7314 80.0308 39.6023 79.8609 37.4033C79.8609 37.2834 79.8409 37.1634 79.8309 37.0435C79.621 34.5546 79.1612 31.9857 78.4515 29.4168C78.4415 29.3768 78.4315 29.3268 78.4115 29.2869C78.2216 33.455 76.9921 43.7905 69.5354 48.6484C66.3968 50.6975 55.4116 52.5866 48.3447 53.6362H48.3347Z" fill="#E1EEFA"/>
</g>
</svg>
