<svg width="100" height="76" viewBox="0 0 100 76" fill="none" xmlns="http://www.w3.org/2000/svg">
<path d="M98.819 11.9016V64.0984C98.819 65.588 98.5454 67.0016 98.0438 68.324C97.983 68.4912 97.9222 68.628 97.8614 68.7952C97.2838 70.1176 96.4782 71.3184 95.475 72.352H95.4598C93.3166 74.6016 90.2614 76 86.9174 76H12.7414C6.17505 76 0.839844 70.6648 0.839844 64.0984V11.9016C0.839844 5.3352 6.17505 0 12.7414 0H86.9174C93.4838 0 98.819 5.3352 98.819 11.9016Z" fill="#BDEFFF"/>
<path d="M98.8193 22.8456V47.5304C98.1809 51.68 96.5545 54.4616 92.6937 56.2856C90.9913 57.1064 88.8481 57.7144 86.1425 58.1856C86.0513 58.1856 85.9754 58.216 85.869 58.2312C79.0442 59.3712 68.7842 59.5688 53.4018 59.3408C52.581 59.3408 51.7602 59.3104 50.909 59.3104C46.6834 59.2496 42.7162 59.2192 39.0074 59.2192H35.6025C34.7513 59.2192 33.9001 59.2192 33.0793 59.2192H30.9362C29.1274 59.2192 27.3945 59.2192 25.7377 59.2192H25.3577C24.9017 59.2192 24.461 59.2192 24.0202 59.2192C23.8834 59.2192 23.7617 59.2192 23.6249 59.2192H23.5337C22.9105 59.2192 22.3177 59.2192 21.7249 59.1888C21.6945 59.1888 21.6641 59.1888 21.6337 59.1888C21.6337 59.1888 21.6236 59.1888 21.6034 59.1888C21.6034 59.1888 21.6034 59.1888 21.573 59.1888H20.7521C20.2961 59.1888 19.8554 59.1584 19.4146 59.1584C19.2778 59.1584 19.141 59.1584 19.0042 59.1584H18.8825H18.8521C17.6361 59.128 16.481 59.0672 15.4018 59.0216C14.9762 58.9912 14.5657 58.976 14.1705 58.9456C6.41854 58.4136 1.96495 57.0608 0.855347 53.58V22.9824C6.73775 27.8008 16.9825 22.7544 16.9825 22.7544C17.8945 23.4232 18.7914 23.94 19.7034 24.3504L20.2049 24.5784C20.3113 24.6088 20.3873 24.6696 20.4937 24.6848H20.5242C22.6522 25.4904 24.689 25.6272 26.4674 25.4144C26.6498 25.4144 26.8322 25.384 27.0146 25.3384C28.7626 25.0952 30.2521 24.5176 31.3465 23.9856C31.5745 23.864 31.7873 23.7576 31.9849 23.6512C32.8665 23.1648 33.3834 22.7696 33.3834 22.7696C33.7482 23.0128 34.0673 23.256 34.4321 23.4688H34.4625C35.0249 23.8032 35.5721 24.092 36.1193 24.3504C38.4297 25.4144 40.5577 25.7184 42.4121 25.612C43.6889 25.5512 44.8289 25.2928 45.8169 24.9432C46.2425 24.8064 46.6378 24.6544 46.9874 24.4872C47.2458 24.3808 47.4738 24.2592 47.7018 24.1224C48.0514 23.9552 48.3553 23.7576 48.6137 23.6056C48.8417 23.4688 49.0394 23.332 49.1914 23.2256C49.2826 23.1648 49.3585 23.104 49.4193 23.0584C49.6473 22.8912 49.769 22.7696 49.769 22.7696C49.769 22.7696 55.241 26.1592 59.6034 26.1592C65.6378 26.1592 70.4562 23.3776 70.4562 23.3776C77.6002 29.0168 82.5553 22.7696 82.5553 22.7696C88.8177 30.3392 97.497 23.94 98.789 22.9064L98.8193 22.8456Z" fill="#279CC4"/>
<path opacity="0.63" d="M16.6634 32.8925C16.6634 32.8925 15.2194 32.8925 14.2466 31.9805C14.2466 31.9805 13.4714 32.6493 11.8298 32.9989C11.8298 32.9989 13.441 32.9077 14.201 32.3757C14.6266 32.7253 15.569 33.1357 16.6634 32.8773V32.8925Z" fill="#5BC9ED"/>
<path opacity="0.63" d="M64.9386 28.85C64.9386 28.85 63.4946 28.85 62.5218 27.938C62.5218 27.938 61.7466 28.6068 60.105 28.9564C60.105 28.9564 61.7162 28.8652 62.4762 28.3332C62.9018 28.6828 63.8442 29.0932 64.9386 28.8348V28.85Z" fill="#5BC9ED"/>
<path opacity="0.63" d="M73.2531 27.6487C73.2531 27.6487 72.0219 27.6487 71.1859 26.8735C71.1859 26.8735 70.5171 27.4511 69.1187 27.7399C69.1187 27.7399 70.5018 27.6639 71.1554 27.2079C71.5202 27.5119 72.3259 27.8463 73.2531 27.6487Z" fill="#5BC9ED"/>
<path opacity="0.63" d="M9.53464 29.7613C9.53464 29.7613 8.37943 29.7613 7.60423 29.0317C7.60423 29.0317 6.98103 29.5637 5.67383 29.8525C5.67383 29.8525 6.96583 29.7765 7.57383 29.3509C7.90823 29.6397 8.68343 29.9589 9.54983 29.7613H9.53464Z" fill="#5BC9ED"/>
<path opacity="0.63" d="M23.5946 27.4059C23.5946 27.4059 22.4394 27.4059 21.6642 26.6763C21.6642 26.6763 21.041 27.2083 19.7338 27.4971C19.7338 27.4971 21.0258 27.4211 21.6338 26.9955C21.9682 27.2843 22.7434 27.6035 23.6098 27.4059H23.5946Z" fill="#5BC9ED"/>
<path opacity="0.63" d="M16.481 26.7524C16.481 26.7524 15.4018 26.7524 14.6722 26.0684C14.6722 26.0684 14.0946 26.57 12.8634 26.8284C12.8634 26.8284 14.0642 26.7524 14.6418 26.3724C14.961 26.646 15.6754 26.9348 16.481 26.7524Z" fill="#5BC9ED"/>
<path opacity="0.63" d="M25.3578 32.2392C25.3578 32.2392 24.0202 32.2392 23.1082 31.6768C23.1082 31.6768 22.3786 32.0872 20.8586 32.3152C20.8586 32.3152 22.3634 32.2544 23.0626 31.9352C23.4578 32.1632 24.3394 32.4064 25.3578 32.2544V32.2392Z" fill="#00698C"/>
<path opacity="0.63" d="M6.67698 26.6608C6.67698 26.6608 5.73459 26.6608 5.09619 26.2656C5.09619 26.2656 4.57938 26.5544 3.51538 26.7064C3.51538 26.7064 4.56419 26.6608 5.06579 26.4328C5.33939 26.5848 5.96258 26.7672 6.67698 26.6608Z" fill="#00698C"/>
<path opacity="0.63" d="M59.0866 27.6032C59.0866 27.6032 57.8706 27.6032 57.065 27.1016C57.065 27.1016 56.4115 27.4816 55.0435 27.664C55.0435 27.664 56.3963 27.6032 57.0347 27.3144C57.3843 27.512 58.1899 27.74 59.1019 27.6032H59.0866Z" fill="#00698C"/>
<path opacity="0.63" d="M4.89855 32.2091C4.89855 32.2091 3.68255 32.2091 2.87695 31.7075C2.87695 31.7075 2.22335 32.0875 0.855347 32.2699C0.855347 32.2699 2.20814 32.2091 2.84654 31.9203C3.19614 32.1179 4.00174 32.3459 4.91374 32.2091H4.89855Z" fill="#00698C"/>
<path opacity="0.63" d="M96.7522 32.8314C96.7522 32.8314 95.3082 32.8314 94.3354 31.9194C94.3354 31.9194 93.5602 32.5882 91.9186 32.9378C91.9186 32.9378 93.5298 32.8466 94.2898 32.3146C94.7154 32.6642 95.6578 33.0746 96.7522 32.8162V32.8314Z" fill="#5BC9ED"/>
<path opacity="0.63" d="M90.201 31.1295C90.201 31.1295 89.0458 31.1295 88.2706 30.3999C88.2706 30.3999 87.6474 30.9319 86.3402 31.2207C86.3402 31.2207 87.6322 31.1447 88.2402 30.7191C88.5746 31.0079 89.3498 31.3271 90.2162 31.1295H90.201Z" fill="#5BC9ED"/>
<path opacity="0.63" d="M65.7746 32.2846C65.7746 32.2846 64.6954 32.2846 63.9658 31.6006C63.9658 31.6006 63.3882 32.1022 62.157 32.3606C62.157 32.3606 63.3578 32.2846 63.9354 31.9046C64.2546 32.1782 64.969 32.467 65.7746 32.2846Z" fill="#5BC9ED"/>
<path opacity="0.63" d="M83.1786 28.9558C83.1786 28.9558 82.145 28.9558 81.4458 28.3022C81.4458 28.3022 80.8834 28.7886 79.713 29.0318C79.713 29.0318 80.8682 28.9558 81.4154 28.591C81.7194 28.8494 82.4034 29.1382 83.1786 28.9558Z" fill="#00698C"/>
<path opacity="0.63" d="M77.7522 31.8593C77.7522 31.8593 76.4146 31.8593 75.5026 31.2969C75.5026 31.2969 74.7731 31.7073 73.2531 31.9353C73.2531 31.9353 74.7578 31.8745 75.457 31.5553C75.8522 31.7833 76.7338 32.0265 77.7522 31.8745V31.8593Z" fill="#00698C"/>
<path opacity="0.63" d="M98.5306 28.1657C98.5306 28.1657 97.3146 28.1657 96.509 27.6641C96.509 27.6641 95.8554 28.0441 94.4874 28.2265C94.4874 28.2265 95.8402 28.1657 96.4786 27.8769C96.8282 28.0745 97.6338 28.3025 98.5458 28.1657H98.5306Z" fill="#00698C"/>
<path d="M98.8194 31.2509V61.9702C97.421 66.059 91.341 67.1686 80.6554 67.4422C80.4882 67.4422 80.3058 67.4422 80.1386 67.4422C75.0618 67.5638 68.9818 67.5181 61.8986 67.5181C57.8554 67.5181 53.4778 67.5486 48.781 67.6094C48.5986 67.6094 48.401 67.6094 48.2186 67.6094C43.6738 67.6854 39.5698 67.7158 35.8458 67.7006H35.4506C34.9186 67.7006 34.4018 67.7006 33.9002 67.7006H33.5202C32.0914 67.7006 30.7234 67.6701 29.4162 67.6549H29.097C28.337 67.6245 27.577 67.6245 26.8626 67.5941H26.665C25.7834 67.5637 24.9474 67.5333 24.1418 67.4877C23.9594 67.4877 23.777 67.4878 23.5946 67.4574C17.6818 67.1838 13.2738 66.6366 9.97541 65.679C6.92021 64.7974 4.82262 63.5813 3.42422 61.9245C3.22662 61.6965 3.04422 61.4686 2.86182 61.2406C1.79782 59.7358 1.18981 57.8965 0.870605 55.6621V31.2813C1.11381 31.4637 1.47862 31.7373 1.94982 32.0413C1.99542 32.0717 2.04101 32.0869 2.08661 32.1325C4.76181 33.8197 10.4314 36.4949 15.2346 32.8621C15.3258 32.8165 15.4018 32.7557 15.4626 32.6645C16.025 32.2237 16.5874 31.6765 17.1194 31.0381C17.1194 31.0381 21.9378 37.0877 28.8842 31.9197C29.0058 31.8285 29.1122 31.7373 29.2338 31.6461C29.2338 31.6461 31.4074 32.8925 34.645 33.7133C36.241 34.1389 38.0954 34.4277 40.0866 34.4277C40.649 34.4277 41.257 34.367 41.8498 34.2606C42.2146 34.1998 42.5642 34.1237 42.929 34.0325C43.4306 33.9109 43.9474 33.7589 44.4338 33.6069C45.4674 33.2421 46.4554 32.8317 47.2914 32.4365C47.7626 32.2085 48.173 32.0109 48.5378 31.8133C49.4042 31.3725 49.9362 31.0381 49.9362 31.0381C49.9362 31.0381 50.7722 31.7981 52.2618 32.5277C52.657 32.7253 53.0826 32.9229 53.5842 33.0901C54.481 33.4245 55.5146 33.7133 56.685 33.8197C57.6426 33.9261 58.6914 33.9109 59.801 33.7589C60.0898 33.7285 60.3634 33.6677 60.6522 33.5917C61.8682 33.3333 63.1298 32.8925 64.4674 32.1781C64.5586 32.1325 64.6346 32.0869 64.7258 32.0413C65.2578 31.7525 65.7898 31.4181 66.337 31.0229C66.337 31.0229 74.2714 37.2093 82.7378 31.0229C82.7378 31.0229 89.9274 34.5949 95.7186 32.8773C95.8554 32.8469 95.9618 32.8013 96.0986 32.7405H96.129C97.0866 32.4213 98.0138 31.9197 98.8498 31.2357L98.8194 31.2509Z" fill="#2592B8"/>
<path opacity="0.63" d="M44.1146 38.6387C44.1146 38.6387 45.9994 38.6387 47.2762 37.4531C47.2762 37.4531 48.2946 38.3347 50.4378 38.7907C50.4378 38.7907 48.325 38.6691 47.337 37.9851C46.7898 38.4563 45.5434 38.9731 44.1298 38.6539L44.1146 38.6387Z" fill="#5BC9ED"/>
<path opacity="0.63" d="M16.785 38.3497C16.785 38.3497 18.6698 38.3497 19.9466 37.1641C19.9466 37.1641 20.965 38.0457 23.1082 38.5017C23.1082 38.5017 20.9954 38.3801 20.0074 37.6961C19.4602 38.1673 18.2138 38.6841 16.8002 38.3649L16.785 38.3497Z" fill="#5BC9ED"/>
<path opacity="0.63" d="M3.21143 37.346C3.21143 37.346 4.82262 37.346 5.91702 36.3276C5.91702 36.3276 6.78342 37.0724 8.62262 37.4676C8.62262 37.4676 6.81382 37.3612 5.96262 36.7684C5.49142 37.1636 4.42743 37.6196 3.21143 37.346Z" fill="#5BC9ED"/>
<path opacity="0.63" d="M89.2738 39.5504C89.2738 39.5504 90.7938 39.5504 91.8122 38.5928C91.8122 38.5928 92.633 39.292 94.3506 39.6568C94.3506 39.6568 92.6634 39.5504 91.8578 39.0032C91.417 39.3832 90.4138 39.7936 89.2738 39.5352V39.5504Z" fill="#5BC9ED"/>
<path opacity="0.63" d="M69.7571 36.4644C69.7571 36.4644 71.2771 36.4644 72.2955 35.5068C72.2955 35.5068 73.1163 36.206 74.8339 36.5708C74.8339 36.5708 73.1467 36.4644 72.3411 35.9172C71.9003 36.2972 70.8971 36.7076 69.7571 36.4492V36.4644Z" fill="#5BC9ED"/>
<path opacity="0.63" d="M80.1843 35.5985C80.1843 35.5985 81.5979 35.5985 82.5403 34.7017C82.5403 34.7017 83.3003 35.3553 84.8963 35.7049C84.8963 35.7049 83.3154 35.6137 82.5706 35.0969C82.1602 35.4465 81.2179 35.8417 80.1691 35.5985H80.1843Z" fill="#5BC9ED"/>
<path opacity="0.63" d="M55.849 35.8878C55.849 35.8878 57.217 35.8878 58.129 35.0366C58.129 35.0366 58.8586 35.675 60.409 35.9942C60.409 35.9942 58.889 35.903 58.1746 35.4166C57.7794 35.751 56.8826 36.131 55.8642 35.903L55.849 35.8878Z" fill="#00698C"/>
<path opacity="0.63" d="M63.981 39.3981C63.981 39.3981 65.7442 39.3981 66.9146 38.6685C66.9146 38.6685 67.857 39.2157 69.8482 39.4893C69.8482 39.4893 67.8874 39.4133 66.9602 38.9877C66.4434 39.2765 65.2882 39.5957 63.9658 39.3981H63.981Z" fill="#00698C"/>
<path opacity="0.63" d="M93.0131 35.4924C93.0131 35.4924 94.2443 35.4924 95.0803 34.9756C95.0803 34.9756 95.7491 35.3556 97.1475 35.5532C97.1475 35.5532 95.7642 35.4924 95.1106 35.2036C94.7458 35.4012 93.9403 35.6292 93.0131 35.4924Z" fill="#00698C"/>
<path opacity="0.63" d="M24.4458 36.7079C24.4458 36.7079 26.0266 36.7079 27.0906 36.0391C27.0906 36.0391 27.9418 36.5255 29.7354 36.7839C29.7354 36.7839 27.9722 36.7079 27.1362 36.3279C26.6802 36.5863 25.6314 36.8751 24.4458 36.6927V36.7079Z" fill="#00698C"/>
<path opacity="0.63" d="M38.3235 36.328C38.3235 36.328 39.9043 36.328 40.9683 35.6592C40.9683 35.6592 41.8195 36.1456 43.6131 36.404C43.6131 36.404 41.8499 36.328 41.0139 35.948C40.5579 36.2064 39.5091 36.4952 38.3235 36.3128V36.328Z" fill="#00698C"/>
<path d="M98.8194 43.6394V64.0986C98.8194 65.5882 98.5458 67.0018 98.0442 68.3242C97.9834 68.4914 97.9226 68.6282 97.8618 68.7954C97.2842 70.1178 96.4786 71.3186 95.4754 72.3522H95.4602C93.5754 73.2338 90.961 73.7658 87.617 74.085C83.8322 74.465 79.1202 74.5562 73.4658 74.5714C71.3074 74.5714 69.073 74.5714 66.7474 74.5866C61.397 74.5714 55.4386 74.5562 48.781 74.6626C45.209 74.7234 41.8802 74.769 38.7794 74.769C9.413 74.6778 2.31461 72.2306 0.84021 62.457V42.317C2.01061 42.8794 5.99299 44.3386 9.99059 40.2346L10.021 40.2042C10.5834 39.6266 11.1762 38.9122 11.7386 38.0762C11.7386 38.0762 14.2618 40.9186 18.1226 42.4386C18.3202 42.5146 18.5178 42.5906 18.7154 42.6514H18.7306C18.913 42.7274 19.1106 42.7882 19.293 42.849C19.445 42.8794 19.6122 42.925 19.7642 42.9706C20.0378 43.0466 20.3266 43.1074 20.6154 43.153C20.8282 43.1986 21.0562 43.2442 21.2842 43.2442H21.2994C21.4362 43.2746 21.5882 43.305 21.725 43.305C24.7954 43.5938 28.3066 42.7274 31.9242 39.4442C31.9242 39.4442 34.189 41.6026 38.1866 42.849C38.4602 42.925 38.7642 43.0162 39.053 43.0922C42.3818 43.9738 46.7442 44.141 51.8666 42.1194H51.897C53.189 41.6026 54.5114 40.949 55.8946 40.1434C55.8946 40.1434 55.8946 40.1434 55.8946 40.1282C56.3658 39.8698 56.837 39.581 57.3234 39.2466C57.3234 39.2466 58.1138 40.2954 59.5578 41.4962C60.7282 42.469 62.2938 43.5482 64.1786 44.2626H64.2546C64.2546 44.2626 64.285 44.2778 64.3002 44.2778C68.3282 45.813 73.7242 45.6458 79.7586 39.4442C79.7586 39.4442 87.2978 48.2602 98.8042 43.6394H98.8194Z" fill="#0080AB"/>
<path d="M20.4938 48.2752C20.4938 48.2752 23.4122 48.26 25.3578 46.436C25.3578 46.436 26.9234 47.7888 30.2218 48.488C30.2218 48.488 26.969 48.2904 25.449 47.2416C24.5978 47.956 22.6826 48.7616 20.4938 48.26V48.2752Z" fill="#5BC9ED"/>
<path d="M46.957 51.4059C46.957 51.4059 49.4498 51.4059 51.1218 49.8403C51.1218 49.8403 52.4594 50.9955 55.2866 51.6035C55.2866 51.6035 52.505 51.4363 51.1978 50.5395C50.4682 51.1627 48.8266 51.8467 46.957 51.4211V51.4059Z" fill="#5BC9ED"/>
<path d="M79.8499 54.5983C79.8499 54.5983 82.8747 54.5831 84.9115 52.6831C84.9115 52.6831 86.5531 54.0967 89.9731 54.8263C89.9731 54.8263 86.5835 54.6287 85.0027 53.5343C84.1211 54.2791 82.1147 55.1151 79.8499 54.5983Z" fill="#5BC9ED"/>
<path d="M54.4202 46.1777C54.4202 46.1777 56.837 46.1777 58.4634 44.6577C58.4634 44.6577 59.7706 45.7825 62.5066 46.3601C62.5066 46.3601 59.801 46.1929 58.5394 45.3265C57.8402 45.9193 56.2442 46.5881 54.4354 46.1777H54.4202Z" fill="#5BC9ED"/>
<path d="M36.4386 47.2872C36.4386 47.2872 38.8858 47.2872 40.5426 45.7368C40.5426 45.7368 41.865 46.8768 44.6466 47.4696C44.6466 47.4696 41.9106 47.3024 40.6186 46.4208C39.9042 47.0288 38.2778 47.6976 36.4386 47.2872Z" fill="#00698C"/>
<path d="M63.981 51.2244C63.981 51.2244 66.6866 51.2244 68.4954 50.0996C68.4954 50.0996 69.9546 50.9356 73.0098 51.3612C73.0098 51.3612 70.0002 51.2396 68.5866 50.586C67.7962 51.0268 66.0178 51.5284 63.9962 51.2244H63.981Z" fill="#00698C"/>
<path d="M77.7066 46.147C77.7066 46.147 79.941 46.147 81.4458 45.2046C81.4458 45.2046 82.6466 45.9038 85.185 46.2534C85.185 46.2534 82.6922 46.147 81.5066 45.615C80.853 45.9798 79.3786 46.3902 77.6914 46.1318L77.7066 46.147Z" fill="#00698C"/>
<path d="M10.629 45.1592C10.629 45.1592 12.3314 45.1592 13.4714 44.4448C13.4714 44.4448 14.3834 44.9768 16.3138 45.2352C16.3138 45.2352 14.4138 45.1592 13.517 44.7488C13.0154 45.0224 11.8906 45.3416 10.629 45.144V45.1592Z" fill="#00698C"/>
<path d="M88.9546 50.5093C88.9546 50.5093 91.3866 50.5093 93.0282 48.9741C93.0282 48.9741 94.3354 50.0989 97.1018 50.6917C97.1018 50.6917 94.381 50.5245 93.1042 49.6429C92.3898 50.2509 90.7786 50.9197 88.9546 50.4941V50.5093Z" fill="#5BC9ED"/>
<path d="M98.8194 56.3312V64.0984C98.8194 65.588 98.5458 67.0016 98.0442 68.324C97.9834 68.4912 97.9226 68.628 97.8618 68.7952C97.2842 70.1176 96.4786 71.3184 95.4754 72.352H95.4602C93.317 74.6016 90.2618 76 86.9178 76H12.7418C6.17541 76 0.84021 70.6648 0.84021 64.0984V46.5576C3.71301 47.044 7.969 47.728 13.2738 48.5184H13.289C13.289 48.5184 13.3194 48.5336 13.3346 48.5336C13.4714 48.564 13.6234 48.564 13.7754 48.5944C14.2162 48.6704 14.657 48.7312 15.1282 48.8072C15.1282 48.8072 15.2194 48.8224 15.2802 48.8224H15.2954C15.4322 48.8528 15.569 48.868 15.721 48.8832H15.7362C15.7362 48.8832 15.797 48.8984 15.8274 48.8984C15.9338 48.9136 16.0402 48.944 16.1466 48.944C16.785 49.0504 17.4386 49.1416 18.1074 49.248H18.1226C18.3506 49.2784 18.5938 49.3088 18.837 49.3392C19.6122 49.4608 20.4026 49.5672 21.2082 49.6736C21.4362 49.7192 21.6794 49.7496 21.9226 49.78H21.9378C22.5002 49.8712 23.0626 49.932 23.6402 50.0232H23.6554C23.8834 50.0688 24.1266 50.084 24.385 50.1296H24.4002C25.0386 50.2056 25.677 50.312 26.3154 50.388H26.3458C26.4218 50.4032 26.4826 50.4032 26.5586 50.4184C26.7106 50.4488 26.8474 50.464 26.9994 50.4792C27.4554 50.54 27.9418 50.616 28.4282 50.6768H28.4586C28.5802 50.692 28.717 50.7224 28.869 50.7376H28.8842C30.7082 50.9808 32.5778 51.224 34.493 51.4672C34.8122 51.5128 35.1162 51.5432 35.4202 51.5736C53.0674 53.808 74.1346 55.9056 92.6634 56.2704C94.7458 56.316 96.7826 56.3312 98.789 56.3312H98.8194Z" fill="#EBE196"/>
<path d="M6.72255 56.9397C6.99958 56.9397 7.22415 56.7152 7.22415 56.4381C7.22415 56.1611 6.99958 55.9365 6.72255 55.9365C6.44552 55.9365 6.22095 56.1611 6.22095 56.4381C6.22095 56.7152 6.44552 56.9397 6.72255 56.9397Z" fill="#E0D686"/>
<path d="M11.2978 60.4198C11.4824 60.4198 11.6322 60.2701 11.6322 60.0854C11.6322 59.9007 11.4824 59.751 11.2978 59.751C11.1131 59.751 10.9634 59.9007 10.9634 60.0854C10.9634 60.2701 11.1131 60.4198 11.2978 60.4198Z" fill="#E0D686"/>
<path d="M21.9986 52.6534C22.1329 52.6534 22.2418 52.5445 22.2418 52.4102C22.2418 52.2759 22.1329 52.167 21.9986 52.167C21.8643 52.167 21.7554 52.2759 21.7554 52.4102C21.7554 52.5445 21.8643 52.6534 21.9986 52.6534Z" fill="#E0D686"/>
<path d="M10.5226 56.5142C10.6569 56.5142 10.7658 56.4053 10.7658 56.271C10.7658 56.1367 10.6569 56.0278 10.5226 56.0278C10.3883 56.0278 10.2794 56.1367 10.2794 56.271C10.2794 56.4053 10.3883 56.5142 10.5226 56.5142Z" fill="#E0D686"/>
<path d="M14.657 58.1858C14.8668 58.1858 15.037 58.0156 15.037 57.8058C15.037 57.5959 14.8668 57.4258 14.657 57.4258C14.4471 57.4258 14.277 57.5959 14.277 57.8058C14.277 58.0156 14.4471 58.1858 14.657 58.1858Z" fill="#E0D686"/>
<path d="M15.3866 52.7893C15.5965 52.7893 15.7666 52.6192 15.7666 52.4093C15.7666 52.1994 15.5965 52.0293 15.3866 52.0293C15.1767 52.0293 15.0066 52.1994 15.0066 52.4093C15.0066 52.6192 15.1767 52.7893 15.3866 52.7893Z" fill="#E0D686"/>
<path d="M10.3858 52.3792C10.5369 52.3792 10.6594 52.2567 10.6594 52.1056C10.6594 51.9545 10.5369 51.832 10.3858 51.832C10.2347 51.832 10.1122 51.9545 10.1122 52.1056C10.1122 52.2567 10.2347 52.3792 10.3858 52.3792Z" fill="#E0D686"/>
<path d="M13.0914 55.4343C13.2005 55.4343 13.289 55.3458 13.289 55.2367C13.289 55.1275 13.2005 55.0391 13.0914 55.0391C12.9823 55.0391 12.8938 55.1275 12.8938 55.2367C12.8938 55.3458 12.9823 55.4343 13.0914 55.4343Z" fill="#E0D686"/>
<path d="M18.9586 59.1282C19.2357 59.1282 19.4602 58.9036 19.4602 58.6266C19.4602 58.3496 19.2357 58.125 18.9586 58.125C18.6816 58.125 18.457 58.3496 18.457 58.6266C18.457 58.9036 18.6816 59.1282 18.9586 59.1282Z" fill="#E0D686"/>
<path d="M22.7586 58.7027C22.8929 58.7027 23.0018 58.5938 23.0018 58.4595C23.0018 58.3252 22.8929 58.2163 22.7586 58.2163C22.6243 58.2163 22.5154 58.3252 22.5154 58.4595C22.5154 58.5938 22.6243 58.7027 22.7586 58.7027Z" fill="#E0D686"/>
<path d="M25.3274 57.6227C25.4365 57.6227 25.525 57.5343 25.525 57.4251C25.525 57.316 25.4365 57.2275 25.3274 57.2275C25.2182 57.2275 25.1298 57.316 25.1298 57.4251C25.1298 57.5343 25.2182 57.6227 25.3274 57.6227Z" fill="#E0D686"/>
<path d="M18.3506 62.7151C18.6276 62.7151 18.8522 62.4905 18.8522 62.2135C18.8522 61.9365 18.6276 61.7119 18.3506 61.7119C18.0736 61.7119 17.849 61.9365 17.849 62.2135C17.849 62.4905 18.0736 62.7151 18.3506 62.7151Z" fill="#E0D686"/>
<path d="M14.809 61.6366C14.9937 61.6366 15.1434 61.4869 15.1434 61.3022C15.1434 61.1175 14.9937 60.9678 14.809 60.9678C14.6243 60.9678 14.4746 61.1175 14.4746 61.3022C14.4746 61.4869 14.6243 61.6366 14.809 61.6366Z" fill="#E0D686"/>
<path d="M17.0586 67.7315C17.193 67.7315 17.3018 67.6226 17.3018 67.4883C17.3018 67.354 17.193 67.2451 17.0586 67.2451C16.9243 67.2451 16.8154 67.354 16.8154 67.4883C16.8154 67.6226 16.9243 67.7315 17.0586 67.7315Z" fill="#E0D686"/>
<path d="M11.2826 69.4338C11.4925 69.4338 11.6626 69.2637 11.6626 69.0538C11.6626 68.844 11.4925 68.6738 11.2826 68.6738C11.0727 68.6738 10.9026 68.844 10.9026 69.0538C10.9026 69.2637 11.0727 69.4338 11.2826 69.4338Z" fill="#E0D686"/>
<path d="M5.27862 68.1566C5.42972 68.1566 5.55221 68.0341 5.55221 67.883C5.55221 67.7319 5.42972 67.6094 5.27862 67.6094C5.12751 67.6094 5.005 67.7319 5.005 67.883C5.005 68.0341 5.12751 68.1566 5.27862 68.1566Z" fill="#E0D686"/>
<path d="M14.2314 69.9509C14.3406 69.9509 14.429 69.8624 14.429 69.7533C14.429 69.6441 14.3406 69.5557 14.2314 69.5557C14.1223 69.5557 14.0338 69.6441 14.0338 69.7533C14.0338 69.8624 14.1223 69.9509 14.2314 69.9509Z" fill="#E0D686"/>
<path d="M19.5818 55.3587C19.8588 55.3587 20.0834 55.1341 20.0834 54.8571C20.0834 54.58 19.8588 54.3555 19.5818 54.3555C19.3048 54.3555 19.0802 54.58 19.0802 54.8571C19.0802 55.1341 19.3048 55.3587 19.5818 55.3587Z" fill="#E0D686"/>
<path d="M21.193 65.9532C21.3274 65.9532 21.4362 65.8443 21.4362 65.71C21.4362 65.5757 21.3274 65.4668 21.193 65.4668C21.0587 65.4668 20.9498 65.5757 20.9498 65.71C20.9498 65.8443 21.0587 65.9532 21.193 65.9532Z" fill="#E0D686"/>
<path d="M22.3786 56.4835C22.5129 56.4835 22.6218 56.3746 22.6218 56.2403C22.6218 56.106 22.5129 55.9971 22.3786 55.9971C22.2443 55.9971 22.1354 56.106 22.1354 56.2403C22.1354 56.3746 22.2443 56.4835 22.3786 56.4835Z" fill="#E0D686"/>
<path d="M26.5129 60.633C26.7228 60.633 26.8929 60.4629 26.8929 60.253C26.8929 60.0432 26.7228 59.873 26.5129 59.873C26.3031 59.873 26.1329 60.0432 26.1329 60.253C26.1329 60.4629 26.3031 60.633 26.5129 60.633Z" fill="#E0D686"/>
<path d="M24.461 60.0096C24.6121 60.0096 24.7346 59.8871 24.7346 59.736C24.7346 59.5849 24.6121 59.4624 24.461 59.4624C24.3099 59.4624 24.1874 59.5849 24.1874 59.736C24.1874 59.8871 24.3099 60.0096 24.461 60.0096Z" fill="#E0D686"/>
<path d="M24.9474 55.404C25.0565 55.404 25.1449 55.3155 25.1449 55.2064C25.1449 55.0973 25.0565 55.0088 24.9474 55.0088C24.8382 55.0088 24.7498 55.0973 24.7498 55.2064C24.7498 55.3155 24.8382 55.404 24.9474 55.404Z" fill="#E0D686"/>
<path d="M29.0514 62.2136C29.3284 62.2136 29.553 61.9891 29.553 61.712C29.553 61.435 29.3284 61.2104 29.0514 61.2104C28.7744 61.2104 28.5498 61.435 28.5498 61.712C28.5498 61.9891 28.7744 62.2136 29.0514 62.2136Z" fill="#E0D686"/>
<path d="M24.689 62.6392C24.8233 62.6392 24.9322 62.5303 24.9322 62.396C24.9322 62.2617 24.8233 62.1528 24.689 62.1528C24.5547 62.1528 24.4458 62.2617 24.4458 62.396C24.4458 62.5303 24.5547 62.6392 24.689 62.6392Z" fill="#E0D686"/>
<path d="M26.7561 67.6402C26.8905 67.6402 26.9993 67.5313 26.9993 67.397C26.9993 67.2627 26.8905 67.1538 26.7561 67.1538C26.6218 67.1538 26.5129 67.2627 26.5129 67.397C26.5129 67.5313 26.6218 67.6402 26.7561 67.6402Z" fill="#E0D686"/>
<path d="M20.813 69.5095C21.0229 69.5095 21.193 69.3394 21.193 69.1295C21.193 68.9196 21.0229 68.7495 20.813 68.7495C20.6031 68.7495 20.433 68.9196 20.433 69.1295C20.433 69.3394 20.6031 69.5095 20.813 69.5095Z" fill="#E0D686"/>
<path d="M23.8378 67.762C23.9889 67.762 24.1114 67.6395 24.1114 67.4884C24.1114 67.3373 23.9889 67.2148 23.8378 67.2148C23.6867 67.2148 23.5642 67.3373 23.5642 67.4884C23.5642 67.6395 23.6867 67.762 23.8378 67.762Z" fill="#E0D686"/>
<path d="M23.1994 71.6828C23.3085 71.6828 23.397 71.5943 23.397 71.4852C23.397 71.3761 23.3085 71.2876 23.1994 71.2876C23.0903 71.2876 23.0018 71.3761 23.0018 71.4852C23.0018 71.5943 23.0903 71.6828 23.1994 71.6828Z" fill="#E0D686"/>
<path d="M30.0393 57.1214C30.3163 57.1214 30.5409 56.8968 30.5409 56.6198C30.5409 56.3427 30.3163 56.1182 30.0393 56.1182C29.7623 56.1182 29.5377 56.3427 29.5377 56.6198C29.5377 56.8968 29.7623 57.1214 30.0393 57.1214Z" fill="#E0D686"/>
<path d="M33.5962 61.9551C33.7305 61.9551 33.8394 61.8463 33.8394 61.7119C33.8394 61.5776 33.7305 61.4688 33.5962 61.4688C33.4619 61.4688 33.353 61.5776 33.353 61.7119C33.353 61.8463 33.4619 61.9551 33.5962 61.9551Z" fill="#E0D686"/>
<path d="M33.8394 56.6959C33.9737 56.6959 34.0826 56.587 34.0826 56.4527C34.0826 56.3184 33.9737 56.2095 33.8394 56.2095C33.7051 56.2095 33.5962 56.3184 33.5962 56.4527C33.5962 56.587 33.7051 56.6959 33.8394 56.6959Z" fill="#E0D686"/>
<path d="M39.7369 61.5754C39.9468 61.5754 40.1169 61.4053 40.1169 61.1954C40.1169 60.9856 39.9468 60.8154 39.7369 60.8154C39.5271 60.8154 39.3569 60.9856 39.3569 61.1954C39.3569 61.4053 39.5271 61.5754 39.7369 61.5754Z" fill="#E0D686"/>
<path d="M35.9218 60.2069C36.0729 60.2069 36.1954 60.0844 36.1954 59.9333C36.1954 59.7822 36.0729 59.6597 35.9218 59.6597C35.7707 59.6597 35.6482 59.7822 35.6482 59.9333C35.6482 60.0844 35.7707 60.2069 35.9218 60.2069Z" fill="#E0D686"/>
<path d="M36.4082 55.6169C36.5173 55.6169 36.6058 55.5284 36.6058 55.4193C36.6058 55.3101 36.5173 55.2217 36.4082 55.2217C36.299 55.2217 36.2106 55.3101 36.2106 55.4193C36.2106 55.5284 36.299 55.6169 36.4082 55.6169Z" fill="#E0D686"/>
<path d="M41.8801 58.1248C42.1572 58.1248 42.3817 57.9002 42.3817 57.6232C42.3817 57.3462 42.1572 57.1216 41.8801 57.1216C41.6031 57.1216 41.3785 57.3462 41.3785 57.6232C41.3785 57.9002 41.6031 58.1248 41.8801 58.1248Z" fill="#E0D686"/>
<path d="M35.4506 65.2384C35.5849 65.2384 35.6938 65.1295 35.6938 64.9952C35.6938 64.8608 35.5849 64.752 35.4506 64.752C35.3163 64.752 35.2074 64.8608 35.2074 64.9952C35.2074 65.1295 35.3163 65.2384 35.4506 65.2384Z" fill="#E0D686"/>
<path d="M37.2746 67.3663C37.4089 67.3663 37.5178 67.2574 37.5178 67.1231C37.5178 66.9888 37.4089 66.8799 37.2746 66.8799C37.1403 66.8799 37.0314 66.9888 37.0314 67.1231C37.0314 67.2574 37.1403 67.3663 37.2746 67.3663Z" fill="#E0D686"/>
<path d="M50.8634 61.8791C51.0733 61.8791 51.2434 61.709 51.2434 61.4991C51.2434 61.2893 51.0733 61.1191 50.8634 61.1191C50.6535 61.1191 50.4834 61.2893 50.4834 61.4991C50.4834 61.709 50.6535 61.8791 50.8634 61.8791Z" fill="#E0D686"/>
<path d="M52.6721 60.6785C52.8233 60.6785 52.9458 60.5561 52.9458 60.4049C52.9458 60.2538 52.8233 60.1313 52.6721 60.1313C52.521 60.1313 52.3986 60.2538 52.3986 60.4049C52.3986 60.5561 52.521 60.6785 52.6721 60.6785Z" fill="#E0D686"/>
<path d="M43.537 67.0171C43.7301 67.0171 43.8866 66.8605 43.8866 66.6675C43.8866 66.4744 43.7301 66.3179 43.537 66.3179C43.3439 66.3179 43.1874 66.4744 43.1874 66.6675C43.1874 66.8605 43.3439 67.0171 43.537 67.0171Z" fill="#E0D686"/>
<path d="M39.4938 68.9778C39.7708 68.9778 39.9954 68.7532 39.9954 68.4762C39.9954 68.1992 39.7708 67.9746 39.4938 67.9746C39.2168 67.9746 38.9922 68.1992 38.9922 68.4762C38.9922 68.7532 39.2168 68.9778 39.4938 68.9778Z" fill="#E0D686"/>
<path d="M28.9906 54.6746C29.2676 54.6746 29.4922 54.45 29.4922 54.173C29.4922 53.896 29.2676 53.6714 28.9906 53.6714C28.7136 53.6714 28.489 53.896 28.489 54.173C28.489 54.45 28.7136 54.6746 28.9906 54.6746Z" fill="#E0D686"/>
<path d="M40.8009 73.3853C40.9353 73.3853 41.0442 73.2764 41.0442 73.1421C41.0442 73.0078 40.9353 72.8989 40.8009 72.8989C40.6666 72.8989 40.5577 73.0078 40.5577 73.1421C40.5577 73.2764 40.6666 73.3853 40.8009 73.3853Z" fill="#E0D686"/>
<path d="M37.7154 71.835C37.8497 71.835 37.9586 71.7261 37.9586 71.5918C37.9586 71.4575 37.8497 71.3486 37.7154 71.3486C37.5811 71.3486 37.4722 71.4575 37.4722 71.5918C37.4722 71.7261 37.5811 71.835 37.7154 71.835Z" fill="#E0D686"/>
<path d="M33.0034 73.7659C33.2133 73.7659 33.3834 73.5957 33.3834 73.3859C33.3834 73.176 33.2133 73.0059 33.0034 73.0059C32.7935 73.0059 32.6234 73.176 32.6234 73.3859C32.6234 73.5957 32.7935 73.7659 33.0034 73.7659Z" fill="#E0D686"/>
<path d="M35.481 72.4886C35.6321 72.4886 35.7546 72.3661 35.7546 72.215C35.7546 72.0639 35.6321 71.9414 35.481 71.9414C35.3299 71.9414 35.2074 72.0639 35.2074 72.215C35.2074 72.3661 35.3299 72.4886 35.481 72.4886Z" fill="#E0D686"/>
<path d="M9.91455 64.6912C10.1244 64.6912 10.2945 64.521 10.2945 64.3112C10.2945 64.1013 10.1244 63.9312 9.91455 63.9312C9.70468 63.9312 9.53455 64.1013 9.53455 64.3112C9.53455 64.521 9.70468 64.6912 9.91455 64.6912Z" fill="#E0D686"/>
<path d="M12.7418 63.0798C12.9517 63.0798 13.1218 62.9097 13.1218 62.6998C13.1218 62.49 12.9517 62.3198 12.7418 62.3198C12.5319 62.3198 12.3618 62.49 12.3618 62.6998C12.3618 62.9097 12.5319 63.0798 12.7418 63.0798Z" fill="#E0D686"/>
<path d="M12.8025 66.88C12.9368 66.88 13.0457 66.7711 13.0457 66.6368C13.0457 66.5024 12.9368 66.3936 12.8025 66.3936C12.6682 66.3936 12.5593 66.5024 12.5593 66.6368C12.5593 66.7711 12.6682 66.88 12.8025 66.88Z" fill="#E0D686"/>
<path d="M10.5681 67.534C10.7192 67.534 10.8418 67.4115 10.8418 67.2604C10.8418 67.1093 10.7192 66.9868 10.5681 66.9868C10.417 66.9868 10.2946 67.1093 10.2946 67.2604C10.2946 67.4115 10.417 67.534 10.5681 67.534Z" fill="#E0D686"/>
<path d="M35.8913 74.4645C36.0005 74.4645 36.0889 74.3761 36.0889 74.2669C36.0889 74.1578 36.0005 74.0693 35.8913 74.0693C35.7822 74.0693 35.6937 74.1578 35.6937 74.2669C35.6937 74.3761 35.7822 74.4645 35.8913 74.4645Z" fill="#E0D686"/>
<path d="M27.2578 72.7776C27.5348 72.7776 27.7594 72.553 27.7594 72.276C27.7594 71.999 27.5348 71.7744 27.2578 71.7744C26.9808 71.7744 26.7562 71.999 26.7562 72.276C26.7562 72.553 26.9808 72.7776 27.2578 72.7776Z" fill="#E0D686"/>
<path d="M33.5353 70.6343C33.6696 70.6343 33.7785 70.5255 33.7785 70.3911C33.7785 70.2568 33.6696 70.1479 33.5353 70.1479C33.401 70.1479 33.2921 70.2568 33.2921 70.3911C33.2921 70.5255 33.401 70.6343 33.5353 70.6343Z" fill="#E0D686"/>
<path d="M30.1609 70.4366C30.2952 70.4366 30.4041 70.3277 30.4041 70.1934C30.4041 70.0591 30.2952 69.9502 30.1609 69.9502C30.0266 69.9502 29.9177 70.0591 29.9177 70.1934C29.9177 70.3277 30.0266 70.4366 30.1609 70.4366Z" fill="#E0D686"/>
<path d="M31.8938 66.5154C32.1037 66.5154 32.2738 66.3452 32.2738 66.1354C32.2738 65.9255 32.1037 65.7554 31.8938 65.7554C31.6839 65.7554 31.5138 65.9255 31.5138 66.1354C31.5138 66.3452 31.6839 66.5154 31.8938 66.5154Z" fill="#E0D686"/>
<path d="M18.6089 72.2C18.76 72.2 18.8825 72.0775 18.8825 71.9264C18.8825 71.7753 18.76 71.6528 18.6089 71.6528C18.4578 71.6528 18.3353 71.7753 18.3353 71.9264C18.3353 72.0775 18.4578 72.2 18.6089 72.2Z" fill="#E0D686"/>
<path d="M29.249 67.777C29.3581 67.777 29.4466 67.6886 29.4466 67.5794C29.4466 67.4703 29.3581 67.3818 29.249 67.3818C29.1399 67.3818 29.0514 67.4703 29.0514 67.5794C29.0514 67.6886 29.1399 67.777 29.249 67.777Z" fill="#E0D686"/>
<path d="M43.8562 62.5022C44.1332 62.5022 44.3578 62.2777 44.3578 62.0006C44.3578 61.7236 44.1332 61.499 43.8562 61.499C43.5792 61.499 43.3546 61.7236 43.3546 62.0006C43.3546 62.2777 43.5792 62.5022 43.8562 62.5022Z" fill="#E0D686"/>
<path d="M48.4922 67.7468C48.7356 67.7468 48.933 67.5495 48.933 67.306C48.933 67.0626 48.7356 66.8652 48.4922 66.8652C48.2487 66.8652 48.0514 67.0626 48.0514 67.306C48.0514 67.5495 48.2487 67.7468 48.4922 67.7468Z" fill="#E0D686"/>
<path d="M47.6562 62.0767C47.7905 62.0767 47.8994 61.9678 47.8994 61.8335C47.8994 61.6992 47.7905 61.5903 47.6562 61.5903C47.5219 61.5903 47.413 61.6992 47.413 61.8335C47.413 61.9678 47.5219 62.0767 47.6562 62.0767Z" fill="#E0D686"/>
<path d="M52.0338 64.1443C52.2437 64.1443 52.4138 63.9741 52.4138 63.7643C52.4138 63.5544 52.2437 63.3843 52.0338 63.3843C51.8239 63.3843 51.6538 63.5544 51.6538 63.7643C51.6538 63.9741 51.8239 64.1443 52.0338 64.1443Z" fill="#E0D686"/>
<path d="M47.1242 55.6932C47.2753 55.6932 47.3978 55.5707 47.3978 55.4196C47.3978 55.2685 47.2753 55.146 47.1242 55.146C46.9731 55.146 46.8506 55.2685 46.8506 55.4196C46.8506 55.5707 46.9731 55.6932 47.1242 55.6932Z" fill="#E0D686"/>
<path d="M50.2249 58.5353C50.3341 58.5353 50.4225 58.4469 50.4225 58.3377C50.4225 58.2286 50.3341 58.1401 50.2249 58.1401C50.1158 58.1401 50.0273 58.2286 50.0273 58.3377C50.0273 58.4469 50.1158 58.5353 50.2249 58.5353Z" fill="#E0D686"/>
<path d="M55.3474 66.4241C55.6245 66.4241 55.849 66.1995 55.849 65.9225C55.849 65.6455 55.6245 65.4209 55.3474 65.4209C55.0704 65.4209 54.8458 65.6455 54.8458 65.9225C54.8458 66.1995 55.0704 66.4241 55.3474 66.4241Z" fill="#E0D686"/>
<path d="M50.2098 66.1505C50.3441 66.1505 50.453 66.0416 50.453 65.9073C50.453 65.7729 50.3441 65.6641 50.2098 65.6641C50.0754 65.6641 49.9666 65.7729 49.9666 65.9073C49.9666 66.0416 50.0754 66.1505 50.2098 66.1505Z" fill="#E0D686"/>
<path d="M53.7969 68.5977C53.9312 68.5977 54.0401 68.4888 54.0401 68.3545C54.0401 68.2202 53.9312 68.1113 53.7969 68.1113C53.6626 68.1113 53.5537 68.2202 53.5537 68.3545C53.5537 68.4888 53.6626 68.5977 53.7969 68.5977Z" fill="#E0D686"/>
<path d="M48.0361 72.7624C48.246 72.7624 48.4161 72.5923 48.4161 72.3824C48.4161 72.1726 48.246 72.0024 48.0361 72.0024C47.8263 72.0024 47.6561 72.1726 47.6561 72.3824C47.6561 72.5923 47.8263 72.7624 48.0361 72.7624Z" fill="#E0D686"/>
<path d="M42.2754 69.7982C42.4265 69.7982 42.549 69.6757 42.549 69.5246C42.549 69.3735 42.4265 69.251 42.2754 69.251C42.1243 69.251 42.0018 69.3735 42.0018 69.5246C42.0018 69.6757 42.1243 69.7982 42.2754 69.7982Z" fill="#E0D686"/>
<path d="M50.9698 73.2639C51.079 73.2639 51.1674 73.1754 51.1674 73.0663C51.1674 72.9571 51.079 72.8687 50.9698 72.8687C50.8607 72.8687 50.7722 72.9571 50.7722 73.0663C50.7722 73.1754 50.8607 73.2639 50.9698 73.2639Z" fill="#E0D686"/>
<path d="M56.3202 58.6873C56.5972 58.6873 56.8218 58.4627 56.8218 58.1857C56.8218 57.9087 56.5972 57.6841 56.3202 57.6841C56.0432 57.6841 55.8186 57.9087 55.8186 58.1857C55.8186 58.4627 56.0432 58.6873 56.3202 58.6873Z" fill="#E0D686"/>
<path d="M57.9466 69.2662C58.0809 69.2662 58.1898 69.1573 58.1898 69.023C58.1898 68.8887 58.0809 68.7798 57.9466 68.7798C57.8122 68.7798 57.7034 68.8887 57.7034 69.023C57.7034 69.1573 57.8122 69.2662 57.9466 69.2662Z" fill="#E0D686"/>
<path d="M59.117 62.274C59.2513 62.274 59.3602 62.1651 59.3602 62.0308C59.3602 61.8965 59.2513 61.7876 59.117 61.7876C58.9827 61.7876 58.8738 61.8965 58.8738 62.0308C58.8738 62.1651 58.9827 62.274 59.117 62.274Z" fill="#E0D686"/>
<path d="M63.145 65.2537C63.3549 65.2537 63.525 65.0835 63.525 64.8737C63.525 64.6638 63.3549 64.4937 63.145 64.4937C62.9351 64.4937 62.765 64.6638 62.765 64.8737C62.765 65.0835 62.9351 65.2537 63.145 65.2537Z" fill="#E0D686"/>
<path d="M61.0929 64.6307C61.2441 64.6307 61.3665 64.5082 61.3665 64.3571C61.3665 64.206 61.2441 64.0835 61.0929 64.0835C60.9418 64.0835 60.8193 64.206 60.8193 64.3571C60.8193 64.5082 60.9418 64.6307 61.0929 64.6307Z" fill="#E0D686"/>
<path d="M61.6858 61.195C61.7949 61.195 61.8834 61.1065 61.8834 60.9974C61.8834 60.8883 61.7949 60.7998 61.6858 60.7998C61.5766 60.7998 61.4882 60.8883 61.4882 60.9974C61.4882 61.1065 61.5766 61.195 61.6858 61.195Z" fill="#E0D686"/>
<path d="M67.2946 66.2107C67.5716 66.2107 67.7962 65.9861 67.7962 65.7091C67.7962 65.4321 67.5716 65.2075 67.2946 65.2075C67.0175 65.2075 66.793 65.4321 66.793 65.7091C66.793 65.9861 67.0175 66.2107 67.2946 66.2107Z" fill="#E0D686"/>
<path d="M61.6858 68.8253C61.8201 68.8253 61.929 68.7164 61.929 68.5821C61.929 68.4478 61.8201 68.3389 61.6858 68.3389C61.5515 68.3389 61.4426 68.4478 61.4426 68.5821C61.4426 68.7164 61.5515 68.8253 61.6858 68.8253Z" fill="#E0D686"/>
<path d="M63.4945 70.9542C63.6289 70.9542 63.7377 70.8453 63.7377 70.711C63.7377 70.5767 63.6289 70.4678 63.4945 70.4678C63.3602 70.4678 63.2513 70.5767 63.2513 70.711C63.2513 70.8453 63.3602 70.9542 63.4945 70.9542Z" fill="#E0D686"/>
<path d="M57.5665 72.8235C57.7764 72.8235 57.9465 72.6533 57.9465 72.4435C57.9465 72.2336 57.7764 72.0635 57.5665 72.0635C57.3567 72.0635 57.1865 72.2336 57.1865 72.4435C57.1865 72.6533 57.3567 72.8235 57.5665 72.8235Z" fill="#E0D686"/>
<path d="M60.5914 71.0907C60.7425 71.0907 60.8649 70.9682 60.8649 70.8171C60.8649 70.666 60.7425 70.5435 60.5914 70.5435C60.4403 70.5435 60.3177 70.666 60.3177 70.8171C60.3177 70.9682 60.4403 71.0907 60.5914 71.0907Z" fill="#E0D686"/>
<path d="M61.4273 73.4924C61.5365 73.4924 61.6249 73.4039 61.6249 73.2948C61.6249 73.1856 61.5365 73.0972 61.4273 73.0972C61.3182 73.0972 61.2297 73.1856 61.2297 73.2948C61.2297 73.4039 61.3182 73.4924 61.4273 73.4924Z" fill="#E0D686"/>
<path d="M64.7714 62.4109C65.0484 62.4109 65.273 62.1863 65.273 61.9093C65.273 61.6323 65.0484 61.4077 64.7714 61.4077C64.4944 61.4077 64.2698 61.6323 64.2698 61.9093C64.2698 62.1863 64.4944 62.4109 64.7714 62.4109Z" fill="#E0D686"/>
<path d="M70.5778 68.1265C70.7121 68.1265 70.821 68.0177 70.821 67.8833C70.821 67.749 70.7121 67.6401 70.5778 67.6401C70.4435 67.6401 70.3346 67.749 70.3346 67.8833C70.3346 68.0177 70.4435 68.1265 70.5778 68.1265Z" fill="#E0D686"/>
<path d="M70.5778 62.4722C70.7121 62.4722 70.821 62.3634 70.821 62.229C70.821 62.0947 70.7121 61.9858 70.5778 61.9858C70.4435 61.9858 70.3346 62.0947 70.3346 62.229C70.3346 62.3634 70.4435 62.4722 70.5778 62.4722Z" fill="#E0D686"/>
<path d="M75.3049 65.406C75.5148 65.406 75.6849 65.2359 75.6849 65.026C75.6849 64.8161 75.5148 64.646 75.3049 64.646C75.0951 64.646 74.9249 64.8161 74.9249 65.026C74.9249 65.2359 75.0951 65.406 75.3049 65.406Z" fill="#E0D686"/>
<path d="M73.253 64.7826C73.4041 64.7826 73.5266 64.6601 73.5266 64.509C73.5266 64.3578 73.4041 64.2354 73.253 64.2354C73.1019 64.2354 72.9794 64.3578 72.9794 64.509C72.9794 64.6601 73.1019 64.7826 73.253 64.7826Z" fill="#E0D686"/>
<path d="M73.1466 61.3932C73.2557 61.3932 73.3442 61.3048 73.3442 61.1956C73.3442 61.0865 73.2557 60.998 73.1466 60.998C73.0374 60.998 72.949 61.0865 72.949 61.1956C72.949 61.3048 73.0374 61.3932 73.1466 61.3932Z" fill="#E0D686"/>
<path d="M77.5089 68.5979C77.786 68.5979 78.0105 68.3734 78.0105 68.0963C78.0105 67.8193 77.786 67.5947 77.5089 67.5947C77.2319 67.5947 77.0073 67.8193 77.0073 68.0963C77.0073 68.3734 77.2319 68.5979 77.5089 68.5979Z" fill="#E0D686"/>
<path d="M73.481 67.4122C73.6153 67.4122 73.7242 67.3033 73.7242 67.169C73.7242 67.0347 73.6153 66.9258 73.481 66.9258C73.3467 66.9258 73.2378 67.0347 73.2378 67.169C73.2378 67.3033 73.3467 67.4122 73.481 67.4122Z" fill="#E0D686"/>
<path d="M81.0353 65.314C81.1696 65.314 81.2785 65.2052 81.2785 65.0708C81.2785 64.9365 81.1696 64.8276 81.0353 64.8276C80.901 64.8276 80.7921 64.9365 80.7921 65.0708C80.7921 65.2052 80.901 65.314 81.0353 65.314Z" fill="#E0D686"/>
<path d="M85.413 64.1897C85.6228 64.1897 85.793 64.0196 85.793 63.8097C85.793 63.5998 85.6228 63.4297 85.413 63.4297C85.2031 63.4297 85.033 63.5998 85.033 63.8097C85.033 64.0196 85.2031 64.1897 85.413 64.1897Z" fill="#E0D686"/>
<path d="M83.361 63.5662C83.5121 63.5662 83.6346 63.4437 83.6346 63.2926C83.6346 63.1415 83.5121 63.019 83.361 63.019C83.2099 63.019 83.0874 63.1415 83.0874 63.2926C83.0874 63.4437 83.2099 63.5662 83.361 63.5662Z" fill="#E0D686"/>
<path d="M83.589 66.1959C83.7233 66.1959 83.8322 66.087 83.8322 65.9527C83.8322 65.8184 83.7233 65.7095 83.589 65.7095C83.4547 65.7095 83.3458 65.8184 83.3458 65.9527C83.3458 66.087 83.4547 66.1959 83.589 66.1959Z" fill="#E0D686"/>
<path d="M74.9706 71.1514C75.1049 71.1514 75.2138 71.0426 75.2138 70.9082C75.2138 70.7739 75.1049 70.665 74.9706 70.665C74.8363 70.665 74.7274 70.7739 74.7274 70.9082C74.7274 71.0426 74.8363 71.1514 74.9706 71.1514Z" fill="#E0D686"/>
<path d="M71.6874 72.0784C71.8972 72.0784 72.0674 71.9082 72.0674 71.6984C72.0674 71.4885 71.8972 71.3184 71.6874 71.3184C71.4775 71.3184 71.3074 71.4885 71.3074 71.6984C71.3074 71.9082 71.4775 72.0784 71.6874 72.0784Z" fill="#E0D686"/>
<path d="M73.253 73.4159C73.4041 73.4159 73.5266 73.2934 73.5266 73.1423C73.5266 72.9911 73.4041 72.8687 73.253 72.8687C73.1019 72.8687 72.9794 72.9911 72.9794 73.1423C72.9794 73.2934 73.1019 73.4159 73.253 73.4159Z" fill="#E0D686"/>
<path d="M82.0993 70.9079C82.2084 70.9079 82.2969 70.8194 82.2969 70.7103C82.2969 70.6012 82.2084 70.5127 82.0993 70.5127C81.9902 70.5127 81.9017 70.6012 81.9017 70.7103C81.9017 70.8194 81.9902 70.9079 82.0993 70.9079Z" fill="#E0D686"/>
<path d="M76.5818 72.9446C76.8588 72.9446 77.0834 72.72 77.0834 72.443C77.0834 72.166 76.8588 71.9414 76.5818 71.9414C76.3048 71.9414 76.0802 72.166 76.0802 72.443C76.0802 72.72 76.3048 72.9446 76.5818 72.9446Z" fill="#E0D686"/>
<path d="M80.397 73.401C80.5313 73.401 80.6402 73.2921 80.6402 73.1578C80.6402 73.0234 80.5313 72.9146 80.397 72.9146C80.2627 72.9146 80.1538 73.0234 80.1538 73.1578C80.1538 73.2921 80.2627 73.401 80.397 73.401Z" fill="#E0D686"/>
<path d="M79.409 71.7896C79.5433 71.7896 79.6522 71.6807 79.6522 71.5464C79.6522 71.4121 79.5433 71.3032 79.409 71.3032C79.2747 71.3032 79.1658 71.4121 79.1658 71.5464C79.1658 71.6807 79.2747 71.7896 79.409 71.7896Z" fill="#E0D686"/>
<path d="M68.9665 58.718C69.1764 58.718 69.3465 58.5479 69.3465 58.338C69.3465 58.1281 69.1764 57.958 68.9665 57.958C68.7567 57.958 68.5865 58.1281 68.5865 58.338C68.5865 58.5479 68.7567 58.718 68.9665 58.718Z" fill="#E0D686"/>
<path d="M70.8362 57.6234C70.9873 57.6234 71.1098 57.5009 71.1098 57.3498C71.1098 57.1987 70.9873 57.0762 70.8362 57.0762C70.6851 57.0762 70.5626 57.1987 70.5626 57.3498C70.5626 57.5009 70.6851 57.6234 70.8362 57.6234Z" fill="#E0D686"/>
<path d="M71.8394 61.8796C71.9486 61.8796 72.037 61.7911 72.037 61.682C72.037 61.5728 71.9486 61.4844 71.8394 61.4844C71.7303 61.4844 71.6418 61.5728 71.6418 61.682C71.6418 61.7911 71.7303 61.8796 71.8394 61.8796Z" fill="#E0D686"/>
<path d="M60.5305 57.1824C60.8075 57.1824 61.0321 56.9578 61.0321 56.6808C61.0321 56.4038 60.8075 56.1792 60.5305 56.1792C60.2535 56.1792 60.0289 56.4038 60.0289 56.6808C60.0289 56.9578 60.2535 57.1824 60.5305 57.1824Z" fill="#E0D686"/>
<path d="M69.6809 74.1456C69.8153 74.1456 69.9242 74.0367 69.9242 73.9024C69.9242 73.7681 69.8153 73.6592 69.6809 73.6592C69.5466 73.6592 69.4377 73.7681 69.4377 73.9024C69.4377 74.0367 69.5466 74.1456 69.6809 74.1456Z" fill="#E0D686"/>
<path d="M66.8993 73.7652C67.0336 73.7652 67.1425 73.6563 67.1425 73.522C67.1425 73.3877 67.0336 73.2788 66.8993 73.2788C66.765 73.2788 66.6561 73.3877 66.6561 73.522C66.6561 73.6563 66.765 73.7652 66.8993 73.7652Z" fill="#E0D686"/>
<path d="M68.2218 71.197C68.4317 71.197 68.6018 71.0269 68.6018 70.817C68.6018 70.6071 68.4317 70.437 68.2218 70.437C68.0119 70.437 67.8418 70.6071 67.8418 70.817C67.8418 71.0269 68.0119 71.197 68.2218 71.197Z" fill="#E0D686"/>
<path d="M51.8818 56.5897C52.0329 56.5897 52.1554 56.4672 52.1554 56.3161C52.1554 56.165 52.0329 56.0425 51.8818 56.0425C51.7307 56.0425 51.6082 56.165 51.6082 56.3161C51.6082 56.4672 51.7307 56.5897 51.8818 56.5897Z" fill="#E0D686"/>
<path d="M65.9874 71.1056C66.0965 71.1056 66.185 71.0172 66.185 70.908C66.185 70.7989 66.0965 70.7104 65.9874 70.7104C65.8783 70.7104 65.7898 70.7989 65.7898 70.908C65.7898 71.0172 65.8783 71.1056 65.9874 71.1056Z" fill="#E0D686"/>
<path d="M49.4042 70.6345C49.6812 70.6345 49.9058 70.41 49.9058 70.133C49.9058 69.8559 49.6812 69.6313 49.4042 69.6313C49.1272 69.6313 48.9026 69.8559 48.9026 70.133C48.9026 70.41 49.1272 70.6345 49.4042 70.6345Z" fill="#E0D686"/>
<path d="M44.0994 70.5889C44.2337 70.5889 44.3426 70.4801 44.3426 70.3457C44.3426 70.2114 44.2337 70.1025 44.0994 70.1025C43.9651 70.1025 43.8562 70.2114 43.8562 70.3457C43.8562 70.4801 43.9651 70.5889 44.0994 70.5889Z" fill="#E0D686"/>
<path d="M46.8658 73.1881C47.0001 73.1881 47.109 73.0792 47.109 72.9449C47.109 72.8105 47.0001 72.7017 46.8658 72.7017C46.7314 72.7017 46.6226 72.8105 46.6226 72.9449C46.6226 73.0792 46.7314 73.1881 46.8658 73.1881Z" fill="#E0D686"/>
<path d="M43.9474 73.325C44.0985 73.325 44.221 73.2025 44.221 73.0514C44.221 72.9003 44.0985 72.7778 43.9474 72.7778C43.7963 72.7778 43.6738 72.9003 43.6738 73.0514C43.6738 73.2025 43.7963 73.325 43.9474 73.325Z" fill="#E0D686"/>
<path d="M52.0034 72.0784C52.2133 72.0784 52.3834 71.9082 52.3834 71.6984C52.3834 71.4885 52.2133 71.3184 52.0034 71.3184C51.7935 71.3184 51.6234 71.4885 51.6234 71.6984C51.6234 71.9082 51.7935 72.0784 52.0034 72.0784Z" fill="#E0D686"/>
<path d="M49.3586 73.34C49.4677 73.34 49.5562 73.2516 49.5562 73.1424C49.5562 73.0333 49.4677 72.9448 49.3586 72.9448C49.2495 72.9448 49.161 73.0333 49.161 73.1424C49.161 73.2516 49.2495 73.34 49.3586 73.34Z" fill="#E0D686"/>
<path d="M78.9834 57.6233C79.2604 57.6233 79.485 57.3987 79.485 57.1217C79.485 56.8447 79.2604 56.6201 78.9834 56.6201C78.7064 56.6201 78.4818 56.8447 78.4818 57.1217C78.4818 57.3987 78.7064 57.6233 78.9834 57.6233Z" fill="#E0D686"/>
<path d="M83.2698 58.4141C83.4041 58.4141 83.513 58.3052 83.513 58.1709C83.513 58.0366 83.4041 57.9277 83.2698 57.9277C83.1355 57.9277 83.0266 58.0366 83.0266 58.1709C83.0266 58.3052 83.1355 58.4141 83.2698 58.4141Z" fill="#E0D686"/>
<path d="M83.209 74.1148C83.3433 74.1148 83.4522 74.0059 83.4522 73.8716C83.4522 73.7373 83.3433 73.6284 83.209 73.6284C83.0747 73.6284 82.9658 73.7373 82.9658 73.8716C82.9658 74.0059 83.0747 74.1148 83.209 74.1148Z" fill="#E0D686"/>
<path d="M87.6169 74.0852C87.8268 74.0852 87.9969 73.9151 87.9969 73.7052C87.9969 73.4953 87.8268 73.3252 87.6169 73.3252C87.4071 73.3252 87.2369 73.4953 87.2369 73.7052C87.2369 73.9151 87.4071 74.0852 87.6169 74.0852Z" fill="#E0D686"/>
<path d="M81.1874 70.7108C81.3385 70.7108 81.461 70.5883 81.461 70.4372C81.461 70.2861 81.3385 70.1636 81.1874 70.1636C81.0363 70.1636 80.9138 70.2861 80.9138 70.4372C80.9138 70.5883 81.0363 70.7108 81.1874 70.7108Z" fill="#E0D686"/>
<path d="M85.1698 72.1237C85.2789 72.1237 85.3674 72.0352 85.3674 71.9261C85.3674 71.817 85.2789 71.7285 85.1698 71.7285C85.0606 71.7285 84.9722 71.817 84.9722 71.9261C84.9722 72.0352 85.0606 72.1237 85.1698 72.1237Z" fill="#E0D686"/>
<path d="M91.7362 72.1853C91.9125 72.1853 92.0554 72.0424 92.0554 71.8661C92.0554 71.6898 91.9125 71.5469 91.7362 71.5469C91.5599 71.5469 91.417 71.6898 91.417 71.8661C91.417 72.0424 91.5599 72.1853 91.7362 72.1853Z" fill="#E0D686"/>
<path d="M85.9754 58.2462C86.1097 58.2462 86.2186 58.1373 86.2186 58.003C86.2186 57.8686 86.1097 57.7598 85.9754 57.7598C85.8411 57.7598 85.7322 57.8686 85.7322 58.003C85.7322 58.1373 85.8411 58.2462 85.9754 58.2462Z" fill="#E0D686"/>
<path d="M90.2314 59.0977C90.3657 59.0977 90.4746 58.9888 90.4746 58.8545C90.4746 58.7202 90.3657 58.6113 90.2314 58.6113C90.097 58.6113 89.9882 58.7202 89.9882 58.8545C89.9882 58.9888 90.097 59.0977 90.2314 59.0977Z" fill="#E0D686"/>
<path d="M85.7626 68.2331C85.9724 68.2331 86.1426 68.063 86.1426 67.8531C86.1426 67.6433 85.9724 67.4731 85.7626 67.4731C85.5527 67.4731 85.3826 67.6433 85.3826 67.8531C85.3826 68.063 85.5527 68.2331 85.7626 68.2331Z" fill="#E0D686"/>
<path d="M80.397 67.7923C80.5481 67.7923 80.6706 67.6698 80.6706 67.5187C80.6706 67.3676 80.5481 67.2451 80.397 67.2451C80.2459 67.2451 80.1234 67.3676 80.1234 67.5187C80.1234 67.6698 80.2459 67.7923 80.397 67.7923Z" fill="#E0D686"/>
<path d="M89.5474 62.8523C89.7572 62.8523 89.9274 62.6822 89.9274 62.4723C89.9274 62.2624 89.7572 62.0923 89.5474 62.0923C89.3375 62.0923 89.1674 62.2624 89.1674 62.4723C89.1674 62.6822 89.3375 62.8523 89.5474 62.8523Z" fill="#E0D686"/>
<path d="M87.4954 62.2288C87.6465 62.2288 87.769 62.1063 87.769 61.9552C87.769 61.8041 87.6465 61.6816 87.4954 61.6816C87.3443 61.6816 87.2218 61.8041 87.2218 61.9552C87.2218 62.1063 87.3443 62.2288 87.4954 62.2288Z" fill="#E0D686"/>
<path d="M92.0858 64.4329C92.3629 64.4329 92.5874 64.2083 92.5874 63.9313C92.5874 63.6543 92.3629 63.4297 92.0858 63.4297C91.8088 63.4297 91.5842 63.6543 91.5842 63.9313C91.5842 64.2083 91.8088 64.4329 92.0858 64.4329Z" fill="#E0D686"/>
<path d="M87.7234 64.8585C87.8577 64.8585 87.9666 64.7496 87.9666 64.6153C87.9666 64.481 87.8577 64.3721 87.7234 64.3721C87.5891 64.3721 87.4802 64.481 87.4802 64.6153C87.4802 64.7496 87.5891 64.8585 87.7234 64.8585Z" fill="#E0D686"/>
<path d="M94.9889 63.6273C95.14 63.6273 95.2625 63.5048 95.2625 63.3537C95.2625 63.2026 95.14 63.0801 94.9889 63.0801C94.8378 63.0801 94.7153 63.2026 94.7153 63.3537C94.7153 63.5048 94.8378 63.6273 94.9889 63.6273Z" fill="#E0D686"/>
<path d="M88.7418 67.5637C88.8509 67.5637 88.9394 67.4752 88.9394 67.3661C88.9394 67.2569 88.8509 67.1685 88.7418 67.1685C88.6327 67.1685 88.5442 67.2569 88.5442 67.3661C88.5442 67.4752 88.6327 67.5637 88.7418 67.5637Z" fill="#E0D686"/>
<path d="M90.7329 69.9202C91.01 69.9202 91.2345 69.6956 91.2345 69.4186C91.2345 69.1416 91.01 68.917 90.7329 68.917C90.4559 68.917 90.2313 69.1416 90.2313 69.4186C90.2313 69.6956 90.4559 69.9202 90.7329 69.9202Z" fill="#E0D686"/>
<path d="M93.8489 69.8594C93.9832 69.8594 94.0921 69.7506 94.0921 69.6162C94.0921 69.4819 93.9832 69.373 93.8489 69.373C93.7146 69.373 93.6057 69.4819 93.6057 69.6162C93.6057 69.7506 93.7146 69.8594 93.8489 69.8594Z" fill="#E0D686"/>
<path d="M98.0442 68.3243C97.9834 68.4915 97.9226 68.6283 97.8618 68.7955C97.8162 68.8259 97.801 68.8259 97.7706 68.8259C97.5578 68.8715 97.345 68.7499 97.3146 68.5371C97.269 68.3395 97.4058 68.1267 97.6034 68.0963C97.801 68.0355 97.9834 68.1419 98.0442 68.3243Z" fill="#E0D686"/>
<path d="M96.1746 70.0418C96.3257 70.0418 96.4482 69.9193 96.4482 69.7682C96.4482 69.6171 96.3257 69.4946 96.1746 69.4946C96.0235 69.4946 95.901 69.6171 95.901 69.7682C95.901 69.9193 96.0235 70.0418 96.1746 70.0418Z" fill="#E0D686"/>
<path d="M95.825 67.8683C95.9342 67.8683 96.0226 67.7799 96.0226 67.6707C96.0226 67.5616 95.9342 67.4731 95.825 67.4731C95.7159 67.4731 95.6274 67.5616 95.6274 67.6707C95.6274 67.7799 95.7159 67.8683 95.825 67.8683Z" fill="#E0D686"/>
<path d="M83.6498 62.1833C83.8596 62.1833 84.0298 62.0132 84.0298 61.8033C84.0298 61.5935 83.8596 61.4233 83.6498 61.4233C83.4399 61.4233 83.2698 61.5935 83.2698 61.8033C83.2698 62.0132 83.4399 62.1833 83.6498 62.1833Z" fill="#E0D686"/>
<path d="M94.0922 59.1585C94.2433 59.1585 94.3658 59.036 94.3658 58.8849C94.3658 58.7338 94.2433 58.6113 94.0922 58.6113C93.9411 58.6113 93.8186 58.7338 93.8186 58.8849C93.8186 59.036 93.9411 59.1585 94.0922 59.1585Z" fill="#E0D686"/>
<path d="M97.6946 65.6794C97.8037 65.6794 97.8921 65.5909 97.8921 65.4818C97.8921 65.3726 97.8037 65.2842 97.6946 65.2842C97.5854 65.2842 97.4969 65.3726 97.4969 65.4818C97.4969 65.5909 97.5854 65.6794 97.6946 65.6794Z" fill="#E0D686"/>
<path d="M45.3914 57.3343C45.6684 57.3343 45.893 57.1097 45.893 56.8327C45.893 56.5556 45.6684 56.3311 45.3914 56.3311C45.1143 56.3311 44.8898 56.5556 44.8898 56.8327C44.8898 57.1097 45.1143 57.3343 45.3914 57.3343Z" fill="#E0D686"/>
<path d="M2.87694 49.8105C3.03644 49.8105 3.16574 49.6812 3.16574 49.5217C3.16574 49.3622 3.03644 49.2329 2.87694 49.2329C2.71744 49.2329 2.58813 49.3622 2.58813 49.5217C2.58813 49.6812 2.71744 49.8105 2.87694 49.8105Z" fill="#E0D686"/>
<path d="M5.78014 51.2851C5.93964 51.2851 6.06894 51.1558 6.06894 50.9963C6.06894 50.8368 5.93964 50.7075 5.78014 50.7075C5.62064 50.7075 5.49133 50.8368 5.49133 50.9963C5.49133 51.1558 5.62064 51.2851 5.78014 51.2851Z" fill="#E0D686"/>
<path d="M2.34496 55.2214C2.58841 55.2214 2.78578 55.0241 2.78578 54.7806C2.78578 54.5372 2.58841 54.3398 2.34496 54.3398C2.10152 54.3398 1.90417 54.5372 1.90417 54.7806C1.90417 55.0241 2.10152 55.2214 2.34496 55.2214Z" fill="#E0D686"/>
<path d="M3.77378 53.1086C3.95007 53.1086 4.09299 52.9657 4.09299 52.7894C4.09299 52.6131 3.95007 52.4702 3.77378 52.4702C3.59749 52.4702 3.45459 52.6131 3.45459 52.7894C3.45459 52.9657 3.59749 53.1086 3.77378 53.1086Z" fill="#E0D686"/>
<path d="M8.36412 61.3471C8.52362 61.3471 8.65292 61.2178 8.65292 61.0583C8.65292 60.8988 8.52362 60.7695 8.36412 60.7695C8.20462 60.7695 8.07532 60.8988 8.07532 61.0583C8.07532 61.2178 8.20462 61.3471 8.36412 61.3471Z" fill="#E0D686"/>
<path d="M7.77135 67.3515C7.93085 67.3515 8.06015 67.2222 8.06015 67.0627C8.06015 66.9032 7.93085 66.7739 7.77135 66.7739C7.61185 66.7739 7.48254 66.9032 7.48254 67.0627C7.48254 67.2222 7.61185 67.3515 7.77135 67.3515Z" fill="#E0D686"/>
<path d="M3.10497 62.0466C3.34842 62.0466 3.54579 61.8493 3.54579 61.6058C3.54579 61.3624 3.34842 61.165 3.10497 61.165C2.86153 61.165 2.66418 61.3624 2.66418 61.6058C2.66418 61.8493 2.86153 62.0466 3.10497 62.0466Z" fill="#E0D686"/>
<path d="M5.59775 65.7859C5.77404 65.7859 5.91696 65.6429 5.91696 65.4667C5.91696 65.2904 5.77404 65.1475 5.59775 65.1475C5.42146 65.1475 5.27856 65.2904 5.27856 65.4667C5.27856 65.6429 5.42146 65.7859 5.59775 65.7859Z" fill="#E0D686"/>
<path d="M40.8465 65.527C40.9556 65.527 41.0441 65.4386 41.0441 65.3294C41.0441 65.2203 40.9556 65.1318 40.8465 65.1318C40.7374 65.1318 40.6489 65.2203 40.6489 65.3294C40.6489 65.4386 40.7374 65.527 40.8465 65.527Z" fill="#E0D686"/>
<path d="M41.485 55.1761C41.762 55.1761 41.9866 54.9515 41.9866 54.6744C41.9866 54.3974 41.762 54.1729 41.485 54.1729C41.208 54.1729 40.9834 54.3974 40.9834 54.6744C40.9834 54.9515 41.208 55.1761 41.485 55.1761Z" fill="#E0D686"/>
<path d="M39.0834 55.2828C39.2177 55.2828 39.3266 55.1739 39.3266 55.0396C39.3266 54.9053 39.2177 54.7964 39.0834 54.7964C38.9491 54.7964 38.8402 54.9053 38.8402 55.0396C38.8402 55.1739 38.9491 55.2828 39.0834 55.2828Z" fill="#E0D686"/>
<path d="M81.1418 61.5904C81.2761 61.5904 81.3849 61.4815 81.3849 61.3472C81.3849 61.2129 81.2761 61.104 81.1418 61.104C81.0074 61.104 80.8986 61.2129 80.8986 61.3472C80.8986 61.4815 81.0074 61.5904 81.1418 61.5904Z" fill="#E0D686"/>
<path d="M79.5762 65.9227C79.7273 65.9227 79.8498 65.8002 79.8498 65.6491C79.8498 65.498 79.7273 65.3755 79.5762 65.3755C79.4251 65.3755 79.3026 65.498 79.3026 65.6491C79.3026 65.8002 79.4251 65.9227 79.5762 65.9227Z" fill="#E0D686"/>
<path d="M97.8314 58.6717C98.1085 58.6717 98.333 58.4471 98.333 58.1701C98.333 57.893 98.1085 57.6685 97.8314 57.6685C97.5544 57.6685 97.3298 57.893 97.3298 58.1701C97.3298 58.4471 97.5544 58.6717 97.8314 58.6717Z" fill="#E0D686"/>
<path d="M76.825 62.107C76.9593 62.107 77.0682 61.9981 77.0682 61.8638C77.0682 61.7295 76.9593 61.6206 76.825 61.6206C76.6907 61.6206 76.5818 61.7295 76.5818 61.8638C76.5818 61.9981 76.6907 62.107 76.825 62.107Z" fill="#E0D686"/>
<path d="M93.621 67.9442C93.7721 67.9442 93.8946 67.8217 93.8946 67.6706C93.8946 67.5195 93.7721 67.397 93.621 67.397C93.4699 67.397 93.3474 67.5195 93.3474 67.6706C93.3474 67.8217 93.4699 67.9442 93.621 67.9442Z" fill="#E0D686"/>
<g style="mix-blend-mode:multiply" opacity="0.26">
<path d="M9.38225 63.7641C11.9511 60.3897 14.1094 59.5537 16.7846 58.3225C19.4598 57.0913 16.6478 56.4225 19.9463 55.9209C23.2447 55.4193 33.2159 56.4377 37.0007 56.6657C66.9143 58.5049 64.7559 69.5249 57.5511 70.3305C40.3903 72.2761 28.8079 70.0113 25.9199 69.6313C23.0319 69.2513 6.81345 67.1081 9.38225 63.7489V63.7641Z" fill="#502A85"/>
</g>
<path d="M64.8778 44.2924C64.2698 44.2468 63.677 44.2924 63.1298 44.3684C61.0018 44.6876 59.3754 45.706 59.3754 45.706C52.6418 39.9756 46.8658 42.6204 46.8658 42.6204C42.0018 37.346 32.7602 36.5708 32.7602 36.5708C30.9818 30.6124 22.1202 29.7004 22.1202 29.7004C21.953 28.302 21.1018 26.9188 20.3874 25.946C19.7794 25.1404 19.2626 24.6084 19.2626 24.6084L37.685 23.1644L47.6866 22.374L55.3018 32.0716L64.8778 44.2924Z" fill="#FFE521"/>
<path d="M39.4178 27.3753L37.8978 29.9137C37.8978 29.9137 33.1858 35.0209 32.7754 36.5713C30.997 30.6129 22.1354 29.7009 22.1354 29.7009C22.1354 29.7009 25.5858 25.1561 28.9146 24.0161C32.2282 22.8761 39.4178 27.3753 39.4178 27.3753Z" fill="#E769E0"/>
<path d="M59.3754 45.7064C52.6418 39.976 46.8658 42.6208 46.8658 42.6208C46.8658 42.6208 49.237 33.0296 48.325 30.5672C47.413 28.1048 59.4666 38.3952 59.4666 38.3952C59.4666 38.3952 59.7858 44.08 59.3754 45.7216V45.7064Z" fill="#E769E0"/>
<path d="M47.4738 21.0069L31.3466 58.9613C31.2554 59.1893 31.3466 59.4477 31.5898 59.5389C31.8178 59.6301 32.0762 59.5389 32.1674 59.2957L48.2946 21.3413C48.3858 21.1133 48.2946 20.8549 48.0514 20.7637C47.8234 20.6725 47.565 20.7637 47.4738 21.0069Z" fill="#EDA649"/>
<g style="mix-blend-mode:multiply" opacity="0.54">
<path d="M64.8778 44.2925C64.2698 44.2469 63.677 44.2925 63.1298 44.3685C58.7826 40.1733 51.4106 38.8813 51.4106 38.8813C43.8562 30.4757 31.3922 30.1869 31.3922 30.1869C31.3922 30.1869 31.3466 29.7462 28.9754 28.1046C27.045 26.767 22.1202 26.1286 20.3722 25.9462C19.7642 25.1406 19.2474 24.6085 19.2474 24.6085L37.6698 23.1646L55.2866 32.0869L64.8626 44.3077L64.8778 44.2925Z" fill="#DB1FD1"/>
</g>
<path d="M64.8778 44.2924C64.8778 44.2924 61.9746 40.994 59.2386 39.246C56.5026 37.498 53.2802 36.5708 53.2802 36.5708C53.1586 36.4644 49.3282 33.0748 43.8714 30.7948C38.3234 28.4692 32.7754 27.7092 32.7754 27.7092C32.7754 27.7092 30.997 26.6604 28.5042 25.7028C25.9962 24.7452 19.2778 24.6084 19.2778 24.6084C19.2778 24.6084 21.2386 23.1188 24.5978 21.7964C29.1578 19.9876 36.3019 18.4372 44.6163 21.2188C45.4979 21.5076 46.3795 21.8572 47.2763 22.2524C48.3859 22.7388 49.4194 23.2708 50.3922 23.818C57.217 27.7396 60.8802 33.3332 62.8106 37.6804C64.4978 41.4652 64.8626 44.3076 64.8626 44.3076L64.8778 44.2924Z" fill="#EC88E7"/>
<path d="M53.2802 36.556C53.1586 36.4496 49.3282 33.06 43.8714 30.78C38.3234 28.4544 32.7754 27.6944 32.7754 27.6944C32.7754 27.6944 35.8762 23.408 40.4514 21.7816C41.7282 21.3256 43.1266 21.0824 44.6162 21.204C45.5282 21.28 46.4554 21.4928 47.413 21.8728C48.629 22.3592 49.6018 23.028 50.3922 23.8032C52.1098 25.5208 52.9458 27.7856 53.3106 29.944C53.8882 33.4096 53.2802 36.556 53.2802 36.556Z" fill="#FFF5A6"/>
<g style="mix-blend-mode:overlay" opacity="0.46">
<path d="M62.8258 37.6657C59.193 31.3577 53.3106 29.9441 53.3106 29.9441C49.541 22.3289 40.4514 21.7817 40.4514 21.7817C36.7578 18.8177 24.841 21.7209 24.5826 21.7817C29.1426 19.9729 36.2866 18.4225 44.601 21.2041C45.513 21.2801 46.4402 21.4929 47.3978 21.8729C48.6138 22.3593 49.5866 23.0281 50.377 23.8033C57.2018 27.7249 60.865 33.3185 62.7954 37.6657H62.8258Z" fill="#FFFBDC"/>
</g>
<path d="M43.917 56.772C43.917 56.772 36.9858 58.1552 30.237 58.8544C28.7778 59.0064 27.3186 59.128 25.9506 59.1888C25.2058 59.2192 24.4914 59.2496 23.8074 59.2496C22.3634 59.2496 21.0562 59.1736 19.9922 58.9608C19.673 58.9 19.4754 58.596 19.5362 58.2768C19.597 57.9576 19.901 57.76 20.2202 57.8208C21.1626 58.0032 22.409 58.0944 23.8074 58.0944C24.4306 58.0944 25.0842 58.0944 25.753 58.0488C28.945 57.912 32.6538 57.456 35.8458 56.9848C39.7218 56.4072 42.8682 55.7992 43.5522 55.6776C43.6434 55.6624 43.689 55.6472 43.689 55.6472C44.0082 55.5864 44.3122 55.784 44.373 56.1032C44.4338 56.4224 44.2362 56.7264 43.917 56.7872V56.772Z" fill="#D1C58A"/>
<path d="M43.2938 63.9462C43.2938 64.0374 43.2178 64.2046 43.081 64.2806C42.853 64.387 42.7162 64.463 42.6098 64.4934C42.5642 64.4934 42.5186 64.5238 42.473 64.5238C42.473 64.5238 40.8466 63.1862 39.0834 61.7422C38.521 61.271 37.913 60.7846 37.3354 60.3134C37.2898 60.2678 37.229 60.2222 37.1682 60.1918C36.4538 59.599 35.7546 59.0214 35.1618 58.5198C35.0706 58.4286 34.9794 58.3526 34.8882 58.2918C34.6298 58.0638 34.4018 57.8662 34.2042 57.7142C34.2042 57.7142 34.1941 57.704 34.1738 57.6838C33.9914 57.5166 33.8242 57.395 33.7026 57.2582C33.6114 57.1974 33.5354 57.1366 33.4746 57.0758C33.4442 57.0454 33.3834 56.9998 33.3378 56.9542L32.593 56.2094C32.593 56.2094 32.4562 56.0574 32.365 55.9814C32.137 55.7534 31.8786 55.4798 31.5746 55.1606C31.377 54.9782 31.1794 54.7654 30.9666 54.5374C30.9362 54.507 30.9058 54.4766 30.8754 54.4462C30.6322 54.1878 30.3738 53.9294 30.1002 53.6406C28.8994 52.3942 27.501 50.935 26.1026 49.491C25.069 48.4118 24.0354 47.3478 23.093 46.375C23.0626 46.375 23.0626 46.3446 23.0322 46.3142C20.965 44.1558 19.3994 42.5446 19.3994 42.5446C19.2626 42.3926 19.1562 42.1494 19.141 41.9214C19.141 41.7694 19.1714 41.6478 19.3082 41.6022C19.3386 41.6022 19.3386 41.6022 19.369 41.6022C19.5666 41.5566 20.053 41.5414 20.2506 41.739C20.2506 41.739 20.4026 41.9062 20.6762 42.1646C20.9346 42.4534 21.3298 42.8486 21.801 43.3198C22.7434 44.3078 24.0354 45.6454 25.4338 47.0894C27.9114 49.6582 30.7082 52.5614 32.517 54.4006C32.6842 54.583 32.8514 54.7654 33.0034 54.9022C33.049 54.963 33.0946 55.0086 33.1554 55.0694C33.3226 55.2366 33.4594 55.3734 33.581 55.495C33.8546 55.7838 34.0674 55.9814 34.189 56.103C34.2346 56.1486 34.2802 56.1942 34.2954 56.1942C34.341 56.2398 34.417 56.3006 34.5082 56.3766C34.5994 56.4678 34.721 56.559 34.8426 56.6654C34.9794 56.7718 35.1162 56.8934 35.2682 57.0302C35.2682 57.0302 35.2986 57.0606 35.329 57.0758C35.4658 57.1974 35.6178 57.3038 35.7698 57.4406C35.9978 57.623 36.2258 57.8206 36.469 58.0182C36.9098 58.3982 37.3962 58.7934 37.8978 59.2038C37.9586 59.2494 38.0042 59.295 38.065 59.3406C38.141 59.4014 38.2322 59.4622 38.293 59.523C38.293 59.523 38.3031 59.523 38.3234 59.523C38.4146 59.6142 38.5058 59.675 38.597 59.751C40.3298 61.1646 42.0626 62.6086 42.777 63.171C42.9898 63.3382 43.081 63.4446 43.081 63.4446C43.2482 63.5814 43.3394 63.7182 43.309 63.9158L43.2938 63.9462Z" fill="#FFF6C7"/>
<path d="M42.8226 64.326C42.8226 64.326 42.6858 64.4476 42.6098 64.4932C42.5642 64.4932 42.5186 64.5236 42.473 64.5236C42.3058 64.554 42.1234 64.5236 41.9866 64.4172C41.9866 64.4172 40.497 63.2012 38.7186 61.7572C38.1714 61.3164 37.6242 60.8604 37.0618 60.4196C37.0314 60.3892 36.9858 60.3436 36.9554 60.3284C36.0738 59.614 35.2682 58.9452 34.5842 58.3524C34.2954 58.1244 34.0522 57.9268 33.8242 57.7292C33.7634 57.6836 33.7178 57.638 33.657 57.5772C33.5506 57.486 33.4594 57.41 33.3682 57.334C33.277 57.2428 33.1858 57.1668 33.125 57.1212L33.0035 56.9996C33.0035 56.9996 32.8818 56.8932 32.821 56.8172L32.5626 56.5588C32.4714 56.4676 32.3802 56.3612 32.2738 56.2548C32.1826 56.1636 32.061 56.042 31.9546 55.9356C31.7266 55.7076 31.453 55.434 31.1642 55.13C30.9818 54.9324 30.769 54.7196 30.5562 54.5068C30.1002 54.0356 29.5986 53.5188 29.0818 52.9716C28.0482 51.9076 26.9083 50.7372 25.7835 49.5668C25.4491 49.2172 25.1298 48.8828 24.7954 48.5484C21.7402 45.3868 19.065 42.6204 19.065 42.6204C18.9282 42.4684 18.8674 42.2556 18.913 42.0732C18.9434 41.9668 18.989 41.8604 19.0802 41.7844C19.141 41.7084 19.2322 41.678 19.3082 41.6476C19.3386 41.6476 19.3386 41.6476 19.369 41.6476C19.5666 41.6172 19.7642 41.6476 19.901 41.8148C19.901 41.8148 20.053 41.9668 20.3266 42.2404C20.585 42.514 20.965 42.9092 21.4362 43.3956C22.3938 44.3684 23.6858 45.7212 25.069 47.1652C27.501 49.6884 30.237 52.5156 32.0458 54.3548C32.2282 54.5372 32.4106 54.7196 32.5626 54.8868L32.7906 55.1148C32.9122 55.2364 33.0186 55.3428 33.125 55.4644L33.809 56.1484L33.9002 56.2396C33.9002 56.2396 33.9306 56.27 33.9458 56.2852C34.0522 56.3764 34.2346 56.5132 34.4474 56.7108C34.5386 56.7868 34.6298 56.878 34.7362 56.9692C34.7818 56.9996 34.8274 57.0452 34.8882 57.0908C35.0402 57.1972 35.1922 57.3492 35.3746 57.486C35.6026 57.6684 35.861 57.8812 36.1194 58.094C36.2866 58.246 36.4842 58.398 36.6818 58.55C37.077 58.8996 37.4874 59.234 37.8978 59.5684C37.9434 59.5988 37.989 59.6444 38.0498 59.6748C38.141 59.7508 38.217 59.8116 38.293 59.8876C39.9954 61.2708 41.6674 62.654 42.3818 63.2164C42.6098 63.3836 42.7314 63.49 42.7314 63.49C42.9746 63.6876 43.0202 64.0524 42.8226 64.3108V64.326Z" fill="#E3D795"/>
<g style="mix-blend-mode:multiply" opacity="0.13">
<path d="M25.9355 59.1885C25.1907 59.2189 24.4763 59.2493 23.7923 59.2493C22.3483 59.2493 21.0411 59.1733 19.9771 58.9605C19.6579 58.8997 19.4603 58.5957 19.5211 58.2765C19.5819 57.9573 19.8859 57.7597 20.2051 57.8205C21.1475 58.0029 22.3939 58.0941 23.7923 58.0941C24.4155 58.0941 25.0691 58.0941 25.7379 58.0485C25.8139 58.4437 25.8899 58.8693 25.9355 59.2037V59.1885Z" fill="#435F99"/>
</g>
<path d="M21.6491 59.2347L14.4899 63.2019L13.3347 63.8403C13.0459 63.9923 12.6963 63.9011 12.5443 63.6123C12.3923 63.3235 12.4835 62.9739 12.7723 62.8219L20.9499 58.2923L21.0867 58.2163C21.3755 58.0643 21.7251 58.1555 21.8771 58.4443C22.0291 58.7331 21.9379 59.0827 21.6491 59.2347Z" fill="#D6CA8D"/>
<path d="M44.1602 56.544C44.1602 56.544 43.9474 56.6656 43.6738 56.8176C43.4002 56.9696 43.0506 57.152 42.6098 57.38C42.4578 57.4408 42.321 57.532 42.169 57.608C41.4394 57.9728 40.6186 58.3984 39.7826 58.824C39.6306 58.9 39.4938 58.976 39.3418 59.052C38.977 59.2344 38.6274 59.4168 38.3082 59.584C38.2778 59.584 38.2778 59.6144 38.2474 59.6144C38.1866 59.6448 38.141 59.6752 38.0802 59.7056C37.989 59.7664 37.8978 59.7968 37.8066 59.8576C37.5786 59.9792 37.3811 60.0856 37.1835 60.2072C37.1075 60.2376 37.0314 60.2984 36.9706 60.3288C36.925 60.3592 36.8794 60.3744 36.849 60.4048C36.7122 60.4808 36.6058 60.5416 36.4842 60.6024C36.3474 60.6784 36.2258 60.7392 36.1194 60.7848C36.0738 60.8152 36.0282 60.8152 35.9978 60.8304C35.9674 60.8304 35.9674 60.8608 35.937 60.8608C35.9066 60.8912 35.8762 60.8912 35.8458 60.8912C35.8154 60.9216 35.8002 60.9216 35.8002 60.9216C35.6026 60.9216 33.9306 61.0584 31.681 60.9216C31.6202 60.9216 31.5594 60.9216 31.4986 60.9216C29.1274 60.7848 26.1786 60.3592 23.7314 59.28C23.2298 59.052 22.7434 58.7936 22.2874 58.52C22.2418 58.4896 22.1658 58.4288 22.0594 58.3528C21.9378 58.2616 21.8162 58.1552 21.6642 58.0336C20.889 57.3648 19.7795 56.2096 18.5635 54.8568C15.3563 51.2696 11.4498 46.36 11.4194 45.8736C11.4194 45.7064 11.7994 45.448 12.4226 45.144C12.4682 45.1136 12.5138 45.0984 12.5746 45.068C12.6658 45.0224 12.7722 44.9768 12.8786 44.916C13.0306 44.84 13.1826 44.764 13.365 44.688C13.6538 44.5664 13.9578 44.4296 14.2618 44.2928C14.429 44.232 14.5658 44.156 14.733 44.08C15.1586 43.9128 15.569 43.7152 15.9794 43.548C16.0858 43.5024 16.1922 43.4568 16.2986 43.396C16.3442 43.3656 16.3898 43.3656 16.4202 43.3352C16.5266 43.2896 16.6482 43.2288 16.7546 43.168C17.2258 42.94 17.6363 42.712 18.0163 42.5144C18.1835 42.4232 18.3202 42.3472 18.457 42.2864C18.6242 42.1952 18.761 42.1192 18.8826 42.0584C18.9738 42.028 19.0498 41.9824 19.1106 41.9672C19.2474 41.9064 19.3538 41.876 19.4146 41.876C19.7642 41.9064 21.1626 43.9584 23.0018 46.36C23.0322 46.3904 23.0322 46.4056 23.0626 46.4208C23.5794 47.1048 24.1418 47.8344 24.7346 48.5336C26.133 50.2512 27.6226 51.8928 29.021 52.9568C29.3858 53.2456 29.7354 53.4736 30.0698 53.6712C30.3434 53.8384 30.617 53.96 30.8754 54.036C31.1642 54.1272 31.529 54.2336 31.985 54.3248C32.137 54.3552 32.2738 54.3856 32.441 54.416C35.6178 55.024 41.4242 55.556 43.2178 55.7232C43.5674 55.7536 43.765 55.7688 43.765 55.7688C43.765 55.7688 44.6162 56.0272 44.1298 56.544H44.1602Z" fill="#2BD642"/>
<path d="M36.4842 60.5873C36.3474 60.6633 36.2258 60.7241 36.1194 60.7697C36.0738 60.8001 36.0282 60.8001 35.9978 60.8153C35.9978 60.8153 35.9674 60.7849 35.9522 60.7849C35.9218 60.7849 35.9218 60.7545 35.8914 60.7545C35.861 60.7545 35.8458 60.7241 35.8002 60.7241C35.5874 60.5873 35.2986 60.4657 34.949 60.3289C34.9034 60.3289 34.8578 60.2985 34.8122 60.2833C34.8122 60.2833 34.7818 60.2833 34.7666 60.2529C33.9914 59.9641 32.9578 59.6905 31.8482 59.4321C31.1338 59.2649 30.3738 59.0825 29.629 58.9305C27.957 58.5809 26.2546 58.2769 24.993 58.0641C24.9018 58.0641 24.8258 58.0337 24.7498 58.0337C24.233 57.9425 23.6706 57.6689 23.0626 57.2585C22.4546 56.8481 21.801 56.3009 21.1322 55.6777C19.7946 54.4161 18.3506 52.8049 17.0434 51.2089C16.8458 50.9657 16.633 50.7225 16.4506 50.4641C14.505 48.0625 12.909 45.8281 12.4226 45.1289C12.4682 45.0985 12.5138 45.0833 12.5746 45.0529C12.6658 45.0073 12.7722 44.9617 12.8786 44.9009C12.9698 45.0529 13.1218 45.2657 13.3042 45.5089C13.6994 46.0713 14.277 46.8465 14.9762 47.7737C15.3562 48.2753 15.797 48.8377 16.253 49.4001C17.393 50.8441 18.685 52.4097 19.9618 53.7777C21.1474 55.0545 22.333 56.1641 23.3362 56.8329C23.9138 57.2129 24.4306 57.4561 24.841 57.5169C25.525 57.6233 26.3762 57.7601 27.273 57.9425C28.5346 58.1705 29.9178 58.4441 31.225 58.7481C32.0458 58.9457 32.8514 59.1433 33.581 59.3561C34.4626 59.5993 35.2226 59.8577 35.7698 60.1161C36.089 60.2681 36.3322 60.4049 36.4994 60.5873H36.4842Z" fill="#FFE51C"/>
<path d="M38.2322 59.6146C38.0802 59.6906 37.9282 59.7818 37.7914 59.8578C37.761 59.8274 37.7306 59.797 37.685 59.7514C37.5026 59.5842 37.1226 59.3106 36.3474 58.9762C34.797 58.3074 31.6962 57.4106 25.5402 56.529C25.3426 56.4986 25.145 56.4226 24.9474 56.301C24.7346 56.1946 24.5066 56.0274 24.2634 55.845C23.777 55.4802 23.2298 54.9786 22.6522 54.3858C21.4818 53.2154 20.1594 51.6954 18.8978 50.1754C16.6482 47.4698 14.6418 44.7946 14.2466 44.2626C14.3986 44.2018 14.5658 44.1258 14.7178 44.0498C14.809 44.1714 14.961 44.369 15.1434 44.6122C15.5082 45.0834 16.025 45.7674 16.633 46.5426C17.8642 48.1082 19.4754 50.1146 21.0258 51.893C22.0594 53.0634 23.0778 54.1426 23.929 54.9026C24.4154 55.3282 24.841 55.6626 25.1754 55.845C25.3578 55.9362 25.5098 55.997 25.601 56.0122C30.237 56.681 33.1554 57.3498 35.0098 57.9426C36.8642 58.5354 37.6546 59.0218 38.0194 59.3562C38.1106 59.4474 38.1866 59.5234 38.217 59.5994L38.2322 59.6146Z" fill="#FFE51C"/>
<path d="M39.7675 58.8089C39.6155 58.8849 39.4787 58.9609 39.3267 59.0369C39.2963 58.9457 39.2355 58.8697 39.1595 58.7785C39.0227 58.6113 38.8251 58.4593 38.5819 58.2921C38.0955 57.9729 37.3963 57.6841 36.5755 57.4409C36.1651 57.3193 35.7395 57.2129 35.2835 57.0913C35.1163 57.0457 34.9187 57.0001 34.7363 56.9697C34.1739 56.8329 33.5659 56.7113 32.9731 56.6049C32.8211 56.5745 32.6843 56.5593 32.5323 56.5289C32.0003 56.4377 31.4835 56.3313 30.9667 56.2401C29.6899 56.0273 28.4891 55.8297 27.5315 55.6169C26.9843 55.5105 26.5283 55.3889 26.1787 55.2521C26.1179 55.2217 26.0723 55.1913 26.0115 55.1609C25.9507 55.1305 25.8899 55.0697 25.8291 55.0089C25.6923 54.9025 25.5403 54.7505 25.3731 54.5681C25.0083 54.2033 24.5827 53.7169 24.0963 53.1545C23.1235 52.0145 21.9075 50.5249 20.7371 49.0505C18.7763 46.5881 16.9067 44.1561 16.3595 43.4417C16.3291 43.4113 16.3139 43.3961 16.2987 43.3657C16.3443 43.3353 16.3899 43.3353 16.4203 43.3049C16.5267 43.2593 16.6483 43.1985 16.7547 43.1377C16.8763 43.3049 17.0435 43.5329 17.2563 43.8065C17.6819 44.3689 18.2899 45.1441 18.9891 46.0409C20.3875 47.8193 22.1507 50.0385 23.6099 51.8017C24.5979 52.9721 25.4491 53.9601 25.9659 54.4617C26.1027 54.5833 26.2091 54.6897 26.2851 54.7505C26.3155 54.7809 26.3611 54.7809 26.3611 54.7809C26.7411 54.9329 27.3187 55.0697 28.0179 55.2065C28.7171 55.3433 29.5531 55.4953 30.4195 55.6321C30.9059 55.7233 31.4075 55.7993 31.9091 55.8753C32.0611 55.9057 32.1979 55.9361 32.3499 55.9665C32.8819 56.0577 33.4139 56.1489 33.9307 56.2553C34.0979 56.2857 34.2803 56.3313 34.4475 56.3617C34.9187 56.4529 35.3747 56.5745 35.8155 56.6809C36.9403 56.9697 37.9435 57.3041 38.6731 57.7449C39.0987 57.9729 39.4331 58.2617 39.6459 58.5961C39.6763 58.6417 39.7219 58.7025 39.7371 58.7633L39.7675 58.8089Z" fill="#FFE51C"/>
<path d="M42.5946 57.3797C42.4426 57.4405 42.3058 57.5317 42.1538 57.6077C42.1538 57.6077 42.1234 57.5773 42.1234 57.5621C42.093 57.5165 42.0322 57.4709 41.941 57.4101C41.7738 57.2885 41.5306 57.1821 41.2266 57.0605C40.6034 56.8325 39.7066 56.6197 38.7034 56.4069C37.153 56.1029 35.2834 55.8141 33.5506 55.5253C33.3986 55.5253 33.2618 55.4949 33.125 55.4645C32.7602 55.4189 32.3954 55.3581 32.0458 55.2973C31.8938 55.2669 31.757 55.2517 31.6202 55.2061C31.4682 55.2061 31.3314 55.1605 31.1794 55.1301C30.1154 54.9325 29.2034 54.7197 28.5346 54.5069C28.1242 54.3549 27.6682 54.0661 27.1666 53.6557C26.6802 53.2605 26.133 52.7437 25.5706 52.1509C24.4306 50.9653 23.2298 49.5061 22.105 48.0621C20.0834 45.4781 18.3658 43.0005 18.0466 42.5293C18.2138 42.4381 18.3506 42.3621 18.4874 42.3013C18.5178 42.3317 18.533 42.3469 18.5482 42.3925C18.6394 42.5293 18.7762 42.7269 18.9586 42.9701C19.3082 43.4565 19.8098 44.1557 20.3874 44.9765C21.573 46.5877 23.1386 48.6397 24.6434 50.3877C25.6618 51.5581 26.6498 52.5917 27.4858 53.2757C27.957 53.6557 28.3826 53.9293 28.7018 54.0357C29.1578 54.2029 29.7962 54.3549 30.5562 54.5069H30.5866C30.7234 54.5373 30.8602 54.5525 31.0122 54.5829C31.4986 54.6741 32.0306 54.7805 32.5626 54.8717C32.7146 54.8717 32.8514 54.9021 32.9882 54.9325C33.0338 54.9325 33.0794 54.9325 33.125 54.9629C34.9642 55.2517 36.9706 55.5709 38.673 55.9053C39.7978 56.1333 40.7858 56.3613 41.5002 56.6349C41.9106 56.8021 42.2298 56.9541 42.4578 57.1669C42.5338 57.2277 42.5946 57.3037 42.6402 57.3949L42.5946 57.3797Z" fill="#FFE51C"/>
<g style="mix-blend-mode:multiply" opacity="0.17">
<path d="M43.7803 55.7689C43.7803 55.7689 43.5827 55.7537 43.2331 55.7081C43.1115 55.7081 42.9899 55.7081 42.8531 55.6777C42.4275 55.6321 41.8803 55.5865 41.2571 55.5257C41.2115 55.5257 41.1355 55.5105 41.0899 55.5105C40.9075 55.5105 40.7251 55.4801 40.5275 55.4497C40.2387 55.4345 39.9347 55.3889 39.6307 55.3737C39.2355 55.3129 38.8099 55.2825 38.3843 55.2369C37.8219 55.1761 37.2747 55.1001 36.6971 55.0393C36.4691 55.0089 36.2411 54.9785 36.0131 54.9481H35.9675C35.7243 54.9177 35.4811 54.8873 35.2379 54.8569C34.8579 54.7961 34.4931 54.7353 34.1283 54.6897C33.8091 54.6441 33.5355 54.5833 33.2315 54.5377H33.2163C32.9579 54.4921 32.6995 54.4617 32.4715 54.4009L32.0915 54.0209C31.8331 53.7473 31.5595 53.4737 31.2707 53.1697L30.9515 52.8505C30.3891 52.2729 29.7963 51.6649 29.1883 51.0265C29.0819 50.9201 28.9907 50.8441 28.8995 50.7377C27.8355 49.6281 26.7107 48.4729 25.6315 47.3481H25.6163C25.5403 47.2569 25.4643 47.1809 25.3883 47.1049C25.2667 46.9833 25.1451 46.8465 25.0235 46.7249C23.7619 45.4177 22.6067 44.2321 21.7555 43.3353L21.7251 43.3049C21.6187 43.1833 21.5123 43.0769 21.4059 42.9857C21.2995 42.8793 21.1931 42.7729 21.1171 42.6817C21.0107 42.5753 20.9347 42.4841 20.8435 42.4081C20.7675 42.3169 20.6915 42.2561 20.6307 42.1801C20.3571 41.9065 20.2203 41.7393 20.2203 41.7393C20.0531 41.5721 19.7035 41.5569 19.4755 41.5873C19.4147 41.5873 19.3691 41.5873 19.3387 41.6025C19.3387 41.6025 19.3184 41.6076 19.2779 41.6177C19.1867 41.6481 19.1107 41.6785 19.0499 41.7545C18.9587 41.8305 18.9131 41.9369 18.8827 42.0433C18.7611 42.1041 18.6091 42.1801 18.4571 42.2561C18.3507 42.3169 18.2443 42.3777 18.1227 42.4385C18.0923 42.4537 18.0467 42.4689 18.0011 42.4993C17.6363 42.6969 17.2107 42.9249 16.7547 43.1529C16.6331 43.1985 16.5267 43.2593 16.4203 43.3049C16.3899 43.3505 16.3595 43.3961 16.3595 43.4417C16.2227 43.7913 16.1011 44.4145 16.0555 45.1897L16.0403 45.2201C16.0251 45.3873 16.0251 45.5697 16.0251 45.7521C16.0099 46.0105 16.0099 46.2841 16.0099 46.5577C16.0099 47.3177 16.0555 48.1537 16.1771 48.9441C16.1923 49.0961 16.2227 49.2481 16.2379 49.3849C16.2683 49.5521 16.2835 49.6889 16.3139 49.8561C16.3595 50.0689 16.4051 50.2513 16.4507 50.4489C16.5419 50.8593 16.6635 51.2393 16.8003 51.6041C16.8155 51.6497 16.8307 51.7105 16.8763 51.7713C16.9219 51.9537 16.9827 52.0753 17.0587 52.2273C17.0891 52.3033 17.1347 52.4097 17.1803 52.4857C17.3627 52.8809 17.5451 53.2457 17.7427 53.5801C18.0011 54.0361 18.2747 54.4465 18.5635 54.8265C18.8827 55.2521 19.2019 55.6321 19.5059 55.9969C20.2963 56.8785 21.0259 57.5321 21.5731 57.9729H21.5883L21.6035 58.0033C21.7859 58.1249 21.9227 58.2313 22.0595 58.3225C22.1507 58.3985 22.2267 58.4441 22.2723 58.4745C22.4547 58.5961 22.6523 58.7025 22.8347 58.7937C22.9715 58.8697 23.1083 58.9457 23.2603 59.0217C23.2907 59.0521 23.3211 59.0521 23.3515 59.0673C23.3515 59.0673 23.3667 59.0673 23.3667 59.0825C23.4275 59.1129 23.4883 59.1433 23.5491 59.1737H23.5947C23.5947 59.1737 23.6555 59.2041 23.6859 59.2345H23.7163L23.7467 59.2649C23.9291 59.3257 24.1267 59.4169 24.3243 59.4929H24.3395H24.3699C24.4915 59.5537 24.5979 59.5841 24.7043 59.6297H24.7195C24.8715 59.6905 25.0235 59.7361 25.1755 59.7817C25.3275 59.8273 25.4795 59.8729 25.6315 59.9185C25.8139 59.9641 25.9963 60.0249 26.1787 60.0705C26.2091 60.0857 26.2243 60.0857 26.2547 60.0857C26.3459 60.1161 26.4219 60.1465 26.4979 60.1617C26.5891 60.1769 26.6651 60.1921 26.7411 60.2073H26.7563L26.7715 60.2225C26.8019 60.2377 26.8323 60.2377 26.8779 60.2529C26.9235 60.2681 26.9539 60.2681 26.9995 60.2681C27.2275 60.3289 27.4555 60.3593 27.6835 60.4049C27.9419 60.4657 28.1851 60.5113 28.4435 60.5417C28.5955 60.5721 28.7323 60.6025 28.8691 60.6177C29.0059 60.6177 29.1427 60.6481 29.2795 60.6633C29.5227 60.7089 29.7659 60.7241 30.0091 60.7545C30.1307 60.7697 30.2523 60.7697 30.3739 60.7849C30.7539 60.8153 31.0883 60.8457 31.4531 60.8761H31.6507C33.9003 61.0129 35.5723 60.8913 35.7699 60.8761H35.7851C35.7851 60.8761 35.8003 60.8761 35.8307 60.8609C35.8611 60.8457 35.8763 60.8457 35.9219 60.8153H35.9371C35.9371 60.8153 35.9371 60.8153 35.9827 60.8153C36.0131 60.8001 36.0587 60.7849 36.1043 60.7545C36.2107 60.7089 36.3323 60.6481 36.4691 60.5721C36.5755 60.5113 36.6819 60.4505 36.8187 60.3745C36.8643 60.3593 36.8947 60.3289 36.9403 60.2985C36.9859 60.3289 37.0163 60.3593 37.0619 60.4049C37.6091 60.8457 38.1715 61.3017 38.7035 61.7425C40.4819 63.1865 41.9715 64.4177 41.9715 64.4177C42.1083 64.5241 42.2907 64.5545 42.4579 64.5241C42.5035 64.5241 42.5491 64.4937 42.5947 64.4937C42.7011 64.4633 42.8379 64.3873 43.0659 64.2809C43.2027 64.2049 43.2635 64.0377 43.2787 63.9465C43.2939 63.7489 43.2027 63.6121 43.0355 63.4753C43.0355 63.4753 42.9443 63.3841 42.7315 63.2017C42.5491 63.0497 42.2755 62.8521 41.9715 62.5937C41.7587 62.4265 41.5155 62.2289 41.2723 62.0313C41.0899 61.8641 40.8923 61.7121 40.6795 61.5449C40.5731 61.4689 40.4819 61.3777 40.3755 61.2865L40.0563 61.0129L39.8283 60.8305C39.8283 60.8305 39.8131 60.8305 39.7979 60.8305C39.4027 60.4961 38.9619 60.1465 38.5515 59.7969C38.4603 59.7209 38.3691 59.6601 38.2779 59.5841C38.4451 59.4929 38.6123 59.4017 38.7795 59.3257C38.8403 59.2801 38.9011 59.2497 38.9619 59.2041H39.0227C39.1139 59.1585 39.2051 59.1129 39.3115 59.0521C39.4635 58.9609 39.6155 58.8849 39.7523 58.8089C40.3451 58.5201 40.9227 58.2161 41.4699 57.9425H41.4851C41.7283 57.8209 41.9259 57.7145 42.1387 57.6081C42.1995 57.5625 42.2755 57.5321 42.3363 57.5017C42.4275 57.4561 42.5035 57.4257 42.5795 57.3801C42.7011 57.3193 42.7923 57.2737 42.8987 57.2281C43.2027 57.0609 43.4459 56.9393 43.6435 56.8329C43.9323 56.6809 44.1147 56.5745 44.1451 56.5593C44.6163 56.0425 43.7651 55.7841 43.7651 55.7841L43.7803 55.7689ZM28.3827 52.3945C28.0635 52.1209 27.7443 51.8321 27.4403 51.5129C27.0755 51.1633 26.7259 50.7833 26.3763 50.3881C26.0875 50.0993 25.8139 49.7953 25.5555 49.4761C25.2819 49.1569 25.0235 48.8377 24.7499 48.5185C25.0843 48.8529 25.4035 49.1873 25.7379 49.5369C26.0267 49.8257 26.3155 50.1297 26.5891 50.4185C27.4403 51.3001 28.2611 52.1513 29.0363 52.9417C28.8235 52.7745 28.5955 52.5921 28.3827 52.3945Z" fill="#4D6CAB"/>
</g>
<path d="M11.6627 46.3902C11.6627 46.3902 15.0827 49.9318 18.6091 53.5798C20.3723 55.4038 22.1659 57.2582 23.5643 58.7022C24.2635 59.4318 24.8715 60.0398 25.3275 60.511C25.5555 60.739 25.7531 60.9366 25.9051 61.0886C25.9811 61.1646 26.0419 61.2254 26.1027 61.2862C26.1635 61.3318 26.1939 61.3774 26.2395 61.4078C26.3915 61.5446 26.6347 61.7574 26.9691 62.031C28.1091 63.0038 30.2219 64.7366 32.0611 66.2262C33.9003 67.7158 35.5875 69.1142 35.5875 69.1142C35.5875 69.1142 35.7547 69.099 36.2107 68.8558C36.3475 68.7798 36.4083 68.6126 36.4235 68.5062C36.4539 68.3086 36.3475 68.1718 36.1803 68.0198C36.1803 68.0198 36.0891 67.9134 35.8611 67.7462C35.0859 67.1078 33.1099 65.5118 31.2251 63.9614C30.2827 63.1862 29.3555 62.4262 28.6107 61.803C28.2307 61.499 27.9115 61.2102 27.6379 60.9974C27.3795 60.7694 27.1819 60.6022 27.0755 60.511C27.0603 60.4958 27.0147 60.4502 26.9691 60.4046C26.7715 60.2222 26.4067 59.8422 25.8899 59.3254C24.1267 57.5318 20.7827 54.0814 17.8947 51.087C16.4507 49.5822 15.1131 48.199 14.1403 47.1958C13.6539 46.6942 13.2587 46.2838 12.9851 45.995C12.7115 45.7062 12.5595 45.5542 12.5595 45.5542C12.3315 45.311 11.7387 45.3566 11.5867 45.4174C11.2827 45.539 11.4651 46.1622 11.6931 46.3902H11.6627Z" fill="#FFF6C7"/>
<path d="M11.2979 46.4051C11.2979 46.4051 14.7179 49.9467 18.2443 53.5947C20.0075 55.4187 21.8011 57.2731 23.1995 58.7171C23.8987 59.4467 24.5067 60.0547 24.9627 60.5259C25.1907 60.7539 25.3883 60.9515 25.5403 61.1035C25.6163 61.1795 25.6771 61.2403 25.7379 61.3011C25.7987 61.3467 25.8291 61.3923 25.8747 61.4227C26.0267 61.5595 26.2699 61.7723 26.6043 62.0459C27.7443 63.0187 29.8571 64.7515 31.6963 66.2411C33.5355 67.7307 35.0707 68.9923 35.0707 68.9923C35.3291 69.2051 35.7091 69.1595 35.9219 68.9011C36.1347 68.6427 36.0891 68.2627 35.8307 68.0499C35.8307 68.0499 35.7091 67.9435 35.4811 67.7611C34.7059 67.1227 32.7299 65.5267 30.8451 63.9763C29.9027 63.2011 28.9755 62.4411 28.2307 61.8179C27.8507 61.5139 27.5315 61.2251 27.2579 61.0123C26.9995 60.7843 26.8019 60.6171 26.6955 60.5259C26.6803 60.5107 26.6347 60.4651 26.5891 60.4195C26.3915 60.2371 26.0267 59.8571 25.5099 59.3403C23.7467 57.5467 20.4027 54.0963 17.5147 51.1019C16.0707 49.5971 14.7331 48.2139 13.7603 47.2107C13.2739 46.7091 12.8787 46.2987 12.6051 46.0099C12.3315 45.7211 12.1795 45.5691 12.1795 45.5691C11.9515 45.3259 11.5715 45.3259 11.3283 45.5539C11.0851 45.7819 11.0851 46.1619 11.3131 46.4051H11.2979Z" fill="#F0E39E"/>
<path d="M17.1802 51.9531L12.3163 63.0947C12.1947 63.3835 12.3162 63.7331 12.6202 63.8699C12.909 63.9915 13.2586 63.8699 13.3954 63.5659L18.2594 52.4243C18.381 52.1355 18.2594 51.7859 17.9554 51.6491C17.6666 51.5275 17.317 51.6491 17.1802 51.9531Z" fill="#FFF1A8"/>
<g style="mix-blend-mode:multiply" opacity="0.13">
<path d="M21.649 59.2342L14.4898 63.2014L13.9426 62.8822C13.9426 62.8822 21.3602 59.0214 21.3298 58.7174C21.2994 58.4286 20.965 58.2918 20.9498 58.2766L21.0866 58.2006C21.3754 58.0486 21.725 58.1398 21.877 58.4286C22.029 58.7174 21.9378 59.067 21.649 59.219V59.2342Z" fill="#6C7EA3"/>
</g>
<path d="M11.9211 63.9162C11.9211 63.9162 12.0275 63.9162 12.2099 63.9162C13.9883 63.9162 23.9595 63.7946 35.5115 61.2866C35.8307 61.2106 36.0283 60.9066 35.9523 60.5874C35.8763 60.2682 35.5723 60.0706 35.2531 60.1466C23.8227 62.6394 13.9275 62.7458 12.1947 62.7458C12.1035 62.7458 12.0427 62.7458 11.9971 62.7458C11.9819 62.7458 11.9515 62.7458 11.9515 62.7458H11.9363C11.6171 62.7458 11.3435 63.0042 11.3435 63.3234C11.3435 63.6426 11.6019 63.9162 11.9211 63.9162Z" fill="#FFF6C7"/>
<path d="M11.769 63.9768C11.769 63.9768 11.8754 63.9768 12.0578 63.9768C13.8362 63.9768 23.8074 63.8552 35.3594 61.3472C35.6786 61.2712 35.8762 60.9672 35.8002 60.648C35.7242 60.3288 35.4202 60.1312 35.101 60.2072C23.6706 62.7 13.7754 62.8064 12.0426 62.8064C11.9514 62.8064 11.8906 62.8064 11.845 62.8064C11.8298 62.8064 11.7994 62.8064 11.7994 62.8064H11.7842C11.465 62.8064 11.1914 63.0648 11.1914 63.384C11.1914 63.7032 11.4498 63.9768 11.769 63.9768Z" fill="#FFF1A8"/>
<path d="M27.6531 62.4111C27.8126 62.4111 27.9419 62.2818 27.9419 62.1223C27.9419 61.9628 27.8126 61.8335 27.6531 61.8335C27.4936 61.8335 27.3643 61.9628 27.3643 62.1223C27.3643 62.2818 27.4936 62.4111 27.6531 62.4111Z" fill="#E0CE70"/>
<path d="M17.7122 52.5156C17.8717 52.5156 18.001 52.3863 18.001 52.2268C18.001 52.0673 17.8717 51.938 17.7122 51.938C17.5527 51.938 17.4235 52.0673 17.4235 52.2268C17.4235 52.3863 17.5527 52.5156 17.7122 52.5156Z" fill="#E0CE70"/>
<path d="M12.8635 63.6728C13.023 63.6728 13.1523 63.5435 13.1523 63.384C13.1523 63.2245 13.023 63.0952 12.8635 63.0952C12.704 63.0952 12.5747 63.2245 12.5747 63.384C12.5747 63.5435 12.704 63.6728 12.8635 63.6728Z" fill="#E0CE70"/>
</svg>
