<svg width="98" height="76" viewBox="0 0 98 76" fill="none" xmlns="http://www.w3.org/2000/svg">
<path d="M97.9792 11.9016V64.0832C97.9792 65.5728 97.7056 67.0016 97.204 68.324C97.1432 68.476 97.0824 68.628 97.0216 68.7952C96.444 70.1024 95.6384 71.3184 94.6352 72.3368H94.62C92.4768 74.6016 89.4216 76 86.0776 76H11.9016C5.3352 76 0 70.6648 0 64.0832V11.9016C0 5.32 5.3352 0 11.9016 0H86.0776C92.644 0 97.9792 5.32 97.9792 11.9016Z" fill="#BDEFFF"/>
<path d="M97.9791 22.8456V47.5304C97.3407 51.68 95.7143 54.4616 91.8535 56.2856C90.1511 57.1064 88.0079 57.7144 85.3023 58.1856C85.2111 58.1856 85.1351 58.216 85.0287 58.2312C78.2039 59.3712 67.9439 59.5688 52.5615 59.3408C51.7407 59.3408 50.9199 59.3104 50.0687 59.3104C45.8431 59.2496 41.8759 59.2192 38.1671 59.2192H34.7623C33.9111 59.2192 33.0599 59.2192 32.2391 59.2192H30.0959C28.2871 59.2192 26.5543 59.2192 24.8975 59.2192H24.5175C24.0615 59.2192 23.6207 59.2192 23.1799 59.2192C23.0431 59.2192 22.9215 59.2192 22.7847 59.2192H22.6935C22.0703 59.2192 21.4775 59.2192 20.8847 59.1888C20.8543 59.1888 20.8239 59.1888 20.7935 59.1888C20.7935 59.1888 20.7834 59.1888 20.7632 59.1888C20.7632 59.1888 20.7631 59.1888 20.7327 59.1888H19.9119C19.4559 59.1888 19.0151 59.1584 18.5743 59.1584C18.4375 59.1584 18.3007 59.1584 18.1639 59.1584H18.0423H18.0119C16.7959 59.128 15.6407 59.0672 14.5615 59.0216C14.1359 58.9912 13.7255 58.976 13.3303 58.9456C5.57833 58.4136 1.12474 57.0608 0.0151367 53.58V22.9824C5.89754 27.8008 16.1423 22.7544 16.1423 22.7544C17.0543 23.4232 17.9512 23.94 18.8632 24.3504L19.3647 24.5784C19.4711 24.6088 19.5471 24.6696 19.6535 24.6848H19.6839C21.8119 25.4904 23.8487 25.6272 25.6271 25.4144C25.8095 25.4144 25.9919 25.384 26.1743 25.3384C27.9223 25.0952 29.4119 24.5176 30.5063 23.9856C30.7343 23.864 30.9471 23.7576 31.1447 23.6512C32.0263 23.1648 32.5432 22.7696 32.5432 22.7696C32.908 23.0128 33.2271 23.256 33.5919 23.4688H33.6223C34.1847 23.8032 34.7319 24.092 35.2791 24.3504C37.5895 25.4144 39.7175 25.7184 41.5719 25.612C42.8487 25.5512 43.9887 25.2928 44.9767 24.9432C45.4023 24.8064 45.7975 24.6544 46.1471 24.4872C46.4055 24.3808 46.6335 24.2592 46.8615 24.1224C47.2111 23.9552 47.5151 23.7576 47.7735 23.6056C48.0015 23.4688 48.1991 23.332 48.3511 23.2256C48.4423 23.1648 48.5183 23.104 48.5791 23.0584C48.8071 22.8912 48.9287 22.7696 48.9287 22.7696C48.9287 22.7696 54.4008 26.1592 58.7631 26.1592C64.7975 26.1592 69.6159 23.3776 69.6159 23.3776C76.7599 29.0168 81.7151 22.7696 81.7151 22.7696C87.9775 30.3392 96.6567 23.94 97.9487 22.9064L97.9791 22.8456Z" fill="#279CC4"/>
<path opacity="0.63" d="M15.8232 32.8925C15.8232 32.8925 14.3792 32.8925 13.4064 31.9805C13.4064 31.9805 12.6312 32.6493 10.9896 32.9989C10.9896 32.9989 12.6008 32.9077 13.3608 32.3757C13.7864 32.7253 14.7288 33.1357 15.8232 32.8773V32.8925Z" fill="#5BC9ED"/>
<path opacity="0.63" d="M64.0984 28.85C64.0984 28.85 62.6544 28.85 61.6816 27.938C61.6816 27.938 60.9064 28.6068 59.2648 28.9564C59.2648 28.9564 60.876 28.8652 61.636 28.3332C62.0616 28.6828 63.004 29.0932 64.0984 28.8348V28.85Z" fill="#5BC9ED"/>
<path opacity="0.63" d="M72.4128 27.6341C72.4128 27.6341 71.1816 27.6341 70.3456 26.8589C70.3456 26.8589 69.6768 27.4365 68.2784 27.7253C68.2784 27.7253 69.6616 27.6493 70.3152 27.1933C70.68 27.4973 71.4856 27.8317 72.4128 27.6341Z" fill="#5BC9ED"/>
<path opacity="0.63" d="M8.69443 29.7613C8.69443 29.7613 7.53922 29.7613 6.76402 29.0317C6.76402 29.0317 6.14082 29.5637 4.83362 29.8525C4.83362 29.8525 6.12562 29.7765 6.73362 29.3509C7.06802 29.6397 7.84322 29.9589 8.70962 29.7613H8.69443Z" fill="#5BC9ED"/>
<path opacity="0.63" d="M22.7544 27.4059C22.7544 27.4059 21.5992 27.4059 20.824 26.6763C20.824 26.6763 20.2008 27.2083 18.8936 27.4971C18.8936 27.4971 20.1856 27.4211 20.7936 26.9955C21.128 27.2843 21.9032 27.6035 22.7696 27.4059H22.7544Z" fill="#5BC9ED"/>
<path opacity="0.63" d="M15.6408 26.7524C15.6408 26.7524 14.5616 26.7524 13.832 26.0684C13.832 26.0684 13.2544 26.57 12.0232 26.8284C12.0232 26.8284 13.224 26.7524 13.8016 26.3724C14.1208 26.646 14.8352 26.9348 15.6408 26.7524Z" fill="#5BC9ED"/>
<path opacity="0.63" d="M24.5176 32.224C24.5176 32.224 23.18 32.224 22.268 31.6616C22.268 31.6616 21.5384 32.072 20.0184 32.3C20.0184 32.3 21.5232 32.2392 22.2224 31.92C22.6176 32.148 23.4992 32.3912 24.5176 32.2392V32.224Z" fill="#00698C"/>
<path opacity="0.63" d="M5.83677 26.6608C5.83677 26.6608 4.89438 26.6608 4.25598 26.2656C4.25598 26.2656 3.73917 26.5544 2.67517 26.7064C2.67517 26.7064 3.72398 26.6608 4.22558 26.4328C4.49918 26.5848 5.12237 26.7672 5.83677 26.6608Z" fill="#00698C"/>
<path opacity="0.63" d="M58.2464 27.588C58.2464 27.588 57.0304 27.588 56.2248 27.0864C56.2248 27.0864 55.5712 27.4664 54.2032 27.6488C54.2032 27.6488 55.556 27.588 56.1944 27.2992C56.544 27.4968 57.3496 27.7248 58.2616 27.588H58.2464Z" fill="#00698C"/>
<path opacity="0.63" d="M4.05834 32.2091C4.05834 32.2091 2.84234 32.2091 2.03674 31.7075C2.03674 31.7075 1.38314 32.0875 0.0151367 32.2699C0.0151367 32.2699 1.36793 32.2091 2.00633 31.9203C2.35593 32.1179 3.16153 32.3459 4.07353 32.2091H4.05834Z" fill="#00698C"/>
<path opacity="0.63" d="M95.912 32.8314C95.912 32.8314 94.468 32.8314 93.4952 31.9194C93.4952 31.9194 92.72 32.5882 91.0784 32.9378C91.0784 32.9378 92.6896 32.8466 93.4496 32.3146C93.8752 32.6642 94.8176 33.0746 95.912 32.8162V32.8314Z" fill="#5BC9ED"/>
<path opacity="0.63" d="M89.3608 31.1144C89.3608 31.1144 88.2056 31.1144 87.4304 30.3848C87.4304 30.3848 86.8072 30.9168 85.5 31.2056C85.5 31.2056 86.792 31.1296 87.4 30.704C87.7344 30.9928 88.5096 31.312 89.376 31.1144H89.3608Z" fill="#5BC9ED"/>
<path opacity="0.63" d="M64.9344 32.2846C64.9344 32.2846 63.8552 32.2846 63.1256 31.6006C63.1256 31.6006 62.548 32.1022 61.3168 32.3606C61.3168 32.3606 62.5176 32.2846 63.0952 31.9046C63.4144 32.1782 64.1288 32.467 64.9344 32.2846Z" fill="#5BC9ED"/>
<path opacity="0.63" d="M82.3384 28.9558C82.3384 28.9558 81.3048 28.9558 80.6056 28.3022C80.6056 28.3022 80.0432 28.7887 78.8728 29.0319C78.8728 29.0319 80.028 28.9558 80.5752 28.591C80.8792 28.8494 81.5632 29.1382 82.3384 28.9558Z" fill="#00698C"/>
<path opacity="0.63" d="M76.912 31.8436C76.912 31.8436 75.5744 31.8437 74.6624 31.2812C74.6624 31.2812 73.9328 31.6916 72.4128 31.9196C72.4128 31.9196 73.9176 31.8588 74.6168 31.5396C75.012 31.7676 75.8936 32.0108 76.912 31.8588V31.8436Z" fill="#00698C"/>
<path opacity="0.63" d="M97.6904 28.1657C97.6904 28.1657 96.4744 28.1657 95.6688 27.6641C95.6688 27.6641 95.0152 28.0441 93.6472 28.2265C93.6472 28.2265 95 28.1657 95.6384 27.8769C95.988 28.0745 96.7936 28.3025 97.7056 28.1657H97.6904Z" fill="#00698C"/>
<path d="M97.9792 31.251V61.9701C96.5808 66.0589 90.5008 67.1685 79.8152 67.4421C79.648 67.4421 79.4656 67.4421 79.2984 67.4421C74.2216 67.5637 68.1416 67.5182 61.0584 67.5182C57.0152 67.5182 52.6376 67.5485 47.9408 67.6093C47.7584 67.6093 47.5608 67.6093 47.3784 67.6093C42.8336 67.6853 38.7296 67.7158 35.0056 67.7006H34.6104C34.0784 67.7006 33.5616 67.7006 33.06 67.7006H32.68C31.2512 67.7006 29.8832 67.6702 28.576 67.655H28.2568C27.4968 67.6246 26.7368 67.6246 26.0224 67.5942H25.8248C24.9432 67.5638 24.1072 67.5334 23.3016 67.4878C23.1192 67.4878 22.9368 67.4878 22.7544 67.4574C16.8416 67.1838 12.4336 66.6366 9.1352 65.679C6.08 64.7974 3.98241 63.5814 2.58401 61.9246C2.38641 61.6966 2.20401 61.4686 2.02161 61.2406C0.957615 59.7358 0.349595 57.8965 0.0303955 55.6621V31.2814C0.273595 31.4638 0.638406 31.7374 1.10961 32.0414C1.15521 32.0718 1.2008 32.087 1.2464 32.1326C3.9216 33.8198 9.59121 36.4949 14.3944 32.8621C14.4856 32.8165 14.5616 32.7558 14.6224 32.6646C15.1848 32.2238 15.7472 31.6766 16.2792 31.0382C16.2792 31.0382 21.0976 37.0878 28.044 31.9198C28.1656 31.8286 28.272 31.7374 28.3936 31.6462C28.3936 31.6462 30.5672 32.8926 33.8048 33.7134C35.4008 34.139 37.2552 34.4278 39.2464 34.4278C39.8088 34.4278 40.4168 34.367 41.0096 34.2606C41.3744 34.1998 41.724 34.1238 42.0888 34.0326C42.5904 33.911 43.1072 33.759 43.5936 33.607C44.6272 33.2422 45.6152 32.8317 46.4512 32.4365C46.9224 32.2085 47.3328 32.011 47.6976 31.8134C48.564 31.3726 49.096 31.0382 49.096 31.0382C49.096 31.0382 49.932 31.7982 51.4216 32.5278C51.8168 32.7254 52.2424 32.923 52.744 33.0902C53.6408 33.4246 54.6744 33.7134 55.8448 33.8198C56.8024 33.9262 57.8512 33.911 58.9608 33.759C59.2496 33.7286 59.5232 33.6678 59.812 33.5918C61.028 33.3334 62.2896 32.8926 63.6272 32.1782C63.7184 32.1326 63.7944 32.087 63.8856 32.0414C64.4176 31.7526 64.9496 31.4181 65.4968 31.0229C65.4968 31.0229 73.4312 37.2093 81.8976 31.0229C81.8976 31.0229 89.0872 34.595 94.8784 32.8774C95.0152 32.847 95.1216 32.8014 95.2584 32.7406H95.2888C96.2464 32.4214 97.1736 31.9197 98.0096 31.2357L97.9792 31.251Z" fill="#2592B8"/>
<path opacity="0.63" d="M43.2744 38.6387C43.2744 38.6387 45.1592 38.6387 46.436 37.4531C46.436 37.4531 47.4544 38.3347 49.5976 38.7907C49.5976 38.7907 47.4848 38.6691 46.4968 37.9851C45.9496 38.4563 44.7032 38.9731 43.2896 38.6539L43.2744 38.6387Z" fill="#5BC9ED"/>
<path opacity="0.63" d="M15.9448 38.3497C15.9448 38.3497 17.8296 38.3497 19.1064 37.1641C19.1064 37.1641 20.1248 38.0457 22.268 38.5017C22.268 38.5017 20.1552 38.3801 19.1672 37.6961C18.62 38.1673 17.3736 38.6841 15.96 38.3649L15.9448 38.3497Z" fill="#5BC9ED"/>
<path opacity="0.63" d="M2.37122 37.3314C2.37122 37.3314 3.98241 37.3314 5.07681 36.313C5.07681 36.313 5.94321 37.0578 7.78241 37.453C7.78241 37.453 5.97361 37.3466 5.12241 36.7538C4.65121 37.149 3.58722 37.605 2.37122 37.3314Z" fill="#5BC9ED"/>
<path opacity="0.63" d="M88.4336 39.5348C88.4336 39.5348 89.9536 39.5347 90.972 38.5771C90.972 38.5771 91.7928 39.2764 93.5104 39.6412C93.5104 39.6412 91.8232 39.5348 91.0176 38.9876C90.5768 39.3676 89.5736 39.778 88.4336 39.5196V39.5348Z" fill="#5BC9ED"/>
<path opacity="0.63" d="M68.9167 36.4498C68.9167 36.4498 70.4367 36.4498 71.4551 35.4922C71.4551 35.4922 72.2759 36.1914 73.9935 36.5562C73.9935 36.5562 72.3063 36.4498 71.5007 35.9026C71.0599 36.2826 70.0567 36.693 68.9167 36.4346V36.4498Z" fill="#5BC9ED"/>
<path opacity="0.63" d="M79.344 35.5985C79.344 35.5985 80.7577 35.5985 81.7001 34.7017C81.7001 34.7017 82.4601 35.3553 84.0561 35.7049C84.0561 35.7049 82.4752 35.6137 81.7304 35.0969C81.32 35.4465 80.3777 35.8417 79.3289 35.5985H79.344Z" fill="#5BC9ED"/>
<path opacity="0.63" d="M55.0088 35.8722C55.0088 35.8722 56.3768 35.8722 57.2888 35.021C57.2888 35.021 58.0184 35.6594 59.5688 35.9786C59.5688 35.9786 58.0488 35.8874 57.3344 35.401C56.9392 35.7354 56.0424 36.1154 55.024 35.8874L55.0088 35.8722Z" fill="#00698C"/>
<path opacity="0.63" d="M63.1408 39.3834C63.1408 39.3834 64.904 39.3834 66.0744 38.6538C66.0744 38.6538 67.0168 39.201 69.008 39.4746C69.008 39.4746 67.0472 39.3986 66.12 38.973C65.6032 39.2618 64.448 39.581 63.1256 39.3834H63.1408Z" fill="#00698C"/>
<path opacity="0.63" d="M92.1729 35.4768C92.1729 35.4768 93.4041 35.4768 94.2401 34.96C94.2401 34.96 94.9089 35.34 96.3073 35.5376C96.3073 35.5376 94.924 35.4768 94.2704 35.188C93.9056 35.3856 93.1001 35.6136 92.1729 35.4768Z" fill="#00698C"/>
<path opacity="0.63" d="M23.6056 36.7079C23.6056 36.7079 25.1864 36.7079 26.2504 36.0391C26.2504 36.0391 27.1016 36.5255 28.8952 36.7839C28.8952 36.7839 27.132 36.7079 26.296 36.3279C25.84 36.5863 24.7912 36.8751 23.6056 36.6927V36.7079Z" fill="#00698C"/>
<path opacity="0.63" d="M37.4833 36.328C37.4833 36.328 39.0641 36.328 40.1281 35.6592C40.1281 35.6592 40.9793 36.1456 42.7729 36.404C42.7729 36.404 41.0097 36.328 40.1737 35.948C39.7177 36.2064 38.6689 36.4952 37.4833 36.3128V36.328Z" fill="#00698C"/>
<path d="M97.9792 43.6237V64.0829C97.9792 65.5725 97.7056 67.0013 97.204 68.3237C97.1432 68.4757 97.0824 68.6278 97.0216 68.795C96.444 70.1022 95.6384 71.3181 94.6352 72.3365H94.62C90.592 74.2365 83.2504 74.5405 72.6256 74.5557C70.4672 74.5557 68.2328 74.5557 65.9072 74.5557C60.5568 74.5557 54.5984 74.5557 47.9408 74.6469C44.3688 74.6925 41.04 74.7381 37.9392 74.7381C8.57279 74.6621 1.4744 72.215 0 62.4413V42.2861C1.1704 42.8637 5.15278 44.3229 9.15038 40.2189C9.15038 40.2189 9.16559 40.1885 9.18079 40.1885C9.74319 39.5957 10.336 38.8965 10.8984 38.0605C10.8984 38.0605 13.4216 40.9029 17.2824 42.4077L17.8752 42.6357H17.8904C18.0728 42.6965 18.2704 42.7573 18.4528 42.8181C18.6048 42.8637 18.772 42.9093 18.924 42.9397C19.1976 43.0157 19.4864 43.0765 19.7752 43.1373C19.988 43.1829 20.216 43.2133 20.444 43.2285H20.4592C20.596 43.2589 20.748 43.2741 20.8848 43.2893C23.9552 43.5781 27.4664 42.7117 31.084 39.4133C31.084 39.4133 31.9048 40.2037 33.44 41.0853C33.8048 41.3133 34.2152 41.5261 34.6712 41.7389C34.7776 41.7997 34.884 41.8605 35.0056 41.9061C35.5072 42.1493 36.0544 42.3773 36.6624 42.5901C36.8752 42.6661 37.1184 42.7421 37.3464 42.8181C37.544 42.8789 37.772 42.9549 37.9848 43.0157C38.0608 43.0309 38.1368 43.0613 38.2128 43.0765C39.14 43.3197 40.1432 43.5021 41.2224 43.6085C43.7912 43.8517 46.8008 43.6085 50.1448 42.4229C50.2968 42.3621 50.4336 42.3165 50.5856 42.2557C50.7376 42.2101 50.8744 42.1493 51.0264 42.0885H51.0416C51.148 42.0429 51.2392 42.0125 51.3456 41.9517C52.5464 41.4653 53.7776 40.8725 55.0544 40.1125C55.5256 39.8541 56.012 39.5501 56.4984 39.2309C56.4984 39.2309 56.7264 39.5349 57.1976 40.0213C57.5624 40.4165 58.0792 40.9333 58.7328 41.4805C58.748 41.4805 58.7784 41.5109 58.7936 41.5413C59.9488 42.4837 61.4992 43.5477 63.3536 44.2469H63.4296C67.4576 45.7973 72.884 45.6301 78.9336 39.4133C78.9336 39.4133 86.4728 48.2445 97.9792 43.6085V43.6237Z" fill="#0080AB"/>
<path d="M19.6536 48.2596C19.6536 48.2596 22.572 48.2444 24.5176 46.4204C24.5176 46.4204 26.0832 47.7732 29.3816 48.4724C29.3816 48.4724 26.1288 48.2748 24.6088 47.226C23.7576 47.9404 21.8424 48.746 19.6536 48.2444V48.2596Z" fill="#5BC9ED"/>
<path d="M46.1168 51.4059C46.1168 51.4059 48.6096 51.4059 50.2816 49.8403C50.2816 49.8403 51.6192 50.9955 54.4464 51.6035C54.4464 51.6035 51.6648 51.4363 50.3576 50.5395C49.628 51.1627 47.9864 51.8467 46.1168 51.4211V51.4059Z" fill="#5BC9ED"/>
<path d="M79.0096 54.5983C79.0096 54.5983 82.0344 54.5831 84.0712 52.6831C84.0712 52.6831 85.7128 54.0967 89.1328 54.8263C89.1328 54.8263 85.7432 54.6287 84.1624 53.5343C83.2808 54.2791 81.2744 55.1151 79.0096 54.5983Z" fill="#5BC9ED"/>
<path d="M53.5801 46.1621C53.5801 46.1621 55.9969 46.1621 57.6233 44.6421C57.6233 44.6421 58.9305 45.7669 61.6665 46.3445C61.6665 46.3445 58.9609 46.1773 57.6993 45.3109C57.0001 45.9037 55.4041 46.5725 53.5953 46.1621H53.5801Z" fill="#5BC9ED"/>
<path d="M35.5984 47.2716C35.5984 47.2716 38.0456 47.2716 39.7024 45.7212C39.7024 45.7212 41.0248 46.8612 43.8064 47.454C43.8064 47.454 41.0704 47.2868 39.7784 46.4052C39.064 47.0132 37.4376 47.682 35.5984 47.2716Z" fill="#00698C"/>
<path d="M63.1407 51.2088C63.1407 51.2088 65.8463 51.2088 67.6551 50.084C67.6551 50.084 69.1144 50.92 72.1696 51.3456C72.1696 51.3456 69.1599 51.224 67.7463 50.5704C66.9559 51.0112 65.1776 51.5128 63.156 51.2088H63.1407Z" fill="#00698C"/>
<path d="M76.8664 46.147C76.8664 46.147 79.1008 46.147 80.6056 45.2046C80.6056 45.2046 81.8064 45.9038 84.3448 46.2534C84.3448 46.2534 81.852 46.147 80.6664 45.615C80.0128 45.9798 78.5384 46.3902 76.8512 46.1318L76.8664 46.147Z" fill="#00698C"/>
<path d="M9.78882 45.1592C9.78882 45.1592 11.4912 45.1592 12.6312 44.4448C12.6312 44.4448 13.5432 44.9768 15.4736 45.2352C15.4736 45.2352 13.5736 45.1592 12.6768 44.7488C12.1752 45.0224 11.0504 45.3416 9.78882 45.144V45.1592Z" fill="#00698C"/>
<path d="M88.1144 50.5093C88.1144 50.5093 90.5464 50.5093 92.188 48.9741C92.188 48.9741 93.4952 50.0989 96.2616 50.6917C96.2616 50.6917 93.5408 50.5245 92.264 49.6429C91.5496 50.2509 89.9384 50.9197 88.1144 50.4941V50.5093Z" fill="#5BC9ED"/>
<path d="M97.9792 56.3312V64.0832C97.9792 65.5728 97.7056 67.0016 97.204 68.324C97.1432 68.476 97.0824 68.628 97.0216 68.7952C96.444 70.1024 95.6384 71.3184 94.6352 72.3368H94.62C92.4768 74.6016 89.4216 76 86.0776 76H11.9016C5.3352 76 0 70.6648 0 64.0832V46.5576C2.8728 47.0288 7.144 47.728 12.4488 48.5184C12.464 48.5184 12.4944 48.5336 12.5096 48.5336C12.6464 48.5336 12.7984 48.564 12.9504 48.5944C13.3912 48.6552 13.8472 48.7312 14.3184 48.792C14.3792 48.792 14.4096 48.8072 14.4704 48.8224H14.4856C14.6224 48.8528 14.7744 48.8528 14.9264 48.8832C14.9416 48.8832 14.9872 48.8984 15.0176 48.8984C15.124 48.9136 15.2304 48.9288 15.3368 48.944C15.9752 49.0504 16.6288 49.1264 17.2976 49.248H17.3128C17.5408 49.2632 17.784 49.3088 18.0272 49.3392C18.8024 49.4456 19.5928 49.5672 20.3984 49.6736C20.6264 49.704 20.8696 49.7496 21.1128 49.78H21.128C21.6904 49.856 22.268 49.932 22.8456 50.0232C23.0736 50.0536 23.3168 50.084 23.5752 50.1144L25.536 50.388C25.612 50.4032 25.6728 50.4032 25.7488 50.4184C25.9008 50.4336 26.0376 50.4488 26.1896 50.4792C26.6608 50.54 27.1472 50.616 27.6488 50.6768C27.7704 50.692 27.9072 50.7072 28.0592 50.7376H28.0744C29.8984 50.9656 31.768 51.2088 33.6832 51.4672C34.0024 51.4976 34.3064 51.5432 34.6104 51.5736C43.5784 52.6984 53.4432 53.7928 63.3992 54.6592C63.7336 54.6896 64.068 54.72 64.4024 54.7352C64.5544 54.7504 64.7064 54.7656 64.8736 54.7808H64.8888C65.4512 54.8264 66.0288 54.872 66.6064 54.9176H66.6216C66.6216 54.9176 66.652 54.9328 66.6824 54.9328C66.7888 54.9328 66.8952 54.948 67.0168 54.948C67.412 54.9936 67.8072 55.024 68.2024 55.0392C68.3088 55.0544 68.4152 55.0696 68.5368 55.0696H68.5672C69.464 55.1456 70.3608 55.2064 71.2728 55.2824C71.8504 55.3128 72.4432 55.3584 73.0208 55.404C73.6592 55.4496 74.3128 55.48 74.9512 55.5256C75.2096 55.5408 75.4528 55.556 75.696 55.5712C76.2432 55.6016 76.7752 55.6472 77.3072 55.6776C77.444 55.6776 77.5656 55.6928 77.6872 55.6928C77.7024 55.6928 77.7176 55.6928 77.7328 55.708C77.9608 55.708 78.1888 55.7232 78.4168 55.7384C78.584 55.7384 78.7512 55.7536 78.9184 55.7688C79.04 55.7688 79.1616 55.784 79.2832 55.784C79.5872 55.7992 79.876 55.8144 80.1648 55.8296C80.2104 55.8296 80.2408 55.8296 80.2712 55.8448C81.168 55.8904 82.0648 55.9208 82.9464 55.9664C83.3872 55.9816 83.8128 56.012 84.2536 56.012C86.8224 56.1336 89.3608 56.2248 91.8536 56.2704C93.936 56.316 95.9728 56.3312 97.9792 56.3312Z" fill="#EBE196"/>
<path d="M5.88234 56.9241C6.15937 56.9241 6.38394 56.6995 6.38394 56.4225C6.38394 56.1455 6.15937 55.9209 5.88234 55.9209C5.60531 55.9209 5.38074 56.1455 5.38074 56.4225C5.38074 56.6995 5.60531 56.9241 5.88234 56.9241Z" fill="#E0D686"/>
<path d="M10.4575 60.4051C10.6422 60.4051 10.7919 60.2554 10.7919 60.0707C10.7919 59.886 10.6422 59.7363 10.4575 59.7363C10.2729 59.7363 10.1232 59.886 10.1232 60.0707C10.1232 60.2554 10.2729 60.4051 10.4575 60.4051Z" fill="#E0D686"/>
<path d="M21.1584 52.6534C21.2927 52.6534 21.4016 52.5445 21.4016 52.4102C21.4016 52.2759 21.2927 52.167 21.1584 52.167C21.0241 52.167 20.9152 52.2759 20.9152 52.4102C20.9152 52.5445 21.0241 52.6534 21.1584 52.6534Z" fill="#E0D686"/>
<path d="M9.68241 56.4986C9.81673 56.4986 9.92562 56.3897 9.92562 56.2554C9.92562 56.1211 9.81673 56.0122 9.68241 56.0122C9.5481 56.0122 9.43921 56.1211 9.43921 56.2554C9.43921 56.3897 9.5481 56.4986 9.68241 56.4986Z" fill="#E0D686"/>
<path d="M13.8168 58.1858C14.0266 58.1858 14.1968 58.0156 14.1968 57.8058C14.1968 57.5959 14.0266 57.4258 13.8168 57.4258C13.6069 57.4258 13.4368 57.5959 13.4368 57.8058C13.4368 58.0156 13.6069 58.1858 13.8168 58.1858Z" fill="#E0D686"/>
<path d="M14.5464 52.7893C14.7563 52.7893 14.9264 52.6192 14.9264 52.4093C14.9264 52.1994 14.7563 52.0293 14.5464 52.0293C14.3365 52.0293 14.1664 52.1994 14.1664 52.4093C14.1664 52.6192 14.3365 52.7893 14.5464 52.7893Z" fill="#E0D686"/>
<path d="M9.54558 52.3646C9.69669 52.3646 9.81917 52.2421 9.81917 52.091C9.81917 51.9399 9.69669 51.8174 9.54558 51.8174C9.39448 51.8174 9.27197 51.9399 9.27197 52.091C9.27197 52.2421 9.39448 52.3646 9.54558 52.3646Z" fill="#E0D686"/>
<path d="M12.2512 55.4196C12.3603 55.4196 12.4488 55.3312 12.4488 55.222C12.4488 55.1129 12.3603 55.0244 12.2512 55.0244C12.1421 55.0244 12.0536 55.1129 12.0536 55.222C12.0536 55.3312 12.1421 55.4196 12.2512 55.4196Z" fill="#E0D686"/>
<path d="M18.1184 59.1126C18.3955 59.1126 18.62 58.888 18.62 58.611C18.62 58.334 18.3955 58.1094 18.1184 58.1094C17.8414 58.1094 17.6168 58.334 17.6168 58.611C17.6168 58.888 17.8414 59.1126 18.1184 59.1126Z" fill="#E0D686"/>
<path d="M21.9184 58.6871C22.0527 58.6871 22.1616 58.5782 22.1616 58.4439C22.1616 58.3096 22.0527 58.2007 21.9184 58.2007C21.7841 58.2007 21.6752 58.3096 21.6752 58.4439C21.6752 58.5782 21.7841 58.6871 21.9184 58.6871Z" fill="#E0D686"/>
<path d="M24.4872 57.6081C24.5963 57.6081 24.6847 57.5196 24.6847 57.4105C24.6847 57.3014 24.5963 57.2129 24.4872 57.2129C24.378 57.2129 24.2896 57.3014 24.2896 57.4105C24.2896 57.5196 24.378 57.6081 24.4872 57.6081Z" fill="#E0D686"/>
<path d="M17.5104 62.7005C17.7874 62.7005 18.012 62.4759 18.012 62.1989C18.012 61.9218 17.7874 61.6973 17.5104 61.6973C17.2333 61.6973 17.0088 61.9218 17.0088 62.1989C17.0088 62.4759 17.2333 62.7005 17.5104 62.7005Z" fill="#E0D686"/>
<path d="M13.9688 61.6366C14.1535 61.6366 14.3032 61.4869 14.3032 61.3022C14.3032 61.1175 14.1535 60.9678 13.9688 60.9678C13.7841 60.9678 13.6344 61.1175 13.6344 61.3022C13.6344 61.4869 13.7841 61.6366 13.9688 61.6366Z" fill="#E0D686"/>
<path d="M16.2184 67.7315C16.3527 67.7315 16.4616 67.6226 16.4616 67.4883C16.4616 67.354 16.3527 67.2451 16.2184 67.2451C16.0841 67.2451 15.9752 67.354 15.9752 67.4883C15.9752 67.6226 16.0841 67.7315 16.2184 67.7315Z" fill="#E0D686"/>
<path d="M10.4424 69.4338C10.6522 69.4338 10.8224 69.2637 10.8224 69.0538C10.8224 68.844 10.6522 68.6738 10.4424 68.6738C10.2325 68.6738 10.0624 68.844 10.0624 69.0538C10.0624 69.2637 10.2325 69.4338 10.4424 69.4338Z" fill="#E0D686"/>
<path d="M4.43841 68.1566C4.58951 68.1566 4.712 68.0341 4.712 67.883C4.712 67.7319 4.58951 67.6094 4.43841 67.6094C4.2873 67.6094 4.16479 67.7319 4.16479 67.883C4.16479 68.0341 4.2873 68.1566 4.43841 68.1566Z" fill="#E0D686"/>
<path d="M13.3912 69.9352C13.5003 69.9352 13.5888 69.8468 13.5888 69.7376C13.5888 69.6285 13.5003 69.54 13.3912 69.54C13.2821 69.54 13.1936 69.6285 13.1936 69.7376C13.1936 69.8468 13.2821 69.9352 13.3912 69.9352Z" fill="#E0D686"/>
<path d="M18.7416 55.3587C19.0186 55.3587 19.2432 55.1341 19.2432 54.8571C19.2432 54.58 19.0186 54.3555 18.7416 54.3555C18.4646 54.3555 18.24 54.58 18.24 54.8571C18.24 55.1341 18.4646 55.3587 18.7416 55.3587Z" fill="#E0D686"/>
<path d="M20.3528 65.9376C20.4871 65.9376 20.596 65.8287 20.596 65.6944C20.596 65.5601 20.4871 65.4512 20.3528 65.4512C20.2185 65.4512 20.1096 65.5601 20.1096 65.6944C20.1096 65.8287 20.2185 65.9376 20.3528 65.9376Z" fill="#E0D686"/>
<path d="M21.5384 56.4835C21.6727 56.4835 21.7816 56.3746 21.7816 56.2403C21.7816 56.106 21.6727 55.9971 21.5384 55.9971C21.4041 55.9971 21.2952 56.106 21.2952 56.2403C21.2952 56.3746 21.4041 56.4835 21.5384 56.4835Z" fill="#E0D686"/>
<path d="M25.6727 60.633C25.8826 60.633 26.0527 60.4629 26.0527 60.253C26.0527 60.0432 25.8826 59.873 25.6727 59.873C25.4629 59.873 25.2927 60.0432 25.2927 60.253C25.2927 60.4629 25.4629 60.633 25.6727 60.633Z" fill="#E0D686"/>
<path d="M23.6208 60.0096C23.7719 60.0096 23.8944 59.8871 23.8944 59.736C23.8944 59.5849 23.7719 59.4624 23.6208 59.4624C23.4697 59.4624 23.3472 59.5849 23.3472 59.736C23.3472 59.8871 23.4697 60.0096 23.6208 60.0096Z" fill="#E0D686"/>
<path d="M24.1072 55.404C24.2163 55.404 24.3047 55.3155 24.3047 55.2064C24.3047 55.0973 24.2163 55.0088 24.1072 55.0088C23.998 55.0088 23.9095 55.0973 23.9095 55.2064C23.9095 55.3155 23.998 55.404 24.1072 55.404Z" fill="#E0D686"/>
<path d="M28.2112 62.2137C28.4882 62.2137 28.7128 61.9891 28.7128 61.7121C28.7128 61.435 28.4882 61.2104 28.2112 61.2104C27.9342 61.2104 27.7096 61.435 27.7096 61.7121C27.7096 61.9891 27.9342 62.2137 28.2112 62.2137Z" fill="#E0D686"/>
<path d="M23.8488 62.6392C23.9831 62.6392 24.092 62.5303 24.092 62.396C24.092 62.2617 23.9831 62.1528 23.8488 62.1528C23.7145 62.1528 23.6056 62.2617 23.6056 62.396C23.6056 62.5303 23.7145 62.6392 23.8488 62.6392Z" fill="#E0D686"/>
<path d="M25.9159 67.6246C26.0503 67.6246 26.1591 67.5157 26.1591 67.3814C26.1591 67.2471 26.0503 67.1382 25.9159 67.1382C25.7816 67.1382 25.6727 67.2471 25.6727 67.3814C25.6727 67.5157 25.7816 67.6246 25.9159 67.6246Z" fill="#E0D686"/>
<path d="M19.9728 69.5095C20.1826 69.5095 20.3528 69.3394 20.3528 69.1295C20.3528 68.9196 20.1826 68.7495 19.9728 68.7495C19.7629 68.7495 19.5928 68.9196 19.5928 69.1295C19.5928 69.3394 19.7629 69.5095 19.9728 69.5095Z" fill="#E0D686"/>
<path d="M22.9976 67.762C23.1487 67.762 23.2712 67.6395 23.2712 67.4884C23.2712 67.3373 23.1487 67.2148 22.9976 67.2148C22.8465 67.2148 22.724 67.3373 22.724 67.4884C22.724 67.6395 22.8465 67.762 22.9976 67.762Z" fill="#E0D686"/>
<path d="M22.3592 71.6682C22.4683 71.6682 22.5568 71.5797 22.5568 71.4705C22.5568 71.3614 22.4683 71.2729 22.3592 71.2729C22.2501 71.2729 22.1616 71.3614 22.1616 71.4705C22.1616 71.5797 22.2501 71.6682 22.3592 71.6682Z" fill="#E0D686"/>
<path d="M29.1991 57.1067C29.4761 57.1067 29.7007 56.8821 29.7007 56.6051C29.7007 56.3281 29.4761 56.1035 29.1991 56.1035C28.9221 56.1035 28.6975 56.3281 28.6975 56.6051C28.6975 56.8821 28.9221 57.1067 29.1991 57.1067Z" fill="#E0D686"/>
<path d="M32.756 61.94C32.8903 61.94 32.9992 61.8311 32.9992 61.6968C32.9992 61.5625 32.8903 61.4536 32.756 61.4536C32.6217 61.4536 32.5128 61.5625 32.5128 61.6968C32.5128 61.8311 32.6217 61.94 32.756 61.94Z" fill="#E0D686"/>
<path d="M32.9992 56.6812C33.1335 56.6812 33.2424 56.5723 33.2424 56.438C33.2424 56.3037 33.1335 56.1948 32.9992 56.1948C32.8648 56.1948 32.756 56.3037 32.756 56.438C32.756 56.5723 32.8648 56.6812 32.9992 56.6812Z" fill="#E0D686"/>
<path d="M38.8967 61.5754C39.1066 61.5754 39.2767 61.4053 39.2767 61.1954C39.2767 60.9856 39.1066 60.8154 38.8967 60.8154C38.6869 60.8154 38.5167 60.9856 38.5167 61.1954C38.5167 61.4053 38.6869 61.5754 38.8967 61.5754Z" fill="#E0D686"/>
<path d="M35.0816 60.2069C35.2327 60.2069 35.3552 60.0844 35.3552 59.9333C35.3552 59.7822 35.2327 59.6597 35.0816 59.6597C34.9305 59.6597 34.808 59.7822 34.808 59.9333C34.808 60.0844 34.9305 60.2069 35.0816 60.2069Z" fill="#E0D686"/>
<path d="M35.568 55.6017C35.6771 55.6017 35.7656 55.5133 35.7656 55.4041C35.7656 55.295 35.6771 55.2065 35.568 55.2065C35.4588 55.2065 35.3704 55.295 35.3704 55.4041C35.3704 55.5133 35.4588 55.6017 35.568 55.6017Z" fill="#E0D686"/>
<path d="M41.0399 58.1101C41.317 58.1101 41.5415 57.8856 41.5415 57.6085C41.5415 57.3315 41.317 57.1069 41.0399 57.1069C40.7629 57.1069 40.5383 57.3315 40.5383 57.6085C40.5383 57.8856 40.7629 58.1101 41.0399 58.1101Z" fill="#E0D686"/>
<path d="M34.6104 65.2237C34.7447 65.2237 34.8536 65.1148 34.8536 64.9805C34.8536 64.8462 34.7447 64.7373 34.6104 64.7373C34.4761 64.7373 34.3672 64.8462 34.3672 64.9805C34.3672 65.1148 34.4761 65.2237 34.6104 65.2237Z" fill="#E0D686"/>
<path d="M36.4344 67.3663C36.5687 67.3663 36.6776 67.2574 36.6776 67.1231C36.6776 66.9888 36.5687 66.8799 36.4344 66.8799C36.3001 66.8799 36.1912 66.9888 36.1912 67.1231C36.1912 67.2574 36.3001 67.3663 36.4344 67.3663Z" fill="#E0D686"/>
<path d="M50.0232 61.8791C50.2331 61.8791 50.4032 61.709 50.4032 61.4991C50.4032 61.2893 50.2331 61.1191 50.0232 61.1191C49.8133 61.1191 49.6432 61.2893 49.6432 61.4991C49.6432 61.709 49.8133 61.8791 50.0232 61.8791Z" fill="#E0D686"/>
<path d="M51.8319 60.6634C51.983 60.6634 52.1056 60.5409 52.1056 60.3898C52.1056 60.2387 51.983 60.1162 51.8319 60.1162C51.6808 60.1162 51.5583 60.2387 51.5583 60.3898C51.5583 60.5409 51.6808 60.6634 51.8319 60.6634Z" fill="#E0D686"/>
<path d="M42.6968 67.0171C42.8898 67.0171 43.0464 66.8606 43.0464 66.6675C43.0464 66.4744 42.8898 66.3179 42.6968 66.3179C42.5037 66.3179 42.3472 66.4744 42.3472 66.6675C42.3472 66.8606 42.5037 67.0171 42.6968 67.0171Z" fill="#E0D686"/>
<path d="M38.6536 68.9778C38.9306 68.9778 39.1552 68.7532 39.1552 68.4762C39.1552 68.1992 38.9306 67.9746 38.6536 67.9746C38.3766 67.9746 38.152 68.1992 38.152 68.4762C38.152 68.7532 38.3766 68.9778 38.6536 68.9778Z" fill="#E0D686"/>
<path d="M28.1504 54.6746C28.4274 54.6746 28.652 54.45 28.652 54.173C28.652 53.896 28.4274 53.6714 28.1504 53.6714C27.8734 53.6714 27.6488 53.896 27.6488 54.173C27.6488 54.45 27.8734 54.6746 28.1504 54.6746Z" fill="#E0D686"/>
<path d="M39.9607 73.3707C40.0951 73.3707 40.2039 73.2618 40.2039 73.1275C40.2039 72.9932 40.0951 72.8843 39.9607 72.8843C39.8264 72.8843 39.7175 72.9932 39.7175 73.1275C39.7175 73.2618 39.8264 73.3707 39.9607 73.3707Z" fill="#E0D686"/>
<path d="M36.8752 71.835C37.0095 71.835 37.1184 71.7261 37.1184 71.5918C37.1184 71.4575 37.0095 71.3486 36.8752 71.3486C36.7408 71.3486 36.632 71.4575 36.632 71.5918C36.632 71.7261 36.7408 71.835 36.8752 71.835Z" fill="#E0D686"/>
<path d="M32.1632 73.7659C32.3731 73.7659 32.5432 73.5957 32.5432 73.3859C32.5432 73.176 32.3731 73.0059 32.1632 73.0059C31.9533 73.0059 31.7832 73.176 31.7832 73.3859C31.7832 73.5957 31.9533 73.7659 32.1632 73.7659Z" fill="#E0D686"/>
<path d="M34.6408 72.4886C34.7919 72.4886 34.9144 72.3661 34.9144 72.215C34.9144 72.0639 34.7919 71.9414 34.6408 71.9414C34.4897 71.9414 34.3672 72.0639 34.3672 72.215C34.3672 72.3661 34.4897 72.4886 34.6408 72.4886Z" fill="#E0D686"/>
<path d="M9.07434 64.6912C9.2842 64.6912 9.45434 64.521 9.45434 64.3112C9.45434 64.1013 9.2842 63.9312 9.07434 63.9312C8.86447 63.9312 8.69434 64.1013 8.69434 64.3112C8.69434 64.521 8.86447 64.6912 9.07434 64.6912Z" fill="#E0D686"/>
<path d="M11.9016 63.0652C12.1115 63.0652 12.2816 62.895 12.2816 62.6852C12.2816 62.4753 12.1115 62.3052 11.9016 62.3052C11.6917 62.3052 11.5216 62.4753 11.5216 62.6852C11.5216 62.895 11.6917 63.0652 11.9016 63.0652Z" fill="#E0D686"/>
<path d="M11.9623 66.88C12.0966 66.88 12.2055 66.7711 12.2055 66.6367C12.2055 66.5024 12.0966 66.3936 11.9623 66.3936C11.828 66.3936 11.7191 66.5024 11.7191 66.6367C11.7191 66.7711 11.828 66.88 11.9623 66.88Z" fill="#E0D686"/>
<path d="M9.72793 67.534C9.87904 67.534 10.0015 67.4115 10.0015 67.2604C10.0015 67.1093 9.87904 66.9868 9.72793 66.9868C9.57683 66.9868 9.45435 67.1093 9.45435 67.2604C9.45435 67.4115 9.57683 67.534 9.72793 67.534Z" fill="#E0D686"/>
<path d="M35.0511 74.4499C35.1603 74.4499 35.2487 74.3614 35.2487 74.2523C35.2487 74.1432 35.1603 74.0547 35.0511 74.0547C34.942 74.0547 34.8535 74.1432 34.8535 74.2523C34.8535 74.3614 34.942 74.4499 35.0511 74.4499Z" fill="#E0D686"/>
<path d="M26.4176 72.7776C26.6946 72.7776 26.9192 72.553 26.9192 72.276C26.9192 71.999 26.6946 71.7744 26.4176 71.7744C26.1406 71.7744 25.916 71.999 25.916 72.276C25.916 72.553 26.1406 72.7776 26.4176 72.7776Z" fill="#E0D686"/>
<path d="M32.6951 70.6343C32.8294 70.6343 32.9383 70.5255 32.9383 70.3911C32.9383 70.2568 32.8294 70.1479 32.6951 70.1479C32.5608 70.1479 32.4519 70.2568 32.4519 70.3911C32.4519 70.5255 32.5608 70.6343 32.6951 70.6343Z" fill="#E0D686"/>
<path d="M29.3207 70.4366C29.455 70.4366 29.5639 70.3277 29.5639 70.1934C29.5639 70.0591 29.455 69.9502 29.3207 69.9502C29.1864 69.9502 29.0775 70.0591 29.0775 70.1934C29.0775 70.3277 29.1864 70.4366 29.3207 70.4366Z" fill="#E0D686"/>
<path d="M31.0536 66.5154C31.2635 66.5154 31.4336 66.3452 31.4336 66.1354C31.4336 65.9255 31.2635 65.7554 31.0536 65.7554C30.8437 65.7554 30.6736 65.9255 30.6736 66.1354C30.6736 66.3452 30.8437 66.5154 31.0536 66.5154Z" fill="#E0D686"/>
<path d="M17.7687 72.1854C17.9198 72.1854 18.0423 72.0629 18.0423 71.9118C18.0423 71.7607 17.9198 71.6382 17.7687 71.6382C17.6176 71.6382 17.4951 71.7607 17.4951 71.9118C17.4951 72.0629 17.6176 72.1854 17.7687 72.1854Z" fill="#E0D686"/>
<path d="M28.4088 67.777C28.5179 67.777 28.6064 67.6886 28.6064 67.5794C28.6064 67.4703 28.5179 67.3818 28.4088 67.3818C28.2997 67.3818 28.2112 67.4703 28.2112 67.5794C28.2112 67.6886 28.2997 67.777 28.4088 67.777Z" fill="#E0D686"/>
<path d="M43.016 62.5022C43.293 62.5022 43.5176 62.2777 43.5176 62.0006C43.5176 61.7236 43.293 61.499 43.016 61.499C42.739 61.499 42.5144 61.7236 42.5144 62.0006C42.5144 62.2777 42.739 62.5022 43.016 62.5022Z" fill="#E0D686"/>
<path d="M47.652 67.7312C47.8954 67.7312 48.0928 67.5339 48.0928 67.2904C48.0928 67.047 47.8954 66.8496 47.652 66.8496C47.4085 66.8496 47.2112 67.047 47.2112 67.2904C47.2112 67.5339 47.4085 67.7312 47.652 67.7312Z" fill="#E0D686"/>
<path d="M46.816 62.0767C46.9503 62.0767 47.0591 61.9679 47.0591 61.8335C47.0591 61.6992 46.9503 61.5903 46.816 61.5903C46.6816 61.5903 46.5728 61.6992 46.5728 61.8335C46.5728 61.9679 46.6816 62.0767 46.816 62.0767Z" fill="#E0D686"/>
<path d="M51.1936 64.1443C51.4035 64.1443 51.5736 63.9741 51.5736 63.7643C51.5736 63.5544 51.4035 63.3843 51.1936 63.3843C50.9837 63.3843 50.8136 63.5544 50.8136 63.7643C50.8136 63.9741 50.9837 64.1443 51.1936 64.1443Z" fill="#E0D686"/>
<path d="M46.284 55.6932C46.4351 55.6932 46.5576 55.5707 46.5576 55.4196C46.5576 55.2685 46.4351 55.146 46.284 55.146C46.1329 55.146 46.0104 55.2685 46.0104 55.4196C46.0104 55.5707 46.1329 55.6932 46.284 55.6932Z" fill="#E0D686"/>
<path d="M49.3847 58.5353C49.4938 58.5353 49.5823 58.4469 49.5823 58.3377C49.5823 58.2286 49.4938 58.1401 49.3847 58.1401C49.2756 58.1401 49.1871 58.2286 49.1871 58.3377C49.1871 58.4469 49.2756 58.5353 49.3847 58.5353Z" fill="#E0D686"/>
<path d="M54.5072 66.4241C54.7842 66.4241 55.0088 66.1995 55.0088 65.9225C55.0088 65.6455 54.7842 65.4209 54.5072 65.4209C54.2302 65.4209 54.0056 65.6455 54.0056 65.9225C54.0056 66.1995 54.2302 66.4241 54.5072 66.4241Z" fill="#E0D686"/>
<path d="M49.3695 66.1505C49.5039 66.1505 49.6128 66.0416 49.6128 65.9073C49.6128 65.773 49.5039 65.6641 49.3695 65.6641C49.2352 65.6641 49.1263 65.773 49.1263 65.9073C49.1263 66.0416 49.2352 66.1505 49.3695 66.1505Z" fill="#E0D686"/>
<path d="M52.9567 68.5826C53.091 68.5826 53.1999 68.4737 53.1999 68.3394C53.1999 68.2051 53.091 68.0962 52.9567 68.0962C52.8224 68.0962 52.7135 68.2051 52.7135 68.3394C52.7135 68.4737 52.8224 68.5826 52.9567 68.5826Z" fill="#E0D686"/>
<path d="M47.1959 72.7624C47.4058 72.7624 47.5759 72.5923 47.5759 72.3824C47.5759 72.1726 47.4058 72.0024 47.1959 72.0024C46.986 72.0024 46.8159 72.1726 46.8159 72.3824C46.8159 72.5923 46.986 72.7624 47.1959 72.7624Z" fill="#E0D686"/>
<path d="M41.4352 69.7982C41.5863 69.7982 41.7088 69.6757 41.7088 69.5246C41.7088 69.3735 41.5863 69.251 41.4352 69.251C41.2841 69.251 41.1616 69.3735 41.1616 69.5246C41.1616 69.6757 41.2841 69.7982 41.4352 69.7982Z" fill="#E0D686"/>
<path d="M50.1296 73.2638C50.2387 73.2638 50.3272 73.1754 50.3272 73.0662C50.3272 72.9571 50.2387 72.8687 50.1296 72.8687C50.0205 72.8687 49.932 72.9571 49.932 73.0662C49.932 73.1754 50.0205 73.2638 50.1296 73.2638Z" fill="#E0D686"/>
<path d="M55.48 58.6717C55.757 58.6717 55.9816 58.4471 55.9816 58.17C55.9816 57.893 55.757 57.6685 55.48 57.6685C55.203 57.6685 54.9784 57.893 54.9784 58.17C54.9784 58.4471 55.203 58.6717 55.48 58.6717Z" fill="#E0D686"/>
<path d="M57.1063 69.2662C57.2407 69.2662 57.3495 69.1573 57.3495 69.023C57.3495 68.8887 57.2407 68.7798 57.1063 68.7798C56.972 68.7798 56.8632 68.8887 56.8632 69.023C56.8632 69.1573 56.972 69.2662 57.1063 69.2662Z" fill="#E0D686"/>
<path d="M58.2768 62.274C58.4111 62.274 58.52 62.1651 58.52 62.0308C58.52 61.8965 58.4111 61.7876 58.2768 61.7876C58.1425 61.7876 58.0336 61.8965 58.0336 62.0308C58.0336 62.1651 58.1425 62.274 58.2768 62.274Z" fill="#E0D686"/>
<path d="M62.3048 65.2537C62.5147 65.2537 62.6848 65.0835 62.6848 64.8737C62.6848 64.6638 62.5147 64.4937 62.3048 64.4937C62.0949 64.4937 61.9248 64.6638 61.9248 64.8737C61.9248 65.0835 62.0949 65.2537 62.3048 65.2537Z" fill="#E0D686"/>
<path d="M60.2527 64.6307C60.4038 64.6307 60.5263 64.5082 60.5263 64.3571C60.5263 64.206 60.4038 64.0835 60.2527 64.0835C60.1016 64.0835 59.9791 64.206 59.9791 64.3571C59.9791 64.5082 60.1016 64.6307 60.2527 64.6307Z" fill="#E0D686"/>
<path d="M60.8456 61.195C60.9547 61.195 61.0432 61.1065 61.0432 60.9974C61.0432 60.8883 60.9547 60.7998 60.8456 60.7998C60.7364 60.7998 60.6479 60.8883 60.6479 60.9974C60.6479 61.1065 60.7364 61.195 60.8456 61.195Z" fill="#E0D686"/>
<path d="M66.4544 66.1961C66.7314 66.1961 66.956 65.9715 66.956 65.6945C66.956 65.4174 66.7314 65.1929 66.4544 65.1929C66.1773 65.1929 65.9528 65.4174 65.9528 65.6945C65.9528 65.9715 66.1773 66.1961 66.4544 66.1961Z" fill="#E0D686"/>
<path d="M60.8456 68.8106C60.9799 68.8106 61.0888 68.7017 61.0888 68.5674C61.0888 68.4331 60.9799 68.3242 60.8456 68.3242C60.7113 68.3242 60.6024 68.4331 60.6024 68.5674C60.6024 68.7017 60.7113 68.8106 60.8456 68.8106Z" fill="#E0D686"/>
<path d="M62.6543 70.9542C62.7887 70.9542 62.8975 70.8453 62.8975 70.711C62.8975 70.5767 62.7887 70.4678 62.6543 70.4678C62.52 70.4678 62.4111 70.5767 62.4111 70.711C62.4111 70.8453 62.52 70.9542 62.6543 70.9542Z" fill="#E0D686"/>
<path d="M56.7263 72.8235C56.9362 72.8235 57.1063 72.6533 57.1063 72.4435C57.1063 72.2336 56.9362 72.0635 56.7263 72.0635C56.5164 72.0635 56.3463 72.2336 56.3463 72.4435C56.3463 72.6533 56.5164 72.8235 56.7263 72.8235Z" fill="#E0D686"/>
<path d="M59.7512 71.0907C59.9023 71.0907 60.0247 70.9682 60.0247 70.8171C60.0247 70.666 59.9023 70.5435 59.7512 70.5435C59.6 70.5435 59.4775 70.666 59.4775 70.8171C59.4775 70.9682 59.6 71.0907 59.7512 71.0907Z" fill="#E0D686"/>
<path d="M60.5871 73.4767C60.6963 73.4767 60.7847 73.3883 60.7847 73.2791C60.7847 73.17 60.6963 73.0815 60.5871 73.0815C60.478 73.0815 60.3895 73.17 60.3895 73.2791C60.3895 73.3883 60.478 73.4767 60.5871 73.4767Z" fill="#E0D686"/>
<path d="M63.9312 62.3963C64.2082 62.3963 64.4328 62.1717 64.4328 61.8947C64.4328 61.6176 64.2082 61.3931 63.9312 61.3931C63.6541 61.3931 63.4296 61.6176 63.4296 61.8947C63.4296 62.1717 63.6541 62.3963 63.9312 62.3963Z" fill="#E0D686"/>
<path d="M69.7376 68.1265C69.8719 68.1265 69.9808 68.0176 69.9808 67.8833C69.9808 67.749 69.8719 67.6401 69.7376 67.6401C69.6033 67.6401 69.4944 67.749 69.4944 67.8833C69.4944 68.0176 69.6033 68.1265 69.7376 68.1265Z" fill="#E0D686"/>
<path d="M69.7376 62.4722C69.8719 62.4722 69.9808 62.3634 69.9808 62.229C69.9808 62.0947 69.8719 61.9858 69.7376 61.9858C69.6033 61.9858 69.4944 62.0947 69.4944 62.229C69.4944 62.3634 69.6033 62.4722 69.7376 62.4722Z" fill="#E0D686"/>
<path d="M74.4647 65.406C74.6746 65.406 74.8447 65.2359 74.8447 65.026C74.8447 64.8161 74.6746 64.646 74.4647 64.646C74.2548 64.646 74.0847 64.8161 74.0847 65.026C74.0847 65.2359 74.2548 65.406 74.4647 65.406Z" fill="#E0D686"/>
<path d="M72.4128 64.7825C72.5639 64.7825 72.6864 64.6601 72.6864 64.509C72.6864 64.3578 72.5639 64.2354 72.4128 64.2354C72.2617 64.2354 72.1392 64.3578 72.1392 64.509C72.1392 64.6601 72.2617 64.7825 72.4128 64.7825Z" fill="#E0D686"/>
<path d="M72.3063 61.3933C72.4155 61.3933 72.504 61.3048 72.504 61.1957C72.504 61.0865 72.4155 60.998 72.3063 60.998C72.1972 60.998 72.1088 61.0865 72.1088 61.1957C72.1088 61.3048 72.1972 61.3933 72.3063 61.3933Z" fill="#E0D686"/>
<path d="M76.6687 68.5823C76.9457 68.5823 77.1703 68.3577 77.1703 68.0807C77.1703 67.8037 76.9457 67.5791 76.6687 67.5791C76.3917 67.5791 76.1671 67.8037 76.1671 68.0807C76.1671 68.3577 76.3917 68.5823 76.6687 68.5823Z" fill="#E0D686"/>
<path d="M72.6408 67.4122C72.7751 67.4122 72.884 67.3033 72.884 67.169C72.884 67.0347 72.7751 66.9258 72.6408 66.9258C72.5065 66.9258 72.3976 67.0347 72.3976 67.169C72.3976 67.3033 72.5065 67.4122 72.6408 67.4122Z" fill="#E0D686"/>
<path d="M80.1951 65.2994C80.3294 65.2994 80.4383 65.1905 80.4383 65.0562C80.4383 64.9219 80.3294 64.813 80.1951 64.813C80.0608 64.813 79.9519 64.9219 79.9519 65.0562C79.9519 65.1905 80.0608 65.2994 80.1951 65.2994Z" fill="#E0D686"/>
<path d="M84.5727 64.1897C84.7826 64.1897 84.9527 64.0196 84.9527 63.8097C84.9527 63.5998 84.7826 63.4297 84.5727 63.4297C84.3629 63.4297 84.1927 63.5998 84.1927 63.8097C84.1927 64.0196 84.3629 64.1897 84.5727 64.1897Z" fill="#E0D686"/>
<path d="M82.5208 63.5662C82.6719 63.5662 82.7944 63.4437 82.7944 63.2926C82.7944 63.1415 82.6719 63.019 82.5208 63.019C82.3697 63.019 82.2472 63.1415 82.2472 63.2926C82.2472 63.4437 82.3697 63.5662 82.5208 63.5662Z" fill="#E0D686"/>
<path d="M82.7488 66.1959C82.8831 66.1959 82.992 66.087 82.992 65.9527C82.992 65.8184 82.8831 65.7095 82.7488 65.7095C82.6145 65.7095 82.5056 65.8184 82.5056 65.9527C82.5056 66.087 82.6145 66.1959 82.7488 66.1959Z" fill="#E0D686"/>
<path d="M74.1304 71.1514C74.2647 71.1514 74.3736 71.0426 74.3736 70.9082C74.3736 70.7739 74.2647 70.665 74.1304 70.665C73.9961 70.665 73.8872 70.7739 73.8872 70.9082C73.8872 71.0426 73.9961 71.1514 74.1304 71.1514Z" fill="#E0D686"/>
<path d="M70.8472 72.0632C71.057 72.0632 71.2272 71.8931 71.2272 71.6832C71.2272 71.4734 71.057 71.3032 70.8472 71.3032C70.6373 71.3032 70.4672 71.4734 70.4672 71.6832C70.4672 71.8931 70.6373 72.0632 70.8472 72.0632Z" fill="#E0D686"/>
<path d="M72.4128 73.4012C72.5639 73.4012 72.6864 73.2787 72.6864 73.1276C72.6864 72.9765 72.5639 72.854 72.4128 72.854C72.2617 72.854 72.1392 72.9765 72.1392 73.1276C72.1392 73.2787 72.2617 73.4012 72.4128 73.4012Z" fill="#E0D686"/>
<path d="M81.2591 70.9079C81.3682 70.9079 81.4567 70.8194 81.4567 70.7103C81.4567 70.6012 81.3682 70.5127 81.2591 70.5127C81.15 70.5127 81.0615 70.6012 81.0615 70.7103C81.0615 70.8194 81.15 70.9079 81.2591 70.9079Z" fill="#E0D686"/>
<path d="M75.7416 72.9446C76.0186 72.9446 76.2432 72.72 76.2432 72.443C76.2432 72.166 76.0186 71.9414 75.7416 71.9414C75.4646 71.9414 75.24 72.166 75.24 72.443C75.24 72.72 75.4646 72.9446 75.7416 72.9446Z" fill="#E0D686"/>
<path d="M79.5568 73.401C79.6911 73.401 79.8 73.2921 79.8 73.1577C79.8 73.0234 79.6911 72.9146 79.5568 72.9146C79.4225 72.9146 79.3136 73.0234 79.3136 73.1577C79.3136 73.2921 79.4225 73.401 79.5568 73.401Z" fill="#E0D686"/>
<path d="M78.5688 71.7896C78.7031 71.7896 78.8119 71.6807 78.8119 71.5464C78.8119 71.4121 78.7031 71.3032 78.5688 71.3032C78.4345 71.3032 78.3256 71.4121 78.3256 71.5464C78.3256 71.6807 78.4345 71.7896 78.5688 71.7896Z" fill="#E0D686"/>
<path d="M68.1263 58.7024C68.3362 58.7024 68.5063 58.5323 68.5063 58.3224C68.5063 58.1125 68.3362 57.9424 68.1263 57.9424C67.9165 57.9424 67.7463 58.1125 67.7463 58.3224C67.7463 58.5323 67.9165 58.7024 68.1263 58.7024Z" fill="#E0D686"/>
<path d="M69.996 57.6234C70.1471 57.6234 70.2696 57.5009 70.2696 57.3498C70.2696 57.1987 70.1471 57.0762 69.996 57.0762C69.8449 57.0762 69.7224 57.1987 69.7224 57.3498C69.7224 57.5009 69.8449 57.6234 69.996 57.6234Z" fill="#E0D686"/>
<path d="M70.9991 61.8639C71.1082 61.8639 71.1967 61.7755 71.1967 61.6663C71.1967 61.5572 71.1082 61.4688 70.9991 61.4688C70.89 61.4688 70.8015 61.5572 70.8015 61.6663C70.8015 61.7755 70.89 61.8639 70.9991 61.8639Z" fill="#E0D686"/>
<path d="M59.6903 57.1824C59.9673 57.1824 60.1919 56.9578 60.1919 56.6808C60.1919 56.4038 59.9673 56.1792 59.6903 56.1792C59.4133 56.1792 59.1887 56.4038 59.1887 56.6808C59.1887 56.9578 59.4133 57.1824 59.6903 57.1824Z" fill="#E0D686"/>
<path d="M68.8407 74.1304C68.9751 74.1304 69.0839 74.0216 69.0839 73.8872C69.0839 73.7529 68.9751 73.644 68.8407 73.644C68.7064 73.644 68.5975 73.7529 68.5975 73.8872C68.5975 74.0216 68.7064 74.1304 68.8407 74.1304Z" fill="#E0D686"/>
<path d="M66.0591 73.7506C66.1934 73.7506 66.3023 73.6417 66.3023 73.5074C66.3023 73.3731 66.1934 73.2642 66.0591 73.2642C65.9248 73.2642 65.8159 73.3731 65.8159 73.5074C65.8159 73.6417 65.9248 73.7506 66.0591 73.7506Z" fill="#E0D686"/>
<path d="M67.3816 71.197C67.5915 71.197 67.7616 71.0269 67.7616 70.817C67.7616 70.6071 67.5915 70.437 67.3816 70.437C67.1717 70.437 67.0016 70.6071 67.0016 70.817C67.0016 71.0269 67.1717 71.197 67.3816 71.197Z" fill="#E0D686"/>
<path d="M51.0416 56.5897C51.1927 56.5897 51.3151 56.4672 51.3151 56.3161C51.3151 56.165 51.1927 56.0425 51.0416 56.0425C50.8905 56.0425 50.7679 56.165 50.7679 56.3161C50.7679 56.4672 50.8905 56.5897 51.0416 56.5897Z" fill="#E0D686"/>
<path d="M65.1472 71.0905C65.2563 71.0905 65.3448 71.002 65.3448 70.8929C65.3448 70.7838 65.2563 70.6953 65.1472 70.6953C65.0381 70.6953 64.9496 70.7838 64.9496 70.8929C64.9496 71.002 65.0381 71.0905 65.1472 71.0905Z" fill="#E0D686"/>
<path d="M48.564 70.6194C48.841 70.6194 49.0656 70.3948 49.0656 70.1178C49.0656 69.8408 48.841 69.6162 48.564 69.6162C48.287 69.6162 48.0624 69.8408 48.0624 70.1178C48.0624 70.3948 48.287 70.6194 48.564 70.6194Z" fill="#E0D686"/>
<path d="M43.2592 70.589C43.3935 70.589 43.5024 70.4801 43.5024 70.3457C43.5024 70.2114 43.3935 70.1025 43.2592 70.1025C43.1249 70.1025 43.016 70.2114 43.016 70.3457C43.016 70.4801 43.1249 70.589 43.2592 70.589Z" fill="#E0D686"/>
<path d="M46.0256 73.1881C46.1599 73.1881 46.2688 73.0792 46.2688 72.9449C46.2688 72.8105 46.1599 72.7017 46.0256 72.7017C45.8912 72.7017 45.7823 72.8105 45.7823 72.9449C45.7823 73.0792 45.8912 73.1881 46.0256 73.1881Z" fill="#E0D686"/>
<path d="M43.1071 73.325C43.2582 73.325 43.3807 73.2025 43.3807 73.0514C43.3807 72.9003 43.2582 72.7778 43.1071 72.7778C42.956 72.7778 42.8335 72.9003 42.8335 73.0514C42.8335 73.2025 42.956 73.325 43.1071 73.325Z" fill="#E0D686"/>
<path d="M51.1632 72.0632C51.3731 72.0632 51.5432 71.8931 51.5432 71.6832C51.5432 71.4734 51.3731 71.3032 51.1632 71.3032C50.9533 71.3032 50.7832 71.4734 50.7832 71.6832C50.7832 71.8931 50.9533 72.0632 51.1632 72.0632Z" fill="#E0D686"/>
<path d="M48.5184 73.3249C48.6275 73.3249 48.716 73.2364 48.716 73.1273C48.716 73.0182 48.6275 72.9297 48.5184 72.9297C48.4093 72.9297 48.3208 73.0182 48.3208 73.1273C48.3208 73.2364 48.4093 73.3249 48.5184 73.3249Z" fill="#E0D686"/>
<path d="M78.1432 57.6082C78.4202 57.6082 78.6448 57.3836 78.6448 57.1066C78.6448 56.8296 78.4202 56.605 78.1432 56.605C77.8662 56.605 77.6416 56.8296 77.6416 57.1066C77.6416 57.3836 77.8662 57.6082 78.1432 57.6082Z" fill="#E0D686"/>
<path d="M82.4296 58.4141C82.5639 58.4141 82.6728 58.3052 82.6728 58.1709C82.6728 58.0366 82.5639 57.9277 82.4296 57.9277C82.2953 57.9277 82.1864 58.0366 82.1864 58.1709C82.1864 58.3052 82.2953 58.4141 82.4296 58.4141Z" fill="#E0D686"/>
<path d="M82.3688 74.1148C82.5031 74.1148 82.612 74.0059 82.612 73.8716C82.612 73.7373 82.5031 73.6284 82.3688 73.6284C82.2345 73.6284 82.1256 73.7373 82.1256 73.8716C82.1256 74.0059 82.2345 74.1148 82.3688 74.1148Z" fill="#E0D686"/>
<path d="M86.7767 74.0696C86.9866 74.0696 87.1567 73.8994 87.1567 73.6896C87.1567 73.4797 86.9866 73.3096 86.7767 73.3096C86.5669 73.3096 86.3967 73.4797 86.3967 73.6896C86.3967 73.8994 86.5669 74.0696 86.7767 74.0696Z" fill="#E0D686"/>
<path d="M80.3472 70.7108C80.4983 70.7108 80.6208 70.5883 80.6208 70.4372C80.6208 70.2861 80.4983 70.1636 80.3472 70.1636C80.1961 70.1636 80.0736 70.2861 80.0736 70.4372C80.0736 70.5883 80.1961 70.7108 80.3472 70.7108Z" fill="#E0D686"/>
<path d="M84.3296 72.1237C84.4387 72.1237 84.5272 72.0352 84.5272 71.9261C84.5272 71.817 84.4387 71.7285 84.3296 71.7285C84.2204 71.7285 84.132 71.817 84.132 71.9261C84.132 72.0352 84.2204 72.1237 84.3296 72.1237Z" fill="#E0D686"/>
<path d="M90.896 72.1853C91.0723 72.1853 91.2152 72.0424 91.2152 71.8661C91.2152 71.6898 91.0723 71.5469 90.896 71.5469C90.7197 71.5469 90.5768 71.6898 90.5768 71.8661C90.5768 72.0424 90.7197 72.1853 90.896 72.1853Z" fill="#E0D686"/>
<path d="M85.1352 58.2315C85.2695 58.2315 85.3784 58.1226 85.3784 57.9883C85.3784 57.854 85.2695 57.7451 85.1352 57.7451C85.0009 57.7451 84.892 57.854 84.892 57.9883C84.892 58.1226 85.0009 58.2315 85.1352 58.2315Z" fill="#E0D686"/>
<path d="M89.3912 59.0977C89.5255 59.0977 89.6344 58.9888 89.6344 58.8545C89.6344 58.7202 89.5255 58.6113 89.3912 58.6113C89.2568 58.6113 89.1479 58.7202 89.1479 58.8545C89.1479 58.9888 89.2568 59.0977 89.3912 59.0977Z" fill="#E0D686"/>
<path d="M84.9224 68.2331C85.1322 68.2331 85.3024 68.063 85.3024 67.8531C85.3024 67.6433 85.1322 67.4731 84.9224 67.4731C84.7125 67.4731 84.5424 67.6433 84.5424 67.8531C84.5424 68.063 84.7125 68.2331 84.9224 68.2331Z" fill="#E0D686"/>
<path d="M79.5568 67.7923C79.7079 67.7923 79.8304 67.6698 79.8304 67.5187C79.8304 67.3676 79.7079 67.2451 79.5568 67.2451C79.4057 67.2451 79.2832 67.3676 79.2832 67.5187C79.2832 67.6698 79.4057 67.7923 79.5568 67.7923Z" fill="#E0D686"/>
<path d="M88.7071 62.8523C88.917 62.8523 89.0871 62.6822 89.0871 62.4723C89.0871 62.2624 88.917 62.0923 88.7071 62.0923C88.4973 62.0923 88.3271 62.2624 88.3271 62.4723C88.3271 62.6822 88.4973 62.8523 88.7071 62.8523Z" fill="#E0D686"/>
<path d="M86.6552 62.2288C86.8063 62.2288 86.9288 62.1063 86.9288 61.9552C86.9288 61.8041 86.8063 61.6816 86.6552 61.6816C86.5041 61.6816 86.3816 61.8041 86.3816 61.9552C86.3816 62.1063 86.5041 62.2288 86.6552 62.2288Z" fill="#E0D686"/>
<path d="M91.2456 64.4177C91.5226 64.4177 91.7472 64.1932 91.7472 63.9161C91.7472 63.6391 91.5226 63.4146 91.2456 63.4146C90.9686 63.4146 90.744 63.6391 90.744 63.9161C90.744 64.1932 90.9686 64.4177 91.2456 64.4177Z" fill="#E0D686"/>
<path d="M86.8832 64.8438C87.0175 64.8438 87.1264 64.7349 87.1264 64.6006C87.1264 64.4663 87.0175 64.3574 86.8832 64.3574C86.7489 64.3574 86.64 64.4663 86.64 64.6006C86.64 64.7349 86.7489 64.8438 86.8832 64.8438Z" fill="#E0D686"/>
<path d="M94.1487 63.6273C94.2998 63.6273 94.4223 63.5048 94.4223 63.3537C94.4223 63.2026 94.2998 63.0801 94.1487 63.0801C93.9976 63.0801 93.8751 63.2026 93.8751 63.3537C93.8751 63.5048 93.9976 63.6273 94.1487 63.6273Z" fill="#E0D686"/>
<path d="M87.9016 67.549C88.0107 67.549 88.0992 67.4605 88.0992 67.3514C88.0992 67.2423 88.0107 67.1538 87.9016 67.1538C87.7925 67.1538 87.704 67.2423 87.704 67.3514C87.704 67.4605 87.7925 67.549 87.9016 67.549Z" fill="#E0D686"/>
<path d="M89.8927 69.9202C90.1697 69.9202 90.3943 69.6956 90.3943 69.4186C90.3943 69.1416 90.1697 68.917 89.8927 68.917C89.6157 68.917 89.3911 69.1416 89.3911 69.4186C89.3911 69.6956 89.6157 69.9202 89.8927 69.9202Z" fill="#E0D686"/>
<path d="M93.0088 69.8594C93.1431 69.8594 93.252 69.7506 93.252 69.6162C93.252 69.4819 93.1431 69.373 93.0088 69.373C92.8745 69.373 92.7656 69.4819 92.7656 69.6162C92.7656 69.7506 92.8745 69.8594 93.0088 69.8594Z" fill="#E0D686"/>
<path d="M97.204 68.324C97.1432 68.476 97.0824 68.628 97.0216 68.7952C96.976 68.8104 96.9608 68.8104 96.9304 68.8256C96.7176 68.856 96.5048 68.7344 96.4744 68.5216C96.4288 68.324 96.5656 68.1264 96.7632 68.0808C96.9608 68.0352 97.1432 68.1416 97.204 68.324Z" fill="#E0D686"/>
<path d="M95.3344 70.0262C95.4855 70.0262 95.608 69.9037 95.608 69.7526C95.608 69.6015 95.4855 69.479 95.3344 69.479C95.1833 69.479 95.0608 69.6015 95.0608 69.7526C95.0608 69.9037 95.1833 70.0262 95.3344 70.0262Z" fill="#E0D686"/>
<path d="M94.9847 67.8683C95.0938 67.8683 95.1823 67.7799 95.1823 67.6707C95.1823 67.5616 95.0938 67.4731 94.9847 67.4731C94.8756 67.4731 94.7871 67.5616 94.7871 67.6707C94.7871 67.7799 94.8756 67.8683 94.9847 67.8683Z" fill="#E0D686"/>
<path d="M82.8096 62.1677C83.0194 62.1677 83.1896 61.9976 83.1896 61.7877C83.1896 61.5778 83.0194 61.4077 82.8096 61.4077C82.5997 61.4077 82.4296 61.5778 82.4296 61.7877C82.4296 61.9976 82.5997 62.1677 82.8096 62.1677Z" fill="#E0D686"/>
<path d="M93.252 59.1585C93.4031 59.1585 93.5256 59.036 93.5256 58.8849C93.5256 58.7338 93.4031 58.6113 93.252 58.6113C93.1009 58.6113 92.9784 58.7338 92.9784 58.8849C92.9784 59.036 93.1009 59.1585 93.252 59.1585Z" fill="#E0D686"/>
<path d="M96.8543 65.6794C96.9635 65.6794 97.0519 65.5909 97.0519 65.4818C97.0519 65.3727 96.9635 65.2842 96.8543 65.2842C96.7452 65.2842 96.6567 65.3727 96.6567 65.4818C96.6567 65.5909 96.7452 65.6794 96.8543 65.6794Z" fill="#E0D686"/>
<path d="M44.5512 57.3196C44.8282 57.3196 45.0528 57.095 45.0528 56.818C45.0528 56.541 44.8282 56.3164 44.5512 56.3164C44.2741 56.3164 44.0496 56.541 44.0496 56.818C44.0496 57.095 44.2741 57.3196 44.5512 57.3196Z" fill="#E0D686"/>
<path d="M2.03673 49.8105C2.19623 49.8105 2.32553 49.6812 2.32553 49.5217C2.32553 49.3622 2.19623 49.2329 2.03673 49.2329C1.87723 49.2329 1.74792 49.3622 1.74792 49.5217C1.74792 49.6812 1.87723 49.8105 2.03673 49.8105Z" fill="#E0D686"/>
<path d="M4.93993 51.2851C5.09943 51.2851 5.22873 51.1558 5.22873 50.9963C5.22873 50.8368 5.09943 50.7075 4.93993 50.7075C4.78043 50.7075 4.65112 50.8368 4.65112 50.9963C4.65112 51.1558 4.78043 51.2851 4.93993 51.2851Z" fill="#E0D686"/>
<path d="M1.50475 55.2214C1.7482 55.2214 1.94557 55.0241 1.94557 54.7806C1.94557 54.5372 1.7482 54.3398 1.50475 54.3398C1.26131 54.3398 1.06396 54.5372 1.06396 54.7806C1.06396 55.0241 1.26131 55.2214 1.50475 55.2214Z" fill="#E0D686"/>
<path d="M2.93357 53.1086C3.10986 53.1086 3.25278 52.9657 3.25278 52.7894C3.25278 52.6131 3.10986 52.4702 2.93357 52.4702C2.75728 52.4702 2.61438 52.6131 2.61438 52.7894C2.61438 52.9657 2.75728 53.1086 2.93357 53.1086Z" fill="#E0D686"/>
<path d="M7.52391 61.3471C7.68341 61.3471 7.81271 61.2178 7.81271 61.0583C7.81271 60.8988 7.68341 60.7695 7.52391 60.7695C7.36441 60.7695 7.23511 60.8988 7.23511 61.0583C7.23511 61.2178 7.36441 61.3471 7.52391 61.3471Z" fill="#E0D686"/>
<path d="M6.93114 67.3359C7.09064 67.3359 7.21994 67.2066 7.21994 67.0471C7.21994 66.8876 7.09064 66.7583 6.93114 66.7583C6.77164 66.7583 6.64233 66.8876 6.64233 67.0471C6.64233 67.2066 6.77164 67.3359 6.93114 67.3359Z" fill="#E0D686"/>
<path d="M2.26476 62.0466C2.50821 62.0466 2.70558 61.8493 2.70558 61.6058C2.70558 61.3624 2.50821 61.165 2.26476 61.165C2.02132 61.165 1.82397 61.3624 1.82397 61.6058C1.82397 61.8493 2.02132 62.0466 2.26476 62.0466Z" fill="#E0D686"/>
<path d="M4.75754 65.7859C4.93383 65.7859 5.07675 65.6429 5.07675 65.4667C5.07675 65.2904 4.93383 65.1475 4.75754 65.1475C4.58125 65.1475 4.43835 65.2904 4.43835 65.4667C4.43835 65.6429 4.58125 65.7859 4.75754 65.7859Z" fill="#E0D686"/>
<path d="M40.0063 65.527C40.1154 65.527 40.2039 65.4386 40.2039 65.3294C40.2039 65.2203 40.1154 65.1318 40.0063 65.1318C39.8972 65.1318 39.8087 65.2203 39.8087 65.3294C39.8087 65.4386 39.8972 65.527 40.0063 65.527Z" fill="#E0D686"/>
<path d="M40.6448 55.176C40.9218 55.176 41.1464 54.9515 41.1464 54.6745C41.1464 54.3974 40.9218 54.1729 40.6448 54.1729C40.3677 54.1729 40.1432 54.3974 40.1432 54.6745C40.1432 54.9515 40.3677 55.176 40.6448 55.176Z" fill="#E0D686"/>
<path d="M38.2432 55.2672C38.3775 55.2672 38.4864 55.1583 38.4864 55.024C38.4864 54.8896 38.3775 54.7808 38.2432 54.7808C38.1089 54.7808 38 54.8896 38 55.024C38 55.1583 38.1089 55.2672 38.2432 55.2672Z" fill="#E0D686"/>
<path d="M80.3016 61.5904C80.4359 61.5904 80.5447 61.4815 80.5447 61.3472C80.5447 61.2129 80.4359 61.104 80.3016 61.104C80.1672 61.104 80.0583 61.2129 80.0583 61.3472C80.0583 61.4815 80.1672 61.5904 80.3016 61.5904Z" fill="#E0D686"/>
<path d="M78.736 65.9227C78.8871 65.9227 79.0096 65.8002 79.0096 65.6491C79.0096 65.498 78.8871 65.3755 78.736 65.3755C78.5849 65.3755 78.4624 65.498 78.4624 65.6491C78.4624 65.8002 78.5849 65.9227 78.736 65.9227Z" fill="#E0D686"/>
<path d="M96.9911 58.6717C97.2681 58.6717 97.4927 58.4471 97.4927 58.17C97.4927 57.893 97.2681 57.6685 96.9911 57.6685C96.7141 57.6685 96.4895 57.893 96.4895 58.17C96.4895 58.4471 96.7141 58.6717 96.9911 58.6717Z" fill="#E0D686"/>
<path d="M75.9848 62.0924C76.1191 62.0924 76.228 61.9835 76.228 61.8492C76.228 61.7148 76.1191 61.606 75.9848 61.606C75.8504 61.606 75.7416 61.7148 75.7416 61.8492C75.7416 61.9835 75.8504 62.0924 75.9848 62.0924Z" fill="#E0D686"/>
<path d="M92.7808 67.9442C92.9319 67.9442 93.0544 67.8217 93.0544 67.6706C93.0544 67.5195 92.9319 67.397 92.7808 67.397C92.6297 67.397 92.5072 67.5195 92.5072 67.6706C92.5072 67.8217 92.6297 67.9442 92.7808 67.9442Z" fill="#E0D686"/>
<g style="mix-blend-mode:multiply" opacity="0.26">
<path d="M95.6232 64.5241C93.176 61.0585 91.048 60.1465 88.4184 58.8241C85.7888 57.5017 86.3056 57.0609 83.0224 56.4377C79.7392 55.8145 72.0632 56.3313 68.2784 56.4225C38.3192 57.1521 40.0671 68.2329 47.2263 69.3121C64.3111 71.8961 75.9695 70.0569 78.8575 69.7985C81.7455 69.5401 98.0551 67.9897 95.6079 64.5241H95.6232Z" fill="#502A85"/>
</g>
<path d="M32.6801 44.3227C33.2881 44.2771 33.8808 44.3227 34.428 44.3987C36.556 44.7179 38.1824 45.7363 38.1824 45.7363C44.916 40.0059 50.692 42.6507 50.692 42.6507C55.556 37.3763 64.7976 36.6011 64.7976 36.6011C66.576 30.6427 75.4376 29.7307 75.4376 29.7307C75.6048 28.3323 76.456 26.9491 77.1704 25.9763C77.7784 25.1707 78.2952 24.6387 78.2952 24.6387L59.8729 23.1947L49.8712 22.4043L42.2561 32.1019L32.6801 44.3227Z" fill="#FF2E2E"/>
<path d="M58.14 27.4056L59.66 29.944C59.66 29.944 64.372 35.0512 64.7824 36.6016C66.5608 30.6432 75.4224 29.7312 75.4224 29.7312C75.4224 29.7312 71.972 25.1864 68.6432 24.0464C65.3296 22.9064 58.14 27.4056 58.14 27.4056Z" fill="#FFAB58"/>
<path d="M38.1825 45.722C44.9161 39.9916 50.6921 42.6364 50.6921 42.6364C50.6921 42.6364 48.3209 33.0452 49.2329 30.5828C50.1449 28.1204 38.0913 38.4108 38.0913 38.4108C38.0913 38.4108 37.7721 44.0956 38.1825 45.7372V45.722Z" fill="#FFAB58"/>
<path d="M50.084 21.0215L66.2112 58.9759C66.3024 59.2039 66.2112 59.4623 65.968 59.5535C65.74 59.6447 65.4816 59.5535 65.3904 59.3103L49.2632 21.3559C49.172 21.1279 49.2632 20.8695 49.5064 20.7783C49.7344 20.6871 49.9928 20.7783 50.084 21.0215Z" fill="#EDA649"/>
<g style="mix-blend-mode:multiply" opacity="0.54">
<path d="M32.6801 44.3228C33.2881 44.2772 33.8808 44.3228 34.428 44.3988C38.7752 40.2036 46.1473 38.9116 46.1473 38.9116C53.7017 30.506 66.1657 30.2172 66.1657 30.2172C66.1657 30.2172 66.2112 29.7764 68.5824 28.1348C70.5128 26.7972 75.4377 26.1588 77.1857 25.9764C77.7937 25.1708 78.3104 24.6388 78.3104 24.6388L59.888 23.1948L42.2712 32.1172L32.6952 44.338L32.6801 44.3228Z" fill="#FF8205"/>
</g>
<path d="M32.6801 44.3226C32.6801 44.3226 35.5832 41.0242 38.3192 39.2762C41.0552 37.5282 44.2776 36.6011 44.2776 36.6011C44.3992 36.4947 48.2296 33.1051 53.6864 30.8251C59.2344 28.4995 64.7824 27.7395 64.7824 27.7395C64.7824 27.7395 66.5608 26.6907 69.0536 25.7331C71.5616 24.7755 78.2801 24.6387 78.2801 24.6387C78.2801 24.6387 76.3193 23.1491 72.9601 21.8267C68.4001 20.0179 61.2561 18.4674 52.9417 21.249C52.0601 21.5378 51.1785 21.8874 50.2817 22.2826C49.1721 22.769 48.1385 23.3011 47.1657 23.8483C40.3409 27.7699 36.6777 33.3634 34.7473 37.7106C33.0601 41.4954 32.6952 44.3379 32.6952 44.3379L32.6801 44.3226Z" fill="#FFBD7B"/>
<path d="M44.2776 36.5863C44.3992 36.4799 48.2296 33.0903 53.6864 30.8103C59.2344 28.4847 64.7824 27.7247 64.7824 27.7247C64.7824 27.7247 61.6816 23.4383 57.1064 21.8119C55.8296 21.3559 54.4312 21.1127 52.9416 21.2343C52.0296 21.3103 51.1024 21.5231 50.1448 21.9031C48.9288 22.3895 47.956 23.0583 47.1656 23.8335C45.448 25.5511 44.612 27.8159 44.2472 29.9743C43.6696 33.4399 44.2776 36.5863 44.2776 36.5863Z" fill="#FF6363"/>
<g style="mix-blend-mode:overlay" opacity="0.46">
<path d="M34.7321 37.696C38.3649 31.388 44.2473 29.9744 44.2473 29.9744C48.0169 22.3592 57.1065 21.812 57.1065 21.812C60.8001 18.848 72.7169 21.7512 72.9753 21.812C68.4153 20.0032 61.2713 18.4528 52.9569 21.2344C52.0449 21.3104 51.1177 21.5232 50.1601 21.9032C48.9441 22.3896 47.9713 23.0584 47.1809 23.8336C40.3561 27.7552 36.6929 33.3488 34.7625 37.696H34.7321Z" fill="white"/>
</g>
<path d="M55.7385 56.7725C55.7385 56.7725 62.6697 58.1557 69.4185 58.8549C70.8777 59.0069 72.3368 59.1285 73.7048 59.1893C74.4496 59.2197 75.164 59.2501 75.848 59.2501C77.292 59.2501 78.5993 59.1741 79.6633 58.9613C79.9825 58.9005 80.18 58.5965 80.1192 58.2773C80.0584 57.9581 79.7544 57.7605 79.4352 57.8213C78.4928 58.0037 77.2464 58.0949 75.848 58.0949C75.2248 58.0949 74.5712 58.0949 73.9024 58.0493C70.7104 57.9125 67.0016 57.4565 63.8096 56.9853C59.9336 56.4077 56.7873 55.7997 56.1033 55.6781C56.0121 55.6629 55.9664 55.6477 55.9664 55.6477C55.6472 55.5869 55.3432 55.7845 55.2824 56.1037C55.2216 56.4229 55.4193 56.7269 55.7385 56.7877V56.7725Z" fill="#AD9A3D"/>
<path d="M56.3617 63.9467C56.3617 64.0379 56.4377 64.2051 56.5745 64.2811C56.8025 64.3875 56.9393 64.4635 57.0457 64.4939C57.0913 64.4939 57.1369 64.5242 57.1825 64.5242C57.1825 64.5242 58.8089 63.1866 60.5721 61.7426C61.1345 61.2714 61.7425 60.7851 62.3201 60.3139C62.3657 60.2683 62.4265 60.2227 62.4873 60.1923C63.2017 59.5995 63.9009 59.0219 64.4937 58.5203C64.5849 58.4291 64.6761 58.3531 64.7673 58.2923C65.0257 58.0643 65.2537 57.8667 65.4513 57.7147C65.4513 57.7147 65.4614 57.7045 65.4817 57.6842C65.6641 57.517 65.8313 57.3955 65.9529 57.2587C66.0441 57.1979 66.1201 57.137 66.1809 57.0762C66.2113 57.0458 66.2721 57.0003 66.3177 56.9547L67.0625 56.2098C67.0625 56.2098 67.1993 56.0579 67.2905 55.9819C67.5185 55.7539 67.7769 55.4803 68.0809 55.1611C68.2785 54.9787 68.4761 54.7658 68.6889 54.5378C68.7193 54.5074 68.7497 54.4771 68.7801 54.4467C69.0233 54.1883 69.2817 53.9299 69.5553 53.6411C70.7561 52.3947 72.1545 50.9355 73.5529 49.4915C74.5865 48.4123 75.6201 47.3483 76.5625 46.3755C76.5929 46.3755 76.5929 46.3451 76.6233 46.3147C78.6905 44.1563 80.2561 42.5451 80.2561 42.5451C80.3929 42.3931 80.4993 42.1499 80.5145 41.9219C80.5145 41.7699 80.4841 41.6482 80.3473 41.6026C80.3169 41.6026 80.3169 41.6026 80.2865 41.6026C80.0889 41.557 79.6025 41.5419 79.4049 41.7395C79.4049 41.7395 79.2529 41.9067 78.9793 42.1651C78.7209 42.4539 78.3257 42.8491 77.8545 43.3203C76.9121 44.3083 75.6201 45.6458 74.2217 47.0898C71.7441 49.6586 68.9473 52.5619 67.1385 54.4011C66.9713 54.5835 66.8041 54.7658 66.6521 54.9026C66.6065 54.9634 66.5609 55.009 66.5001 55.0698C66.3329 55.237 66.1961 55.3739 66.0745 55.4955C65.8009 55.7843 65.5881 55.9818 65.4665 56.1034C65.4209 56.149 65.3753 56.1947 65.3601 56.1947C65.3145 56.2403 65.2385 56.301 65.1473 56.377C65.0561 56.4682 64.9345 56.5595 64.8129 56.6659C64.6761 56.7723 64.5393 56.8938 64.3873 57.0306C64.3873 57.0306 64.3569 57.061 64.3265 57.0762C64.1897 57.1978 64.0377 57.3043 63.8857 57.4411C63.6577 57.6235 63.4297 57.8211 63.1865 58.0187C62.7457 58.3987 62.2593 58.7938 61.7577 59.2042C61.6969 59.2498 61.6513 59.2955 61.5905 59.3411C61.5145 59.4019 61.4233 59.4626 61.3625 59.5234C61.3625 59.5234 61.3524 59.5234 61.3321 59.5234C61.2409 59.6146 61.1497 59.6755 61.0585 59.7515C59.3257 61.1651 57.5929 62.6091 56.8785 63.1715C56.6657 63.3387 56.5745 63.4451 56.5745 63.4451C56.4073 63.5819 56.3161 63.7186 56.3465 63.9162L56.3617 63.9467Z" fill="#FFF7CD"/>
<path d="M56.8329 64.3265C56.8329 64.3265 56.9697 64.4481 57.0457 64.4937C57.0913 64.4937 57.1369 64.5241 57.1825 64.5241C57.3497 64.5545 57.5321 64.5241 57.6689 64.4177C57.6689 64.4177 59.1585 63.2017 60.9369 61.7577C61.4841 61.3169 62.0313 60.8609 62.5937 60.4201C62.6241 60.3897 62.6697 60.3441 62.7001 60.3289C63.5817 59.6145 64.3873 58.9457 65.0713 58.3529C65.3601 58.1249 65.6033 57.9273 65.8313 57.7297C65.8921 57.6841 65.9377 57.6385 65.9985 57.5777C66.1049 57.4865 66.1961 57.4105 66.2873 57.3345C66.3785 57.2433 66.4697 57.1673 66.5305 57.1217L66.6521 57.0001C66.6521 57.0001 66.7737 56.8937 66.8345 56.8177L67.0929 56.5593C67.1841 56.4681 67.2753 56.3617 67.3817 56.2553C67.4729 56.1641 67.5945 56.0425 67.7009 55.9361C67.9289 55.7081 68.2025 55.4345 68.4913 55.1305C68.6737 54.9329 68.8865 54.7201 69.0993 54.5073C69.5553 54.0361 70.0569 53.5193 70.5737 52.9721C71.6073 51.9081 72.7473 50.7377 73.8721 49.5673C74.2065 49.2177 74.5257 48.8833 74.8601 48.5489C77.9153 45.3873 80.5905 42.6209 80.5905 42.6209C80.7273 42.4689 80.7881 42.2561 80.7425 42.0737C80.7121 41.9673 80.6665 41.8609 80.5753 41.7849C80.5145 41.7089 80.4233 41.6785 80.3473 41.6481C80.3169 41.6481 80.3169 41.6481 80.2865 41.6481C80.0889 41.6177 79.8913 41.6481 79.7545 41.8153C79.7545 41.8153 79.6025 41.9673 79.3289 42.2409C79.0705 42.5145 78.6905 42.9097 78.2193 43.3961C77.2617 44.3689 75.9697 45.7217 74.5865 47.1657C72.1545 49.6889 69.4185 52.5161 67.6097 54.3553C67.4273 54.5377 67.2449 54.7201 67.0929 54.8873L66.8649 55.1153C66.7433 55.2369 66.6369 55.3433 66.5305 55.4649L65.8465 56.1489L65.7553 56.2401C65.7553 56.2401 65.7249 56.2705 65.7097 56.2857C65.6033 56.3769 65.4209 56.5137 65.2081 56.7113C65.1169 56.7873 65.0257 56.8785 64.9193 56.9697C64.8737 57.0001 64.8281 57.0457 64.7673 57.0913C64.6153 57.1977 64.4633 57.3497 64.2809 57.4865C64.0529 57.6689 63.7945 57.8817 63.5361 58.0945C63.3689 58.2465 63.1713 58.3985 62.9737 58.5505C62.5785 58.9001 62.1681 59.2345 61.7577 59.5689C61.7121 59.5993 61.6665 59.6449 61.6057 59.6753C61.5145 59.7513 61.4385 59.8121 61.3625 59.8881C59.6601 61.2713 57.9881 62.6545 57.2737 63.2169C57.0457 63.3841 56.9241 63.4905 56.9241 63.4905C56.6809 63.6881 56.6353 64.0529 56.8329 64.3113V64.3265Z" fill="#C4B773"/>
<g style="mix-blend-mode:multiply" opacity="0.13">
<path d="M73.7201 59.189C74.4649 59.2194 75.1793 59.2498 75.8633 59.2498C77.3073 59.2498 78.6145 59.1738 79.6785 58.961C79.9977 58.9002 80.1953 58.5962 80.1345 58.277C80.0737 57.9578 79.7697 57.7602 79.4505 57.821C78.5081 58.0034 77.2617 58.0946 75.8633 58.0946C75.2401 58.0946 74.5865 58.0946 73.9177 58.049C73.8417 58.4442 73.7657 58.8698 73.7201 59.2042V59.189Z" fill="#41267A"/>
</g>
<path d="M78.0065 59.2352L85.1657 63.2024L86.3209 63.8408C86.6097 63.9928 86.9593 63.9016 87.1113 63.6128C87.2633 63.324 87.1721 62.9744 86.8833 62.8224L78.7057 58.2928L78.5689 58.2167C78.2801 58.0647 77.9305 58.156 77.7785 58.4448C77.6265 58.7336 77.7177 59.0832 78.0065 59.2352Z" fill="#B4A24C"/>
<path d="M55.4952 56.5445C55.4952 56.5445 55.708 56.6661 55.9816 56.8181C56.2552 56.9701 56.6048 57.1525 57.0456 57.3805C57.1976 57.4413 57.3344 57.5325 57.4864 57.6085C58.216 57.9733 59.0368 58.3989 59.8728 58.8245C60.0248 58.9005 60.1616 58.9765 60.3136 59.0525C60.6784 59.2349 61.028 59.4173 61.3472 59.5845C61.3776 59.5845 61.3776 59.6149 61.408 59.6149C61.4688 59.6453 61.5144 59.6757 61.5752 59.7061C61.6664 59.7669 61.7576 59.7973 61.8488 59.8581C62.0768 59.9797 62.2744 60.0861 62.472 60.2077C62.548 60.2381 62.624 60.2989 62.6848 60.3293C62.7304 60.3597 62.776 60.3749 62.8064 60.4053C62.9432 60.4813 63.0496 60.5421 63.1712 60.6029C63.308 60.6789 63.4296 60.7397 63.536 60.7853C63.5816 60.8157 63.6272 60.8157 63.6576 60.8309C63.688 60.8309 63.688 60.8613 63.7184 60.8613C63.7488 60.8917 63.7792 60.8917 63.8096 60.8917C63.84 60.9221 63.8552 60.9221 63.8552 60.9221C64.0528 60.9221 65.7248 61.0589 67.9744 60.9221C68.0352 60.9221 68.096 60.9221 68.1568 60.9221C70.528 60.7853 73.4768 60.3597 75.924 59.2805C76.4256 59.0525 76.912 58.7941 77.368 58.5205C77.4136 58.4901 77.4896 58.4293 77.596 58.3533C77.7176 58.2621 77.8392 58.1557 77.9912 58.0341C78.7664 57.3653 79.876 56.2101 81.092 54.8573C84.2992 51.2701 88.2056 46.3605 88.236 45.8741C88.236 45.7069 87.856 45.4485 87.2328 45.1445C87.1872 45.1141 87.1416 45.0989 87.0808 45.0685C86.9896 45.0229 86.8832 44.9773 86.7768 44.9165C86.6248 44.8405 86.4728 44.7645 86.2904 44.6885C86.0016 44.5669 85.6976 44.4301 85.3936 44.2933C85.2264 44.2325 85.0896 44.1565 84.9224 44.0805C84.4968 43.9133 84.0864 43.7157 83.676 43.5485C83.5696 43.5029 83.4632 43.4573 83.3568 43.3965C83.3112 43.3661 83.2656 43.3661 83.2352 43.3357C83.1288 43.2901 83.0072 43.2293 82.9008 43.1685C82.4296 42.9405 82.0192 42.7125 81.6392 42.5149C81.472 42.4237 81.3352 42.3477 81.1984 42.2869C81.0312 42.1957 80.8944 42.1197 80.7728 42.0589C80.6816 42.0285 80.6056 41.9829 80.5448 41.9677C80.408 41.9069 80.3016 41.8765 80.2408 41.8765C79.8912 41.9069 78.4928 43.9589 76.6536 46.3605C76.6232 46.3909 76.6232 46.4061 76.5928 46.4213C76.076 47.1053 75.5136 47.8349 74.9208 48.5341C73.5224 50.2517 72.0328 51.8933 70.6344 52.9573C70.2696 53.2461 69.92 53.4741 69.5856 53.6717C69.312 53.8389 69.0384 53.9605 68.78 54.0365C68.4912 54.1277 68.1264 54.2341 67.6704 54.3253C67.5184 54.3557 67.3816 54.3861 67.2144 54.4165C64.0376 55.0245 58.2312 55.5565 56.4376 55.7237C56.088 55.7541 55.8904 55.7693 55.8904 55.7693C55.8904 55.7693 55.0392 56.0277 55.5256 56.5445H55.4952Z" fill="#FFF5FE"/>
<path d="M63.1712 60.5726C63.308 60.6486 63.4296 60.7094 63.536 60.755C63.5816 60.7854 63.6272 60.7854 63.6576 60.8006C63.6576 60.8006 63.688 60.7702 63.7032 60.7702C63.7336 60.7702 63.7336 60.7398 63.764 60.7398C63.7944 60.7398 63.8096 60.7094 63.8552 60.7094C64.068 60.5726 64.3568 60.451 64.7064 60.3142C64.752 60.3142 64.7976 60.2838 64.8432 60.2686C64.8432 60.2686 64.8736 60.2686 64.8888 60.2382C65.664 59.9494 66.6976 59.6758 67.8072 59.4174C68.5216 59.2502 69.2816 59.0678 70.0264 58.9158C71.6984 58.5662 73.4008 58.2622 74.6624 58.0494C74.7536 58.0494 74.8296 58.019 74.9056 58.019C75.4224 57.9278 75.9848 57.6542 76.5928 57.2438C77.2008 56.8334 77.8544 56.2862 78.5232 55.663C79.8608 54.4014 81.3048 52.7902 82.612 51.1942C82.8096 50.951 83.0224 50.7078 83.2048 50.4494C85.1504 48.0478 86.7464 45.8134 87.2328 45.1142C87.1872 45.0838 87.1416 45.0686 87.0808 45.0382C86.9896 44.9926 86.8832 44.947 86.7768 44.8862C86.6856 45.0382 86.5336 45.251 86.3512 45.4942C85.956 46.0566 85.3784 46.8318 84.6792 47.759C84.2992 48.2606 83.8584 48.823 83.4024 49.3854C82.2624 50.8294 80.9704 52.395 79.6936 53.763C78.508 55.0398 77.3224 56.1494 76.3192 56.8182C75.7416 57.1982 75.2248 57.4414 74.8144 57.5022C74.1304 57.6086 73.2792 57.7454 72.3824 57.9278C71.1208 58.1558 69.7376 58.4294 68.4304 58.7334C67.6096 58.931 66.804 59.1286 66.0744 59.3414C65.1928 59.5846 64.4328 59.843 63.8856 60.1014C63.5664 60.2534 63.3232 60.3902 63.156 60.5726H63.1712Z" fill="#8A88ED"/>
<path d="M61.4232 59.5995C61.5752 59.6755 61.7272 59.7667 61.864 59.8427C61.8944 59.8123 61.9248 59.7819 61.9704 59.7363C62.1528 59.5691 62.5328 59.2955 63.308 58.9611C64.8584 58.2923 67.9592 57.3955 74.1152 56.5139C74.3128 56.4835 74.5104 56.4075 74.708 56.2859C74.9208 56.1795 75.1488 56.0123 75.392 55.8299C75.8784 55.4651 76.4256 54.9635 77.0032 54.3707C78.1736 53.2003 79.496 51.6803 80.7576 50.1603C83.0072 47.4547 85.0136 44.7795 85.4088 44.2475C85.2568 44.1867 85.0896 44.1107 84.9376 44.0347C84.8464 44.1563 84.6944 44.3539 84.512 44.5971C84.1472 45.0683 83.6304 45.7523 83.0224 46.5275C81.7912 48.0931 80.18 50.0995 78.6296 51.8779C77.596 53.0483 76.5776 54.1275 75.7264 54.8875C75.24 55.3131 74.8144 55.6475 74.48 55.8299C74.2976 55.9211 74.1456 55.9819 74.0544 55.9971C69.4184 56.6659 66.5 57.3347 64.6456 57.9275C62.7912 58.5203 62.0008 59.0067 61.636 59.3411C61.5448 59.4323 61.4688 59.5083 61.4384 59.5843L61.4232 59.5995Z" fill="#8A88ED"/>
<path d="M59.8881 58.7938C60.0401 58.8698 60.1769 58.9458 60.3289 59.0218C60.3593 58.9306 60.4201 58.8546 60.4961 58.7634C60.6329 58.5962 60.8305 58.4442 61.0737 58.277C61.5601 57.9578 62.2593 57.669 63.0801 57.4258C63.4905 57.3042 63.9161 57.1978 64.3721 57.0762C64.5393 57.0306 64.7369 56.985 64.9193 56.9546C65.4817 56.8178 66.0897 56.6962 66.6825 56.5898C66.8345 56.5594 66.9713 56.5442 67.1233 56.5138C67.6553 56.4226 68.1721 56.3162 68.6889 56.225C69.9657 56.0122 71.1665 55.8146 72.1241 55.6018C72.6713 55.4954 73.1273 55.3738 73.4769 55.237C73.5377 55.2066 73.5833 55.1762 73.6441 55.1458C73.7049 55.1154 73.7657 55.0546 73.8265 54.9938C73.9633 54.8874 74.1153 54.7354 74.2825 54.553C74.6473 54.1882 75.0729 53.7018 75.5593 53.1394C76.5321 51.9994 77.7481 50.5098 78.9185 49.0354C80.8793 46.573 82.7489 44.141 83.2961 43.4266C83.3265 43.3962 83.3417 43.381 83.3569 43.3506C83.3113 43.3202 83.2657 43.3202 83.2353 43.2898C83.1289 43.2442 83.0073 43.1834 82.9009 43.1226C82.7793 43.2898 82.6121 43.5178 82.3993 43.7914C81.9737 44.3538 81.3657 45.129 80.6665 46.0258C79.2681 47.8042 77.5049 50.0234 76.0457 51.7866C75.0577 52.957 74.2065 53.945 73.6897 54.4466C73.5529 54.5682 73.4465 54.6746 73.3705 54.7354C73.3401 54.7658 73.2945 54.7658 73.2945 54.7658C72.9145 54.9178 72.3369 55.0546 71.6377 55.1914C70.9385 55.3282 70.1025 55.4802 69.2361 55.617C68.7497 55.7082 68.2481 55.7842 67.7465 55.8602C67.5945 55.8906 67.4577 55.921 67.3057 55.9514C66.7737 56.0426 66.2417 56.1338 65.7249 56.2402C65.5577 56.2706 65.3753 56.3162 65.2081 56.3466C64.7369 56.4378 64.2809 56.5594 63.8401 56.6658C62.7153 56.9546 61.7121 57.289 60.9825 57.7298C60.5569 57.9578 60.2225 58.2466 60.0097 58.581C59.9793 58.6266 59.9337 58.6874 59.9185 58.7482L59.8881 58.7938Z" fill="#8A88ED"/>
<path d="M57.0609 57.3655C57.2129 57.4263 57.3497 57.5175 57.5017 57.5935C57.5017 57.5935 57.5321 57.5631 57.5321 57.5479C57.5625 57.5023 57.6233 57.4567 57.7145 57.3959C57.8817 57.2743 58.1249 57.1679 58.4289 57.0463C59.0521 56.8183 59.9489 56.6055 60.9521 56.3927C62.5025 56.0887 64.3721 55.7999 66.1049 55.5111C66.2569 55.5111 66.3937 55.4807 66.5305 55.4503C66.8953 55.4047 67.2601 55.3439 67.6097 55.2831C67.7617 55.2527 67.8985 55.2375 68.0353 55.1919C68.1873 55.1919 68.3241 55.1463 68.4761 55.1159C69.5401 54.9183 70.4521 54.7055 71.1209 54.4927C71.5313 54.3407 71.9873 54.0519 72.4889 53.6415C72.9753 53.2463 73.5225 52.7295 74.0849 52.1367C75.2249 50.9511 76.4257 49.4919 77.5505 48.0479C79.5721 45.4639 81.2897 42.9863 81.6089 42.5151C81.4417 42.4239 81.3049 42.3479 81.1681 42.2871C81.1377 42.3175 81.1225 42.3327 81.1073 42.3783C81.0161 42.5151 80.8793 42.7127 80.6969 42.9559C80.3473 43.4423 79.8457 44.1415 79.2681 44.9623C78.0825 46.5735 76.5169 48.6255 75.0121 50.3735C73.9937 51.5439 73.0057 52.5775 72.1697 53.2615C71.6985 53.6415 71.2729 53.9151 70.9537 54.0215C70.4977 54.1887 69.8593 54.3407 69.0993 54.4927H69.0689C68.9321 54.5231 68.7953 54.5383 68.6433 54.5687C68.1569 54.6599 67.6249 54.7663 67.0929 54.8575C66.9409 54.8575 66.8041 54.8879 66.6673 54.9183C66.6217 54.9183 66.5761 54.9183 66.5305 54.9487C64.6913 55.2375 62.6849 55.5567 60.9825 55.8911C59.8577 56.1191 58.8697 56.3471 58.1553 56.6207C57.7449 56.7879 57.4257 56.9399 57.1977 57.1527C57.1217 57.2135 57.0609 57.2895 57.0153 57.3807L57.0609 57.3655Z" fill="#8A88ED"/>
<g style="mix-blend-mode:multiply" opacity="0.17">
<path d="M83.6305 46.132C83.6457 45.9952 83.6305 45.8736 83.6305 45.752C83.6153 45.5696 83.6153 45.3872 83.6153 45.2048H83.6001C83.5545 44.3992 83.4329 43.7912 83.2961 43.4416C83.2809 43.396 83.2657 43.3504 83.2353 43.3048C83.1289 43.2592 83.0225 43.1984 82.9009 43.1528C82.4297 42.9248 82.0193 42.6968 81.6545 42.4992C81.6089 42.4688 81.5633 42.4384 81.5177 42.4232C81.4113 42.3624 81.3049 42.3016 81.1985 42.256C81.0465 42.1648 80.8945 42.104 80.7729 42.0432C80.7425 41.9216 80.6969 41.8304 80.6057 41.7544C80.5449 41.6784 80.4689 41.648 80.3777 41.6176C80.3473 41.6176 80.3321 41.6176 80.3169 41.6176C80.2865 41.6024 80.2409 41.6024 80.1801 41.6024C79.9521 41.572 79.6025 41.5872 79.4353 41.7544C79.4353 41.7544 79.2833 41.9216 79.0249 42.18C78.8273 42.3928 78.5689 42.6664 78.2497 42.9856C78.1433 43.092 78.0369 43.1984 77.9153 43.32C77.9153 43.32 77.9102 43.3302 77.9001 43.3504C77.0489 44.2472 75.8785 45.4328 74.6321 46.74C74.5105 46.8616 74.3889 46.9832 74.2673 47.1048C74.1913 47.1808 74.1153 47.272 74.0393 47.348H74.0241C73.7961 47.6064 73.5681 47.8344 73.3249 48.0776C72.6865 48.7312 72.0481 49.4153 71.4097 50.0689C71.1969 50.2969 70.9689 50.5248 70.7561 50.7528C70.6649 50.844 70.5889 50.9201 70.4825 51.0417H70.4673C70.4673 51.0417 70.3609 51.1633 70.3153 51.2089C69.6313 51.9081 68.9777 52.5768 68.3849 53.1848C68.0961 53.4736 67.8073 53.7624 67.5489 54.036C67.4273 54.1728 67.3057 54.2944 67.1841 54.416C66.9561 54.4616 66.6977 54.5072 66.4393 54.5528C66.1353 54.5984 65.8465 54.644 65.5121 54.7048C65.3145 54.7352 65.1017 54.7656 64.8889 54.796H64.8737C64.7369 54.8112 64.6001 54.8416 64.4481 54.8568H64.4025C64.1289 54.8872 63.8401 54.9328 63.5361 54.9632C63.3385 54.9936 63.1561 55.0088 62.9585 55.0392C62.3809 55.1 61.8337 55.176 61.2713 55.2368C60.8457 55.2976 60.4201 55.328 60.0097 55.3736C59.7209 55.404 59.4169 55.4344 59.1281 55.4648H59.0673C58.8849 55.4952 58.7329 55.4952 58.5657 55.5256C58.5049 55.5256 58.4441 55.5408 58.3985 55.5408C58.0793 55.5712 57.7905 55.6016 57.5321 55.6168C57.2585 55.6472 57.0153 55.6624 56.8025 55.6928C56.6809 55.6928 56.5593 55.708 56.4681 55.7232H56.4073C56.0729 55.7536 55.8753 55.7689 55.8753 55.7689C55.8753 55.7689 55.0241 56.0272 55.4953 56.544C55.5257 56.5744 55.7081 56.6808 55.9969 56.8176C56.0121 56.8176 56.0273 56.8176 56.0425 56.8176C56.2249 56.9392 56.4529 57.0608 56.7265 57.1976H56.7417C56.8329 57.228 56.9089 57.2888 57.0001 57.3344C57.0153 57.3496 57.0457 57.3496 57.0609 57.3648C57.1369 57.3952 57.2129 57.4408 57.3041 57.4864C57.3649 57.5168 57.4409 57.5472 57.5017 57.5776C57.7145 57.6992 57.9273 57.8056 58.1705 57.912C58.7025 58.2008 59.2953 58.4896 59.8729 58.7936C60.0249 58.8696 60.1769 58.9457 60.3289 59.0217C60.4353 59.0825 60.5265 59.1433 60.6329 59.1889H60.6785C60.6785 59.1889 60.8001 59.2649 60.8609 59.2953C60.9217 59.3257 60.9977 59.3713 61.0585 59.4017C61.1649 59.4625 61.2561 59.508 61.3625 59.5536C61.2713 59.6448 61.1801 59.7057 61.0889 59.7817C60.6633 60.1313 60.2225 60.496 59.8121 60.8304L59.5841 61.0128H59.5689C59.3561 61.2104 59.1585 61.3776 58.9609 61.5448C58.7937 61.6816 58.6265 61.8032 58.4897 61.9248C58.4441 61.9704 58.3985 62.0008 58.3681 62.0312C58.2921 62.092 58.2161 62.1528 58.1401 62.2136H58.1249C57.9577 62.3504 57.8057 62.472 57.6689 62.5784C57.3649 62.8368 57.0913 63.0497 56.9089 63.2017C56.6961 63.3689 56.6049 63.4753 56.6049 63.4753C56.4377 63.6121 56.3313 63.7336 56.3617 63.9312C56.3769 64.0376 56.4377 64.2048 56.5745 64.2656C56.8025 64.3872 56.9393 64.4632 57.0457 64.4784C57.0913 64.4936 57.1217 64.524 57.1825 64.524C57.3497 64.5544 57.5169 64.524 57.6537 64.4024C57.6537 64.4024 59.1585 63.1864 60.9217 61.7424C61.4689 61.3016 62.0313 60.8456 62.5785 60.3896C62.6241 60.3592 62.6545 60.3288 62.7001 60.2984C62.7457 60.3288 62.7761 60.344 62.8217 60.3744C62.9585 60.4504 63.0649 60.5112 63.1713 60.572C63.3081 60.648 63.4297 60.7088 63.5361 60.7544C63.5817 60.7848 63.6121 60.7848 63.6577 60.8C63.6729 60.8152 63.6881 60.8152 63.7033 60.8304C63.7033 60.8304 63.7641 60.8608 63.7945 60.8608C63.8249 60.8912 63.8401 60.8912 63.8401 60.8912H63.8553C64.0529 60.9064 65.7249 61.028 67.9745 60.8912H68.0353C68.0353 60.8912 68.0961 60.8912 68.1265 60.8912H68.1721C68.5369 60.876 68.8713 60.8456 69.2361 60.8C69.3729 60.8 69.5249 60.7848 69.6617 60.7696C69.8897 60.7544 70.1177 60.7088 70.3457 60.6784C70.6193 60.6632 70.8929 60.6176 71.1817 60.572C71.3185 60.5568 71.4401 60.5264 71.5617 60.5112C71.6833 60.4808 71.8049 60.4657 71.9417 60.4353C72.0937 60.4049 72.2305 60.3896 72.3825 60.344C72.5041 60.344 72.6257 60.3136 72.7473 60.2832C72.7777 60.268 72.8233 60.268 72.8537 60.2528C72.8537 60.2528 72.8537 60.2528 72.8689 60.2528C73.0361 60.2376 73.2033 60.1768 73.3705 60.1312C73.4161 60.1312 73.4313 60.116 73.4617 60.1008C73.6441 60.0552 73.8265 60.0096 74.0089 59.964C74.3129 59.8728 74.6169 59.7665 74.9209 59.6753L74.9361 59.66C75.0577 59.6296 75.1641 59.5688 75.2705 59.5232H75.3009C75.5137 59.4472 75.7265 59.356 75.9241 59.2648C75.9241 59.2648 75.9292 59.2598 75.9393 59.2496C75.9393 59.2496 76.0001 59.2192 76.0457 59.204H76.0913C76.0913 59.204 76.1521 59.1736 76.1825 59.1432H76.1977C76.1977 59.1432 76.2585 59.1128 76.2889 59.0976C76.3193 59.0824 76.3497 59.0672 76.3801 59.052C76.3801 59.052 76.3953 59.052 76.3953 59.0368C76.5321 58.976 76.6689 58.9 76.8057 58.824C76.9881 58.7176 77.1705 58.6112 77.3681 58.5048C77.4137 58.4592 77.4897 58.4136 77.5809 58.3376C77.6417 58.292 77.7025 58.2616 77.7785 58.2008C77.8545 58.14 77.9457 58.0792 78.0217 58.0184H78.0369C78.0369 58.0184 78.0369 58.0184 78.0369 58.0032H78.0521C78.5689 57.5928 79.2529 56.9696 79.9825 56.164C80.0129 56.1184 80.0585 56.0728 80.1041 56.0272C80.1497 55.9816 80.1953 55.9209 80.2409 55.8753C80.5145 55.5561 80.7881 55.2216 81.0617 54.8568C81.0921 54.8264 81.1073 54.7808 81.1377 54.7504C81.2745 54.5528 81.4113 54.3704 81.5481 54.1576C81.6545 53.9752 81.7761 53.7928 81.8825 53.6104C82.0801 53.276 82.2625 52.9112 82.4449 52.5312C82.4905 52.4248 82.5361 52.3336 82.5665 52.2424C82.6425 52.1056 82.7033 51.9689 82.7489 51.8017C82.7489 51.8017 82.7945 51.68 82.8249 51.6344C82.9617 51.2696 83.0833 50.8744 83.1745 50.464C83.2201 50.2664 83.2657 50.084 83.3113 49.8864C83.3265 49.7344 83.3569 49.5825 83.3873 49.4153C83.4025 49.2785 83.4329 49.1264 83.4481 48.9744C83.5697 48.1688 83.6153 47.348 83.6153 46.588V46.2384C83.6153 46.2384 83.6153 46.1776 83.6001 46.1624L83.6305 46.132ZM73.0513 50.4184C73.3401 50.1144 73.6289 49.8256 73.9177 49.5216C74.2369 49.1872 74.5713 48.8528 74.8905 48.5184C74.5409 48.944 74.1913 49.3696 73.8265 49.78C73.6441 49.9928 73.4617 50.1904 73.2793 50.388C72.9297 50.7832 72.5649 51.1632 72.2153 51.5128C72.1849 51.5432 72.1545 51.5737 72.1393 51.5889C71.9873 51.7409 71.8201 51.8928 71.6681 52.0296C71.4857 52.212 71.3185 52.364 71.1361 52.5008C70.9689 52.6528 70.7865 52.7896 70.6193 52.9264C71.1209 52.4248 71.6377 51.8928 72.1545 51.3456C72.4585 51.0416 72.7473 50.7376 73.0513 50.4184Z" fill="#513785"/>
</g>
<path d="M87.9929 46.3756C87.9929 46.3756 84.5729 49.9172 81.0465 53.5652C79.2833 55.3892 77.4897 57.2436 76.0913 58.6876C75.3921 59.4172 74.7841 60.0252 74.3281 60.4964C74.1001 60.7244 73.9025 60.922 73.7505 61.074C73.6745 61.15 73.6137 61.2108 73.5529 61.2716C73.4921 61.3172 73.4617 61.3628 73.4161 61.3932C73.2641 61.53 73.0209 61.7428 72.6865 62.0164C71.5465 62.9892 69.4337 64.722 67.5945 66.2116C65.7553 67.7012 64.0681 69.0996 64.0681 69.0996C64.0681 69.0996 63.9009 69.0844 63.4449 68.8412C63.3081 68.7652 63.2473 68.598 63.2321 68.4916C63.2017 68.294 63.3081 68.1572 63.4753 68.0052C63.4753 68.0052 63.5665 67.8988 63.7945 67.7316C64.5697 67.0932 66.5457 65.4972 68.4305 63.9468C69.3729 63.1716 70.3001 62.4116 71.0449 61.7884C71.4249 61.4844 71.7441 61.1956 72.0177 60.9828C72.2761 60.7548 72.4737 60.5876 72.5801 60.4964C72.5953 60.4812 72.6409 60.4356 72.6865 60.39C72.8841 60.2076 73.2489 59.8276 73.7657 59.3108C75.5289 57.5172 78.8729 54.0668 81.7609 51.0724C83.2049 49.5676 84.5425 48.1844 85.5153 47.1812C86.0017 46.6796 86.3969 46.2692 86.6705 45.9804C86.9441 45.6916 87.0961 45.5396 87.0961 45.5396C87.3241 45.2964 87.9169 45.342 88.0689 45.4028C88.3729 45.5244 88.1905 46.1476 87.9625 46.3756H87.9929Z" fill="#FFF7CD"/>
<path d="M88.3577 46.4061C88.3577 46.4061 84.9377 49.9477 81.4113 53.5957C79.6481 55.4197 77.8545 57.2741 76.4561 58.7181C75.7569 59.4477 75.1489 60.0557 74.6929 60.5269C74.4649 60.7549 74.2673 60.9525 74.1153 61.1045C74.0393 61.1805 73.9785 61.2413 73.9177 61.3021C73.8569 61.3477 73.8265 61.3933 73.7809 61.4237C73.6289 61.5605 73.3857 61.7733 73.0513 62.0469C71.9113 63.0197 69.7985 64.7525 67.9593 66.2421C66.1201 67.7317 64.5849 68.9933 64.5849 68.9933C64.3265 69.2061 63.9465 69.1605 63.7337 68.9021C63.5209 68.6437 63.5665 68.2637 63.8249 68.0509C63.8249 68.0509 63.9465 67.9445 64.1745 67.7621C64.9497 67.1237 66.9257 65.5277 68.8105 63.9773C69.7529 63.2021 70.6801 62.4421 71.4249 61.8189C71.8049 61.5149 72.1241 61.2261 72.3977 61.0133C72.6561 60.7853 72.8537 60.6181 72.9601 60.5269C72.9753 60.5117 73.0209 60.4661 73.0665 60.4205C73.2641 60.2381 73.6289 59.8581 74.1457 59.3413C75.9089 57.5477 79.2529 54.0973 82.1409 51.1029C83.5849 49.5981 84.9225 48.2149 85.8953 47.2117C86.3817 46.7101 86.7769 46.2997 87.0505 46.0109C87.3241 45.7221 87.4761 45.5701 87.4761 45.5701C87.7041 45.3269 88.0841 45.3269 88.3273 45.5549C88.5705 45.7829 88.5705 46.1629 88.3425 46.4061H88.3577Z" fill="#FFE973"/>
<path d="M82.4753 51.9536L87.3393 63.0952C87.4609 63.384 87.3393 63.7336 87.0353 63.8704C86.7465 63.992 86.3969 63.8704 86.2601 63.5664L81.3961 52.4248C81.2745 52.136 81.3961 51.7864 81.7001 51.6496C81.9889 51.528 82.3385 51.6496 82.4753 51.9536Z" fill="#FFF3B0"/>
<g style="mix-blend-mode:multiply" opacity="0.13">
<path d="M78.0065 59.2347L85.1657 63.2019L85.7129 62.8827C85.7129 62.8827 78.2953 59.0219 78.3257 58.7179C78.3561 58.4291 78.6905 58.2923 78.7057 58.2771L78.5689 58.2011C78.2801 58.0491 77.9305 58.1403 77.7785 58.4291C77.6265 58.7179 77.7177 59.0675 78.0065 59.2195V59.2347Z" fill="#675195"/>
</g>
<path d="M87.7345 63.9167C87.7345 63.9167 87.6281 63.9167 87.4457 63.9167C85.6673 63.9167 75.6961 63.7951 64.1441 61.2871C63.8249 61.2111 63.6273 60.9071 63.7033 60.5879C63.7793 60.2687 64.0833 60.0711 64.4025 60.1471C75.8329 62.6399 85.7281 62.7463 87.4609 62.7463C87.5521 62.7463 87.6129 62.7463 87.6585 62.7463C87.6737 62.7463 87.7041 62.7463 87.7041 62.7463H87.7193C88.0385 62.7463 88.3121 63.0047 88.3121 63.3239C88.3121 63.6431 88.0537 63.9167 87.7345 63.9167Z" fill="#FFF7CD"/>
<path d="M87.8865 63.9773C87.8865 63.9773 87.78 63.9773 87.5976 63.9773C85.8192 63.9773 75.8481 63.8557 64.2961 61.3477C63.9769 61.2717 63.7793 60.9677 63.8553 60.6485C63.9313 60.3293 64.2353 60.1317 64.5545 60.2077C75.9849 62.7005 85.8801 62.8069 87.6129 62.8069C87.7041 62.8069 87.7648 62.8069 87.8104 62.8069C87.8256 62.8069 87.8561 62.8069 87.8561 62.8069H87.8713C88.1905 62.8069 88.4641 63.0653 88.4641 63.3845C88.4641 63.7037 88.2057 63.9773 87.8865 63.9773Z" fill="#FFF3B0"/>
<path d="M72.0024 62.4116C72.1619 62.4116 72.2912 62.2823 72.2912 62.1228C72.2912 61.9633 72.1619 61.834 72.0024 61.834C71.8429 61.834 71.7136 61.9633 71.7136 62.1228C71.7136 62.2823 71.8429 62.4116 72.0024 62.4116Z" fill="#B6A552"/>
<path d="M81.9432 52.5009C82.1027 52.5009 82.232 52.3716 82.232 52.2121C82.232 52.0526 82.1027 51.9233 81.9432 51.9233C81.7837 51.9233 81.6544 52.0526 81.6544 52.2121C81.6544 52.3716 81.7837 52.5009 81.9432 52.5009Z" fill="#B6A552"/>
<path d="M86.8072 63.6577C86.9667 63.6577 87.096 63.5284 87.096 63.3689C87.096 63.2094 86.9667 63.0801 86.8072 63.0801C86.6477 63.0801 86.5184 63.2094 86.5184 63.3689C86.5184 63.5284 86.6477 63.6577 86.8072 63.6577Z" fill="#B6A552"/>
</svg>
