<svg width="73" height="76" viewBox="0 0 73 76" fill="none" xmlns="http://www.w3.org/2000/svg">
<path d="M21.3784 5.41601C21.3784 5.41601 23.2181 1.96665 28.2872 0.676887C28.2872 0.676887 33.3363 -0.252942 35.8258 0.0669988C38.3153 0.38694 43.3844 1.64671 45.404 4.83612L21.3784 5.41601Z" fill="#57F0D7"/>
<path d="M24.5478 2.60655C24.5478 2.60655 26.9374 0.746896 33.4162 0.576928C39.0052 0.436953 42.6245 2.60655 42.6245 2.60655C42.6245 2.60655 43.7443 3.18645 43.8343 5.23607C43.9243 7.28569 42.7245 11.7849 40.3849 12.2448C38.0454 12.7047 28.5571 13.7945 26.3175 12.1448C24.0779 10.4951 20.5386 5.10609 24.5478 2.60655Z" fill="#317279"/>
<g style="mix-blend-mode:multiply" opacity="0.51">
<path d="M24.5079 10.0951C24.5079 10.0951 25.4277 5.77594 30.1268 5.426C34.8259 5.07607 42.3846 5.9759 43.2544 7.74558C44.1242 9.51525 38.9552 12.4347 38.9552 12.4347C38.9552 12.4347 27.9672 13.7245 26.3075 12.1648C24.6478 10.605 24.4979 10.1051 24.4979 10.1051L24.5079 10.0951Z" fill="#9FB1CC"/>
</g>
<path d="M56.4019 70.444C54.9422 72.5336 52.0827 73.8534 48.8733 74.6832C41.9146 76.4629 33.2462 75.923 33.2462 75.923C33.2462 75.923 19.7487 76.7628 12.9199 72.8836C11.7501 72.2137 10.7803 71.4238 10.1004 70.454C7.5309 66.7847 9.1806 49.1379 12.0301 34.1707C12.8199 30.0015 13.7498 26.0422 14.6196 22.6528C16.2593 16.264 17.709 11.8748 17.709 11.8748L26.1275 10.585C26.2474 10.1451 26.4274 9.7652 26.6574 9.45525C26.6574 9.43526 26.6674 9.42526 26.6674 9.42526C26.8673 9.14531 27.0873 8.91535 27.3172 8.72539C27.4672 8.59541 27.6172 8.48543 27.7572 8.38545C27.7572 8.38545 27.7572 8.38545 27.7672 8.38545C27.8372 8.33546 27.9071 8.29547 27.9771 8.26547C28.437 8.02552 28.9469 7.92554 29.4569 7.92554H37.0954C37.5554 7.92554 38.0153 8.01552 38.4252 8.22548C38.4852 8.25548 38.5452 8.29547 38.5952 8.32546C38.5952 8.32546 38.5952 8.32546 38.6052 8.32546C38.7551 8.41545 38.9251 8.52543 39.0851 8.6454C39.505 8.96534 39.9149 9.42526 40.1849 10.0351C40.2649 10.2151 40.3248 10.3951 40.3748 10.585L48.7933 11.8748C48.7933 11.8748 48.9233 12.0748 49.0332 12.4347C49.6731 14.4543 51.8427 21.753 53.5824 30.5314C53.9623 32.451 54.3323 34.4406 54.6822 36.4503C57.2117 50.8876 58.8414 66.9647 56.4019 70.454V70.444Z" fill="#47D8C1"/>
<g style="mix-blend-mode:multiply">
<path d="M18.6189 56.0867C18.6189 56.0867 16.7893 58.8062 15.9194 59.556C15.0496 60.3059 11.1403 63.8552 11.1403 63.8552L12.4001 64.2552L16.7993 60.7258C16.7993 60.7258 18.9089 56.8665 18.6089 56.0867H18.6189Z" fill="#A5B2CF"/>
</g>
<path d="M19.9986 56.1067L18.9788 55.8667C18.7489 55.8167 18.5089 55.9367 18.4189 56.1567C17.939 57.3765 16.0894 61.1957 11.2003 63.7653C11.0403 63.8453 10.9403 64.0052 10.9403 64.1852V65.115C10.9403 65.475 11.3202 65.7049 11.6502 65.5449C12.66 65.015 14.6396 63.8053 16.7992 61.5857C18.9588 59.3661 19.9487 57.6064 20.3286 56.7766C20.4586 56.4966 20.2986 56.1767 19.9986 56.1067Z" fill="#57F0D7"/>
<path d="M38.6151 8.30545C37.6353 9.34526 35.4157 9.93516 33.956 9.93516C30.5166 9.93516 28.667 9.05532 27.7571 8.37544C27.7571 8.37544 27.7571 8.37544 27.7671 8.37544C27.8371 8.32545 27.9071 8.28546 27.9771 8.25546C28.437 8.01551 28.9469 7.91553 29.4568 7.91553H37.0954C37.5553 7.91553 38.0152 8.00551 38.4252 8.21547C38.4852 8.24547 38.5451 8.28546 38.5951 8.31545C38.5951 8.31545 38.5951 8.31545 38.6051 8.31545L38.6151 8.30545Z" fill="#0D5961"/>
<g style="mix-blend-mode:multiply" opacity="0.51">
<path d="M25.0077 53.4471C25.0077 53.4471 22.988 53.3772 22.2582 54.217C21.5283 55.0568 15.3495 54.217 13.7798 55.5568C12.21 56.9065 11.3302 70.264 12.9199 72.8836C11.7501 72.2137 10.7803 71.4238 10.1004 70.454C7.5309 66.7847 9.1806 49.1379 12.0301 34.1707C12.8199 30.0015 13.7498 26.0422 14.6196 22.6528L16.5592 21.593C16.5592 21.593 15.0895 34.9606 16.3193 36.8702C17.5491 38.7798 22.4981 45.6786 22.4981 45.6786L25.0277 53.4571L25.0077 53.4471Z" fill="#BDCADC"/>
</g>
<path d="M25.6776 53.4872C25.5676 53.6172 25.4576 53.7071 25.3277 53.7671C24.2379 54.277 22.5582 53.4072 22.5582 53.4072C22.5582 53.4072 23.398 51.0676 23.9279 49.108C24.1979 48.0982 24.3778 47.1983 24.3178 46.7584C24.3178 46.7584 26.5774 47.1284 26.9674 48.2082C27.3173 49.178 26.5574 52.5074 25.6776 53.4972V53.4872Z" fill="#477A71"/>
<path d="M32.3563 9.86523C32.3563 9.86523 32.8462 10.2152 33.0262 10.995C33.3062 12.2048 33.3062 14.1644 33.1762 15.2442C32.9562 17.0139 31.7864 75.973 31.7864 75.973L34.226 75.993V15.4142C34.226 15.4142 33.8961 11.215 34.8259 9.87523H32.3663L32.3563 9.86523Z" fill="#3EC0B3"/>
<g style="mix-blend-mode:multiply" opacity="0.51">
<path d="M25.6776 53.4871C25.5676 53.6171 25.4576 53.7071 25.3277 53.7671C24.2379 54.277 22.5582 53.4071 22.5582 53.4071C22.5582 53.4071 23.398 51.0676 23.9279 49.1079L24.8078 47.5482C24.8078 47.5482 25.3776 48.808 25.0177 50.9076C24.8977 51.5775 24.5978 53.1772 25.1777 53.3571C25.3876 53.4271 25.5476 53.4671 25.6876 53.4971L25.6776 53.4871Z" fill="#9FB1CC"/>
</g>
<path d="M23.1081 53.2172C22.3082 53.9271 21.1984 54.337 19.6687 54.1771C13.9398 53.5872 3.97159 49.238 1.70201 45.5286C-0.567571 41.8193 -0.427594 33.6508 2.57185 26.8921C4.13157 23.3727 5.81125 20.6732 7.47094 18.6136C7.47094 18.6036 7.48094 18.5936 7.48094 18.5936C12.73 12.0348 17.6891 11.8549 17.6891 11.8549C18.8289 14.3344 15.0695 27.112 14.5096 29.3816C13.6898 32.731 12.2901 35.5405 12.2901 35.5405C15.3195 37.2202 23.628 44.9388 24.4378 46.0585C25.1277 47.0084 25.3177 51.2576 23.1081 53.2072V53.2172Z" fill="#57F0D8"/>
<path d="M71.0592 63.6753C70.8892 64.3551 67.7298 65.8748 66.2601 66.0848C65.9301 66.1248 65.6902 66.1048 65.5702 65.9948C65.1703 65.6149 64.8603 64.5351 64.6804 63.7952C64.5804 63.3553 64.5204 63.0454 64.5204 63.0454C64.6104 62.7054 64.9803 62.2955 65.5002 61.8856C67.0999 60.5758 70.0894 59.1461 70.1793 59.336C70.2093 59.386 70.2693 59.576 70.3493 59.846C70.6593 60.8458 71.2291 63.0054 71.0592 63.6553V63.6753Z" fill="#477A71"/>
<path d="M71.4391 57.4665C71.3591 58.2663 70.9492 59.0862 70.3393 59.866C70.3393 59.866 70.3293 59.886 70.3193 59.896C69.7094 60.6659 68.9096 61.3857 68.0398 62.0156C68.0398 62.0156 68.0397 62.0156 68.0097 62.0256C67.6798 62.2756 67.3399 62.5055 66.9899 62.7055C66.9899 62.7055 66.9799 62.7055 66.9699 62.7155C66.1901 63.1854 65.4002 63.5553 64.6704 63.8153C63.7305 64.1452 62.9007 64.2652 62.3308 64.0952C57.5917 62.7255 56.4719 46.3785 54.9522 38.04C54.9122 37.8401 54.8722 37.6201 54.8222 37.3902C54.8222 37.3602 54.8122 37.3202 54.8122 37.3002C53.3125 29.4216 49.2732 12.7247 48.7933 11.8649C48.7933 11.8649 49.1232 11.9149 49.6931 12.0948C51.9127 12.8047 57.7217 15.5142 61.211 24.9025C65.3403 36.0204 72.329 48.3781 71.4291 57.4665H71.4391Z" fill="#57F0D8"/>
<g style="mix-blend-mode:multiply" opacity="0.32">
<path d="M5.54126 35.4005C5.54126 35.4005 9.30057 34.5506 12.29 35.5404C12.29 35.5404 9.06062 36.3803 7.78085 38.1499C6.89102 39.3797 6.16115 41.1794 6.16115 41.1794C6.16115 41.1794 6.49109 38.7298 7.80085 37.4701C9.1106 36.2103 10.3504 35.7204 11.2302 35.5704C11.8001 35.4804 10.7303 35.2905 9.40055 35.2705C7.70086 35.2405 5.54126 35.3905 5.54126 35.3905V35.4005Z" fill="#4BC4B0"/>
</g>
<g style="mix-blend-mode:multiply">
<path d="M48.2934 56.0867C48.2934 56.0867 50.1231 58.8062 50.9929 59.556C51.8628 60.3059 55.7721 63.8552 55.7721 63.8552L54.5123 64.2552L50.1131 60.7258C50.1131 60.7258 48.0035 56.8665 48.3034 56.0867H48.2934Z" fill="#A5B2CF"/>
</g>
<path d="M46.9037 56.1067L47.9235 55.8667C48.1535 55.8167 48.3934 55.9367 48.4834 56.1567C48.9633 57.3765 50.813 61.1957 55.7021 63.7653C55.8621 63.8453 55.9621 64.0052 55.9621 64.1852V65.115C55.9621 65.475 55.5821 65.7049 55.2522 65.5449C54.2424 65.015 52.2627 63.8053 50.1031 61.5857C47.9435 59.3661 46.9537 57.6064 46.5738 56.7766C46.4438 56.4966 46.6038 56.1767 46.9037 56.1067Z" fill="#57F0D7"/>
<g style="mix-blend-mode:multiply" opacity="0.51">
<path d="M23.1081 53.2071C22.3082 53.927 21.1984 54.3369 19.6687 54.177C13.9398 53.5871 3.97159 49.2379 1.70201 45.5286C-0.567571 41.8192 -0.427594 33.6508 2.57185 26.892C4.13157 23.3726 5.81125 20.6731 7.47094 18.6135C7.151 19.0834 2.09194 26.662 1.56204 33.0309C1.07213 38.8998 1.63202 36.2803 6.44113 35.7404C9.11064 35.4404 10.0405 35.7004 10.0405 35.7004C10.0405 35.7004 5.62129 36.4602 4.5015 39.2597C3.3817 42.0592 4.48149 47.1783 11.6802 50.2477C18.8788 53.3171 22.2182 53.6071 23.0981 53.2071H23.1081Z" fill="#BDCADC"/>
</g>
<g style="mix-blend-mode:multiply" opacity="0.51">
<path d="M56.402 70.444C54.9422 72.5336 52.0828 73.8534 48.8734 74.6832C52.7326 72.6836 54.7823 69.5142 55.2822 64.7151C55.7821 59.916 54.6423 36.4203 54.6423 36.4203L54.6723 36.4503C57.2018 50.8876 58.8315 66.9647 56.392 70.454L56.402 70.444Z" fill="#BDCADC"/>
</g>
<g style="mix-blend-mode:soft-light" opacity="0.58">
<path d="M71.4392 57.4665C71.3592 58.2763 70.9493 59.1062 70.3194 59.886C69.1596 60.276 67.4499 60.036 64.8204 59.3361C59.9813 58.0464 60.5012 45.0588 60.6112 40.1197C60.7211 35.1806 60.2212 29.4517 59.2614 24.9625C58.3216 20.5433 49.9631 12.3748 49.6932 12.1049C51.9128 12.8147 57.7217 15.5242 61.2111 24.9125C65.3403 36.0304 72.329 48.3882 71.4292 57.4765L71.4392 57.4665Z" fill="#B8F0CB"/>
</g>
<g style="mix-blend-mode:multiply" opacity="0.51">
<path d="M33.2462 12.7347V13.0946C33.2462 13.0946 28.0772 13.6845 26.1176 10.5651C26.2375 10.1252 26.4175 9.74525 26.6475 9.43531C26.6475 9.41531 26.6575 9.40532 26.6575 9.40532C26.8574 9.12537 27.0774 8.89541 27.3073 8.70544C27.4273 9.18536 27.8572 9.96521 29.097 10.905C30.8867 12.2548 33.2462 12.7347 33.2462 12.7347Z" fill="#BDCADC"/>
</g>
<g style="mix-blend-mode:multiply" opacity="0.51">
<path d="M40.3849 10.5651C40.3849 10.5651 40.5349 11.5749 39.3451 12.1648C38.1553 12.7547 35.8957 13.2546 34.176 13.0846L34.196 12.6947C34.196 12.6947 39.805 12.7447 40.3849 10.5651Z" fill="#BDCADC"/>
</g>
<g style="mix-blend-mode:multiply" opacity="0.51">
<path d="M68.0498 62.0056C68.0498 62.0056 68.0498 62.0056 68.0198 62.0156C67.9098 62.0856 67.4699 62.3555 66.9999 62.6955C66.9999 62.6955 66.9899 62.6955 66.9799 62.7055C66.3501 63.1554 65.6702 63.7453 65.6502 64.1552C65.6102 64.6651 65.9901 65.5449 66.2601 66.0848C65.9301 66.1248 65.6902 66.1048 65.5702 65.9948C65.1703 65.6149 64.8603 64.5351 64.6804 63.7952C63.7406 64.1252 62.9107 64.2452 62.3408 64.0752C57.6017 62.7054 56.4819 46.3585 54.9622 38.02C54.9222 37.82 54.8822 37.6001 54.8322 37.3701C54.8322 37.3401 54.8222 37.3001 54.8222 37.2801C54.8022 37.1302 54.7922 37.0602 54.7922 37.0602C54.7922 37.0602 58.1916 48.3881 58.5815 51.2476C58.9314 53.8071 59.1514 60.8158 65.4902 61.8756C66.2501 62.0056 67.0899 62.0456 68.0398 61.9856L68.0498 62.0056Z" fill="#BDCADC"/>
</g>
<path d="M30.5167 13.0447C30.4067 13.1346 30.2767 13.2046 30.1267 13.2746C27.7472 14.3344 20.4785 13.2746 19.7687 11.5449C19.6587 11.285 19.5887 11.035 19.5687 10.8151C19.4487 9.97522 19.8186 9.35533 20.2386 8.4755C20.4685 7.99558 20.7185 7.43569 20.8885 6.71582C20.8985 6.66583 20.9184 6.61584 20.9284 6.56585C21.4983 4.14629 24.3678 2.70656 24.5578 2.61658C24.4078 2.76655 22.7281 4.69619 24.6678 8.38551C26.6874 12.2348 30.5367 13.0447 30.5367 13.0447H30.5167Z" fill="#57F0D7"/>
<g style="mix-blend-mode:multiply" opacity="0.51">
<path d="M30.1268 13.2646C27.7472 14.3244 20.4786 13.2646 19.7687 11.5349C19.6587 11.275 19.5887 11.025 19.5687 10.8051C19.7187 11.185 20.0386 11.5749 20.6185 11.8449C22.3582 12.6447 27.3073 13.7445 30.1368 13.2646H30.1268Z" fill="#9FB1CC"/>
</g>
<g style="mix-blend-mode:multiply" opacity="0.51">
<path d="M24.8486 10.9958C24.7186 11.4458 21.4986 10.3458 20.2286 8.46581C20.4586 7.98581 20.7086 7.42581 20.8786 6.70581C20.9886 7.18581 21.2586 7.73581 21.7986 8.30581C23.3986 9.96581 24.9886 10.4858 24.8386 10.9958H24.8486Z" fill="#C5D0E0"/>
</g>
<path d="M36.6556 13.0447C36.7656 13.1346 36.8956 13.2046 37.0455 13.2746C39.4251 14.3344 46.6938 13.2746 47.4036 11.5449C47.5136 11.285 47.5836 11.035 47.6036 10.8151C47.7236 9.97522 47.3536 9.35533 46.9337 8.4755C46.7038 7.99558 46.4538 7.43569 46.2838 6.71582C46.2738 6.66583 46.2538 6.61584 46.2438 6.56585C45.674 4.14629 42.8045 2.70656 42.6145 2.61658C42.7645 2.76655 44.4442 4.69619 42.5045 8.38551C40.4849 12.2348 36.6356 13.0447 36.6356 13.0447H36.6556Z" fill="#57F0D7"/>
<g style="mix-blend-mode:multiply" opacity="0.51">
<path d="M37.0455 13.2646C39.425 14.3244 46.6937 13.2646 47.4036 11.5349C47.5135 11.275 47.5835 11.025 47.6035 10.8051C47.4535 11.185 47.1336 11.5749 46.5537 11.8449C44.814 12.6447 39.8649 13.7445 37.0355 13.2646H37.0455Z" fill="#9FB1CC"/>
</g>
<g style="mix-blend-mode:multiply" opacity="0.51">
<path d="M42.3345 10.9958C42.4645 11.4458 45.6845 10.3458 46.9545 8.46581C46.7245 7.98581 46.4745 7.42581 46.3045 6.70581C46.1945 7.18581 45.9245 7.73581 45.3845 8.30581C43.7845 9.96581 42.1945 10.4858 42.3445 10.9958H42.3345Z" fill="#C5D0E0"/>
</g>
<path d="M46.2139 26.5821C46.2139 26.5821 46.1638 26.5121 46.1239 26.5121H46.0939L44.6841 26.9121L44.4742 26.972L44.6141 26.8021L45.174 26.1222C45.174 26.1222 45.204 26.0422 45.174 26.0022V25.9922C45.164 25.9622 45.124 25.9422 45.094 25.9422H45.0641L44.2242 26.2022L44.0142 26.2622L44.1442 26.0922L45.0541 24.9324C45.0541 24.9324 45.0741 24.8924 45.0741 24.8624C45.0741 24.8424 45.0541 24.8124 45.0341 24.8025C45.0141 24.7925 44.9941 24.7825 44.9741 24.7825C44.9441 24.7825 44.9141 24.7925 44.9041 24.8224L43.9943 25.9722L43.8643 26.1422V25.9222L43.9243 25.0424C43.9243 25.0024 43.8943 24.9624 43.8543 24.9524C43.8443 24.9524 43.8243 24.9424 43.8043 24.9424C43.7743 24.9424 43.7543 24.9524 43.7343 24.9824L43.2044 25.6823L43.0744 25.8523V25.6323L43.1444 24.1626C43.1444 24.1426 43.1444 24.1126 43.1144 24.0926C43.0944 24.0726 43.0744 24.0626 43.0544 24.0626C43.0044 24.0626 42.9645 24.1026 42.9645 24.1526L42.9045 25.6223V25.8423L42.7845 25.6623L42.3146 24.9224C42.3146 24.9224 42.2746 24.8824 42.2446 24.8824C42.2346 24.8824 42.2146 24.8824 42.2046 24.8824C42.1646 24.8824 42.1246 24.9224 42.1246 24.9724V25.8523L42.1046 26.0722L41.9846 25.8923L41.1648 24.6725C41.1648 24.6725 41.1148 24.6325 41.0848 24.6325C41.0648 24.6325 41.0448 24.6325 41.0348 24.6525C40.9948 24.6825 40.9848 24.7425 41.0048 24.7825L41.8247 26.0022L41.9446 26.1822L41.7447 26.1022L40.9248 25.7823H40.8948C40.8948 25.7823 40.8348 25.7923 40.8148 25.8223V25.8323C40.7848 25.8623 40.7749 25.9122 40.8048 25.9522L41.3048 26.6721L41.4247 26.8521L41.2248 26.7821L39.845 26.2722H39.815C39.815 26.2722 39.745 26.2922 39.725 26.3322C39.705 26.3822 39.725 26.4321 39.785 26.4521L41.1648 26.9621L41.3647 27.032L41.1548 27.092L40.3049 27.312C40.3049 27.312 40.2349 27.362 40.2349 27.412V27.432C40.2349 27.472 40.255 27.5219 40.2949 27.5319L41.1248 27.8119L41.3248 27.8819L41.1148 27.9419L39.705 28.3418C39.705 28.3418 39.6251 28.4118 39.6451 28.4518C39.6551 28.4918 39.695 28.5218 39.735 28.5218H39.755L41.1648 28.1218L41.3747 28.0618L41.2348 28.2318L40.6749 28.9117C40.6749 28.9117 40.6449 28.9917 40.6749 29.0317V29.0417C40.6949 29.0717 40.7249 29.0917 40.7549 29.0917H40.7848L41.6247 28.8317L41.8347 28.7717L41.7047 28.9417L40.7949 30.1015C40.7949 30.1015 40.7748 30.2015 40.8148 30.2315C40.8348 30.2414 40.8548 30.2514 40.8748 30.2514C40.9048 30.2514 40.9348 30.2414 40.9448 30.2115L41.8547 29.0517L41.9846 28.8817V29.1017L41.9146 29.9715C41.9146 30.0115 41.9446 30.0515 41.9846 30.0615C41.9946 30.0615 42.0146 30.0715 42.0346 30.0715C42.0646 30.0715 42.0846 30.0615 42.1046 30.0315L42.6345 29.3316L42.7645 29.1616V29.3816L42.7045 30.8513C42.7045 30.9013 42.7445 30.9413 42.7945 30.9513C42.8445 30.9513 42.8845 30.9113 42.8945 30.8613L42.9544 29.3916V29.1716L43.0744 29.3516L43.5443 30.0915C43.5443 30.0915 43.5843 30.1315 43.6143 30.1315C43.6243 30.1315 43.6443 30.1315 43.6543 30.1315C43.7043 30.1315 43.7343 30.0915 43.7343 30.0415V29.1616L43.7543 28.9417L43.8743 29.1217L44.6941 30.3414C44.6941 30.3414 44.7441 30.3814 44.7741 30.3814C44.7941 30.3814 44.8141 30.3814 44.8241 30.3614C44.8441 30.3514 44.8541 30.3314 44.8641 30.3014C44.8641 30.2814 44.8641 30.2514 44.8541 30.2315L44.0342 29.0117L43.9143 28.8317L44.1142 28.9117L44.9341 29.2316H44.9641C44.9641 29.2316 45.0241 29.2216 45.0441 29.1916V29.1816C45.0741 29.1516 45.0841 29.1017 45.0541 29.0617L44.5542 28.3418L44.4342 28.1618L44.6341 28.2318L46.0139 28.7417H46.0439C46.0439 28.7417 46.1139 28.7217 46.1339 28.6817C46.1539 28.6317 46.1339 28.5818 46.0839 28.5618L44.7041 28.0519L44.5042 27.9819L44.7141 27.9319L45.564 27.7119C45.564 27.7119 45.634 27.6619 45.634 27.6119V27.5919C45.634 27.5419 45.614 27.502 45.574 27.492L44.7441 27.212L44.5442 27.142L44.7541 27.082L46.1639 26.6821C46.1639 26.6821 46.2438 26.6121 46.2238 26.5621L46.2139 26.5821ZM41.1648 26.2422L41.0348 26.0622L41.2448 26.1422L42.0646 26.4621H42.0846L42.0946 26.4921L42.5545 27.172L42.6745 27.342L42.4745 27.272L41.7047 26.992H41.6847L41.6747 26.972L41.1748 26.2522L41.1648 26.2422ZM40.7349 27.502L40.5249 27.432L40.7449 27.372L41.5947 27.152H41.6147H41.6347L42.4046 27.432L42.6045 27.502L42.4046 27.5619L41.6147 27.7819H41.5947H41.5747L40.7449 27.492L40.7349 27.502ZM42.0146 28.5018V28.5218H41.9846L41.1448 28.7817L40.9248 28.8517L41.0648 28.6817L41.6247 28.0019V27.9819H41.6547L42.4445 27.7519L42.6445 27.6919L42.5145 27.8519L42.0046 28.5018H42.0146ZM42.7945 28.0119L42.7645 28.8317V28.8717L42.2246 29.5716L42.0846 29.7515V29.5216L42.1546 28.6417V28.6017L42.6745 27.9519L42.8045 27.7919V28.0019L42.7945 28.0119ZM42.8645 26.2022L42.8345 27.022V27.232L42.7145 27.062L42.2546 26.3822V26.3622L42.2446 26.3422V25.4623L42.2646 25.2424L42.3846 25.4323L42.8545 26.1722V26.1922L42.8645 26.2122V26.2022ZM43.7843 26.5421V26.5221H43.8143L44.6541 26.2622L44.8741 26.1922L44.7341 26.3622L44.1742 27.042V27.062H44.1442L43.3544 27.282L43.1544 27.342L43.2844 27.182L43.7943 26.5321L43.7843 26.5421ZM43.0144 27.032L43.0444 26.2122V26.1722L43.5843 25.4723L43.7143 25.2924V25.5123L43.6443 26.3922V26.4122L43.6343 26.4321L43.1244 27.082L42.9944 27.242V27.032H43.0144ZM43.5643 28.7117V29.5916L43.5443 29.8215L43.4244 29.6316L42.9544 28.8917V28.8717L42.9444 28.8517L42.9744 28.0319V27.8219L43.0944 27.9919L43.5543 28.6717V28.6917L43.5643 28.7117ZM44.6441 28.8117L44.7741 28.9917L44.5641 28.9117L43.7443 28.5917H43.7243L43.7143 28.5718L43.2544 27.8919L43.1344 27.7219L43.3344 27.7919L44.1042 28.0718H44.1242L44.1342 28.0918L44.6341 28.8117H44.6441ZM45.0641 27.5419L45.274 27.6119L45.0541 27.6719L44.2042 27.8919H44.1842H44.1642L43.3944 27.6119L43.1944 27.5419L43.3944 27.482L44.1842 27.252H44.2042H44.2242L45.0541 27.5419H45.0641Z" fill="white"/>
<path d="M46.3744 19.8336C46.3744 19.8336 46.3444 19.7936 46.3244 19.7936H46.3144L45.5644 20.0036L45.4644 20.0336L45.5344 19.9536L45.8344 19.5936C45.8344 19.5936 45.8444 19.5436 45.8344 19.5236C45.8344 19.5036 45.8044 19.4936 45.7844 19.4936H45.7744L45.3244 19.6336L45.2244 19.6636L45.2944 19.5836L45.7744 18.9636C45.7744 18.9636 45.7844 18.9436 45.7844 18.9236C45.7844 18.9136 45.7844 18.8936 45.7644 18.8936H45.7344C45.7344 18.8936 45.7044 18.8936 45.6944 18.8936L45.2144 19.5136L45.1444 19.5936V19.4836L45.1744 19.0136C45.1744 18.9936 45.1644 18.9636 45.1344 18.9636H45.1044C45.1044 18.9636 45.0744 18.9636 45.0644 18.9736L44.7844 19.3436L44.7144 19.4336V19.3236L44.7444 18.5436C44.7444 18.5336 44.7444 18.5136 44.7344 18.5036C44.7344 18.5036 44.7144 18.4936 44.6944 18.4836C44.6944 18.4836 44.6444 18.5036 44.6444 18.5336L44.6144 19.3136V19.4236L44.5544 19.3336L44.3044 18.9436C44.3044 18.9436 44.2844 18.9236 44.2644 18.9236H44.2444C44.2444 18.9236 44.2044 18.9436 44.2044 18.9736V19.4436L44.1944 19.5536L44.1344 19.4636L43.6944 18.8136C43.6944 18.8136 43.6644 18.7936 43.6544 18.7936H43.6244C43.6244 18.7936 43.6044 18.8236 43.6044 18.8336C43.6044 18.8436 43.6044 18.8636 43.6044 18.8736L44.0444 19.5236L44.1044 19.6136L44.0044 19.5736L43.5644 19.4036H43.5444C43.5444 19.4036 43.5144 19.4036 43.5044 19.4236C43.4844 19.4436 43.4844 19.4636 43.5044 19.4936L43.7744 19.8736L43.8344 19.9636L43.7344 19.9236L43.0044 19.6536H42.9844C42.9844 19.6536 42.9444 19.6636 42.9344 19.6836C42.9344 19.7136 42.9344 19.7436 42.9644 19.7536L43.6944 20.0236L43.7944 20.0636L43.6944 20.0936L43.2444 20.2136C43.2444 20.2136 43.2044 20.2436 43.2044 20.2636C43.2044 20.2636 43.2044 20.3236 43.2344 20.3336L43.6744 20.4836L43.7744 20.5236L43.6744 20.5536L42.9244 20.7636C42.9244 20.7636 42.8844 20.8036 42.8844 20.8236C42.8844 20.8436 42.9144 20.8636 42.9344 20.8636H42.9444L43.6944 20.6436L43.7944 20.6136L43.7244 20.6936L43.4244 21.0536C43.4244 21.0536 43.4144 21.1036 43.4244 21.1236C43.4244 21.1436 43.4544 21.1536 43.4644 21.1536H43.4744L43.9244 21.0136L44.0244 20.9836L43.9544 21.0736L43.4744 21.6836C43.4744 21.6836 43.4644 21.7436 43.4744 21.7536H43.5044C43.5044 21.7536 43.5344 21.7536 43.5444 21.7536L44.0244 21.1336L44.0944 21.0436V21.1536L44.0644 21.6236C44.0644 21.6436 44.0844 21.6736 44.1044 21.6736H44.1244C44.1244 21.6736 44.1544 21.6736 44.1644 21.6636L44.4444 21.2936L44.5144 21.2036V21.3136L44.4844 22.0936C44.4844 22.1236 44.5044 22.1436 44.5344 22.1436C44.5644 22.1436 44.5844 22.1236 44.5844 22.0936L44.6144 21.3136V21.2036L44.6744 21.2936L44.9244 21.6836C44.9244 21.6836 44.9444 21.7036 44.9644 21.7036H44.9844C44.9844 21.7036 45.0244 21.6736 45.0244 21.6536V21.1836V21.0736L45.0844 21.1636L45.5244 21.8136C45.5244 21.8136 45.5544 21.8336 45.5644 21.8336H45.5944C45.5944 21.8336 45.6244 21.7736 45.6044 21.7536L45.1644 21.1036L45.1044 21.0136L45.2044 21.0536L45.6344 21.2236H45.6544C45.6544 21.2236 45.6944 21.2236 45.6944 21.2036C45.7144 21.1836 45.7144 21.1536 45.6944 21.1336L45.4244 20.7536L45.3644 20.6636L45.4644 20.7036L46.1944 20.9736H46.2144C46.2144 20.9736 46.2544 20.9636 46.2644 20.9436C46.2744 20.9136 46.2644 20.8836 46.2344 20.8736L45.5044 20.6036L45.4044 20.5636L45.5144 20.5336L45.9644 20.4136C45.9644 20.4136 46.0044 20.3836 46.0044 20.3536C46.0044 20.3536 46.0044 20.2936 45.9744 20.2836L45.5344 20.1336L45.4344 20.0936L45.5344 20.0636L46.2844 19.8536C46.2844 19.8536 46.3244 19.8136 46.3244 19.7936L46.3744 19.8336ZM43.6844 19.6536L43.6144 19.5636L43.7244 19.6036L44.1644 19.7736H44.1744V19.7836L44.4144 20.1436L44.4744 20.2336L44.3744 20.1936L43.9644 20.0436V20.0336L43.6944 19.6536H43.6844ZM43.4544 20.3236L43.3444 20.2836L43.4544 20.2536L43.9044 20.1336H43.9144L44.3244 20.2836L44.4244 20.3236L44.3244 20.3536L43.9044 20.4736H43.8944L43.4544 20.3236ZM44.1344 20.8536V20.8636L43.6844 21.0036L43.5744 21.0336L43.6444 20.9436L43.9444 20.5836V20.5736L44.3644 20.4536L44.4644 20.4236L44.3944 20.5036L44.1244 20.8436L44.1344 20.8536ZM44.5444 20.5936L44.5244 21.0336V21.0536L44.2444 21.4236L44.1744 21.5136V21.4036L44.2044 20.9336V20.9136L44.4744 20.5736L44.5444 20.4936V20.5936ZM44.5844 19.6336L44.5644 20.0736V20.1736L44.5044 20.0836L44.2644 19.7236V19.2336V19.1236L44.3244 19.2136L44.5744 19.6036V19.6236L44.5844 19.6336ZM45.0744 19.8136V19.8036L45.5244 19.6636L45.6344 19.6336L45.5644 19.7236L45.2644 20.0836L45.2544 20.0936L44.8344 20.2136L44.7344 20.2436L44.7944 20.1636L45.0644 19.8236L45.0744 19.8136ZM44.6644 20.0736L44.6844 19.6336V19.6136L44.9644 19.2436L45.0344 19.1536V19.2636L44.9944 19.7336V19.7536L44.7244 20.0936L44.6644 20.1736V20.0736ZM44.9544 20.9636V21.4336L44.9444 21.5436L44.8844 21.4536L44.6344 21.0636V21.0436L44.6544 20.6036V20.5036L44.7144 20.5936L44.9544 20.9536V20.9736V20.9636ZM45.5344 21.0236L45.5944 21.1136L45.4944 21.0736L45.0544 20.9036V20.8936L44.8144 20.5336L44.7544 20.4436L44.8544 20.4836L45.2644 20.6336H45.2744V20.6436L45.5444 21.0236H45.5344ZM45.7544 20.3436L45.8644 20.3836L45.7544 20.4136L45.3044 20.5336H45.2944L44.8844 20.3836L44.7844 20.3436L44.8844 20.3136L45.3044 20.1936H45.3144L45.7544 20.3436Z" fill="white"/>
<path d="M49.6136 23.4829L49.1236 23.6229L49.0436 23.6429L49.0936 23.5729L49.2936 23.3329V23.2929L49.2636 23.2729L48.9736 23.3629L48.8936 23.3829L48.9436 23.3129L49.2636 22.9129V22.8929V22.8729H49.2436H49.2236L48.9036 23.2829L48.8536 23.3529V23.2629L48.8736 22.9529C48.8736 22.9429 48.8736 22.9229 48.8536 22.9229H48.8436H48.8236L48.6436 23.1729L48.5936 23.2429V23.1529L48.6136 22.6429V22.6229H48.5836V22.6129C48.5836 22.6129 48.5536 22.6429 48.5536 22.6529L48.5336 23.1729V23.2629L48.4836 23.1929L48.3136 22.9329H48.2936L48.2836 22.9229C48.2736 22.9229 48.2536 22.9329 48.2536 22.9529V23.2629V23.3529L48.2036 23.2829L47.9136 22.8529H47.8936H47.8736C47.8636 22.8529 47.8536 22.8829 47.8736 22.8929L48.1636 23.3229L48.2136 23.3929L48.1336 23.3629L47.8436 23.2529L47.8236 23.2629V23.3029L47.9936 23.5529L48.0436 23.6229L47.9636 23.5929L47.4836 23.4129H47.4736L47.4436 23.4329C47.4436 23.4429 47.4436 23.4629 47.4636 23.4729L47.9436 23.6529L48.0236 23.6829L47.9436 23.7029L47.6436 23.7829C47.6436 23.7829 47.6236 23.8029 47.6236 23.8129C47.6236 23.8129 47.6236 23.8529 47.6436 23.8529L47.9336 23.9529L48.0136 23.9829L47.9336 24.0029L47.4436 24.1429C47.4436 24.1429 47.4236 24.1629 47.4236 24.1829C47.4236 24.1929 47.4336 24.2029 47.4536 24.2029L47.9436 24.0629L48.0236 24.0429L47.9736 24.1129L47.7736 24.3529V24.3929L47.8036 24.4129L48.0936 24.3229L48.1736 24.3029L48.1236 24.3729L47.8036 24.7729C47.8036 24.7729 47.8036 24.8029 47.8036 24.8129H47.8236H47.8436L48.1636 24.4029L48.2136 24.3329V24.4229L48.1936 24.7329C48.1936 24.7429 48.1936 24.7629 48.2136 24.7629H48.2236H48.2436L48.4236 24.5129L48.4736 24.4429V24.5329L48.4536 25.0429V25.0629H48.4836C48.5036 25.0629 48.5136 25.0529 48.5136 25.0329L48.5336 24.5229V24.4329L48.5836 24.5029L48.7536 24.7629H48.7736H48.7836C48.7936 24.7629 48.8136 24.7529 48.8136 24.7329V24.4229V24.3329L48.8636 24.4029L49.1536 24.8329H49.1736H49.1836C49.1936 24.8329 49.2036 24.8029 49.1836 24.7929L48.8936 24.3629L48.8436 24.2929L48.9236 24.3229L49.2136 24.4329L49.2436 24.4229V24.3829L49.0736 24.1329L49.0236 24.0629L49.1036 24.0929L49.5836 24.2729H49.5936L49.6236 24.2529C49.6236 24.2429 49.6236 24.2229 49.6036 24.2129L49.1236 24.0329L49.0436 24.0029L49.1236 23.9829L49.4236 23.9029C49.4236 23.9029 49.4436 23.8829 49.4436 23.8729C49.4436 23.8729 49.4436 23.8329 49.4236 23.8329L49.1336 23.7329L49.0536 23.7029L49.1336 23.6829L49.6236 23.5429C49.6236 23.5429 49.6436 23.5229 49.6436 23.5029C49.6436 23.4929 49.6336 23.4829 49.6136 23.4829ZM47.8736 23.3829L47.8236 23.3129L47.9036 23.3429L48.1936 23.4529V23.4629L48.3536 23.7029L48.4036 23.7729L48.3236 23.7429L48.0536 23.6429L47.8736 23.3929V23.3829ZM47.7236 23.8329L47.6436 23.8029L47.7336 23.7829L48.0336 23.7029L48.3036 23.8029L48.3836 23.8329L48.3036 23.8529L48.0236 23.9329L47.7336 23.8329H47.7236ZM48.1736 24.1829L47.8836 24.2729L47.7936 24.3029L47.8536 24.2329L48.0536 23.9929L48.3336 23.9129L48.4136 23.8929L48.3636 23.9629L48.1836 24.1929L48.1736 24.1829ZM48.4436 24.0029V24.2929H48.4336L48.2436 24.5429L48.1936 24.6129V24.5229L48.2136 24.2129V24.2029L48.3936 23.9729L48.4436 23.9029V23.9829V24.0029ZM48.4736 23.3729V23.6629L48.4636 23.7429L48.4136 23.6729L48.2536 23.4329V23.1129V23.0229L48.3036 23.1029L48.4736 23.3629V23.3829V23.3729ZM48.7936 23.4829L49.0836 23.3929L49.1736 23.3629L49.1136 23.4329L48.9136 23.6729L48.6336 23.7529L48.5536 23.7729L48.6036 23.7029L48.7836 23.4729L48.7936 23.4829ZM48.5136 23.6629V23.3729H48.5236L48.7136 23.1229L48.7636 23.0529V23.1429L48.7436 23.4529V23.4629L48.5636 23.6929L48.5136 23.7629V23.6829V23.6629ZM48.7236 24.2429V24.5529V24.6429L48.6736 24.5629L48.5036 24.3029V24.2829V23.9929L48.5136 23.9129L48.5636 23.9829L48.7236 24.2229V24.2429ZM49.0936 24.2829L49.1436 24.3529L49.0636 24.3229L48.7736 24.2129L48.6136 23.9729L48.5636 23.9029L48.6436 23.9329L48.9136 24.0329L49.0936 24.2829ZM49.2436 23.8329L49.3336 23.8629L49.2436 23.8829L48.9436 23.9629L48.6736 23.8629L48.5936 23.8329L48.6736 23.8129L48.9536 23.7329L49.2436 23.8329Z" fill="white"/>
</svg>
