<svg width="94" height="50" viewBox="0 0 94 50" fill="none" xmlns="http://www.w3.org/2000/svg">
<path d="M46.456 47.7359C47.7844 49.3288 50.1256 49.9213 52.0985 49.5658C53.7821 49.263 55.5446 48.3283 56.4784 46.8275C57.215 45.6427 57.3334 44.1945 57.2281 42.8253C57.0835 41.1534 56.6363 39.5341 56.1759 37.928C55.1105 34.255 53.7558 30.5161 53.8479 26.6456C53.9005 24.7762 54.3214 22.8541 55.2947 21.2348C56.268 19.6287 57.7542 18.4044 59.372 17.496C61.1214 16.5218 63.068 15.8898 65.0541 15.6134C66.9349 15.3633 68.9078 15.4159 70.7361 16.0083C74.2479 17.1405 76.4049 20.4976 76.9968 24.039C77.615 27.7383 76.8784 31.5693 76.2076 35.2028C75.892 36.9274 75.55 38.6521 75.3658 40.3898C75.208 41.8116 75.1291 43.2861 75.4579 44.6948C75.5895 45.2872 75.813 45.8665 76.1419 46.3799C76.5233 46.9723 77.0363 47.4068 77.6018 47.8149C79.167 48.9471 80.9821 49.7633 82.9156 49.9608C84.6386 50.1319 86.3748 49.737 87.8479 48.8286C89.5577 47.7754 90.8335 46.1429 91.7279 44.3656C92.2804 43.273 92.7012 42.1144 93.0432 40.9428C93.1221 40.6531 92.6749 40.5215 92.596 40.8111C91.5043 44.6421 89.1368 48.7496 84.8885 49.4342C83.1129 49.7238 81.2846 49.3025 79.68 48.5126C78.3384 47.8412 76.8784 46.9723 76.2471 45.5505C75.7078 44.3525 75.6815 42.957 75.7473 41.6668C75.8394 39.9949 76.1287 38.3493 76.4312 36.7036C77.0889 33.0701 77.9043 29.3708 77.6676 25.6582C77.444 22.1169 76.0103 18.4833 72.9326 16.5086C69.7628 14.4812 65.4749 14.7182 62.0289 15.8372C60.2007 16.4428 58.4513 17.3512 56.9782 18.6018C55.5709 19.813 54.5581 21.327 53.9794 23.1042C52.7956 26.7773 53.6374 30.7136 54.6502 34.3208C55.15 36.0981 55.7287 37.8622 56.2022 39.6526C56.5837 41.1402 56.9256 42.7069 56.8204 44.2603C56.7283 45.6032 56.1759 46.8275 55.1237 47.6964C53.427 49.105 50.9542 49.579 48.8892 48.7891C48.1132 48.4994 47.3635 48.0255 46.8374 47.3804C46.6401 47.1435 46.3113 47.4857 46.5086 47.7095L46.456 47.7359Z" fill="#D6BB5C"/>
<path d="M32.6852 0.789898L16.8229 15.9691L1.74976 0L32.6852 0.789898Z" fill="#8B27BC"/>
<path d="M1.74959 0L16.8227 15.9691L0.947266 31.1483L1.74959 0Z" fill="#FFC4FC"/>
<path d="M16.8227 15.9697L47.1136 48.0922L0.947266 31.1489L16.8227 15.9697Z" fill="#8B27BC"/>
<path d="M32.685 0.790039L47.1137 48.0917L16.8228 15.9692L32.685 0.790039Z" fill="#FFC4FC"/>
<g style="mix-blend-mode:multiply" opacity="0.33">
<path d="M10.6937 20.0108C11.7854 19.0366 13.6663 16.6142 14.7053 15.8375C14.2187 15.4294 10.0229 10.69 9.02331 9.46565C7.64227 7.7542 6.09024 6.12175 4.59082 4.51562C5.16954 8.79424 6.45852 19.7212 5.31423 25.2768C5.64305 24.9345 9.62834 20.9455 10.6937 19.9976V20.0108Z" fill="#9F75C9"/>
</g>
<g style="mix-blend-mode:multiply" opacity="0.33">
<path d="M16.8359 13.8753C17.8224 13.3092 19.6243 11.2292 20.4267 10.4393C21.5446 9.34659 24.6882 6.73993 25.5563 5.75256C22.0445 6.55562 15.5207 7.12171 6.82666 3.76465C7.22124 4.19909 11.3118 7.97743 11.8379 8.53036C12.9296 9.64938 16.5203 13.5857 16.8228 13.8622L16.8359 13.8753Z" fill="#9F75C9"/>
</g>
<g style="mix-blend-mode:multiply" opacity="0.33">
<path d="M16.8096 17.8643C16.8096 17.8643 13.1531 21.4451 11.2723 23.4199C10.562 24.1571 6.03747 28.0671 5.66919 28.2909C10.47 29.0018 25.6483 31.569 34.5791 36.4005C33.9214 35.8739 28.5814 30.5816 23.7806 25.5263C20.3872 21.9454 17.5067 18.5883 16.8096 17.8643Z" fill="#9F75C9"/>
</g>
<g style="mix-blend-mode:multiply" opacity="0.33">
<path d="M23.2018 11.8221C22.2548 12.7568 19.085 16.0875 19.085 16.0875C19.5716 16.4167 24.9643 22.0118 26.4637 23.789C27.3449 24.8291 37.4331 36.5722 37.8672 36.9672C34.408 30.4637 27.0424 15.3766 28.0289 6.87207C27.1608 7.87261 24.4118 10.6109 23.2149 11.8089L23.2018 11.8221Z" fill="#9F75C9"/>
</g>
<path d="M0.947266 31.1484C2.89388 28.6339 6.33991 25.5402 8.54959 23.21C12.2718 19.4579 16.5202 15.4031 20.3871 11.7564C22.7152 9.57106 26.0823 6.50363 28.4892 4.34458C29.6993 3.29138 31.3171 1.61943 32.685 0.790039C31.8038 2.1197 30.0544 3.67316 28.9496 4.83168C26.661 7.14871 23.478 10.361 21.1763 12.599C17.362 16.3115 13.1268 20.3663 9.22039 23.9209C6.80028 26.0273 3.56469 29.3317 0.960431 31.1616L0.947266 31.1484Z" fill="#A89348"/>
<path d="M1.74976 0C3.73583 1.32966 6.06387 3.97582 7.78689 5.66093C9.72035 7.62251 11.6275 9.61042 13.5215 11.6115C23.8465 22.5647 34.2766 33.8076 44.4701 44.9057C45.4039 45.9194 46.3641 46.9067 47.1138 48.0916C45.9695 47.2754 45.0488 46.2617 44.0886 45.2743C33.6059 34.4527 22.9916 23.3941 12.6534 12.4409C10.7726 10.4266 8.90488 8.39924 7.05034 6.37184C5.48515 4.56824 2.97297 2.08006 1.74976 0Z" fill="#A89348"/>
<path d="M0.947266 31.1484C5.89272 26.0799 11.4037 20.5901 16.507 15.6533C21.584 10.8481 27.4502 5.41094 32.6718 0.790039C27.8316 5.80589 22.1233 11.4273 17.1121 16.2852C11.943 21.1826 6.23469 26.4222 0.947266 31.1484Z" fill="#D6BB5C"/>
<path d="M1.74976 0C16.2047 14.0865 30.5939 30.1873 44.3649 45.011C45.2987 46.0247 46.2457 47.0252 47.1138 48.0916C46.101 47.1569 45.154 46.1563 44.1939 45.169C30.1993 30.5559 14.9815 15.2714 1.74976 0Z" fill="#D6BB5C"/>
</svg>
