<svg width="67" height="61" viewBox="0 0 67 61" fill="none" xmlns="http://www.w3.org/2000/svg">
<path d="M51.7309 57.3489C51.7309 59.7197 41.7977 60.9701 29.4737 60.9801H29.2537C27.7732 60.9801 26.3227 60.9601 24.9323 60.9301C24.6122 60.9301 24.2921 60.9101 23.972 60.9C23.0117 60.87 22.0714 60.83 21.1611 60.78C20.861 60.76 20.5809 60.75 20.2808 60.73C19.3505 60.67 18.4602 60.61 17.5899 60.5399C17.0898 60.4899 16.5996 60.4499 16.1295 60.3999C15.3692 60.3199 14.639 60.2398 13.9588 60.1498C13.7087 60.1098 13.4786 60.0798 13.2386 60.0398C12.7984 59.9697 12.3683 59.8997 11.9682 59.8297C11.8081 59.7997 11.6481 59.7697 11.488 59.7397C11.2479 59.6897 11.0178 59.6396 10.8078 59.5896C10.6477 59.5496 10.4777 59.5196 10.3276 59.4696C9.79746 59.3395 9.31731 59.1995 8.88717 59.0495C8.47704 58.8994 8.12693 58.7494 7.82683 58.5893C7.7268 58.5393 7.63677 58.4793 7.54675 58.4293C7.49673 58.3992 7.4467 58.3592 7.39669 58.3292C7.32667 58.2792 7.26665 58.2292 7.21664 58.1792C7.14662 58.1192 7.0866 58.0591 7.03659 57.9991C6.84653 57.7891 6.75648 57.569 6.75648 57.3389C6.75648 56.8788 7.13661 56.4086 7.83683 55.9685C8.87716 55.2983 10.6377 54.6781 12.9285 54.1479C16.0295 53.4377 20.0908 52.8875 24.6622 52.6674C25.3824 52.6374 26.1227 52.6074 26.8829 52.5974C27.6632 52.5774 28.4534 52.5674 29.2537 52.5674C30.7141 52.5674 32.1446 52.5974 33.535 52.6674C41.6176 53.0275 48.1497 54.398 50.6505 55.9785C51.3607 56.4186 51.7409 56.8788 51.7409 57.3489H51.7309Z" fill="#73D986"/>
<path d="M50.9006 57.309V57.329C50.8506 58.4393 45.5389 59.3796 37.9565 59.7998C36.9461 59.8598 35.9058 59.8998 34.8255 59.9398C33.0449 59.9998 31.1743 60.0299 29.2437 60.0299C29.0236 60.0299 28.8035 60.0299 28.5935 60.0299C22.8816 60.0098 17.74 59.7197 13.9588 59.2496C10.0475 58.7594 7.61676 58.0792 7.57675 57.339V57.319C7.57675 57.319 7.57676 57.229 7.59676 57.1889L7.82683 55.9786L9.09724 49.4065L9.22727 48.7462L9.54738 47.0557L9.64741 46.5455L9.77745 45.8753L9.9475 44.995L12.8284 30.0303L12.9885 29.23L13.1385 28.4198L13.1885 28.1697V28.1497C13.1885 28.0596 13.2086 27.9896 13.2086 27.9896L15.5693 15.7457L15.7294 14.9354C16.1195 14.8154 16.5096 14.6954 16.9097 14.5953C19.0904 13.9851 21.3011 13.555 23.5318 13.2849C25.4325 13.0348 27.3331 12.9248 29.2337 12.9248C33.7751 12.9248 38.3366 13.595 42.738 14.9354C42.738 14.9354 42.738 14.9555 42.738 14.9655L42.758 15.0955L45.2388 27.9996L45.2788 28.2097C45.2788 28.2097 45.2788 28.2497 45.2788 28.2697L45.6289 30.0303L45.899 31.4407L46.1891 32.9212L46.8993 36.6024L47.5295 39.9134L48.5098 44.975L48.6799 45.8753L48.7999 46.5455L48.9 47.0557L49.2301 48.7462L49.3501 49.4065L50.3504 54.5981L50.6105 55.9686L50.8406 57.1689C50.8406 57.1689 50.8706 57.259 50.8706 57.309H50.9006Z" fill="#14C034"/>
<path d="M46.6992 28.6395C46.6992 28.9096 46.5992 29.1697 46.4692 29.3498C46.3391 29.5398 46.1791 29.6799 46.029 29.7899C45.909 29.8699 45.7889 29.9499 45.6489 30.02C45.4088 30.15 45.1487 30.2601 44.8386 30.3701C43.9083 30.6902 42.6579 30.9603 41.1274 31.1903C38.0565 31.6405 33.8651 31.9206 29.2437 31.9206C25.0123 31.9206 21.1511 31.6905 18.1701 31.3004C17.1298 31.1703 16.2095 31.0203 15.4192 30.8502C14.8391 30.7302 14.3189 30.6002 13.8687 30.4501C13.5186 30.3401 13.1985 30.22 12.9284 30.08C12.8984 30.06 12.8584 30.05 12.8384 30.03C12.5183 29.8699 12.2382 29.6799 12.0182 29.3598C11.8881 29.1697 11.7881 28.9196 11.7881 28.6495C11.7881 28.1994 12.1482 27.8293 12.6083 27.8293C13.1285 27.8293 13.2285 27.8893 13.2285 27.9993C13.2285 27.9993 13.2085 28.0693 13.2085 28.1594V28.1794C13.2085 28.2394 13.2085 28.2994 13.2085 28.3794C13.2085 28.3794 13.8187 28.6996 14.1988 28.8296C14.9591 29.0997 16.1395 29.3598 17.6099 29.5798C17.82 29.6098 18.0401 29.6499 18.2702 29.6699C21.1611 30.06 25.0323 30.2901 29.2637 30.2901C35.1755 30.2901 40.3872 29.8199 43.2081 29.1497C44.1384 28.9396 44.8086 28.6695 45.0587 28.4995L45.3088 28.3394C45.3088 28.3394 45.3288 28.3094 45.3288 28.2794C45.3288 28.2594 45.3288 28.2394 45.3288 28.2194L45.2888 28.0093C45.3088 27.8893 45.4188 27.7893 45.909 27.8293C46.3591 27.8593 46.7292 28.1994 46.7292 28.6495L46.6992 28.6395Z" fill="#D37BE1"/>
<path d="M49.4401 46.7952C49.2801 46.8852 49.1 46.9753 48.92 47.0453C48.6499 47.1653 48.3498 47.2654 48.0197 47.3654C46.8993 47.6855 45.3988 47.9556 43.5482 48.1857C41.3775 48.4457 38.7367 48.6558 35.8058 48.7859C33.7451 48.8759 31.5344 48.9159 29.2537 48.9159C27.313 48.9159 25.4324 48.8859 23.6519 48.8159C19.1504 48.6558 15.2992 48.3057 12.6183 47.8356C11.3579 47.6155 10.3776 47.3754 9.61739 47.0653C9.59738 47.0653 9.58739 47.0453 9.56739 47.0453C9.15725 46.8752 8.80714 46.6852 8.51705 46.3451C8.357 46.165 8.40701 45.9149 8.40701 45.6348C8.40701 45.1847 8.67709 44.8046 9.22727 44.8046C9.83746 44.8046 9.9575 44.8646 9.96751 44.9646C9.96751 45.0647 9.89748 45.1947 9.9475 45.3548C9.9475 45.3548 10.6777 45.6749 11.1279 45.8049C11.638 45.955 12.2982 46.105 13.0885 46.245C13.7187 46.3651 14.4389 46.4551 15.2292 46.5551C16.9597 46.7652 19.0204 46.9453 21.3211 47.0653C23.7419 47.1953 26.4228 47.2754 29.2437 47.2754C31.8545 47.2754 34.3653 47.2054 36.646 47.1053H36.666C40.5973 46.9053 43.8883 46.5651 46.029 46.135C47.1494 45.9249 47.9596 45.6549 48.2497 45.4848L48.5598 45.3247C48.6199 45.2547 48.5198 45.0947 48.5398 44.9746C48.5398 44.8346 48.6899 44.7346 49.2801 44.8146C50.3904 44.9646 49.9803 46.4951 49.4501 46.7952H49.4401Z" fill="#D37BE1"/>
<g style="mix-blend-mode:overlay" opacity="0.48">
<path d="M30.0239 17.0068C30.0239 17.0068 31.2543 34.4624 42.3078 33.4021C42.3078 33.4021 43.8884 31.3514 43.8683 30.6712C43.8683 30.6712 44.6486 29.6209 43.7083 29.0107C43.7083 29.0107 42.5179 19.6777 39.627 16.2766C36.7361 12.8755 30.0239 17.0068 30.0239 17.0068Z" fill="#F3BAFC"/>
</g>
<g style="mix-blend-mode:multiply" opacity="0.38">
<path d="M51.7309 57.3498C51.7309 59.7206 41.7977 60.971 29.4737 60.981H29.2537C27.7732 60.981 26.3227 60.961 24.9323 60.931C24.6122 60.911 24.2921 60.911 23.972 60.901C23.0117 60.871 22.0714 60.831 21.1611 60.7809C20.861 60.7609 20.5809 60.7509 20.2808 60.7309C19.3505 60.6709 18.4602 60.6109 17.5899 60.5409C17.0898 60.4908 16.5996 60.4508 16.1295 60.4008C15.3692 60.3208 14.639 60.2408 13.9588 60.1507C13.7087 60.1107 13.4786 60.0807 13.2386 60.0407C12.7984 59.9707 12.3683 59.9007 11.9682 59.8306C11.8081 59.8006 11.6481 59.7706 11.488 59.7406C11.2479 59.6906 11.0178 59.6406 10.8078 59.5906C10.6477 59.5505 10.4777 59.5205 10.3276 59.4705C9.79746 59.3405 9.31731 59.2004 8.88717 59.0504C8.47704 58.9003 8.12693 58.7503 7.82683 58.5902C7.7268 58.5402 7.63677 58.4802 7.54675 58.4302C7.49673 58.4002 7.4467 58.3602 7.39669 58.3301C7.32667 58.2801 7.26665 58.2301 7.21664 58.1801C7.14662 58.1201 7.0866 58.0601 7.03659 58C6.84653 57.79 6.75648 57.5699 6.75648 57.3398C6.75648 56.8797 7.13661 56.4095 7.83683 55.9694L9.10724 49.3973L9.23729 48.7371L9.55738 47.0465C9.14725 46.8765 8.79714 46.6864 8.50704 46.3463C8.34699 46.1663 8.39701 45.9162 8.39701 45.6361C8.39701 45.186 8.6671 44.8058 9.21728 44.8058C9.82747 44.8058 9.94752 44.8659 9.95752 44.9659L12.8384 30.0111C12.5183 29.8511 12.2382 29.661 12.0182 29.3409C11.8881 29.1508 11.7881 28.9007 11.7881 28.6307C11.7881 28.1805 12.1482 27.8104 12.6084 27.8104C13.1285 27.8104 13.2286 27.8704 13.2286 27.9805L15.7394 14.9163C16.1295 14.7962 16.5296 14.6762 16.9197 14.5762L18.1001 16.1067L18.2502 29.641C18.2502 29.641 17.3899 30.5213 18.1701 31.2815C18.1701 31.2815 18.3002 40.7545 21.3111 47.0566C21.3111 47.0566 21.1911 48.2469 23.6319 48.8071C23.6319 48.8071 24.9623 50.9978 26.8629 52.5683C28.7735 54.1388 31.2343 55.0891 33.515 52.6383C35.1556 50.8678 35.7858 48.7771 35.7858 48.7771C37.2062 48.0669 36.626 47.0966 36.626 47.0966H36.646C39.687 46.6764 42.2979 33.3822 42.2979 33.3822L46.8993 36.5832L47.5295 39.8943L48.5098 44.9559C48.5098 44.8158 48.6599 44.7158 49.2501 44.7958C50.3604 44.9459 49.9503 46.4764 49.4201 46.7765C49.2601 46.8665 49.08 46.9565 48.8999 47.0265L49.2301 48.7171L49.3501 49.3773L50.3504 54.5689L50.6105 55.9394C51.3207 56.3795 51.7008 56.8397 51.7008 57.3098L51.7309 57.3498Z" fill="#D0C2F0"/>
</g>
<g style="mix-blend-mode:multiply" opacity="0.38">
<path d="M13.9588 60.1399C13.7087 60.1099 13.4786 60.0699 13.2386 60.0399C12.7984 59.9698 12.3683 59.8998 11.9682 59.8298C11.8081 59.7998 11.6481 59.7698 11.488 59.7398C11.2479 59.6898 11.0178 59.6397 10.8078 59.5897C10.6477 59.5497 10.4777 59.5197 10.3276 59.4697C9.79746 59.3396 9.31731 59.1996 8.88717 59.0495C8.47704 58.8995 8.12693 58.7495 7.82683 58.5894C7.7268 58.5394 7.63677 58.4794 7.54675 58.4293C7.49673 58.3993 7.4467 58.3593 7.39669 58.3293C7.32667 58.2793 7.26665 58.2293 7.21664 58.1793C7.14662 58.1192 7.0866 58.0592 7.03659 57.9992C6.84653 57.7891 6.75648 57.5691 6.75648 57.339C6.75648 56.8789 7.13661 56.4087 7.83683 55.9686L9.10724 49.3965L9.23729 48.7363L9.55738 47.0457C9.14725 46.8757 8.79714 46.6856 8.50704 46.3455C8.34699 46.1654 8.39701 45.9154 8.39701 45.6353C8.39701 45.1851 8.6671 44.805 9.21728 44.805C9.82747 44.805 9.94752 44.865 9.95752 44.9651L12.8384 30.0103C12.5183 29.8502 12.2382 29.6602 12.0182 29.3401C11.8881 29.15 11.7881 28.8999 11.7881 28.6298C11.7881 28.1797 12.1482 27.8096 12.6084 27.8096C13.1285 27.8096 13.2286 27.8696 13.2286 27.9796C13.2286 27.9796 13.2086 28.0496 13.2086 28.1397C13.2086 28.2097 13.1886 28.2897 13.2086 28.3597C13.2086 28.3597 13.1885 28.3798 13.1485 28.4198C13.0485 28.5298 12.8884 28.7999 12.9985 29.23C13.0685 29.5401 13.3186 29.9503 13.8688 30.4504L13.1585 46.2455C13.1585 46.2455 13.1385 46.2455 13.0885 46.2655C12.8184 46.3355 11.9481 46.6556 12.6084 47.856C12.6084 47.856 12.6484 51.087 12.9285 54.148C13.1285 56.3387 13.4586 58.4494 13.9688 59.2496C13.9688 59.2496 13.5187 59.5197 13.9688 60.1499L13.9588 60.1399Z" fill="#D0C2F0"/>
</g>
<path d="M42.758 14.9655C42.758 15.3056 42.2378 15.6057 41.3475 15.8757C40.5873 16.1158 39.527 16.3159 38.2465 16.4859C38.0165 16.516 37.7764 16.556 37.5363 16.576C37.3763 16.596 37.2162 16.616 37.0562 16.636C34.8555 16.8761 32.1646 17.0161 29.2537 17.0161C23.3018 17.0161 18.2502 16.4359 16.4496 15.6157C16.0094 15.4056 15.7594 15.1955 15.7594 14.9655C15.7594 14.9655 15.7594 14.9455 15.7594 14.9354C15.8294 14.2252 18.3002 13.605 21.9914 13.2449C24.092 13.0348 26.5828 12.9248 29.2537 12.9248C32.3447 12.9248 35.1856 13.0849 37.4663 13.3549C37.6263 13.3749 37.7764 13.385 37.9364 13.405C38.2666 13.445 38.5867 13.495 38.8868 13.535C39.9771 13.7051 40.8874 13.9051 41.5376 14.1152C42.2978 14.3653 42.738 14.6454 42.758 14.9354C42.758 14.9354 42.758 14.9555 42.758 14.9655Z" fill="#96E3A4"/>
<g style="mix-blend-mode:multiply" opacity="0.38">
<path d="M41.3375 15.8752L37.1262 16.4154C37.1262 16.4154 21.6813 14.5648 16.4296 15.6051C15.9894 15.3951 15.7394 15.185 15.7394 14.9549C15.7394 14.9549 15.7394 14.9349 15.7394 14.9249C15.8094 14.2147 18.2802 13.5945 21.9714 13.2344C22.4815 13.2544 23.0117 13.2644 23.5318 13.2744C27.203 13.3744 31.2043 13.5345 32.7948 13.8246C36.0759 14.4148 41.3375 15.8752 41.3375 15.8752Z" fill="#9783C7"/>
</g>
<path d="M28.2534 14.6948C28.2534 14.6948 28.2534 14.7749 28.2334 14.8049C28.0233 15.3651 26.3728 15.7952 24.3521 15.7952C22.3315 15.7952 20.6709 15.3651 20.4609 14.8049C20.4609 14.7749 20.4409 14.7349 20.4409 14.6948C20.4409 14.0846 22.1914 13.6045 24.3421 13.6045C26.4928 13.6045 28.2434 14.0946 28.2434 14.6948H28.2534Z" fill="#686BCC"/>
<path d="M28.0833 14.7951C28.1333 14.8552 28.1333 14.9452 28.0833 15.0052C27.7232 15.4653 26.1927 15.7955 24.3621 15.7955C22.5315 15.7955 21.0911 15.4754 20.6709 15.0452C20.5909 14.9652 20.5909 14.8351 20.6709 14.7551C21.0911 14.325 22.5815 14.0049 24.3621 14.0049C26.1427 14.0049 27.7232 14.345 28.0833 14.7951Z" fill="#2C2E82"/>
<path d="M62.8444 14.0651L61.1238 17.3761L48.2697 42.1841C47.9096 42.8743 47.0793 43.1844 46.3591 42.8843C45.3588 42.4542 43.9884 41.6739 43.0581 40.3635C41.8777 38.683 41.5676 35.9921 42.3078 33.4013C42.4279 32.9811 42.5779 32.561 42.748 32.1509L59.5833 12.0645L61.794 13.4249L62.8344 14.0651H62.8444Z" fill="#00BA22"/>
<g style="mix-blend-mode:multiply" opacity="0.38">
<path d="M61.1238 17.3758L48.2697 42.1837C47.9096 42.874 47.0793 43.1841 46.3591 42.884C45.3588 42.4538 43.9884 41.6736 43.0581 40.3632C41.8777 38.6826 41.5676 35.9918 42.3078 33.4009C42.888 34.6313 44.0984 36.3719 46.1791 35.5616C49.27 34.3613 58.0128 16.3055 61.1238 17.3758Z" fill="#D0C2F0"/>
</g>
<g style="mix-blend-mode:overlay" opacity="0.72">
<path d="M61.8041 13.4249C59.9135 13.5249 58.2429 13.675 55.0319 20.017C51.8209 26.369 47.4094 28.2696 45.7689 29.54C44.1284 30.8104 42.3178 33.4013 42.3178 33.4013C42.4379 32.9811 42.5879 32.561 42.758 32.1509L59.5933 12.0645L61.8041 13.4249Z" fill="#DA91E6"/>
</g>
<path d="M66.2655 14.0243C66.1754 14.1743 66.0554 14.3244 65.9153 14.4344C64.6649 15.6448 61.754 16.175 61.754 16.175C59.7534 16.0649 58.633 14.6445 58.2629 14.0743C58.1629 13.9143 58.1129 13.8242 58.1129 13.8242C57.6527 11.1134 58.3229 9.75293 58.3229 9.75293C58.3229 9.75293 67.1857 12.5338 66.2755 14.0243H66.2655Z" fill="#00BA22"/>
<path d="M66.2654 14.0248C65.4852 15.2752 63.1444 14.525 61.2338 13.3646C59.0731 12.0442 57.6927 10.5837 58.4629 9.33331C59.1031 8.28298 61.3739 8.55306 63.6046 9.75345C65.8353 10.9538 66.8756 13.0445 66.2654 14.0248Z" fill="#A4E6C1"/>
<g style="mix-blend-mode:multiply" opacity="0.38">
<path d="M65.9154 14.4353C64.665 15.6457 61.7541 16.1759 61.7541 16.1759C59.7534 16.0658 58.6331 14.6454 58.2629 14.0752C58.433 14.1852 60.3636 15.2856 62.2042 15.2156C64.0748 15.1455 65.2752 14.9255 65.9154 14.4353Z" fill="#D0C2F0"/>
</g>
<path d="M60.1043 9.9179C60.1927 9.76485 60.0588 9.52214 59.8053 9.37578C59.5518 9.22943 59.2747 9.23485 59.1863 9.3879C59.0979 9.54096 59.2318 9.78368 59.4853 9.93004C59.7388 10.0764 60.0159 10.071 60.1043 9.9179Z" fill="#2C2E82"/>
<path d="M65.9679 13.9062C66.0563 13.7531 65.9224 13.5104 65.6689 13.3641C65.4155 13.2177 65.1383 13.2231 65.0499 13.3762C64.9616 13.5293 65.0955 13.772 65.3489 13.9183C65.6024 14.0647 65.8796 14.0593 65.9679 13.9062Z" fill="#2C2E82"/>
<path d="M60.2471 11.4863C60.3676 11.357 60.2688 11.0691 60.0263 10.8432C59.7839 10.6173 59.4897 10.5389 59.3692 10.6682C59.2487 10.7975 59.3476 11.0855 59.59 11.3114C59.8324 11.5373 60.1266 11.6156 60.2471 11.4863Z" fill="#2C2E82"/>
<path d="M61.5354 12.593C61.6294 12.4434 61.4782 12.1791 61.1976 12.0029C60.917 11.8266 60.6133 11.805 60.5193 11.9546C60.4253 12.1043 60.5765 12.3685 60.8571 12.5448C61.1377 12.7211 61.4414 12.7427 61.5354 12.593Z" fill="#2C2E82"/>
<path d="M63.1261 13.497C63.1973 13.3353 63.0091 13.0959 62.7058 12.9625C62.4025 12.829 62.0989 12.852 62.0277 13.0137C61.9565 13.1755 62.1447 13.4148 62.448 13.5483C62.7513 13.6817 63.0549 13.6588 63.1261 13.497Z" fill="#2C2E82"/>
<path d="M64.845 14.1442C64.8959 13.975 64.6798 13.7605 64.3625 13.6651C64.0451 13.5698 63.7466 13.6297 63.6958 13.799C63.6449 13.9682 63.861 14.1828 64.1783 14.2781C64.4957 14.3734 64.7942 14.3135 64.845 14.1442Z" fill="#2C2E82"/>
<path d="M61.7039 11.0551C61.8021 10.9217 61.6834 10.6675 61.4388 10.4874C61.1942 10.3073 60.9163 10.2695 60.818 10.4029C60.7198 10.5364 60.8385 10.7905 61.0831 10.9706C61.3277 11.1507 61.6057 11.1885 61.7039 11.0551Z" fill="#2C2E82"/>
<path d="M62.8248 12.3429C62.913 12.2026 62.7759 11.9579 62.5187 11.7963C62.2615 11.6347 61.9815 11.6174 61.8934 11.7577C61.8052 11.898 61.9423 12.1427 62.1995 12.3043C62.4567 12.4659 62.7367 12.4832 62.8248 12.3429Z" fill="#2C2E82"/>
<path d="M64.5149 12.7873C64.5977 12.6438 64.4516 12.4043 64.1886 12.2524C63.9255 12.1006 63.6451 12.0938 63.5622 12.2373C63.4794 12.3807 63.6255 12.6202 63.8886 12.7721C64.1516 12.9239 64.432 12.9307 64.5149 12.7873Z" fill="#2C2E82"/>
<path d="M63.4859 11.6554C63.5688 11.5119 63.4227 11.2725 63.1596 11.1206C62.8966 10.9687 62.6161 10.9619 62.5333 11.1054C62.4505 11.2489 62.5966 11.4884 62.8596 11.6402C63.1227 11.7921 63.4031 11.7989 63.4859 11.6554Z" fill="#2C2E82"/>
<path d="M65.8819 12.7686C66.0048 12.6575 65.9364 12.3814 65.729 12.1519C65.5217 11.9224 65.2539 11.8265 65.131 11.9375C65.008 12.0486 65.0765 12.3247 65.2838 12.5542C65.4912 12.7837 65.7589 12.8796 65.8819 12.7686Z" fill="#2C2E82"/>
<path d="M64.7938 11.4986C64.9055 11.3689 64.8028 11.0971 64.5643 10.8916C64.3258 10.6862 64.0419 10.6247 63.9301 10.7544C63.8184 10.8841 63.9211 11.1558 64.1596 11.3613C64.3981 11.5668 64.682 11.6283 64.7938 11.4986Z" fill="#2C2E82"/>
<path d="M63.3164 10.4391C63.3914 10.2852 63.2229 10.0486 62.94 9.91052C62.6571 9.77247 62.3669 9.78529 62.2918 9.93916C62.2167 10.093 62.3852 10.3297 62.6681 10.4677C62.9511 10.6058 63.2413 10.5929 63.3164 10.4391Z" fill="#2C2E82"/>
<path d="M61.8033 9.71467C61.8526 9.5507 61.6481 9.34436 61.3466 9.2538C61.0451 9.16323 60.7608 9.22273 60.7115 9.3867C60.6623 9.55067 60.8668 9.75701 61.1683 9.84758C61.4698 9.93815 61.7541 9.87864 61.8033 9.71467Z" fill="#2C2E82"/>
<path d="M23.882 1.93156C23.882 1.93156 23.0717 1.89155 21.7913 1.95157C20.7109 2.00158 19.3005 2.14163 17.76 2.45173C17.5899 2.48174 17.4099 2.52175 17.2298 2.56176C16.6296 2.6818 16.0094 2.85186 15.3892 3.04192C13.6587 3.57209 11.9081 4.35234 10.3676 5.5027C8.15692 7.14323 3.13533 11.8047 3.40541 21.8679C3.55546 27.5497 5.38604 34.9421 10.3676 44.4851L9.55737 47.4161L9.49735 47.6362L9.3273 48.2664C9.3273 48.2664 2.06498 39.7236 0.744559 26.6595C0.614517 25.3891 0.5345 24.0886 0.5345 22.7382V22.6182C0.5345 21.8779 0.554499 21.1577 0.604515 20.4675C0.604515 20.3875 0.624525 20.2974 0.624525 20.2074C0.644532 19.9073 0.694548 19.5972 0.734561 19.2571C1.94495 7.57336 9.47735 3.02191 15.7394 2.19164C16.5796 2.07161 17.3599 1.99158 18.0701 1.94156C19.2905 1.84153 20.3208 1.81152 21.1711 1.81152C22.9416 1.81152 23.882 1.95157 23.882 1.95157V1.93156Z" fill="#A23AB3"/>
<g style="mix-blend-mode:multiply" opacity="0.38">
<path d="M18.0701 1.9209C17.9801 2.08095 17.87 2.26101 17.76 2.45107C17.5899 2.48108 17.4099 2.52109 17.2298 2.5611C16.6296 2.68114 16.0094 2.8512 15.3892 3.04126C13.6587 3.57143 11.9081 4.35168 10.3676 5.50204C8.15693 7.14257 3.13534 11.8041 3.40542 21.8673C1.61485 23.0577 0.974639 25.1383 0.754568 26.6488C0.624527 25.3784 0.54451 24.078 0.54451 22.7275V22.6075C0.54451 21.8673 0.564508 21.147 0.614524 20.4568C0.614524 20.3768 0.634535 20.2868 0.634535 20.1967C0.654541 19.8966 0.704558 19.5865 0.744571 19.2464C1.95496 7.5627 9.48736 3.01125 15.7494 2.18098C16.5896 2.06094 17.3699 1.98092 18.0801 1.9309L18.0701 1.9209Z" fill="#8F78C2"/>
</g>
<path d="M38.9168 13.2955L38.8668 13.5255L38.2466 16.4865L38.2266 16.5765C37.8064 16.5965 37.5263 16.5765 37.5263 16.5765C37.3663 16.5965 37.2762 16.4865 37.1262 16.4065C37.1262 16.4065 37.4563 15.116 37.4463 13.3355C37.4463 11.915 37.0062 9.76433 35.9558 8.69399C32.1046 4.76273 24.8523 2.472 18.1101 2.7821C17.1198 2.83212 16.2095 2.91214 15.3692 3.03218C8.09692 4.06251 5.11597 7.64365 3.08533 12.0251C-0.0656815 18.8172 0.864621 26.6197 1.82493 30.591C2.72522 34.2622 5.44609 43.085 9.5374 47.4064L9.47737 47.6264L9.30731 48.2566C9.30731 48.2566 0.564522 37.9733 0.52451 22.7285C0.52451 22.7285 -1.26605 2.95215 18.4602 1.10156L21.1611 1.79178L21.7813 1.95183L32.2646 4.63269L38.2466 9.82435L38.9068 13.2955H38.9168Z" fill="#C44FD7"/>
<path d="M41.5176 14.1055C41.4976 15.1858 41.3375 15.8761 41.3375 15.8761C40.3972 16.3962 39.0368 16.5363 38.2266 16.5763C37.8064 16.5963 37.5263 16.5763 37.5263 16.5763C37.5663 16.4462 37.9765 15.1258 37.9165 13.3853C37.8964 12.7251 37.8064 12.0148 37.6164 11.2846C37.5363 10.9845 37.4363 10.6844 37.3163 10.3843C36.6761 8.8038 35.3456 7.41336 33.5551 6.25299H33.5351H33.515C29.4537 3.64215 23.0617 2.2217 17.2198 2.58181C15.3092 2.70185 13.4686 3.01195 11.7781 3.52211C6.86653 5.02259 3.84558 8.98386 2.28508 12.9351C1.38479 15.2158 0.944648 17.4866 0.734581 19.2671C0.704572 19.5872 0.654555 19.8873 0.624545 20.2174C0.624545 20.3075 0.624541 20.3975 0.604535 20.4775C0.524509 21.5579 0.524517 22.3481 0.53452 22.6282V22.7483C0.53452 22.7483 -1.25606 2.97194 18.4702 1.12135C19.8507 0.991305 21.3412 0.951293 22.9317 1.00131C29.9639 1.25139 34.3853 2.91192 37.1262 5.02259C39.0268 6.48306 40.1272 8.1636 40.7474 9.76411C41.4076 11.4246 41.5376 12.9951 41.5076 14.1255L41.5176 14.1055Z" fill="#D37BE1"/>
<g style="mix-blend-mode:overlay" opacity="0.48">
<path d="M40.7574 9.75421C40.3972 9.68419 39.8871 9.64418 39.3069 9.75421C38.1665 9.96428 37.6264 11.2947 37.6264 11.2947C37.5463 10.9846 37.4463 10.6845 37.3263 10.3844C36.6861 8.80391 35.3556 7.41346 33.5651 6.25309C33.8151 6.33312 35.5857 6.83328 36.6961 5.953C37.0762 5.6529 37.1762 5.32279 37.1462 5.0127C39.0468 6.47316 40.1472 8.1537 40.7674 9.75421H40.7574Z" fill="#CABDF5"/>
</g>
</svg>
