<svg width="131" height="84" viewBox="0 0 131 84" fill="none" xmlns="http://www.w3.org/2000/svg">
<g filter="url(#filter0_d_408_339695)">
<path d="M105.832 48.208C96.3681 42.9046 91.1833 47.5396 86.9794 43.4759C82.7863 39.4229 67.6307 43.4759 57.6384 38.8839C57.3366 38.7438 56.9701 38.5282 56.5928 38.2588C54.8035 36.976 52.4536 34.4753 53.2297 33.2141C53.2405 33.2033 53.2405 33.1925 53.2513 33.171C53.6393 32.5673 53.9843 32.4595 54.5017 32.632C54.5448 32.6428 54.5879 32.6751 54.631 32.6967C54.6741 32.6967 54.6957 32.7075 54.728 32.7398H54.7711C55.5257 33.0847 56.6359 33.8608 58.5654 34.6585C61.0662 35.6933 63.5346 35.1436 65.4964 34.0118C66.251 33.5698 66.9301 33.0308 67.4798 32.4703H67.4906C67.6415 32.3302 67.7816 32.1793 67.9218 32.0284C68.008 31.9314 68.0835 31.8236 68.1481 31.705C68.2344 31.5541 68.299 31.4032 68.3314 31.2415C68.6224 29.3551 65.0437 27.0807 63.1897 20.7749C62.4783 18.3172 61.5405 16.2476 60.5704 14.5661C60.3871 14.2643 60.2254 13.9732 60.0422 13.693C59.9667 13.5636 59.8913 13.445 59.8158 13.3373C59.7188 13.1756 59.6326 13.0031 59.5463 12.8414C60.0961 12.8414 60.6027 12.6582 61.0339 12.3671C61.7129 11.8928 62.1441 11.106 62.1441 10.2221C62.1441 8.9609 61.2494 7.89376 60.0637 7.65661C60.1176 7.5057 60.15 7.3548 60.15 7.18233C60.15 6.38467 59.5248 5.7487 58.7271 5.72714C58.7163 4.89714 58.2636 4.12104 57.4875 3.74376C56.5497 3.28026 55.4718 3.58208 54.7927 4.35818C54.4693 4.02402 54.0166 3.81922 53.51 3.81922C53.1435 3.81922 52.8093 3.91623 52.5183 4.11026C52.2704 3.46351 51.6452 3 50.9122 3C50.2331 3 49.6618 3.38805 49.3708 3.94857C49.1013 3.70065 48.7564 3.53896 48.3575 3.53896C47.8725 3.53896 47.4736 3.79766 47.2041 4.15337C47.0209 3.79766 46.5789 3.53896 46.04 3.53896C45.3609 3.53896 44.8004 3.97013 44.8004 4.49831C44.8004 4.58454 44.8435 4.68155 44.8758 4.76779C44.7142 4.50909 44.4339 4.33662 44.0997 4.33662C43.5716 4.33662 43.1512 4.75701 43.1512 5.29597C43.1512 5.34987 43.1619 5.39298 43.1727 5.44688C42.9895 5.23129 42.7416 5.08038 42.429 5.08038C41.9008 5.08038 41.4804 5.50077 41.4804 6.02895C41.4804 6.33077 41.6205 6.58947 41.8469 6.76194C41.8253 6.77272 41.8038 6.7835 41.7822 6.80506C41.6313 6.48168 41.3079 6.25532 40.9307 6.25532C40.4025 6.25532 39.9821 6.67571 39.9821 7.20389C39.9821 7.3009 40.0036 7.38713 40.036 7.46259C39.9713 7.45181 39.9066 7.44103 39.842 7.44103C39.3569 7.44103 38.9688 7.82908 38.9688 8.31414C38.9688 8.46505 39.0227 8.60518 39.0982 8.73453C39.0766 8.72375 39.0443 8.72375 39.0227 8.72375C38.6239 8.72375 38.2897 9.04713 38.2897 9.45674C38.2897 9.59687 38.3436 9.72622 38.4191 9.84479C38.3329 9.80167 38.2251 9.78012 38.1281 9.78012C37.7184 9.78012 37.3951 10.1143 37.3951 10.5239C37.3951 10.8041 37.5568 11.0521 37.7939 11.1706C37.7185 11.1275 37.643 11.1167 37.546 11.1167C37.1472 11.1167 36.813 11.4401 36.813 11.8497C36.813 11.9683 36.8561 12.0761 36.8885 12.1731C36.5435 12.2378 36.274 12.518 36.274 12.8845C36.274 13.0785 36.3495 13.2295 36.4573 13.3588C36.1555 13.445 35.9183 13.7145 35.9183 14.0595C35.9183 14.2427 35.983 14.4044 36.1016 14.5337C35.7782 14.6092 35.5411 14.8895 35.5411 15.2236C35.5411 15.4823 35.6812 15.6871 35.8644 15.8272C35.5734 15.9135 35.3578 16.183 35.3578 16.5063C35.3578 16.8297 35.5411 17.0561 35.789 17.1746C31.3048 23.2218 30.2377 39.1534 30.2377 39.1534C25.538 44.7371 26.1632 51.5711 24.805 55.5486C23.436 59.5261 16.2786 62.2532 8.36669 63.2449C0.465542 64.2366 2.69684 70.0789 6.14618 72.4504C9.6063 74.8002 24.805 66.608 24.805 66.608L24.8912 66.6727H24.902L26.7668 67.8908C26.7668 67.8908 26.3787 68.0525 25.7535 68.3543C24.7834 68.7962 23.1989 69.5831 21.5389 70.5532C19.8681 71.5126 18.0895 72.6875 16.7206 73.9379C13.0988 77.2579 19.7603 80.9013 25.4517 81.1492C31.1216 81.3971 57.0671 75.5979 60.1068 76.18C62.0148 76.5465 63.222 74.7895 63.8903 73.4097C64.2892 72.5797 64.4616 71.8791 64.4616 71.8791C64.9575 71.8791 76.8146 73.2049 76.8146 73.2049C74.1737 76.18 78.3776 76.3524 79.4447 76.3524C80.5119 76.3524 99.8497 75.447 110.974 77.107C111.157 77.1178 111.308 77.1501 111.481 77.1717C112.645 77.3226 113.69 77.3872 114.606 77.3872C122.109 77.3872 122.238 72.8923 122.238 72.8923C123.844 73.3343 126.42 71.297 126.873 68.6238C126.927 68.2788 126.949 67.9339 126.938 67.5782C126.776 64.4306 115.242 53.5976 105.778 48.2942L105.832 48.208ZM45.0375 5.1235C45.0375 5.1235 45.0267 5.00493 44.9944 4.96181C45.0375 5.01571 45.0699 5.04805 45.1238 5.10194C45.0806 5.11272 45.0591 5.1235 45.0375 5.1235Z" fill="#F6FBFA"/>
<path opacity="0.64" d="M31.6285 28.3093C31.6285 28.3093 30.3026 34.917 36.2312 34.6798C42.1597 34.4427 41.9118 19.5998 41.0279 17.7349C40.144 15.8701 31.6285 28.3093 31.6285 28.3093Z" fill="#D8E8E6"/>
<path d="M54.2648 36.1245C53.7043 40.005 45.7061 40.3823 43.561 39.6817C42.0735 39.1966 39.3248 39.7032 37.8049 40.0589C37.1366 40.2098 36.7055 40.3392 36.7055 40.3392C36.7055 40.3392 36.7055 40.641 34.9161 39.6817C34.5281 39.4769 34.0538 39.2074 33.4825 38.8517C30.3242 36.9437 30.5182 32.9016 30.6691 31.8236C30.6691 31.8021 30.6691 31.7805 30.6691 31.7697C30.82 30.7673 31.3266 29.8618 31.3266 29.8618C31.3266 29.8618 36.1665 40.2745 37.3414 39.0134C38.5164 37.7522 49.274 36.6527 51.1927 36.6527C53.1114 36.6527 53.0791 33.9148 53.0791 33.8393C53.0791 33.8393 53.4887 33.6992 53.8336 33.9364C54.1785 34.1519 54.4588 34.734 54.254 36.1245H54.2648Z" fill="#E84200"/>
<path d="M53.8444 33.9363C53.7151 37.515 51.3329 38.054 49.08 38.3558C46.6116 38.6899 48.7998 38.5175 44.2294 38.5175C41.7286 38.5175 39.4111 39.3259 37.8158 40.0589C37.1474 40.2098 36.7163 40.3392 36.7163 40.3392C36.7163 40.3392 36.7163 40.641 34.9269 39.6816C34.1724 38.2372 33.2777 37.5366 31.801 35.1328C31.4237 34.5292 30.8416 32.341 30.6799 31.8344C30.6799 31.8128 30.6799 31.7913 30.6799 31.7805C30.8308 30.778 31.3375 29.8726 31.3375 29.8726C31.3375 29.8726 36.1773 40.2853 37.3523 39.0241C38.5272 37.7629 49.2848 36.6635 51.2035 36.6635C53.1222 36.6635 53.0899 33.9255 53.0899 33.8501C53.0899 33.8501 53.4995 33.71 53.8444 33.9471V33.9363Z" fill="#D43C00"/>
<path d="M38.7317 47.7014C38.0742 49.1566 30.5288 49.4692 30.3671 46.0845C30.3671 46.0845 30.3671 46.0522 30.3886 45.9875C30.4533 45.6534 30.7012 44.5108 31.1863 43.2496C32.0055 41.1369 33.5146 38.69 36.0154 39.1212C36.1232 39.1427 36.2417 39.1643 36.3387 39.1966C40.2624 40.1991 39.3677 46.2786 38.7317 47.6906V47.7014Z" fill="#FFD648"/>
<path d="M38.721 47.7123C38.0634 49.1675 30.518 49.4693 30.3563 46.0954C30.3563 46.0954 30.3563 46.0631 30.3779 45.9984C31.1216 45.8367 32.2211 45.6427 33.2559 45.6858C33.8164 45.7073 34.3662 45.7936 34.8189 45.9984C34.9267 46.0523 35.0345 46.0954 35.1423 46.1385C36.5112 46.7314 37.9018 47.1841 38.721 47.7123Z" fill="#E6C141"/>
<path d="M35.143 46.1389C34.9597 47.3035 34.302 47.0878 33.6011 46.9584C33.1051 46.8614 33.1483 46.2036 33.2669 45.6753C33.8276 45.6969 34.3775 45.7831 34.8303 45.988C34.9382 46.0419 35.046 46.085 35.1538 46.1282L35.143 46.1389Z" fill="#FFC603"/>
<path d="M36.3283 39.2074C33.7952 40.102 34.5605 42.2794 33.2885 43.7562C32.4478 44.7371 31.6501 43.961 31.165 43.2604C31.9843 41.1476 33.4933 38.7008 35.9941 39.1319C36.1019 39.1535 36.2205 39.175 36.3175 39.2074H36.3283Z" fill="#FFE380"/>
<path d="M41.1245 18.0158C41.0707 21.6484 40.467 35.726 34.5924 32.9557C31.5957 31.5437 30.41 29.6465 30.2591 27.6524C29.8603 22.6832 35.832 17.1211 35.832 17.1211L41.1461 17.1858C41.1461 17.1858 41.1461 17.4876 41.1461 18.0158H41.1245Z" fill="#F6FBFA"/>
<path d="M62.1547 10.2226C62.1547 11.1065 61.7236 11.8933 61.0445 12.3569C62.3487 8.73504 59.3952 8.13141 59.3952 8.13141C59.945 6.62232 57.8754 5.92167 57.8754 5.92167C57.0669 4.05687 54.8895 5.03778 54.8895 5.03778C54.5338 4.15388 52.5397 4.12155 52.5397 4.12155C52.8307 3.92752 53.1649 3.83051 53.5314 3.83051C54.0272 3.83051 54.4907 4.03531 54.8141 4.36947C55.4932 3.59337 56.5819 3.29155 57.5089 3.75505C58.285 4.12155 58.7377 4.90843 58.7485 5.73843C59.5462 5.75998 60.1713 6.40674 60.1713 7.19362C60.1713 7.35531 60.1282 7.51699 60.0851 7.6679C61.2708 7.91582 62.1655 8.97219 62.1655 10.2334L62.1547 10.2226Z" fill="white"/>
<path d="M68.3423 31.2418C68.3207 31.3927 68.256 31.5436 68.159 31.7053C68.0944 31.8239 68.0189 31.9209 67.9327 32.0287C67.7925 32.1796 67.6524 32.3305 67.5015 32.4706H67.4907C67.1674 32.5461 66.9625 32.5892 66.9625 32.5892C66.9625 32.5892 62.9419 32.158 63.2329 30.0884C63.5348 28.0188 60.937 22.4244 59.8483 19.4817C58.7488 16.539 60.592 14.5771 60.592 14.5771C61.5622 16.2587 62.5 18.3391 63.2114 20.786C65.0654 27.081 68.6441 29.3554 68.3531 31.2526L68.3423 31.2418Z" fill="white"/>
<path d="M48.4761 18.6192C48.4761 18.6192 48.6378 16.3771 51.2679 17.7353C52.2596 18.2419 52.1087 19.7187 52.1087 19.7187C52.1087 19.7187 52.4967 18.5222 51.4943 17.5736C50.287 16.431 47.9479 16.7328 48.4761 18.63V18.6192Z" fill="black"/>
<path d="M49.4572 17.9507C49.8022 17.6488 50.7403 17.5625 51.1609 18.3281C51.549 19.029 50.7942 20.0533 49.7699 19.6005C49.0906 19.2985 48.8642 18.4575 49.4464 17.9507H49.4572Z" fill="black"/>
<path d="M68.342 31.2418C68.2989 31.5005 68.1696 31.7592 67.9324 32.0286C67.2857 32.7616 66.4665 33.4515 65.5179 34.012C65.6904 33.182 63.0387 32.1903 62.6291 31.3711C62.2195 30.5411 63.2435 30.0884 63.2435 30.0884C64.1381 31.8669 66.7791 31.6945 67.8031 31.5651C68.0726 31.5328 68.2342 31.4142 68.3528 31.2418H68.342Z" fill="black"/>
<path opacity="0.64" d="M108.635 71.8466C107.482 71.9652 102.954 70.8118 101.057 69.6584C99.1708 68.5051 88.6287 67.9122 85.0069 67.9122C81.3851 67.9122 76.8578 73.1293 76.8578 73.1293C76.8578 73.1293 65.0007 71.8035 64.5156 71.8035C64.5156 71.8035 60.1501 67.9984 58.2206 67.3732C56.2911 66.748 53.8981 68.9901 53.7364 69.7339C53.5747 70.4777 40.7367 74.2827 36.7161 74.2827C32.6954 74.2827 25.6458 75.684 25.1931 75.7702C25.8614 75.5439 43.4423 69.6261 47.5707 68.408C51.7638 67.1577 58.0266 58.1355 58.0266 58.1355C56.3773 65.9181 58.5116 66.1552 61.8963 68.3218C65.4319 70.5747 84.2092 65.8318 85.2764 65.8318C86.3435 65.8318 87.9927 62.3501 87.0118 59.0409C86.0201 55.7317 89.0706 52.1638 89.0706 52.1638C89.0706 52.1638 90.1486 52.0776 89.0706 55.3113C88.0035 58.5451 90.4719 63.3418 90.9678 64.9156C91.4636 66.4893 100.842 68.0631 101.51 68.4727C102.167 68.8823 109.821 71.6957 108.667 71.8143L108.635 71.8466Z" fill="#D8E8E6"/>
<path opacity="0.64" d="M46.191 51.7758C45.167 54.0394 41.5128 61.8759 38.721 63.0293C35.1854 64.4952 26.0878 68.171 25.8075 68.2787C26.4327 67.9877 26.81 67.826 26.81 67.826L24.9452 66.6187L24.7512 66.2415C24.7512 66.2415 14.9637 69.2381 12.2473 69.0764C12.2473 69.0764 22.5414 66.1768 24.762 63.191C26.9825 60.2051 25.8291 53.8346 26.4866 51.5171C26.4866 51.5171 28.2221 59.6338 30.6043 59.8818C32.911 60.1189 44.5094 54.5353 46.191 51.7758Z" fill="#D8E8E6"/>
<path opacity="0.48" d="M46.439 51.2266C46.4175 51.2805 46.3851 51.3775 46.3204 51.5177C46.2881 51.5932 46.245 51.6794 46.191 51.7657C46.3096 51.5069 46.3851 51.3128 46.4283 51.2266H46.439Z" fill="#DFF0EE"/>
<path opacity="0.64" d="M122.303 72.8171C122.303 72.8171 122.141 78.4977 111.545 77.1072C116.579 76.4497 120.697 74.9406 118.929 71.6529C115.868 65.9615 116.094 64.571 116.709 63.5146C116.709 63.5146 118.627 69.1091 120.481 69.4755C122.335 69.842 120.384 71.5667 122.314 72.8171H122.303Z" fill="#D8E8E6"/>
<path d="M41.1247 18.0156C41.0708 21.6374 40.4672 35.7151 34.5925 32.9448C31.5959 31.5327 30.4102 29.6356 30.2593 27.6414C30.9599 28.7948 33.0511 29.2907 35.9615 28.8703C39.2168 28.3852 41.0277 18.63 41.1355 18.0156H41.1247Z" fill="#FBFDFD"/>
<path opacity="0.48" d="M54.5125 32.6537C53.9951 32.4704 53.6394 32.589 53.2621 33.1926C50.9662 32.8585 44.5525 31.7806 43.4854 29.5169C42.7848 28.0402 41.5883 24.828 42.6554 23.5884C42.6554 23.5884 42.6554 27.3503 45.8245 29.0858C48.9936 30.832 54.146 32.5136 54.4586 32.6321C54.4802 32.6321 54.491 32.6429 54.5017 32.6537H54.5125Z" fill="#DFF0EE"/>
<path d="M126.992 67.5027C127.013 67.8584 126.992 68.2033 126.927 68.5483C125.353 68.0632 123.251 65.8427 122.303 64.4414C120.74 62.1454 116.827 58.847 115.35 59.968C113.863 61.0891 98.621 55.9905 96.3897 52.5843C94.1692 49.1673 88.3053 48.4882 86.3327 50.0404C84.3494 51.5926 75.1547 51.1614 71.6946 47.9923C68.2345 44.8232 56.8085 44.5753 54.9006 42.0314C53.8011 40.5762 55.2024 39.1857 56.5929 38.2803C56.981 38.5605 57.3367 38.7761 57.6277 38.9055C67.6308 43.4974 82.7756 39.4444 86.9795 43.4974C91.1834 47.5504 96.3574 42.9153 105.832 48.2187C115.296 53.5221 126.819 64.3659 126.981 67.5135L126.992 67.5027Z" fill="white"/>
<path opacity="0.64" d="M60.0638 13.6927C59.3524 13.5526 58.1882 13.2939 57.8541 13.0244C57.8541 13.0244 57.2289 15.0725 55.7306 14.9755C53.51 14.8353 52.6908 13.24 52.6908 13.24C52.6908 13.24 52.195 14.4365 50.2978 13.973C48.7349 13.6065 47.5491 11.0949 46.3527 11.2027C45.1669 11.3213 42.7632 12.7334 42.7632 12.7334C42.7632 12.7334 45.0268 9.62897 47.2473 11.0949C49.4786 12.5609 49.6403 13.9407 51.268 13.3801C51.268 13.3801 52.7124 12.8843 52.5184 11.6662C52.5184 11.6662 53.9843 14.6844 55.8168 14.5658C57.6169 14.4688 57.5522 12.5501 57.1534 12.1405C57.3151 12.216 58.6517 12.852 59.5572 12.8304C59.6434 12.9921 59.7189 13.1645 59.8267 13.3262C59.9021 13.4448 59.9776 13.5526 60.053 13.6819L60.0638 13.6927Z" fill="#D8E8E6"/>
<path opacity="0.48" d="M54.0492 6.28795C54.0492 6.28795 55.8068 5.30673 56.8635 6.53595C57.9202 7.76517 56.8635 8.86499 56.8635 8.86499C56.8635 8.86499 57.7153 7.67891 56.3351 6.41734C55.548 5.70569 54.0492 6.29873 54.0492 6.29873V6.28795Z" fill="#DFF0EE"/>
<path opacity="0.48" d="M48.5408 8.82126C48.5408 8.82126 50.4918 10.4489 51.9686 8.86437C53.0249 7.72178 51.3757 6.69775 51.3757 6.69775C51.3757 6.69775 52.7123 7.93736 51.4188 8.86437C50.4379 9.55424 48.5516 8.82126 48.5516 8.82126H48.5408Z" fill="#DFF0EE"/>
<path opacity="0.48" d="M43.399 7.38752C43.399 7.38752 43.2804 6.2877 44.4234 6.33083C45.5663 6.37396 45.4477 7.38752 45.4477 7.38752C45.4477 7.38752 45.2752 6.39552 44.2401 6.51413C43.5284 6.60039 43.399 7.38752 43.399 7.38752Z" fill="#DFF0EE"/>
</g>
<defs>
<filter id="filter0_d_408_339695" x="0.73" y="0.3" width="129.4" height="84.4" filterUnits="userSpaceOnUse" color-interpolation-filters="sRGB">
<feFlood flood-opacity="0" result="BackgroundImageFix"/>
<feColorMatrix in="SourceAlpha" type="matrix" values="0 0 0 0 0 0 0 0 0 0 0 0 0 0 0 0 0 0 127 0" result="hardAlpha"/>
<feMorphology radius="1" operator="dilate" in="SourceAlpha" result="effect1_dropShadow_408_339695"/>
<feOffset dx="0.43"/>
<feGaussianBlur stdDeviation="0.85"/>
<feComposite in2="hardAlpha" operator="out"/>
<feColorMatrix type="matrix" values="0 0 0 0 0.132578 0 0 0 0 0.132578 0 0 0 0 0.253333 0 0 0 0.54 0"/>
<feBlend mode="normal" in2="BackgroundImageFix" result="effect1_dropShadow_408_339695"/>
<feBlend mode="normal" in="SourceGraphic" in2="effect1_dropShadow_408_339695" result="shape"/>
</filter>
</defs>
</svg>
