<svg width="124" height="79" viewBox="0 0 124 79" fill="none" xmlns="http://www.w3.org/2000/svg">
<path d="M102.832 45.208C93.3681 39.9046 88.1833 44.5396 83.9794 40.4759C79.7863 36.4229 64.6307 40.4759 54.6384 35.8839C54.3366 35.7438 53.9701 35.5282 53.5928 35.2588C51.8035 33.976 49.4536 31.4753 50.2297 30.2141C50.2405 30.2033 50.2405 30.1925 50.2513 30.171C50.6393 29.5673 50.9843 29.4595 51.5017 29.632C51.5448 29.6428 51.5879 29.6751 51.631 29.6967C51.6741 29.6967 51.6957 29.7075 51.728 29.7398H51.7711C52.5257 30.0847 53.6359 30.8608 55.5654 31.6585C58.0662 32.6933 60.5346 32.1436 62.4964 31.0118C63.251 30.5698 63.9301 30.0308 64.4798 29.4703H64.4906C64.6415 29.3302 64.7816 29.1793 64.9218 29.0284C65.008 28.9314 65.0835 28.8236 65.1481 28.705C65.2344 28.5541 65.299 28.4032 65.3314 28.2415C65.6224 26.3551 62.0437 24.0807 60.1897 17.7749C59.4783 15.3172 58.5405 13.2476 57.5704 11.5661C57.3871 11.2643 57.2254 10.9732 57.0422 10.693C56.9667 10.5636 56.8913 10.445 56.8158 10.3373C56.7188 10.1756 56.6326 10.0031 56.5463 9.84141C57.0961 9.84141 57.6027 9.65816 58.0339 9.36712C58.7129 8.89284 59.1441 8.10596 59.1441 7.22206C59.1441 5.9609 58.2494 4.89376 57.0637 4.65661C57.1176 4.5057 57.15 4.3548 57.15 4.18233C57.15 3.38467 56.5248 2.7487 55.7271 2.72714C55.7163 1.89714 55.2636 1.12104 54.4875 0.743765C53.5497 0.280259 52.4718 0.582077 51.7927 1.35818C51.4693 1.02402 51.0166 0.819219 50.51 0.819219C50.1435 0.819219 49.8093 0.916232 49.5183 1.11026C49.2704 0.463505 48.6452 0 47.9122 0C47.2331 0 46.6618 0.388051 46.3708 0.948569C46.1013 0.700648 45.7564 0.53896 45.3575 0.53896C44.8725 0.53896 44.4736 0.797661 44.2041 1.15337C44.0209 0.797661 43.5789 0.53896 43.04 0.53896C42.3609 0.53896 41.8004 0.970128 41.8004 1.49831C41.8004 1.58454 41.8435 1.68155 41.8758 1.76779C41.7142 1.50909 41.4339 1.33662 41.0997 1.33662C40.5716 1.33662 40.1512 1.75701 40.1512 2.29597C40.1512 2.34987 40.1619 2.39298 40.1727 2.44688C39.9895 2.23129 39.7416 2.08038 39.429 2.08038C38.9008 2.08038 38.4804 2.50077 38.4804 3.02895C38.4804 3.33077 38.6205 3.58947 38.8469 3.76194C38.8253 3.77272 38.8038 3.7835 38.7822 3.80506C38.6313 3.48168 38.3079 3.25532 37.9307 3.25532C37.4025 3.25532 36.9821 3.67571 36.9821 4.20389C36.9821 4.3009 37.0036 4.38713 37.036 4.46259C36.9713 4.45181 36.9066 4.44103 36.842 4.44103C36.3569 4.44103 35.9688 4.82908 35.9688 5.31414C35.9688 5.46505 36.0227 5.60518 36.0982 5.73453C36.0766 5.72375 36.0443 5.72375 36.0227 5.72375C35.6239 5.72375 35.2897 6.04713 35.2897 6.45674C35.2897 6.59687 35.3436 6.72622 35.4191 6.84479C35.3329 6.80167 35.2251 6.78012 35.1281 6.78012C34.7184 6.78012 34.3951 7.11427 34.3951 7.52388C34.3951 7.80414 34.5568 8.05206 34.7939 8.17063C34.7185 8.12751 34.643 8.11674 34.546 8.11674C34.1472 8.11674 33.813 8.44011 33.813 8.84972C33.813 8.96829 33.8561 9.07608 33.8885 9.1731C33.5435 9.23777 33.274 9.51803 33.274 9.88452C33.274 10.0785 33.3495 10.2295 33.4573 10.3588C33.1555 10.445 32.9183 10.7145 32.9183 11.0595C32.9183 11.2427 32.983 11.4044 33.1016 11.5337C32.7782 11.6092 32.5411 11.8895 32.5411 12.2236C32.5411 12.4823 32.6812 12.6871 32.8644 12.8272C32.5734 12.9135 32.3578 13.183 32.3578 13.5063C32.3578 13.8297 32.5411 14.0561 32.789 14.1746C28.3048 20.2218 27.2377 36.1534 27.2377 36.1534C22.538 41.7371 23.1632 48.5711 21.805 52.5486C20.436 56.5261 13.2786 59.2532 5.36669 60.2449C-2.53446 61.2366 -0.303164 67.0789 3.14618 69.4504C6.6063 71.8002 21.805 63.608 21.805 63.608L21.8912 63.6727H21.902L23.7668 64.8908C23.7668 64.8908 23.3787 65.0525 22.7535 65.3543C21.7834 65.7962 20.1989 66.5831 18.5389 67.5532C16.8681 68.5126 15.0895 69.6875 13.7206 70.9379C10.0988 74.2579 16.7603 77.9013 22.4517 78.1492C28.1216 78.3971 54.0671 72.5979 57.1068 73.18C59.0148 73.5465 60.222 71.7895 60.8903 70.4097C61.2892 69.5797 61.4616 68.8791 61.4616 68.8791C61.9575 68.8791 73.8146 70.2049 73.8146 70.2049C71.1737 73.18 75.3776 73.3524 76.4447 73.3524C77.5119 73.3524 96.8497 72.447 107.974 74.107C108.157 74.1178 108.308 74.1501 108.481 74.1717C109.645 74.3226 110.69 74.3872 111.606 74.3872C119.109 74.3872 119.238 69.8923 119.238 69.8923C120.844 70.3343 123.42 68.297 123.873 65.6238C123.927 65.2788 123.949 64.9339 123.938 64.5782C123.776 61.4306 112.242 50.5976 102.778 45.2942L102.832 45.208ZM42.0375 2.1235C42.0375 2.1235 42.0267 2.00493 41.9944 1.96181C42.0375 2.01571 42.0699 2.04805 42.1238 2.10194C42.0806 2.11272 42.0591 2.1235 42.0375 2.1235Z" fill="#F6FBFA"/>
<path opacity="0.64" d="M28.6285 25.3093C28.6285 25.3093 27.3026 31.917 33.2312 31.6798C39.1597 31.4427 38.9118 16.5998 38.0279 14.7349C37.144 12.8701 28.6285 25.3093 28.6285 25.3093Z" fill="#D8E8E6"/>
<path d="M51.2648 33.1245C50.7043 37.005 42.7061 37.3823 40.561 36.6817C39.0735 36.1966 36.3248 36.7032 34.8049 37.0589C34.1366 37.2098 33.7055 37.3392 33.7055 37.3392C33.7055 37.3392 33.7055 37.641 31.9161 36.6817C31.5281 36.4769 31.0538 36.2074 30.4825 35.8517C27.3242 33.9437 27.5182 29.9016 27.6691 28.8236C27.6691 28.8021 27.6691 28.7805 27.6691 28.7697C27.82 27.7673 28.3266 26.8618 28.3266 26.8618C28.3266 26.8618 33.1665 37.2745 34.3414 36.0134C35.5164 34.7522 46.274 33.6527 48.1927 33.6527C50.1114 33.6527 50.0791 30.9148 50.0791 30.8393C50.0791 30.8393 50.4887 30.6992 50.8336 30.9364C51.1785 31.1519 51.4588 31.734 51.254 33.1245H51.2648Z" fill="#E84200"/>
<path d="M50.8444 30.9363C50.7151 34.515 48.3329 35.054 46.08 35.3558C43.6116 35.6899 45.7998 35.5175 41.2294 35.5175C38.7286 35.5175 36.4111 36.3259 34.8158 37.0589C34.1474 37.2098 33.7163 37.3392 33.7163 37.3392C33.7163 37.3392 33.7163 37.641 31.9269 36.6816C31.1724 35.2372 30.2777 34.5366 28.801 32.1328C28.4237 31.5292 27.8416 29.341 27.6799 28.8344C27.6799 28.8128 27.6799 28.7913 27.6799 28.7805C27.8308 27.778 28.3375 26.8726 28.3375 26.8726C28.3375 26.8726 33.1773 37.2853 34.3523 36.0241C35.5272 34.7629 46.2848 33.6635 48.2035 33.6635C50.1222 33.6635 50.0899 30.9255 50.0899 30.8501C50.0899 30.8501 50.4995 30.71 50.8444 30.9471V30.9363Z" fill="#D43C00"/>
<path d="M35.7317 44.7014C35.0742 46.1566 27.5288 46.4692 27.3671 43.0845C27.3671 43.0845 27.3671 43.0522 27.3886 42.9875C27.4533 42.6534 27.7012 41.5108 28.1863 40.2496C29.0055 38.1369 30.5146 35.69 33.0154 36.1212C33.1232 36.1427 33.2417 36.1643 33.3387 36.1966C37.2624 37.1991 36.3677 43.2786 35.7317 44.6906V44.7014Z" fill="#FFD648"/>
<path d="M35.721 44.7123C35.0634 46.1675 27.518 46.4693 27.3563 43.0954C27.3563 43.0954 27.3563 43.0631 27.3779 42.9984C28.1216 42.8367 29.2211 42.6427 30.2559 42.6858C30.8164 42.7073 31.3662 42.7936 31.8189 42.9984C31.9267 43.0523 32.0345 43.0954 32.1423 43.1385C33.5112 43.7314 34.9018 44.1841 35.721 44.7123Z" fill="#E6C141"/>
<path d="M32.143 43.1389C31.9597 44.3035 31.302 44.0878 30.6011 43.9584C30.1051 43.8614 30.1483 43.2036 30.2669 42.6753C30.8276 42.6969 31.3775 42.7831 31.8303 42.988C31.9382 43.0419 32.046 43.085 32.1538 43.1282L32.143 43.1389Z" fill="#FFC603"/>
<path d="M33.3283 36.2074C30.7952 37.102 31.5605 39.2794 30.2885 40.7562C29.4478 41.7371 28.6501 40.961 28.165 40.2604C28.9843 38.1476 30.4933 35.7008 32.9941 36.1319C33.1019 36.1535 33.2205 36.175 33.3175 36.2074H33.3283Z" fill="#FFE380"/>
<path d="M38.1245 15.0158C38.0707 18.6484 37.467 32.726 31.5924 29.9557C28.5957 28.5437 27.41 26.6465 27.2591 24.6524C26.8603 19.6832 32.832 14.1211 32.832 14.1211L38.1461 14.1858C38.1461 14.1858 38.1461 14.4876 38.1461 15.0158H38.1245Z" fill="#F6FBFA"/>
<path d="M59.1547 7.22257C59.1547 8.10647 58.7236 8.89335 58.0445 9.35685C59.3487 5.73504 56.3952 5.13141 56.3952 5.13141C56.945 3.62232 54.8754 2.92167 54.8754 2.92167C54.0669 1.05687 51.8895 2.03778 51.8895 2.03778C51.5338 1.15388 49.5397 1.12155 49.5397 1.12155C49.8307 0.92752 50.1649 0.830507 50.5314 0.830507C51.0272 0.830507 51.4907 1.03531 51.8141 1.36947C52.4932 0.593365 53.5819 0.291547 54.5089 0.755053C55.285 1.12155 55.7377 1.90843 55.7485 2.73843C56.5462 2.75998 57.1713 3.40674 57.1713 4.19362C57.1713 4.35531 57.1282 4.51699 57.0851 4.6679C58.2708 4.91582 59.1655 5.97219 59.1655 7.23335L59.1547 7.22257Z" fill="white"/>
<path d="M65.3423 28.2418C65.3207 28.3927 65.256 28.5436 65.159 28.7053C65.0944 28.8239 65.0189 28.9209 64.9327 29.0287C64.7925 29.1796 64.6524 29.3305 64.5015 29.4706H64.4907C64.1674 29.5461 63.9625 29.5892 63.9625 29.5892C63.9625 29.5892 59.9419 29.158 60.2329 27.0884C60.5348 25.0188 57.937 19.4244 56.8483 16.4817C55.7488 13.539 57.592 11.5771 57.592 11.5771C58.5622 13.2587 59.5 15.3391 60.2114 17.786C62.0654 24.081 65.6441 26.3554 65.3531 28.2526L65.3423 28.2418Z" fill="white"/>
<path d="M45.4761 15.6192C45.4761 15.6192 45.6378 13.3771 48.2679 14.7353C49.2596 15.2419 49.1087 16.7187 49.1087 16.7187C49.1087 16.7187 49.4967 15.5222 48.4943 14.5736C47.287 13.431 44.9479 13.7328 45.4761 15.63V15.6192Z" fill="black"/>
<path d="M46.4572 14.9507C46.8022 14.6488 47.7403 14.5625 48.1609 15.3281C48.549 16.029 47.7942 17.0533 46.7699 16.6005C46.0906 16.2985 45.8642 15.4575 46.4464 14.9507H46.4572Z" fill="black"/>
<path d="M65.342 28.2418C65.2989 28.5005 65.1696 28.7592 64.9324 29.0286C64.2857 29.7616 63.4665 30.4515 62.5179 31.012C62.6904 30.182 60.0387 29.1903 59.6291 28.3711C59.2195 27.5411 60.2435 27.0884 60.2435 27.0884C61.1381 28.8669 63.7791 28.6945 64.8031 28.5651C65.0726 28.5328 65.2342 28.4142 65.3528 28.2418H65.342Z" fill="black"/>
<path opacity="0.64" d="M105.635 68.8466C104.482 68.9652 99.9543 67.8118 98.0571 66.6584C96.1708 65.5051 85.6287 64.9122 82.0069 64.9122C78.3851 64.9122 73.8578 70.1293 73.8578 70.1293C73.8578 70.1293 62.0007 68.8035 61.5156 68.8035C61.5156 68.8035 57.1501 64.9984 55.2206 64.3732C53.2911 63.748 50.8981 65.9901 50.7364 66.7339C50.5747 67.4777 37.7367 71.2827 33.7161 71.2827C29.6954 71.2827 22.6458 72.684 22.1931 72.7702C22.8614 72.5439 40.4423 66.6261 44.5707 65.408C48.7638 64.1577 55.0266 55.1355 55.0266 55.1355C53.3773 62.9181 55.5116 63.1552 58.8963 65.3218C62.4319 67.5747 81.2092 62.8318 82.2764 62.8318C83.3435 62.8318 84.9927 59.3501 84.0118 56.0409C83.0201 52.7317 86.0706 49.1638 86.0706 49.1638C86.0706 49.1638 87.1486 49.0776 86.0706 52.3113C85.0035 55.5451 87.4719 60.3418 87.9678 61.9156C88.4636 63.4893 97.8415 65.0631 98.5098 65.4727C99.1674 65.8823 106.821 68.6957 105.667 68.8143L105.635 68.8466Z" fill="#D8E8E6"/>
<path opacity="0.64" d="M43.191 48.7758C42.167 51.0394 38.5128 58.8759 35.721 60.0293C32.1854 61.4952 23.0878 65.171 22.8075 65.2787C23.4327 64.9877 23.81 64.826 23.81 64.826L21.9452 63.6187L21.7512 63.2415C21.7512 63.2415 11.9637 66.2381 9.24731 66.0764C9.24731 66.0764 19.5414 63.1768 21.762 60.191C23.9825 57.2051 22.8291 50.8346 23.4866 48.5171C23.4866 48.5171 25.2221 56.6338 27.6043 56.8818C29.911 57.1189 41.5094 51.5353 43.191 48.7758Z" fill="#D8E8E6"/>
<path opacity="0.48" d="M43.439 48.2266C43.4175 48.2805 43.3851 48.3775 43.3204 48.5177C43.2881 48.5932 43.245 48.6794 43.191 48.7657C43.3096 48.5069 43.3851 48.3128 43.4283 48.2266H43.439Z" fill="#DFF0EE"/>
<path opacity="0.64" d="M119.303 69.8171C119.303 69.8171 119.141 75.4977 108.545 74.1072C113.579 73.4497 117.697 71.9406 115.929 68.6529C112.868 62.9615 113.094 61.571 113.709 60.5146C113.709 60.5146 115.627 66.1091 117.481 66.4755C119.335 66.842 117.384 68.5667 119.314 69.8171H119.303Z" fill="#D8E8E6"/>
<path d="M38.1247 15.0156C38.0708 18.6374 37.4672 32.7151 31.5925 29.9448C28.5959 28.5327 27.4102 26.6356 27.2593 24.6414C27.9599 25.7948 30.0511 26.2907 32.9615 25.8703C36.2168 25.3852 38.0277 15.63 38.1355 15.0156H38.1247Z" fill="#FBFDFD"/>
<path opacity="0.48" d="M51.5125 29.6537C50.9951 29.4704 50.6394 29.589 50.2621 30.1926C47.9662 29.8585 41.5525 28.7806 40.4854 26.5169C39.7848 25.0402 38.5883 21.828 39.6554 20.5884C39.6554 20.5884 39.6554 24.3503 42.8245 26.0858C45.9936 27.832 51.146 29.5136 51.4586 29.6321C51.4802 29.6321 51.491 29.6429 51.5017 29.6537H51.5125Z" fill="#DFF0EE"/>
<path d="M123.992 64.5027C124.013 64.8584 123.992 65.2033 123.927 65.5483C122.353 65.0632 120.251 62.8427 119.303 61.4414C117.74 59.1454 113.827 55.847 112.35 56.968C110.863 58.0891 95.621 52.9905 93.3897 49.5843C91.1692 46.1673 85.3053 45.4882 83.3327 47.0404C81.3494 48.5926 72.1547 48.1614 68.6946 44.9923C65.2345 41.8232 53.8085 41.5753 51.9006 39.0314C50.8011 37.5762 52.2024 36.1857 53.5929 35.2803C53.981 35.5605 54.3367 35.7761 54.6277 35.9055C64.6308 40.4974 79.7756 36.4444 83.9795 40.4974C88.1834 44.5504 93.3574 39.9153 102.832 45.2187C112.296 50.5221 123.819 61.3659 123.981 64.5135L123.992 64.5027Z" fill="white"/>
<path opacity="0.64" d="M57.0638 10.6927C56.3524 10.5526 55.1882 10.2939 54.8541 10.0244C54.8541 10.0244 54.2289 12.0725 52.7306 11.9755C50.51 11.8353 49.6908 10.24 49.6908 10.24C49.6908 10.24 49.195 11.4365 47.2978 10.973C45.7349 10.6065 44.5491 8.09494 43.3527 8.20273C42.1669 8.32131 39.7632 9.73338 39.7632 9.73338C39.7632 9.73338 42.0268 6.62897 44.2473 8.09494C46.4786 9.56091 46.6403 10.9407 48.268 10.3801C48.268 10.3801 49.7124 9.88429 49.5184 8.66624C49.5184 8.66624 50.9843 11.6844 52.8168 11.5658C54.6169 11.4688 54.5522 9.55013 54.1534 9.14052C54.3151 9.21598 55.6517 9.85195 56.5572 9.83039C56.6434 9.99208 56.7189 10.1645 56.8267 10.3262C56.9021 10.4448 56.9776 10.5526 57.053 10.6819L57.0638 10.6927Z" fill="#D8E8E6"/>
<path opacity="0.48" d="M51.0492 3.28795C51.0492 3.28795 52.8068 2.30673 53.8635 3.53595C54.9202 4.76517 53.8635 5.86499 53.8635 5.86499C53.8635 5.86499 54.7153 4.67891 53.3351 3.41734C52.548 2.70569 51.0492 3.29873 51.0492 3.29873V3.28795Z" fill="#DFF0EE"/>
<path opacity="0.48" d="M45.5408 5.82126C45.5408 5.82126 47.4918 7.44891 48.9686 5.86437C50.0249 4.72178 48.3757 3.69775 48.3757 3.69775C48.3757 3.69775 49.7123 4.93736 48.4188 5.86437C47.4379 6.55424 45.5516 5.82126 45.5516 5.82126H45.5408Z" fill="#DFF0EE"/>
<path opacity="0.48" d="M40.399 4.38752C40.399 4.38752 40.2804 3.2877 41.4234 3.33083C42.5663 3.37396 42.4477 4.38752 42.4477 4.38752C42.4477 4.38752 42.2752 3.39552 41.2401 3.51413C40.5284 3.60039 40.399 4.38752 40.399 4.38752Z" fill="#DFF0EE"/>
</svg>
