<svg width="80" height="71" viewBox="0 0 80 71" fill="none" xmlns="http://www.w3.org/2000/svg">
<g filter="url(#filter0_d_68_9326)">
<g filter="url(#filter1_d_68_9326)">
<path d="M44.2084 42.0975C44.2084 42.0975 44.1611 42.3888 44.4543 42.4277C44.6246 42.4471 44.8421 42.2334 44.7286 42.0878C44.6151 41.9421 44.7381 42.1946 44.4922 42.1946C44.2463 42.1946 44.3408 42.0004 44.199 42.1072L44.2084 42.0975Z" fill="#BAAA69"/>
<path d="M48.2943 10.0754C49.5615 10.6679 47.6228 16.6896 52.5595 11.1146C53.997 9.4926 56.7775 8.90984 58.1109 10.7455C60.428 13.9215 59.6336 7.74434 63.4165 9.29835C67.1994 10.8524 69.6677 13.9992 67.5304 16.3205C65.393 18.6418 71.8713 14.9996 73.4128 17.826C74.9543 20.6524 78.0563 26.6062 71.2849 27.558C64.5135 28.5098 69.3745 28.9371 70.2824 30.7922C71.1903 32.6473 71.0296 37.1734 64.5419 37.29C58.0542 37.3968 56.8815 44.1956 44.6438 43.4283C44.6438 43.4283 35.631 29.0537 41.7782 15.9224C43.7169 11.7751 46.9513 9.43437 48.2943 10.0754Z" fill="#5FA648"/>
<path d="M28.9732 10.1435C27.8856 11.0274 31.1578 16.3984 25.0674 12.1929C23.2894 10.9691 20.4617 11.0857 19.5916 13.1933C18.0784 16.8452 17.4164 10.6486 14.1064 13.0865C10.7963 15.5243 9.12238 19.1762 11.742 20.9147C14.3617 22.6533 7.22147 20.6915 6.37977 23.8189C5.53808 26.9463 3.93979 31.958 10.7301 31.2199C17.5204 30.4817 12.9053 32.094 12.4513 34.1142C11.9974 36.1344 13.2079 40.4952 19.5349 39.0189C25.8618 37.5426 28.5476 45.3807 40.2463 41.6414C40.2463 41.6414 45.6653 25.4699 36.662 14.2325C33.8153 10.6777 30.1365 9.20143 28.9732 10.1435Z" fill="#5FA648"/>
<path d="M42.724 45.2736C36.87 61.3479 31.9333 60.7457 30.7795 58.5021C29.6163 56.2682 27.2992 57.5114 24.6323 60.3669C20.4427 64.8346 16.0356 64.4656 14.6454 61.1147C13.7564 58.9683 16.499 55.4135 11.6569 56.2682C6.8053 57.1423 4.19509 55.8991 4.43152 51.8004C4.64904 47.9543 12.0257 44.5355 9.88836 44.0401C5.7839 43.0883 10.2856 38.2612 16.0356 37.4065C18.4094 37.0374 24.0837 36.134 29.8243 36.2117C30.439 36.2117 31.0538 36.2312 31.6496 36.2604C32.2643 36.2895 32.8601 36.3381 33.4654 36.3963C33.7113 36.4158 33.9571 36.4449 34.203 36.4837C36.4539 36.7363 38.5818 37.2316 40.3692 38.0474C41.3338 38.4845 42.1944 39.009 42.9321 39.6695C42.9888 39.718 43.0267 39.7569 43.0834 39.8055C43.2442 39.9511 43.3955 40.1162 43.5468 40.2716C43.8022 40.563 43.9819 40.8156 44.0953 41.0487C44.5493 42.0879 43.6319 42.8261 42.7335 45.2931L42.724 45.2736Z" fill="#559541"/>
<path d="M44.0858 41.0295C43.4333 40.9518 42.5065 41.0781 41.2203 41.7482C38.3737 43.2537 36.2268 56.521 29.777 53.986C23.3366 51.4316 24.1594 60.5614 20.0927 58.5121C16.0261 56.4725 19.8563 53.918 16.603 53.1119C13.3592 52.3057 8.79129 55.2875 7.03224 52.1795C5.85954 50.1107 7.9023 47.3621 12.3756 45.2836C16.8394 43.1857 11.0894 42.3213 10.522 42.4961C9.93563 42.6904 8.84804 40.1456 14.0685 39.0287C17.5204 38.3002 23.2325 36.2703 29.8243 36.2314C30.439 36.2314 31.0537 36.2509 31.6495 36.2801C32.2643 36.3092 32.8601 36.3578 33.4653 36.416C33.7112 36.4355 33.9571 36.4646 34.203 36.5034C36.2174 36.7657 38.2791 37.261 40.3691 38.0671C41.3338 38.5042 42.1944 39.0287 42.9321 39.6892C42.9888 39.7377 43.0266 39.7766 43.0834 39.8252C43.2442 39.9708 43.3955 40.1359 43.5468 40.2913C43.8021 40.5827 43.9818 40.8352 44.0953 41.0683L44.0858 41.0295Z" fill="#5FA648"/>
<path opacity="0.3" d="M32.5005 40.6311C35.6876 45.1669 33.4557 48.8382 33.276 49.1198C34.6378 45.9536 32.3302 41.1847 31.4602 40.9418C30.5901 40.699 24.8968 43.302 24.8968 43.302C27.2328 46.2158 27.1193 48.7605 26.7883 50.1105C27.3463 47.1385 24.5091 43.7197 23.7336 43.6614C22.8635 43.6031 20.8302 44.9046 20.8302 44.9046C22.0975 49.2656 21.4544 52.2668 20.868 53.8014C21.8799 50.5379 20.0074 45.264 20.0074 45.264C15.1747 45.7205 9.68006 49.3918 9.3396 49.6152C11.6755 45.6233 22.3339 43.3604 22.0407 42.6125C21.757 41.8646 15.0329 40.6894 15.0329 40.6894C17.4634 40.4369 23.5066 42.1171 23.5066 42.1171C23.5066 42.1171 31.1008 40.4369 31.0535 39.3199C30.9968 38.2127 20.6032 39.3199 20.6032 39.3199C23.0999 38.3584 28.5946 37.9309 33.4935 38.2709C37.4655 38.5526 41.0782 39.2519 42.9224 39.6598C42.9791 39.7084 43.017 39.7473 43.0737 39.7958C35.0634 38.7177 32.5005 40.6408 32.5005 40.6408V40.6311Z" fill="#D6FF9E"/>
<g opacity="0.66">
<path d="M43.944 41.3301C43.944 41.3301 41.8066 31.7244 34.7515 31.7244C27.6964 31.7244 30.3822 34.7257 24.1215 36.5419C17.8608 38.3582 15.6573 35.4833 15.0615 33.162C14.6737 31.6565 15.3168 27.1888 18.3431 24.7898C19.9698 23.4786 22.2868 22.7792 25.5117 23.459C33.8058 25.2073 40.6434 30.2287 43.0266 36.6001C43.5941 38.1153 43.9156 39.6984 43.944 41.3301Z" fill="#6CBD52"/>
<path opacity="0.55" d="M43.0264 36.6001C42.459 35.7551 41.0688 33.7446 39.5367 31.6079C37.5223 28.7912 28.831 28.4708 27.6205 30.1122C25.4926 33.0066 17.7282 35.7357 16.6784 30.8989C16.1205 28.3251 17.208 26.2078 18.3429 24.7898C19.9696 23.4786 22.2866 22.7792 25.5115 23.459C33.8056 25.2073 40.6432 30.2287 43.0264 36.6001Z" fill="#A9E060"/>
<path opacity="0.65" d="M39.9906 31.5398C38.3072 28.9951 34.0609 25.9744 31.3183 25.6442C30.5806 24.7798 28.1312 24.2553 27.8948 24.3233C27.6583 24.3913 29.9092 24.9934 30.4671 25.5276C29.3228 25.4985 27.8097 25.6346 26.6559 25.8774C26.2114 25.45 25.7669 25.382 25.3602 25.2558C23.9984 24.9547 21.2841 24.7312 21.2274 24.9449C21.1706 25.1586 24.3199 25.4014 25.521 26.159C22.2582 26.5766 17.7944 30.1508 17.9079 30.2965C18.0214 30.4422 22.8824 26.9845 25.8142 26.7806C26.0506 28.7037 22.646 31.3941 22.75 31.5398C22.854 31.6854 26.7504 28.7813 26.6653 26.6349C28.1501 26.4115 29.6538 26.3727 31.1197 26.5961C30.5523 27.3343 28.396 28.9562 28.5284 29.1213C28.6608 29.2865 30.9968 27.5964 31.8006 26.6349C32.8788 26.7417 34.2973 27.2371 35.2336 27.7324C36.3496 28.3637 38.9503 30.4325 39.9906 31.5495V31.5398Z" fill="#D6FF9E"/>
</g>
<path d="M44.029 41.6407C44.029 41.6407 43.4994 35.9685 49.9871 27.7614C55.5574 20.7198 55.4061 14.9505 67.7762 17.1941C76.3445 18.7482 77.5172 32.5011 67.0764 33.0644C56.6355 33.6277 45.5138 31.3259 44.0195 41.6407H44.029Z" fill="#6CBD52"/>
<path opacity="0.55" d="M44.0291 41.0968C44.0291 41.0968 44.8518 33.5404 52.0583 26.6348C57.3922 21.526 56.5316 17.0291 66.6225 18.8648C73.6114 20.1371 76.0798 31.5397 64.4095 31.5397C55.879 31.5397 45.249 32.676 44.0291 41.0871V41.0968Z" fill="#A9E060"/>
<path opacity="0.57" d="M44.0857 40.7668C44.0857 40.7668 44.7288 34.6577 52.0204 28.3833C57.5434 23.6242 55.4817 20.0596 65.5821 21.8953C72.571 23.1677 70.6323 29.9083 62.1207 30.3647C53.6092 30.8212 45.3057 32.3558 44.0857 40.7668Z" fill="#A9E060"/>
<path opacity="0.65" d="M59.8133 26.3144C62.1587 27.2565 67.3223 27.1108 67.2089 26.7806C67.0954 26.4503 62.7072 26.9651 60.6644 26.0813C62.4424 25.5956 64.2109 25.0906 65.8186 24.129C66.8968 23.5463 68.9585 22.2448 68.8639 22.07C68.7693 21.8952 65.4404 23.9445 63.6246 24.5952C63.5773 23.1578 65.8848 21.1473 65.7241 21.0211C65.5633 20.8948 63.1328 23.0996 63.0855 24.7895C61.6858 25.2655 60.2483 25.6539 58.7824 25.9842C57.9502 26.227 57.1369 26.528 56.3425 26.8777C56.5789 24.6438 59.3972 21.0793 59.1324 20.8948C58.8675 20.7103 56.0966 24.7312 55.7466 27.1496C51.1977 29.3155 47.4053 33.0937 45.0032 37.5906C47.3959 33.725 50.7437 30.4713 54.6685 28.3151C58.1015 29.8594 65.5349 29.4903 65.5349 29.1698C65.5349 28.8493 58.4231 29.432 55.3022 27.9655C55.3967 27.9169 55.4913 27.8587 55.5859 27.8101C56.9288 27.1303 58.3568 26.7029 59.8038 26.3144H59.8133Z" fill="#D6FF9E"/>
<path d="M41.6645 35.7652C41.6645 35.7652 27.8947 28.7722 19.0427 34.5609C15.5246 36.8627 10.5312 37.8145 13.0752 42.9234C13.7845 44.3414 10.115 43.2148 10.7581 46.993C11.5053 51.3733 14.2573 48.9257 15.9029 49.6056C17.8133 50.402 17.7092 53.1215 20.4708 53.4712C24.0078 53.9179 25.171 52.8981 27.5732 51.4121C29.1336 50.4409 31.3845 51.3442 32.7368 50.0233C36.9832 45.8857 39.338 38.8053 41.343 38.7373C44.9462 38.611 44.2369 41.4956 44.2369 41.4956C44.2369 41.4956 45.977 38.1739 41.674 35.7555L41.6645 35.7652Z" fill="#6CBD52"/>
<path d="M39.9809 36.0859C39.9809 36.0859 27.4595 30.5304 19.6856 35.4838C16.6214 37.436 14.8529 39.7379 15.2502 41.3307C15.6946 43.1276 17.7942 42.5837 18.7872 43.8075C20.0734 45.3809 16.7255 46.7698 22.0972 48.858C33.0298 53.1218 36.4912 37.64 39.6688 37.5428C42.8465 37.4457 44.2651 39.9614 44.2651 39.9614C44.2651 39.9614 43.9435 37.9022 39.9809 36.0859Z" fill="#A9E060"/>
<path opacity="0.65" d="M37.4559 36.4744C37.2479 36.2316 36.9925 36.0373 36.7182 35.9014C34.6566 34.9204 30.3346 33.784 30.2116 33.9589C30.0887 34.1337 34.6849 35.0272 36.2832 36.5909C34.3728 36.8337 32.3584 37.3582 30.5237 37.9604C28.2918 36.115 22.6269 34.8718 22.5418 35.2603C22.4567 35.6488 27.7906 36.4356 29.7861 38.2227C28.8025 38.582 27.8473 38.99 26.911 39.4756C25.3411 40.408 23.7618 41.2627 22.1446 42.0203C20.7638 40.5634 16.8485 40.6508 16.8107 40.8936C16.7728 41.1462 20.4233 40.9907 21.5204 42.3019C18.5224 42.807 14.4558 46.1384 14.5031 46.3618C14.5409 46.5949 18.5224 43.6811 19.941 43.2926C22.2202 42.7001 23.374 42.1951 25.3317 41.1267C24.2252 43.6326 19.9316 46.8572 20.0923 47.2457C20.2531 47.6342 24.9439 43.4189 26.2774 40.6119C27.8662 39.7475 29.474 38.9219 31.2047 38.3974C31.3276 38.3586 31.4505 38.3295 31.5735 38.3003C30.6561 43.4966 27.4217 46.9154 27.6771 47.1971C27.9324 47.4787 31.564 43.3315 32.4057 38.077C37.7207 36.1053 42.8276 36.4161 44.2084 39.8932C43.2911 37.6885 41.0497 36.251 37.437 36.4744H37.4559Z" fill="#D6FF9E"/>
<path d="M44.2847 43.846C47.3016 60.7652 51.1413 60.503 52.2383 58.2885C53.3354 56.0838 54.9998 57.5212 56.7873 60.6486C59.5866 65.534 63.0007 65.4758 64.3815 62.1347C65.261 59.9979 63.483 56.1517 67.1146 57.3852C70.7557 58.6381 73.2051 56.6665 73.4037 52.4416C73.5928 48.4788 67.909 45.3222 69.6019 44.9628C72.8363 44.2829 69.8289 39.0091 65.488 37.7076C63.7005 37.1637 59.4353 35.8233 55.0188 35.4834C54.5459 35.4348 54.073 35.4057 53.6096 35.396C53.1368 35.3766 52.6733 35.3863 52.2099 35.396C52.0208 35.396 51.8316 35.396 51.633 35.4349C49.8834 35.5223 48.2095 35.8816 46.7625 36.5906C45.9776 36.9694 45.2683 37.4453 44.6441 38.0669C44.5968 38.1058 44.559 38.1543 44.5212 38.1932C44.3793 38.3292 44.2564 38.4845 44.124 38.6399C43.897 38.9216 43.7362 39.1644 43.6322 39.3975C43.1877 40.4271 43.8213 41.2526 44.2847 43.8556V43.846Z" fill="#559541"/>
<path d="M43.6228 39.3878C44.1335 39.3587 44.8333 39.5433 45.7507 40.33C47.8029 42.0783 48.219 55.8506 53.4016 53.7138C58.5748 51.5576 57.1089 60.872 60.4189 59.0557C63.729 57.2589 61.0147 54.3549 63.5966 53.7722C66.1595 53.1797 69.9802 56.6373 71.6163 53.5778C72.7039 51.5382 72.0608 48.741 67.5592 46.0409C64.0789 43.9527 68.817 43.0981 69.2426 43.3117C69.6776 43.5448 70.7463 41.0195 66.8404 39.4946C64.2586 38.4943 60.0595 35.9981 55.0094 35.4834C54.5365 35.4348 54.0636 35.4057 53.6002 35.396C53.1274 35.3766 52.664 35.3863 52.2005 35.396C52.0114 35.396 51.8223 35.396 51.6237 35.4349C50.0537 35.5611 48.4271 35.9204 46.7532 36.5906C45.9682 36.9694 45.2589 37.4453 44.6347 38.0669C44.5874 38.1058 44.5496 38.1543 44.5118 38.1932C44.3699 38.3292 44.247 38.4845 44.1146 38.6399C43.8876 38.9216 43.7268 39.1644 43.6228 39.3975V39.3878Z" fill="#6CBD52"/>
<path d="M52.541 39.8249C49.6754 44.2441 51.0562 48.1776 51.1697 48.4787C50.4131 45.1279 52.6166 40.4076 53.3165 40.2133C54.0163 40.0191 58.1302 43.1175 58.1302 43.1175C56.0685 45.9439 55.9267 48.5565 56.0496 49.9745C55.8983 46.8762 58.3855 43.5837 58.9814 43.5837C59.6528 43.5837 61.0998 45.0696 61.0998 45.0696C59.7285 49.45 59.946 52.5872 60.2486 54.1994C59.7758 50.7709 61.6956 45.5068 61.6956 45.5068C65.3556 46.3226 69.2331 50.4893 69.4789 50.7418C68.0603 46.4683 60.0784 43.3796 60.381 42.6415C60.6647 41.9033 65.9325 41.175 65.9325 41.175C64.0883 40.7476 59.3029 42.0297 59.3029 42.0297C59.3029 42.0297 53.6285 39.7569 53.7704 38.6109C53.9123 37.4745 61.7807 39.3684 61.7807 39.3684C59.9555 38.2028 55.7753 37.3676 51.9924 37.3579C48.9188 37.3579 46.0816 37.8144 44.6347 38.0961C44.5874 38.1349 44.5495 38.1835 44.5117 38.2223C50.7535 37.6979 52.541 39.854 52.541 39.854V39.8249Z" fill="#A9E060"/>
<path d="M32.5481 38.0962C32.5481 38.0962 41.7216 38.1059 45.1546 36.6296C52.588 33.4148 52.5124 27.665 48.1999 28.5294C48.1999 28.5294 51.4626 24.3142 51.1505 20.1766C50.9614 17.6999 48.7295 14.4948 45.8828 14.3491C45.8828 14.3491 46.6772 8.20093 38.4589 9.61897C38.4589 9.61897 36.7849 3.63613 32.5481 7.64741C32.5481 7.64741 26.0793 5.04439 24.8026 11.1147C24.8026 11.1147 16.1019 11.7364 20.8872 22.1773C20.8872 22.1773 12.5838 26.4121 23.6866 33.881C25.8996 35.367 28.6328 36.1926 32.5481 38.0962Z" fill="#8ECF5F"/>
<path d="M31.4226 34.6383C31.4226 34.6383 37.6644 34.6384 40.0004 33.638C45.06 31.4527 45.0033 27.5385 42.0715 28.131C42.0715 28.131 44.294 25.2658 44.0859 22.4492C43.963 20.7592 42.4309 18.5835 40.5016 18.4864C40.5016 18.4864 41.0407 14.31 35.4514 15.2716C35.4514 15.2716 34.3071 11.202 31.4321 13.9312C31.4321 13.9312 27.0344 12.1636 26.1644 16.2914C26.1644 16.2914 20.2441 16.7091 23.4974 23.8187C23.4974 23.8187 17.842 26.7032 25.3983 31.7829C26.902 32.793 28.7651 33.3563 31.4321 34.6481L31.4226 34.6383Z" fill="#88C75C"/>
<path opacity="0.3" d="M20.0931 26.4023C22.2494 30.3262 26.108 33.4731 30.638 34.0753C29.7585 31.3558 29.522 28.442 29.7585 25.4894C25.9661 23.3721 23.3937 19.623 21.5306 15.8448C23.5545 19.3025 26.2025 22.6922 29.853 24.5279C30.0895 22.4008 30.5529 20.264 31.1771 18.1758C28.1886 16.2333 27.6022 12.2609 27.5171 8.98781C27.8859 11.989 28.6709 15.67 31.4419 17.3017C32.4916 14.048 33.9102 10.9595 35.4139 8.27881C34.1845 11.6296 32.9172 15.1649 31.9904 18.778C36.3502 18.8363 40.2844 16.1361 42.8568 12.7756C40.4263 16.4761 36.3786 19.5356 31.7634 19.6813C31.1392 22.2746 30.7231 24.8969 30.6285 27.5096C37.2959 27.4707 43.4904 23.6537 47.4625 18.4866C43.6418 23.9548 37.4472 28.0827 30.6002 28.4129C30.6002 30.6371 30.8461 32.832 31.4419 34.9979C37.0311 36.1926 43.15 34.7164 47.4625 30.9673C43.2729 34.8232 37.2297 36.484 31.6026 35.5322C31.858 36.3966 32.1606 37.2513 32.5295 38.0963C31.8107 36.9891 31.2433 35.8332 30.8082 34.6288C26.0985 33.9295 22.1359 30.5399 20.0742 26.4023H20.0931Z" fill="#D6FF9E"/>
<path d="M48.7861 35.2794C48.7861 35.2794 48.7483 35.2891 48.7294 35.2794C48.1714 35.26 47.5945 35.2114 46.9893 35.124C46.7055 35.0949 46.4313 35.0367 46.1759 34.9784C45.9017 34.9201 45.6369 34.8326 45.391 34.7549C45.1356 34.6675 44.8897 34.5705 44.6628 34.4636C44.2277 34.2694 43.8211 34.0363 43.4617 33.7643C39.083 30.5106 40.1043 22.6726 42.1944 17.8066C42.2039 17.7677 42.2228 17.7386 42.2322 17.7192C43.1401 15.631 44.2372 14.0867 45.1829 13.7371C45.4855 13.6205 45.7693 13.6204 46.0246 13.7661C46.0813 13.7953 46.1286 13.8245 46.1759 13.8439C46.4691 13.9896 46.6866 13.9992 46.8474 13.9021C48.0295 13.3582 46.2327 7.65694 46.6488 4.92772C46.7528 4.26726 46.9798 3.79135 47.4054 3.5971C47.5094 3.53883 47.6229 3.50971 47.7458 3.5H47.8215C47.8215 3.5 59.8228 6.36524 58.7257 19.6811C58.7257 19.7297 58.7163 19.7879 58.7163 19.8365C58.7163 19.8365 59.0378 19.7297 59.4729 19.6909C60.3808 19.584 61.7993 19.7491 61.9317 21.711C62.102 24.45 59.5012 35.6388 48.7861 35.2794Z" fill="#8AC95C"/>
<path d="M48.7861 35.2795C48.7861 35.2795 48.7483 35.2892 48.7294 35.2795C48.1714 35.2601 47.5945 35.2115 46.9893 35.1241C46.7055 35.0949 46.4313 35.0368 46.1759 34.9785C45.9017 34.9202 45.6369 34.8327 45.391 34.755C45.1356 34.6676 44.8897 34.5705 44.6628 34.4637C44.2277 34.2694 43.8211 34.0364 43.4617 33.7644C39.083 30.5107 40.1043 22.6726 42.1944 17.8066C42.2039 17.7678 42.2228 17.7387 42.2322 17.7193C43.1401 15.6311 44.2372 14.0868 45.1829 13.7371C45.2113 13.7371 45.2302 13.7565 45.2586 13.7662C45.6274 13.9799 45.8922 14.0187 46.0813 13.9022C46.1192 13.8827 46.1476 13.8634 46.1759 13.844C46.4691 13.9896 46.6866 13.9993 46.8474 13.9022C48.0295 13.3583 46.2327 7.65701 46.6488 4.92778C46.7528 4.26733 46.9798 3.79142 47.4054 3.59717C49.3819 4.19935 59.0284 7.75411 57.9502 19.8365C57.9502 19.8365 58.2812 19.7298 58.7257 19.6812C58.9527 19.6521 59.2081 19.6521 59.4729 19.6909C60.2578 19.7881 61.0711 20.2542 61.1657 21.7111C61.3359 24.382 58.8676 35.095 48.7861 35.2795Z" fill="#8ECF5F"/>
<path opacity="0.65" d="M54.0822 18.3605C52.1056 26.3442 49.4576 33.3082 46.1759 34.9885C45.9016 34.9205 45.6368 34.8427 45.3909 34.765C45.1356 34.6776 44.8897 34.5708 44.6627 34.4737C44.2277 34.2794 43.821 34.0366 43.4617 33.7647C38.8749 30.4333 40.0287 22.3912 42.1944 17.8069C42.2038 17.768 42.2228 17.7389 42.2322 17.7195C43.3293 15.4176 44.6816 14.0288 45.6652 14.5727C46.4691 15.0292 46.7906 14.6794 46.8474 13.9122C48.0295 13.3585 46.2326 7.65728 46.6488 4.93777C46.7906 4.81151 46.9703 4.73383 47.1973 4.72412C49.6373 6.23928 55.9264 10.9304 54.0822 18.3702V18.3605Z" fill="#6CBD52"/>
<path d="M44.0103 39.8928C44.0103 39.8928 34.761 39.9025 31.2997 38.3485C23.8095 34.9783 23.8852 28.9371 28.2355 29.8501C28.2355 29.8501 24.9444 25.4308 25.2565 21.0893C25.4456 18.4864 27.7059 15.1258 30.5715 14.9704C30.5715 14.9704 29.7676 8.52124 38.0522 10.0073C38.0522 10.0073 39.745 3.72324 44.0103 7.93848C44.0103 7.93848 50.5263 5.20925 51.822 11.571C51.822 11.571 60.5983 12.2218 55.7657 23.1775C55.7657 23.1775 64.1353 27.6259 52.9474 35.4542C50.7155 37.0179 47.9634 37.8823 44.0103 39.8734V39.8928Z" fill="#95D964"/>
<path opacity="0.61" d="M45.1452 36.26C45.1452 36.26 38.8561 36.2698 36.4918 35.2111C31.3944 32.919 31.4511 28.8105 34.4018 29.4321C34.4018 29.4321 32.1604 26.4212 32.3779 23.4686C32.5008 21.7009 34.0424 19.4088 35.9906 19.302C35.9906 19.302 35.4421 14.9119 41.0881 15.922C41.0881 15.922 42.2418 11.6484 45.1452 14.5136C45.1452 14.5136 49.5807 12.6586 50.4602 16.9904C50.4602 16.9904 56.4278 17.4371 53.1461 24.8867C53.1461 24.8867 58.8394 27.917 51.2263 33.2394C49.7036 34.3078 47.8311 34.8905 45.1452 36.2503V36.26Z" fill="#B5F263"/>
<path opacity="0.65" d="M56.56 27.6158C54.3848 31.7339 50.4978 35.0362 45.93 35.6675C46.819 32.8217 47.0554 29.7525 46.819 26.6542C50.6492 24.4301 53.2404 20.4965 55.113 16.5241C53.0702 20.1566 50.4033 23.7113 46.7244 25.6441C46.488 23.4102 46.0151 21.1666 45.3909 18.9813C48.3983 16.9514 48.9847 12.775 49.0792 9.3368C48.7104 12.4837 47.9255 16.3492 45.1166 18.0684C44.0574 14.6593 42.6294 11.4153 41.1068 8.59863C42.3457 12.1146 43.6224 15.8344 44.5587 19.6126C40.1705 19.6709 36.1984 16.8446 33.6071 13.3092C36.0566 17.1942 40.1327 20.409 44.7856 20.5547C45.4098 23.2839 45.8354 26.0327 45.93 28.7716C39.2058 28.7231 32.9641 24.7215 28.9636 19.3019C32.8127 25.042 39.064 29.3738 45.9583 29.7234C45.9678 32.0544 45.7125 34.366 45.1166 36.6388C39.4801 37.8917 33.314 36.3377 28.9731 32.4138C33.2005 36.464 39.2815 38.2024 44.9653 37.202C44.7005 38.1053 44.4074 38.9989 44.0291 39.8924C44.7573 38.7366 45.3247 37.5129 45.7692 36.2502C50.5168 35.5121 54.5077 31.9573 56.5883 27.6158H56.56Z" fill="#D6FF9E"/>
</g>
</g>
<defs>
<filter id="filter0_d_68_9326" x="0.73" y="0.3" width="79.4" height="66.9" filterUnits="userSpaceOnUse" color-interpolation-filters="sRGB">
<feFlood flood-opacity="0" result="BackgroundImageFix"/>
<feColorMatrix in="SourceAlpha" type="matrix" values="0 0 0 0 0 0 0 0 0 0 0 0 0 0 0 0 0 0 127 0" result="hardAlpha"/>
<feMorphology radius="1" operator="dilate" in="SourceAlpha" result="effect1_dropShadow_68_9326"/>
<feOffset dx="0.43"/>
<feGaussianBlur stdDeviation="0.85"/>
<feComposite in2="hardAlpha" operator="out"/>
<feColorMatrix type="matrix" values="0 0 0 0 0.132578 0 0 0 0 0.132578 0 0 0 0 0.253333 0 0 0 0.54 0"/>
<feBlend mode="normal" in2="BackgroundImageFix" result="effect1_dropShadow_68_9326"/>
<feBlend mode="normal" in="SourceGraphic" in2="effect1_dropShadow_68_9326" result="shape"/>
</filter>
<filter id="filter1_d_68_9326" x="0.846748" y="1.5" width="79.0598" height="69" filterUnits="userSpaceOnUse" color-interpolation-filters="sRGB">
<feFlood flood-opacity="0" result="BackgroundImageFix"/>
<feColorMatrix in="SourceAlpha" type="matrix" values="0 0 0 0 0 0 0 0 0 0 0 0 0 0 0 0 0 0 127 0" result="hardAlpha"/>
<feOffset dx="0.43" dy="2"/>
<feGaussianBlur stdDeviation="2"/>
<feComposite in2="hardAlpha" operator="out"/>
<feColorMatrix type="matrix" values="0 0 0 0 0.14902 0 0 0 0 0.14902 0 0 0 0 0.180392 0 0 0 0.29 0"/>
<feBlend mode="normal" in2="BackgroundImageFix" result="effect1_dropShadow_68_9326"/>
<feBlend mode="normal" in="SourceGraphic" in2="effect1_dropShadow_68_9326" result="shape"/>
</filter>
</defs>
</svg>
