<svg width="33" height="100" viewBox="0 0 33 100" fill="none" xmlns="http://www.w3.org/2000/svg">
<mask id="mask0_186_20041" style="mask-type:luminance" maskUnits="userSpaceOnUse" x="0" y="0" width="33" height="100">
<path d="M32.3684 0H0.78949V100H32.3684V0Z" fill="white"/>
</mask>
<g mask="url(#mask0_186_20041)">
<path d="M1.71055 99.6711C1.26319 100.197 0.1316 100.026 -0.43419 99.6316C-0.6184 99.5 -0.736819 99.3553 -0.749976 99.1843C-0.749976 99.1579 -0.749976 99.1448 -0.749976 99.1185C-0.78945 98.4737 -0.131553 94.9211 0.105289 93.1974C0.355289 91.4079 -0.118393 89.6053 -0.118393 89.6053C-0.118393 89.6053 1.31581 89.1843 1.44739 89.8948C1.46055 89.9869 1.44739 90.1185 1.40792 90.2764C1.40792 90.3158 1.3816 90.3553 1.36845 90.3816C1.34213 90.4474 1.32897 90.5132 1.31581 90.5921C1.15792 91.3685 1.40792 94.5527 1.60529 95.7895C1.81581 97.0132 1.98687 99.3421 1.71055 99.6579V99.6711Z" fill="#C9A34E"/>
<g style="mix-blend-mode:multiply">
<path d="M1.44739 89.8948L1.40792 90.2764C1.40792 90.2764 1.3816 90.3553 1.36845 90.3816C1.34213 90.4474 1.32897 90.5132 1.31581 90.5921C1.21055 90.7632 1.03949 91.2369 0.8816 92.4606C0.736863 93.6185 -0.144713 98.1843 -0.749976 99.1185C-0.78945 98.4737 -0.131553 94.9211 0.105289 93.1974C0.355289 91.4079 -0.118393 89.6053 -0.118393 89.6053C-0.118393 89.6053 1.31581 89.1843 1.44739 89.8948Z" fill="#E6D4AE"/>
</g>
<g style="mix-blend-mode:soft-light" opacity="0.85">
<path d="M1.71057 99.6702C1.2632 100.196 0.131616 100.025 -0.434174 99.6307C-0.434174 99.6307 0.960563 99.8149 1.30267 99.3018C1.67109 98.7491 1.61846 95.9728 1.6053 95.8018C1.81583 97.0254 1.98689 99.3544 1.71057 99.6702Z" fill="#FAE7BE"/>
</g>
<path d="M30.5526 61.5526C30.3816 61.9474 30.2106 62.3421 30.0263 62.75C28.6184 66.0395 27.2895 66.421 27.0921 69.1579C27.0921 69.2763 27.079 69.4079 27.0658 69.5395C26.9869 71.921 24.8948 72.6974 23.5132 75.0263C22.8158 76.2105 21.5527 77.4474 20.3158 78.4868C19.1184 79.4868 17.9605 80.2763 17.3816 80.6053C16.2105 81.25 16.5 81.3421 12.9605 84.0658C8.71054 87.3421 2.51318 89.1447 0.960547 90.7895C0.894757 90.8553 0.842119 90.921 0.789488 91C0.736856 90.9342 0.684228 90.8553 0.618439 90.7895C-0.947351 89.1316 -7.14472 87.3289 -11.3816 84.0658C-14.921 81.3421 -14.6316 81.25 -15.8026 80.6053C-16.5789 80.1711 -18.4079 78.8947 -19.9605 77.3947C-20.75 76.6316 -21.4605 75.8158 -21.9342 75.0395C-23.0921 73.0789 -24.75 72.2237 -25.3026 70.5789C-25.4079 70.2632 -25.4737 69.921 -25.4868 69.5395C-25.5921 66.6053 -26.8552 66.2105 -28.2368 63.2237C-28.3026 63.079 -28.3684 62.921 -28.4473 62.7632C-29.5395 60.1974 -30.6052 58.0658 -30.7631 56.1447C-30.7763 55.9474 -30.7895 55.7632 -30.7895 55.5658C-30.7895 55.1184 -30.7237 54.6842 -30.5921 54.2632C-30.0131 52.3816 -30.5921 53.1579 -30.4605 50.6711C-30.3947 49.3684 -29.9737 48.6579 -29.671 48.1447C-29.3947 47.671 -29.1974 47.3553 -29.421 46.8816C-29.6579 46.3684 -29.8026 45.75 -29.8684 45.1579C-29.9605 44.3553 -29.8947 43.6053 -29.671 43.2632C-29.3816 42.8158 -29.4868 41.6447 -29.2895 40.4342C-29.2237 40.0263 -29.1316 39.6053 -28.9737 39.2105C-28.3552 37.6711 -26.3684 37.9605 -27.2368 36.4474C-27.3684 36.2237 -27.4342 35.9605 -27.4605 35.6711C-27.5921 34 -26.1842 31.4605 -25.5789 30.4474C-25.0658 29.5921 -24.171 29.3816 -23.8289 28.3947C-23.6974 28.0132 -23.6447 27.5132 -23.7368 26.8158C-24.1316 23.8026 -21.1316 21.8816 -19.6974 20.9342C-19.6184 20.8816 -19.5526 20.8289 -19.4868 20.7895C-19.1842 20.5921 -19.0131 20.3421 -18.9079 20.0789C-18.5395 19.1316 -19.0131 17.8947 -18.1316 17.2763C-18.1184 17.2763 -18.1052 17.25 -18.0789 17.2368C-17.2368 16.5789 -17.3684 14.6447 -15.921 14.5921C-15.5789 14.5921 -14.3947 14.0263 -13.5658 13.1184C-13.1842 12.7105 -12.8947 12.2237 -12.7763 11.6711C-12.6316 11 -12.3947 10.6579 -12.1184 10.4211C-11.6579 10.0395 -11.0658 9.92105 -10.4737 9.13158C-9.5263 7.85526 -9.19735 8.07895 -8.09209 7.85526C-7.86841 7.81579 -7.72367 7.65789 -7.61841 7.44737C-7.38156 7.03947 -7.24998 6.40789 -6.71051 6.03947C-6.13156 5.64474 -5.71051 5.6579 -5.34209 5.61842C-5.13156 5.59211 -4.92104 5.53947 -4.69735 5.38158C-4.15788 5 -3.47367 3.22368 -1.60525 1.92105C-1.39472 1.77631 -1.15788 1.63158 -0.907882 1.48684C0.0921182 0.94737 0.776337 0 0.776337 0C0.776337 0 0.842123 0.0921029 0.947386 0.223682C1.21054 0.539471 1.75002 1.11842 2.44739 1.48684C4.85528 2.78948 5.64475 4.94737 6.25002 5.38158C6.39475 5.48684 6.52633 5.53947 6.67107 5.56579C7.10528 5.67105 7.5658 5.56579 8.26317 6.02631C9.07896 6.56579 8.9737 7.69737 9.64476 7.8421C10.7632 8.06579 11.079 7.84211 12.0263 9.11842C12.9737 10.3947 13.9474 9.9079 14.329 11.6579C14.4869 12.3684 14.9474 12.9737 15.4737 13.4474C16.25 14.1579 17.1842 14.5658 17.4737 14.5789C18.9342 14.6316 18.7763 16.6316 19.6711 17.2632C20.6579 17.9474 19.9474 19.4474 20.6316 20.4079C20.7369 20.5395 20.8553 20.6711 21.0263 20.7895C22.3553 21.6842 25.6974 23.6579 25.2895 26.8158C25.0132 28.9605 26.0658 29.2237 26.8158 30.0132C26.9342 30.1316 27.0395 30.2763 27.1448 30.4342C27.8553 31.6316 29.6711 34.9211 28.8026 36.4474C27.9342 37.9605 29.9211 37.6711 30.5395 39.2105C30.9606 40.2632 30.9605 41.4868 31.0395 42.3553C31.079 42.75 31.1316 43.0789 31.25 43.2632C31.6316 43.8553 31.5526 45.6579 31 46.8816C30.5921 47.75 31.579 48.0921 31.9342 49.8026C31.9869 50.0658 32.0263 50.3553 32.0395 50.6711C32.1711 53.1579 31.6053 52.3947 32.1711 54.2632C32.2632 54.5526 32.3158 54.8421 32.3421 55.1316C32.5395 57.0132 31.6316 59.0789 30.5526 61.5526Z" fill="#FF8717"/>
<g style="mix-blend-mode:multiply">
<path d="M-0.868393 14.8161C-2.19734 14.1056 -4.28944 8.55294 -5.32892 5.60557C-5.11839 5.57925 -4.90787 5.52662 -4.68418 5.36873C-4.14471 4.98715 -3.4605 3.21083 -1.59208 1.9082C-0.828923 5.39505 0.697389 12.5793 0.789495 14.1714C0.907916 16.2766 0.947396 15.7898 -0.868393 14.8161Z" fill="#F0D497"/>
</g>
<g style="mix-blend-mode:multiply">
<path d="M6.68423 5.5662C6.15791 6.25041 5.61844 7.13199 5.23686 8.17146C4.21054 10.9609 2.14475 12.3951 2.0658 9.22409C2.00001 6.69778 1.26317 2.01357 0.973694 0.210938C1.23685 0.526727 1.77633 1.10567 2.4737 1.47409C4.8816 2.77673 5.67107 4.93462 6.27633 5.36883C6.42107 5.47409 6.55265 5.52673 6.69739 5.55304L6.68423 5.5662Z" fill="#F0D497"/>
</g>
<g style="mix-blend-mode:multiply">
<path d="M31.9211 49.7896C30.5395 48.6448 24.1842 49.3027 25.0395 48.7764C25.8948 48.2501 28.4737 45.5001 28.4737 45.5001C28.1184 42.0133 20.1974 43.4606 19.5 41.7896C18.7895 40.1054 20.3685 38.1975 20.6974 34.7896C21.0263 31.3817 25.3158 26.8027 25.3158 26.8027C24.9869 29.2896 26.4474 29.2369 27.1579 30.4212C27.8684 31.6185 29.6842 34.908 28.8158 36.4343C27.9474 37.9475 29.9342 37.658 30.5527 39.1975C31.1711 40.7369 30.8816 42.658 31.2632 43.2501C31.6448 43.8422 31.5658 45.6448 31.0132 46.8685C30.6053 47.7369 31.5921 48.079 31.9474 49.7896H31.9211Z" fill="#F0D497"/>
</g>
<g style="mix-blend-mode:multiply">
<path d="M3.52634 78.8557C3.52634 78.8557 2.47371 73.9741 6.77634 71.382C11.079 68.7899 14.5921 63.6715 15.6448 64.6452C16.6974 65.6189 19.4737 62.4478 19.8816 64.5268C20.2895 66.6057 17.1053 67.6057 15.9342 68.4347C14.7632 69.2636 3.52634 78.8557 3.52634 78.8557Z" fill="#F0D497"/>
</g>
<g style="mix-blend-mode:multiply">
<path d="M30.5526 61.5527C30.3816 61.9475 30.2105 62.3422 30.0263 62.7501C28.5658 66.1843 27.1711 66.4606 27.0658 69.5396C26.9869 71.9212 24.8947 72.6975 23.5132 75.0264C22.8158 76.2106 21.5526 77.4475 20.3158 78.4869C22.0658 73.5791 24.6842 73.487 25 72.1975C25.3158 70.908 24.1842 69.5264 25.6447 65.3027C26.7895 61.9869 29.4474 61.5791 30.5395 61.5527H30.5526Z" fill="#F0D497"/>
</g>
<g style="mix-blend-mode:soft-light" opacity="0.66">
<path d="M0.84213 22.8546C0.84213 22.8546 3.14477 19.3677 5.93424 18.1967C8.72371 17.0256 8.00002 13.1967 10.6053 14.8283C13.2105 16.4598 14.5921 22.9467 16.4606 24.5651C18.329 26.1835 11.1711 32.0256 10.1184 36.4072C9.06582 40.7888 1.17108 45.4993 2.6316 49.1441C4.09213 52.7888 15.7369 47.3546 18.25 50.9335C20.7763 54.4993 23.2106 54.9072 23.2895 56.2098C23.3685 57.5125 20.3684 61.2888 9.2895 61.1572C2.44739 61.0783 1.18424 68.5519 1.18424 68.5519L0.828979 22.8546H0.84213Z" fill="#FAE7BE"/>
</g>
<path d="M3.27634 79.1051C2.60529 79.7366 1.93425 80.3814 1.25004 81.013C1.25004 83.7893 1.22372 86.5261 1.09214 88.9735C2.57898 86.9472 4.17108 84.9866 6.10529 83.3814C10.4869 79.7761 15.3158 76.7893 20.329 74.1577C21.0264 73.7761 21.7106 73.3814 22.3816 72.9472C24.1053 71.8682 25.7237 70.6445 27.0921 69.1445C25.6974 70.7366 24.0395 72.013 22.2895 73.1445C19.3158 75.0787 16.0527 76.6314 13.1842 78.684C10.2895 80.6709 7.40793 82.7103 4.93424 85.1972C3.76319 86.4735 2.65793 87.9077 1.65793 89.3288C1.46056 89.6051 1.27635 89.8814 1.09214 90.1445L0.986874 90.3024C0.986874 90.4603 0.960559 90.6051 0.947401 90.763C0.881612 90.8287 0.828984 90.8945 0.776352 90.9735C0.723721 90.9077 0.671083 90.8287 0.605293 90.763C0.605293 90.6972 0.605301 90.6182 0.592143 90.5524L0.434244 90.0656C0.0263496 88.8682 -1.03944 87.8945 -1.97365 87.0393C-4.01313 85.2366 -6.30259 83.7235 -8.43417 82.013C-9.53944 81.1972 -10.3815 80.0919 -11.421 79.1972C-15.7237 75.8551 -20.5789 73.2235 -25.3158 70.5393C-20.4868 73.1314 -15.6052 75.6445 -11.1973 78.9209C-10.1316 79.7761 -9.28944 80.8682 -8.15786 81.6577C-6.61839 82.8551 -4.98681 83.934 -3.40786 85.1051C-2.21049 85.9866 -1.06576 86.934 -0.0394406 88.013C0.14477 88.2103 0.302664 88.4209 0.473716 88.6445C0.394769 86.9998 0.355297 85.2366 0.342139 83.4077C-0.210492 83.2235 -0.657859 82.7366 -1.01312 82.2893C-1.24996 81.9735 -1.49997 81.6709 -1.74997 81.3682C-3.28944 79.4998 -4.97365 77.7498 -6.67102 76.0261C-10.3684 72.3551 -14.1842 68.7761 -18.4079 65.6972C-22.7631 62.8156 -27.0789 59.8156 -30.7631 56.1051C-27.0394 59.7761 -22.6973 62.7235 -18.3026 65.5524C-14.0394 68.5919 -10.171 72.1314 -6.40786 75.763C-4.6447 77.513 -2.8947 79.2893 -1.28944 81.184C-1.06575 81.4603 -0.842075 81.7235 -0.618391 81.9998C-0.342075 82.3287 -0.0262787 82.6972 0.3553 82.8814C0.342142 80.5261 0.355296 78.1182 0.381612 75.7761C-1.5526 73.763 -4.96049 70.184 -6.74996 68.2893C-6.77628 68.263 -6.8026 68.2366 -6.82892 68.2103C-9.0526 65.8814 -12.0394 62.5393 -14.3158 60.3156C-19.1184 55.4998 -24.4605 51.2103 -29.0921 46.2235C-29.3815 45.8814 -29.6842 45.5261 -29.8421 45.1051C-29.671 45.5261 -29.3552 45.8551 -29.0658 46.1972C-24.2631 51.0261 -18.8947 55.2498 -14.0263 60.013C-11.7236 62.184 -8.7105 65.5787 -6.48681 67.8945C-6.43418 67.9472 -6.38155 67.9998 -6.34207 68.0524C-4.61839 69.8945 -1.51313 73.2366 0.381612 75.2893C0.407927 72.8682 0.421085 70.5393 0.381612 68.4998C0.381612 67.8156 0.381612 67.1182 0.381612 66.434C-0.881546 65.434 -1.89471 64.1445 -2.97366 62.9472C-3.31576 62.5656 -3.6447 62.1708 -3.97365 61.7761C-5.28944 60.1972 -6.5526 58.5788 -7.94734 57.0656C-13.6973 50.8814 -21.4736 42.6051 -27.2368 36.3814C-20.6184 43.0919 -14.0131 49.8419 -7.57892 56.7366C-6.36839 58.0524 -5.24997 59.4603 -4.13155 60.8551C-3.63155 61.4603 -3.14471 62.0787 -2.63155 62.6708C-1.64471 63.7893 -0.749967 65.013 0.381612 65.9866C0.381612 62.9472 0.394765 59.8419 0.407923 56.7103C-1.22366 54.9866 -2.81575 53.2235 -4.3947 51.4472C-7.24996 48.184 -10.0131 44.8156 -12.7237 41.4472C-15.7105 37.5656 -18.9868 33.8287 -21.4868 29.5919C-21.6579 29.434 -22.5789 26.1314 -22.9868 24.7103C-22.5526 26.1314 -22.1315 27.5656 -21.6842 28.9866C-21.5394 29.3814 -21.3289 29.763 -21.1052 30.1182C-18.5394 34.0524 -15.421 37.5919 -12.3947 41.184C-11.3289 42.4209 -9.60523 44.4077 -7.81576 46.4603C-5.72366 48.8814 -3.5526 51.3945 -2.35523 52.8287C-1.56576 53.7761 -0.460495 55.0919 0.421084 56.1709C0.421084 52.6709 0.447398 49.1314 0.460556 45.5656C-0.552602 44.2893 -1.56575 43.013 -2.56575 41.7103C-8.10523 34.6051 -13.6184 27.1709 -18.8815 19.9998C-13.5526 26.7893 -8.1447 33.9603 -2.76312 40.8945C-1.68418 42.2893 -0.605231 43.6709 0.473716 45.0393C0.473716 41.2366 0.500033 37.4077 0.526349 33.5787C-1.02628 32.3024 -2.40786 30.8419 -3.65786 29.2761C-4.99997 27.6051 -6.2105 25.8287 -7.38155 24.0524C-9.65786 20.513 -11.7105 16.8287 -13.5394 13.0393C-11.6184 16.7761 -9.51312 20.4209 -7.17102 23.9209C-5.90786 25.7893 -4.57891 27.6182 -3.13154 29.3419C-1.99996 30.684 -0.78944 31.9735 0.526349 33.1445C0.552665 28.8682 0.578978 24.5919 0.605293 20.3551C0.605293 19.7761 0.605293 19.184 0.605293 18.6051C-3.47365 16.763 -6.06576 11.3551 -7.60523 7.38138C-6.03944 11.2235 -3.36839 16.4866 0.605293 18.263C0.657925 12.434 0.710556 6.69716 0.789503 1.14453C0.86845 7.22348 0.934242 13.5393 0.986874 19.9472C1.00003 22.0524 1.01319 24.1577 1.02635 26.2761C2.80266 23.4998 4.36845 20.5787 5.67108 17.5524C6.97371 14.5656 8.2632 11.5261 9.14477 8.38137C9.18425 8.23664 9.22372 8.07874 9.26319 7.93401C9.23687 8.02611 9.18425 8.21032 9.14477 8.39453C9.09214 8.5919 9.0395 8.80243 9.01319 8.90769C7.35529 15.2761 4.96056 21.5524 1.03951 26.8945C1.06582 31.1314 1.09214 35.3814 1.1053 39.6314C1.34214 39.3156 1.56582 38.9998 1.78951 38.684C2.40793 37.7761 3.26319 36.4077 3.84213 35.4472C7.73687 28.8156 11.4474 21.3551 14.9737 14.4208C15.1448 14.0787 15.3158 13.7366 15.5 13.3945C15.3553 13.7498 15.1974 14.0919 15.0395 14.434C13.1448 18.7761 11.079 23.0524 8.90793 27.2761C6.55267 31.7103 4.25004 36.2103 1.1053 40.1709C1.11846 44.1577 1.13161 48.1182 1.14477 52.0393C2.21056 51.2103 2.96056 49.9472 3.72372 48.8419C4.57898 47.5261 5.38161 46.1577 6.21056 44.8024C7.8553 42.0919 9.53951 39.3945 11.4737 36.8682C15.0263 32.0919 17.7763 26.763 20.1974 21.3287C20.3421 20.9998 20.5 20.6577 20.6448 20.3287C20.5132 20.6577 20.3816 20.9866 20.25 21.3287C18.6185 25.4077 16.7106 29.3945 14.4737 33.1708C13.6579 34.5393 12.7763 35.8551 11.829 37.1445C9.96055 39.684 8.28951 42.3682 6.63161 45.0656C5.81582 46.4209 4.97372 47.763 4.09214 49.0919C3.22372 50.3024 2.42108 51.6182 1.13161 52.4472C1.13161 56.184 1.15793 59.8682 1.15793 63.4866C3.65793 60.6577 6.22372 57.8551 8.42109 54.7893C8.53951 54.6314 8.67109 54.4077 8.76319 54.2366C9.31583 53.2366 10.0263 52.3156 10.7106 51.434C12.5395 49.1182 14.4342 46.8682 16.3553 44.6445C17.9606 42.7893 19.579 40.934 21.1842 39.0787C21.7763 38.4077 22.3421 37.7235 22.829 36.9735C24.2895 34.7103 25.5527 32.3287 26.7895 29.934C25.6579 32.3814 24.4737 34.8287 23.0658 37.1182C21.1579 39.8419 18.9211 42.3419 16.75 44.8814C15.9869 45.7761 15.2369 46.6708 14.5132 47.5787C12.5527 50.0261 10.4342 52.3682 8.8553 55.0919C6.55267 58.2761 3.82898 61.1314 1.13161 63.9735C1.13161 65.4866 1.13161 66.9866 1.13161 68.4735C1.11845 69.8156 1.11845 71.2761 1.13161 72.8024C2.43424 71.513 3.78951 70.263 5.13161 68.9998C6.75003 67.4866 8.36846 65.9603 9.88161 64.3419C10.3158 63.8551 10.7369 63.3551 11.1711 62.8682C14.9079 58.6182 18.7632 54.4603 22.8027 50.4735C22.9869 50.2893 23.1711 50.1051 23.3553 49.934C23.9869 49.3287 24.6974 48.6709 25.3948 48.1182C27.5658 46.4866 29.4342 44.4735 30.9869 42.2498C29.4869 44.513 27.6448 46.5656 25.5 48.2498C24.8158 48.8156 24.1316 49.4735 23.5132 50.0919C23.3685 50.2498 23.2106 50.3945 23.0658 50.5524C19.2106 54.4735 15.5132 58.5524 11.9079 62.7103C11.3421 63.3551 10.7895 63.9998 10.2369 64.6445C8.46056 66.5524 6.59214 68.3814 4.67109 70.1445C3.51319 71.2103 2.32898 72.2498 1.13161 73.2893C1.14477 75.5393 1.17109 77.9077 1.18424 80.2761C1.80266 79.684 2.42108 79.1051 3.05266 78.513C6.43424 75.3156 9.86845 72.1709 13.5658 69.3551C20.1579 65.1182 27.7763 61.763 32.2763 55.0524C31.3948 56.5261 30.2895 57.8551 29.079 59.0787C24.8421 63.3945 19.3685 66.1314 14.3158 69.3024C13.6316 69.7761 12.9211 70.3287 12.2895 70.8551C9.15793 73.4603 6.17109 76.2235 3.21056 79.0261L3.27634 79.1051Z" fill="#FACD6C"/>
<g style="mix-blend-mode:soft-light" opacity="0.62">
<path d="M25.6184 50.8553C18.1711 50.7764 26.4737 48.3422 20.7763 46.5527C15.079 44.7632 13.2895 43.3816 14.9605 36.8948C16.6316 30.4079 25.1579 28.5527 22.9737 23.5001C20.8026 18.4606 20.0395 24.6448 17.7632 18.1843C15.4868 11.7237 14.9211 17.1711 12.8816 11.4079C10.8421 5.64479 9.92106 12.4869 8.27632 6.02637C8.27632 6.02637 5.51317 16.4474 3.82896 16.9343C2.14475 17.4211 0.789476 20.4211 0.789476 20.4211C0.789476 20.4211 -3.39473 20.0922 -2.0921 25.9869C-0.789464 31.8816 -3.55262 28.0922 -7.82894 29.5132C-12.1053 30.9343 -3.80263 35.4737 -2.57894 41.7764C-1.35526 48.0658 -4.17104 41.9737 -8.15789 42.7106C-12.1447 43.4474 -0.671048 54.4737 -2.30263 56.2237C-3.93421 57.9737 -5.55262 53.6316 -4.24999 60.2764C-2.94736 66.9343 -3.99999 66.7237 -7.78947 68.9211C-11.5789 71.1185 -2.21052 76.2632 -1.44736 79.6711C-0.684204 83.079 -2.42105 79.9606 -4.0921 82.4343C-5.01315 83.7895 -3.17105 85.8158 -1.42105 87.329C0.328949 88.8422 0.789476 91.0132 0.789476 91.0132C0.789476 91.0132 6.07896 84.9869 11.0132 83.5658C14.9869 82.4211 22.4079 74.8027 22.6447 72.0395C22.8947 69.2764 19.8026 66.7632 16.8684 69.4474C13.9342 72.1316 6.93422 82.2369 4.42106 80.5658C1.89474 78.8948 2.78948 74.2369 6.05264 67.1711C9.31579 60.1053 18.3684 63.8422 22.6711 61.1711C26.9737 58.4869 33.0789 50.9474 25.6316 50.8685L25.6184 50.8553Z" fill="#FAE7BE"/>
</g>
</g>
</svg>
