<svg width="53" height="80" viewBox="0 0 53 80" fill="none" xmlns="http://www.w3.org/2000/svg">
<path d="M47.5967 38.8526C47.1126 38.4422 43.9028 34.4747 42.6295 35.3061C42.2506 35.5587 41.9033 36.6847 43.7345 39.1157C54.0792 52.8701 44.2501 56.3851 41.7981 55.1012C39.3566 53.8068 38.641 50.6496 37.7991 50.6496C36.9572 50.6496 35.6733 53.1648 38.3148 57.932C40.9562 62.7098 38.2516 70.9604 34.3263 70.3184C30.3904 69.6765 31.1692 63.9305 28.7066 63.8779C26.2652 63.8043 27.749 68.0558 25.6758 73.8649C24.1815 78.0638 17.5621 79.4003 14.0472 79.8108C12.7107 79.9686 11.8267 79.9897 11.8267 79.9897C11.8267 79.9897 18.8039 50.4076 19.8773 46.6296C25.0023 28.571 29.1697 19.5627 34.2105 13.6694C35.3155 12.3645 36.4626 11.2279 37.6728 10.165C37.6728 10.165 50.175 13.1117 52.1113 32.3279C53.0269 41.4204 48.5017 39.6208 47.6072 38.8421L47.5967 38.8526Z" fill="#A86B03"/>
<path d="M37.6623 10.1755C36.4521 11.2384 35.2945 12.3749 34.2 13.6799C29.1591 19.5731 24.9918 28.5814 19.8667 46.64C18.7933 50.418 11.8161 80.0001 11.8161 80.0001C11.8161 80.0001 9.42725 78.1164 6.84894 71.6127C3.26037 62.5939 12.4581 60.3313 10.3218 57.4163C8.19598 54.5223 2.26062 64.9618 0.261119 57.4163C-2.06462 48.6501 11.9424 44.3985 10.7743 41.8833C9.67981 39.505 2.3869 45.3667 1.74496 38.6631C0.997776 30.8335 16.5728 29.3812 15.994 26.6766C15.3731 23.8142 8.65902 25.5611 8.9642 21.8989C9.29044 18.0261 13.2789 14.7322 18.1303 12.5328C20.4876 11.4699 23.0344 10.6596 25.4759 10.1755C32.0216 8.86001 37.6728 10.1755 37.6728 10.1755H37.6623Z" fill="#C08C41"/>
<path d="M32.2953 17.142C38.7463 19.2784 44.2818 24.2771 47.2073 30.4229C48.3123 32.4856 48.9648 34.8429 49.6173 37.0844C49.2595 34.7271 48.7859 32.3488 47.8598 30.1283C45.3026 23.5615 39.8092 18.2891 33.1582 15.9108C34.6105 13.9218 36.2417 12.0591 38.1044 10.4069C38.1044 10.4069 41.4614 4.30316 43.9345 1.54595C44.408 1.00925 43.3767 0.735629 42.8716 0.472537C42.3665 0.209445 42.1665 -0.169407 41.5035 0.083161C41.072 0.25154 40.609 2.32471 39.7566 4.45049C38.6832 7.11298 37.2204 9.91228 37.2204 9.91228C35.7576 11.0383 33.5792 13.4061 31.9691 15.5845C24.5604 15.5004 16.9728 17.3104 10.7638 21.4147C16.8676 18.4996 24.6761 17.0158 30.9798 17.0052C27.8438 21.9198 25.5286 27.2553 23.5922 32.7381C16.815 32.2014 10.0272 34.6745 4.35491 38.1789C10.0482 35.6637 16.8465 33.1591 23.2133 33.8431C21.6664 38.3683 20.372 42.9987 19.0881 47.5765C12.2266 48.3974 4.40753 51.323 1.77661 58.2476C4.61801 51.6808 12.1635 49.134 18.8355 48.5868C17.5621 53.9013 16.2888 59.4157 15.0575 64.9406C11.9635 66.2245 8.98533 68.8765 8.838 72.4124C9.13266 69.0343 11.953 66.6244 14.9417 65.4457C13.8473 70.3498 12.7949 75.2433 11.8057 79.9684C13.058 75.2643 14.3103 70.3814 15.5521 65.4773C16.2888 65.9825 17.0044 66.5613 17.6358 67.2032C19.8879 69.3921 21.3401 72.5071 20.8666 75.6853C21.6558 71.4442 19.0249 67.4347 15.6679 65.0248C17.0675 59.5104 18.4672 53.9749 19.8458 48.65C23.066 49.7655 27.7701 52.3859 30.3379 55.4903C33.3687 58.7843 34.9367 63.1726 35.1683 67.6136C35.1156 63.6988 34.0317 59.7419 31.7586 56.5111C28.8961 52.5121 24.7393 49.4077 20.0878 47.766C21.3928 43.1566 22.7924 38.5367 24.392 34.0115C25.5707 34.2115 26.7283 34.5272 27.8648 34.9797C31.6112 36.5056 34.8631 39.0945 37.6098 42.1042C40.3143 45.1666 42.4296 48.7447 44.1555 52.4911C42.7769 48.5973 40.8405 44.8509 38.1886 41.6096C34.7999 37.5264 30.1064 33.9905 24.7919 32.9276C25.6654 30.5176 26.5915 28.1393 27.6122 25.803C28.9277 22.7722 30.4642 19.8361 32.3058 17.121L32.2953 17.142Z" fill="#61340F"/>
<g style="mix-blend-mode:multiply" opacity="0.47">
<path d="M47.5967 38.8521C47.1127 38.4416 43.9029 34.4742 42.6296 35.3056C42.2507 35.5582 41.9034 36.6842 43.7346 39.1152C54.0793 52.8696 44.2502 56.3845 41.7982 55.1006C39.3567 53.8062 38.6411 50.6491 37.7992 50.6491C36.9573 50.6491 35.6734 53.1643 38.3149 57.9315C40.9563 62.7093 38.2517 70.9598 34.3264 70.3179C30.3905 69.6759 31.1693 63.93 28.7067 63.8774C26.2652 63.8037 27.7491 68.0553 25.6759 73.8644C24.1815 78.0633 17.5622 79.3998 14.0472 79.8102C25.7075 73.0856 24.2447 61.2675 27.1913 60.0994C30.4642 58.8155 32.3584 59.3312 33.5581 52.6276C34.7578 45.924 36.9994 49.702 39.5777 46.0082C42.156 42.3144 39.3146 41.2725 38.4517 37.5682C37.5887 33.8849 40.8616 31.8117 44.9027 30.6962C51.7115 28.8125 42.4612 12.6165 34.0633 13.5847C32.2322 12.5218 32.3269 9.58571 18.1304 12.5113C20.4877 11.4484 23.0345 10.6381 25.476 10.154C32.0217 8.83852 37.6729 10.154 37.6729 10.154C37.6729 10.154 50.175 13.1006 52.1114 32.3169C53.027 41.4093 48.5018 39.6098 47.6073 38.831L47.5967 38.8521Z" fill="#E3E3E3"/>
</g>
<g style="mix-blend-mode:soft-light" opacity="0.43">
<path d="M12.1423 18.0685C23.0238 9.58637 33.2423 14.5851 33.2423 14.5851C33.2423 14.5851 36.8414 15.2165 39.9775 18.4999C46.418 25.2035 35.1682 27.9923 32.0216 32.3386C31.3375 33.2857 32.5478 40.3471 30.1589 42.9991C28.0436 45.3564 23.3711 48.3451 19.5615 47.7979C14.3523 47.0507 15.0679 42.4939 14.4681 40.2524C13.9524 38.316 11.9003 38.5581 10.8585 39.0106C5.102 41.5047 3.14459 39.6946 2.81836 38.3686C1.76599 34.1592 17.099 30.2654 18.1198 26.4137C18.7512 24.0564 12.8895 23.9512 11.3215 23.2777C8.82738 22.2043 10.2586 19.5418 12.1423 18.079V18.0685Z" fill="#EDC8A8"/>
</g>
<g style="mix-blend-mode:soft-light" opacity="0.43">
<path d="M2.27108 51.4494C10.6058 42.8516 13.5209 51.9861 10.2901 53.0174C5.37557 54.5855 3.69178 59.6684 2.27108 58.9949C0.019014 57.9215 0.713577 53.0595 2.27108 51.4494Z" fill="#EDC8A8"/>
</g>
</svg>
