<svg width="69" height="80" viewBox="0 0 69 80" fill="none" xmlns="http://www.w3.org/2000/svg">
<path d="M26.7211 35.2556C26.7211 35.2556 26.7023 35.2556 26.674 35.2744C26.4294 35.3496 25.3191 35.679 23.9547 35.679C22.9102 35.679 21.7058 35.4908 20.6049 34.8604L20.4167 35.1991C21.5929 35.8672 22.8632 36.0648 23.9547 36.0648C25.5919 36.0648 26.8434 35.6225 26.8528 35.6225L26.7211 35.2556Z" fill="#CCB212"/>
<path d="M31.2095 45.0693C31.1342 45.1164 29.384 46.1138 25.3944 46.1138C25.2721 46.1138 25.1404 46.1138 25.0086 46.1138V46.4996C25.1404 46.4996 25.2627 46.4996 25.3944 46.4996C29.5816 46.4996 31.3883 45.4081 31.4165 45.3987L31.2189 45.0693H31.2095Z" fill="#CCB212"/>
<path d="M37.1186 55.457H37.0998C36.9022 55.5888 35.0673 56.652 31.0965 57.8282L31.2094 58.1952C35.4814 56.9343 37.3162 55.7958 37.335 55.7864L37.128 55.457H37.1186Z" fill="#CCB212"/>
<path d="M46.5939 66.8896C46.5939 66.8896 46.5469 66.9179 46.4622 66.9743C45.8412 67.3601 43.0936 69.0068 39.0757 70.2206L39.1886 70.5876C43.8275 69.1856 46.8009 67.219 46.8103 67.2096L46.5939 66.8896Z" fill="#CCB212"/>
<path d="M26.7776 35.6222C26.7776 35.6222 27.5868 35.1517 28.4713 34.2673C29.3464 33.3922 30.3156 32.0937 30.6261 30.4376L30.2497 30.3623C29.958 31.9149 29.0453 33.1381 28.1984 33.985C27.775 34.4084 27.3704 34.7283 27.0693 34.9447C26.9187 35.0576 26.7964 35.1329 26.7117 35.1894C26.6741 35.2176 26.6364 35.2364 26.6176 35.2552L26.5894 35.2741L26.787 35.6128L26.7776 35.6222Z" fill="#CCB212"/>
<path d="M31.3977 45.408C31.3977 45.408 33.2984 44.4576 36.0742 40.9761L35.7731 40.7314C34.3993 42.4534 33.2608 43.5449 32.4609 44.1941C32.0657 44.5235 31.7458 44.7399 31.5388 44.8716C31.4353 44.9375 31.3506 44.9845 31.3036 45.0128L31.2471 45.041H31.2283L31.3977 45.3986V45.408Z" fill="#CCB212"/>
<path d="M37.288 55.7306C37.288 55.7306 39.1323 55.0155 42.2656 51.8539L41.9928 51.5811C40.4402 53.1524 39.2264 54.0934 38.3983 54.658C37.9843 54.9402 37.6738 55.119 37.4574 55.2225C37.3539 55.279 37.2692 55.3166 37.2221 55.3354L37.1657 55.3637H37.1563L37.2974 55.7212L37.288 55.7306Z" fill="#CCB212"/>
<path d="M46.8669 67.1624L46.7634 67.0965L46.8669 67.1718L46.8951 67.1436C47.0269 66.9836 47.7514 66.1838 50.866 63.5397L50.6119 63.248C48.777 64.81 47.7702 65.7322 47.2151 66.2591C46.6599 66.7954 46.5658 66.9366 46.547 66.9554L46.8763 67.1624H46.8669Z" fill="#CCB212"/>
<path d="M61.7433 76.2241C61.7433 76.2241 61.7245 76.2712 61.7245 76.2994C61.621 76.5911 61.5269 76.8263 61.2446 76.7228C58.5535 75.7819 55.9847 74.521 53.5759 73.0249C41.607 65.3091 33.9759 52.578 28.3301 39.8188C26.3353 35.2081 24.5758 30.4939 23.1643 25.6763C22.995 25.1023 22.835 24.5283 22.675 23.9449C22.6468 23.8414 22.7127 23.7379 22.8068 23.7097C22.9103 23.6815 23.0232 23.7473 23.0514 23.8508C28.2455 41.2678 38.2854 62.251 54.1122 72.1686C56.474 73.6083 58.9863 74.7939 61.6022 75.6878C61.8656 75.7725 61.8468 75.9701 61.7621 76.2241H61.7433Z" fill="#B09A10"/>
<path d="M61.7433 76.2241C59.0804 75.3585 56.5398 74.1917 54.131 72.7897C41.9645 65.4032 34.7851 52.5875 28.7912 39.9975C26.6552 35.3963 24.7169 30.5316 23.1549 25.6763C22.9855 25.1023 22.8256 24.5283 22.6656 23.9449C22.6374 23.8414 22.7032 23.7379 22.7973 23.7097C22.9008 23.6815 23.0138 23.7473 23.042 23.8508C28.236 41.2678 38.276 62.251 54.1028 72.1686C56.4646 73.6083 58.9769 74.7939 61.5927 75.6878C61.8562 75.7725 61.8374 75.9701 61.7527 76.2241H61.7433Z" fill="#E0C414"/>
<path d="M68.4992 50.6492C68.5368 51.4396 68.4145 52.3241 68.1322 53.2463C67.5206 55.2505 66.1939 57.4523 64.2649 59.4659C63.9356 59.8141 63.5874 60.1434 63.2299 60.4822C62.3265 61.3102 61.395 62.0253 60.4446 62.6275C56.4644 65.1681 52.3807 65.695 50.4988 63.6343L57.5747 57.1794L67.5206 48.0898C68.1322 48.7673 68.4521 49.6424 68.5086 50.6586L68.4992 50.6492Z" fill="#F9ED32"/>
<path d="M67.5111 48.0803L57.5653 57.1698L50.4893 63.6248C48.6074 61.5547 49.5013 57.5368 52.3901 53.8012C53.0769 52.9167 53.8768 52.0511 54.7801 51.223C57.6217 48.626 60.821 47.0923 63.4274 46.8476C64.0014 46.7912 64.5471 46.8006 65.0458 46.8664C66.0527 47.0076 66.8995 47.4028 67.5111 48.0803Z" fill="#FFDE17"/>
<path d="M52.2772 62.0998C53.3405 61.1871 54.4037 60.2744 55.4576 59.3429C56.408 59.851 57.4054 60.2838 58.4875 60.5002C60.3788 60.7919 62.4395 60.3873 64.2367 59.4746C62.7876 60.1803 61.1974 60.519 59.6637 60.4908C58.2052 60.472 56.8973 59.8227 55.7117 59.1264C56.6526 58.2984 57.5842 57.461 58.5157 56.6235C61.3762 57.6868 63.5968 57.922 66.6832 56.3506C63.5592 57.8185 61.5267 57.5739 58.7698 56.3977C59.8424 55.4191 60.9057 54.4405 61.969 53.4431C64.0861 54.2711 65.8645 54.5534 68.1416 53.2361C65.8833 54.4499 64.1614 54.1394 62.1384 53.2925C63.0134 52.4645 63.8885 51.6365 64.7542 50.799C65.9398 51.2225 67.2854 51.3166 68.518 50.6391C67.3042 51.2225 66.0339 51.0907 64.9142 50.6391C65.7892 49.7828 66.6737 48.9359 67.53 48.0703C66.589 48.8513 65.6575 49.6417 64.7354 50.4415C64.3872 49.2841 64.3684 48.0138 65.0647 46.8564C64.2837 48.0232 64.2555 49.3688 64.566 50.592C63.6533 51.373 62.75 52.1634 61.8467 52.9632C61.1786 50.8649 61.028 49.1241 62.4489 46.9882C60.9339 49.1335 61.0563 50.9308 61.6773 53.1138C60.5952 54.0735 59.5131 55.0427 58.4498 56.0307C57.5559 53.1985 57.4901 51.1001 59.212 48.155C57.3489 51.119 57.3677 53.2925 58.1958 56.266C57.2736 57.1128 56.3609 57.9691 55.4482 58.8253C54.8742 57.5739 54.3755 56.2189 54.479 54.7604C54.5825 53.2361 55.0436 51.6741 55.8716 50.3003C54.9965 51.6647 54.4696 53.2173 54.3096 54.7698C54.1497 56.2942 54.639 57.7244 55.2035 59.0512C54.1873 60.0203 53.1711 60.9895 52.1737 61.9681C51.0163 60.2556 51.0634 57.9973 51.675 55.9178C51.8726 55.2027 52.1078 54.4876 52.4089 53.8007C51.1292 56.52 50.32 59.7851 51.8632 62.2786C51.4115 62.7209 50.9505 63.1725 50.4988 63.6148C50.9881 63.2102 51.468 62.7961 51.9573 62.3821C54.3379 64.057 57.6312 63.6054 60.4541 62.608C57.7065 63.5019 54.432 63.9535 52.2866 62.0998H52.2772Z" fill="#CCB212"/>
<path opacity="0.31" d="M68.4991 50.6487C68.5367 51.4391 68.4144 52.3236 68.1321 53.2457C67.5205 55.25 66.1937 57.4518 64.2648 59.4654C64.246 59.4842 64.2272 59.4936 64.2083 59.5031C62.6558 60.4722 61.122 60.8862 59.8988 60.5945C59.7671 60.5663 59.6447 60.5287 59.5224 60.4816C59.2872 60.397 59.0613 60.2746 58.8637 60.1241C58.0922 59.5501 57.6781 58.6186 57.5935 57.4612C57.5935 57.3671 57.584 57.2636 57.584 57.1601C57.584 57.0472 57.584 56.9437 57.584 56.8308C57.6029 56.2285 57.697 55.5699 57.8663 54.8924C57.9134 54.723 57.951 54.5536 58.0169 54.3843C58.4497 52.9729 59.2025 51.4767 60.2658 50.0465C60.708 49.4443 61.1785 48.8891 61.6678 48.3904C61.696 48.3622 61.7242 48.334 61.7525 48.3057C62.2982 47.7412 62.8722 47.2519 63.4462 46.8379C64.0201 46.7814 64.5659 46.7908 65.0646 46.8567C66.0714 46.9978 66.9183 47.393 67.5299 48.0705C68.1415 48.748 68.4614 49.6231 68.5179 50.6393L68.4991 50.6487Z" fill="#FFF9D4"/>
<path d="M54.5168 48.7109C49.8591 53.058 44.1758 54.5259 41.8234 52.0042L58.6758 36.2715C61.0376 38.8026 59.1745 44.3731 54.5262 48.7109H54.5168Z" fill="#F9ED32"/>
<path d="M58.6664 36.2612L41.814 51.9939C39.4522 49.4628 41.3153 43.8924 45.9636 39.5546C50.6119 35.2168 56.3047 33.7395 58.657 36.2612H58.6664Z" fill="#FFDE17"/>
<path d="M43.583 50.4604C44.6368 49.5382 45.6907 48.6067 46.7352 47.6657C47.6855 48.1644 48.6923 48.5879 49.7744 48.7855C51.6657 49.0583 53.7264 48.6255 55.5142 47.694C54.0746 48.4185 52.4844 48.7666 50.9506 48.7572C49.4921 48.7572 48.1748 48.1268 46.9798 47.4399C47.9114 46.6025 48.8335 45.7556 49.7556 44.8993C52.6255 45.9344 54.8462 46.1414 57.9137 44.5418C54.8085 46.0473 52.7761 45.8309 50.0003 44.6735C51.0635 43.6855 52.1174 42.6881 53.1619 41.6813C55.2884 42.4811 57.0668 42.7446 59.3251 41.4084C57.0856 42.6505 55.3543 42.3588 53.3218 41.5307C54.1875 40.6933 55.0532 39.8558 55.9094 39.009C57.095 39.423 58.45 39.4983 59.6732 38.8114C58.4594 39.4136 57.1985 39.2913 56.0694 38.849C56.9351 37.9834 57.8007 37.1271 58.657 36.252C57.7255 37.0424 56.8033 37.8516 55.8906 38.6608C55.5236 37.5129 55.4954 36.2332 56.1823 35.0664C55.4201 36.2426 55.4013 37.5882 55.7306 38.802C54.8273 39.5924 53.9334 40.4016 53.0395 41.2108C52.3432 39.1219 52.1739 37.3811 53.5759 35.2264C52.0892 37.3906 52.2303 39.1878 52.8796 41.3614C51.8069 42.34 50.7436 43.3185 49.6803 44.316C48.7488 41.4931 48.6641 39.3948 50.3484 36.4308C48.5136 39.4136 48.5606 41.5872 49.4263 44.5512C48.5136 45.4075 47.6102 46.2731 46.7069 47.1482C46.1141 45.9062 45.606 44.5512 45.6907 43.1021C45.7754 41.5684 46.227 40.0064 47.0363 38.6232C46.1706 39.997 45.6625 41.559 45.5213 43.1115C45.3802 44.6359 45.8789 46.0661 46.4623 47.3835C45.4555 48.362 44.4581 49.3406 43.4607 50.338C42.2845 48.6349 42.3127 46.3766 42.8961 44.2877C43.0843 43.5726 43.3101 42.8575 43.6018 42.1612C42.3597 44.8899 41.5882 48.1644 43.1501 50.6486C42.6985 51.1002 42.2468 51.5519 41.8046 52.0035C42.2845 51.5895 42.7643 51.1755 43.2442 50.7521C45.6437 52.3987 48.9276 51.9188 51.741 50.8838C49.0029 51.8059 45.7378 52.2952 43.5736 50.4698L43.583 50.4604Z" fill="#CCB212"/>
<path opacity="0.31" d="M55.4288 46.0001C58.9161 42.5129 60.4502 38.3931 58.8554 36.7983C57.2606 35.2035 53.1408 36.7376 49.6536 40.2249C46.1663 43.7121 44.6322 47.8319 46.227 49.4267C47.8218 51.0215 51.9416 49.4874 55.4288 46.0001Z" fill="#FFF9D4"/>
<path d="M48.0806 33.8436C47.8453 34.2482 47.6007 34.6529 47.3372 35.0481C46.6598 36.0643 45.9164 36.977 45.1448 37.7956C44.7308 38.2379 44.3074 38.6331 43.8745 39.0095C40.9294 41.55 37.749 42.5004 35.7259 41.1454L41.2681 32.865L48.5511 21.9971C49.3038 22.5052 49.8213 23.2862 50.113 24.2554C50.847 26.683 50.1224 30.3245 48.0806 33.853V33.8436Z" fill="#F9ED32"/>
<path d="M48.5511 21.9882L41.2681 32.8561L35.7259 41.1365C33.4018 39.5839 33.3171 35.472 35.2272 31.1624C35.6789 30.1274 36.2528 29.0923 36.9303 28.0761C37.1938 27.6809 37.4761 27.2951 37.7584 26.9281C38.6052 25.8178 39.5273 24.8486 40.4777 24.0488C41.4187 23.2396 42.3972 22.5998 43.3476 22.1481C44.2133 21.7341 45.0601 21.4706 45.8599 21.3954C46.688 21.3107 47.4596 21.4142 48.1182 21.7435C48.2688 21.8094 48.4099 21.8941 48.5416 21.9882H48.5511Z" fill="#FFDE17"/>
<path d="M37.0904 39.2457C37.909 38.1071 38.7183 36.9592 39.5275 35.8112C40.5719 36.0841 41.6446 36.2629 42.7455 36.2158C44.6462 36.0465 46.5564 35.162 48.0807 33.854C46.8481 34.8891 45.3802 35.5854 43.8747 35.9241C42.4444 36.2535 41.033 35.9336 39.7063 35.5478C40.4214 34.5221 41.1271 33.4871 41.8328 32.4426C44.8627 32.7908 47.0739 32.4897 49.6992 30.2314C47.0174 32.405 44.985 32.6496 42.021 32.1603C42.8302 30.9559 43.63 29.7421 44.4204 28.5283C46.6693 28.8294 48.4665 28.6788 50.3578 26.8534C48.4571 28.5753 46.7069 28.6788 44.5333 28.3401C45.192 27.3333 45.8318 26.317 46.4717 25.3008C47.7232 25.4325 49.0499 25.1973 50.0944 24.2564C49.0499 25.1126 47.789 25.2914 46.594 25.1126C47.2433 24.0776 47.8925 23.0331 48.523 21.9981C47.7984 22.9861 47.0833 23.9741 46.3776 24.9715C45.766 23.9364 45.4366 22.7038 45.8413 21.4053C45.3614 22.7226 45.6531 24.0399 46.2459 25.1503C45.5496 26.1288 44.8627 27.1168 44.1758 28.1048C43.0278 26.2324 42.4632 24.5763 43.3289 22.158C42.3691 24.6045 42.9149 26.3264 44.044 28.293C43.216 29.488 42.4068 30.683 41.5976 31.8969C40.0544 29.3563 39.4898 27.3333 40.459 24.0682C39.3487 27.3897 39.8944 29.4974 41.4094 32.1886C40.7131 33.233 40.0262 34.2775 39.3487 35.3313C38.4924 34.2587 37.6832 33.0542 37.4386 31.6146C37.1751 30.1091 37.2598 28.4812 37.7303 26.9475C37.2033 28.4812 37.0622 30.1185 37.2786 31.6616C37.4856 33.186 38.3042 34.4563 39.1699 35.6136C38.4077 36.7898 37.6644 37.9754 36.921 39.1704C35.3967 37.7778 34.898 35.576 34.9921 33.4118C35.0109 32.6685 35.0674 31.9251 35.1991 31.1817C34.6063 34.1269 34.5969 37.4861 36.6952 39.5468C36.3565 40.0831 36.0271 40.6289 35.6884 41.1746C36.0648 40.6665 36.4317 40.149 36.8081 39.6315C39.5181 40.6948 42.6044 39.4715 45.1167 37.8343C42.6608 39.3586 39.5839 40.5818 37.0716 39.2833L37.0904 39.2457Z" fill="#CCB212"/>
<path opacity="0.31" d="M48.0806 33.8441C47.8453 34.2487 47.6007 34.6533 47.3372 35.0485C46.6597 36.0647 45.9164 36.9774 45.1448 37.7961C44.7308 38.2383 44.3073 38.6335 43.8745 39.0099C43.6863 39.0099 43.4981 38.9817 43.3288 38.9252C43.3005 38.9158 43.2629 38.9064 43.2347 38.897C43.2158 38.897 43.1876 38.8782 43.1688 38.8687C42.3031 38.5206 41.7103 37.5326 41.428 36.1682C41.4092 36.0929 41.3998 36.0177 41.381 35.9424C41.2398 35.1708 41.2022 34.2863 41.2493 33.336C41.2493 33.1854 41.2681 33.0254 41.2775 32.8655C41.2963 32.6961 41.3057 32.5267 41.3339 32.3574C41.3434 32.2444 41.3622 32.1409 41.381 32.0374C41.3998 31.8775 41.428 31.7175 41.4469 31.5576C41.5786 30.7954 41.7574 30.005 42.002 29.1958C42.3219 28.1325 42.7171 27.1445 43.1594 26.26C43.1876 26.2035 43.2158 26.1471 43.2441 26.1C43.9592 24.7074 44.7966 23.5689 45.6435 22.8067C45.6717 22.7879 45.6905 22.7597 45.7188 22.7408C46.5468 22.0257 47.3843 21.6588 48.1464 21.7434C48.297 21.8093 48.4381 21.894 48.5699 21.9881C49.3226 22.4962 49.8401 23.2772 50.1318 24.2464C50.8658 26.674 50.1412 30.3155 48.0994 33.8441H48.0806Z" fill="#FFF9D4"/>
<path d="M39.7439 19.7385C39.7156 19.9173 39.678 20.1055 39.6404 20.2937C39.5557 20.7548 39.4427 21.2158 39.311 21.6769C38.9911 22.8531 38.5865 23.9634 38.1066 24.9796C36.1118 29.2516 32.9408 31.8768 30.2497 31.1429L33.0725 20.783L36.3094 8.9082C37.1845 9.15285 37.9278 9.71742 38.5206 10.5549C39.9132 12.5309 40.4119 15.9653 39.7533 19.748L39.7439 19.7385Z" fill="#F9ED32"/>
<path d="M36.2999 8.9082L33.0631 20.783L30.2402 31.1429C27.5397 30.4089 26.1471 26.5322 26.5893 21.8369C26.6928 20.7171 26.8998 19.5598 27.2198 18.3836C27.3515 17.9225 27.4832 17.4614 27.6432 17.0286C28.0948 15.7019 28.6688 14.4974 29.3087 13.4342C29.9485 12.3709 30.6636 11.4488 31.4164 10.7148C32.1033 10.0467 32.8278 9.52923 33.5524 9.19989C33.637 9.16225 33.7217 9.12462 33.8064 9.08698C34.6439 8.75765 35.4907 8.68237 36.2905 8.89879L36.2999 8.9082Z" fill="#FFDE17"/>
<path d="M30.946 28.9125C31.3601 27.5763 31.7647 26.2307 32.1599 24.8758C33.2325 24.8005 34.3052 24.6311 35.3403 24.2265C37.0904 23.4644 38.6148 22.0153 39.6498 20.2839C38.8124 21.6577 37.6362 22.7869 36.3283 23.5867C35.0768 24.3488 33.6372 24.5088 32.2634 24.5559C32.6115 23.3514 32.9597 22.147 33.289 20.9426C36.2718 20.3122 38.276 19.3148 40.045 16.3414C38.2008 19.2489 36.3471 20.1334 33.3831 20.6133C33.7689 19.2113 34.1359 17.8092 34.5028 16.4072C36.7329 15.9744 38.3795 15.2593 39.6028 12.9257C38.3513 15.1558 36.7235 15.8238 34.5593 16.1908C34.8604 15.024 35.1521 13.8572 35.4344 12.6905C36.667 12.4176 37.8526 11.7683 38.5301 10.5451C37.815 11.6931 36.6764 12.2576 35.4908 12.4741C35.7731 11.279 36.0554 10.0934 36.3283 8.89844C35.9519 10.0652 35.5943 11.232 35.2368 12.3988C34.3241 11.6084 33.6277 10.5451 33.5901 9.19013C33.5525 10.5921 34.2488 11.7495 35.1709 12.6152C34.8228 13.7632 34.484 14.9205 34.1453 16.0779C32.461 14.6665 31.3977 13.2739 31.4542 10.7051C31.3224 13.3209 32.3951 14.7794 34.0888 16.2849C33.6842 17.6775 33.2984 19.0795 32.922 20.4721C30.6449 18.5526 29.4687 16.8212 29.3464 13.415C29.3464 16.9153 30.5414 18.7408 32.8374 20.8015C32.508 22.0153 32.1975 23.2197 31.887 24.4335C30.7296 23.6902 29.5817 22.8057 28.8948 21.526C28.1608 20.1804 27.7186 18.6185 27.6809 17.0094C27.6715 18.6279 28.0573 20.2275 28.7536 21.6201C29.4311 22.9939 30.6167 23.9442 31.8023 24.7629C31.4542 26.1272 31.1248 27.4822 30.8049 28.8466C28.9136 28.0186 27.7468 26.0896 27.1446 24.0007C26.9282 23.295 26.7494 22.561 26.6271 21.8177C27.0035 24.8005 28.0667 27.9903 30.7108 29.27C30.5697 29.891 30.4191 30.5121 30.278 31.1237C30.4662 30.5215 30.6543 29.9099 30.8519 29.2982C33.7595 29.4394 36.3 27.294 38.1537 24.9416C36.3095 27.1623 33.7877 29.3077 30.9837 28.8842L30.946 28.9125Z" fill="#CCB212"/>
<path opacity="0.31" d="M39.7438 19.7389C39.6309 20.0682 39.5086 20.3787 39.3863 20.6798C39.3863 20.6987 39.3675 20.7175 39.3675 20.7363C38.4735 22.797 37.2033 24.0673 35.8953 23.9732C35.8201 23.9732 35.7542 23.9544 35.6789 23.9449C34.6533 23.7473 33.797 22.7311 33.223 21.188C33.176 21.0562 33.1289 20.9245 33.0819 20.7928C33.0349 20.6516 32.9878 20.5011 32.9502 20.3505C32.5079 18.7979 32.3197 16.8596 32.4703 14.7707C32.4703 14.7048 32.4703 14.6484 32.4891 14.5825C32.4891 14.5166 32.4891 14.4508 32.5079 14.3943C32.6679 12.6065 33.0631 10.9786 33.6088 9.64249C33.6088 9.63309 33.6182 9.61427 33.6277 9.60486C33.7029 9.42608 33.7782 9.2567 33.8441 9.09674C34.6815 8.76741 35.5284 8.69213 36.3282 8.90855C37.2033 9.1532 37.9466 9.71777 38.5394 10.5552C39.932 12.5312 40.4307 15.9657 39.7721 19.7483L39.7438 19.7389Z" fill="#FFF9D4"/>
<path d="M22.9478 24.2366C20.3132 25.1587 16.8505 22.4206 14.3946 17.8381C13.8112 16.7466 13.2843 15.561 12.842 14.2813C12.6632 13.7826 12.5127 13.2839 12.3715 12.7852C11.9481 11.2985 11.6941 9.84947 11.5717 8.4945C11.3553 5.88806 11.6752 3.62037 12.5033 2.08662C12.7009 1.71965 12.9267 1.39973 13.1808 1.12685C13.576 0.694016 14.037 0.383503 14.564 0.195312L18.9206 12.6723L22.9478 24.2366Z" fill="#F9ED32"/>
<path d="M22.9478 24.2363L18.9205 12.672L14.5639 0.19502C15.4296 -0.106084 16.3799 -0.0119888 17.3491 0.40203C19.6168 1.37121 22.0162 4.11878 23.7288 7.83554C23.8605 8.11782 23.9828 8.40011 24.1051 8.6918C24.3027 9.16228 24.4909 9.65157 24.6697 10.1503C25.112 11.4206 25.4413 12.6814 25.6671 13.8953C26.5987 19.014 25.5918 23.3142 22.9478 24.2269V24.2363Z" fill="#FFDE17"/>
<path d="M22.0163 21.8275C21.4611 20.3784 20.9154 18.9294 20.379 17.4709C19.2875 17.4333 18.196 17.2921 17.1139 16.9063C15.2697 16.1442 13.5854 14.6292 12.3715 12.785C13.3595 14.2434 14.6486 15.4384 16.0601 16.2571C17.3962 17.0381 18.8641 17.1416 20.2567 17.1416C19.7768 15.8431 19.3158 14.5351 18.8547 13.2366C15.7872 12.6721 13.6701 11.6746 11.5811 8.50364C13.7453 11.5994 15.6931 12.4933 18.723 12.8885C18.196 11.3735 17.6691 9.85861 17.161 8.34368C14.8745 7.9673 13.1337 7.26159 11.6658 4.76807C13.1619 7.15808 14.8557 7.80734 17.0763 8.10844C16.6529 6.84757 16.2389 5.5867 15.8342 4.31641C14.5734 4.07176 13.3125 3.4131 12.4939 2.10518C13.3313 3.32841 14.5357 3.90239 15.759 4.08117C15.3449 2.79207 14.9403 1.50297 14.5451 0.213867C15.0438 1.46533 15.5237 2.72621 16.0036 3.99649C16.8411 3.09318 17.4339 1.89817 17.3304 0.420876C17.5091 1.95463 16.9257 3.24373 16.0883 4.23173C16.5588 5.47378 17.0198 6.71584 17.4715 7.9673C19.0241 6.34886 19.9462 4.78689 19.6357 1.98285C20.0403 4.84334 19.1088 6.4806 17.5562 8.20254C18.1019 9.70806 18.6383 11.2136 19.1652 12.7285C21.2541 10.5361 22.2609 8.58833 22.0351 4.85275C22.3833 8.67301 21.3859 10.7243 19.2875 13.0861C19.7392 14.394 20.1814 15.7019 20.6143 17.0192C21.7058 16.1536 22.769 15.1373 23.3242 13.7071C23.9264 12.2016 24.2087 10.4702 24.077 8.72006C24.2558 10.489 24.0299 12.258 23.4748 13.8106C22.929 15.3444 21.8375 16.4264 20.7272 17.3768C21.2165 18.8541 21.687 20.322 22.1574 21.7993C23.9735 20.8113 24.9521 18.6471 25.3473 16.3418C25.4978 15.5608 25.6013 14.7516 25.6484 13.9329C25.5731 17.2074 24.8297 20.736 22.308 22.2603C22.515 22.9284 22.7314 23.6059 22.9384 24.274C22.6844 23.6247 22.4303 22.9661 22.1762 22.3074C19.2687 22.5897 16.4929 20.3596 14.3852 17.8661C16.4741 20.2185 19.2311 22.4485 22.0069 21.8557L22.0163 21.8275Z" fill="#CCB212"/>
<path opacity="0.31" d="M24.0204 11.1385C23.9922 11.4491 23.9357 11.7502 23.8604 12.0136V12.0324C23.644 12.804 23.2488 13.3874 22.6654 13.6791C21.7715 14.1308 20.5953 13.8391 19.3721 12.9922C19.2216 12.8887 19.0804 12.7852 18.9299 12.6629C18.8075 12.5688 18.6852 12.4653 18.5629 12.3524C17.3397 11.2797 16.107 9.69889 15.1096 7.77935C15.072 7.71348 15.0437 7.64761 15.0061 7.58175C15.0061 7.57234 14.9967 7.55352 14.9873 7.54411C14.2157 6.02918 13.6982 4.50484 13.4253 3.13105C13.4159 3.10282 13.4065 3.06518 13.4065 3.03696C13.2748 2.35006 13.2089 1.70081 13.1995 1.10801C13.5947 0.675169 14.0557 0.364656 14.5827 0.176466C15.4484 -0.124639 16.3987 -0.0305435 17.3679 0.383475C19.6356 1.35265 22.035 4.10023 23.7475 7.81698C24.0298 9.04022 24.1333 10.1694 24.0298 11.1197L24.0204 11.1385Z" fill="#FFF9D4"/>
<path d="M21.1976 35.3685C20.012 37.8997 15.9659 38.6054 11.4117 37.3634C10.3297 37.0622 9.21933 36.6576 8.10901 36.1401C7.67617 35.9331 7.25274 35.7261 6.84813 35.4909C5.6249 34.8134 4.52399 34.0512 3.59244 33.2326C2.97142 32.6962 2.41626 32.1411 1.94578 31.5671C1.94578 31.5671 1.93637 31.5577 1.92696 31.5483C1.69172 31.266 1.47531 30.9743 1.27771 30.6826C0.741364 29.8922 0.355574 29.083 0.157974 28.3208C-0.0960826 27.3422 -0.049035 26.4013 0.336755 25.5732L21.1976 35.3685Z" fill="#FFDE17"/>
<path d="M0.336784 25.5825L21.2071 35.3778C22.675 32.2445 19.1934 27.5209 13.4348 24.811C7.6762 22.1104 1.81408 22.4492 0.336784 25.5825Z" fill="#F9ED32"/>
<path d="M21.1977 35.3684C20.6143 35.1238 20.0309 34.8697 19.4381 34.6251C18.6948 35.5849 17.6973 36.2435 16.5682 36.667C14.9874 37.2692 13.1526 37.4291 11.4118 37.3633C12.9926 37.3821 14.6863 37.2315 16.1448 36.6858C17.3398 36.2435 18.3748 35.5378 19.0429 34.4557C17.7538 33.9006 16.4647 33.336 15.185 32.7714C14.4322 33.5336 13.6042 34.2393 12.635 34.7756C11.5529 35.3026 10.3297 35.5849 9.07824 35.6413C8.33489 35.679 7.58213 35.6225 6.84818 35.5002C7.54449 35.6131 8.2502 35.6413 8.93709 35.5943C9.82159 35.5472 10.6967 35.3779 11.5247 35.105C12.9173 34.6533 13.9712 33.6559 14.8933 32.6303C13.7454 32.1222 12.6068 31.5952 11.4683 31.0683C9.16292 32.8467 7.19634 33.7312 4.05356 33.2984C3.90301 33.2795 3.74305 33.2513 3.59249 33.2325C3.74305 33.2513 3.8936 33.2701 4.03474 33.2889C7.16811 33.6371 8.97473 32.7996 11.1671 30.9272C9.84982 30.3155 8.5419 29.6851 7.24338 29.0547C5.4744 30.4755 3.85596 31.2659 1.28717 30.6919C3.80891 31.1812 5.36148 30.3814 7.04578 28.9606C5.96369 28.4336 4.8816 27.8973 3.80891 27.361C2.8021 28.1231 1.54122 28.603 0.167435 28.3301C1.50358 28.5277 2.67036 28.029 3.6019 27.2575C2.5104 26.7023 1.4189 26.1471 0.336806 25.5826C1.46595 26.053 2.58568 26.5329 3.70541 27.0222C3.70541 25.8178 3.33844 24.5946 2.33162 23.6912C3.42312 24.5757 3.85596 25.8554 3.91242 27.1069C5.01333 27.5868 6.11424 28.0761 7.21516 28.5654C7.23397 26.3635 6.867 24.6604 4.87219 23.042C6.95169 24.6416 7.36571 26.3918 7.42216 28.6595C8.73949 29.2617 10.0568 29.8639 11.3647 30.4849C11.3836 27.5115 10.819 25.4885 8.30666 23.1831C10.9601 25.4602 11.5906 27.5397 11.6753 30.6261C12.8044 31.1624 13.9335 31.7081 15.0627 32.2633C15.2415 30.8989 15.3167 29.4593 14.7804 28.0949C14.2346 26.6647 13.3219 25.3191 12.1269 24.2464C13.369 25.2909 14.3382 26.6176 14.9404 28.0573C15.552 29.4593 15.5049 30.9742 15.3544 32.4139C16.6153 33.0349 17.8667 33.6653 19.1182 34.2958C19.711 32.3198 18.9959 30.1744 17.8008 28.3678C17.4057 27.7373 16.9634 27.1351 16.4741 26.5611C18.4972 28.7724 20.2379 31.6611 19.504 34.5028C20.0685 34.7945 20.6425 35.0768 21.1977 35.3779V35.3684Z" fill="#CCB212"/>
<g style="mix-blend-mode:multiply" opacity="0.6">
<path d="M21.1977 35.3678C20.0121 37.899 15.966 38.6047 11.4118 37.3627C10.3297 37.0616 9.21937 36.6569 8.10904 36.1394C7.67621 35.9324 7.25278 35.7254 6.84817 35.4902C5.62493 34.8127 4.52402 34.0505 3.59248 33.2319C2.97145 32.6955 2.41629 32.1404 1.94582 31.5664C2.13401 31.764 2.8209 32.4697 4.03473 33.2883C4.03473 33.2883 4.04414 33.2978 4.05355 33.3072C5.21091 34.0787 6.82935 34.9538 8.93708 35.5937C8.98413 35.6125 9.03117 35.6219 9.08763 35.6407C9.95331 35.9042 10.9037 36.1112 11.9387 36.2712C13.1619 36.4499 14.5263 36.751 16.1542 36.704C16.2953 36.704 16.4365 36.6946 16.587 36.6852C17.9232 36.5911 19.4475 36.2429 21.2165 35.3867L21.1977 35.3678Z" fill="#E5D6FF"/>
</g>
<path d="M25.2721 46.3768C25.2533 46.612 25.2062 46.8379 25.1404 47.0543C24.4064 49.4913 21.0284 51.2133 16.7095 51.5332C15.5897 51.6179 14.4135 51.6085 13.1997 51.4862C12.7198 51.4391 12.2588 51.3732 11.7977 51.298C9.2289 50.8745 6.98003 50.0089 5.31455 48.8891C5.18281 48.8045 5.06049 48.7198 4.93817 48.6257C4.16659 48.0517 3.53615 47.4307 3.0939 46.772C2.52933 45.9346 2.25646 45.0312 2.34114 44.1279L25.2815 46.3768H25.2721Z" fill="#FFDE17"/>
<path d="M2.33173 44.1281L25.2721 46.377C25.6109 42.9331 20.7461 39.6397 14.4135 39.0187C8.08094 38.3977 2.67048 40.6842 2.33173 44.1281Z" fill="#F9ED32"/>
<path d="M22.9291 46.236C21.527 46.1419 20.1344 46.0478 18.7324 45.9349C18.2808 46.9135 17.735 47.8544 17.0011 48.6731C15.6649 50.0374 13.7736 50.9502 11.7882 51.2983C13.369 50.9972 14.8463 50.3103 16.0601 49.3694C17.2175 48.4755 17.8761 47.1769 18.4125 45.9067C17.161 45.8032 15.919 45.6996 14.6675 45.5773C13.0114 48.1461 11.3742 49.6611 7.96794 50.2539C11.346 49.5575 12.8327 48.1461 14.3288 45.5491C12.8797 45.408 11.44 45.2574 10.0004 45.0974C8.80539 47.0264 7.54451 48.3155 4.93808 48.626C7.46924 48.2496 8.66424 46.9699 9.78397 45.0692C8.58897 44.9375 7.39396 44.7869 6.19895 44.6364C5.50265 45.6902 4.47701 46.5653 3.09381 46.7629C4.42056 46.4995 5.3521 45.6432 5.98253 44.6081C4.76871 44.4482 3.55488 44.2882 2.35046 44.1189C3.5737 44.1847 4.78753 44.26 6.01076 44.3447C5.59674 43.2061 4.85339 42.1805 3.60193 41.6724C4.91926 42.1429 5.75671 43.1967 6.23659 44.3635C7.4316 44.4482 8.63601 44.5423 9.83102 44.6364C9.1159 42.5569 8.19377 41.0702 5.77552 40.2139C8.26904 41.0231 9.25704 42.5381 10.0568 44.6552C11.5059 44.7775 12.9456 44.9093 14.3852 45.0504C13.4066 42.2464 12.2022 40.5244 9.05944 39.1977C12.3245 40.4491 13.6136 42.2087 14.724 45.088C15.966 45.2104 17.2175 45.3515 18.4595 45.4926C18.1773 44.1471 17.7538 42.7639 16.8035 41.663C15.8061 40.4962 14.4981 39.527 13.0114 38.9248C14.5358 39.4894 15.8813 40.4209 16.9352 41.5689C17.9797 42.6886 18.4407 44.1283 18.7889 45.5397C20.1815 45.6997 21.5741 45.8784 22.9667 46.0572C22.8632 43.9965 21.4706 42.2181 19.7392 40.9102C19.1558 40.4491 18.5348 40.0257 17.8856 39.6493C20.539 41.0608 23.1361 43.1967 23.3995 46.1137C24.03 46.1984 24.6604 46.283 25.2908 46.3677C24.6604 46.3301 24.0206 46.2924 23.3901 46.2548C22.4868 49.0212 19.5887 50.6302 16.7282 51.5241C19.4664 50.5926 22.3551 48.993 22.9573 46.2266L22.9291 46.236Z" fill="#CCB212"/>
<g style="mix-blend-mode:multiply" opacity="0.6">
<path d="M16.7 51.5333C15.5803 51.6179 14.4041 51.6085 13.1903 51.4862C12.7104 51.4392 12.2493 51.3733 11.7882 51.298C9.21944 50.8746 6.97057 50.0089 5.30508 48.8892C5.30508 48.8892 6.51891 49.5384 8.93715 50.0183C8.95597 50.0183 8.97479 50.0183 9.00302 50.0277C10.358 50.2912 12.0799 50.5076 14.1688 50.517H14.3194C14.7522 50.517 15.1945 50.517 15.6555 50.4888C16.8788 50.4418 18.6948 50.2065 20.5297 49.6325C20.6426 49.5949 20.7555 49.5667 20.8684 49.5196C22.4398 48.9927 23.983 48.2023 25.1403 47.0449C24.4064 49.482 21.0284 51.2039 16.7094 51.5238L16.7 51.5333Z" fill="#E5D6FF"/>
</g>
<path d="M31.501 58.7314C31.4821 61.2625 28.791 63.8972 24.7826 65.478C23.7381 65.892 22.609 66.2307 21.414 66.4754C20.9435 66.5695 20.473 66.6542 20.012 66.72C19.3251 66.8141 18.657 66.8706 17.9983 66.8988C17.3302 66.927 16.6716 66.9176 16.0506 66.8706C14.8085 66.7859 13.6605 66.5601 12.6725 66.2213C11.7598 65.9108 10.9788 65.4968 10.3578 64.9981C9.5674 64.3677 9.04047 63.5867 8.85228 62.6928L31.4257 58.0068C31.4727 58.2515 31.501 58.4867 31.501 58.7314Z" fill="#FFDE17"/>
<path d="M8.85236 62.6833L31.4258 57.9973C30.7201 54.6099 25.1026 52.9162 18.8641 54.2053C12.635 55.4944 8.14665 59.2958 8.85236 62.6833Z" fill="#F9ED32"/>
<path d="M29.1486 58.5623C27.7842 58.8916 26.4198 59.2115 25.046 59.522C24.9049 60.5947 24.6697 61.6486 24.2086 62.6554C23.3335 64.3585 21.7998 65.7888 20.012 66.7109C21.4328 65.9581 22.6372 64.8572 23.5123 63.5963C24.3497 62.4013 24.5944 60.9617 24.7261 59.5973C23.5029 59.8702 22.2796 60.1431 21.0564 60.3971C20.2472 63.3423 19.1275 65.2712 16.0506 66.852C19.071 65.1865 20.0684 63.3987 20.7271 60.463C19.3062 60.7641 17.8854 61.0464 16.4552 61.3192C15.8812 63.5117 15.072 65.1207 12.6725 66.1934C14.9779 65.083 15.74 63.5022 16.2387 61.3569C15.0531 61.5827 13.877 61.7991 12.6914 62.0155C12.3432 63.2294 11.6187 64.3679 10.3578 64.9701C11.5434 64.3303 12.1832 63.22 12.4655 62.0532C11.2611 62.2696 10.0567 62.4766 8.85228 62.6742C10.0379 62.3731 11.2235 62.0814 12.4185 61.7991C11.6845 60.8394 10.6683 60.0772 9.32275 59.9643C10.7248 60.0113 11.8351 60.7829 12.6443 61.7521C13.8111 61.4698 14.9873 61.2063 16.1635 60.9429C14.8555 59.1739 13.5382 58.0259 10.9694 57.9224C13.5947 57.9506 14.9873 59.108 16.3799 60.8864C17.7913 60.5759 19.2121 60.2654 20.633 59.9737C18.864 57.5837 17.1985 56.304 13.8017 55.9746C17.2926 56.2005 19.0428 57.4896 20.9623 59.9078C22.1856 59.6538 23.4182 59.4185 24.6508 59.1833C23.9734 57.9789 23.1641 56.7839 21.9315 56.0217C20.633 55.2125 19.0992 54.6761 17.4996 54.535C19.1181 54.6197 20.6894 55.109 22.035 55.89C23.3617 56.6521 24.2368 57.8848 24.9802 59.1268C26.3634 58.8634 27.7372 58.6187 29.1204 58.3835C28.4052 56.4451 26.5516 55.156 24.5097 54.4315C23.8134 54.168 23.0983 53.9422 22.3643 53.7822C25.3189 54.3374 28.4335 55.5983 29.5532 58.3082C30.1836 58.2047 30.8047 58.0918 31.4351 57.9883C30.8235 58.1482 30.2025 58.2894 29.5814 58.4493C29.5438 61.3569 27.2479 63.7657 24.792 65.4688C27.1255 63.7657 29.4121 61.3757 29.158 58.5528L29.1486 58.5623Z" fill="#CCB212"/>
<g style="mix-blend-mode:multiply" opacity="0.6">
<path d="M31.5009 58.7311C31.4821 61.2622 28.791 63.8969 24.7826 65.4777C23.7381 65.8917 22.609 66.2305 21.414 66.4751C20.9435 66.5692 20.473 66.6539 20.0119 66.7198C19.325 66.8139 18.657 66.8703 17.9983 66.8985C18.8263 66.7762 19.7202 66.5974 20.6518 66.3434C20.6706 66.3434 20.6894 66.3434 20.7082 66.3246C21.1411 66.2116 21.5833 66.0705 22.0256 65.92C24.265 65.1578 25.8835 64.3203 27.1914 63.3512C27.3043 63.2665 27.4078 63.1818 27.5207 63.0971C29.0639 61.8739 30.193 60.4436 31.4821 58.7217V58.7405L31.5009 58.7311Z" fill="#E5D6FF"/>
</g>
<path d="M33.223 78.1429C32.2068 78.6134 31.0965 79.018 29.9109 79.3285C29.4498 79.4508 28.9888 79.5449 28.5277 79.639C26.0812 80.1095 23.7665 80.1095 21.8658 79.6955C21.6305 79.6484 21.4047 79.5825 21.1789 79.5167C20.2567 79.2532 19.4475 78.8862 18.7983 78.4252C17.9702 77.8324 17.4057 77.089 17.1704 76.2045L39.4615 70.333C40.1767 73.0335 37.5232 76.1763 33.223 78.1429Z" fill="#FFDE17"/>
<path d="M17.1704 76.2049L39.4615 70.3334C38.577 66.993 32.8749 65.591 26.7211 67.2188C20.5672 68.8373 16.2859 72.8646 17.1704 76.2143V76.2049Z" fill="#F9ED32"/>
<path d="M37.6361 70.8885C37.6831 72.1117 37.3256 73.2691 36.7234 74.3324C35.8953 75.8002 34.5968 77.0893 33.223 78.1432C34.4369 77.1552 35.6319 75.9602 36.4035 74.6241C37.0433 73.5043 37.3915 72.2905 37.2127 71.0108C35.8765 71.4154 34.5216 71.8012 33.176 72.187C33.0913 73.2597 32.9125 74.3324 32.4985 75.358C32.1504 76.139 31.6705 76.8729 31.0871 77.5316C30.3626 78.3596 29.4875 79.0653 28.5277 79.6299C29.4404 79.0842 30.259 78.3785 30.9365 77.5881C31.2847 77.1929 31.5952 76.7694 31.8587 76.3366C32.6302 75.0945 32.7996 73.6549 32.8655 72.2811C31.6611 72.6198 30.4472 72.9586 29.2334 73.2785C28.6877 75.7626 27.8973 77.5598 25.9119 79.103C25.5167 79.4135 25.0744 79.7052 24.5757 79.9969C25.0368 79.7052 25.4508 79.4229 25.8272 79.1218C27.7843 77.5598 28.4901 75.8661 28.9135 73.3726C27.5115 73.749 26.1095 74.1065 24.698 74.4547C24.2464 76.6753 23.5124 78.3314 21.1789 79.5264C23.4183 78.2938 24.0958 76.6753 24.4816 74.5111C23.3148 74.8028 22.1386 75.0851 20.9719 75.358C20.6896 76.5812 20.0309 77.7668 18.7983 78.4349C19.9556 77.7292 20.5296 76.6 20.746 75.4145C19.551 75.6873 18.356 75.9602 17.1704 76.2237C18.3372 75.8661 19.5134 75.5086 20.6802 75.1604C19.8992 74.2383 18.8453 73.5325 17.4903 73.4949C18.8924 73.4761 20.0497 74.1724 20.8966 75.1039C22.0445 74.7652 23.2019 74.4359 24.3593 74.1065C22.9573 72.4034 21.5835 71.3401 19.0147 71.3684C21.6399 71.2555 23.089 72.3375 24.5757 74.0501C25.9777 73.6549 27.3703 73.2879 28.7818 72.9115C26.881 70.625 25.1591 69.43 21.7529 69.2795C25.2532 69.3171 27.0692 70.5121 29.1111 72.8268C30.3249 72.5163 31.5387 72.2058 32.7526 71.9047C32.0186 70.7473 31.1435 69.59 29.8638 68.8843C28.5277 68.1409 26.9657 67.6893 25.3567 67.6328C26.9751 67.6328 28.5747 68.0374 29.9579 68.7431C31.3223 69.4394 32.2633 70.625 33.0725 71.82C34.4369 71.4907 35.8012 71.1614 37.1656 70.8603C36.3564 68.9595 34.4275 67.7739 32.348 67.1623C31.6422 66.9365 30.9177 66.7483 30.1744 66.626C33.1478 67.0212 36.3282 68.1221 37.5891 70.7662C38.2101 70.625 38.8311 70.4839 39.4521 70.3521C38.8499 70.5403 38.2383 70.7191 37.6267 70.9073L37.6361 70.8885Z" fill="#CCB212"/>
<g style="mix-blend-mode:multiply" opacity="0.6">
<path d="M33.2231 78.1426C32.2069 78.6131 31.0966 79.0177 29.911 79.3282C29.4499 79.4506 28.9888 79.5447 28.5278 79.6387C26.0813 80.1092 23.7666 80.1092 21.8658 79.6952C22.8162 79.6482 24.1429 79.4976 25.8272 79.1212C25.8555 79.1212 25.8837 79.1118 25.9119 79.1024C27.0505 78.8483 28.3396 78.4908 29.7981 78.0015C30.1933 77.8698 30.5696 77.738 30.9366 77.6063C30.9931 77.5875 31.0495 77.5687 31.0966 77.5498C33.3831 76.703 35.058 75.8561 36.4129 74.6423C36.5259 74.5482 36.6294 74.4447 36.7235 74.3506C37.7773 73.3344 38.6336 72.0641 39.4616 70.3516C40.1767 73.0521 37.5233 76.1949 33.2231 78.1615V78.1426Z" fill="#E5D6FF"/>
</g>
</svg>
