<svg width="82" height="78" viewBox="0 0 82 78" fill="none" xmlns="http://www.w3.org/2000/svg">
<path d="M39.1139 74.6606C38.7379 75.6378 38.3138 77.1761 37.6872 77.1761C37.1281 77.1761 36.2316 76.673 36.0678 76.0635C36.0388 75.9474 36.0196 75.8409 36.0485 75.7248C36.1834 74.9702 37.7258 74.1672 38.2945 73.19C40.1838 69.9393 40.1453 65.4308 39.7115 61.8414C39.7019 61.7543 39.6922 61.6672 39.6826 61.5705C39.6826 61.4834 39.991 61.4254 40.1549 61.4254C40.3188 61.4157 40.608 61.4737 40.608 61.5705C40.6851 65.5275 40.7429 70.5584 39.1235 74.6509L39.1139 74.6606Z" fill="#A69800"/>
<path d="M39.114 74.6607C38.738 75.6378 38.3139 77.1762 37.6873 77.1762C37.1282 77.1762 36.2317 76.6731 36.0679 76.0635C36.9065 75.9281 38.5645 75.454 39.1236 73.8286C39.8755 71.6034 40.7816 65.0342 40.4442 63.6217C40.2803 62.8767 39.9719 62.2672 39.7116 61.8511C39.702 61.7641 39.6923 61.677 39.6827 61.5803C39.6827 61.4932 39.9912 61.4351 40.155 61.4351C40.3189 61.4255 40.6081 61.4835 40.6081 61.5803C40.6852 65.5373 40.743 70.5682 39.1236 74.6607H39.114Z" fill="#8C8000"/>
<path d="M66.5478 47.5134C66.5478 47.5134 67.9263 49.371 71.7821 48.1616C75.6282 46.9523 78.4526 46.7491 78.4526 46.7491H78.443C78.1924 46.9136 74.1534 49.5742 72.8617 51.5188C71.5315 53.5312 69.7 56.3659 66.5189 57.1012C66.5189 57.1012 66.5479 57.1206 66.6057 57.1689C66.9238 57.4689 68.0709 58.6202 68.3601 60.1875C68.6396 61.7355 71.2519 61.3001 72.0809 61.1356C72.1291 61.126 72.158 61.1163 72.2062 61.1066C72.2352 61.1066 72.2641 61.0969 72.293 61.0873C72.0424 61.2421 69.912 62.4708 67.5986 63.3415C65.9309 63.9607 63.1258 62.1612 61.1401 62.0257H61.1304C60.1665 61.958 59.3953 62.2773 59.058 63.4576C58.6627 64.8121 63.8488 64.3864 65.5261 66.6406C65.7478 66.9309 65.9116 67.2792 65.9888 67.6662C66.596 70.6944 69.806 70.3848 70.741 73.6259C70.4036 73.4808 67.3576 70.8879 61.8341 72.3585C60.6388 72.6681 59.6267 72.6391 58.7591 72.3682C55.5299 71.4104 54.2286 67.405 51.8958 67.4533C47.2592 67.5694 40.608 61.6 40.608 61.6C40.5598 61.5807 40.3863 61.6 40.1453 61.6V0.00976562C40.1453 0.00976562 40.1549 0.0387902 40.1935 0.106514C40.4441 0.83213 41.9671 4.8085 45.0325 8.35918C48.3485 12.2001 45.7844 15.238 48.387 16.1571C50.9801 17.0666 50.4884 12.9354 52.9176 12.1227C54.0647 11.7357 55.3564 10.1781 55.5203 9.98457C55.5203 9.98457 55.5235 9.97812 55.5299 9.96522C55.5299 9.96522 55.9926 13.9706 55.0094 17.7051C55.0094 17.7051 55.0094 17.7148 54.9997 17.7148C54.7298 18.7597 54.3346 19.7755 53.7948 20.6753C53.4285 21.2848 52.9851 21.846 52.4645 22.32C48.8883 25.5805 50.18 28.5894 52.4356 30.9017C53.5056 32.0143 56.2432 31.9272 57.7084 29.8664C58.0651 29.373 58.3446 28.7829 58.5085 28.0669C60.5521 19.4466 68.9095 17.4536 68.9095 17.4536C68.9095 17.4536 67.6468 23.7519 68.9866 23.7132C71.2905 23.6358 74.2691 21.101 75.0788 21.2751C75.2716 21.3042 75.3487 21.488 75.2812 21.8556C74.7414 25.087 74.0956 26.161 75.8692 25.6192C77.6429 25.0871 79.0985 25.0871 79.0985 25.0871C79.0985 25.0871 78.1442 28.9183 76.5729 30.6114C74.5968 32.7302 71.9749 33.1269 72.9677 37.2193C73.4112 39.0769 75.3391 37.558 77.6236 38.0804C79.031 38.3997 80.5637 41.486 82 40.7797C82 40.7797 79.4455 44.0401 76.3319 43.6048C75.609 43.4887 73.7678 45.2979 71.4736 45.7913C68.6974 46.3911 66.0466 45.7913 66.6057 47.5328L66.5478 47.5134Z" fill="#FBB040"/>
<path d="M40.1357 0.00976562V0.261312V61.5807C39.9911 61.5904 39.8272 61.6 39.673 61.5807C39.673 61.5807 36.2702 64.6476 32.6265 66.3504C31.2288 66.9986 29.8118 67.4437 28.5201 67.4437H28.3851C26.1584 67.3856 24.8667 71.0427 21.9459 72.2134C20.982 72.6004 19.8445 72.7165 18.4372 72.3488C12.9137 70.8782 6.21429 73.7614 5.87691 73.9065C6.81194 70.6654 11.0244 71.6329 12.7306 69.0594C14.4368 66.4762 17.9456 67.2792 17.8299 65.6732C17.772 64.7444 15.526 65.47 13.0583 64.5509C10.7545 63.6801 8.2193 61.2324 7.96868 61.0776C8.28678 61.155 11.7088 61.9483 11.892 60.1875C12.0847 58.4847 15.2176 58.0687 17.6853 57.3818C19.3047 56.9367 20.6253 56.3659 20.6253 55.2436C20.6253 52.3896 7.50599 56.7819 6.51312 52.9797C5.92511 50.7255 2.05003 47.0006 1.80904 46.7685C1.80904 46.7588 1.79941 46.7588 1.79941 46.7588C1.79941 46.7588 4.61414 46.9619 8.46994 48.1713C12.3354 49.3807 12.8945 47.7746 12.8945 47.7746C13.4536 46.0332 11.6028 46.3911 8.83623 45.7913C6.54203 45.2979 7.74697 43.508 3.97793 43.6048C-1.69973 43.7499 0.382401 36.068 0.382401 36.068C4.15144 37.9353 6.61915 40.2282 7.34212 37.229C9.07723 30.0793 1.63553 25.3676 1.23067 25.1161C1.22103 25.1161 1.22104 25.1064 1.2114 25.1064C1.2114 25.1064 2.66696 25.1064 4.44063 25.6385C6.21429 26.1803 7.49635 24.0228 5.02864 21.875C2.56093 19.7272 2.9947 17.173 2.9947 17.173C2.9947 17.173 5.86727 21.5364 10.6195 19.9981C11.5546 19.6981 11.6606 17.618 12.1908 15.6927C12.5667 14.2899 13.5403 13.0322 13.5403 13.0322C15.8345 15.6153 13.0198 16.5732 15.4586 19.4659C16.0177 20.1238 16.5286 20.714 17.0009 21.2461C19.1891 23.7035 20.6446 25.1451 21.7821 28.0863C23.1894 31.6853 26.5343 32.2948 27.855 30.9307C30.0817 28.6377 24.9342 27.3413 24.5486 21.9524C24.539 21.9234 24.539 21.875 24.539 21.8266C24.404 19.7368 26.5343 17.173 24.4811 14.9575C21.3001 11.5422 25.2716 8.51398 25.2716 8.51398V8.53333C25.2716 8.76553 25.3294 11.1456 27.6814 11.8325C31.971 13.0612 30.7468 16.9021 31.8939 16.1765C33.0506 15.4509 31.142 13.6126 34.458 9.77172C34.6508 9.55887 33.8025 8.50431 33.9278 6.95633C34.0821 5.1568 35.1713 2.83483 35.1713 2.83483C35.1713 2.83483 37.1281 6.95633 37.2727 5.68892C37.6969 2.11889 40.1357 0.0291154 40.1357 0.0291154V0.00976562Z" fill="#F7941D"/>
<path d="M49.7849 46.7297C48.1269 47.939 45.3603 50.0385 43.0179 51.8283C46.9701 52.5056 51.038 51.8864 54.9324 52.8732C56.7253 53.3763 58.4797 54.1696 59.9256 55.35C62.2198 55.2049 64.6779 55.6402 66.519 57.0915C64.7261 55.7853 62.403 55.4274 60.2244 55.6112C60.8028 56.124 61.333 56.6948 61.7668 57.3527C64.2538 61.4742 67.7047 62.5384 72.1967 61.0969C67.6468 62.7029 64.1381 61.658 61.5643 57.5075C59.9738 55.2145 57.4579 53.9471 54.8263 53.2409C54.6143 53.1925 54.4022 53.1635 54.1901 53.1151C54.7299 57.0431 57.5061 60.4196 61.1113 62.0063C57.4097 60.4777 54.4986 57.0721 53.8913 53.0667C50.209 52.4185 46.3821 52.9216 42.6998 52.0799C41.7648 52.7958 40.9165 53.4537 40.2611 53.9665H40.2418C40.2418 56.0369 40.2514 58.0396 40.2611 59.9649C44.4928 60.4099 48.8691 61.1646 52.59 63.3124C54.7781 64.6475 56.3204 66.7663 58.1905 68.4498C60.1762 66.6889 63.0103 66.5245 65.5165 66.6309C63.0777 66.6019 60.2534 66.8728 58.4026 68.6239C58.5761 68.7787 58.7689 68.9335 58.9617 69.0883C60.128 70.0364 61.6318 69.8042 63.0199 70.0461C65.825 70.4718 68.7458 71.4974 70.7315 73.6065C68.6012 71.6425 65.7672 70.7137 62.9717 70.2977C61.5643 70.0655 59.9738 70.2783 58.7978 69.3108C58.123 68.7884 57.4965 68.1885 56.8988 67.5887C56.5904 69.4463 57.1494 71.2168 58.74 72.3584C56.9952 71.1974 56.4554 69.3592 56.6675 67.3565C55.3372 65.9827 54.0744 64.5605 52.4165 63.5639C48.7631 61.4935 44.3867 60.7099 40.2514 60.2551V60.7679C40.2514 61.0001 40.3285 61.3484 40.5888 61.5903C40.5406 61.5709 40.3671 61.5903 40.1261 61.5903C39.9815 61.5999 39.8176 61.6096 39.6634 61.5903C39.8562 61.3581 39.9429 61.0195 39.9429 60.7969V60.2551C35.4317 60.7969 30.5155 61.5709 26.7465 64.3186C25.5801 65.199 24.5872 66.2826 23.5654 67.3275C22.9582 68.9335 22.4858 70.5879 21.946 72.2133C22.3605 70.7137 22.8136 69.2334 23.1799 67.7145C22.6593 68.2369 22.1388 68.74 21.5604 69.1947C19.594 70.6653 16.9046 70.0751 14.6296 70.6653C11.8342 71.1974 8.70134 71.6715 6.40714 73.4613C9.90628 70.6073 15.0056 70.3751 19.3144 69.8526C19.6036 69.8236 19.8832 69.7559 20.1434 69.6494C19.8735 69.2818 19.3819 69.0496 18.8999 68.8851C17.2419 68.324 15.4683 68.1498 13.7428 68.0241C15.4972 68.0821 17.2709 68.1789 18.9674 68.682C19.4783 68.8561 20.047 69.0496 20.4133 69.5624C21.4448 69.1077 22.3219 68.2079 23.1317 67.3759C25.2716 65.0636 27.6911 62.7513 30.8143 61.8612C33.7833 60.9227 36.8294 60.1874 39.9526 59.9649C39.9622 58.0299 39.9719 56.0079 39.9719 53.9278L37.5909 52.0702C36.2703 52.3411 34.969 52.7087 33.8411 53.3957C32.6651 54.0826 31.9036 55.2629 31.0071 56.3368C25.8693 62.2288 14.9381 65.0345 7.98802 61.0678C13.7139 64.0477 20.6832 62.7319 26.1777 59.694C23.2184 60.0907 20.2302 58.8523 17.7143 57.3624C20.4519 58.8813 23.7872 60.11 26.9007 59.278C27.1706 59.1329 27.4212 58.9781 27.6622 58.8233C30.1492 57.3914 31.2867 54.6631 33.6387 53.0667C34.7569 52.3798 36.0197 52.0605 37.2921 51.8283C35.5281 50.4835 31.2963 47.3198 29.6287 46.0621C28.5298 45.6848 27.4309 45.3365 26.3223 45.0269C24.4041 48.0261 21.1652 49.7192 17.9649 50.9769C12.6246 53.2602 6.93731 50.29 2.48387 47.2134C6.94695 50.2223 12.6246 53.1248 17.8974 50.8125C20.9917 49.5741 24.2306 47.8132 26.0428 44.9592C22.081 43.8562 17.9842 43.1693 13.897 42.8113C8.91341 42.5985 1.68379 42.018 0.401733 36.0583C1.73198 41.989 8.91341 42.4921 13.9067 42.6662C19.0542 43.0822 24.1727 44.011 29.0985 45.6074C26.0042 42.9371 23.8161 39.4251 21.464 36.1163C17.8203 35.0424 13.7428 33.9298 11.2751 30.8242C8.60494 27.9991 4.78771 26.5382 1.24037 25.0966C4.82626 26.4995 8.65314 27.9023 11.3811 30.7274C13.7621 33.6783 17.6757 34.7618 21.2134 35.739C18.6879 32.1786 16.0659 28.5312 12.4897 25.977C9.11584 23.5874 4.34429 21.3525 3.0044 17.1536C4.41177 21.3138 9.20259 23.4519 12.615 25.7932C13.685 26.5382 14.6586 27.3896 15.5743 28.2893C14.9863 25.5127 14.7549 22.5134 13.3765 20.0173C12.856 17.9566 13.2512 15.7701 13.4922 13.6706C13.3669 14.7832 13.2801 15.8958 13.2415 17.0084C13.2512 18.3339 13.0873 19.7464 13.9934 20.83C14.9188 23.3648 15.3815 26.0061 15.9213 28.6376C17.9938 30.7661 19.7578 33.1945 21.4833 35.5842C24.0378 39.1155 26.3898 42.9661 29.8118 45.7041C32.2313 47.5327 36.6752 50.8608 38.9886 52.7378C39.22 52.9409 39.6634 53.3086 39.9719 53.5795C39.9911 46.8167 40.0008 39.3768 40.0201 31.9174C38.4199 29.7019 36.8005 27.496 35.1521 25.3095C31.6337 25.4062 27.5273 24.9612 24.9824 22.349C27.5562 24.7967 31.4698 25.1353 34.8822 24.9515C33.7544 23.4519 32.5977 21.9716 31.4024 20.5107C29.9371 18.5854 28.1924 17.0181 26.5344 15.2766C24.9342 13.4384 24.5294 10.7585 25.3006 8.49454C24.5969 10.7778 25.127 13.3804 26.6886 15.1412C28.3466 16.8149 30.1685 18.4306 31.6626 20.2979C34.6605 23.8486 37.4078 27.6024 40.0393 31.4337C40.049 25.2514 40.0683 19.0692 40.0972 13.2352H40.0875C36.6559 11.0197 35.3256 6.70469 35.21 2.78637C35.422 6.59827 36.7716 10.7488 40.1068 12.8966C40.1165 8.3204 40.1357 3.95703 40.1743 0C40.2032 3.99572 40.2225 8.39779 40.2418 12.9934H40.2514V13.0127C40.2418 14.8316 40.2418 16.6795 40.2514 18.5564C43.5674 16.4086 44.9266 12.2677 45.129 8.45584C45.0037 12.3645 43.6734 16.6698 40.2514 18.9047C40.2514 23.0165 40.2611 27.2348 40.2611 31.453C42.6998 27.7959 45.3411 24.2839 48.1751 20.9364C49.6403 19.224 51.1826 17.5599 52.7827 15.9829C54.2287 14.2995 54.9613 12.0646 55.5493 9.94578C55.048 12.1033 54.4022 14.3575 52.9563 16.128C51.5296 17.6083 50.1608 19.1272 48.8498 20.6946C51.2308 20.772 53.5828 19.5916 55.0287 17.676C53.6021 19.7948 51.1055 21.1299 48.5414 21.0622C48.5125 21.0912 48.4739 21.1299 48.4546 21.159C45.5821 24.6129 42.8926 28.2313 40.2996 31.9077L40.2803 31.8884C40.2803 39.3671 40.29 46.8264 40.2996 53.6085C40.8683 53.0957 41.8323 52.3314 42.4107 51.8573C43.8951 50.6867 48.0401 47.5617 49.6017 46.3717C52.9274 44.1174 55.1637 40.6829 57.5254 37.4515C57.911 36.9193 58.3062 36.3872 58.7014 35.8454C60.4076 33.5428 62.2295 31.2982 64.3887 29.4213C62.8464 24.6806 65.7671 20.6559 68.9289 17.4245C65.8732 20.6849 63.097 24.5935 64.62 29.2278C64.9285 28.9763 65.237 28.7054 65.5647 28.4635C67.136 27.1864 69.0735 26.4705 70.7218 25.3579C72.3606 24.2065 73.8258 22.8037 75.0982 21.246C73.8643 22.823 72.4377 24.2743 70.8182 25.4643C69.1795 26.6446 67.2806 27.3702 65.7286 28.657C63.2416 30.5726 61.2173 32.9817 59.3376 35.4971C62.6247 33.775 66.0949 32.2077 69.835 31.9755C73.7294 31.1628 76.7465 28.0862 79.1179 25.0483C76.7658 28.1345 73.7776 31.2402 69.8639 32.1109C65.9503 32.3915 62.3548 34.1523 58.9617 36.0099C58.5761 36.542 58.1809 37.0935 57.7953 37.6353C55.9156 40.2281 54.0937 43.0048 51.6935 45.2107C56.1566 43.0532 61.1402 42.018 66.0756 42.2308C71.1556 42.6952 76.6983 43.6047 81.3831 41.1182C76.708 43.653 71.1556 42.8113 66.0756 42.3663C61.9596 42.2308 57.7856 42.9661 53.9588 44.4948C55.1541 47.6875 58.7882 49.2161 61.9113 49.9224C67.2805 51.1801 72.6401 48.8001 77.7008 47.0199C72.6498 48.8775 67.2805 51.3156 61.8631 50.1062C58.6436 49.3999 54.9806 47.9003 53.6985 44.6012C52.7346 44.9979 51.7802 45.4429 50.8548 45.9363C50.5175 46.2072 50.1897 46.4684 49.8427 46.72L49.7849 46.7297Z" fill="#C27400"/>
<path opacity="0.29" d="M54.9902 17.7052C54.9902 17.7052 54.9902 17.7149 54.9805 17.7149C54.7106 18.7598 54.3154 19.7757 53.7756 20.6754C51.6164 22.0299 48.8306 23.2393 46.8159 23.1715C46.6617 23.1619 46.5171 23.1619 46.3725 23.1232H46.3243C43.1047 22.6297 45.8038 15.6445 44.4446 12.771C44.4253 12.713 44.3964 12.6743 44.3675 12.6259C44.2229 12.3453 44.0205 12.1131 43.7698 11.939C41.0804 10.0427 40.1839 0.803218 40.1261 0.2711V0.25175C40.1261 0.25175 40.1454 0.164676 40.1743 0.125977C40.4249 0.841918 41.948 4.81829 45.0133 8.36897C48.3293 12.2099 45.7652 15.2478 48.3679 16.1669C50.9609 17.0764 50.4693 12.9452 52.8984 12.1325C54.0455 11.7455 55.3372 10.1878 55.5011 9.99435C55.5011 9.99435 55.5043 9.9879 55.5107 9.975C55.5107 9.975 55.9734 13.9804 54.9902 17.7149V17.7052Z" fill="#FFD89C"/>
<path opacity="0.29" d="M66.5478 47.5132C66.5478 47.5132 67.9262 49.3708 71.782 48.1615C75.6282 46.9521 78.4526 46.7489 78.4526 46.7489H78.4429C78.1923 46.9134 74.1534 49.574 72.8617 51.5186C71.5314 53.531 69.6999 56.3657 66.5189 57.101C66.5189 57.101 66.5478 57.1204 66.6056 57.1688C64.7934 57.459 63.1451 57.4203 61.6124 57.1494C61.4871 57.1301 61.3714 57.101 61.2461 57.0817C58.6145 56.5399 56.3396 55.2628 54.2767 53.6084C54.161 53.5213 54.0646 53.4343 53.9586 53.3375C53.8237 53.2408 53.708 53.1247 53.573 53.0182C53.3995 52.8634 53.2067 52.699 53.0332 52.5442C51.6066 51.2284 50.2571 49.7385 48.975 48.2098C48.8208 48.0163 48.6762 47.8422 48.5509 47.6777C48.4641 47.5616 48.387 47.4552 48.3099 47.3584C44.0492 41.4471 51.9343 41.0311 56.6288 37.3159C60.0122 34.636 58.7687 31.5497 57.6795 29.8953C58.0361 29.4019 58.3157 28.8117 58.4795 28.0958C60.5231 19.4754 68.8806 17.4824 68.8806 17.4824C68.8806 17.4824 67.6178 23.7808 68.9577 23.7421C71.2615 23.6647 74.2401 21.1298 75.0498 21.304C75.2426 21.333 75.3197 21.5168 75.2523 21.8845C74.7125 25.1159 74.0666 26.1898 75.8403 25.648C77.6139 25.1159 79.0695 25.1159 79.0695 25.1159C79.0695 25.1159 78.1152 28.9471 76.544 30.6403C74.5679 32.7591 71.9459 33.1557 72.9388 37.2482C73.3822 39.1058 75.3101 37.5868 77.5947 38.1093C79.002 38.4285 80.5347 41.5148 81.971 40.8086C81.971 40.8086 79.4165 44.069 76.303 43.6336C75.58 43.5175 73.7389 45.3267 71.4447 45.8201C68.6685 46.42 66.0176 45.8201 66.5767 47.5616L66.5478 47.5132Z" fill="#FFD89C"/>
<g style="mix-blend-mode:color-burn">
<path d="M39.6633 61.5808C39.6633 61.5808 36.2606 64.6477 32.6169 66.3505C31.2191 66.9987 29.8021 67.4437 28.5104 67.4437H28.3755C26.1488 67.3857 24.8571 71.0428 21.9363 72.2135C20.9724 72.6004 19.8349 72.7165 18.4275 72.3489C12.9041 70.8783 6.20465 73.7614 5.86726 73.9066C6.80229 70.6655 11.0148 71.633 12.7209 69.0594C14.4271 66.4762 17.9359 67.2793 17.8202 65.6732C17.7624 64.7444 15.5164 65.4701 13.0487 64.5509C10.7449 63.6802 8.20967 61.2325 7.95904 61.0777C8.27714 61.1551 11.6992 61.9484 11.8823 60.1876C12.0751 58.4848 15.2079 58.0688 17.6756 57.3819C19.2951 56.9368 20.6157 56.366 20.6157 55.2437C20.6157 52.3896 7.49634 56.782 6.50347 52.9798C5.91546 50.7256 2.04039 47.0007 1.7994 46.7685C1.7994 46.7589 1.78976 46.7589 1.78976 46.7589C1.78976 46.7589 4.60449 46.962 8.46029 48.1714C12.3257 49.3807 12.8848 47.7747 12.8848 47.7747C13.4439 46.0332 11.5931 46.3912 8.8266 45.7914C6.5324 45.2979 7.73733 43.5081 3.96829 43.6048C-1.70937 43.75 0.372754 36.0681 0.372754 36.0681C4.1418 37.9354 6.60951 40.2283 7.33247 37.2291C9.06758 30.0794 1.62589 25.3677 1.22103 25.1161C1.21139 25.1161 1.21139 25.1065 1.20175 25.1065C1.20175 25.1065 2.65731 25.1065 4.43098 25.6386C6.20465 26.1804 7.4867 24.0229 5.01899 21.8751C2.55128 19.7272 2.98506 17.1731 2.98506 17.1731C2.98506 17.1731 5.85763 21.5364 10.6099 19.9981C11.5449 19.6982 11.651 17.6181 12.1811 15.6928C12.5571 14.29 13.5307 13.0322 13.5307 13.0322C15.8249 15.6154 13.0101 16.5732 15.4489 19.466C16.008 20.1239 16.5189 20.7141 16.9912 21.2462C16.3261 21.8944 15.5357 22.7458 14.8513 23.7713C14.8031 23.8294 14.7645 23.8874 14.726 23.9455C14.2247 24.7001 13.7717 25.5418 13.4343 26.4416C13.4054 26.5093 13.3764 26.5867 13.3475 26.6641C12.8173 28.2315 12.6631 29.9826 13.2511 31.8015C13.3475 32.1014 13.4246 32.4013 13.4921 32.7013C13.521 32.7787 13.5499 32.8657 13.5596 32.9431C14.3115 36.2616 13.7331 39.5511 14.0994 42.6857C14.109 42.7438 14.109 42.7825 14.1187 42.8309C14.3693 50.087 20.2205 48.6648 22.881 53.2313C24.645 56.2402 19.7674 60.9809 26.6018 65.0347C30.0624 67.1051 38.2945 60.9616 39.6344 61.5808H39.6633Z" fill="#D9D9D9"/>
</g>
</svg>
