<svg width="71" height="82" viewBox="0 0 71 82" fill="none" xmlns="http://www.w3.org/2000/svg">
<path d="M27.909 36.2449C27.909 36.2449 27.8901 36.2449 27.8616 36.2637C27.6153 36.339 26.4971 36.6684 25.1232 36.6684C24.0714 36.6684 22.8585 36.4802 21.7498 35.8496L21.5603 36.1884C22.7448 36.8567 24.024 37.0543 25.1232 37.0543C26.7719 37.0543 28.0322 36.612 28.0417 36.612L27.909 36.2449Z" fill="black" stroke="black" stroke-width="0.25" stroke-miterlimit="10"/>
<path d="M32.4289 46.0605C32.3531 46.1076 30.5906 47.1053 26.5729 47.1053C26.4498 47.1053 26.3171 47.1053 26.1844 47.1053V47.4911C26.3171 47.4911 26.4403 47.4911 26.5729 47.4911C30.7896 47.4911 32.6089 46.3994 32.6374 46.39L32.4384 46.0605H32.4289Z" fill="black" stroke="black" stroke-width="0.25" stroke-miterlimit="10"/>
<path d="M38.3796 56.4512H38.3607C38.1617 56.5829 36.3139 57.6465 32.3152 58.8229L32.4289 59.19C36.7309 57.9288 38.5786 56.79 38.5976 56.7806L38.3891 56.4512H38.3796Z" fill="black" stroke="black" stroke-width="0.25" stroke-miterlimit="10"/>
<path d="M47.9217 67.8857C47.9217 67.8857 47.8743 67.914 47.789 67.9704C47.1636 68.3563 44.3967 70.0034 40.3506 71.2175L40.4643 71.5846C45.1358 70.1822 48.1301 68.2152 48.1396 68.2057L47.9217 67.8857Z" fill="black" stroke="black" stroke-width="0.25" stroke-miterlimit="10"/>
<path d="M27.9659 36.6118C27.9659 36.6118 28.7808 36.1412 29.6715 35.2565C30.5527 34.3812 31.5287 33.0823 31.8414 31.4259L31.4624 31.3506C31.1686 32.9035 30.2495 34.1271 29.3967 34.9741C28.9703 35.3976 28.5628 35.7176 28.2596 35.9341C28.108 36.0471 27.9848 36.1223 27.8995 36.1788C27.8616 36.207 27.8237 36.2259 27.8048 36.2447L27.7763 36.2635L27.9753 36.6023L27.9659 36.6118Z" fill="black" stroke="black" stroke-width="0.25" stroke-miterlimit="10"/>
<path d="M32.6184 46.3993C32.6184 46.3993 34.5325 45.4487 37.3278 41.9664L37.0246 41.7217C35.6412 43.444 34.4946 44.5358 33.6892 45.1852C33.2912 45.5146 32.969 45.7311 32.7606 45.8629C32.6563 45.9287 32.571 45.9758 32.5237 46.004L32.4668 46.0323H32.4479L32.6184 46.3899V46.3993Z" fill="black" stroke="black" stroke-width="0.25" stroke-miterlimit="10"/>
<path d="M38.5502 56.7238C38.5502 56.7238 40.4074 56.0085 43.5628 52.8462L43.288 52.5732C41.7246 54.145 40.5022 55.0862 39.6683 55.6509C39.2514 55.9332 38.9387 56.1121 38.7208 56.2156C38.6165 56.2721 38.5312 56.3097 38.4839 56.3285L38.427 56.3568H38.4175L38.5597 56.7144L38.5502 56.7238Z" fill="black" stroke="black" stroke-width="0.25" stroke-miterlimit="10"/>
<path d="M48.1964 68.1594L48.0922 68.0936L48.1964 68.1688L48.2249 68.1406C48.3575 67.9806 49.0872 67.1806 52.2236 64.5359L51.9678 64.2441C50.12 65.8065 49.1061 66.7288 48.547 67.2559C47.988 67.7924 47.8932 67.9336 47.8743 67.9524L48.2059 68.1594H48.1964Z" fill="black" stroke="black" stroke-width="0.25" stroke-miterlimit="10"/>
<path d="M63.1775 77.223C63.1775 77.223 63.1585 77.2701 63.1585 77.2983C63.0543 77.5901 62.9596 77.8254 62.6753 77.7218C59.9652 76.7807 57.3784 75.5195 54.9526 74.023C42.8995 66.3054 35.2148 53.5713 29.5293 40.8089C27.5205 36.1972 25.7486 31.4819 24.3272 26.6631C24.1566 26.089 23.9955 25.5148 23.8345 24.9313C23.806 24.8278 23.8724 24.7242 23.9671 24.696C24.0714 24.6678 24.1851 24.7337 24.2135 24.8372C29.4441 42.2583 39.5546 63.2466 55.4927 73.1666C57.8711 74.6066 60.4011 75.7924 63.0354 76.6865C63.3007 76.7713 63.2817 76.9689 63.1964 77.223H63.1775Z" fill="black"/>
<path d="M63.1775 77.223C60.4959 76.3571 57.9374 75.1901 55.5117 73.7877C43.2596 66.3995 36.0297 53.5807 29.9937 40.9878C27.8427 36.3854 25.8907 31.5195 24.3177 26.6631C24.1472 26.089 23.9861 25.5148 23.825 24.9313C23.7966 24.8278 23.8629 24.7242 23.9576 24.696C24.0619 24.6678 24.1756 24.7337 24.204 24.8372C29.4346 42.2583 39.5451 63.2466 55.4832 73.1666C57.8616 74.6066 60.3916 75.7924 63.0259 76.6865C63.2912 76.7713 63.2722 76.9689 63.187 77.223H63.1775Z" fill="black"/>
<path d="M69.981 51.643C70.0189 52.4336 69.8958 53.3183 69.6115 54.2406C68.9956 56.2454 67.6595 58.4477 65.717 60.4618C65.3853 60.8101 65.0347 61.1395 64.6747 61.4783C63.765 62.3065 62.8269 63.0218 61.8699 63.6242C57.8616 66.1653 53.7492 66.6924 51.8541 64.6312L58.9798 58.1748L68.9956 49.083C69.6115 49.7607 69.9337 50.6359 69.9905 51.6524L69.981 51.643Z" fill="white" stroke="black" stroke-width="0.3" stroke-miterlimit="10"/>
<path d="M68.9861 49.0737L58.9703 58.1655L51.8446 64.6219C49.9495 62.5514 50.8496 58.5325 53.7587 54.7961C54.4504 53.9114 55.2558 53.0455 56.1655 52.2173C59.0272 49.6196 62.2489 48.0855 64.8737 47.8408C65.4517 47.7843 66.0013 47.7937 66.5035 47.8596C67.5174 48.0008 68.3702 48.3961 68.9861 49.0737Z" fill="white" stroke="black" stroke-width="0.3" stroke-miterlimit="10"/>
<path d="M53.645 63.0976C54.7157 62.1847 55.7865 61.2717 56.8478 60.34C57.8048 60.8482 58.8092 61.2812 59.8989 61.4976C61.8035 61.7894 63.8787 61.3847 65.6886 60.4717C64.2293 61.1776 62.6279 61.5165 61.0834 61.4882C59.6147 61.4694 58.2975 60.82 57.1036 60.1235C58.0512 59.2953 58.9893 58.4576 59.9273 57.62C62.808 58.6835 65.0442 58.9188 68.1522 57.347C65.0063 58.8153 62.9596 58.5706 60.1832 57.3941C61.2634 56.4153 62.3342 55.4365 63.4049 54.4388C65.537 55.267 67.3279 55.5494 69.621 54.2318C67.3468 55.4459 65.6128 55.1353 63.5755 54.2882C64.4567 53.46 65.338 52.6318 66.2097 51.7941C67.4037 52.2176 68.7587 52.3118 70 51.6341C68.7776 52.2176 67.4984 52.0859 66.3708 51.6341C67.2521 50.7776 68.1428 49.9306 69.0051 49.0647C68.0575 49.8459 67.1194 50.6365 66.1908 51.4365C65.8402 50.2788 65.8212 49.0082 66.5224 47.8506C65.7359 49.0176 65.7075 50.3635 66.0202 51.5871C65.1011 52.3682 64.1914 53.1588 63.2817 53.9588C62.609 51.86 62.4574 50.1188 63.8882 47.9823C62.3626 50.1282 62.4858 51.9259 63.1112 54.1094C62.0215 55.0694 60.9318 56.0388 59.861 57.027C58.9608 54.1941 58.8945 52.0953 60.6285 49.1494C58.7524 52.1141 58.7713 54.2882 59.6052 57.2623C58.6766 58.1094 57.7574 58.9659 56.8383 59.8223C56.2603 58.5706 55.758 57.2153 55.8623 55.7565C55.9665 54.2318 56.4308 52.6694 57.2647 51.2953C56.3834 52.66 55.8528 54.2129 55.6917 55.7659C55.5306 57.2906 56.0234 58.7212 56.5919 60.0482C55.5685 61.0176 54.5452 61.987 53.5407 62.9659C52.3752 61.2529 52.4226 58.9941 53.0385 56.9141C53.2375 56.1988 53.4744 55.4835 53.7776 54.7965C52.4889 57.5165 51.674 60.7823 53.228 63.2765C52.7732 63.7188 52.3089 64.1706 51.8541 64.6129C52.3468 64.2082 52.8301 63.7941 53.3228 63.38C55.7201 65.0553 59.0366 64.6035 61.8793 63.6059C59.1124 64.5 55.8149 64.9517 53.6544 63.0976H53.645Z" fill="black"/>
<path d="M55.9002 49.7041C51.2097 54.0523 45.4864 55.5205 43.1175 52.9982L60.0884 37.2617C62.4668 39.7935 60.5906 45.3652 55.9097 49.7041H55.9002Z" fill="white" stroke="black" stroke-width="0.3" stroke-miterlimit="10"/>
<path d="M60.079 37.2518L43.108 52.9882C40.7296 50.4565 42.6058 44.8847 47.2868 40.5459C51.9678 36.2071 57.7006 34.7294 60.0695 37.2518H60.079Z" fill="white" stroke="black" stroke-width="0.3" stroke-miterlimit="10"/>
<path d="M44.8894 51.4543C45.9507 50.5319 47.012 49.6002 48.0638 48.659C49.0208 49.1578 50.0347 49.5813 51.1244 49.779C53.029 50.0519 55.1042 49.619 56.9046 48.6872C55.4548 49.4119 53.8534 49.7602 52.3089 49.7507C50.8402 49.7507 49.5136 49.1202 48.3102 48.4331C49.2483 47.5954 50.1769 46.7484 51.1055 45.8919C53.9956 46.9272 56.2318 47.1343 59.3209 45.5343C56.1939 47.0402 54.1472 46.8237 51.3519 45.666C52.4226 44.6778 53.4839 43.6802 54.5357 42.6731C56.6772 43.4731 58.4681 43.7366 60.7423 42.4002C58.487 43.6425 56.7435 43.3507 54.6968 42.5225C55.5685 41.6849 56.4403 40.8472 57.3026 40.0002C58.4965 40.4143 59.861 40.4896 61.0929 39.8025C59.8705 40.4049 58.6008 40.2825 57.4637 39.8402C58.3354 38.9743 59.2072 38.1178 60.0695 37.2425C59.1314 38.0331 58.2028 38.8425 57.2836 39.6519C56.9141 38.5037 56.8857 37.2237 57.5774 36.0566C56.8098 37.2331 56.7909 38.579 57.1225 39.7931C56.2129 40.5837 55.3127 41.3931 54.4125 42.2025C53.7113 40.1131 53.5407 38.3719 54.9526 36.2166C53.4555 38.3813 53.5976 40.179 54.2514 42.3531C53.1712 43.3319 52.1004 44.3107 51.0297 45.3084C50.0916 42.4849 50.0063 40.386 51.7025 37.4213C49.8547 40.4049 49.9021 42.579 50.7738 45.5437C49.8547 46.4002 48.945 47.266 48.0354 48.1413C47.4384 46.899 46.9267 45.5437 47.012 44.0943C47.0973 42.5602 47.5521 40.9978 48.367 39.6143C47.4952 40.9884 46.9836 42.5508 46.8414 44.1037C46.6993 45.6284 47.2015 47.059 47.789 48.3766C46.7751 49.3554 45.7707 50.3343 44.7663 51.3319C43.5818 49.6284 43.6102 47.3696 44.1977 45.2802C44.3872 44.5649 44.6146 43.8496 44.9084 43.1531C43.6576 45.8825 42.8806 49.1578 44.4536 51.6425C43.9987 52.0943 43.5439 52.546 43.0985 52.9978C43.5818 52.5837 44.0651 52.1696 44.5483 51.746C46.9646 53.3931 50.2716 52.9131 53.1049 51.8778C50.3474 52.8001 47.0594 53.2896 44.88 51.4637L44.8894 51.4543Z" fill="black"/>
<path d="M49.4188 34.8338C49.1819 35.2385 48.9356 35.6432 48.6702 36.0385C47.988 37.0549 47.2394 37.9679 46.4624 38.7867C46.0455 39.2291 45.6191 39.6244 45.1832 40.0008C42.2173 42.542 39.0145 43.4926 36.9772 42.1373L42.5584 33.855L49.8926 22.9844C50.6507 23.4926 51.1718 24.2738 51.4656 25.2432C52.2047 27.6714 51.475 31.3138 49.4188 34.8432V34.8338Z" fill="white" stroke="black" stroke-width="0.3" stroke-miterlimit="10"/>
<path d="M49.8926 22.9746L42.5584 33.8452L36.9772 42.1275C34.6368 40.5746 34.5515 36.4617 36.475 32.1511C36.9299 31.1158 37.5079 30.0805 38.1901 29.064C38.4555 28.6687 38.7397 28.2829 39.024 27.9158C39.8768 26.8052 40.8054 25.8358 41.7625 25.0358C42.71 24.2264 43.6955 23.5864 44.6526 23.1346C45.5243 22.7205 46.3771 22.457 47.1826 22.3817C48.0164 22.297 48.7934 22.4005 49.4567 22.7299C49.6083 22.7958 49.7505 22.8805 49.8831 22.9746H49.8926Z" fill="white" stroke="black" stroke-width="0.3" stroke-miterlimit="10"/>
<path d="M38.3512 40.2363C39.1756 39.0975 39.9905 37.9492 40.8054 36.801C41.8572 37.0739 42.9375 37.2528 44.0461 37.2057C45.9602 37.0363 47.8838 36.1516 49.4188 34.8434C48.1775 35.8786 46.6993 36.5751 45.1832 36.9139C43.7429 37.2434 42.3215 36.9234 40.9855 36.5375C41.7056 35.5116 42.4163 34.4763 43.127 33.4316C46.1781 33.7798 48.4049 33.4786 51.0486 31.2198C48.3481 33.3939 46.3013 33.6387 43.3165 33.1492C44.1314 31.9445 44.9368 30.7304 45.7328 29.5163C47.9975 29.8175 49.8073 29.6669 51.7119 27.841C49.7978 29.5634 48.0354 29.6669 45.8465 29.3281C46.5098 28.321 47.1541 27.3045 47.7985 26.2881C49.0587 26.4198 50.3948 26.1845 51.4466 25.2434C50.3948 26.0998 49.1251 26.2787 47.9217 26.0998C48.5755 25.0645 49.2293 24.0198 49.8642 22.9845C49.1345 23.9728 48.4144 24.961 47.7037 25.9587C47.0878 24.9234 46.7562 23.6904 47.1636 22.3916C46.6803 23.7092 46.9741 25.0269 47.5711 26.1375C46.8699 27.1163 46.1781 28.1045 45.4864 29.0928C44.3304 27.2198 43.7618 25.5634 44.6336 23.1445C43.6671 25.5916 44.2167 27.314 45.3537 29.281C44.5199 30.4763 43.705 31.6716 42.8901 32.8857C41.3361 30.3445 40.7675 28.321 41.7435 25.0551C40.6254 28.3775 41.175 30.4857 42.7006 33.1775C41.9994 34.2222 41.3076 35.2669 40.6254 36.321C39.7631 35.2481 38.9482 34.0434 38.7018 32.6034C38.4365 31.0975 38.5218 29.4692 38.9956 27.9351C38.4649 29.4692 38.3228 31.1069 38.5407 32.6504C38.7492 34.1751 39.5736 35.4457 40.4453 36.6034C39.6778 37.7798 38.9292 38.9657 38.1807 40.161C36.6456 38.7681 36.1434 36.5657 36.2381 34.401C36.2571 33.6575 36.314 32.9139 36.4466 32.1704C35.8496 35.1163 35.8402 38.4763 37.9532 40.5375C37.6121 41.0739 37.2805 41.6198 36.9393 42.1657C37.3184 41.6575 37.6879 41.1398 38.067 40.6222C40.7959 41.6857 43.904 40.4622 46.434 38.8245C43.9608 40.3492 40.8623 41.5728 38.3323 40.2739L38.3512 40.2363Z" fill="black"/>
<path d="M41.0234 20.7255C40.9949 20.9043 40.957 21.0926 40.9191 21.2808C40.8339 21.742 40.7201 22.2032 40.5875 22.6643C40.2653 23.8408 39.8579 24.9514 39.3746 25.9679C37.3658 30.2408 34.1724 32.8667 31.4624 32.1326L34.3051 21.7702L37.5647 9.89258C38.446 10.1373 39.1946 10.702 39.7915 11.5396C41.1939 13.5161 41.6961 16.9514 41.0328 20.7349L41.0234 20.7255Z" fill="white" stroke="black" stroke-width="0.3" stroke-miterlimit="10"/>
<path d="M37.5553 9.8926L34.2956 21.7702L31.4529 32.1326C28.7334 31.3985 27.331 27.5208 27.7764 22.8244C27.8806 21.7044 28.0891 20.5467 28.4112 19.3702C28.5439 18.9091 28.6766 18.4479 28.8376 18.0149C29.2925 16.6879 29.8705 15.4832 30.5148 14.4197C31.1592 13.3561 31.8793 12.4338 32.6374 11.6997C33.3291 11.0314 34.0587 10.5138 34.7884 10.1844C34.8736 10.1467 34.9589 10.1091 35.0442 10.0714C35.8875 9.74202 36.7404 9.66672 37.5458 9.88319L37.5553 9.8926Z" fill="white" stroke="black" stroke-width="0.3" stroke-miterlimit="10"/>
<path d="M32.1636 29.9016C32.5805 28.5651 32.988 27.2193 33.386 25.864C34.4662 25.7887 35.5464 25.6193 36.5887 25.2146C38.3512 24.4522 39.8863 23.0028 40.9286 21.271C40.0853 22.6452 38.9008 23.7746 37.5837 24.5746C36.3234 25.3369 34.8736 25.4969 33.4902 25.544C33.8408 24.3393 34.1914 23.1346 34.523 21.9299C37.5268 21.2993 39.5452 20.3016 41.3266 17.3275C39.4694 20.2357 37.6026 21.1204 34.6178 21.6004C35.0063 20.1981 35.3759 18.7957 35.7454 17.3934C37.9911 16.9605 39.6494 16.2452 40.8812 13.911C39.621 16.1416 37.9817 16.8099 35.8023 17.1769C36.1055 16.0099 36.3992 14.8428 36.6835 13.6757C37.9248 13.4028 39.1187 12.7534 39.801 11.5299C39.0808 12.6781 37.9343 13.2428 36.7404 13.4593C37.0246 12.264 37.3089 11.0781 37.5837 9.88281C37.2047 11.0499 36.8446 12.2169 36.4845 13.384C35.5654 12.5934 34.8642 11.5299 34.8263 10.1746C34.7884 11.5769 35.4896 12.7346 36.4182 13.6005C36.0676 14.7487 35.7265 15.9063 35.3853 17.064C33.6892 15.6522 32.6184 14.2593 32.6753 11.6899C32.5426 14.3063 33.6229 15.7652 35.3285 17.271C34.921 18.664 34.5325 20.0663 34.1535 21.4593C31.8604 19.5393 30.6759 17.8075 30.5527 14.4005C30.5527 17.9016 31.7561 19.7275 34.0682 21.7887C33.7366 23.0028 33.4239 24.2075 33.1112 25.4216C31.9457 24.6781 30.7896 23.7934 30.0979 22.5134C29.3588 21.1675 28.9134 19.6052 28.8755 17.9957C28.8661 19.6146 29.2546 21.2146 29.9558 22.6075C30.638 23.9816 31.832 24.9322 33.0259 25.751C32.6753 27.1157 32.3436 28.471 32.0215 29.8357C30.1169 29.0075 28.9419 27.0781 28.3354 24.9887C28.1175 24.2828 27.9374 23.5487 27.8143 22.8052C28.1933 25.7887 29.264 28.9793 31.9267 30.2593C31.7846 30.8804 31.633 31.5016 31.4908 32.1134C31.6803 31.511 31.8699 30.8993 32.0688 30.2875C34.9968 30.4287 37.5553 28.2828 39.422 25.9299C37.5647 28.151 35.0253 30.2969 32.2015 29.8734L32.1636 29.9016Z" fill="black"/>
<path d="M24.1093 25.2238C21.4561 26.1461 17.969 23.4073 15.4959 18.8238C14.9084 17.732 14.3777 16.5462 13.9324 15.2662C13.7523 14.7673 13.6007 14.2685 13.4586 13.7697C13.0322 12.2826 12.7763 10.8332 12.6532 9.47793C12.4352 6.87087 12.7574 4.60264 13.5913 3.06852C13.7902 2.70146 14.0177 2.38146 14.2735 2.10852C14.6715 1.67558 15.1358 1.36499 15.6664 1.17676L20.0537 13.6567L24.1093 25.2238Z" fill="white" stroke="black" stroke-width="0.3" stroke-miterlimit="10"/>
<path d="M24.1093 25.2235L20.0537 13.6565L15.6664 1.17651C16.5382 0.875332 17.4952 0.969449 18.4712 1.38357C20.7549 2.35298 23.1712 5.10121 24.8957 8.81885C25.0284 9.10121 25.1516 9.38356 25.2748 9.67532C25.4738 10.1459 25.6633 10.6353 25.8433 11.1341C26.2887 12.4047 26.6203 13.6659 26.8477 14.88C27.7858 20 26.7719 24.3012 24.1093 25.2141V25.2235Z" fill="white" stroke="black" stroke-width="0.3" stroke-miterlimit="10"/>
<path d="M23.1712 22.8141C22.6121 21.3647 22.0625 19.9153 21.5224 18.4565C20.4232 18.4188 19.324 18.2776 18.2343 17.8918C16.3771 17.1294 14.681 15.6141 13.4586 13.7694C14.4535 15.2282 15.7517 16.4235 17.1731 17.2424C18.5186 18.0235 19.9968 18.1271 21.3992 18.1271C20.916 16.8282 20.4517 15.52 19.9873 14.2212C16.8983 13.6565 14.7662 12.6588 12.6626 9.48707C14.8421 12.5835 16.8035 13.4777 19.8547 13.8729C19.324 12.3577 18.7934 10.8424 18.2817 9.32707C15.9791 8.9506 14.2261 8.24472 12.7479 5.7506C14.2546 8.14119 15.9602 8.7906 18.1964 9.09178C17.77 7.8306 17.3531 6.56942 16.9457 5.29884C15.6759 5.05413 14.4062 4.39531 13.5818 3.08708C14.4251 4.3106 15.638 4.88472 16.8698 5.06354C16.4529 3.77413 16.0455 2.48472 15.6475 1.19531C16.1497 2.44708 16.633 3.70825 17.1162 4.97884C17.9596 4.07531 18.5565 2.88002 18.4523 1.40237C18.6323 2.93649 18.0448 4.2259 17.2015 5.21413C17.6753 6.45648 18.1396 7.69884 18.5944 8.9506C20.1579 7.33178 21.0865 5.76943 20.7738 2.96472C21.1813 5.8259 20.2432 7.46354 18.6797 9.18589C19.2293 10.6918 19.7694 12.1977 20.3 13.7129C22.4036 11.52 23.4175 9.57178 23.1901 5.83531C23.5407 9.65648 22.5363 11.7082 20.4232 14.0706C20.8781 15.3788 21.3234 16.6871 21.7593 18.0047C22.8585 17.1388 23.9292 16.1224 24.4883 14.6918C25.0947 13.1859 25.379 11.4541 25.2464 9.70354C25.4264 11.4729 25.199 13.2424 24.6399 14.7953C24.0903 16.3294 22.9911 17.4118 21.873 18.3624C22.3657 19.84 22.8395 21.3082 23.3133 22.7859C25.1421 21.7976 26.1276 19.6329 26.5256 17.3271C26.6772 16.5459 26.7814 15.7365 26.8288 14.9177C26.753 18.1929 26.0044 21.7224 23.4649 23.2471C23.6734 23.9153 23.8913 24.5929 24.0998 25.2612C23.8439 24.6118 23.5881 23.9529 23.3323 23.2941C20.4043 23.5765 17.6089 21.3459 15.4864 18.8518C17.59 21.2047 20.3664 23.4353 23.1617 22.8424L23.1712 22.8141Z" fill="black"/>
<path d="M22.3468 36.3582C21.1529 38.8899 17.0783 39.5958 12.4921 38.3535C11.4024 38.0523 10.2842 37.6476 9.16611 37.1299C8.73023 36.9229 8.30383 36.7158 7.89637 36.4805C6.66453 35.8029 5.55588 35.0405 4.61779 34.2217C3.99239 33.6852 3.43333 33.13 2.95954 32.5558C2.95954 32.5558 2.95007 32.5464 2.94059 32.537C2.7037 32.2547 2.48576 31.9629 2.28677 31.6711C1.74665 30.8805 1.35815 30.0711 1.15916 29.3088C0.903319 28.33 0.950697 27.3888 1.3392 26.5605L22.3468 36.3582Z" fill="white" stroke="black" stroke-width="0.3" stroke-miterlimit="10"/>
<path d="M1.3392 26.5705L22.3563 36.3681C23.8345 33.234 20.3285 28.5093 14.5294 25.7987C8.73024 23.0975 2.82689 23.4364 1.3392 26.5705Z" fill="white" stroke="black" stroke-width="0.3" stroke-miterlimit="10"/>
<path d="M22.3468 36.3587C21.7593 36.114 21.1718 35.8599 20.5748 35.6152C19.8263 36.5752 18.8218 37.234 17.6848 37.6575C16.0928 38.2599 14.2451 38.4199 12.4921 38.354C14.084 38.3728 15.7896 38.2222 17.2583 37.6763C18.4618 37.234 19.5041 36.5281 20.1769 35.4458C18.8787 34.8905 17.5805 34.3258 16.2918 33.7611C15.5338 34.5234 14.6999 35.2293 13.7239 35.7658C12.6342 36.2928 11.4024 36.5752 10.1421 36.6316C9.39353 36.6693 8.63548 36.6128 7.89637 36.4905C8.59758 36.6034 9.30825 36.6316 9.99998 36.5846C10.8907 36.5375 11.7719 36.3681 12.6058 36.0952C14.0082 35.6434 15.0695 34.6458 15.9981 33.6199C14.842 33.1116 13.6955 32.5846 12.5489 32.0575C10.2274 33.8363 8.24697 34.7211 5.0821 34.2881C4.93049 34.2693 4.7694 34.2411 4.61779 34.2222C4.7694 34.2411 4.92101 34.2599 5.06315 34.2787C8.21855 34.6269 10.0379 33.7893 12.2457 31.9163C10.9191 31.3046 9.602 30.674 8.29435 30.0434C6.51292 31.4646 4.88311 32.2552 2.29625 31.6811C4.83573 32.1705 6.39922 31.3705 8.09536 29.9493C7.00566 29.4222 5.91596 28.8858 4.83573 28.3493C3.82183 29.1116 2.55209 29.5916 1.16864 29.3187C2.51419 29.5163 3.68917 29.0175 4.62726 28.2458C3.52809 27.6905 2.42891 27.1352 1.3392 26.5705C2.47628 27.0411 3.60389 27.5211 4.7315 28.0105C4.7315 26.8058 4.36195 25.5822 3.34805 24.6787C4.44723 25.5634 4.88311 26.8434 4.93996 28.0952C6.04862 28.5752 7.15727 29.0646 8.26593 29.554C8.28488 27.3516 7.91533 25.6481 5.90648 24.0293C8.00061 25.6293 8.41754 27.3799 8.47439 29.6481C9.80099 30.2505 11.1276 30.8528 12.4447 31.474C12.4637 28.4999 11.8951 26.4764 9.36511 24.1705C12.0372 26.4481 12.6721 28.5281 12.7574 31.6152C13.8945 32.1516 15.0316 32.6975 16.1686 33.2528C16.3487 31.8881 16.4245 30.4481 15.8844 29.0834C15.3348 27.6528 14.4156 26.3069 13.2122 25.234C14.463 26.2787 15.439 27.6058 16.0455 29.0458C16.6614 30.4481 16.614 31.9634 16.4624 33.4034C17.7321 34.0246 18.9924 34.6552 20.2527 35.2858C20.8496 33.3093 20.1295 31.1634 18.9261 29.3564C18.5281 28.7258 18.0827 28.1234 17.59 27.5493C19.6273 29.7611 21.3803 32.6505 20.6412 35.4928C21.2097 35.7846 21.7877 36.0669 22.3468 36.3681V36.3587Z" fill="black"/>
<path d="M26.4498 47.3685C26.4308 47.6038 26.3834 47.8297 26.3171 48.0462C25.578 50.4838 22.1762 52.2062 17.8269 52.5262C16.6993 52.6109 15.5148 52.6015 14.2925 52.4791C13.8092 52.4321 13.3449 52.3662 12.8806 52.2909C10.2937 51.8674 8.02903 51.0015 6.35183 49.8815C6.21917 49.7968 6.09599 49.7121 5.9728 49.618C5.1958 49.0438 4.56093 48.4227 4.11557 47.7638C3.54703 46.9262 3.27223 46.0227 3.35752 45.1191L26.4592 47.3685H26.4498Z" fill="white" stroke="black" stroke-width="0.3" stroke-miterlimit="10"/>
<path d="M3.348 45.1196L26.4497 47.369C26.7908 43.9243 21.8919 40.6302 15.5148 40.009C9.13764 39.3878 3.68912 41.6749 3.348 45.1196Z" fill="white" stroke="black" stroke-width="0.3" stroke-miterlimit="10"/>
<path d="M24.0901 47.228C22.6783 47.1339 21.2759 47.0397 19.864 46.9268C19.4092 47.9056 18.8596 48.8468 18.1205 49.6656C16.7749 51.0303 14.8703 51.9433 12.8709 52.2915C14.4629 51.9903 15.9505 51.3033 17.1729 50.3621C18.3384 49.468 19.0017 48.1691 19.5418 46.8986C18.2816 46.795 17.0308 46.6915 15.7705 46.5691C14.1028 49.1386 12.454 50.6539 9.02381 51.2468C12.4256 50.5503 13.9227 49.1386 15.4294 46.5409C13.9701 46.3997 12.5203 46.2492 11.0706 46.0892C9.86715 48.0186 8.59741 49.308 5.97264 49.6186C8.5216 49.2421 9.72501 47.9621 10.8526 46.0609C9.64921 45.9291 8.44579 45.7786 7.24238 45.628C6.54118 46.6821 5.50833 47.5574 4.11541 47.755C5.45148 47.4915 6.38957 46.635 7.02444 45.5997C5.80208 45.4397 4.57972 45.2797 3.36683 45.1103C4.59867 45.1762 5.82103 45.2515 7.05287 45.3362C6.63594 44.1974 5.88736 43.1715 4.62709 42.6633C5.95369 43.1339 6.79703 44.188 7.28029 45.355C8.4837 45.4397 9.69659 45.5339 10.9 45.628C10.1798 43.548 9.25123 42.0609 6.81598 41.2044C9.32703 42.0139 10.322 43.5292 11.1274 45.6468C12.5867 45.7692 14.0364 45.9009 15.4862 46.0421C14.5008 43.2374 13.2879 41.515 10.123 40.188C13.4111 41.4397 14.7092 43.1997 15.8274 46.0797C17.0781 46.2021 18.3384 46.3433 19.5892 46.4844C19.3049 45.1386 18.8785 43.755 17.9215 42.6539C16.9171 41.4868 15.5999 40.5174 14.1028 39.915C15.6378 40.4797 16.9929 41.4115 18.0541 42.5597C19.1059 43.6797 19.5702 45.1197 19.9208 46.5315C21.3233 46.6915 22.7257 46.8703 24.1281 47.0492C24.0238 44.988 22.6214 43.2092 20.8779 41.9009C20.2904 41.4397 19.665 41.0162 19.0112 40.6397C21.6833 42.0515 24.2986 44.188 24.5639 47.1056C25.1988 47.1903 25.8337 47.275 26.4685 47.3597C25.8337 47.3221 25.1893 47.2844 24.5545 47.2468C23.6448 50.0139 20.7263 51.6233 17.8457 52.5174C20.6031 51.5856 23.5121 49.9856 24.1186 47.2186L24.0901 47.228Z" fill="black"/>
<path d="M32.7227 59.7276C32.7037 62.2594 29.9937 64.8947 25.957 66.4759C24.9052 66.89 23.7681 67.2288 22.5647 67.4735C22.0909 67.5676 21.6172 67.6523 21.1528 67.7182C20.4611 67.8123 19.7884 67.8688 19.1251 67.897C18.4523 67.9253 17.789 67.9159 17.1636 67.8688C15.9128 67.7841 14.7568 67.5582 13.7618 67.2194C12.8427 66.9088 12.0562 66.4947 11.4308 65.9959C10.6348 65.3653 10.1042 64.5841 9.91469 63.69L32.6468 59.0029C32.6942 59.2476 32.7227 59.4829 32.7227 59.7276Z" fill="white" stroke="black" stroke-width="0.3" stroke-miterlimit="10"/>
<path d="M9.91469 63.6805L32.6469 58.9934C31.9362 55.6052 26.2792 53.9111 19.9968 55.2005C13.7239 56.4899 9.20402 60.2923 9.91469 63.6805Z" fill="white" stroke="black" stroke-width="0.3" stroke-miterlimit="10"/>
<path d="M30.3537 59.5575C28.9798 59.8869 27.6058 60.2069 26.2223 60.5175C26.0802 61.5905 25.8433 62.6446 25.379 63.6517C24.4978 65.3552 22.9532 66.7858 21.1528 67.7081C22.5837 66.9552 23.7966 65.854 24.6778 64.5928C25.5211 63.3975 25.7675 61.9575 25.9002 60.5928C24.6683 60.8658 23.4365 61.1387 22.2046 61.3928C21.3897 64.3387 20.2621 66.2681 17.1636 67.8493C20.2053 66.1834 21.2097 64.3952 21.873 61.4587C20.4422 61.7599 19.0113 62.0422 17.571 62.3152C16.993 64.5081 16.1781 66.1175 13.7618 67.1905C16.0834 66.0799 16.8509 64.4987 17.3531 62.3528C16.1592 62.5787 14.9747 62.7952 13.7808 63.0117C13.4302 64.2258 12.7005 65.3646 11.4308 65.9669C12.6247 65.3269 13.2691 64.2164 13.5533 63.0493C12.3405 63.2658 11.1276 63.4728 9.91469 63.6705C11.1086 63.3693 12.3026 63.0775 13.506 62.7952C12.7669 61.8352 11.7435 61.0728 10.3885 60.9599C11.8003 61.0069 12.9185 61.7787 13.7334 62.7481C14.9084 62.4658 16.0928 62.2022 17.2773 61.9387C15.9602 60.1693 14.6336 59.0211 12.0467 58.9175C14.6904 58.9458 16.0928 60.1034 17.4952 61.8822C18.9166 61.5717 20.3474 61.2611 21.7782 60.9693C19.9968 58.5787 18.3196 57.2987 14.8989 56.9693C18.4144 57.1952 20.1769 58.4846 22.1099 60.9034C23.3417 60.6493 24.583 60.414 25.8244 60.1787C25.1421 58.974 24.3272 57.7787 23.0859 57.0164C21.7782 56.207 20.2337 55.6705 18.6228 55.5293C20.2527 55.614 21.8351 56.1034 23.1901 56.8846C24.5262 57.647 25.4074 58.8799 26.156 60.1222C27.5489 59.8587 28.9324 59.614 30.3253 59.3787C29.6052 57.4399 27.7384 56.1505 25.6822 55.4258C24.981 55.1622 24.2609 54.9364 23.5218 54.7764C26.4971 55.3317 29.6336 56.5928 30.7612 59.3034C31.3961 59.1999 32.0215 59.0869 32.6563 58.9834C32.0404 59.1434 31.415 59.2846 30.7896 59.4446C30.7517 62.3528 28.4396 64.7622 25.9665 66.4658C28.3165 64.7622 30.6191 62.3717 30.3632 59.5481L30.3537 59.5575Z" fill="black"/>
<path d="M34.4567 79.1438C33.4333 79.6144 32.3152 80.0191 31.1213 80.3297C30.657 80.452 30.1927 80.5461 29.7283 80.6403C27.2647 81.1108 24.9336 81.1108 23.0196 80.6967C22.7827 80.6497 22.5553 80.5838 22.3278 80.5179C21.3992 80.2544 20.5843 79.8873 19.9305 79.4261C19.0966 78.8332 18.5281 78.0897 18.2912 77.205L40.7391 71.332C41.4592 74.0332 38.7871 77.1767 34.4567 79.1438Z" fill="white" stroke="black" stroke-width="0.3" stroke-miterlimit="10"/>
<path d="M18.2912 77.2053L40.7391 71.3323C39.8484 67.9912 34.1061 66.5888 27.909 68.2171C21.7119 69.8359 17.4005 73.8641 18.2912 77.2147V77.2053Z" fill="white" stroke="black" stroke-width="0.3" stroke-miterlimit="10"/>
<path d="M38.9008 71.8885C38.9482 73.1121 38.5881 74.2697 37.9817 75.3332C37.1478 76.8015 35.8402 78.0909 34.4567 79.145C35.6791 78.1568 36.8825 76.9615 37.6595 75.625C38.3038 74.505 38.6544 73.2909 38.4744 72.0109C37.1289 72.4156 35.7644 72.8015 34.4093 73.1873C34.3241 74.2603 34.144 75.3332 33.7271 76.3591C33.3765 77.1403 32.8932 77.8744 32.3057 78.5332C31.5761 79.3615 30.6949 80.0673 29.7283 80.632C30.6475 80.0862 31.4719 79.3803 32.1541 78.5897C32.5047 78.1944 32.8174 77.7709 33.0827 77.3379C33.8597 76.0956 34.0303 74.6556 34.0966 73.2815C32.8837 73.6203 31.6614 73.9591 30.439 74.2791C29.8894 76.7638 29.0935 78.5615 27.0941 80.105C26.6961 80.4156 26.2508 80.7073 25.7486 80.9991C26.2129 80.7073 26.6298 80.425 27.0088 80.1238C28.9798 78.5615 29.6904 76.8673 30.1168 74.3732C28.705 74.7497 27.2931 75.1073 25.8717 75.4556C25.4169 77.6768 24.6778 79.3332 22.3278 80.5285C24.583 79.2956 25.2653 77.6768 25.6538 75.512C24.4788 75.8038 23.2944 76.0862 22.1194 76.3591C21.8351 77.5826 21.1718 78.7685 19.9305 79.4367C21.096 78.7309 21.674 77.6015 21.892 76.4156C20.6885 76.6885 19.4851 76.9615 18.2912 77.225C19.4662 76.8673 20.6506 76.5097 21.8256 76.1615C21.0391 75.2391 19.9779 74.5332 18.6134 74.4956C20.0252 74.4768 21.1908 75.1732 22.0436 76.105C23.1996 75.7662 24.3651 75.4368 25.5306 75.1073C24.1187 73.4038 22.7353 72.3403 20.1484 72.3685C22.7921 72.2556 24.2514 73.3379 25.7486 75.0509C27.1604 74.6556 28.5628 74.2885 29.9842 73.9121C28.0701 71.625 26.3361 70.4297 22.9059 70.2791C26.4308 70.3168 28.2596 71.5121 30.3158 73.8273C31.5382 73.5168 32.7606 73.2062 33.9829 72.905C33.2438 71.7473 32.3626 70.5897 31.0739 69.8838C29.7283 69.1403 28.1554 68.6885 26.535 68.6321C28.1649 68.6321 29.7757 69.0368 31.1686 69.7426C32.5426 70.4391 33.4902 71.625 34.3051 72.8203C35.6791 72.4909 37.053 72.1615 38.427 71.8603C37.6121 69.9591 35.6696 68.7732 33.5755 68.1615C32.8648 67.9356 32.1352 67.7474 31.3866 67.625C34.3809 68.0203 37.5837 69.1215 38.8534 71.7662C39.4788 71.625 40.1042 71.4838 40.7296 71.3521C40.1232 71.5403 39.5072 71.7191 38.8913 71.9073L38.9008 71.8885Z" fill="black"/>
</svg>
