<svg width="58" height="76" viewBox="0 0 58 76" fill="none" xmlns="http://www.w3.org/2000/svg">
<path d="M55.76 3.26099C55.84 3.391 55.91 3.54102 55.95 3.72104C56.06 4.24109 55.97 4.96116 55.59 5.93125C55.09 7.23138 54.07 9.00155 52.27 11.4418C48.67 16.3223 41.93 23.843 29.89 35.3141C19.78 44.9551 13.4 52.3958 9.46 58.1063C7.67 60.7066 6.38 62.9468 5.47 64.867C2.54 71.0276 3.48 73.8979 4.18 75.008C4.38 75.328 4.57 75.508 4.65 75.558C4.65 75.578 4.67 75.578 4.68 75.588C4.78 75.6681 4.8 75.8081 4.73 75.9081C4.67 75.9981 4.56 76.0281 4.46 75.9781C4.44 75.9781 4.43 75.9781 4.42 75.9581C4.4 75.9381 4.11 75.7381 3.8 75.248C3 73.9779 2.09 70.8976 5.06 64.667C6.07 62.5568 7.53 60.0665 9.58 57.1562C13.58 51.5057 19.87 44.255 29.6 34.9841C47.64 17.8124 53.75 9.4816 55.17 5.76124C55.57 4.71113 55.61 4.05107 55.47 3.69103C55.45 3.62103 55.42 3.56102 55.39 3.51102C55.23 3.26099 54.98 3.17098 54.65 3.16098C54.33 3.16098 54.22 2.71094 54.65 2.71094C55.07 2.71094 55.52 2.86095 55.78 3.27099L55.76 3.26099Z" fill="#6A72B5"/>
<g opacity="0.55">
<path d="M3.32998 74.9774C3.52998 74.8474 3.71998 74.6874 3.86998 74.4874C4.44998 73.7474 4.47998 72.7374 3.99998 71.9774C3.86998 71.7774 3.70998 71.5874 3.50998 71.4374C2.76998 70.8574 1.75998 70.8274 1.00998 71.3074C0.809985 71.4374 0.619985 71.6074 0.469985 71.7974C-0.110015 72.5374 -0.140015 73.5474 0.339985 74.3074C0.469985 74.5074 0.629985 74.6974 0.829985 74.8474C1.56998 75.4274 2.57998 75.4574 3.32998 74.9774Z" fill="#B0FFA1"/>
<path d="M3.72999 66.7664C3.52999 66.8964 3.33999 67.0564 3.18999 67.2564C2.60999 67.9964 2.57999 69.0064 3.05999 69.7664C3.18999 69.9664 3.34999 70.1564 3.54999 70.3064C4.28999 70.8864 5.29999 70.9164 6.04999 70.4364C6.24999 70.3064 6.43999 70.1464 6.58999 69.9464C7.16999 69.2064 7.19999 68.1964 6.71999 67.4364C6.58999 67.2364 6.42999 67.0464 6.22999 66.8964C5.48999 66.3164 4.47999 66.2864 3.72999 66.7664Z" fill="#FFFF80"/>
<path d="M6.49 60.5663C5.75 59.9863 4.74 59.9563 3.99 60.4363C3.79 60.5663 3.6 60.7363 3.45 60.9263C2.87 61.6663 2.84 62.6763 3.32 63.4363C3.45 63.6363 3.61 63.8263 3.81 63.9763C4.55 64.5563 5.56 64.5863 6.31 64.1063C6.51 63.9763 6.7 63.8163 6.85 63.6163C7.43 62.8763 7.46 61.8663 6.98 61.1063C6.85 60.9063 6.69 60.7163 6.49 60.5663Z" fill="#ABB8FF"/>
<path d="M8.38997 59.5965C8.51997 59.7965 8.67997 59.9865 8.87997 60.1365C9.61997 60.7165 10.63 60.7465 11.38 60.2665C11.58 60.1365 11.77 59.9765 11.92 59.7765C12.5 59.0365 12.53 58.0265 12.05 57.2665C11.92 57.0665 11.76 56.8765 11.56 56.7265C10.82 56.1465 9.80997 56.1165 9.05997 56.5965C8.85997 56.7265 8.66997 56.8865 8.51997 57.0865C7.93997 57.8265 7.90997 58.8365 8.38997 59.5965Z" fill="#FFBB9E"/>
<path d="M13.19 54.2748C13.36 54.1648 13.51 54.0448 13.64 53.8948C14.3 53.1548 14.37 52.0848 13.86 51.2848C13.76 51.1148 13.63 50.9648 13.48 50.8348C12.74 50.1748 11.67 50.1048 10.87 50.6148C10.7 50.7248 10.55 50.8448 10.42 51.0048C9.75999 51.7448 9.68999 52.8148 10.2 53.6148C10.3 53.7848 10.43 53.9348 10.58 54.0648C11.32 54.7248 12.39 54.7948 13.19 54.2848V54.2748Z" fill="#B0FFA1"/>
<path d="M15.86 50.2454C15.96 50.4154 16.09 50.5654 16.24 50.6954C16.98 51.3554 18.05 51.4254 18.85 50.9154C19.01 50.8054 19.17 50.6854 19.3 50.5354C19.96 49.7954 20.03 48.7254 19.52 47.9254C19.42 47.7554 19.29 47.6054 19.14 47.4754C18.4 46.8154 17.33 46.7454 16.53 47.2554C16.36 47.3654 16.21 47.4854 16.08 47.6454C15.42 48.3854 15.35 49.4554 15.86 50.2554V50.2454Z" fill="#FFFF80"/>
<path d="M21.61 42.1949C21.51 42.0249 21.38 41.8749 21.23 41.7449C20.49 41.0849 19.42 41.0149 18.62 41.5249C18.45 41.6349 18.3 41.7549 18.17 41.9149C17.51 42.6549 17.44 43.7249 17.95 44.5249C18.05 44.6949 18.18 44.8449 18.33 44.9749C19.07 45.6349 20.14 45.7049 20.94 45.1949C21.1 45.0849 21.26 44.9649 21.39 44.8149C22.05 44.0749 22.12 43.0049 21.61 42.2049V42.1949Z" fill="#ABB8FF"/>
<path d="M26.75 42.5834C26.91 42.4734 27.07 42.3534 27.2 42.2034C27.86 41.4634 27.93 40.3934 27.42 39.5934C27.32 39.4234 27.19 39.2734 27.04 39.1434C26.3 38.4834 25.23 38.4134 24.43 38.9234C24.26 39.0334 24.11 39.1534 23.98 39.3134C23.32 40.0534 23.25 41.1234 23.76 41.9234C23.86 42.0934 23.99 42.2434 24.14 42.3734C24.88 43.0334 25.95 43.1034 26.75 42.5934V42.5834Z" fill="#FFBB9E"/>
<path d="M26.56 36.5427C27.29 37.2927 28.42 37.4027 29.28 36.8627C29.4 36.7827 29.52 36.6927 29.63 36.5827C30.38 35.8527 30.49 34.7127 29.95 33.8627C29.87 33.7327 29.78 33.6227 29.67 33.5127C28.94 32.7627 27.81 32.6527 26.95 33.1927C26.82 33.2727 26.71 33.3627 26.6 33.4727C25.85 34.2027 25.74 35.3427 26.28 36.1927C26.36 36.3227 26.45 36.4327 26.56 36.5427Z" fill="#B0FFA1"/>
<path d="M34.26 35.263C34.38 35.183 34.5 35.093 34.61 34.983C35.36 34.253 35.47 33.113 34.93 32.263C34.85 32.133 34.76 32.023 34.65 31.913C33.92 31.163 32.79 31.053 31.93 31.593C31.8 31.673 31.69 31.763 31.58 31.873C30.83 32.603 30.72 33.743 31.26 34.593C31.34 34.723 31.43 34.833 31.54 34.943C32.27 35.693 33.4 35.803 34.26 35.263Z" fill="#FFFF80"/>
<path d="M36.18 30.1932H36.2V30.1832C37.2 29.5332 37.49 28.2032 36.85 27.2032V27.1832H36.84C36.19 26.1832 34.86 25.8932 33.86 26.5332L33.84 26.5532H33.85C32.85 27.2032 32.56 28.5332 33.2 29.5332V29.5532C33.86 30.5532 35.19 30.8432 36.19 30.2032L36.18 30.1932Z" fill="#ABB8FF"/>
<path d="M40.65 28.953H40.67V28.943C41.67 28.293 41.96 26.963 41.32 25.963V25.943H41.31C40.66 24.943 39.33 24.653 38.33 25.293L38.31 25.313C37.31 25.963 37.02 27.293 37.66 28.293V28.313C38.32 29.313 39.65 29.603 40.65 28.963V28.953Z" fill="#FFBB9E"/>
<path d="M43.06 20.7711C42.41 19.7711 41.08 19.4811 40.08 20.1211L40.06 20.1411C39.06 20.7911 38.77 22.1211 39.41 23.1211V23.1411C40.07 24.1411 41.4 24.4311 42.4 23.7911H42.42V23.7811C43.42 23.1311 43.71 21.8011 43.07 20.8011V20.7811L43.06 20.7711Z" fill="#B0FFA1"/>
<path d="M48.18 18.8321V18.8121H48.17C47.52 17.8121 46.19 17.5221 45.19 18.1621L45.17 18.1821C44.17 18.8321 43.88 20.1621 44.52 21.1621V21.1821H44.53C45.18 22.1821 46.51 22.4721 47.51 21.8321H47.53V21.8221C48.53 21.1721 48.82 19.8421 48.18 18.8421V18.8321Z" fill="#FFFF80"/>
<path d="M50.07 13.3713L50.01 13.2713C49.39 12.3013 48.13 11.9713 47.11 12.5413L47.01 12.6013C46.04 13.2213 45.71 14.4913 46.28 15.5013L46.34 15.6013C46.96 16.5713 48.22 16.9013 49.24 16.3313L49.33 16.2713C50.3 15.6513 50.63 14.3813 50.06 13.3713H50.07Z" fill="#ABB8FF"/>
<path d="M51.4 12.7517C52.02 13.7217 53.28 14.0517 54.3 13.4817L54.39 13.4217C55.36 12.8017 55.69 11.5317 55.12 10.5217L55.06 10.4217C54.44 9.45174 53.18 9.12174 52.16 9.69174L52.06 9.75174C51.09 10.3717 50.76 11.6417 51.33 12.6517L51.39 12.7517H51.4Z" fill="#FFBB9E"/>
<path d="M55.64 4.2103C56.09 4.2603 56.39 4.3203 56.77 4.1403C56.85 4.1003 56.92 4.0603 57 4.0103C57.92 3.4303 58.27 2.2403 57.8 1.2403C57.76 1.1603 57.72 1.0803 57.67 1.0103C57.09 0.0903034 55.91 -0.259697 54.9 0.210303C54.82 0.250303 54.74 0.290303 54.67 0.340303C53.75 0.920303 53.4 2.1003 53.87 3.1103C53.91 3.1903 54.14 3.5603 54.3 3.7003C54.46 3.8403 55.19 4.1603 55.63 4.2103H55.64Z" fill="#FFFF80"/>
<path d="M54.23 3.66016C54.09 3.66016 53.4 3.74016 52.99 3.97016L52.89 4.03016C51.92 4.65016 51.59 5.92016 52.16 6.93016L52.22 7.03016C52.84 8.00016 54.11 8.33016 55.12 7.76016L55.22 7.70016C56.19 7.08016 56.52 5.81016 55.95 4.80016L55.89 4.70016C55.81 4.57016 55.74 4.50016 55.6 4.34016C55.46 4.18016 54.69 3.69016 54.23 3.66016Z" fill="#B0FFA1"/>
</g>
<path d="M2.17 74.2166C2.76646 74.2166 3.25 73.7331 3.25 73.1366C3.25 72.5402 2.76646 72.0566 2.17 72.0566C1.57353 72.0566 1.09 72.5402 1.09 73.1366C1.09 73.7331 1.57353 74.2166 2.17 74.2166Z" fill="#64FF7B"/>
<path d="M4.89 69.6756C5.48646 69.6756 5.97 69.1921 5.97 68.5956C5.97 67.9992 5.48646 67.5156 4.89 67.5156C4.29353 67.5156 3.81 67.9992 3.81 68.5956C3.81 69.1921 4.29353 69.6756 4.89 69.6756Z" fill="#FBFF64"/>
<path d="M5.15001 63.3553C5.74647 63.3553 6.23001 62.8718 6.23001 62.2753C6.23001 61.6788 5.74647 61.1953 5.15001 61.1953C4.55354 61.1953 4.07001 61.6788 4.07001 62.2753C4.07001 62.8718 4.55354 63.3553 5.15001 63.3553Z" fill="#6473FF"/>
<path d="M10.22 59.5057C10.8165 59.5057 11.3 59.0222 11.3 58.4257C11.3 57.8292 10.8165 57.3457 10.22 57.3457C9.62352 57.3457 9.13998 57.8292 9.13998 58.4257C9.13998 59.0222 9.62352 59.5057 10.22 59.5057Z" fill="#FF6A3D"/>
<path d="M12.03 53.5155C12.6264 53.5155 13.11 53.0319 13.11 52.4355C13.11 51.839 12.6264 51.3555 12.03 51.3555C11.4335 51.3555 10.95 51.839 10.95 52.4355C10.95 53.0319 11.4335 53.5155 12.03 53.5155Z" fill="#64FF7B"/>
<path d="M17.69 50.1639C18.2865 50.1639 18.77 49.6804 18.77 49.0839C18.77 48.4874 18.2865 48.0039 17.69 48.0039C17.0935 48.0039 16.61 48.4874 16.61 49.0839C16.61 49.6804 17.0935 50.1639 17.69 50.1639Z" fill="#FBFF64"/>
<path d="M19.77 44.4334C20.3665 44.4334 20.85 43.9499 20.85 43.3534C20.85 42.757 20.3665 42.2734 19.77 42.2734C19.1735 42.2734 18.69 42.757 18.69 43.3534C18.69 43.9499 19.1735 44.4334 19.77 44.4334Z" fill="#6473FF"/>
<path d="M25.59 41.8241C26.1865 41.8241 26.67 41.3405 26.67 40.7441C26.67 40.1476 26.1865 39.6641 25.59 39.6641C24.9935 39.6641 24.51 40.1476 24.51 40.7441C24.51 41.3405 24.9935 41.8241 25.59 41.8241Z" fill="#FF6A3D"/>
<path d="M28.12 36.1034C28.7165 36.1034 29.2 35.6198 29.2 35.0234C29.2 34.4269 28.7165 33.9434 28.12 33.9434C27.5235 33.9434 27.04 34.4269 27.04 35.0234C27.04 35.6198 27.5235 36.1034 28.12 36.1034Z" fill="#64FF7B"/>
<path d="M33.1 34.5037C33.6965 34.5037 34.18 34.0202 34.18 33.4237C34.18 32.8273 33.6965 32.3438 33.1 32.3438C32.5035 32.3438 32.02 32.8273 32.02 33.4237C32.02 34.0202 32.5035 34.5037 33.1 34.5037Z" fill="#FBFF64"/>
<path d="M35.02 29.4432C35.6165 29.4432 36.1 28.9597 36.1 28.3632C36.1 27.7667 35.6165 27.2832 35.02 27.2832C34.4235 27.2832 33.94 27.7667 33.94 28.3632C33.94 28.9597 34.4235 29.4432 35.02 29.4432Z" fill="#6473FF"/>
<path d="M39.49 28.203C40.0864 28.203 40.57 27.7194 40.57 27.123C40.57 26.5265 40.0864 26.043 39.49 26.043C38.8935 26.043 38.41 26.5265 38.41 27.123C38.41 27.7194 38.8935 28.203 39.49 28.203Z" fill="#FF6A3D"/>
<path d="M41.24 23.0311C41.8364 23.0311 42.32 22.5476 42.32 21.9511C42.32 21.3546 41.8364 20.8711 41.24 20.8711C40.6435 20.8711 40.16 21.3546 40.16 21.9511C40.16 22.5476 40.6435 23.0311 41.24 23.0311Z" fill="#64FF7B"/>
<path d="M46.35 21.0721C46.9465 21.0721 47.43 20.5886 47.43 19.9921C47.43 19.3956 46.9465 18.9121 46.35 18.9121C45.7535 18.9121 45.27 19.3956 45.27 19.9921C45.27 20.5886 45.7535 21.0721 46.35 21.0721Z" fill="#FBFF64"/>
<path d="M48.18 15.5116C48.7764 15.5116 49.26 15.028 49.26 14.4316C49.26 13.8351 48.7764 13.3516 48.18 13.3516C47.5835 13.3516 47.1 13.8351 47.1 14.4316C47.1 15.028 47.5835 15.5116 48.18 15.5116Z" fill="#6473FF"/>
<path d="M53.24 12.662C53.8364 12.662 54.32 12.1784 54.32 11.582C54.32 10.9855 53.8364 10.502 53.24 10.502C52.6435 10.502 52.16 10.9855 52.16 11.582C52.16 12.1784 52.6435 12.662 53.24 12.662Z" fill="#FF6A3D"/>
<path d="M54.06 6.9393C54.6564 6.9393 55.14 6.45576 55.14 5.8593C55.14 5.26283 54.6564 4.7793 54.06 4.7793C53.4635 4.7793 52.98 5.26283 52.98 5.8593C52.98 6.45576 53.4635 6.9393 54.06 6.9393Z" fill="#64FF7B"/>
<path d="M55.83 3.24984C56.4265 3.24984 56.91 2.76631 56.91 2.16984C56.91 1.57338 56.4265 1.08984 55.83 1.08984C55.2335 1.08984 54.75 1.57338 54.75 2.16984C54.75 2.76631 55.2335 3.24984 55.83 3.24984Z" fill="#FBFF64"/>
</svg>
