<svg width="50" height="65" viewBox="0 0 50 65" fill="none" xmlns="http://www.w3.org/2000/svg">
<mask id="mask0_216_4821" style="mask-type:luminance" maskUnits="userSpaceOnUse" x="0" y="0" width="50" height="65">
<path d="M50 0H0V65H50V0Z" fill="white"/>
</mask>
<g mask="url(#mask0_216_4821)">
<path d="M100 46.84L94.68 42.84L100 39.05C98.85 36.31 90.5 33.89 90.5 33.89L94.57 31.15C94.2 30.45 92.48 29.35 90.69 28.34C88.46 27.09 86.12 25.99 86.12 25.99C85.7 13.26 80.38 0 80.38 0C70.46 4 63.99 16 63.99 16C63.8 15.89 63.6 15.79 63.4 15.69C54.82 11.42 39.91 14.57 36.44 15.39C35.97 15.51 35.7 15.58 35.7 15.58C33.82 8 19.73 0 19.73 0C13.57 6.42 14.09 26.42 14.09 26.42L9.12999 29.6H9.12L6.04999 31.58L9.90999 34C3.95999 34.21 -0.0100098 39.16 -0.0100098 39.16C1.75999 39.26 5.93999 43.06 5.93999 43.06L-0.0100098 47.06L8.23999 52.95C1.86999 55.47 1.13998 63.05 1.13998 63.05C2.30998 63.91 6.07999 64.52 10.51 64.79C17.53 65.22 26.16 64.79 28.59 63.05C32.2 60.47 46.59 57.44 49.17 56.92H49.19C49.33 56.89 49.43 56.87 49.49 56.86C49.53 56.86 49.56 56.85 49.56 56.85C49.56 56.85 49.79 56.9 50.22 56.99C50.28 57 50.35 57.01 50.42 57.03C53.32 57.65 63.04 59.83 72.83 63.27C74.57 63.88 76.38 64.3 78.21 64.58C78.23 64.58 78.25 64.58 78.27 64.58C78.41 64.6 78.54 64.62 78.68 64.64C88.93 66.05 99.35 62.95 99.35 62.95C99.66 57.48 92.67 53.16 92.67 53.16C92.67 52.42 99.98 46.84 99.98 46.84H100ZM5.89999 45.96C6.45999 45.96 6.90999 46.42 6.90999 46.98C6.90999 47.54 6.45999 48 5.89999 48C5.33999 48 4.88998 47.54 4.88998 46.98C4.88998 46.42 5.33999 45.96 5.89999 45.96ZM43.14 42.59C42.92 42.95 39.22 48.8 31.49 47.24C23.52 45.62 21.92 37.24 21.92 37.24C21.92 37.24 24.36 34.36 32.19 34.61C40.01 34.85 43.15 42.57 43.15 42.57C43.15 42.57 43.15 42.57 43.15 42.59H43.14ZM67.67 47.24C59.95 48.8 56.24 42.95 56.02 42.59C56.02 42.58 56.02 42.57 56.02 42.57C56.02 42.57 59.15 34.85 66.98 34.61C74.81 34.36 77.25 37.24 77.25 37.24C77.25 37.24 75.65 45.62 67.68 47.24H67.67ZM95.98 46.99C95.98 47.55 95.53 48.01 94.97 48.01C94.41 48.01 93.96 47.55 93.96 46.99C93.96 46.43 94.41 45.97 94.97 45.97C95.53 45.97 95.98 46.43 95.98 46.99Z" fill="#1F2A7D"/>
<path d="M43.14 42.59C43 42.94 40.42 49.01 32.54 47.96C22.33 46.59 19.93 41.43 17.16 32.91C17.16 32.91 24.31 28.65 30.78 29.54C37.25 30.43 43.15 39.82 43.15 42.57C43.15 42.57 40.02 34.85 32.19 34.61C24.36 34.36 21.92 37.24 21.92 37.24C21.92 37.24 23.52 45.62 31.49 47.24C39.22 48.8 42.92 42.95 43.14 42.59Z" fill="#232436"/>
<path d="M18.22 21.6801C18.22 21.6801 25.12 16.7901 31.51 15.9301C31.51 15.9301 29.11 7.79012 21.92 5.12012C21.92 5.12012 16.61 7.86012 18.21 21.6801H18.22Z" fill="#DB657F"/>
<path d="M54.38 35.27C52.29 40.95 53.47 50.5 53.47 50.5C53.47 50.5 46.23 51.97 47 49.45C47.76 46.92 46.16 34.57 42.2 28.96C39.08 24.54 37.12 17.98 36.44 15.4C39.91 14.58 54.82 11.42 63.4 15.7C62.24 21.5 56.21 30.31 54.39 35.28L54.38 35.27Z" fill="#253294"/>
<path d="M50.57 56.96C50.43 57.03 50.29 57.09 50.17 57.13C50 57.19 49.85 57.22 49.72 57.22C49.69 57.22 49.66 57.22 49.64 57.22C49.64 57.22 49.52 57.14 49.31 56.99C48.14 56.14 44.35 53.27 44.6 51.51C44.89 49.42 46.56 48.25 50.04 48.25C53.52 48.25 54.81 49.59 55.26 51.32C55.64 52.78 52.5 56.01 50.58 56.96H50.57Z" fill="#ED85B9"/>
<path d="M49.71 57.23C49.71 57.23 49.65 57.23 49.63 57.23C49.63 57.23 49.51 57.15 49.3 57L46.37 54.05C46.37 54.05 47.22 53.28 47.77 53.87C48.2 54.34 49.27 56.36 49.72 57.23H49.71Z" fill="#ED3993"/>
<path d="M36.16 52.6401C36.16 52.6401 36.16 52.6201 36.16 52.6101C36.16 52.6101 36.16 52.6101 36.16 52.6001C36.16 52.6001 36.16 52.5901 36.15 52.5801C36.15 52.5801 36.14 52.5601 36.13 52.5601C36.13 52.5601 36.13 52.5501 36.11 52.5401C36.11 52.5401 36.1 52.5301 36.09 52.5201C36.09 52.5201 36.07 52.5101 36.07 52.5001C36.07 52.5001 36.06 52.5001 36.05 52.4901H36.03C36.03 52.4901 36.03 52.4901 36.02 52.4901L17.47 48.3501C17.36 48.3301 17.25 48.4001 17.23 48.5101C17.21 48.6201 17.28 48.7301 17.39 48.7601L34.37 52.5501L13.36 53.3001C13.25 53.3001 13.16 53.4001 13.16 53.5101C13.16 53.6201 13.26 53.7101 13.37 53.7101L34.59 52.9501L18.01 58.6001C17.9 58.6401 17.85 58.7501 17.88 58.8601C17.92 58.9701 18.03 59.0301 18.14 58.9901L36.04 52.8901C36.04 52.8901 36.05 52.8901 36.06 52.8801C36.06 52.8801 36.08 52.8701 36.08 52.8601C36.08 52.8601 36.09 52.8501 36.1 52.8401C36.1 52.8401 36.11 52.8301 36.11 52.8201C36.11 52.8201 36.12 52.8001 36.13 52.8001C36.13 52.8001 36.13 52.7901 36.14 52.7801V52.7601C36.14 52.7601 36.14 52.7601 36.14 52.7501C36.14 52.7501 36.14 52.7501 36.14 52.7401C36.14 52.7401 36.14 52.7201 36.14 52.7101C36.14 52.7101 36.14 52.7101 36.14 52.7001C36.14 52.7001 36.14 52.7001 36.14 52.6901L36.16 52.6401Z" fill="black"/>
<path d="M2.18999 38.1101C2.60999 39.7901 7.03999 41.4801 6.90999 43.1601C6.77999 44.8501 2.33 45.2601 3.23 46.9801C4.14 48.7001 7.96 50.2401 8.73 52.3501C9.5 54.4601 3.02 56.9801 3.09 60.0001C3.14 62.0601 7.64999 63.8501 10.51 64.7901C6.08999 64.5201 2.30998 63.9001 1.13998 63.0501C1.13998 63.0501 1.86999 55.4701 8.23999 52.9501L-0.0100098 47.0601L5.93999 43.0601C5.93999 43.0601 1.75999 39.2701 -0.0100098 39.1601C-0.0100098 39.1601 3.95999 34.2101 9.90999 34.0001L6.04999 31.5801L9.12 29.6101C8.99 29.7601 7.83999 31.1101 8.09999 31.3701C8.37999 31.6501 10.81 33.5401 10.75 34.1701C10.68 34.8001 1.76999 36.4201 2.18999 38.1001V38.1101Z" fill="#253294"/>
</g>
</svg>
