<svg width="97" height="74" viewBox="0 0 97 74" fill="none" xmlns="http://www.w3.org/2000/svg">
<path d="M36.814 12.2873L29.5622 11.6684L36.3718 13.3863C36.3718 13.3863 32.4932 18.1736 26.4795 18.881L28.5009 18.8557C28.5009 18.8557 29.3095 22.9357 19.1519 27.5336C19.1519 27.5336 19.6825 27.3821 20.5037 27.1294C21.6787 26.7631 23.4221 26.1568 25.0393 25.4368C25.0393 25.4368 24.5466 31.8536 20.7691 35.2642L23.9149 33.2431C23.9149 33.2431 22.0577 46.4052 14.5659 45.862C13.3783 45.7736 12.3676 45.1168 11.5337 44.0936C9.33546 41.4157 8.3753 36.3126 8.55217 33.1673L11.4958 34.6578C10.94 34.2789 8.3753 32.1568 9.48707 25.1715L13.113 29.0999C12.6834 28.5821 8.12262 22.6705 11.6095 14.4599L14.25 19.7652C14.0984 19.3484 12.2033 13.8536 14.9449 9.74836C17.8001 5.46626 19.2277 5.09994 19.2277 5.09994L19.5815 12.3252C19.5436 11.1252 19.4678 5.1631 22.1335 3.0031C25.1024 0.590469 27.8945 0.590469 27.8945 0.590469L26.9217 4.87257C27.1618 4.06415 28.8926 -0.710583 36.435 0.590469L32.4427 4.16521C32.9101 3.89994 39.3913 0.375733 40.5915 6.04731C41.2737 9.26836 36.814 12.3126 36.814 12.3126V12.2873Z" fill="#D0A4FF"/>
<path d="M36.6624 6.62891C22.0703 8.18259 17.2695 20.6373 15.3618 33.4458C14.7554 37.551 14.49 41.7194 14.9701 45.8626C13.8836 41.9847 14.2247 37.4373 14.6417 33.3447C15.5513 27.1426 17.2947 20.8773 20.7564 15.5847C24.2433 10.431 30.5602 6.74259 36.6624 6.62891Z" fill="#E0C3FF"/>
<g style="mix-blend-mode:multiply" opacity="0.31">
<path d="M20.769 35.2522L23.9148 33.2312C23.9148 33.2312 22.0577 46.3933 14.5658 45.8501C13.3783 45.7617 12.3676 45.1049 11.5337 44.0817C11.5969 42.1112 6.36651 42.7049 9.5376 33.9512C9.87871 32.9912 12.8603 37.3996 13.0751 37.1091C13.4667 36.6038 13.1509 34.0522 14.5406 32.3596C14.8817 31.9428 15.5134 33.0038 15.5892 32.448C15.8292 30.8186 17.2695 29.5428 18.5329 28.368C18.975 27.9512 18.9245 28.7722 19.2024 28.5954C19.5941 28.3428 20.15 27.307 20.4911 27.1301C21.666 26.7638 23.4095 26.1575 25.0266 25.4375C25.0266 25.4375 24.5339 31.8543 20.7564 35.2649L20.769 35.2522Z" fill="#A86F90"/>
</g>
<path d="M15.1344 46.0249V46.5302C8.53952 48.2859 7.32668 46.2523 7.23824 46.0628L8.9059 45.2291C8.31211 45.0775 7.45301 44.6102 6.61918 44.0796C5.40634 43.3091 4.2693 42.4375 4.2693 42.4375L7.42775 42.4881C1.09821 40.4038 1.27509 37.8523 1.27509 37.8523L4.383 39.027L1.4646 37.1323C0.277022 35.5533 0.138046 31.6249 0.138046 31.6249L3.29649 33.7849C3.19542 33.6838 2.31106 32.9259 1.32563 31.7638C-1.10006 28.947 1.13612 25.2081 1.13612 25.2081L2.34896 27.7344C1.6162 22.7323 4.29457 22.4544 4.29457 22.4544L3.91555 25.4481L4.86309 23.3891C4.86309 23.3891 6.1391 21.6712 7.75623 22.6944C9.36072 23.7049 9.15858 26.0923 9.15858 26.0923L6.15174 29.0733L9.39862 27.2544C10.0808 29.7428 7.23824 33.9744 7.06137 34.227L9.29755 32.2944C10.7883 33.7344 9.41125 39.3554 9.32282 39.747L10.7125 36.5386C11.0157 36.7281 11.2558 37.0186 11.4453 37.3849C12.2412 38.7996 12.2791 41.1365 12.2791 41.1365L13.5425 39.9491C13.6941 40.0502 13.8204 40.1765 13.9342 40.3281C14.9575 41.6291 15.0965 44.787 15.1217 46.0249H15.1344Z" fill="#EAB5FF"/>
<path d="M6.32859 25.3994C2.47528 28.2541 4.0545 33.9509 5.7348 37.6394C7.59197 41.6309 10.9652 45.0288 15.1217 46.5572V46.5067C9.38597 43.5509 4.90097 37.7783 4.21875 31.2604C3.96607 29.113 4.62303 26.713 6.32859 25.3867V25.3994Z" fill="#F0CCFF"/>
<g style="mix-blend-mode:multiply" opacity="0.31">
<path d="M15.1343 46.5311C8.5395 48.2869 7.32666 46.2532 7.23822 46.0637C7.46563 46.19 10.3967 47.7816 11.4453 45.6216C11.6727 45.1416 11.3189 41.4532 11.2937 40.7079C11.2431 39.1542 11.2937 38.0932 11.4453 37.3984C12.2412 38.8132 12.2791 41.15 12.2791 41.15L13.5425 39.9626C13.6941 40.0637 13.8204 40.19 13.9341 40.3416C14.4648 43.1711 15.1217 46.5437 15.1217 46.5437L15.1343 46.5311Z" fill="#A86F90"/>
</g>
<path d="M44.4068 29.6067C44.4068 29.6067 43.6109 28.533 42.4486 28.1035C40.9578 27.573 38.9364 27.6993 38.9364 27.6993C38.9364 27.6993 44.2047 30.1625 43.9773 30.2383C41.3747 31.0088 41.021 31.6151 39.6186 31.5141C38.2921 31.4383 36.2075 29.3035 35.9548 29.0383L38.6964 32.8656C35.6643 34.1035 29.8274 31.1099 29.5242 30.9583L32.3037 33.4972C30.6486 35.6825 22.8662 34.6467 22.8662 34.6467L27.1617 35.9225C26.1763 37.9688 21.5902 38.613 21.5902 38.613L24.2559 39.3583C22.5756 42.3646 20.8322 41.6572 19.4551 42.7309C19.3919 42.7688 19.354 42.8193 19.2908 42.8699C18.9497 43.1477 18.6592 43.4383 18.4191 43.7288C16.6757 45.8256 17.2947 48.0614 17.3705 48.3141C15.6776 45.8635 14.73 43.5772 14.2247 41.5688C13.9468 40.4446 13.7951 39.4088 13.7446 38.4741C13.5677 35.0635 14.6037 32.9667 14.6037 32.9667L15.905 34.9499C15.387 30.8951 18.735 28.6846 18.735 28.6846L19.1519 32.6888C18.735 26.2467 24.0791 24.213 24.0791 24.213L23.1063 28.2046C23.2705 27.7246 23.9906 25.6404 25.014 24.3267C26.8332 22.0025 31.773 21.8256 31.773 21.8256L29.5748 26.0067C29.7895 25.653 30.4718 24.5414 31.6088 23.3035C34.7925 19.8299 40.0103 22.1288 40.0103 22.1288L37.0161 24.0362C42.5244 21.2572 43.4214 24.3141 43.4214 24.3141C43.4214 24.3141 42.3475 24.1877 41.6274 24.3772C40.9073 24.5667 39.9976 25.2235 39.9976 25.2235C39.9976 25.2235 41.5263 24.8825 43.1182 25.6656C44.3816 26.2846 44.9374 27.7498 44.3942 29.6698L44.4068 29.6067Z" fill="#E2C7FF"/>
<path d="M38.431 26.0927C32.5058 25.6001 26.3658 27.697 22.4872 32.2822C18.5075 36.4759 15.3617 42.438 17.3958 48.2738C16.7135 47.0738 16.4735 45.3685 16.4356 43.9033C16.4103 39.3054 19.1013 35.1749 22.2092 32.0043C26.151 27.4822 32.6321 25.2717 38.4437 26.0801L38.431 26.0927Z" fill="#F0E3FF"/>
<g style="mix-blend-mode:multiply" opacity="0.31">
<path d="M19.2899 42.8431C18.9488 43.1209 18.6583 43.4115 18.4183 43.702L14.2246 41.542C13.9467 40.4178 13.7951 39.382 13.7446 38.4473C13.7446 38.4473 16.3341 42.6157 19.2899 42.8557V42.8431Z" fill="#A86F90"/>
</g>
<path d="M96.1296 36.1113C96.1296 36.1113 96.0791 36.225 95.978 36.4271C95.4348 37.5008 93.3628 41.1387 89.4716 42.8187H89.4464C89.3832 42.844 89.3326 42.8819 89.2568 42.8945C89.1937 42.9198 89.1431 42.9576 89.0673 42.9703C89.0421 42.9703 89.0168 42.9955 89.0042 42.9955C86.8943 43.804 84.2918 44.0061 81.1333 42.9955C74.6395 40.8987 69.6113 40.3429 64.3556 41.9976C61.0835 43.0208 57.7229 44.8903 53.8696 47.7576C43.8384 40.2671 37.1424 39.585 26.6059 42.9955C23.4474 44.0187 20.8448 43.8166 18.735 43.0208C18.735 43.0208 18.7097 42.9955 18.6718 42.9955C18.6087 42.9703 18.5455 42.945 18.4823 42.9198C18.4192 42.8945 18.356 42.8692 18.2928 42.844H18.2676C13.6689 40.8608 11.6222 36.1366 11.6222 36.1366C11.6222 36.1366 11.4327 40.7597 12.1907 46.7471C12.6076 50.145 13.3404 53.985 14.5659 57.6482C14.8438 58.444 15.1344 59.2398 15.4502 60.0103V60.0355C15.8545 61.0334 16.3093 62.0061 16.8147 62.9408C22.6388 73.905 39.366 74.7134 44.2553 71.0503C48.2854 68.044 52.1261 67.6019 53.4148 67.5387C53.7053 67.5134 53.857 67.5387 53.857 67.5387C53.857 67.5387 58.5315 67.3745 63.4713 71.0629C68.3606 74.7261 85.0877 73.9176 90.9119 62.9534C91.4046 62.0061 91.8594 61.0461 92.2763 60.0482V60.0229C92.5922 59.2524 92.8827 58.4566 93.1607 57.6608C94.3988 53.9976 95.1189 50.145 95.5358 46.7598C96.2939 40.7598 96.1044 36.1492 96.1044 36.1492L96.1296 36.1113ZM34.0472 59.164C26.3785 57.6734 25.7089 51.105 25.7089 51.105C29.0063 52.1787 32.8091 48.2124 39.4165 49.7408C46.024 51.2692 46.3146 59.7198 46.3146 59.7198C41.8549 58.0271 40.6167 60.4271 34.0472 59.1513V59.164ZM74.1089 59.0755C73.9826 59.1008 73.831 59.1387 73.7046 59.164C67.1351 60.4398 65.897 58.0524 61.4372 59.7324C61.4372 59.7324 61.513 57.6608 62.3848 55.3745C63.2818 53.0503 65 50.5113 68.3479 49.7408C74.9428 48.2124 78.7582 52.1787 82.0556 51.105C82.0556 51.105 81.4113 57.4334 74.1216 59.0755H74.1089Z" fill="#F2D544"/>
<path d="M73.6541 71.9457C62.827 72.3878 61.033 64.2025 53.8696 64.2025C46.7062 64.2025 44.9122 72.3878 34.0851 71.9457C22.2346 71.4657 17.2695 63.9752 15.4629 60.0215C15.8671 61.0194 16.322 61.992 16.8273 62.9267C22.6515 73.891 39.3786 74.6994 44.2679 71.0362C49.2077 67.3478 53.8822 67.512 53.8822 67.512C53.8822 67.512 58.5567 67.3478 63.4966 71.0362C68.3858 74.6994 85.113 73.891 90.9372 62.9267C91.4299 61.9794 91.8847 61.0194 92.3016 60.0215C90.495 63.9752 85.5299 71.4657 73.6794 71.9457H73.6541Z" fill="#F5CC00"/>
<g style="mix-blend-mode:multiply" opacity="0.31">
<path d="M23.8138 48.9961C23.8138 48.9961 22.4999 52.4571 25.7215 56.7393C28.9431 61.0214 32.7333 62.3224 42.3855 61.855C46.3272 61.6656 48.4371 63.2571 48.4371 63.2571L45.9988 60.4529H37.4962L27.326 57.2066L23.8264 49.0087L23.8138 48.9961Z" fill="#F5BAE6"/>
</g>
<path d="M38.8859 47.595C30.0422 46.6982 29.6759 50.5255 23.8138 48.9971C23.8138 48.9971 22.4493 54.9466 28.7915 59.355C35.8664 64.2687 44.6217 59.355 48.4244 63.2455C48.4244 63.2455 49.6499 48.694 38.8859 47.595ZM34.0472 59.1655C26.3785 57.675 25.7089 51.1066 25.7089 51.1066C29.0063 52.1803 32.8091 48.2139 39.4165 49.7424C46.024 51.2708 46.3146 59.7213 46.3146 59.7213C41.8549 58.0287 40.6167 60.4287 34.0472 59.1529V59.1655Z" fill="#F2733A"/>
<path d="M24.7737 50.9177C25.1086 50.9177 25.3801 50.6463 25.3801 50.3114C25.3801 49.9765 25.1086 49.7051 24.7737 49.7051C24.4389 49.7051 24.1674 49.9765 24.1674 50.3114C24.1674 50.6463 24.4389 50.9177 24.7737 50.9177Z" fill="#F1F2CE"/>
<path d="M27.3006 50.9177C27.6355 50.9177 27.907 50.6463 27.907 50.3114C27.907 49.9765 27.6355 49.7051 27.3006 49.7051C26.9658 49.7051 26.6943 49.9765 26.6943 50.3114C26.6943 50.6463 26.9658 50.9177 27.3006 50.9177Z" fill="#F1F2CE"/>
<path d="M29.7769 50.3103C30.1117 50.3103 30.3832 50.0388 30.3832 49.704C30.3832 49.3691 30.1117 49.0977 29.7769 49.0977C29.442 49.0977 29.1705 49.3691 29.1705 49.704C29.1705 50.0388 29.442 50.3103 29.7769 50.3103Z" fill="#F1F2CE"/>
<path d="M32.3163 49.5154C32.6511 49.5154 32.9226 49.2439 32.9226 48.909C32.9226 48.5742 32.6511 48.3027 32.3163 48.3027C31.9814 48.3027 31.71 48.5742 31.71 48.909C31.71 49.2439 31.9814 49.5154 32.3163 49.5154Z" fill="#F1F2CE"/>
<path d="M34.8935 49.0837C35.2284 49.0837 35.4999 48.8123 35.4999 48.4774C35.4999 48.1425 35.2284 47.8711 34.8935 47.8711C34.5587 47.8711 34.2872 48.1425 34.2872 48.4774C34.2872 48.8123 34.5587 49.0837 34.8935 49.0837Z" fill="#F1F2CE"/>
<path d="M37.4709 49.0837C37.8057 49.0837 38.0772 48.8123 38.0772 48.4774C38.0772 48.1425 37.8057 47.8711 37.4709 47.8711C37.136 47.8711 36.8645 48.1425 36.8645 48.4774C36.8645 48.8123 37.136 49.0837 37.4709 49.0837Z" fill="#F1F2CE"/>
<path d="M39.9597 49.5154C40.2946 49.5154 40.566 49.2439 40.566 48.909C40.566 48.5742 40.2946 48.3027 39.9597 48.3027C39.6248 48.3027 39.3534 48.5742 39.3534 48.909C39.3534 49.2439 39.6248 49.5154 39.9597 49.5154Z" fill="#F1F2CE"/>
<path d="M42.3727 50.4626C42.7076 50.4626 42.9791 50.1912 42.9791 49.8563C42.9791 49.5215 42.7076 49.25 42.3727 49.25C42.0379 49.25 41.7664 49.5215 41.7664 49.8563C41.7664 50.1912 42.0379 50.4626 42.3727 50.4626Z" fill="#F1F2CE"/>
<path d="M44.3057 52.0271C44.6406 52.0271 44.912 51.7556 44.912 51.4208C44.912 51.0859 44.6406 50.8145 44.3057 50.8145C43.9709 50.8145 43.6994 51.0859 43.6994 51.4208C43.6994 51.7556 43.9709 52.0271 44.3057 52.0271Z" fill="#F1F2CE"/>
<path d="M45.7081 54.1638C46.0429 54.1638 46.3144 53.8923 46.3144 53.5575C46.3144 53.2226 46.0429 52.9512 45.7081 52.9512C45.3732 52.9512 45.1017 53.2226 45.1017 53.5575C45.1017 53.8923 45.3732 54.1638 45.7081 54.1638Z" fill="#F1F2CE"/>
<path d="M46.5924 56.2849C46.9273 56.2849 47.1988 56.0134 47.1988 55.6786C47.1988 55.3437 46.9273 55.0723 46.5924 55.0723C46.2576 55.0723 45.9861 55.3437 45.9861 55.6786C45.9861 56.0134 46.2576 56.2849 46.5924 56.2849Z" fill="#F1F2CE"/>
<path d="M47.1989 58.8494C47.5337 58.8494 47.8052 58.5779 47.8052 58.243C47.8052 57.9082 47.5337 57.6367 47.1989 57.6367C46.864 57.6367 46.5926 57.9082 46.5926 58.243C46.5926 58.5779 46.864 58.8494 47.1989 58.8494Z" fill="#F1F2CE"/>
<path d="M47.3252 61.654C47.6601 61.654 47.9315 61.3826 47.9315 61.0477C47.9315 60.7129 47.6601 60.4414 47.3252 60.4414C46.9904 60.4414 46.7189 60.7129 46.7189 61.0477C46.7189 61.3826 46.9904 61.654 47.3252 61.654Z" fill="#F1F2CE"/>
<path d="M18.279 42.8196C17.6853 42.6049 16.9022 42.668 16.3085 43.0849C15.4116 43.7038 15.5379 44.9038 15.6895 45.2701C15.5379 45.0428 14.9569 44.6512 14.3758 44.6765C12.4053 44.7775 12.2032 46.4954 12.2032 46.7101C11.4453 40.7228 11.6348 36.0996 11.6348 36.0996C11.6348 36.0996 13.6811 40.8238 18.279 42.807V42.8196Z" fill="#F1F2CE"/>
<g style="mix-blend-mode:multiply" opacity="0.31">
<path d="M83.938 48.9941C83.938 48.9941 85.2519 52.4552 82.0303 56.7373C78.8087 61.0068 75.0185 62.3205 65.3663 61.8531C61.4246 61.6636 59.3147 63.2552 59.3147 63.2552L61.7531 60.451H70.2556L80.4258 57.2047L83.9254 49.0068L83.938 48.9941Z" fill="#F5BAE6"/>
</g>
<path d="M83.938 48.9964C78.0759 50.5249 77.7095 46.6849 68.8659 47.5943C64.3683 48.0617 61.9552 50.8786 60.6918 53.9859C58.9105 58.3186 59.3274 63.2449 59.3274 63.2449C63.1175 59.367 71.8854 64.268 78.9603 59.3543C79.1119 59.2533 79.2509 59.1522 79.4025 59.0386C85.2393 54.668 83.9506 49.0091 83.9506 49.0091L83.938 48.9964ZM74.1089 59.0765C73.9826 59.1017 73.8436 59.1396 73.7173 59.1649C67.1477 60.4407 65.9096 58.0533 61.4498 59.7333C61.4498 59.7333 61.5257 57.6617 62.3974 55.3754C63.2944 53.0512 65.0126 50.5122 68.3605 49.7417C74.9554 48.2133 78.7708 52.1796 82.0682 51.1059C82.0682 51.1059 81.4239 57.4343 74.1342 59.0765H74.1089Z" fill="#F2733A"/>
<path d="M82.9777 50.9158C83.3126 50.9158 83.584 50.6443 83.584 50.3094C83.584 49.9746 83.3126 49.7031 82.9777 49.7031C82.6429 49.7031 82.3714 49.9746 82.3714 50.3094C82.3714 50.6443 82.6429 50.9158 82.9777 50.9158Z" fill="#F1F2CE"/>
<path d="M80.4383 50.9158C80.7731 50.9158 81.0446 50.6443 81.0446 50.3094C81.0446 49.9746 80.7731 49.7031 80.4383 49.7031C80.1034 49.7031 79.832 49.9746 79.832 50.3094C79.832 50.6443 80.1034 50.9158 80.4383 50.9158Z" fill="#F1F2CE"/>
<path d="M77.9747 50.3083C78.3095 50.3083 78.581 50.0369 78.581 49.702C78.581 49.3672 78.3095 49.0957 77.9747 49.0957C77.6398 49.0957 77.3684 49.3672 77.3684 49.702C77.3684 50.0369 77.6398 50.3083 77.9747 50.3083Z" fill="#F1F2CE"/>
<path d="M75.4353 49.5134C75.7701 49.5134 76.0416 49.242 76.0416 48.9071C76.0416 48.5722 75.7701 48.3008 75.4353 48.3008C75.1004 48.3008 74.829 48.5722 74.829 48.9071C74.829 49.242 75.1004 49.5134 75.4353 49.5134Z" fill="#F1F2CE"/>
<path d="M72.858 49.0837C73.1929 49.0837 73.4643 48.8123 73.4643 48.4774C73.4643 48.1425 73.1929 47.8711 72.858 47.8711C72.5232 47.8711 72.2517 48.1425 72.2517 48.4774C72.2517 48.8123 72.5232 49.0837 72.858 49.0837Z" fill="#F1F2CE"/>
<path d="M70.2681 49.0837C70.603 49.0837 70.8744 48.8123 70.8744 48.4774C70.8744 48.1425 70.603 47.8711 70.2681 47.8711C69.9332 47.8711 69.6618 48.1425 69.6618 48.4774C69.6618 48.8123 69.9332 49.0837 70.2681 49.0837Z" fill="#F1F2CE"/>
<path d="M67.7919 49.5134C68.1267 49.5134 68.3982 49.242 68.3982 48.9071C68.3982 48.5722 68.1267 48.3008 67.7919 48.3008C67.457 48.3008 67.1855 48.5722 67.1855 48.9071C67.1855 49.242 67.457 49.5134 67.7919 49.5134Z" fill="#F1F2CE"/>
<path d="M65.3788 50.4607C65.7137 50.4607 65.9852 50.1892 65.9852 49.8544C65.9852 49.5195 65.7137 49.248 65.3788 49.248C65.044 49.248 64.7725 49.5195 64.7725 49.8544C64.7725 50.1892 65.044 50.4607 65.3788 50.4607Z" fill="#F1F2CE"/>
<path d="M63.4332 52.0271C63.768 52.0271 64.0395 51.7556 64.0395 51.4208C64.0395 51.0859 63.768 50.8145 63.4332 50.8145C63.0983 50.8145 62.8269 51.0859 62.8269 51.4208C62.8269 51.7556 63.0983 52.0271 63.4332 52.0271Z" fill="#F1F2CE"/>
<path d="M62.0435 54.1618C62.3784 54.1618 62.6498 53.8904 62.6498 53.5555C62.6498 53.2207 62.3784 52.9492 62.0435 52.9492C61.7086 52.9492 61.4372 53.2207 61.4372 53.5555C61.4372 53.8904 61.7086 54.1618 62.0435 54.1618Z" fill="#F1F2CE"/>
<path d="M61.1589 56.2829C61.4938 56.2829 61.7652 56.0115 61.7652 55.6766C61.7652 55.3418 61.4938 55.0703 61.1589 55.0703C60.8241 55.0703 60.5526 55.3418 60.5526 55.6766C60.5526 56.0115 60.8241 56.2829 61.1589 56.2829Z" fill="#F1F2CE"/>
<path d="M60.5526 58.8494C60.8875 58.8494 61.1589 58.5779 61.1589 58.243C61.1589 57.9082 60.8875 57.6367 60.5526 57.6367C60.2178 57.6367 59.9463 57.9082 59.9463 58.243C59.9463 58.5779 60.2178 58.8494 60.5526 58.8494Z" fill="#F1F2CE"/>
<path d="M60.4263 61.6521C60.7612 61.6521 61.0326 61.3806 61.0326 61.0458C61.0326 60.7109 60.7612 60.4395 60.4263 60.4395C60.0915 60.4395 59.82 60.7109 59.82 61.0458C59.82 61.3806 60.0915 61.6521 60.4263 61.6521Z" fill="#F1F2CE"/>
<path d="M89.4716 42.8196C90.0653 42.6049 90.8485 42.668 91.4422 43.0849C92.339 43.7038 92.2127 44.9038 92.0611 45.2701C92.2127 45.0428 92.7937 44.6512 93.3748 44.6765C95.3453 44.7775 95.5474 46.4954 95.5474 46.7101C96.3053 40.7228 96.1158 36.0996 96.1158 36.0996C96.1158 36.0996 94.0695 40.8238 89.4716 42.807V42.8196Z" fill="#F1F2CE"/>
<g style="mix-blend-mode:multiply" opacity="0.31">
<path d="M53.4274 67.5408C52.1387 67.6039 48.2981 68.046 44.2679 71.0524C39.3786 74.7155 22.6515 73.9071 16.8273 62.9429C16.3346 61.9955 15.8797 61.0355 15.4628 60.0376V60.0124C15.147 59.2418 14.8564 58.446 14.5785 57.6503C13.3404 53.9871 12.6202 50.1345 12.2033 46.7492C11.4453 40.7492 11.6348 36.1387 11.6348 36.1387C11.6348 36.1387 13.6688 56.0587 21.6281 62.665C35.2853 73.9829 46.163 64.9008 50.2942 66.0503C51.5702 66.4039 52.6062 66.9597 53.4274 67.5534V67.5408Z" fill="#F5BAE6"/>
</g>
<g style="mix-blend-mode:soft-light">
<path d="M95.978 36.4277C96.0791 40.6467 92.1752 47.973 90.0149 53.5562C88.8147 56.6762 84.5065 58.5456 79.4025 59.0383C77.7096 59.2025 75.9029 59.2277 74.1089 59.0762C81.386 57.4341 82.0429 51.1056 82.0429 51.1056C78.7455 52.1793 74.9428 48.213 68.3353 49.7414C65 50.5119 63.2691 53.0509 62.3721 55.3751C62.1447 55.2235 61.9047 55.0593 61.6773 54.8825C61.2982 54.5919 60.9698 54.2888 60.6918 53.9856C56.9522 50.0067 60.9571 45.0677 64.3556 41.9856C69.6113 40.3309 74.6395 40.8867 81.1333 42.9835C84.2918 44.0067 86.8943 43.8046 89.0042 43.0088C89.0042 43.0088 89.0294 42.9835 89.0673 42.9835C89.1305 42.9583 89.1937 42.933 89.2568 42.9077C89.32 42.8825 89.3832 42.8572 89.4463 42.8319H89.4716C93.3628 41.1519 95.4348 37.5141 95.978 36.4404V36.4277Z" fill="#F5E9BA"/>
</g>
</svg>
