<svg width="50" height="69" viewBox="0 0 50 69" fill="none" xmlns="http://www.w3.org/2000/svg">
<path d="M48.6662 35.7854C48.6662 35.7854 50.3464 47.3348 41.8653 55.7144C33.7643 63.714 19.4425 64.674 14.4118 66.3439C9.37121 68.0138 23.653 48.1748 23.653 48.1748L48.6762 35.7854H48.6662Z" fill="#34B059"/>
<path d="M35.9441 47.7246L34.8541 55.3446L32.4141 48.3046L35.9441 47.7246Z" fill="white"/>
<path d="M30.5435 52.2844L29.5835 60.4044L27.3535 54.0844L30.5435 52.2844Z" fill="white"/>
<path d="M25.0028 55.7644L23.8228 62.9944L22.1428 55.7644H25.0028Z" fill="white"/>
<path d="M39.455 15.6464C39.045 15.3864 38.7949 15.2564 38.7949 15.2564C38.7949 15.2564 35.7746 3.95697 25.3132 1.68708C14.8619 -0.572809 11.5815 7.3368 11.5815 7.3368C11.5815 7.3368 11.3314 7.13681 10.7514 6.85682C9.38119 6.20685 6.18079 5.11691 0 5.20691V66.4439C0 66.4439 12.8516 72.7836 17.7923 65.4939C18.8924 63.874 19.6025 61.5741 19.6825 58.3943C19.7725 58.3943 20.9827 58.4143 22.6629 58.0743C23.293 57.9443 23.9831 57.7643 24.7032 57.5143C25.7633 57.1443 26.8934 56.6244 27.9836 55.8944C28.8137 55.3344 29.6138 54.6645 30.3539 53.8345C31.344 52.7146 32.2141 51.3246 32.8542 49.6047C32.9542 49.3447 33.0442 49.0747 33.1242 48.7948C33.1242 48.7948 34.2344 48.5448 35.9046 47.9848C39.635 46.7148 46.1159 43.835 48.7862 38.4953C49.5763 36.9153 50.0464 35.1254 49.9964 33.0955C49.7863 22.946 41.8153 17.1563 39.445 15.6564L39.455 15.6464ZM47.9361 31.5856C48.4062 31.5856 48.7962 31.9656 48.7962 32.4456C48.7962 32.9255 48.4162 33.3055 47.9361 33.3055C47.456 33.3055 47.076 32.9255 47.076 32.4456C47.076 31.9656 47.456 31.5856 47.9361 31.5856ZM12.0315 34.3555C13.2717 27.8358 17.1622 21.9361 24.1631 24.436C30.7139 26.7858 29.4337 37.2353 29.1637 39.0452C29.1337 39.2252 29.1237 39.3152 29.1237 39.3152C26.7934 37.6653 11.9415 34.8554 11.9415 34.8554C11.9715 34.6854 12.0015 34.5155 12.0315 34.3455V34.3555Z" fill="#288744"/>
<path d="M11.9308 54.7244C13.3308 54.7244 15.0808 55.8544 12.7708 58.6544C10.4608 61.4544 6.31082 60.8344 6.31082 60.8344C6.31082 60.8344 8.28081 54.7244 11.9408 54.7244H11.9308Z" fill="#10361C"/>
<path d="M19.6925 58.3843C19.6925 58.3843 19.6925 50.4147 7.22092 48.3348C7.22092 48.3348 5.21067 46.5149 10.0913 47.7648C14.9719 49.0148 19.7525 52.5946 19.6925 58.3743V58.3843Z" fill="#10361C"/>
<path d="M34.1844 41.685C34.1844 41.685 22.6429 34.8453 0.0100098 34.9053V33.7154C0.0100098 33.7154 19.2625 32.5854 34.1844 41.685Z" fill="#10361C"/>
<path d="M38.5849 19.7761C38.5849 19.7761 39.9751 13.7364 33.1042 6.64676C26.2333 -0.442891 15.472 0.437068 10.3013 10.5466C10.3013 10.5466 9.80124 8.78666 10.8714 6.58676C12.6816 2.86695 20.6326 -2.48279 28.9437 1.28702C37.2547 5.05684 41.4153 12.7465 38.5749 19.7761H38.5849Z" fill="#3AC264"/>
<path d="M29.7338 26.0957C29.2137 21.7159 24.003 20.496 20.2826 21.1559C20.7726 21.1959 21.2527 21.2159 21.7428 21.2459C24.9632 21.4359 28.7436 22.6659 29.7338 26.0957Z" fill="#164A26"/>
<path d="M2.97 17.1562C2.69 18.9262 1.34001 19.7962 0.0100098 19.8162V19.3362C0.91001 19.3362 1.8 18.9262 2.41 18.0462C2.62 17.7762 2.78001 17.4662 2.93001 17.1362H2.97V17.1562Z" fill="#164A26"/>
<path d="M2.97 7.7368C2.69 9.5068 1.34001 10.3768 0.0100098 10.3968V9.9168C0.91001 9.9168 1.8 9.5068 2.41 8.6268C2.62 8.3568 2.78001 8.0468 2.93001 7.7168H2.97V7.7368Z" fill="#164A26"/>
<path d="M11.4207 14.3963C11.4607 17.6763 6.7007 18.3363 5.6507 15.3063C5.5507 14.9363 5.46069 14.5763 5.50069 14.2063H5.55069C5.88069 16.4663 8.52069 17.5763 10.3307 16.1563C10.8707 15.7163 11.2207 15.0663 11.3707 14.3863H11.4207V14.3963Z" fill="#164A26"/>
<path d="M7.76026 23.7359C7.80026 27.0159 3.04025 27.6759 1.99025 24.6459C1.89025 24.2759 1.80026 23.9159 1.84026 23.5459H1.89025C2.22025 25.8059 4.86026 26.9159 6.67026 25.4959C7.21026 25.0559 7.56025 24.4059 7.71025 23.7259H7.76026V23.7359Z" fill="#164A26"/>
</svg>
