<svg width="400" height="200" viewBox="0 0 400 200" fill="none" xmlns="http://www.w3.org/2000/svg">
<g clip-path="url(#clip0_215_4505)">
<path d="M0.360013 34.9801C6.72001 36.4901 13.29 36.4801 19.72 35.3801C26.36 34.2401 32.78 32.0301 38.99 29.4601C45.5 26.7701 51.83 23.6901 58.2 20.7001C64.55 17.7201 70.96 14.8101 77.62 12.5601C83.99 10.4001 90.63 8.8401 97.38 8.6601C100.66 8.5701 104.01 8.7201 107.18 9.5701C110.28 10.4001 113.41 11.9201 115.37 14.5401C117.76 17.7301 117.7 21.8401 116.18 25.4001C114.55 29.2001 111.65 32.3201 108.63 35.0901C102.75 40.4801 95.78 44.4801 88.77 48.2201C81.87 51.9001 74.76 55.3301 68.39 59.9001C62.35 64.2401 56.89 69.5601 52.96 75.8901C49.1 82.1101 46.91 89.3901 47.67 96.7301C48.38 103.66 51.75 110.1 56.73 114.95C61.63 119.73 67.99 122.95 74.81 123.8C82.6 124.78 90.5 122.84 97.39 119.24C104.58 115.48 110.62 109.94 115.56 103.57C120.62 97.0501 124.55 89.7401 127.83 82.2101C131.2 74.4901 133.73 66.4401 137.07 58.7101C140.25 51.3601 144.29 44.4301 150.19 38.9101C155.43 34.0001 161.74 30.3501 168.41 27.7201C175.21 25.0401 182.37 23.3301 189.58 22.1201C193.17 21.5101 196.78 21.0301 200.4 20.6201C204.54 20.1501 208.98 19.4101 213.05 20.6601C219.2 22.5501 222.14 28.7701 223.07 34.6701C224.13 41.3701 222.88 48.1301 220.49 54.4101C217.96 61.0601 214.08 67.2001 209.22 72.4001C204.49 77.4701 198.82 81.6801 192.52 84.6201C186.1 87.6201 179.11 89.1501 172.02 89.0401C162.94 88.9001 154.12 86.4801 145.35 84.4101C140.97 83.3701 136.56 82.4101 132.09 81.8101C127.54 81.2001 122.95 81.0201 118.37 81.2201C109.13 81.6301 100.01 83.5201 91.14 86.0401C82.3 88.5501 73.57 91.5801 64.98 94.8501C61.6 96.1401 58.19 97.6701 55.57 100.22C52.79 102.93 51.43 106.53 51.08 110.34C50.7 114.49 51.38 118.68 52.09 122.77C52.86 127.24 53.81 131.69 54.94 136.09C57.19 144.85 60.16 153.44 63.82 161.72C66.92 168.73 70.67 175.69 76.12 181.19C78.8 183.9 81.91 186.2 85.4 187.77C89.31 189.54 93.55 190.42 97.81 190.81C105.52 191.52 113.43 191 121.08 189.92C128.48 188.88 135.77 187.15 142.87 184.83C150.02 182.49 156.97 179.56 163.67 176.15C170.5 172.67 177.07 168.68 183.34 164.29C189.69 159.85 195.76 154.99 201.51 149.8C207.34 144.54 212.84 138.94 218.02 133.04C223.36 126.97 228.21 120.53 233.04 114.06C238.05 107.36 243.2 100.66 249.47 95.0501C255.36 89.7801 262.39 85.6701 270.23 84.1401C277.73 82.6701 285.55 83.9901 291.66 88.7101C297.65 93.3301 301.52 100.24 303.99 107.25C306.87 115.41 308.56 124.71 306.01 133.17C304.06 139.65 299.65 144.97 294.14 148.82C288.61 152.68 282.21 155.18 275.71 156.87C268.48 158.76 261.02 159.64 253.73 161.25C246.37 162.88 239 165.2 232.79 169.56C229.7 171.73 227.09 174.37 224.64 177.21C222.21 180.03 219.9 182.98 217.11 185.46C214.29 187.97 210.92 189.81 207.12 190.25C203.15 190.7 199.17 189.72 195.56 188.12C191.7 186.41 188.15 184.05 184.83 181.47C181.65 179 178.63 176.31 175.76 173.49C170.1 167.9 164.94 161.57 161.66 154.28C158.51 147.26 157.52 139.39 159.92 132C162.05 125.45 166.62 120.11 171.99 115.9C177.48 111.6 183.76 108.37 190.05 105.4C198.71 101.33 207.4 97.3301 216.08 93.3001C223.26 89.9601 230.67 86.8401 237.18 82.2701C240.21 80.1401 243.03 77.7001 245.36 74.8201C247.9 71.6801 249.69 68.1301 251.06 64.3601C252.52 60.3601 253.58 56.2201 255.07 52.2301C256.33 48.8601 257.86 45.5901 259.61 42.4501C263.1 36.2201 267.5 30.5201 272.62 25.5401C277.61 20.6801 283.27 16.5201 289.42 13.2301C295.5 9.9801 302.06 7.6001 308.85 6.3101C315.71 5.0001 322.93 4.7701 329.82 5.9901C333.73 6.6901 337.58 7.9401 340.88 10.1901C344.26 12.4901 346.73 15.8001 348.49 19.4401C352.15 27.0301 353.14 35.8901 352.66 44.2201C352.16 52.9001 350.01 61.4001 347.33 69.6401C344.57 78.1301 341.23 86.4101 338.11 94.7701C334.93 103.29 332.13 111.92 330.09 120.78C328.01 129.79 326.62 138.95 325.93 148.17C325.26 157.05 324.71 166.5 327.57 175.07C329.79 181.71 334.67 188.31 341.82 190.04C346.05 191.06 350.45 190.24 354.47 188.78C358.17 187.44 361.75 185.64 365.12 183.63C371.23 179.98 376.98 175.09 379.83 168.43C381.33 164.92 381.92 161.08 381.69 157.28C381.46 153.4 380.45 149.62 379.16 145.97C376.42 138.22 372.4 130.91 370.42 122.89C368.19 113.83 368.89 104.37 369.99 95.2001C371.13 85.6601 372.46 76.1401 373.71 66.6101C374.02 64.2401 374.33 61.8701 374.64 59.5001C374.93 57.2801 375.16 55.0201 375.84 52.8801C376.84 49.6901 379.05 47.3001 382.17 46.0601C384.85 44.9901 387.78 44.7201 390.64 44.7801C393.58 44.8301 396.5 45.2401 399.37 45.8501C400 45.9801 400.27 45.0201 399.64 44.8901C396.55 44.2401 393.39 43.8001 390.23 43.7801C387.15 43.7601 383.99 44.1401 381.16 45.4201C378.24 46.7401 376.12 49.0901 375.05 52.1001C374.32 54.1701 374.06 56.3601 373.77 58.5301C373.45 60.9401 373.14 63.3501 372.82 65.7601C371.57 75.3401 370.25 84.9101 369.07 94.5001C367.95 103.65 367.2 113.05 369.21 122.13C371.01 130.24 375.03 137.61 377.87 145.36C379.24 149.1 380.38 152.99 380.66 156.99C380.93 160.86 380.37 164.78 378.78 168.33C375.78 175.06 369.76 179.86 363.48 183.43C359.9 185.47 356.11 187.33 352.15 188.5C348.07 189.7 343.63 190.03 339.65 188.27C332.45 185.1 328.64 177.27 327.28 169.95C326.44 165.46 326.36 160.86 326.49 156.3C326.62 151.65 326.95 147.01 327.45 142.38C328.45 133.05 330.18 123.8 332.62 114.74C334.97 106 338.1 97.5201 341.33 89.0701C344.51 80.7201 347.74 72.3701 350.16 63.7601C352.48 55.4801 354.04 46.8901 353.73 38.2701C353.58 34.0101 352.96 29.7601 351.84 25.6401C350.78 21.7801 349.23 17.9801 346.87 14.7101C344.55 11.4901 341.48 8.9801 337.86 7.3401C334.26 5.7101 330.36 4.9101 326.44 4.5001C319.62 3.8001 312.7 4.3101 306.03 5.8601C299.32 7.4201 292.86 10.0301 286.9 13.4601C280.8 16.9701 275.2 21.3501 270.32 26.4001C265.37 31.5101 261.13 37.3201 257.83 43.6101C256.15 46.8001 254.72 50.1101 253.54 53.5101C252.11 57.6301 251.03 61.8801 249.38 65.9201C247.86 69.6601 245.74 73.0701 242.96 76.0101C240.36 78.7601 237.33 81.0601 234.13 83.0701C230.94 85.0701 227.58 86.7801 224.19 88.4001C220.1 90.3501 215.97 92.2401 211.86 94.1501C203.53 98.0201 195.12 101.78 186.87 105.81C180.62 108.86 174.45 112.31 169.2 116.91C164.07 121.4 160 127.1 158.38 133.78C156.55 141.34 158.03 149.11 161.39 156.02C164.88 163.19 170.14 169.44 175.86 174.96C178.75 177.75 181.79 180.4 185 182.83C188.34 185.36 191.91 187.65 195.79 189.28C199.35 190.77 203.25 191.67 207.13 191.23C210.86 190.81 214.2 189.18 217.06 186.81C219.95 184.42 222.31 181.47 224.73 178.63C227.21 175.72 229.79 172.93 232.9 170.69C239.13 166.19 246.56 163.84 254 162.19C261.29 160.58 268.75 159.7 275.98 157.81C282.5 156.11 288.95 153.6 294.51 149.75C299.98 145.97 304.43 140.82 306.63 134.5C309.51 126.2 308.18 117.01 305.58 108.82C303.33 101.73 299.8 94.7201 294.27 89.6001C291.58 87.1101 288.43 85.1401 284.96 83.9501C281.43 82.7301 277.64 82.3401 273.93 82.6201C266.17 83.2101 258.72 86.5301 252.57 91.1901C245.94 96.2101 240.54 102.61 235.49 109.16C230.44 115.72 225.65 122.47 220.32 128.82C215.25 134.85 209.84 140.61 204.1 146.02C198.4 151.41 192.37 156.47 186.04 161.11C179.79 165.69 173.25 169.87 166.43 173.55C159.73 177.17 152.77 180.3 145.59 182.83C138.51 185.33 131.23 187.24 123.83 188.48C116.21 189.75 108.41 190.35 100.69 189.99C96.33 189.79 91.95 189.17 87.83 187.67C84.08 186.3 80.7 184.12 77.79 181.4C72.07 176.04 68.19 168.99 65.01 161.93C61.29 153.65 58.31 145.03 56.03 136.26C54.88 131.83 53.91 127.35 53.12 122.84C52.4 118.7 51.69 114.45 52.1 110.23C52.48 106.24 54.12 102.64 57.25 100.06C60.16 97.6601 63.79 96.3201 67.29 95.0601C76.16 91.8501 85.06 88.6701 94.18 86.2401C103.18 83.8401 112.44 82.1701 121.78 82.1401C126.41 82.1301 131.02 82.5501 135.59 83.3501C140.07 84.1401 144.5 85.2201 148.92 86.2901C157.61 88.3801 166.51 90.4701 175.52 89.9801C182.32 89.6101 188.96 87.6501 194.99 84.5201C201.17 81.3101 206.7 76.8801 211.26 71.6401C215.92 66.2801 219.58 60.0801 221.94 53.3901C224.17 47.0701 225.14 40.3201 223.93 33.6801C222.87 27.8801 219.82 22.0501 213.97 19.9101C209.94 18.4301 205.49 19.0601 201.33 19.5201C197.72 19.9201 194.12 20.3801 190.53 20.9601C183.31 22.1201 176.13 23.7501 169.28 26.3301C162.58 28.8501 156.21 32.3201 150.8 37.0301C144.81 42.2601 140.49 48.8801 137.19 56.0501C133.67 63.7201 131.15 71.7801 127.9 79.5601C124.7 87.2401 120.87 94.7301 115.92 101.46C111.08 108.05 105.1 113.86 97.89 117.84C90.93 121.69 82.89 123.79 74.92 122.81C67.98 121.96 61.51 118.5 56.71 113.49C51.75 108.32 48.69 101.52 48.54 94.3401C48.39 86.8201 51.32 79.6601 55.69 73.6401C60.12 67.5401 65.96 62.4701 72.33 58.4601C79.08 54.1901 86.34 50.7801 93.31 46.9001C100.24 43.0301 106.99 38.6201 112.41 32.7701C115.11 29.8401 117.55 26.2601 118.17 22.2501C118.71 18.7501 117.66 15.2601 115.13 12.7401C110.41 8.0301 102.95 7.4401 96.64 7.7001C89.91 7.9801 83.3 9.5701 76.96 11.7501C70.31 14.0301 63.9 16.9501 57.55 19.9301C51.1 22.9601 44.69 26.0901 38.09 28.7801C31.85 31.3201 25.41 33.5001 18.74 34.5501C12.73 35.5001 6.58001 35.4401 0.660013 34.0301C0.030013 33.8801 -0.229987 34.8401 0.390013 34.9901L0.360013 34.9801Z" fill="black"/>
<path d="M0.360009 66.32C9.98001 67.92 19.62 69.36 29.3 70.49C38.92 71.61 48.59 72.53 58.27 72.83C67.69 73.12 77.16 72.75 86.44 71.04C94.72 69.52 102.81 66.91 110.2 62.86C116.74 59.28 122.75 54.65 127.76 49.13C132.79 43.59 136.81 37.12 139.28 30.06C140.53 26.48 141.24 22.8 141.95 19.09C142.63 15.56 143.36 11.89 145.13 8.71002C145.97 7.21002 147.06 5.84002 148.46 4.83002C150.23 3.54002 152.34 2.91002 154.48 2.58002C156.76 2.23002 159.09 2.16002 161.4 2.01002L169.09 1.51002C171.52 1.35002 173.94 1.17002 176.37 1.05002C178.45 0.950019 180.59 0.940019 182.59 1.62002C186.52 2.96002 188.11 6.95002 188.86 10.69C189.8 15.35 190.03 20.23 190.04 24.97C190.04 29.79 189.53 34.53 189.05 39.31C188.61 43.61 188.32 48.08 189.47 52.3C190.49 56.04 192.72 59.24 195.86 61.52C198.8 63.65 202.34 64.87 205.93 65.3C210.5 65.84 215.15 65.02 219.55 63.86C224.29 62.61 228.94 61.01 233.64 59.64C238.37 58.26 243.13 56.97 247.92 55.8C257.47 53.46 267.13 51.56 276.87 50.24C286.64 48.92 296.51 48.2 306.37 48.2C310.74 48.2 315.14 48.26 319.49 48.72C323.02 49.1 326.59 49.79 329.87 51.2C333.05 52.56 335.93 54.64 337.84 57.55C339.82 60.57 340.62 64.12 340.53 67.7C340.44 71.38 339.54 74.98 338.52 78.5C337.45 82.21 336.21 85.87 335.29 89.62C334.4 93.24 333.79 96.99 334.08 100.72C334.39 104.82 335.73 108.85 337.84 112.37C338.94 114.2 340.27 115.82 341.72 117.37C343.37 119.13 344.98 120.91 346.57 122.72C349.37 125.93 352.06 129.23 354.57 132.67C358.27 137.75 361.71 143.16 364.02 149.02C365.49 152.74 366.59 156.76 366.36 160.8C366.21 163.47 365.36 166.18 363.6 168.21C362.03 170.02 359.92 171.19 357.6 171.74C355.23 172.3 352.7 172.2 350.34 171.59C347.88 170.95 345.55 169.75 343.66 168.04C343.17 167.59 342.7 167.12 342.27 166.61C341.14 165.28 340.05 163.95 338.81 162.72C336.28 160.23 333.38 158.1 330.2 156.52C324.11 153.48 317.3 152.52 310.57 152.14C303.3 151.73 296 151.87 288.76 151.03C284.87 150.58 281.01 149.85 277.25 148.72C272.84 147.4 268.59 145.55 264.44 143.57C255.95 139.51 247.87 134.66 239.44 130.49C231.03 126.33 222.27 122.87 213.28 120.15C204.34 117.45 195.19 115.5 185.93 114.31C181.26 113.71 176.56 113.31 171.86 113.11C167.53 112.93 163.17 112.84 158.86 113.26C154.81 113.65 150.78 114.51 147.1 116.3C143.67 117.97 140.79 120.45 138.44 123.42C133.86 129.2 131.15 136.15 126.97 142.18C124.81 145.29 122.22 148.08 118.97 150.09C115.5 152.23 111.51 153.46 107.47 153.94C98.5 154.99 89.74 152.44 81.34 149.58C76.86 148.05 72.4 146.43 67.85 145.12C63.43 143.85 58.94 142.84 54.41 142.07C45.28 140.51 35.98 139.89 26.72 140.2C17.85 140.49 9.00001 141.64 0.360009 143.68C-0.269991 143.83 8.52346e-06 144.79 0.630009 144.64C9.70001 142.5 18.99 141.36 28.31 141.15C37.67 140.95 47.06 141.68 56.26 143.41C60.77 144.26 65.23 145.34 69.62 146.68C74.22 148.09 78.73 149.77 83.3 151.28C91.6 154.02 100.3 156.12 109.07 154.71C113.03 154.07 116.89 152.7 120.23 150.47C123.34 148.39 125.84 145.6 127.95 142.54C132.14 136.45 134.83 129.39 139.55 123.65C142.04 120.62 145.09 118.21 148.71 116.66C152.55 115.02 156.75 114.35 160.9 114.1C165.34 113.83 169.83 113.98 174.27 114.23C178.97 114.5 183.65 114.96 188.31 115.63C197.66 116.97 206.9 119.11 215.89 122C224.94 124.91 233.7 128.6 242.14 132.96C250.52 137.29 258.65 142.13 267.29 145.97C271.29 147.75 275.39 149.34 279.65 150.41C283.4 151.35 287.23 151.92 291.08 152.27C298.3 152.92 305.56 152.73 312.79 153.29C319.57 153.81 326.36 155.17 332.22 158.77C335.49 160.78 338.35 163.39 340.79 166.34C341.78 167.54 342.77 168.66 344.01 169.61C346.08 171.2 348.54 172.29 351.1 172.79C353.59 173.28 356.2 173.24 358.64 172.52C361 171.82 363.16 170.46 364.69 168.52C366.49 166.23 367.3 163.38 367.42 160.5C367.58 156.39 366.44 152.28 364.92 148.49C362.55 142.63 359.15 137.21 355.42 132.12C352.92 128.7 350.25 125.41 347.47 122.22C345.87 120.38 344.23 118.57 342.56 116.79C341.08 115.22 339.74 113.58 338.65 111.72C336.52 108.11 335.22 103.95 335.07 99.76C334.94 95.93 335.69 92.14 336.68 88.46C338.58 81.32 341.75 74.13 341.58 66.63C341.5 63.12 340.53 59.63 338.51 56.73C336.56 53.93 333.76 51.86 330.65 50.48C323.47 47.31 315.2 47.3 307.49 47.25C297.66 47.19 287.83 47.86 278.09 49.13C268.34 50.4 258.66 52.24 249.1 54.54C244.27 55.7 239.47 56.98 234.69 58.35C229.93 59.72 225.24 61.3 220.47 62.63C215.94 63.89 211.21 64.85 206.49 64.4C202.81 64.05 199.15 62.77 196.18 60.54C192.93 58.11 190.9 54.6 190.13 50.65C189.27 46.25 189.81 41.69 190.29 37.28C190.83 32.38 191.17 27.49 191.03 22.55C190.96 20.02 190.78 17.49 190.51 14.98C190.29 12.97 190.03 10.95 189.52 8.98002C188.57 5.32002 186.59 1.91002 182.8 0.660019C180.85 0.0200193 178.75 -0.0199807 176.71 0.0700193C174.3 0.170019 171.9 0.370019 169.5 0.520019L161.81 1.02002C159.5 1.17002 157.18 1.26002 154.88 1.56002C152.77 1.84002 150.65 2.36002 148.81 3.46002C147.33 4.35002 146.08 5.57002 145.1 6.98002C143.05 9.92002 142.13 13.52 141.41 16.97C140.64 20.65 140.08 24.36 138.97 27.96C136.73 35.22 132.83 41.91 127.82 47.63C122.84 53.32 116.82 58.07 110.21 61.76C102.83 65.88 94.74 68.51 86.44 70.06C77.07 71.81 67.48 72.15 57.96 71.84C48.23 71.52 38.52 70.59 28.86 69.45C19.42 68.34 10.03 66.93 0.660009 65.37C0.0300086 65.27 -0.239991 66.22 0.390009 66.33L0.360009 66.32Z" fill="black"/>
<path d="M399.64 89.0101C389.31 87.3401 379.87 92.6501 372.37 99.2401C368.41 102.73 364.8 106.63 361.47 110.72C358.15 114.79 355.11 119.1 352.47 123.63C347.12 132.81 343.43 142.95 342.34 153.54C341.84 158.44 341.79 163.38 341.49 168.3C341.2 173.06 340.71 177.88 339.16 182.41C337.65 186.85 334.97 190.87 331.04 193.53C327 196.27 322.12 197.47 317.3 197.88C312.15 198.31 306.93 197.94 301.81 197.31C296.44 196.65 291.13 195.57 285.91 194.16C275.32 191.29 265.15 187.05 255.4 182.07C245.4 176.97 235.82 171.1 226.45 164.94C221.75 161.85 217.1 158.68 212.48 155.48C207.83 152.27 203.24 148.96 198.54 145.82C193.8 142.66 188.81 139.72 183.33 138.02C178.5 136.52 173.41 136.08 168.38 136.1C158.28 136.14 148.19 138.08 138.09 137.22C133.23 136.8 128.4 135.62 124.14 133.19C119.36 130.47 115.69 126.35 112.45 121.99C109.19 117.59 106.09 113.04 103.1 108.46C100.1 103.87 97.27 99.1501 94.91 94.2001C92.56 89.2601 90.7 84.0601 89.69 78.6701C88.75 73.7001 88.71 68.6501 88.43 63.6201C88.17 58.9801 87.78 54.1801 86.04 49.8201C84.42 45.7601 81.53 42.1901 77.43 40.4301C73.42 38.7101 68.84 38.8101 64.72 40.1201C60.22 41.5501 56.39 44.3401 53.42 47.9701C50.17 51.9401 47.94 56.6201 46.25 61.4301C44.5 66.4201 43.48 71.5701 42.14 76.6701C39.51 86.7201 35.61 96.3801 31.38 105.86C27.23 115.17 22.78 124.35 18.98 133.82C15.23 143.17 12.15 152.83 10.76 162.83C10.02 168.09 9.77001 173.4 9.93001 178.7C10.09 183.96 10.96 189.36 14.58 193.44C17.68 196.93 22.21 199.02 26.79 199.7C32.85 200.6 38.95 199.34 44.86 198.07C50.07 196.95 55.31 195.66 59.22 191.82C61.14 189.93 62.71 187.73 64.53 185.76C66.3 183.84 68.35 182.31 70.7 181.16C75.29 178.9 80.39 177.97 85.02 175.81C86.38 175.18 87.68 174.45 89.07 173.89C90.32 173.39 91.61 172.97 92.9 172.59C96.22 171.61 99.61 170.86 102.98 170.06C105.31 169.5 107.64 168.93 109.97 168.34C111.31 168 112.64 167.65 113.97 167.29C114.69 167.1 115.42 166.9 116.14 166.7C116.89 166.49 117.54 166.24 118.24 165.9C123.49 163.34 129.16 161.61 134.94 160.78C137.77 160.37 140.65 160.19 143.51 160.23C146.53 160.27 149.51 160.67 152.52 160.84C155.42 161 158.36 160.89 161.12 159.9C163.57 159.02 165.76 157.6 167.82 156.03C169.92 154.43 171.9 152.68 173.99 151.06C175.87 149.6 177.82 148.24 179.81 146.94C187.77 141.74 196.37 137.62 204.63 132.92C212.69 128.33 220.53 123.06 226.55 115.93C228.1 114.09 229.49 112.15 230.81 110.14C232.14 108.12 233.44 106.05 235.12 104.29C236.84 102.49 238.97 101.13 241.5 100.87C244.38 100.56 247.26 101.54 249.86 102.68C252.52 103.84 255.08 105.22 257.72 106.42C260.45 107.66 263.23 108.79 266.05 109.82C268.85 110.85 271.7 111.77 274.57 112.58C277.15 113.31 279.84 114.14 282.55 114.05C285.18 113.96 287.36 112.79 288.96 110.73C290.67 108.53 291.83 105.89 293.12 103.45C296.12 97.8101 299.11 92.1801 302.11 86.5401C302.84 85.1601 303.58 83.7801 304.31 82.3901C304.84 81.3801 305.54 79.8401 306.89 79.8401C308.12 79.8401 309.3 80.8801 310.14 81.6701C310.93 82.4201 311.62 83.2801 312.19 84.2101C314.61 88.1501 315.21 92.9901 315.41 97.5101C315.67 103.38 315.43 109.31 315.1 115.18C314.75 121.43 314.17 127.66 313.35 133.86C312.53 140.09 311.46 146.29 310.15 152.43C308.88 158.41 307.25 164.48 307.63 170.64C308.21 180.19 314.15 188.4 322.1 193.44C331.52 199.42 342.97 200.17 353.84 199.48C359.18 199.14 364.53 198.61 369.84 197.92C373.17 197.49 376.4 196.74 379.17 194.76C380.8 193.59 382.22 192.16 383.54 190.66C385.11 188.86 386.49 186.96 387.52 184.81C389.61 180.44 390.35 175.56 390.35 170.75C390.35 165.78 389.54 160.87 388.42 156.04C387.53 152.23 387.25 148.21 387.07 144.31C387.03 143.4 387 142.48 387.01 141.57C387.01 141 386.94 140.28 387.15 139.73C387.59 138.6 389.17 138.16 390.22 137.87C391.9 137.42 393.63 137.22 395.35 137C396.77 136.82 398.25 136.71 399.63 136.29C400.24 136.1 399.98 135.14 399.36 135.33C397.91 135.77 396.36 135.87 394.86 136.06C393.13 136.28 391.38 136.49 389.7 136.97C388.47 137.32 387 137.87 386.35 139.07C386.03 139.65 386.03 140.3 386.01 140.94C385.98 141.8 386.01 142.66 386.03 143.52C386.17 147.53 386.51 151.61 387.29 155.54C387.72 157.72 388.27 159.88 388.62 162.08C389.03 164.62 389.28 167.18 389.33 169.75C389.43 174.6 388.82 179.59 386.76 184.03C385.75 186.21 384.39 188.13 382.82 189.93C381.52 191.42 380.12 192.86 378.49 193.99C375.66 195.96 372.35 196.6 368.99 197C363.57 197.65 358.11 198.23 352.66 198.53C346.67 198.86 340.61 198.74 334.73 197.46C329.91 196.41 325.36 194.53 321.32 191.72C317.51 189.07 314.21 185.63 311.92 181.6C309.34 177.06 308.32 171.99 308.63 166.8C309 160.58 310.79 154.51 311.97 148.42C313.14 142.36 314.09 136.25 314.8 130.12C315.52 123.98 316 117.82 316.26 111.65C316.39 108.54 316.46 105.43 316.47 102.32C316.47 99.8201 316.46 97.3201 316.22 94.8301C315.82 90.4801 314.87 85.8801 312.11 82.3501C311.45 81.5001 310.69 80.7401 309.83 80.0801C308.9 79.3701 307.77 78.6801 306.55 78.8301C305.39 78.9801 304.6 79.8601 304.02 80.8001C303.25 82.0501 302.62 83.3901 301.93 84.6801C298.95 90.2801 295.98 95.8801 293 101.48C291.63 104.05 290.39 106.75 288.79 109.19C288.08 110.27 287.22 111.31 286.11 112C284.98 112.7 283.66 112.99 282.34 113.01C279.6 113.05 276.87 112.17 274.27 111.42C271.36 110.58 268.49 109.63 265.65 108.58C262.85 107.53 260.08 106.38 257.36 105.13C254.7 103.9 252.11 102.49 249.4 101.38C246.92 100.36 244.2 99.5701 241.49 99.8401C239.08 100.08 236.94 101.18 235.17 102.8C233.43 104.4 232.07 106.38 230.77 108.34C229.43 110.36 228.12 112.39 226.59 114.28C220.72 121.56 212.95 126.93 204.9 131.57C196.7 136.3 188.12 140.39 180.14 145.5C178.15 146.77 176.2 148.11 174.32 149.53C172.28 151.07 170.34 152.73 168.35 154.33C166.31 155.96 164.16 157.51 161.75 158.56C158.97 159.76 155.97 159.99 152.98 159.85C150.04 159.71 147.12 159.31 144.17 159.23C141.26 159.16 138.35 159.32 135.46 159.69C129.83 160.43 124.33 162 119.15 164.35C118.5 164.65 117.86 164.97 117.21 165.27C116.46 165.62 115.62 165.79 114.82 166C113.45 166.37 112.08 166.74 110.7 167.09C108.34 167.7 105.97 168.29 103.59 168.86C100.15 169.69 96.68 170.46 93.27 171.42C90.7 172.15 88.19 173.03 85.82 174.27C81.33 176.62 76.33 177.62 71.69 179.6C69.38 180.58 67.2 181.84 65.33 183.53C63.36 185.31 61.79 187.47 60.04 189.46C58.27 191.48 56.31 193.18 53.87 194.35C51.4 195.54 48.7 196.2 46.03 196.79C40.04 198.11 33.85 199.54 27.67 198.82C22.98 198.27 18.33 196.23 15.2 192.66C11.51 188.45 10.95 182.74 10.88 177.39C10.81 172.14 11.1 166.91 11.91 161.71C13.46 151.75 16.64 142.13 20.45 132.81C24.3 123.38 28.77 114.22 32.88 104.9C37.06 95.4401 40.88 85.7801 43.4 75.7401C44.67 70.6601 45.76 65.5601 47.58 60.6401C49.36 55.8301 51.77 51.1501 55.27 47.3401C61.14 40.9501 71.85 37.3001 79.55 42.7701C83.29 45.4301 85.29 49.7501 86.27 54.1001C87.33 58.8101 87.4 63.6701 87.63 68.4701C87.88 73.6301 88.41 78.7101 89.81 83.7001C91.28 88.9201 93.47 93.9201 96.03 98.6901C98.61 103.5 101.57 108.09 104.63 112.6C107.69 117.1 110.71 121.69 114.2 125.87C117.52 129.85 121.44 133.26 126.22 135.37C130.61 137.3 135.36 138.13 140.13 138.35C150.28 138.83 160.36 136.87 170.51 137.12C175.68 137.25 180.8 138.01 185.63 139.9C191.01 142 195.88 145.19 200.61 148.46C209.84 154.83 218.98 161.32 228.39 167.43C237.72 173.48 247.28 179.22 257.26 184.15C266.98 188.95 277.11 193 287.64 195.66C292.84 196.97 298.12 197.94 303.45 198.51C308.49 199.05 313.63 199.34 318.68 198.75C323.38 198.2 328.09 196.88 331.97 194.09C335.71 191.4 338.32 187.56 339.88 183.28C341.5 178.83 342.06 174.06 342.38 169.37C342.72 164.48 342.76 159.57 343.19 154.68C344.13 144.07 347.69 133.91 352.98 124.68C355.62 120.08 358.66 115.71 362.01 111.59C365.33 107.5 368.93 103.59 372.88 100.09C380.1 93.7001 389.32 88.3601 399.33 89.9801C399.96 90.0801 400.23 89.1201 399.6 89.0201L399.64 89.0101Z" fill="black"/>
</g>
<defs>
<clipPath id="clip0_215_4505">
<rect width="400" height="200" fill="white"/>
</clipPath>
</defs>
</svg>
