<svg width="400" height="199" viewBox="0 0 400 199" fill="none" xmlns="http://www.w3.org/2000/svg">
<path d="M0.861276 83.8C17.1013 68.08 39.1813 60.49 59.2113 60.49C73.2113 60.49 86.1913 64.2 95.4613 71.39C99.6113 74.61 102.311 78.86 104.211 83.51C107.061 90.48 108.061 98.3 109.411 104.65C110.091 107.83 110.851 110.64 112.001 112.82C113.151 114.99 114.761 116.56 117.051 117.05C117.571 117.16 118.101 117.22 118.641 117.21C121.541 117.21 124.661 115.68 127.861 113.11C137.451 105.39 147.931 88.04 153.791 71.16C158.921 56.38 160.301 46.43 161.301 38.28C162.301 30.13 162.921 23.82 166.501 16.18C168.841 11.17 172.571 7.39 177.211 4.85C181.841 2.31 187.391 1.01 193.341 1.01C204.221 1.01 216.451 5.36 226.851 14.31C239.681 25.33 246.921 45.34 246.911 63.49C246.911 76.4 243.251 88.34 235.491 95.44C209.921 118.89 189.951 134.45 176.341 145.6C169.541 151.18 164.331 155.65 160.791 159.49C159.021 161.41 157.671 163.16 156.761 164.83C155.841 166.5 155.361 168.08 155.361 169.63C155.361 170.29 155.451 170.95 155.631 171.59C156.031 173.02 157.171 174.2 158.801 175.18C161.261 176.65 164.891 177.72 169.301 178.44C173.711 179.16 178.901 179.52 184.431 179.52C195.971 179.52 208.981 177.96 219.471 174.78C224.721 173.19 229.331 171.19 232.821 168.76C236.311 166.33 238.701 163.45 239.371 160.07C239.481 159.51 239.541 158.94 239.541 158.39C239.541 155.9 238.461 153.54 236.641 151.26C233.461 147.27 227.991 143.47 221.581 139.55C211.961 133.68 200.191 127.57 190.861 120.53C186.191 117.01 182.141 113.25 179.271 109.2C176.401 105.14 174.701 100.8 174.701 96.05V95.83C174.781 87.94 179.561 80.47 187.551 73.59C199.531 63.28 218.691 54.42 239.451 47.63C260.221 40.84 282.611 36.11 301.081 34C311.531 32.81 320.651 31.81 328.411 31.81C333.921 31.81 338.741 32.31 342.851 33.59C346.961 34.87 350.371 36.92 353.121 40.02C357.361 44.83 359.031 51.07 359.031 58.25C359.031 70.86 353.851 86.28 348.641 101.27C343.431 116.27 338.201 130.84 338.191 141.95C338.191 147.54 339.531 152.3 342.951 155.72C344.501 157.27 346.311 158.78 348.731 159.89C351.151 161 354.171 161.71 358.131 161.71C366.401 161.71 378.791 158.64 398.741 149.7C398.991 149.59 399.101 149.29 398.991 149.04C398.881 148.79 398.581 148.68 398.331 148.79C378.451 157.71 366.161 160.72 358.131 160.72C354.281 160.72 351.421 160.03 349.141 158.99C346.861 157.94 345.161 156.52 343.651 155.02C340.481 151.85 339.181 147.4 339.181 141.96C339.181 131.15 344.361 116.6 349.571 101.61C354.781 86.6 360.011 71.13 360.021 58.26C360.021 50.93 358.311 44.4 353.861 39.36C350.991 36.1 347.391 33.95 343.141 32.63C338.891 31.31 333.971 30.8 328.401 30.8C320.561 30.8 311.421 31.8 300.961 32.99C276.221 35.81 244.581 43.3 219.021 54.15C206.241 59.58 194.991 65.84 186.881 72.82C178.781 79.79 173.781 87.49 173.681 95.8V96.03C173.681 103.65 177.841 110.22 183.971 116.04C193.171 124.78 206.871 131.96 218.261 138.71C223.951 142.08 229.061 145.35 232.721 148.61C234.551 150.24 236.011 151.87 237.011 153.5C238.011 155.13 238.541 156.74 238.541 158.38C238.541 158.87 238.491 159.37 238.391 159.87C237.801 162.89 235.621 165.59 232.251 167.93C227.201 171.45 219.531 174.11 210.991 175.87C202.441 177.64 193.011 178.51 184.431 178.51C177.121 178.51 170.421 177.87 165.411 176.62C162.911 176 160.831 175.22 159.321 174.31C157.811 173.4 156.891 172.38 156.601 171.31C156.451 170.75 156.371 170.19 156.371 169.62C156.371 168.28 156.791 166.87 157.651 165.3C159.151 162.56 162.011 159.41 166.161 155.61C178.611 144.2 202.591 126.97 236.181 96.17C244.231 88.78 247.921 76.57 247.921 63.48C247.921 45.07 240.631 24.84 227.511 13.54C216.941 4.44 204.501 0 193.351 0C187.261 0 181.551 1.33 176.741 3.96C171.941 6.59 168.041 10.54 165.611 15.75C161.951 23.56 161.321 30.03 160.321 38.16C159.321 46.29 157.951 56.13 152.851 70.84C148.981 81.99 143.041 93.39 136.741 101.97C133.591 106.26 130.341 109.84 127.241 112.34C124.131 114.84 121.181 116.23 118.641 116.22C118.171 116.22 117.711 116.17 117.261 116.08C115.961 115.8 114.941 115.14 114.071 114.13C112.551 112.37 111.541 109.49 110.731 105.99C109.501 100.74 108.661 94.1 106.721 87.68C104.791 81.26 101.741 75.02 96.0613 70.62C86.5613 63.26 73.3713 59.51 59.2013 59.51C38.9213 59.51 16.6113 67.18 0.151273 83.1C-0.0487268 83.29 -0.0487251 83.61 0.141275 83.81C0.331275 84.01 0.651274 84.01 0.851274 83.82L0.861276 83.8Z" fill="black"/>
<path d="M0.47128 131.37C3.59128 131.67 6.56128 131.85 9.42128 131.85C20.8213 131.86 30.6213 128.88 42.1113 118.46C48.0413 113.09 51.5813 106.85 53.8313 100.2C57.2113 90.2102 57.7313 79.2902 59.2013 68.8102C60.6813 58.3202 63.1013 48.2902 70.1713 40.0102C83.4713 24.4202 108.011 15.1802 129.871 15.1902C144.641 15.1902 158.161 19.4002 166.191 28.5502C172.571 35.8002 175.421 46.0602 175.421 57.3002C175.421 70.4402 171.531 84.8902 164.931 97.3302C158.341 109.77 149.051 120.18 138.341 125.3C131.881 128.38 125.381 129.33 118.911 129.33C108.741 129.33 98.6613 126.97 89.1113 126.97C81.2713 126.97 73.7513 128.58 66.9213 134.46C62.2113 138.52 59.5813 144.26 57.8213 150.31C56.0713 156.35 55.1813 162.71 54.0213 168.03C53.7413 169.3 53.6113 170.52 53.6113 171.71C53.6113 176.94 56.3213 181.27 61.1413 184.7C68.3713 189.86 80.3613 193.19 95.7113 195.28C111.061 197.36 129.761 198.17 150.381 198.17C212.751 198.17 292.591 190.76 349.371 188.64C352.711 188.52 355.341 187.47 357.141 185.89C358.941 184.31 359.901 182.2 359.901 180.02C359.901 176.31 357.151 172.5 351.551 170.64C345.131 168.5 335.911 166.91 328.301 164.86C324.501 163.84 321.111 162.7 318.711 161.36C317.511 160.69 316.561 159.97 315.941 159.22C315.311 158.46 314.991 157.69 314.991 156.84C314.991 156.46 315.051 156.06 315.201 155.63C319.071 143.81 323.101 121.05 323.101 100.45C323.101 91.7102 322.371 83.3602 320.591 76.3902C318.801 69.4302 315.961 63.8202 311.631 60.6302C303.051 54.3202 291.921 51.7302 280.331 51.7302C266.761 51.7302 252.541 55.2902 240.981 60.6902C235.201 63.3902 230.081 66.5602 226.041 69.9802C222.001 73.4102 219.031 77.1002 217.571 80.8702C216.661 83.2302 216.241 85.7802 216.241 88.4602C216.241 94.9502 218.701 102.18 222.701 109.4C228.701 120.23 238.191 131.03 248.251 139.15C258.321 147.26 268.941 152.72 277.361 152.73C279.351 152.73 281.211 152.42 282.911 151.76C286.051 150.54 288.841 148.03 291.261 144.57C298.521 134.19 302.661 115.1 302.661 94.6402C302.661 80.1802 300.581 65.0302 296.011 51.8302C291.441 38.6302 284.371 27.3502 274.341 20.6702C267.751 16.2802 260.731 14.4702 253.051 14.4702C235.921 14.4802 215.491 23.3902 188.281 32.6702C161.081 41.9502 127.121 51.6402 83.0313 53.2602C78.9013 53.4102 74.9413 53.4802 71.1213 53.4802C40.8113 53.4802 19.9013 48.9802 0.63128 44.7602C0.36128 44.7002 0.101284 44.8702 0.0412835 45.1402C-0.0187165 45.4102 0.151281 45.6802 0.421281 45.7402C19.7013 49.9602 40.7213 54.4902 71.1213 54.4902C74.9513 54.4902 78.9213 54.4202 83.0613 54.2702C127.271 52.6402 161.351 42.9202 188.591 33.6202C215.831 24.3202 236.251 15.4602 253.041 15.4702C260.561 15.4702 267.351 17.2302 273.781 21.5002C283.551 28.0002 290.531 39.0802 295.061 52.1602C299.591 65.2302 301.661 80.2802 301.661 94.6402C301.661 108.19 299.821 121.13 296.491 131.25C294.831 136.31 292.791 140.65 290.441 144C288.091 147.35 285.431 149.71 282.541 150.83C280.971 151.44 279.231 151.73 277.351 151.73C272.021 151.73 265.561 149.38 258.901 145.41C248.911 139.46 238.461 129.92 230.541 119.51C222.611 109.1 217.221 97.8102 217.231 88.4602C217.231 85.8902 217.631 83.4602 218.491 81.2402C219.861 77.6802 222.721 74.1002 226.681 70.7502C238.551 60.6702 260.221 52.7202 280.321 52.7302C291.761 52.7302 302.681 55.3002 311.031 61.4402C315.071 64.4102 317.861 69.7902 319.621 76.6402C321.381 83.4802 322.101 91.7602 322.101 100.45C322.101 120.92 318.081 143.65 314.251 155.32C314.081 155.84 313.991 156.35 313.991 156.85C313.991 157.97 314.431 158.99 315.171 159.88C316.471 161.43 318.681 162.66 321.431 163.74C325.561 165.36 330.931 166.63 336.321 167.85C341.711 169.07 347.101 170.24 351.231 171.61C356.551 173.39 358.891 176.85 358.891 180.04C358.891 181.93 358.071 183.75 356.471 185.16C354.871 186.56 352.481 187.54 349.321 187.66C292.501 189.78 212.661 197.19 150.371 197.19C122.921 197.19 98.8813 195.75 81.7513 191.8C73.1913 189.83 66.3613 187.22 61.7113 183.9C57.0613 180.57 54.6113 176.6 54.6013 171.73C54.6013 170.63 54.7313 169.47 54.9913 168.27C56.1613 162.9 57.0413 156.57 58.7713 150.62C60.5013 144.67 63.0713 139.11 67.5613 135.25C74.1713 129.56 81.3813 128.01 89.1013 128C98.5013 128 108.581 130.36 118.901 130.36C125.471 130.36 132.141 129.4 138.761 126.23C149.751 120.98 159.141 110.4 165.811 97.8302C172.471 85.2502 176.411 70.6702 176.411 57.3302C176.411 45.9302 173.531 35.4202 166.941 27.9202C158.621 18.4602 144.821 14.2202 129.871 14.2202C107.731 14.2202 82.9913 23.5102 69.4113 39.3902C59.7213 50.7502 58.6013 65.1702 56.9113 79.3002C56.0713 86.3702 55.0913 93.3702 52.8813 99.9102C50.6713 106.45 47.2313 112.51 41.4413 117.75C30.0613 128.03 20.6413 130.87 9.41128 130.88C6.59128 130.88 3.65128 130.7 0.551282 130.4C0.281282 130.37 0.0312809 130.58 0.0112809 130.85C-0.0187191 131.12 0.191282 131.37 0.461282 131.39L0.47128 131.37Z" fill="black"/>
<path d="M398.309 56.8405C339.859 86.3105 292.14 85.61 251.73 85.61C193.7 85.61 152.3 61.42 121.88 30.66C109.19 17.84 86.72 9.01 66.17 9C52.41 9 39.47 12.98 31 22.51C29.31 24.42 27.88 27.57 26.64 31.7C22.94 44.09 21 65.39 21 87.84C21 102.14 21.79 116.89 23.42 130.08C25.05 143.27 27.52 154.89 30.91 162.95C33.76 169.73 37.65 174.3 42.28 177.14C46.91 179.99 52.26 181.11 58.02 181.11C67.15 181.11 77.34 178.3 87.54 174.99C97.74 171.68 107.94 167.86 117.05 165.79C148.92 158.56 170.22 151.59 190.8 144.1C211.37 136.61 231.22 128.62 260.23 119.31C279.73 113.06 315 103.03 355.72 103.04C369.41 103.04 383.71 104.17 398.24 106.96C398.51 107.01 398.77 106.83 398.82 106.56C398.87 106.29 398.69 106.03 398.42 105.97C383.82 103.17 369.45 102.03 355.71 102.03C314.83 102.03 279.46 112.08 259.92 118.35C230.87 127.66 211.01 135.67 190.46 143.15C169.91 150.63 148.67 157.58 116.84 164.81C107.63 166.9 97.41 170.73 87.24 174.03C77.07 177.33 66.96 180.1 58.03 180.1C52.4 180.1 47.24 179 42.81 176.28C38.38 173.55 34.63 169.19 31.84 162.55C28.51 154.64 26.04 143.08 24.42 129.94C22.8 116.8 22.01 102.08 22.01 87.82C22.01 72.89 22.87 58.47 24.53 46.89C25.36 41.1 26.39 36.03 27.61 31.97C28.82 27.91 30.24 24.86 31.75 23.16C39.96 13.91 52.59 9.99 66.18 9.99C86.45 9.99 108.76 18.77 121.18 31.35C151.72 62.25 193.42 86.6 251.74 86.6C292.34 86.6 340.219 87.2405 398.769 57.7305C399.125 57.5508 399.119 57.3105 398.989 57.0605C398.869 56.8105 398.569 56.7105 398.319 56.8405H398.309Z" fill="black"/>
</svg>
