<svg width="307" height="201" viewBox="0 0 307 201" fill="none" xmlns="http://www.w3.org/2000/svg">
<path d="M24.7 89.92H25.7V45.73H1V2H22.41V25.26H90.82V24.27H23.41V2H306V24.26H132.59V25.26H241.21V45.22H156.2V132.32H67.55V89.76H133.79V110.87H90.14V111.87H134.78V88.77H47.44V69.3H91.32V46.22H134.13V68.31H110.86V69.3H135.13V45.22H112.72V24.76H111.72V45.22H46.34V46.21H90.33V68.3H46.34V89.76H66.56V133.31H157.21V68.95H265.22L266.22 68.9V46.21H306.96V45.48H307.01V1.99V1H0V46.73H24.7V89.93V89.92ZM305.95 45.22H265.21V67.96H157.2V46.21H242.21V25.26H305.94V45.22H305.95Z" fill="black"/>
<path d="M307 155.33H285.29V178.05H221.04V112.34H179.28V113.33H220.05V178.05H200.5V133.56H199.5V200.01H46.84V178.05H23.41V133.32H46.84V110.65H22.91V111.65H45.84V132.33H22.41V179.05H45.84V200.02H1V71.1201H0V201H307V155.32V155.33ZM200.5 200.01V179.04H220.54H286.28V156.32H306V200.01H200.5Z" fill="black"/>
<path d="M244.31 155.33V156.32H263.87V133.31H307V68.3003V67.3203H306H284.61V110.87H266.21V89.4303H265.21V111.87H285.61V68.3203H306V132.32H242.22L242.1 89.4303H178.28V178.05H67.5501V158.04H156.02V157.05H67.0501H66.5601H46.3401V158.04H66.5601V179.04H179.27V90.4203H241.1V133.31H262.88V155.33H244.31Z" fill="black"/>
</svg>
