<svg width="401" height="200" viewBox="0 0 401 200" fill="none" xmlns="http://www.w3.org/2000/svg">
<path d="M0.611467 45.0276C11.7028 41.4234 22.8041 37.8403 33.9154 34.3309C43.7266 31.2326 54.7079 28.7033 64.229 34.215C68.0694 36.4386 71.3598 39.8953 72.96 44.3742C74.7602 49.4011 74.3202 54.9233 72.84 59.9713C69.7496 70.4993 62.4588 78.3295 57.1881 87.498C54.7078 91.8083 52.6376 96.5401 51.8875 101.609C51.2374 105.983 51.5475 110.472 52.6476 114.73C54.9079 123.414 60.3585 131.086 67.3993 135.733C74.7602 140.591 83.7113 141.614 92.0123 139.569C100.543 137.472 108.474 132.255 114.205 125.005C120.406 117.164 124.776 106.014 122.026 95.5917C120.866 91.1866 118.485 87.087 115.185 84.2416C111.515 81.0801 107.024 79.9208 102.423 80.6058C97.5829 81.3224 92.7223 83.5672 88.7419 86.6655C85.2915 89.3423 82.1311 92.9992 80.9909 97.5835C79.9408 101.799 80.8809 106.246 83.2912 109.682C85.7215 113.159 89.2519 115.552 92.8223 117.364C97.2029 119.577 101.913 121.063 106.574 122.412C111.985 123.972 117.535 125.121 123.136 125.332C132.487 125.69 142.188 123.182 149.539 116.585C153.069 113.423 155.81 109.345 157.61 104.76C159.45 100.102 160.36 95.1069 160.91 90.0905C162.041 79.7943 161.66 69.3085 163.971 59.1914C166.111 49.8016 170.151 40.9175 175.702 33.393C181.253 25.8579 188.334 19.6718 196.445 15.762C204.606 11.8311 213.727 10.4189 222.568 11.399C231.409 12.3791 240.06 15.8357 247.201 21.6636C251.091 24.8357 254.731 28.7455 257.012 33.4878C257.462 34.4152 257.852 35.3005 258.412 36.1541C259.042 37.092 259.712 37.9878 260.402 38.8731C264.433 44.037 268.803 48.8636 272.944 53.9011C275.024 56.4303 277.084 58.9807 278.974 61.6785C280.234 63.4701 281.665 65.4408 282.315 67.6223C282.685 68.8764 282.385 70.3202 282.225 71.6902C281.905 74.5778 281.415 77.4337 280.765 80.258C279.494 85.7908 277.614 91.1549 275.164 96.1818C273.524 99.5436 271.833 102.979 268.943 105.234C266.613 107.047 263.923 108.227 261.202 109.123C254.581 111.326 247.611 112.116 240.78 113.149C234.279 114.129 227.518 115.035 221.428 117.849C220.167 118.429 218.947 119.093 217.807 119.915C216.477 120.863 215.357 122.033 214.217 123.234C210.716 126.933 207.386 130.843 204.396 135.048C198.645 143.131 194.024 152.479 192.764 162.754C191.624 172.049 193.374 182.756 200.095 189.195C203.865 192.81 208.766 194.296 213.627 195.044C219.017 195.866 224.478 196.119 229.909 195.951C240.98 195.613 251.951 193.463 262.622 190.312C273.474 187.119 284.045 182.904 294.486 178.362C302.957 174.673 311.388 170.805 319.379 165.989C326.99 161.405 334.291 155.925 340.252 148.938C346.292 141.845 350.623 133.257 352.543 123.751C354.663 113.275 354.003 102.442 352.743 91.8926C351.443 80.9325 349.463 70.0672 348.813 59.0228C348.493 53.6165 348.493 48.1786 349.083 42.7934C349.673 37.4293 350.843 32.023 353.233 27.249C355.383 22.9598 358.534 19.4399 362.494 17.1741C366.175 15.0664 370.325 14.0863 374.446 13.7702C382.837 13.1273 391.268 14.9505 399.379 17.1636C399.999 17.3322 400.269 16.2784 399.649 16.1097C391.318 13.8439 382.627 11.9681 374.006 12.7163C369.995 13.0641 365.995 14.0336 362.374 16.0149C358.514 18.1331 355.303 21.4106 353.043 25.4469C350.523 29.9258 349.163 35.1002 348.413 40.2747C347.652 45.5651 347.482 50.9292 347.682 56.2617C348.092 67.2113 349.973 77.9922 351.373 88.8259C352.733 99.3856 353.733 110.251 352.063 120.842C350.523 130.559 346.572 139.464 340.632 146.851C334.911 153.965 327.77 159.54 320.279 164.187C312.428 169.056 304.127 172.945 295.766 176.623C285.455 181.154 275.014 185.391 264.313 188.668C253.661 191.935 242.73 194.254 231.669 194.77C226.198 195.034 220.707 194.855 215.277 194.159C210.306 193.527 205.106 192.325 201.165 188.732C194.244 182.43 192.564 171.533 193.854 162.238C195.294 151.889 200.145 142.53 206.076 134.49C209.086 130.411 212.406 126.596 215.887 123.003C217.917 120.905 220.297 119.451 222.898 118.376C229.118 115.826 235.869 114.972 242.41 113.992C249.151 112.991 256.052 112.169 262.542 109.808C265.163 108.86 267.743 107.627 269.943 105.782C272.784 103.411 274.504 99.9125 276.144 96.5085C278.554 91.5238 280.414 86.2229 281.695 80.7639C282.315 78.0871 282.795 75.3681 283.135 72.6281C283.295 71.3424 283.495 70.0146 283.515 68.7183C283.515 68.3705 283.475 68.0228 283.395 67.6961C282.925 65.5883 281.585 63.6598 280.434 61.9525C278.654 59.3179 276.684 56.8203 274.694 54.3753C270.513 49.2219 266.103 44.311 261.942 39.1365C260.712 37.5979 259.332 36.0171 258.452 34.1939C257.422 32.0757 256.382 30.0839 254.991 28.2186C253.481 26.1846 251.751 24.3404 249.931 22.6436C243.2 16.4259 234.889 12.4423 226.228 10.8404C217.587 9.23858 208.566 9.91305 200.245 12.9798C191.984 16.0149 184.533 21.4212 178.492 28.2818C172.432 35.1635 167.761 43.4784 164.801 52.4678C163.311 56.9994 162.291 61.6785 161.71 66.4525C161.08 71.627 160.87 76.8435 160.56 82.0496C159.95 92.1245 158.93 102.916 153.039 111.136C147.359 119.061 138.188 123.192 129.207 124.067C123.676 124.604 118.095 124.014 112.665 122.834C107.464 121.706 102.273 120.136 97.2829 118.176C90.282 115.425 81.261 110.188 81.571 100.682C81.731 95.8867 84.5214 91.8083 87.7818 88.8575C91.5122 85.4852 96.1927 83.1245 100.903 82.018C103.484 81.4173 106.184 81.2697 108.764 81.9548C110.814 82.5028 112.725 83.5461 114.405 84.9477C117.775 87.772 120.156 91.9769 121.216 96.4558C123.726 107.015 118.815 118.207 112.265 125.743C106.214 132.698 98.073 137.493 89.4119 139.011C80.951 140.486 72.2199 138.526 65.3091 132.877C58.7483 127.502 53.9878 119.251 52.8076 110.314C52.1976 105.709 52.6776 101.051 54.1078 96.6771C55.748 91.6502 58.4683 87.1397 61.3186 82.84C64.179 78.5297 67.2793 74.3775 69.7896 69.7932C72.2799 65.2406 74.2802 60.2137 74.9402 54.9128C75.5603 49.928 74.8202 44.7641 72.2499 40.5171C69.9196 36.6705 66.4092 33.8988 62.5488 32.1494C52.6976 27.6811 41.9263 30.6108 32.1452 33.7618C21.5439 37.1763 10.9427 40.5382 0.351436 43.9737C-0.268637 44.174 0.00139503 45.2278 0.621468 45.0276H0.611467Z" fill="black"/>
<path d="M0.501395 79.7531C11.8714 78.8231 23.2214 77.5931 34.5314 76.0331C45.7914 74.4831 57.0114 72.6331 68.1814 70.4731C79.3514 68.3131 90.4614 65.8431 101.501 63.0731C107.031 61.6831 112.541 60.2231 118.031 58.6931C120.751 57.9331 123.451 57.1131 126.211 56.5131C128.751 55.9631 131.321 55.5731 133.901 55.3231C144.001 54.3631 154.131 55.6231 164.231 55.8331C166.681 55.8831 169.121 55.8431 171.561 56.0631C173.721 56.2531 175.861 56.5831 177.981 57.0731C182.111 58.0231 186.111 59.5431 189.841 61.6431C193.521 63.7131 196.911 66.3131 199.931 69.3231C201.511 70.8931 202.981 72.5731 204.361 74.3431C205.701 76.0631 206.801 77.9731 208.201 79.6331C210.371 82.2231 213.261 83.9231 216.351 85.0231C219.081 85.9931 221.941 86.4831 224.691 87.4031C226.961 88.1631 229.171 89.3831 230.121 91.8031C230.701 93.2831 230.801 94.9231 230.731 96.5031C230.671 97.8331 230.871 99.0431 231.371 100.273C232.561 103.183 234.781 105.613 236.911 107.813C239.491 110.473 242.261 112.923 244.921 115.493C247.211 117.693 249.621 119.993 251.241 122.793C252.131 124.333 252.521 126.093 253.181 127.743C254.141 130.133 255.351 132.393 256.731 134.553C259.461 138.813 262.761 142.753 266.241 146.363C269.531 149.773 273.601 152.703 278.461 151.553C280.901 150.973 283.091 149.633 285.291 148.443C287.191 147.423 289.111 146.433 291.041 145.473C294.591 143.703 298.171 142.013 301.711 140.233C307.801 137.163 313.961 133.763 318.681 128.623C323.761 123.093 326.371 115.933 327.321 108.433C328.111 102.153 325.241 96.0931 321.981 91.0131C317.811 84.5131 312.581 78.7831 307.411 73.1431C302.271 67.5331 296.931 62.0231 292.421 55.8331C290.611 53.3431 288.921 50.7231 287.701 47.8631C285.641 43.0331 283.601 38.1931 281.071 33.6131C278.591 29.1331 275.631 24.9131 271.941 21.4231C268.241 17.9231 263.981 15.1431 259.541 12.7731C254.841 10.2731 249.941 8.12314 244.981 6.24314C239.881 4.31314 234.651 2.72314 229.321 1.64314C218.141 -0.616864 206.711 -0.326863 195.461 1.19314C189.801 1.96314 184.181 3.01314 178.581 4.17314C173.201 5.29314 167.781 6.38314 162.461 7.78314C157.641 9.04314 152.831 10.7431 148.741 13.7431C145.281 16.2831 142.471 19.6631 140.391 23.5031C136.041 31.5531 134.871 41.1331 135.861 50.2131C137.101 61.5731 141.251 72.2531 145.081 82.8731C149.011 93.7831 152.591 104.853 155.201 116.193C157.791 127.433 159.421 138.953 159.351 150.523C159.291 159.863 158.181 169.283 154.721 177.973C151.641 185.713 146.531 192.813 139.081 196.383C130.651 200.433 121.211 198.993 112.501 196.843C103.491 194.613 94.4614 191.443 85.1014 191.533C82.7314 191.553 80.3714 191.823 78.0514 192.303C75.3314 192.873 72.6614 193.673 69.9214 194.173C67.1714 194.673 64.3914 194.743 61.6214 194.293C58.9914 193.863 56.4314 193.053 53.9514 192.073C51.4014 191.063 48.9114 189.883 46.4314 188.683C44.5114 187.753 42.6214 186.783 40.7814 185.693C37.2114 183.593 33.6714 181.053 31.2014 177.583C28.7914 174.183 27.7114 169.923 28.7114 165.773C29.7614 161.423 32.7514 157.853 36.1214 155.193C43.6514 149.273 53.2514 148.143 61.6814 144.183C65.8214 142.233 69.5914 139.533 72.3614 135.743C74.9814 132.153 76.6414 127.823 77.2014 123.353C77.7614 118.863 77.1514 114.303 75.3614 110.173C73.6314 106.173 70.8514 102.693 67.4714 100.073C63.9914 97.3731 59.8714 95.7031 55.5514 95.2731C50.7614 94.7931 45.9214 95.8131 41.5114 97.7631C32.3314 101.833 25.6014 109.853 20.4514 118.523C19.1814 120.663 17.9914 122.853 16.8514 125.063C15.7714 127.173 14.7514 129.353 13.3214 131.243C10.3714 135.133 5.2314 136.943 0.621395 135.613C0.00139487 135.433 -0.268605 136.443 0.351395 136.613C4.87139 137.913 10.1214 136.423 13.3114 132.823C14.9014 131.033 16.0314 128.863 17.1214 126.713C18.2814 124.443 19.4614 122.183 20.7414 119.983C25.8414 111.183 32.4814 102.963 41.7114 98.7731C46.1614 96.7631 51.0914 95.7631 55.9314 96.3431C60.2714 96.8631 64.4014 98.7531 67.7714 101.633C71.1014 104.473 73.7314 108.233 75.1614 112.473C76.6014 116.763 76.7414 121.443 75.7214 125.853C74.6914 130.313 72.5014 134.483 69.3414 137.693C65.9514 141.143 61.5814 143.273 57.1614 144.923C52.7014 146.583 48.0914 147.803 43.6814 149.613C39.6614 151.263 35.8414 153.633 32.7614 156.803C29.8614 159.793 27.6614 163.613 27.3514 167.923C27.0514 172.033 28.5714 175.943 31.0714 179.073C33.7014 182.373 37.2314 184.833 40.8114 186.883C44.9914 189.283 49.4114 191.383 53.8814 193.123C58.8714 195.063 64.0414 196.123 69.3614 195.283C72.1114 194.853 74.7814 194.063 77.4914 193.453C79.9014 192.913 82.3214 192.583 84.7914 192.543C94.1614 192.383 103.201 195.593 112.221 197.813C120.861 199.943 130.131 201.363 138.581 197.693C146.041 194.463 151.411 187.833 154.771 180.333C158.421 172.173 159.901 163.213 160.251 154.273C160.691 142.833 159.411 131.373 157.101 120.193C154.751 108.833 151.361 97.7331 147.551 86.8131C143.831 76.1631 139.431 65.6331 137.471 54.4231C135.831 45.0431 136.171 35.0831 140.091 26.3231C141.891 22.2931 144.431 18.6231 147.731 15.7831C151.571 12.4631 156.291 10.5431 161.061 9.18314C166.201 7.71314 171.471 6.68314 176.691 5.57314C182.321 4.37314 187.971 3.26314 193.661 2.43314C204.921 0.783136 216.441 0.243137 227.681 2.33314C238.281 4.29314 248.651 8.22314 258.271 13.2231C262.781 15.5631 267.141 18.3131 270.921 21.8131C274.691 25.3131 277.701 29.5531 280.211 34.0931C282.711 38.6131 284.741 43.3831 286.761 48.1431C287.981 51.0331 289.661 53.6831 291.481 56.2031C295.931 62.3231 301.171 67.7931 306.251 73.3331C311.451 79.0031 316.731 84.7331 320.961 91.2531C324.301 96.4031 327.151 102.363 326.281 108.743C325.741 112.713 324.751 116.653 323.051 120.273C321.611 123.343 319.681 126.113 317.351 128.513C312.451 133.563 306.141 136.853 299.981 139.913C296.411 141.683 292.811 143.383 289.261 145.183C287.311 146.173 285.381 147.183 283.461 148.233C281.131 149.513 278.641 150.833 275.941 150.753C271.121 150.623 267.481 146.273 264.461 142.863C261.061 139.023 257.841 134.943 255.471 130.313C254.881 129.163 254.341 127.973 253.881 126.763C253.521 125.813 253.261 124.813 252.891 123.863C252.391 122.573 251.641 121.423 250.811 120.333C248.741 117.603 246.211 115.263 243.741 112.943C241.081 110.453 238.361 108.003 235.941 105.253C234.151 103.223 232.101 100.743 231.731 97.9031C231.641 97.1831 231.731 96.4631 231.731 95.7431C231.731 94.9031 231.681 94.0731 231.541 93.2431C231.321 91.9231 230.831 90.6531 230.031 89.6031C228.481 87.5631 226.021 86.6531 223.691 85.9931C220.841 85.1731 217.931 84.6131 215.181 83.4431C213.701 82.8131 212.281 82.0031 211.021 80.9831C209.551 79.7831 208.421 78.3331 207.351 76.7531C202.441 69.5231 195.981 63.4531 188.281 59.6331C184.531 57.7731 180.541 56.4431 176.441 55.6731C174.291 55.2731 172.121 55.0131 169.941 54.8931C167.421 54.7531 164.881 54.8131 162.361 54.7331C152.381 54.4331 142.361 53.2731 132.391 54.4331C129.801 54.7331 127.231 55.1831 124.691 55.7731C121.921 56.4231 119.201 57.2731 116.461 58.0331C111.011 59.5431 105.531 60.9831 100.041 62.3531C88.9914 65.1031 77.8814 67.5431 66.7114 69.6831C55.5514 71.8231 44.3314 73.6531 33.0814 75.1731C22.2514 76.6331 11.3814 77.8031 0.481395 78.6931C-0.158605 78.7431 -0.158605 79.7831 0.481395 79.7331L0.501395 79.7531Z" fill="black"/>
<path d="M399.651 92.3235C391.811 90.1235 383.951 87.9835 376.001 86.2835C368.081 84.5935 360.051 83.3335 351.971 82.9835C343.781 82.6335 335.681 83.5135 327.581 84.6435C319.521 85.7735 311.431 87.0335 303.271 87.0035C299.201 86.9835 295.161 86.6035 291.161 85.8135C287.241 85.0435 283.391 83.9735 279.541 82.8735C275.691 81.7735 271.841 80.6435 267.941 79.7735C263.991 78.8935 259.981 78.3435 255.961 77.8735C248.351 76.9735 240.591 76.2335 233.411 73.2535C227.151 70.6635 221.571 66.3835 218.451 60.0435C216.771 56.6235 215.731 52.9235 214.421 49.3435C213.191 45.9735 211.641 42.7935 209.621 39.8635C205.671 34.1435 200.421 29.5535 194.831 25.6335C188.581 21.2535 181.861 17.3435 174.761 14.6635C167.351 11.8635 159.511 10.6035 151.671 10.0635C143.801 9.5235 135.841 9.5535 127.961 9.7935C121.061 10.0035 113.561 11.1835 108.691 16.8135C106.451 19.4035 105.221 22.6535 105.221 26.1435C105.221 30.1735 106.611 34.0535 108.041 37.7335C110.791 44.8135 113.571 51.9035 116.841 58.7535C120.061 65.5035 123.801 72.0135 128.421 77.8235C132.721 83.2335 137.811 87.9035 143.331 91.9035C148.841 95.8935 154.761 99.2335 160.831 102.194C166.991 105.204 173.301 107.834 179.641 110.394C186.111 113.014 192.631 115.514 198.991 118.394C205.491 121.334 212.071 124.903 216.881 130.453C220.941 135.143 224.131 142.714 220.731 148.704C217.581 154.254 210.621 155.404 204.961 155.704C196.941 156.134 188.871 155.774 180.851 155.474C172.701 155.164 164.551 154.784 156.391 154.874C148.341 154.974 140.271 155.544 132.351 157.084C125.601 158.404 117.711 160.184 113.111 165.994C111.121 168.514 109.771 171.724 109.821 175.034C109.871 178.054 111.181 180.874 113.301 182.914C117.911 187.344 124.801 188.194 130.781 188.654C138.781 189.264 146.821 188.684 154.761 187.554C162.841 186.404 170.821 184.704 178.821 183.054C186.891 181.394 194.991 179.814 203.181 178.894C211.541 177.954 219.941 177.554 228.341 177.344C236.751 177.144 245.161 177.104 253.571 176.974C262.061 176.844 270.551 176.664 279.031 176.444C287.521 176.224 296.001 175.964 304.491 175.664C312.971 175.364 321.461 175.014 329.941 174.624C338.381 174.234 346.831 173.894 355.251 173.214C359.371 172.884 363.491 172.464 367.591 171.884C371.281 171.364 374.931 170.654 378.611 170.054C385.391 168.944 392.631 167.944 399.391 169.694C400.011 169.854 400.281 168.854 399.661 168.694C392.781 166.914 385.461 167.904 378.561 169.024C374.901 169.614 371.251 170.324 367.571 170.854C363.441 171.444 359.291 171.864 355.131 172.194C346.791 172.854 338.421 173.204 330.061 173.584C321.621 173.974 313.181 174.314 304.741 174.624C296.301 174.934 287.851 175.194 279.411 175.404C270.971 175.614 262.521 175.804 254.071 175.934C245.701 176.064 237.331 176.104 228.961 176.304C220.641 176.494 212.321 176.874 204.041 177.774C195.951 178.654 187.951 180.144 179.981 181.774C171.981 183.414 163.991 185.144 155.921 186.354C147.961 187.544 139.891 188.214 131.861 187.694C128.441 187.474 124.971 187.134 121.651 186.194C118.881 185.404 116.081 184.194 113.961 182.124C111.761 179.984 110.601 177.024 110.871 173.884C111.161 170.474 112.991 167.264 115.411 165.024C118.081 162.554 121.451 161.054 124.841 160.004C128.561 158.844 132.421 158.074 136.261 157.464C144.261 156.194 152.371 155.874 160.461 155.914C168.591 155.964 176.711 156.384 184.831 156.664C188.871 156.804 192.911 156.904 196.961 156.904C200.551 156.904 204.171 156.924 207.741 156.524C213.361 155.894 219.721 153.914 222.191 148.044C224.751 141.964 221.911 134.963 218.041 130.233C213.471 124.653 207.011 120.973 200.671 118.023C194.421 115.113 187.981 112.644 181.601 110.074C175.241 107.514 168.901 104.903 162.701 101.953C156.631 99.0535 150.691 95.8135 145.141 91.9335C139.571 88.0435 134.421 83.4935 130.031 78.1935C125.281 72.4635 121.471 65.9635 118.191 59.2335C114.881 52.4335 112.101 45.3835 109.341 38.3235C107.881 34.5935 106.341 30.6935 106.231 26.6135C106.131 22.9935 107.411 19.6535 109.841 17.0735C115.101 11.4835 122.961 10.9035 130.051 10.8035C137.911 10.6935 145.801 10.6035 153.651 11.2735C161.521 11.9435 169.341 13.4735 176.681 16.5535C180.351 18.0935 183.871 19.9735 187.301 22.0235C190.361 23.8535 193.371 25.7935 196.241 27.9235C201.751 32.0135 206.871 36.9135 210.401 42.9735C212.251 46.1635 213.481 49.6235 214.671 53.1135C215.871 56.6335 217.101 60.2035 219.131 63.3135C222.801 68.9335 228.561 72.5935 234.611 74.8435C241.851 77.5335 249.581 78.1435 257.161 79.0735C261.191 79.5635 265.201 80.1935 269.161 81.1435C273.051 82.0735 276.891 83.2235 280.751 84.3135C284.561 85.3935 288.391 86.4135 292.281 87.0935C296.231 87.7935 300.221 88.0935 304.231 88.0635C312.351 88.0035 320.391 86.7035 328.421 85.5935C336.451 84.4835 344.461 83.6835 352.571 84.0735C360.691 84.4735 368.741 85.7835 376.691 87.5135C384.321 89.1835 391.871 91.2435 399.401 93.3535C400.021 93.5235 400.291 92.5235 399.671 92.3535L399.651 92.3235Z" fill="black"/>
</svg>
