<svg width="109" height="168" viewBox="0 0 109 168" fill="none" xmlns="http://www.w3.org/2000/svg">
<path d="M0.977264 0.107178H21.2454L65.1 73.3609H44.8575L0.977264 0.107178Z" fill="#058DE8"/>
<path d="M64.6885 79.5854V78.6337H45.4234C44.6775 78.6337 44.0087 78.325 43.52 77.8363C43.0313 77.3476 42.7227 76.6789 42.7227 75.933C42.7227 75.1871 43.0313 74.5183 43.52 74.0296C44.0087 73.5409 44.6775 73.2323 45.4234 73.2323H64.6885C65.4345 73.2323 66.1032 73.5409 66.5919 74.0296C67.0806 74.5183 67.3892 75.1871 67.3892 75.933C67.3892 76.6789 67.0806 77.3476 66.5919 77.8363C66.1032 78.325 65.4345 78.6337 64.6885 78.6337V80.5113C67.2092 80.5113 69.2669 78.4536 69.2669 75.933C69.2669 73.4123 67.2092 71.3546 64.6885 71.3546H45.4234C42.9028 71.3546 40.8451 73.4123 40.8451 75.933C40.8451 78.4536 42.9028 80.5113 45.4234 80.5113H64.6885V79.5596V79.5854Z" fill="#E0C64C"/>
<path d="M101.444 120.919C101.444 142.602 86.5773 160.812 66.4634 165.88C62.811 166.805 59.0043 167.294 55.0689 167.294C54.2459 167.294 53.4227 167.294 52.5996 167.243C51.2107 167.166 49.8475 167.037 48.4843 166.831C47.4812 166.677 46.4781 166.523 45.5007 166.317C35.3923 164.208 26.4928 158.806 20.011 151.27C19.6767 150.884 19.368 150.498 19.0336 150.112C18.4935 149.444 17.9533 148.749 17.4389 148.029C15.0726 144.762 13.1178 141.162 11.6774 137.303C9.97982 132.828 8.95094 127.992 8.74517 122.977C8.74517 122.642 8.74514 122.308 8.71942 121.974C8.71942 121.613 8.71942 121.253 8.71942 120.919C8.71942 120.533 8.71942 120.122 8.71942 119.736C9.13096 103.094 18.3134 88.639 31.817 80.7941C35.5723 78.6078 39.662 76.9359 43.9831 75.8813C44.6262 75.727 45.2434 75.5984 45.8865 75.4698C47.0182 75.2383 48.1499 75.0582 49.3073 74.9039C51.2107 74.6724 53.1398 74.5438 55.0946 74.5438C63.4797 74.5438 71.3503 76.7816 78.1664 80.6654C78.9124 81.1027 79.6326 81.54 80.3528 82.0029C81.0729 82.4659 81.7674 82.9546 82.4619 83.469C85.9085 85.9897 88.9951 88.9734 91.6186 92.3171C97.7917 100.188 101.496 110.116 101.496 120.919H101.444Z" fill="#E0C64C"/>
<path d="M84.4939 126.938C83.7222 126.887 82.9506 126.938 82.2304 127.016C79.4782 127.427 77.3948 128.739 77.3948 128.739C68.7011 121.331 61.2677 124.752 61.2677 124.752C54.9917 117.936 43.0828 116.933 43.0828 116.933C40.7937 109.242 29.3478 108.059 29.3478 108.059C29.1163 106.259 28.036 104.458 27.11 103.223C26.3384 102.169 25.6439 101.5 25.6439 101.5L49.4102 99.6483L62.3222 98.6451L72.1477 111.171L84.5195 126.938H84.4939Z" fill="#F0DE3E"/>
<path d="M51.6222 105.101L49.6674 108.367C49.6674 108.367 43.5972 114.952 43.057 116.958C40.7678 109.267 29.322 108.084 29.322 108.084C29.322 108.084 33.7717 102.22 38.0671 100.754C42.3626 99.2877 51.6222 105.101 51.6222 105.101Z" fill="#E9E254"/>
<path d="M77.3946 128.764C68.7008 121.357 61.2675 124.777 61.2675 124.777C61.2675 124.777 64.3282 112.38 63.145 109.216C61.9619 106.052 77.5231 119.299 77.5231 119.299C77.5231 119.299 77.9347 126.629 77.3946 128.738V128.764Z" fill="#E9E254"/>
<path d="M62.0395 96.8955L41.2311 145.894C41.1025 146.177 41.2311 146.512 41.5397 146.64C41.8227 146.769 42.1571 146.64 42.2857 146.332L63.094 97.3328C63.2226 97.0498 63.0941 96.7155 62.7854 96.5869C62.5025 96.4583 62.1681 96.5869 62.0395 96.8955Z" fill="#FDE76D"/>
<g style="mix-blend-mode:multiply" opacity="0.54">
<path d="M84.494 126.938C83.7224 126.886 82.9507 126.938 82.2305 127.015C76.6233 121.614 67.1065 119.942 67.1065 119.942C57.3582 109.087 41.2825 108.702 41.2825 108.702C41.2825 108.702 41.2311 108.136 38.1703 106.027C35.6753 104.303 29.3222 103.48 27.0587 103.223C26.2871 102.168 25.5926 101.5 25.5926 101.5L49.359 99.6478L72.0964 111.145L84.4683 126.912L84.494 126.938Z" fill="#DED300"/>
</g>
<path d="M84.4939 126.938C84.4939 126.938 80.7385 122.668 77.2147 120.431C73.6909 118.167 69.5241 116.958 69.5241 116.958C69.3698 116.83 64.4314 112.457 57.3838 109.499C50.2333 106.516 43.0571 105.512 43.0571 105.512C43.0571 105.512 40.768 104.175 37.5528 102.94C34.3377 101.706 25.6439 101.526 25.6439 101.526C25.6439 101.526 28.1645 99.6223 32.5114 97.899C38.4016 95.5584 47.6098 93.5521 58.3612 97.1531C59.4929 97.5389 60.6504 97.9761 61.8078 98.4906C63.2482 99.1079 64.5857 99.8023 65.846 100.523C74.6427 105.59 79.3753 112.792 81.8703 118.399C84.0565 123.286 84.5195 126.964 84.5195 126.964L84.4939 126.938Z" fill="#EDE878"/>
<path d="M69.5243 116.958C69.37 116.829 64.4315 112.457 57.384 109.499C50.2335 106.515 43.0573 105.512 43.0573 105.512C43.0573 105.512 47.0698 99.9821 52.9599 97.8987C54.6061 97.3071 56.4323 96.9984 58.3356 97.1527C59.4931 97.2556 60.702 97.5128 61.9623 98.0015C63.5313 98.6188 64.7916 99.4934 65.8205 100.496C68.0582 102.708 69.1128 105.641 69.5757 108.419C70.3217 112.894 69.5243 116.958 69.5243 116.958Z" fill="#F9F2B2"/>
<g style="mix-blend-mode:overlay" opacity="0.46">
<path d="M81.8445 118.399C77.1633 110.245 69.5755 108.445 69.5755 108.445C64.7142 98.6192 52.9854 97.9247 52.9854 97.9247C48.227 94.0923 32.8458 97.8476 32.5114 97.9247C38.4015 95.5841 47.6097 93.5779 58.3612 97.1788C59.5186 97.2817 60.7275 97.5389 61.9878 98.0276C63.5568 98.6449 64.8172 99.5194 65.846 100.523C74.6426 105.59 79.3753 112.792 81.8702 118.399H81.8445Z" fill="#FDFAE0"/>
</g>
<g style="mix-blend-mode:soft-light" opacity="0.38">
<path d="M80.3017 82.0287L79.4272 84.3179L78.064 87.9446L77.6009 89.1792L51.1596 159.706L50.6966 160.915L49.3334 164.542L48.4589 166.857C47.4558 166.703 46.4527 166.548 45.4753 166.343C34.8524 164.131 25.5928 158.266 19.0082 150.138C18.4681 149.469 17.9279 148.775 17.4135 148.055L18.4167 145.303L20.0628 140.827L20.6287 139.258L40.6912 84.7037L41.257 83.1347L42.9032 78.6592L43.9063 75.9071C45.6296 75.4698 47.43 75.1612 49.2305 74.9297C51.1339 74.6982 53.063 74.5696 55.0178 74.5696C63.4029 74.5696 71.2735 76.8073 78.0896 80.6912C78.8355 81.1285 79.5557 81.5657 80.2759 82.0287H80.3017Z" fill="#FFFB8C"/>
</g>
<path d="M86.1397 89.8224C84.082 87.7647 81.8443 85.9386 79.4266 84.3181C72.4561 79.6626 64.071 76.9362 55.0429 76.9362C50.8504 76.9362 46.7865 77.5277 42.9283 78.6337C41.2307 79.1224 39.5588 79.714 37.9384 80.3828C32.6656 82.5948 27.9329 85.8357 23.9461 89.7967C15.9983 97.7445 11.0598 108.753 11.0598 120.894C11.0598 129.896 13.7605 138.281 18.4161 145.251C20.0365 147.669 21.8884 149.933 23.9461 151.99C30.6336 158.678 39.4816 163.23 49.3328 164.517C51.2105 164.774 53.1138 164.877 55.0429 164.877C67.1833 164.877 78.1919 159.938 86.1397 151.99C94.0876 144.043 99.026 133.034 99.026 120.894C99.026 108.753 94.1133 97.7445 86.1397 89.7967V89.8224ZM94.8077 127.041C94.7563 127.375 94.7049 127.71 94.6534 128.044C94.5248 128.713 94.3962 129.356 94.2419 129.999C94.1647 130.333 94.0876 130.642 94.0104 130.976C93.7789 131.928 93.496 132.88 93.1616 133.831C92.7501 135.066 92.2614 136.3 91.7213 137.484C91.5412 137.869 91.3612 138.281 91.1554 138.667C90.7696 139.438 90.358 140.21 89.9465 140.956C89.6378 141.522 89.2777 142.062 88.9433 142.602C88.5832 143.142 88.2232 143.682 87.8631 144.223C87.503 144.737 87.1171 145.251 86.7056 145.766C86.3198 146.28 85.9082 146.769 85.4967 147.258C84.8537 147.978 84.2106 148.698 83.5419 149.367C82.8474 150.061 82.153 150.704 81.4328 151.347C80.3268 152.299 79.1694 153.199 77.9862 154.022C76.5458 155.025 75.054 155.926 73.4592 156.723C73.202 156.852 72.9191 156.98 72.6619 157.135C67.3633 159.707 61.4217 161.147 55.1201 161.147C53.654 161.147 52.1879 161.07 50.7732 160.916C46.0662 160.401 41.6165 159.089 37.5526 157.109C37.0896 156.877 36.6523 156.672 36.215 156.414C35.7778 156.183 35.3406 155.926 34.9033 155.694C34.4661 155.437 34.0545 155.18 33.6173 154.923C31.9197 153.842 30.3249 152.659 28.8073 151.347C28.0871 150.704 27.367 150.061 26.6983 149.367C26.3639 149.032 26.0295 148.672 25.6951 148.338C25.3607 147.978 25.0521 147.618 24.7177 147.258C24.3062 146.769 23.8946 146.28 23.5088 145.766C23.123 145.251 22.7372 144.737 22.3514 144.223C21.9656 143.682 21.6054 143.168 21.2711 142.602C20.9367 142.062 20.5766 141.496 20.268 140.956C20.2423 140.905 20.2165 140.853 20.1908 140.802C19.7793 140.082 19.4192 139.387 19.0591 138.641C18.8533 138.255 18.6733 137.869 18.4932 137.458C17.9531 136.275 17.4644 135.04 17.0528 133.806C15.6896 129.767 14.9437 125.42 14.9437 120.919C14.9437 116.418 15.6896 112.071 17.0528 108.033C17.4644 106.798 17.9531 105.564 18.4932 104.381C18.6733 103.995 18.8533 103.583 19.0591 103.197C19.4449 102.426 19.8565 101.654 20.268 100.908C20.5766 100.342 20.9367 99.8022 21.2711 99.2621C21.6312 98.7219 21.9913 98.1818 22.3514 97.6417C22.7115 97.1272 23.0973 96.6128 23.5088 96.0984C23.8946 95.584 24.3062 95.0953 24.7177 94.6066C25.0263 94.2465 25.3607 93.8864 25.6951 93.5263C26.0295 93.1662 26.3639 92.8318 26.6983 92.4974C27.3927 91.803 28.0871 91.1599 28.8073 90.5169C30.865 88.7422 33.1285 87.1474 35.5206 85.8099C36.3179 85.3727 37.141 84.9354 37.9641 84.5496C38.247 84.421 38.53 84.2924 38.8129 84.1638C39.3788 83.9066 39.9446 83.6751 40.5105 83.4436C40.7934 83.3407 41.0764 83.2121 41.385 83.1092C41.7451 82.9806 42.1052 82.852 42.4652 82.7234C46.452 81.3859 50.7218 80.6914 55.1458 80.6914C63.711 80.6914 71.633 83.3664 78.1662 87.9191C79.015 88.5107 79.8638 89.1537 80.6611 89.8224C80.9183 90.0539 81.2013 90.2597 81.4585 90.4912C82.1787 91.1342 82.8989 91.7772 83.5676 92.4717C84.2621 93.1662 84.9051 93.8606 85.5225 94.5808C85.934 95.0695 86.3455 95.5582 86.7313 96.0727C87.1172 96.5871 87.5029 97.1015 87.8888 97.6159C88.2746 98.1561 88.6347 98.6705 88.9691 99.2364C89.3034 99.7765 89.6635 100.342 89.9722 100.883C90.4094 101.628 90.7952 102.4 91.1811 103.172C91.3868 103.558 91.5669 103.943 91.7469 104.355C92.2871 105.538 92.7758 106.773 93.1873 108.007C93.4959 108.933 93.7789 109.885 94.0361 110.862C94.1133 111.197 94.1905 111.505 94.2676 111.84C94.4219 112.483 94.5506 113.151 94.6792 113.795C94.7306 114.129 94.782 114.463 94.8335 114.798C94.9364 115.466 95.0135 116.135 95.0907 116.804C95.2193 118.167 95.2964 119.53 95.2964 120.919C95.2964 122.308 95.2193 123.671 95.0907 125.035C95.0135 125.703 94.9364 126.372 94.8335 127.041H94.8077Z" fill="#FAE543"/>
<g style="mix-blend-mode:multiply">
<path d="M95.0656 116.804C94.9884 116.135 94.9112 115.466 94.8083 114.797C94.7569 114.463 94.7055 114.129 94.654 113.794C94.5254 113.126 94.3968 112.483 94.2425 111.84C94.1653 111.505 94.0882 111.197 94.011 110.862C93.7538 109.91 93.4709 108.959 93.1622 108.007C92.725 106.772 92.262 105.538 91.7219 104.355C91.5418 103.969 91.3618 103.557 91.156 103.172C90.7702 102.4 90.3586 101.628 89.9471 100.882C89.6384 100.316 89.2783 99.7764 88.9439 99.2362C88.5838 98.6961 88.2238 98.1559 87.8637 97.6158C87.5036 97.1014 87.1177 96.5869 86.7062 96.0725C86.3204 95.5581 85.9089 95.0694 85.4973 94.5807C84.8543 93.8605 84.2113 93.1403 83.5168 92.4716C82.8223 91.7771 82.1279 91.1341 81.4077 90.491C81.1505 90.2595 80.8932 90.028 80.6103 89.8223C79.813 89.1535 78.9642 88.5362 78.1154 87.9189C71.6079 83.3663 63.6601 80.6913 55.0949 80.6913C50.6709 80.6913 46.4012 81.4115 42.4144 82.7232C42.0543 82.8519 41.6943 82.9547 41.3342 83.0833C41.0513 83.1862 40.7683 83.3148 40.4596 83.4177C39.8937 83.6492 39.3022 83.8807 38.7621 84.1379C38.4791 84.2665 38.1962 84.3951 37.9132 84.5237C37.0902 84.9095 36.2671 85.3468 35.4698 85.7841C33.0777 87.1216 30.8399 88.7163 28.7565 90.491C28.0363 91.1341 27.3161 91.7771 26.6474 92.4716C26.313 92.8059 25.9787 93.166 25.6443 93.5004C25.3099 93.8605 25.0013 94.2206 24.6669 94.5807C24.2553 95.0694 23.8438 95.5581 23.458 96.0725C23.0722 96.5869 22.6863 97.1014 22.3005 97.6158C21.9147 98.1559 21.5546 98.6703 21.2203 99.2362C20.8859 99.7764 20.5257 100.342 20.2171 100.882C19.7798 101.628 19.394 102.4 19.0082 103.172C18.8024 103.557 18.6224 103.943 18.4423 104.355C17.9022 105.538 17.4392 106.772 17.002 108.007C15.6387 112.045 14.8929 116.392 14.8929 120.893C14.8929 125.395 15.6387 129.741 17.002 133.78C17.4392 135.014 17.9022 136.249 18.4423 137.432C18.6224 137.818 18.8024 138.229 19.0082 138.615C19.3683 139.335 19.7541 140.056 20.1399 140.75C20.1399 140.75 20.1914 140.853 20.2171 140.904C20.5257 141.47 20.8859 142.01 21.2203 142.551C21.5804 143.091 21.9404 143.631 22.3005 144.171C22.6606 144.685 23.0464 145.2 23.458 145.714C23.8438 146.229 24.2553 146.717 24.6669 147.206C24.9755 147.566 25.3099 147.926 25.6443 148.286C25.9787 148.646 26.313 148.981 26.6474 149.315C27.3418 150.01 28.0363 150.653 28.7565 151.296C30.2741 152.608 31.8688 153.791 33.5664 154.871C34.0036 155.128 34.4152 155.411 34.8524 155.643C35.2897 155.9 35.727 156.131 36.1642 156.363C36.6015 156.594 37.0644 156.826 37.5017 157.057C41.5656 159.038 46.0411 160.35 50.7224 160.864C52.1628 161.018 53.6032 161.095 55.0693 161.095C61.3452 161.095 67.3125 159.655 72.611 157.083C72.8682 156.954 73.1512 156.826 73.4084 156.671C74.9774 155.874 76.4949 154.974 77.9353 153.971C79.1442 153.148 80.3016 152.247 81.3819 151.296C82.1021 150.653 82.8223 150.01 83.4911 149.315C84.1855 148.621 84.8285 147.926 85.4716 147.206C85.8831 146.717 86.2946 146.229 86.6805 145.714C87.0663 145.2 87.4521 144.685 87.8379 144.171C88.2238 143.631 88.5839 143.116 88.9183 142.551C89.2526 142.01 89.6127 141.445 89.9213 140.904C90.3586 140.159 90.7444 139.387 91.1302 138.615C91.336 138.229 91.5161 137.844 91.6961 137.432C92.2363 136.249 92.6992 135.014 93.1365 133.78C93.4451 132.854 93.7281 131.902 93.9853 130.925C94.0625 130.59 94.1396 130.282 94.2168 129.947C94.3711 129.304 94.4998 128.635 94.6284 127.992C94.6798 127.658 94.7312 127.324 94.7827 126.989C94.8856 126.321 94.9627 125.652 95.0398 124.983C95.1684 123.62 95.2456 122.257 95.2456 120.868C95.2456 119.479 95.1684 118.116 95.0398 116.752L95.0656 116.804ZM82.6166 148.466C75.569 155.514 65.8207 159.887 55.0693 159.887C53.7575 159.887 52.4457 159.835 51.1853 159.681C41.9772 158.755 33.7207 154.639 27.5219 148.466C24.8212 145.766 22.5063 142.653 20.6801 139.233C17.7736 133.78 16.1017 127.529 16.1017 120.919C16.1017 110.168 20.4486 100.419 27.5219 93.3718C31.2514 89.6422 35.727 86.6586 40.7426 84.6781C45.1923 82.9033 50.0279 81.9516 55.0949 81.9516C63.5057 81.9516 71.2736 84.6009 77.6524 89.1535C79.4272 90.4139 81.099 91.8285 82.6423 93.3718C89.6899 100.419 94.0625 110.168 94.0625 120.919C94.0625 131.671 89.7156 141.419 82.6423 148.466H82.6166Z" fill="#F6F39E"/>
</g>
<g style="mix-blend-mode:multiply">
<path d="M91.5674 92.3433L66.4636 165.906C62.8112 166.832 59.0045 167.32 55.0691 167.32C54.2461 167.32 53.4229 167.32 52.5999 167.269L82.4107 83.521C85.8573 86.0417 88.9439 89.0253 91.5674 92.3691V92.3433Z" fill="#F6F39E"/>
</g>
<g style="mix-blend-mode:multiply">
<path d="M45.8604 75.4702L19.985 151.27C19.6506 150.885 19.3419 150.499 19.0075 150.113C18.4674 149.444 17.9273 148.75 17.4128 148.029C15.0465 144.763 13.0917 141.162 11.6513 137.304L31.7653 80.7945C35.5206 78.6082 39.6102 76.9363 43.9313 75.8818C44.5743 75.7274 45.1917 75.5988 45.8347 75.4702H45.8604Z" fill="#F6F39E"/>
</g>
<path d="M108.98 0.107178H88.7121L44.8577 73.3609H65.1002L108.98 0.107178Z" fill="#37A4ED"/>
</svg>
