<svg width="109" height="167" viewBox="0 0 109 167" fill="none" xmlns="http://www.w3.org/2000/svg">
<path d="M0 0H20.4505L64.6993 73.1717H44.2748L0 0Z" fill="#F7157B"/>
<path d="M64.2834 79.3892V78.4386H44.8451C44.0925 78.4386 43.4177 78.1302 42.9246 77.6421C42.4315 77.1539 42.1201 76.4859 42.1201 75.7409C42.1201 74.9958 42.4315 74.3278 42.9246 73.8396C43.4177 73.3515 44.0925 73.0432 44.8451 73.0432H64.2834C65.0361 73.0432 65.7108 73.3515 66.2039 73.8396C66.697 74.3278 67.0084 74.9958 67.0084 75.7409C67.0084 76.4859 66.697 77.1539 66.2039 77.6421C65.7108 78.1302 65.0361 78.4386 64.2834 78.4386V80.3141C66.8268 80.3141 68.903 78.2587 68.903 75.7409C68.903 73.223 66.8268 71.1676 64.2834 71.1676H44.8451C42.3018 71.1676 40.2256 73.223 40.2256 75.7409C40.2256 78.2587 42.3018 80.3141 44.8451 80.3141H64.2834V79.3635V79.3892Z" fill="#E0C64C"/>
<path d="M101.37 120.677C101.37 137.891 91.8711 152.921 77.753 160.911C74.3014 162.889 70.5383 164.431 66.5935 165.433C64.2578 166.075 61.8442 166.512 59.3528 166.743C59.0933 166.769 58.8337 166.794 58.5742 166.82C57.2766 166.949 55.979 167 54.6554 167H54.5516C53.9028 167 53.228 166.974 52.5792 166.949C52.2678 166.949 51.9564 166.923 51.6449 166.923C51.3335 166.897 51.048 166.871 50.7366 166.846C49.8023 166.769 48.868 166.666 47.9337 166.537C47.8299 166.512 47.7002 166.512 47.5964 166.486C46.688 166.332 45.8056 166.178 44.8973 165.998C41.6533 165.33 38.539 164.328 35.5804 163.043C28.7809 160.037 22.8378 155.49 18.2183 149.837C17.803 149.324 17.3878 148.835 17.0244 148.322C16.8687 148.116 16.739 147.936 16.6092 147.756C16.5833 147.731 16.5833 147.756 16.5833 147.756C16.5833 147.756 16.5833 147.731 16.5573 147.705C15.9604 146.883 15.3894 146.035 14.8704 145.187C12.8202 141.95 11.1592 138.456 9.99135 134.782C9.05707 131.93 8.40826 129.001 8.07088 125.969C7.94111 124.89 7.86326 123.811 7.81135 122.732C7.81135 122.398 7.81135 122.064 7.81135 121.73C7.7854 121.37 7.7854 121.036 7.7854 120.677C7.7854 120.291 7.7854 119.88 7.81135 119.495C8.14873 106.186 14.1437 94.2907 23.4866 86.0691C25.5109 84.2707 27.7168 82.6521 30.0525 81.239C33.2187 79.2864 36.6185 77.7191 40.1999 76.5887C40.2518 76.563 40.2778 76.563 40.3297 76.5373C40.9266 76.3575 41.5494 76.1776 42.1723 75.9978C42.5356 75.895 42.899 75.8179 43.2623 75.7151C43.3142 75.7151 43.3402 75.6895 43.3921 75.6895C45.1309 75.2527 46.9216 74.9444 48.7642 74.7131C50.6587 74.4819 52.6052 74.3535 54.5775 74.3535C58.8856 74.3535 63.064 74.9187 67.0087 75.9978C67.6316 76.1519 68.2285 76.3318 68.8254 76.563C72.0175 77.5393 75.028 78.8496 77.8568 80.4682C78.6095 80.905 79.3361 81.3418 80.0628 81.8042C83.203 83.8339 86.0837 86.2233 88.653 88.921C92.9611 93.4428 96.3609 98.8639 98.5668 104.825C100.383 109.757 101.396 115.101 101.396 120.677H101.37Z" fill="#E0C64C"/>
<g style="mix-blend-mode:multiply">
<mask id="mask0_2311_87" style="mask-type:luminance" maskUnits="userSpaceOnUse" x="43" y="92" width="23" height="42">
<path d="M64.3612 103.823C61.9217 97.1169 51.7224 92.0298 51.7224 92.0298C50.1393 97.8619 47.2586 99.8146 45.3641 107.085C46.5839 109.526 47.4662 112.07 48.3486 114.588C48.8677 116.052 46.2465 117.003 45.7274 115.538C45.3122 114.331 44.871 113.123 44.4039 111.916C43.0803 121.55 44.845 133.163 44.845 133.163L64.3612 132.752C64.3612 132.752 66.8008 110.554 64.3612 103.848V103.823Z" fill="white"/>
</mask>
<g mask="url(#mask0_2311_87)">
<path d="M64.2832 98.7098C63.2191 97.9904 61.7917 98.4785 61.2208 99.4035C60.1567 101.125 57.9248 102.564 55.667 102.846C55.3815 102.872 55.0701 102.898 54.7586 102.923C54.7067 102.923 54.551 102.923 54.4732 102.923C54.2915 102.923 54.1098 102.898 53.9282 102.872C53.3053 102.795 52.916 102.692 52.2413 102.435C51.826 102.281 51.2551 101.947 50.762 101.587C50.5803 101.433 50.6841 101.536 50.5803 101.433C50.4505 101.33 50.3467 101.202 50.217 101.073C49.9834 100.842 49.7758 100.585 49.5941 100.303C49.0232 99.5319 47.5439 99.5062 46.7913 100.02C45.857 100.637 45.8829 101.587 46.4539 102.384C46.9989 103.129 47.6736 103.771 48.4522 104.311C48.3224 104.388 48.2186 104.491 48.1148 104.593C47.492 105.261 47.5958 106.443 48.5041 106.931C52.2413 108.935 57.1463 110.297 61.117 107.831C62.7001 106.854 63.7382 105.364 64.4389 103.848C65.2174 102.204 66.2555 100.071 64.2832 98.7098Z" stroke="#E6E13E" stroke-width="1.28625" stroke-miterlimit="10"/>
</g>
<path d="M64.3612 103.823C61.9217 97.1169 51.7224 92.0298 51.7224 92.0298C50.1393 97.8619 47.2586 99.8146 45.3641 107.085C46.5839 109.526 47.4662 112.07 48.3486 114.588C48.8677 116.052 46.2465 117.003 45.7274 115.538C45.3122 114.331 44.871 113.123 44.4039 111.916C43.0803 121.55 44.845 133.163 44.845 133.163L64.3612 132.752C64.3612 132.752 66.8008 110.554 64.3612 103.848V103.823Z" stroke="#E6E13E" stroke-width="1.28625" stroke-miterlimit="10"/>
<mask id="mask1_2311_87" style="mask-type:luminance" maskUnits="userSpaceOnUse" x="31" y="94" width="35" height="59">
<path d="M39.3694 94.9844C39.3694 94.9844 55.8232 100.251 62.2594 116.36C68.6955 132.444 63.7386 149.401 53.3058 152.381C42.8729 155.361 32.9591 139.227 31.8172 126.252C30.7013 113.277 39.3694 95.0101 39.3694 95.0101V94.9844Z" fill="white"/>
</mask>
<g mask="url(#mask1_2311_87)">
<path d="M57.5622 151.61C57.0951 150.711 55.9532 150.454 54.941 150.737C54.7853 150.788 54.6556 150.814 54.4998 150.839C53.7213 150.069 52.8129 149.375 51.671 148.887C50.607 148.424 49.4132 148.193 48.2972 147.756C47.6744 147.525 47.0775 147.217 46.4806 146.909C46.2729 146.909 46.0394 146.831 45.8317 146.729C45.0013 146.292 44.2486 145.804 43.522 145.239C42.0427 144.391 40.7451 143.286 39.6291 142.053C36.6965 139.406 34.4386 136.246 32.4922 132.983C31.5579 133.317 30.8832 134.139 31.3244 135.141C32.5441 137.788 33.9196 140.357 35.4767 142.849C36.9041 145.136 38.4613 147.397 40.5115 149.349C43.6258 152.304 47.9858 154.385 52.6053 154.359C52.761 154.565 52.9167 154.796 53.0725 155.002C53.6175 155.772 54.6296 156.261 55.6936 155.875C56.576 155.567 57.2767 154.488 56.7577 153.717C57.5622 153.332 57.8737 152.33 57.5363 151.636L57.5622 151.61Z" stroke="#E6E13E" stroke-width="1.28625" stroke-miterlimit="10"/>
<path opacity="0.48" d="M41.6016 106.006C39.9147 103.257 37.4232 101.279 34.9578 99.1208C33.9975 99.3521 33.2968 100.328 33.5304 101.253C33.2968 101.664 33.2709 102.178 33.4525 102.641C33.712 103.309 33.9716 103.977 34.2311 104.645C33.6861 106.161 33.1151 107.676 32.5961 109.192C31.4801 110.837 31.2466 113.226 31.013 114.999C31.013 115.101 31.013 115.23 30.987 115.333C30.2604 119.726 30.442 124.145 31.1947 128.564C30.5718 129.232 30.442 130.286 31.3504 131.031C31.6359 131.262 31.9473 131.442 32.2328 131.545C32.648 132.29 33.2189 132.958 33.9197 133.549C35.7623 135.064 38.8766 135.63 40.6673 133.754C42.3542 132.007 42.8992 129.027 43.3663 126.894C43.9113 124.351 44.067 121.756 44.0411 119.187C43.9892 115.204 43.6778 111.016 42.2244 107.163C42.0168 106.777 41.8351 106.392 41.6016 106.032V106.006Z" stroke="#E6E13E" stroke-width="1.28625" stroke-miterlimit="10"/>
</g>
<path d="M39.3694 94.9844C39.3694 94.9844 55.8232 100.251 62.2594 116.36C68.6955 132.444 63.7386 149.401 53.3058 152.381C42.8729 155.361 32.9591 139.227 31.8172 126.252C30.7013 113.277 39.3694 95.0101 39.3694 95.0101V94.9844Z" stroke="#E6E13E" stroke-width="1.28625" stroke-miterlimit="10"/>
<mask id="mask2_2311_87" style="mask-type:luminance" maskUnits="userSpaceOnUse" x="50" y="94" width="29" height="59">
<path d="M53.7728 152.021C53.7728 152.021 69.3961 157.16 76.2735 130.337C83.1509 103.514 67.7611 94.933 67.7611 94.933C67.7611 94.933 53.3316 111.967 51.3073 125.584C49.283 139.201 50.2432 146.138 53.7728 151.996V152.021Z" fill="white"/>
</mask>
<g mask="url(#mask2_2311_87)">
<path d="M79.5176 128.41C81.8274 119.572 82.035 110.374 80.0107 101.433C78.9726 96.86 77.3636 92.3639 75.1836 88.0475C74.1714 86.0692 70.4862 87.3795 71.4983 89.3579C73.86 94.0339 75.495 98.9154 76.4293 103.9C74.7943 100.2 72.3029 96.8857 69.5779 93.5457C68.1245 91.7729 64.9583 93.8283 66.4117 95.6268C69.8114 99.7632 72.77 103.848 73.9119 108.833C75.0538 113.817 75.6767 118.981 75.7286 124.068C75.7286 125.327 75.7026 126.586 75.5988 127.819C74.976 130.157 74.2233 132.495 73.315 134.782C72.0952 137.814 70.59 140.742 68.8252 143.569C67.7093 144.494 66.5674 145.393 65.3217 146.189C62.1555 148.27 57.3802 150.506 53.5133 148.245C51.4112 147.011 48.9717 149.683 51.0998 150.917C55.9529 153.743 61.8441 152.355 66.3338 149.735C66.6971 149.529 67.0605 149.298 67.3979 149.067C68.2024 149.555 69.2924 149.581 69.9412 148.681C70.4602 147.936 70.9533 147.191 71.4464 146.446C70.6419 148.836 69.7855 151.199 68.9291 153.589C68.1764 155.644 71.8876 156.929 72.6402 154.873C74.3791 150.12 76.04 145.393 77.3117 140.614C77.6231 140.28 77.9605 139.972 78.2719 139.638C79.0245 138.867 78.765 138.019 78.0902 137.505C78.765 134.499 79.2841 131.468 79.5436 128.384L79.5176 128.41Z" stroke="#E6E13E" stroke-width="1.28625" stroke-miterlimit="10"/>
<path opacity="0.43" d="M69.0591 109.783C68.54 108.627 66.1265 108.216 65.2441 109.68C62.8305 113.766 61.1176 118.108 60.1055 122.578C59.1193 126.997 58.6003 131.879 59.4048 136.323C59.6903 137.942 60.7803 139.715 62.9603 139.766C65.5555 139.843 66.7234 137.505 67.7355 135.887C70.201 131.956 71.7062 127.537 72.1734 123.118C72.6405 118.75 72.6405 113.252 69.0331 109.732L69.0591 109.783Z" stroke="#E6E13E" stroke-width="1.28625" stroke-miterlimit="10"/>
</g>
<path d="M53.7728 152.021C53.7728 152.021 69.3961 157.16 76.2735 130.337C83.1509 103.514 67.7611 94.933 67.7611 94.933C67.7611 94.933 53.3316 111.967 51.3073 125.584C49.283 139.201 50.2432 146.138 53.7728 151.996V152.021Z" stroke="#E6E13E" stroke-width="1.28625" stroke-miterlimit="10"/>
</g>
<path d="M64.3612 103.823C61.9217 97.1169 51.7224 92.0298 51.7224 92.0298C50.1393 97.8619 47.2586 99.8146 45.3641 107.085C46.5839 109.526 47.4662 112.07 48.3486 114.588C48.8677 116.052 46.2465 117.003 45.7274 115.538C45.3122 114.331 44.871 113.123 44.4039 111.916C43.0803 121.55 44.845 133.163 44.845 133.163L64.3612 132.752C64.3612 132.752 66.8008 110.554 64.3612 103.848V103.823Z" fill="#FFF60D"/>
<mask id="mask3_2311_87" style="mask-type:luminance" maskUnits="userSpaceOnUse" x="43" y="92" width="23" height="42">
<path d="M64.3612 103.823C61.9217 97.1169 51.7224 92.0298 51.7224 92.0298C50.1393 97.8619 47.2586 99.8146 45.3641 107.085C46.5839 109.526 47.4662 112.07 48.3486 114.588C48.8677 116.052 46.2465 117.003 45.7274 115.538C45.3122 114.331 44.871 113.123 44.4039 111.916C43.0803 121.55 44.845 133.163 44.845 133.163L64.3612 132.752C64.3612 132.752 66.8008 110.554 64.3612 103.848V103.823Z" fill="white"/>
</mask>
<g mask="url(#mask3_2311_87)">
<path d="M64.2832 98.7098C63.2191 97.9904 61.7917 98.4785 61.2208 99.4035C60.1567 101.125 57.9248 102.564 55.667 102.846C55.3815 102.872 55.0701 102.898 54.7586 102.923C54.7067 102.923 54.551 102.923 54.4732 102.923C54.2915 102.923 54.1098 102.898 53.9282 102.872C53.3053 102.795 52.916 102.692 52.2413 102.435C51.826 102.281 51.2551 101.947 50.762 101.587C50.5803 101.433 50.6841 101.536 50.5803 101.433C50.4505 101.33 50.3467 101.202 50.217 101.073C49.9834 100.842 49.7758 100.585 49.5941 100.303C49.0232 99.5319 47.5439 99.5062 46.7913 100.02C45.857 100.637 45.8829 101.587 46.4539 102.384C46.9989 103.129 47.6736 103.771 48.4522 104.311C48.3224 104.388 48.2186 104.491 48.1148 104.593C47.492 105.261 47.5958 106.443 48.5041 106.931C52.2413 108.935 57.1463 110.297 61.117 107.831C62.7001 106.854 63.7382 105.364 64.4389 103.848C65.2174 102.204 66.2555 100.071 64.2832 98.7098Z" fill="#FFF60D"/>
</g>
<path d="M39.3694 94.9844C39.3694 94.9844 55.8232 100.251 62.2594 116.36C68.6955 132.444 63.7386 149.401 53.3058 152.381C42.8729 155.361 32.9591 139.227 31.8172 126.252C30.7013 113.277 39.3694 95.0101 39.3694 95.0101V94.9844Z" fill="#FFF60D"/>
<mask id="mask4_2311_87" style="mask-type:luminance" maskUnits="userSpaceOnUse" x="31" y="94" width="35" height="59">
<path d="M39.3694 94.9844C39.3694 94.9844 55.8232 100.251 62.2594 116.36C68.6955 132.444 63.7386 149.401 53.3058 152.381C42.8729 155.361 32.9591 139.227 31.8172 126.252C30.7013 113.277 39.3694 95.0101 39.3694 95.0101V94.9844Z" fill="white"/>
</mask>
<g mask="url(#mask4_2311_87)">
<path d="M57.5622 151.61C57.0951 150.711 55.9532 150.454 54.941 150.737C54.7853 150.788 54.6556 150.814 54.4998 150.839C53.7213 150.069 52.8129 149.375 51.671 148.887C50.607 148.424 49.4132 148.193 48.2972 147.756C47.6744 147.525 47.0775 147.217 46.4806 146.909C46.2729 146.909 46.0394 146.831 45.8317 146.729C45.0013 146.292 44.2486 145.804 43.522 145.239C42.0427 144.391 40.7451 143.286 39.6291 142.053C36.6965 139.406 34.4386 136.246 32.4922 132.983C31.5579 133.317 30.8832 134.139 31.3244 135.141C32.5441 137.788 33.9196 140.357 35.4767 142.849C36.9041 145.136 38.4613 147.397 40.5115 149.349C43.6258 152.304 47.9858 154.385 52.6053 154.359C52.761 154.565 52.9167 154.796 53.0725 155.002C53.6175 155.772 54.6296 156.261 55.6936 155.875C56.576 155.567 57.2767 154.488 56.7577 153.717C57.5622 153.332 57.8737 152.33 57.5363 151.636L57.5622 151.61Z" fill="#FFF60D"/>
<path opacity="0.48" d="M41.6016 106.006C39.9147 103.257 37.4232 101.279 34.9578 99.1208C33.9975 99.3521 33.2968 100.328 33.5304 101.253C33.2968 101.664 33.2709 102.178 33.4525 102.641C33.712 103.309 33.9716 103.977 34.2311 104.645C33.6861 106.161 33.1151 107.676 32.5961 109.192C31.4801 110.837 31.2466 113.226 31.013 114.999C31.013 115.101 31.013 115.23 30.987 115.333C30.2604 119.726 30.442 124.145 31.1947 128.564C30.5718 129.232 30.442 130.286 31.3504 131.031C31.6359 131.262 31.9473 131.442 32.2328 131.545C32.648 132.29 33.2189 132.958 33.9197 133.549C35.7623 135.064 38.8766 135.63 40.6673 133.754C42.3542 132.007 42.8992 129.027 43.3663 126.894C43.9113 124.351 44.067 121.756 44.0411 119.187C43.9892 115.204 43.6778 111.016 42.2244 107.163C42.0168 106.777 41.8351 106.392 41.6016 106.032V106.006Z" fill="#FFF60D"/>
</g>
<path d="M53.7728 152.021C53.7728 152.021 69.3961 157.16 76.2735 130.337C83.1509 103.514 67.7611 94.933 67.7611 94.933C67.7611 94.933 53.3316 111.967 51.3073 125.584C49.283 139.201 50.2432 146.138 53.7728 151.996V152.021Z" fill="#FFF60D"/>
<mask id="mask5_2311_87" style="mask-type:luminance" maskUnits="userSpaceOnUse" x="50" y="94" width="29" height="59">
<path d="M53.7728 152.021C53.7728 152.021 69.3961 157.16 76.2735 130.337C83.1509 103.514 67.7611 94.933 67.7611 94.933C67.7611 94.933 53.3316 111.967 51.3073 125.584C49.283 139.201 50.2432 146.138 53.7728 151.996V152.021Z" fill="white"/>
</mask>
<g mask="url(#mask5_2311_87)">
<path d="M79.5176 128.41C81.8274 119.572 82.035 110.374 80.0107 101.433C78.9726 96.86 77.3636 92.3639 75.1836 88.0475C74.1714 86.0692 70.4862 87.3795 71.4983 89.3579C73.86 94.0339 75.495 98.9154 76.4293 103.9C74.7943 100.2 72.3029 96.8857 69.5779 93.5457C68.1245 91.7729 64.9583 93.8283 66.4117 95.6268C69.8114 99.7632 72.77 103.848 73.9119 108.833C75.0538 113.817 75.6767 118.981 75.7286 124.068C75.7286 125.327 75.7026 126.586 75.5988 127.819C74.976 130.157 74.2233 132.495 73.315 134.782C72.0952 137.814 70.59 140.742 68.8252 143.569C67.7093 144.494 66.5674 145.393 65.3217 146.189C62.1555 148.27 57.3802 150.506 53.5133 148.245C51.4112 147.011 48.9717 149.683 51.0998 150.917C55.9529 153.743 61.8441 152.355 66.3338 149.735C66.6971 149.529 67.0605 149.298 67.3979 149.067C68.2024 149.555 69.2924 149.581 69.9412 148.681C70.4602 147.936 70.9533 147.191 71.4464 146.446C70.6419 148.836 69.7855 151.199 68.9291 153.589C68.1764 155.644 71.8876 156.929 72.6402 154.873C74.3791 150.12 76.04 145.393 77.3117 140.614C77.6231 140.28 77.9605 139.972 78.2719 139.638C79.0245 138.867 78.765 138.019 78.0902 137.505C78.765 134.499 79.2841 131.468 79.5436 128.384L79.5176 128.41Z" fill="#FFF60D"/>
<path opacity="0.43" d="M69.0591 109.783C68.54 108.627 66.1265 108.216 65.2441 109.68C62.8305 113.766 61.1176 118.108 60.1055 122.578C59.1193 126.997 58.6003 131.879 59.4048 136.323C59.6903 137.942 60.7803 139.715 62.9603 139.766C65.5555 139.843 66.7234 137.505 67.7355 135.887C70.201 131.956 71.7062 127.537 72.1734 123.118C72.6405 118.75 72.6405 113.252 69.0331 109.732L69.0591 109.783Z" fill="#FFF60D"/>
</g>
<g opacity="0.86">
<path d="M64.3612 103.823C61.9217 97.1169 51.7224 92.0298 51.7224 92.0298C50.1393 97.8619 47.2586 99.8146 45.3641 107.085C46.5839 109.526 47.4662 112.07 48.3486 114.588C48.8677 116.052 46.2465 117.003 45.7274 115.538C45.3122 114.331 44.871 113.123 44.4039 111.916C43.0803 121.55 44.845 133.163 44.845 133.163L64.3612 132.752C64.3612 132.752 66.8008 110.554 64.3612 103.848V103.823Z" fill="#D48122"/>
<mask id="mask6_2311_87" style="mask-type:luminance" maskUnits="userSpaceOnUse" x="43" y="92" width="23" height="42">
<path d="M64.3612 103.823C61.9217 97.1169 51.7224 92.0298 51.7224 92.0298C50.1393 97.8619 47.2586 99.8146 45.3641 107.085C46.5839 109.526 47.4662 112.07 48.3486 114.588C48.8677 116.052 46.2465 117.003 45.7274 115.538C45.3122 114.331 44.871 113.123 44.4039 111.916C43.0803 121.55 44.845 133.163 44.845 133.163L64.3612 132.752C64.3612 132.752 66.8008 110.554 64.3612 103.848V103.823Z" fill="white"/>
</mask>
<g mask="url(#mask6_2311_87)">
<path d="M64.283 98.7098C63.219 97.9904 61.7916 98.4785 61.2207 99.4035C60.1566 101.125 57.9247 102.564 55.6669 102.846C55.3814 102.872 55.0699 102.898 54.7585 102.923C54.7066 102.923 54.5509 102.923 54.473 102.923C54.2914 102.923 54.1097 102.898 53.928 102.872C53.3052 102.795 52.9159 102.692 52.2411 102.435C51.8259 102.281 51.2549 101.947 50.7619 101.587C50.5802 101.433 50.684 101.536 50.5802 101.433C50.4504 101.33 50.3466 101.202 50.2169 101.073C49.9833 100.842 47.388 99.6604 46.7911 100.02C45.8309 100.611 45.8828 101.587 46.4538 102.384C46.9988 103.129 47.6735 103.771 48.4521 104.311C48.3223 104.388 48.2185 104.491 48.1147 104.593C47.4919 105.261 47.5957 106.443 48.504 106.931C52.2411 108.935 57.1461 110.297 61.1169 107.831C62.6999 106.854 63.738 105.364 64.4388 103.848C65.2173 102.204 66.2554 100.071 64.283 98.7098Z" fill="#CC7513"/>
</g>
<path d="M39.3694 94.9844C39.3694 94.9844 55.8232 100.251 62.2594 116.36C68.6955 132.444 63.7386 149.401 53.3058 152.381C42.8729 155.361 32.9591 139.227 31.8172 126.252C30.7013 113.277 39.3694 95.0101 39.3694 95.0101V94.9844Z" fill="#D68B36"/>
<mask id="mask7_2311_87" style="mask-type:luminance" maskUnits="userSpaceOnUse" x="31" y="94" width="35" height="59">
<path d="M39.3694 94.9844C39.3694 94.9844 55.8232 100.251 62.2594 116.36C68.6955 132.444 63.7386 149.401 53.3058 152.381C42.8729 155.361 32.9591 139.227 31.8172 126.252C30.7013 113.277 39.3694 95.0101 39.3694 95.0101V94.9844Z" fill="white"/>
</mask>
<g mask="url(#mask7_2311_87)">
<path d="M57.5622 151.61C57.0951 150.711 55.9532 150.454 54.941 150.737C54.7853 150.788 54.6556 150.814 54.4998 150.839C53.7213 150.069 52.8129 149.375 51.671 148.887C50.607 148.424 49.4132 148.193 48.2972 147.756C47.6744 147.525 47.0775 147.217 46.4806 146.909C46.2729 146.909 46.0394 146.831 45.8317 146.729C45.0013 146.292 44.2486 145.804 43.522 145.239C42.0427 144.391 40.7451 143.286 39.6291 142.053C36.6965 139.406 34.4386 136.246 32.4922 132.983C31.5579 133.317 30.8832 134.139 31.3244 135.141C32.5441 137.788 33.9196 140.357 35.4767 142.849C36.9041 145.136 38.4613 147.397 40.5115 149.349C43.6258 152.304 47.9858 154.385 52.6053 154.359C52.761 154.565 52.9167 154.796 53.0725 155.002C53.6175 155.772 54.6296 156.261 55.6936 155.875C56.576 155.567 57.2767 154.488 56.7577 153.717C57.5622 153.332 57.8737 152.33 57.5363 151.636L57.5622 151.61Z" fill="#D4862D"/>
<path opacity="0.48" d="M41.6016 106.006C39.9147 103.257 37.4232 101.279 34.9578 99.1208C33.9975 99.3521 33.2968 100.328 33.5304 101.253C33.2968 101.664 33.2709 102.178 33.4525 102.641C33.712 103.309 33.9716 103.977 34.2311 104.645C33.6861 106.161 33.1151 107.676 32.5961 109.192C31.4801 110.837 31.2466 113.226 31.013 114.999C31.013 115.101 31.013 115.23 30.987 115.333C30.2604 119.726 30.442 124.145 31.1947 128.564C30.5718 129.232 30.442 130.286 31.3504 131.031C31.6359 131.262 31.9473 131.442 32.2328 131.545C32.648 132.29 33.2189 132.958 33.9197 133.549C35.7623 135.064 38.8766 135.63 40.6673 133.754C42.3542 132.007 42.8992 129.027 43.3663 126.894C43.9113 124.351 44.067 121.756 44.0411 119.187C43.9892 115.204 43.6778 111.016 42.2244 107.163C42.0168 106.777 41.8351 106.392 41.6016 106.032V106.006Z" fill="#DDA05A"/>
</g>
<path d="M53.7728 152.021C53.7728 152.021 69.3961 157.16 76.2735 130.337C83.1509 103.514 67.7611 94.933 67.7611 94.933C67.7611 94.933 53.3316 111.967 51.3073 125.584C49.283 139.201 50.2432 146.138 53.7728 151.996V152.021Z" fill="#D07C1C"/>
<mask id="mask8_2311_87" style="mask-type:luminance" maskUnits="userSpaceOnUse" x="50" y="94" width="29" height="59">
<path d="M53.7728 152.021C53.7728 152.021 69.3961 157.16 76.2735 130.337C83.1509 103.514 67.7611 94.933 67.7611 94.933C67.7611 94.933 53.3316 111.967 51.3073 125.584C49.283 139.201 50.2432 146.138 53.7728 151.996V152.021Z" fill="white"/>
</mask>
<g mask="url(#mask8_2311_87)">
<path d="M79.5176 128.41C81.8274 119.572 82.035 110.374 80.0107 101.433C78.9726 96.86 77.3636 92.3639 75.1836 88.0475C74.1714 86.0692 70.4862 87.3795 71.4983 89.3579C73.86 94.0339 75.495 98.9154 76.4293 103.9C74.7943 100.2 72.3029 96.8857 69.5779 93.5457C68.1245 91.7729 64.9583 93.8283 66.4117 95.6268C69.8114 99.7632 72.77 103.848 73.9119 108.833C75.0538 113.817 75.6767 118.981 75.7286 124.068C75.7286 125.327 75.7026 126.586 75.5988 127.819C74.976 130.157 74.2233 132.495 73.315 134.782C72.0952 137.814 70.59 140.742 68.8252 143.569C67.7093 144.494 66.5674 145.393 65.3217 146.189C62.1555 148.27 57.3802 150.506 53.5133 148.245C51.4112 147.011 48.9717 149.683 51.0998 150.917C55.9529 153.743 61.8441 152.355 66.3338 149.735C66.6971 149.529 67.0605 149.298 67.3979 149.067C68.2024 149.555 69.2924 149.581 69.9412 148.681C70.4602 147.936 70.9533 147.191 71.4464 146.446C70.6419 148.836 69.7855 151.199 68.9291 153.589C68.1764 155.644 71.8876 156.929 72.6402 154.873C74.3791 150.12 76.04 145.393 77.3117 140.614C77.6231 140.28 77.9605 139.972 78.2719 139.638C79.0245 138.867 78.765 138.019 78.0902 137.505C78.765 134.499 79.2841 131.468 79.5436 128.384L79.5176 128.41Z" fill="#CF7713"/>
<path opacity="0.43" d="M69.0591 109.783C68.54 108.627 66.1265 108.216 65.2441 109.68C62.8305 113.766 61.1176 118.108 60.1055 122.578C59.1193 126.997 58.6003 131.879 59.4048 136.323C59.6903 137.942 60.7803 139.715 62.9603 139.766C65.5555 139.843 66.7234 137.505 67.7355 135.887C70.201 131.956 71.7062 127.537 72.1734 123.118C72.6405 118.75 72.6405 113.252 69.0331 109.732L69.0591 109.783Z" fill="#D78E3B"/>
</g>
</g>
<g style="mix-blend-mode:soft-light" opacity="0.38">
<path d="M80.0365 81.8042L79.1541 84.1165L77.7787 87.7135L77.3115 88.9467L68.8511 111.325H68.8251L68.7472 111.582L68.5656 112.018L68.4618 112.301L68.306 112.738L68.2282 112.918V113.02L68.2022 113.046H68.1763V113.149L68.0465 113.431L68.0206 113.483L67.9687 113.586L67.8908 113.843L67.8649 113.92L67.7611 114.151L67.6572 114.459L67.5794 114.639L67.5275 114.793L67.4496 114.999L67.3977 115.101L67.3458 115.281L67.268 115.487L67.1901 115.692L67.0603 116.001L67.0084 116.129V116.206V116.232L66.8787 116.566V116.617L66.8268 116.771L66.697 117.131V117.183L65.9703 119.032L65.7627 119.598L65.6849 119.777L65.607 120.034L65.5551 120.137H65.5291L65.5032 120.291H65.4772L65.4513 120.42V120.497H65.3994L65.2956 120.805V120.857H65.2696V120.934V120.985H65.2437V121.062L65.1399 121.293L65.088 121.473L64.9582 121.781L64.9063 121.91L64.6468 122.578V122.655L64.5689 122.835L64.4391 123.143L64.3353 123.4L64.2315 123.734L64.1277 123.94V123.991L63.972 124.351L63.5049 125.61L63.2194 126.38L63.1156 126.637L63.0118 126.894V126.946L62.9858 127.023H62.9599L62.856 127.305L62.7263 127.691H62.7003L62.6225 127.922L62.5706 128.102L62.4668 128.359L62.3111 128.77L62.2072 129.052L62.1553 129.155V129.258L62.0256 129.515V129.566L61.9996 129.592V129.643L61.8699 129.9V129.977L61.4546 131.056H61.4287L61.3249 131.339L61.1691 131.801L61.0394 132.135L60.9356 132.367V132.469L60.8837 132.598V132.675L60.8058 132.803V132.906L60.676 133.137L60.6241 133.317L60.4165 133.805V133.857L60.2608 134.268L60.2089 134.371L60.0791 134.679L60.0532 134.807L59.8715 135.296H59.8456V135.373L59.4563 136.4L59.4044 136.529H59.3784L59.3265 136.709L59.1449 137.145L59.093 137.3L59.0411 137.454L58.9113 137.839V137.916L58.8594 137.942L58.8334 137.968V138.07L58.7556 138.199L58.6518 138.481L58.522 138.867L58.4182 139.124L58.0289 140.126L57.9511 140.357L57.7953 140.742L57.6915 141.025L57.6396 141.128L57.6137 141.256H57.5877V141.385L57.5099 141.513L57.3801 141.873L57.2244 142.284L57.1465 142.489L56.0306 145.418L55.9527 145.598L55.8749 145.855H55.8489L55.797 146.035V146.086L55.7451 146.215L55.6932 146.318V146.395L53.4094 152.33L52.0858 155.798L50.7363 159.395L50.2691 160.603L48.8937 164.225L48.0372 166.537C48.0372 166.537 47.8037 166.512 47.6999 166.486C46.7915 166.332 45.9091 166.178 45.0008 165.998C41.7568 165.33 38.6425 164.328 35.6839 163.043C28.8844 160.037 22.9413 155.49 18.3218 149.837C17.9065 149.324 17.4913 148.835 17.128 148.322C16.9722 148.142 16.8165 147.936 16.6868 147.756L17.7249 145.007L19.3858 140.537L19.9568 138.97L40.1996 84.4762L40.7706 82.909H40.7965L42.1201 79.3121L42.4315 78.4385L42.8208 77.3851L43.4696 75.6895C45.2084 75.2527 46.9991 74.9444 48.8418 74.7131C50.7363 74.4819 52.6827 74.3535 54.6551 74.3535C58.9632 74.3535 63.1415 74.9187 67.0863 75.9978C67.7091 76.1519 68.306 76.3318 68.903 76.563C72.0951 77.5393 75.1056 78.8496 77.9344 80.4682C78.687 80.905 79.4137 81.3418 80.1403 81.8042H80.0365Z" fill="#FFFB8C"/>
</g>
<path d="M85.9277 89.6147C83.8775 87.5594 81.5937 85.7352 79.1541 84.1166C75.6765 81.83 71.8356 80.0058 67.761 78.7469H67.7351C67.0084 78.49 66.2817 78.2844 65.5291 78.1303C62.0256 77.231 58.3663 76.7429 54.5772 76.7429C50.7882 76.7429 47.077 77.2053 43.5734 78.1046H43.5475C43.1322 78.2073 42.7429 78.3101 42.3277 78.4386C42.0163 78.5414 41.7048 78.6184 41.3934 78.7469C40.0179 79.158 38.6425 79.6461 37.3189 80.2113C31.9987 82.4209 27.2234 85.6324 23.2008 89.6147C15.1815 97.5537 10.2246 108.55 10.2246 120.677C10.2246 129.669 12.9496 138.045 17.647 145.007C19.282 147.422 21.1506 149.683 23.2008 151.739C26.6784 155.182 30.727 158.059 35.1908 160.192C38.8501 161.964 42.7948 163.249 46.9213 163.943C47.5441 164.045 48.167 164.148 48.8158 164.225C49.5684 164.328 50.321 164.405 51.0737 164.456C51.3591 164.482 51.6187 164.508 51.9041 164.508C52.1896 164.534 52.4491 164.559 52.7346 164.534C53.3575 164.585 53.9544 164.611 54.5772 164.611H54.6032C54.8887 164.611 55.1482 164.611 55.4337 164.585C56.8351 164.585 58.2106 164.482 59.5601 164.328C62.1294 164.045 64.6467 163.557 67.0863 162.838C74.301 160.731 80.7632 156.877 85.9536 151.739C93.9989 143.8 98.9558 132.804 98.9558 120.677C98.9558 108.55 93.9989 97.5537 85.9536 89.6147H85.9277ZM94.6737 126.792C94.6218 127.126 94.5698 127.46 94.5179 127.794C94.3882 128.436 94.2584 129.104 94.1027 129.746C94.0248 130.08 93.947 130.388 93.8691 130.722C93.6096 131.673 93.3241 132.624 93.0127 133.549C92.5975 134.808 92.1044 136.015 91.5594 137.197C91.3777 137.608 91.196 137.993 90.9884 138.379C90.5991 139.15 90.2098 139.92 89.7687 140.665C89.4313 141.231 89.0939 141.77 88.7565 142.335C88.3932 142.875 88.0298 143.389 87.6406 143.928C87.2772 144.442 86.8879 144.956 86.4987 145.47H86.4727C86.0834 145.984 85.6682 146.472 85.2529 146.96C84.6041 147.679 83.9294 148.399 83.2546 149.092C82.5539 149.76 81.8532 150.428 81.1265 151.045C80.0106 151.996 78.8427 152.895 77.6229 153.717C76.1696 154.719 74.6384 155.618 73.0553 156.44C72.7958 156.569 72.5363 156.697 72.2508 156.826C70.9272 157.468 69.5258 158.059 68.1244 158.547C68.0206 158.573 67.8908 158.624 67.787 158.65C66.4894 159.112 65.1398 159.498 63.7903 159.806C62.4927 160.114 61.1691 160.346 59.8196 160.526C58.8853 160.654 57.951 160.731 56.9908 160.782C56.1863 160.834 55.3818 160.86 54.5772 160.86C54.0063 160.86 53.4613 160.86 52.9163 160.808C52.7346 160.782 52.527 160.782 52.3453 160.782C52.0598 160.782 51.7484 160.757 51.4629 160.731C51.0217 160.705 50.6065 160.654 50.1653 160.628C48.9715 160.5 47.8296 160.32 46.6617 160.089C46.1946 159.986 45.7275 159.883 45.2603 159.78H45.2344C44.5596 159.626 43.9108 159.472 43.262 159.267C41.0301 158.624 38.876 157.802 36.8258 156.8C36.3587 156.595 35.9175 156.363 35.4763 156.132C35.4503 156.106 35.3984 156.106 35.3725 156.055C35.1129 155.927 34.8534 155.798 34.5939 155.644C34.4382 155.567 34.3084 155.464 34.1527 155.387C33.7115 155.156 33.2703 154.873 32.8551 154.616C31.1422 153.537 29.5332 152.355 28.002 151.045C27.2753 150.428 26.5746 149.76 25.8739 149.092C25.5365 148.733 25.1991 148.399 24.8618 148.039C24.5244 147.679 24.187 147.32 23.8756 146.96C23.4603 146.472 23.0451 145.984 22.6558 145.47H22.6298C22.2406 144.956 21.8513 144.442 21.462 143.928C21.0987 143.389 20.7353 142.875 20.372 142.335C20.0346 141.77 19.6972 141.231 19.3598 140.665C19.3339 140.614 19.3079 140.588 19.282 140.537C18.8668 139.818 18.5034 139.098 18.1401 138.379C17.9325 137.993 17.7508 137.608 17.5691 137.197C17.0241 136.015 16.557 134.808 16.1158 133.549C14.7403 129.515 13.9877 125.173 13.9877 120.677C13.9877 116.181 14.7403 111.839 16.1158 107.805C16.557 106.546 17.0241 105.338 17.5691 104.157C17.7508 103.746 17.9325 103.36 18.1401 102.975C18.5294 102.204 18.9187 101.433 19.3598 100.688C19.6972 100.123 20.0346 99.5834 20.372 99.0181C20.7353 98.4786 21.0987 97.939 21.462 97.4252C21.8513 96.9113 22.2406 96.3975 22.6298 95.8837H22.6558C23.0451 95.3698 23.4603 94.8817 23.8756 94.3935C24.187 94.0338 24.5244 93.6741 24.8618 93.3144C25.1991 92.9547 25.5365 92.6207 25.8739 92.261C26.5746 91.593 27.2753 90.925 28.002 90.3084C30.0782 88.51 32.362 86.9427 34.7756 85.6067C35.5801 85.1443 36.4106 84.7332 37.241 84.3478C37.5265 84.1937 37.786 84.0909 38.0715 83.9624C38.6425 83.7055 39.2134 83.4743 39.8103 83.243C40.0958 83.1403 40.3813 83.0118 40.6667 82.909H40.6927C41.0301 82.7806 41.3934 82.6521 41.7567 82.5494C44.2741 81.7015 46.8953 81.1363 49.6203 80.8023C51.2294 80.5967 52.8903 80.494 54.5772 80.494C57.7953 80.494 60.9615 80.8793 63.972 81.5987C66.9825 82.3181 69.8891 83.3458 72.5882 84.6818C73.0553 84.913 73.4965 85.1443 73.9377 85.3755C74.8201 85.838 75.7025 86.3518 76.5329 86.8913C76.9482 87.1483 77.3634 87.4309 77.7787 87.7135C78.661 88.3301 79.4915 88.9467 80.322 89.6147C80.5815 89.846 80.841 90.0772 81.1265 90.3084C81.8532 90.925 82.5539 91.593 83.2546 92.261C83.9294 92.9547 84.6041 93.6484 85.2529 94.3935C85.6682 94.8817 86.0834 95.3698 86.4727 95.8837H86.4987C86.8879 96.3975 87.2772 96.9113 87.6406 97.4252C88.0298 97.939 88.3932 98.4786 88.7565 99.0181C89.0939 99.5834 89.4313 100.123 89.7687 100.688C90.2098 101.433 90.5991 102.204 90.9884 102.975C91.196 103.36 91.3777 103.746 91.5594 104.157C92.1044 105.338 92.5975 106.546 93.0127 107.805C93.3241 108.73 93.6096 109.68 93.8691 110.631C93.947 110.965 94.0248 111.273 94.1027 111.607C94.2584 112.25 94.3882 112.892 94.5179 113.56C94.5698 113.894 94.6218 114.228 94.6737 114.562C94.7775 115.23 94.8553 115.898 94.9332 116.566C95.0629 117.928 95.1408 119.289 95.1408 120.677C95.1408 122.064 95.0629 123.426 94.9332 124.788C94.8553 125.456 94.7775 126.124 94.6737 126.792Z" fill="#FAE543"/>
<g style="mix-blend-mode:multiply">
<path d="M94.9335 116.566C94.8557 115.898 94.7778 115.23 94.674 114.562C94.6221 114.228 94.5702 113.894 94.5183 113.56C94.3885 112.892 94.2587 112.25 94.103 111.607C94.0252 111.273 93.9473 110.965 93.8695 110.631C93.6099 109.68 93.3245 108.73 93.013 107.805C92.5718 106.546 92.1047 105.338 91.5597 104.157C91.378 103.745 91.1964 103.36 90.9888 102.975C90.5995 102.204 90.2102 101.433 89.769 100.688C89.4316 100.123 89.0942 99.5833 88.7568 99.0181C88.3935 98.4785 88.0302 97.939 87.6409 97.4251C87.2776 96.9113 86.8883 96.3974 86.499 95.8836H86.473C86.0837 95.3697 85.6685 94.8816 85.2533 94.3934C84.6045 93.6484 83.9297 92.9547 83.2549 92.261C82.5542 91.593 81.8535 90.925 81.1268 90.3084C80.8414 90.0771 80.5818 89.8459 80.3223 89.6147C79.4918 88.9724 78.6614 88.3301 77.779 87.7391C77.3637 87.4565 76.9485 87.1739 76.5333 86.8913C75.7028 86.3517 74.8204 85.8636 73.938 85.3754C73.4968 85.1442 73.0557 84.913 72.5885 84.6817C69.8895 83.3457 66.9828 82.3181 63.9723 81.5987C60.9618 80.8793 57.7957 80.5196 54.5776 80.5196C52.8907 80.5196 51.2297 80.6224 49.6207 80.8022C46.8957 81.1362 44.2745 81.7014 41.7571 82.5493C41.3938 82.6521 41.0304 82.7805 40.693 82.909H40.6671C40.3816 83.0117 40.0961 83.1402 39.8107 83.243C39.2138 83.4742 38.6428 83.7054 38.0718 83.9624C37.7864 84.0908 37.5268 84.1936 37.2414 84.3478C36.4109 84.7331 35.5804 85.1442 34.7759 85.6067C32.3623 86.9427 30.0785 88.5099 28.0023 90.3084C27.2757 90.925 26.5749 91.593 25.8742 92.261C25.5368 92.6207 25.1995 92.9547 24.8621 93.3144C24.5247 93.6741 24.1873 94.0338 23.8759 94.3934C23.4607 94.8816 23.0454 95.3697 22.6561 95.8836H22.6302C22.2409 96.3974 21.8516 96.9113 21.4623 97.4251C21.099 97.939 20.7357 98.4785 20.3723 99.0181C20.0349 99.5833 19.6976 100.123 19.3602 100.688C18.919 101.433 18.5297 102.204 18.1404 102.975C17.9328 103.36 17.7511 103.745 17.5695 104.157C17.0245 105.338 16.5573 106.546 16.1161 107.805C14.7407 111.839 13.988 116.181 13.988 120.677C13.988 125.173 14.7407 129.515 16.1161 133.549C16.5573 134.807 17.0245 136.015 17.5695 137.197C17.7511 137.608 17.9328 137.993 18.1404 138.379C18.5038 139.098 18.8671 139.817 19.2823 140.511C19.2823 140.511 19.3342 140.614 19.3602 140.665C19.6976 141.231 20.0349 141.77 20.3723 142.335C20.7357 142.875 21.099 143.389 21.4623 143.928C21.8516 144.442 22.2409 144.956 22.6302 145.47H22.6561C23.0454 145.984 23.4607 146.472 23.8759 146.96C24.1873 147.32 24.5247 147.679 24.8621 148.039C25.1995 148.399 25.5368 148.733 25.8742 149.092C26.5749 149.76 27.2757 150.428 28.0023 151.045C29.5335 152.355 31.1426 153.537 32.8554 154.616C33.2707 154.873 33.7118 155.156 34.153 155.387C34.3088 155.464 34.4385 155.567 34.5942 155.644C34.8538 155.798 35.1133 155.927 35.3728 156.055C35.3987 156.106 35.4507 156.106 35.4766 156.132C35.9178 156.363 36.359 156.595 36.8261 156.8C38.8764 157.802 41.0304 158.624 43.2623 159.267C43.9111 159.446 44.5599 159.626 45.2347 159.78H45.2607C45.7278 159.883 46.1949 159.986 46.6621 160.089C47.8299 160.294 48.9718 160.474 50.1657 160.603C50.6068 160.654 51.0221 160.68 51.4633 160.705C51.7488 160.731 52.0602 160.757 52.3457 160.782C52.5273 160.782 52.7349 160.782 52.9166 160.808C53.4616 160.834 54.0066 160.834 54.5776 160.834C55.3821 160.834 56.1866 160.808 56.9911 160.757C57.9514 160.705 58.8857 160.628 59.8199 160.5C61.1695 160.32 62.493 160.089 63.7907 159.806C65.1402 159.472 66.4897 159.087 67.7873 158.65C67.8911 158.624 68.0209 158.573 68.1247 158.547C69.5261 158.033 70.9276 157.468 72.2511 156.826C72.5366 156.697 72.7961 156.569 73.0557 156.44C74.6387 155.618 76.1699 154.719 77.6233 153.743C78.843 152.895 80.0109 151.996 81.1268 151.045C81.8535 150.428 82.5542 149.76 83.2549 149.092C83.9297 148.399 84.6045 147.679 85.2533 146.96C85.6685 146.472 86.0837 145.984 86.473 145.47H86.499C86.8883 144.956 87.2776 144.442 87.6409 143.928C88.0302 143.389 88.3935 142.875 88.7568 142.335C89.0942 141.77 89.4316 141.231 89.769 140.665C90.2102 139.92 90.5995 139.149 90.9888 138.379C91.1964 137.993 91.378 137.608 91.5597 137.197C92.1047 136.015 92.5718 134.807 93.013 133.549C93.3245 132.624 93.6099 131.673 93.8695 130.722C93.9473 130.388 94.0252 130.08 94.103 129.746C94.2587 129.104 94.3885 128.436 94.5183 127.793C94.5702 127.459 94.6221 127.125 94.674 126.791C94.7778 126.123 94.8557 125.455 94.9335 124.787C95.0633 123.426 95.1411 122.064 95.1411 120.677C95.1411 119.289 95.0633 117.928 94.9335 116.566ZM82.3726 148.193C78.3499 152.175 73.4449 155.284 67.9949 157.263C65.4257 158.213 62.7266 158.855 59.9238 159.241C59.1711 159.344 58.3666 159.421 57.588 159.472C56.6018 159.575 55.5897 159.601 54.5776 159.601C54.0326 159.601 53.5135 159.601 52.9945 159.549H52.5273C52.2159 159.523 51.9304 159.498 51.619 159.472C51.2816 159.446 50.9702 159.421 50.6328 159.395C48.6085 159.189 46.6102 158.855 44.6897 158.342C41.5754 157.571 38.6428 156.415 35.8918 154.925C35.3988 154.668 34.9316 154.411 34.4385 154.128C31.6357 152.458 29.0404 150.454 26.7566 148.193C24.0316 145.47 21.6959 142.387 19.8533 138.97C16.9207 133.523 15.2597 127.28 15.2597 120.677C15.2597 109.937 19.6457 100.2 26.7566 93.1602C30.5197 89.4348 35.0614 86.4545 40.0961 84.4762C44.5859 82.7291 49.4649 81.7528 54.5776 81.7528C63.064 81.7528 70.9016 84.4248 77.3118 88.9467C79.1285 90.2056 80.8154 91.6187 82.3726 93.1602C89.4835 100.2 93.8695 109.937 93.8695 120.677C93.8695 131.416 89.4835 141.153 82.3726 148.193Z" fill="#F6F39E"/>
</g>
<path d="M108.974 0H88.5235L44.2747 73.1717H64.6992L108.974 0Z" fill="#F875B0"/>
<g style="mix-blend-mode:multiply">
<path d="M98.5668 104.825L77.779 160.911C72.0435 164.148 65.5295 166.229 58.5742 166.82L88.6271 88.921C92.9611 93.4686 96.3609 98.8639 98.5668 104.825Z" fill="#F6F39E"/>
</g>
<g style="mix-blend-mode:multiply">
<path d="M40.1743 76.5888L14.8707 145.187C12.8205 141.95 11.1855 138.456 9.9917 134.782L30.0269 81.2391C33.1931 79.3122 36.5929 77.7449 40.1743 76.6145V76.5888Z" fill="#F6F39E"/>
</g>
</svg>
