<svg width="109" height="168" viewBox="0 0 109 168" fill="none" xmlns="http://www.w3.org/2000/svg">
<path d="M0.977295 0.106934H21.223L65.1102 73.3464H44.8643L0.977295 0.106934Z" fill="#F7157B"/>
<path d="M64.699 79.5716V78.6198H45.431C44.6849 78.6198 44.0161 78.3111 43.5273 77.8223C43.0385 77.3335 42.7298 76.6647 42.7298 75.9187C42.7298 75.1726 43.0385 74.5038 43.5273 74.015C44.0161 73.5262 44.6849 73.2175 45.431 73.2175H64.699C65.4451 73.2175 66.1139 73.5262 66.6027 74.015C67.0915 74.5038 67.4002 75.1726 67.4002 75.9187C67.4002 76.6647 67.0915 77.3335 66.6027 77.8223C66.1139 78.3111 65.4451 78.6198 64.699 78.6198V80.4977C67.2201 80.4977 69.2782 78.4397 69.2782 75.9187C69.2782 73.3976 67.2201 71.3396 64.699 71.3396H45.431C42.9099 71.3396 40.8518 73.3976 40.8518 75.9187C40.8518 78.4397 42.9099 80.4977 45.431 80.4977H64.699V79.5459V79.5716Z" fill="#E0C64C"/>
<path d="M101.46 120.938C101.46 138.173 92.0449 153.223 78.0504 161.223C74.629 163.204 70.8989 164.747 66.9887 165.751C64.6734 166.394 62.2809 166.831 59.8112 167.063C59.554 167.088 59.2968 167.114 59.0395 167.14C57.7533 167.269 56.467 167.32 55.155 167.32H55.0522C54.409 167.32 53.7402 167.294 53.097 167.269C52.7883 167.269 52.4797 167.243 52.171 167.243C51.8623 167.217 51.5793 167.191 51.2706 167.166C50.3445 167.088 49.4184 166.986 48.4923 166.857C48.3894 166.831 48.2607 166.831 48.1578 166.805C47.2575 166.651 46.3829 166.497 45.4825 166.317C42.2668 165.648 39.1798 164.645 36.2471 163.358C29.5071 160.348 23.6161 155.795 19.037 150.136C18.6254 149.621 18.2137 149.132 17.8536 148.618C17.6992 148.412 17.5707 148.232 17.442 148.052C17.4163 148.026 17.4163 148.052 17.4163 148.052C17.4163 148.052 17.4163 148.026 17.3905 148C16.7989 147.177 16.233 146.328 15.7185 145.479C13.6862 142.238 12.0398 138.739 10.8822 135.061C9.95606 132.205 9.31296 129.273 8.97853 126.237C8.8499 125.156 8.77264 124.076 8.72118 122.996C8.72118 122.661 8.72118 122.327 8.72118 121.992C8.69546 121.632 8.69543 121.298 8.69543 120.938C8.69543 120.552 8.69546 120.14 8.72118 119.754C9.05561 106.429 14.9982 94.5179 24.2593 86.2858C26.2658 84.4851 28.4524 82.8644 30.7676 81.4495C33.9061 79.4944 37.2762 77.9252 40.8262 76.7933C40.8777 76.7675 40.9034 76.7675 40.9548 76.7418C41.5465 76.5617 42.1638 76.3817 42.7812 76.2016C43.1414 76.0987 43.5016 76.0215 43.8618 75.9186C43.9132 75.9186 43.9389 75.8929 43.9904 75.8929C45.714 75.4556 47.489 75.1469 49.3155 74.9153C51.1934 74.6838 53.1228 74.5552 55.0779 74.5552C59.3483 74.5552 63.49 75.1211 67.4002 76.2016C68.0176 76.3559 68.6093 76.536 69.201 76.7675C72.3652 77.7451 75.3492 79.0571 78.1533 80.6778C78.8993 81.1151 79.6197 81.5524 80.34 82.0155C83.4527 84.0477 86.3082 86.4402 88.855 89.1413C93.1254 93.6689 96.4954 99.0969 98.682 105.065C100.483 110.004 101.486 115.355 101.486 120.938H101.46Z" fill="#E0C64C"/>
<g style="mix-blend-mode:multiply" opacity="0.67">
<path d="M68.7449 97.4308H69.4897C72.0212 97.4308 75.9674 98.771 79.2435 101.824C82.5195 104.802 85.1253 109.418 85.1253 115.97C85.1253 117.981 84.902 120.065 84.3064 122.448L83.7852 124.235C82.8172 127.585 78.8709 132.425 75.6693 135.403L74.7018 136.297L72.8404 137.786H72.7658C65.3202 143.519 56.0133 146.274 48.1209 146.274H47.8228H45.9614C44.7701 146.199 43.6536 146.05 42.5368 145.827L40.973 145.455L39.5583 145.008L38.2182 144.487C37.2503 144.04 36.3568 143.519 35.4634 142.998C34.6443 142.477 33.8253 141.881 33.0807 141.285C27.6454 136.892 25.1884 130.713 25.1884 124.905C25.1884 122.671 25.5608 120.512 26.2309 118.502C26.7521 116.938 27.571 115.598 28.4645 114.258L29.6556 112.62L29.8046 112.471C30.6981 111.503 31.5915 110.758 32.4849 110.163L33.3784 109.567C34.1229 109.12 34.9419 108.748 35.6865 108.45L36.2077 108.227C37.1757 107.855 38.1437 107.557 39.1116 107.333C39.8562 107.11 40.5265 106.961 41.1966 106.738L42.1641 106.44L42.6113 106.217L43.3557 105.844C44.1002 105.472 44.9191 105.025 45.5147 104.355L46.3341 103.76C50.3547 100.707 62.7142 98.3243 68.5218 97.6542M69.4152 96.314H68.6708C62.7144 96.9841 50.3546 99.2922 45.8128 102.643L44.9935 103.238H44.9194C44.3982 103.834 43.8025 104.206 42.9835 104.579L42.2386 104.951L41.7919 105.1L40.824 105.398C40.1539 105.621 39.484 105.77 38.7394 105.993C37.7715 106.291 36.8033 106.589 35.6865 106.961L35.1657 107.185C34.3467 107.482 33.5275 107.929 32.7085 108.376L31.8151 108.971C30.8472 109.642 29.9537 110.386 28.9857 111.354L28.8367 111.503H28.7621L27.4965 113.29C26.5286 114.705 25.7095 116.194 25.1139 117.832C24.3693 119.991 23.9973 122.225 23.9973 124.607C23.9973 130.787 26.6032 137.265 32.3363 141.881C33.1554 142.477 33.9741 143.072 34.8676 143.593C35.7611 144.115 36.729 144.636 37.6969 145.083L39.1116 145.678L40.6754 146.199L42.2386 146.572C43.3555 146.795 44.547 146.944 45.7383 147.018H47.5997H47.8974C56.0131 147.018 65.4691 144.189 73.138 138.382L73.2125 138.307L75.0739 136.818L76.0419 135.924C79.3924 132.797 83.4127 128.032 84.5295 124.235L85.0508 122.448C85.6464 119.991 85.8701 117.757 85.8701 115.672C85.8701 101.973 74.7762 96.0906 69.1176 96.0906" fill="#E3D800"/>
</g>
<path d="M84.827 122.521C84.6781 123.116 84.5291 123.712 84.3057 124.308C83.2634 127.881 79.2428 132.721 75.9667 135.774C75.5944 136.072 75.2966 136.369 74.9988 136.667C74.4031 137.188 73.733 137.71 73.1374 138.156H73.0628C65.3939 144.038 55.8634 146.868 47.8222 146.793C47.2265 146.793 46.5564 146.793 45.9608 146.793C44.7695 146.719 43.5784 146.57 42.4616 146.347C41.9404 146.272 41.3445 146.123 40.8233 145.974C40.3021 145.825 39.7813 145.676 39.3346 145.528C38.8134 145.304 38.3666 145.155 37.9199 144.932C36.952 144.485 35.9841 143.964 35.165 143.443C34.2716 142.922 33.4524 142.326 32.7079 141.73C24.9645 135.476 23.103 125.722 25.6345 118.277C26.4535 115.969 27.6446 113.884 29.2082 112.171C33.5267 107.406 38.2918 107.034 41.7913 105.843C42.238 105.694 42.6851 105.545 43.0574 105.321C43.9508 104.949 44.6953 104.428 45.2909 103.758C48.6415 100.258 62.4159 97.6524 68.6702 96.9078C74.4033 96.2377 89.2943 103.609 84.827 122.521Z" fill="#BC9E08"/>
<path d="M68.6713 96.9094C68.5224 104.578 60.7788 106.514 61.0021 110.609C61.2255 114.63 53.8546 119.618 41.6438 121.108C29.3586 122.597 34.4213 118.353 29.2839 118.502C27.4969 118.502 26.3057 118.502 25.6356 118.278C26.4546 115.97 27.6458 113.885 29.2094 112.173C35.3147 105.546 42.016 107.408 45.2921 103.834C48.6426 100.334 62.4915 97.654 68.6713 96.9839V96.9094Z" fill="#EEE6BF"/>
<g style="mix-blend-mode:multiply" opacity="0.21">
<path d="M84.8272 122.523C84.6783 123.119 84.5293 123.714 84.306 124.31C83.2636 127.884 79.243 132.724 75.967 135.776C75.5947 136.074 75.2968 136.372 74.999 136.67C74.4034 137.191 73.7332 137.712 73.1376 138.159H73.0631C65.3941 144.041 55.8637 146.87 47.8224 146.796C47.2268 146.796 46.5567 146.796 45.961 146.796C44.7697 146.721 43.5787 146.572 42.4618 146.349C41.9406 146.275 41.3447 146.126 40.8236 145.977C40.3024 145.828 39.7815 145.679 39.3348 145.53C38.8136 145.307 38.3669 145.158 37.9201 144.934C36.9522 144.488 35.9843 143.966 35.1653 143.445C34.2718 142.924 33.4527 142.328 32.7081 141.733C24.9647 135.478 23.1032 125.725 25.6347 118.279C26.4537 115.971 27.6449 113.886 29.2085 112.174C33.5269 107.409 38.2921 107.036 41.7915 105.845C42.2383 105.696 42.6853 105.547 43.0576 105.324C41.9408 108.004 39.7813 113.514 40.9726 115.226C42.6106 117.46 58.2465 115.375 59.2144 110.461C60.1823 105.547 67.1813 100.335 71.4253 105.026C74.5524 108.377 83.1893 114.184 84.9018 122.523H84.8272Z" fill="#A7A12E"/>
</g>
<g style="mix-blend-mode:multiply" opacity="0.21">
<path d="M76.0401 135.774C76.0401 135.774 75.37 136.37 75.0721 136.668C74.4765 137.189 73.8064 137.71 73.2107 138.157H73.1362C65.4673 144.039 55.9368 146.868 47.8956 146.794C47.2999 146.794 46.6298 146.794 46.0342 146.794C44.8429 146.719 43.6518 146.57 42.535 146.347C42.0138 146.273 41.4179 146.124 40.8967 145.975C40.3755 145.826 39.8546 145.677 39.3334 145.454C38.8123 145.23 38.3655 145.081 37.9188 144.858C36.9508 144.411 35.983 143.89 35.1639 143.369C34.2705 142.848 33.4513 142.252 32.7068 141.656C30.4731 136.519 28.8349 130.86 29.7284 126.467C30.7707 120.958 31.5154 121.33 32.6322 116.043C33.6746 111.204 40.5992 106.513 41.6416 105.843C40.5247 106.736 32.7068 113.14 33.6747 121.479C34.7171 130.413 38.9608 135.774 41.7902 138.008C43.3537 139.199 59.5854 140.912 76.1146 135.7L76.0401 135.774Z" fill="#A7A12E"/>
</g>
<g style="mix-blend-mode:soft-light" opacity="0.4">
<path d="M69.5629 97.8768C68.446 97.8023 62.2661 98.0257 62.0428 100.706C61.8194 103.387 65.9886 98.6958 70.6049 100.632C80.9543 104.95 79.6142 112.172 80.9544 111.949C82.2946 111.726 81.8481 106.737 79.3166 104.131C76.7851 101.525 73.3601 98.1746 69.5629 97.8768Z" fill="#FCFBF5"/>
</g>
<g style="mix-blend-mode:soft-light" opacity="0.4">
<path d="M52.3635 101.897C53.9271 101.301 56.6071 99.4399 58.4685 99.8866C60.3299 100.333 60.5536 101.674 59.8091 102.865C59.0645 104.056 56.533 104.428 55.1183 105.769C53.7037 107.109 51.3211 108.598 50.0554 107.853C48.7896 107.109 47.6726 107.556 48.4171 105.545C49.1617 103.535 49.832 102.79 52.3635 101.897Z" fill="#FCFBF5"/>
</g>
<g style="mix-blend-mode:multiply" opacity="0.21">
<path d="M73.062 138.23C65.393 144.112 55.8626 146.867 47.8213 146.792C47.2257 146.792 46.5556 146.792 45.9599 146.792C44.7687 146.718 43.5776 146.569 42.4607 146.345C41.9396 146.271 41.3437 146.122 40.8225 145.973C40.3013 145.824 39.7805 145.675 39.3337 145.526C38.8125 145.303 38.3658 145.154 37.919 144.931C36.9511 144.484 35.9832 143.963 35.1642 143.442C34.2707 142.921 33.4516 142.325 32.7071 141.729C32.7071 141.729 31.7392 136.145 33.675 135.847C35.6109 135.549 38.5145 140.761 44.2476 142.921C49.0128 144.707 65.0953 142.623 73.211 138.304L73.062 138.23Z" fill="#A7A12E"/>
</g>
<g style="mix-blend-mode:soft-light" opacity="0.38">
<path d="M80.3145 82.0155L79.4398 84.3307L78.0764 87.9322L77.6134 89.167L69.227 111.574H69.2012L69.1241 111.831L68.944 112.268L68.841 112.551L68.6867 112.989L68.6096 113.169V113.271L68.5838 113.297H68.5581V113.4L68.4295 113.683L68.4037 113.735L68.3522 113.837L68.2752 114.095L68.2494 114.172L68.1466 114.403L68.0436 114.712L67.9665 114.892L67.915 115.047L67.8379 115.252L67.7864 115.355L67.7349 115.535L67.6578 115.741L67.5805 115.947L67.4519 116.256L67.4004 116.384V116.461V116.487L67.2718 116.822V116.873L67.2203 117.027L67.0917 117.388V117.439L66.3715 119.291L66.1657 119.857L66.0884 120.037L66.0113 120.294L65.9598 120.397H65.9341L65.9085 120.552H65.8827L65.857 120.68V120.758H65.8055L65.7026 121.066V121.118H65.6769V121.195V121.246H65.6511V121.323L65.5483 121.555L65.4968 121.735L65.3682 122.044L65.3167 122.172L65.0595 122.841V122.918L64.9823 123.098L64.8537 123.407L64.7508 123.664L64.6478 123.999L64.545 124.205V124.256L64.3906 124.616L63.9276 125.877L63.6447 126.649L63.5417 126.906L63.4388 127.163V127.215L63.4131 127.292H63.3873L63.2845 127.575L63.1559 127.961H63.1301L63.0529 128.192L63.0015 128.372L62.8985 128.629L62.7442 129.041L62.6413 129.324L62.5898 129.427V129.53L62.4613 129.787V129.838L62.4355 129.864V129.916L62.3069 130.173V130.25L61.8954 131.331H61.8696L61.7666 131.614L61.6123 132.077L61.4837 132.411L61.3808 132.643V132.745L61.3293 132.874V132.951L61.2522 133.08V133.183L61.1235 133.414L61.0722 133.594L60.8663 134.083V134.135L60.712 134.546L60.6605 134.649L60.5319 134.958L60.5061 135.086L60.326 135.575H60.3003V135.652L59.9145 136.681L59.863 136.81H59.8372L59.7859 136.99L59.6058 137.427L59.5543 137.582L59.5028 137.736L59.3742 138.122V138.199L59.3229 138.225L59.2971 138.251V138.353L59.2199 138.482L59.117 138.765L58.9884 139.151L58.8854 139.408L58.4996 140.412L58.4224 140.643L58.268 141.029L58.1652 141.312L58.1137 141.415L58.0879 141.543H58.0622V141.672L57.9851 141.801L57.8565 142.161L57.7022 142.572L57.6249 142.778L56.5188 145.711L56.4415 145.891L56.3644 146.148H56.3387L56.2872 146.328V146.38L56.2358 146.508L56.1843 146.611V146.688L53.9205 152.631L52.6085 156.104L51.2709 159.705L50.8077 160.914L49.4443 164.542L48.5954 166.857C48.5954 166.857 48.3638 166.831 48.2609 166.805C47.3606 166.651 46.486 166.497 45.5856 166.317C42.3699 165.648 39.2828 164.645 36.3502 163.358C29.6102 160.348 23.7191 155.795 19.1401 150.136C18.7285 149.621 18.317 149.132 17.9568 148.618C17.8025 148.438 17.6482 148.232 17.5195 148.052L18.5484 145.299L20.1949 140.823L20.7608 139.254L40.8265 84.6909L41.3924 83.1216H41.4181L42.7301 79.5201L43.0388 78.6455L43.4246 77.5907L44.0677 75.8929C45.7913 75.4556 47.5664 75.1469 49.3928 74.9153C51.2708 74.6838 53.2001 74.5552 55.1552 74.5552C59.4256 74.5552 63.5675 75.1211 67.4777 76.2016C68.0951 76.3559 68.6868 76.536 69.2785 76.7675C72.4427 77.7451 75.4267 79.0571 78.2308 80.6778C78.9768 81.1151 79.697 81.5524 80.4173 82.0155H80.3145Z" fill="#FFFB8C"/>
</g>
<path d="M86.1535 89.8358C84.1212 87.7778 81.8573 85.9513 79.4391 84.3306C75.9919 82.0411 72.1847 80.2146 68.1459 78.9541H68.1201C67.3998 78.6968 66.6794 78.491 65.9334 78.3367C62.4605 77.4363 58.8333 76.9475 55.0775 76.9475C51.3216 76.9475 47.6429 77.4106 44.17 78.3109H44.1443C43.7327 78.4138 43.3467 78.5167 42.9351 78.6454C42.6264 78.7483 42.3178 78.8254 42.0091 78.9541C40.6456 79.3657 39.2822 79.8545 37.9702 80.4204C32.6965 82.6328 27.9631 85.8484 23.9757 89.8358C16.0267 97.7849 11.1132 108.795 11.1132 120.937C11.1132 129.941 13.8144 138.328 18.4707 145.299C20.0913 147.717 21.9434 149.981 23.9757 152.039C27.4229 155.486 31.436 158.368 35.8607 160.503C39.488 162.278 43.3982 163.564 47.4885 164.259C48.1059 164.361 48.7233 164.464 49.3664 164.542C50.1124 164.644 50.8586 164.722 51.6046 164.773C51.8876 164.799 52.1447 164.825 52.4277 164.825C52.7107 164.85 52.968 164.876 53.2509 164.85C53.8683 164.902 54.4601 164.927 55.0775 164.927H55.1032C55.3862 164.927 55.6435 164.927 55.9264 164.902C57.3156 164.902 58.6789 164.799 60.0166 164.644C62.5634 164.361 65.0588 163.873 67.477 163.152C74.6286 161.043 81.034 157.184 86.1791 152.039C94.1538 144.09 99.0674 133.08 99.0674 120.937C99.0674 108.795 94.1538 97.7849 86.1791 89.8358H86.1535ZM94.8228 127.06C94.7714 127.394 94.7199 127.729 94.6685 128.063C94.5399 128.706 94.4111 129.375 94.2568 130.018C94.1796 130.353 94.1025 130.662 94.0253 130.996C93.7681 131.948 93.4851 132.9 93.1764 133.826C92.7648 135.086 92.276 136.295 91.7358 137.479C91.5557 137.89 91.3755 138.276 91.1697 138.662C90.7839 139.434 90.3981 140.206 89.9607 140.952C89.6263 141.518 89.2918 142.058 88.9574 142.624C88.5973 143.164 88.2371 143.678 87.8513 144.219C87.4911 144.733 87.1052 145.248 86.7193 145.762H86.6936C86.3077 146.277 85.8962 146.766 85.4846 147.254C84.8415 147.975 84.1726 148.695 83.5037 149.389C82.8091 150.058 82.1145 150.727 81.3942 151.345C80.288 152.296 79.1305 153.197 77.9214 154.02C76.4808 155.023 74.963 155.924 73.3937 156.747C73.1365 156.875 72.8793 157.004 72.5963 157.133C71.2843 157.776 69.8951 158.368 68.5059 158.856C68.403 158.882 68.2744 158.933 68.1715 158.959C66.8852 159.422 65.5476 159.808 64.2099 160.117C62.9236 160.426 61.6117 160.657 60.274 160.837C59.3479 160.966 58.4217 161.043 57.4699 161.094C56.6724 161.146 55.8749 161.172 55.0775 161.172C54.5115 161.172 53.9713 161.172 53.431 161.12C53.2509 161.094 53.0452 161.094 52.8651 161.094C52.5822 161.094 52.2734 161.069 51.9904 161.043C51.5531 161.017 51.1415 160.966 50.7042 160.94C49.5208 160.811 48.389 160.631 47.2313 160.4C46.7683 160.297 46.3051 160.194 45.8421 160.091H45.8165C45.1476 159.937 44.5045 159.782 43.8614 159.577C41.649 158.933 39.5137 158.11 37.4814 157.107C37.0184 156.901 36.5811 156.67 36.1438 156.438C36.1181 156.412 36.0665 156.412 36.0408 156.361C35.7836 156.232 35.5263 156.104 35.2691 155.949C35.1147 155.872 34.9862 155.769 34.8318 155.692C34.3945 155.461 33.9572 155.178 33.5456 154.92C31.8477 153.84 30.2527 152.657 28.735 151.345C28.0147 150.727 27.3201 150.058 26.6255 149.389C26.2911 149.029 25.9566 148.695 25.6222 148.335C25.2877 147.975 24.9533 147.614 24.6446 147.254C24.233 146.766 23.8215 146.277 23.4356 145.762H23.4098C23.024 145.248 22.6381 144.733 22.2522 144.219C21.892 143.678 21.5319 143.164 21.1718 142.624C20.8373 142.058 20.5029 141.518 20.1685 140.952C20.1427 140.9 20.1171 140.874 20.0914 140.823C19.6798 140.103 19.3196 139.382 18.9594 138.662C18.7536 138.276 18.5735 137.89 18.3934 137.479C17.8532 136.295 17.3901 135.086 16.9528 133.826C15.5894 129.787 14.8433 125.439 14.8433 120.937C14.8433 116.436 15.5894 112.088 16.9528 108.049C17.3901 106.789 17.8532 105.58 18.3934 104.396C18.5735 103.985 18.7536 103.599 18.9594 103.213C19.3453 102.441 19.7311 101.669 20.1685 100.923C20.5029 100.357 20.8373 99.8172 21.1718 99.2512C21.5319 98.711 21.892 98.1707 22.2522 97.6562C22.6381 97.1417 23.024 96.6272 23.4098 96.1127H23.4356C23.8215 95.5982 24.233 95.1094 24.6446 94.6207C24.9533 94.2605 25.2877 93.9004 25.6222 93.5402C25.9566 93.1801 26.2911 92.8456 26.6255 92.4855C27.3201 91.8166 28.0147 91.1478 28.735 90.5304C30.793 88.7296 33.0567 87.1604 35.4492 85.8227C36.2467 85.3596 37.0699 84.948 37.8931 84.5621C38.1761 84.4078 38.4334 84.3049 38.7163 84.1763C39.2823 83.919 39.8482 83.6875 40.4399 83.456C40.7228 83.3531 41.0059 83.2244 41.2888 83.1215H41.3146C41.649 82.9929 42.0091 82.8643 42.3693 82.7614C44.8646 81.9125 47.4627 81.3465 50.1639 81.0121C51.7588 80.8063 53.4053 80.7034 55.0775 80.7034C58.2674 80.7034 61.4058 81.0893 64.39 81.8096C67.3741 82.5299 70.2553 83.5589 72.9307 84.8966C73.3938 85.1281 73.8311 85.3596 74.2685 85.5912C75.1431 86.0542 76.0178 86.5687 76.841 87.1089C77.2526 87.3662 77.6641 87.6492 78.0757 87.9321C78.9504 88.5495 79.7735 89.167 80.5968 89.8358C80.854 90.0673 81.1112 90.2989 81.3942 90.5304C82.1145 91.1478 82.8091 91.8166 83.5037 92.4855C84.1726 93.1801 84.8415 93.8746 85.4846 94.6207C85.8962 95.1094 86.3077 95.5982 86.6936 96.1127H86.7193C87.1052 96.6272 87.4911 97.1417 87.8513 97.6562C88.2371 98.1707 88.5973 98.711 88.9574 99.2512C89.2918 99.8172 89.6263 100.357 89.9607 100.923C90.3981 101.669 90.7839 102.441 91.1697 103.213C91.3755 103.599 91.5557 103.985 91.7358 104.396C92.276 105.58 92.7648 106.789 93.1764 108.049C93.4851 108.975 93.7681 109.927 94.0253 110.879C94.1025 111.213 94.1796 111.522 94.2568 111.857C94.4111 112.5 94.5399 113.143 94.6685 113.812C94.7199 114.146 94.7714 114.48 94.8228 114.815C94.9257 115.484 95.0028 116.153 95.08 116.821C95.2086 118.185 95.2859 119.548 95.2859 120.937C95.2859 122.327 95.2086 123.69 95.08 125.053C95.0028 125.722 94.9257 126.391 94.8228 127.06Z" fill="#FAE543"/>
<g style="mix-blend-mode:multiply">
<path d="M98.6561 105.065L78.0502 161.223C72.365 164.464 65.9079 166.548 59.0135 167.14L88.8033 89.1411C93.0994 93.6945 96.4694 99.0967 98.6561 105.065Z" fill="#F6F39E"/>
</g>
<g style="mix-blend-mode:multiply">
<path d="M40.8003 76.793L15.7183 145.479C13.686 142.238 12.0653 138.739 10.882 135.06L30.7417 81.4492C33.8801 79.5198 37.2502 77.9506 40.8003 76.8187V76.793Z" fill="#F6F39E"/>
</g>
<g style="mix-blend-mode:multiply">
<path d="M95.0804 116.821C95.0032 116.152 94.9261 115.484 94.8232 114.815C94.7718 114.48 94.7203 114.146 94.6689 113.812C94.5403 113.143 94.4116 112.5 94.2572 111.856C94.18 111.522 94.1029 111.213 94.0258 110.879C93.7685 109.927 93.4855 108.975 93.1768 108.049C92.7395 106.789 92.2764 105.579 91.7362 104.396C91.5561 103.985 91.376 103.599 91.1702 103.213C90.7843 102.441 90.3985 101.669 89.9612 100.923C89.6267 100.357 89.2923 99.817 88.9578 99.2511C88.5977 98.7109 88.2375 98.1706 87.8517 97.6561C87.4915 97.1416 87.1056 96.6271 86.7198 96.1126H86.694C86.3081 95.5981 85.8966 95.1093 85.485 94.6206C84.8419 93.8745 84.173 93.18 83.5041 92.4854C82.8095 91.8165 82.1149 91.1477 81.3946 90.5303C81.1117 90.2988 80.8544 90.0672 80.5972 89.8357C79.774 89.1926 78.9508 88.5494 78.0762 87.9578C77.6646 87.6748 77.253 87.3918 76.8414 87.1088C76.0182 86.5686 75.1435 86.0798 74.2689 85.5911C73.8316 85.3595 73.3942 85.128 72.9311 84.8965C70.2557 83.5588 67.3745 82.5298 64.3904 81.8095C61.4063 81.0892 58.2678 80.729 55.0779 80.729C53.4058 80.729 51.7593 80.8319 50.1643 81.012C47.4632 81.3464 44.865 81.9124 42.3697 82.7613C42.0095 82.8642 41.6494 82.9928 41.315 83.1214H41.2893C41.0063 83.2243 40.7233 83.353 40.4403 83.4559C39.8486 83.6874 39.2827 83.9189 38.7167 84.1762C38.4338 84.3048 38.1765 84.4077 37.8935 84.562C37.0703 84.9479 36.2471 85.3595 35.4496 85.8226C33.0572 87.1603 30.7934 88.7295 28.7354 90.5303C28.0151 91.1477 27.3205 91.8165 26.6259 92.4854C26.2915 92.8455 25.957 93.18 25.6226 93.5401C25.2882 93.9003 24.9537 94.2604 24.645 94.6206C24.2334 95.1093 23.8219 95.5981 23.436 96.1126H23.4103C23.0244 96.6271 22.6385 97.1416 22.2526 97.6561C21.8924 98.1706 21.5323 98.7109 21.1722 99.2511C20.8378 99.817 20.5033 100.357 20.1689 100.923C19.7315 101.669 19.3457 102.441 18.9599 103.213C18.7541 103.599 18.5739 103.985 18.3938 104.396C17.8536 105.579 17.3906 106.789 16.9532 108.049C15.5898 112.088 14.8438 116.435 14.8438 120.937C14.8438 125.439 15.5898 129.787 16.9532 133.826C17.3906 135.086 17.8536 136.295 18.3938 137.479C18.5739 137.89 18.7541 138.276 18.9599 138.662C19.32 139.382 19.6802 140.103 20.0918 140.797C20.0918 140.797 20.1431 140.9 20.1689 140.952C20.5033 141.517 20.8378 142.058 21.1722 142.624C21.5323 143.164 21.8924 143.678 22.2526 144.219C22.6385 144.733 23.0244 145.248 23.4103 145.762H23.436C23.8219 146.277 24.2334 146.765 24.645 147.254C24.9537 147.614 25.2882 147.974 25.6226 148.335C25.957 148.695 26.2915 149.029 26.6259 149.389C27.3205 150.058 28.0151 150.727 28.7354 151.344C30.2532 152.656 31.8481 153.84 33.546 154.92C33.9576 155.178 34.3949 155.46 34.8322 155.692C34.9866 155.769 35.1152 155.872 35.2695 155.949C35.5268 156.104 35.784 156.232 36.0412 156.361C36.067 156.412 36.1185 156.412 36.1442 156.438C36.5816 156.67 37.0188 156.901 37.4818 157.107C39.5141 158.11 41.6494 158.933 43.8618 159.577C44.5049 159.757 45.148 159.937 45.8169 160.091H45.8425C46.3055 160.194 46.7687 160.297 47.2318 160.4C48.3894 160.606 49.5212 160.786 50.7046 160.914C51.1419 160.966 51.5535 160.991 51.9908 161.017C52.2738 161.043 52.5826 161.069 52.8656 161.094C53.0456 161.094 53.2514 161.094 53.4314 161.12C53.9717 161.146 54.5119 161.146 55.0779 161.146C55.8754 161.146 56.6728 161.12 57.4703 161.069C58.4221 161.017 59.3483 160.94 60.2744 160.811C61.6121 160.631 62.924 160.4 64.2103 160.117C65.548 159.782 66.8856 159.396 68.1719 158.959C68.2748 158.933 68.4034 158.882 68.5063 158.856C69.8955 158.342 71.2847 157.776 72.5967 157.133C72.8797 157.004 73.1369 156.875 73.3942 156.747C74.9634 155.924 76.4812 155.023 77.9218 154.046C79.1309 153.197 80.2885 152.296 81.3946 151.344C82.1149 150.727 82.8095 150.058 83.5041 149.389C84.173 148.695 84.8419 147.974 85.485 147.254C85.8966 146.765 86.3081 146.277 86.694 145.762H86.7198C87.1056 145.248 87.4915 144.733 87.8517 144.219C88.2375 143.678 88.5977 143.164 88.9578 142.624C89.2923 142.058 89.6267 141.517 89.9612 140.952C90.3985 140.205 90.7843 139.434 91.1702 138.662C91.376 138.276 91.5561 137.89 91.7362 137.479C92.2764 136.295 92.7395 135.086 93.1768 133.826C93.4855 132.9 93.7685 131.948 94.0258 130.996C94.1029 130.661 94.18 130.353 94.2572 130.018C94.4116 129.375 94.5403 128.706 94.6689 128.063C94.7203 127.729 94.7718 127.394 94.8232 127.06C94.9261 126.391 95.0032 125.722 95.0804 125.053C95.2091 123.69 95.2863 122.327 95.2863 120.937C95.2863 119.548 95.2091 118.185 95.0804 116.821ZM82.6296 148.489C78.6422 152.476 73.78 155.589 68.3777 157.57C65.8309 158.522 63.1556 159.165 60.3773 159.551C59.6312 159.654 58.8337 159.731 58.0619 159.782C57.0844 159.885 56.0812 159.911 55.0779 159.911C54.5377 159.911 54.0232 159.911 53.5087 159.859H53.0457C52.737 159.834 52.4539 159.808 52.1452 159.782C51.8108 159.757 51.502 159.731 51.1676 159.705C49.1611 159.499 47.1803 159.165 45.2766 158.65C42.1896 157.879 39.2826 156.721 36.5558 155.229C36.067 154.972 35.6039 154.714 35.1152 154.431C32.3368 152.759 29.7643 150.753 27.5005 148.489C24.7993 145.762 22.4841 142.675 20.6577 139.254C17.7507 133.8 16.1043 127.549 16.1043 120.937C16.1043 110.184 20.4518 100.434 27.5005 93.3858C31.2306 89.6556 35.7325 86.6715 40.7232 84.6907C45.1737 82.9414 50.01 81.9638 55.0779 81.9638C63.49 81.9638 71.259 84.6392 77.6131 89.1668C79.4139 90.4274 81.086 91.8423 82.6296 93.3858C89.6782 100.434 94.0258 110.184 94.0258 120.937C94.0258 131.69 89.6782 141.44 82.6296 148.489Z" fill="#F6F39E"/>
</g>
<path d="M108.998 0.106934H88.7265L44.865 73.3464H65.1108L108.998 0.106934Z" fill="#F875B0"/>
</svg>
