<svg width="109" height="168" viewBox="0 0 109 168" fill="none" xmlns="http://www.w3.org/2000/svg">
<path d="M0.977295 0.106934H21.2487L65.1099 73.372H44.8643L0.977295 0.106934Z" fill="#05D1E8"/>
<path d="M64.6982 79.5973V78.6454H45.4301C44.6841 78.6454 44.0152 78.3367 43.5265 77.848C43.0377 77.3592 42.729 76.6903 42.729 75.9443C42.729 75.1983 43.0377 74.5294 43.5265 74.0406C44.0152 73.5519 44.6841 73.2432 45.4301 73.2432H64.6982C65.4442 73.2432 66.1131 73.5519 66.6019 74.0406C67.0907 74.5294 67.3994 75.1983 67.3994 75.9443C67.3994 76.6903 67.0907 77.3592 66.6019 77.848C66.1131 78.3367 65.4442 78.6454 64.6982 78.6454V80.5234C67.2193 80.5234 69.2773 78.4654 69.2773 75.9443C69.2773 73.4232 67.2193 71.3652 64.6982 71.3652H45.4301C42.9091 71.3652 40.8511 73.4232 40.8511 75.9443C40.8511 78.4654 42.9091 80.5234 45.4301 80.5234H64.6982V79.5715V79.5973Z" fill="#E0C64C"/>
<path d="M101.46 120.938C101.46 146.56 80.6994 167.32 55.0772 167.32C52.8391 167.32 50.6525 167.166 48.5173 166.857C47.514 166.702 46.5107 166.548 45.5332 166.342C34.9087 164.13 25.6477 158.265 19.0621 150.136C18.5219 149.467 17.9816 148.772 17.4671 148.052C12.3478 140.952 9.15793 132.334 8.77205 122.996C8.77205 122.661 8.77206 122.327 8.74634 121.992C8.74634 121.632 8.74634 121.272 8.74634 120.938C8.74634 120.552 8.74634 120.14 8.74634 119.754C9.28656 98.5052 24.1299 80.7806 44.0154 75.8929C45.739 75.4556 47.5398 75.1469 49.3405 74.9153C51.2442 74.6838 53.1736 74.5552 55.1287 74.5552C63.5151 74.5552 71.3869 76.7933 78.2041 80.6777C78.9501 81.1151 79.6704 81.5524 80.3907 82.0155C93.1246 90.2732 101.537 104.628 101.537 120.912L101.46 120.938Z" fill="#E0C64C"/>
<path d="M74.3969 141.183C74.4741 141.492 74.577 141.8 74.6541 142.083H74.7571C74.6799 141.749 74.6027 141.44 74.5255 141.132C71.8501 130.456 68.5574 118.005 65.8048 107.74C64.7243 103.65 63.5924 99.5598 62.4605 95.4695L61.6116 95.701C65.5732 110.39 70.0494 126.365 74.3969 141.157V141.183Z" fill="#CCB023"/>
<path d="M74.6543 142.084C74.7315 142.392 74.8344 142.701 74.9116 143.01C75.0659 143.576 75.246 144.116 75.4003 144.682C75.2717 144.142 75.1174 143.55 74.9887 142.984C74.9116 142.675 74.8344 142.367 74.7572 142.058H74.6543V142.084Z" fill="#CCB023"/>
<path d="M72.1848 142.752C72.3134 143.241 73.5483 143.37 74.9374 142.984H75.0146C76.4037 142.572 77.3813 141.852 77.2527 141.363C77.124 140.874 75.915 140.771 74.5516 141.132C74.6287 141.44 74.7059 141.749 74.7831 142.058H74.6802C74.5773 141.775 74.5001 141.492 74.4229 141.183C73.0595 141.569 72.0819 142.264 72.2106 142.778L72.1848 142.752Z" fill="#FFE97D"/>
<path d="M65.1357 108.693L66.0103 108.461C66.0103 108.461 66.1904 108.307 66.1647 108.204L62.9748 95.9329C62.8719 95.4956 62.4088 95.2383 61.9714 95.3412C61.5341 95.4698 61.2769 95.9072 61.4055 96.3445L64.8784 108.538C64.8784 108.538 65.0328 108.718 65.1357 108.693Z" fill="#C2A100"/>
<path d="M84.7898 138.096C84.7641 138.405 84.3268 139.202 83.1692 139.691C81.9859 140.154 78.8988 140.128 76.2492 138.687C75.1687 138.096 67.8885 133.697 59.7851 128.397C57.4441 126.88 55.0516 125.285 52.6849 123.715C50.6269 122.352 48.5946 120.989 46.6653 119.702C39.8481 115.123 34.5745 111.522 34.5745 111.522L34.6259 110.879C34.6259 110.879 34.6259 110.879 34.6516 110.879C34.6516 110.879 34.6774 110.879 34.7031 110.904L47.2055 118.648L57.0068 124.693L79.2589 138.456L84.7127 137.684C84.7127 137.684 84.7642 137.761 84.7642 138.07L84.7898 138.096Z" fill="#C2A100"/>
<path d="M84.7384 137.71C84.7384 137.71 83.9409 141.028 77.664 138.713C74.4741 137.556 63.3866 130.352 53.2766 123.587C51.0642 122.095 48.9033 120.628 46.871 119.265C40.4655 114.917 35.4491 111.445 34.7288 110.93L34.6773 110.904H34.6516L39.0506 108.949C39.0506 108.949 43.321 112.088 49.2892 116.307C51.3215 117.747 53.5853 119.316 55.9005 120.911C56.3636 121.246 56.8267 121.555 57.2897 121.889C57.2897 121.889 57.2897 121.889 57.3412 121.915C58.4731 122.686 59.6049 123.458 60.7626 124.23C71.1041 131.201 81.8314 137.89 84.7384 137.736V137.71Z" fill="#FFE97D"/>
<path d="M70.1005 145.222C70.0233 145.505 69.4574 146.251 68.2226 146.509C66.9878 146.766 63.9265 146.174 61.5855 144.322C60.6337 143.55 54.2281 137.942 47.1794 131.305C45.3787 129.607 43.5008 127.832 41.7 126.083C41.4428 125.826 41.1855 125.594 40.9283 125.337C39.7449 124.205 38.5616 123.073 37.4297 121.993C37.301 121.864 37.1724 121.735 37.0438 121.607C30.5611 115.355 25.3389 110.262 25.3389 110.262L25.4932 109.645C25.4932 109.645 25.5189 109.67 25.5447 109.696C25.5447 109.696 25.5961 109.747 25.6218 109.773L37.584 120.475L38.0213 120.861L43.0892 125.414L45.9447 127.961L64.5696 144.631L70.0748 144.836C70.0748 144.836 70.1263 144.914 70.0491 145.222H70.1005Z" fill="#C2A100"/>
<path d="M70.1264 144.862C70.1264 144.862 68.763 147.975 62.9748 144.605C60.0936 142.932 50.8583 134.314 42.2661 126.031C42.086 125.851 41.8802 125.671 41.7002 125.465C40.2853 124.102 38.8961 122.764 37.5584 121.478C37.4555 121.375 37.3526 121.272 37.224 121.169C31.1271 115.252 26.2136 110.364 25.5705 109.721C25.5705 109.721 25.5448 109.696 25.519 109.67L30.1753 108.512C30.1753 108.512 34.5743 113.117 40.4653 119.034C40.4653 119.034 40.4911 119.059 40.5168 119.085C41.3143 119.908 42.1632 120.732 43.0121 121.581C43.6038 122.172 44.1955 122.764 44.8129 123.381C54.7942 133.26 66.7821 144.45 70.1264 144.862Z" fill="#FFE97D"/>
<path d="M38.0735 142.033C37.9706 142.341 37.8677 142.624 37.7648 142.933H37.6619C37.739 142.599 37.842 142.316 37.9191 141.981C41.0061 131.408 44.762 119.086 47.9004 108.95C49.1352 104.911 50.4215 100.847 51.7078 96.8079L52.5567 97.0651C48.0548 111.6 42.9613 127.395 38.0478 142.007L38.0735 142.033Z" fill="#CCB023"/>
<path d="M37.7648 142.907C37.6619 143.216 37.559 143.524 37.4561 143.807C37.276 144.373 37.0702 144.913 36.8901 145.454C37.0445 144.913 37.1988 144.348 37.3789 143.782C37.4818 143.473 37.559 143.19 37.6362 142.855H37.7391L37.7648 142.907Z" fill="#CCB023"/>
<path d="M40.2343 143.679C40.08 144.167 38.8452 144.219 37.4818 143.807H37.4046C36.0412 143.344 35.0636 142.598 35.2179 142.109C35.3723 141.621 36.5814 141.569 37.9191 141.981C37.8419 142.29 37.739 142.598 37.6618 142.881H37.7647C37.8676 142.624 37.9705 142.315 38.0734 142.007C39.4111 142.444 40.3887 143.19 40.2343 143.679Z" fill="#FFE97D"/>
<path d="M48.543 109.927L47.6684 109.644C47.6684 109.644 47.4883 109.49 47.5398 109.387L51.1928 97.2446C51.3214 96.8072 51.7844 96.5757 52.2217 96.7043C52.6591 96.833 52.8906 97.296 52.7362 97.7333L48.8003 109.773C48.8003 109.773 48.6459 109.953 48.543 109.901V109.927Z" fill="#C2A100"/>
<g style="mix-blend-mode:soft-light" opacity="0.38">
<path d="M80.3131 82.0413L79.4385 84.3309L78.0751 87.9581L77.612 89.1929L51.1666 159.731L50.7036 160.94L49.3401 164.567L48.4655 166.883C47.4622 166.728 46.4589 166.574 45.4814 166.368C34.8569 164.156 25.5959 158.291 19.0102 150.161C18.47 149.493 17.9298 148.798 17.4153 148.078L18.4186 145.325L20.065 140.849L20.6309 139.28L40.6965 84.7167L41.2625 83.1475L42.9089 78.6713L43.9121 75.9188C45.6357 75.4814 47.4365 75.1727 49.2372 74.9412C51.1409 74.7097 53.0703 74.5811 55.0254 74.5811C63.4117 74.5811 71.2837 76.8191 78.1008 80.7036C78.8468 81.141 79.5671 81.5783 80.2874 82.0413H80.3131Z" fill="#FFFB8C"/>
</g>
<path d="M86.1787 89.8614C84.1207 87.8034 81.8827 85.9769 79.4645 84.3562C72.493 79.7 64.1066 76.9731 55.0771 76.9731C50.8839 76.9731 46.8193 77.5648 42.9606 78.671C41.2627 79.1598 39.5649 79.7515 37.9699 80.4203C32.6963 82.6327 27.9628 85.874 23.9755 89.8357C16.0264 97.7848 11.0872 108.795 11.0872 120.937C11.0872 129.941 13.7883 138.328 18.4445 145.299C20.0652 147.717 21.9174 149.981 23.9755 152.039C30.664 158.728 39.5134 163.281 49.3661 164.567C51.244 164.824 53.1477 164.927 55.0771 164.927C67.2193 164.927 78.2297 159.988 86.1787 152.039C94.1278 144.09 99.067 133.08 99.067 120.937C99.067 108.795 94.1535 97.7848 86.1787 89.8357V89.8614ZM94.8224 127.086C94.7709 127.42 94.7194 127.754 94.668 128.089C94.5393 128.758 94.4108 129.401 94.2564 130.044C94.1793 130.378 94.102 130.687 94.0248 131.022C93.7933 131.973 93.5104 132.925 93.176 133.877C92.7644 135.112 92.2756 136.347 91.7354 137.53C91.5553 137.916 91.3752 138.328 91.1694 138.713C90.7835 139.485 90.3719 140.257 89.9603 141.003C89.6516 141.569 89.2915 142.109 88.9571 142.649C88.5969 143.19 88.2367 143.73 87.8766 144.27C87.5164 144.785 87.1305 145.299 86.7189 145.814C86.3331 146.328 85.9214 146.817 85.5098 147.306C84.8667 148.026 84.2236 148.746 83.5548 149.415C82.8602 150.11 82.1656 150.753 81.4453 151.396C80.3391 152.348 79.1815 153.248 77.9982 154.071C76.5576 155.075 75.0655 155.975 73.4705 156.772C73.2133 156.901 72.9303 157.03 72.673 157.184C67.3737 159.757 61.4312 161.197 55.1286 161.197C53.6622 161.197 52.1959 161.12 50.781 160.966C46.0733 160.451 41.6229 159.139 37.5583 157.158C37.0953 156.927 36.6579 156.721 36.2206 156.464C35.7833 156.232 35.346 155.975 34.9086 155.743C34.4713 155.486 34.0597 155.229 33.6224 154.972C31.9245 153.891 30.3295 152.708 28.8117 151.396C28.0914 150.753 27.3712 150.11 26.7023 149.415C26.3679 149.081 26.0335 148.72 25.699 148.386C25.3646 148.026 25.0559 147.666 24.7215 147.306C24.3099 146.817 23.8983 146.328 23.5124 145.814C23.1265 145.299 22.7406 144.785 22.3548 144.27C21.9689 143.73 21.6087 143.215 21.2743 142.649C20.9399 142.109 20.5797 141.543 20.271 141.003C20.2453 140.951 20.2196 140.9 20.1939 140.849C19.7823 140.128 19.4221 139.434 19.062 138.688C18.8562 138.302 18.6761 137.916 18.496 137.504C17.9558 136.321 17.467 135.086 17.0554 133.851C15.692 129.813 14.9459 125.465 14.9459 120.963C14.9459 116.461 15.692 112.114 17.0554 108.075C17.467 106.84 17.9558 105.605 18.496 104.422C18.6761 104.036 18.8562 103.624 19.062 103.238C19.4478 102.467 19.8594 101.695 20.271 100.949C20.5797 100.383 20.9399 99.8428 21.2743 99.3025C21.6345 98.7623 21.9946 98.2221 22.3548 97.6819C22.7149 97.1673 23.1008 96.6529 23.5124 96.1383C23.8983 95.6238 24.3099 95.1351 24.7215 94.6463C25.0302 94.2861 25.3646 93.926 25.699 93.5658C26.0335 93.2057 26.3679 92.8713 26.7023 92.5368C27.3969 91.8423 28.0914 91.1991 28.8117 90.556C30.8698 88.781 33.1336 87.186 35.526 85.8483C36.3235 85.411 37.1467 84.9737 37.9699 84.5878C38.2529 84.4592 38.5358 84.3305 38.8188 84.2019C39.3848 83.9446 39.9507 83.7131 40.5167 83.4816C40.7997 83.3787 41.0826 83.2501 41.3913 83.1472C41.7515 83.0185 42.1117 82.8899 42.4718 82.7613C46.4592 81.4236 50.7295 80.729 55.1543 80.729C63.7207 80.729 71.6441 83.4044 78.1783 87.9578C79.0272 88.5494 79.8761 89.1926 80.6736 89.8614C80.9308 90.0929 81.2138 90.2988 81.4711 90.5303C82.1914 91.1734 82.9116 91.8165 83.5805 92.5111C84.275 93.2057 84.9182 93.9003 85.5356 94.6206C85.9472 95.1093 86.3588 95.5981 86.7447 96.1126C87.1306 96.6271 87.5165 97.1416 87.9023 97.6561C88.2882 98.1963 88.6483 98.7109 88.9828 99.2768C89.3172 99.817 89.6774 100.383 89.9861 100.923C90.4234 101.669 90.8093 102.441 91.1951 103.213C91.401 103.599 91.581 103.985 91.7611 104.396C92.3013 105.579 92.7901 106.814 93.2017 108.049C93.5104 108.975 93.7933 109.927 94.0506 110.905C94.1278 111.239 94.2049 111.548 94.2821 111.882C94.4365 112.525 94.5651 113.194 94.6937 113.837C94.7452 114.172 94.7966 114.506 94.8481 114.84C94.951 115.509 95.0282 116.178 95.1053 116.847C95.234 118.21 95.3111 119.574 95.3111 120.963C95.3111 122.352 95.234 123.716 95.1053 125.079C95.0282 125.748 94.951 126.417 94.8481 127.086H94.8224Z" fill="#FAE543"/>
<g style="mix-blend-mode:multiply">
<path d="M95.0794 116.822C95.0022 116.153 94.9251 115.484 94.8222 114.815C94.7707 114.481 94.7192 114.146 94.6678 113.812C94.5391 113.143 94.4106 112.5 94.2562 111.857C94.1791 111.523 94.1018 111.214 94.0246 110.879C93.7674 109.928 93.4844 108.976 93.1757 108.024C92.7384 106.789 92.2754 105.554 91.7351 104.371C91.5551 103.985 91.375 103.573 91.1692 103.188C90.7833 102.416 90.3717 101.644 89.9601 100.898C89.6514 100.332 89.2913 99.7919 88.9569 99.2517C88.5967 98.7114 88.2365 98.1712 87.8764 97.631C87.5162 97.1165 87.1303 96.602 86.7187 96.0875C86.3328 95.573 85.9212 95.0842 85.5096 94.5954C84.8665 93.8751 84.2234 93.1548 83.5288 92.4859C82.8343 91.7914 82.1397 91.1482 81.4194 90.5051C81.1621 90.2736 80.9049 90.0421 80.6219 89.8363C79.8244 89.1674 78.9755 88.55 78.1265 87.9326C71.5924 83.3793 63.669 80.7039 55.1026 80.7039C50.6779 80.7039 46.4075 81.4242 42.4201 82.7361C42.06 82.8648 41.6998 82.9677 41.3397 83.0963C41.0567 83.1992 40.7737 83.3278 40.465 83.4307C39.899 83.6622 39.3074 83.8938 38.7672 84.151C38.4842 84.2796 38.2012 84.4083 37.9182 84.5369C37.095 84.9228 36.2718 85.3601 35.4744 85.7974C33.0819 87.1351 30.8438 88.7301 28.7601 90.5051C28.0398 91.1482 27.3195 91.7914 26.6506 92.4859C26.3162 92.8204 25.9818 93.1805 25.6474 93.515C25.3129 93.8751 25.0042 94.2353 24.6698 94.5954C24.2582 95.0842 23.8466 95.573 23.4607 96.0875C23.0748 96.602 22.689 97.1165 22.3031 97.631C21.9172 98.1712 21.5571 98.6857 21.2226 99.2517C20.8882 99.7919 20.5281 100.358 20.2194 100.898C19.782 101.644 19.3962 102.416 19.0103 103.188C18.8045 103.573 18.6244 103.959 18.4443 104.371C17.9041 105.554 17.4411 106.789 17.0037 108.024C15.6403 112.063 14.8943 116.41 14.8943 120.912C14.8943 125.414 15.6403 129.762 17.0037 133.8C17.4411 135.035 17.9041 136.27 18.4443 137.453C18.6244 137.839 18.8045 138.251 19.0103 138.637C19.3704 139.357 19.7563 140.077 20.1422 140.772C20.1422 140.772 20.1936 140.875 20.2194 140.926C20.5281 141.492 20.8882 142.032 21.2226 142.573C21.5828 143.113 21.9429 143.653 22.3031 144.193C22.6632 144.708 23.0491 145.222 23.4607 145.737C23.8466 146.251 24.2582 146.74 24.6698 147.229C24.9785 147.589 25.3129 147.949 25.6474 148.309C25.9818 148.67 26.3162 149.004 26.6506 149.338C27.3452 150.033 28.0398 150.676 28.7601 151.319C30.2779 152.631 31.8728 153.815 33.5707 154.895C34.008 155.152 34.4196 155.435 34.8569 155.667C35.2943 155.924 35.7316 156.156 36.1689 156.387C36.6062 156.619 37.0693 156.85 37.5066 157.082C41.5712 159.063 46.0474 160.374 50.7293 160.889C52.1699 161.043 53.6105 161.12 55.0769 161.12C61.3538 161.12 67.322 159.68 72.6214 157.107C72.8787 156.979 73.1616 156.85 73.4189 156.696C74.9881 155.898 76.5058 154.998 77.9464 153.995C79.1555 153.171 80.3132 152.271 81.3937 151.319C82.114 150.676 82.8342 150.033 83.5031 149.338C84.1977 148.644 84.8408 147.949 85.484 147.229C85.8956 146.74 86.3072 146.251 86.693 145.737C87.0789 145.222 87.4647 144.708 87.8506 144.193C88.2365 143.653 88.5967 143.139 88.9311 142.573C89.2655 142.032 89.6257 141.467 89.9344 140.926C90.3717 140.18 90.7576 139.409 91.1434 138.637C91.3492 138.251 91.5293 137.865 91.7094 137.453C92.2496 136.27 92.7127 135.035 93.15 133.8C93.4587 132.874 93.7417 131.923 93.999 130.945C94.0761 130.611 94.1533 130.302 94.2305 129.967C94.3848 129.324 94.5135 128.655 94.6421 128.012C94.6935 127.678 94.745 127.343 94.7964 127.009C94.8993 126.34 94.9765 125.671 95.0537 125.002C95.1823 123.639 95.2595 122.276 95.2595 120.886C95.2595 119.497 95.1823 118.134 95.0537 116.77L95.0794 116.822ZM82.6284 148.489C75.5798 155.538 65.83 159.911 55.0769 159.911C53.7649 159.911 52.4529 159.86 51.1924 159.706C41.9828 158.78 33.725 154.664 27.5253 148.489C24.8241 145.788 22.5089 142.676 20.6824 139.254C17.7755 133.8 16.1034 127.549 16.1034 120.938C16.1034 110.185 20.4509 100.435 27.5253 93.3863C31.2554 89.6562 35.7316 86.6721 40.748 84.6912C45.1984 82.9162 50.0347 81.9644 55.1026 81.9644C63.5147 81.9644 71.2837 84.6141 77.6635 89.1674C79.4385 90.4279 81.1107 91.8428 82.6542 93.3863C89.7029 100.435 94.0761 110.185 94.0761 120.938C94.0761 131.691 89.7286 141.441 82.6542 148.489H82.6284Z" fill="#F6F39E"/>
</g>
<path d="M108.997 0.106934H88.7515L44.8645 73.372H65.1101L108.997 0.106934Z" fill="#37DAED"/>
</svg>
