<svg width="109" height="168" viewBox="0 0 109 168" fill="none" xmlns="http://www.w3.org/2000/svg">
<path d="M0.977295 0.106934H21.223L65.11 73.3463H44.8386L0.977295 0.106934Z" fill="#004DE8"/>
<path d="M64.6983 79.5716V78.6198H45.4301C44.6841 78.6198 44.0153 78.3111 43.5265 77.8223C43.0377 77.3335 42.729 76.6647 42.729 75.9187C42.729 75.1726 43.0377 74.5038 43.5265 74.015C44.0153 73.5262 44.6841 73.2175 45.4301 73.2175H64.6983C65.4443 73.2175 66.1131 73.5262 66.6019 74.015C67.0907 74.5038 67.3994 75.1726 67.3994 75.9187C67.3994 76.6647 67.0907 77.3335 66.6019 77.8223C66.1131 78.3111 65.4443 78.6198 64.6983 78.6198V80.4977C67.2193 80.4977 69.2774 78.4397 69.2774 75.9187C69.2774 73.3976 67.2193 71.3396 64.6983 71.3396H45.4301C42.9091 71.3396 40.8511 73.3976 40.8511 75.9187C40.8511 78.4397 42.9091 80.4977 45.4301 80.4977H64.6983V79.5459V79.5716Z" fill="#E0C64C"/>
<path d="M101.434 120.938C101.434 146.56 80.6736 167.32 55.0514 167.32C52.8133 167.32 50.6266 167.166 48.4914 166.857C47.4882 166.702 46.4849 166.548 45.5073 166.342C34.8829 164.13 25.6219 158.265 19.0362 150.136C18.496 149.467 17.9558 148.772 17.4413 148.052C12.322 140.952 9.13209 132.334 8.74621 122.996C8.74621 122.661 8.74618 122.327 8.72046 121.992C8.72046 121.632 8.72046 121.272 8.72046 120.938C8.72046 120.552 8.72046 120.14 8.72046 119.754C9.26069 98.5052 24.104 80.7807 43.9895 75.8929C45.7131 75.4556 47.5139 75.1469 49.3147 74.9153C51.2183 74.6838 53.1477 74.5552 55.1028 74.5552C63.4892 74.5552 71.3611 76.7933 78.1782 80.6778C78.9243 81.1151 79.6446 81.5524 80.3649 82.0155C93.0988 90.2732 101.511 104.628 101.511 120.912L101.434 120.938Z" fill="#E0C64C"/>
<path d="M71.7217 115.098C71.6445 114.944 71.5674 114.841 71.4645 114.738C71.2073 114.506 70.8471 114.455 70.5384 114.635C70.5384 114.635 70.4355 114.686 70.2039 114.815C69.7152 115.072 68.6861 115.587 67.297 116.307C66.7825 116.564 66.1908 116.873 65.5477 117.207C65.0332 117.465 64.4672 117.773 63.8498 118.056C63.8498 117.31 63.7469 116.384 63.4382 115.304C63.2324 114.558 62.8981 113.915 62.5379 113.374C61.972 112.577 61.3288 112.037 60.8143 111.677C60.3255 111.342 59.9654 111.162 59.8882 111.136C59.4509 110.931 58.9364 111.162 58.7563 111.677C58.5762 112.165 58.8077 112.731 59.2708 112.937C59.2708 112.937 59.4252 113.014 59.631 113.117C59.8368 113.246 60.094 113.452 60.4027 113.683C60.6857 113.94 60.9687 114.223 61.2259 114.583C61.4832 114.944 61.6632 115.355 61.7919 115.844C62.152 117.13 62.152 118.159 62.1263 118.751C62.1263 118.802 62.1263 118.88 62.1263 118.931V118.957C59.6824 120.192 56.8526 121.581 53.9457 122.996C53.9457 122.507 53.9457 121.941 53.8685 121.323C53.817 120.886 53.7142 120.397 53.5855 119.909C53.3283 118.982 52.9424 118.211 52.5051 117.593C51.8362 116.667 51.0645 116.076 50.4471 115.715C50.267 115.612 50.1126 115.535 49.9583 115.458C49.5981 115.278 49.3666 115.201 49.3409 115.201C48.8521 115.072 48.3891 115.381 48.2604 115.895C48.1318 116.41 48.4405 116.924 48.9036 117.079C48.9036 117.079 49.0579 117.13 49.3152 117.259C49.5467 117.362 49.8554 117.542 50.1898 117.799C50.4985 118.056 50.8587 118.391 51.1674 118.828C51.4761 119.265 51.7334 119.78 51.9134 120.449C52.0678 120.963 52.145 121.452 52.1707 121.864C52.2221 122.275 52.2221 122.661 52.1964 122.97C52.1964 123.407 52.0935 123.742 52.042 123.947C48.1833 125.8 44.1959 127.652 40.6972 129.144C40.5686 129.195 40.4657 129.247 40.3628 129.298C40.3885 128.475 40.3629 127.369 40.1828 126.005C40.0284 125.028 39.7197 124.153 39.3596 123.407C39.2567 123.176 39.128 122.97 39.0251 122.764C38.5364 121.967 38.0218 121.323 37.5588 120.86C37.1986 120.5 36.89 120.243 36.7099 120.089C36.607 120.011 36.5555 119.96 36.5298 119.96C36.1182 119.677 35.578 119.806 35.3207 120.243C35.0635 120.706 35.1921 121.298 35.6037 121.581C35.7324 121.709 36.3754 122.172 36.9928 122.996C37.3015 123.407 37.6102 123.896 37.8675 124.436C38.1247 124.976 38.3305 125.568 38.4334 126.288C38.6135 127.523 38.6136 128.526 38.5878 129.247C38.5878 129.427 38.5621 129.581 38.5363 129.71C38.5363 129.838 38.4849 129.967 38.4849 130.07C38.4849 130.07 38.4592 130.07 38.4334 130.096C37.4044 130.507 36.4526 130.893 35.5522 131.228C34.0344 131.794 32.7482 132.205 31.7706 132.437C29.6355 132.951 27.6546 133.183 26.0597 133.028C25.1078 132.951 24.3103 132.72 23.7187 132.36C23.1013 132.025 22.664 131.562 22.381 130.919C21.9437 129.941 21.8151 129.144 21.8408 128.501C21.8922 127.729 22.1752 127.137 22.5611 126.7C22.7412 126.468 22.9727 126.288 23.1785 126.16C23.3843 126.031 23.5901 125.98 23.7444 125.928C24.0531 125.851 24.2846 125.851 24.4647 125.851C24.6705 125.877 24.8249 125.928 24.9021 125.98C25.0307 126.083 25.1079 126.16 25.1336 126.263C25.1593 126.314 25.1593 126.34 25.185 126.366C25.2622 126.906 25.7252 127.24 26.214 127.163C26.6256 127.086 26.9343 126.7 26.9343 126.237C26.9343 126.185 26.9343 126.108 26.9343 126.057C26.9343 126.005 26.9086 125.877 26.8571 125.697C26.78 125.517 26.6771 125.285 26.497 125.028C26.3169 124.771 26.0854 124.513 25.751 124.308C25.4423 124.127 25.0307 123.973 24.5934 123.947C24.2332 123.922 23.8473 123.947 23.41 124.025C23.0498 124.102 22.664 124.256 22.3296 124.488C21.8922 124.745 21.4806 125.131 21.1205 125.594C21.1205 125.594 20.9404 125.825 20.8632 125.954C20.4516 126.597 20.1686 127.42 20.1172 128.372C20.0914 129.041 20.1172 129.761 20.3487 130.533C20.3487 130.533 20.3487 130.533 20.3487 130.559C20.3487 130.559 20.3487 130.636 20.3744 130.662C20.4773 131.022 20.606 131.382 20.786 131.768C21.2491 132.797 22.0209 133.594 22.8955 134.109C23.7959 134.623 24.8249 134.906 25.9568 134.983C27.809 135.138 29.9442 134.881 32.1822 134.34C33.3399 134.057 34.8062 133.594 36.4784 132.951C39.4368 131.845 43.0897 130.25 46.9228 128.501C58.3961 123.227 71.4388 116.41 71.4388 116.41C71.8761 116.178 72.0562 115.612 71.8504 115.124L71.7217 115.098Z" fill="#FCDF3A"/>
<path d="M26.8313 126.211C26.6255 126.314 26.3682 126.262 26.111 125.876C25.4421 124.873 24.7218 123.741 21.892 126.056C21.146 126.674 20.8631 126.056 20.966 125.542C21.3261 125.053 21.7377 124.693 22.175 124.436C22.5352 124.204 22.8953 124.075 23.2555 123.973C23.6928 123.895 24.0787 123.87 24.4389 123.895C24.8762 123.947 25.2877 124.075 25.5964 124.281C25.9309 124.487 26.1624 124.744 26.3425 124.976C26.5226 125.233 26.6255 125.465 26.6769 125.645C26.7284 125.825 26.7541 125.953 26.7798 126.005C26.7798 126.056 26.7798 126.133 26.7798 126.185L26.8313 126.211Z" fill="#FEED8D"/>
<path d="M51.9646 117.516C51.2958 116.718 50.524 116.95 51.1929 117.876C51.8617 118.802 52.5049 119.085 52.9422 122.12C53.0708 123.021 53.5596 122.789 53.5596 121.735C53.5596 120.603 52.9679 118.699 51.9646 117.516Z" fill="#FEED8D"/>
<path d="M61.6114 112.705C60.9168 111.959 60.1708 112.216 60.8397 113.091C61.5085 113.966 62.2031 114.223 62.7433 117.258C62.8977 118.159 63.3864 117.901 63.3607 116.847C63.3092 115.715 62.6404 113.863 61.6114 112.705Z" fill="#FEED8D"/>
<g style="mix-blend-mode:multiply">
<path d="M71.3353 116.384C71.3353 116.384 58.2927 123.201 46.8193 128.475C42.9863 130.224 39.3333 131.819 36.3749 132.925C34.7028 133.568 33.2364 134.057 32.0788 134.314C29.8407 134.855 27.7313 135.112 25.8534 134.958C24.7215 134.855 23.7182 134.597 22.7921 134.083C21.9174 133.568 21.1457 132.771 20.6826 131.742C20.5025 131.356 20.3739 130.996 20.271 130.636C20.554 131.279 21.9946 134.057 26.0591 134.134C30.2009 134.212 34.5228 132.334 38.3301 130.096C38.3301 130.096 38.3558 130.07 38.3815 130.044C38.3815 130.044 38.4072 129.838 38.4329 129.684C38.4329 129.53 38.4587 129.401 38.4844 129.221C38.5101 128.501 38.4844 127.523 38.3301 126.262C38.2272 125.568 38.0214 124.951 37.7641 124.41C37.5069 123.87 37.1982 123.381 36.8895 122.97C36.2721 122.172 35.6289 121.683 35.5003 121.581C35.063 121.272 34.96 120.68 35.2173 120.217C35.4745 119.78 36.0148 119.625 36.4264 119.934C36.4264 119.934 36.5035 119.986 36.6064 120.063C36.5293 120.114 35.7061 120.783 36.2463 121.581C36.555 122.044 37.8156 122.378 38.896 122.738C38.9989 122.944 39.1276 123.15 39.2305 123.381C39.5906 124.127 39.8993 125.002 40.0536 125.98C40.2594 127.343 40.2594 128.449 40.2337 129.272C40.3366 129.221 40.4395 129.169 40.5681 129.118C44.0667 127.6 48.0541 125.774 51.9129 123.922C51.9644 123.69 52.0415 123.356 52.0673 122.944C52.0673 122.635 52.0672 122.275 52.0415 121.838C52.5817 121.683 53.1477 121.503 53.7651 121.323C56.209 120.603 59.2188 119.754 62.0486 118.905C63.2577 118.545 64.441 117.902 65.5214 117.182C66.1646 116.873 66.7563 116.564 67.2708 116.281C68.66 115.561 69.689 115.021 70.1777 114.789C70.4093 114.66 70.5121 114.609 70.5121 114.609C70.8208 114.429 71.181 114.48 71.4383 114.712C71.5412 114.815 71.6183 114.918 71.6955 115.072C71.9013 115.561 71.7212 116.127 71.2839 116.358L71.3353 116.384Z" fill="#FEED8D"/>
</g>
<g style="mix-blend-mode:multiply">
<path d="M52.196 123.561C52.1445 123.844 52.0416 123.921 51.9644 123.921C52.0159 123.716 52.0931 123.381 52.1188 122.918C52.1445 122.301 52.1188 121.477 51.8358 120.423C51.6558 119.754 51.3985 119.239 51.0898 118.802C50.7811 118.365 50.4467 118.03 50.1122 117.773C49.7778 117.516 49.4691 117.336 49.2376 117.233C49.0061 117.104 48.8517 117.078 48.8517 117.078C48.3887 116.95 48.1057 116.41 48.2086 115.895C48.3372 115.381 48.8002 115.072 49.289 115.201C49.3147 115.201 49.572 115.278 49.9321 115.458C49.9321 115.458 49.0061 116.024 49.5978 116.718C50.1637 117.413 51.2699 118.519 51.6815 119.291C52.1703 120.217 52.3761 122.97 52.2475 123.587L52.196 123.561Z" fill="#FEED8D"/>
</g>
<g style="mix-blend-mode:multiply">
<path d="M62.2805 118.622C62.2291 118.854 62.1519 118.957 62.0747 118.957C62.0747 118.905 62.0747 118.828 62.0747 118.751C62.1004 118.159 62.0748 117.13 61.7403 115.818C61.6117 115.355 61.4059 114.943 61.1744 114.583C60.9171 114.223 60.6341 113.914 60.3512 113.683C60.0682 113.426 59.7852 113.246 59.5794 113.117C59.3736 112.988 59.245 112.937 59.2193 112.937C58.7562 112.731 58.5504 112.165 58.7047 111.676C58.8848 111.188 59.3993 110.93 59.8366 111.136C59.708 111.213 58.9877 111.676 59.5279 112.268C60.1196 112.911 61.2001 113.94 61.6374 114.66C62.1519 115.509 62.3577 118.082 62.229 118.622H62.2805Z" fill="#FEED8D"/>
</g>
<path d="M90.012 112.217C89.9349 112.062 89.832 111.959 89.7033 111.882C89.4204 111.676 89.0345 111.651 88.7258 111.856C88.7258 111.856 88.5971 111.934 88.3913 112.062C87.8768 112.371 86.8735 113.014 85.4586 113.914C84.4811 114.532 83.2978 115.252 81.9858 116.075C81.8829 115.304 81.7028 114.326 81.3169 113.22C81.034 112.448 80.6224 111.779 80.185 111.265C79.5162 110.467 78.7959 109.953 78.2042 109.618C77.664 109.31 77.2524 109.155 77.1752 109.13C76.6865 108.95 76.1462 109.258 76.0176 109.798C75.8889 110.339 76.1719 110.905 76.6607 111.085C76.6607 111.085 76.815 111.136 77.0466 111.265C77.2781 111.368 77.5868 111.548 77.8955 111.779C78.2042 112.011 78.5387 112.32 78.8474 112.654C79.1303 113.014 79.3876 113.426 79.5677 113.914C80.0564 115.278 80.1593 116.333 80.185 116.976C80.185 117.053 80.185 117.13 80.185 117.207C77.7154 118.725 74.8599 120.449 71.9015 122.224C71.8758 121.349 71.6957 120.243 71.2327 118.982C70.8725 118.03 70.4095 117.233 69.8692 116.641C69.0718 115.715 68.1972 115.175 67.5283 114.841C67.3482 114.738 67.1681 114.661 67.0138 114.609C66.6279 114.455 66.3707 114.403 66.3192 114.403C65.8047 114.3 65.3159 114.661 65.2388 115.226C65.1616 115.792 65.496 116.307 66.0105 116.436C66.0105 116.436 66.1906 116.487 66.4478 116.564C66.7051 116.667 67.0652 116.821 67.4254 117.079C67.7856 117.336 68.1972 117.645 68.5573 118.082C68.9175 118.519 69.2519 119.034 69.4834 119.728C69.8693 120.809 69.9979 121.683 70.0236 122.327C70.0236 122.815 69.9979 123.15 69.9464 123.407C66.0105 125.722 61.9974 128.012 58.4216 129.915C58.293 129.967 58.1901 130.044 58.0614 130.096C58.0357 129.221 57.9071 128.038 57.5726 126.648C57.3411 125.619 56.9295 124.745 56.4665 123.973C55.7719 122.841 54.9745 122.018 54.3313 121.452C53.9197 121.092 53.5853 120.86 53.3795 120.706C53.3795 120.706 53.1994 120.603 53.1737 120.577C52.7106 120.294 52.1447 120.5 51.9132 120.989C51.6816 121.478 51.8617 122.121 52.3248 122.378H52.3505C52.5048 122.481 53.1994 122.944 53.9197 123.741C54.2799 124.127 54.64 124.616 54.9745 125.182C55.2832 125.748 55.5661 126.365 55.7204 127.086C56.0291 128.398 56.132 129.427 56.132 130.173C56.132 130.559 56.132 130.842 56.132 131.073C55.0773 131.613 54.074 132.128 53.1479 132.539C51.6044 133.285 50.2667 133.851 49.2377 134.16C47.0254 134.88 44.9674 135.318 43.2695 135.292C42.2662 135.292 41.3916 135.112 40.7227 134.803C40.0539 134.495 39.5651 134.032 39.1792 133.388C38.6133 132.385 38.4332 131.562 38.4075 130.893C38.4075 130.07 38.639 129.427 38.9991 128.912C39.1792 128.655 39.385 128.449 39.5908 128.295C39.7966 128.14 40.0024 128.038 40.1568 127.986C40.4655 127.883 40.7228 127.857 40.9028 127.857C41.1344 127.857 41.2887 127.909 41.3916 127.96C41.546 128.038 41.6231 128.14 41.6746 128.218C41.7003 128.269 41.726 128.295 41.726 128.321C41.8803 128.861 42.3691 129.169 42.8579 129.041C43.2952 128.912 43.5782 128.475 43.5525 127.986C43.5525 127.909 43.5525 127.857 43.5268 127.78C43.5268 127.729 43.4753 127.6 43.3982 127.394C43.321 127.214 43.1666 126.957 42.9866 126.726C42.7808 126.468 42.4977 126.237 42.1376 126.057C41.7774 125.877 41.3401 125.774 40.8771 125.774C40.4912 125.774 40.0796 125.825 39.6166 125.954C39.2307 126.082 38.8705 126.263 38.5103 126.52C38.073 126.854 37.6614 127.266 37.327 127.806C37.2498 127.935 37.1727 128.063 37.0955 128.192C36.7353 128.912 36.5038 129.813 36.5295 130.79C36.5295 131.51 36.6839 132.256 36.9926 133.054C36.9926 133.054 36.9926 133.054 36.9926 133.08C37.1469 133.491 37.3527 133.903 37.5843 134.34C38.1759 135.395 39.0249 136.141 40.0282 136.604C41.0315 137.067 42.1376 137.247 43.321 137.273C45.3018 137.273 47.5142 136.81 49.8294 136.038C51.0385 135.652 52.5306 135.009 54.2542 134.186C57.264 132.745 60.9684 130.739 64.8529 128.526C76.4806 121.941 89.6518 113.58 89.6518 113.58C90.0892 113.297 90.2435 112.68 89.9605 112.191L90.012 112.217Z" fill="#FDE354"/>
<path d="M43.6036 127.986C43.3978 128.115 43.1406 128.089 42.8319 127.704C42.0344 126.726 41.1597 125.568 38.4072 128.269C37.6611 128.99 37.301 128.372 37.3782 127.832C37.7126 127.292 38.1242 126.88 38.5615 126.546C38.9217 126.289 39.2818 126.083 39.6677 125.98C40.105 125.851 40.5423 125.774 40.9282 125.8C41.4169 125.8 41.8286 125.903 42.1888 126.083C42.5489 126.263 42.8318 126.52 43.0376 126.752C43.2434 127.009 43.3721 127.24 43.4493 127.421C43.5264 127.601 43.5779 127.755 43.5779 127.806C43.5779 127.884 43.6036 127.935 43.6036 128.012V127.986Z" fill="#FEED8D"/>
<path d="M55.9003 123.742C55.2057 122.893 54.3825 123.099 55.0771 124.076C55.7716 125.054 56.4662 125.388 56.8521 128.63C56.9807 129.581 57.4952 129.35 57.521 128.244C57.521 127.035 56.955 125.028 55.9003 123.716V123.742Z" fill="#FEED8D"/>
<path d="M69.3551 116.539C68.5833 115.767 67.7858 116.076 68.5576 116.976C69.3293 117.876 70.0753 118.134 70.7699 121.298C70.9757 122.224 71.4903 121.941 71.3874 120.835C71.2845 119.626 70.4869 117.696 69.3293 116.513L69.3551 116.539Z" fill="#FEED8D"/>
<path d="M79.1048 110.596C78.3074 109.85 77.5356 110.21 78.333 111.085C79.1305 111.959 79.8765 112.165 80.7255 115.304C80.9827 116.23 81.4715 115.921 81.3429 114.815C81.1886 113.606 80.3139 111.728 79.1048 110.596Z" fill="#FEED8D"/>
<g style="mix-blend-mode:multiply">
<path d="M89.7032 113.632C89.7032 113.632 76.5319 121.993 64.9042 128.578C61.0197 130.765 57.3153 132.772 54.3055 134.238C52.5819 135.061 51.0898 135.704 49.8807 136.09C47.5655 136.862 45.3531 137.325 43.3723 137.325C42.1889 137.325 41.0828 137.119 40.0795 136.656C39.1019 136.193 38.2272 135.447 37.6356 134.392C37.404 133.981 37.1983 133.543 37.0439 133.132C37.224 133.518 38.9476 136.733 43.5266 136.425C53.5337 135.704 67.5539 126.417 70.5637 124.668C73.6765 122.867 89.1373 114.404 90.0119 112.243C90.2949 112.732 90.1406 113.375 89.7032 113.632Z" fill="#FEED8D"/>
</g>
<g style="mix-blend-mode:multiply">
<path d="M56.5697 130.61C56.4925 131.382 56.1581 131.022 56.1581 131.022C56.1581 130.79 56.1581 130.507 56.1581 130.121C56.1581 129.375 56.0552 128.321 55.7465 127.034C55.5664 126.314 55.3091 125.697 55.0004 125.131C54.6917 124.565 54.3058 124.102 53.9457 123.69C53.2254 122.893 52.5308 122.43 52.3765 122.352H52.3507C51.8877 122.069 51.7076 121.452 51.9391 120.937C52.1706 120.449 52.7367 120.243 53.1997 120.526C53.1997 120.526 53.2768 120.577 53.4055 120.654C53.354 120.706 52.5308 121.478 53.174 122.275C53.8428 123.098 55.1034 124.359 55.6179 125.285C56.2353 126.391 56.6983 129.864 56.6211 130.636L56.5697 130.61Z" fill="#FEED8D"/>
</g>
<g style="mix-blend-mode:multiply">
<path d="M70.1525 122.918C70.1267 123.227 70.0238 123.33 69.9209 123.33C69.9724 123.098 69.9981 122.738 69.9981 122.249C69.9981 121.606 69.8695 120.706 69.4579 119.651C69.2007 118.957 68.8919 118.442 68.5318 118.005C68.1716 117.567 67.7857 117.259 67.3998 117.002C67.0397 116.77 66.6795 116.59 66.4223 116.487C66.165 116.384 66.0107 116.358 65.985 116.358C65.4705 116.255 65.136 115.715 65.2132 115.149C65.2904 114.583 65.7792 114.223 66.2937 114.326C66.3194 114.326 66.6024 114.403 66.9882 114.532C66.9882 114.532 66.0621 115.201 66.731 115.895C67.3998 116.59 68.6346 117.645 69.1491 118.416C69.7665 119.343 70.2039 122.249 70.1267 122.893L70.1525 122.918Z" fill="#FEED8D"/>
</g>
<g style="mix-blend-mode:multiply">
<path d="M80.3652 116.796C80.3395 117.053 80.2365 117.156 80.1594 117.156C80.1594 117.079 80.1594 117.027 80.1594 116.924C80.1594 116.281 80.0308 115.226 79.542 113.863C79.3619 113.374 79.1304 112.963 78.8217 112.602C78.5387 112.242 78.2043 111.959 77.8699 111.728C77.5612 111.496 77.2524 111.316 77.0209 111.213C76.7894 111.11 76.635 111.033 76.635 111.033C76.1463 110.853 75.8376 110.287 75.9919 109.747C76.1205 109.207 76.6608 108.898 77.1496 109.078C77.0209 109.155 76.3007 109.721 76.9181 110.313C77.5869 110.956 78.8474 111.934 79.3619 112.628C79.9793 113.477 80.4166 116.153 80.3395 116.77L80.3652 116.796Z" fill="#FEED8D"/>
</g>
<path d="M89.7032 111.883C89.6518 112.037 89.5746 112.165 89.5232 112.294C89.3431 112.731 86.7706 114.249 85.6644 114.712C85.047 114.97 85.1756 114.429 85.4329 113.889C86.8478 113.014 87.8767 112.371 88.3655 112.037C88.597 111.883 88.6999 111.831 88.6999 111.831C89.0086 111.625 89.3945 111.651 89.6775 111.857L89.7032 111.883Z" fill="#FEED8D"/>
<path d="M74.6802 121.195C74.8346 121.812 78.4618 119.343 80.597 117.953C82.4749 116.744 81.2144 116.976 80.597 117.516C79.9796 118.056 74.5259 120.577 74.6802 121.195Z" fill="#FEED8D"/>
<path d="M67.2709 126.057C69.7405 124.642 72.1587 123.124 72.4674 122.687C72.6475 122.455 70.7695 123.433 70.4351 123.639C69.509 124.179 65.11 126.726 64.2096 127.137C63.3093 127.549 62.2288 128.321 62.2288 128.475C62.2288 128.629 63.4379 128.269 67.2452 126.057H67.2709Z" fill="#FEED8D"/>
<path d="M53.3796 133.003C53.3796 133.132 53.8426 133.157 55.489 132.334C57.1354 131.511 57.2898 131.125 57.1355 131.099C56.9811 131.074 55.7206 131.639 55.2833 131.871C54.8459 132.103 53.3796 132.874 53.3796 133.003Z" fill="#FEED8D"/>
<path d="M84.4817 105.451L48.5437 124.745L45.0708 124.179L43.7331 123.947L37.6106 122.97L36.3243 122.764L30.3818 121.812L29.147 121.606L24.7737 120.912L63.8501 104.551L67.4259 104.705L69.5611 104.808L73.8829 104.988L77.7674 105.168L79.7225 105.245L81.0088 105.297L84.4817 105.451Z" fill="#CFB108"/>
<path d="M48.5436 124.745L48.8781 126.649L44.8906 125.954L43.8874 125.774L37.7391 124.719L36.5814 124.513L29.5327 123.279L28.8639 123.15L25.0051 122.481L24.7222 120.886L29.0955 121.581L30.3302 121.787L36.2727 122.738L37.559 122.944L43.6816 123.948L45.0193 124.153L48.4921 124.719L48.5436 124.745Z" fill="#D2B71C"/>
<path d="M84.4814 105.451L84.8673 107.664L48.8779 126.649L48.5435 124.745L84.4814 105.451Z" fill="#D5BC2B"/>
<g style="mix-blend-mode:color-burn" opacity="0.51">
<path d="M37.5846 122.97C37.5846 122.97 37.8161 123.973 37.7647 124.694L36.607 124.488L36.2983 122.738L73.8827 104.962L77.7672 105.142H75.4262L37.5846 122.944V122.97Z" fill="#D5BC2B"/>
</g>
<g style="mix-blend-mode:color-burn" opacity="0.51">
<path d="M69.5613 104.808L30.3562 121.812L29.7389 122.069C29.7389 122.069 29.6874 122.738 29.5588 123.304L28.8899 123.175C28.8899 122.481 29.1214 121.606 29.1214 121.606L67.4261 104.705L69.5613 104.808Z" fill="#D5BC2B"/>
</g>
<g style="mix-blend-mode:color-burn" opacity="0.51">
<path d="M81.0089 105.297L45.0709 124.179H45.0452L44.8909 125.954L43.8876 125.774C43.9648 125.439 43.7075 123.973 43.7075 123.973L79.6969 105.245L80.9832 105.297H81.0089Z" fill="#D5BC2B"/>
</g>
<g style="mix-blend-mode:soft-light" opacity="0.38">
<path d="M80.3138 82.0155L79.4392 84.305L78.0758 87.9322L77.6127 89.167L51.1673 159.705L50.7043 160.914L49.3409 164.542L48.4662 166.857C47.4629 166.702 46.4597 166.548 45.4821 166.342C34.8576 164.13 25.5966 158.265 19.011 150.136C18.4707 149.467 17.9305 148.772 17.416 148.052L18.4193 145.299L20.0657 140.823L20.6317 139.254L40.6972 84.6909L41.2632 83.1216L42.9096 78.6455L43.9128 75.8929C45.6364 75.4556 47.4372 75.1469 49.2379 74.9153C51.1416 74.6838 53.071 74.5552 55.0261 74.5552C63.4125 74.5552 71.2844 76.7933 78.1015 80.6778C78.8475 81.1151 79.5679 81.5524 80.2882 82.0155H80.3138Z" fill="#FFFB8C"/>
</g>
<path d="M86.1536 89.8358C84.0956 87.7778 81.8574 85.9513 79.4393 84.3306C72.4678 79.6744 64.0815 76.9475 55.0519 76.9475C50.8588 76.9475 46.7941 77.5392 42.9354 78.6454C41.2375 79.1341 39.5655 79.7258 37.9448 80.3947C32.6711 82.607 27.9377 85.8484 23.9503 89.8101C16.0013 97.7591 11.062 108.769 11.062 120.912C11.062 129.915 13.7631 138.302 18.4194 145.273C20.04 147.692 21.8923 149.955 23.9503 152.013C30.6388 158.702 39.4883 163.255 49.341 164.541C51.2189 164.799 53.1226 164.902 55.0519 164.902C67.1942 164.902 78.2045 159.962 86.1536 152.013C94.1026 144.064 99.0419 133.054 99.0419 120.912C99.0419 108.769 94.1284 97.7591 86.1536 89.8101V89.8358ZM94.8229 127.06C94.7715 127.394 94.72 127.729 94.6686 128.063C94.54 128.732 94.4113 129.375 94.257 130.018C94.1798 130.353 94.1026 130.662 94.0255 130.996C93.7939 131.948 93.5109 132.9 93.1765 133.851C92.7649 135.086 92.2761 136.321 91.7359 137.504C91.5558 137.89 91.3757 138.302 91.1699 138.688C90.784 139.459 90.3724 140.231 89.9608 140.977C89.6521 141.543 89.292 142.083 88.9576 142.624C88.5975 143.164 88.2373 143.704 87.8771 144.244C87.517 144.759 87.1311 145.273 86.7195 145.788C86.3337 146.302 85.9221 146.791 85.5105 147.28C84.8673 148 84.2242 148.721 83.5553 149.389C82.8607 150.084 82.1661 150.727 81.4458 151.37C80.3397 152.322 79.182 153.222 77.9987 154.046C76.5581 155.049 75.0661 155.949 73.4711 156.747C73.2139 156.875 72.9309 157.004 72.6737 157.158C67.3743 159.731 61.4318 161.171 55.1291 161.171C53.6628 161.171 52.1964 161.094 50.7816 160.94C46.0739 160.425 41.6234 159.113 37.5588 157.133C37.0958 156.901 36.6585 156.695 36.2212 156.438C35.7838 156.207 35.3465 155.949 34.9091 155.718C34.4718 155.461 34.0602 155.203 33.6229 154.946C31.925 153.866 30.3301 152.682 28.8123 151.37C28.092 150.727 27.3717 150.084 26.7028 149.389C26.3684 149.055 26.034 148.695 25.6996 148.36C25.3652 148 25.0565 147.64 24.722 147.28C24.3104 146.791 23.8988 146.302 23.5129 145.788C23.1271 145.273 22.7412 144.759 22.3553 144.244C21.9694 143.704 21.6093 143.19 21.2749 142.624C20.9405 142.083 20.5803 141.518 20.2716 140.977C20.2458 140.926 20.2201 140.874 20.1944 140.823C19.7828 140.103 19.4226 139.408 19.0625 138.662C18.8567 138.276 18.6766 137.89 18.4965 137.479C17.9563 136.295 17.4675 135.061 17.0559 133.826C15.6925 129.787 14.9465 125.439 14.9465 120.937C14.9465 116.436 15.6925 112.088 17.0559 108.049C17.4675 106.814 17.9563 105.58 18.4965 104.396C18.6766 104.01 18.8567 103.599 19.0625 103.213C19.4484 102.441 19.86 101.669 20.2716 100.923C20.5803 100.357 20.9405 99.8171 21.2749 99.2769C21.635 98.7367 21.9951 98.1964 22.3553 97.6562C22.7154 97.1417 23.1013 96.6272 23.5129 96.1127C23.8988 95.5982 24.3104 95.1094 24.722 94.6206C25.0307 94.2605 25.3652 93.9004 25.6996 93.5402C26.034 93.18 26.3684 92.8456 26.7028 92.5112C27.3974 91.8166 28.092 91.1735 28.8123 90.5304C30.8703 88.7553 33.1342 87.1604 35.5266 85.8227C36.3241 85.3853 37.1472 84.948 37.9704 84.5621C38.2534 84.4335 38.5364 84.3049 38.8194 84.1763C39.3854 83.919 39.9513 83.6875 40.5173 83.456C40.8003 83.3531 41.0832 83.2244 41.3919 83.1215C41.7521 82.9929 42.1122 82.8643 42.4723 82.7357C46.4597 81.398 50.7301 80.7034 55.1548 80.7034C63.7212 80.7034 71.6446 83.3788 78.1788 87.9321C79.0277 88.5238 79.8766 89.1669 80.6741 89.8358C80.9314 90.0673 81.2143 90.2731 81.4716 90.5046C82.1919 91.1478 82.9122 91.7909 83.5811 92.4855C84.2756 93.18 84.9188 93.8746 85.5362 94.5949C85.9478 95.0837 86.3593 95.5725 86.7452 96.087C87.1311 96.6015 87.517 97.116 87.9029 97.6305C88.2887 98.1707 88.6489 98.6852 88.9834 99.2512C89.3178 99.7914 89.6779 100.357 89.9866 100.898C90.4239 101.644 90.8098 102.415 91.1957 103.187C91.4015 103.573 91.5816 103.959 91.7616 104.37C92.3019 105.554 92.7906 106.789 93.2022 108.023C93.5109 108.95 93.794 109.901 94.0512 110.879C94.1284 111.213 94.2055 111.522 94.2827 111.856C94.4371 112.5 94.5657 113.168 94.6943 113.812C94.7458 114.146 94.7972 114.48 94.8487 114.815C94.9516 115.484 95.0287 116.153 95.1059 116.821C95.2345 118.185 95.3117 119.548 95.3117 120.937C95.3117 122.327 95.2345 123.69 95.1059 125.053C95.0287 125.722 94.9516 126.391 94.8487 127.06H94.8229Z" fill="#FAE543"/>
<g style="mix-blend-mode:multiply">
<path d="M95.0802 116.821C95.003 116.152 94.9258 115.483 94.8229 114.815C94.7715 114.48 94.72 114.146 94.6686 113.811C94.5399 113.142 94.4113 112.499 94.257 111.856C94.1798 111.522 94.1026 111.213 94.0254 110.879C93.7682 109.927 93.4852 108.975 93.1765 108.023C92.7391 106.788 92.2761 105.554 91.7359 104.37C91.5558 103.984 91.3757 103.573 91.1699 103.187C90.784 102.415 90.3724 101.643 89.9608 100.897C89.6521 100.331 89.292 99.7912 88.9576 99.2509C88.5974 98.7107 88.2373 98.1705 87.8771 97.6302C87.517 97.1157 87.1311 96.6012 86.7195 96.0867C86.3337 95.5722 85.922 95.0835 85.5104 94.5947C84.8673 93.8744 84.2241 93.1541 83.5296 92.4852C82.835 91.7906 82.1405 91.1475 81.4202 90.5044C81.1629 90.2729 80.9057 90.0413 80.6227 89.8355C79.8252 89.1667 78.9763 88.5493 78.1274 87.9319C71.6189 83.3785 63.6698 80.7031 55.1034 80.7031C50.6786 80.7031 46.4083 81.4234 42.4209 82.7354C42.0608 82.864 41.7006 82.9669 41.3404 83.0956C41.0574 83.1985 40.7745 83.3271 40.4658 83.43C39.8998 83.6615 39.3081 83.893 38.7679 84.1503C38.4849 84.2789 38.202 84.4075 37.919 84.5362C37.0958 84.922 36.2726 85.3594 35.4751 85.7967C33.0827 87.1344 30.8446 88.7294 28.7609 90.5044C28.0406 91.1475 27.3203 91.7906 26.6514 92.4852C26.317 92.8197 25.9825 93.1798 25.6481 93.5142C25.3137 93.8744 25.005 94.2345 24.6706 94.5947C24.259 95.0835 23.8474 95.5722 23.4615 96.0867C23.0756 96.6012 22.6897 97.1157 22.3039 97.6302C21.918 98.1705 21.5579 98.685 21.2235 99.2509C20.889 99.7912 20.5288 100.357 20.2201 100.897C19.7828 101.643 19.3969 102.415 19.0111 103.187C18.8053 103.573 18.6252 103.959 18.4451 104.37C17.9049 105.554 17.4418 106.788 17.0045 108.023C15.6411 112.062 14.895 116.41 14.895 120.911C14.895 125.413 15.6411 129.761 17.0045 133.8C17.4418 135.035 17.9049 136.269 18.4451 137.453C18.6252 137.839 18.8053 138.25 19.0111 138.636C19.3712 139.356 19.7571 140.077 20.143 140.771C20.143 140.771 20.1944 140.874 20.2201 140.926C20.5288 141.492 20.889 142.032 21.2235 142.572C21.5836 143.112 21.9437 143.652 22.3039 144.193C22.664 144.707 23.0499 145.222 23.4615 145.736C23.8474 146.251 24.259 146.739 24.6706 147.228C24.9793 147.588 25.3137 147.949 25.6481 148.309C25.9825 148.669 26.317 149.003 26.6514 149.338C27.346 150.032 28.0406 150.675 28.7609 151.319C30.2787 152.63 31.8736 153.814 33.5715 154.894C34.0088 155.152 34.4204 155.435 34.8577 155.666C35.295 155.923 35.7324 156.155 36.1697 156.386C36.6071 156.618 37.0701 156.849 37.5074 157.081C41.572 159.062 46.0481 160.374 50.7301 160.888C52.1707 161.043 53.6113 161.12 55.0776 161.12C61.3545 161.12 67.3228 159.679 72.6221 157.107C72.8794 156.978 73.1624 156.849 73.4196 156.695C74.9888 155.898 76.5067 154.997 77.9473 153.994C79.1563 153.171 80.314 152.27 81.3944 151.319C82.1147 150.675 82.835 150.032 83.5039 149.338C84.1985 148.643 84.8416 147.949 85.4847 147.228C85.8963 146.739 86.3079 146.251 86.6938 145.736C87.0797 145.222 87.4656 144.707 87.8514 144.193C88.2373 143.652 88.5974 143.138 88.9318 142.572C89.2663 142.032 89.6265 141.466 89.9352 140.926C90.3725 140.18 90.7584 139.408 91.1442 138.636C91.35 138.25 91.5301 137.864 91.7102 137.453C92.2504 136.269 92.7135 135.035 93.1508 133.8C93.4595 132.874 93.7424 131.922 93.9997 130.944C94.0769 130.61 94.154 130.301 94.2312 129.967C94.3856 129.324 94.5142 128.655 94.6428 128.012C94.6943 127.677 94.7457 127.343 94.7972 127.008C94.9001 126.339 94.9773 125.671 95.0544 125.002C95.1831 123.638 95.2603 122.275 95.2603 120.886C95.2603 119.497 95.1831 118.133 95.0544 116.77L95.0802 116.821ZM82.6035 148.489C75.5548 155.537 65.805 159.911 55.0519 159.911C53.74 159.911 52.428 159.859 51.1674 159.705C41.9578 158.779 33.7001 154.663 27.5003 148.489C24.7992 145.788 22.484 142.675 20.6575 139.253C17.7506 133.8 16.0784 127.549 16.0784 120.937C16.0784 110.184 20.4259 100.434 27.5003 93.3856C31.2304 89.6555 35.7066 86.6714 40.723 84.6905C45.1735 82.9155 50.0098 81.9637 55.0776 81.9637C63.4897 81.9637 71.2587 84.6133 77.6386 89.1667C79.4136 90.4272 81.0857 91.8421 82.6292 93.3856C89.6779 100.434 94.0512 110.184 94.0512 120.937C94.0512 131.69 89.7036 141.44 82.6292 148.489H82.6035Z" fill="#F6F39E"/>
</g>
<path d="M108.997 0.106934H88.7258L44.8645 73.3463H65.1102L108.997 0.106934Z" fill="#2164EB"/>
</svg>
