<svg width="109" height="168" viewBox="0 0 109 168" fill="none" xmlns="http://www.w3.org/2000/svg">
<path d="M0.977234 0.106934H21.21L65.0868 73.3797H44.854L0.977234 0.106934Z" fill="#90E300"/>
<path d="M64.6849 79.6004V78.664H45.422C44.6862 78.664 44.0174 78.363 43.5158 77.8614C43.0141 77.3598 42.7131 76.6909 42.7131 75.9552C42.7131 75.2194 43.0141 74.5506 43.5158 74.0489C44.0174 73.5473 44.6862 73.2463 45.422 73.2463H64.6849C65.4206 73.2463 66.0895 73.5473 66.5911 74.0489C67.0928 74.5506 67.3938 75.2194 67.3938 75.9552C67.3938 76.6909 67.0928 77.3598 66.5911 77.8614C66.0895 78.363 65.4206 78.664 64.6849 78.664V80.5368C67.2265 80.5368 69.2666 78.4968 69.2666 75.9552C69.2666 73.4135 67.2265 71.3735 64.6849 71.3735H45.422C42.9138 71.3735 40.8403 73.4135 40.8403 75.9552C40.8403 78.4634 42.8803 80.5368 45.422 80.5368H64.6849V79.6004Z" fill="#E0C64C"/>
<path d="M101.438 120.935C101.438 146.552 80.6706 167.32 55.0535 167.32C52.8129 167.32 50.6391 167.153 48.4988 166.852C47.4955 166.718 46.4922 166.517 45.4889 166.317C34.8876 164.109 25.5906 158.257 19.0358 150.13C18.5007 149.462 17.9657 148.759 17.4306 148.057C12.3139 140.967 9.13679 132.339 8.73547 123.008C8.73547 122.674 8.73547 122.34 8.73547 122.005C8.73547 121.637 8.73547 121.303 8.73547 120.935C8.73547 120.534 8.73547 120.132 8.73547 119.731C9.27056 98.4615 24.1191 80.7704 44.0175 75.8878C45.7565 75.453 47.5289 75.152 49.3348 74.9179C51.2411 74.6838 53.1473 74.55 55.1204 74.55C63.5145 74.55 71.3735 76.7907 78.1958 80.67C78.9316 81.1048 79.6673 81.5396 80.3696 82.0078C93.1112 90.2681 101.505 104.615 101.505 120.902L101.438 120.935Z" fill="#E0C64C"/>
<g style="mix-blend-mode:multiply">
<path d="M47.1944 150.064C47.1944 150.064 45.6895 148.659 48.599 146.184C48.599 146.184 48.0974 144.947 46.7931 144.077C45.8567 143.475 41.0744 140.399 40.2384 136.319C39.837 134.312 40.74 132.272 40.9741 131.871C41.8102 130.567 65.0194 125.483 67.4272 127.055C69.8351 128.627 71.2397 134.312 71.2397 134.312C71.2397 134.312 73.7813 134.446 74.8849 137.055C75.7879 139.228 47.1944 150.03 47.1944 150.03V150.064Z" fill="#F6F39E"/>
</g>
<g style="mix-blend-mode:multiply">
<path d="M56.0904 118.695C56.0904 118.695 55.2877 118.427 56.0235 116.822C57.1605 114.381 56.1238 113.043 56.1573 111.505C56.1907 109.966 51.1743 114.147 51.1743 114.147L53.3815 120.066L56.0904 118.661V118.695Z" fill="#F6F39E"/>
</g>
<path d="M71.34 146.084C70.4705 146.218 69.4004 146.05 68.1296 145.515C60.6719 142.439 70.4036 135.081 70.4036 135.081C70.4036 135.081 70.7715 135.081 71.2731 135.182C72.4102 135.382 74.283 135.85 74.9184 137.088C75.6876 138.559 75.6207 145.482 71.34 146.05V146.084Z" fill="#FFEC8C"/>
<path d="M55.8896 111.739L55.02 111.638C55.02 111.638 55.1204 111.739 55.2542 111.906C55.622 112.374 56.224 113.511 55.5217 115.585C54.184 119.665 41.1413 117.558 38.6666 116.989C36.1918 116.421 36.5931 113.411 37.3623 111.572C38.1315 109.732 42.0778 108.361 44.1178 108.629C46.1578 108.896 48.0974 106.89 48.0974 106.89C47.8633 105.719 53.1138 94.5492 54.5853 93.0109C55.2542 92.3086 55.923 91.506 56.3243 90.7702C56.6587 90.6365 56.9597 90.5696 57.2942 90.603C57.4614 90.603 57.5951 90.6364 57.7624 90.7033C60.6384 91.6732 58.5315 96.121 58.5984 97.5925C58.5984 97.8601 58.6987 98.0273 58.8994 98.0607C61.0063 98.1945 65.5879 93.8469 67.5945 95.9873C67.8286 96.2548 67.9623 96.5558 67.9958 96.9237C68.3971 100.937 57.1938 110.635 55.8561 111.772L55.8896 111.739Z" fill="#FFF0A6"/>
<path d="M70.9388 138.46C70.3703 141.771 69.3671 144.011 68.1297 145.516C66.5579 147.389 64.5513 148.058 62.4444 148.125C62.3106 148.125 62.1769 148.125 62.0431 148.125C60.8726 148.125 59.7021 147.924 58.5651 147.657C55.7559 147.021 53.1139 145.984 51.3415 145.884H51.308C50.6391 144.58 51.9769 141.369 53.5821 138.36C53.7159 138.092 53.9165 137.791 54.0837 137.49C56.1572 134.346 60.4379 130.467 58.6654 128.695C56.7257 126.755 47.3618 136.085 42.3788 130.266C37.3959 124.447 44.6529 123.411 43.0811 123.076C41.5093 122.742 41.6765 121.404 41.9106 121.605C42.1447 121.839 48.7664 121.605 52.9133 119.866C53.7828 119.498 54.6189 118.996 55.2208 118.327C55.5887 118.461 59.5349 120 61.809 121.404C66.3238 124.18 68.6982 127.624 69.8687 130.701C70.5041 132.373 70.8385 133.912 70.9723 135.182C71.1729 137.189 70.9723 138.493 70.9723 138.493L70.9388 138.46Z" fill="#FFEC8C"/>
<path d="M54.0504 137.523C53.8497 137.824 53.6825 138.091 53.5488 138.392C51.9435 141.402 50.6058 144.613 51.2746 145.917C51.1409 145.917 51.0071 145.917 50.8733 145.883C50.8733 145.883 50.6727 145.883 50.6058 145.817C50.5389 145.817 50.472 145.817 50.4386 145.783H50.4051C50.3383 145.783 50.3048 145.783 50.2379 145.75C50.171 145.75 50.0707 145.683 50.0038 145.649C49.9035 145.616 49.8032 145.582 49.7028 145.516C49.6025 145.482 49.5356 145.415 49.4353 145.382C49.3684 145.348 49.2681 145.282 49.2012 145.248C49.1678 145.248 49.1009 145.181 49.0674 145.148C48.9336 145.081 48.8333 144.981 48.6995 144.914C47.9638 144.345 47.295 143.609 46.693 142.74C46.693 142.74 46.4923 142.472 46.4255 142.339C46.4255 142.305 46.3586 142.272 46.3586 142.205C46.1245 141.87 45.9238 141.502 45.6897 141.135C45.5559 140.934 45.4556 140.7 45.3218 140.466C45.2215 140.299 45.1212 140.131 45.0543 139.931C44.6195 139.128 44.1848 138.259 43.75 137.389C43.6832 137.289 43.6497 137.188 43.5828 137.055C43.449 136.787 43.3153 136.486 43.1481 136.219C43.1481 136.152 43.0812 136.118 43.0812 136.051C42.8805 135.617 42.6465 135.215 42.4124 134.781C42.2786 134.546 42.1448 134.279 42.011 134.045C41.9107 133.844 41.7769 133.643 41.6766 133.443C41.5428 133.242 41.4425 133.008 41.3087 132.807C41.2084 132.607 41.0746 132.44 40.9409 132.239C37.2287 126.52 40.5061 122.24 40.6399 121.537C40.7737 120.835 38.5664 119.129 38.5664 119.129C38.5664 119.129 36.9278 118.26 35.8911 116.722C35.8576 116.655 35.7907 116.588 35.7573 116.521C35.6904 116.421 35.6569 116.354 35.59 116.253C35.59 116.22 35.5232 116.153 35.5232 116.12C35.3894 115.852 35.2556 115.551 35.1553 115.217C35.1553 115.15 35.1219 115.083 35.0884 115.016C35.0884 115.016 35.0884 114.916 35.055 114.849C35.055 114.815 35.055 114.748 35.055 114.715C35.055 114.682 35.055 114.615 35.055 114.581C35.0215 114.314 35.0215 114.013 35.055 113.745C35.055 113.678 35.055 113.578 35.055 113.511C35.055 113.411 35.0884 113.277 35.1218 113.177C35.1218 113.076 35.1553 112.976 35.1887 112.876C35.356 112.24 36.3592 111.973 36.8609 111.237C40.6399 105.752 45.9907 108.896 46.693 106.455C47.5625 103.411 52.6458 92.3084 56.5586 90.8369C56.1573 91.5392 55.4884 92.3753 54.8195 93.0776C53.3481 94.6494 48.0976 105.786 48.3317 106.956C48.3317 106.956 46.392 108.996 44.352 108.695C42.312 108.428 38.3658 109.799 37.5966 111.638C36.8274 113.478 36.4596 116.487 38.9009 117.056C41.3756 117.624 54.4182 119.731 55.7559 115.651C56.4248 113.611 55.8563 112.474 55.4884 111.973C55.3546 111.805 55.2543 111.705 55.2543 111.705L56.1238 111.805C56.1238 111.805 56.0569 111.872 56.0235 111.906C56.0235 111.906 56.7258 112.742 56.592 115.183C56.5586 115.986 56.3913 116.588 56.2241 117.056C56.2241 117.123 56.1907 117.19 56.1573 117.257C56.0904 117.424 55.9901 117.624 55.8897 117.758C55.7894 117.925 55.6891 118.059 55.6222 118.16C55.6222 118.16 55.5887 118.193 55.5553 118.226C55.455 118.327 55.3881 118.394 55.3881 118.394C54.7861 119.029 53.9835 119.531 53.0806 119.932C48.9671 121.704 42.312 121.905 42.0779 121.671C41.8438 121.47 41.7101 122.808 43.2484 123.142C44.8202 123.477 37.5632 124.514 42.5461 130.333C47.5291 136.152 56.893 126.855 58.8326 128.761C60.6386 130.533 56.3245 134.413 54.251 137.556L54.0504 137.523Z" fill="#FFF0A6"/>
<path d="M55.8895 111.738C55.8895 111.738 55.8226 111.805 55.7892 111.839C55.6219 111.906 55.4547 111.906 55.2875 111.906C55.1537 111.906 55.02 111.906 54.8862 111.872C54.3511 111.705 52.5118 112.106 52.6455 111.17C53.2141 107.458 60.237 98.0604 64.8521 96.7896C66.7249 96.2879 67.6613 96.4217 68.0291 96.9234C68.4304 100.936 57.2272 110.635 55.8895 111.772V111.738Z" fill="#FFDD2E"/>
<path d="M54.5186 110.802C54.5186 110.802 68.297 100.368 67.1933 98.1608C66.0897 95.9536 52.5789 111.137 54.5186 110.802Z" fill="#FFF0A6"/>
<path d="M58.5984 97.5593C56.9931 98.897 54.8194 100.87 53.4148 103.412C50.1374 109.331 49.4351 108.294 49.4351 108.294C48.6325 107.826 50.94 101.907 51.2744 101.071C51.542 100.335 55.0534 92.777 57.3275 90.6033C57.4948 90.6033 57.6285 90.6367 57.7957 90.7036C60.6718 91.6734 58.5649 96.1213 58.6318 97.5928L58.5984 97.5593Z" fill="#FFDD2E"/>
<path d="M41.2751 109.431C41.2751 109.431 44.8869 108.528 44.0174 110.635C43.1479 112.742 39.8371 113.645 38.8003 113.344C37.7636 113.043 38.9006 110.602 41.2751 109.431Z" fill="#FFEC8C"/>
<path d="M54.0504 137.523C53.8497 137.824 53.6825 138.091 53.5488 138.392C51.9435 141.402 50.6058 144.613 51.2746 145.917C51.1409 145.917 51.0071 145.917 50.8733 145.883C50.8733 145.883 50.6727 145.883 50.6058 145.817C50.5389 145.817 50.472 145.817 50.4386 145.783H50.4051C50.3383 145.783 50.3048 145.783 50.2379 145.75C50.171 145.75 50.0707 145.683 50.0038 145.649C49.9035 145.616 49.8032 145.582 49.7028 145.516C49.6025 145.482 49.5356 145.415 49.4353 145.382C49.3684 145.348 49.2681 145.282 49.2012 145.248C49.1678 145.248 49.1008 145.181 49.0674 145.148C48.9336 145.081 48.8333 144.981 48.6995 144.914C47.9638 144.345 47.295 143.609 46.693 142.74C46.693 142.74 46.4923 142.472 46.4255 142.339C46.4255 142.305 46.3586 142.272 46.3586 142.205C46.1245 141.87 45.9238 141.502 45.6897 141.135C45.5559 140.934 45.4556 140.7 45.3218 140.466C45.2215 140.299 45.1212 140.131 45.0543 139.931C44.6195 139.128 44.1848 138.259 43.75 137.389C43.6832 137.289 43.6497 137.188 43.5828 137.055C43.449 136.787 43.3153 136.486 43.1481 136.219C43.1481 136.152 43.0812 136.118 43.0812 136.051C42.8805 135.617 42.6465 135.215 42.4124 134.781C42.2786 134.546 42.1448 134.279 42.011 134.045C41.9107 133.844 41.7769 133.643 41.6766 133.443C41.5428 133.242 41.4425 133.008 41.3087 132.807C41.2084 132.607 41.0746 132.44 40.9409 132.239C37.2287 126.52 40.5061 122.24 40.6399 121.537C40.7737 120.835 38.5664 119.129 38.5664 119.129C38.5664 119.129 36.9278 118.26 35.8911 116.722C35.8576 116.655 35.7907 116.588 35.7573 116.521C35.6904 116.421 35.6569 116.354 35.59 116.253C35.59 116.22 35.5232 116.153 35.5232 116.12C35.3894 115.852 35.2556 115.551 35.1553 115.217C35.1553 115.15 35.1219 115.083 35.0884 115.016C35.0884 115.016 35.0884 114.916 35.055 114.849C35.055 114.815 35.055 114.748 35.055 114.715C35.055 114.682 35.055 114.615 35.055 114.581C35.0215 114.314 35.0215 114.013 35.055 113.745C35.055 113.678 35.055 113.578 35.055 113.511C35.055 113.411 35.0884 113.277 35.1218 113.177C35.1218 113.076 35.1553 112.976 35.1887 112.876C35.356 112.24 36.3592 111.973 36.8609 111.237C40.6399 105.752 45.9907 108.896 46.693 106.455C47.5625 103.411 52.6458 92.3084 56.5586 90.8369C56.1573 91.5392 55.4884 92.3753 54.8195 93.0776C53.3481 94.6494 48.0976 105.786 48.3317 106.956C48.3317 106.956 46.392 108.996 44.352 108.695C42.312 108.428 38.3658 109.799 37.5966 111.638C36.8274 113.478 36.4596 116.487 38.9009 117.056C41.3756 117.624 54.4182 119.731 55.7559 115.651C56.4248 113.611 55.8563 112.474 55.4884 111.973C55.3546 111.805 55.2543 111.705 55.2543 111.705L56.1238 111.805C56.1238 111.805 56.0569 111.872 56.0235 111.906C56.0235 111.906 56.7258 112.742 56.592 115.183C56.5586 115.986 56.3913 116.588 56.2241 117.056C56.2241 117.123 56.1907 117.19 56.1573 117.257C56.0904 117.424 55.9901 117.624 55.8897 117.758C55.8228 117.892 55.7225 118.026 55.6222 118.16C55.6222 118.16 55.5887 118.193 55.5553 118.226C55.5218 118.293 55.455 118.327 55.4215 118.394C54.8196 119.029 54.0169 119.531 53.114 119.932C49.0005 121.704 42.3454 121.905 42.1113 121.671C41.8772 121.47 41.7435 122.808 43.2818 123.142C44.8536 123.477 37.5966 124.514 42.5796 130.333C47.5625 136.152 56.9264 126.855 58.8661 128.761C60.672 130.533 56.3579 134.413 54.2845 137.556L54.0504 137.523Z" fill="#FFDD2E"/>
<path d="M66.1564 145.784C66.0895 146.085 65.9892 146.386 65.8554 146.653C65.5878 147.222 63.9492 147.657 62.4108 148.125C61.0396 148.526 59.7354 148.927 59.702 149.396C59.6016 150.432 46.9937 153.074 47.0272 149.396C47.0606 145.817 52.1439 146.82 52.4114 146.854C52.3445 146.82 51.8429 146.453 51.2744 145.884C50.1373 144.68 48.8331 142.54 50.7059 140.132C54.8862 134.781 60.7387 138.293 63.782 139.43C65.9557 140.232 66.7249 143.476 66.1564 145.784Z" fill="#FFF0A6"/>
<path d="M46.6595 144.412C46.5592 149.161 42.7802 150.365 40.8739 150.465C39.6031 150.532 39.0012 149.629 39.3356 148.626C39.5028 148.124 39.9041 147.589 40.6064 147.154C42.6464 145.85 41.9107 141.703 40.7736 137.523C39.8707 134.246 41.6432 132.306 41.8438 132.306C43.9507 132.306 46.1579 137.791 46.5927 142.138C46.6595 142.907 46.693 143.676 46.693 144.379L46.6595 144.412Z" fill="#FFF0A6"/>
<path d="M71.3403 146.084C73.9823 145.382 74.6511 140.298 74.2498 138.325C73.8485 136.319 72.0426 135.717 71.2734 135.215C72.4105 135.416 74.2833 135.884 74.9187 137.121C75.6879 138.593 75.621 145.515 71.3403 146.084Z" fill="#FFF0A6"/>
<path d="M70.9386 138.46C70.3701 141.77 69.3669 144.011 68.1295 145.516C66.5577 147.389 64.5511 148.058 62.4442 148.125C61.073 148.526 59.7688 148.927 59.7353 149.395C59.635 150.432 47.0272 153.074 47.0606 149.395C47.0606 149.395 52.0101 151.302 55.3544 149.864C57.1603 149.094 57.9964 148.292 58.5649 147.656C59.0331 147.121 59.334 146.686 59.9026 146.419C60.7386 146.051 63.7819 146.686 66.1898 145.784C67.26 145.382 68.2298 144.647 68.7648 143.342C70.5373 139.195 70.6377 133.51 69.835 130.667C70.4704 132.306 70.8049 133.878 70.9386 135.149C71.1393 137.155 70.9386 138.46 70.9386 138.46Z" fill="#FFDD2E"/>
<path d="M46.6595 144.412C46.5592 149.161 42.7802 150.365 40.8739 150.465C39.6031 150.532 39.0012 149.629 39.3356 148.626C39.3356 148.626 39.4025 150.131 41.2752 149.228C43.148 148.291 46.4589 147.623 46.5927 142.171C46.6595 142.941 46.693 143.71 46.693 144.412H46.6595Z" fill="#FFDD2E"/>
<g style="mix-blend-mode:multiply">
<path d="M40.0711 111.237C40.0711 111.237 40.5727 111.739 41.4088 111.839C41.9439 111.906 42.6462 111.705 43.0809 111.17C43.0809 111.17 42.0107 111.605 41.5425 111.571C41.1747 111.571 40.0711 111.237 40.0711 111.237Z" fill="#F6F39E"/>
</g>
<g style="mix-blend-mode:multiply">
<path d="M36.0581 113.745C35.6903 114.046 34.9545 114.314 34.9545 115.016C34.8208 114.448 34.7873 113.846 34.9545 113.143C34.9545 113.143 35.1552 113.812 35.7906 113.311C36.426 112.842 36.426 113.444 36.0916 113.712L36.0581 113.745Z" fill="#F6F39E"/>
</g>
<g style="mix-blend-mode:soft-light" opacity="0.38">
<path d="M80.3026 82.0417L79.433 84.3492L78.0619 87.961L77.5937 89.1984L51.1406 159.729L50.6724 160.933L49.3012 164.578L48.4318 166.886C47.4285 166.752 46.4252 166.551 45.4219 166.351C34.8206 164.143 25.5235 158.291 18.9688 150.164C18.4337 149.495 17.8986 148.793 17.3635 148.091L18.3668 145.349L20.0055 140.867L20.574 139.295L40.6396 84.7505L41.2081 83.1787L42.8468 78.6974L43.8501 75.9551C45.5891 75.5204 47.3615 75.2194 49.1674 74.9853C51.0737 74.7512 52.9799 74.6174 54.9531 74.6174C63.3472 74.6174 71.2062 76.8581 78.0284 80.7374C78.7642 81.1722 79.5 81.6069 80.2022 82.0751L80.3026 82.0417Z" fill="#FFFB8C"/>
</g>
<path d="M86.1549 89.8342C84.1149 87.7942 81.8407 85.9214 79.4329 84.3161C72.4768 79.6676 64.0827 76.9587 55.0532 76.9587C50.8395 76.9587 46.7929 77.5607 42.947 78.6643C41.2414 79.166 39.5693 79.7345 37.964 80.4368C32.7136 82.644 27.9647 85.8879 23.985 89.8676C16.0257 97.8269 11.1096 108.83 11.1096 120.969C11.1096 129.965 13.8185 138.359 18.467 145.315C20.0722 147.757 21.945 149.997 23.985 152.037C30.6735 158.726 39.5024 163.274 49.368 164.545C51.2408 164.779 53.147 164.913 55.0867 164.913C67.2263 164.913 78.229 159.997 86.1883 152.037C94.1476 144.078 99.0637 133.075 99.0637 120.936C99.0637 108.796 94.1476 97.7935 86.1883 89.8342H86.1549ZM94.8165 127.056C94.7831 127.39 94.7162 127.725 94.6493 128.059C94.5155 128.728 94.4152 129.363 94.248 130.032C94.1811 130.367 94.0808 130.668 94.0139 131.002C93.7798 131.972 93.4788 132.908 93.1778 133.845C92.743 135.082 92.2749 136.319 91.7398 137.49C91.5726 137.891 91.3719 138.293 91.1713 138.66C90.8034 139.43 90.3686 140.199 89.9673 140.934C89.6329 141.503 89.2985 142.038 88.964 142.573C88.6296 143.108 88.2617 143.643 87.8604 144.178C87.4926 144.714 87.0913 145.215 86.7234 145.717C86.3221 146.218 85.9207 146.72 85.486 147.222C84.8506 147.957 84.2152 148.66 83.5129 149.329C82.844 149.997 82.1417 150.666 81.406 151.302C80.3024 152.272 79.1653 153.141 77.9614 153.977C76.5234 154.98 75.0185 155.883 73.4467 156.686C73.1791 156.82 72.9116 156.953 72.644 157.087C67.3601 159.662 61.4073 161.1 55.1201 161.1C53.6487 161.1 52.2106 161.034 50.7726 160.866C46.0906 160.365 41.6093 159.027 37.5293 157.054C37.0945 156.82 36.6263 156.619 36.1916 156.385C35.7568 156.151 35.3221 155.917 34.8873 155.649C34.4526 155.415 34.0178 155.148 33.6165 154.88C31.9444 153.81 30.3391 152.606 28.8342 151.302C28.0985 150.666 27.3962 149.997 26.7273 149.329C26.3929 148.994 26.0585 148.626 25.724 148.292C25.3896 147.924 25.0886 147.59 24.7542 147.222C24.3195 146.72 23.9181 146.252 23.5168 145.75C23.1155 145.249 22.7476 144.714 22.3798 144.212C22.0119 143.677 21.644 143.142 21.2762 142.607C20.9417 142.072 20.6073 141.503 20.2729 140.968C20.2729 140.901 20.206 140.868 20.206 140.834C19.8047 140.132 19.4368 139.396 19.0689 138.694C18.8683 138.293 18.7011 137.925 18.5004 137.523C17.9653 136.353 17.4637 135.115 17.0624 133.878C15.6913 129.832 14.9555 125.484 14.9555 120.969C14.9555 116.454 15.6913 112.107 17.0624 108.06C17.4972 106.823 17.9653 105.586 18.5004 104.415C18.6676 104.014 18.8683 103.613 19.0689 103.245C19.4368 102.475 19.8716 101.706 20.2729 100.971C20.6073 100.402 20.9417 99.8669 21.2762 99.3319C21.6106 98.7968 21.9785 98.2617 22.3798 97.7266C22.7476 97.1915 23.1489 96.6899 23.5168 96.1883C23.9181 95.6866 24.3195 95.185 24.7542 94.6833C25.0552 94.3155 25.3896 93.9476 25.724 93.6132C26.0585 93.2787 26.3929 92.9109 26.7273 92.5764C27.3962 91.9076 28.1319 91.2387 28.8342 90.6033C30.9077 88.8309 33.1483 87.2256 35.5227 85.8879C36.3254 85.4532 37.128 85.0184 37.964 84.6171C38.2316 84.4833 38.5326 84.3496 38.8001 84.2492C39.3686 84.0151 39.9371 83.7476 40.5057 83.5469C40.8066 83.4466 41.0742 83.3128 41.3752 83.2125C41.7431 83.0787 42.0775 82.945 42.4453 82.8446C46.425 81.5069 50.7057 80.8046 55.1536 80.8046C63.7149 80.8046 71.6408 83.4801 78.1621 88.0283C79.0316 88.6302 79.8677 89.2656 80.6703 89.9345C80.9378 90.1686 81.2053 90.3692 81.4729 90.6033C82.2086 91.2387 82.9109 91.9076 83.5798 92.5764C84.2486 93.2453 84.9175 93.9476 85.5529 94.6833C85.9876 95.185 86.3889 95.6532 86.7902 96.1548C87.1916 96.6564 87.5595 97.1915 87.9273 97.6932C88.2952 98.2283 88.6631 98.7633 89.0309 99.2984C89.3654 99.8335 89.6998 100.402 90.0342 100.937C90.4689 101.673 90.8703 102.442 91.2381 103.211C91.4388 103.613 91.606 103.98 91.8066 104.382C92.3417 105.552 92.8434 106.79 93.2447 108.027C93.5791 108.963 93.8467 109.9 94.0808 110.87C94.1477 111.204 94.248 111.505 94.3148 111.839C94.4486 112.475 94.5824 113.144 94.7162 113.813C94.7831 114.147 94.8165 114.481 94.8834 114.816C94.9837 115.485 95.084 116.154 95.1509 116.822C95.2847 118.16 95.3516 119.531 95.3516 120.936C95.3516 122.34 95.2847 123.712 95.1509 125.049C95.084 125.718 94.9837 126.387 94.8834 127.056H94.8165Z" fill="#FAE543"/>
<g style="mix-blend-mode:multiply">
<path d="M95.0506 116.822C94.9837 116.153 94.8834 115.484 94.7831 114.816C94.7496 114.481 94.6828 114.147 94.6159 113.812C94.4821 113.143 94.3483 112.508 94.2146 111.839C94.1477 111.505 94.0474 111.204 93.9805 110.869C93.7464 109.9 93.4454 108.963 93.1444 108.027C92.7097 106.789 92.2414 105.552 91.7064 104.381C91.5392 103.98 91.3385 103.579 91.1378 103.211C90.77 102.442 90.3352 101.673 89.9339 100.937C89.5995 100.368 89.265 99.8333 88.9306 99.2982C88.5962 98.7631 88.2284 98.228 87.8271 97.693C87.4592 97.1579 87.0578 96.6562 86.69 96.1546C86.2887 95.653 85.8874 95.1513 85.4526 94.6497C84.8172 93.9139 84.1484 93.2116 83.4795 92.5428C82.8107 91.8739 82.1083 91.2051 81.3726 90.5697C81.1051 90.3356 80.8375 90.1349 80.57 89.9008C79.7673 89.232 78.9313 88.5966 78.0618 87.9946C71.5405 83.4464 63.6146 80.771 55.0533 80.771C50.6054 80.771 46.3582 81.4733 42.3451 82.811C41.9772 82.9448 41.6427 83.0451 41.2749 83.1789C40.9739 83.2792 40.7064 83.413 40.4054 83.5133C39.8369 83.7474 39.2684 83.9815 38.6998 84.2156C38.4323 84.3494 38.1313 84.4497 37.8638 84.5835C37.0277 84.9848 36.225 85.3861 35.4224 85.8543C33.0146 87.192 30.7739 88.7638 28.7339 90.5697C27.9982 91.2051 27.2959 91.8739 26.627 92.5428C26.2926 92.8772 25.9582 93.2451 25.6238 93.5795C25.2893 93.9474 24.9884 94.2818 24.6539 94.6497C24.2192 95.1513 23.8178 95.6195 23.4165 96.1212C23.0152 96.6228 22.6474 97.1579 22.2795 97.6595C21.9116 98.1946 21.5437 98.7297 21.1759 99.2648C20.8415 99.7998 20.507 100.368 20.1726 100.903C19.7378 101.639 19.3365 102.408 18.9687 103.178C18.768 103.579 18.6008 103.947 18.4001 104.348C17.8651 105.519 17.3969 106.756 16.9621 107.993C15.591 112.04 14.8552 116.387 14.8552 120.902C14.8552 125.417 15.591 129.764 16.9621 133.811C17.3969 135.048 17.8651 136.286 18.4001 137.456C18.5673 137.858 18.768 138.259 18.9687 138.627C19.3365 139.362 19.7044 140.065 20.1057 140.767C20.1057 140.767 20.1391 140.867 20.1726 140.901C20.507 141.469 20.8415 142.004 21.1759 142.54C21.5103 143.075 21.8782 143.61 22.2795 144.145C22.6474 144.68 23.0487 145.181 23.4165 145.683C23.8178 146.185 24.2192 146.686 24.6539 147.188C24.9549 147.556 25.2893 147.924 25.6238 148.258C25.9582 148.593 26.2926 148.961 26.627 149.295C27.2959 149.964 28.0316 150.633 28.7339 151.268C30.2388 152.572 31.8441 153.776 33.5162 154.846C33.951 155.114 34.3523 155.381 34.7871 155.616C35.2218 155.85 35.6566 156.117 36.0913 156.351C36.5261 156.585 36.9942 156.82 37.429 157.02C41.509 158.993 45.9569 160.331 50.6723 160.833C52.1103 161 53.5483 161.067 55.0198 161.067C61.307 161.067 67.2598 159.629 72.5438 157.054C72.8113 156.92 73.0789 156.786 73.3464 156.652C74.9182 155.85 76.4231 154.947 77.8611 153.943C79.0651 153.107 80.2021 152.204 81.3057 151.268C82.0414 150.633 82.7438 149.964 83.4126 149.295C84.0815 148.626 84.7503 147.89 85.3857 147.188C85.8205 146.686 86.2218 146.218 86.6231 145.717C87.0244 145.215 87.3923 144.68 87.7602 144.178C88.128 143.643 88.4959 143.108 88.8638 142.573C89.1982 142.038 89.5326 141.469 89.8671 140.934C90.3018 140.199 90.7031 139.429 91.071 138.66C91.2717 138.259 91.4389 137.891 91.6395 137.49C92.1746 136.319 92.6428 135.082 93.0775 133.844C93.3785 132.908 93.6795 131.972 93.9136 131.002C93.9805 130.667 94.0808 130.366 94.1477 130.032C94.2815 129.397 94.4152 128.728 94.549 128.059C94.6159 127.724 94.6493 127.39 94.7162 127.056C94.8166 126.387 94.9169 125.718 94.9838 125.049C95.1175 123.711 95.1844 122.34 95.1844 120.936C95.1844 119.531 95.1175 118.16 94.9838 116.822H95.0506ZM82.61 148.492C75.5536 155.549 65.8218 159.896 55.0533 159.896C53.749 159.896 52.4448 159.829 51.1405 159.696C41.9438 158.793 33.6834 154.679 27.4631 148.492C24.7543 145.783 22.4467 142.673 20.6074 139.262C17.6979 133.811 16.0257 127.557 16.0257 120.936C16.0257 110.167 20.3732 100.435 27.4296 93.3789C31.1752 89.6333 35.6566 86.6569 40.6395 84.6838C45.0874 82.9113 49.9031 81.9415 54.9864 81.9415C63.4139 81.9415 71.1726 84.6169 77.5601 89.1317C79.3326 90.4025 81.0048 91.8071 82.5431 93.3454C89.5995 100.402 93.947 110.134 93.947 120.902C93.947 131.671 89.5995 141.402 82.5431 148.459L82.61 148.492Z" fill="#F6F39E"/>
</g>
<path d="M108.997 0.106934H88.7305L44.8538 73.3797H65.12L108.997 0.106934Z" fill="#AEFF24"/>
</svg>
