<svg width="109" height="168" viewBox="0 0 109 168" fill="none" xmlns="http://www.w3.org/2000/svg">
<path d="M0.977234 0.106934H21.2435L65.1202 73.3463H44.854L0.977234 0.106934Z" fill="#058DE8"/>
<path d="M64.7192 79.6004V78.664H45.4562C44.7205 78.664 44.0516 78.363 43.55 77.8614C43.0484 77.3598 42.7474 76.6909 42.7474 75.9552C42.7474 75.2194 43.0484 74.5506 43.55 74.0489C44.0516 73.5473 44.7205 73.2463 45.4562 73.2463H64.7192C65.4549 73.2463 66.1238 73.5473 66.6254 74.0489C67.1271 74.5506 67.428 75.2194 67.428 75.9552C67.428 76.6909 67.1271 77.3598 66.6254 77.8614C66.1238 78.363 65.4549 78.664 64.7192 78.664V80.5368C67.2608 80.5368 69.3008 78.4968 69.3008 75.9552C69.3008 73.4135 67.2608 71.3735 64.7192 71.3735H45.4562C42.948 71.3735 40.8746 73.4135 40.8746 75.9552C40.8746 78.4634 42.9146 80.5368 45.4562 80.5368H64.7192V79.6004Z" fill="#E0C64C"/>
<path d="M101.473 120.935C101.473 142.606 86.5907 160.832 66.4916 165.915C62.8464 166.852 59.0339 167.32 55.0877 167.32C54.2516 167.32 53.449 167.32 52.6129 167.253C51.2418 167.186 49.8706 167.052 48.4995 166.852C47.4962 166.718 46.4929 166.517 45.4897 166.317C35.39 164.21 26.4942 158.792 19.9729 151.267C19.6385 150.9 19.3375 150.498 19.0031 150.13C18.468 149.462 17.9329 148.759 17.3979 148.057C15.0234 144.78 13.0838 141.168 11.6457 137.322C9.94015 132.841 8.93686 128.025 8.70276 122.975C8.70276 122.641 8.70276 122.306 8.70276 121.972C8.70276 121.604 8.70276 121.269 8.70276 120.902C8.70276 120.5 8.70276 120.099 8.70276 119.698C9.13751 103.043 18.3008 88.5959 31.8116 80.7369C35.5572 78.5632 39.6372 76.891 43.9847 75.8209C44.6202 75.6536 45.2556 75.5199 45.891 75.3861C47.028 75.152 48.1651 74.9848 49.3021 74.8176C51.2084 74.5835 53.1146 74.4497 55.0877 74.4497C63.4818 74.4497 71.3408 76.6904 78.1631 80.5697C78.8989 81.0045 79.6346 81.4392 80.3369 81.9074C81.0726 82.3756 81.7749 82.8438 82.4438 83.3789C85.8884 85.8871 88.9651 88.8635 91.607 92.2077C97.7939 100.067 101.473 109.999 101.473 120.801V120.935Z" fill="#E0C64C"/>
<g style="mix-blend-mode:multiply">
<path d="M55.0876 102.976C37.8312 102.976 23.8188 116.821 23.8188 133.844H45.7237C45.7237 128.727 49.9375 124.58 55.1211 124.58C60.3047 124.58 64.5185 128.727 64.5185 133.844H86.4234C86.4234 116.788 72.4109 102.976 55.1545 102.976H55.0876Z" stroke="#F6F39E" stroke-width="2.57251" stroke-miterlimit="10"/>
</g>
<g opacity="0.47">
<path d="M86.3565 133.844H64.4516C64.4516 128.727 60.2378 124.58 55.0542 124.58C49.8706 124.58 45.6568 128.727 45.6568 133.844H23.7519C23.7519 116.788 37.7644 102.976 55.0208 102.976C72.2772 102.976 86.2896 116.821 86.2896 133.844H86.3565Z" fill="#F022DB" fill-opacity="0.42"/>
<path d="M83.2125 133.843H64.4512C64.4512 128.726 60.2374 124.579 55.0538 124.579C49.8702 124.579 45.6565 128.726 45.6565 133.843H26.8951C26.8951 118.493 39.503 106.052 55.0538 106.052C70.6047 106.052 83.2125 118.493 83.2125 133.843Z" fill="#21C0FF" fill-opacity="0.86"/>
<path d="M80.1027 133.843H64.4515C64.4515 128.726 60.2377 124.579 55.0541 124.579C49.8705 124.579 45.6568 128.726 45.6568 133.843H30.0056C30.0056 120.198 41.2089 109.162 55.0207 109.162C68.8325 109.162 80.0358 120.232 80.0358 133.843H80.1027Z" fill="#00FFCC" fill-opacity="0.84"/>
<path d="M76.9592 133.842H64.4517C64.4517 128.726 60.2379 124.579 55.0543 124.579C49.8707 124.579 45.6569 128.726 45.6569 133.842H33.1494C33.1494 121.903 42.948 112.238 55.0543 112.238C67.1605 112.238 76.9592 121.903 76.9592 133.842Z" fill="#8AF705" fill-opacity="0.79"/>
<path d="M73.8488 133.843H64.4514C64.4514 128.726 60.2376 124.58 55.054 124.58C49.8704 124.58 45.6566 128.726 45.6566 133.843H36.2593C36.2593 123.61 44.6534 115.316 55.0206 115.316C65.3878 115.316 73.7819 123.61 73.7819 133.843H73.8488Z" fill="#FFEE00"/>
<path d="M70.7055 133.843H64.4517C64.4517 128.726 60.238 124.579 55.0543 124.579C49.8707 124.579 45.657 128.726 45.657 133.843H39.4032C39.4032 125.315 46.3927 118.392 55.0543 118.392C63.716 118.392 70.7055 125.315 70.7055 133.843Z" fill="#FFB700"/>
<path d="M67.5951 133.843H64.4515C64.4515 128.726 60.2377 124.579 55.0541 124.579C49.8705 124.579 45.6567 128.726 45.6567 133.843H42.5131C42.5131 127.02 48.1315 121.502 55.0207 121.502C61.9099 121.502 67.5282 127.02 67.5282 133.843H67.5951Z" fill="#FF7E2D"/>
</g>
<path d="M86.1557 89.8334C84.1157 87.7934 81.8416 85.9206 79.4337 84.3154C72.4776 79.6669 64.0835 76.958 55.054 76.958C50.8403 76.958 46.7937 77.56 42.9478 78.6636C41.2422 79.1652 39.5701 79.7337 37.9648 80.436C32.7143 82.6433 27.9655 85.8872 23.9858 89.8669C16.0265 97.8262 11.1104 108.829 11.1104 120.969C11.1104 129.965 13.8193 138.359 18.4678 145.315C20.0731 147.756 21.9458 149.997 23.9858 152.037C30.6744 158.725 39.5032 163.273 49.3688 164.544C51.2416 164.778 53.1478 164.912 55.0875 164.912C67.2271 164.912 78.2298 159.996 86.1891 152.037C94.1485 144.077 99.0645 133.075 99.0645 120.935C99.0645 108.795 94.1485 97.7928 86.1891 89.8334H86.1557ZM94.8173 127.055C94.7839 127.389 94.717 127.724 94.6501 128.058C94.5163 128.727 94.416 129.363 94.2488 130.031C94.1819 130.366 94.0816 130.667 94.0147 131.001C93.7806 131.971 93.4796 132.908 93.1786 133.844C92.7439 135.081 92.2757 136.319 91.7406 137.489C91.5734 137.89 91.3727 138.292 91.1721 138.66C90.8042 139.429 90.3694 140.198 89.9681 140.934C89.6337 141.502 89.2993 142.037 88.9648 142.572C88.6304 143.108 88.2626 143.643 87.8613 144.178C87.4934 144.713 87.0921 145.214 86.7242 145.716C86.3229 146.218 85.9216 146.719 85.4868 147.221C84.8514 147.957 84.216 148.659 83.5137 149.328C82.8449 149.997 82.1426 150.666 81.4068 151.301C80.3032 152.271 79.1662 153.14 77.9622 153.976C76.5242 154.98 75.0193 155.883 73.4475 156.685C73.1799 156.819 72.9124 156.953 72.6448 157.087C67.3609 159.662 61.4081 161.1 55.1209 161.1C53.6494 161.1 52.2114 161.033 50.7734 160.866C46.0914 160.364 41.6101 159.026 37.5301 157.053C37.0953 156.819 36.6271 156.618 36.1924 156.384C35.7576 156.15 35.3229 155.916 34.8881 155.649C34.4534 155.414 34.0186 155.147 33.6173 154.879C31.9452 153.809 30.3399 152.605 28.835 151.301C28.0993 150.666 27.397 149.997 26.7281 149.328C26.3937 148.993 26.0593 148.626 25.7248 148.291C25.3904 147.923 25.0894 147.589 24.755 147.221C24.3203 146.719 23.9189 146.251 23.5176 145.749C23.1163 145.248 22.7485 144.713 22.3806 144.211C22.0127 143.676 21.6448 143.141 21.277 142.606C20.9425 142.071 20.6081 141.502 20.2737 140.967C20.2737 140.9 20.2068 140.867 20.2068 140.833C19.8055 140.131 19.4376 139.395 19.0698 138.693C18.8691 138.292 18.7019 137.924 18.5012 137.523C17.9661 136.352 17.4645 135.115 17.0632 133.877C15.692 129.831 14.9563 125.483 14.9563 120.969C14.9563 116.454 15.692 112.106 17.0632 108.06C17.498 106.822 17.9661 105.585 18.5012 104.414C18.6684 104.013 18.8691 103.612 19.0698 103.244C19.4376 102.475 19.8724 101.706 20.2737 100.97C20.6081 100.401 20.9425 99.8662 21.277 99.3311C21.6114 98.796 21.9793 98.261 22.3806 97.7259C22.7485 97.1908 23.1498 96.6892 23.5176 96.1875C23.9189 95.6859 24.3203 95.1842 24.755 94.6826C25.056 94.3147 25.3904 93.9469 25.7248 93.6124C26.0593 93.278 26.3937 92.9101 26.7281 92.5757C27.397 91.9069 28.1327 91.238 28.835 90.6026C30.9085 88.8301 33.1491 87.2249 35.5235 85.8872C36.3262 85.4524 37.1288 85.0177 37.9648 84.6164C38.2324 84.4826 38.5334 84.3488 38.8009 84.2485C39.3694 84.0144 39.938 83.7469 40.5065 83.5462C40.8075 83.4459 41.075 83.3121 41.376 83.2118C41.7439 83.078 42.0783 82.9442 42.4462 82.8439C46.4258 81.5062 50.7065 80.8039 55.1544 80.8039C63.7157 80.8039 71.6416 83.4793 78.1629 88.0275C79.0324 88.6295 79.8685 89.2649 80.6711 89.9338C80.9386 90.1678 81.2062 90.3685 81.4737 90.6026C82.2094 91.238 82.9117 91.9069 83.5806 92.5757C84.2495 93.2446 84.9183 93.9469 85.5537 94.6826C85.9885 95.1842 86.3898 95.6524 86.7911 96.1541C87.1924 96.6557 87.5603 97.1908 87.9281 97.6924C88.296 98.2275 88.6639 98.7626 89.0317 99.2977C89.3662 99.8328 89.7006 100.401 90.035 100.936C90.4698 101.672 90.8711 102.441 91.2389 103.21C91.4396 103.612 91.6068 103.98 91.8075 104.381C92.3426 105.551 92.8442 106.789 93.2455 108.026C93.5799 108.963 93.8475 109.899 94.0816 110.869C94.1485 111.203 94.2488 111.504 94.3157 111.839C94.4495 112.474 94.5832 113.143 94.717 113.812C94.7839 114.146 94.8173 114.481 94.8842 114.815C94.9845 115.484 95.0849 116.153 95.1517 116.822C95.2855 118.159 95.3524 119.53 95.3524 120.935C95.3524 122.34 95.2855 123.711 95.1517 125.049C95.0849 125.717 94.9845 126.386 94.8842 127.055H94.8173Z" fill="#FAE543"/>
<g style="mix-blend-mode:multiply">
<path d="M95.085 116.822C95.0181 116.153 94.9178 115.484 94.8174 114.815C94.784 114.481 94.7171 114.146 94.6502 113.812C94.5165 113.143 94.3827 112.508 94.2489 111.839C94.182 111.504 94.0817 111.203 94.0148 110.869C93.7807 109.899 93.4797 108.963 93.1788 108.026C92.744 106.789 92.2758 105.551 91.7407 104.381C91.5735 103.98 91.3729 103.578 91.1722 103.211C90.8043 102.441 90.3696 101.672 89.9683 100.936C89.6338 100.368 89.2994 99.8328 88.965 99.2977C88.6306 98.7626 88.2627 98.2276 87.8614 97.6925C87.4935 97.1574 87.0922 96.6558 86.7243 96.1541C86.323 95.6525 85.9217 95.1508 85.487 94.6492C84.8516 93.9135 84.1827 93.2112 83.5138 92.5423C82.845 91.8735 82.1427 91.2046 81.407 90.5692C81.1394 90.3351 80.8719 90.1344 80.6043 89.9003C79.8017 89.2315 78.9656 88.5961 78.0961 87.9941C71.5748 83.4459 63.6489 80.7705 55.0876 80.7705C50.6397 80.7705 46.3925 81.4728 42.3794 82.8105C42.0116 82.9443 41.6771 83.0446 41.3092 83.1784C41.0083 83.2787 40.7407 83.4125 40.4398 83.5128C39.8712 83.7469 39.3027 83.981 38.7342 84.2151C38.4666 84.3489 38.1656 84.4492 37.8981 84.583C37.062 84.9843 36.2594 85.3856 35.4568 85.8538C33.0489 87.1915 30.8083 88.7633 28.7683 90.5692C28.0325 91.2046 27.3302 91.8735 26.6614 92.5423C26.327 92.8767 25.9925 93.2446 25.6581 93.579C25.3237 93.9469 25.0227 94.2813 24.6883 94.6492C24.2535 95.1508 23.8522 95.619 23.4509 96.1207C23.0496 96.6223 22.6817 97.1574 22.3139 97.659C21.946 98.1941 21.5781 98.7292 21.2102 99.2643C20.8758 99.7994 20.5414 100.368 20.207 100.903C19.7722 101.639 19.3709 102.408 19.003 103.177C18.8024 103.578 18.6352 103.946 18.4345 104.348C17.8994 105.518 17.4312 106.755 16.9965 107.993C15.6253 112.039 14.8896 116.387 14.8896 120.902C14.8896 125.416 15.6253 129.764 16.9965 133.811C17.4312 135.048 17.8994 136.285 18.4345 137.456C18.6017 137.857 18.8024 138.258 19.003 138.626C19.3709 139.362 19.7388 140.064 20.1401 140.767C20.1401 140.767 20.1735 140.867 20.207 140.9C20.5414 141.469 20.8758 142.004 21.2102 142.539C21.5447 143.074 21.9125 143.609 22.3139 144.144C22.6817 144.679 23.083 145.181 23.4509 145.683C23.8522 146.184 24.2535 146.686 24.6883 147.188C24.9893 147.555 25.3237 147.923 25.6581 148.258C25.9925 148.592 26.327 148.96 26.6614 149.294C27.3302 149.963 28.066 150.632 28.7683 151.268C30.2732 152.572 31.8784 153.776 33.5506 154.846C33.9853 155.113 34.3866 155.381 34.8214 155.615C35.2561 155.849 35.6909 156.117 36.1256 156.351C36.5604 156.585 37.0286 156.819 37.4634 157.02C41.5434 158.993 45.9912 160.331 50.7066 160.832C52.1447 160.999 53.5827 161.066 55.0542 161.066C61.3414 161.066 67.2942 159.628 72.5781 157.053C72.8457 156.919 73.1132 156.786 73.3807 156.652C74.9525 155.849 76.4574 154.946 77.8955 153.943C79.0994 153.107 80.2365 152.204 81.3401 151.268C82.0758 150.632 82.7781 149.963 83.447 149.294C84.1158 148.626 84.7847 147.89 85.4201 147.188C85.8548 146.686 86.2561 146.218 86.6575 145.716C87.0588 145.214 87.4266 144.679 87.7945 144.178C88.1624 143.643 88.5302 143.108 88.8981 142.572C89.2325 142.037 89.567 141.469 89.9014 140.934C90.3362 140.198 90.7375 139.429 91.1053 138.66C91.306 138.258 91.4732 137.891 91.6739 137.489C92.2089 136.319 92.6771 135.081 93.1119 133.844C93.4129 132.908 93.7139 131.971 93.948 131.001C94.0148 130.667 94.1152 130.366 94.1821 130.031C94.3158 129.396 94.4496 128.727 94.5833 128.058C94.6502 127.724 94.6837 127.39 94.7506 127.055C94.8509 126.386 94.9512 125.717 95.0181 125.049C95.1519 123.711 95.2188 122.34 95.2188 120.935C95.2188 119.531 95.1519 118.159 95.0181 116.822H95.085ZM82.6109 148.492C75.5545 155.548 65.8227 159.896 55.0542 159.896C53.7499 159.896 52.4456 159.829 51.1414 159.695C41.9447 158.792 33.6843 154.679 27.464 148.492C24.7551 145.783 22.4476 142.673 20.6083 139.262C17.6988 133.811 16.0266 127.557 16.0266 120.935C16.0266 110.167 20.3742 100.435 27.4306 93.3784C31.1761 89.6328 35.6574 86.6564 40.6404 84.6833C45.0883 82.9108 49.904 81.941 54.9873 81.941C63.4148 81.941 71.1735 84.6164 77.5611 89.1312C79.3335 90.402 81.0056 91.8066 82.544 93.3449C89.6004 100.401 93.948 110.133 93.948 120.902C93.948 131.67 89.6004 141.402 82.544 148.458L82.6109 148.492Z" fill="#F6F39E"/>
</g>
<g style="mix-blend-mode:multiply">
<path d="M91.6069 92.3408L66.4915 165.915C62.8463 166.851 59.0338 167.319 55.0876 167.319C54.2515 167.319 53.4489 167.319 52.6129 167.252L82.4437 83.4785C85.8883 85.9867 88.965 88.9631 91.6069 92.3074V92.3408Z" fill="#F6F39E"/>
</g>
<g style="mix-blend-mode:multiply">
<path d="M45.8909 75.4858L20.0063 151.3C19.6719 150.932 19.3709 150.531 19.0365 150.163C18.5014 149.494 17.9663 148.792 17.4312 148.09C15.0568 144.812 13.1172 141.201 11.6791 137.355L31.8116 80.8367C35.5572 78.6629 39.6372 76.9908 43.9847 75.9206C44.6201 75.7534 45.2555 75.6196 45.8909 75.4858Z" fill="#F6F39E"/>
</g>
<path d="M108.997 0.106934H88.7308L44.8541 73.3463H65.1203L108.997 0.106934Z" fill="#37A4ED"/>
</svg>
