<svg width="109" height="168" viewBox="0 0 109 168" fill="none" xmlns="http://www.w3.org/2000/svg">
<path d="M0.977331 0.107178H21.223L65.1101 73.3465H44.8387L0.977331 0.107178Z" fill="#004DE8"/>
<path d="M64.6985 79.5719V78.6201H45.4303C44.6843 78.6201 44.0154 78.3113 43.5267 77.8226C43.0379 77.3338 42.7292 76.6649 42.7292 75.9189C42.7292 75.1729 43.0379 74.504 43.5267 74.0153C44.0154 73.5265 44.6843 73.2178 45.4303 73.2178H64.6985C65.4445 73.2178 66.1133 73.5265 66.6021 74.0153C67.0909 74.504 67.3996 75.1729 67.3996 75.9189C67.3996 76.6649 67.0909 77.3338 66.6021 77.8226C66.1133 78.3113 65.4445 78.6201 64.6985 78.6201V80.498C67.2195 80.498 69.2775 78.44 69.2775 75.9189C69.2775 73.3979 67.2195 71.3398 64.6985 71.3398H45.4303C42.9092 71.3398 40.8512 73.3979 40.8512 75.9189C40.8512 78.44 42.9092 80.498 45.4303 80.498H64.6985V79.5462V79.5719Z" fill="#E0C64C"/>
<path d="M101.434 120.938C101.434 146.56 80.6737 167.32 55.0515 167.32C52.8135 167.32 50.6268 167.166 48.4916 166.857C47.4883 166.703 46.485 166.549 45.5075 166.343C34.883 164.13 25.622 158.265 19.0364 150.136C18.4962 149.467 17.956 148.772 17.4415 148.052C12.3222 140.952 9.13224 132.334 8.74637 122.996C8.74637 122.661 8.74634 122.327 8.72062 121.993C8.72062 121.632 8.72062 121.272 8.72062 120.938C8.72062 120.552 8.72062 120.14 8.72062 119.755C9.26084 98.5056 24.1042 80.781 43.9897 75.8932C45.7133 75.4559 47.5141 75.1472 49.3148 74.9157C51.2185 74.6842 53.1479 74.5555 55.103 74.5555C63.4893 74.5555 71.3612 76.7936 78.1784 80.6781C78.9244 81.1154 79.6447 81.5528 80.365 82.0158C93.099 90.2736 101.511 104.628 101.511 120.912L101.434 120.938Z" fill="#E0C64C"/>
<g style="mix-blend-mode:color-burn" opacity="0.82">
<path d="M55.386 114.995C54.9487 115.51 54.82 116.205 54.5885 116.822C52.762 122.79 51.9131 129.093 49.5979 134.907C47.6942 138.302 44.3757 140.695 41.0571 142.598C41.0057 142.598 41.0571 142.701 41.0828 142.676C42.4977 141.981 43.8355 141.158 45.096 140.232C46.9996 138.843 48.8261 137.222 50.0094 135.138C51.0127 132.977 51.6044 130.688 52.3247 128.424C52.8135 126.829 55.3088 118.623 55.7461 117.208C55.849 116.899 55.9262 116.59 56.0548 116.307C56.4921 116.77 56.9295 117.465 57.2639 117.902C57.727 118.52 58.19 119.163 58.7045 119.78C58.7302 119.806 58.7817 119.78 58.7817 119.755C58.5502 118.726 56.8781 113.838 55.386 115.021V114.995Z" fill="#726F14"/>
<path d="M55.3345 116.23C54.6142 115.613 53.2251 114.378 52.1961 114.969C52.0932 115.047 51.9902 115.175 51.9388 115.227C51.5015 115.947 51.3471 116.693 51.1413 117.49C49.958 122.275 49.3663 127.137 48.0286 131.871C47.5655 133.389 47.2569 135.035 46.3822 136.373C44.2728 138.842 41.6488 140.849 39.1277 142.881C39.0763 142.907 39.1277 142.984 39.1792 142.958C40.4911 142.007 41.8032 141.003 43.0894 139.974C44.6072 138.637 46.5108 137.453 47.3597 135.524C48.4402 132.848 49.0833 130.044 49.8808 127.292C50.9613 123.665 51.9388 119.96 53.0964 116.41C53.611 116.59 54.0997 116.976 54.5628 117.285C55.8748 118.159 57.161 119.291 58.5502 120.166C57.8041 118.725 56.5693 117.439 55.3603 116.281L55.3345 116.23Z" fill="#666300"/>
<path d="M82.1658 138.611C81.0854 137.891 80.0049 137.145 78.9759 136.347C77.4581 135.138 75.8632 133.981 74.8856 132.283C73.9338 130.585 74.294 130.996 73.5994 129.144C72.982 127.601 72.4418 125.877 71.207 124.591C70.7954 124.256 70.5639 124.205 70.178 123.999C69.5863 123.716 68.9946 123.433 68.3772 123.15C65.959 122.096 63.4894 121.067 60.8912 120.578C61.8687 121.427 63.155 122.044 64.2612 122.713C66.1648 123.793 68.2743 124.642 70.178 125.697C72.6733 128.553 72.8019 130.276 75.0142 133.389C76.9951 135.627 79.5933 137.145 82.1144 138.688C82.1658 138.714 82.1915 138.637 82.1658 138.611Z" fill="#726F14"/>
<path d="M52.5819 125.079C52.5819 125.079 52.4018 125.337 52.0417 125.774C51.9645 125.851 51.8873 125.954 51.8101 126.057C51.7587 126.108 51.733 126.16 51.6815 126.211C51.3214 126.649 50.8326 127.163 50.2409 127.703C50.1895 127.755 50.138 127.806 50.0865 127.858C49.7264 128.166 49.3405 128.501 48.9289 128.835C48.5945 129.093 48.2343 129.35 47.8485 129.607C47.7713 129.659 47.7199 129.71 47.6427 129.736C47.5912 129.761 47.5398 129.813 47.4626 129.839C46.768 130.302 45.9963 130.739 45.1731 131.099C45.0959 131.125 45.0187 131.176 44.9415 131.202C44.6585 131.331 44.3756 131.434 44.0669 131.562C43.8096 131.665 43.5524 131.742 43.2951 131.819C42.8321 131.974 42.369 132.102 41.906 132.205C41.1085 132.385 40.3367 132.488 39.5907 132.54C39.4878 132.54 39.3849 132.54 39.282 132.54C37.9958 132.617 36.8124 132.54 35.7577 132.36C35.6548 132.36 35.5519 132.334 35.449 132.308C34.4715 132.128 33.5711 131.871 32.7993 131.562C32.645 131.511 32.5164 131.459 32.3877 131.408C30.767 130.739 29.738 129.941 29.5322 129.556C29.1206 128.861 28.8634 127.395 30.5355 125.362C30.5355 125.362 30.7156 125.157 30.8185 125.028C31.3072 124.488 31.9247 123.922 32.6964 123.304C32.7479 123.253 32.7993 123.227 32.8508 123.176C32.8508 123.176 33.0308 123.047 33.108 122.97C34.1113 122.224 35.166 121.581 36.2465 121.066C36.3237 121.041 36.4008 120.989 36.5037 120.963C37.8414 120.346 39.2049 119.857 40.5683 119.549C40.6455 119.549 40.7484 119.497 40.8256 119.497C41.8288 119.291 42.8321 119.163 43.8097 119.111C43.8868 119.111 43.964 119.111 44.0669 119.111C44.7872 119.111 45.5075 119.111 46.2021 119.214C46.2793 119.214 46.3564 119.214 46.4336 119.24C47.2825 119.343 48.08 119.523 48.826 119.78C48.9032 119.78 48.9547 119.832 49.0319 119.857C49.392 119.986 49.7521 120.14 50.1123 120.32C50.1895 120.346 50.2666 120.397 50.3438 120.449C53.8167 122.25 52.5819 125.028 52.5819 125.028V125.079Z" fill="#C2A982"/>
<g style="mix-blend-mode:multiply">
<path d="M30.5356 125.44C30.5356 125.44 30.7157 125.234 30.8186 125.105C30.8186 125.208 30.7671 125.285 30.7671 125.388C30.5613 126.417 30.4841 127.704 30.8957 128.733C31.3845 129.916 32.182 130.945 32.7994 131.614C32.6451 131.562 32.5165 131.511 32.3878 131.459C31.7962 130.765 31.1273 129.839 30.69 128.81C30.2526 127.729 30.3298 126.443 30.5356 125.414V125.44Z" fill="#B8996C"/>
<path d="M33.2881 128.064C33.3653 128.321 33.4682 128.578 33.5711 128.81C34.2143 130.405 35.2432 131.768 35.7834 132.463C35.6805 132.463 35.5777 132.437 35.4748 132.411C34.9088 131.691 33.9827 130.379 33.391 128.913C33.2881 128.655 33.1853 128.398 33.1081 128.141C32.4392 126.083 32.6193 124.359 32.8766 123.305C32.8766 123.305 33.0566 123.176 33.1338 123.099C33.0823 123.33 33.0052 123.588 32.9537 123.871C32.7737 124.9 32.7479 126.366 33.2881 128.064Z" fill="#B8996C"/>
<path d="M36.5038 121.066C36.5038 121.066 36.5038 121.092 36.5038 121.118C36.4009 121.504 36.2466 122.07 36.1437 122.687C35.9122 123.973 35.7835 125.62 36.2209 127.06C36.3752 127.549 36.5296 128.038 36.7097 128.449C37.2756 129.839 37.9702 130.868 38.5876 131.588C38.9735 132.025 39.3336 132.36 39.6166 132.591C39.5137 132.591 39.4108 132.591 39.3079 132.591C39.0507 132.36 38.7419 132.077 38.4332 131.717C37.7901 130.971 37.0955 129.916 36.5038 128.501C36.3237 128.064 36.1437 127.601 36.0151 127.086C35.372 124.925 35.9121 122.378 36.2723 121.144C36.3495 121.118 36.4267 121.066 36.5296 121.041L36.5038 121.066Z" fill="#B8996C"/>
<path d="M40.697 126.109C41.8546 128.938 44.1699 130.559 45.1732 131.177C45.096 131.202 45.0188 131.254 44.9416 131.279C43.8612 130.611 41.6488 128.964 40.4912 126.186C39.2564 123.099 40.0024 120.758 40.5684 119.652C40.6456 119.652 40.7485 119.6 40.8257 119.6C40.6456 119.935 40.4397 120.398 40.2854 120.964C40.131 121.581 40.0025 122.327 40.0282 123.176C40.0539 124.025 40.2597 125.002 40.6713 126.057L40.697 126.109Z" fill="#B8996C"/>
<path d="M46.4337 128.604C46.8968 129.093 47.3855 129.453 47.8486 129.633C47.7714 129.684 47.72 129.736 47.6428 129.761C47.1798 129.556 46.7167 129.196 46.2794 128.732C45.4047 127.806 44.5815 126.391 43.8355 124.591L43.7069 124.282C42.9608 122.378 43.0894 120.963 43.4239 119.986C43.5525 119.651 43.6812 119.369 43.8098 119.163C43.887 119.163 43.9641 119.163 44.067 119.163C43.9126 119.394 43.7583 119.677 43.6297 120.063C43.321 120.989 43.1923 122.353 43.9126 124.205L44.0413 124.514C44.7616 126.289 45.5848 127.678 46.4337 128.578V128.604Z" fill="#B8996C"/>
<path d="M50.2153 127.729C50.2153 127.729 50.1124 127.832 50.0609 127.884C49.3149 127.472 47.4627 126.263 46.4079 123.716C46.2279 123.253 46.0478 122.739 45.9192 122.198C45.6362 120.938 45.8163 119.986 46.2022 119.317C46.2793 119.317 46.3565 119.317 46.4337 119.343C46.0478 119.986 45.842 120.886 46.125 122.173C46.2536 122.713 46.408 123.202 46.588 123.665C47.6428 126.237 49.5464 127.421 50.2153 127.755V127.729Z" fill="#B8996C"/>
<path d="M51.8102 126.083C51.8102 126.083 51.7331 126.186 51.6816 126.237C51.4758 126.109 51.2186 125.929 50.9613 125.748C50.1638 125.157 49.2892 124.334 48.8776 123.356C48.8519 123.279 48.8261 123.202 48.8003 123.125C48.2858 121.53 48.5689 120.449 48.8518 119.857C48.929 119.857 48.9804 119.909 49.0576 119.935C49.0062 120.063 48.929 120.192 48.8776 120.372C48.6975 120.964 48.6203 121.838 49.0062 123.047C49.0062 123.125 49.0576 123.202 49.0834 123.279C49.5721 124.514 50.9613 125.543 51.836 126.083H51.8102Z" fill="#B8996C"/>
</g>
<g style="mix-blend-mode:screen" opacity="0.53">
<path d="M57.2896 119.317L56.8008 119.086C56.8008 119.086 53.6881 115.999 52.1703 113.966C50.3953 111.6 47.6684 107.715 47.797 103.445C47.8485 101.49 48.5688 99.303 49.5463 97.4508C49.5463 97.4508 49.5464 97.3993 49.5721 97.3736C49.8808 96.7819 50.2152 96.2417 50.5753 95.7272C50.5753 95.7272 50.5753 95.7014 50.6011 95.6757C51.0898 94.9811 51.5787 94.3637 52.0932 93.875C52.1961 93.7721 52.2732 93.6949 52.3761 93.6177C52.4018 93.592 52.4276 93.5663 52.4533 93.5405C54.2283 91.997 54.7428 92.8717 54.9744 94.3895C55.1802 95.8815 55.386 97.2964 55.5403 98.6341C55.566 98.8914 55.6174 99.1486 55.6432 99.4059C55.6432 99.4059 55.6432 99.4059 55.6432 99.4316C55.8747 101.284 56.0805 103.007 56.2606 104.602C56.2606 104.602 56.2606 104.705 56.2606 104.757C56.3635 105.734 56.4664 106.66 56.5436 107.509C56.5436 107.561 56.5436 107.612 56.5436 107.638C57.2896 115.561 57.2382 119.266 57.2382 119.266L57.2896 119.317Z" fill="#FFBB00"/>
</g>
<g style="mix-blend-mode:multiply" opacity="0.39">
<path d="M56.5951 107.664C56.3635 107.175 56.132 106.712 55.9004 106.223C54.8714 104.139 53.8167 102.056 52.5305 100.126C51.9645 99.3544 50.704 97.5022 49.5463 97.3993C49.5463 97.3993 49.5464 97.3479 49.5721 97.3221C50.4982 97.3736 51.5529 98.6084 52.0674 99.2258C53.9454 101.747 55.2573 104.654 56.5693 107.509C56.5693 107.561 56.5693 107.612 56.5693 107.638L56.5951 107.664Z" fill="#868336"/>
</g>
<g style="mix-blend-mode:multiply" opacity="0.39">
<path d="M56.2863 104.757C55.3859 102.081 54.2026 99.4572 52.5819 97.1419C51.9388 96.2158 51.6301 95.5727 50.5753 95.7013C50.5753 95.7013 50.5754 95.6756 50.6011 95.6499C51.6301 95.4441 52.0674 96.1901 52.7106 97.039C54.3055 99.3286 55.4374 101.927 56.2606 104.602C56.2606 104.602 56.2606 104.705 56.2606 104.757H56.2863Z" fill="#868336"/>
</g>
<g style="mix-blend-mode:multiply" opacity="0.39">
<path d="M55.6689 99.4059C55.103 97.0135 54.1254 94.0551 52.4019 93.5921C52.4276 93.5663 52.4533 93.5406 52.479 93.5149C54.0997 93.875 55.0258 96.3447 55.566 98.6085C55.5917 98.8657 55.6432 99.123 55.6689 99.3802V99.4059Z" fill="#868336"/>
</g>
<g style="mix-blend-mode:multiply" opacity="0.45">
<path d="M52.5819 125.079C52.5819 125.079 52.4018 125.337 52.0417 125.774C51.9131 125.671 51.7587 125.517 51.5529 125.337C51.5014 125.285 50.9613 126.288 49.5207 128.089C49.3406 128.321 49.109 128.578 48.9032 128.835C48.5688 129.092 48.2087 129.35 47.8228 129.607C47.7456 129.658 47.6941 129.71 47.617 129.736C47.5655 129.761 47.514 129.813 47.4369 129.838C47.9514 129.067 48.5431 128.192 49.0833 127.343C50.0351 125.851 50.6782 124.436 50.6525 124.385C50.5496 124.256 50.421 124.128 50.2666 123.896C50.2152 123.819 46.1249 129.247 44.0669 131.562C43.8096 131.665 43.5524 131.742 43.2952 131.819C44.6843 129.504 49.7265 122.893 49.675 122.713C49.392 121.812 49.8036 120.835 50.0865 120.32C50.1637 120.346 50.241 120.397 50.3181 120.449C53.791 122.25 52.5562 125.028 52.5562 125.028L52.5819 125.079Z" fill="#B8996C"/>
</g>
<path d="M61.5856 122.97C61.4827 123.665 61.0455 124.359 60.0422 124.951C59.9907 124.977 59.9136 125.028 59.8621 125.054C59.4248 125.285 58.9102 125.517 58.2928 125.723C58.2157 125.748 58.1385 125.774 58.0613 125.8C54.6656 126.88 52.8134 126.057 51.8101 125.054C51.1156 124.333 50.8325 123.536 50.7296 123.227C50.7296 123.227 50.7296 123.202 50.7296 123.176C50.138 121.015 50.2666 120.372 53.1736 119.086C56.0805 117.799 59.4762 118.957 60.1194 119.574C60.5052 119.96 61.8686 121.426 61.6114 122.944L61.5856 122.97Z" fill="#C2A982"/>
<g style="mix-blend-mode:multiply" opacity="0.45">
<path d="M55.0001 123.021L59.8621 125.079C59.4248 125.311 58.9103 125.543 58.2929 125.748C58.2157 125.774 58.1385 125.8 58.0613 125.825L55.0001 122.996V123.021Z" fill="#CAB492"/>
</g>
<g style="mix-blend-mode:multiply" opacity="0.45">
<path d="M61.5857 122.97C61.4828 123.665 61.0455 124.359 60.0422 124.951C60.1709 124.565 60.2223 124.05 59.9393 123.536C59.3734 122.481 59.785 119.677 59.785 119.677L61.5857 122.97Z" fill="#CAB492"/>
</g>
<path d="M64.1325 125.028C66.6046 125.028 68.6087 123.024 68.6087 120.552C68.6087 118.08 66.6046 116.076 64.1325 116.076C61.6604 116.076 59.6563 118.08 59.6563 120.552C59.6563 123.024 61.6604 125.028 64.1325 125.028Z" fill="#CBB594"/>
<path d="M63.8752 121.555C64.7561 121.555 65.4702 120.841 65.4702 119.96C65.4702 119.079 64.7561 118.365 63.8752 118.365C62.9944 118.365 62.2803 119.079 62.2803 119.96C62.2803 120.841 62.9944 121.555 63.8752 121.555Z" fill="#B8996C"/>
<path d="M68.9688 118.339C69.2775 119.085 69.046 119.703 68.4029 119.986C67.5797 120.32 67.3224 119.909 67.0137 119.163C66.705 118.416 66.6793 117.722 67.1938 117.49C68.0427 117.13 68.6601 117.593 68.9688 118.339Z" fill="#B8996C"/>
<path d="M67.3738 121.478L89.909 128.681L67.271 123.253C67.271 123.253 66.1648 122.173 67.3996 121.478H67.3738Z" fill="#CBB594"/>
<g style="mix-blend-mode:screen" opacity="0.53">
<path d="M55.2574 119.343L54.5371 119.471C54.5371 119.471 48.8004 118.545 45.5847 117.568C41.8289 116.41 35.8864 114.326 32.6965 109.618C31.2302 107.458 30.3298 104.576 29.9182 101.798C29.9182 101.772 29.9182 101.721 29.9182 101.695C29.7895 100.82 29.7381 99.9716 29.7124 99.1484C29.7124 99.1226 29.7124 99.0969 29.7124 99.0712C29.7124 97.9393 29.7638 96.8845 29.9182 95.9842C29.9439 95.8041 29.9696 95.6497 30.0211 95.4954C30.0211 95.4439 30.0211 95.3925 30.0468 95.341C30.7414 92.3055 32.0019 92.8457 33.4168 94.312C34.806 95.7526 36.1179 97.1418 37.3527 98.4538C37.5843 98.711 37.8415 98.9683 38.073 99.1998C39.7709 101.026 41.3144 102.724 42.755 104.293C42.755 104.293 42.8322 104.396 42.8836 104.448C43.7583 105.4 44.5558 106.326 45.3275 107.2C45.3533 107.252 45.4047 107.303 45.4561 107.329C52.4276 115.252 55.2574 119.317 55.2574 119.317V119.343Z" fill="#FFBB00"/>
</g>
<g style="mix-blend-mode:multiply" opacity="0.39">
<path d="M45.4561 107.355C44.8387 107.02 44.2213 106.686 43.6039 106.352C40.8771 104.911 38.1245 103.47 35.2433 102.416C34.0342 102.03 31.2301 101.001 29.9182 101.798C29.9182 101.772 29.9182 101.721 29.9182 101.695C30.9729 101.026 33.0567 101.567 34.0599 101.798C38.0473 103.059 41.7003 105.168 45.3532 107.2C45.3789 107.252 45.4304 107.303 45.4819 107.329L45.4561 107.355Z" fill="#868336"/>
</g>
<g style="mix-blend-mode:multiply" opacity="0.39">
<path d="M42.8836 104.474C39.8481 102.287 36.5295 100.383 32.9795 99.1485C31.5646 98.6598 30.7414 98.2224 29.6866 99.1485C29.6866 99.1228 29.6866 99.0971 29.6866 99.0714C30.6385 98.0681 31.6932 98.5054 33.031 98.9427C36.5296 100.178 39.7452 102.107 42.7293 104.319C42.7293 104.319 42.8064 104.422 42.8579 104.474H42.8836Z" fill="#868336"/>
</g>
<g style="mix-blend-mode:multiply" opacity="0.39">
<path d="M38.0473 99.2C35.6034 97.0648 32.2334 94.6466 29.9953 95.4956C29.9953 95.4441 29.9954 95.3927 30.0211 95.3412C32.0276 94.4666 34.9603 96.4217 37.3013 98.4282C37.5329 98.6855 37.7901 98.9427 38.0216 99.1743L38.0473 99.2Z" fill="#868336"/>
</g>
<g style="mix-blend-mode:multiply" opacity="0.45">
<path d="M53.8167 122.584C53.8167 122.584 52.5304 123.973 52.2732 124.282C52.0674 124.513 51.8873 124.951 51.8102 125.105C51.1156 124.385 50.8326 123.587 50.7297 123.279C51.167 122.918 52.0674 122.507 52.0674 122.507L52.4019 122.738C52.4019 122.738 51.3471 123.664 51.4243 123.87C51.5015 124.076 53.3537 122.764 53.611 122.481L53.8167 122.584Z" fill="#CAB492"/>
</g>
<path d="M52.402 122.713C51.5788 121.143 50.2668 119.754 48.9805 118.468C48.2088 117.774 46.3565 116.024 45.3533 117.13C44.8645 117.876 44.7616 118.725 44.5301 119.549C43.0895 126.057 42.7808 132.797 40.3883 139.048C39.2564 140.9 37.5329 142.392 35.9894 143.936C34.7031 145.171 33.4168 146.38 32.0791 147.563C32.0276 147.589 32.0791 147.666 32.1306 147.615C33.494 146.457 34.8317 145.299 36.1437 144.09C37.7387 142.547 39.5651 141.132 40.7742 139.203C42.0347 136.321 42.5492 133.209 43.3467 130.173C44.3757 126.237 45.3275 122.095 46.408 118.288C46.9739 118.52 47.5914 119.008 48.1316 119.368C49.5465 120.372 50.8842 121.632 52.3762 122.636L52.402 122.713Z" fill="#726F14"/>
<path d="M52.9422 120.218C52.5306 119.446 51.5273 117.259 50.3954 118.005C50.2154 118.159 50.2154 118.211 50.1639 118.288C49.8295 118.931 49.6237 119.6 49.4179 120.295C48.2345 124.231 47.4628 128.269 46.3823 132.231C45.6877 134.546 45.199 137.016 44.0413 139.151C41.9061 142.624 38.6647 145.325 35.3205 147.589C35.269 147.615 35.3205 147.692 35.372 147.666C36.7869 146.817 38.1246 145.84 39.3851 144.811C41.2887 143.241 43.1152 141.492 44.4529 139.383C45.6877 137.222 46.2279 134.752 46.9997 132.411C47.5142 130.739 50.1381 122.147 50.6012 120.655C50.7555 120.192 50.8842 119.729 51.0642 119.291C52.0675 120.269 52.8135 121.555 53.7911 122.61C53.8168 122.636 53.8683 122.61 53.8683 122.584C53.6625 121.761 53.3538 120.989 52.9936 120.243L52.9422 120.218Z" fill="#868336"/>
<path d="M78.5129 144.348C77.3553 143.602 76.2234 142.804 75.1172 141.955C73.5222 140.669 71.7986 139.46 70.7696 137.659C69.7664 135.858 68.9947 133.929 68.2486 131.974C67.5798 130.353 67.0138 128.527 65.7018 127.163C65.2902 126.803 65.033 126.752 64.6214 126.52C63.9783 126.212 63.3608 125.903 62.7177 125.62C60.1709 124.488 57.547 123.382 54.7944 122.842C55.8491 123.716 57.1868 124.385 58.3959 125.08C60.4282 126.237 62.6662 127.112 64.6728 128.244C67.3225 131.279 68.583 135.473 70.924 138.791C73.0077 141.158 75.7861 142.779 78.4357 144.425C78.4872 144.451 78.5129 144.373 78.4872 144.348H78.5129Z" fill="#868336"/>
</g>
<g style="mix-blend-mode:soft-light" opacity="0.33">
<path d="M80.3135 82.0158L79.4389 84.3054L78.0755 87.9326L77.6124 89.1674L51.167 159.706L50.704 160.915L49.3406 164.542L48.4659 166.857C47.4626 166.703 46.4594 166.549 45.4818 166.343C34.8573 164.13 25.5963 158.265 19.0107 150.136C18.4704 149.467 17.9302 148.772 17.4157 148.052L18.4189 145.3L20.0654 140.823L20.6313 139.254L40.6969 84.6912L41.2628 83.122L42.9093 78.6458L43.9125 75.8932C45.6361 75.4559 47.4369 75.1472 49.2376 74.9157C51.1413 74.6842 53.0707 74.5555 55.0258 74.5555C63.4122 74.5555 71.2841 76.7936 78.1012 80.6781C78.8472 81.1154 79.5676 81.5528 80.2879 82.0158H80.3135Z" fill="#FBFFD1"/>
</g>
<path d="M86.1532 89.8364C84.0952 87.7784 81.857 85.9519 79.4389 84.3312C72.4674 79.675 64.0811 76.9481 55.0515 76.9481C50.8584 76.9481 46.7937 77.5398 42.935 78.646C41.2371 79.1348 39.565 79.7264 37.9444 80.3953C32.6707 82.6076 27.9373 85.849 23.9499 89.8107C16.0009 97.7597 11.0616 108.77 11.0616 120.912C11.0616 129.916 13.7627 138.302 18.4189 145.274C20.0396 147.692 21.8919 149.956 23.9499 152.014C30.6384 158.702 39.4879 163.256 49.3406 164.542C51.2185 164.799 53.1222 164.902 55.0515 164.902C67.1938 164.902 78.2041 159.963 86.1532 152.014C94.1022 144.065 99.0415 133.055 99.0415 120.912C99.0415 108.77 94.128 97.7597 86.1532 89.8107V89.8364ZM94.8225 127.061C94.7711 127.395 94.7196 127.729 94.6682 128.064C94.5396 128.733 94.4109 129.376 94.2566 130.019C94.1794 130.353 94.1022 130.662 94.025 130.997C93.7935 131.948 93.5105 132.9 93.1761 133.852C92.7645 135.087 92.2757 136.322 91.7355 137.505C91.5554 137.891 91.3753 138.302 91.1695 138.688C90.7836 139.46 90.372 140.232 89.9604 140.978C89.6517 141.544 89.2916 142.084 88.9572 142.624C88.5971 143.165 88.2369 143.705 87.8767 144.245C87.5166 144.759 87.1307 145.274 86.7191 145.788C86.3333 146.303 85.9217 146.792 85.51 147.281C84.8669 148.001 84.2238 148.721 83.5549 149.39C82.8603 150.085 82.1657 150.728 81.4454 151.371C80.3393 152.323 79.1816 153.223 77.9983 154.046C76.5577 155.05 75.0657 155.95 73.4707 156.747C73.2135 156.876 72.9305 157.005 72.6733 157.159C67.3739 159.731 61.4314 161.172 55.1287 161.172C53.6624 161.172 52.196 161.095 50.7812 160.941C46.0735 160.426 41.623 159.114 37.5584 157.133C37.0954 156.902 36.6581 156.696 36.2208 156.439C35.7834 156.207 35.3461 155.95 34.9087 155.718C34.4714 155.461 34.0598 155.204 33.6225 154.947C31.9246 153.866 30.3297 152.683 28.8119 151.371C28.0916 150.728 27.3713 150.085 26.7024 149.39C26.368 149.056 26.0336 148.695 25.6992 148.361C25.3648 148.001 25.0561 147.641 24.7216 147.281C24.31 146.792 23.8984 146.303 23.5125 145.788C23.1267 145.274 22.7408 144.759 22.3549 144.245C21.969 143.705 21.6089 143.19 21.2745 142.624C20.9401 142.084 20.5799 141.518 20.2712 140.978C20.2454 140.926 20.2197 140.875 20.194 140.824C19.7824 140.103 19.4222 139.409 19.0621 138.663C18.8563 138.277 18.6762 137.891 18.4961 137.479C17.9559 136.296 17.4671 135.061 17.0555 133.826C15.6921 129.787 14.9461 125.44 14.9461 120.938C14.9461 116.436 15.6921 112.089 17.0555 108.05C17.4671 106.815 17.9559 105.58 18.4961 104.397C18.6762 104.011 18.8563 103.599 19.0621 103.213C19.448 102.442 19.8596 101.67 20.2712 100.924C20.5799 100.358 20.9401 99.8177 21.2745 99.2775C21.6346 98.7373 21.9947 98.197 22.3549 97.6568C22.715 97.1423 23.1009 96.6278 23.5125 96.1133C23.8984 95.5988 24.31 95.11 24.7216 94.6213C25.0303 94.2611 25.3648 93.901 25.6992 93.5408C26.0336 93.1807 26.368 92.8462 26.7024 92.5118C27.397 91.8172 28.0916 91.1741 28.8119 90.531C30.8699 88.7559 33.1338 87.161 35.5262 85.8233C36.3237 85.386 37.1468 84.9486 37.97 84.5627C38.253 84.4341 38.536 84.3055 38.819 84.1769C39.385 83.9196 39.9509 83.6881 40.5169 83.4566C40.7999 83.3537 41.0828 83.225 41.3915 83.1221C41.7517 82.9935 42.1118 82.8649 42.4719 82.7363C46.4593 81.3986 50.7297 80.704 55.1544 80.704C63.7208 80.704 71.6442 83.3794 78.1784 87.9327C79.0273 88.5244 79.8762 89.1675 80.6737 89.8364C80.931 90.0679 81.2139 90.2737 81.4712 90.5052C82.1915 91.1484 82.9118 91.7915 83.5807 92.4861C84.2752 93.1807 84.9184 93.8752 85.5358 94.5955C85.9474 95.0843 86.3589 95.5731 86.7448 96.0876C87.1307 96.6021 87.5166 97.1166 87.9025 97.6311C88.2883 98.1713 88.6485 98.6858 88.983 99.2518C89.3174 99.792 89.6775 100.358 89.9862 100.898C90.4235 101.644 90.8094 102.416 91.1953 103.188C91.4011 103.574 91.5812 103.959 91.7612 104.371C92.3015 105.554 92.7902 106.789 93.2018 108.024C93.5105 108.95 93.7935 109.902 94.0508 110.88C94.128 111.214 94.2051 111.523 94.2823 111.857C94.4367 112.5 94.5653 113.169 94.6939 113.812C94.7454 114.147 94.7968 114.481 94.8483 114.815C94.9512 115.484 95.0283 116.153 95.1055 116.822C95.2341 118.185 95.3113 119.549 95.3113 120.938C95.3113 122.327 95.2341 123.691 95.1055 125.054C95.0283 125.723 94.9512 126.392 94.8483 127.061H94.8225Z" fill="#FAE543"/>
<g style="mix-blend-mode:multiply">
<path d="M95.0798 116.822C95.0026 116.153 94.9254 115.484 94.8225 114.815C94.7711 114.481 94.7196 114.146 94.6682 113.812C94.5396 113.143 94.4109 112.5 94.2566 111.857C94.1794 111.523 94.1022 111.214 94.025 110.879C93.7678 109.928 93.4848 108.976 93.1761 108.024C92.7388 106.789 92.2757 105.554 91.7355 104.371C91.5554 103.985 91.3753 103.573 91.1695 103.188C90.7836 102.416 90.372 101.644 89.9604 100.898C89.6517 100.332 89.2916 99.7919 88.9572 99.2517C88.5971 98.7114 88.2369 98.1712 87.8767 97.631C87.5166 97.1165 87.1307 96.602 86.7191 96.0875C86.3333 95.573 85.9217 95.0842 85.51 94.5954C84.8669 93.8751 84.2237 93.1548 83.5292 92.486C82.8346 91.7914 82.1401 91.1483 81.4198 90.5051C81.1625 90.2736 80.9053 90.0421 80.6223 89.8363C79.8248 89.1674 78.9759 88.55 78.127 87.9326C71.6185 83.3793 63.6694 80.7039 55.103 80.7039C50.6782 80.7039 46.4079 81.4242 42.4205 82.7361C42.0604 82.8648 41.7002 82.9677 41.34 83.0963C41.057 83.1992 40.7741 83.3278 40.4654 83.4307C39.8994 83.6622 39.3077 83.8938 38.7675 84.151C38.4845 84.2796 38.2016 84.4083 37.9186 84.5369C37.0954 84.9228 36.2722 85.3601 35.4747 85.7974C33.0823 87.1351 30.8442 88.7301 28.7605 90.5051C28.0402 91.1483 27.3199 91.7914 26.651 92.486C26.3166 92.8204 25.9821 93.1805 25.6477 93.515C25.3133 93.8751 25.0046 94.2353 24.6702 94.5954C24.2586 95.0842 23.847 95.573 23.4611 96.0875C23.0752 96.602 22.6893 97.1165 22.3035 97.631C21.9176 98.1712 21.5575 98.6857 21.2231 99.2517C20.8886 99.7919 20.5284 100.358 20.2197 100.898C19.7824 101.644 19.3965 102.416 19.0107 103.188C18.8049 103.573 18.6248 103.959 18.4447 104.371C17.9045 105.554 17.4414 106.789 17.0041 108.024C15.6407 112.063 14.8946 116.41 14.8946 120.912C14.8946 125.414 15.6407 129.762 17.0041 133.8C17.4414 135.035 17.9045 136.27 18.4447 137.453C18.6248 137.839 18.8049 138.251 19.0107 138.637C19.3708 139.357 19.7567 140.077 20.1426 140.772C20.1426 140.772 20.194 140.875 20.2197 140.926C20.5284 141.492 20.8886 142.032 21.2231 142.573C21.5832 143.113 21.9433 143.653 22.3035 144.193C22.6636 144.708 23.0495 145.222 23.4611 145.737C23.847 146.251 24.2586 146.74 24.6702 147.229C24.9789 147.589 25.3133 147.949 25.6477 148.309C25.9821 148.67 26.3166 149.004 26.651 149.338C27.3456 150.033 28.0402 150.676 28.7605 151.319C30.2783 152.631 31.8732 153.815 33.5711 154.895C34.0084 155.152 34.42 155.435 34.8573 155.667C35.2947 155.924 35.732 156.156 36.1693 156.387C36.6067 156.619 37.0697 156.85 37.507 157.082C41.5716 159.063 46.0477 160.374 50.7297 160.889C52.1703 161.043 53.6109 161.121 55.0772 161.121C61.3541 161.121 67.3224 159.68 72.6217 157.107C72.879 156.979 73.162 156.85 73.4192 156.696C74.9885 155.898 76.5063 154.998 77.9469 153.995C79.1559 153.171 80.3136 152.271 81.394 151.319C82.1143 150.676 82.8346 150.033 83.5035 149.338C84.1981 148.644 84.8412 147.949 85.4843 147.229C85.8959 146.74 86.3075 146.251 86.6934 145.737C87.0793 145.222 87.4652 144.708 87.851 144.193C88.2369 143.653 88.597 143.139 88.9315 142.573C89.2659 142.032 89.6261 141.467 89.9348 140.926C90.3721 140.18 90.758 139.409 91.1439 138.637C91.3497 138.251 91.5297 137.865 91.7098 137.453C92.25 136.27 92.7131 135.035 93.1504 133.8C93.4591 132.874 93.742 131.923 93.9993 130.945C94.0765 130.611 94.1536 130.302 94.2308 129.967C94.3852 129.324 94.5138 128.655 94.6424 128.012C94.6939 127.678 94.7453 127.343 94.7968 127.009C94.8997 126.34 94.9769 125.671 95.054 125.002C95.1827 123.639 95.2599 122.276 95.2599 120.886C95.2599 119.497 95.1827 118.134 95.054 116.77L95.0798 116.822ZM82.6031 148.489C75.5544 155.538 65.8046 159.911 55.0515 159.911C53.7396 159.911 52.4276 159.86 51.167 159.706C41.9574 158.78 33.6997 154.664 27.4999 148.489C24.7988 145.788 22.4836 142.676 20.6571 139.254C17.7502 133.8 16.078 127.549 16.078 120.938C16.078 110.185 20.4255 100.435 27.4999 93.3863C31.23 89.6562 35.7063 86.6721 40.7226 84.6913C45.1731 82.9162 50.0094 81.9644 55.0772 81.9644C63.4893 81.9644 71.2584 84.6141 77.6382 89.1674C79.4132 90.4279 81.0853 91.8428 82.6289 93.3863C89.6775 100.435 94.0508 110.185 94.0508 120.938C94.0508 131.691 89.7033 141.441 82.6289 148.489H82.6031Z" fill="#F6F39E"/>
</g>
<path d="M108.997 0.107178H88.7258L44.8645 73.3465H65.1102L108.997 0.107178Z" fill="#2164EB"/>
</svg>
