<svg width="109" height="168" viewBox="0 0 109 168" fill="none" xmlns="http://www.w3.org/2000/svg">
<path d="M0.977295 0.106934H21.2456L65.1001 73.372H44.8575L0.977295 0.106934Z" fill="#6200D1"/>
<path d="M64.6887 79.596V78.6443H45.4236C44.6777 78.6443 44.0089 78.3357 43.5202 77.847C43.0315 77.3583 42.7228 76.6895 42.7228 75.9436C42.7228 75.1977 43.0315 74.5289 43.5202 74.0402C44.0089 73.5515 44.6777 73.2429 45.4236 73.2429H64.6887C65.4346 73.2429 66.1034 73.5515 66.5921 74.0402C67.0808 74.5289 67.3895 75.1977 67.3895 75.9436C67.3895 76.6895 67.0808 77.3583 66.5921 77.847C66.1034 78.3357 65.4346 78.6443 64.6887 78.6443V80.522C67.2094 80.522 69.267 78.4643 69.267 75.9436C69.267 73.4229 67.2094 71.3652 64.6887 71.3652H45.4236C42.9029 71.3652 40.8452 73.4229 40.8452 75.9436C40.8452 78.4643 42.9029 80.522 45.4236 80.522H64.6887V79.5703V79.596Z" fill="#E0C64C"/>
<path d="M101.444 120.938C101.444 146.56 80.687 167.32 55.0688 167.32C52.831 167.32 50.6447 167.166 48.5099 166.857C47.5067 166.702 46.5036 166.548 45.5262 166.342C34.9034 164.13 25.6438 158.265 19.0592 150.136C18.519 149.467 17.9789 148.772 17.4645 148.052C12.346 140.952 9.15652 132.334 8.7707 122.996C8.7707 122.661 8.77072 122.327 8.745 121.992C8.745 121.632 8.745 121.272 8.745 120.938C8.745 120.552 8.745 120.14 8.745 119.754C9.28514 98.5052 24.1262 80.7806 44.0087 75.8929C45.732 75.4556 47.5325 75.1469 49.333 74.9153C51.2363 74.6838 53.1654 74.5552 55.1202 74.5552C63.5053 74.5552 71.3759 76.7933 78.192 80.6777C78.9379 81.1151 79.6582 81.5524 80.3783 82.0155C93.1103 90.2732 101.521 104.628 101.521 120.912L101.444 120.938Z" fill="#E0C64C"/>
<path d="M76.9323 146.2C74.2573 148.155 71.5566 149.21 69.8332 149.698C69.113 149.904 68.5729 150.007 68.2385 150.007C68.2385 150.007 64.6633 151.088 61.3453 150.29C60.908 150.187 60.4708 150.059 60.0592 149.879C60.0592 149.879 54.8121 153.557 49.2049 150.084C48.9477 150.136 45.6811 150.83 42.7232 149.853C42.4402 149.75 41.7458 149.621 40.8198 149.287C40.5626 149.338 40.2025 149.39 39.7653 149.415C37.9648 149.493 34.8268 149.055 31.4059 145.814C31.0715 145.48 30.7114 145.119 30.377 144.734C30.2741 144.631 30.1712 144.528 30.0941 144.399C29.734 143.988 29.3996 143.55 29.0652 143.061C27.8306 141.312 26.6732 139.151 25.8244 136.604C24.5898 132.926 23.9467 128.475 24.4097 123.279C26.0816 105.22 38.0677 106.377 40.3311 106.763C40.5369 106.789 40.6655 106.815 40.6912 106.84C40.6912 106.84 42.3374 104.911 45.4753 104.911C45.9898 104.911 46.5556 104.963 47.1729 105.091C47.5845 104.757 48.459 104.139 49.6936 103.856C50.9025 103.573 52.6773 103.702 53.6289 104.422C53.6289 104.422 54.8121 103.728 57.127 103.676C57.3071 103.676 57.4871 103.676 57.6671 103.676C58.2073 103.676 58.7989 103.728 59.4419 103.805C59.4419 103.805 59.4933 103.805 59.5191 103.805C60.2907 103.908 61.1138 104.088 61.9883 104.371C61.9883 104.371 63.1972 103.856 64.8948 103.856C66.5924 103.856 68.7272 104.371 70.6563 106.377C70.6563 106.377 70.965 106.377 71.4279 106.429C74.3601 106.738 84.7258 109.053 85.8575 125.568C86.6034 136.347 81.7679 142.676 76.9323 146.174V146.2Z" fill="#F9E155"/>
<path d="M61.9638 104.396C61.9638 104.396 61.9639 104.396 61.9124 104.396C61.7066 104.422 61.012 104.577 60.1116 105.22C60.0344 105.271 59.9573 105.323 59.8801 105.4C59.7515 105.503 59.6229 105.606 59.4942 105.734C59.4171 105.811 59.3656 105.863 59.2884 105.94C59.1855 106.043 59.0827 106.146 58.9797 106.249C57.3848 107.998 57.5906 109.876 57.5906 109.876C56.4844 109.464 55.4297 109.361 54.5293 109.542C54.1434 109.593 53.7575 109.696 53.3717 109.799C53.3717 109.799 53.1144 109.644 52.0854 107.947C52.034 107.869 52.0082 107.818 51.9568 107.741C51.6738 107.355 51.2365 107.02 50.7477 106.737C50.6448 106.66 50.5162 106.609 50.4133 106.557C48.8441 105.734 46.9147 105.374 46.9147 105.374C46.9147 105.374 47.0176 105.271 47.1977 105.117C47.6093 104.782 48.4839 104.165 49.7187 103.882C50.9278 103.599 52.7028 103.728 53.6546 104.448C53.6546 104.448 54.838 103.753 57.1533 103.702C57.3333 103.702 57.5134 103.702 57.6935 103.702C58.2337 103.702 58.8254 103.753 59.4685 103.831C59.4685 103.831 59.52 103.831 59.5457 103.831C60.3175 103.933 61.1407 104.114 62.0153 104.396H61.9638Z" fill="#F7D723"/>
<path d="M53.3478 109.799C52.5503 110.005 51.7014 110.313 50.8267 110.751C49.6948 110.005 47.9455 109.67 47.9455 109.67C45.2701 107.587 40.6653 106.866 40.6653 106.866C40.6653 106.866 42.8777 104.242 47.148 105.117C48.4857 105.4 50.9811 106.146 52.0615 107.947C53.0905 109.645 53.3221 109.773 53.3478 109.799Z" fill="#F8DA30"/>
<path d="M70.6578 106.403C70.6578 106.403 65.2812 105.734 61.3195 110.673C61.3195 110.673 60.1876 110.853 59.9304 111.213C59.1586 110.596 58.3612 110.159 57.5894 109.876C57.5894 109.876 57.4093 107.998 58.9786 106.249C60.5735 104.499 61.9627 104.371 61.9627 104.371C61.9627 104.371 66.7733 102.313 70.6578 106.377V106.403Z" fill="#F8DA30"/>
<g style="mix-blend-mode:multiply" opacity="0.96">
<path d="M63.6593 110.467L61.0872 110.724L59.4411 110.878L49.8471 111.804L44.2399 109.695C44.2399 109.695 44.5228 108.023 45.5002 108.255C46.8892 108.589 48.9726 108.615 50.7216 106.737C50.7473 106.711 50.7988 106.66 50.8245 106.634L57.6406 103.702C58.1807 103.702 58.7723 103.753 59.4154 103.831C59.4154 103.831 59.4668 103.831 59.4925 103.831C59.2868 104.293 59.0295 105.117 59.4925 105.76C59.4925 105.76 59.6726 107.226 62.399 108.023C62.7591 108.126 63.6337 108.023 64.5853 107.843C65.7942 107.612 67.106 107.251 67.4661 107.046C68.1091 106.686 63.6851 110.441 63.6851 110.441L63.6593 110.467Z" fill="#FAE467"/>
</g>
<path d="M67.4662 96.4726C67.4662 96.4726 67.2604 97.0386 66.8745 97.6303C66.463 98.2734 65.82 98.9422 65.0226 98.9422C64.4825 98.9422 64.0967 98.7622 63.7623 98.4792C63.145 97.9904 62.7335 97.2701 61.9361 97.3987C60.7272 97.6045 57.8207 101.103 58.8238 105.116C59.2353 106.788 59.8527 107.972 60.4443 108.795C61.2416 109.953 61.9875 110.39 61.9875 110.39C61.9875 110.39 60.9844 111.599 59.9298 111.599C59.7241 111.599 59.3125 111.599 58.7724 111.599C58.0522 111.599 57.1262 111.599 56.0974 111.548C54.5027 111.47 52.7022 111.342 51.339 111.059C51.1589 111.033 50.9789 110.982 50.8246 110.93C50.233 110.776 49.77 110.596 49.4871 110.364C49.4871 110.364 49.4871 110.364 49.5385 110.287C49.8214 109.927 51.2104 108.229 51.6991 106.351C52.2649 104.242 52.445 97.7332 57.3577 94.8777C62.2705 92.0222 63.1193 90.2214 63.1193 90.2214C63.1193 90.2214 63.1965 90.2986 63.2993 90.4015C63.8909 90.9675 65.7943 92.6396 66.7974 92.9483C68.0063 93.3085 67.4662 96.3955 67.4662 96.3955V96.4726Z" fill="#A89200"/>
<g style="mix-blend-mode:multiply" opacity="0.37">
<path d="M67.1327 96.4734L66.8497 97.631C66.4382 98.2742 65.7951 98.943 64.9978 98.943C64.5862 98.943 64.2519 98.8401 63.9947 98.66C63.9175 98.6086 63.8146 98.5571 63.7375 98.48C63.1202 97.9912 62.7086 97.2709 61.9113 97.3995C61.3454 97.5024 60.4194 98.2999 59.6735 99.5347C58.8504 100.95 58.2589 102.956 58.799 105.091C59.8021 109.13 61.9627 110.365 61.9627 110.365C61.9627 110.365 60.9596 111.574 59.905 111.574C59.4678 111.574 57.8988 111.574 56.0726 111.523L54.1949 110.211C54.1949 110.211 57.2043 110.005 56.2012 106.712C55.1981 103.419 57.873 99.0202 58.7476 97.0651C59.6221 95.1357 62.2199 94.3125 62.2199 94.3125L62.863 94.5955L67.1069 96.3962L67.1327 96.4734Z" fill="#636363"/>
</g>
<g style="mix-blend-mode:multiply" opacity="0.37">
<path d="M53.9118 103.471C54.0147 106.635 54.2977 108.435 53.1144 109.876C52.5227 110.596 51.8538 110.931 51.3136 111.085C51.1335 111.059 50.9534 111.008 50.7991 110.957C51.2364 110.596 51.9824 109.825 52.3168 108.564C52.8056 106.738 52.9343 103.059 53.7317 101.13C54.6064 98.9944 56.0213 97.4509 56.2785 97.6824C56.5358 97.9139 53.8089 100.358 53.8861 103.445L53.9118 103.471Z" fill="#636363"/>
</g>
<g style="mix-blend-mode:multiply" opacity="0.37">
<path d="M54.915 102.751C54.6577 105.735 55.1979 108.487 54.9921 108.436C54.7863 108.385 54.349 102.802 55.1465 100.873C56.0211 98.7376 58.5679 95.6249 58.8251 95.8564C59.0824 96.088 55.1722 99.6895 54.8892 102.751H54.915Z" fill="#636363"/>
</g>
<g style="mix-blend-mode:multiply" opacity="0.37">
<path d="M63.3014 91.1993C63.3014 91.1993 62.1695 93.1801 60.9604 93.3602C59.5198 93.566 56.973 95.7526 57.0502 95.9584C57.1274 96.1642 59.6741 94.3378 61.0632 94.0805C62.4524 93.8233 63.7129 92.074 63.7129 92.074L63.3014 91.1736V91.1993Z" fill="#636363"/>
</g>
<g style="mix-blend-mode:multiply" opacity="0.37">
<path d="M64.6378 98.5566L63.9947 98.6852C63.9947 98.6852 63.8146 98.5823 63.7374 98.5052C63.12 98.0164 62.7084 97.2961 61.911 97.4247C61.345 97.5276 60.4189 98.3251 59.6729 99.5599C59.8272 99.2255 60.6762 97.4247 61.2678 96.833C61.9367 96.1899 62.1939 94.3892 62.1939 94.3892C62.4254 94.4406 62.657 94.5435 62.837 94.6721C64.2262 95.6497 64.5864 98.5566 64.5864 98.5566H64.6378Z" fill="#636363"/>
</g>
<g style="mix-blend-mode:multiply" opacity="0.37">
<path d="M61.9628 110.416C61.9628 110.416 60.9596 111.625 59.9049 111.625C59.6991 111.625 59.2874 111.625 58.7472 111.625L56.9979 109.67C56.9979 109.67 58.2842 110.416 59.6219 110.313C60.8824 110.236 60.4708 108.95 60.4194 108.795C61.2168 109.953 61.9628 110.39 61.9628 110.39V110.416Z" fill="#636363"/>
</g>
<g style="mix-blend-mode:multiply" opacity="0.37">
<path d="M50.3102 110.468C50.3102 110.468 52.574 109.953 53.5258 109.748C54.4776 109.542 53.9117 111.806 53.9117 111.806L50.1044 111.24L50.3102 110.494V110.468Z" fill="#636363"/>
</g>
<g style="mix-blend-mode:soft-light">
<path d="M63.2994 90.4787L63.145 90.7102C63.145 90.7102 61.859 92.5109 60.8559 92.9225C59.8527 93.3341 57.0748 95.6237 56.6633 95.9581C56.3289 96.2411 56.2003 96.6784 56.1232 96.8328C55.7888 97.4759 55.4544 97.4759 55.0429 97.7074C53.5253 98.6078 53.0623 101.335 52.8823 102.415C52.7022 103.47 52.2393 107.792 51.622 108.358C50.9789 108.924 50.3102 110.467 50.3102 110.467L49.5128 110.364C49.7957 110.004 51.1847 108.306 51.6734 106.428C52.2392 104.319 52.4193 97.8103 57.3321 94.9548C62.2448 92.0993 63.0936 90.2986 63.0936 90.2986C63.0936 90.2986 63.1708 90.3758 63.2736 90.4787H63.2994Z" fill="#CCBF69"/>
</g>
<path d="M67.4672 96.4732C67.4672 96.4732 66.5925 98.9171 65.0233 98.9686C64.483 98.9686 64.0972 98.7885 63.7628 98.5055C63.6599 98.4026 63.5827 98.2997 63.5312 98.1968C63.3254 97.811 63.5312 97.5537 63.5312 97.0907C63.5312 96.9363 63.5312 96.782 63.4797 96.5762C63.4026 96.2932 63.2482 95.9845 63.0939 95.6758C62.708 94.9812 62.2192 94.3895 62.2192 94.3895C62.2192 94.3895 62.6823 93.6435 62.9653 93.0775C63.0167 92.9746 63.0682 92.8717 63.0939 92.7946V92.7431C63.2997 92.1 63.0939 90.325 63.0939 90.325C63.0939 90.325 63.2997 90.5308 63.6341 90.8395C63.9171 91.0967 64.2773 91.3797 64.6374 91.6884C64.7918 91.817 64.9461 91.9456 65.1262 92.0743C65.5378 92.383 65.9236 92.6659 66.2838 92.846C66.4638 92.9489 66.6182 93.0261 66.7726 93.0518C67.9816 93.412 67.4414 96.499 67.4414 96.499L67.4672 96.4732Z" fill="#BDAC3D"/>
<path d="M65.9495 97.7077C65.9495 97.5533 65.7694 96.4214 65.6665 96.3442C65.5636 96.2671 64.303 95.2638 64.6375 94.6464C64.9719 94.0547 64.5603 92.6655 64.5603 92.6655C64.7147 92.3054 64.7146 91.9452 64.6889 91.688C64.8432 91.8166 64.9976 91.9452 65.1777 92.0739C65.2291 92.2282 65.2549 92.3826 65.2549 92.5112C65.2549 92.8971 65.7951 93.7717 65.7951 93.7717V95.2123C65.7951 95.2123 66.8241 95.2123 67.0041 95.8812C67.1842 96.55 65.9752 97.8877 65.9752 97.7334L65.9495 97.7077Z" fill="#B6A329"/>
<path d="M65.3063 98.6081C65.3063 98.6081 64.5088 98.8139 64.303 98.1965C64.0714 97.5791 63.5312 97.1161 63.5312 97.1161C63.5312 96.9617 63.5312 96.8073 63.4797 96.6015C63.4026 96.3186 63.2482 96.0099 63.0939 95.7012C63.2997 95.7012 63.6855 95.7012 63.8913 95.9327C63.8913 95.9327 64.7146 96.7559 64.7146 97.5791C64.7146 98.4023 65.3063 98.6338 65.3063 98.6338V98.6081Z" fill="#B6A329"/>
<path d="M63.6855 95.2123C63.6855 95.2123 63.2996 95.0579 63.0167 94.775C62.8623 94.6206 62.7594 94.2347 62.7594 94.2347L63.1453 93.6173L62.9652 93.0771C62.9652 93.0771 63.0681 92.8713 63.0938 92.7941V92.7427L63.2997 92.4597C63.2997 92.4597 63.7113 92.7427 63.5312 93.5402C63.3254 94.3376 63.6084 95.1866 63.6855 95.238V95.2123Z" fill="#B6A329"/>
<path d="M67.4667 96.4725C67.4925 95.8809 67.4924 95.2635 67.4152 94.5689C67.4152 94.4917 67.441 94.0544 67.4152 93.9772C67.3638 93.7971 67.1066 93.3598 67.1066 93.3598C67.1066 93.3598 66.5406 93.0254 66.3348 92.8196C66.5149 92.9225 66.6693 92.9997 66.8236 93.0254C68.0327 93.3855 67.4924 96.4725 67.4924 96.4725H67.4667Z" fill="#CCBF69"/>
<path d="M63.5055 97.7081C63.5055 97.8624 63.4283 97.8881 63.5055 98.1968C63.2997 97.811 63.5055 97.5537 63.5055 97.0907C63.5055 96.9363 63.5055 96.782 63.4541 96.5762C63.3769 96.2932 63.2225 95.9845 63.0681 95.6758C62.6822 94.9812 62.1935 94.3895 62.1935 94.3895C62.1935 94.3895 62.8366 93.3605 63.0681 92.7946C63.2997 92.2286 63.0681 90.325 63.0681 90.325C63.0681 90.325 63.274 90.5308 63.6084 90.8395L63.171 90.5565C63.171 90.5565 63.454 92.2029 63.2482 92.6145C63.0424 93.0261 62.3478 94.3895 62.3478 94.3895C62.3478 94.3895 63.3769 95.7787 63.5055 96.4218C63.6084 96.8848 63.5312 97.2964 63.5055 97.7081Z" fill="#CCBF69"/>
<path d="M47.9445 109.669C47.9445 109.669 46.9157 109.515 45.3724 109.566C45.2952 109.566 45.2181 109.566 45.1409 109.566C44.9866 109.566 44.8322 109.566 44.6779 109.592C44.6007 109.592 44.4979 109.592 44.395 109.592C42.6202 109.772 40.4339 110.235 38.3248 111.367C34.338 113.528 30.6342 118.081 30.6085 127.574C30.6085 130.892 30.9686 133.696 31.5601 136.114C32.769 141.002 34.9296 144.141 36.9101 146.122C38.5049 147.716 39.9967 148.54 40.7426 148.874C41.0769 149.028 41.257 149.08 41.257 149.08C41.257 149.08 41.077 149.131 40.7683 149.209C40.5111 149.26 40.151 149.311 39.7137 149.337C37.9133 149.414 34.7753 148.977 31.3544 145.736C31.02 145.401 30.6599 145.041 30.3255 144.655C30.2227 144.552 30.1198 144.449 30.0426 144.321C29.6825 143.909 29.3481 143.472 29.0137 142.983C27.7791 141.234 26.6217 139.073 25.7729 136.526C24.5383 132.847 23.8952 128.397 24.3582 123.2C26.0301 105.141 38.0161 106.299 40.2796 106.685C40.4854 106.711 40.614 106.736 40.6397 106.762C40.6397 106.762 40.8455 106.814 40.9483 106.814C41.0255 106.814 41.1284 106.839 41.2313 106.865C41.8229 106.994 42.7488 107.199 43.8034 107.534C43.8034 107.534 43.8034 107.534 43.8548 107.534C45.2181 107.971 46.7613 108.64 47.9188 109.54L47.9445 109.669Z" fill="#F8DC3D"/>
<g style="mix-blend-mode:multiply" opacity="0.96">
<path d="M40.7678 149.285C40.5106 149.337 40.1505 149.388 39.7132 149.414C38.993 148.925 38.0413 148.231 36.8067 147.33C28.5502 141.233 28.8332 126.416 30.7108 119.341C32.5627 112.267 38.3243 111.392 38.3243 111.392V111.444L40.7678 148.951V149.285Z" fill="#FAE467"/>
</g>
<g style="mix-blend-mode:soft-light" opacity="0.67">
<path d="M40.3053 106.788C40.3053 106.788 34.338 107.354 30.9686 110.57C28.2936 113.142 23.7924 119.831 25.7729 136.629C24.5383 132.976 23.8952 128.5 24.3582 123.303C26.0301 105.244 38.0161 106.402 40.2796 106.788H40.3053Z" fill="#F9EC98"/>
</g>
<path d="M41.9257 127.986C41.6942 129.736 41.617 131.408 41.6684 132.951C41.6684 133.157 41.6684 133.363 41.6684 133.569C41.6684 133.852 41.7199 134.135 41.7199 134.418C41.7199 134.649 41.7713 134.881 41.797 135.112C41.797 135.112 41.797 135.138 41.797 135.164C41.797 135.395 41.8485 135.627 41.8742 135.833C41.9771 136.553 42.1057 137.247 42.2343 137.916C42.2857 138.096 42.3115 138.276 42.3629 138.456C42.4143 138.714 42.4915 138.945 42.543 139.177C42.5944 139.383 42.6458 139.588 42.723 139.794C42.7744 139.949 42.8259 140.103 42.8773 140.283C42.9545 140.515 43.0317 140.746 43.1088 140.978C43.186 141.158 43.2374 141.363 43.3146 141.544C43.7261 142.624 44.1891 143.576 44.6778 144.45C44.7292 144.553 44.8064 144.656 44.8579 144.759C44.9093 144.862 44.9865 144.965 45.0379 145.068C45.9124 146.586 46.8384 147.743 47.5843 148.566C47.6357 148.644 47.6872 148.695 47.7644 148.747C48.2531 149.287 48.6646 149.673 48.9218 149.878C48.9732 149.93 49.0247 149.956 49.0504 149.981C49.1276 150.059 49.179 150.084 49.179 150.084C48.9218 150.136 45.6552 150.83 42.6973 149.853C42.4144 149.75 41.7199 149.621 40.7939 149.287C39.5593 148.824 37.9131 147.949 36.3184 146.251C34.4408 144.27 32.7175 141.08 31.4057 136.167C30.5055 132.797 30.3769 130.945 30.4283 127.626C30.7112 112.989 39.3021 110.107 44.4206 109.644C44.5235 109.644 44.6007 109.644 44.7035 109.644C44.8579 109.644 45.0122 109.644 45.1665 109.619C45.2437 109.619 45.3209 109.619 45.398 109.619C46.9413 109.567 47.9701 109.722 47.9701 109.722C47.9701 109.722 49.6934 110.056 50.8509 110.802C50.5937 110.931 50.3622 111.059 50.105 111.214C46.7355 113.297 43.2889 117.851 41.9514 128.012L41.9257 127.986Z" fill="#F9DE48"/>
<g style="mix-blend-mode:multiply" opacity="0.96">
<path d="M50.8252 110.75C50.8252 110.75 48.4588 110.75 46.5555 113.091C44.6521 115.432 40.7168 120.911 41.0512 131.819C41.3855 142.726 45.9124 148.309 49.179 150.084C52.4456 151.859 49.642 129.607 49.642 129.607L50.8252 110.75Z" fill="#FAE467"/>
</g>
<g style="mix-blend-mode:soft-light" opacity="0.67">
<path d="M45.1922 110.468C45.1922 110.468 36.6785 110.107 33.5405 117.773C30.4026 125.44 31.0456 132.514 34.2607 139.511C37.4759 146.508 40.6653 143.113 39.5593 138.919C38.4533 134.726 35.4953 121.709 40.6653 116.924C45.8352 112.14 48.5617 110.879 45.1922 110.468Z" fill="#F9EC98"/>
</g>
<g style="mix-blend-mode:soft-light" opacity="0.67">
<path d="M44.2151 112.165C41.6944 113.658 36.2415 115.278 35.5213 124.719C34.8012 134.16 32.5377 130.173 32.2805 127.369C32.0233 124.565 33.0779 118.005 36.5502 114.764C41.0771 110.519 46.7358 110.673 44.2151 112.165Z" fill="#F9EC98"/>
</g>
<g style="mix-blend-mode:soft-light" opacity="0.67">
<path d="M36.859 115.303C37.7079 115.045 37.8623 115.38 37.4764 116.177C37.0905 116.975 35.5984 120.267 35.2126 122.48C34.8267 124.692 33.0774 124.101 33.9778 120.396C34.8781 116.692 36.01 115.56 36.859 115.277V115.303Z" fill="#FFF9D1"/>
</g>
<path d="M77.6003 130.739C77.3431 143.344 68.212 149.981 68.212 149.981C68.212 149.981 64.6368 151.062 61.3188 150.264C60.8815 150.161 60.4443 150.033 60.0327 149.853C60.0327 149.853 66.8746 144.167 66.3344 128.758C66.0515 120.14 63.6852 114.918 60.9073 112.114C60.5729 111.754 60.2128 111.445 59.8784 111.188C60.1614 110.802 61.2674 110.648 61.2674 110.648C61.2674 110.648 62.7335 110.339 64.9712 110.725C65.8715 110.879 66.926 111.136 68.0321 111.574C71.8388 113.092 77.8318 119.137 77.5746 130.739H77.6003Z" fill="#F9DE48"/>
<g style="mix-blend-mode:multiply" opacity="0.96">
<path d="M67.1318 130.61C67.0289 140.668 64.894 146.405 62.2705 148.746C61.8846 149.08 61.2673 149.26 61.0616 149.569C60.933 149.749 61.0359 150.006 61.3188 150.289C60.8815 150.186 60.4443 150.058 60.0327 149.878C60.0327 149.878 66.8746 144.192 66.3344 128.783C66.0515 120.165 63.6852 114.943 60.9073 112.139C60.5729 111.779 60.2128 111.47 59.8784 111.213C59.8784 111.213 61.5246 111.779 62.6049 113.219C63.6851 114.66 67.2347 119.085 67.1061 130.61H67.1318Z" fill="#FAE467"/>
</g>
<g style="mix-blend-mode:soft-light" opacity="0.67">
<path d="M67.569 111.805C66.9517 111.471 63.4537 110.931 65.3056 113.503C67.3633 116.333 71.1957 121.761 69.3953 132.72C67.5948 143.679 68.5722 147.846 71.5816 145.068C74.591 142.289 77.1116 135.035 76.9573 129.633C76.803 124.848 76.2628 116.436 67.569 111.831V111.805Z" fill="#F9EC98"/>
</g>
<g style="mix-blend-mode:soft-light" opacity="0.67">
<path d="M72.5071 116.873C71.4525 115.33 69.7035 115.047 70.8866 118.185C72.0698 121.323 73.1758 125.568 72.5071 130.61C71.8383 135.652 72.9958 142.289 74.9249 137.736C76.5967 133.749 78.2943 125.388 72.5071 116.873Z" fill="#FFF9D1"/>
</g>
<path d="M76.9316 146.199C74.2566 148.154 71.5559 149.209 69.8325 149.698C69.1123 149.903 68.5722 150.006 68.2378 150.006C68.2378 150.006 77.3431 143.369 77.626 130.764C77.8575 119.162 71.8902 113.117 68.0835 111.599C66.9775 111.161 65.9487 110.904 65.0227 110.75C62.785 110.39 61.3188 110.673 61.3188 110.673C61.6018 110.338 61.8847 110.03 62.1419 109.747C64.0196 107.817 66.103 106.994 67.7235 106.634C69.4468 106.248 70.6556 106.402 70.6556 106.402C70.6556 106.402 70.9643 106.402 71.4272 106.454C74.3594 106.762 84.7251 109.078 85.8568 125.593C86.6027 136.372 81.7672 142.7 76.9316 146.199Z" fill="#F8DC3D"/>
<g style="mix-blend-mode:multiply" opacity="0.96">
<path d="M74.3081 143.986C72.8677 146.224 71.3244 147.562 70.5271 148.514C70.1155 149.003 69.884 149.389 69.8325 149.672C69.1123 149.877 68.5722 149.98 68.2378 149.98C68.2378 149.98 77.3431 143.343 77.626 130.738C77.8575 119.136 71.8902 113.09 68.0835 111.573C66.9775 111.135 65.9487 110.878 65.0227 110.724C62.785 110.364 61.3188 110.647 61.3188 110.647C61.6018 110.312 61.8847 110.003 62.1419 109.72C62.1419 109.72 62.322 110.338 64.2768 110.235C66.2316 110.132 71.5816 112.113 74.771 117.001C77.9862 121.914 81.0213 133.593 74.2823 143.986H74.3081Z" fill="#FAE467"/>
</g>
<g style="mix-blend-mode:soft-light" opacity="0.67">
<path d="M76.9321 146.2C76.5977 145.531 77.1378 143.859 77.6265 142.779C78.1152 141.698 81.0989 139.1 81.5619 129.967C82.0249 120.809 78.7583 117.053 75.5431 113.478C72.328 109.928 69.1386 110.236 70.5018 109.542C71.865 108.847 71.4277 106.429 71.4277 106.429C74.3599 106.738 84.7256 109.053 85.8573 125.568C86.6032 136.347 81.7677 142.676 76.9321 146.174V146.2Z" fill="#F9EC98"/>
</g>
<path d="M60.0327 149.878C60.0327 149.878 54.7856 153.556 49.1784 150.083C49.1784 150.083 49.127 150.058 49.0498 149.98C49.0241 149.955 48.9726 149.903 48.9212 149.878C48.6897 149.672 48.2782 149.286 47.7638 148.746C47.7123 148.694 47.6609 148.617 47.5837 148.566C46.8378 147.742 45.9376 146.559 45.0373 145.067C44.9859 144.964 44.9087 144.861 44.8573 144.758C44.8058 144.655 44.7286 144.552 44.6772 144.45C44.1885 143.575 43.7512 142.623 43.314 141.543C43.2368 141.363 43.1854 141.182 43.1082 140.977C43.0311 140.745 42.9539 140.514 42.8767 140.282C42.8253 140.128 42.7738 139.973 42.7224 139.793C42.671 139.588 42.5938 139.382 42.5424 139.176C42.4652 138.944 42.4137 138.687 42.3623 138.456C42.3109 138.276 42.2851 138.095 42.2337 137.915C42.0794 137.247 41.9508 136.552 41.8736 135.832C41.8479 135.6 41.8222 135.394 41.7964 135.163C41.7964 135.163 41.7964 135.137 41.7964 135.111C41.7964 134.88 41.745 134.648 41.7193 134.417C41.7193 134.134 41.6935 133.851 41.6678 133.568C41.6678 133.362 41.6678 133.156 41.6678 132.95C41.6164 131.407 41.6936 129.761 41.925 127.986C43.2625 117.824 46.7092 113.271 50.0786 111.187C50.3359 111.033 50.5674 110.904 50.8246 110.775C51.6734 110.312 52.5479 110.029 53.3452 109.824C53.7568 109.721 54.1426 109.644 54.5027 109.566C55.4029 109.412 56.4832 109.515 57.5635 109.901C58.3351 110.184 59.1325 110.621 59.9041 111.238C60.2642 111.521 60.5986 111.83 60.933 112.165C63.6851 114.969 66.0514 120.191 66.3601 128.809C66.8745 144.192 60.0585 149.903 60.0585 149.903L60.0327 149.878Z" fill="#F9E155"/>
<g style="mix-blend-mode:soft-light" opacity="0.67">
<path d="M53.0365 111.65C49.8985 111.753 42.1565 117.387 43.7769 134.802C45.3974 152.218 56.0716 147.691 57.9493 144.424C59.8269 141.157 61.3187 130.326 60.3928 122.815C59.9041 118.75 57.8464 111.496 53.0365 111.65Z" fill="#F9EC98"/>
</g>
<g style="mix-blend-mode:soft-light" opacity="0.67">
<path d="M52.9339 113.502C50.799 113.193 45.4748 115.406 45.6034 129.683C45.732 143.961 51.1077 143.678 53.2168 139.099C54.0656 137.246 53.5769 131.895 53.7827 127.214C54.0914 120.319 55.8918 113.965 52.9082 113.528L52.9339 113.502Z" fill="#F9EC98"/>
</g>
<g style="mix-blend-mode:multiply" opacity="0.96">
<path d="M76.9573 146.173C73.1506 148.925 69.3695 149.954 68.2378 150.006C68.2378 150.006 63.6594 151.369 60.0585 149.877C60.0585 149.877 54.8114 153.555 49.2042 150.083C48.9469 150.134 45.6804 150.829 42.7224 149.851C42.4395 149.748 41.745 149.62 40.819 149.285C39.5073 149.543 35.6491 149.851 31.4308 145.813C31.0965 145.479 30.7364 145.118 30.402 144.733C30.2991 144.63 30.1962 144.527 30.1191 144.398C29.759 143.987 29.4246 143.549 29.0902 143.061C29.5275 143.601 31.971 147.382 36.3693 146.224C36.3693 146.224 42.8253 149.645 47.6866 148.514C47.6866 148.514 52.9594 151.986 58.1551 149.414C63.3508 146.842 64.071 143.755 64.071 143.755C64.071 143.755 63.6594 148.951 67.0289 149.234C69.2666 149.414 70.5527 147.691 71.6844 146.79C71.6844 146.79 71.5816 148.076 72.5333 148.231C73.3563 148.359 75.0796 147.485 77.0345 146.199L76.9573 146.173Z" fill="#FAE467"/>
</g>
<g style="mix-blend-mode:multiply" opacity="0.96">
<path d="M64.9973 110.749C64.9973 110.749 61.9108 110.466 60.9334 112.164C60.9334 112.164 58.0269 110.029 55.4033 109.977C52.7798 109.926 50.0791 111.186 50.0791 111.186C50.0791 111.186 48.5615 109.643 45.3721 109.592C45.3721 109.592 46.1952 108.614 43.8802 107.688C45.2435 108.126 46.7867 108.794 47.9442 109.695C47.9442 109.695 49.6675 110.029 50.825 110.775C51.6738 110.312 52.5483 110.029 53.3456 109.823C53.7572 109.72 54.143 109.643 54.5031 109.566C55.4033 109.412 56.4836 109.514 57.5639 109.9C58.3355 110.183 59.1329 110.62 59.9045 111.238C60.1875 110.852 61.2935 110.698 61.2935 110.698C63.3769 108.126 65.8461 107.071 67.698 106.659C67.698 106.659 71.2475 107.637 64.9973 110.775V110.749Z" fill="#FAE467"/>
</g>
<g style="mix-blend-mode:soft-light" opacity="0.38">
<path d="M80.3016 82.0406L79.4271 84.3301L78.0639 87.9574L77.6009 89.1922L51.1596 159.73L50.6966 160.939L49.3334 164.567L48.4588 166.882C47.4557 166.728 46.4526 166.573 45.4752 166.367C34.8524 164.155 25.5928 158.29 19.0082 150.161C18.468 149.492 17.9279 148.797 17.4135 148.077L18.4166 145.324L20.0627 140.848L20.6286 139.279L40.6911 84.716L41.257 83.1468L42.9031 78.6706L43.9062 75.918C45.6296 75.4807 47.43 75.172 49.2305 74.9405C51.1339 74.7089 53.0629 74.5803 55.0177 74.5803C63.4028 74.5803 71.2735 76.8184 78.0897 80.7029C78.8356 81.1402 79.5557 81.5775 80.2759 82.0406H80.3016Z" fill="#FFFB8C"/>
</g>
<path d="M86.1658 89.8358C84.1081 87.7778 81.8704 85.9513 79.4526 84.3306C72.4822 79.6744 64.0971 76.9475 55.069 76.9475C50.8764 76.9475 46.8125 77.5392 42.9543 78.6454C41.2567 79.1341 39.5849 79.7258 37.9644 80.3947C32.6916 82.607 27.9589 85.8484 23.9721 89.8101C16.0243 97.7591 11.0858 108.769 11.0858 120.912C11.0858 129.915 13.7865 138.302 18.4421 145.273C20.0625 147.692 21.9144 149.955 23.9721 152.013C30.6596 158.702 39.5077 163.255 49.3589 164.541C51.2365 164.799 53.1399 164.902 55.069 164.902C67.2094 164.902 78.218 159.962 86.1658 152.013C94.1137 144.064 99.0521 133.054 99.0521 120.912C99.0521 108.769 94.1394 97.7591 86.1658 89.8101V89.8358ZM94.8082 127.06C94.7567 127.394 94.7052 127.729 94.6538 128.063C94.5252 128.732 94.3966 129.375 94.2423 130.018C94.1651 130.353 94.0879 130.662 94.0107 130.996C93.7793 131.948 93.4964 132.9 93.162 133.851C92.7504 135.086 92.2617 136.321 91.7216 137.504C91.5416 137.89 91.3615 138.302 91.1557 138.688C90.7699 139.459 90.3584 140.231 89.9468 140.977C89.6382 141.543 89.2781 142.083 88.9438 142.624C88.5837 143.164 88.2235 143.704 87.8634 144.244C87.5033 144.759 87.1175 145.273 86.706 145.788C86.3201 146.302 85.9086 146.791 85.4971 147.28C84.854 148 84.2111 148.721 83.5423 149.389C82.8478 150.084 82.1533 150.727 81.4331 151.37C80.3271 152.322 79.1697 153.222 77.9865 154.046C76.5461 155.049 75.0543 155.949 73.4596 156.747C73.2024 156.875 72.9194 157.004 72.6622 157.158C67.3637 159.731 61.4221 161.171 55.1204 161.171C53.6543 161.171 52.1882 161.094 50.7736 160.94C46.0666 160.425 41.6168 159.113 37.5529 157.133C37.0899 156.901 36.6526 156.695 36.2154 156.438C35.7781 156.207 35.3409 155.949 34.9036 155.718C34.4664 155.461 34.0548 155.203 33.6176 154.946C31.92 153.866 30.3252 152.682 28.8077 151.37C28.0875 150.727 27.3673 150.084 26.6986 149.389C26.3642 149.055 26.0298 148.695 25.6954 148.36C25.3611 148 25.0524 147.64 24.718 147.28C24.3065 146.791 23.8949 146.302 23.5091 145.788C23.1233 145.273 22.7375 144.759 22.3517 144.244C21.9659 143.704 21.6058 143.19 21.2714 142.624C20.937 142.083 20.5769 141.517 20.2683 140.977C20.2426 140.926 20.2168 140.874 20.1911 140.823C19.7796 140.103 19.4195 139.408 19.0594 138.662C18.8536 138.276 18.6736 137.89 18.4935 137.479C17.9534 136.295 17.4647 135.061 17.0531 133.826C15.6899 129.787 14.944 125.439 14.944 120.937C14.944 116.436 15.6899 112.088 17.0531 108.049C17.4647 106.814 17.9534 105.58 18.4935 104.396C18.6736 104.01 18.8536 103.599 19.0594 103.213C19.4452 102.441 19.8567 101.669 20.2683 100.923C20.5769 100.357 20.937 99.8171 21.2714 99.2769C21.6315 98.7367 21.9916 98.1964 22.3517 97.6562C22.7118 97.1417 23.0976 96.6272 23.5091 96.1127C23.8949 95.5982 24.3065 95.1094 24.718 94.6207C25.0267 94.2605 25.3611 93.9003 25.6954 93.5402C26.0298 93.18 26.3642 92.8456 26.6986 92.5112C27.393 91.8166 28.0875 91.1735 28.8077 90.5304C30.8654 88.7553 33.1288 87.1604 35.5209 85.8227C36.3183 85.3853 37.1414 84.948 37.9644 84.5621C38.2474 84.4335 38.5303 84.3049 38.8132 84.1763C39.3791 83.919 39.9449 83.6875 40.5108 83.456C40.7937 83.3531 41.0767 83.2244 41.3853 83.1215C41.7454 82.9929 42.1055 82.8643 42.4656 82.7357C46.4524 81.3979 50.7221 80.7034 55.1461 80.7034C63.7113 80.7034 71.6334 83.3788 78.1666 87.9321C79.0154 88.5238 79.8642 89.1669 80.6615 89.8358C80.9188 90.0673 81.2017 90.2731 81.4589 90.5046C82.1791 91.1478 82.8992 91.7909 83.568 92.4855C84.2624 93.18 84.9055 93.8746 85.5228 94.5949C85.9343 95.0837 86.3459 95.5725 86.7317 96.087C87.1175 96.6015 87.5034 97.116 87.8892 97.6305C88.275 98.1707 88.635 98.6852 88.9694 99.2512C89.3038 99.7914 89.6639 100.357 89.9726 100.898C90.4098 101.644 90.7957 102.415 91.1815 103.187C91.3873 103.573 91.5673 103.959 91.7474 104.37C92.2875 105.554 92.7762 106.789 93.1877 108.023C93.4964 108.95 93.7793 109.901 94.0365 110.879C94.1137 111.213 94.1908 111.522 94.268 111.856C94.4223 112.5 94.5509 113.168 94.6795 113.812C94.731 114.146 94.7824 114.48 94.8338 114.815C94.9367 115.484 95.0139 116.153 95.0911 116.821C95.2197 118.185 95.2968 119.548 95.2968 120.937C95.2968 122.327 95.2197 123.69 95.0911 125.053C95.0139 125.722 94.9367 126.391 94.8338 127.06H94.8082Z" fill="#FAE543"/>
<g style="mix-blend-mode:multiply">
<path d="M95.0652 116.821C94.988 116.152 94.9109 115.483 94.8081 114.815C94.7566 114.48 94.7051 114.146 94.6537 113.811C94.5251 113.142 94.3965 112.499 94.2422 111.856C94.165 111.522 94.0878 111.213 94.0106 110.879C93.7534 109.927 93.4705 108.975 93.1619 108.023C92.7246 106.788 92.2616 105.554 91.7215 104.37C91.5414 103.984 91.3614 103.573 91.1556 103.187C90.7698 102.415 90.3583 101.643 89.9467 100.897C89.6381 100.331 89.278 99.7911 88.9436 99.2509C88.5835 98.7107 88.2234 98.1705 87.8633 97.6302C87.5032 97.1157 87.1174 96.6012 86.7058 96.0867C86.32 95.5722 85.9085 95.0835 85.4969 94.5947C84.8539 93.8744 84.2109 93.1541 83.5164 92.4852C82.822 91.7906 82.1275 91.1475 81.4073 90.5044C81.1501 90.2729 80.8929 90.0413 80.6099 89.8355C79.8126 89.1667 78.9638 88.5493 78.115 87.9319C71.6075 83.3785 63.6597 80.7031 55.0946 80.7031C50.6705 80.7031 46.4008 81.4234 42.4141 82.7354C42.054 82.864 41.6939 82.9669 41.3338 83.0956C41.0509 83.1985 40.7679 83.3271 40.4592 83.43C39.8934 83.6615 39.3018 83.893 38.7617 84.1503C38.4787 84.2789 38.1958 84.4075 37.9129 84.5362C37.0898 84.922 36.2667 85.3594 35.4694 85.7967C33.0773 87.1344 30.8396 88.7294 28.7561 90.5044C28.036 91.1475 27.3157 91.7906 26.647 92.4852C26.3126 92.8196 25.9782 93.1798 25.6439 93.5142C25.3095 93.8744 25.0008 94.2345 24.6665 94.5947C24.2549 95.0835 23.8434 95.5722 23.4576 96.0867C23.0717 96.6012 22.6859 97.1157 22.3001 97.6302C21.9143 98.1705 21.5542 98.685 21.2198 99.2509C20.8855 99.7911 20.5254 100.357 20.2167 100.897C19.7795 101.643 19.3936 102.415 19.0078 103.187C18.802 103.573 18.622 103.959 18.4419 104.37C17.9018 105.554 17.4388 106.788 17.0016 108.023C15.6383 112.062 14.8925 116.41 14.8925 120.911C14.8925 125.413 15.6383 129.761 17.0016 133.8C17.4388 135.035 17.9018 136.269 18.4419 137.453C18.622 137.839 18.802 138.25 19.0078 138.636C19.3679 139.356 19.7537 140.077 20.1396 140.771C20.1396 140.771 20.191 140.874 20.2167 140.926C20.5254 141.492 20.8855 142.032 21.2198 142.572C21.5799 143.112 21.94 143.652 22.3001 144.193C22.6602 144.707 23.046 145.222 23.4576 145.736C23.8434 146.251 24.2549 146.739 24.6665 147.228C24.9751 147.588 25.3095 147.949 25.6439 148.309C25.9782 148.669 26.3126 149.003 26.647 149.338C27.3415 150.032 28.036 150.675 28.7561 151.319C30.2737 152.63 31.8684 153.814 33.566 154.894C34.0032 155.152 34.4148 155.435 34.852 155.666C35.2893 155.923 35.7266 156.155 36.1638 156.386C36.6011 156.618 37.0641 156.849 37.5013 157.081C41.5653 159.062 46.0407 160.374 50.722 160.888C52.1624 161.043 53.6028 161.12 55.0689 161.12C61.3448 161.12 67.3121 159.679 72.6107 157.107C72.8679 156.978 73.1508 156.849 73.408 156.695C74.977 155.898 76.4945 154.997 77.9349 153.994C79.1438 153.171 80.3013 152.27 81.3816 151.319C82.1018 150.675 82.8219 150.032 83.4907 149.338C84.1852 148.643 84.8282 147.949 85.4713 147.228C85.8828 146.739 86.2943 146.251 86.6802 145.736C87.066 145.222 87.4518 144.707 87.8376 144.193C88.2234 143.652 88.5835 143.138 88.9179 142.572C89.2523 142.032 89.6123 141.466 89.921 140.926C90.3582 140.18 90.7441 139.408 91.1299 138.636C91.3356 138.25 91.5157 137.864 91.6957 137.453C92.2359 136.269 92.6989 135.035 93.1361 133.8C93.4448 132.874 93.7277 131.922 93.985 130.944C94.0621 130.61 94.1393 130.301 94.2164 129.967C94.3708 129.324 94.4994 128.655 94.628 128.012C94.6794 127.677 94.7309 127.343 94.7823 127.008C94.8852 126.339 94.9624 125.671 95.0395 125.002C95.1681 123.638 95.2453 122.275 95.2453 120.886C95.2453 119.497 95.1681 118.133 95.0395 116.77L95.0652 116.821ZM82.6162 148.489C75.5686 155.537 65.8203 159.911 55.0689 159.911C53.7571 159.911 52.4453 159.859 51.185 159.705C41.9768 158.779 33.7203 154.663 27.5215 148.489C24.8208 145.788 22.5059 142.675 20.6797 139.253C17.7732 133.8 16.1014 127.549 16.1014 120.937C16.1014 110.184 20.4482 100.434 27.5215 93.3856C31.2511 89.6555 35.7265 86.6714 40.7422 84.6905C45.1919 82.9155 50.0275 81.9637 55.0946 81.9637C63.5054 81.9637 71.2732 84.6133 77.652 89.1667C79.4268 90.4272 81.0987 91.8421 82.6419 93.3856C89.6895 100.434 94.0621 110.184 94.0621 120.937C94.0621 131.69 89.7152 141.44 82.6419 148.489H82.6162Z" fill="#F6F39E"/>
</g>
<path d="M108.98 0.106934H88.7378L44.8575 73.372H65.1001L108.98 0.106934Z" fill="#7700FF"/>
</svg>
