<svg width="109" height="168" viewBox="0 0 109 168" fill="none" xmlns="http://www.w3.org/2000/svg">
<path d="M0.977295 0.106934H21.223L65.11 73.3721H44.8386L0.977295 0.106934Z" fill="#F7B500"/>
<path d="M8.2583 0.106934L52.1454 73.3721H54.332L10.4449 0.106934H8.2583Z" fill="#C94444"/>
<path d="M64.6986 79.5973V78.6454H45.4305C44.6845 78.6454 44.0156 78.3367 43.5269 77.848C43.0381 77.3592 42.7294 76.6903 42.7294 75.9443C42.7294 75.1983 43.0381 74.5294 43.5269 74.0406C44.0156 73.5519 44.6845 73.2432 45.4305 73.2432H64.6986C65.4446 73.2432 66.1135 73.5519 66.6023 74.0406C67.0911 74.5294 67.3998 75.1983 67.3998 75.9443C67.3998 76.6903 67.0911 77.3592 66.6023 77.848C66.1135 78.3367 65.4446 78.6454 64.6986 78.6454V80.5234C67.2197 80.5234 69.2777 78.4654 69.2777 75.9443C69.2777 73.4232 67.2197 71.3652 64.6986 71.3652H45.4305C42.9094 71.3652 40.8514 73.4232 40.8514 75.9443C40.8514 78.4654 42.9094 80.5234 45.4305 80.5234H64.6986V79.5715V79.5973Z" fill="#E0C64C"/>
<path d="M101.434 120.938C101.434 146.56 80.674 167.32 55.0518 167.32C52.8137 167.32 50.6271 167.166 48.4919 166.857C47.4886 166.703 46.4853 166.548 45.5078 166.342C34.8833 164.13 25.6222 158.265 19.0366 150.136C18.4964 149.467 17.9561 148.772 17.4416 148.052C12.3223 140.952 9.13243 132.334 8.74656 122.996C8.74656 122.661 8.74655 122.327 8.72083 121.992C8.72083 121.632 8.72083 121.272 8.72083 120.938C8.72083 120.552 8.72083 120.14 8.72083 119.754C9.26105 98.5053 24.1044 80.7807 43.99 75.8929C45.7136 75.4556 47.5143 75.1469 49.3151 74.9153C51.2187 74.6838 53.1481 74.5552 55.1032 74.5552C63.4896 74.5552 71.3615 76.7933 78.1787 80.6778C78.9247 81.1151 79.645 81.5524 80.3653 82.0155C93.0992 90.2732 101.511 104.628 101.511 120.912L101.434 120.938Z" fill="#E0C64C"/>
<g style="mix-blend-mode:soft-light" opacity="0.38">
<path d="M80.313 82.0413L79.4383 84.3309L78.0749 87.9581L77.6118 89.1929L51.1664 159.731L50.7034 160.94L49.3399 164.568L48.4653 166.883C47.462 166.728 46.4587 166.574 45.4811 166.368C34.8567 164.156 25.5956 158.291 19.01 150.161C18.4698 149.493 17.9295 148.798 17.415 148.078L18.4183 145.325L20.0647 140.849L20.6307 139.28L40.6963 84.7167L41.2622 83.1475L42.9086 78.6713L43.9119 75.9188C45.6355 75.4814 47.4363 75.1727 49.237 74.9412C51.1407 74.7097 53.0701 74.5811 55.0252 74.5811C63.4116 74.5811 71.2834 76.8191 78.1006 80.7036C78.8466 81.141 79.5669 81.5783 80.2872 82.0413H80.313Z" fill="#FFFB8C"/>
</g>
<path d="M86.1529 89.8614C84.0949 87.8034 81.8568 85.9769 79.4387 84.3563C72.4672 79.7 64.0808 76.9731 55.0512 76.9731C50.858 76.9731 46.7935 77.5648 42.9347 78.671C41.2368 79.1598 39.5647 79.7515 37.944 80.4203C32.6704 82.6327 27.937 85.874 23.9496 89.8357C16.0005 97.7848 11.0613 108.795 11.0613 120.937C11.0613 129.941 13.7624 138.328 18.4187 145.299C20.0393 147.717 21.8916 149.981 23.9496 152.039C30.6381 158.728 39.4875 163.281 49.3403 164.567C51.2182 164.824 53.1219 164.927 55.0512 164.927C67.1935 164.927 78.2039 159.988 86.1529 152.039C94.102 144.09 99.0412 133.08 99.0412 120.937C99.0412 108.795 94.1277 97.7848 86.1529 89.8357V89.8614ZM94.8223 127.06C94.7708 127.394 94.7194 127.729 94.6679 128.063C94.5393 128.732 94.4107 129.375 94.2563 130.018C94.1792 130.353 94.102 130.661 94.0248 130.996C93.7933 131.948 93.5103 132.9 93.1759 133.851C92.7643 135.086 92.2755 136.321 91.7353 137.504C91.5552 137.89 91.3751 138.302 91.1693 138.688C90.7834 139.459 90.3718 140.231 89.9602 140.977C89.6515 141.543 89.2914 142.083 88.957 142.624C88.5968 143.164 88.2367 143.704 87.8765 144.244C87.5163 144.759 87.1305 145.273 86.7189 145.788C86.333 146.302 85.9214 146.791 85.5098 147.28C84.8667 148 84.2235 148.721 83.5547 149.389C82.8601 150.084 82.1655 150.727 81.4452 151.37C80.339 152.322 79.1814 153.222 77.9981 154.046C76.5575 155.049 75.0654 155.949 73.4704 156.747C73.2132 156.875 72.9302 157.004 72.673 157.158C67.3736 159.731 61.4311 161.171 55.1284 161.171C53.6621 161.171 52.1958 161.094 50.7809 160.94C46.0732 160.425 41.6227 159.113 37.5582 157.133C37.0951 156.901 36.6578 156.695 36.2205 156.438C35.7831 156.207 35.3458 155.949 34.9085 155.718C34.4711 155.46 34.0595 155.203 33.6222 154.946C31.9244 153.866 30.3294 152.682 28.8116 151.37C28.0913 150.727 27.371 150.084 26.7022 149.389C26.3677 149.055 26.0333 148.695 25.6989 148.36C25.3645 148 25.0558 147.64 24.7213 147.28C24.3097 146.791 23.8981 146.302 23.5122 145.788C23.1264 145.273 22.7405 144.759 22.3546 144.244C21.9687 143.704 21.6086 143.19 21.2742 142.624C20.9397 142.083 20.5796 141.517 20.2709 140.977C20.2452 140.926 20.2194 140.874 20.1937 140.823C19.7821 140.103 19.4219 139.408 19.0618 138.662C18.856 138.276 18.6759 137.89 18.4958 137.479C17.9556 136.295 17.4668 135.06 17.0552 133.826C15.6918 129.787 14.9458 125.439 14.9458 120.937C14.9458 116.435 15.6918 112.088 17.0552 108.049C17.4668 106.814 17.9556 105.579 18.4958 104.396C18.6759 104.01 18.856 103.599 19.0618 103.213C19.4477 102.441 19.8593 101.669 20.2709 100.923C20.5796 100.357 20.9397 99.8171 21.2742 99.2768C21.6343 98.7366 21.9945 98.1964 22.3546 97.6561C22.7148 97.1416 23.1006 96.6271 23.5122 96.1126C23.8981 95.5981 24.3097 95.1094 24.7213 94.6206C25.03 94.2604 25.3645 93.9003 25.6989 93.5401C26.0333 93.18 26.3677 92.8455 26.7022 92.5111C27.3967 91.8165 28.0913 91.1734 28.8116 90.5303C30.8696 88.7553 33.1334 87.1603 35.5259 85.8226C36.3234 85.3853 37.1466 84.9479 37.9698 84.5621C38.2527 84.4334 38.5357 84.3048 38.8187 84.1762C39.3846 83.9189 39.9506 83.6874 40.5165 83.4559C40.7995 83.353 41.0825 83.2244 41.3912 83.1215C41.7514 82.9928 42.1115 82.8642 42.4717 82.7356C46.459 81.3979 50.7294 80.7033 55.1541 80.7033C63.7206 80.7033 71.644 83.3787 78.1781 87.932C79.0271 88.5237 79.876 89.1669 80.6735 89.8357C80.9307 90.0672 81.2137 90.273 81.471 90.5046C82.1913 91.1477 82.9116 91.7908 83.5804 92.4854C84.275 93.18 84.9181 93.8746 85.5355 94.5949C85.9471 95.0836 86.3587 95.5724 86.7446 96.0869C87.1305 96.6014 87.5164 97.1159 87.9022 97.6304C88.2881 98.1706 88.6483 98.6852 88.9827 99.2511C89.3171 99.7913 89.6773 100.357 89.986 100.898C90.4233 101.644 90.8092 102.415 91.195 103.187C91.4008 103.573 91.5809 103.959 91.761 104.37C92.3012 105.554 92.79 106.789 93.2016 108.023C93.5103 108.949 93.7933 109.901 94.0505 110.879C94.1277 111.213 94.2049 111.522 94.2821 111.856C94.4364 112.5 94.565 113.168 94.6937 113.812C94.7451 114.146 94.7966 114.48 94.848 114.815C94.9509 115.484 95.0281 116.153 95.1053 116.821C95.2339 118.185 95.3111 119.548 95.3111 120.937C95.3111 122.327 95.2339 123.69 95.1053 125.053C95.0281 125.722 94.9509 126.391 94.848 127.06H94.8223Z" fill="#FAE543"/>
<g style="mix-blend-mode:multiply">
<path d="M95.0795 116.821C95.0023 116.152 94.9251 115.483 94.8222 114.815C94.7708 114.48 94.7193 114.146 94.6679 113.811C94.5393 113.143 94.4107 112.499 94.2563 111.856C94.1791 111.522 94.1019 111.213 94.0248 110.879C93.7675 109.927 93.4845 108.975 93.1758 108.023C92.7385 106.788 92.2755 105.554 91.7352 104.37C91.5552 103.984 91.3751 103.573 91.1693 103.187C90.7834 102.415 90.3718 101.643 89.9602 100.897C89.6515 100.331 89.2913 99.7912 88.9569 99.2509C88.5968 98.7107 88.2366 98.1705 87.8765 97.6302C87.5163 97.1157 87.1304 96.6012 86.7188 96.0867C86.333 95.5722 85.9214 95.0835 85.5098 94.5947C84.8666 93.8744 84.2235 93.1541 83.5289 92.4852C82.8343 91.7906 82.1398 91.1475 81.4194 90.5044C81.1622 90.2729 80.905 90.0413 80.622 89.8355C79.8245 89.1667 78.9756 88.5493 78.1266 87.9319C71.6182 83.3785 63.6691 80.7031 55.1027 80.7031C50.6779 80.7031 46.4076 81.4234 42.4202 82.7354C42.06 82.864 41.6999 82.9669 41.3397 83.0956C41.0567 83.1985 40.7738 83.3271 40.4651 83.43C39.8991 83.6615 39.3074 83.893 38.7672 84.1503C38.4842 84.2789 38.2013 84.4075 37.9183 84.5362C37.0951 84.922 36.2719 85.3594 35.4744 85.7967C33.0819 87.1344 30.8439 88.7294 28.7601 90.5044C28.0398 91.1475 27.3195 91.7906 26.6507 92.4852C26.3162 92.8197 25.9818 93.1798 25.6474 93.5142C25.313 93.8744 25.0043 94.2345 24.6698 94.5947C24.2582 95.0835 23.8466 95.5722 23.4607 96.0867C23.0749 96.6012 22.689 97.1157 22.3031 97.6302C21.9172 98.1705 21.5571 98.685 21.2227 99.2509C20.8882 99.7912 20.5281 100.357 20.2194 100.897C19.7821 101.643 19.3962 102.415 19.0103 103.187C18.8045 103.573 18.6244 103.959 18.4444 104.37C17.9041 105.554 17.4411 106.788 17.0037 108.023C15.6403 112.062 14.8943 116.41 14.8943 120.911C14.8943 125.413 15.6403 129.761 17.0037 133.8C17.4411 135.035 17.9041 136.269 18.4444 137.453C18.6244 137.839 18.8045 138.25 19.0103 138.636C19.3705 139.356 19.7563 140.077 20.1422 140.771C20.1422 140.771 20.1937 140.874 20.2194 140.926C20.5281 141.492 20.8882 142.032 21.2227 142.572C21.5828 143.112 21.943 143.652 22.3031 144.193C22.6633 144.707 23.0491 145.222 23.4607 145.736C23.8466 146.251 24.2582 146.74 24.6698 147.228C24.9785 147.588 25.313 147.949 25.6474 148.309C25.9818 148.669 26.3162 149.003 26.6507 149.338C27.3452 150.032 28.0398 150.675 28.7601 151.319C30.2779 152.631 31.8729 153.814 33.5707 154.894C34.008 155.152 34.4197 155.435 34.857 155.666C35.2943 155.923 35.7316 156.155 36.169 156.386C36.6063 156.618 37.0693 156.849 37.5067 157.081C41.5712 159.062 46.0474 160.374 50.7294 160.888C52.17 161.043 53.6106 161.12 55.0769 161.12C61.3539 161.12 67.3221 159.679 72.6215 157.107C72.8787 156.978 73.1617 156.849 73.4189 156.695C74.9882 155.898 76.506 154.997 77.9466 153.994C79.1556 153.171 80.3133 152.27 81.3937 151.319C82.114 150.675 82.8343 150.032 83.5032 149.338C84.1978 148.643 84.8409 147.949 85.484 147.228C85.8956 146.74 86.3072 146.251 86.6931 145.736C87.079 145.222 87.4649 144.707 87.8507 144.193C88.2366 143.652 88.5968 143.138 88.9312 142.572C89.2656 142.032 89.6258 141.466 89.9345 140.926C90.3718 140.18 90.7577 139.408 91.1435 138.636C91.3493 138.25 91.5294 137.864 91.7095 137.453C92.2497 136.269 92.7128 135.035 93.1501 133.8C93.4588 132.874 93.7418 131.922 93.999 130.944C94.0762 130.61 94.1534 130.301 94.2306 129.967C94.3849 129.324 94.5135 128.655 94.6422 128.012C94.6936 127.677 94.7451 127.343 94.7965 127.008C94.8994 126.339 94.9766 125.671 95.0538 125.002C95.1824 123.638 95.2596 122.275 95.2596 120.886C95.2596 119.497 95.1824 118.133 95.0538 116.77L95.0795 116.821ZM82.6028 148.489C75.5541 155.537 65.8043 159.911 55.0512 159.911C53.7392 159.911 52.4272 159.859 51.1667 159.705C41.9571 158.779 33.6993 154.663 27.4996 148.489C24.7985 145.788 22.4832 142.675 20.6567 139.253C17.7498 133.8 16.0776 127.549 16.0776 120.937C16.0776 110.184 20.4252 100.434 27.4996 93.3856C31.2297 89.6555 35.7059 86.6714 40.7223 84.6905C45.1728 82.9155 50.0091 81.9637 55.0769 81.9637C63.489 81.9637 71.258 84.6133 77.6379 89.1667C79.4129 90.4272 81.085 91.8421 82.6285 93.3856C89.6772 100.434 94.0505 110.184 94.0505 120.937C94.0505 131.69 89.7029 141.44 82.6285 148.489H82.6028Z" fill="#F6F39E"/>
</g>
<path d="M54.8975 146.817C54.5888 147.589 54.2544 148.798 53.7656 148.798C53.3283 148.798 52.608 148.412 52.4794 147.923C52.4537 147.846 52.4537 147.743 52.4794 147.666C52.5823 147.074 53.7914 146.431 54.2544 145.659C55.7465 143.113 55.7208 139.563 55.3863 136.733C55.3863 136.656 55.3863 136.604 55.3606 136.527C55.3606 136.45 55.6178 136.424 55.7465 136.424C55.8751 136.424 56.1066 136.45 56.1066 136.527C56.1581 139.64 56.2095 143.601 54.9233 146.817H54.8975Z" fill="#DFC429"/>
<path d="M54.8972 146.817C54.5885 147.589 54.254 148.798 53.7653 148.798C53.3279 148.798 52.6076 148.412 52.479 147.923C53.1479 147.82 54.4598 147.435 54.8972 146.174C55.4888 144.425 56.2092 139.254 55.9519 138.148C55.8233 137.556 55.566 137.067 55.386 136.759C55.386 136.681 55.3859 136.63 55.3602 136.553C55.3602 136.476 55.6175 136.45 55.7461 136.45C55.8747 136.45 56.1063 136.476 56.1063 136.553C56.1577 139.666 56.2092 143.627 54.9229 146.843L54.8972 146.817Z" fill="#D9B800"/>
<path d="M76.5578 125.465C76.5578 125.465 77.6382 126.932 80.6995 125.98C83.7351 125.028 85.9732 124.874 85.9732 124.874C85.7674 125.002 82.5775 127.086 81.5742 128.629C80.5195 130.224 79.0788 132.437 76.5578 133.028C76.5578 133.028 76.5835 133.028 76.635 133.08C76.8922 133.311 77.7926 134.212 78.0241 135.447C78.2556 136.656 80.3136 136.321 80.9568 136.193C80.9825 136.193 81.0082 136.193 81.0597 136.167C81.0854 136.167 81.1111 136.167 81.1369 136.167C80.931 136.295 79.2589 137.247 77.4324 137.942C76.1205 138.431 73.9081 137.016 72.3389 136.913C71.5671 136.861 70.9754 137.119 70.6925 138.045C70.3838 139.125 74.474 138.765 75.8118 140.54C75.9918 140.772 76.1205 141.029 76.1719 141.338C76.6607 143.73 79.1818 143.473 79.9278 146.02C79.6705 145.917 77.2524 143.859 72.9048 145.016C71.953 145.274 71.1555 145.248 70.4867 145.016C67.9399 144.27 66.9109 141.106 65.0586 141.158C61.4057 141.235 56.1578 136.553 56.1578 136.553C56.132 136.553 55.9777 136.553 55.7976 136.553V88.3181V88.1123C55.7976 88.1123 55.7976 88.138 55.8233 88.1895C56.0291 88.7554 57.2125 91.8939 59.6306 94.6722C62.2546 97.682 60.2223 100.074 62.2803 100.795C64.3384 101.515 63.9268 98.2737 65.8561 97.6306C66.7565 97.3219 67.7855 96.0871 67.9141 95.9585C67.9141 95.9585 68.2743 99.1227 67.5025 102.055C67.2967 102.879 66.988 103.676 66.5507 104.396C66.2677 104.885 65.9076 105.322 65.496 105.683C62.6662 108.255 63.6952 110.622 65.4703 112.448C66.3192 113.323 68.4801 113.246 69.6377 111.625C69.9207 111.239 70.1265 110.776 70.2809 110.21C71.9015 103.419 78.4872 101.85 78.4872 101.85C78.4872 101.85 77.4839 106.814 78.5386 106.763C80.3651 106.712 82.7061 104.705 83.3492 104.834C83.5036 104.859 83.555 104.988 83.5036 105.297C83.0662 107.843 82.5775 108.692 83.9666 108.255C85.3558 107.843 86.5134 107.843 86.5134 107.843C86.5134 107.843 85.7674 110.853 84.5069 112.191C82.9376 113.863 80.8796 114.172 81.6514 117.387C82.0115 118.854 83.5293 117.645 85.3301 118.056C86.4362 118.314 87.6453 120.732 88.7772 120.166C88.7772 120.166 86.7707 122.738 84.301 122.378C83.7351 122.301 82.2688 123.716 80.468 124.102C78.2814 124.565 76.1719 124.102 76.635 125.465H76.5578Z" fill="#FCED75"/>
<path d="M55.6951 88.1124V88.2925V136.527C55.6951 136.527 55.4378 136.527 55.3349 136.527C55.3349 136.527 52.6338 138.945 49.7783 140.283C48.6721 140.797 47.5659 141.132 46.5369 141.132H46.434C44.6847 141.08 43.6557 143.962 41.3662 144.888C40.5944 145.196 39.7198 145.274 38.5879 144.991C34.2146 143.833 28.9409 146.097 28.6837 146.225C29.4297 143.679 32.7483 144.45 34.086 142.418C35.4237 140.386 38.202 141.029 38.1248 139.743C38.0734 139.022 36.2983 139.588 34.3689 138.868C32.5425 138.173 30.5616 136.27 30.3558 136.141C30.6131 136.193 33.3142 136.836 33.4686 135.447C33.6229 134.109 36.0925 133.774 38.0476 133.234C39.3339 132.874 40.3629 132.437 40.3629 131.562C40.3629 129.324 30.0214 132.771 29.2239 129.787C28.7609 128.012 25.6996 125.079 25.5195 124.899C25.5195 124.899 27.7319 125.054 30.7931 126.005C33.8287 126.957 34.2918 125.697 34.2918 125.697C34.7291 124.333 33.2885 124.616 31.0761 124.128C29.2754 123.742 30.2272 122.327 27.2431 122.404C22.7669 122.507 24.4133 116.461 24.4133 116.461C27.3974 117.928 29.3268 119.729 29.8928 117.362C31.2562 111.728 25.3909 108.024 25.0564 107.844C25.0564 107.844 26.2141 107.844 27.6032 108.255C28.9924 108.692 30.0214 106.995 28.0663 105.297C26.1112 103.599 26.4713 101.592 26.4713 101.592C26.4713 101.592 28.7351 105.014 32.491 103.805C33.237 103.573 33.3142 101.927 33.7258 100.409C34.0345 99.3028 34.8063 98.3253 34.8063 98.3253C36.607 100.358 34.3947 101.104 36.324 103.393C36.7614 103.908 37.173 104.371 37.5331 104.782C39.2567 106.712 40.4143 107.844 41.3147 110.159C42.4209 112.989 45.0706 113.477 46.0996 112.397C47.8489 110.596 43.7843 109.567 43.5014 105.348C43.5014 105.322 43.5014 105.297 43.5014 105.245C43.3985 103.599 45.0706 101.592 43.4499 99.843C40.9288 97.1419 44.0673 94.7752 44.0673 94.7752C44.0673 94.981 44.1188 96.8589 45.971 97.3734C49.3667 98.3253 48.3891 101.361 49.2895 100.795C50.1899 100.229 48.6978 98.7883 51.3218 95.7528C51.4761 95.5984 50.8073 94.7495 50.9102 93.5404C51.0388 92.1255 51.8877 90.299 51.8877 90.299C51.8877 90.299 53.4313 93.5404 53.5342 92.5371C53.8686 89.7331 55.798 88.0867 55.798 88.0867L55.6951 88.1124Z" fill="#FBE74D"/>
<path d="M63.3355 124.848C62.0235 125.8 59.8369 127.446 57.9847 128.861C61.0974 129.401 64.3131 128.912 67.4001 129.684C68.8149 130.07 70.2041 130.688 71.336 131.639C73.1368 131.536 75.0919 131.871 76.5325 133.003C75.1176 131.974 73.2911 131.691 71.5675 131.845C72.0306 132.257 72.4422 132.694 72.7766 133.209C74.7317 136.45 77.4586 137.299 81.0087 136.141C77.4071 137.402 74.6545 136.579 72.6223 133.311C71.3617 131.511 69.3809 130.507 67.2972 129.967C67.1428 129.942 66.9627 129.916 66.8084 129.864C67.2457 132.951 69.4323 135.601 72.2621 136.862C69.3294 135.652 67.0399 132.977 66.5511 129.839C63.6442 129.324 60.6086 129.736 57.7017 129.067C56.9557 129.633 56.2868 130.147 55.7723 130.559C55.7723 132.18 55.7723 133.775 55.7723 135.292C59.1166 135.652 62.5637 136.244 65.4964 137.916C67.22 138.971 68.4291 140.643 69.9211 141.955C71.4903 140.566 73.7284 140.437 75.7093 140.515C73.7799 140.489 71.5675 140.695 70.1012 142.084C70.2298 142.212 70.3842 142.341 70.5385 142.444C71.4646 143.19 72.648 143.01 73.7542 143.19C75.9665 143.524 78.2818 144.322 79.851 145.994C78.1789 144.45 75.9408 143.704 73.7284 143.396C72.6223 143.216 71.3617 143.396 70.4356 142.624C69.8954 142.212 69.4066 141.749 68.9436 141.261C68.6863 142.727 69.1494 144.116 70.4099 145.016C69.0465 144.116 68.6091 142.65 68.7635 141.08C67.7088 140 66.7055 138.894 65.4192 138.096C62.538 136.476 59.0651 135.858 55.8238 135.498V135.91C55.8238 136.09 55.8752 136.373 56.081 136.553C56.0553 136.553 55.9009 136.553 55.7209 136.553C55.618 136.553 55.4636 136.553 55.3607 136.553C55.5151 136.373 55.5922 136.116 55.5922 135.935V135.498C52.0164 135.935 48.1577 136.527 45.1736 138.688C44.2475 139.383 43.4757 140.232 42.6525 141.055C42.1637 142.315 41.8036 143.627 41.3662 144.888C41.7007 143.704 42.0608 142.547 42.3438 141.338C41.9322 141.749 41.5206 142.135 41.0575 142.495C39.514 143.653 37.3789 143.19 35.5781 143.653C33.3657 144.065 30.8961 144.45 29.0954 145.84C31.8479 143.602 35.8868 143.421 39.2825 143.01C39.514 142.984 39.7198 142.933 39.9514 142.856C39.7456 142.573 39.3597 142.392 38.9738 142.264C37.6618 141.827 36.2727 141.698 34.9092 141.595C36.2984 141.646 37.6876 141.724 39.0253 142.109C39.4369 142.238 39.8742 142.392 40.1572 142.804C40.9804 142.444 41.6749 141.724 42.2923 141.08C43.9902 139.254 45.8939 137.453 48.3635 136.733C50.7045 135.987 53.1226 135.421 55.5922 135.241C55.5922 133.723 55.5922 132.128 55.5922 130.482L53.7143 129.015C52.6596 129.221 51.6563 129.504 50.7559 130.07C49.8298 130.61 49.2124 131.536 48.5178 132.385C44.4532 137.016 35.8353 139.228 30.3302 136.116C34.8578 138.457 40.363 137.428 44.6848 135.035C42.3438 135.344 39.9771 134.366 37.9963 133.209C40.1572 134.392 42.7811 135.37 45.2507 134.726C45.4565 134.623 45.6623 134.495 45.8424 134.366C47.7975 133.234 48.6979 131.099 50.5758 129.839C51.4505 129.298 52.4538 129.041 53.4571 128.861C52.0679 127.806 48.7236 125.311 47.4116 124.333C46.537 124.025 45.6881 123.767 44.8134 123.51C43.2956 125.877 40.7488 127.189 38.2278 128.192C34.0089 129.993 29.5327 127.652 26.0083 125.234C29.5327 127.601 34.0089 129.89 38.1763 128.064C40.6202 127.086 43.167 125.697 44.6076 123.459C41.4691 122.584 38.2535 122.044 35.0121 121.761C31.0762 121.607 25.3652 121.144 24.3619 116.462C25.4167 121.118 31.0762 121.529 35.0121 121.658C39.0767 121.992 43.1156 122.713 47 123.973C44.5562 121.864 42.8326 119.111 40.9804 116.513C38.0992 115.664 34.8835 114.789 32.9284 112.346C30.8189 110.133 27.8091 108.976 25.0051 107.844C27.8348 108.95 30.8447 110.056 33.0056 112.268C34.8835 114.584 37.9705 115.433 40.7746 116.204C38.768 113.4 36.71 110.545 33.8802 108.512C31.2048 106.635 27.4489 104.885 26.3942 101.567C27.5004 104.834 31.282 106.532 33.9831 108.358C34.8321 108.95 35.6038 109.619 36.3241 110.313C35.8611 108.127 35.681 105.76 34.6005 103.805C34.1889 102.184 34.4976 100.461 34.6777 98.8141C34.5748 99.6888 34.5234 100.563 34.4719 101.438C34.4719 102.493 34.3433 103.599 35.0636 104.448C35.7839 106.454 36.1698 108.512 36.5814 110.596C38.2278 112.268 39.6169 114.172 40.9804 116.05C42.9869 118.828 44.8649 121.864 47.566 124.025C49.4697 125.465 52.994 128.089 54.8205 129.556C55.0006 129.71 55.3607 129.993 55.5922 130.224C55.5922 124.899 55.618 119.06 55.618 113.194C54.3574 111.445 53.0712 109.722 51.7849 107.998C49.0066 108.075 45.7652 107.715 43.7587 105.657C45.791 107.586 48.878 107.844 51.5791 107.715C50.6787 106.532 49.7784 105.374 48.8265 104.216C47.6689 102.699 46.3055 101.464 44.9935 100.1C43.733 98.6598 43.3985 96.5503 44.0159 94.7753C43.4757 96.576 43.8873 98.6083 45.1221 99.9975C46.4341 101.309 47.8747 102.57 49.0581 104.062C51.4248 106.866 53.5857 109.799 55.6694 112.834C55.6694 107.972 55.6951 103.11 55.7209 98.5311C53.0197 96.7818 51.965 93.3861 51.8621 90.3248C52.0164 93.3089 53.0969 96.576 55.7209 98.2739C55.7209 94.6724 55.7466 91.2509 55.7723 88.1382C55.798 91.2766 55.798 94.7495 55.8238 98.3511C55.8238 99.7917 55.8238 101.258 55.8238 102.724C58.4477 101.026 59.5025 97.7851 59.6825 94.7753C59.5796 97.8623 58.5249 101.232 55.8238 102.982C55.8238 106.223 55.8238 109.541 55.8238 112.86C57.7531 109.979 59.8369 107.226 62.075 104.602C63.2326 103.265 64.4417 101.953 65.7022 100.692C66.8341 99.3801 67.4258 97.605 67.8888 95.9329C67.503 97.6308 66.9885 99.4058 65.8308 100.795C64.6989 101.953 63.6185 103.162 62.5895 104.396C64.4674 104.448 66.3196 103.522 67.4772 102.03C66.3453 103.702 64.3645 104.757 62.3579 104.705C62.3322 104.731 62.3065 104.757 62.2808 104.782C60.017 107.509 57.8818 110.339 55.8495 113.246C55.8495 119.111 55.8495 124.977 55.8495 130.302C56.2868 129.89 57.0586 129.298 57.5216 128.938C58.705 128.012 61.9721 125.568 63.2069 124.616C65.8308 122.841 67.6059 120.14 69.4581 117.593C69.7668 117.182 70.0755 116.745 70.3842 116.333C71.7219 114.532 73.1625 112.757 74.8861 111.291C73.677 107.561 75.9665 104.396 78.4619 101.85C76.0437 104.422 73.8571 107.483 75.0661 111.136C75.3234 110.931 75.5549 110.725 75.8122 110.545C77.047 109.541 78.5905 108.976 79.8767 108.101C81.163 107.2 82.3206 106.094 83.3239 104.86C82.3464 106.094 81.2144 107.252 79.9539 108.178C78.6677 109.104 77.1499 109.67 75.9408 110.699C73.9857 112.217 72.365 114.095 70.8987 116.076C73.4969 114.712 76.2238 113.503 79.1822 113.297C82.2692 112.654 84.6359 110.236 86.5138 107.844C84.6616 110.262 82.2949 112.706 79.2079 113.4C76.1209 113.632 73.2654 114.995 70.59 116.462C70.2813 116.873 69.9726 117.31 69.6639 117.748C68.1718 119.78 66.7312 121.967 64.8533 123.716C68.3776 122.018 72.3136 121.195 76.1981 121.375C80.2112 121.735 84.5845 122.455 88.2889 120.5C84.6102 122.507 80.2112 121.838 76.1981 121.478C72.9567 121.375 69.6639 121.941 66.6283 123.15C67.5801 125.671 70.4356 126.854 72.9052 127.42C77.1499 128.398 81.3688 126.546 85.3819 125.131C81.3945 126.597 77.1499 128.501 72.8795 127.549C70.3327 127.009 67.4515 125.825 66.4225 123.227C65.6508 123.536 64.9047 123.896 64.1844 124.282C63.9272 124.488 63.6699 124.694 63.387 124.899L63.3355 124.848Z" fill="#FADD00"/>
<path opacity="0.29" d="M67.4253 102.03C67.2195 102.853 66.9108 103.65 66.4734 104.371C64.7756 105.451 62.5632 106.377 60.994 106.326C60.8654 106.326 60.7625 106.326 60.6338 106.3H60.6081C58.0613 105.914 60.1965 100.409 59.1161 98.1452C59.1161 98.0938 59.0903 98.0681 59.0646 98.0423C58.9617 97.8108 58.7816 97.6307 58.6016 97.5021C56.4921 96.01 55.7718 88.7298 55.7203 88.3182C55.7203 88.3182 55.7203 88.2411 55.7461 88.2153C55.9519 88.7813 57.1352 91.894 59.5534 94.6981C62.1773 97.7079 60.145 100.1 62.2031 100.821C64.2611 101.541 63.8495 98.2996 65.7789 97.6564C66.6792 97.3477 67.7082 96.1129 67.8369 95.9843C67.8369 95.9843 68.197 99.1485 67.4253 102.081V102.03Z" fill="#FEF6BD"/>
<path opacity="0.29" d="M76.5583 125.466C76.5583 125.466 77.6387 126.932 80.7 125.981C83.7356 125.029 85.9737 124.874 85.9737 124.874C85.7679 125.003 82.578 127.087 81.5747 128.63C80.52 130.225 79.0793 132.438 76.5583 133.029C76.5583 133.029 76.584 133.029 76.6355 133.081C75.1948 133.312 73.9086 133.287 72.6995 133.081C72.5966 133.081 72.5194 133.055 72.4165 133.029C70.3328 132.592 68.532 131.589 66.9114 130.302C66.8342 130.225 66.757 130.174 66.6541 130.097C66.5512 130.019 66.4483 129.942 66.3454 129.839C66.2168 129.711 66.0624 129.582 65.9081 129.454C64.7762 128.425 63.7214 127.241 62.6924 126.058C62.5638 125.903 62.4609 125.775 62.358 125.646C62.2808 125.569 62.2294 125.466 62.1779 125.389C58.808 120.733 65.0334 120.424 68.7378 117.491C71.4133 115.382 70.4357 112.964 69.561 111.652C69.844 111.266 70.0498 110.803 70.2042 110.237C71.8249 103.445 78.4105 101.876 78.4105 101.876C78.4105 101.876 77.4072 106.841 78.462 106.79C80.2884 106.738 82.6294 104.732 83.2725 104.86C83.4269 104.886 83.4783 105.015 83.4269 105.323C82.9896 107.87 82.5008 108.719 83.8899 108.282C85.2791 107.87 86.4367 107.87 86.4367 107.87C86.4367 107.87 85.6907 110.88 84.4302 112.218C82.861 113.89 80.8029 114.199 81.5747 117.414C81.9348 118.881 83.4526 117.671 85.2534 118.083C86.3596 118.34 87.5686 120.758 88.7005 120.193C88.7005 120.193 86.694 122.765 84.2244 122.405C83.6584 122.328 82.1921 123.743 80.3913 124.128C78.2047 124.591 76.0952 124.128 76.5583 125.492V125.466Z" fill="#FEF6BD"/>
<g style="mix-blend-mode:color-burn">
<path d="M55.3347 136.527C55.3347 136.527 52.6335 138.945 49.778 140.283C48.6719 140.797 47.5657 141.132 46.5367 141.132H46.4338C44.6845 141.08 43.6555 143.962 41.3659 144.888C40.5942 145.196 39.7195 145.274 38.5876 144.991C34.2143 143.833 28.9407 146.097 28.6834 146.225C29.4295 143.679 32.748 144.45 34.0857 142.418C35.4234 140.386 38.2017 141.029 38.1246 139.743C38.0731 139.022 36.2981 139.588 34.3687 138.868C32.5422 138.173 30.5614 136.27 30.3556 136.141C30.6128 136.193 33.314 136.836 33.4683 135.447C33.6227 134.109 36.0923 133.774 38.0474 133.234C39.3336 132.874 40.3626 132.437 40.3626 131.562C40.3626 129.324 30.0211 132.771 29.2237 129.787C28.7606 128.012 25.6993 125.079 25.5193 124.899C25.5193 124.899 27.7316 125.054 30.7929 126.005C33.8285 126.957 34.2915 125.697 34.2915 125.697C34.7288 124.333 33.2882 124.616 31.0759 124.127C29.2751 123.742 30.2269 122.327 27.2428 122.404C22.7667 122.507 24.4131 116.461 24.4131 116.461C27.3972 117.928 29.3266 119.729 29.8925 117.362C31.2559 111.728 25.3906 108.024 25.0562 107.843C25.0562 107.843 26.2138 107.843 27.603 108.255C28.9921 108.692 30.0211 106.995 28.066 105.297C26.1109 103.599 26.4711 101.592 26.4711 101.592C26.4711 101.592 28.7349 105.014 32.4908 103.805C33.2368 103.573 33.314 101.927 33.7256 100.409C34.0343 99.3028 34.806 98.3252 34.806 98.3252C36.6068 100.357 34.3944 101.104 36.3238 103.393C36.7611 103.908 37.1727 104.371 37.5329 104.782C37.0184 105.297 36.3753 105.966 35.835 106.763C35.8093 106.814 35.7578 106.84 35.7321 106.892C35.3462 107.483 34.9861 108.152 34.7288 108.847C34.7031 108.898 34.6774 108.95 34.6517 109.027C34.2401 110.262 34.1114 111.625 34.5745 113.066C34.6517 113.297 34.7031 113.529 34.7546 113.786C34.7803 113.837 34.806 113.915 34.806 113.966C35.3977 116.564 34.9346 119.163 35.2433 121.632C35.2433 121.684 35.2433 121.709 35.2433 121.735C35.4491 127.446 40.0539 126.314 42.1634 129.916C43.5526 132.282 39.6938 136.012 45.0961 139.202C47.8229 140.823 54.3314 135.987 55.3861 136.476L55.3347 136.527Z" fill="#D9CA7A"/>
</g>
<path d="M108.998 0.106934L65.1107 73.3721H44.865L88.7263 0.106934H108.998Z" fill="#F8BF21"/>
<path d="M100.379 0.106934L56.5177 73.3721H54.3311L98.1924 0.106934H100.379Z" fill="#E04C4C"/>
</svg>
