<svg width="109" height="168" viewBox="0 0 109 168" fill="none" xmlns="http://www.w3.org/2000/svg">
<path d="M0.977295 0.106934H21.2229L65.11 73.372H44.8386L0.977295 0.106934Z" fill="#E8DB21"/>
<path d="M64.698 79.5973V78.6454H45.4299C44.6839 78.6454 44.015 78.3367 43.5262 77.848C43.0375 77.3592 42.7288 76.6903 42.7288 75.9443C42.7288 75.1983 43.0375 74.5294 43.5262 74.0406C44.015 73.5519 44.6839 73.2432 45.4299 73.2432H64.698C65.444 73.2432 66.1129 73.5519 66.6016 74.0406C67.0904 74.5294 67.3991 75.1983 67.3991 75.9443C67.3991 76.6903 67.0904 77.3592 66.6016 77.848C66.1129 78.3367 65.444 78.6454 64.698 78.6454V80.5234C67.219 80.5234 69.2771 78.4654 69.2771 75.9443C69.2771 73.4232 67.219 71.3652 64.698 71.3652H45.4299C42.9088 71.3652 40.8508 73.4232 40.8508 75.9443C40.8508 78.4654 42.9088 80.5234 45.4299 80.5234H64.698V79.5715V79.5973Z" fill="#E0C64C"/>
<path d="M101.433 120.938C101.433 146.56 80.6733 167.32 55.0511 167.32C52.813 167.32 50.6264 167.166 48.4912 166.857C47.488 166.702 46.4847 166.548 45.5071 166.342C34.8826 164.13 25.6216 158.265 19.036 150.136C18.4958 149.467 17.9555 148.772 17.441 148.052C12.3217 140.952 9.13182 132.334 8.74595 122.996C8.74595 122.661 8.74594 122.327 8.72021 121.992C8.72021 121.632 8.72021 121.272 8.72021 120.938C8.72021 120.552 8.72021 120.14 8.72021 119.754C9.26044 98.5052 24.1038 80.7806 43.9893 75.8929C45.7129 75.4556 47.5137 75.1469 49.3144 74.9153C51.2181 74.6838 53.1475 74.5552 55.1026 74.5552C63.489 74.5552 71.3608 76.7933 78.178 80.6777C78.924 81.1151 79.6443 81.5524 80.3646 82.0155C93.0986 90.2732 101.511 104.628 101.511 120.912L101.433 120.938Z" fill="#E0C64C"/>
<path d="M61.1741 129.479C59.8107 129.118 58.3958 128.964 57.0067 128.964C51.8359 128.964 46.6909 131.254 43.0379 134.881C39.6937 138.174 38.1759 142.778 38.1759 147.383C38.1759 149.364 38.4589 151.319 38.9991 153.197L39.1535 153.274L39.2564 153.12C38.7933 151.371 38.5618 149.544 38.5618 147.718C38.5618 143.087 40.0796 138.482 43.4238 135.241C46.9996 131.794 51.9645 129.556 56.9552 129.556C58.3186 129.556 59.6821 129.71 61.0198 130.07C65.8047 131.279 71.4385 135.344 72.0559 140.515C72.0816 140.798 72.1073 141.081 72.1073 141.364C72.1073 143.627 71.1555 145.968 69.0975 147.049C68.3257 147.486 67.4511 147.692 66.5507 147.692C65.8818 147.692 65.213 147.563 64.5956 147.306C62.9749 146.714 61.7658 145.377 61.7658 143.936C61.7658 143.267 62.0231 142.573 62.6147 141.904C63.1293 141.312 63.7981 140.849 64.5184 140.489L64.5699 140.309L64.3898 140.257C63.6695 140.618 62.9492 141.081 62.3832 141.698C61.6886 142.418 61.4057 143.216 61.4057 143.988C61.4057 145.608 62.7176 147.049 64.4412 147.718C65.2387 148.001 65.9847 148.155 66.705 148.155C70.1779 148.155 72.6733 144.991 72.6733 141.364C72.6733 141.055 72.6733 140.772 72.6218 140.463C71.9787 134.984 66.1648 130.739 61.1741 129.453V129.479Z" fill="#705F00" stroke="#705F00" stroke-width="0.257251" stroke-linejoin="round"/>
<path d="M62.5371 110.262V110.082H62.357C58.9356 113.503 55.0254 116.513 50.5749 118.34C46.0988 120.192 41.2882 121.427 37.1979 124.153C31.2554 127.858 28.297 132.9 28.297 138.714C28.297 141.929 29.1974 145.351 30.9724 148.927L31.1525 148.978L31.2039 148.798C29.5833 145.402 28.6829 141.981 28.6829 138.765C28.6829 134.238 30.4836 130.07 34.6254 126.777C44.8897 118.571 51.7068 121.812 62.5628 110.236L62.5371 110.262Z" fill="#705F00" stroke="#705F00" stroke-width="0.257251" stroke-linejoin="round"/>
<path d="M29.1976 127.986H29.3777C32.7991 123.356 37.6097 119.754 42.9863 117.773C45.7131 116.821 48.4143 115.715 51.0125 114.403C55.5144 112.011 60.7366 108.744 61.7399 103.264C61.817 102.827 61.8428 102.364 61.8428 101.927C61.8428 99.637 60.9424 97.3732 59.1416 95.9068C57.9068 94.9036 56.3633 94.2604 54.7427 94.209H54.6655C52.556 94.209 49.9321 95.3152 49.2889 97.5275C49.2375 97.7848 49.2118 98.0163 49.2118 98.2735C49.2118 99.1739 49.5976 100.049 50.0864 100.769C50.8067 101.901 52.0672 102.364 53.3278 102.364C53.9452 102.364 54.5883 102.261 55.1542 102.055L55.2314 101.901L55.0771 101.824C54.5368 102.004 53.9452 102.081 53.3792 102.081C52.556 102.081 51.7328 101.875 51.0897 101.361C50.2665 100.64 49.6748 99.4826 49.6748 98.3764C49.6748 98.1449 49.7005 97.9134 49.752 97.6819C50.1121 96.3442 51.4241 95.521 52.7104 95.0836C53.302 94.8778 53.8937 94.7749 54.5111 94.7749C56.1318 94.7749 57.7782 95.4952 58.9873 96.5757C60.5308 97.9134 61.2768 99.92 61.2768 101.952C61.2768 102.39 61.2511 102.801 61.1739 103.213C60.1964 108.384 55.1543 111.573 50.781 113.914C48.2342 115.252 45.5588 116.307 42.8319 117.31C37.3782 119.368 32.5676 123.098 29.2233 127.857V128.037L29.1976 127.986Z" fill="#705F00" stroke="#705F00" stroke-width="0.257251" stroke-linejoin="round"/>
<path d="M72.1074 99.3542C71.7473 102.081 70.8211 104.782 69.2776 107.046C66.9367 110.519 63.721 113.323 60.1709 115.535L60.1195 115.715L60.2996 115.767C65.1874 113.014 69.6892 108.95 71.7472 103.599C72.4675 101.464 72.8534 99.1999 72.8534 96.9618C72.8534 96.5502 72.8534 96.1386 72.802 95.7013C72.5447 92.7172 71.5157 89.6559 69.4063 87.4692H69.2262V87.6493C71.3871 90.1704 72.2875 93.5146 72.2875 96.8075C72.2875 97.6821 72.236 98.531 72.1074 99.38V99.3542Z" fill="#705F00" stroke="#705F00" stroke-width="0.257251" stroke-linejoin="round"/>
<path d="M69.869 115.947C66.1646 118.803 61.6112 120.526 56.9807 121.324L56.8778 121.478L57.0064 121.581C62.0228 121.015 66.9878 119.137 70.9237 115.896C72.4929 114.507 73.9078 112.937 75.0912 111.188C76.4289 109.207 77.5093 107.046 78.1782 104.757L78.101 104.603L77.9467 104.68C77.1492 106.892 76.0173 108.976 74.6539 110.905C73.2904 112.809 71.7212 114.584 69.8433 115.973L69.869 115.947Z" fill="#705F00" stroke="#705F00" stroke-width="0.257251" stroke-linejoin="round"/>
<path d="M42.549 128.269C44.5041 126.674 46.7164 125.388 49.006 124.565L49.0831 124.411L48.9288 124.333C46.5878 125.028 44.2468 126.289 42.2146 127.858C37.1724 131.717 34.6514 137.247 34.6514 142.084C34.6514 143.396 34.8314 144.656 35.2173 145.814L35.3717 145.891L35.4746 145.737C35.2688 144.785 35.1659 143.807 35.1659 142.778C35.1659 137.865 37.5069 132.257 42.5747 128.244L42.549 128.269Z" fill="#705F00" stroke="#705F00" stroke-width="0.257251" stroke-linejoin="round"/>
<path d="M60.6335 90.1191H60.685C61.3024 90.1191 61.8941 89.8103 62.2285 89.2958C62.2285 89.2958 62.2285 89.2958 62.2542 89.2958V89.1158L62.0484 89.1415C61.7397 89.5788 61.2509 89.7589 60.7622 89.7589C60.1962 89.7589 59.6303 89.5017 59.2701 89.0643C58.9614 88.7042 58.8328 88.2926 58.8328 87.881C58.8328 87.2893 59.1158 86.7233 59.656 86.3117C60.2734 85.7972 60.968 85.5914 61.6883 85.5914C63.0774 85.5914 64.5437 86.4146 65.5213 87.4694C68.3511 90.2991 69.2514 94.4409 69.2514 98.4025C69.2514 99.0714 69.2514 99.7145 69.1743 100.358L69.2772 100.486L69.4058 100.383C69.5344 99.4058 69.6116 98.3768 69.6116 97.3478C69.6116 93.5919 68.634 89.7589 65.9329 87.032C64.8782 85.9001 63.2575 84.9998 61.6883 84.9998C60.8393 84.9998 59.9904 85.257 59.2958 85.8744C58.6527 86.3889 58.344 87.1092 58.344 87.7781C58.344 88.9357 59.2186 90.0419 60.6335 90.0933V90.1191Z" fill="#705F00" stroke="#705F00" stroke-width="0.257251" stroke-linejoin="round"/>
<path d="M86.7702 116.41C87.9535 115.021 88.8282 113.04 88.8282 111.162C88.8282 109.798 88.3651 108.486 87.2589 107.483C86.5901 106.814 85.7669 106.506 84.9694 106.506C83.3744 106.506 81.9338 107.74 81.9081 109.618V109.876C81.9853 110.725 82.4998 111.496 83.2201 111.856L83.4002 111.805L83.3487 111.625C82.6284 111.213 82.294 110.467 82.294 109.67C82.294 109.001 82.5512 108.332 83.04 107.869C83.5545 107.329 84.1976 107.072 84.815 107.072C85.5096 107.072 86.2299 107.38 86.7959 107.972C87.722 108.872 88.1078 110.004 88.1078 111.162C88.1078 112.86 87.2847 114.686 86.1528 115.972C82.2683 120.886 75.6312 122.532 69.5858 122.815L69.4572 122.944L69.5858 123.073H70.1775C76.1971 123.073 82.7828 121.375 86.7187 116.461L86.7702 116.41Z" fill="#705F00" stroke="#705F00" stroke-width="0.257251" stroke-linejoin="round"/>
<path d="M79.1042 138.508C78.0238 131.639 72.6987 127.677 66.8591 127.652L66.7305 127.78L66.8591 127.909C72.4672 128.423 77.3807 131.999 78.5897 138.61C78.7184 139.254 78.7698 139.897 78.7698 140.566C78.7698 141.929 78.4868 143.267 77.818 144.373L77.8694 144.553H78.0495C78.0495 144.553 78.0495 144.527 78.0495 144.502C78.8984 143.318 79.2586 141.775 79.2586 140.205C79.2586 139.639 79.2071 139.074 79.13 138.533L79.1042 138.508Z" fill="#705F00" stroke="#705F00" stroke-width="0.257251" stroke-linejoin="round"/>
<g style="mix-blend-mode:soft-light" opacity="0.38">
<path d="M80.2878 82.0413L79.4131 84.3309L78.0497 87.9581L77.5866 89.1929L51.1412 159.731L50.6782 160.94L49.3148 164.567L48.4401 166.883C47.4368 166.728 46.4335 166.574 45.456 166.368C34.8315 164.156 25.5705 158.291 18.9849 150.161C18.4446 149.493 17.9044 148.798 17.3899 148.078L18.3932 145.325L20.0396 140.849L20.6055 139.28L40.6711 84.7167L41.2371 83.1475L42.8835 78.6713L43.8868 75.9188C45.6103 75.4814 47.4111 75.1727 49.2118 74.9412C51.1155 74.7097 53.0449 74.5811 55 74.5811C63.3864 74.5811 71.2583 76.8191 78.0754 80.7036C78.8214 81.141 79.5417 81.5783 80.262 82.0413H80.2878Z" fill="#FFFB8C"/>
</g>
<path d="M86.1529 89.8614C84.0948 87.8034 81.8568 85.9769 79.4386 84.3562C72.4671 79.7 64.0807 76.9731 55.0512 76.9731C50.858 76.9731 46.7934 77.5648 42.9347 78.671C41.2368 79.1598 39.5647 79.7515 37.944 80.4203C32.6704 82.6327 27.937 85.874 23.9496 89.8357C16.0005 97.7848 11.0613 108.795 11.0613 120.937C11.0613 129.941 13.7624 138.328 18.4187 145.299C20.0393 147.717 21.8916 149.981 23.9496 152.039C30.6381 158.728 39.4875 163.281 49.3402 164.567C51.2182 164.824 53.1218 164.927 55.0512 164.927C67.1934 164.927 78.2038 159.988 86.1529 152.039C94.1019 144.09 99.0411 133.08 99.0411 120.937C99.0411 108.795 94.1276 97.7848 86.1529 89.8357V89.8614ZM94.8222 127.06C94.7707 127.394 94.7193 127.729 94.6679 128.063C94.5392 128.732 94.4106 129.375 94.2562 130.018C94.1791 130.353 94.1019 130.661 94.0247 130.996C93.7932 131.948 93.5102 132.9 93.1758 133.851C92.7642 135.086 92.2754 136.321 91.7352 137.504C91.5551 137.89 91.375 138.302 91.1692 138.688C90.7834 139.459 90.3718 140.231 89.9602 140.977C89.6515 141.543 89.2913 142.083 88.9569 142.624C88.5967 143.164 88.2366 143.704 87.8764 144.244C87.5163 144.759 87.1304 145.273 86.7188 145.788C86.3329 146.302 85.9213 146.791 85.5097 147.28C84.8666 148 84.2235 148.72 83.5546 149.389C82.86 150.084 82.1655 150.727 81.4452 151.37C80.339 152.322 79.1813 153.222 77.998 154.046C76.5574 155.049 75.0653 155.949 73.4704 156.747C73.2131 156.875 72.9301 157.004 72.6729 157.158C67.3735 159.731 61.431 161.171 55.1284 161.171C53.662 161.171 52.1957 161.094 50.7808 160.94C46.0731 160.425 41.6227 159.113 37.5581 157.133C37.0951 156.901 36.6578 156.695 36.2204 156.438C35.7831 156.206 35.3458 155.949 34.9084 155.718C34.4711 155.46 34.0595 155.203 33.6222 154.946C31.9243 153.865 30.3294 152.682 28.8116 151.37C28.0913 150.727 27.371 150.084 26.7021 149.389C26.3677 149.055 26.0333 148.695 25.6989 148.36C25.3644 148 25.0557 147.64 24.7213 147.28C24.3097 146.791 23.8981 146.302 23.5122 145.788C23.1263 145.273 22.7405 144.759 22.3546 144.244C21.9687 143.704 21.6086 143.19 21.2741 142.624C20.9397 142.083 20.5796 141.517 20.2709 140.977C20.2451 140.926 20.2194 140.874 20.1937 140.823C19.7821 140.103 19.4219 139.408 19.0618 138.662C18.856 138.276 18.6759 137.89 18.4958 137.479C17.9556 136.295 17.4668 135.06 17.0552 133.826C15.6918 129.787 14.9458 125.439 14.9458 120.937C14.9458 116.435 15.6918 112.088 17.0552 108.049C17.4668 106.814 17.9556 105.579 18.4958 104.396C18.6759 104.01 18.856 103.599 19.0618 103.213C19.4477 102.441 19.8593 101.669 20.2709 100.923C20.5796 100.357 20.9397 99.817 21.2741 99.2768C21.6343 98.7366 21.9944 98.1963 22.3546 97.6561C22.7147 97.1416 23.1006 96.6271 23.5122 96.1126C23.8981 95.5981 24.3097 95.1093 24.7213 94.6206C25.03 94.2604 25.3644 93.9003 25.6989 93.5401C26.0333 93.18 26.3677 92.8455 26.7021 92.5111C27.3967 91.8165 28.0913 91.1734 28.8116 90.5303C30.8696 88.7552 33.1334 87.1603 35.5259 85.8226C36.3233 85.3853 37.1465 84.9479 37.9697 84.5621C38.2527 84.4334 38.5357 84.3048 38.8187 84.1762C39.3846 83.9189 39.9506 83.6874 40.5165 83.4559C40.7995 83.353 41.0825 83.2243 41.3912 83.1214C41.7513 82.9928 42.1115 82.8642 42.4716 82.7356C46.459 81.3979 50.7294 80.7033 55.1541 80.7033C63.7206 80.7033 71.6439 83.3787 78.1781 87.932C79.027 88.5237 79.8759 89.1668 80.6734 89.8357C80.9306 90.0672 81.2136 90.273 81.4709 90.5045C82.1912 91.1477 82.9115 91.7908 83.5803 92.4854C84.2749 93.18 84.918 93.8745 85.5354 94.5948C85.947 95.0836 86.3586 95.5724 86.7445 96.0869C87.1304 96.6014 87.5163 97.1159 87.9022 97.6304C88.288 98.1706 88.6482 98.6851 88.9826 99.2511C89.317 99.7913 89.6772 100.357 89.9859 100.897C90.4232 101.644 90.8091 102.415 91.195 103.187C91.4008 103.573 91.5808 103.959 91.7609 104.37C92.3011 105.554 92.7899 106.789 93.2015 108.023C93.5102 108.949 93.7932 109.901 94.0504 110.879C94.1276 111.213 94.2048 111.522 94.282 111.856C94.4363 112.5 94.5649 113.168 94.6936 113.811C94.745 114.146 94.7965 114.48 94.8479 114.815C94.9508 115.484 95.028 116.152 95.1052 116.821C95.2338 118.185 95.311 119.548 95.311 120.937C95.311 122.326 95.2338 123.69 95.1052 125.053C95.028 125.722 94.9508 126.391 94.8479 127.06H94.8222Z" fill="#FAE543"/>
<g style="mix-blend-mode:multiply">
<path d="M95.0794 116.821C95.0023 116.152 94.9251 115.483 94.8222 114.815C94.7707 114.48 94.7193 114.146 94.6678 113.811C94.5392 113.142 94.4106 112.499 94.2562 111.856C94.179 111.522 94.1019 111.213 94.0247 110.879C93.7674 109.927 93.4845 108.975 93.1758 108.023C92.7384 106.788 92.2754 105.554 91.7352 104.37C91.5551 103.984 91.375 103.573 91.1692 103.187C90.7833 102.415 90.3717 101.643 89.9601 100.897C89.6514 100.331 89.2913 99.7911 88.9568 99.2509C88.5967 98.7107 88.2365 98.1705 87.8764 97.6302C87.5162 97.1157 87.1304 96.6012 86.7188 96.0867C86.3329 95.5722 85.9213 95.0834 85.5097 94.5947C84.8666 93.8744 84.2234 93.1541 83.5288 92.4852C82.8343 91.7906 82.1397 91.1475 81.4194 90.5044C81.1621 90.2729 80.9049 90.0413 80.6219 89.8355C79.8244 89.1667 78.9755 88.5493 78.1266 87.9319C71.6181 83.3785 63.6691 80.7031 55.1026 80.7031C50.6779 80.7031 46.4075 81.4234 42.4202 82.7354C42.06 82.864 41.6998 82.9669 41.3397 83.0956C41.0567 83.1985 40.7737 83.3271 40.465 83.43C39.8991 83.6615 39.3074 83.893 38.7672 84.1503C38.4842 84.2789 38.2012 84.4075 37.9183 84.5362C37.0951 84.922 36.2718 85.3594 35.4744 85.7967C33.0819 87.1344 30.8438 88.7293 28.7601 90.5044C28.0398 91.1475 27.3195 91.7906 26.6507 92.4852C26.3162 92.8196 25.9818 93.1798 25.6474 93.5142C25.313 93.8744 25.0043 94.2345 24.6698 94.5947C24.2582 95.0834 23.8466 95.5722 23.4607 96.0867C23.0749 96.6012 22.689 97.1157 22.3031 97.6302C21.9173 98.1705 21.5571 98.685 21.2227 99.2509C20.8882 99.7911 20.5281 100.357 20.2194 100.897C19.7821 101.643 19.3962 102.415 19.0103 103.187C18.8045 103.573 18.6244 103.959 18.4444 104.37C17.9041 105.554 17.4411 106.788 17.0037 108.023C15.6403 112.062 14.8943 116.41 14.8943 120.911C14.8943 125.413 15.6403 129.761 17.0037 133.8C17.4411 135.035 17.9041 136.269 18.4444 137.453C18.6244 137.839 18.8045 138.25 19.0103 138.636C19.3705 139.356 19.7563 140.077 20.1422 140.771C20.1422 140.771 20.1937 140.874 20.2194 140.926C20.5281 141.492 20.8882 142.032 21.2227 142.572C21.5828 143.112 21.943 143.652 22.3031 144.193C22.6633 144.707 23.0491 145.222 23.4607 145.736C23.8466 146.251 24.2582 146.739 24.6698 147.228C24.9785 147.588 25.313 147.949 25.6474 148.309C25.9818 148.669 26.3162 149.003 26.6507 149.338C27.3452 150.032 28.0398 150.675 28.7601 151.319C30.2779 152.63 31.8729 153.814 33.5707 154.894C34.008 155.152 34.4196 155.435 34.857 155.666C35.2943 155.923 35.7316 156.155 36.169 156.386C36.6063 156.618 37.0693 156.849 37.5067 157.081C41.5712 159.062 46.0474 160.374 50.7293 160.888C52.17 161.043 53.6106 161.12 55.0769 161.12C61.3538 161.12 67.322 159.679 72.6214 157.107C72.8787 156.978 73.1616 156.849 73.4189 156.695C74.9881 155.898 76.5059 154.997 77.9465 153.994C79.1556 153.171 80.3132 152.27 81.3937 151.319C82.114 150.675 82.8343 150.032 83.5031 149.338C84.1977 148.643 84.8408 147.949 85.484 147.228C85.8956 146.739 86.3072 146.251 86.693 145.736C87.0789 145.222 87.4648 144.707 87.8507 144.193C88.2365 143.652 88.5967 143.138 88.9311 142.572C89.2655 142.032 89.6257 141.466 89.9344 140.926C90.3717 140.18 90.7576 139.408 91.1435 138.636C91.3493 138.25 91.5294 137.864 91.7094 137.453C92.2497 136.269 92.7127 135.035 93.15 133.8C93.4588 132.874 93.7417 131.922 93.999 130.944C94.0762 130.61 94.1533 130.301 94.2305 129.967C94.3848 129.324 94.5135 128.655 94.6421 128.012C94.6936 127.677 94.745 127.343 94.7965 127.008C94.8994 126.339 94.9765 125.671 95.0537 125.002C95.1823 123.638 95.2595 122.275 95.2595 120.886C95.2595 119.497 95.1823 118.133 95.0537 116.77L95.0794 116.821ZM82.6027 148.489C75.5541 155.537 65.8043 159.911 55.0512 159.911C53.7392 159.911 52.4272 159.859 51.1667 159.705C41.9571 158.779 33.6993 154.663 27.4996 148.489C24.7985 145.788 22.4832 142.675 20.6567 139.253C17.7498 133.8 16.0776 127.549 16.0776 120.937C16.0776 110.184 20.4252 100.434 27.4996 93.3856C31.2297 89.6554 35.7059 86.6713 40.7223 84.6905C45.1727 82.9155 50.0091 81.9636 55.0769 81.9636C63.489 81.9636 71.258 84.6133 77.6378 89.1667C79.4128 90.4272 81.085 91.8421 82.6285 93.3856C89.6772 100.434 94.0504 110.184 94.0504 120.937C94.0504 131.69 89.7029 141.44 82.6285 148.489H82.6027Z" fill="#F6F39E"/>
</g>
<path d="M108.997 0.106934H88.7257L44.8386 73.372H65.11L108.997 0.106934Z" fill="#FFF024"/>
</svg>
