<svg width="109" height="168" viewBox="0 0 109 168" fill="none" xmlns="http://www.w3.org/2000/svg">
<path d="M0.977295 0.106934H21.2487L65.1357 73.372H44.8643L0.977295 0.106934Z" fill="#C40096"/>
<path d="M64.7241 79.5716V78.6198H45.456C44.71 78.6198 44.0411 78.3111 43.5523 77.8223C43.0635 77.3335 42.7548 76.6647 42.7548 75.9187C42.7548 75.1726 43.0635 74.5038 43.5523 74.015C44.0411 73.5262 44.71 73.2175 45.456 73.2175H64.7241C65.4701 73.2175 66.1389 73.5262 66.6277 74.015C67.1165 74.5038 67.4252 75.1726 67.4252 75.9187C67.4252 76.6647 67.1165 77.3335 66.6277 77.8223C66.1389 78.3111 65.4701 78.6198 64.7241 78.6198V80.4977C67.2452 80.4977 69.3032 78.4397 69.3032 75.9187C69.3032 73.3976 67.2452 71.3396 64.7241 71.3396H45.456C42.935 71.3396 40.877 73.3976 40.877 75.9187C40.877 78.4397 42.935 80.4977 45.456 80.4977H64.7241V79.5459V79.5716Z" fill="#E0C64C"/>
<path d="M101.459 120.938C101.459 138.173 92.044 153.248 78.0753 161.223C72.3901 164.465 65.9331 166.548 59.0387 167.14C57.7268 167.269 56.4148 167.32 55.0771 167.32C52.839 167.32 50.6523 167.166 48.5171 166.857C47.5138 166.703 46.5106 166.548 45.5331 166.342C34.9086 164.13 25.6475 158.265 19.0619 150.136C18.5217 149.467 17.9815 148.772 17.467 148.052C17.467 148.052 17.467 148.026 17.4412 148C16.8495 147.177 16.2836 146.328 15.7434 145.479C13.7111 142.238 12.0904 138.739 10.907 135.061C10.0067 132.231 9.36355 129.273 9.0034 126.237C8.87477 125.157 8.79758 124.076 8.74613 122.996C8.74613 122.661 8.74618 122.327 8.72046 121.992C8.72046 121.632 8.72046 121.272 8.72046 120.938C8.72046 120.552 8.72046 120.14 8.72046 119.754C9.05489 106.454 14.9973 94.5437 24.2584 86.286C26.2649 84.4852 28.4515 82.8645 30.7668 81.4497C33.9053 79.5203 37.2753 77.951 40.8253 76.8191C41.8286 76.4847 42.8319 76.2017 43.8866 75.9445C43.9123 75.9445 43.9638 75.9445 43.9895 75.9188C45.7131 75.4814 47.5139 75.1727 49.3147 74.9412C51.2183 74.7097 53.1477 74.5811 55.1028 74.5811C63.4892 74.5811 71.3611 76.8191 78.1782 80.7036C78.9243 81.141 79.6445 81.5783 80.3648 82.0413C83.4775 84.0736 86.333 86.466 88.8798 89.1415C93.1759 93.6948 96.5459 99.0971 98.7326 105.065C100.533 110.03 101.511 115.355 101.511 120.938H101.459Z" fill="#E0C64C"/>
<path d="M47.1284 109.233C47.1284 109.233 46.8711 109.979 46.4081 111.188C45.9193 112.5 45.2504 114.326 44.4529 116.384V116.436L38.3818 127.009C38.3818 127.009 37.7387 127.497 36.684 128.604C36.5296 128.784 36.3495 128.964 36.1437 129.17C35.269 130.147 34.1629 131.459 32.9538 133.208C31.8219 134.803 30.6643 135.061 30.3813 135.112H30.3299C30.3299 135.112 28.4005 135.164 29.8411 130.687C31.2817 126.211 34.2658 119.806 37.7387 115.612C39.8996 113.04 42.4206 110.776 44.0413 109.438C45.0446 108.615 45.6878 108.126 45.6878 108.126L46.0994 108.358L46.5881 108.615L46.7425 108.692L47.154 109.207L47.1284 109.233Z" fill="#A88C00"/>
<path d="M44.4269 116.435L38.3815 127.008C38.3815 127.008 36.0919 128.758 32.9535 133.208C31.8216 134.803 30.6639 135.06 30.381 135.112C29.9694 134.726 29.7121 133.671 30.9212 130.918C32.9792 126.288 38.5616 116.075 42.549 114.377C43.8867 113.811 44.3497 114.815 44.4012 116.435H44.4269Z" fill="#F9EECD"/>
<g style="mix-blend-mode:multiply">
<path d="M47.128 109.233C47.128 109.233 45.9961 112.423 44.4525 116.384V116.436L38.3815 127.009C38.3815 127.009 37.5325 127.652 36.1691 129.17C36.0919 124.951 38.4843 119.857 39.3589 118.134C40.388 116.178 46.7421 108.667 46.7421 108.667L47.1536 109.181L47.128 109.233Z" fill="#E9E2BF"/>
</g>
<path d="M79.825 135.138C79.825 135.138 79.825 135.138 79.7735 135.138C79.4906 135.112 78.3329 134.829 77.201 133.234C75.9662 131.511 74.8857 130.173 74.0111 129.195C73.831 128.99 73.6509 128.81 73.4709 128.629C72.4161 127.523 71.773 127.034 71.773 127.034L65.7276 116.461V116.41C64.6729 113.786 63.824 111.471 63.3609 110.236C63.1294 109.619 63.0007 109.258 63.0007 109.258L63.4123 108.744L63.5667 108.667L64.0555 108.41L64.4671 108.178C64.4671 108.178 64.6471 108.307 64.9301 108.538C65.4446 108.924 66.3193 109.644 67.3998 110.596C68.9176 111.934 70.7697 113.709 72.4161 115.69C75.889 119.857 78.8731 126.288 80.3138 130.765C80.6482 131.819 80.8026 132.643 80.8283 133.26C80.9312 135.241 79.825 135.189 79.825 135.189V135.138Z" fill="#A88C00"/>
<path d="M65.7271 116.436L71.7725 127.009C71.7725 127.009 74.062 128.758 77.2005 133.209C78.3324 134.804 79.49 135.061 79.773 135.112C80.1846 134.726 80.4418 133.672 79.2327 130.919C77.1747 126.289 71.5924 116.076 67.605 114.378C66.2673 113.812 65.8043 114.815 65.7528 116.436H65.7271Z" fill="#F9EECD"/>
<g style="mix-blend-mode:multiply">
<path d="M63.0265 109.233C63.0265 109.233 64.1584 112.423 65.7019 116.384V116.436L71.773 127.009C71.773 127.009 72.622 127.652 73.9854 129.17C74.0626 124.951 71.9016 120.089 70.7954 118.134C69.7922 116.384 63.4123 108.667 63.4123 108.667L63.0007 109.181L63.0265 109.233Z" fill="#E9E2BF"/>
</g>
<path opacity="0.19" d="M80.8538 133.183C80.5451 130.147 76.815 123.15 74.9628 120.114C73.1363 117.105 67.5796 110.75 67.4253 110.545C68.9431 111.882 70.7953 113.657 72.4417 115.638C75.9146 119.806 78.8987 126.237 80.3393 130.713C80.6738 131.768 80.8281 132.591 80.8538 133.208V133.183Z" fill="#ECE6C7"/>
<path d="M72.6467 142.547C71.3348 146.045 68.8652 148.875 64.5433 150.47C62.048 151.396 58.9353 151.911 55.0765 151.911C51.2178 151.911 48.1051 151.396 45.6097 150.47C41.2879 148.875 38.8182 146.045 37.5062 142.547C36.0142 138.508 36.0657 133.594 36.6831 128.629C36.7088 128.295 36.7602 127.935 36.8117 127.6C37.5063 122.61 41.0563 115.561 45.1724 110.339C45.6354 109.747 46.1242 109.181 46.5872 108.615C49.5713 105.245 52.6841 103.007 55.0765 103.29C57.469 103.007 60.6074 105.245 63.5658 108.615C63.7716 108.847 64.0031 109.104 64.2089 109.361C68.6336 114.661 72.6211 122.275 73.3414 127.575C73.3928 127.909 73.4442 128.269 73.47 128.604C74.0874 133.569 74.1388 138.482 72.6467 142.521V142.547Z" fill="#A88C00"/>
<path d="M63.5921 112.68C62.0229 110.236 62.666 108.487 62.666 108.487L55.0771 105.374L47.4882 108.487C47.4882 108.487 48.1313 110.262 46.5621 112.68C44.9929 115.098 36.9152 133.183 41.1856 144.81C41.4171 145.453 41.7 146.071 42.0087 146.611C42.9863 148.412 44.2469 149.647 45.6103 150.47C48.1056 151.396 51.2183 151.91 55.0771 151.91C58.9359 151.91 62.0486 151.396 64.5439 150.47C65.9073 149.621 67.1679 148.386 68.1454 146.611C68.4541 146.071 68.7114 145.479 68.9686 144.81C73.239 133.183 65.1356 115.124 63.5921 112.68Z" fill="#F9EECD"/>
<g style="mix-blend-mode:soft-light">
<path d="M62.6661 113.58C66.1647 113.58 68.1455 118.159 69.5861 122.249C71.0267 126.34 75.4258 139.923 68.5057 142.083C61.5857 144.244 53.7652 134.958 55.1286 127.858C56.4663 120.732 59.1674 113.58 62.6661 113.58Z" fill="#ECE6C7"/>
</g>
<g style="mix-blend-mode:multiply" opacity="0.5">
<path d="M72.6473 142.572C71.6955 145.093 70.152 147.28 67.7338 148.901C66.8077 149.518 65.7531 150.058 64.5697 150.496C63.3606 150.933 62.0229 151.293 60.5308 151.55C58.9102 151.808 57.1094 151.962 55.1029 151.962C53.0963 151.962 51.1669 151.808 49.5205 151.525C48.0799 151.267 46.7936 150.933 45.636 150.496C44.4012 150.033 43.3208 149.492 42.3947 148.849C40.0022 147.229 38.4845 145.068 37.5583 142.572C37.687 142.727 39.7192 145.17 42.0345 146.611C42.8577 147.126 43.7066 147.511 44.5298 147.64C47.7455 148.103 48.1056 148.566 50.0093 149.698C51.9129 150.804 55.1029 150.959 55.1029 150.959C55.1029 150.959 58.2927 150.804 60.1964 149.698C62.1001 148.592 62.4602 148.103 65.6759 147.64C66.4991 147.511 67.348 147.126 68.1712 146.611C70.4865 145.145 72.5187 142.727 72.6473 142.572Z" fill="#EFE9CF"/>
</g>
<g style="mix-blend-mode:multiply" opacity="0.5">
<path d="M67.7335 148.875C66.8074 149.492 65.7527 150.032 64.5694 150.47C63.3603 150.907 62.0226 151.267 60.5305 151.524C60.8135 150.984 61.4051 150.187 62.5885 149.363C64.3635 148.154 66.8589 148.643 67.7335 148.875Z" fill="#EFE9CF"/>
</g>
<g style="mix-blend-mode:multiply" opacity="0.5">
<path d="M49.4945 151.499C48.0539 151.241 46.7677 150.907 45.61 150.47C44.3752 150.007 43.2948 149.466 42.3687 148.823C43.1404 148.592 44.8897 148.206 46.6133 148.952C48.3626 149.724 49.2115 150.958 49.5202 151.473L49.4945 151.499Z" fill="#EFE9CF"/>
</g>
<path d="M49.4435 153.429C48.7232 153.737 48.5946 152.58 47.154 152.708C46.3565 152.76 45.6362 154.561 44.3757 154.561C43.1151 154.561 42.8065 152.811 41.6488 152.708C40.8513 152.657 39.951 153.686 39.3336 153.557C39.0249 153.48 38.9992 152.503 39.5908 151.448L39.6937 151.294C39.6937 151.294 39.6937 151.268 39.7194 151.242C39.9252 150.908 40.2082 150.548 40.5683 150.265C41.3401 149.621 42.4463 149.107 44.0412 149.03C46.125 148.927 47.5656 149.699 48.4402 150.65C48.5946 150.83 48.7489 150.985 48.8776 151.165C49.6493 152.245 49.778 153.326 49.4435 153.48V153.429Z" fill="#E9BD3A"/>
<g style="mix-blend-mode:soft-light">
<path d="M48.4397 150.599C47.7194 151.088 46.3303 151.422 44.6839 151.422C42.6773 151.422 41.0052 150.933 40.5679 150.239C41.3396 149.596 42.4458 149.081 44.0408 149.004C46.1245 148.901 47.5651 149.673 48.4397 150.625V150.599Z" fill="#F2EED9"/>
</g>
<g style="mix-blend-mode:multiply">
<path d="M49.4435 153.428C48.7232 153.737 48.5946 152.579 47.154 152.708C46.3565 152.759 45.6362 154.56 44.3757 154.56C43.1151 154.56 42.8065 152.811 41.6488 152.708C40.8513 152.657 39.951 153.686 39.3336 153.557C39.0249 153.48 38.9992 152.502 39.5908 151.447L39.6937 151.293L39.7452 151.216C39.6937 151.447 39.1534 153.428 40.1567 152.991C40.9028 152.657 41.8031 151.756 42.5749 152.451C43.1666 152.965 43.3724 153.505 43.7068 153.814C44.3499 154.38 44.8901 154.432 45.2246 153.994C46.1249 152.759 46.9225 151.73 48.0287 152.399C49.6494 153.403 49.5207 152.219 48.929 151.113C49.7007 152.168 49.8294 153.274 49.4949 153.428H49.4435Z" fill="#EEEADB"/>
</g>
<path d="M60.711 153.429C61.4314 153.737 61.5599 152.58 63.0005 152.708C63.798 152.76 64.5184 154.561 65.7789 154.561C67.0394 154.561 67.3481 152.811 68.5058 152.708C69.3032 152.657 70.2036 153.686 70.821 153.557C71.1297 153.48 71.1554 152.503 70.5637 151.448L70.4609 151.294C70.4609 151.294 70.4609 151.268 70.4351 151.242C70.2293 150.908 69.9463 150.548 69.5862 150.265C68.8144 149.621 67.7083 149.107 66.1133 149.03C64.0296 148.927 62.5889 149.699 61.7143 150.65C61.5599 150.83 61.4056 150.985 61.277 151.165C60.5053 152.245 60.3766 153.326 60.711 153.48V153.429Z" fill="#E9BD3A"/>
<g style="mix-blend-mode:soft-light">
<path d="M61.7139 150.599C62.4342 151.088 63.8234 151.422 65.4698 151.422C67.4763 151.422 69.1484 150.933 69.5857 150.239C68.814 149.596 67.7079 149.081 66.1129 149.004C64.0292 148.901 62.5885 149.673 61.7139 150.625V150.599Z" fill="#F2EED9"/>
</g>
<g style="mix-blend-mode:multiply">
<path d="M60.711 153.428C61.4313 153.737 61.5599 152.579 63.0005 152.708C63.798 152.759 64.5184 154.56 65.7789 154.56C67.0394 154.56 67.3481 152.811 68.5057 152.708C69.3032 152.657 70.2036 153.686 70.821 153.557C71.1297 153.48 71.1554 152.502 70.5637 151.447L70.4609 151.293L70.4094 151.216C70.4608 151.447 71.001 153.428 69.9978 152.991C69.2517 152.657 68.3513 151.756 67.5796 152.451C66.9879 152.965 66.7821 153.505 66.4477 153.814C65.8046 154.38 65.2643 154.432 64.9299 153.994C64.0295 152.759 63.2321 151.73 62.1259 152.399C60.5052 153.403 60.6338 152.219 61.2255 151.113C60.4537 152.168 60.3251 153.274 60.6595 153.428H60.711Z" fill="#EEEADB"/>
</g>
<g style="mix-blend-mode:multiply">
<path d="M64.9555 108.512C64.724 108.821 64.4925 109.104 64.2095 109.387C63.9522 109.67 63.6693 109.953 63.3863 110.21C61.9972 111.445 60.2221 112.448 57.9583 112.989C53.0448 114.121 49.1088 112.783 46.4334 111.188C45.9704 110.905 45.5588 110.648 45.1729 110.365C44.7356 110.056 44.3754 109.747 44.041 109.49C45.0443 108.667 45.6875 108.178 45.6875 108.178L46.0991 108.41L46.5878 108.667C49.5719 105.297 52.6847 103.059 55.0771 103.342C57.4695 103.059 60.608 105.297 63.5664 108.667L64.0551 108.41L64.4667 108.178C64.4667 108.178 64.6468 108.307 64.9298 108.538L64.9555 108.512Z" fill="#E9E2BF"/>
</g>
<path d="M67.7592 99.9973C67.7592 100.692 67.7077 101.361 67.6048 102.03C67.0131 105.708 64.8523 108.847 61.8424 110.75C59.8873 111.985 57.5721 112.706 55.1025 112.706C48.1052 112.706 42.4199 107.02 42.4199 100.023C42.4199 99.1998 42.4971 98.3766 42.6514 97.5792C43.6033 92.6399 47.4106 88.7297 52.2983 87.6493C53.1987 87.4435 54.1249 87.3406 55.0767 87.3406C62.0739 87.3406 67.7592 93.0258 67.7592 100.023V99.9973Z" fill="#A88C00"/>
<path d="M59.5013 95.7012C55.4368 98.0936 58.3952 103.29 58.3952 103.29L55.0509 102.853V105.4L54.9994 102.853L51.6551 103.29C51.6551 103.29 54.6135 98.0936 50.549 95.7012C47.0246 93.6432 43.7061 97.2962 43.9119 101.309C43.9891 103.161 44.5551 106.377 46.9732 108.872C48.6196 110.596 51.3722 112.32 55.0766 112.32C58.781 112.32 61.2506 110.699 62.9227 109.104C65.521 106.583 66.1384 103.213 66.2155 101.309C66.3956 97.2962 63.0771 93.6432 59.5785 95.7012H59.5013Z" fill="#F9EECD"/>
<path d="M49.4889 101.427C50.3207 101.137 50.7677 100.25 50.4872 99.4448C50.2068 98.6398 49.305 98.2222 48.4732 98.5121C47.6414 98.8019 47.1944 99.6894 47.4749 100.494C47.7554 101.299 48.6571 101.717 49.4889 101.427Z" fill="#876A00"/>
<path d="M49.893 101.245C50.5231 100.782 50.6865 99.9341 50.2579 99.3498C49.8294 98.7655 48.9711 98.6666 48.341 99.1288C47.711 99.5909 47.5476 100.439 47.9762 101.023C48.4047 101.608 49.2629 101.707 49.893 101.245Z" fill="#FFF7D4"/>
<path d="M50.2287 100.292C50.3095 99.6431 49.838 99.0503 49.1753 98.9677C48.5127 98.885 47.91 99.3437 47.8291 99.9923C47.7482 100.641 48.2198 101.234 48.8824 101.316C49.545 101.399 50.1478 100.94 50.2287 100.292Z" fill="#B8A12E"/>
<path d="M49.6418 100.219C49.6823 99.8943 49.4407 99.5971 49.1024 99.5549C48.764 99.5127 48.4569 99.7414 48.4165 100.066C48.3761 100.39 48.6176 100.687 48.9559 100.729C49.2943 100.771 49.6014 100.543 49.6418 100.219Z" fill="#876A00"/>
<path d="M49.7927 100.033C49.8884 100.006 49.9317 99.8619 49.8894 99.7114C49.847 99.561 49.7351 99.4609 49.6393 99.4878C49.5436 99.5148 49.5004 99.6586 49.5427 99.809C49.5851 99.9594 49.6969 100.06 49.7927 100.033Z" fill="#FFFDF5"/>
<path d="M62.5968 100.612C62.8773 99.8065 62.4304 98.919 61.5985 98.6292C60.7667 98.3393 59.865 98.757 59.5845 99.562C59.304 100.367 59.751 101.254 60.5828 101.544C61.4146 101.834 62.3163 101.417 62.5968 100.612Z" fill="#876A00"/>
<path d="M62.0126 100.954C62.4411 100.37 62.2777 99.5214 61.6476 99.0592C61.0175 98.597 60.1594 98.6959 59.7308 99.2802C59.3023 99.8645 59.4656 100.713 60.0957 101.175C60.7258 101.637 61.584 101.538 62.0126 100.954Z" fill="#FFF7D4"/>
<path d="M61.0523 101.393C61.7149 101.31 62.1865 100.717 62.1056 100.069C62.0247 99.4203 61.422 98.9615 60.7594 99.0442C60.0967 99.1268 59.6251 99.7196 59.706 100.368C59.7869 101.017 60.3897 101.475 61.0523 101.393Z" fill="#B8A12E"/>
<path d="M60.9796 100.805C61.318 100.763 61.5595 100.466 61.519 100.142C61.4786 99.8175 61.1715 99.5889 60.8332 99.6311C60.4948 99.6733 60.2532 99.9704 60.2937 100.295C60.3341 100.619 60.6413 100.848 60.9796 100.805Z" fill="#876A00"/>
<path d="M61.518 99.9249C61.6065 99.8795 61.6205 99.73 61.5492 99.5909C61.4779 99.4519 61.3484 99.3759 61.2599 99.4213C61.1714 99.4666 61.1574 99.6162 61.2287 99.7552C61.3 99.8943 61.4295 99.9703 61.518 99.9249Z" fill="#FFFDF5"/>
<g style="mix-blend-mode:multiply" opacity="0.5">
<path d="M54.9999 105.117C54.9999 105.117 52.8647 103.059 51.6299 103.29C51.6299 103.29 53.2248 103.831 54.2538 104.86C54.5111 105.117 54.9999 105.734 54.9999 105.734C54.9999 105.734 55.2056 105.477 55.7716 104.86C56.9807 103.522 58.3956 103.316 58.3956 103.316C57.1608 103.085 55.0256 105.117 55.0256 105.143L54.9999 105.117Z" fill="#EFE9CF"/>
</g>
<path d="M58.3698 103.29C58.1126 103.29 57.8553 103.367 57.6238 103.47C56.2861 103.984 54.9999 105.399 54.9999 105.399C54.9999 105.399 53.1734 103.419 51.6299 103.29C51.6299 103.29 52.2988 102.364 53.1734 101.644C53.7394 101.18 54.3825 100.82 54.9999 100.82C55.1028 100.82 55.2057 100.82 55.3343 100.846C56.3633 101.026 57.3923 102.081 57.9582 102.724C58.2155 103.033 58.3956 103.264 58.3956 103.264L58.3698 103.29Z" fill="#E9BD3A"/>
<path d="M54.9997 100.846C56.2859 102.132 55.3084 103.882 54.9997 105.4C54.691 103.882 53.7134 102.132 54.9997 100.846Z" fill="#E3AB06"/>
<g style="mix-blend-mode:multiply" opacity="0.5">
<path d="M57.6238 103.47C56.2861 103.985 54.9999 105.4 54.9999 105.4C54.9999 105.4 53.1734 103.419 51.6299 103.29C51.6299 103.29 52.2988 102.364 53.1734 101.644C53.4049 101.875 54.0995 102.621 54.331 103.264C54.614 104.062 54.8712 104.396 54.9999 104.422C55.1285 104.448 55.3858 104.062 55.7459 103.779C56.0803 103.522 56.7235 103.162 57.5981 103.445L57.6238 103.47Z" fill="#E9E4D1"/>
</g>
<g style="mix-blend-mode:soft-light">
<path d="M57.958 102.75C57.958 102.75 57.6494 102.93 57.4178 102.93C56.8519 102.93 56.1058 103.316 56.0544 102.441C56.0029 101.566 55.3083 100.872 55.3083 100.872C56.3374 101.052 57.3663 102.107 57.9323 102.75H57.958Z" fill="#ECE6C7"/>
</g>
<path opacity="0.47" d="M67.605 102.029C67.6307 100.023 67.2963 97.4504 65.7528 95.2638C62.6915 90.8905 58.3183 94.8264 53.9707 92.6655C50.4464 90.9162 51.7068 88.498 52.2985 87.6234C53.1989 87.4176 54.125 87.3147 55.0769 87.3147C62.0741 87.3147 67.7593 92.9999 67.7593 99.9972C67.7593 100.692 67.7079 101.361 67.605 102.029Z" fill="#B1981A"/>
<g style="mix-blend-mode:soft-light" opacity="0.38">
<path d="M80.3139 82.0155L79.4393 84.305L78.0758 87.9322L77.6128 89.167L51.1674 159.705L50.7043 160.914L49.3409 164.542L48.4662 166.857C47.4629 166.702 46.4597 166.548 45.4821 166.342C34.8576 164.13 25.5967 158.265 19.011 150.136C18.4708 149.467 17.9305 148.772 17.416 148.052L18.4193 145.299L20.0657 140.823L20.6317 139.254L40.6973 84.6909L41.2632 83.1216L42.9096 78.6455L43.9129 75.8929C45.6365 75.4556 47.4373 75.1469 49.238 74.9153C51.1417 74.6838 53.0711 74.5552 55.0262 74.5552C63.4126 74.5552 71.2844 76.7933 78.1015 80.6777C78.8475 81.1151 79.5679 81.5524 80.2882 82.0155H80.3139Z" fill="#FFFB8C"/>
</g>
<path d="M86.1787 89.8358C84.1207 87.7778 81.8827 85.9513 79.4645 84.3306C72.493 79.6744 64.1066 76.9475 55.0771 76.9475C50.8839 76.9475 46.8194 77.5392 42.9606 78.6454C41.2627 79.1341 39.5906 79.7258 37.9699 80.3947C32.6963 82.607 27.9628 85.8484 23.9755 89.8101C16.0264 97.7591 11.0872 108.769 11.0872 120.912C11.0872 129.915 13.7883 138.302 18.4446 145.273C20.0653 147.692 21.9174 149.955 23.9755 152.013C30.664 158.702 39.5134 163.255 49.3661 164.541C51.244 164.799 53.1477 164.902 55.0771 164.902C67.2193 164.902 78.2297 159.962 86.1787 152.013C94.1278 144.064 99.067 133.054 99.067 120.912C99.067 108.769 94.1535 97.7591 86.1787 89.8101V89.8358ZM94.8223 127.06C94.7709 127.394 94.7194 127.729 94.668 128.063C94.5393 128.732 94.4108 129.375 94.2564 130.018C94.1793 130.353 94.102 130.662 94.0248 130.996C93.7933 131.948 93.5104 132.9 93.176 133.851C92.7644 135.086 92.2756 136.321 91.7354 137.504C91.5553 137.89 91.3752 138.302 91.1694 138.688C90.7835 139.459 90.3719 140.231 89.9603 140.977C89.6516 141.543 89.2914 142.083 88.957 142.624C88.5968 143.164 88.2367 143.704 87.8766 144.244C87.5164 144.759 87.1305 145.273 86.7189 145.788C86.3331 146.302 85.9214 146.791 85.5098 147.28C84.8667 148 84.2236 148.721 83.5548 149.389C82.8602 150.084 82.1656 150.727 81.4453 151.37C80.3391 152.322 79.1815 153.222 77.9982 154.046C76.5576 155.049 75.0655 155.949 73.4705 156.747C73.2133 156.875 72.9303 157.004 72.673 157.158C67.3737 159.731 61.4312 161.171 55.1285 161.171C53.6622 161.171 52.1958 161.094 50.781 160.94C46.0733 160.425 41.6229 159.113 37.5583 157.133C37.0953 156.901 36.6579 156.695 36.2206 156.438C35.7832 156.207 35.346 155.949 34.9086 155.718C34.4713 155.461 34.0597 155.203 33.6224 154.946C31.9245 153.866 30.3296 152.682 28.8118 151.37C28.0915 150.727 27.3712 150.084 26.7023 149.389C26.3679 149.055 26.0334 148.695 25.699 148.36C25.3646 148 25.0559 147.64 24.7214 147.28C24.3098 146.791 23.8983 146.302 23.5124 145.788C23.1265 145.273 22.7406 144.759 22.3548 144.244C21.9689 143.704 21.6087 143.19 21.2743 142.624C20.9398 142.083 20.5797 141.517 20.271 140.977C20.2453 140.926 20.2196 140.874 20.1939 140.823C19.7823 140.103 19.4221 139.408 19.062 138.662C18.8562 138.276 18.6761 137.89 18.496 137.479C17.9558 136.295 17.467 135.061 17.0554 133.826C15.692 129.787 14.9459 125.439 14.9459 120.937C14.9459 116.436 15.692 112.088 17.0554 108.049C17.467 106.814 17.9558 105.58 18.496 104.396C18.6761 104.01 18.8562 103.599 19.062 103.213C19.4478 102.441 19.8594 101.669 20.271 100.923C20.5797 100.357 20.9398 99.8171 21.2743 99.2769C21.6344 98.7367 21.9946 98.1964 22.3548 97.6562C22.7149 97.1417 23.1008 96.6272 23.5124 96.1127C23.8983 95.5982 24.3098 95.1094 24.7214 94.6207C25.0301 94.2605 25.3646 93.9003 25.699 93.5402C26.0334 93.18 26.3679 92.8456 26.7023 92.5112C27.3969 91.8166 28.0915 91.1735 28.8118 90.5304C30.8698 88.7553 33.1336 87.1604 35.526 85.8227C36.3235 85.3853 37.1467 84.948 37.9699 84.5621C38.2529 84.4335 38.5358 84.3049 38.8188 84.1763C39.3848 83.919 39.9507 83.6875 40.5167 83.456C40.7997 83.3531 41.0826 83.2244 41.3913 83.1215C41.7515 82.9929 42.1117 82.8643 42.4718 82.7357C46.4592 81.3979 50.7295 80.7034 55.1543 80.7034C63.7207 80.7034 71.6441 83.3788 78.1783 87.9321C79.0272 88.5238 79.876 89.1669 80.6735 89.8358C80.9308 90.0673 81.2138 90.2731 81.4711 90.5046C82.1914 91.1478 82.9116 91.7909 83.5805 92.4855C84.275 93.18 84.9182 93.8746 85.5356 94.5949C85.9472 95.0837 86.3588 95.5725 86.7447 96.087C87.1306 96.6015 87.5165 97.116 87.9023 97.6305C88.2882 98.1707 88.6483 98.6852 88.9828 99.2512C89.3172 99.7914 89.6774 100.357 89.9861 100.898C90.4234 101.644 90.8093 102.415 91.1951 103.187C91.401 103.573 91.581 103.959 91.7611 104.37C92.3013 105.554 92.7901 106.789 93.2017 108.023C93.5104 108.95 93.7933 109.901 94.0506 110.879C94.1278 111.213 94.2049 111.522 94.2821 111.856C94.4365 112.5 94.5651 113.168 94.6937 113.812C94.7452 114.146 94.7966 114.48 94.8481 114.815C94.951 115.484 95.0282 116.153 95.1053 116.821C95.234 118.185 95.3111 119.548 95.3111 120.937C95.3111 122.327 95.234 123.69 95.1053 125.053C95.0282 125.722 94.951 126.391 94.8481 127.06H94.8223Z" fill="#FAE543"/>
<g style="mix-blend-mode:multiply">
<path d="M95.0801 116.821C95.0029 116.152 94.9257 115.483 94.8228 114.815C94.7714 114.48 94.7199 114.146 94.6685 113.811C94.5399 113.142 94.4113 112.499 94.257 111.856C94.1798 111.522 94.1025 111.213 94.0254 110.879C93.7681 109.927 93.4852 108.975 93.1765 108.023C92.7391 106.788 92.2761 105.554 91.7359 104.37C91.5558 103.984 91.3757 103.573 91.1699 103.187C90.784 102.415 90.3724 101.643 89.9608 100.897C89.6521 100.331 89.2919 99.7911 88.9575 99.2509C88.5974 98.7107 88.2373 98.1705 87.8771 97.6302C87.517 97.1157 87.131 96.6012 86.7194 96.0867C86.3336 95.5722 85.922 95.0835 85.5104 94.5947C84.8672 93.8744 84.2241 93.1541 83.5296 92.4852C82.835 91.7906 82.1404 91.1475 81.4201 90.5044C81.1628 90.2729 80.9056 90.0413 80.6226 89.8355C79.8251 89.1667 78.9762 88.5493 78.1273 87.9319C71.6188 83.3785 63.6698 80.7031 55.1034 80.7031C50.6786 80.7031 46.4082 81.4234 42.4208 82.7354C42.0607 82.864 41.7006 82.9669 41.3404 83.0956C41.0574 83.1985 40.7745 83.3271 40.4658 83.43C39.8998 83.6615 39.3081 83.893 38.7679 84.1503C38.4849 84.2789 38.2019 84.4075 37.9189 84.5362C37.0957 84.922 36.2726 85.3594 35.4751 85.7967C33.0827 87.1344 30.8445 88.7294 28.7608 90.5044C28.0405 91.1475 27.3202 91.7906 26.6513 92.4852C26.3169 92.8196 25.9825 93.1798 25.6481 93.5142C25.3137 93.8744 25.005 94.2345 24.6705 94.5947C24.2589 95.0835 23.8473 95.5722 23.4614 96.0867C23.0756 96.6012 22.6897 97.1157 22.3039 97.6302C21.918 98.1705 21.5578 98.685 21.2234 99.2509C20.8889 99.7911 20.5288 100.357 20.2201 100.897C19.7827 101.643 19.3969 102.415 19.0111 103.187C18.8053 103.573 18.6252 103.959 18.4451 104.37C17.9049 105.554 17.4417 106.788 17.0044 108.023C15.641 112.062 14.895 116.41 14.895 120.911C14.895 125.413 15.641 129.761 17.0044 133.8C17.4417 135.035 17.9049 136.269 18.4451 137.453C18.6252 137.839 18.8053 138.25 19.0111 138.636C19.3712 139.356 19.757 140.077 20.1429 140.771C20.1429 140.771 20.1943 140.874 20.2201 140.926C20.5288 141.492 20.8889 142.032 21.2234 142.572C21.5835 143.112 21.9437 143.652 22.3039 144.193C22.664 144.707 23.0498 145.222 23.4614 145.736C23.8473 146.251 24.2589 146.739 24.6705 147.228C24.9792 147.588 25.3137 147.949 25.6481 148.309C25.9825 148.669 26.3169 149.003 26.6513 149.338C27.3459 150.032 28.0405 150.675 28.7608 151.319C30.2786 152.63 31.8735 153.814 33.5714 154.894C34.0087 155.152 34.4203 155.435 34.8576 155.666C35.295 155.923 35.7323 156.155 36.1696 156.386C36.607 156.618 37.07 156.849 37.5073 157.081C41.5719 159.062 46.0481 160.374 50.7301 160.888C52.1707 161.043 53.6113 161.12 55.0776 161.12C61.3545 161.12 67.3228 159.679 72.6221 157.107C72.8794 156.978 73.1624 156.849 73.4196 156.695C74.9888 155.898 76.5066 154.997 77.9472 153.994C79.1563 153.171 80.314 152.27 81.3944 151.319C82.1147 150.675 82.835 150.032 83.5038 149.338C84.1984 148.643 84.8416 147.949 85.4847 147.228C85.8963 146.739 86.3079 146.251 86.6938 145.736C87.0797 145.222 87.4655 144.707 87.8514 144.193C88.2372 143.652 88.5974 143.138 88.9318 142.572C89.2663 142.032 89.6264 141.466 89.9351 140.926C90.3724 140.18 90.7583 139.408 91.1442 138.636C91.35 138.25 91.53 137.864 91.7101 137.453C92.2504 136.269 92.7134 135.035 93.1507 133.8C93.4594 132.874 93.7424 131.922 93.9997 130.944C94.0769 130.61 94.154 130.301 94.2312 129.967C94.3856 129.324 94.5142 128.655 94.6428 128.012C94.6943 127.677 94.7457 127.343 94.7972 127.008C94.9001 126.339 94.9773 125.671 95.0544 125.002C95.1831 123.638 95.2602 122.275 95.2602 120.886C95.2602 119.497 95.1831 118.133 95.0544 116.77L95.0801 116.821ZM82.6292 148.489C75.5805 155.537 65.8307 159.911 55.0776 159.911C53.7656 159.911 52.4536 159.859 51.1931 159.705C41.9835 158.779 33.7258 154.663 27.5261 148.489C24.8249 145.788 22.5096 142.675 20.6832 139.253C17.7762 133.8 16.1041 127.549 16.1041 120.937C16.1041 110.184 20.4517 100.434 27.5261 93.3856C31.2562 89.6555 35.7323 86.6714 40.7487 84.6905C45.1992 82.9155 50.0355 81.9637 55.1034 81.9637C63.5155 81.9637 71.2844 84.6133 77.6642 89.1667C79.4393 90.4272 81.1114 91.8421 82.6549 93.3856C89.7036 100.434 94.0769 110.184 94.0769 120.937C94.0769 131.69 89.7293 141.44 82.6549 148.489H82.6292Z" fill="#F6F39E"/>
</g>
<g style="mix-blend-mode:multiply">
<path d="M98.6814 105.065L78.0756 161.223C72.3904 164.464 65.9334 166.548 59.0391 167.14L88.8287 89.1411C93.1248 93.6945 96.4947 99.0967 98.6814 105.065Z" fill="#F6F39E"/>
</g>
<path d="M108.997 0.106934H88.7515L44.8645 73.372H65.1359L108.997 0.106934Z" fill="#EB00B4"/>
</svg>
