<svg width="109" height="168" viewBox="0 0 109 168" fill="none" xmlns="http://www.w3.org/2000/svg">
<path d="M0.977295 0.106934H21.2198L65.1001 73.372H44.8318L0.977295 0.106934Z" fill="#05D1E8"/>
<path d="M64.6887 79.596V78.6443H45.4236C44.6777 78.6443 44.0089 78.3357 43.5202 77.847C43.0315 77.3583 42.7228 76.6895 42.7228 75.9436C42.7228 75.1977 43.0315 74.5289 43.5202 74.0402C44.0089 73.5515 44.6777 73.2429 45.4236 73.2429H64.6887C65.4346 73.2429 66.1034 73.5515 66.5921 74.0402C67.0808 74.5289 67.3894 75.1977 67.3894 75.9436C67.3894 76.6895 67.0808 77.3583 66.5921 77.847C66.1034 78.3357 65.4346 78.6443 64.6887 78.6443V80.522C67.2094 80.522 69.2671 78.4643 69.2671 75.9436C69.2671 73.4229 67.2094 71.3652 64.6887 71.3652H45.4236C42.9029 71.3652 40.8452 73.4229 40.8452 75.9436C40.8452 78.4643 42.9029 80.522 45.4236 80.522H64.6887V79.5703V79.596Z" fill="#E0C64C"/>
<path d="M101.418 120.938C101.418 146.56 80.6613 167.32 55.043 167.32C52.8053 167.32 50.619 167.166 48.4841 166.857C47.481 166.702 46.4779 166.548 45.5005 166.342C34.8776 164.13 25.618 158.265 19.0334 150.136C18.4933 149.467 17.9531 148.772 17.4387 148.052C12.3202 140.952 9.13078 132.334 8.74496 122.996C8.74496 122.661 8.74496 122.327 8.71924 121.992C8.71924 121.632 8.71924 121.272 8.71924 120.938C8.71924 120.552 8.71924 120.14 8.71924 119.754C9.25938 98.5052 24.1005 80.7806 43.9829 75.8929C45.7063 75.4556 47.5067 75.1469 49.3072 74.9153C51.2106 74.6838 53.1397 74.5552 55.0945 74.5552C63.4796 74.5552 71.3502 76.7933 78.1663 80.6777C78.9122 81.1151 79.6324 81.5524 80.3526 82.0155C93.0846 90.2732 101.495 104.628 101.495 120.912L101.418 120.938Z" fill="#E0C64C"/>
<path d="M81.588 116.333C82.1282 114.841 83.08 113.427 84.4177 112.526C83.0543 113.401 82.0767 114.79 81.4851 116.308C81.4593 116.385 81.5622 116.411 81.588 116.333Z" fill="#6B5C09"/>
<path d="M80.7648 116.539C81.4851 115.201 82.8486 114.327 84.0834 113.504L84.6493 113.169C84.3664 113.324 83.8004 113.658 83.5174 113.838C82.437 114.558 81.3051 115.33 80.6619 116.513C80.6362 116.591 80.7391 116.642 80.7648 116.565V116.539Z" fill="#6B5C09"/>
<path d="M81.5364 115.973C82.6169 114.79 84.0317 113.863 85.601 113.529C84.006 113.838 82.5654 114.738 81.4592 115.896C81.4078 115.947 81.485 116.024 81.5364 115.973Z" fill="#6B5C09"/>
<path d="M80.5846 116.796C81.6908 115.587 83.1571 114.61 84.8035 114.378C83.1314 114.584 81.6651 115.536 80.5074 116.719C80.456 116.771 80.5332 116.848 80.5846 116.796Z" fill="#6B5C09"/>
<path d="M81.1505 116.976C82.4368 116.05 84.006 115.407 85.6267 115.381C84.006 115.381 82.4111 115.973 81.0991 116.873C81.0476 116.925 81.0991 117.002 81.1763 116.95L81.1505 116.976Z" fill="#6B5C09"/>
<path d="M82.4368 115.947C83.723 115.021 85.2923 114.378 86.9129 114.353C85.2923 114.353 83.6973 114.944 82.3853 115.845C82.3339 115.896 82.3853 115.973 82.4625 115.922L82.4368 115.947Z" fill="#6B5C09"/>
<path d="M60.3679 147.718C60.3679 147.718 62.6317 148.206 64.7926 149.055C65.0242 149.158 65.2814 149.235 65.5129 149.364C66.9535 149.981 67.7768 150.856 68.7029 151.062C69.2431 151.191 69.7319 151.268 70.1435 151.268C72.7674 151.319 73.0247 149.287 73.0247 149.287C73.0247 149.287 73.0504 149.21 73.0761 149.081C73.1018 148.721 73.0247 147.923 71.8156 147.46C71.4812 147.332 71.0438 147.229 70.5036 147.152C67.3909 146.74 65.1785 147.306 63.8665 146.457C62.5546 145.634 60.3679 147.718 60.3679 147.718Z" fill="#D1B92A"/>
<path d="M64.8174 149.055C65.0489 149.158 65.3062 149.235 65.5377 149.363C66.9783 149.981 67.8015 150.855 68.7276 151.061C69.2678 151.19 69.7566 151.267 70.1682 151.267C72.7922 151.318 73.0494 149.286 73.0494 149.286C73.0494 149.286 73.0751 149.209 73.1009 149.08C73.1266 148.72 73.0494 147.923 71.8403 147.46C72.1233 147.794 72.2005 148.129 71.2744 147.948C69.5251 147.64 69.808 147.871 69.808 147.871C69.808 147.871 71.12 148.051 71.2744 148.643C71.4287 149.235 69.9367 147.949 69.1906 148.231C68.4446 148.514 70.6827 148.489 70.4512 149.466C70.2196 150.47 69.1392 148.617 68.1102 148.952C67.0812 149.286 70.4512 149.801 69.1135 150.212C67.75 150.624 66.6953 148.566 64.8688 149.08L64.8174 149.055Z" fill="#F7E38B"/>
<g style="mix-blend-mode:multiply" opacity="0.47">
<path d="M70.1421 151.267C72.766 151.318 73.0233 149.286 73.0233 149.286C73.0233 149.286 73.049 149.209 73.0747 149.08C72.7918 148.591 72.2258 148.463 72.1744 148.463C72.2258 148.488 72.6632 148.72 72.8175 149.157C72.8947 149.363 72.9976 149.62 72.7918 149.878C72.6631 150.032 72.4573 150.161 72.3287 150.058C71.7628 149.62 71.1454 149.363 71.0425 149.312C71.0939 149.337 71.4026 149.517 71.9686 150.058C72.3802 150.443 71.9428 150.855 71.5312 150.958C71.2997 151.009 71.1454 151.138 71.0167 150.829C70.6823 149.929 70.1421 150.083 70.1421 150.083C70.8881 150.701 70.5794 151.061 70.1421 151.292V151.267Z" fill="#736620"/>
</g>
<path d="M73.1255 129.684C74.5918 129.864 75.5179 130.43 76.0839 131.15C76.4183 131.562 76.6241 131.999 76.7785 132.411C77.1386 133.491 76.0839 135.703 77.0357 135.343C78.2962 134.829 78.322 133.054 78.322 133.054C79.0165 132.205 79.1452 131.562 78.5792 129.992C78.5278 129.864 78.4763 129.709 78.4249 129.581C78.2705 129.169 78.3734 129.015 78.1676 128.655C77.4473 127.446 76.3668 126.725 76.3668 126.725H76.8556C76.8556 126.494 75.8009 126.185 76.0839 126.185C76.3668 126.185 77.0357 126.545 77.0357 126.545C76.5727 125.928 75.8266 125.774 75.8266 125.774C76.6498 125.645 77.6531 126.494 77.7046 126.545C77.4216 125.619 76.1868 125.439 75.3378 125.336C74.4889 125.233 74.2317 123.664 74.2317 123.664C74.2317 123.664 70.8617 129.426 73.1512 129.684H73.1255Z" fill="#D1B92A"/>
<path d="M77.0095 135.344C78.27 134.829 78.2957 133.054 78.2957 133.054C78.9903 132.205 79.1189 131.562 78.553 129.993C78.1414 129.993 78.9131 131.022 78.733 131.331C78.553 131.639 78.3214 130.97 78.27 130.893C78.2957 130.97 78.4758 131.639 78.0899 131.639C77.9613 131.639 77.8069 131.202 77.6783 131.176C77.6011 131.176 77.524 131.562 77.4211 131.511C77.1381 131.382 77.1124 130.456 76.495 130.713C76.1348 130.868 76.0576 131.022 76.0576 131.151C76.392 131.562 76.5979 131.999 76.7522 132.411C77.1124 133.492 76.0576 135.704 77.0095 135.344Z" fill="#947E00"/>
<path d="M67.75 100.897C67.8014 101.283 68.213 102.209 68.213 102.209C68.213 102.209 67.9558 102.852 68.033 103.418C68.033 103.495 68.1359 103.572 68.2902 103.675C69.2935 104.241 72.8436 104.833 73.4352 103.598C73.4352 103.598 73.4352 103.547 73.4352 103.47C73.4352 102.955 73.2809 101.051 71.7888 99.5336C70.2196 97.9386 69.9366 96.5495 69.8852 96.3179C69.8852 96.5237 69.9623 97.527 70.3739 98.4017C70.3739 98.4017 69.0105 97.3727 68.2902 96.1379C68.1101 95.8292 67.9815 95.4947 67.9043 95.186C67.9043 95.186 67.8014 96.8324 69.2678 98.1701C69.7823 98.6332 69.5765 98.839 69.5765 98.839C69.5765 98.839 69.5507 98.4789 68.9076 98.1444C68.0587 97.6814 67.9301 96.9096 67.9043 96.781V96.7553C67.9043 96.7553 67.9043 97.7071 68.033 97.9386L67.6985 97.4756C67.6985 97.4756 68.1616 98.5817 68.0844 99.1734C68.033 99.7908 68.1873 100.871 68.1873 100.871C68.1873 100.871 68.0072 100.82 67.8786 100.563C67.75 100.305 67.6985 99.8166 67.6985 99.8166C67.6985 99.8166 67.6471 100.485 67.6985 100.897H67.75Z" fill="#E3D273"/>
<g style="mix-blend-mode:multiply" opacity="0.47">
<path d="M67.75 100.898C67.8015 101.284 68.2131 102.21 68.2131 102.21C68.2131 102.21 67.9558 102.853 68.033 103.419C68.033 103.496 68.1359 103.573 68.2902 103.676C68.4446 103.419 68.7018 102.956 68.7533 102.673C68.8305 102.261 68.0844 101.438 68.033 101.387C68.0844 101.438 69.0363 102.184 69.1134 101.695C69.2163 101.181 68.5732 101.129 68.5475 99.8689C68.5218 98.6341 68.779 98.5827 68.3674 98.1711C68.0073 97.8109 67.9301 96.9363 67.9301 96.7562V96.7305C67.9301 96.7305 67.9301 97.6823 68.0587 97.9138L67.7243 97.4508C67.7243 97.4508 68.1873 98.5569 68.1102 99.1486C68.0587 99.766 68.2131 100.846 68.2131 100.846C68.2131 100.846 68.033 100.795 67.9044 100.538C67.7757 100.281 67.7243 99.7918 67.7243 99.7918C67.7243 99.7918 67.6728 100.461 67.7243 100.872L67.75 100.898Z" fill="#A3912E"/>
</g>
<path opacity="0.23" d="M69.9365 98.4021C70.6568 98.9424 71.5057 100.023 71.5829 100.563C71.6601 101.103 71.1198 99.7913 70.6825 99.9971C70.2452 100.203 72.3804 101.361 72.6633 102.39C72.9463 103.419 71.5314 101.746 71.4543 101.669C71.4543 101.746 71.8401 103.007 72.8949 103.419C73.1007 103.496 73.3065 103.496 73.4608 103.496C73.4608 102.981 73.3065 101.078 71.8144 99.5598C70.2452 97.9648 69.9622 96.5757 69.9107 96.3441C69.9107 96.5499 69.9879 97.5532 70.3995 98.4279C70.3995 98.4279 69.0361 97.3989 68.3158 96.1641C68.2386 96.4985 69.1647 97.9134 69.9107 98.4536L69.9365 98.4021Z" fill="#FFF5BC"/>
<path d="M45.0639 150.059C45.6298 150.574 46.1956 150.96 46.813 151.217C46.993 151.294 47.173 151.371 47.3788 151.423C47.3788 151.423 47.3788 151.423 47.4045 151.423C48.6134 151.809 49.848 151.809 51.1084 151.603C51.237 151.603 51.3913 151.551 51.5456 151.526C51.7 151.5 51.8543 151.474 51.9829 151.423C53.912 150.985 55.8153 150.214 57.5129 149.905C58.1045 149.802 58.6961 149.648 59.262 149.519C64.6891 148.078 68.7016 144.811 69.6533 140.104C69.7305 139.641 69.7305 139.152 69.7048 138.586C69.7048 138.329 69.679 138.046 69.6533 137.763C69.6533 137.737 69.6533 137.685 69.6533 137.66C69.6276 137.197 69.6019 136.708 69.6533 136.219C69.6533 136.065 69.6533 135.91 69.7048 135.756L69.6533 135.653C69.6533 135.653 69.6533 135.653 69.7048 135.653C69.7305 135.447 69.7819 135.216 69.8334 135.01C69.8334 134.933 69.8848 134.83 69.9105 134.753C69.9105 134.341 69.962 133.904 70.0906 133.904C70.1163 133.904 70.1677 133.93 70.1935 133.981C70.2706 133.827 70.3478 133.672 70.425 133.544C70.425 133.492 70.4764 133.467 70.5021 133.415C70.5021 133.389 70.5536 133.338 70.5793 133.312C70.9651 132.798 71.531 132.412 72.4569 131.82C74.7204 130.328 74.6947 127.421 74.5146 125.8C74.5146 125.749 74.5146 125.698 74.5146 125.62C74.386 124.54 74.3603 123.537 74.3603 122.636V122.508C74.3603 122.508 74.3603 122.328 74.3603 122.225C74.3603 122.147 74.3603 122.045 74.3603 121.967C74.3603 121.839 74.3603 121.736 74.3603 121.607C74.3603 121.479 74.3603 121.35 74.3603 121.247C74.3603 120.913 74.4117 120.63 74.4374 120.347C74.4374 120.218 74.4375 120.115 74.4632 120.012C74.4632 120.012 74.4632 120.012 74.4632 119.987C74.4632 119.909 74.4632 119.806 74.4889 119.729C74.4889 119.652 74.4889 119.575 74.5146 119.498C74.5146 119.446 74.5146 119.395 74.5146 119.343C74.6175 118.675 74.6947 118.289 74.6947 118.289L72.3026 115.871L64.2519 107.664L62.8372 106.224C62.8372 106.224 61.7312 106.841 61.3968 107.613C61.3968 107.613 62.0399 107.51 62.2714 107.51C62.2714 107.51 61.3454 108.256 61.1139 108.745L61.9627 108.565C61.9627 108.565 59.6221 110.648 58.5161 113.941C57.41 117.234 53.6033 120.089 49.9252 121.762C48.5105 122.405 47.0959 123.331 45.7584 124.463C39.2252 130.019 34.9555 140.824 44.9868 150.008L45.0639 150.059Z" fill="#E8D35F"/>
<path d="M56.4585 131.202C56.4585 131.202 58.2847 132.309 58.4648 132.797C58.6448 133.286 59.2364 149.544 59.2364 149.544C64.6636 148.104 68.676 144.837 69.6277 140.129C69.7049 139.666 69.7049 139.177 69.6792 138.611C69.6792 138.354 69.6534 138.071 69.6277 137.788C69.6277 137.762 69.6277 137.711 69.6277 137.685C69.602 137.222 69.5763 136.733 69.6277 136.245C69.7563 136.296 69.8335 136.759 69.8335 136.759C69.8849 136.347 69.7306 135.936 69.6792 135.756L69.6277 135.653C69.6277 135.653 69.6277 135.653 69.6792 135.653C69.7306 135.653 69.8078 135.704 69.8849 135.833C70.0136 136.065 70.065 136.322 70.065 136.322C70.065 136.322 70.1936 135.653 69.9878 135.241C69.9364 135.113 69.8849 134.933 69.8849 134.753C69.8849 134.341 69.9364 133.904 70.065 133.904C70.0907 133.904 70.1422 133.929 70.1679 133.981C70.2708 134.161 70.3479 134.547 70.3479 134.547C70.5537 134.264 70.4765 133.801 70.3994 133.569C70.3994 133.569 70.3994 133.543 70.4251 133.518C70.4251 133.518 70.4508 133.466 70.4765 133.441C70.4765 133.415 70.528 133.363 70.5537 133.338C70.9395 132.823 71.5054 132.437 72.4313 131.846C72.4313 131.846 72.457 131.846 72.4828 131.82C74.6948 130.328 74.6691 127.421 74.489 125.826C74.489 125.774 74.489 125.723 74.489 125.646C74.4376 125.209 74.4119 124.591 74.3861 124.231C74.3861 124.205 74.4376 124.282 74.5147 124.334C74.6176 124.411 74.8234 124.463 74.8234 124.463C74.8234 124.463 74.5405 124.308 74.4376 123.768C74.309 123.176 74.7462 123.922 74.7462 123.922C74.7462 123.922 74.6948 123.639 74.5405 123.305C74.4376 123.099 74.3861 122.765 74.3604 122.636C74.3604 122.61 74.3604 122.585 74.3604 122.533C74.3604 122.43 74.3604 122.353 74.3604 122.25C74.3604 122.173 74.3604 122.07 74.3604 121.993C74.3604 121.864 74.3604 121.761 74.3604 121.633C74.3604 121.504 74.3604 121.375 74.3604 121.273C74.3604 120.938 74.4119 120.655 74.4376 120.372C74.4376 120.244 74.4376 120.141 74.4633 120.038C74.4633 120.038 74.4633 120.038 74.4633 120.012C74.4633 119.935 74.4633 119.832 74.489 119.755C74.489 119.678 74.489 119.6 74.5147 119.523C74.5147 119.472 74.5147 119.42 74.5147 119.369L69.3448 118.314C69.3448 118.314 68.7789 119.575 68.5732 121.067C68.4446 121.941 68.4446 122.868 68.7532 123.665C69.2934 125.028 66.3611 127.395 64.072 128.784C62.7602 129.582 61.6542 130.045 61.4484 129.839C61.4484 129.839 61.4227 129.813 61.397 129.788C60.7539 129.222 57.7188 128.476 56.8443 128.733C56.8443 128.733 59.828 129.196 60.2395 130.071C60.1624 130.071 58.9535 129.556 58.722 129.762C58.722 129.762 61.4741 131.074 61.5256 131.588C61.5256 131.588 59.2621 130.688 59.0821 131.177C58.902 131.666 60.2652 131.331 60.6253 132C60.6253 132 56.9215 130.894 56.3813 131.177L56.4585 131.202Z" fill="#FFF2BA"/>
<g style="mix-blend-mode:multiply" opacity="0.2">
<path d="M68.0332 120.501C68.239 120.758 68.4191 120.964 68.6249 121.092C69.5252 121.761 70.3999 121.375 70.6829 122.173C71.0173 123.15 73.2554 123.742 73.1525 123.15C73.0496 122.559 72.7923 121.915 73.3583 122.018C73.9242 122.147 74.0786 122.97 74.3358 122.533C74.3358 122.43 74.3358 122.353 74.3358 122.25C74.3358 122.173 74.3358 122.07 74.3358 121.993C74.3358 121.864 74.3358 121.761 74.3358 121.632C74.3358 121.504 74.3358 121.375 74.3358 121.272C74.3358 120.938 74.3873 120.655 74.413 120.372C74.413 120.243 74.413 120.14 74.4387 120.037C74.4387 120.037 74.4387 120.037 74.4387 120.012C74.4387 119.935 74.4387 119.832 74.4645 119.755C74.4645 119.677 74.4645 119.6 74.4902 119.523C74.4902 119.472 74.4902 119.42 74.4902 119.369C74.5931 118.7 74.6703 118.314 74.6703 118.314L72.2778 115.896C69.6539 115.716 65.4607 115.561 65.2549 116.153C64.9719 117.053 66.8498 118.983 67.956 120.449L68.0332 120.501Z" fill="#A39024"/>
</g>
<path d="M64.9979 112.603C64.9979 116.05 65.821 117.568 69.2934 119.317C73.4345 121.375 78.7845 120.449 79.9676 118.674C80.8421 117.336 81.7167 116.204 82.1282 115.69C82.2568 115.51 82.334 115.407 82.334 115.407C82.334 115.407 82.2054 113.812 81.7424 111.882C81.1765 109.464 79.839 106.892 78.1671 105.451C76.2123 103.753 73.1515 102.982 70.6051 102.956C69.4991 102.956 68.496 103.059 67.7501 103.316C65.2294 104.165 64.9979 112.088 64.9979 112.603Z" fill="#E8D672"/>
<g style="mix-blend-mode:multiply" opacity="0.2">
<path d="M61.4477 129.788C61.4991 129.942 61.5506 130.097 61.6278 130.251C62.4767 132 63.9688 132.798 63.9688 132.798L63.9173 132.386C63.9173 132.386 65.538 133.492 65.4351 133.312C65.1264 132.746 65.7695 133.029 66.6442 133.492C67.7246 134.033 68.5478 133.158 69.1395 133.698C69.7312 134.238 69.9113 133.904 70.4258 133.544C70.4258 133.544 70.4515 133.492 70.4772 133.467C70.4772 133.441 70.5287 133.389 70.5544 133.364C70.9403 132.849 71.5062 132.463 72.4323 131.872C72.4323 131.872 72.458 131.872 72.4838 131.846C72.4323 131.383 72.1751 130.946 72.1751 130.946L64.1231 128.81L61.6278 128.167C61.6278 128.167 61.139 128.785 61.4477 129.814V129.788Z" fill="#A39024"/>
</g>
<path opacity="0.23" d="M70.6048 103.033C70.6563 104.576 73.0487 104.268 75.827 106.094C78.6053 107.921 79.5572 114.532 79.5572 114.532L82.104 115.69C82.2326 115.51 82.3097 115.407 82.3097 115.407C82.3097 115.407 82.1811 113.812 81.7181 111.882C81.1521 109.464 79.8144 106.892 78.1423 105.451C76.1872 103.753 73.1259 102.982 70.5791 102.956C70.5791 102.956 70.5791 103.007 70.5791 103.033H70.6048Z" fill="#FFF5BC"/>
<g style="mix-blend-mode:multiply" opacity="0.47">
<path d="M42.5952 136.476C43.0582 136.476 43.444 129.376 47.8938 124.746C49.9514 122.611 54.8642 120.475 57.0248 119.575C60.9344 117.929 61.7832 113.324 62.169 111.137C62.5805 108.951 64.2781 108.77 64.2781 108.77V107.716L62.8635 106.275C62.8635 106.275 61.7575 106.893 61.4231 107.664C61.4231 107.664 62.0661 107.561 62.2976 107.561C62.2976 107.561 61.3716 108.307 61.1401 108.796L61.9889 108.616C61.9889 108.616 59.6483 110.7 58.5423 113.993C57.4363 117.285 53.6296 120.141 49.9514 121.813C48.5368 122.456 42.3894 128.553 42.5437 136.476H42.5952Z" fill="#A3912E"/>
</g>
<path d="M76.676 113.452C76.676 113.452 76.7532 109.593 74.0264 108.641C72.1227 107.972 70.7078 108.307 69.9618 109.336C69.2929 110.262 69.4216 113.555 72.2513 114.223C75.0811 114.892 76.676 113.452 76.676 113.452Z" fill="#FFF2BA"/>
<path d="M75.4664 112.808C75.6207 112.577 75.2863 112.294 75.2606 112.088C75.2348 111.882 75.1834 110.03 73.3569 109.824C72.3536 109.721 71.5561 110.467 71.2217 110.416C70.8358 110.364 71.0931 110.724 71.5304 111.084C71.5304 111.084 71.4275 112.782 72.5851 113.271C73.7942 113.786 74.6174 113.04 74.849 112.988C75.0805 112.937 75.3377 113.04 75.4921 112.808H75.4664Z" fill="#99840D"/>
<path d="M71.9162 111.265C71.6847 112.062 72.1477 112.885 72.9452 113.117C73.2025 113.194 73.4855 113.194 73.7427 113.117C74.2315 112.988 74.6688 112.602 74.8232 112.088C75.029 111.419 74.7203 110.724 74.1543 110.39C74.0514 110.339 73.9228 110.261 73.7942 110.236C72.9967 110.004 72.1735 110.467 71.9419 111.265H71.9162Z" fill="#FFF9E0"/>
<path d="M72.3024 111.341C72.0966 112.087 72.5082 112.885 73.2542 113.091C73.4085 113.142 73.5629 113.142 73.7172 113.142C74.206 113.013 74.6433 112.628 74.7977 112.113C75.0035 111.444 74.6948 110.75 74.1288 110.415C74.1288 110.415 74.0774 110.415 74.0517 110.39C73.3056 110.184 72.5082 110.595 72.3024 111.341Z" fill="#E4D57B"/>
<path d="M73.6656 112.731C74.2197 112.731 74.6689 112.281 74.6689 111.727C74.6689 111.173 74.2197 110.724 73.6656 110.724C73.1115 110.724 72.6624 111.173 72.6624 111.727C72.6624 112.281 73.1115 112.731 73.6656 112.731Z" fill="#99840D"/>
<path d="M74.0766 110.673C74.0766 110.673 74.3338 111.007 74.128 111.265C73.9222 111.522 73.7936 111.265 73.8451 111.187C73.8965 111.11 73.8708 110.647 73.8965 110.621C73.9223 110.596 74.0766 110.673 74.0766 110.673Z" fill="#FFF9E0"/>
<path d="M81.2302 114.918C81.2302 114.918 80.4327 114.969 79.8925 114.609C79.3522 114.249 78.529 115.381 78.5033 115.921C78.4776 116.461 77.4743 118.339 75.6993 118.365C75.6993 118.365 70.8887 121.632 66.2067 116.641C65.6922 116.101 65.3321 115.561 65.1005 114.558C65.1005 114.558 64.8947 116.23 65.8466 117.207C65.8466 117.207 65.5379 117.259 65.3321 117.104C65.3321 117.104 65.9237 117.876 66.927 118.159C66.927 118.159 66.2582 118.159 66.1038 118.03C66.1038 118.03 66.464 118.802 67.9046 119.034C67.9046 119.034 68.3419 120.371 70.1684 120.68C70.1684 120.68 70.014 120.912 70.0912 121.015C70.0912 121.015 70.5028 120.68 71.0173 120.577C71.0173 120.577 70.863 120.757 70.863 121.066C70.863 121.375 70.6829 121.658 70.6829 121.658C70.6829 121.658 71.3517 121.246 71.3775 121.04C71.3775 121.04 71.3003 121.4 71.1459 121.58C71.1459 121.58 71.7376 121.58 71.892 121.349C71.892 121.349 71.7633 121.709 71.7633 121.941C71.7633 121.941 72.3807 121.658 72.5094 121.349C72.5094 121.349 72.6637 121.889 72.9467 122.095C72.9467 122.095 73.0496 121.555 73.2554 121.349C73.2554 121.349 73.4097 121.838 73.5898 121.915C73.5898 121.915 73.6413 121.503 74.2329 121.195C74.2329 121.195 74.3101 121.426 74.13 121.58C74.13 121.58 74.5159 121.838 74.8504 121.298C74.8504 121.298 74.9533 122.069 74.8246 122.198C74.8246 122.198 75.2619 121.735 75.442 121.323L75.3906 121.555C75.3906 121.555 76.0851 121.632 77.0884 120.526C77.0884 120.526 76.7797 121.272 76.6768 121.349C76.6768 121.349 78.2718 120.732 78.7091 119.908C78.7091 119.908 78.7348 120.5 78.5033 120.809C78.5033 120.809 79.841 120.5 80.5099 118.854C81.1787 117.207 81.2302 114.943 81.2302 114.943V114.918Z" fill="#FFF2BA"/>
<path d="M77.9864 117.594C77.9864 117.799 77.9864 117.979 78.0379 118.159C78.1408 118.803 78.5009 119.163 79.4527 119.163C80.6361 119.163 81.6394 118.391 81.6394 117.388C81.6394 116.822 81.3307 116.282 80.8419 115.921C80.456 115.638 79.9673 115.458 79.427 115.536C78.6295 115.664 77.9607 117.182 77.9607 117.594H77.9864Z" fill="#FFF2BA"/>
<path d="M80.6615 116.075C80.6615 116.075 80.7387 116.23 80.8159 116.281C81.0474 116.461 81.4333 116.719 81.6133 117.67C81.6133 117.67 83.0025 117.516 83.3626 116.564C83.4398 116.333 83.4913 116.075 83.4141 115.767C83.3369 115.278 82.9768 114.944 82.6681 114.738C82.4108 114.558 82.1793 114.48 82.1793 114.48C82.1793 114.48 82.205 114.841 81.6905 114.841C81.1246 114.841 80.7644 115.201 80.6615 115.638C80.6358 115.792 80.6358 115.947 80.6615 116.101V116.075Z" fill="#8F7900"/>
<path opacity="0.37" d="M82.5133 114.995C82.1789 115.15 81.7416 114.841 81.7416 115.124C81.7416 115.304 82.1532 115.664 82.9506 115.896C83.0793 115.921 83.3365 115.896 83.4394 115.767C83.3622 115.278 83.0021 114.944 82.6934 114.738C82.7191 114.815 82.6419 114.97 82.539 115.021L82.5133 114.995Z" fill="#D9D2A8"/>
<g style="mix-blend-mode:multiply">
<path d="M80.6615 116.076C80.6615 116.076 80.7387 116.23 80.8159 116.282C81.0474 116.462 81.4333 116.719 81.6133 117.671C81.6133 117.671 83.0025 117.516 83.3626 116.565C83.3626 116.565 82.8224 116.925 82.0507 116.487C81.2789 116.05 81.3046 115.355 80.6615 115.613C80.6358 115.767 80.6358 115.921 80.6615 116.076Z" fill="#988414"/>
</g>
<g style="mix-blend-mode:multiply">
<path d="M78.0122 118.159C78.1151 118.803 78.4752 119.163 79.4271 119.163C80.6104 119.163 81.6137 118.391 81.6137 117.388C81.6137 116.822 81.305 116.282 80.8162 115.921C80.7648 115.921 80.7133 115.947 80.6619 115.999C80.6619 115.999 80.6361 116.333 80.9448 116.693C81.2535 117.053 81.588 117.722 81.3307 118.082C81.0735 118.442 80.3789 119.317 79.247 119.034C78.218 118.777 78.0122 118.262 77.9865 118.185L78.0122 118.159Z" fill="#CEC48F"/>
</g>
<g style="mix-blend-mode:multiply">
<path d="M80.8156 116.281C81.0471 116.461 81.4329 116.719 81.613 117.671C81.613 117.671 81.7674 117.156 81.5359 116.667C81.3558 116.307 80.9442 116.153 80.8156 116.281Z" fill="#CEC48F"/>
</g>
<path d="M79.7878 116.024C78.3472 115.304 76.7008 114.918 75.0801 115.149C76.675 114.944 78.3214 115.355 79.7106 116.127C79.7621 116.178 79.8392 116.075 79.762 116.024H79.7878Z" fill="#6B5C09"/>
<path d="M79.5818 116.333C78.0125 115.947 76.3147 115.921 74.8226 116.513C76.3404 115.947 78.0125 115.998 79.556 116.436C79.6332 116.436 79.6589 116.359 79.5818 116.333Z" fill="#6B5C09"/>
<path d="M79.3247 116.616C77.7297 116.487 76.0319 116.77 74.6427 117.619C76.0319 116.821 77.704 116.59 79.2989 116.744C79.3761 116.744 79.3761 116.641 79.2989 116.641L79.3247 116.616Z" fill="#6B5C09"/>
<path d="M79.9936 116.873C78.3729 116.873 76.7265 117.233 75.3888 118.185C76.7265 117.284 78.3729 116.95 79.9679 117.001C80.045 117.001 80.045 116.899 79.9679 116.899L79.9936 116.873Z" fill="#6B5C09"/>
<path d="M79.6588 117.233C78.0638 117.439 76.4689 118.031 75.2855 119.137C76.4946 118.082 78.0896 117.516 79.6845 117.362C79.7617 117.362 79.7617 117.233 79.6845 117.259L79.6588 117.233Z" fill="#6B5C09"/>
<path d="M78.6042 117.208C77.0093 117.413 75.4143 118.005 74.231 119.111C75.44 118.056 77.035 117.49 78.6299 117.336C78.7071 117.336 78.7071 117.208 78.6299 117.233L78.6042 117.208Z" fill="#6B5C09"/>
<path d="M63.3514 102.955C63.0942 103.264 61.4992 105.862 63.3514 107.895C64.3547 109.001 65.1522 109.695 65.6409 110.107C66.0525 110.441 66.2841 110.57 66.2841 110.57L68.3164 107.277C68.3164 107.277 68.3421 107.226 68.3935 107.149C68.3935 107.123 68.445 107.072 68.445 107.02C68.7022 106.454 69.0881 104.988 68.162 102.698C67.3645 100.769 67.0558 99.8427 66.4899 99.1739C66.2069 98.8395 65.8467 98.5822 65.3322 98.2735C63.8402 97.4246 62.8884 95.5981 62.8112 95.4695C62.8626 95.6238 63.7373 97.9905 64.329 98.4536C64.0717 98.2992 63.1199 97.6304 62.9913 97.3474C62.9913 97.4246 63.1713 97.9648 63.3257 98.1706L62.734 97.7847C62.734 97.7847 63.5829 98.9424 63.8145 99.4311C63.7887 99.4054 63.4286 98.9424 62.7083 98.5565C62.4768 98.4279 62.2195 98.325 61.9365 98.2221C62.0394 98.2735 63.5058 99.1482 63.5058 100.769L63.1713 100.434C63.1713 100.434 63.1713 101.283 63.5315 101.875C63.5315 101.875 63.3514 101.721 63.2228 101.772C63.2228 101.772 63.5572 102.698 63.3257 103.007L63.3514 102.955Z" fill="#E8D672"/>
<path d="M64.9204 99.4833C64.9204 99.4833 65.3063 99.7919 65.9237 100.564C66.3096 101.078 66.6954 102.236 66.7726 103.213C66.8498 104.191 67.4415 105.4 67.4415 105.4C67.4415 105.4 66.6183 105.349 66.361 105.04C66.361 105.04 66.5668 106.609 66.9784 106.944C67.39 107.278 67.6987 107.844 67.2614 107.998C66.8241 108.153 66.7469 108.513 66.8241 108.821C66.9012 109.13 66.927 109.67 66.6183 109.259C66.3096 108.847 65.898 108.153 65.8208 108.538C65.7436 108.924 65.9237 109.413 65.9237 109.413C65.9237 109.413 65.4092 108.924 65.3577 108.693C65.3063 108.461 65.9751 101.593 65.6922 100.975C65.2548 100.023 64.9204 99.4575 64.9204 99.4575V99.4833Z" fill="#F5EFCC"/>
<path d="M65.2034 99.9713C65.2034 99.9713 66.4125 101.515 66.4125 102.93C66.4125 104.345 67.1328 105.116 67.1328 105.116C67.1328 105.116 66.1038 104.782 66.0523 104.37C66.0523 104.37 66.2067 106.454 67.0556 107.226C67.9045 107.998 66.4639 108.383 66.3096 107.071C66.3096 107.071 66.3096 107.74 66.361 108.023C66.4125 108.306 66.7469 109.001 66.7469 109.001C66.7469 109.001 65.898 107.56 65.6665 108.075C65.4349 108.589 65.8465 109.258 65.8465 109.258C65.8465 109.258 64.7661 108.589 64.586 106.788C64.4059 104.988 65.049 104.267 64.3287 103.573C64.3287 103.573 64.7661 103.599 64.8947 103.753C64.8947 103.753 64.8947 102.981 64.5603 102.93C64.5603 102.93 64.8947 102.75 64.9976 103.058C65.0748 103.238 64.9976 102.518 65.049 101.618C65.1005 101.103 65.4606 100.614 65.2291 99.9456L65.2034 99.9713Z" fill="#99840D"/>
<path opacity="0.23" d="M66.2833 99.6366C66.8493 100.563 68.187 102.955 68.6243 104.833C68.6243 104.833 68.8559 106.119 68.4957 106.968C68.753 106.402 69.1388 104.936 68.2127 102.646C67.4153 100.717 67.1065 99.7909 66.5406 99.1221C66.2833 99.0706 65.9489 99.0706 66.3091 99.6623L66.2833 99.6366Z" fill="#FFF5BC"/>
<g style="mix-blend-mode:multiply" opacity="0.47">
<path d="M63.3515 102.956C63.0942 103.265 61.4993 105.863 63.3515 107.896C64.3547 109.002 65.1522 109.696 65.641 110.108C65.6153 110.031 65.5381 109.928 65.4867 109.851C64.5863 108.642 63.583 107.613 63.1199 106.429C62.6569 105.246 63.3515 104.243 63.7888 103.728C64.2261 103.214 63.5058 102.03 63.7116 102.365C63.9174 102.699 64.0975 102.519 63.9689 102.107C63.866 101.747 63.5058 101.207 63.4286 101.053C63.5315 101.181 63.866 101.619 63.9689 101.258C64.0718 100.847 63.6344 99.9465 63.4801 99.3805C63.4029 99.149 63.0942 98.8403 62.7598 98.5573C62.5283 98.4287 62.271 98.3258 61.988 98.2229C62.0909 98.2744 63.5573 99.149 63.5573 100.77L63.2228 100.435C63.2228 100.435 63.2228 101.284 63.583 101.876C63.583 101.876 63.4029 101.722 63.2743 101.773C63.2743 101.773 63.6087 102.699 63.3772 103.008L63.3515 102.956Z" fill="#A3912E"/>
</g>
<path d="M47.3788 151.422C47.3788 151.422 49.5651 152.374 49.1536 151.834C49.0764 151.731 49.4108 151.782 49.6423 151.834C50.4139 152.04 50.9541 152.477 50.6197 151.962C50.3882 151.577 50.7226 151.628 50.9284 151.808C51.4171 152.22 52.2401 152.322 52.1115 152.22C50.9284 151.525 53.1661 152.065 53.449 152.117C54.2721 152.245 55.5067 152.22 55.5067 152.22C55.5067 152.22 55.3009 152.117 55.2495 152.04C55.2238 151.962 55.8154 152.014 56.6127 152.168C57.3844 152.322 57.8988 152.168 57.8988 152.168C57.8988 152.168 57.513 151.885 57.693 151.834C57.9759 151.757 59.082 151.885 59.5449 152.014C59.5449 152.014 59.5964 152.014 59.6478 152.04C60.3423 152.271 63.8661 153.454 64.9207 153.609C64.9207 153.609 64.9464 153.609 64.9721 153.609C65.3322 153.66 65.6666 153.686 65.9495 153.686C66.2067 153.686 66.4382 153.686 66.644 153.686C69.6533 153.428 69.7048 151.062 69.7048 151.062C69.7048 151.062 69.7048 150.959 69.7048 150.831C69.7048 150.393 69.5247 149.519 68.0586 149.107C67.6471 149.004 67.1584 148.927 66.5154 148.902C63.0944 148.824 60.6767 149.622 59.082 149.03C58.9791 149.004 58.9019 148.953 58.799 148.902C57.5387 148.284 51.1341 150.188 48.4849 151.011C48.2534 151.088 48.0219 151.165 47.8675 151.216C47.8161 151.216 47.7647 151.242 47.7132 151.268C47.456 151.345 47.3274 151.397 47.3274 151.397L47.3788 151.422Z" fill="#DBC651"/>
<path d="M59.6735 152.091C60.3681 152.323 63.8924 153.506 64.9471 153.661C64.9471 153.661 64.9729 153.661 64.9986 153.661C65.3587 153.712 65.6932 153.738 65.9761 153.738C66.2334 153.738 66.4649 153.738 66.6707 153.738C69.6806 153.481 69.732 151.114 69.732 151.114C69.732 151.114 69.732 151.011 69.732 150.882C69.732 150.445 69.5519 149.57 68.0856 149.159C68.4457 149.519 68.5744 149.879 67.4682 149.802C65.4102 149.673 65.7703 149.905 65.7703 149.905C65.7703 149.905 67.3138 149.93 67.5454 150.599C67.8026 151.268 65.9247 149.982 65.1015 150.368C64.2783 150.754 66.8508 150.471 66.6964 151.654C66.5678 152.837 65.0757 150.857 63.9438 151.345C62.7862 151.834 66.7479 152.04 65.2301 152.683C63.9696 153.198 62.3232 151.911 60.6253 151.937C60.2909 151.937 59.9307 151.988 59.5963 152.143L59.6735 152.091Z" fill="#FFF2BA"/>
<g style="mix-blend-mode:multiply" opacity="0.47">
<path d="M66.6951 153.712C69.7049 153.455 69.7564 151.088 69.7564 151.088C69.7564 151.088 69.7564 150.985 69.7564 150.856C69.3705 150.316 68.7016 150.265 68.6245 150.265C68.7016 150.29 69.2419 150.496 69.4734 151.011C69.5763 151.242 69.7564 151.525 69.5249 151.86C69.3962 152.065 69.1904 152.22 69.0361 152.117C68.3415 151.68 67.5955 151.448 67.4669 151.422C67.544 151.448 67.9042 151.628 68.6245 152.168C69.1647 152.554 68.6759 153.069 68.2129 153.249C67.9556 153.352 67.8013 153.506 67.6212 153.146C67.1067 152.143 66.515 152.374 66.515 152.374C67.4411 152.992 67.1324 153.455 66.6694 153.738L66.6951 153.712Z" fill="#A3912E"/>
</g>
<path d="M43.6494 147.435C44.0095 148.592 45.0126 149.647 45.8871 150.367C46.6588 151.01 47.3275 151.422 47.3533 151.422C47.4304 151.422 48.0734 151.37 49.0766 151.242C51.4172 150.933 55.6869 150.239 59.1335 149.055C59.6737 148.875 60.1881 148.669 60.6768 148.464C63.0174 147.435 64.998 144.811 64.998 141.955C64.998 137.813 63.7633 136.45 62.0143 134.804C59.9823 132.874 57.3073 132.565 55.584 132.565C53.6806 132.565 52.8319 133.209 51.5972 134.109C50.3626 135.009 50.9028 136.733 51.1857 136.013C51.4429 135.318 51.803 135.344 51.803 135.344C51.803 135.344 50.6198 138.868 51.6487 137.17C52.6775 135.498 56.8701 133.697 58.5419 139.383C59.2107 141.621 58.1304 144.811 55.3783 145.968C51.8287 147.46 50.4398 143.421 50.4398 143.421C50.4398 143.421 50.5427 144.785 50.0797 143.679C50.0797 143.704 50.1569 144.065 49.9254 144.399C49.5138 144.965 49.3852 145.377 48.2792 145.402C47.8934 145.402 47.1732 145.145 46.2472 143.087C46.1701 142.881 46.4787 144.348 46.3244 144.245C45.8614 143.884 45.4756 143.679 45.3727 143.91C45.2184 144.27 45.2956 146.097 44.884 146.689C44.421 147.383 42.852 144.862 43.6494 147.46V147.435Z" fill="#DBC651"/>
<g style="mix-blend-mode:multiply" opacity="0.47">
<path d="M45.8613 150.265V150.394C46.1699 150.625 46.4271 150.831 46.6586 150.985C46.7358 151.037 46.7615 151.14 46.7872 151.217C46.9673 151.294 47.1473 151.371 47.3531 151.423C47.3531 151.423 47.3531 151.423 47.3788 151.423C47.6617 151.551 49.488 152.323 49.1279 151.834C49.0507 151.731 49.3851 151.783 49.6165 151.834C50.3882 152.04 50.9283 152.477 50.594 151.963C50.3625 151.577 50.6968 151.628 50.9026 151.808C51.3913 152.22 52.2144 152.323 52.0858 152.22C50.9026 151.526 53.1403 152.066 53.4233 152.117C54.2464 152.246 55.481 152.22 55.481 152.22C55.481 152.22 55.2752 152.117 55.2238 152.04C55.198 151.963 55.7896 152.014 56.587 152.169C57.3586 152.323 57.873 152.169 57.873 152.169C57.873 152.169 57.4872 151.886 57.6673 151.834C57.9502 151.757 59.0562 151.886 59.5192 152.014C59.5192 152.014 59.5706 152.014 59.6221 152.04C60.3165 152.271 63.8403 153.455 64.8949 153.609C64.8949 153.609 64.9206 153.609 64.9463 153.609C65.3064 153.66 65.6408 153.686 65.9238 153.686H66.6182C66.6182 153.686 65.2293 153.635 63.8661 153.12C63.1716 152.863 61.9112 152.297 60.6252 151.808C59.4163 151.371 58.2074 151.011 57.4615 151.14C55.9954 151.371 57.1014 151.86 57.1786 151.911C57.0757 151.911 55.3266 151.603 54.4521 151.371C53.5776 151.14 54.2206 151.886 54.6065 151.989C54.7865 152.04 53.9377 151.989 53.0889 151.783C52.6259 151.654 52.1887 151.5 51.8543 151.397C51.4942 151.268 51.2884 151.243 51.3656 151.397C51.3656 151.448 51.3913 151.474 51.417 151.5C51.5456 151.808 51.3913 151.808 50.9798 151.577C50.9026 151.526 50.7997 151.474 50.6711 151.397C50.0024 150.96 49.6937 151.448 49.9509 151.654C50.0795 151.757 49.5394 151.474 48.9735 151.243C48.7935 151.165 48.5877 151.088 48.4076 151.037C48.0218 150.934 47.7389 150.908 47.7903 151.14C47.7903 151.191 47.7903 151.217 47.7903 151.243C47.7903 151.294 47.7132 151.294 47.636 151.294C47.1473 151.243 45.7327 150.24 45.7327 150.24L45.8613 150.265Z" fill="#A3912E"/>
</g>
<path d="M27.3934 112.757C27.3934 112.757 27.2391 109.438 28.268 108.589C28.268 108.589 28.1136 109.696 28.1651 111.111C28.2165 113.169 28.6538 115.87 30.5314 116.667C30.5314 116.667 33.0006 119.831 36.0615 118.777C39.1223 117.696 38.3764 113.94 39.2766 112.062C39.8167 110.905 42.1831 110.339 43.6492 111.651C43.9321 111.908 44.1893 112.242 44.3951 112.628C44.961 113.76 44.6523 115.561 44.6523 115.561C44.6523 115.561 44.5494 112.783 43.4949 112.5C43.4949 112.5 44.7038 114.969 43.8292 116.101C43.8292 116.101 43.9064 113.503 42.9547 113.554C42.9547 113.554 44.0093 115.998 42.3889 118.494C42.4403 118.339 43.0319 116.873 42.6203 116.487C42.6203 116.487 42.5432 118.365 41.5915 119.085C40.6398 119.806 41.18 122.018 39.4566 123.484C39.4566 123.484 40.897 120.963 40.4598 119.214C40.4598 119.214 40.2026 121.992 38.7879 123.073C37.3732 124.153 37.5276 127.472 37.5276 127.472C37.5276 127.472 37.2189 122.867 38.2478 121.375C38.1706 121.452 36.7559 122.944 36.6788 128.784C36.6788 128.784 35.4956 127.755 35.7271 126.366C35.8814 125.388 35.0069 125.465 34.5182 126.005C34.3124 126.211 34.1838 126.52 34.2353 126.829C34.2353 126.829 34.6211 125.877 35.0326 126.571C35.4441 127.266 34.6468 129.864 34.8526 130.893C35.0326 131.922 33.8237 131.228 33.0264 129.092C33.0264 129.092 32.8463 132.823 33.8237 134.186C33.8237 134.186 31.6889 132.823 31.4574 131.819C31.4574 131.819 32.5377 136.45 33.7466 137.659C33.7466 137.659 33.4122 137.865 32.7434 136.733C32.049 135.601 30.5314 136.733 30.9172 137.376C30.9172 137.376 31.6631 134.983 33.5922 139.048C33.5151 138.971 32.4605 137.607 31.8689 137.35C31.9203 137.479 33.798 141.62 34.6982 142.341C34.6468 142.341 33.7466 141.955 32.1776 139.46C32.2804 139.691 33.9523 143.035 35.1612 143.884C35.0841 143.859 33.8494 143.344 32.5891 141.826C32.7434 142.032 35.2384 145.454 38.0677 146.766C38.0677 146.766 36.6788 146.894 33.4122 144.913C33.5151 145.016 35.1355 146.585 38.2478 147.614C38.2478 147.614 37.579 148.026 35.83 147.512C35.83 147.512 37.579 149.287 40.897 149.775C40.897 149.775 41.36 150.856 38.2992 150.264C38.2992 150.264 40.3826 151.911 42.003 150.444C42.003 150.444 42.3374 150.727 41.5658 151.036C41.5658 151.036 42.466 151.679 43.4691 151.242C43.4691 151.242 43.8807 151.911 45.0124 151.473C45.0124 151.473 46.1956 152.013 46.9929 151.396C46.9929 151.396 45.1153 149.441 45.4754 148.849C45.4754 148.849 44.8066 148.618 44.7809 149.235C44.7809 149.235 44.4723 147.486 44.7809 147.254C45.0381 147.048 44.2665 147.512 44.035 147.82C44.1636 147.409 44.3951 146.225 44.2408 145.454C44.0865 144.656 43.7521 144.425 43.7521 144.425C43.7521 144.425 43.9064 145.222 43.4949 145.582C43.4949 145.582 43.8292 143.601 43.4949 142.418C43.4949 142.418 43.4177 142.907 43.0319 142.984C42.8518 143.01 41.9516 137.762 43.2891 132.823C44.6523 127.883 48.2276 123.227 50.6711 122.069C55.5066 119.754 58.4131 118.365 59.7249 117.002C59.6477 117.027 58.336 117.619 57.8473 117.49C57.8473 117.49 60.3679 116.461 60.7795 114.558C60.7538 114.609 60.3937 115.201 59.6477 114.918C59.6477 114.918 60.5994 113.94 60.7795 113.297L59.8021 114.12C59.8021 114.12 61.011 112.294 61.011 110.905C61.011 110.905 60.6766 112.448 59.7249 112.68C59.7249 112.68 61.2939 108.435 60.8309 109.233C60.4194 109.979 59.4163 112.062 59.2362 111.882C59.0562 111.728 61.191 108.332 60.728 107.406C60.728 107.406 60.1107 109.85 58.8504 110.39C58.8504 110.39 60.3422 107.2 59.9307 104.859C59.9307 104.859 59.622 108.255 58.8504 108.435C58.8504 108.435 60.1364 102.698 57.9759 99.6371C58.0273 99.7657 59.0562 102.698 57.6672 102.724C57.6672 102.724 57.7444 99.0969 56.0725 98.4023C56.0725 98.4023 57.3586 101.644 55.7381 101.001C54.092 100.357 53.809 99.4056 53.3975 98.2994C52.703 96.4215 51.1855 95.7526 50.5939 95.7012C50.5939 95.7012 52.0343 96.6273 51.7514 97.7335C51.7514 97.7335 50.7739 95.1867 48.1504 94.5178C48.1504 94.5178 49.3079 95.2124 49.0249 96.0099C49.0249 96.0099 45.1153 93.9004 44.4208 94.3378C44.4208 94.3378 46.247 94.6979 46.0927 95.5726C46.0413 95.907 42.1317 94.3378 40.0225 94.5178C40.0225 94.5178 42.5689 94.9552 42.8261 95.8041C42.8261 95.8041 36.9874 94.6722 36.3187 95.1095C36.3187 95.1095 41.2314 95.624 41.4115 96.3958C41.5143 96.936 39.9711 95.9842 38.0163 95.7526C36.293 95.5726 33.1807 95.6755 32.3833 96.37C32.5377 96.3443 36.2929 95.5726 36.9617 96.37C37.6304 97.1932 31.5603 96.5244 30.1713 97.5277C30.1713 97.5277 35.6756 96.6273 36.0615 97.5019C36.0615 97.5019 30.66 98.1451 30.2228 99.1998C30.2228 99.1998 33.5922 97.9393 34.261 99.0197C34.261 99.0197 31.5345 98.2737 28.3708 101.875C25.5415 105.117 27.4963 112.886 27.4963 112.886L27.3934 112.757Z" fill="#E8D35F"/>
<path d="M52.2926 119.163C52.2926 119.163 57.5139 118.623 57.231 113.143C57.231 113.143 57.1024 114.481 55.7392 114.533C55.7392 114.533 57.5139 112.629 57.051 109.645C57.051 109.645 56.0221 112.475 55.1733 112.732C55.1733 112.732 58.9029 105.297 54.7875 102.545C54.7875 102.545 56.6652 105.477 55.5334 107.69C55.5334 107.69 55.7649 100.77 50.312 99.4834C50.312 99.4834 51.5209 99.895 51.7524 101.902C51.9839 103.908 51.6495 102.236 50.6721 101.207C50.6721 101.207 51.9839 103.394 51.881 104.628C51.881 104.628 50.3378 100.59 46.6082 99.4834C46.6082 99.4834 49.3603 101.336 49.8748 103.394C49.8748 103.394 46.6596 98.5315 42.6729 98.6344C42.6729 98.6344 45.5279 99.2004 46.8654 101.927C46.8654 101.927 43.213 98.4801 40.2293 99.4834C40.2293 99.4834 43.5474 99.6892 44.5248 101.619C44.5248 101.619 40.9238 99.612 38.1717 101.001C38.1717 101.001 39.4834 100.667 39.7664 101.336C39.7664 101.336 34.4935 101.902 33.9791 102.956C33.9791 102.956 40.9753 101.979 41.2582 103.008C41.2582 103.008 35.4709 102.931 33.9791 105.452C33.9791 105.452 37.0142 104.32 37.2457 104.628C37.2457 104.628 31.9728 106.892 31.87 108.667C31.7671 110.442 32.3844 112.114 32.3844 112.114C32.3844 112.114 32.2043 108.667 34.1077 107.87C36.0111 107.072 35.1366 109.773 33.9277 110.545C32.7188 111.317 34.262 112.449 34.262 112.449C34.262 112.449 33.3361 111.368 34.9565 110.545C36.5769 109.722 37.4772 109.928 37.8887 108.616C37.8887 108.616 38.9176 108.719 38.4031 109.825C38.4031 109.825 39.6635 109.413 39.8435 107.664C40.0236 105.915 43.9075 104.062 42.3128 106.506C42.2356 106.635 43.2387 107.252 44.2676 105.349C44.9363 104.14 47.9714 106.172 48.2029 106.275C49.4375 106.738 46.8654 107.252 46.8654 107.252C46.8654 107.252 48.2286 107.535 49.489 109.439C50.7493 111.343 48.7173 110.159 48.7173 110.159C48.7173 110.159 47.8428 112.526 50.3892 116.333C52.9356 120.141 49.3861 120.475 49.3861 120.475C49.3861 120.475 51.7267 120.964 52.3183 119.137L52.2926 119.163Z" fill="#DBC651"/>
<path d="M41.2569 137.453C40.691 136.269 40.511 136.578 40.5367 135.395C40.5624 132.976 41.5141 129.041 42.5944 127.111C42.5944 127.111 41.5656 128.706 41.2312 129.658C41.2312 129.658 40.7682 125.954 41.8999 124.693C41.8999 124.693 41.3084 124.204 40.5882 125.465C40.5882 125.465 41.2055 121.915 43.4946 120.551C43.4946 120.551 41.5141 121.091 40.5882 123.458C39.6622 125.825 39.868 128.012 39.5079 128.449C39.5079 128.449 38.5819 126.802 38.942 125.593C38.942 125.593 37.7845 126.545 38.6076 128.989C39.4307 131.433 39.0192 132.179 39.0192 132.179C39.0192 132.179 38.6076 129.787 37.7588 129.709C37.7588 129.709 38.7105 131.973 38.3761 133.028L37.5273 131.227C37.5273 131.227 37.836 133.671 38.4533 134.7C38.4533 134.7 37.7588 133.414 37.0901 133.054C37.0901 133.054 38.5819 134.854 38.8391 137.17C39.0963 139.485 38.8134 141.363 40.2795 142.289C41.7456 143.215 42.1057 143.369 42.1057 143.369C42.1057 143.369 40.511 141.311 40.5882 140.617C40.6653 139.922 41.4627 141.62 41.4627 141.62C41.4627 141.62 40.5367 139.639 40.5367 138.482C40.5367 137.324 41.2312 139.511 41.2312 139.511C41.2312 139.511 41.7971 138.636 41.2312 137.453H41.2569Z" fill="#DBC651"/>
<g style="mix-blend-mode:multiply" opacity="0.47">
<path d="M30.8911 137.273C30.8911 137.273 31.637 134.88 33.5661 138.945C33.489 138.868 32.4344 137.504 31.8428 137.247C31.8942 137.376 33.7719 141.518 34.6721 142.238C34.6207 142.238 33.7204 141.852 32.1514 139.357C32.2543 139.588 33.9262 142.932 35.1351 143.781C35.0579 143.756 33.8233 143.241 32.563 141.723C32.7173 141.929 35.2123 145.351 38.0416 146.663C38.0416 146.663 36.6527 146.791 33.3861 144.81C33.489 144.913 35.1094 146.482 38.2216 147.511C38.2216 147.511 37.5529 147.923 35.8039 147.409C35.8039 147.409 37.5529 149.184 40.8709 149.672C40.8709 149.672 41.3339 150.753 38.2731 150.161C38.2731 150.161 40.3565 151.808 41.9769 150.341C41.9769 150.341 42.3113 150.624 41.5397 150.933C41.5397 150.933 42.4399 151.576 43.443 151.139C43.443 151.139 43.8546 151.808 44.9863 151.37C44.9863 151.37 46.1695 151.91 46.9668 151.293C44.8063 151.473 43.3916 150.007 42.7486 149.287C42.1055 148.566 38.6332 148.206 38.6332 148.206C38.6332 148.206 41.5654 148.18 38.8132 146.765C36.524 145.582 34.6979 143.781 36.9099 145.042C38.1445 145.736 38.8132 145.093 38.8132 145.093C38.8132 145.093 37.5529 144.45 36.8841 143.91C34.2863 141.852 34.3378 140.36 34.3378 140.36C34.3378 140.36 34.0034 138.533 35.2894 140.18C36.5755 141.826 33.5661 134.52 34.4149 135.472C35.2637 136.424 36.0868 136.167 34.9808 133.954C33.8748 131.742 35.4695 131.485 35.7524 130.43C36.0096 129.401 35.4438 126.7 35.418 126.16C35.418 125.851 34.9551 125.902 34.5692 125.98C34.3635 126.185 34.2349 126.494 34.2863 126.803C34.2863 126.803 34.6721 125.851 35.0837 126.546C35.4952 127.24 34.6978 129.838 34.9036 130.867C35.0837 131.896 33.8748 131.202 33.0774 129.067C33.0774 129.067 32.8974 132.797 33.8748 134.16C33.8748 134.16 31.7399 132.797 31.5084 131.793C31.5084 131.793 32.5887 136.424 33.7976 137.633C33.7976 137.633 33.4632 137.839 32.7945 136.707C32.1 135.575 30.5825 136.707 30.9683 137.35L30.8911 137.273Z" fill="#A3912E"/>
</g>
<g style="mix-blend-mode:multiply" opacity="0.47">
<path d="M28.1654 111.111C28.2169 113.169 28.6542 115.87 30.5321 116.641C30.5321 116.641 33.0017 119.806 36.063 118.751C39.1243 117.67 38.3783 113.915 39.2786 112.037C39.8189 110.879 42.1856 110.313 43.6519 111.625C43.6519 111.625 41.9798 108.795 39.6902 109.85C37.4007 110.93 38.2754 113.966 37.5036 115.278C36.7319 116.564 35.6771 114.403 36.0115 113.066C36.0115 113.066 34.751 115.021 35.6771 116.924C36.6032 118.828 34.1594 119.291 32.0499 117.13C32.1271 117.233 32.8988 118.468 32.0499 117.722C31.1752 116.95 30.1462 115.201 30.0176 113.863C30.0176 113.863 29.7346 115.458 30.0176 115.998C30.0176 115.998 28.4741 114.172 28.1654 111.111Z" fill="#A3912E"/>
</g>
<path d="M60.3939 123.664C59.7766 124.873 60.4453 127.009 60.4453 127.009C60.4711 126.7 60.6254 126.648 60.6254 126.648C60.3939 127.652 60.8826 128.989 60.9598 129.247C60.8312 128.835 61.1913 128.912 61.1913 128.912C61.2427 129.735 62.1687 130.662 62.2458 130.713C61.9886 130.353 62.0915 130.07 62.0915 130.07C62.6574 131.536 64.0463 132.257 64.0463 132.257C63.7377 131.871 63.8663 131.536 63.8663 131.536C64.0463 132.025 64.998 132.72 65.0752 132.771C64.6379 132.334 64.8951 132.128 64.8951 132.128C65.2809 132.771 66.5927 133.26 66.747 133.311C66.4898 133.208 66.2069 132.617 66.1812 132.565C66.2583 132.617 67.3386 133.363 68.7276 133.311C70.1422 133.26 73.023 132.385 73.486 131.948C73.666 131.793 73.8203 131.716 73.9747 131.793C74.2062 131.871 74.4634 132.205 74.8749 132.874C75.1321 133.286 75.5951 133.26 75.3379 133.517C74.4634 134.392 74.4119 135.138 74.6949 135.549C74.9264 135.858 75.1836 135.601 75.3122 135.472C75.1836 135.678 74.8492 136.218 75.3379 136.424C75.4665 136.475 75.5694 136.501 75.6723 136.475C76.0581 136.398 76.3153 135.781 76.8297 134.675C77.3184 133.62 77.9615 133.183 77.6014 131.691C77.4728 131.202 77.2413 130.584 76.8554 129.787C76.804 129.658 76.7268 129.555 76.6754 129.452C75.0292 126.726 71.8141 128.192 70.2451 123.176C69.4992 120.835 68.0331 119.574 66.7985 118.931C65.6667 118.339 64.7151 118.236 64.7151 118.236C64.7151 118.236 62.4259 119.06 61.4742 119.523C60.5225 120.011 60.111 122.378 60.111 122.378C59.7766 122.79 59.7766 124.436 59.7766 124.436C59.8023 124.153 60.4196 123.69 60.4196 123.69L60.3939 123.664Z" fill="#E8D672"/>
<path d="M75.3121 133.516C74.4374 134.391 74.386 135.137 74.669 135.548C74.9005 135.857 75.1577 135.6 75.2863 135.471C75.1577 135.677 74.8233 136.217 75.3121 136.423C75.4407 136.475 75.5436 136.5 75.6465 136.475C76.0324 136.397 76.2896 135.78 76.8041 134.674C77.2929 133.619 77.936 133.182 77.5759 131.69C77.5759 131.998 77.4987 132.101 77.3958 132.204C77.3958 132.204 77.3958 131.561 76.9585 131.51C76.4954 131.458 77.0357 132.204 76.7784 132.59C76.5726 132.924 76.3411 132.204 76.2896 132.05C76.3154 132.204 76.444 132.924 76.0066 132.899C75.8523 132.899 75.7237 132.359 75.5693 132.333C75.4664 132.307 75.3635 132.77 75.2092 132.693C75.132 132.642 75.0548 132.564 75.0034 132.487C74.8233 132.23 74.6689 131.895 74.2831 131.818C74.1287 131.793 73.9744 131.793 73.8715 131.818C74.103 131.895 74.3602 132.23 74.7718 132.899C75.0291 133.31 75.4921 133.285 75.2349 133.542L75.3121 133.516Z" fill="#99840D"/>
<g style="mix-blend-mode:multiply" opacity="0.47">
<path d="M60.3941 123.665C59.7767 124.874 60.4455 127.009 60.4455 127.009C60.4713 126.7 60.6256 126.649 60.6256 126.649C60.3941 127.678 60.9086 129.067 60.9858 129.273C60.8314 128.835 61.2173 128.912 61.2173 128.912C61.2688 129.736 62.1949 130.662 62.272 130.713C62.0148 130.353 62.1177 130.07 62.1177 130.07C62.6836 131.536 64.0728 132.257 64.0728 132.257C63.7641 131.871 63.8927 131.536 63.8927 131.536C64.0728 132.025 65.0246 132.72 65.1018 132.771C64.6645 132.334 64.9217 132.128 64.9217 132.128C65.3076 132.771 66.6196 133.26 66.7739 133.311C66.5167 133.209 66.2337 132.617 66.208 132.565C66.2852 132.617 67.3656 133.363 68.7548 133.311C70.1696 133.26 73.0509 132.385 73.5139 131.948C73.694 131.794 73.8483 131.716 74.0027 131.794C74.2342 131.871 74.4915 132.205 74.9031 132.874C75.1603 133.286 75.6234 133.26 75.3661 133.517C74.4915 134.392 74.44 135.138 74.723 135.55C74.9545 135.858 75.2118 135.601 75.3404 135.472C75.2118 135.678 74.8773 136.218 75.3661 136.424C75.4947 136.476 75.5976 136.501 75.7005 136.476C75.6491 136.476 75.6234 136.424 75.7005 136.373C75.9321 136.115 76.0607 135.575 76.0864 135.524C76.035 135.601 75.6234 136.398 75.5205 136.398C75.3918 136.398 75.3147 136.321 75.2118 136.193C75.1089 136.064 75.4947 135.267 75.5719 135.138C75.5205 135.215 75.3147 135.498 75.0574 135.524C74.7744 135.575 74.9545 134.598 75.4947 134.006C76.035 133.389 75.752 133.209 75.3918 133.054C75.2375 132.977 75.2118 132.745 75.1346 132.463C75.0317 132.051 74.8773 131.511 74.2085 131.228C73.1023 130.765 70.2725 132.643 68.5747 133.106C66.8768 133.569 65.8735 131.716 66.0536 132.102C66.2594 132.488 65.9765 132.463 65.8221 132.411C64.9732 132.154 64.5616 131.356 64.5101 131.279C64.5101 131.331 64.7931 132.128 64.4587 131.897C63.9184 131.562 63.7641 130.739 63.7641 131.176C63.7641 131.691 63.3268 131.485 63.0695 131.176C62.6322 130.636 62.2206 129.375 62.1434 129.221C62.1434 129.35 62.272 130.044 61.7833 129.581C61.2945 129.17 61.3974 127.343 61.3974 127.343C61.3974 127.343 61.1401 128.578 61.063 128.244C60.5999 126.366 61.0115 125.98 61.063 125.954C59.8024 126.726 60.7543 123.176 60.7543 123.176C60.7543 123.176 60.3684 123.51 60.1883 123.433C60.0082 123.356 60.1883 122.353 60.1883 122.353C59.8539 122.764 59.8539 124.411 59.8539 124.411C59.8796 124.128 60.497 123.665 60.497 123.665H60.3941Z" fill="#A3912E"/>
</g>
<path opacity="0.23" d="M64.2013 126.726C64.2013 126.726 64.2784 124.925 65.3074 125.208C66.3364 125.491 66.6709 126.571 66.4136 127.266C66.1564 127.961 66.6194 129.813 69.1662 128.99C71.713 128.166 72.9478 128.064 73.6681 128.887C74.4141 129.684 74.9801 131.253 75.7776 130.585C76.2406 130.173 76.6008 129.839 76.6522 129.453C75.0058 126.726 71.7902 128.192 70.2209 123.176C69.4749 120.835 68.0086 119.574 66.7738 118.931C66.3107 118.751 65.6676 118.622 65.6419 119.188C65.6162 120.037 68.8575 121.684 68.7289 123.433C68.6003 125.208 66.6709 123.433 65.9506 123.073C64.4842 122.378 62.2976 125.182 64.2013 126.726Z" fill="#FFF5BC"/>
<g style="mix-blend-mode:soft-light" opacity="0.38">
<path d="M80.2761 82.0406L79.4016 84.3301L78.0384 87.9574L77.5754 89.1922L51.1341 159.73L50.6711 160.939L49.3079 164.567L48.4334 166.882C47.4302 166.728 46.4271 166.573 45.4497 166.367C34.8269 164.155 25.5673 158.29 18.9827 150.161C18.4425 149.492 17.9024 148.797 17.3879 148.077L18.3911 145.324L20.0372 140.848L20.6031 139.279L40.6656 84.716L41.2314 83.1468L42.8776 78.6706L43.8807 75.918C45.604 75.4807 47.4045 75.172 49.205 74.9405C51.1084 74.7089 53.0374 74.5803 54.9923 74.5803C63.3773 74.5803 71.248 76.8184 78.0641 80.7029C78.81 81.1402 79.5302 81.5775 80.2504 82.0406H80.2761Z" fill="#FFFB8C"/>
</g>
<path d="M86.1401 89.8358C84.0824 87.7778 81.8446 85.9513 79.4269 84.3306C72.4564 79.6744 64.0713 76.9475 55.0432 76.9475C50.8507 76.9475 46.7867 77.5392 42.9285 78.6454C41.231 79.1341 39.5334 79.7258 37.9386 80.3947C32.6658 82.607 27.9331 85.8484 23.9464 89.8101C15.9985 97.7591 11.0601 108.769 11.0601 120.912C11.0601 129.915 13.7608 138.302 18.4163 145.273C20.0367 147.692 21.8887 149.955 23.9464 152.013C30.6339 158.702 39.4819 163.255 49.3331 164.541C51.2108 164.799 53.1141 164.902 55.0432 164.902C67.1836 164.902 78.1922 159.962 86.1401 152.013C94.0879 144.064 99.0263 133.054 99.0263 120.912C99.0263 108.769 94.1136 97.7591 86.1401 89.8101V89.8358ZM94.8081 127.06C94.7566 127.394 94.7052 127.729 94.6538 128.063C94.5252 128.732 94.3965 129.375 94.2422 130.018C94.1651 130.353 94.0879 130.662 94.0107 130.996C93.7792 131.948 93.4963 132.9 93.1619 133.851C92.7504 135.086 92.2617 136.321 91.7216 137.504C91.5415 137.89 91.3615 138.302 91.1557 138.688C90.7699 139.459 90.3583 140.231 89.9468 140.977C89.6381 141.543 89.278 142.083 88.9437 142.624C88.5836 143.164 88.2235 143.704 87.8634 144.244C87.5033 144.759 87.1175 145.273 86.7059 145.788C86.3201 146.302 85.9086 146.791 85.497 147.28C84.854 148 84.211 148.721 83.5422 149.389C82.8478 150.084 82.1533 150.727 81.4331 151.37C80.3271 152.322 79.1696 153.222 77.9865 154.046C76.5461 155.049 75.0543 155.949 73.4595 156.747C73.2023 156.875 72.9194 157.004 72.6622 157.158C67.3636 159.731 61.422 161.171 55.1204 161.171C53.6543 161.171 52.1882 161.094 50.7735 160.94C46.0665 160.425 41.6168 159.113 37.5528 157.133C37.0899 156.901 36.6526 156.695 36.2153 156.438C35.7781 156.207 35.3408 155.949 34.9035 155.718C34.4663 155.461 34.0547 155.203 33.6175 154.946C31.9199 153.866 30.3252 152.682 28.8076 151.37C28.0875 150.727 27.3673 150.084 26.6985 149.389C26.3641 149.055 26.0298 148.695 25.6954 148.36C25.361 148 25.0524 147.64 24.718 147.28C24.3064 146.791 23.8949 146.302 23.5091 145.788C23.1233 145.273 22.7375 144.759 22.3516 144.244C21.9658 143.704 21.6057 143.19 21.2714 142.624C20.937 142.083 20.5769 141.517 20.2682 140.977C20.2425 140.926 20.2168 140.874 20.1911 140.823C19.7795 140.103 19.4194 139.408 19.0593 138.662C18.8536 138.276 18.6735 137.89 18.4935 137.479C17.9533 136.295 17.4646 135.061 17.0531 133.826C15.6899 129.787 14.944 125.439 14.944 120.937C14.944 116.436 15.6899 112.088 17.0531 108.049C17.4646 106.814 17.9533 105.58 18.4935 104.396C18.6735 104.01 18.8536 103.599 19.0593 103.213C19.4452 102.441 19.8567 101.669 20.2682 100.923C20.5769 100.357 20.937 99.8171 21.2714 99.2769C21.6315 98.7367 21.9915 98.1964 22.3516 97.6562C22.7117 97.1417 23.0975 96.6272 23.5091 96.1127C23.8949 95.5982 24.3064 95.1094 24.718 94.6207C25.0266 94.2605 25.361 93.9003 25.6954 93.5402C26.0298 93.18 26.3641 92.8456 26.6985 92.5112C27.393 91.8166 28.0875 91.1735 28.8076 90.5304C30.8653 88.7553 33.1288 87.1604 35.5209 85.8227C36.3182 85.3853 37.1413 84.948 37.9644 84.5621C38.2473 84.4335 38.5302 84.3049 38.8132 84.1763C39.379 83.919 39.9449 83.6875 40.5108 83.456C40.7937 83.3531 41.0766 83.2244 41.3853 83.1215C41.7454 82.9929 42.1055 82.8643 42.4656 82.7357C46.4523 81.3979 50.7221 80.7034 55.1461 80.7034C63.7112 80.7034 71.6333 83.3788 78.1665 87.9321C79.0153 88.5238 79.8641 89.1669 80.6615 89.8358C80.9187 90.0673 81.2016 90.2731 81.4588 90.5046C82.179 91.1478 82.8992 91.7909 83.568 92.4855C84.2624 93.18 84.9054 93.8746 85.5228 94.5949C85.9343 95.0837 86.3458 95.5725 86.7316 96.087C87.1175 96.6015 87.5033 97.116 87.8891 97.6305C88.2749 98.1707 88.635 98.6852 88.9694 99.2512C89.3038 99.7914 89.6639 100.357 89.9725 100.898C90.4098 101.644 90.7956 102.415 91.1814 103.187C91.3872 103.573 91.5672 103.959 91.7473 104.37C92.2874 105.554 92.7761 106.789 93.1876 108.023C93.4963 108.95 93.7792 109.901 94.0364 110.879C94.1136 111.213 94.1908 111.522 94.268 111.856C94.4223 112.5 94.5509 113.168 94.6795 113.812C94.7309 114.146 94.7824 114.48 94.8338 114.815C94.9367 115.484 95.0139 116.153 95.091 116.821C95.2196 118.185 95.2968 119.548 95.2968 120.937C95.2968 122.327 95.2196 123.69 95.091 125.053C95.0139 125.722 94.9367 126.391 94.8338 127.06H94.8081Z" fill="#FAE543"/>
<g style="mix-blend-mode:multiply">
<path d="M95.0653 116.821C94.9881 116.152 94.9109 115.483 94.808 114.815C94.7566 114.48 94.7052 114.146 94.6537 113.811C94.5251 113.142 94.3965 112.499 94.2422 111.856C94.165 111.522 94.0879 111.213 94.0107 110.879C93.7535 109.927 93.4705 108.975 93.1619 108.023C92.7246 106.788 92.2617 105.554 91.7215 104.37C91.5415 103.984 91.3614 103.573 91.1556 103.187C90.7698 102.415 90.3583 101.643 89.9467 100.897C89.6381 100.331 89.278 99.7911 88.9436 99.2509C88.5835 98.7107 88.2234 98.1705 87.8633 97.6302C87.5032 97.1157 87.1174 96.6012 86.7059 96.0867C86.3201 95.5722 85.9085 95.0835 85.497 94.5947C84.854 93.8744 84.2109 93.1541 83.5165 92.4852C82.822 91.7906 82.1275 91.1475 81.4073 90.5044C81.1501 90.2729 80.8929 90.0413 80.61 89.8355C79.8126 89.1667 78.9638 88.5493 78.115 87.9319C71.5819 83.3785 63.6597 80.7031 55.0946 80.7031C50.6706 80.7031 46.4009 81.4234 42.4141 82.7354C42.054 82.864 41.6939 82.9669 41.3338 83.0956C41.0509 83.1985 40.7679 83.3271 40.4593 83.43C39.8934 83.6615 39.3018 83.893 38.7617 84.1503C38.4787 84.2789 38.1958 84.4075 37.9129 84.5362C37.0898 84.922 36.2667 85.3594 35.4694 85.7967C33.0773 87.1344 30.8396 88.7294 28.7561 90.5044C28.036 91.1475 27.3158 91.7906 26.647 92.4852C26.3126 92.8196 25.9783 93.1798 25.6439 93.5142C25.3095 93.8744 25.0009 94.2345 24.6665 94.5947C24.255 95.0835 23.8434 95.5722 23.4576 96.0867C23.0718 96.6012 22.686 97.1157 22.3002 97.6302C21.9143 98.1705 21.5542 98.685 21.2199 99.2509C20.8855 99.7911 20.5254 100.357 20.2167 100.897C19.7795 101.643 19.3937 102.415 19.0078 103.187C18.8021 103.573 18.622 103.959 18.442 104.37C17.9018 105.554 17.4388 106.788 17.0016 108.023C15.6384 112.062 14.8925 116.41 14.8925 120.911C14.8925 125.413 15.6384 129.761 17.0016 133.8C17.4388 135.035 17.9018 136.269 18.442 137.453C18.622 137.839 18.8021 138.25 19.0078 138.636C19.3679 139.356 19.7538 140.077 20.1396 140.771C20.1396 140.771 20.191 140.874 20.2167 140.926C20.5254 141.492 20.8855 142.032 21.2199 142.572C21.58 143.112 21.9401 143.652 22.3002 144.193C22.6603 144.707 23.0461 145.222 23.4576 145.736C23.8434 146.251 24.255 146.739 24.6665 147.228C24.9752 147.588 25.3095 147.949 25.6439 148.309C25.9783 148.669 26.3126 149.003 26.647 149.338C27.3415 150.032 28.036 150.675 28.7561 151.319C30.2737 152.63 31.8684 153.814 33.566 154.894C34.0033 155.152 34.4148 155.435 34.8521 155.666C35.2893 155.923 35.7266 156.155 36.1638 156.386C36.6011 156.618 37.0641 156.849 37.5013 157.081C41.5653 159.062 46.0408 160.374 50.722 160.888C52.1624 161.043 53.6028 161.12 55.0689 161.12C61.3448 161.12 67.3121 159.679 72.6107 157.107C72.8679 156.978 73.1508 156.849 73.408 156.695C74.977 155.898 76.4946 154.997 77.935 153.994C79.1439 153.171 80.3013 152.27 81.3816 151.319C82.1018 150.675 82.822 150.032 83.4908 149.338C84.1852 148.643 84.8282 147.949 85.4713 147.228C85.8828 146.739 86.2943 146.251 86.6802 145.736C87.066 145.222 87.4518 144.707 87.8376 144.193C88.2234 143.652 88.5835 143.138 88.9179 142.572C89.2523 142.032 89.6124 141.466 89.921 140.926C90.3583 140.18 90.7441 139.408 91.1299 138.636C91.3357 138.25 91.5158 137.864 91.6958 137.453C92.2359 136.269 92.6989 135.035 93.1362 133.8C93.4448 132.874 93.7278 131.922 93.985 130.944C94.0621 130.61 94.1393 130.301 94.2165 129.967C94.3708 129.324 94.4994 128.655 94.628 128.012C94.6795 127.677 94.7309 127.343 94.7823 127.008C94.8852 126.339 94.9624 125.671 95.0395 125.002C95.1681 123.638 95.2453 122.275 95.2453 120.886C95.2453 119.497 95.1681 118.133 95.0395 116.77L95.0653 116.821ZM82.5905 148.489C75.5429 155.537 65.7946 159.911 55.0432 159.911C53.7314 159.911 52.4196 159.859 51.1593 159.705C41.9511 158.779 33.6946 154.663 27.4958 148.489C24.7951 145.788 22.4802 142.675 20.654 139.253C17.7475 133.8 16.0756 127.549 16.0756 120.937C16.0756 110.184 20.4225 100.434 27.4958 93.3856C31.2254 89.6555 35.7009 86.6714 40.7165 84.6905C45.1662 82.9155 50.0018 81.9637 55.0689 81.9637C63.4797 81.9637 71.2475 84.6133 77.6263 89.1667C79.4011 90.4272 81.073 91.8421 82.6162 93.3856C89.6638 100.434 94.0364 110.184 94.0364 120.937C94.0364 131.69 89.6895 141.44 82.6162 148.489H82.5905Z" fill="#F6F39E"/>
</g>
<path d="M108.98 0.106934H88.7121L44.8318 73.372H65.1001L108.98 0.106934Z" fill="#37DAED"/>
</svg>
