<svg width="109" height="168" viewBox="0 0 109 168" fill="none" xmlns="http://www.w3.org/2000/svg">
<path d="M0.57843 0.106934H20.8447L64.7214 73.3463H44.4552L0.57843 0.106934Z" fill="#05D1E8"/>
<path d="M64.2864 79.6004V78.664H45.0235C44.2877 78.664 43.6189 78.363 43.1172 77.8614C42.6156 77.3598 42.3146 76.6909 42.3146 75.9552C42.3146 75.2194 42.6156 74.5506 43.1172 74.0489C43.6189 73.5473 44.2877 73.2463 45.0235 73.2463H64.2864C65.0222 73.2463 65.691 73.5473 66.1927 74.0489C66.6943 74.5506 66.9953 75.2194 66.9953 75.9552C66.9953 76.6909 66.6943 77.3598 66.1927 77.8614C65.691 78.363 65.0222 78.664 64.2864 78.664V80.5368C66.8281 80.5368 68.8681 78.4968 68.8681 75.9552C68.8681 73.4135 66.8281 71.3735 64.2864 71.3735H45.0235C42.5153 71.3735 40.4418 73.4135 40.4418 75.9552C40.4418 78.4634 42.4818 80.5368 45.0235 80.5368H64.2864V79.6004Z" fill="#E0C64C"/>
<path d="M101.04 120.935C101.04 146.552 80.2721 167.32 54.655 167.32C52.4144 167.32 50.2406 167.153 48.1003 166.852C47.097 166.718 46.0937 166.517 45.0904 166.317C34.4891 164.109 25.1921 158.257 18.6373 150.13C18.1022 149.462 17.5671 148.759 17.0321 148.057C11.9153 140.967 8.73829 132.339 8.33698 123.008C8.33698 122.674 8.33698 122.34 8.33698 122.005C8.33698 121.637 8.33698 121.303 8.33698 120.935C8.33698 120.534 8.33698 120.132 8.33698 119.731C8.87206 98.4615 23.7206 80.7704 43.6189 75.8878C45.358 75.453 47.1304 75.152 48.9363 74.9179C50.8426 74.6838 52.7488 74.55 54.7219 74.55C63.116 74.55 70.975 76.7907 77.7973 80.67C78.5331 81.1048 79.2688 81.5396 79.9711 82.0078C92.7127 90.2681 101.107 104.615 101.107 120.902L101.04 120.935Z" fill="#E0C64C"/>
<g style="mix-blend-mode:luminosity">
<path d="M47.4647 148.326C47.6988 149.096 48.9362 149.396 49.4378 148.928C50.0064 148.427 49.7723 145.45 50.1401 145.216C50.508 144.949 51.8457 144.681 52.6149 145.216C53.3841 145.751 54.2201 144.882 53.7185 144.28C53.7185 144.28 53.685 144.246 53.6516 144.213C53.7185 144.748 53.0496 145.283 52.4142 144.848C51.645 144.313 50.3073 144.581 49.9395 144.848C49.5716 145.082 49.8057 148.059 49.2372 148.56C48.8359 148.928 47.9329 148.828 47.4982 148.36L47.4647 148.326Z" fill="#C78408"/>
<path d="M40.8096 147.656C40.9099 147.957 41.144 148.258 41.445 148.392C42.0804 148.626 42.5486 148.693 42.9499 148.359C43.3847 148.024 43.9532 147.289 44.9565 146.653C45.9597 146.018 47.3978 145.784 47.3978 145.784H47.6653C47.7656 145.55 47.7991 145.382 47.7991 145.382H47.1637C47.1637 145.382 45.7256 145.616 44.7224 146.252C43.7191 146.887 43.1506 147.623 42.7492 147.957C42.3145 148.292 41.8463 148.258 41.2443 147.991C41.0771 147.924 40.9433 147.824 40.843 147.69L40.8096 147.656Z" fill="#C78408"/>
<path d="M38.1343 144.981C38.0674 145.315 38.3349 145.516 39.0372 145.415C39.9402 145.315 40.9769 144.446 42.0471 144.278C42.5821 144.178 43.3179 144.245 43.9198 144.278C44.2877 144.078 44.5218 143.977 44.5218 143.977C44.5218 143.977 42.7828 143.71 41.813 143.844C40.7428 144.011 39.7061 144.88 38.8366 144.981C38.5356 145.014 38.3015 144.981 38.1677 144.947L38.1343 144.981Z" fill="#C78408"/>
<path d="M38.134 144.982C38.134 144.982 38.3012 145.049 38.435 145.049C38.5353 145.049 38.6691 145.049 38.8029 145.049C39.7058 144.948 40.7091 144.079 41.7793 143.912C42.7491 143.778 44.4881 144.045 44.4881 144.045C44.4881 144.045 44.254 144.146 43.8862 144.346C42.816 144.881 40.6422 146.052 40.5419 146.754C40.5419 146.921 40.5419 147.122 40.6422 147.323C40.7091 147.456 40.7426 147.557 40.8429 147.657C40.8429 147.657 41.077 147.891 41.2442 147.958C41.8796 148.226 42.3478 148.259 42.7491 147.925C43.1504 147.59 43.7524 146.855 44.7222 146.219C45.7255 145.584 47.1635 145.35 47.1635 145.35H47.799C47.799 145.35 47.7321 145.483 47.6652 145.751C47.5314 146.186 47.4311 146.788 47.3308 147.49C47.2973 147.824 47.2639 147.958 47.4645 148.359C47.5314 148.493 47.6317 148.594 47.7321 148.66C48.0331 148.861 48.5012 148.861 48.8691 148.761C48.936 148.761 49.0029 148.727 49.0698 148.694C49.0698 148.694 49.1032 148.694 49.1367 148.694C49.1367 148.694 49.2035 148.66 49.237 148.627C49.8055 148.125 49.5714 145.149 49.9393 144.915C50.3072 144.647 51.6449 144.38 52.414 144.915C52.6816 145.115 52.9491 145.115 53.1832 145.049C53.4842 144.948 53.6849 144.614 53.6514 144.313C53.1498 143.778 52.3806 143.477 51.9793 143.51C51.5445 143.544 50.8422 143.142 50.8422 143.142L51.0429 142.942L54.3872 139.698L53.9524 139.497L53.5845 139.33L51.0094 138.193L48.5012 142.273C48.5012 142.273 46.896 141.938 44.9898 142.072C42.7157 142.239 40.2075 142.674 39.4717 143.31C39.1708 143.577 38.8363 143.912 38.6022 144.213C38.3347 144.547 38.1675 144.848 38.134 145.082V144.982Z" fill="#E89A09"/>
<path d="M38.9702 144.178C38.5689 143.978 38.1342 144.178 37.8666 144.713C37.7663 144.914 37.7328 145.249 37.8666 145.516C37.8666 145.516 38.0004 145.349 38.2679 145.148C38.5355 144.948 38.9368 145.014 39.1374 144.814C39.2712 144.647 39.3715 144.412 38.9702 144.212V144.178Z" fill="#FFE16E"/>
<path d="M53.1165 144.212C53.5513 144.045 53.9526 144.279 54.1533 144.847C54.2202 145.082 54.2202 145.416 54.0529 145.65C54.0529 145.65 53.9526 145.483 53.7185 145.215C53.4844 144.948 53.0831 145.015 52.9159 144.781C52.7821 144.613 52.7152 144.346 53.15 144.179L53.1165 144.212Z" fill="#FFE16E"/>
<path d="M42.0469 146.721C41.4784 146.42 40.9099 146.687 40.542 147.457C40.4082 147.758 40.3748 148.226 40.542 148.56C40.542 148.56 40.7092 148.326 41.0771 148.025C41.4449 147.724 41.98 147.858 42.2476 147.557C42.4482 147.323 42.582 146.988 42.0135 146.721H42.0469Z" fill="#FFE16E"/>
<path d="M48.5684 147.891C47.9329 147.79 47.5985 148.125 47.7992 148.961C47.8661 149.262 48.167 149.764 48.5349 149.897C48.5349 149.897 48.8024 149.663 48.9028 149.195C49.0031 148.727 49.07 148.827 49.1034 148.426C49.1034 148.125 49.07 147.958 48.6018 147.891H48.5684Z" fill="#FFE16E"/>
<path d="M50.809 143.008L51.0096 142.808L54.3539 139.564L53.9191 139.363L53.5513 139.196C52.6818 140.199 50.5414 142.707 50.2739 142.808C49.9729 142.941 50.7755 142.975 50.7755 142.975L50.809 143.008Z" fill="#C78408"/>
<path d="M28.9378 107.659C29.0047 108.194 29.105 108.762 29.2723 109.297C29.9745 111.672 31.6132 114.247 33.7536 115.919C34.5227 116.555 35.3588 117.056 36.2283 117.424C35.8604 119.732 35.9942 122.139 36.6965 124.547C37.4657 127.122 38.8368 129.664 40.7765 131.972C41.3785 132.741 42.0808 133.476 42.85 134.179C46.1942 137.322 54.8893 142.506 65.1562 140.934C71.8782 139.897 74.888 137.958 76.8946 136.018C77.8309 135.115 78.5667 134.212 79.3359 133.443C79.4696 133.309 79.6034 133.142 79.7706 133.008C82.0113 130.567 83.349 127.992 83.4827 124.514C83.6834 118.26 76.8946 113.712 73.5168 111.404C70.507 109.297 66.9955 107.726 63.5175 105.953C60.608 104.448 55.5916 103.846 52.4814 103.746C52.448 103.412 52.3811 103.044 52.2473 102.676C50.6086 97.2247 43.5857 94.382 37.4323 96.2214C36.0611 96.6227 34.8237 97.2247 33.7536 97.9938C33.6532 98.0607 33.5864 98.1276 33.486 98.1945C32.1818 99.1643 31.1116 100.368 30.309 101.706C29.2054 103.545 28.7037 105.652 28.9378 107.759V107.659Z" fill="#C2981F"/>
<path d="M28.9378 107.658C29.8073 107.592 30.7437 107.458 30.8775 107.926C31.5798 110.3 33.2185 112.876 35.3588 114.548C36.128 115.183 36.9641 115.685 37.8336 116.053C37.8336 116.253 37.7667 116.454 37.7667 116.655C37.7667 116.755 37.7667 116.889 37.7667 116.989C37.566 118.996 37.7667 121.102 38.3686 123.176C39.1378 125.751 40.509 128.293 42.4152 130.6C43.0172 131.369 43.7195 132.105 44.4886 132.807C47.8329 135.951 56.528 141.135 66.7949 139.563C71.945 138.794 74.9214 137.456 76.928 136.018C77.8644 135.115 78.6001 134.212 79.3693 133.443C79.5031 133.309 79.6368 133.142 79.8041 133.008C82.0447 130.567 83.3824 127.992 83.5162 124.514C83.7168 118.26 76.928 113.712 73.5503 111.404C70.5405 109.297 67.029 107.725 63.5509 105.953C61.0762 104.682 57.13 104.047 54.0532 103.813C53.4847 103.779 52.9831 103.746 52.5149 103.712C52.4814 103.378 52.4145 103.01 52.2808 102.642C52.0801 102.007 51.8126 101.371 51.4782 100.803C49.0034 96.5555 42.8834 94.549 37.4657 96.1542C36.7968 96.3549 36.1614 96.589 35.5595 96.8899C34.9241 97.1909 34.3221 97.5588 33.7536 97.9267C33.6867 97.9935 33.5864 98.0604 33.486 98.1273C32.1818 99.0971 31.1116 100.301 30.309 101.639C29.2054 103.478 28.7037 105.585 28.9378 107.692V107.658Z" fill="#FED766"/>
<path d="M61.5779 150.868C62.0126 151.57 63.2835 151.503 63.6513 150.968C64.0861 150.333 63.0828 147.523 63.3838 147.189C63.6513 146.855 64.8887 146.253 65.7917 146.587C66.6946 146.921 67.2631 145.851 66.5943 145.383L66.5274 145.35C66.728 145.851 66.2264 146.554 65.4907 146.253C64.5877 145.918 63.3838 146.52 63.0828 146.855C62.7818 147.189 63.7851 149.998 63.3503 150.634C63.0494 151.102 62.1464 151.202 61.6113 150.868H61.5779Z" fill="#C78408"/>
<path d="M54.9893 151.904C55.1565 152.172 55.4575 152.406 55.7919 152.44C56.4607 152.506 56.9289 152.44 57.2299 152.005C57.5643 151.57 57.8988 150.701 58.7014 149.831C59.504 148.962 60.8417 148.36 60.8417 148.36L61.0758 148.293C61.0758 148.025 61.1093 147.858 61.1093 147.858L60.5073 148.025C60.5073 148.025 59.1696 148.627 58.367 149.497C57.5643 150.366 57.1965 151.236 56.8955 151.67C56.5611 152.105 56.1263 152.172 55.4575 152.105C55.2902 152.105 55.123 152.005 54.9893 151.904Z" fill="#C78408"/>
<path d="M51.7119 150.031C51.7454 150.366 52.0463 150.499 52.6818 150.232C53.5178 149.897 54.287 148.794 55.2903 148.359C55.7919 148.125 56.5277 147.991 57.0962 147.891C57.3972 147.623 57.5978 147.456 57.5978 147.456C57.5978 147.456 55.8588 147.623 54.9558 148.025C53.9526 148.459 53.2168 149.563 52.3808 149.897C52.0798 150.031 51.8791 150.065 51.7119 150.031Z" fill="#C78408"/>
<path d="M51.7122 150.031C51.7122 150.031 51.8794 150.031 52.0132 150.031C52.1135 150.031 52.2473 149.964 52.3811 149.897C53.2171 149.563 53.9863 148.459 54.9561 148.025C55.8591 147.623 57.5981 147.456 57.5981 147.456C57.5981 147.456 57.3974 147.623 57.0965 147.891C56.1935 148.693 54.3876 150.366 54.4879 151.068C54.4879 151.235 54.5883 151.436 54.722 151.603C54.7889 151.703 54.8893 151.804 54.9896 151.87C54.9896 151.87 55.2906 152.038 55.4578 152.071C56.1266 152.138 56.5948 152.071 56.8958 151.636C57.2302 151.202 57.5647 150.366 58.3673 149.463C59.1699 148.593 60.5076 147.991 60.5076 147.991L61.1096 147.824C61.1096 147.824 61.1096 147.991 61.0761 148.259C61.0761 148.693 61.1096 149.329 61.2099 149.998C61.2433 150.332 61.2768 150.466 61.5443 150.8C61.6447 150.901 61.745 150.967 61.8788 151.034C62.2132 151.135 62.6814 151.034 62.9824 150.834C63.0492 150.834 63.1161 150.767 63.1496 150.7C63.1496 150.7 63.183 150.7 63.183 150.666C63.183 150.666 63.2499 150.6 63.2499 150.566C63.6847 149.931 62.6814 147.122 62.9824 146.787C63.2499 146.453 64.4873 145.851 65.3902 146.185C65.6912 146.286 65.9588 146.252 66.1594 146.118C66.427 145.918 66.5607 145.583 66.427 145.282C65.7915 144.881 64.9889 144.781 64.5876 144.914C64.1863 145.048 63.3837 144.847 63.3837 144.847L63.5174 144.613L65.9253 140.6L65.4571 140.533L65.0558 140.466L62.2801 140.032L60.8755 144.613C60.8755 144.613 59.2368 144.714 57.4309 145.316C55.2906 146.051 52.9496 147.122 52.4145 147.924C52.1804 148.292 51.9463 148.66 51.8125 149.028C51.6453 149.396 51.545 149.764 51.5784 149.998L51.7122 150.031Z" fill="#E89A09"/>
<path d="M52.314 149.062C51.8793 148.961 51.5114 149.229 51.4111 149.864C51.3776 150.098 51.4111 150.433 51.6452 150.633C51.6452 150.633 51.7455 150.433 51.9127 150.165C52.0799 149.898 52.5147 149.898 52.6484 149.63C52.7488 149.429 52.7822 149.195 52.314 149.095V149.062Z" fill="#FFE16E"/>
<path d="M65.9921 145.416C66.36 145.149 66.7948 145.249 67.1626 145.784C67.2964 145.985 67.3633 146.319 67.263 146.587C67.263 146.587 67.0957 146.453 66.8282 146.252C66.5607 146.052 66.1593 146.252 65.9252 146.052C65.758 145.918 65.6243 145.684 65.9921 145.416Z" fill="#FFE16E"/>
<path d="M55.9258 150.7C55.2904 150.566 54.8222 150.968 54.655 151.804C54.5881 152.138 54.655 152.573 54.956 152.874C54.956 152.874 55.0563 152.606 55.3238 152.238C55.5914 151.871 56.1599 151.837 56.3271 151.469C56.4609 151.202 56.4943 150.834 55.8924 150.7H55.9258Z" fill="#FFE16E"/>
<path d="M62.5475 150.165C61.9121 150.232 61.678 150.667 62.0793 151.403C62.2465 151.704 62.6144 152.071 63.0157 152.138C63.0157 152.138 63.2163 151.837 63.1829 151.369C63.1495 150.901 63.2498 150.968 63.1829 150.566C63.116 150.266 63.0157 150.132 62.5475 150.165Z" fill="#FFE16E"/>
<path d="M63.4505 144.881L63.5843 144.646L65.9922 140.633L65.524 140.566L65.1226 140.5C64.5541 141.703 63.1161 144.68 62.882 144.847C62.6145 145.048 63.4171 144.881 63.4171 144.881H63.4505Z" fill="#C78408"/>
<path d="M36.6962 124.514C37.4653 127.089 38.8365 129.631 40.7762 131.938C41.3781 132.707 42.0804 133.443 42.8496 134.146C46.1939 137.289 54.8889 142.473 65.1558 140.901C71.8778 139.864 74.8876 137.925 76.8942 135.985C74.8876 137.423 71.9112 138.761 66.7611 139.53C56.4942 141.102 47.7991 135.918 44.4548 132.774C43.6857 132.106 43.0168 131.37 42.3814 130.567C40.4752 128.26 39.104 125.751 38.3348 123.143C37.6994 120.969 37.5322 118.728 37.7663 116.622C37.2981 116.889 36.763 117.157 36.228 117.391C35.8601 119.698 35.9939 122.106 36.6962 124.514Z" fill="#C2981F"/>
<path d="M38.3352 123.177C39.1043 125.752 40.4755 128.294 42.3817 130.601C42.9837 131.37 43.686 132.106 44.4552 132.808C47.7994 135.952 56.4945 141.136 66.7614 139.564C71.9116 138.795 74.8879 137.457 76.8945 136.019C77.8309 135.116 78.5666 134.213 79.3358 133.444C79.4696 133.31 79.6034 133.143 79.7706 133.009C73.1824 133.243 57.2971 133.444 53.6519 129.765C49.0033 125.117 44.8899 119.398 43.7529 111.438C43.7529 111.438 41.7129 113.98 37.867 116.12C37.4322 118.562 37.6997 121.037 38.3686 123.244L38.3352 123.177Z" fill="#EBC452"/>
<path d="M49.806 116.555C49.8394 116.957 49.9397 117.358 50.0401 117.793C50.1404 118.127 50.2407 118.395 50.3745 118.662C50.4079 118.796 50.4748 118.963 50.5751 119.097C50.6086 119.197 50.6755 119.331 50.7424 119.431C50.8427 119.632 50.943 119.799 51.0768 120C51.1771 120.167 51.3109 120.334 51.4112 120.501C51.545 120.702 51.6788 120.869 51.846 121.103C51.9797 121.271 52.147 121.471 52.3142 121.639C52.4814 121.839 52.7155 122.073 52.9161 122.274C53.1837 122.541 53.4847 122.809 53.7856 123.077C54.1535 123.378 54.5214 123.679 54.9561 123.98C55.0899 124.08 55.2237 124.18 55.3574 124.247C55.5247 124.381 55.7253 124.481 55.8925 124.615C56.2938 124.849 56.6951 125.083 57.1299 125.317C57.4643 125.484 57.7988 125.652 58.1332 125.819C58.3338 125.886 58.501 125.986 58.7017 126.053C58.8355 126.12 58.9358 126.153 59.0696 126.22C59.2033 126.287 59.3706 126.32 59.5043 126.387C60.3404 126.688 61.2099 126.922 62.0794 127.09C67.5306 128.093 76.2925 123.846 77.2289 121.137C77.2289 121.07 77.2289 120.97 77.162 120.836C76.9614 120.535 76.4597 120.1 75.8578 119.632C74.3863 118.528 72.246 117.224 71.7109 116.823C71.2427 116.455 67.7312 113.612 66.3266 112.709C65.5909 112.241 64.8217 111.806 63.9856 111.439C62.2466 110.636 60.5745 110.235 59.0027 110.067C57.7988 109.934 56.6617 109.9 55.6584 109.967C53.5515 110.067 51.9129 111.037 51.5115 111.472C51.0433 111.974 50.5083 112.776 50.1738 113.813C50.107 114.047 50.0401 114.315 49.9732 114.582C49.9063 114.85 49.8729 115.151 49.8729 115.485C49.8729 115.853 49.8729 116.221 49.8729 116.589L49.806 116.555Z" fill="#C2981F"/>
<path d="M50.04 115.686C50.0734 116.087 50.1738 116.488 50.2741 116.923C50.3744 117.258 50.4748 117.525 50.6085 117.826C50.642 117.96 50.7089 118.127 50.7757 118.261C50.8426 118.361 50.8761 118.495 50.943 118.595C51.0433 118.796 51.1436 118.963 51.2774 119.164C51.3777 119.331 51.5115 119.498 51.6118 119.665C51.7456 119.866 51.8794 120.033 52.0466 120.234C52.1803 120.435 52.3475 120.602 52.5148 120.769C52.682 120.97 52.9161 121.204 53.1167 121.404C53.3843 121.672 53.6853 121.939 53.9862 122.207C54.3541 122.541 54.722 122.809 55.1567 123.11C55.2905 123.21 55.4243 123.311 55.558 123.378C55.7253 123.511 55.9259 123.612 56.0931 123.745C56.4944 123.98 56.8957 124.214 57.3305 124.448C57.6649 124.615 57.9994 124.782 58.3338 124.916C58.5344 124.983 58.7016 125.083 58.9023 125.15C59.0361 125.217 59.1364 125.25 59.2702 125.317C59.4039 125.351 59.5712 125.418 59.7049 125.484C60.541 125.785 61.4105 126.02 62.28 126.187C67.3298 127.157 75.3226 123.511 77.1285 120.836C76.9279 120.535 76.4262 120.1 75.8243 119.632C74.3528 118.528 72.2125 117.224 71.6774 116.823C71.4433 116.622 70.2728 115.686 69.002 114.716C67.9987 113.913 66.8951 113.111 66.2597 112.709C65.5239 112.241 64.7548 111.806 63.9187 111.439C62.1797 110.636 60.5076 110.235 58.9357 110.067C57.7318 109.934 56.5948 109.9 55.5915 109.967C54.0866 110.034 52.8157 110.569 52.0466 111.037C51.7456 111.204 51.5449 111.372 51.4446 111.472C50.9764 111.974 50.4413 112.776 50.1069 113.813C50.04 114.08 50.04 114.315 50.0066 114.616C49.9731 114.983 50.0066 115.351 50.0066 115.719L50.04 115.686Z" fill="#EBC452"/>
<path d="M54.0532 115.384C54.0866 115.718 54.1535 116.053 54.2538 116.387C54.3207 116.655 54.3876 116.889 54.5214 117.089C54.5548 117.19 54.6217 117.323 54.6886 117.424C54.722 117.524 54.7889 117.624 54.8223 117.691C54.8892 117.825 54.9896 117.992 55.0899 118.126C55.1568 118.26 55.2571 118.394 55.3574 118.527C55.4577 118.695 55.5915 118.828 55.6918 118.996C55.7922 119.163 55.926 119.297 56.0597 119.43C56.2269 119.598 56.3941 119.765 56.5614 119.932C56.762 120.166 56.9961 120.367 57.2637 120.567C57.5646 120.801 57.8656 121.069 58.2 121.27C58.3004 121.337 58.4341 121.437 58.5345 121.504C58.7017 121.604 58.8355 121.704 59.0027 121.805C59.3037 122.005 59.6381 122.206 60.006 122.373C60.2735 122.507 60.541 122.641 60.8086 122.775C60.9758 122.841 61.1096 122.908 61.2768 122.975C61.3771 123.009 61.444 123.042 61.5443 123.109C61.6781 123.142 61.7784 123.209 61.9122 123.243C62.581 123.477 63.2833 123.678 63.9856 123.811C67.9987 124.581 74.3194 121.738 75.8912 119.564C74.4197 118.46 72.2794 117.156 71.7443 116.755C71.5102 116.554 70.3397 115.618 69.0689 114.648C68.0656 113.845 66.962 113.043 66.3266 112.641C65.5909 112.173 64.8217 111.739 63.9856 111.371C62.2466 110.568 60.5745 110.167 59.0027 110C58.9358 110 58.8355 110 58.7686 110C57.063 110.066 55.7587 110.869 55.4243 111.203C54.9561 111.705 54.3876 112.575 54.1869 113.712C54.1535 113.845 54.12 114.013 54.12 114.146C54.12 114.247 54.12 114.347 54.12 114.447C54.12 114.748 54.12 115.049 54.12 115.35L54.0532 115.384Z" fill="#FFCF3D"/>
<path d="M31.5464 99.9C33.3857 98.9636 35.5929 98.3951 37.9339 98.3951C43.7529 98.3951 48.6021 101.806 49.9064 106.388C50.8762 105.585 51.7457 104.682 52.4815 103.679C52.448 103.345 52.3811 102.977 52.2474 102.609C52.0467 101.973 51.7792 101.338 51.4447 100.77C48.97 96.5223 42.85 94.5157 37.4323 96.121C36.7634 96.3216 36.128 96.5558 35.5261 96.8567C34.8906 97.1577 34.2887 97.5256 33.7202 97.8935C33.6533 97.9603 33.5529 98.0272 33.4526 98.0941C32.7169 98.6292 32.0815 99.2312 31.5129 99.9H31.5464Z" fill="#FFE78A"/>
<path d="M25.2258 107.625L29.3727 109.498L31.814 107.257C31.814 107.257 27.9346 107.057 25.2592 107.659L25.2258 107.625Z" fill="#C2981F"/>
<path d="M25.0583 107.693C28.3357 106.99 31.7803 107.224 31.7803 107.224L28.9711 105.418C28.9711 105.418 25.794 105.719 25.0583 107.726V107.693Z" fill="#FFE78A"/>
<path d="M29.5731 106.456C29.5731 106.456 29.1049 106.188 28.9377 106.355C28.7705 106.522 28.3358 106.79 28.3358 106.79L29.5731 106.456Z" fill="#C2981F"/>
<path d="M34.7901 105.185C34.7901 105.62 35.0577 105.987 35.459 106.222C35.7599 106.422 36.1613 106.523 36.5626 106.489C37.499 106.422 38.2013 105.753 38.1344 104.951C38.0675 104.148 37.2983 103.58 36.3619 103.646C35.9606 103.646 35.5927 103.814 35.3252 104.048C34.9573 104.315 34.7567 104.717 34.7901 105.151V105.185Z" fill="#FEDC7C"/>
<path d="M34.7901 105.184C34.7901 105.619 35.0577 105.987 35.459 106.221C35.6931 106.321 35.9606 106.354 36.2281 106.354C37.0976 106.288 37.7665 105.686 37.6996 105.017C37.6327 104.348 36.9304 103.813 36.0609 103.88C35.7934 103.88 35.5258 103.98 35.3252 104.08C34.9573 104.348 34.7567 104.749 34.7901 105.184Z" fill="#C78408"/>
<path d="M35.7094 105.251C35.949 105.236 36.1319 105.044 36.1178 104.823C36.1037 104.602 35.898 104.435 35.6584 104.45C35.4188 104.465 35.236 104.657 35.25 104.878C35.2641 105.099 35.4698 105.266 35.7094 105.251Z" fill="#FFF2BD"/>
<path d="M43.7192 111.371C43.7192 111.371 35.2248 113.244 31.7802 107.224L29.573 109.298C29.573 109.298 30.8104 112.04 33.0176 113.879C35.6596 116.053 37.8333 116.053 37.8333 116.053C37.8333 116.053 40.5422 114.682 41.4117 113.98C42.2812 113.277 43.7192 111.371 43.7192 111.371Z" fill="#EBC452"/>
<path d="M52.0464 111.003C52.548 111.806 53.2838 112.842 54.0529 114.214C54.2536 114.548 54.4543 114.882 54.6215 115.25C57.4641 120.634 64.3533 119.096 67.3966 117.357C68.567 116.688 68.9349 115.685 69.0018 114.682C67.9985 113.879 66.8949 113.076 66.2595 112.675C65.5238 112.207 64.7546 111.772 63.9185 111.404C62.1795 110.602 60.5074 110.2 58.9356 110.033C57.7316 109.899 56.5946 109.866 55.5913 109.933C54.0864 110 52.8156 110.535 52.0464 111.003Z" fill="#FFE78A"/>
</g>
<g style="mix-blend-mode:soft-light" opacity="0.38">
<path d="M79.904 82.0417L79.0345 84.3492L77.6634 87.961L77.1952 89.1984L50.7421 159.729L50.2739 160.933L48.9027 164.578L48.0332 166.886C47.0299 166.752 46.0267 166.551 45.0234 166.351C34.4221 164.143 25.125 158.291 18.5703 150.164C18.0352 149.495 17.5001 148.793 16.965 148.091L17.9683 145.349L19.607 140.867L20.1755 139.295L40.2411 84.7505L40.8096 83.1787L42.4483 78.6974L43.4516 75.9551C45.1906 75.5204 46.9631 75.2194 48.769 74.9853C50.6752 74.7512 52.5814 74.6174 54.5545 74.6174C62.9486 74.6174 70.8077 76.8581 77.63 80.7374C78.3657 81.1722 79.1014 81.6069 79.8037 82.0751L79.904 82.0417Z" fill="#FFFB8C"/>
</g>
<path d="M85.7566 89.8334C83.7166 87.7934 81.4425 85.9206 79.0346 84.3154C72.0785 79.6669 63.6844 76.958 54.6549 76.958C50.4411 76.958 46.3946 77.56 42.5487 78.6636C40.8431 79.1652 39.171 79.7337 37.5657 80.436C32.3152 82.6433 27.5664 85.8872 23.5867 89.8669C15.6274 97.8262 10.7113 108.829 10.7113 120.969C10.7113 129.965 13.4202 138.359 18.0687 145.315C19.6739 147.756 21.5467 149.997 23.5867 152.037C30.2752 158.725 39.1041 163.273 48.9697 164.544C50.8425 164.778 52.7487 164.912 54.6884 164.912C66.828 164.912 77.8306 159.996 85.79 152.037C93.7493 144.077 98.6654 133.075 98.6654 120.935C98.6654 108.795 93.7493 97.7928 85.79 89.8334H85.7566ZM94.4182 127.055C94.3847 127.389 94.3179 127.724 94.251 128.058C94.1172 128.727 94.0169 129.363 93.8497 130.031C93.7828 130.366 93.6825 130.667 93.6156 131.001C93.3815 131.971 93.0805 132.908 92.7795 133.844C92.3448 135.081 91.8766 136.319 91.3415 137.489C91.1743 137.89 90.9736 138.292 90.7729 138.66C90.4051 139.429 89.9703 140.198 89.569 140.934C89.2346 141.502 88.9002 142.037 88.5657 142.572C88.2313 143.108 87.8634 143.643 87.4621 144.178C87.0943 144.713 86.6929 145.214 86.3251 145.716C85.9238 146.218 85.5225 146.719 85.0877 147.221C84.4523 147.957 83.8169 148.659 83.1146 149.328C82.4457 149.997 81.7434 150.666 81.0077 151.301C79.9041 152.271 78.767 153.14 77.5631 153.976C76.1251 154.98 74.6202 155.883 73.0484 156.685C72.7808 156.819 72.5133 156.953 72.2457 157.087C66.9618 159.662 61.009 161.1 54.7218 161.1C53.2503 161.1 51.8123 161.033 50.3743 160.866C45.6923 160.364 41.211 159.026 37.131 157.053C36.6962 156.819 36.228 156.618 35.7933 156.384C35.3585 156.15 34.9238 155.916 34.489 155.649C34.0543 155.414 33.6195 155.147 33.2182 154.879C31.5461 153.809 29.9408 152.605 28.4359 151.301C27.7002 150.666 26.9979 149.997 26.329 149.328C25.9946 148.993 25.6602 148.626 25.3257 148.291C24.9913 147.923 24.6903 147.589 24.3559 147.221C23.9211 146.719 23.5198 146.251 23.1185 145.749C22.7172 145.248 22.3493 144.713 21.9815 144.211C21.6136 143.676 21.2457 143.141 20.8779 142.606C20.5434 142.071 20.209 141.502 19.8746 140.967C19.8746 140.9 19.8077 140.867 19.8077 140.833C19.4064 140.131 19.0385 139.395 18.6706 138.693C18.47 138.292 18.3028 137.924 18.1021 137.523C17.567 136.352 17.0654 135.115 16.6641 133.877C15.2929 129.831 14.5572 125.483 14.5572 120.969C14.5572 116.454 15.2929 112.106 16.6641 108.06C17.0988 106.822 17.567 105.585 18.1021 104.414C18.2693 104.013 18.47 103.612 18.6706 103.244C19.0385 102.475 19.4733 101.706 19.8746 100.97C20.209 100.401 20.5434 99.8662 20.8779 99.3311C21.2123 98.796 21.5802 98.261 21.9815 97.7259C22.3493 97.1908 22.7506 96.6892 23.1185 96.1875C23.5198 95.6859 23.9211 95.1842 24.3559 94.6826C24.6569 94.3147 24.9913 93.9469 25.3257 93.6124C25.6602 93.278 25.9946 92.9101 26.329 92.5757C26.9979 91.9069 27.7336 91.238 28.4359 90.6026C30.5093 88.8301 32.75 87.2249 35.1244 85.8872C35.927 85.4524 36.7297 85.0177 37.5657 84.6164C37.8333 84.4826 38.1343 84.3488 38.4018 84.2485C38.9703 84.0144 39.5388 83.7469 40.1074 83.5462C40.4084 83.4459 40.6759 83.3121 40.9769 83.2118C41.3447 83.078 41.6792 82.9442 42.047 82.8439C46.0267 81.5062 50.3074 80.8039 54.7552 80.8039C63.3166 80.8039 71.2425 83.4793 77.7638 88.0275C78.6333 88.6295 79.4693 89.2649 80.272 89.9338C80.5395 90.1678 80.807 90.3685 81.0746 90.6026C81.8103 91.238 82.5126 91.9069 83.1815 92.5757C83.8503 93.2446 84.5192 93.9469 85.1546 94.6826C85.5893 95.1842 85.9907 95.6524 86.392 96.1541C86.7933 96.6557 87.1611 97.1908 87.529 97.6924C87.8969 98.2275 88.2648 98.7626 88.6326 99.2977C88.967 99.8328 89.3015 100.401 89.6359 100.936C90.0707 101.672 90.472 102.441 90.8398 103.21C91.0405 103.612 91.2077 103.98 91.4084 104.381C91.9434 105.551 92.4451 106.789 92.8464 108.026C93.1808 108.963 93.4484 109.899 93.6825 110.869C93.7493 111.203 93.8497 111.504 93.9166 111.839C94.0503 112.474 94.1841 113.143 94.3179 113.812C94.3848 114.146 94.4182 114.481 94.4851 114.815C94.5854 115.484 94.6857 116.153 94.7526 116.822C94.8864 118.159 94.9533 119.53 94.9533 120.935C94.9533 122.34 94.8864 123.711 94.7526 125.049C94.6857 125.717 94.5854 126.386 94.4851 127.055H94.4182Z" fill="#FAE543"/>
<g style="mix-blend-mode:multiply">
<path d="M94.6857 116.822C94.6188 116.153 94.5185 115.484 94.4182 114.816C94.3847 114.481 94.3179 114.147 94.251 113.812C94.1172 113.143 93.9834 112.508 93.8497 111.839C93.7828 111.505 93.6824 111.204 93.6156 110.869C93.3815 109.9 93.0805 108.963 92.7795 108.027C92.3447 106.789 91.8765 105.552 91.3415 104.381C91.1742 103.98 90.9736 103.579 90.7729 103.211C90.4051 102.442 89.9703 101.673 89.569 100.937C89.2346 100.368 88.9001 99.8333 88.5657 99.2982C88.2313 98.7631 87.8634 98.228 87.4621 97.693C87.0942 97.1579 86.6929 96.6562 86.3251 96.1546C85.9237 95.653 85.5224 95.1513 85.0877 94.6497C84.4523 93.9139 83.7834 93.2116 83.1146 92.5428C82.4457 91.8739 81.7434 91.2051 81.0077 90.5697C80.7401 90.3356 80.4726 90.1349 80.2051 89.9008C79.4024 89.232 78.5664 88.5966 77.6969 87.9946C71.1755 83.4464 63.2496 80.771 54.6883 80.771C50.2405 80.771 45.9933 81.4733 41.9801 82.811C41.6123 82.9448 41.2778 83.0451 40.91 83.1789C40.609 83.2792 40.3414 83.413 40.0405 83.5133C39.4719 83.7474 38.9034 83.9815 38.3349 84.2156C38.0673 84.3494 37.7664 84.4497 37.4988 84.5835C36.6628 84.9848 35.8601 85.3861 35.0575 85.8543C32.6496 87.192 30.409 88.7638 28.369 90.5697C27.6333 91.2051 26.931 91.8739 26.2621 92.5428C25.9277 92.8772 25.5932 93.2451 25.2588 93.5795C24.9244 93.9474 24.6234 94.2818 24.289 94.6497C23.8542 95.1513 23.4529 95.6195 23.0516 96.1212C22.6503 96.6228 22.2824 97.1579 21.9146 97.6595C21.5467 98.1946 21.1788 98.7297 20.811 99.2648C20.4765 99.7998 20.1421 100.368 19.8077 100.903C19.3729 101.639 18.9716 102.408 18.6037 103.178C18.4031 103.579 18.2359 103.947 18.0352 104.348C17.5001 105.519 17.0319 106.756 16.5972 107.993C15.226 112.04 14.4903 116.387 14.4903 120.902C14.4903 125.417 15.226 129.764 16.5972 133.811C17.0319 135.048 17.5001 136.286 18.0352 137.456C18.2024 137.858 18.4031 138.259 18.6037 138.627C18.9716 139.362 19.3395 140.065 19.7408 140.767C19.7408 140.767 19.7742 140.867 19.8077 140.901C20.1421 141.469 20.4765 142.004 20.811 142.54C21.1454 143.075 21.5132 143.61 21.9146 144.145C22.2824 144.68 22.6837 145.181 23.0516 145.683C23.4529 146.185 23.8542 146.686 24.289 147.188C24.59 147.556 24.9244 147.924 25.2588 148.258C25.5932 148.593 25.9277 148.961 26.2621 149.295C26.931 149.964 27.6667 150.633 28.369 151.268C29.8739 152.572 31.4792 153.776 33.1513 154.846C33.586 155.114 33.9873 155.381 34.4221 155.616C34.8569 155.85 35.2916 156.117 35.7264 156.351C36.1611 156.585 36.6293 156.82 37.0641 157.02C41.1441 158.993 45.5919 160.331 50.3074 160.833C51.7454 161 53.1834 161.067 54.6549 161.067C60.9421 161.067 66.8949 159.629 72.1788 157.054C72.4464 156.92 72.7139 156.786 72.9815 156.652C74.5533 155.85 76.0582 154.947 77.4962 153.943C78.7001 153.107 79.8372 152.204 80.9408 151.268C81.6765 150.633 82.3788 149.964 83.0477 149.295C83.7165 148.626 84.3854 147.89 85.0208 147.188C85.4556 146.686 85.8569 146.218 86.2582 145.717C86.6595 145.215 87.0274 144.68 87.3952 144.178C87.7631 143.643 88.131 143.108 88.4988 142.573C88.8333 142.038 89.1677 141.469 89.5021 140.934C89.9369 140.199 90.3382 139.429 90.706 138.66C90.9067 138.259 91.0739 137.891 91.2746 137.49C91.8097 136.319 92.2778 135.082 92.7126 133.844C93.0136 132.908 93.3146 131.972 93.5487 131.002C93.6156 130.667 93.7159 130.366 93.7828 130.032C93.9165 129.397 94.0503 128.728 94.1841 128.059C94.251 127.724 94.2844 127.39 94.3513 127.056C94.4516 126.387 94.552 125.718 94.6188 125.049C94.7526 123.711 94.8195 122.34 94.8195 120.936C94.8195 119.531 94.7526 118.16 94.6188 116.822H94.6857ZM82.2116 148.492C75.1552 155.549 65.4234 159.896 54.6549 159.896C53.3506 159.896 52.0464 159.829 50.7421 159.696C41.5454 158.793 33.2851 154.679 27.0647 148.492C24.3559 145.783 22.0483 142.673 20.209 139.262C17.2995 133.811 15.6273 127.557 15.6273 120.936C15.6273 110.167 19.9749 100.435 27.0313 93.3789C30.7769 89.6333 35.2582 86.6569 40.2411 84.6838C44.689 82.9113 49.5047 81.9415 54.588 81.9415C63.0155 81.9415 70.7742 84.6169 77.1618 89.1317C78.9342 90.4025 80.6064 91.8071 82.1447 93.3454C89.2011 100.402 93.5487 110.134 93.5487 120.902C93.5487 131.671 89.2011 141.402 82.1447 148.459L82.2116 148.492Z" fill="#F6F39E"/>
</g>
<path d="M108.598 0.106934H88.3318L44.4551 73.3463H64.7213L108.598 0.106934Z" fill="#37DAED"/>
</svg>
