<svg width="109" height="168" viewBox="0 0 109 168" fill="none" xmlns="http://www.w3.org/2000/svg">
<path d="M0.977295 0.106934H21.2487L65.11 73.372H44.8643L0.977295 0.106934Z" fill="#BA3F3F"/>
<path d="M64.6982 79.5973V78.6454H45.4301C44.6841 78.6454 44.0153 78.3367 43.5265 77.848C43.0377 77.3592 42.729 76.6903 42.729 75.9443C42.729 75.1983 43.0377 74.5294 43.5265 74.0406C44.0153 73.5519 44.6841 73.2432 45.4301 73.2432H64.6982C65.4443 73.2432 66.1131 73.5519 66.6019 74.0406C67.0907 74.5294 67.3994 75.1983 67.3994 75.9443C67.3994 76.6903 67.0907 77.3592 66.6019 77.848C66.1131 78.3367 65.4443 78.6454 64.6982 78.6454V80.5234C67.2193 80.5234 69.2773 78.4654 69.2773 75.9443C69.2773 73.4232 67.2193 71.3652 64.6982 71.3652H45.4301C42.9091 71.3652 40.8511 73.4232 40.8511 75.9443C40.8511 78.4654 42.9091 80.5234 45.4301 80.5234H64.6982V79.5715V79.5973Z" fill="#E0C64C"/>
<path d="M101.46 120.938C101.46 146.56 80.6994 167.32 55.0772 167.32C52.8392 167.32 50.6525 167.166 48.5173 166.857C47.5141 166.702 46.5108 166.548 45.5332 166.342C34.9088 164.13 25.6477 158.265 19.0621 150.136C18.5219 149.467 17.9816 148.772 17.4671 148.052C12.3479 140.952 9.15794 132.334 8.77206 122.996C8.77206 122.661 8.77206 122.327 8.74634 121.992C8.74634 121.632 8.74634 121.272 8.74634 120.938C8.74634 120.552 8.74634 120.14 8.74634 119.754C9.28656 98.5052 24.1299 80.7806 44.0154 75.8929C45.739 75.4556 47.5398 75.1469 49.3405 74.9153C51.2442 74.6838 53.1736 74.5552 55.1287 74.5552C63.5151 74.5552 71.387 76.7933 78.2041 80.6777C78.9501 81.1151 79.6704 81.5524 80.3907 82.0155C93.1247 90.2732 101.537 104.628 101.537 120.912L101.46 120.938Z" fill="#E0C64C"/>
<path d="M84.5062 111.6L84.1975 111.214L83.7088 111.162L81.8565 111.754L82.4225 110.571C82.5768 110.262 82.4225 109.876 82.1138 109.722L78.2808 107.844H77.792L77.4318 108.152L74.4992 114.172L72.2611 114.892H71.3864L72.5698 108.873L72.4669 108.384L72.0553 108.101L67.8621 107.278L67.3733 107.381L67.0903 107.792L65.6755 114.892H60.9678L59.5272 110.416L65.8555 106.892L66.1642 106.506L66.1128 106.017L64.0291 102.287C63.849 101.978 63.4631 101.875 63.1544 102.03L57.8036 105.014L57.5463 104.191V101.824L62.3569 97.1935L62.5627 96.7304L62.3827 96.2674L59.4243 93.1803C59.167 92.9231 58.7811 92.9231 58.5239 93.1803L57.5721 94.1064V92.1771L57.392 91.714L56.9289 91.5339H52.6586L52.1955 91.714L52.0154 92.1771V94.1064L51.0636 93.1803C50.8064 92.9231 50.3948 92.9488 50.1632 93.1803L47.2048 96.2674L47.0248 96.7304L47.2306 97.1935L52.0412 101.824V104.191L51.7839 105.014L46.4331 102.03C46.1244 101.85 45.7385 101.978 45.5584 102.287L43.4747 106.017L43.4233 106.506L43.732 106.892L50.0603 110.416L48.6197 114.892H43.912L42.4971 107.792C42.42 107.432 42.0855 107.226 41.7511 107.278L37.5579 108.101C37.1978 108.178 36.992 108.512 37.0434 108.847L38.2268 114.867H37.3521L35.114 114.146L32.1814 108.127L31.8212 107.792H31.3325L27.4994 109.696C27.1907 109.85 27.0364 110.236 27.1907 110.545L27.7567 111.728L25.9045 111.136L25.4157 111.188L25.107 111.574L23.795 115.638C23.6921 115.973 23.8722 116.333 24.2066 116.462L26.0588 117.053L24.9012 117.671C24.5925 117.825 24.4639 118.237 24.6439 118.545L26.6505 122.327L27.0364 122.636L27.5251 122.584L33.4162 119.446L35.6543 120.166L36.3489 120.68L31.847 124.848C31.5897 125.079 31.564 125.491 31.8212 125.748L34.7282 128.887L35.1655 129.093L35.6285 128.912L40.9536 123.999L44.761 126.752L43.3203 131.228L36.1173 130.379L35.6543 130.507L35.4227 130.945L34.9082 135.189C34.8568 135.55 35.114 135.858 35.4742 135.91L41.571 136.63L41.3138 137.453L39.9246 139.357L33.3133 140.283C32.9531 140.334 32.7216 140.669 32.7731 141.003L33.3647 145.248L33.622 145.66L34.1108 145.788L35.4227 145.608L34.2908 147.177C34.085 147.46 34.1365 147.872 34.4452 148.078L37.8924 150.599L38.3811 150.702L38.7927 150.444L39.9246 148.875L40.1562 150.187C40.2076 150.547 40.542 150.779 40.9022 150.702L45.1211 149.956L45.5327 149.698L45.6356 149.21L44.478 142.624L45.8671 140.72L46.5617 140.206L49.1342 145.788L49.4944 146.123H49.9831L53.8676 144.322L54.2021 143.962V143.473L51.1408 136.887L54.9481 134.135L58.7554 136.887L55.7198 143.473C55.5655 143.807 55.7198 144.167 56.0285 144.322L59.913 146.123H60.4018L60.762 145.814L63.3345 140.232L64.0291 140.746L65.4182 142.65L64.2606 149.235C64.2091 149.595 64.4407 149.93 64.7751 149.981L68.994 150.727L69.4828 150.624L69.74 150.213L69.9716 148.901L71.1035 150.47L71.5151 150.727L72.0038 150.624L75.451 148.103C75.734 147.898 75.8111 147.486 75.6053 147.203L74.4734 145.634L75.7854 145.814L76.2742 145.685L76.5315 145.274L77.1231 141.029C77.1746 140.669 76.9173 140.36 76.5829 140.309L69.9716 139.383L68.5824 137.479L68.3251 136.656L74.422 135.935L74.8593 135.704L74.9879 135.241L74.4734 130.996L74.2419 130.559L73.7789 130.43L66.5758 131.279L65.1352 126.803L68.9425 124.05L74.2676 128.964L74.7307 129.144L75.168 128.938L78.075 125.8C78.3065 125.543 78.3065 125.131 78.0492 124.899L73.5473 120.732L74.2419 120.217L76.48 119.497L82.371 122.636L82.8598 122.687L83.2457 122.378L85.2523 118.597C85.4066 118.288 85.3037 117.902 84.995 117.722L83.8374 117.105L85.6896 116.513C86.024 116.41 86.2041 116.05 86.1012 115.69L84.7892 111.625L84.5062 111.6ZM61.8681 128.501L59.2956 124.951L63.4631 123.587L61.2765 125.182C61.0449 125.337 60.9678 125.645 61.0449 125.903L61.8939 128.475L61.8681 128.501ZM51.1665 117.876L52.0154 115.304V119.677L47.848 118.314H50.5491C50.8321 118.314 51.0636 118.134 51.1665 117.876ZM54.7937 128.218L57.3663 131.768L55.1796 130.173H54.4336L52.247 131.768L54.8195 128.218H54.7937ZM57.5721 119.677V115.304L58.421 117.876C58.4982 118.134 58.7554 118.314 59.0384 118.314H61.7395L57.5721 119.677ZM48.5683 125.928C48.6454 125.671 48.5683 125.362 48.3367 125.208L46.1501 123.613L50.3176 124.977L47.7451 128.527L48.594 125.954L48.5683 125.928Z" fill="#BAA811"/>
<path d="M85.7673 115.484L84.4553 111.42L81.1625 112.474L82.3973 109.928L78.5643 108.05L75.5287 114.301L72.9305 115.15H71.1812L72.5189 108.358L68.3257 107.535L66.8079 115.15H61.1227L59.3734 109.748L66.1648 105.966L64.0811 102.236L58.0357 105.606L57.4954 103.934V101.207L62.5118 96.3706L59.5534 93.2836L57.5212 95.2387V91.7915H53.2508V95.2387L51.2185 93.2836L48.2601 96.3706L53.2765 101.207V103.934L52.7363 105.606L46.6909 102.236L44.6072 105.966L51.3986 109.748L49.6493 115.15H43.964L42.4463 107.535L38.2531 108.358L39.5908 115.15H37.8415L35.2432 114.301L32.2077 108.05L28.3746 109.928L29.6094 112.474L26.3166 111.42L25.0046 115.484L28.2975 116.539L25.8021 117.877L27.8087 121.658L33.957 118.391L36.5552 119.24L37.9701 120.269L32.9022 124.977L35.8092 128.115L41.5202 122.842L46.1249 126.186L44.3756 131.588L36.6581 130.662L36.1436 134.907L43.0122 135.73L42.472 137.402L40.8513 139.614L33.957 140.566L34.5487 144.811L37.3527 144.425L35.3204 147.229L38.7676 149.75L40.7998 146.946L41.2886 149.724L45.5075 148.978L44.2985 142.136L45.9191 139.923L47.334 138.894L50.241 145.171L54.1254 143.37L50.8584 136.322L55.4632 132.977L60.0679 136.322L56.8009 143.37L60.6853 145.171L63.5923 138.894L65.0072 139.923L66.6278 142.136L65.4188 148.978L69.6377 149.724L70.1265 146.946L72.1587 149.75L75.6059 147.229L73.5736 144.425L76.3777 144.811L76.9693 140.566L70.075 139.614L68.4543 137.402L67.9141 135.73L74.7827 134.907L74.2682 130.662L66.5507 131.588L64.8014 126.186L69.4062 122.842L75.1171 128.115L78.0241 124.977L72.9562 120.269L74.3711 119.24L76.9693 118.391L83.1176 121.658L85.1242 117.877L82.6289 116.539L85.9217 115.484H85.7673ZM66.3449 117.285L57.4697 120.166V110.854L59.5534 117.285H66.3191H66.3449ZM51.1156 117.285L53.1993 110.854V120.166L44.3242 117.285H51.0899H51.1156ZM43.0122 121.35L51.8874 124.231L46.4079 131.768L48.4917 125.337L43.0122 121.35ZM55.3345 130.302L49.8551 134.289L55.3345 126.752L60.814 134.289L55.3345 130.302ZM64.2869 131.794L58.8074 124.257L67.6826 121.375L62.2031 125.363L64.2869 131.794Z" fill="#FFF075"/>
<g style="mix-blend-mode:soft-light" opacity="0.38">
<path d="M80.3131 82.0413L79.4385 84.3309L78.0751 87.9581L77.612 89.1929L51.1666 159.731L50.7036 160.94L49.3401 164.567L48.4655 166.883C47.4622 166.728 46.4589 166.574 45.4814 166.368C34.8569 164.156 25.5959 158.291 19.0102 150.161C18.47 149.493 17.9298 148.798 17.4153 148.078L18.4186 145.325L20.065 140.849L20.6309 139.28L40.6965 84.7167L41.2624 83.1475L42.9089 78.6713L43.9121 75.9188C45.6357 75.4814 47.4365 75.1727 49.2372 74.9412C51.1409 74.7097 53.0703 74.5811 55.0254 74.5811C63.4118 74.5811 71.2836 76.8191 78.1008 80.7036C78.8468 81.141 79.5671 81.5783 80.2874 82.0413H80.3131Z" fill="#FFFB8C"/>
</g>
<path d="M86.1528 89.8614C84.0948 87.8034 81.8567 85.9769 79.4386 84.3562C72.4671 79.7 64.0807 76.9731 55.0512 76.9731C50.858 76.9731 46.7934 77.5648 42.9347 78.671C41.2368 79.1598 39.5647 79.7515 37.944 80.4203C32.6704 82.6327 27.9369 85.874 23.9496 89.8357C16.0005 97.7848 11.0613 108.795 11.0613 120.937C11.0613 129.941 13.7624 138.328 18.4187 145.299C20.0393 147.717 21.8915 149.981 23.9496 152.039C30.6381 158.728 39.4875 163.281 49.3402 164.567C51.2182 164.824 53.1218 164.927 55.0512 164.927C67.1934 164.927 78.2038 159.988 86.1528 152.039C94.1019 144.09 99.0411 133.08 99.0411 120.937C99.0411 108.795 94.1276 97.7848 86.1528 89.8357V89.8614ZM94.8222 127.06C94.7707 127.394 94.7193 127.729 94.6678 128.063C94.5392 128.732 94.4106 129.375 94.2562 130.018C94.1791 130.353 94.1019 130.661 94.0247 130.996C93.7932 131.948 93.5102 132.9 93.1758 133.851C92.7642 135.086 92.2754 136.321 91.7352 137.504C91.5551 137.89 91.375 138.302 91.1692 138.688C90.7834 139.459 90.3718 140.231 89.9602 140.977C89.6515 141.543 89.2913 142.083 88.9569 142.624C88.5967 143.164 88.2366 143.704 87.8764 144.244C87.5163 144.759 87.1304 145.273 86.7188 145.788C86.3329 146.302 85.9213 146.791 85.5097 147.28C84.8666 148 84.2235 148.72 83.5546 149.389C82.86 150.084 82.1655 150.727 81.4451 151.37C80.339 152.322 79.1813 153.222 77.998 154.046C76.5574 155.049 75.0653 155.949 73.4704 156.747C73.2131 156.875 72.9301 157.004 72.6729 157.158C67.3735 159.731 61.431 161.171 55.1284 161.171C53.662 161.171 52.1957 161.094 50.7808 160.94C46.0731 160.425 41.6227 159.113 37.5581 157.133C37.0951 156.901 36.6578 156.695 36.2204 156.438C35.7831 156.206 35.3458 155.949 34.9084 155.718C34.4711 155.46 34.0595 155.203 33.6222 154.946C31.9243 153.865 30.3294 152.682 28.8116 151.37C28.0913 150.727 27.371 150.084 26.7021 149.389C26.3677 149.055 26.0333 148.695 25.6989 148.36C25.3644 148 25.0557 147.64 24.7213 147.28C24.3097 146.791 23.8981 146.302 23.5122 145.788C23.1264 145.273 22.7405 144.759 22.3546 144.244C21.9687 143.704 21.6086 143.19 21.2741 142.624C20.9397 142.083 20.5796 141.517 20.2709 140.977C20.2451 140.926 20.2194 140.874 20.1937 140.823C19.7821 140.103 19.4219 139.408 19.0618 138.662C18.856 138.276 18.6759 137.89 18.4958 137.479C17.9556 136.295 17.4668 135.06 17.0552 133.826C15.6918 129.787 14.9458 125.439 14.9458 120.937C14.9458 116.435 15.6918 112.088 17.0552 108.049C17.4668 106.814 17.9556 105.579 18.4958 104.396C18.6759 104.01 18.856 103.599 19.0618 103.213C19.4477 102.441 19.8593 101.669 20.2709 100.923C20.5796 100.357 20.9397 99.817 21.2741 99.2768C21.6343 98.7366 21.9944 98.1963 22.3546 97.6561C22.7147 97.1416 23.1006 96.6271 23.5122 96.1126C23.8981 95.5981 24.3097 95.1093 24.7213 94.6206C25.03 94.2604 25.3644 93.9003 25.6989 93.5401C26.0333 93.18 26.3677 92.8455 26.7021 92.5111C27.3967 91.8165 28.0913 91.1734 28.8116 90.5303C30.8696 88.7552 33.1334 87.1603 35.5258 85.8226C36.3233 85.3853 37.1465 84.9479 37.9697 84.5621C38.2527 84.4334 38.5357 84.3048 38.8187 84.1762C39.3846 83.9189 39.9506 83.6874 40.5165 83.4559C40.7995 83.353 41.0825 83.2243 41.3912 83.1214C41.7513 82.9928 42.1115 82.8642 42.4716 82.7356C46.459 81.3979 50.7294 80.7033 55.1541 80.7033C63.7206 80.7033 71.6439 83.3787 78.1781 87.932C79.027 88.5237 79.8759 89.1668 80.6734 89.8357C80.9306 90.0672 81.2136 90.273 81.4709 90.5045C82.1912 91.1477 82.9115 91.7908 83.5803 92.4854C84.2749 93.18 84.918 93.8745 85.5354 94.5948C85.947 95.0836 86.3586 95.5724 86.7445 96.0869C87.1304 96.6014 87.5163 97.1159 87.9021 97.6304C88.288 98.1706 88.6482 98.6851 88.9826 99.2511C89.317 99.7913 89.6772 100.357 89.9859 100.897C90.4232 101.644 90.8091 102.415 91.195 103.187C91.4008 103.573 91.5808 103.959 91.7609 104.37C92.3011 105.554 92.7899 106.789 93.2015 108.023C93.5102 108.949 93.7932 109.901 94.0504 110.879C94.1276 111.213 94.2048 111.522 94.282 111.856C94.4363 112.5 94.565 113.168 94.6936 113.811C94.745 114.146 94.7965 114.48 94.8479 114.815C94.9508 115.484 95.028 116.152 95.1052 116.821C95.2338 118.185 95.311 119.548 95.311 120.937C95.311 122.326 95.2338 123.69 95.1052 125.053C95.028 125.722 94.9508 126.391 94.8479 127.06H94.8222Z" fill="#FAE543"/>
<g style="mix-blend-mode:multiply">
<path d="M95.0794 116.822C95.0022 116.153 94.9251 115.484 94.8222 114.815C94.7707 114.481 94.7193 114.146 94.6678 113.812C94.5392 113.143 94.4106 112.5 94.2562 111.857C94.179 111.523 94.1019 111.214 94.0247 110.879C93.7674 109.928 93.4845 108.976 93.1758 108.024C92.7384 106.789 92.2754 105.554 91.7352 104.371C91.5551 103.985 91.375 103.573 91.1692 103.188C90.7833 102.416 90.3717 101.644 89.9601 100.898C89.6514 100.332 89.2913 99.7919 88.9568 99.2517C88.5967 98.7114 88.2365 98.1712 87.8764 97.631C87.5162 97.1165 87.1304 96.602 86.7188 96.0875C86.3329 95.573 85.9213 95.0842 85.5097 94.5954C84.8666 93.8751 84.2234 93.1548 83.5288 92.4859C82.8343 91.7914 82.1397 91.1482 81.4194 90.5051C81.1621 90.2736 80.9049 90.0421 80.6219 89.8363C79.8244 89.1674 78.9755 88.55 78.1266 87.9326C71.6181 83.3793 63.6691 80.7039 55.1026 80.7039C50.6779 80.7039 46.4075 81.4242 42.4201 82.7361C42.06 82.8648 41.6998 82.9677 41.3397 83.0963C41.0567 83.1992 40.7737 83.3278 40.465 83.4307C39.8991 83.6622 39.3074 83.8938 38.7672 84.151C38.4842 84.2796 38.2012 84.4083 37.9182 84.5369C37.095 84.9228 36.2718 85.3601 35.4744 85.7974C33.0819 87.1351 30.8438 88.7301 28.7601 90.5051C28.0398 91.1482 27.3195 91.7914 26.6507 92.4859C26.3162 92.8204 25.9818 93.1805 25.6474 93.515C25.313 93.8751 25.0043 94.2353 24.6698 94.5954C24.2582 95.0842 23.8466 95.573 23.4607 96.0875C23.0749 96.602 22.689 97.1165 22.3031 97.631C21.9172 98.1712 21.5571 98.6857 21.2227 99.2517C20.8882 99.7919 20.5281 100.358 20.2194 100.898C19.7821 101.644 19.3962 102.416 19.0103 103.188C18.8045 103.573 18.6244 103.959 18.4444 104.371C17.9041 105.554 17.4411 106.789 17.0037 108.024C15.6403 112.063 14.8943 116.41 14.8943 120.912C14.8943 125.414 15.6403 129.762 17.0037 133.8C17.4411 135.035 17.9041 136.27 18.4444 137.453C18.6244 137.839 18.8045 138.251 19.0103 138.637C19.3705 139.357 19.7563 140.077 20.1422 140.772C20.1422 140.772 20.1937 140.875 20.2194 140.926C20.5281 141.492 20.8882 142.032 21.2227 142.573C21.5828 143.113 21.943 143.653 22.3031 144.193C22.6633 144.708 23.0491 145.222 23.4607 145.737C23.8466 146.251 24.2582 146.74 24.6698 147.229C24.9785 147.589 25.313 147.949 25.6474 148.309C25.9818 148.67 26.3162 149.004 26.6507 149.338C27.3452 150.033 28.0398 150.676 28.7601 151.319C30.2779 152.631 31.8729 153.815 33.5707 154.895C34.008 155.152 34.4196 155.435 34.857 155.667C35.2943 155.924 35.7316 156.156 36.1689 156.387C36.6063 156.619 37.0693 156.85 37.5066 157.082C41.5712 159.063 46.0474 160.374 50.7293 160.889C52.17 161.043 53.6106 161.12 55.0769 161.12C61.3538 161.12 67.322 159.68 72.6214 157.107C72.8787 156.979 73.1616 156.85 73.4189 156.696C74.9881 155.898 76.5059 154.998 77.9465 153.995C79.1556 153.171 80.3132 152.271 81.3937 151.319C82.114 150.676 82.8343 150.033 83.5031 149.338C84.1977 148.644 84.8408 147.949 85.484 147.229C85.8956 146.74 86.3072 146.251 86.693 145.737C87.0789 145.222 87.4648 144.708 87.8507 144.193C88.2365 143.653 88.5967 143.139 88.9311 142.573C89.2655 142.032 89.6257 141.467 89.9344 140.926C90.3717 140.18 90.7576 139.409 91.1435 138.637C91.3493 138.251 91.5294 137.865 91.7094 137.453C92.2497 136.27 92.7127 135.035 93.15 133.8C93.4587 132.874 93.7417 131.923 93.999 130.945C94.0761 130.611 94.1533 130.302 94.2305 129.967C94.3848 129.324 94.5135 128.655 94.6421 128.012C94.6935 127.678 94.745 127.343 94.7964 127.009C94.8993 126.34 94.9765 125.671 95.0537 125.002C95.1823 123.639 95.2595 122.276 95.2595 120.886C95.2595 119.497 95.1823 118.134 95.0537 116.77L95.0794 116.822ZM82.6285 148.489C75.5798 155.538 65.83 159.911 55.0769 159.911C53.7649 159.911 52.4529 159.86 51.1924 159.706C41.9828 158.78 33.7251 154.664 27.5253 148.489C24.8242 145.788 22.5089 142.676 20.6824 139.254C17.7755 133.8 16.1034 127.549 16.1034 120.938C16.1034 110.185 20.4509 100.435 27.5253 93.3863C31.2554 89.6562 35.7316 86.6721 40.748 84.6912C45.1985 82.9162 50.0348 81.9644 55.1026 81.9644C63.5147 81.9644 71.2837 84.6141 77.6635 89.1674C79.4386 90.4279 81.1107 91.8428 82.6542 93.3863C89.7029 100.435 94.0761 110.185 94.0761 120.938C94.0761 131.691 89.7286 141.441 82.6542 148.489H82.6285Z" fill="#F6F39E"/>
</g>
<path d="M108.997 0.106934H88.7258L44.8645 73.372H65.1102L108.997 0.106934Z" fill="#E04C4C"/>
</svg>
