<svg width="109" height="168" viewBox="0 0 109 168" fill="none" xmlns="http://www.w3.org/2000/svg">
<path d="M0.977417 0.107178H21.2488L65.1101 73.3465H44.8645L0.977417 0.107178Z" fill="#04D64A"/>
<path d="M64.6984 79.5719V78.62H45.4303C44.6843 78.62 44.0154 78.3113 43.5267 77.8226C43.0379 77.3338 42.7292 76.6649 42.7292 75.9189C42.7292 75.1729 43.0379 74.504 43.5267 74.0153C44.0154 73.5265 44.6843 73.2178 45.4303 73.2178H64.6984C65.4444 73.2178 66.1133 73.5265 66.6021 74.0153C67.0909 74.504 67.3995 75.1729 67.3995 75.9189C67.3995 76.6649 67.0909 77.3338 66.6021 77.8226C66.1133 78.3113 65.4444 78.62 64.6984 78.62V80.498C67.2195 80.498 69.2775 78.44 69.2775 75.9189C69.2775 73.3978 67.2195 71.3398 64.6984 71.3398H45.4303C42.9092 71.3398 40.8512 73.3978 40.8512 75.9189C40.8512 78.44 42.9092 80.498 45.4303 80.498H64.6984V79.5461V79.5719Z" fill="#E0C64C"/>
<path d="M101.46 120.938C101.46 146.56 80.6994 167.32 55.0772 167.32C52.8391 167.32 50.6525 167.166 48.5173 166.857C47.514 166.703 46.5107 166.548 45.5332 166.343C34.9087 164.13 25.6477 158.265 19.062 150.136C18.5218 149.467 17.9816 148.772 17.4671 148.052C12.3478 140.952 9.15786 132.334 8.77199 122.996C8.77199 122.661 8.772 122.327 8.74628 121.992C8.74628 121.632 8.74628 121.272 8.74628 120.938C8.74628 120.552 8.74628 120.14 8.74628 119.754C9.2865 98.5055 24.1299 80.7809 44.0154 75.8931C45.739 75.4558 47.5397 75.1471 49.3405 74.9156C51.2441 74.684 53.1735 74.5554 55.1286 74.5554C63.515 74.5554 71.3869 76.7935 78.204 80.678C78.9501 81.1153 79.6704 81.5526 80.3907 82.0157C93.1246 90.2734 101.537 104.628 101.537 120.912L101.46 120.938Z" fill="#E0C64C"/>
<g style="mix-blend-mode:multiply">
<path d="M38.4588 92.4859V91.174H60.0165H71.6957V92.5888L66.4478 140.643V140.72C66.3449 141.184 65.7274 143.164 64.4154 143.807L64.0038 143.988C63.7723 144.09 63.618 144.322 63.618 144.579V151.242V151.345C63.618 151.937 63.4894 152.528 63.3093 153.069C63.1035 153.634 62.8977 154.046 62.589 154.252C60.9426 155.538 57.624 155.795 56.0548 155.795C56.0033 155.795 55.9519 155.795 55.9004 155.795C55.6689 155.795 55.4631 155.795 55.3345 155.795H55.1801H55.1287H55.0772H55.0515C55.0515 155.795 54.7428 155.795 54.2798 155.795C54.2283 155.795 54.1769 155.795 54.1254 155.795C52.5305 155.795 49.2377 155.538 47.5912 154.252C47.2825 154.02 47.051 153.634 46.8709 153.069C46.6651 152.503 46.5879 151.911 46.5622 151.294V151.191V150.985V144.605C46.5622 144.348 46.4079 144.116 46.1764 144.013L45.7648 143.833C45.0187 143.447 44.5042 142.676 44.1698 141.955C44.0155 141.595 43.8868 141.261 43.8097 141.029L43.7325 140.746V140.669L38.4845 92.6146V92.4859M72.3388 89.8877H37.8157L37.3526 90.0678L37.1726 90.5308V92.4859V92.5888V92.7432L42.4205 140.823V140.875C42.4205 140.875 42.5748 141.621 42.9607 142.47C43.3466 143.319 44.0155 144.373 45.1474 144.965H45.1988L45.2503 145.017V150.985V151.216V151.345C45.276 152.065 45.3789 152.786 45.6361 153.506C45.8676 154.175 46.1764 154.844 46.7938 155.307C49.0576 156.979 52.6334 157.082 54.254 157.107C54.5113 157.107 54.7171 157.107 54.8457 157.107H55.0258H55.0515C55.1544 157.107 55.4374 157.107 55.849 157.107C57.4697 157.107 61.0455 156.979 63.3093 155.307C63.9267 154.844 64.2611 154.175 64.4669 153.506C64.6984 152.837 64.8013 152.142 64.8528 151.448V151.345V151.319V151.036V145.094L64.9042 145.042H64.9557C66.0876 144.425 66.7564 143.396 67.1423 142.521C67.5282 141.647 67.6825 140.952 67.6825 140.926V140.875L72.9304 92.7946V92.6403V92.5631V90.5823L72.7504 90.1192L72.2873 89.9391" fill="#F4F096"/>
</g>
<path d="M64.2611 144.064V151.01C64.2611 151.01 64.2611 151.19 64.2611 151.293C64.2611 151.319 64.2611 151.37 64.2611 151.396C64.2354 152.039 64.1324 152.682 63.9266 153.3C63.7208 153.917 63.4379 154.457 62.9748 154.792C60.3766 156.747 55.103 156.438 55.103 156.438C55.103 156.438 49.8293 156.747 47.2311 154.792C46.768 154.457 46.485 153.917 46.2792 153.3C46.0734 152.657 45.9448 151.988 45.9448 151.319C45.9448 151.293 45.9448 151.242 45.9448 151.216C45.9448 151.139 45.9448 151.062 45.9448 151.01V144.064L55.1287 146.431L64.3125 144.064H64.2611Z" fill="#E9D05F"/>
<g style="mix-blend-mode:multiply" opacity="0.14">
<path d="M58.8074 153.145C58.8074 153.145 58.8074 153.171 58.8074 153.197C57.6498 153.377 56.3892 153.454 55.0772 153.454C54.4598 153.454 53.8167 153.454 53.1478 153.377C52.2217 153.3 51.3986 153.197 50.6783 153.068V153.017C50.6783 153.017 50.6783 152.991 50.6783 152.965C50.7812 151.988 51.4243 151.19 52.2475 150.65C53.0707 150.084 54.0482 149.801 54.7685 149.801C54.82 149.801 54.8715 149.801 54.9486 149.801C55.3345 149.827 56.312 150.187 57.1867 150.753C58.0614 151.319 58.8074 152.116 58.8331 153.042C58.8331 153.042 58.8331 153.042 58.8331 153.068L58.8074 153.145Z" fill="#BAAE00"/>
</g>
<g style="mix-blend-mode:soft-light" opacity="0.52">
<path d="M58.8074 153.197C58.8074 153.403 58.7045 153.583 58.4987 153.737C57.907 154.252 56.4921 154.509 55.0258 154.509C53.9453 154.509 52.8649 154.38 52.0417 154.123C51.6301 153.994 51.2957 153.84 51.0384 153.66C50.8069 153.48 50.6783 153.274 50.6783 153.068C51.3986 153.197 52.2217 153.3 53.1478 153.377C53.791 153.429 54.4341 153.454 55.0772 153.454C56.4149 153.454 57.6755 153.351 58.8074 153.197Z" fill="#FBF7E4"/>
</g>
<path d="M64.2611 151.293C64.2611 151.293 64.2611 151.37 64.2611 151.396C64.1067 151.499 63.9524 151.628 63.7466 151.73C63.2064 152.039 62.486 152.322 61.6371 152.579C60.8396 152.811 59.9135 153.017 58.9103 153.171C58.9103 153.171 58.8588 153.171 58.8331 153.171C57.6755 153.351 56.4149 153.428 55.103 153.428C54.4856 153.428 53.8424 153.428 53.1736 153.351C52.2475 153.274 51.4242 153.171 50.7039 153.042C50.6782 153.042 50.6525 153.042 50.6268 153.042C48.0028 152.554 46.5622 151.73 45.9448 151.293C45.9448 151.267 45.9448 151.216 45.9448 151.19C45.9448 151.19 45.9705 151.19 45.9962 151.216C46.2535 151.396 46.6651 151.653 47.2568 151.936C48.0543 152.296 49.1347 152.682 50.6525 152.965C50.6782 152.965 50.704 152.965 50.7297 152.965C51.45 153.094 52.2732 153.197 53.1993 153.274C53.8424 153.325 54.4856 153.351 55.103 153.351C56.4407 153.351 57.7012 153.248 58.8331 153.068C58.8588 153.068 58.8845 153.068 58.9103 153.068C60.994 152.759 62.6918 152.219 63.7208 151.628C63.9524 151.499 64.1324 151.37 64.2868 151.242L64.2611 151.293Z" fill="#DEB709"/>
<path d="M58.8846 153.094C58.8846 152.116 58.0871 151.319 57.2124 150.727C56.312 150.135 55.3345 149.775 54.9229 149.75C54.8714 149.75 54.82 149.75 54.7428 149.75C54.0225 149.75 53.0192 150.058 52.196 150.624C51.3728 151.164 50.704 151.988 50.6011 152.991C50.6011 152.991 50.6011 153.017 50.6011 153.042V153.094C50.6011 153.351 50.7554 153.583 51.0127 153.763C51.7587 154.329 53.4308 154.612 55.0515 154.612C56.0291 154.612 56.9809 154.509 57.7012 154.277C58.0613 154.148 58.37 154.02 58.5758 153.814C58.7816 153.634 58.9103 153.428 58.9103 153.197C58.9103 153.197 58.9103 153.119 58.9103 153.094H58.8846ZM58.4987 153.763C57.907 154.277 56.4921 154.534 55.0258 154.534C53.9453 154.534 52.8649 154.406 52.0417 154.149C51.6301 154.02 51.2956 153.866 51.0384 153.685C50.8069 153.505 50.6782 153.3 50.6782 153.094V153.042C50.6782 153.042 50.6782 153.017 50.6782 152.991C50.7811 152.013 51.4243 151.216 52.2475 150.676C53.0707 150.11 54.0482 149.827 54.7685 149.827C54.82 149.827 54.8714 149.827 54.9486 149.827C55.3345 149.852 56.312 150.213 57.1867 150.779C58.0613 151.344 58.8074 152.142 58.8331 153.068C58.8331 153.068 58.8331 153.068 58.8331 153.094C58.8331 153.094 58.8331 153.119 58.8331 153.145C58.8331 153.351 58.7302 153.531 58.5244 153.685L58.4987 153.763Z" fill="#DEB709"/>
<g style="mix-blend-mode:multiply" opacity="0.14">
<path d="M64.2611 144.064V145.068C63.7466 145.402 63.052 145.762 62.1259 146.148C55.7976 148.824 49.9065 146.843 47.9257 148.155C45.9706 149.467 47.1797 154.818 47.1797 154.818C46.7166 154.483 46.4336 153.943 46.2278 153.325C46.022 152.682 45.8934 152.014 45.8934 151.345C45.8934 151.319 45.8934 151.267 45.8934 151.242C45.8934 151.165 45.8934 151.087 45.8934 151.036V144.09L55.0772 146.457L64.2611 144.09V144.064Z" fill="#BAAE00"/>
</g>
<path d="M72.3387 90.5305V92.6657L67.0908 140.746C67.0908 140.746 66.5763 143.421 64.6984 144.399C60.9425 146.354 55.0772 146.405 55.0772 146.405C55.0772 146.405 49.2119 146.354 45.456 144.399C43.5781 143.421 43.0636 140.746 43.0636 140.746L37.8414 92.6657V92.5114V90.5305H72.3644H72.3387Z" fill="#F8E47E"/>
<path d="M62.5632 98.9685H47.5912C44.8129 98.9685 42.6263 101.361 42.9092 104.139L45.9705 135.087C46.0992 136.347 46.6137 137.505 47.3854 138.405C48.543 139.743 50.2409 140.463 52.0159 140.463H58.1128C59.8878 140.463 61.6114 139.743 62.7433 138.405C63.5151 137.479 64.0296 136.347 64.1582 135.087L67.2194 104.139C67.5024 101.361 65.3158 98.9685 62.5375 98.9685H62.5632Z" fill="#E9D05F"/>
<path d="M55.0772 92.5115H37.8157V92.5372L37.8414 92.6658H55.0772H72.3131L72.3388 92.5372V92.5115H55.0772Z" fill="#F0D246"/>
<path d="M52.2218 124.745C51.2185 124.745 50.4724 124.256 50.1637 123.562C50.0866 123.382 50.1637 123.279 50.3438 123.253H50.3953C50.5496 123.227 50.6268 123.279 50.7039 123.433C51.0127 123.947 51.4757 124.205 52.196 124.205C53.1478 124.205 53.8167 123.587 53.8167 122.661C53.8167 121.735 53.2508 121.195 52.2218 121.221C51.7073 121.221 51.2699 121.401 50.884 121.838C50.7811 121.941 50.6782 121.992 50.5239 121.967H50.4467C50.2924 121.915 50.2152 121.812 50.2409 121.632L50.6525 119.317C50.6783 119.163 50.7812 119.085 50.9355 119.085H53.791C53.971 119.085 54.0482 119.188 54.0482 119.343C54.0482 119.549 53.9453 119.651 53.791 119.651H51.167L50.8326 121.324C51.1927 120.963 51.7072 120.758 52.2732 120.732C53.5852 120.732 54.4084 121.478 54.4084 122.661C54.4084 123.845 53.4823 124.719 52.196 124.719L52.2218 124.745Z" fill="#FFFBDE"/>
<path d="M55.2316 121.89C55.2316 119.909 56.3635 119.034 57.624 119.034C58.8845 119.034 60.0164 119.909 60.0164 121.89C60.0164 123.87 58.8845 124.745 57.624 124.745C56.3635 124.745 55.2316 123.896 55.2316 121.89ZM57.624 124.179C58.7302 124.179 59.399 123.33 59.399 121.89C59.399 120.449 58.7044 119.6 57.624 119.6C56.5435 119.6 55.8489 120.449 55.8489 121.89C55.8489 123.33 56.5178 124.179 57.624 124.179Z" fill="#FFFBDE"/>
<path d="M50.6525 133.98C49.6492 133.98 48.8003 133.543 48.3887 132.848C48.2858 132.694 48.3372 132.591 48.5173 132.514H48.5687C48.7231 132.437 48.8002 132.462 48.9289 132.642C49.289 133.131 49.8807 133.414 50.6267 133.414C51.5014 133.414 52.0931 133.028 52.0931 132.385C52.0931 130.842 48.5173 131.871 48.5173 129.736C48.5173 128.835 49.3405 128.218 50.4209 128.218C51.3213 128.218 52.1188 128.604 52.4789 129.221C52.5818 129.375 52.5304 129.478 52.3503 129.555H52.2731C52.1445 129.633 52.0416 129.581 51.913 129.427C51.5786 128.99 51.0898 128.784 50.4467 128.784C49.6492 128.784 49.109 129.144 49.109 129.736C49.109 131.331 52.6847 130.199 52.6847 132.385C52.6847 133.337 51.8358 133.954 50.6267 133.954L50.6525 133.98Z" fill="#FFFBDE"/>
<path d="M53.5337 133.646V128.603C53.5337 128.423 53.6366 128.346 53.7909 128.346H54.9486C56.6722 128.346 57.5468 128.758 57.5468 130.198C57.5468 131.639 56.6722 132.051 54.9486 132.051H54.1511V133.671C54.1511 133.851 54.0482 133.929 53.8938 133.929H53.8167C53.6366 133.929 53.5594 133.826 53.5594 133.671L53.5337 133.646ZM56.9294 130.173C56.9294 129.144 56.2348 128.912 55.0258 128.912H54.1511V131.459H55.0258C56.2348 131.459 56.9294 131.227 56.9294 130.173Z" fill="#FFFBDE"/>
<path d="M58.7044 133.903C58.5244 133.903 58.4472 133.8 58.4472 133.646V128.603C58.4472 128.423 58.5501 128.346 58.7044 128.346H61.5342C61.7143 128.346 61.7914 128.449 61.7914 128.603C61.7914 128.809 61.6886 128.912 61.5342 128.912H59.0646V130.919H61.4056C61.5857 130.919 61.6628 131.022 61.6628 131.176C61.6628 131.382 61.5599 131.459 61.4056 131.459H59.0646V133.646C59.0646 133.826 58.9617 133.903 58.8074 133.903H58.7302H58.7044Z" fill="#FFFBDE"/>
<path d="M55.0772 111.136C56.6543 111.136 57.9327 109.869 57.9327 108.307C57.9327 106.744 56.6543 105.477 55.0772 105.477C53.5002 105.477 52.2218 106.744 52.2218 108.307C52.2218 109.869 53.5002 111.136 55.0772 111.136Z" fill="#F8F1CE"/>
<path d="M55.2573 100.538L55.0515 105.991L54.8457 100.538C54.8457 100.28 55.2316 100.28 55.2316 100.538H55.2573Z" fill="#F8F1CE"/>
<path d="M50.6268 101.901L53.7138 106.429L50.3181 102.133C50.1638 101.927 50.4725 101.695 50.6268 101.901Z" fill="#F8F1CE"/>
<path d="M47.6684 105.708L52.8392 107.586L47.5398 106.094C47.2825 106.017 47.4112 105.631 47.6684 105.734V105.708Z" fill="#F8F1CE"/>
<path d="M47.5398 110.519L52.8392 109.027L47.6684 110.905C47.4112 110.982 47.2825 110.622 47.5398 110.545V110.519Z" fill="#F8F1CE"/>
<path d="M50.2924 114.481L53.6881 110.185L50.6011 114.712C50.4467 114.918 50.138 114.712 50.2924 114.481Z" fill="#F8F1CE"/>
<path d="M54.8714 116.076L55.0772 110.622L55.283 116.076C55.283 116.333 54.8971 116.333 54.8971 116.076H54.8714Z" fill="#F8F1CE"/>
<path d="M59.5277 114.686L56.4407 110.159L59.8364 114.455C59.9907 114.661 59.6821 114.892 59.5277 114.686Z" fill="#F8F1CE"/>
<path d="M62.4861 110.879L57.3154 109.001L62.6147 110.493C62.872 110.57 62.7434 110.956 62.4861 110.853V110.879Z" fill="#F8F1CE"/>
<path d="M62.589 106.069L57.2896 107.561L62.4604 105.683C62.7176 105.605 62.8463 105.966 62.589 106.043V106.069Z" fill="#F8F1CE"/>
<path d="M59.8364 102.132L56.4407 106.428L59.5277 101.901C59.6821 101.695 59.9907 101.901 59.8364 102.132Z" fill="#F8F1CE"/>
<path d="M59.9907 105.117C59.9907 105.117 59.219 105.605 58.3958 106.12C57.4697 106.686 56.4921 107.303 56.4921 107.303L59.7592 104.808C59.965 104.654 60.1965 104.988 59.9907 105.117Z" fill="#F8F1CE"/>
<path d="M57.161 102.853C57.161 102.853 56.8265 103.702 56.4664 104.576C56.0548 105.58 55.6432 106.634 55.6432 106.634L56.8008 102.724C56.878 102.467 57.2639 102.596 57.161 102.853Z" fill="#F8F1CE"/>
<path d="M53.5338 102.698C53.5338 102.698 53.7653 103.573 53.9968 104.499C54.2798 105.554 54.5627 106.66 54.5627 106.66L53.1736 102.827C53.0964 102.57 53.4823 102.467 53.5595 102.724L53.5338 102.698Z" fill="#F8F1CE"/>
<path d="M50.4982 104.653C50.4982 104.653 51.1928 105.219 51.9388 105.837C52.7877 106.531 53.6624 107.252 53.6624 107.252L50.2409 104.962C50.0094 104.808 50.2409 104.499 50.4724 104.653H50.4982Z" fill="#F8F1CE"/>
<path d="M49.212 108.024C49.212 108.024 50.1638 108.075 51.1413 108.152C52.2218 108.229 53.328 108.281 53.328 108.281L49.212 108.41C48.9547 108.41 48.9547 108.024 49.212 108.024Z" fill="#F8F1CE"/>
<path d="M50.1638 111.496C50.1638 111.496 50.9355 111.008 51.7587 110.493C52.6848 109.927 53.6624 109.31 53.6624 109.31L50.3953 111.805C50.1895 111.96 49.958 111.625 50.1638 111.496Z" fill="#F8F1CE"/>
<path d="M52.9935 113.735C52.9935 113.735 53.328 112.886 53.6881 112.011C54.0997 111.008 54.5113 109.953 54.5113 109.953L53.3537 113.863C53.2765 114.121 52.8906 113.992 52.9935 113.735Z" fill="#F8F1CE"/>
<path d="M56.6207 113.915C56.6207 113.915 56.3892 113.04 56.1577 112.114C55.8747 111.059 55.5917 109.953 55.5917 109.953L56.9809 113.786C57.058 114.043 56.6722 114.146 56.595 113.889L56.6207 113.915Z" fill="#F8F1CE"/>
<path d="M59.6563 111.934C59.6563 111.934 58.9617 111.368 58.2157 110.751C57.3668 110.056 56.4921 109.336 56.4921 109.336L59.9136 111.625C60.1451 111.78 59.9136 112.088 59.6821 111.934H59.6563Z" fill="#F8F1CE"/>
<path d="M60.9426 108.589C60.9426 108.589 59.9908 108.538 59.0132 108.461C57.9328 108.384 56.8266 108.332 56.8266 108.332L60.9426 108.204C61.1999 108.204 61.1999 108.589 60.9426 108.589Z" fill="#F8F1CE"/>
<g style="mix-blend-mode:multiply" opacity="0.41">
<path d="M47.051 141.929C50.2923 145.196 55.0772 146.431 55.0772 146.431C55.0772 146.431 49.2119 146.38 45.456 144.425C43.5781 143.447 43.0636 140.772 43.0636 140.772L37.8414 92.6916V92.5372V90.5564H60.0421C60.0421 90.5564 48.1314 92.2028 45.6361 94.7239C43.1407 97.2192 41.4429 96.3445 41.7001 108.23C41.9574 120.115 43.8353 138.688 47.0767 141.955L47.051 141.929Z" fill="#D6D384"/>
</g>
<g style="mix-blend-mode:soft-light" opacity="0.85">
<path d="M61.5342 143.576C59.4504 143.473 61.7143 132.565 62.7433 121.041C63.9266 107.998 64.1581 94.1836 66.2933 94.338C68.4285 94.4923 70.4865 97.3478 67.8883 120.449C65.29 143.55 63.6694 143.704 61.5342 143.576Z" fill="#FDFBF3"/>
</g>
<g style="mix-blend-mode:soft-light" opacity="0.38">
<path d="M80.3135 82.0157L79.4388 84.3052L78.0754 87.9325L77.6124 89.1673L51.167 159.705L50.7039 160.915L49.3405 164.542L48.4658 166.857C47.4626 166.703 46.4593 166.548 45.4817 166.343C34.8572 164.13 25.5962 158.265 19.0106 150.136C18.4704 149.467 17.9301 148.772 17.4156 148.052L18.4189 145.299L20.0653 140.823L20.6313 139.254L40.6968 84.6911L41.2628 83.1219L42.9092 78.6457L43.9125 75.8931C45.6361 75.4558 47.4368 75.1471 49.2376 74.9156C51.1412 74.684 53.0706 74.5554 55.0257 74.5554C63.4121 74.5554 71.284 76.7935 78.1012 80.678C78.8472 81.1153 79.5675 81.5526 80.2878 82.0157H80.3135Z" fill="#FFFB8C"/>
</g>
<path d="M86.1788 89.8363C84.1208 87.7783 81.8828 85.9518 79.4646 84.3311C72.4931 79.6749 64.1067 76.948 55.0772 76.948C50.884 76.948 46.8194 77.5397 42.9607 78.6459C41.2628 79.1346 39.5907 79.7263 37.97 80.3952C32.6964 82.6075 27.9629 85.8489 23.9755 89.8105C16.0265 97.7596 11.0873 108.77 11.0873 120.912C11.0873 129.916 13.7884 138.302 18.4447 145.274C20.0653 147.692 21.9175 149.956 23.9755 152.014C30.6641 158.702 39.5135 163.256 49.3662 164.542C51.2442 164.799 53.1478 164.902 55.0772 164.902C67.2194 164.902 78.2298 159.963 86.1788 152.014C94.1279 144.065 99.0671 133.054 99.0671 120.912C99.0671 108.77 94.1536 97.7596 86.1788 89.8105V89.8363ZM94.8225 127.06C94.771 127.395 94.7196 127.729 94.6681 128.064C94.5395 128.733 94.4109 129.376 94.2565 130.019C94.1794 130.353 94.1022 130.662 94.025 130.996C93.7935 131.948 93.5105 132.9 93.1761 133.852C92.7645 135.087 92.2757 136.322 91.7354 137.505C91.5554 137.891 91.3753 138.302 91.1695 138.688C90.7836 139.46 90.372 140.232 89.9604 140.978C89.6517 141.544 89.2916 142.084 88.9572 142.624C88.597 143.164 88.2368 143.705 87.8767 144.245C87.5165 144.759 87.1307 145.274 86.7191 145.788C86.3332 146.303 85.9216 146.792 85.51 147.28C84.8668 148.001 84.2237 148.721 83.5549 149.39C82.8603 150.084 82.1657 150.728 81.4454 151.371C80.3392 152.323 79.1816 153.223 77.9982 154.046C76.5576 155.049 75.0656 155.95 73.4706 156.747C73.2134 156.876 72.9304 157.005 72.6732 157.159C67.3738 159.731 61.4313 161.172 55.1286 161.172C53.6623 161.172 52.196 161.095 50.7811 160.94C46.0734 160.426 41.623 159.114 37.5584 157.133C37.0953 156.902 36.658 156.696 36.2207 156.439C35.7834 156.207 35.346 155.95 34.9087 155.718C34.4714 155.461 34.0598 155.204 33.6225 154.946C31.9246 153.866 30.3297 152.683 28.8119 151.371C28.0916 150.728 27.3712 150.084 26.7024 149.39C26.368 149.055 26.0335 148.695 25.6991 148.361C25.3647 148.001 25.056 147.641 24.7216 147.28C24.31 146.792 23.8984 146.303 23.5125 145.788C23.1266 145.274 22.7408 144.759 22.3549 144.245C21.969 143.705 21.6088 143.19 21.2744 142.624C20.94 142.084 20.5798 141.518 20.2711 140.978C20.2454 140.926 20.2197 140.875 20.1939 140.823C19.7823 140.103 19.4222 139.409 19.062 138.663C18.8562 138.277 18.6762 137.891 18.4961 137.479C17.9559 136.296 17.4671 135.061 17.0555 133.826C15.6921 129.787 14.946 125.44 14.946 120.938C14.946 116.436 15.6921 112.088 17.0555 108.05C17.4671 106.815 17.9559 105.58 18.4961 104.397C18.6762 104.011 18.8562 103.599 19.062 103.213C19.4479 102.442 19.8595 101.67 20.2711 100.924C20.5798 100.358 20.94 99.8176 21.2744 99.2774C21.6345 98.7372 21.9947 98.1969 22.3549 97.6567C22.715 97.1422 23.1009 96.6277 23.5125 96.1132C23.8984 95.5987 24.31 95.1099 24.7216 94.6211C25.0303 94.261 25.3647 93.9008 25.6991 93.5407C26.0335 93.1805 26.368 92.8461 26.7024 92.5117C27.397 91.8171 28.0916 91.174 28.8119 90.5308C30.8699 88.7558 33.1337 87.1609 35.5261 85.8232C36.3236 85.3858 37.1468 84.9485 37.97 84.5626C38.253 84.434 38.536 84.3054 38.8189 84.1767C39.3849 83.9195 39.9508 83.688 40.5168 83.4564C40.7998 83.3535 41.0827 83.2249 41.3914 83.122C41.7516 82.9934 42.1117 82.8648 42.4719 82.7361C46.4593 81.3984 50.7297 80.7039 55.1544 80.7039C63.7208 80.7039 71.6442 83.3793 78.1783 87.9326C79.0273 88.5243 79.8762 89.1674 80.6737 89.8363C80.9309 90.0678 81.2139 90.2736 81.4711 90.5051C82.1915 91.1483 82.9117 91.7914 83.5806 92.486C84.2752 93.1805 84.9183 93.8751 85.5357 94.5954C85.9473 95.0842 86.3589 95.573 86.7448 96.0875C87.1307 96.602 87.5165 97.1165 87.9024 97.631C88.2883 98.1712 88.6484 98.6857 88.9829 99.2517C89.3173 99.7919 89.6774 100.358 89.9862 100.898C90.4235 101.644 90.8094 102.416 91.1952 103.188C91.401 103.573 91.5811 103.959 91.7612 104.371C92.3014 105.554 92.7902 106.789 93.2018 108.024C93.5105 108.95 93.7935 109.902 94.0507 110.879C94.1279 111.214 94.2051 111.523 94.2822 111.857C94.4366 112.5 94.5652 113.169 94.6938 113.812C94.7453 114.146 94.7967 114.481 94.8482 114.815C94.9511 115.484 95.0283 116.153 95.1055 116.822C95.2341 118.185 95.3113 119.549 95.3113 120.938C95.3113 122.327 95.2341 123.691 95.1055 125.054C95.0283 125.723 94.9511 126.392 94.8482 127.06H94.8225Z" fill="#FAE543"/>
<g style="mix-blend-mode:multiply">
<path d="M95.0797 116.822C95.0026 116.153 94.9254 115.484 94.8225 114.815C94.7711 114.481 94.7196 114.146 94.6682 113.812C94.5396 113.143 94.4109 112.5 94.2566 111.857C94.1794 111.523 94.1022 111.214 94.025 110.879C93.7678 109.928 93.4848 108.976 93.1761 108.024C92.7388 106.789 92.2757 105.554 91.7355 104.371C91.5554 103.985 91.3754 103.573 91.1696 103.188C90.7837 102.416 90.3721 101.644 89.9605 100.898C89.6518 100.332 89.2916 99.7919 88.9572 99.2517C88.597 98.7114 88.2369 98.1712 87.8767 97.631C87.5166 97.1165 87.1307 96.602 86.7191 96.0875C86.3332 95.573 85.9216 95.0842 85.51 94.5954C84.8669 93.8751 84.2238 93.1548 83.5292 92.486C82.8346 91.7914 82.14 91.1483 81.4197 90.5051C81.1625 90.2736 80.9052 90.0421 80.6223 89.8363C79.8248 89.1674 78.9758 88.55 78.1269 87.9326C71.6185 83.3793 63.6694 80.7039 55.103 80.7039C50.6782 80.7039 46.4079 81.4242 42.4205 82.7361C42.0603 82.8648 41.7002 82.9677 41.34 83.0963C41.057 83.1992 40.7741 83.3278 40.4654 83.4307C39.8994 83.6622 39.3077 83.8938 38.7675 84.151C38.4845 84.2796 38.2016 84.4083 37.9186 84.5369C37.0954 84.9228 36.2722 85.3601 35.4747 85.7974C33.0823 87.1351 30.8442 88.7301 28.7604 90.5051C28.0401 91.1483 27.3199 91.7914 26.651 92.486C26.3166 92.8204 25.9822 93.1805 25.6477 93.515C25.3133 93.8751 25.0046 94.2353 24.6702 94.5954C24.2586 95.0842 23.847 95.573 23.4611 96.0875C23.0752 96.602 22.6893 97.1165 22.3035 97.631C21.9176 98.1712 21.5574 98.6857 21.223 99.2517C20.8886 99.7919 20.5284 100.358 20.2197 100.898C19.7824 101.644 19.3965 102.416 19.0107 103.188C18.8049 103.573 18.6248 103.959 18.4447 104.371C17.9045 105.554 17.4414 106.789 17.0041 108.024C15.6407 112.063 14.8946 116.41 14.8946 120.912C14.8946 125.414 15.6407 129.762 17.0041 133.8C17.4414 135.035 17.9045 136.27 18.4447 137.453C18.6248 137.839 18.8049 138.251 19.0107 138.637C19.3708 139.357 19.7567 140.077 20.1426 140.772C20.1426 140.772 20.194 140.875 20.2197 140.926C20.5284 141.492 20.8886 142.032 21.223 142.573C21.5832 143.113 21.9433 143.653 22.3035 144.193C22.6636 144.708 23.0495 145.222 23.4611 145.737C23.847 146.251 24.2586 146.74 24.6702 147.229C24.9789 147.589 25.3133 147.949 25.6477 148.309C25.9822 148.67 26.3166 149.004 26.651 149.338C27.3456 150.033 28.0401 150.676 28.7604 151.319C30.2782 152.631 31.8732 153.815 33.5711 154.895C34.0084 155.152 34.42 155.435 34.8573 155.667C35.2947 155.924 35.732 156.156 36.1693 156.387C36.6066 156.619 37.0697 156.85 37.507 157.082C41.5716 159.063 46.0477 160.374 50.7297 160.889C52.1703 161.043 53.6109 161.121 55.0772 161.121C61.3541 161.121 67.3224 159.68 72.6217 157.107C72.879 156.979 73.162 156.85 73.4192 156.696C74.9885 155.898 76.5063 154.998 77.9469 153.995C79.1559 153.171 80.3136 152.271 81.394 151.319C82.1143 150.676 82.8346 150.033 83.5035 149.338C84.198 148.644 84.8412 147.949 85.4843 147.229C85.8959 146.74 86.3075 146.251 86.6934 145.737C87.0793 145.222 87.4651 144.708 87.851 144.193C88.2369 143.653 88.597 143.139 88.9315 142.573C89.2659 142.032 89.626 141.467 89.9347 140.926C90.3721 140.18 90.7579 139.409 91.1438 138.637C91.3496 138.251 91.5297 137.865 91.7098 137.453C92.25 136.27 92.713 135.035 93.1504 133.8C93.4591 132.874 93.742 131.923 93.9993 130.945C94.0765 130.611 94.1536 130.302 94.2308 129.967C94.3852 129.324 94.5138 128.655 94.6424 128.012C94.6939 127.678 94.7453 127.343 94.7968 127.009C94.8997 126.34 94.9769 125.671 95.054 125.002C95.1827 123.639 95.2598 122.276 95.2598 120.886C95.2598 119.497 95.1827 118.134 95.054 116.77L95.0797 116.822ZM82.6288 148.489C75.5801 155.538 65.8303 159.911 55.0772 159.911C53.7652 159.911 52.4533 159.86 51.1927 159.706C41.9832 158.78 33.7254 154.664 27.5257 148.489C24.8245 145.788 22.5093 142.676 20.6828 139.254C17.7758 133.8 16.1037 127.549 16.1037 120.938C16.1037 110.185 20.4513 100.435 27.5257 93.3863C31.2558 89.6562 35.732 86.6721 40.7484 84.6912C45.1988 82.9162 50.0351 81.9644 55.103 81.9644C63.5151 81.9644 71.2841 84.6141 77.6639 89.1674C79.4389 90.4279 81.111 91.8428 82.6545 93.3863C89.7032 100.435 94.0765 110.185 94.0765 120.938C94.0765 131.691 89.7289 141.441 82.6545 148.489H82.6288Z" fill="#F6F39E"/>
</g>
<path d="M108.997 0.107178H88.7516L44.8646 73.3465H65.1359L108.997 0.107178Z" fill="#36DE6E"/>
</svg>
