<svg width="109" height="168" viewBox="0 0 109 168" fill="none" xmlns="http://www.w3.org/2000/svg">
<path d="M0.977295 0.106934H21.2455L65.1001 73.3607H44.8575L0.977295 0.106934Z" fill="#058DE8"/>
<path d="M64.6884 79.5855V78.6338H45.4233C44.6774 78.6338 44.0086 78.3252 43.5199 77.8365C43.0312 77.3478 42.7226 76.679 42.7226 75.9331C42.7226 75.1872 43.0312 74.5184 43.5199 74.0297C44.0086 73.541 44.6774 73.2324 45.4233 73.2324H64.6884C65.4344 73.2324 66.1031 73.541 66.5918 74.0297C67.0805 74.5184 67.3891 75.1872 67.3891 75.9331C67.3891 76.679 67.0805 77.3478 66.5918 77.8365C66.1031 78.3252 65.4344 78.6338 64.6884 78.6338V80.5115C67.2091 80.5115 69.2668 78.4538 69.2668 75.9331C69.2668 73.4124 67.2091 71.3547 64.6884 71.3547H45.4233C42.9027 71.3547 40.845 73.4124 40.845 75.9331C40.845 78.4538 42.9027 80.5115 45.4233 80.5115H64.6884V79.5598V79.5855Z" fill="#E0C64C"/>
<path d="M101.444 120.92C101.444 142.603 86.5772 160.813 66.4632 165.88C62.8108 166.806 59.0041 167.295 55.0688 167.295C54.2457 167.295 53.4226 167.295 52.5995 167.243C51.2106 167.166 49.8474 167.038 48.4842 166.832C47.4811 166.678 46.4779 166.523 45.5005 166.317C35.3921 164.208 26.4926 158.807 20.0109 151.271C19.6765 150.885 19.3678 150.499 19.0334 150.113C18.4933 149.444 17.9532 148.75 17.4387 148.03C15.0724 144.763 13.1176 141.162 11.6772 137.304C9.97964 132.829 8.95075 127.993 8.74498 122.977C8.74498 122.643 8.74496 122.309 8.71924 121.974C8.71924 121.614 8.71924 121.254 8.71924 120.92C8.71924 120.534 8.71924 120.122 8.71924 119.736C9.13078 103.095 18.3133 88.6396 31.8169 80.7947C35.5721 78.6084 39.6618 76.9365 43.983 75.8819C44.626 75.7276 45.2433 75.599 45.8863 75.4704C47.018 75.2389 48.1497 75.0589 49.3072 74.9045C51.2106 74.673 53.1396 74.5444 55.0945 74.5444C63.4795 74.5444 71.3502 76.7822 78.1663 80.6661C78.9122 81.1033 79.6324 81.5406 80.3526 82.0036C81.0728 82.4665 81.7673 82.9552 82.4618 83.4697C85.9084 85.9903 88.9949 88.974 91.6185 92.3177C97.7916 100.188 101.495 110.117 101.495 120.92H101.444Z" fill="#E0C64C"/>
<path d="M43.4168 104.304L38.4784 103.892L43.1339 105.075C43.1339 105.075 40.4846 108.342 36.3949 108.831H37.7839C37.7839 108.831 38.324 111.608 31.405 114.721C31.405 114.721 31.7652 114.618 32.331 114.438C33.1284 114.181 34.3115 113.769 35.4175 113.28C35.4175 113.28 35.0831 117.653 32.511 119.994L34.6459 118.605C34.6459 118.605 33.3856 127.581 28.2671 127.221C27.444 127.17 26.7753 126.707 26.2094 126.012C24.7176 124.186 24.0488 120.714 24.1774 118.553L26.1837 119.556C25.7978 119.299 24.0488 117.859 24.8204 113.1L27.2896 115.775C27.0067 115.415 23.8945 111.377 26.2608 105.795L28.0613 109.422C27.9584 109.139 26.6724 105.384 28.5243 102.58C30.4791 99.6738 31.4308 99.4166 31.4308 99.4166L31.688 104.329C31.6623 103.506 31.6108 99.4423 33.437 97.9762C35.469 96.3301 37.3724 96.3301 37.3724 96.3301L36.7036 99.2366C36.8579 98.6964 38.0411 95.4298 43.1854 96.3301L40.4589 98.7736C40.7675 98.5935 45.1916 96.1757 46.0146 100.06C46.4776 102.246 43.4425 104.329 43.4425 104.329L43.4168 104.304Z" fill="#FFE873"/>
<path d="M43.3144 100.42C33.5918 101.834 30.0938 109.988 28.782 118.707C28.3704 121.511 28.1904 124.34 28.5248 127.17C27.7788 124.52 28.0103 121.408 28.2933 118.63C28.9106 114.412 30.0937 110.117 32.4601 106.516C34.8521 102.992 39.1476 100.497 43.3144 100.42Z" fill="#FFF0A3"/>
<g style="mix-blend-mode:multiply" opacity="0.31">
<path d="M32.4867 119.943L34.6218 118.554C34.6218 118.554 33.3613 127.532 28.242 127.172C27.4188 127.12 26.75 126.657 26.184 125.963C26.2355 124.625 22.6597 125.011 24.8206 119.043C25.0521 118.4 27.0844 121.384 27.2387 121.204C27.496 120.869 27.2902 119.12 28.242 117.962C28.4735 117.679 28.9108 118.4 28.9623 118.014C29.1166 116.907 30.12 116.033 30.9689 115.235C31.2776 114.952 31.2262 115.518 31.432 115.39C31.6892 115.21 32.0751 114.515 32.3066 114.386C33.1041 114.129 34.2874 113.718 35.3936 113.229C35.3936 113.229 35.0592 117.602 32.4867 119.943Z" fill="#FFD400"/>
</g>
<path d="M28.6273 127.299V127.633C24.1261 128.842 23.303 127.453 23.2516 127.324L24.3832 126.759C23.9717 126.656 23.3802 126.347 22.84 125.961C22.0169 125.421 21.2452 124.855 21.2452 124.855H23.4059C19.0847 123.466 19.2133 121.717 19.2133 121.717L21.3225 122.515L19.3419 121.229C18.5188 120.148 18.4417 117.473 18.4417 117.473L20.6022 118.939C20.6022 118.939 19.9335 118.348 19.2647 117.55C17.6186 115.621 19.1362 113.075 19.1362 113.075L19.9592 114.798C19.4448 111.377 21.2967 111.197 21.2967 111.197L21.0395 113.229L21.6825 111.815C21.6825 111.815 22.557 110.631 23.663 111.326C24.7433 112.02 24.6148 113.641 24.6148 113.641L22.557 115.673L24.7691 114.438C25.2321 116.136 23.3029 119.017 23.1743 119.197L24.6919 117.885C25.7208 118.862 24.7691 122.695 24.6919 122.978L25.6436 120.791C25.8494 120.92 26.0037 121.126 26.158 121.357C26.6981 122.335 26.7239 123.904 26.7239 123.904L27.5727 123.08C27.5727 123.08 27.7527 123.235 27.8556 123.338C28.5501 124.212 28.653 126.373 28.6787 127.222L28.6273 127.299Z" fill="#FFEE96"/>
<path d="M22.6349 113.229C20.0109 115.185 21.0914 119.069 22.2233 121.59C23.4838 124.317 25.7991 126.632 28.6289 127.687C24.6929 125.629 21.6573 121.693 21.1943 117.243C21.0142 115.776 21.4773 114.13 22.6349 113.229Z" fill="#FFF3B8"/>
<g style="mix-blend-mode:multiply" opacity="0.31">
<path d="M28.6282 127.659C24.1264 128.868 23.3032 127.479 23.2517 127.351C23.4061 127.428 25.4126 128.534 26.1329 127.042C26.2873 126.707 26.0557 124.212 26.03 123.698C26.0043 122.643 26.03 121.923 26.1329 121.434C26.6731 122.411 26.6989 123.981 26.6989 123.981L27.5478 123.157C27.5478 123.157 27.7279 123.312 27.8308 123.415C28.1909 125.344 28.6539 127.634 28.6539 127.634L28.6282 127.659Z" fill="#FFD400"/>
</g>
<path d="M48.5869 116.109C48.5869 116.109 48.0467 115.364 47.2494 115.081C46.2205 114.721 44.8573 114.798 44.8573 114.798C44.8573 114.798 48.4583 116.47 48.304 116.521C46.5292 117.035 46.2977 117.473 45.3203 117.396C44.4201 117.344 42.9797 115.878 42.8253 115.698L44.703 118.296C42.6196 119.145 38.6585 117.087 38.4527 116.984L40.3561 118.707C39.2244 120.199 33.9259 119.479 33.9259 119.479L36.858 120.353C36.1893 121.742 33.0513 122.18 33.0513 122.18L34.8775 122.694C33.7201 124.752 32.5369 124.263 31.611 125.009C31.5595 125.035 31.5338 125.06 31.5081 125.112C31.2766 125.292 31.0708 125.498 30.9164 125.703C29.7333 127.144 30.1448 128.661 30.1963 128.816C29.0388 127.144 28.3958 125.575 28.0614 124.212C27.8814 123.44 27.7785 122.746 27.7271 122.103C27.5984 119.788 28.3186 118.347 28.3186 118.347L29.1932 119.71C28.8331 116.933 31.1223 115.441 31.1223 115.441L31.4052 118.167C31.1222 113.769 34.7746 112.38 34.7746 112.38L34.1058 115.106C34.2087 114.772 34.6975 113.357 35.4176 112.457C36.6523 110.862 40.0218 110.759 40.0218 110.759L38.5299 113.615C38.6842 113.357 39.1472 112.611 39.9188 111.763C42.0794 109.396 45.6547 110.965 45.6547 110.965L43.597 112.251C47.3522 110.348 47.9696 112.431 47.9696 112.431C47.9696 112.431 47.2494 112.354 46.7349 112.483C46.2462 112.611 45.6289 113.049 45.6289 113.049C45.6289 113.049 46.6836 112.817 47.7638 113.357C48.6126 113.769 48.9984 114.772 48.6383 116.084L48.5869 116.109Z" fill="#FFF0A8"/>
<path d="M44.5256 113.718C40.4868 113.384 36.2936 114.798 33.6439 117.937C30.9428 120.792 28.7818 124.857 30.171 128.844C29.7079 128.021 29.5279 126.863 29.5022 125.86C29.5022 122.722 31.3287 119.892 33.4381 117.757C36.1135 114.67 40.5382 113.152 44.4999 113.718H44.5256Z" fill="#FFF8D4"/>
<g style="mix-blend-mode:multiply" opacity="0.31">
<path d="M31.4574 125.138C31.2258 125.318 31.0201 125.524 30.8657 125.73L28.0102 124.264C27.8301 123.492 27.7272 122.797 27.6758 122.154C27.6758 122.154 29.4508 125.01 31.4574 125.164V125.138Z" fill="#FFD400"/>
</g>
<path d="M66.695 104.304L71.6335 103.892L66.978 105.075C66.978 105.075 69.6272 108.342 73.7169 108.831H72.3279C72.3279 108.831 71.7878 111.608 78.7068 114.721C78.7068 114.721 78.3467 114.618 77.7808 114.438C76.9834 114.181 75.8003 113.769 74.6943 113.28C74.6943 113.28 75.0286 117.653 77.6007 119.994L75.4659 118.605C75.4659 118.605 76.7263 127.581 81.8448 127.221C82.6679 127.17 83.3366 126.707 83.9024 126.012C85.3943 124.186 86.063 120.714 85.9344 118.553L83.9282 119.556C84.314 119.299 86.063 117.859 85.2914 113.1L82.8221 115.775C83.105 115.415 86.2174 111.377 83.851 105.795L82.0505 109.422C82.1534 109.139 83.4395 105.384 81.5875 102.58C79.6327 99.6738 78.681 99.4166 78.681 99.4166L78.4238 104.329C78.4495 103.506 78.501 99.4423 76.6748 97.9762C74.6428 96.3301 72.7395 96.3301 72.7395 96.3301L73.4082 99.2366C73.2539 98.6964 72.0707 95.4298 66.9265 96.3301L69.6529 98.7736C69.3442 98.5935 64.9202 96.1757 64.0971 100.06C63.6341 102.246 66.6692 104.329 66.6692 104.329L66.695 104.304Z" fill="#FFE873"/>
<path d="M66.7974 100.42C76.52 101.834 80.018 109.988 81.3298 118.707C81.7413 121.511 81.9214 124.34 81.587 127.17C82.3329 124.52 82.1014 121.408 81.8185 118.63C81.2012 114.412 80.018 110.117 77.6517 106.516C75.2596 102.992 70.9642 100.497 66.7974 100.42Z" fill="#FFF0A3"/>
<g style="mix-blend-mode:multiply" opacity="0.31">
<path d="M77.6264 119.943L75.4913 118.554C75.4913 118.554 76.7518 127.532 81.8711 127.172C82.6943 127.12 83.3632 126.657 83.9291 125.963C83.8777 124.625 87.4534 125.011 85.2925 119.043C85.061 118.4 83.0287 121.384 82.8744 121.204C82.6171 120.869 82.8229 119.12 81.8711 117.962C81.6395 117.679 81.2022 118.4 81.1508 118.014C80.9964 116.907 79.9931 116.033 79.1442 115.235C78.8355 114.952 78.887 115.518 78.6812 115.39C78.4239 115.21 78.0381 114.515 77.8065 114.386C77.009 114.129 75.8257 113.718 74.7195 113.229C74.7195 113.229 75.0539 117.602 77.6264 119.943Z" fill="#FFD400"/>
</g>
<path d="M81.4835 127.299V127.633C85.9847 128.842 86.8078 127.453 86.8593 127.324L85.7275 126.759C86.1391 126.656 86.7307 126.347 87.2708 125.961C88.0939 125.421 88.8655 124.855 88.8655 124.855H86.7049C91.0261 123.466 90.8975 121.717 90.8975 121.717L88.7883 122.515L90.7689 121.229C91.592 120.148 91.6691 117.473 91.6691 117.473L89.5085 118.939C89.5085 118.939 90.1773 118.348 90.8461 117.55C92.4922 115.621 90.9746 113.075 90.9746 113.075L90.1516 114.798C90.666 111.377 88.8141 111.197 88.8141 111.197L89.0713 113.229L88.4283 111.815C88.4283 111.815 87.5537 110.631 86.4477 111.326C85.3674 112.02 85.496 113.641 85.496 113.641L87.5538 115.673L85.3417 114.438C84.8787 116.136 86.8078 119.017 86.9364 119.197L85.4189 117.885C84.39 118.862 85.3417 122.695 85.4189 122.978L84.4672 120.791C84.2614 120.92 84.1071 121.126 83.9528 121.357C83.4126 122.335 83.3869 123.904 83.3869 123.904L82.5381 123.08C82.5381 123.08 82.358 123.235 82.2551 123.338C81.5607 124.212 81.4579 126.373 81.4321 127.222L81.4835 127.299Z" fill="#FFEE96"/>
<path d="M87.4776 113.229C90.1015 115.185 89.0211 119.069 87.8892 121.59C86.6286 124.317 84.3134 126.632 81.4836 127.687C85.4196 125.629 88.4552 121.693 88.9182 117.243C89.0983 115.776 88.6352 114.13 87.4776 113.229Z" fill="#FFF3B8"/>
<g style="mix-blend-mode:multiply" opacity="0.31">
<path d="M81.4845 127.659C85.9864 128.868 86.8096 127.479 86.861 127.351C86.7067 127.428 84.7001 128.534 83.9798 127.042C83.8255 126.707 84.057 124.212 84.0828 123.698C84.1085 122.643 84.0827 121.923 83.9798 121.434C83.4396 122.411 83.4139 123.981 83.4139 123.981L82.565 123.157C82.565 123.157 82.3849 123.312 82.282 123.415C81.9218 125.344 81.4587 127.634 81.4587 127.634L81.4845 127.659Z" fill="#FFD400"/>
</g>
<path d="M61.5249 116.109C61.5249 116.109 62.0651 115.364 62.8625 115.081C63.8913 114.721 65.2545 114.798 65.2545 114.798C65.2545 114.798 61.6536 116.47 61.8079 116.521C63.5827 117.035 63.8142 117.473 64.7916 117.396C65.6918 117.344 67.1322 115.878 67.2865 115.698L65.4089 118.296C67.4923 119.145 71.4533 117.087 71.6591 116.984L69.7557 118.707C70.8875 120.199 76.186 119.479 76.186 119.479L73.2538 120.353C73.9225 121.742 77.0605 122.18 77.0605 122.18L75.2344 122.694C76.3918 124.752 77.5749 124.263 78.5009 125.009C78.5524 125.035 78.5781 125.06 78.6038 125.112C78.8353 125.292 79.0411 125.498 79.1954 125.703C80.3786 127.144 79.9671 128.661 79.9156 128.816C81.0731 127.144 81.7161 125.575 82.0504 124.212C82.2305 123.44 82.3334 122.746 82.3848 122.103C82.5134 119.788 81.7932 118.347 81.7932 118.347L80.9187 119.71C81.2788 116.933 78.9896 115.441 78.9896 115.441L78.7067 118.167C78.9897 113.769 75.3373 112.38 75.3373 112.38L76.006 115.106C75.9031 114.772 75.4144 113.357 74.6942 112.457C73.4596 110.862 70.0901 110.759 70.0901 110.759L71.5819 113.615C71.4276 113.357 70.9647 112.611 70.193 111.763C68.0325 109.396 64.4572 110.965 64.4572 110.965L66.5148 112.251C62.7596 110.348 62.1423 112.431 62.1423 112.431C62.1423 112.431 62.8624 112.354 63.3769 112.483C63.8656 112.611 64.4829 113.049 64.4829 113.049C64.4829 113.049 63.4283 112.817 62.348 113.357C61.4992 113.769 61.1134 114.772 61.4735 116.084L61.5249 116.109Z" fill="#FFF0A8"/>
<path d="M65.5896 113.718C69.6284 113.384 73.8216 114.798 76.4713 117.937C79.1724 120.792 81.3333 124.857 79.9442 128.844C80.4072 128.021 80.5873 126.863 80.613 125.86C80.613 122.722 78.7866 119.892 76.6771 117.757C74.0017 114.67 69.5769 113.152 65.6153 113.718H65.5896Z" fill="#FFF8D4"/>
<g style="mix-blend-mode:multiply" opacity="0.31">
<path d="M78.6555 125.138C78.887 125.318 79.0929 125.524 79.2472 125.73L82.1027 124.264C82.2827 123.492 82.3857 122.797 82.4371 122.154C82.4371 122.154 80.6621 125.01 78.6555 125.164V125.138Z" fill="#FFD400"/>
</g>
<path d="M83.8767 120.534C83.8767 120.534 83.851 120.611 83.7739 120.74C83.4138 121.486 81.9991 123.955 79.3498 125.113C79.2984 125.113 79.2726 125.164 79.2212 125.164C79.1697 125.164 79.1441 125.216 79.0926 125.216C79.0926 125.216 79.0668 125.216 79.0411 125.216C77.6007 125.756 75.826 125.91 73.6654 125.216C69.2414 123.775 65.8205 123.415 62.2195 124.521C59.9818 125.216 57.6926 126.502 55.0691 128.456C48.2272 123.338 43.6489 122.875 36.4727 125.216C34.3121 125.91 32.5373 125.781 31.097 125.216C31.097 125.216 31.097 125.216 31.0455 125.216C30.9941 125.216 30.9683 125.19 30.9169 125.164C30.8654 125.164 30.8398 125.138 30.7883 125.113C27.6503 123.775 26.2614 120.534 26.2614 120.534C26.2614 120.534 26.1327 123.672 26.6472 127.762C26.9301 130.077 27.4188 132.7 28.2676 135.195C28.4477 135.735 28.6535 136.276 28.8592 136.816C29.1422 137.51 29.4508 138.153 29.7851 138.796C33.7462 146.281 45.1664 146.821 48.4845 144.326C51.2366 142.269 53.8602 141.96 54.7347 141.934C54.9405 141.934 55.0433 141.934 55.0433 141.934C55.0433 141.934 58.2327 141.831 61.6022 144.326C64.9459 146.821 76.3405 146.281 80.3015 138.796C80.6359 138.153 80.9445 137.484 81.2274 136.816C81.4332 136.276 81.639 135.735 81.819 135.195C82.6678 132.7 83.1566 130.077 83.4395 127.762C83.9539 123.672 83.8253 120.509 83.8253 120.509L83.8767 120.534ZM41.5397 136.25C36.3183 135.221 35.8554 130.746 35.8554 130.746C38.0931 131.491 40.691 128.765 45.1922 129.82C49.6934 130.848 49.8991 136.636 49.8991 136.636C46.864 135.478 46.0152 137.124 41.5397 136.25ZM68.8556 136.198C68.8556 136.198 68.6756 136.25 68.5727 136.25C64.0972 137.124 63.2484 135.478 60.2133 136.636C60.2133 136.636 60.2647 135.221 60.8563 133.652C61.4736 132.057 62.6311 130.334 64.9202 129.82C69.4214 128.765 72.0193 131.491 74.257 130.746C74.257 130.746 73.8197 135.067 68.8556 136.173V136.198Z" fill="#FFEE99"/>
<path d="M68.5468 144.996C61.1648 145.304 59.9302 139.723 55.0689 139.723C50.2077 139.723 48.9473 145.304 41.591 144.996C33.5146 144.661 30.1194 139.543 28.8848 136.868C29.1677 137.562 29.4764 138.205 29.8108 138.848C33.7718 146.333 45.192 146.873 48.51 144.378C51.8795 141.858 55.0689 141.986 55.0689 141.986C55.0689 141.986 58.2583 141.883 61.6278 144.378C64.9716 146.873 76.366 146.333 80.327 138.848C80.6614 138.205 80.9701 137.536 81.253 136.868C80.0184 139.568 76.6232 144.687 68.5468 144.996Z" fill="#FFEA80"/>
<g style="mix-blend-mode:multiply" opacity="0.31">
<path d="M34.5425 129.332C34.5425 129.332 33.6423 131.698 35.8286 134.604C38.0148 137.511 40.6127 138.411 47.1973 138.102C49.898 137.974 51.3126 139.054 51.3126 139.054L49.6408 137.151H43.8279L36.8831 134.939L34.4911 129.357L34.5425 129.332Z" fill="#FFEF9E"/>
</g>
<path d="M44.8313 128.38C38.8125 127.763 38.5553 130.386 34.5428 129.332C34.5428 129.332 33.6169 133.396 37.938 136.405C42.7736 139.749 48.7408 136.405 51.313 139.054C51.313 139.054 52.136 129.126 44.8055 128.38H44.8313ZM41.539 136.251C36.3176 135.222 35.8546 130.746 35.8546 130.746C38.0923 131.492 40.6902 128.766 45.1914 129.82C49.6926 130.849 49.8983 136.636 49.8983 136.636C46.8632 135.479 46.0144 137.125 41.539 136.251Z" fill="#FFD91F"/>
<path d="M35.2114 130.643C35.4387 130.643 35.623 130.459 35.623 130.232C35.623 130.004 35.4387 129.82 35.2114 129.82C34.9841 129.82 34.7998 130.004 34.7998 130.232C34.7998 130.459 34.9841 130.643 35.2114 130.643Z" fill="#FFF9DB"/>
<path d="M36.9355 130.643C37.1629 130.643 37.3471 130.459 37.3471 130.232C37.3471 130.004 37.1629 129.82 36.9355 129.82C36.7082 129.82 36.5239 130.004 36.5239 130.232C36.5239 130.459 36.7082 130.643 36.9355 130.643Z" fill="#FFF9DB"/>
<path d="M38.633 130.232C38.8604 130.232 39.0447 130.048 39.0447 129.82C39.0447 129.593 38.8604 129.409 38.633 129.409C38.4057 129.409 38.2214 129.593 38.2214 129.82C38.2214 130.048 38.4057 130.232 38.633 130.232Z" fill="#FFF9DB"/>
<path d="M40.3559 129.691C40.5833 129.691 40.7676 129.507 40.7676 129.28C40.7676 129.052 40.5833 128.868 40.3559 128.868C40.1286 128.868 39.9443 129.052 39.9443 129.28C39.9443 129.507 40.1286 129.691 40.3559 129.691Z" fill="#FFF9DB"/>
<path d="M42.1042 129.383C42.3316 129.383 42.5158 129.198 42.5158 128.971C42.5158 128.744 42.3316 128.56 42.1042 128.56C41.8769 128.56 41.6926 128.744 41.6926 128.971C41.6926 129.198 41.8769 129.383 42.1042 129.383Z" fill="#FFF9DB"/>
<path d="M43.8799 129.383C44.1072 129.383 44.2915 129.198 44.2915 128.971C44.2915 128.744 44.1072 128.56 43.8799 128.56C43.6526 128.56 43.4683 128.744 43.4683 128.971C43.4683 129.198 43.6526 129.383 43.8799 129.383Z" fill="#FFF9DB"/>
<path d="M45.5517 129.691C45.7791 129.691 45.9634 129.507 45.9634 129.28C45.9634 129.052 45.7791 128.868 45.5517 128.868C45.3244 128.868 45.1401 129.052 45.1401 129.28C45.1401 129.507 45.3244 129.691 45.5517 129.691Z" fill="#FFF9DB"/>
<path d="M47.1973 130.334C47.4246 130.334 47.6088 130.15 47.6088 129.923C47.6088 129.696 47.4246 129.511 47.1973 129.511C46.9699 129.511 46.7856 129.696 46.7856 129.923C46.7856 130.15 46.9699 130.334 47.1973 130.334Z" fill="#FFF9DB"/>
<path d="M48.5349 131.389C48.7622 131.389 48.9465 131.205 48.9465 130.977C48.9465 130.75 48.7622 130.566 48.5349 130.566C48.3076 130.566 48.1233 130.75 48.1233 130.977C48.1233 131.205 48.3076 131.389 48.5349 131.389Z" fill="#FFF9DB"/>
<path d="M49.4871 132.855C49.7144 132.855 49.8987 132.67 49.8987 132.443C49.8987 132.216 49.7144 132.031 49.4871 132.031C49.2597 132.031 49.0754 132.216 49.0754 132.443C49.0754 132.67 49.2597 132.855 49.4871 132.855Z" fill="#FFF9DB"/>
<path d="M50.0788 134.296C50.3062 134.296 50.4905 134.111 50.4905 133.884C50.4905 133.657 50.3062 133.472 50.0788 133.472C49.8515 133.472 49.6672 133.657 49.6672 133.884C49.6672 134.111 49.8515 134.296 50.0788 134.296Z" fill="#FFF9DB"/>
<path d="M50.5154 136.044C50.7427 136.044 50.927 135.86 50.927 135.632C50.927 135.405 50.7427 135.221 50.5154 135.221C50.288 135.221 50.1038 135.405 50.1038 135.632C50.1038 135.86 50.288 136.044 50.5154 136.044Z" fill="#FFF9DB"/>
<path d="M50.5925 137.973C50.8198 137.973 51.0041 137.789 51.0041 137.562C51.0041 137.334 50.8198 137.15 50.5925 137.15C50.3652 137.15 50.1809 137.334 50.1809 137.562C50.1809 137.789 50.3652 137.973 50.5925 137.973Z" fill="#FFF9DB"/>
<path d="M30.789 125.113C30.3774 124.959 29.8629 125.011 29.4513 125.294C28.8339 125.705 28.9111 126.528 29.0397 126.786C28.9368 126.631 28.5252 126.374 28.1393 126.374C26.8016 126.451 26.6472 127.609 26.6472 127.763C26.1327 123.673 26.2614 120.534 26.2614 120.534C26.2614 120.534 27.6505 123.75 30.789 125.113Z" fill="#FFF9DB"/>
<g style="mix-blend-mode:multiply" opacity="0.31">
<path d="M75.5681 129.332C75.5681 129.332 76.4683 131.698 74.282 134.604C72.0957 137.511 69.4979 138.411 62.9132 138.102C60.2125 137.974 58.7979 139.054 58.7979 139.054L60.4697 137.151H66.2827L73.2275 134.939L75.6195 129.357L75.5681 129.332Z" fill="#FFEF9E"/>
</g>
<path d="M75.5678 129.332C71.5811 130.361 71.3238 127.763 65.2794 128.38C62.2186 128.689 60.5724 130.618 59.6979 132.753C58.489 135.711 58.7719 139.054 58.7719 139.054C61.3698 136.405 67.3371 139.749 72.1726 136.405C72.2755 136.328 72.3784 136.276 72.4813 136.199C76.468 133.216 75.5678 129.357 75.5678 129.357V129.332ZM68.8546 136.199C68.8546 136.199 68.6746 136.251 68.5717 136.251C64.0962 137.125 63.2474 135.479 60.2123 136.637C60.2123 136.637 60.2638 135.222 60.8553 133.653C61.4726 132.058 62.6301 130.335 64.9192 129.82C69.4204 128.766 72.0183 131.492 74.256 130.746C74.256 130.746 73.8188 135.068 68.8546 136.174V136.199Z" fill="#FFD91F"/>
<path d="M74.8989 130.643C75.1262 130.643 75.3105 130.459 75.3105 130.232C75.3105 130.004 75.1262 129.82 74.8989 129.82C74.6716 129.82 74.4873 130.004 74.4873 130.232C74.4873 130.459 74.6716 130.643 74.8989 130.643Z" fill="#FFF9DB"/>
<path d="M73.1759 130.643C73.4033 130.643 73.5875 130.459 73.5875 130.232C73.5875 130.004 73.4033 129.82 73.1759 129.82C72.9486 129.82 72.7644 130.004 72.7644 130.232C72.7644 130.459 72.9486 130.643 73.1759 130.643Z" fill="#FFF9DB"/>
<path d="M71.5041 130.231C71.7315 130.231 71.9158 130.047 71.9158 129.82C71.9158 129.592 71.7315 129.408 71.5041 129.408C71.2768 129.408 71.0925 129.592 71.0925 129.82C71.0925 130.047 71.2768 130.231 71.5041 130.231Z" fill="#FFF9DB"/>
<path d="M69.7551 129.691C69.9824 129.691 70.1667 129.507 70.1667 129.28C70.1667 129.052 69.9824 128.868 69.7551 128.868C69.5278 128.868 69.3435 129.052 69.3435 129.28C69.3435 129.507 69.5278 129.691 69.7551 129.691Z" fill="#FFF9DB"/>
<path d="M68.0058 129.383C68.2332 129.383 68.4175 129.198 68.4175 128.971C68.4175 128.744 68.2332 128.56 68.0058 128.56C67.7785 128.56 67.5942 128.744 67.5942 128.971C67.5942 129.198 67.7785 129.383 68.0058 129.383Z" fill="#FFF9DB"/>
<path d="M66.2317 129.383C66.459 129.383 66.6433 129.198 66.6433 128.971C66.6433 128.744 66.459 128.56 66.2317 128.56C66.0044 128.56 65.8201 128.744 65.8201 128.971C65.8201 129.198 66.0044 129.383 66.2317 129.383Z" fill="#FFF9DB"/>
<path d="M64.5605 129.692C64.7879 129.692 64.9721 129.508 64.9721 129.28C64.9721 129.053 64.7879 128.869 64.5605 128.869C64.3332 128.869 64.1489 129.053 64.1489 129.28C64.1489 129.508 64.3332 129.692 64.5605 129.692Z" fill="#FFF9DB"/>
<path d="M62.9131 130.334C63.1404 130.334 63.3247 130.15 63.3247 129.923C63.3247 129.696 63.1404 129.511 62.9131 129.511C62.6858 129.511 62.5015 129.696 62.5015 129.923C62.5015 130.15 62.6858 130.334 62.9131 130.334Z" fill="#FFF9DB"/>
<path d="M61.5767 131.39C61.804 131.39 61.9883 131.205 61.9883 130.978C61.9883 130.751 61.804 130.566 61.5767 130.566C61.3493 130.566 61.165 130.751 61.165 130.978C61.165 131.205 61.3493 131.39 61.5767 131.39Z" fill="#FFF9DB"/>
<path d="M60.6245 132.855C60.8518 132.855 61.036 132.67 61.036 132.443C61.036 132.216 60.8518 132.031 60.6245 132.031C60.3972 132.031 60.2129 132.216 60.2129 132.443C60.2129 132.67 60.3972 132.855 60.6245 132.855Z" fill="#FFF9DB"/>
<path d="M60.0322 134.296C60.2595 134.296 60.4438 134.111 60.4438 133.884C60.4438 133.657 60.2595 133.472 60.0322 133.472C59.8049 133.472 59.6206 133.657 59.6206 133.884C59.6206 134.111 59.8049 134.296 60.0322 134.296Z" fill="#FFF9DB"/>
<path d="M59.595 136.044C59.8223 136.044 60.0066 135.86 60.0066 135.632C60.0066 135.405 59.8223 135.221 59.595 135.221C59.3676 135.221 59.1833 135.405 59.1833 135.632C59.1833 135.86 59.3676 136.044 59.595 136.044Z" fill="#FFF9DB"/>
<path d="M59.5178 137.973C59.7451 137.973 59.9294 137.789 59.9294 137.562C59.9294 137.334 59.7451 137.15 59.5178 137.15C59.2905 137.15 59.1062 137.334 59.1062 137.562C59.1062 137.789 59.2905 137.973 59.5178 137.973Z" fill="#FFF9DB"/>
<path d="M79.3232 125.113C79.7348 124.959 80.2493 125.011 80.6609 125.294C81.2783 125.705 81.2012 126.528 81.0725 126.786C81.1754 126.631 81.587 126.374 81.9729 126.374C83.3106 126.451 83.4649 127.609 83.4649 127.763C83.9794 123.673 83.8509 120.534 83.8509 120.534C83.8509 120.534 82.4617 123.75 79.3232 125.113Z" fill="#FFF9DB"/>
<g style="mix-blend-mode:multiply" opacity="0.31">
<path d="M54.7603 141.986C53.8858 142.037 51.2622 142.32 48.51 144.378C45.1663 146.873 33.7718 146.333 29.8108 138.848C29.4764 138.205 29.1677 137.536 28.8848 136.867C28.679 136.327 28.4733 135.787 28.2932 135.247C27.4444 132.752 26.9557 130.128 26.6728 127.813C26.1584 123.724 26.287 120.56 26.287 120.56C26.287 120.56 27.6759 134.141 33.1031 138.668C42.4141 146.384 49.8476 140.185 52.6512 140.983C53.5257 141.214 54.2201 141.6 54.786 142.011L54.7603 141.986Z" fill="#FFEF9E"/>
</g>
<g style="mix-blend-mode:soft-light">
<path d="M83.7729 120.766C83.85 123.647 81.175 128.637 79.7089 132.444C78.8858 134.578 75.9536 135.839 72.4555 136.173C71.2981 136.276 70.0635 136.302 68.8546 136.199C73.8188 135.093 74.256 130.772 74.256 130.772C72.0183 131.518 69.4204 128.791 64.9192 129.846C62.6301 130.36 61.4726 132.109 60.8553 133.678C60.701 133.575 60.5466 133.472 60.3923 133.344C60.1351 133.138 59.9037 132.932 59.7236 132.726C57.1772 130 59.9037 126.656 62.2186 124.547C65.7938 123.415 69.2404 123.801 73.6644 125.242C75.825 125.936 77.5997 125.807 79.0401 125.242C79.0401 125.242 79.0402 125.242 79.0916 125.242C79.1431 125.242 79.1688 125.216 79.2202 125.19C79.2716 125.19 79.2974 125.164 79.3488 125.139C81.9981 123.981 83.4128 121.512 83.7729 120.766Z" fill="#FFF7CF"/>
</g>
<g style="mix-blend-mode:soft-light" opacity="0.38">
<path d="M80.3015 82.0287L79.427 84.3179L78.0638 87.9446L77.6008 89.1792L51.1595 159.707L50.6965 160.915L49.3333 164.542L48.4588 166.857C47.4556 166.703 46.4525 166.548 45.4751 166.343C34.8523 164.131 25.5926 158.266 19.008 150.138C18.4679 149.47 17.9278 148.775 17.4133 148.055L18.4165 145.303L20.0626 140.827L20.6285 139.258L40.691 84.7037L41.2569 83.1347L42.903 78.6592L43.9062 75.9071C45.6295 75.4698 47.4299 75.1612 49.2304 74.9297C51.1337 74.6982 53.0628 74.5696 55.0176 74.5696C63.4027 74.5696 71.2734 76.8073 78.0895 80.6912C78.8354 81.1285 79.5556 81.5657 80.2758 82.0287H80.3015Z" fill="#FFFB8C"/>
</g>
<path d="M86.1401 89.8223C84.0824 87.7646 81.8447 85.9384 79.4269 84.318C72.4565 79.6625 64.0713 76.936 55.0432 76.936C50.8507 76.936 46.7868 77.5276 42.9286 78.6336C41.231 79.1223 39.5591 79.7139 37.9387 80.3827C32.6658 82.5947 27.9332 85.8355 23.9464 89.7966C15.9985 97.7444 11.0601 108.753 11.0601 120.893C11.0601 129.896 13.7608 138.281 18.4163 145.251C20.0368 147.669 21.8887 149.933 23.9464 151.99C30.6339 158.678 39.4819 163.23 49.3331 164.516C51.2108 164.774 53.1141 164.877 55.0432 164.877C67.1836 164.877 78.1922 159.938 86.1401 151.99C94.0879 144.042 99.0264 133.034 99.0264 120.893C99.0264 108.753 94.1136 97.7444 86.1401 89.7966V89.8223ZM94.8081 127.041C94.7566 127.375 94.7052 127.71 94.6538 128.044C94.5252 128.713 94.3965 129.356 94.2422 129.999C94.1651 130.333 94.0879 130.642 94.0107 130.976C93.7792 131.928 93.4963 132.88 93.162 133.831C92.7504 135.066 92.2617 136.3 91.7216 137.484C91.5415 137.869 91.3615 138.281 91.1557 138.667C90.7699 139.438 90.3584 140.21 89.9468 140.956C89.6382 141.522 89.278 142.062 88.9437 142.602C88.5836 143.142 88.2235 143.682 87.8634 144.223C87.5033 144.737 87.1175 145.251 86.7059 145.766C86.3201 146.28 85.9086 146.769 85.497 147.258C84.854 147.978 84.211 148.698 83.5422 149.367C82.8477 150.061 82.1533 150.704 81.4331 151.347C80.3271 152.299 79.1697 153.199 77.9865 154.022C76.5461 155.025 75.0543 155.926 73.4596 156.723C73.2024 156.852 72.9194 156.98 72.6622 157.135C67.3637 159.707 61.4221 161.147 55.1204 161.147C53.6543 161.147 52.1882 161.07 50.7735 160.916C46.0665 160.401 41.6168 159.089 37.5529 157.109C37.0899 156.877 36.6526 156.672 36.2153 156.414C35.7781 156.183 35.3409 155.926 34.9036 155.694C34.4663 155.437 34.0548 155.18 33.6175 154.923C31.92 153.842 30.3252 152.659 28.8076 151.347C28.0874 150.704 27.3673 150.061 26.6986 149.367C26.3642 149.032 26.0298 148.672 25.6954 148.338C25.361 147.978 25.0524 147.618 24.718 147.258C24.3064 146.769 23.8949 146.28 23.5091 145.766C23.1233 145.251 22.7375 144.737 22.3517 144.223C21.9659 143.682 21.6057 143.168 21.2714 142.602C20.937 142.062 20.5769 141.496 20.2683 140.956C20.2425 140.904 20.2168 140.853 20.1911 140.802C19.7796 140.081 19.4195 139.387 19.0594 138.641C18.8536 138.255 18.6736 137.869 18.4935 137.458C17.9534 136.275 17.4647 135.04 17.0531 133.805C15.6899 129.767 14.944 125.42 14.944 120.919C14.944 116.418 15.6899 112.071 17.0531 108.033C17.4647 106.798 17.9534 105.564 18.4935 104.38C18.6736 103.995 18.8536 103.583 19.0594 103.197C19.4452 102.426 19.8567 101.654 20.2683 100.908C20.5769 100.342 20.937 99.8021 21.2714 99.262C21.6315 98.7218 21.9916 98.1817 22.3517 97.6415C22.7118 97.1271 23.0975 96.6127 23.5091 96.0983C23.8949 95.5839 24.3064 95.0952 24.718 94.6065C25.0266 94.2464 25.361 93.8863 25.6954 93.5262C26.0298 93.1661 26.3642 92.8317 26.6986 92.4973C27.393 91.8028 28.0874 91.1598 28.8076 90.5168C30.8653 88.742 33.1288 87.1473 35.5209 85.8098C36.3182 85.3726 37.1413 84.9353 37.9643 84.5495C38.2473 84.4209 38.5303 84.2923 38.8132 84.1637C39.3791 83.9065 39.9449 83.675 40.5108 83.4435C40.7937 83.3406 41.0767 83.212 41.3853 83.1091C41.7454 82.9805 42.1055 82.8519 42.4655 82.7233C46.4523 81.3858 50.7221 80.6913 55.1461 80.6913C63.7113 80.6913 71.6333 83.3663 78.1665 87.919C79.0153 88.5105 79.8641 89.1536 80.6615 89.8223C80.9187 90.0538 81.2016 90.2596 81.4588 90.4911C82.179 91.1341 82.8992 91.7771 83.568 92.4716C84.2624 93.1661 84.9055 93.8605 85.5228 94.5807C85.9343 95.0694 86.3459 95.5581 86.7317 96.0726C87.1175 96.587 87.5033 97.1014 87.8891 97.6158C88.2749 98.156 88.635 98.6704 88.9694 99.2363C89.3038 99.7764 89.6638 100.342 89.9725 100.882C90.4098 101.628 90.7956 102.4 91.1814 103.172C91.3872 103.557 91.5672 103.943 91.7473 104.355C92.2874 105.538 92.7761 106.773 93.1876 108.007C93.4963 108.933 93.7793 109.885 94.0365 110.862C94.1136 111.197 94.1908 111.505 94.268 111.84C94.4223 112.483 94.5509 113.151 94.6795 113.794C94.731 114.129 94.7824 114.463 94.8338 114.798C94.9367 115.466 95.0139 116.135 95.0911 116.804C95.2197 118.167 95.2968 119.53 95.2968 120.919C95.2968 122.308 95.2197 123.671 95.0911 125.035C95.0139 125.703 94.9367 126.372 94.8338 127.041H94.8081Z" fill="#FAE543"/>
<g style="mix-blend-mode:multiply">
<path d="M95.0658 116.804C94.9887 116.135 94.9115 115.466 94.8086 114.797C94.7571 114.463 94.7057 114.129 94.6543 113.794C94.5257 113.126 94.397 112.482 94.2427 111.839C94.1656 111.505 94.0884 111.196 94.0112 110.862C93.754 109.91 93.4711 108.959 93.1625 108.007C92.7252 106.772 92.2622 105.538 91.7221 104.355C91.5421 103.969 91.362 103.557 91.1562 103.171C90.7704 102.4 90.3589 101.628 89.9473 100.882C89.6387 100.316 89.2785 99.7762 88.9442 99.2361C88.5841 98.696 88.224 98.1558 87.8639 97.6157C87.5038 97.1012 87.118 96.5868 86.7064 96.0724C86.3206 95.558 85.9091 95.0693 85.4975 94.5806C84.8545 93.8604 84.2115 93.1402 83.517 92.4714C82.8226 91.777 82.1281 91.1339 81.4079 90.4909C81.1507 90.2594 80.8935 90.0279 80.6105 89.8222C79.8132 89.1534 78.9644 88.5361 78.1156 87.9188C71.6081 83.3662 63.6603 80.6912 55.0951 80.6912C50.6711 80.6912 46.4014 81.4113 42.4146 82.7231C42.0545 82.8517 41.6945 82.9546 41.3344 83.0832C41.0515 83.1861 40.7685 83.3147 40.4598 83.4176C39.8939 83.6491 39.3024 83.8806 38.7623 84.1378C38.4793 84.2664 38.1964 84.395 37.9134 84.5236C37.0904 84.9094 36.2673 85.3467 35.47 85.7839C33.0779 87.1214 30.8401 88.7162 28.7567 90.4909C28.0365 91.1339 27.3163 91.777 26.6476 92.4714C26.3132 92.8058 25.9789 93.1659 25.6445 93.5003C25.3101 93.8604 25.0014 94.2205 24.6671 94.5806C24.2555 95.0693 23.844 95.558 23.4582 96.0724C23.0724 96.5868 22.6865 97.1012 22.3007 97.6157C21.9149 98.1558 21.5548 98.6702 21.2204 99.2361C20.8861 99.7762 20.5259 100.342 20.2173 100.882C19.78 101.628 19.3942 102.4 19.0084 103.171C18.8026 103.557 18.6226 103.943 18.4425 104.355C17.9024 105.538 17.4394 106.772 17.0021 108.007C15.6389 112.045 14.8931 116.392 14.8931 120.893C14.8931 125.394 15.6389 129.741 17.0021 133.78C17.4394 135.014 17.9024 136.249 18.4425 137.432C18.6226 137.818 18.8026 138.229 19.0084 138.615C19.3685 139.335 19.7543 140.056 20.1401 140.75C20.1401 140.75 20.1916 140.853 20.2173 140.904C20.5259 141.47 20.8861 142.01 21.2204 142.551C21.5805 143.091 21.9406 143.631 22.3007 144.171C22.6608 144.685 23.0466 145.2 23.4582 145.714C23.844 146.229 24.2555 146.717 24.6671 147.206C24.9757 147.566 25.3101 147.926 25.6445 148.286C25.9789 148.646 26.3132 148.981 26.6476 149.315C27.342 150.01 28.0365 150.653 28.7567 151.296C30.2743 152.607 31.869 153.791 33.5666 154.871C34.0038 155.128 34.4154 155.411 34.8526 155.643C35.2899 155.9 35.7272 156.131 36.1644 156.363C36.6017 156.594 37.0646 156.826 37.5019 157.057C41.5658 159.038 46.0413 160.35 50.7226 160.864C52.163 161.018 53.6034 161.095 55.0695 161.095C61.3454 161.095 67.3127 159.655 72.6112 157.083C72.8684 156.954 73.1514 156.826 73.4087 156.671C74.9776 155.874 76.4951 154.974 77.9355 153.971C79.1444 153.148 80.3019 152.247 81.3822 151.296C82.1023 150.653 82.8226 150.01 83.4913 149.315C84.1858 148.621 84.8288 147.926 85.4718 147.206C85.8833 146.717 86.2949 146.229 86.6807 145.714C87.0665 145.2 87.4524 144.685 87.8382 144.171C88.224 143.631 88.5841 143.116 88.9185 142.551C89.2529 142.01 89.6129 141.444 89.9216 140.904C90.3588 140.158 90.7447 139.387 91.1305 138.615C91.3363 138.229 91.5163 137.844 91.6964 137.432C92.2365 136.249 92.6995 135.014 93.1367 133.78C93.4454 132.854 93.7284 131.902 93.9856 130.925C94.0627 130.59 94.1399 130.282 94.2171 129.947C94.3714 129.304 94.5 128.635 94.6286 127.992C94.68 127.658 94.7315 127.324 94.7829 126.989C94.8858 126.32 94.9629 125.652 95.0401 124.983C95.1687 123.62 95.2459 122.257 95.2459 120.868C95.2459 119.479 95.1687 118.115 95.0401 116.752L95.0658 116.804ZM82.6168 148.466C75.5692 155.514 65.8209 159.887 55.0695 159.887C53.7577 159.887 52.4459 159.835 51.1856 159.681C41.9774 158.755 33.7209 154.639 27.5221 148.466C24.8214 145.766 22.5065 142.653 20.6803 139.232C17.7738 133.78 16.1019 127.529 16.1019 120.919C16.1019 110.168 20.4488 100.419 27.5221 93.3717C31.2516 89.6421 35.7272 86.6585 40.7428 84.6779C45.1925 82.9032 50.0281 81.9515 55.0951 81.9515C63.506 81.9515 71.2738 84.6008 77.6526 89.1534C79.4274 90.4137 81.0993 91.8284 82.6425 93.3717C89.6901 100.419 94.0627 110.168 94.0627 120.919C94.0627 131.67 89.7159 141.419 82.6425 148.466H82.6168Z" fill="#F6F39E"/>
</g>
<g style="mix-blend-mode:multiply">
<path d="M91.5677 92.3431L66.4638 165.906C62.8114 166.832 59.0047 167.32 55.0694 167.32C54.2463 167.32 53.4232 167.32 52.6001 167.269L82.411 83.5208C85.8576 86.0414 88.9441 89.0251 91.5677 92.3688V92.3431Z" fill="#F6F39E"/>
</g>
<g style="mix-blend-mode:multiply">
<path d="M45.8607 75.4702L19.9852 151.27C19.6509 150.885 19.3422 150.499 19.0078 150.113C18.4677 149.444 17.9275 148.75 17.4131 148.03C15.0468 144.763 13.092 141.162 11.6516 137.304L31.7656 80.7945C35.5208 78.6082 39.6105 76.9363 43.9316 75.8818C44.5746 75.7274 45.192 75.5988 45.835 75.4702H45.8607Z" fill="#F6F39E"/>
</g>
<path d="M108.98 0.106934H88.7119L44.8574 73.3607H65.0999L108.98 0.106934Z" fill="#37A4ED"/>
</svg>
