<svg width="109" height="168" viewBox="0 0 109 168" fill="none" xmlns="http://www.w3.org/2000/svg">
<path d="M0.977295 0.106934H21.2456L65.1258 73.372H44.8576L0.977295 0.106934Z" fill="#004DE8"/>
<path d="M64.6887 79.596V78.6443H45.4236C44.6777 78.6443 44.0089 78.3357 43.5202 77.847C43.0315 77.3583 42.7229 76.6895 42.7229 75.9436C42.7229 75.1977 43.0315 74.5289 43.5202 74.0402C44.0089 73.5515 44.6777 73.2429 45.4236 73.2429H64.6887C65.4346 73.2429 66.1034 73.5515 66.5921 74.0402C67.0808 74.5289 67.3895 75.1977 67.3895 75.9436C67.3895 76.6895 67.0808 77.3583 66.5921 77.847C66.1034 78.3357 65.4346 78.6443 64.6887 78.6443V80.522C67.2094 80.522 69.2671 78.4643 69.2671 75.9436C69.2671 73.4229 67.2094 71.3652 64.6887 71.3652H45.4236C42.9029 71.3652 40.8452 73.4229 40.8452 75.9436C40.8452 78.4643 42.9029 80.522 45.4236 80.522H64.6887V79.5703V79.596Z" fill="#E0C64C"/>
<path d="M101.445 120.938C101.445 146.56 80.6876 167.32 55.0694 167.32C52.8316 167.32 50.6454 167.166 48.5105 166.857C47.5074 166.702 46.5042 166.548 45.5268 166.342C34.904 164.13 25.6444 158.265 19.0598 150.136C18.5196 149.467 17.9795 148.772 17.4651 148.052C12.3466 140.952 9.15713 132.334 8.77131 122.996C8.77131 122.661 8.77133 122.327 8.74561 121.992C8.74561 121.632 8.74561 121.272 8.74561 120.938C8.74561 120.552 8.74561 120.14 8.74561 119.754C9.28575 98.5052 24.1269 80.7806 44.0093 75.8929C45.7326 75.4556 47.5331 75.1469 49.3336 74.9153C51.2369 74.6838 53.166 74.5552 55.1208 74.5552C63.5059 74.5552 71.3766 76.7933 78.1927 80.6777C78.9386 81.1151 79.6588 81.5524 80.379 82.0155C93.111 90.2732 101.522 104.628 101.522 120.912L101.445 120.938Z" fill="#E0C64C"/>
<path d="M58.8496 141.416C58.9525 141.57 59.3898 141.544 59.3898 141.544C59.3898 141.544 59.3384 141.75 59.5956 141.879C59.6213 141.879 59.6728 141.904 59.6985 141.93C59.9043 142.007 60.2645 142.033 60.6504 141.93C60.6504 141.93 60.676 141.93 60.7018 141.93C60.7018 141.93 60.779 141.982 60.9333 142.033C61.3707 142.162 62.0395 142.265 62.7855 142.033C62.837 142.033 62.8884 142.007 62.9399 141.982C64.0461 141.596 65.2808 140.927 65.7696 139.203C65.7696 139.152 65.7954 139.1 65.8211 139.075C65.8211 139.049 65.8211 139.023 65.8211 138.998C65.924 138.586 65.9754 138.149 65.9754 137.634C65.9754 137.634 65.4095 138.149 65.5124 138.586C65.5124 138.586 64.7663 137.583 64.9721 137.068C64.9721 137.068 64.4834 137.66 64.4834 137.969C64.4834 137.969 64.4062 137.12 64.1747 136.811C64.1747 136.811 64.1747 137.583 64.0203 137.737C64.0203 137.737 63.866 137.12 63.5573 136.837C63.2486 136.554 62.9399 136.528 62.9399 136.528C62.9399 136.528 63.4801 137.531 63.3257 137.763C63.3257 137.763 63.0428 137.12 62.3482 136.168C62.2453 136.039 62.554 137.248 62.3996 137.171C61.4993 136.734 61.2163 135.293 61.0619 134.624C61.0619 134.624 61.2677 137.48 62.3996 137.84C63.5315 138.2 61.1648 140.258 59.8271 140.644C59.3898 140.773 59.3126 140.875 59.1583 140.978C59.1326 140.978 59.1068 141.03 59.0554 141.056C59.0554 141.056 59.0554 141.056 59.0297 141.081C59.0297 141.081 59.0297 141.081 59.0039 141.107C58.901 141.21 58.8496 141.339 58.8239 141.467L58.8496 141.416Z" fill="#D4CA81"/>
<path d="M58.8495 141.364C58.8495 141.364 58.8495 141.389 58.8495 141.415C58.9524 141.569 59.3898 141.544 59.3898 141.544C59.3898 141.544 59.3383 141.749 59.5956 141.878C59.6213 141.878 59.6727 141.904 59.6985 141.93C59.9043 142.007 60.2644 142.032 60.6503 141.93C60.6503 141.93 60.676 141.93 60.7017 141.93C60.7017 141.93 60.7789 141.981 60.9333 142.032C61.2677 142.161 61.9108 142.315 62.7855 142.032C62.8369 142.032 62.8884 142.007 62.9398 141.981C64.046 141.595 65.2808 140.926 65.7696 139.203C65.4094 140.309 64.046 141.312 63.1971 141.724C62.2967 142.161 61.3963 142.238 61.3706 141.878C61.3449 141.621 61.5764 141.466 61.8851 141.286C61.5249 141.492 61.0104 141.801 60.4188 141.827C60.4188 141.827 60.3931 141.827 60.3673 141.827C60.3159 141.827 60.2644 141.827 60.2129 141.827C59.4926 141.749 59.6213 141.261 59.7499 141.158C59.9557 140.978 60.2901 140.823 60.4702 140.72C60.2901 140.798 59.9814 140.926 59.6985 141.081C59.4155 141.235 59.3641 141.415 59.2869 141.441C58.9525 141.441 58.8238 141.312 59.0039 141.081C59.0039 141.081 59.0039 141.081 59.0296 141.055C59.0296 141.055 59.0296 141.055 59.0553 141.029C59.081 141.003 59.1068 140.978 59.1582 140.952C58.8495 141.106 58.7981 141.338 58.7981 141.415L58.8495 141.364Z" fill="#B6A20A"/>
<path d="M46.7351 142.29C46.7351 142.29 47.2238 142.856 49.359 142.445C49.359 142.445 50.388 142.882 52.5232 142.548C52.8834 142.496 54.221 141.261 54.8384 140.258C54.9671 140.052 55.07 139.846 55.1214 139.692C55.3015 139.075 55.6874 138.663 55.6874 138.612C55.6874 138.612 55.7645 138.38 55.8417 138.046C56.0475 137.3 56.279 136.039 55.8417 135.627C55.8417 135.627 55.1986 134.984 54.1953 134.701C53.5779 134.521 52.8319 134.496 51.983 134.83C51.7514 134.933 51.4942 135.062 51.2369 135.216C49.8735 136.116 50.6195 137.145 50.7739 137.505C50.7739 137.505 51.0054 137.737 51.134 138.071C51.1855 138.2 51.2112 138.329 51.2369 138.457C51.2627 138.74 51.1855 139.075 50.8768 139.409C50.0021 140.361 49.3333 140.567 49.3333 140.567C49.3333 140.567 46.8379 140.515 46.6836 141.956C46.6836 141.956 46.6836 142.162 46.6836 142.265L46.7351 142.29Z" fill="#D9D194"/>
<path d="M40.8196 141.132C40.8196 141.132 40.8196 141.313 40.8453 141.415C40.8453 141.415 41.3599 141.878 43.2378 141.287C43.2378 141.287 44.2153 141.57 46.119 141.055C46.4277 140.978 47.5082 139.718 47.9712 138.766C48.0484 138.611 48.0998 138.483 48.1255 138.354C48.1255 138.303 48.1256 138.251 48.1513 138.226C48.2542 137.66 48.5629 137.248 48.5372 137.197C48.5372 137.197 48.8201 135.91 48.6658 135.087C48.6143 134.83 48.5372 134.598 48.3571 134.495C48.3571 134.495 46.865 133.286 45.1157 134.007C44.807 134.135 44.4983 134.315 44.1896 134.573C43.0577 135.524 43.8295 136.373 44.0096 136.682C44.0096 136.682 44.061 136.733 44.1382 136.785C44.2668 136.914 44.4726 137.171 44.5241 137.505C44.5755 137.762 44.5241 138.071 44.2925 138.406C43.598 139.332 43.032 139.615 43.032 139.615C43.032 139.615 40.7682 139.82 40.7939 141.158L40.8196 141.132Z" fill="#D4CA81"/>
<g style="mix-blend-mode:multiply">
<path d="M44.0347 136.682C44.0347 136.682 44.0861 136.734 44.1633 136.785C44.5492 137.042 44.935 137.222 45.1151 137.351C45.3981 137.557 45.5782 137.351 45.8354 137.994C46.0669 138.509 47.4304 138.174 48.125 138.328C48.125 138.277 48.125 138.226 48.1507 138.2C48.2536 137.634 48.5623 137.222 48.5366 137.171C48.5366 137.171 48.8195 135.885 48.6652 135.061L45.1409 133.981C44.8322 134.11 44.5235 134.29 44.2148 134.547C43.0829 135.499 43.8546 136.348 44.0347 136.656V136.682Z" fill="#F1F0E7"/>
</g>
<g style="mix-blend-mode:multiply" opacity="0.38">
<path d="M50.8244 137.48C50.8244 137.48 51.0559 137.711 51.1845 138.046C51.2617 138.046 51.0816 137.66 51.1845 137.66C51.3389 137.66 51.6991 138.097 51.802 138.123C51.982 138.149 51.6991 137.737 51.8791 137.737C52.1621 137.737 52.9596 138.149 53.3712 138.329C53.4484 138.354 52.7795 137.711 53.011 137.325C53.0882 137.171 53.6799 137.454 53.8857 137.428C54.1172 137.403 53.9886 137.068 54.0657 137.042C54.1429 137.017 54.7603 138.38 54.8118 138.354C54.9919 138.226 54.7089 137.325 54.889 137.274C55.1977 137.197 55.6093 138.123 55.8922 138.046C56.098 137.3 56.3296 136.039 55.8922 135.628C55.8922 135.628 55.2491 134.984 54.2458 134.701L52.0335 134.83C51.8019 134.933 51.5447 135.062 51.2875 135.216C49.924 136.116 50.67 137.145 50.8244 137.505V137.48Z" fill="#E4E3D1"/>
</g>
<path d="M40.871 141.415C40.871 141.415 41.3855 141.853 43.2634 141.287C43.2634 141.287 44.241 141.595 46.1446 141.055C46.4533 140.978 47.5337 139.717 47.9968 138.766C47.6624 139.357 46.7877 140.386 46.3504 140.695C45.9645 140.978 45.0899 141.39 43.9837 141.235C43.4949 141.158 43.4178 140.927 43.5721 140.746C43.7522 140.515 44.241 140.335 44.241 140.335C44.241 140.335 43.5721 140.515 43.3148 140.772C42.3887 141.647 41.5398 141.415 41.4112 141.338C41.1025 141.158 41.1025 140.566 42.1829 140.181C42.1315 140.181 41.3855 140.438 41.1797 140.721C40.9739 141.029 41.1025 141.312 41.1025 141.312C41.1025 141.312 40.9224 141.261 40.871 141.132C40.871 141.21 40.871 141.312 40.8967 141.415H40.871Z" fill="#BEAC26"/>
<path d="M30.4023 132.951C30.4023 132.951 30.4023 133.002 30.4023 133.131C30.5309 133.594 31.3025 134.829 36.2924 134.623C36.3696 134.623 36.4467 134.623 36.5239 134.623C42.8513 134.314 45.2177 136.501 45.2177 136.501C45.2177 136.501 45.4234 135.935 45.1147 135.549C45.1147 135.549 46.6323 136.321 46.8124 137.247C46.8124 137.247 47.404 136.655 46.8638 135.703C46.8638 135.703 48.1241 137.118 48.0213 137.659C48.0213 137.659 48.5614 137.118 48.1756 136.475C48.1756 136.475 49.333 137.118 49.5388 138.122C49.5388 138.122 49.9503 137.427 49.7189 136.938C49.7189 136.938 50.3362 137.581 50.5934 138.199C50.5934 138.199 50.902 138.07 50.902 137.787C50.902 137.71 50.902 137.607 50.8248 137.504C50.8763 137.144 51.5965 137.89 51.5965 137.89C51.0821 136.887 51.9566 137.324 51.9566 137.324C52.3681 137.839 53.0626 138.122 53.114 138.122C52.7539 137.71 52.3167 136.655 52.291 136.604C52.7282 137.093 53.7571 137.221 53.7571 137.221C53.4741 137.015 52.8054 135.703 53.4999 135.909C54.1943 136.089 54.5544 137.17 54.5544 137.17C54.7859 136.81 54.7345 136.372 54.7345 136.372C55.4032 136.964 55.7376 138.636 55.7376 138.636C55.9176 138.739 56.8179 139.305 56.7922 139.845C56.7922 139.845 57.2294 139.511 57.0236 139.022C57.178 139.331 57.6924 140.205 58.2325 140.231C58.2325 140.231 57.7181 139.742 57.821 139.176C57.821 139.176 58.5412 140.231 59.6215 140.283C60.6503 140.36 60.8818 140.668 60.9075 140.72C60.9075 140.643 60.7789 140.128 59.9559 139.871C59.9559 139.871 61.5249 139.974 61.8078 140.437C61.8078 140.437 62.0907 140.308 61.5506 139.562C61.602 139.562 62.3736 139.871 62.7595 140.977C62.7595 140.977 63.2224 140.694 62.9652 140C63.0681 140.231 63.5311 141.054 64.8686 141.157C64.8686 141.157 64.6885 141.003 64.6371 140.694C64.6371 140.694 66.1547 140.771 66.4376 141.723C66.4376 141.723 66.952 141.646 66.7462 141.106C66.7462 141.106 69.2669 141.466 71.9419 141.106C73.4337 140.9 74.9513 140.463 76.1087 139.639C76.3145 139.511 76.4946 139.356 76.6746 139.176C77.6006 138.302 78.3465 137.659 78.8866 137.144C80.147 135.986 80.5071 135.523 80.0955 134.366C80.0184 134.16 79.3239 133.62 78.1664 132.797C74.2825 130.095 65.1772 124.59 56.4063 120.217C45.6549 114.866 37.5013 114.455 35.7265 116.59C35.6237 116.718 35.5465 116.821 35.4436 116.95C34.029 118.931 34.6205 120.757 31.8426 123.458C31.4825 123.793 31.1482 124.179 30.7881 124.539C30.3251 125.053 29.8364 125.568 29.3734 126.057C28.7047 126.725 28.0102 127.317 27.2643 127.729C20.8854 131.202 30.4023 133.002 30.4023 133.002V132.951Z" fill="#E0D899"/>
<g style="mix-blend-mode:multiply">
<path d="M69.421 141.235C69.8069 141.235 70.2442 141.235 70.6816 141.183C71.5819 140.72 71.9936 140.103 72.1479 139.794C72.2251 139.665 72.2508 139.588 72.2508 139.588L72.1993 139.537L71.582 138.765L70.9903 138.328L70.6301 138.07L70.2185 137.196L70.0384 136.81C70.0384 136.81 70.0127 137.813 70.1928 138.173C70.3729 138.533 70.9388 139.048 70.8102 139.357C70.6816 139.614 69.7555 140.797 69.4468 141.209L69.421 141.235Z" fill="#F1F0E7"/>
</g>
<g style="mix-blend-mode:multiply">
<path d="M55.7119 138.61C55.892 138.713 56.7924 139.279 56.7667 139.82C56.7667 139.82 57.204 139.485 56.9982 138.996C57.1525 139.305 57.667 140.18 58.2073 140.205C58.2073 140.205 57.6928 139.717 57.7957 139.151C57.7957 139.151 58.516 140.205 59.5964 140.257C60.6254 140.334 60.857 140.643 60.8827 140.694C60.8827 140.617 60.7541 140.103 59.9309 139.845C59.9309 139.845 61.5001 139.948 61.783 140.411C61.783 140.411 62.066 140.283 61.5258 139.537C61.5773 139.537 62.349 139.845 62.7349 140.951C62.7349 140.951 63.198 140.668 62.9407 139.974C63.0436 140.205 63.5066 141.029 64.8443 141.132C64.8443 141.132 64.6643 140.977 64.6128 140.668C64.6128 140.668 66.1306 140.746 66.4136 141.697C66.4136 141.697 66.9281 141.62 66.7223 141.08C66.7223 141.08 67.8799 141.234 69.4234 141.234C69.8093 141.234 70.2466 141.234 70.6839 141.183C71.0955 141.183 71.5071 141.106 71.9187 141.054L72.1503 139.768L72.2017 139.511L72.3046 139.022L70.9926 138.302L70.5296 138.045L70.2209 137.17L69.8607 136.141C69.8607 136.141 69.9122 138.405 69.7321 138.919C69.552 139.434 69.1662 139.254 68.3687 139.434C67.5969 139.614 68.6774 140.566 68.1886 140.643C67.6998 140.694 66.9281 140 65.5389 140.205C64.1498 140.411 63.4809 139.897 62.5548 139.151C61.6287 138.405 60.6769 138.919 60.6769 139.228C60.6769 139.537 60.008 139.562 58.8761 139.125C57.7442 138.688 56.8181 138.147 56.7409 138.559C56.6638 138.919 55.892 138.636 55.7377 138.559L55.7119 138.61Z" fill="#F1F0E7"/>
</g>
<path d="M67.6463 143.035C67.6463 143.035 68.2894 143.215 69.1384 142.933C69.1384 142.933 70.2703 143.601 71.6595 143.087C72.7656 142.701 74.0004 142.032 74.4892 140.309C74.4892 140.257 74.5149 140.206 74.5407 140.18C74.5407 140.154 74.5407 140.128 74.5407 140.103C74.6436 139.691 74.695 139.254 74.695 138.739C74.695 138.739 74.1291 139.254 74.232 139.691C74.232 139.691 73.4859 138.688 73.6917 138.173C73.6917 138.173 73.2029 138.765 73.2029 139.074C73.2029 139.074 73.1258 138.225 72.8943 137.916C72.8943 137.916 72.8943 138.688 72.7399 138.842C72.7399 138.842 72.5855 138.225 72.2768 137.942C71.9681 137.659 71.6595 137.633 71.6595 137.633C71.6595 137.633 72.1997 138.636 72.0453 138.868C72.0453 138.868 71.7623 138.225 71.0678 137.273C70.9649 137.144 71.2736 138.353 71.1192 138.276C70.2188 137.839 69.9358 136.398 69.7815 135.729C69.7815 135.729 69.9873 138.585 71.1192 138.945C72.2511 139.305 69.8844 141.363 68.5467 141.749C68.238 141.826 68.0322 141.955 67.8779 142.084C67.3891 142.521 67.5949 143.087 67.5949 143.087L67.6463 143.035Z" fill="#D9D194"/>
<path d="M67.6464 143.035C67.6464 143.035 68.2895 143.216 69.1384 142.933C69.1384 142.933 70.2703 143.601 71.6595 143.087C72.7657 142.701 74.0005 142.032 74.4892 140.309C74.1291 141.415 72.7657 142.418 71.9167 142.83C71.0164 143.267 69.3957 143.035 69.3442 142.675C69.3185 142.392 69.9873 141.955 70.3475 141.749C69.9616 141.955 69.0355 142.418 68.3409 142.47C67.8522 142.495 67.8264 142.238 67.9036 142.006C67.4148 142.444 67.6206 143.01 67.6206 143.01L67.6464 143.035Z" fill="#BEAC26"/>
<path d="M46.7351 142.289C46.7351 142.289 47.2239 142.855 49.3591 142.444C49.3591 142.444 50.3881 142.881 52.5232 142.547C52.8834 142.495 54.2211 141.26 54.8385 140.257C54.4012 140.849 53.3207 141.878 52.8062 142.186C52.3689 142.444 51.3399 142.778 50.1308 142.469C49.5906 142.341 49.5391 142.058 49.7192 141.878C49.9507 141.646 50.4909 141.518 50.4909 141.518C50.4909 141.518 49.7449 141.646 49.4362 141.878C48.3043 142.727 47.4039 142.367 47.2753 142.238C46.9666 142.006 47.0438 141.363 48.2529 141.055C48.2014 141.055 47.3525 141.235 47.0953 141.543C46.838 141.852 46.9409 142.186 46.9409 142.186C46.9409 142.186 46.7608 142.109 46.7094 141.955C46.7094 142.058 46.7094 142.161 46.7094 142.264L46.7351 142.289Z" fill="#C6B640"/>
<path d="M81.1756 109.619C81.1756 109.619 81.2013 109.567 81.0726 109.722C81.1241 109.696 81.1498 109.67 81.1756 109.619Z" fill="#B6A20A"/>
<path d="M31.0453 114.223L35.5979 116.513L35.7265 116.564C35.7265 116.564 36.2666 116.899 36.3181 117.362C36.3181 117.362 36.6782 116.461 36.5496 116.05C36.5496 116.05 37.2441 116.667 37.1412 117.748C37.1412 117.748 38.2472 116.719 38.2472 116.101C38.2472 116.101 38.7616 117.336 38.633 117.825C38.633 117.825 39.1474 116.924 39.1988 116.358C39.1988 116.358 39.559 117.233 39.096 117.953C39.096 117.953 40.5106 116.873 40.6135 116.307C40.6135 116.307 40.7421 117.13 40.3049 117.696C40.3049 117.696 41.0251 117.568 41.4623 116.796C41.4623 116.796 41.4109 117.851 40.9994 118.185C40.9994 118.185 42.2082 118.005 42.6455 117.13C42.6455 117.13 42.6969 117.979 41.771 118.622C41.771 118.622 43.1857 118.494 43.6486 117.773C43.6486 117.773 43.6486 118.777 42.7998 119.06C42.7998 119.06 43.8544 119.265 44.2917 118.339L43.8544 119.78L46.9409 124.256L49.1015 123.947C49.1015 123.947 48.4327 124.796 48.4842 124.771C48.5613 124.771 49.9246 124.102 50.0532 124.025C49.9503 124.102 48.8957 124.873 49.3587 124.745C49.8474 124.616 51.365 124.359 51.365 124.359L50.3876 125.028L52.3938 124.745C52.3938 124.745 51.7508 125.645 51.9308 125.645C52.1109 125.645 53.6284 125.671 53.6284 125.671L52.5224 126.211H54.3229C54.3229 126.211 57.2808 125.722 55.9176 126.16C54.5544 126.597 53.2169 126.957 54.8116 126.803C56.4063 126.649 57.4352 126.7 57.4352 126.7L55.6861 127.189L58.5154 126.751L57.2808 127.369H59.8015C59.8015 127.369 57.5895 128.115 58.4897 127.935C59.3899 127.755 61.9106 127.755 61.9106 127.755C61.9106 127.755 61.6534 128.269 62.3222 128.218C62.9909 128.192 63.7625 127.755 62.9909 128.192C62.2193 128.604 61.2933 128.861 62.7594 128.887C64.2255 128.912 63.8912 128.964 64.5085 129.015C65.1258 129.067 67.8265 129.401 67.8265 129.401L66.0775 129.684L68.4952 130.07C68.4952 130.07 70.5272 130.404 69.807 130.482C69.1126 130.559 69.2926 130.996 70.3986 131.047C71.5046 131.099 74.051 131.253 72.7392 131.459C71.4275 131.665 71.1959 131.716 72.2762 131.896C73.3565 132.076 75.5943 131.922 74.4625 132.385C73.3308 132.848 73.3822 133.208 74.2825 133.234C75.1827 133.26 78.0378 133.234 77.4976 133.646C76.9832 134.057 76.1087 134.366 76.9832 134.7C77.2661 134.803 77.5491 134.881 77.8063 134.983C78.3722 135.189 78.758 135.421 78.475 135.781C78.0378 136.321 79.7611 136.012 78.8351 137.093C78.8351 137.093 80.4299 138.122 81.1758 138.122C81.1758 138.122 80.5584 136.63 79.9926 136.578L82.256 136.836L80.8157 135.524L83.1306 135.215L81.2529 133.954H84.3137L82.2303 133.028L84.3137 132.72C84.3137 132.72 82.1017 132.076 82.2303 132.025C82.3589 131.974 85.2654 131.691 85.2654 131.691L81.896 130.919L84.8025 130.61L82.3075 129.658H85.9856L83.1306 128.449L85.8313 128.063L82.3847 127.626C82.3847 127.626 85.0082 127.446 84.9568 127.343C84.9053 127.24 81.9988 126.366 81.9988 126.366C81.9988 126.366 86.1142 126.34 85.4455 126.083C84.7767 125.825 81.8188 125.156 81.8188 125.156C81.8188 125.156 86.1399 125.182 85.5998 124.951C85.0854 124.719 81.3558 123.767 82.076 123.767C82.7962 123.767 85.1111 123.536 85.1111 123.536L82.4875 122.97L85.5484 121.864H82.3847C82.3847 121.864 84.9825 120.372 84.8796 120.372H81.5102L81.9988 120.166L84.8539 118.982C84.8539 118.982 82.1017 118.854 82.1017 118.751C82.1017 118.648 84.5452 117.31 84.5452 117.31H82.4875L84.3909 115.921L80.4298 116.256L83.3363 113.863L80.5584 114.661L82.5647 112.757L80.4556 113.246L82.076 110.75L81.613 110.905L78.8866 111.779C78.8866 111.779 80.4813 110.184 80.9957 109.67C80.3784 110.159 78.2693 111.111 78.1921 111.136C78.2693 111.033 80.8928 106.506 79.4782 107.869C78.0378 109.258 75.8515 109.747 75.8515 109.747C75.8515 109.747 79.6325 105.348 78.6808 106.248C77.7034 107.149 75.2856 108.281 75.2856 108.281C75.2856 108.281 77.1633 104.499 76.0572 105.914C75.0027 107.278 73.6395 108.332 73.5623 108.384C73.6395 108.229 76.3916 103.367 75.2856 104.911C74.1539 106.48 73.0993 107.303 73.0993 107.303L73.8452 104.705L72.302 106.351L72.5592 104.319L71.4789 105.631L72.0962 103.136L70.733 105.477C70.7587 105.348 71.376 102.981 71.2989 103.136C71.2217 103.29 69.8584 104.756 69.8584 104.756L70.5529 101.875L68.8553 103.444C68.8553 103.444 69.5755 101.258 69.4212 101.489C69.2669 101.721 67.1063 103.779 67.1063 103.779L67.775 101.464L66.1546 103.11C66.1546 103.11 67.2349 100.332 67.1063 100.435C66.9777 100.538 65.1515 102.853 65.0743 102.956C65.1001 102.853 66.4118 99.6114 66.2832 99.7401C66.1546 99.8687 63.6082 102.441 63.6082 102.441L64.457 100.975L61.7563 102.647C61.7563 102.647 63.7368 100.126 63.8654 99.9459C63.7111 100.126 60.7274 102.287 60.6246 102.338C60.676 102.235 62.6051 99.2513 62.4508 99.3542C62.2965 99.4571 59.5443 102.055 59.5443 102.055L60.3931 99.3542L58.5412 101.412L59.1327 99.1227L57.7953 101.644L57.7438 99.0455L55.7118 102.184L56.0205 99.3542L56.1234 98.4023L54.5801 102.287L54.4 99.3542L52.8054 102.493L53.0883 99.3027L51.082 102.57C51.082 102.57 51.2878 98.531 51.2621 98.7625C51.2363 98.994 49.3844 102.287 49.3844 102.287C49.3844 102.287 49.5645 98.7368 49.3844 99.4828C49.2044 100.229 48.407 102.39 48.407 102.39C48.407 102.39 48.407 98.711 48.227 99.6371C48.0727 100.589 47.301 103.239 47.301 103.239L46.3493 99.7658L45.6034 103.11L44.4717 100.255V102.879L43.3914 100.718L43.803 103.29L42.2854 100.718L42.3883 103.213L40.4335 100.872L41.0508 104.371L39.6104 102.184L40.3049 105.219L38.9159 103.573L39.5075 106.223L38.4787 104.962L38.4015 107.046L36.884 104.293L37.2183 107.046L35.7265 105.502L36.7811 108.332L34.7491 106.12L36.0095 108.924L34.1832 106.763L35.5464 109.824L33.6174 108.152L34.8777 111.162L32.6914 109.181L33.8746 112.294L31.8169 110.647L33.5917 113.58L31.3282 111.754L33.9518 115.046L30.9424 114.146L31.0453 114.223Z" fill="#B6A20A"/>
<path d="M30.403 132.951C30.403 132.951 30.403 133.002 30.403 133.131C30.4545 133.311 30.6089 133.646 31.1491 133.954C31.8951 134.366 33.3872 134.752 36.2941 134.623C35.1107 134.597 34.7763 134.392 34.7763 134.392C36.1654 134.212 36.5256 133.671 36.5256 133.671C34.7506 134.16 32.5897 132.9 34.1074 133.26C35.6252 133.62 37.426 131.973 36.3198 132.514C35.2136 133.054 32.6926 131.69 34.4933 131.768C36.2941 131.819 37.8119 130.456 36.5771 130.764C35.3423 131.073 33.9274 130.096 35.4966 129.993C37.0659 129.89 37.2459 129.298 37.2459 129.298C35.8825 129.89 35.3422 129.221 35.3422 129.221C36.7571 129.221 37.2202 128.449 37.2459 128.423C36.3713 128.784 34.5962 128.758 34.5962 128.758C35.2908 128.603 34.7249 128.269 36.5771 127.883C38.4293 127.497 38.2749 125.131 37.2716 124.616C36.2426 124.102 33.6444 124.668 32.2552 126.211C30.8661 127.755 30.1458 126.957 30.1458 126.957C31.4063 126.648 31.3291 125.182 30.8146 125.697C30.5574 125.954 29.9142 126.031 29.3483 126.057C29.091 126.314 28.8595 126.545 28.6023 126.751C28.165 127.137 27.7276 127.472 27.2389 127.729C20.859 131.202 30.3773 133.002 30.3773 133.002L30.403 132.951Z" fill="#DDD48F"/>
<path d="M30.403 132.952C30.403 132.952 30.403 133.003 30.403 133.132C30.4545 133.312 30.6089 133.646 31.1491 133.955C31.1491 133.878 31.2262 133.826 31.4063 133.775C31.9723 133.621 32.7955 133.775 33.1556 133.518C33.5158 133.286 32.9241 133.286 33.5415 132.797C34.1589 132.309 33.3871 132.489 33.3871 132.489C32.1523 132.334 32.9498 131.923 32.9498 131.923C35.0336 131.099 31.5092 131.254 31.5092 131.254C31.5092 131.254 32.1266 130.894 32.8469 130.739C34.5962 130.353 30.969 129.942 30.969 129.942C30.969 129.942 30.2487 130.122 32.1009 128.939C33.9531 127.755 31.9208 128.836 30.7375 128.964C29.5541 129.093 29.3998 128.604 30.6603 128.321C31.9208 128.038 31.7407 127.189 31.0204 127.627C30.3001 128.064 27.8563 127.678 28.5766 127.292C29.2711 126.906 29.657 126.417 29.657 126.417C29.657 126.417 29.0396 126.572 28.6023 126.7C28.165 127.086 27.7276 127.421 27.2389 127.678C20.859 131.151 30.3773 132.952 30.3773 132.952H30.403Z" fill="#DAD085"/>
<path d="M25.5155 131.023C26.0557 131.563 26.7246 131.949 26.8532 131.846C27.059 131.64 27.2905 131.383 27.4963 131.049C28.1394 130.045 28.0365 129.376 27.7021 128.965C27.239 128.399 26.3644 128.27 26.3644 128.27C26.3644 128.27 25.0524 128.399 24.7694 129.428C24.6408 129.917 25.0524 130.534 25.5412 131.023H25.5155Z" fill="#888133"/>
<path d="M27.0335 130.225C27.0335 130.225 26.4418 130.2 26.4161 130.817C26.3903 131.435 26.8534 131.846 26.8534 131.846C26.8534 131.846 26.699 130.92 27.0592 130.663C27.4194 130.406 27.3422 130.328 27.0592 130.225H27.0335Z" fill="#807824"/>
<path d="M25.5155 131.023C25.5155 131.023 24.9238 129.942 26.2615 129.891C27.1104 129.865 27.522 129.325 27.7021 128.965C27.239 128.399 26.3644 128.27 26.3644 128.27C26.3644 128.27 25.0524 128.399 24.7694 129.428C24.6408 129.917 25.0524 130.534 25.5412 131.023H25.5155Z" fill="#8E873C"/>
<path d="M30.4018 133.132C30.942 133.209 32.7685 133.415 33.5403 132.771C33.4116 132.849 32.537 133.337 30.3761 132.952C30.3761 132.952 30.3761 133.003 30.3761 133.132H30.4018Z" fill="#A8A36A"/>
<path d="M35.2895 125.311C35.804 124.565 36.9102 124.231 37.6562 124.771C38.4023 125.311 38.428 126.469 37.9906 127.086C37.7848 127.395 37.3218 127.755 36.5758 127.832C35.9584 127.884 35.4182 127.626 35.2124 127.42C34.7236 126.932 34.8522 125.928 35.2895 125.311Z" fill="#827B28"/>
<path d="M37.5477 127.291C38.0836 126.762 38.057 125.866 37.4882 125.289C36.9194 124.713 36.0239 124.674 35.488 125.203C34.952 125.732 34.9787 126.628 35.5474 127.205C36.1162 127.781 37.0118 127.82 37.5477 127.291Z" fill="#FBFCFA"/>
<path d="M36.5405 127.68C37.2934 127.664 37.8902 127.029 37.8736 126.262C37.857 125.495 37.2332 124.886 36.4804 124.903C35.7276 124.919 35.1308 125.554 35.1474 126.321C35.164 127.088 35.7877 127.697 36.5405 127.68Z" fill="#918B42"/>
<path d="M36.5323 127.321C37.1004 127.309 37.551 126.838 37.5387 126.27C37.5264 125.702 37.0559 125.251 36.4877 125.263C35.9196 125.276 35.469 125.746 35.4812 126.314C35.4935 126.883 35.9641 127.333 36.5323 127.321Z" fill="#827B28"/>
<path d="M37.3736 126.306C37.6131 126.216 37.7587 126.014 37.6988 125.854C37.6389 125.695 37.3963 125.638 37.1568 125.728C36.9174 125.818 36.7718 126.02 36.8317 126.179C36.8916 126.339 37.1342 126.396 37.3736 126.306Z" fill="white"/>
<path d="M43.4429 120.733C43.5458 121.041 43.906 121.119 43.9574 121.119C43.9574 121.119 43.9832 121.17 44.0346 121.222C44.2919 121.607 45.0636 122.919 45.1922 123.562C45.1922 123.665 45.218 123.743 45.1922 123.794C45.1151 124.128 45.3209 124.309 45.4495 124.411C45.5267 124.463 45.6038 124.489 45.6038 124.489C45.6038 124.489 46.4785 124.411 47.4046 124.128C48.8195 123.665 49.7199 122.251 49.4626 120.758C49.334 120.064 48.9738 119.369 48.2792 118.726C45.7067 116.359 43.4172 120.424 43.4172 120.424C43.3915 120.553 43.4172 120.681 43.4172 120.758L43.4429 120.733Z" fill="#E0D899"/>
<path opacity="0.49" d="M43.9575 121.118C43.9575 121.118 43.9832 121.17 44.0346 121.221C44.2919 121.607 45.0636 122.919 45.1923 123.562C45.1923 123.665 45.218 123.742 45.1923 123.794C45.1923 123.794 46.1184 123.871 46.5043 123.845C46.8901 123.819 46.9416 123.716 47.0445 123.562C47.1474 123.382 47.4303 123.408 47.6876 123.331C47.9448 123.253 48.2021 122.816 48.305 122.636C48.4079 122.456 48.6909 122.121 48.7938 121.839C48.9224 121.556 48.7166 121.35 48.871 121.067C49.0253 120.758 48.768 120.629 48.5622 120.321C48.3564 119.986 48.3822 120.012 48.1249 119.523C47.8677 119.034 47.3017 119.215 47.3017 119.215C46.993 119.266 47.0187 118.906 46.5557 118.88C46.0926 118.829 46.3756 118.932 46.0155 118.932C45.6553 118.932 45.7325 119.009 45.501 119.24C45.2695 119.472 45.218 119.446 44.9607 119.703C44.7035 119.961 44.7292 119.858 44.5749 120.192C44.4205 120.527 43.906 121.17 43.906 121.17L43.9575 121.118Z" fill="#C6C29C"/>
<path opacity="0.49" d="M44.0348 121.247C44.292 121.633 45.0638 122.945 45.1924 123.588C45.3725 123.588 45.5783 123.588 45.8098 123.588C46.3501 123.511 46.7102 123.511 46.916 122.919C47.1218 122.328 47.1218 122.43 47.7392 122.147C48.3309 121.864 47.9707 121.453 47.8678 121.144C47.7649 120.835 47.6363 120.758 47.1733 120.192C46.916 119.884 46.6845 119.909 46.35 119.884C46.0928 119.884 45.7584 119.755 45.321 119.935C44.6779 120.218 44.2663 120.861 44.0605 121.273L44.0348 121.247Z" fill="#BAB689"/>
<path d="M45.4752 124.411L45.6296 124.488C45.6296 124.488 46.5042 124.411 47.4304 124.128C48.8452 123.665 49.7456 122.25 49.4883 120.758C49.5398 121.247 49.4883 121.581 49.4112 121.839C49.3083 122.327 48.8452 123.228 48.0735 123.639C47.3017 124.051 46.1183 124.334 45.4752 124.437V124.411Z" fill="#C9BB4D"/>
<path opacity="0.58" d="M43.443 120.733C43.5459 120.501 44.0089 119.755 45.0894 118.829C45.9897 118.057 46.993 118.212 47.4561 118.366C48.022 118.572 48.6394 119.035 49.0768 119.781C49.2311 120.064 49.4626 120.681 49.4883 120.733C49.3597 120.038 48.9996 119.343 48.305 118.7C45.7325 116.334 43.443 120.398 43.443 120.398C43.4172 120.527 43.443 120.655 43.443 120.733Z" fill="#EDE9C4"/>
<path d="M45.5267 120.294C45.5267 120.294 44.7292 120.346 43.9318 121.143L44.2405 121.786C44.2405 121.786 45.0379 123.279 45.1923 123.819C45.1923 123.819 46.247 123.87 46.4528 123.587C46.4528 123.587 45.7582 123.716 45.4495 123.51C45.4495 123.51 45.6296 123.098 46.2213 122.97C46.2213 122.97 45.7068 122.841 45.2952 122.815C44.8836 122.79 45.7582 121.478 46.3499 121.349C46.3499 121.349 46.0412 121.221 44.8064 122.224C44.8064 122.224 44.4463 121.709 45.0122 121.401C45.5782 121.092 45.8097 121.401 45.8097 121.401C45.8097 121.401 45.7325 121.092 45.0894 121.195C44.4463 121.298 44.4205 121.504 44.4205 121.504C44.4205 121.504 44.3948 121.195 44.8579 121.015C45.3209 120.835 45.5524 120.835 45.5524 120.835C45.5524 120.835 45.0379 120.757 44.6778 120.989C44.3948 121.169 44.2919 121.04 44.3691 120.989C44.6006 120.809 45.4495 120.372 45.4495 120.372L45.5267 120.294Z" fill="#E0D899"/>
<path d="M43.829 121.144H43.9576C43.9576 121.144 44.0606 121.067 44.2149 121.092C44.3693 121.118 44.4207 121.015 44.4207 121.272C44.4207 121.53 44.4978 121.787 44.6265 121.941C44.7551 122.096 44.6265 122.019 44.8066 122.379C44.9866 122.739 45.141 122.739 45.1667 122.97C45.1924 123.202 45.1667 123.279 45.1924 123.382C45.2182 123.485 45.3725 123.562 45.3468 123.691C45.321 123.819 45.2439 123.845 45.2439 123.845C45.2439 123.845 44.8837 124.025 44.7036 123.639C44.5236 123.253 43.7518 121.478 43.7518 121.478L43.8548 121.17L43.829 121.144Z" fill="#E0D899"/>
<path d="M40.3823 107.071C40.5623 106.454 43.1344 101.979 43.1344 101.979L42.2857 106.788L47.4299 103.702L45.5265 108.229L50.7479 103.625L48.9474 106.248L53.2943 104.242L50.4135 106.968L55.532 104.345C55.532 104.345 52.2654 107.611 52.8828 107.148C53.5001 106.685 60.9077 103.882 60.9077 103.882L58.9272 106.248L62.1423 104.705L61.0363 106.094L67.4409 104.499L62.9911 106.351L68.3154 105.579L64.8945 107.071L70.5017 106.274L67.3123 107.56C67.3123 107.56 73.5883 106.634 72.1222 107.097C70.656 107.56 68.4955 108.306 68.4955 108.306C68.4955 108.306 75.363 107.457 73.0224 108.049C70.6818 108.64 71.4534 109.901 71.4534 109.901L70.8876 108.666L67.6981 108.615L67.981 108.023L66.0005 108.074L66.695 107.226L63.7885 107.637L64.7659 106.814L61.2678 107.38L62.8111 106.814L60.6248 107.071C60.6248 107.071 62.3996 106.377 62.0138 106.454C61.6279 106.531 59.1073 107.148 59.0301 107.148C58.9529 107.148 60.0589 106.248 60.0589 106.248L57.4354 106.917L59.0816 105.657L56.6638 106.505C56.6638 106.505 58.3356 105.142 57.7955 105.528C57.2554 105.914 54.9147 106.866 54.9147 106.866L55.6349 106.3L52.677 107.483L53.4229 106.145C53.4229 106.145 52.0597 106.994 52.0854 106.917C52.1111 106.84 52.5741 106.274 52.5227 106.325C52.4712 106.377 50.0792 107.354 50.0792 107.354L50.5164 106.197L49.3332 106.814L49.5904 106.3L48.3044 106.968L48.7416 105.862L47.2498 107.637L47.3784 106.994C47.3784 106.994 45.9123 108.615 46.0152 108.486C46.1181 108.357 46.2981 107.894 46.2981 107.894L45.2179 108.846L45.475 107.534C45.475 107.534 44.369 108.152 44.4205 108.126C44.4719 108.1 45.8351 106.068 45.8351 106.068L44.0604 107.329L45.4493 105.399L41.977 107.38L42.2342 105.399L41.6426 106.403L42.0027 104.473L40.3566 107.148L40.3823 107.071Z" fill="#B39E00"/>
<path d="M72.6875 119.111L75.7231 119.343L73.948 119.78L78.6557 121.684L76.4434 122.327L79.9677 123.202L76.572 123.87L80.8938 124.899L77.1379 125.671L80.8938 126.16L77.6525 127.112L80.225 127.318L77.6525 127.832L80.6365 128.887L78.0126 129.453L78.6043 128.938L76.8035 127.704L77.8582 127.472L76.9321 127.138L78.4499 126.494L76.4691 125.594L78.4499 125.054L75.6459 123.999L77.4724 123.253L75.3886 122.533L76.9836 121.71L74.6169 121.298L75.5944 121.169L73.2277 119.986L73.9223 119.549L72.6875 119.111Z" fill="#B39E00"/>
<path d="M51.4932 118.237L54.2201 117.105L53.4225 119.009L57.3585 117.98L56.278 120.089L59.5708 118.417L58.1302 121.17L62.1176 119.06L59.5708 122.482L62.9409 121.324L61.1401 123.382L63.764 122.379L61.7318 124.025L65.2818 123.897L63.3267 125.183L63.9184 124.36L61.5002 124.205L61.6031 123.536L60.6256 123.897L61.2173 122.302L59.0049 122.893L60.5742 120.449L57.8216 121.453L58.3103 119.678L55.7121 120.99L56.1752 119.189L54.1171 120.449L55.3005 119.035L53.1396 119.343L53.3711 117.851L51.4932 118.237Z" fill="#B39E00"/>
<path d="M51.8535 111.471L50.5417 111.96L53.3196 110.133L52.0079 111.625L55.5574 109.156L55.5059 111.728L59.0554 110.031L56.4319 112.731L60.753 110.596L57.8723 113.606L61.4218 111.471L59.0812 114.249L61.4475 112.706L59.467 114.763L62.6307 113.529L60.753 115.561L63.891 115.02L62.322 116.049L67.492 116.152L65.2799 117.31L69.2153 117.078L65.7687 118.57L70.6042 118.236L66.7718 119.933L70.8872 119.29L67.6463 120.988L70.4242 120.448L67.8006 121.605L72.4562 122.351L69.4468 123.2L70.2184 122.557L67.3376 121.862L67.955 121.245L66.8747 121.219L68.3408 120.268L66.0516 120.062L68.0321 119.059L64.8427 118.93L66.6175 117.798L64.2254 117.773L65.7429 116.641L63.1194 116.975L64.1483 116.564L62.0391 116.178L62.4249 115.458L60.6244 115.663L60.8559 114.918H59.3127L59.467 114.377L58.4639 114.763L59.4413 113.323L57.2293 113.992L58.6953 112.32L55.686 113.426L56.8949 111.702L54.6829 112.577L54.9401 110.571L53.3711 112.243L53.8855 110.854L51.4677 112.243L51.8535 111.471Z" fill="#B39E00"/>
<path d="M36.3181 114.249L36.5239 110.211L37.8873 112.835L38.5305 110.211L39.5338 111.42L40.7428 109.876L40.357 111.754L43.1095 110.545L41.4631 112.397L45.3991 111.291C45.3991 111.291 42.3378 113.246 42.5179 113.246C42.6979 113.246 47.1226 113.118 47.1226 113.118C47.1226 113.118 41.7461 114.301 43.1095 114.275C44.473 114.249 49.7209 114.97 49.7209 114.97L44.19 115.459C44.19 115.459 49.5923 116.127 49.3093 116.179C49.0263 116.23 43.0324 115.999 43.0324 115.999L44.8846 114.944L42.0291 114.481L43.0324 113.709L41.5146 113.581L42.415 112.629L40.5627 113.04L41.3603 112.063L39.9711 112.552L40.0997 111.394L39.0964 112.5L38.8135 111.111L37.8616 113.503L36.8069 111.909L36.3181 114.249Z" fill="#C0AF2E"/>
<g style="mix-blend-mode:soft-light" opacity="0.15">
<path d="M31.0453 114.224L35.5979 116.513C35.7523 116.359 35.8294 116.102 35.8037 115.664C35.6237 113.812 37.2955 116.925 37.5527 115.664C37.7842 114.404 38.3758 116.359 38.6073 115.253C38.8131 114.146 41.128 114.841 41.128 114.841C41.128 114.841 46.0664 113.966 45.7321 111.574C45.372 109.182 50.5162 110.133 50.5162 110.133C50.5162 110.133 50.6191 109.182 49.796 107.895C48.9729 106.609 51.4936 107.406 53.86 107.226C56.2263 107.046 54.6573 106.712 54.0914 105.914C53.5256 105.117 55.789 104.937 55.789 104.937C55.789 104.937 57.8467 103.728 57.7438 102.982C57.641 102.261 53.9371 105.271 55.5061 101.49C55.8148 100.718 56.0463 100.075 56.1491 99.5346L56.252 98.5828L54.7087 102.467L54.5287 99.5346L52.934 102.673L53.2169 99.4831L51.2107 102.75C51.2107 102.75 51.4164 98.7114 51.3907 98.9429C51.365 99.1744 49.5131 102.467 49.5131 102.467C49.5131 102.467 49.6931 98.9172 49.5131 99.6632C49.333 100.409 48.5357 102.57 48.5357 102.57C48.5357 102.57 48.5357 98.8915 48.3556 99.8176C48.2013 100.769 47.4297 103.419 47.4297 103.419L46.478 99.9462L45.7321 103.29L44.6003 100.435V103.059L43.5201 100.898L43.9316 103.471L42.414 100.898L42.5169 103.393L40.5621 101.052L41.1794 104.551L39.739 102.364L40.4335 105.4L39.0446 103.754L39.6361 106.403L38.6073 105.143L38.5301 107.226L37.0126 104.474L37.347 107.226L35.8552 105.683L36.9097 108.513L34.8778 106.3L36.1381 109.104L34.3119 106.943L35.6751 110.005L33.746 108.333L35.0064 111.342L32.8201 109.362L34.0032 112.474L31.9455 110.828L33.7203 113.761L31.4568 111.934L34.0804 115.227L31.071 114.327L31.0453 114.224Z" fill="#E7E0AD"/>
</g>
<g style="mix-blend-mode:soft-light" opacity="0.36">
<path d="M30.7882 124.514C31.56 124.514 32.6404 124.565 32.8976 124.514C33.2835 124.437 34.4412 123.279 35.1615 123.022C35.8818 122.765 36.5249 122.61 36.9879 122.199C37.451 121.813 38.8659 120.707 39.0459 120.166C39.226 119.626 38.4286 119.781 38.5829 118.829C38.7373 117.877 37.1423 119.009 37.2452 118.34C37.3224 117.774 35.9846 117.182 35.4187 116.925C34.0038 118.906 34.5955 120.732 31.8172 123.433C31.457 123.768 31.1226 124.154 30.7625 124.514H30.7882Z" fill="#FBFAF2"/>
</g>
<g style="mix-blend-mode:multiply">
<path d="M76.057 139.614C76.2627 139.485 76.4428 139.331 76.6228 139.151C77.5488 138.276 78.2947 137.633 78.8349 137.119C78.8349 137.119 80.4296 138.148 81.1755 138.148C81.1755 138.148 80.5582 136.656 79.9923 136.604L82.2558 136.862L80.8154 135.55L83.1303 135.241L81.2527 133.98H84.3135L82.2301 133.054L84.3135 132.746C84.3135 132.746 82.1015 132.102 82.2301 132.051C82.3587 131.999 85.2651 131.717 85.2651 131.717L81.8957 130.945L84.8022 130.636L82.3072 129.684H85.9853L83.1303 128.475L85.831 128.089L82.3844 127.652C82.3844 127.652 85.0079 127.472 84.9565 127.369C84.9051 127.266 81.9985 126.391 81.9985 126.391C81.9985 126.391 86.114 126.366 85.4452 126.108C84.7765 125.851 81.8185 125.182 81.8185 125.182C81.8185 125.182 86.1397 125.208 85.5995 124.977C85.0851 124.745 81.3555 123.793 82.0757 123.793C82.7959 123.793 85.1108 123.562 85.1108 123.562L82.4873 122.996L85.5481 121.89H82.3844C82.3844 121.89 84.9822 120.397 84.8793 120.397H82.0757L79.7351 121.143L81.6899 121.761L79.8894 122.584L81.6899 123.047L80.6353 123.587L81.5356 124.539L79.7094 125.645L81.0983 125.98L79.7865 126.983L81.2269 127.755C81.2269 127.755 79.9666 128.295 79.6322 128.372C79.4522 128.424 81.5356 129.813 81.5356 129.813C81.5356 129.813 79.5551 129.761 79.5293 130.019C79.5293 130.199 80.8926 130.739 80.8926 130.739L79.0921 131.099L80.4038 132.051C80.4038 132.051 78.1404 132.797 78.0375 132.823C77.3688 133.054 77.806 133.594 78.1147 134.418C78.2433 134.752 78.0375 134.932 77.7289 135.035C77.2916 135.189 76.6229 135.241 76.4428 135.524C76.1856 135.935 77.806 137.222 75.9541 139.666L76.057 139.614Z" fill="#F1F0E7"/>
</g>
<g style="mix-blend-mode:multiply">
<path d="M82.1539 118.777L84.5978 117.336H82.5397L84.4434 115.947L80.4817 116.282L83.3887 113.889L80.6104 114.687L82.6169 112.783L80.5075 113.272L82.1281 110.776L81.6651 110.931C81.4079 111.394 80.8933 111.908 79.9929 112.397C76.803 114.172 77.8063 114.841 77.8063 114.841L79.5299 114.146C79.5299 114.146 78.6295 114.995 77.7292 115.921C77.4976 116.179 79.993 115.613 79.7614 115.87C79.4527 116.204 78.6552 116.693 77.8578 117.156C77.5748 117.311 81.0734 117.182 80.8162 117.336C80.2245 117.671 78.8611 118.52 78.9382 118.597C79.1698 118.803 81.2792 118.288 81.2792 118.288L80.7647 119.086C80.7647 119.086 82.2568 119.24 82.3082 119.394C82.4111 119.677 81.8195 120.115 82.0253 120.166L84.8807 118.983C84.8807 118.983 82.1281 118.854 82.1281 118.751L82.1539 118.777Z" fill="#F1F0E7"/>
</g>
<g style="mix-blend-mode:soft-light" opacity="0.38">
<path d="M80.3019 82.0406L79.4274 84.3301L78.0641 87.9574L77.6012 89.1922L51.1599 159.73L50.6969 160.939L49.3336 164.567L48.4591 166.882C47.456 166.728 46.4529 166.573 45.4755 166.367C34.8526 164.155 25.593 158.29 19.0084 150.161C18.4683 149.492 17.9281 148.797 17.4137 148.077L18.4168 145.324L20.063 140.848L20.6288 139.279L40.6913 84.716L41.2572 83.1468L42.9034 78.6706L43.9065 75.918C45.6298 75.4807 47.4303 75.172 49.2308 74.9405C51.1341 74.7089 53.0632 74.5803 55.018 74.5803C63.4031 74.5803 71.2738 76.8184 78.0899 80.7029C78.8358 81.1402 79.556 81.5775 80.2762 82.0406H80.3019Z" fill="#FFFB8C"/>
</g>
<path d="M86.1658 89.8358C84.1081 87.7778 81.8704 85.9513 79.4526 84.3306C72.4822 79.6744 64.0971 76.9475 55.0689 76.9475C50.8764 76.9475 46.8125 77.5392 42.9543 78.6454C41.2567 79.1341 39.5848 79.7258 37.9644 80.3947C32.6916 82.607 27.9589 85.8484 23.9721 89.8101C16.0243 97.7591 11.0858 108.769 11.0858 120.912C11.0858 129.915 13.7865 138.302 18.4421 145.273C20.0625 147.692 21.9144 149.955 23.9721 152.013C30.6596 158.702 39.5077 163.255 49.3589 164.541C51.2365 164.799 53.1399 164.902 55.0689 164.902C67.2093 164.902 78.218 159.962 86.1658 152.013C94.1137 144.064 99.0521 133.054 99.0521 120.912C99.0521 108.769 94.1394 97.7591 86.1658 89.8101V89.8358ZM94.8081 127.06C94.7567 127.394 94.7053 127.729 94.6538 128.063C94.5252 128.732 94.3966 129.375 94.2423 130.018C94.1651 130.353 94.0879 130.662 94.0108 130.996C93.7793 131.948 93.4964 132.9 93.162 133.851C92.7504 135.086 92.2617 136.321 91.7216 137.504C91.5415 137.89 91.3615 138.302 91.1557 138.688C90.7699 139.459 90.3584 140.231 89.9468 140.977C89.6382 141.543 89.2781 142.083 88.9437 142.624C88.5836 143.164 88.2235 143.704 87.8634 144.244C87.5033 144.759 87.1175 145.273 86.706 145.788C86.3201 146.302 85.9086 146.791 85.4971 147.28C84.854 148 84.211 148.721 83.5423 149.389C82.8478 150.084 82.1533 150.727 81.4331 151.37C80.3271 152.322 79.1697 153.222 77.9865 154.046C76.5461 155.049 75.0543 155.949 73.4596 156.747C73.2024 156.875 72.9194 157.004 72.6622 157.158C67.3637 159.731 61.4221 161.171 55.1204 161.171C53.6543 161.171 52.1882 161.094 50.7735 160.94C46.0665 160.425 41.6168 159.113 37.5529 157.133C37.0899 156.901 36.6526 156.695 36.2154 156.438C35.7781 156.207 35.3408 155.949 34.9036 155.718C34.4663 155.461 34.0548 155.203 33.6175 154.946C31.9199 153.866 30.3252 152.682 28.8077 151.37C28.0875 150.727 27.3673 150.084 26.6985 149.389C26.3642 149.055 26.0298 148.695 25.6954 148.36C25.361 148 25.0524 147.64 24.718 147.28C24.3065 146.791 23.8949 146.302 23.5091 145.788C23.1233 145.273 22.7375 144.759 22.3517 144.244C21.9659 143.704 21.6057 143.19 21.2714 142.624C20.937 142.083 20.5769 141.517 20.2682 140.977C20.2425 140.926 20.2168 140.874 20.1911 140.823C19.7795 140.103 19.4194 139.408 19.0593 138.662C18.8536 138.276 18.6736 137.89 18.4935 137.479C17.9534 136.295 17.4646 135.061 17.0531 133.826C15.6899 129.787 14.944 125.439 14.944 120.937C14.944 116.436 15.6899 112.088 17.0531 108.049C17.4646 106.814 17.9534 105.58 18.4935 104.396C18.6736 104.01 18.8536 103.599 19.0593 103.213C19.4452 102.441 19.8567 101.669 20.2682 100.923C20.5769 100.357 20.937 99.8171 21.2714 99.2769C21.6315 98.7367 21.9916 98.1964 22.3517 97.6562C22.7118 97.1417 23.0976 96.6272 23.5091 96.1127C23.8949 95.5982 24.3065 95.1094 24.718 94.6207C25.0267 94.2605 25.361 93.9003 25.6954 93.5402C26.0298 93.18 26.3642 92.8456 26.6985 92.5112C27.393 91.8166 28.0875 91.1735 28.8077 90.5304C30.8654 88.7553 33.1288 87.1604 35.5209 85.8227C36.3183 85.3853 37.1413 84.948 37.9644 84.5621C38.2473 84.4335 38.5303 84.3049 38.8132 84.1763C39.3791 83.919 39.9449 83.6875 40.5108 83.456C40.7937 83.3531 41.0767 83.2244 41.3853 83.1215C41.7454 82.9929 42.1055 82.8643 42.4656 82.7357C46.4524 81.3979 50.7221 80.7034 55.1461 80.7034C63.7113 80.7034 71.6334 83.3788 78.1666 87.9321C79.0154 88.5238 79.8642 89.1669 80.6615 89.8358C80.9187 90.0673 81.2016 90.2731 81.4589 90.5046C82.179 91.1478 82.8992 91.7909 83.568 92.4855C84.2624 93.18 84.9055 93.8746 85.5228 94.5949C85.9343 95.0837 86.3459 95.5725 86.7317 96.087C87.1175 96.6015 87.5033 97.116 87.8891 97.6305C88.275 98.1707 88.635 98.6852 88.9694 99.2512C89.3038 99.7914 89.6639 100.357 89.9725 100.898C90.4098 101.644 90.7956 102.415 91.1814 103.187C91.3872 103.573 91.5673 103.959 91.7473 104.37C92.2875 105.554 92.7762 106.789 93.1877 108.023C93.4963 108.95 93.7793 109.901 94.0365 110.879C94.1137 111.213 94.1908 111.522 94.268 111.856C94.4223 112.5 94.5509 113.168 94.6795 113.812C94.731 114.146 94.7824 114.48 94.8338 114.815C94.9367 115.484 95.0139 116.153 95.0911 116.821C95.2197 118.185 95.2968 119.548 95.2968 120.937C95.2968 122.327 95.2197 123.69 95.0911 125.053C95.0139 125.722 94.9367 126.391 94.8338 127.06H94.8081Z" fill="#FAE543"/>
<g style="mix-blend-mode:multiply">
<path d="M95.0652 116.821C94.9881 116.152 94.9109 115.483 94.8081 114.815C94.7566 114.48 94.7052 114.146 94.6537 113.811C94.5251 113.142 94.3965 112.499 94.2422 111.856C94.165 111.522 94.0879 111.213 94.0107 110.879C93.7535 109.927 93.4706 108.975 93.1619 108.023C92.7246 106.788 92.2616 105.554 91.7215 104.37C91.5414 103.984 91.3614 103.573 91.1557 103.187C90.7698 102.415 90.3583 101.643 89.9468 100.897C89.6381 100.331 89.278 99.7911 88.9436 99.2509C88.5835 98.7107 88.2234 98.1705 87.8633 97.6302C87.5032 97.1157 87.1174 96.6012 86.7059 96.0867C86.3201 95.5722 85.9085 95.0835 85.497 94.5947C84.8539 93.8744 84.2109 93.1541 83.5165 92.4852C82.822 91.7906 82.1275 91.1475 81.4073 90.5044C81.1501 90.2729 80.8929 90.0413 80.61 89.8355C79.8126 89.1667 78.9638 88.5493 78.115 87.9319C71.6076 83.3785 63.6597 80.7031 55.0946 80.7031C50.6706 80.7031 46.4008 81.4234 42.4141 82.7354C42.054 82.864 41.6939 82.9669 41.3338 83.0956C41.0509 83.1985 40.7679 83.3271 40.4593 83.43C39.8934 83.6615 39.3018 83.893 38.7617 84.1503C38.4787 84.2789 38.1958 84.4075 37.9129 84.5362C37.0898 84.922 36.2667 85.3594 35.4694 85.7967C33.0773 87.1344 30.8396 88.7294 28.7561 90.5044C28.036 91.1475 27.3158 91.7906 26.647 92.4852C26.3127 92.8196 25.9783 93.1798 25.6439 93.5142C25.3095 93.8744 25.0009 94.2345 24.6665 94.5947C24.255 95.0835 23.8434 95.5722 23.4576 96.0867C23.0718 96.6012 22.686 97.1157 22.3002 97.6302C21.9143 98.1705 21.5542 98.685 21.2199 99.2509C20.8855 99.7911 20.5254 100.357 20.2168 100.897C19.7795 101.643 19.3937 102.415 19.0079 103.187C18.8021 103.573 18.622 103.959 18.442 104.37C17.9018 105.554 17.4389 106.788 17.0016 108.023C15.6384 112.062 14.8925 116.41 14.8925 120.911C14.8925 125.413 15.6384 129.761 17.0016 133.8C17.4389 135.035 17.9018 136.269 18.442 137.453C18.622 137.839 18.8021 138.25 19.0079 138.636C19.368 139.356 19.7538 140.077 20.1396 140.771C20.1396 140.771 20.191 140.874 20.2168 140.926C20.5254 141.492 20.8855 142.032 21.2199 142.572C21.58 143.112 21.9401 143.652 22.3002 144.193C22.6603 144.707 23.0461 145.222 23.4576 145.736C23.8434 146.251 24.255 146.739 24.6665 147.228C24.9752 147.588 25.3095 147.949 25.6439 148.309C25.9783 148.669 26.3127 149.003 26.647 149.338C27.3415 150.032 28.036 150.675 28.7561 151.319C30.2737 152.63 31.8684 153.814 33.566 154.894C34.0033 155.152 34.4148 155.435 34.8521 155.666C35.2893 155.923 35.7266 156.155 36.1638 156.386C36.6011 156.618 37.0641 156.849 37.5014 157.081C41.5653 159.062 46.0408 160.374 50.722 160.888C52.1624 161.043 53.6028 161.12 55.0689 161.12C61.3448 161.12 67.3121 159.679 72.6107 157.107C72.8679 156.978 73.1508 156.849 73.408 156.695C74.977 155.898 76.4946 154.997 77.935 153.994C79.1439 153.171 80.3013 152.27 81.3816 151.319C82.1018 150.675 82.822 150.032 83.4907 149.338C84.1852 148.643 84.8282 147.949 85.4713 147.228C85.8828 146.739 86.2943 146.251 86.6802 145.736C87.066 145.222 87.4518 144.707 87.8376 144.193C88.2234 143.652 88.5835 143.138 88.9179 142.572C89.2523 142.032 89.6124 141.466 89.921 140.926C90.3583 140.18 90.7441 139.408 91.1299 138.636C91.3357 138.25 91.5157 137.864 91.6958 137.453C92.2359 136.269 92.6989 135.035 93.1362 133.8C93.4448 132.874 93.7277 131.922 93.985 130.944C94.0621 130.61 94.1393 130.301 94.2164 129.967C94.3708 129.324 94.4994 128.655 94.628 128.012C94.6794 127.677 94.7309 127.343 94.7823 127.008C94.8852 126.339 94.9624 125.671 95.0395 125.002C95.1681 123.638 95.2453 122.275 95.2453 120.886C95.2453 119.497 95.1681 118.133 95.0395 116.77L95.0652 116.821ZM82.6162 148.489C75.5686 155.537 65.8203 159.911 55.0689 159.911C53.7571 159.911 52.4453 159.859 51.185 159.705C41.9768 158.779 33.7203 154.663 27.5215 148.489C24.8208 145.788 22.5059 142.675 20.6797 139.253C17.7732 133.8 16.1014 127.549 16.1014 120.937C16.1014 110.184 20.4482 100.434 27.5215 93.3856C31.2511 89.6555 35.7266 86.6714 40.7422 84.6905C45.192 82.9155 50.0275 81.9637 55.0946 81.9637C63.5054 81.9637 71.2732 84.6133 77.6521 89.1667C79.4268 90.4272 81.0987 91.8421 82.6419 93.3856C89.6895 100.434 94.0621 110.184 94.0621 120.937C94.0621 131.69 89.7152 141.44 82.6419 148.489H82.6162Z" fill="#F6F39E"/>
</g>
<path d="M108.981 0.106934H88.7384L44.8582 73.372H65.1264L108.981 0.106934Z" fill="#2164EB"/>
</svg>
