<svg width="109" height="168" viewBox="0 0 109 168" fill="none" xmlns="http://www.w3.org/2000/svg">
<path d="M0.977234 0.106934H21.2435L65.1202 73.3797H44.8539L0.977234 0.106934Z" fill="#E8DB21"/>
<path d="M64.7185 79.6004V78.664H45.4555C44.7198 78.664 44.051 78.363 43.5494 77.8614C43.0477 77.3598 42.7467 76.6909 42.7467 75.9552C42.7467 75.2194 43.0477 74.5506 43.5494 74.0489C44.051 73.5473 44.7198 73.2463 45.4555 73.2463H64.7185C65.4542 73.2463 66.1231 73.5473 66.6248 74.0489C67.1264 74.5506 67.4274 75.2194 67.4274 75.9552C67.4274 76.6909 67.1264 77.3598 66.6248 77.8614C66.1231 78.363 65.4542 78.664 64.7185 78.664V80.5368C67.2602 80.5368 69.3001 78.4968 69.3001 75.9552C69.3001 73.4135 67.2602 71.3735 64.7185 71.3735H45.4555C42.9473 71.3735 40.8739 73.4135 40.8739 75.9552C40.8739 78.4634 42.9139 80.5368 45.4555 80.5368H64.7185V79.6004Z" fill="#E0C64C"/>
<path d="M101.398 121.095C101.398 146.712 80.63 167.48 55.013 167.48C52.7723 167.48 50.5986 167.312 48.4582 167.011C47.455 166.878 46.4517 166.677 45.4484 166.476C34.8471 164.269 25.55 158.417 18.9953 150.29C18.4602 149.621 17.9251 148.919 17.39 148.217C12.2733 141.127 9.09626 132.499 8.69495 123.168C8.69495 122.834 8.69495 122.499 8.69495 122.165C8.69495 121.797 8.69495 121.463 8.69495 121.095C8.69495 120.693 8.69495 120.292 8.69495 119.891C9.23003 98.6212 24.0786 80.93 43.9769 76.0474C45.7159 75.6127 47.4884 75.3117 49.2943 75.0776C51.2005 74.8435 53.1068 74.7097 55.0799 74.7097C63.474 74.7097 71.333 76.9504 78.1553 80.8297C78.891 81.2645 79.6268 81.6992 80.3291 82.1674C93.0707 90.4278 101.465 104.775 101.465 121.061L101.398 121.095Z" fill="#E0C64C"/>
<path d="M50.6788 137.095C50.6788 137.095 50.5785 136.928 50.5116 136.861C50.4447 136.761 50.3443 136.694 50.244 136.66C50.244 136.66 50.2106 136.66 50.1771 136.66C50.1771 136.393 50.1771 136.092 50.1437 135.791C50.1437 135.691 50.1437 135.59 50.1437 135.49C50.2105 135.289 50.2106 135.055 50.1771 134.821C50.1437 134.319 50.0768 133.784 50.0099 133.283C49.8427 132.313 49.6086 131.343 49.1404 130.474C49.1404 130.44 49.1069 130.407 49.0735 130.373C49.1069 130.34 49.1738 130.306 49.2073 130.239C49.4748 129.771 49.3745 129.136 49.3411 128.634C49.3076 127.531 49.1738 126.394 48.9732 125.323C48.8728 124.755 48.7391 124.186 48.5719 123.618C48.4381 123.15 48.3378 122.615 48.0702 122.213C47.8027 121.845 47.368 121.611 46.9332 121.745C46.5319 121.879 46.2643 122.213 46.2978 122.648C46.2978 122.748 46.2643 122.815 46.2308 122.916C46.1305 123.384 46.0971 123.885 46.0971 124.387C46.0971 124.487 46.0971 124.588 46.0971 124.721C46.0971 124.989 46.0971 125.257 46.0637 125.524C46.0637 126.494 46.164 127.531 46.5319 128.434C46.5319 128.467 46.5319 128.5 46.5319 128.534C46.7326 129.069 47.0335 129.738 47.5017 130.206C47.5017 130.34 47.5017 130.474 47.5017 130.574C47.4348 130.708 47.4014 130.841 47.368 130.975C47.2342 131.51 47.368 132.079 47.4683 132.647C47.6355 133.483 47.903 134.253 48.2374 135.022C48.3043 135.256 48.4046 135.457 48.4715 135.691C48.4715 135.791 48.5049 135.891 48.5384 135.992C48.6722 136.46 48.8728 136.861 49.1738 137.196C49.1738 137.363 49.2072 137.53 49.2741 137.664C49.3745 137.898 49.4748 138.165 49.6086 138.399C49.642 138.466 49.6755 138.533 49.7089 138.567C49.7423 138.634 49.7758 138.734 49.8092 138.801C50.0433 139.269 50.3777 139.637 50.7456 139.971C51.0131 140.205 51.4813 140.005 51.4813 139.67C51.5148 138.734 51.2139 137.831 50.6119 137.129L50.6788 137.095Z" fill="#A68018"/>
<path d="M44.0572 132.48C44.0572 132.48 44.0572 132.38 44.0572 132.346C44.0572 132.346 44.0572 132.28 44.0572 132.246C44.0906 132.012 44.0906 131.745 44.0572 131.477C44.0572 130.975 43.9904 130.474 43.9235 129.972C43.8566 129.337 43.8231 128.634 43.589 127.999C43.589 127.899 43.589 127.832 43.589 127.731C43.5556 127.43 43.4553 127.096 43.288 126.862C43.4553 126.862 43.5889 126.862 43.7227 126.728C44.0237 126.461 44.0572 125.959 44.1241 125.591C44.191 125.156 44.2578 124.755 44.2913 124.32C44.3916 123.35 44.3916 122.381 44.3581 121.444C44.3581 120.943 43.6894 120.909 43.4887 121.244C43.4887 121.244 43.4218 121.244 43.3884 121.244C43.3549 121.244 43.3215 121.31 43.288 121.31C43.1877 121.31 43.0873 121.31 43.0204 121.377C42.385 121.912 42.2848 122.882 42.151 123.651C42.0507 124.253 42.0172 124.922 42.2847 125.491C42.3516 125.859 42.4519 126.227 42.686 126.527C42.686 126.561 42.7529 126.594 42.7863 126.628C42.686 126.628 42.6192 126.695 42.5523 126.762C42.452 126.828 42.3851 126.895 42.3517 127.029C42.3182 127.33 42.2848 127.631 42.2513 127.932C42.151 128.634 42.151 129.37 42.2513 130.106C42.3182 130.641 42.4185 131.143 42.5523 131.644C42.6526 132.046 42.8198 132.447 43.1208 132.748C43.1208 132.815 43.1208 132.882 43.1208 132.948C43.0204 133.35 43.0205 133.785 43.1542 134.186C43.288 134.621 43.5556 135.022 43.8231 135.39C43.9569 135.557 44.6257 136.025 44.8264 136.226C45.0939 136.493 45.6625 136.226 45.5956 135.858C45.3949 134.621 44.8933 133.417 44.1241 132.413L44.0572 132.48Z" fill="#A68018"/>
<path d="M56.6316 139.938C56.1969 139.369 55.7955 138.667 55.6617 138.399C55.1267 137.229 54.8591 135.958 54.5916 134.687C53.2539 133.082 52.2841 131.176 51.8159 129.136C51.5483 127.965 51.4146 126.728 51.448 125.524C51.448 125.089 51.4815 124.454 52.05 124.387C52.2841 124.286 52.5851 124.32 52.6854 124.587C53.0867 125.423 53.4545 126.293 53.789 127.162C54.625 128.366 55.0932 129.738 55.4276 131.142C55.5614 131.477 55.6953 131.778 55.829 132.112C55.9293 132.413 55.9962 132.714 55.9627 133.015C55.9627 133.015 55.9627 133.048 55.9627 133.082C55.9627 133.149 55.9962 133.216 56.0297 133.316C56.0631 133.45 56.1299 133.583 56.1634 133.717C56.364 134.353 56.6985 135.155 56.4978 135.791C56.7654 136.292 56.9995 136.761 57.2336 137.296C57.267 137.396 57.3339 137.496 57.3674 137.597C57.5346 137.931 57.7017 138.265 57.8355 138.633C58.0027 139.068 58.1699 139.536 58.1699 140.004C59.0729 140.506 59.7752 141.376 60.2768 142.279C60.4106 142.446 60.5444 142.613 60.6781 142.78C60.8454 143.048 61.0126 143.349 60.9791 143.65C61.0794 143.984 61.0794 144.419 60.7785 144.62C60.4775 144.82 60.1096 144.62 59.8756 144.385C59.608 144.084 59.3739 143.783 59.1733 143.449C59.0061 143.248 58.8723 143.014 58.7385 142.78C58.6716 142.713 58.6048 142.613 58.5379 142.546C58.2369 142.145 57.9693 141.777 57.7018 141.342C57.6349 141.208 57.5346 141.075 57.4677 140.974C57.4008 140.974 57.3339 140.974 57.267 140.907C56.8992 140.74 56.6985 140.339 56.5313 139.971L56.6316 139.938Z" fill="#A68018"/>
<g style="mix-blend-mode:multiply">
<path d="M52.2509 125.625C52.2509 125.625 52.2174 129.638 54.4915 131.21C56.7656 132.781 62.1165 135.524 64.7584 136.627C69.3401 138.567 72.4502 138.6 76.0286 137.664C76.0286 137.664 79.3728 131.678 76.3296 127.063C73.9217 123.418 74.7578 121.378 66.9657 118.033C59.8424 114.99 59.1401 115.859 56.4981 117.632C54.1237 119.237 52.1841 125.591 52.1841 125.591L52.2509 125.625Z" fill="#C7A91C"/>
</g>
<mask id="mask0_6020_4045" style="mask-type:luminance" maskUnits="userSpaceOnUse" x="52" y="116" width="26" height="23">
<path d="M52.2509 125.625C52.2509 125.625 52.2174 129.638 54.4915 131.21C56.7656 132.781 62.1165 135.524 64.7584 136.627C69.3401 138.567 72.4502 138.6 76.0286 137.664C76.0286 137.664 79.3728 131.678 76.3296 127.063C73.9217 123.418 74.7578 121.378 66.9657 118.033C59.8424 114.99 59.1401 115.859 56.4981 117.632C54.1237 119.237 52.1841 125.591 52.1841 125.591L52.2509 125.625Z" fill="white"/>
</mask>
<g mask="url(#mask0_6020_4045)">
<path d="M64.5241 118.434C64.6244 117.598 64.6245 116.762 64.3569 115.96C64.29 115.726 64.0894 115.625 63.8888 115.625C63.8219 115.458 63.7884 115.291 63.7215 115.124C63.5208 114.589 62.7517 114.722 62.6848 115.124C62.2835 114.488 61.3136 114.388 60.9123 114.89C60.6782 114.589 60.3773 114.321 60.0094 114.12C59.7419 113.987 59.4409 114.053 59.2737 114.321C59.1399 114.555 59.2068 114.923 59.4743 115.057C59.976 115.324 60.3104 115.826 60.511 116.361C60.6448 116.695 60.7117 117.03 60.812 117.364C60.7451 120.04 59.8421 122.581 58.6716 124.989C58.1366 125.825 57.568 126.661 56.9995 127.397C56.3975 128.2 55.7956 128.969 55.1602 129.738C54.3241 130.307 53.3878 130.808 52.3845 130.775C51.7157 130.775 51.7157 131.812 52.3845 131.845C52.7858 131.845 53.1537 131.812 53.5215 131.711C53.5215 131.745 53.4547 131.778 53.4212 131.812C52.8193 132.547 52.1838 133.25 51.515 133.918C50.913 134.52 50.0769 135.457 49.1071 135.223C48.4382 135.055 48.1707 136.059 48.8396 136.259C49.1071 136.326 49.3411 136.36 49.5752 136.326C49.3411 136.861 49.475 137.597 50.1773 137.865C51.6488 138.4 52.8862 137.497 53.856 136.393C55.3943 135.825 56.6316 134.253 57.6349 133.015C58.3038 132.213 58.9058 131.377 59.4409 130.507C62.7182 127.33 64.9588 122.916 64.5241 118.434ZM52.953 134.152C52.953 134.152 52.7523 134.42 52.6185 134.587C52.2507 134.721 52.0165 134.989 51.9831 135.323C51.6487 135.657 51.2809 135.891 50.913 135.858C51.9497 135.223 52.8192 134.086 53.5215 133.283C53.7891 132.982 54.0566 132.648 54.3241 132.347C53.8894 132.982 53.4546 133.584 52.953 134.186V134.152Z" fill="#FFE047"/>
<path d="M71.3129 118.535C71.3129 117.966 70.5772 117.866 70.3096 118.267C70.1759 118.167 70.0087 118.1 69.8415 118.1C69.8415 118 69.808 117.933 69.7745 117.832C69.5404 117.13 68.8381 116.963 68.303 117.197C67.9686 117.063 67.467 117.364 67.5673 117.832C68.2362 121.377 67.1994 124.822 65.5942 127.965C65.2932 128.4 64.9923 128.835 64.6913 129.27C62.8854 131.711 60.8788 134.019 58.9057 136.326C58.8722 136.36 58.8053 136.393 58.7719 136.426C58.1699 136.493 57.802 137.062 57.8355 137.597C57.6683 137.798 57.5011 137.998 57.3339 138.199C57.1332 138.199 56.9326 138.299 56.7654 138.433C56.6316 138.466 56.5312 138.533 56.3975 138.6C55.829 138.767 55.9627 139.503 56.3975 139.637C56.4309 139.771 56.4978 139.905 56.6316 140.038L56.8657 140.272C57.2336 140.674 58.0027 140.707 58.3706 140.272C58.3706 140.239 58.4375 140.206 58.4709 140.172C59.4073 140.272 60.4775 138.834 61.0461 138.232C61.5477 137.731 62.0159 137.229 62.5175 136.727C62.7516 136.493 62.9857 136.293 63.2198 136.059C64.7582 135.189 65.9956 133.985 66.9988 132.581C67.6342 132.012 68.1024 131.243 68.5037 130.507C69.1725 129.337 69.7411 128.066 70.1425 126.762C70.1425 126.695 70.1759 126.628 70.2093 126.561C70.9785 124.822 71.3798 122.949 71.246 121.043C71.3129 120.207 71.3463 119.371 71.3463 118.535H71.3129Z" fill="#FFE047"/>
<path d="M76.5299 122.749C76.2958 122.347 75.7607 122.18 75.3259 122.247C75.3259 122.047 75.259 121.812 75.2256 121.612C75.0918 120.675 74.8577 119.772 74.2557 119.07C73.9547 118.736 73.3194 119.003 73.3528 119.438C73.3863 119.839 73.52 120.174 73.6538 120.542C73.5535 120.675 73.52 120.843 73.5535 120.976C73.6538 121.277 73.7876 121.612 73.8879 121.913C73.9548 122.916 73.9882 123.919 73.9548 124.889C73.6538 127.565 72.383 130.039 70.9784 132.347C70.6105 132.949 70.2427 133.517 69.8414 134.086C69.0722 134.855 68.2361 135.524 67.3332 136.126C66.5306 136.694 65.6945 137.263 64.825 137.798C64.0224 138.3 63.0859 139.002 62.116 138.968C61.581 138.968 61.4807 139.604 61.7817 139.905C61.581 139.972 61.3803 140.072 61.1796 140.139C60.5442 140.34 60.8118 141.376 61.4472 141.176C63.1528 140.607 64.758 139.805 66.2295 138.801C66.1961 138.835 66.1626 138.868 66.1292 138.935C65.8951 139.102 65.6275 139.303 65.3935 139.437C64.9921 139.671 64.8584 140.039 64.8918 140.373C64.6912 140.607 64.4905 140.841 64.2899 141.042C63.3869 142.079 64.8918 143.584 65.7947 142.547C65.8282 142.513 65.8616 142.48 65.8951 142.413C66.8649 141.878 67.5338 141.008 68.1358 140.072C68.4033 139.805 68.6709 139.57 68.905 139.269C69.0388 139.136 69.139 139.002 69.2728 138.868C70.4099 138.099 71.3128 137.029 72.1488 135.992C73.1187 134.788 73.9547 133.484 74.657 132.113C76.0951 129.304 76.9647 126.26 77.2656 123.15C77.2991 122.682 76.8309 122.548 76.4964 122.715L76.5299 122.749Z" fill="#FFE047"/>
</g>
<g opacity="0.39">
<path d="M47.2827 114.245C47.2827 114.245 59.1828 113.259 68.2189 109.675C77.255 106.09 83.3301 100.02 81.809 96.1628C80.2879 92.3054 71.7481 92.0781 62.704 95.6955C53.6599 99.3129 47.2827 114.245 47.2827 114.245Z" fill="#FFFBE8"/>
<mask id="mask1_6020_4045" style="mask-type:luminance" maskUnits="userSpaceOnUse" x="47" y="93" width="36" height="22">
<path d="M47.2825 114.286C47.2825 114.286 59.1732 113.279 68.2069 109.675C77.2406 106.071 83.3203 99.9842 81.8072 96.125C80.2942 92.2658 71.7629 92.0527 62.7211 95.6895C53.6793 99.3262 47.2825 114.286 47.2825 114.286Z" fill="white"/>
</mask>
<g mask="url(#mask1_6020_4045)">
<path d="M84.102 89.891C81.1814 90.1808 78.39 91.3313 76.1164 93.1605C73.9237 94.9404 72.1677 97.1722 70.1125 99.0892C69.0444 100.072 67.9036 101.072 66.5847 101.684C65.9618 101.981 65.3144 102.238 64.6429 102.316C63.8986 102.411 63.1948 102.343 62.4505 102.299C62.2887 102.26 62.135 102.326 61.9974 102.327C61.9974 102.327 62.0056 102.295 61.9489 102.246C61.7225 101.915 62.7904 101.208 62.9604 101.077C63.3164 100.749 63.7048 100.429 64.0689 100.069C64.8699 99.3313 65.6063 98.5782 66.3507 97.7924C67.8395 96.2209 69.2151 94.5528 70.4694 92.8205C70.8821 92.2648 70.0246 91.5722 69.6038 92.1605C68.1392 94.1869 66.4966 96.1009 64.7488 97.8856C63.8749 98.778 62.9362 99.6545 61.9815 100.458C61.3665 100.999 60.6141 101.679 60.8566 102.498C60.2256 102.69 59.6431 102.962 59.0524 103.406C58.9229 103.512 58.7935 103.619 58.6559 103.758C58.9959 102.39 59.2793 100.974 59.8135 99.6534C60.5742 97.8353 61.8284 96.2412 63.3981 95.0348C63.9483 94.6163 63.3093 93.7351 62.7591 94.1537C61.1085 95.4094 59.8057 97.0608 58.9559 98.9608C58.09 100.926 57.9198 103.13 57.0862 105.103C57.07 105.168 57.0538 105.233 57.0376 105.298C56.7706 105.544 56.5036 105.79 56.2042 106.028C53.7202 108.013 49.7965 107.229 47.8544 110.072C47.466 110.668 48.3315 111.328 48.72 110.732C50.0713 108.747 52.6603 108.687 54.8367 107.939C54.0436 109.611 52.5143 110.793 51.0174 111.844C50.1436 112.461 49.2779 113.044 48.485 113.749C47.87 114.29 46.8019 115.135 46.9474 116.068C47.0525 116.75 48.1448 116.637 48.0397 115.955C47.9831 115.63 48.6303 115.097 48.8488 114.908C49.2453 114.556 49.6417 114.203 50.0625 113.892C50.8716 113.26 51.7293 112.709 52.5304 112.11C52.7488 111.921 52.9672 111.732 53.2099 111.584C53.3313 111.787 53.5416 111.907 53.8491 111.775C55.7019 110.948 57.7487 111.274 59.7227 111.341C61.632 111.392 63.4766 111.151 65.3536 110.779C65.4507 110.803 65.5397 110.859 65.6449 110.85C66.4458 110.665 67.1254 110.693 67.9021 110.882C67.9992 110.906 67.9991 110.906 68.0962 110.929C68.1933 110.953 68.2904 110.977 68.3552 110.992C68.5493 111.04 68.7272 111.152 68.8809 111.224C68.9133 111.232 68.9781 111.248 69.0023 111.288L69.0347 111.296C69.0347 111.296 69.0346 111.296 69.067 111.304C69.1641 111.328 69.2127 111.409 69.3017 111.465C69.4796 111.577 69.6171 111.714 69.787 111.859C70.0135 112.053 70.3694 112.001 70.5636 111.772C70.7578 111.543 70.7013 111.219 70.4829 110.993C69.2776 109.905 67.5868 109.389 65.9849 109.62C65.8959 109.564 65.7664 109.532 65.6289 109.533C63.5253 109.988 61.4299 110.272 59.2941 110.166C57.7003 110.088 56.0499 109.962 54.5127 110.347C55.1277 109.668 55.6618 108.9 56.0098 108.053C57.8868 107.957 59.7071 107.676 61.5113 107.183C61.6002 107.377 61.7702 107.522 62.0533 107.488C64.1083 107.367 66.058 107.669 68.04 108.256C69.9331 108.786 71.8908 109.194 73.6951 108.149C74.2938 107.811 73.6548 106.93 73.0561 107.268C71.3327 108.264 69.278 107.418 67.5386 106.959C66.2119 106.636 64.8932 106.418 63.5663 106.371C63.8091 106.223 64.0276 106.034 64.246 105.846C64.8853 105.207 65.2738 104.335 65.6137 103.519C65.6541 103.357 65.6865 103.226 65.646 103.113C65.8645 103.062 66.1153 103.02 66.3499 102.904C66.3499 102.904 66.3822 102.912 66.4227 102.888C66.5198 102.911 66.5846 102.927 66.714 102.959C67.9276 102.909 69.0844 103.225 70.2493 103.509C71.4467 103.801 72.6278 104.02 73.8413 104.109C76.1066 104.246 79.003 104.192 80.8397 102.602C81.3657 102.143 80.7267 101.262 80.2007 101.721C79.1893 102.614 77.8705 102.811 76.6003 102.95C75.4434 103.048 74.3108 103.049 73.1377 102.935C71.4711 102.736 69.8693 102.139 68.2351 101.948C68.5264 101.742 68.85 101.545 69.1089 101.332C69.1737 101.347 69.2546 101.298 69.3355 101.249C71.69 99.9227 74.5054 100.056 77.0216 99.1842C78.041 98.8109 79.0281 98.2916 79.8292 97.5542C80.7354 96.6697 81.1887 95.5366 81.6095 94.3957C81.8443 93.7275 80.8492 93.3123 80.6145 93.9805C80.1855 95.154 79.7323 96.287 78.7451 97.0827C77.8794 97.8043 76.7871 98.1944 75.7192 98.4868C74.2548 98.8553 72.7661 99.0451 71.3341 99.4215C72.7825 98.0129 74.1014 96.4345 75.574 95.0663C78.0338 92.7643 80.9142 91.2556 84.2555 90.9301C84.9594 90.8599 84.8543 89.7634 84.1505 89.8337L84.102 89.891ZM63.4047 105.226C62.7978 105.873 61.8917 106.067 61.0422 106.309C59.6506 106.66 58.2185 106.898 56.8189 107.006C58.6071 105.611 59.8776 103.4 62.4018 103.462C63.1218 103.465 63.8014 103.492 64.4972 103.455C64.1977 104.107 63.8983 104.759 63.429 105.267L63.4047 105.226Z" fill="#FFF1AB"/>
</g>
</g>
<path d="M39.6427 115.09C39.6427 115.09 42.686 112.816 45.863 112.649C49.0401 112.482 53.5883 112.348 56.665 114.656C59.7417 116.963 54.6584 126.896 52.0833 127.799C49.5082 128.702 41.5155 125.157 40.4118 122.615C39.8099 121.277 39.6762 120.608 39.6427 118.669C39.6093 116.729 39.6427 115.09 39.6427 115.09Z" fill="#BD921B"/>
<mask id="mask2_6020_4045" style="mask-type:luminance" maskUnits="userSpaceOnUse" x="39" y="112" width="19" height="16">
<path d="M39.6427 115.09C39.6427 115.09 42.686 112.816 45.863 112.649C49.0401 112.482 53.5883 112.348 56.665 114.656C59.7417 116.963 54.6584 126.896 52.0833 127.799C49.5082 128.702 41.5155 125.157 40.4118 122.615C39.8099 121.277 39.6762 120.608 39.6427 118.669C39.6093 116.729 39.6427 115.09 39.6427 115.09Z" fill="white"/>
</mask>
<g mask="url(#mask2_6020_4045)">
<path d="M54.391 114.622C53.3543 113.753 45.4953 113.987 44.9268 114.121C44.4252 114.255 41.6495 114.99 41.3151 118.669C41.1813 120.207 43.9904 123.15 44.2914 123.351C47.736 125.725 52.953 125.725 53.6553 125.324C54.8927 124.622 57.9025 117.532 54.391 114.589V114.622Z" fill="#C4981C"/>
<path d="M52.9193 116.863C51.5482 116.194 45.1607 113.318 43.823 117.265C43.3548 118.602 44.1239 119.973 45.2944 120.676C46.4649 121.378 51.8826 124.321 53.9895 121.512C55.2603 119.84 54.6249 117.699 52.9193 116.863Z" fill="#C99C1D"/>
</g>
<path d="M33.7903 114.856C32.7202 113.418 30.2788 113.853 28.8073 114.321C27.0349 114.856 25.4297 115.926 24.2592 117.364C23.8244 117.899 24.5936 118.635 24.9949 118.1C25.9648 116.896 27.2355 115.993 28.707 115.458C29.4093 115.224 30.145 115.057 30.9142 114.99C31.349 114.99 31.9509 114.923 32.4526 115.09C29.1752 115.191 26.4998 117.465 24.9949 120.274C24.6605 120.876 25.5969 121.411 25.8978 120.809C27.3024 118.2 29.7771 116.06 32.8539 116.127C33.1883 116.127 33.3556 115.893 33.3556 115.625C33.7234 115.625 34.0913 115.257 33.7903 114.856Z" fill="#A68018"/>
<path d="M31.7505 117.598C31.7505 121.21 34.0581 125.056 35.4292 125.257C35.6633 125.29 36.5662 125.524 36.7334 125.491C36.9341 125.457 36.5662 124.989 36.7334 124.922C38.7734 124.12 40.4456 121.143 41.0141 118.133C41.6161 114.889 40.8135 110.809 36.2653 111.11C33.7571 111.278 31.717 114.02 31.717 117.632L31.7505 117.598Z" fill="#C4981C"/>
<path d="M31.5833 118.1C31.5833 120.407 33.1885 122.949 34.0914 122.949C35.6967 122.949 37.1347 120.708 37.536 118.434C37.9373 116.361 37.4023 113.719 34.4927 113.919C32.8875 114.02 31.5833 115.792 31.5833 118.1Z" fill="#A68018"/>
<path d="M31.7505 117.532C31.7505 118.936 32.7204 120.441 33.2555 120.441C34.2253 120.441 35.0614 119.103 35.3289 117.732C35.563 116.495 35.262 114.89 33.4895 115.023C32.5197 115.09 31.717 116.161 31.717 117.532H31.7505Z" fill="#BF931C"/>
<g opacity="0.39">
<path d="M47.8075 113.654C47.8075 113.654 59.6122 115.439 69.2153 114.027C78.8183 112.615 86.1226 108.119 85.5569 104.01C84.9912 99.9006 76.6956 97.6967 67.0925 99.109C57.4895 100.521 47.8156 113.621 47.8156 113.621L47.8075 113.654Z" fill="#FFFBE8"/>
<mask id="mask3_6020_4045" style="mask-type:luminance" maskUnits="userSpaceOnUse" x="47" y="98" width="39" height="17">
<path d="M47.8074 113.695C47.8074 113.695 59.603 115.464 69.2033 114.034C78.8035 112.604 86.1113 108.09 85.5526 103.975C84.9939 99.8599 76.7063 97.666 67.106 99.096C57.5057 100.526 47.8155 113.662 47.8155 113.662L47.8074 113.695Z" fill="white"/>
</mask>
<g mask="url(#mask3_6020_4045)">
<path d="M89.2576 98.4535C86.334 98.052 83.4022 98.513 80.7133 99.794C78.1782 101.009 75.9508 102.783 73.5048 104.192C72.2575 104.925 70.8887 105.595 69.4714 105.906C68.8154 106.057 68.1108 106.128 67.4386 106.068C66.7016 105.992 66.0132 105.72 65.3005 105.546C65.1386 105.507 65.0089 105.475 64.847 105.436C64.847 105.436 64.8632 105.371 64.8309 105.363C64.677 105.014 65.8918 104.549 66.0862 104.458C66.5236 104.219 66.961 103.98 67.3984 103.741C68.3217 103.205 69.2531 102.637 70.1521 102.061C71.9583 100.876 73.6916 99.5692 75.3115 98.1659C75.838 97.7064 75.1577 96.8489 74.6312 97.3085C72.7116 98.9499 70.6949 100.429 68.5728 101.779C67.5118 102.454 66.3941 103.081 65.2926 103.643C64.5799 104.022 63.6647 104.525 63.7294 105.371C63.0734 105.384 62.4174 105.535 61.7937 105.833C61.6398 105.899 61.4779 105.998 61.324 106.064C62.0125 104.814 62.5795 103.5 63.4219 102.322C64.5802 100.702 66.1677 99.4295 67.982 98.6269C68.638 98.3372 68.2007 97.3315 67.5447 97.6212C65.6495 98.4732 63.9891 99.7629 62.7498 101.432C61.4295 103.15 60.7733 105.238 59.5097 107.005C59.4935 107.07 59.4449 107.127 59.4287 107.193C59.1048 107.39 58.7888 107.555 58.4729 107.72C55.5896 109.092 51.9534 107.411 49.4183 109.732C48.8918 110.191 49.5639 111.081 50.0985 110.589C51.848 108.941 54.4234 109.5 56.7073 109.296C55.5571 110.744 53.8157 111.53 52.0987 112.218C51.1106 112.6 50.1226 112.981 49.1668 113.509C48.446 113.921 47.2149 114.451 47.15 115.404C47.1094 116.12 48.1785 116.242 48.2515 115.534C48.2677 115.192 49.0371 114.861 49.2882 114.68C49.7337 114.408 50.2358 114.185 50.7055 113.953C51.6369 113.523 52.5765 113.199 53.5403 112.777C53.8076 112.669 54.0505 112.521 54.3178 112.413C54.3987 112.641 54.6012 112.794 54.8847 112.759C56.9013 112.386 58.7964 113.194 60.6996 113.692C62.538 114.175 64.4088 114.389 66.2877 114.432C66.3687 114.521 66.4577 114.577 66.563 114.569C67.381 114.595 68.029 114.753 68.7659 115.106C68.8631 115.129 68.8631 115.129 68.9441 115.218C69.0413 115.242 69.0898 115.323 69.1789 115.379C69.357 115.492 69.5028 115.596 69.6405 115.734C69.6729 115.742 69.6972 115.782 69.7539 115.831C69.7539 115.831 69.7538 115.831 69.7862 115.838C69.7862 115.838 69.7863 115.838 69.8186 115.846C69.8753 115.895 69.9563 115.984 70.0049 116.065C70.1345 116.235 70.2721 116.372 70.4017 116.542C70.5798 116.793 70.9524 116.814 71.1711 116.626C71.4222 116.445 71.4384 116.103 71.2603 115.852C70.3534 114.524 68.7903 113.625 67.1787 113.474C67.0977 113.385 67.0086 113.329 66.8386 113.322C64.7167 113.289 62.5785 113.044 60.5215 112.473C58.9827 112.029 57.4278 111.512 55.808 111.532C56.5532 111.022 57.2579 110.398 57.7925 109.629C59.6309 109.974 61.4856 110.115 63.3483 110.085C63.3969 110.304 63.5263 110.474 63.7936 110.504C65.8021 110.856 67.6405 111.615 69.414 112.635C71.1309 113.607 72.9125 114.457 74.9211 113.84C75.5933 113.623 75.1481 112.65 74.4839 112.834C72.5888 113.409 70.7504 112.097 69.2117 111.237C68.0293 110.603 66.7822 110.092 65.4621 109.736C65.7294 109.628 65.9966 109.52 66.2396 109.372C67.0171 108.87 67.5761 108.141 68.0945 107.438C68.1917 107.323 68.2241 107.193 68.1917 107.047C68.4347 107.037 68.6695 107.059 68.9206 107.017C68.9206 107.017 68.953 107.025 68.9853 107.033C69.042 107.081 69.1312 107.137 69.2284 107.161C70.4108 107.38 71.4716 107.95 72.5325 108.52C73.6258 109.098 74.7434 109.577 75.8934 109.927C78.0638 110.594 80.8983 111.216 83.0284 110.11C83.6602 109.78 83.223 108.774 82.5913 109.105C81.4088 109.715 80.0886 109.636 78.7928 109.458C77.6671 109.287 76.5333 109.011 75.4562 108.645C73.8769 108.087 72.4597 107.153 70.9291 106.538C71.2693 106.414 71.6095 106.289 71.9254 106.124C71.9901 106.14 72.0873 106.163 72.1683 106.114C74.76 105.363 77.4811 106.164 80.1295 105.876C81.2228 105.762 82.2919 105.47 83.2233 104.901C84.3086 104.267 85.0053 103.261 85.6776 102.215C86.0664 101.618 85.1998 100.957 84.811 101.554C84.1387 102.6 83.4422 103.606 82.2759 104.152C81.2635 104.631 80.1296 104.77 79.0201 104.81C77.4975 104.854 76.0316 104.67 74.5495 104.689C76.2909 103.626 77.9269 102.435 79.6926 101.413C82.6164 99.7393 85.767 98.9512 89.0956 99.3823C89.7921 99.4829 89.9299 98.3753 89.2334 98.2747L89.2576 98.4535ZM65.5999 108.628C64.8628 109.105 63.9314 109.12 63.073 109.118C61.6557 109.153 60.206 109.042 58.7806 108.833C60.8378 107.882 62.5712 106.022 65.0251 106.655C65.7378 106.829 66.3857 106.987 67.0659 107.153C66.6528 107.709 66.1992 108.29 65.5918 108.661L65.5999 108.628Z" fill="#FFF1AB"/>
</g>
</g>
<path d="M47.97 139.871C47.97 139.871 47.9031 139.67 47.8362 139.57C47.7694 139.436 47.6691 139.369 47.5688 139.269C47.5688 139.269 47.5352 139.269 47.5018 139.235C47.6021 138.935 47.6356 138.6 47.6356 138.266C47.6356 138.165 47.669 138.032 47.7024 137.931C47.8028 137.697 47.8697 137.463 47.9031 137.195C47.97 136.627 48.0035 136.025 48.0369 135.456C48.0703 134.353 48.0369 133.182 47.6691 132.146C47.6691 132.112 47.6356 132.045 47.6021 132.012C47.669 131.978 47.7025 131.945 47.7694 131.878C48.1707 131.443 48.2041 130.674 48.271 130.106C48.4717 128.868 48.572 127.597 48.572 126.327C48.572 125.658 48.572 124.989 48.5051 124.354C48.4717 123.785 48.4716 123.183 48.2375 122.648C48.0369 122.18 47.6021 121.845 47.067 121.879C46.5988 121.912 46.1976 122.247 46.1641 122.748C46.1307 122.849 46.0972 122.915 46.0303 123.016C45.8297 123.517 45.6625 124.086 45.5622 124.621C45.5622 124.755 45.5288 124.855 45.4953 124.989C45.4284 125.29 45.328 125.591 45.2946 125.892C45.0605 126.962 44.9936 128.133 45.1943 129.236C45.1943 129.27 45.1943 129.336 45.1943 129.37C45.2946 130.039 45.4953 130.841 45.8966 131.443C45.8966 131.577 45.8631 131.711 45.8297 131.878C45.7293 132.012 45.6625 132.179 45.5957 132.313C45.3281 132.881 45.3281 133.55 45.3281 134.186C45.3281 135.122 45.4618 136.092 45.6625 136.995C45.6959 137.262 45.7294 137.53 45.7963 137.797C45.7963 137.898 45.7963 138.032 45.7963 138.132C45.8297 138.667 45.9634 139.169 46.231 139.603C46.231 139.771 46.231 139.971 46.231 140.172C46.2644 140.473 46.3648 140.774 46.4317 141.041C46.4317 141.108 46.4986 141.175 46.532 141.276C46.532 141.376 46.5654 141.476 46.5989 141.576C46.7661 142.145 47.0336 142.647 47.4015 143.115C47.6356 143.416 48.2042 143.315 48.3045 142.914C48.5386 141.877 48.4048 140.807 47.8697 139.904L47.97 139.871Z" fill="#C4981C"/>
<path d="M41.5827 133.316C41.5827 133.316 41.5827 133.216 41.6161 133.149C41.6161 133.149 41.6161 133.082 41.6161 133.049C41.683 132.781 41.7165 132.48 41.7165 132.212C41.7165 131.644 41.7164 131.042 41.683 130.473C41.683 129.738 41.683 128.935 41.4489 128.199C41.4489 128.099 41.4489 127.999 41.4489 127.898C41.4489 127.531 41.3485 127.196 41.1479 126.862C41.3151 126.862 41.4823 126.862 41.6495 126.728C42.0174 126.46 42.0843 125.892 42.1846 125.49C42.2849 125.022 42.3852 124.521 42.4856 124.052C42.6528 122.982 42.7531 121.879 42.7865 120.775C42.7865 120.207 42.0843 120.106 41.8168 120.474C41.7833 120.474 41.7499 120.474 41.7165 120.474C41.6496 120.474 41.6161 120.541 41.5827 120.574C41.4823 120.574 41.3486 120.574 41.2817 120.641C40.546 121.21 40.3118 122.28 40.1112 123.15C39.944 123.818 39.8436 124.588 40.1112 125.256C40.1781 125.691 40.2449 126.126 40.5125 126.46C40.5459 126.494 40.5794 126.527 40.6463 126.561C40.5459 126.561 40.4456 126.628 40.3787 126.694C40.2783 126.761 40.1781 126.862 40.1447 126.995C40.0778 127.33 40.0108 127.698 39.9774 128.032C39.8102 128.835 39.7433 129.671 39.7767 130.473C39.7767 131.075 39.8771 131.677 40.0109 132.246C40.1112 132.714 40.245 133.182 40.546 133.55C40.546 133.617 40.546 133.684 40.546 133.751C40.3787 134.219 40.3788 134.687 40.4791 135.155C40.6129 135.657 40.8803 136.125 41.1144 136.593C41.2482 136.794 41.4489 136.861 41.6161 136.828C41.7834 137.095 41.984 137.363 42.1846 137.597C42.4856 137.931 43.1211 137.664 43.0876 137.229C42.9539 135.791 42.4522 134.42 41.683 133.216L41.5827 133.316Z" fill="#C4981C"/>
<path d="M55.9962 143.383C55.5615 142.68 55.227 141.811 55.1267 141.51C54.6919 140.105 54.5582 138.634 54.4579 137.196C53.1871 135.189 52.3844 132.915 52.1169 130.541C51.9831 129.17 52.0166 127.765 52.2172 126.394C52.2841 125.892 52.4179 125.19 53.0533 125.223C53.3208 125.123 53.6552 125.223 53.7555 125.524C54.0565 126.528 54.3575 127.564 54.6251 128.568C55.3943 130.039 55.7287 131.644 55.8959 133.283C55.9962 133.651 56.0966 134.052 56.1969 134.454C56.2638 134.788 56.2972 135.156 56.2304 135.49C56.2304 135.49 56.2304 135.524 56.2304 135.557C56.2304 135.658 56.2304 135.724 56.2304 135.825C56.2638 135.992 56.2972 136.126 56.3307 136.293C56.4645 137.062 56.732 137.965 56.431 138.667C56.6651 139.269 56.8657 139.838 57.033 140.44C57.0664 140.574 57.0998 140.674 57.1333 140.808C57.267 141.209 57.4008 141.644 57.5346 142.045C57.6683 142.58 57.7687 143.115 57.7018 143.65C58.6717 144.353 59.3071 145.423 59.7753 146.526C59.909 146.727 60.0428 146.928 60.1431 147.162C60.3103 147.496 60.4106 147.864 60.3437 148.199C60.4106 148.566 60.3438 149.101 59.9759 149.269C59.6081 149.436 59.2067 149.202 59.0061 148.867C58.772 148.499 58.5379 148.098 58.3373 147.697C58.2035 147.429 58.0696 147.162 57.9359 146.894C57.869 146.794 57.8021 146.694 57.7687 146.593C57.5012 146.125 57.2336 145.623 56.9995 145.122C56.9326 144.955 56.8657 144.821 56.7988 144.654C56.7319 144.654 56.6651 144.62 56.5982 144.553C56.1969 144.319 56.0297 143.851 55.8959 143.383C55.8959 143.383 55.8959 143.383 55.8959 143.349L55.9962 143.383Z" fill="#C4981C"/>
<g style="mix-blend-mode:soft-light" opacity="0.38">
<path d="M80.3027 82.0417L79.4332 84.3492L78.062 87.961L77.5938 89.1984L51.1407 159.729L50.6725 160.933L49.3014 164.578L48.4319 166.886C47.4286 166.752 46.4253 166.551 45.4221 166.351C34.8207 164.143 25.5237 158.291 18.9689 150.164C18.4338 149.495 17.8987 148.793 17.3636 148.091L18.3669 145.349L20.0056 140.867L20.5741 139.295L40.6397 84.7505L41.2083 83.1787L42.8469 78.6974L43.8503 75.9551C45.5893 75.5204 47.3617 75.2194 49.1676 74.9853C51.0738 74.7512 52.9801 74.6174 54.9532 74.6174C63.3473 74.6174 71.2063 76.8581 78.0286 80.7374C78.7644 81.1722 79.5001 81.6069 80.2024 82.0751L80.3027 82.0417Z" fill="#FFFB8C"/>
</g>
<path d="M86.1551 89.8342C84.1151 87.7942 81.8409 85.9214 79.4331 84.3161C72.477 79.6676 64.083 76.9587 55.0535 76.9587C50.8397 76.9587 46.793 77.5607 42.9471 78.6643C41.2416 79.166 39.5695 79.7345 37.9642 80.4368C32.7137 82.644 27.9649 85.8879 23.9852 89.8676C16.0259 97.8269 11.1098 108.83 11.1098 120.969C11.1098 129.965 13.8186 138.359 18.4672 145.315C20.0724 147.757 21.9452 149.997 23.9852 152.037C30.6738 158.726 39.5026 163.274 49.3682 164.545C51.241 164.779 53.1472 164.913 55.0868 164.913C67.2265 164.913 78.2292 159.997 86.1885 152.037C94.1479 144.078 99.0639 133.075 99.0639 120.936C99.0639 108.796 94.1479 97.7935 86.1885 89.8342H86.1551ZM94.8167 127.056C94.7832 127.39 94.7164 127.725 94.6495 128.059C94.5157 128.728 94.4154 129.363 94.2482 130.032C94.1813 130.367 94.081 130.668 94.0141 131.002C93.78 131.972 93.479 132.908 93.178 133.845C92.7433 135.082 92.2751 136.319 91.74 137.49C91.5728 137.891 91.3721 138.293 91.1715 138.66C90.8036 139.43 90.3688 140.199 89.9675 140.934C89.633 141.503 89.2987 142.038 88.9642 142.573C88.6298 143.108 88.262 143.643 87.8607 144.178C87.4928 144.714 87.0915 145.215 86.7236 145.717C86.3223 146.218 85.9209 146.72 85.4862 147.222C84.8508 147.957 84.2154 148.66 83.5131 149.329C82.8442 149.997 82.1419 150.666 81.4062 151.302C80.3026 152.272 79.1655 153.141 77.9616 153.977C76.5235 154.98 75.0187 155.883 73.4469 156.686C73.1794 156.82 72.9118 156.953 72.6442 157.087C67.3603 159.662 61.4075 161.1 55.1203 161.1C53.6488 161.1 52.2108 161.034 50.7728 160.866C46.0908 160.365 41.6095 159.027 37.5295 157.054C37.0947 156.82 36.6265 156.619 36.1918 156.385C35.757 156.151 35.3223 155.917 34.8876 155.649C34.4528 155.415 34.018 155.148 33.6167 154.88C31.9446 153.81 30.3393 152.606 28.8344 151.302C28.0986 150.666 27.3964 149.997 26.7276 149.329C26.3931 148.994 26.0586 148.626 25.7242 148.292C25.3898 147.924 25.0888 147.59 24.7543 147.222C24.3196 146.72 23.9183 146.252 23.517 145.75C23.1157 145.249 22.7478 144.714 22.38 144.212C22.0121 143.677 21.6443 143.142 21.2764 142.607C20.942 142.072 20.6075 141.503 20.273 140.968C20.273 140.901 20.2062 140.868 20.2062 140.834C19.8049 140.132 19.437 139.396 19.0692 138.694C18.8685 138.293 18.7013 137.925 18.5006 137.523C17.9656 136.353 17.4639 135.115 17.0626 133.878C15.6914 129.832 14.9557 125.484 14.9557 120.969C14.9557 116.454 15.6914 112.107 17.0626 108.06C17.4973 106.823 17.9656 105.586 18.5006 104.415C18.6679 104.014 18.8685 103.613 19.0692 103.245C19.437 102.475 19.8717 101.706 20.273 100.971C20.6075 100.402 20.942 99.8669 21.2764 99.3319C21.6108 98.7968 21.9786 98.2617 22.38 97.7266C22.7478 97.1915 23.1491 96.6899 23.517 96.1883C23.9183 95.6866 24.3196 95.185 24.7543 94.6833C25.0553 94.3155 25.3898 93.9476 25.7242 93.6132C26.0586 93.2787 26.3931 92.9109 26.7276 92.5764C27.3964 91.9076 28.1321 91.2387 28.8344 90.6033C30.9078 88.8309 33.1485 87.2256 35.5229 85.8879C36.3255 85.4532 37.1282 85.0184 37.9642 84.6171C38.2318 84.4833 38.5328 84.3496 38.8003 84.2492C39.3688 84.0151 39.9374 83.7476 40.5059 83.5469C40.8069 83.4466 41.0744 83.3128 41.3753 83.2125C41.7432 83.0787 42.0777 82.945 42.4455 82.8446C46.4252 81.5069 50.7059 80.8046 55.1538 80.8046C63.7151 80.8046 71.6409 83.4801 78.1622 88.0283C79.0317 88.6302 79.8678 89.2656 80.6704 89.9345C80.938 90.1686 81.2056 90.3692 81.4731 90.6033C82.2089 91.2387 82.9112 91.9076 83.58 92.5764C84.2489 93.2453 84.9177 93.9476 85.5531 94.6833C85.9879 95.185 86.3892 95.6532 86.7905 96.1548C87.1918 96.6564 87.5596 97.1915 87.9275 97.6932C88.2954 98.2283 88.6632 98.7633 89.0311 99.2984C89.3655 99.8335 89.7 100.402 90.0344 100.937C90.4692 101.673 90.8704 102.442 91.2383 103.211C91.439 103.613 91.6062 103.98 91.8069 104.382C92.342 105.552 92.8436 106.79 93.2449 108.027C93.5793 108.963 93.8469 109.9 94.0809 110.87C94.1478 111.204 94.2482 111.505 94.3151 111.839C94.4488 112.475 94.5826 113.144 94.7164 113.813C94.7833 114.147 94.8167 114.481 94.8835 114.816C94.9839 115.485 95.0843 116.154 95.1511 116.822C95.2849 118.16 95.3518 119.531 95.3518 120.936C95.3518 122.34 95.2849 123.712 95.1511 125.049C95.0843 125.718 94.9839 126.387 94.8835 127.056H94.8167Z" fill="#FAE543"/>
<g style="mix-blend-mode:multiply">
<path d="M95.0844 116.822C95.0176 116.153 94.9172 115.484 94.8168 114.816C94.7834 114.481 94.7166 114.147 94.6497 113.812C94.5159 113.143 94.3821 112.508 94.2484 111.839C94.1815 111.505 94.0811 111.204 94.0142 110.869C93.7801 109.9 93.4792 108.963 93.1782 108.027C92.7434 106.789 92.2753 105.552 91.7402 104.381C91.573 103.98 91.3723 103.579 91.1716 103.211C90.8037 102.442 90.3689 101.673 89.9676 100.937C89.6332 100.368 89.2988 99.8333 88.9644 99.2982C88.63 98.7631 88.2621 98.228 87.8608 97.693C87.4929 97.1579 87.0916 96.6562 86.7238 96.1546C86.3225 95.653 85.9211 95.1513 85.4863 94.6497C84.8509 93.9139 84.1821 93.2116 83.5132 92.5428C82.8444 91.8739 82.142 91.2051 81.4063 90.5697C81.1388 90.3356 80.8713 90.1349 80.6037 89.9008C79.8011 89.232 78.965 88.5966 78.0955 87.9946C71.5742 83.4464 63.6483 80.771 55.087 80.771C50.6391 80.771 46.3919 81.4733 42.3788 82.811C42.011 82.9448 41.6765 83.0451 41.3086 83.1789C41.0076 83.2792 40.7401 83.413 40.4391 83.5133C39.8706 83.7474 39.3021 83.9815 38.7336 84.2156C38.466 84.3494 38.1651 84.4497 37.8975 84.5835C37.0615 84.9848 36.2588 85.3861 35.4562 85.8543C33.0483 87.192 30.8076 88.7638 28.7676 90.5697C28.0319 91.2051 27.3296 91.8739 26.6607 92.5428C26.3263 92.8772 25.9919 93.2451 25.6575 93.5795C25.3231 93.9474 25.0221 94.2818 24.6876 94.6497C24.2529 95.1513 23.8516 95.6195 23.4503 96.1212C23.049 96.6228 22.6811 97.1579 22.3132 97.6595C21.9454 98.1946 21.5774 98.7297 21.2096 99.2648C20.8752 99.7998 20.5408 100.368 20.2063 100.903C19.7716 101.639 19.3703 102.408 19.0025 103.178C18.8018 103.579 18.6345 103.947 18.4339 104.348C17.8988 105.519 17.4306 106.756 16.9958 107.993C15.6247 112.04 14.889 116.387 14.889 120.902C14.889 125.417 15.6247 129.764 16.9958 133.811C17.4306 135.048 17.8988 136.286 18.4339 137.456C18.6011 137.858 18.8018 138.259 19.0025 138.627C19.3703 139.362 19.7382 140.065 20.1395 140.767C20.1395 140.767 20.1729 140.867 20.2063 140.901C20.5408 141.469 20.8752 142.004 21.2096 142.54C21.544 143.075 21.9119 143.61 22.3132 144.145C22.6811 144.68 23.0824 145.181 23.4503 145.683C23.8516 146.185 24.2529 146.686 24.6876 147.188C24.9886 147.556 25.3231 147.924 25.6575 148.258C25.9919 148.593 26.3263 148.961 26.6607 149.295C27.3296 149.964 28.0654 150.633 28.7676 151.268C30.2726 152.572 31.8778 153.776 33.5499 154.846C33.9847 155.114 34.386 155.381 34.8208 155.616C35.2555 155.85 35.6903 156.117 36.1251 156.351C36.5598 156.585 37.028 156.82 37.4628 157.02C41.5428 158.993 45.9906 160.331 50.706 160.833C52.144 161 53.5821 161.067 55.0536 161.067C61.3408 161.067 67.2936 159.629 72.5775 157.054C72.8451 156.92 73.1126 156.786 73.3801 156.652C74.9519 155.85 76.4568 154.947 77.8949 153.943C79.0988 153.107 80.2359 152.204 81.3395 151.268C82.0752 150.633 82.7775 149.964 83.4464 149.295C84.1152 148.626 84.7841 147.89 85.4195 147.188C85.8542 146.686 86.2555 146.218 86.6568 145.717C87.0581 145.215 87.426 144.68 87.7939 144.178C88.1617 143.643 88.5297 143.108 88.8975 142.573C89.232 142.038 89.5663 141.469 89.9008 140.934C90.3355 140.199 90.7369 139.429 91.1048 138.66C91.3054 138.259 91.4726 137.891 91.6732 137.49C92.2083 136.319 92.6765 135.082 93.1112 133.844C93.4122 132.908 93.7132 131.972 93.9473 131.002C94.0142 130.667 94.1145 130.366 94.1814 130.032C94.3152 129.397 94.4489 128.728 94.5827 128.059C94.6496 127.724 94.6831 127.39 94.75 127.056C94.8503 126.387 94.9506 125.718 95.0175 125.049C95.1513 123.711 95.2181 122.34 95.2181 120.936C95.2181 119.531 95.1513 118.16 95.0175 116.822H95.0844ZM82.6103 148.492C75.5539 155.549 65.8221 159.896 55.0536 159.896C53.7493 159.896 52.445 159.829 51.1408 159.696C41.9441 158.793 33.6838 154.679 27.4634 148.492C24.7546 145.783 22.447 142.673 20.6076 139.262C17.6981 133.811 16.026 127.557 16.026 120.936C16.026 110.167 20.3736 100.435 27.43 93.3789C31.1755 89.6333 35.6568 86.6569 40.6397 84.6838C45.0876 82.9113 49.9034 81.9415 54.9867 81.9415C63.4142 81.9415 71.1729 84.6169 77.5604 89.1317C79.3329 90.4025 81.0051 91.8071 82.5435 93.3454C89.5998 100.402 93.9473 110.134 93.9473 120.902C93.9473 131.671 89.5998 141.402 82.5435 148.459L82.6103 148.492Z" fill="#F6F39E"/>
</g>
<path d="M108.997 0.106934H88.7306L44.8539 73.3797H65.1201L108.997 0.106934Z" fill="#FFF024"/>
</svg>
