<svg width="109" height="168" viewBox="0 0 109 168" fill="none" xmlns="http://www.w3.org/2000/svg">
<path d="M0.977295 0.106934H21.2487L65.11 73.372H44.8643L0.977295 0.106934Z" fill="#BA3F3F"/>
<path d="M64.698 79.5973V78.6454H45.4299C44.6839 78.6454 44.015 78.3367 43.5262 77.848C43.0375 77.3592 42.7288 76.6903 42.7288 75.9443C42.7288 75.1983 43.0375 74.5294 43.5262 74.0406C44.015 73.5519 44.6839 73.2432 45.4299 73.2432H64.698C65.444 73.2432 66.1129 73.5519 66.6017 74.0406C67.0904 74.5294 67.3991 75.1983 67.3991 75.9443C67.3991 76.6903 67.0904 77.3592 66.6017 77.848C66.1129 78.3367 65.444 78.6454 64.698 78.6454V80.5234C67.2191 80.5234 69.2771 78.4654 69.2771 75.9443C69.2771 73.4232 67.2191 71.3652 64.698 71.3652H45.4299C42.9088 71.3652 40.8508 73.4232 40.8508 75.9443C40.8508 78.4654 42.9088 80.5234 45.4299 80.5234H64.698V79.5715V79.5973Z" fill="#E0C64C"/>
<path d="M101.46 120.938C101.46 146.56 80.6994 167.32 55.0772 167.32C52.8392 167.32 50.6525 167.166 48.5173 166.857C47.5141 166.702 46.5108 166.548 45.5332 166.342C34.9088 164.13 25.6477 158.265 19.0621 150.136C18.5219 149.467 17.9816 148.772 17.4671 148.052C12.3479 140.952 9.15794 132.334 8.77206 122.996C8.77206 122.661 8.77206 122.327 8.74634 121.992C8.74634 121.632 8.74634 121.272 8.74634 120.938C8.74634 120.552 8.74634 120.14 8.74634 119.754C9.28656 98.5052 24.1299 80.7806 44.0154 75.8929C45.739 75.4556 47.5398 75.1469 49.3405 74.9153C51.2442 74.6838 53.1736 74.5552 55.1287 74.5552C63.5151 74.5552 71.387 76.7933 78.2041 80.6777C78.9501 81.1151 79.6704 81.5524 80.3907 82.0155C93.1247 90.2732 101.537 104.628 101.537 120.912L101.46 120.938Z" fill="#E0C64C"/>
<path d="M82.8856 110.133C82.8856 107.329 81.0334 104.833 77.5862 104.833C79.2326 99.7912 75.5539 96.8843 71.6437 96.8843C70.6662 96.8843 69.7401 97.0643 68.8654 97.3988C68.7625 93.4886 65.4954 90.3501 61.4566 90.3501C57.9065 90.3501 54.9224 92.794 54.2021 96.0353C53.1731 95.5208 51.9898 95.2121 50.755 95.2121C48.2082 95.2121 45.9701 96.4469 44.6324 98.3506C43.6291 97.4759 42.3171 96.9614 40.8765 96.9614C37.8152 96.9614 35.3199 99.3539 35.2427 102.312C34.5996 102.055 33.8793 101.901 33.1333 101.901C30.1749 101.901 27.3708 104.113 28.6056 107.946C25.9817 107.946 24.5925 109.85 24.5925 111.985C24.5925 114.943 26.8306 117.361 29.7375 117.773C29.9691 119.548 31.2811 121.066 33.159 121.529C33.905 121.709 34.651 121.683 35.3199 121.529C35.2684 123.561 36.6833 125.413 38.7928 125.902C41.1852 126.468 43.6034 125.053 44.2465 122.764C44.7096 123.072 45.2241 123.33 45.8157 123.458C47.1792 123.793 48.6712 123.458 49.5973 122.506C50.755 125.002 53.3532 126.751 56.363 126.751C58.3953 126.751 60.2475 125.954 61.5852 124.667C62.1512 124.77 62.7686 124.745 63.3603 124.59C63.9519 124.462 64.4664 124.204 64.9295 123.896C65.5726 126.211 67.965 127.6 70.3832 127.034C72.4927 126.545 73.9075 124.667 73.8561 122.661C74.5507 122.841 75.2967 122.841 76.017 122.661C78.4609 122.095 79.9529 119.702 79.3613 117.336C79.3355 117.181 79.2841 117.053 79.2326 116.924C79.5671 116.667 79.85 116.358 80.1073 116.049C81.8309 114.635 82.9371 112.525 82.9371 110.158L82.8856 110.133Z" fill="#EFDF6A"/>
<path d="M81.3934 114.686C82.0622 113.529 82.7054 112.139 82.7054 110.982C82.7054 108.152 80.6216 105.528 77.2002 105.528C78.8466 100.46 75.4252 97.6305 71.5664 97.6305C70.5888 97.6305 69.6627 97.8363 68.8138 98.1707C68.7109 94.2347 65.4695 91.0706 61.4564 91.0706C57.9321 91.0706 54.9994 93.5144 54.2791 96.8073C53.2501 96.267 52.0925 95.9583 50.8577 95.9583C48.3366 95.9583 46.1243 97.2189 44.7866 99.1225C43.7833 98.2479 42.497 97.7076 41.0564 97.7076C38.0209 97.7076 35.5255 100.126 35.4741 103.11C34.831 102.853 34.1364 102.724 33.3903 102.724C30.4577 102.724 27.6794 104.962 28.9142 108.821C27.3449 108.821 24.6438 110.827 25.6214 114.815C25.7243 115.226 25.9301 115.561 26.1616 115.947C25.6214 115.355 25.0811 114.609 24.8239 113.606C23.7949 109.644 26.5732 107.612 28.1939 107.612C26.9076 103.753 29.7631 101.515 32.7987 101.515C33.5704 101.515 34.2907 101.669 34.9339 101.927C35.011 98.9167 37.5578 96.5243 40.6963 96.5243C42.1626 96.5243 43.5003 97.0645 44.5036 97.9392C45.867 96.0355 48.1566 94.775 50.7548 94.775C52.0153 94.775 53.2244 95.0837 54.2791 95.6239C55.0252 92.3311 58.0607 89.8872 61.6622 89.8872C65.7782 89.8872 69.1225 93.0514 69.2254 96.9873C70.1001 96.6529 71.0519 96.4471 72.0552 96.4471C76.0426 96.4471 79.7984 99.4055 78.1006 104.473C81.5992 104.473 83.5028 106.994 83.5028 109.824C83.5028 111.393 82.268 113.477 81.3934 114.712V114.686Z" fill="#D1BA00"/>
<path d="M54.4335 112.14C54.2791 112.603 54.099 113.014 53.8161 113.4C53.919 113.22 53.9961 113.014 54.0476 112.809C54.7936 110.39 53.3787 107.844 50.8834 107.123C49.3913 106.686 47.8736 106.995 46.7159 107.844C46.5359 107.972 46.3558 108.127 46.2014 108.281C46.1243 108.101 46.0471 107.946 45.9442 107.766C45.2753 106.635 44.1949 105.734 42.8314 105.323C40.0017 104.499 37.0176 106.069 36.1686 108.821C36.0915 109.104 36.0143 109.361 35.9886 109.644C35.9628 109.85 35.9371 110.082 35.9371 110.287C35.8599 110.262 35.7828 110.236 35.7056 110.21C35.7056 110.21 35.7056 110.21 35.6799 110.21C34.2393 109.824 32.7729 110.596 32.3356 111.985C32.1812 112.474 32.1812 112.989 32.3356 113.452C32.0269 112.834 31.9497 112.14 32.1813 111.445C32.6443 110.004 34.1878 109.156 35.6799 109.541C35.6799 109.053 35.757 108.564 35.9114 108.101C36.8118 105.168 39.976 103.496 42.9858 104.371C44.5807 104.834 45.8156 105.914 46.4587 107.252C47.6935 106.197 49.4171 105.76 51.1149 106.249C53.6874 106.995 55.1795 109.644 54.4077 112.165L54.4335 112.14Z" fill="#EBD847"/>
<path d="M73.0587 117.027C72.75 117.156 72.4156 117.259 72.0811 117.284C72.2355 117.233 72.3641 117.182 72.5185 117.13C74.1906 116.384 74.9366 114.48 74.1649 112.86C73.7018 111.882 72.8272 111.239 71.8496 111.033C71.6953 111.008 71.5409 110.982 71.3608 110.982C71.4123 110.853 71.4637 110.75 71.5152 110.622C71.8239 109.747 71.8239 108.769 71.3866 107.869C70.5376 106.017 68.2738 105.194 66.3959 106.043C66.2158 106.12 66.0357 106.223 65.8557 106.326C65.727 106.403 65.5984 106.506 65.4698 106.609C65.4698 106.557 65.4183 106.506 65.3926 106.454C64.9553 105.528 63.8234 105.117 62.8715 105.554C62.5371 105.708 62.2541 105.94 62.0483 106.223C62.2284 105.785 62.5886 105.425 63.0773 105.194C64.0806 104.756 65.264 105.168 65.7528 106.12C66.01 105.888 66.3187 105.708 66.6531 105.58C68.6854 104.679 71.0521 105.58 71.9782 107.535C72.467 108.564 72.4413 109.696 72.004 110.673C73.1616 110.802 74.2163 111.522 74.7051 112.628C75.5026 114.326 74.7051 116.307 72.9815 117.079L73.0587 117.027Z" fill="#EBD847"/>
<path d="M80.0298 133.491C79.6953 132.668 77.0971 130.687 77.0971 130.687C77.0971 130.687 76.6598 133.928 77.0199 134.752C77.3801 135.575 78.3062 135.961 79.1551 135.601C80.004 135.24 80.3899 134.314 80.0555 133.491H80.0298Z" fill="#EFDF6A"/>
<path d="M77.8944 134.366C77.2513 133.826 77.1484 132.54 77.1484 132.54C77.1484 132.54 77.0969 134.186 77.1998 134.546C77.3799 135.086 77.7658 135.344 78.0487 135.086C78.2545 134.906 78.1259 134.572 77.8944 134.366Z" fill="#FAF6D3"/>
<path d="M79.3352 133.851C79.2838 132.745 77.6631 131.33 77.6631 131.33C77.6631 131.33 79.541 132.899 79.7725 133.388C80.1327 134.134 79.8497 134.983 79.4381 134.957C79.1551 134.957 79.3609 134.263 79.3352 133.851Z" fill="#EBD847"/>
<path d="M79.8238 126.313C79.5923 125.721 77.7144 124.306 77.7144 124.306C77.7144 124.306 77.4057 126.622 77.6629 127.213C77.9202 127.805 78.589 128.062 79.1807 127.831C79.7724 127.599 80.0553 126.905 79.8238 126.313Z" fill="#EFDF6A"/>
<path d="M78.306 126.93C77.843 126.545 77.7658 125.618 77.7658 125.618C77.7658 125.618 77.7143 126.802 77.8172 127.059C77.9459 127.445 78.2031 127.625 78.4346 127.445C78.589 127.316 78.4861 127.059 78.306 126.93Z" fill="#FAF6D3"/>
<path d="M79.3351 126.571C79.3093 125.773 78.126 124.77 78.126 124.77C78.126 124.77 79.4894 125.902 79.6438 126.236C79.901 126.777 79.6952 127.368 79.4122 127.368C79.2064 127.368 79.3608 126.879 79.3351 126.571Z" fill="#EBD847"/>
<path d="M37.4288 127.343C37.1715 126.7 35.0878 125.131 35.0878 125.131C35.0878 125.131 34.7533 127.703 35.0106 128.346C35.2678 128.989 36.0396 129.298 36.7085 129.015C37.3773 128.732 37.686 127.986 37.4288 127.343Z" fill="#EFDF6A"/>
<path d="M35.731 128.038C35.2165 127.626 35.1393 126.597 35.1393 126.597C35.1393 126.597 35.0879 127.909 35.1908 128.192C35.3451 128.629 35.6281 128.835 35.8596 128.629C36.014 128.475 35.9111 128.218 35.731 128.063V128.038Z" fill="#FAF6D3"/>
<path d="M36.8885 127.626C36.8628 126.751 35.5508 125.619 35.5508 125.619C35.5508 125.619 37.0428 126.854 37.2229 127.24C37.5059 127.831 37.2744 128.5 36.9657 128.475C36.7341 128.475 36.8885 127.934 36.8885 127.6V127.626Z" fill="#EBD847"/>
<path d="M64.6464 128.218C64.312 127.395 61.7138 125.439 61.7138 125.439C61.7138 125.439 61.3022 128.655 61.6366 129.478C61.971 130.301 62.9228 130.662 63.746 130.327C64.5692 129.993 64.9808 129.041 64.6464 128.243V128.218Z" fill="#EFDF6A"/>
<path d="M62.537 129.092C61.8938 128.578 61.7909 127.266 61.7909 127.266C61.7909 127.266 61.7395 128.912 61.8424 129.272C62.0225 129.813 62.3826 130.07 62.6913 129.813C62.8971 129.633 62.7685 129.298 62.537 129.092Z" fill="#FAF6D3"/>
<path d="M63.9776 128.578C63.9261 127.472 62.3054 126.083 62.3054 126.083C62.3054 126.083 64.1834 127.652 64.4149 128.115C64.775 128.861 64.4921 129.71 64.0805 129.684C63.7975 129.684 64.0033 128.989 63.9776 128.578Z" fill="#EBD847"/>
<path d="M72.75 131.175C72.4413 130.429 70.0746 128.629 70.0746 128.629C70.0746 128.629 69.6887 131.587 69.9974 132.307C70.3061 133.028 71.1807 133.388 71.9268 133.079C72.6728 132.77 73.0587 131.896 72.75 131.175Z" fill="#EFDF6A"/>
<path d="M70.8204 131.973C70.2287 131.485 70.1515 130.301 70.1515 130.301C70.1515 130.301 70.1001 131.793 70.203 132.128C70.3831 132.617 70.7175 132.848 70.9747 132.617C71.1548 132.436 71.0519 132.153 70.8204 131.948V131.973Z" fill="#FAF6D3"/>
<path d="M72.1325 131.51C72.1068 130.507 70.6147 129.22 70.6147 129.22C70.6147 129.22 72.3383 130.635 72.5441 131.098C72.8528 131.767 72.6213 132.539 72.2354 132.513C71.9782 132.513 72.1583 131.896 72.1325 131.51Z" fill="#EBD847"/>
<path d="M48.2597 125.876C48.0024 125.258 46.0216 123.741 46.0216 123.741C46.0216 123.741 45.6872 126.21 45.9444 126.853C46.2017 127.497 46.922 127.78 47.5651 127.497C48.2082 127.214 48.5169 126.519 48.2597 125.876Z" fill="#EFDF6A"/>
<path d="M46.6389 126.545C46.1501 126.133 46.0729 125.156 46.0729 125.156C46.0729 125.156 46.0215 126.416 46.1244 126.699C46.2787 127.111 46.5617 127.316 46.7675 127.111C46.9218 126.956 46.8189 126.699 46.6389 126.545Z" fill="#FAF6D3"/>
<path d="M47.745 126.159C47.7193 125.31 46.4587 124.23 46.4587 124.23C46.4587 124.23 47.8993 125.439 48.0794 125.799C48.3367 126.365 48.1309 127.008 47.8222 127.008C47.5906 127.008 47.745 126.494 47.745 126.159Z" fill="#EBD847"/>
<path d="M74.653 149.003C74.3957 148.386 72.4149 146.868 72.4149 146.868C72.4149 146.868 72.0805 149.338 72.3377 149.981C72.595 150.624 73.3153 150.907 73.9584 150.624C74.6016 150.341 74.9103 149.646 74.653 149.003Z" fill="#EFDF6A"/>
<path d="M73.0324 149.698C72.5437 149.286 72.4665 148.309 72.4665 148.309C72.4665 148.309 72.415 149.569 72.5179 149.852C72.6723 150.264 72.9553 150.47 73.1611 150.264C73.3154 150.11 73.2125 149.852 73.0324 149.698Z" fill="#FAF6D3"/>
<path d="M74.1385 149.312C74.1128 148.463 72.8523 147.383 72.8523 147.383C72.8523 147.383 74.2929 148.592 74.473 148.952C74.7302 149.518 74.5244 150.161 74.2157 150.161C73.9842 150.161 74.1385 149.646 74.1385 149.312Z" fill="#EBD847"/>
<path d="M55.5907 133.568C55.1534 132.514 51.7577 129.916 51.7577 129.916C51.7577 129.916 51.1917 134.134 51.6548 135.189C52.1178 136.244 53.3269 136.733 54.4331 136.295C55.5393 135.858 56.0538 134.623 55.5907 133.543V133.568Z" fill="#EFDF6A"/>
<path d="M52.8384 134.726C52.0152 134.031 51.8608 132.359 51.8608 132.359C51.8608 132.359 51.7837 134.494 51.938 134.957C52.1695 135.677 52.6583 136.012 53.0442 135.677C53.3272 135.446 53.1471 135.009 52.8384 134.726Z" fill="#FAF6D3"/>
<path d="M54.7162 134.058C54.6647 132.617 52.5295 130.791 52.5295 130.791C52.5295 130.791 54.9734 132.823 55.2821 133.466C55.7452 134.418 55.385 135.524 54.8448 135.498C54.4589 135.498 54.7419 134.598 54.7162 134.058Z" fill="#EBD847"/>
<path d="M62.2278 136.604C61.9191 135.858 59.5523 134.057 59.5523 134.057C59.5523 134.057 59.1665 137.016 59.4752 137.736C59.7839 138.456 60.6585 138.816 61.4046 138.508C62.1506 138.199 62.5365 137.324 62.2278 136.604Z" fill="#EFDF6A"/>
<path d="M60.2984 137.401C59.7067 136.912 59.6296 135.729 59.6296 135.729C59.6296 135.729 59.5781 137.221 59.681 137.555C59.8611 138.044 60.1955 138.276 60.4528 138.044C60.6328 137.864 60.5299 137.581 60.2984 137.375V137.401Z" fill="#FAF6D3"/>
<path d="M61.6103 136.964C61.5846 135.961 60.0925 134.674 60.0925 134.674C60.0925 134.674 61.8161 136.089 62.0219 136.552C62.3306 137.221 62.0991 137.993 61.7132 137.967C61.456 137.967 61.636 137.35 61.6103 136.964Z" fill="#EBD847"/>
<path d="M56.903 128.295C56.6457 127.678 54.6649 126.16 54.6649 126.16C54.6649 126.16 54.3305 128.63 54.5877 129.273C54.845 129.916 55.5653 130.199 56.2084 129.916C56.8515 129.633 57.1603 128.938 56.903 128.295Z" fill="#EFDF6A"/>
<path d="M55.2822 128.99C54.7934 128.578 54.7162 127.601 54.7162 127.601C54.7162 127.601 54.6648 128.861 54.7677 129.144C54.922 129.556 55.205 129.761 55.4108 129.556C55.5652 129.401 55.4623 129.144 55.2822 128.99Z" fill="#FAF6D3"/>
<path d="M56.3885 128.604C56.3628 127.755 55.1023 126.674 55.1023 126.674C55.1023 126.674 56.5429 127.883 56.723 128.244C56.9802 128.81 56.7744 129.453 56.4657 129.453C56.2342 129.453 56.3885 128.938 56.3885 128.604Z" fill="#EBD847"/>
<path d="M62.2536 153.788C61.9963 153.17 60.0155 151.653 60.0155 151.653C60.0155 151.653 59.6811 154.122 59.9383 154.765C60.1956 155.408 60.9159 155.691 61.559 155.408C62.2021 155.125 62.5108 154.431 62.2536 153.788Z" fill="#EFDF6A"/>
<path d="M60.6328 154.457C60.144 154.045 60.0668 153.068 60.0668 153.068C60.0668 153.068 60.0154 154.328 60.1183 154.611C60.2726 155.023 60.5556 155.229 60.7614 155.023C60.9157 154.868 60.8128 154.611 60.6328 154.457Z" fill="#FAF6D3"/>
<path d="M61.7391 154.07C61.7134 153.222 60.4529 152.141 60.4529 152.141C60.4529 152.141 61.8935 153.35 62.0736 153.71C62.3308 154.276 62.125 154.919 61.8163 154.919C61.5848 154.919 61.7391 154.405 61.7391 154.07Z" fill="#EBD847"/>
<path d="M53.3268 150.521C52.8895 149.466 49.4938 146.868 49.4938 146.868C49.4938 146.868 48.9278 151.087 49.3909 152.142C49.8539 153.197 51.063 153.685 52.1692 153.248C53.2754 152.811 53.7899 151.576 53.3268 150.495V150.521Z" fill="#EFDF6A"/>
<path d="M50.5742 151.678C49.751 150.983 49.5967 149.311 49.5967 149.311C49.5967 149.311 49.5195 151.446 49.6739 151.91C49.9054 152.63 50.3942 152.964 50.78 152.63C51.063 152.398 50.8829 151.961 50.5742 151.678Z" fill="#FAF6D3"/>
<path d="M52.452 151.01C52.4006 149.569 50.2654 147.743 50.2654 147.743C50.2654 147.743 52.7093 149.775 53.018 150.418C53.481 151.37 53.1209 152.476 52.5806 152.451C52.1948 152.451 52.4777 151.55 52.452 151.01Z" fill="#EBD847"/>
<path d="M58.5237 142.289C58.215 141.543 55.8482 139.742 55.8482 139.742C55.8482 139.742 55.4624 142.701 55.7711 143.421C56.0798 144.141 56.9544 144.501 57.7004 144.193C58.4465 143.884 58.8324 143.009 58.5237 142.289Z" fill="#EFDF6A"/>
<path d="M56.5943 143.086C56.0026 142.597 55.9255 141.414 55.9255 141.414C55.9255 141.414 55.874 142.906 55.9769 143.241C56.157 143.729 56.4914 143.961 56.7487 143.729C56.9287 143.549 56.8258 143.266 56.5943 143.06V143.086Z" fill="#FAF6D3"/>
<path d="M57.9062 142.623C57.8805 141.62 56.3884 140.334 56.3884 140.334C56.3884 140.334 58.112 141.749 58.3178 142.212C58.6265 142.881 58.395 143.652 58.0091 143.627C57.7519 143.627 57.9319 143.009 57.9062 142.623Z" fill="#EBD847"/>
<path d="M50.42 141.028C50.0599 140.179 47.3587 138.095 47.3587 138.095C47.3587 138.095 46.9214 141.491 47.2558 142.34C47.5903 143.189 48.5935 143.601 49.4682 143.215C50.3429 142.829 50.7545 141.877 50.42 141.002V141.028Z" fill="#EFDF6A"/>
<path d="M48.1818 141.954C47.513 141.388 47.4101 140.051 47.4101 140.051C47.4101 140.051 47.3586 141.774 47.4872 142.134C47.693 142.7 48.0789 142.983 48.3619 142.7C48.5934 142.494 48.4391 142.16 48.1818 141.954Z" fill="#FAF6D3"/>
<path d="M49.6997 141.414C49.6483 140.256 47.9504 138.79 47.9504 138.79C47.9504 138.79 49.9313 140.436 50.1628 140.925C50.523 141.697 50.24 142.597 49.8026 142.572C49.4939 142.572 49.6997 141.851 49.6997 141.414Z" fill="#EBD847"/>
<path d="M40.5934 135.523C40.259 134.7 37.6608 132.745 37.6608 132.745C37.6608 132.745 37.2492 135.961 37.5836 136.784C37.918 137.607 38.8699 137.967 39.6931 137.633C40.5163 137.298 40.9279 136.347 40.5934 135.549V135.523Z" fill="#EFDF6A"/>
<path d="M38.4584 136.398C37.8152 135.884 37.7123 134.572 37.7123 134.572C37.7123 134.572 37.6609 136.218 37.7638 136.578C37.9439 137.118 38.304 137.376 38.6127 137.118C38.8185 136.938 38.6899 136.604 38.4584 136.398Z" fill="#FAF6D3"/>
<path d="M39.8989 135.909C39.8475 134.803 38.2268 133.414 38.2268 133.414C38.2268 133.414 40.1047 134.983 40.3363 135.446C40.6964 136.192 40.4134 137.041 40.0018 137.015C39.7189 137.015 39.9247 136.321 39.8989 135.909Z" fill="#EBD847"/>
<path d="M45.1213 146.07C44.8126 145.324 42.4459 143.524 42.4459 143.524C42.4459 143.524 42.06 146.482 42.3687 147.202C42.6774 147.923 43.5521 148.283 44.2981 147.974C45.0441 147.665 45.43 146.791 45.1213 146.07Z" fill="#EFDF6A"/>
<path d="M43.192 146.868C42.6003 146.38 42.5231 145.196 42.5231 145.196C42.5231 145.196 42.4717 146.688 42.5746 147.023C42.7546 147.512 43.0891 147.743 43.3463 147.512C43.5264 147.331 43.4235 147.048 43.192 146.843V146.868Z" fill="#FAF6D3"/>
<path d="M44.5039 146.431C44.4781 145.428 42.9861 144.142 42.9861 144.142C42.9861 144.142 44.7097 145.556 44.9155 146.02C45.2242 146.688 44.9926 147.46 44.6068 147.434C44.3495 147.434 44.5296 146.817 44.5039 146.431Z" fill="#EBD847"/>
<path d="M47.4618 133.053C47.2046 132.436 45.2238 130.918 45.2238 130.918C45.2238 130.918 44.8893 133.388 45.1466 134.031C45.4038 134.674 46.1241 134.957 46.7673 134.674C47.4104 134.391 47.7191 133.696 47.4618 133.053Z" fill="#EFDF6A"/>
<path d="M45.8413 133.722C45.3525 133.311 45.2753 132.333 45.2753 132.333C45.2753 132.333 45.2239 133.594 45.3268 133.877C45.4811 134.288 45.7641 134.494 45.9699 134.288C46.1242 134.134 46.0213 133.877 45.8413 133.722Z" fill="#FAF6D3"/>
<path d="M46.9474 133.336C46.9217 132.487 45.6611 131.407 45.6611 131.407C45.6611 131.407 47.1017 132.616 47.2818 132.976C47.5391 133.542 47.3333 134.185 47.0246 134.185C46.793 134.185 46.9474 133.671 46.9474 133.336Z" fill="#EBD847"/>
<path d="M70.0228 138.714C69.6627 137.813 66.8072 135.652 66.8072 135.652C66.8072 135.652 66.3441 139.202 66.7043 140.103C67.0644 141.003 68.1192 141.415 69.0453 141.029C69.9714 140.643 70.4087 139.614 70.0228 138.714Z" fill="#EFDF6A"/>
<path d="M67.7076 139.691C67.0131 139.099 66.8844 137.684 66.8844 137.684C66.8844 137.684 66.833 139.485 66.9616 139.871C67.1674 140.462 67.579 140.745 67.8877 140.462C68.1192 140.257 67.9649 139.896 67.7076 139.665V139.691Z" fill="#FAF6D3"/>
<path d="M69.3023 139.125C69.2509 137.916 67.4758 136.372 67.4758 136.372C67.4758 136.372 69.5338 138.096 69.7911 138.61C70.177 139.408 69.8683 140.359 69.4309 140.334C69.0965 140.334 69.328 139.588 69.328 139.125H69.3023Z" fill="#EBD847"/>
<path d="M76.8137 141.235C76.505 140.489 74.1383 138.688 74.1383 138.688C74.1383 138.688 73.7524 141.646 74.0611 142.366C74.3698 143.087 75.2445 143.447 75.9905 143.138C76.7365 142.829 77.1224 141.955 76.8137 141.235Z" fill="#EFDF6A"/>
<path d="M74.8844 142.057C74.2927 141.568 74.2155 140.385 74.2155 140.385C74.2155 140.385 74.164 141.877 74.267 142.211C74.447 142.7 74.7815 142.932 75.0387 142.7C75.2188 142.52 75.1159 142.237 74.8844 142.031V142.057Z" fill="#FAF6D3"/>
<path d="M76.1965 141.595C76.1708 140.591 74.6787 139.305 74.6787 139.305C74.6787 139.305 76.4023 140.72 76.6081 141.183C76.9168 141.852 76.6853 142.624 76.2994 142.598C76.0421 142.598 76.2222 141.981 76.1965 141.595Z" fill="#EBD847"/>
<path d="M65.9059 146.07C65.6487 145.453 63.6678 143.935 63.6678 143.935C63.6678 143.935 63.3334 146.405 63.5907 147.048C63.8479 147.691 64.5682 147.974 65.2114 147.691C65.8545 147.408 66.1632 146.713 65.9059 146.07Z" fill="#EFDF6A"/>
<path d="M64.2856 146.739C63.7968 146.328 63.7196 145.35 63.7196 145.35C63.7196 145.35 63.6682 146.611 63.7711 146.894C63.9255 147.305 64.2084 147.511 64.4142 147.305C64.5686 147.151 64.4657 146.894 64.2856 146.739Z" fill="#FAF6D3"/>
<path d="M65.3915 146.354C65.3658 145.505 64.1052 144.424 64.1052 144.424C64.1052 144.424 65.5458 145.633 65.7259 145.994C65.9832 146.56 65.7774 147.203 65.4687 147.203C65.2371 147.203 65.3915 146.688 65.3915 146.354Z" fill="#EBD847"/>
<path opacity="0.47" d="M46.1498 111.136C44.8635 110.802 43.6287 111.136 42.8827 111.857C42.7798 110.493 41.6479 109.387 40.233 109.387C38.7409 109.387 37.5576 110.596 37.5576 112.062C37.5576 112.268 37.6348 112.448 37.6862 112.654C37.5319 112.603 37.3518 112.551 37.146 112.551C36.2713 112.551 35.551 113.271 35.551 114.146C35.551 115.021 36.2713 115.741 37.146 115.741C37.4804 115.741 37.7634 115.612 38.0206 115.432C38.0206 115.535 37.9692 115.612 37.9692 115.741C37.9692 117.233 39.1783 118.442 40.6703 118.442C42.1624 118.442 43.3715 117.233 43.3715 115.741C43.3715 115.664 43.3457 115.587 43.32 115.51C43.7316 115.844 44.2204 116.153 44.7863 116.307C46.5614 116.77 48.3107 115.998 48.6965 114.558C49.0824 113.117 47.9248 111.574 46.1498 111.111V111.136Z" fill="#FAF6D3"/>
<path opacity="0.27" d="M71.3867 115.92C70.615 116.692 69.2001 116.538 68.2483 115.586C68.0425 115.38 67.8881 115.149 67.7595 114.917C67.4765 115.715 66.7305 116.255 65.8558 116.255C64.6982 116.255 63.7721 115.329 63.7721 114.197C63.7721 114.042 63.8493 113.888 63.875 113.734C63.1033 113.785 62.3315 113.219 62.0485 112.267C61.7655 111.367 62.0485 110.492 62.6659 110.081C62.3572 109.798 62.1514 109.386 62.1514 108.923C62.1514 108.023 62.8974 107.302 63.7721 107.302C64.441 107.302 65.0326 107.688 65.2642 108.28C65.7529 107.843 66.3703 107.56 67.0649 107.56C68.557 107.56 69.766 108.795 69.766 110.287C69.766 110.955 69.5088 111.547 69.1229 112.01C69.766 111.984 70.4864 112.242 71.0523 112.808C72.0041 113.759 72.1328 115.149 71.3867 115.92Z" fill="#FAF6D3"/>
<path opacity="0.47" d="M66.5498 97.9132C67.0129 99.4567 66.4727 100.563 67.0643 99.5854C67.656 98.6078 67.5017 95.3922 65.2379 93.4113C63.0512 91.482 60.2729 92.1251 59.7327 92.6653C59.1925 93.2055 59.3983 94.4403 61.5335 94.1059C63.6686 93.7715 66.0868 96.3697 66.5498 97.9132Z" fill="#FAF6D3"/>
<path opacity="0.47" d="M81.239 109.155C80.9561 108.306 80.21 107.56 79.5669 107.457C78.9238 107.354 78.3835 107.843 78.3835 108.306C78.4093 109.207 80.6731 109.335 80.5702 111.805C80.4673 114.274 78.898 114.532 79.0524 114.763C79.2067 114.995 80.1586 114.712 80.8274 113.786C81.4191 112.962 81.7535 110.853 81.2133 109.155H81.239Z" fill="#FAF6D3"/>
<path opacity="0.47" d="M70.1775 112.834C70.1775 112.834 71.4894 113.657 71.3608 114.815C71.2322 115.972 69.9974 116.281 69.4829 115.869C68.9684 115.458 69.7659 115.149 70.1775 114.969C70.5891 114.789 70.6405 113.605 70.2032 112.834H70.1775Z" fill="#FAF6D3"/>
<path d="M31.4093 117.644C31.1778 118.442 31.7695 120.526 36.0655 120.346C36.0655 120.346 36.0398 124.153 39.4355 124.642C42.8312 125.13 43.9374 121.812 44.0146 121.529C44.0146 121.529 47.6161 123.561 49.494 121.529C49.494 121.529 52.3495 125.774 56.3369 125.439C60.3243 125.105 60.9674 123.175 60.9674 123.175C60.9674 123.175 62.5109 124.127 64.1059 122.764C65.7009 121.4 64.0802 121.066 62.8196 122.378C62.0736 123.15 60.633 122.043 60.633 122.043C60.633 122.043 60.0413 123.921 57.8804 124.05C55.7195 124.179 52.684 125.053 50.0085 120.963C50.0085 120.963 49.3911 120.423 48.3879 121.246C46.7672 122.609 44.9407 121.375 44.2718 120.577C43.603 119.78 43.32 123.587 40.7475 123.716C38.175 123.844 37.146 121.272 36.9402 120.011C36.7344 118.751 36.0913 119.96 34.7536 119.522C33.4159 119.085 31.6666 116.821 31.435 117.644H31.4093Z" fill="#EBD847"/>
<g style="mix-blend-mode:soft-light" opacity="0.38">
<path d="M80.3139 82.0413L79.4392 84.3309L78.0758 87.9581L77.6128 89.1929L51.1673 159.731L50.7043 160.94L49.3409 164.567L48.4662 166.883C47.4629 166.728 46.4597 166.574 45.4821 166.368C34.8576 164.156 25.5966 158.291 19.011 150.161C18.4707 149.493 17.9305 148.798 17.416 148.078L18.4193 145.325L20.0657 140.849L20.6317 139.28L40.6972 84.7167L41.2632 83.1475L42.9096 78.6713L43.9129 75.9188C45.6365 75.4814 47.4372 75.1727 49.238 74.9412C51.1416 74.7097 53.071 74.5811 55.0261 74.5811C63.4125 74.5811 71.2844 76.8191 78.1015 80.7036C78.8476 81.141 79.5679 81.5783 80.2882 82.0413H80.3139Z" fill="#FFFB8C"/>
</g>
<path d="M86.1521 89.8614C84.0941 87.8034 81.856 85.9769 79.4379 84.3562C72.4664 79.7 64.08 76.9731 55.0505 76.9731C50.8573 76.9731 46.7927 77.5648 42.9339 78.671C41.2361 79.1598 39.564 79.7515 37.9433 80.4203C32.6696 82.6327 27.9362 85.874 23.9488 89.8357C15.9998 97.7848 11.0605 108.795 11.0605 120.937C11.0605 129.941 13.7617 138.328 18.4179 145.299C20.0386 147.717 21.8908 149.981 23.9488 152.039C30.6373 158.728 39.4868 163.281 49.3395 164.567C51.2174 164.824 53.1211 164.927 55.0505 164.927C67.1927 164.927 78.2031 159.988 86.1521 152.039C94.1012 144.09 99.0404 133.08 99.0404 120.937C99.0404 108.795 94.1269 97.7848 86.1521 89.8357V89.8614ZM94.8215 127.06C94.77 127.394 94.7186 127.729 94.6671 128.063C94.5385 128.732 94.4099 129.375 94.2555 130.018C94.1783 130.353 94.1012 130.661 94.024 130.996C93.7925 131.948 93.5095 132.9 93.1751 133.851C92.7635 135.086 92.2747 136.321 91.7345 137.504C91.5544 137.89 91.3743 138.302 91.1685 138.688C90.7826 139.459 90.371 140.231 89.9594 140.977C89.6507 141.543 89.2906 142.083 88.9562 142.624C88.596 143.164 88.2358 143.704 87.8757 144.244C87.5155 144.759 87.1297 145.273 86.7181 145.788C86.3322 146.302 85.9206 146.791 85.509 147.28C84.8659 148 84.2227 148.72 83.5539 149.389C82.8593 150.084 82.1647 150.727 81.4444 151.37C80.3382 152.322 79.1806 153.222 77.9973 154.046C76.5567 155.049 75.0646 155.949 73.4696 156.747C73.2124 156.875 72.9294 157.004 72.6722 157.158C67.3728 159.731 61.4303 161.171 55.1276 161.171C53.6613 161.171 52.195 161.094 50.7801 160.94C46.0724 160.425 41.622 159.113 37.5574 157.133C37.0943 156.901 36.657 156.695 36.2197 156.438C35.7824 156.206 35.345 155.949 34.9077 155.718C34.4704 155.46 34.0588 155.203 33.6215 154.946C31.9236 153.865 30.3286 152.682 28.8109 151.37C28.0906 150.727 27.3703 150.084 26.7014 149.389C26.367 149.055 26.0326 148.695 25.6981 148.36C25.3637 148 25.055 147.64 24.7206 147.28C24.309 146.791 23.8974 146.302 23.5115 145.788C23.1256 145.273 22.7397 144.759 22.3539 144.244C21.968 143.704 21.6078 143.19 21.2734 142.624C20.939 142.083 20.5788 141.517 20.2701 140.977C20.2444 140.926 20.2187 140.874 20.193 140.823C19.7814 140.103 19.4212 139.408 19.0611 138.662C18.8553 138.276 18.6752 137.89 18.4951 137.479C17.9549 136.295 17.4661 135.06 17.0545 133.826C15.6911 129.787 14.945 125.439 14.945 120.937C14.945 116.435 15.6911 112.088 17.0545 108.049C17.4661 106.814 17.9549 105.579 18.4951 104.396C18.6752 104.01 18.8553 103.599 19.0611 103.213C19.4469 102.441 19.8585 101.669 20.2701 100.923C20.5788 100.357 20.939 99.817 21.2734 99.2768C21.6336 98.7366 21.9937 98.1963 22.3539 97.6561C22.714 97.1416 23.0999 96.6271 23.5115 96.1126C23.8974 95.5981 24.309 95.1093 24.7206 94.6206C25.0293 94.2604 25.3637 93.9003 25.6981 93.5401C26.0326 93.18 26.367 92.8455 26.7014 92.5111C27.396 91.8165 28.0906 91.1734 28.8109 90.5303C30.8689 88.7552 33.1327 87.1603 35.5251 85.8226C36.3226 85.3853 37.1458 84.9479 37.969 84.5621C38.252 84.4334 38.535 84.3048 38.8179 84.1762C39.3839 83.9189 39.9498 83.6874 40.5158 83.4559C40.7988 83.353 41.0817 83.2243 41.3904 83.1214C41.7506 82.9928 42.1107 82.8642 42.4709 82.7356C46.4583 81.3979 50.7286 80.7033 55.1534 80.7033C63.7198 80.7033 71.6432 83.3787 78.1773 87.932C79.0263 88.5237 79.8752 89.1668 80.6727 89.8357C80.9299 90.0672 81.2129 90.273 81.4701 90.5045C82.1905 91.1477 82.9108 91.7908 83.5796 92.4854C84.2742 93.18 84.9173 93.8745 85.5347 94.5948C85.9463 95.0836 86.3579 95.5724 86.7438 96.0869C87.1297 96.6014 87.5155 97.1159 87.9014 97.6304C88.2873 98.1706 88.6474 98.6851 88.9819 99.2511C89.3163 99.7913 89.6764 100.357 89.9851 100.897C90.4225 101.644 90.8084 102.415 91.1942 103.187C91.4 103.573 91.5801 103.959 91.7602 104.37C92.3004 105.554 92.7892 106.789 93.2008 108.023C93.5095 108.949 93.7925 109.901 94.0497 110.879C94.1269 111.213 94.2041 111.522 94.2812 111.856C94.4356 112.5 94.5642 113.168 94.6929 113.811C94.7443 114.146 94.7957 114.48 94.8472 114.815C94.9501 115.484 95.0273 116.152 95.1044 116.821C95.2331 118.185 95.3102 119.548 95.3102 120.937C95.3102 122.326 95.2331 123.69 95.1044 125.053C95.0273 125.722 94.9501 126.391 94.8472 127.06H94.8215Z" fill="#FAE543"/>
<g style="mix-blend-mode:multiply">
<path d="M95.0787 116.821C95.0015 116.152 94.9243 115.483 94.8214 114.815C94.77 114.48 94.7185 114.146 94.6671 113.811C94.5385 113.142 94.4098 112.499 94.2555 111.856C94.1783 111.522 94.1011 111.213 94.024 110.879C93.7667 109.927 93.4837 108.975 93.175 108.023C92.7377 106.788 92.2746 105.554 91.7344 104.37C91.5543 103.984 91.3743 103.573 91.1685 103.187C90.7826 102.415 90.371 101.643 89.9594 100.897C89.6507 100.331 89.2905 99.7911 88.9561 99.2509C88.596 98.7107 88.2358 98.1705 87.8757 97.6302C87.5155 97.1157 87.1296 96.6012 86.718 96.0867C86.3322 95.5722 85.9206 95.0834 85.5089 94.5947C84.8658 93.8744 84.2227 93.1541 83.5281 92.4852C82.8335 91.7906 82.139 91.1475 81.4187 90.5044C81.1614 90.2729 80.9042 90.0413 80.6212 89.8355C79.8237 89.1667 78.9748 88.5493 78.1258 87.9319C71.6174 83.3785 63.6683 80.7031 55.1019 80.7031C50.6772 80.7031 46.4068 81.4234 42.4194 82.7354C42.0593 82.864 41.6991 82.9669 41.339 83.0956C41.056 83.1985 40.773 83.3271 40.4643 83.43C39.8984 83.6615 39.3067 83.893 38.7664 84.1503C38.4835 84.2789 38.2005 84.4075 37.9175 84.5362C37.0943 84.922 36.2711 85.3594 35.4736 85.7967C33.0812 87.1344 30.8431 88.7293 28.7594 90.5044C28.0391 91.1475 27.3188 91.7906 26.6499 92.4852C26.3155 92.8196 25.9811 93.1798 25.6466 93.5142C25.3122 93.8744 25.0035 94.2345 24.6691 94.5947C24.2575 95.0834 23.8459 95.5722 23.46 96.0867C23.0741 96.6012 22.6883 97.1157 22.3024 97.6302C21.9165 98.1705 21.5564 98.685 21.2219 99.2509C20.8875 99.7911 20.5274 100.357 20.2187 100.897C19.7813 101.643 19.3954 102.415 19.0096 103.187C18.8038 103.573 18.6237 103.959 18.4436 104.37C17.9034 105.554 17.4403 106.788 17.003 108.023C15.6396 112.062 14.8936 116.41 14.8936 120.911C14.8936 125.413 15.6396 129.761 17.003 133.8C17.4403 135.035 17.9034 136.269 18.4436 137.453C18.6237 137.839 18.8038 138.25 19.0096 138.636C19.3697 139.356 19.7556 140.077 20.1415 140.771C20.1415 140.771 20.1929 140.874 20.2187 140.926C20.5274 141.492 20.8875 142.032 21.2219 142.572C21.5821 143.112 21.9422 143.652 22.3024 144.193C22.6625 144.707 23.0484 145.222 23.46 145.736C23.8459 146.251 24.2575 146.739 24.6691 147.228C24.9778 147.588 25.3122 147.949 25.6466 148.309C25.9811 148.669 26.3155 149.003 26.6499 149.338C27.3445 150.032 28.0391 150.675 28.7594 151.319C30.2772 152.63 31.8721 153.814 33.57 154.894C34.0073 155.152 34.4189 155.435 34.8562 155.666C35.2936 155.923 35.7309 156.155 36.1682 156.386C36.6055 156.618 37.0686 156.849 37.5059 157.081C41.5705 159.062 46.0466 160.374 50.7286 160.888C52.1692 161.043 53.6098 161.12 55.0762 161.12C61.3531 161.12 67.3213 159.679 72.6207 157.107C72.8779 156.978 73.1609 156.849 73.4182 156.695C74.9874 155.898 76.5052 154.997 77.9458 153.994C79.1548 153.171 80.3125 152.27 81.3929 151.319C82.1132 150.675 82.8335 150.032 83.5024 149.338C84.197 148.643 84.8401 147.949 85.4832 147.228C85.8948 146.739 86.3064 146.251 86.6923 145.736C87.0782 145.222 87.4641 144.707 87.8499 144.193C88.2358 143.652 88.596 143.138 88.9304 142.572C89.2648 142.032 89.625 141.466 89.9337 140.926C90.371 140.18 90.7569 139.408 91.1427 138.636C91.3485 138.25 91.5286 137.864 91.7087 137.453C92.2489 136.269 92.712 135.035 93.1493 133.8C93.458 132.874 93.741 131.922 93.9982 130.944C94.0754 130.61 94.1526 130.301 94.2298 129.967C94.3841 129.324 94.5127 128.655 94.6414 128.012C94.6928 127.677 94.7443 127.343 94.7957 127.008C94.8986 126.339 94.9758 125.671 95.053 125.002C95.1816 123.638 95.2588 122.275 95.2588 120.886C95.2588 119.497 95.1816 118.133 95.053 116.77L95.0787 116.821ZM82.6277 148.489C75.5791 155.537 65.8292 159.911 55.0762 159.911C53.7642 159.911 52.4522 159.859 51.1917 159.705C41.9821 158.779 33.7243 154.663 27.5246 148.489C24.8234 145.788 22.5082 142.675 20.6817 139.253C17.7748 133.8 16.1026 127.549 16.1026 120.937C16.1026 110.184 20.4502 100.434 27.5246 93.3856C31.2547 89.6554 35.7309 86.6713 40.7473 84.6905C45.1977 82.9155 50.034 81.9636 55.1019 81.9636C63.514 81.9636 71.283 84.6133 77.6628 89.1667C79.4378 90.4272 81.11 91.8421 82.6535 93.3856C89.7021 100.434 94.0754 110.184 94.0754 120.937C94.0754 131.69 89.7279 141.44 82.6535 148.489H82.6277Z" fill="#F6F39E"/>
</g>
<path d="M108.997 0.106934H88.7258L44.8645 73.372H65.1102L108.997 0.106934Z" fill="#E04C4C"/>
</svg>
