<svg width="109" height="168" viewBox="0 0 109 168" fill="none" xmlns="http://www.w3.org/2000/svg">
<path d="M0.977402 0.107178H21.223L65.1101 73.3465H44.8387L0.977402 0.107178Z" fill="#6200D1"/>
<path d="M64.6983 79.5719V78.62H45.4302C44.6842 78.62 44.0154 78.3113 43.5266 77.8226C43.0378 77.3338 42.7291 76.6649 42.7291 75.9189C42.7291 75.1729 43.0378 74.504 43.5266 74.0153C44.0154 73.5265 44.6842 73.2178 45.4302 73.2178H64.6983C65.4443 73.2178 66.1132 73.5265 66.602 74.0153C67.0908 74.504 67.3995 75.1729 67.3995 75.9189C67.3995 76.6649 67.0908 77.3338 66.602 77.8226C66.1132 78.3113 65.4443 78.62 64.6983 78.62V80.498C67.2193 80.498 69.2774 78.44 69.2774 75.9189C69.2774 73.3978 67.2193 71.3398 64.6983 71.3398H45.4302C42.9092 71.3398 40.8512 73.3978 40.8512 75.9189C40.8512 78.44 42.9092 80.498 45.4302 80.498H64.6983V79.5461V79.5719Z" fill="#E0C64C"/>
<path d="M101.434 120.938C101.434 146.56 80.6736 167.32 55.0514 167.32C52.8133 167.32 50.6267 167.166 48.4915 166.857C47.4882 166.703 46.4849 166.548 45.5074 166.343C34.8829 164.13 25.6219 158.265 19.0362 150.136C18.496 149.467 17.9558 148.772 17.4413 148.052C12.322 140.952 9.13208 132.334 8.74621 122.996C8.74621 122.661 8.74626 122.327 8.72054 121.993C8.72054 121.632 8.72054 121.272 8.72054 120.938C8.72054 120.552 8.72054 120.14 8.72054 119.755C9.26076 98.5056 24.1041 80.781 43.9896 75.8932C45.7132 75.4559 47.514 75.1472 49.3147 74.9157C51.2184 74.6842 53.1478 74.5555 55.1029 74.5555C63.4893 74.5555 71.3611 76.7936 78.1783 80.6781C78.9243 81.1154 79.6446 81.5528 80.3649 82.0158C93.0989 90.2736 101.511 104.628 101.511 120.912L101.434 120.938Z" fill="#E0C64C"/>
<path d="M67.065 152.76H67.0136C67.0136 152.76 66.9107 152.76 66.7306 152.811C66.7306 152.811 66.4734 152.863 66.2933 152.863C62.486 152.863 51.1155 152.451 47.1538 146.972C47.1538 146.972 46.1763 145.66 45.3788 143.627C44.7357 141.981 44.2212 139.872 44.5041 137.608C44.5041 137.479 44.5298 137.351 44.5556 137.248C44.5556 137.17 44.5813 137.093 44.607 136.99C44.607 136.965 44.607 136.939 44.607 136.913C44.607 136.887 44.607 136.862 44.607 136.836C44.607 136.836 44.607 136.785 44.607 136.759C44.6842 136.553 44.7871 136.322 44.8385 136.09C45.3016 134.366 46.202 132.746 46.2277 132.669C46.7422 131.717 47.8226 130.173 47.8484 130.148C49.7263 127.524 51.7071 126.057 53.6108 125.311C55.9518 124.385 58.1899 124.617 59.862 125.208C68.7886 128.295 65.6501 134.701 65.3414 135.318C65.3414 135.344 65.3414 135.37 65.3414 135.37C65.3414 135.37 65.0584 135.164 64.6983 134.778C62.1 132.077 55.9518 131.742 52.7361 136.399C50.9868 138.92 49.5462 143.036 54.9228 148.052C57.2895 150.265 65.1356 152.297 67.065 152.76Z" fill="#E8D100"/>
<path d="M76.892 135.601C75.7087 136.244 74.6539 135.37 73.9851 135.112C73.4191 134.907 73.0847 135.01 73.0589 136.502C73.0589 136.707 73.2133 137.222 73.1876 137.736C73.1876 138.354 72.8789 138.945 71.6183 138.765C69.5603 138.482 69.2773 136.013 69.2773 135.858C69.2773 135.858 68.5313 137.35 67.9911 137.711C67.4766 138.045 64.6469 137.016 64.6726 134.778C64.6726 134.778 64.6726 134.727 64.6726 134.701C64.6983 133.903 64.8526 133.286 64.9555 132.771C65.1099 131.948 65.1871 131.279 64.6211 130.353C63.8236 129.093 63.7208 128.733 63.4635 129.427C63.4121 129.607 63.3606 129.787 63.3092 130.019C62.8976 131.408 61.9972 131.459 60.891 130.328C60.5823 129.993 60.2993 129.607 60.042 129.273C59.4246 128.398 59.0131 127.781 58.9359 129.118C58.9359 129.118 58.9359 129.118 58.9359 129.144C58.9359 129.221 58.9359 129.324 58.9359 129.401C58.9359 129.427 58.9359 129.453 58.9359 129.504C59.0388 131.202 60.4022 132.617 57.238 131.408C56.3634 131.074 55.7717 130.508 55.3344 129.89V129.864C54.0481 128.115 53.7137 126.057 50.2151 128.295C49.4176 128.81 48.723 129.53 48.0799 130.353C45.3016 133.852 44.6842 137.222 44.5556 137.659C44.5556 137.556 44.5813 137.428 44.607 137.325C44.607 137.248 44.6328 137.17 44.6585 137.068C44.6585 137.016 44.6585 136.965 44.7099 136.887C45.1472 135.01 46.4849 130.482 49.9321 127.241C54.3825 123.047 57.8554 122.61 59.8363 122.893C61.7914 123.202 61.5599 120.295 64.261 121.941C66.9364 123.588 65.8816 122.764 68.4799 123.973C71.0781 125.183 70.9495 124.025 72.7502 125.08C73.8307 125.723 74.1137 127.601 72.9561 127.266C71.8499 126.958 69.9977 126.803 72.2358 128.089C74.0108 129.118 76.429 131.588 74.3967 131.459C71.4383 131.254 71.5412 131.022 75.0141 133.054C76.7634 134.058 77.0207 133.8 77.3808 134.572C77.6123 135.035 77.6123 135.292 77.0206 135.601H76.892Z" fill="#F2DF33"/>
<path d="M58.8845 129.453C58.9874 131.151 60.3508 132.565 57.1866 131.356C56.3119 131.022 55.7203 130.456 55.283 129.839C55.463 130.019 56.6978 131.279 57.8297 131.176C58.6786 131.099 58.8844 130.044 58.9101 129.453H58.8845Z" fill="#F8EE93"/>
<path d="M63.2834 129.993C62.8718 131.382 61.9714 131.434 60.8653 130.302C60.5566 129.967 60.2736 129.581 60.0164 129.247C60.1707 129.35 61.7399 130.585 62.3059 130.662C62.7946 130.739 63.2834 129.813 63.4378 129.453C63.3863 129.582 63.3349 129.787 63.2834 129.993Z" fill="#F8EE93"/>
<path d="M69.3031 135.858C69.3031 135.858 68.5571 137.376 68.0169 137.711C67.5024 138.045 64.6726 137.016 64.6983 134.778C64.6983 134.778 64.6983 134.726 64.6983 134.701C64.724 133.903 64.8784 133.286 64.9813 132.771C64.8784 133.903 65.3672 136.887 67.1422 137.248C68.2998 137.479 69.3031 135.858 69.3031 135.858Z" fill="#F8EE93"/>
<path d="M66.9879 152.785C66.9879 152.785 66.8849 152.785 66.7048 152.837C66.7048 152.837 66.4476 152.888 66.2676 152.888C64.9813 153.068 62.203 153.377 58.6272 153.454C55.6688 152.966 52.3246 151.911 48.9031 149.801C48.9031 149.801 41.7515 145.582 39.4105 138.431C39.3591 138.277 39.3077 138.096 39.2562 137.942C39.2305 137.839 39.2047 137.711 39.1533 137.556C39.1533 137.479 39.1019 137.376 39.1019 137.299C39.0247 136.913 39.0504 136.527 38.9732 136.141C38.5359 133.569 38.716 130.919 38.716 130.791C38.8189 129.247 39.3076 126.572 39.3076 126.572C40.6711 119.626 44.144 116.23 47.7198 114.738C47.7198 114.738 47.7197 114.738 47.7455 114.738C49.3661 114.069 51.0126 113.786 52.5046 113.761C63.6179 113.478 65.7788 119.909 66.1904 123.073C66.2933 123.922 66.2676 124.514 66.2676 124.719C66.2676 124.771 66.2676 124.797 66.2676 124.797C66.2676 124.797 65.7788 124.642 65.0327 124.308C61.7399 122.816 57.1866 123.047 53.6879 125.337C52.7104 125.98 51.8358 126.752 51.0898 127.729C50.2408 128.81 49.5205 130.122 49.0575 131.639C46.6908 139.383 49.0574 146.92 59.4761 150.985C62.4088 152.142 65.1871 152.605 67.065 152.76L66.9879 152.785Z" fill="#EBD61C"/>
<path d="M80.9052 119.24C79.4903 120.501 78.1525 120.141 77.0978 120.115C76.1974 120.115 75.8373 120.887 76.7891 122.147C77.2779 122.764 78.1011 123.279 78.3841 123.974C78.7442 124.822 78.7185 125.774 76.9177 126.16C73.9336 126.829 72.0043 123.588 71.9014 123.408C71.9014 123.408 71.8499 125.826 71.3354 126.572C70.8466 127.318 66.3447 127.344 64.9813 124.282C64.9813 124.257 64.9299 124.205 64.9299 124.179C64.4668 123.099 64.2867 122.199 64.0809 121.401C63.7722 120.192 63.4635 119.24 62.1001 118.288C60.2479 117.002 59.8363 116.539 59.9392 117.619V117.671C59.9392 117.877 60.0164 118.16 60.0678 118.494C60.3765 120.604 59.1932 121.118 56.9551 120.141C56.3377 119.858 55.6945 119.472 55.1543 119.137C53.7394 118.263 52.839 117.645 53.5336 119.472C53.5336 119.472 53.5336 119.472 53.5336 119.523C53.5851 119.652 53.6365 119.755 53.688 119.883C53.688 119.935 53.7395 119.96 53.7395 120.012C54.9485 122.25 57.7011 123.511 52.6333 123.459C51.2184 123.459 50.0865 122.97 49.0832 122.353C49.0575 122.353 49.0317 122.327 49.0317 122.327C46.1762 120.604 44.4527 117.98 41.1342 122.79C40.3881 123.871 39.8736 125.234 39.5392 126.675C39.5392 126.675 39.5392 126.7 39.5392 126.726C37.9956 132.874 39.2562 137.762 39.3591 138.431C39.3077 138.277 39.2562 138.097 39.2048 137.942C39.1791 137.839 39.1533 137.711 39.1019 137.582C39.1019 137.505 39.0504 137.428 39.0504 137.325C38.4587 134.572 37.4297 127.755 40.0537 121.581C43.4494 113.632 47.8998 111.265 50.7296 110.674C53.5851 110.082 51.4499 106.275 56.1061 107.124C60.7624 107.973 58.8073 107.432 63.1034 107.741C67.3737 108.075 67.5796 104.603 69.5861 107.072C71.0267 108.847 67.8626 109.825 66.139 109.85C64.4411 109.85 66.9107 111.42 70.7952 111.42C75.3486 111.42 76.892 113.632 74.9112 114.172C70.7951 115.278 73.7021 116.719 75.1684 117.002C78.1525 117.568 79.4131 117.465 80.6993 117.594C81.9856 117.722 82.1914 118.031 80.8537 119.189L80.9052 119.24Z" fill="#F5E764"/>
<path d="M66.6792 152.837C66.6792 152.837 66.4219 152.888 66.2418 152.888C64.9556 153.068 62.1773 153.377 58.6015 153.454C55.6688 153.531 52.2473 153.429 48.6973 152.966C41.7772 152.065 35.2946 148.772 30.8441 143.396C30.3811 142.83 29.9437 142.264 29.5064 141.646C29.352 141.441 29.2234 141.209 29.0948 141.003C29.0176 140.849 28.9147 140.669 28.8118 140.489C28.7604 140.386 28.6832 140.257 28.6317 140.154C28.3488 139.64 28.1944 139.074 27.9372 138.508C26.1879 134.958 25.2875 131.099 25.236 130.919C24.7215 128.655 24.2584 124.642 24.2584 124.642C22.6635 109.387 30.7412 103.393 37.5841 101.515C50.9612 97.8624 57.2638 103.265 60.0936 107.715C61.7142 110.262 62.203 112.474 62.203 112.474C62.203 112.474 61.7914 112.474 61.0968 112.371C60.8395 112.346 60.5309 112.294 60.2222 112.243C56.209 111.522 51.6043 112.423 47.8484 114.789C47.8484 114.789 47.8484 114.789 47.8226 114.789C45.0443 116.565 42.7034 119.188 41.4429 122.584C40.774 124.359 40.4139 126.314 40.4139 128.475C40.4139 134.238 41.9573 139.537 45.4302 143.704C49.1861 148.232 55.18 151.473 63.9008 152.605C64.8784 152.734 65.856 152.811 66.7821 152.863L66.6792 152.837Z" fill="#EEDD42"/>
<path d="M80.3906 99.483C78.2812 102.699 75.8115 100.769 75.6314 102.261C75.58 102.776 75.9917 103.573 77.1493 104.988C77.4837 105.374 78.7956 106.249 79.4902 107.278C80.1848 108.307 80.262 109.542 78.1011 110.622C74.088 112.654 69.8948 108.641 69.689 108.435C69.689 108.435 70.5379 111.445 70.3321 112.886C70.3321 112.989 70.2807 113.092 70.2807 113.195C69.8948 114.429 63.4635 116.05 60.145 112.14C60.0935 112.114 60.0678 112.063 60.042 112.011C59.7333 111.625 59.4504 111.265 59.2189 110.905C57.1352 107.921 56.9036 105.863 53.3793 104.551C50.7296 103.573 49.7263 103.059 49.7778 103.702C49.7778 103.831 49.8292 103.985 49.9064 104.191C50.035 104.525 50.2408 104.988 50.5238 105.554C51.913 108.461 50.4209 109.619 46.7936 109.001C44.5813 108.641 42.2146 107.586 41.237 107.535H41.1598C40.5939 107.535 40.6196 107.998 41.5714 109.259C42.6776 110.699 44.3755 111.677 45.3273 112.448C46.5878 113.503 46.5621 114.198 42.0602 115.253C36.9152 116.462 32.8507 112.757 29.635 113.092C27.9372 113.272 26.4709 114.584 25.2103 118.391C24.5929 120.217 24.4643 122.353 24.6186 124.539C24.6186 124.539 24.6186 124.565 24.6186 124.591C25.1074 133.98 29.0433 140.54 29.5064 141.518C29.352 141.312 29.2234 141.081 29.0948 140.875C29.0176 140.72 28.9147 140.54 28.8118 140.36C28.7604 140.257 28.6832 140.129 28.6317 140.026C26.548 136.27 22.0975 126.829 23.1523 117.053C24.5414 104.422 29.1977 100.486 32.259 97.5279C38.4073 91.5854 47.2824 89.7847 50.2408 89.0129C53.5079 88.164 55.6174 87.8296 56.5435 87.9582C58.9616 88.2669 58.0098 90.3506 55.5659 90.968C53.122 91.5854 57.238 92.4601 62.949 91.5854C68.66 90.7108 72.6731 91.1738 70.2292 93.6177C65.8302 98.0167 66.9621 98.3511 71.7213 98.0424C75.9916 97.7594 77.2264 97.5536 79.1815 97.2192C81.3939 96.8591 81.9341 97.142 80.4678 99.4058L80.3906 99.483Z" fill="#F8EE93"/>
<path d="M70.3064 112.937C70.3064 112.937 70.2549 113.143 70.2549 113.246C69.869 114.481 63.4377 116.102 60.1192 112.191C60.0678 112.166 60.0421 112.114 60.0164 112.063C59.7077 111.677 59.4247 111.317 59.1931 110.957C60.8138 112.371 62.8976 113.658 65.2128 113.812C67.8882 113.992 69.4575 113.478 70.3578 112.912L70.3064 112.937Z" fill="#FCF7CC"/>
<path d="M79.4645 107.303C80.1591 108.332 80.2363 109.567 78.0754 110.648C74.0622 112.68 69.8691 108.667 69.6633 108.461C69.8176 108.564 72.1586 109.927 74.0108 110.236C77.5609 110.802 79.4388 109.078 79.4902 107.303H79.4645Z" fill="#FCF7CC"/>
<path d="M80.3906 99.4832C78.2812 102.699 75.8115 100.769 75.6315 102.261C75.3485 101.335 76.3004 101.464 77.4323 101.027C79.5417 100.229 80.7765 98.5056 80.4678 97.6567C80.4163 97.4766 79.7989 97.348 79.1044 97.2708C81.3167 96.9107 81.857 97.1937 80.3906 99.4575V99.4832Z" fill="#FCF7CC"/>
<path d="M42.0345 115.356C36.8895 116.565 32.8249 112.86 29.6093 113.195C31.0756 112.577 37.4555 114.687 40.0794 114.661C41.4686 114.661 45.4817 113.786 45.2759 112.552C46.5364 113.606 46.5107 114.301 42.0088 115.356H42.0345Z" fill="#FCF7CC"/>
<path d="M46.7422 109.079C44.5298 108.718 42.1631 107.664 41.1856 107.612C41.803 107.612 45.5588 107.612 48.2342 107.921C50.5495 108.178 50.1379 105.4 49.8807 104.242C50.0093 104.577 50.2151 105.04 50.4981 105.606C51.8872 108.513 50.3951 109.67 46.7679 109.053L46.7422 109.079Z" fill="#FCF7CC"/>
<path d="M53.7909 120.012C54.9999 122.25 57.7525 123.51 52.6847 123.459C51.2698 123.459 50.1379 122.97 49.1346 122.353C49.4948 122.507 51.9644 123.588 53.405 122.893C54.5112 122.353 54.0996 120.835 53.7909 120.012Z" fill="#FBF4BA"/>
<path d="M60.0678 118.52C60.3765 120.629 59.1932 121.144 56.9551 120.166C56.3377 119.883 55.6945 119.497 55.1543 119.163C55.4115 119.24 58.3185 120.089 59.1674 119.935C59.8877 119.78 59.9392 118.314 59.9392 117.697C59.9392 117.902 60.0163 118.185 60.0678 118.52Z" fill="#FBF4BA"/>
<path d="M71.9014 123.407C71.9014 123.407 71.8499 125.825 71.3354 126.572C70.8466 127.318 66.3447 127.343 64.9813 124.282C64.9813 124.256 64.9299 124.205 64.9299 124.179C64.4668 123.099 64.2867 122.198 64.0809 121.401C64.6726 122.996 67.1679 126.777 69.8176 126.366C71.5155 126.108 71.9014 123.382 71.9014 123.382V123.407Z" fill="#FBF4BA"/>
<path d="M78.384 123.973C78.7442 124.822 78.7185 125.774 76.9177 126.16C73.9336 126.829 72.0043 123.588 71.9014 123.407C72.1072 123.613 75.0913 126.443 77.1493 125.414C77.921 125.028 78.2555 124.488 78.3584 123.973H78.384Z" fill="#FBF4BA"/>
<path d="M80.9051 119.24C79.4903 120.5 78.1525 120.14 77.0978 120.115C77.0978 120.115 79.233 119.754 80.1077 119.214C80.5193 118.983 80.9823 118.314 80.9566 118.005C80.9566 117.851 80.8537 117.722 80.725 117.619C82.0113 117.748 82.2171 118.057 80.8794 119.214L80.9051 119.24Z" fill="#F8EE93"/>
<g style="mix-blend-mode:soft-light" opacity="0.38">
<path d="M80.2878 82.0158L79.4131 84.3054L78.0496 87.9326L77.5866 89.1674L51.1412 159.706L50.6782 160.915L49.3147 164.542L48.4401 166.857C47.4368 166.703 46.4335 166.548 45.456 166.343C34.8315 164.13 25.5704 158.265 18.9848 150.136C18.4446 149.467 17.9044 148.772 17.3899 148.052L18.3931 145.3L20.0396 140.823L20.6055 139.254L40.6711 84.6912L41.237 83.122L42.8835 78.6458L43.8867 75.8932C45.6103 75.4559 47.4111 75.1472 49.2118 74.9157C51.1155 74.6842 53.0449 74.5555 55 74.5555C63.3863 74.5555 71.2582 76.7936 78.0754 80.6781C78.8214 81.1154 79.5417 81.5528 80.262 82.0158H80.2878Z" fill="#FFFB8C"/>
</g>
<path d="M86.1531 89.8364C84.0951 87.7784 81.857 85.9519 79.4388 84.3312C72.4673 79.675 64.0809 76.9481 55.0514 76.9481C50.8582 76.9481 46.7936 77.5398 42.9349 78.646C41.237 79.1348 39.5649 79.7264 37.9442 80.3953C32.6706 82.6076 27.9371 85.849 23.9497 89.8107C16.0007 97.7597 11.0615 108.77 11.0615 120.912C11.0615 129.916 13.7626 138.302 18.4189 145.274C20.0395 147.692 21.8917 149.956 23.9497 152.014C30.6383 158.702 39.4877 163.256 49.3404 164.542C51.2183 164.799 53.122 164.902 55.0514 164.902C67.1936 164.902 78.204 159.963 86.1531 152.014C94.1021 144.065 99.0413 133.055 99.0413 120.912C99.0413 108.77 94.1279 97.7597 86.1531 89.8107V89.8364ZM94.8224 127.061C94.771 127.395 94.7195 127.729 94.6681 128.064C94.5395 128.733 94.4108 129.376 94.2565 130.019C94.1793 130.353 94.1021 130.662 94.025 130.997C93.7934 131.948 93.5104 132.9 93.176 133.852C92.7644 135.087 92.2756 136.322 91.7354 137.505C91.5553 137.891 91.3752 138.302 91.1694 138.688C90.7836 139.46 90.372 140.232 89.9604 140.978C89.6517 141.544 89.2915 142.084 88.9571 142.624C88.597 143.165 88.2368 143.705 87.8766 144.245C87.5165 144.759 87.1306 145.274 86.719 145.788C86.3332 146.303 85.9216 146.792 85.51 147.281C84.8668 148.001 84.2237 148.721 83.5548 149.39C82.8603 150.085 82.1657 150.728 81.4454 151.371C80.3392 152.323 79.1816 153.223 77.9982 154.046C76.5576 155.05 75.0655 155.95 73.4706 156.747C73.2133 156.876 72.9303 157.005 72.6731 157.159C67.3737 159.731 61.4312 161.172 55.1285 161.172C53.6622 161.172 52.196 161.095 50.7811 160.941C46.0734 160.426 41.6229 159.114 37.5583 157.133C37.0953 156.902 36.658 156.696 36.2207 156.439C35.7833 156.207 35.346 155.95 34.9087 155.718C34.4713 155.461 34.0597 155.204 33.6224 154.947C31.9245 153.866 30.3296 152.683 28.8118 151.371C28.0915 150.728 27.3712 150.085 26.7023 149.39C26.3679 149.056 26.0335 148.695 25.6991 148.361C25.3647 148.001 25.056 147.641 24.7215 147.281C24.3099 146.792 23.8983 146.303 23.5125 145.788C23.1266 145.274 22.7407 144.759 22.3548 144.245C21.9689 143.705 21.6088 143.19 21.2744 142.624C20.94 142.084 20.5798 141.518 20.2711 140.978C20.2453 140.926 20.2196 140.875 20.1939 140.824C19.7823 140.103 19.4221 139.409 19.062 138.663C18.8562 138.277 18.6761 137.891 18.496 137.479C17.9558 136.296 17.467 135.061 17.0554 133.826C15.692 129.787 14.946 125.44 14.946 120.938C14.946 116.436 15.692 112.089 17.0554 108.05C17.467 106.815 17.9558 105.58 18.496 104.397C18.6761 104.011 18.8562 103.599 19.062 103.213C19.4479 102.442 19.8595 101.67 20.2711 100.924C20.5798 100.358 20.94 99.8177 21.2744 99.2775C21.6345 98.7373 21.9946 98.197 22.3548 97.6568C22.715 97.1423 23.1009 96.6278 23.5125 96.1133C23.8983 95.5988 24.3099 95.11 24.7215 94.6213C25.0302 94.2611 25.3647 93.901 25.6991 93.5408C26.0335 93.1807 26.3679 92.8462 26.7023 92.5118C27.3969 91.8172 28.0915 91.1741 28.8118 90.531C30.8698 88.7559 33.1336 87.161 35.526 85.8233C36.3235 85.386 37.1468 84.9486 37.97 84.5627C38.2529 84.4341 38.5359 84.3055 38.8188 84.1769C39.3848 83.9196 39.9508 83.6881 40.5167 83.4566C40.7997 83.3537 41.0827 83.225 41.3914 83.1221C41.7515 82.9935 42.1117 82.8649 42.4718 82.7363C46.4592 81.3986 50.7296 80.704 55.1543 80.704C63.7208 80.704 71.6441 83.3794 78.1783 87.9327C79.0272 88.5244 79.8762 89.1675 80.6736 89.8364C80.9309 90.0679 81.2139 90.2737 81.4711 90.5052C82.1914 91.1484 82.9117 91.7915 83.5806 92.4861C84.2752 93.1807 84.9182 93.8752 85.5356 94.5955C85.9472 95.0843 86.3588 95.5731 86.7447 96.0876C87.1306 96.6021 87.5165 97.1166 87.9024 97.6311C88.2883 98.1713 88.6484 98.6858 88.9828 99.2518C89.3172 99.792 89.6774 100.358 89.9861 100.898C90.4234 101.644 90.8093 102.416 91.1952 103.188C91.401 103.574 91.5811 103.959 91.7611 104.371C92.3014 105.554 92.7901 106.789 93.2017 108.024C93.5104 108.95 93.7934 109.902 94.0506 110.88C94.1278 111.214 94.205 111.523 94.2822 111.857C94.4365 112.5 94.5651 113.169 94.6938 113.812C94.7452 114.147 94.7967 114.481 94.8481 114.815C94.951 115.484 95.0282 116.153 95.1054 116.822C95.234 118.185 95.3112 119.549 95.3112 120.938C95.3112 122.327 95.234 123.691 95.1054 125.054C95.0282 125.723 94.951 126.392 94.8481 127.061H94.8224Z" fill="#FAE543"/>
<g style="mix-blend-mode:multiply">
<path d="M95.0797 116.822C95.0025 116.153 94.9253 115.484 94.8224 114.815C94.771 114.481 94.7195 114.146 94.6681 113.812C94.5395 113.143 94.4108 112.5 94.2565 111.857C94.1793 111.523 94.1021 111.214 94.025 110.879C93.7677 109.928 93.4847 108.976 93.176 108.024C92.7387 106.789 92.2756 105.554 91.7354 104.371C91.5553 103.985 91.3752 103.573 91.1694 103.188C90.7836 102.416 90.372 101.644 89.9604 100.898C89.6517 100.332 89.2916 99.7919 88.9571 99.2517C88.597 98.7114 88.2368 98.1712 87.8766 97.631C87.5165 97.1165 87.1307 96.602 86.7191 96.0875C86.3332 95.573 85.9216 95.0842 85.51 94.5954C84.8668 93.8751 84.2237 93.1548 83.5291 92.486C82.8345 91.7914 82.1399 91.1483 81.4196 90.5051C81.1624 90.2736 80.9051 90.0421 80.6221 89.8363C79.8247 89.1674 78.9757 88.55 78.1268 87.9326C71.6184 83.3793 63.6693 80.7039 55.1029 80.7039C50.6782 80.7039 46.4078 81.4242 42.4204 82.7361C42.0603 82.8648 41.7001 82.9677 41.3399 83.0963C41.057 83.1992 40.774 83.3278 40.4653 83.4307C39.8993 83.6622 39.3077 83.8938 38.7674 84.151C38.4845 84.2796 38.2015 84.4083 37.9185 84.5369C37.0953 84.9228 36.2721 85.3601 35.4746 85.7974C33.0822 87.1351 30.8441 88.7301 28.7603 90.5051C28.04 91.1483 27.3198 91.7914 26.6509 92.486C26.3165 92.8204 25.982 93.1805 25.6476 93.515C25.3132 93.8751 25.0045 94.2353 24.6701 94.5954C24.2585 95.0842 23.8468 95.573 23.461 96.0875C23.0751 96.602 22.6893 97.1165 22.3034 97.631C21.9175 98.1712 21.5573 98.6857 21.2229 99.2517C20.8885 99.7919 20.5284 100.358 20.2197 100.898C19.7823 101.644 19.3965 102.416 19.0106 103.188C18.8048 103.573 18.6247 103.959 18.4446 104.371C17.9044 105.554 17.4414 106.789 17.004 108.024C15.6406 112.063 14.8945 116.41 14.8945 120.912C14.8945 125.414 15.6406 129.762 17.004 133.8C17.4414 135.035 17.9044 136.27 18.4446 137.453C18.6247 137.839 18.8048 138.251 19.0106 138.637C19.3707 139.357 19.7566 140.077 20.1425 140.772C20.1425 140.772 20.1939 140.875 20.2197 140.926C20.5284 141.492 20.8885 142.032 21.2229 142.573C21.583 143.113 21.9432 143.653 22.3034 144.193C22.6635 144.708 23.0494 145.222 23.461 145.737C23.8468 146.251 24.2585 146.74 24.6701 147.229C24.9788 147.589 25.3132 147.949 25.6476 148.309C25.982 148.67 26.3165 149.004 26.6509 149.338C27.3455 150.033 28.04 150.676 28.7603 151.319C30.2781 152.631 31.8731 153.815 33.571 154.895C34.0083 155.152 34.4199 155.435 34.8572 155.667C35.2946 155.924 35.7318 156.156 36.1692 156.387C36.6065 156.619 37.0696 156.85 37.5069 157.082C41.5715 159.063 46.0476 160.374 50.7296 160.889C52.1702 161.043 53.6108 161.121 55.0771 161.121C61.3541 161.121 67.3223 159.68 72.6217 157.107C72.8789 156.979 73.1619 156.85 73.4191 156.696C74.9884 155.898 76.5062 154.998 77.9468 153.995C79.1559 153.171 80.3135 152.271 81.3939 151.319C82.1142 150.676 82.8346 150.033 83.5034 149.338C84.198 148.644 84.8411 147.949 85.4842 147.229C85.8958 146.74 86.3074 146.251 86.6933 145.737C87.0792 145.222 87.465 144.708 87.8509 144.193C88.2368 143.653 88.5969 143.139 88.9314 142.573C89.2658 142.032 89.626 141.467 89.9347 140.926C90.372 140.18 90.7578 139.409 91.1437 138.637C91.3495 138.251 91.5296 137.865 91.7097 137.453C92.2499 136.27 92.713 135.035 93.1503 133.8C93.459 132.874 93.742 131.923 93.9992 130.945C94.0764 130.611 94.1536 130.302 94.2307 129.967C94.3851 129.324 94.5137 128.655 94.6423 128.012C94.6938 127.678 94.7452 127.343 94.7967 127.009C94.8996 126.34 94.9768 125.671 95.054 125.002C95.1826 123.639 95.2597 122.276 95.2597 120.886C95.2597 119.497 95.1826 118.134 95.054 116.77L95.0797 116.822ZM82.603 148.489C75.5543 155.538 65.8045 159.911 55.0514 159.911C53.7394 159.911 52.4275 159.86 51.1669 159.706C41.9574 158.78 33.6996 154.664 27.4998 148.489C24.7987 145.788 22.4834 142.676 20.6569 139.254C17.75 133.8 16.0779 127.549 16.0779 120.938C16.0779 110.185 20.4254 100.435 27.4998 93.3863C31.23 89.6562 35.7062 86.6721 40.7226 84.6912C45.173 82.9162 50.0093 81.9644 55.0771 81.9644C63.4892 81.9644 71.2582 84.6141 77.638 89.1674C79.4131 90.4279 81.0852 91.8428 82.6287 93.3863C89.6774 100.435 94.0506 110.185 94.0506 120.938C94.0506 131.691 89.7031 141.441 82.6287 148.489H82.603Z" fill="#F6F39E"/>
</g>
<path d="M108.997 0.107178H88.7259L44.8388 73.3465H65.1102L108.997 0.107178Z" fill="#7700FF"/>
</svg>
