<svg width="109" height="168" viewBox="0 0 109 168" fill="none" xmlns="http://www.w3.org/2000/svg">
<path d="M0.977417 0.107178H21.2488L65.1101 73.3723H44.8644L0.977417 0.107178Z" fill="#BA3F3F"/>
<path d="M64.6984 79.5976V78.6458H45.4303C44.6843 78.6458 44.0154 78.3371 43.5266 77.8483C43.0379 77.3595 42.7292 76.6907 42.7292 75.9447C42.7292 75.1986 43.0379 74.5298 43.5266 74.041C44.0154 73.5522 44.6843 73.2435 45.4303 73.2435H64.6984C65.4444 73.2435 66.1133 73.5522 66.6021 74.041C67.0908 74.5298 67.3995 75.1986 67.3995 75.9447C67.3995 76.6907 67.0908 77.3595 66.6021 77.8483C66.1133 78.3371 65.4444 78.6458 64.6984 78.6458V80.5237C67.2195 80.5237 69.2775 78.4657 69.2775 75.9447C69.2775 73.4236 67.2195 71.3656 64.6984 71.3656H45.4303C42.9092 71.3656 40.8512 73.4236 40.8512 75.9447C40.8512 78.4657 42.9092 80.5237 45.4303 80.5237H64.6984V79.5719V79.5976Z" fill="#E0C64C"/>
<path d="M101.46 120.938C101.46 146.56 80.6994 167.32 55.0772 167.32C52.8391 167.32 50.6525 167.166 48.5173 166.857C47.514 166.703 46.5107 166.548 45.5332 166.343C34.9087 164.13 25.6477 158.265 19.062 150.136C18.5218 149.467 17.9816 148.772 17.4671 148.052C12.3478 140.952 9.15788 132.334 8.772 122.996C8.772 122.661 8.772 122.327 8.74628 121.993C8.74628 121.632 8.74628 121.272 8.74628 120.938C8.74628 120.552 8.74628 120.14 8.74628 119.755C9.2865 98.5056 24.1299 80.781 44.0154 75.8932C45.739 75.4559 47.5397 75.1472 49.3405 74.9157C51.2441 74.6842 53.1735 74.5555 55.1286 74.5555C63.515 74.5555 71.3869 76.7936 78.204 80.6781C78.9501 81.1154 79.6704 81.5528 80.3907 82.0158C93.1246 90.2736 101.537 104.628 101.537 120.912L101.46 120.938Z" fill="#E0C64C"/>
<g style="mix-blend-mode:soft-light" opacity="0.38">
<path d="M80.3135 82.0416L79.4388 84.3311L78.0754 87.9584L77.6124 89.1932L51.1669 159.731L50.7039 160.94L49.3405 164.568L48.4658 166.883C47.4625 166.729 46.4593 166.574 45.4817 166.368C34.8572 164.156 25.5962 158.291 19.0106 150.162C18.4703 149.493 17.9301 148.798 17.4156 148.078L18.4189 145.325L20.0653 140.849L20.6313 139.28L40.6968 84.717L41.2628 83.1478L42.9092 78.6716L43.9125 75.919C45.6361 75.4817 47.4368 75.173 49.2376 74.9414C51.1412 74.7099 53.0706 74.5813 55.0257 74.5813C63.4121 74.5813 71.284 76.8194 78.1011 80.7039C78.8472 81.1412 79.5675 81.5785 80.2878 82.0416H80.3135Z" fill="#FFFB8C"/>
</g>
<path d="M86.1531 89.8622C84.0951 87.8041 81.857 85.9777 79.4388 84.357C72.4673 79.7007 64.081 76.9739 55.0514 76.9739C50.8583 76.9739 46.7937 77.5656 42.9349 78.6717C41.2371 79.1605 39.5649 79.7522 37.9442 80.421C32.6706 82.6334 27.9372 85.8748 23.9498 89.8364C16.0007 97.7855 11.0615 108.796 11.0615 120.938C11.0615 129.942 13.7627 138.328 18.4189 145.3C20.0396 147.718 21.8918 149.982 23.9498 152.04C30.6383 158.728 39.4878 163.282 49.3405 164.568C51.2184 164.825 53.1221 164.928 55.0514 164.928C67.1937 164.928 78.204 159.989 86.1531 152.04C94.1021 144.091 99.0413 133.08 99.0413 120.938C99.0413 108.796 94.1279 97.7855 86.1531 89.8364V89.8622ZM94.8224 127.061C94.771 127.395 94.7195 127.73 94.6681 128.064C94.5395 128.733 94.4108 129.376 94.2565 130.019C94.1793 130.353 94.1021 130.662 94.025 130.997C93.7934 131.948 93.5105 132.9 93.176 133.852C92.7644 135.087 92.2757 136.322 91.7354 137.505C91.5554 137.891 91.3753 138.303 91.1695 138.688C90.7836 139.46 90.372 140.232 89.9604 140.978C89.6517 141.544 89.2915 142.084 88.9571 142.624C88.597 143.165 88.2368 143.705 87.8767 144.245C87.5165 144.76 87.1306 145.274 86.719 145.789C86.3332 146.303 85.9216 146.792 85.51 147.281C84.8668 148.001 84.2237 148.721 83.5548 149.39C82.8603 150.085 82.1657 150.728 81.4454 151.371C80.3392 152.323 79.1816 153.223 77.9982 154.046C76.5576 155.05 75.0656 155.95 73.4706 156.747C73.2134 156.876 72.9304 157.005 72.6731 157.159C67.3738 159.732 61.4313 161.172 55.1286 161.172C53.6623 161.172 52.196 161.095 50.7811 160.941C46.0734 160.426 41.6229 159.114 37.5584 157.133C37.0953 156.902 36.658 156.696 36.2207 156.439C35.7833 156.207 35.346 155.95 34.9087 155.718C34.4714 155.461 34.0598 155.204 33.6224 154.947C31.9246 153.866 30.3296 152.683 28.8118 151.371C28.0915 150.728 27.3712 150.085 26.7024 149.39C26.368 149.056 26.0335 148.695 25.6991 148.361C25.3647 148.001 25.056 147.641 24.7215 147.281C24.3099 146.792 23.8983 146.303 23.5125 145.789C23.1266 145.274 22.7407 144.76 22.3548 144.245C21.969 143.705 21.6088 143.19 21.2744 142.624C20.94 142.084 20.5798 141.518 20.2711 140.978C20.2454 140.926 20.2197 140.875 20.1939 140.824C19.7823 140.103 19.4222 139.409 19.062 138.663C18.8562 138.277 18.6762 137.891 18.4961 137.479C17.9558 136.296 17.4671 135.061 17.0555 133.826C15.692 129.788 14.946 125.44 14.946 120.938C14.946 116.436 15.692 112.089 17.0555 108.05C17.4671 106.815 17.9558 105.58 18.4961 104.397C18.6762 104.011 18.8562 103.599 19.062 103.213C19.4479 102.442 19.8595 101.67 20.2711 100.924C20.5798 100.358 20.94 99.8178 21.2744 99.2775C21.6345 98.7373 21.9947 98.1971 22.3548 97.6569C22.715 97.1424 23.1009 96.6279 23.5125 96.1134C23.8983 95.5988 24.3099 95.1101 24.7215 94.6213C25.0303 94.2611 25.3647 93.901 25.6991 93.5408C26.0335 93.1807 26.368 92.8463 26.7024 92.5118C27.397 91.8173 28.0915 91.1741 28.8118 90.531C30.8698 88.756 33.1337 87.161 35.5261 85.8233C36.3236 85.386 37.1468 84.9487 37.97 84.5628C38.253 84.4342 38.5359 84.3055 38.8189 84.1769C39.3849 83.9197 39.9508 83.6881 40.5168 83.4566C40.7997 83.3537 41.0827 83.2251 41.3914 83.1222C41.7516 82.9936 42.1117 82.8649 42.4719 82.7363C46.4593 81.3986 50.7296 80.704 55.1543 80.704C63.7208 80.704 71.6441 83.3794 78.1783 87.9328C79.0272 88.5244 79.8762 89.1676 80.6736 89.8364C80.9309 90.068 81.2139 90.2738 81.4711 90.5053C82.1914 91.1484 82.9117 91.7915 83.5806 92.4861C84.2752 93.1807 84.9183 93.8753 85.5357 94.5956C85.9473 95.0843 86.3589 95.5731 86.7448 96.0876C87.1306 96.6021 87.5165 97.1166 87.9024 97.6311C88.2883 98.1714 88.6484 98.6859 88.9828 99.2518C89.3173 99.792 89.6774 100.358 89.9861 100.898C90.4234 101.644 90.8093 102.416 91.1952 103.188C91.401 103.574 91.5811 103.96 91.7612 104.371C92.3014 105.554 92.7902 106.789 93.2018 108.024C93.5105 108.95 93.7934 109.902 94.0507 110.88C94.1279 111.214 94.205 111.523 94.2822 111.857C94.4366 112.5 94.5652 113.169 94.6938 113.812C94.7453 114.147 94.7967 114.481 94.8482 114.815C94.9511 115.484 95.0282 116.153 95.1054 116.822C95.234 118.185 95.3112 119.549 95.3112 120.938C95.3112 122.327 95.234 123.691 95.1054 125.054C95.0282 125.723 94.9511 126.392 94.8482 127.061H94.8224Z" fill="#FAE543"/>
<g style="mix-blend-mode:multiply">
<path d="M95.0798 116.822C95.0026 116.153 94.9254 115.484 94.8225 114.815C94.7711 114.481 94.7196 114.146 94.6681 113.812C94.5395 113.143 94.4109 112.5 94.2565 111.857C94.1794 111.523 94.1022 111.214 94.025 110.879C93.7678 109.928 93.4848 108.976 93.1761 108.024C92.7388 106.789 92.2757 105.554 91.7355 104.371C91.5554 103.985 91.3753 103.573 91.1695 103.188C90.7837 102.416 90.3721 101.644 89.9605 100.898C89.6518 100.332 89.2916 99.7919 88.9572 99.2517C88.597 98.7114 88.2369 98.1712 87.8767 97.631C87.5166 97.1165 87.1307 96.602 86.7191 96.0875C86.3332 95.573 85.9216 95.0842 85.51 94.5954C84.8669 93.8751 84.2238 93.1548 83.5292 92.4859C82.8346 91.7914 82.14 91.1482 81.4197 90.5051C81.1625 90.2736 80.9052 90.0421 80.6222 89.8363C79.8248 89.1674 78.9758 88.55 78.1269 87.9326C71.6185 83.3793 63.6694 80.7039 55.103 80.7039C50.6782 80.7039 46.4079 81.4242 42.4205 82.7361C42.0603 82.8648 41.7002 82.9677 41.34 83.0963C41.057 83.1992 40.7741 83.3278 40.4654 83.4307C39.8994 83.6622 39.3077 83.8938 38.7675 84.151C38.4845 84.2796 38.2016 84.4083 37.9186 84.5369C37.0954 84.9228 36.2722 85.3601 35.4747 85.7974C33.0823 87.1351 30.8442 88.7301 28.7605 90.5051C28.0401 91.1482 27.3198 91.7914 26.651 92.4859C26.3166 92.8204 25.9821 93.1805 25.6477 93.515C25.3133 93.8751 25.0046 94.2353 24.6702 94.5954C24.2586 95.0842 23.847 95.573 23.4611 96.0875C23.0752 96.602 22.6893 97.1165 22.3035 97.631C21.9176 98.1712 21.5574 98.6857 21.223 99.2517C20.8886 99.7919 20.5284 100.358 20.2197 100.898C19.7824 101.644 19.3965 102.416 19.0106 103.188C18.8048 103.573 18.6248 103.959 18.4447 104.371C17.9045 105.554 17.4414 106.789 17.0041 108.024C15.6407 112.063 14.8946 116.41 14.8946 120.912C14.8946 125.414 15.6407 129.762 17.0041 133.8C17.4414 135.035 17.9045 136.27 18.4447 137.453C18.6248 137.839 18.8048 138.251 19.0106 138.637C19.3708 139.357 19.7567 140.077 20.1425 140.772C20.1425 140.772 20.194 140.875 20.2197 140.926C20.5284 141.492 20.8886 142.032 21.223 142.573C21.5831 143.113 21.9433 143.653 22.3035 144.193C22.6636 144.708 23.0495 145.222 23.4611 145.737C23.847 146.251 24.2586 146.74 24.6702 147.229C24.9789 147.589 25.3133 147.949 25.6477 148.309C25.9821 148.67 26.3166 149.004 26.651 149.338C27.3456 150.033 28.0401 150.676 28.7605 151.319C30.2782 152.631 31.8732 153.815 33.571 154.895C34.0084 155.152 34.42 155.435 34.8573 155.667C35.2946 155.924 35.732 156.156 36.1693 156.387C36.6066 156.619 37.0697 156.85 37.507 157.082C41.5715 159.063 46.0477 160.374 50.7297 160.889C52.1703 161.043 53.6109 161.12 55.0772 161.12C61.3542 161.12 67.3224 159.68 72.6217 157.107C72.879 156.979 73.162 156.85 73.4192 156.696C74.9885 155.898 76.5062 154.998 77.9468 153.995C79.1559 153.171 80.3135 152.271 81.394 151.319C82.1143 150.676 82.8346 150.033 83.5035 149.338C84.198 148.644 84.8412 147.949 85.4843 147.229C85.8959 146.74 86.3075 146.251 86.6934 145.737C87.0792 145.222 87.4651 144.708 87.851 144.193C88.2369 143.653 88.597 143.139 88.9315 142.573C89.2659 142.032 89.626 141.467 89.9347 140.926C90.3721 140.18 90.7579 139.409 91.1438 138.637C91.3496 138.251 91.5297 137.865 91.7098 137.453C92.25 136.27 92.713 135.035 93.1504 133.8C93.4591 132.874 93.742 131.923 93.9993 130.945C94.0765 130.611 94.1536 130.302 94.2308 129.967C94.3852 129.324 94.5138 128.655 94.6424 128.012C94.6939 127.678 94.7453 127.343 94.7968 127.009C94.8997 126.34 94.9769 125.671 95.054 125.002C95.1827 123.639 95.2598 122.276 95.2598 120.886C95.2598 119.497 95.1827 118.134 95.054 116.77L95.0798 116.822ZM82.6288 148.489C75.5801 155.538 65.8303 159.911 55.0772 159.911C53.7652 159.911 52.4533 159.86 51.1927 159.706C41.9832 158.78 33.7254 154.664 27.5256 148.489C24.8245 145.788 22.5093 142.676 20.6828 139.254C17.7758 133.8 16.1037 127.549 16.1037 120.938C16.1037 110.185 20.4512 100.435 27.5256 93.3863C31.2558 89.6562 35.732 86.6721 40.7483 84.6912C45.1988 82.9162 50.0351 81.9644 55.103 81.9644C63.5151 81.9644 71.284 84.6141 77.6639 89.1674C79.4389 90.4279 81.111 91.8428 82.6545 93.3863C89.7032 100.435 94.0765 110.185 94.0765 120.938C94.0765 131.691 89.7289 141.441 82.6545 148.489H82.6288Z" fill="#F6F39E"/>
</g>
<path d="M55.0772 132.823C61.7121 132.823 67.0908 127.502 67.0908 120.938C67.0908 114.374 61.7121 109.053 55.0772 109.053C48.4422 109.053 43.0636 114.374 43.0636 120.938C43.0636 127.502 48.4422 132.823 55.0772 132.823Z" fill="#FFF49E"/>
<path d="M55.8746 88.2926L55.0514 111.188L54.2282 88.2926C54.2282 87.1865 55.8746 87.1865 55.8746 88.2926Z" fill="#FFF49E"/>
<path d="M36.3493 94.0552L49.2891 113.066L35.0374 95.0327C34.3685 94.1581 35.7319 93.1805 36.3751 94.0809L36.3493 94.0552Z" fill="#FFF49E"/>
<path d="M23.9498 110.082L45.6875 117.928L23.4353 111.626C22.3805 111.291 22.8951 109.722 23.9498 110.082Z" fill="#FFF49E"/>
<path d="M23.4353 130.276L45.6875 123.973L23.9498 131.819C22.8951 132.18 22.3805 130.61 23.4353 130.276Z" fill="#FFF49E"/>
<path d="M35.0116 146.894L49.2633 128.861L36.3236 147.872C35.6804 148.772 34.317 147.795 34.9859 146.92L35.0116 146.894Z" fill="#FFF49E"/>
<path d="M54.254 153.609L55.0772 130.713L55.9004 153.609C55.9004 154.715 54.254 154.715 54.254 153.609Z" fill="#FFF49E"/>
<path d="M73.7793 147.846L60.8396 128.835L75.0913 146.869C75.7602 147.743 74.3967 148.721 73.7536 147.821L73.7793 147.846Z" fill="#FFF49E"/>
<path d="M86.1788 131.819L64.4411 123.973L86.6933 130.276C87.748 130.61 87.2335 132.18 86.1788 131.819Z" fill="#FFF49E"/>
<path d="M86.6933 111.626L64.4411 117.928L86.1788 110.082C87.2335 109.722 87.748 111.291 86.6933 111.626Z" fill="#FFF49E"/>
<path d="M75.1171 95.0069L60.8654 113.04L73.8051 94.0294C74.4482 93.129 75.8116 94.1066 75.1428 94.9812L75.1171 95.0069Z" fill="#FFF49E"/>
<path d="M75.7087 107.561C75.7087 107.561 72.4673 109.593 69.0459 111.754C65.1871 114.172 61.0711 116.77 61.0711 116.77L74.7569 106.249C75.6573 105.58 76.6348 106.943 75.7087 107.586V107.561Z" fill="#FFF49E"/>
<path d="M63.8237 98.0939C63.8237 98.0939 62.4088 101.618 60.9168 105.348C59.2446 109.567 57.4439 114.043 57.4439 114.043L62.2545 97.5794C62.5889 96.5246 64.2096 97.0649 63.798 98.0939H63.8237Z" fill="#FFF49E"/>
<path d="M48.5687 97.3737C48.5687 97.3737 49.5205 101.052 50.5238 104.937C51.6557 109.31 52.8648 113.992 52.8648 113.992L46.9738 97.8625C46.6136 96.8078 48.2343 96.2933 48.543 97.3737H48.5687Z" fill="#FFF49E"/>
<path d="M35.8091 105.657C35.8091 105.657 38.7675 108.075 41.8802 110.622C45.4045 113.503 49.1604 116.564 49.1604 116.564L34.8315 106.943C33.9054 106.3 34.9344 104.962 35.8091 105.631V105.657Z" fill="#FFF49E"/>
<path d="M30.4068 119.78C30.4068 119.78 34.3942 120.038 38.5359 120.269C43.0121 120.552 47.6941 120.835 47.6941 120.835L30.3811 121.401C29.2492 121.401 29.2749 119.729 30.3811 119.78H30.4068Z" fill="#FFF49E"/>
<path d="M34.4199 134.341C34.4199 134.341 37.6613 132.308 41.0827 130.147C44.9415 127.729 49.0575 125.131 49.0575 125.131L35.3717 135.653C34.4714 136.322 33.4938 134.958 34.4199 134.315V134.341Z" fill="#FFF49E"/>
<path d="M46.305 143.807C46.305 143.807 47.7198 140.283 49.2119 136.553C50.884 132.334 52.6848 127.858 52.6848 127.858L47.8742 144.322C47.5398 145.377 45.9191 144.836 46.3307 143.807H46.305Z" fill="#FFF49E"/>
<path d="M61.5599 144.528C61.5599 144.528 60.608 140.849 59.6048 136.965C58.4729 132.591 57.2638 127.909 57.2638 127.909L63.1548 144.039C63.515 145.094 61.8943 145.608 61.5856 144.528H61.5599Z" fill="#FFF49E"/>
<path d="M74.3195 136.244C74.3195 136.244 71.3611 133.826 68.2484 131.279C64.7241 128.398 60.9682 125.337 60.9682 125.337L75.2971 134.958C76.2232 135.601 75.1942 136.939 74.3195 136.27V136.244Z" fill="#FFF49E"/>
<path d="M79.7218 122.121C79.7218 122.121 75.7344 121.864 71.5927 121.632C67.1165 121.349 62.4345 121.066 62.4345 121.066L79.7475 120.5C80.8794 120.5 80.8537 122.173 79.7475 122.121H79.7218Z" fill="#FFF49E"/>
<path d="M108.997 0.107178H88.7257L44.8644 73.3723H65.1101L108.997 0.107178Z" fill="#E04C4C"/>
</svg>
