<svg width="109" height="168" viewBox="0 0 109 168" fill="none" xmlns="http://www.w3.org/2000/svg">
<path d="M0.977234 0.106934H21.2435L65.1202 73.3797H44.8539L0.977234 0.106934Z" fill="#04D64A"/>
<path d="M64.6856 79.6004V78.664H45.4226C44.6868 78.664 44.018 78.363 43.5164 77.8614C43.0147 77.3598 42.7137 76.6909 42.7137 75.9552C42.7137 75.2194 43.0147 74.5506 43.5164 74.0489C44.018 73.5473 44.6868 73.2463 45.4226 73.2463H64.6856C65.4213 73.2463 66.0901 73.5473 66.5918 74.0489C67.0934 74.5506 67.3944 75.2194 67.3944 75.9552C67.3944 76.6909 67.0934 77.3598 66.5918 77.8614C66.0901 78.363 65.4213 78.664 64.6856 78.664V80.5368C67.2272 80.5368 69.2672 78.4968 69.2672 75.9552C69.2672 73.4135 67.2272 71.3735 64.6856 71.3735H45.4226C42.9144 71.3735 40.8409 73.4135 40.8409 75.9552C40.8409 78.4634 42.8809 80.5368 45.4226 80.5368H64.6856V79.6004Z" fill="#E0C64C"/>
<path d="M101.439 120.935C101.439 146.552 80.6713 167.32 55.0543 167.32C52.8136 167.32 50.6398 167.153 48.4995 166.852C47.4962 166.718 46.493 166.517 45.4897 166.317C34.8884 164.109 25.5913 158.257 19.0365 150.13C18.5015 149.462 17.9664 148.759 17.4313 148.057C12.3146 140.967 9.13752 132.339 8.73621 123.008C8.73621 122.674 8.73621 122.34 8.73621 122.005C8.73621 121.637 8.73621 121.303 8.73621 120.935C8.73621 120.534 8.73621 120.132 8.73621 119.731C9.27129 98.4615 24.1198 80.7704 44.0182 75.8878C45.7572 75.453 47.5297 75.152 49.3356 74.9179C51.2418 74.6838 53.1481 74.55 55.1212 74.55C63.5153 74.55 71.3743 76.7907 78.1966 80.67C78.9323 81.1048 79.668 81.5396 80.3703 82.0078C93.112 90.2681 101.506 104.615 101.506 120.902L101.439 120.935Z" fill="#E0C64C"/>
<g style="mix-blend-mode:multiply">
<path d="M37.2627 116.99C37.2627 116.99 36.9952 115.552 37.5303 114.85C38.0654 114.147 39.9382 111.806 41.1087 111.94C41.7106 112.04 41.1087 113.746 40.6405 114.147C40.1723 114.549 39.169 115.753 39.1356 115.819C39.1021 115.886 40.4733 114.281 41.8444 116.154C41.8444 116.154 39.9716 115.819 39.7375 117.023C39.7375 117.023 42.3795 116.522 44.2188 118.461C44.2188 118.461 46.3257 119.063 47.5297 119.331C48.7336 119.598 50.2719 120.535 50.2719 120.535C50.2719 120.535 52.847 120.97 54.4857 121.906C56.1244 122.842 55.4221 126.889 53.2149 127.123C51.0077 127.357 37.2627 116.923 37.2627 116.923V116.99Z" fill="#C7A91C"/>
</g>
<g style="mix-blend-mode:multiply">
<path d="M65.923 107.893C65.923 107.893 66.826 106.656 68.7991 106.188C68.7991 106.188 75.287 102.174 76.9925 101.84C78.6981 101.506 80.7381 100.703 81.5407 100.904C82.1093 101.037 79.6345 102.342 79.6345 102.342H78.9322L79.367 102.475H78.765L79.2667 102.643C79.2667 102.643 70.906 106.321 69.8692 106.823C69.8692 106.823 77.8286 104.014 78.6647 103.98C79.5007 103.947 79.6011 103.111 84.1158 103.512C86.3899 103.713 85.0857 103.847 85.0857 103.847C85.0857 103.847 85.2529 104.014 85.1191 104.081C84.9854 104.148 84.2161 104.081 83.6142 104.181C83.0122 104.281 74.5178 106.522 74.5178 106.522C74.5178 106.522 71.8758 107.09 71.8758 107.358C71.8758 107.626 73.849 106.823 74.3506 106.756C74.8522 106.689 84.6175 105.184 85.8883 106.054C85.8883 106.054 86.9919 106.121 87.0253 106.355C87.0588 106.589 86.8915 106.622 86.5906 106.522L86.7244 106.689L85.3198 106.856L84.9519 106.622L85.1191 106.89C85.1191 106.89 73.3139 108.094 71.9761 108.796C71.9761 108.796 80.3703 108.462 81.6076 108.896C82.845 109.331 86.0889 109.431 86.7244 110.334C87.3598 111.237 85.1526 109.9 85.1526 109.9L85.7211 110.401C85.7211 110.401 81.7414 109.498 80.504 109.699C79.2667 109.9 74.5512 109.431 74.1834 109.9C73.8155 110.368 76.4575 109.632 80.1362 110.435C83.8148 111.237 87.3263 112.374 87.5938 113.077C87.6942 113.411 86.0889 112.441 85.7545 112.341C85.4201 112.241 86.0555 112.609 86.0555 112.609C86.0555 112.609 85.487 112.709 84.584 112.274C83.6811 111.839 81.5742 111.739 81.5742 111.739C81.5742 111.739 85.4535 113.043 85.8214 113.445C86.1893 113.846 87.0588 113.913 87.1591 114.147C87.2594 114.381 86.2896 114.147 85.7545 113.812C85.2194 113.478 83.4804 112.876 83.0456 113.01C82.6109 113.144 83.2463 113.11 83.3801 113.277C83.5139 113.445 82.3768 113.578 82.1427 113.511C81.9086 113.445 80.0358 113.344 79.9355 113.578C79.7683 114.013 78.5309 113.98 77.628 113.846C76.5244 113.712 74.0496 112.809 73.2804 112.943C73.2804 112.943 73.9493 113.378 72.1434 113.511C72.1434 113.511 75.8889 114.247 76.3237 114.983C76.4909 115.284 74.7185 115.418 74.7185 115.418C74.7185 115.418 75.3539 115.852 73.6483 115.986C73.6483 115.986 76.5244 116.789 74.2503 117.357C74.2503 117.357 74.9191 117.959 74.1499 118.093C74.1499 118.093 75.0194 118.193 73.782 118.896C73.782 118.896 74.6181 119.096 73.0129 119.464C73.0129 119.464 73.8489 119.765 72.9125 120.3C72.9125 120.3 73.4142 120.835 72.6116 121.17C72.6116 121.17 73.7151 121.772 72.3774 122.34C72.3774 122.34 72.7119 123.344 71.6417 123.678C71.6417 123.678 72.3774 123.946 71.5414 124.514C71.5414 124.514 71.8089 124.782 71.0732 125.283C71.0732 125.283 72.2771 125.785 71.1401 126.119C71.1401 126.119 71.4745 126.554 70.304 126.688C70.304 126.688 71.207 126.989 70.2037 127.256C70.2037 127.256 71.0063 127.39 70.003 128.327C70.003 128.327 70.7053 128.594 69.7355 129.296C69.7355 129.296 70.003 129.898 69.8358 130.099C69.8358 130.099 70.4378 130.835 69.468 131.002C68.4981 131.169 68.3309 131.169 68.3309 131.169C68.3309 131.169 69.167 131.738 68.4647 131.871C68.4647 131.871 68.8994 132.407 68.866 132.574C68.8326 132.741 69.769 132.473 69.2339 133.443C68.6988 134.413 67.5952 133.309 67.5617 133.276C67.5283 133.243 66.3243 133.109 65.9565 133.075C65.5886 133.042 64.0168 132.306 64.0168 132.306L60.104 130.066L61.4752 112.341L65.9899 107.826L65.923 107.893Z" fill="#C7A91C"/>
</g>
<mask id="mask0_6020_6735" style="mask-type:luminance" maskUnits="userSpaceOnUse" x="60" y="100" width="28" height="34">
<path d="M65.923 107.893C65.923 107.893 66.826 106.656 68.7991 106.188C68.7991 106.188 75.287 102.174 76.9925 101.84C78.6981 101.506 80.7381 100.703 81.5407 100.904C82.1093 101.037 79.6345 102.342 79.6345 102.342H78.9322L79.367 102.475H78.765L79.2667 102.643C79.2667 102.643 70.906 106.321 69.8692 106.823C69.8692 106.823 77.8286 104.014 78.6647 103.98C79.5007 103.947 79.6011 103.111 84.1158 103.512C86.3899 103.713 85.0857 103.847 85.0857 103.847C85.0857 103.847 85.2529 104.014 85.1191 104.081C84.9854 104.148 84.2161 104.081 83.6142 104.181C83.0122 104.281 74.5178 106.522 74.5178 106.522C74.5178 106.522 71.8758 107.09 71.8758 107.358C71.8758 107.626 73.849 106.823 74.3506 106.756C74.8522 106.689 84.6175 105.184 85.8883 106.054C85.8883 106.054 86.9919 106.121 87.0253 106.355C87.0588 106.589 86.8915 106.622 86.5906 106.522L86.7244 106.689L85.3198 106.856L84.9519 106.622L85.1191 106.89C85.1191 106.89 73.3139 108.094 71.9761 108.796C71.9761 108.796 80.3703 108.462 81.6076 108.896C82.845 109.331 86.0889 109.431 86.7244 110.334C87.3598 111.237 85.1526 109.9 85.1526 109.9L85.7211 110.401C85.7211 110.401 81.7414 109.498 80.504 109.699C79.2667 109.9 74.5512 109.431 74.1834 109.9C73.8155 110.368 76.4575 109.632 80.1362 110.435C83.8148 111.237 87.3263 112.374 87.5938 113.077C87.6942 113.411 86.0889 112.441 85.7545 112.341C85.4201 112.241 86.0555 112.609 86.0555 112.609C86.0555 112.609 85.487 112.709 84.584 112.274C83.6811 111.839 81.5742 111.739 81.5742 111.739C81.5742 111.739 85.4535 113.043 85.8214 113.445C86.1893 113.846 87.0588 113.913 87.1591 114.147C87.2594 114.381 86.2896 114.147 85.7545 113.812C85.2194 113.478 83.4804 112.876 83.0456 113.01C82.6109 113.144 83.2463 113.11 83.3801 113.277C83.5139 113.445 82.3768 113.578 82.1427 113.511C81.9086 113.445 80.0358 113.344 79.9355 113.578C79.7683 114.013 78.5309 113.98 77.628 113.846C76.5244 113.712 74.0496 112.809 73.2804 112.943C73.2804 112.943 73.9493 113.378 72.1434 113.511C72.1434 113.511 75.8889 114.247 76.3237 114.983C76.4909 115.284 74.7185 115.418 74.7185 115.418C74.7185 115.418 75.3539 115.852 73.6483 115.986C73.6483 115.986 76.5244 116.789 74.2503 117.357C74.2503 117.357 74.9191 117.959 74.1499 118.093C74.1499 118.093 75.0194 118.193 73.782 118.896C73.782 118.896 74.6181 119.096 73.0129 119.464C73.0129 119.464 73.8489 119.765 72.9125 120.3C72.9125 120.3 73.4142 120.835 72.6116 121.17C72.6116 121.17 73.7151 121.772 72.3774 122.34C72.3774 122.34 72.7119 123.344 71.6417 123.678C71.6417 123.678 72.3774 123.946 71.5414 124.514C71.5414 124.514 71.8089 124.782 71.0732 125.283C71.0732 125.283 72.2771 125.785 71.1401 126.119C71.1401 126.119 71.4745 126.554 70.304 126.688C70.304 126.688 71.207 126.989 70.2037 127.256C70.2037 127.256 71.0063 127.39 70.003 128.327C70.003 128.327 70.7053 128.594 69.7355 129.296C69.7355 129.296 70.003 129.898 69.8358 130.099C69.8358 130.099 70.4378 130.835 69.468 131.002C68.4981 131.169 68.3309 131.169 68.3309 131.169C68.3309 131.169 69.167 131.738 68.4647 131.871C68.4647 131.871 68.8994 132.407 68.866 132.574C68.8326 132.741 69.769 132.473 69.2339 133.443C68.6988 134.413 67.5952 133.309 67.5617 133.276C67.5283 133.243 66.3243 133.109 65.9565 133.075C65.5886 133.042 64.0168 132.306 64.0168 132.306L60.104 130.066L61.4752 112.341L65.9899 107.826L65.923 107.893Z" fill="white"/>
</mask>
<g mask="url(#mask0_6020_6735)">
<path d="M71.6753 110.535C71.5415 110.301 71.3074 110.134 71.1067 110C70.8726 109.866 70.6385 109.732 70.4378 109.565C70.6051 109.532 70.7723 109.465 70.9061 109.365C71.0399 109.231 71.1401 108.997 71.0733 108.83C71.0064 108.595 70.7723 108.529 70.5716 108.462C70.371 108.395 70.2038 108.361 70.0031 108.294C70.2707 108.194 70.5047 108.06 70.7054 107.86C70.7388 107.826 70.7388 107.726 70.7054 107.692C70.2037 107.258 69.6018 107.024 68.9664 106.923C68.9999 106.856 68.9664 106.756 68.8995 106.756C68.7992 106.756 68.7657 106.856 68.7992 106.923C68.5651 106.923 68.2976 106.923 68.03 106.923C67.8962 106.923 67.9631 107.157 68.0969 107.124C68.9329 106.99 69.8025 107.224 70.4713 107.759C70.2038 107.96 69.9028 108.094 69.6018 108.161C69.5014 108.161 69.5014 108.361 69.6018 108.361C69.8024 108.428 70.0365 108.495 70.2372 108.529C70.3375 108.529 70.4379 108.595 70.5382 108.629C70.6385 108.629 70.7723 108.662 70.8392 108.763C70.9395 108.896 70.8392 109.097 70.7389 109.197C70.5717 109.298 70.371 109.331 70.2038 109.365C70.1369 109.365 70.1034 109.465 70.1369 109.532C70.3375 109.799 70.6051 109.967 70.9061 110.134C71.1402 110.268 71.4746 110.435 71.5415 110.736C71.6418 111.171 71.2405 111.472 70.8726 111.605C70.4044 111.772 69.9028 111.739 69.468 111.906C69.4011 111.906 69.3343 112.04 69.4346 112.073C69.5684 112.174 69.7021 112.308 69.8359 112.408C69.9028 112.475 69.9697 112.508 70.0365 112.575C70.1034 112.642 70.1703 112.675 70.07 112.742C69.9697 112.843 69.8024 112.809 69.6687 112.843C69.5349 112.843 69.3677 112.843 69.234 112.843C68.6989 112.843 68.0969 112.809 67.6287 113.144C67.5618 113.177 67.5618 113.311 67.6287 113.344C67.9631 113.512 68.2975 113.679 68.632 113.879C68.0634 114.18 67.3946 114.08 66.7592 114.08C66.1572 114.08 65.5218 114.247 65.154 114.715C65.0871 114.782 65.1539 114.883 65.2543 114.883C66.0903 114.983 66.9264 115.184 67.729 115.518C68.1303 115.685 68.4982 115.886 68.8326 116.12C68.9329 116.187 68.9998 116.22 69.1002 116.287C69.167 116.354 69.2674 116.421 69.3008 116.488C69.3677 116.689 68.9998 116.755 68.8995 116.789C68.3644 116.956 67.8628 117.123 67.3277 117.291C67.2274 117.324 67.2274 117.491 67.3277 117.491C67.9297 117.491 68.4982 117.558 69.0667 117.625C69.5684 117.692 70.1369 117.792 70.6051 117.993C71.0064 118.16 71.4077 118.494 71.1402 118.963C71.0064 119.163 70.8058 119.331 70.6385 119.498C70.4379 119.665 70.2038 119.799 70.0031 119.899C69.0333 120.401 67.9297 120.568 66.8595 120.735C66.5585 120.769 66.291 120.835 65.99 120.869C65.7894 120.902 65.5218 120.902 65.3546 121.07C65.2208 121.203 65.2208 121.404 65.3546 121.504C65.4549 121.571 65.5552 121.605 65.689 121.638C65.8228 121.672 65.9566 121.738 66.1238 121.772C66.4247 121.872 66.7257 121.939 67.0267 121.972C67.1939 121.972 67.729 122.006 67.6621 122.307C67.5953 122.574 67.2274 122.708 66.9933 122.809C66.6923 122.976 66.3913 123.143 66.0903 123.31C66.0235 123.31 66.0234 123.411 66.0569 123.477C66.2241 123.812 66.592 123.912 66.9598 123.946C67.1939 123.946 67.4281 123.946 67.6621 124.079C67.8294 124.146 67.9965 124.347 67.9965 124.514C67.9965 124.882 67.3612 124.882 67.1271 125.049C66.8595 125.216 66.6589 125.584 66.9264 125.818C67.1605 126.019 67.5283 125.952 67.729 126.22C67.8962 126.42 67.8628 126.788 67.6621 126.989C67.4281 127.19 67.0936 127.123 66.8595 127.29C66.592 127.491 66.6923 127.792 66.8929 127.992C67.0601 128.126 67.2274 128.226 67.2608 128.427C67.2942 128.628 67.2274 128.828 67.0602 128.929C66.8929 129.062 66.6254 129.062 66.4247 129.096C66.2241 129.096 66.0234 129.163 65.8562 129.263C65.7893 129.296 65.7894 129.363 65.8228 129.43C65.99 129.765 66.3578 129.898 66.6254 130.166C66.7592 130.3 66.8929 130.467 66.8595 130.668C66.8595 130.868 66.6254 130.935 66.4582 130.969C66.2576 130.969 66.0569 130.969 65.8897 130.935C65.6556 130.935 65.388 130.868 65.154 130.868L63.649 130.701C63.649 130.701 63.5152 130.902 63.649 130.935C64.2175 131.002 64.7861 131.069 65.388 131.102C65.6556 131.102 65.9231 131.169 66.1907 131.169C66.3913 131.169 66.592 131.169 66.7592 131.102C67.1605 130.935 67.1939 130.5 66.9598 130.199C66.7257 129.865 66.3244 129.731 66.0903 129.43C66.3913 129.296 66.7926 129.363 67.1271 129.196C67.428 129.062 67.5953 128.694 67.4949 128.36C67.4615 128.193 67.3611 128.059 67.2274 127.959C67.1271 127.892 66.8929 127.758 66.9598 127.591C67.0267 127.457 67.1939 127.457 67.3277 127.424C67.4615 127.39 67.6287 127.357 67.7625 127.29C68.03 127.156 68.1303 126.822 68.0969 126.554C68.0969 126.22 67.8628 126.019 67.5618 125.919C67.4281 125.885 67.2274 125.852 67.1271 125.752C66.9598 125.584 67.1605 125.384 67.3277 125.317C67.6287 125.15 68.0635 125.183 68.2307 124.815C68.4313 124.38 68.03 124.013 67.6287 123.912C67.2274 123.812 66.6589 123.912 66.3913 123.544C66.6254 123.411 66.893 123.277 67.1271 123.143C67.3612 123.009 67.6287 122.909 67.7959 122.708C67.9297 122.541 68.03 122.34 67.8962 122.173C67.7959 121.973 67.5618 121.939 67.3611 121.906C66.7926 121.805 66.1907 121.672 65.6221 121.471C65.4549 121.404 65.5887 121.304 65.689 121.27C65.8228 121.237 65.99 121.203 66.1238 121.203C66.4247 121.136 66.7257 121.103 67.0602 121.07C68.1638 120.902 69.3008 120.735 70.3041 120.167C70.5382 120.033 70.7389 119.899 70.9395 119.732C71.1402 119.565 71.3408 119.397 71.4411 119.163C71.6418 118.762 71.4411 118.361 71.0733 118.127C70.8726 117.993 70.6385 117.926 70.4044 117.859C70.07 117.759 69.7356 117.692 69.4011 117.658C68.9329 117.592 68.4648 117.525 67.9631 117.491C68.2975 117.391 68.6654 117.257 68.9998 117.157C69.167 117.09 69.3677 117.056 69.468 116.889C69.5684 116.722 69.5349 116.555 69.4011 116.421C69.2339 116.254 69.0333 116.153 68.8326 116.02C68.632 115.886 68.3978 115.786 68.1972 115.652C67.7624 115.451 67.3277 115.251 66.8595 115.117C66.3913 114.983 65.9566 114.883 65.4549 114.816C65.8562 114.448 66.4582 114.414 66.9598 114.414C67.5952 114.414 68.2976 114.448 68.8661 114.08C68.933 114.047 68.933 113.946 68.8661 113.879C68.5317 113.679 68.2306 113.512 67.8962 113.344C68.4313 113.077 69.1002 113.211 69.7022 113.177C69.9362 113.177 70.3375 113.11 70.3375 112.809C70.3375 112.642 70.1703 112.542 70.0365 112.441C69.9028 112.341 69.8024 112.241 69.6687 112.14C70.3375 111.94 71.1067 112.04 71.5749 111.438C71.7421 111.204 71.7755 110.87 71.6418 110.602L71.6753 110.535Z" fill="#C7A91C"/>
</g>
<path d="M46.8608 129.765C46.8608 129.765 46.4929 127.491 44.8208 125.016C43.1486 122.541 40.0385 120.434 39.1021 120.1C38.1657 119.765 37.8312 118.896 37.7978 118.528C37.7644 118.16 37.1624 117.659 37.0286 117.525C36.8949 117.391 36.8949 116.455 36.7277 116.321C36.7277 116.321 37.1624 116.321 37.2293 116.555C37.2962 116.789 38.3663 116.856 38.3998 117.19C38.4332 117.525 39.3362 117.19 39.7041 117.491C40.0719 117.792 40.6404 117.759 41.0752 118.026C41.5099 118.294 42.948 118.628 42.9814 118.796C43.0149 118.963 42.3794 118.929 42.3794 118.929C42.3794 118.929 43.483 118.929 43.5834 119.197C43.6837 119.464 44.4195 119.297 44.4529 119.431C44.4863 119.565 43.784 119.732 43.8509 119.832C43.9178 119.933 44.988 119.699 45.0548 119.933C45.1217 120.167 44.7204 119.966 44.7204 120.167C44.7204 120.367 45.6903 119.999 45.8241 120.167C45.9578 120.334 45.6568 120.334 45.7906 120.501C45.9244 120.668 46.6267 120.1 46.9611 120.668C46.9611 120.668 46.6935 120.601 46.6266 120.769C46.5598 120.936 47.6968 120.936 47.8975 121.17C48.0981 121.404 47.3624 121.337 47.2286 121.27C47.0949 121.203 47.4961 121.337 48.1316 121.304C48.767 121.27 48.165 121.739 47.9644 121.705C47.7637 121.672 48.5329 121.705 48.6667 121.839C48.8004 121.973 48.4994 122.274 48.3991 122.24C48.2988 122.207 50.0712 122.508 50.2719 122.809C50.4725 123.11 49.7368 122.942 49.7368 122.942C49.7368 122.942 50.506 122.942 50.5394 123.11C50.5729 123.277 50.1716 123.344 50.1716 123.344C50.1716 123.344 50.7067 123.243 50.7736 123.344C50.8404 123.444 50.9408 123.645 51.0745 123.611C51.2083 123.578 50.7401 123.779 50.7401 123.946C50.7401 124.113 51.7768 124.013 51.8103 124.213C51.8437 124.414 51.2752 124.347 51.2752 124.347C51.2752 124.347 52.1447 124.447 52.0778 124.681C52.0109 124.916 51.7434 124.782 51.7434 124.782C51.7434 124.782 52.1781 124.782 52.1112 124.949C52.0444 125.116 51.9106 125.116 51.9106 125.116C51.9106 125.116 52.5795 125.25 52.6129 125.35C52.6464 125.451 51.9775 125.451 51.9775 125.451C51.9775 125.451 52.7801 125.484 52.6798 125.651C52.5794 125.819 52.9139 126.053 52.9139 126.053C52.9139 126.053 55.0542 127.156 52.3454 128.159C49.6365 129.163 46.8942 129.765 46.8942 129.765H46.8608Z" fill="#FFEC8C"/>
<mask id="mask1_6020_6735" style="mask-type:luminance" maskUnits="userSpaceOnUse" x="36" y="116" width="18" height="14">
<path d="M46.8608 129.765C46.8608 129.765 46.4929 127.491 44.8208 125.016C43.1486 122.541 40.0385 120.434 39.1021 120.1C38.1657 119.765 37.8312 118.896 37.7978 118.528C37.7644 118.16 37.1624 117.659 37.0286 117.525C36.8949 117.391 36.8949 116.455 36.7277 116.321C36.7277 116.321 37.1624 116.321 37.2293 116.555C37.2962 116.789 38.3663 116.856 38.3998 117.19C38.4332 117.525 39.3362 117.19 39.7041 117.491C40.0719 117.792 40.6404 117.759 41.0752 118.026C41.5099 118.294 42.948 118.628 42.9814 118.796C43.0149 118.963 42.3794 118.929 42.3794 118.929C42.3794 118.929 43.483 118.929 43.5834 119.197C43.6837 119.464 44.4195 119.297 44.4529 119.431C44.4863 119.565 43.784 119.732 43.8509 119.832C43.9178 119.933 44.988 119.699 45.0548 119.933C45.1217 120.167 44.7204 119.966 44.7204 120.167C44.7204 120.367 45.6903 119.999 45.8241 120.167C45.9578 120.334 45.6568 120.334 45.7906 120.501C45.9244 120.668 46.6267 120.1 46.9611 120.668C46.9611 120.668 46.6935 120.601 46.6266 120.769C46.5598 120.936 47.6968 120.936 47.8975 121.17C48.0981 121.404 47.3624 121.337 47.2286 121.27C47.0949 121.203 47.4961 121.337 48.1316 121.304C48.767 121.27 48.165 121.739 47.9644 121.705C47.7637 121.672 48.5329 121.705 48.6667 121.839C48.8004 121.973 48.4994 122.274 48.3991 122.24C48.2988 122.207 50.0712 122.508 50.2719 122.809C50.4725 123.11 49.7368 122.942 49.7368 122.942C49.7368 122.942 50.506 122.942 50.5394 123.11C50.5729 123.277 50.1716 123.344 50.1716 123.344C50.1716 123.344 50.7067 123.243 50.7736 123.344C50.8404 123.444 50.9408 123.645 51.0745 123.611C51.2083 123.578 50.7401 123.779 50.7401 123.946C50.7401 124.113 51.7768 124.013 51.8103 124.213C51.8437 124.414 51.2752 124.347 51.2752 124.347C51.2752 124.347 52.1447 124.447 52.0778 124.681C52.0109 124.916 51.7434 124.782 51.7434 124.782C51.7434 124.782 52.1781 124.782 52.1112 124.949C52.0444 125.116 51.9106 125.116 51.9106 125.116C51.9106 125.116 52.5795 125.25 52.6129 125.35C52.6464 125.451 51.9775 125.451 51.9775 125.451C51.9775 125.451 52.7801 125.484 52.6798 125.651C52.5794 125.819 52.9139 126.053 52.9139 126.053C52.9139 126.053 55.0542 127.156 52.3454 128.159C49.6365 129.163 46.8942 129.765 46.8942 129.765H46.8608Z" fill="white"/>
</mask>
<g mask="url(#mask1_6020_6735)">
<g style="mix-blend-mode:multiply">
<path d="M50.4059 125.451C50.4059 125.451 50.038 125.25 50.1383 125.083C50.1718 124.982 50.2386 124.915 50.2386 124.815C50.2386 124.715 50.2052 124.614 50.1383 124.548C50.0045 124.38 49.8039 124.313 49.6032 124.313C49.5698 124.313 49.5363 124.313 49.5029 124.313C49.4695 124.313 49.4026 124.313 49.3691 124.313C49.3357 124.313 49.2688 124.313 49.2354 124.313C49.1016 124.313 48.9678 124.313 48.8341 124.313C48.7337 124.313 48.5331 124.313 48.4996 124.18C48.4327 124.079 48.533 123.912 48.5999 123.812C48.7003 123.645 48.8006 123.477 48.8341 123.277C48.8341 123.11 48.834 122.942 48.6668 122.842C48.5665 122.775 48.4662 122.742 48.3659 122.742C48.2321 122.742 48.0983 122.742 47.9646 122.775C47.6636 122.775 47.396 122.842 47.095 122.842C47.0616 122.842 46.9947 122.842 46.9278 122.842C46.8609 122.842 46.794 122.842 46.8275 122.742C46.8275 122.641 46.9278 122.574 46.9278 122.474C46.9612 122.173 46.6268 122.073 46.3593 122.073C46.2924 122.073 46.2589 122.073 46.1921 122.073C46.1586 122.073 46.0918 122.073 46.0249 122.073C45.8911 122.073 45.7239 122.073 45.7239 121.906C45.7239 121.738 45.9245 121.605 45.9914 121.471C46.0583 121.27 45.8911 121.136 45.6904 121.103C45.4563 121.07 45.2557 121.036 45.0216 121.003C45.0885 120.902 45.1554 120.735 45.1219 120.601C45.1219 120.334 44.8544 120.167 44.6203 120.066C43.9849 119.799 43.2826 119.632 42.5803 119.598C42.2459 119.163 41.6773 119.063 41.1422 119.063C41.0419 119.063 40.975 119.063 40.8747 119.063C40.8747 118.963 40.8747 118.829 40.8747 118.729C40.8747 118.662 40.8413 118.628 40.7744 118.628C40.6406 118.628 40.5403 118.628 40.4065 118.628C40.2058 118.628 40.0052 118.628 39.8046 118.561C39.8714 118.428 39.8714 118.227 39.8046 118.093C39.7042 117.926 39.5035 117.859 39.3029 117.859C39.2026 117.859 39.1022 117.859 39.0019 117.893C38.9016 117.826 38.8347 117.692 38.7344 117.625C38.7009 117.625 38.6341 117.592 38.6006 117.592C38.5672 117.592 38.5337 117.592 38.5003 117.592C38.4334 117.592 38.3331 117.692 38.2662 117.692C38.2662 117.692 38.2662 117.692 38.2327 117.692C38.1324 117.692 38.0321 117.558 37.9652 117.525C37.8649 117.458 37.7646 117.424 37.6642 117.424C37.5973 117.424 37.5639 117.424 37.497 117.424C37.3298 117.424 37.1626 117.458 37.0288 117.558C36.9285 117.625 36.9954 117.759 37.0957 117.759C37.0957 117.759 37.1291 117.759 37.1626 117.759C37.2629 117.692 37.3967 117.658 37.5304 117.658C37.5973 117.658 37.6642 117.658 37.7311 117.658C37.9317 117.725 38.0656 117.926 38.2996 117.926C38.4 117.926 38.4668 117.893 38.5337 117.826C38.5672 117.826 38.6006 117.792 38.634 117.792C38.634 117.792 38.6675 117.792 38.7009 117.792C38.8013 117.893 38.8681 118.026 39.0353 118.093C39.0688 118.093 39.1023 118.093 39.1357 118.026C39.2026 118.026 39.2695 118.026 39.3364 118.026C39.4367 118.026 39.537 118.026 39.6373 118.127C39.7377 118.227 39.7377 118.428 39.6039 118.461C39.5036 118.494 39.537 118.628 39.6039 118.662C39.8714 118.729 40.1724 118.762 40.44 118.762C40.5069 118.762 40.6071 118.762 40.7075 118.762C40.7075 118.862 40.7075 118.996 40.7075 119.096C40.7075 119.163 40.741 119.197 40.8078 119.197C40.9416 119.197 41.0754 119.197 41.2091 119.197C41.4432 119.197 41.7108 119.197 41.9449 119.297C42.1121 119.364 42.2793 119.431 42.4131 119.598C42.48 119.665 42.48 119.732 42.5803 119.732C42.7141 119.732 42.8478 119.732 42.9482 119.765C43.4498 119.832 43.918 119.933 44.3862 120.133C44.5534 120.2 44.8544 120.267 44.9213 120.468C44.9882 120.635 44.9213 120.835 44.7206 120.902C44.6203 120.936 44.6871 121.103 44.7875 121.103C45.055 121.136 45.3226 121.17 45.5901 121.203C45.657 121.203 45.8242 121.203 45.7908 121.304C45.7908 121.371 45.6905 121.437 45.657 121.504C45.5901 121.605 45.4898 121.772 45.5232 121.906C45.5232 122.039 45.6905 122.14 45.8242 122.173C45.8911 122.173 45.958 122.173 46.0249 122.173C46.1252 122.173 46.2255 122.173 46.3259 122.173C46.3259 122.173 46.3593 122.173 46.3928 122.173C46.5265 122.173 46.6937 122.173 46.6937 122.307C46.6937 122.374 46.6268 122.474 46.5934 122.574C46.5934 122.641 46.5934 122.742 46.5934 122.809C46.6603 122.909 46.7606 122.942 46.8944 122.942C46.9613 122.942 47.0616 122.942 47.1285 122.942C47.396 122.942 47.6635 122.909 47.9311 122.875C48.0314 122.875 48.1652 122.842 48.299 122.842C48.4327 122.842 48.5331 122.842 48.5665 123.009C48.6668 123.411 48.1652 123.678 48.2321 124.079C48.2655 124.28 48.4996 124.347 48.6668 124.38C48.8675 124.414 49.0347 124.447 49.2354 124.447C49.2688 124.447 49.3357 124.447 49.3691 124.447C49.4026 124.447 49.4694 124.447 49.5363 124.447C49.737 124.447 49.9377 124.447 50.0046 124.681C50.0046 124.782 49.9376 124.849 49.9042 124.949C49.9042 125.016 49.9042 125.116 49.9042 125.183C49.9711 125.35 50.1383 125.417 50.2721 125.517C50.4393 125.685 50.4393 125.885 50.2721 126.053C50.0714 126.22 49.8039 126.253 49.5698 126.32C49.3691 126.387 49.135 126.487 49.0013 126.654C48.9344 126.721 48.9678 126.822 49.0347 126.822C49.2688 126.889 49.6032 127.056 49.4695 127.357C49.3357 127.624 49.0013 127.691 48.7337 127.758C48.6 127.758 48.4996 127.858 48.4662 127.992C48.4327 128.159 48.6334 128.226 48.7672 128.26C48.8675 128.26 48.9678 128.327 49.0013 128.46C49.0013 128.527 49.0013 128.561 49.0013 128.628C49.0013 128.694 48.9678 128.761 48.9678 128.862C48.9678 128.929 49.0347 128.962 49.0681 128.962C49.1016 128.962 49.1685 128.929 49.1685 128.862C49.1685 128.761 49.2354 128.661 49.2354 128.594C49.2354 128.494 49.2354 128.36 49.1685 128.293C49.1016 128.193 49.0347 128.159 48.9344 128.126C48.9009 128.126 48.8341 128.126 48.8006 128.093H48.7672C48.7672 128.093 48.8006 128.059 48.8341 128.059C49.2019 127.992 49.6367 127.858 49.737 127.424C49.8039 127.089 49.5698 126.889 49.3022 126.755C49.6032 126.521 50.0714 126.554 50.3724 126.32C50.6734 126.086 50.7737 125.651 50.4393 125.417L50.4059 125.451Z" fill="#F6F39E"/>
</g>
<g style="mix-blend-mode:multiply">
<path d="M47.7639 128.627C47.7639 128.627 47.6302 128.594 47.5633 128.594H47.5298C47.5298 128.594 47.5298 128.527 47.5298 128.493C47.6636 128.092 48.1652 127.791 47.998 127.323C47.8977 126.989 47.5298 126.855 47.162 126.855C47.2957 126.688 47.4295 126.52 47.4629 126.32C47.4629 126.119 47.4295 125.851 47.2289 125.718C47.1285 125.651 47.0282 125.617 46.9278 125.617C46.9278 125.617 46.9279 125.617 46.8944 125.617C46.8944 125.617 46.8944 125.617 46.861 125.617C46.861 125.617 46.8275 125.617 46.7941 125.617C46.6938 125.617 46.6938 125.55 46.7272 125.45C46.7941 125.183 46.9947 124.915 46.9278 124.648C46.861 124.146 46.2925 124.213 45.9246 124.179C45.8577 124.179 45.7574 124.146 45.6905 124.079C45.5902 123.945 45.657 123.745 45.6236 123.611C45.5901 123.343 45.423 123.109 45.1889 122.975C44.9213 122.808 44.6203 122.708 44.3193 122.641C44.1856 122.608 44.0518 122.574 43.918 122.507C43.7508 122.407 43.7174 122.273 43.6505 122.106C43.5502 121.872 43.3829 121.705 43.1154 121.604C42.8813 121.537 42.6137 121.537 42.3796 121.47C42.1455 121.437 41.878 121.337 41.8111 121.069C41.8111 120.969 41.8111 120.835 41.7108 120.735C41.6439 120.668 41.5771 120.601 41.4767 120.601C41.3764 120.601 41.276 120.601 41.1757 120.601C41.1757 120.601 41.1757 120.601 41.1423 120.601C41.1423 120.601 41.1423 120.601 41.1089 120.601C41.042 120.601 40.9751 120.601 40.9082 120.601C40.8413 120.601 40.741 120.601 40.7075 120.501C40.6406 120.4 40.7075 120.233 40.6072 120.133C40.5069 119.999 40.3731 119.966 40.2059 119.966C40.1725 119.966 40.1056 119.966 40.0721 119.966C40.0053 119.966 39.9384 119.966 39.838 119.966C39.8046 119.966 39.7712 119.966 39.7043 119.966C39.5705 119.966 39.5705 119.832 39.5036 119.731C39.4367 119.631 39.3364 119.598 39.2361 119.598C39.2361 119.598 39.2361 119.598 39.2026 119.598C39.1357 119.598 39.1023 119.598 39.0354 119.598C38.9351 119.598 38.9016 119.598 38.9351 119.464C38.9685 119.196 38.8347 118.895 38.5338 118.829C38.5338 118.829 38.5338 118.829 38.5003 118.829C38.4 118.795 38.2662 118.762 38.1659 118.728C38.1325 118.728 38.0656 118.728 38.0656 118.661C38.0656 118.594 38.0656 118.528 38.0321 118.494C37.9987 118.36 37.8984 118.293 37.7646 118.26C37.6643 118.227 37.5305 118.227 37.4302 118.16C37.4302 118.16 37.3967 118.16 37.3633 118.16C37.2629 118.16 37.1961 118.293 37.2964 118.36C37.3967 118.427 37.5305 118.427 37.6643 118.461C37.6977 118.461 37.7646 118.494 37.7646 118.528C37.7646 118.561 37.798 118.628 37.798 118.695C37.798 118.829 37.8984 118.895 38.0321 118.929C38.1659 118.962 38.2997 118.996 38.4334 119.063C38.4334 119.063 38.4334 119.063 38.4669 119.063C38.4669 119.063 38.4669 119.063 38.5003 119.063C38.6007 119.096 38.701 119.196 38.701 119.33C38.701 119.464 38.6341 119.598 38.7344 119.698C38.8013 119.765 38.8682 119.798 38.9351 119.798C38.9351 119.798 39.0019 119.798 39.0354 119.798C39.0354 119.798 39.1023 119.798 39.1358 119.798C39.1692 119.798 39.2026 119.798 39.2361 119.798C39.3364 119.832 39.3364 119.999 39.4033 120.066C39.4701 120.133 39.5371 120.166 39.6374 120.166C39.6708 120.166 39.7043 120.166 39.7377 120.166C39.8046 120.166 39.838 120.166 39.9049 120.166C39.9718 120.166 40.0053 120.166 40.0721 120.166C40.0721 120.166 40.139 120.166 40.1725 120.166C40.4066 120.166 40.3062 120.501 40.4065 120.634C40.5069 120.768 40.7075 120.802 40.8747 120.802C40.8747 120.802 40.9416 120.802 40.9751 120.802C41.0085 120.802 41.0419 120.802 41.0754 120.802C41.1757 120.802 41.3095 120.802 41.3764 120.869C41.4433 120.935 41.4433 121.103 41.4767 121.203C41.5102 121.303 41.5771 121.404 41.6774 121.47C42.0787 121.805 42.6138 121.638 43.0485 121.872C43.3161 122.006 43.316 122.307 43.4833 122.507C43.6505 122.708 43.918 122.775 44.1856 122.842C44.4866 122.909 44.7875 123.009 45.0216 123.21C45.122 123.31 45.2223 123.444 45.2557 123.577C45.2892 123.711 45.2557 123.878 45.2557 124.012C45.356 124.48 45.8912 124.347 46.2256 124.413C46.9948 124.547 45.9246 125.484 46.3928 125.751C46.4931 125.818 46.6269 125.818 46.7272 125.818C46.861 125.818 46.9613 125.885 47.0282 126.019C47.1619 126.353 46.861 126.621 46.6604 126.855C46.5935 126.922 46.6603 127.055 46.7272 127.055C46.7272 127.055 46.7941 127.055 46.8275 127.055C47.1285 127.055 47.5967 127.122 47.6302 127.49C47.6302 127.691 47.4964 127.825 47.396 127.992C47.2957 128.159 47.162 128.293 47.1285 128.493C47.0951 128.594 47.1285 128.694 47.1954 128.761C47.2623 128.794 47.3292 128.794 47.396 128.828C47.4629 128.828 47.4964 128.828 47.5298 128.895C47.5633 128.928 47.5967 128.995 47.6302 129.029C47.6302 129.095 47.6636 129.129 47.6302 129.162C47.5633 129.296 47.4629 129.396 47.3626 129.53C47.3292 129.564 47.3626 129.664 47.396 129.697C47.396 129.697 47.4295 129.697 47.4629 129.697C47.4964 129.697 47.5298 129.697 47.5633 129.63C47.6302 129.497 47.7305 129.396 47.7974 129.263C47.8643 129.129 47.8643 128.995 47.7974 128.861C47.7305 128.761 47.6636 128.661 47.5633 128.594L47.7639 128.627Z" fill="#F6F39E"/>
</g>
<path opacity="0.22" d="M48.1984 130.801C47.3289 127.825 46.727 124.414 44.6535 122.006C43.8174 121.003 42.6804 120.2 41.4096 119.865C40.6738 119.665 39.8712 119.765 39.2692 119.297C38.7676 118.862 38.4332 118.126 37.965 117.625C37.8981 117.558 37.8312 117.491 37.7643 117.458C37.664 117.257 37.5971 117.023 37.5302 116.822C37.1623 115.919 35.6574 116.321 36.0587 117.224C36.3263 117.859 36.527 118.561 36.9283 119.096C36.9952 119.197 37.062 119.297 37.1289 119.364C37.062 119.498 36.9951 119.631 37.0286 119.765C37.0286 119.865 37.0286 119.966 37.0286 120.066C37.0286 120.166 37.0286 120.267 37.0955 120.367C37.0955 120.467 37.1958 120.534 37.2627 120.601C37.3964 120.735 37.6305 120.835 37.7978 120.835C37.8981 120.835 37.965 120.835 38.0653 120.802C38.3663 121.136 38.7007 121.504 39.0351 121.738C39.2692 121.905 39.5033 121.972 39.7709 122.039C40.3059 122.206 40.5735 122.307 41.0751 122.641C41.6771 123.043 42.3125 123.243 42.8811 123.745C42.9479 123.812 43.0148 123.845 43.0817 123.912C43.0817 123.912 43.0817 123.912 43.0483 123.912C42.7807 123.912 42.7807 124.347 43.0483 124.347C43.2155 124.347 43.2824 124.18 43.2489 124.046C43.7506 124.481 44.2522 124.915 44.6535 125.417C45.6233 126.755 46.1584 129.029 46.0915 130.634C46.0915 131.102 46.426 131.37 46.7938 131.37C47.1617 132.139 48.4994 131.738 48.2318 130.835L48.1984 130.801Z" fill="#EDE48E"/>
</g>
<g style="mix-blend-mode:multiply">
<path d="M60.9065 136.587C60.9065 136.587 64.6521 136.219 66.0566 136.854C66.0566 136.854 66.8927 137.456 68.1301 137.155C68.1636 137.155 68.8658 137.155 69.033 137.456C69.2002 137.757 72.5445 138.359 73.3806 138.694C73.9826 138.928 79.0993 140.299 79.4337 140.132C79.4337 140.132 80.8717 140.7 81.6409 140.767C82.0088 140.767 82.176 141.135 82.477 141.035C82.778 140.934 82.6442 140.567 82.3432 140.533C82.0423 140.5 82.0088 140.199 81.875 140.065C81.7413 139.931 79.3668 139.463 78.9321 139.363C78.4973 139.262 68.9327 136.52 68.9327 136.52C68.9327 136.52 62.679 135.283 62.3111 135.249C61.9432 135.216 60.8396 136.587 60.8396 136.587H60.9065Z" fill="#C7A91C"/>
</g>
<path d="M31.1094 132.808C31.1094 132.808 32.5809 131.604 33.8183 131.47C35.7245 131.269 39.2025 132.741 40.3396 132.674C41.4766 132.607 43.4163 133.008 45.7238 130.333C47.0616 128.795 49.9711 127.825 51.5095 127.858C53.817 127.925 64.5855 131.504 66.057 133.042C66.893 133.911 69.3344 134.212 71.6085 134.747C73.3475 135.149 75.0196 135.751 75.8222 136.62L74.7855 136.453C74.7855 136.453 75.655 136.787 75.7554 136.955C75.8557 137.122 74.2505 136.587 74.2505 136.587C74.2505 136.587 75.3875 137.088 75.4878 137.289C75.5881 137.49 74.0832 137.155 74.0832 137.155C74.0832 137.155 75.0865 137.49 75.1199 137.624C75.1534 137.757 74.3507 137.791 74.0498 137.624C73.7488 137.456 63.6157 135.249 62.3783 135.583C62.3783 135.583 62.6124 136.286 61.7763 136.42C60.9403 136.553 58.5658 137.155 55.7232 137.055C52.8806 136.955 52.5796 137.323 49.9042 136.219C47.9979 135.416 43.8845 134.814 43.1153 134.814C42.3461 134.814 39.9383 135.483 36.6275 135.316C33.3167 135.149 33.4504 135.584 32.3468 135.249C31.2432 134.915 29.9389 133.276 31.1094 132.808Z" fill="#FFF0A6"/>
<mask id="mask2_6020_6735" style="mask-type:luminance" maskUnits="userSpaceOnUse" x="30" y="127" width="46" height="11">
<path d="M31.1094 132.808C31.1094 132.808 32.5809 131.604 33.8183 131.47C35.7245 131.269 39.2025 132.741 40.3396 132.674C41.4766 132.607 43.4163 133.008 45.7238 130.333C47.0616 128.795 49.9711 127.825 51.5095 127.858C53.817 127.925 64.5855 131.504 66.057 133.042C66.893 133.911 69.3344 134.212 71.6085 134.747C73.3475 135.149 75.0196 135.751 75.8222 136.62L74.7855 136.453C74.7855 136.453 75.655 136.787 75.7554 136.955C75.8557 137.122 74.2505 136.587 74.2505 136.587C74.2505 136.587 75.3875 137.088 75.4878 137.289C75.5881 137.49 74.0832 137.155 74.0832 137.155C74.0832 137.155 75.0865 137.49 75.1199 137.624C75.1534 137.757 74.3507 137.791 74.0498 137.624C73.7488 137.456 63.6157 135.249 62.3783 135.583C62.3783 135.583 62.6124 136.286 61.7763 136.42C60.9403 136.553 58.5658 137.155 55.7232 137.055C52.8806 136.955 52.5796 137.323 49.9042 136.219C47.9979 135.416 43.8845 134.814 43.1153 134.814C42.3461 134.814 39.9383 135.483 36.6275 135.316C33.3167 135.149 33.4504 135.584 32.3468 135.249C31.2432 134.915 29.9389 133.276 31.1094 132.808Z" fill="white"/>
</mask>
<g mask="url(#mask2_6020_6735)">
<path d="M77.7282 137.155C77.6613 136.988 77.4941 136.854 77.2266 136.787C74.7519 136.285 72.2771 135.784 69.8023 135.282C67.5951 134.814 65.1204 133.978 62.8463 134.111C62.3781 134.111 62.1105 134.479 62.1105 134.847C61.4417 135.784 60.1374 135.884 59.0672 135.884C57.763 135.884 56.4587 135.784 55.1544 135.65C52.479 135.382 49.9374 134.881 47.2954 134.346C44.7872 133.81 42.3459 134.379 39.8043 134.346C37.2627 134.279 34.7544 133.978 32.2462 134.68C31.477 134.881 31.5774 135.917 32.1794 136.151C32.2797 136.252 32.38 136.319 32.5138 136.352C32.5807 136.352 32.6475 136.352 32.7144 136.352C32.8482 136.352 32.982 136.319 33.1158 136.252C33.1492 136.252 33.1827 136.218 33.2161 136.185C33.3164 136.151 33.3833 136.085 33.4167 135.984C35.9249 135.516 38.4666 135.951 40.9748 135.884C42.3793 135.884 43.784 135.583 45.1886 135.616C46.6935 135.683 48.165 136.185 49.6364 136.486C52.245 136.988 54.9204 137.289 57.5623 137.422C59.4351 137.523 61.6089 137.523 62.98 136.151C63.1138 136.185 63.281 136.151 63.4148 136.118C67.9964 136.72 72.5781 137.59 77.0928 138.626C77.9958 138.827 78.3971 137.59 77.6948 137.222L77.7282 137.155Z" fill="#FFEC8C"/>
</g>
<path d="M33.584 134.58C33.584 134.58 32.9486 135.149 32.447 135.216C31.9788 135.283 27.163 135.884 22.8489 135.951C23.1165 135.884 28.5676 134.547 29.4371 134.38C30.3066 134.212 32.0791 133.778 32.0791 133.778C31.6778 134.179 31.4437 134.714 33.5506 134.58H33.584Z" fill="#D4BB19"/>
<path d="M32.5473 133.443C32.5473 133.443 32.2797 133.61 32.0791 133.811C32.0791 133.811 30.34 134.246 29.4371 134.413C28.5676 134.58 23.1164 135.918 22.8489 135.985C22.8489 135.985 22.6482 135.985 22.5479 135.985C22.5479 135.985 29.6043 132.908 31.0758 132.808C31.0758 132.808 31.8115 133.51 32.5473 133.41V133.443Z" fill="#C7A91C"/>
<g style="mix-blend-mode:multiply">
<path d="M32.5807 132.574C32.5807 132.574 32.1794 132.574 32.2797 132.808C32.38 133.042 32.681 132.875 32.8482 132.808C33.0154 132.741 33.1827 132.908 33.3833 132.942C33.9519 133.008 33.9519 132.707 34.1191 132.607C34.2863 132.507 34.6207 132.741 34.4869 132.273C34.4869 132.172 34.3197 132.306 34.0522 132.306C33.7846 132.306 33.8849 132.039 33.1826 132.206C32.8482 132.273 33.0489 132.44 32.6141 132.607L32.5807 132.574Z" fill="#F6F39E"/>
</g>
<path d="M32.9821 132.54C32.9821 132.54 32.9821 132.206 33.4169 132.206C33.8516 132.206 33.952 132.407 33.952 132.474C33.952 132.54 33.7847 132.841 33.35 132.808C33.1493 132.808 32.9821 132.674 32.9487 132.54H32.9821Z" fill="#D4BB19"/>
<path d="M33.5172 132.273C33.5172 132.273 33.3165 132.306 33.35 132.373C33.3834 132.44 33.6175 132.473 33.6844 132.406C33.7513 132.34 33.6844 132.306 33.5172 132.273Z" fill="#EDE48E"/>
<g style="mix-blend-mode:multiply">
<path d="M29.8716 133.644C29.8716 133.644 30.507 133.376 30.6408 133.242C30.7746 133.109 30.8749 133.443 30.7411 133.476C30.6074 133.51 30.2395 133.644 29.8716 133.644Z" fill="#C7A91C"/>
</g>
<g style="mix-blend-mode:multiply">
<path d="M32.1125 133.778C32.1125 133.778 30.3735 134.213 29.4705 134.38C28.601 134.547 23.1499 135.885 22.8824 135.952C23.1834 135.885 31.5774 133.611 32.1125 133.778Z" fill="#C7A91C"/>
</g>
<path d="M62.5118 134.547C62.5118 134.547 63.2141 134.982 62.8462 135.216C62.4783 135.45 62.8462 135.383 62.8462 135.383C62.8462 135.383 62.5786 135.55 62.4114 135.55C62.2442 135.55 66.3242 135.885 66.9262 136.286C66.9262 136.286 67.6285 136.453 67.7623 136.587C67.896 136.721 68.7655 137.122 69.2003 136.955C69.2003 136.955 69.8022 136.955 70.0363 137.189C70.2704 137.423 78.8318 139.764 78.9655 139.764C79.0993 139.764 79.9354 139.664 80.2029 139.898C80.4705 140.132 82.3432 140.466 82.6442 140.232C82.9452 139.998 81.7747 139.731 81.6744 139.664C81.574 139.597 81.6744 139.329 81.8416 139.229C82.0088 139.129 81.3065 138.727 80.1695 138.694C80.1695 138.694 79.7013 138.025 78.6646 138.293C77.6278 138.56 76.658 138.426 76.0226 138.092C75.3872 137.758 70.6383 136.32 69.6685 136.219C69.5347 136.219 69.334 135.651 68.2973 135.751C66.9931 135.851 66.6252 135.483 66.0901 135.417C65.9564 135.417 65.2875 135.283 64.5183 135.082C63.6154 134.848 63.0134 134.447 62.5118 134.547Z" fill="#C7A91C"/>
<path d="M50.4056 128.561C50.4056 128.561 53.7164 126.788 55.3551 119.097C55.7564 117.291 55.3551 115.418 55.5223 114.481C55.7564 113.11 56.7596 113.177 57.4285 112.542C58.3315 111.706 66.157 107.659 66.157 107.659C66.157 107.659 66.9931 107.927 66.7924 108.228C66.5918 108.529 68.0967 108.094 68.1636 108.529C68.2305 108.963 67.5617 109.264 67.5617 109.264C67.5617 109.264 68.7321 109.131 68.7321 109.532C68.7321 109.933 68.0967 110.167 68.0967 110.167C68.0967 110.167 68.9997 110.134 68.8993 110.401C68.799 110.669 68.0967 110.97 68.0967 110.97C68.0967 110.97 68.5984 110.97 68.4312 111.204C68.2639 111.438 67.361 111.539 67.361 111.539C67.361 111.539 67.6954 112.074 66.5249 112.007C66.5249 112.007 66.1905 112.508 65.6554 112.508C65.1203 112.508 66.5918 112.475 66.0902 112.843C65.5885 113.211 62.7459 113.278 62.7459 113.278C62.7459 113.278 63.2475 113.278 63.2475 113.445C63.2475 113.612 62.1774 113.746 62.1774 113.746C62.1774 113.746 63.1806 113.946 62.8128 114.214L62.4449 114.481C62.4449 114.481 63.9164 114.381 63.6823 114.749C63.4482 115.117 62.4449 115.083 62.4449 115.083C62.4449 115.083 63.6823 115.284 62.3111 115.619C62.3111 115.619 63.7492 115.719 63.6823 116.053C63.6154 116.388 63.3813 116.321 63.3813 116.321C63.3813 116.321 63.7826 116.455 63.6488 116.655C63.5151 116.856 63.2141 116.99 63.2141 116.99C63.2141 116.99 63.6823 117.19 63.582 117.424C63.4817 117.659 63.1138 117.826 63.1138 117.826C63.1138 117.826 63.5819 117.926 63.5485 118.26C63.5151 118.595 63.5819 118.729 63.5485 118.896C63.5151 119.063 63.1138 119.23 63.1138 119.23C63.1138 119.23 63.6154 119.398 63.5151 119.598C63.4148 119.799 63.2141 119.866 63.2141 119.866C63.2141 119.866 63.8161 120.167 63.4148 120.668C63.4148 120.668 63.6823 120.769 63.7157 121.07C63.7492 121.371 63.3813 121.638 63.3813 121.638C63.3813 121.638 63.5485 121.906 63.1472 122.207C63.1472 122.207 63.4482 122.508 63.281 122.742C63.1137 122.976 63.3144 123.11 63.3144 123.21C63.3144 123.31 63.0803 123.611 63.0803 123.611C63.0803 123.611 63.4148 123.879 63.1472 124.046C63.1472 124.046 63.7157 124.481 63.281 124.681C62.8462 124.882 62.7459 125.217 62.98 125.417C63.2141 125.618 63.9164 125.852 62.98 126.922C62.98 126.922 64.6521 127.725 63.2141 128.26C63.2141 128.26 63.6154 128.427 63.7492 128.36C63.8829 128.293 63.6154 128.895 62.9466 128.895C62.9466 128.895 63.9164 129.564 62.9466 130.032C62.9466 130.032 63.281 130.467 63.0135 130.567C62.7459 130.668 62.1774 130.434 62.077 130.434C61.9767 130.434 60.7728 130.434 60.7728 130.434C60.7728 130.434 59.6357 130.567 59.6023 130.567C59.5689 130.567 55.2213 129.999 55.2213 129.999C55.2213 129.999 54.218 127.524 50.439 128.494L50.4056 128.561Z" fill="#FFF0A6"/>
<mask id="mask3_6020_6735" style="mask-type:luminance" maskUnits="userSpaceOnUse" x="50" y="107" width="19" height="24">
<path d="M50.4056 128.561C50.4056 128.561 53.7164 126.788 55.3551 119.097C55.7564 117.291 55.3551 115.418 55.5223 114.481C55.7564 113.11 56.7596 113.177 57.4285 112.542C58.3315 111.706 66.157 107.659 66.157 107.659C66.157 107.659 66.9931 107.927 66.7924 108.228C66.5918 108.529 68.0967 108.094 68.1636 108.529C68.2305 108.963 67.5617 109.264 67.5617 109.264C67.5617 109.264 68.7321 109.131 68.7321 109.532C68.7321 109.933 68.0967 110.167 68.0967 110.167C68.0967 110.167 68.9997 110.134 68.8993 110.401C68.799 110.669 68.0967 110.97 68.0967 110.97C68.0967 110.97 68.5984 110.97 68.4312 111.204C68.2639 111.438 67.361 111.539 67.361 111.539C67.361 111.539 67.6954 112.074 66.5249 112.007C66.5249 112.007 66.1905 112.508 65.6554 112.508C65.1203 112.508 66.5918 112.475 66.0902 112.843C65.5885 113.211 62.7459 113.278 62.7459 113.278C62.7459 113.278 63.2475 113.278 63.2475 113.445C63.2475 113.612 62.1774 113.746 62.1774 113.746C62.1774 113.746 63.1806 113.946 62.8128 114.214L62.4449 114.481C62.4449 114.481 63.9164 114.381 63.6823 114.749C63.4482 115.117 62.4449 115.083 62.4449 115.083C62.4449 115.083 63.6823 115.284 62.3111 115.619C62.3111 115.619 63.7492 115.719 63.6823 116.053C63.6154 116.388 63.3813 116.321 63.3813 116.321C63.3813 116.321 63.7826 116.455 63.6488 116.655C63.5151 116.856 63.2141 116.99 63.2141 116.99C63.2141 116.99 63.6823 117.19 63.582 117.424C63.4817 117.659 63.1138 117.826 63.1138 117.826C63.1138 117.826 63.5819 117.926 63.5485 118.26C63.5151 118.595 63.5819 118.729 63.5485 118.896C63.5151 119.063 63.1138 119.23 63.1138 119.23C63.1138 119.23 63.6154 119.398 63.5151 119.598C63.4148 119.799 63.2141 119.866 63.2141 119.866C63.2141 119.866 63.8161 120.167 63.4148 120.668C63.4148 120.668 63.6823 120.769 63.7157 121.07C63.7492 121.371 63.3813 121.638 63.3813 121.638C63.3813 121.638 63.5485 121.906 63.1472 122.207C63.1472 122.207 63.4482 122.508 63.281 122.742C63.1137 122.976 63.3144 123.11 63.3144 123.21C63.3144 123.31 63.0803 123.611 63.0803 123.611C63.0803 123.611 63.4148 123.879 63.1472 124.046C63.1472 124.046 63.7157 124.481 63.281 124.681C62.8462 124.882 62.7459 125.217 62.98 125.417C63.2141 125.618 63.9164 125.852 62.98 126.922C62.98 126.922 64.6521 127.725 63.2141 128.26C63.2141 128.26 63.6154 128.427 63.7492 128.36C63.8829 128.293 63.6154 128.895 62.9466 128.895C62.9466 128.895 63.9164 129.564 62.9466 130.032C62.9466 130.032 63.281 130.467 63.0135 130.567C62.7459 130.668 62.1774 130.434 62.077 130.434C61.9767 130.434 60.7728 130.434 60.7728 130.434C60.7728 130.434 59.6357 130.567 59.6023 130.567C59.5689 130.567 55.2213 129.999 55.2213 129.999C55.2213 129.999 54.218 127.524 50.439 128.494L50.4056 128.561Z" fill="white"/>
</mask>
<g mask="url(#mask3_6020_6735)">
<path d="M56.3916 123.544C56.7929 123.31 57.1943 123.043 57.2612 122.575C57.2946 122.24 57.094 121.906 56.793 121.805C57.0271 121.605 57.2277 121.404 57.328 121.103C57.4283 120.836 57.3949 120.501 57.2277 120.267C57.5287 120.133 57.7628 119.899 57.8297 119.565C57.8966 119.23 57.7628 118.862 57.5287 118.628C57.8297 118.361 58.1641 118.06 58.0972 117.625C58.0972 117.357 57.8631 117.123 57.5956 117.09C57.6959 116.856 57.7293 116.588 57.5956 116.354C57.4618 116.12 57.2612 115.986 56.9936 115.953C57.1943 115.719 57.3615 115.451 57.328 115.15C57.328 114.883 57.1274 114.615 56.8598 114.548C57.027 114.247 57.5621 113.98 57.3615 113.578C57.1274 113.144 56.7261 113.578 56.7595 113.612C56.7929 113.645 57.0605 113.411 57.1608 113.612C57.2612 113.813 57.1608 113.913 57.0939 114.013C56.9267 114.247 56.5923 114.649 56.5923 114.682C56.5923 114.716 57.1274 114.749 57.0939 115.284C57.0605 115.819 56.5588 116.087 56.5923 116.12C56.5923 116.187 57.1608 116.02 57.3615 116.488C57.5621 116.956 57.1942 117.257 57.2277 117.324C57.2277 117.357 57.629 117.324 57.7294 117.424C57.8631 117.525 57.8631 117.725 57.8297 117.859C57.7628 118.16 57.1943 118.595 57.1943 118.628C57.1943 118.662 57.7293 119.03 57.5621 119.565C57.3949 120.1 56.8933 120.167 56.8598 120.2C56.8598 120.234 57.1943 120.601 57.027 121.103C56.8598 121.605 56.2913 121.906 56.3248 121.973C56.3248 122.006 56.6926 121.906 56.8933 122.207C56.9936 122.374 56.9936 122.575 56.8933 122.742C56.7261 123.11 55.9569 123.544 55.9569 123.578C55.9569 123.611 56.2913 123.879 56.2913 124.046C56.2913 124.213 56.191 124.38 56.0572 124.514C55.7562 124.782 54.9201 125.15 54.9201 125.183C54.9201 125.217 55.4218 125.35 55.3215 125.785C55.2212 126.22 54.7864 126.22 54.7864 126.287C54.7864 126.354 55.288 126.521 55.4218 126.688C55.6225 126.889 55.4218 127.29 55.2546 127.457C54.8198 127.825 53.6494 127.959 53.6494 127.992C53.6494 128.026 54.452 127.992 54.753 127.858C55.0539 127.725 55.3884 127.557 55.6225 127.29C55.7897 127.089 55.8231 126.788 55.6225 126.588C55.5221 126.454 55.3884 126.387 55.2212 126.32C55.3884 126.22 55.5221 126.053 55.5221 125.852C55.5221 125.618 55.4218 125.35 55.2212 125.217C55.6225 125.016 56.0907 124.882 56.3582 124.481C56.5254 124.213 56.492 123.812 56.2579 123.611L56.3916 123.544Z" fill="#FFEC8C"/>
<path d="M60.0701 118.696C60.0701 118.696 60.4045 118.629 60.5717 118.629C60.8727 118.629 61.1737 118.562 61.4747 118.462C61.7088 118.361 61.9763 118.194 61.9429 117.927C61.9429 117.626 61.575 117.492 61.3409 117.391C61.04 117.291 60.739 117.191 60.438 117.09C60.5383 117.057 60.6386 117.024 60.739 116.957C60.9062 116.89 61.1068 116.856 61.2406 116.723C61.3409 116.622 61.3744 116.488 61.274 116.388C61.1737 116.254 61.0065 116.187 60.8728 116.121C60.3711 115.92 59.836 115.853 59.3009 115.82C59.5685 115.753 59.836 115.686 60.1035 115.586C60.3376 115.519 60.5717 115.452 60.8393 115.351C61.0065 115.285 61.1403 115.218 61.274 115.117C61.5416 114.85 61.4413 114.515 61.1737 114.281C60.8393 114.014 60.3711 113.88 59.9698 113.78C59.4681 113.646 58.3311 113.713 58.3311 113.78C58.3311 113.847 59.3343 113.847 59.836 113.947C60.0701 114.014 60.4714 114.147 60.7055 114.248C60.9062 114.315 61.1402 114.448 61.2406 114.649C61.3409 114.85 61.1068 115.017 60.9396 115.084C60.7055 115.184 60.4714 115.251 60.2373 115.318C59.7023 115.485 58.5652 115.853 58.5652 115.887C58.5652 115.92 59.9029 116.02 60.4714 116.187C60.6052 116.221 60.7724 116.288 60.9062 116.321C60.9731 116.321 61.04 116.388 61.0734 116.422C61.0734 116.422 61.1737 116.488 61.1402 116.522C61.1402 116.789 60.0701 117.057 60.0701 117.09C60.0701 117.124 60.8058 117.391 61.1068 117.525C61.274 117.592 61.8091 117.726 61.7757 117.96C61.7757 118.094 61.5416 118.194 61.4078 118.227C61.274 118.294 61.1403 118.294 60.9731 118.328C60.7055 118.361 59.7691 118.528 59.7691 118.662C59.836 118.93 60.3042 119.13 60.5049 119.231C60.739 119.331 61.0734 119.565 60.9396 119.866C60.8727 120 60.739 120.067 60.6386 120.1C60.4714 120.167 60.3376 120.201 60.1704 120.267C59.836 120.368 59.5016 120.401 59.1671 120.468C58.8327 120.535 58.4649 120.869 58.4649 120.903C58.4649 120.903 58.9999 121.204 59.9029 121.271C60.3042 121.304 60.8058 121.471 61.1068 121.772C61.4078 122.107 61.3743 122.608 61.1402 122.943C60.8727 123.344 60.3711 123.578 59.9029 123.578C58.8996 123.578 58.398 123.913 58.398 123.98C58.398 124.047 59.0668 124.18 59.3344 124.247C59.5685 124.314 59.9363 124.314 60.1035 124.515C60.1704 124.582 60.2373 124.715 60.2039 124.816C60.2039 124.949 60.0032 124.983 59.8695 125.05C59.5685 125.15 58.933 125.351 58.8996 125.384C58.8662 125.418 59.1672 125.685 59.4013 125.852C59.6019 125.986 59.836 126.053 59.9363 126.254C60.2039 126.688 59.3344 127.357 59.3009 127.391C59.3009 127.391 59.2675 127.591 59.9698 127.959C60.137 128.026 60.137 128.227 60.0701 128.394C60.0032 128.595 59.8026 128.695 59.6019 128.728C59.2006 128.829 58.699 128.762 58.2977 128.695C57.8295 128.595 56.8596 128.227 56.8262 128.26C56.8262 128.294 57.8294 128.829 58.3311 128.896C58.7993 128.963 59.3344 129.029 59.7691 128.896C60.1036 128.762 60.4045 128.394 60.2708 127.993C60.2039 127.826 60.0701 127.725 59.9029 127.658C59.8026 127.625 59.6688 127.558 59.5684 127.491C60.0366 127.357 60.3377 126.889 60.2373 126.421C60.1704 126.153 60.0032 125.953 59.8026 125.786C59.6019 125.652 59.4013 125.585 59.2006 125.451C59.3344 125.418 59.4681 125.384 59.6019 125.317C59.7691 125.25 59.9698 125.217 60.1035 125.15C60.3711 125.05 60.438 124.782 60.3377 124.515C60.2039 124.247 59.9029 124.147 59.6353 124.08C59.3678 124.013 59.0668 123.946 58.7993 123.913C59.1671 123.779 59.6019 123.846 59.9698 123.779C60.438 123.712 60.9396 123.511 61.2406 123.11C61.5081 122.742 61.6085 122.241 61.4078 121.839C61.2071 121.438 60.7724 121.237 60.3711 121.137C59.836 121.003 59.2675 121.037 58.7324 120.803C58.8996 120.669 59.1672 120.635 59.4013 120.602C59.7357 120.568 60.0701 120.468 60.4045 120.368C60.672 120.301 60.9731 120.201 61.1068 119.967C61.2406 119.732 61.1068 119.465 60.9731 119.264C60.7724 119.03 60.4714 118.963 60.2039 118.829C60.137 118.829 60.0701 118.763 60.0367 118.729C59.9698 118.696 59.9363 118.696 60.0032 118.629H60.0701V118.696Z" fill="#FFEC8C"/>
</g>
<g style="mix-blend-mode:soft-light" opacity="0.38">
<path d="M80.3033 82.0417L79.4338 84.3492L78.0627 87.961L77.5945 89.1984L51.1413 159.729L50.6731 160.933L49.302 164.578L48.4325 166.886C47.4292 166.752 46.4259 166.551 45.4226 166.351C34.8213 164.143 25.5242 158.291 18.9695 150.164C18.4344 149.495 17.8993 148.793 17.3643 148.091L18.3675 145.349L20.0063 140.867L20.5748 139.295L40.6403 84.7505L41.2089 83.1787L42.8475 78.6974L43.8508 75.9551C45.5898 75.5204 47.3623 75.2194 49.1682 74.9853C51.0745 74.7512 52.9807 74.6174 54.9538 74.6174C63.3479 74.6174 71.2069 76.8581 78.0292 80.7374C78.7649 81.1722 79.5007 81.6069 80.203 82.0751L80.3033 82.0417Z" fill="#FFFB8C"/>
</g>
<path d="M86.1557 89.8342C84.1157 87.7942 81.8415 85.9214 79.4337 84.3161C72.4776 79.6676 64.0835 76.9587 55.054 76.9587C50.8403 76.9587 46.7937 77.5607 42.9478 78.6643C41.2422 79.166 39.5701 79.7345 37.9648 80.4368C32.7143 82.644 27.9655 85.8879 23.9858 89.8676C16.0264 97.8269 11.1104 108.83 11.1104 120.969C11.1104 129.965 13.8193 138.359 18.4678 145.315C20.073 147.757 21.9458 149.997 23.9858 152.037C30.6743 158.726 39.5032 163.274 49.3688 164.545C51.2416 164.779 53.1478 164.913 55.0874 164.913C67.2271 164.913 78.2298 159.997 86.1891 152.037C94.1484 144.078 99.0645 133.075 99.0645 120.936C99.0645 108.796 94.1484 97.7935 86.1891 89.8342H86.1557ZM94.8173 127.056C94.7839 127.39 94.717 127.725 94.6501 128.059C94.5163 128.728 94.416 129.363 94.2488 130.032C94.1819 130.367 94.0815 130.668 94.0147 131.002C93.7806 131.972 93.4796 132.908 93.1786 133.845C92.7438 135.082 92.2757 136.319 91.7406 137.49C91.5734 137.891 91.3727 138.293 91.1721 138.66C90.8042 139.43 90.3694 140.199 89.9681 140.934C89.6337 141.503 89.2993 142.038 88.9648 142.573C88.6304 143.108 88.2625 143.643 87.8612 144.178C87.4934 144.714 87.0921 145.215 86.7242 145.717C86.3229 146.218 85.9215 146.72 85.4868 147.222C84.8514 147.957 84.216 148.66 83.5137 149.329C82.8448 149.997 82.1426 150.666 81.4068 151.302C80.3032 152.272 79.1661 153.141 77.9622 153.977C76.5242 154.98 75.0193 155.883 73.4475 156.686C73.1799 156.82 72.9124 156.953 72.6448 157.087C67.3609 159.662 61.4081 161.1 55.1209 161.1C53.6494 161.1 52.2114 161.034 50.7734 160.866C46.0914 160.365 41.6101 159.027 37.5301 157.054C37.0953 156.82 36.6271 156.619 36.1924 156.385C35.7576 156.151 35.3229 155.917 34.8881 155.649C34.4534 155.415 34.0186 155.148 33.6173 154.88C31.9452 153.81 30.3399 152.606 28.835 151.302C28.0993 150.666 27.397 149.997 26.7281 149.329C26.3937 148.994 26.0593 148.626 25.7248 148.292C25.3904 147.924 25.0894 147.59 24.755 147.222C24.3203 146.72 23.9189 146.252 23.5176 145.75C23.1163 145.249 22.7484 144.714 22.3806 144.212C22.0127 143.677 21.6448 143.142 21.2769 142.607C20.9425 142.072 20.6081 141.503 20.2737 140.968C20.2737 140.901 20.2068 140.868 20.2068 140.834C19.8055 140.132 19.4376 139.396 19.0698 138.694C18.8691 138.293 18.7019 137.925 18.5012 137.523C17.9661 136.353 17.4645 135.115 17.0632 133.878C15.692 129.832 14.9563 125.484 14.9563 120.969C14.9563 116.454 15.692 112.107 17.0632 108.06C17.498 106.823 17.9661 105.586 18.5012 104.415C18.6684 104.014 18.8691 103.613 19.0698 103.245C19.4376 102.475 19.8723 101.706 20.2737 100.971C20.6081 100.402 20.9425 99.8669 21.2769 99.3319C21.6114 98.7968 21.9792 98.2617 22.3806 97.7266C22.7484 97.1915 23.1497 96.6899 23.5176 96.1883C23.9189 95.6866 24.3203 95.185 24.755 94.6833C25.056 94.3155 25.3904 93.9476 25.7248 93.6132C26.0593 93.2787 26.3937 92.9109 26.7281 92.5764C27.397 91.9076 28.1327 91.2387 28.835 90.6033C30.9085 88.8309 33.1491 87.2256 35.5235 85.8879C36.3262 85.4532 37.1288 85.0184 37.9648 84.6171C38.2324 84.4833 38.5334 84.3496 38.8009 84.2492C39.3694 84.0151 39.9379 83.7476 40.5065 83.5469C40.8074 83.4466 41.075 83.3128 41.376 83.2125C41.7439 83.0787 42.0783 82.945 42.4461 82.8446C46.4258 81.5069 50.7065 80.8046 55.1543 80.8046C63.7157 80.8046 71.6416 83.4801 78.1629 88.0283C79.0324 88.6302 79.8685 89.2656 80.6711 89.9345C80.9386 90.1686 81.2061 90.3692 81.4737 90.6033C82.2094 91.2387 82.9117 91.9076 83.5806 92.5764C84.2494 93.2453 84.9183 93.9476 85.5537 94.6833C85.9884 95.185 86.3898 95.6532 86.7911 96.1548C87.1924 96.6564 87.5603 97.1915 87.9281 97.6932C88.296 98.2283 88.6639 98.7633 89.0317 99.2984C89.3662 99.8335 89.7006 100.402 90.035 100.937C90.4697 101.673 90.871 102.442 91.2389 103.211C91.4396 103.613 91.6068 103.98 91.8075 104.382C92.3426 105.552 92.8442 106.79 93.2455 108.027C93.5799 108.963 93.8475 109.9 94.0816 110.87C94.1484 111.204 94.2488 111.505 94.3157 111.839C94.4495 112.475 94.5832 113.144 94.717 113.813C94.7839 114.147 94.8173 114.481 94.8842 114.816C94.9845 115.485 95.0849 116.154 95.1517 116.822C95.2855 118.16 95.3524 119.531 95.3524 120.936C95.3524 122.34 95.2855 123.712 95.1517 125.049C95.0849 125.718 94.9845 126.387 94.8842 127.056H94.8173Z" fill="#FAE543"/>
<g style="mix-blend-mode:multiply">
<path d="M95.0849 116.822C95.018 116.153 94.9177 115.484 94.8173 114.816C94.7839 114.481 94.717 114.147 94.6501 113.812C94.5163 113.143 94.3826 112.508 94.2488 111.839C94.1819 111.505 94.0816 111.204 94.0147 110.869C93.7806 109.9 93.4796 108.963 93.1786 108.027C92.7439 106.789 92.2757 105.552 91.7406 104.381C91.5734 103.98 91.3727 103.579 91.1721 103.211C90.8042 102.442 90.3695 101.673 89.9682 100.937C89.6337 100.368 89.2993 99.8333 88.9649 99.2982C88.6304 98.7631 88.2626 98.228 87.8613 97.693C87.4934 97.1579 87.0921 96.6562 86.7242 96.1546C86.3229 95.653 85.9216 95.1513 85.4868 94.6497C84.8514 93.9139 84.1826 93.2116 83.5137 92.5428C82.8448 91.8739 82.1426 91.2051 81.4069 90.5697C81.1393 90.3356 80.8718 90.1349 80.6042 89.9008C79.8016 89.232 78.9655 88.5966 78.096 87.9946C71.5747 83.4464 63.6488 80.771 55.0875 80.771C50.6396 80.771 46.3924 81.4733 42.3793 82.811C42.0114 82.9448 41.677 83.0451 41.3091 83.1789C41.0081 83.2792 40.7406 83.413 40.4396 83.5133C39.8711 83.7474 39.3025 83.9815 38.734 84.2156C38.4665 84.3494 38.1655 84.4497 37.898 84.5835C37.0619 84.9848 36.2593 85.3861 35.4567 85.8543C33.0488 87.192 30.8081 88.7638 28.7681 90.5697C28.0324 91.2051 27.3301 91.8739 26.6612 92.5428C26.3268 92.8772 25.9924 93.2451 25.6579 93.5795C25.3235 93.9474 25.0226 94.2818 24.6881 94.6497C24.2534 95.1513 23.8521 95.6195 23.4508 96.1212C23.0495 96.6228 22.6816 97.1579 22.3137 97.6595C21.9458 98.1946 21.578 98.7297 21.2101 99.2648C20.8757 99.7998 20.5413 100.368 20.2068 100.903C19.7721 101.639 19.3708 102.408 19.0029 103.178C18.8022 103.579 18.635 103.947 18.4344 104.348C17.8993 105.519 17.4311 106.756 16.9963 107.993C15.6252 112.04 14.8895 116.387 14.8895 120.902C14.8895 125.417 15.6252 129.764 16.9963 133.811C17.4311 135.048 17.8993 136.286 18.4344 137.456C18.6016 137.858 18.8022 138.259 19.0029 138.627C19.3708 139.362 19.7386 140.065 20.1399 140.767C20.1399 140.767 20.1734 140.867 20.2068 140.901C20.5413 141.469 20.8757 142.004 21.2101 142.54C21.5445 143.075 21.9124 143.61 22.3137 144.145C22.6816 144.68 23.0829 145.181 23.4508 145.683C23.8521 146.185 24.2534 146.686 24.6881 147.188C24.9891 147.556 25.3235 147.924 25.6579 148.258C25.9924 148.593 26.3268 148.961 26.6612 149.295C27.3301 149.964 28.0658 150.633 28.7681 151.268C30.2731 152.572 31.8783 153.776 33.5504 154.846C33.9852 155.114 34.3865 155.381 34.8212 155.616C35.256 155.85 35.6907 156.117 36.1255 156.351C36.5603 156.585 37.0285 156.82 37.4632 157.02C41.5432 158.993 45.9911 160.331 50.7065 160.833C52.1445 161 53.5826 161.067 55.054 161.067C61.3413 161.067 67.2941 159.629 72.578 157.054C72.8455 156.92 73.113 156.786 73.3806 156.652C74.9524 155.85 76.4573 154.947 77.8954 153.943C79.0993 153.107 80.2363 152.204 81.34 151.268C82.0757 150.633 82.778 149.964 83.4469 149.295C84.1157 148.626 84.7845 147.89 85.42 147.188C85.8547 146.686 86.256 146.218 86.6573 145.717C87.0586 145.215 87.4265 144.68 87.7944 144.178C88.1622 143.643 88.5301 143.108 88.898 142.573C89.2324 142.038 89.5668 141.469 89.9013 140.934C90.336 140.199 90.7373 139.429 91.1052 138.66C91.3058 138.259 91.4731 137.891 91.6737 137.49C92.2088 136.319 92.677 135.082 93.1118 133.844C93.4128 132.908 93.7137 131.972 93.9478 131.002C94.0147 130.667 94.115 130.366 94.1819 130.032C94.3157 129.397 94.4494 128.728 94.5832 128.059C94.6501 127.724 94.6835 127.39 94.7504 127.056C94.8508 126.387 94.9511 125.718 95.018 125.049C95.1517 123.711 95.2186 122.34 95.2186 120.936C95.2186 119.531 95.1517 118.16 95.018 116.822H95.0849ZM82.6108 148.492C75.5544 155.549 65.8226 159.896 55.054 159.896C53.7498 159.896 52.4455 159.829 51.1413 159.696C41.9445 158.793 33.6842 154.679 27.4639 148.492C24.755 145.783 22.4475 142.673 20.6081 139.262C17.6986 133.811 16.0265 127.557 16.0265 120.936C16.0265 110.167 20.3741 100.435 27.4305 93.3789C31.176 89.6333 35.6573 86.6569 40.6403 84.6838C45.0881 82.9113 49.9039 81.9415 54.9871 81.9415C63.4147 81.9415 71.1734 84.6169 77.5609 89.1317C79.3334 90.4025 81.0055 91.8071 82.5439 93.3454C89.6003 100.402 93.9478 110.134 93.9478 120.902C93.9478 131.671 89.6003 141.402 82.5439 148.459L82.6108 148.492Z" fill="#F6F39E"/>
</g>
<path d="M108.997 0.106934H88.7309L44.8542 73.3797H65.1204L108.997 0.106934Z" fill="#36DE6E"/>
</svg>
