<svg width="109" height="168" viewBox="0 0 109 168" fill="none" xmlns="http://www.w3.org/2000/svg">
<path d="M65.1001 73.3607H44.8318L0.977295 0.106934H21.2198L65.1001 73.3607Z" fill="#8F00D1"/>
<path d="M59.673 73.3607H58.2069L14.3523 0.106934H15.7927L59.673 73.3607Z" fill="#68BBC2"/>
<path d="M50.5675 73.3607H49.1013L5.24683 0.106934H6.71287L50.5675 73.3607Z" fill="#68BBC2"/>
<path d="M64.6889 79.5855V78.6338H45.4238C44.6779 78.6338 44.0092 78.3252 43.5205 77.8365C43.0318 77.3478 42.7231 76.679 42.7231 75.9331C42.7231 75.1872 43.0318 74.5184 43.5205 74.0297C44.0092 73.541 44.6779 73.2324 45.4238 73.2324H64.6889C65.4348 73.2324 66.1036 73.541 66.5923 74.0297C67.081 74.5184 67.3897 75.1872 67.3897 75.9331C67.3897 76.679 67.081 77.3478 66.5923 77.8365C66.1036 78.3252 65.4348 78.6338 64.6889 78.6338V80.5115C67.2096 80.5115 69.2673 78.4538 69.2673 75.9331C69.2673 73.4124 67.2096 71.3547 64.6889 71.3547H45.4238C42.9031 71.3547 40.8455 73.4124 40.8455 75.9331C40.8455 78.4538 42.9031 80.5115 45.4238 80.5115H64.6889V79.5598V79.5855Z" fill="#E0C64C"/>
<path d="M101.419 120.92C101.419 141.471 88.0438 158.91 69.5246 164.98C64.9719 166.472 60.1106 167.295 55.0436 167.295C54.5549 167.295 54.0662 167.295 53.6032 167.295C51.8799 167.244 50.1566 167.089 48.4847 166.858C47.4816 166.703 46.4784 166.549 45.501 166.343C34.8782 164.131 25.6186 158.267 19.034 150.139C18.4938 149.47 17.9794 148.802 17.465 148.107C17.465 148.107 17.465 148.081 17.4393 148.056C13.5811 142.706 10.829 136.481 9.51719 129.742C9.07993 127.556 8.82264 125.292 8.71976 123.003C8.71976 122.669 8.71981 122.334 8.69409 122C8.69409 121.64 8.69409 121.28 8.69409 120.946C8.69409 120.56 8.69409 120.148 8.69409 119.762C9.05419 105.178 16.1532 92.2922 26.9818 84.0357C31.946 80.2547 37.7075 77.4511 43.9578 75.9078C45.6811 75.4705 47.4816 75.1619 49.282 74.9304C51.1854 74.6989 53.1145 74.5703 55.0693 74.5703C63.4544 74.5703 71.3251 76.8081 78.1412 80.6919C78.8871 81.1292 79.6073 81.5665 80.3275 82.0294C81.9222 83.0583 83.4655 84.19 84.9058 85.4246C88.7383 88.614 92.0306 92.4208 94.6284 96.6905C98.9753 103.738 101.47 112.046 101.47 120.92H101.419Z" fill="#E0C64C"/>
<path d="M71.7119 108.316L70.2713 109.242L70.0398 110.323C70.0398 110.143 70.0398 109.963 70.0398 109.782C70.0398 108.959 70.9144 107.158 70.9144 107.158L70.58 107.004C70.58 107.004 69.4738 108.085 69.4995 109.808C69.4995 110.528 69.5767 111.223 69.7568 111.738L68.7278 116.574L67.4415 117.963L66.644 117.14L66.7726 114.387L66.361 117.063L67.0556 118.375L62.7595 123.031L63.1711 123.391L69.2423 116.831L70.8115 109.577L71.9692 108.831L73.384 107.596L71.7891 108.29L71.7119 108.316Z" fill="#C8B547"/>
<path d="M72.328 99.4681L72.1737 101.166L72.0965 101.989L71.9422 103.583L71.8908 104.381L71.8651 104.458V104.484V104.664L71.8136 105.281L71.7879 105.461L71.685 106.413V106.439L71.6592 106.876L71.5821 107.519L71.5049 108.445L71.4535 109.114L71.3763 109.782L67.904 147.875L66.8237 147.772L69.9874 113.049L70.2446 110.322L70.3475 109.191L70.5018 107.313L70.579 106.516L70.6304 105.976L70.7076 105.281V105.127L70.7333 105.024L70.7847 104.484V104.355V104.252L70.8105 104.175L70.8619 103.635L70.9391 102.606L71.0162 101.783L71.2478 99.3652L72.328 99.4681Z" fill="#A3A000"/>
<g style="mix-blend-mode:multiply" opacity="0.6">
<path d="M71.6595 106.875L71.608 107.518L71.5309 108.444L71.4795 109.139L71.428 109.808C71.428 109.808 71.1964 109.962 71.0421 109.988C70.9135 110.014 70.6047 111.557 70.296 111.737C70.1417 111.814 70.3989 110.245 70.296 110.348L70.399 109.216L70.5791 107.364L70.6562 106.541L71.0163 106.669H71.0678L71.7366 106.927L71.6595 106.875Z" fill="#E3D16D"/>
</g>
<path d="M77.2663 98.6192C76.649 100.934 75.5172 103.146 73.6138 103.918C73.4595 103.969 73.3309 104.072 73.1766 104.149C73.1509 104.149 73.0994 104.175 73.0737 104.201C72.9966 104.226 72.9194 104.252 72.8422 104.304C72.6622 104.381 72.4821 104.432 72.3278 104.484C72.3021 104.484 72.2506 104.484 72.2249 104.509H72.1992C72.0449 104.561 71.942 104.561 71.942 104.561C71.9934 104.612 72.0192 104.638 72.0449 104.664C72.1992 104.895 72.0449 105.127 71.942 105.23L71.8648 105.307C71.8648 105.307 71.8648 105.358 71.8906 105.384C71.8906 105.384 71.8905 105.435 71.9162 105.461C71.9162 105.512 71.942 105.564 71.9677 105.641C71.9677 105.693 72.0191 105.744 72.0191 105.821C72.0191 105.898 72.0706 105.975 72.0963 106.053C72.1735 106.284 72.2506 106.567 72.302 106.773C72.302 106.799 72.302 106.85 72.302 106.876C72.302 106.901 72.302 106.927 72.302 106.953C72.302 106.953 72.302 106.953 72.302 106.979C72.302 106.979 72.302 107.03 72.302 107.056C72.302 107.159 72.3021 107.261 72.2764 107.287C72.0963 107.467 71.8134 107.519 71.5304 107.544C71.479 107.544 71.4275 107.544 71.3504 107.544C71.3246 107.544 71.2733 107.544 71.2475 107.544C71.016 107.544 70.7845 107.467 70.5788 107.416C70.5273 107.416 70.5016 107.39 70.4501 107.364C70.4501 107.364 70.3473 107.339 70.3215 107.313C70.2444 107.287 70.1672 107.236 70.0901 107.21C70.0129 107.184 69.9614 107.133 69.91 107.107C69.8585 107.081 69.8328 107.056 69.8071 107.004C69.7814 106.979 69.7557 106.927 69.7557 106.901C69.7557 106.799 69.8328 106.567 69.9871 106.31C70.1929 105.95 70.4502 105.512 70.6045 105.307C70.656 105.23 70.6817 105.178 70.6817 105.178C70.6817 105.127 70.6302 105.075 70.6302 105.049C70.553 104.792 70.6045 104.638 70.6302 104.535C70.6816 104.458 70.7331 104.432 70.7331 104.432C70.7074 104.432 70.6559 104.432 70.6302 104.381C70.6302 104.381 70.6302 104.381 70.6045 104.381C70.5788 104.381 70.553 104.381 70.5016 104.329C70.4759 104.329 70.4244 104.304 70.3987 104.278C70.1672 104.149 69.8843 103.969 69.5756 103.738C69.5242 103.686 69.4728 103.635 69.3956 103.609C69.3442 103.583 69.3184 103.532 69.267 103.506C69.1898 103.455 69.1126 103.378 69.0355 103.3C67.0292 101.577 66.0775 99.0307 65.8975 96.6387C65.7174 94.4009 66.2062 92.2918 67.055 91.0829C67.055 91.0829 67.0549 91.0572 67.0806 91.0315C67.8266 90.0026 77.2148 91.0829 77.6007 92.1118C77.7035 92.369 77.7807 92.8062 77.8064 93.3464C77.8836 94.7096 77.7293 96.7416 77.1891 98.7221L77.2663 98.6192Z" fill="#D0BF61"/>
<g style="mix-blend-mode:multiply" opacity="0.16">
<path d="M77.2677 98.6194C76.6503 100.935 75.5184 103.147 73.6147 103.919C73.4604 103.97 73.3318 104.073 73.1775 104.15C73.1517 104.15 73.1003 104.176 73.0745 104.202C72.9974 104.227 72.9202 104.253 72.843 104.305C72.6629 104.382 72.4828 104.433 72.3285 104.485C72.3028 104.485 72.2513 104.485 72.2256 104.51H72.1999C72.0455 104.562 71.9426 104.562 71.9426 104.562C71.9941 104.613 72.0198 104.639 72.0456 104.665C72.1999 104.896 72.0455 105.128 71.9426 105.231L71.8655 105.308C71.8655 105.308 71.8655 105.359 71.8912 105.385C71.8912 105.385 71.8912 105.437 71.9169 105.462C71.9169 105.514 71.9427 105.565 71.9684 105.642C71.9684 105.694 72.0198 105.745 72.0198 105.822C72.0198 105.9 72.0712 105.977 72.097 106.054C72.1742 106.285 72.2513 106.568 72.3027 106.774C72.3027 106.8 72.3027 106.851 72.3027 106.877C72.3027 106.903 72.3027 106.929 72.3027 106.954C72.3027 106.954 72.3027 106.954 72.3027 106.98C72.3027 106.98 72.3027 107.031 72.3027 107.057C72.3027 107.16 72.3028 107.263 72.2771 107.289C72.097 107.469 71.814 107.52 71.531 107.546C71.4796 107.546 71.4281 107.546 71.3509 107.546C71.3252 107.546 71.2738 107.546 71.2481 107.546C71.0166 107.546 70.785 107.469 70.5792 107.417C70.5278 107.417 70.502 107.392 70.4505 107.366C70.4505 107.366 70.3477 107.34 70.3219 107.314C70.2448 107.289 70.1676 107.237 70.0904 107.212C70.0132 107.186 69.9618 107.134 69.9103 107.109C69.8589 107.083 69.8331 107.057 69.8074 107.006C69.7817 106.98 69.756 106.929 69.756 106.903C69.756 106.8 69.8331 106.568 69.9875 106.311C70.1933 105.951 70.4506 105.514 70.605 105.308C70.6564 105.231 70.6821 105.179 70.6821 105.179C70.6821 105.128 70.6306 105.076 70.6306 105.051C70.5535 104.793 70.6049 104.639 70.6306 104.536C70.6821 104.459 70.7335 104.433 70.7335 104.433C70.7078 104.433 70.6564 104.433 70.6306 104.382C70.6306 104.382 70.6307 104.382 70.605 104.382C70.5792 104.382 70.5535 104.382 70.502 104.33C70.4763 104.33 70.4248 104.305 70.3991 104.279C70.1676 104.15 69.8846 103.97 69.5759 103.739C69.5244 103.687 69.473 103.636 69.3959 103.61C69.3444 103.584 69.3186 103.533 69.2672 103.507C69.19 103.456 69.1129 103.379 69.0357 103.301C67.0291 101.578 66.0773 99.031 65.8972 96.6385C66.3603 96.124 66.8748 95.4037 66.8748 94.915C66.8748 94.0403 68.2897 92.8827 68.9585 94.2975C69.6274 95.7124 70.1676 97.7962 71.4796 96.973C72.7659 96.1498 73.6662 94.349 74.155 95.7896C74.6437 97.2045 74.155 97.6675 74.8496 98.2335C75.5442 98.7994 76.5732 98.7223 77.1906 98.7223L77.2677 98.6194Z" fill="#E8E0B3"/>
</g>
<g style="mix-blend-mode:multiply" opacity="0.16">
<path d="M73.6148 103.892C73.4605 103.969 73.3319 104.047 73.1775 104.124C73.1518 104.124 73.1003 104.149 73.0746 104.175C72.9974 104.201 72.9203 104.227 72.8431 104.278C72.663 104.355 72.4829 104.407 72.3286 104.458C72.3028 104.458 72.2514 104.458 72.2256 104.484H72.2C72.0456 104.535 71.9427 104.535 71.9427 104.535C71.9941 104.587 72.0199 104.613 72.0456 104.638C72.2 104.87 72.0456 105.101 71.9427 105.204L71.8655 105.281C71.8655 105.281 71.8656 105.333 71.8913 105.359C71.8913 105.359 71.8912 105.41 71.9169 105.436C71.9169 105.487 71.9427 105.539 71.9684 105.616C71.9684 105.667 72.0199 105.719 72.0199 105.796C72.0199 105.873 72.0713 105.95 72.097 106.027C72.1742 106.259 72.2514 106.542 72.3028 106.748L71.7626 105.744V106.979L71.6854 106.413L71.6083 105.796C71.6083 105.796 71.6083 105.59 71.3767 105.847C71.2481 105.976 71.0938 106.336 70.9909 106.619C70.9394 106.773 70.888 106.876 70.888 106.928L70.9651 106.593L71.0423 106.259C71.0423 106.259 71.1709 105.487 70.7336 105.873C70.7336 105.873 70.6822 105.925 70.6564 105.95C70.5021 106.105 70.3477 106.336 70.2448 106.568C70.1419 106.748 70.0648 106.902 70.0133 107.031C69.9619 107.005 69.9361 106.979 69.9104 106.928C69.8847 106.902 69.859 106.851 69.859 106.825C69.859 106.722 69.9361 106.49 70.0905 106.233C70.2963 105.873 70.5535 105.436 70.7079 105.23C70.7593 105.153 70.785 105.101 70.785 105.101C70.785 105.05 70.7336 104.998 70.7336 104.973C70.6564 104.715 70.7079 104.561 70.7336 104.458C70.7851 104.381 70.8365 104.355 70.8365 104.355C70.8108 104.355 70.7593 104.355 70.7336 104.304C70.7336 104.304 70.7336 104.304 70.7079 104.304C70.6821 104.304 70.6565 104.304 70.605 104.252C70.5536 104.201 70.5278 104.227 70.5021 104.201C70.2706 104.072 69.9876 103.892 69.6789 103.661C69.6274 103.609 69.576 103.558 69.4988 103.532C69.4473 103.506 69.4216 103.455 69.3702 103.429C69.293 103.378 69.2158 103.301 69.1387 103.223C69.3187 103.275 69.5503 103.378 69.7818 103.532C70.2191 103.789 70.039 103.584 70.1419 103.481C70.1419 103.481 70.1677 103.481 70.1934 103.455C70.1934 103.455 70.2191 103.455 70.2448 103.455C70.4249 103.429 70.6822 103.558 70.9137 103.686C70.9652 103.712 71.0166 103.738 71.0937 103.764C71.1452 103.764 71.1709 103.789 71.1966 103.815C71.2224 103.815 71.2481 103.815 71.2996 103.841C71.4282 103.892 71.5053 103.841 71.6597 103.738C71.6597 103.738 71.6855 103.738 71.7112 103.712C71.7112 103.712 71.7626 103.686 71.7626 103.661C71.8912 103.584 71.9427 103.584 72.0199 103.661C72.0713 103.686 72.1228 103.738 72.1742 103.764C72.3543 103.867 72.3801 104.047 72.5344 104.098C72.5601 104.098 72.5858 104.098 72.6372 104.098C72.663 104.098 72.7145 104.098 72.7659 104.098C73.1003 104.047 73.6662 103.969 73.6662 103.969L73.6148 103.892Z" fill="#D2C269"/>
</g>
<g style="mix-blend-mode:multiply" opacity="0.51">
<path d="M67.4415 91.4429C66.2067 95.919 66.5668 99.1604 69.4223 102.916C69.7568 103.379 70.1426 103.842 70.5542 104.254C68.8049 102.685 67.4415 100.627 66.7726 98.3886C66.2324 96.0734 66.6441 93.6295 67.4673 91.4429H67.4415Z" fill="#D8CA7D"/>
<path d="M68.9593 91.2627C68.1361 95.6617 68.059 100.704 70.9659 104.408C67.6988 100.961 67.7245 95.5845 68.9593 91.2627Z" fill="#D8CA7D"/>
<path d="M70.9392 91.7256C70.4504 95.4043 69.4214 101.27 71.2993 104.562C69.0355 101.475 70.0645 95.2756 70.9392 91.7256Z" fill="#D8CA7D"/>
<path d="M72.9211 91.7262C72.458 95.9194 71.5834 100.267 71.3776 104.46C71.3776 104.512 71.3776 104.537 71.3776 104.589C71.3776 104.589 71.3776 104.486 71.3776 104.434C71.2232 102.325 71.5319 100.215 71.7892 98.1317C72.0979 95.9708 72.458 93.8099 72.9468 91.7004L72.9211 91.7262Z" fill="#D8CA7D"/>
<path d="M74.541 92.3429C74.4381 94.5552 74.1036 96.7161 73.692 98.877C73.2289 100.781 72.8688 102.864 71.7112 104.485C71.7112 104.485 71.7112 104.485 71.6854 104.511C71.6854 104.511 71.6855 104.537 71.634 104.562C71.634 104.562 71.634 104.562 71.634 104.588C71.634 104.588 71.634 104.614 71.6083 104.639C71.6083 104.639 71.6082 104.639 71.5825 104.639C71.5825 104.639 71.5825 104.614 71.6083 104.588C71.6083 104.588 71.634 104.537 71.6597 104.511C71.6597 104.511 71.6597 104.485 71.6597 104.459C72.6887 102.762 72.9974 100.704 73.4347 98.7999C73.8978 96.6647 74.2322 94.478 74.5666 92.3171L74.541 92.3429Z" fill="#D8CA7D"/>
<path d="M75.9815 92.6262C75.8014 95.6618 74.901 102.273 72.0198 104.357C71.9683 104.408 71.9169 104.434 71.8397 104.485C71.7882 104.511 71.7368 104.537 71.7111 104.563C71.6854 104.563 71.6597 104.588 71.6339 104.614C71.6339 104.614 71.5825 104.64 71.5568 104.666C71.5568 104.666 71.5567 104.666 71.531 104.666C71.531 104.666 71.5824 104.666 71.5824 104.614C71.5824 104.614 71.6596 104.563 71.6854 104.537C71.6854 104.537 71.7368 104.537 71.7368 104.485C71.994 104.305 72.1998 104.1 72.4056 103.868C73.5118 102.582 74.0778 100.935 74.5665 99.3147C75.2097 97.1281 75.6213 94.89 75.9815 92.6519V92.6262Z" fill="#D8CA7D"/>
<path d="M77.14 92.9094C77.0371 96.6396 76.1882 102.016 72.741 104.126C72.4838 104.254 72.2266 104.383 71.9693 104.46C71.8664 104.486 71.7892 104.511 71.6863 104.563H71.6349C71.6349 104.563 71.5834 104.563 71.5577 104.563C71.5577 104.563 71.4548 104.563 71.4033 104.589C71.4033 104.589 71.4033 104.589 71.3776 104.589C71.3776 104.589 71.3519 104.589 71.3262 104.589C71.3262 104.589 71.3519 104.589 71.3776 104.589L71.6091 104.511C71.6091 104.511 71.6606 104.511 71.712 104.486C71.712 104.486 71.712 104.486 71.7377 104.486C71.8149 104.46 71.9178 104.409 71.995 104.383C75.7766 102.685 76.6512 96.5881 77.14 92.9351V92.9094Z" fill="#D8CA7D"/>
</g>
<path d="M72.0711 104.663C72.0711 104.663 71.7881 104.663 71.5823 104.663C71.5823 104.663 71.5824 104.663 71.5566 104.663C71.5566 104.663 71.5566 104.663 71.5309 104.663C71.5052 104.663 71.4794 104.663 71.4537 104.663C71.4537 104.663 71.4537 104.663 71.428 104.663C71.428 104.663 71.4023 104.663 71.3765 104.663C71.1193 104.612 70.862 104.56 70.7334 104.535C70.4762 104.457 70.5533 104.303 70.5533 104.303C70.5533 104.303 70.5534 104.303 70.5791 104.303C70.5791 104.303 70.8363 104.406 70.9649 104.432C70.9649 104.432 71.1707 104.483 71.2736 104.483C71.2736 104.483 71.3508 104.483 71.3765 104.483C71.4537 104.483 71.5566 104.483 71.6081 104.483C71.6338 104.483 71.6595 104.483 71.6852 104.483H71.8139C71.8139 104.483 71.9168 104.483 71.9683 104.483C72.0969 104.483 72.174 104.483 72.174 104.483C72.174 104.483 72.3284 104.637 72.0454 104.689L72.0711 104.663Z" fill="#B9A014"/>
<path d="M70.6558 104.972C70.6558 104.972 70.5014 105.049 70.63 105.229C70.7587 105.409 71.7362 105.512 71.942 105.461C72.1478 105.409 71.942 105.229 71.942 105.229C71.942 105.229 71.3504 105.512 70.6558 104.972Z" fill="#B9A014"/>
<path d="M71.5051 108.444L71.4537 109.113L70.7334 109.576L70.6304 110.091L69.9873 113.049L70.2446 110.322L70.3475 109.19L71.5051 108.444Z" fill="#C8B547"/>
<g style="mix-blend-mode:soft-light">
<path d="M77.8601 93.2438C77.8601 93.2438 77.7058 93.1409 77.6286 93.0638C77.2427 92.7293 77.3457 92.7293 77.037 92.0348C76.7283 91.3402 76.1366 91.9833 75.6478 92.009C75.1333 92.0348 74.9275 91.829 74.5159 91.5203C74.1043 91.2116 73.5641 91.3402 72.9981 91.5203C72.4064 91.7003 72.6637 91.5203 70.9658 91.0058C69.8082 90.6713 68.0846 90.8257 67.0813 90.9543C67.0813 90.9543 67.0813 90.9286 67.107 90.9029C67.8531 89.8739 77.2427 90.9543 77.6286 91.9833C77.7315 92.2406 77.8087 92.6779 77.8344 93.2181L77.8601 93.2438Z" fill="#D8CA7D"/>
</g>
<path d="M71.3249 142.036C71.3249 148.363 66.5664 153.713 59.9047 155.694C58.1556 156.208 56.278 156.491 54.3489 156.491C44.9607 156.491 37.3472 150.035 37.3472 142.036C37.3472 134.036 44.3948 128.069 53.3201 127.632C53.6544 127.632 54.0145 127.606 54.3489 127.606C56.0979 127.606 57.7955 127.838 59.3645 128.249C61.4222 128.789 63.2998 129.638 64.9202 130.744C68.8298 133.393 71.3249 137.457 71.3249 142.036Z" fill="#FEF4AD"/>
<path d="M64.9203 133.033C63.2228 133.625 61.911 135.631 59.6733 136.454C56.1495 137.74 52.0598 137.329 50.6451 136.969C46.7098 135.94 42.4144 142.422 46.9413 148.338C51.4682 154.253 61.1908 155.642 65.9235 151.141C70.6562 146.64 69.7816 142.653 69.7302 140.338C69.6787 138.023 66.5923 132.416 64.8947 133.033H64.9203Z" fill="#FFF8D1"/>
<g style="mix-blend-mode:multiply" opacity="0.57">
<path d="M40.0994 147.772C44.1633 157.983 59.1588 155.797 59.8789 155.668C58.1299 156.182 56.2523 156.465 54.3232 156.465C44.935 156.465 37.3215 150.009 37.3215 142.01C37.3215 134.011 44.3691 128.043 53.2943 127.606C55.4806 127.838 57.6155 128.043 59.3388 128.224C61.3965 128.764 63.2742 129.612 64.8946 130.718C64.5088 131.542 63.0426 133.831 58.0784 135.22C51.9311 136.943 44.7549 133.702 43.4688 133.651C42.1571 133.599 36.7556 139.386 40.0994 147.772Z" fill="#FCEE9C"/>
</g>
<g style="mix-blend-mode:soft-light" opacity="0.61">
<path d="M63.6862 134.731C63.6862 133.651 65.178 133.239 66.104 133.753C67.0299 134.268 69.2419 136.994 69.4219 141.933C69.5763 146.305 66.5926 151.45 63.2231 152.144C63.2231 152.144 67.6986 146.177 66.927 142.524C66.1296 138.872 63.6862 135.785 63.6862 134.705V134.731Z" fill="white"/>
</g>
<path d="M66.8239 124.211C66.8239 128.893 63.1972 132.879 58.1558 134.32C56.8183 134.706 55.4037 134.911 53.9376 134.911C50.9282 134.911 48.1761 134.063 45.9898 132.648C44.4722 131.671 43.2119 130.41 42.3631 128.97C42.2859 128.841 42.2088 128.687 42.1316 128.558C41.9516 128.25 41.8229 127.941 41.6943 127.607C41.2571 126.526 41.0256 125.395 41.0256 124.186C41.0256 118.501 46.4014 113.846 53.166 113.511C53.4232 113.511 53.6804 113.511 53.9634 113.511C55.3009 113.511 56.5869 113.692 57.7958 114C59.3391 114.386 60.7794 115.029 62.0398 115.852C65.0234 117.807 66.9011 120.842 66.9011 124.211H66.8239Z" fill="#FEF4AD"/>
<path d="M55.1481 120.456C54.7365 120.019 52.164 120.713 51.0835 120.456C48.0994 119.71 44.1378 124.778 46.6845 129.743C49.5915 135.454 57.5405 133.91 56.8974 132.238C55.9456 129.717 56.4601 127.582 56.2029 125.858C55.6626 122.308 55.5854 120.919 55.1481 120.456Z" fill="#FFF8D1"/>
<g style="mix-blend-mode:multiply" opacity="0.57">
<path d="M43.0576 128.456C46.1441 136.018 57.5643 134.397 58.1044 134.32C56.7669 134.706 55.3523 134.912 53.8862 134.912C46.7357 134.912 40.9485 130.127 40.9485 124.212C40.9485 118.296 46.3241 113.872 53.0888 113.537C54.7607 113.692 56.3554 113.872 57.6929 114C59.2619 114.386 60.6765 115.029 61.9369 115.852C61.6539 116.47 60.548 118.167 56.7412 119.196C52.06 120.456 46.6071 118.064 45.6297 118.039C44.6523 118.013 40.5369 122.283 43.0576 128.507V128.456Z" fill="#FEF6CF"/>
</g>
<path d="M61.6045 111.737C61.6045 112.252 61.553 112.766 61.4244 113.229C61.3987 113.41 61.3472 113.59 61.2701 113.744C60.807 115.107 59.8295 116.162 58.5432 116.857C57.2569 117.551 55.6363 117.911 53.887 117.911C49.6423 117.911 46.1694 115.828 46.1694 111.737C46.1694 111.3 46.1951 110.889 46.2723 110.451C46.3237 110.117 46.4266 109.782 46.5295 109.474C46.6324 109.165 46.7611 108.856 46.8897 108.573C48.1245 106.078 50.7742 104.329 53.8612 104.329C56.1765 104.329 58.2602 105.306 59.6751 106.875C59.8295 107.055 59.9838 107.21 60.1124 107.39C61.0128 108.599 61.553 110.091 61.553 111.712L61.6045 111.737Z" fill="#FFF8D1"/>
<g style="mix-blend-mode:multiply" opacity="0.57">
<path d="M49.8224 116.497C47.0183 115.107 47.4556 110.606 48.0473 110.245C48.639 109.885 52.7036 108.882 54.5301 108.728C56.0736 108.599 59.2378 107.801 60.1381 107.416C60.0095 107.236 59.8551 107.055 59.7008 106.901C59.212 106.772 58.6204 106.695 58.6204 106.695L47.9701 109.165C47.6357 108.342 46.9669 108.573 46.9154 108.599C46.7611 108.882 46.6582 109.191 46.5553 109.499C46.5038 109.679 46.4524 109.86 46.401 110.04C46.401 110.091 46.3752 110.168 46.3494 110.22C46.3494 110.297 46.298 110.4 46.298 110.477C46.2209 110.889 46.1694 111.326 46.1694 111.763C46.1694 115.853 49.6166 117.937 53.887 117.937C55.6363 117.937 57.2312 117.577 58.5432 116.882C58.3374 116.934 53.1666 118.169 49.8224 116.522V116.497Z" fill="#FCF0AA"/>
</g>
<g style="mix-blend-mode:multiply" opacity="0.33">
<path d="M54.7349 118.862C54.7349 118.862 55.8925 119.119 55.9182 119.814C55.9439 120.508 57.2816 128.997 57.0501 129.846C56.8186 130.695 57.1016 130.644 58.465 130.875C59.8285 131.081 60.1886 131.21 60.1886 131.621C60.1886 131.956 61.1147 132.522 61.9636 132.573C63.4814 131.596 64.7419 130.335 65.5909 128.894C65.7452 128.534 66.0025 127.531 65.3593 126.682C63.8673 124.65 63.4814 119.814 62.0922 116.675L54.7606 118.887L54.7349 118.862Z" fill="#BAAE49"/>
</g>
<path d="M65.9504 128.354C65.7446 128.277 65.5388 128.329 65.3587 128.457C65.3587 128.457 65.333 128.509 65.3072 128.534L65.0243 128.354C65.1272 128.226 65.1787 128.123 65.1787 128.123C64.8957 127.866 63.4551 126.065 62.8377 123.029C62.2203 119.994 60.2652 115.981 60.2652 115.981C60.2652 115.981 59.5448 115.775 58.6445 116.032C57.4097 116.392 57.2039 116.752 57.2039 116.752L60.1366 129.229L60.471 130.695C60.471 130.695 60.4709 130.695 60.4967 130.695C60.4967 130.695 60.5739 130.695 60.6253 130.695L60.6768 130.978C60.6768 130.978 60.6511 130.978 60.6253 130.978C60.2909 131.081 60.1366 131.441 60.2395 131.724C60.3424 132.033 60.7025 132.162 61.0112 132.059C61.1398 132.007 61.2685 131.904 61.3456 131.801C61.4485 131.647 61.4743 131.467 61.4228 131.313C61.3456 131.107 61.1656 130.978 60.9598 130.953C60.9341 130.953 60.9083 130.953 60.8826 130.953L60.8311 130.695C61.0626 130.695 61.4228 130.695 61.8858 130.618L61.9888 130.953C61.9888 130.953 61.963 130.953 61.9373 130.953C61.6286 131.107 61.5 131.467 61.6286 131.75C61.7572 132.033 62.1431 132.136 62.4518 131.982C62.5804 131.904 62.6833 131.801 62.7347 131.699C62.8119 131.544 62.8119 131.364 62.7347 131.21C62.6318 131.03 62.4518 130.901 62.2203 130.901C62.1946 130.901 62.1688 130.901 62.1431 130.901L62.0402 130.541C62.1945 130.515 62.3489 130.489 62.5032 130.438C62.5804 130.438 62.6576 130.387 62.7347 130.361C62.8376 130.335 62.9149 130.258 63.0178 130.232L63.1721 130.412C63.1721 130.412 63.1463 130.412 63.1463 130.438C62.9405 130.721 62.9663 131.081 63.2235 131.287C63.4808 131.493 63.841 131.416 64.0725 131.158C64.1754 131.03 64.2011 130.901 64.2011 130.772C64.2011 130.592 64.1239 130.438 63.9953 130.309C63.8152 130.181 63.6094 130.155 63.4036 130.258C63.4036 130.258 63.3522 130.284 63.3522 130.309L63.2235 130.155C63.455 130.026 63.6609 129.872 63.841 129.666C63.9182 129.589 63.9953 129.512 64.0725 129.435L64.3298 129.666C64.3298 129.666 64.3297 129.666 64.304 129.692C64.1239 129.975 64.2011 130.361 64.4584 130.515C64.7156 130.695 65.1015 130.592 65.2816 130.284C65.3588 130.155 65.3845 130.026 65.3845 129.872C65.3845 129.692 65.2816 129.538 65.1272 129.435C64.9472 129.332 64.7156 129.332 64.5355 129.435C64.5355 129.435 64.5098 129.486 64.4841 129.486L64.2268 129.255C64.5098 128.946 64.7413 128.637 64.9214 128.38L65.2301 128.56C65.2301 128.56 65.2301 128.56 65.2044 128.586C65.0758 128.895 65.2044 129.255 65.5131 129.383C65.8218 129.486 66.1562 129.332 66.2848 128.997C66.3363 128.869 66.3363 128.714 66.2848 128.586C66.2334 128.406 66.1305 128.277 65.9504 128.226V128.354Z" fill="#FBC500"/>
<g style="mix-blend-mode:multiply" opacity="0.36">
<path d="M63.8658 129.743C63.5571 130.052 63.197 130.309 62.7854 130.438C62.7082 130.438 62.631 130.489 62.5539 130.515C61.3962 130.849 60.6759 130.747 60.5216 130.721H60.4958L60.1614 129.254L60.3672 128.92L59.0295 117.755H60.1614C60.1614 117.755 60.6759 120.174 60.7788 120.997C60.8817 121.846 61.7821 125.756 62.0393 126.631C62.348 127.685 62.7853 128.534 62.9911 129.023C63.094 129.254 63.0684 129.383 63.197 129.357C63.4542 129.357 63.7629 129.537 63.8915 129.769L63.8658 129.743Z" fill="#F8D719"/>
</g>
<path d="M46.6068 116.186C46.7869 116.444 47.0184 116.701 47.2757 116.932C47.7387 117.344 48.2789 117.679 48.922 117.962C53.038 119.762 60.1382 118.991 61.6817 117.241C62.2477 116.598 62.2219 116.135 62.1448 115.672C62.1448 115.543 62.0933 115.415 62.0676 115.312C61.9132 114.257 61.3473 113.768 61.3473 113.768C61.3473 113.768 59.3407 114.694 56.3566 114.977C56.2537 114.977 56.1765 114.977 56.0736 115.003C55.9192 115.003 55.7907 115.003 55.6363 115.029C54.7359 115.157 53.8356 115.209 52.9866 115.183C49.488 115.183 46.8383 114.283 46.8383 114.283C46.8383 114.283 46.118 115.132 46.581 116.186H46.6068Z" fill="#FAD400"/>
<g style="mix-blend-mode:multiply" opacity="0.36">
<path d="M48.9475 117.962C53.0635 119.762 60.1636 118.991 61.7071 117.241C62.2731 116.598 62.2474 116.135 62.1702 115.672C62.0931 116.264 61.8615 116.907 61.347 117.087C60.2923 117.473 59.1346 115.801 59.1346 115.801L56.0477 117.859C56.0477 117.859 55.739 118.759 54.6071 118.759C53.8353 118.759 51.0313 118.605 48.9733 117.962H48.9475Z" fill="#F8D719"/>
</g>
<path d="M55.6599 115.029L55.9944 117.73L57.435 129.486V129.769C57.435 129.769 58.2582 130.593 59.4415 130.464C60.8821 130.31 62.8373 129.409 62.8373 129.126C62.8373 129.126 62.7087 129.023 62.6058 128.766C62.117 127.583 60.7793 123.93 60.5992 121.872C60.3162 118.811 58.7727 114.592 58.7727 114.592C58.7727 114.592 58.7213 114.592 58.6184 114.54C58.3611 114.463 57.8209 114.36 57.152 114.489C55.8915 114.72 55.6343 115.055 55.6343 115.055L55.6599 115.029Z" fill="#FBD500"/>
<g style="mix-blend-mode:screen" opacity="0.48">
<path d="M55.6599 115.029L55.9944 117.73C55.9944 117.73 56.226 115.672 56.6118 115.081C57.0234 114.463 58.6184 114.515 58.6184 114.515C58.3611 114.437 57.8209 114.334 57.152 114.463C55.8915 114.695 55.6343 115.029 55.6343 115.029H55.6599Z" fill="#FCED97"/>
</g>
<g style="mix-blend-mode:screen" opacity="0.3">
<path d="M46.6068 116.186C46.7869 116.444 47.0184 116.701 47.2757 116.932C48.3304 117.627 50.2083 118.013 50.4141 117.473C50.6199 116.932 47.3271 116.135 47.2499 115.749C47.1985 115.363 47.7645 115.26 48.6648 115.646C49.5652 116.032 53.3725 116.547 53.5268 116.135C53.6812 115.723 52.9866 115.157 52.9866 115.157C49.488 115.157 46.8383 114.257 46.8383 114.257C46.8383 114.257 46.118 115.106 46.581 116.161L46.6068 116.186Z" fill="#FCED97"/>
</g>
<path d="M57.5635 129.793L57.4092 130.719C57.4092 130.719 57.4349 130.822 57.4864 130.822C57.5378 130.822 57.5892 130.796 57.5892 130.744L57.7436 129.818C57.7436 129.818 57.7179 129.715 57.6664 129.715C57.615 129.715 57.5635 129.741 57.5635 129.793Z" fill="#FBD500"/>
<path d="M58.078 130.848C58.078 131.028 57.9751 131.208 57.8465 131.311C57.7436 131.388 57.5892 131.439 57.4349 131.439C57.0747 131.439 56.7917 131.156 56.7917 130.848C56.7917 130.539 57.0747 130.23 57.4349 130.23C57.5378 130.23 57.6664 130.256 57.7693 130.307C57.9751 130.41 58.1038 130.616 58.1038 130.822L58.078 130.848Z" fill="#FBD500"/>
<path opacity="0.6" d="M58.0782 130.848C58.0782 131.028 57.9753 131.208 57.8467 131.311C57.7952 131.311 57.7695 131.311 57.7181 131.311C57.3579 131.311 57.075 131.079 57.075 130.822C57.075 130.565 57.3579 130.308 57.7181 130.308C57.7181 130.308 57.7438 130.308 57.7695 130.308C57.9753 130.411 58.1039 130.616 58.1039 130.822L58.0782 130.848Z" fill="#FCEFA3"/>
<path d="M58.799 130.23L58.7476 131.156C58.7476 131.156 58.7733 131.259 58.8505 131.259C58.9277 131.259 58.9534 131.233 58.9534 131.156L59.0048 130.23C59.0048 130.23 58.9791 130.127 58.9019 130.127C58.8247 130.127 58.799 130.153 58.799 130.23Z" fill="#FBD500"/>
<path d="M59.442 131.233C59.442 131.414 59.3906 131.594 59.262 131.722C59.1591 131.825 59.0304 131.902 58.876 131.902C58.5159 131.954 58.2072 131.697 58.1557 131.388C58.1043 131.079 58.3873 130.745 58.7217 130.719C58.8246 130.719 58.9532 130.719 59.0561 130.77C59.2619 130.848 59.4163 131.028 59.442 131.259V131.233Z" fill="#FBD500"/>
<path opacity="0.6" d="M59.4418 131.234C59.4418 131.414 59.3904 131.594 59.2618 131.722C59.2103 131.722 59.1845 131.722 59.1331 131.748C58.7729 131.8 58.4643 131.594 58.4385 131.336C58.4128 131.079 58.6701 130.796 59.0302 130.771C59.0302 130.771 59.0559 130.771 59.0817 130.771C59.2875 130.848 59.4418 131.028 59.4675 131.259L59.4418 131.234Z" fill="#FCEFA3"/>
<path d="M59.9818 130.204L60.3419 131.053C60.3419 131.053 60.4191 131.13 60.4706 131.104C60.522 131.079 60.5477 131.027 60.522 130.976L60.1618 130.127C60.1618 130.127 60.0846 130.05 60.0332 130.075C59.9817 130.101 59.9561 130.153 59.9818 130.204Z" fill="#FBD500"/>
<path d="M60.9848 130.796C61.0877 130.95 61.0878 131.156 61.0363 131.31C60.9849 131.439 60.9076 131.568 60.7533 131.645C60.4446 131.851 60.0587 131.773 59.8787 131.49C59.6986 131.207 59.8015 130.822 60.1102 130.641C60.2131 130.59 60.316 130.539 60.4189 130.539C60.6247 130.539 60.8562 130.616 60.9848 130.796Z" fill="#FBD500"/>
<path opacity="0.6" d="M60.9845 130.796C61.0874 130.95 61.0874 131.156 61.036 131.31C61.0102 131.336 60.9588 131.362 60.9331 131.388C60.6243 131.593 60.2642 131.542 60.1098 131.31C59.9555 131.079 60.0841 130.744 60.3928 130.539C60.3928 130.539 60.3928 130.539 60.4443 130.539C60.6501 130.539 60.8816 130.616 61.0102 130.796H60.9845Z" fill="#FCEFA3"/>
<path d="M61.2938 129.844L61.7311 130.667C61.7311 130.667 61.8083 130.744 61.8597 130.719C61.9112 130.693 61.937 130.642 61.9112 130.59L61.4739 129.767C61.4739 129.767 61.3967 129.69 61.3453 129.715C61.2938 129.741 61.268 129.793 61.2938 129.844Z" fill="#FBD500"/>
<path d="M62.3738 130.359C62.5025 130.513 62.5282 130.693 62.4768 130.873C62.451 131.002 62.3739 131.131 62.2452 131.234C61.9623 131.465 61.5763 131.414 61.3705 131.156C61.1647 130.899 61.2162 130.513 61.4992 130.282C61.6021 130.205 61.705 130.153 61.8079 130.153C62.0137 130.102 62.2452 130.179 62.3996 130.359H62.3738Z" fill="#FBD500"/>
<path opacity="0.6" d="M62.3742 130.359C62.5028 130.513 62.5286 130.693 62.4771 130.873C62.4514 130.899 62.4257 130.925 62.3742 130.976C62.0912 131.208 61.7311 131.208 61.551 130.976C61.3709 130.745 61.4739 130.41 61.7568 130.179C61.7568 130.179 61.7568 130.179 61.7825 130.179C61.9883 130.127 62.2199 130.204 62.3742 130.385V130.359Z" fill="#FCEFA3"/>
<path d="M62.4508 129.304L63.0426 130.024C63.0426 130.024 63.1454 130.076 63.1711 130.024C63.1969 129.973 63.2226 129.921 63.1711 129.896L62.5794 129.175C62.5794 129.175 62.4766 129.124 62.4508 129.175C62.4251 129.227 62.3994 129.278 62.4508 129.304Z" fill="#FBD500"/>
<path d="M63.6081 129.613C63.7625 129.741 63.8139 129.922 63.8139 130.102C63.8139 130.256 63.7625 130.385 63.6596 130.513C63.428 130.796 63.0422 130.822 62.7849 130.616C62.5277 130.41 62.5276 129.999 62.7592 129.742C62.8363 129.664 62.9393 129.587 63.0422 129.561C63.248 129.484 63.4795 129.51 63.6596 129.664L63.6081 129.613Z" fill="#FBD500"/>
<path opacity="0.6" d="M63.6084 129.613C63.7627 129.741 63.8141 129.922 63.8141 130.102C63.8141 130.127 63.7627 130.179 63.737 130.204C63.5054 130.487 63.1453 130.539 62.9395 130.359C62.7337 130.179 62.7337 129.819 62.9909 129.536C62.9909 129.536 62.9909 129.536 63.0167 129.51C63.2225 129.433 63.454 129.458 63.634 129.613H63.6084Z" fill="#FCEFA3"/>
<path d="M52.1628 110.899C52.4185 110.813 52.5889 110.633 52.5434 110.499C52.4978 110.364 52.2536 110.325 51.9979 110.412C51.7422 110.498 51.5718 110.677 51.6173 110.812C51.6629 110.947 51.9071 110.986 52.1628 110.899Z" fill="#B39800"/>
<path d="M58.7985 109.602C59.0685 109.602 59.2873 109.487 59.2873 109.345C59.2873 109.203 59.0685 109.087 58.7985 109.087C58.5286 109.087 58.3098 109.203 58.3098 109.345C58.3098 109.487 58.5286 109.602 58.7985 109.602Z" fill="#B39800"/>
<g style="mix-blend-mode:multiply" opacity="0.57">
<path d="M43.4179 121.46C43.4179 121.46 42.569 123.08 42.286 123.878C42.0802 124.444 41.5657 126.45 42.0802 128.56C41.9001 128.251 41.7715 127.942 41.6429 127.608C41.2828 125.936 41.7201 123.929 41.8487 123.415C42.0545 122.36 42.4918 121.665 42.4918 121.665L43.0578 121.099C43.0578 121.099 43.1864 121.022 43.2893 121.099C43.3922 121.177 43.4694 121.408 43.4694 121.46H43.4179Z" fill="#FCEE9C"/>
</g>
<path d="M43.0321 120.791C42.7748 120.791 34.1582 126.038 34.1582 126.038L33.4123 133.111L32.1777 136.121L33.2837 134.114L33.1551 138.564L34.7498 126.578C34.7498 126.578 35.5215 126.115 36.6018 125.498C36.7047 125.446 34.9298 128.687 35.007 128.584C35.3928 127.993 37.219 125.138 37.2705 125.112C39.8169 123.62 43.4178 121.511 43.4435 121.434C43.495 121.305 43.2635 120.791 42.9806 120.816L43.0321 120.791Z" fill="#C8B547"/>
<path d="M62.7344 113.023C62.7344 113.023 62.9146 116.856 62.2458 113.126C61.5771 109.422 60.291 107.596 58.0533 108.008C57.1787 108.162 53.9636 109.011 53.9636 109.011C53.9636 109.011 50.697 109.679 49.8739 109.937C47.6876 110.605 47.3532 112.792 48.4335 116.418C49.5138 120.019 47.9448 116.521 47.9448 116.521C47.9448 116.521 46.5559 114.464 45.7842 110.914C45.6299 110.22 45.5013 109.448 45.4242 108.651C45.2698 107.184 45.3984 105.667 45.7328 104.227C46.273 102.014 47.3276 100.034 48.7422 98.7222L48.9737 98.5164C49.6425 97.9505 50.3883 97.539 51.1599 97.3332C51.3914 97.2818 51.623 97.2561 51.8802 97.2304C54.2208 97.076 56.8958 98.5421 58.902 100.78C59.6222 101.577 60.2653 102.477 60.7797 103.455C61.0112 103.918 61.2427 104.381 61.4227 104.87C63.146 109.474 62.7088 113.023 62.7088 113.023H62.7344Z" fill="#C7C563"/>
<path d="M48.2021 106.155L48.0735 106.027L47.9706 106.13V106.001H47.7905V106.284L47.7133 106.361H47.6361L47.559 106.13L47.3789 106.181L47.4818 106.49L47.276 106.619L47.0959 106.464L47.276 106.181L47.1217 106.078L46.9673 106.336L46.9158 106.284L46.8644 106.181L46.9673 105.898L46.7872 105.847V105.95L46.6843 105.821L46.53 105.898L46.6071 106.027H46.4786L46.4271 106.181L46.7101 106.258L46.7615 106.361V106.438H46.4786V106.619H46.813L46.8644 106.85L46.6586 106.979L46.4528 106.721L46.2985 106.85L46.4786 107.082H46.4014L46.2985 107.133L46.0669 106.953L45.964 107.107L46.0669 107.184H45.9126L45.9383 107.39H46.0927L46.0154 107.467L46.1699 107.57L46.3242 107.313H46.4271H46.5042L46.4014 107.596L46.5814 107.648L46.6843 107.339H46.9158L46.9673 107.596L46.6586 107.725L46.7358 107.905L47.0188 107.802V107.879V107.982L46.7872 108.162L46.8902 108.316L46.993 108.239V108.394H47.1474V108.239L47.2503 108.342L47.4046 108.239L47.2245 108.008V107.905L47.276 107.828L47.5075 108.008L47.6105 107.853L47.3532 107.648L47.4561 107.442H47.6876V107.802H47.8677V107.493H47.9448L48.0477 107.545L48.1507 107.828L48.3308 107.776V107.673L48.4336 107.725L48.5108 107.57L48.3822 107.519L48.4851 107.467L48.4336 107.287L48.1507 107.39L48.0477 107.339L47.9963 107.287L48.2278 107.107L48.1249 106.953L47.842 107.133L47.6619 106.979L47.7648 106.773L48.0992 106.85L48.1507 106.67L47.8677 106.593V106.516L47.9706 106.438H48.2793V106.258H48.1507L48.2536 106.155H48.2021ZM47.5075 106.619L47.2245 106.902L47.0445 106.567L47.2503 106.773L47.5075 106.644V106.619ZM46.9158 106.927L46.8644 106.644L47.0445 106.979L46.6586 107.056L46.9158 106.927ZM46.7101 107.236L47.0959 107.159L47.0445 107.545L46.993 107.262H46.7101V107.236ZM47.3532 107.339L47.2245 107.596L47.276 107.21L47.6361 107.39H47.3532V107.339ZM47.7133 107.21L47.3532 107.03L47.6361 106.747L47.5075 107.004L47.7133 107.21Z" fill="#FFFCEF"/>
<path d="M52.2403 104.407L52.1374 104.252L52.0088 104.33V104.201H51.8545L51.803 104.484L51.7001 104.561H51.6229L51.5972 104.304H51.4171L51.4429 104.664L51.2113 104.741L51.057 104.535L51.2885 104.304L51.1598 104.175L50.9541 104.381L50.9026 104.33V104.227L51.0055 103.969L50.8511 103.892L50.7997 103.995L50.7483 103.866L50.5682 103.918L50.6196 104.047L50.5167 103.995L50.4395 104.149L50.6968 104.278V104.381L50.7226 104.458L50.4395 104.407V104.587L50.7226 104.638V104.87L50.491 104.947L50.3367 104.664L50.1823 104.741L50.3367 104.998H50.2595H50.1308L49.9251 104.793L49.7964 104.921L49.8736 104.998H49.7192V105.178H49.8736L49.7964 105.256L49.9251 105.384L50.1308 105.178H50.2595H50.3367L50.1823 105.436L50.3367 105.513L50.491 105.23L50.7226 105.307V105.539L50.3881 105.616V105.796L50.7226 105.744V105.822L50.6968 105.924L50.4395 106.053L50.5167 106.207L50.6196 106.156L50.5682 106.285L50.7483 106.336L50.7997 106.207L50.8511 106.31L51.0055 106.233L50.8769 105.976V105.873L50.9541 105.822L51.1598 106.027L51.2885 105.899L51.057 105.667L51.2113 105.461L51.4429 105.539L51.3914 105.873H51.5714L51.5972 105.616H51.6744L51.7773 105.719L51.8287 106.002H52.0088V105.847L52.1374 105.924L52.2403 105.77L52.1117 105.693H52.2403L52.2146 105.487L51.9316 105.539L51.8287 105.461L51.7773 105.41L52.0602 105.281L51.9831 105.127L51.6744 105.256L51.52 105.05L51.6744 104.844L51.9831 104.973L52.0602 104.818L51.803 104.69L51.8545 104.638L51.9574 104.561L52.2403 104.612V104.432H52.1632L52.2917 104.355L52.2403 104.407ZM51.4686 104.715L51.1342 104.947L51.0055 104.561L51.1856 104.793L51.4686 104.715ZM50.8511 104.921V104.638L50.9798 105.024H50.5682L50.8511 104.947V104.921ZM50.5682 105.204H50.9798L50.8511 105.59V105.307L50.5682 105.23V105.204ZM51.1856 105.384L51.0055 105.616L51.1342 105.23L51.4686 105.461L51.1856 105.384ZM51.5714 105.333L51.2371 105.101L51.5714 104.87L51.3914 105.101L51.5714 105.333Z" fill="#FFFCEF"/>
<path d="M56.33 103.557L56.2528 103.403L56.1242 103.48V103.352L55.9699 103.3L55.8927 103.583L55.7898 103.634H55.7126V103.352H55.5325V103.686L55.301 103.737L55.1724 103.532L55.4296 103.326L55.301 103.197L55.0695 103.377V103.3L55.018 103.197L55.1981 102.966L55.0437 102.863L54.9666 102.966V102.811L54.7608 102.837V102.991L54.6836 102.914L54.5807 103.069L54.838 103.223V103.326V103.403L54.5549 103.3L54.5035 103.48L54.8122 103.583V103.815L54.5293 103.866L54.4006 103.557L54.2205 103.634L54.3234 103.917H54.2463H54.1177L53.9376 103.686L53.7832 103.789L53.8604 103.892H53.7061V104.046H53.8604L53.7575 104.149L53.8604 104.278L54.0919 104.098H54.2205L54.2977 104.149L54.1177 104.381L54.272 104.483L54.4778 104.226L54.7093 104.329V104.561H54.3492V104.741H54.6579V104.818L54.6064 104.921L54.3234 105.024L54.3749 105.204L54.4778 105.152L54.4264 105.281L54.5807 105.358L54.6321 105.229L54.6836 105.332L54.8636 105.255L54.7608 104.972L54.8122 104.869L54.8636 104.818L55.0437 105.049L55.1981 104.946L55.018 104.689L55.1981 104.509L55.4296 104.612L55.3524 104.921L55.5325 104.972L55.6097 104.689H55.6869L55.764 104.792V105.075H55.9441V104.946L56.047 105.049L56.1756 104.921L56.0727 104.818H56.2014V104.638H55.8927L55.8155 104.586V104.509L56.0727 104.432L56.0213 104.252L55.7126 104.355L55.5839 104.149L55.764 103.969L56.047 104.149L56.1499 103.995L55.8927 103.84L55.9441 103.789L56.047 103.737L56.33 103.815L56.3815 103.634H56.2528L56.3815 103.532L56.33 103.557ZM55.5325 103.789L55.1724 103.969L55.0952 103.583L55.2238 103.84L55.5068 103.789H55.5325ZM54.8894 103.917V103.634L54.9923 104.02L54.6064 103.969L54.8894 103.917ZM54.5807 104.149L54.9666 104.2L54.7865 104.561V104.278L54.5549 104.149H54.5807ZM55.1467 104.406L54.9408 104.612L55.1209 104.252L55.4039 104.509L55.1467 104.381V104.406ZM55.5583 104.406L55.2752 104.149L55.6354 103.969L55.4296 104.175L55.5583 104.432V104.406Z" fill="#FFFCEF"/>
<path d="M60.4201 103.661L60.3686 103.481L60.2143 103.532L60.2657 103.429L60.1114 103.352L59.9828 103.609H59.8798L59.8027 103.635L59.8798 103.352H59.6998L59.6226 103.635H59.3653L59.2881 103.403L59.5712 103.249L59.494 103.095L59.2367 103.223V103.146V103.018L59.4682 102.812L59.3396 102.683L59.2625 102.76V102.606H59.0824V102.76L59.0052 102.683L58.8765 102.812L59.0824 103.018V103.146L59.0566 103.223L58.7994 103.069L58.6965 103.223L58.9795 103.378L58.9023 103.609H58.645L58.5936 103.275H58.4135L58.465 103.584H58.3878L58.2849 103.532L58.1562 103.275L58.0019 103.352L58.0534 103.455L57.9247 103.403L57.8733 103.584L58.0019 103.635L57.899 103.686L57.9762 103.841L58.2334 103.712H58.3363L58.3878 103.789L58.1562 103.995L58.2849 104.124L58.5422 103.892L58.7479 104.047L58.6708 104.278L58.3363 104.227V104.407L58.5936 104.458V104.535L58.4907 104.638H58.182V104.844H58.3107L58.2334 104.947L58.3878 105.05L58.465 104.921V105.05L58.6708 105.024L58.6193 104.741L58.6965 104.638L58.7479 104.587L58.8765 104.844L59.0566 104.767L58.928 104.458L59.1338 104.33L59.3396 104.484L59.1853 104.793L59.3396 104.87L59.4682 104.613L59.5197 104.664L59.5969 104.767L59.5454 105.05H59.7255V104.973L59.8027 105.101L59.957 104.998L59.8798 104.87H60.0084L60.0342 104.715L59.7513 104.664L59.6741 104.561V104.484L59.957 104.458V104.278L59.5969 104.304L59.5197 104.072L59.7255 103.944L59.957 104.175L60.0856 104.047L59.8798 103.841L59.9313 103.789H60.0342L60.2915 103.892L60.3944 103.738L60.2915 103.686L60.4458 103.635L60.4201 103.661ZM59.5712 103.738L59.1853 103.866V103.481L59.2881 103.764H59.5712V103.738ZM58.928 103.712L59.031 103.429V103.815L58.645 103.686H58.928V103.712ZM58.5678 103.892L58.9538 104.021L58.7222 104.33L58.8251 104.047L58.5936 103.866L58.5678 103.892ZM59.1081 104.278L58.8765 104.432L59.1081 104.124L59.3396 104.458L59.1081 104.278ZM59.4682 104.355L59.2367 104.021L59.6226 103.892L59.3911 104.047L59.4682 104.33V104.355Z" fill="#FFFCEF"/>
<path d="M58.9293 100.78C58.2862 100.857 57.926 101.526 57.2314 101.706C56.0738 101.989 55.7908 100.883 54.6332 101.166C53.4755 101.449 53.2955 102.401 52.4723 102.71C51.6491 103.018 50.8259 102.221 49.9255 102.478C49.0251 102.761 49.0765 103.919 48.2019 104.253C47.3015 104.613 46.7099 103.687 46.1439 103.944C45.9896 104.022 45.861 104.125 45.7581 104.253C46.5813 100.909 48.6135 98.002 51.2118 97.3331C53.7328 96.7929 56.717 98.3107 58.955 100.78H58.9293Z" fill="#B9B73D"/>
<g style="mix-blend-mode:soft-light" opacity="0.24">
<path d="M60.8063 103.456C60.1889 103.842 59.0313 104.073 57.1276 104.073C54.092 104.073 52.42 100.137 51.6997 98.5938C51.3652 97.8735 51.571 97.4619 51.9054 97.2304C54.2464 97.076 56.9218 98.5423 58.9284 100.78C59.6487 101.578 60.2918 102.478 60.8063 103.456Z" fill="#FAFAF2"/>
</g>
<g style="mix-blend-mode:multiply" opacity="0.31">
<path d="M51.7268 107.057L45.7843 110.967C45.6299 110.273 45.5014 109.501 45.4242 108.703C45.2698 107.237 45.3984 105.719 45.7329 104.279C46.2731 102.066 47.3279 100.085 48.7427 98.7734L48.9743 98.5676C48.8456 98.7477 46.2216 102.143 48.2796 104.845C50.3891 107.623 51.7268 107.083 51.7268 107.083V107.057Z" fill="#C7C5B3"/>
</g>
<path d="M63.0687 108.393C63.0944 108.548 63.1202 108.83 63.1202 109.191C63.1202 109.345 63.1202 109.525 63.1202 109.705C63.1202 110.142 63.1202 110.631 63.0945 111.12C63.0945 111.171 63.0945 111.223 63.0945 111.274C63.0945 111.325 63.0945 111.351 63.0945 111.403C63.0945 111.66 63.0944 111.891 63.0687 112.123C63.0687 112.226 63.0687 112.329 63.0687 112.406C63.043 112.946 63.0173 113.332 62.9916 113.357C62.863 113.666 62.6572 113.718 62.4772 113.64C62.2971 113.563 62.117 113.383 62.0141 113.229C61.9884 113.177 61.937 113.049 61.8598 112.843C61.8598 112.766 61.8084 112.689 61.7827 112.612C61.7055 112.38 61.6284 112.123 61.5255 111.84C61.5255 111.763 61.474 111.686 61.4483 111.608C61.3968 111.454 61.3455 111.274 61.2683 111.094C61.2683 111.017 61.2169 110.94 61.1911 110.862C61.114 110.605 61.0111 110.322 60.9339 110.091C60.9082 110.014 60.8825 109.937 60.8567 109.885C60.7539 109.654 60.6767 109.448 60.5995 109.268C60.5481 109.191 60.5224 109.113 60.4709 109.062C60.4709 109.062 60.4709 109.011 60.4452 109.011C60.3423 108.882 60.2137 108.779 60.0336 108.702C60.0079 108.702 59.9822 108.676 59.9307 108.65C59.8536 108.625 59.7764 108.599 59.6993 108.573C59.5192 108.522 59.2877 108.496 59.082 108.47C59.0048 108.47 58.9277 108.47 58.8505 108.47C58.5418 108.47 58.2332 108.47 57.9245 108.496C57.8473 108.496 57.7702 108.496 57.693 108.496C57.4872 108.496 57.23 108.548 56.9471 108.599C56.8699 108.599 56.7928 108.599 56.7156 108.625C56.4584 108.676 56.1755 108.702 55.8926 108.753C55.8154 108.753 55.7382 108.779 55.661 108.805C55.4038 108.856 55.1466 108.908 54.8637 108.959C54.7865 108.959 54.7094 108.985 54.6322 109.011C54.4264 109.062 54.2207 109.088 54.0407 109.139C53.9635 109.139 53.8863 109.165 53.8092 109.191C53.5777 109.242 53.3462 109.293 53.1404 109.345C53.0632 109.345 52.9861 109.396 52.9089 109.396C52.626 109.474 52.3688 109.551 52.1116 109.628C52.0344 109.628 51.9573 109.679 51.8801 109.705C51.6486 109.782 51.4171 109.859 51.2113 109.937C51.1342 109.937 51.057 109.988 50.9798 110.014C50.7998 110.091 50.6455 110.142 50.4911 110.219C50.414 110.271 50.3111 110.297 50.2339 110.348C50.1567 110.374 50.0796 110.425 50.0282 110.451C49.8224 110.554 49.5909 110.657 49.3851 110.785C49.308 110.837 49.2308 110.862 49.1793 110.914C48.9736 111.043 48.8193 111.171 48.6649 111.3C48.5878 111.351 48.5363 111.428 48.4849 111.505C48.382 111.634 48.3048 111.788 48.2791 111.917C48.2791 111.943 48.2791 111.994 48.2791 112.046C48.2791 112.123 48.2791 112.2 48.2791 112.277C48.2791 112.457 48.2791 112.663 48.3306 112.894C48.3306 112.972 48.3306 113.049 48.3306 113.126C48.3563 113.332 48.3819 113.563 48.4334 113.795C48.4334 113.872 48.4334 113.949 48.4591 114.026C48.5106 114.309 48.5363 114.592 48.5877 114.849C48.5877 114.926 48.5877 115.004 48.6135 115.081C48.6649 115.364 48.6906 115.621 48.7164 115.827C48.7164 115.904 48.7164 115.981 48.7421 116.058C48.7421 116.212 48.7678 116.315 48.7421 116.367C48.7421 116.624 48.6135 116.958 48.382 117.036C48.2534 117.087 48.1247 117.036 47.9447 116.907C47.919 116.907 47.7132 116.547 47.4303 116.058C47.3789 115.981 47.3274 115.878 47.276 115.801C47.1474 115.569 46.993 115.312 46.8644 115.055C46.8644 115.055 46.7616 114.875 46.7101 114.772C46.5558 114.489 46.4015 114.206 46.2472 113.923C46.1957 113.82 46.1443 113.692 46.0928 113.589C45.8356 113.1 45.6556 112.689 45.6041 112.483C45.5784 112.329 45.527 112.149 45.527 111.994C45.527 111.788 45.5012 111.583 45.5012 111.403C45.5012 110.965 45.5784 110.58 45.7584 110.374C45.8099 110.297 45.9127 110.194 46.0156 110.091C46.067 110.039 46.1442 109.962 46.1957 109.911C46.4014 109.731 46.6586 109.499 46.9159 109.293C46.9673 109.242 47.0445 109.191 47.1217 109.139C47.4303 108.908 47.7904 108.65 48.1247 108.445C48.2019 108.393 48.2534 108.368 48.3306 108.316C48.382 108.29 48.4334 108.265 48.4849 108.239C48.6649 108.136 48.8964 108.033 49.1022 107.93C49.1793 107.905 49.2565 107.879 49.308 107.827C49.5909 107.699 49.8738 107.596 50.2082 107.493C50.2853 107.467 50.3625 107.442 50.4396 107.416C50.7226 107.313 51.0055 107.236 51.2885 107.159C51.3656 107.159 51.4428 107.107 51.52 107.081C51.7772 107.004 52.0087 106.953 52.2659 106.876C52.3431 106.876 52.4202 106.824 52.4974 106.824C52.6774 106.773 52.8575 106.721 53.0632 106.696L53.2947 106.644C53.5262 106.593 53.7834 106.541 54.0149 106.49C54.0664 106.49 54.1178 106.49 54.1692 106.464C54.2464 106.464 54.3235 106.438 54.4007 106.413C54.7094 106.361 54.9923 106.31 55.301 106.258C55.3781 106.258 55.4553 106.258 55.5324 106.233C55.8411 106.181 56.124 106.13 56.407 106.104C56.4841 106.104 56.5613 106.104 56.6384 106.078C56.9471 106.027 57.2301 106.001 57.4873 105.975C57.5644 105.975 57.6416 105.975 57.7188 105.95C58.0531 105.924 58.3618 105.898 58.619 105.873C58.619 105.873 58.619 105.873 58.6447 105.873C58.7218 105.873 58.7733 105.873 58.8505 105.873C59.1077 105.873 59.3649 105.873 59.6221 105.924C59.6993 105.924 59.7764 105.924 59.8536 105.95C60.188 106.001 60.4967 106.078 60.7796 106.155C60.8567 106.155 60.9596 106.207 61.0368 106.233C61.4741 106.361 61.8598 106.49 62.0399 106.593C62.0656 106.593 62.0914 106.618 62.1428 106.644C62.22 106.696 62.3229 106.773 62.4 106.876C62.7344 107.261 63.0173 107.905 63.1459 108.419L63.0687 108.393Z" fill="#E1E0AB"/>
<path d="M48.2022 112.072C48.2022 112.072 48.2022 112.226 48.2022 112.303C47.8163 112.38 47.4562 112.303 47.1732 112.097C46.8645 111.892 46.6587 111.609 46.4529 111.3C46.1956 110.863 46.0413 110.4 45.9641 110.117C46.0156 110.065 46.0928 109.988 46.1442 109.937C46.1699 110.091 46.2728 110.4 46.4271 110.734C46.6072 111.171 46.916 111.634 47.2761 111.892C47.5334 112.046 47.8164 112.123 48.1765 112.046L48.2022 112.072Z" fill="#C9C769"/>
<path d="M48.5884 111.3C48.5884 111.3 48.4598 111.429 48.4084 111.506C48.1769 111.454 47.9968 111.3 47.8167 111.12C47.6109 110.888 47.4051 110.58 47.2507 110.271C47.0706 109.911 46.9163 109.551 46.8391 109.319C46.8906 109.268 46.9678 109.216 47.045 109.165C47.045 109.165 47.045 109.191 47.045 109.216C47.0964 109.345 47.1478 109.525 47.2507 109.731C47.4308 110.142 47.6623 110.631 47.971 110.94C48.1768 111.146 48.3827 111.274 48.5627 111.274L48.5884 111.3Z" fill="#C9C769"/>
<path d="M49.3342 110.812C49.3342 110.812 49.1799 110.889 49.1285 110.94C49.1027 110.915 49.0513 110.863 49.0255 110.837C48.9484 110.734 48.8712 110.606 48.794 110.451C48.6397 110.169 48.511 109.834 48.3824 109.474C48.2538 109.088 48.1252 108.728 48.0737 108.471C48.1509 108.419 48.2023 108.393 48.2795 108.342C48.3052 108.445 48.3567 108.599 48.4082 108.754C48.5111 109.114 48.6654 109.603 48.8455 110.014C48.9741 110.297 49.1027 110.529 49.2056 110.683C49.2571 110.734 49.2828 110.786 49.3342 110.812Z" fill="#C9C769"/>
<path d="M50.1822 110.374C50.1822 110.374 50.0278 110.452 49.9764 110.477C49.9764 110.452 49.9507 110.426 49.9249 110.4C49.8735 110.297 49.7963 110.169 49.7448 110.014C49.6162 109.731 49.4876 109.397 49.3847 109.063C49.2304 108.625 49.1275 108.214 49.0503 107.982C49.1275 107.956 49.2046 107.931 49.2561 107.879C49.2561 107.931 49.2561 107.956 49.2818 108.008C49.3333 108.188 49.4104 108.445 49.5133 108.728C49.6934 109.294 49.9249 109.937 50.1307 110.272C50.1307 110.323 50.1822 110.349 50.2079 110.374H50.1822Z" fill="#C9C769"/>
<path d="M51.161 109.963C51.161 109.963 51.0066 110.014 50.9294 110.04C50.8523 109.809 50.7494 109.448 50.6465 109.063C50.4664 108.522 50.2863 107.931 50.1577 107.545V107.519C50.2349 107.493 50.3121 107.468 50.3892 107.442C50.4664 107.699 50.595 108.059 50.7237 108.445C50.9037 109.011 51.0838 109.577 51.1867 109.937L51.161 109.963Z" fill="#C9C769"/>
<path d="M51.8803 108.934C51.9575 109.217 52.0089 109.474 52.0603 109.68C51.9831 109.68 51.906 109.731 51.8288 109.757C51.7774 109.551 51.7259 109.294 51.6487 109.011C51.5458 108.548 51.4172 108.033 51.3143 107.622C51.2886 107.467 51.2372 107.313 51.2114 107.21C51.2886 107.21 51.3658 107.159 51.4429 107.133C51.5458 107.519 51.726 108.291 51.8803 108.934Z" fill="#C9C769"/>
<path d="M53.0376 109.165C53.0376 109.165 53.089 109.319 53.089 109.397C53.0119 109.397 52.9347 109.448 52.8575 109.448C52.8575 109.371 52.8318 109.294 52.8061 109.216C52.6517 108.573 52.3431 107.441 52.1887 106.927C52.2659 106.927 52.3431 106.875 52.4202 106.875C52.4717 107.056 52.5232 107.287 52.6003 107.57C52.7547 108.11 52.909 108.728 53.0119 109.165H53.0376Z" fill="#C9C769"/>
<path d="M48.228 112.92C48.228 112.92 48.228 113.075 48.228 113.152C47.662 113.255 47.1732 113.229 46.7616 113.101C46.35 112.972 46.0413 112.74 45.7841 112.509C45.6297 112.354 45.5268 112.2 45.4239 112.046C45.4239 111.84 45.3982 111.634 45.3982 111.454C45.4496 111.608 45.5526 111.814 45.6812 111.994C45.9127 112.354 46.2728 112.715 46.8388 112.895C47.1989 112.998 47.6363 113.049 48.2022 112.946L48.228 112.92Z" fill="#C9C769"/>
<path d="M53.9118 108.83C53.9118 108.83 53.9632 109.062 53.9889 109.165C53.9118 109.165 53.8346 109.19 53.7574 109.216C53.7574 109.113 53.706 108.985 53.6803 108.882C53.5002 108.161 53.14 107.184 52.96 106.721L53.1915 106.669C53.3716 107.132 53.7317 108.084 53.9118 108.83Z" fill="#C9C769"/>
<path d="M54.4778 107.107C54.5807 107.493 54.6579 107.931 54.735 108.342C54.7608 108.574 54.8122 108.805 54.8122 108.985C54.735 108.985 54.6579 109.011 54.5807 109.037C54.5807 108.831 54.5292 108.599 54.5035 108.368C54.4263 107.956 54.3492 107.519 54.2463 107.159C54.1948 106.902 54.1176 106.67 54.0662 106.49C54.1433 106.49 54.2205 106.464 54.2977 106.438C54.3491 106.619 54.4007 106.85 54.4521 107.107H54.4778Z" fill="#C9C769"/>
<path d="M55.4556 106.259C55.5071 106.465 55.5585 106.748 55.61 107.056C55.7129 107.648 55.8415 108.343 55.8415 108.806C55.7643 108.806 55.6872 108.831 55.61 108.857C55.61 108.806 55.61 108.754 55.61 108.703C55.61 108.471 55.5585 108.214 55.5071 107.931C55.4299 107.365 55.3013 106.773 55.2241 106.387C55.2241 106.362 55.2241 106.31 55.2241 106.285C55.3013 106.285 55.3785 106.285 55.4556 106.259Z" fill="#C9C769"/>
<path d="M56.5617 106.078C56.6646 106.721 56.8447 107.982 56.9219 108.625C56.8447 108.625 56.7676 108.625 56.6904 108.651C56.6904 108.599 56.6904 108.548 56.6904 108.497C56.6904 108.291 56.6389 108.008 56.5875 107.725C56.5103 107.159 56.4074 106.541 56.356 106.13C56.356 106.13 56.356 106.13 56.356 106.104C56.4331 106.104 56.5103 106.104 56.5875 106.078H56.5617Z" fill="#C9C769"/>
<path d="M57.6414 105.95C57.7186 106.438 57.8472 107.39 57.8987 108.111C57.8987 108.265 57.8987 108.394 57.8987 108.522C57.8215 108.522 57.7443 108.522 57.6671 108.522C57.6671 108.471 57.6671 108.394 57.6671 108.342C57.6671 108.111 57.6671 107.853 57.6156 107.596C57.5642 107.056 57.487 106.464 57.4355 106.104C57.4355 106.053 57.4355 106.027 57.4355 105.975C57.5127 105.975 57.59 105.975 57.6671 105.95H57.6414Z" fill="#C9C769"/>
<path d="M58.7738 105.847C58.8509 106.284 59.031 107.236 59.0567 107.982C59.0567 108.162 59.0567 108.342 59.0567 108.496C58.9795 108.496 58.9024 108.496 58.8252 108.496C58.8252 108.419 58.8252 108.342 58.8252 108.239C58.8252 108.008 58.8252 107.75 58.7738 107.493C58.7223 106.953 58.6194 106.413 58.5679 106.052C58.5679 105.975 58.5422 105.924 58.5422 105.847C58.5422 105.847 58.5422 105.847 58.5679 105.847C58.6451 105.847 58.6966 105.847 58.7738 105.847Z" fill="#C9C769"/>
<path d="M59.7767 105.924C59.7767 106.104 59.8025 106.31 59.8282 106.541C59.8796 107.056 59.9054 107.648 59.9054 108.162C59.9054 108.368 59.9054 108.548 59.9054 108.702C59.8282 108.677 59.751 108.651 59.6738 108.625C59.6738 108.522 59.6738 108.419 59.6738 108.291C59.6738 108.008 59.6738 107.699 59.6481 107.39C59.6224 106.85 59.5709 106.284 59.5452 105.924C59.6223 105.924 59.6995 105.924 59.7767 105.95V105.924Z" fill="#C9C769"/>
<path d="M60.986 106.181C61.1146 106.773 61.2433 107.828 60.9346 108.677C60.8574 108.908 60.7287 109.114 60.5744 109.294C60.5229 109.217 60.4973 109.14 60.4458 109.088C60.5487 108.96 60.6516 108.78 60.7031 108.625C60.806 108.317 60.8574 107.982 60.8832 107.648C60.8832 107.056 60.8059 106.49 60.7287 106.13C60.8059 106.13 60.9088 106.181 60.986 106.207V106.181Z" fill="#C9C769"/>
<path d="M62.3236 106.824C62.3236 106.824 62.3236 106.978 62.3236 107.055C62.3236 107.673 62.2722 108.445 61.912 109.113C61.7062 109.525 61.3718 109.885 60.9087 110.142C60.883 110.065 60.8573 109.988 60.8315 109.937C61.2174 109.731 61.4747 109.448 61.6805 109.113C61.8863 108.753 61.9892 108.316 62.0406 107.904C62.0921 107.441 62.0921 106.978 62.0406 106.644C62.1178 106.695 62.2207 106.772 62.2979 106.875L62.3236 106.824Z" fill="#C9C769"/>
<path d="M63.1201 109.165C63.1201 109.319 63.1201 109.499 63.1201 109.679C62.8114 110.194 62.2197 110.708 61.2678 111.094C61.2678 111.017 61.2164 110.94 61.1907 110.863C62.2969 110.425 62.8113 109.834 63.0686 109.293C63.0686 109.242 63.1201 109.191 63.1201 109.165Z" fill="#C9C769"/>
<path d="M63.0947 111.119C63.0947 111.119 63.0947 111.299 63.0947 111.402C62.8117 111.582 62.4773 111.685 62.1943 111.737C61.937 111.788 61.7056 111.84 61.5255 111.84C61.5255 111.762 61.474 111.685 61.4482 111.608C61.4482 111.608 61.4483 111.608 61.474 111.608C61.6541 111.608 61.8856 111.557 62.1429 111.505C62.4516 111.428 62.8117 111.299 63.0947 111.094V111.119Z" fill="#C9C769"/>
<path d="M63.0433 112.123C63.0433 112.123 63.0433 112.329 63.0433 112.406C62.8118 112.534 62.5031 112.715 62.1172 112.792C62.0143 112.792 61.9372 112.843 61.8343 112.843C61.8343 112.766 61.7828 112.689 61.7571 112.612C61.86 112.612 61.9629 112.586 62.0658 112.56C62.5031 112.457 62.8632 112.252 63.069 112.097L63.0433 112.123Z" fill="#C9C769"/>
<path d="M48.3566 113.846C48.3566 113.846 48.3567 114 48.3824 114.077C47.4563 114.283 46.736 114.18 46.2215 113.975C46.17 113.872 46.1186 113.743 46.0671 113.64C46.5559 113.872 47.3019 114.052 48.3824 113.82L48.3566 113.846Z" fill="#C9C769"/>
<path d="M48.5109 114.901C48.5109 114.901 48.5109 115.055 48.5367 115.132C47.945 115.261 47.3276 115.209 46.8131 115.106C46.8131 115.106 46.7101 114.926 46.6587 114.823C46.6587 114.823 46.6587 114.823 46.6844 114.823C47.1989 114.952 47.8678 115.029 48.4852 114.901H48.5109Z" fill="#C9C769"/>
<path d="M48.6653 115.852C48.6653 115.852 48.6652 116.006 48.691 116.084C48.2022 116.161 47.7392 116.161 47.379 116.084C47.3276 116.006 47.2761 115.904 47.2246 115.826C47.5848 115.904 48.0993 115.955 48.6395 115.826L48.6653 115.852Z" fill="#C9C769"/>
<g style="mix-blend-mode:multiply" opacity="0.31">
<path d="M51.8298 109.731C51.5983 109.808 51.3667 109.885 51.1609 109.962C51.0837 109.962 51.0066 110.014 50.9294 110.039C50.7493 110.117 50.595 110.168 50.4406 110.245C50.3634 110.297 50.2606 110.322 50.1834 110.374C50.1062 110.4 50.029 110.451 49.9776 110.477C49.7718 110.58 49.5403 110.683 49.3345 110.811C49.2573 110.863 49.1801 110.888 49.1287 110.94C48.9229 111.068 48.7685 111.197 48.6142 111.326C48.537 111.377 48.4855 111.454 48.4341 111.531C48.3312 111.66 48.254 111.814 48.2283 111.943C48.2283 111.969 48.2283 112.02 48.2283 112.072C48.2283 112.149 48.2283 112.226 48.2283 112.303C48.2283 112.483 48.2283 112.689 48.2797 112.921C48.2797 112.998 48.2797 113.075 48.2797 113.152C48.3054 113.358 48.3312 113.589 48.3826 113.821C48.3826 113.898 48.3827 113.975 48.4084 114.053C48.4598 114.336 48.4855 114.618 48.537 114.876C48.537 114.953 48.537 115.03 48.5627 115.107C48.6142 115.39 48.6399 115.647 48.6657 115.853C48.6657 115.93 48.6656 116.008 48.6913 116.085C48.6913 116.239 48.717 116.342 48.6913 116.394C48.6913 116.651 48.5627 116.985 48.3312 117.062C48.1254 116.882 47.8681 116.368 47.7138 115.03C47.3793 112.355 47.1735 111.943 48.0482 111.326C48.9228 110.708 51.0323 109.834 51.8298 109.731Z" fill="#C7C5B3"/>
</g>
<g style="mix-blend-mode:multiply" opacity="0.31">
<path d="M62.452 113.641C62.2719 113.564 62.0918 113.384 61.9889 113.23C61.9632 113.178 61.9118 113.049 61.8346 112.844C61.8346 112.766 61.7831 112.689 61.7574 112.612C61.6802 112.381 61.6031 112.123 61.5002 111.84C61.5002 111.763 61.4487 111.686 61.423 111.609C61.3715 111.454 61.3201 111.274 61.2429 111.094C61.2429 111.017 61.1914 110.94 61.1657 110.863C61.0885 110.606 60.9856 110.323 60.9085 110.091C60.8827 110.014 60.857 109.937 60.8313 109.885C60.7284 109.654 60.6512 109.448 60.574 109.268C60.5226 109.191 60.4969 109.114 60.4454 109.062C60.4454 109.062 60.4454 109.011 60.4197 109.011C60.3168 108.882 60.1881 108.779 60.0081 108.702C60.1881 108.728 60.4968 108.779 60.6512 108.908C60.9084 109.088 61.7574 111.48 61.9374 112.201C62.0918 112.869 62.2204 113.435 62.452 113.615V113.641Z" fill="#C7C5B3"/>
</g>
<g style="mix-blend-mode:soft-light" opacity="0.57">
<path d="M63.0705 108.394C63.0962 108.548 63.122 108.831 63.122 109.191C63.122 109.346 63.122 109.526 63.122 109.706C63.122 110.143 63.1219 110.632 63.0962 111.121C63.0962 111.172 63.0962 111.223 63.0962 111.275C62.9419 111.172 62.736 110.863 62.5045 110.812C61.9386 110.709 61.4498 108.111 60.498 107.622C59.5461 107.133 56.7421 107.622 55.9446 107.853C55.1472 108.111 53.2435 108.497 52.8319 107.673C52.6261 107.262 53.2178 106.85 53.9381 106.541C53.9895 106.541 54.041 106.541 54.0924 106.516C54.1696 106.516 54.2468 106.49 54.3239 106.464C54.6327 106.413 54.9156 106.361 55.2243 106.31C55.3015 106.31 55.3787 106.31 55.4559 106.284C55.7646 106.233 56.0475 106.181 56.3305 106.156C56.4077 106.156 56.4848 106.156 56.562 106.13C56.8707 106.078 57.1537 106.053 57.411 106.027C57.4882 106.027 57.5653 106.027 57.6425 106.001C57.9769 105.976 58.2857 105.95 58.5429 105.924C58.5429 105.924 58.5429 105.924 58.5686 105.924C58.6458 105.924 58.6972 105.924 58.7744 105.924C59.0317 105.924 59.2889 105.924 59.5461 105.976C59.6233 105.976 59.7005 105.976 59.7777 106.001C60.1121 106.053 60.4208 106.13 60.7038 106.207C60.781 106.207 60.8839 106.258 60.9611 106.284C61.3984 106.413 61.7842 106.541 61.9643 106.644C61.99 106.644 62.0158 106.67 62.0672 106.696C62.1444 106.747 62.2473 106.824 62.3245 106.927C62.6589 107.313 62.9418 107.956 63.0705 108.471V108.394Z" fill="white"/>
</g>
<path d="M64.1236 116.444H63.9178L63.8406 116.65C63.7377 116.908 63.4033 117.01 63.1718 116.856L62.9917 116.753L62.8116 116.856C62.5544 117.01 62.2457 116.882 62.1428 116.625L62.0656 116.444H61.8597C61.5768 116.419 61.371 116.136 61.4481 115.853L61.4996 115.673L61.3453 115.544C61.1138 115.364 61.1395 115.03 61.3453 114.849L61.4996 114.721L61.4481 114.541C61.371 114.258 61.5768 114.001 61.8597 113.975H62.0656L62.1428 113.769C62.2457 113.512 62.5801 113.409 62.8116 113.563L62.9917 113.666L63.1718 113.563C63.429 113.409 63.7377 113.538 63.8406 113.795L63.9178 113.975H64.1236C64.4065 114.001 64.6124 114.284 64.5352 114.567L64.4838 114.747L64.6381 114.875C64.8696 115.055 64.8439 115.39 64.6381 115.57L64.4838 115.698L64.5352 115.878C64.6124 116.161 64.4065 116.419 64.1236 116.444Z" fill="#EBEAC7"/>
<path d="M64.0721 116.213H63.892L63.8148 116.393C63.7119 116.624 63.4289 116.701 63.2231 116.573L63.0687 116.47L62.9144 116.573C62.7086 116.701 62.4257 116.599 62.3228 116.367L62.2713 116.213H62.0912C61.8339 116.187 61.6539 115.93 61.7311 115.698L61.7825 115.544L61.6539 115.441C61.4481 115.287 61.4738 114.978 61.6539 114.824L61.7825 114.721L61.7311 114.541C61.6796 114.283 61.8597 114.052 62.1169 114.052H62.297L62.3742 113.872C62.4771 113.64 62.7601 113.563 62.9659 113.692L63.1202 113.795L63.2746 113.692C63.4804 113.563 63.7633 113.666 63.8662 113.897L63.9177 114.052H64.0978C64.3551 114.077 64.5351 114.335 64.4579 114.566L64.4065 114.721L64.5351 114.824C64.7409 114.978 64.7152 115.287 64.5351 115.441L64.4065 115.544L64.4579 115.724C64.5094 115.981 64.3293 116.213 64.0721 116.213Z" fill="#F0F0D6"/>
<path d="M62.58 114.386C62.58 114.386 63.0431 113.949 63.1975 114.154C63.3518 114.36 63.2746 114.386 63.5062 114.437C63.712 114.489 63.892 114.437 63.8663 114.617C63.8406 114.798 63.4804 114.9 63.7377 115.029C63.9949 115.158 64.0464 115.029 64.0464 115.312C64.0464 115.595 63.5062 115.724 63.5062 115.724C63.5062 115.724 63.429 116.264 63.146 115.981C62.863 115.698 62.8373 115.569 63.0431 115.595C63.2489 115.595 63.6605 115.646 63.5062 115.389C63.3518 115.132 63.146 115.132 63.2746 114.978C63.4033 114.823 63.7891 114.695 63.3261 114.643C62.8373 114.592 62.6315 114.746 62.7601 114.566C62.8887 114.386 62.5286 114.617 62.58 114.412V114.386Z" fill="#F9F8ED"/>
<path d="M61.9888 114.798C62.1174 114.695 62.2975 114.798 62.3232 115.055C62.3489 115.287 62.4518 115.338 62.2717 115.57C62.1688 115.724 62.4261 115.621 62.529 115.724C62.6319 115.827 62.529 116.29 62.3746 116.033C62.246 115.827 61.9887 116.033 62.0402 115.75C62.0916 115.492 61.963 115.57 62.0402 115.415C62.1174 115.261 62.1688 115.261 62.1173 115.132C62.0659 115.004 61.9888 115.132 61.9116 115.081C61.6801 114.901 61.9373 114.746 61.9373 114.746L61.9888 114.798Z" fill="#F9F8ED"/>
<path d="M62.6062 113.794C62.6062 113.794 62.8377 113.743 62.8892 113.794C62.9406 113.82 62.8892 113.897 62.8892 113.897C62.8892 113.897 62.8377 113.794 62.7348 113.897C62.6319 114 62.5805 114.026 62.4776 114.026C62.4004 114.026 62.4775 113.846 62.6062 113.794Z" fill="#F9F8ED"/>
<path d="M64.0208 116.058C64.1752 116.058 64.2524 115.904 64.3038 115.775C64.3553 115.647 64.2524 115.544 64.3038 115.492C64.3553 115.441 64.4067 115.389 64.3296 115.286C64.2524 115.184 64.1752 115.286 64.2009 115.364C64.2266 115.441 64.2524 115.415 64.2009 115.518C64.1495 115.621 64.2009 115.595 64.1495 115.672C64.098 115.75 64.1237 115.775 64.0466 115.801C63.9694 115.827 63.8665 115.801 63.8922 115.878C63.9179 115.955 63.9179 116.032 64.0208 116.058Z" fill="#F9F8ED"/>
<path d="M49.8994 119.814H49.6937L49.6165 120.02C49.5136 120.277 49.1792 120.38 48.9476 120.226L48.7675 120.123L48.5874 120.226C48.3302 120.38 48.0215 120.251 47.9186 119.994L47.8415 119.814H47.6356C47.3526 119.788 47.1468 119.505 47.224 119.222L47.2755 119.042L47.1212 118.914C46.8896 118.734 46.9154 118.399 47.1212 118.219L47.2755 118.091L47.224 117.91C47.1468 117.627 47.3526 117.37 47.6356 117.344H47.8415L47.9186 117.139C48.0215 116.881 48.3559 116.779 48.5874 116.933L48.7675 117.036L48.9476 116.933C49.2049 116.779 49.5136 116.907 49.6165 117.164L49.6937 117.344H49.8994C50.1824 117.37 50.3882 117.653 50.3111 117.936L50.2596 118.116L50.414 118.245C50.6455 118.425 50.6198 118.759 50.414 118.939L50.2596 119.068L50.3111 119.248C50.3882 119.531 50.1824 119.788 49.8994 119.814Z" fill="#EBEAC7"/>
<path d="M49.8487 119.583H49.6686L49.5914 119.763C49.4885 119.994 49.2055 120.072 48.9997 119.943L48.8454 119.84L48.691 119.943C48.4852 120.072 48.2023 119.969 48.0994 119.737L48.0479 119.583H47.8678C47.6105 119.557 47.4305 119.3 47.5077 119.068L47.5591 118.914L47.4305 118.811C47.2247 118.657 47.2504 118.348 47.4305 118.194L47.5591 118.091L47.5077 117.911C47.4562 117.653 47.6363 117.422 47.8935 117.422H48.0736L48.1508 117.242C48.2537 117.01 48.5367 116.933 48.7425 117.062L48.8969 117.165L49.0512 117.062C49.257 116.933 49.5399 117.036 49.6428 117.268L49.6943 117.422H49.8743C50.1316 117.448 50.3117 117.705 50.2345 117.936L50.1831 118.091L50.3117 118.194C50.5175 118.348 50.4918 118.657 50.3117 118.811L50.1831 118.914L50.2345 119.094C50.286 119.351 50.1059 119.583 49.8487 119.583Z" fill="#F0F0D6"/>
<path d="M48.3815 117.756C48.3815 117.756 48.8446 117.319 48.9989 117.525C49.1533 117.73 49.0762 117.756 49.3077 117.808C49.5135 117.859 49.6935 117.808 49.6678 117.988C49.6421 118.168 49.2819 118.271 49.5392 118.399C49.7964 118.528 49.8479 118.399 49.8479 118.682C49.8479 118.965 49.3077 119.094 49.3077 119.094C49.3077 119.094 49.2305 119.634 48.9475 119.351C48.6645 119.068 48.6388 118.939 48.8446 118.965C49.0504 118.965 49.462 119.017 49.3077 118.759C49.1533 118.502 48.9475 118.502 49.0761 118.348C49.2047 118.193 49.5906 118.065 49.1276 118.013C48.6388 117.962 48.433 118.116 48.5616 117.936C48.6903 117.756 48.3301 117.988 48.3815 117.782V117.756Z" fill="#F9F8ED"/>
<path d="M47.7646 118.168C47.8933 118.065 48.0733 118.168 48.0991 118.425C48.1248 118.682 48.2276 118.708 48.0476 118.94C47.9447 119.094 48.2019 118.991 48.3048 119.094C48.4077 119.197 48.3048 119.66 48.1505 119.403C48.0219 119.197 47.7646 119.403 47.8161 119.12C47.8675 118.862 47.7389 118.94 47.8161 118.785C47.8932 118.631 47.9447 118.631 47.8932 118.502C47.8418 118.374 47.7646 118.502 47.6875 118.451C47.4559 118.271 47.7131 118.116 47.7131 118.116L47.7646 118.168Z" fill="#F9F8ED"/>
<path d="M48.382 117.19C48.382 117.19 48.6136 117.139 48.6651 117.19C48.7165 117.216 48.6651 117.293 48.6651 117.293C48.6651 117.293 48.6135 117.19 48.5106 117.293C48.4077 117.396 48.3564 117.422 48.2535 117.422C48.1763 117.422 48.2534 117.242 48.382 117.19Z" fill="#F9F8ED"/>
<path d="M49.7967 119.428C49.951 119.428 50.0283 119.274 50.0797 119.145C50.1312 119.017 50.0283 118.914 50.0797 118.862C50.1312 118.811 50.1826 118.759 50.1055 118.657C50.0283 118.554 49.9511 118.657 49.9768 118.734C50.0025 118.811 50.0282 118.785 49.9768 118.888C49.9253 118.991 49.9768 118.965 49.9254 119.042C49.8739 119.12 49.8996 119.145 49.8224 119.171C49.7453 119.197 49.6424 119.171 49.6681 119.248C49.6938 119.325 49.6938 119.403 49.7967 119.428Z" fill="#F9F8ED"/>
<g style="mix-blend-mode:multiply" opacity="0.57">
<path d="M61.4235 113.229C61.3978 113.409 61.3464 113.589 61.2692 113.743C61.0119 113.563 60.5746 113.306 60.163 113.28C59.4684 113.255 55.8926 112.637 55.5839 112.509C55.3009 112.38 55.0695 111.583 55.1724 110.965C55.2753 110.348 55.4553 110.116 55.4553 110.116C55.4553 110.116 57.5391 111.788 59.0311 112.174C60.1888 112.483 61.1148 113.023 61.4235 113.229Z" fill="#FCF0AA"/>
</g>
<path d="M64.6132 111.763C64.6132 111.763 63.2498 111.531 62.4523 111.763C62.4266 111.763 62.3751 111.763 62.3494 111.763C61.7834 111.917 61.0889 112.046 60.3428 112.174H60.24C60.0342 112.226 59.8541 112.252 59.6483 112.277C59.2881 112.329 58.9023 112.38 58.5421 112.432C58.4649 112.432 58.3878 112.432 58.2848 112.432H58.2333C57.6931 112.483 57.1786 112.535 56.7156 112.535C56.5612 112.535 56.4069 112.535 56.2525 112.535C55.738 112.483 55.4037 112.303 55.3265 111.866C55.2493 111.454 55.1978 110.94 55.275 110.528C55.3522 110.142 55.5066 109.859 55.8153 109.756C55.9182 109.705 56.0468 109.705 56.2011 109.705C56.3812 109.705 56.7156 109.756 57.1529 109.808C57.2301 109.808 57.3073 109.808 57.4102 109.833C57.9504 109.911 58.6193 109.988 59.3138 110.116C59.391 110.116 59.4424 110.116 59.5196 110.116C60.0856 110.219 60.6772 110.297 61.2175 110.425C61.2689 110.425 61.3204 110.425 61.3461 110.425C61.9893 110.554 62.5809 110.682 63.0183 110.811C63.4299 110.94 64.536 111.608 64.536 111.711L64.6132 111.763Z" fill="#CDBC59"/>
<path d="M56.7157 112.56C56.5613 112.56 56.407 112.56 56.2526 112.56C56.124 111.994 56.2012 111.146 56.2012 111.146C56.2527 111.892 56.5099 112.329 56.69 112.56H56.7157Z" fill="#BFA829"/>
<path d="M57.4614 109.859C57.3328 110.014 57.2042 110.219 57.1013 110.605C57.1013 110.605 57.1013 110.194 57.2042 109.833C57.2813 109.833 57.3585 109.833 57.4614 109.859Z" fill="#BFA829"/>
<path d="M58.5412 112.432C58.5412 112.432 58.3869 112.432 58.284 112.432C58.1296 112.123 58.1296 111.66 58.1296 111.66C58.2068 112.02 58.3612 112.252 58.5412 112.406V112.432Z" fill="#BFA829"/>
<path d="M59.5705 110.142C59.3904 110.373 59.1074 110.914 59.1074 110.914C59.1074 110.734 59.2617 110.373 59.3646 110.116C59.4418 110.116 59.4933 110.116 59.5705 110.116V110.142Z" fill="#BFA829"/>
<path d="M60.3416 112.174H60.2388C60.0844 111.84 60.2388 111.403 60.2388 111.403C60.2388 111.788 60.2644 112.02 60.3416 112.174Z" fill="#BFA829"/>
<path d="M61.3192 111.145C61.3192 111.145 61.3193 110.76 61.2678 110.451C61.3193 110.451 61.3707 110.451 61.3964 110.451C61.3964 110.657 61.3964 110.914 61.2935 111.12L61.3192 111.145Z" fill="#BFA829"/>
<path d="M62.4509 111.737C62.4509 111.737 62.3737 111.737 62.348 111.737C62.3222 111.48 62.2451 111.12 62.2451 111.12C62.348 111.248 62.4252 111.506 62.4766 111.712L62.4509 111.737Z" fill="#BFA829"/>
<g style="mix-blend-mode:soft-light" opacity="0.33">
<path d="M63.0693 110.863C62.8378 111.017 62.5291 111.146 62.1175 111.146C61.2686 111.146 55.9178 110.966 55.6348 110.528C55.4805 110.297 55.6349 110.014 55.8149 109.782C55.9178 109.731 56.0464 109.731 56.2008 109.731C56.3809 109.731 56.7153 109.782 57.1526 109.834C57.2298 109.834 57.307 109.834 57.4099 109.859C57.9501 109.937 58.6189 110.014 59.3135 110.142C59.3907 110.142 59.4421 110.142 59.5193 110.142C60.0852 110.245 60.6769 110.322 61.2171 110.451C61.2686 110.451 61.3201 110.451 61.3458 110.451C61.9889 110.58 62.5806 110.708 63.0179 110.837L63.0693 110.863Z" fill="#F7F4E3"/>
</g>
<g style="mix-blend-mode:multiply" opacity="0.51">
<path d="M59.6483 112.278C59.2881 112.329 58.9023 112.381 58.5421 112.432C58.4649 112.432 58.3878 112.432 58.2848 112.432H58.2333C57.6931 112.483 57.1786 112.535 56.7156 112.535C56.5612 112.535 56.4069 112.535 56.2525 112.535C55.738 112.483 55.4037 112.303 55.3265 111.866C55.2493 111.454 55.1978 110.94 55.275 110.528C55.275 110.528 55.3264 111.763 55.5837 112.046C55.8409 112.329 59.108 112.278 59.6225 112.252L59.6483 112.278Z" fill="#DCCF8A"/>
</g>
<g style="mix-blend-mode:soft-light" opacity="0.38">
<path d="M80.2751 82.0287L79.4006 84.3179L78.0374 87.9446L77.5744 89.1792L51.1331 159.707L50.6701 160.915L49.3069 164.542L48.4323 166.857C47.4292 166.703 46.4261 166.548 45.4487 166.343C34.8259 164.131 25.5663 158.266 18.9817 150.138C18.4415 149.47 17.9014 148.775 17.387 148.055L18.39 145.303L20.0362 140.827L20.6021 139.258L40.6646 84.7037L41.2304 83.1347L42.8766 78.6592L43.8797 75.9071C45.603 75.4698 47.4035 75.1612 49.204 74.9297C51.1074 74.6982 53.0365 74.5696 54.9913 74.5696C63.3763 74.5696 71.247 76.8073 78.0631 80.6912C78.809 81.1285 79.5292 81.5657 80.2494 82.0287H80.2751Z" fill="#FFFB8C"/>
</g>
<path d="M86.1401 89.8482C84.0824 87.7905 81.8447 85.9643 79.4269 84.3439C72.4565 79.6884 64.0713 76.9619 55.0432 76.9619C50.8507 76.9619 46.7868 77.5535 42.9286 78.6595C41.231 79.1482 39.5591 79.7398 37.9387 80.4086C32.6658 82.6206 27.9332 85.8614 23.9464 89.8225C15.9985 97.7703 11.0601 108.779 11.0601 120.919C11.0601 129.922 13.7608 138.307 18.4163 145.277C20.0368 147.695 21.8887 149.959 23.9464 152.016C30.6339 158.704 39.4819 163.256 49.3331 164.542C51.2108 164.8 53.1141 164.902 55.0432 164.902C67.1836 164.902 78.1922 159.964 86.1401 152.016C94.0879 144.068 99.0264 133.06 99.0264 120.919C99.0264 108.779 94.1136 97.7703 86.1401 89.8225V89.8482ZM94.8081 127.067C94.7566 127.401 94.7052 127.735 94.6538 128.07C94.5252 128.739 94.3965 129.382 94.2422 130.025C94.1651 130.359 94.0879 130.668 94.0107 131.002C93.7792 131.954 93.4963 132.905 93.162 133.857C92.7504 135.092 92.2617 136.326 91.7216 137.509C91.5415 137.895 91.3615 138.307 91.1557 138.693C90.7699 139.464 90.3584 140.236 89.9468 140.982C89.6382 141.548 89.278 142.088 88.9437 142.628C88.5836 143.168 88.2235 143.708 87.8634 144.248C87.5033 144.763 87.1175 145.277 86.7059 145.792C86.3201 146.306 85.9086 146.795 85.497 147.284C84.854 148.004 84.211 148.724 83.5423 149.393C82.8478 150.087 82.1533 150.73 81.4331 151.373C80.3271 152.325 79.1697 153.225 77.9865 154.048C76.5461 155.051 75.0543 155.952 73.4596 156.749C73.2024 156.878 72.9194 157.006 72.6622 157.16C67.3637 159.733 61.4221 161.173 55.1204 161.173C53.6543 161.173 52.1882 161.096 50.7735 160.941C46.0665 160.427 41.6168 159.115 37.5529 157.135C37.0899 156.903 36.6526 156.697 36.2153 156.44C35.7781 156.209 35.3409 155.952 34.9036 155.72C34.4663 155.463 34.0548 155.206 33.6175 154.948C31.92 153.868 30.3253 152.685 28.8077 151.373C28.0875 150.73 27.3673 150.087 26.6986 149.393C26.3642 149.058 26.0298 148.698 25.6954 148.364C25.361 148.004 25.0524 147.644 24.718 147.284C24.3064 146.795 23.8949 146.306 23.5091 145.792C23.1233 145.277 22.7375 144.763 22.3517 144.248C21.9659 143.708 21.6057 143.194 21.2714 142.628C20.937 142.088 20.5769 141.522 20.2683 140.982C20.2425 140.93 20.2168 140.879 20.1911 140.828C19.7796 140.107 19.4195 139.413 19.0594 138.667C18.8536 138.281 18.6736 137.895 18.4935 137.484C17.9534 136.301 17.4647 135.066 17.0531 133.831C15.6899 129.793 14.944 125.446 14.944 120.945C14.944 116.444 15.6899 112.097 17.0531 108.059C17.4647 106.824 17.9534 105.59 18.4935 104.406C18.6736 104.021 18.8536 103.609 19.0594 103.223C19.4452 102.452 19.8567 101.68 20.2683 100.934C20.5769 100.368 20.937 99.828 21.2714 99.2879C21.6315 98.7477 21.9916 98.2076 22.3517 97.6674C22.7118 97.153 23.0975 96.6386 23.5091 96.1242C23.8949 95.6097 24.3064 95.121 24.718 94.6323C25.0266 94.2722 25.361 93.9122 25.6954 93.5521C26.0298 93.192 26.3642 92.8576 26.6986 92.5232C27.393 91.8287 28.0875 91.1857 28.8077 90.5427C30.8654 88.7679 33.1288 87.1732 35.5209 85.8357C36.3182 85.3985 37.1414 84.9612 37.9644 84.5754C38.2474 84.4468 38.5303 84.3182 38.8132 84.1896C39.3791 83.9323 39.9449 83.7009 40.5108 83.4694C40.7937 83.3665 41.0767 83.2379 41.3853 83.135C41.7454 83.0064 42.1055 82.8778 42.4656 82.7492C46.4524 81.4117 50.7221 80.7172 55.1461 80.7172C63.7113 80.7172 71.6333 83.3922 78.1665 87.9448C79.0153 88.5364 79.8641 89.1795 80.6615 89.8482C80.9187 90.0797 81.2017 90.2855 81.4589 90.517C82.1791 91.16 82.8992 91.803 83.568 92.4975C84.2624 93.192 84.9055 93.8864 85.5228 94.6066C85.9343 95.0953 86.3459 95.584 86.7317 96.0984C87.1175 96.6129 87.5034 97.1273 87.8892 97.6417C88.275 98.1819 88.635 98.6963 88.9694 99.2621C89.3038 99.8023 89.6639 100.368 89.9726 100.908C90.4098 101.654 90.7957 102.426 91.1815 103.197C91.3872 103.583 91.5673 103.969 91.7473 104.381C92.2875 105.564 92.7762 106.798 93.1877 108.033C93.4964 108.959 93.7793 109.911 94.0365 110.888C94.1136 111.222 94.1908 111.531 94.268 111.866C94.4223 112.509 94.5509 113.177 94.6795 113.82C94.731 114.155 94.7824 114.489 94.8338 114.823C94.9367 115.492 95.0139 116.161 95.0911 116.83C95.2197 118.193 95.2968 119.556 95.2968 120.945C95.2968 122.334 95.2197 123.697 95.0911 125.06C95.0139 125.729 94.9367 126.398 94.8338 127.067H94.8081Z" fill="#FAE543"/>
<g style="mix-blend-mode:multiply">
<path d="M94.5769 96.6901L69.4988 165.005C64.9461 166.497 60.0848 167.32 55.0178 167.32C54.5291 167.32 54.0404 167.32 53.5774 167.32L84.8286 85.45C88.6611 88.6394 91.9534 92.4461 94.5512 96.7158L94.5769 96.6901Z" fill="#F6F39E"/>
</g>
<g style="mix-blend-mode:multiply">
<path d="M43.9318 75.8815L17.439 148.055C17.439 148.055 17.439 148.029 17.4133 148.004C13.5551 142.654 10.803 136.429 9.49121 129.69L26.9559 83.958C31.9201 80.1769 37.6815 77.3733 43.9318 75.8301V75.8815Z" fill="#F6F39E"/>
</g>
<g style="mix-blend-mode:multiply">
<path d="M95.0651 116.804C94.9879 116.135 94.9107 115.466 94.8079 114.797C94.7564 114.463 94.705 114.129 94.6535 113.794C94.5249 113.126 94.3963 112.482 94.242 111.839C94.1648 111.505 94.0877 111.196 94.0105 110.862C93.7533 109.91 93.4704 108.959 93.1617 108.007C92.7245 106.772 92.2615 105.538 91.7214 104.355C91.5413 103.969 91.3613 103.557 91.1555 103.171C90.7697 102.4 90.3581 101.628 89.9466 100.882C89.6379 100.316 89.2778 99.7762 88.9434 99.2361C88.5833 98.696 88.2233 98.1558 87.8632 97.6157C87.5031 97.1012 87.1173 96.5868 86.7057 96.0724C86.3199 95.558 85.9084 95.0693 85.4968 94.5806C84.8538 93.8604 84.2108 93.1402 83.5163 92.4714C82.8218 91.777 82.1274 91.1339 81.4072 90.4909C81.15 90.2594 80.8927 90.0279 80.6098 89.8222C79.8125 89.1534 78.9637 88.5361 78.1149 87.9188C71.6074 83.3662 63.6596 80.6912 55.0945 80.6912C50.6705 80.6912 46.4007 81.4113 42.4139 82.7231C42.0538 82.8517 41.6938 82.9546 41.3337 83.0832C41.0507 83.1861 40.7678 83.3147 40.4592 83.4176C39.8933 83.6491 39.3017 83.8806 38.7615 84.1378C38.4786 84.2664 38.1956 84.395 37.9127 84.5236C37.0896 84.9094 36.2666 85.3467 35.4692 85.7839C33.0772 87.1214 30.8394 88.7162 28.756 90.4909C28.0358 91.1339 27.3156 91.777 26.6468 92.4714C26.3125 92.8058 25.9781 93.1659 25.6438 93.5003C25.3094 93.8604 25.0007 94.2205 24.6663 94.5806C24.2548 95.0693 23.8433 95.558 23.4574 96.0724C23.0716 96.5868 22.6859 97.1012 22.3 97.6157C21.9142 98.1558 21.5541 98.6702 21.2197 99.2361C20.8853 99.7762 20.5252 100.342 20.2166 100.882C19.7793 101.628 19.3935 102.4 19.0077 103.171C18.8019 103.557 18.6219 103.943 18.4419 104.355C17.9017 105.538 17.4387 106.772 17.0014 108.007C15.6382 112.045 14.8923 116.392 14.8923 120.893C14.8923 125.394 15.6382 129.741 17.0014 133.78C17.4387 135.014 17.9017 136.249 18.4419 137.432C18.6219 137.818 18.8019 138.229 19.0077 138.615C19.3677 139.335 19.7536 140.056 20.1394 140.75C20.1394 140.75 20.1908 140.853 20.2166 140.904C20.5252 141.47 20.8853 142.01 21.2197 142.551C21.5798 143.091 21.9399 143.631 22.3 144.171C22.6601 144.685 23.0459 145.2 23.4574 145.714C23.8433 146.229 24.2548 146.717 24.6663 147.206C24.975 147.566 25.3094 147.926 25.6438 148.286C25.9781 148.646 26.3125 148.981 26.6468 149.315C27.3413 150.01 28.0358 150.653 28.756 151.296C30.2735 152.607 31.8682 153.791 33.5658 154.871C34.0031 155.128 34.4146 155.411 34.8519 155.643C35.2891 155.9 35.7264 156.131 36.1637 156.363C36.6009 156.594 37.0639 156.826 37.5012 157.057C41.5651 159.038 46.0406 160.35 50.7219 160.864C52.1622 161.018 53.6026 161.095 55.0687 161.095C61.3447 161.095 67.312 159.655 72.6106 157.083C72.8678 156.954 73.1507 156.826 73.4079 156.671C74.9769 155.874 76.4944 154.974 77.9348 153.971C79.1437 153.148 80.3011 152.247 81.3814 151.296C82.1016 150.653 82.8218 150.01 83.4906 149.315C84.185 148.621 84.8281 147.926 85.4711 147.206C85.8827 146.717 86.2942 146.229 86.68 145.714C87.0659 145.2 87.4516 144.685 87.8374 144.171C88.2233 143.631 88.5834 143.116 88.9178 142.551C89.2521 142.01 89.6122 141.444 89.9209 140.904C90.3581 140.158 90.7439 139.387 91.1298 138.615C91.3355 138.229 91.5156 137.844 91.6956 137.432C92.2358 136.249 92.6987 135.014 93.136 133.78C93.4447 132.854 93.7276 131.902 93.9848 130.925C94.062 130.59 94.1392 130.282 94.2163 129.947C94.3706 129.304 94.4993 128.635 94.6279 127.992C94.6793 127.658 94.7307 127.324 94.7822 126.989C94.8851 126.32 94.9623 125.652 95.0394 124.983C95.168 123.62 95.2451 122.257 95.2451 120.868C95.2451 119.479 95.168 118.115 95.0394 116.752L95.0651 116.804ZM82.5903 148.466C75.5427 155.514 65.7944 159.887 55.043 159.887C53.7312 159.887 52.4194 159.835 51.1591 159.681C41.9509 158.755 33.6945 154.639 27.4957 148.466C24.795 145.766 22.48 142.653 20.6538 139.232C17.7474 133.78 16.0755 127.529 16.0755 120.919C16.0755 110.168 20.4224 100.419 27.4957 93.3717C31.2252 89.6421 35.7007 86.6585 40.7163 84.6779C45.1661 82.9032 50.0017 81.9515 55.0687 81.9515C63.4796 81.9515 71.2473 84.6008 77.6262 89.1534C79.4009 90.4137 81.0728 91.8284 82.6161 93.3717C89.6637 100.419 94.0363 110.168 94.0363 120.919C94.0363 131.67 89.6894 141.419 82.6161 148.466H82.5903Z" fill="#F6F39E"/>
</g>
<path d="M108.955 0.106934L65.1001 73.3607H44.8318L88.712 0.106934H108.955Z" fill="#AE00FF"/>
<path d="M95.2453 0.106934L51.365 73.3607H49.8989L93.7792 0.106934H95.2453Z" fill="#89F6FF"/>
<path d="M104.325 0.106934L60.4705 73.3607H59.0044L102.885 0.106934H104.325Z" fill="#89F6FF"/>
</svg>
