<svg width="109" height="168" viewBox="0 0 109 168" fill="none" xmlns="http://www.w3.org/2000/svg">
<path d="M0.977234 0.107182H21.2435L65.1202 73.38H44.854L0.977234 0.107182Z" fill="#6200D1"/>
<path d="M64.6857 79.6004V78.664H45.4228C44.687 78.664 44.0182 78.363 43.5165 77.8613C43.0149 77.3597 42.7139 76.6909 42.7139 75.9551C42.7139 75.2194 43.0149 74.5505 43.5165 74.0489C44.0182 73.5473 44.687 73.2463 45.4228 73.2463H64.6857C65.4214 73.2463 66.0903 73.5473 66.5919 74.0489C67.0936 74.5505 67.3946 75.2194 67.3946 75.9551C67.3946 76.6909 67.0936 77.3597 66.5919 77.8613C66.0903 78.363 65.4214 78.664 64.6857 78.664V80.5368C67.2274 80.5368 69.2674 78.4968 69.2674 75.9551C69.2674 73.4135 67.2274 71.3735 64.6857 71.3735H45.4228C42.9146 71.3735 40.8411 73.4135 40.8411 75.9551C40.8411 78.4633 42.8811 80.5368 45.4228 80.5368H64.6857V79.6004Z" fill="#E0C64C"/>
<path d="M101.439 120.935C101.439 146.552 80.671 167.32 55.0539 167.32C52.8133 167.32 50.6395 167.153 48.4992 166.852C47.4959 166.718 46.4926 166.518 45.4893 166.317C34.888 164.11 25.591 158.257 19.0362 150.131C18.5011 149.462 17.9661 148.76 17.431 148.057C12.3143 140.967 9.13721 132.339 8.7359 123.009C8.7359 122.674 8.7359 122.34 8.7359 122.005C8.7359 121.638 8.7359 121.303 8.7359 120.935C8.7359 120.534 8.7359 120.133 8.7359 119.731C9.27098 98.4618 24.1195 80.7707 44.0179 75.8881C45.7569 75.4533 47.5293 75.1523 49.3352 74.9182C51.2415 74.6841 53.1477 74.5504 55.1208 74.5504C63.5149 74.5504 71.3739 76.791 78.1962 80.6704C78.932 81.1051 79.6677 81.5399 80.37 82.0081C93.1116 90.2684 101.506 104.615 101.506 120.902L101.439 120.935Z" fill="#E0C64C"/>
<g style="mix-blend-mode:luminosity">
<path d="M26.0588 124.347C26.0588 124.347 27.0286 125.116 27.0286 125.384C27.0286 125.651 27.1289 125.551 26.7611 126.688C26.3932 127.825 26.2594 128.828 27.1289 129.229L26.9283 131.203H27.4968L27.5637 131.704H28.4332L28.5001 133.343H29.6371L29.8043 134.547L32.0784 135.55C32.0784 135.55 33.4496 135.55 31.0752 135.617C31.0752 135.617 32.346 137.189 33.6502 136.687C34.9545 136.185 35.5565 137.022 33.483 137.523C33.483 137.523 34.7204 139.262 37.7302 138.259C37.7302 138.259 37.6634 138.928 37.9978 139.931C37.9978 139.931 37.9978 138.995 40.506 139.63C43.0142 140.266 43.6496 140.433 44.4522 140.332C44.4522 140.332 41.7434 140.399 42.0443 141.837C42.0443 141.837 43.9506 140.633 45.8234 141.403C47.6961 142.172 51.3414 140.7 51.3414 140.7C51.3414 140.7 50.8397 141.436 46.9938 142.406C46.9938 142.406 48.2647 144.045 49.8365 143.978C51.843 143.911 53.7827 142.573 54.3178 141.971C54.8529 141.369 56.9932 141.202 56.8929 141.737C56.7926 142.272 55.923 142.306 55.923 142.306C55.923 142.306 59.2004 143.242 59.9696 142.406C60.7388 141.57 62.6785 140.867 63.0798 141.235C63.4811 141.603 62.8122 141.469 62.1768 141.503C61.5414 141.536 64.0496 142.74 65.0863 141.202C66.123 139.664 66.2234 140.266 66.6581 140.834C67.0929 141.403 68.5309 141.403 68.5309 141.403C68.5309 141.403 68.3637 140.7 68.3971 140.5C68.3971 139.597 71.2063 140.834 70.8385 140.132C70.4706 139.429 72.8116 140.533 74.5171 139.965C76.2227 139.396 75.9552 137.958 75.9552 137.958C75.9552 137.958 75.3866 139.63 73.4135 139.296C71.4404 138.961 71.8752 138.66 72.1762 138.259C72.4771 137.858 73.4804 138.092 73.982 137.256C74.4837 136.42 74.885 135.316 75.6542 135.517C76.4234 135.717 74.9853 136.553 74.9853 136.553C74.9853 136.553 76.7912 136.252 77.1591 135.249C77.4601 134.48 76.9585 132.942 77.6607 132.674C78.363 132.406 79.266 132.306 79.2325 132.741C79.1991 133.176 80.1689 130.935 79.1657 130.4C78.1624 129.865 79.3663 129.263 80.0352 129.43C80.704 129.597 81.8745 129.698 81.9749 128.159C81.9749 128.159 81.4732 128.828 80.3027 128.46C79.1322 128.092 80.0352 127.156 80.4699 125.551C80.8378 124.28 80.3027 124.046 80.5368 123.043C80.7709 122.039 81.607 121.839 81.1722 120.367C80.7375 118.896 77.5604 118.795 77.4267 118.795C77.2929 118.795 77.527 118.461 78.3965 118.361C78.6306 118.361 76.3899 117.056 75.9552 117.023C75.5204 116.989 75.2194 115.886 76.4902 116.789C77.0253 117.157 77.6607 117.023 77.6607 117.023C77.6607 117.023 76.5906 115.518 75.2194 115.184C70.4371 114.013 71.9086 113.01 74.4837 113.077C74.4837 113.077 74.1493 112.274 70.203 112.307C65.1866 112.341 26.0588 124.38 26.0588 124.38V124.347Z" fill="#B1925E"/>
<path d="M81.9749 128.126C81.8745 129.597 79.567 129.196 78.9316 129.062C78.2627 128.928 77.7276 130.065 78.6975 130.567C79.6673 131.069 79.1991 133.176 79.2325 132.774C79.2325 132.373 78.1624 132.072 77.4935 132.34C76.7912 132.574 76.8916 134.279 76.8916 135.082C76.8916 135.884 75.0188 136.587 75.0188 136.587C75.0188 136.587 75.487 135.115 74.7847 134.948C74.0489 134.781 74.3165 136.219 73.8148 137.022C73.3466 137.824 71.7414 137.222 71.4404 137.623C71.1394 137.991 71.7748 138.526 73.6811 138.861C75.5539 139.195 75.9886 138.092 75.9886 138.092C75.9886 138.092 76.0555 139.262 74.4168 139.797C72.7781 140.332 69.8686 138.827 70.203 139.53C70.5375 140.199 71.708 140.065 70.9722 140.5C70.2365 140.901 68.0627 139.363 68.0627 140.232C68.0627 141.102 68.5644 141.57 68.5644 141.57C68.5644 141.57 66.9591 140.968 66.5243 140.399C66.0896 139.831 66.0561 139.195 65.0529 140.667C64.0496 142.138 61.6083 141.67 62.2102 141.637C62.7788 141.637 63.0798 140.834 62.6784 140.5C62.3106 140.165 60.4378 140.801 59.7021 141.637C58.9329 142.473 55.8896 142.473 55.8896 142.473C55.8896 142.473 56.7257 142.305 56.826 141.804C56.9263 141.302 54.786 140.667 54.2843 141.269C53.7827 141.837 51.9099 143.108 50.0037 143.175C48.5322 143.242 46.9938 142.573 46.9938 142.573C50.5388 141.703 51.3748 140.165 51.4417 140.031C51.2745 140.098 47.8968 141.436 46.1578 140.7C44.3853 139.931 42.0443 142.004 42.0443 142.004C41.7768 140.633 44.8535 139.663 44.8535 139.663C44.1178 139.73 43.4824 139.597 41.0745 138.995C38.6666 138.393 37.9978 140.098 37.9978 140.098C37.6634 139.128 38.3991 137.69 38.3991 137.69C35.523 138.66 33.4496 137.69 33.4496 137.69C35.4227 137.222 35.7237 135.717 34.4863 136.185C33.2489 136.654 31.0752 135.784 31.0752 135.784C33.3493 135.717 33.0148 135.082 33.0148 135.082L30.2725 134.614L30.6739 132.975H29.5702L29.5034 131.403H28.6673L28.6004 130.935H27.2293L27.2961 129.163C26.4601 128.761 26.6942 127.858 27.0286 126.755C27.363 125.651 27.363 125.317 27.363 125.317L26.0588 124.481L27.6306 123.444C27.6306 123.444 28.7342 122.206 27.6306 120.434C26.527 118.662 28.4667 116.454 28.4667 116.454C27.5637 119.598 29.3696 117.825 29.3696 117.825C31.9781 110.134 45.8234 110.435 45.8234 110.435C45.8234 110.435 46.6929 109.833 48.2312 109.331C49.7696 108.829 59.0332 110 59.7021 110.435C60.4043 110.869 64.5178 112.174 69.3001 111.94C74.1158 111.739 74.4837 113.177 74.4837 113.177C73.3132 112.976 72.3768 113.21 71.8417 113.511C71.5742 113.645 71.407 113.812 71.3401 113.946C71.2398 114.147 71.3735 114.281 71.7748 114.247C73.0457 114.08 74.6174 114.782 75.8883 115.217C77.1591 115.618 77.5939 117.056 77.5939 117.056C77.5939 117.056 77.7945 117.223 76.4568 116.622C75.1191 116.02 75.186 117.09 75.5873 117.123C75.9886 117.157 79.0319 118.662 78.1958 118.394C77.3598 118.126 76.9584 118.996 77.0922 118.996C77.226 118.996 80.4699 119.263 80.8712 120.668C81.2726 122.073 79.5335 122.039 79.3329 123.009C79.1322 123.979 80.704 124.28 79.7676 125.584C78.8312 126.888 79.1657 128.126 80.2693 128.494C81.4063 128.862 81.8745 128.226 81.8745 128.226L81.9749 128.126Z" fill="#C2AA81"/>
<path d="M79.1991 126.119C79.0987 127.323 77.0253 126.989 76.4233 126.855C75.8213 126.755 75.3532 127.658 76.2227 128.092C77.0922 128.527 76.6908 130.199 76.7243 129.865C76.7577 129.53 75.7545 129.296 75.1525 129.497C74.5171 129.698 74.584 131.069 74.584 131.704C74.584 132.34 72.8784 132.942 72.8784 132.942C72.8784 132.942 73.3131 131.738 72.6777 131.604C72.0423 131.47 72.243 132.641 71.8082 133.276C71.3735 133.911 69.9354 133.443 69.6679 133.744C69.4004 134.045 69.9689 134.48 71.6745 134.747C73.38 135.015 73.7479 134.112 73.7479 134.112C73.7479 134.112 73.8148 135.048 72.3099 135.517C70.8049 135.951 68.1964 134.747 68.4974 135.283C68.7984 135.851 69.8685 135.717 69.1997 136.052C68.5643 136.386 66.5577 135.149 66.5577 135.818C66.5577 136.487 67.0259 136.888 67.0259 136.888C67.0259 136.888 65.5545 136.386 65.1866 135.951C64.8187 135.517 64.7518 134.982 63.8489 136.186C62.9459 137.389 60.7387 136.988 61.2738 136.955C61.8089 136.955 62.043 136.319 61.7085 136.052C61.3741 135.784 59.702 136.319 58.9997 136.955C58.3308 137.624 55.5551 137.624 55.5551 137.624C55.5551 137.624 56.2909 137.49 56.3912 137.055C56.4915 136.62 54.5518 136.152 54.0836 136.62C53.6154 137.088 51.9433 138.125 50.2043 138.192C48.8666 138.226 47.4954 137.724 47.4954 137.724C50.6725 137.022 51.4751 135.784 51.5086 135.684C51.3413 135.751 48.3315 136.821 46.7263 136.252C45.121 135.65 43.0141 137.289 43.0141 137.289C42.78 136.186 45.5558 135.383 45.5558 135.383C44.8869 135.45 44.3184 135.316 42.1446 134.814C39.9708 134.313 39.3689 135.717 39.3689 135.717C39.0679 134.948 39.7367 133.778 39.7367 133.778C37.1282 134.547 35.2889 133.778 35.2889 133.778C37.0948 133.376 37.3289 132.172 36.2253 132.574C35.1217 132.975 33.1151 132.239 33.1151 132.239C35.1551 132.172 34.8541 131.671 34.8541 131.671L32.3794 131.269L32.7472 129.932H31.744L31.6771 128.661H30.9413L30.8744 128.26H29.6371L29.704 126.822C28.9682 126.487 29.1354 125.751 29.4699 124.882C29.7708 123.979 29.7709 123.711 29.7709 123.711L28.6003 123.043L30.0384 122.207C30.0384 122.207 31.0417 121.203 30.0384 119.765C29.0351 118.327 30.7741 116.555 30.7741 116.555C29.9715 119.096 31.5767 117.658 31.5767 117.658C32.1118 116.22 33.2154 115.117 34.5866 114.281C39.0679 111.538 46.4587 111.639 46.4587 111.639C46.4587 111.639 47.2613 111.137 48.6659 110.736C50.0705 110.334 58.4312 111.304 59.0332 111.639C59.6351 111.973 63.3807 113.043 67.7282 112.876C70.0692 112.776 71.2397 113.077 71.8417 113.378C71.5741 113.511 71.4069 113.679 71.34 113.812C69.7014 113.913 69.0325 114.849 70.0023 114.749C71.1394 114.615 72.5774 115.184 73.7145 115.518C74.1492 115.652 74.4836 115.886 74.7177 116.153C75.119 116.588 75.2863 117.023 75.2863 117.023C75.2863 117.023 75.4535 117.157 74.2495 116.655C73.0456 116.153 73.1125 117.056 73.4804 117.056C73.6141 117.056 74.1492 117.257 74.6843 117.491C75.4869 117.826 76.2561 118.227 75.8213 118.093C75.0856 117.859 74.7177 118.595 74.818 118.595C74.9184 118.595 77.8613 118.829 78.2292 119.966C78.5971 121.103 77.0253 121.069 76.8246 121.872C76.624 122.641 78.062 122.909 77.2259 123.946C76.3899 125.016 76.6574 126.019 77.6941 126.32C78.7308 126.621 79.1656 126.086 79.1656 126.086L79.1991 126.119Z" fill="#AF8F59"/>
<path d="M47.8632 111.505C47.8632 111.505 36.5596 111.304 34.4527 116.555C34.4527 116.555 33.0147 117.758 33.717 115.618C33.717 115.618 32.5799 116.32 32.6468 117.825C32.7137 119.029 31.2088 119.263 31.2088 119.263L30.9412 120.668L31.8442 121.638C31.8442 121.638 30.9078 121.772 30.6403 122.507C30.3727 123.243 30.2055 123.878 30.8743 124.146L30.8075 125.35L32.3458 125.918L30.9747 126.52L33.0816 126.253L31.7104 127.457H34.2186L33.8842 128.627L37.4291 128.293C37.4291 128.293 37.6967 128.728 35.8573 128.761C35.8573 128.761 37.6298 129.363 38.6665 129.029C39.7032 128.694 38.0645 130.467 36.4593 130.801C36.4593 130.801 39.5026 130.701 41.8436 130.065C41.8436 130.065 39.8704 131.804 40.138 132.44C40.138 132.44 40.7734 131.002 42.713 131.437C44.6527 131.871 43.5491 131.637 44.4186 131.972C44.4186 131.972 43.2481 132.54 43.4822 133.477C43.4822 133.477 46.6927 131.57 48.1642 132.105C49.6357 132.64 50.0035 132.607 50.0035 132.607C50.0035 132.607 50.1373 133.276 47.1609 133.878C47.1609 133.878 50.0704 133.777 51.3078 133.744C52.8796 133.711 54.2842 132.674 54.7858 132.44C57.1603 131.436 56.6586 133.109 55.7222 133.911C55.4547 134.145 54.9531 134.379 54.9531 134.379C54.9531 134.379 57.0934 134.279 57.7288 133.711C59.5013 132.206 60.5714 132.908 60.8724 133.142C61.1734 133.376 60.9727 133.878 60.4711 133.911C59.9695 133.945 61.976 134.246 62.7786 133.242C63.5812 132.239 64.3839 131.503 64.7183 131.871C65.0527 132.239 66.357 132.674 66.357 132.674C66.357 132.674 65.9222 132.339 65.9222 131.771C65.9222 131.202 67.6947 132.239 68.2967 131.972C68.8986 131.704 67.9288 131.771 67.6612 131.303C67.3937 130.835 69.7681 131.871 71.1058 131.503C72.4436 131.136 72.3767 130.333 72.3767 130.333C72.3767 130.333 72.0422 131.102 70.5039 130.868C68.9655 130.634 68.4304 130.299 68.698 130.032C68.9655 129.764 70.2363 130.166 70.6376 129.631C71.0389 129.096 70.8383 128.126 71.4068 128.226C71.9753 128.326 71.6075 129.363 71.6075 129.363C71.6075 129.363 73.1458 128.861 73.1458 128.326C73.1458 127.791 73.0789 126.621 73.6475 126.454C74.216 126.286 75.0855 126.454 75.0855 126.755C75.0855 127.056 75.4199 125.617 74.6508 125.25C73.8816 124.882 74.3163 124.113 74.8514 124.213C75.3865 124.313 77.2593 124.581 77.3262 123.577C77.3262 123.577 76.9248 124.012 76.0219 123.778C75.1189 123.544 74.8514 122.675 75.5871 121.805C76.3229 120.936 75.0521 120.701 75.2193 120.066C75.3865 119.431 76.8245 119.431 76.4901 118.461C76.1557 117.491 73.5137 117.324 73.4134 117.324C73.313 117.324 73.6475 116.722 74.3163 116.889C74.9852 117.056 72.5439 116.053 72.176 116.019C71.8081 115.986 71.7747 115.25 72.8783 115.685C73.9819 116.12 73.8147 115.986 73.8147 115.986C73.8147 115.986 73.4468 115.016 72.4101 114.715C71.3734 114.414 70.1026 113.946 69.0658 114.046C68.0291 114.147 69.1327 113.01 71.2396 113.311C71.2396 113.311 70.9386 112.341 67.0258 112.475C63.1131 112.608 59.7688 111.739 59.2003 111.438C58.6317 111.137 51.1072 110.334 49.8363 110.669C48.5655 111.003 47.8632 111.438 47.8632 111.438V111.505Z" fill="#B89C6C"/>
<path d="M73.1797 119.33C73.1797 118.728 71.4073 117.591 71.9424 118.394C72.4774 119.197 71.2066 119.899 71.1732 120.936C71.1397 121.972 68.9325 122.675 68.9659 122.039C68.9994 121.404 68.4643 121.404 68.4643 121.404C68.3305 122.574 66.5915 123.176 66.5915 122.675C66.5915 122.173 66.8591 121.638 66.8591 121.638C66.8591 121.638 66.2237 121.504 65.3542 123.176C64.4846 124.882 60.6053 125.852 61.5082 124.815C62.4112 123.778 61.9764 123.511 61.9764 123.511C61.9764 123.946 60.7391 125.45 60.0368 125.149C59.3345 124.848 57.9299 125.35 56.2912 125.852C54.6525 126.353 53.5489 125.751 53.5823 124.848C53.6158 123.946 54.8197 123.645 54.8197 123.645C54.2846 123.344 53.482 123.979 53.482 123.979C51.7096 125.685 48.5325 125.216 48.5325 124.882C48.5325 124.547 50.0709 124.079 50.0709 124.079C50.0709 124.079 48.0643 123.544 46.8604 124.18C45.6564 124.815 41.6433 124.046 42.0446 123.678C42.4459 123.344 44.2853 123.979 43.9843 123.31C43.6833 122.675 38.0315 123.176 38.3994 122.507C38.7672 121.872 41.5096 122.374 40.2722 121.571C39.0348 120.768 36.1922 121.906 36.56 121.17C36.9279 120.434 38.0984 120.334 38.0984 120.334C35.4564 118.996 37.5299 114.214 37.5299 114.214C37.5299 114.214 39.1351 113.679 39.3023 113.077C39.4027 112.809 39.7705 112.475 40.2387 112.207C43.5161 111.572 46.3922 111.605 46.3922 111.605C46.3922 111.605 47.1948 111.104 48.5994 110.702C50.004 110.301 58.3646 111.271 58.9666 111.605C59.4682 111.873 61.9764 112.608 65.1869 112.809C65.9561 112.843 66.7922 112.876 67.6283 112.809C71.9758 112.642 70.3371 113.545 70.3371 113.545C69.2669 113.378 68.4309 113.578 67.9292 113.846C67.3607 114.147 67.2938 114.515 67.9292 114.448C67.9961 114.448 68.063 114.448 68.1299 114.448C68.1299 114.916 67.7955 115.551 68.1968 115.852C68.5646 116.153 70.103 115.518 70.7718 115.652C71.6079 115.819 70.8387 116.722 72.0092 116.989C74.0492 117.458 73.0459 119.297 73.0459 119.297L73.1797 119.33Z" fill="#C2AA81"/>
<path d="M73.1797 119.33C73.1797 118.728 71.4073 117.591 71.9424 118.394C72.4774 119.196 71.2066 119.899 71.1732 120.935C71.1397 121.972 68.9325 122.674 68.9659 122.039C68.9994 121.404 68.4643 121.404 68.4643 121.404C68.3305 122.574 66.5915 123.176 66.5915 122.674C66.5915 122.173 66.8591 121.638 66.8591 121.638C66.8591 121.638 66.2237 121.504 65.3542 123.176C64.4846 124.882 60.6053 125.851 61.5082 124.815C62.4112 123.778 61.9764 123.51 61.9764 123.51C61.9764 123.945 60.7391 125.45 60.0368 125.149C59.3345 124.848 57.9299 125.35 56.2912 125.851C54.6525 126.353 53.5489 125.751 53.5823 124.848C53.6158 123.945 54.8197 123.644 54.8197 123.644C54.2846 123.343 53.482 123.979 53.482 123.979C51.7096 125.684 48.5325 125.216 48.5325 124.882C48.5325 124.547 50.0709 124.079 50.0709 124.079C50.0709 124.079 48.0643 123.544 46.8604 124.179C45.6564 124.815 41.6433 124.046 42.0446 123.678C42.4459 123.343 44.2853 123.979 43.9843 123.31C43.6833 122.674 38.0315 123.176 38.3994 122.507C38.7672 121.872 41.5096 122.373 40.2722 121.571C39.0348 120.768 36.1922 121.905 36.56 121.169C36.9279 120.434 38.0984 120.333 38.0984 120.333C35.4564 118.996 37.5299 114.213 37.5299 114.213C37.5299 114.213 39.1351 113.678 39.3023 113.076C39.4027 112.809 39.7705 112.474 40.2387 112.207C40.7738 111.872 41.4092 111.605 41.8105 111.438C42.5463 111.137 45.5896 111.304 47.1614 110.602C48.6997 109.899 56.124 110.334 57.6289 110.602C59.1338 110.903 59.0669 111.471 59.6689 111.538C60.2709 111.571 61.341 111.337 62.6453 111.672C63.7823 111.973 64.5181 112.207 65.2204 112.775C65.3207 112.842 65.3876 112.909 65.4879 113.009C66.2571 113.745 67.3607 113.009 67.3607 113.009C67.4276 113.244 67.762 113.478 67.9961 113.812C68.063 113.912 68.1299 114.046 68.1633 114.213C68.1633 114.28 68.1633 114.347 68.1633 114.414C68.1633 114.882 67.8289 115.518 68.2302 115.819C68.5981 116.12 70.1364 115.484 70.8053 115.618C71.6414 115.785 70.8722 116.688 72.0427 116.956C74.0827 117.424 73.0794 119.263 73.0794 119.263L73.1797 119.33Z" fill="#A17C3D"/>
<path d="M64.4178 122.407L64.2506 122.942C63.6152 125.015 62.4113 126.219 61.3077 126.855C60.806 127.156 60.3044 127.323 59.9031 127.356C58.6322 127.557 56.726 127.122 55.2545 126.32C52.8467 124.982 52.6795 123.377 53.1811 121.805L53.3149 121.37C53.6827 120.233 54.7864 119.397 56.0572 119.297C56.4919 119.297 56.9267 119.297 57.3614 119.464C59.5018 120.2 61.0401 122.039 62.01 122.34C63.5483 122.808 64.3844 122.34 64.3844 122.34L64.4178 122.407Z" fill="#D7C7AC"/>
<path d="M64.4178 122.407L64.284 122.842V122.975C64.284 122.975 64.2171 123.009 64.2171 123.042C64.2171 123.109 64.1837 123.143 64.1502 123.209C63.4814 125.116 62.3443 126.253 61.3076 126.855C60.0368 126.989 58.2309 126.587 56.8597 125.818C54.4519 124.48 54.2846 122.875 54.7863 121.303L54.92 120.869C55.1207 120.233 55.5554 119.698 56.0905 119.33C56.5253 119.33 56.96 119.33 57.3948 119.497C57.562 119.564 57.7292 119.631 57.8964 119.698C59.7692 120.534 61.1404 122.106 62.0433 122.373C63.5817 122.842 64.4178 122.373 64.4178 122.373V122.407Z" fill="#BFA57A"/>
<path opacity="0.61" d="M64.4177 122.407L64.2839 122.842C64.2839 122.842 64.2504 122.975 64.217 123.042C64.217 123.109 64.1836 123.143 64.1501 123.209C63.5482 124.614 60.8393 124.413 60.0367 124.547C59.2006 124.681 57.8963 122.641 57.9298 121.705C57.9632 120.735 57.3278 119.832 57.3278 119.832C57.3278 119.832 57.5619 119.798 57.9298 119.698C59.8026 120.534 61.1737 122.106 62.0767 122.373C63.615 122.842 64.4511 122.373 64.4511 122.373L64.4177 122.407Z" fill="#9E7938"/>
<path d="M59.9365 117.826C59.8696 118.361 59.7024 118.829 59.4349 119.23C58.7326 120.334 57.3949 121.036 55.9903 120.869C54.0172 120.635 52.5792 118.929 52.8133 117.023C52.8801 116.354 53.1477 115.752 53.549 115.25C54.2847 114.348 55.4887 113.812 56.7595 113.98C58.7326 114.214 60.1706 115.919 59.9365 117.826Z" fill="#B29460"/>
<path d="M59.9359 117.826C59.869 118.361 59.7018 118.829 59.4342 119.23C58.6985 120.133 57.4946 120.635 56.2238 120.501C54.2506 120.267 52.8126 118.561 53.0467 116.655C53.1136 116.153 53.2808 115.652 53.5484 115.25C54.2841 114.348 55.488 113.812 56.7588 113.98C58.732 114.214 60.17 115.919 59.9359 117.826Z" fill="#BFA57A"/>
<path d="M52.1775 115.418C52.1775 115.418 53.1473 115.618 53.4483 115.752C53.7493 115.886 53.9165 116.688 53.9165 116.688C53.9165 116.688 52.8129 116.22 52.6457 116.02C52.4785 115.819 52.1775 115.451 52.1775 115.451V115.418Z" fill="#AA8950"/>
<path d="M54.4517 116.521H54.3849C54.3849 116.521 54.3179 116.621 54.2845 116.621C53.7829 116.889 54.1507 116.722 53.5822 116.32C53.2143 116.053 52.7796 115.518 52.512 115.083C52.4452 114.949 52.3448 114.782 52.3448 114.749C52.3448 114.749 53.0471 114.749 54.2845 115.016C55.3547 115.25 54.9534 116.12 54.5186 116.488L54.4517 116.521Z" fill="#DDCFB8"/>
<path d="M54.2845 116.622L54.2511 116.688C54.2511 116.688 54.1842 116.755 54.1507 116.755C53.716 117.123 53.5488 117.023 53.2478 116.755C52.7127 116.321 52.2779 115.485 52.2445 115.418C52.3114 115.485 52.8799 115.986 53.1809 116.153C53.4819 116.354 54.2511 116.588 54.318 116.622H54.2845Z" fill="#D3C2A5"/>
<path d="M54.0505 115.551C54.0505 115.551 54.3849 115.651 54.4518 115.718C54.5187 115.785 54.4852 115.919 54.4852 115.919C54.4852 115.919 54.1842 115.651 54.1508 115.618C54.1173 115.585 54.017 115.518 54.017 115.518L54.0505 115.551Z" fill="#D3C2A5"/>
<path d="M56.5919 116.722C56.7766 116.722 56.9263 116.572 56.9263 116.387C56.9263 116.203 56.7766 116.053 56.5919 116.053C56.4072 116.053 56.2575 116.203 56.2575 116.387C56.2575 116.572 56.4072 116.722 56.5919 116.722Z" fill="black"/>
<path d="M58.4314 114.682H58.1973C58.0969 114.381 57.9966 114.013 57.9966 113.913C57.9966 113.812 58.0969 113.612 58.2641 113.612C58.4313 113.612 58.5651 113.745 58.5651 113.879C58.5651 114.013 58.4313 114.648 58.3979 114.682H58.4314Z" fill="#C0A77D"/>
<path d="M58.3646 114.782L58.2977 114.648C58.5318 114.481 58.7659 114.28 58.8662 114.247C58.9666 114.213 59.1338 114.213 59.1672 114.314C59.2341 114.414 59.1338 114.548 59.0335 114.615C58.9331 114.682 58.398 114.782 58.3646 114.782Z" fill="#C0A77D"/>
<path d="M57.3278 122.072C57.3278 122.072 57.3278 122.273 57.3278 122.373C57.3278 122.373 57.3278 122.541 57.3613 122.607C57.3613 122.641 57.3613 122.674 57.3613 122.708C57.3613 122.708 57.3613 122.775 57.3613 122.808C57.3613 122.842 57.3947 122.908 57.4281 122.942C57.4281 122.975 57.4616 123.042 57.495 123.076C57.495 123.143 57.5285 123.176 57.5619 123.243C57.5619 123.276 57.6288 123.343 57.6288 123.377C57.6622 123.444 57.6957 123.477 57.7291 123.544C57.796 123.611 57.8295 123.711 57.8963 123.778C57.9632 123.878 58.0301 123.945 58.1304 124.046L58.1973 124.112C58.2308 124.146 58.2642 124.179 58.2977 124.213C58.3645 124.28 58.4649 124.346 58.5652 124.413C58.6321 124.48 58.699 124.514 58.7659 124.581C58.7993 124.581 58.8327 124.614 58.8996 124.647C58.8996 124.647 58.9331 124.647 58.9665 124.681C58.9665 124.681 59.0334 124.714 59.0668 124.748C59.234 124.848 59.4347 124.948 59.6354 125.015C60.8059 125.45 62.9462 124.681 63.2472 124.046C63.2472 124.046 63.2472 124.012 63.2472 123.979C63.2472 123.912 63.1134 123.778 62.9796 123.644C62.6786 123.343 62.2439 122.942 62.1436 122.842C62.0432 122.741 61.3744 121.939 61.0734 121.671C60.9062 121.537 60.7724 121.404 60.6052 121.303C60.2373 121.069 59.8694 120.902 59.535 120.802C59.2675 120.735 59 120.701 58.7993 120.668C58.3311 120.634 57.9298 120.802 57.8295 120.902C57.6957 121.002 57.5619 121.203 57.4616 121.437C57.4616 121.504 57.4281 121.571 57.3947 121.604C57.3947 121.671 57.3613 121.738 57.3278 121.805C57.3278 121.805 57.3278 121.972 57.3278 122.072Z" fill="#9E7938"/>
<path d="M63.2474 123.879C63.2474 123.879 63.3143 123.979 63.3143 124.012C62.8126 124.614 60.9064 125.25 59.8028 124.848C59.6021 124.782 59.4349 124.681 59.2343 124.581C59.2343 124.581 59.1674 124.547 59.1339 124.514C59.1339 124.514 59.1005 124.514 59.067 124.481C59.0336 124.481 59.0002 124.414 58.9333 124.414C58.7995 124.313 58.5654 124.146 58.4317 124.012C58.4317 124.012 58.4316 124.012 58.3982 123.979C58.3982 123.979 58.3313 123.912 58.3313 123.879C58.2644 123.812 58.1641 123.711 58.0972 123.611C58.0303 123.544 57.9969 123.477 57.93 123.377C57.8966 123.31 57.8631 123.243 57.8297 123.21C57.8297 123.176 57.7628 123.109 57.7294 123.076C57.7294 123.009 57.6625 122.976 57.6625 122.909C57.6625 122.875 57.629 122.808 57.5956 122.775C57.5956 122.708 57.5621 122.675 57.5287 122.641C57.5287 122.641 57.5287 122.574 57.5287 122.541C57.5287 122.507 57.5287 122.474 57.5287 122.441C57.5287 122.374 57.5287 122.307 57.4952 122.24C57.4952 122.24 57.4952 122.006 57.4952 121.905C57.4952 121.805 57.4952 121.738 57.4952 121.638C57.4952 121.638 57.4952 121.504 57.5287 121.437C57.629 121.203 57.7962 121.002 57.8966 120.902C57.8966 120.902 57.9635 120.835 58.0638 120.802C58.231 120.702 58.5654 120.635 58.8998 120.668C59.1339 120.668 59.368 120.735 59.6356 120.802C59.97 120.902 60.3379 121.036 60.7058 121.303C60.873 121.404 61.0402 121.538 61.1739 121.671C61.3077 121.805 61.5084 122.006 61.709 122.24C61.7759 122.307 61.8428 122.374 61.8762 122.441C61.9431 122.507 62.0435 122.574 62.1438 122.641C62.1772 122.641 62.2107 122.675 62.2441 122.708C62.2441 122.708 62.2775 122.708 62.311 122.708C62.4448 122.775 62.7792 122.909 63.0133 123.009C63.1136 123.076 63.2139 123.109 63.2474 123.143C63.2139 123.21 63.1471 123.277 63.0802 123.343C63.1471 123.343 63.1805 123.41 63.2474 123.41C63.3477 123.477 63.448 123.511 63.4815 123.544C63.448 123.611 63.3477 123.711 63.2474 123.778V123.879Z" fill="#B29460"/>
<path d="M63.0802 123.678C62.6454 124.146 61.1405 124.648 60.271 124.347C60.1372 124.28 59.97 124.213 59.8362 124.146C59.8362 124.146 59.7693 124.146 59.7693 124.113C59.7693 124.113 59.7359 124.113 59.7025 124.079C59.7025 124.079 59.6356 124.046 59.6021 124.012C59.5352 123.979 59.5018 123.945 59.4349 123.878C59.368 123.812 59.3011 123.778 59.2343 123.711C59.2343 123.711 59.1674 123.644 59.1339 123.611C59.1339 123.611 59.1005 123.577 59.067 123.544C59.0002 123.477 58.9333 123.41 58.8998 123.343C58.8664 123.276 58.7995 123.243 58.7661 123.176C58.7661 123.143 58.6992 123.076 58.6657 123.042C58.6657 123.009 58.6323 122.975 58.5988 122.909C58.5988 122.875 58.5654 122.808 58.532 122.775C58.532 122.741 58.4985 122.708 58.4651 122.674C58.4651 122.641 58.4651 122.608 58.4316 122.541C58.4316 122.541 58.4316 122.507 58.4316 122.474C58.4316 122.474 58.4316 122.407 58.4316 122.373C58.4316 122.307 58.4316 122.24 58.3982 122.206C58.3982 122.206 58.3982 122.039 58.3982 121.939C58.3982 121.872 58.3982 121.805 58.3982 121.705V121.638C58.3982 121.604 58.3982 121.571 58.3982 121.537C58.4985 121.27 58.6323 121.069 58.7661 120.969C58.8664 120.902 59.1674 120.735 59.5687 120.768C59.5687 120.768 59.6021 120.768 59.6356 120.768C59.97 120.869 60.3379 121.002 60.7057 121.27C60.873 121.37 61.0402 121.504 61.1739 121.638C61.3077 121.772 61.5084 121.972 61.709 122.206C61.9431 122.474 62.1772 122.741 62.2441 122.808C62.2441 122.808 62.8126 123.076 63.0802 123.21C63.0467 123.276 62.9798 123.343 62.8795 123.41C62.9464 123.477 63.0133 123.544 63.0802 123.611V123.678Z" fill="#BFA57A"/>
<path d="M58.03 120.802C58.1304 121.002 58.2307 121.303 58.3645 121.638C58.3645 121.738 58.4313 121.805 58.4648 121.905C58.933 123.31 60.5382 123.143 61.274 122.842C61.5415 122.708 61.6753 122.474 61.7422 122.24C61.5415 122.006 61.3408 121.772 61.2071 121.671C61.0399 121.537 60.9061 121.404 60.7389 121.303C60.371 121.069 60.0031 120.902 59.6687 120.802C59.4012 120.735 59.1336 120.701 58.933 120.668C58.5985 120.668 58.2976 120.735 58.0969 120.802H58.03Z" fill="#C6AF89"/>
<path d="M76.2562 120.233C76.1893 121.236 74.4169 120.969 73.9487 120.869C73.4471 120.768 73.0457 121.537 73.7815 121.905C74.5172 122.273 74.1828 123.678 74.1828 123.41C74.1828 123.143 73.3802 122.942 72.8451 123.109C72.31 123.276 72.3769 124.447 72.3769 124.982C72.3769 125.517 70.9389 126.019 70.9389 126.019C70.9389 126.019 71.3067 125.015 70.7716 124.882C70.2366 124.781 70.4038 125.751 70.0359 126.286C69.668 126.821 68.4641 126.42 68.23 126.688C67.9959 126.955 68.4975 127.29 69.9356 127.524C71.3736 127.758 71.6746 126.989 71.6746 126.989C71.6746 126.989 71.7415 127.791 70.4707 128.159C69.2333 128.527 66.9926 127.49 67.2602 127.992C67.5277 128.46 68.3972 128.36 67.8621 128.661C67.3271 128.928 65.6549 127.891 65.6549 128.46C65.6549 129.029 66.0562 129.363 66.0562 129.363C66.0562 129.363 64.8189 128.928 64.5179 128.56C64.2169 128.192 64.15 127.758 63.3808 128.761C62.6116 129.764 60.7723 129.43 61.207 129.43C61.6418 129.43 61.8425 128.895 61.5749 128.661C61.2739 128.427 59.8693 128.861 59.3008 129.43C58.7323 129.998 56.3913 129.998 56.3913 129.998C56.3913 129.998 57.0267 129.865 57.0936 129.53C57.1605 129.162 55.5552 128.761 55.1539 129.162C54.7526 129.564 53.348 130.433 51.91 130.467C50.7729 130.5 49.6359 130.065 49.6359 130.065C52.4116 129.463 53.0136 128.326 53.0136 128.326C53.0136 128.326 50.3382 129.296 49.0005 128.794C47.6628 128.293 45.8569 129.697 45.8569 129.697C45.6562 128.761 47.9972 128.092 47.9972 128.092C47.4287 128.126 46.9605 128.059 45.1211 127.624C43.2818 127.189 42.7802 128.36 42.7802 128.36C42.5126 127.691 43.0811 126.721 43.0811 126.721C40.8739 127.39 39.3356 126.721 39.3356 126.721C40.8405 126.387 41.0746 125.35 40.1048 125.684C39.1684 126.019 37.4962 125.417 37.4962 125.417C39.2352 125.383 38.9677 124.949 38.9677 124.949L36.8943 124.614L37.1952 123.477H36.3592V122.407H35.6903L35.6235 122.072H34.5867L34.6536 120.869C34.0182 120.568 34.1854 119.966 34.4529 119.23C34.7205 118.494 34.7205 118.26 34.7205 118.26L33.7172 117.691L34.9211 116.989C34.9211 116.989 35.7572 116.153 34.9211 114.916C34.7874 114.715 34.7205 114.514 34.687 114.314C36.3592 113.277 38.4661 112.675 40.4057 112.274C39.9376 112.541 39.5362 112.876 39.4693 113.143C39.3021 113.745 37.6969 114.28 37.6969 114.28C37.6969 114.28 35.6234 119.063 38.2654 120.4C38.2654 120.4 37.0949 120.501 36.727 121.236C36.3592 121.972 39.2018 120.835 40.4392 121.638C41.6766 122.44 38.9343 121.939 38.5664 122.574C38.1985 123.21 43.8169 122.708 44.1513 123.377C44.4857 124.012 42.6464 123.377 42.2116 123.745C41.8103 124.079 45.8234 124.882 47.0274 124.246C48.1979 123.611 50.2379 124.146 50.2379 124.146C50.2379 124.146 48.6995 124.581 48.6995 124.949C48.6995 125.316 51.8431 125.751 53.649 124.046C53.649 124.046 54.4182 123.41 54.9867 123.711C54.9867 123.711 53.8162 124.012 53.7494 124.915C53.7159 125.818 54.7861 126.42 56.4582 125.918C58.0969 125.417 59.5349 124.915 60.2038 125.216C60.9061 125.517 62.1435 124.012 62.1435 123.577C62.1435 123.577 62.6116 123.811 61.6752 124.882C60.7723 125.918 64.6516 124.915 65.5211 123.243C66.3907 121.537 67.0261 121.705 67.0261 121.705C67.0261 121.705 66.7585 122.24 66.7585 122.741C66.7585 123.243 68.4975 122.608 68.6313 121.471C68.6313 121.471 69.1664 121.47 69.133 122.106C69.0995 122.741 71.2733 122.072 71.3402 121.002C71.3736 119.966 72.6779 119.263 72.1093 118.461C71.5743 117.658 73.3467 118.795 73.3467 119.397C73.3467 119.397 74.35 117.558 72.31 117.09C71.1395 116.822 71.9087 115.919 71.0726 115.752C70.4038 115.618 68.8988 116.253 68.4975 115.952C68.0962 115.651 68.3972 115.016 68.4307 114.548C69.5343 114.481 70.872 115.016 71.9756 115.35C72.4103 115.484 72.7448 115.718 72.9789 115.986C72.7448 116.12 74.5172 116.521 74.4838 116.755C74.4503 116.755 72.5441 116.488 72.5107 116.488C72.4438 116.855 74.7179 117.324 74.9185 117.625C75.0858 117.859 75.1192 118.126 74.8182 118.528C74.1159 119.43 74.35 120.267 75.2195 120.501C76.089 120.768 76.4569 120.3 76.4569 120.3L76.2562 120.233Z" fill="#C2AA81"/>
<path d="M51.0066 105.786L50.8394 105.552C50.5384 105.017 50.2374 104.381 50.1037 104.214C49.9699 104.047 49.8361 103.88 49.7024 103.98C49.6355 104.047 49.602 104.114 49.7024 104.381C49.8361 104.716 50.3712 105.485 50.9732 105.786H51.0066Z" fill="#9E7938"/>
<path d="M48.532 111.404C48.532 111.404 48.4651 111.404 48.3982 111.404C48.3982 112.14 48.2979 112.909 47.9969 113.679C47.9969 113.745 47.93 113.846 47.8966 113.913C47.4953 114.782 46.9268 115.618 46.1241 116.354C45.8566 116.588 45.589 116.822 45.2881 117.023C43.9838 117.993 42.3451 118.628 40.5392 118.661C40.1713 119.163 39.6697 119.732 39.4022 119.865C38.934 120.1 38.4658 120.267 37.9307 119.698C37.6631 119.397 37.429 118.695 37.2953 118.093C36.5261 117.825 35.69 117.424 34.854 116.989C34.6533 117.19 34.4861 117.357 34.3858 117.391C34.0513 117.524 33.4494 117.19 33.2153 116.889C33.0815 116.722 32.9812 116.22 32.8809 115.819C32.3123 115.418 31.7772 115.016 31.309 114.615C29.9713 115.484 27.5635 117.056 25.1222 118.661C21.4435 121.103 21.0756 120.267 20.9418 119.799C20.8081 119.33 21.8113 118.327 21.8782 118.126C21.9117 117.892 22.2795 117.491 20.3064 117.491C18.3333 117.491 19.8716 116.32 19.8716 116.32C19.8716 116.32 20.2395 116.187 20.8081 115.919C22.9149 115.016 27.8644 112.876 29.0015 112.374C30.473 111.739 34.7536 108.829 36.0913 108.16C37.2618 107.559 38.5327 106.856 39.8035 106.388C40.9071 105.987 42.0441 105.753 43.1477 105.853C43.1477 105.719 43.2146 105.619 43.2815 105.485C43.2815 105.418 43.3484 105.385 43.3484 105.318C44.2513 103.579 46.7595 102.977 48.7995 103.846C49.0671 103.947 49.3012 104.08 49.5018 104.214C50.2376 104.682 50.7726 105.351 51.0736 106.087C51.174 106.288 51.2408 106.522 51.3077 106.756C51.4749 107.458 51.4081 108.194 51.1071 108.863C50.7392 109.665 50.0704 110.501 49.2343 111.003C48.9668 111.17 48.6992 111.304 48.3982 111.371L48.532 111.404Z" fill="#A27D3F"/>
<path d="M51.207 108.896C50.8392 109.699 50.1703 110.535 49.3343 111.036C49.0667 111.203 48.7992 111.337 48.4982 111.404C48.4982 111.404 48.4313 111.404 48.3644 111.404C48.3644 111.404 48.6989 110.2 49.4346 109.464C50.7723 108.16 50.2707 106.622 49.1002 106.02C47.7625 105.351 47.0267 105.886 46.7258 106.99C46.3913 108.227 48.9998 108.628 48.3644 111.404C48.3644 111.404 46.6923 109.732 45.9566 108.662C45.2208 107.592 44.8195 105.485 46.8929 104.682C49.1002 103.813 50.9395 105.719 51.3743 106.756C51.5415 107.458 51.4746 108.194 51.1736 108.862L51.207 108.896Z" fill="#B1925E"/>
<path d="M47.8968 113.946C47.4955 114.816 46.927 115.652 46.1243 116.387C45.8568 116.621 45.5893 116.856 45.2883 117.056C43.984 118.026 42.3453 118.661 40.5394 118.695C40.1715 119.197 39.6699 119.765 39.4024 119.899C38.9342 120.133 38.466 120.3 37.9309 119.732C37.6633 119.431 37.4293 118.728 37.2955 118.126C36.5263 117.859 35.6902 117.458 34.8542 117.023C34.6535 117.223 34.4863 117.391 34.386 117.424C34.0516 117.558 33.4496 117.223 33.2155 116.922C33.0817 116.755 32.9814 116.254 32.8811 115.852C32.3125 115.451 31.7775 115.05 31.3093 114.648C32.1788 112.608 45.2214 114.715 46.0909 113.913C46.927 113.143 47.8634 113.679 47.8968 113.679C47.8968 113.745 47.8299 113.846 47.7965 113.913L47.8968 113.946Z" fill="#C2AA81"/>
<path opacity="0.46" d="M48.3982 111.438C48.3982 112.274 48.2645 113.11 47.8966 113.946C47.4953 114.815 46.8933 115.652 46.1241 116.387C45.9569 116.521 45.8231 116.655 45.6894 116.755C45.5556 116.855 45.4218 116.956 45.2881 117.056C43.9838 118.026 42.3451 118.661 40.5392 118.695C40.1713 119.196 39.6697 119.765 39.4022 119.899C38.934 120.133 38.4657 120.3 37.9307 119.732C37.6631 119.431 37.429 118.728 37.2953 118.126C36.5261 117.859 35.69 117.457 34.854 117.023C34.6533 117.223 34.4861 117.391 34.3858 117.424C34.0513 117.558 33.4494 117.223 33.2153 116.922C33.0815 116.755 32.9812 116.253 32.8808 115.852C32.3123 115.451 31.7772 115.05 31.309 114.648C29.9713 115.518 27.5635 117.09 25.1222 118.695C21.4435 121.136 21.0756 120.3 20.9418 119.832C20.8081 119.364 21.8113 118.36 21.8782 118.16C21.9117 117.926 22.2795 117.524 20.3064 117.524C18.3333 117.524 19.8716 116.354 19.8716 116.354C19.8716 116.354 20.2395 116.187 20.8081 115.953C20.7412 115.953 20.6743 116.019 20.6074 116.053C20.4402 116.153 20.273 116.253 20.1058 116.387C20.0054 116.454 19.9385 116.521 19.8382 116.621C19.8048 116.688 19.7713 116.755 19.7379 116.822C19.7379 116.889 19.7379 116.922 19.7379 116.989C19.7379 116.989 19.7379 116.989 19.7379 117.023V117.056C19.7379 117.056 19.7713 117.09 19.8048 117.09C19.8382 117.09 19.8382 117.09 19.8716 117.123H19.9051C19.9051 117.123 20.0054 117.19 20.0723 117.19C20.0723 117.19 20.0723 117.19 20.1058 117.19C20.1392 117.19 20.1726 117.19 20.2061 117.19C20.2061 117.19 20.2395 117.19 20.273 117.19C20.273 117.19 20.3064 117.19 20.3399 117.19C20.3399 117.19 20.4067 117.19 20.4402 117.19C20.574 117.19 20.7412 117.156 20.8749 117.123C21.3431 117.09 22.3799 117.123 22.2126 117.825C22.0789 118.394 21.711 118.895 21.4435 119.431C21.4435 119.464 21.4435 119.497 21.4435 119.531C21.4435 119.598 21.4435 119.665 21.4435 119.698C21.4435 119.698 21.4435 119.698 21.4435 119.732C21.4435 119.732 21.4435 119.732 21.4435 119.765C21.4435 119.765 21.4435 119.765 21.4435 119.798C21.5438 119.798 21.6441 119.832 21.711 119.865C22.1458 119.698 22.5805 119.497 22.9818 119.263C23.7844 118.829 24.5536 118.36 25.3228 117.892C26.8612 116.956 28.433 116.053 30.0048 115.15C30.0382 115.15 30.1051 115.083 30.1386 115.05C30.4061 114.815 30.7071 114.548 31.0415 114.448C31.1418 114.414 31.2756 114.414 31.3425 114.448C31.6435 114.448 31.911 114.648 32.1451 114.849C32.4126 114.983 32.6468 115.15 32.8808 115.25C33.3825 115.518 33.8841 115.752 34.4192 115.986C35.4894 116.488 36.593 116.922 37.73 117.257C38.2317 117.424 38.7333 117.558 39.2684 117.692C39.6028 117.725 39.9372 117.758 40.2717 117.792C40.8067 117.792 41.3084 117.758 41.8435 117.692C42.9471 117.424 43.9504 116.922 44.9202 116.354C46.492 115.05 47.8297 113.411 48.0304 111.304C48.0304 111.237 48.0972 111.137 48.1641 111.103C48.532 111.103 48.8998 111.036 49.2677 110.936C48.9667 111.137 48.6658 111.271 48.3313 111.337L48.3982 111.438Z" fill="#8E6217"/>
<path d="M44.5859 112.909C44.5859 112.909 44.3518 113.144 44.2514 113.277C44.1177 113.411 43.9839 113.511 43.8501 113.612C43.8501 113.612 43.7833 113.645 43.7498 113.679C43.7498 113.679 43.6829 113.745 43.6495 113.745C43.616 113.745 43.5826 113.812 43.5157 113.846C43.5157 113.846 43.4823 113.846 43.4488 113.879C43.4488 113.879 43.4488 113.879 43.4154 113.879C43.4154 113.879 43.4154 113.879 43.3819 113.879C43.2816 113.946 43.2147 114.013 43.1144 114.046C43.0475 114.08 42.9472 114.147 42.8803 114.18C42.8803 114.18 42.8468 114.18 42.8134 114.18C42.7465 114.214 42.6796 114.247 42.6128 114.281C42.5459 114.281 42.479 114.347 42.4121 114.381C42.3452 114.414 42.2449 114.448 42.178 114.481C42.0777 114.515 41.9774 114.582 41.8436 114.615C41.7433 114.648 41.6095 114.715 41.5091 114.749C41.4088 114.782 41.3085 114.816 41.1747 114.849C41.0409 114.883 40.9072 114.916 40.7734 114.949C40.7065 114.949 40.6062 114.983 40.5393 115.016C40.5393 115.016 40.5059 115.016 40.4724 115.016C40.4055 115.016 40.3386 115.016 40.3052 115.05C40.3052 115.05 40.3052 115.05 40.2718 115.05C40.2049 115.05 40.1046 115.083 40.0377 115.117C40.0377 115.117 40.0377 115.117 40.0042 115.117C39.9373 115.117 39.9039 115.117 39.837 115.117C39.837 115.117 39.8036 115.117 39.7701 115.117C39.7032 115.117 39.6029 115.117 39.536 115.15C39.3688 115.15 39.2016 115.217 39.0009 115.217C38.9006 115.217 38.8337 115.217 38.7334 115.217C38.6665 115.217 38.6331 115.217 38.5662 115.217C38.5328 115.217 38.4993 115.217 38.4324 115.217C38.4324 115.217 38.4324 115.217 38.399 115.217C38.3321 115.217 38.2652 115.217 38.2318 115.217C38.1649 115.217 38.1314 115.217 38.0646 115.217C38.0646 115.217 38.0645 115.217 38.0311 115.217C37.9642 115.217 37.9308 115.217 37.8639 115.217C37.8639 115.217 37.797 115.217 37.7636 115.217C37.3288 115.217 36.8606 115.184 36.4259 115.117C36.3255 115.117 36.2587 115.117 36.1583 115.083C36.0914 115.083 36.058 115.083 35.9911 115.083C35.8908 115.083 35.8239 115.083 35.7236 115.016C35.6567 115.016 35.5898 115.016 35.5229 114.983C35.4895 114.983 35.456 114.983 35.4226 114.983C35.2554 114.949 35.1216 114.916 34.9544 114.849C34.8875 114.849 34.8206 114.816 34.7537 114.782C34.2855 114.648 33.8174 114.481 33.3492 114.281C33.2488 114.247 33.1485 114.18 33.0482 114.147C32.9478 114.113 32.8475 114.046 32.7472 114.013C32.6469 113.98 32.58 113.913 32.4796 113.879C32.3459 113.812 32.2455 113.779 32.1118 113.712C32.0783 113.712 32.0114 113.679 31.978 113.645C31.978 113.645 31.978 113.645 31.9445 113.645C31.9111 113.645 31.8442 113.578 31.7773 113.578C31.5098 113.444 31.2757 113.277 31.0082 113.144C31.0082 113.144 30.9413 113.11 30.9078 113.077C30.8409 113.077 30.8075 113.01 30.7406 112.976C30.6737 112.943 30.6068 112.909 30.54 112.843C30.4396 112.776 30.3393 112.709 30.239 112.642C30.1052 112.575 30.0049 112.475 29.8711 112.408C29.7039 112.274 29.5032 112.174 29.336 112.04C29.3026 112.04 29.2691 111.973 29.2357 111.94C28.8344 111.639 28.4665 111.371 28.0987 111.037C28.0987 111.037 28.0318 110.97 27.9983 110.936C27.9314 110.869 27.8646 110.836 27.7977 110.769C27.8646 110.769 28.9013 110.401 30.0049 110.067C30.1387 110.033 30.2724 110 30.4062 109.933C30.4062 109.933 30.6069 109.866 30.6737 109.833C31.7773 109.498 32.9478 108.863 34.1852 108.227C34.2856 108.161 34.3859 108.127 34.5196 108.06C35.456 107.592 36.4259 107.191 37.496 106.957C38.0311 106.823 38.5328 106.756 39.0344 106.723C39.1682 106.723 39.3019 106.723 39.4357 106.723C40.4724 106.689 41.4088 106.789 42.2114 106.99C42.3118 106.99 42.3787 107.024 42.479 107.057C43.5826 107.358 44.4187 107.826 44.7531 108.261C45.0541 108.629 45.4219 109.264 45.4888 110.033C45.4888 110.201 45.4888 110.334 45.4888 110.502C45.4888 110.502 45.4888 110.702 45.4888 110.769C45.4888 110.803 45.4888 110.836 45.4888 110.869C45.4888 110.903 45.4888 110.936 45.4888 110.97C45.4888 111.003 45.4888 111.037 45.4888 111.07C45.3551 111.572 45.0875 112.14 44.6193 112.675L44.5859 112.909Z" fill="#A27D3F"/>
<path d="M43.85 113.578C43.85 113.578 43.85 113.578 43.8166 113.611C43.8166 113.611 43.7497 113.645 43.7497 113.678L43.6494 113.745C43.5156 113.812 43.3818 113.812 43.2146 113.812C43.0808 113.812 42.9471 113.712 42.8467 113.611C42.7799 113.545 42.6795 113.444 42.6461 113.344C42.4454 112.842 42.6461 112.374 42.9805 111.973C42.713 111.973 42.4454 111.839 42.3117 111.638C42.1445 111.371 42.2782 111.07 42.412 110.836C42.5123 110.635 42.6461 110.468 42.7799 110.301C42.713 110.301 42.6461 110.267 42.5458 110.2C42.3786 110.1 42.1444 109.933 42.111 109.732C42.0441 109.498 42.2448 109.297 42.412 109.164C42.5792 109.03 42.7464 108.93 42.9136 108.863C42.5123 108.695 42.1445 108.428 42.0441 107.993C42.0441 107.893 42.0441 107.826 42.0441 107.726C42.0441 107.592 42.0776 107.458 42.1779 107.358C42.2113 107.291 42.2782 107.224 42.3451 107.19C42.4454 107.19 42.5123 107.224 42.6126 107.257C42.5123 107.324 42.412 107.391 42.3785 107.491C42.3117 107.592 42.3117 107.659 42.3117 107.759C42.3117 107.859 42.3117 107.926 42.3785 108.027C42.5458 108.428 42.9805 108.595 43.3149 108.762C43.3818 108.796 43.3818 108.93 43.3149 108.963C43.1143 109.03 42.9471 109.13 42.7799 109.231C42.6461 109.331 42.4789 109.431 42.412 109.598C42.3451 109.766 42.5792 109.899 42.713 110C42.8133 110.067 42.9805 110.167 43.1143 110.067C43.2146 110 43.3484 110.133 43.2481 110.234C43.0809 110.368 42.9136 110.568 42.7799 110.769C42.6795 110.936 42.5123 111.204 42.5458 111.438C42.6127 111.739 43.0474 111.872 43.3149 111.739C43.3484 111.705 43.4153 111.638 43.4487 111.605C43.5156 111.538 43.6828 111.605 43.6159 111.705C43.5825 111.772 43.5156 111.806 43.4822 111.839C43.1477 112.173 42.8467 112.608 42.9471 113.11C42.9471 113.277 43.0474 113.411 43.2146 113.511C43.2481 113.511 43.315 113.578 43.3818 113.578C43.5825 113.645 43.7831 113.578 43.8835 113.411C43.9503 113.311 44.1176 113.411 44.0507 113.545L43.85 113.578Z" fill="#B1925E"/>
<path d="M40.8404 115.083C40.8404 115.083 40.6732 115.117 40.6063 115.15C40.6063 115.15 40.6063 115.15 40.5728 115.117C40.4056 114.949 40.3387 114.715 40.3722 114.481C40.3722 114.314 40.4725 114.18 40.5394 114.046C40.3722 114.046 40.205 114.046 40.0378 113.98C39.7368 113.879 39.4024 113.746 39.2017 113.478C38.8004 112.976 39.2686 112.475 39.7702 112.14C39.7702 112.14 39.7033 112.14 39.6699 112.14C39.4358 112.073 39.2351 111.906 39.2017 111.672C39.2017 111.405 39.3355 111.204 39.5027 111.003C39.6364 110.869 39.7702 110.736 39.9374 110.602C39.6364 110.602 39.3355 110.602 39.0679 110.535C38.9007 110.468 38.7335 110.401 38.6332 110.234C38.5663 110.1 38.5997 109.933 38.6332 109.799C38.8673 109.231 39.4024 108.796 40.0043 108.595C39.7702 108.495 39.5361 108.361 39.3355 108.194C39.1348 108.027 38.9676 107.86 38.9007 107.626C38.8338 107.391 38.9007 107.191 39.0679 107.024C39.2017 107.024 39.3355 107.024 39.4692 107.024C39.4023 107.057 39.302 107.09 39.2351 107.157C39.1014 107.291 39.0679 107.458 39.1348 107.626C39.1348 107.626 39.1348 107.659 39.1348 107.692C39.2351 107.893 39.4358 108.027 39.603 108.161C39.8371 108.328 40.0712 108.462 40.3387 108.528C40.4391 108.562 40.4056 108.696 40.3387 108.729C39.7368 108.863 39.2017 109.231 38.9007 109.766C38.8338 109.866 38.7669 110.033 38.8004 110.167C38.8673 110.301 39.1014 110.368 39.2351 110.401C39.5696 110.468 39.904 110.401 40.2719 110.401C40.3722 110.401 40.4391 110.535 40.3387 110.602C40.1381 110.736 39.9374 110.903 39.7702 111.07C39.6365 111.204 39.4692 111.371 39.4024 111.572C39.3355 111.806 39.5027 111.973 39.7368 112.006C39.9374 112.006 40.1715 111.94 40.3722 111.873C40.506 111.806 40.5728 112.006 40.4391 112.073C40.1046 112.207 39.8037 112.408 39.5361 112.642C39.302 112.843 39.1014 113.144 39.3355 113.445C39.5027 113.645 39.7702 113.779 40.0043 113.846C40.2384 113.913 40.5728 113.98 40.7735 113.779C40.8738 113.679 41.041 113.779 40.9407 113.913C40.8069 114.08 40.6397 114.281 40.5728 114.481C40.5728 114.481 40.5728 114.515 40.5728 114.548C40.5394 114.749 40.6063 114.949 40.7735 115.083C40.7735 115.083 40.8404 115.117 40.8404 115.15V115.083Z" fill="#B1925E"/>
<path d="M38.5326 115.485C38.5326 115.485 38.5326 115.485 38.4992 115.485C38.4323 115.485 38.3654 115.485 38.3319 115.485C38.2651 115.485 38.2316 115.485 38.1647 115.485C38.1647 115.485 38.1647 115.485 38.1313 115.485C38.0644 115.485 38.031 115.485 37.9641 115.485C37.8972 115.485 37.8303 115.451 37.7969 115.418C37.3955 115.251 37.0277 115.083 36.6933 114.883C36.5595 114.816 36.3588 114.715 36.2251 114.582C36.1247 114.481 36.0913 114.381 36.1247 114.281C36.1247 114.247 36.1582 114.18 36.2251 114.18C36.8939 114.147 37.5962 114.113 38.2316 113.946C37.8638 113.946 37.4959 113.879 37.128 113.812C36.6598 113.746 36.1582 113.612 35.7234 113.411C35.5562 113.344 35.389 113.244 35.389 113.077C35.389 112.91 35.5562 112.809 35.69 112.776C35.8906 112.709 36.1582 112.742 36.3588 112.709C36.5929 112.709 36.827 112.642 37.0277 112.609C37.3956 112.542 37.7634 112.441 38.0978 112.341C37.8303 112.274 37.5293 112.241 37.2283 112.207C36.827 112.174 36.4257 112.14 36.0578 112.073C35.6565 112.007 35.2552 111.906 34.8874 111.806C34.6867 111.772 34.4861 111.706 34.3188 111.672C34.1516 111.639 34.0178 111.572 33.8841 111.471C33.8172 111.405 33.8506 111.304 33.951 111.304C34.9542 111.171 35.9575 110.936 36.9274 110.602C35.69 110.468 34.4192 110.301 33.1818 110.067C33.1149 110.067 33.048 109.933 33.1483 109.866C34.2854 109.231 35.6231 109.164 36.8605 108.83C36.3254 108.83 35.8237 108.763 35.2887 108.662C34.9542 108.629 34.6532 108.562 34.3523 108.529C34.4526 108.462 34.5529 108.428 34.6867 108.361C35.0211 108.428 35.389 108.462 35.7234 108.495C36.2919 108.562 36.8939 108.629 37.4624 108.629C37.5628 108.629 37.5628 108.796 37.4624 108.83C36.1916 109.298 34.7536 109.298 33.5162 109.866C34.8205 110.067 36.0913 110.268 37.3956 110.368C37.4959 110.368 37.4959 110.535 37.3956 110.569C36.3588 110.97 35.3221 111.237 34.2185 111.405C34.3188 111.405 34.4192 111.438 34.486 111.471C34.6867 111.505 34.8873 111.572 35.088 111.605C35.4559 111.706 35.8238 111.772 36.2251 111.839C36.9608 111.973 37.7634 111.94 38.4657 112.207C38.5326 112.241 38.5326 112.374 38.4657 112.408C38.031 112.575 37.5962 112.675 37.1615 112.776C36.7601 112.843 36.3588 112.91 35.9575 112.943C35.8572 112.943 35.389 113.01 35.6565 113.177C35.8237 113.277 36.0244 113.344 36.2251 113.411C37.0611 113.679 37.9306 113.746 38.8001 113.779C38.9005 113.779 38.9005 113.946 38.8001 113.98C37.9975 114.281 37.128 114.348 36.2919 114.381C36.3588 114.481 36.526 114.548 36.5929 114.615C36.5929 114.615 36.6264 114.615 36.6598 114.649C36.6598 114.649 36.9274 114.816 37.0611 114.883C37.3956 115.05 37.6965 115.184 38.0309 115.317C38.1982 115.384 38.3654 115.451 38.5326 115.485Z" fill="#B1925E"/>
<path d="M34.3856 113.143C33.6165 113.244 32.8138 113.311 32.0112 113.311C31.7771 113.311 31.543 113.311 31.3089 113.311C31.5765 113.545 31.9109 113.745 32.2119 113.946C32.5797 114.147 32.981 114.347 33.3824 114.548C33.282 114.515 33.1817 114.448 33.0814 114.414C32.9811 114.381 32.8807 114.314 32.7804 114.28C32.6801 114.247 32.6132 114.18 32.5129 114.147C32.3791 114.08 32.2788 114.046 32.145 113.979C32.1116 113.979 32.0447 113.946 32.0112 113.913C32.0112 113.913 32.0112 113.913 31.9778 113.913C31.9443 113.913 31.8775 113.846 31.8106 113.846C31.543 113.712 31.3089 113.545 31.0414 113.411C31.0414 113.411 30.9745 113.344 30.9411 113.311C30.8742 113.244 30.9411 113.143 31.0414 113.143C31.2086 113.143 31.3424 113.143 31.5096 113.143C32.2119 113.143 32.9142 113.143 33.6165 113.077C33.1817 113.01 32.747 112.909 32.3122 112.809C31.7437 112.675 31.2086 112.475 30.6735 112.24C30.406 112.107 30.1384 111.973 29.8709 111.839C29.7371 111.739 29.4696 111.605 29.6034 111.404C29.7037 111.204 30.0715 111.204 30.2722 111.17C30.5732 111.103 30.8742 111.07 31.1752 111.003L32.2788 110.802C31.7771 110.736 31.2755 110.669 30.7738 110.535C30.5063 110.468 30.2388 110.435 30.0047 110.368C30.1384 110.334 30.2722 110.301 30.406 110.234C30.6735 110.301 30.9411 110.368 31.2086 110.401C31.8106 110.501 32.4125 110.602 33.0145 110.669C33.1483 110.669 33.1148 110.869 33.0145 110.869C32.4125 110.97 31.8106 111.07 31.2086 111.204C30.9411 111.237 30.6735 111.304 30.406 111.337C30.2722 111.337 30.1384 111.371 30.0047 111.404C29.9712 111.404 29.8709 111.404 29.804 111.471C29.7706 111.505 29.804 111.538 29.8374 111.572C30.2722 111.873 30.7738 112.073 31.242 112.274C32.2453 112.642 33.2821 112.842 34.3188 113.01C34.4525 113.01 34.4191 113.21 34.3188 113.21L34.3856 113.143Z" fill="#B1925E"/>
<path opacity="0.46" d="M44.586 112.909C44.586 112.909 44.3519 113.143 44.2516 113.277C44.1178 113.411 43.9841 113.511 43.8168 113.645C43.8168 113.645 43.75 113.678 43.75 113.712L43.6496 113.779C43.6162 113.779 43.5828 113.846 43.5159 113.879C43.5159 113.879 43.4824 113.879 43.449 113.912C43.449 113.912 43.449 113.912 43.4155 113.912C43.4155 113.912 43.4155 113.912 43.3821 113.912C43.2818 113.979 43.2149 114.046 43.1145 114.08C43.0477 114.113 42.9473 114.18 42.8805 114.213C42.8805 114.213 42.847 114.213 42.8136 114.213C42.7467 114.247 42.6798 114.28 42.6129 114.314C42.546 114.314 42.4791 114.381 42.4123 114.414C42.3454 114.448 42.245 114.481 42.1782 114.514C42.0778 114.548 41.9775 114.615 41.8437 114.648C41.7434 114.682 41.6096 114.749 41.5093 114.782C41.409 114.815 41.3086 114.849 41.1749 114.882C41.0411 114.916 40.9073 114.949 40.7735 114.983C40.7067 114.983 40.6063 115.016 40.5395 115.05C40.5395 115.05 40.506 115.05 40.4726 115.05C40.4057 115.05 40.3388 115.05 40.3054 115.083C40.3054 115.083 40.3054 115.083 40.2719 115.083C40.205 115.083 40.1047 115.116 40.0378 115.15C40.0378 115.15 40.0378 115.15 40.0044 115.15C39.9375 115.15 39.904 115.15 39.8372 115.15C39.8372 115.15 39.8037 115.15 39.7703 115.15C39.7034 115.15 39.6031 115.15 39.5362 115.183C39.369 115.183 39.2017 115.25 39.0011 115.25C38.9008 115.25 38.8339 115.25 38.7336 115.25C38.6667 115.25 38.6332 115.25 38.5663 115.25C38.5329 115.25 38.4995 115.25 38.4326 115.25C38.4326 115.25 38.4326 115.25 38.3991 115.25C38.3322 115.25 38.2654 115.25 38.2319 115.25C38.165 115.25 38.1316 115.25 38.0647 115.25C38.0647 115.25 38.0647 115.25 38.0313 115.25C37.9644 115.25 37.9309 115.25 37.8641 115.25C37.8641 115.25 37.7972 115.25 37.7637 115.25C37.329 115.25 36.8608 115.217 36.426 115.15C36.3257 115.15 36.2588 115.15 36.1585 115.116C36.0916 115.116 36.0582 115.116 35.9913 115.116C35.8909 115.116 35.8241 115.116 35.7237 115.05C35.6568 115.05 35.5899 115.05 35.5231 115.016C35.4896 115.016 35.4562 115.016 35.4227 115.016C35.2555 114.983 35.1218 114.949 34.9545 114.882C34.8877 114.882 34.8208 114.849 34.7539 114.815C34.2857 114.682 33.8175 114.514 33.3493 114.314C33.249 114.28 33.1486 114.213 33.0483 114.18C32.948 114.147 32.8477 114.08 32.7473 114.046C32.647 114.013 32.5801 113.946 32.4798 113.912C32.346 113.846 32.2457 113.812 32.1119 113.745C32.0785 113.745 32.0116 113.712 31.9781 113.678C31.9781 113.678 31.9781 113.678 31.9447 113.678C31.9113 113.678 31.8444 113.612 31.7775 113.612C31.51 113.478 31.2758 113.311 31.0083 113.177C31.0083 113.177 30.9414 113.177 30.908 113.143C30.8411 113.143 30.8076 113.076 30.7408 113.043C30.6739 113.01 30.607 112.976 30.5401 112.909C30.4398 112.842 30.3395 112.775 30.2391 112.709C30.1054 112.642 30.005 112.541 29.8713 112.474C29.7041 112.341 29.5034 112.24 29.3362 112.107C29.3027 112.107 29.2693 112.04 29.2359 112.006C28.8345 111.705 28.4667 111.438 28.0988 111.103C28.0988 111.103 28.1322 111.137 28.1657 111.17C28.1657 111.17 29.5703 112.073 31.4765 112.943C31.4765 112.943 31.7775 113.076 31.9447 113.143C32.7808 113.511 33.7172 113.846 34.6536 114.113C35.1552 114.247 35.6234 114.347 36.0916 114.414C36.2588 114.414 36.426 114.448 36.5598 114.481C37.9309 114.615 39.2018 114.481 40.2719 114.28C40.3388 114.28 40.4391 114.28 40.506 114.247C41.5093 114.013 42.3119 113.712 42.7801 113.478C42.847 113.444 42.9139 113.411 42.9808 113.377C42.9808 113.377 43.0142 113.377 43.0476 113.344C44.1513 112.675 44.7532 111.572 45.489 110.568C45.489 110.669 45.489 110.735 45.489 110.836C45.489 110.869 45.489 110.903 45.489 110.936C45.489 110.97 45.489 111.003 45.489 111.036C45.489 111.07 45.489 111.103 45.489 111.137C45.3552 111.638 45.0877 112.207 44.6195 112.742L44.586 112.909Z" fill="#8E6217"/>
<g style="mix-blend-mode:screen" opacity="0.25">
<path d="M45.5223 110.234C45.4219 109.9 44.4521 108.261 42.178 107.793C42.1111 107.793 42.0442 107.793 41.9773 107.759C41.8101 107.726 41.6095 107.692 41.4088 107.692C40.74 107.626 40.0711 107.525 39.1347 107.592C39.0678 107.592 39.001 107.592 38.9341 107.592C38.098 107.659 37.0278 107.893 35.5898 108.462C35.456 108.529 35.3223 108.562 35.1885 108.629C34.5865 108.863 33.9177 109.164 33.1485 109.532C32.6134 109.799 31.978 110.067 31.2423 110.334C31.2423 110.334 30.9747 110.435 30.841 110.468C29.938 110.736 28.9682 110.936 27.8646 110.97C27.9314 110.97 28.9682 110.602 30.0718 110.268C30.2055 110.234 30.3393 110.201 30.4731 110.134C30.4731 110.134 30.6737 110.067 30.7406 110.033C31.8442 109.699 33.0147 109.064 34.2521 108.428C34.3524 108.361 34.4527 108.328 34.5865 108.261C35.5229 107.793 36.4927 107.392 37.5629 107.157C38.098 107.024 38.5996 106.957 39.1013 106.923C39.235 106.923 39.3688 106.923 39.5026 106.923C40.5393 106.89 41.4757 106.99 42.2783 107.191C42.3787 107.191 42.4455 107.224 42.5459 107.258C43.6495 107.559 44.4855 108.027 44.82 108.462C45.121 108.83 45.4888 109.465 45.5557 110.234H45.5223Z" fill="#BCA276"/>
</g>
<path d="M52.3112 109.732H50.7059L50.2377 108.695C50.2377 108.695 51.542 109.163 52.3446 109.732H52.3112Z" fill="#BBA173"/>
<path d="M52.8123 107.792C52.8123 107.792 52.4778 107.859 52.1434 107.993C51.9762 108.06 51.809 108.16 51.6752 108.294C51.5414 108.428 51.4411 108.595 51.4411 108.829C51.4411 108.829 51.508 108.996 51.6083 108.996C51.6752 108.996 51.7421 108.929 51.7421 108.829C51.7421 108.829 51.809 108.595 51.8759 108.494C52.0096 108.361 52.2772 108.227 52.4778 108.16C52.5781 108.127 52.6785 108.093 52.7454 108.093C52.7788 108.093 52.8123 108.093 52.8123 108.093C52.8123 108.093 52.946 107.993 52.946 107.926C52.946 107.859 52.8457 107.792 52.7788 107.792H52.8123Z" fill="#D2C1A3"/>
<path d="M51.3411 109.23C51.3411 109.23 51.3411 109.832 51.2074 110.3C51.1405 110.534 51.0402 110.769 50.9064 110.936C50.7726 111.103 50.6054 111.237 50.3378 111.304C49.9031 111.404 49.6356 111.571 49.4684 111.772C49.3011 111.973 49.2343 112.207 49.2343 112.407C49.2343 112.675 49.3346 112.842 49.3346 112.875C49.368 112.942 49.4683 112.976 49.5352 112.942C49.6021 112.909 49.6356 112.809 49.6021 112.742C49.6021 112.742 49.5352 112.574 49.5352 112.407C49.5352 112.274 49.5687 112.106 49.7024 111.973C49.8362 111.839 50.0369 111.672 50.4047 111.605C50.7057 111.538 50.9398 111.337 51.1405 111.136C51.408 110.802 51.5083 110.367 51.5752 109.999C51.6421 109.632 51.6421 109.331 51.6421 109.23C51.6421 109.23 51.5752 109.063 51.4749 109.063C51.408 109.063 51.3411 109.13 51.3411 109.23Z" fill="#D2C1A3"/>
<path d="M52.8461 110.133C52.01 109.364 50.2042 108.695 50.2042 108.695L51.3746 108.494C51.3746 108.494 52.8461 109.397 52.8127 110.166L52.8461 110.133Z" fill="#D0BD9E"/>
<path d="M49.1005 107.525C49.0002 107.726 48.7995 107.893 48.5654 107.926C48.3647 107.96 48.1641 107.926 47.9634 107.859C47.4952 107.659 47.2611 107.191 47.4618 106.789C47.6624 106.388 48.1307 106.254 48.5989 106.455C48.7995 106.555 48.9667 106.689 49.067 106.856C49.2008 107.057 49.2343 107.291 49.1339 107.525H49.1005Z" fill="white"/>
<path d="M49.1002 107.525C48.9999 107.726 48.7992 107.893 48.5651 107.926C48.4314 107.926 47.6956 107.592 47.9966 106.99C48.2976 106.388 48.933 106.756 49.0333 106.856C49.1671 107.057 49.2006 107.291 49.1002 107.525Z" fill="black"/>
<path d="M48.8994 107.291C48.8994 107.291 48.5649 107.291 48.6318 107.157C48.6987 107.023 48.6653 106.956 48.799 107.023C48.9328 107.09 48.9662 107.191 48.9328 107.291H48.8994Z" fill="white"/>
<path d="M41.5761 123.477C41.5761 123.477 40.3387 123.644 39.8371 122.842C39.3354 122.039 39.0679 120.099 39.0679 120.099C39.0679 120.099 38.6666 120.267 37.9643 119.799C37.9643 119.799 38.8004 121.571 38.9007 122.842C38.9007 122.842 38.9007 122.808 38.8672 122.808C38.7335 122.708 38.5328 122.741 38.4325 122.842C38.3656 122.909 38.3656 122.976 38.3656 123.076C38.3656 123.143 38.4325 123.243 38.4994 123.277C38.5663 123.343 38.6332 123.377 38.7335 123.41C38.8004 123.444 38.8673 123.477 38.9676 123.511C39.0345 123.511 39.1348 123.544 39.2017 123.544C39.7033 123.812 40.7735 124.347 41.3086 124.313C41.3086 124.313 42.0777 124.079 41.643 123.544L41.5761 123.477Z" fill="#B29460"/>
<path d="M35.3892 119.364C35.3892 119.364 34.7203 119.23 34.4528 119.096C34.1852 118.962 33.9846 118.895 33.9846 118.895C34.1852 118.394 34.2521 117.457 34.2521 117.457C34.2521 117.457 34.0515 117.457 33.9177 117.357C33.7839 117.257 33.5164 117.156 33.5164 117.156C33.5164 117.156 33.6836 117.859 33.6836 117.926C33.6836 118.16 33.483 118.628 33.4495 118.795C33.3492 118.795 33.2823 118.427 33.0147 118.661C32.881 118.762 32.9144 119.029 33.2488 119.163C33.4829 119.263 33.7505 119.33 33.9177 119.464C34.0849 119.598 34.7203 120.066 35.222 120.066C35.3223 120.066 35.4226 119.966 35.4561 119.865C35.6902 119.765 35.6902 119.364 35.3892 119.33V119.364Z" fill="#B29460"/>
<g style="mix-blend-mode:screen" opacity="0.25">
<path d="M49.6018 104.248C48.6654 104.014 47.9966 103.278 45.6221 104.047C44.6857 104.348 43.9166 104.917 43.4484 106.187C43.4484 106.187 42.6123 106.121 41.9769 106.154C41.3415 106.187 39.9703 106.422 39.87 106.422C40.9736 106.02 42.1107 105.786 43.2143 105.886C43.2143 105.753 43.2811 105.652 43.348 105.519C43.348 105.452 43.4149 105.418 43.4149 105.351C44.3179 103.612 46.8261 103.01 48.8661 103.88C49.1336 103.98 49.3677 104.114 49.5684 104.248H49.6018Z" fill="#BCA276"/>
</g>
<path d="M51.0399 105.786L50.9396 105.485C50.8392 104.849 50.7389 104.08 50.672 103.88C50.6052 103.679 50.5048 103.478 50.2707 103.545C50.1369 103.612 50.0701 103.679 50.0701 103.98C50.0701 104.381 50.4045 105.318 51.0399 105.786Z" fill="#A27D3F"/>
<path d="M51.074 105.853C51.074 104.816 51.2077 104.515 51.4753 103.813C51.5756 103.579 51.6425 103.144 51.3081 103.111C50.9736 103.077 50.7396 103.412 50.6727 103.746C50.6058 103.98 50.6392 104.682 50.773 105.184C50.8399 105.385 50.8733 105.752 51.074 105.853Z" fill="#A27D3F"/>
<path d="M50.973 105.719C50.8392 104.95 50.7723 104.749 50.8726 104.214C50.9061 104.014 50.9395 103.713 50.672 103.746C50.4713 103.746 50.4379 104.047 50.4044 104.315C50.371 104.749 50.7723 105.385 50.9395 105.719H50.973Z" fill="#9E7938"/>
<path d="M65.6879 100.636L65.9554 100.469C66.5239 100.101 67.1259 99.6325 67.3266 99.5322C67.5272 99.4318 67.7613 99.365 67.7947 99.5322C67.8282 99.6325 67.7948 99.7328 67.5941 99.9C67.2931 100.168 66.3902 100.636 65.6544 100.636H65.6879Z" fill="#9D7736"/>
<path d="M65.2868 107.324C65.2868 107.324 65.3537 107.391 65.3871 107.425C64.9858 108.127 64.7517 108.93 64.6514 109.799C64.6514 109.9 64.6514 109.966 64.6514 110.067C64.5845 111.103 64.7517 112.207 65.153 113.311C65.2868 113.679 65.4206 114.046 65.6212 114.381C66.4238 115.953 67.6947 117.391 69.4003 118.327C69.534 118.996 69.7012 119.799 69.9019 120.066C70.2363 120.501 70.6042 120.902 71.4068 120.635C71.8416 120.467 72.3766 119.899 72.8114 119.397C73.7143 119.498 74.6842 119.531 75.7209 119.531C75.7878 119.832 75.8881 120.066 75.9885 120.166C76.256 120.467 76.9917 120.434 77.3596 120.233C77.5602 120.133 77.9281 119.732 78.1957 119.33C78.9314 119.23 79.6672 119.096 80.3026 118.929C81.1721 120.434 82.7104 123.143 84.2822 125.919C86.6232 130.099 87.4258 129.463 87.7603 129.096C88.1281 128.728 87.6265 127.256 87.6934 127.022C87.7603 126.788 87.6265 126.22 89.5327 127.189C91.4389 128.159 90.536 126.253 90.536 126.253C90.536 126.253 90.2685 125.919 89.8337 125.417C88.2619 123.511 84.5163 118.996 83.6468 117.959C82.5432 116.622 79.8009 111.672 78.8645 110.368C78.0285 109.197 77.159 107.926 76.1222 106.823C75.2527 105.886 74.2829 105.084 73.1458 104.649C73.1458 104.515 73.2127 104.382 73.2127 104.214C73.2127 104.147 73.2127 104.081 73.2127 104.014C73.2127 101.907 71.0724 100.034 68.6645 99.9002C68.3635 99.9002 68.0625 99.9002 67.795 99.9002C66.8586 100.001 66.0226 100.368 65.3537 100.937C65.153 101.104 64.9858 101.271 64.8186 101.472C64.317 102.074 64.016 102.81 63.9491 103.612C63.8822 104.582 64.1498 105.719 64.7183 106.622C64.8855 106.923 65.0862 107.191 65.3203 107.391L65.2868 107.324Z" fill="#A17C3D"/>
<path d="M63.9488 103.512C63.8819 104.482 64.1494 105.619 64.718 106.522C64.8852 106.823 65.0858 107.09 65.3199 107.291C65.3199 107.291 65.3868 107.358 65.4203 107.391C65.4203 107.391 65.6878 106.054 65.3534 104.984C64.718 103.077 65.9553 101.806 67.3934 101.84C68.9986 101.84 69.4668 102.743 69.1993 103.947C68.8983 105.285 66.1894 104.415 65.4203 107.391C65.4203 107.391 67.8616 106.589 69.0989 105.92C70.3363 105.251 71.7409 103.412 70.1691 101.606C68.4635 99.6661 65.7547 100.603 64.7848 101.372C64.2832 101.974 63.9822 102.709 63.9153 103.512H63.9488Z" fill="#B0915B"/>
<path d="M64.6515 110.067C64.5846 111.103 64.7518 112.207 65.1531 113.31C65.2869 113.678 65.4206 114.046 65.6213 114.381C66.4239 115.952 67.6948 117.39 69.4003 118.327C69.5341 118.996 69.7013 119.798 69.902 120.066C70.2364 120.501 70.6043 120.902 71.4069 120.634C71.8416 120.467 72.3767 119.899 72.8115 119.397C73.7144 119.497 74.6843 119.531 75.721 119.531C75.7879 119.832 75.8882 120.066 75.9885 120.166C76.2561 120.467 76.9918 120.434 77.3597 120.233C77.5603 120.133 77.9282 119.731 78.1957 119.33C78.9315 119.23 79.6672 119.096 80.3026 118.929C80.4364 116.521 66.7918 112.107 66.357 110.903C65.9223 109.732 64.7852 109.799 64.7184 109.799C64.7184 109.899 64.7184 109.966 64.7184 110.067H64.6515Z" fill="#C1A97F"/>
<path opacity="0.46" d="M65.3872 107.391C64.9524 108.194 64.6849 109.097 64.618 110.033C64.5511 111.07 64.7184 112.174 65.1197 113.277C65.1866 113.478 65.2869 113.679 65.3538 113.846C65.4207 114.013 65.521 114.18 65.5879 114.347C66.3905 115.919 67.6613 117.357 69.3669 118.294C69.5006 118.962 69.6679 119.765 69.8685 120.033C70.2029 120.467 70.5708 120.869 71.3734 120.601C71.8082 120.434 72.3433 119.865 72.778 119.364C73.681 119.464 74.6508 119.498 75.6875 119.498C75.7544 119.799 75.8548 120.033 75.9551 120.133C76.2226 120.434 76.9583 120.4 77.3262 120.2C77.5269 120.1 77.8947 119.665 78.1623 119.297C78.898 119.197 79.6338 119.063 80.2692 118.896C81.1387 120.401 82.677 123.109 84.2488 125.885C86.5898 130.065 87.3924 129.43 87.7269 129.062C88.0947 128.694 87.5931 127.223 87.66 126.989C87.7269 126.755 87.5931 126.186 89.5328 127.156C91.439 128.126 90.5361 126.22 90.5361 126.22C90.5361 126.22 90.2685 125.885 89.8338 125.383C89.9007 125.45 89.9341 125.517 89.9675 125.584C90.1013 125.751 90.2016 125.952 90.302 126.153C90.3689 126.253 90.4023 126.387 90.4357 126.52C90.4357 126.587 90.4357 126.688 90.4357 126.755C90.4357 126.821 90.4357 126.855 90.3688 126.922C90.3688 126.922 90.3688 126.922 90.3688 126.955H90.302H90.2351H90.1682H90.1347C90.1347 126.955 90.001 126.955 89.9675 126.955C89.9675 126.955 89.9675 126.955 89.9341 126.955C89.9007 126.955 89.8672 126.922 89.8338 126.922C89.8338 126.922 89.8003 126.922 89.7669 126.922C89.7669 126.922 89.7334 126.922 89.7 126.888C89.7 126.888 89.6331 126.855 89.5997 126.855C89.4659 126.755 89.3321 126.654 89.1984 126.587C88.7636 126.32 87.7269 125.885 87.5262 126.587C87.359 127.223 87.4594 127.892 87.4594 128.527C87.4594 128.561 87.4594 128.594 87.4594 128.661C87.4594 128.728 87.4593 128.795 87.3925 128.861C87.3925 128.861 87.3925 128.861 87.3925 128.895C87.3925 128.895 87.3925 128.895 87.3925 128.928C87.3925 128.928 87.3924 128.928 87.359 128.928C87.2587 128.928 87.1584 128.861 87.058 128.828C86.7236 128.46 86.4226 128.025 86.1216 127.624C85.5531 126.821 85.0515 125.952 84.5164 125.116C83.4797 123.444 82.4095 121.805 81.3728 120.133C81.3728 120.066 81.3059 120.033 81.3059 119.966C81.1387 119.598 81.0049 119.197 80.7374 118.929C80.637 118.829 80.5367 118.795 80.4364 118.762C80.1688 118.628 79.7675 118.695 79.4666 118.762C79.1656 118.762 78.8311 118.762 78.5636 118.795C77.9616 118.795 77.3262 118.795 76.6908 118.795C75.42 118.728 74.1157 118.628 72.8449 118.394C72.2764 118.294 71.7079 118.193 71.1728 118.06C70.8384 117.926 70.4705 117.792 70.1361 117.658C69.6344 117.391 69.1328 117.09 68.6646 116.755C67.7282 115.953 66.9925 114.983 66.3236 113.946C65.4207 111.906 64.9525 109.632 65.822 107.525C65.8554 107.458 65.822 107.358 65.7885 107.258C65.4541 107.057 65.0862 106.823 64.7852 106.555C64.9859 106.89 65.22 107.191 65.4875 107.425L65.3872 107.391Z" fill="#8C5F12"/>
<path d="M68.3633 110.702C68.3633 110.702 68.4637 111.037 68.5306 111.204C68.5975 111.371 68.6643 111.572 68.7647 111.739C68.7647 111.772 68.7981 111.806 68.8316 111.839C68.8316 111.839 68.865 111.906 68.8984 111.973C68.8984 112.007 68.9319 112.073 68.9653 112.107C68.9653 112.107 68.9653 112.14 68.9988 112.174C68.9988 112.174 68.9988 112.174 68.9988 112.207C68.9988 112.207 68.9988 112.207 68.9988 112.241C69.0657 112.341 69.0991 112.441 69.166 112.542C69.2329 112.609 69.2663 112.709 69.3332 112.776C69.3332 112.776 69.3332 112.809 69.3666 112.843C69.4001 112.909 69.467 112.976 69.5004 113.043C69.5339 113.11 69.6007 113.177 69.6342 113.244C69.7011 113.311 69.7345 113.378 69.8014 113.478C69.8683 113.578 69.9686 113.679 70.0355 113.779C70.1358 113.879 70.2027 113.98 70.303 114.08C70.4034 114.18 70.4702 114.247 70.5706 114.348C70.6709 114.448 70.7712 114.548 70.8715 114.649C70.9384 114.715 71.0053 114.782 71.0722 114.816C71.0722 114.816 71.0722 114.816 71.1057 114.849C71.1391 114.883 71.206 114.949 71.2729 114.983C71.2729 114.983 71.2729 114.983 71.3063 114.983C71.3732 115.05 71.4401 115.083 71.507 115.15C71.507 115.15 71.507 115.15 71.5404 115.15C71.5739 115.184 71.6407 115.217 71.6742 115.25C71.6742 115.25 71.6742 115.25 71.7076 115.284C71.7745 115.351 71.8414 115.384 71.9417 115.451C72.1089 115.551 72.2427 115.685 72.4099 115.786C72.4768 115.819 72.5771 115.886 72.644 115.919C72.6775 115.919 72.7444 115.986 72.7778 116.02C72.8112 116.02 72.8447 116.053 72.8781 116.087C72.945 116.12 72.9784 116.153 73.0453 116.187C73.1122 116.187 73.1457 116.254 73.2125 116.287C73.2125 116.287 73.2126 116.287 73.246 116.287C73.2794 116.287 73.3463 116.354 73.3797 116.354C73.3797 116.354 73.4466 116.388 73.4801 116.421C73.9148 116.622 74.3496 116.822 74.8512 116.99C74.9516 116.99 75.0519 117.056 75.1188 117.09C75.1857 117.09 75.2526 117.123 75.286 117.157C75.3863 117.157 75.4532 117.224 75.5535 117.224C75.6204 117.224 75.6873 117.257 75.7876 117.29C75.8211 117.29 75.8545 117.29 75.9214 117.29C76.0886 117.324 76.2558 117.357 76.423 117.391C76.4899 117.391 76.5902 117.391 76.6571 117.424C77.1922 117.525 77.6939 117.591 78.2624 117.625C78.3962 117.625 78.4965 117.625 78.6303 117.625C78.7306 117.625 78.8644 117.625 78.9647 117.625C79.065 117.625 79.1988 117.625 79.2991 117.625C79.4329 117.625 79.6001 117.625 79.7338 117.625C79.8007 117.625 79.8342 117.625 79.9011 117.625C79.9011 117.625 79.9345 117.625 79.9679 117.625C80.0348 117.625 80.1017 117.625 80.1686 117.625C80.4696 117.625 80.804 117.625 81.1385 117.591C81.1385 117.591 81.2053 117.591 81.2388 117.591C81.3057 117.591 81.3725 117.591 81.4394 117.591C81.5398 117.591 81.6066 117.591 81.707 117.591C81.8407 117.591 81.9411 117.591 82.0748 117.558C82.2421 117.558 82.3758 117.525 82.543 117.491C82.7771 117.491 83.0112 117.424 83.2453 117.391C83.3122 117.391 83.3456 117.391 83.4125 117.391C83.9142 117.29 84.4493 117.19 84.9509 117.09C84.9509 117.09 85.0512 117.09 85.1181 117.056C85.2184 117.056 85.3188 117.023 85.4191 116.99C85.3522 116.923 84.5162 116.087 83.6467 115.217C83.5463 115.117 83.446 115.016 83.3122 114.916C83.3122 114.916 83.145 114.782 83.0781 114.682C82.1752 113.812 81.3725 112.609 80.4696 111.405C80.4027 111.304 80.3024 111.204 80.2355 111.104C79.5666 110.201 78.8309 109.331 77.9279 108.562C77.4597 108.194 77.025 107.86 76.5568 107.559C76.423 107.492 76.2893 107.391 76.1889 107.325C75.2191 106.79 74.2492 106.422 73.3797 106.221C73.2794 106.221 73.1791 106.188 73.1122 106.154C71.8748 105.887 70.8716 105.953 70.303 106.154C69.8014 106.355 69.166 106.823 68.6978 107.492C68.5975 107.626 68.4971 107.793 68.4302 107.96C68.4302 107.96 68.3634 108.161 68.3299 108.228C68.3299 108.261 68.3299 108.294 68.2965 108.328C68.2965 108.361 68.2965 108.395 68.263 108.428C68.263 108.462 68.263 108.495 68.263 108.562C68.1293 109.13 68.1293 109.766 68.3299 110.535L68.3633 110.702Z" fill="#A17C3D"/>
<path d="M68.7316 111.706C68.7316 111.706 68.7316 111.739 68.7316 111.772C68.7316 111.772 68.7316 111.839 68.765 111.873L68.8319 111.973C68.9322 112.107 69.066 112.174 69.2332 112.241C69.4004 112.274 69.5342 112.308 69.7014 112.241C69.8352 112.241 69.9355 112.14 70.0358 112.073C70.4706 111.706 70.504 111.137 70.4037 110.602C70.6378 110.736 70.9722 110.736 71.2398 110.602C71.5407 110.435 71.5408 110.067 71.5408 109.766C71.5408 109.532 71.5073 109.298 71.4404 109.064C71.5073 109.064 71.6076 109.064 71.708 109.064C71.9086 109.064 72.2096 109.03 72.3768 108.829C72.544 108.629 72.4772 108.328 72.3768 108.127C72.2765 107.927 72.1762 107.759 72.0424 107.592C72.5106 107.592 72.9788 107.592 73.3132 107.191C73.3801 107.124 73.447 107.024 73.4804 106.957C73.5473 106.823 73.5473 106.689 73.5473 106.555C73.5473 106.489 73.5473 106.388 73.4804 106.321C73.3801 106.321 73.2798 106.288 73.2129 106.254C73.2798 106.355 73.3132 106.489 73.3467 106.589C73.3467 106.689 73.3467 106.789 73.2798 106.89C73.2463 106.99 73.1795 107.057 73.1126 107.124C72.7781 107.425 72.2765 107.391 71.8417 107.358C71.7414 107.358 71.6745 107.458 71.7414 107.559C71.8752 107.726 72.009 107.893 72.1093 108.094C72.1762 108.261 72.3099 108.428 72.2765 108.629C72.2765 108.829 71.9755 108.863 71.8083 108.863C71.6745 108.863 71.4739 108.863 71.3735 108.729C71.3067 108.595 71.106 108.729 71.1729 108.829C71.2732 109.064 71.3401 109.298 71.3735 109.565C71.3735 109.766 71.4404 110.134 71.2732 110.301C71.0726 110.535 70.5709 110.468 70.3703 110.201C70.3703 110.134 70.3368 110.067 70.3034 110C70.2699 109.9 70.0693 109.866 70.0693 110C70.0693 110.067 70.0693 110.134 70.1362 110.201C70.2699 110.702 70.3703 111.271 70.0358 111.706C69.9355 111.839 69.7683 111.94 69.6011 111.973C69.5342 111.973 69.4673 111.973 69.4004 111.973C69.1998 111.94 69.0326 111.772 68.9991 111.572C68.9991 111.438 68.765 111.471 68.765 111.605L68.7316 111.706Z" fill="#B0915B"/>
<path d="M70.9385 114.648C70.9385 114.648 71.0723 114.782 71.1392 114.816C71.1392 114.816 71.1726 114.816 71.2061 114.816C71.4402 114.715 71.6408 114.548 71.7077 114.281C71.7746 114.113 71.7746 113.946 71.7412 113.779C71.8749 113.879 72.0756 113.946 72.2428 113.98C72.5772 114.046 72.9785 114.08 73.313 113.913C73.9484 113.612 73.7477 112.943 73.4467 112.341C73.4467 112.341 73.5136 112.341 73.5471 112.341C73.7812 112.408 74.0821 112.341 74.2159 112.107C74.3497 111.873 74.3162 111.572 74.2159 111.304C74.149 111.104 74.0821 110.903 73.9818 110.702C74.2493 110.869 74.5503 111.003 74.8848 111.07C75.052 111.07 75.2861 111.104 75.4533 111.003C75.5871 110.903 75.6539 110.736 75.6539 110.568C75.7208 109.9 75.3864 109.197 74.9182 108.729C75.1858 108.729 75.4867 108.729 75.7543 108.662C76.0218 108.595 76.2894 108.495 76.4566 108.328C76.6238 108.127 76.6907 107.893 76.6238 107.659C76.49 107.592 76.3562 107.492 76.2559 107.425C76.3228 107.492 76.3562 107.592 76.3897 107.659C76.4566 107.86 76.3897 108.06 76.2559 108.194C76.2559 108.194 76.2225 108.227 76.189 108.261C75.9884 108.395 75.7543 108.462 75.4867 108.495C75.1858 108.528 74.8848 108.528 74.5838 108.495C74.45 108.495 74.45 108.629 74.5169 108.696C75.052 109.097 75.3864 109.732 75.4198 110.401C75.4198 110.535 75.4198 110.736 75.3195 110.836C75.1857 110.936 74.9182 110.869 74.7844 110.836C74.4166 110.736 74.1156 110.535 73.8146 110.334C73.7143 110.267 73.5805 110.368 73.6474 110.468C73.7812 110.702 73.8815 110.936 73.9818 111.204C74.0487 111.404 74.149 111.639 74.0822 111.873C74.0153 112.14 73.7812 112.207 73.5471 112.14C73.313 112.073 73.1458 111.873 73.012 111.705C72.9117 111.605 72.7444 111.739 72.8448 111.873C73.0789 112.174 73.2795 112.508 73.4133 112.876C73.5471 113.177 73.5805 113.578 73.2126 113.745C72.9451 113.846 72.6441 113.846 72.3766 113.812C72.109 113.779 71.7746 113.679 71.6743 113.378C71.6408 113.244 71.4067 113.277 71.4402 113.411C71.5071 113.645 71.5739 113.913 71.5071 114.147C71.5071 114.147 71.5071 114.18 71.5071 114.214C71.4402 114.414 71.273 114.582 71.0389 114.648C71.0054 114.648 70.972 114.648 70.9385 114.648Z" fill="#B0915B"/>
<path d="M72.9788 116.187C73.0457 116.22 73.0791 116.254 73.146 116.287C73.2129 116.287 73.2464 116.354 73.3132 116.387C73.3132 116.387 73.3133 116.387 73.3467 116.387C73.3801 116.387 73.447 116.454 73.4805 116.454C73.5474 116.454 73.6142 116.454 73.6811 116.454C74.1159 116.488 74.5841 116.488 75.0188 116.454C75.186 116.454 75.4201 116.454 75.6208 116.387C75.7546 116.354 75.8549 116.287 75.8883 116.153C75.8883 116.12 75.8883 116.053 75.8549 116.02C75.2195 115.652 74.5841 115.284 74.0155 114.782C74.3834 114.949 74.7513 115.083 75.1526 115.217C75.6542 115.384 76.1893 115.484 76.7244 115.518C76.8916 115.518 77.1257 115.518 77.226 115.351C77.3264 115.183 77.226 115.016 77.0923 114.916C76.925 114.749 76.691 114.648 76.4569 114.515C76.2562 114.381 76.0555 114.214 75.8549 114.08C75.5539 113.846 75.2529 113.545 74.9519 113.277C75.2529 113.344 75.5539 113.444 75.8549 113.578C76.2562 113.745 76.6575 113.879 77.0588 114.013C77.4936 114.147 77.8949 114.247 78.3296 114.347C78.5303 114.381 78.7644 114.448 78.9651 114.481C79.1323 114.515 79.2995 114.548 79.5001 114.481C79.6005 114.481 79.6339 114.347 79.5336 114.281C78.6306 113.645 77.7946 112.909 77.0254 112.107C78.2962 112.608 79.6004 113.043 80.9047 113.444C81.005 113.444 81.1054 113.378 81.0385 113.277C80.2693 112.073 78.9985 111.371 77.9618 110.435C78.4968 110.669 79.0319 110.869 79.567 111.07C79.9015 111.204 80.2359 111.304 80.5703 111.404C80.5034 111.304 80.4031 111.204 80.3362 111.103C79.9683 111.003 79.6005 110.869 79.266 110.736C78.6641 110.535 78.0955 110.267 77.4936 110C77.3932 109.966 77.2929 110.1 77.3598 110.201C78.3631 111.271 79.7342 111.973 80.6372 113.143C79.266 112.709 77.9283 112.241 76.6241 111.705C76.5237 111.672 76.4234 111.806 76.4903 111.906C77.2929 112.776 78.1959 113.578 79.1323 114.281C79.0319 114.281 78.9316 114.247 78.8313 114.214C78.6306 114.18 78.3965 114.113 78.1959 114.08C77.7946 113.98 77.3932 113.879 76.9919 113.745C76.2227 113.511 75.4536 113.077 74.651 113.01C74.5506 113.01 74.4837 113.144 74.5506 113.21C74.8851 113.578 75.2529 113.913 75.6542 114.214C75.9886 114.481 76.3565 114.749 76.7244 114.983C76.8247 115.05 77.2595 115.317 76.8916 115.351C76.6575 115.351 76.4234 115.351 76.2228 115.284C75.2864 115.15 74.4169 114.749 73.5473 114.381C73.447 114.347 73.3467 114.481 73.4136 114.582C74.049 115.25 74.8516 115.752 75.6542 116.22C75.5539 116.287 75.3198 116.287 75.2529 116.287H75.186C75.186 116.287 74.8516 116.287 74.6844 116.287C74.2831 116.287 73.9152 116.287 73.5139 116.22C73.3132 116.22 73.146 116.187 72.9454 116.153L72.9788 116.187Z" fill="#B0915B"/>
<path d="M78.1285 115.953C78.8308 116.454 79.5665 116.889 80.3357 117.29C80.5698 117.391 80.7704 117.525 81.0045 117.625C80.6032 117.725 80.2019 117.759 79.8006 117.792C79.3324 117.792 78.8642 117.792 78.396 117.792C78.5298 117.792 78.6301 117.792 78.7639 117.792C78.8642 117.792 78.998 117.792 79.0983 117.792C79.1986 117.792 79.3324 117.792 79.4327 117.792C79.5665 117.792 79.7337 117.792 79.8675 117.792C79.9344 117.792 79.9678 117.792 80.0347 117.792C80.0347 117.792 80.0681 117.792 80.1016 117.792C80.1685 117.792 80.2354 117.792 80.3022 117.792C80.6032 117.792 80.9376 117.792 81.2721 117.759C81.3055 117.759 81.3724 117.759 81.4058 117.725C81.5062 117.692 81.4727 117.558 81.4058 117.525C81.2386 117.458 81.1048 117.391 80.9376 117.324C80.2353 116.989 79.5665 116.622 78.9311 116.22C79.3993 116.354 79.8675 116.488 80.3357 116.588C80.9376 116.722 81.5731 116.822 82.2085 116.856C82.5429 116.856 82.8773 116.856 83.1783 116.856C83.3789 116.856 83.6799 116.856 83.6799 116.555C83.6799 116.287 83.3455 116.12 83.1449 115.986C82.8773 115.786 82.6098 115.585 82.3422 115.384L81.3724 114.648C81.874 114.849 82.4091 114.983 82.9442 115.15C83.2117 115.217 83.5127 115.284 83.7802 115.351C83.6799 115.25 83.5796 115.15 83.4458 115.05C83.1448 114.983 82.8773 114.916 82.5763 114.816C81.9409 114.615 81.3055 114.414 80.7035 114.147C80.5698 114.08 80.5029 114.281 80.6032 114.347C81.1383 114.749 81.6734 115.15 82.175 115.551C82.4091 115.719 82.6432 115.919 82.8773 116.086C83.0111 116.187 83.1114 116.254 83.2452 116.354C83.2786 116.354 83.3789 116.454 83.4124 116.488C83.4124 116.555 83.3789 116.555 83.3121 116.555C82.7435 116.622 82.175 116.555 81.6065 116.521C80.4694 116.387 79.3658 116.053 78.2622 115.719C78.1285 115.685 78.0616 115.852 78.1619 115.919L78.1285 115.953Z" fill="#B0915B"/>
<path opacity="0.46" d="M68.3633 110.702C68.3633 110.702 68.4637 111.037 68.5306 111.204C68.5974 111.371 68.6643 111.572 68.7647 111.773C68.7647 111.773 68.7647 111.839 68.7981 111.873L68.865 111.973C68.865 112.007 68.8984 112.074 68.9319 112.107C68.9319 112.107 68.9319 112.14 68.9653 112.174C68.9653 112.174 68.9653 112.174 68.9653 112.207C68.9653 112.207 68.9653 112.207 68.9653 112.241C69.0322 112.341 69.0656 112.441 69.1325 112.542C69.1994 112.609 69.2329 112.709 69.2998 112.776C69.2998 112.776 69.2997 112.809 69.3332 112.843C69.3666 112.91 69.4335 112.976 69.4669 113.043C69.5004 113.11 69.5673 113.177 69.6007 113.244C69.6676 113.311 69.7011 113.378 69.7679 113.478C69.8348 113.578 69.9352 113.679 70.002 113.779C70.1024 113.879 70.1693 113.98 70.2696 114.08C70.3699 114.18 70.4368 114.247 70.5371 114.348C70.6374 114.448 70.7378 114.548 70.8381 114.649C70.905 114.715 70.9719 114.782 71.0388 114.816C71.0388 114.816 71.0388 114.816 71.0722 114.849C71.1056 114.883 71.1725 114.95 71.2394 114.983C71.2394 114.983 71.2394 114.983 71.2729 114.983C71.3397 115.05 71.4066 115.083 71.4735 115.15C71.4735 115.15 71.4735 115.15 71.507 115.15C71.5404 115.184 71.6073 115.217 71.6407 115.251C71.6407 115.251 71.6407 115.251 71.6742 115.284C71.7411 115.351 71.8079 115.384 71.9083 115.451C72.0755 115.552 72.2093 115.685 72.3765 115.786C72.4434 115.819 72.5437 115.886 72.6106 115.919C72.644 115.919 72.7109 115.986 72.7443 116.02C72.7778 116.02 72.8112 116.053 72.8447 116.087C72.9115 116.12 72.945 116.154 73.0119 116.187C73.0788 116.187 73.1122 116.254 73.1791 116.287C73.1791 116.287 73.1791 116.287 73.2125 116.287C73.246 116.287 73.3129 116.354 73.3463 116.354C73.3463 116.354 73.4132 116.388 73.4466 116.421C73.8814 116.622 74.3161 116.822 74.8178 116.99C74.9181 116.99 75.0184 117.056 75.0853 117.09C75.1522 117.09 75.2191 117.123 75.2525 117.157C75.3529 117.157 75.4198 117.224 75.5201 117.224C75.587 117.224 75.6539 117.257 75.7542 117.291C75.7876 117.291 75.821 117.291 75.8879 117.291C76.0551 117.324 76.2224 117.357 76.3896 117.391C76.4565 117.391 76.5568 117.391 76.6237 117.424C77.1587 117.525 77.6604 117.592 78.2289 117.625C78.3627 117.625 78.463 117.625 78.5968 117.625C78.6971 117.625 78.8309 117.625 78.9312 117.625C79.0315 117.625 79.1653 117.625 79.2656 117.625C79.3994 117.625 79.5666 117.625 79.7004 117.625C79.7673 117.625 79.8007 117.625 79.8676 117.625C79.8676 117.625 79.9011 117.625 79.9345 117.625C80.0014 117.625 80.0683 117.625 80.1352 117.625C80.4361 117.625 80.7706 117.625 81.105 117.592C81.1384 117.592 81.1719 117.592 81.2053 117.592C81.2722 117.592 81.3391 117.592 81.406 117.592C81.5063 117.592 81.5732 117.592 81.6735 117.592C81.8073 117.592 81.9076 117.592 82.0414 117.558C82.2086 117.558 82.3424 117.525 82.5096 117.491C82.7437 117.491 82.9778 117.424 83.2119 117.391C83.2788 117.391 83.3122 117.391 83.3791 117.391C83.8807 117.291 84.4158 117.19 84.9174 117.09C84.9174 117.09 84.8506 117.09 84.8171 117.09C84.8171 117.09 83.0112 117.257 80.7371 117.19C80.5699 117.19 80.3693 117.19 80.1686 117.19C79.1653 117.123 78.0952 117.023 77.0584 116.789C76.5234 116.689 75.9883 116.555 75.5201 116.388C75.3529 116.321 75.1856 116.254 75.0184 116.22C73.6138 115.685 72.4434 114.95 71.5404 114.214C71.4735 114.147 71.4066 114.114 71.3398 114.047C70.4702 113.344 69.8683 112.642 69.5338 112.174C69.467 112.107 69.4335 112.04 69.4001 111.973C69.4001 111.973 69.4001 111.906 69.3666 111.906C68.6309 110.736 68.5974 109.365 68.3968 108.027C68.3633 108.127 68.3299 108.194 68.2965 108.295C68.2965 108.328 68.2965 108.361 68.263 108.395C68.263 108.428 68.263 108.462 68.2296 108.495C68.2296 108.529 68.2296 108.562 68.2296 108.629C68.0958 109.197 68.0958 109.833 68.2965 110.602L68.3633 110.702Z" fill="#8C5F12"/>
<g style="mix-blend-mode:screen" opacity="0.25">
<path d="M68.7977 107.659C69.0652 107.392 70.8042 106.288 73.2455 106.957C73.3124 106.957 73.3793 106.99 73.4796 107.024C73.6803 107.091 73.881 107.157 74.0816 107.224C74.7505 107.492 75.4528 107.726 76.3223 108.228C76.3891 108.261 76.456 108.295 76.5229 108.361C77.2921 108.863 78.195 109.599 79.2987 110.836C79.399 110.937 79.4993 111.07 79.5996 111.204C80.0678 111.739 80.5695 112.375 81.1046 113.11C81.5059 113.645 81.974 114.247 82.576 114.816C82.576 114.816 82.8101 115.05 82.9105 115.15C83.6462 115.853 84.5157 116.521 85.5524 117.123C85.4855 117.057 84.6495 116.22 83.78 115.351C83.6796 115.251 83.5793 115.15 83.4455 115.05C83.4455 115.05 83.2783 114.916 83.2114 114.816C82.3085 113.946 81.5059 112.742 80.6029 111.538C80.536 111.438 80.4357 111.338 80.3688 111.237C79.7 110.335 78.9642 109.465 78.0613 108.696C77.5931 108.328 77.1583 107.994 76.6901 107.693C76.5564 107.626 76.4226 107.525 76.3223 107.458C75.3524 106.923 74.3826 106.556 73.5131 106.355C73.4127 106.355 73.3124 106.321 73.2455 106.288C72.0082 106.02 71.0049 106.087 70.4363 106.288C69.9347 106.489 69.2993 106.957 68.8311 107.626L68.7977 107.659Z" fill="#D0BD9E"/>
</g>
<path d="M62.4777 103.88L64.0161 104.716L65.0193 103.913C65.0193 103.913 63.5144 103.746 62.4777 103.913V103.88Z" fill="#BBA173"/>
<path d="M61.7754 104.014C62.9459 103.679 65.0528 103.913 65.0528 103.913L64.016 103.144C64.016 103.144 62.1433 103.278 61.7754 104.014Z" fill="#D0BD9E"/>
<path d="M68.4974 103.178C68.5308 103.545 68.2633 103.88 67.8285 103.947C67.8285 103.947 67.7951 103.947 67.7617 103.947C67.561 103.947 67.3603 103.947 67.2266 103.846C67.0594 103.746 66.9256 103.612 66.8922 103.412C66.8922 103.412 66.8922 103.378 66.8922 103.345C66.8922 103.144 66.959 102.944 67.1262 102.81C67.26 102.676 67.4272 102.609 67.6279 102.576C68.0626 102.542 68.4639 102.776 68.4974 103.178Z" fill="white"/>
<path d="M68.1298 103.311C68.1633 103.579 68.0629 103.813 67.8623 103.947C67.8623 103.947 67.8288 103.947 67.7954 103.947C67.5947 103.947 67.3941 103.947 67.2603 103.846C67.0931 103.746 66.9593 103.612 66.9259 103.412C66.9259 103.111 67.1265 102.877 67.4275 102.81C67.7619 102.743 68.0629 102.977 68.1298 103.311Z" fill="black"/>
<path d="M67.1269 103.211C67.1269 103.211 67.3944 103.278 67.3944 103.178C67.3944 103.077 67.3944 103.01 67.2941 103.01C67.1937 103.01 67.0934 103.111 67.1269 103.211Z" fill="white"/>
<path d="M66.056 122.407C66.056 122.407 67.1596 123.176 68.0625 122.675C68.9655 122.173 70.1694 120.401 70.1694 120.401C70.1694 120.401 70.4704 120.768 71.3734 120.635C71.3734 120.635 69.7012 121.939 68.9655 123.109C68.9655 123.109 68.9655 123.109 68.9989 123.109C68.9989 123.109 68.9989 123.109 69.0324 123.109C69.0324 123.109 69.0658 123.109 69.0993 123.109C69.2665 123.076 69.4337 123.176 69.5006 123.343C69.5006 123.444 69.5006 123.511 69.4671 123.578C69.4337 123.644 69.3334 123.711 69.233 123.711C69.1327 123.711 69.0324 123.711 68.9321 123.711C68.8317 123.711 68.7648 123.711 68.6645 123.711C68.5642 123.711 68.4973 123.678 68.397 123.644C67.795 123.644 66.4907 123.644 65.9891 123.343C65.9891 123.343 65.3537 122.742 66.056 122.441V122.407Z" fill="#B29460"/>
<path d="M74.0821 121.471C74.0821 121.471 74.7844 121.671 75.0854 121.671C75.3863 121.671 75.6204 121.738 75.6539 121.705C75.6873 121.136 76.0886 120.2 76.0886 120.2C76.0886 120.2 76.2893 120.267 76.4565 120.267C76.6237 120.267 76.9582 120.267 76.9582 120.267C76.9582 120.267 76.4565 120.869 76.4231 120.935C76.2893 121.17 76.2559 121.705 76.2224 121.905C76.3227 121.905 76.5568 121.638 76.724 122.006C76.7909 122.173 76.6572 122.407 76.2224 122.373C75.9549 122.373 75.6539 122.307 75.4198 122.34C75.1857 122.373 74.3496 122.541 73.848 122.307C73.7477 122.24 73.6808 122.106 73.7142 121.972C73.547 121.771 73.7142 121.37 74.0486 121.471H74.0821Z" fill="#B29460"/>
<g style="mix-blend-mode:screen" opacity="0.25">
<path d="M67.7953 99.8332C68.832 100.067 69.8353 99.666 71.7415 101.606C72.4773 102.375 72.9789 103.311 72.7783 104.749C72.7783 104.749 73.6143 105.084 74.2163 105.418C74.8182 105.753 76.0222 106.656 76.1225 106.722C75.253 105.786 74.2832 104.983 73.1461 104.549C73.1461 104.415 73.213 104.281 73.213 104.114C73.213 104.047 73.213 103.98 73.213 103.913C73.213 101.806 71.0727 99.9335 68.6648 99.7998C68.3638 99.7998 68.0628 99.7998 67.7953 99.7998V99.8332Z" fill="#D0BD9E"/>
</g>
<path d="M65.6544 100.636L65.8885 100.402C66.3233 99.8332 66.7915 99.1309 66.9587 98.9637C67.1259 98.7965 67.3266 98.6627 67.4938 98.8299C67.5941 98.9302 67.6275 99.064 67.4938 99.3315C67.2931 99.6994 66.5239 100.469 65.6544 100.602V100.636Z" fill="#A17C3D"/>
<path d="M65.5875 100.669C66.0892 99.666 66.1226 99.2982 66.1895 98.4956C66.1895 98.228 66.3567 97.7598 66.6911 97.8936C67.0255 98.0274 67.0924 98.4621 66.9921 98.83C66.9252 99.0975 66.5574 99.7664 66.1895 100.168C66.0223 100.335 65.8216 100.669 65.5541 100.669H65.5875Z" fill="#A17C3D"/>
<path d="M65.7549 100.602C66.29 99.9335 66.4237 99.7663 66.5909 99.1978C66.6578 98.9971 66.7916 98.6961 67.0257 98.8299C67.2264 98.9637 67.126 99.2312 67.0257 99.4988C66.8585 99.9335 66.1562 100.368 65.7883 100.602H65.7549Z" fill="#9D7736"/>
</g>
<g style="mix-blend-mode:soft-light" opacity="0.38">
<path d="M80.3033 82.0416L79.4338 84.3491L78.0626 87.9609L77.5944 89.1983L51.1413 159.729L50.6731 160.933L49.302 164.578L48.4325 166.886C47.4292 166.752 46.4259 166.551 45.4226 166.35C34.8213 164.143 25.5243 158.291 18.9695 150.164C18.4344 149.495 17.8993 148.793 17.3643 148.091L18.3675 145.348L20.0062 140.867L20.5748 139.295L40.6403 84.7504L41.2089 83.1786L42.8475 78.6973L43.8508 75.955C45.5899 75.5203 47.3623 75.2193 49.1682 74.9852C51.0744 74.7511 52.9807 74.6173 54.9538 74.6173C63.3479 74.6173 71.2069 76.858 78.0292 80.7373C78.7649 81.1721 79.5007 81.6068 80.203 82.075L80.3033 82.0416Z" fill="#FFFB8C"/>
</g>
<path d="M86.1554 89.834C84.1154 87.794 81.8413 85.9212 79.4334 84.3159C72.4773 79.6674 64.0832 76.9585 55.0537 76.9585C50.8399 76.9585 46.7934 77.5605 42.9475 78.6641C41.2419 79.1658 39.5698 79.7343 37.9645 80.4366C32.714 82.6438 27.9652 85.8877 23.9855 89.8674C16.0262 97.8267 11.1101 108.829 11.1101 120.969C11.1101 129.965 13.8189 138.359 18.4675 145.315C20.0727 147.757 21.9455 149.997 23.9855 152.037C30.674 158.726 39.5029 163.274 49.3685 164.545C51.2413 164.779 53.1475 164.913 55.0872 164.913C67.2268 164.913 78.2294 159.997 86.1888 152.037C94.1481 144.078 99.0642 133.075 99.0642 120.936C99.0642 108.796 94.1481 97.7933 86.1888 89.834H86.1554ZM94.817 127.056C94.7836 127.39 94.7167 127.724 94.6498 128.059C94.516 128.728 94.4157 129.363 94.2485 130.032C94.1816 130.366 94.0813 130.667 94.0144 131.002C93.7803 131.972 93.4793 132.908 93.1783 133.844C92.7436 135.082 92.2754 136.319 91.7403 137.49C91.5731 137.891 91.3724 138.292 91.1718 138.66C90.8039 139.429 90.3691 140.199 89.9678 140.934C89.6334 141.503 89.299 142.038 88.9645 142.573C88.6301 143.108 88.2622 143.643 87.8609 144.178C87.4931 144.713 87.0918 145.215 86.7239 145.717C86.3226 146.218 85.9213 146.72 85.4865 147.222C84.8511 147.957 84.2157 148.66 83.5134 149.328C82.8445 149.997 82.1422 150.666 81.4065 151.301C80.3029 152.271 79.1658 153.141 77.9619 153.977C76.5239 154.98 75.019 155.883 73.4472 156.686C73.1796 156.82 72.9121 156.953 72.6445 157.087C67.3606 159.662 61.4078 161.1 55.1206 161.1C53.6491 161.1 52.2111 161.033 50.7731 160.866C46.0911 160.364 41.6098 159.027 37.5298 157.054C37.095 156.82 36.6268 156.619 36.1921 156.385C35.7573 156.151 35.3226 155.917 34.8878 155.649C34.4531 155.415 34.0183 155.147 33.617 154.88C31.9448 153.81 30.3396 152.606 28.8347 151.301C28.0989 150.666 27.3967 149.997 26.7278 149.328C26.3934 148.994 26.0589 148.626 25.7245 148.292C25.3901 147.924 25.0891 147.589 24.7547 147.222C24.32 146.72 23.9186 146.252 23.5173 145.75C23.116 145.248 22.7481 144.713 22.3803 144.212C22.0124 143.677 21.6445 143.142 21.2767 142.606C20.9422 142.071 20.6078 141.503 20.2734 140.968C20.2734 140.901 20.2065 140.867 20.2065 140.834C19.8052 140.132 19.4373 139.396 19.0694 138.694C18.8688 138.292 18.7016 137.924 18.5009 137.523C17.9658 136.353 17.4642 135.115 17.0629 133.878C15.6917 129.831 14.956 125.484 14.956 120.969C14.956 116.454 15.6917 112.107 17.0629 108.06C17.4976 106.823 17.9658 105.585 18.5009 104.415C18.6681 104.014 18.8688 103.612 19.0694 103.244C19.4373 102.475 19.8721 101.706 20.2734 100.97C20.6078 100.402 20.9422 99.8667 21.2767 99.3317C21.6111 98.7966 21.9789 98.2615 22.3803 97.7264C22.7481 97.1913 23.1494 96.6897 23.5173 96.1881C23.9186 95.6864 24.32 95.1848 24.7547 94.6831C25.0557 94.3153 25.3901 93.9474 25.7245 93.613C26.0589 93.2785 26.3934 92.9107 26.7278 92.5762C27.3967 91.9074 28.1324 91.2385 28.8347 90.6031C30.9081 88.8307 33.1488 87.2254 35.5232 85.8877C36.3258 85.453 37.1285 85.0182 37.9645 84.6169C38.2321 84.4831 38.5331 84.3494 38.8006 84.249C39.3691 84.0149 39.9377 83.7474 40.5062 83.5467C40.8072 83.4464 41.0747 83.3126 41.3757 83.2123C41.7435 83.0785 42.078 82.9448 42.4458 82.8444C46.4255 81.5067 50.7062 80.8044 55.154 80.8044C63.7154 80.8044 71.6412 83.4799 78.1626 88.0281C79.0321 88.63 79.8681 89.2654 80.6708 89.9343C80.9383 90.1684 81.2059 90.369 81.4734 90.6031C82.2091 91.2385 82.9114 91.9074 83.5803 92.5762C84.2491 93.2451 84.918 93.9474 85.5534 94.6831C85.9882 95.1848 86.3894 95.653 86.7908 96.1546C87.1921 96.6562 87.56 97.1913 87.9278 97.693C88.2957 98.2281 88.6635 98.7631 89.0314 99.2982C89.3658 99.8333 89.7003 100.402 90.0347 100.937C90.4695 101.673 90.8708 102.442 91.2386 103.211C91.4393 103.612 91.6065 103.98 91.8072 104.381C92.3422 105.552 92.8439 106.789 93.2452 108.027C93.5796 108.963 93.8472 109.9 94.0813 110.869C94.1481 111.204 94.2485 111.505 94.3154 111.839C94.4491 112.475 94.5829 113.143 94.7167 113.812C94.7836 114.147 94.817 114.481 94.8839 114.816C94.9842 115.484 95.0845 116.153 95.1514 116.822C95.2852 118.16 95.3521 119.531 95.3521 120.936C95.3521 122.34 95.2852 123.711 95.1514 125.049C95.0845 125.718 94.9842 126.387 94.8839 127.056H94.817Z" fill="#FAE543"/>
<g style="mix-blend-mode:multiply">
<path d="M95.085 116.822C95.0181 116.153 94.9178 115.484 94.8175 114.816C94.784 114.481 94.7171 114.147 94.6502 113.812C94.5165 113.144 94.3827 112.508 94.249 111.839C94.1821 111.505 94.0817 111.204 94.0149 110.869C93.7808 109.9 93.4798 108.963 93.1788 108.027C92.744 106.789 92.2758 105.552 91.7408 104.382C91.5735 103.98 91.3729 103.579 91.1722 103.211C90.8044 102.442 90.3696 101.673 89.9683 100.937C89.6339 100.368 89.2994 99.8333 88.965 99.2983C88.6306 98.7632 88.2627 98.2281 87.8614 97.693C87.4935 97.1579 87.0922 96.6563 86.7244 96.1547C86.323 95.653 85.9217 95.1514 85.487 94.6497C84.8516 93.914 84.1827 93.2117 83.5139 92.5429C82.845 91.874 82.1427 91.2051 81.407 90.5697C81.1394 90.3356 80.8719 90.135 80.6044 89.9009C79.8017 89.232 78.9657 88.5966 78.0962 87.9947C71.5748 83.4465 63.649 80.7711 55.0876 80.7711C50.6398 80.7711 46.3925 81.4733 42.3794 82.811C42.0116 82.9448 41.6771 83.0451 41.3093 83.1789C41.0083 83.2792 40.7407 83.413 40.4398 83.5133C39.8712 83.7474 39.3027 83.9815 38.7342 84.2156C38.4667 84.3494 38.1657 84.4497 37.8981 84.5835C37.0621 84.9848 36.2594 85.3861 35.4568 85.8543C33.0489 87.192 30.8083 88.7638 28.7683 90.5697C28.0325 91.2051 27.3303 91.874 26.6614 92.5429C26.327 92.8773 25.9925 93.2452 25.6581 93.5796C25.3237 93.9474 25.0227 94.2819 24.6883 94.6497C24.2535 95.1514 23.8522 95.6196 23.4509 96.1212C23.0496 96.6229 22.6817 97.1579 22.3139 97.6596C21.946 98.1947 21.5781 98.7297 21.2102 99.2648C20.8758 99.7999 20.5414 100.368 20.207 100.904C19.7722 101.639 19.3709 102.408 19.003 103.178C18.8024 103.579 18.6352 103.947 18.4345 104.348C17.8994 105.519 17.4312 106.756 16.9965 107.993C15.6253 112.04 14.8896 116.387 14.8896 120.902C14.8896 125.417 15.6253 129.764 16.9965 133.811C17.4312 135.048 17.8994 136.286 18.4345 137.456C18.6017 137.858 18.8024 138.259 19.003 138.627C19.3709 139.363 19.7388 140.065 20.1401 140.767C20.1401 140.767 20.1735 140.867 20.207 140.901C20.5414 141.469 20.8758 142.005 21.2102 142.54C21.5447 143.075 21.9125 143.61 22.3139 144.145C22.6817 144.68 23.083 145.182 23.4509 145.683C23.8522 146.185 24.2535 146.686 24.6883 147.188C24.9893 147.556 25.3237 147.924 25.6581 148.258C25.9925 148.593 26.327 148.961 26.6614 149.295C27.3303 149.964 28.066 150.633 28.7683 151.268C30.2732 152.572 31.8784 153.776 33.5506 154.846C33.9853 155.114 34.3866 155.382 34.8214 155.616C35.2561 155.85 35.6909 156.117 36.1256 156.351C36.5604 156.585 37.0286 156.82 37.4634 157.02C41.5434 158.993 45.9912 160.331 50.7066 160.833C52.1447 161 53.5827 161.067 55.0542 161.067C61.3414 161.067 67.2942 159.629 72.5781 157.054C72.8457 156.92 73.1132 156.786 73.3807 156.652C74.9525 155.85 76.4575 154.947 77.8955 153.944C79.0994 153.107 80.2365 152.205 81.3401 151.268C82.0758 150.633 82.7781 149.964 83.447 149.295C84.1158 148.626 84.7847 147.89 85.4201 147.188C85.8549 146.686 86.2561 146.218 86.6575 145.717C87.0588 145.215 87.4267 144.68 87.7945 144.178C88.1624 143.643 88.5303 143.108 88.8981 142.573C89.2326 142.038 89.567 141.469 89.9014 140.934C90.3362 140.199 90.7375 139.429 91.1053 138.66C91.306 138.259 91.4732 137.891 91.6739 137.49C92.2089 136.319 92.6771 135.082 93.1119 133.845C93.4129 132.908 93.7139 131.972 93.948 131.002C94.0148 130.667 94.1152 130.366 94.1821 130.032C94.3158 129.397 94.4496 128.728 94.5834 128.059C94.6503 127.724 94.6837 127.39 94.7506 127.056C94.8509 126.387 94.9512 125.718 95.0181 125.049C95.1519 123.711 95.2188 122.34 95.2188 120.936C95.2188 119.531 95.1519 118.16 95.0181 116.822H95.085ZM82.6109 148.492C75.5545 155.549 65.8227 159.896 55.0542 159.896C53.7499 159.896 52.4457 159.829 51.1414 159.696C41.9447 158.793 33.6844 154.679 27.464 148.492C24.7552 145.784 22.4476 142.673 20.6083 139.262C17.6988 133.811 16.0266 127.557 16.0266 120.936C16.0266 110.167 20.3742 100.435 27.4306 93.3789C31.1761 89.6333 35.6575 86.657 40.6404 84.6838C45.0883 82.9114 49.904 81.9415 54.9873 81.9415C63.4148 81.9415 71.1735 84.617 77.5611 89.1317C79.3335 90.4025 81.0057 91.8071 82.544 93.3455C89.6004 100.402 93.948 110.134 93.948 120.902C93.948 131.671 89.6004 141.403 82.544 148.459L82.6109 148.492Z" fill="#F6F39E"/>
</g>
<path d="M108.997 0.107182H88.7309L44.8542 73.38H65.1204L108.997 0.107182Z" fill="#7700FF"/>
</svg>
