<svg width="109" height="168" viewBox="0 0 109 168" fill="none" xmlns="http://www.w3.org/2000/svg">
<path d="M0.977234 0.107178H21.2435L65.1202 73.38H44.854L0.977234 0.107178Z" fill="#C40096"/>
<path d="M64.7199 79.6003V78.6639H45.4569C44.7212 78.6639 44.0524 78.3629 43.5507 77.8613C43.0491 77.3596 42.7481 76.6908 42.7481 75.9551C42.7481 75.2193 43.0491 74.5505 43.5507 74.0488C44.0524 73.5472 44.7212 73.2462 45.4569 73.2462H64.7199C65.4556 73.2462 66.1245 73.5472 66.6261 74.0488C67.1278 74.5505 67.4287 75.2193 67.4287 75.9551C67.4287 76.6908 67.1278 77.3596 66.6261 77.8613C66.1245 78.3629 65.4556 78.6639 64.7199 78.6639V80.5367C67.2615 80.5367 69.3015 78.4967 69.3015 75.9551C69.3015 73.4134 67.2615 71.3734 64.7199 71.3734H45.4569C42.9487 71.3734 40.8753 73.4134 40.8753 75.9551C40.8753 78.4633 42.9153 80.5367 45.4569 80.5367H64.7199V79.6003Z" fill="#E0C64C"/>
<path d="M101.473 120.935C101.473 138.192 92.0423 153.241 78.0967 161.234C72.4115 164.477 65.957 166.584 59.0678 167.153C57.7636 167.287 56.4259 167.32 55.0882 167.32C52.8475 167.32 50.6738 167.153 48.5334 166.852C47.5301 166.718 46.5269 166.517 45.5236 166.317C34.9223 164.11 25.6252 158.257 19.0705 150.131C18.5354 149.462 18.0003 148.759 17.4652 148.057C17.4652 148.057 17.4652 148.057 17.4318 148.024C16.8298 147.188 16.2947 146.352 15.7596 145.515C13.7196 142.272 12.1144 138.794 10.9105 135.081C10.0075 132.239 9.37211 129.296 9.00424 126.253C8.87047 125.182 8.80358 124.112 8.73669 123.009C8.73669 122.674 8.73669 122.34 8.73669 122.005C8.73669 121.637 8.73669 121.303 8.73669 120.935C8.73669 120.534 8.73669 120.133 8.73669 119.731C9.07112 106.421 15.0239 94.5155 24.2875 86.2552C26.2941 84.4492 28.5013 82.844 30.8088 81.406C33.919 79.4663 37.2967 77.8945 40.8751 76.7574C41.8783 76.423 42.8816 76.1555 43.9183 75.8879C43.9518 75.8879 43.9852 75.8879 44.0187 75.8879C45.7577 75.4532 47.5301 75.1522 49.336 74.9181C51.2423 74.684 53.1485 74.5502 55.1216 74.5502C63.5157 74.5502 71.3747 76.7909 78.197 80.6702C78.9328 81.105 79.6685 81.5397 80.3708 82.0079C83.481 84.0479 86.357 86.4224 88.8987 89.1312C93.1793 93.6794 96.557 99.0637 98.7308 105.05C100.537 109.999 101.507 115.35 101.507 120.935H101.473Z" fill="#E0C64C"/>
<path d="M40.0055 116.354C37.6645 115.819 35.3236 116.755 33.4508 118.16C32.5144 118.862 31.6783 119.698 30.5413 120.099C29.7386 120.367 28.8691 120.434 28.0665 120.3C27.7321 120.233 27.3642 120.133 27.0298 119.999C26.3609 119.698 25.759 120.701 26.4278 121.002C26.896 121.236 27.3977 121.37 27.8993 121.47C27.9327 121.47 27.9662 121.47 27.9996 121.47C28.0665 121.47 28.1 121.47 28.1668 121.47C29.0698 121.604 29.9727 121.571 30.8422 121.337C31.0429 121.571 31.4108 121.705 31.7452 121.437C34.0193 119.464 36.795 118.16 39.7714 117.658C39.9386 117.658 40.039 117.524 40.1059 117.39C40.4737 117.123 40.5072 116.454 39.9721 116.354H40.0055Z" fill="#736000"/>
<path d="M39.9717 135.349C36.9619 135.149 34.6878 137.791 35.156 140.734C35.3901 142.238 36.1258 143.576 36.0924 145.148C36.0924 146.519 35.6242 147.957 34.4872 148.827C33.9186 149.261 34.4872 150.298 35.0891 149.83C37.0957 148.358 38.1658 145.951 37.8649 143.476C37.6976 142.105 37.1626 140.667 37.3632 139.262C37.5639 137.958 38.5003 136.921 39.7711 136.587C39.7711 136.587 39.8045 136.587 39.838 136.553C39.8714 136.553 39.9383 136.553 39.9717 136.553C40.7409 136.587 40.7075 135.416 39.9717 135.383V135.349Z" fill="#736000"/>
<path d="M82.8785 118.494C82.3099 119.498 81.0391 119.932 79.969 120.033C78.6647 120.166 77.628 119.498 76.6916 118.661C75.0863 117.257 73.0798 115.551 70.8391 116.722C70.6719 116.722 70.5047 116.722 70.3375 116.722C69.6017 116.789 69.5683 117.926 70.3375 117.892C70.5381 117.892 70.7053 117.892 70.906 117.892C73.4142 118.093 74.9191 121.036 77.3604 121.604C78.6313 121.905 80.2031 121.772 81.4404 121.337C82.544 120.969 83.4804 120.2 83.8817 119.096C83.8817 119.063 83.9152 118.996 83.9486 118.962C84.1493 118.327 83.2129 117.926 82.8785 118.494Z" fill="#736000"/>
<path d="M75.7556 148.392C75.254 148.526 74.652 147.188 74.5517 146.854C74.4848 146.686 74.4514 146.519 74.4179 146.352C74.3511 145.717 74.3511 145.115 74.3511 144.479C74.5183 142.874 75.0534 141.336 75.0534 139.73C75.0534 138.326 74.652 136.888 73.5484 135.951C72.5452 135.149 71.2409 134.881 70.0704 135.45C69.4015 135.784 70.0035 136.787 70.6724 136.453C71.0402 136.252 71.4081 136.252 71.776 136.319C71.9766 136.687 72.3111 136.921 72.612 137.189C73.3478 139.028 72.9465 141.068 72.7793 142.974C72.6455 144.814 72.7124 146.787 73.8494 148.359C73.9497 148.492 74.0501 148.559 74.1838 148.593C74.652 149.228 75.2875 149.696 76.0566 149.496C76.7924 149.295 76.4914 148.158 75.7556 148.359V148.392Z" fill="#736000"/>
<path d="M75.2873 95.3182C74.6854 96.589 72.8795 96.7228 71.7759 97.3582C71.2408 97.6592 70.806 98.027 70.3713 98.4284C69.2342 99.1641 68.3982 100.268 67.7628 101.472C67.4952 101.973 67.2611 102.542 66.9936 103.077C66.4919 103.813 65.9569 104.515 65.3214 105.083C65.1542 104.816 64.987 104.582 64.7529 104.348C63.1142 102.742 61.3752 101.238 59.5359 99.8998C59.1011 99.5989 58.6664 99.2979 58.1982 99.0972C58.2316 98.8631 58.2985 98.6625 58.2985 98.4284C58.2985 97.9267 58.2316 97.4251 57.9975 96.9903C57.9641 96.89 57.8972 96.8231 57.8637 96.7897C57.8637 96.7897 57.8637 96.7562 57.8637 96.7228C57.8637 96.7228 57.8972 96.6893 57.9306 96.6559C58.0644 96.5221 58.1982 96.3549 58.3319 96.2211C58.5995 95.8867 58.867 95.5188 59.0677 95.1175C59.469 94.3818 59.77 93.5457 59.9037 92.7097C59.9372 92.4087 59.8368 92.0743 59.5024 91.9739C59.2349 91.907 58.8336 92.0743 58.7667 92.3752C58.6329 93.3451 58.2985 94.1811 57.7634 94.9838C57.4959 95.3851 57.2283 95.6861 56.8939 96.0205C56.8939 96.0205 56.8605 96.0874 56.827 96.1208C56.5929 96.0539 56.3254 96.0205 56.0913 96.0539C55.8906 96.0539 55.69 96.0539 55.4893 96.0874C55.4224 96.0874 55.3555 96.0874 55.2887 96.0539C54.9542 95.987 54.6198 95.9202 54.2854 95.9536C54.0513 95.9536 53.8172 95.987 53.5831 96.0539C53.5162 96.0539 53.4493 96.1208 53.3824 96.1543C53.3155 96.1543 53.2821 96.0874 53.2152 96.0539C53.2152 96.0539 53.1483 96.0205 53.1483 95.987L53.0814 95.9536L53.048 95.9202C53.048 95.9202 52.9811 95.8533 52.9477 95.8533C52.8808 95.8198 52.8473 95.7529 52.8139 95.7195C52.747 95.6526 52.7136 95.6192 52.6467 95.5523C52.6467 95.5523 52.6132 95.4854 52.5798 95.452C52.5129 95.3182 52.4126 95.2179 52.3457 95.0841C52.3457 95.0841 52.3457 95.0172 52.3122 94.9838C52.3122 94.9169 52.2454 94.85 52.2454 94.7831C52.2119 94.6493 52.1785 94.5156 52.145 94.3484C52.145 94.3484 52.145 94.2815 52.145 94.248C52.145 94.1811 52.145 94.0808 52.145 94.0139C52.145 93.947 52.145 93.8467 52.145 93.7798C52.145 93.7798 52.145 93.7129 52.145 93.6795C52.1785 93.3785 52.0782 93.0441 51.7437 92.9438C51.4762 92.8769 51.0749 93.0441 51.008 93.3451C50.8073 94.6828 51.3424 96.0874 52.4126 96.9234C52.3457 96.9903 52.3122 97.0907 52.2454 97.1575C52.1785 97.3248 52.0782 97.492 52.0447 97.6926C52.0113 97.8933 51.9778 98.0939 51.9778 98.2611C51.9778 98.4618 51.9778 98.6625 52.0782 98.8297C52.145 98.9969 52.2119 99.1641 52.3122 99.3313C50.6401 100.067 49.0014 100.97 47.6637 102.107C47.3962 102.341 47.1286 102.642 46.8945 102.943C46.2257 103.378 45.6906 104.013 45.3562 104.716C45.2893 104.849 45.2224 105.017 45.1221 105.15C43.3496 102.441 41.9785 99.231 38.7346 98.0939C38.5673 98.027 38.4001 98.0605 38.2664 98.1274C37.9654 97.9267 37.6309 97.7595 37.2631 97.6257C36.6611 97.3916 35.8919 97.3582 35.4237 96.9234C34.9555 96.5221 34.7883 95.8533 34.9555 95.2513C35.1562 94.5156 34.0191 94.2146 33.8185 94.9503C33.4506 96.2546 34.0526 97.6592 35.29 98.2277C35.9922 98.5287 36.728 98.629 37.4303 98.9969C38.0991 99.3648 38.7011 99.8664 39.2027 100.435C41.0086 102.308 42.2126 104.816 44.4198 106.254C44.4532 106.321 44.5201 106.388 44.5536 106.488C44.4532 106.856 44.3529 107.19 44.3529 107.525C44.3195 108.662 44.8545 109.364 45.6906 109.832C46.4263 110.735 47.5634 111.07 48.7005 111.137C48.9011 111.137 49.1018 111.137 49.3024 111.137C50.0716 111.371 50.9077 111.504 51.7103 111.538C53.9509 111.638 56.1582 111.203 58.4323 111.404C60.5726 111.571 62.7464 111.471 64.4519 109.966C65.5555 108.996 66.0237 107.659 65.7896 106.388C66.5254 105.953 67.1608 105.384 67.7628 104.782C68.4316 104.114 69.067 103.378 69.5686 102.609C70.2709 101.505 70.6388 100 71.6086 99.0972C71.6755 99.0638 71.709 99.0303 71.7759 98.9634C71.8762 98.8966 71.9765 98.7962 72.0768 98.7293C72.2106 98.6625 72.2775 98.5287 72.3109 98.4284C72.4447 98.3615 72.5785 98.2611 72.7123 98.1943C73.9831 97.5923 75.5883 97.3247 76.2572 95.9202C76.5916 95.2513 75.5549 94.6493 75.2539 95.3182H75.2873Z" fill="#736000"/>
<mask id="mask0_116_417" style="mask-type:luminance" maskUnits="userSpaceOnUse" x="33" y="91" width="44" height="21">
<path d="M75.2873 95.3182C74.6854 96.589 72.8795 96.7228 71.7759 97.3582C71.2408 97.6592 70.806 98.027 70.3713 98.4284C69.2342 99.1641 68.3982 100.268 67.7628 101.472C67.4952 101.973 67.2611 102.542 66.9936 103.077C66.4919 103.813 65.9569 104.515 65.3214 105.083C65.1542 104.816 64.987 104.582 64.7529 104.348C63.1142 102.742 61.3752 101.238 59.5359 99.8998C59.1011 99.5989 58.6664 99.2979 58.1982 99.0972C58.2316 98.8631 58.2985 98.6625 58.2985 98.4284C58.2985 97.9267 58.2316 97.4251 57.9975 96.9903C57.9641 96.89 57.8972 96.8231 57.8637 96.7897C57.8637 96.7897 57.8637 96.7562 57.8637 96.7228C57.8637 96.7228 57.8972 96.6893 57.9306 96.6559C58.0644 96.5221 58.1982 96.3549 58.3319 96.2211C58.5995 95.8867 58.867 95.5188 59.0677 95.1175C59.469 94.3818 59.77 93.5457 59.9037 92.7097C59.9372 92.4087 59.8368 92.0743 59.5024 91.9739C59.2349 91.907 58.8336 92.0743 58.7667 92.3752C58.6329 93.3451 58.2985 94.1811 57.7634 94.9838C57.4959 95.3851 57.2283 95.6861 56.8939 96.0205C56.8939 96.0205 56.8605 96.0874 56.827 96.1208C56.5929 96.0539 56.3254 96.0205 56.0913 96.0539C55.8906 96.0539 55.69 96.0539 55.4893 96.0874C55.4224 96.0874 55.3555 96.0874 55.2887 96.0539C54.9542 95.987 54.6198 95.9202 54.2854 95.9536C54.0513 95.9536 53.8172 95.987 53.5831 96.0539C53.5162 96.0539 53.4493 96.1208 53.3824 96.1543C53.3155 96.1543 53.2821 96.0874 53.2152 96.0539C53.2152 96.0539 53.1483 96.0205 53.1483 95.987L53.0814 95.9536L53.048 95.9202C53.048 95.9202 52.9811 95.8533 52.9477 95.8533C52.8808 95.8198 52.8473 95.7529 52.8139 95.7195C52.747 95.6526 52.7136 95.6192 52.6467 95.5523C52.6467 95.5523 52.6132 95.4854 52.5798 95.452C52.5129 95.3182 52.4126 95.2179 52.3457 95.0841C52.3457 95.0841 52.3457 95.0172 52.3122 94.9838C52.3122 94.9169 52.2454 94.85 52.2454 94.7831C52.2119 94.6493 52.1785 94.5156 52.145 94.3484C52.145 94.3484 52.145 94.2815 52.145 94.248C52.145 94.1811 52.145 94.0808 52.145 94.0139C52.145 93.947 52.145 93.8467 52.145 93.7798C52.145 93.7798 52.145 93.7129 52.145 93.6795C52.1785 93.3785 52.0782 93.0441 51.7437 92.9438C51.4762 92.8769 51.0749 93.0441 51.008 93.3451C50.8073 94.6828 51.3424 96.0874 52.4126 96.9234C52.3457 96.9903 52.3122 97.0907 52.2454 97.1575C52.1785 97.3248 52.0782 97.492 52.0447 97.6926C52.0113 97.8933 51.9778 98.0939 51.9778 98.2611C51.9778 98.4618 51.9778 98.6625 52.0782 98.8297C52.145 98.9969 52.2119 99.1641 52.3122 99.3313C50.6401 100.067 49.0014 100.97 47.6637 102.107C47.3962 102.341 47.1286 102.642 46.8945 102.943C46.2257 103.378 45.6906 104.013 45.3562 104.716C45.2893 104.849 45.2224 105.017 45.1221 105.15C43.3496 102.441 41.9785 99.231 38.7346 98.0939C38.5673 98.027 38.4001 98.0605 38.2664 98.1274C37.9654 97.9267 37.6309 97.7595 37.2631 97.6257C36.6611 97.3916 35.8919 97.3582 35.4237 96.9234C34.9555 96.5221 34.7883 95.8533 34.9555 95.2513C35.1562 94.5156 34.0191 94.2146 33.8185 94.9503C33.4506 96.2546 34.0526 97.6592 35.29 98.2277C35.9922 98.5287 36.728 98.629 37.4303 98.9969C38.0991 99.3648 38.7011 99.8664 39.2027 100.435C41.0086 102.308 42.2126 104.816 44.4198 106.254C44.4532 106.321 44.5201 106.388 44.5536 106.488C44.4532 106.856 44.3529 107.19 44.3529 107.525C44.3195 108.662 44.8545 109.364 45.6906 109.832C46.4263 110.735 47.5634 111.07 48.7005 111.137C48.9011 111.137 49.1018 111.137 49.3024 111.137C50.0716 111.371 50.9077 111.504 51.7103 111.538C53.9509 111.638 56.1582 111.203 58.4323 111.404C60.5726 111.571 62.7464 111.471 64.4519 109.966C65.5555 108.996 66.0237 107.659 65.7896 106.388C66.5254 105.953 67.1608 105.384 67.7628 104.782C68.4316 104.114 69.067 103.378 69.5686 102.609C70.2709 101.505 70.6388 100 71.6086 99.0972C71.6755 99.0638 71.709 99.0303 71.7759 98.9634C71.8762 98.8966 71.9765 98.7962 72.0768 98.7293C72.2106 98.6625 72.2775 98.5287 72.3109 98.4284C72.4447 98.3615 72.5785 98.2611 72.7123 98.1943C73.9831 97.5923 75.5883 97.3247 76.2572 95.9202C76.5916 95.2513 75.5549 94.6493 75.2539 95.3182H75.2873Z" fill="white"/>
</mask>
<g mask="url(#mask0_116_417)">
<path d="M63.9834 103.946C62.9467 102.374 61.2745 100.87 59.5021 100.201C58.9001 99.9666 58.2982 99.9666 57.7631 100.1C57.4955 99.8663 57.1946 99.6656 56.8267 99.5987C54.7532 99.1305 52.9808 99.9332 51.409 101.271C50.3054 102.207 49.2352 103.378 48.6332 104.682C47.8306 106.454 47.63 108.762 49.2686 110.167C50.6732 111.404 52.8804 111.304 54.6529 111.103C55.0877 111.036 55.5224 110.969 55.9572 110.869C56.626 111.337 57.4621 111.538 58.2313 111.605C60.0372 111.738 62.1775 111.17 63.4818 109.866C65.0536 108.26 65.1539 105.786 63.9165 103.946H63.9834Z" fill="#877100"/>
<path d="M62.3447 102.508C62.1106 101.906 61.91 101.539 61.4752 101.037C61.2411 100.769 60.9402 100.535 60.6392 100.335C60.3047 100.1 59.9034 99.9667 59.5021 99.8664C59.2346 99.7995 58.9336 99.7326 58.6326 99.6657C58.1979 99.5654 57.7297 99.4316 57.2615 99.4651C56.3251 99.4985 55.5224 99.8664 54.7533 100.368C54.2516 100.702 53.8503 101.171 53.6831 101.773C53.5493 102.241 53.5828 102.776 53.7834 103.244C53.8169 103.846 54.0175 104.415 54.3185 104.883C54.6864 105.384 55.0208 105.719 55.5559 106.053C55.9238 106.287 56.3251 106.421 56.7264 106.555C57.3618 106.789 58.0641 106.856 58.7329 106.923C59.6693 106.99 60.6726 106.923 61.4084 106.321C61.7093 106.087 61.9434 105.886 62.1441 105.518C62.2779 105.284 62.4116 104.983 62.4785 104.716C62.5788 104.348 62.6457 103.946 62.5788 103.545C62.5454 103.177 62.512 102.809 62.3782 102.475L62.3447 102.508Z" fill="#94801C"/>
<path d="M56.4919 96.6224C56.3247 96.589 56.124 96.589 55.9568 96.589C55.9234 96.589 55.8565 96.5555 55.823 96.5555C55.6224 96.5221 55.3883 96.4886 55.1542 96.4886C54.9535 96.4886 54.7529 96.4886 54.5522 96.5555C54.1844 96.6224 53.783 96.7896 53.4821 97.0572C53.1142 97.3916 53.0139 97.9601 53.2814 98.3949C53.7162 99.0637 54.5522 99.0637 55.2545 98.9968C55.6893 98.9634 56.124 98.8631 56.5253 98.6959C56.9601 98.4952 57.3614 98.1273 57.3948 97.6257C57.3948 97.1241 56.9601 96.7562 56.4919 96.6559V96.6224Z" fill="#94801C"/>
<path d="M64.5189 115.651C61.1746 110.668 53.0481 115.35 56.4258 120.4C57.5294 122.072 57.6297 123.912 57.6632 125.885C57.6632 126.754 57.9976 130.466 57.1281 130.935C51.8776 133.944 56.593 142.038 61.8769 139.028C65.9569 136.687 66.7596 132.473 66.9936 128.125C67.2277 123.912 66.9268 119.263 64.5189 115.651Z" fill="#E1A52B"/>
</g>
<path d="M51.6099 109.431H58.4991C65.522 109.431 71.2072 115.116 71.2072 122.139V130.667C71.2072 139.596 63.9502 146.82 55.0545 146.82C46.1253 146.82 38.9017 139.563 38.9017 130.667V122.139C38.9017 115.116 44.5869 109.431 51.6099 109.431Z" fill="#C7A91C"/>
<mask id="mask1_116_417" style="mask-type:luminance" maskUnits="userSpaceOnUse" x="38" y="109" width="34" height="38">
<path d="M51.6099 109.431H58.4991C65.522 109.431 71.2072 115.116 71.2072 122.139V130.667C71.2072 139.596 63.9502 146.82 55.0545 146.82C46.1253 146.82 38.9017 139.563 38.9017 130.667V122.139C38.9017 115.116 44.5869 109.431 51.6099 109.431Z" fill="white"/>
</mask>
<g mask="url(#mask1_116_417)">
<path opacity="0.15" d="M67.8627 119.865C66.8259 117.792 65.0869 115.919 63.1472 114.882C60.1708 112.073 55.5223 111.371 52.9138 115.785C52.1112 117.156 52.0777 118.46 52.5125 119.597C52.2115 123.243 50.8069 126.219 51.2751 130.032C51.5761 132.74 52.1446 135.851 53.4823 138.258C56.559 143.776 63.2141 142.138 66.1236 137.355C68.9997 132.64 70.4377 124.915 67.8961 119.832L67.8627 119.865Z" fill="#FBFFD1"/>
<path d="M56.7264 155.916C56.3251 152.973 55.9572 150.03 55.7566 147.087C55.5225 143.81 55.5894 140.533 55.7566 137.255C56.091 130.734 56.5926 124.28 56.1579 117.758C56.0241 115.952 55.8569 114.146 55.6228 112.341C55.3887 110.501 55.0877 108.595 55.3553 106.756C55.4556 106.02 54.352 105.685 54.2182 106.455C53.7166 109.632 54.5526 112.909 54.8202 116.086C55.0877 119.364 55.188 122.674 55.1212 125.985C54.9539 132.573 54.1513 139.128 54.4858 145.716C54.653 149.462 55.1546 153.174 55.6562 156.92C55.7566 157.655 56.8267 157.689 56.8267 156.92C56.8267 156.719 56.8267 156.552 56.8267 156.351C56.8267 156.184 56.7598 156.084 56.693 155.983L56.7264 155.916Z" fill="#736000"/>
<path opacity="0.24" d="M51.6433 140.399C50.1719 136.553 48.3994 132.808 48.4663 128.56C48.5666 124.447 49.8374 120.434 51.1751 116.555C51.2754 116.287 51.3089 115.986 51.3089 115.718C52.0112 113.645 50.5063 110.836 47.8977 111.672C41.343 113.812 39.9384 121.236 40.1056 127.524C40.2394 133.309 41.8112 141.035 47.3627 143.81C48.4328 144.345 49.6368 144.379 50.6066 143.576C51.4427 142.874 52.0781 141.503 51.6433 140.366V140.399Z" fill="#8A1500" fill-opacity="0.38"/>
<path d="M55.255 119.664C56.9173 119.664 58.2649 118.317 58.2649 116.655C58.2649 114.992 56.9173 113.645 55.255 113.645C53.5927 113.645 52.2452 114.992 52.2452 116.655C52.2452 118.317 53.5927 119.664 55.255 119.664Z" fill="#736000"/>
<path d="M47.4968 131.637C49.2515 131.637 50.6739 130.214 50.6739 128.46C50.6739 126.705 49.2515 125.283 47.4968 125.283C45.7422 125.283 44.3198 126.705 44.3198 128.46C44.3198 130.214 45.7422 131.637 47.4968 131.637Z" fill="#736000"/>
<path d="M63.1141 131.637C64.8687 131.637 66.2912 130.214 66.2912 128.46C66.2912 126.705 64.8687 125.283 63.1141 125.283C61.3595 125.283 59.9371 126.705 59.9371 128.46C59.9371 130.214 61.3595 131.637 63.1141 131.637Z" fill="#736000"/>
<path d="M48.5336 140.131C48.5336 140.131 48.5002 139.998 48.4667 139.931C48.4667 139.764 48.4333 139.596 48.3998 139.429C48.3664 139.229 48.2661 139.028 48.1657 138.861C48.1657 138.794 48.0988 138.727 48.0654 138.693C47.9651 138.526 47.8313 138.359 47.6641 138.225C47.3631 137.958 47.0287 137.724 46.6274 137.623C46.3264 137.556 45.9251 137.523 45.5906 137.623C45.3565 137.623 45.1224 137.623 44.9218 137.657C44.6208 137.724 44.3533 137.891 44.1526 138.125C43.7179 138.56 43.5172 139.229 43.6844 139.83C43.7513 140.065 43.8516 140.265 43.9519 140.466C43.9519 140.466 43.952 140.533 43.9854 140.533C44.0523 140.733 44.1526 140.968 44.2529 141.168C44.3867 141.436 44.5874 141.703 44.8215 141.904C44.8883 141.971 44.9218 142.004 44.9887 142.071C45.1559 142.205 45.3565 142.372 45.5572 142.472C45.9251 142.64 46.2261 142.773 46.6274 142.74C46.9952 142.74 47.0956 142.673 47.3631 142.573C47.4634 142.539 47.5303 142.506 47.5972 142.472C47.5972 142.472 47.8647 142.272 47.9985 142.171C48.2326 141.971 48.4333 141.569 48.5001 141.269C48.6005 140.901 48.567 140.566 48.5001 140.165L48.5336 140.131Z" fill="#736000"/>
<path d="M66.7257 139.998C66.7257 139.998 66.7592 139.764 66.7592 139.63C66.7592 139.329 66.6923 139.028 66.5251 138.727C66.4247 138.526 66.2575 138.359 66.0569 138.225C65.8897 138.058 65.689 137.958 65.4549 137.924C65.1539 137.824 64.8195 137.824 64.5185 137.924C64.4516 137.924 64.3513 137.958 64.2844 137.991C64.0838 138.058 63.8497 138.158 63.6825 138.259C63.6825 138.259 63.6156 138.292 63.5821 138.326C63.4484 138.426 63.2811 138.526 63.1474 138.66C63.0805 138.727 63.0136 138.76 62.9802 138.827C62.8464 138.994 62.7126 139.162 62.5788 139.362C62.4451 139.563 62.3782 139.797 62.3113 139.964C62.3113 140.031 62.2444 140.098 62.2444 140.198C62.2444 140.232 62.2444 140.265 62.2444 140.332C62.211 140.432 62.1441 140.533 62.1106 140.633C62.0103 140.934 62.0103 141.269 62.1106 141.569C62.1775 141.87 62.3447 142.138 62.5788 142.339C63.0136 142.773 63.6825 142.974 64.2844 142.807C64.2844 142.807 64.3513 142.807 64.3513 142.773C64.5185 142.773 64.6523 142.773 64.8195 142.707C64.9867 142.64 65.1874 142.573 65.3546 142.472C65.4215 142.472 65.4549 142.406 65.4884 142.372C65.689 142.238 65.9231 142.071 66.0569 141.87C66.1906 141.703 66.3244 141.569 66.4247 141.402C66.4247 141.402 66.4247 141.369 66.4582 141.335C66.5251 141.168 66.592 141.001 66.6588 140.834C66.6588 140.834 66.6588 140.767 66.6588 140.733C66.6588 140.667 66.6588 140.566 66.6588 140.499C66.6588 140.399 66.6588 140.332 66.6588 140.232C66.6588 140.165 66.6254 139.931 66.6254 139.964C66.6254 139.964 66.6254 139.964 66.6254 139.931L66.7257 139.998Z" fill="#736000"/>
<path d="M46.8614 115.484C46.7946 115.283 46.6942 115.116 46.5939 114.982C46.527 114.682 46.3598 114.414 46.1591 114.213C45.8247 113.912 45.39 113.678 44.9218 113.712C44.487 113.712 43.9854 113.879 43.6844 114.213C43.4837 114.447 43.2831 114.715 43.1159 114.982C43.1159 114.982 43.1159 115.016 43.1159 115.049C43.0155 115.183 42.9152 115.317 42.8483 115.484C42.8149 115.584 42.7814 115.685 42.748 115.752C42.5139 116.12 42.3467 116.487 42.1795 116.889C42.0457 117.223 41.9788 117.491 41.9454 117.859C41.9454 117.892 41.9454 117.925 41.9454 117.959C41.9454 118.126 41.9454 118.327 42.0123 118.494C42.0457 118.661 42.146 118.828 42.2129 118.962C42.2798 119.096 42.4136 119.263 42.5473 119.397C42.9152 119.765 43.3834 119.932 43.9185 119.965C44.0188 119.965 44.0857 119.965 44.186 119.965C44.2529 119.965 44.3867 119.965 44.487 119.932C44.487 119.932 44.5205 119.932 44.5539 119.932C44.6877 119.865 44.8883 119.832 45.0221 119.731C45.4568 119.464 45.7244 119.129 46.0254 118.695C46.3264 118.293 46.527 117.825 46.6942 117.323C46.7945 117.089 46.8949 116.889 46.9283 116.655C46.9952 116.253 47.0621 115.919 46.9283 115.551L46.8614 115.484Z" fill="#736000"/>
<path d="M68.3979 117.825C68.3979 117.825 68.331 117.524 68.2642 117.357C68.2642 117.324 68.2642 117.29 68.2642 117.257C68.2642 117.223 68.2642 117.156 68.2642 117.123C68.2642 116.855 68.2307 116.621 68.1638 116.354C68.0969 116.019 67.9632 115.685 67.7625 115.384C67.6288 115.15 67.4615 114.983 67.2609 114.782C67.1606 114.648 67.0602 114.514 66.9599 114.414C66.7927 114.247 66.6255 114.113 66.3914 114.046C66.1907 113.946 65.9566 113.879 65.7225 113.879C65.2878 113.879 64.7861 114.08 64.4851 114.381C64.2176 114.682 63.9835 115.083 63.9835 115.518C63.9501 115.752 63.9166 115.986 63.8832 116.22C63.8832 116.454 63.9166 116.722 63.9501 116.922C63.9835 117.257 64.1173 117.524 64.251 117.825C64.3514 118.093 64.4851 118.36 64.6524 118.594C64.8865 118.895 65.1205 119.23 65.3881 119.464C65.5219 119.564 65.6222 119.631 65.756 119.731C65.9566 119.865 66.1907 119.932 66.4248 119.932C66.592 119.966 66.7258 119.966 66.893 119.932C67.1271 119.932 67.3612 119.865 67.5619 119.731C67.8294 119.564 68.0301 119.364 68.1973 119.096C68.331 118.895 68.3979 118.661 68.3979 118.427C68.4648 118.193 68.4314 117.959 68.3979 117.725V117.825Z" fill="#736000"/>
</g>
<g style="mix-blend-mode:soft-light" opacity="0.38">
<path d="M80.3375 82.0416L79.468 84.3491L78.0969 87.9609L77.6287 89.1983L51.1755 159.729L50.7074 160.933L49.3362 164.578L48.4667 166.886C47.4634 166.752 46.4601 166.551 45.4569 166.35C34.8555 164.143 25.5585 158.291 19.0037 150.164C18.4687 149.495 17.9336 148.793 17.3985 148.091L18.4018 145.348L20.0405 140.867L20.609 139.295L40.6746 84.7504L41.2431 83.1786L42.8818 78.6973L43.8851 75.955C45.6241 75.5203 47.3965 75.2193 49.2024 74.9852C51.1087 74.7511 53.0149 74.6173 54.988 74.6173C63.3821 74.6173 71.2411 76.858 78.0634 80.7373C78.7992 81.1721 79.5349 81.6068 80.2372 82.075L80.3375 82.0416Z" fill="#FFFB8C"/>
</g>
<path d="M86.1896 89.834C84.1496 87.794 81.8755 85.9212 79.4676 84.3159C72.5116 79.6674 64.1175 76.9586 55.088 76.9586C50.8742 76.9586 46.8276 77.5605 42.9817 78.6641C41.2762 79.1658 39.604 79.7343 37.9988 80.4366C32.7483 82.6438 27.9994 85.8877 24.0198 89.8674C16.0604 97.8268 11.1443 108.829 11.1443 120.969C11.1443 129.965 13.8532 138.359 18.5017 145.315C20.107 147.757 21.9798 149.997 24.0198 152.037C30.7083 158.726 39.5371 163.274 49.4027 164.545C51.2755 164.779 53.1817 164.913 55.1214 164.913C67.2611 164.913 78.2637 159.997 86.223 152.037C94.1824 144.078 99.0985 133.075 99.0985 120.936C99.0985 108.796 94.1824 97.7933 86.223 89.834H86.1896ZM94.8512 127.056C94.8178 127.39 94.7509 127.724 94.684 128.059C94.5503 128.728 94.4499 129.363 94.2827 130.032C94.2158 130.366 94.1155 130.667 94.0486 131.002C93.8145 131.972 93.5135 132.908 93.2125 133.844C92.7778 135.082 92.3096 136.319 91.7745 137.49C91.6073 137.891 91.4066 138.292 91.206 138.66C90.8381 139.429 90.4034 140.199 90.0021 140.934C89.6676 141.503 89.3332 142.038 88.9988 142.573C88.6644 143.108 88.2965 143.643 87.8952 144.178C87.5273 144.713 87.126 145.215 86.7581 145.717C86.3568 146.218 85.9555 146.72 85.5207 147.222C84.8853 147.957 84.2499 148.66 83.5476 149.328C82.8788 149.997 82.1765 150.666 81.4407 151.302C80.3371 152.271 79.2001 153.141 77.9962 153.977C76.5581 154.98 75.0532 155.883 73.4814 156.686C73.2139 156.82 72.9463 156.953 72.6788 157.087C67.3948 159.662 61.4421 161.1 55.1548 161.1C53.6834 161.1 52.2453 161.033 50.8073 160.866C46.1253 160.364 41.644 159.027 37.564 157.054C37.1293 156.82 36.6611 156.619 36.2263 156.385C35.7916 156.151 35.3568 155.917 34.9221 155.649C34.4873 155.415 34.0525 155.147 33.6512 154.88C31.9791 153.81 30.3739 152.606 28.8689 151.302C28.1332 150.666 27.4309 149.997 26.762 149.328C26.4276 148.994 26.0932 148.626 25.7588 148.292C25.4243 147.924 25.1234 147.589 24.7889 147.222C24.3542 146.72 23.9529 146.252 23.5516 145.75C23.1502 145.248 22.7824 144.713 22.4145 144.212C22.0466 143.677 21.6788 143.142 21.3109 142.606C20.9765 142.071 20.642 141.503 20.3076 140.968C20.3076 140.901 20.2407 140.867 20.2407 140.834C19.8394 140.132 19.4716 139.396 19.1037 138.694C18.903 138.292 18.7358 137.924 18.5352 137.523C18.0001 136.353 17.4984 135.115 17.0971 133.878C15.726 129.831 14.9902 125.484 14.9902 120.969C14.9902 116.454 15.726 112.107 17.0971 108.06C17.5319 106.823 18.0001 105.585 18.5352 104.415C18.7024 104.014 18.903 103.612 19.1037 103.244C19.4716 102.475 19.9063 101.706 20.3076 100.97C20.642 100.402 20.9765 99.8668 21.3109 99.3317C21.6453 98.7966 22.0132 98.2615 22.4145 97.7264C22.7824 97.1913 23.1837 96.6897 23.5516 96.1881C23.9529 95.6864 24.3542 95.1848 24.7889 94.6832C25.0899 94.3153 25.4243 93.9474 25.7588 93.613C26.0932 93.2786 26.4276 92.9107 26.762 92.5763C27.4309 91.9074 28.1666 91.2386 28.8689 90.6031C30.9424 88.8307 33.183 87.2254 35.5575 85.8877C36.3601 85.453 37.1627 85.0182 37.9988 84.6169C38.2663 84.4832 38.5673 84.3494 38.8348 84.2491C39.4034 84.015 39.9719 83.7474 40.5404 83.5468C40.8414 83.4464 41.1089 83.3127 41.4099 83.2123C41.7778 83.0786 42.1122 82.9448 42.4801 82.8445C46.4598 81.5068 50.7404 80.8045 55.1883 80.8045C63.7496 80.8045 71.6755 83.4799 78.1968 88.0281C79.0663 88.63 79.9024 89.2654 80.705 89.9343C80.9725 90.1684 81.2401 90.369 81.5076 90.6031C82.2434 91.2386 82.9457 91.9074 83.6145 92.5763C84.2834 93.2451 84.9522 93.9474 85.5876 94.6832C86.0224 95.1848 86.4237 95.653 86.825 96.1546C87.2263 96.6563 87.5942 97.1913 87.9621 97.693C88.3299 98.2281 88.6978 98.7632 89.0657 99.2982C89.4001 99.8333 89.7345 100.402 90.0689 100.937C90.5037 101.673 90.905 102.442 91.2729 103.211C91.4735 103.612 91.6407 103.98 91.8414 104.382C92.3765 105.552 92.8781 106.789 93.2794 108.027C93.6139 108.963 93.8814 109.9 94.1155 110.869C94.1824 111.204 94.2827 111.505 94.3496 111.839C94.4834 112.475 94.6171 113.143 94.7509 113.812C94.8178 114.147 94.8512 114.481 94.9181 114.816C95.0185 115.484 95.1188 116.153 95.1857 116.822C95.3194 118.16 95.3863 119.531 95.3863 120.936C95.3863 122.34 95.3194 123.711 95.1857 125.049C95.1188 125.718 95.0185 126.387 94.9181 127.056H94.8512Z" fill="#FAE543"/>
<g style="mix-blend-mode:multiply">
<path d="M95.0858 116.822C95.0189 116.153 94.9186 115.484 94.8183 114.816C94.7848 114.481 94.7179 114.147 94.651 113.812C94.5173 113.143 94.3835 112.508 94.2497 111.839C94.1829 111.505 94.0825 111.204 94.0156 110.869C93.7815 109.9 93.4806 108.963 93.1796 108.027C92.7448 106.789 92.2766 105.552 91.7415 104.381C91.5743 103.98 91.3737 103.579 91.173 103.211C90.8052 102.442 90.3704 101.673 89.9691 100.937C89.6347 100.368 89.3002 99.8333 88.9658 99.2982C88.6314 98.7631 88.2635 98.228 87.8622 97.693C87.4943 97.1579 87.093 96.6562 86.7251 96.1546C86.3238 95.653 85.9225 95.1513 85.4878 94.6497C84.8524 93.9139 84.1835 93.2116 83.5147 92.5428C82.8458 91.8739 82.1435 91.2051 81.4078 90.5697C81.1402 90.3356 80.8727 90.1349 80.6052 89.9008C79.8025 89.232 78.9665 88.5966 78.097 87.9946C71.5756 83.4464 63.6497 80.771 55.0884 80.771C50.6406 80.771 46.3933 81.4733 42.3802 82.811C42.0124 82.9448 41.6779 83.0451 41.3101 83.1789C41.0091 83.2792 40.7415 83.413 40.4405 83.5133C39.872 83.7474 39.3035 83.9815 38.735 84.2156C38.4674 84.3494 38.1665 84.4497 37.8989 84.5835C37.0628 84.9848 36.2602 85.3861 35.4576 85.8543C33.0497 87.192 30.8091 88.7638 28.7691 90.5697C28.0333 91.2051 27.331 91.8739 26.6622 92.5428C26.3278 92.8772 25.9933 93.2451 25.6589 93.5795C25.3245 93.9474 25.0235 94.2818 24.6891 94.6497C24.2543 95.1513 23.853 95.6195 23.4517 96.1212C23.0504 96.6228 22.6825 97.1579 22.3146 97.6595C21.9468 98.1946 21.5789 98.7297 21.211 99.2648C20.8766 99.7998 20.5422 100.368 20.2078 100.903C19.773 101.639 19.3717 102.408 19.0038 103.178C18.8032 103.579 18.636 103.947 18.4353 104.348C17.9002 105.519 17.432 106.756 16.9973 107.993C15.6261 112.04 14.8904 116.387 14.8904 120.902C14.8904 125.417 15.6261 129.764 16.9973 133.811C17.432 135.048 17.9002 136.286 18.4353 137.456C18.6025 137.858 18.8032 138.259 19.0038 138.627C19.3717 139.362 19.7396 140.065 20.1409 140.767C20.1409 140.767 20.1743 140.867 20.2078 140.901C20.5422 141.469 20.8766 142.004 21.211 142.54C21.5455 143.075 21.9133 143.61 22.3146 144.145C22.6825 144.68 23.0838 145.181 23.4517 145.683C23.853 146.185 24.2543 146.686 24.6891 147.188C24.9901 147.556 25.3245 147.924 25.6589 148.258C25.9933 148.593 26.3278 148.961 26.6622 149.295C27.331 149.964 28.0668 150.633 28.7691 151.268C30.274 152.572 31.8792 153.776 33.5514 154.846C33.9861 155.114 34.3874 155.381 34.8222 155.616C35.2569 155.85 35.6917 156.117 36.1264 156.351C36.5612 156.585 37.0294 156.82 37.4642 157.02C41.5442 158.993 45.992 160.331 50.7074 160.833C52.1455 161 53.5835 161.067 55.055 161.067C61.3422 161.067 67.295 159.629 72.5789 157.054C72.8465 156.92 73.114 156.786 73.3815 156.652C74.9533 155.85 76.4583 154.947 77.8963 153.943C79.1002 153.107 80.2373 152.204 81.3409 151.268C82.0766 150.633 82.7789 149.964 83.4478 149.295C84.1166 148.626 84.7855 147.89 85.4209 147.188C85.8556 146.686 86.2569 146.218 86.6583 145.717C87.0596 145.215 87.4274 144.68 87.7953 144.178C88.1632 143.643 88.5311 143.108 88.8989 142.573C89.2333 142.038 89.5678 141.469 89.9022 140.934C90.337 140.199 90.7383 139.429 91.1061 138.66C91.3068 138.259 91.474 137.891 91.6747 137.49C92.2097 136.319 92.6779 135.082 93.1127 133.844C93.4137 132.908 93.7147 131.972 93.9488 131.002C94.0156 130.667 94.116 130.366 94.1828 130.032C94.3166 129.397 94.4504 128.728 94.5842 128.059C94.6511 127.724 94.6845 127.39 94.7514 127.056C94.8517 126.387 94.952 125.718 95.0189 125.049C95.1527 123.711 95.2196 122.34 95.2196 120.936C95.2196 119.531 95.1527 118.16 95.0189 116.822H95.0858ZM82.6451 148.492C75.5887 155.549 65.8569 159.896 55.0884 159.896C53.7842 159.896 52.4799 159.829 51.1756 159.696C41.9789 158.793 33.7186 154.679 27.4983 148.492C24.7894 145.783 22.4819 142.673 20.6425 139.262C17.733 133.811 16.0609 127.557 16.0609 120.936C16.0609 110.167 20.4084 100.435 27.4648 93.3789C31.2104 89.6333 35.6917 86.6569 40.6746 84.6838C45.1225 82.9113 49.9383 81.9415 55.0215 81.9415C63.4491 81.9415 71.2078 84.6169 77.5953 89.1317C79.3678 90.4025 81.0399 91.8071 82.5783 93.3454C89.6347 100.402 93.9822 110.134 93.9822 120.902C93.9822 131.671 89.6347 141.402 82.5783 148.459L82.6451 148.492Z" fill="#F6F39E"/>
</g>
<path d="M108.997 0.107178H88.7641L44.8873 73.38H65.1201L108.997 0.107178Z" fill="#EB00B4"/>
<g style="mix-blend-mode:multiply">
<path d="M98.6972 105.05L78.0966 161.2C72.4113 164.444 65.9569 166.551 59.0677 167.12L88.8651 89.1315C93.1457 93.6797 96.5234 99.0639 98.6972 105.05Z" fill="#F6F39E"/>
</g>
<g style="mix-blend-mode:multiply">
<path d="M40.8075 76.7913L15.7255 145.482C13.6855 142.239 12.0803 138.761 10.8763 135.048L30.7413 81.4398C33.8514 79.5002 37.2291 77.9284 40.8075 76.7913Z" fill="#F6F39E"/>
</g>
</svg>
