<svg width="42" height="65" viewBox="0 0 42 65" fill="none" xmlns="http://www.w3.org/2000/svg">
<path d="M0 0H7.86686L24.9269 28.483H17.0601L0 0Z" fill="#BA3F3F"/>
<path d="M24.771 30.9011V30.5371H17.2812C16.9951 30.5371 16.7351 30.4201 16.54 30.2251C16.345 30.0301 16.2279 29.7701 16.2279 29.4841C16.2279 29.1981 16.345 28.9381 16.54 28.7431C16.7351 28.5481 16.9951 28.4311 17.2812 28.4311H24.771C25.057 28.4311 25.3171 28.5481 25.5122 28.7431C25.7072 28.9381 25.8242 29.1981 25.8242 29.4841C25.8242 29.7701 25.7072 30.0301 25.5122 30.2251C25.3171 30.4201 25.057 30.5371 24.771 30.5371V31.2651C25.7592 31.2651 26.5524 30.4721 26.5524 29.4841C26.5524 28.4961 25.7592 27.7031 24.771 27.7031H17.2812C16.306 27.7031 15.4998 28.4961 15.4998 29.4841C15.4998 30.4591 16.293 31.2651 17.2812 31.2651H24.771V30.9011Z" fill="#E0C64C"/>
<path d="M39.0614 46.969C39.0614 56.927 30.9865 65 21.0261 65C20.1549 65 19.3097 64.935 18.4775 64.818C18.0874 64.766 17.6973 64.688 17.3072 64.61C13.1853 63.752 9.57039 61.477 7.02178 58.318C6.81373 58.058 6.60567 57.785 6.39762 57.512C4.40815 54.756 3.17288 51.402 3.01685 47.775C3.01685 47.645 3.01685 47.515 3.01685 47.385C3.01685 47.242 3.01685 47.112 3.01685 46.969C3.01685 46.813 3.01685 46.657 3.01685 46.501C3.2249 38.233 8.99826 31.356 16.7351 29.458C17.4113 29.289 18.1004 29.172 18.8026 29.081C19.5438 28.99 20.285 28.938 21.0521 28.938C24.3159 28.938 27.3716 29.809 30.0243 31.317C30.3103 31.486 30.5964 31.655 30.8695 31.837C35.8236 35.048 39.0874 40.625 39.0874 46.956L39.0614 46.969Z" fill="#E0C64C"/>
<path d="M20.636 45.7472C20.1159 44.7462 19.5307 43.7842 18.7895 42.9262C16.9301 40.7552 14.1865 39.1692 11.2608 39.0132C10.4806 38.9742 9.42731 39.4552 9.21926 40.2612C9.19325 40.3782 9.19324 40.5212 9.16724 40.6382C9.20625 41.0802 9.45333 41.4052 9.80442 41.6652C9.59637 42.6922 10.1035 43.7192 11.0137 44.2002C10.8317 44.8372 11.0787 45.4222 11.5468 45.8512C11.6378 45.9292 11.8849 46.0852 11.9369 46.1502C11.9629 46.1892 12.0149 46.3712 12.0409 46.4362C12.21 46.8002 12.561 47.1772 12.8211 47.4762C13.0942 47.7882 13.5883 48.3602 13.9004 48.5682C13.9784 48.6202 14.0824 48.6852 14.1865 48.7112C14.1865 48.7372 14.1604 48.7372 14.1474 48.7372C13.9264 48.7762 13.7573 48.7762 13.5493 48.8932C13.1722 49.1272 13.3412 49.3742 13.1462 49.6472C12.9901 49.8812 12.6131 49.8812 12.431 50.2062C12.288 50.4662 12.392 50.8302 12.5871 51.0382C12.6261 51.0772 12.8211 51.1942 12.8211 51.2592C12.8211 51.3502 12.5351 51.6882 12.47 51.8182C12.262 52.3252 12.7561 52.2732 12.9252 52.5592C13.1592 52.9622 12.8861 53.5342 13.2892 54.0282C13.5103 54.3012 14.0044 54.4182 13.8614 54.8602C13.7443 55.2112 13.7183 55.5752 14.7976 55.6012C15.2397 55.6142 14.9926 56.1992 15.9679 56.1212C16.0589 56.1212 16.1369 56.0822 16.2149 56.0692C16.618 56.0172 16.7871 56.4982 17.2292 56.3552C17.5282 56.2512 17.6453 55.7442 17.7883 55.4842C17.9833 55.1202 18.2174 55.0292 18.4644 54.7432C19.0106 54.1062 19.0496 52.8452 19.2186 52.0262C19.3747 51.2982 19.6998 50.6092 20.1159 49.9852L20.662 48.9322L20.844 46.9952L20.597 45.7342L20.636 45.7472ZM9.73938 40.1702C9.73938 40.1702 9.77838 40.1442 9.81739 40.1312C9.77838 40.1312 9.75238 40.1572 9.73938 40.1702ZM9.92144 40.7422C9.92144 40.7422 9.84341 40.7422 9.7914 40.7422C9.83041 40.7422 9.88243 40.7422 9.92144 40.7292V40.7422ZM9.90842 40.3782H9.92144V40.3652H9.90842V40.3782ZM10.0645 43.0562C10.0645 43.0562 10.0644 43.0172 10.0904 43.0172C10.0904 43.0172 10.0775 43.0432 10.0645 43.0562ZM10.1425 43.1472C10.1425 43.1472 10.1425 43.1862 10.1425 43.1992C10.1425 43.1862 10.1165 43.1602 10.1425 43.1472ZM10.2205 42.8482C10.2205 42.8482 10.2205 42.8222 10.2205 42.8092C10.2205 42.8092 10.2205 42.8222 10.2205 42.8482ZM10.5456 39.5462C10.5456 39.5462 10.4545 39.5462 10.4155 39.5462C10.4545 39.5462 10.5066 39.5462 10.5456 39.5462ZM10.7016 43.0562C10.7016 43.0562 10.7406 43.0432 10.7406 43.0302C10.7406 43.0302 10.7146 43.0432 10.7016 43.0562ZM10.9617 44.0052C10.9617 44.0052 10.9357 44.0052 10.9227 44.0052H10.9617L11.0007 43.9922C11.0007 43.9922 10.9747 43.9922 10.9617 43.9922V44.0052ZM11.1567 45.0712V45.0452C11.1567 45.0452 11.1567 45.0582 11.1567 45.0712ZM11.1177 44.5642C11.1177 44.5642 11.1437 44.5512 11.1567 44.5382C11.1307 44.5382 11.1177 44.5512 11.1177 44.5642ZM11.0657 39.1822C10.9877 39.2082 10.8836 39.2082 10.7926 39.1952C10.8836 39.1952 10.9747 39.1952 11.0657 39.1692H11.1827V39.1822H11.0657ZM11.2998 44.9932C11.2998 44.9932 11.2998 44.9932 11.2998 44.9802V44.9932ZM11.6378 45.4482C11.6378 45.4482 11.6638 45.4222 11.6638 45.4092C11.6638 45.4092 11.6508 45.4482 11.6378 45.4482ZM11.7679 45.9032C11.7679 45.9032 11.7809 45.8642 11.7939 45.8512C11.7809 45.8642 11.7679 45.8772 11.7679 45.9032ZM13.3673 39.4942C13.3673 39.4942 13.2762 39.4682 13.2372 39.4552C13.2762 39.4552 13.3282 39.4812 13.3673 39.4942C13.3673 39.4942 13.3933 39.4942 13.4193 39.5072C13.3933 39.5072 13.3803 39.5072 13.3673 39.5072V39.4942ZM13.8224 43.4072C13.8224 43.4072 13.8874 43.4072 13.9004 43.4072C13.8874 43.4072 13.8484 43.4072 13.8224 43.4072ZM13.8744 40.7162C13.8744 40.7162 13.9004 40.7292 13.9134 40.7422C13.9134 40.7422 13.8874 40.7162 13.8744 40.7162ZM12.8861 51.4932L12.8991 51.4672V51.4932H12.8861ZM13.3542 52.0392V52.0652C13.3542 52.0652 13.3412 52.0652 13.3152 52.0912C13.3282 52.0912 13.3412 52.0782 13.3412 52.0652V52.0392H13.3542ZM13.2892 51.3242H13.3152V51.3112H13.2892V51.3242ZM13.3022 51.6232C13.3022 51.6232 13.3022 51.6492 13.2892 51.6622C13.3022 51.6492 13.3152 51.6362 13.3022 51.6232ZM13.3412 50.5052V50.4792H13.3673L13.3412 50.5052ZM13.3282 50.2192C13.3282 50.2192 13.3022 50.2192 13.2892 50.2192C13.3022 50.2192 13.3152 50.2192 13.3282 50.2192ZM13.1852 50.0242L13.2112 50.0112H13.1852V50.0242ZM13.2112 50.2452C13.2112 50.2452 13.1592 50.2582 13.1462 50.2712C13.1462 50.2712 13.1722 50.2712 13.2112 50.2582V50.2452ZM13.1592 49.9072C13.1592 49.9072 13.1852 49.9072 13.1982 49.8942C13.1852 49.8942 13.1722 49.8942 13.1592 49.9072ZM13.1982 51.9222C13.1982 51.9222 13.1982 51.9482 13.1722 51.9612C13.1852 51.9482 13.1982 51.9352 13.1982 51.9222ZM13.1072 50.6222C13.1072 50.6222 13.0942 50.6482 13.0812 50.6612C13.0812 50.6612 13.0942 50.6352 13.1072 50.6222ZM13.0292 51.2852C13.0292 51.2852 13.0292 51.2722 13.0552 51.2462C13.0422 51.2592 13.0292 51.2722 13.0422 51.2852H13.0292ZM13.0552 51.4672C13.0552 51.4672 13.0942 51.4412 13.1202 51.4282C13.0942 51.4412 13.0682 51.4542 13.0422 51.4672H13.0552ZM13.0682 52.3382C13.0682 52.3382 13.2112 52.2732 13.2892 52.2602C13.2112 52.2732 13.1202 52.2992 13.0682 52.3382ZM13.2502 52.5592C13.2502 52.5592 13.3152 52.5462 13.3412 52.5332C13.3152 52.5332 13.2762 52.5462 13.2502 52.5592ZM13.3152 52.8062C13.3152 52.8062 13.4323 52.7542 13.4843 52.7282C13.4323 52.7542 13.3672 52.7802 13.3152 52.8062ZM13.6663 52.0912L13.7053 52.0652C13.7053 52.0652 13.6663 52.1042 13.6663 52.0912ZM13.7703 53.8202C13.7703 53.8202 13.7964 53.7942 13.8224 53.7812C13.7964 53.7942 13.7833 53.8072 13.7703 53.8202ZM14.4985 39.9232H14.5245H14.5115H14.4985ZM14.1865 53.7812C14.1865 53.7812 14.1864 53.8072 14.1734 53.8072V53.7812H14.1865ZM14.1734 54.5742C14.1734 54.5742 14.1604 54.6002 14.1474 54.6262C14.1474 54.6002 14.1734 54.5872 14.1734 54.5742C14.1734 54.5482 14.1994 54.5352 14.2124 54.5092C14.1994 54.5352 14.1864 54.5482 14.1734 54.5742ZM14.4205 54.5872L14.3815 54.6132L14.4205 54.5742V54.5872ZM15.1487 54.9122C15.1487 54.9122 15.1487 54.8862 15.1487 54.8732C15.1487 54.8732 15.1487 54.8992 15.1357 54.9122H15.1487ZM15.4347 55.2762C15.4347 55.2762 15.3957 55.2892 15.3827 55.3022C15.3827 55.3022 15.4217 55.2892 15.4347 55.2762C15.4347 55.2762 15.4348 55.2762 15.4478 55.2502C15.4478 55.2632 15.4347 55.2762 15.4347 55.2762ZM15.7208 55.4322C15.7208 55.4322 15.7338 55.3932 15.7728 55.3412C15.7468 55.3802 15.7208 55.4192 15.7208 55.4322ZM15.9158 55.3412C15.9158 55.3412 15.9288 55.3152 15.9418 55.3022C15.9418 55.3022 15.9158 55.3282 15.9158 55.3412ZM16.0069 55.4452C16.0069 55.4452 16.0069 55.4322 16.0199 55.4192C16.0199 55.4322 16.0069 55.4452 16.0069 55.4452ZM16.2149 55.3672C16.2149 55.3672 16.2409 55.3282 16.2149 55.3152C16.2149 55.3152 16.2149 55.3542 16.2019 55.3672H16.2149ZM16.462 51.0512C16.462 51.0512 16.501 51.0122 16.54 50.9862C16.501 51.0252 16.462 51.0512 16.462 51.0642V51.0512ZM16.657 51.2072C16.657 51.2072 16.618 51.2592 16.579 51.2852C16.605 51.2592 16.644 51.2332 16.657 51.2202V51.2072ZM16.9691 51.9352C16.9691 51.9352 17.0081 51.9092 17.0211 51.8962C17.0211 51.9092 16.9951 51.9222 16.9691 51.9352ZM17.8663 51.7662L17.6973 51.9092L17.8663 51.7532V51.7662ZM18.3735 51.2202C18.3474 51.2592 18.3344 51.2982 18.3084 51.3502C18.3344 51.3112 18.3474 51.2592 18.3735 51.2202ZM18.6855 43.6282C18.6855 43.6282 18.6465 43.5892 18.6335 43.5762C18.6465 43.5892 18.6725 43.6022 18.6855 43.6282ZM19.3877 48.7502C19.3877 48.7502 19.4137 48.7502 19.4267 48.7502C19.4137 48.7502 19.4007 48.7502 19.3877 48.7502ZM19.7908 49.3092C19.7908 49.3092 19.7257 49.3742 19.6867 49.4132C19.7257 49.3742 19.7518 49.3482 19.7908 49.3092ZM19.6998 49.1662C19.6998 49.1662 19.7778 49.1142 19.8038 49.0752C19.7648 49.1012 19.7388 49.1272 19.6998 49.1662ZM19.8948 50.0762L19.8428 50.1412L19.8818 50.0762H19.8948Z" fill="#C7A210"/>
<path d="M20.8439 46.1112C20.8439 46.1112 16.5009 40.7162 14.7585 40.8722C13.0161 41.0282 13.7182 42.5622 15.1616 42.9132C18.3213 43.6802 20.8439 46.1242 20.8439 46.1242V46.1112Z" fill="#FAE543"/>
<path d="M13.0942 44.3561C13.1722 45.2921 14.5115 45.5521 15.4867 45.5781C18.6855 45.6691 20.0898 46.5011 20.792 46.7741C21 47.0211 18.9716 44.1351 14.7846 43.4201C13.7963 43.2511 13.0292 43.5891 13.0942 44.3561Z" fill="#FAE543"/>
<path d="M14.4202 46.0072C13.8611 46.0332 12.8599 46.3452 13.458 47.3852C14.0561 48.4252 15.5775 48.3212 15.9936 48.2432C16.4097 48.1652 20.4536 47.0862 20.7397 47.1512C20.7397 47.1512 17.71 45.8902 14.4202 46.0202V46.0072Z" fill="#FAE543"/>
<path d="M10.7404 39.5201C10.4154 39.5851 9.42716 39.8321 9.86926 40.8461C10.1683 41.5091 10.9875 41.2101 11.4946 40.7161C12.4309 39.8191 13.5621 39.8971 14.3033 40.0791C14.3033 40.0791 12.4699 39.1691 10.7275 39.5331L10.7404 39.5201Z" fill="#FCEE85"/>
<path d="M10.4673 41.7691C10.4673 41.7691 9.84325 42.8091 11.1953 43.5761C12.5473 44.3431 12.5083 41.1451 13.4573 40.8591C15.0433 40.3781 14.3152 40.2481 13.6652 40.2481C13.3922 40.2481 12.3523 40.3521 11.8063 41.1581C11.2603 41.9641 10.4673 41.7691 10.4673 41.7691Z" fill="#FCEE85"/>
<path d="M13.1851 41.7561C13.0031 41.7561 12.5871 42.5751 12.7431 42.9911C12.8991 43.4071 14.1991 43.2641 14.2771 42.9911C14.3551 42.7181 13.3801 41.7561 13.1851 41.7561Z" fill="#FAE543"/>
<path d="M11.7286 44.2001C11.5986 44.3561 10.9616 44.9151 11.7286 45.5781C12.4956 46.2411 12.9766 45.2271 13.0156 45.0581C13.0546 44.8891 12.5346 44.3561 12.7946 43.7841C13.0546 43.2121 11.8456 44.0441 11.7156 44.2001H11.7286Z" fill="#FCEE85"/>
<path d="M12.4572 46.2671C12.4572 46.5141 12.4052 46.7871 12.7692 46.8651C13.1332 46.9431 12.8082 46.0591 13.7832 45.8381C14.3682 45.6951 13.4582 45.3831 13.1852 45.5261C12.9122 45.6691 12.4442 45.7601 12.4572 46.2671Z" fill="#FCEE85"/>
<path d="M19.9857 47.8402C19.9857 47.8402 17.7492 49.8812 14.7195 49.2442C14.7195 49.2442 13.7443 48.9582 13.7052 49.6472C13.6662 50.3362 16.4229 50.0502 17.2941 49.7122C18.1653 49.3742 19.7517 48.4382 19.9857 47.8402Z" fill="#FAE543"/>
<path d="M13.1591 50.1281C12.9641 50.1281 12.5611 50.3361 12.9641 50.8691C13.3671 51.4021 13.8091 51.1161 13.8871 50.7521C13.9651 50.3881 13.3541 50.1281 13.1591 50.1281Z" fill="#FCEE85"/>
<path d="M12.886 52.0391C12.99 52.3771 13.731 52.6111 14.173 52.0781C14.615 51.5451 14.641 50.5701 15.018 50.3361C15.018 50.3361 14.381 50.2841 14.173 51.0381C13.887 52.0391 12.678 51.3501 12.886 52.0261V52.0391Z" fill="#FCEE85"/>
<path d="M20.4927 47.8402C20.4927 47.8402 19.4264 49.5042 18.1781 49.9072C16.9298 50.3102 15.2004 50.1802 15.0184 51.0122C14.8364 51.8442 14.8364 52.1172 14.0692 52.5332C13.8742 52.6372 15.0964 53.2612 15.6686 52.1692C16.5008 50.6092 17.645 50.7392 18.3212 50.3492C19.8816 49.4652 20.4927 47.8402 20.4927 47.8402Z" fill="#FAE543"/>
<path d="M13.7963 52.9492C13.5883 52.8452 13.1204 52.9752 13.5624 53.7162C14.0044 54.4572 14.6544 54.3142 14.9014 53.8202C15.1484 53.3262 15.5254 53.0012 15.6944 52.5332C15.6944 52.5332 15.0443 53.5732 13.7963 52.9492Z" fill="#FCEE85"/>
<path d="M16.0199 52.3903C16.2279 52.0393 16.5138 51.1943 17.7748 50.8693C18.0868 50.7913 18.3729 50.8043 18.2949 50.8433C16.5789 51.7013 16.9169 53.6513 16.0199 53.3393C15.5909 53.1963 15.8119 52.7413 16.0199 52.3903Z" fill="#FAE543"/>
<path d="M20.3754 48.9581C20.2974 49.0621 18.8154 50.2841 18.6854 50.8691C18.5554 51.4541 19.0104 51.5711 19.1664 51.3111C19.3224 51.0511 19.7644 49.6341 20.4404 49.1661C21.1164 48.6981 20.3754 48.9451 20.3754 48.9451V48.9581Z" fill="#FAE543"/>
<path d="M18.2949 51.1942C18.2949 51.1942 16.7478 52.8452 16.8388 53.4432C16.9298 54.0412 17.0339 54.6132 17.6449 54.3012C18.2559 53.9892 18.5548 51.6492 18.5548 51.6492C18.5548 51.6492 18.2689 51.4152 18.2949 51.1942Z" fill="#FAE543"/>
<path d="M18.8543 51.8182C18.8543 51.8182 19.0493 51.8052 19.1663 51.7142C19.1663 51.7142 18.9193 54.2752 18.4773 54.2362C18.0353 54.1972 18.4773 53.3782 18.6723 52.9102C18.8673 52.4422 18.8672 51.8052 18.8672 51.8052L18.8543 51.8182Z" fill="#FAE543"/>
<path d="M15.7596 53.6641C15.5386 53.7421 14.6156 54.4181 14.8756 54.9511C15.1356 55.4841 16.0196 56.0171 16.2926 55.5751C16.5656 55.1331 16.7346 53.9501 16.7086 53.6641C16.7086 53.5471 16.4356 53.9241 16.2796 53.8721C16.0456 53.7811 15.8896 53.6251 15.7596 53.6641Z" fill="#FCEE85"/>
<path d="M16.8909 54.5091C16.8909 54.5091 17.3719 55.1201 17.9829 54.5741C18.3339 54.2621 18.1389 54.8341 17.8789 54.9511C17.6189 55.0681 17.5149 56.1341 17.2029 56.0171C17.0729 55.9651 16.7479 55.9001 16.6829 55.6661C16.6049 55.3281 16.9039 55.0941 16.8909 54.5221V54.5091Z" fill="#FCEE85"/>
<path d="M32.8848 40.6511C32.8587 40.5341 32.8717 40.3911 32.8327 40.2741C32.6247 39.4681 31.5584 38.9871 30.7912 39.0261C27.8785 39.1821 25.1219 40.7551 23.2624 42.9391C22.5343 43.7971 21.9361 44.7721 21.416 45.7601L21.1689 47.0211L21.351 48.9581L21.8971 50.0111C22.3132 50.6351 22.6383 51.3241 22.7943 52.0521C22.9634 52.8711 22.9894 54.1321 23.5485 54.7691C23.7956 55.0551 24.0296 55.1461 24.2247 55.5101C24.3677 55.7701 24.4847 56.2771 24.7838 56.3811C25.2259 56.5371 25.408 56.0431 25.798 56.0951C25.8761 56.0951 25.9541 56.1471 26.0451 56.1471C27.0203 56.2251 26.7733 55.6401 27.2154 55.6271C28.2816 55.5881 28.2556 55.2371 28.1516 54.8861C28.0086 54.4441 28.5027 54.3271 28.7237 54.0541C29.1268 53.5601 28.8538 52.9751 29.0878 52.5851C29.2569 52.2861 29.764 52.3511 29.5429 51.8441C29.4779 51.7011 29.2048 51.3761 29.1918 51.2851C29.1918 51.2331 29.3869 51.1161 29.4259 51.0641C29.621 50.8561 29.725 50.5051 29.582 50.2321C29.3999 49.9071 29.0358 49.9071 28.8668 49.6731C28.6717 49.3871 28.8538 49.1531 28.4637 48.9191C28.2686 48.8021 28.0866 48.8021 27.8655 48.7631C27.8525 48.7631 27.8265 48.7631 27.8265 48.7371C27.9175 48.6981 28.0216 48.6461 28.1126 48.5941C28.4377 48.3731 28.9188 47.8011 29.1918 47.5021C29.4649 47.2031 29.816 46.8261 29.972 46.4621C29.998 46.3971 30.0501 46.2151 30.0761 46.1761C30.1281 46.1111 30.3751 45.9681 30.4662 45.8771C30.9343 45.4481 31.1813 44.8631 30.9993 44.2261C31.9095 43.7451 32.4166 42.7181 32.2086 41.6911C32.5466 41.4311 32.8067 41.1061 32.8457 40.6641L32.8848 40.6511ZM22.3782 45.5781L22.3522 45.6041V45.5781H22.3782ZM22.2092 50.1411L22.1572 50.0761L22.1962 50.1411H22.2092ZM22.3522 49.1661C22.3522 49.1661 22.2742 49.1141 22.2482 49.0881C22.2872 49.1141 22.3132 49.1401 22.3522 49.1661ZM22.2612 49.3091C22.2612 49.3091 22.3262 49.3871 22.3652 49.4131C22.3262 49.3741 22.3002 49.3481 22.2612 49.3091ZM22.6253 48.7371C22.6253 48.7371 22.6513 48.7371 22.6643 48.7371C22.6643 48.7371 22.6383 48.7371 22.6253 48.7371ZM22.7293 48.3991L22.7943 48.3861H22.7293V48.3991ZM23.3665 43.6281C23.3665 43.6281 23.4055 43.5891 23.4185 43.5761C23.4055 43.5891 23.3795 43.6021 23.3665 43.6281ZM23.6785 51.2201C23.6785 51.2201 23.7175 51.2981 23.7435 51.3501C23.7175 51.3111 23.7045 51.2591 23.6785 51.2201ZM25.0829 51.9351C25.0829 51.9351 25.0439 51.9091 25.0309 51.8961C25.0309 51.9091 25.0569 51.9221 25.0829 51.9351ZM25.3169 50.6741L25.3429 50.7001H25.3169V50.6741ZM25.395 51.2071C25.408 51.2071 25.434 51.2461 25.473 51.2721C25.447 51.2461 25.408 51.2201 25.395 51.2071ZM25.512 50.9861L25.59 51.0511C25.59 51.0511 25.551 51.0121 25.512 50.9731V50.9861ZM25.824 55.3021C25.824 55.3021 25.824 55.3411 25.824 55.3541C25.811 55.3411 25.7981 55.3151 25.8111 55.3021H25.824ZM26.0451 55.4451C26.0451 55.4451 26.0451 55.4321 26.0321 55.4191C26.0321 55.4321 26.0581 55.4451 26.0451 55.4451ZM26.1101 55.2891C26.1101 55.2891 26.1231 55.3151 26.1361 55.3281C26.1361 55.3151 26.1231 55.3021 26.1101 55.2891ZM26.3312 55.4321C26.3312 55.4321 26.3182 55.3931 26.2792 55.3411C26.3182 55.3801 26.3312 55.4191 26.3312 55.4321ZM26.6692 55.3021C26.6692 55.3021 26.6303 55.2761 26.6172 55.2761C26.6172 55.2761 26.6172 55.2631 26.6042 55.2501C26.6042 55.2631 26.6172 55.2761 26.6172 55.2761C26.6172 55.2891 26.6562 55.2891 26.6692 55.3021ZM26.8903 54.8601C26.8903 54.8601 26.8903 54.8861 26.8903 54.8991C26.8903 54.8861 26.8903 54.8731 26.8773 54.8601H26.8903ZM29.1658 51.4931L29.1528 51.4671V51.4931H29.1658ZM28.7368 52.8061C28.7368 52.8061 28.6327 52.7541 28.5677 52.7281C28.6197 52.7541 28.6847 52.7801 28.7368 52.8061ZM28.7368 51.3111L28.7628 51.3241H28.7368V51.3111ZM28.7628 51.6621C28.7628 51.6621 28.7367 51.6361 28.7497 51.6231C28.7497 51.6231 28.7497 51.6491 28.7628 51.6621ZM28.6978 52.0651C28.6978 52.0651 28.7107 52.0651 28.7237 52.0911C28.7107 52.0911 28.6978 52.0781 28.6978 52.0651ZM28.7887 52.5591C28.7887 52.5591 28.7238 52.5461 28.6978 52.5331C28.7238 52.5331 28.7627 52.5461 28.7887 52.5591ZM28.9838 52.3381C28.9838 52.3381 28.8408 52.2731 28.7628 52.2601C28.8408 52.2731 28.9318 52.2991 28.9838 52.3381ZM28.8538 51.9221C28.8538 51.9221 28.8538 51.9351 28.8798 51.9611C28.8668 51.9481 28.8538 51.9351 28.8538 51.9221ZM28.9318 51.4281C28.9318 51.4281 28.9708 51.4541 28.9968 51.4671C28.9968 51.4671 28.9448 51.4411 28.9188 51.4281H28.9318ZM28.9448 50.6221C28.9448 50.6221 28.9578 50.6481 28.9708 50.6611C28.9708 50.6611 28.9578 50.6351 28.9448 50.6221ZM29.0228 51.2851C29.0228 51.2851 29.0228 51.2721 29.0098 51.2461C29.0228 51.2591 29.0358 51.2721 29.0358 51.2851H29.0228ZM28.8928 49.9071C28.8928 49.9071 28.8668 49.9071 28.8538 49.8941C28.8668 49.8941 28.8798 49.8941 28.8928 49.9071ZM28.9188 50.2711C28.9188 50.2711 28.8798 50.2581 28.8538 50.2451C28.8798 50.2451 28.9058 50.2451 28.9188 50.2581V50.2711ZM28.8668 50.0241L28.8408 50.0111H28.8668V50.0241ZM28.7237 50.2191C28.7237 50.2191 28.7497 50.2191 28.7628 50.2191C28.7497 50.2191 28.7367 50.2191 28.7237 50.2191ZM28.3466 52.0651L28.3857 52.0911C28.3857 52.0911 28.3336 52.0911 28.3466 52.0651ZM28.2686 53.8201C28.2686 53.8201 28.2426 53.7941 28.2166 53.7811C28.2426 53.7941 28.2556 53.8071 28.2686 53.8201ZM27.5535 39.9231H27.5405H27.5664H27.5535ZM27.8786 54.5741C27.8786 54.5741 27.9045 54.6001 27.9045 54.6261C27.9045 54.6001 27.8786 54.5871 27.8786 54.5741C27.8786 54.5481 27.8525 54.5351 27.8395 54.5091C27.8525 54.5351 27.8655 54.5481 27.8786 54.5741ZM28.1776 40.7161C28.1776 40.7161 28.1516 40.7291 28.1386 40.7421C28.1386 40.7421 28.1646 40.7161 28.1776 40.7161ZM28.1516 43.4201C28.1516 43.4201 28.2036 43.4201 28.2296 43.4201C28.2166 43.4331 28.1646 43.4201 28.1516 43.4201ZM28.6847 39.4941C28.6847 39.4941 28.6587 39.4941 28.6327 39.4941C28.6587 39.4941 28.6717 39.4941 28.6847 39.4811C28.7237 39.4811 28.7758 39.4551 28.8148 39.4421C28.7758 39.4551 28.7237 39.4681 28.6847 39.4811V39.4941ZM30.2711 45.9031C30.2711 45.9031 30.2581 45.8641 30.2451 45.8511C30.2581 45.8511 30.2711 45.8771 30.2711 45.9031ZM30.3881 45.3961C30.3881 45.3961 30.4011 45.4351 30.4141 45.4351C30.4011 45.4351 30.3881 45.4091 30.3881 45.3961ZM30.8952 45.0711V45.0451C30.8952 45.0451 30.8952 45.0581 30.8952 45.0711ZM30.9343 44.5641C30.9343 44.5641 30.9082 44.5511 30.8952 44.5381C30.9212 44.5381 30.9343 44.5381 30.9343 44.5641ZM31.0773 44.0051C31.0773 44.0051 31.0513 44.0051 31.0383 44.0051H31.0773L31.1163 44.0181C31.1163 44.0181 31.0903 44.0181 31.0773 44.0181V44.0051ZM30.9863 39.1821C31.0643 39.1821 31.1553 39.1821 31.2594 39.1821C31.1683 39.1821 31.0773 39.1821 30.9863 39.1691V39.1821ZM31.3113 43.0301C31.3113 43.0301 31.3374 43.0431 31.3504 43.0561C31.3244 43.0561 31.3113 43.0431 31.3113 43.0301ZM31.5064 39.5461C31.5064 39.5461 31.5974 39.5461 31.6364 39.5461C31.5974 39.5461 31.5454 39.5461 31.5064 39.5461ZM31.4024 39.4421L31.7665 39.4681H31.4024V39.4421ZM31.8185 42.8481C31.8185 42.8481 31.8185 42.8221 31.8185 42.8091C31.8185 42.8091 31.8185 42.8091 31.8185 42.8481ZM31.8835 43.1991C31.8835 43.1991 31.9095 43.1601 31.8835 43.1471C31.8835 43.1471 31.8835 43.1861 31.8835 43.1991ZM31.9875 43.0561C31.9875 43.0561 31.9875 43.0171 31.9615 43.0171C31.9615 43.0171 31.9745 43.0431 31.9875 43.0561ZM32.1046 39.9231V39.8971C32.1046 39.8971 32.1046 39.9101 32.1046 39.9231ZM32.1306 40.7421C32.1306 40.7421 32.2086 40.7421 32.2606 40.7551C32.2216 40.7551 32.1696 40.7551 32.1306 40.7551V40.7421ZM32.3126 40.1701C32.3126 40.1701 32.2736 40.1441 32.2346 40.1311C32.2736 40.1311 32.2996 40.1571 32.3126 40.1701Z" fill="#C7A210"/>
<path d="M21.208 46.1112C21.208 46.1112 25.551 40.7162 27.2934 40.8722C29.0359 41.0282 28.3337 42.5622 26.8904 42.9132C23.7306 43.6802 21.208 46.1242 21.208 46.1242V46.1112Z" fill="#FAE543"/>
<path d="M28.9579 44.3561C28.8799 45.2921 27.5406 45.5521 26.5654 45.5781C23.3666 45.6691 21.9623 46.5011 21.2601 46.7741C21.0521 47.0211 23.0806 44.1351 27.2676 43.4201C28.2558 43.2511 29.023 43.5891 28.9579 44.3561Z" fill="#FAE543"/>
<path d="M27.6315 46.0072C28.1907 46.0332 29.1919 46.3452 28.5938 47.3852C27.9956 48.4252 26.4743 48.3212 26.0582 48.2432C25.6421 48.1652 21.5981 47.0862 21.312 47.1512C21.312 47.1512 24.3418 45.8902 27.6315 46.0202V46.0072Z" fill="#FAE543"/>
<path d="M31.2985 39.5201C31.6235 39.5851 32.6118 39.8321 32.1697 40.8461C31.8706 41.5091 31.0514 41.2101 30.5443 40.7161C29.608 39.8191 28.4768 39.8971 27.7356 40.0791C27.7356 40.0791 29.569 39.1691 31.3114 39.5331L31.2985 39.5201Z" fill="#FCEE85"/>
<path d="M31.5836 41.769C31.5836 41.769 32.2075 42.809 30.8555 43.576C29.5035 44.343 29.5425 41.145 28.5935 40.859C27.0075 40.378 27.7355 40.248 28.3855 40.248C28.6585 40.248 29.6985 40.352 30.2445 41.158C30.7905 41.964 31.5836 41.769 31.5836 41.769Z" fill="#FCEE85"/>
<path d="M28.8667 41.7561C29.0487 41.7561 29.4647 42.5751 29.3087 42.9911C29.1527 43.4071 27.8527 43.2641 27.7747 42.9911C27.6967 42.7181 28.6717 41.7561 28.8667 41.7561Z" fill="#FAE543"/>
<path d="M30.3098 44.2001C30.4398 44.3561 31.0768 44.9151 30.3098 45.5781C29.5428 46.2411 29.0619 45.2271 29.0229 45.0581C28.9839 44.8891 29.5038 44.3561 29.2438 43.7841C28.9838 43.2121 30.1929 44.0441 30.3229 44.2001H30.3098Z" fill="#FCEE85"/>
<path d="M29.5946 46.2671C29.5946 46.5141 29.6466 46.7871 29.2826 46.8651C28.9186 46.9431 29.2436 46.0591 28.2686 45.8381C27.6836 45.6951 28.5936 45.3831 28.8666 45.5261C29.1396 45.6691 29.6076 45.7601 29.5946 46.2671Z" fill="#FCEE85"/>
<path d="M22.0664 47.8402C22.0664 47.8402 24.3029 49.8812 27.3326 49.2442C27.3326 49.2442 28.3079 48.9582 28.3469 49.6472C28.3859 50.3362 25.6293 50.0502 24.7581 49.7122C23.8868 49.3742 22.3005 48.4382 22.0664 47.8402Z" fill="#FAE543"/>
<path d="M28.8928 50.1281C29.0878 50.1281 29.4908 50.3361 29.0878 50.8691C28.6848 51.4021 28.2428 51.1161 28.1648 50.7521C28.0868 50.3881 28.6978 50.1281 28.8928 50.1281Z" fill="#FCEE85"/>
<path d="M29.1654 52.0391C29.0614 52.3771 28.3204 52.6111 27.8784 52.0781C27.4364 51.5451 27.4104 50.5701 27.0334 50.3361C27.0334 50.3361 27.6704 50.2841 27.8784 51.0381C28.1644 52.0391 29.3734 51.3501 29.1654 52.0261V52.0391Z" fill="#FCEE85"/>
<path d="M21.5593 47.8402C21.5593 47.8402 22.6256 49.5042 23.8739 49.9072C25.1222 50.3102 26.8516 50.1802 27.0337 51.0122C27.2157 51.8442 27.2157 52.1172 27.9829 52.5332C28.1779 52.6372 26.9556 53.2612 26.3835 52.1692C25.5513 50.6092 24.407 50.7392 23.7309 50.3492C22.1705 49.4652 21.5593 47.8402 21.5593 47.8402Z" fill="#FAE543"/>
<path d="M28.2552 52.9492C28.4632 52.8452 28.9312 52.9752 28.4892 53.7162C28.0472 54.4572 27.3972 54.3142 27.1502 53.8202C26.9032 53.3262 26.5262 53.0012 26.3572 52.5332C26.3572 52.5332 27.0072 53.5732 28.2552 52.9492Z" fill="#FCEE85"/>
<path d="M26.0316 52.3903C25.8236 52.0393 25.5376 51.1943 24.2766 50.8693C23.9646 50.7913 23.6786 50.8043 23.7566 50.8433C25.4726 51.7013 25.1346 53.6513 26.0316 53.3393C26.4606 53.1963 26.2396 52.7413 26.0316 52.3903Z" fill="#FAE543"/>
<path d="M21.6761 48.9581C21.7541 49.0621 23.2361 50.2841 23.3661 50.8691C23.4961 51.4541 23.0411 51.5711 22.8851 51.3111C22.7291 51.0511 22.2871 49.6341 21.6111 49.1661C20.9351 48.6981 21.6761 48.9451 21.6761 48.9451V48.9581Z" fill="#FAE543"/>
<path d="M23.7566 51.1942C23.7566 51.1942 25.3036 52.8452 25.2126 53.4432C25.1216 54.0412 25.0176 54.6132 24.4066 54.3012C23.7956 53.9892 23.4966 51.6492 23.4966 51.6492C23.4966 51.6492 23.7826 51.4152 23.7566 51.1942Z" fill="#FAE543"/>
<path d="M23.1975 51.8182C23.1975 51.8182 23.0025 51.8052 22.8855 51.7142C22.8855 51.7142 23.1325 54.2752 23.5745 54.2362C24.0165 54.1972 23.5745 53.3782 23.3795 52.9102C23.1845 52.4422 23.1845 51.8052 23.1845 51.8052L23.1975 51.8182Z" fill="#FAE543"/>
<path d="M26.279 53.6641C26.5 53.7421 27.423 54.4181 27.163 54.9511C26.903 55.4841 26.019 56.0171 25.746 55.5751C25.473 55.1331 25.304 53.9501 25.33 53.6641C25.33 53.5471 25.603 53.9241 25.759 53.8721C25.993 53.7811 26.149 53.6251 26.279 53.6641Z" fill="#FCEE85"/>
<path d="M25.1605 54.5091C25.1605 54.5091 24.6795 55.1201 24.0685 54.5741C23.7175 54.2621 23.9125 54.8341 24.1725 54.9511C24.4325 55.0681 24.5365 56.1341 24.8485 56.0171C24.9785 55.9651 25.3035 55.9001 25.3685 55.6661C25.4465 55.3281 25.1475 55.0941 25.1605 54.5221V54.5091Z" fill="#FCEE85"/>
<path d="M22.0141 42.0422C21.702 42.5752 21.429 43.1212 21.1949 43.6932C21.1819 43.7582 21.1559 43.8102 21.1299 43.8882C21.1299 43.8882 21.0649 43.8882 21.0389 43.8882C21.0389 43.8882 20.9738 43.8882 20.9478 43.8882C20.9218 43.8232 20.8958 43.7582 20.8828 43.6932C20.6488 43.1212 20.3757 42.5752 20.0636 42.0422C19.6475 41.5612 18.9844 41.3662 18.3862 41.2882C18.8283 41.5482 19.3225 41.7302 19.7646 42.0032C20.3367 42.3802 20.5708 43.1212 20.8698 43.7062C20.8958 43.7712 20.9218 43.8232 20.9478 43.8882C20.8048 43.9142 20.7008 43.9922 20.7008 44.1612C20.7008 44.2522 20.7398 44.3302 20.7918 44.3952C20.3367 44.5642 20.0116 45.1492 20.0246 45.8382C20.0246 45.9162 20.0246 45.9942 20.0376 46.0722C20.0767 46.3582 20.1547 46.6572 20.2587 46.8912C20.2847 46.9562 20.3237 47.0212 20.3627 47.0732C20.3757 47.0992 20.3887 47.1122 20.4147 47.1382C20.4797 47.2032 20.5318 47.2552 20.6098 47.2812C20.4928 47.3722 20.4147 47.5152 20.3627 47.7232C20.1937 48.4122 20.2587 49.7122 20.4277 50.9732C20.5838 52.0782 20.6358 52.9882 20.7268 53.6512C20.7528 53.8592 20.7918 54.0412 20.8438 54.2102C20.9479 54.5612 20.9479 54.7692 21.0779 54.7692C21.2079 54.7692 21.2079 54.5612 21.3119 54.2102C21.3509 54.0542 21.3899 53.8592 21.429 53.6512C21.52 52.9882 21.572 52.0652 21.728 50.9732C21.9101 49.7122 21.9621 48.4122 21.793 47.7232C21.741 47.5282 21.663 47.3722 21.546 47.2812C21.611 47.2552 21.676 47.2162 21.7411 47.1382C21.7411 47.1382 21.78 47.0992 21.793 47.0732C21.832 47.0212 21.8581 46.9692 21.8971 46.8912C22.0011 46.6702 22.0791 46.3582 22.1181 46.0722C22.1181 45.9942 22.1311 45.9032 22.1311 45.8382C22.1311 45.1492 21.8061 44.5512 21.364 44.3952C21.416 44.3302 21.455 44.2522 21.455 44.1612C21.455 44.0052 21.351 43.9272 21.2079 43.8882C21.2339 43.8232 21.2599 43.7712 21.2859 43.7062C21.585 43.1212 21.8191 42.3802 22.3912 42.0032C22.8203 41.7302 23.3274 41.5482 23.7695 41.2882C23.1584 41.3662 22.4952 41.5612 22.0921 42.0422H22.0141Z" fill="#C7A210"/>
<path d="M21.091 44.2521C21.1987 44.2521 21.286 44.188 21.286 44.1091C21.286 44.0301 21.1987 43.9661 21.091 43.9661C20.9833 43.9661 20.896 44.0301 20.896 44.1091C20.896 44.188 20.9833 44.2521 21.091 44.2521Z" fill="#FCEE85"/>
<path d="M21.8969 45.6821C21.8969 46.2801 21.7669 46.7871 21.4419 46.7871C21.1169 46.7871 21.5329 45.8381 20.8959 45.2921C20.4409 44.9021 20.9219 44.5771 21.2339 44.5771C21.5459 44.5771 21.8839 45.0841 21.8839 45.6821H21.8969Z" fill="#FCEE85"/>
<path d="M20.9739 47.6192C20.9739 47.6192 21.3509 47.3852 21.5589 47.8402C21.7669 48.2952 21.2859 52.3382 21.2859 52.3382C21.2859 52.3382 21.3899 48.8802 21.2339 48.3732C21.0779 47.8662 20.7919 47.8142 20.9739 47.6192Z" fill="#FCEE85"/>
<g style="mix-blend-mode:soft-light" opacity="0.38">
<path d="M30.8434 31.85L30.5053 32.747L29.9722 34.151L29.7902 34.632L19.5047 62.049L19.3227 62.517L18.7895 63.934L18.4515 64.831C18.0614 64.779 17.6713 64.701 17.2812 64.623C13.1592 63.765 9.54435 61.49 6.99575 58.331C6.7877 58.071 6.57963 57.798 6.37158 57.525L6.76166 56.459L7.39884 54.717L7.61987 54.106L15.4217 32.903L15.6428 32.292L16.2799 30.55L16.6701 29.484C17.3462 29.315 18.0354 29.198 18.7375 29.107C19.4787 29.016 20.2199 28.964 20.9871 28.964C24.2508 28.964 27.3066 29.835 29.9592 31.343C30.2453 31.512 30.5314 31.681 30.8044 31.863L30.8434 31.85Z" fill="#FFFB8C"/>
</g>
<path d="M33.1187 34.8791C32.3255 34.0861 31.4412 33.3581 30.505 32.7341C27.8004 30.9271 24.5366 29.8741 21.0258 29.8741C19.3874 29.8741 17.814 30.1081 16.3186 30.5371C15.6555 30.7321 15.0053 30.9531 14.3812 31.2261C12.3397 32.0841 10.4933 33.3451 8.9459 34.8921C5.85116 37.9861 3.9397 42.2631 3.9397 46.9821C3.9397 50.4791 4.99292 53.7421 6.80036 56.4461C7.4245 57.3951 8.15271 58.2661 8.9459 59.0591C11.5465 61.6591 14.9793 63.4271 18.8152 63.9211C19.5434 64.0121 20.2846 64.0641 21.0388 64.0641C25.7589 64.0641 30.0369 62.1531 33.1316 59.0591C36.2264 55.9651 38.1378 51.6881 38.1378 46.9691C38.1378 42.2501 36.2264 37.9731 33.1316 34.8791H33.1187ZM36.4865 49.3481C36.4735 49.4781 36.4474 49.6081 36.4214 49.7381C36.3694 49.9981 36.3304 50.2451 36.2654 50.5051C36.2394 50.6351 36.2004 50.7521 36.1744 50.8821C36.0834 51.2591 35.9663 51.6231 35.8493 51.9871C35.6803 52.4681 35.4982 52.9491 35.2902 53.4041C35.2251 53.5601 35.1471 53.7161 35.0691 53.8591C34.9261 54.1581 34.757 54.4571 34.601 54.7431C34.471 54.9641 34.3409 55.1721 34.2109 55.3801C34.0809 55.5881 33.9378 55.7961 33.7818 56.0041C33.6388 56.2121 33.4827 56.4071 33.3397 56.6021C33.1837 56.7971 33.0276 56.9921 32.8586 57.1871C32.6115 57.4731 32.3645 57.7461 32.0914 58.0061C31.8313 58.2661 31.5583 58.5261 31.2722 58.7731C30.8431 59.1501 30.401 59.4881 29.9329 59.8131C29.3738 60.2031 28.7886 60.5541 28.1775 60.8661C28.0734 60.9181 27.9694 60.9701 27.8654 61.0221C25.8109 62.0231 23.4964 62.5821 21.0518 62.5821C20.4796 62.5821 19.9205 62.5561 19.3614 62.4911C17.5409 62.2961 15.7985 61.7761 14.2121 61.0091C14.0431 60.9181 13.8611 60.8401 13.692 60.7491C13.523 60.6581 13.3539 60.5671 13.1849 60.4631C13.0158 60.3721 12.8468 60.2681 12.6908 60.1641C12.0406 59.7481 11.4165 59.2801 10.8313 58.7731C10.5453 58.5261 10.2722 58.2661 10.0121 58.0061C9.88209 57.8761 9.75208 57.7331 9.62205 57.6031C9.49202 57.4601 9.37498 57.3301 9.24495 57.1871C9.0759 56.9921 8.91987 56.8101 8.76384 56.6151C8.6078 56.4201 8.46477 56.2121 8.32174 56.0171C8.1787 55.8091 8.03569 55.6011 7.89265 55.3931C7.76262 55.1851 7.63257 54.9641 7.50253 54.7561C7.50253 54.7301 7.47654 54.7171 7.47654 54.7041C7.32051 54.4311 7.17748 54.1451 7.03444 53.8721C6.95642 53.7161 6.89139 53.5731 6.81337 53.4171C6.60532 52.9621 6.41028 52.4811 6.25425 52.0001C5.72112 50.4271 5.43505 48.7371 5.43505 46.9821C5.43505 45.2271 5.72112 43.5371 6.25425 41.9641C6.42329 41.4831 6.60532 41.0021 6.81337 40.5471C6.87839 40.3911 6.95642 40.2351 7.03444 40.0921C7.17748 39.7931 7.3465 39.4941 7.50253 39.2081C7.63257 38.9871 7.76262 38.7791 7.89265 38.5711C8.02268 38.3631 8.1657 38.1551 8.32174 37.9471C8.46477 37.7391 8.6208 37.5441 8.76384 37.3491C8.91987 37.1541 9.0759 36.9591 9.24495 36.7641C9.36197 36.6211 9.49202 36.4781 9.62205 36.3481C9.75208 36.2181 9.88209 36.0751 10.0121 35.9451C10.2722 35.6851 10.5583 35.4251 10.8313 35.1781C11.6375 34.4891 12.5087 33.8651 13.4319 33.3451C13.744 33.1761 14.0561 33.0071 14.3812 32.8511C14.4852 32.7991 14.6022 32.7471 14.7063 32.7081C14.9273 32.6171 15.1484 32.5131 15.3694 32.4351C15.4865 32.3961 15.5905 32.3441 15.7075 32.3051C15.8505 32.2531 15.9806 32.2011 16.1236 32.1621C17.671 31.6421 19.3353 31.3691 21.0648 31.3691C24.3936 31.3691 27.4753 32.4091 30.0109 34.1771C30.349 34.4111 30.6741 34.6581 30.9861 34.9181C31.0902 35.0091 31.1942 35.0871 31.2982 35.1781C31.5843 35.4251 31.8573 35.6851 32.1174 35.9451C32.3775 36.2051 32.6376 36.4781 32.8846 36.7641C33.0537 36.9591 33.2097 37.1411 33.3657 37.3361C33.5218 37.5311 33.6648 37.7391 33.8078 37.9341C33.9509 38.1421 34.0939 38.3501 34.2369 38.5581C34.3669 38.7661 34.497 38.9871 34.627 39.1951C34.7961 39.4811 34.9521 39.7801 35.0951 40.0791C35.1731 40.2351 35.2382 40.3781 35.3162 40.5341C35.5242 40.9891 35.7193 41.4701 35.8753 41.9511C36.0053 42.3151 36.1094 42.6791 36.2004 43.0561C36.2264 43.1861 36.2654 43.3031 36.2914 43.4331C36.3434 43.6801 36.3954 43.9401 36.4474 44.2001C36.4735 44.3301 36.4864 44.4601 36.5125 44.5901C36.5515 44.8501 36.5905 45.1101 36.6165 45.3701C36.6685 45.8901 36.6945 46.4231 36.6945 46.9691C36.6945 47.5151 36.6685 48.0481 36.6165 48.5681C36.5905 48.8281 36.5515 49.0881 36.5125 49.3481H36.4865Z" fill="#FAE543"/>
<g style="mix-blend-mode:multiply">
<path d="M36.5777 45.3702C36.5517 45.1102 36.5127 44.8502 36.4736 44.5902C36.4606 44.4602 36.4347 44.3302 36.4086 44.2002C36.3566 43.9402 36.3046 43.6932 36.2526 43.4332C36.2266 43.3032 36.1876 43.1862 36.1616 43.0562C36.0706 42.6792 35.9535 42.3152 35.8365 41.9512C35.6675 41.4702 35.4854 40.9892 35.2774 40.5342C35.2124 40.3782 35.1343 40.2222 35.0563 40.0792C34.9133 39.7802 34.7443 39.4812 34.5882 39.1952C34.4582 38.9742 34.3281 38.7662 34.1981 38.5582C34.0681 38.3502 33.9251 38.1422 33.769 37.9342C33.626 37.7262 33.4699 37.5312 33.3269 37.3362C33.1709 37.1412 33.0148 36.9462 32.8458 36.7512C32.5987 36.4652 32.3387 36.1922 32.0786 35.9322C31.8185 35.6722 31.5455 35.4122 31.2594 35.1652C31.1554 35.0742 31.0514 34.9962 30.9473 34.9052C30.6353 34.6452 30.3102 34.3982 29.9721 34.1642C27.4365 32.3962 24.3547 31.3562 21.026 31.3562C19.2965 31.3562 17.6452 31.6292 16.0848 32.1492C15.9418 32.2012 15.8117 32.2402 15.6687 32.2922C15.5517 32.3312 15.4477 32.3832 15.3306 32.4222C15.1096 32.5132 14.8885 32.6042 14.6675 32.6952C14.5634 32.7472 14.4464 32.7862 14.3424 32.8382C14.0173 32.9942 13.7052 33.1502 13.3931 33.3322C12.4569 33.8522 11.5857 34.4632 10.7925 35.1652C10.5065 35.4122 10.2334 35.6722 9.97332 35.9322C9.84329 36.0622 9.71327 36.2052 9.58324 36.3352C9.45321 36.4782 9.33617 36.6082 9.20614 36.7512C9.0371 36.9462 8.88107 37.1282 8.72503 37.3232C8.56899 37.5182 8.42596 37.7262 8.28293 37.9212C8.1399 38.1292 7.99688 38.3372 7.85385 38.5452C7.72381 38.7532 7.59376 38.9742 7.46373 39.1822C7.29469 39.4682 7.13867 39.7672 6.99564 40.0662C6.91762 40.2222 6.85258 40.3652 6.77457 40.5212C6.56652 40.9762 6.38448 41.4572 6.21544 41.9382C5.68231 43.5112 5.39624 45.2012 5.39624 46.9562C5.39624 48.7112 5.68231 50.4012 6.21544 51.9742C6.38448 52.4552 6.56652 52.9362 6.77457 53.3912C6.83958 53.5472 6.91762 53.7032 6.99564 53.8462C7.13867 54.1322 7.2817 54.4052 7.43774 54.6782C7.43774 54.6782 7.45073 54.7172 7.46373 54.7302C7.59376 54.9512 7.72381 55.1592 7.85385 55.3672C7.98388 55.5752 8.12689 55.7832 8.28293 55.9912C8.42596 56.1992 8.582 56.3942 8.72503 56.5892C8.88107 56.7842 9.0371 56.9792 9.20614 57.1742C9.32317 57.3172 9.45321 57.4602 9.58324 57.5902C9.71327 57.7202 9.84329 57.8632 9.97332 57.9932C10.2334 58.2532 10.5195 58.5132 10.7925 58.7602C11.3777 59.2672 12.0018 59.7352 12.652 60.1512C12.821 60.2552 12.977 60.3592 13.1461 60.4502C13.3151 60.5412 13.4842 60.6452 13.6532 60.7362C13.8223 60.8272 14.0043 60.9182 14.1733 60.9962C15.7597 61.7632 17.4891 62.2832 19.3226 62.4782C19.8817 62.5432 20.4408 62.5692 21.013 62.5692C23.4576 62.5692 25.7721 62.0102 27.8266 61.0092C27.9306 60.9572 28.0346 60.9052 28.1387 60.8532C28.7498 60.5412 29.3349 60.1902 29.8941 59.8002C30.3622 59.4752 30.8043 59.1242 31.2334 58.7602C31.5195 58.5132 31.7925 58.2532 32.0526 57.9932C32.3127 57.7332 32.5727 57.4472 32.8198 57.1742C32.9888 56.9792 33.1448 56.7972 33.3009 56.6022C33.4569 56.4072 33.6 56.1992 33.743 56.0042C33.886 55.7962 34.0291 55.5882 34.1721 55.3802C34.3021 55.1722 34.4322 54.9512 34.5622 54.7432C34.7312 54.4572 34.8873 54.1582 35.0303 53.8592C35.1083 53.7032 35.1733 53.5602 35.2514 53.4042C35.4594 52.9492 35.6415 52.4682 35.8105 51.9872C35.9275 51.6232 36.0446 51.2592 36.1356 50.8822C36.1616 50.7522 36.2006 50.6352 36.2266 50.5052C36.2786 50.2582 36.3306 49.9982 36.3826 49.7382C36.4086 49.6082 36.4216 49.4782 36.4477 49.3482C36.4867 49.0882 36.5257 48.8282 36.5517 48.5682C36.6037 48.0482 36.6297 47.5152 36.6297 46.9692C36.6297 46.4232 36.6037 45.8902 36.5517 45.3702H36.5777ZM31.7405 57.6812C28.9969 60.4242 25.213 62.1142 21.026 62.1142C20.5188 62.1142 20.0117 62.0882 19.5046 62.0362C15.9288 61.6852 12.717 60.0862 10.2984 57.6812C9.24514 56.6282 8.34795 55.4192 7.63278 54.0932C6.50151 51.9742 5.85136 49.5432 5.85136 46.9692C5.85136 42.7832 7.54176 39.0002 10.2854 36.2572C11.7418 34.8012 13.4842 33.6442 15.4216 32.8772C17.151 32.1882 19.0235 31.8112 21 31.8112C24.2767 31.8112 27.2935 32.8512 29.7771 34.6062C30.4662 35.1002 31.1164 35.6462 31.7145 36.2442C34.4582 38.9872 36.1486 42.7702 36.1486 46.9562C36.1486 51.1422 34.4582 54.9252 31.7145 57.6682L31.7405 57.6812Z" fill="#F6F39E"/>
</g>
<path d="M42 0H34.1201L17.0601 28.483H24.9269L42 0Z" fill="#E04C4C"/>
</svg>
