<svg width="109" height="168" viewBox="0 0 109 168" fill="none" xmlns="http://www.w3.org/2000/svg">
<path d="M0.977295 0.106934H21.2199L65.1001 73.372H44.8318L0.977295 0.106934Z" fill="#058DE8"/>
<path d="M64.6885 79.596V78.6443H45.4233C44.6774 78.6443 44.0087 78.3357 43.52 77.847C43.0313 77.3583 42.7226 76.6895 42.7226 75.9436C42.7226 75.1977 43.0313 74.5289 43.52 74.0402C44.0087 73.5515 44.6774 73.2429 45.4233 73.2429H64.6885C65.4344 73.2429 66.1032 73.5515 66.5919 74.0402C67.0806 74.5289 67.3892 75.1977 67.3892 75.9436C67.3892 76.6895 67.0806 77.3583 66.5919 77.847C66.1032 78.3357 65.4344 78.6443 64.6885 78.6443V80.522C67.2092 80.522 69.2668 78.4643 69.2668 75.9436C69.2668 73.4229 67.2092 71.3652 64.6885 71.3652H45.4233C42.9027 71.3652 40.845 73.4229 40.845 75.9436C40.845 78.4643 42.9027 80.522 45.4233 80.522H64.6885V79.5703V79.596Z" fill="#E0C64C"/>
<path d="M101.418 120.938C101.418 142.624 86.5514 160.837 66.4375 165.905C62.7851 166.831 58.9783 167.32 55.043 167.32C54.2199 167.32 53.3968 167.32 52.5737 167.268C51.1848 167.191 49.8216 167.063 48.4584 166.857C47.4553 166.702 46.4521 166.548 45.4747 166.342C35.3663 164.233 26.4668 158.831 19.9851 151.293C19.6507 150.907 19.3421 150.521 19.0077 150.136C18.4675 149.467 17.9274 148.772 17.4129 148.052C15.0466 144.785 13.0918 141.183 11.6514 137.324C9.95384 132.848 8.925 128.012 8.71923 122.996C8.71923 122.661 8.7192 122.327 8.69348 121.992C8.69348 121.632 8.69348 121.272 8.69348 120.938C8.69348 120.552 8.69348 120.14 8.69348 119.754C9.10502 103.11 18.2875 88.6525 31.7911 80.8064C35.5464 78.6197 39.636 76.9476 43.9572 75.8929C44.6002 75.7385 45.2175 75.6099 45.8606 75.4813C46.9923 75.2498 48.124 75.0697 49.2814 74.9153C51.1848 74.6838 53.1139 74.5552 55.0687 74.5552C63.4538 74.5552 71.3245 76.7933 78.1406 80.6777C78.8865 81.1151 79.6067 81.5524 80.3269 82.0155C81.0471 82.4785 81.7415 82.9673 82.436 83.4818C85.8826 86.0028 88.9692 88.987 91.5927 92.3312C97.7658 100.203 101.47 110.133 101.47 120.938H101.418Z" fill="#E0C64C"/>
<path d="M60.4188 143.961C60.4188 143.961 55.4288 134.906 57.718 124.127C57.718 124.127 57.3837 113.837 67.4149 104.91C74.4882 98.6335 78.1406 97.27 78.1406 97.27C78.1406 97.27 75.5171 99.611 74.8226 100.846C74.1281 102.081 73.8709 104.216 73.8709 104.216C73.8709 104.216 80.5327 103.084 81.3815 100.537C81.3815 100.537 81.15 104.036 74.8483 109.232C74.8483 109.232 76.2115 109.901 79.1952 109.104C82.1788 108.306 82.3332 106.3 82.3332 106.3C82.3332 106.3 81.9988 110.493 77.2661 113.142C77.2661 113.142 84.1079 109.515 86.1913 109.541C88.2748 109.567 85.1625 109.412 81.4072 114.043C77.6519 118.673 76.7774 120.551 76.7774 120.551C76.7774 120.551 79.6067 114.815 83.9022 115.458C88.1976 116.101 88.3005 112.216 88.3005 112.216C88.3005 112.216 89.1235 114.197 87.0659 115.766C85.0082 117.336 83.1562 117.13 81.15 119.96C79.1437 122.789 78.7322 126.365 78.7322 126.365L60.4188 143.935V143.961Z" fill="#AF9605"/>
<path d="M32.5117 130.713C32.5117 130.713 42.8259 130.044 50.6965 122.352C50.6965 122.352 66.8751 106.094 69.2158 101.566C71.5564 97.0387 71.1191 94.1061 71.1191 94.1061C71.1191 94.1061 65.3062 105.862 61.6795 103.856C56.098 100.743 65.4347 92.2796 65.4347 92.2796C65.4347 92.2796 61.0365 93.8488 60.3677 95.1094C59.699 96.3699 57.8213 98.7623 57.8213 98.7623C57.8213 98.7623 56.2009 91.8423 57.8728 89.7585C57.8728 89.7585 55.0434 91.8166 54.066 99.9457C54.066 99.9457 53.7574 99.5855 52.8057 96.6272C51.854 93.6688 51.9569 90.5817 51.9569 90.5817C51.9569 90.5817 50.105 95.5724 50.3107 100.177C50.3107 100.177 48.8189 94.3376 47.6872 92.5883C47.6872 92.5883 47.6357 96.1898 47.1728 97.5533C45.2951 103.213 44.3177 102.647 44.3177 102.647C44.3177 102.647 46.3497 99.6627 43.5204 96.3442C42.3886 95.0322 42.8002 91.7394 42.8002 91.7394C42.8002 91.7394 41.617 92.9485 41.8228 95.521C41.9514 97.2446 42.903 97.1159 41.617 100.332C40.3309 103.547 37.5273 105.811 37.5273 105.811L32.5374 130.687L32.5117 130.713Z" fill="#AF9605"/>
<path d="M50.1069 148.437L48.975 150.958C48.5119 151.987 47.2771 152.45 46.2481 151.987L40.5114 149.389C39.7139 149.029 39.2766 148.231 39.3023 147.434C39.3023 147.177 39.3795 146.919 39.4824 146.662L40.6143 144.141L50.1069 148.463V148.437Z" fill="#AD9300"/>
<g style="mix-blend-mode:multiply" opacity="0.32">
<path d="M50.1063 148.438L49.2316 150.367C48.0226 150.084 46.4019 149.595 45.1413 148.824C43.7007 147.923 41.0511 147.563 39.3018 147.383C39.3018 147.126 39.3789 146.868 39.4818 146.611L40.6137 144.09L50.1063 148.412V148.438Z" fill="#BFB78B"/>
</g>
<path d="M48.3045 148.72C47.6615 148.514 46.9927 148.308 46.2983 148.051C45.9382 147.922 45.6038 147.794 45.2437 147.64C45.1665 147.614 45.0636 147.562 44.9865 147.537C44.7293 147.434 44.4721 147.331 44.2406 147.202C44.2149 147.202 44.1891 147.202 44.1634 147.176C44.1377 147.176 44.112 147.176 44.0863 147.176L43.7776 147.048C43.7776 147.048 43.5975 146.971 43.4946 146.919C43.4689 146.919 43.4175 146.919 43.3918 146.868C43.3403 146.868 43.2889 146.842 43.2375 146.791C42.9545 146.662 42.6973 146.533 42.4401 146.405H42.3629C42.1057 146.225 41.8228 146.096 41.5656 145.942C40.8454 145.556 40.1509 145.17 39.5079 144.733C28.242 137.632 27.8305 127.188 31.9459 117.387C33.0004 114.891 34.3379 112.448 35.8555 110.081C37.3216 107.817 39.1735 105.913 41.2569 104.267C44.4721 101.72 48.2274 99.8937 51.8798 98.556C52.4199 98.3502 52.9857 98.1701 53.5002 97.9901C53.8603 97.8614 54.2204 97.7585 54.5805 97.6556C55.1721 97.4756 55.7379 97.3212 56.3038 97.1411C56.7668 97.0125 57.2297 96.9096 57.6927 96.781C58.5158 96.5752 59.3389 96.3951 60.0848 96.2408C60.9079 96.0607 61.6795 95.9321 62.374 95.8034C62.554 95.7777 62.7341 95.752 62.9399 95.7263C63.66 95.5976 64.3288 95.5205 64.8946 95.4433C65.0747 95.4433 65.2547 95.3918 65.4348 95.3661C66.6951 95.2118 67.4153 95.186 67.4153 95.186C67.4153 95.186 67.441 95.2375 67.4925 95.2889C67.5182 95.3404 67.5696 95.3918 67.6211 95.4947C68.0326 96.0607 68.9586 97.4241 70.0903 99.3535C70.2961 99.6879 70.5019 100.074 70.7334 100.46C70.8105 100.588 70.8877 100.717 70.9648 100.871C71.042 101.026 71.1192 101.154 71.1963 101.309C71.9422 102.646 72.6881 104.138 73.434 105.785C73.5627 106.093 73.6913 106.376 73.8199 106.685C73.9228 106.917 73.9999 107.148 74.1028 107.38C74.2057 107.637 74.3086 107.869 74.4115 108.126C74.8487 109.206 75.2345 110.312 75.6204 111.444C76.5206 114.223 77.1894 117.155 77.4723 120.139C77.7038 122.583 77.6523 125.053 77.1893 127.497C77.1122 127.934 77.035 128.346 76.9321 128.783C73.6913 142.237 64.4831 153.685 48.2788 148.746L48.3045 148.72Z" fill="#DBBD12"/>
<path d="M72.2763 107.506C72.0449 109.744 70.836 111.467 70.836 111.467C71.0675 110.619 68.8297 106.812 68.2382 106.735C67.8781 106.709 64.1228 110.336 63.8913 110.361C63.454 110.361 63.8141 105.577 62.6824 106.195C61.2163 106.992 59.0814 109.744 59.0814 109.744C59.0814 109.744 59.7245 106.863 60.0074 104.806C60.0846 104.24 55.3261 105.912 55.3261 105.912C55.3261 105.912 55.4547 104.317 57.2552 102.414C56.355 101.848 52.3682 104.163 52.3682 104.163C53.3713 101.333 55.7119 100.15 55.1975 99.5586C54.8374 99.147 52.934 98.684 51.8538 98.5297C59.9045 95.5718 67.4151 95.1345 67.4151 95.1345C67.4151 95.1345 72.6622 102.234 75.6201 111.39C75.4658 111.133 72.3792 106.04 72.2506 107.506H72.2763Z" fill="#F5DA40"/>
<g style="mix-blend-mode:multiply" opacity="0.32">
<path d="M73.1508 133.516C69.1641 142.932 59.21 149.054 48.9987 148.72C48.7672 148.72 48.5357 148.72 48.3042 148.72C47.6612 148.514 46.9925 148.308 46.298 148.051C45.9379 147.922 45.6035 147.794 45.2434 147.64C45.1662 147.614 45.0633 147.562 44.9862 147.537C44.729 147.434 44.4718 147.331 44.2403 147.202C44.2146 147.202 44.1889 147.202 44.1631 147.176C44.1374 147.176 44.1117 147.176 44.086 147.176L43.7773 147.048C43.7773 147.048 43.5972 146.971 43.4944 146.919C43.4686 146.919 43.4172 146.919 43.3915 146.868C43.34 146.868 43.2886 146.842 43.2372 146.791C42.9542 146.662 42.697 146.533 42.4398 146.405H42.3627C42.1054 146.225 41.8225 146.096 41.5653 145.942C40.8451 145.556 40.1506 145.17 39.5076 144.733C32.7944 137.298 30.5052 126.468 34.8263 117.207C40.3049 106.068 52.291 99.9452 63.8398 96.2665C45.9636 102.106 26.8528 115.818 35.3665 136.784C36.6783 139.665 38.4787 142.263 40.6136 144.578C39.1218 142.289 38.0672 139.716 37.5785 137.015C34.029 116.924 50.6963 102.441 67.4408 95.186C56.5093 100.28 45.7064 107.869 40.4593 119.033C36.9612 127.188 36.3954 137.684 42.0026 145.016C42.0797 145.118 42.1826 145.247 42.2598 145.35C42.2598 145.35 42.2598 145.35 42.2598 145.324C41.4881 140.411 42.0025 135.42 42.8513 130.558C45.1148 115.74 55.4804 103.547 67.4408 95.186C55.6862 103.675 45.552 115.92 43.4944 130.661C42.7484 135.42 42.3112 140.385 43.1343 145.17C43.2114 145.633 43.3143 146.122 43.4429 146.611C43.4429 146.611 43.4429 146.611 43.4686 146.585C44.0345 143.472 44.9862 140.411 45.9636 137.427C50.9535 122.377 59.5187 108.846 67.4408 95.2118C59.7501 108.949 51.4422 122.558 46.7095 137.658C45.9893 140.205 45.1148 142.829 44.5489 145.504C52.0595 137.838 57.8725 128.474 61.1134 118.261C63.6083 110.724 66.4634 103.135 67.4408 95.2118C66.6434 103.161 63.9684 110.827 61.6535 118.442C58.4126 129.272 52.2395 139.099 44.266 147.099C44.266 147.099 44.2917 147.099 44.3174 147.099C50.0533 145.633 55.1461 140.951 58.7985 136.475C64.4314 129.786 67.0549 121.117 67.9037 112.525C68.4439 106.762 68.341 100.923 67.4665 95.186C68.3924 100.923 68.5725 106.762 68.0581 112.55C67.3121 121.194 64.7143 129.941 59.1328 136.758C55.7633 141.054 51.6994 145.041 46.6066 147.151C47.0182 147.151 47.404 147.099 47.8155 147.074C56.8694 146.045 64.1742 138.739 67.9552 130.815C72.765 119.573 71.0932 106.582 67.4665 95.2118C73.4852 112.679 73.8453 133.748 56.6379 144.835C54.2201 146.379 51.4679 147.434 48.5872 147.871C52.0081 147.974 55.4547 147.511 58.6699 146.379C79.4268 138.121 76.8032 115.612 69.1126 98.6332C74.1025 109.463 77.6006 122.172 73.1508 133.594V133.516Z" fill="#D9B800"/>
</g>
<g style="mix-blend-mode:multiply" opacity="0.32">
<path d="M54.6572 138.379L51.0048 139.202L49.7444 139.485L46.4007 140.257L46.0149 139.845L45.3719 139.125L42.7997 136.269L42.1053 135.523L37.7841 130.738L37.0897 129.992L36.4209 129.272L33.7202 122.12L33.3601 121.169L31.9197 117.361C32.9742 114.866 34.3118 112.422 35.8293 110.055C37.2954 107.792 39.1473 105.888 41.2308 104.241C41.205 105.399 41.2822 106.917 41.9509 107.817C42.0281 107.946 42.131 108.049 42.2596 108.152C42.5682 108.435 42.9798 108.615 43.4942 108.589C45.1146 108.589 46.4007 108.563 47.2752 108.538C47.4552 108.538 47.6096 108.538 47.7382 108.538C48.2526 108.538 48.5613 108.512 48.5613 108.512C48.5613 108.512 46.8637 114.249 48.1755 115.483C48.2783 115.586 48.3812 115.663 48.5356 115.689C48.5356 115.689 47.661 122.378 48.4841 122.764L50.3875 119.394C50.3875 119.394 49.6158 124.847 50.4903 125.928C50.5932 126.056 50.7219 126.288 50.799 126.571C51.4935 128.449 51.9564 132.951 51.2105 134.52C50.799 135.343 51.6478 135.497 52.6767 135.446C53.011 135.446 53.3711 135.369 53.7055 135.317C54.5543 135.189 55.3002 134.983 55.3002 134.983L54.6572 138.353V138.379Z" fill="#524E3B"/>
</g>
<g style="mix-blend-mode:multiply" opacity="0.32">
<path d="M77.2401 127.47L76.0054 128.988C76.0054 128.988 75.4138 129.091 74.4364 129.245C74.2821 129.245 74.1021 129.296 73.8963 129.348C72.5331 129.554 70.6297 129.862 68.7006 130.094C68.5206 130.094 68.3663 130.145 68.1862 130.145C66.36 130.377 64.5338 130.557 63.1191 130.582C62.9905 130.582 62.8619 130.582 62.7333 130.582C61.5502 130.582 60.7014 130.48 60.5213 130.171C59.6211 128.782 60.4699 124.307 60.4699 124.307C60.4699 124.307 61.4987 130.068 62.116 127.625C62.7333 125.155 65.7684 123.02 65.7684 123.02C65.7684 123.02 65.717 123.278 65.6398 123.663C65.5626 124.075 65.4855 124.641 65.434 125.207C65.3054 126.493 65.4083 127.727 66.3086 126.982C67.4917 126.03 69.4466 122.918 70.5268 121.169C70.7069 120.886 70.8355 120.654 70.9641 120.448C71.1699 120.114 71.2727 119.908 71.2727 119.908C71.2727 119.908 72.5074 123.252 72.8417 123.895C72.9703 124.126 73.7677 123.561 74.7194 122.712C74.8737 122.583 75.0023 122.455 75.1567 122.326C75.9797 121.58 76.8799 120.706 77.4972 120.088C77.7287 122.532 77.6773 125.001 77.2143 127.444L77.2401 127.47Z" fill="#524E3B"/>
</g>
<path d="M78.8351 129.761C78.5779 130.635 78.2693 131.484 77.9606 132.282C76.8803 135.086 75.5428 137.452 74.1796 139.433C74.1796 139.433 74.1539 139.459 74.1539 139.485C70.3729 144.861 66.3089 147.176 66.3089 147.176C61.2933 150.855 55.5318 150.778 51.0563 149.8C47.9955 149.132 42.0796 146.585 38.7359 144.398C38.5044 144.244 38.2986 144.089 38.0671 143.935C35.2892 141.929 32.2027 138.996 30.5823 135.24C30.0421 133.954 29.6563 132.616 29.502 131.15C29.502 131.15 27.6501 121.297 33.3087 111.419C33.7717 110.595 34.3118 109.772 34.8777 108.949C42.414 98.3245 34.2861 93.8741 34.2861 93.8741C34.2861 93.8741 37.8613 93.7969 39.0702 98.7876C40.2791 103.778 37.7328 108.717 37.7328 108.717C37.7328 108.717 42.7226 103.212 42.7741 100.563C42.8512 100.897 43.3914 104.19 39.739 110.956C39.739 110.956 44.9604 106.119 46.2464 103.367C47.5068 100.691 49.1529 101.026 49.2558 101.077C49.1272 101.154 48.0726 101.823 47.5582 103.187C47.0438 104.601 46.2464 109.181 43.1342 113.348C44.0601 112.242 47.9183 107.534 49.4616 106.84C51.082 106.145 52.1109 106.068 52.2909 106.068C51.9051 106.196 48.4584 107.431 46.7094 112.782C44.8832 118.442 44.6517 120.5 44.6517 120.5C44.6517 120.5 46.5551 115.097 50.3875 114.017C54.22 112.936 53.757 109.798 53.757 109.798C53.757 109.798 54.7859 110.518 53.5255 112.756C52.2652 114.994 49.1015 114.943 48.2012 118.261C47.3782 121.348 47.5839 123.715 47.6354 124.101C47.7125 123.792 48.2013 121.812 49.6674 119.831C51.1849 117.798 53.114 117.181 53.3198 117.13C53.0883 117.284 50.9791 118.699 50.1046 120.628C49.4873 121.966 48.9986 124.744 49.1786 126.751C49.333 128.217 50.2846 129.581 49.5645 133.388C49.3587 134.52 48.9986 135.857 48.4328 137.478C52.2909 135.986 58.464 134.623 59.7243 126.416C59.9044 125.284 60.3673 124.384 60.856 123.715C60.7274 124.075 60.676 124.513 60.676 125.027C60.7274 126.519 60.9332 128.397 60.9846 128.654C61.0361 128.5 61.2933 127.574 63.1452 125.079C65.2029 122.3 67.6722 120.242 67.6722 120.242C67.6722 120.242 65.8459 122.892 64.3541 125.079C62.8623 127.265 63.531 129.195 63.531 129.195C63.531 129.195 65.7945 125.053 68.3152 122.789C72.5592 119.008 73.588 115.097 73.7938 114.197C73.6909 115.046 73.125 118.493 72.019 120.011C69.0097 124.024 70.27 128.011 70.27 128.011C71.6075 122.841 72.6878 121.606 74.5912 119.471C75.5428 118.39 78.295 114.866 78.6808 114.377C78.3721 114.891 76.083 118.544 74.7969 121.04C73.408 123.741 73.9224 127.008 73.9224 127.008C74.9255 125.593 76.7003 124.358 77.7805 122.609C79.7611 119.342 80.327 116.589 80.327 116.589C81.0214 118.39 80.3527 118.493 79.6068 121.194C78.9637 123.561 77.189 126.571 76.906 127.085C77.3433 126.468 80.9185 121.348 83.7736 119.908C85.0596 119.29 86.2942 119.754 86.2942 119.754C86.2942 119.754 81.5873 120.757 78.8866 129.709L78.8351 129.761Z" fill="#BAA529"/>
<g style="mix-blend-mode:multiply" opacity="0.32">
<path d="M66.2835 147.151C61.2679 150.83 55.5064 150.753 51.0309 149.775C47.7643 149.055 41.2054 146.199 38.0417 143.936C35.2639 141.929 32.1773 138.996 30.5569 135.241C32.949 138.868 36.8586 142.444 42.8002 143.576C53.243 145.556 57.6413 138.971 63.2999 135.961C72.2509 131.176 77.961 132.282 77.961 132.282C73.8713 142.881 66.2835 147.151 66.2835 147.151Z" fill="#D4CEB0"/>
</g>
<g style="mix-blend-mode:soft-light" opacity="0.84">
<path d="M49.5391 133.414C49.6677 130.841 47.1984 125.696 47.1984 125.696C47.1984 125.696 46.864 121.837 46.6326 120.963C46.4011 120.088 47.6614 117.438 47.6614 117.438C47.6614 117.438 47.6614 116.435 46.1953 120.088C45.4237 122.017 43.4689 122.558 43.4689 122.558C43.4689 122.558 43.6746 119.959 44.1633 119.059C45.2179 117.181 44.7292 112.345 44.6263 113.142C44.5491 113.965 41.2569 118.287 42.0285 116.384C42.8001 114.48 42.9544 109.566 41.9256 111.83C40.8967 114.094 38.1703 116.795 39.1477 115.457C40.1251 114.12 38.8133 109.386 38.6847 111.239C38.5561 113.091 34.9037 116.075 35.7525 114.017C36.6013 111.959 37.6816 106.891 37.0129 108.563C36.6271 109.541 34.6208 110.775 33.2576 111.419C33.7205 110.595 34.2607 109.772 34.8266 108.949C42.3629 98.3245 34.235 93.8741 34.235 93.8741C34.235 93.8741 37.8102 93.7969 39.0191 98.7876C40.228 103.778 37.6816 108.717 37.6816 108.717C37.6816 108.717 42.6972 103.187 42.723 100.537C42.7487 100.717 43.4431 103.984 39.6879 110.956C39.6879 110.956 44.9092 106.119 46.1953 103.367C47.4556 100.691 49.1018 101.026 49.2047 101.077C49.0761 101.154 48.0215 101.823 47.5071 103.187C46.967 104.627 46.1696 109.309 42.9287 113.528C43.4688 112.885 47.7386 107.586 49.4104 106.865C51.0309 106.171 52.0597 106.094 52.2398 106.094C51.854 106.222 48.4073 107.457 46.6583 112.808C44.8321 118.467 44.6006 120.525 44.6006 120.525C44.6006 120.525 46.504 115.123 50.3364 114.043C54.1689 112.962 53.7059 109.824 53.7059 109.824C53.7059 109.824 54.7347 110.544 53.4744 112.782C52.2141 115.02 49.0504 114.969 48.1501 118.287C47.3271 121.374 47.5328 123.741 47.5843 124.127C47.6614 123.818 48.1501 121.837 49.6162 119.856C51.1338 117.824 53.0628 117.207 53.2686 117.155C53.0371 117.31 50.928 118.725 50.0535 120.654C49.4362 121.992 48.9475 124.77 49.1275 126.776C49.2818 128.243 50.2335 129.606 49.5133 133.414H49.5391Z" fill="#F2EED6"/>
</g>
<g style="mix-blend-mode:multiply" opacity="0.32">
<path d="M74.1282 139.459C70.3472 144.835 66.2833 147.15 66.2833 147.15C61.2676 150.828 55.5061 150.751 51.0307 149.774C47.9698 149.105 42.054 146.559 38.7102 144.372C45.8864 148.05 54.2458 149.336 58.0525 148.771C65.3316 147.716 70.7588 143.266 74.154 139.459H74.1282Z" fill="#69644C"/>
</g>
<g style="mix-blend-mode:soft-light" opacity="0.38">
<path d="M80.2753 82.0406L79.4008 84.3301L78.0375 87.9574L77.5745 89.1922L51.1332 159.73L50.6702 160.939L49.307 164.567L48.4325 166.882C47.4294 166.728 46.4263 166.573 45.4489 166.367C34.826 164.155 25.5664 158.29 18.9818 150.161C18.4416 149.492 17.9015 148.797 17.3871 148.077L18.3902 145.324L20.0364 140.848L20.6022 139.279L40.6647 84.716L41.2306 83.1468L42.8767 78.6706L43.8799 75.918C45.6032 75.4807 47.4036 75.172 49.2041 74.9405C51.1075 74.7089 53.0366 74.5803 54.9914 74.5803C63.3765 74.5803 71.2471 76.8184 78.0632 80.7029C78.8092 81.1402 79.5294 81.5775 80.2496 82.0406H80.2753Z" fill="#FFFB8C"/>
</g>
<path d="M86.1395 89.8358C84.0818 87.7778 81.844 85.9513 79.4262 84.3306C72.4558 79.6744 64.0707 76.9475 55.0426 76.9475C50.8501 76.9475 46.7861 77.5392 42.9279 78.6454C41.2303 79.1341 39.5585 79.7258 37.9381 80.3947C32.6652 82.607 27.9325 85.8484 23.9458 89.8101C15.9979 97.7591 11.0594 108.769 11.0594 120.912C11.0594 129.915 13.7602 138.302 18.4157 145.273C20.0361 147.692 21.8881 149.955 23.9458 152.013C30.6333 158.702 39.4813 163.255 49.3325 164.541C51.2102 164.799 53.1135 164.902 55.0426 164.902C67.183 164.902 78.1916 159.962 86.1395 152.013C94.0873 144.064 99.0258 133.054 99.0258 120.912C99.0258 108.769 94.113 97.7591 86.1395 89.8101V89.8358ZM94.7818 127.06C94.7303 127.394 94.6789 127.729 94.6274 128.063C94.4988 128.732 94.3702 129.375 94.2159 130.018C94.1387 130.353 94.0616 130.662 93.9844 130.996C93.7529 131.948 93.47 132.9 93.1356 133.851C92.7241 135.086 92.2354 136.321 91.6952 137.504C91.5152 137.89 91.3351 138.302 91.1294 138.688C90.7436 139.459 90.332 140.231 89.9205 140.977C89.6118 141.543 89.2517 142.083 88.9173 142.624C88.5573 143.164 88.1972 143.704 87.8371 144.244C87.477 144.759 87.0912 145.273 86.6796 145.788C86.2938 146.302 85.8823 146.791 85.4707 147.28C84.8277 148 84.1847 148.721 83.5159 149.389C82.8215 150.084 82.127 150.727 81.4068 151.37C80.3008 152.322 79.1433 153.222 77.9602 154.046C76.5198 155.049 75.0279 155.949 73.4332 156.747C73.176 156.875 72.8931 157.004 72.6359 157.158C67.3373 159.731 61.3957 161.171 55.0941 161.171C53.628 161.171 52.1619 161.094 50.7472 160.94C46.0402 160.425 41.5905 159.113 37.5265 157.133C37.0635 156.901 36.6263 156.695 36.189 156.438C35.7518 156.207 35.3145 155.949 34.8772 155.718C34.44 155.461 34.0285 155.203 33.5912 154.946C31.8936 153.866 30.2989 152.682 28.7813 151.37C28.0611 150.727 27.3409 150.084 26.6722 149.389C26.3378 149.055 26.0035 148.695 25.6691 148.36C25.3347 148 25.026 147.64 24.6917 147.28C24.2801 146.791 23.8686 146.302 23.4828 145.788C23.0969 145.273 22.7111 144.759 22.3253 144.244C21.9395 143.704 21.5794 143.19 21.245 142.624C20.9107 142.083 20.5506 141.517 20.2419 140.977C20.2162 140.926 20.1905 140.874 20.1648 140.823C19.7532 140.103 19.3931 139.408 19.033 138.662C18.8272 138.276 18.6472 137.89 18.4671 137.479C17.927 136.295 17.4383 135.061 17.0268 133.826C15.6636 129.787 14.9176 125.439 14.9176 120.937C14.9176 116.436 15.6636 112.088 17.0268 108.049C17.4383 106.814 17.927 105.58 18.4671 104.396C18.6472 104.01 18.8272 103.599 19.033 103.213C19.4188 102.441 19.8304 101.669 20.2419 100.923C20.5506 100.357 20.9107 99.8171 21.245 99.2769C21.6051 98.7367 21.9652 98.1964 22.3253 97.6562C22.6854 97.1417 23.0712 96.6272 23.4828 96.1127C23.8686 95.5982 24.2801 95.1094 24.6917 94.6207C25.0003 94.2605 25.3347 93.9003 25.6691 93.5402C26.0035 93.18 26.3378 92.8456 26.6722 92.5112C27.3667 91.8166 28.0611 91.1735 28.7813 90.5304C30.839 88.7553 33.1025 87.1604 35.4945 85.8227C36.2919 85.3853 37.115 84.948 37.9381 84.5621C38.221 84.4335 38.5039 84.3049 38.7869 84.1763C39.3527 83.919 39.9186 83.6875 40.4844 83.456C40.7674 83.3531 41.0503 83.2244 41.359 83.1215C41.7191 82.9929 42.0792 82.8643 42.4393 82.7357C46.426 81.3979 50.6957 80.7034 55.1198 80.7034C63.6849 80.7034 71.607 83.3788 78.1402 87.9321C78.989 88.5238 79.8378 89.1669 80.6351 89.8358C80.8924 90.0673 81.1753 90.2731 81.4325 90.5046C82.1527 91.1478 82.8729 91.7909 83.5416 92.4855C84.2361 93.18 84.8791 93.8746 85.4964 94.5949C85.908 95.0837 86.3195 95.5725 86.7053 96.087C87.0911 96.6015 87.477 97.116 87.8628 97.6305C88.2486 98.1707 88.6087 98.6852 88.9431 99.2512C89.2775 99.7914 89.6376 100.357 89.9462 100.898C90.3835 101.644 90.7693 102.415 91.1551 103.187C91.3608 103.573 91.5409 103.959 91.7209 104.37C92.2611 105.554 92.7498 106.789 93.1614 108.023C93.47 108.95 93.7529 109.901 94.0101 110.879C94.0873 111.213 94.1645 111.522 94.2416 111.856C94.396 112.5 94.5245 113.168 94.6532 113.812C94.7046 114.146 94.7561 114.48 94.8075 114.815C94.9104 115.484 94.9875 116.153 95.0647 116.821C95.1933 118.185 95.2705 119.548 95.2705 120.937C95.2705 122.327 95.1933 123.69 95.0647 125.053C94.9875 125.722 94.9104 126.391 94.8075 127.06H94.7818Z" fill="#FAE543"/>
<g style="mix-blend-mode:multiply">
<path d="M95.0389 116.821C94.9617 116.152 94.8845 115.483 94.7817 114.815C94.7302 114.48 94.6788 114.146 94.6273 113.811C94.4987 113.142 94.3701 112.499 94.2158 111.856C94.1386 111.522 94.0615 111.213 93.9843 110.879C93.7271 109.927 93.4442 108.975 93.1355 108.023C92.6982 106.788 92.2353 105.554 91.6951 104.37C91.5151 103.984 91.335 103.573 91.1293 103.187C90.7434 102.415 90.3319 101.643 89.9204 100.897C89.6117 100.331 89.2516 99.7911 88.9172 99.2509C88.5571 98.7107 88.197 98.1705 87.837 97.6302C87.4769 97.1157 87.091 96.6012 86.6795 96.0867C86.2937 95.5722 85.8821 95.0835 85.4706 94.5947C84.8276 93.8744 84.1845 93.1541 83.4901 92.4852C82.7956 91.7906 82.1012 91.1475 81.381 90.5044C81.1237 90.2729 80.8665 90.0413 80.5836 89.8355C79.7863 89.1667 78.9375 88.5493 78.0887 87.9319C71.5812 83.3785 63.6333 80.7031 55.0682 80.7031C50.6442 80.7031 46.3745 81.4234 42.3877 82.7354C42.0276 82.864 41.6675 82.9669 41.3074 83.0956C41.0245 83.1985 40.7416 83.3271 40.4329 83.43C39.867 83.6615 39.2754 83.893 38.7353 84.1503C38.4524 84.2789 38.1694 84.4075 37.8865 84.5362C37.0634 84.922 36.2404 85.3594 35.443 85.7967C33.0509 87.1344 30.8132 88.7294 28.7298 90.5044C28.0096 91.1475 27.2894 91.7906 26.6206 92.4852C26.2863 92.8196 25.9519 93.1798 25.6175 93.5142C25.2831 93.8744 24.9745 94.2345 24.6401 94.5947C24.2286 95.0835 23.8171 95.5722 23.4312 96.0867C23.0454 96.6012 22.6596 97.1157 22.2738 97.6302C21.8879 98.1705 21.5278 98.685 21.1935 99.2509C20.8591 99.7911 20.499 100.357 20.1903 100.897C19.7531 101.643 19.3673 102.415 18.9814 103.187C18.7757 103.573 18.5956 103.959 18.4156 104.37C17.8754 105.554 17.4125 106.788 16.9752 108.023C15.612 112.062 14.8661 116.41 14.8661 120.911C14.8661 125.413 15.612 129.761 16.9752 133.8C17.4125 135.035 17.8754 136.269 18.4156 137.453C18.5956 137.839 18.7757 138.25 18.9814 138.636C19.3415 139.356 19.7274 140.077 20.1132 140.771C20.1132 140.771 20.1646 140.874 20.1903 140.926C20.499 141.492 20.8591 142.032 21.1935 142.572C21.5536 143.112 21.9137 143.652 22.2738 144.193C22.6338 144.707 23.0197 145.222 23.4312 145.736C23.8171 146.251 24.2286 146.739 24.6401 147.228C24.9488 147.588 25.2831 147.949 25.6175 148.309C25.9519 148.669 26.2863 149.003 26.6206 149.338C27.3151 150.032 28.0096 150.675 28.7298 151.319C30.2473 152.63 31.842 153.814 33.5396 154.894C33.9769 155.152 34.3884 155.435 34.8257 155.666C35.2629 155.923 35.7002 156.155 36.1374 156.386C36.5747 156.618 37.0377 156.849 37.475 157.081C41.5389 159.062 46.0144 160.374 50.6956 160.888C52.136 161.043 53.5764 161.12 55.0425 161.12C61.3185 161.12 67.2858 159.679 72.5843 157.107C72.8415 156.978 73.1245 156.849 73.3817 156.695C74.9507 155.898 76.4682 154.997 77.9086 153.994C79.1175 153.171 80.2749 152.27 81.3552 151.319C82.0754 150.675 82.7956 150.032 83.4644 149.338C84.1588 148.643 84.8019 147.949 85.4449 147.228C85.8564 146.739 86.2679 146.251 86.6538 145.736C87.0396 145.222 87.4254 144.707 87.8112 144.193C88.1971 143.652 88.5572 143.138 88.8915 142.572C89.2259 142.032 89.586 141.466 89.8946 140.926C90.3319 140.18 90.7177 139.408 91.1035 138.636C91.3093 138.25 91.4894 137.864 91.6694 137.453C92.2096 136.269 92.6725 135.035 93.1098 133.8C93.4184 132.874 93.7014 131.922 93.9586 130.944C94.0358 130.61 94.1129 130.301 94.1901 129.967C94.3444 129.324 94.473 128.655 94.6016 128.012C94.6531 127.677 94.7045 127.343 94.7559 127.008C94.8588 126.339 94.936 125.671 95.0131 125.002C95.1417 123.638 95.2189 122.275 95.2189 120.886C95.2189 119.497 95.1417 118.133 95.0131 116.77L95.0389 116.821ZM82.5899 148.489C75.5423 155.537 65.7939 159.911 55.0425 159.911C53.7307 159.911 52.419 159.859 51.1586 159.705C41.9505 158.779 33.6939 154.663 27.4951 148.489C24.7944 145.788 22.4795 142.675 20.6533 139.253C17.7469 133.8 16.075 127.549 16.075 120.937C16.075 110.184 20.4218 100.434 27.4951 93.3856C31.2247 89.6555 35.7002 86.6714 40.7158 84.6905C45.1656 82.9155 50.0011 81.9637 55.0682 81.9637C63.479 81.9637 71.2468 84.6133 77.6257 89.1667C79.4004 90.4272 81.0723 91.8421 82.6156 93.3856C89.6632 100.434 94.0358 110.184 94.0358 120.937C94.0358 131.69 89.6889 141.44 82.6156 148.489H82.5899Z" fill="#F6F39E"/>
</g>
<g style="mix-blend-mode:multiply">
<path d="M91.5671 92.3313L66.4633 165.905C62.8109 166.831 59.0042 167.32 55.0688 167.32C54.2457 167.32 53.4227 167.32 52.5996 167.268L82.4104 83.5076C85.857 86.0286 88.9436 89.0127 91.5671 92.357V92.3313Z" fill="#F6F39E"/>
</g>
<g style="mix-blend-mode:multiply">
<path d="M45.8605 75.481L19.985 151.293C19.6506 150.907 19.342 150.521 19.0076 150.135C18.4675 149.466 17.9273 148.772 17.4129 148.051C15.0465 144.784 13.0918 141.183 11.6514 137.324L31.7653 80.8061C35.5206 78.6194 39.6103 76.9473 43.9314 75.8926C44.5744 75.7382 45.1917 75.6096 45.8347 75.481H45.8605Z" fill="#F6F39E"/>
</g>
<path d="M108.955 0.106934H88.712L44.8318 73.372H65.1001L108.955 0.106934Z" fill="#37A4ED"/>
</svg>
