<svg width="109" height="168" viewBox="0 0 109 168" fill="none" xmlns="http://www.w3.org/2000/svg">
<path d="M0.977295 0.106934H21.2229L65.11 73.372H44.8386L0.977295 0.106934Z" fill="#E8DB21"/>
<path d="M64.6982 79.5973V78.6454H45.4301C44.6841 78.6454 44.0153 78.3367 43.5265 77.848C43.0377 77.3592 42.729 76.6903 42.729 75.9443C42.729 75.1983 43.0377 74.5294 43.5265 74.0406C44.0153 73.5519 44.6841 73.2432 45.4301 73.2432H64.6982C65.4443 73.2432 66.1131 73.5519 66.6019 74.0406C67.0907 74.5294 67.3994 75.1983 67.3994 75.9443C67.3994 76.6903 67.0907 77.3592 66.6019 77.848C66.1131 78.3367 65.4443 78.6454 64.6982 78.6454V80.5234C67.2193 80.5234 69.2773 78.4654 69.2773 75.9443C69.2773 73.4232 67.2193 71.3652 64.6982 71.3652H45.4301C42.9091 71.3652 40.8511 73.4232 40.8511 75.9443C40.8511 78.4654 42.9091 80.5234 45.4301 80.5234H64.6982V79.5715V79.5973Z" fill="#E0C64C"/>
<path d="M101.434 120.938C101.434 146.56 80.6736 167.32 55.0514 167.32C52.8133 167.32 50.6267 167.166 48.4915 166.857C47.4882 166.702 46.4849 166.548 45.5074 166.342C34.8829 164.13 25.6219 158.265 19.0362 150.136C18.496 149.467 17.9558 148.772 17.4413 148.052C12.322 140.952 9.13207 132.334 8.74619 122.996C8.74619 122.661 8.74618 122.327 8.72046 121.992C8.72046 121.632 8.72046 121.272 8.72046 120.938C8.72046 120.552 8.72046 120.14 8.72046 119.754C9.26069 98.5052 24.1041 80.7806 43.9896 75.8929C45.7132 75.4556 47.5139 75.1469 49.3147 74.9153C51.2183 74.6838 53.1477 74.5552 55.1028 74.5552C63.4892 74.5552 71.3611 76.7933 78.1782 80.6777C78.9243 81.1151 79.6446 81.5524 80.3649 82.0155C93.0988 90.2732 101.511 104.628 101.511 120.912L101.434 120.938Z" fill="#E0C64C"/>
<path d="M57.289 112.423C57.289 112.423 57.0317 113.349 56.3886 114.249C56.3114 114.352 56.2085 114.455 56.1313 114.558C55.7969 114.944 55.3596 115.304 54.8451 115.51C53.0443 116.281 53.9704 117.722 51.9381 118.468C50.0088 119.162 50.8062 117.387 50.8834 117.207C50.7805 117.31 49.6229 118.442 48.8768 118.314C48.1308 118.185 48.9283 116.976 48.9797 116.873C48.9026 116.95 48.2852 117.516 47.3076 117.568C45.6869 117.645 45.9185 116.153 45.9185 116.153C44.0148 116.59 42.4713 115.432 44.0663 114.764C45.404 114.223 44.7608 112.68 42.4199 113.014C40.1046 113.323 38.7669 112.577 38.8698 111.702C38.9727 110.879 40.6705 110.519 40.8763 110.467C40.6448 110.467 38.4325 110.287 38.098 108.718C37.8408 107.509 39.2042 107.38 39.2042 107.38C39.2042 107.38 37.2234 106.351 36.9147 104.937C36.4259 102.698 37.7379 103.239 38.1752 103.47C37.8408 103.239 36.9147 102.493 36.4259 100.486C35.8085 97.9907 38.1238 98.9426 38.1238 98.9426C38.1238 98.9426 36.7089 97.682 36.0143 96.4215C34.2907 93.2316 37.635 93.8233 37.635 93.8233C36.889 93.3602 35.2168 90.2732 36.5545 89.0384C37.8151 87.9065 40.439 88.5239 41.8282 93.0515C41.9311 93.386 42.034 93.7204 42.1112 94.0805C42.1883 94.4407 42.3169 94.8008 42.4456 95.1353C44.1692 99.6886 49.3914 100.821 52.607 103.419C52.9671 103.702 53.3016 104.036 53.636 104.396C54.4335 105.297 55.0766 106.326 55.5654 107.38C56.8002 109.901 57.289 112.397 57.289 112.397V112.423Z" fill="#F8F19F"/>
<path opacity="0.42" d="M57.2891 112.422C57.2891 112.422 57.0319 113.348 56.3888 114.249C55.8743 112.885 53.5847 106.814 52.2213 104.628C50.6778 102.132 44.6838 102.209 43.1146 98.8909C42.7545 98.1192 42.4972 97.3989 42.2914 96.7557C41.6483 94.6206 41.8284 93.2829 41.8541 93.1028C41.957 93.4372 42.0599 93.7716 42.1371 94.1318C42.2142 94.4919 42.3429 94.8521 42.4715 95.1865C44.1951 99.7399 49.4173 100.872 52.6329 103.47C52.9931 103.753 53.3275 104.087 53.6619 104.448C54.4594 105.348 55.1025 106.377 55.5913 107.432C56.8261 109.953 57.3149 112.448 57.3149 112.448L57.2891 112.422Z" fill="#FCF9D5"/>
<path d="M56.4149 111.677C56.4149 111.677 56.312 112.654 55.849 113.632C55.7718 113.76 55.7203 113.863 55.6432 113.992C55.3859 114.429 55.0258 114.867 54.537 115.175C52.8906 116.256 54.0739 117.516 52.196 118.597C50.421 119.626 50.884 117.748 50.9355 117.568C50.8326 117.696 49.9322 119.008 49.1604 119.008C48.3887 119.008 48.9546 117.671 49.0061 117.568C48.9546 117.645 48.4401 118.339 47.4883 118.571C45.8933 118.957 45.8676 117.413 45.8676 117.413C44.0926 118.185 42.3433 117.31 43.8096 116.384C45.0444 115.613 44.1183 114.223 41.8802 114.944C39.6421 115.664 38.2015 115.175 38.1501 114.301C38.0986 113.477 39.7193 112.809 39.8994 112.731C39.6679 112.757 37.4812 112.989 36.8638 111.497C36.4008 110.339 37.7128 109.979 37.7128 109.979C37.7128 109.979 35.6033 109.31 35.0373 107.972C34.1627 105.863 35.5518 106.146 36.0149 106.3C35.6547 106.146 34.6257 105.554 33.7768 103.676C32.7221 101.335 35.166 101.85 35.166 101.85C35.166 101.85 33.5453 100.872 32.6449 99.7659C30.3811 96.9361 33.7768 96.9361 33.7768 96.9361C32.9536 96.6017 30.767 93.8748 31.8732 92.4085C32.9022 91.0708 35.6033 91.1994 37.7642 95.4184C37.9186 95.7271 38.0729 96.0358 38.2273 96.3702C38.3816 96.7046 38.536 97.039 38.7418 97.3477C41.2628 101.515 46.5879 101.695 50.2152 103.676C50.6268 103.908 51.0126 104.165 51.3985 104.474C52.3246 105.22 53.1478 106.12 53.8424 107.072C55.5145 109.336 56.4406 111.677 56.4406 111.677H56.4149Z" fill="#FAF5BD"/>
<path d="M37.9184 96.3449C37.9184 96.3449 34.3941 92.2803 33.4937 93.0006C32.5933 93.7209 34.9858 96.0104 36.1948 96.6793C37.4039 97.3481 38.33 97.451 38.33 97.451L37.8927 96.3191L37.9184 96.3449Z" fill="#F9F2A7"/>
<path d="M38.3302 97.7855C38.3302 97.7855 33.6482 95.5988 33.8283 96.705C34.0084 97.8112 35.3204 98.3 36.4008 98.6601C37.4813 99.0203 38.9733 99.1232 38.9733 99.1232L38.3559 97.7855H38.3302Z" fill="#F9F2A7"/>
<path d="M39.076 99.3286C38.7673 99.2772 36.4006 99.5345 34.6513 98.7884C33.7509 98.4025 33.1593 99.2515 35.2687 100.461C37.3782 101.67 40.3623 101.181 40.3623 101.181L39.0503 99.3286H39.076Z" fill="#F9F2A7"/>
<path d="M40.7232 101.438C40.7232 101.438 38.2536 102.056 35.8097 101.541C34.9093 101.361 35.3466 102.03 35.681 102.339C36.1441 102.776 37.4304 103.342 39.1025 103.136C40.7746 102.931 41.4949 102.107 41.4949 102.107L40.7232 101.464V101.438Z" fill="#F9F2A7"/>
<path d="M42.0092 101.953C42.0092 101.953 41.0831 103.265 39.1537 103.599C38.0475 103.805 36.9156 103.856 37.0185 104.397C37.1214 105.04 39.3852 105.194 40.4399 104.782C41.4947 104.371 42.9095 102.622 42.9095 102.622L42.0349 101.927L42.0092 101.953Z" fill="#F9F2A7"/>
<path d="M49.2381 104.166C49.2381 104.166 49.058 106.275 48.6722 107.15C48.3377 107.896 47.5403 108.359 47.849 108.642C48.1834 108.976 49.341 107.87 49.7784 107.15C50.3443 106.224 50.2414 104.86 50.2414 104.86L49.2896 104.191L49.2381 104.166Z" fill="#F9F2A7"/>
<path d="M43.0896 102.776C42.7552 103.702 41.0573 105.194 39.5396 105.657C38.7421 105.889 38.845 106.764 40.8516 106.403C43.3469 105.94 44.5302 103.033 44.5302 103.033L43.0896 102.802V102.776Z" fill="#F9F2A7"/>
<path d="M46.022 103.291C45.8677 103.445 45.6619 106.378 44.1184 107.561C43.5782 107.972 43.8611 108.436 45.3275 107.664C46.7938 106.892 47.2568 103.625 47.2568 103.625L45.9963 103.291H46.022Z" fill="#F9F2A7"/>
<path d="M47.6172 103.625C47.4886 103.78 47.4114 106.429 46.3567 107.87C45.9708 108.384 46.2281 108.976 47.2828 107.818C48.9035 106.043 48.7491 103.934 48.7491 103.934L47.6172 103.651V103.625Z" fill="#F9F2A7"/>
<path d="M44.8129 103.059C44.8129 103.059 43.4237 105.914 41.5458 106.866C40.8512 107.201 41.5715 107.484 42.0088 107.561C42.6005 107.638 43.7839 107.381 44.6842 106.3C45.5846 105.22 45.6361 103.187 45.6361 103.187L44.8129 103.085V103.059Z" fill="#F9F2A7"/>
<path d="M50.5754 105.194C50.7297 105.348 50.7297 106.429 50.2924 107.098C49.8036 107.844 49.0576 108.538 49.1605 108.796C49.3148 109.207 51.0642 108.333 51.9645 106.197C52.4276 105.117 50.6011 105.194 50.6011 105.194H50.5754Z" fill="#F9F2A7"/>
<path d="M52.5048 107.175C52.5048 107.175 48.1058 110.236 49.9066 110.442C51.7073 110.648 52.9679 107.715 52.9679 107.715L52.5048 107.175Z" fill="#F9F2A7"/>
<path d="M53.1994 108.667C53.1994 108.667 49.5464 110.957 50.7813 111.446C52.0161 111.934 53.5081 108.899 53.5081 108.899L53.1994 108.667Z" fill="#F9F2A7"/>
<path d="M54.0742 109.902C54.0742 109.902 51.2444 111.188 52.0162 111.857C52.7879 112.526 54.2285 110.108 54.2285 110.108L54.0742 109.902Z" fill="#F9F2A7"/>
<path d="M54.5629 110.931C54.5629 110.931 52.4792 111.651 53.0709 112.397C53.5082 112.963 54.8973 111.394 54.8973 111.394L54.5629 110.931Z" fill="#F9F2A7"/>
<path d="M55.2576 111.78C55.2576 111.78 53.6626 112.346 53.7398 112.912C53.8169 113.478 54.9746 112.86 55.2576 112.32C55.5405 111.78 55.2576 111.78 55.2576 111.78Z" fill="#F9F2A7"/>
<path d="M55.3863 112.5C55.3863 112.5 54.3831 112.809 54.5631 113.349C54.7432 113.889 55.4892 113.349 55.5664 112.86C55.6436 112.371 55.3863 112.5 55.3863 112.5Z" fill="#F9F2A7"/>
<g style="mix-blend-mode:multiply">
<path d="M56.4147 111.677C56.4147 111.677 56.3118 112.654 55.8487 113.632C55.7716 113.761 55.7201 113.863 55.6429 113.992C54.8455 112.809 51.2697 106.275 49.4946 104.808C47.6167 103.265 44.1695 103.393 42.4974 102.57C39.7963 101.258 38.7158 97.3479 38.7158 97.3479C41.2369 101.515 46.562 101.695 50.1892 103.676C50.6008 103.908 50.9867 104.165 51.3726 104.474L53.8165 107.072C55.4886 109.336 56.4147 111.677 56.4147 111.677Z" fill="#F9F2A7"/>
</g>
<path d="M56.4149 111.677C56.4149 111.677 56.312 112.654 55.8489 113.632C55.1029 112.371 51.7586 106.84 50.0093 104.911C48.0542 102.724 42.1632 103.882 40.028 100.898C39.5392 100.203 39.1533 99.5602 38.8446 98.9428C37.8414 96.962 37.7642 95.5985 37.7642 95.4185C37.9185 95.7272 38.0729 96.0359 38.2272 96.3703C38.3816 96.7047 38.5359 97.0391 38.7417 97.3478C41.2628 101.515 46.5879 101.695 50.2151 103.676C50.6267 103.908 51.0126 104.165 51.3985 104.474C52.3246 105.22 53.1478 106.12 53.8423 107.072C55.5145 109.336 56.4406 111.677 56.4406 111.677H56.4149Z" fill="#FCF9D5"/>
<path d="M66.2159 151.036C66.2159 151.036 65.3155 152.708 60.685 153.017C60.0162 153.068 59.2187 153.069 58.3698 153.043C58.164 153.043 57.9839 153.094 57.8038 153.171C56.6204 153.763 56.1059 156.284 51.0895 156.078C50.8323 156.078 50.5493 156.053 50.2406 156.027C42.9862 155.332 41.2883 152.451 38.9988 150.084C38.6901 149.75 38.3042 149.441 37.8669 149.158C35.8603 147.872 33.9566 147.126 32.1816 146.431C30.6896 145.865 27.6797 146.637 27.3196 139.923C26.342 139.203 25.596 138.302 25.1072 136.656C25.1844 135.73 24.6699 134.675 24.567 133.234C24.567 133.054 24.5413 132.849 24.5155 132.643C24.4641 131.691 24.3612 130.893 24.284 130.25C24.1039 128.99 23.8724 128.372 23.8467 128.295C24.1811 128.398 34.2911 131.511 42.1115 127.112C50.0863 122.661 54.2537 114.507 56.4146 110.957C56.7233 110.442 57.0063 109.953 57.2378 109.464C58.627 106.738 58.7299 104.911 58.8328 103.882C58.9357 102.647 64.621 107.844 64.621 107.844C64.621 107.844 63.592 109.156 64.0036 110.288C64.0807 110.468 64.1579 110.622 64.3122 110.802C65.65 112.294 66.2931 113.529 66.2931 116.153C66.2931 118.777 63.489 129.196 63.489 131.974C63.489 134.752 63.0003 146.354 66.2159 151.036Z" fill="#F8F09D"/>
<g style="mix-blend-mode:multiply">
<path d="M60.6593 153.017C59.9905 153.069 59.193 153.069 58.3441 153.043C58.1383 153.043 57.9582 153.094 57.7781 153.172C57.7781 153.172 56.0031 139.949 60.685 126.469C60.6079 126.906 58.5756 134.495 58.4984 141.801C58.447 146.174 59.8104 150.368 60.6593 153.017Z" fill="#F9F2A7"/>
</g>
<g style="mix-blend-mode:multiply">
<path d="M51.6295 129.272C44.658 137.916 39.7445 148.18 38.947 150.033C38.6383 149.698 38.2525 149.389 37.8151 149.107C35.8086 147.82 33.9049 147.074 32.1299 146.38C38.3554 145.171 50.6005 130.404 51.6295 129.272Z" fill="#F9F2A7"/>
</g>
<g style="mix-blend-mode:multiply">
<path d="M48.0801 124.771C47.9257 124.951 45.276 127.677 39.1792 130.687C33.1595 133.671 27.5 133.594 24.5159 133.234C24.5159 133.054 24.4902 132.848 24.4644 132.642C24.413 131.691 24.3101 130.893 24.2329 130.25C34.703 134.006 47.7714 125.002 48.1058 124.771H48.0801Z" fill="#F9F2A7"/>
</g>
<g style="mix-blend-mode:soft-light">
<path d="M50.2148 156.001C50.3177 150.805 56.1831 128.784 56.5947 127.523C56.3374 128.424 54.3309 138.302 52.9674 144.245C51.8355 149.235 51.1152 154.689 51.0895 156.053C50.8322 156.053 50.5493 156.027 50.2406 156.001H50.2148Z" fill="#F8F1A2"/>
</g>
<g style="mix-blend-mode:soft-light">
<path d="M53.6105 122.404C53.0188 123.15 48.0024 129.324 43.1918 132.411C35.783 137.17 30.355 139.1 27.268 139.897C26.2905 139.177 25.5444 138.276 25.0557 136.63C37.9182 137.762 52.6072 123.407 53.6105 122.404Z" fill="#F8F1A2"/>
</g>
<g style="mix-blend-mode:multiply">
<path d="M63.9776 110.288C63.5146 110.082 63.0258 109.825 62.4855 109.516C61.1736 108.744 58.2152 109.259 57.2119 109.464C58.6011 106.738 58.704 104.911 58.8069 103.882C58.9098 102.647 64.595 107.844 64.595 107.844C64.595 107.844 63.566 109.156 63.9776 110.288Z" fill="#F9F2A7"/>
</g>
<path d="M67.9398 91.2512L60.7882 105.297C60.7882 105.297 60.7882 105.349 60.7368 105.451C60.6082 105.709 60.248 106.223 59.0132 106.609C57.2896 107.149 57.0067 105.683 57.0067 105.683C57.0067 105.683 56.2092 106.969 54.6142 106.48C52.9421 105.966 53.3022 104.32 53.3022 104.32C53.3022 104.32 52.1703 105.143 50.9355 103.728C49.675 102.313 50.5754 100.898 50.5754 100.898C50.5754 100.898 49.392 101.207 48.9804 99.8949C48.4402 98.2227 49.9323 97.5539 49.9323 97.5539C49.9323 97.5539 48.9804 97.2709 49.109 95.5988C49.2119 94.1839 50.4725 93.9266 50.4725 93.9266C50.5754 91.9715 51.9645 91.6628 52.5305 91.6371C52.6848 91.6371 52.7877 91.6371 52.7877 91.6371C57.9328 85.3345 64.7756 88.8845 65.8818 89.4247C67.1423 90.0679 67.9655 91.1998 67.9655 91.1998L67.9398 91.2512Z" fill="#F2E44E"/>
<g style="mix-blend-mode:multiply">
<path d="M60.7111 105.477C60.5825 105.734 60.2224 106.249 58.9876 106.635C57.264 107.175 56.981 105.709 56.981 105.709C56.981 105.709 56.1835 106.995 54.5886 106.506C52.9164 105.992 53.2766 104.345 53.2766 104.345C53.2766 104.345 52.1447 105.169 50.9099 103.754C49.6493 102.339 50.5497 100.924 50.5497 100.924C50.5497 100.924 49.3664 101.233 48.9548 99.9206C48.4146 98.2485 49.9066 97.5796 49.9066 97.5796C49.9066 97.5796 48.9548 97.2966 49.0834 95.6245C49.1863 94.2096 50.4468 93.9524 50.4468 93.9524C50.5497 91.9973 51.9389 91.6886 52.5048 91.6628C52.299 91.7915 50.6012 92.9748 50.8327 94.0038C50.8327 94.0038 48.9548 95.5473 50.241 97.6825C50.241 97.6825 48.929 99.7662 51.0899 100.615C51.0899 100.615 49.9838 103.291 53.4824 103.574C53.4824 103.574 53.148 106.146 55.0002 106.043C56.8524 105.94 56.981 104.808 56.981 104.808C56.981 104.808 57.2125 106.455 58.4473 106.403C59.6821 106.352 58.0615 103.111 59.039 102.184C60.0166 101.258 60.4024 102.596 60.4024 102.596L60.7626 105.426L60.7111 105.477Z" fill="#F7EF93"/>
</g>
<path d="M70.4608 104.062C70.8467 104.345 70.0492 104.679 69.8691 104.653C69.8691 104.653 70.2036 104.756 70.2036 105.065C70.2036 105.374 69.6633 105.425 69.5862 105.785C69.509 106.146 69.8691 107.252 69.6376 107.766C69.4061 108.281 68.9945 109.155 66.4992 108.898C64.6212 108.692 60.9682 108.126 60.4795 106.197C60.2737 105.322 60.2737 104.37 60.2737 104.37C59.4247 104.731 58.3443 102.956 59.4248 101.618C60.0679 100.795 60.7367 101.747 60.7882 101.824C60.7882 101.824 61.8172 99.0454 63.7208 95.804C64.2096 94.9808 64.6212 94.3377 64.9814 93.7975C66.0361 92.2282 66.5763 91.8167 66.5763 91.8167C66.5763 91.8167 67.2966 92.5627 68.0427 93.6431C68.6601 94.5692 69.3289 95.7269 69.5604 96.8588C69.6119 97.0903 69.6376 97.3218 69.6633 97.5533C69.6633 97.6048 69.6633 97.6562 69.6633 97.7077C69.7405 98.8139 69.5604 99.7143 69.5604 99.7143C69.5604 99.7143 69.4575 99.9715 69.3804 100.306C69.3032 100.64 69.2517 101.078 69.4061 101.283C69.7148 101.695 70.1778 101.772 70.4608 102.081C70.5637 102.21 70.5894 102.364 70.538 102.544C70.4865 102.827 70.2807 103.161 70.0749 103.341C70.0749 103.341 70.1521 103.882 70.4608 104.088V104.062Z" fill="#FBF7C9"/>
<g style="mix-blend-mode:soft-light">
<path d="M70.5378 102.518C70.5378 102.107 70.2805 101.927 69.6117 101.567C68.9943 101.232 69.3544 100.28 69.3544 100.28C69.2772 100.615 69.2258 101.052 69.3801 101.258C69.6888 101.669 70.1519 101.747 70.4349 102.055C70.5378 102.184 70.5635 102.338 70.512 102.518H70.5378Z" fill="#FBF7C9"/>
</g>
<g style="mix-blend-mode:multiply">
<path d="M69.8176 97.3735C69.8176 97.3735 69.7918 97.5793 69.7661 97.605C69.7404 97.6307 69.7147 97.6565 69.6632 97.6822C69.4317 97.8623 68.9429 98.0938 68.8657 98.1195C68.9172 97.9909 68.9429 97.7851 68.9686 97.5793C68.9686 97.0133 68.8657 96.3445 68.8657 96.3445C68.8657 96.3445 68.9172 96.9619 68.4799 97.7336C67.6052 99.2257 67.1422 98.9942 67.1422 98.9942C67.2708 98.7112 66.4476 97.7336 66.4476 97.7336C66.4476 97.7336 66.5762 98.2481 66.4476 99.0971C66.2418 100.538 64.724 100.692 64.4153 100.615C64.1066 100.512 64.0294 99.9975 64.0294 99.9975C64.0294 99.9975 64.5697 100.538 65.0327 99.8174C65.0584 99.7916 65.0842 99.7402 65.1099 99.6887C65.3157 99.3286 65.3157 99.1228 65.2128 98.9684C65.007 98.7112 64.3896 98.7626 63.8493 98.8913C63.5664 98.9685 63.3348 99.3286 63.1548 99.8431C62.9747 100.332 62.7946 100.898 62.6403 101.464C62.4345 102.081 62.2544 102.673 61.9971 103.007C61.3283 103.933 60.3764 103.573 60.3764 103.573C60.3764 103.573 60.8138 103.136 60.7366 102.236C60.6594 101.335 59.4761 101.592 59.4761 101.592C60.1192 100.769 60.7881 101.721 60.8395 101.798C60.8395 101.695 60.8138 101.567 60.7881 101.464C60.0678 98.2481 60.5823 96.6275 61.7142 94.4666L65.007 93.772L67.2965 93.2832L68.0683 93.6176L69.8176 94.3894C69.8176 94.3894 69.9462 96.6275 69.8176 97.3735Z" fill="#F7EF93"/>
</g>
<path d="M70.8211 95.367C70.5896 96.3703 70.2551 96.9362 69.8178 97.3736C69.7664 97.425 69.7149 97.4765 69.6635 97.5279C69.4319 97.7337 69.1747 97.9395 68.866 98.1196C68.866 98.1196 68.9175 97.8881 68.9689 97.5794C69.0718 96.9362 69.1747 95.8815 68.7888 95.367C68.7888 95.367 68.866 98.1453 67.271 98.8913C67.271 98.8913 67.0652 97.8623 66.2163 97.2707C66.2163 97.2707 66.9623 100.126 65.1358 100.486C64.5442 100.615 64.184 100.332 64.0554 100.023C63.9268 99.6631 64.0554 99.2772 64.3898 99.3287C64.9043 99.4058 64.467 99.9203 64.467 99.9203C64.467 99.9203 64.8272 100.152 65.0587 99.8432C65.0844 99.8174 65.1101 99.766 65.1358 99.7145C65.1873 99.5859 65.2388 99.4058 65.2388 99.1486C65.2388 99.0971 65.2388 99.0457 65.2388 98.9942C65.1359 97.9395 63.3865 98.3511 63.2065 99.6116C63.2065 99.6888 63.1807 99.766 63.155 99.8432C63.0521 100.306 62.8721 100.898 62.6405 101.464C62.126 102.596 61.3543 103.65 60.3767 103.573C60.3767 103.573 60.9941 103.007 60.8398 101.824C60.8398 101.824 60.814 101.592 60.7883 101.49C60.068 98.2739 60.5825 96.6533 61.7144 94.4923C61.7144 94.4923 61.7144 94.4666 61.7401 94.4409C63.155 91.8169 66.7565 90.8394 67.6826 90.8908C69.7407 90.9937 71.2327 93.7206 70.8211 95.367Z" fill="#F2E44E"/>
<path d="M68.6089 100.615C68.2745 101.207 67.4256 101.207 66.8596 101.027H66.9625C66.7824 101.052 66.3708 101.027 66.2422 100.872L66.8853 100.718C67.4255 100.795 68.0944 100.95 68.5832 100.589L68.6089 100.615Z" fill="#ABA422"/>
<path d="M66.2678 99.7915C66.2678 99.7915 68.0171 98.8139 68.8146 99.1998C69.1748 99.3799 68.5574 99.6628 68.2487 99.5599C67.657 99.3541 66.2678 99.7915 66.2678 99.7915Z" fill="#EDDA09"/>
<path d="M82.8861 108.589C82.3201 109.438 80.3136 111.419 78.4614 111.702C78.2556 111.728 78.0755 111.779 77.9211 111.856C76.4548 112.396 75.7345 113.966 75.7345 113.966L75.0142 111.239C75.0142 111.239 74.9885 111.059 74.9885 110.801C74.9628 110.184 74.9885 109.104 75.6059 108.641C76.4548 107.997 77.7411 107.046 78.1527 107.457C78.5643 107.869 76.8664 108.641 77.1494 109.181C77.4324 109.721 81.5484 108.409 82.3201 107.354C83.0662 106.325 83.4778 107.714 82.9118 108.563L82.8861 108.589Z" fill="#FBF7C9"/>
<g style="mix-blend-mode:multiply" opacity="0.35">
<path d="M77.8953 111.856C76.429 112.396 75.7087 113.966 75.7087 113.966L74.9884 111.239C74.9884 111.239 74.9626 111.059 74.9626 110.802C74.9626 110.802 75.8116 111.342 76.1975 111.805C76.4033 112.062 77.0978 112.011 77.8696 111.856H77.8953Z" fill="#F7EF93"/>
</g>
<path d="M81.0597 101.155L86.3076 100.615L81.0597 100.074L83.2463 97.4504L80.6224 99.6371L80.0822 94.3892L79.5419 99.6371L76.918 97.4504L79.1046 100.074L73.8567 100.615L79.1046 101.155L76.918 103.779L79.5419 101.592L80.0822 106.84L80.6224 101.592L83.2463 103.779L81.0597 101.155Z" fill="#FAF5BF"/>
<path d="M76.095 123.69C75.7606 124.436 75.4776 124.745 75.4776 124.745C69.9982 124.925 66.7053 123.227 64.5444 121.606C63.3868 120.732 62.615 119.574 62.1005 118.339C61.2002 116.23 61.123 113.915 61.3031 112.68C61.4574 111.625 61.869 110.725 62.6665 110.442C63.3354 110.236 63.7727 110.339 64.1328 110.596C65.0075 111.239 65.4705 112.886 68.1202 113.066C71.8504 113.349 74.8859 110.725 74.8859 110.725C74.8859 110.725 75.8892 111.599 76.4809 114.275C76.6867 115.175 76.841 116.281 76.8925 117.593C77.0211 120.706 76.5066 122.61 76.0693 123.664L76.095 123.69Z" fill="#F8F09D"/>
<g style="mix-blend-mode:multiply">
<path d="M76.0946 123.69C75.7601 124.436 75.4772 124.745 75.4772 124.745C69.9977 124.925 66.7049 123.227 64.544 121.606C63.3864 120.732 62.6146 119.574 62.1001 118.339C63.232 119.857 66.0875 123.098 70.4093 123.716C72.9046 124.076 74.7826 123.947 76.0946 123.664V123.69Z" fill="#F9F2A7"/>
</g>
<g style="mix-blend-mode:soft-light">
<path d="M76.5064 114.301C76.2234 113.632 75.786 112.783 75.2973 112.165C74.3454 110.982 72.9306 113.709 69.0203 113.735C65.1101 113.76 64.1326 110.622 64.1326 110.622C65.0072 111.265 65.4703 112.911 68.12 113.091C71.8501 113.374 74.8857 110.75 74.8857 110.75C74.8857 110.75 75.8889 111.625 76.4806 114.301H76.5064Z" fill="#F8F1A2"/>
</g>
<path d="M69.1484 87.263C69.0455 87.1087 68.8912 86.98 68.7111 86.9029C68.4024 86.7228 67.9908 86.5942 67.4506 86.4655C65.8556 86.0797 63.2831 85.8481 60.3504 85.8481C57.958 85.8481 55.8228 86.0025 54.2279 86.2597C53.4304 86.3884 52.7873 86.5427 52.3242 86.7228C52.0927 86.8257 51.8869 86.9029 51.7325 87.0315C51.6553 87.0829 51.5782 87.1601 51.5267 87.263C51.4753 87.3402 51.4238 87.4688 51.4238 87.5717C51.4238 87.7003 51.4496 87.8032 51.5267 87.8804C51.6296 88.0348 51.784 88.1634 51.9641 88.2406C52.2728 88.4206 52.6844 88.5493 53.2246 88.6779C54.8195 89.0638 57.392 89.2953 60.3247 89.2953C62.7171 89.2953 64.8523 89.1409 66.4473 88.8837C67.2448 88.7551 67.8879 88.6007 68.3509 88.4207C68.5825 88.3178 68.7883 88.2406 68.9426 88.1119C69.0198 88.0605 69.097 87.9833 69.1484 87.8804C69.1999 87.8032 69.2513 87.6746 69.2513 87.5717C69.2513 87.4431 69.2256 87.3402 69.1484 87.263ZM65.4183 88.3692C64.0034 88.5493 62.2541 88.6522 60.3504 88.6522C58.0095 88.6522 55.8743 88.4978 54.3565 88.2406C53.5847 88.1119 52.9931 87.9576 52.5814 87.8032C52.3756 87.7261 52.247 87.6489 52.1699 87.5974H52.1441C52.1441 87.5974 52.247 87.4945 52.3499 87.4431C52.813 87.1858 53.8934 86.9543 55.3083 86.7742C56.7232 86.5942 58.4725 86.4913 60.3762 86.4913C62.7171 86.4913 64.8523 86.6456 66.3701 86.9029C67.1419 87.0315 67.7335 87.1858 68.1451 87.3402C68.3509 87.4174 68.4796 87.4946 68.5567 87.546H68.5825C68.5825 87.546 68.4796 87.6489 68.3767 87.7003C67.9136 87.9576 66.8331 88.1891 65.4183 88.3692Z" fill="#FAF5BF"/>
<g style="mix-blend-mode:soft-light" opacity="0.38">
<path d="M80.288 82.0413L79.4133 84.3309L78.0499 87.9581L77.5869 89.1929L51.1415 159.731L50.6784 160.94L49.315 164.567L48.4403 166.883C47.4371 166.728 46.4338 166.574 45.4562 166.368C34.8318 164.156 25.5707 158.291 18.9851 150.161C18.4449 149.493 17.9046 148.798 17.3901 148.078L18.3934 145.325L20.0398 140.849L20.6058 139.28L40.6714 84.7167L41.2373 83.1475L42.8837 78.6713L43.887 75.9188C45.6106 75.4814 47.4113 75.1727 49.2121 74.9412C51.1157 74.7097 53.0451 74.5811 55.0002 74.5811C63.3866 74.5811 71.2585 76.8191 78.0757 80.7036C78.8217 81.141 79.542 81.5783 80.2623 82.0413H80.288Z" fill="#FFFB8C"/>
</g>
<path d="M86.1536 89.8614C84.0956 87.8034 81.8575 85.9769 79.4393 84.3562C72.4678 79.7 64.0814 76.9731 55.0519 76.9731C50.8587 76.9731 46.7942 77.5648 42.9354 78.671C41.2375 79.1598 39.5654 79.7515 37.9447 80.4203C32.6711 82.6327 27.9377 85.874 23.9503 89.8357C16.0012 97.7848 11.062 108.795 11.062 120.937C11.062 129.941 13.7631 138.328 18.4194 145.299C20.0401 147.717 21.8923 149.981 23.9503 152.039C30.6388 158.728 39.4882 163.281 49.3409 164.567C51.2189 164.824 53.1225 164.927 55.0519 164.927C67.1942 164.927 78.2045 159.988 86.1536 152.039C94.1026 144.09 99.0418 133.08 99.0418 120.937C99.0418 108.795 94.1284 97.7848 86.1536 89.8357V89.8614ZM94.8229 127.06C94.7715 127.394 94.72 127.729 94.6686 128.063C94.54 128.732 94.4113 129.375 94.257 130.018C94.1798 130.353 94.1026 130.661 94.0255 130.996C93.7939 131.948 93.5109 132.9 93.1765 133.851C92.7649 135.086 92.2761 136.321 91.7359 137.504C91.5558 137.89 91.3758 138.302 91.17 138.688C90.7841 139.459 90.3725 140.231 89.9609 140.977C89.6522 141.543 89.292 142.083 88.9576 142.624C88.5975 143.164 88.2373 143.704 87.8772 144.244C87.517 144.759 87.1311 145.273 86.7195 145.788C86.3337 146.302 85.9221 146.791 85.5105 147.28C84.8673 148 84.2242 148.72 83.5553 149.389C82.8608 150.084 82.1662 150.727 81.4459 151.37C80.3397 152.322 79.1821 153.222 77.9987 154.046C76.5581 155.049 75.0661 155.949 73.4711 156.747C73.2139 156.875 72.9309 157.004 72.6736 157.158C67.3742 159.731 61.4317 161.171 55.1291 161.171C53.6628 161.171 52.1964 161.094 50.7816 160.94C46.0739 160.425 41.6234 159.113 37.5589 157.133C37.0958 156.901 36.6585 156.695 36.2212 156.438C35.7838 156.206 35.3465 155.949 34.9092 155.718C34.4718 155.46 34.0602 155.203 33.6229 154.946C31.9251 153.865 30.3301 152.682 28.8123 151.37C28.092 150.727 27.3717 150.084 26.7029 149.389C26.3684 149.055 26.034 148.695 25.6996 148.36C25.3652 148 25.0565 147.64 24.722 147.28C24.3104 146.791 23.8988 146.302 23.5129 145.788C23.1271 145.273 22.7412 144.759 22.3553 144.244C21.9695 143.704 21.6093 143.19 21.2749 142.624C20.9405 142.083 20.5803 141.517 20.2716 140.977C20.2459 140.926 20.2202 140.874 20.1944 140.823C19.7828 140.103 19.4227 139.408 19.0625 138.662C18.8567 138.276 18.6766 137.89 18.4966 137.479C17.9563 136.295 17.4676 135.06 17.056 133.826C15.6925 129.787 14.9465 125.439 14.9465 120.937C14.9465 116.435 15.6925 112.088 17.056 108.049C17.4676 106.814 17.9563 105.579 18.4966 104.396C18.6766 104.01 18.8567 103.599 19.0625 103.213C19.4484 102.441 19.86 101.669 20.2716 100.923C20.5803 100.357 20.9405 99.817 21.2749 99.2768C21.635 98.7366 21.9952 98.1963 22.3553 97.6561C22.7155 97.1416 23.1013 96.6271 23.5129 96.1126C23.8988 95.5981 24.3104 95.1093 24.722 94.6206C25.0307 94.2604 25.3652 93.9003 25.6996 93.5401C26.034 93.18 26.3684 92.8455 26.7029 92.5111C27.3975 91.8165 28.092 91.1734 28.8123 90.5303C30.8703 88.7552 33.1342 87.1603 35.5266 85.8226C36.3241 85.3853 37.1473 84.9479 37.9705 84.5621C38.2534 84.4334 38.5364 84.3048 38.8194 84.1762C39.3853 83.9189 39.9513 83.6874 40.5172 83.4559C40.8002 83.353 41.0832 83.2243 41.3919 83.1214C41.7521 82.9928 42.1122 82.8642 42.4724 82.7356C46.4597 81.3979 50.7301 80.7033 55.1548 80.7033C63.7213 80.7033 71.6446 83.3787 78.1788 87.932C79.0277 88.5237 79.8766 89.1668 80.6741 89.8357C80.9314 90.0672 81.2144 90.273 81.4716 90.5045C82.1919 91.1477 82.9122 91.7908 83.5811 92.4854C84.2756 93.18 84.9188 93.8745 85.5362 94.5948C85.9478 95.0836 86.3594 95.5724 86.7452 96.0869C87.1311 96.6014 87.517 97.1159 87.9029 97.6304C88.2888 98.1706 88.6489 98.6851 88.9833 99.2511C89.3178 99.7913 89.6779 100.357 89.9866 100.897C90.4239 101.644 90.8098 102.415 91.1957 103.187C91.4015 103.573 91.5816 103.959 91.7616 104.37C92.3019 105.554 92.7906 106.789 93.2022 108.023C93.5109 108.949 93.7939 109.901 94.0512 110.879C94.1283 111.213 94.2055 111.522 94.2827 111.856C94.4371 112.5 94.5657 113.168 94.6943 113.811C94.7457 114.146 94.7972 114.48 94.8487 114.815C94.9516 115.484 95.0287 116.152 95.1059 116.821C95.2345 118.185 95.3117 119.548 95.3117 120.937C95.3117 122.326 95.2345 123.69 95.1059 125.053C95.0287 125.722 94.9516 126.391 94.8487 127.06H94.8229Z" fill="#FAE543"/>
<g style="mix-blend-mode:multiply">
<path d="M95.0802 116.822C95.003 116.153 94.9258 115.484 94.8229 114.815C94.7714 114.481 94.72 114.146 94.6686 113.812C94.5399 113.143 94.4113 112.5 94.2569 111.857C94.1798 111.523 94.1026 111.214 94.0254 110.879C93.7682 109.928 93.4852 108.976 93.1765 108.024C92.7392 106.789 92.2761 105.554 91.7359 104.371C91.5558 103.985 91.3757 103.573 91.1699 103.188C90.7841 102.416 90.3725 101.644 89.9609 100.898C89.6522 100.332 89.292 99.7919 88.9576 99.2517C88.5974 98.7114 88.2373 98.1712 87.8771 97.631C87.517 97.1165 87.1311 96.602 86.7195 96.0875C86.3336 95.573 85.922 95.0842 85.5104 94.5954C84.8673 93.8751 84.2242 93.1548 83.5296 92.4859C82.835 91.7914 82.1404 91.1482 81.4201 90.5051C81.1629 90.2736 80.9056 90.0421 80.6227 89.8363C79.8252 89.1674 78.9762 88.55 78.1273 87.9326C71.6189 83.3793 63.6698 80.7039 55.1034 80.7039C50.6786 80.7039 46.4083 81.4242 42.4209 82.7361C42.0607 82.8648 41.7006 82.9677 41.3404 83.0963C41.0574 83.1992 40.7745 83.3278 40.4658 83.4307C39.8998 83.6622 39.3081 83.8938 38.7679 84.151C38.4849 84.2796 38.202 84.4083 37.919 84.5369C37.0958 84.9228 36.2726 85.3601 35.4751 85.7974C33.0827 87.1351 30.8446 88.7301 28.7608 90.5051C28.0405 91.1482 27.3202 91.7914 26.6514 92.4859C26.317 92.8204 25.9825 93.1805 25.6481 93.515C25.3137 93.8751 25.005 94.2353 24.6706 94.5954C24.259 95.0842 23.8474 95.573 23.4615 96.0875C23.0756 96.602 22.6897 97.1165 22.3039 97.631C21.918 98.1712 21.5578 98.6857 21.2234 99.2517C20.889 99.7919 20.5288 100.358 20.2201 100.898C19.7828 101.644 19.3969 102.416 19.011 103.188C18.8052 103.573 18.6252 103.959 18.4451 104.371C17.9049 105.554 17.4418 106.789 17.0045 108.024C15.641 112.063 14.895 116.41 14.895 120.912C14.895 125.414 15.641 129.762 17.0045 133.8C17.4418 135.035 17.9049 136.27 18.4451 137.453C18.6252 137.839 18.8052 138.251 19.011 138.637C19.3712 139.357 19.7571 140.077 20.1429 140.772C20.1429 140.772 20.1944 140.875 20.2201 140.926C20.5288 141.492 20.889 142.032 21.2234 142.573C21.5835 143.113 21.9437 143.653 22.3039 144.193C22.664 144.708 23.0499 145.222 23.4615 145.737C23.8474 146.251 24.259 146.74 24.6706 147.229C24.9793 147.589 25.3137 147.949 25.6481 148.309C25.9825 148.67 26.317 149.004 26.6514 149.338C27.346 150.033 28.0405 150.676 28.7608 151.319C30.2786 152.631 31.8736 153.815 33.5714 154.895C34.0088 155.152 34.4204 155.435 34.8577 155.667C35.295 155.924 35.7324 156.156 36.1697 156.387C36.607 156.619 37.0701 156.85 37.5074 157.082C41.5719 159.063 46.0481 160.374 50.7301 160.889C52.1707 161.043 53.6113 161.12 55.0776 161.12C61.3546 161.12 67.3228 159.68 72.6221 157.107C72.8794 156.979 73.1624 156.85 73.4196 156.696C74.9888 155.898 76.5066 154.998 77.9472 153.995C79.1563 153.171 80.3139 152.271 81.3944 151.319C82.1147 150.676 82.835 150.033 83.5039 149.338C84.1984 148.644 84.8416 147.949 85.4847 147.229C85.8963 146.74 86.3079 146.251 86.6938 145.737C87.0797 145.222 87.4655 144.708 87.8514 144.193C88.2373 143.653 88.5974 143.139 88.9318 142.573C89.2663 142.032 89.6264 141.467 89.9351 140.926C90.3725 140.18 90.7584 139.409 91.1442 138.637C91.35 138.251 91.5301 137.865 91.7102 137.453C92.2504 136.27 92.7135 135.035 93.1508 133.8C93.4595 132.874 93.7425 131.923 93.9997 130.945C94.0769 130.611 94.1541 130.302 94.2312 129.967C94.3856 129.324 94.5142 128.655 94.6428 128.012C94.6943 127.678 94.7457 127.343 94.7972 127.009C94.9001 126.34 94.9772 125.671 95.0544 125.002C95.183 123.639 95.2602 122.276 95.2602 120.886C95.2602 119.497 95.183 118.134 95.0544 116.77L95.0802 116.822ZM82.6035 148.489C75.5548 155.538 65.805 159.911 55.0519 159.911C53.7399 159.911 52.4279 159.86 51.1674 159.706C41.9578 158.78 33.7001 154.664 27.5003 148.489C24.7992 145.788 22.4839 142.676 20.6575 139.254C17.7505 133.8 16.0784 127.549 16.0784 120.938C16.0784 110.185 20.4259 100.435 27.5003 93.3863C31.2305 89.6562 35.7066 86.6721 40.723 84.6912C45.1735 82.9162 50.0098 81.9644 55.0776 81.9644C63.4897 81.9644 71.2587 84.6141 77.6385 89.1674C79.4136 90.4279 81.0857 91.8428 82.6292 93.3863C89.6779 100.435 94.0511 110.185 94.0511 120.938C94.0511 131.691 89.7036 141.441 82.6292 148.489H82.6035Z" fill="#F6F39E"/>
</g>
<path d="M108.997 0.106934H88.7257L44.8386 73.372H65.11L108.997 0.106934Z" fill="#FFF024"/>
</svg>
