<svg width="109" height="168" viewBox="0 0 109 168" fill="none" xmlns="http://www.w3.org/2000/svg">
<path d="M0.977295 0.106934H21.2487L65.11 73.372H44.8643L0.977295 0.106934Z" fill="#C40096"/>
<path d="M64.6984 79.5716V78.6198H45.4303C44.6842 78.6198 44.0154 78.3111 43.5266 77.8223C43.0378 77.3335 42.7291 76.6647 42.7291 75.9187C42.7291 75.1726 43.0378 74.5038 43.5266 74.015C44.0154 73.5262 44.6842 73.2175 45.4303 73.2175H64.6984C65.4444 73.2175 66.1132 73.5262 66.602 74.015C67.0908 74.5038 67.3995 75.1726 67.3995 75.9187C67.3995 76.6647 67.0908 77.3335 66.602 77.8223C66.1132 78.3111 65.4444 78.6198 64.6984 78.6198V80.4977C67.2194 80.4977 69.2774 78.4397 69.2774 75.9187C69.2774 73.3976 67.2194 71.3396 64.6984 71.3396H45.4303C42.9092 71.3396 40.8512 73.3976 40.8512 75.9187C40.8512 78.4397 42.9092 80.4977 45.4303 80.4977H64.6984V79.5459V79.5716Z" fill="#E0C64C"/>
<path d="M101.46 120.938C101.46 138.173 92.0442 153.248 78.0754 161.223C72.3902 164.465 65.9332 166.548 59.0389 167.14C57.7269 167.269 56.4149 167.32 55.0772 167.32C52.8391 167.32 50.6525 167.166 48.5173 166.857C47.514 166.703 46.5107 166.548 45.5332 166.342C34.9087 164.13 25.6477 158.265 19.0621 150.136C18.5218 149.467 17.9816 148.772 17.4671 148.052C17.4671 148.052 17.4671 148.026 17.4414 148C16.8497 147.177 16.2838 146.328 15.7435 145.479C13.7112 142.238 12.0906 138.739 10.9072 135.061C10.0068 132.231 9.36371 129.273 9.00356 126.237C8.87493 125.157 8.79776 124.076 8.74631 122.996C8.74631 122.661 8.74631 122.327 8.72058 121.992C8.72058 121.632 8.72058 121.272 8.72058 120.938C8.72058 120.552 8.72058 120.14 8.72058 119.754C9.05501 106.454 14.9975 94.5437 24.2585 86.286C26.2651 84.4852 28.4517 82.8645 30.767 81.4497C33.9055 79.5203 37.2754 77.951 40.8255 76.8191C41.8288 76.4847 42.8321 76.2017 43.8868 75.9445C43.9125 75.9445 43.964 75.9445 43.9897 75.9188C45.7133 75.4814 47.514 75.1727 49.3148 74.9412C51.2184 74.7097 53.1478 74.5811 55.1029 74.5811C63.4893 74.5811 71.3612 76.8191 78.1783 80.7036C78.9244 81.141 79.6447 81.5783 80.365 82.0413C83.4777 84.0736 86.3332 86.466 88.88 89.1415C93.1761 93.6948 96.5461 99.0971 98.7327 105.065C100.533 110.03 101.511 115.355 101.511 120.938H101.46Z" fill="#E0C64C"/>
<path d="M76.9439 148.309C71.5931 151.139 45.0705 154.535 35.6808 148.309C35.6294 148.284 35.6551 147.923 35.7323 147.255C35.7837 146.869 35.8352 146.406 35.9123 145.865C36.1439 144.27 36.504 141.981 36.9671 139.254C38.5363 129.993 41.1345 115.69 42.9353 106.223C43.9643 100.666 44.7618 96.7819 44.8647 96.5247C45.2248 95.7272 49.7782 94.6467 49.7782 94.6467L63.5926 94.6982C67.1941 95.3928 67.8115 95.7015 68.6347 96.5247L70.3325 103.059L74.1398 117.748C74.217 118.237 75.1946 128.707 75.992 137.273C76.275 140.566 76.558 143.576 76.7124 145.608C76.7638 146.097 76.7895 146.534 76.8152 146.894C76.9181 147.795 76.9439 148.309 76.9182 148.309H76.9439Z" fill="#FFEB69"/>
<g style="mix-blend-mode:multiply" opacity="0.48">
<path d="M51.0385 91.0966C51.0385 91.0966 51.6044 90.8394 56.6208 90.8394C60.351 90.8394 62.7177 91.4825 62.9492 91.7655C63.1807 92.0484 60.1194 94.4151 58.293 94.2865C56.4665 94.1579 49.9323 93.026 51.0385 91.0966Z" fill="#967D00"/>
</g>
<g style="mix-blend-mode:multiply" opacity="0.48">
<path d="M51.2186 92.28C51.2186 92.28 53.7139 91.5597 56.5952 91.7141C60.4282 91.9199 62.2547 92.563 62.4862 92.846C62.7177 93.1289 60.1452 95.187 58.3187 95.0583C56.4923 94.9297 50.1124 94.2094 51.2443 92.28H51.2186Z" fill="#C9BC7A"/>
</g>
<path d="M63.6182 94.6977C63.6182 94.6977 63.5925 94.7492 63.5668 94.8006C63.5668 94.8006 63.5668 94.8006 63.5668 94.8263C63.5668 94.8521 63.5668 94.8778 63.5153 94.9292C63.0523 95.6495 61.4573 97.7847 58.1902 98.4021C57.5471 98.5307 56.8525 98.5822 56.0808 98.5565C50.91 98.3764 49.9067 95.0321 49.8038 94.6463C49.7781 94.5176 49.7524 94.389 49.7524 94.2604C49.7524 94.2347 49.7524 94.2089 49.7524 94.2089C49.6238 91.7136 51.0901 91.0962 51.0901 91.0962C51.0901 91.0962 51.6046 92.9227 56.3123 93.077C61.0457 93.2571 63.0008 91.765 63.0008 91.765C63.0008 91.765 64.4671 93.36 63.6439 94.6977H63.6182Z" fill="#FFEB69"/>
<path d="M63.6182 94.6977C63.6182 94.6977 63.5925 94.7492 63.5668 94.8006C63.5668 94.8006 63.5668 94.8006 63.5668 94.8263C63.5668 94.8521 63.5668 94.8778 63.5153 94.9292C63.2323 95.4695 61.6631 97.7847 58.1902 98.4021C57.5471 98.5307 56.8525 98.5822 56.0808 98.5565C50.91 98.3764 49.9067 95.0321 49.8038 94.6463C49.7781 94.5176 49.7524 94.389 49.7524 94.2604V94.2089C49.6238 91.7136 51.0901 91.0962 51.0901 91.0962C51.0901 91.0962 51.6046 92.9227 56.3123 93.077C61.0457 93.2571 63.0008 91.765 63.0008 91.765C63.0008 91.765 64.4671 93.36 63.6439 94.6977H63.6182Z" fill="#FFE959"/>
<g style="mix-blend-mode:soft-light">
<path d="M52.4535 95.135C52.4535 95.135 52.9422 97.9133 56.5952 97.9133C61.8688 97.9133 63.0265 94.9292 63.2066 94.6205C63.5924 94.0031 63.4381 92.9226 63.4381 92.9226C63.4381 92.9226 63.1294 94.106 61.7145 94.6719C56.7496 96.6785 52.4277 95.135 52.4277 95.135H52.4535Z" fill="#F2EFE0"/>
</g>
<g style="mix-blend-mode:multiply" opacity="0.48">
<path d="M49.9321 138.688C49.8292 138.816 48.0542 141.337 46.8194 141.595C45.6103 141.826 43.9124 141.106 43.3208 141.003C42.7291 140.9 42.086 141.801 40.4653 140.257C39.4106 139.254 37.8928 139.177 36.9667 139.228C38.5359 129.967 41.1341 115.664 42.9349 106.197L43.0893 105.991C43.0893 105.991 42.1889 119.857 43.0893 122.069C43.9896 124.256 48.6973 130.867 48.6973 132.076C48.6973 133.26 50.035 138.559 49.9064 138.688H49.9321Z" fill="#C9BC7A"/>
</g>
<g style="mix-blend-mode:multiply" opacity="0.48">
<path d="M75.9918 137.273C75.5287 137.942 74.7055 139.048 73.8051 139.64C72.4674 140.514 71.0268 141.003 69.8178 140.797C68.6087 140.592 69.1232 141.981 67.0909 141.878C65.0586 141.775 63.0778 138.739 62.9492 137.582C62.8205 136.424 64.7499 133.672 64.4927 132.54C64.2354 131.408 70.3837 124.462 71.2069 122.07C71.8758 120.166 70.7953 107.972 70.3065 103.033L74.1139 117.722C74.191 118.211 75.1686 128.681 75.9661 137.247L75.9918 137.273Z" fill="#C9BC7A"/>
</g>
<path d="M50.5496 137.607C50.3952 138.456 47.5655 141.749 45.8162 141.157C45.5847 141.08 45.3017 140.952 45.0701 140.823C44.2212 140.36 43.4495 139.614 42.9092 139.074C42.4976 138.636 42.2661 138.353 42.2661 138.353L48.4144 133.646C48.4144 133.646 48.5688 133.852 48.8003 134.186C49.0318 134.546 49.3662 135.035 49.6492 135.524C50.1637 136.373 50.6268 137.222 50.5496 137.607Z" fill="#FFF08C"/>
<g style="mix-blend-mode:multiply" opacity="0.48">
<path d="M49.6493 135.498C49.0833 136.604 46.1507 138.843 45.5075 139.434C45.0702 139.82 44.993 140.36 45.0702 140.798C44.2213 140.335 43.4495 139.589 42.9093 139.048L48.5688 134.109C48.5688 134.109 48.6717 134.109 48.7746 134.161C49.0062 134.521 49.3406 135.01 49.6236 135.498H49.6493Z" fill="#967D00"/>
</g>
<path d="M49.7005 134.495C48.8259 136.913 46.4849 138.637 44.5812 139.563C43.3979 140.129 42.3946 140.36 42.0087 140.257C40.9797 139.949 31.1785 128.347 31.1785 125.337C31.1785 124.591 31.3843 123.484 31.7187 122.095C32.7734 117.954 35.1916 111.497 37.5326 105.348C40.6453 97.1677 44.8899 96.5503 44.8899 96.5503C44.8899 96.5503 43.5522 102.801 42.6519 108.924C41.4685 117.027 40.9026 119.317 40.954 121.375C41.0055 123.459 50.3694 132.668 49.7005 134.521V134.495Z" fill="#FFED7B"/>
<g style="mix-blend-mode:multiply" opacity="0.48">
<path d="M44.5812 139.563C43.3979 140.129 42.3946 140.36 42.0087 140.257C40.9797 139.948 31.1785 128.346 31.1785 125.337C31.1785 124.591 31.3843 123.484 31.7187 122.095C31.7187 122.095 31.2042 124.539 32.1817 126.623C33.1336 128.707 40.1051 139.717 44.5812 139.563Z" fill="#967D00"/>
</g>
<path d="M62.975 137.607C63.1294 138.456 65.9591 141.749 67.7084 141.157C67.94 141.08 68.2229 140.952 68.4545 140.823C69.3034 140.36 70.0751 139.614 70.6154 139.074C71.027 138.636 71.2585 138.353 71.2585 138.353L65.1102 133.646C65.1102 133.646 64.9558 133.852 64.7243 134.186C64.4928 134.546 64.1584 135.035 63.8754 135.524C63.3609 136.373 62.8978 137.222 62.975 137.607Z" fill="#FFF08C"/>
<g style="mix-blend-mode:multiply" opacity="0.48">
<path d="M63.8752 135.498C64.4412 136.604 67.3739 138.842 68.017 139.434C68.4543 139.82 68.5315 140.36 68.4543 140.797C69.3032 140.334 70.075 139.588 70.6152 139.048L64.9557 134.109C64.9557 134.109 64.8528 134.109 64.7499 134.16C64.5184 134.52 64.1839 135.009 63.901 135.498H63.8752Z" fill="#967D00"/>
</g>
<path d="M82.3717 125.311C82.3717 127.189 78.5387 132.437 75.4259 136.167C75.4002 136.218 75.3745 136.27 75.323 136.295C75.04 136.604 74.7828 136.938 74.5255 137.221C73.9339 137.916 73.3936 138.508 72.9306 138.996C72.802 139.099 72.6991 139.228 72.5962 139.331C72.3904 139.537 72.2103 139.717 72.0559 139.845C71.9016 139.974 71.773 140.077 71.6701 140.154C71.6186 140.18 71.5672 140.206 71.5414 140.206C71.1556 140.334 70.1265 140.077 68.9689 139.511C67.0653 138.585 64.7243 136.861 63.8496 134.443C63.2065 132.591 72.5447 123.381 72.5962 121.298C72.6476 119.214 72.0817 116.95 70.8983 108.847C70.0236 102.724 68.6602 96.4729 68.6602 96.4729C68.6602 96.4729 69.0975 96.5244 69.7664 96.8845C69.7664 96.8845 69.7664 96.9102 69.7921 96.9102C71.2585 97.682 73.8824 99.74 75.9919 105.271C78.3329 111.419 80.751 117.902 81.8057 122.018C82.1659 123.381 82.346 124.513 82.346 125.259L82.3717 125.311Z" fill="#FFED7B"/>
<g style="mix-blend-mode:soft-light">
<path d="M82.3716 125.311C82.3716 127.189 78.5386 132.437 75.4259 136.167C75.4001 136.218 75.3744 136.27 75.323 136.295C75.04 136.604 74.7827 136.938 74.5255 137.221C73.9338 137.916 73.3936 138.508 72.9305 138.996C72.8019 139.099 72.699 139.228 72.5961 139.331C72.3903 139.537 72.2102 139.717 72.0559 139.845C71.9015 139.974 71.7729 140.077 71.67 140.154C71.6186 140.18 71.5671 140.206 71.5414 140.206C71.1555 140.334 70.1265 140.077 68.9689 139.511C69.6892 139.537 70.924 139.794 71.7472 139.228C74.3197 137.427 81.3169 127.292 81.6513 125.414C81.96 123.639 77.7669 110.982 74.7827 103.522C73.265 99.7143 70.178 97.2446 69.8178 96.9617C71.2841 97.7334 73.9081 99.7914 76.0175 105.322C78.3585 111.471 80.7767 117.953 81.8314 122.069C82.1916 123.433 82.3716 124.565 82.3716 125.311Z" fill="#F2EFE0"/>
</g>
<path d="M65.0585 96.5244C64.5955 96.9102 60.4538 101.284 55.6174 99.3541C43.5524 94.5693 43.4495 111.625 43.4495 115.381C43.4495 122.815 46.9995 125.825 50.5753 130.559C54.1511 135.292 63.1292 130.301 64.8785 129.144C66.6278 127.986 71.1811 120.783 70.6152 117.928C70.0492 115.072 69.9206 109.052 68.9945 105.528C68.0684 102.004 68.2742 93.8747 65.0843 96.5244H65.0585Z" fill="#FFED7B"/>
<g style="mix-blend-mode:multiply" opacity="0.48">
<path d="M76.8149 146.894C76.3776 147.074 75.7859 147.254 75.0656 147.434C73.1876 147.897 66.8593 149.929 56.2605 150.444C50.5238 150.727 41.9574 149.466 39.1019 148.437C37.5584 147.897 36.4265 147.511 35.7062 147.228C35.7576 146.842 35.8091 146.379 35.8863 145.839C35.8863 145.839 37.8414 149.312 54.8457 149.724C65.5473 149.981 76.146 146.225 76.712 145.582C76.7634 146.071 76.7892 146.508 76.8149 146.868V146.894Z" fill="#967D00"/>
</g>
<g style="mix-blend-mode:soft-light" opacity="0.38">
<path d="M80.3135 82.0155L79.4389 84.305L78.0754 87.9322L77.6124 89.167L51.167 159.705L50.7039 160.914L49.3405 164.542L48.4658 166.857C47.4626 166.702 46.4593 166.548 45.4817 166.342C34.8573 164.13 25.5962 158.265 19.0106 150.136C18.4704 149.467 17.9302 148.772 17.4156 148.052L18.4189 145.299L20.0653 140.823L20.6313 139.254L40.6969 84.6909L41.2628 83.1216L42.9092 78.6455L43.9125 75.8929C45.6361 75.4556 47.4368 75.1469 49.2376 74.9153C51.1413 74.6838 53.0706 74.5552 55.0257 74.5552C63.4121 74.5552 71.284 76.7933 78.1012 80.6777C78.8472 81.1151 79.5675 81.5524 80.2878 82.0155H80.3135Z" fill="#FFFB8C"/>
</g>
<path d="M86.1532 89.8358C84.0952 87.7778 81.8571 85.9513 79.439 84.3306C72.4675 79.6744 64.0811 76.9475 55.0516 76.9475C50.8584 76.9475 46.7938 77.5392 42.935 78.6454C41.2372 79.1341 39.5651 79.7258 37.9444 80.3947C32.6707 82.607 27.9373 85.8484 23.9499 89.8101C16.0009 97.7591 11.0616 108.769 11.0616 120.912C11.0616 129.915 13.7628 138.302 18.419 145.273C20.0397 147.692 21.8919 149.955 23.9499 152.013C30.6384 158.702 39.4879 163.255 49.3406 164.541C51.2185 164.799 53.1222 164.902 55.0516 164.902C67.1938 164.902 78.2042 159.962 86.1532 152.013C94.1023 144.064 99.0415 133.054 99.0415 120.912C99.0415 108.769 94.128 97.7591 86.1532 89.8101V89.8358ZM94.8226 127.06C94.7711 127.394 94.7197 127.729 94.6682 128.063C94.5396 128.732 94.411 129.375 94.2566 130.018C94.1794 130.353 94.1023 130.662 94.0251 130.996C93.7936 131.948 93.5106 132.9 93.1762 133.851C92.7646 135.086 92.2758 136.321 91.7355 137.504C91.5555 137.89 91.3754 138.302 91.1696 138.688C90.7837 139.459 90.3721 140.231 89.9605 140.977C89.6518 141.543 89.2917 142.083 88.9572 142.624C88.5971 143.164 88.2369 143.704 87.8768 144.244C87.5166 144.759 87.1308 145.273 86.7192 145.788C86.3333 146.302 85.9217 146.791 85.5101 147.28C84.867 148 84.2238 148.721 83.555 149.389C82.8604 150.084 82.1658 150.727 81.4455 151.37C80.3393 152.322 79.1817 153.222 77.9984 154.046C76.5577 155.049 75.0657 155.949 73.4707 156.747C73.2135 156.875 72.9305 157.004 72.6733 157.158C67.3739 159.731 61.4314 161.171 55.1287 161.171C53.6624 161.171 52.1961 161.094 50.7812 160.94C46.0735 160.425 41.6231 159.113 37.5585 157.133C37.0954 156.901 36.6581 156.695 36.2208 156.438C35.7835 156.207 35.3461 155.949 34.9088 155.718C34.4715 155.461 34.0599 155.203 33.6226 154.946C31.9247 153.866 30.3297 152.682 28.812 151.37C28.0917 150.727 27.3714 150.084 26.7025 149.389C26.3681 149.055 26.0337 148.695 25.6992 148.36C25.3648 148 25.0561 147.64 24.7217 147.28C24.3101 146.791 23.8985 146.302 23.5126 145.788C23.1267 145.273 22.7408 144.759 22.355 144.244C21.9691 143.704 21.6089 143.19 21.2745 142.624C20.9401 142.083 20.5799 141.517 20.2712 140.977C20.2455 140.926 20.2198 140.874 20.1941 140.823C19.7825 140.103 19.4223 139.408 19.0622 138.662C18.8564 138.276 18.6763 137.89 18.4962 137.479C17.956 136.295 17.4672 135.061 17.0556 133.826C15.6922 129.787 14.9461 125.439 14.9461 120.937C14.9461 116.436 15.6922 112.088 17.0556 108.049C17.4672 106.814 17.956 105.58 18.4962 104.396C18.6763 104.01 18.8564 103.599 19.0622 103.213C19.448 102.441 19.8596 101.669 20.2712 100.923C20.5799 100.357 20.9401 99.8171 21.2745 99.2769C21.6347 98.7367 21.9948 98.1964 22.355 97.6562C22.7151 97.1417 23.101 96.6272 23.5126 96.1127C23.8985 95.5982 24.3101 95.1094 24.7217 94.6207C25.0304 94.2605 25.3648 93.9003 25.6992 93.5402C26.0337 93.18 26.3681 92.8456 26.7025 92.5112C27.3971 91.8166 28.0917 91.1735 28.812 90.5304C30.87 88.7553 33.1338 87.1604 35.5262 85.8227C36.3237 85.3853 37.1469 84.948 37.9701 84.5621C38.2531 84.4335 38.536 84.3049 38.819 84.1763C39.385 83.919 39.9509 83.6875 40.5169 83.456C40.7999 83.3531 41.0828 83.2244 41.3915 83.1215C41.7517 82.9929 42.1118 82.8643 42.472 82.7357C46.4594 81.3979 50.7297 80.7034 55.1545 80.7034C63.7209 80.7034 71.6443 83.3788 78.1784 87.9321C79.0274 88.5238 79.8763 89.1669 80.6738 89.8358C80.931 90.0673 81.214 90.2731 81.4712 90.5046C82.1915 91.1478 82.9118 91.7909 83.5807 92.4855C84.2753 93.18 84.9184 93.8746 85.5358 94.5949C85.9474 95.0837 86.359 95.5725 86.7449 96.087C87.1308 96.6015 87.5166 97.116 87.9025 97.6305C88.2884 98.1707 88.6485 98.6852 88.983 99.2512C89.3174 99.7914 89.6775 100.357 89.9862 100.898C90.4236 101.644 90.8094 102.415 91.1953 103.187C91.4011 103.573 91.5812 103.959 91.7613 104.37C92.3015 105.554 92.7903 106.789 93.2019 108.023C93.5106 108.95 93.7936 109.901 94.0508 110.879C94.128 111.213 94.2052 111.522 94.2823 111.856C94.4367 112.5 94.5653 113.168 94.6939 113.812C94.7454 114.146 94.7968 114.48 94.8483 114.815C94.9512 115.484 95.0284 116.153 95.1055 116.821C95.2342 118.185 95.3113 119.548 95.3113 120.937C95.3113 122.327 95.2342 123.69 95.1055 125.053C95.0284 125.722 94.9512 126.391 94.8483 127.06H94.8226Z" fill="#FAE543"/>
<g style="mix-blend-mode:multiply">
<path d="M95.0798 116.821C95.0026 116.152 94.9254 115.483 94.8225 114.815C94.7711 114.48 94.7196 114.146 94.6682 113.811C94.5396 113.142 94.4109 112.499 94.2566 111.856C94.1794 111.522 94.1022 111.213 94.025 110.879C93.7678 109.927 93.4848 108.975 93.1761 108.023C92.7388 106.788 92.2757 105.554 91.7355 104.37C91.5554 103.984 91.3754 103.573 91.1696 103.187C90.7837 102.415 90.3721 101.643 89.9605 100.897C89.6518 100.331 89.2916 99.7911 88.9572 99.2509C88.5971 98.7107 88.2369 98.1705 87.8768 97.6302C87.5166 97.1157 87.1307 96.6012 86.7191 96.0867C86.3333 95.5722 85.9216 95.0835 85.51 94.5947C84.8669 93.8744 84.2238 93.1541 83.5292 92.4852C82.8346 91.7906 82.1401 91.1475 81.4198 90.5044C81.1625 90.2729 80.9053 90.0413 80.6223 89.8355C79.8248 89.1667 78.9759 88.5493 78.1269 87.9319C71.6185 83.3785 63.6694 80.7031 55.103 80.7031C50.6783 80.7031 46.4079 81.4234 42.4205 82.7354C42.0604 82.864 41.7002 82.9669 41.3401 83.0956C41.0571 83.1985 40.7741 83.3271 40.4654 83.43C39.8994 83.6615 39.3078 83.893 38.7675 84.1503C38.4846 84.2789 38.2016 84.4075 37.9186 84.5362C37.0954 84.922 36.2722 85.3594 35.4747 85.7967C33.0823 87.1344 30.8442 88.7294 28.7605 90.5044C28.0402 91.1475 27.3199 91.7906 26.651 92.4852C26.3166 92.8196 25.9822 93.1798 25.6477 93.5142C25.3133 93.8744 25.0046 94.2345 24.6702 94.5947C24.2586 95.0835 23.847 95.5722 23.4611 96.0867C23.0752 96.6012 22.6894 97.1157 22.3035 97.6302C21.9176 98.1705 21.5575 98.685 21.223 99.2509C20.8886 99.7911 20.5285 100.357 20.2197 100.897C19.7824 101.643 19.3965 102.415 19.0107 103.187C18.8049 103.573 18.6248 103.959 18.4447 104.37C17.9045 105.554 17.4414 106.788 17.0041 108.023C15.6407 112.062 14.8947 116.41 14.8947 120.911C14.8947 125.413 15.6407 129.761 17.0041 133.8C17.4414 135.035 17.9045 136.269 18.4447 137.453C18.6248 137.839 18.8049 138.25 19.0107 138.636C19.3708 139.356 19.7567 140.077 20.1426 140.771C20.1426 140.771 20.194 140.874 20.2197 140.926C20.5285 141.492 20.8886 142.032 21.223 142.572C21.5832 143.112 21.9433 143.652 22.3035 144.193C22.6636 144.707 23.0495 145.222 23.4611 145.736C23.847 146.251 24.2586 146.739 24.6702 147.228C24.9789 147.588 25.3133 147.949 25.6477 148.309C25.9822 148.669 26.3166 149.003 26.651 149.338C27.3456 150.032 28.0402 150.675 28.7605 151.319C30.2783 152.63 31.8732 153.814 33.5711 154.894C34.0084 155.152 34.42 155.435 34.8573 155.666C35.2947 155.923 35.732 156.155 36.1693 156.386C36.6066 156.618 37.0697 156.849 37.507 157.081C41.5716 159.062 46.0477 160.374 50.7297 160.888C52.1703 161.043 53.6109 161.12 55.0773 161.12C61.3542 161.12 67.3224 159.679 72.6218 157.107C72.879 156.978 73.162 156.849 73.4193 156.695C74.9885 155.898 76.5063 154.997 77.9469 153.994C79.1559 153.171 80.3136 152.27 81.394 151.319C82.1143 150.675 82.8346 150.032 83.5035 149.338C84.1981 148.643 84.8412 147.949 85.4843 147.228C85.8959 146.739 86.3075 146.251 86.6934 145.736C87.0793 145.222 87.4652 144.707 87.851 144.193C88.2369 143.652 88.5971 143.138 88.9315 142.572C89.2659 142.032 89.6261 141.466 89.9348 140.926C90.3721 140.18 90.758 139.408 91.1438 138.636C91.3496 138.25 91.5297 137.864 91.7098 137.453C92.25 136.269 92.7131 135.035 93.1504 133.8C93.4591 132.874 93.7421 131.922 93.9993 130.944C94.0765 130.61 94.1537 130.301 94.2309 129.967C94.3852 129.324 94.5138 128.655 94.6425 128.012C94.6939 127.677 94.7454 127.343 94.7968 127.008C94.8997 126.339 94.9769 125.671 95.0541 125.002C95.1827 123.638 95.2599 122.275 95.2599 120.886C95.2599 119.497 95.1827 118.133 95.0541 116.77L95.0798 116.821ZM82.6288 148.489C75.5802 155.537 65.8303 159.911 55.0773 159.911C53.7653 159.911 52.4533 159.859 51.1928 159.705C41.9832 158.779 33.7254 154.663 27.5257 148.489C24.8245 145.788 22.5093 142.675 20.6828 139.253C17.7759 133.8 16.1037 127.549 16.1037 120.937C16.1037 110.184 20.4513 100.434 27.5257 93.3856C31.2558 89.6555 35.732 86.6714 40.7484 84.6905C45.1988 82.9155 50.0351 81.9637 55.103 81.9637C63.5151 81.9637 71.2841 84.6133 77.6639 89.1667C79.4389 90.4272 81.1111 91.8421 82.6546 93.3856C89.7032 100.434 94.0765 110.184 94.0765 120.937C94.0765 131.69 89.729 141.44 82.6546 148.489H82.6288Z" fill="#F6F39E"/>
</g>
<g style="mix-blend-mode:multiply">
<path d="M98.6813 105.065L78.0755 161.223C72.3903 164.464 65.9333 166.548 59.0389 167.14L88.8286 89.1411C93.1247 93.6945 96.4947 99.0967 98.6813 105.065Z" fill="#F6F39E"/>
</g>
<path d="M108.997 0.106934H88.7257L44.8644 73.372H65.11L108.997 0.106934Z" fill="#EB00B4"/>
</svg>
