<svg width="40" height="40" viewBox="0 0 40 40" fill="none" xmlns="http://www.w3.org/2000/svg">
<path d="M5.77721 4.74267C11.4747 -1.56357 24.4536 0.23827 24.4536 0.23827C26.6732 0.23828 35.5368 1.13914 38.0654 10.1479C40.594 19.1567 40.3468 23.6279 39.0151 29.0663C37.6833 34.5047 34.9297 36.6261 33.6337 37.4744C30.9702 39.2177 17.1729 40.7776 12.7412 39.5764C8.30955 38.3753 3.2446 36.0734 1.0287 27.2645C-1.18721 18.4555 0.0797013 11.0489 5.77721 4.74267Z" fill="#00ABC6"/>
<path d="M22.3281 11.1307C22.3281 12.419 21.2837 13.4635 19.9953 13.4635C18.7069 13.4635 17.6625 12.419 17.6625 11.1307C17.6625 9.84229 18.7069 8.79785 19.9953 8.79785C21.2837 8.79785 22.3281 9.84229 22.3281 11.1307Z" fill="white"/>
<path d="M22.3281 19.9954C22.3281 21.2837 21.2837 22.3282 19.9953 22.3282C18.7069 22.3282 17.6625 21.2837 17.6625 19.9954C17.6625 18.707 18.7069 17.6625 19.9953 17.6625C21.2837 17.6625 22.3281 18.707 22.3281 19.9954Z" fill="white"/>
<path d="M22.3281 28.8601C22.3281 30.1484 21.2837 31.1929 19.9953 31.1929C18.7069 31.1929 17.6625 30.1484 17.6625 28.8601C17.6625 27.5717 18.7069 26.5272 19.9953 26.5272C21.2837 26.5272 22.3281 27.5717 22.3281 28.8601Z" fill="white"/>
</svg>
