<svg width="32" height="76" viewBox="0 0 32 76" fill="none" xmlns="http://www.w3.org/2000/svg">
<path d="M31.391 64.81C31.391 64.81 24.731 71.57 14.361 75.14C13.451 75.45 12.501 75.74 11.531 76C11.531 76 10.571 75.72 9.28104 75.15C8.96104 75.01 8.59104 74.83 8.21104 74.63C5.65104 73.23 2.34104 70.58 2.12104 67.44C2.11104 67.34 2.11104 67.24 2.11104 67.14C2.11104 66.77 2.16104 66.39 2.25104 66C2.35104 65.57 2.43104 65.18 2.49104 64.83C2.71104 63.37 2.56104 62.49 2.33104 61.97C2.27104 61.82 2.20104 61.7 2.13104 61.61C2.11104 61.58 2.09104 61.55 2.07104 61.52C2.05104 61.5 2.03104 61.48 2.02104 61.47C1.88104 61.31 1.76104 61.26 1.76104 61.26L3.03104 59.85L3.52104 59.3C3.91104 59.42 4.29104 59.58 4.37104 59.61H4.38104C4.50104 59.67 4.64104 59.73 4.79104 59.77C5.60104 60.01 6.85104 59.94 8.51104 58.59C9.76104 57.56 10.991 56.74 12.171 56.22C13.931 55.45 15.581 55.36 17.061 56.28C18.171 56.97 20.351 58.87 22.911 60.38C25.041 61.64 27.511 62.49 29.091 63.44C30.471 64.26 31.391 64.81 31.391 64.81Z" fill="#D8D2E8"/>
<path d="M31.381 64.8097C31.381 64.8097 23.491 72.8197 11.521 75.9997C11.521 75.9997 10.561 75.7197 9.27104 75.1397C10.291 74.6797 14.881 73.0597 19.251 70.7297C23.621 68.3997 27.771 65.3697 29.091 63.4297C30.471 64.2597 31.381 64.8097 31.381 64.8097Z" fill="#E3DFED"/>
<g style="mix-blend-mode:multiply">
<path d="M8.06104 71.1898C8.21104 73.6698 13.281 74.8498 14.351 75.1398C13.441 75.4498 12.491 75.7398 11.521 75.9998C11.521 75.9998 10.561 75.7198 9.27104 75.1498C8.95104 75.0098 8.58104 74.8298 8.20104 74.6298C5.64104 73.2298 2.33104 70.5798 2.11104 67.4398C2.10104 67.3398 2.10104 67.2398 2.10104 67.1398C2.10104 66.7698 2.15104 66.3898 2.24104 65.9998C2.34104 65.5698 2.42104 65.1798 2.48104 64.8298C2.70104 63.3698 2.55104 62.4898 2.32104 61.9698C2.26104 61.8198 2.19104 61.6998 2.12104 61.6098C2.10104 61.5798 2.08104 61.5498 2.06104 61.5198C2.04104 61.4998 2.03104 61.4898 2.01104 61.4698C1.87104 61.3098 1.75104 61.2598 1.75104 61.2598L3.02104 59.8498L3.51104 59.2998C3.90104 59.4198 4.28104 59.5798 4.36104 59.6098H4.37104C4.49104 59.6698 4.63104 59.7298 4.78104 59.7698C5.01104 60.4998 4.15104 62.9598 3.99104 64.0798C3.33104 68.7198 4.94104 70.1498 6.40104 69.5898C8.76104 68.6898 14.131 64.4698 16.451 62.5898C16.501 62.5598 16.551 62.6198 16.511 62.6598C14.061 64.9598 8.01104 70.4898 8.06104 71.1898Z" fill="#E7E4F2"/>
</g>
<g style="mix-blend-mode:screen" opacity="0.14">
<path d="M31.381 64.8097C29.971 65.0197 21.241 60.6397 20.351 60.4697C19.461 60.2997 17.831 61.5997 17.831 61.5997C17.831 61.5997 18.821 60.4497 17.931 58.8997C16.231 55.9197 12.281 56.2197 12.171 56.2297C13.931 55.4597 15.591 55.3597 17.061 56.2897C18.161 56.9797 20.351 58.8797 22.911 60.3897C25.041 61.6497 27.501 62.4897 29.091 63.4497C30.471 64.2797 31.381 64.8297 31.381 64.8297V64.8097Z" fill="#D6CAFF"/>
</g>
<path d="M30.751 1.84044L2.51104 61.4304L2.34104 61.7804C2.34104 61.7804 1.77104 62.3204 0.911037 61.9104C0.171037 61.5604 -0.078963 60.9404 0.021037 60.6704L7.34104 45.2204L28.421 0.740442C28.691 0.170442 29.321 -0.109558 29.911 0.050442L30.131 0.130442C30.261 0.190442 30.381 0.280442 30.481 0.370442C30.871 0.740442 30.991 1.33044 30.751 1.84044Z" fill="#D9CD73"/>
<g style="mix-blend-mode:multiply">
<path d="M30.481 0.360352C30.371 0.990352 30.091 2.08035 29.371 3.25035C28.251 5.11035 4.21104 56.8804 2.67104 58.3904C1.74104 59.3104 0.981038 59.5304 0.611038 59.7004C0.711038 59.6904 0.821038 59.6804 0.931038 59.6804C1.20104 59.6804 1.50104 59.7203 1.77104 59.8703C2.24104 60.1203 2.58104 60.6203 2.75104 60.9203L30.751 1.84035C30.841 1.66035 30.871 1.47035 30.871 1.29035C30.871 0.950352 30.731 0.610352 30.481 0.370352" fill="#D9D191"/>
</g>
<path d="M0.931036 59.6897C0.811036 59.6897 0.711036 59.6897 0.611036 59.7097C0.401036 59.8097 0.371036 59.9897 0.351036 59.9997C0.371036 59.9997 0.461036 59.9997 0.581036 59.9997C0.851036 59.9997 1.27104 59.9997 1.43104 60.0497C1.82104 60.1597 2.34104 60.6297 2.48104 60.9597C2.52104 61.0397 2.53104 61.1297 2.53104 61.2197C2.53104 61.2897 2.53104 61.3597 2.51104 61.4197L2.75104 60.9197C2.58104 60.6197 2.24104 60.1197 1.77104 59.8697C1.50104 59.7297 1.20104 59.6797 0.931036 59.6797" fill="#A99195"/>
<path d="M2.34104 61.7799C2.34104 61.7799 1.77104 62.3199 0.911037 61.9099C0.171037 61.5599 -0.078963 60.9399 0.021037 60.6699C0.021037 60.6699 0.791037 60.3599 1.44104 60.7399C2.09104 61.1199 2.25104 61.6199 2.35104 61.7799H2.34104Z" fill="#D6C398"/>
<path d="M29.591 0C29.111 0 28.641 0.27 28.421 0.74L7.33104 45.23C7.33104 45.23 8.08104 44.36 9.64104 41.86C11.211 39.36 27.921 1.06 29.911 0.04C29.801 0.01 29.691 0 29.591 0Z" fill="#EBE29D"/>
<path d="M3.63104 58.9395C3.68104 58.9995 3.70104 59.0895 3.66104 59.1595L2.73104 61.1395C2.73104 61.1395 2.66104 61.1795 2.64104 61.1395C2.39104 60.5495 1.92104 60.1595 1.42104 59.9695C1.42104 59.9695 1.41104 59.9695 1.40104 59.9695C1.37104 59.9595 1.33104 59.9495 1.28104 59.9495C0.981039 59.9095 0.491039 59.9595 0.341039 60.0195C0.331039 60.0195 0.321039 60.0195 0.301039 60.0195C0.251039 60.0195 0.211039 59.9595 0.241039 59.9095L0.621039 59.1295L1.05104 58.2595C1.09104 58.1695 1.16104 58.1095 1.25104 58.0695C1.30104 58.0495 1.36104 58.0295 1.42104 58.0095C1.54104 57.9695 1.67104 57.9395 1.81104 57.9295C1.98104 57.9095 2.17104 57.9295 2.37104 57.9795H2.39104C2.85104 58.1195 3.32104 58.5995 3.61104 58.9395H3.63104Z" fill="#D8D2E8"/>
<g style="mix-blend-mode:multiply">
<path d="M3.63104 58.9395C3.68104 58.9995 3.70104 59.0895 3.66104 59.1595L2.73104 61.1395C2.73104 61.1395 2.66104 61.1795 2.64104 61.1395C2.54104 60.9095 2.41104 60.7095 2.26104 60.5395C2.02104 60.2695 1.73104 60.0795 1.42104 59.9695C1.42104 59.9695 1.41104 59.9695 1.40104 59.9695C1.48104 59.9695 1.60104 59.9695 1.69104 59.8795C1.69104 59.8795 2.69104 58.3395 2.49104 58.1095C2.45104 58.0595 2.41104 58.0195 2.38104 57.9795H2.40104C2.74104 58.0795 3.08104 58.3695 3.36104 58.6495C3.46104 58.7495 3.55104 58.8495 3.62104 58.9395H3.63104Z" fill="#ECE9F7"/>
</g>
<path d="M1.83104 57.9199C1.51104 58.1599 0.871039 59.8999 0.641039 59.8499C0.321039 59.7699 1.20104 58.3799 1.44104 58.0099C1.56104 57.9699 1.69104 57.9399 1.83104 57.9299V57.9199Z" fill="#E5DEFF"/>
<g style="mix-blend-mode:multiply">
<path d="M3.63104 58.9404C3.68104 59.0004 3.70104 59.0904 3.66104 59.1604L2.73104 61.1404C2.73104 61.1404 2.66104 61.1804 2.64104 61.1404C2.54104 60.9104 2.41104 60.7104 2.26104 60.5404C2.26104 60.5404 2.34104 60.5804 2.42104 60.4804C2.51104 60.3804 3.48104 59.0704 3.36104 58.6504C3.46104 58.7504 3.55104 58.8504 3.62104 58.9404H3.63104Z" fill="#ECE9F7"/>
</g>
<path d="M4.38104 59.6104L3.06104 60.4504C3.11104 60.2404 3.08104 60.0304 3.03104 59.8404C2.92104 59.4504 2.70104 59.1504 2.70104 59.1504C2.70104 59.1504 2.70104 59.1504 2.71104 59.1504C2.76104 59.1504 2.83104 59.1504 2.90104 59.1504C3.08104 59.1704 3.29104 59.2204 3.51104 59.2904C3.90104 59.4104 4.28104 59.5604 4.36104 59.5904H4.37104L4.38104 59.6104Z" fill="#D8D2E8"/>
<g style="mix-blend-mode:multiply">
<path d="M4.38104 59.6104L3.06104 60.4504C3.11104 60.2404 3.08104 60.0304 3.03104 59.8404C2.92104 59.4504 2.70104 59.1504 2.70104 59.1504C2.70104 59.1504 2.70104 59.1504 2.71104 59.1504C2.74104 59.1504 2.80104 59.1504 2.90104 59.1504C3.08104 59.1704 3.29104 59.2204 3.51104 59.2904C3.90104 59.4104 4.28104 59.5604 4.36104 59.5904H4.37104L4.38104 59.6104Z" fill="#E7E4F2"/>
</g>
</svg>
