<svg width="55" height="37" viewBox="0 0 55 37" fill="none" xmlns="http://www.w3.org/2000/svg">
<path d="M54.978 36.0039L53.3507 36.0539H0L5.51981 28.1139C6.86127 26.1939 7.66394 25.5339 8.2577 24.6339C8.93943 23.6039 10.4568 22.3639 10.9296 22.3639C12.458 22.3639 13.1727 23.7039 14.4812 24.7939C15.097 25.3139 15.9656 25.5539 16.4934 25.5539C16.6803 25.5539 16.9662 25.2339 17.3071 24.6639C17.626 24.1339 18.0218 23.4039 18.4506 22.5139C18.8795 21.6139 19.3633 20.5539 19.8911 19.3939C19.8911 19.3639 19.9131 19.3439 19.9241 19.3139C20.012 19.1139 20.1 18.9239 20.1879 18.7239L20.2099 18.6939C20.2099 18.6939 20.2319 18.6439 20.2539 18.6139C23.2447 11.8439 27.2141 2.2939 29.5452 0.343903C29.6662 0.243903 29.7871 0.163905 29.897 0.103905C29.941 0.0839047 29.974 0.0639093 30.007 0.0539093C30.084 0.0339093 30.1609 0.00390625 30.2269 0.00390625C30.2489 0.00390625 30.2709 0.00390625 30.2819 0.00390625C30.5348 0.00390625 30.8867 0.203904 31.2935 0.563904C31.3485 0.613904 31.4144 0.67391 31.4804 0.73391C31.6673 0.90391 31.8653 1.1139 32.0852 1.3539C33.5586 2.9939 35.6148 6.01391 37.9128 9.61391C39.0564 11.3939 40.2439 13.3139 41.4424 15.2839C42.1571 16.4439 42.8719 17.6239 43.5866 18.8039C44.4992 20.3139 45.4119 21.8139 46.2915 23.2739C46.9402 24.3239 47.5559 25.3439 48.1607 26.3339C48.5346 26.9339 48.8865 27.5139 49.2383 28.0739C49.4362 28.3939 49.6341 28.7139 49.8211 29.0139C49.909 29.1539 49.997 29.3039 50.074 29.4239C50.096 29.4439 50.096 29.4639 50.118 29.4839C50.7007 30.4239 51.2615 31.2939 51.7783 32.0639C52.1851 32.6839 52.5589 33.2439 52.8998 33.7339C53.9114 35.1639 54.6481 36.0139 55 36.0139L54.978 36.0039Z" fill="#91B0CC"/>
<g style="mix-blend-mode:multiply" opacity="0.31">
<path d="M54.978 36.0048L53.3507 36.0548H0L5.51981 28.1148C7.32309 26.4848 9.06038 25.0548 9.45622 25.1048C10.3469 25.2348 11.5674 31.9648 11.8753 31.9648C12.1721 31.9248 12.8978 27.6748 13.0628 27.4148C13.2277 27.1548 14.4812 30.3648 16.1635 30.8248C17.8679 31.2948 19.957 28.3948 21.8043 25.3148C22.2221 24.6248 22.618 23.9248 23.0138 23.2448C24.4542 20.7148 25.6198 18.5548 26.1476 18.6748C27.445 18.9648 29.7321 28.7748 30.8757 29.0048C32.415 29.3148 33.2507 13.6748 33.8335 13.5348C34.3283 13.4048 35.4938 16.8548 37.3631 21.1148C38.0118 22.6148 38.7705 24.2348 39.6062 25.8148C41.6843 29.7548 42.443 26.2848 42.9159 23.8548C43.0148 23.3448 43.1028 22.8748 43.1907 22.5448C43.2787 22.2048 43.3557 21.9848 43.4436 21.9748C43.5646 21.9648 44.9061 22.5148 46.2805 23.5048C46.9292 24.5348 47.545 25.5448 48.1498 26.5048C48.5236 27.0948 48.8755 27.6648 49.2273 28.2048C49.4252 28.5248 49.6231 28.8248 49.81 29.1248C49.81 29.1348 49.92 29.2348 50.063 29.3948C50.085 29.4148 50.085 29.4348 50.1069 29.4548C50.6897 30.3948 51.2505 31.2648 51.7673 32.0348C52.1741 32.6548 52.548 33.2148 52.8889 33.7048C53.9005 35.1348 54.6371 35.9848 54.989 35.9848L54.978 36.0048Z" fill="#91B0CC"/>
</g>
<path d="M37.8909 9.6139C37.8029 9.5339 35.4389 7.33391 34.9221 7.58391C34.3943 7.84391 32.5361 10.7739 32.5361 10.7739C32.5361 10.7739 31.5135 7.8539 30.6448 7.8239C29.7762 7.7939 28.4567 12.5839 28.4567 12.5839C28.4567 12.5839 27.1592 8.5439 26.6644 8.6139C25.224 8.8139 20.4849 18.1239 20.188 18.7039C23.4977 11.2239 28.0169 0.283904 30.194 0.00390366C31.3265 -0.146096 34.3283 4.0439 37.8799 9.6139H37.8909Z" fill="#D0E1F2"/>
</svg>
