<svg width="65" height="76" viewBox="0 0 65 76" fill="none" xmlns="http://www.w3.org/2000/svg">
<path d="M45.6434 63.2148C45.6434 70.2596 43.8412 76 31.7188 76C16.995 76 17.7943 70.2596 17.7943 63.2148C17.7943 56.1699 20.4011 43.2338 24.2577 35.1325C26.414 30.6048 29.0155 27.484 31.7188 27.484C37.8283 27.484 43.0366 44.1447 44.8925 55.6687C45.3913 58.6386 45.6434 61.3067 45.6434 63.2201V63.2148Z" fill="#C5AA77"/>
<path d="M38.4827 53.96C38.4827 47.8315 34.6475 33.7472 29.6377 33.7472C24.6278 33.7472 21.6401 46.9745 21.6455 54.4667C21.6455 59.0698 23.7213 65.3869 29.6377 65.3869C35.554 65.3869 38.4827 58.5577 38.4827 53.9546V53.96Z" fill="#D0B68F"/>
<path d="M44.8925 55.6687C42.5377 48.8718 38.9225 39.8111 35.4199 35.8386C32.7165 32.7662 28.0661 34.6312 24.2577 35.1379C26.414 30.6102 29.0155 27.4894 31.7188 27.4894C37.8283 27.4894 43.0366 44.1501 44.8925 55.674V55.6687Z" fill="#BA9165"/>
<path d="M64.1755 23.1504C64.1755 29.8933 49.8004 35.3319 32.1211 35.3319H31.8208C14.2434 35.2834 0.0667114 29.8448 0.0667114 23.1504C0.0667114 16.4559 14.3936 0 32.1211 0C33.7732 0 35.377 0.150922 36.9271 0.452766C52.3536 2.96993 64.1755 17.0111 64.1755 23.1504Z" fill="#8D491E"/>
<path d="M53.7107 19.6306C53.7107 26.8803 47.451 34.0275 32.1211 35.3319H31.8208C14.2434 35.2834 0.0667114 29.8448 0.0667114 23.1504C0.0667114 16.4559 14.3936 0 32.1211 0C33.7732 0 35.377 0.150922 36.9271 0.452766C46.5928 5.88596 53.7053 14.1921 53.7053 19.6306H53.7107Z" fill="#965A36"/>
<path d="M38.4827 19.7708C38.4827 24.3254 34.6368 28.7345 25.6094 28.7345C16.582 28.7345 11.6956 26.9989 11.0519 20.7356C10.6228 16.5152 16.5659 6.55972 27.7174 6.55972C35.5379 6.55972 38.4827 16.3535 38.4827 19.7708Z" fill="#AC7659"/>
</svg>
