<svg width="78" height="76" viewBox="0 0 78 76" fill="none" xmlns="http://www.w3.org/2000/svg">
<path d="M60.4558 74.112C58.9753 75.0168 57.4536 75.5103 56.1786 75.5103C55.315 75.5103 54.2046 75.3047 52.9296 74.8934C47.7888 73.2895 40.4271 68.8889 40.6739 65.5165C41.0029 61.2805 45.6091 52.6028 52.1071 46.3515C52.6418 45.858 53.1764 45.4056 53.7522 45.1177C59.8389 41.5808 66.3781 49.3126 66.3781 49.3126C66.3781 49.3126 65.9668 51.2456 65.6789 53.9599C65.391 56.8388 65.2676 60.5402 66.0079 63.6658C67.0361 67.9019 63.9105 72.0146 60.4969 74.0709L60.4558 74.112Z" fill="#D0B68F"/>
<path d="M60.4561 74.1118C62.8003 72.3022 64.0341 71.4797 63.8696 65.5163C63.6228 55.6459 64.8155 53.6307 65.638 53.9597C65.3501 56.8386 65.2268 60.54 65.967 63.6656C66.9952 67.9016 63.8696 72.0143 60.4561 74.0706V74.1118Z" fill="#EBCDA1"/>
<g style="mix-blend-mode:multiply" opacity="0.28">
<path d="M52.8885 74.8909C47.7477 73.287 40.386 68.8864 40.6328 65.5141C40.9618 61.278 45.568 52.6003 52.066 46.349C52.6006 45.8555 53.1353 45.4031 53.711 45.1152L63.0057 54.6977C63.0057 54.6977 55.4795 56.1783 52.4361 54.9034C49.3927 53.6285 46.1849 65.7197 51.3668 72.0943C52.3127 73.2459 52.7651 74.1918 52.8885 74.9321V74.8909Z" fill="#563E85"/>
</g>
<path d="M75.5079 53.1359C71.1896 58.7703 60.9491 58.1122 52.6004 51.7376C44.2516 45.363 41.0026 35.5748 45.3209 29.9816C46.637 28.2543 48.5288 27.1027 50.7497 26.5681C55.7671 25.2931 62.4708 26.9793 68.2285 31.421C75.9603 37.3844 79.3327 46.1855 76.2893 51.9432C76.0837 52.3956 75.7958 52.8069 75.5079 53.2182V53.1359Z" fill="#42220E"/>
<path d="M76.2895 51.9036C71.5599 56.263 63.8281 54.4123 56.4664 48.7369C48.529 42.609 45.2389 35.2473 51.6546 34.2603C55.4383 33.6845 58.6873 32.2862 61.2783 28.7904C61.9774 27.8445 64.9797 28.8727 68.2698 31.3814C76.0016 37.3448 79.374 46.1459 76.3306 51.9036H76.2895Z" fill="#663211"/>
<g style="mix-blend-mode:lighten" opacity="0.31">
<path d="M67.9 36.4806C67.6532 38.2079 72.136 42.5673 72.6295 46.351C73.123 50.1346 71.478 53.5481 71.478 53.5481C71.478 53.5481 75.9197 50.916 75.4673 45.7341C75.3439 44.418 74.4391 39.7296 72.136 37.1386C70.6143 35.4113 67.9822 35.8637 67.9 36.5217V36.4806Z" fill="#DEAE90"/>
</g>
<path d="M44.7873 61.8151C44.7873 68.6832 43.0189 74.3176 31.0921 74.3176C16.6155 74.3176 17.3969 68.7244 17.3969 61.8151C17.3969 54.9058 19.9468 42.2799 23.7305 34.3425C25.8279 29.9008 28.4189 26.8574 31.051 26.8574C37.0555 26.8574 42.1552 43.1436 44.0059 54.4123C44.4994 57.3323 44.7462 59.9233 44.7462 61.774L44.7873 61.8151Z" fill="#C5AA77"/>
<path d="M37.754 52.7672C37.754 46.7627 33.9703 33.0264 29.0763 33.0264C24.1822 33.0264 21.2211 45.9401 21.2211 53.3018C21.2211 57.7846 23.2774 63.9948 29.0763 63.9948C34.8751 63.9948 37.754 57.3322 37.754 52.8083V52.7672Z" fill="#D0B68F"/>
<path d="M44.0468 54.4533C41.7437 47.7908 38.1657 38.9485 34.7522 35.0826C32.0789 32.0804 27.5139 33.89 23.7714 34.3835C25.8688 29.9418 28.4598 26.8984 31.0919 26.8984C37.0964 26.8984 42.1961 43.1846 44.0468 54.4533Z" fill="#BA9165"/>
<path d="M62.9649 22.6607C62.9649 29.241 48.8585 34.5874 31.4619 34.5874H31.174C13.9008 34.5463 0 29.241 0 22.6607C0 16.0804 14.0653 0.0410156 31.503 0.0410156C33.107 0.0410156 34.7109 0.205525 36.2326 0.493412C51.3672 2.96101 63.0061 16.6973 63.0061 22.7018L62.9649 22.6607Z" fill="#593812"/>
<path d="M52.6833 19.2071C52.6833 26.2809 46.5143 33.2725 31.4619 34.5474H31.174C13.9008 34.5063 0 29.2009 0 22.6206C0 16.0404 14.0653 0.000976562 31.503 0.000976562C33.107 0.000976562 34.7109 0.165486 36.2326 0.453373C45.7329 5.75871 52.7244 13.9018 52.7244 19.2071H52.6833Z" fill="#754A18"/>
<g style="mix-blend-mode:lighten" opacity="0.19">
<path d="M15.6282 11.5158C5.75775 24.4295 18.7949 31.2154 15.0113 30.5985C5.88113 29.118 -1.06928 25.1287 2.67325 18.0138C4.60621 14.3535 18.2191 -1.069 32.6135 1.72761C40.1397 3.20817 24.5526 -0.164211 15.6282 11.5158Z" fill="#E0B092"/>
</g>
</svg>
