<svg width="78" height="76" viewBox="0 0 78 76" fill="none" xmlns="http://www.w3.org/2000/svg">
<path d="M60.4558 74.112C58.9752 75.0168 57.4535 75.5103 56.1786 75.5103C55.3149 75.5103 54.2045 75.3047 52.9296 74.8934C47.7887 73.2895 40.4271 68.8889 40.6738 65.5165C41.0028 61.2805 45.609 52.6028 52.107 46.3515C52.6417 45.858 53.1763 45.4056 53.7521 45.1177C59.8389 41.5808 66.378 49.3126 66.378 49.3126C66.378 49.3126 65.9667 51.2456 65.6788 53.9599C65.391 56.8388 65.2676 60.5402 66.0079 63.6658C67.036 67.9019 63.9104 72.0146 60.4969 74.0709L60.4558 74.112Z" fill="#D0B68F"/>
<path d="M60.456 74.1118C62.8002 72.3022 64.034 71.4797 63.8695 65.5163C63.6227 55.6459 64.8154 53.6307 65.638 53.9597C65.3501 56.8386 65.2267 60.54 65.967 63.6656C66.9951 67.9016 63.8695 72.0143 60.456 74.0706V74.1118Z" fill="#EBCDA1"/>
<g style="mix-blend-mode:multiply" opacity="0.28">
<path d="M52.8884 74.8909C47.7476 73.287 40.3859 68.8864 40.6327 65.5141C40.9617 61.278 45.5679 52.6003 52.0659 46.349C52.6006 45.8555 53.1352 45.4031 53.711 45.1152L63.0056 54.6977C63.0056 54.6977 55.4794 56.1783 52.436 54.9034C49.3927 53.6285 46.1848 65.7197 51.3668 72.0943C52.3127 73.2459 52.7651 74.1918 52.8884 74.9321V74.8909Z" fill="#563E85"/>
</g>
<path d="M75.5078 53.1359C71.1895 58.7703 60.9489 58.1122 52.6002 51.7376C44.2515 45.363 41.0025 35.5748 45.3208 29.9816C46.6369 28.2543 48.5287 27.1027 50.7495 26.5681C55.767 25.2931 62.4706 26.9793 68.2284 31.421C75.9602 37.3844 79.3326 46.1855 76.2892 51.9432C76.0836 52.3956 75.7957 52.8069 75.5078 53.2182V53.1359Z" fill="#42220E"/>
<path d="M76.2895 51.9036C71.5599 56.263 63.8281 54.4123 56.4664 48.7369C48.529 42.609 45.2389 35.2473 51.6546 34.2603C55.4383 33.6845 58.6873 32.2862 61.2783 28.7904C61.9774 27.8445 64.9797 28.8727 68.2698 31.3814C76.0016 37.3448 79.374 46.1459 76.3306 51.9036H76.2895Z" fill="#663211"/>
<g style="mix-blend-mode:lighten" opacity="0.31">
<path d="M67.9 36.4806C67.6532 38.2079 72.136 42.5673 72.6295 46.351C73.123 50.1346 71.478 53.5481 71.478 53.5481C71.478 53.5481 75.9197 50.916 75.4673 45.7341C75.3439 44.418 74.4391 39.7296 72.136 37.1386C70.6143 35.4113 67.9822 35.8637 67.9 36.5217V36.4806Z" fill="#DEAE90"/>
</g>
<path d="M44.7873 61.8151C44.7873 68.6832 43.0188 74.3176 31.0921 74.3176C16.6155 74.3176 17.3969 68.7244 17.3969 61.8151C17.3969 54.9058 19.9467 42.2799 23.7304 34.3425C25.8279 29.9008 28.4188 26.8574 31.0509 26.8574C37.0554 26.8574 42.1551 43.1436 44.0058 54.4123C44.4994 57.3323 44.7461 59.9233 44.7461 61.774L44.7873 61.8151Z" fill="#C5AA77"/>
<path d="M37.7539 52.7672C37.7539 46.7627 33.9703 33.0264 29.0762 33.0264C24.1821 33.0264 21.221 45.9401 21.221 53.3018C21.221 57.7846 23.2773 63.9948 29.0762 63.9948C34.8751 63.9948 37.7539 57.3322 37.7539 52.8083V52.7672Z" fill="#D0B68F"/>
<path d="M44.0468 54.4533C41.7437 47.7908 38.1657 38.9485 34.7522 35.0826C32.0789 32.0804 27.5139 33.89 23.7714 34.3835C25.8688 29.9418 28.4598 26.8984 31.0919 26.8984C37.0964 26.8984 42.1961 43.1846 44.0468 54.4533Z" fill="#BA9165"/>
<path d="M62.9649 22.6607C62.9649 29.241 48.8585 34.5874 31.4619 34.5874H31.174C13.9008 34.5463 0 29.241 0 22.6607C0 16.0804 14.0653 0.0410156 31.503 0.0410156C33.107 0.0410156 34.7109 0.205525 36.2326 0.493412C51.3672 2.96101 63.0061 16.6973 63.0061 22.7018L62.9649 22.6607Z" fill="#593812"/>
<path d="M52.6833 19.2071C52.6833 26.2809 46.5143 33.2725 31.4619 34.5474H31.174C13.9008 34.5063 0 29.2009 0 22.6206C0 16.0404 14.0653 0.000976562 31.503 0.000976562C33.107 0.000976562 34.7109 0.165486 36.2326 0.453373C45.7329 5.75871 52.7244 13.9018 52.7244 19.2071H52.6833Z" fill="#754A18"/>
<g style="mix-blend-mode:lighten" opacity="0.19">
<path d="M15.6282 11.5158C5.75775 24.4295 18.7949 31.2154 15.0113 30.5985C5.88113 29.118 -1.06928 25.1287 2.67325 18.0138C4.60621 14.3535 18.2191 -1.069 32.6135 1.72761C40.1397 3.20817 24.5526 -0.164211 15.6282 11.5158Z" fill="#E0B092"/>
</g>
</svg>
