<svg width="56" height="60" viewBox="0 0 56 60" fill="none" xmlns="http://www.w3.org/2000/svg">
<path d="M55.152 21.0599C55.0494 21.2336 54.9389 21.3836 54.8126 21.5257C54.7968 21.5493 54.781 21.5651 54.7652 21.5888C54.6863 21.6757 54.6152 21.7546 54.5284 21.8336C54.5047 21.8572 54.4889 21.873 54.4652 21.8888C54.3389 22.0151 54.2047 22.1178 54.0626 22.2204C54.0389 22.2441 54.0152 22.2599 53.9915 22.2757C53.8968 22.3467 53.7942 22.4099 53.6915 22.4651C53.6678 22.4809 53.6363 22.4967 53.6126 22.5125C53.4705 22.5914 53.3205 22.6625 53.1705 22.7336C53.1468 22.7493 53.1152 22.7572 53.0836 22.773C52.9494 22.8362 52.8073 22.8836 52.6573 22.9309C52.6257 22.9388 52.5942 22.9546 52.5705 22.9625C52.4205 23.0099 52.2626 23.0572 52.1047 23.0967C52.0731 23.0967 52.0415 23.1125 52.0099 23.1204C51.8836 23.152 51.7573 23.1836 51.6231 23.2072C51.5915 23.2072 51.5599 23.223 51.5284 23.2309C51.331 23.2704 51.1257 23.302 50.9205 23.3336C50.8889 23.3336 50.8573 23.3414 50.8178 23.3493C50.6836 23.373 50.5494 23.3888 50.4152 23.4046C50.3836 23.4046 50.352 23.4125 50.3126 23.4204C50.1468 23.4441 49.981 23.4599 49.8073 23.4757C49.7757 23.4757 49.7442 23.4757 49.7047 23.4836C49.5547 23.4993 49.4126 23.5072 49.2626 23.523C49.231 23.523 49.1994 23.523 49.1599 23.5309C48.9073 23.5546 48.6547 23.5704 48.3942 23.5941C48.3626 23.5941 48.331 23.5941 48.2994 23.602C48.1731 23.6099 48.0468 23.6257 47.9205 23.6336C47.8889 23.6336 47.8573 23.6336 47.8257 23.6414C47.6757 23.6493 47.5257 23.6651 47.3836 23.6809C47.352 23.6809 47.3205 23.6809 47.2889 23.6888C47.1626 23.7046 47.0363 23.7125 46.902 23.7283C46.8705 23.7283 46.8389 23.7283 46.8152 23.7362C46.6652 23.752 46.5152 23.7757 46.3731 23.7914C46.3415 23.7914 46.3099 23.7993 46.2863 23.8072C46.1678 23.823 46.0494 23.8388 45.9231 23.8625C45.8915 23.8625 45.8599 23.8625 45.8284 23.8783C45.6863 23.902 45.552 23.9257 45.4099 23.9572C45.3784 23.9572 45.3468 23.973 45.3231 23.9809C45.2047 24.0046 45.0863 24.0283 44.9599 24.052C44.9284 24.052 44.9047 24.0599 44.8731 24.0678C44.6836 24.0993 44.4942 24.1309 44.2889 24.1546C44.2573 24.1546 44.2257 24.1546 44.1942 24.1625C44.0363 24.1862 43.8784 24.202 43.7126 24.2099C43.681 24.2099 43.6494 24.2099 43.6257 24.2178C43.4915 24.2257 43.3494 24.2414 43.2073 24.2493C43.1757 24.2493 43.1442 24.2493 43.1205 24.2493C42.9942 24.2572 42.8757 24.2651 42.7494 24.273C42.7178 24.273 42.6863 24.273 42.6626 24.273C42.5126 24.273 42.3626 24.2888 42.2047 24.2967C42.1731 24.2967 42.1415 24.2967 42.1178 24.2967C41.9994 24.2967 41.881 24.2967 41.7626 24.3046C41.731 24.3046 41.6994 24.3046 41.6678 24.3046C41.5415 24.3046 41.4073 24.3046 41.281 24.3046H41.1942C41.0757 24.3046 40.9573 24.3046 40.831 24.3046H40.7442C40.5863 24.3046 40.4284 24.3046 40.2705 24.3046C40.2389 24.3046 40.2073 24.3046 40.1757 24.3046C40.0573 24.3046 39.9389 24.3046 39.8126 24.3046H39.7178C39.5836 24.3046 39.4415 24.3046 39.3152 24.2967C39.2836 24.2967 39.252 24.2967 39.2205 24.2967C39.0942 24.2967 38.9757 24.2967 38.8494 24.2888C38.8178 24.2888 38.7863 24.2888 38.7626 24.2888C38.5652 24.2888 38.3757 24.2809 38.1784 24.273C38.1468 24.273 38.1152 24.273 38.0836 24.273C37.9257 24.273 37.7678 24.2572 37.6178 24.2493C37.5863 24.2493 37.5547 24.2493 37.5231 24.2493C37.3968 24.2493 37.2626 24.2336 37.1363 24.2336C37.1047 24.2336 37.0731 24.2336 37.0494 24.2336C36.931 24.2336 36.8126 24.2257 36.6942 24.2178C36.6626 24.2178 36.631 24.2178 36.6073 24.2178C36.4336 24.2099 36.2599 24.1941 36.0942 24.1862C36.0784 24.1862 36.0705 24.1862 36.0547 24.1862C36.0231 24.1862 35.9915 24.1862 35.9678 24.1862C35.8099 24.1862 35.652 24.1704 35.5099 24.1625C35.4784 24.1625 35.4468 24.1625 35.4231 24.1625C35.2968 24.1546 35.1705 24.1388 35.052 24.1388C35.0205 24.1388 34.9889 24.1388 34.9652 24.1388C34.8389 24.1309 34.7284 24.123 34.6178 24.1151C34.5863 24.1151 34.5626 24.1151 34.531 24.1151C34.3336 24.0993 34.1599 24.0836 34.002 24.0757C33.9705 24.0757 33.9468 24.0757 33.9152 24.0757C33.5442 24.0441 33.331 24.0283 33.331 24.0283C33.331 24.0283 33.4968 23.7914 33.7652 23.4362C33.7889 23.4125 33.8047 23.3809 33.8284 23.3493C33.9389 23.1993 34.0652 23.0336 34.2073 22.8599C34.231 22.8362 34.2468 22.8046 34.2705 22.7809C34.3415 22.6941 34.4205 22.5993 34.4994 22.5046C34.5231 22.4809 34.5389 22.4572 34.5626 22.4257C34.6099 22.3625 34.6652 22.2993 34.7284 22.2362C34.7442 22.2125 34.7678 22.1888 34.7836 22.1651C34.8863 22.0467 34.9889 21.9283 35.0915 21.8178C35.1152 21.7941 35.131 21.7783 35.1547 21.7546C35.2099 21.6914 35.2573 21.6362 35.3205 21.5809C35.3836 21.5178 35.4389 21.4467 35.502 21.3836C35.5257 21.3599 35.5415 21.3441 35.5652 21.3204C35.6363 21.2493 35.7073 21.1783 35.7784 21.1072C35.802 21.0836 35.8178 21.0678 35.8415 21.0441C35.8731 21.0204 35.8968 20.9888 35.9284 20.9572C35.952 20.9336 35.9678 20.9178 35.9915 20.902C36.1968 20.6967 36.4099 20.5151 36.6231 20.3414C36.6468 20.3257 36.6626 20.302 36.6863 20.2862C36.8915 20.1283 37.0889 19.9862 37.2942 19.8599C38.1942 19.323 43.0257 18.9046 47.4626 18.9757C47.9599 18.9757 48.4494 18.9993 48.9231 19.0151C49.2231 19.0309 49.5231 19.0467 49.8152 19.0625C49.8784 19.0625 49.9415 19.0625 50.0047 19.0704C50.2415 19.0862 50.4705 19.1099 50.6994 19.1257C50.7626 19.1257 50.8336 19.1336 50.9047 19.1414C53.7942 19.4178 55.8073 20.0178 55.1284 21.1072L55.152 21.0599Z" fill="#D9D99A"/>
<path d="M54.5284 21.8407C54.5284 21.8407 54.4889 21.8802 54.4652 21.8959C54.0231 21.5328 53.3836 21.1065 52.7047 20.6881C51.7099 20.0723 50.6362 19.4565 49.9257 19.0696C49.8941 19.0459 49.8626 19.0302 49.831 19.0144C49.4205 18.7854 49.152 18.6512 49.152 18.6512L49.1915 18.5723C49.1915 18.5723 49.5152 18.7459 50.0205 19.0223C50.4862 19.2749 51.102 19.6223 51.7415 20.0012C52.7678 20.6012 53.8573 21.2881 54.5284 21.8328V21.8407Z" fill="#A3986C"/>
<path d="M54.8126 21.5335C54.8126 21.5335 54.781 21.573 54.7652 21.5967C54.331 21.2651 53.7626 20.8862 53.1626 20.5072C52.3178 19.9783 51.4099 19.4651 50.7231 19.0862C50.6047 19.0151 50.4862 18.952 50.3836 18.8967C49.9178 18.6362 49.6099 18.4783 49.6099 18.4783L49.6494 18.4072C49.6494 18.4072 50.1783 18.6835 50.9283 19.1099C51.3073 19.323 51.7494 19.5756 52.1994 19.8362C53.1389 20.3888 54.1415 21.0125 54.8126 21.5414V21.5335Z" fill="#A3986C"/>
<path d="M54.0626 22.2275C54.0626 22.2275 54.0153 22.2669 53.9916 22.2827C53.5495 21.9354 52.9653 21.5406 52.3416 21.1538C51.3468 20.538 50.2653 19.9222 49.5626 19.5354C49.0889 19.2827 48.7889 19.1169 48.7889 19.1169L48.8284 19.0459C48.8284 19.0459 50.0442 19.6854 51.3784 20.4748C52.3574 21.0512 53.3916 21.6985 54.0626 22.2354V22.2275Z" fill="#A3986C"/>
<path d="M53.6915 22.4726C53.6915 22.4726 53.6362 22.5042 53.6125 22.52C53.1783 22.1726 52.5862 21.7779 51.9625 21.391C50.9678 20.7752 49.8941 20.1594 49.1836 19.7805C48.7178 19.52 48.4099 19.3621 48.4099 19.3621L48.4494 19.291C48.4494 19.291 49.6652 19.9305 50.9994 20.72C51.9783 21.2963 53.0125 21.9436 53.6915 22.4805V22.4726Z" fill="#A3986C"/>
<path d="M53.1626 22.7412C53.1626 22.7412 53.1073 22.7649 53.0758 22.7806C52.6731 22.4254 52.1442 22.0306 51.5758 21.6359C50.6284 20.9649 49.5942 20.3096 48.9231 19.8912C48.4731 19.6149 48.181 19.4412 48.181 19.4412L48.2205 19.3701C48.2205 19.3701 49.3889 20.0727 50.6679 20.9175C51.5679 21.5175 52.5231 22.1885 53.1626 22.7491V22.7412Z" fill="#A3986C"/>
<path d="M52.6573 22.9384C52.6573 22.9384 52.5941 22.9621 52.5705 22.97C52.1441 22.5752 51.5205 22.1094 50.8573 21.6436C49.902 20.9805 48.8678 20.3252 48.1889 19.9068C47.7389 19.6305 47.4468 19.4568 47.4468 19.4568L47.4863 19.3857C47.4863 19.3857 48.6547 20.0805 49.9415 20.9252C50.9599 21.5884 52.0336 22.3463 52.6652 22.9384H52.6573Z" fill="#A3986C"/>
<path d="M51.6231 23.2146C51.6231 23.2146 51.56 23.2304 51.5284 23.2383C51.1337 22.8593 50.6047 22.4251 50.0442 21.983C49.1284 21.2804 48.1337 20.5856 47.4863 20.1356C47.0521 19.8356 46.7679 19.6541 46.7679 19.6541L46.8153 19.583C46.8153 19.583 47.9442 20.3251 49.1679 21.2172C50.0679 21.8725 51.0152 22.6067 51.6231 23.2067V23.2146Z" fill="#A3986C"/>
<path d="M52.1047 23.1043C52.1047 23.1043 52.0415 23.1201 52.01 23.128C51.6152 22.7491 51.0784 22.2991 50.51 21.8648C49.5942 21.1622 48.5994 20.4675 47.9521 20.0175C47.5179 19.7175 47.2336 19.5359 47.2336 19.5359L47.2731 19.4648C47.2731 19.4648 48.4021 20.2069 49.6257 21.0991C50.5336 21.7622 51.4968 22.4964 52.0968 23.0964L52.1047 23.1043Z" fill="#A3986C"/>
<path d="M50.9205 23.3412C50.9205 23.3412 50.8573 23.3491 50.8178 23.357C50.5099 23.0412 50.1468 22.6938 49.7757 22.3465C48.9389 21.5807 48.0152 20.8228 47.4073 20.3333C47.0362 20.0333 46.7836 19.8359 46.7441 19.8044L46.7915 19.7412C46.7915 19.7412 47.8415 20.5544 48.9783 21.5254C49.6652 22.1175 50.3836 22.7649 50.9205 23.3333V23.3412Z" fill="#A3986C"/>
<path d="M50.4152 23.4046C50.4152 23.4046 50.3521 23.4125 50.3126 23.4204C50.0284 23.1283 49.6968 22.8125 49.3495 22.5046C48.5126 21.7467 47.5889 20.9809 46.981 20.4993C46.5784 20.1756 46.3179 19.9704 46.3179 19.9704L46.3731 19.9072C46.3731 19.9072 47.4231 20.7204 48.56 21.6914C49.2073 22.252 49.8863 22.8599 50.4152 23.4125V23.4046Z" fill="#A3986C"/>
<path d="M49.8073 23.4755C49.8073 23.4755 49.7442 23.4755 49.7047 23.4834C49.4679 23.215 49.2073 22.9386 48.931 22.6544C48.1494 21.8571 47.2731 21.0518 46.7047 20.5386C46.3258 20.1992 46.081 19.986 46.0731 19.986L46.1284 19.9229C46.1284 19.9229 47.1152 20.7834 48.1889 21.8097C48.7573 22.3544 49.3336 22.9386 49.8073 23.4755Z" fill="#A3986C"/>
<path d="M49.2705 23.5221C49.2705 23.5221 49.2073 23.5221 49.1678 23.53C48.8915 23.2142 48.5599 22.8669 48.2205 22.5195C47.431 21.7221 46.5547 20.9248 45.9863 20.4195C45.6073 20.08 45.3547 19.8669 45.3547 19.8669L45.4099 19.8037C45.4099 19.8037 46.4047 20.6563 47.4784 21.6827C48.1099 22.2827 48.7731 22.9458 49.2705 23.53V23.5221Z" fill="#A3986C"/>
<path d="M48.402 23.5944C48.402 23.5944 48.3389 23.5944 48.3073 23.6023C48.102 23.3181 47.8652 23.0102 47.6283 22.7102C46.9415 21.8576 46.1757 20.9891 45.6626 20.4365C45.3231 20.0655 45.1099 19.8365 45.1099 19.8365L45.1731 19.7812C45.1731 19.7812 46.0573 20.7049 46.9968 21.8102C47.4941 22.3944 48.0073 23.0181 48.4099 23.5944H48.402Z" fill="#A3986C"/>
<path d="M47.9363 23.6409C47.9363 23.6409 47.8731 23.6409 47.8415 23.6488C47.6442 23.3725 47.4231 23.0882 47.1942 22.7961C46.5073 21.9435 45.7336 21.0751 45.2284 20.5225C44.8889 20.1514 44.6757 19.9225 44.6678 19.9225L44.731 19.8672C44.731 19.8672 45.6152 20.7909 46.5547 21.8961C47.0363 22.4646 47.5336 23.0803 47.9363 23.633V23.6409Z" fill="#A3986C"/>
<path d="M47.3915 23.6885C47.3915 23.6885 47.3284 23.6885 47.2968 23.6964C47.131 23.428 46.9415 23.1516 46.7442 22.8753C46.1126 21.9911 45.4099 21.099 44.9363 20.5227C44.6205 20.1438 44.4231 19.9069 44.4231 19.899L44.4863 19.8438C44.4863 19.8438 45.3073 20.8069 46.1678 21.9438C46.5941 22.5122 47.0363 23.1201 47.3915 23.6806V23.6885Z" fill="#A3986C"/>
<path d="M46.9178 23.7433C46.9178 23.7433 46.8547 23.7433 46.831 23.7512C46.6178 23.3959 46.3494 23.0091 46.0731 22.6222C45.4415 21.738 44.731 20.8459 44.2573 20.2775C43.9415 19.8986 43.7363 19.6617 43.7363 19.6617L43.7994 19.6064C43.7994 19.6064 44.6205 20.5617 45.4968 21.6986C46.01 22.3696 46.5389 23.1038 46.9257 23.7433H46.9178Z" fill="#A3986C"/>
<path d="M46.381 23.807C46.381 23.807 46.3179 23.8149 46.2942 23.8228C46.0889 23.5464 45.8679 23.2464 45.631 22.9543C44.9442 22.1017 44.1705 21.2333 43.6652 20.6807C43.3258 20.3175 43.1126 20.0807 43.1126 20.0807L43.1758 20.0254C43.1758 20.0254 44.06 20.9491 44.9995 22.0543C45.4889 22.6307 45.9863 23.2464 46.3889 23.807H46.381Z" fill="#A3986C"/>
<path d="M45.931 23.8859C45.931 23.8859 45.8679 23.8859 45.8363 23.9017C45.6389 23.6254 45.41 23.3412 45.181 23.0491C44.4942 22.1964 43.7284 21.328 43.2231 20.7754C42.8836 20.4122 42.6626 20.1754 42.6626 20.1754L42.7258 20.1201C42.7258 20.1201 43.61 21.0438 44.5494 22.1491C45.031 22.7175 45.5284 23.3254 45.931 23.8859Z" fill="#A3986C"/>
<path d="M45.4178 23.972C45.4178 23.972 45.3546 23.9878 45.331 23.9957C45.1573 23.7194 44.952 23.4194 44.7468 23.1273C44.1231 22.2431 43.4125 21.351 42.9468 20.7746C42.631 20.3957 42.4336 20.151 42.4336 20.151L42.4968 20.0957C42.4968 20.0957 43.3178 21.051 44.1783 22.1957C44.6204 22.772 45.0704 23.4036 45.4336 23.972H45.4178Z" fill="#A3986C"/>
<path d="M44.96 24.0674C44.96 24.0674 44.9047 24.0752 44.8731 24.0831C44.6442 23.7042 44.36 23.2858 44.0679 22.8674C43.4363 21.9831 42.7179 21.0989 42.2521 20.5226C41.9363 20.1437 41.731 19.9068 41.731 19.9068L41.7942 19.8516C41.7942 19.8516 42.6152 20.8068 43.4837 21.9437C44.0205 22.6463 44.5731 23.4042 44.96 24.0674Z" fill="#A3986C"/>
<path d="M44.2889 24.1624C44.2889 24.1624 44.2258 24.1624 44.1942 24.1703C44.0442 23.9176 43.8784 23.6413 43.7047 23.3808C43.1284 22.4808 42.4652 21.565 42.0231 20.9808C41.731 20.5939 41.5416 20.3413 41.5416 20.3413L41.6047 20.2939C41.6047 20.2939 42.3705 21.2729 43.1758 22.4413C43.5626 23.0097 43.9574 23.6097 44.281 24.1624H44.2889Z" fill="#A3986C"/>
<path d="M43.7205 24.2261C43.7205 24.2261 43.6573 24.2261 43.6336 24.234C43.4836 23.9735 43.3099 23.6971 43.1283 23.4208C42.552 22.5208 41.8889 21.605 41.4547 21.0208C41.1626 20.634 40.9731 20.3814 40.9731 20.3814L41.0362 20.334C41.0362 20.334 41.802 21.3129 42.6073 22.4814C42.9941 23.0498 43.3968 23.6656 43.7283 24.2261H43.7205Z" fill="#A3986C"/>
<path d="M43.2073 24.2652C43.2073 24.2652 43.1442 24.2652 43.1205 24.2652C42.5442 23.1204 41.6837 21.7625 41.1705 20.981C40.91 20.5783 40.7363 20.3257 40.7284 20.3257L40.7994 20.2783C40.7994 20.2783 41.5021 21.2888 42.2205 22.481C42.5758 23.0573 42.9231 23.681 43.2152 24.2494L43.2073 24.2652Z" fill="#A3986C"/>
<path d="M42.7494 24.2961C42.7494 24.2961 42.6863 24.2961 42.6626 24.2961C42.0863 23.0882 41.0915 21.5251 40.5152 20.6645C40.2468 20.2619 40.0731 20.0093 40.0731 20.0093L40.1442 19.9619C40.1442 19.9619 40.8468 20.9724 41.5731 22.1645C42.0073 22.8672 42.4415 23.633 42.7573 24.2961H42.7494Z" fill="#A3986C"/>
<path d="M42.2047 24.3201C42.2047 24.3201 42.1415 24.3201 42.1178 24.3201C41.5573 23.2543 40.8231 22.0937 40.3573 21.3911C40.0968 20.9885 39.9231 20.7358 39.9231 20.7358L39.9941 20.6885C39.9941 20.6885 40.6889 21.699 41.4073 22.899C41.6836 23.3648 41.9678 23.8543 42.2126 24.3201H42.2047Z" fill="#A3986C"/>
<path d="M41.7626 24.328C41.7626 24.328 41.6994 24.328 41.6678 24.328C41.1073 23.2622 40.3652 22.0938 39.9073 21.3833C39.6468 20.9807 39.4731 20.728 39.4731 20.728L39.5441 20.6807C39.5441 20.6807 40.2389 21.6912 40.9573 22.8912C41.2336 23.357 41.5257 23.8465 41.7705 24.3201L41.7626 24.328Z" fill="#A3986C"/>
<path d="M41.2731 24.3432H41.1862C40.6968 23.2616 40.0415 22.0695 39.6231 21.3511C39.3862 20.9405 39.2283 20.6879 39.2283 20.6879L39.2994 20.6484C39.2994 20.6484 39.9231 21.6826 40.5546 22.8984C40.7994 23.3721 41.052 23.8695 41.2652 24.3511L41.2731 24.3432Z" fill="#A3986C"/>
<path d="M40.8231 24.3442H40.7363C40.231 23.1758 39.4573 21.7784 38.9915 20.9731C38.7547 20.5626 38.5968 20.31 38.5968 20.31L38.6679 20.2705C38.6679 20.2705 39.2994 21.3047 39.9389 22.5205C40.2547 23.1205 40.5705 23.76 40.8231 24.3521V24.3442Z" fill="#A3986C"/>
<path d="M40.2626 24.3439C40.2626 24.3439 40.1994 24.3439 40.1678 24.3439C39.5994 23.2465 38.8178 22.0071 38.3362 21.2808C38.0757 20.8781 37.902 20.6255 37.902 20.6255L37.9731 20.5781C37.9731 20.5781 38.6678 21.5887 39.3862 22.7887C39.6941 23.3018 40.002 23.8387 40.2626 24.3518V24.3439Z" fill="#A3986C"/>
<path d="M39.8047 24.336H39.7099C39.1415 23.2387 38.3599 22.0071 37.8862 21.2808C37.6257 20.8781 37.452 20.6255 37.452 20.6255L37.5231 20.5781C37.5231 20.5781 38.2178 21.5887 38.9362 22.7887C39.2362 23.2939 39.552 23.8308 39.8126 24.3439L39.8047 24.336Z" fill="#A3986C"/>
<path d="M39.3073 24.3277C39.3073 24.3277 39.2442 24.3277 39.2126 24.3277C38.7231 23.2146 38.0363 21.9751 37.6099 21.233C37.3731 20.8225 37.2152 20.5698 37.2152 20.5619L37.2863 20.5225C37.2863 20.5225 37.9099 21.5567 38.5494 22.7725C38.8178 23.2856 39.0784 23.8146 39.3073 24.3277Z" fill="#A3986C"/>
<path d="M38.8494 24.3197C38.8494 24.3197 38.7863 24.3197 38.7626 24.3197C38.2573 23.1276 37.46 21.6908 36.9784 20.8697C36.8284 20.6013 36.7021 20.4039 36.6389 20.2934C36.5994 20.2302 36.5836 20.1987 36.5836 20.1987L36.6547 20.1592C36.6547 20.1592 36.6705 20.1908 36.7021 20.246C36.86 20.5144 37.3889 21.3987 37.9258 22.4092C38.2573 23.0408 38.5968 23.7118 38.8494 24.3276V24.3197Z" fill="#A3986C"/>
<path d="M38.1705 24.2958C38.1705 24.2958 38.1073 24.2958 38.0757 24.2958C38.0126 24.1379 37.9494 23.98 37.8862 23.8142C37.4836 22.859 37.002 21.8958 36.6784 21.2721C36.4652 20.8537 36.3231 20.5932 36.3231 20.5932L36.3941 20.5537C36.3941 20.5537 36.9626 21.5958 37.5389 22.8353C37.7599 23.309 37.981 23.8142 38.1705 24.2958Z" fill="#A3986C"/>
<path d="M37.6099 24.2729C37.6099 24.2729 37.5468 24.2729 37.5152 24.2729C37.452 24.0992 37.381 23.9255 37.302 23.7518C36.8994 22.7966 36.4178 21.8255 36.0942 21.2018C36.0389 21.0913 35.9836 20.9887 35.9363 20.9018C35.8099 20.665 35.7389 20.5229 35.7389 20.5229L35.8099 20.4834C35.8099 20.4834 35.881 20.6176 35.9994 20.8466C36.2126 21.2492 36.5836 21.9676 36.9547 22.765C37.1836 23.2545 37.4126 23.7834 37.6099 24.2729Z" fill="#A3986C"/>
<path d="M37.1363 24.2568C37.1363 24.2568 37.0731 24.2568 37.0494 24.2568C36.6863 23.1279 36.1573 21.8647 35.8257 21.1147C35.8178 21.0911 35.8099 21.0753 35.802 21.0516C35.6363 20.6805 35.5257 20.4437 35.5257 20.4437L35.6047 20.4121C35.6047 20.4121 35.7073 20.6332 35.8652 20.9884C36.0468 21.4068 36.3073 22.0068 36.5678 22.6621C36.7731 23.1832 36.9705 23.7358 37.1441 24.2568H37.1363Z" fill="#A3986C"/>
<path d="M36.6942 24.2339C36.6942 24.2339 36.631 24.2339 36.6073 24.2339C36.3231 23.2944 35.881 22.1812 35.5178 21.3365C35.4152 21.0918 35.3126 20.8628 35.2257 20.6733C35.0442 20.2628 34.9257 20.0102 34.9178 20.0102L34.9968 19.9707C34.9968 19.9707 35.2494 20.5075 35.581 21.2654C35.7073 21.5575 35.8415 21.8812 35.9757 22.2207C36.2363 22.876 36.5047 23.5944 36.6942 24.226V24.2339Z" fill="#A3986C"/>
<path d="M36.0547 24.1936C36.0547 24.1936 35.9915 24.1936 35.9678 24.1936C35.7152 23.3568 35.3836 22.4725 35.1073 21.7778C35.0205 21.5646 34.9415 21.3673 34.8705 21.2015C34.7047 20.7989 34.5941 20.5462 34.5941 20.5462L34.6731 20.5146C34.6731 20.5146 34.8863 21.0041 35.1626 21.7225C35.2889 22.0304 35.4152 22.3778 35.5494 22.741C35.7231 23.2146 35.8968 23.7199 36.0468 24.2094L36.0547 24.1936Z" fill="#A3986C"/>
<path d="M35.51 24.1624C35.51 24.1624 35.4468 24.1624 35.4231 24.1624C35.2337 23.5071 34.981 22.8045 34.7521 22.1966C34.5863 21.7703 34.4284 21.3755 34.31 21.0755C34.1442 20.6729 34.0337 20.4203 34.0337 20.4203L34.1126 20.3887C34.1126 20.3887 34.4442 21.1387 34.8152 22.1255C34.8784 22.2834 34.9416 22.4413 34.9968 22.6071C35.1863 23.1124 35.3679 23.6492 35.5179 24.1624H35.51Z" fill="#A3986C"/>
<path d="M35.0521 24.1309C35.0521 24.1309 34.9889 24.1309 34.9652 24.1309C34.8389 23.5782 34.681 23.0019 34.5231 22.4651C34.3415 21.873 34.16 21.3203 34.0336 20.9335C33.8994 20.5546 33.8126 20.3177 33.8126 20.3177L33.8915 20.2861C33.8915 20.2861 34.2389 21.2335 34.5863 22.3861C34.7521 22.9467 34.9257 23.5546 35.0521 24.1309Z" fill="#A3986C"/>
<path d="M34.6178 24.0985C34.6178 24.0985 34.5626 24.0985 34.531 24.0985C34.4442 23.6959 34.3415 23.2538 34.2231 22.8275C33.9705 21.9196 33.6784 21.0275 33.481 20.4512C33.3468 20.0722 33.2599 19.8275 33.2599 19.8275L33.3389 19.7959C33.3389 19.7959 33.8757 21.2406 34.2942 22.7485C34.4205 23.2064 34.531 23.6722 34.6178 24.1064V24.0985Z" fill="#A3986C"/>
<path d="M34.01 24.0511C34.01 24.0511 33.9547 24.0511 33.9231 24.0511C33.8837 23.8379 33.8284 23.6248 33.7731 23.4037C33.5047 22.3142 33.1179 21.1537 32.881 20.459C32.7468 20.08 32.66 19.8353 32.66 19.8353L32.7389 19.8037C32.7389 19.8037 33.4179 21.6274 33.8442 23.3169C33.9073 23.5695 33.9626 23.8142 34.01 24.059V24.0511Z" fill="#A3986C"/>
<g style="mix-blend-mode:multiply" opacity="0.4">
<path d="M54.3231 21.1781C54.3231 21.1781 47.3047 23.0491 45.11 22.5044C43.4994 22.1018 38.9837 23.5149 36.0942 24.2018C36.0784 24.2018 36.0705 24.2018 36.0547 24.2018C36.0231 24.2018 35.9916 24.2018 35.9679 24.2018C35.81 24.2018 35.6521 24.186 35.51 24.1781C35.4784 24.1781 35.4468 24.1781 35.4231 24.1781C35.2968 24.1702 35.1705 24.1544 35.0521 24.1544C35.0205 24.1544 34.9889 24.1544 34.9652 24.1544C34.8389 24.1465 34.7284 24.1386 34.6179 24.1307C34.5863 24.1307 34.5626 24.1307 34.531 24.1307C34.3337 24.1149 34.16 24.0991 34.0021 24.0912C33.9705 24.0912 33.9468 24.0912 33.9152 24.0912C33.5442 24.0597 33.331 24.0439 33.331 24.0439C33.331 24.0439 33.4968 23.807 33.7652 23.4518C33.7889 23.4281 33.8047 23.3965 33.8284 23.3649C33.9389 23.2149 34.0652 23.0491 34.2073 22.8754C34.231 22.8518 34.2468 22.8202 34.2705 22.7965C34.3415 22.7097 34.4205 22.6149 34.4994 22.5202C34.5231 22.4965 34.5389 22.4728 34.5626 22.4412C34.61 22.3781 34.6652 22.3149 34.7284 22.2518C34.7442 22.2281 34.7679 22.2044 34.7837 22.1807C34.8863 22.0623 34.9889 21.9439 35.0916 21.8333C35.1152 21.8097 35.131 21.7939 35.1547 21.7702C35.21 21.707 35.2573 21.6518 35.3205 21.5965L47.4547 18.9912L48.3468 18.8018L48.9152 19.0386L54.3073 21.2491L54.3231 21.1781Z" fill="#736CA3"/>
</g>
<path d="M33.7573 57.8571C32.1546 59.9571 26.4389 60.5097 23.352 59.5387C22.6178 59.3097 22.0336 58.9939 21.6941 58.5913C19.152 55.6544 22.3178 47.0887 23.6204 41.1992C24.331 37.9702 24.402 33.3123 24.3152 29.7597C24.2599 27.3755 24.1336 25.4965 24.0862 24.8729C24.0783 24.7308 24.0704 24.6518 24.0704 24.6518C24.0704 24.6518 34.8941 20.2387 33.8757 21.7623C33.7889 21.8965 33.702 22.0623 33.6152 22.2597C33.2125 23.1755 32.8257 24.786 32.5731 27.1465C32.4704 28.1018 32.3915 29.1834 32.3362 30.3913C32.2257 32.9887 32.2415 36.186 32.4546 40.0071C32.9204 48.2097 36.5599 54.1781 33.7573 57.8571Z" fill="#FFF9F0"/>
<g style="mix-blend-mode:multiply" opacity="0.27">
<path d="M33.7573 57.857C32.3599 59.6807 27.8599 60.3439 24.6783 59.8386C24.631 59.8386 24.5994 59.8307 24.5915 59.8228C24.1494 59.7517 23.7389 59.657 23.3599 59.5386C32.1231 59.2386 29.7783 48.8412 28.2389 44.6017C27.0941 41.4596 30.3073 34.4175 29.881 32.886C29.4547 31.3544 27.631 31.4254 27.631 31.4254L26.652 28.7491L32.5731 27.1465C32.4705 28.1017 32.3915 29.1833 32.3362 30.3912C32.2257 32.9886 32.2415 36.186 32.4547 40.007C32.6047 42.5807 33.0626 44.9412 33.5362 47.0728C34.5704 51.7307 35.6757 55.3307 33.7573 57.8491V57.857Z" fill="#C0CCA3"/>
</g>
<g style="mix-blend-mode:multiply" opacity="0.53">
<path d="M33.6152 22.2676C33.0389 23.5465 32.5257 26.2071 32.3441 30.3992C32.3047 30.3992 32.2731 30.3992 32.2257 30.3834C31.2941 30.1702 31.0257 29.0255 30.3389 29.4518C29.6599 29.8781 29.9362 31.2123 29.5889 31.3228C28.9178 31.536 28.2547 30.0676 27.7099 30.4071C27.1652 30.7465 28.1362 32.5702 26.731 32.5702C26.0283 32.5702 25.9415 31.4492 25.9415 31.4492C25.9415 31.4492 25.6257 31.9781 25.2626 31.8755C24.8994 31.7728 24.4731 30.8965 24.6705 30.1149C24.7257 29.9018 24.5836 29.7913 24.3152 29.7755C24.2599 27.3913 24.1336 25.5123 24.0862 24.8886C25.4994 24.4465 30.9389 22.7807 33.6073 22.2755L33.6152 22.2676Z" fill="#ABAB74"/>
</g>
<path d="M37.8783 29.8227C37.8783 29.8227 36.2915 29.8622 35.0994 29.5701C34.1678 29.3332 33.6152 28.7411 33.3152 28.7648C32.6362 28.8043 32.8889 30.2727 32.0205 30.0595C31.152 29.8464 30.8915 28.7016 30.2599 29.1279C29.6205 29.5543 29.881 30.8885 29.5573 30.999C28.9336 31.2122 28.302 29.7437 27.7968 30.0832C27.2836 30.4227 28.1994 32.2464 26.881 32.2543C26.2257 32.2543 26.1389 31.1253 26.1389 31.1253C26.1389 31.1253 25.8389 31.6543 25.4994 31.5516C25.1599 31.449 24.7573 30.5727 24.9468 29.7911C25.1362 29.0095 22.8468 29.6648 21.781 30.7701C20.7152 31.8753 19.9731 31.7885 19.9731 31.5753C19.9731 31.5516 19.9731 31.5122 19.981 31.449C20.052 30.9201 20.5731 28.9858 24.0705 27.3043V24.6753C24.0705 24.6753 34.3099 21.2332 34.7126 21.8964C35.1152 22.5516 32.8968 23.4201 32.9915 25.4648C33.0862 27.5095 33.3468 26.1595 35.5652 27.3358C36.5599 27.8648 37.1362 28.4095 37.452 28.8516C37.8783 29.4279 37.8783 29.8464 37.8783 29.8464V29.8227Z" fill="#FFF9F0"/>
<g style="mix-blend-mode:multiply" opacity="0.27">
<path d="M37.452 28.828C35.7626 29.278 34.2705 27.6122 33.2599 27.4149C32.2494 27.2254 32.7468 28.4017 31.8073 28.9149C30.8757 29.428 30.3626 27.5017 29.9599 28.1807C29.5652 28.8596 29.1705 29.7912 28.8468 29.7122C28.531 29.6254 27.9231 27.9517 27.781 28.9701C27.6389 29.9886 26.8731 30.2412 26.3126 30.4701C25.7441 30.6991 25.5152 29.4754 25.0968 28.9149C24.6705 28.3464 23.7941 28.2596 21.552 30.2728C20.7862 30.9596 20.2968 31.2912 19.9731 31.4333C20.0283 31.0543 20.3047 29.957 21.7336 28.757C22.3099 28.2754 23.0599 27.7701 24.0626 27.2964V24.6675C24.0626 24.6675 34.302 21.2254 34.7047 21.8886C35.1073 22.5438 32.8889 23.4122 32.9836 25.457C33.0783 27.5017 33.3389 26.1517 35.5573 27.328C36.552 27.857 37.1283 28.4017 37.4441 28.8438L37.452 28.828Z" fill="#C0CCA3"/>
</g>
<g style="mix-blend-mode:multiply" opacity="0.27">
<path d="M35.5652 27.3201C32.6599 27.6438 33.031 26.0096 31.6652 27.0201C30.2994 28.0307 28.9494 26.6175 28.0652 27.2412C27.1889 27.8649 26.1941 28.8833 25.602 28.2912C25.0099 27.6991 24.181 28.0386 22.6257 28.5438C22.2626 28.6622 21.9705 28.7254 21.7336 28.757C22.3099 28.2754 23.0599 27.7701 24.0626 27.2964V24.6675C24.0626 24.6675 34.302 21.2254 34.7047 21.8886C35.1073 22.5438 32.8889 23.4122 32.9836 25.457C33.0784 27.5017 33.3389 26.1517 35.5573 27.328L35.5652 27.3201Z" fill="#C0CCA3"/>
</g>
<g style="mix-blend-mode:multiply" opacity="0.77">
<path d="M28.5073 57.2091C28.6904 57.2091 28.8389 57.0606 28.8389 56.8775C28.8389 56.6943 28.6904 56.5459 28.5073 56.5459C28.3242 56.5459 28.1757 56.6943 28.1757 56.8775C28.1757 57.0606 28.3242 57.2091 28.5073 57.2091Z" fill="#C9C1AD"/>
</g>
<g style="mix-blend-mode:multiply" opacity="0.77">
<path d="M30.9626 55.2912C31.0716 55.2912 31.1599 55.2029 31.1599 55.0939C31.1599 54.9848 31.0716 54.8965 30.9626 54.8965C30.8536 54.8965 30.7652 54.9848 30.7652 55.0939C30.7652 55.2029 30.8536 55.2912 30.9626 55.2912Z" fill="#C9C1AD"/>
</g>
<g style="mix-blend-mode:multiply" opacity="0.77">
<path d="M29.9915 57.8811C30.1005 57.8811 30.1889 57.7927 30.1889 57.6837C30.1889 57.5747 30.1005 57.4863 29.9915 57.4863C29.8825 57.4863 29.7942 57.5747 29.7942 57.6837C29.7942 57.7927 29.8825 57.8811 29.9915 57.8811Z" fill="#C9C1AD"/>
</g>
<g style="mix-blend-mode:multiply" opacity="0.77">
<path d="M32.5573 54.3195C32.6663 54.3195 32.7547 54.2312 32.7547 54.1222C32.7547 54.0132 32.6663 53.9248 32.5573 53.9248C32.4483 53.9248 32.36 54.0132 32.36 54.1222C32.36 54.2312 32.4483 54.3195 32.5573 54.3195Z" fill="#C9C1AD"/>
</g>
<g style="mix-blend-mode:multiply" opacity="0.77">
<path d="M33.4099 53.5459C33.4622 53.5459 33.5047 53.5035 33.5047 53.4512C33.5047 53.3989 33.4622 53.3564 33.4099 53.3564C33.3576 53.3564 33.3152 53.3989 33.3152 53.4512C33.3152 53.5035 33.3576 53.5459 33.4099 53.5459Z" fill="#C9C1AD"/>
</g>
<g style="mix-blend-mode:multiply" opacity="0.77">
<path d="M32.7547 55.8752C32.8637 55.8752 32.952 55.7868 32.952 55.6778C32.952 55.5688 32.8637 55.4805 32.7547 55.4805C32.6457 55.4805 32.5573 55.5688 32.5573 55.6778C32.5573 55.7868 32.6457 55.8752 32.7547 55.8752Z" fill="#C9C1AD"/>
</g>
<g style="mix-blend-mode:multiply" opacity="0.77">
<path d="M32.5731 51.9361C32.6385 51.9361 32.6915 51.883 32.6915 51.8176C32.6915 51.7522 32.6385 51.6992 32.5731 51.6992C32.5077 51.6992 32.4547 51.7522 32.4547 51.8176C32.4547 51.883 32.5077 51.9361 32.5731 51.9361Z" fill="#C9C1AD"/>
</g>
<g style="mix-blend-mode:multiply" opacity="0.77">
<path d="M31.1836 56.9888C31.3537 56.9888 31.4915 56.851 31.4915 56.6809C31.4915 56.5109 31.3537 56.373 31.1836 56.373C31.0136 56.373 30.8757 56.5109 30.8757 56.6809C30.8757 56.851 31.0136 56.9888 31.1836 56.9888Z" fill="#C9C1AD"/>
</g>
<g style="mix-blend-mode:multiply" opacity="0.77">
<path d="M31.5547 52.9623C31.668 52.9623 31.7599 52.8704 31.7599 52.757C31.7599 52.6437 31.668 52.5518 31.5547 52.5518C31.4413 52.5518 31.3494 52.6437 31.3494 52.757C31.3494 52.8704 31.4413 52.9623 31.5547 52.9623Z" fill="#C9C1AD"/>
</g>
<g style="mix-blend-mode:multiply" opacity="0.77">
<path d="M32.1704 49.883C32.2794 49.883 32.3678 49.7947 32.3678 49.6856C32.3678 49.5766 32.2794 49.4883 32.1704 49.4883C32.0614 49.4883 31.9731 49.5766 31.9731 49.6856C31.9731 49.7947 32.0614 49.883 32.1704 49.883Z" fill="#C9C1AD"/>
</g>
<g style="mix-blend-mode:multiply" opacity="0.77">
<path d="M31.1599 51.0363C31.2689 51.0363 31.3573 50.948 31.3573 50.839C31.3573 50.73 31.2689 50.6416 31.1599 50.6416C31.0509 50.6416 30.9626 50.73 30.9626 50.839C30.9626 50.948 31.0509 51.0363 31.1599 51.0363Z" fill="#C9C1AD"/>
</g>
<g style="mix-blend-mode:multiply" opacity="0.77">
<path d="M31.7599 48.3596C31.8689 48.3596 31.9573 48.2712 31.9573 48.1622C31.9573 48.0532 31.8689 47.9648 31.7599 47.9648C31.6509 47.9648 31.5626 48.0532 31.5626 48.1622C31.5626 48.2712 31.6509 48.3596 31.7599 48.3596Z" fill="#C9C1AD"/>
</g>
<g style="mix-blend-mode:multiply" opacity="0.77">
<path d="M32.6599 47.0176C32.7122 47.0176 32.7546 46.9752 32.7546 46.9229C32.7546 46.8705 32.7122 46.8281 32.6599 46.8281C32.6076 46.8281 32.5652 46.8705 32.5652 46.9229C32.5652 46.9752 32.6076 47.0176 32.6599 47.0176Z" fill="#C9C1AD"/>
</g>
<g style="mix-blend-mode:multiply" opacity="0.77">
<path d="M33.4573 49.2902C33.5663 49.2902 33.6547 49.2019 33.6547 49.0929C33.6547 48.9839 33.5663 48.8955 33.4573 48.8955C33.3483 48.8955 33.2599 48.9839 33.2599 49.0929C33.2599 49.2019 33.3483 49.2902 33.4573 49.2902Z" fill="#C9C1AD"/>
</g>
<g style="mix-blend-mode:multiply" opacity="0.77">
<path d="M31.681 46.1568C31.7464 46.1568 31.7994 46.1037 31.7994 46.0383C31.7994 45.9729 31.7464 45.9199 31.681 45.9199C31.6156 45.9199 31.5626 45.9729 31.5626 46.0383C31.5626 46.1037 31.6156 46.1568 31.681 46.1568Z" fill="#C9C1AD"/>
</g>
<g style="mix-blend-mode:multiply" opacity="0.77">
<path d="M33.5047 50.9574C33.5919 50.9574 33.6626 50.8867 33.6626 50.7995C33.6626 50.7123 33.5919 50.6416 33.5047 50.6416C33.4175 50.6416 33.3468 50.7123 33.3468 50.7995C33.3468 50.8867 33.4175 50.9574 33.5047 50.9574Z" fill="#C9C1AD"/>
</g>
<g style="mix-blend-mode:multiply" opacity="0.77">
<path d="M27.8757 25.7645C27.9498 25.7645 28.0099 25.7044 28.0099 25.6303C28.0099 25.5562 27.9498 25.4961 27.8757 25.4961C27.8016 25.4961 27.7415 25.5562 27.7415 25.6303C27.7415 25.7044 27.8016 25.7645 27.8757 25.7645Z" fill="#C9C1AD"/>
</g>
<g style="mix-blend-mode:multiply" opacity="0.77">
<path d="M25.9889 25.7411C26.063 25.7411 26.1231 25.681 26.1231 25.6069C26.1231 25.5327 26.063 25.4727 25.9889 25.4727C25.9148 25.4727 25.8547 25.5327 25.8547 25.6069C25.8547 25.681 25.9148 25.7411 25.9889 25.7411Z" fill="#C9C1AD"/>
</g>
<g style="mix-blend-mode:multiply" opacity="0.77">
<path d="M28.8625 26.5536C28.9367 26.5536 28.9968 26.4935 28.9968 26.4194C28.9968 26.3452 28.9367 26.2852 28.8625 26.2852C28.7884 26.2852 28.7283 26.3452 28.7283 26.4194C28.7283 26.4935 28.7884 26.5536 28.8625 26.5536Z" fill="#C9C1AD"/>
</g>
<g style="mix-blend-mode:multiply" opacity="0.77">
<path d="M29.4862 26.8695C29.5211 26.8695 29.5494 26.8412 29.5494 26.8063C29.5494 26.7714 29.5211 26.7432 29.4862 26.7432C29.4513 26.7432 29.4231 26.7714 29.4231 26.8063C29.4231 26.8412 29.4513 26.8695 29.4862 26.8695Z" fill="#C9C1AD"/>
</g>
<g style="mix-blend-mode:multiply" opacity="0.77">
<path d="M27.9152 27.0438C27.9893 27.0438 28.0494 26.9837 28.0494 26.9096C28.0494 26.8355 27.9893 26.7754 27.9152 26.7754C27.8411 26.7754 27.781 26.8355 27.781 26.9096C27.781 26.9837 27.8411 27.0438 27.9152 27.0438Z" fill="#C9C1AD"/>
</g>
<g style="mix-blend-mode:multiply" opacity="0.77">
<path d="M30.3389 25.9772C30.3825 25.9772 30.4178 25.9419 30.4178 25.8983C30.4178 25.8547 30.3825 25.8193 30.3389 25.8193C30.2953 25.8193 30.2599 25.8547 30.2599 25.8983C30.2599 25.9419 30.2953 25.9772 30.3389 25.9772Z" fill="#C9C1AD"/>
</g>
<g style="mix-blend-mode:multiply" opacity="0.77">
<path d="M26.9047 26.3482C27.0224 26.3482 27.1178 26.2528 27.1178 26.135C27.1178 26.0173 27.0224 25.9219 26.9047 25.9219C26.7869 25.9219 26.6915 26.0173 26.6915 26.135C26.6915 26.2528 26.7869 26.3482 26.9047 26.3482Z" fill="#C9C1AD"/>
</g>
<g style="mix-blend-mode:multiply" opacity="0.77">
<path d="M29.502 25.6065C29.5805 25.6065 29.6441 25.5429 29.6441 25.4644C29.6441 25.3859 29.5805 25.3223 29.502 25.3223C29.4235 25.3223 29.3599 25.3859 29.3599 25.4644C29.3599 25.5429 29.4235 25.6065 29.502 25.6065Z" fill="#C9C1AD"/>
</g>
<g style="mix-blend-mode:multiply" opacity="0.77">
<path d="M31.602 25.2831C31.6762 25.2831 31.7363 25.223 31.7363 25.1489C31.7363 25.0747 31.6762 25.0146 31.602 25.0146C31.5279 25.0146 31.4678 25.0747 31.4678 25.1489C31.4678 25.223 31.5279 25.2831 31.602 25.2831Z" fill="#C9C1AD"/>
</g>
<g style="mix-blend-mode:multiply" opacity="0.77">
<path d="M30.6389 24.9042C30.713 24.9042 30.7731 24.8441 30.7731 24.77C30.7731 24.6958 30.713 24.6357 30.6389 24.6357C30.5647 24.6357 30.5046 24.6958 30.5046 24.77C30.5046 24.8441 30.5647 24.9042 30.6389 24.9042Z" fill="#C9C1AD"/>
</g>
<g style="mix-blend-mode:multiply" opacity="0.77">
<path d="M32.4863 24.6669C32.5604 24.6669 32.6205 24.6068 32.6205 24.5326C32.6205 24.4585 32.5604 24.3984 32.4863 24.3984C32.4121 24.3984 32.3521 24.4585 32.3521 24.5326C32.3521 24.6068 32.4121 24.6669 32.4863 24.6669Z" fill="#C9C1AD"/>
</g>
<g style="mix-blend-mode:multiply" opacity="0.77">
<path d="M32.281 25.9618C32.3551 25.9618 32.4152 25.9017 32.4152 25.8276C32.4152 25.7534 32.3551 25.6934 32.281 25.6934C32.2068 25.6934 32.1468 25.7534 32.1468 25.8276C32.1468 25.9017 32.2068 25.9618 32.281 25.9618Z" fill="#C9C1AD"/>
</g>
<g style="mix-blend-mode:multiply" opacity="0.77">
<path d="M31.2073 26.3566C31.264 26.3566 31.3099 26.3107 31.3099 26.254C31.3099 26.1973 31.264 26.1514 31.2073 26.1514C31.1506 26.1514 31.1046 26.1973 31.1046 26.254C31.1046 26.3107 31.1506 26.3566 31.2073 26.3566Z" fill="#C9C1AD"/>
</g>
<g style="mix-blend-mode:multiply" opacity="0.27">
<path d="M33.7573 57.8565C32.3599 59.6802 27.8599 60.3433 24.6783 59.8381C25.5073 59.9328 30.5599 59.7828 32.5968 57.4617C35.0599 54.6591 33.4731 47.6644 33.5362 47.0723C34.5704 51.7302 35.6757 55.3302 33.7573 57.8486V57.8565Z" fill="#C0CCA3"/>
</g>
<path d="M55.0099 21.1381C53.0047 21.7855 43.7678 20.2697 38.581 21.9987C38.3363 22.0697 38.1073 22.1644 37.8784 22.2592C36.3705 22.8987 35.0205 23.4276 33.781 23.846C29.1626 25.4171 17.7784 27.4934 8.28888 25.646C7.63362 25.5197 6.98625 25.3776 6.35467 25.2118C-0.513748 23.4197 0.409936 19.5513 0.409936 19.5513C0.409936 19.5513 4.90204 11.3802 13.0415 5.60128C13.8705 5.00918 14.7389 4.44076 15.6547 3.91181C19.7126 1.54339 24.5126 -0.0908228 29.9836 0.003914C30.3863 0.003914 30.7731 0.0275982 31.1678 0.0512824C33.3231 0.185493 35.3363 0.588125 37.1994 1.19602C38.7389 1.69339 40.1836 2.32497 41.5257 3.05918C42.3863 3.52497 43.2073 4.03812 43.9889 4.58286C44.3994 4.86707 44.802 5.15918 45.1889 5.45918C48.7889 8.23812 51.4336 11.6487 53.1231 14.5697C53.9284 15.9671 54.5047 17.246 54.8678 18.3039C55.4205 19.9065 55.4678 20.9802 55.0099 21.1302V21.1381Z" fill="#E82E2E"/>
<path d="M6.63098 13.591C6.63098 13.591 3.57572 15.3436 4.81519 16.6226C6.05467 17.9015 8.58098 17.3884 8.6994 16.2831C8.81782 15.1778 8.04414 13.2831 6.63098 13.591Z" fill="#FCFFDE"/>
<path d="M9.30727 20.1271C9.30727 20.1271 8.03621 20.7982 8.31253 21.5561C8.58885 22.314 8.79411 23.7271 10.3257 23.5298C11.8573 23.3324 12.9862 23.4192 12.8204 22.5666C12.6546 21.714 11.3204 19.3692 9.30727 20.1271Z" fill="#FCFFDE"/>
<path d="M20.3994 17.8695C19.981 18.0274 16.6336 18.5484 16.6888 19.4563C16.7441 20.3642 17.3678 21.0905 18.5283 21.4458C19.6888 21.8011 21.7573 21.9747 22.9178 21.2958C24.0783 20.6169 24.6152 19.259 23.3678 18.4063C22.1204 17.5537 21.781 17.3563 20.3915 17.8695H20.3994Z" fill="#FCFFDE"/>
<path d="M12.8915 12.3832C12.852 12.099 14.731 10.2832 17.7389 10.2832C20.7468 10.2832 21.481 11.2779 21.0784 12.1779C20.6757 13.0779 19.3494 13.1964 18.331 12.5727C17.3126 11.949 15.781 13.2832 14.1389 13.449C12.4968 13.6148 12.931 12.6595 12.8915 12.3753V12.3832Z" fill="#FCFFDE"/>
<path d="M20.3915 5.89351C20.281 6.94351 22.231 7.53562 23.5336 6.82509C24.8362 6.11456 25.0889 5.15141 24.4099 4.59088C23.731 4.03035 20.502 4.84351 20.3915 5.89351Z" fill="#FCFFDE"/>
<path d="M13.6336 6.63579C12.6783 6.96737 12.8047 6.24106 13.0494 5.60158C13.8783 5.00948 14.7468 4.44106 15.6626 3.91211C16.1994 3.95158 16.6178 4.14895 16.6968 4.49632C16.8705 5.31737 15.2205 6.08316 13.6415 6.63579H13.6336Z" fill="#FCFFDE"/>
<path d="M27.5678 5.29317C27.5125 6.25633 28.1362 6.43001 28.081 7.52738C28.0257 8.62475 27.9073 10.1879 29.6125 9.48527C31.3178 8.78264 30.6862 7.84317 30.7178 6.50896C30.781 3.50896 27.631 4.33001 27.5757 5.29317H27.5678Z" fill="#FCFFDE"/>
<path d="M30.0862 13.1088C29.1862 13.1956 28.4125 13.7009 27.852 14.7825C27.2915 15.8641 27.7652 16.6772 28.2783 17.372C28.7915 18.0667 30.3783 18.3746 30.4336 17.3325C30.4889 16.2904 30.3468 16.0299 31.0889 14.7588C31.831 13.4877 31.002 13.0299 30.0941 13.1167L30.0862 13.1088Z" fill="#FCFFDE"/>
<path d="M37.7994 7.66169C36.3467 7.93011 36.1257 8.0959 36.1573 8.80643C36.1888 9.51695 36.4652 11.6406 38.1388 10.9064C39.8125 10.1722 41.1152 10.5591 40.3494 9.37485C39.5836 8.19064 39.3862 7.36958 37.7994 7.66958V7.66169Z" fill="#FCFFDE"/>
<path d="M37.1994 1.20422C36.8599 1.52001 36.3468 1.92265 35.8336 2.49107C34.4757 3.99107 35.0441 2.54633 33.0547 2.2937C31.3889 2.08054 31.1836 0.548962 31.1599 0.0673828C33.3152 0.201593 35.3283 0.604225 37.1915 1.21212L37.1994 1.20422Z" fill="#FCFFDE"/>
<path d="M42.9152 6.11475C41.5257 6.02791 40.9652 4.44107 40.7284 3.9358C40.5942 3.62791 40.9415 3.28054 41.5178 3.06738C42.8363 3.7858 44.0599 4.59896 45.1889 5.46738C45.4257 6.54107 44.2968 6.20159 42.9152 6.11475Z" fill="#FCFFDE"/>
<path d="M44.4783 14.2697C42.781 13.2907 40.7362 13.6144 41.0204 14.8065C41.3046 15.9986 42.4336 17.1276 43.4836 17.3802C44.5336 17.6328 45.4099 17.5776 45.6073 16.2197C45.8046 14.8618 45.4099 14.8065 44.4704 14.2618L44.4783 14.2697Z" fill="#FCFFDE"/>
<path d="M38.7784 21.6355C38.7626 21.7065 38.6915 21.8328 38.581 21.9986C38.3362 22.0697 38.1073 22.1644 37.8783 22.2592C36.3705 22.8986 35.0205 23.4276 33.781 23.846C33.781 23.846 32.6915 21.3197 35.0126 20.9565C37.3336 20.5855 38.8573 21.3118 38.7784 21.6355Z" fill="#FCFFDE"/>
<path d="M54.8757 18.3114C54.71 18.335 54.5205 18.3587 54.3231 18.4061C53.0047 18.7061 53.131 17.5535 52.7126 16.0298C52.5231 15.3508 52.7757 14.885 53.1389 14.5771C53.9442 15.9745 54.5205 17.2535 54.8836 18.3114H54.8757Z" fill="#FCFFDE"/>
<g style="mix-blend-mode:soft-light">
<path d="M4.71255 17.9957C4.55465 24.9273 18.4573 20.5773 22.0415 15.201C25.6257 9.82467 25.8073 3.96677 27.252 2.15888C27.9389 1.29835 21.6862 1.95361 16.2073 4.32204C10.2152 6.91151 4.79939 14.372 4.72044 17.9957H4.71255Z" fill="#FFE3D9"/>
</g>
<g style="mix-blend-mode:multiply" opacity="0.27">
<path d="M55.0099 21.1383C53.0047 21.7856 43.7678 20.2699 38.581 21.9988C38.3363 22.0699 38.1073 22.1646 37.8784 22.2593C36.3705 22.8988 35.0205 23.4277 33.781 23.8462C29.1626 25.4172 17.7784 27.4935 8.28888 25.6462C8.75467 25.6462 20.5889 25.4172 30.0705 23.1199C40.8468 20.5067 44.7547 13.7646 45.2205 11.4199C45.702 9.05932 44.3284 5.41985 43.9968 4.58301C44.4073 4.86722 44.8099 5.15932 45.1968 5.45932C48.7968 8.23827 51.4415 11.6488 53.131 14.5699C53.9363 15.9672 54.5126 17.2462 54.8757 18.3041C55.4284 19.9067 55.4757 20.9804 55.0178 21.1304L55.0099 21.1383Z" fill="#ABA3CC"/>
</g>
</svg>
