<svg width="76" height="63" viewBox="0 0 76 63" fill="none" xmlns="http://www.w3.org/2000/svg">
<path d="M75.0216 39.0117C74.8886 39.4391 75.3825 40.0566 75.4775 41.4435C75.525 42.0514 75.487 42.8114 75.2876 43.7708C75.1926 44.2268 75.0691 44.7302 74.8886 45.2812C74.7651 45.6516 74.5466 46.1171 74.2142 46.6491C74.0527 46.9245 73.8532 47.2095 73.6442 47.523C72.9697 48.4824 72.0483 49.5938 70.9179 50.7337C70.9179 50.7337 70.9179 50.7432 70.9084 50.7432C70.329 51.3417 69.702 51.9306 69.0086 52.5291C67.4792 53.8685 65.6838 55.1983 63.6605 56.3572C63.4135 56.4997 63.1666 56.6327 62.9196 56.7657C60.3548 58.1526 57.4576 59.2545 54.3038 59.7865C51.3021 60.2899 48.1958 62.3892 39.4755 62.2373C39.352 62.2373 39.2286 62.2373 39.1051 62.2373C37.5757 62.1993 35.8753 62.0948 33.9755 61.9048C32.7786 61.7813 31.5912 61.5628 30.4323 61.2683C30.2803 61.2303 30.1378 61.1923 29.9953 61.1448C24.8562 59.7295 20.0782 56.7752 16.117 53.631C16.0885 53.612 16.079 53.6025 16.0695 53.6025C12.6498 50.8857 9.838 48.0549 7.94766 45.9936C7.86216 45.8986 7.77668 45.8036 7.69119 45.7181C7.5582 45.5661 7.42521 45.4237 7.30172 45.2812C7.17823 45.1577 7.13074 45.0912 7.13074 45.0912C6.74127 44.6542 6.40879 44.2742 6.14281 43.9608C5.00291 42.6404 4.15749 40.6741 3.54004 38.6982C3.49254 38.5462 3.44502 38.3942 3.39753 38.2423C2.39061 34.851 2.03915 31.5643 2.03915 31.5643C0.642764 29.3415 -0.117169 26.4252 0.0538168 23.49C0.0538168 23.338 0.0728233 23.186 0.0918217 23.0435C0.11082 22.7585 0.148803 22.4736 0.196299 22.1981C0.338787 21.2482 0.585766 20.3172 0.937236 19.4053C1.13672 18.9019 1.45021 18.3889 1.83967 17.8759C1.91567 17.781 1.99166 17.6765 2.07715 17.572C2.19114 17.439 2.30513 17.2965 2.42862 17.154C2.57111 16.9925 2.72311 16.831 2.88459 16.6695C4.32847 15.1782 6.2758 13.6868 7.98566 12.3474C8.14715 12.2239 8.30864 12.0909 8.47013 11.9674C8.61262 11.8439 8.73609 11.749 8.86908 11.635C9.01157 11.521 9.14456 11.4165 9.28705 11.3025C9.895 10.8085 10.7974 9.86811 12.0133 8.7567C12.0893 8.68071 12.1558 8.62372 12.2318 8.55722C14.7016 6.32491 18.3968 3.44665 23.5169 1.85078C23.7734 1.77479 24.0298 1.69879 24.2958 1.6323H24.3053C26.3381 1.07184 28.58 0.710875 31.0592 0.672879C34.251 0.625382 37.1767 0.710874 39.865 0.929356C40.302 0.967353 40.7389 1.00535 41.1759 1.05285C52.2425 2.12626 59.0819 5.31799 63.4515 8.99418C63.6605 9.16517 63.86 9.33616 64.0595 9.51664C64.0595 9.51664 64.0595 9.51664 64.069 9.52614C64.411 9.83012 64.7434 10.1436 65.0474 10.4571C66.8903 12.3094 68.2012 14.2188 69.1701 16.0046C70.424 18.2939 71.1269 20.3742 71.7254 21.8181C71.7919 21.9701 71.8488 22.1031 71.8963 22.2361C72.0958 22.692 72.2858 23.0625 72.4853 23.338C72.5233 23.3855 72.5613 23.4425 72.5898 23.4995C73.9767 25.4658 74.6891 27.5176 75.0311 29.351C75.2401 30.4434 75.3066 31.4598 75.3066 32.3337C75.3066 32.5332 75.3066 32.7137 75.3066 32.8942C75.2686 33.9961 75.1261 34.813 75.0311 35.2025C75.0026 35.326 74.9836 35.44 74.9836 35.5635C74.9551 36.3709 75.4491 37.2448 75.734 37.6818C75.753 37.7008 75.7625 37.7198 75.772 37.7483L75.791 37.7768C75.8765 37.9098 75.943 37.9858 75.943 37.9858C75.943 37.9858 75.7815 38.0143 75.582 38.1473C75.4491 38.2423 75.2971 38.3847 75.1641 38.6032C75.0881 38.7267 75.0216 38.8692 74.9741 39.0402L75.0216 39.0117Z" fill="#B58F53"/>
<g style="mix-blend-mode:multiply" opacity="0.22">
<path d="M75.4871 41.4339C75.5346 42.0419 75.4966 42.8018 75.2971 43.7612C75.2021 44.2172 75.0786 44.7206 74.8981 45.2716C74.7747 45.6421 74.5562 46.098 74.2237 46.6395C74.0622 46.915 73.8722 47.1999 73.6632 47.5039C73.6632 47.5039 73.6632 47.5039 73.6632 47.5134C70.823 51.5411 63.7176 58.2095 54.3229 59.7864C51.3211 60.2899 48.2148 62.3892 39.4946 62.2372C39.3711 62.2372 39.2476 62.2372 39.1241 62.2372C37.5947 62.1992 35.8944 62.0947 33.9945 61.9047C32.7976 61.7812 31.6102 61.5627 30.4513 61.2683C30.2993 61.2303 30.1569 61.1923 30.0144 61.1448C24.8753 59.7294 20.0972 56.7751 16.136 53.6309C16.934 54.2009 26.1007 60.8978 42.0974 58.4375C53.7434 56.6422 58.607 56.0152 65.4179 47.0575C66.4533 45.6991 67.0233 43.8087 65.1519 43.2103C64.639 43.0393 63.9076 43.0583 62.8436 43.1628C62.8341 43.1628 62.8151 43.1628 62.8056 43.1628C62.7866 43.1628 62.7676 43.1628 62.7391 43.1628C62.6441 43.1818 62.5967 43.1818 62.5967 43.1818C59.8229 43.4857 54.9213 44.3787 46.0585 44.5402C26.7276 44.8821 21.5221 40.1895 21.5221 40.1895C21.5221 40.1895 27.8391 42.6308 39.8461 42.6308C43.7692 42.6308 53.3064 41.1394 61.3903 39.5911C67.1088 38.4987 70.5 37.7577 72.4948 37.5107C75.1451 37.1878 75.3351 37.5772 75.5156 37.6247C75.6201 37.6532 75.7056 37.6532 75.7816 37.6437L75.829 37.7102L75.8481 37.7292C75.9336 37.8717 76.0001 37.9477 76.0001 37.9477C76.0001 37.9477 75.5536 38.0332 75.2306 38.5557C75.2306 38.5557 75.2306 38.5557 75.2306 38.5652C75.1546 38.6886 75.0881 38.8311 75.0406 39.0021C75.0121 39.0971 75.0121 39.2016 75.0406 39.3251C75.1166 39.7526 75.4301 40.3605 75.5061 41.4244L75.4871 41.4339Z" fill="#6C599C"/>
</g>
<g style="mix-blend-mode:multiply" opacity="0.22">
<path d="M24.6568 50.7627C24.2578 50.7627 23.8493 50.7817 23.4504 50.7817C22.5669 50.7817 21.6835 50.7437 20.8191 50.6107C19.6032 50.4207 18.4063 50.0502 17.4279 49.2903C16.4685 48.5494 15.8225 47.5044 15.1575 46.5165C14.8821 46.1176 14.6066 45.7186 14.2931 45.3576C14.5971 45.4241 14.9106 45.4241 15.2145 45.4336C15.737 45.4336 16.231 45.4526 16.7059 45.6806C17.6178 46.1176 18.3303 46.849 19.2422 47.286C19.7362 47.5329 20.2681 47.6374 20.8096 47.6659C21.0281 47.6754 21.2465 47.6754 21.4555 47.6754H21.826C22.0825 47.6754 22.3295 47.6754 22.5859 47.7039C23.5834 47.7799 24.5618 48.0744 25.4357 48.5589C26.3856 49.0718 27.212 49.8033 27.8295 50.6962C26.7656 50.7152 25.7112 50.7437 24.6568 50.7722V50.7627ZM75.8385 37.7488C75.753 37.7963 75.468 38.0242 75.449 38.0337C74.4801 38.7557 74.0052 39.8766 73.4637 40.9215C73.4637 40.931 73.4542 40.9405 73.4447 40.95C73.4257 40.969 73.4162 40.988 73.4067 41.0165C73.1502 41.5104 72.8652 41.9854 72.5043 42.4034C72.1243 42.8403 71.6779 43.2203 71.1934 43.5338C69.721 44.4932 67.9922 44.8827 66.2538 45.0347C65.5129 45.1011 64.7719 45.1106 64.05 45.1201H63.955C63.6225 45.1201 63.2996 45.1201 62.9671 45.1201C62.6346 45.1201 62.3021 45.1201 61.9792 45.1201C61.1622 45.1201 60.3453 45.1391 59.5379 45.2056C58.1225 45.3291 56.7641 45.6521 55.4722 46.2316C53.0594 47.305 50.9696 49.0338 48.4143 49.8033C46.9609 50.2402 45.4315 50.2972 43.9212 50.3257C42.3158 50.3637 40.7104 50.4017 39.0956 50.4302C35.8943 50.5062 32.6931 50.5727 29.4919 50.6487C29.0359 50.6582 28.5894 50.6677 28.1335 50.6772C27.0221 49.0148 25.2172 47.8464 23.2509 47.5139C22.7379 47.4285 22.225 47.4095 21.712 47.4095H21.446C20.8951 47.4095 20.3441 47.4 19.8217 47.2385C18.8337 46.9345 18.0833 46.1651 17.2094 45.6426C16.9719 45.5001 16.7249 45.3766 16.4589 45.2816C16.2025 45.1961 15.9175 45.1676 15.642 45.1581H15.1291C14.7111 45.1581 14.2931 45.1391 13.9322 44.9397C13.5807 44.5692 13.1912 44.2462 12.7353 43.9992C11.5859 43.3628 10.256 43.2108 9.02107 42.8308C8.40362 42.6409 7.82416 42.3844 7.2922 42.0234C6.81724 41.6909 6.38978 41.3015 5.99082 40.893C5.16439 40.0571 4.44244 39.1261 3.54951 38.3567C3.50202 38.3187 3.45452 38.2712 3.39752 38.2332C3.43552 38.3852 3.48304 38.5372 3.54003 38.6892C4.81293 39.8291 5.80083 41.33 7.23521 42.2989C8.33712 43.0303 9.62901 43.2583 10.8829 43.5813C11.5194 43.7428 12.1653 43.9517 12.7353 44.3032C13.1152 44.5312 13.4477 44.8067 13.7422 45.1296C13.7517 45.1391 13.7612 45.1486 13.7707 45.1581C13.8657 45.2626 13.9701 45.3671 14.0556 45.4811C14.8251 46.393 15.3855 47.4475 16.1265 48.3689C16.8959 49.3283 17.8553 50.0312 19.0142 50.4397C20.2111 50.8672 21.4935 50.9907 22.7569 51.0287C23.0609 51.0287 23.3649 51.0382 23.6689 51.0382C24.8088 51.0382 25.9487 50.9907 27.0981 50.9622C30.3183 50.8862 33.5385 50.8197 36.7682 50.7437C38.3831 50.7057 39.9885 50.6677 41.6033 50.6297C43.1707 50.6012 44.7476 50.6202 46.3055 50.4587C47.0369 50.3827 47.7683 50.2592 48.4713 50.0407C49.0982 49.8507 49.6967 49.6038 50.2856 49.3188C51.4825 48.7488 52.6034 48.0364 53.7528 47.381C54.9307 46.716 56.1371 46.1176 57.4575 45.7851C58.9299 45.4146 60.4593 45.3671 61.9792 45.3671C62.2641 45.3671 62.5491 45.3671 62.8341 45.3671H63.6795C64.525 45.3671 65.3704 45.3576 66.2158 45.2816C66.3488 45.2721 66.4818 45.2626 66.6148 45.2436C66.4438 45.3576 66.2728 45.4906 66.1208 45.6236C65.4844 46.222 65.0569 47.039 64.7719 47.8749C64.6959 48.0554 64.6389 48.2359 64.5914 48.4164C64.335 49.2903 64.1545 50.1832 63.841 51.0382C63.575 51.7506 63.2236 52.4345 62.8056 53.0805C61.9697 54.3629 60.8488 55.4648 59.5474 56.2722C58.0655 57.1936 56.3651 57.6876 54.6648 57.9821C52.9264 58.2955 51.1501 58.438 49.3927 58.5615C47.6259 58.6945 45.8685 58.78 44.1016 58.875C40.6154 59.0745 37.1292 59.331 33.7095 60.0814C32.4556 60.3569 31.2112 60.6988 30.0048 61.1358C30.1473 61.1738 30.2898 61.2213 30.4418 61.2593C31.2492 60.9838 32.0757 60.7463 32.9021 60.5374C36.2838 59.7014 39.77 59.3975 43.2372 59.1885C43.7882 59.16 44.3391 59.122 44.8901 59.0935C43.1707 60.2239 41.0144 60.5944 39.428 61.9337C39.3236 62.0287 39.219 62.1237 39.1146 62.2187C39.238 62.2187 39.3615 62.2187 39.485 62.2187C40.1785 61.5918 41.0524 61.1643 41.9168 60.7938C43.0472 60.2999 44.2251 59.8819 45.232 59.16C45.27 59.1315 45.289 59.0935 45.289 59.065C48.0818 58.913 50.8841 58.78 53.6484 58.3905C55.3867 58.1531 57.1346 57.7731 58.7209 57.0132C60.0888 56.3577 61.3142 55.3983 62.2831 54.2299C63.2616 53.0425 63.9645 51.6746 64.392 50.2022C64.6864 49.1668 64.9049 48.0269 65.4084 47.0485C65.5224 46.8205 65.6554 46.602 65.8073 46.393C65.9878 46.1366 66.2063 45.8991 66.4533 45.6996C66.7288 45.4716 67.0422 45.2816 67.3842 45.1771C67.4032 45.1771 67.4127 45.1676 67.4222 45.1581C68.2202 45.0346 69.0181 44.8352 69.7875 44.5407C70.8609 44.1227 71.8773 43.5148 72.6468 42.6408C72.9128 42.3369 73.1407 42.0044 73.3402 41.6624C73.3402 42.2989 73.5112 42.9258 73.6822 43.5338C73.9387 44.3982 74.1951 45.2626 74.0526 46.1841C73.9767 46.64 73.8342 47.0865 73.6632 47.5044C73.8722 47.2005 74.0622 46.906 74.2237 46.64C74.3281 46.1936 74.3851 45.7471 74.3471 45.3006C74.3091 44.8637 74.2142 44.4457 74.1002 44.0372C73.8342 43.0873 73.4352 42.0804 73.6632 41.083C73.9292 40.5795 74.1667 40.0666 74.4611 39.5726C74.6701 39.2116 74.9171 38.8602 75.2211 38.5657C75.2211 38.5657 75.2211 38.5657 75.2211 38.5562C75.544 38.0337 75.9905 37.9482 75.9905 37.9482C75.9905 37.9482 75.924 37.8722 75.8385 37.7393V37.7488Z" fill="#1D435E"/>
<path d="M29.4639 54.657C30.2904 54.5905 31.1169 54.5145 31.9434 54.41C32.1049 54.391 32.1049 54.1535 31.9624 54.1535C31.9624 54.1535 31.9529 54.1535 31.9434 54.1535C30.5469 54.315 29.1409 54.4385 27.7444 54.505C26.8324 54.5525 25.9014 54.581 24.9799 54.581C24.5144 54.581 24.0584 54.581 23.6024 54.5525C23.0609 54.5335 22.4149 54.448 22.0824 53.973C22.0539 53.935 22.016 53.916 21.978 53.916C21.883 53.916 21.7974 54.011 21.8639 54.106C22.1584 54.5335 22.6335 54.7045 23.137 54.7805C23.517 54.8375 23.9064 54.847 24.2959 54.847C24.5524 54.847 24.8184 54.847 25.0749 54.847C26.5474 54.847 28.0105 54.79 29.483 54.676L29.4639 54.657Z" fill="#5A7182"/>
<path d="M38.4116 54.9422C40.6441 54.8567 42.8766 54.6667 45.0901 54.3912C45.7171 54.3152 46.3346 54.2297 46.9616 54.1347C47.1136 54.1157 47.0661 53.8877 46.9141 53.8877H46.8951C44.7101 54.2107 42.5061 54.4482 40.3021 54.5907C39.6751 54.6287 39.0481 54.6667 38.4211 54.6857C38.2596 54.6857 38.2501 54.9422 38.4211 54.9422H38.4116Z" fill="#5A7182"/>
<path d="M35.3625 56.7948C35.9515 56.7948 36.5405 56.7473 37.12 56.6618C37.1865 56.6523 37.2245 56.5668 37.215 56.5003C37.196 56.4338 37.139 56.4053 37.082 56.4053C37.082 56.4053 37.063 56.4053 37.0535 56.4053C36.493 56.4908 35.9325 56.5383 35.3625 56.5383C34.8305 56.5383 34.2985 56.5003 33.7665 56.4243C33.7665 56.4243 33.7475 56.4243 33.738 56.4243C33.681 56.4243 33.624 56.4528 33.605 56.5193C33.586 56.5763 33.624 56.6713 33.7 56.6808C34.251 56.7568 34.8115 56.8043 35.3625 56.8043V56.7948Z" fill="#5A7182"/>
<path d="M51.1786 56.0155C51.1786 56.0155 51.2071 56.0155 51.2261 56.0155C52.309 55.6166 53.3919 55.2176 54.4843 54.8186C55.4533 54.4672 56.4412 54.1157 57.3721 53.6692C58.265 53.2323 59.1009 52.6908 59.8039 51.9879C60.4973 51.2944 61.0673 50.487 61.5707 49.6606C61.8462 49.1951 62.1027 48.7202 62.3687 48.2452C62.6062 47.8272 62.9006 47.3808 63.4041 47.2858C63.5561 47.2573 63.5086 47.0293 63.3661 47.0293C63.3661 47.0293 63.3471 47.0293 63.3376 47.0293C62.4637 47.1908 62.0932 48.2167 61.7037 48.9006C61.2193 49.7651 60.6778 50.6105 60.0224 51.3609C59.3574 52.1209 58.5785 52.7288 57.6856 53.2038C56.7736 53.6977 55.7952 54.0492 54.8263 54.4102C53.6009 54.8566 52.3755 55.3031 51.1501 55.7591C51.0076 55.8066 51.0551 56.0155 51.1786 56.0155Z" fill="#5A7182"/>
<path d="M54.0188 50.924C54.6838 50.392 55.3488 49.86 55.9853 49.2995C56.3083 49.0145 56.6218 48.7105 56.9258 48.4065C57.1823 48.15 57.4293 47.884 57.7048 47.656C58.0183 47.3995 58.3698 47.1905 58.7688 47.124C58.9208 47.0955 58.8733 46.877 58.7213 46.877C58.7213 46.877 58.7023 46.877 58.6928 46.877C57.9518 47.0005 57.3913 47.5515 56.8973 48.0645C56.2988 48.682 55.6623 49.252 54.9973 49.803C54.6078 50.126 54.2183 50.43 53.8288 50.7435C53.7243 50.829 53.8288 50.9525 53.9238 50.9525C53.9523 50.9525 53.9808 50.9525 54.0093 50.924H54.0188Z" fill="#5A7182"/>
<path d="M72.5046 46.9721C72.4761 47.6181 72.3811 48.2641 72.1531 48.8721C71.9156 49.4991 71.5261 50.0311 71.0891 50.5441C71.0321 50.6106 70.9846 50.6771 70.9276 50.7341C70.9276 50.7341 70.9276 50.7436 70.9181 50.7436C70.3386 51.3421 69.7116 51.9311 69.0181 52.5296C69.2081 52.3206 69.3886 52.1021 69.5691 51.8931C70.0441 51.3516 70.5286 50.8196 70.9846 50.2686C71.4216 49.7556 71.7826 49.1951 71.9916 48.5396C72.3811 47.3046 72.2671 45.9746 72.1531 44.7016C72.1436 44.6161 72.2006 44.5781 72.2671 44.5781C72.3336 44.5781 72.4001 44.6161 72.4096 44.7016C72.4761 45.4521 72.5426 46.2121 72.5046 46.9721Z" fill="#5A7182"/>
<path d="M69.6931 45.7465C69.3321 46.7535 68.9046 47.7225 68.3916 48.663C68.1446 49.119 67.8596 49.556 67.6126 50.0215C67.3656 50.4585 67.1566 50.9145 66.9571 51.38C66.9571 51.3895 66.9476 51.399 66.9381 51.4085C66.8906 51.6555 66.8336 51.9025 66.7766 52.1495C66.6531 52.634 66.5296 53.1185 66.3586 53.584C66.2161 53.983 66.0356 54.3725 65.7506 54.686C65.4561 55.0185 65.0761 55.2655 64.7151 55.5125C64.3541 55.7595 64.0216 56.0255 63.6986 56.32C63.6796 56.339 63.6701 56.3485 63.6606 56.358C63.4136 56.5005 63.1666 56.6335 62.9196 56.7665C63.1191 56.5385 63.3376 56.3105 63.5561 56.1015C63.8601 55.8165 64.1926 55.56 64.5346 55.3225C64.8956 55.0755 65.2661 54.838 65.5606 54.5055C65.8741 54.1445 66.0451 53.698 66.1781 53.2515C66.3301 52.7765 66.4536 52.292 66.5676 51.8075C66.7861 50.81 66.9381 49.7935 66.9951 48.777C66.9951 48.6915 67.0711 48.6535 67.1281 48.6535C67.1946 48.6535 67.2611 48.6915 67.2516 48.777C67.2231 49.328 67.1661 49.879 67.0901 50.4205C67.1756 50.24 67.2706 50.0595 67.3656 49.879C67.6031 49.442 67.8786 49.0145 68.1161 48.5775C68.6291 47.6465 69.0661 46.6775 69.4176 45.6705C69.4366 45.6135 69.4936 45.585 69.5506 45.585C69.6266 45.585 69.7026 45.6515 69.6741 45.7465H69.6931Z" fill="#5A7182"/>
<path d="M51.7579 42.8022C51.7579 42.8022 51.7769 42.8022 51.7864 42.8022C52.6698 42.6502 53.5723 42.5077 54.4747 42.5077C55.0827 42.5077 55.7001 42.5742 56.2985 42.7547C56.6405 42.8592 56.973 42.9826 57.3245 43.0776C57.6854 43.1726 58.0559 43.2296 58.4359 43.2391C58.5214 43.2391 58.5974 43.2391 58.6828 43.2391C59.3288 43.2391 59.9842 43.1441 60.6302 43.0681C61.3141 42.9826 61.9981 42.8782 62.644 42.6407C62.967 42.5267 63.2615 42.3747 63.5559 42.2037C63.8694 42.0137 64.1639 41.8712 64.5344 41.8522C64.6484 41.8522 64.7529 41.8522 64.8668 41.8522C64.9333 41.8522 64.9998 41.8522 65.0663 41.8522C65.1328 41.8522 65.1993 41.8522 65.2658 41.8522C65.3893 41.8522 65.5128 41.8522 65.6363 41.8522C65.9782 41.8332 66.3297 41.7952 66.6717 41.7382C67.3841 41.6148 68.0776 41.4153 68.7425 41.1303C69.075 40.9878 69.4075 40.8358 69.6734 40.5888C69.9014 40.3894 70.0629 40.1329 70.1864 39.8574C70.4239 39.3539 70.5664 38.708 71.0888 38.423C71.2123 38.3565 71.1363 38.1855 71.0223 38.1855C71.0033 38.1855 70.9843 38.1855 70.9558 38.2045C70.4999 38.4515 70.3004 38.917 70.1104 39.3729C70.0154 39.6104 69.9204 39.8479 69.7779 40.0664C69.6069 40.3419 69.3505 40.5318 69.075 40.6838C67.8496 41.3488 66.4057 41.6053 65.0188 41.6053C64.9713 41.6053 64.9143 41.6053 64.8668 41.6053C64.8288 41.6053 64.7813 41.6053 64.7433 41.6053C64.4489 41.6053 64.1639 41.6243 63.8884 41.7382C63.575 41.8712 63.309 42.0802 63.005 42.2227C62.378 42.5267 61.6941 42.6692 61.0102 42.7642C60.2787 42.8687 59.5378 42.9731 58.7968 42.9921C58.7493 42.9921 58.7114 42.9921 58.6639 42.9921C58.3314 42.9921 58.0084 42.9637 57.6759 42.9067C57.315 42.8307 56.9635 42.7072 56.6215 42.5932C55.9186 42.3652 55.1966 42.2512 54.4557 42.2512C54.3797 42.2512 54.2942 42.2512 54.2087 42.2512C53.3728 42.2797 52.5464 42.4127 51.7199 42.5552C51.568 42.5837 51.6154 42.8022 51.7674 42.8022H51.7579Z" fill="#5A7182"/>
<path d="M20.7431 52.9179C20.1731 53.0224 19.5747 53.1174 18.9763 53.1174C18.3778 53.1174 17.7793 53.0224 17.2379 52.7469C16.7819 52.5189 16.383 52.177 16.0505 51.778C15.908 51.5975 15.794 51.3695 15.604 51.227C15.414 51.0846 15.186 50.9991 14.9771 50.9136C14.5686 50.7521 14.0557 50.6286 13.7422 50.2961C13.5997 50.1536 13.4952 49.9637 13.4002 49.7927C13.2577 49.5647 13.1247 49.3367 12.9823 49.0992C12.7163 48.6528 12.4408 48.1493 11.9943 47.8548C11.4719 47.5129 10.8069 47.5319 10.275 47.2089C9.9615 47.0284 9.71453 46.7719 9.42005 46.5724C9.11608 46.354 8.8026 46.183 8.44163 46.0785C8.28964 46.0405 8.12816 46.0025 7.96667 45.9835C7.88118 45.8885 7.79567 45.7935 7.71017 45.708C7.99515 45.7175 8.28962 45.765 8.5651 45.8505C8.93557 45.9645 9.27755 46.164 9.59103 46.392C9.914 46.6199 10.199 46.9144 10.5599 47.0854C10.8259 47.2184 11.1299 47.2564 11.4149 47.3419C11.7283 47.4274 12.0228 47.5509 12.2793 47.7598C12.6688 48.0638 12.9347 48.5293 13.1817 48.9377C13.3242 49.1752 13.4667 49.4222 13.6092 49.6502C13.7137 49.8212 13.8182 50.0302 13.9702 50.1631C14.3121 50.4671 14.8251 50.5716 15.2336 50.7426C15.433 50.8281 15.642 50.9136 15.813 51.0656C16.003 51.2175 16.1265 51.455 16.288 51.645C16.6204 52.044 17.0194 52.3764 17.4944 52.5759C17.9693 52.7754 18.4728 52.8514 18.9763 52.8514C19.5462 52.8514 20.1256 52.7564 20.6766 52.6519H20.7051C20.8476 52.6519 20.9046 52.8704 20.7431 52.9084V52.9179Z" fill="#5A7182"/>
<path d="M24.6663 43.5999C26.6611 44.2269 28.485 45.2718 30.3658 46.1552C32.2086 47.0292 34.1465 47.7416 36.2078 47.7416C36.2363 47.7416 36.2553 47.7416 36.2838 47.7416C38.1172 47.7226 39.9505 47.2476 41.7838 47.2476C42.2683 47.2476 42.7433 47.2761 43.2277 47.3616C43.6647 47.4376 44.1112 47.5516 44.5576 47.5516C44.6241 47.5516 44.6906 47.5516 44.7571 47.5516C45.2985 47.5041 45.6785 47.2286 46.03 46.8392C46.8659 45.9368 47.6923 45.0343 48.5283 44.1319C48.7373 43.9039 48.9462 43.6759 49.1552 43.448C49.2407 43.353 49.1552 43.2295 49.0602 43.22C49.0317 43.22 49.0032 43.2295 48.9747 43.258C48.1483 44.1509 47.3219 45.0533 46.4955 45.9463C46.296 46.1647 46.087 46.3832 45.8875 46.6112C45.707 46.8012 45.5265 47.0007 45.2986 47.1337C45.0706 47.2571 44.8236 47.3046 44.5671 47.3046C44.2821 47.3046 43.9972 47.2476 43.7312 47.2001C43.1897 47.0957 42.6483 47.0197 42.0973 47.0007C42.0023 47.0007 41.9073 47.0007 41.8123 47.0007C41.3469 47.0007 40.8814 47.0292 40.4255 47.0767C39.2855 47.1907 38.1457 47.3901 36.9963 47.4661C36.7493 47.4851 36.5023 47.4946 36.2648 47.4946C35.4479 47.4946 34.6404 47.3996 33.8425 47.2097C32.8641 46.9722 31.9237 46.6017 31.0117 46.1932C29.1594 45.3573 27.3925 44.3219 25.4737 43.619C23.4599 42.878 21.2846 42.6215 19.3277 41.7286C19.0902 41.6146 18.8528 41.5006 18.6248 41.3676C18.6058 41.3581 18.5773 41.3486 18.5583 41.3486C18.4443 41.3486 18.3683 41.5196 18.4918 41.5861C20.4106 42.6595 22.6049 42.954 24.6758 43.6094L24.6663 43.5999Z" fill="#5A7182"/>
</g>
<g style="mix-blend-mode:multiply" opacity="0.25">
<path d="M75.0214 39.0115C74.8885 39.4389 75.3824 40.0564 75.4774 41.4433C75.5249 42.0512 75.4869 42.8111 75.2874 43.7706C75.1924 44.2265 75.0689 44.73 74.8884 45.2809C74.765 45.6514 74.5465 46.1169 74.214 46.6488C74.0525 46.9243 73.853 47.2093 73.6441 47.5228C72.9696 48.4822 72.0482 49.5936 70.9178 50.7335C70.9178 50.7335 70.9178 50.743 70.9083 50.743C70.3288 51.3414 69.7019 51.9304 69.0084 52.5288C67.4791 53.8682 65.6837 55.1981 63.6604 56.357C63.4134 56.4995 63.1664 56.6325 62.9194 56.7655C60.3546 58.1524 57.4574 59.2543 54.3037 59.7862C51.3019 60.2897 48.1957 62.389 39.4754 62.237C39.3519 62.237 39.2284 62.237 39.1049 62.237C37.5756 62.199 35.8752 62.0945 33.9753 61.9046C32.7784 61.7811 31.5911 61.5626 30.4322 61.2681C30.2802 61.2301 30.1377 61.1921 29.9952 61.1446C24.8561 59.7292 20.078 56.775 16.1168 53.6307C16.0883 53.6117 16.0789 53.6022 16.0694 53.6022C12.6496 50.8855 9.83786 48.0547 7.94751 45.9934C7.86202 45.8984 7.77654 45.8034 7.69105 45.7179C7.55806 45.5659 7.42506 45.4234 7.30157 45.2809C8.44148 46.4683 15.1859 52.8518 28.9313 53.5168C44.1015 54.2482 58.3503 41.0443 62.378 39.6574C64.1069 39.059 66.6147 38.774 68.999 38.318C72.1812 37.7101 75.1829 37.1021 75.9714 37.957C75.9714 37.957 75.8099 37.9856 75.6104 38.1185C75.4774 38.2135 75.3254 38.356 75.1924 38.5745C75.1164 38.698 75.0499 38.8405 75.0024 39.0115H75.0214Z" fill="#B58F53"/>
</g>
<g style="mix-blend-mode:soft-light" opacity="0.3">
<path d="M21.5124 39.8855C21.5124 39.8855 17.0003 40.0565 13.6851 39.0591C10.3698 38.0617 4.57531 34.9934 2.04852 31.5452C0.652133 29.3224 -0.1078 26.4061 0.0631857 23.4709C0.0631857 23.3189 0.0821922 23.1669 0.101191 23.0244C0.889625 26.6341 2.65646 29.5219 6.52264 33.3881C10.5598 37.4347 21.5124 39.8855 21.5124 39.8855Z" fill="#FFF5D6"/>
</g>
<path d="M75.9903 37.9574C70.6233 36.8175 70.7753 39.7433 44.2535 42.1181C37.927 42.6785 32.066 42.0991 27.0409 41.1492H27.0219C21.6644 40.1327 17.2662 38.6794 14.2835 37.7579C2.32398 34.0153 0.0726428 23.4996 0.0726428 23.4996C0.0726428 23.4996 0.0726428 23.4996 0.0726428 23.4901C0.0536444 23.4236 -0.0223272 23.1197 0.00617038 22.7682C0.0441672 22.3692 0.205646 22.1982 0.205646 22.1982C0.205646 22.1982 1.39304 31.7544 12.4881 36.523C18.4346 39.0783 27.3924 41.6906 39.9408 41.7476C46.1723 41.7761 53.2967 41.1777 61.3805 39.6198C67.0991 38.5274 70.4903 37.7864 72.4851 37.5395C75.1354 37.2165 75.3254 37.606 75.5059 37.6535C75.6104 37.682 75.6958 37.682 75.7718 37.6725C75.7718 37.6725 75.8003 37.7105 75.8098 37.739L75.8288 37.7674C75.9143 37.9004 75.9808 37.9764 75.9808 37.9764L75.9903 37.9574Z" fill="#574528"/>
<g style="mix-blend-mode:multiply" opacity="0.22">
<path d="M24.6757 24.9899C25.4451 25.1989 27.174 25.1704 27.155 25.1039C27.1455 25.0564 26.0436 24.9994 25.5591 24.9139C23.3458 24.553 21.3035 23.2611 20.0211 21.4182C19.6031 20.8198 19.2707 20.1643 19.0332 19.4709C19.3181 19.4424 19.6031 19.3664 19.8786 19.2524C20.401 19.0434 20.914 18.825 21.4459 18.635C21.9874 18.445 22.5289 18.274 23.0703 18.1315C24.1627 17.837 25.2741 17.6281 26.4045 17.5141C27.7629 17.3716 29.1403 17.3621 30.5082 17.4761C30.5177 17.4761 30.5272 17.4761 30.5367 17.4761C31.4106 17.5521 32.2846 17.6756 33.1395 17.856C33.415 17.9225 34.0894 18.0175 34.1084 17.951C34.1274 17.8845 32.0186 17.3621 31.0022 17.2576C32.693 16.4407 34.4219 15.6997 36.2457 15.2533C36.6257 15.1583 37.0057 15.0918 37.3857 15.0348C37.3857 15.0538 40.4254 16.9631 41.9738 19.6514C42.5152 20.5918 43.0472 21.5417 43.4081 22.5581C43.7881 23.6126 43.9781 24.686 44.1111 25.7974C44.2441 26.9278 44.4151 28.0867 45.1465 28.9986C45.441 29.3691 45.8209 29.6731 46.2579 29.8535C46.7424 30.053 47.2553 30.034 47.7683 29.939C48.2907 29.8535 48.8227 29.6826 49.3546 29.73C49.8486 29.7775 50.2096 30.0815 50.4376 30.509C50.6465 30.8985 50.77 31.3259 50.9695 31.7154C51.188 32.1428 51.5015 32.4753 51.9479 32.6653C52.4989 32.9028 53.1258 32.9978 53.7053 33.1308C54.3607 33.2828 55.0257 33.4347 55.6811 33.5867C57.011 33.8907 58.3409 34.1947 59.6708 34.4987C59.9938 34.5746 60.7727 34.6411 60.6112 34.6031C57.9799 33.9952 55.4436 33.2733 52.8124 32.6653C52.2899 32.5418 51.739 32.3898 51.397 31.9434C51.131 31.5919 50.998 31.1549 50.827 30.756C50.6655 30.3665 50.4565 29.9865 50.1051 29.7395C49.6966 29.4451 49.1836 29.4356 48.6992 29.5021C48.1672 29.5781 47.6448 29.7395 47.1128 29.749C46.5904 29.749 46.1059 29.5591 45.7164 29.2171C44.8235 28.4572 44.5575 27.2887 44.4056 26.1773C44.3296 25.5979 44.2821 25.0184 44.1776 24.4485C44.0826 23.9355 43.9591 23.4226 43.7976 22.9191C43.4746 21.9027 43.0282 20.9243 42.4867 20.0029C41.4038 18.16 39.9314 16.5261 38.1931 15.2912C38.0411 15.1773 37.8796 15.0823 37.7181 14.9778C38.2311 14.9113 38.744 14.8733 39.257 14.8638C39.9409 14.8543 40.6154 14.8638 41.2898 14.8068C41.3088 14.8258 44.2156 16.2792 47.9488 16.2032C49.0507 16.1842 50.1526 16.0417 51.188 15.6712C51.7105 15.4812 52.2044 15.2058 52.7363 15.0443C53.0118 14.9588 53.3063 14.9113 53.5913 14.9588C53.8573 15.0063 54.1042 15.1108 54.3417 15.2438C54.9307 15.5762 55.4816 15.9942 56.0421 16.3742C56.6405 16.7826 57.9514 17.6091 57.9894 17.5521C58.0274 17.4951 55.8616 15.9087 54.7977 15.2153C54.3607 14.9303 53.8858 14.6738 53.3538 14.6738C52.8029 14.6738 52.2899 14.9113 51.7959 15.1393C49.6966 16.0797 47.3788 16.0797 45.156 15.6427C44.0256 15.4242 42.9237 15.1013 41.8313 14.7308C41.9928 14.7118 42.1542 14.6928 42.3157 14.6548C43.3606 14.4363 45.327 13.3154 45.2985 13.2584C45.27 13.2014 43.4461 14.1133 42.5247 14.3413C41.4988 14.5883 40.4634 14.5788 39.409 14.5883C37.3856 14.6073 35.4288 15.0823 33.548 15.8232C32.5125 16.2317 31.4961 16.6971 30.4987 17.1911C29.4348 17.0961 28.3519 17.0866 27.288 17.1531C25.0272 17.2956 22.7948 17.78 20.686 18.6065C20.1731 18.806 19.6506 19.1004 19.0902 19.1859C18.5107 19.2714 17.9598 19.0244 17.4658 18.749C17.0098 18.4925 16.5634 18.2075 16.0979 17.97C15.642 17.7325 15.1765 17.5141 14.692 17.3241C12.7637 16.5451 10.6929 16.1272 8.61254 16.0797C6.53221 16.0322 4.44237 16.3647 2.48553 17.0771C2.46654 17.0866 2.43803 17.0961 2.41903 17.1056C2.29554 17.2481 2.18156 17.3811 2.06757 17.5236C3.91991 16.7826 5.90525 16.3837 7.89059 16.3457C9.97091 16.3077 12.0417 16.6306 13.9986 17.3336C14.9865 17.6945 15.9364 18.141 16.8389 18.692C17.2853 18.9579 17.7508 19.2429 18.2637 19.3759C18.4252 19.4139 18.5772 19.4424 18.7387 19.4424C19.6221 22.1212 21.9399 24.211 24.6472 24.9519L24.6757 24.9899Z" fill="#1D435E"/>
<path d="M70.1104 33.8621C69.1605 34.014 68.2961 34.5365 67.4981 35.04C66.5862 35.6194 65.7028 36.2559 64.6769 36.6168C62.511 37.3768 60.1457 37.0348 57.9704 37.7377C56.8685 38.0892 55.8426 38.6307 54.7597 39.0296C53.6293 39.4571 52.4704 39.6471 51.264 39.7041C50.0101 39.7611 48.7562 39.7516 47.5118 39.7611C46.2389 39.7706 44.9755 39.7801 43.7026 39.7991C41.1568 39.8181 38.6015 39.8466 36.0557 39.8656C34.8113 39.8751 33.5574 39.9131 32.313 39.8941C31.7146 39.8941 31.1162 39.8466 30.5272 39.7231C29.9573 39.5996 29.4253 39.3621 28.8838 39.1436C28.3519 38.9251 27.8104 38.7542 27.231 38.6972C26.623 38.6402 26.0151 38.6782 25.4166 38.7162C24.4002 38.7921 23.3743 38.8681 22.3959 38.5357C21.5219 38.2317 20.781 37.5762 20.686 36.6073C20.5815 35.5719 21.142 34.603 21.8924 33.9191C22.4813 33.3776 23.1843 32.9786 23.8967 32.5987C23.8967 32.5987 23.8968 32.5987 23.9063 32.5987C25.9486 32.7886 27.9909 32.9691 30.0332 33.1591C31.0116 33.2446 31.9996 33.3776 32.978 33.4061C33.8899 33.4346 34.7924 33.3776 35.4858 32.7506C36.6067 31.7342 38.0981 31.7532 38.1171 31.6867C38.1361 31.6202 36.5402 31.8007 35.9132 32.2377C35.5618 32.4847 35.2008 32.7316 34.8018 32.8931C34.3554 33.0641 33.8804 33.1306 33.396 33.1496C32.427 33.1781 31.4486 33.0356 30.4797 32.9501C29.4443 32.8551 28.4089 32.7601 27.3735 32.6652C26.3475 32.5702 25.3216 32.4752 24.2957 32.3802C24.4477 32.3042 24.5902 32.2282 24.7422 32.1427C25.8536 31.5442 26.965 30.9458 28.0859 30.3473C28.6369 30.0529 29.8053 29.3499 29.7768 29.2929C29.7483 29.2359 27.3355 30.4613 26.205 31.0693C25.1411 31.6392 24.0582 32.1902 23.0133 32.8076C22.1299 33.3301 21.2655 33.9855 20.7905 34.926C20.363 35.7809 20.2585 36.8448 20.8095 37.6712C21.294 38.4027 22.1394 38.7826 22.9753 38.9441C24.0582 39.1436 25.1506 38.9631 26.2335 38.9251C26.851 38.9061 27.4684 38.9346 28.0669 39.1151C28.6178 39.2766 29.1403 39.5331 29.6818 39.7421C30.8027 40.16 31.9901 40.1695 33.168 40.16C35.7423 40.141 38.3071 40.1125 40.8813 40.0935C43.4556 40.0745 46.0204 40.046 48.5947 40.027C49.8296 40.0175 51.0645 40.0365 52.2899 39.9036C52.6223 39.8656 52.9548 39.8181 53.2873 39.7516C53.3063 39.7516 53.3253 39.7706 53.3538 39.7706C55.6431 39.3526 60.4592 39.2006 60.2977 39.1816C58.5024 39.0296 56.6975 39.0676 54.9212 39.2766C55.1682 39.1816 55.4151 39.0771 55.6621 38.9726C56.726 38.5167 57.7804 38.0227 58.9203 37.7757C60.0507 37.5288 61.2191 37.4908 62.3686 37.3768C63.4895 37.2628 64.5819 37.0443 65.5983 36.5408C66.5577 36.0659 67.4031 35.4104 68.3341 34.8785C69.132 34.4225 69.9679 34.0805 70.9083 34.09C71.6683 34.0995 72.4852 34.318 73.0362 34.869C73.2927 35.1255 73.4636 35.4389 73.5396 35.7999C73.5776 35.9614 73.8246 35.8949 73.7866 35.7334C73.4256 34.1375 71.5353 33.6626 70.1199 33.9001L70.1104 33.8621Z" fill="#05141F"/>
<path d="M71.9153 27.5551C71.3928 27.1562 70.8039 26.8427 70.177 26.6337C69.5785 26.4342 68.9611 26.3107 68.3721 26.0923C67.7832 25.8833 67.2322 25.5603 66.8902 25.0093C66.7003 24.6959 66.5862 24.3444 66.4533 24.0119C66.3298 23.6985 66.1968 23.3945 66.0353 23.1095C65.7883 22.663 65.4843 22.2451 65.1424 21.8651C65.1424 21.8461 65.1614 21.8366 65.1614 21.8176C65.0284 20.6492 64.8479 19.4808 64.6294 18.3314C64.5154 17.7615 64.3919 17.1915 64.2589 16.6215C64.1355 16.0896 64.012 15.5576 63.8315 15.0447C63.67 14.5792 63.442 14.1328 63.1 13.7813C62.7676 13.4393 62.3591 13.1828 61.9221 12.9833C61.4472 12.7649 60.9437 12.5844 60.4498 12.4134C59.8988 12.2139 59.3384 12.0334 58.7779 11.8529C57.6665 11.5015 56.5456 11.207 55.4152 10.9315C54.9402 10.8175 54.4748 10.675 54.2183 10.2191C54.0188 9.85811 53.9713 9.43064 53.9048 9.03168C53.8383 8.61371 53.7528 8.19575 53.5249 7.83478C53.3824 7.6068 53.2019 7.41681 52.9929 7.25532C53.1354 7.29332 53.2779 7.33132 53.4203 7.36931C54.7407 7.71129 56.0516 8.09125 57.3815 8.38573C57.9515 8.51872 58.5214 8.63271 59.1009 8.6992C59.8323 8.7847 60.5733 8.7277 61.3047 8.7562C61.7512 8.7657 62.1786 8.83219 62.5966 8.98418C62.9956 9.12667 63.366 9.32615 63.727 9.55413C64.183 9.82961 64.6484 10.1241 65.0949 10.4186C64.7909 10.1051 64.4584 9.79161 64.1165 9.48764L64.107 9.47814C63.4705 9.07917 62.8056 8.7087 62.0646 8.56621C61.2287 8.41423 60.3833 8.53772 59.5378 8.48072C58.9869 8.44272 58.4359 8.33823 57.8945 8.22424C56.5646 7.94877 55.2632 7.5878 53.9523 7.23633C53.2684 7.05584 52.5749 6.85636 51.872 6.69487C51.4255 6.56188 50.9601 6.47639 50.4946 6.41939C50.4091 6.40989 50.3236 6.40039 50.2286 6.3814C50.1336 6.3719 50.0386 6.3529 49.9436 6.3434H49.9246C47.5973 6.06792 45.251 5.93493 42.9142 5.95393C42.6197 5.95393 41.8978 6.03942 41.8978 6.09642C41.8978 6.15341 46.7329 6.25791 49.0697 6.50489C49.3547 6.53338 49.6397 6.56188 49.9342 6.59038C49.9342 6.59038 49.9436 6.59038 49.9531 6.59038C50.5421 6.65687 51.1311 6.77086 51.72 6.91335C51.8055 6.94185 51.9005 6.96085 51.986 6.98934C52.3755 7.12233 52.7554 7.32182 53.0404 7.60679C53.3349 7.90127 53.4964 8.27174 53.5818 8.68021C53.7528 9.44964 53.7433 10.3711 54.4843 10.846C54.9117 11.1215 55.4532 11.188 55.9377 11.302C56.4886 11.435 57.0395 11.587 57.581 11.7389C58.6829 12.0524 59.7753 12.4134 60.8487 12.8029C61.7797 13.1448 62.7486 13.5248 63.271 14.4177C63.5275 14.8547 63.67 15.3487 63.803 15.8331C63.9455 16.3841 64.0785 16.935 64.1924 17.486C64.4394 18.6259 64.6389 19.7753 64.7909 20.9247C64.8194 21.1337 64.8384 21.3427 64.8669 21.5516C64.2875 20.9722 62.7296 20.1552 62.6916 20.2027C62.6441 20.2597 64.9524 21.8271 65.6553 22.948C65.8263 23.2235 65.9878 23.518 66.1113 23.8219C66.2538 24.1449 66.3583 24.4869 66.5103 24.8099C66.7002 25.2278 66.9852 25.5603 67.3367 25.8263C67.3367 25.8263 67.3367 25.8263 67.3462 25.8263C67.1467 25.8263 66.9567 25.8453 66.7668 25.9213C66.4343 26.0543 66.1683 26.2822 65.9023 26.5102C65.6553 26.7287 65.3704 26.9377 65.0284 26.9567C64.5629 26.9852 64.107 26.7192 63.727 26.4817C63.29 26.2252 62.8721 25.9308 62.3971 25.7408C62.1976 25.6553 61.9791 25.5983 61.7606 25.5888C61.4567 25.5793 61.1527 25.6553 60.8487 25.6838C59.4239 25.7978 57.9895 25.5888 56.6121 25.2088C55.0447 24.7719 51.91 23.423 51.872 23.4705C51.834 23.518 55.8331 25.8548 60.1363 25.9688C60.4878 25.9783 60.8487 25.9403 61.2002 25.9023C61.4567 25.8738 61.7132 25.8168 61.9696 25.8738C62.4541 25.9783 62.8816 26.2727 63.2995 26.5292C64.012 26.9662 64.8764 27.5076 65.6933 26.9947C66.0163 26.7857 66.2728 26.4912 66.6053 26.2917C67.0517 26.0163 67.5362 26.0448 68.0207 26.2062C68.0207 26.2062 68.0206 26.2062 68.0301 26.2062C68.0301 26.2062 68.0397 26.2062 68.0491 26.2062C68.5146 26.4057 69.0086 26.5292 69.493 26.6622C70.12 26.8332 70.7184 27.0422 71.2789 27.3841C72.4283 28.0966 73.3117 29.17 74.0147 30.3004C74.5181 31.1173 74.9361 31.9723 75.354 32.8367C75.354 32.6657 75.354 32.4757 75.354 32.2762C74.4706 30.4904 73.5397 28.7425 71.9248 27.5171L71.9153 27.5551Z" fill="#1D435E"/>
<path d="M67.4508 17.3149C67.5838 17.8849 67.5648 18.4644 67.8213 19.0059C68.0303 19.4524 68.3628 19.8324 68.7238 20.1459C69.1133 20.4784 69.5408 20.7539 69.9778 21.0104C70.5193 21.3334 71.0608 21.6469 71.5928 21.9889C71.7068 22.0649 71.8208 22.1314 71.9348 22.2074C71.8778 22.0744 71.8208 21.9414 71.7638 21.7989C71.3933 21.5614 71.0323 21.3334 70.6618 21.1149C70.2058 20.8489 69.7403 20.5829 69.3033 20.2694C68.8853 19.9654 68.4863 19.6139 68.2108 19.1864C67.8878 18.6734 67.8403 18.1224 67.7643 17.5334C67.5743 16.2604 65.4938 14.6359 65.4558 14.6929C65.4178 14.7404 67.2228 16.2414 67.4603 17.3244L67.4508 17.3149Z" fill="#1D435E"/>
<path d="M18.8432 9.85841C19.5556 9.67793 20.268 9.46894 20.9425 9.16497C20.9425 9.16497 20.9425 9.16497 20.952 9.16497C20.971 9.16497 20.9805 9.17447 20.9995 9.16497C22.5004 8.87049 24.0012 8.58552 25.5021 8.30054C27.003 8.01556 28.5038 7.72109 30.0047 7.47411C30.7742 7.35062 31.5531 7.26513 32.332 7.32212C32.4365 7.32212 32.5315 7.35062 32.636 7.36012C32.655 7.36962 32.6645 7.38862 32.6835 7.38862C32.7405 7.38862 32.807 7.38862 32.864 7.38862C33.377 7.48361 33.8804 7.64509 34.3554 7.89207C35.4478 8.44303 36.3882 9.25046 37.5281 9.71592C38.1361 9.9629 38.7725 10.0579 39.4184 9.9534C39.9599 9.86791 40.8623 9.53544 41.2708 10.0674C41.3753 10.2004 41.5938 10.0674 41.4893 9.93441C41.1188 9.45945 40.5204 9.49744 39.9789 9.58294C39.6749 9.63043 39.371 9.71592 39.067 9.73492C38.7725 9.75392 38.4685 9.72542 38.1836 9.64943C36.9677 9.35495 35.9607 8.50002 34.8968 7.89207C34.4314 7.6261 33.9469 7.39812 33.434 7.25563C33.8329 7.07514 34.1939 6.77117 34.5264 6.50519C35.1628 6.00173 35.8752 5.60277 36.6352 5.32729C37.0816 5.1658 37.5376 5.04231 37.9936 4.96632C38.1551 4.93782 38.0885 4.69084 37.9271 4.71934C37.1291 4.86183 36.3597 5.11831 35.6377 5.48878C35.2863 5.66926 34.9443 5.87824 34.6214 6.11572C34.3364 6.32471 34.0609 6.57168 33.7664 6.77117C33.4814 6.97065 33.168 7.12264 32.8165 7.13214C32.123 7.02765 31.4201 7.04665 30.7267 7.12264C29.9572 7.20813 29.1973 7.36012 28.4374 7.49311C27.6679 7.6356 26.8985 7.77809 26.1291 7.92057C24.6567 8.19605 23.1843 8.48103 21.7119 8.766C21.8354 8.69001 21.9589 8.61402 22.0824 8.52852C23.0038 7.90158 23.6783 6.87566 24.7327 6.44819C25.3406 6.20121 25.9961 6.20122 26.6135 6.01123C27.06 5.87824 27.4684 5.63126 27.8389 5.33679C28.5988 4.72884 29.1593 3.91191 29.8527 3.23746C30.2137 2.88599 30.6032 2.57252 31.0686 2.37303C31.6481 2.10706 32.2845 2.00257 32.9115 1.93607C35.6663 1.6036 38.4305 1.32812 41.1853 1.03365C40.7578 0.986149 40.3209 0.948153 39.8744 0.910156C37.8701 1.12864 35.8753 1.34712 33.8804 1.5656C32.693 1.69859 31.4296 1.75558 30.4037 2.44903C29.5868 2.99998 29.0073 3.80741 28.3329 4.51036C28.0099 4.86183 27.6584 5.1943 27.25 5.44128C26.7465 5.74525 26.1956 5.85924 25.6256 5.95424C25.0272 6.05873 24.4762 6.22021 23.9727 6.57168C23.5263 6.89466 23.1273 7.28413 22.7283 7.6641C22.2914 8.06306 21.8259 8.41453 21.3034 8.69951C20.762 8.97499 20.192 9.19347 19.6126 9.36445C18.3587 9.74442 17.0573 10.0199 15.7749 10.2954C13.4951 10.7988 11.1868 11.2453 8.86898 11.6253C8.73599 11.7298 8.60302 11.8342 8.47003 11.9482C10.5979 11.6158 12.7162 11.2168 14.825 10.7608C16.1549 10.4854 17.4943 10.1909 18.8147 9.84891L18.8432 9.85841Z" fill="#1D435E"/>
<path d="M18.9952 6.13393C20.781 4.64255 22.3484 2.8662 24.3147 1.6123C24.0488 1.6788 23.7923 1.75479 23.5358 1.83079C23.1748 2.08726 22.8424 2.35324 22.5099 2.62872C20.4581 4.33858 18.6912 6.42841 16.2784 7.6633C15.034 8.29975 13.6566 8.67972 12.2507 8.53723C12.1747 8.60372 12.1083 8.67022 12.0323 8.73671C12.0513 8.76521 12.5167 8.8222 12.7162 8.8222C15.0625 8.8697 17.2378 7.58731 18.9857 6.11493L18.9952 6.13393Z" fill="#1D435E"/>
<path d="M3.50206 24.6579C3.37856 24.4204 3.26455 24.1734 3.16005 23.9264C3.13155 23.8599 3.07456 23.8124 2.99856 23.8314C2.94156 23.8504 2.88457 23.9264 2.91307 23.9929C3.29307 24.9049 3.81556 25.7504 4.45206 26.4914C4.63256 26.7004 4.83205 26.9094 5.03155 27.0994C5.15505 27.2134 5.33555 27.0329 5.21205 26.9189C4.52805 26.2634 3.94856 25.4939 3.50206 24.6579Z" fill="#1D435E"/>
<path d="M9.12556 30.6428C9.06856 30.5953 8.99256 30.5858 8.94506 30.6428C8.89756 30.6903 8.88806 30.7853 8.94506 30.8233C9.99956 31.6403 11.0921 32.3908 12.2321 33.0748C12.5551 33.2743 12.8781 33.4548 13.2106 33.6448C13.3531 33.7303 13.486 33.5023 13.3435 33.4263C11.871 32.5998 10.4556 31.6783 9.12556 30.6428Z" fill="#1D435E"/>
</g>
<g style="mix-blend-mode:multiply" opacity="0.22">
<path d="M75.3444 32.3138C75.3444 32.5133 75.3444 32.6938 75.3444 32.8743C75.3064 33.9762 75.1639 34.7931 75.0689 35.1826C75.0404 35.3061 75.0215 35.42 75.0215 35.5435C75.0215 35.5435 67.5456 38.3078 49.2026 39.7422C40.8908 40.3976 32.788 41.9935 17.9122 36.3035C16.2783 35.6765 7.67205 31.8578 8.94495 30.8224C10.2178 29.7965 20.9994 36.1895 30.2707 37.1204C39.1144 38.0038 64.0498 35.705 68.676 34.5366C71.5827 33.8052 74.9549 32.6463 75.0689 29.3311C75.2779 30.4235 75.3444 31.4304 75.3444 32.3138Z" fill="#6C599C"/>
</g>
<g style="mix-blend-mode:soft-light" opacity="0.83">
<path d="M2.09603 20.1081C1.99154 19.1487 1.91555 18.4267 1.85855 17.8568C1.93454 17.7618 2.01054 17.6573 2.09603 17.5528C2.21002 17.4198 2.32401 17.2773 2.4475 17.1348C2.58999 16.9734 2.74198 16.8119 2.90347 16.6504C2.90347 16.6504 2.82749 20.0606 3.8344 22.7299C4.99331 25.8266 7.2446 28.2584 7.14011 28.3534C6.95013 28.5244 2.6375 24.9812 2.10554 20.0986L2.09603 20.1081Z" fill="#CCC4AB"/>
</g>
<g style="mix-blend-mode:soft-light" opacity="0.3">
<path d="M63.4894 8.96542C61.2476 15.9473 50.599 9.81085 41.2708 13.2211C31.952 16.6313 27.1074 25.817 16.1168 22.9673C9.17293 21.1624 7.95702 15.9473 8.00452 12.3376C8.166 12.2142 8.3275 12.0812 8.48898 11.9577C8.63147 11.8342 8.75497 11.7392 8.88796 11.6252C9.03045 11.5112 9.16341 11.4067 9.3059 11.2927C9.91385 10.7988 10.8163 9.85835 12.0322 8.74694C12.1082 8.67095 12.1747 8.61395 12.2507 8.54746C13.5996 7.33156 15.3094 5.91618 17.4277 4.63378C18.5392 3.94984 19.7645 3.30389 21.1039 2.73394C21.8829 2.40147 22.6903 2.10699 23.5357 1.84101C23.7922 1.76502 24.0487 1.68903 24.3147 1.62253H24.3242C26.357 1.06208 28.5988 0.70111 31.0781 0.663113C34.2698 0.615617 37.1956 0.701108 39.8839 0.91959C40.3208 0.957587 40.7578 0.995585 41.1948 1.04308C52.2613 2.11649 59.1008 5.30823 63.4704 8.98442L63.4894 8.96542Z" fill="#FFF5D6"/>
</g>
<g style="mix-blend-mode:multiply" opacity="0.25">
<path d="M72.6276 23.4705C72.5991 25.1043 71.5352 28.5525 64.1259 31.4593C54.0092 35.4205 44.51 32.9507 31.4486 32.1337C18.3967 31.3168 19.1661 26.9662 26.205 26.3582C33.2439 25.7408 40.6913 17.8374 47.4072 16.6595C52.1188 15.8331 57.9134 17.258 62.188 17.2865C66.3392 17.3245 69.0464 16.0516 69.1984 15.9756C70.4523 18.2649 71.1553 20.3452 71.7537 21.7891C71.8202 21.9411 71.8772 22.0741 71.9247 22.2071C72.1242 22.663 72.3142 23.0335 72.5136 23.309C72.5516 23.3565 72.5897 23.4135 72.6181 23.4705H72.6276Z" fill="#B58F53"/>
</g>
<g style="mix-blend-mode:multiply" opacity="0.22">
<path d="M75.9903 37.9569C75.9903 37.9569 75.5439 38.0424 75.2209 38.5649C75.2209 38.5649 75.2209 38.5649 75.2209 38.5744C75.1449 38.6979 75.0784 38.8404 75.0309 39.0114C75.0024 39.1063 75.0024 39.2108 75.0309 39.3343C74.5179 39.8093 73.6155 40.5027 72.1906 41.1392C69.9678 42.1461 64.0973 42.982 62.8434 43.153C62.8339 43.153 62.8149 43.153 62.8054 43.153C62.7864 43.153 62.7674 43.153 62.7389 43.153C62.6439 43.172 62.5964 43.172 62.5964 43.172C59.8227 43.476 54.9211 44.3689 46.0583 44.5304C26.7274 44.8724 21.5219 40.1798 21.5219 40.1798C21.5219 40.1798 27.8388 42.6211 39.8458 42.6211C43.769 42.6211 53.3062 41.1297 61.39 39.5813C67.1086 38.4889 70.4998 37.748 72.4946 37.501C75.1449 37.178 75.3349 37.5675 75.5154 37.615C75.6198 37.6435 75.7053 37.6435 75.7813 37.634L75.8288 37.7005L75.8478 37.7195C75.9333 37.8619 75.9998 37.9379 75.9998 37.9379L75.9903 37.9569Z" fill="#6C599C"/>
</g>
<g style="mix-blend-mode:soft-light" opacity="0.3">
<path d="M40.1214 10.1051C40.2354 10.6085 22.1014 12.1474 18.9381 7.86324C17.9027 6.46686 17.5038 5.42194 17.4278 4.64301C18.5392 3.95906 19.7646 3.31312 21.104 2.74316C21.5884 4.81399 24.0392 7.91073 33.7189 9.44961C38.1075 10.143 40.0074 9.60159 40.1214 10.1146V10.1051Z" fill="#FFF5D6"/>
</g>
</svg>
