<svg width="76" height="66" viewBox="0 0 76 66" fill="none" xmlns="http://www.w3.org/2000/svg">
<path d="M74.4332 46.4411C74.0056 46.7072 73.4924 46.8878 72.8841 47.0209C69.5388 47.7622 67.6095 44.3503 61.6602 44.6924C60.9759 44.7305 60.3012 44.3598 59.6359 43.8181H59.6264C58.4099 42.8297 57.26 41.2426 56.2241 40.4348C56.148 40.3777 56.0815 40.3302 55.996 40.2922C55.8249 40.1687 55.6633 40.0831 55.5113 40.0166C55.1121 39.855 54.732 39.7695 54.3708 39.722H54.3423C52.6507 39.5129 51.4722 40.3587 51.0255 40.7579C50.8925 40.8814 50.8259 40.9575 50.8259 40.9575C50.8259 40.9575 50.8545 41.081 50.921 41.2901C51.2916 42.5826 52.8027 47.268 55.2072 47.8857C55.3497 47.9237 55.5018 47.9427 55.6443 47.9522C58.7235 48.0853 66.8683 48.4844 68.7405 53.2268C68.7405 53.2268 70.1185 55.9734 69.1206 58.4254C69.1206 58.4349 69.1111 58.4539 69.1111 58.4539C68.8165 59.1571 68.3413 59.8319 67.6 60.4021C67.5905 60.4021 67.5905 60.4116 67.5715 60.4116C66.3265 61.362 64.3593 62.0558 61.261 62.1983C61.185 62.1983 61.09 62.2078 61.0139 62.2078H61.0044C60.7098 62.2364 60.4532 62.2744 60.1966 62.3314C56.5472 63.0822 56.9463 66.6271 49.2293 65.3441C46.8249 64.9354 45.4183 61.5331 45.4183 61.5331C45.4183 61.5331 43.6221 65.0019 36.8744 64.5363C30.5545 64.0991 26.81 60.3261 26.6389 56.5246C26.6294 56.249 26.6294 55.9829 26.6484 55.7168C26.6484 55.7168 26.6199 55.7263 26.5724 55.7548C26.5059 55.7833 26.4298 55.8118 26.3253 55.8498C25.1658 56.2585 21.0792 57.3609 17.5533 53.816C15.9757 52.2289 15.8047 50.3472 15.8047 49.6629C15.8047 49.4823 15.8142 49.3683 15.8142 49.3683C15.8142 49.3683 15.6336 49.3588 15.3295 49.3018C13.7994 49.0737 9.15204 48.0758 7.93556 44.2933C6.47198 39.76 7.46988 38.2869 7.46988 38.2869C7.46988 38.2869 -0.513265 39.6365 0.0284482 31.7579C0.0379519 31.6533 0.0379519 31.5583 0.0569594 31.4632C0.151997 30.4083 0.361079 29.515 0.636688 28.7642C3.03163 22.3587 11.3759 26.3217 13.8089 27.8233C14.208 28.0704 14.4456 28.2605 14.4836 28.327C14.8163 28.8592 18.7508 26.9205 19.8913 27.9278V27.8898C19.7962 27.4907 19.1405 24.2499 17.6959 23.252C17.6959 23.252 17.8765 23.2235 18.1806 23.157C19.6727 22.8909 24.1489 22.007 25.1468 20.9711H25.1563C25.2229 20.9046 25.2799 20.8381 25.2989 20.7715C25.2989 20.7715 25.0708 20.648 24.7952 20.3914C24.2155 19.8592 23.4362 18.7092 23.9589 16.6754H23.8923C23.113 16.78 14.9113 17.7208 12.6684 12.2467C12.6589 12.2182 12.6399 12.2087 12.6399 12.2087C12.3738 11.5624 12.2027 10.8021 12.1267 9.95627C12.1172 9.7757 12.0982 9.58563 12.0982 9.41456C11.8986 3.22763 17.5724 4.44411 19.6062 5.76513C19.9483 5.99321 20.1859 6.2118 20.2809 6.41138L20.2429 6.2118C20.1384 5.40398 19.8818 2.42931 22.3147 1.17482H22.3242C22.5618 1.04177 22.8374 0.937225 23.1415 0.861195C23.2461 0.832684 23.3411 0.804173 23.4457 0.794669C27.0666 0.0533772 29.1574 4.53914 29.1574 4.53914C29.1574 4.53914 29.1574 4.4346 29.1859 4.26353C29.1954 4.25403 29.1859 4.25403 29.1859 4.23502C29.3095 3.37969 29.8702 0.918218 32.2271 0.718639C32.5883 0.690128 32.9589 0.709135 33.3296 0.785165H33.3391C35.9811 1.25085 38.9368 3.75033 40.5049 3.81686C42.0255 3.88338 44.5345 5.09986 45.4943 7.49481C45.5989 7.7324 45.6749 7.9795 45.7414 8.2456C45.7985 8.47369 45.8365 8.71128 45.865 8.95838C45.865 8.95838 45.96 8.77781 46.1596 8.52121C46.7393 7.77041 48.2504 6.35436 50.9495 6.94359C54.5419 7.75141 56.4236 12.4177 59.0277 13.4917C59.5124 13.6912 60.1301 13.9669 60.7954 14.3375H60.8049C61.033 14.461 61.2706 14.5846 61.5081 14.7367C61.8503 14.9457 62.2114 15.1738 62.5821 15.4209C65.2526 17.2837 68.1513 20.4484 68.636 25.6565C68.9116 28.5266 69.8144 29.8666 70.8978 30.8835C71.5346 31.4918 72.2379 31.9954 72.8936 32.6322C73.1217 32.8413 73.3308 33.0694 73.5304 33.3165C74.0816 33.9912 74.5758 34.8466 74.9464 36.0535C75.07 36.4242 75.1745 36.7948 75.2601 37.213C76.41 42.7252 76.296 45.2912 74.4047 46.4411H74.4332Z" fill="#E3C97D"/>
<g style="mix-blend-mode:multiply" opacity="0.46">
<path d="M60.1871 62.3304C56.5377 63.0812 56.9368 66.6261 49.2198 65.3431C46.8153 64.9345 45.4088 61.5321 45.4088 61.5321C45.4088 61.5321 43.6126 65.001 36.8649 64.5353C30.5449 64.0981 26.8005 60.3252 26.6294 56.5237C26.6199 56.2481 26.6199 55.9819 26.6389 55.7158C26.6104 55.9534 26.4963 56.1815 26.2682 56.3811C26.3633 56.172 26.4678 55.9534 26.5629 55.7634C26.6009 55.6588 26.6389 55.5543 26.6959 55.4592C26.8195 55.1551 26.924 54.889 26.9905 54.6799C27.3897 53.3684 29.49 50.926 31.2862 50.6979C33.0729 50.4603 32.8829 50.7929 32.8829 50.7929C32.8829 50.7929 28.7297 51.6767 28.245 54.9365C27.7603 58.1773 28.6442 62.492 34.4985 62.9862C40.3718 63.4994 43.8312 58.1298 45.3993 58.6905C46.9579 59.2322 47.1195 64.9345 51.8903 64.1742C56.6612 63.4044 58.638 61.0094 60.1776 62.3399L60.1871 62.3304Z" fill="#E3C97D"/>
</g>
<g style="mix-blend-mode:multiply" opacity="0.46">
<path d="M55.996 40.2542C55.996 40.2542 56.0055 40.2828 55.996 40.2923C55.8249 40.1687 55.6633 40.0832 55.5113 40.0167C55.1121 39.8551 54.732 39.7696 54.3708 39.722H54.3423C52.6506 39.513 51.4722 40.3588 51.0255 40.7579C50.8924 40.8815 50.8259 40.9575 50.8259 40.9575C50.8259 40.9575 50.8544 41.0811 50.921 41.2902C51.2916 42.5827 52.8027 47.268 55.2071 47.8858C55.2071 47.8858 51.3676 47.8572 50.0656 45.5858C48.7541 43.3145 49.5524 41.6228 48.4025 41.2236C48.4025 41.2236 48.8491 38.9332 51.5767 39.0283C54.2853 39.1233 55.7964 39.5605 56.0055 40.2542H55.996Z" fill="#E3C97D"/>
</g>
<g style="mix-blend-mode:multiply" opacity="0.46">
<path d="M74.4333 46.4407C74.0056 46.7068 73.4924 46.8874 72.8842 47.0204C69.5389 47.7617 67.6096 44.3499 61.6603 44.692C60.976 44.73 60.3012 44.3594 59.636 43.8177C59.8736 43.8272 62.5156 43.9887 64.4639 43.0289C66.4882 42.012 68.3794 47.0394 74.4333 46.4407Z" fill="#E3C97D"/>
</g>
<g style="mix-blend-mode:multiply" opacity="0.46">
<path d="M58.1724 28.0322C58.1724 28.0322 60.4913 30.5507 59.5409 33.839C58.5905 37.1273 65.8324 39.2942 66.222 34.3427C66.6117 29.3913 59.9686 28.4314 59.4934 28.2888C59.0182 28.1463 58.1724 28.0322 58.1724 28.0322Z" fill="#E3C97D"/>
</g>
<g style="mix-blend-mode:multiply" opacity="0.46">
<path d="M29.2144 51.3548C29.2144 51.3548 27.0761 53.5406 26.7054 55.4509C26.6769 55.5459 26.6674 55.622 26.6484 55.717C26.6199 55.9546 26.5059 56.1827 26.2778 56.3823C26.3728 56.1732 26.4774 55.9546 26.5724 55.7645C26.5059 55.793 26.4298 55.8215 26.3253 55.8596C25.1658 56.2682 21.0792 57.3707 17.5533 53.8258C15.9757 52.2386 15.8047 50.3569 15.8047 49.6726C15.8047 49.4921 15.8142 49.378 15.8142 49.378C15.8142 49.378 15.6336 49.3685 15.3295 49.3115C13.7994 49.0834 9.15204 48.0855 7.93556 44.303C6.47198 39.7697 7.46988 38.2967 7.46988 38.2967C7.46988 38.2967 -0.513265 39.6462 0.0284482 31.7676C0.161501 32.1667 2.21431 38.4202 9.08551 36.2628C10.7011 35.7591 8.7909 36.9471 8.61033 38.1161C8.42975 39.2945 8.47727 45.3864 12.3833 47.4107C16.2798 49.435 17.1542 48.9218 17.1542 48.9218C17.1542 48.9218 17.1922 54.0443 20.528 54.5005C23.8638 54.9567 27.998 50.8891 29.2144 51.3643V51.3548Z" fill="#E3C97D"/>
</g>
<g style="mix-blend-mode:multiply" opacity="0.46">
<path d="M20.9082 29.3718L22.1817 29.5333C21.678 29.5333 20.7372 29.6379 19.1405 30.1035C16.6696 30.8163 15.0539 32.8121 14.6548 33.3348C14.7973 33.0877 15.1205 32.451 15.3295 31.282C15.6051 29.7519 14.4837 28.3358 14.4837 28.3358C14.8163 28.8681 18.7509 26.9293 19.8913 27.9367C20.1194 28.0792 20.9082 29.3813 20.9082 29.3813V29.3718Z" fill="#E3C97D"/>
</g>
<g style="mix-blend-mode:multiply" opacity="0.46">
<path d="M22.7042 29.5909L22.1722 29.5244C22.5712 29.5244 22.7042 29.5909 22.7042 29.5909Z" fill="#E3C97D"/>
</g>
<g style="mix-blend-mode:multiply" opacity="0.46">
<path d="M29.0814 23.156C29.0814 23.156 32.9209 23.6217 34.1374 24.9997C35.3539 26.3778 38.9178 30.4549 41.6264 29.9512C44.3254 29.4475 42.1871 31.1866 42.1871 31.1866C42.1871 31.1866 38.7562 31.6238 37.3497 30.8825C37.3497 30.8825 36.789 30.7685 36.2853 29.8371C35.7816 28.9057 34.1374 26.8339 33.8048 26.6153C33.3201 26.3017 31.4859 24.2679 30.488 23.8878C29.8132 23.6312 29.0909 23.1465 29.0909 23.1465L29.0814 23.156Z" fill="#E3C97D"/>
</g>
<g style="mix-blend-mode:multiply" opacity="0.46">
<path d="M26.0497 16.1709C26.0497 16.1709 28.2736 17.3494 28.5587 18.3568C28.8438 19.3642 28.9768 21.3599 31.6569 21.4075C34.3369 21.455 38.6706 19.9534 39.3169 21.2079C39.3169 21.2079 39.1268 20.362 38.0054 20.1245C36.8839 19.8869 35.1733 20.4666 35.0687 20.4856C34.9642 20.5046 32.7498 20.9893 31.3813 20.6662C30.0127 20.343 29.4235 19.003 29.3665 18.7179C29.3095 18.4328 29.1954 16.7791 28.3116 16.7506C27.4277 16.7221 26.0497 16.1709 26.0497 16.1709Z" fill="#E3C97D"/>
</g>
<g style="mix-blend-mode:multiply" opacity="0.46">
<path d="M23.9779 16.6748H23.9114C23.1321 16.7794 14.9304 17.7202 12.6875 12.2461C13.0486 12.6453 16.3654 16.1711 22.1152 15.4108C24.8142 15.0402 23.9779 16.6843 23.9779 16.6843V16.6748Z" fill="#E3C97D"/>
</g>
<g style="mix-blend-mode:multiply" opacity="0.46">
<path d="M22.5903 7.7704C21.0127 7.71338 20.2999 6.41137 20.2999 6.41137L20.2619 6.21179C20.1574 5.40397 19.9008 2.4293 22.3337 1.1748H22.3432C22.3432 1.1748 21.3359 2.4293 21.4309 4.22551C21.5354 6.02171 24.1585 7.81792 22.5808 7.7704H22.5903Z" fill="#E3C97D"/>
</g>
<g style="mix-blend-mode:multiply" opacity="0.46">
<path d="M31.7139 5.99235C32.4837 7.52245 29.5281 6.20143 29.1859 4.53828C29.1859 4.53828 29.1859 4.43374 29.2145 4.26267C29.224 4.25316 29.2145 4.25316 29.2145 4.23416C29.338 3.37882 29.8987 0.917352 32.2557 0.717773C32.2557 0.717773 29.5566 1.63013 31.7139 5.99235Z" fill="#E3C97D"/>
</g>
<g style="mix-blend-mode:multiply" opacity="0.46">
<path d="M31.4098 10.251C31.4098 10.251 34.2989 12.0757 34.508 10.251C34.508 10.251 35.4584 12.4368 35.9146 12.798C36.3707 13.1591 34.9642 12.76 34.7076 12.5319C34.3179 12.1897 31.4193 10.251 31.4193 10.251H31.4098Z" fill="#E3C97D"/>
</g>
<g style="mix-blend-mode:multiply" opacity="0.46">
<path d="M42.9853 21.4082C42.9853 21.4082 41.3982 23.5751 42.4151 26.0175C43.432 28.46 47.395 28.8211 47.395 28.8211C47.395 28.8211 45.8079 27.8517 44.5154 26.3597C43.2229 24.8676 42.3866 22.3871 42.9948 21.4082H42.9853Z" fill="#E3C97D"/>
</g>
<g style="mix-blend-mode:multiply" opacity="0.46">
<path d="M57.298 55.0985C57.298 55.0985 57.7637 53.0172 56.8324 51.9622C55.901 50.9073 55.1217 50.9643 54.618 51.2685C54.1143 51.5726 53.3635 53.5209 54.77 53.6254C54.8936 53.6254 56.4617 53.958 57.298 55.108V55.0985Z" fill="#E3C97D"/>
</g>
<g style="mix-blend-mode:multiply" opacity="0.46">
<path d="M74.9749 36.0532C74.8418 37.2127 74.6043 38.4101 74.2336 39.0279C73.3498 40.5485 70.9263 40.4915 70.9263 40.4915C73.1977 39.0849 73.2262 37.1462 73.3308 36.4429C73.4543 35.7586 73.5588 33.3066 73.5588 33.3066C74.1101 33.9814 74.6042 34.8367 74.9749 36.0437V36.0532Z" fill="#E3C97D"/>
</g>
<g style="mix-blend-mode:multiply" opacity="0.46">
<path d="M17.2018 35.5116C17.2018 35.5116 20.7942 35.141 22.0487 36.9562C23.3032 38.7714 27.0666 38.0966 27.0666 38.0966C27.0666 38.0966 23.8354 39.4367 22.9325 39.1231C20.5091 38.2772 20.0814 36.0438 18.7794 35.9393C17.4774 35.8348 17.2018 35.5116 17.2018 35.5116Z" fill="#E3C97D"/>
</g>
<path opacity="0.36" d="M35.2493 50.6037C35.0592 52.5045 35.4584 53.74 37.3211 54.2912C40.4383 55.213 44.2398 52.0578 46.3497 54.0821C48.4595 56.1064 52.4321 54.7949 51.9664 52.647C51.5007 50.4992 48.1649 49.1877 46.3972 50.1951C44.6295 51.2025 41.5408 51.4781 40.6949 50.6037C38.6706 48.5034 35.4489 48.6555 35.2493 50.6037Z" fill="#FFECB3"/>
<path opacity="0.36" d="M13.8089 27.8233C13.6758 28.8307 13.1246 30.0472 12.4499 31.3587C11.2049 33.7252 4.44771 34.2859 1.80567 31.6914C0.893316 30.8075 0.5987 29.7621 0.646219 28.7642C3.04116 22.3587 11.3854 26.3217 13.8184 27.8233H13.8089Z" fill="#FFECB3"/>
<path opacity="0.36" d="M10.074 39.6269C10.074 39.6269 11.2714 49.0261 17.8956 47.401C20.8037 46.6787 23.6358 43.2288 22.3433 41.8223C21.0508 40.4157 20.5281 37.403 17.5059 37.327C14.4837 37.2605 13.8565 41.252 10.074 39.6269Z" fill="#FFECB3"/>
<path opacity="0.36" d="M31.8564 34.6758C31.8564 34.6758 26.2397 30.4276 24.8047 30.2185C23.3791 30.0094 22.0296 29.059 20.9652 29.5057L19.8817 27.9281V27.8901C19.7867 27.4909 19.1309 24.2502 17.6864 23.2523C17.6864 23.2523 17.8669 23.2238 18.1711 23.1572C18.1711 23.1572 28.074 25.7993 29.8131 29.0591C31.5618 32.3093 31.8469 34.6758 31.8469 34.6758H31.8564Z" fill="#FFECB3"/>
<path opacity="0.36" d="M24.8142 9.01541C24.8142 9.01541 23.2936 9.5001 22.2482 10.0608C21.2028 10.631 18.9029 13.1305 14.5882 11.8285C13.2957 11.4484 12.5354 10.517 12.1172 9.40507C11.9176 3.21813 17.5913 4.43461 19.6251 5.75563C19.9388 6.706 19.7487 7.7039 20.1003 8.2266C20.6991 9.07243 24.8047 9.00591 24.8047 9.00591L24.8142 9.01541Z" fill="#FFECB3"/>
<path opacity="0.36" d="M28.7108 7.24766C27.1997 7.41873 23.7118 6.29728 22.809 3.87383C22.1912 2.21068 22.942 1.23179 23.4742 0.794619C27.0952 0.0533275 29.186 4.53909 29.186 4.53909C29.186 4.53909 29.186 4.43455 29.2145 4.26348C29.5566 5.68905 29.5471 7.16213 28.7108 7.24766Z" fill="#FFECB3"/>
<path opacity="0.36" d="M44.7246 9.91799C45.0667 12.3795 44.392 13.2538 43.5747 12.0563C42.7573 10.8779 39.3265 11.8282 38.5092 10.7068C37.6918 9.58536 39.6591 7.33297 37.5873 6.65821C35.4965 5.99294 32.9685 6.48714 32.5218 3.72155C32.2462 2.00137 32.8544 1.15554 33.3581 0.775391H33.3676C36.0097 1.24107 38.9653 3.74056 40.5335 3.80708C42.0541 3.87361 44.563 5.09009 45.5229 7.48503C45.1428 8.09327 44.5535 8.673 44.7341 9.91799H44.7246Z" fill="#FFECB3"/>
<path opacity="0.36" d="M24.6051 11.8088C24.2155 13.1584 24.8332 15.1542 26.7149 15.6674C28.5967 16.1806 29.8037 15.8099 30.3169 17.8057C31.0867 20.8184 35.8861 17.5206 37.8533 18.4139C39.8206 19.3073 40.2483 20.6473 40.2483 20.6473C40.2483 20.6473 41.4267 16.8458 39.8871 15.8669C38.3475 14.8881 35.3158 15.3917 33.7002 14.9926C32.7688 14.7645 30.7825 11.4667 28.5492 10.5163C26.905 9.82256 24.7762 11.2386 24.6051 11.8088Z" fill="#FFECB3"/>
<path opacity="0.36" d="M49.4669 18.4144C48.2504 17.9202 45.8935 17.54 45.1617 20.6478C44.4299 23.7555 46.6538 26.7967 49.1247 27.8231C51.5957 28.8495 52.7267 30.3131 54.6369 32.7555C56.5472 35.198 59.9875 35.2075 59.1702 32.3374C58.3529 29.4672 54.6369 27.8041 53.3729 26.426C52.1089 25.048 54.2758 20.3911 49.4574 18.4144H49.4669Z" fill="#FFECB3"/>
<path opacity="0.36" d="M70.9264 30.8737C67.5716 30.6931 69.3393 27.5759 65.3477 26.3119C61.3371 25.0384 59.2653 20.5432 59.3033 18.0722C59.3318 16.276 61.4702 15.6297 62.6106 15.4111C65.2812 17.2739 68.1798 20.4386 68.6645 25.6467C68.9401 28.5168 69.843 29.8568 70.9264 30.8737Z" fill="#FFECB3"/>
<path opacity="0.36" d="M58.562 50.0337C57.5451 51.1741 58.6476 54.5479 60.5863 57.7602C62.5251 60.9725 64.863 61.4667 67.6001 60.3927C70.3372 59.3188 69.6624 53.0844 66.2506 50.832C63.7416 49.1783 59.5789 48.8932 58.562 50.0337Z" fill="#FFECB3"/>
<path d="M27.6655 45.6526C26.4205 45.415 24.9664 45.0919 23.6739 45.3295C23.1987 45.415 22.3149 45.8427 22.3149 45.8427C20.9843 47.772 19.4922 49.207 16.6696 49.3211C16.2705 49.3401 15.8143 49.6442 15.8143 49.6442C15.8143 49.4636 15.8238 49.3496 15.8238 49.3496C15.8238 49.3496 15.6432 49.3401 15.3391 49.2831C15.3391 49.2831 16.0424 49.017 17.1638 48.8934C19.3022 48.6558 20.8228 47.0497 22.0107 45.4245C22.8946 44.2176 23.5598 42.792 24.0255 41.2334C23.883 42.6209 23.4458 43.942 22.7805 45.1109C24.3582 44.6357 26.1354 45.187 27.675 45.6431L27.6655 45.6526Z" fill="#D4A66C"/>
<path d="M32.4173 42.8673C31.0297 37.9253 29.7087 37.2126 24.7858 38.6381C24.054 38.7807 23.2747 38.8662 22.5619 38.6381C21.64 38.3625 21.0888 37.4216 20.2905 36.6613C18.3993 34.7036 15.9568 35.1883 14.8354 37.6307C16.2514 35.768 18.1427 35.2548 19.9009 37.0605C20.6612 37.7923 21.2789 38.8472 22.4003 39.1608C23.4838 39.484 24.6242 39.2179 25.6791 38.9137C29.9748 37.3741 31.0487 39.0088 32.3508 42.8958C32.6834 43.8462 33.2631 45.0532 34.4511 44.9676C33.2631 45.0341 32.6929 43.8462 32.4173 42.8768V42.8673Z" fill="#D4A66C"/>
<path d="M26.7626 32.0426C27.2853 32.4703 27.7795 32.9454 28.2451 33.4396C26.1638 30.5885 23.7119 29.1915 21.2599 29.2485L19.9009 27.918L20.6992 29.2865C18.5418 29.5336 16.413 30.9116 14.5788 33.4396C18.2282 29.391 22.4289 28.1461 26.7721 32.0426H26.7626Z" fill="#D4A66C"/>
<path d="M50.8261 40.9571C50.8261 40.9571 50.8546 41.0807 50.9211 41.2898C50.9211 41.2898 50.693 41.2042 50.4174 41.2232C50.1703 41.2422 48.9728 41.5464 48.0605 41.3848C47.7849 41.3278 47.5568 41.2137 47.2717 41.3088C45.7796 41.7935 43.5842 43.5612 42.0446 41.993C40.7901 40.6435 38.8704 40.2253 37.0742 40.3299C38.8704 40.0923 40.9137 40.4629 42.2442 41.7935C42.6529 42.2021 43.2326 42.3447 43.8028 42.2591C45.1808 42.1166 46.7205 40.7671 47.6708 40.9476C47.9749 41.0046 48.4406 41.1472 48.9253 41.1187C49.9327 41.0712 51.0352 40.7576 51.0352 40.7576C50.9021 40.8811 50.8356 40.9571 50.8356 40.9571H50.8261Z" fill="#D4A66C"/>
<path d="M56.2147 40.4435C55.9676 40.2629 55.73 40.1109 55.5019 40.0159C55.1027 39.8543 54.7226 39.7688 54.3614 39.7212H54.3329C52.1946 38.9419 49.7711 38.9514 47.7373 37.887C46.1882 37.0127 45.2474 35.2165 45.4089 33.4678C45.4089 35.8247 47.2336 37.7255 49.486 38.1056C51.3583 38.5143 53.4491 38.6283 55.1883 39.4931C55.5399 39.6642 55.9011 39.9303 56.2147 40.434V40.4435Z" fill="#D4A66C"/>
<path d="M42.1776 31.1973C41.2748 31.3208 40.3814 31.3779 39.4691 31.3398C38.3952 31.2733 36.9981 31.1783 36.3709 30.1519C35.1639 27.9945 33.3677 26.1888 31.4004 24.7157C30.6686 24.1835 29.9178 23.7654 29.034 23.5563C27.6749 23.1286 26.6295 22.1972 25.5651 21.3039C25.4606 21.2279 25.318 21.0758 25.166 20.9713C25.2325 20.9047 25.2895 20.8382 25.3085 20.7717C25.3085 20.7717 25.0804 20.6481 24.8048 20.3915C25.1089 20.363 25.413 20.4961 25.6126 20.7052L25.8787 20.9332C27.0382 21.9882 28.2547 23.0051 29.7943 23.3947C31.2864 24.0125 32.5028 25.1434 33.6338 26.2743C34.5842 27.2532 35.468 28.2986 36.1713 29.4771C36.4184 29.8763 36.5419 30.3229 36.9126 30.57C37.6444 31.0737 38.5757 31.2068 39.4691 31.2733C40.3719 31.3303 41.2843 31.3018 42.1776 31.1973Z" fill="#D4A66C"/>
<path d="M63.7986 29.6001C62.278 28.5071 60.3108 28.3931 58.6571 27.6518C57.8493 27.2907 57.0985 26.8155 56.4617 26.2262C55.2928 25.1808 54.7416 23.6602 54.618 22.1301C54.3804 20.9517 53.7722 19.8777 53.0309 18.9559C51.1682 16.5419 47.9654 15.6106 45.4374 17.6254C44.335 18.4997 43.3371 19.5831 42.8714 20.9327C41.8355 24.278 44.8197 27.1861 47.3762 28.8303C44.6296 26.9485 41.4268 23.1851 43.8218 19.8873C44.8577 18.4807 46.3593 17.2072 48.0985 17.0551C50.788 16.8651 53.0119 19.2505 53.8482 21.6169C54.1333 22.4913 54.0668 23.4417 54.4279 24.3065C54.9792 25.8746 56.1671 27.0531 57.5832 27.8514C59.3034 29.2865 60.1682 31.6529 59.522 33.8482C60.2062 31.995 59.7881 29.9327 58.6571 28.3646C58.9992 28.4976 59.3509 28.6212 59.7025 28.7162C62.7342 29.2579 66.2126 30.7595 66.2031 34.3424C66.4977 32.4607 65.3477 30.5885 63.7701 29.6001H63.7986Z" fill="#D4A66C"/>
<path d="M61.5367 14.7273L60.7289 14.8223C57.8682 15.2215 56.5472 17.3503 57.5451 20.0684C56.2526 16.8846 57.9538 14.9269 60.8239 14.3281H60.8334C61.0615 14.4517 61.2991 14.5752 61.5367 14.7273Z" fill="#D4A66C"/>
<path d="M46.4543 14.5278C45.3423 12.6461 45.1998 10.3176 45.77 8.23633C45.827 8.46442 45.865 8.70201 45.8935 8.94911C45.8935 8.94911 45.9886 8.76854 46.1881 8.51194C45.5419 10.4697 45.5419 12.6651 46.4638 14.5278H46.4543Z" fill="#D4A66C"/>
<path d="M28.1597 16.8944C28.3592 16.9229 28.5398 16.9895 28.6729 17.132C28.939 17.4171 29.034 17.8733 29.148 18.301C29.4142 19.8121 30.4501 20.7624 32.0087 20.81C33.3677 20.8955 34.7077 20.6294 36.0097 20.3063C36.8556 20.0972 37.806 19.8976 38.6043 20.3538C38.9939 20.5724 39.2695 20.9715 39.3646 21.3992C39.0509 19.8596 37.1977 19.8501 35.9812 20.2112C34.6887 20.5058 33.3392 20.7434 32.0087 20.6294C30.5356 20.5534 29.6042 19.66 29.3666 18.2345C29.2526 17.8068 29.1861 17.3316 28.8439 16.9419C28.5398 16.5903 27.9411 16.5903 27.5229 16.5048C26.2494 16.2292 25.0044 15.6114 24.1301 14.6515C23.4268 13.8722 22.8946 12.7698 23.3318 11.7814C23.978 10.4509 25.8502 10.0422 27.1903 9.74761C29.9844 9.17739 32.2082 10.9546 34.2991 12.5607C34.8788 12.9694 35.316 13.2545 36.3519 13.15C37.3878 13.0454 41.1228 12.6748 41.4269 14.7561C41.3889 13.1214 39.5832 12.7318 38.0721 12.6558C37.6729 12.6368 36.3329 12.7128 36.3329 12.7128C35.0499 11.5913 34.3656 9.87116 34.033 8.20801C34.1945 9.80464 34.6507 11.4203 35.6581 12.7128C34.4511 12.4562 33.4913 11.3632 32.3508 10.641C30.8587 9.58605 28.9485 9.04434 27.1238 9.38647C24.9094 9.78563 21.8397 10.9451 23.0942 13.7392C24.0065 15.6399 26.1259 16.6568 28.1406 16.8944H28.1597Z" fill="#D4A66C"/>
<path d="M52.2611 55.7166C53.0309 53.4452 52.6412 50.4705 50.0752 49.6342C48.355 49.026 46.4923 49.0545 44.8006 49.7578C43.5461 50.271 42.1016 50.2234 41.1512 49.121C39.9347 47.8095 37.9104 47.7335 36.2853 48.2847C33.8143 49.0925 32.8639 51.4209 33.4817 53.8919C32.8069 52.856 32.7024 51.7726 32.9685 50.7842H32.8924C30.8777 50.7937 29.5756 51.535 28.6443 52.5424C27.7224 53.5498 27.2187 54.8042 26.8861 55.7926C26.8101 56.0587 26.715 56.3058 26.639 56.5244C26.6295 56.2488 26.6295 55.9827 26.6485 55.7166C26.6485 55.7166 26.5249 55.7736 26.3159 55.8497C26.3444 55.7831 26.3729 55.7166 26.3919 55.6406C26.7245 54.6237 27.2472 53.2836 28.2546 52.1907C29.262 51.1073 30.7446 50.2615 32.8829 50.271H33.149C33.6622 49.1115 34.7362 48.1516 36.0952 47.743C37.8819 47.1252 40.1913 47.2678 41.5313 48.7504C41.9305 49.178 42.4152 49.4821 42.9569 49.5392C44.0498 49.6817 45.2093 48.9689 46.4733 48.8264C51.0446 48.4462 53.9622 51.1168 52.2516 55.7166H52.2611Z" fill="#D4A66C"/>
<path d="M60.9951 62.208C60.7005 62.2365 60.4439 62.2745 60.1873 62.3316C58.5336 61.2576 57.2886 59.528 57.1366 57.5417C57.0795 56.8669 57.1366 56.1827 57.1746 55.5079C57.0035 54.4245 55.711 53.9303 54.7701 53.6166C55.5875 53.7497 56.6044 53.9968 57.2126 54.624C57.2221 53.9398 57.1841 53.246 56.975 52.5902C56.8039 52.1055 56.5283 51.5828 55.9961 51.3643C58.0299 51.944 57.7448 55.0232 57.6783 56.6768C57.5737 58.9958 59.0848 61.0581 60.9951 62.2175V62.208Z" fill="#D4A66C"/>
<path d="M70.9265 40.4921C73.464 38.772 73.7301 35.3601 72.9223 32.623C73.1504 32.8321 73.3594 33.0602 73.559 33.3073C73.9677 35.9874 73.3784 39.0191 70.9265 40.4921Z" fill="#D4A66C"/>
</svg>
