<svg width="45" height="55" viewBox="0 0 45 55" fill="none" xmlns="http://www.w3.org/2000/svg">
<g filter="url(#filter0_d_68_9384)">
<path d="M41.993 29.9761C41.318 31.5488 40.2394 32.8292 39.0251 33.8799C36.9793 35.6509 34.5403 36.7608 32.9572 37.481C32.6232 37.6341 30.3755 38.6188 27.1084 39.2137C24.9408 39.6104 22.3209 39.833 19.52 39.5269C16.4791 39.1929 13.2225 38.236 10.0911 36.1937C9.23169 35.6335 7.74602 34.6663 6.27775 33.3476C5.02519 32.2203 3.77959 30.8355 2.94456 29.2281C2.67317 30.6094 2.53052 32.015 2.53052 33.4346C2.53052 42.0529 9.684 48.5835 17.0497 50.8799C17.2306 50.939 17.4116 50.9912 17.5925 51.0434C17.6238 51.0504 17.6516 51.0608 17.683 51.0678C18.3266 51.2556 18.7407 51.4505 19.1408 51.6279C19.5409 51.8054 19.9271 51.9724 20.5221 52.1081C21.044 52.2299 21.7259 52.3273 22.7141 52.3934C23.6569 52.4525 24.412 52.4177 25.0522 52.3168C26.9797 52.0107 27.8391 51.1095 29.4813 50.4902C29.5092 50.4798 29.5335 50.4693 29.5614 50.4624C29.7979 50.3719 30.0345 50.278 30.2677 50.1771C36.9619 47.3832 42.1948 41.5344 42.1948 33.4346C42.1948 32.262 42.1287 31.1069 41.993 29.9761ZM38.0335 25.9471V25.9401C38.0231 25.9053 38.0091 25.8671 37.9987 25.8323C38.0057 25.8497 38.0091 25.8671 38.0126 25.8845C38.0196 25.9053 38.0265 25.9262 38.0335 25.9471ZM36.6626 22.3216C36.6626 22.3216 36.6522 22.3008 36.6453 22.2903C36.6661 22.3321 36.687 22.3773 36.7079 22.4225C36.694 22.3877 36.6766 22.3564 36.6626 22.3216ZM20.3342 11.0973C20.5151 11.0765 21.5137 10.9686 23.0028 10.9895C23.4238 10.993 23.8831 11.0069 24.3702 11.0382C25.7619 11.1217 27.4077 11.32 29.1369 11.7445C29.2552 11.7758 29.3735 11.8036 29.4918 11.835C29.3387 11.748 29.1856 11.661 29.029 11.574C28.4375 11.2435 27.8217 10.9199 27.1815 10.6102C26.4126 10.2345 26.1655 9.36116 25.6645 8.00423C25.0591 6.37243 25.0522 3.3315 24.5442 1.95717C24.5094 1.86671 24.4641 1.92586 24.412 2.03371C24.3145 2.22856 24.1997 2.57649 24.1162 2.44775C24.0118 2.2877 23.9492 1.97805 23.8135 1.85627C23.7265 1.77972 23.6082 2.19376 23.4447 2.07895C23.2812 1.96413 23.0759 1.32045 22.9576 1.28218C22.9367 1.27174 22.9159 1.27522 22.9019 1.28566C22.7871 1.36221 22.8741 1.89454 22.6514 1.89454C22.547 1.89454 22.3452 1.46311 22.2861 1.55705C22.2304 1.63707 22.2026 2.27727 22.1643 2.38513C22.1156 2.52778 21.8929 1.71014 21.799 1.64751C21.7329 1.60576 21.6737 2.36425 21.6146 2.38513C21.5694 2.40252 21.5206 2.36425 21.4685 2.3051C21.3188 2.12766 21.1553 1.74145 21.0579 1.818C20.957 1.9015 21.0823 2.89659 21.0057 2.99749C20.9292 3.09839 20.6473 2.30858 20.5882 2.42688C20.0524 3.5333 20.2507 5.37038 19.5305 7.10656C18.8868 8.65486 18.8172 9.84827 17.2098 10.7285C16.159 11.3061 15.15 11.9393 14.1828 12.6248C15.6476 12.0785 17.1402 11.6575 18.598 11.3722C19.186 11.2574 19.7636 11.1669 20.3342 11.0973ZM9.62485 20.074C9.67008 20.0183 9.71531 19.9627 9.76054 19.907C9.7675 19.8965 9.77794 19.8861 9.7849 19.8722C9.72923 19.9383 9.67704 20.0044 9.62485 20.074ZM7.52682 24.0126C7.50595 24.0717 7.48855 24.1274 7.46767 24.1865C7.48855 24.1274 7.50943 24.0717 7.5303 24.0161C7.5477 23.9604 7.56858 23.9047 7.58945 23.849C7.5651 23.9047 7.5477 23.9569 7.52682 24.0126ZM7.35634 24.524C7.36678 24.4997 7.37373 24.4753 7.38417 24.451C7.40157 24.3953 7.41896 24.3396 7.43636 24.284C7.40853 24.364 7.38069 24.444 7.35634 24.524ZM6.73006 26.8656C6.81704 26.4864 6.90402 26.1245 6.99449 25.7801C6.90402 26.1245 6.81356 26.4864 6.73006 26.8656Z" fill="#BF9D2A"/>
<path d="M21.1379 50.3858C21.2527 51.3078 21.1797 51.8054 20.7622 52.0246C20.6891 52.0629 20.6091 52.0907 20.5186 52.1116C19.3356 51.8367 18.9703 51.447 17.683 51.0712C17.4986 50.9495 17.3107 50.8173 17.1193 50.6746C13.0415 47.6859 7.27979 40.5463 6.28122 33.3511C7.7495 34.6697 9.23169 35.6335 10.0946 36.1972C13.2259 38.2395 16.4826 39.1963 19.5235 39.5303C20.0211 45.3408 20.9222 48.6357 21.1414 50.3893L21.1379 50.3858Z" fill="#B08B0C"/>
<path d="M23.5073 8.7662C23.3856 9.58732 23.2081 10.3249 23.0063 10.9895C21.5172 10.9721 20.5186 11.0765 20.3377 11.1008C19.7671 11.1704 19.186 11.2609 18.6015 11.3757C18.7511 11.1565 18.9042 10.9234 19.0573 10.6729C20.9431 7.57279 21.3362 4.4414 21.4685 2.30858C21.5206 2.37121 21.5694 2.406 21.6181 2.3886C21.6737 2.36773 21.7364 1.60924 21.8025 1.65099C21.8964 1.71014 22.1191 2.53126 22.1678 2.3886C22.2061 2.28075 22.2339 1.64055 22.2896 1.56053C22.3522 1.47006 22.5505 1.89802 22.6584 1.89802C22.8811 1.89802 22.7941 1.36568 22.9089 1.28914C23.4899 2.98357 23.9527 5.78442 23.5143 8.76968L23.5073 8.7662Z" fill="#B08B0C"/>
<path d="M24.3737 11.0382C24.2797 8.91233 24.3145 6.84561 24.3632 3.85688C24.3737 3.23756 24.3876 2.60432 24.4154 2.03371C24.4676 1.92586 24.5163 1.86671 24.5477 1.95369C25.0591 3.3315 25.0661 6.37243 25.668 8.00075C26.169 9.35768 26.4161 10.2345 27.185 10.6068C27.8252 10.9164 28.441 11.24 29.036 11.5705C29.0708 11.6297 29.1056 11.6853 29.1404 11.741C27.4111 11.3165 25.7654 11.1182 24.3772 11.0347L24.3737 11.0382Z" fill="#B08B0C"/>
<path d="M39.0251 33.8799C39.0182 34.0191 39.0077 34.1548 38.9938 34.2905C38.4301 40.9951 34.0497 46.8265 30.219 49.9474C29.9963 50.1283 29.7771 50.2988 29.5614 50.4624C29.537 50.4728 29.5092 50.4832 29.4848 50.4902C27.8426 51.1095 26.9832 52.0107 25.0522 52.3168C24.9547 52.2925 24.8678 52.2542 24.7877 52.209C24.2902 51.9202 24.2171 51.273 24.3911 50.2954C24.7738 48.1243 26.3569 44.3283 27.1119 39.2137C30.3755 38.6188 32.6266 37.6341 32.9606 37.4845C34.5437 36.7643 36.9827 35.6509 39.0286 33.8834L39.0251 33.8799Z" fill="#B08B0C"/>
<path d="M30.2677 50.1771C30.0345 50.2745 29.7979 50.3684 29.5614 50.4589C29.537 50.4693 29.5092 50.4798 29.4848 50.4867C27.8426 51.106 26.9832 52.0072 25.0522 52.3134C24.412 52.4143 23.6569 52.4525 22.7141 52.3899C21.7259 52.3238 21.044 52.2264 20.5221 52.1081C19.3391 51.8332 18.9738 51.4435 17.6864 51.0678C17.6551 51.0608 17.6273 51.0504 17.596 51.0434C17.415 50.9912 17.2341 50.939 17.0532 50.8834C17.0636 50.8138 19.4435 51.36 19.7323 51.1687C19.9167 51.0469 19.7323 49.8813 19.7323 49.8813C19.7323 49.8813 20.9535 51.3531 21.378 51.2939C21.8025 51.2348 21.9869 49.6969 21.9869 49.6969C21.9869 49.6969 22.2304 50.9251 22.7175 50.8625C23.1455 50.8103 23.389 48.5905 23.389 48.5905C23.389 48.5905 23.57 51.0191 24.0884 50.9703C24.6068 50.9216 25.2818 49.3142 25.2783 49.3246C25.1565 49.9996 24.9513 50.8173 25.2783 50.7964C26.0472 50.7546 26.6805 49.0776 26.6805 49.0776C26.6805 49.0776 25.9081 51.2696 26.3151 51.4714C26.7535 51.6871 29.4257 49.8152 30.2711 50.1771H30.2677Z" fill="#8F5E0A"/>
<path d="M6.73006 26.8656C6.81704 26.4864 6.90402 26.1245 6.99449 25.7801C6.90402 26.1245 6.81356 26.4864 6.73006 26.8656Z" fill="#C49B0D"/>
<path d="M7.35634 24.524C7.38069 24.444 7.40853 24.364 7.43636 24.284C7.41896 24.3396 7.40157 24.3953 7.38417 24.451C7.35286 24.5449 7.32502 24.6389 7.29371 24.7328C7.31458 24.6632 7.33546 24.5936 7.35634 24.524Z" fill="#C49B0D"/>
<path d="M7.5303 24.0161C7.50943 24.0717 7.48855 24.1274 7.46767 24.1865C7.48855 24.1274 7.50595 24.0717 7.52682 24.0126H7.5303V24.0161Z" fill="#C49B0D"/>
<path d="M23.0028 10.9895C22.5157 12.5726 21.8755 13.7207 21.4928 14.4723C21.3884 14.6776 21.2875 14.8828 21.1901 15.0916C21.1205 15.2482 21.0475 15.4013 20.9813 15.5578C20.9605 15.6065 20.9396 15.6553 20.9222 15.7005C20.8596 15.8397 20.8004 15.9788 20.7448 16.1215C20.7065 16.2154 20.6682 16.3128 20.6334 16.4068C20.5777 16.5425 20.529 16.6816 20.4803 16.8173C20.4734 16.8313 20.4699 16.8452 20.4629 16.8591C20.3864 17.0748 20.3133 17.2905 20.2437 17.5097C20.1846 17.6872 20.1324 17.8646 20.0802 18.0455C20.0211 18.2439 19.9654 18.4457 19.9132 18.6475C19.8575 18.8527 19.8088 19.0545 19.7636 19.2563C19.7288 19.3955 19.701 19.5347 19.6696 19.6773C19.6523 19.7643 19.6314 19.8513 19.6175 19.9383C19.5792 20.1123 19.5479 20.2862 19.5166 20.4637C19.5131 20.4845 19.5096 20.5054 19.5061 20.5263C19.4678 20.7281 19.4365 20.9299 19.4052 21.1352C19.3739 21.3509 19.3426 21.5631 19.3148 21.7823C19.2939 21.9319 19.2765 22.085 19.2591 22.2381C19.2486 22.3216 19.2382 22.4086 19.2313 22.4921C19.2069 22.6974 19.1895 22.8992 19.1721 23.1045C19.1582 23.2645 19.1443 23.4246 19.1338 23.5846C19.1269 23.6438 19.1234 23.7029 19.1199 23.7621C19.1095 23.9047 19.099 24.0508 19.0921 24.197C19.0573 24.7537 19.0364 25.3243 19.0225 25.9088C19.019 26.0863 19.0155 26.2672 19.0121 26.4481V26.4725C19.0086 26.6186 19.0086 26.7682 19.0086 26.9178C19.0016 27.4989 19.0086 28.0938 19.0155 28.7062C19.019 28.988 19.026 29.2733 19.0329 29.5621C19.0399 29.8509 19.0468 30.1397 19.0573 30.4354C19.0851 31.3226 19.1199 32.2446 19.1617 33.2049C19.186 33.779 19.2139 34.367 19.2417 34.969C19.2452 35.0351 19.2486 35.1046 19.2521 35.1708C19.2695 35.5083 19.2834 35.8492 19.3008 36.1937C19.3565 37.3871 19.4331 38.497 19.52 39.5269C16.4791 39.1929 13.2225 38.236 10.0911 36.1937C9.23169 35.6335 7.74602 34.6663 6.27775 33.3476C6.07595 31.8967 6.07247 30.4389 6.31254 29.0158C6.38909 28.56 6.46911 28.1217 6.55261 27.7041C6.6048 27.4432 6.66047 27.1857 6.71266 26.9387C6.71962 26.9143 6.72658 26.89 6.73006 26.8656C6.81704 26.4864 6.90402 26.1245 6.99449 25.7801C7.06059 25.533 7.12322 25.2964 7.19281 25.0668C7.2276 24.952 7.25891 24.8407 7.29371 24.7328C7.32502 24.6389 7.35286 24.5449 7.38417 24.451C7.40157 24.3953 7.41896 24.3396 7.43636 24.284C7.4468 24.2527 7.45724 24.2179 7.46767 24.1865C7.48855 24.1274 7.50943 24.0717 7.5303 24.0161C7.5477 23.9604 7.56858 23.9047 7.58945 23.849C7.58945 23.8282 7.60337 23.8073 7.61033 23.7864C7.63468 23.7099 7.66252 23.6368 7.69383 23.5637C7.69731 23.5498 7.70079 23.5359 7.70775 23.522C7.77037 23.3619 7.833 23.2054 7.89215 23.0558C7.89911 23.0453 7.90259 23.0314 7.90955 23.0175C7.94434 22.9305 7.98261 22.8435 8.02088 22.76C8.05568 22.6765 8.09395 22.593 8.1357 22.5095C8.17397 22.4295 8.21225 22.3495 8.25052 22.2694C8.28531 22.1894 8.32359 22.1129 8.36534 22.0363C8.41057 21.9424 8.45928 21.8519 8.51147 21.7615C8.5393 21.7023 8.57062 21.6466 8.60541 21.591C8.69935 21.4205 8.79677 21.2535 8.89767 21.0969C8.92203 21.0552 8.94638 21.0169 8.97422 20.9786C9.07164 20.8255 9.16906 20.6759 9.27344 20.5367C9.30127 20.495 9.32911 20.4567 9.36042 20.4184C9.39522 20.3662 9.43349 20.3175 9.47176 20.2688C9.47872 20.2549 9.48916 20.2445 9.49612 20.234C9.53787 20.1784 9.57962 20.1262 9.62485 20.074C9.67008 20.0183 9.71531 19.9627 9.76054 19.907C9.81621 19.8444 9.8684 19.7817 9.92059 19.7191C9.93451 19.7017 9.95191 19.6843 9.96583 19.6669C10.025 19.6008 10.0806 19.5347 10.1398 19.4721C10.1955 19.4094 10.2546 19.3468 10.3172 19.2842C10.4112 19.1868 10.5051 19.0893 10.6025 18.9954C10.7 18.898 10.7974 18.804 10.8948 18.7136C10.9296 18.6788 10.9679 18.6475 11.0027 18.6127C11.0027 18.6127 11.0027 18.6092 11.0096 18.6092C11.5872 18.0803 12.1961 17.5898 12.8363 17.0609C12.9963 16.9287 13.1598 16.793 13.3234 16.6538C13.4765 16.5251 13.633 16.3894 13.7896 16.2502C13.9044 16.1528 14.0192 16.0484 14.1375 15.9406C14.3706 15.7283 14.6072 15.5056 14.8473 15.269C16.3921 13.7416 17.4777 12.9866 18.598 11.3722C19.186 11.2574 19.7636 11.1669 20.3342 11.0973C20.5151 11.0765 21.5137 10.9686 23.0028 10.9895Z" fill="#BF970D"/>
<path d="M18.598 11.3722C17.4777 12.9866 16.3921 13.7416 14.8473 15.269C14.6072 15.5056 14.3706 15.7283 14.1375 15.9406C14.0227 16.0484 13.9044 16.1493 13.7896 16.2502C13.633 16.3894 13.4765 16.5251 13.3234 16.6538C13.1598 16.793 12.9963 16.9287 12.8363 17.0609C12.1961 17.5898 11.5872 18.0803 11.0096 18.6092C11.0061 18.6092 11.0061 18.6127 11.0027 18.6127C10.9679 18.6475 10.9296 18.6788 10.8948 18.7136C10.7974 18.804 10.7 18.898 10.6025 18.9954C10.5051 19.0859 10.4112 19.1833 10.3172 19.2842C10.2546 19.3468 10.1955 19.4094 10.1398 19.4721C10.0806 19.5347 10.0215 19.6008 9.96583 19.6669C9.94495 19.6843 9.93103 19.7017 9.92059 19.7191C9.87536 19.7678 9.83361 19.8165 9.79186 19.8652C9.78838 19.8687 9.78838 19.8722 9.7849 19.8722C9.72923 19.9383 9.67704 20.0044 9.62485 20.074C9.57962 20.1262 9.53787 20.1784 9.49612 20.234C9.48916 20.2445 9.47872 20.2549 9.47176 20.2688C9.43349 20.3175 9.39522 20.3662 9.36042 20.4184C9.32911 20.4567 9.30127 20.495 9.27344 20.5367C9.16906 20.6759 9.07164 20.8255 8.97422 20.9786C8.94638 21.0169 8.92203 21.0552 8.89767 21.0969C8.79677 21.2535 8.69935 21.4205 8.60541 21.591C8.57062 21.6466 8.5393 21.7023 8.51147 21.7615C8.45928 21.8519 8.41057 21.9424 8.36534 22.0363C8.32359 22.1129 8.28531 22.1894 8.25052 22.2694C8.20877 22.346 8.17049 22.4295 8.1357 22.5095C8.09395 22.593 8.05568 22.6765 8.02088 22.76C7.98261 22.8435 7.94434 22.9305 7.90955 23.0175C7.90259 23.0314 7.89911 23.0453 7.89215 23.0558C7.82952 23.2054 7.76689 23.3619 7.70775 23.522C7.70079 23.5359 7.69731 23.5498 7.69383 23.5637C7.66252 23.6368 7.63468 23.7099 7.61033 23.7864C7.60337 23.8073 7.59293 23.8282 7.58945 23.849C7.5651 23.9047 7.5477 23.9569 7.52682 24.0126C7.50595 24.0717 7.48855 24.1274 7.46767 24.1865C7.45724 24.2179 7.4468 24.2527 7.43636 24.284C7.40853 24.364 7.38069 24.444 7.35634 24.524C7.33546 24.5936 7.31458 24.6632 7.29371 24.7328C7.25891 24.8407 7.2276 24.952 7.19281 25.0668C7.12322 25.2964 7.06059 25.533 6.99449 25.7801C6.90402 26.1245 6.81356 26.4864 6.73006 26.8656C6.72658 26.89 6.71962 26.9143 6.71266 26.9387C6.66047 27.1857 6.6048 27.4432 6.55261 27.7041C6.46911 28.1217 6.38909 28.56 6.31254 29.0158C6.07247 30.4389 6.07595 31.8967 6.27775 33.3476C5.02519 32.2203 3.77959 30.8355 2.94456 29.2281C4.22495 22.7078 8.39317 16.7338 14.1828 12.6248C15.6476 12.0785 17.1402 11.6575 18.598 11.3722Z" fill="#CCA82D"/>
<path d="M6.99449 25.7801C6.90402 26.1245 6.81356 26.4864 6.73006 26.8656C6.81704 26.4864 6.90402 26.1245 6.99449 25.7801Z" fill="#D1AC2E"/>
<path d="M7.35634 24.524C7.38069 24.444 7.40853 24.364 7.43636 24.284C7.41896 24.3396 7.40157 24.3953 7.38417 24.451C7.35286 24.5449 7.32502 24.6389 7.29371 24.7328C7.31458 24.6632 7.33546 24.5936 7.35634 24.524Z" fill="#D1AC2E"/>
<path d="M7.52682 24.0126C7.5477 23.9569 7.5651 23.9047 7.58945 23.849C7.56858 23.9047 7.5477 23.9604 7.5303 24.0161C7.50943 24.0717 7.48855 24.1274 7.46767 24.1865C7.48855 24.1274 7.50595 24.0717 7.52682 24.0126Z" fill="#D1AC2E"/>
<path d="M9.79186 19.8652C9.83361 19.8165 9.87536 19.7678 9.92059 19.7191C9.8684 19.7817 9.81621 19.8444 9.76054 19.907C9.71531 19.9627 9.67008 20.0183 9.62485 20.074C9.67704 20.0044 9.72923 19.9383 9.7849 19.8722C9.7849 19.8722 9.7849 19.8687 9.79186 19.8652Z" fill="#D1AC2E"/>
<path d="M27.5155 33.7756C27.5155 35.7205 27.3589 37.5367 27.1084 39.2137C24.9408 39.6104 22.3209 39.833 19.52 39.5269C19.4331 38.497 19.3565 37.3871 19.3008 36.1937C19.2834 35.8492 19.2695 35.5083 19.2521 35.1708C19.2486 35.1046 19.2452 35.0351 19.2417 34.969C19.2139 34.367 19.186 33.779 19.1617 33.2049C19.1199 32.2446 19.0851 31.3226 19.0573 30.4354C19.0468 30.1397 19.0399 29.8509 19.0329 29.5621C19.026 29.2733 19.019 28.988 19.0155 28.7062C19.0051 28.0938 19.0016 27.4989 19.0086 26.9178C19.0086 26.7682 19.0086 26.6186 19.0121 26.4725V26.4481C19.0155 26.2672 19.019 26.0863 19.0225 25.9088C19.0364 25.3243 19.0573 24.7537 19.0921 24.197C19.099 24.0508 19.1095 23.9047 19.1199 23.7621C19.1234 23.7029 19.1269 23.6438 19.1338 23.5846C19.1443 23.4246 19.1582 23.2645 19.1721 23.1045C19.1895 22.8992 19.2069 22.6974 19.2313 22.4921C19.2382 22.4086 19.2486 22.3216 19.2591 22.2381C19.2765 22.085 19.2939 21.9319 19.3148 21.7823C19.3426 21.5631 19.3739 21.3509 19.4052 21.1352C19.4365 20.9299 19.4678 20.7281 19.5061 20.5263C19.5061 20.5054 19.5131 20.4845 19.5166 20.4637C19.5479 20.2862 19.5792 20.1123 19.6175 19.9383C19.6314 19.8513 19.6523 19.7643 19.6696 19.6773C19.701 19.5347 19.7288 19.3955 19.7636 19.2563C19.8088 19.0545 19.8575 18.8527 19.9132 18.6509C19.9654 18.4457 20.0211 18.2439 20.0802 18.0455C20.1324 17.8646 20.1846 17.6872 20.2437 17.5097C20.3133 17.2905 20.3864 17.0748 20.4629 16.8591C20.4699 16.8452 20.4734 16.8313 20.4803 16.8173C20.529 16.6816 20.5777 16.5425 20.6334 16.4068C20.6682 16.3128 20.7065 16.2154 20.7448 16.1215C20.8004 15.9788 20.8596 15.8397 20.9222 15.7005C20.9396 15.6553 20.9605 15.6065 20.9813 15.5578C21.0475 15.4013 21.1205 15.2482 21.1901 15.0916C21.2875 14.8828 21.3884 14.6776 21.4928 14.4723C21.8755 13.7207 22.5157 12.5726 23.0028 10.9895C23.4238 10.993 23.8831 11.0069 24.3702 11.0382C24.4294 12.3673 24.5407 13.7173 24.7251 15.3317C24.7703 15.7179 24.8156 16.0902 24.8608 16.4485C24.8852 16.6434 24.913 16.8347 24.9373 17.0226C24.9513 17.1305 24.9687 17.2383 24.9826 17.3462C24.9965 17.4401 25.0104 17.5341 25.0243 17.628C25.0626 17.9203 25.1043 18.2021 25.1496 18.477C25.1983 18.7936 25.247 19.1033 25.2992 19.399C25.3549 19.7435 25.414 20.074 25.4732 20.3941C25.5149 20.6272 25.5601 20.8568 25.6019 21.0795C25.6297 21.2117 25.6541 21.3439 25.6784 21.4727C25.755 21.8589 25.8315 22.2277 25.9081 22.5861C25.9463 22.7705 25.9846 22.9479 26.0229 23.1254C26.1342 23.6368 26.2421 24.1274 26.3499 24.6006C26.3987 24.8128 26.4439 25.0216 26.4891 25.2269C26.67 26.0549 26.8405 26.8482 26.9832 27.6659C27.0249 27.8955 27.0597 28.1251 27.0945 28.3513C27.1258 28.5392 27.1537 28.7271 27.178 28.9115C27.185 28.9532 27.1885 28.9915 27.1954 29.0332C27.2128 29.1515 27.2267 29.2698 27.2407 29.3881C27.2685 29.6073 27.2963 29.8265 27.3172 30.0422C27.345 30.2997 27.3694 30.5572 27.3903 30.8146C27.4111 31.0338 27.425 31.2496 27.439 31.4653C27.4459 31.5279 27.4494 31.5905 27.4494 31.6532C27.4668 31.8793 27.4772 32.102 27.4842 32.3212C27.4946 32.5543 27.5016 32.7874 27.5086 33.0171V33.0832C27.5086 33.3163 27.5155 33.5459 27.5155 33.7756Z" fill="#CCA82D"/>
<path d="M24.9826 17.3462C24.9687 17.2383 24.9513 17.1305 24.9373 17.0226C24.913 16.8347 24.8852 16.6434 24.8608 16.4485C24.8886 16.6434 24.913 16.8347 24.9408 17.0226C24.9547 17.1305 24.9687 17.2383 24.9826 17.3462Z" fill="#D1AC2E"/>
<path d="M39.0599 32.7144C39.0599 33.1075 39.0495 33.4972 39.0251 33.8799C36.9793 35.6509 34.5403 36.7608 32.9572 37.481C32.6232 37.6341 30.3755 38.6188 27.1084 39.2137C27.3589 37.5367 27.5155 35.7205 27.5155 33.7756C27.5155 33.5459 27.512 33.3163 27.5086 33.0832V33.0171C27.5016 32.7874 27.4946 32.5543 27.4842 32.3212C27.4772 32.102 27.4668 31.8793 27.4494 31.6532C27.4494 31.5905 27.4459 31.5279 27.439 31.4653C27.425 31.2496 27.4111 31.0338 27.3903 30.8146C27.3694 30.5572 27.345 30.2997 27.3172 30.0422C27.2963 29.8265 27.2685 29.6073 27.2407 29.3881C27.2267 29.2698 27.2128 29.1515 27.1954 29.0332C27.1885 28.9915 27.185 28.9532 27.178 28.9115C27.1537 28.7271 27.1258 28.5392 27.0945 28.3513C27.0597 28.1251 27.0249 27.8955 26.9832 27.6659C26.8405 26.8482 26.67 26.0549 26.4891 25.2269C26.4439 25.0216 26.3987 24.8128 26.3499 24.6006C26.2421 24.1274 26.1342 23.6368 26.0229 23.1254C25.9846 22.9479 25.9463 22.7705 25.9081 22.5861C25.8315 22.2277 25.755 21.8589 25.6784 21.4727C25.6541 21.3439 25.6297 21.2117 25.6019 21.0795C25.5601 20.8568 25.5149 20.6272 25.4732 20.3941C25.414 20.074 25.3549 19.7435 25.2992 19.399C25.247 19.1033 25.1983 18.7936 25.1496 18.477C25.1078 18.2021 25.0661 17.9203 25.0243 17.628C25.0104 17.5341 24.9965 17.4401 24.9826 17.3462C24.9687 17.2383 24.9547 17.1305 24.9408 17.0226C24.913 16.8347 24.8886 16.6434 24.8608 16.4485C24.8156 16.0902 24.7703 15.7179 24.7251 15.3317C24.5407 13.7173 24.4294 12.3673 24.3702 11.0382C25.7619 11.1217 27.4077 11.32 29.1369 11.7445C30.8974 14.5662 33.0685 16.4485 34.9091 19.1972C35.0552 19.4129 35.1944 19.6321 35.3335 19.8583C35.3544 19.8896 35.3753 19.9244 35.3927 19.9557C35.4449 20.0357 35.4936 20.1192 35.5388 20.1992C35.5667 20.2445 35.5945 20.2897 35.6189 20.3349C35.7128 20.495 35.8067 20.6585 35.8972 20.822C35.9076 20.8429 35.9216 20.8638 35.9355 20.8881C35.9772 20.9682 36.0225 21.0517 36.0677 21.1352C36.1094 21.2117 36.1512 21.2883 36.1895 21.3648C36.2138 21.4135 36.2382 21.4588 36.2625 21.5075C36.273 21.5249 36.2834 21.5457 36.2904 21.5631C36.3078 21.5944 36.3217 21.6223 36.3356 21.6536C36.346 21.6675 36.353 21.6849 36.3599 21.6988C36.3739 21.7232 36.3843 21.751 36.3982 21.7754C36.426 21.831 36.4539 21.8902 36.4817 21.9459C36.5165 22.0154 36.5513 22.0885 36.5826 22.1581C36.607 22.2033 36.6279 22.2451 36.6453 22.2903C36.6661 22.3321 36.687 22.3773 36.7079 22.4225C36.8157 22.6556 36.9201 22.8922 37.021 23.1288C37.0558 23.2054 37.0871 23.2784 37.115 23.355C37.1741 23.4942 37.2298 23.6299 37.282 23.769C37.2994 23.8073 37.3133 23.8421 37.3272 23.8804C37.4037 24.0752 37.4768 24.2735 37.5499 24.4718C37.6125 24.6458 37.6751 24.8198 37.7343 24.9972C37.7343 25.0042 37.7378 25.0111 37.7412 25.0216C37.7969 25.1886 37.8526 25.3591 37.9048 25.5296C37.9396 25.6305 37.9709 25.7314 37.9987 25.8323C38.0057 25.8497 38.0091 25.8671 38.0126 25.8845C38.0196 25.9053 38.0265 25.9262 38.0335 25.9471C38.0613 26.0341 38.0857 26.121 38.11 26.208C38.1379 26.3089 38.1657 26.4098 38.1935 26.5107C38.2109 26.5768 38.2283 26.6429 38.2457 26.7056C38.3153 26.97 38.3814 27.2309 38.4406 27.4954C38.4614 27.5824 38.4823 27.6693 38.4997 27.7598C38.5136 27.8155 38.5241 27.8711 38.538 27.9303C38.5484 27.972 38.5554 28.0173 38.5658 28.0625C38.5728 28.0973 38.5798 28.1321 38.5867 28.1669C38.6319 28.3896 38.6737 28.6157 38.712 28.8384C38.7398 28.9845 38.7642 29.1307 38.785 29.2768C38.8303 29.5691 38.872 29.8578 38.9033 30.1501C38.9242 30.3241 38.9451 30.5015 38.959 30.6755C38.9764 30.839 38.9903 30.9991 39.0008 31.1591C39.0077 31.2252 39.0112 31.2913 39.0147 31.3574C39.0216 31.4374 39.0251 31.514 39.0286 31.594C39.039 31.7923 39.0495 31.9941 39.0529 32.189C39.0529 32.3664 39.0599 32.5404 39.0599 32.7144Z" fill="#BF970D"/>
<path d="M24.9408 17.0226L24.9373 17.0226C24.913 16.8347 24.8852 16.6434 24.8608 16.4485C24.8886 16.6434 24.913 16.8347 24.9408 17.0226Z" fill="#C49B0D"/>
<path d="M38.0335 25.9401V25.9471C38.0265 25.9262 38.0196 25.9053 38.0126 25.8845C38.0196 25.9018 38.0265 25.9227 38.0335 25.9401Z" fill="#C49B0D"/>
<path d="M24.9408 17.0226C24.9547 17.1305 24.9687 17.2383 24.9826 17.3462C24.9687 17.2383 24.9513 17.1305 24.9373 17.0226L24.9408 17.0226Z" fill="#C49B0D"/>
<path d="M7.58945 23.849C7.56858 23.9047 7.5477 23.9604 7.5303 24.0161H7.52682C7.5477 23.9569 7.5651 23.9047 7.58945 23.849Z" fill="#C49B0D"/>
<path d="M9.92059 19.7191C9.8684 19.7817 9.81621 19.8444 9.76054 19.907C9.7675 19.8965 9.77794 19.8861 9.7849 19.8722C9.7849 19.8722 9.7849 19.8687 9.79186 19.8652C9.83361 19.8165 9.87536 19.7678 9.92059 19.7191Z" fill="#C49B0D"/>
<path d="M41.993 29.9761C41.318 31.5488 40.2394 32.8292 39.0251 33.8799C39.0495 33.4972 39.0599 33.1075 39.0599 32.7144C39.0599 32.5404 39.0564 32.3664 39.0529 32.189C39.0495 31.9941 39.039 31.7923 39.0286 31.594C39.0251 31.514 39.0216 31.4374 39.0147 31.3574C39.0147 31.2913 39.0077 31.2252 39.0008 31.1591C38.9903 30.9991 38.9764 30.839 38.959 30.6755C38.9451 30.5015 38.9242 30.3241 38.9033 30.1501C38.872 29.8578 38.8303 29.5691 38.785 29.2768C38.7642 29.1307 38.7398 28.9845 38.712 28.8384C38.6737 28.6157 38.6319 28.3896 38.5867 28.1669C38.5798 28.1321 38.5728 28.0973 38.5658 28.0625C38.5554 28.0173 38.5484 27.972 38.538 27.9303C38.5241 27.8711 38.5136 27.8155 38.4997 27.7598C38.4823 27.6693 38.4614 27.5824 38.4406 27.4954C38.3814 27.2309 38.3153 26.97 38.2457 26.7056C38.2283 26.6429 38.2109 26.5768 38.1935 26.5107C38.1657 26.4098 38.1379 26.3089 38.11 26.208C38.0857 26.121 38.0613 26.0341 38.0335 25.9471V25.9401C38.0231 25.9053 38.0091 25.8671 37.9987 25.8323C37.9709 25.7314 37.9396 25.6305 37.9048 25.5296C37.8526 25.3591 37.7969 25.1886 37.7412 25.0216C37.7378 25.0111 37.7343 25.0042 37.7343 24.9972C37.6751 24.8198 37.6125 24.6458 37.5499 24.4718C37.4768 24.2735 37.4037 24.0752 37.3272 23.8804C37.3133 23.8421 37.2994 23.8073 37.282 23.769C37.2298 23.6299 37.1741 23.4942 37.115 23.355C37.0871 23.2784 37.0558 23.2054 37.021 23.1288C36.9201 22.8922 36.8157 22.6556 36.7079 22.4225C36.694 22.3877 36.6766 22.3564 36.6626 22.3216C36.6557 22.3112 36.6522 22.3008 36.6453 22.2903C36.6279 22.2451 36.607 22.2033 36.5826 22.1581C36.5513 22.0885 36.5165 22.0154 36.4817 21.9459C36.4539 21.8902 36.426 21.831 36.3982 21.7754C36.3843 21.751 36.3739 21.7232 36.3599 21.6988C36.353 21.6849 36.346 21.6675 36.3356 21.6536C36.3217 21.6223 36.3078 21.5944 36.2904 21.5631C36.2834 21.5457 36.273 21.5249 36.2625 21.5075C36.2382 21.4588 36.2138 21.4135 36.1895 21.3648C36.1512 21.2883 36.1094 21.2117 36.0677 21.1352C36.0225 21.0517 35.9772 20.9682 35.9355 20.8881C35.9216 20.8638 35.9076 20.8429 35.8972 20.822C35.852 20.742 35.8067 20.6585 35.7615 20.5785C35.7163 20.4985 35.6676 20.415 35.6189 20.3349C35.5945 20.2897 35.5667 20.2445 35.5388 20.1992C35.4936 20.1192 35.4449 20.0357 35.3927 19.9557C35.3753 19.9244 35.3544 19.8896 35.3335 19.8583C35.1944 19.6321 35.0552 19.4129 34.9091 19.1972C33.0685 16.4485 30.8974 14.5662 29.1369 11.7445C29.2552 11.7758 29.3735 11.8036 29.4918 11.835C37.3829 16.3963 41.1231 22.7461 41.993 29.9761Z" fill="#CCA82D"/>
<path d="M35.8972 20.822C35.8067 20.6585 35.7128 20.495 35.6189 20.3349C35.6676 20.415 35.7163 20.4985 35.7615 20.5785C35.8067 20.6585 35.852 20.742 35.8972 20.822Z" fill="#D1AC2E"/>
<path d="M26.8022 13.505C27.3868 13.084 30.4973 15.7144 32.3692 19.0719C34.0114 22.0189 34.0984 24.4405 34.1088 24.9868C34.1506 27.144 33.5695 29.5134 33.065 29.5099C32.4144 29.5099 33.1068 25.5818 30.6295 21.5075C29.7805 20.1123 28.9142 19.2807 27.846 16.9844C27.2963 15.8014 26.3708 13.8147 26.8022 13.505Z" fill="#C79D0E"/>
</g>
<defs>
<filter id="filter0_d_68_9384" x="1.25186" y="0.423439" width="43.0741" height="54.5562" filterUnits="userSpaceOnUse" color-interpolation-filters="sRGB">
<feFlood flood-opacity="0" result="BackgroundImageFix"/>
<feColorMatrix in="SourceAlpha" type="matrix" values="0 0 0 0 0 0 0 0 0 0 0 0 0 0 0 0 0 0 127 0" result="hardAlpha"/>
<feOffset dx="0.42622" dy="0.85244"/>
<feGaussianBlur stdDeviation="0.85244"/>
<feComposite in2="hardAlpha" operator="out"/>
<feColorMatrix type="matrix" values="0 0 0 0 0.14979 0 0 0 0 0.1482 0 0 0 0 0.18 0 0 0 0.29 0"/>
<feBlend mode="normal" in2="BackgroundImageFix" result="effect1_dropShadow_68_9384"/>
<feBlend mode="normal" in="SourceGraphic" in2="effect1_dropShadow_68_9384" result="shape"/>
</filter>
</defs>
</svg>
