<svg width="80" height="43" viewBox="0 0 80 43" fill="none" xmlns="http://www.w3.org/2000/svg">
<path d="M79.9188 15.3086C79.7688 16.8765 79.3688 18.9036 78.5688 21.1705C78.2788 22.0093 77.9188 22.8881 77.4888 23.7968C75.1488 28.8198 70.8288 34.432 63.1588 38.2766C57.5088 41.1226 50.0488 43 40.2388 43C18.2788 43 8.05878 33.8328 3.46878 25.6842C3.29878 25.3646 3.12879 25.055 2.97879 24.7455C2.49879 23.8467 2.10878 22.958 1.78878 22.1191C0.818782 19.7025 0.318784 17.5655 0.118784 15.9977C-0.0512157 14.6196 -0.0212199 13.7009 0.0987801 13.4412C4.59878 3.96447 20.8688 0 40.2488 0C59.6288 0 74.5288 3.66489 79.7688 12.3028C79.9688 12.6424 80.0788 13.7209 79.9188 15.2987V15.3086Z" fill="white"/>
<path d="M78.1888 16.1173C71.2688 22.3786 56.3188 24.935 39.4688 24.935C22.6188 24.935 14.7288 23.4171 3.46883 17.2857C0.668833 15.7578 0.0288415 13.7007 0.148841 13.451C4.64884 3.97423 20.9189 0.00976562 40.2989 0.00976562C59.6789 0.00976562 74.5788 3.67465 79.8188 12.3126C80.0188 12.6521 80.0388 14.4496 78.1888 16.1173Z" fill="#FFB9FF"/>
<g opacity="0.31">
<path d="M78.5688 21.1709C78.2788 22.0097 77.9188 22.8885 77.4888 23.7972C71.2988 27.2524 59.1288 32.3353 41.0788 32.3353C39.5088 32.3353 37.9088 32.2854 36.2488 32.2155C18.9088 31.3667 8.63882 27.7517 2.97882 24.7559C2.49882 23.8572 2.10882 22.9684 1.78882 22.1296C2.87882 22.8086 4.25883 23.5576 5.99883 24.3465C11.7688 26.9528 21.3188 29.7789 36.3188 30.5179C37.9588 30.5878 39.5488 30.6377 41.0788 30.6377C60.9388 30.6377 73.4788 24.3864 78.5688 21.1809V21.1709Z" fill="#FF1CFF"/>
</g>
<path d="M78.6088 13.2617C78.6088 13.811 77.9488 14.5399 76.7488 15.3588C71.7388 18.784 57.1788 23.7072 40.0088 23.7072C22.8388 23.7072 8.16881 18.764 3.19881 15.3788C1.98881 14.5399 1.08881 13.7211 1.38881 13.2617C5.87881 6.23154 18.6888 1.22852 40.0088 1.22852C61.3288 1.22852 78.6188 7.96911 78.6188 13.2617H78.6088Z" fill="#DFEDD8"/>
<path d="M63.1588 38.276C57.5088 41.1221 50.0488 42.9994 40.2388 42.9994C18.2788 42.9994 8.05875 33.8322 3.46875 25.6836C9.36875 30.7965 19.4588 37.6469 32.0488 38.7753C44.1988 39.8838 55.7488 39.0949 63.1588 38.286V38.276Z" fill="#A68CAB" fill-opacity="0.16"/>
<path d="M76.7688 15.3588C73.7288 17.4359 67.1788 20.0622 58.6588 21.7998C57.6788 21.9995 56.6888 22.2092 55.6588 22.379C50.8788 23.1979 45.6087 23.7072 40.0287 23.7072C22.8387 23.7072 8.18875 18.7641 3.21875 15.3788C8.16875 10.4756 22.6587 6.89062 40.0287 6.89062C57.3987 6.89062 71.7588 10.6254 76.7688 15.3588Z" fill="#FFD44F"/>
<path opacity="0.3" d="M8.00001 15C7.41334 12.2622 14 11.1667 17 11C17 12 12.5 11.8169 12.5 14C12.5 20.5 35.5 20.5 36 21.5C36.7071 22.9142 9.5 22 8.00001 15Z" fill="#FFAE3D"/>
<path opacity="0.2" d="M73 16.1314C71 18.1314 52 22.6314 53.5 21.6313C54.7586 20.7922 68.0927 18.397 67.5 15.6314C66.4999 10.9648 40.4999 8.83479 41.5 8.6314C42.9999 8.32633 49.5 8.21034 53.5 8.6314C63 9.6314 76.5 12.6314 73 16.1314Z" fill="#FCFF59"/>
</svg>
