<svg width="79" height="76" viewBox="0 0 79 76" fill="none" xmlns="http://www.w3.org/2000/svg">
<path d="M68.1893 37.0786C68.1893 37.0786 77.4517 37.0501 78.7776 32.5851C78.9684 31.9676 79.0065 31.2741 78.8634 30.4761C77.8905 24.8616 68.1893 26.5811 68.1893 26.5811V29.7731C68.1893 29.7731 75.5725 28.4336 75.5057 30.7706C75.5057 30.7896 75.5057 30.8086 75.5057 30.8276C75.5057 30.9416 75.4866 31.0556 75.458 31.1791C74.8857 33.7251 68.1893 33.3736 68.1893 33.3736V37.0786Z" fill="#8AEDF2"/>
<path d="M68.1893 28.0813V29.7723C68.1893 29.7723 75.5725 28.4328 75.5057 30.7698C75.83 27.8248 69.7251 28.0053 68.1893 28.0813Z" fill="#74DDE3"/>
<path d="M68.1893 36.0525V37.0785C68.1893 37.0785 77.4517 37.05 78.7776 32.585C78.7776 32.585 77.2132 35.416 71.9095 35.8625C70.078 36.0145 69.0383 36.062 68.1893 36.0525Z" fill="#74DDE3"/>
<path d="M72.2911 27.1514C72.2911 27.1514 77.4326 27.0374 77.1655 30.0014C76.8984 32.9654 74.5327 34.0864 74.5327 34.0864C74.5327 34.0864 78.2053 33.4309 77.8619 29.8874C77.5185 26.3439 72.2911 27.1514 72.2911 27.1514Z" fill="#A8FBFF"/>
<path d="M70.6122 20.9004V70.1674C70.6122 70.1674 68.9238 72.1434 62.2656 73.8154H62.237C57.477 74.9839 50.1797 76.0004 39.1526 76.0004C12.6533 76.0004 7.7121 70.1674 7.7121 70.1674V20.9004C7.7121 20.9004 12.8822 22.4204 23.4324 23.3039C27.7535 23.6744 33 23.9309 39.1622 23.9309C60.3101 23.9309 70.6217 20.9004 70.6217 20.9004H70.6122Z" fill="#00C9D4"/>
<path d="M15.7535 34.0771C17.3129 34.0771 18.577 32.8181 18.577 31.2651C18.577 29.7121 17.3129 28.4531 15.7535 28.4531C14.1941 28.4531 12.9299 29.7121 12.9299 31.2651C12.9299 32.8181 14.1941 34.0771 15.7535 34.0771Z" fill="#DEFEFF"/>
<path d="M28.593 36.2051C30.1524 36.2051 31.4165 34.9461 31.4165 33.3931C31.4165 31.84 30.1524 30.5811 28.593 30.5811C27.0336 30.5811 25.7695 31.84 25.7695 33.3931C25.7695 34.9461 27.0336 36.2051 28.593 36.2051Z" fill="#DEFEFF"/>
<path d="M43.7504 36.2051C45.3098 36.2051 46.5739 34.9461 46.5739 33.3931C46.5739 31.84 45.3098 30.5811 43.7504 30.5811C42.191 30.5811 40.9268 31.84 40.9268 33.3931C40.9268 34.9461 42.191 36.2051 43.7504 36.2051Z" fill="#DEFEFF"/>
<path d="M59.4135 34.0771C60.9729 34.0771 62.237 32.8181 62.237 31.2651C62.237 29.7121 60.9729 28.4531 59.4135 28.4531C57.8541 28.4531 56.5899 29.7121 56.5899 31.2651C56.5899 32.8181 57.8541 34.0771 59.4135 34.0771Z" fill="#DEFEFF"/>
<path d="M70.6122 24.415V29.7255C69.5057 29.336 68.733 28.3005 68.733 27.075C68.733 25.8495 69.5057 24.8045 70.6122 24.4245V24.415Z" fill="#DEFEFF"/>
<path d="M11.5659 40.233C11.4705 41.791 10.1255 42.9595 8.57064 42.8645C8.26539 42.836 7.97922 42.779 7.71213 42.6745V37.4495C8.08415 37.288 8.50387 37.2215 8.93312 37.2405C10.488 37.345 11.6708 38.6845 11.5659 40.233Z" fill="#DEFEFF"/>
<path d="M21.4197 45.8086C22.9791 45.8086 24.2432 44.5496 24.2432 42.9966C24.2432 41.4435 22.9791 40.1846 21.4197 40.1846C19.8603 40.1846 18.5961 41.4435 18.5961 42.9966C18.5961 44.5496 19.8603 45.8086 21.4197 45.8086Z" fill="#DEFEFF"/>
<path d="M36.5485 46.7881C38.1079 46.7881 39.3721 45.5291 39.3721 43.9761C39.3721 42.423 38.1079 41.1641 36.5485 41.1641C34.9891 41.1641 33.725 42.423 33.725 43.9761C33.725 45.5291 34.9891 46.7881 36.5485 46.7881Z" fill="#DEFEFF"/>
<path d="M52.3165 45.6758C53.8759 45.6758 55.14 44.4168 55.14 42.8638C55.14 41.3107 53.8759 40.0518 52.3165 40.0518C50.7571 40.0518 49.493 41.3107 49.493 42.8638C49.493 44.4168 50.7571 45.6758 52.3165 45.6758Z" fill="#DEFEFF"/>
<path d="M67.5311 42.8642C69.0905 42.8642 70.3547 41.6053 70.3547 40.0522C70.3547 38.4992 69.0905 37.2402 67.5311 37.2402C65.9717 37.2402 64.7076 38.4992 64.7076 40.0522C64.7076 41.6053 65.9717 42.8642 67.5311 42.8642Z" fill="#DEFEFF"/>
<path d="M13.8934 54.5019C15.4528 54.5019 16.7169 53.243 16.7169 51.6899C16.7169 50.1369 15.4528 48.8779 13.8934 48.8779C12.334 48.8779 11.0699 50.1369 11.0699 51.6899C11.0699 53.243 12.334 54.5019 13.8934 54.5019Z" fill="#DEFEFF"/>
<path d="M28.593 57.4463C30.1524 57.4463 31.4165 56.1873 31.4165 54.6343C31.4165 53.0812 30.1524 51.8223 28.593 51.8223C27.0336 51.8223 25.7695 53.0812 25.7695 54.6343C25.7695 56.1873 27.0336 57.4463 28.593 57.4463Z" fill="#DEFEFF"/>
<path d="M45.2863 58.1025C46.8457 58.1025 48.1098 56.8435 48.1098 55.2905C48.1098 53.7375 46.8457 52.4785 45.2863 52.4785C43.7269 52.4785 42.4627 53.7375 42.4627 55.2905C42.4627 56.8435 43.7269 58.1025 45.2863 58.1025Z" fill="#DEFEFF"/>
<path d="M62.2369 56.3828C63.7963 56.3828 65.0605 55.1238 65.0605 53.5708C65.0605 52.0178 63.7963 50.7588 62.2369 50.7588C60.6775 50.7588 59.4134 52.0178 59.4134 53.5708C59.4134 55.1238 60.6775 56.3828 62.2369 56.3828Z" fill="#DEFEFF"/>
<path d="M55.14 68.4853C56.6994 68.4853 57.9635 67.2264 57.9635 65.6733C57.9635 64.1203 56.6994 62.8613 55.14 62.8613C53.5806 62.8613 52.3165 64.1203 52.3165 65.6733C52.3165 67.2264 53.5806 68.4853 55.14 68.4853Z" fill="#DEFEFF"/>
<path d="M70.6122 60.1162V65.5787C69.2768 65.2747 68.3419 64.0587 68.4278 62.6717C68.5136 61.3892 69.4199 60.3917 70.6122 60.1162Z" fill="#DEFEFF"/>
<path d="M36.5485 71.2978C38.1079 71.2978 39.3721 70.0389 39.3721 68.4858C39.3721 66.9328 38.1079 65.6738 36.5485 65.6738C34.9891 65.6738 33.725 66.9328 33.725 68.4858C33.725 70.0389 34.9891 71.2978 36.5485 71.2978Z" fill="#DEFEFF"/>
<path d="M19.55 69.4453C21.1094 69.4453 22.3735 68.1863 22.3735 66.6333C22.3735 65.0803 21.1094 63.8213 19.55 63.8213C17.9906 63.8213 16.7264 65.0803 16.7264 66.6333C16.7264 68.1863 17.9906 69.4453 19.55 69.4453Z" fill="#DEFEFF"/>
<g style="mix-blend-mode:multiply" opacity="0.19">
<path d="M62.237 73.8154C57.477 74.9839 50.1797 76.0004 39.1526 76.0004C32.399 76.0004 27.0476 75.6299 22.8314 75.0599C10.4593 73.4069 7.7121 70.1769 7.7121 70.1769V20.9004C7.7121 20.9004 11.1366 21.9169 18.1096 22.7624C19.6931 22.9524 21.4673 23.1519 23.4324 23.3039C23.9856 23.9784 24.3576 24.6719 24.453 25.3559C24.453 25.3559 17.852 63.4509 43.2258 70.7564C51.1527 73.0364 57.3912 73.8249 62.2465 73.8249L62.237 73.8154Z" fill="#00BDC7"/>
</g>
<g style="mix-blend-mode:multiply" opacity="0.19">
<path d="M22.8314 75.0599C10.4593 73.4069 7.7121 70.1769 7.7121 70.1769V20.9004C7.7121 20.9004 11.1366 21.9169 18.1096 22.7624L19.9125 24.5389C19.9125 24.5389 12.5007 24.7479 11.7662 26.9994C11.0412 29.2604 13.3973 34.0484 12.9872 36.8794C12.577 39.7294 8.666 63.0424 14.0269 68.4859C16.5547 71.0699 19.9506 73.3689 22.8219 75.0599H22.8314Z" fill="#00B3BD"/>
</g>
<path d="M70.45 19.418C70.45 19.513 70.45 19.5985 70.4214 19.6935C70.0303 23.408 61.617 24.5575 50.2942 24.909C46.5644 25.0135 42.5199 25.042 38.3323 25.042C27.7631 25.042 18.8251 24.8805 13.5309 23.541C13.5309 23.541 13.5214 23.541 13.5214 23.5315C10.5643 22.781 8.7328 21.66 8.40847 19.9975C8.37032 19.817 8.35124 19.627 8.35124 19.418C8.35124 15.4945 13.4546 12.0175 21.2766 9.88955H21.2861C26.3895 8.50255 32.6375 7.68555 39.4007 7.68555C40.7838 7.68555 42.1383 7.72355 43.4738 7.78055C43.4738 7.78055 43.512 7.78055 43.5978 7.79005C58.7648 8.55955 70.45 13.49 70.45 19.4275V19.418Z" fill="#00C9D4"/>
<path opacity="0.46" d="M70.45 19.4188C70.45 19.5138 70.45 19.5992 70.4214 19.6942L69.6583 20.5113C69.6583 20.4543 69.582 18.1743 66.043 14.8398C61.9603 10.9733 53.9666 9.04475 43.5882 7.78125C58.7552 8.55075 70.4405 13.4813 70.4405 19.4188H70.45Z" fill="#8AEDF2"/>
<path d="M52.1257 23.2759L50.2942 24.9004C46.5644 25.0049 42.5199 25.0334 38.3323 25.0334C27.7631 25.0334 18.8251 24.8719 13.5309 23.5324C13.5309 23.5324 13.5214 23.5324 13.5214 23.5229C11.3083 22.1739 9.62946 20.9769 8.40847 19.9889C8.37032 19.8084 8.35124 19.6184 8.35124 19.4094C8.35124 15.4859 13.4546 12.0089 21.2766 9.88086C20.9332 10.1089 15.0285 14.1369 19.0254 18.5734C23.1462 23.1239 52.1257 23.2759 52.1257 23.2759Z" fill="#00BDC7"/>
<path d="M8.35125 19.0759C8.35125 19.0759 6.18589 19.7219 6.10958 20.8999C6.03327 22.0779 8.94266 23.3509 11.5277 23.9304C25.4546 27.0749 45.0668 26.8089 57.6297 25.3079C65.795 24.3294 70.3547 22.7619 71.8523 20.8999C72.873 19.6269 70.4596 19.0759 70.4596 19.0759C70.4596 19.0759 65.7378 21.9259 56.38 22.9234C47.0223 23.9209 24.6725 24.2819 14.4562 21.8404C7.84567 20.2634 8.34171 19.0664 8.34171 19.0664L8.35125 19.0759Z" fill="#8AEDF2"/>
<path d="M51.0478 24.4158C51.0478 24.4158 58.9747 25.5748 67.4071 22.4208C70.0685 21.4233 71.7378 20.6063 71.1178 20.0268C70.4978 19.4473 69.9159 20.9388 65.9 22.3258C61.8841 23.7128 51.0478 24.4158 51.0478 24.4158Z" fill="#A8FBFF"/>
<path d="M11.7662 35.4913C11.6708 36.2228 11.232 36.6408 11.232 36.6408C11.232 36.6408 2.6183 38.1038 0.54834 33.9238C0.26217 33.3443 0.100006 32.6698 0.100006 31.8623C0.100006 26.1623 7.71212 26.3998 7.71212 26.3998V29.4398C7.71212 29.4398 2.99986 29.2973 3.45773 31.5868C3.45773 31.6153 3.45773 31.6248 3.46727 31.6438C3.49589 31.7483 3.5245 31.8623 3.5722 31.9858C4.57379 34.3988 10.5357 32.9548 10.5357 32.9548C10.5357 32.9548 11.3465 33.2588 11.6994 34.5698C11.7948 34.9213 11.7948 35.2348 11.7567 35.5008L11.7662 35.4913Z" fill="#8AEDF2"/>
<path d="M7.71213 27.7773V29.4303C7.71213 29.4303 2.99987 29.2878 3.45774 31.5773C2.63739 28.7273 6.18589 27.9673 7.71213 27.7773Z" fill="#74DDE3"/>
<path d="M11.7662 35.4923C11.6708 36.2238 11.232 36.6418 11.232 36.6418C11.232 36.6418 2.61827 38.1048 0.548309 33.9248C0.548309 33.9248 2.57058 36.4423 7.87425 35.9863C9.70574 35.8248 10.9267 35.6443 11.7662 35.4923Z" fill="#74DDE3"/>
<path opacity="0.58" d="M36.9205 19.3892C38.6757 19.5222 57.6201 19.7787 65.1273 16.6912C66.4532 16.1497 67.4739 17.0617 65.0224 17.9167C58.5263 20.1872 51.6392 20.7192 42.8538 20.4437C33.6391 20.1587 35.1749 19.2467 36.9205 19.3892Z" fill="#8AEDF2"/>
<path d="M46.078 8.77778C46.078 9.38578 43.1113 10.8678 39.4484 10.8678C35.7854 10.8678 32.8188 9.39528 32.8188 8.77778C32.8188 7.87528 35.7854 7.67578 39.4484 7.67578C43.1113 7.67578 46.078 7.95128 46.078 8.77778Z" fill="#28A9B0"/>
<path d="M43.283 8.18891C43.283 8.79691 41.566 9.73741 39.4483 9.73741C37.3306 9.73741 35.6136 8.79691 35.6136 8.18891C35.6136 7.28641 37.3306 7.08691 39.4483 7.08691C41.566 7.08691 43.283 7.36241 43.283 8.18891Z" fill="#259DA3"/>
<path d="M46.0684 4.503C46.0684 4.7405 46.0398 4.9875 45.973 5.2155C45.477 7.353 42.7393 8.9965 39.4388 8.9965C35.7759 8.9965 32.8188 6.9825 32.8188 4.503C32.8188 4.37 32.8283 4.237 32.8474 4.104C32.8474 4.104 32.8378 4.0945 32.8474 4.0755C32.9809 3.1065 33.5723 2.2325 34.469 1.5295C35.6805 0.589 37.4452 0 39.4388 0C42.9396 0 45.8013 1.8335 46.0398 4.18C46.0684 4.2845 46.0684 4.3985 46.0684 4.503Z" fill="#40CCD4"/>
<path opacity="0.51" d="M46.0493 4.18027C46.0398 4.30377 46.0112 4.40827 45.973 4.53177C45.477 6.66927 42.7393 8.31277 39.4388 8.31277C35.9284 8.31277 33.0572 6.45077 32.8473 4.11377C32.8473 4.11377 32.8378 4.10427 32.8473 4.08527C32.9809 3.11627 33.5723 2.24227 34.469 1.53927C34.6788 1.37777 34.8887 1.22577 35.1367 1.09277C36.2909 0.418266 37.7885 0.00976562 39.4388 0.00976562C42.7107 0.00976562 45.4293 1.61527 45.973 3.72427C46.0016 3.88577 46.0302 4.02827 46.0493 4.18027Z" fill="#8AEDF2"/>
<path opacity="0.4" d="M45.973 3.7145C44.5517 4.617 42.4435 4.959 40.24 4.4745C37.8553 3.971 35.9666 2.6315 35.1367 1.083C36.2909 0.4085 37.7885 0 39.4388 0C42.7106 0 45.4293 1.6055 45.973 3.7145Z" fill="#CFFDFF"/>
</svg>
