<svg width="54" height="61" viewBox="0 0 54 61" fill="none" xmlns="http://www.w3.org/2000/svg">
<path d="M10.4226 9.43257C10.3096 9.50372 10.159 9.47443 10.0837 9.36978C9.4604 8.51172 6.82072 5.06274 4.39021 4.51023C2.58302 4.10003 1.13977 3.91168 0.349126 3.82796C0.0562939 3.79866 -0.098489 3.46381 0.0688439 3.21686L1.48281 1.17007C1.57066 1.0445 1.72544 0.977527 1.87604 1.00683C2.65832 1.15333 5.06791 1.6556 6.30199 2.50529C7.67831 3.45544 9.67793 5.79523 10.7321 9.01819C10.7656 9.12283 10.7238 9.24003 10.6317 9.29863L10.4267 9.42838L10.4226 9.43257Z" fill="#61340F"/>
<path d="M9.40184 8.80053C4.90058 12.237 4.26053 17.7579 4.89221 21.6589C5.58665 25.9743 8.05899 26.0413 9.31817 30.7711C11.0501 37.2672 7.28089 39.6238 8.5066 45.8353C9.43112 50.5149 12.326 55.4791 17.0699 57.9528C23.1691 61.1339 31.6153 60.5772 35.238 56.6971C36.3048 55.5544 37.2586 53.7964 39.7937 52.3607C41.8644 51.1887 43.3118 51.1762 44.6254 50.7702C49.1601 49.3638 51.7161 43.7132 52.239 38.862C53.1301 30.5744 46.9597 22.8434 40.5425 20.3153C36.9155 18.888 35.2087 19.001 31.7952 16.5482C28.0009 13.8233 28.6577 11.2826 25.4867 8.85913C21.5753 5.86638 14.3842 4.99577 9.40602 8.79635L9.40184 8.80053Z" fill="#C1E153"/>
<path d="M5.39003 18.6285C5.95896 13.5638 10.4602 7.98851 14.8904 8.25221C20.1739 8.57032 22.0229 14.8195 23.7715 18.4694C29.5989 30.6288 32.8159 26.5184 35.4095 36.158C36.9699 41.9594 32.5105 50.1884 25.4114 52.683C19.5757 54.734 12.1084 52.683 9.43949 48.1751C6.83328 43.7676 10.3222 40.3228 10.159 33.1276C9.99168 25.7357 4.50735 26.4808 5.39003 18.6285Z" fill="#CDE673"/>
<path d="M7.47751 17.31C8.97932 15.0121 10.9413 13.9531 13.3509 15.0623C15.4551 16.025 16.7519 19.8925 19.2745 24.4549C22.642 30.5367 25.311 29.3982 26.2439 33.1904C27.16 36.9073 27.273 41.9887 20.1488 44.3368C15.3171 45.9274 12.8907 43.7508 10.9831 41.3692C8.23469 37.9369 14.0286 33.881 11.1254 28.875C9.57753 26.2087 7.97532 25.6813 7.17631 22.6132C6.86674 21.4287 6.27689 19.1559 7.48169 17.3142L7.47751 17.31Z" fill="#D7EA8D"/>
<path d="M33.0334 28.5987C33.5278 28.5987 33.9287 28.1977 33.9287 27.703C33.9287 27.2083 33.5278 26.8073 33.0334 26.8073C32.539 26.8073 32.1382 27.2083 32.1382 27.703C32.1382 28.1977 32.539 28.5987 33.0334 28.5987Z" fill="#A8C448"/>
<path d="M43.7093 26.9496C44.0188 26.9496 44.2698 26.6985 44.2698 26.3887C44.2698 26.0789 44.0188 25.8278 43.7093 25.8278C43.3997 25.8278 43.1487 26.0789 43.1487 26.3887C43.1487 26.6985 43.3997 26.9496 43.7093 26.9496Z" fill="#A8C448"/>
<path d="M42.4293 33.0858C42.6143 33.0858 42.7642 32.9358 42.7642 32.7509C42.7642 32.566 42.6143 32.416 42.4293 32.416C42.2444 32.416 42.0945 32.566 42.0945 32.7509C42.0945 32.9358 42.2444 33.0858 42.4293 33.0858Z" fill="#A8C448"/>
<path d="M36.489 34.986C36.674 34.986 36.8239 34.8361 36.8239 34.6512C36.8239 34.4663 36.674 34.3163 36.489 34.3163C36.3041 34.3163 36.1542 34.4663 36.1542 34.6512C36.1542 34.8361 36.3041 34.986 36.489 34.986Z" fill="#A8C448"/>
<path d="M36.4221 30.2646C36.607 30.2646 36.757 30.1147 36.757 29.9298C36.757 29.7448 36.607 29.5949 36.4221 29.5949C36.2372 29.5949 36.0872 29.7448 36.0872 29.9298C36.0872 30.1147 36.2372 30.2646 36.4221 30.2646Z" fill="#A8C448"/>
<path d="M48.5035 35.0153C48.6584 35.0153 48.7839 34.8898 48.7839 34.7349C48.7839 34.58 48.6584 34.4545 48.5035 34.4545C48.3486 34.4545 48.2231 34.58 48.2231 34.7349C48.2231 34.8898 48.3486 35.0153 48.5035 35.0153Z" fill="#A8C448"/>
<path d="M33.3013 49.9079C33.4562 49.9079 33.5817 49.7824 33.5817 49.6275C33.5817 49.4726 33.4562 49.3471 33.3013 49.3471C33.1464 49.3471 33.0209 49.4726 33.0209 49.6275C33.0209 49.7824 33.1464 49.9079 33.3013 49.9079Z" fill="#A8C448"/>
<path d="M47.0643 31.1101C47.4802 31.1101 47.8173 30.7728 47.8173 30.3567C47.8173 29.9406 47.4802 29.6033 47.0643 29.6033C46.6484 29.6033 46.3113 29.9406 46.3113 30.3567C46.3113 30.7728 46.6484 31.1101 47.0643 31.1101Z" fill="#A8C448"/>
<path d="M32.8661 36.1748C33.1757 36.1748 33.4267 35.9237 33.4267 35.6139C33.4267 35.3041 33.1757 35.053 32.8661 35.053C32.5565 35.053 32.3055 35.3041 32.3055 35.6139C32.3055 35.9237 32.5565 36.1748 32.8661 36.1748Z" fill="#A8C448"/>
<path d="M29.5698 25.539C29.7247 25.539 29.8502 25.4134 29.8502 25.2586C29.8502 25.1037 29.7247 24.9781 29.5698 24.9781C29.4149 24.9781 29.2893 25.1037 29.2893 25.2586C29.2893 25.4134 29.4149 25.539 29.5698 25.539Z" fill="#A8C448"/>
<path d="M34.9788 42.4993C35.1337 42.4993 35.2593 42.3738 35.2593 42.2189C35.2593 42.064 35.1337 41.9384 34.9788 41.9384C34.8239 41.9384 34.6984 42.064 34.6984 42.2189C34.6984 42.3738 34.8239 42.4993 34.9788 42.4993Z" fill="#A8C448"/>
<path d="M40.3961 29.7623C40.8119 29.7623 41.1491 29.425 41.1491 29.0089C41.1491 28.5928 40.8119 28.2555 40.3961 28.2555C39.9802 28.2555 39.6431 28.5928 39.6431 29.0089C39.6431 29.425 39.9802 29.7623 40.3961 29.7623Z" fill="#A8C448"/>
<path d="M34.3302 20.9808C34.5775 20.9808 34.7779 20.7803 34.7779 20.5329C34.7779 20.2856 34.5775 20.0851 34.3302 20.0851C34.083 20.0851 33.8826 20.2856 33.8826 20.5329C33.8826 20.7803 34.083 20.9808 34.3302 20.9808Z" fill="#A8C448"/>
<path d="M27.9549 21.9268C28.3707 21.9268 28.7079 21.5895 28.7079 21.1734C28.7079 20.7573 28.3707 20.4199 27.9549 20.4199C27.539 20.4199 27.2019 20.7573 27.2019 21.1734C27.2019 21.5895 27.539 21.9268 27.9549 21.9268Z" fill="#A8C448"/>
<path d="M40.0823 37.9704C40.3919 37.9704 40.6429 37.7193 40.6429 37.4095C40.6429 37.0998 40.3919 36.8487 40.0823 36.8487C39.7727 36.8487 39.5218 37.0998 39.5218 37.4095C39.5218 37.7193 39.7727 37.9704 40.0823 37.9704Z" fill="#A8C448"/>
<path d="M48.2482 41.5031C48.6802 41.5031 49.0304 41.1527 49.0304 40.7204C49.0304 40.2881 48.6802 39.9377 48.2482 39.9377C47.8161 39.9377 47.4659 40.2881 47.4659 40.7204C47.4659 41.1527 47.8161 41.5031 48.2482 41.5031Z" fill="#A8C448"/>
<path d="M36.9323 23.4922C37.4336 23.4922 37.8401 23.0856 37.8401 22.5839C37.8401 22.0823 37.4336 21.6756 36.9323 21.6756C36.4309 21.6756 36.0245 22.0823 36.0245 22.5839C36.0245 23.0856 36.4309 23.4922 36.9323 23.4922Z" fill="#A8C448"/>
<path d="M45.2278 43.6922C45.4704 43.6922 45.6671 43.4955 45.6671 43.2527C45.6671 43.01 45.4704 42.8132 45.2278 42.8132C44.9852 42.8132 44.7886 43.01 44.7886 43.2527C44.7886 43.4955 44.9852 43.6922 45.2278 43.6922Z" fill="#A8C448"/>
<path d="M40.7391 43.8429C41.1758 43.8429 41.5297 43.4887 41.5297 43.0518C41.5297 42.6149 41.1758 42.2607 40.7391 42.2607C40.3024 42.2607 39.9485 42.6149 39.9485 43.0518C39.9485 43.4887 40.3024 43.8429 40.7391 43.8429Z" fill="#A8C448"/>
<path d="M44.3535 39.3977C44.8433 39.3977 45.2404 39.0004 45.2404 38.5104C45.2404 38.0203 44.8433 37.623 44.3535 37.623C43.8637 37.623 43.4666 38.0203 43.4666 38.5104C43.4666 39.0004 43.8637 39.3977 44.3535 39.3977Z" fill="#A8C448"/>
<path d="M37.4175 48.4974C37.6601 48.4974 37.8568 48.3006 37.8568 48.0579C37.8568 47.8151 37.6601 47.6184 37.4175 47.6184C37.175 47.6184 36.9783 47.8151 36.9783 48.0579C36.9783 48.3006 37.175 48.4974 37.4175 48.4974Z" fill="#A8C448"/>
<path d="M43.1989 48.0244C43.4415 48.0244 43.6381 47.8276 43.6381 47.5849C43.6381 47.3422 43.4415 47.1454 43.1989 47.1454C42.9563 47.1454 42.7596 47.3422 42.7596 47.5849C42.7596 47.8276 42.9563 48.0244 43.1989 48.0244Z" fill="#A8C448"/>
</svg>
