<svg width="67" height="75" viewBox="0 0 67 75" fill="none" xmlns="http://www.w3.org/2000/svg">
<path d="M13.4409 10.8733C13.2934 10.9593 13.1089 10.9225 13.0105 10.7872C12.2233 9.70485 8.89032 5.35102 5.81558 4.64997C3.54027 4.13342 1.70772 3.89974 0.711501 3.78905C0.342532 3.75215 0.145748 3.32168 0.354831 3.01421L2.13818 0.431426C2.24887 0.271539 2.44566 0.185446 2.63014 0.222343C3.61406 0.406828 6.66421 1.04637 8.22618 2.11639C9.96033 3.30939 12.4939 6.27344 13.8222 10.3321C13.8714 10.4674 13.8222 10.615 13.6992 10.6888L13.4409 10.8487V10.8733Z" fill="white"/>
<path d="M13.441 10.8731L13.3058 10.6518H13.2812L13.232 10.6395C12.8384 10.086 11.793 8.72082 10.4647 7.39253C9.1364 6.06424 7.51293 4.77285 5.88947 4.40388C3.60186 3.88732 1.75701 3.64134 0.760797 3.54295C0.637807 3.54295 0.564013 3.43226 0.551714 3.32157L0.588611 3.18628L2.37196 0.603493C2.42116 0.541999 2.48265 0.505102 2.55645 0.505102H2.59334C3.0853 0.603493 4.08152 0.800277 5.15153 1.12005C6.22154 1.42752 7.35305 1.85799 8.09099 2.36225C9.77595 3.51835 12.2726 6.43321 13.5763 10.4427L13.5517 10.4919L13.2935 10.6518L13.4287 10.8731L13.564 11.0945L13.8223 10.9346C13.9945 10.8239 14.0929 10.6395 14.0929 10.455C14.0929 10.3935 14.0929 10.332 14.0683 10.2828C12.7154 6.15033 10.1695 3.17398 8.37386 1.93178C7.54983 1.36603 6.38143 0.935565 5.28682 0.615792C4.19221 0.296019 3.1837 0.0869361 2.67944 0.000843243H2.54415C2.29817 -0.0114557 2.06449 0.111534 1.9169 0.320617L0.145848 2.8911C0.059755 3.01409 0.0105591 3.17398 0.0105591 3.32157C0.0105591 3.69054 0.281137 4.03491 0.687003 4.0718C1.67092 4.1702 3.49117 4.41618 5.75418 4.92043C7.19316 5.24021 8.77973 6.47011 10.0711 7.7738C11.3748 9.06519 12.3956 10.4181 12.7892 10.9592C12.8999 11.1191 13.0844 11.2052 13.2566 11.1929C13.3672 11.1929 13.4779 11.1683 13.564 11.1068L13.4287 10.8854L13.441 10.8731Z" fill="black"/>
<path d="M12.1496 10.0742C6.46751 14.4157 5.65578 21.377 6.45521 26.3089C7.32844 31.7573 10.4524 31.8434 12.0389 37.8084C14.2282 46.0118 9.46846 48.9882 11.0181 56.8226C12.1865 62.7261 15.8393 68.9986 21.8289 72.1225C29.5281 76.1443 40.2036 75.4433 44.7788 70.536C46.1317 69.097 47.3247 66.8709 50.5347 65.0629C53.1544 63.5871 54.9747 63.5748 56.635 63.0582C62.3664 61.2871 65.5887 54.1537 66.2528 48.0288C67.372 37.5624 59.5868 27.8093 51.4818 24.6239C46.9065 22.8159 44.7419 22.9635 40.4373 19.8765C35.6407 16.4328 36.477 13.235 32.4675 10.1726C27.5234 6.39681 18.4467 5.3022 12.1619 10.0988" fill="white"/>
<path d="M12.1497 10.0736L11.9898 9.86451C7.38997 13.382 5.92639 18.5845 5.92639 23.0613C5.92639 24.2174 6.02478 25.3243 6.18467 26.3451C6.62743 29.1124 7.67285 30.5637 8.76745 32.015C9.86206 33.4662 10.9936 34.9298 11.7807 37.8693C12.1989 39.4313 12.3588 40.7964 12.3588 42.0386C12.3588 44.1664 11.8914 45.962 11.3994 47.7823C10.9198 49.6025 10.4278 51.4596 10.4278 53.6981C10.4278 54.682 10.5262 55.7274 10.7476 56.8835C11.9283 62.8485 15.618 69.1825 21.6937 72.3679C25.1005 74.139 29.0608 74.9999 32.8366 74.9999C37.7192 74.9999 42.2945 73.5609 44.9633 70.7198C46.3408 69.2317 47.5092 67.0793 50.6578 65.296C53.2282 63.8447 54.987 63.8324 56.7089 63.3159C59.6606 62.4057 61.9359 60.1181 63.5717 57.314C65.1952 54.5098 66.1791 51.1645 66.5111 48.0651C66.5849 47.3764 66.6218 46.6876 66.6218 45.9989C66.6218 41.0916 64.777 36.4426 61.9728 32.6422C59.1687 28.8418 55.4175 25.8901 51.5802 24.3773C49.2803 23.4672 47.583 23.049 45.9473 22.4833C44.3115 21.9175 42.7249 21.1919 40.5849 19.6545C38.2235 17.9572 37.2765 16.3584 36.3787 14.7472C35.4931 13.136 34.6691 11.5126 32.6152 9.95061C29.9217 7.89668 26.0598 6.62988 22.0503 6.62988C18.5574 6.62988 14.9661 7.6015 11.9775 9.87681L12.1374 10.0859L12.2973 10.295C15.1752 8.09346 18.6558 7.15874 22.0503 7.15874C25.9368 7.15874 29.7126 8.40094 32.2954 10.3688C34.2509 11.8692 35.0135 13.382 35.9113 14.9932C36.8091 16.6166 37.8299 18.3262 40.2651 20.0727C42.442 21.6346 44.0901 22.3849 45.7505 22.9629C47.4231 23.541 49.0958 23.9591 51.3588 24.857C55.0977 26.3205 58.7751 29.2231 61.5301 32.9497C64.2727 36.6763 66.0807 41.2269 66.0807 45.9866C66.0807 46.6507 66.0438 47.3149 65.97 47.9913C65.6502 51.0169 64.6786 54.3007 63.092 57.0311C61.5055 59.7615 59.3162 61.9384 56.5367 62.7993C54.9378 63.3036 53.0438 63.3282 50.3872 64.8286C47.128 66.6735 45.8858 68.9488 44.5698 70.3509C42.0731 73.0321 37.6086 74.4587 32.8366 74.4587C29.1469 74.4587 25.2604 73.6101 21.9397 71.8882C16.0361 68.8135 12.408 62.6148 11.2641 56.7728C11.0428 55.6536 10.9567 54.6328 10.9567 53.6981C10.9567 51.5334 11.424 49.7378 11.916 47.9175C12.3957 46.0973 12.8876 44.2524 12.8876 42.0386C12.8876 40.7472 12.7154 39.3452 12.2973 37.734C11.4978 34.7084 10.2802 33.1465 9.18562 31.6952C8.10331 30.2439 7.14399 28.9279 6.71353 26.259C6.55364 25.2628 6.45525 24.1805 6.45525 23.049C6.45525 18.6706 7.86963 13.6649 12.3096 10.2704L12.1497 10.0613V10.0736Z" fill="black"/>
<path d="M41.9866 32.8145C41.7776 32.8145 41.5686 32.8759 41.3842 32.9866C40.8555 33.3186 40.6956 34.0194 41.0276 34.5481C41.2366 34.8923 41.6055 35.0768 41.9866 35.0768C42.1956 35.0768 42.4047 35.0153 42.5891 34.9046C43.1178 34.5727 43.2776 33.8718 42.9456 33.3431C42.7366 32.9989 42.3678 32.8145 41.9866 32.8145Z" fill="#C4C4C4"/>
<path d="M55.4664 31.5723C55.3435 31.5723 55.2082 31.6091 55.0853 31.6829C54.7533 31.8919 54.6549 32.3223 54.864 32.6542C54.9992 32.8632 55.2328 32.9862 55.4664 32.9862C55.5894 32.9862 55.7246 32.9493 55.8476 32.8755C56.1795 32.6665 56.2779 32.2362 56.0689 31.9042C55.9336 31.6952 55.7 31.5723 55.4664 31.5723Z" fill="#C4C4C4"/>
<path d="M53.8553 39.8867C53.7816 39.8867 53.6955 39.9113 53.634 39.9482C53.4373 40.0711 53.3758 40.3293 53.4988 40.5384C53.5849 40.6613 53.7201 40.7351 53.8553 40.7351C53.9291 40.7351 54.0152 40.7105 54.0767 40.6736C54.2734 40.5507 54.3349 40.2925 54.2119 40.0834C54.1258 39.9605 53.9906 39.8867 53.8553 39.8867Z" fill="#C4C4C4"/>
<path d="M46.353 42.2852C46.2792 42.2852 46.1931 42.3097 46.1317 42.3466C45.9349 42.4696 45.8735 42.7278 45.9964 42.9368C46.0825 43.0597 46.2177 43.1335 46.353 43.1335C46.4267 43.1335 46.5128 43.1089 46.5743 43.072C46.771 42.9491 46.8325 42.6909 46.7095 42.4819C46.6235 42.3589 46.4882 42.2852 46.353 42.2852Z" fill="#C4C4C4"/>
<path d="M46.2669 36.333C46.1931 36.333 46.107 36.3576 46.0455 36.3945C45.8488 36.5174 45.7873 36.7756 45.9103 36.9846C45.9964 37.1076 46.1316 37.1814 46.2669 37.1814C46.3406 37.1814 46.4267 37.1568 46.4882 37.1199C46.6849 36.9969 46.7464 36.7387 46.6234 36.5297C46.5373 36.4068 46.4021 36.333 46.2669 36.333Z" fill="#C4C4C4"/>
<path d="M61.5299 42.4688C61.3701 42.4688 61.2225 42.5794 61.1856 42.7392C61.1365 42.9237 61.2594 43.1204 61.4561 43.1573C61.4807 43.1573 61.5053 43.1573 61.5299 43.1573C61.6897 43.1573 61.8373 43.0466 61.8742 42.8868C61.9234 42.7024 61.8004 42.5056 61.6037 42.4688C61.5791 42.4688 61.5545 42.4688 61.5299 42.4688Z" fill="#C4C4C4"/>
<path d="M42.3312 61.2617C42.1714 61.2617 42.0238 61.3724 41.987 61.5322C41.9501 61.7166 42.0607 61.9134 42.2574 61.9502C42.282 61.9502 42.3066 61.9502 42.3312 61.9502C42.4911 61.9502 42.6386 61.8396 42.6755 61.6798C42.7124 61.4953 42.6017 61.2986 42.405 61.2617C42.3804 61.2617 42.3558 61.2617 42.3312 61.2617Z" fill="#C4C4C4"/>
<path d="M59.7095 36.333C59.2791 36.333 58.8857 36.6281 58.7873 37.0707C58.6767 37.5871 58.9964 38.0912 59.5004 38.2142C59.5742 38.2264 59.6357 38.2387 59.7095 38.2387C60.1398 38.2387 60.5332 37.9437 60.6316 37.501C60.7423 36.9846 60.4226 36.4805 59.9185 36.3576C59.8447 36.3453 59.7832 36.333 59.7095 36.333Z" fill="#C4C4C4"/>
<path d="M41.7776 43.2197C41.6547 43.2197 41.5194 43.2566 41.3965 43.3304C41.0645 43.5394 40.9662 43.9697 41.1752 44.3017C41.3104 44.5107 41.544 44.6337 41.7776 44.6337C41.9006 44.6337 42.0358 44.5968 42.1588 44.523C42.4908 44.314 42.5891 43.8837 42.3801 43.5517C42.2449 43.3427 42.0112 43.2197 41.7776 43.2197Z" fill="#C4C4C4"/>
<path d="M37.6207 30.502C37.4609 30.502 37.3133 30.6126 37.2765 30.7724C37.2396 30.9569 37.3502 31.1536 37.5469 31.1905C37.5715 31.1905 37.5961 31.1905 37.6207 31.1905C37.7805 31.1905 37.9281 31.0798 37.965 30.92C38.0142 30.7356 37.8912 30.5388 37.6945 30.502C37.6699 30.502 37.6453 30.502 37.6207 30.502Z" fill="#C4C4C4"/>
<path d="M44.4467 51.915C44.2868 51.915 44.1393 52.0257 44.1024 52.1855C44.0532 52.37 44.1762 52.5667 44.3729 52.6036C44.3975 52.6036 44.4221 52.6036 44.4467 52.6036C44.6065 52.6036 44.754 52.4929 44.7909 52.3331C44.8401 52.1486 44.7172 51.9519 44.5204 51.915C44.4958 51.915 44.4713 51.915 44.4467 51.915Z" fill="#C4C4C4"/>
<path d="M51.2847 34.6348C50.8543 34.6348 50.4609 34.9298 50.3625 35.3725C50.2519 35.8889 50.5716 36.393 51.0756 36.5159C51.1494 36.5282 51.2109 36.5405 51.2847 36.5405C51.715 36.5405 52.1084 36.2454 52.2068 35.8028C52.3174 35.2864 51.9978 34.7823 51.4937 34.6594C51.4199 34.6471 51.3584 34.6348 51.2847 34.6348Z" fill="#C4C4C4"/>
<path d="M43.6226 24.3281C43.5242 24.3281 43.4135 24.3527 43.3275 24.4142C43.0693 24.5863 42.9832 24.9306 43.1553 25.1888C43.266 25.3609 43.4504 25.447 43.6349 25.447C43.7332 25.447 43.8439 25.4224 43.9299 25.3609C44.1881 25.1888 44.2742 24.8445 44.1021 24.5863C43.9914 24.4142 43.807 24.3281 43.6226 24.3281Z" fill="#C4C4C4"/>
<path d="M35.5789 24.7471C35.4068 24.7471 35.2346 24.7963 35.0748 24.8946C34.6322 25.1774 34.4969 25.7676 34.7797 26.2102C34.9642 26.493 35.2715 26.6528 35.5912 26.6528C35.7633 26.6528 35.9355 26.6036 36.0953 26.5053C36.5379 26.2225 36.6732 25.6323 36.3904 25.1897C36.206 24.9069 35.8986 24.7471 35.5789 24.7471Z" fill="#C4C4C4"/>
<path d="M50.8912 45.4824C50.7683 45.4824 50.633 45.5193 50.5101 45.5931C50.1781 45.8021 50.0798 46.2324 50.2888 46.5644C50.424 46.7734 50.6576 46.8964 50.8912 46.8964C51.0142 46.8964 51.1494 46.8595 51.2724 46.7857C51.6043 46.5767 51.7027 46.1464 51.4937 45.8144C51.3584 45.6054 51.1248 45.4824 50.8912 45.4824Z" fill="#C4C4C4"/>
<path d="M61.2099 49.3809C61.0255 49.3809 60.8411 49.43 60.6812 49.5284C60.214 49.8235 60.0788 50.4259 60.3739 50.8932C60.5583 51.1882 60.878 51.3481 61.2099 51.3481C61.3944 51.3481 61.5788 51.2989 61.7386 51.2005C62.2058 50.9055 62.3411 50.303 62.046 49.8358C61.8616 49.5407 61.5419 49.3809 61.2099 49.3809Z" fill="#C4C4C4"/>
<path d="M46.9185 26.334C46.7095 26.334 46.5004 26.3955 46.3037 26.5061C45.775 26.8381 45.6152 27.5512 45.9472 28.0799C46.1685 28.4241 46.5373 28.6086 46.9185 28.6086C47.1275 28.6086 47.3365 28.5471 47.5332 28.4364C48.0619 28.1045 48.2218 27.3914 47.8898 26.8627C47.6685 26.5184 47.2996 26.334 46.9185 26.334Z" fill="#C4C4C4"/>
<path d="M57.3974 53.0098C57.2622 53.0098 57.1146 53.0589 57.0163 53.1696C56.795 53.3786 56.795 53.7352 57.0163 53.9565C57.1269 54.0671 57.2745 54.1286 57.4097 54.1286C57.545 54.1286 57.6925 54.0794 57.7909 53.9688C58.0122 53.7598 58.0122 53.4032 57.7909 53.1819C57.6802 53.0712 57.5327 53.0098 57.3974 53.0098Z" fill="#C4C4C4"/>
<path d="M51.7274 52.3086C51.4815 52.3086 51.2233 52.407 51.0266 52.5914C50.6332 52.9725 50.6209 53.6119 51.002 54.0053C51.1988 54.202 51.457 54.3127 51.7152 54.3127C51.9733 54.3127 52.2192 54.2143 52.416 54.0299C52.8094 53.6488 52.8217 53.0094 52.4406 52.616C52.2438 52.4192 51.9856 52.3086 51.7274 52.3086Z" fill="#C4C4C4"/>
<path d="M56.2903 46.4531C56.0076 46.4531 55.7248 46.5638 55.5158 46.7728C55.0731 47.2031 55.0608 47.9162 55.4912 48.3589C55.7125 48.5802 56.0076 48.7031 56.2903 48.7031C56.5731 48.7031 56.8559 48.5925 57.0649 48.3835C57.5076 47.9531 57.5199 47.24 57.0895 46.7974C56.8682 46.5761 56.5731 46.4531 56.2903 46.4531Z" fill="#C4C4C4"/>
<path d="M47.5336 59.0732C47.3984 59.0732 47.2508 59.1224 47.1402 59.2331C46.9189 59.4421 46.9189 59.7987 47.1402 60.02C47.2508 60.1306 47.3984 60.1921 47.5336 60.1921C47.6689 60.1921 47.8164 60.1429 47.9271 60.0323C48.1484 59.8232 48.1484 59.4667 47.9271 59.2454C47.8164 59.1347 47.6689 59.0732 47.5336 59.0732Z" fill="#C4C4C4"/>
<path d="M54.8269 58.4834C54.6916 58.4834 54.5441 58.5326 54.4334 58.6432C54.2121 58.8523 54.2121 59.2088 54.4334 59.4301C54.5441 59.5408 54.6916 59.6023 54.8269 59.6023C54.9621 59.6023 55.1097 59.5531 55.2203 59.4424C55.4416 59.2334 55.4416 58.8768 55.2203 58.6555C55.1097 58.5449 54.9621 58.4834 54.8269 58.4834Z" fill="#C4C4C4"/>
</svg>
