<svg width="67" height="75" viewBox="0 0 67 75" fill="none" xmlns="http://www.w3.org/2000/svg">
<path d="M13.6144 11.4781C13.4755 11.5656 13.2903 11.5296 13.1977 11.4009C12.4312 10.3457 9.18512 6.10443 6.19627 5.425C3.97393 4.92057 2.19914 4.68895 1.22686 4.58601C0.866757 4.54998 0.676417 4.1382 0.88219 3.83451L2.62097 1.31753C2.729 1.16312 2.91934 1.08076 3.10454 1.11679C4.06652 1.29695 7.02965 1.91461 8.54722 2.95949C10.2397 4.12791 12.6987 7.00519 13.9951 10.9685C14.0362 11.0972 13.9848 11.2413 13.8716 11.3134L13.6195 11.473L13.6144 11.4781Z" fill="#61340F"/>
<path d="M12.3592 10.7009C6.82388 14.9267 6.0368 21.7159 6.81359 26.5131C7.66755 31.8198 10.7078 31.9022 12.2563 37.7185C14.386 45.707 9.751 48.6048 11.2583 56.2433C12.3952 61.9979 15.955 68.1024 21.7887 71.1444C29.2891 75.0563 39.6755 74.3717 44.1305 69.6003C45.4423 68.1951 46.6152 66.0333 49.7326 64.2678C52.2791 62.8266 54.059 62.8111 55.6743 62.3118C61.2508 60.5824 64.394 53.6337 65.037 47.6681C66.1327 37.4766 58.5449 27.9697 50.6535 24.8608C46.1934 23.1056 44.0945 23.2446 39.8967 20.2283C35.2308 16.8775 36.0385 13.7532 32.1391 10.7729C27.3291 7.09269 18.486 6.02208 12.3643 10.6957L12.3592 10.7009Z" fill="#C1E153"/>
<path d="M7.42577 22.7865C8.12539 16.5584 13.6607 9.70232 19.1085 10.0266C25.6058 10.4178 27.8796 18.1025 30.0299 22.5909C37.1959 37.5435 41.1519 32.489 44.3414 44.343C46.2602 51.477 40.7764 61.5964 32.0465 64.6641C24.8701 67.1862 15.6875 64.6641 12.4055 59.1206C9.20055 53.7006 13.4909 49.4644 13.2903 40.6164C13.0845 31.5264 6.34031 32.4426 7.42577 22.7865Z" fill="#CDE673"/>
<path d="M9.99278 21.1651C11.8396 18.3393 14.2523 17.0371 17.2154 18.4011C19.803 19.5849 21.3977 24.341 24.4998 29.9514C28.6409 37.4303 31.923 36.0302 33.0702 40.6936C34.1968 45.2643 34.3357 51.513 25.5749 54.4006C19.6332 56.3565 16.6495 53.68 14.3037 50.7512C10.9239 46.5305 18.0488 41.5429 14.4786 35.3868C12.5752 32.1081 10.605 31.4595 9.62239 27.6866C9.24171 26.23 8.51636 23.435 9.99792 21.1703L9.99278 21.1651Z" fill="#D7EA8D"/>
<path d="M41.4194 35.0471C42.0274 35.0471 42.5203 34.554 42.5203 33.9456C42.5203 33.3373 42.0274 32.8441 41.4194 32.8441C40.8114 32.8441 40.3185 33.3373 40.3185 33.9456C40.3185 34.554 40.8114 35.0471 41.4194 35.0471Z" fill="#A8C448"/>
<path d="M54.5477 33.0191C54.9284 33.0191 55.2371 32.7103 55.2371 32.3294C55.2371 31.9485 54.9284 31.6397 54.5477 31.6397C54.167 31.6397 53.8584 31.9485 53.8584 32.3294C53.8584 32.7103 54.167 33.0191 54.5477 33.0191Z" fill="#A8C448"/>
<path d="M52.9738 40.5649C53.2012 40.5649 53.3856 40.3806 53.3856 40.1531C53.3856 39.9257 53.2012 39.7414 52.9738 39.7414C52.7464 39.7414 52.562 39.9257 52.562 40.1531C52.562 40.3806 52.7464 40.5649 52.9738 40.5649Z" fill="#A8C448"/>
<path d="M45.6689 42.9018C45.8963 42.9018 46.0806 42.7174 46.0806 42.49C46.0806 42.2626 45.8963 42.0782 45.6689 42.0782C45.4414 42.0782 45.2571 42.2626 45.2571 42.49C45.2571 42.7174 45.4414 42.9018 45.6689 42.9018Z" fill="#A8C448"/>
<path d="M45.5866 37.0957C45.814 37.0957 45.9983 36.9114 45.9983 36.6839C45.9983 36.4565 45.814 36.2722 45.5866 36.2722C45.3591 36.2722 45.1748 36.4565 45.1748 36.6839C45.1748 36.9114 45.3591 37.0957 45.5866 37.0957Z" fill="#A8C448"/>
<path d="M60.4433 42.9378C60.6338 42.9378 60.7882 42.7834 60.7882 42.5929C60.7882 42.4025 60.6338 42.2481 60.4433 42.2481C60.2528 42.2481 60.0984 42.4025 60.0984 42.5929C60.0984 42.7834 60.2528 42.9378 60.4433 42.9378Z" fill="#A8C448"/>
<path d="M41.7489 61.2515C41.9393 61.2515 42.0937 61.0971 42.0937 60.9067C42.0937 60.7162 41.9393 60.5618 41.7489 60.5618C41.5584 60.5618 41.404 60.7162 41.404 60.9067C41.404 61.0971 41.5584 61.2515 41.7489 61.2515Z" fill="#A8C448"/>
<path d="M58.6735 38.1354C59.1849 38.1354 59.5994 37.7206 59.5994 37.209C59.5994 36.6973 59.1849 36.2825 58.6735 36.2825C58.1621 36.2825 57.7475 36.6973 57.7475 37.209C57.7475 37.7206 58.1621 38.1354 58.6735 38.1354Z" fill="#A8C448"/>
<path d="M41.2136 44.3636C41.5944 44.3636 41.903 44.0548 41.903 43.6738C41.903 43.2929 41.5944 42.9841 41.2136 42.9841C40.8329 42.9841 40.5243 43.2929 40.5243 43.6738C40.5243 44.0548 40.8329 44.3636 41.2136 44.3636Z" fill="#A8C448"/>
<path d="M37.1601 31.2845C37.3506 31.2845 37.505 31.1301 37.505 30.9397C37.505 30.7492 37.3506 30.5948 37.1601 30.5948C36.9697 30.5948 36.8153 30.7492 36.8153 30.9397C36.8153 31.1301 36.9697 31.2845 37.1601 31.2845Z" fill="#A8C448"/>
<path d="M43.8117 52.141C44.0022 52.141 44.1566 51.9866 44.1566 51.7961C44.1566 51.6057 44.0022 51.4513 43.8117 51.4513C43.6213 51.4513 43.4669 51.6057 43.4669 51.7961C43.4669 51.9866 43.6213 52.141 43.8117 52.141Z" fill="#A8C448"/>
<path d="M50.4734 36.4781C50.9848 36.4781 51.3994 36.0632 51.3994 35.5516C51.3994 35.0399 50.9848 34.6251 50.4734 34.6251C49.962 34.6251 49.5475 35.0399 49.5475 35.5516C49.5475 36.0632 49.962 36.4781 50.4734 36.4781Z" fill="#A8C448"/>
<path d="M43.0142 25.6792C43.3182 25.6792 43.5646 25.4326 43.5646 25.1285C43.5646 24.8243 43.3182 24.5777 43.0142 24.5777C42.7102 24.5777 42.4637 24.8243 42.4637 25.1285C42.4637 25.4326 42.7102 25.6792 43.0142 25.6792Z" fill="#A8C448"/>
<path d="M35.1742 26.8425C35.6856 26.8425 36.1002 26.4277 36.1002 25.916C36.1002 25.4043 35.6856 24.9895 35.1742 24.9895C34.6628 24.9895 34.2482 25.4043 34.2482 25.916C34.2482 26.4277 34.6628 26.8425 35.1742 26.8425Z" fill="#A8C448"/>
<path d="M50.0876 46.5717C50.4683 46.5717 50.7769 46.2629 50.7769 45.882C50.7769 45.5011 50.4683 45.1923 50.0876 45.1923C49.7069 45.1923 49.3983 45.5011 49.3983 45.882C49.3983 46.2629 49.7069 46.5717 50.0876 46.5717Z" fill="#A8C448"/>
<path d="M60.1293 50.9159C60.6606 50.9159 61.0913 50.485 61.0913 49.9534C61.0913 49.4218 60.6606 48.9909 60.1293 48.9909C59.598 48.9909 59.1673 49.4218 59.1673 49.9534C59.1673 50.485 59.598 50.9159 60.1293 50.9159Z" fill="#A8C448"/>
<path d="M46.2139 28.7675C46.8305 28.7675 47.3302 28.2675 47.3302 27.6506C47.3302 27.0337 46.8305 26.5337 46.2139 26.5337C45.5974 26.5337 45.0976 27.0337 45.0976 27.6506C45.0976 28.2675 45.5974 28.7675 46.2139 28.7675Z" fill="#A8C448"/>
<path d="M56.4151 53.6079C56.7134 53.6079 56.9553 53.366 56.9553 53.0675C56.9553 52.769 56.7134 52.527 56.4151 52.527C56.1168 52.527 55.875 52.769 55.875 53.0675C55.875 53.366 56.1168 53.6079 56.4151 53.6079Z" fill="#A8C448"/>
<path d="M50.8953 53.7932C51.4322 53.7932 51.8675 53.3577 51.8675 52.8204C51.8675 52.2831 51.4322 51.8476 50.8953 51.8476C50.3583 51.8476 49.923 52.2831 49.923 52.8204C49.923 53.3577 50.3583 53.7932 50.8953 53.7932Z" fill="#A8C448"/>
<path d="M55.3399 48.3269C55.9423 48.3269 56.4305 47.8384 56.4305 47.2357C56.4305 46.633 55.9423 46.1445 55.3399 46.1445C54.7376 46.1445 54.2494 46.633 54.2494 47.2357C54.2494 47.8384 54.7376 48.3269 55.3399 48.3269Z" fill="#A8C448"/>
<path d="M46.8107 59.5169C47.109 59.5169 47.3508 59.2749 47.3508 58.9765C47.3508 58.678 47.109 58.436 46.8107 58.436C46.5124 58.436 46.2705 58.678 46.2705 58.9765C46.2705 59.2749 46.5124 59.5169 46.8107 59.5169Z" fill="#A8C448"/>
<path d="M53.9201 58.9353C54.2184 58.9353 54.4603 58.6933 54.4603 58.3948C54.4603 58.0963 54.2184 57.8544 53.9201 57.8544C53.6218 57.8544 53.38 58.0963 53.38 58.3948C53.38 58.6933 53.6218 58.9353 53.9201 58.9353Z" fill="#A8C448"/>
</svg>
