<svg width="59" height="60" viewBox="0 0 59 60" fill="none" xmlns="http://www.w3.org/2000/svg">
<path d="M36.9203 22.0541C19.9661 23.3602 21.8436 16.5848 21.9086 15.8215C21.9614 15.2134 21.6932 11.0094 26.2081 8.94819C27.3785 8.4135 28.8699 8.02167 30.7758 7.87881C39.643 7.19311 42.313 7.60943 44.3855 9.40532C44.4749 9.47879 44.5643 9.56042 44.6496 9.64205C46.7669 11.6339 45.312 21.4133 36.9162 22.0582L36.9203 22.0541Z" fill="#094A26"/>
<path d="M44.3855 9.40124C39.7649 9.50328 39.257 9.76042 36.7171 11.2951C34.3113 12.7481 33.6367 11.9726 31.9421 11.7645C27.5898 11.2339 26.46 9.90327 26.2081 8.9441C27.3785 8.40942 28.8699 8.01759 30.7758 7.87473C39.643 7.18903 42.313 7.60535 44.3855 9.40124Z" fill="#0E733B"/>
<path d="M9.34329 14.8175C9.34329 14.8175 13.1551 9.18492 18.4909 9.18492C23.8267 9.18492 27.1306 9.18492 29.4185 14.8175C31.7064 20.45 7.31139 20.7072 9.34329 14.8175Z" fill="#0E733B"/>
<path d="M30.3776 16.5113C29.4388 16.5113 27.8417 17.1685 27.2972 16.8379C26.2691 16.2175 25.7123 14.8052 25.8424 13.3114C25.948 12.1196 27.2078 10.2706 27.3175 9.24614C27.6833 5.92374 22.7417 4.97682 22.4694 4.07071C22.4491 4.00541 22.4531 3.93602 22.4897 3.86663C23.7414 1.483 25.2653 0.127915 26.391 0.00954908C26.5373 -0.0067772 26.6795 -0.00269565 26.8095 0.0258753C27.6386 0.19322 30.7311 1.17688 31.1294 5.40538C31.5317 9.6543 32.824 11.7237 33.1613 13.6012C33.4823 15.3767 31.8405 16.5113 30.3776 16.5113Z" fill="#5B7F2B"/>
<path d="M26.5535 1.30749C26.3706 1.62993 27.9271 2.45033 29.0934 4.12377C29.3982 4.5605 30.7555 6.5972 30.6173 8.989C30.4426 12.0706 27.9393 13.2461 28.5854 14.6216C29.1178 15.7562 31.3935 16.1644 32.1412 15.3889C32.6817 14.8297 32.1412 13.9604 31.6333 11.291C30.9668 7.7931 31.4951 7.20944 30.6173 4.88702C29.7802 2.67481 28.813 1.91156 28.0774 1.55646C27.4719 1.26667 26.6754 1.08708 26.5535 1.29932V1.30749Z" fill="#40591E"/>
<path d="M27.0615 5.14824C26.9396 5.22988 28.2197 6.52373 28.3335 8.4788C28.4188 9.93184 27.8214 11.1155 27.5695 11.5522C26.6267 13.2012 25.1393 13.8624 25.2815 14.1114C25.3709 14.2706 26.0334 14.1114 26.5535 13.8542C28.2847 13.0012 28.752 10.9114 28.8414 10.5237C28.9471 10.0461 29.1869 8.68696 28.5854 7.19311C28.0734 5.91966 27.159 5.07886 27.0615 5.14416V5.14824Z" fill="#496623"/>
<path d="M26.3869 0.00954905C26.3097 0.429951 26.1106 0.936065 25.7895 1.30749C25.4888 1.65442 25.2775 1.65442 25.0255 2.07482C24.6842 2.64216 24.8508 3.0095 24.5175 3.35644C24.2615 3.62174 23.973 3.60133 23.4894 3.70337C23.079 3.79316 22.7417 3.92786 22.4653 4.07071C22.445 4.00541 22.4491 3.93602 22.4856 3.86663C23.7373 1.483 25.2612 0.127915 26.3869 0.00954905Z" fill="#6E9934"/>
<path d="M57.6213 28.4458C56.8573 34.0376 54.0655 43.2783 54.0655 50.3312C54.0655 50.3843 54.0655 50.4292 54.0655 50.4822C53.8948 57.4454 41.9106 61.6412 36.7008 55.0373C35.4898 53.5026 34.4007 50.7108 33.5107 47.27C33.8359 42.4171 35.7458 36.5314 34.9453 26.6622C34.5226 21.4664 33.2872 18.2827 32.7671 16.2175C33.2385 15.1399 33.8155 14.3277 34.5064 13.8542C34.5064 13.8542 35.0184 13.0747 36.1197 12.1481C38.2126 10.3971 42.4186 8.12779 49.2458 9.7196C59.6654 12.1522 58.3934 22.85 57.6294 28.4458H57.6213Z" fill="#268535"/>
<path d="M25.5416 54.025C24.9646 55.8781 24.0827 57.1515 22.8107 57.5882C14.2442 60.5106 9.006 57.776 7.81937 52.9802C6.38484 47.1966 3.61333 40.5477 1.78461 34.2213C1.04094 31.6621 0.459813 29.152 0.179411 26.7765C-0.231034 23.2541 0.0331137 20.0256 1.46357 17.344C2.17068 16.0134 3.17037 14.8256 4.51143 13.793C7.99005 11.1277 11.1192 10.238 13.7444 10.238C13.8785 10.238 14.0126 10.238 14.1467 10.2461H14.1508C14.2564 10.2461 14.3621 10.2543 14.4678 10.2625C14.5003 10.2625 14.5287 10.2665 14.5612 10.2665C14.675 10.2747 14.7807 10.2829 14.8904 10.2951C15.0042 10.3073 15.118 10.3196 15.2317 10.3359C15.2846 10.34 15.3374 10.3482 15.3862 10.3563C15.882 10.4298 16.3574 10.5278 16.8085 10.6502C16.8979 10.6747 16.9873 10.6992 17.0727 10.7277C17.0848 10.7277 17.0889 10.7318 17.097 10.7359C17.1905 10.7604 17.2799 10.7931 17.3734 10.8216C17.41 10.8339 17.4506 10.8461 17.4912 10.8584C17.5766 10.8869 17.6619 10.9155 17.7432 10.9441C17.8488 10.9808 17.9504 11.0216 18.052 11.0624C18.1374 11.0951 18.2186 11.1277 18.2999 11.1604C18.7469 11.3481 19.1574 11.5522 19.5353 11.7604C19.706 11.8543 19.8686 11.9481 20.023 12.0461C20.3318 12.2379 20.6122 12.4257 20.8601 12.6094C20.9008 12.642 20.9414 12.6665 20.982 12.6991C21.0227 12.7318 21.0592 12.7563 21.0999 12.7849C21.1365 12.8134 21.173 12.842 21.2055 12.8706C21.8476 13.3726 22.193 13.7481 22.193 13.7481C22.193 13.7481 28.8536 43.4048 25.5457 54.025H25.5416Z" fill="#195723"/>
<path d="M25.5416 54.025C25.0296 54.9067 24.3794 55.5189 23.5707 55.7964C15.0042 58.7188 10.0138 55.9148 8.5793 51.1883C6.84405 45.4578 3.97501 39.6824 1.78055 34.2213C1.03687 31.6621 0.45575 29.152 0.175347 26.7765C-0.235097 23.2541 0.0290499 20.0256 1.45951 17.344C2.16661 16.0134 3.16631 14.8256 4.50736 13.793C7.98598 11.1277 11.1151 10.238 13.7403 10.238C13.8744 10.238 14.0085 10.238 14.1427 10.2461H14.1467C14.2524 10.2461 14.358 10.2543 14.4637 10.2625C14.4962 10.2625 14.5246 10.2665 14.5572 10.2665C14.6709 10.2747 14.7766 10.2829 14.8863 10.2951C15.0001 10.3073 15.1139 10.3196 15.2277 10.3359C15.2805 10.34 15.3333 10.3482 15.3821 10.3563C15.8779 10.4298 16.3534 10.5278 16.8044 10.6502C16.8938 10.6747 16.9833 10.6992 17.0686 10.7277C17.0808 10.7277 17.0848 10.7318 17.093 10.7359C17.1864 10.7604 17.2758 10.7931 17.3693 10.8216C17.4059 10.8339 17.4465 10.8461 17.4872 10.8584C17.5725 10.8869 17.6578 10.9155 17.7391 10.9441C17.8448 10.9808 17.9464 11.0216 18.048 11.0624C18.1333 11.0951 18.2146 11.1277 18.2959 11.1604C18.7429 11.3481 19.1533 11.5522 19.5313 11.7604C19.7019 11.8543 19.8645 11.9481 20.0189 12.0461C20.3278 12.2379 20.6082 12.4257 20.8561 12.6094C20.8967 12.642 20.9373 12.6665 20.978 12.6991C21.0186 12.7318 21.0552 12.7563 21.0958 12.7849C21.1324 12.8134 21.169 12.842 21.2015 12.8706C21.8436 13.3726 22.189 13.7481 22.189 13.7481C22.189 13.7481 28.8496 43.4048 25.5416 54.025Z" fill="#268535"/>
<path d="M54.0614 50.4822C53.8907 57.4454 41.9066 61.6412 36.6968 55.0373C35.4858 53.5026 34.3967 50.7108 33.5067 47.27C33.8318 42.4171 35.7418 36.5314 34.9412 26.6622C34.5186 21.4664 33.2832 18.2827 32.763 16.2175C33.2344 15.1399 33.8115 14.3277 34.5023 13.8542C34.5023 13.8542 35.0144 13.0747 36.1157 12.1481C37.3998 12.042 38.8059 12.3441 40.277 13.0869C41.8009 13.8542 45.9297 20.4215 45.6128 31.0131C45.1536 46.3598 41.171 52.621 44.5968 55.6005C46.2467 57.0372 47.2952 56.5107 48.9166 55.8577C51.8954 54.6536 53.2202 51.6904 54.0655 50.4822H54.0614Z" fill="#195723"/>
<path d="M18.6779 12.0624C13.1186 12.2543 6.73433 14.6216 5.71838 21.7929C5.47049 23.548 6.66931 31.2091 6.73433 31.5233C6.99035 32.805 3.62552 32.8458 2.15848 30.756C1.2807 29.4989 0.630493 28.152 0.179411 26.7724C-0.231034 23.25 0.0331137 20.0215 1.46357 17.3399C2.17068 16.0134 3.17037 14.8216 4.51143 13.793C10.8997 8.89512 16.1095 10.0012 19.1736 11.5767C19.3321 11.8543 19.2102 12.0461 18.6697 12.0624H18.6779Z" fill="#2D9E3F"/>
<path d="M39.7812 55.7924C39.4845 56.3189 39.1635 56.7515 38.8181 57.078C33.9903 61.6861 22.3028 60.6617 17.219 55.2862C12.1351 49.9067 5.53144 29.4173 8.5793 20.4541C8.5793 20.4541 9.16449 19.1521 10.6722 17.597C10.6722 17.597 10.6762 17.5889 10.6844 17.5848C12.8991 15.3114 17.097 12.5114 24.3387 12.5114C36.5342 12.5114 39.5049 11.1114 41.618 18.9154C43.7434 26.7642 43.6743 48.9721 39.7853 55.7924H39.7812Z" fill="#195723"/>
<path d="M39.7812 55.7924C34.5836 59.7964 23.3675 58.6739 18.3893 53.5597C13.2242 48.2578 6.51082 28.0581 9.61151 19.2215C9.61151 19.2215 9.92035 18.548 10.6722 17.597C10.6722 17.597 10.6762 17.5889 10.6844 17.5848C12.8991 15.3114 17.097 12.5114 24.3387 12.5114C36.5342 12.5114 39.5049 11.1114 41.618 18.9154C43.7434 26.7642 43.6743 48.9721 39.7853 55.7924H39.7812Z" fill="#268535"/>
<path d="M35.8759 38.1885C33.3807 41.7232 23.9811 41.5477 20.2302 38.4008C16.3371 35.1396 9.74155 25.2949 13.9191 17.6991C15.0042 15.7277 19.2549 13.1849 24.7126 13.1481C33.8602 13.0869 36.7496 14.1808 38.3426 18.9807C39.9438 23.8092 38.3751 34.6539 35.8759 38.1885Z" fill="#2D9E3F"/>
<path d="M40.277 10.7849C41.041 9.76042 44.3408 9.50328 47.1367 10.0176C49.9326 10.5318 53.4884 12.0665 55.2684 14.8828C56.5566 16.9195 58.0643 23.0786 56.2843 30.7601C54.5044 38.4416 53.7444 43.8211 51.9645 47.6619C50.1845 51.5026 46.6287 47.6619 47.3886 42.2824C48.1526 36.9028 50.4365 19.7439 43.8328 14.1114C41.0572 11.7441 39.513 11.8053 40.277 10.7808V10.7849Z" fill="#2D9E3F"/>
<path d="M51.9645 13.0869C50.1845 12.8298 47.9657 13.7359 47.1367 14.8787C46.8604 15.2583 46.1207 16.6705 47.1367 17.1848C47.5309 17.3848 49.2214 15.7399 50.4406 15.1358C52.0092 14.3603 54.732 15.6093 54.8214 15.2869C55.0124 14.6216 53.395 13.2951 51.9645 13.0869Z" fill="#35BA4A"/>
<path d="M26.9924 13.8583C21.8436 14.1155 15.9957 16.4175 16.4631 17.4419C16.9304 18.4664 23.9161 16.5154 27.2281 16.4175C31.0481 16.3032 35.185 17.6991 35.884 16.9277C36.583 16.1562 31.9218 13.6093 26.9924 13.8542V13.8583Z" fill="#35BA4A"/>
<path d="M11.5662 11.2543C9.07102 11.8665 6.40923 13.4706 6.7262 13.8869C7.04318 14.3032 10.2942 12.7522 11.9035 12.3889C13.7647 11.9685 15.9104 12.1971 16.1867 11.7849C16.4631 11.3726 13.9598 10.6706 11.5662 11.2584V11.2543Z" fill="#35BA4A"/>
<path d="M21.234 9.66654C19.4906 9.73185 17.5115 10.3114 17.67 10.5686C17.8285 10.8257 20.1937 10.3359 21.3153 10.3114C22.6076 10.2829 24.0096 10.6339 24.2453 10.442C24.481 10.2502 22.9042 9.60532 21.234 9.66654Z" fill="#14A655"/>
<path d="M36.5911 7.96453C37.6721 8.04208 39.2935 8.08697 39.9275 8.32371C40.2282 8.43799 40.4558 8.59717 40.0901 8.84206C39.7243 9.08696 37.6477 8.57676 36.6277 8.73594C35.2541 8.95227 34.1122 9.42981 33.5839 9.15635C31.6373 8.1482 35.0631 7.85841 36.5911 7.96861V7.96453Z" fill="#14A655"/>
</svg>
