<svg width="65" height="66" viewBox="0 0 65 66" fill="none" xmlns="http://www.w3.org/2000/svg">
<path d="M40.7123 24.2595C22.0627 25.6962 24.1279 18.2433 24.1994 17.4037C24.2575 16.7347 23.9625 12.1103 28.9289 9.843C30.2163 9.25485 31.8569 8.82384 33.9534 8.6667C43.7073 7.91242 46.6442 8.37037 48.924 10.3459C49.0224 10.4267 49.1207 10.5165 49.2146 10.6063C51.5436 12.7972 49.9432 23.5546 40.7078 24.264L40.7123 24.2595Z" fill="#094A26"/>
<path d="M48.924 10.3414C43.8414 10.4536 43.2826 10.7365 40.4888 12.4246C37.8424 14.0229 37.1004 13.1699 35.2363 12.9409C30.4487 12.3573 29.206 10.8936 28.9289 9.83851C30.2163 9.25036 31.8569 8.81935 33.9534 8.66221C43.7073 7.90793 46.6442 8.36588 48.924 10.3414Z" fill="#0E733B"/>
<path d="M10.3776 16.2992C10.3776 16.2992 14.5706 10.1034 20.44 10.1034C26.3093 10.1034 29.9436 10.1034 32.4603 16.2992C34.977 22.4951 8.14251 22.7779 10.3776 16.2992Z" fill="#0E733B"/>
<path d="M33.5153 18.1625C32.4827 18.1625 30.7259 18.8853 30.1269 18.5216C28.9959 17.8392 28.3835 16.2858 28.5266 14.6425C28.6428 13.3315 30.0285 11.2977 30.1492 10.1708C30.5516 6.51612 25.1158 5.4745 24.8163 4.47778C24.794 4.40595 24.7984 4.32962 24.8387 4.2533C26.2155 1.6313 27.8918 0.140706 29.13 0.010504C29.291 -0.00745492 29.4474 -0.00296521 29.5905 0.0284629C30.5024 0.212542 33.9042 1.29457 34.3423 5.94592C34.7848 10.6197 36.2063 12.896 36.5774 14.9613C36.9305 16.9143 35.1246 18.1625 33.5153 18.1625Z" fill="#5B7F2B"/>
<path d="M29.3088 1.43824C29.1077 1.79293 30.8198 2.69536 32.1027 4.53615C32.438 5.01655 33.931 7.25692 33.779 9.8879C33.5868 13.2776 30.8332 14.5707 31.5439 16.0837C32.1295 17.3319 34.6328 17.7808 35.4554 16.9278C36.0499 16.3127 35.4554 15.3564 34.8966 12.4201C34.1635 8.57241 34.7446 7.93038 33.779 5.37573C32.8582 2.9423 31.7943 2.10272 30.9852 1.71211C30.3191 1.39334 29.4429 1.19579 29.3088 1.42926V1.43824Z" fill="#40591E"/>
<path d="M29.8676 5.66307C29.7335 5.75286 31.1416 7.17611 31.2668 9.32669C31.3607 10.925 30.7035 12.227 30.4264 12.7074C29.3893 14.5213 27.7532 15.2486 27.9097 15.5225C28.008 15.6976 28.7367 15.5225 29.3088 15.2397C31.2131 14.3013 31.7272 12.0026 31.8256 11.576C31.9418 11.0507 32.2055 9.55566 31.5439 7.91242C30.9807 6.51163 29.9749 5.58674 29.8676 5.65858V5.66307Z" fill="#496623"/>
<path d="M29.1256 0.010504C29.0406 0.472946 28.8216 1.02967 28.4684 1.43824C28.1377 1.81986 27.9052 1.81986 27.6281 2.28231C27.2526 2.90638 27.4358 3.31045 27.0693 3.69208C26.7877 3.98391 26.4703 3.96146 25.9383 4.07371C25.4868 4.17248 25.1158 4.32064 24.8118 4.47778C24.7895 4.40595 24.794 4.32962 24.8342 4.2533C26.211 1.6313 27.8873 0.140706 29.1256 0.010504Z" fill="#6E9934"/>
<path d="M63.4834 31.2904C62.643 37.4414 59.572 47.6061 59.572 55.3643C59.572 55.4227 59.572 55.4721 59.572 55.5305C59.3843 63.1899 46.2017 67.8054 40.4709 60.541C39.1388 58.8529 37.9408 55.7819 36.9618 51.997C37.3194 46.6588 39.4204 40.1846 38.5398 29.3284C38.0749 23.613 36.7159 20.111 36.1438 17.8392C36.6623 16.6539 37.2971 15.7605 38.057 15.2397C38.057 15.2397 38.6202 14.3821 39.8317 13.363C42.1338 11.4369 46.7605 8.94057 54.2704 10.6916C65.7319 13.3674 64.3328 25.135 63.4924 31.2904H63.4834Z" fill="#268535"/>
<path d="M28.1958 59.4275C27.561 61.4659 26.591 62.8667 25.1918 63.3471C15.7686 66.5617 10.0066 63.5536 8.70128 58.2782C7.1233 51.9162 4.07464 44.6025 2.06305 37.6434C1.24501 34.8283 0.60577 32.0672 0.297328 29.4541C-0.154161 25.5795 0.136401 22.0281 1.70991 19.0784C2.48772 17.6147 3.58739 16.3082 5.06255 15.1723C8.88903 12.2405 12.3311 11.2618 15.2188 11.2618C15.3663 11.2618 15.5138 11.2618 15.6614 11.2707H15.6658C15.7821 11.2707 15.8983 11.2797 16.0145 11.2887C16.0503 11.2887 16.0816 11.2932 16.1173 11.2932C16.2425 11.3022 16.3587 11.3111 16.4794 11.3246C16.6046 11.3381 16.7297 11.3516 16.8549 11.3695C16.913 11.374 16.9711 11.383 17.0248 11.392C17.5701 11.4728 18.0931 11.5805 18.5893 11.7152C18.6877 11.7422 18.786 11.7691 18.8799 11.8005C18.8933 11.8005 18.8978 11.805 18.9067 11.8095C19.0095 11.8364 19.1079 11.8724 19.2107 11.9038C19.2509 11.9173 19.2956 11.9307 19.3403 11.9442C19.4342 11.9756 19.5281 12.0071 19.6175 12.0385C19.7337 12.0789 19.8455 12.1238 19.9572 12.1687C20.0511 12.2046 20.1405 12.2405 20.2299 12.2764C20.7216 12.483 21.1731 12.7074 21.5888 12.9364C21.7766 13.0397 21.9554 13.143 22.1253 13.2507C22.465 13.4617 22.7734 13.6683 23.0461 13.8703C23.0908 13.9062 23.1355 13.9331 23.1802 13.9691C23.2249 14.005 23.2651 14.0319 23.3099 14.0633C23.3501 14.0948 23.3903 14.1262 23.4261 14.1576C24.1324 14.7099 24.5123 15.1229 24.5123 15.1229C24.5123 15.1229 31.839 47.7453 28.2002 59.4275H28.1958Z" fill="#195723"/>
<path d="M28.1958 59.4275C27.6325 60.3973 26.9173 61.0708 26.0277 61.3761C16.6046 64.5907 11.1152 61.5063 9.5372 56.3072C7.62843 50.0036 4.47248 43.6506 2.05858 37.6434C1.24054 34.8283 0.6013 32.0672 0.292857 29.4541C-0.158632 25.5795 0.131931 22.0281 1.70544 19.0784C2.48325 17.6147 3.58292 16.3082 5.05808 15.1723C8.88456 12.2405 12.3266 11.2618 15.2143 11.2618C15.3619 11.2618 15.5094 11.2618 15.6569 11.2707H15.6614C15.7776 11.2707 15.8938 11.2797 16.01 11.2887C16.0458 11.2887 16.0771 11.2932 16.1129 11.2932C16.238 11.3022 16.3542 11.3111 16.4749 11.3246C16.6001 11.3381 16.7253 11.3516 16.8504 11.3695C16.9085 11.374 16.9667 11.383 17.0203 11.392C17.5657 11.4728 18.0887 11.5805 18.5849 11.7152C18.6832 11.7422 18.7816 11.7691 18.8754 11.8005C18.8888 11.8005 18.8933 11.805 18.9022 11.8095C19.0051 11.8364 19.1034 11.8724 19.2062 11.9038C19.2465 11.9173 19.2912 11.9307 19.3359 11.9442C19.4297 11.9756 19.5236 12.0071 19.613 12.0385C19.7292 12.0789 19.841 12.1238 19.9527 12.1687C20.0466 12.2046 20.136 12.2405 20.2254 12.2764C20.7171 12.483 21.1686 12.7074 21.5844 12.9364C21.7721 13.0397 21.9509 13.143 22.1208 13.2507C22.4605 13.4617 22.769 13.6683 23.0416 13.8703C23.0863 13.9062 23.131 13.9331 23.1757 13.9691C23.2204 14.005 23.2607 14.0319 23.3054 14.0633C23.3456 14.0948 23.3858 14.1262 23.4216 14.1576C24.1279 14.7099 24.5079 15.1229 24.5079 15.1229C24.5079 15.1229 31.8345 47.7453 28.1958 59.4275Z" fill="#268535"/>
<path d="M59.5675 55.5305C59.3798 63.1899 46.1972 67.8054 40.4664 60.541C39.1343 58.8529 37.9363 55.7819 36.9573 51.997C37.3149 46.6588 39.4159 40.1846 38.5353 29.3284C38.0704 23.613 36.7115 20.111 36.1393 17.8392C36.6578 16.6539 37.2926 15.7605 38.0525 15.2397C38.0525 15.2397 38.6158 14.3821 39.8272 13.363C41.2398 13.2462 42.7865 13.5785 44.4047 14.3956C46.081 15.2397 50.6227 22.4636 50.274 34.1145C49.7689 50.9958 45.3881 57.8831 49.1565 61.1606C50.9714 62.741 52.1247 62.1618 53.9083 61.4434C57.1849 60.119 58.6422 56.8594 59.572 55.5305H59.5675Z" fill="#195723"/>
<path d="M20.6456 13.2687C14.5304 13.4797 7.50774 16.0837 6.39019 23.9722C6.11751 25.9028 7.43622 34.33 7.50774 34.6757C7.78936 36.0855 4.08805 36.1303 2.47431 33.8316C1.50875 32.4488 0.793518 30.9672 0.297328 29.4496C-0.154161 25.575 0.136401 22.0236 1.70991 19.0739C2.48772 17.6147 3.58739 16.3037 5.06255 15.1723C12.0897 9.78464 17.8205 11.0014 21.191 12.7344C21.3653 13.0397 21.2312 13.2507 20.6367 13.2687H20.6456Z" fill="#2D9E3F"/>
<path d="M43.8593 61.3716C43.533 61.9508 43.1798 62.4267 42.7999 62.7859C37.4893 67.8548 24.633 66.7278 19.0408 60.8149C13.4486 54.8974 6.18456 32.359 9.5372 22.4995C9.5372 22.4995 10.1809 21.0673 11.8394 19.3567C11.8394 19.3567 11.8438 19.3478 11.8528 19.3433C14.289 16.8425 18.9067 13.7625 26.8726 13.7625C40.2876 13.7625 43.5553 12.2226 45.8798 20.8069C48.2177 29.4407 48.1417 53.8693 43.8638 61.3716H43.8593Z" fill="#195723"/>
<path d="M43.8593 61.3716C38.1419 65.776 25.8042 64.5413 20.3282 58.9157C14.6466 53.0836 7.26188 30.8639 10.6726 21.1436C10.6726 21.1436 11.0124 20.4028 11.8394 19.3567C11.8394 19.3567 11.8438 19.3478 11.8528 19.3433C14.289 16.8425 18.9067 13.7625 26.8726 13.7625C40.2876 13.7625 43.5553 12.2226 45.8798 20.8069C48.2177 29.4407 48.1417 53.8693 43.8638 61.3716H43.8593Z" fill="#268535"/>
<path d="M39.5635 42.0074C36.8188 45.8955 26.4792 45.7024 22.3532 42.2409C18.0708 38.6536 10.8157 27.8244 15.411 19.469C16.6046 17.3004 21.2804 14.5033 27.2838 14.4629C37.3462 14.3956 40.5245 15.5988 42.2769 20.8788C44.0381 26.1901 42.3126 38.1193 39.5635 42.0074Z" fill="#2D9E3F"/>
<path d="M44.4047 11.8634C45.2451 10.7365 48.8749 10.4536 51.9503 11.0193C55.0258 11.585 58.9373 13.2732 60.8952 16.3711C62.3122 18.6114 63.9707 25.3864 62.0127 33.8361C60.0548 42.2858 59.2189 48.2032 57.2609 52.4281C55.303 56.6529 51.3916 52.4281 52.2275 46.5106C53.0679 40.5931 55.5801 21.7183 48.3161 15.5225C45.2629 12.9185 43.5643 12.9858 44.4047 11.8589V11.8634Z" fill="#2D9E3F"/>
<path d="M57.2609 14.3956C55.303 14.1127 52.8623 15.1095 51.9503 16.3666C51.6464 16.7841 50.8328 18.3376 51.9503 18.9033C52.384 19.1233 54.2435 17.3139 55.5846 16.6494C57.3101 15.7964 60.3051 17.1702 60.4035 16.8155C60.6136 16.0837 58.8344 14.6246 57.2609 14.3956Z" fill="#35BA4A"/>
<path d="M29.7916 15.2441C24.1279 15.527 17.6953 18.0592 18.2094 19.1861C18.7234 20.313 26.4077 18.167 30.0509 18.0592C34.2529 17.9335 38.8035 19.469 39.5724 18.6204C40.3413 17.7719 35.214 14.9703 29.7916 15.2397V15.2441Z" fill="#35BA4A"/>
<path d="M12.8228 12.3797C10.0781 13.0532 7.15013 14.8176 7.4988 15.2756C7.84747 15.7335 11.4236 14.0274 13.1938 13.6278C15.2412 13.1654 17.6014 13.4168 17.9054 12.9634C18.2094 12.5099 15.4557 11.7377 12.8228 12.3842V12.3797Z" fill="#35BA4A"/>
<path d="M23.4574 10.6332C21.5397 10.705 19.3627 11.3426 19.537 11.6254C19.7114 11.9083 22.313 11.3695 23.5468 11.3426C24.9683 11.3111 26.5105 11.6973 26.7698 11.4862C27.029 11.2752 25.2946 10.5659 23.4574 10.6332Z" fill="#14A655"/>
<path d="M40.3502 8.76098C41.5393 8.84628 43.3229 8.89567 44.0202 9.15608C44.351 9.28179 44.6014 9.45689 44.199 9.72627C43.7967 9.99565 41.5125 9.43444 40.3904 9.60954C38.8795 9.84749 37.6234 10.3728 37.0423 10.072C34.901 8.96302 38.6694 8.64425 40.3502 8.76547V8.76098Z" fill="#14A655"/>
</svg>
