<svg width="60" height="60" viewBox="0 0 60 60" fill="none" xmlns="http://www.w3.org/2000/svg">
<path d="M3.53226 14.3701L25.8323 27.2401L21.1023 35.4201C21.1023 35.4201 16.3623 34.6101 12.5823 33.2901C0.252264 29.0001 1.70226 21.9601 3.84226 16.5901C3.98226 16.2301 4.15226 15.1101 3.54226 14.3701H3.53226Z" fill="#FFC933"/>
<path d="M4.17235 14.7402L25.8324 27.2502L21.9924 33.8902C20.5124 33.6502 18.5824 33.2602 16.0524 32.6202C6.71235 30.2702 7.86235 23.3902 6.47235 18.9802C5.96235 17.3802 5.08235 15.9302 4.16235 14.7402H4.17235Z" fill="#FFBB00"/>
<path d="M3.53223 14.3701L25.8322 27.2401L25.4722 27.8701L3.53223 14.3701Z" fill="#FFE08A"/>
<path d="M3.53223 14.3704L25.8322 27.2404L30.5622 19.0604C30.5622 19.0604 27.4922 15.3604 24.4622 12.7504C14.5722 4.22043 9.20223 8.99043 5.62223 13.5304C5.38223 13.8304 4.49223 14.5404 3.54223 14.3804L3.53223 14.3704Z" fill="#FFC933"/>
<path d="M3.53223 14.3701L25.8322 27.2401L26.1922 26.6101L3.53223 14.3701Z" fill="#FFBB00"/>
<path d="M29.0923 60V34.25H38.5423C38.5423 34.25 40.2123 38.76 40.9523 42.69C43.3923 55.52 36.5823 57.79 30.8623 58.62C30.4823 58.68 29.4223 59.09 29.0923 60Z" fill="#FFC933"/>
<path d="M29.0923 59.2698V34.2598H36.7623C37.2923 35.6598 37.9223 37.5298 38.6323 40.0398C41.2723 49.3098 34.7323 51.7398 31.6123 55.1598C30.4823 56.3998 29.6623 57.8898 29.0923 59.2798V59.2698Z" fill="#FFBB00"/>
<path d="M29.0923 60V34.25H29.8123L29.0923 60Z" fill="#FFE08A"/>
<path d="M29.0922 60V34.25H19.6422C19.6422 34.25 17.9722 38.76 17.2322 42.69C14.7922 55.52 21.6022 57.79 27.3222 58.62C27.7022 58.68 28.7622 59.09 29.0922 60Z" fill="#FFC933"/>
<path d="M29.0923 60V34.25H28.3623L29.0923 60Z" fill="#FFBB00"/>
<path d="M56.3423 13.7796L34.0423 26.6496L29.3123 18.4696C29.3123 18.4696 32.3823 14.7696 35.4123 12.1596C45.3023 3.62961 50.6723 8.39961 54.2523 12.9396C54.4923 13.2396 55.3823 13.9496 56.3323 13.7896L56.3423 13.7796Z" fill="#FFC933"/>
<path d="M55.7021 14.1501L34.0421 26.6601L30.2021 20.0201C31.1421 18.8601 32.4521 17.3801 34.2721 15.5101C40.9821 8.59007 46.3521 13.0301 50.8722 14.0301C52.5121 14.3901 54.2121 14.3501 55.7021 14.1501Z" fill="#FFBB00"/>
<path d="M56.3424 13.7793L34.0424 26.6593L33.6824 26.0293L56.3424 13.7793Z" fill="#FFE08A"/>
<path d="M56.3422 13.7793L34.0422 26.6493L38.7722 34.8293C38.7722 34.8293 43.5122 34.0193 47.2922 32.6993C59.6322 28.3993 58.1822 21.3693 56.0422 15.9993C55.9022 15.6393 55.7322 14.5193 56.3422 13.7793Z" fill="#FFC933"/>
<path d="M56.3422 13.7793L34.0422 26.6593L34.4022 27.2893L56.3422 13.7793Z" fill="#FFBB00"/>
<path d="M30.7521 0V25.75H21.3021C21.3021 25.75 19.6321 21.24 18.8921 17.31C16.4421 4.47 23.2521 2.21 28.9821 1.38C29.3621 1.32 30.4221 0.91 30.7521 0Z" fill="#FFE524"/>
<path d="M30.7522 0.729727V25.7397H23.0822C22.5522 24.3397 21.9222 22.4697 21.2122 19.9597C18.5722 10.6897 25.1122 8.25973 28.2322 4.83973C29.3622 3.59973 30.1822 2.10973 30.7522 0.719727V0.729727Z" fill="#FFD024"/>
<path d="M30.7522 0V25.75H30.0222L30.7522 0Z" fill="#FFEC61"/>
<path d="M30.7522 0V25.75H40.2022C40.2022 25.75 41.8722 21.24 42.6122 17.31C45.0522 4.48 38.2422 2.21 32.5222 1.38C32.1422 1.32 31.0822 0.91 30.7522 0Z" fill="#FFE524"/>
<path d="M30.7522 0V25.75H31.4722L30.7522 0Z" fill="#FFD024"/>
<path d="M3.10205 43.2997L25.4021 30.4297L30.1321 38.6097C30.1321 38.6097 27.0621 42.3097 24.0321 44.9197C14.1421 53.4497 8.77205 48.6797 5.19205 44.1397C4.95205 43.8397 4.06205 43.1297 3.11205 43.2897L3.10205 43.2997Z" fill="#FFE524"/>
<path d="M3.73218 42.9397L25.3922 30.4297L29.2322 37.0697C28.2922 38.2297 26.9822 39.7097 25.1622 41.5797C18.4522 48.4997 13.0822 44.0597 8.56218 43.0597C6.92218 42.6997 5.22218 42.7397 3.73218 42.9397Z" fill="#FFD024"/>
<path d="M3.10205 43.2997L25.3921 30.4297L25.7621 31.0597L3.10205 43.2997Z" fill="#FFEC61"/>
<path d="M3.10212 43.3L25.4021 30.43L20.6721 22.25C20.6721 22.25 15.9321 23.06 12.1521 24.38C-0.18788 28.68 1.26212 35.71 3.40212 41.08C3.54212 41.44 3.71212 42.56 3.10212 43.3Z" fill="#FFE524"/>
<path d="M3.10205 43.2998L25.3921 30.4298L25.0321 29.7998L3.10205 43.2998Z" fill="#FFD024"/>
<path d="M56.9021 43.2902L34.6021 30.4202L39.3321 22.2402C39.3321 22.2402 44.0721 23.0502 47.8521 24.3702C60.1921 28.6702 58.7421 35.7002 56.6021 41.0702C56.4621 41.4302 56.292 42.5502 56.9021 43.2902Z" fill="#FFE524"/>
<path d="M56.2721 42.9307L34.6121 30.4207L37.8421 23.9707C39.3221 24.2107 41.8621 24.4107 44.3821 25.0507C53.7221 27.4007 52.5721 34.2807 53.9621 38.6907C54.4721 40.2907 55.3521 41.7407 56.2721 42.9307Z" fill="#FFD024"/>
<path d="M56.9021 43.29L34.6021 30.42L34.972 29.79L56.9021 43.29Z" fill="#FFEC61"/>
<path d="M56.9021 43.2899L34.6021 30.4199L29.8721 38.5999C29.8721 38.5999 32.9421 42.2999 35.9721 44.9099C45.8621 53.4399 51.2321 48.6699 54.8121 44.1299C55.0521 43.8299 55.9421 43.1199 56.8921 43.2799L56.9021 43.2899Z" fill="#FFE524"/>
<path d="M56.9022 43.2899L34.6022 30.4199L34.2422 31.0499L56.9022 43.2899Z" fill="#FFD024"/>
<path d="M22.0222 33.9404C23.1922 34.8804 26.0822 34.9604 26.5022 35.3304C26.9222 35.7004 28.4222 38.9404 31.2422 38.4104C32.1022 38.2504 32.8122 37.5204 33.6322 37.1804C35.4922 36.4104 37.1522 35.7004 37.1722 34.4604C37.1922 33.5204 38.7222 33.3404 39.6622 32.5104C40.5122 31.7604 40.7822 30.3704 40.5422 29.5204C40.5422 29.5204 40.6722 28.9004 41.0122 27.9204C41.3522 26.9404 39.8122 25.4804 38.4822 25.2904C38.4822 25.2904 37.6622 24.8704 38.1922 23.2104C38.4322 22.4504 37.7622 21.0604 37.2922 19.6804C36.7422 18.0404 36.8822 17.1704 35.7022 16.4304C34.7522 15.8304 34.3122 15.2104 34.6622 14.0304C34.6622 14.0304 35.6322 12.4404 32.8522 12.3104C32.8522 12.3104 31.8722 11.8104 30.8622 11.7104C29.8522 11.6104 29.0322 12.2704 29.0122 12.4704C28.9922 12.6704 28.9522 13.0104 27.0722 13.5104C26.2422 13.7304 26.6922 15.1604 25.7422 15.8004C24.7922 16.4404 24.1222 16.4804 23.7622 16.5604C23.4022 16.6404 23.4022 17.4004 22.0922 18.0004C20.7822 18.6004 19.5122 18.2204 18.5422 19.3504C17.5722 20.4804 17.9522 21.4004 18.5422 21.9304C18.8222 22.1804 18.5422 23.0504 18.7322 23.4804C18.9222 23.9104 20.5822 25.9604 20.5822 25.9604C20.5822 25.9604 19.1122 27.0804 19.9422 28.3104L21.6122 30.7704C21.6122 30.7704 20.8322 33.0004 22.0022 33.9404H22.0222Z" fill="#FFBE23"/>
<path d="M22.8023 23.1103C24.2623 23.4403 25.0923 23.1503 25.9323 21.7903C26.7723 20.4303 27.2623 19.1703 28.3923 19.6203C29.5223 20.0703 30.3623 18.2803 31.4423 18.8203C32.5223 19.3603 33.2223 20.8603 34.8523 21.9703C36.4823 23.0803 35.6323 24.5603 35.8923 25.6103C36.1523 26.6603 36.6323 28.7203 37.0323 28.9103C37.4323 29.1003 37.9323 30.6703 37.9323 30.6703L35.5923 31.1703L35.8823 33.2503L34.6223 34.4303L32.9223 34.1003L31.9123 33.0003L30.7723 33.2103L29.9023 34.5003L29.8723 36.1803L28.7823 36.2203C28.7823 36.2203 26.5823 34.1003 26.5223 33.8803C26.4623 33.6603 26.3723 31.8803 26.3723 31.8803L24.3823 31.8003L21.9623 32.5303L21.6523 31.4603L22.6123 29.1403L22.0323 28.7303L20.5923 28.2903L19.7923 27.3303L21.1723 25.4603L20.9423 24.4103L19.9523 23.6503L18.9823 22.9603L18.8523 21.6903C18.8523 21.6903 17.4823 21.2303 18.4723 19.4103C18.4723 19.4103 21.3123 22.7903 22.7823 23.1203L22.8023 23.1103Z" fill="#E6AB20"/>
<path opacity="0.86" d="M27.6522 29.1203C28.6622 31.2203 28.8722 31.8603 29.5222 32.8003C30.1722 33.7403 31.4522 32.7803 31.4522 32.7803L32.3522 33.4303C32.3522 33.4303 33.8522 33.1703 34.2322 32.9203C35.4522 32.1203 35.7622 31.1703 35.8422 30.4903C35.9322 29.8103 34.3122 28.8703 33.9622 28.0903C33.6122 27.3103 34.1322 26.6003 33.6722 25.5503C33.2122 24.5003 32.1922 24.3203 31.2222 24.5303C30.2522 24.7403 28.5622 24.7303 28.1422 26.0103C27.7222 27.2803 27.0122 27.8303 27.6322 29.1203H27.6522Z" fill="#E6D702"/>
<path opacity="0.43" d="M28.7121 29.5207C29.4721 31.1107 29.6321 31.5907 30.1221 32.3007C30.6121 33.0107 31.5821 32.2807 31.5821 32.2807L32.2621 32.7707C32.2621 32.7707 33.4021 32.5707 33.6821 32.3807C34.6021 31.7707 34.8321 31.0607 34.9021 30.5507C34.9721 30.0407 33.7521 29.3207 33.4821 28.7407C33.2121 28.1607 33.6121 27.6207 33.2621 26.8207C32.9121 26.0307 32.1421 25.8907 31.4121 26.0507C30.6821 26.2107 29.4021 26.2007 29.0921 27.1607C28.7821 28.1207 28.2321 28.5407 28.7021 29.5107L28.7121 29.5207Z" fill="#5E5601"/>
<path d="M18.1422 20.0505C18.1422 20.0505 17.7122 20.7905 18.7922 21.5105C19.8722 22.2305 18.9922 22.7405 19.2122 22.9805C19.4322 23.2205 21.3022 23.6205 21.4622 24.8105C21.6222 26.0005 20.1622 26.4705 20.2222 27.2205C20.2822 27.9705 22.3722 28.1805 22.7122 28.7205C23.5022 29.9605 21.6622 31.0805 21.7822 31.6605C21.9022 32.2405 22.2922 32.6205 23.3622 31.8805C24.4322 31.1405 26.8622 30.8805 26.8622 32.1605C26.8622 33.4405 27.5022 35.5505 29.3522 36.0005C29.3522 36.0005 29.9322 36.5805 29.6322 34.5605C29.4322 33.2505 31.6322 32.1105 32.2522 32.5705C32.8722 33.0305 32.8522 34.0205 33.1222 34.0705C33.3922 34.1205 35.3222 34.1105 35.4222 33.1005C35.5222 32.0905 34.6022 31.1205 35.4322 30.7305C36.2622 30.3405 37.1622 30.4705 37.7322 30.4005C38.3022 30.3305 38.8422 30.3105 38.6822 29.4805C38.5222 28.6505 38.1922 28.3105 38.8722 27.8805C39.5522 27.4505 39.9922 25.9605 39.9922 25.9605C39.9922 25.9605 40.8922 26.7605 39.5422 27.8705C38.1922 28.9805 39.3422 29.3205 39.2622 29.7805C39.1822 30.2405 38.9222 30.8305 37.4522 31.1005C35.9822 31.3705 35.6622 31.2305 35.9322 32.1805C36.2022 33.1305 37.0222 34.6105 33.6722 34.8905C32.0422 35.0205 32.2922 33.3805 32.0422 33.1705C31.7922 32.9605 30.2722 33.4505 30.1222 34.5405C29.9722 35.6405 31.2222 37.5105 27.7422 36.0205C25.8922 35.2305 26.5722 33.1905 26.3222 32.3305C26.0722 31.4705 24.0422 32.3705 23.3822 32.8405C22.7222 33.3105 21.1622 33.6305 21.2222 31.6805C21.2622 30.3005 22.2922 30.4605 22.2722 29.4205C22.2522 28.3805 20.7122 29.2005 20.0222 28.0305C19.3322 26.8605 19.9322 26.4605 20.3822 25.8905C20.8322 25.3205 21.6522 24.2205 19.8422 23.8305C18.6122 23.5705 18.6822 23.0105 18.6222 21.9905C18.5622 20.9805 17.3822 21.3605 18.1322 20.0205L18.1422 20.0505Z" fill="#FFCD54"/>
<path d="M27.5723 27.3C27.5723 27.3 28.5623 29.41 29.0223 29.65C29.4823 29.89 29.8023 29.42 29.8023 29.42C29.8023 29.42 29.0723 28.89 28.7123 28.44C28.3523 27.99 28.5123 27.07 27.5723 27.3Z" fill="#D9A703"/>
<path d="M27.8123 27.8503C27.8123 27.8503 30.1923 28.3303 30.8423 28.8703C31.4923 29.4103 32.1323 29.5203 32.1323 29.5203C32.1323 29.5203 31.7523 28.7903 31.0323 27.9603C30.2323 27.0603 29.0723 26.0503 28.9423 25.7903C28.6823 25.3003 27.8123 27.8403 27.8123 27.8403V27.8503Z" fill="#F2D203"/>
<path d="M26.6323 26.1701C26.6323 26.1701 26.1823 25.4701 26.6723 25.1001C27.1623 24.7301 27.3423 24.0601 27.7823 24.4001C28.2223 24.7401 27.8223 25.2001 28.4523 25.1201C29.0823 25.0401 29.2123 25.0201 29.2923 25.5701C29.3723 26.1301 29.2723 26.8301 28.8723 27.0601C28.4723 27.2901 28.6623 27.3501 28.3523 27.7301C28.0423 28.1101 27.6923 28.0501 27.4023 28.0001C27.1123 27.9501 26.6023 27.5001 26.7323 27.0701C26.8623 26.6401 26.7923 26.2601 26.6323 26.1701Z" fill="#F2DE03"/>
<path d="M31.0522 24.3701C31.0522 24.3701 31.4622 25.9301 32.0322 26.4701C32.6022 27.0201 33.2122 28.0701 33.2822 28.1801C33.3522 28.2901 33.2722 28.8601 33.2722 28.8601C33.2722 28.8601 32.1822 27.8001 32.0422 27.5501C31.9022 27.3001 31.3122 25.4801 30.8822 25.1201C30.4522 24.7601 31.0522 24.3801 31.0522 24.3801V24.3701Z" fill="#D9A703"/>
<path d="M29.8422 30.3709C29.8422 30.3709 30.0422 30.5609 30.8122 30.7209C31.5822 30.8809 31.6822 31.0109 31.8422 30.9909C32.0022 30.9709 32.1322 30.4609 32.1322 30.4609C32.1322 30.4609 30.3922 30.5009 30.0922 30.1309C29.7922 29.7609 29.8422 30.3709 29.8422 30.3709Z" fill="#D9A703"/>
<path d="M32.3523 30.5207C32.3523 30.5207 32.6023 30.7907 32.9323 31.0707C33.2623 31.3507 33.6023 31.3507 33.6623 31.1407C33.7223 30.9307 33.2523 30.5907 33.1923 30.4707C33.1323 30.3507 33.0523 29.7007 32.8823 29.5307C32.7123 29.3607 32.3623 30.5207 32.3623 30.5207H32.3523Z" fill="#F2D203"/>
<path d="M29.2322 30.8401C29.2322 30.8401 28.3622 30.2301 28.8322 29.4501C29.3022 28.6701 29.9522 28.5901 30.1022 28.8701C30.2522 29.1501 30.1422 29.5401 30.1922 29.8201C30.2422 30.1001 30.7322 29.9901 30.3522 30.5401C29.9722 31.0901 29.6822 31.1701 29.2322 30.8501V30.8401Z" fill="#F2DE03"/>
<path d="M31.3521 28.8501C31.3921 28.9601 31.4221 28.8201 31.4721 29.6101C31.5221 30.4001 30.7921 30.5901 31.5221 30.7701C32.2521 30.9501 32.4121 30.9401 32.6321 30.5301C32.8521 30.1201 33.3121 29.7101 32.8521 29.2001C32.4021 28.7001 32.2521 28.2801 31.8621 28.3101C31.4721 28.3401 31.1821 28.3901 31.3421 28.8401L31.3521 28.8501Z" fill="#F2DE03"/>
<path d="M29.7223 23.9309C30.1723 23.7109 30.1723 23.0709 30.5323 23.1309C30.8923 23.1909 31.1923 23.1509 31.2323 23.8109C31.2623 24.4709 31.1023 24.6209 31.1123 25.1309C31.1223 25.6409 30.9223 26.0309 30.5323 25.8009C30.1423 25.5709 29.8723 25.1909 29.7423 24.7409C29.6123 24.2909 29.5923 24.0009 29.7323 23.9309H29.7223Z" fill="#F2DE03"/>
</svg>
