<svg width="59" height="76" viewBox="0 0 59 76" fill="none" xmlns="http://www.w3.org/2000/svg">
<path d="M20.1545 24.7665C20.1545 24.7665 19.8545 25.6064 19.3445 26.9762C18.8045 28.446 18.0245 30.5357 17.1245 32.8654L17.0845 32.9354L10.2545 44.9038C10.2545 44.9038 9.53453 45.4537 8.33453 46.7136C8.14453 46.9136 7.94453 47.1235 7.73453 47.3535C6.73453 48.4534 5.50453 49.9532 4.11453 51.9029C2.84453 53.7027 1.52453 54.0026 1.21453 54.0426H1.15453C1.15453 54.0426 -1.01547 54.1026 0.59453 49.0433C2.21453 43.9839 5.59453 36.7349 9.52453 32.0155C11.9545 29.0959 14.8145 26.5462 16.6445 25.0364C17.7745 24.0966 18.5145 23.5466 18.5145 23.5466L18.9945 23.8066L19.5445 24.1066L19.7045 24.1965L20.1645 24.7765L20.1545 24.7665Z" fill="#09004A"/>
<path d="M17.0745 32.9254L10.2445 44.8938C10.2445 44.8938 7.65452 46.8835 4.11452 51.9029C2.84452 53.7026 1.52452 54.0026 1.21452 54.0426C0.734524 53.5926 0.464524 52.4028 1.82452 49.3132C4.13452 44.0739 10.4545 32.5354 14.9845 30.6057C16.4845 29.9658 17.0245 31.1156 17.0845 32.9254H17.0745Z" fill="#EAE8FF"/>
<g style="mix-blend-mode:multiply">
<path d="M20.1545 24.7664C20.1545 24.7664 18.8645 28.366 17.1245 32.8554L17.0845 32.9254L10.2545 44.8938C10.2545 44.8938 9.29451 45.6337 7.73451 47.3435C7.63451 42.5841 10.3445 36.8049 11.3445 34.8751C12.4945 32.6554 19.6945 24.1865 19.6945 24.1865L20.1545 24.7664Z" fill="#C2BFDB"/>
</g>
<path d="M57.1145 54.0529C57.1145 54.0529 57.0945 54.0529 57.0545 54.0529C56.7445 54.0129 55.4245 53.7129 54.1545 51.9132C52.7745 49.9534 51.5345 48.4536 50.5345 47.3638C50.3245 47.1338 50.1245 46.9238 49.9345 46.7238C48.7345 45.464 48.0145 44.9141 48.0145 44.9141L41.1845 32.9456L41.1445 32.8757C39.9845 29.896 39.0345 27.3064 38.5145 25.9066C38.2545 25.1967 38.1045 24.7867 38.1045 24.7867L38.5645 24.2068L38.7245 24.1168L39.2745 23.8169L39.7545 23.5569C39.7545 23.5569 39.9445 23.6969 40.2845 23.9668C40.8545 24.4168 41.8645 25.2267 43.0645 26.2765C44.7745 27.7863 46.8845 29.7961 48.7445 32.0258C52.6745 36.7451 56.0545 43.9942 57.6745 49.0535C58.0545 50.2534 58.2245 51.1633 58.2645 51.8632V51.8832C58.3745 54.0929 57.1145 54.0629 57.1145 54.0629V54.0529Z" fill="#09004A"/>
<path d="M41.1845 32.9254L48.0145 44.8938C48.0145 44.8938 50.6045 46.8835 54.1445 51.9029C55.4145 53.7026 56.7345 54.0026 57.0445 54.0426C57.5245 53.5926 57.7945 52.4028 56.4345 49.3132C54.1245 44.0739 47.8045 32.5354 43.2745 30.6057C41.7745 29.9658 41.2345 31.1156 41.1745 32.9254H41.1845Z" fill="#EAE8FF"/>
<g style="mix-blend-mode:multiply">
<path d="M38.1045 24.7664C38.1045 24.7664 39.3945 28.366 41.1345 32.8554L41.1745 32.9254L48.0045 44.8938C48.0045 44.8938 48.9645 45.6337 50.5245 47.3435C50.6245 42.5841 48.1845 37.0748 46.9145 34.8751C45.7845 32.9154 38.5645 24.1865 38.5645 24.1865L38.1045 24.7664Z" fill="#C2BFDB"/>
</g>
<path opacity="0.19" d="M58.2645 51.853C57.9045 48.4334 53.6945 40.5245 51.6045 37.0749C49.5345 33.6654 43.2645 26.4963 43.0745 26.2664C44.7845 27.7662 46.8945 29.7859 48.7545 32.0156C52.6845 36.735 56.0645 43.984 57.6845 49.0434C58.0645 50.2432 58.2345 51.1531 58.2745 51.853H58.2645Z" fill="#C8C3E8"/>
<path d="M48.9945 62.4418C47.5245 66.3913 44.7245 69.5908 39.8445 71.4006C37.0145 72.4505 33.4945 73.0404 29.1245 73.0404C24.7545 73.0404 21.2345 72.4505 18.4045 71.4006C13.5145 69.5908 10.7245 66.3913 9.25454 62.4418C7.55454 57.8824 7.62454 52.3131 8.31454 46.7038C8.35454 46.3139 8.41453 45.9339 8.46453 45.544C9.23453 39.8947 13.2745 31.9458 17.9045 26.0366C18.4345 25.3667 18.9745 24.7167 19.5145 24.0968C22.8745 20.2773 26.4045 17.7577 29.1145 18.0776C31.8345 17.7577 35.3545 20.2773 38.7145 24.0968C38.9545 24.3668 39.1945 24.6467 39.4445 24.9367C44.4445 30.9159 48.9545 39.5348 49.7745 45.534C49.8245 45.9239 49.8845 46.3039 49.9245 46.6938C50.6145 52.3031 50.6845 57.8624 48.9845 62.4318L48.9945 62.4418Z" fill="#09004A"/>
<path d="M38.7545 28.6866C36.9845 25.937 37.7145 23.9373 37.7145 23.9373L29.1245 20.4077L20.5345 23.9373C20.5345 23.9373 21.2645 25.937 19.4945 28.6866C17.7245 31.4263 8.57452 51.8636 13.4045 65.0018C13.6745 65.7417 13.9845 66.4217 14.3245 67.0316C15.4345 69.0513 16.8645 70.4511 18.4045 71.411C21.2345 72.4609 24.7545 73.0508 29.1245 73.0508C33.4945 73.0508 37.0145 72.4609 39.8445 71.411C41.3845 70.4611 42.8145 69.0613 43.9245 67.0316C44.2645 66.4117 44.5745 65.7417 44.8445 65.0018C49.6745 51.8636 40.5245 31.4363 38.7545 28.6866Z" fill="#EAE8FF"/>
<g style="mix-blend-mode:soft-light">
<path d="M37.7145 29.696C41.6745 29.696 43.9245 34.8754 45.5445 39.5047C47.1645 44.1341 52.1545 59.4921 44.3245 61.9218C36.4945 64.3615 27.6645 53.8829 29.1845 45.8339C30.7045 37.785 33.7545 29.686 37.7145 29.686V29.696Z" fill="#C8C3E8"/>
</g>
<g style="mix-blend-mode:multiply" opacity="0.5">
<path d="M48.9945 62.4517C47.9345 65.3013 46.1745 67.771 43.4345 69.6007C42.3845 70.3006 41.1945 70.9106 39.8445 71.4105C38.4845 71.9204 36.9745 72.3104 35.2745 72.5903C33.4445 72.8903 31.3945 73.0503 29.1345 73.0503C26.8745 73.0503 24.6945 72.8803 22.8145 72.5603C21.1845 72.2804 19.7345 71.9004 18.4145 71.4105C17.0245 70.8906 15.8045 70.2706 14.7345 69.5507C12.0445 67.721 10.3145 65.2813 9.26453 62.4617C9.40453 62.6316 11.7045 65.3913 14.3345 67.0411C15.2645 67.631 16.2345 68.0709 17.1745 68.2009C20.8145 68.7308 21.2145 69.2508 23.3745 70.5106C25.5245 71.7704 29.1445 71.9304 29.1445 71.9304C29.1445 71.9304 32.7545 71.7704 34.9145 70.5106C37.0645 69.2508 37.4745 68.7208 41.1145 68.2009C42.0445 68.0709 43.0145 67.621 43.9545 67.0411C46.5845 65.3913 48.8845 62.6316 49.0245 62.4617L48.9945 62.4517Z" fill="#D0CDEB"/>
</g>
<g style="mix-blend-mode:multiply" opacity="0.5">
<path d="M43.4345 69.5911C42.3845 70.2911 41.1945 70.9011 39.8445 71.4011C38.4845 71.9111 36.9745 72.3012 35.2745 72.5812C35.6045 71.9612 36.2745 71.0711 37.6145 70.1511C39.6145 68.7811 42.4545 69.3411 43.4345 69.6011V69.5911Z" fill="#D0CDEB"/>
</g>
<g style="mix-blend-mode:multiply" opacity="0.5">
<path d="M22.8045 72.5509C21.1745 72.2709 19.7245 71.8909 18.4045 71.4009C17.0145 70.8809 15.7945 70.2609 14.7245 69.5409C15.5845 69.2709 17.5645 68.8409 19.5245 69.6909C21.5145 70.5509 22.4645 71.9509 22.7945 72.5509H22.8045Z" fill="#D0CDEB"/>
</g>
<path d="M22.7545 74.7207C21.9445 75.0707 21.8045 73.7707 20.1545 73.9107C19.2645 73.9807 18.4545 76.0007 17.0145 76.0007C15.5745 76.0007 15.2445 74.0107 13.9245 73.9107C13.0145 73.8407 12.0045 75.0207 11.3045 74.8607C10.9645 74.7807 10.9345 73.6607 11.5945 72.4707L11.7045 72.2907C11.7045 72.2907 11.7345 72.2507 11.7445 72.2207C11.9845 71.8307 12.3045 71.4507 12.7145 71.1007C13.5845 70.3607 14.8445 69.7807 16.6345 69.6907C18.9845 69.5707 20.6045 70.4507 21.6145 71.5107C21.8045 71.7007 21.9545 71.9007 22.1045 72.1007C22.9745 73.3107 23.1345 74.5407 22.7445 74.7107L22.7545 74.7207Z" fill="#FFCE06"/>
<g style="mix-blend-mode:soft-light">
<path d="M21.6145 71.5207C20.8045 72.0707 19.2145 72.4407 17.3845 72.4407C15.1145 72.4407 13.2145 71.8807 12.7245 71.1107C13.5945 70.3707 14.8545 69.7907 16.6445 69.7007C18.9945 69.5807 20.6145 70.4607 21.6245 71.5207H21.6145Z" fill="#D9D6F5"/>
</g>
<g style="mix-blend-mode:multiply">
<path d="M22.7545 74.7203C21.9445 75.0703 21.8045 73.7703 20.1545 73.9103C19.2645 73.9803 18.4545 76.0003 17.0145 76.0003C15.5745 76.0003 15.2445 74.0103 13.9245 73.9103C13.0145 73.8403 12.0045 75.0203 11.3045 74.8603C10.9645 74.7803 10.9345 73.6603 11.5945 72.4703L11.7045 72.2903L11.7545 72.2103C11.7545 72.2103 11.7545 72.2103 11.7545 72.2203C11.6845 72.4703 11.0945 74.7103 12.2145 74.2203C13.0645 73.8403 14.0645 72.8403 14.9545 73.6203C15.6245 74.2003 15.8445 74.8103 16.2345 75.1603C16.9545 75.8003 17.5845 75.8703 17.9445 75.3703C18.9645 73.9703 19.8645 72.8003 21.1145 73.5603C22.9545 74.6903 22.7945 73.3603 22.1245 72.1003C22.9945 73.3003 23.1545 74.5303 22.7645 74.7103L22.7545 74.7203Z" fill="#F5D6D6"/>
</g>
<path d="M35.5046 74.7207C36.3146 75.0707 36.4546 73.7707 38.1046 73.9107C38.9946 73.9807 39.8046 76.0007 41.2446 76.0007C42.6846 76.0007 43.0146 74.0107 44.3346 73.9107C45.2446 73.8407 46.2546 75.0207 46.9546 74.8607C47.2946 74.7807 47.3246 73.6607 46.6646 72.4707L46.5546 72.2907C46.5546 72.2907 46.5246 72.2507 46.5146 72.2207C46.2746 71.8307 45.9546 71.4507 45.5446 71.1007C44.6746 70.3607 43.4146 69.7807 41.6246 69.6907C39.2746 69.5707 37.6546 70.4507 36.6446 71.5107C36.4546 71.7007 36.3046 71.9007 36.1546 72.1007C35.2846 73.3107 35.1246 74.5407 35.5146 74.7107L35.5046 74.7207Z" fill="#FFCE06"/>
<g style="mix-blend-mode:soft-light">
<path d="M36.6445 71.5207C37.4545 72.0707 39.0445 72.4407 40.8745 72.4407C43.1445 72.4407 45.0445 71.8807 45.5345 71.1107C44.6645 70.3707 43.4045 69.7907 41.6145 69.7007C39.2645 69.5807 37.6445 70.4607 36.6345 71.5207H36.6445Z" fill="#D9D6F5"/>
</g>
<g style="mix-blend-mode:multiply">
<path d="M35.5045 74.7203C36.3145 75.0703 36.4545 73.7703 38.1045 73.9103C38.9945 73.9803 39.8045 76.0003 41.2445 76.0003C42.6845 76.0003 43.0145 74.0103 44.3345 73.9103C45.2445 73.8403 46.2545 75.0203 46.9545 74.8603C47.2945 74.7803 47.3245 73.6603 46.6645 72.4703L46.5545 72.2903L46.5045 72.2103C46.5045 72.2103 46.5045 72.2103 46.5045 72.2203C46.5745 72.4703 47.1645 74.7103 46.0445 74.2203C45.1945 73.8403 44.1945 72.8403 43.3045 73.6203C42.6345 74.2003 42.4145 74.8103 42.0245 75.1603C41.3045 75.8003 40.6745 75.8703 40.3145 75.3703C39.2945 73.9703 38.3945 72.8003 37.1445 73.5603C35.3045 74.6903 35.4645 73.3603 36.1345 72.1003C35.2645 73.3003 35.1045 74.5303 35.4945 74.7103L35.5045 74.7203Z" fill="#F5D6D6"/>
</g>
<g style="mix-blend-mode:multiply">
<path d="M40.2845 23.9569C40.0245 24.2968 39.7545 24.6268 39.4545 24.9467C39.1545 25.2667 38.8445 25.5866 38.5045 25.8866C36.9445 27.2864 34.9345 28.4263 32.3645 29.0262C26.8245 30.296 22.3745 28.7862 19.3345 26.9765C18.8145 26.6665 18.3345 26.3565 17.9045 26.0466C17.4245 25.6966 16.9945 25.3567 16.6245 25.0467C17.7545 24.1068 18.4945 23.5569 18.4945 23.5569L18.9745 23.8169L19.5245 24.1168C22.8845 20.2973 26.4145 17.7777 29.1245 18.0976C31.8445 17.7777 35.3645 20.2973 38.7245 24.1168L39.2745 23.8169L39.7545 23.5569C39.7545 23.5569 39.9445 23.6969 40.2845 23.9669V23.9569Z" fill="#C2BFDB"/>
</g>
<path d="M43.4646 14.3481C43.4646 15.128 43.4046 15.8879 43.2746 16.6378C42.6146 20.7873 40.1746 24.3368 36.7546 26.4865C34.5446 27.8863 31.9246 28.6962 29.1246 28.6962C21.2046 28.6962 14.7946 22.2771 14.7946 14.3581C14.7946 13.4182 14.8846 12.4984 15.0646 11.6085C16.1446 6.01922 20.4546 1.5998 25.9746 0.359964C26.9846 0.129994 28.0446 0.0100098 29.1246 0.0100098C37.0446 0.0100098 43.4646 6.42917 43.4646 14.3481Z" fill="#09004A"/>
<path d="M34.1245 9.48866C29.5245 12.1983 32.8645 18.0575 32.8645 18.0575L29.0745 17.5676L29.0445 20.4272L29.0145 17.5676L25.2245 18.0575C25.2245 18.0575 28.5645 12.1983 23.9645 9.48866C19.9945 7.14897 16.2445 11.2784 16.4545 15.8278C16.5545 17.9375 17.1845 21.5571 19.9045 24.3767C21.7745 26.3164 24.8745 28.2762 29.0645 28.2762C33.2545 28.2762 36.0545 26.4564 37.9245 24.6467C40.8645 21.797 41.5445 17.9975 41.6445 15.8278C41.8545 11.2784 38.1045 7.15897 34.1345 9.48866H34.1245Z" fill="#EAE8FF"/>
<path d="M22.8351 16.0521C23.7843 15.7213 24.2945 14.7091 23.9747 13.7912C23.6548 12.8733 22.6261 12.3973 21.6769 12.7281C20.7277 13.0588 20.2175 14.071 20.5373 14.9889C20.8572 15.9068 21.8859 16.3828 22.8351 16.0521Z" fill="#3E1506"/>
<path d="M23.2663 15.6988C23.9744 15.1794 24.1591 14.2278 23.6789 13.5732C23.1987 12.9186 22.2354 12.8089 21.5273 13.3282C20.8192 13.8476 20.6344 14.7992 21.1146 15.4538C21.5948 16.1084 22.5582 16.2181 23.2663 15.6988Z" fill="#FBFCFA"/>
<path d="M23.7563 14.6854C23.8479 13.9511 23.3135 13.2798 22.5627 13.1862C21.8119 13.0925 21.129 13.612 21.0373 14.3463C20.9457 15.0807 21.4801 15.7519 22.2309 15.8456C22.9817 15.9392 23.6647 15.4198 23.7563 14.6854Z" fill="#461E95"/>
<path d="M23.0716 14.6006C23.1174 14.2334 22.8524 13.8981 22.4798 13.8516C22.1071 13.8052 21.7678 14.0651 21.722 14.4323C21.6762 14.7995 21.9412 15.1348 22.3139 15.1813C22.6865 15.2278 23.0258 14.9678 23.0716 14.6006Z" fill="#3E1506"/>
<path d="M23.1798 14.4274C23.2915 14.3959 23.3444 14.2369 23.298 14.0721C23.2516 13.9073 23.1235 13.7991 23.0118 13.8306C22.9002 13.862 22.8473 14.0211 22.8937 14.1859C22.9401 14.3507 23.0682 14.4588 23.1798 14.4274Z" fill="white"/>
<path d="M37.5451 14.9941C37.865 14.0762 37.3548 13.064 36.4056 12.7333C35.4564 12.4026 34.4276 12.8786 34.1077 13.7965C33.7879 14.7144 34.298 15.7266 35.2472 16.0573C36.1965 16.388 37.2252 15.9119 37.5451 14.9941Z" fill="#3E1506"/>
<path d="M36.9716 15.4639C37.4518 14.8093 37.267 13.8577 36.5589 13.3383C35.8508 12.819 34.8875 12.9287 34.4073 13.5833C33.9271 14.2379 34.1118 15.1896 34.8199 15.7089C35.528 16.2282 36.4914 16.1185 36.9716 15.4639Z" fill="#FBFCFA"/>
<path d="M35.8519 15.8475C36.6027 15.7539 37.1371 15.0826 37.0455 14.3483C36.9538 13.6139 36.2709 13.0945 35.5201 13.1881C34.7693 13.2818 34.2349 13.953 34.3265 14.6874C34.4181 15.4217 35.1011 15.9411 35.8519 15.8475Z" fill="#461E95"/>
<path d="M35.7689 15.1825C36.1416 15.1361 36.4066 14.8007 36.3608 14.4335C36.315 14.0664 35.9757 13.8064 35.6031 13.8529C35.2304 13.8993 34.9654 14.2347 35.0112 14.6019C35.057 14.969 35.3963 15.229 35.7689 15.1825Z" fill="#3E1506"/>
<path d="M36.4675 14.3563C36.5708 14.3034 36.5911 14.137 36.513 13.9847C36.4349 13.8323 36.2879 13.7517 36.1847 13.8046C36.0815 13.8575 36.0611 14.0239 36.1392 14.1762C36.2173 14.3286 36.3643 14.4092 36.4675 14.3563Z" fill="white"/>
<g style="mix-blend-mode:multiply" opacity="0.5">
<path d="M29.0445 20.1173C29.0445 20.1173 26.6345 17.8073 25.2245 18.0573C25.2245 18.0573 27.0145 18.6773 28.1845 19.8173C28.4745 20.1073 29.0345 20.7973 29.0345 20.7973C29.0345 20.7973 29.2545 20.5173 29.9045 19.7973C31.2645 18.2873 32.8645 18.0473 32.8645 18.0473C31.4545 17.7973 29.0545 20.0973 29.0445 20.1073V20.1173Z" fill="#D0CDEB"/>
</g>
<path d="M32.8646 18.0583C32.5846 18.0783 32.2946 18.1583 32.0146 18.2583C30.5046 18.8383 29.0546 20.4383 29.0546 20.4383C29.0546 20.4383 27.0046 18.1883 25.2346 18.0583C25.2346 18.0583 25.9846 17.0083 26.9846 16.2083C27.6146 15.6883 28.3546 15.2783 29.0546 15.2883C29.1746 15.2883 29.2946 15.2883 29.4246 15.3183C30.5746 15.5283 31.7446 16.6983 32.3846 17.4383C32.6846 17.7983 32.8746 18.0483 32.8746 18.0483L32.8646 18.0583Z" fill="#FFCE06"/>
<path d="M29.0445 15.2881C29.5645 16.9681 29.1445 18.7181 29.0445 20.4381C28.9445 18.7181 28.5245 16.9681 29.0445 15.2881Z" fill="#F5B906"/>
<g style="mix-blend-mode:multiply" opacity="0.5">
<path d="M32.0045 18.2578C30.4945 18.8378 29.0445 20.4378 29.0445 20.4378C29.0445 20.4378 26.9945 18.1878 25.2245 18.0578C25.2245 18.0578 25.9745 17.0078 26.9745 16.2078C27.2445 16.4778 28.0245 17.2978 28.2845 18.0378C28.6045 18.9378 28.9045 19.3278 29.0545 19.3578C29.2045 19.3878 29.5045 18.9378 29.9045 18.6378C30.2845 18.3478 31.0245 17.9278 32.0045 18.2578Z" fill="#EBCDD1"/>
</g>
<g style="mix-blend-mode:soft-light">
<path d="M32.3745 17.4481C32.2345 17.5581 32.0345 17.6481 31.7745 17.6581C31.1445 17.6581 30.3045 18.0881 30.2445 17.0981C30.1945 16.0981 29.4045 15.3281 29.4045 15.3281C30.5545 15.5381 31.7245 16.7081 32.3645 17.4481H32.3745Z" fill="#C8C3E8"/>
</g>
<path opacity="0.47" d="M43.2846 16.6278C43.3246 14.3581 42.9246 11.4585 41.1846 8.96882C37.7146 4.01947 32.7946 8.47888 27.8746 6.03921C23.8846 4.05947 25.3046 1.30983 25.9846 0.349954C26.9946 0.119984 28.0546 0 29.1346 0C37.0546 0 43.4746 6.41916 43.4746 14.3381C43.4746 15.118 43.4146 15.8779 43.2846 16.6278Z" fill="#22186B"/>
</svg>
