<svg width="70" height="60" viewBox="0 0 70 60" fill="none" xmlns="http://www.w3.org/2000/svg">
<path d="M27.4244 14.7476L20.2544 18.2176L14.2944 21.1076C14.2944 21.1076 14.0744 21.0776 13.7444 20.9776C12.7144 20.6776 10.6244 19.7576 10.9744 17.2476C11.1844 15.7176 11.7644 14.8076 13.1344 14.3376C14.3844 13.9076 16.2844 13.8376 19.1744 13.9976C19.3244 13.9976 19.4644 14.0176 19.6144 14.0176C25.3544 14.3376 27.4244 14.7476 27.4244 14.7476Z" fill="#AAACE5"/>
<path d="M21.7143 15.6874L20.2443 18.2174L14.2843 21.1074C14.2843 21.1074 14.0643 21.0774 13.7343 20.9774C16.0643 20.0074 15.3843 16.3574 15.0143 15.2774C14.7943 14.6374 13.8843 14.4174 13.1343 14.3474C14.3843 13.9174 16.2843 13.8474 19.1743 14.0074C19.3243 14.0074 19.4643 14.0274 19.6143 14.0274L21.7143 15.6974V15.6874Z" fill="#4F53C9"/>
<path d="M58.1944 23.5882L53.2044 25.3882L51.2244 26.0982C51.2244 26.0982 49.4544 21.1582 50.1044 19.1182C50.2544 18.6282 50.5444 18.3082 51.0344 18.2582C53.5544 18.0082 58.1944 23.5882 58.1944 23.5882Z" fill="#BFC1EC"/>
<path d="M53.2044 25.3882L51.2244 26.0982C51.2244 26.0982 49.4544 21.1582 50.1044 19.1182C50.3544 21.0782 51.0644 24.1382 53.0144 25.2682C53.0844 25.3082 53.1444 25.3482 53.2044 25.3882Z" fill="#9396DE"/>
<path d="M31.6543 21.7481L29.3243 21.8081L17.7043 22.1281L16.1043 22.1681C16.1043 22.1681 11.2343 7.6681 14.3243 1.0381C14.3443 0.9881 14.3643 0.9481 14.3943 0.8981C14.8143 0.0980996 15.4243 -0.1319 16.1543 0.0680996C21.0443 1.3681 31.6443 21.7381 31.6443 21.7381L31.6543 21.7481Z" fill="#D3D4F2"/>
<path d="M17.7043 22.1382L16.1043 22.1782C16.1043 22.1782 11.2343 7.6782 14.3243 1.0482C14.3443 0.998203 14.3643 0.958203 14.3943 0.908203C13.8943 2.9682 13.4343 5.8782 13.8043 8.7282C14.4943 13.9582 14.9543 18.5682 17.4143 21.6282C17.5743 21.8282 17.6643 21.9982 17.6943 22.1282L17.7043 22.1382Z" fill="#9396DE"/>
<path d="M31.6542 21.7484L29.3242 21.8084C25.5142 21.1784 20.8242 19.3184 18.5542 16.4984C15.6742 12.8984 15.9742 3.26836 16.1542 0.0683594C21.0442 1.36836 31.6442 21.7384 31.6442 21.7384L31.6542 21.7484Z" fill="#E1E2F6"/>
<path d="M51.0842 50.4882C51.0842 50.4882 50.2141 50.9282 47.9841 51.5182C46.5342 51.8982 44.5042 52.3482 41.7642 52.7682C38.8642 53.2182 36.7542 53.3682 35.2242 53.1282C33.0742 52.7882 32.0642 51.6582 31.6142 49.4182C31.3142 47.9382 31.7542 46.8282 32.4142 46.0282C33.5442 44.6582 35.3442 44.1582 35.3442 44.1582L49.4542 49.8282L51.0842 50.4882Z" fill="#AAACE5"/>
<path d="M49.4441 49.8282L48.114 51.3582L47.9741 51.5182C47.9041 51.5382 47.8341 51.5582 47.7541 51.5782C46.9141 51.7982 45.884 52.0282 44.644 52.2682C43.944 52.3982 43.184 52.5382 42.344 52.6782C42.144 52.7082 41.954 52.7382 41.744 52.7682C38.844 53.2182 36.734 53.3682 35.204 53.1282C35.474 53.0382 36.244 52.8582 36.474 52.6082C38.134 50.7182 37.534 47.6282 36.054 46.1782C34.604 44.7482 32.484 45.9782 32.394 46.0182C32.784 45.5482 33.254 45.1782 33.704 44.8982C34.554 44.3682 35.3241 44.1582 35.3241 44.1582L49.4341 49.8282H49.4441Z" fill="#9092DD"/>
<path d="M49.4441 49.8284L48.1141 51.3584C47.9941 51.4284 47.8741 51.4984 47.7641 51.5684C46.9241 51.7884 45.8941 52.0184 44.6541 52.2584C43.9541 52.3884 43.1941 52.5284 42.3541 52.6684C40.5841 51.9784 39.7541 48.5584 36.9241 45.9884C36.1841 45.3184 34.5941 44.9684 33.7141 44.8884C34.5641 44.3584 35.3341 44.1484 35.3341 44.1484L49.4441 49.8184V49.8284Z" fill="#4F53C9"/>
<path d="M61.2043 29.6685C56.9543 35.6985 48.3143 39.0685 48.3143 39.0685C48.3143 39.0685 41.6443 41.8585 32.1143 42.1885C19.0143 42.6385 1.75428 39.9585 0.204275 32.7385C0.0442751 31.9985 -0.255714 30.8385 0.434286 29.4985C1.36429 27.6985 4.07428 25.5885 11.3143 23.7485C11.3143 23.7485 11.3143 23.7385 11.3343 23.7085C11.4643 23.4185 12.4043 21.6485 15.5443 20.3985C15.5943 20.3785 15.6543 20.3585 15.7043 20.3385C16.2943 20.1185 16.9643 19.9085 17.7143 19.7385C18.2243 19.6185 18.7743 19.5185 19.3643 19.4285C29.1443 18.0185 33.2543 22.2385 40.8543 23.8485C47.2243 25.1985 52.0643 24.7985 52.0643 24.7985C52.0643 24.7985 60.7043 16.8985 63.5043 15.8985C63.7643 15.8085 63.9743 15.7685 64.1243 15.8085C64.6843 15.9485 65.0443 16.4685 65.2243 17.2685C65.7843 19.7985 64.4343 25.0885 61.2143 29.6685H61.2043Z" fill="#E1E2F6"/>
<path d="M61.2043 29.6683C56.9543 35.6983 48.3143 39.0683 48.3143 39.0683C48.3143 39.0683 41.6443 41.8583 32.1143 42.1883C19.0143 42.6383 1.75428 39.9583 0.204275 32.7383C0.0442751 31.9983 -0.255714 30.8383 0.434286 29.4983C3.04429 32.5283 9.01427 37.4083 21.0943 38.7183C31.1743 39.8083 44.4843 39.1783 53.6243 33.6983C60.2543 29.7183 64.4043 22.0883 65.2143 17.2783C65.7743 19.8083 64.4243 25.0983 61.2043 29.6783V29.6683Z" fill="#BABCEA"/>
<path d="M54.6344 26.9787C49.8044 30.8187 33.5644 28.8787 30.7444 28.3987C27.6444 27.8587 23.3744 21.9787 17.7244 19.7287C18.2344 19.6087 18.7844 19.5087 19.3744 19.4187C29.1544 18.0087 33.2644 22.2287 40.8644 23.8387C47.2344 25.1887 52.0744 24.7887 52.0744 24.7887C52.0744 24.7887 60.7144 16.8887 63.5144 15.8887C62.7744 22.3787 55.1144 26.5987 54.6444 26.9787H54.6344Z" fill="#EAEAF9"/>
<path d="M41.2043 34.2981C41.9278 34.2981 42.5143 33.5773 42.5143 32.6881C42.5143 31.7989 41.9278 31.0781 41.2043 31.0781C40.4808 31.0781 39.8943 31.7989 39.8943 32.6881C39.8943 33.5773 40.4808 34.2981 41.2043 34.2981Z" fill="#88C7F5"/>
<path d="M41.3043 34.1086C41.9394 34.1086 42.4543 33.4728 42.4543 32.6886C42.4543 31.9043 41.9394 31.2686 41.3043 31.2686C40.6692 31.2686 40.1543 31.9043 40.1543 32.6886C40.1543 33.4728 40.6692 34.1086 41.3043 34.1086Z" fill="#9ED6FF"/>
<path d="M45.2292 33.8276C45.857 33.7801 46.319 33.121 46.261 32.3555C46.203 31.59 45.6471 31.008 45.0193 31.0555C44.3915 31.1031 43.9296 31.7621 43.9875 32.5276C44.0455 33.2931 44.6014 33.8751 45.2292 33.8276Z" fill="#88C7F5"/>
<path d="M45.2879 33.6734C45.8386 33.6317 46.2434 33.0488 46.1921 32.3714C46.1408 31.694 45.6528 31.1787 45.1021 31.2204C44.5514 31.2621 44.1466 31.845 44.1978 32.5224C44.2491 33.1998 44.7371 33.7151 45.2879 33.6734Z" fill="#9ED6FF"/>
<path d="M48.3261 33.1056C48.8769 33.0639 49.282 32.4854 49.2312 31.8136C49.1803 31.1417 48.6926 30.6308 48.1419 30.6725C47.5912 30.7142 47.186 31.2927 47.2369 31.9646C47.2878 32.6364 47.7754 33.1473 48.3261 33.1056Z" fill="#88C7F5"/>
<path d="M48.376 32.9806C48.8661 32.9435 49.2266 32.4268 49.1812 31.8265C49.1357 31.2262 48.7015 30.7697 48.2114 30.8068C47.7213 30.8439 47.3608 31.3606 47.4063 31.9609C47.4517 32.5612 47.8859 33.0177 48.376 32.9806Z" fill="#9ED6FF"/>
<path d="M50.854 32.1164C51.3055 32.0822 51.6375 31.6036 51.5954 31.0474C51.5533 30.4911 51.153 30.068 50.7015 30.1022C50.2499 30.1363 49.9179 30.615 49.96 31.1712C50.0022 31.7274 50.4024 32.1506 50.854 32.1164Z" fill="#88C7F5"/>
<path d="M50.8948 31.9923C51.2968 31.9618 51.5926 31.5398 51.5555 31.0497C51.5184 30.5596 51.1624 30.1869 50.7604 30.2173C50.3584 30.2478 50.0626 30.6698 50.0997 31.1599C50.1368 31.6501 50.4927 32.0227 50.8948 31.9923Z" fill="#9ED6FF"/>
<path d="M69.9943 34.7778C69.8543 36.3778 55.8543 32.8978 54.9243 30.4978C54.9243 30.4978 55.0043 29.9378 55.4343 29.3378C55.8143 28.8178 56.4643 28.2778 57.5543 28.0578C59.9143 27.5878 61.2043 27.0178 62.9143 28.0578C64.3043 28.8978 68.2043 31.7678 69.5343 33.6678C69.8343 34.0978 70.0043 34.4878 69.9843 34.7878L69.9943 34.7778Z" fill="#BFC1EC"/>
<path d="M69.9943 34.7779C69.8543 36.3779 55.8543 32.8979 54.9243 30.4979C54.9243 30.4979 55.0043 29.9379 55.4343 29.3379C56.9743 30.1679 67.5443 35.7879 69.5443 33.6679C69.8443 34.0979 70.0143 34.4879 69.9943 34.7879V34.7779Z" fill="#9396DE"/>
<path d="M18.7842 29.0075C12.6242 27.7475 11.3142 23.7375 11.3142 23.7375C11.3142 23.7375 11.4042 23.5075 11.6542 23.1575C11.6542 23.1575 11.7242 23.0675 11.7542 23.0175C11.7942 22.9575 11.8442 22.9075 11.8942 22.8475C11.9342 22.7975 11.9842 22.7375 12.0342 22.6775C12.0842 22.6175 12.1342 22.5675 12.1942 22.5075C12.2242 22.4675 12.2642 22.4375 12.3042 22.3975C12.3342 22.3675 12.3642 22.3375 12.3942 22.3075C12.4342 22.2675 12.4742 22.2275 12.5242 22.1875C12.5542 22.1575 12.5942 22.1275 12.6242 22.0975C12.7342 21.9975 12.8542 21.9075 12.9842 21.8075C13.0542 21.7575 13.1242 21.6975 13.1942 21.6475C13.1942 21.6475 13.2142 21.6375 13.2242 21.6275C13.2642 21.5975 13.3142 21.5675 13.3642 21.5275C13.4142 21.4975 13.4542 21.4675 13.5042 21.4375C13.5542 21.4075 13.6042 21.3775 13.6542 21.3375C13.8042 21.2475 13.9542 21.1475 14.1242 21.0575C14.2342 20.9975 14.3542 20.9275 14.4842 20.8675C14.4942 20.8675 14.5142 20.8575 14.5242 20.8475C14.5842 20.8175 14.6442 20.7875 14.7142 20.7575C14.8042 20.7175 14.8842 20.6775 14.9742 20.6375C15.0142 20.6175 15.0642 20.5975 15.1142 20.5775C15.1642 20.5575 15.2042 20.5375 15.2542 20.5175C15.3042 20.4975 15.3442 20.4775 15.3942 20.4575C15.4442 20.4375 15.4942 20.4175 15.5442 20.3975C16.0042 20.7275 18.1142 22.2475 19.8842 23.4775C20.9042 24.2275 21.8342 24.8975 22.2742 25.1475C22.3042 25.1675 22.3242 25.1775 22.3542 25.1975C22.3842 25.2175 22.4042 25.2375 22.4342 25.2575C23.6342 26.2375 24.6842 30.2175 18.7842 29.0075Z" fill="#88C7F5"/>
<path d="M18.7342 28.7677C13.0342 27.6277 11.5142 24.1677 11.3342 23.6977C11.3742 23.6177 11.4742 23.4277 11.6642 23.1577C11.7342 23.0577 11.8142 22.9577 11.9042 22.8477C11.9442 22.7977 11.9942 22.7377 12.0442 22.6777C12.0942 22.6177 12.1442 22.5677 12.2042 22.5077C12.2442 22.4677 12.2842 22.4277 12.3242 22.3877C12.8142 21.9077 13.5142 21.3577 14.5042 20.8577C14.5142 20.8577 14.5342 20.8477 14.5442 20.8377C14.6042 20.8077 14.6642 20.7777 14.7342 20.7477C14.8242 20.7077 14.9042 20.6677 14.9942 20.6277C15.0842 20.5877 15.1742 20.5477 15.2642 20.5077C15.3542 20.4677 15.4542 20.4277 15.5542 20.3877C16.2742 20.9077 21.0142 24.3177 22.1942 24.9977C22.1942 24.9977 22.1942 24.9977 22.2042 24.9977C22.2342 25.0177 22.2542 25.0277 22.2842 25.0477C22.3142 25.0677 22.3542 25.0977 22.3842 25.1277C23.5642 26.1177 24.5442 29.9177 18.7342 28.7477V28.7677Z" fill="#8ECFFF"/>
<path d="M18.3343 27.8275C13.4143 26.7975 11.9343 23.7775 11.6643 23.1075C11.6643 23.1075 11.7243 23.0175 11.7643 22.9675C11.8043 22.9175 11.8543 22.8575 11.8943 22.7975C11.9343 22.7475 11.9843 22.6875 12.0343 22.6375C12.0843 22.5875 12.1343 22.5275 12.1843 22.4775C12.2143 22.4475 12.2543 22.4075 12.2943 22.3675C12.3243 22.3375 12.3543 22.3075 12.3843 22.2775C12.4243 22.2375 12.4643 22.1975 12.5143 22.1575C12.5443 22.1275 12.5843 22.0975 12.6143 22.0675C12.7243 21.9775 12.8443 21.8775 12.9643 21.7775C13.0343 21.7275 13.1043 21.6775 13.1743 21.6175C13.1743 21.6175 13.1943 21.6075 13.1943 21.5975C13.2343 21.5675 13.2843 21.5375 13.3243 21.5075C13.3743 21.4775 13.4143 21.4475 13.4643 21.4175C13.5143 21.3875 13.5643 21.3575 13.6143 21.3275C13.7543 21.2375 13.9143 21.1475 14.0743 21.0575C14.1843 20.9975 14.3043 20.9275 14.4243 20.8675C14.4343 20.8675 14.4543 20.8575 14.4643 20.8475C14.5243 20.8175 14.5843 20.7875 14.6443 20.7575C14.7243 20.7175 14.8143 20.6775 14.9043 20.6375C14.9443 20.6175 14.9943 20.5975 15.0343 20.5775C15.0843 20.5575 15.1243 20.5375 15.1743 20.5175C15.2243 20.4975 15.2643 20.4775 15.3143 20.4575C15.3643 20.4375 15.4043 20.4175 15.4543 20.3975C15.9043 20.7175 17.9743 22.2175 19.7143 23.4175C20.6843 24.0975 21.5543 24.6775 21.9643 24.9175C21.9643 24.9175 21.9643 24.9175 21.9743 24.9175C22.0843 24.9975 22.1543 25.0475 22.1543 25.0475C22.1743 25.0875 22.1843 25.1175 22.2043 25.1575C22.8143 26.5275 22.5143 28.7075 18.3043 27.8175L18.3343 27.8275Z" fill="#A3D8FF"/>
<path d="M16.1541 25.1374C15.2141 24.9574 12.6241 23.3074 12.2041 22.4674C12.6841 21.9774 13.4041 21.3874 14.4441 20.8574C14.4441 20.8574 14.4641 20.8574 14.4741 20.8574C15.1041 21.0574 16.2641 23.9374 17.6541 24.4274C19.0441 24.9174 17.4141 25.3774 16.1541 25.1374Z" fill="#C4E6FF"/>
<path d="M59.4042 59.9876C59.2942 59.9776 59.1942 59.9576 59.1142 59.9276C56.5442 59.1876 29.0842 40.7676 29.0842 40.7676C28.9042 40.0876 28.9742 39.5576 29.2642 39.1576C29.6342 38.6376 30.3642 38.2976 31.3642 38.0376C31.4942 38.0076 31.6242 37.9776 31.7542 37.9476C32.8842 37.6976 34.3142 37.5176 35.9342 37.2876C37.6642 37.0376 39.9142 36.5576 42.0442 36.5576C42.2042 36.5576 42.3742 36.5576 42.5342 36.5576C44.0842 36.6176 45.5542 36.9676 46.6742 37.8876C51.0742 41.5176 55.2943 47.0476 58.0942 51.7176C58.8342 52.9476 59.4642 54.1176 59.9842 55.1776C60.6142 56.4676 61.0642 57.5876 61.2942 58.4576C61.6642 59.8376 60.2342 60.0776 59.4142 59.9876H59.4042Z" fill="#D3D4F2"/>
<path d="M59.4042 59.9872C59.2942 59.9772 59.1942 59.9572 59.1142 59.9272C56.5442 59.1872 29.0842 40.7672 29.0842 40.7672C28.9042 40.0872 28.9742 39.5572 29.2642 39.1572C29.2642 39.1572 58.1742 59.7272 59.4142 59.9872H59.4042Z" fill="#9396DE"/>
<path d="M58.0841 51.7276C57.9741 51.7276 57.8741 51.7076 57.7741 51.6876C55.4141 51.2476 37.1341 40.9876 31.7441 37.9476C32.8741 37.6976 34.3041 37.5176 35.9241 37.2876C37.6541 37.0376 39.9041 36.5576 42.0341 36.5576C42.1941 36.5576 42.3641 36.5576 42.5241 36.5576C44.0741 36.6176 45.5441 36.9676 46.6641 37.8876C51.0641 41.5176 55.2841 47.0476 58.0841 51.7176V51.7276Z" fill="#E1E2F6"/>
<path d="M35.2444 51.9582C35.0244 52.0182 34.7644 52.0482 34.4844 52.0282C33.5344 51.9682 31.4544 50.1882 32.5044 47.5082C32.5444 47.4082 32.6144 47.3082 32.7144 47.1982C33.3244 46.5282 34.9644 45.9982 35.9344 47.9382C36.8944 49.8582 36.5744 51.5782 35.2444 51.9582Z" fill="#445F96"/>
<path d="M34.1244 49.1583C34.1244 49.1583 33.1644 46.7283 34.2644 46.7383C35.3644 46.7483 34.6344 48.9483 34.1244 49.1583Z" fill="#6383C4"/>
<path d="M34.2844 49.3784C34.2844 49.3784 36.2844 49.2584 36.3344 50.2784C36.3844 51.2984 35.0444 50.3084 34.2844 49.3784Z" fill="#6383C4"/>
<path d="M34.0045 49.998C34.0045 49.998 33.5245 51.288 33.8945 51.648C34.2645 52.008 34.8545 51.848 34.7445 51.288C34.6345 50.728 34.0045 50.008 34.0045 50.008V49.998Z" fill="#6383C4"/>
<path d="M32.6144 48.5084C32.2844 48.6184 32.1544 49.0584 32.5044 49.4984C32.8544 49.9384 34.1444 49.5984 34.1444 49.5984C34.1444 49.5984 32.9444 48.3884 32.6144 48.5084Z" fill="#6383C4"/>
<path d="M34.6145 50.3378C34.6145 50.3378 33.8045 50.3878 33.3045 50.0578C33.1145 49.9278 32.9645 49.7378 32.9345 49.4678C32.8645 48.8678 33.5445 48.4078 33.7945 48.2678C33.8545 48.2378 33.8845 48.2178 33.8845 48.2178C35.5445 49.0178 34.6045 50.3478 34.6045 50.3478L34.6145 50.3378Z" fill="#516BA1"/>
<path d="M33.3045 50.0586C33.1145 49.9286 32.9645 49.7386 32.9345 49.4686C32.8645 48.8686 33.5445 48.4086 33.7945 48.2686C34.1945 49.3186 33.6945 49.8286 33.3045 50.0586Z" fill="#5975B0"/>
<path d="M14.6642 18.3781C14.3242 19.7181 13.4042 19.9381 12.7242 19.7781C12.3842 19.6981 12.1042 19.5181 11.9842 19.3381C10.6742 17.3681 12.0442 15.5681 12.7942 15.3481C12.8442 15.3381 12.8942 15.3181 12.9342 15.3081C14.3842 14.9881 15.1642 16.4381 14.6642 18.3781Z" fill="#445F96"/>
<path d="M13.0443 17.3778C13.0443 17.3778 12.6243 15.2778 13.4443 15.4178C14.2643 15.5578 13.4443 17.2678 13.0443 17.3778Z" fill="#6383C4"/>
<path d="M13.0142 17.5781C13.0142 17.5781 14.5342 17.7181 14.4442 18.5581C14.3542 19.3981 13.4742 18.4381 13.0142 17.5781Z" fill="#6383C4"/>
<path d="M12.8642 18.0381C12.8642 18.0381 12.2242 18.9681 12.4242 19.3181C12.6242 19.6681 13.0742 19.6781 13.1242 19.2081C13.1742 18.7381 12.8742 18.0381 12.8742 18.0381H12.8642Z" fill="#6383C4"/>
<path d="M11.8542 16.6676C11.5942 16.7176 11.4442 17.0676 11.6542 17.4676C11.8642 17.8676 12.8742 17.7376 12.8742 17.7376C12.8742 17.7376 12.1242 16.6176 11.8642 16.6676H11.8542Z" fill="#6383C4"/>
<path d="M12.9443 18.3585C12.9443 18.3585 12.4043 18.2185 12.1543 17.8685C12.0543 17.7285 12.0043 17.5685 12.0543 17.3685C12.1543 16.9285 12.7043 16.7585 12.9043 16.7085C12.9543 16.6985 12.9743 16.6885 12.9743 16.6885C13.8643 17.6285 12.9443 18.3585 12.9443 18.3585Z" fill="#516BA1"/>
<path d="M12.1543 17.868C12.0543 17.728 12.0043 17.568 12.0543 17.368C12.1543 16.928 12.7043 16.758 12.9043 16.708C12.9243 17.538 12.4643 17.798 12.1643 17.878L12.1543 17.868Z" fill="#5975B0"/>
</svg>
