<svg width="99" height="76" viewBox="0 0 99 76" fill="none" xmlns="http://www.w3.org/2000/svg">
<path d="M39.17 59.8394C40.42 62.0994 41.85 64.1994 43.39 66.0694C46.06 69.3094 60.52 80.3493 76.9 74.1293C77.3 73.9793 77.69 73.8194 78.06 73.6594C78.22 73.5994 78.37 73.5294 78.53 73.4694C78.55 73.4694 78.56 73.4694 78.57 73.4594C78.91 73.3194 79.23 73.1794 79.55 73.0294C79.58 73.0194 79.61 73.0093 79.64 72.9893C80.05 72.8093 80.44 72.6194 80.84 72.4094C80.86 72.4094 80.89 72.3894 80.92 72.3694C81.25 72.1994 81.59 72.0293 81.91 71.8493C81.96 71.8293 82 71.8094 82.04 71.7794C82.07 71.7594 82.11 71.7394 82.15 71.7194C82.53 71.5094 82.9 71.2994 83.26 71.0694C84.57 70.2794 85.78 69.4294 86.88 68.5494C87.17 68.3194 87.45 68.0793 87.72 67.8493C87.72 67.8393 87.73 67.8394 87.74 67.8194C88.06 67.5394 88.38 67.2594 88.69 66.9594C89 66.6694 89.3 66.3794 89.59 66.0794C89.84 65.8194 90.09 65.5594 90.32 65.2894C90.39 65.2194 90.45 65.1394 90.51 65.0694C90.76 64.7994 91 64.5094 91.24 64.2194C91.5 63.9094 91.75 63.5894 91.99 63.2694C92.19 62.9994 92.39 62.7294 92.58 62.4594C92.88 62.0194 93.18 61.5694 93.45 61.1194C93.62 60.8494 93.78 60.5694 93.94 60.2994C93.96 60.2794 93.97 60.2594 93.98 60.2294C94.14 59.9394 94.3 59.6393 94.45 59.3493C94.67 58.9493 94.87 58.5494 95.06 58.1294C95.2 57.8294 95.34 57.5194 95.47 57.2094C95.61 56.8894 95.74 56.5794 95.85 56.2694C95.88 56.1994 95.91 56.1394 95.93 56.0694C96.05 55.7594 96.17 55.4494 96.28 55.1294C96.38 54.8594 96.47 54.5794 96.56 54.2894C96.64 54.0594 96.7 53.8293 96.77 53.5993C96.83 53.3993 96.89 53.1894 96.95 52.9794C97.55 50.7994 97.92 48.5893 98.14 46.4193C98.17 46.1693 98.19 45.9193 98.2 45.6693C98.23 45.3893 98.25 45.1294 98.26 44.8594C98.29 44.4594 98.3 44.0694 98.32 43.6794C98.35 42.8994 98.37 42.1193 98.36 41.3493C98.36 40.9593 98.36 40.5894 98.34 40.2094C98.33 39.6794 98.3 39.1594 98.28 38.6394C98.28 38.6394 98.28 38.6294 98.28 38.6194C98.28 38.0794 98.24 25.2994 90.16 16.0994C79.32 3.82935 50.93 -0.710648 36.49 24.7794C36.11 25.4594 35.76 26.1494 35.46 26.8594C34.86 28.2294 34.39 29.6694 34.04 31.1594C34.04 31.1594 34.04 31.1694 34.04 31.1794C31.9 40.3294 34.37 51.2294 39.17 59.8394Z" fill="#A5A5A5" fill-opacity="0.647059"/>
<path d="M52.86 22.2097C53.99 24.7097 57.19 26.8497 63.89 24.5597C67.32 23.3897 68.48 22.4097 69.36 21.7397C69.8 21.3997 70.17 21.1497 70.72 20.9897C71.64 20.7297 73.06 20.7297 76.17 21.0597C84.87 21.9997 92.35 25.5297 97.89 38.5697C97.89 38.5697 97.89 38.5597 97.89 38.5497C97.89 38.0097 97.85 25.2297 89.77 16.0297C89.77 16.0297 91 19.6597 87.22 19.3497C83.44 19.0297 68.7 9.10966 60.43 12.3897C57.1 13.7197 53.81 16.7697 52.86 19.4897C52.52 20.4597 52.48 21.3997 52.84 22.1897L52.86 22.2097Z" fill="#A5A5A5" fill-opacity="0.647059"/>
<path d="M38.8101 59.77C40.0601 62.03 41.4901 64.13 43.0301 66C45.7001 69.24 60.1601 80.28 76.5401 74.06C78.4001 73.35 80.1101 72.57 81.6701 71.71C95.4701 64.12 98.2701 51 97.9601 40.16C95.0701 33.41 88.8101 26.06 75.2801 26.97C63.2101 27.79 57.2901 38.81 52.0201 30.72C50.8201 28.87 50.4001 27.58 50.4701 26.69C50.5301 25.87 51.0201 25.39 51.7101 25.12C53.4901 24.43 56.5401 25.25 56.5401 25.25L55.0901 17.5C55.0901 17.5 44.6801 17.94 39.4801 23.43C38.2701 24.72 37.1801 26.28 36.3001 28.19C36.2401 28.32 36.1801 28.45 36.1201 28.58V28.6C33.4001 34.89 33.1001 44.72 38.8001 59.77H38.8101Z" fill="#A5A5A5" fill-opacity="0.647059"/>
<path d="M76.85 73.7196C78.71 73.0096 80.42 72.2296 81.98 71.3696C80.16 69.6496 76.66 67.7796 71.06 67.8396C46.89 68.0696 40.91 50.2596 43.46 36.7496C45.61 25.3496 51.92 20.4696 52.12 20.2496C52.12 20.2496 41.24 17.6096 36.92 34.2696C36.36 36.4196 35.42 53.7996 42.32 62.9996C50.89 74.4196 67.77 77.1696 76.84 73.7296L76.85 73.7196Z" fill="#A5A5A5" fill-opacity="0.647059"/>
<path d="M67.74 20.0596C67.74 20.0596 68.85 21.1596 69.35 21.7396C70.6 21.2396 73.06 20.7296 76.17 21.0596C84.6 21.9796 91.89 25.3096 97.37 37.3796C97.4 37.4596 97.44 37.5396 97.48 37.6096C97.62 37.9296 97.76 38.2396 97.9 38.5696C92.73 20.1096 76.09 19.4096 70 19.8096C68.59 19.9096 67.75 20.0596 67.75 20.0596H67.74Z" fill="#A5A5A5" fill-opacity="0.647059"/>
<path d="M52.86 22.21C53.35 23.3 54.22 24.31 55.6 24.92C55.62 24.94 55.64 24.95 55.67 24.95C55.69 24.97 55.7 24.97 55.7 24.97H55.71C56.3 25.23 56.97 25.41 57.75 25.49C57.9 25.51 58.05 25.52 58.22 25.53C58.39 25.54 58.57 25.54 58.76 25.54C58.87 25.54 58.99 25.54 59.1 25.54C60.45 25.51 62.04 25.22 63.89 24.58C65.41 24.06 66.47 23.58 67.28 23.15C68.3 22.61 68.87 22.14 69.36 21.77C69.73 21.01 69.93 20.37 70 19.84C70.04 19.55 70.03 19.29 69.99 19.06C69.65 17.02 67.43 16.12 63.97 15.61C58.78 14.84 54.65 17.21 52.87 19.53C52.53 20.5 52.49 21.44 52.85 22.23L52.86 22.21Z" fill="#A5A5A5" fill-opacity="0.647059"/>
<path opacity="0.46" d="M84.7801 15.1994C84.3001 16.8294 77.3401 14.3994 74.0801 11.0294C70.8201 7.65941 59.4801 7.56941 55.8501 11.5894C52.2201 15.5994 45.9601 18.1994 45.8401 17.0394C45.7201 15.8794 48.7601 9.47941 60.0201 7.61941C65.3701 6.73941 71.7301 7.43941 76.4701 9.21941C81.6901 11.1894 85.0301 14.3494 84.7801 15.1994Z" fill="#A5A5A5" fill-opacity="0.647059"/>
<path d="M55.61 24.91C55.61 24.91 55.65 24.94 55.66 24.94C55.68 24.96 55.69 24.96 55.69 24.96H55.7C55.78 25.01 56.43 25.37 57.74 25.48C57.89 25.5 58.04 25.51 58.21 25.52C58.38 25.53 58.56 25.53 58.75 25.53C58.86 25.53 58.98 25.53 59.09 25.53C60.32 25.47 61.92 25.21 63.89 24.54C64.91 24.2 66.03 23.73 67.27 23.14C67.27 23.14 66.89 21.71 65.6 20.66C64.35 19.62 62.22 18.95 58.73 20.35C52.35 22.89 55.03 24.62 55.61 24.92V24.91Z" fill="#A5A5A5" fill-opacity="0.647059"/>
<path d="M63.2401 25.4093C63.0601 25.5593 62.8801 25.6793 62.7101 25.7893C62.3901 25.8693 62.0801 25.9493 61.7801 26.0093C61.1401 26.1593 60.5501 26.2493 60.0001 26.3093C59.2001 26.0793 58.7501 25.5393 58.7501 25.5393C59.0301 24.7393 59.0901 23.5493 58.7501 22.5493C57.9801 20.2693 56.7201 17.5693 55.3401 14.9193C52.4201 9.29931 48.9601 3.87931 48.4101 3.01931C48.3801 2.97931 48.3601 2.93931 48.3501 2.92931C48.3501 2.90931 48.3301 2.89931 48.3301 2.89931C48.2801 2.85931 48.2201 2.80931 48.1801 2.74931C48.1201 2.67931 48.0701 2.60931 48.0301 2.52931C47.6901 1.92931 47.6601 0.979314 47.9101 0.589314C48.0301 0.419314 48.1901 0.369314 48.4201 0.499314C48.5901 0.589314 48.7701 0.779314 49.0001 1.10931C49.0901 1.25931 49.2001 1.41931 49.3001 1.62931C49.3001 1.64931 49.3201 1.66931 49.3301 1.68931C49.3701 1.76931 49.4201 1.85931 49.4601 1.94931C49.5101 2.03931 49.5601 2.12931 49.6001 2.21931C49.6301 2.26931 49.6501 2.32931 49.6901 2.38931C51.5901 6.29931 60.9901 21.7393 62.9001 24.8493C63.1201 25.1993 63.2301 25.3993 63.2301 25.3993L63.2401 25.4093Z" fill="#A5A5A5" fill-opacity="0.647059"/>
<path d="M63.24 25.4095C63.06 25.5595 62.88 25.6795 62.71 25.7895C62.39 25.8695 62.08 25.9495 61.78 26.0095C61.78 25.7695 61.75 25.4795 61.71 25.1895C61.63 24.5195 61.47 23.7795 61.15 23.1795C60.4 21.7795 52.03 7.51945 51.24 6.42945C50.64 5.61945 49.68 3.59945 49.25 2.66945C49.11 2.36945 49.03 2.17945 49.03 2.17945C49.09 1.95945 49.2 1.79945 49.34 1.68945C49.38 1.76945 49.43 1.85945 49.47 1.94945C49.52 2.03945 49.57 2.12945 49.61 2.21945C49.64 2.26945 49.66 2.32945 49.7 2.38945C51.6 6.29945 61 21.7395 62.91 24.8495C63.13 25.1995 63.24 25.3995 63.24 25.3995V25.4095Z" fill="#A5A5A5" fill-opacity="0.647059"/>
<path d="M49.84 2.19C49.84 2.19 49.84 2.23 49.84 2.25C49.81 2.3 49.75 2.37 49.67 2.44C49.14 2.77 48.63 2.96 48.4 3.03C48.36 3.05 48.33 3.06 48.31 3.06H48.27C48.27 3.06 48.24 3.06 48.23 3.06C48.23 3.06 48.06 2.99 48 2.87C47.95 2.76 47.89 2.66 47.82 2.53C47.65 2.19 47.42 1.73 47.18 1.26C47.12 1.15 47.08 1.04 47.05 0.96C47.03 0.89 47.01 0.83 47.01 0.77C46.99 0.66 46.99 0.56 47.01 0.49C47.01 0.49 47.01 0.47 47.03 0.46C47.03 0.46 47.03 0.42 47.03 0.41C47.03 0.37 47.06 0.34 47.09 0.31C47.13 0.26 47.18 0.21 47.24 0.17C47.3 0.13 47.38 0.1 47.46 0.08C47.53 0.06 47.6 0.04 47.68 0.03C47.7 0.03 47.73 0.03 47.75 0.03C47.85 0.01 47.96 0 48.06 0C48.06 0 48.15 0 48.2 0.02C48.25 0.02 48.29 0.04 48.33 0.06C48.37 0.08 48.41 0.1 48.45 0.13C48.48 0.13 48.51 0.16 48.53 0.18C48.58 0.21 48.63 0.25 48.68 0.3C48.82 0.42 48.95 0.58 49.08 0.75C49.26 0.98 49.41 1.23 49.54 1.46C49.6 1.56 49.65 1.66 49.7 1.75C49.72 1.79 49.74 1.82 49.75 1.85C49.77 1.89 49.79 1.92 49.8 1.96C49.8 1.98 49.82 1.99 49.82 2C49.85 2.06 49.85 2.11 49.85 2.2L49.84 2.19Z" fill="#A5A5A5" fill-opacity="0.647059"/>
<path d="M47.81 2.5396C47.93 2.6196 48.03 2.6296 48.05 2.5296C48.13 2.1396 47.71 1.7296 47.84 1.1096C47.96 0.489604 48.31 1.4996 48.88 1.2496C49.07 1.1696 49.11 0.979604 49.09 0.749604C48.96 0.579604 48.83 0.419604 48.69 0.289604C48.49 0.109604 48.28 -0.0103956 48.08 -0.000395594C47.54 0.0196044 47.15 0.139604 47.04 0.459604C46.99 0.589604 47 0.759604 47.07 0.969604C47.1 1.0596 47.14 1.1596 47.19 1.2696C47.42 1.7396 47.66 2.2096 47.83 2.5496L47.81 2.5396Z" fill="#A5A5A5" fill-opacity="0.647059"/>
<path d="M49.84 2.18978C49.84 2.18978 49.84 2.22978 49.84 2.24978C49.81 2.29978 49.75 2.36978 49.67 2.43978C49.14 2.76978 48.63 2.95978 48.4 3.02978C48.36 3.04978 48.33 3.05978 48.31 3.05978C48.29 3.05978 48.27 3.05978 48.27 3.05978H48.22C48.22 3.05978 48.05 2.98978 47.99 2.86978C47.99 2.86978 48.1 2.78978 48.17 2.75978C48.5 2.64978 48.04 1.94978 48.15 1.52978C48.27 1.10978 48.3 1.41978 48.72 1.73978C48.97 1.92978 49.32 1.67978 49.55 1.45978C49.61 1.55978 49.66 1.65978 49.71 1.74978C49.73 1.78978 49.75 1.81978 49.76 1.84978C49.78 1.87978 49.79 1.89978 49.8 1.91978C49.8 1.94978 49.83 1.97978 49.83 1.99978C49.86 2.05978 49.86 2.10978 49.86 2.19978L49.84 2.18978Z" fill="#A5A5A5" fill-opacity="0.647059"/>
<path d="M49.84 2.19C49.84 2.19 49.84 2.23 49.84 2.25C49.82 2.31 49.76 2.38 49.67 2.44C49.14 2.77 48.63 2.96 48.4 3.03C48.36 3.05 48.33 3.06 48.31 3.06C48.29 3.06 48.27 3.06 48.27 3.06C48.47 2.79 48.7 2.23 49.04 2.18C49.31 2.14 49.56 1.91 49.7 1.75C49.72 1.79 49.74 1.82 49.75 1.85C49.77 1.88 49.78 1.9 49.79 1.92C49.79 1.94 49.79 1.95 49.79 1.96C49.79 1.98 49.81 1.99 49.81 2C49.84 2.06 49.84 2.11 49.84 2.2V2.19Z" fill="#A5A5A5" fill-opacity="0.647059"/>
<path d="M47.05 0.969604L47.14 1.0396C47.36 1.2496 47.46 1.1196 47.68 0.849604C47.9 0.589604 47.87 0.559604 48.34 0.529604C48.55 0.509604 48.66 0.429604 48.67 0.289604C48.47 0.109604 48.26 -0.0103956 48.06 -0.000395594C47.52 0.0196044 47.13 0.139604 47.02 0.459604C46.97 0.589604 46.98 0.759604 47.05 0.969604Z" fill="#A5A5A5" fill-opacity="0.647059"/>
<path d="M47.02 0.46C47.31 0.71 47.19 0.64 47.45 0.56C47.72 0.48 47.96 0.58 48.08 0.25C48.1 0.18 48.1 0.09 48.06 0C47.52 0.02 47.13 0.14 47.02 0.46Z" fill="#A5A5A5" fill-opacity="0.647059"/>
<path d="M60.7 26.2092C60.6 26.0692 60.47 25.9492 60.28 25.8292C60.16 25.7492 60.06 25.6292 59.97 25.4692C59.36 24.3992 59.26 21.6392 58.45 20.0492C57.57 18.2792 55.48 15.1192 55.34 14.9092C56.72 17.5592 57.98 20.2592 58.75 22.5392C59.09 23.5492 59.03 24.7292 58.75 25.5292C58.75 25.5292 59.19 26.0592 59.99 26.2992L60.68 26.1992L60.7 26.2092Z" fill="#A5A5A5" fill-opacity="0.647059"/>
<path d="M71.37 41.6593C81.27 39.8093 88.48 33.0193 89.12 30.9693C89.6 29.4393 86.62 27.7893 83.61 26.6993C81.93 26.0893 80.24 25.6493 79.14 25.4993C74.52 24.8593 68.78 27.7793 63.42 28.4293C58.5 29.0293 53.99 29.0593 51.54 30.8193C50.23 31.7493 49.52 33.1693 49.63 35.4093C49.89 40.4293 62 43.4093 71.37 41.6393V41.6593Z" fill="#A5A5A5" fill-opacity="0.647059"/>
<path d="M69.96 36.9493C78.92 35.8393 83.16 28.1393 83.61 26.6993C81.93 26.0893 80.24 25.6493 79.14 25.4993C74.52 24.8593 68.78 27.7793 63.42 28.4293C58.5 29.0293 54.21 28.9093 51.76 30.6793C51.95 34.1893 61.01 38.0593 69.96 36.9493Z" fill="#A5A5A5" fill-opacity="0.647059"/>
<path d="M50.54 27.5193C50.54 27.5193 49.91 32.5093 56.26 31.1893C58.93 30.6393 65.16 27.6393 71.18 26.9793C79.46 26.0693 87.97 28.3293 91.43 31.2993C91.43 31.2993 83.94 21.5493 66.39 25.7993C48.84 30.0493 52.75 26.6393 50.54 27.5093V27.5193Z" fill="#A5A5A5" fill-opacity="0.647059"/>
<g style="mix-blend-mode:multiply" opacity="0.13">
<path d="M34.52 34.6001C35.03 35.8901 35.74 37.0201 36.59 37.6801C38.05 38.8201 39.94 38.6101 42.01 35.5601C42.75 34.4601 43.78 33.3201 44.93 32.2301C46.72 30.5201 48.8 28.9101 50.53 27.7001C50.55 27.6801 50.56 27.6801 50.58 27.6701C50.73 27.5701 50.87 27.4701 51 27.3801C51.56 27.0001 52.08 26.6601 52.52 26.3801C53.67 25.6601 54.66 25.2801 55.49 25.1101C55.56 25.0901 55.63 25.0701 55.7 25.0601C55.76 25.0501 55.8 25.0401 55.85 25.0401H55.86C55.86 25.0401 55.88 25.0301 55.88 25.0401C55.88 25.0401 56.42 25.4101 56.61 25.4201C58.28 25.5301 58.74 25.5401 58.74 25.5401C58.74 25.5401 58.72 25.4401 58.69 25.2601C58.69 25.2201 58.68 25.1801 58.67 25.1301C58.51 24.3601 57.99 22.6501 56.49 21.3901C56.26 21.1901 56 21.0101 55.71 20.8401C54.94 20.3801 53.97 20.0301 52.75 19.9001C49.73 19.5901 45.2 20.6501 38.41 24.6901C37.36 25.3201 36.26 26.0201 35.09 26.7901C34.49 28.1601 34.02 29.6001 33.67 31.0901C33.67 31.0901 33.67 31.1001 33.67 31.1101C33.78 32.2601 34.07 33.4901 34.51 34.6001H34.52Z" fill="#A5A5A5" fill-opacity="0.647059"/>
</g>
<path d="M97.24 37.0991C95.73 34.0791 91.66 27.2492 84.48 25.1292C75.17 22.3692 72.05 22.2392 65.88 24.7292C64.75 25.1792 63.69 25.5292 62.71 25.7992C62.39 25.8792 62.08 25.9592 61.78 26.0192C61.14 26.1692 60.55 26.2592 60 26.3192C58.35 26.5192 57.64 26.1992 56.81 25.9192C56.25 25.7292 55.9 25.3592 55.86 25.0492C55.89 25.0492 56.44 25.3792 57.75 25.4992C57.9 25.5192 58.05 25.5292 58.22 25.5292C58.4 25.5492 58.58 25.5492 58.76 25.5492C58.87 25.5492 58.98 25.5492 59.1 25.5492C59.89 25.5292 60.76 25.4192 61.72 25.2092C62.1 25.1192 62.5 25.0092 62.91 24.8892C63.22 24.7992 63.56 24.6992 63.89 24.5892C65.41 24.0792 66.47 23.5992 67.27 23.1592C68.29 22.6192 68.86 22.1492 69.35 21.7792C70.59 21.2792 73.06 20.7592 76.17 21.0992C84.53 22.0092 91.76 25.2992 97.23 37.1292L97.24 37.0991Z" fill="#A5A5A5" fill-opacity="0.647059"/>
<path d="M48.44 7.01977C48.44 7.01977 29.88 15.1898 30.73 28.3498C31.58 41.5098 28.47 42.4398 28.47 42.4398C28.47 42.4398 48.92 36.8798 51.87 22.1398C53.41 14.4498 48.44 7.00977 48.44 7.00977V7.01977Z" fill="#A5A5A5" fill-opacity="0.647059"/>
<path d="M48.07 8.5991C47.92 8.4291 34.27 17.2591 33.21 25.2191C32.15 33.1791 33.53 37.3791 32.34 39.3891C32.34 39.3891 43.16 34.0091 46.2 30.1691C49.24 26.3291 52.4 13.4891 48.07 8.5991Z" fill="#A5A5A5" fill-opacity="0.647059"/>
<path d="M47.53 11.4294C47.71 10.6794 48.55 8.81941 48.68 7.01941C48.81 5.21941 48.22 3.61941 48.34 2.89941C48.14 3.58941 48.46 5.32941 48.27 7.01941C48.07 8.80941 47.35 10.5394 47.11 11.2694C46.13 10.9494 44.93 10.9994 43.46 11.5694C40.76 12.5594 38.4 14.3294 36.35 16.2894C37.88 15.1794 39.47 14.1594 41.12 13.2994C42.92 12.4594 44.97 11.4694 46.87 11.9794C46.13 14.1894 45.33 16.3794 44.46 18.5394C39.02 18.8294 35.57 20.7394 31.81 24.7294C35.55 21.2794 39.01 19.5294 44.03 19.5594C42.99 22.0694 41.85 24.5394 40.58 26.9394C36.98 27.4194 33.08 28.9194 31.49 32.3894C33.15 29.2594 36.8 27.9994 40.17 27.6894C39.11 29.6394 37.97 31.5494 36.74 33.3894C34.61 34.6494 32.5 36.0794 31.12 38.1494C32.42 36.4494 34.26 35.2794 36.13 34.2794C34.6 36.4794 32.94 38.5994 31.12 40.5994C33.36 38.6494 35.34 36.4594 37.11 34.1194C37.32 34.8394 37.44 35.6094 37.42 36.3594C37.4 37.3294 37.08 38.3094 36.34 38.9794C36.73 38.6694 37.05 38.2794 37.28 37.8294C37.88 36.5094 37.82 35.0094 37.49 33.6094C38.78 31.8494 39.95 29.9994 41.01 28.0894C41.5 29.0194 41.89 30.0194 42.13 31.0394C42.42 32.3194 42.44 33.6694 41.97 34.9094C42.87 33.0694 42.64 30.8994 42.05 28.9994C41.87 28.4494 41.68 27.8894 41.42 27.3594C42.69 24.9794 43.8 22.5094 44.77 19.9794C46.88 22.5194 48.2 25.8794 47.79 29.2094C48.57 25.5994 47.35 21.8294 45.17 18.8994C45.99 16.6794 46.7 14.4194 47.33 12.1594C47.38 12.1794 47.44 12.1994 47.49 12.2194C48.63 12.9094 49.22 14.2094 49.72 15.4394C50.37 17.1794 50.84 19.0194 51.08 20.8794C51.1 17.4494 50.36 12.7694 47.51 11.4494L47.53 11.4294Z" fill="#A5A5A5" fill-opacity="0.647059"/>
<path d="M48.68 2.40941C48.68 2.40941 44.29 2.88941 43.69 4.98941C43.09 7.08941 44.58 5.55941 44.58 5.55941C44.58 5.55941 44.14 3.83941 48.68 2.39941V2.40941Z" fill="#A5A5A5" fill-opacity="0.647059"/>
<path d="M0 28.3892C0 28.3892 0.07 28.3792 0.11 28.3592C1.2 28.0692 10.15 25.6192 13.52 20.3092C17.1 14.6492 27.79 6.20922 39.95 3.63922C43.73 2.83922 43.97 4.80922 43.99 5.04922C43.99 5.04922 43.99 5.06922 43.99 5.07922C43.99 5.07922 47.55 7.46922 47.6 10.1092C47.66 12.7492 40.17 25.5392 24.98 29.7292C9.8 33.9092 1.7 29.9092 0 28.3892Z" fill="#A5A5A5" fill-opacity="0.647059"/>
<path d="M0 28.3898C0.87 28.6498 2.26 29.2598 4.22 29.4298C4.41 29.4498 4.61 29.4598 4.81 29.4698C5.14 29.4798 5.47 29.4798 5.83 29.4698C7.42 29.3998 9.29 29.0198 11.45 28.0398C14.46 26.6998 18.03 24.2198 22.2 19.8698C29.19 12.5798 35.02 12.1098 40.83 8.46984C41.46 8.07984 42.22 7.26984 42.83 6.54984C43.49 5.76984 43.99 5.08984 43.99 5.08984C43.99 5.08984 45.24 5.92984 46.28 7.16984C46.98 8.01984 47.58 9.03984 47.6 10.1198C47.66 12.7598 40.17 25.5498 24.98 29.7398C9.8 33.9198 1.7 29.9198 0 28.3998L0 28.3898Z" fill="#A5A5A5" fill-opacity="0.647059"/>
<path opacity="0.48" d="M11.46 28.0291C14.47 26.6891 18.04 24.2091 22.21 19.8591C29.2 12.5691 35.03 12.0991 40.84 8.45906C41.47 8.06906 42.23 7.25906 42.84 6.53906C43.26 8.42906 43.17 12.6891 35.75 16.2591C25.9 21.0091 25.4 27.0391 21.19 27.1891C17.29 27.3291 13.21 29.5291 11.46 28.0191V28.0291Z" fill="#A5A5A5" fill-opacity="0.647059"/>
<path d="M0 28.3892C0.87 28.6492 5.12 29.9992 5.67 30.0792C7.81 30.3592 12.96 30.8992 16.77 30.5492C21.58 30.0992 28.87 26.8392 31.18 24.5992C33.48 22.3692 37.76 17.7692 43.22 14.1592C46.71 11.8592 46.73 8.95918 46.28 7.15918C46.98 8.00918 47.58 9.02918 47.6 10.1092C47.66 12.7492 40.17 25.5392 24.98 29.7292C9.8 33.9092 1.7 29.9092 0 28.3892Z" fill="#A5A5A5" fill-opacity="0.647059"/>
<path d="M0.109985 28.3592C1.19999 28.0692 10.15 25.6192 13.52 20.3092C17.1 14.6492 27.79 6.20922 39.95 3.63922C43.73 2.83922 43.97 4.80922 43.99 5.04922C43.99 5.04922 43.99 5.06922 43.99 5.07922C43.99 5.07922 43.54 3.67922 39.53 4.45922C35.52 5.24922 24.69 8.31922 17.42 16.5492C5.79998 29.7292 9.51999 26.4492 0.109985 28.3592Z" fill="#A5A5A5" fill-opacity="0.647059"/>
<path d="M18.33 24.1391C18.5 26.3091 18.48 29.0691 16.48 30.3791C18.58 29.0791 18.64 26.1991 18.52 23.9791C19.89 22.8491 21.14 21.6291 22.22 20.3891C23.07 19.4191 23.89 18.5891 24.71 17.8591C25.15 21.4291 25.75 25.5491 23.72 28.7291C25.84 25.5391 25.27 21.3291 24.89 17.6991C27.5 15.3991 30.04 14.1491 32.94 12.8091C33.56 16.8991 33.98 21.8191 31.09 25.1591C34.06 21.8391 33.69 16.8591 33.13 12.7191C34.69 11.9991 36.36 11.2491 38.21 10.2991C38.63 10.0891 39.01 9.8791 39.37 9.6691C40.6 13.2491 40.35 17.5991 37.68 20.4691C40.44 17.6091 40.75 13.2091 39.55 9.5691C44.63 6.6591 44.01 5.0791 44.01 5.0791C44.01 5.0791 42.15 7.6491 40.85 8.4591C40.37 8.7591 39.89 9.0291 39.41 9.2991C37.13 6.9091 33.42 6.9291 30.46 7.8091C33.38 7.0091 37.04 7.0391 39.23 9.3891C37.13 10.5191 35.01 11.3691 32.82 12.3891C28.93 11.1491 24.62 11.9291 21.1 13.8691C24.56 12.0391 28.77 11.3191 32.55 12.5191C30.08 13.6791 27.52 15.0891 24.78 17.4291C21.19 17.1491 17.45 17.8791 14.47 19.9491C17.41 17.9891 21.09 17.3091 24.58 17.6091C23.81 18.2791 23.02 19.0191 22.22 19.8491C20.88 21.2391 19.61 22.4391 18.4 23.4791C15.41 22.8691 12.22 23.2691 9.54003 24.7291C12.18 23.3691 15.31 23.0191 18.2 23.6491C12.99 28.0291 8.90003 29.3291 5.86003 29.4591C5.50003 29.4791 5.17003 29.4791 4.84003 29.4591C3.20003 29.4591 0.890029 28.6391 0.0300293 28.3891C5.98003 31.3291 13.05 28.4391 18.36 24.1391H18.33Z" fill="#A5A5A5" fill-opacity="0.647059"/>
</svg>
