<svg width="66" height="66" viewBox="0 0 66 66" fill="none" xmlns="http://www.w3.org/2000/svg">
<path d="M56.3736 59.7752C53.5043 61.8547 50.635 63.0044 48.7854 63.5143C48.0256 63.7242 47.4358 63.8342 47.0759 63.8442C47.0759 63.8442 43.2468 64.9939 39.6976 64.1441C39.2277 64.0342 38.7679 63.8942 38.328 63.7042C38.328 63.7042 32.7293 67.6233 26.7108 63.9142C26.7108 63.9142 26.7108 63.9142 26.6908 63.9142C26.4308 63.9642 22.9317 64.724 19.7524 63.6743C19.4425 63.5743 18.7027 63.4343 17.7129 63.0644C17.443 63.1144 17.0531 63.1744 16.5932 63.1944C14.6837 63.2843 11.3045 62.8145 7.66537 59.3553C7.29545 59.0054 6.92554 58.6255 6.56563 58.2056C6.46566 58.0856 6.35568 57.9756 6.25571 57.8557C5.8858 57.4158 5.50589 56.9359 5.14597 56.416C3.81629 54.5565 2.60659 52.247 1.67681 49.5177C0.35713 45.5986 -0.342701 40.8298 0.167176 35.2811C1.94675 15.9658 14.7736 17.2155 17.2131 17.6354C17.423 17.6754 17.563 17.7054 17.593 17.7154H17.603C17.603 17.7154 19.3525 15.6559 22.7117 15.6559C23.2716 15.6559 23.8815 15.7158 24.5313 15.8458C24.9712 15.4759 25.921 14.8261 27.2206 14.5261C28.5003 14.2262 30.4099 14.3462 31.4196 15.126C31.4196 15.126 32.6993 14.3962 35.1687 14.3262C35.3587 14.3262 35.5386 14.3262 35.7486 14.3262C36.3284 14.3262 36.9583 14.3762 37.6481 14.4761C37.6781 14.4761 37.6981 14.4761 37.7281 14.4861C38.5379 14.6061 39.4177 14.7961 40.3775 15.076C40.3775 15.076 41.6772 14.5261 43.4967 14.5261C45.3163 14.5261 47.6057 15.066 49.6752 17.2255C49.7052 17.2255 49.9951 17.2255 50.495 17.2755C53.6243 17.6154 64.7216 20.0748 65.9213 37.7305C66.7011 49.2677 61.5524 56.0361 56.3836 59.7652L56.3736 59.7752Z" fill="#FF7303"/>
<path d="M40.3775 15.077C40.3775 15.077 40.3575 15.077 40.3075 15.087C40.0875 15.117 39.3377 15.2869 38.388 15.9767C38.308 16.0267 38.218 16.0967 38.128 16.1767C37.998 16.2767 37.8581 16.3966 37.7081 16.5366C37.6381 16.6066 37.5582 16.6766 37.4882 16.7566C37.3882 16.8565 37.2782 16.9665 37.1682 17.0865C35.4687 18.946 35.6686 20.9555 35.6686 20.9555C34.4989 20.5257 33.3692 20.4157 32.3894 20.5856C31.9895 20.6556 31.5796 20.7356 31.1497 20.8556C31.1497 20.8556 30.8698 20.7056 29.77 18.886C29.73 18.8061 29.6801 18.7361 29.6201 18.6661C29.3101 18.2562 28.8503 17.8963 28.3304 17.5864C28.2104 17.5164 28.0904 17.4464 27.9705 17.3864C26.3009 16.5066 24.2214 16.1067 24.2214 16.1067C24.2214 16.1067 24.3214 16.0067 24.5213 15.8468C24.9612 15.4769 25.911 14.827 27.2107 14.5271C28.4903 14.2272 30.3999 14.3471 31.4096 15.127C31.4096 15.127 32.6893 14.3971 35.1587 14.3271C35.3487 14.3271 35.5286 14.3271 35.7386 14.3271C36.3185 14.3271 36.9483 14.3771 37.6381 14.4771C37.6681 14.4771 37.6881 14.4771 37.7181 14.4871C38.5279 14.6071 39.4077 14.797 40.3675 15.077H40.3775Z" fill="#C75900"/>
<path d="M31.1597 20.8561C30.2999 21.076 29.3901 21.396 28.4704 21.8858C27.2506 21.086 25.4011 20.7261 25.4011 20.7261C22.5318 18.4867 17.613 17.7168 17.613 17.7168C17.613 17.7168 19.9724 14.8975 24.5413 15.8373C25.971 16.1272 28.6303 16.937 29.79 18.8766C30.8898 20.6961 31.1397 20.8361 31.1697 20.8461L31.1597 20.8561Z" fill="#D66000"/>
<path d="M49.6653 17.2266C49.6653 17.2266 43.9266 16.5068 39.6677 21.7955C39.6677 21.7955 38.458 21.9854 38.168 22.3853C37.3382 21.7355 36.4984 21.2656 35.6686 20.9557C35.6686 20.9557 35.4687 18.9562 37.1683 17.0866C38.8779 15.2171 40.3675 15.0771 40.3675 15.0771C40.3675 15.0771 45.5063 12.8876 49.6553 17.2166L49.6653 17.2266Z" fill="#D66000"/>
<g style="mix-blend-mode:multiply" opacity="0.37">
<path d="M42.187 21.5656L39.4377 21.8256L37.6781 21.9955L27.4306 22.9853L21.432 20.7458C21.432 20.7458 21.742 18.9663 22.7717 19.2062C24.2714 19.5561 26.4808 19.5761 28.3504 17.5766C28.3904 17.5366 28.4203 17.4966 28.4603 17.4566L35.7486 14.3174C36.3284 14.3174 36.9583 14.3674 37.6481 14.4673C37.6781 14.4673 37.6981 14.4673 37.7281 14.4773C37.5082 14.9772 37.2382 15.867 37.7281 16.5268C37.7281 16.5268 37.9281 18.0865 40.8274 18.9463C41.2073 19.0562 42.157 18.9463 43.1668 18.7563C44.4665 18.5064 45.8561 18.1265 46.236 17.9165C46.9059 17.5266 42.187 21.5556 42.187 21.5556V21.5656Z" fill="#D179CE"/>
</g>
<path d="M46.256 6.59841C46.256 6.59841 46.0361 7.20826 45.6162 7.8481C45.1763 8.52794 44.4965 9.23777 43.6267 9.25776C43.0468 9.26776 42.6369 9.05781 42.287 8.77788C41.6172 8.24801 41.1873 7.47819 40.3375 7.61816C39.0478 7.82811 35.9285 11.5672 37.0083 15.8762C37.4582 17.6557 38.118 18.9354 38.7279 19.8152C38.7279 19.8152 38.7279 19.8152 38.7279 19.8252C39.5977 21.0649 40.3775 21.5148 40.3775 21.5148C40.3775 21.5148 39.3177 22.8045 38.168 22.8245C37.958 22.8245 37.5182 22.8245 36.9383 22.8245C36.1785 22.8245 35.1687 22.8045 34.089 22.7545C32.3794 22.6745 30.4599 22.5346 29.0102 22.2346C28.8203 22.1946 28.6303 22.1546 28.4503 22.1047C27.8205 21.9447 27.3306 21.7447 27.0207 21.5048C27.0207 21.5048 27.0407 21.4848 27.0807 21.4348C27.3906 21.0549 28.8602 19.2254 29.3901 17.2258C29.99 14.9864 30.1999 8.01806 35.4487 4.9688C40.6974 1.92953 41.6172 0 41.6172 0C41.6172 0 41.6871 0.0699831 41.8171 0.189954C42.457 0.779812 44.4865 2.58937 45.5662 2.9093C46.8559 3.28921 46.266 6.57841 46.266 6.57841L46.256 6.59841Z" fill="#818A00"/>
<g style="mix-blend-mode:multiply" opacity="0.37">
<path d="M45.9061 6.5986L45.6162 7.8483C45.1763 8.52814 44.4965 9.23796 43.6267 9.25796C43.1868 9.26796 42.8469 9.13799 42.547 8.95803C42.457 8.90804 42.367 8.83806 42.287 8.76808C41.6172 8.23821 41.1873 7.46839 40.3375 7.60836C39.7376 7.70833 38.7379 8.56813 37.9581 9.88781C37.9581 9.89781 37.9481 9.9078 37.9381 9.9178C37.0483 11.4374 36.4284 13.5769 37.0083 15.8664C38.098 20.1753 40.3775 21.515 40.3775 21.515C40.3775 21.515 39.3177 22.8047 38.168 22.8247C37.6981 22.8247 36.0185 22.8447 34.079 22.7647L32.0695 21.375C32.0695 21.375 35.2887 21.1651 34.209 17.6359C33.1192 14.1068 35.9885 9.39793 36.9383 7.31843C37.8881 5.24893 40.6574 4.36914 40.6574 4.36914L41.3572 4.66907L45.9061 6.5986Z" fill="#79ABD1"/>
</g>
<g style="mix-blend-mode:multiply" opacity="0.37">
<path d="M31.7595 14.0869C31.8595 17.4861 32.1794 19.4056 30.9198 20.9453C30.2799 21.7251 29.5601 22.085 29.0102 22.235C28.8203 22.195 28.6303 22.155 28.4503 22.105C28.9202 21.7151 29.73 20.8853 30.08 19.5356C30.6098 17.5761 30.7298 13.647 31.5896 11.5875C32.5394 9.31808 34.039 7.65849 34.3189 7.91842C34.5989 8.17836 31.6696 10.7877 31.7695 14.0769L31.7595 14.0869Z" fill="#79ABD1"/>
</g>
<g style="mix-blend-mode:multiply" opacity="0.37">
<path d="M32.8393 13.327C32.5594 16.5262 33.1392 19.4655 32.9293 19.3955C32.7193 19.3255 32.2295 13.377 33.0892 11.3175C34.039 9.04802 36.7584 5.69883 37.0283 5.94877C37.2982 6.19871 33.1092 10.0478 32.8293 13.327H32.8393Z" fill="#79ABD1"/>
</g>
<g style="mix-blend-mode:multiply" opacity="0.37">
<path d="M41.7972 0.969727C41.7972 0.969727 40.5874 3.08921 39.3078 3.27917C37.7781 3.49912 35.0488 5.82855 35.1288 6.0585C35.2087 6.28844 37.9381 4.33891 39.4077 4.05898C40.8774 3.77905 42.227 1.9195 42.227 1.9195L41.7972 0.969727Z" fill="#79ABD1"/>
</g>
<g style="mix-blend-mode:multiply" opacity="0.37">
<path d="M43.2268 8.81807L42.5469 8.95803C42.457 8.90804 42.367 8.83806 42.287 8.76808C41.6172 8.23821 41.1873 7.46839 40.3375 7.60836C39.7376 7.70833 38.7379 8.56813 37.958 9.88781C38.118 9.52789 39.0378 7.60836 39.6776 6.97851C40.3875 6.27868 40.6674 4.36914 40.6674 4.36914C40.9273 4.40913 41.1573 4.5191 41.3672 4.66907C42.8469 5.70882 43.2368 8.81807 43.2368 8.81807H43.2268Z" fill="#79ABD1"/>
</g>
<g style="mix-blend-mode:multiply" opacity="0.37">
<path d="M40.3775 21.5246C40.3775 21.5246 39.3177 22.8142 38.168 22.8342C37.958 22.8342 37.5181 22.8342 36.9383 22.8342L35.0587 20.7547C35.0587 20.7547 36.4384 21.5445 37.8681 21.4546C39.2077 21.3646 38.7878 19.9849 38.7379 19.835C39.6076 21.0747 40.3875 21.5246 40.3875 21.5246H40.3775Z" fill="#79ABD1"/>
</g>
<g style="mix-blend-mode:multiply" opacity="0.37">
<path d="M27.9305 21.5748C27.9305 21.5748 30.3499 21.0149 31.3796 20.805C32.4094 20.595 31.7995 23.0044 31.7995 23.0044L27.7205 22.3846L27.9305 21.5748Z" fill="#79ABD1"/>
</g>
<g style="mix-blend-mode:soft-light">
<path d="M41.7971 0.21023L41.6372 0.450172C41.6372 0.450172 40.2675 2.36971 39.1878 2.8096C38.108 3.2495 35.1587 5.68891 34.7088 6.05882C34.3489 6.35875 34.209 6.82863 34.129 6.99859C33.7791 7.68842 33.4092 7.68842 32.9893 7.93836C31.3796 8.89813 30.8698 11.8174 30.6798 12.9671C30.4899 14.1069 30.01 18.7058 29.3301 19.3156C28.6603 19.9255 27.9305 21.5851 27.9305 21.5851L27.0707 21.4651C27.3806 21.0852 28.8502 19.2556 29.3801 17.2561C29.98 15.0167 30.1899 8.04834 35.4387 4.99907C40.6874 1.95981 41.6072 0.0302734 41.6072 0.0302734C41.6072 0.0302734 41.6772 0.100257 41.8071 0.220228L41.7971 0.21023Z" fill="#BCC900"/>
</g>
<path d="M46.256 6.59794C46.256 6.59794 45.3063 9.22731 43.6267 9.2573C43.0468 9.2673 42.6369 9.05735 42.287 8.77742C42.177 8.65745 42.107 8.54747 42.0471 8.4475C41.8371 8.0276 42.0471 7.75766 42.0571 7.26778C42.0571 7.10782 42.0571 6.92786 41.9871 6.70792C41.9071 6.39799 41.7471 6.06807 41.5772 5.75815C41.1673 5.01832 40.6474 4.37848 40.6474 4.37848C40.6474 4.37848 41.1373 3.58867 41.4472 2.97882C41.4972 2.86884 41.5472 2.76887 41.5872 2.66889C41.5972 2.6489 41.6072 2.6289 41.6072 2.59891C41.8171 1.92907 41.5872 0.0195312 41.5872 0.0195312C41.5872 0.0195312 41.8171 0.239478 42.177 0.559401C42.477 0.819338 42.8469 1.14926 43.2568 1.47918C43.4267 1.61915 43.5967 1.74911 43.7766 1.88908C44.2065 2.209 44.6464 2.50893 45.0263 2.70888C45.2163 2.80886 45.3863 2.88884 45.5462 2.92883C46.8359 3.30874 46.246 6.59794 46.246 6.59794H46.256Z" fill="#A4B000"/>
<path d="M44.6265 7.91891C44.6265 7.75895 44.4365 6.53925 44.3265 6.44927C44.2066 6.35929 42.8769 5.28955 43.2268 4.6497C43.5767 4.00986 43.1368 2.53022 43.1368 2.53022C43.3068 2.14031 43.3068 1.7604 43.2668 1.48047C43.4367 1.62043 43.6067 1.7504 43.7867 1.89037C43.8266 2.07033 43.8566 2.23029 43.8566 2.35026C43.8566 2.76016 44.4365 3.69993 44.4365 3.69993V5.23956C44.4365 5.23956 45.5362 5.21957 45.7262 5.94939C45.9161 6.66922 44.6265 8.08887 44.6265 7.92891V7.91891Z" fill="#98A300"/>
<path d="M43.9472 8.8786C43.9472 8.8786 43.1072 9.0886 42.8772 8.4386C42.6372 7.7886 42.0572 7.2686 42.0572 7.2686C42.0572 7.1086 42.0572 6.9286 41.9872 6.7086C41.9072 6.3986 41.7472 6.0686 41.5772 5.7586C41.7972 5.7386 42.2072 5.7486 42.4272 6.0086C42.4272 6.0086 43.3172 6.8986 43.3172 7.7686C43.3172 8.6386 43.9472 8.8886 43.9472 8.8886V8.8786Z" fill="#98A300"/>
<path d="M42.2373 5.25906C42.2373 5.25906 41.8173 5.08906 41.5373 4.79906C41.3773 4.63906 41.2573 4.22906 41.2573 4.22906L41.6673 3.55906L41.4673 2.96906C41.5173 2.85906 41.5673 2.75906 41.6073 2.65906C41.6173 2.63906 41.6273 2.61906 41.6273 2.58906L41.8373 2.28906C41.8373 2.28906 42.2873 2.59906 42.0773 3.43906C41.8673 4.27906 42.1573 5.18906 42.2373 5.24906V5.25906Z" fill="#98A300"/>
<path d="M46.2563 6.59922C46.2963 5.94922 46.2963 5.28922 46.1863 4.56922C46.1763 4.47922 46.2163 4.01922 46.1863 3.93922C46.1263 3.73922 45.8663 3.27922 45.8663 3.27922C45.8663 3.27922 45.2663 2.92922 45.0263 2.69922C45.2163 2.79922 45.3863 2.87922 45.5463 2.91922C46.8363 3.29922 46.2463 6.58922 46.2463 6.58922L46.2563 6.59922Z" fill="#BCC900"/>
<path d="M42.0271 7.92762C42.0071 8.09758 41.9571 8.12757 42.0471 8.4375C41.8371 8.0276 42.0471 7.75766 42.0571 7.26778C42.0571 7.10782 42.0571 6.92786 41.9871 6.70792C41.9071 6.39799 41.7471 6.06807 41.5772 5.75815C41.1673 5.01832 40.6474 4.37848 40.6474 4.37848C40.6474 4.37848 41.3272 3.27874 41.5872 2.66889C41.8371 2.05904 41.5872 0.0195312 41.5872 0.0195312C41.5872 0.0195312 41.8171 0.239478 42.177 0.559401L41.6971 0.269471C41.6971 0.269471 41.9871 2.02905 41.7671 2.46894C41.5472 2.90883 40.7974 4.37848 40.7974 4.37848C40.7974 4.37848 41.8971 5.86812 42.0371 6.53796C42.137 7.02784 42.0671 7.47773 42.0171 7.92762H42.0271Z" fill="#BCC900"/>
<path d="M25.4011 20.7152C25.4011 20.7152 24.3013 20.5552 22.6517 20.6152C22.5717 20.6152 22.4918 20.6152 22.4018 20.6252C22.2418 20.6352 22.0719 20.6452 21.9019 20.6552C21.8119 20.6552 21.712 20.6652 21.612 20.6752C19.7224 20.8551 17.383 21.345 15.1036 22.5747C10.8446 24.8742 6.88554 29.743 6.85554 39.9105C6.84554 43.4497 7.22545 46.4689 7.8653 49.0383C9.14499 54.2671 11.4744 57.6263 13.5939 59.7357C13.5939 59.7357 13.5939 59.7357 13.6039 59.7357C15.3135 61.4353 16.9031 62.3151 17.7029 62.695C18.0528 62.855 18.2428 62.925 18.2428 62.925C18.2428 62.925 18.0628 62.995 17.7229 63.0649C17.453 63.1149 17.0631 63.1749 16.6032 63.1949C14.6937 63.2849 11.3145 62.815 7.67534 59.3558C7.30543 59.0059 6.93552 58.626 6.57561 58.2061C6.47563 58.0861 6.36566 57.9762 6.26569 57.8562C5.89577 57.4163 5.51587 56.9364 5.15595 56.4165C3.82627 54.557 2.61657 52.2476 1.68679 49.5182C0.36711 45.5992 -0.332721 40.8303 0.177156 35.2817C1.94673 15.9663 14.7736 17.216 17.213 17.6359C17.423 17.6759 17.563 17.7059 17.5929 17.7159H17.6029C17.7229 17.7359 17.8229 17.7559 17.9329 17.7859C18.0128 17.8059 18.1228 17.8159 18.2328 17.8359C18.8526 17.9658 19.8624 18.1958 20.9921 18.5557C21.0121 18.5657 21.0221 18.5757 21.0321 18.5757C22.4918 19.0456 24.1414 19.7454 25.3911 20.7252L25.4011 20.7152Z" fill="#E66700"/>
<g style="mix-blend-mode:multiply" opacity="0.37">
<path d="M17.7129 63.0656C17.443 63.1156 17.0531 63.1756 16.5932 63.1956C15.8134 62.6657 14.8036 61.9359 13.4839 60.9661C4.66608 54.4477 4.95601 38.5915 6.95552 31.0333C8.94504 23.4752 15.0936 22.5254 15.0936 22.5254V22.5754L17.7029 62.6957L17.7229 63.0656H17.7129Z" fill="#D6B6D5"/>
</g>
<path d="M17.213 17.6358C17.213 17.6358 10.8246 18.2457 7.23545 21.6749C4.36614 24.4142 -0.432697 31.5925 1.68679 49.5281C0.36711 45.6091 -0.332721 40.8402 0.177156 35.2916C1.94673 15.9662 14.7736 17.216 17.213 17.6358Z" fill="#FF7D14"/>
<path d="M18.9626 40.2912C18.7127 42.1707 18.6327 43.9403 18.6827 45.5899C18.6827 45.8098 18.7027 46.0298 18.7027 46.2397C18.7227 46.5396 18.7427 46.8396 18.7627 47.1395C18.7827 47.3894 18.8127 47.6294 18.8327 47.8693C18.8327 47.8893 18.8427 47.9093 18.8427 47.9293C18.8727 48.1692 18.8927 48.4092 18.9326 48.6491C19.0326 49.4189 19.1726 50.1588 19.3225 50.8686C19.3625 51.0686 19.4125 51.2585 19.4625 51.4585C19.5325 51.7184 19.5925 51.9883 19.6625 52.2383C19.7225 52.4582 19.7824 52.6782 19.8524 52.8881C19.9024 53.0581 19.9524 53.228 20.0124 53.398C20.0924 53.6479 20.1723 53.8979 20.2623 54.1378C20.3323 54.3378 20.4023 54.5377 20.4823 54.7377C20.9222 55.8874 21.422 56.9171 21.9319 57.8469C21.9919 57.9669 22.0619 58.0669 22.1219 58.1768C22.1819 58.2868 22.2518 58.3968 22.3118 58.4968C23.2616 60.1064 24.2414 61.3561 25.0312 62.2459C25.0912 62.3158 25.1511 62.3858 25.2111 62.4458C25.741 63.0357 26.1809 63.4356 26.4408 63.6655C26.4908 63.7155 26.5408 63.7555 26.5708 63.7855C26.6608 63.8655 26.7108 63.9055 26.7108 63.9055C26.7108 63.9055 26.7108 63.9055 26.6908 63.9055C26.4308 63.9554 22.9317 64.7153 19.7524 63.6655C19.4425 63.5655 18.7027 63.4256 17.7129 63.0557C16.3933 62.5558 14.6337 61.626 12.9241 59.7964C10.9246 57.677 9.06502 54.2678 7.67536 49.019C6.72559 45.4099 6.56563 43.4404 6.62561 39.8812C6.91554 24.245 16.1033 21.1358 21.602 20.6659C21.702 20.6559 21.8019 20.6459 21.8919 20.6459C22.0619 20.6359 22.2318 20.6259 22.3918 20.6159C22.4818 20.6159 22.5618 20.6159 22.6417 20.6059C24.3013 20.5559 25.3911 20.7059 25.3911 20.7059C25.3911 20.7059 27.2406 21.0658 28.4603 21.8656C28.2004 22.0056 27.9305 22.1555 27.6705 22.3155C24.0614 24.555 20.3923 29.4238 18.9526 40.2812L18.9626 40.2912Z" fill="#F26D00"/>
<g style="mix-blend-mode:multiply" opacity="0.37">
<path d="M28.4703 21.875C28.4703 21.875 25.951 21.895 23.9014 24.3644C21.8519 26.8338 17.643 32.7224 18.0229 44.3896C18.3928 56.0567 23.2216 62.0153 26.7108 63.9148C30.1999 65.8144 27.2106 42.0301 27.2106 42.0301L28.4703 21.875Z" fill="#D6B6D5"/>
</g>
<path d="M22.4418 21.5758C22.4418 21.5758 13.344 21.2059 9.98481 29.3939C6.62562 37.5819 7.32546 45.1401 10.7546 52.6383C14.1838 60.1365 17.613 56.4874 16.4233 52.0084C15.2335 47.5295 12.0743 33.5929 17.613 28.4841C23.1516 23.3753 26.0609 22.0157 22.4418 21.5758Z" fill="#FF7303"/>
<path d="M21.392 23.3747C18.6827 24.9844 12.8741 26.7039 12.0843 36.7915C11.2945 46.8791 8.89506 42.6201 8.63512 39.6408C8.37519 36.6615 9.48492 29.6432 13.204 26.1541C18.0429 21.6252 24.1014 21.7751 21.392 23.3847V23.3747Z" fill="#FF7D14"/>
<path d="M13.524 26.7535C14.4437 26.4735 14.5937 26.8434 14.1738 27.6832C13.7539 28.523 12.1743 32.0522 11.7544 34.4316C11.3345 36.811 9.46493 36.1712 10.4447 32.2121C11.4245 28.2531 12.6042 27.0334 13.524 26.7535Z" fill="#FF8D30"/>
<path d="M57.1134 43.2591C56.8335 56.7458 47.0858 63.8441 47.0858 63.8441C47.0858 63.8441 43.2568 64.9938 39.7076 64.144C39.2377 64.034 38.7778 63.8941 38.338 63.7041C38.338 63.7041 45.6462 57.6156 45.0863 41.1596C44.7764 31.9618 42.247 26.3731 39.2977 23.3739C38.9378 23.0039 38.5679 22.674 38.188 22.3741C38.4779 21.9742 39.6876 21.7842 39.6876 21.7842C39.6876 21.7842 41.2672 21.4643 43.6467 21.8642C44.6164 22.0242 45.7262 22.3041 46.9059 22.774C50.9849 24.3836 57.3834 30.872 57.1234 43.2591H57.1134Z" fill="#F26D00"/>
<g style="mix-blend-mode:multiply" opacity="0.37">
<path d="M45.9061 43.119C45.7862 53.8664 43.5267 60.0149 40.7174 62.5043C40.2975 62.8742 39.6576 63.0542 39.4277 63.3741C39.2977 63.5641 39.3977 63.854 39.7176 64.1439C39.2477 64.034 38.7879 63.894 38.348 63.704C38.348 63.704 45.6562 57.6155 45.0963 41.1595C44.7864 31.9617 42.257 26.3731 39.3077 23.3738C38.9478 23.0039 38.5779 22.674 38.198 22.374C38.198 22.374 39.9676 22.9739 41.1173 24.5135C42.267 26.0531 46.0561 30.772 45.9161 43.119H45.9061Z" fill="#D6B6D5"/>
</g>
<path d="M46.386 22.9943C45.7162 22.6444 41.9771 22.0645 43.9566 24.8039C46.1461 27.8431 50.2551 33.6317 48.3455 45.3389C46.436 57.0461 47.4758 61.515 50.675 58.5457C53.8742 55.5764 56.5836 47.8283 56.4136 42.0297C56.2636 36.9009 55.6638 27.9031 46.386 22.9943Z" fill="#FF7303"/>
<path d="M51.6447 28.4323C50.535 26.7927 48.6555 26.4728 49.9052 29.832C51.1549 33.1912 52.3446 37.7201 51.6447 43.1188C50.9449 48.5175 52.1746 55.6158 54.2341 50.7269C56.0337 46.458 57.8432 37.5301 51.6447 28.4323Z" fill="#FF7D14"/>
<path d="M56.3736 59.7763C53.5043 61.8558 50.635 63.0055 48.7854 63.5154C48.0256 63.7253 47.4357 63.8353 47.0758 63.8453C47.0758 63.8453 56.8235 56.747 57.1034 43.2603C57.3633 30.8633 50.9649 24.3848 46.8859 22.7752C45.7061 22.3053 44.5964 22.0254 43.6266 21.8654C41.2472 21.4755 39.6676 21.7855 39.6676 21.7855C39.9575 21.4256 40.2575 21.0856 40.5574 20.7857C42.5669 18.7362 44.7764 17.8364 46.516 17.4565C48.3455 17.0466 49.6552 17.2166 49.6552 17.2166C49.6852 17.2166 49.9751 17.2166 50.475 17.2666C53.6042 17.6065 64.7016 20.0659 65.9013 37.7216C66.6811 49.2588 61.5323 56.0272 56.3636 59.7563L56.3736 59.7763Z" fill="#E66700"/>
<g style="mix-blend-mode:multiply" opacity="0.37">
<path d="M53.5842 57.4165C52.0346 59.806 50.395 61.2356 49.5352 62.2554C49.0953 62.7852 48.8554 63.1951 48.7854 63.5051C48.0256 63.715 47.4357 63.825 47.0758 63.835C47.0758 63.835 56.8235 56.7367 57.1034 43.25C57.3633 30.853 50.9649 24.3745 46.8859 22.7649C45.7061 22.295 44.5964 22.0151 43.6266 21.8551C41.2472 21.4652 39.6676 21.7751 39.6676 21.7751C39.9575 21.4152 40.2575 21.0753 40.5574 20.7754C40.5574 20.7754 40.7473 21.4252 42.8468 21.3153C44.9463 21.2153 50.645 23.3148 54.0841 28.5635C57.5133 33.8122 60.7625 46.2992 53.5642 57.4065L53.5842 57.4165Z" fill="#D6B6D5"/>
</g>
<path d="M56.3736 59.7761C56.0237 59.0563 56.5935 57.2667 57.1134 56.127C57.6433 54.9673 60.8225 52.2079 61.3124 42.4203C61.8023 32.6327 58.3031 28.6136 54.8739 24.8046C51.4448 20.9955 48.0156 21.3354 49.4852 20.6056C50.9549 19.8757 50.485 17.2764 50.485 17.2764C53.6142 17.6163 64.7116 20.0757 65.9113 37.7314C66.6911 49.2686 61.5423 56.037 56.3736 59.7661V59.7761Z" fill="#F26D00"/>
<path d="M38.328 63.7056C38.328 63.7056 32.7293 67.6246 26.7108 63.9155C26.7108 63.9155 26.6608 63.8756 26.5708 63.7956C26.5308 63.7656 26.4908 63.7256 26.4408 63.6756C26.1809 63.4457 25.741 63.0358 25.2111 62.4559C25.1511 62.3859 25.0911 62.3259 25.0312 62.2559C24.2314 61.3662 23.2616 60.1165 22.3118 58.5069C22.2418 58.4069 22.1819 58.2969 22.1219 58.1869C22.0519 58.077 21.9919 57.967 21.9319 57.857C21.422 56.9272 20.9322 55.8975 20.4823 54.7478C20.4023 54.5478 20.3323 54.3579 20.2623 54.1479C20.1723 53.908 20.0924 53.658 20.0124 53.4081C19.9524 53.2381 19.9024 53.0682 19.8524 52.8982C19.7824 52.6883 19.7224 52.4683 19.6625 52.2484C19.5925 51.9984 19.5225 51.7285 19.4625 51.4686C19.4125 51.2786 19.3725 51.0786 19.3225 50.8787C19.1726 50.1689 19.0326 49.429 18.9326 48.6592C18.9026 48.4193 18.8726 48.1793 18.8427 47.9394C18.8427 47.9194 18.8427 47.8994 18.8327 47.8794C18.8127 47.6395 18.7827 47.3895 18.7627 47.1496C18.7427 46.8497 18.7227 46.5497 18.7027 46.2498C18.7027 46.0399 18.6827 45.8199 18.6827 45.6C18.6327 43.9504 18.7127 42.1808 18.9626 40.3012C20.4023 29.4439 24.0714 24.575 27.6805 22.3356C27.9405 22.1756 28.2104 22.0257 28.4703 21.8857C29.3901 21.4058 30.2999 21.0759 31.1597 20.8559C31.5896 20.736 31.9995 20.656 32.3994 20.586C33.3791 20.4161 34.5089 20.516 35.6786 20.9559C36.4984 21.2658 37.3482 21.7257 38.178 22.3856C38.5479 22.6855 38.9278 23.0154 39.2877 23.3853C42.237 26.3846 44.7664 31.9733 45.0763 41.171C45.6362 57.6171 38.328 63.7156 38.328 63.7156V63.7056Z" fill="#FF7303"/>
<path d="M30.8298 22.8354C27.4606 22.9454 19.1826 28.974 20.9321 47.5995C22.6817 66.225 34.079 61.3861 36.0785 57.887C38.078 54.3878 39.6776 42.8206 38.6979 34.7826C38.168 30.4336 35.9585 22.6755 30.8198 22.8354H30.8298Z" fill="#FF7D14"/>
<path d="M30.7298 24.8253C28.4603 24.4954 22.7517 26.8448 22.9017 42.1111C23.0516 57.3774 28.7903 57.0675 31.0297 52.1687C31.9395 50.1892 31.4196 44.4506 31.6496 39.4518C31.9795 32.0735 33.889 25.2752 30.7298 24.8253Z" fill="#FF8D30"/>
<g style="mix-blend-mode:multiply" opacity="0.37">
<path d="M56.4136 59.7452C52.3546 62.7045 48.2856 63.7842 47.0758 63.8442C47.0758 63.8442 42.177 65.3139 38.328 63.7043C38.328 63.7043 32.7293 67.6233 26.7108 63.9142C26.7108 63.9142 26.7108 63.9142 26.6908 63.9142C26.4308 63.9642 22.9317 64.724 19.7524 63.6743C19.4425 63.5743 18.7027 63.4343 17.7129 63.0644C16.3033 63.3343 12.1943 63.6543 7.66536 59.3553C7.29545 59.0054 6.92554 58.6255 6.56562 58.2056C6.46565 58.0856 6.35567 57.9756 6.2557 57.8557C5.88579 57.4158 5.50588 56.9359 5.14597 56.416C5.60585 56.9759 8.22522 61.0349 12.9241 59.8052C12.9241 59.8052 19.8424 63.4643 25.0212 62.2546C25.0212 62.2546 30.6598 65.9737 36.2285 63.2044C41.7971 60.445 42.5569 57.1558 42.5569 57.1558C42.5569 57.1558 42.127 62.7145 45.7162 63.0044C48.0956 63.2044 49.4953 61.3548 50.685 60.3751C50.685 60.3751 50.565 61.7547 51.5947 61.9147C52.4745 62.0547 54.3141 61.1049 56.4136 59.7352V59.7452Z" fill="#D179CE"/>
</g>
<g style="mix-blend-mode:multiply" opacity="0.37">
<path d="M43.6367 21.865C43.6367 21.865 40.3275 21.5651 39.2877 23.3746C39.2877 23.3746 36.1685 21.0852 33.3792 21.0252C30.5898 20.9652 27.6805 22.3249 27.6805 22.3249C27.6805 22.3249 26.0609 20.6653 22.6417 20.6153C22.6417 20.6153 23.5215 19.5555 21.0321 18.5658C22.4918 19.0357 24.1414 19.7355 25.3911 20.7153C25.3911 20.7153 27.2406 21.0752 28.4603 21.875C29.3801 21.3951 30.2899 21.0652 31.1497 20.8452C31.5796 20.7253 31.9895 20.6453 32.3894 20.5753C33.3692 20.4053 34.4989 20.5053 35.6686 20.9452C36.4884 21.2551 37.3382 21.715 38.168 22.3749C38.4579 21.975 39.6676 21.785 39.6676 21.785C41.8971 19.0257 44.5265 17.8959 46.526 17.4561C46.526 17.4561 50.3151 18.5158 43.6267 21.855L43.6367 21.865Z" fill="#D179CE"/>
</g>
</svg>
