<svg width="83" height="83" viewBox="0 0 83 83" fill="none" xmlns="http://www.w3.org/2000/svg">
<g filter="url(#filter0_d_174_16264)">
<path d="M67.9151 72.8323C64.611 75.2269 61.307 76.5508 59.1772 77.1379C58.3022 77.3797 57.623 77.5063 57.2086 77.5178C57.2086 77.5178 52.7993 78.8418 48.7124 77.8632C48.1713 77.7366 47.6418 77.5754 47.1352 77.3567C47.1352 77.3567 40.6883 81.8695 33.7579 77.5984C33.7579 77.5984 33.7579 77.5984 33.7348 77.5984C33.4355 77.656 29.4062 78.5309 25.7452 77.3221C25.3884 77.207 24.5364 77.0458 23.3967 76.6199C23.0859 76.6774 22.6369 76.7465 22.1073 76.7695C19.9085 76.8731 16.0173 76.3321 11.8268 72.3488C11.4008 71.9459 10.9749 71.5084 10.5604 71.0249C10.4453 70.8867 10.3187 70.7601 10.2035 70.6219C9.77758 70.1154 9.34011 69.5628 8.92567 68.9642C7.39452 66.8229 6.00152 64.1635 4.93087 61.0206C3.41124 56.5078 2.60538 51.0164 3.19251 44.627C5.24171 22.3851 20.0121 23.8241 22.8211 24.3077C23.0629 24.3537 23.224 24.3883 23.2586 24.3998H23.2701C23.2701 24.3998 25.2847 22.0282 29.1529 22.0282C29.7976 22.0282 30.4999 22.0973 31.2482 22.247C31.7547 21.821 32.8484 21.0727 34.345 20.7273C35.8186 20.3819 38.0174 20.5201 39.1802 21.4181C39.1802 21.4181 40.6538 20.5777 43.4973 20.4971C43.7161 20.4971 43.9233 20.4971 44.165 20.4971C44.8328 20.4971 45.558 20.5546 46.3524 20.6698C46.3869 20.6698 46.4099 20.6698 46.4445 20.6813C47.377 20.8194 48.3901 21.0382 49.4953 21.3605C49.4953 21.3605 50.9919 20.7273 53.0871 20.7273C55.1824 20.7273 57.8187 21.349 60.2018 23.8357C60.2363 23.8357 60.5702 23.8357 61.1458 23.8932C64.7492 24.2846 77.5279 27.1167 78.9094 47.4475C79.8073 60.7328 73.8785 68.5267 67.9266 72.8208L67.9151 72.8323Z" fill="#A5A5A5"/>
<path d="M49.4953 21.3615C49.4953 21.3615 49.4723 21.3615 49.4147 21.373C49.1614 21.4075 48.298 21.6032 47.2043 22.3976C47.1122 22.4551 47.0086 22.5357 46.905 22.6278C46.7553 22.743 46.5942 22.8811 46.4215 23.0423C46.3409 23.1229 46.2488 23.2035 46.1682 23.2956C46.0531 23.4107 45.9265 23.5373 45.7998 23.6755C43.8427 25.8168 44.073 28.1307 44.073 28.1307C42.726 27.6357 41.4251 27.5091 40.2969 27.7048C39.8364 27.7854 39.3644 27.8775 38.8694 28.0156C38.8694 28.0156 38.547 27.8429 37.2807 25.7477C37.2346 25.6556 37.1771 25.575 37.108 25.4944C36.7511 25.0224 36.2215 24.608 35.6229 24.2511C35.4847 24.1705 35.3466 24.0899 35.2084 24.0208C33.2859 23.0077 30.8913 22.5472 30.8913 22.5472C30.8913 22.5472 31.0064 22.4321 31.2367 22.2479C31.7432 21.822 32.8369 21.0737 34.3335 20.7283C35.8071 20.3829 38.0059 20.5211 39.1687 21.419C39.1687 21.419 40.6423 20.5786 43.4858 20.498C43.7046 20.498 43.9118 20.498 44.1536 20.498C44.8213 20.498 45.5465 20.5556 46.3409 20.6707C46.3754 20.6707 46.3985 20.6707 46.433 20.6822C47.3655 20.8204 48.3786 21.0391 49.4838 21.3615H49.4953Z" fill="#A5A5A5"/>
<path d="M38.8809 28.0157C37.8908 28.269 36.8432 28.6374 35.784 29.2015C34.3795 28.2805 32.2498 27.866 32.2498 27.866C28.9457 25.2873 23.2816 24.4008 23.2816 24.4008C23.2816 24.4008 25.9985 21.1543 31.2597 22.2365C32.906 22.5703 35.9682 23.5028 37.3037 25.7362C38.57 27.8315 38.8579 27.9927 38.8924 28.0042L38.8809 28.0157Z" fill="#A5A5A5"/>
<path d="M60.1902 23.8364C60.1902 23.8364 53.5821 23.0075 48.6779 29.0975C48.6779 29.0975 47.2849 29.3162 46.951 29.7767C45.9955 29.0284 45.0285 28.4874 44.0729 28.1305C44.0729 28.1305 43.8427 25.828 45.7998 23.6752C47.7684 21.5224 49.4837 21.3612 49.4837 21.3612C49.4837 21.3612 55.4011 18.84 60.1787 23.8248L60.1902 23.8364Z" fill="#A5A5A5"/>
<g style="mix-blend-mode:multiply" opacity="0.37">
<path d="M51.579 28.8328L48.4131 29.1321L46.3869 29.3278L34.5867 30.4676L27.6793 27.8888C27.6793 27.8888 28.0362 25.8396 29.222 26.1159C30.9488 26.5188 33.4931 26.5418 35.6459 24.2394C35.6919 24.1933 35.7265 24.1473 35.7725 24.1012L44.165 20.4863C44.8328 20.4863 45.558 20.5439 46.3524 20.659C46.3869 20.659 46.4099 20.659 46.4445 20.6705C46.1912 21.2461 45.8804 22.2707 46.4445 23.0306C46.4445 23.0306 46.6747 24.8265 50.0133 25.8166C50.4508 25.9432 51.5445 25.8166 52.7072 25.5978C54.2038 25.31 55.804 24.8725 56.2415 24.6308C57.0128 24.1818 51.579 28.8213 51.579 28.8213V28.8328Z" fill="#A5A5A5"/>
</g>
<path d="M56.2645 11.5982C56.2645 11.5982 56.0113 12.3004 55.5278 13.0372C55.0212 13.8201 54.2384 14.6374 53.2368 14.6605C52.5691 14.672 52.0971 14.4302 51.6941 14.1079C50.9228 13.4977 50.4278 12.6113 49.4492 12.7724C47.9641 13.0142 44.3723 17.3198 45.6156 22.2816C46.1337 24.3308 46.8935 25.8044 47.5957 26.8175C47.5957 26.8175 47.5957 26.8175 47.5957 26.829C48.5973 28.2566 49.4953 28.7746 49.4953 28.7746C49.4953 28.7746 48.275 30.2597 46.951 30.2827C46.7093 30.2827 46.2027 30.2827 45.535 30.2827C44.6601 30.2827 43.4973 30.2597 42.254 30.2022C40.2854 30.1101 38.075 29.9489 36.4057 29.6035C36.187 29.5575 35.9682 29.5114 35.761 29.4539C35.0357 29.2697 34.4716 29.0394 34.1147 28.7631C34.1147 28.7631 34.1378 28.7401 34.1838 28.6825C34.5407 28.2451 36.233 26.1383 36.8432 23.8358C37.5339 21.257 37.7757 13.2329 43.8197 9.72165C49.8637 6.22189 50.9228 4 50.9228 4C50.9228 4 51.0034 4.08059 51.1531 4.21874C51.8898 4.89796 54.2269 6.9817 55.4702 7.3501C56.9553 7.78757 56.2761 11.5751 56.2761 11.5751L56.2645 11.5982Z" fill="#A5A5A5"/>
<g style="mix-blend-mode:multiply" opacity="0.37">
<path d="M55.8616 11.5985L55.5277 13.0376C55.0212 13.8204 54.2383 14.6378 53.2368 14.6608C52.7302 14.6723 52.3388 14.5227 51.9934 14.3154C51.8898 14.2579 51.7862 14.1773 51.6941 14.0967C50.9228 13.4865 50.4277 12.6001 49.4492 12.7613C48.7585 12.8764 47.6072 13.8664 46.7093 15.3861C46.7093 15.3976 46.6977 15.4091 46.6862 15.4206C45.6616 17.1705 44.9479 19.6341 45.6156 22.2705C46.8704 27.2323 49.4952 28.775 49.4952 28.775C49.4952 28.775 48.2749 30.2601 46.951 30.2831C46.4099 30.2831 44.4759 30.3061 42.2425 30.214L39.9285 28.6138C39.9285 28.6138 43.6354 28.372 42.3921 24.3082C41.1373 20.2443 44.4413 14.822 45.535 12.4274C46.6287 10.0443 49.8176 9.03125 49.8176 9.03125L50.6235 9.37662L55.8616 11.5985Z" fill="#A5A5A5"/>
</g>
<g style="mix-blend-mode:multiply" opacity="0.37">
<path d="M39.5716 20.2209C39.6868 24.1351 40.0552 26.3455 38.6046 28.1184C37.8678 29.0164 37.0389 29.4308 36.4057 29.6035C36.187 29.5575 35.9683 29.5114 35.761 29.4539C36.3021 29.0049 37.2346 28.0493 37.6376 26.4952C38.2477 24.2387 38.3859 19.7144 39.3759 17.3428C40.4696 14.7295 42.1965 12.8185 42.5188 13.1178C42.8412 13.4171 39.468 16.4219 39.5832 20.2094L39.5716 20.2209Z" fill="#A5A5A5"/>
</g>
<g style="mix-blend-mode:multiply" opacity="0.37">
<path d="M40.8149 19.3463C40.4926 23.0303 41.1603 26.4149 40.9185 26.3343C40.6768 26.2537 40.1127 19.4039 41.1027 17.0323C42.1964 14.419 45.3278 10.5624 45.6386 10.8502C45.9494 11.138 41.1258 15.5703 40.8034 19.3463H40.8149Z" fill="#A5A5A5"/>
</g>
<g style="mix-blend-mode:multiply" opacity="0.37">
<path d="M51.1301 5.11621C51.1301 5.11621 49.7371 7.55683 48.2635 7.77557C46.5021 8.02884 43.3592 10.7112 43.4513 10.976C43.5434 11.2408 46.6863 8.99588 48.3786 8.67353C50.0709 8.35119 51.6251 6.20989 51.6251 6.20989L51.1301 5.11621Z" fill="#A5A5A5"/>
</g>
<g style="mix-blend-mode:multiply" opacity="0.37">
<path d="M52.7762 14.1543L51.9934 14.3154C51.8898 14.2579 51.7862 14.1773 51.6941 14.0967C50.9228 13.4865 50.4277 12.6001 49.4492 12.7613C48.7584 12.8764 47.6072 13.8664 46.7092 15.3861C46.8934 14.9716 47.9526 12.7613 48.6894 12.036C49.5067 11.2301 49.8291 9.03125 49.8291 9.03125C50.1284 9.0773 50.3932 9.20394 50.6349 9.37662C52.3388 10.5739 52.7878 14.1543 52.7878 14.1543H52.7762Z" fill="#A5A5A5"/>
</g>
<g style="mix-blend-mode:multiply" opacity="0.37">
<path d="M49.4953 28.7854C49.4953 28.7854 48.275 30.2705 46.9511 30.2936C46.7093 30.2936 46.2028 30.2936 45.535 30.2936L43.3707 27.899C43.3707 27.899 44.9594 28.8085 46.6057 28.7048C48.1484 28.6012 47.6648 27.0125 47.6073 26.8398C48.6089 28.2674 49.5068 28.7854 49.5068 28.7854H49.4953Z" fill="#A5A5A5"/>
</g>
<g style="mix-blend-mode:multiply" opacity="0.37">
<path d="M35.1624 28.8438C35.1624 28.8438 37.9483 28.1991 39.1341 27.9573C40.3199 27.7156 39.6176 30.49 39.6176 30.49L34.9206 29.7763L35.1624 28.8438Z" fill="#A5A5A5"/>
</g>
<g style="mix-blend-mode:soft-light">
<path d="M51.13 4.24238L50.9458 4.51868C50.9458 4.51868 49.3686 6.72905 48.1253 7.2356C46.882 7.74214 43.4858 10.5512 42.9678 10.9771C42.5533 11.3225 42.3921 11.8636 42.3 12.0593C41.8971 12.8536 41.4711 12.8536 40.9876 13.1414C39.1341 14.2466 38.547 17.6082 38.3283 18.9322C38.1095 20.2446 37.5569 25.5403 36.7741 26.2425C36.0028 26.9448 35.1624 28.8558 35.1624 28.8558L34.1723 28.7177C34.5292 28.2802 36.2215 26.1734 36.8317 23.871C37.5224 21.2922 37.7642 13.2681 43.8082 9.7568C49.8522 6.25704 50.9113 4.03516 50.9113 4.03516C50.9113 4.03516 50.9919 4.11574 51.1415 4.25389L51.13 4.24238Z" fill="#A5A5A5"/>
</g>
<path d="M56.2645 11.5976C56.2645 11.5976 55.1708 14.6254 53.2367 14.6599C52.569 14.6714 52.097 14.4296 51.6941 14.1073C51.5674 13.9692 51.4868 13.8425 51.4178 13.7274C51.176 13.2439 51.4178 12.933 51.4293 12.3689C51.4293 12.1847 51.4293 11.9775 51.3487 11.7242C51.2566 11.3674 51.0724 10.9874 50.8767 10.6306C50.4047 9.77865 49.806 9.04185 49.806 9.04185C49.806 9.04185 50.3701 8.13238 50.727 7.43012C50.7846 7.30349 50.8421 7.18836 50.8882 7.07324C50.8997 7.05021 50.9112 7.02719 50.9112 6.99265C51.153 6.22132 50.8882 4.02246 50.8882 4.02246C50.8882 4.02246 51.153 4.27573 51.5674 4.64413C51.9128 4.94345 52.3387 5.32336 52.8108 5.70327C53.0065 5.86444 53.2022 6.0141 53.4094 6.17527C53.9044 6.54367 54.411 6.88904 54.8484 7.11929C55.0672 7.23441 55.2629 7.32651 55.4471 7.37256C56.9322 7.81003 56.253 11.5976 56.253 11.5976H56.2645Z" fill="#A5A5A5"/>
<path d="M54.3881 13.119C54.3881 12.9348 54.1693 11.5303 54.0427 11.4267C53.9046 11.3231 52.3734 10.0913 52.7763 9.3545C53.1793 8.61771 52.6727 6.91388 52.6727 6.91388C52.8684 6.46489 52.8684 6.02742 52.8224 5.70508C53.0181 5.86625 53.2138 6.01591 53.421 6.17709C53.4671 6.38431 53.5016 6.56851 53.5016 6.70665C53.5016 7.17866 54.1693 8.26082 54.1693 8.26082V10.0337C54.1693 10.0337 55.4357 10.0107 55.6544 10.8511C55.8732 11.68 54.3881 13.3148 54.3881 13.1306V13.119Z" fill="#A5A5A5"/>
<path d="M53.6058 14.2234C53.6058 14.2234 52.6385 14.4652 52.3737 13.7168C52.0973 12.9683 51.4294 12.3695 51.4294 12.3695C51.4294 12.1852 51.4294 11.978 51.3488 11.7246C51.2567 11.3677 51.0725 10.9877 50.8767 10.6307C51.13 10.6077 51.6022 10.6192 51.8555 10.9186C51.8555 10.9186 52.8803 11.9434 52.8803 12.9452C52.8803 13.9471 53.6058 14.2349 53.6058 14.2349V14.2234Z" fill="#A5A5A5"/>
<path d="M51.6369 10.0557C51.6369 10.0557 51.1533 9.85998 50.8309 9.52605C50.6466 9.3418 50.5084 8.86968 50.5084 8.86968L50.9805 8.09817L50.7502 7.41877C50.8078 7.29211 50.8654 7.17695 50.9115 7.0618C50.923 7.03877 50.9345 7.01574 50.9345 6.9812L51.1763 6.63574C51.1763 6.63574 51.6945 6.99271 51.4527 7.95998C51.2109 8.92726 51.5448 9.97514 51.6369 10.0442V10.0557Z" fill="#A5A5A5"/>
<path d="M56.2649 11.5993C56.3109 10.8508 56.3109 10.0908 56.1843 9.26173C56.1728 9.1581 56.2188 8.6284 56.1843 8.53628C56.1152 8.30597 55.8158 7.77628 55.8158 7.77628C55.8158 7.77628 55.1249 7.37325 54.8485 7.1084C55.0673 7.22355 55.2631 7.31567 55.4473 7.36173C56.9328 7.79931 56.2534 11.5878 56.2534 11.5878L56.2649 11.5993Z" fill="#A5A5A5"/>
<path d="M51.3947 13.1287C51.3717 13.3245 51.3141 13.359 51.4178 13.7159C51.176 13.2439 51.4178 12.933 51.4293 12.3689C51.4293 12.1847 51.4293 11.9775 51.3487 11.7242C51.2566 11.3674 51.0724 10.9874 50.8767 10.6306C50.4047 9.77865 49.806 9.04185 49.806 9.04185C49.806 9.04185 50.5889 7.77549 50.8882 7.07324C51.176 6.37098 50.8882 4.02246 50.8882 4.02246C50.8882 4.02246 51.153 4.27573 51.5674 4.64413L51.0148 4.31027C51.0148 4.31027 51.3487 6.33645 51.0954 6.84299C50.8421 7.34954 49.9787 9.04185 49.9787 9.04185C49.9787 9.04185 51.2451 10.7572 51.4062 11.5285C51.5214 12.0926 51.4408 12.6107 51.3832 13.1287H51.3947Z" fill="#A5A5A5"/>
<path d="M32.2498 27.8539C32.2498 27.8539 30.9834 27.6697 29.0839 27.7388C28.9918 27.7388 28.8997 27.7388 28.796 27.7503C28.6118 27.7618 28.4161 27.7734 28.2204 27.7849C28.1168 27.7849 28.0017 27.7964 27.8866 27.8079C25.7107 28.0151 23.0168 28.5792 20.392 29.9952C15.4877 32.6431 10.9288 38.2496 10.8943 49.9577C10.8828 54.0331 11.3203 57.5098 12.0571 60.4685C13.5306 66.4895 16.213 70.3576 18.6536 72.7867C18.6536 72.7867 18.6536 72.7867 18.6652 72.7867C20.6338 74.7438 22.4642 75.7569 23.3852 76.1944C23.7882 76.3786 24.0069 76.4592 24.0069 76.4592C24.0069 76.4592 23.7997 76.5398 23.4083 76.6204C23.0974 76.6779 22.6484 76.747 22.1189 76.77C19.92 76.8736 16.0288 76.3325 11.8383 72.3493C11.4124 71.9463 10.9864 71.5089 10.572 71.0253C10.4568 70.8872 10.3302 70.7606 10.2151 70.6224C9.78912 70.1159 9.35165 69.5633 8.9372 68.9646C7.40606 66.8233 6.01306 64.164 4.94241 61.0211C3.42278 56.5082 2.61691 51.0168 3.20404 44.6275C5.24173 22.3856 20.0121 23.8246 22.8211 24.3081C23.0629 24.3542 23.2241 24.3887 23.2586 24.4002H23.2701C23.4083 24.4233 23.5234 24.4463 23.65 24.4808C23.7421 24.5038 23.8687 24.5154 23.9954 24.5384C24.7092 24.688 25.8719 24.9528 27.1728 25.3673C27.1958 25.3788 27.2073 25.3903 27.2188 25.3903C28.8997 25.9314 30.7992 26.7372 32.2382 27.8655L32.2498 27.8539Z" fill="#A5A5A5"/>
<g style="mix-blend-mode:multiply" opacity="0.37">
<path d="M23.3967 76.6211C23.0859 76.6787 22.6369 76.7478 22.1073 76.7708C21.2093 76.1606 20.0466 75.3202 18.527 74.2035C8.37305 66.6975 8.70691 48.4389 11.0094 39.7355C13.3003 31.0322 20.3805 29.9385 20.3805 29.9385V29.996L23.3852 76.1952L23.4082 76.6211H23.3967Z" fill="#A5A5A5"/>
</g>
<path d="M22.8211 24.3081C22.8211 24.3081 15.4647 25.0103 11.3318 28.9591C8.02773 32.1135 2.50179 40.3793 4.94241 61.0325C3.42278 56.5197 2.61691 51.0283 3.20404 44.6389C5.24173 22.3855 20.0121 23.8245 22.8211 24.3081Z" fill="#A5A5A5"/>
<path d="M24.8358 50.3954C24.548 52.5598 24.4559 54.5974 24.5134 56.497C24.5134 56.7503 24.5364 57.0035 24.5364 57.2453C24.5595 57.5907 24.5825 57.936 24.6055 58.2814C24.6285 58.5692 24.6631 58.8455 24.6861 59.1218C24.6861 59.1448 24.6976 59.1679 24.6976 59.1909C24.7321 59.4672 24.7552 59.7435 24.8012 60.0198C24.9163 60.9062 25.0775 61.7581 25.2502 62.5755C25.2963 62.8058 25.3538 63.0245 25.4114 63.2548C25.492 63.5541 25.561 63.8649 25.6416 64.1527C25.7107 64.406 25.7798 64.6593 25.8604 64.901C25.9179 65.0967 25.9755 65.2924 26.0446 65.4881C26.1367 65.776 26.2288 66.0638 26.3324 66.3401C26.413 66.5703 26.4935 66.8006 26.5856 67.0308C27.0922 68.3547 27.6678 69.5405 28.2549 70.6112C28.324 70.7493 28.4046 70.8644 28.4737 70.9911C28.5427 71.1177 28.6233 71.2443 28.6924 71.3595C29.7861 73.213 30.9143 74.652 31.8238 75.6766C31.8928 75.7572 31.9619 75.8378 32.031 75.9068C32.6411 76.5861 33.1477 77.0466 33.447 77.3114C33.5046 77.3689 33.5621 77.415 33.5967 77.4495C33.7003 77.5416 33.7578 77.5877 33.7578 77.5877C33.7578 77.5877 33.7578 77.5877 33.7348 77.5877C33.4355 77.6452 29.4062 78.5202 25.7452 77.3114C25.3884 77.1962 24.5364 77.0351 23.3967 76.6091C21.8771 76.0335 19.8509 74.9628 17.8823 72.8561C15.5798 70.4154 13.4385 66.4897 11.8383 60.4457C10.7446 56.2898 10.5604 54.0218 10.6295 49.9234C10.9634 31.9181 21.5432 28.3377 27.875 27.7966C27.9902 27.7851 28.1053 27.7736 28.2089 27.7736C28.4046 27.7621 28.6003 27.7506 28.7845 27.7391C28.8881 27.7391 28.9802 27.7391 29.0723 27.7276C30.9834 27.67 32.2382 27.8427 32.2382 27.8427C32.2382 27.8427 34.368 28.2571 35.7725 29.1781C35.4732 29.3393 35.1624 29.512 34.863 29.6962C30.7071 32.275 26.482 37.8815 24.8242 50.3839L24.8358 50.3954Z" fill="#A5A5A5"/>
<g style="mix-blend-mode:multiply" opacity="0.37">
<path d="M35.7841 29.1895C35.7841 29.1895 32.8829 29.2125 30.5229 32.056C28.1629 34.8996 23.3162 41.6804 23.7536 55.1153C24.1796 68.5503 29.7401 75.4116 33.7579 77.599C37.7757 79.7863 34.3335 52.3984 34.3335 52.3984L35.7841 29.1895Z" fill="#A5A5A5"/>
</g>
<path d="M28.842 28.8447C28.842 28.8447 18.3658 28.4188 14.4976 37.8474C10.6295 47.276 11.4353 55.9794 15.3841 64.6137C19.3328 73.2479 23.2816 69.0459 21.9116 63.8884C20.5416 58.7308 16.9037 42.6826 23.2816 36.7998C29.6594 30.9169 33.0095 29.3513 28.842 28.8447Z" fill="#A5A5A5"/>
<path d="M27.6333 30.9164C24.5134 32.7699 17.8247 34.75 16.9153 46.366C16.0058 57.982 13.2428 53.0777 12.9435 49.6471C12.6442 46.2164 13.922 38.1347 18.2046 34.1169C23.7766 28.9018 30.7531 29.0745 27.6333 30.9279V30.9164Z" fill="#A5A5A5"/>
<path d="M18.573 34.8075C19.6322 34.4851 19.8048 34.9111 19.3213 35.8781C18.8378 36.8452 17.0189 40.909 16.5353 43.649C16.0518 46.3889 13.899 45.6521 15.0272 41.0932C16.1554 36.5343 17.5139 35.1298 18.573 34.8075Z" fill="#A5A5A5"/>
<path d="M68.7669 53.8134C68.4446 69.3436 57.22 77.5174 57.22 77.5174C57.22 77.5174 52.8108 78.8413 48.7239 77.8627C48.1828 77.7361 47.6532 77.5749 47.1467 77.3562C47.1467 77.3562 55.5622 70.3452 54.9175 51.3958C54.5607 40.8044 51.648 34.369 48.2519 30.9153C47.8374 30.4893 47.4115 30.1094 46.974 29.7641C47.3079 29.3036 48.7009 29.0848 48.7009 29.0848C48.7009 29.0848 50.5198 28.7164 53.2598 29.1769C54.3765 29.3611 55.6543 29.6835 57.0128 30.2245C61.7098 32.078 69.0778 39.5496 68.7784 53.8134H68.7669Z" fill="#A5A5A5"/>
<g style="mix-blend-mode:multiply" opacity="0.37">
<path d="M55.8616 53.6518C55.7235 66.0276 53.1217 73.1077 49.8867 75.9743C49.4032 76.4003 48.6664 76.6075 48.4016 76.9759C48.252 77.1946 48.3671 77.5285 48.7355 77.8624C48.1944 77.7357 47.6648 77.5746 47.1583 77.3558C47.1583 77.3558 55.5738 70.3448 54.9291 51.3954C54.5722 40.804 51.6596 34.3686 48.2635 30.9149C47.849 30.489 47.4231 30.109 46.9856 29.7637C46.9856 29.7637 49.0233 30.4544 50.3472 32.2273C51.6711 34.0002 56.0343 39.4341 55.8731 53.6518H55.8616Z" fill="#A5A5A5"/>
</g>
<path d="M56.4141 30.4778C55.6428 30.0749 51.3371 29.4072 53.6166 32.5616C56.1378 36.0613 60.8694 42.727 58.6705 56.208C56.4717 69.689 57.669 74.835 61.3529 71.4158C65.0369 67.9967 68.1567 59.0746 67.961 52.3974C67.7883 46.4915 67.0976 36.1304 56.4141 30.4778Z" fill="#A5A5A5"/>
<path d="M62.4697 36.7406C61.1918 34.8526 59.0275 34.4842 60.4665 38.3524C61.9056 42.2205 63.2756 47.4356 62.4697 53.6523C61.6638 59.869 63.0799 68.0428 65.4514 62.4132C67.5236 57.4974 69.6074 47.2169 62.4697 36.7406Z" fill="#A5A5A5"/>
<path d="M67.915 72.8335C64.611 75.2281 61.3069 76.552 59.1771 77.1392C58.3022 77.3809 57.623 77.5076 57.2085 77.5191C57.2085 77.5191 68.4331 69.3453 68.7554 53.8151C69.0548 39.5398 61.6868 32.0797 56.9898 30.2263C55.6313 29.6852 54.3535 29.3628 53.2368 29.1786C50.4968 28.7296 48.6779 29.0865 48.6779 29.0865C49.0117 28.6721 49.3571 28.2807 49.7025 27.9353C52.0164 25.5753 54.5607 24.5391 56.5638 24.1017C58.6706 23.6297 60.1787 23.8254 60.1787 23.8254C60.2133 23.8254 60.5471 23.8254 61.1227 23.8829C64.7261 24.2744 77.5048 27.1064 78.8863 47.4372C79.7843 60.7225 73.8554 68.5164 67.9035 72.8105L67.915 72.8335Z" fill="#A5A5A5"/>
<g style="mix-blend-mode:multiply" opacity="0.37">
<path d="M64.7031 70.1157C62.9187 72.8672 61.0306 74.5134 60.0406 75.6877C59.534 76.2978 59.2577 76.7698 59.1771 77.1267C58.3022 77.3685 57.623 77.4951 57.2085 77.5066C57.2085 77.5066 68.4331 69.3329 68.7554 53.8027C69.0548 39.5273 61.6868 32.0673 56.9898 30.2138C55.6313 29.6727 54.3535 29.3504 53.2368 29.1662C50.4968 28.7172 48.6779 29.0741 48.6779 29.0741C49.0117 28.6596 49.3571 28.2682 49.7025 27.9229C49.7025 27.9229 49.9212 28.6712 52.3388 28.5445C54.7564 28.4294 61.3184 30.847 65.2787 36.891C69.2274 42.935 72.969 57.3139 64.6801 70.1042L64.7031 70.1157Z" fill="#A5A5A5"/>
</g>
<path d="M67.9151 72.8326C67.5121 72.0038 68.1683 69.943 68.767 68.6306C69.3771 67.2952 73.0381 64.1178 73.6022 52.8472C74.1663 41.5766 70.1369 36.9486 66.1882 32.5624C62.2395 28.1762 58.2907 28.5676 59.983 27.7272C61.6754 26.8868 61.1343 23.8936 61.1343 23.8936C64.7376 24.285 77.5164 27.117 78.8979 47.4479C79.7958 60.7331 73.867 68.527 67.9151 72.8211V72.8326Z" fill="#A5A5A5"/>
<path d="M47.1352 77.3581C47.1352 77.3581 40.6883 81.871 33.7579 77.5999C33.7579 77.5999 33.7003 77.5538 33.5967 77.4618C33.5506 77.4272 33.5046 77.3812 33.447 77.3236C33.1477 77.0588 32.6412 76.5868 32.031 75.9191C31.9619 75.8385 31.8929 75.7694 31.8238 75.6888C30.9028 74.6642 29.7861 73.2252 28.6924 71.3717C28.6118 71.2566 28.5428 71.1299 28.4737 71.0033C28.3931 70.8767 28.324 70.75 28.2549 70.6234C27.6678 69.5527 27.1037 68.367 26.5856 67.0431C26.4935 66.8128 26.413 66.5941 26.3324 66.3523C26.2288 66.076 26.1367 65.7882 26.0446 65.5004C25.9755 65.3047 25.9179 65.109 25.8604 64.9133C25.7798 64.6715 25.7107 64.4182 25.6416 64.165C25.561 63.8772 25.4805 63.5663 25.4114 63.267C25.3538 63.0483 25.3078 62.818 25.2502 62.5878C25.0775 61.7704 24.9164 60.9185 24.8012 60.032C24.7667 59.7557 24.7322 59.4794 24.6976 59.2031C24.6976 59.1801 24.6976 59.1571 24.6861 59.1341C24.6631 58.8578 24.6285 58.5699 24.6055 58.2937C24.5825 57.9483 24.5595 57.6029 24.5364 57.2575C24.5364 57.0158 24.5134 56.7625 24.5134 56.5092C24.4559 54.6097 24.548 52.572 24.8358 50.4077C26.4935 37.9052 30.7186 32.2987 34.8746 29.7199C35.1739 29.5357 35.4847 29.3631 35.784 29.2019C36.8432 28.6493 37.8908 28.2694 38.8809 28.0161C39.3759 27.878 39.8479 27.7859 40.3084 27.7053C41.4366 27.5096 42.7375 27.6247 44.0845 28.1312C45.0285 28.4881 46.007 29.0177 46.9625 29.7775C47.3885 30.1229 47.826 30.5028 48.2404 30.9287C51.6366 34.3825 54.5492 40.8179 54.9061 51.4093C55.5508 70.3471 47.1352 77.3696 47.1352 77.3696V77.3581Z" fill="#A5A5A5"/>
<path d="M38.501 30.2958C34.6213 30.4224 25.0891 37.3644 27.1037 58.8119C29.1184 80.2595 42.2425 74.6875 44.545 70.6582C46.8474 66.6288 48.6894 53.309 47.5612 44.0531C46.9511 39.0452 44.4068 30.1116 38.4895 30.2958H38.501Z" fill="#A5A5A5"/>
<path d="M38.3859 32.5864C35.7726 32.2065 29.199 34.9119 29.3717 52.4913C29.5444 70.0707 36.1525 69.7138 38.7312 64.0728C39.7789 61.7933 39.1802 55.1852 39.445 49.429C39.8249 40.9329 42.0238 33.1045 38.3859 32.5864Z" fill="#A5A5A5"/>
<g style="mix-blend-mode:multiply" opacity="0.37">
<path d="M67.9612 72.7975C63.2871 76.2052 58.6016 77.4485 57.2086 77.5176C57.2086 77.5176 51.5675 79.2099 47.1353 77.3564C47.1353 77.3564 40.6884 81.8692 33.7579 77.5981C33.7579 77.5981 33.7579 77.5981 33.7349 77.5981C33.4356 77.6557 29.4062 78.5306 25.7453 77.3218C25.3884 77.2067 24.5365 77.0456 23.3968 76.6196C21.7735 76.9304 17.0419 77.2988 11.8268 72.3485C11.4009 71.9456 10.9749 71.5081 10.5605 71.0246C10.4454 70.8864 10.3187 70.7598 10.2036 70.6216C9.77764 70.1151 9.34017 69.5625 8.92572 68.9639C9.45529 69.6086 12.4715 74.2826 17.8823 72.8666C17.8823 72.8666 25.8489 77.0801 31.8123 75.6871C31.8123 75.6871 38.3053 79.9697 44.7177 76.7808C51.1301 73.6034 52.005 69.8158 52.005 69.8158C52.005 69.8158 51.51 76.2167 55.6429 76.5505C58.3829 76.7808 59.9946 74.651 61.3646 73.5228C61.3646 73.5228 61.2264 75.1115 62.4122 75.2957C63.4253 75.4568 65.5436 74.3632 67.9612 72.786V72.7975Z" fill="#A5A5A5"/>
</g>
<g style="mix-blend-mode:multiply" opacity="0.37">
<path d="M53.2483 29.1775C53.2483 29.1775 49.4377 28.8322 48.2405 30.9159C48.2405 30.9159 44.6486 28.2796 41.4367 28.2105C38.2247 28.1414 34.8746 29.7071 34.8746 29.7071C34.8746 29.7071 33.0096 27.7961 29.0724 27.7385C29.0724 27.7385 30.0855 26.5182 27.2189 25.3785C28.8997 25.9195 30.7992 26.7254 32.2383 27.8536C32.2383 27.8536 34.3681 28.2681 35.7726 29.1891C36.8317 28.6365 37.8793 28.2566 38.8694 28.0033C39.3644 27.8651 39.8364 27.773 40.2969 27.6924C41.4251 27.4967 42.726 27.6119 44.073 28.1184C45.017 28.4753 45.9955 29.0049 46.9511 29.7647C47.2849 29.3042 48.6779 29.0854 48.6779 29.0854C51.2452 25.908 54.2729 24.6071 56.5754 24.1006C56.5754 24.1006 60.9386 25.3209 53.2368 29.166L53.2483 29.1775Z" fill="#A5A5A5"/>
</g>
</g>
<defs>
<filter id="filter0_d_174_16264" x="0.386061" y="0.890909" width="82.2182" height="82.2182" filterUnits="userSpaceOnUse" color-interpolation-filters="sRGB">
<feFlood flood-opacity="0" result="BackgroundImageFix"/>
<feColorMatrix in="SourceAlpha" type="matrix" values="0 0 0 0 0 0 0 0 0 0 0 0 0 0 0 0 0 0 127 0" result="hardAlpha"/>
<feMorphology radius="1.15152" operator="dilate" in="SourceAlpha" result="effect1_dropShadow_174_16264"/>
<feOffset dx="0.495152"/>
<feGaussianBlur stdDeviation="0.978788"/>
<feComposite in2="hardAlpha" operator="out"/>
<feColorMatrix type="matrix" values="0 0 0 0 0.132578 0 0 0 0 0.132578 0 0 0 0 0.253333 0 0 0 0.54 0"/>
<feBlend mode="normal" in2="BackgroundImageFix" result="effect1_dropShadow_174_16264"/>
<feBlend mode="normal" in="SourceGraphic" in2="effect1_dropShadow_174_16264" result="shape"/>
</filter>
</defs>
</svg>
