<svg width="200" height="200" viewBox="0 0 200 200" fill="none" xmlns="http://www.w3.org/2000/svg">
<path d="M200 0H0V200H200V0Z" fill="#8CDCFF"/>
<path d="M200 104.8V131.14H0V90.04C0 90.04 0.72 90.06 2.04 90.08C2.84 90.1 3.87 90.12 5.09 90.14C5.32 90.14 5.55 90.15 5.8 90.15C9.1 90.2 13.62 90.24 18.87 90.23C19.56 90.23 20.26 90.23 20.97 90.22C23.7 90.21 26.59 90.18 29.58 90.13H29.59C30.42 90.12 31.24 90.11 32.08 90.09H32.09C39.73 89.93 47.89 89.62 55.59 89.06C59.94 88.75 64.13 88.35 67.99 87.86C69.26 87.7 70.49 87.53 71.69 87.34C71.69 87.33 71.7 87.34 71.7 87.34C72.43 87.23 73.15 87.11 73.84 86.99C73.85 86.98 73.87 86.98 73.87 86.98C74.86 86.81 75.81 86.63 76.73 86.44C78.36 86.1 79.87 85.73 81.23 85.33C81.94 85.12 82.61 84.91 83.23 84.68C85.78 83.75 88.71 83.22 91.91 83.02C96.51 82.73 101.65 83.1 106.97 83.92C126.55 86.94 148.53 95.99 154.47 100C163.15 105.87 182.19 111.53 200 104.8Z" fill="#5A9C99"/>
<path d="M200 176.29H0V200H200V176.29Z" fill="#2CA0A3"/>
<path opacity="0.51" d="M200 177.1V180.47C199.35 180.6 198.69 180.64 198 180.67C196.62 180.74 195.24 180.8 193.86 180.88C191.17 181.02 188.49 181.17 185.81 181.34C183.02 181.51 181.58 180.9 178.73 181.14C177.6 181.74 179.69 182.01 178.47 182.46C176.66 183.13 170.07 183.83 168.17 183.82C165.91 183.82 163.59 184.03 161.34 183.85C156.86 183.5 152.4 183.23 147.91 183.22C146.63 183.22 145.35 183.23 144.07 183.25C138.4 183.79 132.71 183.87 127.03 183.5C126.93 183.49 126.85 183.46 126.76 183.44C124.7 183.4 122.65 183.33 120.59 183.19C120.33 183.17 120.11 183.1 119.93 183C118.9 183.06 117.87 183.12 116.84 183.16C112.46 183.31 108.09 183.17 103.71 183.14C99.34 183.12 94.99 183.23 90.65 183.77C86.39 184.31 82.17 184.95 77.9 184.05C77.78 184.03 77.67 183.99 77.57 183.94C73.63 183.9 69.62 183.88 65.66 183.53C54.62 182.54 43.7 184.61 32.67 184.61C27.22 184.62 21.77 184.31 16.33 184.7C10.99 185.08 5.64 187.07 0.26 186.49C0.17 186.48 0.08 186.46 0 186.44V183.49C0.08 183.48 0.17 183.48 0.26 183.49C3.41 183.83 6.45 183.18 9.53 182.59C12.41 182.05 15.31 181.72 18.24 181.59C23.69 181.35 29.14 181.68 34.59 181.6C40.01 181.51 45.39 180.81 50.77 180.26C56.14 179.7 61.52 179.36 66.9 179.94C72.16 180.51 77.55 181.68 82.8 180.45C83.35 180.32 83.8 180.48 84.12 180.77C85.49 180.65 86.87 180.51 88.24 180.34C88.79 180.28 89.19 180.55 89.44 180.95C90.81 180.76 92.17 180.58 93.53 180.46C102.25 179.7 111.02 180.57 119.75 180.02C128.32 179.47 136.84 178.11 145.41 179.25H145.44C145.57 179.27 145.7 179.28 145.83 179.3C146.34 179.37 146.65 179.64 146.8 179.98C151.78 179.47 156.76 179.03 161.71 180.11C162.26 180.23 162.57 180.56 162.71 180.96C162.82 180.97 162.92 180.97 163.03 180.98C164.77 181.1 166.52 181.19 168.26 181.19C168.39 180.78 168.69 180.42 169.22 180.25C171.47 179.51 173.84 179.14 176.22 178.91C179.43 177.4 183.02 177.22 186.54 177.15C187.06 177.14 187.43 177.35 187.67 177.66C191.78 177.34 195.88 177.15 200 177.1Z" fill="#D1FEFF"/>
<path d="M200 176.29V179.91C200 179.91 184.6 179.4 177.96 179.91C171.32 180.42 185.87 182.21 164.17 182.46C142.47 182.72 120.77 181.95 104.94 181.19C89.11 180.42 91.15 183.65 72.51 182.72C44.72 181.32 0 185.27 0 185.27V176.29H200Z" fill="#E3DA8D"/>
<path d="M200 121.19V134.47L147.51 133.45L123.29 108.86C123.29 108.86 170.87 108.41 182.36 113.26C190.73 116.79 197.14 119.81 200 121.19Z" fill="#469490"/>
<path d="M200 129.83V156.53L171.53 145.45L167.15 143.75L166.94 143.67L159.43 140.74L158.24 140.28L157.83 133.65L157.67 131.14L157.26 124.59C157.26 124.59 157.98 124.76 159.17 125.05C159.36 125.1 159.57 125.15 159.79 125.2C161.52 125.62 163.98 126.22 166.61 126.87C167.46 127.08 168.34 127.3 169.22 127.52H169.26C169.7 127.63 170.13 127.75 170.56 127.84C170.57 127.85 170.58 127.85 170.59 127.85C173.74 128.64 176.73 129.41 178.62 129.93C182.59 131.02 188 129.14 200 129.83Z" fill="#7AB867"/>
<path d="M9.95994 188.86H6.63994C6.37994 188.86 6.12994 189.09 6.13994 189.36C6.14994 189.63 6.35994 189.86 6.63994 189.86H9.95994C10.2199 189.86 10.4699 189.63 10.4599 189.36C10.4499 189.09 10.2399 188.86 9.95994 188.86Z" fill="#36C6C9"/>
<path d="M26.9803 189.94C25.4503 189.85 23.9303 189.68 22.4203 189.42C22.1503 189.37 21.8803 189.49 21.8003 189.77C21.7303 190.01 21.8803 190.34 22.1503 190.39C23.7503 190.66 25.3603 190.85 26.9703 190.94C27.2403 190.96 27.4703 190.7 27.4703 190.44C27.4703 190.16 27.2403 189.96 26.9703 189.94H26.9803Z" fill="#36C6C9"/>
<path d="M40.2603 188.52H37.7103C37.4503 188.52 37.2003 188.75 37.2103 189.02C37.2203 189.29 37.4303 189.52 37.7103 189.52H40.2603C40.5203 189.52 40.7703 189.29 40.7603 189.02C40.7503 188.75 40.5403 188.52 40.2603 188.52Z" fill="#36C6C9"/>
<path d="M50.9804 187.58H47.8304C47.5704 187.58 47.3204 187.81 47.3304 188.08C47.3404 188.35 47.5504 188.58 47.8304 188.58H50.9804C51.2404 188.58 51.4904 188.35 51.4804 188.08C51.4704 187.81 51.2604 187.58 50.9804 187.58Z" fill="#36C6C9"/>
<path d="M51.95 193.76C50.88 193.46 49.78 193.27 48.68 193.18C48.42 193.16 48.17 193.42 48.18 193.68C48.19 193.97 48.4 194.16 48.68 194.18C49.69 194.26 50.68 194.44 51.69 194.72C51.94 194.79 52.25 194.63 52.31 194.37C52.37 194.1 52.23 193.83 51.96 193.75L51.95 193.76Z" fill="#36C6C9"/>
<path d="M15.5699 196.08C13.5899 196.18 11.5999 196.25 9.60988 196.27C8.96988 196.27 8.96988 197.28 9.60988 197.27C11.5999 197.25 13.5799 197.18 15.5699 197.08C16.2099 197.05 16.2099 196.05 15.5699 196.08Z" fill="#36C6C9"/>
<path d="M30.3797 195.31C29.2997 195.39 28.2197 195.48 27.1497 195.56C26.8897 195.58 26.6397 195.78 26.6497 196.06C26.6597 196.31 26.8697 196.58 27.1497 196.56C28.2297 196.48 29.3097 196.39 30.3797 196.31C30.6397 196.29 30.8897 196.09 30.8797 195.81C30.8697 195.56 30.6597 195.29 30.3797 195.31Z" fill="#36C6C9"/>
<path d="M38.9796 194.39H37.5296C37.2696 194.39 37.0196 194.62 37.0296 194.89C37.0396 195.16 37.2496 195.39 37.5296 195.39H38.9796C39.2396 195.39 39.4896 195.16 39.4796 194.89C39.4696 194.62 39.2596 194.39 38.9796 194.39Z" fill="#36C6C9"/>
<path d="M33.4502 186.22H30.1302C29.8702 186.22 29.6202 186.45 29.6302 186.72C29.6402 186.99 29.8502 187.22 30.1302 187.22H33.4502C33.7102 187.22 33.9602 186.99 33.9502 186.72C33.9402 186.45 33.7302 186.22 33.4502 186.22Z" fill="#36C6C9"/>
<path d="M62.1199 191.3C61.0399 191.44 59.9599 191.58 58.8899 191.72C58.6299 191.75 58.3799 191.93 58.3899 192.22C58.3999 192.46 58.6099 192.76 58.8899 192.72C59.9699 192.58 61.0499 192.44 62.1199 192.3C62.3799 192.27 62.6299 192.09 62.6199 191.8C62.6099 191.56 62.3999 191.26 62.1199 191.3Z" fill="#36C6C9"/>
<path d="M70.4697 188.01C69.3397 187.91 68.1897 188.04 67.0997 188.36C66.8497 188.43 66.6697 188.72 66.7497 188.98C66.8297 189.23 67.0997 189.41 67.3697 189.33C68.3897 189.03 69.3997 188.93 70.4697 189.02C70.7297 189.04 70.9797 188.77 70.9697 188.52C70.9597 188.23 70.7497 188.04 70.4697 188.02V188.01Z" fill="#36C6C9"/>
<path d="M83.1204 187.75C82.4104 187.53 81.7004 187.31 80.9804 187.09C80.7304 187.01 80.4204 187.18 80.3604 187.44C80.3004 187.71 80.4404 187.97 80.7104 188.06C81.4204 188.28 82.1304 188.5 82.8504 188.72C83.1004 188.8 83.4104 188.63 83.4704 188.37C83.5304 188.1 83.3904 187.84 83.1204 187.75Z" fill="#36C6C9"/>
<path d="M80.3395 195.15H76.7695C76.4995 195.15 76.2695 195.38 76.2695 195.65C76.2695 195.92 76.4995 196.15 76.7695 196.15H80.3395C80.6095 196.15 80.8395 195.92 80.8395 195.65C80.8395 195.38 80.6095 195.15 80.3395 195.15Z" fill="#36C6C9"/>
<path d="M67.23 196.35C66.47 196.44 65.7 196.47 64.93 196.44C64.67 196.43 64.42 196.68 64.43 196.94C64.44 197.22 64.65 197.43 64.93 197.44C65.7 197.47 66.47 197.44 67.23 197.35C67.49 197.32 67.74 197.14 67.73 196.85C67.72 196.61 67.51 196.32 67.23 196.35Z" fill="#36C6C9"/>
<path d="M98.0404 189.52C96.7804 189.6 95.5004 189.55 94.2504 189.35C93.9804 189.31 93.7104 189.42 93.6304 189.7C93.5604 189.94 93.7104 190.27 93.9804 190.32C95.3204 190.54 96.6804 190.62 98.0404 190.53C98.3104 190.51 98.5404 190.31 98.5404 190.03C98.5404 189.77 98.3104 189.51 98.0404 189.53V189.52Z" fill="#36C6C9"/>
<path d="M110.13 186.4C108.39 186.32 106.66 186.4 104.93 186.61C104.66 186.64 104.43 186.82 104.43 187.11C104.43 187.35 104.66 187.64 104.93 187.61C106.65 187.39 108.39 187.32 110.13 187.4C110.77 187.43 110.77 186.43 110.13 186.4Z" fill="#36C6C9"/>
<path d="M116.94 187.93C116.12 187.87 115.3 187.81 114.47 187.74C114.21 187.72 113.96 187.98 113.97 188.24C113.98 188.53 114.19 188.72 114.47 188.74C115.29 188.8 116.11 188.86 116.94 188.93C117.2 188.95 117.45 188.69 117.44 188.43C117.43 188.14 117.22 187.95 116.94 187.93Z" fill="#36C6C9"/>
<path d="M112.43 194.47C110.44 194.53 108.46 194.59 106.47 194.65C105.83 194.67 105.83 195.67 106.47 195.65C108.46 195.59 110.44 195.53 112.43 195.47C113.07 195.45 113.07 194.45 112.43 194.47Z" fill="#36C6C9"/>
<path d="M126.72 195.93C125.27 195.96 123.83 195.99 122.38 196.02C121.74 196.03 121.74 197.03 122.38 197.02C123.83 196.99 125.27 196.96 126.72 196.93C127.36 196.92 127.36 195.92 126.72 195.93Z" fill="#36C6C9"/>
<path d="M137.96 190.22C136.03 190.44 134.1 190.65 132.17 190.87C131.9 190.9 131.67 191.08 131.67 191.37C131.67 191.62 131.9 191.9 132.17 191.87C134.1 191.65 136.03 191.44 137.96 191.22C138.23 191.19 138.46 191.01 138.46 190.72C138.46 190.47 138.23 190.19 137.96 190.22Z" fill="#36C6C9"/>
<path d="M147.49 184.78C146.21 184.74 144.93 184.76 143.66 184.86C143.39 184.88 143.16 185.08 143.16 185.36C143.16 185.62 143.39 185.88 143.66 185.86C144.93 185.77 146.21 185.74 147.49 185.78C147.76 185.78 147.99 185.54 147.99 185.28C147.99 185 147.76 184.79 147.49 184.78Z" fill="#36C6C9"/>
<path d="M127.74 185.28H123.91C123.27 185.28 123.27 186.28 123.91 186.28H127.74C128.38 186.28 128.38 185.28 127.74 185.28Z" fill="#36C6C9"/>
<path d="M90.5103 195.43C89.6803 195.29 88.8403 195.22 88.0003 195.23C87.7403 195.23 87.4903 195.46 87.5003 195.73C87.5103 196 87.7203 196.24 88.0003 196.23C88.3903 196.23 88.7803 196.23 89.1703 196.26C89.3603 196.27 89.5503 196.29 89.7403 196.32C89.7703 196.32 89.8103 196.32 89.8403 196.33C89.8503 196.33 89.9103 196.33 89.9203 196.34C90.0303 196.36 90.1303 196.37 90.2403 196.39C90.5003 196.43 90.7903 196.32 90.8603 196.04C90.9203 195.8 90.7903 195.47 90.5103 195.42V195.43Z" fill="#36C6C9"/>
<path d="M150.72 195.57C150.38 195.61 150.05 195.61 149.71 195.59C149.63 195.59 149.55 195.58 149.48 195.57C149.43 195.57 149.39 195.56 149.34 195.55C149.33 195.55 149.31 195.55 149.3 195.55C149.13 195.52 148.97 195.49 148.8 195.45C148.55 195.39 148.25 195.53 148.18 195.8C148.12 196.06 148.26 196.35 148.53 196.42C149.24 196.59 149.98 196.64 150.71 196.57C150.85 196.56 150.96 196.52 151.06 196.42C151.15 196.33 151.21 196.19 151.21 196.07C151.2 195.82 150.99 195.54 150.71 195.57H150.72Z" fill="#36C6C9"/>
<path d="M164.77 192.44C161.39 192.52 158.02 192.59 154.64 192.67C154 192.68 154 193.68 154.64 193.67C158.02 193.59 161.39 193.52 164.77 193.44C165.41 193.43 165.41 192.43 164.77 192.44Z" fill="#36C6C9"/>
<path d="M171.06 189.09C169.67 189.15 168.28 189.21 166.89 189.27C166.62 189.28 166.39 189.49 166.39 189.77C166.39 190.03 166.62 190.28 166.89 190.27C168.28 190.21 169.67 190.15 171.06 190.09C171.33 190.08 171.56 189.87 171.56 189.59C171.56 189.33 171.33 189.08 171.06 189.09Z" fill="#36C6C9"/>
<path d="M184.08 185.21C182.46 185.22 180.84 185.32 179.23 185.52C178.96 185.55 178.73 185.73 178.73 186.02C178.73 186.27 178.96 186.55 179.23 186.52C180.84 186.33 182.46 186.22 184.08 186.21C184.72 186.21 184.72 185.21 184.08 185.21Z" fill="#36C6C9"/>
<path d="M193.92 191.78C192.46 191.52 191.02 191.2 189.59 190.81C188.97 190.64 188.7 191.6 189.32 191.77C190.75 192.16 192.19 192.49 193.65 192.74C193.92 192.79 194.19 192.67 194.27 192.39C194.34 192.15 194.19 191.82 193.92 191.77V191.78Z" fill="#36C6C9"/>
<path d="M197.62 183.84C196.57 183.8 195.52 183.81 194.47 183.87C194.21 183.88 193.96 184.09 193.97 184.37C193.98 184.63 194.19 184.89 194.47 184.87C195.52 184.81 196.57 184.8 197.62 184.84C197.88 184.84 198.13 184.6 198.12 184.34C198.11 184.06 197.9 183.85 197.62 183.84Z" fill="#36C6C9"/>
<path d="M178.72 196.18C178.15 196.15 177.59 196.12 177.02 196.08C176.76 196.07 176.51 196.32 176.52 196.58C176.53 196.86 176.74 197.06 177.02 197.08C177.59 197.11 178.15 197.14 178.72 197.18C178.98 197.19 179.23 196.94 179.22 196.68C179.21 196.4 179 196.2 178.72 196.18Z" fill="#36C6C9"/>
<path d="M200 157.23V161.04V162.08V168.32L199.97 176.29V177.14C199.97 177.14 172.39 175.61 171.03 177.14C169.76 178.58 169.23 180.17 152.62 179.38C152.49 179.37 152.36 179.37 152.23 179.36C151.24 179.31 150.18 179.26 149.07 179.19C145.41 178.97 141.26 178.73 136.88 178.48C130.92 178.14 124.54 177.79 118.44 177.5H118.43C116.88 177.43 115.34 177.36 113.83 177.29C113.2 177.26 112.58 177.24 111.96 177.22C108.95 177.09 106.07 176.98 103.44 176.91C102.94 176.9 102.44 176.88 101.96 176.87C100.31 176.83 98.77 176.81 97.37 176.8C96.18 176.78 95.08 176.79 94.1 176.8C93.24 176.81 92.47 176.83 91.8 176.87H91.79C91.32 176.89 90.89 176.92 90.52 176.95H90.5C89.93 177 89.48 177.06 89.16 177.14C87.85 177.46 85.09 177.77 81.59 178.04H81.41C78.45 178.27 74.98 178.46 71.44 178.57H71.21C63.19 178.85 54.89 178.77 51.37 178C49.09 177.5 46.41 177.46 43.18 177.57C42.23 177.61 41.23 177.65 40.18 177.71C37.8 177.82 35.14 177.96 32.16 178.02C32.15 178.03 32.14 178.03 32.14 178.03C31.6 178.04 31.05 178.05 30.49 178.05C25.99 178.1 20.8 177.95 14.78 177.31C2 175.95 0 180.78 0 180.78V101.84C0 101.84 0.42 101.76 1.21 101.62H1.22C3.48 101.22 8.75 100.31 15.95 99.2099C16.39 99.1399 16.84 99.0799 17.29 99.0099C18.47 98.8399 19.7 98.6599 20.97 98.4799C21.11 98.4499 21.25 98.4299 21.4 98.4099C26.67 97.6499 32.66 96.8499 39.06 96.0899C39.33 96.0599 39.61 96.0199 39.88 95.9899C44.04 95.5099 48.36 95.0399 52.78 94.6199C52.82 94.6199 52.87 94.6099 52.92 94.6099C59.31 93.9999 65.87 93.4999 72.37 93.1599C72.73 93.1399 73.1 93.1299 73.46 93.1099C77.21 92.9299 80.93 92.7999 84.57 92.7599C84.62 92.7499 84.67 92.7499 84.71 92.7599C86.23 92.7299 87.72 92.7199 89.2 92.7399C89.22 92.7299 89.25 92.7299 89.27 92.7399C92.27 92.7499 95.21 92.8199 98.05 92.9599C103.47 93.2099 108.54 93.6999 113.07 94.4999C114.89 94.8099 116.62 95.1799 118.25 95.5899C119.07 95.7999 119.86 96.0199 120.62 96.2499C120.75 96.2999 120.88 96.3399 121.01 96.3799C121.61 96.5699 122.2 96.7699 122.77 96.9799C125.1 97.8299 127.14 98.8399 128.81 100.01C130.62 101.27 132.38 102.61 134.1 104C134.24 104.11 134.37 104.21 134.5 104.32C136.35 105.82 138.15 107.39 139.93 109C144.77 113.41 149.38 118.16 153.98 122.94C154.7 123.69 155.43 124.44 156.15 125.19C156.56 125.62 156.97 126.04 157.38 126.46C158.89 128.04 160.42 129.6 161.96 131.15C162.84 132.04 163.72 132.92 164.6 133.79C166.93 136.07 169.29 138.3 171.72 140.42C171.87 140.56 172.02 140.69 172.18 140.82C176.7 144.75 181.43 148.33 186.55 151.31C190.75 153.74 195.2 155.77 200 157.24V157.23Z" fill="#2C9C5D"/>
<path d="M127.12 9.61005C127.12 9.61005 106.27 6.89005 107.55 19.6C107.55 19.6 93.0999 17.92 89.6599 30.32C87.2599 38.98 83.7699 33.8 80.3499 35.96C78.2199 37.31 78.4899 41.3501 80.3099 42.4501C80.3099 42.4501 75.6699 45.87 78.5299 49.94C81.3899 54.01 87.6299 52.9101 89.1399 49.1501C89.1399 49.1501 96.0199 58.6901 105.27 51.2401C105.27 51.2401 111.46 58.3901 119.75 48.0401C119.75 48.0401 127.32 54.72 136.98 46.92C136.98 46.92 146.55 55.31 154.72 43.42C154.72 43.42 162.44 59.43 170.11 47.93C170.11 47.93 182.3 50.28 185.86 41.84C191.48 28.5201 178.94 22.44 175.39 24.07C175.39 24.07 175.93 9.52005 167.09 11.12C158.25 12.72 154.84 22.86 151.9 15.74C147.32 4.64005 139.93 11.69 139.93 11.69C139.93 11.69 140.34 6.88005 134.64 5.94005C130.2 5.21005 128.46 7.72005 127.1 9.62005L127.12 9.61005Z" fill="white"/>
<path d="M176.33 37.7601C176.11 38.6901 175.59 39.4701 174.88 40.0601C174.95 39.8801 175.01 39.6801 175.06 39.4801C176.2 34.5601 171.21 33.1501 171.21 33.1501C171.21 33.1501 175.39 29.4601 172.49 26.6801C169.07 23.4101 164.75 27.8901 163.91 28.8401C164.42 27.8801 163.84 23.4701 160.16 21.9901C153.95 19.5001 151.63 25.1201 151.63 25.1201C151.63 25.1201 150.68 20.0801 144.52 19.5601C135.15 18.7901 137.3 24.7701 137.3 24.7701C135.56 24.0001 130.86 24.6701 130.19 29.1401C130.18 29.2201 130.17 29.3001 130.16 29.3801C130.08 28.8101 130.08 28.1601 130.19 27.4201C130.88 22.9501 134.46 22.6901 136.24 23.4601C136.24 23.4601 135.29 17.0601 144.92 17.8401C151.26 18.3501 152.24 23.4001 152.24 23.4001C152.24 23.4001 154.59 17.8701 161.01 20.2701C164.64 21.6201 165.4 26.2901 164.83 27.1701C165.57 26.4301 169.7 22.6201 173.52 25.6301C177.73 28.9501 172.5 32.7801 172.5 32.7801C172.5 32.7801 177.51 32.8401 176.33 37.7601Z" fill="#E6FAFF"/>
<path d="M125.97 30.82C126.16 31.63 125.72 32.99 125.63 33.73C125.57 33.57 125.84 32.71 125.58 31.74C124.45 27.49 120.26 29.7 120.26 29.7C120.26 29.7 120.08 26.27 116.87 25.74C113.08 25.12 113.03 30.21 113.07 31.25C112.84 30.36 110.07 27.63 107.11 28.35C102.12 29.58 103.87 34.5 103.87 34.5C103.87 34.5 100.54 31.52 96.6698 34.06C90.7898 37.95 95.3398 41.01 95.3398 41.01C93.8998 41.31 91.5398 43.97 93.6098 47.33C93.6498 47.39 93.6898 47.45 93.7198 47.51C93.3598 47.16 92.9998 46.72 92.6598 46.16C90.5998 42.79 92.5398 40.93 93.9998 40.62C93.9998 40.62 89.9198 36.71 95.9498 32.71C99.9198 30.07 103.27 33.05 103.27 33.05C103.27 33.05 101.59 28.18 106.65 26.79C109.51 26 112.52 28.82 112.67 29.69C112.69 28.84 113 24.3 116.88 24.55C121.16 24.83 120.8 28.85 120.8 28.85C120.8 28.85 124.93 26.45 125.96 30.82H125.97Z" fill="#E6FAFF"/>
<path d="M46.08 40.5801C44.8 42.1401 43.22 42.7301 43.22 42.7301C43.22 42.7301 47.44 46.4101 42.2 50.2401C32.04 57.6801 25.38 51.4301 25.38 51.4301C25.38 51.4301 25.05 53.4001 23.23 55.4001C21.37 57.4701 17.94 59.5801 11.69 59.6401C6.38 59.6901 0.23 59.1901 1.72 54.9201C1.72 54.9201 1.06 55.3201 0 55.8301V27.6101C1.67 26.2601 4.23 25.0601 8.19 24.5501C14.3 23.7601 15.25 26.9801 15.25 26.9801C15.25 26.9801 16.79 23.3001 23.26 23.5001C29.76 23.7001 29.48 28.2301 29.48 28.2301C29.48 28.2301 39.98 18.7101 45.68 29.2001C48.87 35.0701 47.72 38.6101 46.08 40.5801Z" fill="white"/>
<path d="M25.0297 47.1601C25.0297 47.1601 23.1697 41.9501 31.3897 41.0001C36.7997 40.3801 38.4597 44.4601 38.4597 44.4601C38.4597 44.4601 39.5297 39.3401 45.3097 40.3801C49.0197 41.0401 50.1597 45.2201 49.5797 45.6701C49.5797 45.6701 52.6197 40.7301 56.7097 42.8201C60.7997 44.9101 57.0397 48.9901 57.0397 48.9901C57.0397 48.9901 61.2597 48.2101 61.0797 52.5401C60.9497 55.8201 56.3397 57.9001 53.0797 55.1601C53.0797 55.1601 49.6997 63.2101 42.3497 57.6001C42.3497 57.6001 41.9097 60.7401 38.2297 60.9101C37.1397 60.9601 34.5697 60.8201 34.3897 58.4601C34.3897 58.4601 32.9897 61.0901 29.4897 60.7101C26.7597 60.4101 23.8897 58.0201 25.5897 55.6301C25.5897 55.6301 20.8097 56.3301 20.6097 51.4901C20.4497 47.6201 23.4097 46.8201 25.0397 47.1601H25.0297Z" fill="#E6FAFF"/>
<path d="M83.3096 42.1799L90.7196 43.2999V44.3099H98.8396L105.44 41.2699L106.15 36.8999H129.39L133.86 39.6399L130.61 54.2599L83.3096 51.8199V42.1799Z" fill="#8B9461"/>
<path d="M82.6204 46.5898H95.2304L102.3 39.4398H105.16L110.79 44.4598L113.88 48.1198L117.34 46.4398L127.39 45.2198L128.45 41.7198L130.58 40.8098V36.3898L132.53 35.0198H134.85L137.13 74.9098L138.65 77.3498V99.6498H81.8604L82.6204 46.5898Z" fill="#AFBA79"/>
<path d="M104.88 66.8799H102.99V71.0299H104.88V66.8799Z" fill="#3E4C7A"/>
<g style="mix-blend-mode:multiply" opacity="0.29">
<path d="M82.6201 46.5898C82.6201 46.5898 89.3401 60.4398 93.9901 62.4198C98.6401 64.3998 98.3301 68.2798 99.7801 73.0798C101.23 77.8798 105.79 75.5698 111.2 80.4398C116.61 85.3098 131.48 96.6798 138.66 97.3598V99.6398H81.8701L82.6301 46.5798L82.6201 46.5898Z" fill="#B4B89F"/>
</g>
<path d="M74.8301 6.12988H74.5801V26.8199H74.8301V6.12988Z" fill="#434459"/>
<path d="M84.3801 9.74988H74.8301V6.12988H84.3801L81.7701 7.93988L84.3801 9.74988Z" fill="#5C63B3"/>
<path d="M89.5599 21.4699V63.9999H84.3799V19.1399L89.5599 21.4699Z" fill="#B2BD7C"/>
<path d="M60.0195 19.8698H65.1195L66.1895 20.9398L67.6395 20.4798V19.1398H70.4495L70.9895 20.6398L74.8695 20.4098L75.4795 19.1398L78.2195 19.0398L78.7995 20.4098L80.7095 20.6398L81.6395 19.0398L84.3795 19.1398V70.6498H60.0195V19.8698Z" fill="#C0CC85"/>
<path d="M53.2502 49.93L50.2002 47.95H53.5002L53.2502 49.93Z" fill="#AD5A62"/>
<path d="M77.2496 46.9399H52.8896V68.9499H77.2496V46.9399Z" fill="#CCD98D"/>
<path d="M31.9102 63.5999V70.5799H35.4502V63.5999C35.4502 63.5999 34.5402 63.2299 34.3102 62.9999C34.0802 62.7699 32.9802 62.9599 32.7502 63.1499C32.5202 63.3399 32.3702 63.4699 31.9102 63.5899V63.5999Z" fill="#BAC294"/>
<path d="M84.0296 70.65V102.13L55.4696 101.71L24.5596 101.25V70.2L84.0296 70.65Z" fill="#DAE3AD"/>
<path d="M32.1396 70.2199L44.5496 63.5999H84.3796L84.0396 70.6499L32.1396 70.2199Z" fill="#C4805A"/>
<path d="M50.2002 47.95L64.7702 34.2L78.3202 47.95H50.2002Z" fill="#CC9272"/>
<path d="M67.8003 54.75H65.0703V58.18H67.8003V54.75Z" fill="#5264A1"/>
<path d="M83.44 54.75H80.71V58.18H83.44V54.75Z" fill="#3E4C7A"/>
<path d="M92.2002 68.95H80.7002V94.74H92.2002V68.95Z" fill="#CCD98D"/>
<g style="mix-blend-mode:multiply" opacity="0.29">
<path d="M89.2802 94.74H80.7002V68.95H85.6102L89.2802 69.89C89.2802 69.89 84.4902 70.86 82.8902 71.02C82.1802 71.1 81.8202 75.47 82.8302 80.45C84.0902 86.62 87.0502 93.72 89.2802 94.74Z" fill="#C8CCB1"/>
</g>
<path d="M93.9598 68.95C93.9598 68.95 93.8298 69.03 93.5098 69.15C92.9498 69.35 91.7798 69.67 89.6598 69.89C88.7498 69.96 87.6698 70.03 86.3898 70.06C80.3698 70.17 78.7998 68.95 78.7998 68.95L86.4598 61.5L93.9598 68.95Z" fill="#CC9272"/>
<path d="M88.5502 75.25H86.6602V79.4H88.5502V75.25Z" fill="#5264A1"/>
<path d="M34.6205 76.2998H32.7305V80.4498H34.6205V76.2998Z" fill="#5264A1"/>
<path d="M46.3998 76.2998H44.5098V80.4498H46.3998V76.2998Z" fill="#5264A1"/>
<path d="M58.1703 76.2998H56.2803V80.4498H58.1703V76.2998Z" fill="#5264A1"/>
<path d="M69.9496 76.2998H68.0596V80.4498H69.9496V76.2998Z" fill="#5264A1"/>
<path d="M34.6205 86.1599H32.7305V90.3099H34.6205V86.1599Z" fill="#5264A1"/>
<path d="M46.3998 86.1599H44.5098V90.3099H46.3998V86.1599Z" fill="#5264A1"/>
<path d="M58.1703 86.1599H56.2803V90.3099H58.1703V86.1599Z" fill="#5264A1"/>
<path d="M69.9496 86.1599H68.0596V90.3099H69.9496V86.1599Z" fill="#5264A1"/>
<path d="M28.0996 70.5699V65.8899H29.9996C29.9996 65.8899 30.0396 66.9799 30.4596 67.1199V70.5699H28.0996Z" fill="#DAE3AD"/>
<path opacity="0.68" d="M16.6902 43.73H11.2402V49.28H16.6902V43.73Z" fill="#DAE3AD"/>
<path d="M12.5598 44.2898H11.7598V46.7898H12.5598V44.2898Z" fill="#5264A1"/>
<g style="mix-blend-mode:multiply" opacity="0.21">
<path d="M55.4696 101.71L24.5596 101.26V88.4499L25.0096 75.6299C25.0096 75.6299 33.3596 84.4599 38.7396 85.4199C44.1196 86.3799 41.6896 92.7299 44.9796 94.5999C48.2796 96.4799 55.5196 96.4399 57.2296 100.18C57.4996 100.79 56.8196 101.29 55.4796 101.71H55.4696Z" fill="#DAE3AD"/>
</g>
<path d="M15.3098 44.2898H14.5098V46.7898H15.3098V44.2898Z" fill="#5264A1"/>
<path d="M25.01 57.7798H0V108.1H25.01V57.7798Z" fill="#CCD98D"/>
<g style="mix-blend-mode:multiply" opacity="0.29">
<path d="M25.01 56.4698V58.6998C25.01 58.6998 19.45 59.7198 16.04 59.6598C9.74 59.5598 3.62 58.7898 3.02 59.7698C2.92 59.9298 2.83 60.2498 2.75 60.6998C2.65 61.1098 2.57 61.6298 2.49 62.2498C1.76 67.5298 3.83 80.5598 4.39 84.9598C5.07 90.4498 10.63 100.69 6.47 108.1H0V55.5098L25.01 56.4798V56.4698Z" fill="#C8CCB1"/>
</g>
<path d="M27.35 57.7798C27.35 57.7798 26.12 57.9098 24.31 58.0998C22.38 58.2898 19.77 58.5298 17.3 58.6998C15.55 58.8198 13.85 58.8998 12.51 58.8998C7.51 58.8998 0 58.4398 0 58.4398V55.3598L11.25 47.1898L11.81 46.7798L12.56 46.2298L12.86 46.0198L16.69 49.1198L27.35 57.7798Z" fill="#CC9272"/>
<path d="M17.97 43.7298H10.04C10.31 42.4998 11.9 42.3998 11.9 42.3998H11.91C12.02 42.3998 12.85 42.3898 13.79 42.3898C14.71 42.3798 15.73 42.3798 16.3 42.3898C16.35 42.3998 16.39 42.3998 16.44 42.3998C17.5 42.4598 17.97 43.7298 17.97 43.7298Z" fill="#CC9272"/>
<path d="M16.31 42.3898H13.85L11.92 42.4098C11.26 39.4398 13.49 39.1398 13.49 39.1398L13.85 35.0298L14.02 33.0398L14.63 39.1398C16.69 39.3098 16.31 42.3798 16.31 42.3798V42.3898Z" fill="#CC9272"/>
<path d="M14.0498 42.4598C14.0498 42.4598 11.7498 42.6198 11.2398 43.7298H10.0498C10.3198 42.4998 11.9098 42.3998 11.9098 42.3998H11.9198C11.2598 39.4398 13.4898 39.1398 13.4898 39.1398L13.8498 35.0298C13.8498 35.2898 13.7798 38.9598 13.9098 39.1798C13.9098 39.1798 13.0998 39.6798 12.9698 40.4498C12.7698 41.5898 13.3698 42.1798 13.7998 42.3898C13.8198 42.3898 13.8398 42.3998 13.8498 42.3998C13.9198 42.4398 13.9898 42.4498 14.0498 42.4598Z" fill="#C28665"/>
<path d="M6.44977 71.48H4.00977V76.84H6.44977V71.48Z" fill="#5264A1"/>
<path d="M17.6099 71.48H15.1699V76.84H17.6099V71.48Z" fill="#5264A1"/>
<g style="mix-blend-mode:multiply" opacity="0.68">
<path d="M25.01 60.9099V62.2599C25.01 62.2599 17.73 63.6899 12.51 63.5999C6.09 63.4799 0 62.2599 0 62.2599V60.6899C0 60.6899 8.3 62.1499 12.5 62.1399C17.35 62.1399 25 60.9099 25 60.9099H25.01Z" fill="#D5DEA9"/>
</g>
<g style="mix-blend-mode:multiply">
<path d="M84.3795 23.5698H60.0195V24.6398H84.3795V23.5698Z" fill="#D5DEA9"/>
</g>
<g style="mix-blend-mode:multiply">
<path d="M89.5599 25.0898V26.1498L84.3799 24.6298V23.5698L89.5599 25.0898Z" fill="#D5DEA9"/>
</g>
<path d="M93.5002 69.15C92.9402 69.35 91.7702 69.67 89.6502 69.89L86.4502 61.49L93.5002 69.15Z" fill="#E8A682"/>
<path d="M24.3104 58.1098C22.3804 58.2998 19.7704 58.5398 17.3004 58.7098L12.8604 46.0298L24.3104 58.1098Z" fill="#E8A682"/>
<path d="M160.8 65.27C160.8 65.27 162.27 60.23 170.63 61.55C175.16 62.26 175.16 64.76 175.16 64.76C175.16 64.76 177.03 62.46 181.61 63.96C186.19 65.46 185.06 68.64 185.06 68.64C185.06 68.64 194.55 64.05 196.42 72.73C198.29 81.41 191.82 81.88 191.82 81.88C191.82 81.88 194.07 85.39 189.52 87.03C180.71 90.21 177.26 84.35 177.26 84.35C177.26 84.35 174.58 89.84 165.77 87.34C161.97 86.26 157.68 84.62 159.64 81.88C159.64 81.88 148.79 84.72 148.15 78.19C147.94 76.09 150.32 74.47 150.32 74.47C150.32 74.47 144.95 72.54 149.7 67.13C154.73 61.41 159.84 64.93 160.79 65.28L160.8 65.27Z" fill="white"/>
<path d="M188.08 74.8701C188.08 74.8701 189.87 71.1601 183.86 69.8101C179.91 68.9201 178.36 71.8101 178.36 71.8101C178.36 71.8101 177.97 67.9401 173.62 68.2501C170.83 68.4501 169.65 71.4401 170.04 71.8201C170.04 71.8201 168.19 67.9201 165 69.1501C161.81 70.3801 164.27 73.6901 164.27 73.6901C164.27 73.6901 161.21 72.7801 161 75.9901C160.84 78.4301 164.08 80.3301 166.71 78.5601C166.71 78.5601 168.57 84.7801 174.45 81.2201C174.45 81.2201 174.53 83.5801 177.23 83.9901C178.03 84.1101 179.94 84.2201 180.27 82.4901C180.27 82.4901 181.1 84.5501 183.72 84.5401C185.76 84.5401 188.07 83.0001 187.01 81.0901C187.01 81.0901 190.49 81.9901 191.02 78.4201C191.45 75.5701 189.32 74.7401 188.09 74.8701H188.08Z" fill="#E6FAFF"/>
<path d="M17.29 99C17.17 99.33 17.05 99.64 16.93 99.92C16.57 100.76 16.23 101.32 16 101.33C15.47 101.36 6.76 103.31 2.69 104.61C1.65 104.94 0.91 105.23 0.69 105.44C0.41 105.7 0.18 105.79 0 105.75V91.15C0.81 91.28 1.49 91.82 1.49 91.82C1.49 91.82 1.55 90.79 2.04 90.07C2.35 89.62 2.82 89.29 3.54 89.41C4.35 89.55 4.82 89.84 5.09 90.13C5.43 90.5 5.44 90.87 5.44 90.87C5.44 90.87 5.54 90.49 5.8 90.14C6.02 89.84 6.34 89.55 6.83 89.53C6.61 89.26 5.38 87.57 7.11 86.5C8.55 85.63 9.23 86.92 9.23 86.92C9.23 86.92 9.15 84.15 11.5 84.23C13.33 84.3 13.35 86.73 13.35 86.73C13.35 86.73 15.57 85.15 16.5 86.81C17.36 88.34 16.69 89.08 16.58 89.2C16.75 89.13 17.97 88.65 18.59 89.57C18.75 89.81 18.84 90.02 18.87 90.22C19 90.85 18.63 91.3 18.59 91.66C18.5567 91.9666 18.66 92.2966 18.9 92.65C19.13 92.99 18.21 96.54 17.29 98.99V99Z" fill="#00692E"/>
<path d="M22.2404 96.3899C23.8004 96.6499 24.5004 95.9199 24.5004 95.9199C23.3004 95.9399 21.0604 93.7299 21.0604 93.7299C22.3204 94.0399 23.2904 93.4499 23.2904 93.4499C21.6104 93.1599 20.7104 91.5899 20.7104 91.5899C21.8104 91.8499 22.8304 91.1199 22.8304 91.1199C21.4504 90.9599 20.1504 89.1499 20.1504 89.1499C21.0704 89.7499 22.2404 89.1499 22.2404 89.1499C20.6604 88.9299 19.5404 86.5799 19.5404 86.5799C20.5104 87.2899 21.4804 86.2499 21.4804 86.2499C19.5404 86.5799 18.8304 82.9099 18.8304 82.9099C18.8304 82.9099 18.1204 86.5699 16.1804 86.2499C16.1804 86.2499 17.1504 87.2899 18.1204 86.5799C18.1204 86.5799 17.0004 88.9299 15.4204 89.1499C15.4204 89.1499 16.5904 89.7499 17.5104 89.1499C17.5104 89.1499 16.2004 90.9499 14.8304 91.1199C14.8304 91.1199 15.8504 91.8499 16.9504 91.5899C16.9504 91.5899 16.0504 93.1499 14.3704 93.4499C14.3704 93.4499 15.3404 94.0399 16.6004 93.7299C16.6004 93.7299 14.3604 95.9399 13.1604 95.9199C13.1604 95.9199 13.8604 96.6499 15.4204 96.3899C15.4204 96.3899 13.7904 97.8699 12.1904 98.0899C12.1904 98.0899 13.8104 98.9099 15.0904 98.5999C16.3704 98.2899 16.4904 98.1199 16.4904 98.1199C16.4904 98.1199 16.6904 98.4299 16.5304 98.8399C16.3704 99.2499 16.1704 99.4599 16.1704 99.4599C16.1704 99.4599 17.0904 99.2999 17.8004 98.9099C18.3504 98.5999 18.4804 98.2399 18.6504 98.1799C18.9704 98.5799 19.0504 98.6699 19.5504 98.9099C20.2904 99.2599 21.5904 99.2799 21.5904 99.2799C21.5904 99.2799 21.2204 98.9099 21.0004 98.6399C20.7604 98.3299 20.7104 98.0099 20.7104 98.0099C20.7104 98.0099 21.8304 98.4499 22.7104 98.4999C23.5904 98.5499 25.4604 97.8699 25.4604 97.8699C23.8604 97.6599 22.2304 96.3899 22.2304 96.3899H22.2404Z" fill="#005937"/>
<path d="M15.4399 100.37C15.4399 100.37 12.6299 97.8398 15.0799 96.8098C16.0899 96.3798 16.8399 98.2098 16.4899 96.7098C16.2299 95.5898 16.6999 93.6198 18.3799 93.8498C20.0599 94.0798 19.9799 95.2898 19.9799 95.2898C19.9799 95.2898 19.8099 96.1898 20.4099 95.9398C21.0099 95.6898 21.2399 93.1998 22.6999 94.1098C24.1599 95.0198 22.7899 95.5298 23.6699 95.9598C24.5499 96.3898 24.5999 94.8898 25.5699 95.3798C26.5399 95.8698 26.2399 96.6198 26.3699 97.0098C26.4999 97.3998 26.6299 97.2398 27.0199 97.6498C30.4699 101.33 22.2499 105.35 21.4999 105.77C20.7499 106.19 19.8599 105.22 18.4999 105.67C16.3099 106.4 13.6599 103.02 15.4299 100.38L15.4399 100.37Z" fill="#00633D"/>
<path d="M33.3895 91.6598C33.3895 91.6598 31.0095 85.0798 35.5195 85.3798C37.3795 85.4998 37.1395 89.1898 37.7295 86.3898C38.1695 84.2998 40.3695 81.3698 42.7495 83.1598C45.1295 84.9498 44.1095 86.8998 44.1095 86.8998C44.1095 86.8998 43.1695 88.2598 44.2795 88.3498C45.3895 88.4398 47.5995 84.4398 49.1295 87.1598C50.6595 89.8798 48.1895 89.6198 49.2195 91.0698C50.2495 92.5198 51.4395 90.0498 52.5395 91.6698C53.6395 93.2898 52.6295 94.3098 52.5395 95.0698C52.4495 95.8298 52.4695 95.8398 53.0495 96.6898C53.6295 97.5398 49.3995 101.37 47.9495 101.45C46.4995 101.53 38.2795 100.77 35.8795 100.41C32.0095 99.8198 28.7195 94.6498 33.3995 91.6698L33.3895 91.6598Z" fill="#007534"/>
<path d="M53.4104 106.66C53.4104 106.66 58.0604 101.91 54.5504 100.86C54.5504 100.86 55.8604 95.2398 52.5104 95.4898C52.5104 95.4898 54.4104 90.1798 51.1804 90.6698C47.9504 91.1598 47.8604 92.6298 47.8604 92.6298C47.8604 92.6298 47.4504 88.6298 44.8404 90.3498C42.2304 92.0698 43.8504 94.1798 43.8504 94.1798C43.8504 94.1798 40.9004 92.1698 39.2904 95.4998C37.6704 98.8298 41.5704 98.2998 41.5704 98.2998C41.5704 98.2998 38.0604 98.4998 39.4504 100.87C40.8404 103.24 42.5504 102.82 42.5504 102.82C42.5504 102.82 39.3104 103.77 40.5104 105.68C41.7104 107.59 43.5304 108.54 45.7304 107.32C47.9304 106.1 53.4004 106.67 53.4004 106.67L53.4104 106.66Z" fill="#00692E"/>
<path d="M66.0601 87.8099C66.0601 87.8099 64.6501 84.2699 62.2101 86.1599C59.7701 88.0499 61.5702 86.4199 58.5502 87.0099C54.0502 87.8899 55.6901 91.6399 55.6901 91.6399C55.6901 91.6399 53.9002 91.6999 53.0502 93.3999C52.2002 95.0999 54.8701 98.2099 54.8701 98.2099C54.8701 98.2099 53.0302 98.9799 52.8302 100.39C52.6302 101.8 56.3002 103.46 56.3002 103.46C56.3002 103.46 54.9401 105.65 55.5301 106.79C56.1201 107.93 58.0902 107.53 58.5502 107.83C59.0102 108.13 71.6102 106.42 71.6102 106.42C71.6102 106.42 73.3702 105.29 73.5002 104.35C73.5902 103.71 71.9302 103.36 72.3302 102.71C73.7502 100.48 76.3502 98.4799 73.7202 97.7099C72.2902 97.2899 75.7002 96.1699 74.9102 94.6599C74.1202 93.1499 72.2402 93.0299 73.1502 91.3199C73.8102 90.0899 73.6301 88.8899 71.2701 88.5999C68.9101 88.3099 69.2802 89.3299 68.6902 89.0599C68.1002 88.7899 68.0302 86.1999 66.0502 87.8199L66.0601 87.8099Z" fill="#008039"/>
<path d="M75.8202 106.01C75.8202 106.01 68.8002 102.38 72.3702 99.8898C72.3702 99.8898 68.8102 94.0398 72.6702 93.0698C72.6702 93.0698 68.5502 87.7898 72.3802 87.1398C76.2102 86.4898 76.8502 88.1098 76.8502 88.1098C76.8502 88.1098 75.8302 83.4498 79.4102 84.4098C82.9902 85.3698 81.9502 88.3598 81.9502 88.3598C81.9502 88.3598 84.5302 84.9998 87.5902 88.1498C90.6502 91.2998 86.0502 92.1598 86.0502 92.1598C86.0502 92.1598 90.0802 91.0798 89.4002 94.2698C88.7202 97.4598 86.6302 97.6298 86.6302 97.6298C86.6302 97.6298 90.6402 97.4998 90.0002 100.1C89.3602 102.7 87.6602 104.45 84.7202 103.89C81.7802 103.33 75.8202 106.01 75.8202 106.01Z" fill="#00692E"/>
<path d="M92.3696 85.2699C92.3696 85.2699 91.8496 84.6699 91.9196 82.6299C91.9796 80.8299 93.9596 79.0599 96.1596 80.3499C96.1596 80.3499 96.2796 77.8599 98.5796 77.9499C100.36 78.0199 100.21 79.8599 100.21 79.8599C100.21 79.8599 102.7 77.9999 104.05 80.1599C105.4 82.3199 103.78 83.4199 103.78 83.4199C103.78 83.4199 106.87 82.7099 107.22 84.3899C107.57 86.0799 106.14 87.5999 106.14 87.5999C106.14 87.5999 108.55 85.4199 109.82 87.3999C111.09 89.3799 109.54 91.7299 109.54 91.7299C109.54 91.7299 113.05 90.3899 113.21 92.7399C113.37 95.0899 112.24 96.1799 112.24 96.1799C112.24 96.1799 116.19 94.4299 115.94 96.9599C115.69 99.4899 115.21 103.71 105.57 106.1C97.4796 108.11 89.5696 110.34 88.0196 104.6C87.7196 103.49 87.5396 101.62 88.5796 100.93C88.5796 100.93 86.6796 100.48 85.9296 99.2399C85.4096 98.3899 85.5396 96.7399 86.7296 96.3099C86.7296 96.3099 82.8596 93.9199 85.7696 90.8399C87.1996 89.3199 89.1696 90.3399 89.1696 90.3399C89.1696 90.3399 86.5896 87.2099 88.1396 85.1899C90.0696 82.6899 91.3496 84.1299 92.3896 85.2899L92.3696 85.2699Z" fill="#168746"/>
<path d="M98.8199 96.7299C98.8199 96.7299 95.8599 88.5599 101.46 88.9199C103.77 89.0699 103.47 93.6599 104.21 90.1699C104.76 87.5799 107.49 83.9299 110.45 86.1499C113.41 88.3699 112.14 90.7999 112.14 90.7999C112.14 90.7999 110.98 92.4899 112.35 92.5999C113.72 92.7099 116.47 87.7499 118.38 91.1199C120.29 94.4899 117.22 94.1799 118.49 95.9799C119.76 97.7799 121.25 94.7099 122.61 96.7199C123.97 98.7299 122.72 99.9999 122.61 100.95C122.5 101.9 122.52 101.9 123.24 102.96C123.96 104.02 115.25 106.91 113.45 107.02C111.65 107.13 104.89 108.04 101.9 107.59C97.0899 106.86 92.9999 100.43 98.8099 96.7299H98.8199Z" fill="#138F49"/>
<path d="M132.24 115.28C132.24 115.28 140.84 109.77 135.95 106.99C135.95 106.99 139.84 99.0298 134.74 98.2398C134.74 98.2398 139.41 90.9498 134.4 90.5698C129.39 90.1898 128.76 92.3598 128.76 92.3598C128.76 92.3598 129.52 86.2398 125.02 87.9098C120.52 89.5798 122.23 93.2998 122.23 93.2998C122.23 93.2998 118.51 89.2798 114.95 93.6998C111.39 98.1298 117.41 98.6798 117.41 98.6798C117.41 98.6798 112.09 97.7698 113.35 101.8C114.61 105.83 117.32 105.79 117.32 105.79C117.32 105.79 112.15 106.1 113.28 109.37C114.41 112.64 116.82 114.69 120.54 113.62C124.26 112.55 132.25 115.28 132.25 115.28H132.24Z" fill="#007534"/>
<path d="M152.76 101.03C152.76 101.03 152.53 93.5998 147.45 95.6198C142.37 97.6398 146.26 95.7098 140.99 94.9598C133.15 93.8398 133.64 101.8 133.64 101.8C133.64 101.8 130.69 100.81 128.32 103.44C125.95 106.07 128.48 113.46 128.48 113.46C128.48 113.46 125.04 113.77 123.9 116.25C122.76 118.73 127.77 124.06 127.77 124.06C127.77 124.06 124.28 127.29 124.58 129.76C124.88 132.23 128.31 132.7 128.89 133.54C129.47 134.38 150.96 138.92 150.96 138.92C150.96 138.92 154.48 137.9 155.24 136.24C155.76 135.1 153.26 133.43 154.3 132.49C157.92 129.22 163.31 127.11 159.48 124.06C157.4 122.4 163.59 122.42 163.19 119.13C162.79 115.84 159.8 114.47 162.28 111.87C164.07 109.99 164.48 107.65 160.82 105.67C157.16 103.69 157.16 105.81 156.36 104.95C155.56 104.09 156.95 99.2398 152.78 101.03H152.76Z" fill="#00853B"/>
<path d="M76.0303 102.57C76.0303 102.57 74.4603 98.9199 77.7303 96.1099C79.5303 94.5699 83.1903 95.6399 84.1703 96.2599C84.1703 96.2599 82.6803 91.4699 87.3103 92.1099C91.9403 92.7499 89.9503 96.8199 89.9503 96.8199C89.9503 96.8199 91.4703 92.7999 93.8603 94.7299C96.2503 96.6599 93.8603 98.7399 93.8603 98.7399C93.8603 98.7399 98.4103 96.6599 98.8903 99.9399C99.3703 103.22 96.6503 104.17 96.6503 104.17C96.6503 104.17 101.12 103.85 101.12 107.76C101.12 111.67 97.8503 111.43 97.8503 111.43C97.8503 111.43 100.73 111.27 101.12 113.75C101.51 116.23 100.96 119.73 96.3303 118.34C91.7003 116.95 84.8303 123.08 82.5103 118.66C82.5103 118.66 77.3203 122.78 76.2003 118.31C76.2003 118.31 71.7203 115.67 75.6403 111.6C75.6403 111.6 69.0403 104.57 76.0203 102.58L76.0303 102.57Z" fill="#2E915B"/>
<path d="M96.4201 105.94C96.4201 105.94 95.1601 103.03 97.7801 100.78C99.2101 99.55 102.14 100.41 102.93 100.9C102.93 100.9 101.74 97.07 105.44 97.58C109.14 98.09 107.55 101.35 107.55 101.35C107.55 101.35 108.76 98.14 110.68 99.68C112.6 101.22 110.68 102.88 110.68 102.88C110.68 102.88 114.32 101.22 114.7 103.84C115.08 106.46 112.91 107.22 112.91 107.22C112.91 107.22 116.48 106.96 116.48 110.09C116.48 113.22 113.86 113.03 113.86 113.03C113.86 113.03 116.16 112.9 116.48 114.88C116.8 116.86 116.35 119.66 112.65 118.54C108.95 117.42 103.46 122.33 101.61 118.79C101.61 118.79 97.4601 122.08 96.5701 118.51C96.5701 118.51 92.9901 116.4 96.1201 113.15C96.1201 113.15 90.8501 107.53 96.4201 105.94Z" fill="#009141"/>
<path d="M120.39 111.87C120.39 111.87 123.15 103.54 127.22 107.1C128.9 108.57 125.84 112.1 128.56 109.72C130.58 107.94 134.91 106.59 135.82 110.11C136.72 113.63 134.25 114.86 134.25 114.86C134.25 114.86 132.32 115.55 133.31 116.44C134.3 117.33 139.46 114.92 138.84 118.77C138.22 122.61 136.06 120.57 135.93 122.76C135.8 124.95 138.83 123.35 138.64 125.77C138.45 128.19 136.7 128.48 136.04 129.19C135.38 129.9 138.21 132.51 130.29 135.57C129.1 136.03 122.85 133.3 121.55 132.15C114.17 125.65 114.16 124 113.63 119.85C113.04 115.19 113.66 111.47 120.4 111.87H120.39Z" fill="#128A47"/>
<path d="M113.59 117.36C113.59 117.36 114.02 116.59 113.48 114.4C113.01 112.46 110.46 111 108.37 112.89C108.37 112.89 107.67 110.22 105.2 110.84C103.29 111.32 103.87 113.28 103.87 113.28C103.87 113.28 100.75 111.83 99.77 114.48C98.79 117.13 100.81 117.95 100.81 117.95C100.81 117.95 97.3 117.88 97.3 119.79C97.3 121.7 99.2 123.02 99.2 123.02C99.2 123.02 96.09 121.2 95.16 123.64C94.23 126.08 96.45 128.27 96.45 128.27C96.45 128.27 92.34 127.62 92.7 130.2C93.06 132.78 94.53 133.71 94.53 133.71C94.53 133.71 89.84 132.71 90.7 135.4C91.56 138.09 93.03 142.55 104.03 142.95C113.26 143.28 122.35 143.9 122.72 137.32C122.79 136.05 122.56 133.98 121.28 133.46C121.28 133.46 123.24 132.54 123.77 131.02C124.14 129.98 123.62 128.22 122.23 128.02C122.23 128.02 125.88 124.55 122.02 121.87C120.12 120.55 118.22 122.1 118.22 122.1C118.22 122.1 120.31 118.12 118.16 116.28C115.5 114 114.43 115.87 113.58 117.36H113.59Z" fill="#309C5F"/>
<path d="M129.17 137.43C131.59 137.8 132.67 136.75 132.67 136.75C130.81 136.78 127.34 133.6 127.34 133.6C129.3 134.05 130.79 133.2 130.79 133.2C128.19 132.78 126.8 130.52 126.8 130.52C128.51 130.89 130.08 129.84 130.08 129.84C127.95 129.6 125.93 127 125.93 127C127.35 127.87 129.16 127 129.16 127C126.71 126.68 124.98 123.29 124.98 123.29C126.48 124.32 127.98 122.82 127.98 122.82C124.98 123.29 123.88 118.01 123.88 118.01C123.88 118.01 122.78 123.29 119.78 122.82C119.78 122.82 121.28 124.32 122.78 123.29C122.78 123.29 121.04 126.68 118.6 127C118.6 127 120.41 127.87 121.83 127C121.83 127 119.81 129.6 117.68 129.84C117.68 129.84 119.25 130.89 120.96 130.52C120.96 130.52 119.57 132.78 116.97 133.2C116.97 133.2 118.47 134.05 120.42 133.6C120.42 133.6 116.95 136.78 115.09 136.75C115.09 136.75 116.17 137.8 118.59 137.43C118.59 137.43 116.07 139.57 113.59 139.88C113.59 139.88 116.09 141.06 118.09 140.61C120.09 140.16 120.26 139.92 120.26 139.92C120.26 139.92 120.58 140.37 120.32 140.97C120.06 141.57 119.77 141.86 119.77 141.86C119.77 141.86 121.19 141.64 122.29 141.07C123.15 140.63 123.34 140.1 123.61 140.02C124.1 140.59 124.23 140.72 125.01 141.07C126.16 141.58 128.16 141.6 128.16 141.6C128.16 141.6 127.59 141.07 127.25 140.67C126.87 140.22 126.8 139.76 126.8 139.76C126.8 139.76 128.54 140.39 129.9 140.47C131.26 140.55 134.15 139.56 134.15 139.56C131.68 139.25 129.15 137.43 129.15 137.43H129.17Z" fill="#005937"/>
<path d="M150.97 148C150.97 148 143.69 140.57 149.18 138.92C149.18 138.92 147.14 130.13 152.37 130.51C152.37 130.51 149.39 122.21 154.46 122.97C159.53 123.73 159.65 126.03 159.65 126.03C159.65 126.03 160.29 119.78 164.38 122.46C168.47 125.14 165.92 128.45 165.92 128.45C165.92 128.45 170.53 125.31 173.06 130.51C175.59 135.71 169.49 134.89 169.49 134.89C169.49 134.89 174.98 135.2 172.81 138.91C170.64 142.62 167.96 141.97 167.96 141.97C167.96 141.97 173.02 143.46 171.15 146.45C169.28 149.44 166.43 150.93 162.98 149.01C159.53 147.09 150.98 147.99 150.98 147.99L150.97 148Z" fill="#007534"/>
<path d="M129.87 130.5C129.87 130.5 131.79 123.17 136.37 126.34C140.95 129.51 137.53 126.7 142.93 127.15C150.96 127.83 148.67 135.62 148.67 135.62C148.67 135.62 151.83 135.31 153.58 138.47C155.33 141.62 151.14 148.38 151.14 148.38C151.14 148.38 154.49 149.47 155.05 152.19C155.61 154.91 149.43 159.06 149.43 159.06C149.43 159.06 152.16 163.07 151.3 165.44C150.44 167.81 146.93 167.51 146.16 168.21C145.39 168.91 123.03 168.52 123.03 168.52C123.03 168.52 119.77 166.71 119.4 164.88C119.15 163.63 122.01 162.55 121.19 161.38C118.34 157.31 113.48 153.99 117.97 151.84C120.41 150.67 114.26 149.27 115.41 146.1C116.56 142.93 119.84 142.25 117.97 139.1C116.62 136.83 116.74 134.41 120.84 133.28C124.94 132.15 124.45 134.25 125.43 133.58C126.41 132.91 126.15 127.78 129.88 130.5H129.87Z" fill="#008F3F"/>
<path d="M38.92 108.44C38.92 108.44 35.9 100.09 41.62 100.47C43.98 100.62 43.67 105.31 44.43 101.75C44.99 99.1 47.78 95.38 50.8 97.65C53.82 99.92 52.53 102.4 52.53 102.4C52.53 102.4 51.34 104.13 52.75 104.24C54.16 104.35 56.96 99.28 58.91 102.73C60.85 106.18 57.72 105.86 59.02 107.69C60.32 109.52 61.84 106.39 63.23 108.45C64.62 110.51 63.34 111.8 63.23 112.77C63.12 113.74 63.14 113.74 63.87 114.82C64.6 115.9 55.71 118.86 53.87 118.96C52.03 119.06 45.13 120 42.07 119.54C37.15 118.8 32.98 112.22 38.92 108.44Z" fill="#138F49"/>
<path d="M66.0504 101.59C66.0504 101.59 68.1004 97.7698 71.1904 99.3198C74.2804 100.87 72.7404 102.98 72.7404 102.98C72.7404 102.98 74.9604 100.65 76.8404 102.98C78.7204 105.31 75.3204 107.62 75.3204 107.62C75.3204 107.62 80.5804 105.12 81.2004 109.14C81.8204 113.16 78.2104 115.43 78.2104 115.43C78.2104 115.43 82.6504 114.5 82.9604 117.7C83.2704 120.9 81.3504 124.51 79.5204 124.1C79.5204 124.1 82.3404 126.95 75.4204 126.97C68.5004 126.99 53.9004 128.71 53.6204 126.3C53.3404 123.89 55.7404 122.55 55.7404 122.55C55.7404 122.55 52.1904 121.21 55.1904 118.42C55.1904 118.42 52.5804 112.74 58.3904 113.23C58.3904 113.23 54.7004 111.3 57.0504 109.13C57.0504 109.13 54.0604 104.46 58.1904 103.49C62.3204 102.52 62.7304 104.48 62.7304 104.48C62.7304 104.48 61.9404 99.5298 66.0504 101.59Z" fill="#15874A"/>
<path d="M91.2696 134.51C91.2696 134.51 98.8096 131.37 95.3496 128.5C95.3496 128.5 99.5196 122.77 95.6196 121.44C95.6196 121.44 100.32 116.35 96.4196 115.35C92.5196 114.35 91.7296 115.97 91.7296 115.97C91.7296 115.97 93.1796 111.25 89.4096 111.94C85.6396 112.63 86.4596 115.79 86.4596 115.79C86.4596 115.79 84.0896 112.1 80.6696 115.09C77.2496 118.08 81.9096 119.36 81.9096 119.36C81.9096 119.36 77.8496 117.9 78.2796 121.25C78.7096 124.6 80.8496 124.95 80.8496 124.95C80.8496 124.95 76.7296 124.48 77.1696 127.21C77.6096 129.94 79.2096 131.9 82.2896 131.57C85.3696 131.24 91.2796 134.51 91.2796 134.51H91.2696Z" fill="#007A35"/>
<path d="M167.13 144.94C167.13 144.94 166.15 134.55 160.49 137.6C158.16 138.85 160.75 143.76 158.24 140.27C156.37 137.68 151.71 134.96 149.73 138.8C147.75 142.64 150.28 144.72 150.28 144.72C150.28 144.72 152.34 146.03 150.95 146.8C149.56 147.57 144.23 143.41 143.93 148.02C143.63 152.63 146.67 150.84 146.24 153.41C145.81 155.98 142.73 153.32 142.31 156.17C141.89 159.02 143.83 159.83 144.42 160.82C145.01 161.81 141.03 164.09 149.38 169.74C150.64 170.59 158.6 169.09 160.41 168.11C170.69 162.55 171.14 160.64 172.85 155.97C174.77 150.73 175.05 146.25 167.14 144.93L167.13 144.94Z" fill="#128A47"/>
<path d="M197.86 155.15C197.86 155.15 198.96 155.22 200 155.61V161.03C199.26 161.74 198.64 161.96 198.64 161.96C198.64 161.96 199.25 161.97 200 162.08V168.3C199.58 168.66 199.1 169 198.55 169.3C196.03 170.71 192.01 171.44 185.18 170.13C179.97 169.13 174.78 168.21 170.96 166.66C170.16 166.33 169.42 165.98 168.76 165.59H168.75C168.03 165.18 167.41 164.73 166.88 164.22C166.23 163.62 165.73 162.94 165.39 162.18C164.95 161.16 164.81 159.99 165.04 158.64C165.29 157.15 166.12 154.81 167.73 154.55C167.73 154.55 165.71 152.97 165.5 151.06C165.46 150.69 165.51 150.28 165.65 149.87C166 148.85 166.89 147.9 168.07 148C168.07 148 166.87 146.18 167.05 144.29C167.07 144.11 167.1 143.93 167.15 143.75C167.29 143.15 167.6 142.57 168.15 142.05C168.16 142.03 168.17 142.02 168.18 142.01C168.61 141.61 169.19 141.24 169.95 140.94C170.48 140.73 170.98 140.66 171.44 140.69C173.06 140.77 174.14 142.03 174.28 142.19C174.19 141.81 173.05 136.99 175.9 135.49C179.59 133.56 180.33 136 180.93 137.96C180.93 137.96 180.64 136.95 181.84 134.55C181.91 134.4 182 134.26 182.09 134.12C183.36 132.31 186.37 131.6 188.16 134.17C188.16 134.17 189.68 131.26 192.37 132.64C193.27 133.1 193.56 133.75 193.6 134.35C193.66 135.13 193.27 135.82 193.27 135.82C193.27 135.82 197.27 134.98 197.69 138.3C198.12 141.62 195.56 142.04 195.56 142.04C195.56 142.04 199.65 142.89 199.14 145.11C198.67 147.16 196.42 148.19 196.11 148.33C196.44 148.23 198.84 147.59 200 148.82V152.9C199.19 154.32 197.86 155.15 197.86 155.15Z" fill="#309C5F"/>
<path d="M22.9605 97.6399C22.9605 97.6399 21.8005 94.9499 24.2205 92.8699C25.5505 91.7299 28.2505 92.5199 28.9805 92.9799C28.9805 92.9799 27.8805 89.4399 31.3005 89.9099C34.7205 90.3799 33.2505 93.3899 33.2505 93.3899C33.2505 93.3899 34.3705 90.4199 36.1405 91.8499C37.9105 93.2799 36.1405 94.8099 36.1405 94.8099C36.1405 94.8099 39.5005 93.2799 39.8605 95.6999C40.2205 98.1199 38.2105 98.8299 38.2105 98.8299C38.2105 98.8299 41.5105 98.5899 41.5105 101.49C41.5105 104.39 39.0905 104.2 39.0905 104.2C39.0905 104.2 41.2105 104.08 41.5105 105.91C41.8105 107.74 41.3905 110.33 37.9705 109.3C34.5505 108.27 29.4705 112.8 27.7605 109.53C27.7605 109.53 23.9205 112.58 23.1005 109.27C23.1005 109.27 19.7905 107.32 22.6805 104.31C22.6805 104.31 17.8105 99.1199 22.9605 97.6399Z" fill="#2E915B"/>
<path d="M20.24 109.76C20.07 110.55 19.75 111.28 19.37 111.81C18.92 112.43 18.37 112.79 17.83 112.67C17.83 112.67 18.39 113.23 18.22 113.78C18.15 113.98 18 114.16 17.71 114.32C17.32 114.54 16.67 114.7 15.64 114.77C15.39 114.78 15.11 114.79 14.8 114.79C14.49 114.79 14.16 114.8 13.81 114.81C9.59 114.91 2.83 115.56 0 115.04V111.69C0.16 111.58 0.26 111.52 0.26 111.52C0.26 111.52 0.15 111.48 0 111.4V105.11C0.35 104.81 0.89 104.62 1.71 104.62C1.87 104.62 2.03 104.63 2.21 104.64C2.21 104.64 2.2 104.64 2.17 104.62C1.84 104.43 -0.37 103.11 1.21 101.62H1.22C1.22 101.62 -0.99 98.1598 2.06 97.4498C4.77 96.8098 5.32 97.8898 5.41 98.1298C5.36 97.6998 5.05 94.6298 7.87 96.0398C7.87 96.0398 9.38 93.2198 11.67 94.3598C13.96 95.5098 12.82 97.0598 12.82 97.0598C12.82 97.0598 14.46 95.3398 15.85 97.0598C16.47 97.8298 16.31 98.5998 15.95 99.2098C15.57 99.8498 14.97 100.32 14.78 100.46C15.03 100.35 15.98 99.9598 16.93 99.9298C17.89 99.8898 18.85 100.22 19.07 101.61C19.26 102.85 18.91 103.86 18.43 104.62C18.34 104.77 18.24 104.91 18.14 105.04C17.53 105.84 16.86 106.26 16.86 106.26C16.86 106.26 20.14 105.57 20.37 107.94C20.43 108.55 20.37 109.17 20.24 109.76Z" fill="#15874A"/>
<path d="M14.2198 119.95C14.1998 120.09 14.2898 120.2 14.4098 120.31C14.4198 120.31 14.4198 120.31 14.4298 120.33C14.5798 120.46 14.7998 120.6 14.9598 120.73C15.0498 120.8 15.1198 120.87 15.1698 120.94C15.1998 120.97 15.2198 121.01 15.2298 121.05C15.2298 121.05 15.2598 121.15 15.2498 121.2C15.2498 121.22 15.2498 121.25 15.2498 121.27C15.2498 121.28 15.2398 121.28 15.2398 121.29C15.0398 122.06 13.6798 122.94 13.6798 122.94C13.6798 122.94 3.08977 124.37 2.70977 124.12C2.31977 123.87 0.659766 124.2 0.169766 123.24C-0.330234 122.29 0.819766 120.45 0.819766 120.45C0.819766 120.45 0.529766 120.32 0.129766 120.11C0.0897656 120.08 0.0497656 120.06 0.00976562 120.04V110.57C0.189766 110.53 0.299766 110.53 0.299766 110.53C0.299766 110.53 -1.08023 107.37 2.69977 106.63C5.23977 106.14 3.72977 107.51 5.77977 105.92C7.82977 104.33 9.00977 107.3 9.00977 107.3C10.6798 105.95 10.7398 108.12 11.2398 108.35C11.7298 108.57 11.4198 107.72 13.3998 107.96C13.5098 107.97 13.6098 107.99 13.7098 108.01C15.3898 108.32 15.4998 109.28 14.9798 110.25C14.9698 110.27 14.9598 110.29 14.9398 110.31C14.8098 110.59 14.7598 110.81 14.7798 111C14.8498 111.77 15.9298 112.04 16.4498 113.04C16.7998 113.72 16.1498 114.3 15.6498 114.76C15.2098 115.15 14.8898 115.44 15.4498 115.61C17.2098 116.13 16.1898 117.29 15.0998 118.69C14.8198 119.05 14.5298 119.43 14.2798 119.81C14.2498 119.86 14.2298 119.89 14.2298 119.94L14.2198 119.95Z" fill="#008039"/>
<path d="M18.3897 123.52C18.3897 123.52 11.4998 119.96 15.0098 117.51C15.0098 117.51 11.5098 111.77 15.3098 110.81C15.3098 110.81 11.2597 105.63 15.0297 104.99C18.7997 104.35 19.4197 105.94 19.4197 105.94C19.4197 105.94 18.4098 101.37 21.9298 102.31C25.4498 103.25 24.4198 106.19 24.4198 106.19C24.4198 106.19 26.9498 102.89 29.9498 105.98C32.9498 109.08 28.4398 109.92 28.4398 109.92C28.4398 109.92 32.3997 108.86 31.7297 111.99C31.0597 115.12 29.0098 115.29 29.0098 115.29C29.0098 115.29 32.9397 115.16 32.3197 117.72C31.6997 120.28 30.0197 121.99 27.1297 121.44C24.2397 120.89 18.3997 123.52 18.3997 123.52H18.3897Z" fill="#00692E"/>
<path d="M24.6402 121.47C26.3302 121.73 27.0902 120.99 27.0902 120.99C25.7902 121.01 23.3602 118.78 23.3602 118.78C24.7302 119.09 25.7802 118.5 25.7802 118.5C23.9602 118.21 22.9902 116.62 22.9902 116.62C24.1902 116.88 25.2902 116.14 25.2902 116.14C23.8002 115.97 22.3802 114.15 22.3802 114.15C23.3702 114.76 24.6402 114.15 24.6402 114.15C22.9302 113.93 21.7102 111.55 21.7102 111.55C22.7602 112.27 23.8102 111.22 23.8102 111.22C21.7102 111.55 20.9402 107.85 20.9402 107.85C20.9402 107.85 20.1702 111.55 18.0702 111.22C18.0702 111.22 19.1202 112.27 20.1702 111.55C20.1702 111.55 18.9502 113.93 17.2402 114.15C17.2402 114.15 18.5102 114.76 19.5002 114.15C19.5002 114.15 18.0802 115.97 16.5902 116.14C16.5902 116.14 17.6902 116.88 18.8902 116.62C18.8902 116.62 17.9202 118.2 16.1002 118.5C16.1002 118.5 17.1502 119.09 18.5202 118.78C18.5202 118.78 16.0902 121.01 14.7902 120.99C14.7902 120.99 15.5402 121.73 17.2402 121.47C17.2402 121.47 15.4702 122.97 13.7402 123.18C13.7402 123.18 15.4902 124.01 16.8902 123.69C18.2902 123.37 18.4102 123.21 18.4102 123.21C18.4102 123.21 18.6302 123.53 18.4502 123.94C18.2702 124.35 18.0602 124.56 18.0602 124.56C18.0602 124.56 19.0602 124.4 19.8302 124.01C20.4302 123.7 20.5702 123.33 20.7502 123.28C21.1002 123.68 21.1802 123.77 21.7302 124.01C22.5402 124.37 23.9402 124.38 23.9402 124.38C23.9402 124.38 23.5402 124.01 23.3002 123.73C23.0302 123.42 22.9802 123.09 22.9802 123.09C22.9802 123.09 24.2002 123.53 25.1502 123.59C26.1002 123.65 28.1302 122.95 28.1302 122.95C26.4002 122.73 24.6302 121.46 24.6302 121.46L24.6402 121.47Z" fill="#005232"/>
<path d="M30.9096 105.01C30.9096 105.01 30.5296 104.56 30.5696 103.06C30.6096 101.73 32.0696 100.42 33.6996 101.38C33.6996 101.38 33.7896 99.5399 35.4896 99.6099C36.7996 99.6599 36.6896 101.02 36.6896 101.02C36.6896 101.02 38.5296 99.6499 39.5296 101.24C40.5296 102.83 39.3296 103.65 39.3296 103.65C39.3296 103.65 41.6096 103.12 41.8696 104.37C42.1296 105.62 41.0696 106.74 41.0696 106.74C41.0696 106.74 42.8496 105.13 43.7896 106.59C44.7296 108.05 43.5796 109.79 43.5796 109.79C43.5796 109.79 46.1696 108.8 46.2896 110.54C46.4096 112.28 45.5796 113.08 45.5796 113.08C45.5796 113.08 48.4996 111.78 48.3096 113.66C48.1196 115.54 47.7696 118.64 40.6496 120.41C34.6796 121.89 28.8296 123.54 27.6896 119.3C27.4696 118.48 27.3396 117.1 28.0996 116.58C28.0996 116.58 26.6996 116.25 26.1396 115.33C25.7596 114.7 25.8496 113.48 26.7296 113.16C26.7296 113.16 23.8696 111.39 26.0196 109.12C27.0796 108 28.5296 108.75 28.5296 108.75C28.5296 108.75 26.6196 106.44 27.7696 104.94C29.1896 103.09 30.1396 104.16 30.9096 105.02V105.01Z" fill="#168746"/>
<path d="M20.17 136.81C19.66 137.76 18.56 138.29 16.51 137.68C15.27 137.31 13.83 137.58 12.39 138.01C11.83 138.17 11.28 138.35 10.73 138.53C9.11 139.06 7.59 139.52 6.43 139.18C5.85 139.01 5.36 138.62 5 137.94C5 137.94 1.28 140.88 0 138.36V120.28C0.04 120.22 0.08 120.17 0.12 120.11C0.35 119.78 0.64 119.46 1 119.15C2.5 117.87 5.55 118.76 6.37 119.28C6.37 119.28 5.13 115.28 8.99 115.82C12.18 116.26 11.6 118.65 11.3 119.47C11.66 118.71 12.8 116.67 14.45 118C14.74 118.23 14.94 118.47 15.09 118.7C15.56 119.48 15.29 120.23 14.96 120.73C14.93 120.79 14.89 120.84 14.85 120.89C14.67 121.14 14.5 121.29 14.46 121.33C14.52 121.31 14.71 121.23 14.99 121.13C15.01 121.12 15.04 121.12 15.06 121.11C15.11 121.09 15.17 121.07 15.23 121.06C15.88 120.86 16.81 120.67 17.54 120.92C18.09 121.1 18.52 121.52 18.64 122.34C18.7 122.73 18.7 123.08 18.66 123.4C18.61 123.84 18.48 124.2 18.31 124.51C18.21 124.7 18.1 124.86 17.97 125C17.43 125.64 16.78 125.87 16.78 125.87C16.78 125.87 17.49 125.82 18.29 126.03C19.33 126.3 20.51 127.02 20.51 128.86C20.51 129.98 20.19 130.69 19.76 131.14C19.09 131.86 18.16 131.92 17.87 131.92C18.2 131.92 19.36 131.98 20.04 132.79C20.26 133.05 20.44 133.4 20.51 133.85C20.66 134.82 20.64 135.97 20.17 136.81Z" fill="#009141"/>
<path d="M50.0698 110.41C50.0698 110.41 48.5498 106.59 45.9198 108.63C43.2898 110.67 45.2298 108.91 41.9698 109.55C37.1198 110.5 38.8898 114.54 38.8898 114.54C38.8898 114.54 36.9598 114.6 36.0398 116.43C35.1298 118.26 37.9998 121.61 37.9998 121.61C37.9998 121.61 36.0198 122.44 35.8098 123.95C35.5998 125.46 39.5498 127.25 39.5498 127.25C39.5498 127.25 38.0798 129.61 38.7198 130.83C39.3598 132.05 41.4798 131.63 41.9698 131.95C42.4598 132.27 56.0398 130.43 56.0398 130.43C56.0398 130.43 57.9298 129.21 58.0698 128.2C58.1598 127.51 56.3698 127.13 56.8098 126.44C58.3398 124.04 61.1398 121.89 58.3098 121.05C56.7698 120.6 60.4398 119.39 59.5898 117.76C58.7398 116.13 56.7098 116 57.6998 114.17C58.4098 112.84 58.2198 111.55 55.6798 111.24C53.1398 110.93 53.5398 112.03 52.9098 111.74C52.2798 111.45 52.1898 108.66 50.0598 110.4L50.0698 110.41Z" fill="#008039"/>
<path d="M18.2898 126.04C18.2898 126.04 15.2698 117.69 20.9898 118.07C23.3498 118.22 23.0398 122.91 23.7998 119.35C24.3598 116.7 27.1498 112.98 30.1698 115.25C33.1898 117.52 31.8998 120 31.8998 120C31.8998 120 30.7098 121.73 32.1198 121.84C33.5298 121.95 36.3298 116.88 38.2798 120.33C40.2198 123.78 37.0898 123.46 38.3898 125.29C39.6898 127.12 41.2098 123.99 42.5998 126.05C43.9898 128.11 42.7098 129.4 42.5998 130.37C42.4898 131.34 42.5099 131.34 43.2399 132.42C43.9699 133.5 38.5998 138.36 36.7698 138.47C34.9398 138.58 24.4998 137.61 21.4498 137.15C16.5298 136.41 12.3598 129.83 18.2998 126.05L18.2898 126.04Z" fill="#007534"/>
<path d="M71.7997 128.54C73.9097 128.86 74.8497 127.94 74.8497 127.94C73.2297 127.96 70.1997 125.19 70.1997 125.19C71.9097 125.58 73.2097 124.84 73.2097 124.84C70.9397 124.47 69.7297 122.5 69.7297 122.5C71.2197 122.82 72.5897 121.9 72.5897 121.9C70.7297 121.69 68.9697 119.42 68.9697 119.42C70.2097 120.18 71.7897 119.42 71.7897 119.42C69.6597 119.14 68.1397 116.19 68.1397 116.19C69.4497 117.08 70.7497 115.78 70.7497 115.78C68.1397 116.19 67.1697 111.58 67.1697 111.58C67.1697 111.58 66.2097 116.19 63.5897 115.78C63.5897 115.78 64.8997 117.09 66.1997 116.19C66.1997 116.19 64.6897 119.15 62.5497 119.42C62.5497 119.42 64.1297 120.18 65.3697 119.42C65.3697 119.42 63.6097 121.69 61.7497 121.9C61.7497 121.9 63.1197 122.82 64.6097 122.5C64.6097 122.5 63.3997 124.47 61.1297 124.84C61.1297 124.84 62.4397 125.58 64.1397 125.19C64.1397 125.19 61.1197 127.97 59.4897 127.94C59.4897 127.94 60.4297 128.86 62.5397 128.54C62.5397 128.54 60.3397 130.4 58.1797 130.67C58.1797 130.67 60.3597 131.7 62.0997 131.31C63.8397 130.92 63.9897 130.71 63.9897 130.71C63.9897 130.71 64.2697 131.11 64.0397 131.62C63.8097 132.13 63.5597 132.39 63.5597 132.39C63.5597 132.39 64.7997 132.19 65.7597 131.7C66.5097 131.32 66.6797 130.86 66.9097 130.79C67.3397 131.29 67.4497 131.4 68.1297 131.7C69.1397 132.14 70.8797 132.16 70.8797 132.16C70.8797 132.16 70.3797 131.7 70.0897 131.35C69.7597 130.96 69.6897 130.56 69.6897 130.56C69.6897 130.56 71.1997 131.11 72.3897 131.18C73.5797 131.25 76.0997 130.39 76.0997 130.39C73.9397 130.12 71.7397 128.53 71.7397 128.53L71.7997 128.54Z" fill="#005937"/>
<path d="M12.7303 139.49C12.7303 139.49 11.1603 135.84 14.4303 133.03C16.2303 131.49 19.8903 132.56 20.8703 133.18C20.8703 133.18 19.3803 128.39 24.0103 129.03C28.6403 129.67 26.6503 133.74 26.6503 133.74C26.6503 133.74 28.1703 129.72 30.5603 131.65C32.9503 133.58 30.5603 135.66 30.5603 135.66C30.5603 135.66 35.1103 133.58 35.5903 136.86C36.0703 140.14 33.3503 141.09 33.3503 141.09C33.3503 141.09 37.8203 140.77 37.8203 144.68C37.8203 148.59 34.5503 148.35 34.5503 148.35C34.5503 148.35 37.4303 148.19 37.8203 150.67C38.2103 153.15 33.9603 160.6 29.3303 159.21C24.7003 157.82 21.5303 160 19.2203 155.57C19.2203 155.57 14.0303 159.69 12.9103 155.22C12.9103 155.22 8.43027 152.58 12.3503 148.51C12.3503 148.51 5.75027 141.48 12.7303 139.49Z" fill="#2E915B"/>
<path d="M62.9804 136.77C62.9804 136.77 61.4104 133.11 64.6904 130.3C66.4904 128.75 70.1604 129.83 71.1504 130.45C71.1504 130.45 69.6604 125.65 74.3004 126.29C78.9404 126.93 76.9404 131.01 76.9404 131.01C76.9404 131.01 78.4604 126.98 80.8604 128.91C83.2604 130.84 80.8604 132.93 80.8604 132.93C80.8604 132.93 85.4204 130.85 85.9004 134.13C86.3804 137.41 83.6604 138.37 83.6604 138.37C83.6604 138.37 88.1404 138.05 88.1404 141.97C88.1404 145.89 84.8604 145.65 84.8604 145.65C84.8604 145.65 87.7404 145.49 88.1404 147.97C88.5404 150.45 87.9804 153.96 83.3404 152.57C78.7004 151.18 71.8104 157.32 69.4904 152.89C69.4904 152.89 64.2904 157.02 63.1604 152.54C63.1604 152.54 58.6704 149.9 62.6004 145.81C62.6004 145.81 55.9804 138.76 62.9804 136.76V136.77Z" fill="#007334"/>
<path d="M0 143.49C0 143.49 11.32 132.2 15.92 143.44C16.86 145.73 16.51 150.33 16.51 150.33C16.51 150.33 17.89 148.08 20.94 148.29C24.77 148.55 28.85 153.83 24.51 157.4C24.51 157.4 34.47 157.66 31.02 163.91C27.57 170.16 26.93 168.76 26.93 168.76C26.93 168.76 32.59 168.63 31.74 171.44C30.89 174.25 26.55 176.04 26.55 176.04L0 176.29V143.49Z" fill="#12964C"/>
<path d="M44.6498 132.64C44.6498 132.64 45.7998 124.09 51.4198 127.02C57.0398 129.95 53.0798 128.93 58.9498 127.02C64.8198 125.11 67.4998 128.81 65.9698 131.23C64.4398 133.65 60.0998 134.47 62.2698 136.55C64.4398 138.63 68.5298 138.12 70.9498 141.44C73.3698 144.76 71.4598 147.18 71.2098 149.87C70.9598 152.56 73.5098 153.83 74.5298 156.83C75.5498 159.83 76.0598 162.76 71.9798 164.04C67.8998 165.32 68.0198 169.53 67.3798 172.34C66.7398 175.15 61.8898 175.28 61.1198 176.17C60.3498 177.06 42.2498 176.58 42.2498 176.58C42.2498 176.58 38.3098 174.99 37.6298 172.97C37.1698 171.6 40.2498 169.97 39.1598 168.76C35.3698 164.56 29.3998 161.48 34.1798 158.42C36.7798 156.75 29.6298 156.04 30.4798 152.29C31.3298 148.54 34.9498 147.32 32.3898 144.02C30.5398 141.64 30.3498 138.89 34.8198 137.04C39.2898 135.19 39.0298 137.63 40.0498 136.74C41.0698 135.85 40.0498 130.08 44.6498 132.63V132.64Z" fill="#008C3E"/>
<path d="M86.4603 151.05C86.4603 151.05 81.3003 144.74 75.4003 150.07C72.5203 152.68 73.7503 156.31 73.7503 156.31C73.7503 156.31 72.6903 154.58 70.3403 154.74C67.3903 154.94 64.2503 159 67.5903 161.75C67.5903 161.75 62.4903 161.26 62.5803 166.76C62.6103 168.89 65.7203 170.49 65.7203 170.49C65.7203 170.49 63.5003 170.23 63.4403 173.23C63.3903 175.49 66.0103 176.09 66.0103 176.09L86.4403 176.28V151.04L86.4603 151.05Z" fill="#14964D"/>
<path d="M81.9997 136.75C80.5597 133.57 77.2297 125.57 85.0597 125.91C92.8897 126.25 96.2897 132.89 101.91 130.51C107.53 128.13 110.76 127.62 112.97 132.38C115.18 137.14 111.1 138 116.54 139.7C121.98 141.4 125.56 140.04 128.28 144.64C131 149.24 128.79 150.94 130.66 154.34C132.53 157.74 135.94 157.23 137.64 162C139.34 166.77 137.93 168.79 141.33 169.47C144.73 170.15 146.15 170.51 146.15 172.55C146.15 174.59 144.65 178.58 136.98 178.48C121.6 178.29 118.4 177.5 118.4 177.5C118.4 177.5 83.4197 139.93 81.9797 136.75H81.9997Z" fill="#34A141"/>
<path d="M118.42 177.5C117.55 177.82 115.96 177.98 113.94 178.03C113.24 178.05 112.48 178.06 111.69 178.05C109.22 178.03 106.38 177.91 103.52 177.76L102.01 177.67C101.11 177.62 100.22 177.56 99.3501 177.51C97.0301 177.36 94.8501 177.21 92.9801 177.09H92.9701C92.9701 177.09 92.9601 177.1 92.9501 177.09C92.0501 177.03 91.2301 176.99 90.5101 176.95C83.3601 176.59 84.2101 174.42 84.2101 174.42V135.78C87.2601 135.31 89.8301 135.94 92.0901 137.05C92.6501 137.32 93.1901 137.63 93.7101 137.95C96.9301 139.94 99.5001 142.7 101.98 144.03C102.64 144.38 103.28 144.63 103.93 144.74C104.05 144.77 104.18 144.79 104.3 144.8C106.69 145.03 107.43 148.64 108.17 152.43C108.29 153.04 108.41 153.66 108.53 154.27C109.12 157.15 109.86 159.83 111.47 160.88C111.84 161.13 112.26 161.28 112.74 161.33C113.03 161.37 113.33 161.36 113.66 161.31C120.47 160.29 122.17 176.12 118.42 177.5Z" fill="#E3DA8D"/>
<path d="M99.3498 177.51C97.0298 177.36 94.8499 177.21 92.9799 177.09C97.5899 176.73 96.0398 168.86 96.0098 163.07C95.9598 151.41 92.0898 137.05 92.0898 137.05C92.6498 137.32 93.1898 137.63 93.7098 137.95C94.0298 141.61 94.8998 150.19 96.5198 158.09C97.7198 163.93 96.8399 172.29 97.1599 176.09C97.3399 178.25 100.02 176.9 99.3498 177.51Z" fill="#DED585"/>
<path d="M113.94 178.03C113.24 178.05 112.48 178.06 111.69 178.05C113.4 173.8 111.47 160.88 111.47 160.88C111.84 161.13 112.26 161.28 112.74 161.33C111.83 164.01 113.3 174.02 113.94 178.03Z" fill="#DED585"/>
<path d="M103.519 177.76C103.289 176.01 103.149 173.55 103.859 172.22C104.829 170.41 107.569 158.55 108.529 154.27C108.409 153.66 108.289 153.04 108.169 152.43C107.609 156.35 105.929 166.8 103.899 168.07C103.109 168.57 104.899 150.02 103.929 144.74C103.279 144.63 102.639 144.38 101.979 144.03C102.409 147.18 104.339 162.38 102.669 169.15C101.849 172.49 101.799 175.42 102.009 177.67L103.519 177.76Z" fill="#DED585"/>
<path d="M92.19 177.04C92.19 177.04 87.46 178.04 85.75 178C84.05 177.95 81.58 178.04 81.58 178.04H81.4L71.43 178.57H71.2C63.18 178.85 54.88 178.77 51.36 178C44.38 176.46 33.69 179.33 14.77 177.31C2 175.95 0 180.78 0 180.78V172.73C0 172.73 23.84 171.84 38.39 174.64C52.95 177.45 84.18 174.79 84.18 174.79C84.18 174.79 85.43 174.47 86.32 174.98C87.21 175.5 86.48 176.26 88.43 176.07C90.37 175.88 90.05 175.75 90.82 176.29C91.2 176.56 91.53 176.75 91.78 176.87H91.79C92.04 176.99 92.19 177.04 92.19 177.04Z" fill="#19B04E"/>
<path d="M45.3198 171.36C49.2298 171.96 50.9798 170.25 50.9798 170.25C47.9698 170.3 42.3598 165.14 42.3598 165.14C45.5198 165.86 47.9498 164.5 47.9498 164.5C43.7398 163.82 41.4898 160.17 41.4898 160.17C44.2598 160.77 46.7998 159.06 46.7998 159.06C43.3498 158.68 40.0798 154.46 40.0798 154.46C42.3798 155.86 45.3098 154.46 45.3098 154.46C41.3498 153.95 38.5398 148.46 38.5398 148.46C40.9698 150.12 43.3898 147.69 43.3898 147.69C38.5398 148.46 36.7498 139.9 36.7498 139.9C36.7498 139.9 34.9598 148.45 30.1098 147.69C30.1098 147.69 32.5398 150.12 34.9598 148.46C34.9598 148.46 32.1498 153.95 28.1898 154.46C28.1898 154.46 31.1298 155.86 33.4198 154.46C33.4198 154.46 30.1498 158.67 26.6998 159.06C26.6998 159.06 29.2498 160.76 32.0098 160.17C32.0098 160.17 29.7698 163.82 25.5498 164.5C25.5498 164.5 27.9798 165.87 31.1398 165.14C31.1398 165.14 25.5298 170.29 22.5198 170.25C22.5198 170.25 24.2598 171.95 28.1798 171.36C28.1798 171.36 24.0898 174.82 20.0898 175.32C20.0898 175.32 24.1398 177.23 27.3698 176.5C30.5898 175.77 30.8798 175.38 30.8798 175.38C30.8798 175.38 31.3898 176.11 30.9798 177.07C30.5698 178.03 30.0898 178.51 30.0898 178.51C30.0898 178.51 32.3898 178.15 34.1798 177.23C35.5698 176.52 35.8798 175.67 36.3198 175.54C37.1198 176.47 37.3198 176.68 38.5898 177.23C40.4598 178.05 43.6998 178.09 43.6998 178.09C43.6998 178.09 42.7698 177.23 42.2298 176.59C41.6198 175.87 41.4998 175.12 41.4998 175.12C41.4998 175.12 44.3098 176.14 46.5098 176.27C48.7098 176.4 53.3898 174.8 53.3898 174.8C49.3898 174.3 45.2998 171.35 45.2998 171.35L45.3198 171.36Z" fill="#006B42"/>
<path d="M135.22 164.96C135.22 164.96 134.87 160.79 136.5 158.15C137.61 156.35 140.41 155.56 141.86 156.11C145.43 157.47 149.01 160.37 150.37 156.62C151.73 152.87 151.39 150.32 154.97 153.73C158.55 157.14 158.03 156.19 159.57 159.21C161.11 162.23 163.83 162.33 167.23 162.11C170.63 161.89 173.19 160.36 172 163.42C170.81 166.48 170.81 167.68 170.81 167.68C170.81 167.68 173.02 168.36 173.36 170.23C173.7 172.1 172.42 173.29 172.3 173.8C172.18 174.31 171.49 176.73 164.85 176.71C158.21 176.69 142.38 177.34 139.32 176.68C136.26 176.01 128.26 171.93 135.23 164.95L135.22 164.96Z" fill="#14964D"/>
<path d="M169.1 166.7C169.1 166.7 165.53 156.84 172.29 157.28C175.07 157.46 174.72 163 175.61 158.79C176.27 155.66 179.57 151.26 183.14 153.94C186.71 156.62 185.18 159.56 185.18 159.56C185.18 159.56 183.78 161.6 185.44 161.73C187.1 161.86 190.42 155.87 192.72 159.95C195.02 164.03 191.32 163.65 192.85 165.82C194.38 167.99 196.18 164.29 197.83 166.71C199.48 169.13 197.96 170.67 197.83 171.82C197.7 172.97 197.72 172.97 198.59 174.25C199.46 175.53 190.17 174.51 188 174.63C185.83 174.75 174.57 176.05 170.96 175.51C165.15 174.63 162.09 171.19 169.11 166.72L169.1 166.7Z" fill="#128A47"/>
<path d="M163.88 173.95C166.91 174.41 168.26 173.09 168.26 173.09C165.93 173.13 161.59 169.14 161.59 169.14C164.04 169.7 165.91 168.64 165.91 168.64C162.65 168.11 160.92 165.29 160.92 165.29C163.06 165.75 165.03 164.43 165.03 164.43C162.36 164.13 159.83 160.88 159.83 160.88C161.61 161.97 163.88 160.88 163.88 160.88C160.82 160.49 158.65 156.24 158.65 156.24C160.53 157.52 162.4 155.65 162.4 155.65C158.65 156.24 157.27 149.63 157.27 149.63C157.27 149.63 155.89 156.24 152.14 155.65C152.14 155.65 154.02 157.53 155.89 156.24C155.89 156.24 153.72 160.48 150.66 160.88C150.66 160.88 152.93 161.97 154.71 160.88C154.71 160.88 152.18 164.14 149.51 164.43C149.51 164.43 151.48 165.75 153.62 165.29C153.62 165.29 151.88 168.12 148.63 168.64C148.63 168.64 150.51 169.7 152.95 169.14C152.95 169.14 148.61 173.12 146.28 173.09C146.28 173.09 147.63 174.41 150.66 173.95C150.66 173.95 147.5 176.62 144.41 177.01C144.41 177.01 147.54 178.49 150.04 177.92C152.54 177.35 152.75 177.06 152.75 177.06C152.75 177.06 153.14 177.63 152.82 178.37C152.5 179.11 152.13 179.48 152.13 179.48C152.13 179.48 153.91 179.2 155.29 178.49C156.37 177.94 156.61 177.28 156.94 177.18C157.56 177.9 157.71 178.06 158.69 178.49C160.13 179.13 162.64 179.16 162.64 179.16C162.64 179.16 161.92 178.49 161.5 178C161.03 177.44 160.93 176.86 160.93 176.86C160.93 176.86 163.1 177.65 164.8 177.75C166.5 177.85 170.12 176.61 170.12 176.61C167.03 176.22 163.87 173.94 163.87 173.94L163.88 173.95Z" fill="#006B42"/>
<path d="M172.11 28.64C172.11 28.64 172.17 28.56 172.25 28.48C172.21 28.56 172.16 28.61 172.11 28.64Z" fill="#EBFFFA"/>
<path d="M172.25 28.48C172.21 28.56 172.16 28.61 172.11 28.64C172.13 28.62 172.17 28.56 172.25 28.48Z" fill="#B0FFEB"/>
</svg>
