<svg width="57" height="124" viewBox="0 0 57 124" fill="none" xmlns="http://www.w3.org/2000/svg">
<mask id="mask0_24_29919" style="mask-type:luminance" maskUnits="userSpaceOnUse" x="0" y="0" width="57" height="124">
<path d="M56.41 0L0 123.49V0H56.41Z" fill="white"/>
</mask>
<g mask="url(#mask0_24_29919)">
<path d="M200 0H0V200H200V0Z" fill="#8CDCFF"/>
<path d="M200 104.8V131.14H0V90.04C0 90.04 0.72 90.06 2.04 90.08C2.84 90.1 3.87 90.12 5.09 90.14C5.32 90.14 5.55 90.15 5.8 90.15C9.1 90.2 13.62 90.24 18.87 90.23C19.56 90.23 20.26 90.23 20.97 90.22C23.7 90.21 26.59 90.18 29.58 90.13H29.59C30.42 90.12 31.24 90.11 32.08 90.09H32.09C39.73 89.93 47.89 89.62 55.59 89.06C59.94 88.75 64.13 88.35 67.99 87.86C69.26 87.7 70.49 87.53 71.69 87.34C71.69 87.33 71.7 87.34 71.7 87.34C72.43 87.23 73.15 87.11 73.84 86.99C73.85 86.98 73.87 86.98 73.87 86.98C74.86 86.81 75.81 86.63 76.73 86.44C78.36 86.1 79.87 85.73 81.23 85.33C81.94 85.12 82.61 84.91 83.23 84.68C85.78 83.75 88.71 83.22 91.91 83.02C96.51 82.73 101.65 83.1 106.97 83.92C126.55 86.94 148.53 95.99 154.47 100C163.15 105.87 182.19 111.53 200 104.8Z" fill="#5A9C99"/>
<path d="M200 157.23V161.04V162.08V168.32L199.97 176.29V177.14C199.97 177.14 172.39 175.61 171.03 177.14C169.76 178.58 169.23 180.17 152.62 179.38C152.49 179.37 152.36 179.37 152.23 179.36C151.24 179.31 150.18 179.26 149.07 179.19C145.41 178.97 141.26 178.73 136.88 178.48C130.92 178.14 124.54 177.79 118.44 177.5H118.43C116.88 177.43 115.34 177.36 113.83 177.29C113.2 177.26 112.58 177.24 111.96 177.22C108.95 177.09 106.07 176.98 103.44 176.91C102.94 176.9 102.44 176.88 101.96 176.87C100.31 176.83 98.77 176.81 97.37 176.8C96.18 176.78 95.08 176.79 94.1 176.8C93.24 176.81 92.47 176.83 91.8 176.87H91.79C91.32 176.89 90.89 176.92 90.52 176.95H90.5C89.93 177 89.48 177.06 89.16 177.14C87.85 177.46 85.09 177.77 81.59 178.04H81.41C78.45 178.27 74.98 178.46 71.44 178.57H71.21C63.19 178.85 54.89 178.77 51.37 178C49.09 177.5 46.41 177.46 43.18 177.57C42.23 177.61 41.23 177.65 40.18 177.71C37.8 177.82 35.14 177.96 32.16 178.02C32.15 178.03 32.14 178.03 32.14 178.03C31.6 178.04 31.05 178.05 30.49 178.05C25.99 178.1 20.8 177.95 14.78 177.31C2 175.95 0 180.78 0 180.78V101.84C0 101.84 0.42 101.76 1.21 101.62H1.22C3.48 101.22 8.75 100.31 15.95 99.2099C16.39 99.1399 16.84 99.0799 17.29 99.0099C18.47 98.8399 19.7 98.6599 20.97 98.4799C21.11 98.4499 21.25 98.4299 21.4 98.4099C26.67 97.6499 32.66 96.8499 39.06 96.0899C39.33 96.0599 39.61 96.0199 39.88 95.9899C44.04 95.5099 48.36 95.0399 52.78 94.6199C52.82 94.6199 52.87 94.6099 52.92 94.6099C59.31 93.9999 65.87 93.4999 72.37 93.1599C72.73 93.1399 73.1 93.1299 73.46 93.1099C77.21 92.9299 80.93 92.7999 84.57 92.7599C84.62 92.7499 84.67 92.7499 84.71 92.7599C86.23 92.7299 87.72 92.7199 89.2 92.7399C89.22 92.7299 89.25 92.7299 89.27 92.7399C92.27 92.7499 95.21 92.8199 98.05 92.9599C103.47 93.2099 108.54 93.6999 113.07 94.4999C114.89 94.8099 116.62 95.1799 118.25 95.5899C119.07 95.7999 119.86 96.0199 120.62 96.2499C120.75 96.2999 120.88 96.3399 121.01 96.3799C121.61 96.5699 122.2 96.7699 122.77 96.9799C125.1 97.8299 127.14 98.8399 128.81 100.01C130.62 101.27 132.38 102.61 134.1 104C134.24 104.11 134.37 104.21 134.5 104.32C136.35 105.82 138.15 107.39 139.93 109C144.77 113.41 149.38 118.16 153.98 122.94C154.7 123.69 155.43 124.44 156.15 125.19C156.56 125.62 156.97 126.04 157.38 126.46C158.89 128.04 160.42 129.6 161.96 131.15C162.84 132.04 163.72 132.92 164.6 133.79C166.93 136.07 169.29 138.3 171.72 140.42C171.87 140.56 172.02 140.69 172.18 140.82C176.7 144.75 181.43 148.33 186.55 151.31C190.75 153.74 195.2 155.77 200 157.24V157.23Z" fill="#2C9C5D"/>
<path d="M46.08 40.5801C44.8 42.1401 43.22 42.7301 43.22 42.7301C43.22 42.7301 47.44 46.4101 42.2 50.2401C32.04 57.6801 25.38 51.4301 25.38 51.4301C25.38 51.4301 25.05 53.4001 23.23 55.4001C21.37 57.4701 17.94 59.5801 11.69 59.6401C6.38 59.6901 0.23 59.1901 1.72 54.9201C1.72 54.9201 1.06 55.3201 0 55.8301V27.6101C1.67 26.2601 4.23 25.0601 8.19 24.5501C14.3 23.7601 15.25 26.9801 15.25 26.9801C15.25 26.9801 16.79 23.3001 23.26 23.5001C29.76 23.7001 29.48 28.2301 29.48 28.2301C29.48 28.2301 39.98 18.7101 45.68 29.2001C48.87 35.0701 47.72 38.6101 46.08 40.5801Z" fill="white"/>
<path d="M25.0297 47.1601C25.0297 47.1601 23.1697 41.9501 31.3897 41.0001C36.7997 40.3801 38.4597 44.4601 38.4597 44.4601C38.4597 44.4601 39.5297 39.3401 45.3097 40.3801C49.0197 41.0401 50.1597 45.2201 49.5797 45.6701C49.5797 45.6701 52.6197 40.7301 56.7097 42.8201C60.7997 44.9101 57.0397 48.9901 57.0397 48.9901C57.0397 48.9901 61.2597 48.2101 61.0797 52.5401C60.9497 55.8201 56.3397 57.9001 53.0797 55.1601C53.0797 55.1601 49.6997 63.2101 42.3497 57.6001C42.3497 57.6001 41.9097 60.7401 38.2297 60.9101C37.1397 60.9601 34.5697 60.8201 34.3897 58.4601C34.3897 58.4601 32.9897 61.0901 29.4897 60.7101C26.7597 60.4101 23.8897 58.0201 25.5897 55.6301C25.5897 55.6301 20.8097 56.3301 20.6097 51.4901C20.4497 47.6201 23.4097 46.8201 25.0397 47.1601H25.0297Z" fill="#E6FAFF"/>
<path d="M53.2502 49.93L50.2002 47.95H53.5002L53.2502 49.93Z" fill="#AD5A62"/>
<path d="M77.2496 46.9399H52.8896V68.9499H77.2496V46.9399Z" fill="#CCD98D"/>
<path d="M31.9102 63.5999V70.5799H35.4502V63.5999C35.4502 63.5999 34.5402 63.2299 34.3102 62.9999C34.0802 62.7699 32.9802 62.9599 32.7502 63.1499C32.5202 63.3399 32.3702 63.4699 31.9102 63.5899V63.5999Z" fill="#BAC294"/>
<path d="M84.0296 70.65V102.13L55.4696 101.71L24.5596 101.25V70.2L84.0296 70.65Z" fill="#DAE3AD"/>
<path d="M32.1396 70.2199L44.5496 63.5999H84.3796L84.0396 70.6499L32.1396 70.2199Z" fill="#C4805A"/>
<path d="M50.2002 47.95L64.7702 34.2L78.3202 47.95H50.2002Z" fill="#CC9272"/>
<path d="M34.6205 76.2998H32.7305V80.4498H34.6205V76.2998Z" fill="#5264A1"/>
<path d="M46.3998 76.2998H44.5098V80.4498H46.3998V76.2998Z" fill="#5264A1"/>
<path d="M58.1703 76.2998H56.2803V80.4498H58.1703V76.2998Z" fill="#5264A1"/>
<path d="M34.6205 86.1599H32.7305V90.3099H34.6205V86.1599Z" fill="#5264A1"/>
<path d="M46.3998 86.1599H44.5098V90.3099H46.3998V86.1599Z" fill="#5264A1"/>
<path d="M58.1703 86.1599H56.2803V90.3099H58.1703V86.1599Z" fill="#5264A1"/>
<path d="M28.0996 70.5699V65.8899H29.9996C29.9996 65.8899 30.0396 66.9799 30.4596 67.1199V70.5699H28.0996Z" fill="#DAE3AD"/>
<path opacity="0.68" d="M16.6902 43.73H11.2402V49.28H16.6902V43.73Z" fill="#DAE3AD"/>
<path d="M12.5598 44.2898H11.7598V46.7898H12.5598V44.2898Z" fill="#5264A1"/>
<g style="mix-blend-mode:multiply" opacity="0.21">
<path d="M55.4696 101.71L24.5596 101.26V88.4499L25.0096 75.6299C25.0096 75.6299 33.3596 84.4599 38.7396 85.4199C44.1196 86.3799 41.6896 92.7299 44.9796 94.5999C48.2796 96.4799 55.5196 96.4399 57.2296 100.18C57.4996 100.79 56.8196 101.29 55.4796 101.71H55.4696Z" fill="#DAE3AD"/>
</g>
<path d="M15.3098 44.2898H14.5098V46.7898H15.3098V44.2898Z" fill="#5264A1"/>
<path d="M25.01 57.7798H0V108.1H25.01V57.7798Z" fill="#CCD98D"/>
<g style="mix-blend-mode:multiply" opacity="0.29">
<path d="M25.01 56.4698V58.6998C25.01 58.6998 19.45 59.7198 16.04 59.6598C9.74 59.5598 3.62 58.7898 3.02 59.7698C2.92 59.9298 2.83 60.2498 2.75 60.6998C2.65 61.1098 2.57 61.6298 2.49 62.2498C1.76 67.5298 3.83 80.5598 4.39 84.9598C5.07 90.4498 10.63 100.69 6.47 108.1H0V55.5098L25.01 56.4798V56.4698Z" fill="#C8CCB1"/>
</g>
<path d="M27.35 57.7798C27.35 57.7798 26.12 57.9098 24.31 58.0998C22.38 58.2898 19.77 58.5298 17.3 58.6998C15.55 58.8198 13.85 58.8998 12.51 58.8998C7.51 58.8998 0 58.4398 0 58.4398V55.3598L11.25 47.1898L11.81 46.7798L12.56 46.2298L12.86 46.0198L16.69 49.1198L27.35 57.7798Z" fill="#CC9272"/>
<path d="M17.97 43.7298H10.04C10.31 42.4998 11.9 42.3998 11.9 42.3998H11.91C12.02 42.3998 12.85 42.3898 13.79 42.3898C14.71 42.3798 15.73 42.3798 16.3 42.3898C16.35 42.3998 16.39 42.3998 16.44 42.3998C17.5 42.4598 17.97 43.7298 17.97 43.7298Z" fill="#CC9272"/>
<path d="M16.31 42.3898H13.85L11.92 42.4098C11.26 39.4398 13.49 39.1398 13.49 39.1398L13.85 35.0298L14.02 33.0398L14.63 39.1398C16.69 39.3098 16.31 42.3798 16.31 42.3798V42.3898Z" fill="#CC9272"/>
<path d="M14.0498 42.4598C14.0498 42.4598 11.7498 42.6198 11.2398 43.7298H10.0498C10.3198 42.4998 11.9098 42.3998 11.9098 42.3998H11.9198C11.2598 39.4398 13.4898 39.1398 13.4898 39.1398L13.8498 35.0298C13.8498 35.2898 13.7798 38.9598 13.9098 39.1798C13.9098 39.1798 13.0998 39.6798 12.9698 40.4498C12.7698 41.5898 13.3698 42.1798 13.7998 42.3898C13.8198 42.3898 13.8398 42.3998 13.8498 42.3998C13.9198 42.4398 13.9898 42.4498 14.0498 42.4598Z" fill="#C28665"/>
<path d="M6.44977 71.48H4.00977V76.84H6.44977V71.48Z" fill="#5264A1"/>
<path d="M17.6099 71.48H15.1699V76.84H17.6099V71.48Z" fill="#5264A1"/>
<g style="mix-blend-mode:multiply" opacity="0.68">
<path d="M25.01 60.9099V62.2599C25.01 62.2599 17.73 63.6899 12.51 63.5999C6.09 63.4799 0 62.2599 0 62.2599V60.6899C0 60.6899 8.3 62.1499 12.5 62.1399C17.35 62.1399 25 60.9099 25 60.9099H25.01Z" fill="#D5DEA9"/>
</g>
<path d="M24.3104 58.1098C22.3804 58.2998 19.7704 58.5398 17.3004 58.7098L12.8604 46.0298L24.3104 58.1098Z" fill="#E8A682"/>
<path d="M17.29 99C17.17 99.33 17.05 99.64 16.93 99.92C16.57 100.76 16.23 101.32 16 101.33C15.47 101.36 6.76 103.31 2.69 104.61C1.65 104.94 0.91 105.23 0.69 105.44C0.41 105.7 0.18 105.79 0 105.75V91.15C0.81 91.28 1.49 91.82 1.49 91.82C1.49 91.82 1.55 90.79 2.04 90.07C2.35 89.62 2.82 89.29 3.54 89.41C4.35 89.55 4.82 89.84 5.09 90.13C5.43 90.5 5.44 90.87 5.44 90.87C5.44 90.87 5.54 90.49 5.8 90.14C6.02 89.84 6.34 89.55 6.83 89.53C6.61 89.26 5.38 87.57 7.11 86.5C8.55 85.63 9.23 86.92 9.23 86.92C9.23 86.92 9.15 84.15 11.5 84.23C13.33 84.3 13.35 86.73 13.35 86.73C13.35 86.73 15.57 85.15 16.5 86.81C17.36 88.34 16.69 89.08 16.58 89.2C16.75 89.13 17.97 88.65 18.59 89.57C18.75 89.81 18.84 90.02 18.87 90.22C19 90.85 18.63 91.3 18.59 91.66C18.5567 91.9666 18.66 92.2966 18.9 92.65C19.13 92.99 18.21 96.54 17.29 98.99V99Z" fill="#00692E"/>
<path d="M22.2404 96.3899C23.8004 96.6499 24.5004 95.9199 24.5004 95.9199C23.3004 95.9399 21.0604 93.7299 21.0604 93.7299C22.3204 94.0399 23.2904 93.4499 23.2904 93.4499C21.6104 93.1599 20.7104 91.5899 20.7104 91.5899C21.8104 91.8499 22.8304 91.1199 22.8304 91.1199C21.4504 90.9599 20.1504 89.1499 20.1504 89.1499C21.0704 89.7499 22.2404 89.1499 22.2404 89.1499C20.6604 88.9299 19.5404 86.5799 19.5404 86.5799C20.5104 87.2899 21.4804 86.2499 21.4804 86.2499C19.5404 86.5799 18.8304 82.9099 18.8304 82.9099C18.8304 82.9099 18.1204 86.5699 16.1804 86.2499C16.1804 86.2499 17.1504 87.2899 18.1204 86.5799C18.1204 86.5799 17.0004 88.9299 15.4204 89.1499C15.4204 89.1499 16.5904 89.7499 17.5104 89.1499C17.5104 89.1499 16.2004 90.9499 14.8304 91.1199C14.8304 91.1199 15.8504 91.8499 16.9504 91.5899C16.9504 91.5899 16.0504 93.1499 14.3704 93.4499C14.3704 93.4499 15.3404 94.0399 16.6004 93.7299C16.6004 93.7299 14.3604 95.9399 13.1604 95.9199C13.1604 95.9199 13.8604 96.6499 15.4204 96.3899C15.4204 96.3899 13.7904 97.8699 12.1904 98.0899C12.1904 98.0899 13.8104 98.9099 15.0904 98.5999C16.3704 98.2899 16.4904 98.1199 16.4904 98.1199C16.4904 98.1199 16.6904 98.4299 16.5304 98.8399C16.3704 99.2499 16.1704 99.4599 16.1704 99.4599C16.1704 99.4599 17.0904 99.2999 17.8004 98.9099C18.3504 98.5999 18.4804 98.2399 18.6504 98.1799C18.9704 98.5799 19.0504 98.6699 19.5504 98.9099C20.2904 99.2599 21.5904 99.2799 21.5904 99.2799C21.5904 99.2799 21.2204 98.9099 21.0004 98.6399C20.7604 98.3299 20.7104 98.0099 20.7104 98.0099C20.7104 98.0099 21.8304 98.4499 22.7104 98.4999C23.5904 98.5499 25.4604 97.8699 25.4604 97.8699C23.8604 97.6599 22.2304 96.3899 22.2304 96.3899H22.2404Z" fill="#005937"/>
<path d="M15.4399 100.37C15.4399 100.37 12.6299 97.8398 15.0799 96.8098C16.0899 96.3798 16.8399 98.2098 16.4899 96.7098C16.2299 95.5898 16.6999 93.6198 18.3799 93.8498C20.0599 94.0798 19.9799 95.2898 19.9799 95.2898C19.9799 95.2898 19.8099 96.1898 20.4099 95.9398C21.0099 95.6898 21.2399 93.1998 22.6999 94.1098C24.1599 95.0198 22.7899 95.5298 23.6699 95.9598C24.5499 96.3898 24.5999 94.8898 25.5699 95.3798C26.5399 95.8698 26.2399 96.6198 26.3699 97.0098C26.4999 97.3998 26.6299 97.2398 27.0199 97.6498C30.4699 101.33 22.2499 105.35 21.4999 105.77C20.7499 106.19 19.8599 105.22 18.4999 105.67C16.3099 106.4 13.6599 103.02 15.4299 100.38L15.4399 100.37Z" fill="#00633D"/>
<path d="M33.3895 91.6598C33.3895 91.6598 31.0095 85.0798 35.5195 85.3798C37.3795 85.4998 37.1395 89.1898 37.7295 86.3898C38.1695 84.2998 40.3695 81.3698 42.7495 83.1598C45.1295 84.9498 44.1095 86.8998 44.1095 86.8998C44.1095 86.8998 43.1695 88.2598 44.2795 88.3498C45.3895 88.4398 47.5995 84.4398 49.1295 87.1598C50.6595 89.8798 48.1895 89.6198 49.2195 91.0698C50.2495 92.5198 51.4395 90.0498 52.5395 91.6698C53.6395 93.2898 52.6295 94.3098 52.5395 95.0698C52.4495 95.8298 52.4695 95.8398 53.0495 96.6898C53.6295 97.5398 49.3995 101.37 47.9495 101.45C46.4995 101.53 38.2795 100.77 35.8795 100.41C32.0095 99.8198 28.7195 94.6498 33.3995 91.6698L33.3895 91.6598Z" fill="#007534"/>
<path d="M53.4104 106.66C53.4104 106.66 58.0604 101.91 54.5504 100.86C54.5504 100.86 55.8604 95.2398 52.5104 95.4898C52.5104 95.4898 54.4104 90.1798 51.1804 90.6698C47.9504 91.1598 47.8604 92.6298 47.8604 92.6298C47.8604 92.6298 47.4504 88.6298 44.8404 90.3498C42.2304 92.0698 43.8504 94.1798 43.8504 94.1798C43.8504 94.1798 40.9004 92.1698 39.2904 95.4998C37.6704 98.8298 41.5704 98.2998 41.5704 98.2998C41.5704 98.2998 38.0604 98.4998 39.4504 100.87C40.8404 103.24 42.5504 102.82 42.5504 102.82C42.5504 102.82 39.3104 103.77 40.5104 105.68C41.7104 107.59 43.5304 108.54 45.7304 107.32C47.9304 106.1 53.4004 106.67 53.4004 106.67L53.4104 106.66Z" fill="#00692E"/>
<path d="M66.0601 87.8099C66.0601 87.8099 64.6501 84.2699 62.2101 86.1599C59.7701 88.0499 61.5702 86.4199 58.5502 87.0099C54.0502 87.8899 55.6901 91.6399 55.6901 91.6399C55.6901 91.6399 53.9002 91.6999 53.0502 93.3999C52.2002 95.0999 54.8701 98.2099 54.8701 98.2099C54.8701 98.2099 53.0302 98.9799 52.8302 100.39C52.6302 101.8 56.3002 103.46 56.3002 103.46C56.3002 103.46 54.9401 105.65 55.5301 106.79C56.1201 107.93 58.0902 107.53 58.5502 107.83C59.0102 108.13 71.6102 106.42 71.6102 106.42C71.6102 106.42 73.3702 105.29 73.5002 104.35C73.5902 103.71 71.9302 103.36 72.3302 102.71C73.7502 100.48 76.3502 98.4799 73.7202 97.7099C72.2902 97.2899 75.7002 96.1699 74.9102 94.6599C74.1202 93.1499 72.2402 93.0299 73.1502 91.3199C73.8102 90.0899 73.6301 88.8899 71.2701 88.5999C68.9101 88.3099 69.2802 89.3299 68.6902 89.0599C68.1002 88.7899 68.0302 86.1999 66.0502 87.8199L66.0601 87.8099Z" fill="#008039"/>
<path d="M38.92 108.44C38.92 108.44 35.9 100.09 41.62 100.47C43.98 100.62 43.67 105.31 44.43 101.75C44.99 99.1 47.78 95.38 50.8 97.65C53.82 99.92 52.53 102.4 52.53 102.4C52.53 102.4 51.34 104.13 52.75 104.24C54.16 104.35 56.96 99.28 58.91 102.73C60.85 106.18 57.72 105.86 59.02 107.69C60.32 109.52 61.84 106.39 63.23 108.45C64.62 110.51 63.34 111.8 63.23 112.77C63.12 113.74 63.14 113.74 63.87 114.82C64.6 115.9 55.71 118.86 53.87 118.96C52.03 119.06 45.13 120 42.07 119.54C37.15 118.8 32.98 112.22 38.92 108.44Z" fill="#138F49"/>
<path d="M66.0504 101.59C66.0504 101.59 68.1004 97.7698 71.1904 99.3198C74.2804 100.87 72.7404 102.98 72.7404 102.98C72.7404 102.98 74.9604 100.65 76.8404 102.98C78.7204 105.31 75.3204 107.62 75.3204 107.62C75.3204 107.62 80.5804 105.12 81.2004 109.14C81.8204 113.16 78.2104 115.43 78.2104 115.43C78.2104 115.43 82.6504 114.5 82.9604 117.7C83.2704 120.9 81.3504 124.51 79.5204 124.1C79.5204 124.1 82.3404 126.95 75.4204 126.97C68.5004 126.99 53.9004 128.71 53.6204 126.3C53.3404 123.89 55.7404 122.55 55.7404 122.55C55.7404 122.55 52.1904 121.21 55.1904 118.42C55.1904 118.42 52.5804 112.74 58.3904 113.23C58.3904 113.23 54.7004 111.3 57.0504 109.13C57.0504 109.13 54.0604 104.46 58.1904 103.49C62.3204 102.52 62.7304 104.48 62.7304 104.48C62.7304 104.48 61.9404 99.5298 66.0504 101.59Z" fill="#15874A"/>
<path d="M22.9605 97.6399C22.9605 97.6399 21.8005 94.9499 24.2205 92.8699C25.5505 91.7299 28.2505 92.5199 28.9805 92.9799C28.9805 92.9799 27.8805 89.4399 31.3005 89.9099C34.7205 90.3799 33.2505 93.3899 33.2505 93.3899C33.2505 93.3899 34.3705 90.4199 36.1405 91.8499C37.9105 93.2799 36.1405 94.8099 36.1405 94.8099C36.1405 94.8099 39.5005 93.2799 39.8605 95.6999C40.2205 98.1199 38.2105 98.8299 38.2105 98.8299C38.2105 98.8299 41.5105 98.5899 41.5105 101.49C41.5105 104.39 39.0905 104.2 39.0905 104.2C39.0905 104.2 41.2105 104.08 41.5105 105.91C41.8105 107.74 41.3905 110.33 37.9705 109.3C34.5505 108.27 29.4705 112.8 27.7605 109.53C27.7605 109.53 23.9205 112.58 23.1005 109.27C23.1005 109.27 19.7905 107.32 22.6805 104.31C22.6805 104.31 17.8105 99.1199 22.9605 97.6399Z" fill="#2E915B"/>
<path d="M20.24 109.76C20.07 110.55 19.75 111.28 19.37 111.81C18.92 112.43 18.37 112.79 17.83 112.67C17.83 112.67 18.39 113.23 18.22 113.78C18.15 113.98 18 114.16 17.71 114.32C17.32 114.54 16.67 114.7 15.64 114.77C15.39 114.78 15.11 114.79 14.8 114.79C14.49 114.79 14.16 114.8 13.81 114.81C9.59 114.91 2.83 115.56 0 115.04V111.69C0.16 111.58 0.26 111.52 0.26 111.52C0.26 111.52 0.15 111.48 0 111.4V105.11C0.35 104.81 0.89 104.62 1.71 104.62C1.87 104.62 2.03 104.63 2.21 104.64C2.21 104.64 2.2 104.64 2.17 104.62C1.84 104.43 -0.37 103.11 1.21 101.62H1.22C1.22 101.62 -0.99 98.1598 2.06 97.4498C4.77 96.8098 5.32 97.8898 5.41 98.1298C5.36 97.6998 5.05 94.6298 7.87 96.0398C7.87 96.0398 9.38 93.2198 11.67 94.3598C13.96 95.5098 12.82 97.0598 12.82 97.0598C12.82 97.0598 14.46 95.3398 15.85 97.0598C16.47 97.8298 16.31 98.5998 15.95 99.2098C15.57 99.8498 14.97 100.32 14.78 100.46C15.03 100.35 15.98 99.9598 16.93 99.9298C17.89 99.8898 18.85 100.22 19.07 101.61C19.26 102.85 18.91 103.86 18.43 104.62C18.34 104.77 18.24 104.91 18.14 105.04C17.53 105.84 16.86 106.26 16.86 106.26C16.86 106.26 20.14 105.57 20.37 107.94C20.43 108.55 20.37 109.17 20.24 109.76Z" fill="#15874A"/>
<path d="M14.2198 119.95C14.1998 120.09 14.2898 120.2 14.4098 120.31C14.4198 120.31 14.4198 120.31 14.4298 120.33C14.5798 120.46 14.7998 120.6 14.9598 120.73C15.0498 120.8 15.1198 120.87 15.1698 120.94C15.1998 120.97 15.2198 121.01 15.2298 121.05C15.2298 121.05 15.2598 121.15 15.2498 121.2C15.2498 121.22 15.2498 121.25 15.2498 121.27C15.2498 121.28 15.2398 121.28 15.2398 121.29C15.0398 122.06 13.6798 122.94 13.6798 122.94C13.6798 122.94 3.08977 124.37 2.70977 124.12C2.31977 123.87 0.659766 124.2 0.169766 123.24C-0.330234 122.29 0.819766 120.45 0.819766 120.45C0.819766 120.45 0.529766 120.32 0.129766 120.11C0.0897656 120.08 0.0497656 120.06 0.00976562 120.04V110.57C0.189766 110.53 0.299766 110.53 0.299766 110.53C0.299766 110.53 -1.08023 107.37 2.69977 106.63C5.23977 106.14 3.72977 107.51 5.77977 105.92C7.82977 104.33 9.00977 107.3 9.00977 107.3C10.6798 105.95 10.7398 108.12 11.2398 108.35C11.7298 108.57 11.4198 107.72 13.3998 107.96C13.5098 107.97 13.6098 107.99 13.7098 108.01C15.3898 108.32 15.4998 109.28 14.9798 110.25C14.9698 110.27 14.9598 110.29 14.9398 110.31C14.8098 110.59 14.7598 110.81 14.7798 111C14.8498 111.77 15.9298 112.04 16.4498 113.04C16.7998 113.72 16.1498 114.3 15.6498 114.76C15.2098 115.15 14.8898 115.44 15.4498 115.61C17.2098 116.13 16.1898 117.29 15.0998 118.69C14.8198 119.05 14.5298 119.43 14.2798 119.81C14.2498 119.86 14.2298 119.89 14.2298 119.94L14.2198 119.95Z" fill="#008039"/>
<path d="M18.3897 123.52C18.3897 123.52 11.4998 119.96 15.0098 117.51C15.0098 117.51 11.5098 111.77 15.3098 110.81C15.3098 110.81 11.2597 105.63 15.0297 104.99C18.7997 104.35 19.4197 105.94 19.4197 105.94C19.4197 105.94 18.4098 101.37 21.9298 102.31C25.4498 103.25 24.4198 106.19 24.4198 106.19C24.4198 106.19 26.9498 102.89 29.9498 105.98C32.9498 109.08 28.4398 109.92 28.4398 109.92C28.4398 109.92 32.3997 108.86 31.7297 111.99C31.0597 115.12 29.0098 115.29 29.0098 115.29C29.0098 115.29 32.9397 115.16 32.3197 117.72C31.6997 120.28 30.0197 121.99 27.1297 121.44C24.2397 120.89 18.3997 123.52 18.3997 123.52H18.3897Z" fill="#00692E"/>
<path d="M24.6402 121.47C26.3302 121.73 27.0902 120.99 27.0902 120.99C25.7902 121.01 23.3602 118.78 23.3602 118.78C24.7302 119.09 25.7802 118.5 25.7802 118.5C23.9602 118.21 22.9902 116.62 22.9902 116.62C24.1902 116.88 25.2902 116.14 25.2902 116.14C23.8002 115.97 22.3802 114.15 22.3802 114.15C23.3702 114.76 24.6402 114.15 24.6402 114.15C22.9302 113.93 21.7102 111.55 21.7102 111.55C22.7602 112.27 23.8102 111.22 23.8102 111.22C21.7102 111.55 20.9402 107.85 20.9402 107.85C20.9402 107.85 20.1702 111.55 18.0702 111.22C18.0702 111.22 19.1202 112.27 20.1702 111.55C20.1702 111.55 18.9502 113.93 17.2402 114.15C17.2402 114.15 18.5102 114.76 19.5002 114.15C19.5002 114.15 18.0802 115.97 16.5902 116.14C16.5902 116.14 17.6902 116.88 18.8902 116.62C18.8902 116.62 17.9202 118.2 16.1002 118.5C16.1002 118.5 17.1502 119.09 18.5202 118.78C18.5202 118.78 16.0902 121.01 14.7902 120.99C14.7902 120.99 15.5402 121.73 17.2402 121.47C17.2402 121.47 15.4702 122.97 13.7402 123.18C13.7402 123.18 15.4902 124.01 16.8902 123.69C18.2902 123.37 18.4102 123.21 18.4102 123.21C18.4102 123.21 18.6302 123.53 18.4502 123.94C18.2702 124.35 18.0602 124.56 18.0602 124.56C18.0602 124.56 19.0602 124.4 19.8302 124.01C20.4302 123.7 20.5702 123.33 20.7502 123.28C21.1002 123.68 21.1802 123.77 21.7302 124.01C22.5402 124.37 23.9402 124.38 23.9402 124.38C23.9402 124.38 23.5402 124.01 23.3002 123.73C23.0302 123.42 22.9802 123.09 22.9802 123.09C22.9802 123.09 24.2002 123.53 25.1502 123.59C26.1002 123.65 28.1302 122.95 28.1302 122.95C26.4002 122.73 24.6302 121.46 24.6302 121.46L24.6402 121.47Z" fill="#005232"/>
<path d="M30.9096 105.01C30.9096 105.01 30.5296 104.56 30.5696 103.06C30.6096 101.73 32.0696 100.42 33.6996 101.38C33.6996 101.38 33.7896 99.5399 35.4896 99.6099C36.7996 99.6599 36.6896 101.02 36.6896 101.02C36.6896 101.02 38.5296 99.6499 39.5296 101.24C40.5296 102.83 39.3296 103.65 39.3296 103.65C39.3296 103.65 41.6096 103.12 41.8696 104.37C42.1296 105.62 41.0696 106.74 41.0696 106.74C41.0696 106.74 42.8496 105.13 43.7896 106.59C44.7296 108.05 43.5796 109.79 43.5796 109.79C43.5796 109.79 46.1696 108.8 46.2896 110.54C46.4096 112.28 45.5796 113.08 45.5796 113.08C45.5796 113.08 48.4996 111.78 48.3096 113.66C48.1196 115.54 47.7696 118.64 40.6496 120.41C34.6796 121.89 28.8296 123.54 27.6896 119.3C27.4696 118.48 27.3396 117.1 28.0996 116.58C28.0996 116.58 26.6996 116.25 26.1396 115.33C25.7596 114.7 25.8496 113.48 26.7296 113.16C26.7296 113.16 23.8696 111.39 26.0196 109.12C27.0796 108 28.5296 108.75 28.5296 108.75C28.5296 108.75 26.6196 106.44 27.7696 104.94C29.1896 103.09 30.1396 104.16 30.9096 105.02V105.01Z" fill="#168746"/>
<path d="M20.17 136.81C19.66 137.76 18.56 138.29 16.51 137.68C15.27 137.31 13.83 137.58 12.39 138.01C11.83 138.17 11.28 138.35 10.73 138.53C9.11 139.06 7.59 139.52 6.43 139.18C5.85 139.01 5.36 138.62 5 137.94C5 137.94 1.28 140.88 0 138.36V120.28C0.04 120.22 0.08 120.17 0.12 120.11C0.35 119.78 0.64 119.46 1 119.15C2.5 117.87 5.55 118.76 6.37 119.28C6.37 119.28 5.13 115.28 8.99 115.82C12.18 116.26 11.6 118.65 11.3 119.47C11.66 118.71 12.8 116.67 14.45 118C14.74 118.23 14.94 118.47 15.09 118.7C15.56 119.48 15.29 120.23 14.96 120.73C14.93 120.79 14.89 120.84 14.85 120.89C14.67 121.14 14.5 121.29 14.46 121.33C14.52 121.31 14.71 121.23 14.99 121.13C15.01 121.12 15.04 121.12 15.06 121.11C15.11 121.09 15.17 121.07 15.23 121.06C15.88 120.86 16.81 120.67 17.54 120.92C18.09 121.1 18.52 121.52 18.64 122.34C18.7 122.73 18.7 123.08 18.66 123.4C18.61 123.84 18.48 124.2 18.31 124.51C18.21 124.7 18.1 124.86 17.97 125C17.43 125.64 16.78 125.87 16.78 125.87C16.78 125.87 17.49 125.82 18.29 126.03C19.33 126.3 20.51 127.02 20.51 128.86C20.51 129.98 20.19 130.69 19.76 131.14C19.09 131.86 18.16 131.92 17.87 131.92C18.2 131.92 19.36 131.98 20.04 132.79C20.26 133.05 20.44 133.4 20.51 133.85C20.66 134.82 20.64 135.97 20.17 136.81Z" fill="#009141"/>
<path d="M50.0698 110.41C50.0698 110.41 48.5498 106.59 45.9198 108.63C43.2898 110.67 45.2298 108.91 41.9698 109.55C37.1198 110.5 38.8898 114.54 38.8898 114.54C38.8898 114.54 36.9598 114.6 36.0398 116.43C35.1298 118.26 37.9998 121.61 37.9998 121.61C37.9998 121.61 36.0198 122.44 35.8098 123.95C35.5998 125.46 39.5498 127.25 39.5498 127.25C39.5498 127.25 38.0798 129.61 38.7198 130.83C39.3598 132.05 41.4798 131.63 41.9698 131.95C42.4598 132.27 56.0398 130.43 56.0398 130.43C56.0398 130.43 57.9298 129.21 58.0698 128.2C58.1598 127.51 56.3698 127.13 56.8098 126.44C58.3398 124.04 61.1398 121.89 58.3098 121.05C56.7698 120.6 60.4398 119.39 59.5898 117.76C58.7398 116.13 56.7098 116 57.6998 114.17C58.4098 112.84 58.2198 111.55 55.6798 111.24C53.1398 110.93 53.5398 112.03 52.9098 111.74C52.2798 111.45 52.1898 108.66 50.0598 110.4L50.0698 110.41Z" fill="#008039"/>
<path d="M18.2898 126.04C18.2898 126.04 15.2698 117.69 20.9898 118.07C23.3498 118.22 23.0398 122.91 23.7998 119.35C24.3598 116.7 27.1498 112.98 30.1698 115.25C33.1898 117.52 31.8998 120 31.8998 120C31.8998 120 30.7098 121.73 32.1198 121.84C33.5298 121.95 36.3298 116.88 38.2798 120.33C40.2198 123.78 37.0898 123.46 38.3898 125.29C39.6898 127.12 41.2098 123.99 42.5998 126.05C43.9898 128.11 42.7098 129.4 42.5998 130.37C42.4898 131.34 42.5099 131.34 43.2399 132.42C43.9699 133.5 38.5998 138.36 36.7698 138.47C34.9398 138.58 24.4998 137.61 21.4498 137.15C16.5298 136.41 12.3598 129.83 18.2998 126.05L18.2898 126.04Z" fill="#007534"/>
</g>
</svg>
