<svg width="66" height="145" viewBox="0 0 66 145" fill="none" xmlns="http://www.w3.org/2000/svg">
<mask id="mask0_24_24989" style="mask-type:luminance" maskUnits="userSpaceOnUse" x="0" y="0" width="66" height="145">
<path d="M65.87 0V144.17H0L65.87 0Z" fill="white"/>
</mask>
<g mask="url(#mask0_24_24989)">
<path d="M66 -56H-134V144H66V-56Z" fill="#8CDCFF"/>
<path d="M66 48.8V75.14H-134V34.04C-134 34.04 -133.28 34.06 -131.96 34.08C-131.16 34.1 -130.13 34.12 -128.91 34.14C-128.68 34.14 -128.45 34.15 -128.2 34.15C-124.9 34.2 -120.38 34.24 -115.13 34.23C-114.44 34.23 -113.74 34.23 -113.03 34.22C-110.3 34.21 -107.41 34.18 -104.42 34.13H-104.41C-103.58 34.12 -102.76 34.11 -101.92 34.09H-101.91C-94.27 33.93 -86.11 33.62 -78.41 33.06C-74.06 32.75 -69.87 32.35 -66.01 31.86C-64.74 31.7 -63.51 31.53 -62.31 31.34C-62.31 31.33 -62.3 31.34 -62.3 31.34C-61.57 31.23 -60.85 31.11 -60.16 30.99C-60.15 30.98 -60.13 30.98 -60.13 30.98C-59.14 30.81 -58.19 30.63 -57.27 30.44C-55.64 30.1 -54.13 29.73 -52.77 29.33C-52.06 29.12 -51.39 28.91 -50.77 28.68C-48.22 27.75 -45.29 27.22 -42.09 27.02C-37.49 26.73 -32.35 27.1 -27.03 27.92C-7.45 30.94 14.53 39.99 20.47 44C29.15 49.87 48.19 55.53 66 48.8Z" fill="#5A9C99"/>
<path d="M66 120.29H-134V144H66V120.29Z" fill="#2CA0A3"/>
<path opacity="0.51" d="M66 121.1V124.47C65.35 124.6 64.69 124.64 64 124.67C62.62 124.74 61.24 124.8 59.86 124.88C57.17 125.02 54.49 125.17 51.81 125.34C49.02 125.51 47.58 124.9 44.73 125.14C43.6 125.74 45.69 126.01 44.47 126.46C42.66 127.13 36.07 127.83 34.17 127.82C31.91 127.82 29.59 128.03 27.34 127.85C22.86 127.5 18.4 127.23 13.91 127.22C12.63 127.22 11.35 127.23 10.07 127.25C4.40001 127.79 -1.29 127.87 -6.97 127.5C-7.07 127.49 -7.15 127.46 -7.24 127.44C-9.3 127.4 -11.35 127.33 -13.41 127.19C-13.67 127.17 -13.89 127.1 -14.07 127C-15.1 127.06 -16.13 127.12 -17.16 127.16C-21.54 127.31 -25.91 127.17 -30.29 127.14C-34.66 127.12 -39.01 127.23 -43.35 127.77C-47.61 128.31 -51.83 128.95 -56.1 128.05C-56.22 128.03 -56.33 127.99 -56.43 127.94C-60.37 127.9 -64.38 127.88 -68.34 127.53C-79.38 126.54 -90.3 128.61 -101.33 128.61C-106.78 128.62 -112.23 128.31 -117.67 128.7C-123.01 129.08 -128.36 131.07 -133.74 130.49C-133.83 130.48 -133.92 130.46 -134 130.44V127.49C-133.92 127.48 -133.83 127.48 -133.74 127.49C-130.59 127.83 -127.55 127.18 -124.47 126.59C-121.59 126.05 -118.69 125.72 -115.76 125.59C-110.31 125.35 -104.86 125.68 -99.41 125.6C-93.99 125.51 -88.61 124.81 -83.23 124.26C-77.86 123.7 -72.48 123.36 -67.1 123.94C-61.84 124.51 -56.45 125.68 -51.2 124.45C-50.65 124.32 -50.2 124.48 -49.88 124.77C-48.51 124.65 -47.13 124.51 -45.76 124.34C-45.21 124.28 -44.81 124.55 -44.56 124.95C-43.19 124.76 -41.83 124.58 -40.47 124.46C-31.75 123.7 -22.98 124.57 -14.25 124.02C-5.68 123.47 2.84 122.11 11.41 123.25H11.44C11.57 123.27 11.7 123.28 11.83 123.3C12.34 123.37 12.65 123.64 12.8 123.98C17.78 123.47 22.76 123.03 27.71 124.11C28.26 124.23 28.57 124.56 28.71 124.96C28.82 124.97 28.92 124.97 29.03 124.98C30.77 125.1 32.52 125.19 34.26 125.19C34.39 124.78 34.69 124.42 35.22 124.25C37.47 123.51 39.84 123.14 42.22 122.91C45.43 121.4 49.02 121.22 52.54 121.15C53.06 121.14 53.43 121.35 53.67 121.66C57.78 121.34 61.88 121.15 66 121.1Z" fill="#D1FEFF"/>
<path d="M66 120.29V123.91C66 123.91 50.6 123.4 43.96 123.91C37.32 124.42 51.87 126.21 30.17 126.46C8.47 126.72 -13.23 125.95 -29.06 125.19C-44.89 124.42 -42.85 127.65 -61.49 126.72C-89.28 125.32 -134 129.27 -134 129.27V120.29H66Z" fill="#E3DA8D"/>
<path d="M66 65.1901V78.4701L13.51 77.4501L-10.71 52.8601C-10.71 52.8601 36.87 52.4101 48.36 57.2601C56.73 60.7901 63.14 63.8101 66 65.1901Z" fill="#469490"/>
<path d="M65.9998 73.8301V100.53L37.5298 89.4501L33.1498 87.7501L32.9398 87.6701L25.4298 84.7401L24.2398 84.2801L23.8298 77.6501L23.6698 75.1401L23.2598 68.5901C23.2598 68.5901 23.9798 68.7601 25.1698 69.0501C25.3598 69.1001 25.5698 69.1501 25.7898 69.2001C27.5198 69.6201 29.9798 70.2201 32.6098 70.8701C33.4598 71.0801 34.3398 71.3001 35.2198 71.5201H35.2598C35.6998 71.6301 36.1298 71.7501 36.5598 71.8401C36.5698 71.8501 36.5798 71.8501 36.5898 71.8501C39.7398 72.6401 42.7298 73.4101 44.6198 73.9301C48.5898 75.0201 53.9998 73.1401 65.9998 73.8301Z" fill="#7AB867"/>
<path d="M3.95993 134.22C2.02993 134.44 0.0999218 134.65 -1.83008 134.87C-2.10008 134.9 -2.33008 135.08 -2.33008 135.37C-2.33008 135.62 -2.10008 135.9 -1.83008 135.87C0.0999218 135.65 2.02993 135.44 3.95993 135.22C4.22993 135.19 4.45993 135.01 4.45993 134.72C4.45993 134.47 4.22993 134.19 3.95993 134.22Z" fill="#36C6C9"/>
<path d="M13.4902 128.78C12.2102 128.74 10.9302 128.76 9.66016 128.86C9.39016 128.88 9.16016 129.08 9.16016 129.36C9.16016 129.62 9.39016 129.88 9.66016 129.86C10.9302 129.77 12.2102 129.74 13.4902 129.78C13.7602 129.78 13.9902 129.54 13.9902 129.28C13.9902 129 13.7602 128.79 13.4902 128.78Z" fill="#36C6C9"/>
<path d="M16.7198 139.57C16.3798 139.61 16.0498 139.61 15.7098 139.59C15.6298 139.59 15.5498 139.58 15.4798 139.57C15.4298 139.57 15.3898 139.56 15.3398 139.55C15.3298 139.55 15.3098 139.55 15.2998 139.55C15.1298 139.52 14.9698 139.49 14.7998 139.45C14.5498 139.39 14.2498 139.53 14.1798 139.8C14.1198 140.06 14.2598 140.35 14.5298 140.42C15.2398 140.59 15.9798 140.64 16.7098 140.57C16.8498 140.56 16.9598 140.52 17.0598 140.42C17.1498 140.33 17.2098 140.19 17.2098 140.07C17.1998 139.82 16.9898 139.54 16.7098 139.57H16.7198Z" fill="#36C6C9"/>
<path d="M30.7702 136.44C27.3902 136.52 24.0202 136.59 20.6402 136.67C20.0002 136.68 20.0002 137.68 20.6402 137.67C24.0202 137.59 27.3902 137.52 30.7702 137.44C31.4102 137.43 31.4102 136.43 30.7702 136.44Z" fill="#36C6C9"/>
<path d="M37.0596 133.09C35.6696 133.15 34.2796 133.21 32.8896 133.27C32.6196 133.28 32.3896 133.49 32.3896 133.77C32.3896 134.03 32.6196 134.28 32.8896 134.27C34.2796 134.21 35.6696 134.15 37.0596 134.09C37.3296 134.08 37.5596 133.87 37.5596 133.59C37.5596 133.33 37.3296 133.08 37.0596 133.09Z" fill="#36C6C9"/>
<path d="M50.0805 129.21C48.4605 129.22 46.8405 129.32 45.2305 129.52C44.9605 129.55 44.7305 129.73 44.7305 130.02C44.7305 130.27 44.9605 130.55 45.2305 130.52C46.8405 130.33 48.4605 130.22 50.0805 130.21C50.7205 130.21 50.7205 129.21 50.0805 129.21Z" fill="#36C6C9"/>
<path d="M59.9201 135.78C58.4601 135.52 57.0201 135.2 55.5901 134.81C54.9701 134.64 54.7001 135.6 55.3201 135.77C56.7501 136.16 58.1901 136.49 59.6501 136.74C59.9201 136.79 60.1901 136.67 60.2701 136.39C60.3401 136.15 60.1901 135.82 59.9201 135.77V135.78Z" fill="#36C6C9"/>
<path d="M63.62 127.84C62.57 127.8 61.52 127.81 60.47 127.87C60.21 127.88 59.96 128.09 59.97 128.37C59.98 128.63 60.19 128.89 60.47 128.87C61.52 128.81 62.57 128.8 63.62 128.84C63.88 128.84 64.13 128.6 64.12 128.34C64.11 128.06 63.9 127.85 63.62 127.84Z" fill="#36C6C9"/>
<path d="M44.7198 140.18C44.1498 140.15 43.5898 140.12 43.0198 140.08C42.7598 140.07 42.5098 140.32 42.5198 140.58C42.5298 140.86 42.7398 141.06 43.0198 141.08C43.5898 141.11 44.1498 141.14 44.7198 141.18C44.9798 141.19 45.2298 140.94 45.2198 140.68C45.2098 140.4 44.9998 140.2 44.7198 140.18Z" fill="#36C6C9"/>
<path d="M66 101.23V105.04V106.08V112.32L65.97 120.29V121.14C65.97 121.14 38.39 119.61 37.03 121.14C35.76 122.58 35.23 124.17 18.62 123.38C18.49 123.37 18.36 123.37 18.23 123.36C17.24 123.31 16.18 123.26 15.07 123.19C11.41 122.97 7.26 122.73 2.88 122.48C-3.08 122.14 -9.46 121.79 -15.56 121.5H-15.57C-17.12 121.43 -18.66 121.36 -20.17 121.29C-20.8 121.26 -21.42 121.24 -22.04 121.22C-25.05 121.09 -27.93 120.98 -30.56 120.91C-31.06 120.9 -31.56 120.88 -32.04 120.87C-33.69 120.83 -35.23 120.81 -36.63 120.8C-37.82 120.78 -38.92 120.79 -39.9 120.8C-40.76 120.81 -41.53 120.83 -42.2 120.87H-42.21C-42.68 120.89 -43.11 120.92 -43.48 120.95H-43.5C-44.07 121 -44.52 121.06 -44.84 121.14C-46.15 121.46 -48.91 121.77 -52.41 122.04H-52.59C-55.55 122.27 -59.02 122.46 -62.56 122.57H-62.79C-70.81 122.85 -79.11 122.77 -82.63 122C-84.91 121.5 -87.59 121.46 -90.82 121.57C-91.77 121.61 -92.77 121.65 -93.82 121.71C-96.2 121.82 -98.86 121.96 -101.84 122.02C-101.85 122.03 -101.86 122.03 -101.86 122.03C-102.4 122.04 -102.95 122.05 -103.51 122.05C-108.01 122.1 -113.2 121.95 -119.22 121.31C-132 119.95 -134 124.78 -134 124.78V45.8399C-134 45.8399 -133.58 45.7599 -132.79 45.6199H-132.78C-130.52 45.2199 -125.25 44.3099 -118.05 43.2099C-117.61 43.1399 -117.16 43.0799 -116.71 43.0099C-115.53 42.8399 -114.3 42.6599 -113.03 42.4799C-112.89 42.4499 -112.75 42.4299 -112.6 42.4099C-107.33 41.6499 -101.34 40.8499 -94.94 40.0899C-94.67 40.0599 -94.39 40.0199 -94.12 39.9899C-89.96 39.5099 -85.64 39.0399 -81.22 38.6199C-81.18 38.6199 -81.13 38.6099 -81.08 38.6099C-74.69 37.9999 -68.13 37.4999 -61.63 37.1599C-61.27 37.1399 -60.9 37.1299 -60.54 37.1099C-56.79 36.9299 -53.07 36.7999 -49.43 36.7599C-49.38 36.7499 -49.33 36.7499 -49.29 36.7599C-47.77 36.7299 -46.28 36.7199 -44.8 36.7399C-44.78 36.7299 -44.75 36.7299 -44.73 36.7399C-41.73 36.7499 -38.79 36.8199 -35.95 36.9599C-30.53 37.2099 -25.46 37.6999 -20.93 38.4999C-19.11 38.8099 -17.38 39.1799 -15.75 39.5899C-14.93 39.7999 -14.14 40.0199 -13.38 40.2499C-13.25 40.2999 -13.12 40.3399 -12.99 40.3799C-12.39 40.5699 -11.8 40.7699 -11.23 40.9799C-8.9 41.8299 -6.86 42.8399 -5.19 44.0099C-3.38 45.2699 -1.61999 46.6099 0.100006 47.9999C0.240006 48.1099 0.37 48.2099 0.5 48.3199C2.35 49.8199 4.14999 51.3899 5.92999 52.9999C10.77 57.4099 15.38 62.1599 19.98 66.9399C20.7 67.6899 21.43 68.4399 22.15 69.1899C22.56 69.6199 22.97 70.0399 23.38 70.4599C24.89 72.0399 26.42 73.5999 27.96 75.1499C28.84 76.0399 29.72 76.9199 30.6 77.7899C32.93 80.0699 35.29 82.2999 37.72 84.4199C37.87 84.5599 38.02 84.6899 38.18 84.8199C42.7 88.7499 47.43 92.3299 52.55 95.3099C56.75 97.7399 61.2 99.7699 66 101.24V101.23Z" fill="#2C9C5D"/>
<path d="M-6.88007 -46.39C-6.88007 -46.39 -27.7301 -49.11 -26.4501 -36.4C-26.4501 -36.4 -40.9001 -38.08 -44.3401 -25.68C-46.7401 -17.02 -50.2301 -22.2 -53.6501 -20.04C-55.7801 -18.69 -55.5101 -14.6499 -53.6901 -13.5499C-53.6901 -13.5499 -58.3301 -10.13 -55.4701 -6.05995C-52.6101 -1.98995 -46.3701 -3.08995 -44.8601 -6.84995C-44.8601 -6.84995 -37.9801 2.69005 -28.7301 -4.75995C-28.7301 -4.75995 -22.5401 2.39005 -14.2501 -7.95995C-14.2501 -7.95995 -6.68008 -1.27995 2.97992 -9.07995C2.97992 -9.07995 12.5499 -0.689952 20.7199 -12.58C20.7199 -12.58 28.4399 3.43005 36.1099 -8.06995C36.1099 -8.06995 48.2999 -5.71995 51.8599 -14.16C57.4799 -27.4799 44.9399 -33.56 41.3899 -31.93C41.3899 -31.93 41.9299 -46.48 33.0899 -44.88C24.2499 -43.28 20.8399 -33.14 17.8999 -40.26C13.3199 -51.36 5.92992 -44.31 5.92992 -44.31C5.92992 -44.31 6.33993 -49.12 0.639927 -50.06C-3.80007 -50.79 -5.54007 -48.28 -6.90007 -46.38L-6.88007 -46.39Z" fill="white"/>
<path d="M-51.3796 -9.41022H-38.7696L-31.6996 -16.5602H-28.8396L-23.2096 -11.5402L-20.1197 -7.88023L-16.6597 -9.56023L-6.60965 -10.7802L-5.54965 -14.2802L-3.41965 -15.1902V-19.6102L-1.46965 -20.9802H0.850357L3.13036 18.9098L4.65034 21.3498V43.6498H-52.1396L-51.3796 -9.41022Z" fill="#AFBA79"/>
<g style="mix-blend-mode:multiply" opacity="0.29">
<path d="M-51.3799 -9.41017C-51.3799 -9.41017 -44.6599 4.43983 -40.0099 6.41983C-35.3599 8.39983 -35.6699 12.2798 -34.2199 17.0798C-32.7699 21.8798 -28.2099 19.5698 -22.7999 24.4398C-17.3899 29.3098 -2.51988 40.6798 4.66012 41.3598V43.6398H-52.1299L-51.3699 -9.42017L-51.3799 -9.41017Z" fill="#B4B89F"/>
</g>
<path d="M26.7998 9.27C26.7998 9.27 28.2698 4.23 36.6298 5.55C41.1598 6.26 41.1598 8.76001 41.1598 8.76001C41.1598 8.76001 43.0298 6.46 47.6098 7.96C52.1898 9.46 51.0598 12.64 51.0598 12.64C51.0598 12.64 60.5498 8.05001 62.4198 16.73C64.2898 25.41 57.8198 25.88 57.8198 25.88C57.8198 25.88 60.0698 29.39 55.5198 31.03C46.7098 34.21 43.2598 28.35 43.2598 28.35C43.2598 28.35 40.5798 33.84 31.7698 31.34C27.9698 30.26 23.6798 28.62 25.6398 25.88C25.6398 25.88 14.7898 28.72 14.1498 22.19C13.9398 20.09 16.3198 18.47 16.3198 18.47C16.3198 18.47 10.9498 16.54 15.6998 11.13C20.7298 5.41 25.8398 8.93 26.7898 9.28L26.7998 9.27Z" fill="white"/>
<path d="M54.0798 18.8701C54.0798 18.8701 55.8698 15.1601 49.8598 13.8101C45.9098 12.9201 44.3598 15.8101 44.3598 15.8101C44.3598 15.8101 43.9698 11.9401 39.6198 12.2501C36.8298 12.4501 35.6498 15.4401 36.0398 15.8201C36.0398 15.8201 34.1898 11.9201 30.9998 13.1501C27.8098 14.3801 30.2698 17.6901 30.2698 17.6901C30.2698 17.6901 27.2098 16.7801 26.9998 19.9901C26.8398 22.4301 30.0798 24.3301 32.7098 22.5601C32.7098 22.5601 34.5698 28.7801 40.4498 25.2201C40.4498 25.2201 40.5298 27.5801 43.2298 27.9901C44.0298 28.1101 45.9398 28.2201 46.2698 26.4901C46.2698 26.4901 47.0998 28.5501 49.7198 28.5401C51.7598 28.5401 54.0698 27.0001 53.0098 25.0901C53.0098 25.0901 56.4898 25.9901 57.0198 22.4201C57.4498 19.5701 55.3198 18.7401 54.0898 18.8701H54.0798Z" fill="#E6FAFF"/>
<path d="M-1.76032 59.2798C-1.76032 59.2798 6.83967 53.7698 1.94967 50.9898C1.94967 50.9898 5.83968 43.0298 0.739676 42.2398C0.739676 42.2398 5.40966 34.9498 0.399664 34.5698C-4.61034 34.1898 -5.24034 36.3598 -5.24034 36.3598C-5.24034 36.3598 -4.48033 30.2398 -8.98033 31.9098C-13.4803 33.5798 -11.7703 37.2998 -11.7703 37.2998C-11.7703 37.2998 -15.4903 33.2798 -19.0503 37.6998C-22.6103 42.1298 -16.5903 42.6798 -16.5903 42.6798C-16.5903 42.6798 -21.9103 41.7698 -20.6503 45.7998C-19.3903 49.8298 -16.6803 49.7898 -16.6803 49.7898C-16.6803 49.7898 -21.8503 50.0998 -20.7203 53.3698C-19.5903 56.6398 -17.1803 58.6898 -13.4603 57.6198C-9.74033 56.5498 -1.75033 59.2798 -1.75033 59.2798H-1.76032Z" fill="#007534"/>
<path d="M18.7602 45.0298C18.7602 45.0298 18.5302 37.5998 13.4502 39.6198C8.37017 41.6398 12.2602 39.7098 6.99018 38.9598C-0.849821 37.8398 -0.359827 45.7998 -0.359827 45.7998C-0.359827 45.7998 -3.30982 44.8098 -5.67982 47.4398C-8.04982 50.0698 -5.51983 57.4598 -5.51983 57.4598C-5.51983 57.4598 -8.95982 57.7698 -10.0998 60.2498C-11.2398 62.7298 -6.22983 68.0598 -6.22983 68.0598C-6.22983 68.0598 -9.71982 71.2898 -9.41982 73.7598C-9.11982 76.2298 -5.68983 76.6998 -5.10983 77.5398C-4.52983 78.3798 16.9602 82.9198 16.9602 82.9198C16.9602 82.9198 20.4802 81.8998 21.2402 80.2398C21.7602 79.0998 19.2602 77.4298 20.3002 76.4898C23.9202 73.2198 29.3102 71.1098 25.4802 68.0598C23.4002 66.3998 29.5902 66.4198 29.1902 63.1298C28.7902 59.8398 25.8002 58.4698 28.2802 55.8698C30.0702 53.9898 30.4802 51.6498 26.8202 49.6698C23.1602 47.6898 23.1602 49.8098 22.3602 48.9498C21.5602 48.0898 22.9502 43.2398 18.7802 45.0298H18.7602Z" fill="#00853B"/>
<path d="M-13.6096 55.8698C-13.6096 55.8698 -10.8496 47.5398 -6.77963 51.0998C-5.09963 52.5698 -8.15963 56.0998 -5.43963 53.7198C-3.41963 51.9398 0.910377 50.5898 1.82038 54.1098C2.72038 57.6298 0.25037 58.8598 0.25037 58.8598C0.25037 58.8598 -1.67963 59.5498 -0.689632 60.4398C0.300368 61.3298 5.46037 58.9198 4.84037 62.7698C4.22037 66.6098 2.06036 64.5698 1.93036 66.7598C1.80036 68.9498 4.83037 67.3498 4.64037 69.7698C4.45037 72.1898 2.70036 72.4798 2.04036 73.1898C1.38036 73.8998 4.21036 76.5099 -3.70964 79.5699C-4.89964 80.0299 -11.1496 77.2998 -12.4496 76.1498C-19.8296 69.6498 -19.8396 67.9998 -20.3696 63.8498C-20.9596 59.1898 -20.3396 55.4698 -13.5996 55.8698H-13.6096Z" fill="#128A47"/>
<path d="M-4.83015 81.43C-2.41015 81.8 -1.33015 80.75 -1.33015 80.75C-3.19015 80.78 -6.66016 77.6 -6.66016 77.6C-4.70016 78.05 -3.21016 77.2 -3.21016 77.2C-5.81016 76.78 -7.20015 74.52 -7.20015 74.52C-5.49015 74.89 -3.92015 73.84 -3.92015 73.84C-6.05015 73.6 -8.07015 71 -8.07015 71C-6.65015 71.87 -4.84015 71 -4.84015 71C-7.29015 70.68 -9.02015 67.29 -9.02015 67.29C-7.52015 68.32 -6.02015 66.82 -6.02015 66.82C-9.02015 67.29 -10.1202 62.01 -10.1202 62.01C-10.1202 62.01 -11.2202 67.29 -14.2202 66.82C-14.2202 66.82 -12.7202 68.32 -11.2202 67.29C-11.2202 67.29 -12.9602 70.68 -15.4002 71C-15.4002 71 -13.5902 71.87 -12.1702 71C-12.1702 71 -14.1902 73.6 -16.3202 73.84C-16.3202 73.84 -14.7502 74.89 -13.0402 74.52C-13.0402 74.52 -14.4302 76.78 -17.0302 77.2C-17.0302 77.2 -15.5302 78.05 -13.5802 77.6C-13.5802 77.6 -17.0502 80.78 -18.9102 80.75C-18.9102 80.75 -17.8302 81.8 -15.4102 81.43C-15.4102 81.43 -17.9302 83.57 -20.4102 83.88C-20.4102 83.88 -17.9102 85.06 -15.9102 84.61C-13.9102 84.16 -13.7402 83.92 -13.7402 83.92C-13.7402 83.92 -13.4202 84.37 -13.6802 84.97C-13.9402 85.57 -14.2302 85.86 -14.2302 85.86C-14.2302 85.86 -12.8102 85.64 -11.7102 85.07C-10.8502 84.63 -10.6602 84.1 -10.3902 84.02C-9.90015 84.59 -9.77015 84.72 -8.99015 85.07C-7.84015 85.58 -5.84015 85.6 -5.84015 85.6C-5.84015 85.6 -6.41015 85.07 -6.75015 84.67C-7.13015 84.22 -7.20015 83.76 -7.20015 83.76C-7.20015 83.76 -5.46016 84.39 -4.10016 84.47C-2.74016 84.55 0.149841 83.56 0.149841 83.56C-2.32016 83.25 -4.85016 81.43 -4.85016 81.43H-4.83015Z" fill="#005937"/>
<path d="M16.9699 92C16.9699 92 9.68992 84.5699 15.1799 82.9199C15.1799 82.9199 13.1399 74.1299 18.3699 74.5099C18.3699 74.5099 15.3899 66.21 20.4599 66.97C25.5299 67.73 25.6499 70.0299 25.6499 70.0299C25.6499 70.0299 26.2899 63.7799 30.3799 66.4599C34.4699 69.1399 31.9199 72.4499 31.9199 72.4499C31.9199 72.4499 36.5299 69.3099 39.0599 74.5099C41.5899 79.7099 35.4899 78.8899 35.4899 78.8899C35.4899 78.8899 40.9799 79.2 38.8099 82.91C36.6399 86.62 33.9599 85.97 33.9599 85.97C33.9599 85.97 39.0199 87.4599 37.1499 90.4499C35.2799 93.4399 32.4299 94.9299 28.9799 93.0099C25.5299 91.0899 16.9799 91.99 16.9799 91.99L16.9699 92Z" fill="#007534"/>
<path d="M-4.12953 74.5C-4.12953 74.5 -2.20953 67.17 2.37047 70.34C6.95047 73.51 3.53047 70.7 8.93047 71.15C16.9605 71.83 14.6705 79.62 14.6705 79.62C14.6705 79.62 17.8305 79.31 19.5805 82.47C21.3305 85.62 17.1405 92.38 17.1405 92.38C17.1405 92.38 20.4905 93.47 21.0505 96.19C21.6105 98.91 15.4305 103.06 15.4305 103.06C15.4305 103.06 18.1605 107.07 17.3005 109.44C16.4405 111.81 12.9305 111.51 12.1605 112.21C11.3905 112.91 -10.9695 112.52 -10.9695 112.52C-10.9695 112.52 -14.2295 110.71 -14.5995 108.88C-14.8495 107.63 -11.9895 106.55 -12.8095 105.38C-15.6595 101.31 -20.5195 97.99 -16.0295 95.84C-13.5895 94.67 -19.7395 93.27 -18.5895 90.1C-17.4395 86.93 -14.1595 86.25 -16.0295 83.1C-17.3795 80.83 -17.2595 78.41 -13.1595 77.28C-9.05953 76.15 -9.54953 78.25 -8.56953 77.58C-7.58953 76.91 -7.84952 71.78 -4.11952 74.5H-4.12953Z" fill="#008F3F"/>
<path d="M33.13 88.94C33.13 88.94 32.15 78.55 26.49 81.6C24.16 82.85 26.75 87.76 24.24 84.27C22.37 81.68 17.71 78.96 15.73 82.8C13.75 86.64 16.28 88.72 16.28 88.72C16.28 88.72 18.34 90.03 16.95 90.8C15.56 91.57 10.23 87.41 9.92997 92.02C9.62997 96.63 12.67 94.84 12.24 97.41C11.81 99.98 8.72997 97.32 8.30997 100.17C7.88997 103.02 9.82997 103.83 10.42 104.82C11.01 105.81 7.02998 108.09 15.38 113.74C16.64 114.59 24.6 113.09 26.41 112.11C36.69 106.55 37.14 104.64 38.85 99.97C40.77 94.73 41.05 90.25 33.14 88.93L33.13 88.94Z" fill="#128A47"/>
<path d="M63.8601 99.15C63.8601 99.15 64.9601 99.22 66.0001 99.61V105.03C65.2601 105.74 64.6401 105.96 64.6401 105.96C64.6401 105.96 65.2501 105.97 66.0001 106.08V112.3C65.5801 112.66 65.1001 113 64.5501 113.3C62.0301 114.71 58.0101 115.44 51.1801 114.13C45.9701 113.13 40.7801 112.21 36.9601 110.66C36.1601 110.33 35.4201 109.98 34.7601 109.59H34.7501C34.0301 109.18 33.4101 108.73 32.8801 108.22C32.2301 107.62 31.7301 106.94 31.3901 106.18C30.9501 105.16 30.8101 103.99 31.0401 102.64C31.2901 101.15 32.1201 98.81 33.7301 98.55C33.7301 98.55 31.7101 96.97 31.5001 95.06C31.4601 94.69 31.5101 94.28 31.6501 93.87C32.0001 92.85 32.8901 91.9 34.0701 92C34.0701 92 32.8701 90.18 33.0501 88.29C33.0701 88.11 33.1001 87.93 33.1501 87.75C33.2901 87.15 33.6001 86.57 34.1501 86.05C34.1601 86.03 34.1701 86.02 34.1801 86.01C34.6101 85.61 35.1901 85.24 35.9501 84.94C36.4801 84.73 36.9801 84.66 37.4401 84.69C39.0601 84.77 40.1401 86.03 40.2801 86.19C40.1901 85.81 39.0501 80.99 41.9001 79.49C45.5901 77.56 46.3301 80 46.9301 81.96C46.9301 81.96 46.6401 80.95 47.8401 78.55C47.9101 78.4 48.0001 78.26 48.0901 78.12C49.3601 76.31 52.3701 75.6 54.1601 78.17C54.1601 78.17 55.6801 75.26 58.3701 76.64C59.2701 77.1 59.5601 77.75 59.6001 78.35C59.6601 79.13 59.2701 79.82 59.2701 79.82C59.2701 79.82 63.2701 78.98 63.6901 82.3C64.1201 85.62 61.5601 86.04 61.5601 86.04C61.5601 86.04 65.6501 86.89 65.1401 89.11C64.6701 91.16 62.4201 92.19 62.1101 92.33C62.4401 92.23 64.8401 91.59 66.0001 92.82V96.9C65.1901 98.32 63.8601 99.15 63.8601 99.15Z" fill="#309C5F"/>
<path d="M-52.0003 80.7499C-53.4403 77.5699 -56.7703 69.5699 -48.9403 69.9099C-41.1103 70.2499 -37.7103 76.8899 -32.0903 74.5099C-26.4703 72.1299 -23.2403 71.6199 -21.0303 76.3799C-18.8203 81.1399 -22.9003 81.9999 -17.4603 83.6999C-12.0203 85.3999 -8.44028 84.0399 -5.72028 88.6399C-3.00028 93.2399 -5.21028 94.9399 -3.34028 98.3399C-1.47028 101.74 1.93972 101.23 3.63972 106C5.33972 110.77 3.92972 112.79 7.32972 113.47C10.7297 114.15 12.1497 114.51 12.1497 116.55C12.1497 118.59 10.6497 122.58 2.97971 122.48C-12.4003 122.29 -15.6003 121.5 -15.6003 121.5C-15.6003 121.5 -50.5803 83.9299 -52.0203 80.7499H-52.0003Z" fill="#34A141"/>
<path d="M1.21971 108.96C1.21971 108.96 0.869706 104.79 2.49971 102.15C3.60971 100.35 6.40971 99.56 7.85971 100.11C11.4297 101.47 15.0097 104.37 16.3697 100.62C17.7297 96.87 17.3897 94.32 20.9697 97.73C24.5497 101.14 24.0297 100.19 25.5697 103.21C27.1097 106.23 29.8297 106.33 33.2297 106.11C36.6297 105.89 39.1897 104.36 37.9997 107.42C36.8097 110.48 36.8097 111.68 36.8097 111.68C36.8097 111.68 39.0197 112.36 39.3597 114.23C39.6997 116.1 38.4197 117.29 38.2997 117.8C38.1797 118.31 37.4897 120.73 30.8497 120.71C24.2097 120.69 8.37971 121.34 5.31971 120.68C2.25971 120.01 -5.7403 115.93 1.2297 108.95L1.21971 108.96Z" fill="#14964D"/>
<path d="M35.1002 110.7C35.1002 110.7 31.5302 100.84 38.2902 101.28C41.0702 101.46 40.7202 107 41.6102 102.79C42.2702 99.6599 45.5702 95.2599 49.1402 97.9399C52.7102 100.62 51.1802 103.56 51.1802 103.56C51.1802 103.56 49.7802 105.6 51.4402 105.73C53.1002 105.86 56.4202 99.8699 58.7202 103.95C61.0202 108.03 57.3202 107.65 58.8502 109.82C60.3802 111.99 62.1802 108.29 63.8302 110.71C65.4802 113.13 63.9602 114.67 63.8302 115.82C63.7002 116.97 63.7202 116.97 64.5902 118.25C65.4602 119.53 56.1702 118.51 54.0002 118.63C51.8302 118.75 40.5702 120.05 36.9602 119.51C31.1502 118.63 28.0902 115.19 35.1102 110.72L35.1002 110.7Z" fill="#128A47"/>
<path d="M29.8802 117.95C32.9102 118.41 34.2601 117.09 34.2601 117.09C31.9301 117.13 27.5901 113.14 27.5901 113.14C30.0401 113.7 31.9102 112.64 31.9102 112.64C28.6502 112.11 26.9202 109.29 26.9202 109.29C29.0602 109.75 31.0302 108.43 31.0302 108.43C28.3602 108.13 25.8302 104.88 25.8302 104.88C27.6102 105.97 29.8802 104.88 29.8802 104.88C26.8202 104.49 24.6501 100.24 24.6501 100.24C26.5301 101.52 28.4001 99.6499 28.4001 99.6499C24.6501 100.24 23.2702 93.6299 23.2702 93.6299C23.2702 93.6299 21.8902 100.24 18.1402 99.6499C18.1402 99.6499 20.0202 101.53 21.8902 100.24C21.8902 100.24 19.7202 104.48 16.6602 104.88C16.6602 104.88 18.9302 105.97 20.7102 104.88C20.7102 104.88 18.1801 108.14 15.5101 108.43C15.5101 108.43 17.4801 109.75 19.6201 109.29C19.6201 109.29 17.8802 112.12 14.6302 112.64C14.6302 112.64 16.5101 113.7 18.9501 113.14C18.9501 113.14 14.6102 117.12 12.2802 117.09C12.2802 117.09 13.6302 118.41 16.6602 117.95C16.6602 117.95 13.5002 120.62 10.4102 121.01C10.4102 121.01 13.5401 122.49 16.0401 121.92C18.5401 121.35 18.7502 121.06 18.7502 121.06C18.7502 121.06 19.1402 121.63 18.8202 122.37C18.5002 123.11 18.1302 123.48 18.1302 123.48C18.1302 123.48 19.9101 123.2 21.2901 122.49C22.3701 121.94 22.6102 121.28 22.9402 121.18C23.5602 121.9 23.7102 122.06 24.6902 122.49C26.1302 123.13 28.6402 123.16 28.6402 123.16C28.6402 123.16 27.9202 122.49 27.5002 122C27.0302 121.44 26.9301 120.86 26.9301 120.86C26.9301 120.86 29.1002 121.65 30.8002 121.75C32.5002 121.85 36.1201 120.61 36.1201 120.61C33.0301 120.22 29.8701 117.94 29.8701 117.94L29.8802 117.95Z" fill="#006B42"/>
</g>
</svg>
