<svg width="150" height="200" viewBox="0 0 150 200" fill="none" xmlns="http://www.w3.org/2000/svg">
<mask id="mask0_24_30071" style="mask-type:luminance" maskUnits="userSpaceOnUse" x="0" y="0" width="150" height="200">
<path d="M149.32 0V55.83L83.45 200H0L91.37 0H149.32Z" fill="white"/>
</mask>
<g mask="url(#mask0_24_30071)">
<path d="M150 0H-50V200H150V0Z" fill="#8CDCFF"/>
<path d="M150 104.8V131.14H-50V90.04C-50 90.04 -49.28 90.06 -47.96 90.08C-47.16 90.1 -46.13 90.12 -44.91 90.14C-44.68 90.14 -44.45 90.15 -44.2 90.15C-40.9 90.2 -36.38 90.24 -31.13 90.23C-30.44 90.23 -29.74 90.23 -29.03 90.22C-26.3 90.21 -23.41 90.18 -20.42 90.13H-20.41C-19.58 90.12 -18.76 90.11 -17.92 90.09H-17.91C-10.27 89.93 -2.11 89.62 5.59 89.06C9.94 88.75 14.13 88.35 17.99 87.86C19.26 87.7 20.49 87.53 21.69 87.34C21.69 87.33 21.7 87.34 21.7 87.34C22.43 87.23 23.15 87.11 23.84 86.99C23.85 86.98 23.87 86.98 23.87 86.98C24.86 86.81 25.81 86.63 26.73 86.44C28.36 86.1 29.87 85.73 31.23 85.33C31.94 85.12 32.61 84.91 33.23 84.68C35.78 83.75 38.71 83.22 41.91 83.02C46.51 82.73 51.65 83.1 56.97 83.92C76.55 86.94 98.53 95.99 104.47 100C113.15 105.87 132.19 111.53 150 104.8Z" fill="#5A9C99"/>
<path d="M150 176.29H-50V200H150V176.29Z" fill="#2CA0A3"/>
<path opacity="0.51" d="M150 177.1V180.47C149.35 180.6 148.69 180.64 148 180.67C146.62 180.74 145.24 180.8 143.86 180.88C141.17 181.02 138.49 181.17 135.81 181.34C133.02 181.51 131.58 180.9 128.73 181.14C127.6 181.74 129.69 182.01 128.47 182.46C126.66 183.13 120.07 183.83 118.17 183.82C115.91 183.82 113.59 184.03 111.34 183.85C106.86 183.5 102.4 183.23 97.91 183.22C96.63 183.22 95.35 183.23 94.07 183.25C88.4 183.79 82.71 183.87 77.03 183.5C76.93 183.49 76.85 183.46 76.76 183.44C74.7 183.4 72.65 183.33 70.59 183.19C70.33 183.17 70.11 183.1 69.93 183C68.9 183.06 67.87 183.12 66.84 183.16C62.46 183.31 58.09 183.17 53.71 183.14C49.34 183.12 44.99 183.23 40.65 183.77C36.39 184.31 32.17 184.95 27.9 184.05C27.78 184.03 27.67 183.99 27.57 183.94C23.63 183.9 19.62 183.88 15.66 183.53C4.62 182.54 -6.3 184.61 -17.33 184.61C-22.78 184.62 -28.23 184.31 -33.67 184.7C-39.01 185.08 -44.36 187.07 -49.74 186.49C-49.83 186.48 -49.92 186.46 -50 186.44V183.49C-49.92 183.48 -49.83 183.48 -49.74 183.49C-46.59 183.83 -43.55 183.18 -40.47 182.59C-37.59 182.05 -34.69 181.72 -31.76 181.59C-26.31 181.35 -20.86 181.68 -15.41 181.6C-9.99 181.51 -4.61 180.81 0.77 180.26C6.14 179.7 11.52 179.36 16.9 179.94C22.16 180.51 27.55 181.68 32.8 180.45C33.35 180.32 33.8 180.48 34.12 180.77C35.49 180.65 36.87 180.51 38.24 180.34C38.79 180.28 39.19 180.55 39.44 180.95C40.81 180.76 42.17 180.58 43.53 180.46C52.25 179.7 61.02 180.57 69.75 180.02C78.32 179.47 86.84 178.11 95.41 179.25H95.44C95.57 179.27 95.7 179.28 95.83 179.3C96.34 179.37 96.65 179.64 96.8 179.98C101.78 179.47 106.76 179.03 111.71 180.11C112.26 180.23 112.57 180.56 112.71 180.96C112.82 180.97 112.92 180.97 113.03 180.98C114.77 181.1 116.52 181.19 118.26 181.19C118.39 180.78 118.69 180.42 119.22 180.25C121.47 179.51 123.84 179.14 126.22 178.91C129.43 177.4 133.02 177.22 136.54 177.15C137.06 177.14 137.43 177.35 137.67 177.66C141.78 177.34 145.88 177.15 150 177.1Z" fill="#D1FEFF"/>
<path d="M150 176.29V179.91C150 179.91 134.6 179.4 127.96 179.91C121.32 180.42 135.87 182.21 114.17 182.46C92.47 182.72 70.77 181.95 54.94 181.19C39.11 180.42 41.15 183.65 22.51 182.72C-5.28 181.32 -50 185.27 -50 185.27V176.29H150Z" fill="#E3DA8D"/>
<path d="M150 121.19V134.47L97.51 133.45L73.29 108.86C73.29 108.86 120.87 108.41 132.36 113.26C140.73 116.79 147.14 119.81 150 121.19Z" fill="#469490"/>
<path d="M150 129.83V156.53L121.53 145.45L117.15 143.75L116.94 143.67L109.43 140.74L108.24 140.28L107.83 133.65L107.67 131.14L107.26 124.59C107.26 124.59 107.98 124.76 109.17 125.05C109.36 125.1 109.57 125.15 109.79 125.2C111.52 125.62 113.98 126.22 116.61 126.87C117.46 127.08 118.34 127.3 119.22 127.52H119.26C119.7 127.63 120.13 127.75 120.56 127.84C120.57 127.85 120.58 127.85 120.59 127.85C123.74 128.64 126.73 129.41 128.62 129.93C132.59 131.02 138 129.14 150 129.83Z" fill="#7AB867"/>
<path d="M0.980366 187.58H-2.16963C-2.42963 187.58 -2.67963 187.81 -2.66963 188.08C-2.65963 188.35 -2.44963 188.58 -2.16963 188.58H0.980366C1.24037 188.58 1.49037 188.35 1.48037 188.08C1.47037 187.81 1.26037 187.58 0.980366 187.58Z" fill="#36C6C9"/>
<path d="M1.94998 193.76C0.879978 193.46 -0.220022 193.27 -1.32002 193.18C-1.58002 193.16 -1.83002 193.42 -1.82002 193.68C-1.81002 193.97 -1.60002 194.16 -1.32002 194.18C-0.310022 194.26 0.679976 194.44 1.68998 194.72C1.93998 194.79 2.24998 194.63 2.30998 194.37C2.36998 194.1 2.22998 193.83 1.95998 193.75L1.94998 193.76Z" fill="#36C6C9"/>
<path d="M12.1199 191.3C11.0399 191.44 9.95994 191.58 8.88994 191.72C8.62994 191.75 8.37994 191.93 8.38994 192.22C8.39994 192.46 8.60994 192.76 8.88994 192.72C9.96994 192.58 11.0499 192.44 12.1199 192.3C12.3799 192.27 12.6299 192.09 12.6199 191.8C12.6099 191.56 12.3999 191.26 12.1199 191.3Z" fill="#36C6C9"/>
<path d="M20.4697 188.01C19.3397 187.91 18.1897 188.04 17.0997 188.36C16.8497 188.43 16.6697 188.72 16.7497 188.98C16.8297 189.23 17.0997 189.41 17.3697 189.33C18.3897 189.03 19.3997 188.93 20.4697 189.02C20.7297 189.04 20.9797 188.77 20.9697 188.52C20.9597 188.23 20.7497 188.04 20.4697 188.02V188.01Z" fill="#36C6C9"/>
<path d="M33.1204 187.75C32.4104 187.53 31.7004 187.31 30.9804 187.09C30.7304 187.01 30.4204 187.18 30.3604 187.44C30.3004 187.71 30.4404 187.97 30.7104 188.06C31.4204 188.28 32.1304 188.5 32.8504 188.72C33.1004 188.8 33.4104 188.63 33.4704 188.37C33.5304 188.1 33.3904 187.84 33.1204 187.75Z" fill="#36C6C9"/>
<path d="M30.3395 195.15H26.7695C26.4995 195.15 26.2695 195.38 26.2695 195.65C26.2695 195.92 26.4995 196.15 26.7695 196.15H30.3395C30.6095 196.15 30.8395 195.92 30.8395 195.65C30.8395 195.38 30.6095 195.15 30.3395 195.15Z" fill="#36C6C9"/>
<path d="M17.23 196.35C16.47 196.44 15.7 196.47 14.93 196.44C14.67 196.43 14.42 196.68 14.43 196.94C14.44 197.22 14.65 197.43 14.93 197.44C15.7 197.47 16.47 197.44 17.23 197.35C17.49 197.32 17.74 197.14 17.73 196.85C17.72 196.61 17.51 196.32 17.23 196.35Z" fill="#36C6C9"/>
<path d="M48.0404 189.52C46.7804 189.6 45.5004 189.55 44.2504 189.35C43.9804 189.31 43.7104 189.42 43.6304 189.7C43.5604 189.94 43.7104 190.27 43.9804 190.32C45.3204 190.54 46.6804 190.62 48.0404 190.53C48.3104 190.51 48.5404 190.31 48.5404 190.03C48.5404 189.77 48.3104 189.51 48.0404 189.53V189.52Z" fill="#36C6C9"/>
<path d="M60.1297 186.4C58.3897 186.32 56.6597 186.4 54.9297 186.61C54.6597 186.64 54.4297 186.82 54.4297 187.11C54.4297 187.35 54.6597 187.64 54.9297 187.61C56.6497 187.39 58.3897 187.32 60.1297 187.4C60.7697 187.43 60.7697 186.43 60.1297 186.4Z" fill="#36C6C9"/>
<path d="M66.94 187.93C66.12 187.87 65.3 187.81 64.47 187.74C64.21 187.72 63.96 187.98 63.97 188.24C63.98 188.53 64.19 188.72 64.47 188.74C65.29 188.8 66.11 188.86 66.94 188.93C67.2 188.95 67.45 188.69 67.44 188.43C67.43 188.14 67.22 187.95 66.94 187.93Z" fill="#36C6C9"/>
<path d="M62.4302 194.47C60.4402 194.53 58.4602 194.59 56.4702 194.65C55.8302 194.67 55.8302 195.67 56.4702 195.65C58.4602 195.59 60.4402 195.53 62.4302 195.47C63.0702 195.45 63.0702 194.45 62.4302 194.47Z" fill="#36C6C9"/>
<path d="M76.7204 195.93C75.2704 195.96 73.8304 195.99 72.3804 196.02C71.7404 196.03 71.7404 197.03 72.3804 197.02C73.8304 196.99 75.2704 196.96 76.7204 196.93C77.3604 196.92 77.3604 195.92 76.7204 195.93Z" fill="#36C6C9"/>
<path d="M87.9599 190.22C86.0299 190.44 84.0999 190.65 82.1699 190.87C81.8999 190.9 81.6699 191.08 81.6699 191.37C81.6699 191.62 81.8999 191.9 82.1699 191.87C84.0999 191.65 86.0299 191.44 87.9599 191.22C88.2299 191.19 88.4599 191.01 88.4599 190.72C88.4599 190.47 88.2299 190.19 87.9599 190.22Z" fill="#36C6C9"/>
<path d="M97.4902 184.78C96.2102 184.74 94.9302 184.76 93.6602 184.86C93.3902 184.88 93.1602 185.08 93.1602 185.36C93.1602 185.62 93.3902 185.88 93.6602 185.86C94.9302 185.77 96.2102 185.74 97.4902 185.78C97.7602 185.78 97.9902 185.54 97.9902 185.28C97.9902 185 97.7602 184.79 97.4902 184.78Z" fill="#36C6C9"/>
<path d="M77.7397 185.28H73.9097C73.2697 185.28 73.2697 186.28 73.9097 186.28H77.7397C78.3797 186.28 78.3797 185.28 77.7397 185.28Z" fill="#36C6C9"/>
<path d="M40.5103 195.43C39.6803 195.29 38.8403 195.22 38.0003 195.23C37.7403 195.23 37.4903 195.46 37.5003 195.73C37.5103 196 37.7203 196.24 38.0003 196.23C38.3903 196.23 38.7803 196.23 39.1703 196.26C39.3603 196.27 39.5503 196.29 39.7403 196.32C39.7703 196.32 39.8103 196.32 39.8403 196.33C39.8503 196.33 39.9103 196.33 39.9203 196.34C40.0303 196.36 40.1303 196.37 40.2403 196.39C40.5003 196.43 40.7903 196.32 40.8603 196.04C40.9203 195.8 40.7903 195.47 40.5103 195.42V195.43Z" fill="#36C6C9"/>
<path d="M100.72 195.57C100.38 195.61 100.05 195.61 99.7098 195.59C99.6298 195.59 99.5498 195.58 99.4798 195.57C99.4298 195.57 99.3898 195.56 99.3398 195.55C99.3298 195.55 99.3098 195.55 99.2998 195.55C99.1298 195.52 98.9698 195.49 98.7998 195.45C98.5498 195.39 98.2498 195.53 98.1798 195.8C98.1198 196.06 98.2598 196.35 98.5298 196.42C99.2398 196.59 99.9798 196.64 100.71 196.57C100.85 196.56 100.96 196.52 101.06 196.42C101.15 196.33 101.21 196.19 101.21 196.07C101.2 195.82 100.99 195.54 100.71 195.57H100.72Z" fill="#36C6C9"/>
<path d="M114.77 192.44C111.39 192.52 108.02 192.59 104.64 192.67C104 192.68 104 193.68 104.64 193.67C108.02 193.59 111.39 193.52 114.77 193.44C115.41 193.43 115.41 192.43 114.77 192.44Z" fill="#36C6C9"/>
<path d="M121.06 189.09C119.67 189.15 118.28 189.21 116.89 189.27C116.62 189.28 116.39 189.49 116.39 189.77C116.39 190.03 116.62 190.28 116.89 190.27C118.28 190.21 119.67 190.15 121.06 190.09C121.33 190.08 121.56 189.87 121.56 189.59C121.56 189.33 121.33 189.08 121.06 189.09Z" fill="#36C6C9"/>
<path d="M134.08 185.21C132.46 185.22 130.84 185.32 129.23 185.52C128.96 185.55 128.73 185.73 128.73 186.02C128.73 186.27 128.96 186.55 129.23 186.52C130.84 186.33 132.46 186.22 134.08 186.21C134.72 186.21 134.72 185.21 134.08 185.21Z" fill="#36C6C9"/>
<path d="M143.92 191.78C142.46 191.52 141.02 191.2 139.59 190.81C138.97 190.64 138.7 191.6 139.32 191.77C140.75 192.16 142.19 192.49 143.65 192.74C143.92 192.79 144.19 192.67 144.27 192.39C144.34 192.15 144.19 191.82 143.92 191.77V191.78Z" fill="#36C6C9"/>
<path d="M147.62 183.84C146.57 183.8 145.52 183.81 144.47 183.87C144.21 183.88 143.96 184.09 143.97 184.37C143.98 184.63 144.19 184.89 144.47 184.87C145.52 184.81 146.57 184.8 147.62 184.84C147.88 184.84 148.13 184.6 148.12 184.34C148.11 184.06 147.9 183.85 147.62 183.84Z" fill="#36C6C9"/>
<path d="M128.72 196.18C128.15 196.15 127.59 196.12 127.02 196.08C126.76 196.07 126.51 196.32 126.52 196.58C126.53 196.86 126.74 197.06 127.02 197.08C127.59 197.11 128.15 197.14 128.72 197.18C128.98 197.19 129.23 196.94 129.22 196.68C129.21 196.4 129 196.2 128.72 196.18Z" fill="#36C6C9"/>
<path d="M150 157.23V161.04V162.08V168.32L149.97 176.29V177.14C149.97 177.14 122.39 175.61 121.03 177.14C119.76 178.58 119.23 180.17 102.62 179.38C102.49 179.37 102.36 179.37 102.23 179.36C101.24 179.31 100.18 179.26 99.07 179.19C95.41 178.97 91.26 178.73 86.88 178.48C80.92 178.14 74.54 177.79 68.44 177.5H68.43C66.88 177.43 65.34 177.36 63.83 177.29C63.2 177.26 62.58 177.24 61.96 177.22C58.95 177.09 56.07 176.98 53.44 176.91C52.94 176.9 52.44 176.88 51.96 176.87C50.31 176.83 48.77 176.81 47.37 176.8C46.18 176.78 45.08 176.79 44.1 176.8C43.24 176.81 42.47 176.83 41.8 176.87H41.79C41.32 176.89 40.89 176.92 40.52 176.95H40.5C39.93 177 39.48 177.06 39.16 177.14C37.85 177.46 35.09 177.77 31.59 178.04H31.41C28.45 178.27 24.98 178.46 21.44 178.57H21.21C13.19 178.85 4.89 178.77 1.37 178C-0.910001 177.5 -3.59 177.46 -6.82 177.57C-7.77 177.61 -8.77 177.65 -9.82 177.71C-12.2 177.82 -14.86 177.96 -17.84 178.02C-17.85 178.03 -17.86 178.03 -17.86 178.03C-18.4 178.04 -18.95 178.05 -19.51 178.05C-24.01 178.1 -29.2 177.95 -35.22 177.31C-48 175.95 -50 180.78 -50 180.78V101.84C-50 101.84 -49.58 101.76 -48.79 101.62H-48.78C-46.52 101.22 -41.25 100.31 -34.05 99.2099C-33.61 99.1399 -33.16 99.0799 -32.71 99.0099C-31.53 98.8399 -30.3 98.6599 -29.03 98.4799C-28.89 98.4499 -28.75 98.4299 -28.6 98.4099C-23.33 97.6499 -17.34 96.8499 -10.94 96.0899C-10.67 96.0599 -10.39 96.0199 -10.12 95.9899C-5.96 95.5099 -1.64 95.0399 2.78 94.6199C2.82 94.6199 2.87 94.6099 2.92 94.6099C9.31 93.9999 15.87 93.4999 22.37 93.1599C22.73 93.1399 23.1 93.1299 23.46 93.1099C27.21 92.9299 30.93 92.7999 34.57 92.7599C34.62 92.7499 34.67 92.7499 34.71 92.7599C36.23 92.7299 37.72 92.7199 39.2 92.7399C39.22 92.7299 39.25 92.7299 39.27 92.7399C42.27 92.7499 45.21 92.8199 48.05 92.9599C53.47 93.2099 58.54 93.6999 63.07 94.4999C64.89 94.8099 66.62 95.1799 68.25 95.5899C69.07 95.7999 69.86 96.0199 70.62 96.2499C70.75 96.2999 70.88 96.3399 71.01 96.3799C71.61 96.5699 72.2 96.7699 72.77 96.9799C75.1 97.8299 77.14 98.8399 78.81 100.01C80.62 101.27 82.38 102.61 84.1 104C84.24 104.11 84.37 104.21 84.5 104.32C86.35 105.82 88.15 107.39 89.93 109C94.77 113.41 99.38 118.16 103.98 122.94C104.7 123.69 105.43 124.44 106.15 125.19C106.56 125.62 106.97 126.04 107.38 126.46C108.89 128.04 110.42 129.6 111.96 131.15C112.84 132.04 113.72 132.92 114.6 133.79C116.93 136.07 119.29 138.3 121.72 140.42C121.87 140.56 122.02 140.69 122.18 140.82C126.7 144.75 131.43 148.33 136.55 151.31C140.75 153.74 145.2 155.77 150 157.24V157.23Z" fill="#2C9C5D"/>
<path d="M77.1199 9.61005C77.1199 9.61005 56.2699 6.89005 57.5499 19.6C57.5499 19.6 43.0999 17.92 39.6599 30.32C37.2599 38.98 33.7699 33.8 30.3499 35.96C28.2199 37.31 28.4899 41.3501 30.3099 42.4501C30.3099 42.4501 25.6699 45.87 28.5299 49.94C31.3899 54.01 37.6299 52.9101 39.1399 49.1501C39.1399 49.1501 46.0199 58.6901 55.2699 51.2401C55.2699 51.2401 61.4599 58.3901 69.7499 48.0401C69.7499 48.0401 77.3199 54.72 86.9799 46.92C86.9799 46.92 96.5499 55.31 104.72 43.42C104.72 43.42 112.44 59.43 120.11 47.93C120.11 47.93 132.3 50.28 135.86 41.84C141.48 28.5201 128.94 22.44 125.39 24.07C125.39 24.07 125.93 9.52005 117.09 11.12C108.25 12.72 104.84 22.86 101.9 15.74C97.3199 4.64005 89.9299 11.69 89.9299 11.69C89.9299 11.69 90.3399 6.88005 84.6399 5.94005C80.1999 5.21005 78.4599 7.72005 77.0999 9.62005L77.1199 9.61005Z" fill="white"/>
<path d="M126.33 37.7601C126.11 38.6901 125.59 39.4701 124.88 40.0601C124.95 39.8801 125.01 39.6801 125.06 39.4801C126.2 34.5601 121.21 33.1501 121.21 33.1501C121.21 33.1501 125.39 29.4601 122.49 26.6801C119.07 23.4101 114.75 27.8901 113.91 28.8401C114.42 27.8801 113.84 23.4701 110.16 21.9901C103.95 19.5001 101.63 25.1201 101.63 25.1201C101.63 25.1201 100.68 20.0801 94.5202 19.5601C85.1502 18.7901 87.3002 24.7701 87.3002 24.7701C85.5602 24.0001 80.8602 24.6701 80.1902 29.1401C80.1802 29.2201 80.1702 29.3001 80.1602 29.3801C80.0802 28.8101 80.0802 28.1601 80.1902 27.4201C80.8802 22.9501 84.4602 22.6901 86.2402 23.4601C86.2402 23.4601 85.2902 17.0601 94.9202 17.8401C101.26 18.3501 102.24 23.4001 102.24 23.4001C102.24 23.4001 104.59 17.8701 111.01 20.2701C114.64 21.6201 115.4 26.2901 114.83 27.1701C115.57 26.4301 119.7 22.6201 123.52 25.6301C127.73 28.9501 122.5 32.7801 122.5 32.7801C122.5 32.7801 127.51 32.8401 126.33 37.7601Z" fill="#E6FAFF"/>
<path d="M75.9698 30.82C76.1598 31.63 75.7198 32.99 75.6298 33.73C75.5698 33.57 75.8398 32.71 75.5798 31.74C74.4498 27.49 70.2598 29.7 70.2598 29.7C70.2598 29.7 70.0798 26.27 66.8698 25.74C63.0798 25.12 63.0298 30.21 63.0698 31.25C62.8398 30.36 60.0698 27.63 57.1098 28.35C52.1198 29.58 53.8698 34.5 53.8698 34.5C53.8698 34.5 50.5398 31.52 46.6698 34.06C40.7898 37.95 45.3398 41.01 45.3398 41.01C43.8998 41.31 41.5398 43.97 43.6098 47.33C43.6498 47.39 43.6898 47.45 43.7198 47.51C43.3598 47.16 42.9998 46.72 42.6598 46.16C40.5998 42.79 42.5398 40.93 43.9998 40.62C43.9998 40.62 39.9198 36.71 45.9498 32.71C49.9198 30.07 53.2698 33.05 53.2698 33.05C53.2698 33.05 51.5898 28.18 56.6498 26.79C59.5098 26 62.5198 28.82 62.6698 29.69C62.6898 28.84 62.9998 24.3 66.8798 24.55C71.1598 24.83 70.7998 28.85 70.7998 28.85C70.7998 28.85 74.9298 26.45 75.9598 30.82H75.9698Z" fill="#E6FAFF"/>
<path d="M-24.9703 47.1601C-24.9703 47.1601 -26.8303 41.9501 -18.6103 41.0001C-13.2003 40.3801 -11.5403 44.4601 -11.5403 44.4601C-11.5403 44.4601 -10.4703 39.3401 -4.69025 40.3801C-0.980252 41.0401 0.159748 45.2201 -0.420252 45.6701C-0.420252 45.6701 2.61974 40.7301 6.70974 42.8201C10.7997 44.9101 7.03975 48.9901 7.03975 48.9901C7.03975 48.9901 11.2597 48.2101 11.0797 52.5401C10.9497 55.8201 6.33975 57.9001 3.07975 55.1601C3.07975 55.1601 -0.300255 63.2101 -7.65026 57.6001C-7.65026 57.6001 -8.09025 60.7401 -11.7703 60.9101C-12.8603 60.9601 -15.4303 60.8201 -15.6103 58.4601C-15.6103 58.4601 -17.0103 61.0901 -20.5103 60.7101C-23.2403 60.4101 -26.1103 58.0201 -24.4103 55.6301C-24.4103 55.6301 -29.1903 56.3301 -29.3903 51.4901C-29.5503 47.6201 -26.5903 46.8201 -24.9603 47.1601H-24.9703Z" fill="#E6FAFF"/>
<path d="M33.3096 42.1799L40.7196 43.2999V44.3099H48.8396L55.4396 41.2699L56.1496 36.8999H79.3896L83.8596 39.6399L80.6096 54.2599L33.3096 51.8199V42.1799Z" fill="#8B9461"/>
<path d="M32.6204 46.5898H45.2304L52.3004 39.4398H55.1604L60.7904 44.4598L63.8803 48.1198L67.3403 46.4398L77.3904 45.2198L78.4503 41.7198L80.5804 40.8098V36.3898L82.5303 35.0198H84.8504L87.1304 74.9098L88.6503 77.3498V99.6498H31.8604L32.6204 46.5898Z" fill="#AFBA79"/>
<path d="M54.8802 66.8799H52.9902V71.0299H54.8802V66.8799Z" fill="#3E4C7A"/>
<g style="mix-blend-mode:multiply" opacity="0.29">
<path d="M32.6201 46.5898C32.6201 46.5898 39.3401 60.4398 43.9901 62.4198C48.6401 64.3998 48.3301 68.2798 49.7801 73.0798C51.2301 77.8798 55.7901 75.5698 61.2001 80.4398C66.6101 85.3098 81.4801 96.6798 88.6601 97.3598V99.6398H31.8701L32.6301 46.5798L32.6201 46.5898Z" fill="#B4B89F"/>
</g>
<path d="M24.8301 6.12988H24.5801V26.8199H24.8301V6.12988Z" fill="#434459"/>
<path d="M34.3801 9.74988H24.8301V6.12988H34.3801L31.7701 7.93988L34.3801 9.74988Z" fill="#5C63B3"/>
<path d="M39.5599 21.4699V63.9999H34.3799V19.1399L39.5599 21.4699Z" fill="#B2BD7C"/>
<path d="M10.0195 19.8698H15.1195L16.1895 20.9398L17.6395 20.4798V19.1398H20.4495L20.9895 20.6398L24.8695 20.4098L25.4795 19.1398L28.2195 19.0398L28.7995 20.4098L30.7095 20.6398L31.6395 19.0398L34.3795 19.1398V70.6498H10.0195V19.8698Z" fill="#C0CC85"/>
<path d="M3.25019 49.93L0.200195 47.95H3.50019L3.25019 49.93Z" fill="#AD5A62"/>
<path d="M27.2496 46.9399H2.88965V68.9499H27.2496V46.9399Z" fill="#CCD98D"/>
<path d="M34.0296 70.65V102.13L5.46957 101.71L-25.4404 101.25V70.2L34.0296 70.65Z" fill="#DAE3AD"/>
<path d="M-17.8604 70.2199L-5.45035 63.5999H34.3796L34.0396 70.6499L-17.8604 70.2199Z" fill="#C4805A"/>
<path d="M0.200195 47.95L14.7702 34.2L28.3202 47.95H0.200195Z" fill="#CC9272"/>
<path d="M17.8003 54.75H15.0703V58.18H17.8003V54.75Z" fill="#5264A1"/>
<path d="M33.44 54.75H30.71V58.18H33.44V54.75Z" fill="#3E4C7A"/>
<path d="M42.2002 68.95H30.7002V94.74H42.2002V68.95Z" fill="#CCD98D"/>
<g style="mix-blend-mode:multiply" opacity="0.29">
<path d="M39.2802 94.74H30.7002V68.95H35.6102L39.2802 69.89C39.2802 69.89 34.4902 70.86 32.8902 71.02C32.1802 71.1 31.8202 75.47 32.8302 80.45C34.0902 86.62 37.0502 93.72 39.2802 94.74Z" fill="#C8CCB1"/>
</g>
<path d="M43.9598 68.95C43.9598 68.95 43.8298 69.03 43.5098 69.15C42.9498 69.35 41.7798 69.67 39.6598 69.89C38.7498 69.96 37.6698 70.03 36.3898 70.06C30.3698 70.17 28.7998 68.95 28.7998 68.95L36.4598 61.5L43.9598 68.95Z" fill="#CC9272"/>
<path d="M38.5502 75.25H36.6602V79.4H38.5502V75.25Z" fill="#5264A1"/>
<path d="M8.17027 76.2998H6.28027V80.4498H8.17027V76.2998Z" fill="#5264A1"/>
<path d="M19.9496 76.2998H18.0596V80.4498H19.9496V76.2998Z" fill="#5264A1"/>
<path d="M8.17027 86.1599H6.28027V90.3099H8.17027V86.1599Z" fill="#5264A1"/>
<path d="M19.9496 86.1599H18.0596V90.3099H19.9496V86.1599Z" fill="#5264A1"/>
<g style="mix-blend-mode:multiply" opacity="0.21">
<path d="M5.46957 101.71L-25.4404 101.26V88.4499L-24.9904 75.6299C-24.9904 75.6299 -16.6404 84.4599 -11.2604 85.4199C-5.88043 86.3799 -8.31043 92.7299 -5.02043 94.5999C-1.72043 96.4799 5.51957 96.4399 7.22957 100.18C7.49957 100.79 6.81957 101.29 5.47957 101.71H5.46957Z" fill="#DAE3AD"/>
</g>
<g style="mix-blend-mode:multiply">
<path d="M34.3795 23.5698H10.0195V24.6398H34.3795V23.5698Z" fill="#D5DEA9"/>
</g>
<g style="mix-blend-mode:multiply">
<path d="M39.5599 25.0898V26.1498L34.3799 24.6298V23.5698L39.5599 25.0898Z" fill="#D5DEA9"/>
</g>
<path d="M43.5002 69.15C42.9402 69.35 41.7702 69.67 39.6502 69.89L36.4502 61.49L43.5002 69.15Z" fill="#E8A682"/>
<path d="M110.8 65.27C110.8 65.27 112.27 60.23 120.63 61.55C125.16 62.26 125.16 64.76 125.16 64.76C125.16 64.76 127.03 62.46 131.61 63.96C136.19 65.46 135.06 68.64 135.06 68.64C135.06 68.64 144.55 64.05 146.42 72.73C148.29 81.41 141.82 81.88 141.82 81.88C141.82 81.88 144.07 85.39 139.52 87.03C130.71 90.21 127.26 84.35 127.26 84.35C127.26 84.35 124.58 89.84 115.77 87.34C111.97 86.26 107.68 84.62 109.64 81.88C109.64 81.88 98.7898 84.72 98.1498 78.19C97.9398 76.09 100.32 74.47 100.32 74.47C100.32 74.47 94.9498 72.54 99.6998 67.13C104.73 61.41 109.84 64.93 110.79 65.28L110.8 65.27Z" fill="white"/>
<path d="M138.08 74.8701C138.08 74.8701 139.87 71.1601 133.86 69.8101C129.91 68.9201 128.36 71.8101 128.36 71.8101C128.36 71.8101 127.97 67.9401 123.62 68.2501C120.83 68.4501 119.65 71.4401 120.04 71.8201C120.04 71.8201 118.19 67.9201 115 69.1501C111.81 70.3801 114.27 73.6901 114.27 73.6901C114.27 73.6901 111.21 72.7801 111 75.9901C110.84 78.4301 114.08 80.3301 116.71 78.5601C116.71 78.5601 118.57 84.7801 124.45 81.2201C124.45 81.2201 124.53 83.5801 127.23 83.9901C128.03 84.1101 129.94 84.2201 130.27 82.4901C130.27 82.4901 131.1 84.5501 133.72 84.5401C135.76 84.5401 138.07 83.0001 137.01 81.0901C137.01 81.0901 140.49 81.9901 141.02 78.4201C141.45 75.5701 139.32 74.7401 138.09 74.8701H138.08Z" fill="#E6FAFF"/>
<path d="M-16.6105 91.6598C-16.6105 91.6598 -18.9905 85.0798 -14.4805 85.3798C-12.6205 85.4998 -12.8605 89.1898 -12.2705 86.3898C-11.8305 84.2998 -9.63047 81.3698 -7.25047 83.1598C-4.87047 84.9498 -5.89047 86.8998 -5.89047 86.8998C-5.89047 86.8998 -6.83047 88.2598 -5.72047 88.3498C-4.61047 88.4398 -2.40047 84.4398 -0.870468 87.1598C0.659532 89.8798 -1.81047 89.6198 -0.780468 91.0698C0.249532 92.5198 1.43953 90.0498 2.53953 91.6698C3.63953 93.2898 2.62953 94.3098 2.53953 95.0698C2.44953 95.8298 2.46953 95.8398 3.04953 96.6898C3.62953 97.5398 -0.600468 101.37 -2.05047 101.45C-3.50047 101.53 -11.7205 100.77 -14.1205 100.41C-17.9905 99.8198 -21.2805 94.6498 -16.6005 91.6698L-16.6105 91.6598Z" fill="#007534"/>
<path d="M3.41043 106.66C3.41043 106.66 8.06042 101.91 4.55042 100.86C4.55042 100.86 5.86042 95.2398 2.51042 95.4898C2.51042 95.4898 4.41043 90.1798 1.18043 90.6698C-2.04957 91.1598 -2.13957 92.6298 -2.13957 92.6298C-2.13957 92.6298 -2.54957 88.6298 -5.15957 90.3498C-7.76957 92.0698 -6.14958 94.1798 -6.14958 94.1798C-6.14958 94.1798 -9.09957 92.1698 -10.7096 95.4998C-12.3296 98.8298 -8.42957 98.2998 -8.42957 98.2998C-8.42957 98.2998 -11.9396 98.4998 -10.5496 100.87C-9.15957 103.24 -7.44957 102.82 -7.44957 102.82C-7.44957 102.82 -10.6896 103.77 -9.48958 105.68C-8.28958 107.59 -6.46957 108.54 -4.26957 107.32C-2.06957 106.1 3.40043 106.67 3.40043 106.67L3.41043 106.66Z" fill="#00692E"/>
<path d="M16.0601 87.8099C16.0601 87.8099 14.6501 84.2699 12.2101 86.1599C9.77015 88.0499 11.5702 86.4199 8.55015 87.0099C4.05015 87.8899 5.69015 91.6399 5.69015 91.6399C5.69015 91.6399 3.90015 91.6999 3.05015 93.3999C2.20015 95.0999 4.87015 98.2099 4.87015 98.2099C4.87015 98.2099 3.03015 98.9799 2.83015 100.39C2.63015 101.8 6.30015 103.46 6.30015 103.46C6.30015 103.46 4.94015 105.65 5.53015 106.79C6.12015 107.93 8.09015 107.53 8.55015 107.83C9.01015 108.13 21.6102 106.42 21.6102 106.42C21.6102 106.42 23.3702 105.29 23.5002 104.35C23.5902 103.71 21.9302 103.36 22.3302 102.71C23.7502 100.48 26.3502 98.4799 23.7202 97.7099C22.2902 97.2899 25.7002 96.1699 24.9102 94.6599C24.1202 93.1499 22.2402 93.0299 23.1502 91.3199C23.8102 90.0899 23.6301 88.8899 21.2701 88.5999C18.9101 88.3099 19.2802 89.3299 18.6902 89.0599C18.1002 88.7899 18.0302 86.1999 16.0502 87.8199L16.0601 87.8099Z" fill="#008039"/>
<path d="M25.8202 106.01C25.8202 106.01 18.8002 102.38 22.3702 99.8898C22.3702 99.8898 18.8102 94.0398 22.6702 93.0698C22.6702 93.0698 18.5502 87.7898 22.3802 87.1398C26.2102 86.4898 26.8502 88.1098 26.8502 88.1098C26.8502 88.1098 25.8302 83.4498 29.4102 84.4098C32.9902 85.3698 31.9502 88.3598 31.9502 88.3598C31.9502 88.3598 34.5302 84.9998 37.5902 88.1498C40.6502 91.2998 36.0502 92.1598 36.0502 92.1598C36.0502 92.1598 40.0802 91.0798 39.4002 94.2698C38.7202 97.4598 36.6302 97.6298 36.6302 97.6298C36.6302 97.6298 40.6402 97.4998 40.0002 100.1C39.3602 102.7 37.6602 104.45 34.7202 103.89C31.7802 103.33 25.8202 106.01 25.8202 106.01Z" fill="#00692E"/>
<path d="M42.3696 85.2699C42.3696 85.2699 41.8496 84.6699 41.9196 82.6299C41.9796 80.8299 43.9596 79.0599 46.1596 80.3499C46.1596 80.3499 46.2796 77.8599 48.5796 77.9499C50.3596 78.0199 50.2096 79.8599 50.2096 79.8599C50.2096 79.8599 52.6996 77.9999 54.0496 80.1599C55.3996 82.3199 53.7796 83.4199 53.7796 83.4199C53.7796 83.4199 56.8696 82.7099 57.2196 84.3899C57.5696 86.0799 56.1396 87.5999 56.1396 87.5999C56.1396 87.5999 58.5496 85.4199 59.8196 87.3999C61.0896 89.3799 59.5396 91.7299 59.5396 91.7299C59.5396 91.7299 63.0496 90.3899 63.2096 92.7399C63.3696 95.0899 62.2396 96.1799 62.2396 96.1799C62.2396 96.1799 66.1896 94.4299 65.9396 96.9599C65.6896 99.4899 65.2096 103.71 55.5696 106.1C47.4796 108.11 39.5696 110.34 38.0196 104.6C37.7196 103.49 37.5396 101.62 38.5796 100.93C38.5796 100.93 36.6796 100.48 35.9296 99.2399C35.4096 98.3899 35.5396 96.7399 36.7296 96.3099C36.7296 96.3099 32.8596 93.9199 35.7696 90.8399C37.1996 89.3199 39.1696 90.3399 39.1696 90.3399C39.1696 90.3399 36.5896 87.2099 38.1396 85.1899C40.0696 82.6899 41.3496 84.1299 42.3896 85.2899L42.3696 85.2699Z" fill="#168746"/>
<path d="M48.8199 96.7299C48.8199 96.7299 45.8599 88.5599 51.4599 88.9199C53.7699 89.0699 53.4699 93.6599 54.2099 90.1699C54.7599 87.5799 57.4899 83.9299 60.4499 86.1499C63.4099 88.3699 62.1399 90.7999 62.1399 90.7999C62.1399 90.7999 60.9799 92.4899 62.3499 92.5999C63.7199 92.7099 66.4699 87.7499 68.3799 91.1199C70.2899 94.4899 67.2199 94.1799 68.4899 95.9799C69.7599 97.7799 71.2499 94.7099 72.6099 96.7199C73.9699 98.7299 72.7199 99.9999 72.6099 100.95C72.4999 101.9 72.5199 101.9 73.2399 102.96C73.9599 104.02 65.2499 106.91 63.4499 107.02C61.6499 107.13 54.8899 108.04 51.8999 107.59C47.0899 106.86 42.9999 100.43 48.8099 96.7299H48.8199Z" fill="#138F49"/>
<path d="M82.2397 115.28C82.2397 115.28 90.8397 109.77 85.9497 106.99C85.9497 106.99 89.8397 99.0298 84.7397 98.2398C84.7397 98.2398 89.4097 90.9498 84.3997 90.5698C79.3897 90.1898 78.7597 92.3598 78.7597 92.3598C78.7597 92.3598 79.5197 86.2398 75.0197 87.9098C70.5197 89.5798 72.2297 93.2998 72.2297 93.2998C72.2297 93.2998 68.5097 89.2798 64.9497 93.6998C61.3897 98.1298 67.4097 98.6798 67.4097 98.6798C67.4097 98.6798 62.0897 97.7698 63.3497 101.8C64.6097 105.83 67.3197 105.79 67.3197 105.79C67.3197 105.79 62.1497 106.1 63.2797 109.37C64.4097 112.64 66.8197 114.69 70.5397 113.62C74.2597 112.55 82.2497 115.28 82.2497 115.28H82.2397Z" fill="#007534"/>
<path d="M102.76 101.03C102.76 101.03 102.53 93.5998 97.4502 95.6198C92.3702 97.6398 96.2602 95.7098 90.9902 94.9598C83.1502 93.8398 83.6402 101.8 83.6402 101.8C83.6402 101.8 80.6902 100.81 78.3202 103.44C75.9502 106.07 78.4802 113.46 78.4802 113.46C78.4802 113.46 75.0402 113.77 73.9002 116.25C72.7602 118.73 77.7702 124.06 77.7702 124.06C77.7702 124.06 74.2802 127.29 74.5802 129.76C74.8802 132.23 78.3102 132.7 78.8902 133.54C79.4702 134.38 100.96 138.92 100.96 138.92C100.96 138.92 104.48 137.9 105.24 136.24C105.76 135.1 103.26 133.43 104.3 132.49C107.92 129.22 113.31 127.11 109.48 124.06C107.4 122.4 113.59 122.42 113.19 119.13C112.79 115.84 109.8 114.47 112.28 111.87C114.07 109.99 114.48 107.65 110.82 105.67C107.16 103.69 107.16 105.81 106.36 104.95C105.56 104.09 106.95 99.2398 102.78 101.03H102.76Z" fill="#00853B"/>
<path d="M26.0303 102.57C26.0303 102.57 24.4603 98.9199 27.7303 96.1099C29.5303 94.5699 33.1903 95.6399 34.1703 96.2599C34.1703 96.2599 32.6803 91.4699 37.3103 92.1099C41.9403 92.7499 39.9503 96.8199 39.9503 96.8199C39.9503 96.8199 41.4703 92.7999 43.8603 94.7299C46.2503 96.6599 43.8603 98.7399 43.8603 98.7399C43.8603 98.7399 48.4103 96.6599 48.8903 99.9399C49.3703 103.22 46.6503 104.17 46.6503 104.17C46.6503 104.17 51.1203 103.85 51.1203 107.76C51.1203 111.67 47.8503 111.43 47.8503 111.43C47.8503 111.43 50.7303 111.27 51.1203 113.75C51.5103 116.23 50.9603 119.73 46.3303 118.34C41.7003 116.95 34.8303 123.08 32.5103 118.66C32.5103 118.66 27.3203 122.78 26.2003 118.31C26.2003 118.31 21.7203 115.67 25.6403 111.6C25.6403 111.6 19.0403 104.57 26.0203 102.58L26.0303 102.57Z" fill="#2E915B"/>
<path d="M46.4201 105.94C46.4201 105.94 45.1601 103.03 47.7801 100.78C49.2101 99.55 52.1401 100.41 52.9301 100.9C52.9301 100.9 51.7401 97.07 55.4401 97.58C59.1401 98.09 57.5501 101.35 57.5501 101.35C57.5501 101.35 58.7601 98.14 60.6801 99.68C62.6001 101.22 60.6801 102.88 60.6801 102.88C60.6801 102.88 64.3201 101.22 64.7001 103.84C65.0801 106.46 62.9101 107.22 62.9101 107.22C62.9101 107.22 66.4801 106.96 66.4801 110.09C66.4801 113.22 63.8601 113.03 63.8601 113.03C63.8601 113.03 66.1601 112.9 66.4801 114.88C66.8001 116.86 66.3501 119.66 62.6501 118.54C58.9501 117.42 53.4601 122.33 51.6101 118.79C51.6101 118.79 47.4601 122.08 46.5701 118.51C46.5701 118.51 42.9901 116.4 46.1201 113.15C46.1201 113.15 40.8501 107.53 46.4201 105.94Z" fill="#009141"/>
<path d="M70.3904 111.87C70.3904 111.87 73.1504 103.54 77.2204 107.1C78.9004 108.57 75.8404 112.1 78.5604 109.72C80.5804 107.94 84.9104 106.59 85.8204 110.11C86.7204 113.63 84.2504 114.86 84.2504 114.86C84.2504 114.86 82.3204 115.55 83.3104 116.44C84.3004 117.33 89.4604 114.92 88.8404 118.77C88.2204 122.61 86.0604 120.57 85.9304 122.76C85.8004 124.95 88.8304 123.35 88.6404 125.77C88.4504 128.19 86.7004 128.48 86.0404 129.19C85.3804 129.9 88.2104 132.51 80.2904 135.57C79.1004 136.03 72.8504 133.3 71.5504 132.15C64.1704 125.65 64.1604 124 63.6304 119.85C63.0404 115.19 63.6604 111.47 70.4004 111.87H70.3904Z" fill="#128A47"/>
<path d="M63.59 117.36C63.59 117.36 64.02 116.59 63.48 114.4C63.01 112.46 60.46 111 58.37 112.89C58.37 112.89 57.67 110.22 55.2 110.84C53.29 111.32 53.87 113.28 53.87 113.28C53.87 113.28 50.75 111.83 49.77 114.48C48.79 117.13 50.81 117.95 50.81 117.95C50.81 117.95 47.3 117.88 47.3 119.79C47.3 121.7 49.2 123.02 49.2 123.02C49.2 123.02 46.09 121.2 45.16 123.64C44.23 126.08 46.45 128.27 46.45 128.27C46.45 128.27 42.34 127.62 42.7 130.2C43.06 132.78 44.53 133.71 44.53 133.71C44.53 133.71 39.84 132.71 40.7 135.4C41.56 138.09 43.03 142.55 54.03 142.95C63.26 143.28 72.35 143.9 72.72 137.32C72.79 136.05 72.56 133.98 71.28 133.46C71.28 133.46 73.24 132.54 73.77 131.02C74.14 129.98 73.62 128.22 72.23 128.02C72.23 128.02 75.88 124.55 72.02 121.87C70.12 120.55 68.22 122.1 68.22 122.1C68.22 122.1 70.31 118.12 68.16 116.28C65.5 114 64.43 115.87 63.58 117.36H63.59Z" fill="#309C5F"/>
<path d="M79.1698 137.43C81.5898 137.8 82.6698 136.75 82.6698 136.75C80.8098 136.78 77.3398 133.6 77.3398 133.6C79.2998 134.05 80.7898 133.2 80.7898 133.2C78.1898 132.78 76.7999 130.52 76.7999 130.52C78.5099 130.89 80.0798 129.84 80.0798 129.84C77.9498 129.6 75.9298 127 75.9298 127C77.3498 127.87 79.1599 127 79.1599 127C76.7099 126.68 74.9799 123.29 74.9799 123.29C76.4799 124.32 77.9799 122.82 77.9799 122.82C74.9799 123.29 73.8798 118.01 73.8798 118.01C73.8798 118.01 72.7798 123.29 69.7798 122.82C69.7798 122.82 71.2798 124.32 72.7798 123.29C72.7798 123.29 71.0398 126.68 68.5998 127C68.5998 127 70.4098 127.87 71.8298 127C71.8298 127 69.8098 129.6 67.6798 129.84C67.6798 129.84 69.2498 130.89 70.9598 130.52C70.9598 130.52 69.5698 132.78 66.9698 133.2C66.9698 133.2 68.4698 134.05 70.4198 133.6C70.4198 133.6 66.9498 136.78 65.0898 136.75C65.0898 136.75 66.1698 137.8 68.5898 137.43C68.5898 137.43 66.0698 139.57 63.5898 139.88C63.5898 139.88 66.0898 141.06 68.0898 140.61C70.0898 140.16 70.2598 139.92 70.2598 139.92C70.2598 139.92 70.5798 140.37 70.3198 140.97C70.0598 141.57 69.7698 141.86 69.7698 141.86C69.7698 141.86 71.1898 141.64 72.2898 141.07C73.1498 140.63 73.3398 140.1 73.6098 140.02C74.0998 140.59 74.2298 140.72 75.0098 141.07C76.1598 141.58 78.1599 141.6 78.1599 141.6C78.1599 141.6 77.5898 141.07 77.2498 140.67C76.8698 140.22 76.7999 139.76 76.7999 139.76C76.7999 139.76 78.5398 140.39 79.8998 140.47C81.2598 140.55 84.1498 139.56 84.1498 139.56C81.6798 139.25 79.1498 137.43 79.1498 137.43H79.1698Z" fill="#005937"/>
<path d="M100.97 148C100.97 148 93.6899 140.57 99.1799 138.92C99.1799 138.92 97.1399 130.13 102.37 130.51C102.37 130.51 99.3899 122.21 104.46 122.97C109.53 123.73 109.65 126.03 109.65 126.03C109.65 126.03 110.29 119.78 114.38 122.46C118.47 125.14 115.92 128.45 115.92 128.45C115.92 128.45 120.53 125.31 123.06 130.51C125.59 135.71 119.49 134.89 119.49 134.89C119.49 134.89 124.98 135.2 122.81 138.91C120.64 142.62 117.96 141.97 117.96 141.97C117.96 141.97 123.02 143.46 121.15 146.45C119.28 149.44 116.43 150.93 112.98 149.01C109.53 147.09 100.98 147.99 100.98 147.99L100.97 148Z" fill="#007534"/>
<path d="M79.8705 130.5C79.8705 130.5 81.7905 123.17 86.3705 126.34C90.9505 129.51 87.5305 126.7 92.9305 127.15C100.96 127.83 98.6705 135.62 98.6705 135.62C98.6705 135.62 101.83 135.31 103.58 138.47C105.33 141.62 101.14 148.38 101.14 148.38C101.14 148.38 104.49 149.47 105.05 152.19C105.61 154.91 99.4305 159.06 99.4305 159.06C99.4305 159.06 102.16 163.07 101.3 165.44C100.44 167.81 96.9305 167.51 96.1605 168.21C95.3905 168.91 73.0305 168.52 73.0305 168.52C73.0305 168.52 69.7705 166.71 69.4005 164.88C69.1505 163.63 72.0105 162.55 71.1905 161.38C68.3405 157.31 63.4805 153.99 67.9705 151.84C70.4105 150.67 64.2605 149.27 65.4105 146.1C66.5605 142.93 69.8405 142.25 67.9705 139.1C66.6205 136.83 66.7405 134.41 70.8405 133.28C74.9405 132.15 74.4505 134.25 75.4305 133.58C76.4105 132.91 76.1505 127.78 79.8805 130.5H79.8705Z" fill="#008F3F"/>
<path d="M-11.08 108.44C-11.08 108.44 -14.1 100.09 -8.38003 100.47C-6.02003 100.62 -6.33003 105.31 -5.57003 101.75C-5.01003 99.1 -2.22003 95.38 0.799966 97.65C3.81997 99.92 2.52997 102.4 2.52997 102.4C2.52997 102.4 1.33997 104.13 2.74997 104.24C4.15997 104.35 6.95997 99.28 8.90997 102.73C10.85 106.18 7.71997 105.86 9.01997 107.69C10.32 109.52 11.84 106.39 13.23 108.45C14.62 110.51 13.34 111.8 13.23 112.77C13.12 113.74 13.14 113.74 13.87 114.82C14.6 115.9 5.70997 118.86 3.86997 118.96C2.02997 119.06 -4.87003 120 -7.93003 119.54C-12.85 118.8 -17.02 112.22 -11.08 108.44Z" fill="#138F49"/>
<path d="M16.0504 101.59C16.0504 101.59 18.1004 97.7698 21.1904 99.3198C24.2804 100.87 22.7404 102.98 22.7404 102.98C22.7404 102.98 24.9604 100.65 26.8404 102.98C28.7204 105.31 25.3204 107.62 25.3204 107.62C25.3204 107.62 30.5804 105.12 31.2004 109.14C31.8204 113.16 28.2104 115.43 28.2104 115.43C28.2104 115.43 32.6504 114.5 32.9604 117.7C33.2704 120.9 31.3504 124.51 29.5204 124.1C29.5204 124.1 32.3404 126.95 25.4204 126.97C18.5004 126.99 3.90038 128.71 3.62038 126.3C3.34038 123.89 5.74038 122.55 5.74038 122.55C5.74038 122.55 2.19038 121.21 5.19038 118.42C5.19038 118.42 2.58038 112.74 8.39038 113.23C8.39038 113.23 4.70038 111.3 7.05038 109.13C7.05038 109.13 4.06038 104.46 8.19038 103.49C12.3204 102.52 12.7304 104.48 12.7304 104.48C12.7304 104.48 11.9404 99.5298 16.0504 101.59Z" fill="#15874A"/>
<path d="M41.2696 134.51C41.2696 134.51 48.8096 131.37 45.3496 128.5C45.3496 128.5 49.5196 122.77 45.6196 121.44C45.6196 121.44 50.3196 116.35 46.4196 115.35C42.5196 114.35 41.7296 115.97 41.7296 115.97C41.7296 115.97 43.1796 111.25 39.4096 111.94C35.6396 112.63 36.4596 115.79 36.4596 115.79C36.4596 115.79 34.0896 112.1 30.6696 115.09C27.2496 118.08 31.9096 119.36 31.9096 119.36C31.9096 119.36 27.8496 117.9 28.2796 121.25C28.7096 124.6 30.8496 124.95 30.8496 124.95C30.8496 124.95 26.7296 124.48 27.1696 127.21C27.6096 129.94 29.2096 131.9 32.2896 131.57C35.3696 131.24 41.2796 134.51 41.2796 134.51H41.2696Z" fill="#007A35"/>
<path d="M117.13 144.94C117.13 144.94 116.15 134.55 110.49 137.6C108.16 138.85 110.75 143.76 108.24 140.27C106.37 137.68 101.71 134.96 99.73 138.8C97.75 142.64 100.28 144.72 100.28 144.72C100.28 144.72 102.34 146.03 100.95 146.8C99.56 147.57 94.23 143.41 93.93 148.02C93.63 152.63 96.67 150.84 96.24 153.41C95.81 155.98 92.73 153.32 92.31 156.17C91.89 159.02 93.83 159.83 94.42 160.82C95.01 161.81 91.03 164.09 99.38 169.74C100.64 170.59 108.6 169.09 110.41 168.11C120.69 162.55 121.14 160.64 122.85 155.97C124.77 150.73 125.05 146.25 117.14 144.93L117.13 144.94Z" fill="#128A47"/>
<path d="M147.86 155.15C147.86 155.15 148.96 155.22 150 155.61V161.03C149.26 161.74 148.64 161.96 148.64 161.96C148.64 161.96 149.25 161.97 150 162.08V168.3C149.58 168.66 149.1 169 148.55 169.3C146.03 170.71 142.01 171.44 135.18 170.13C129.97 169.13 124.78 168.21 120.96 166.66C120.16 166.33 119.42 165.98 118.76 165.59H118.75C118.03 165.18 117.41 164.73 116.88 164.22C116.23 163.62 115.73 162.94 115.39 162.18C114.95 161.16 114.81 159.99 115.04 158.64C115.29 157.15 116.12 154.81 117.73 154.55C117.73 154.55 115.71 152.97 115.5 151.06C115.46 150.69 115.51 150.28 115.65 149.87C116 148.85 116.89 147.9 118.07 148C118.07 148 116.87 146.18 117.05 144.29C117.07 144.11 117.1 143.93 117.15 143.75C117.29 143.15 117.6 142.57 118.15 142.05C118.16 142.03 118.17 142.02 118.18 142.01C118.61 141.61 119.19 141.24 119.95 140.94C120.48 140.73 120.98 140.66 121.44 140.69C123.06 140.77 124.14 142.03 124.28 142.19C124.19 141.81 123.05 136.99 125.9 135.49C129.59 133.56 130.33 136 130.93 137.96C130.93 137.96 130.64 136.95 131.84 134.55C131.91 134.4 132 134.26 132.09 134.12C133.36 132.31 136.37 131.6 138.16 134.17C138.16 134.17 139.68 131.26 142.37 132.64C143.27 133.1 143.56 133.75 143.6 134.35C143.66 135.13 143.27 135.82 143.27 135.82C143.27 135.82 147.27 134.98 147.69 138.3C148.12 141.62 145.56 142.04 145.56 142.04C145.56 142.04 149.65 142.89 149.14 145.11C148.67 147.16 146.42 148.19 146.11 148.33C146.44 148.23 148.84 147.59 150 148.82V152.9C149.19 154.32 147.86 155.15 147.86 155.15Z" fill="#309C5F"/>
<path d="M0.0698423 110.41C0.0698423 110.41 -1.45016 106.59 -4.08016 108.63C-6.71016 110.67 -4.77016 108.91 -8.03016 109.55C-12.8802 110.5 -11.1102 114.54 -11.1102 114.54C-11.1102 114.54 -13.0402 114.6 -13.9602 116.43C-14.8702 118.26 -12.0002 121.61 -12.0002 121.61C-12.0002 121.61 -13.9802 122.44 -14.1902 123.95C-14.4002 125.46 -10.4502 127.25 -10.4502 127.25C-10.4502 127.25 -11.9202 129.61 -11.2802 130.83C-10.6402 132.05 -8.52016 131.63 -8.03016 131.95C-7.54016 132.27 6.03984 130.43 6.03984 130.43C6.03984 130.43 7.92984 129.21 8.06984 128.2C8.15984 127.51 6.36984 127.13 6.80984 126.44C8.33984 124.04 11.1398 121.89 8.30984 121.05C6.76984 120.6 10.4398 119.39 9.58984 117.76C8.73984 116.13 6.70984 116 7.69984 114.17C8.40984 112.84 8.21984 111.55 5.67984 111.24C3.13984 110.93 3.53984 112.03 2.90984 111.74C2.27984 111.45 2.18984 108.66 0.059844 110.4L0.0698423 110.41Z" fill="#008039"/>
<path d="M21.7997 128.54C23.9097 128.86 24.8497 127.94 24.8497 127.94C23.2297 127.96 20.1997 125.19 20.1997 125.19C21.9097 125.58 23.2097 124.84 23.2097 124.84C20.9397 124.47 19.7297 122.5 19.7297 122.5C21.2197 122.82 22.5897 121.9 22.5897 121.9C20.7297 121.69 18.9697 119.42 18.9697 119.42C20.2097 120.18 21.7897 119.42 21.7897 119.42C19.6597 119.14 18.1397 116.19 18.1397 116.19C19.4497 117.08 20.7497 115.78 20.7497 115.78C18.1397 116.19 17.1697 111.58 17.1697 111.58C17.1697 111.58 16.2097 116.19 13.5897 115.78C13.5897 115.78 14.8997 117.09 16.1997 116.19C16.1997 116.19 14.6897 119.15 12.5497 119.42C12.5497 119.42 14.1297 120.18 15.3697 119.42C15.3697 119.42 13.6097 121.69 11.7497 121.9C11.7497 121.9 13.1197 122.82 14.6097 122.5C14.6097 122.5 13.3997 124.47 11.1297 124.84C11.1297 124.84 12.4397 125.58 14.1397 125.19C14.1397 125.19 11.1197 127.97 9.48969 127.94C9.48969 127.94 10.4297 128.86 12.5397 128.54C12.5397 128.54 10.3397 130.4 8.17969 130.67C8.17969 130.67 10.3597 131.7 12.0997 131.31C13.8397 130.92 13.9897 130.71 13.9897 130.71C13.9897 130.71 14.2697 131.11 14.0397 131.62C13.8097 132.13 13.5597 132.39 13.5597 132.39C13.5597 132.39 14.7997 132.19 15.7597 131.7C16.5097 131.32 16.6797 130.86 16.9097 130.79C17.3397 131.29 17.4497 131.4 18.1297 131.7C19.1397 132.14 20.8797 132.16 20.8797 132.16C20.8797 132.16 20.3797 131.7 20.0897 131.35C19.7597 130.96 19.6897 130.56 19.6897 130.56C19.6897 130.56 21.1997 131.11 22.3897 131.18C23.5797 131.25 26.0997 130.39 26.0997 130.39C23.9397 130.12 21.7397 128.53 21.7397 128.53L21.7997 128.54Z" fill="#005937"/>
<path d="M12.9804 136.77C12.9804 136.77 11.4104 133.11 14.6904 130.3C16.4904 128.75 20.1604 129.83 21.1504 130.45C21.1504 130.45 19.6604 125.65 24.3004 126.29C28.9404 126.93 26.9404 131.01 26.9404 131.01C26.9404 131.01 28.4604 126.98 30.8604 128.91C33.2604 130.84 30.8604 132.93 30.8604 132.93C30.8604 132.93 35.4204 130.85 35.9004 134.13C36.3804 137.41 33.6604 138.37 33.6604 138.37C33.6604 138.37 38.1404 138.05 38.1404 141.97C38.1404 145.89 34.8604 145.65 34.8604 145.65C34.8604 145.65 37.7404 145.49 38.1404 147.97C38.5404 150.45 37.9804 153.96 33.3404 152.57C28.7004 151.18 21.8104 157.32 19.4904 152.89C19.4904 152.89 14.2904 157.02 13.1604 152.54C13.1604 152.54 8.67036 149.9 12.6004 145.81C12.6004 145.81 5.98036 138.76 12.9804 136.76V136.77Z" fill="#007334"/>
<path d="M-5.35015 132.64C-5.35015 132.64 -4.20016 124.09 1.41984 127.02C7.03984 129.95 3.07984 128.93 8.94984 127.02C14.8198 125.11 17.4998 128.81 15.9698 131.23C14.4398 133.65 10.0998 134.47 12.2698 136.55C14.4398 138.63 18.5298 138.12 20.9498 141.44C23.3698 144.76 21.4598 147.18 21.2098 149.87C20.9598 152.56 23.5098 153.83 24.5298 156.83C25.5498 159.83 26.0598 162.76 21.9798 164.04C17.8998 165.32 18.0198 169.53 17.3798 172.34C16.7398 175.15 11.8898 175.28 11.1198 176.17C10.3498 177.06 -7.75016 176.58 -7.75016 176.58C-7.75016 176.58 -11.6902 174.99 -12.3702 172.97C-12.8302 171.6 -9.75016 169.97 -10.8402 168.76C-14.6302 164.56 -20.6002 161.48 -15.8202 158.42C-13.2202 156.75 -20.3702 156.04 -19.5202 152.29C-18.6702 148.54 -15.0502 147.32 -17.6102 144.02C-19.4602 141.64 -19.6502 138.89 -15.1802 137.04C-10.7102 135.19 -10.9702 137.63 -9.95016 136.74C-8.93016 135.85 -9.95015 130.08 -5.35015 132.63V132.64Z" fill="#008C3E"/>
<path d="M36.4603 151.05C36.4603 151.05 31.3003 144.74 25.4003 150.07C22.5203 152.68 23.7503 156.31 23.7503 156.31C23.7503 156.31 22.6903 154.58 20.3403 154.74C17.3903 154.94 14.2503 159 17.5903 161.75C17.5903 161.75 12.4903 161.26 12.5803 166.76C12.6103 168.89 15.7203 170.49 15.7203 170.49C15.7203 170.49 13.5003 170.23 13.4403 173.23C13.3903 175.49 16.0103 176.09 16.0103 176.09L36.4403 176.28V151.04L36.4603 151.05Z" fill="#14964D"/>
<path d="M31.9997 136.75C30.5597 133.57 27.2297 125.57 35.0597 125.91C42.8897 126.25 46.2897 132.89 51.9097 130.51C57.5297 128.13 60.7597 127.62 62.9697 132.38C65.1797 137.14 61.0997 138 66.5397 139.7C71.9797 141.4 75.5597 140.04 78.2797 144.64C80.9997 149.24 78.7897 150.94 80.6597 154.34C82.5297 157.74 85.9397 157.23 87.6397 162C89.3397 166.77 87.9297 168.79 91.3297 169.47C94.7297 170.15 96.1497 170.51 96.1497 172.55C96.1497 174.59 94.6497 178.58 86.9797 178.48C71.5997 178.29 68.3997 177.5 68.3997 177.5C68.3997 177.5 33.4197 139.93 31.9797 136.75H31.9997Z" fill="#34A141"/>
<path d="M68.4201 177.5C67.5501 177.82 65.9601 177.98 63.9401 178.03C63.2401 178.05 62.4801 178.06 61.6901 178.05C59.2201 178.03 56.3801 177.91 53.5201 177.76L52.0101 177.67C51.1101 177.62 50.2201 177.56 49.3501 177.51C47.0301 177.36 44.8501 177.21 42.9801 177.09H42.9701C42.9701 177.09 42.9601 177.1 42.9501 177.09C42.0501 177.03 41.2301 176.99 40.5101 176.95C33.3601 176.59 34.2101 174.42 34.2101 174.42V135.78C37.2601 135.31 39.8301 135.94 42.0901 137.05C42.6501 137.32 43.1901 137.63 43.7101 137.95C46.9301 139.94 49.5001 142.7 51.9801 144.03C52.6401 144.38 53.2801 144.63 53.9301 144.74C54.0501 144.77 54.1801 144.79 54.3001 144.8C56.6901 145.03 57.4301 148.64 58.1701 152.43C58.2901 153.04 58.4101 153.66 58.5301 154.27C59.1201 157.15 59.8601 159.83 61.4701 160.88C61.8401 161.13 62.2601 161.28 62.7401 161.33C63.0301 161.37 63.3301 161.36 63.6601 161.31C70.4701 160.29 72.1701 176.12 68.4201 177.5Z" fill="#E3DA8D"/>
<path d="M49.3498 177.51C47.0298 177.36 44.8499 177.21 42.9799 177.09C47.5899 176.73 46.0398 168.86 46.0098 163.07C45.9598 151.41 42.0898 137.05 42.0898 137.05C42.6498 137.32 43.1898 137.63 43.7098 137.95C44.0298 141.61 44.8998 150.19 46.5198 158.09C47.7198 163.93 46.8399 172.29 47.1599 176.09C47.3399 178.25 50.0198 176.9 49.3498 177.51Z" fill="#DED585"/>
<path d="M63.9397 178.03C63.2397 178.05 62.4797 178.06 61.6897 178.05C63.3997 173.8 61.4697 160.88 61.4697 160.88C61.8397 161.13 62.2597 161.28 62.7397 161.33C61.8297 164.01 63.2997 174.02 63.9397 178.03Z" fill="#DED585"/>
<path d="M53.5194 177.76C53.2894 176.01 53.1494 173.55 53.8594 172.22C54.8294 170.41 57.5694 158.55 58.5294 154.27C58.4094 153.66 58.2894 153.04 58.1694 152.43C57.6094 156.35 55.9294 166.8 53.8994 168.07C53.1094 168.57 54.8994 150.02 53.9294 144.74C53.2794 144.63 52.6394 144.38 51.9794 144.03C52.4094 147.18 54.3394 162.38 52.6694 169.15C51.8494 172.49 51.7994 175.42 52.0094 177.67L53.5194 177.76Z" fill="#DED585"/>
<path d="M42.19 177.04C42.19 177.04 37.46 178.04 35.75 178C34.05 177.95 31.58 178.04 31.58 178.04H31.4L21.43 178.57H21.2C13.18 178.85 4.88 178.77 1.36 178C-5.62 176.46 -16.31 179.33 -35.23 177.31C-48 175.95 -50 180.78 -50 180.78V172.73C-50 172.73 -26.16 171.84 -11.61 174.64C2.95 177.45 34.18 174.79 34.18 174.79C34.18 174.79 35.43 174.47 36.32 174.98C37.21 175.5 36.48 176.26 38.43 176.07C40.37 175.88 40.05 175.75 40.82 176.29C41.2 176.56 41.53 176.75 41.78 176.87H41.79C42.04 176.99 42.19 177.04 42.19 177.04Z" fill="#19B04E"/>
<path d="M-4.68016 171.36C-0.770157 171.96 0.979843 170.25 0.979843 170.25C-2.03016 170.3 -7.64016 165.14 -7.64016 165.14C-4.48016 165.86 -2.05016 164.5 -2.05016 164.5C-6.26016 163.82 -8.51015 160.17 -8.51015 160.17C-5.74015 160.77 -3.20016 159.06 -3.20016 159.06C-6.65016 158.68 -9.92015 154.46 -9.92015 154.46C-7.62015 155.86 -4.69016 154.46 -4.69016 154.46C-8.65016 153.95 -11.4602 148.46 -11.4602 148.46C-9.03016 150.12 -6.61016 147.69 -6.61016 147.69C-11.4602 148.46 -13.2502 139.9 -13.2502 139.9C-13.2502 139.9 -15.0402 148.45 -19.8902 147.69C-19.8902 147.69 -17.4602 150.12 -15.0402 148.46C-15.0402 148.46 -17.8502 153.95 -21.8102 154.46C-21.8102 154.46 -18.8702 155.86 -16.5802 154.46C-16.5802 154.46 -19.8502 158.67 -23.3002 159.06C-23.3002 159.06 -20.7502 160.76 -17.9902 160.17C-17.9902 160.17 -20.2302 163.82 -24.4502 164.5C-24.4502 164.5 -22.0202 165.87 -18.8602 165.14C-18.8602 165.14 -24.4702 170.29 -27.4802 170.25C-27.4802 170.25 -25.7402 171.95 -21.8202 171.36C-21.8202 171.36 -25.9102 174.82 -29.9102 175.32C-29.9102 175.32 -25.8602 177.23 -22.6302 176.5C-19.4102 175.77 -19.1202 175.38 -19.1202 175.38C-19.1202 175.38 -18.6102 176.11 -19.0202 177.07C-19.4302 178.03 -19.9102 178.51 -19.9102 178.51C-19.9102 178.51 -17.6102 178.15 -15.8202 177.23C-14.4302 176.52 -14.1202 175.67 -13.6802 175.54C-12.8802 176.47 -12.6802 176.68 -11.4102 177.23C-9.54016 178.05 -6.30016 178.09 -6.30016 178.09C-6.30016 178.09 -7.23016 177.23 -7.77016 176.59C-8.38016 175.87 -8.50016 175.12 -8.50016 175.12C-8.50016 175.12 -5.69016 176.14 -3.49016 176.27C-1.29016 176.4 3.38984 174.8 3.38984 174.8C-0.610157 174.3 -4.70016 171.35 -4.70016 171.35L-4.68016 171.36Z" fill="#006B42"/>
<path d="M85.2197 164.96C85.2197 164.96 84.8697 160.79 86.4997 158.15C87.6097 156.35 90.4097 155.56 91.8597 156.11C95.4297 157.47 99.0097 160.37 100.37 156.62C101.73 152.87 101.39 150.32 104.97 153.73C108.55 157.14 108.03 156.19 109.57 159.21C111.11 162.23 113.83 162.33 117.23 162.11C120.63 161.89 123.19 160.36 122 163.42C120.81 166.48 120.81 167.68 120.81 167.68C120.81 167.68 123.02 168.36 123.36 170.23C123.7 172.1 122.42 173.29 122.3 173.8C122.18 174.31 121.49 176.73 114.85 176.71C108.21 176.69 92.3797 177.34 89.3197 176.68C86.2597 176.01 78.2597 171.93 85.2297 164.95L85.2197 164.96Z" fill="#14964D"/>
<path d="M119.1 166.7C119.1 166.7 115.53 156.84 122.29 157.28C125.07 157.46 124.72 163 125.61 158.79C126.27 155.66 129.57 151.26 133.14 153.94C136.71 156.62 135.18 159.56 135.18 159.56C135.18 159.56 133.78 161.6 135.44 161.73C137.1 161.86 140.42 155.87 142.72 159.95C145.02 164.03 141.32 163.65 142.85 165.82C144.38 167.99 146.18 164.29 147.83 166.71C149.48 169.13 147.96 170.67 147.83 171.82C147.7 172.97 147.72 172.97 148.59 174.25C149.46 175.53 140.17 174.51 138 174.63C135.83 174.75 124.57 176.05 120.96 175.51C115.15 174.63 112.09 171.19 119.11 166.72L119.1 166.7Z" fill="#128A47"/>
<path d="M113.88 173.95C116.91 174.41 118.26 173.09 118.26 173.09C115.93 173.13 111.59 169.14 111.59 169.14C114.04 169.7 115.91 168.64 115.91 168.64C112.65 168.11 110.92 165.29 110.92 165.29C113.06 165.75 115.03 164.43 115.03 164.43C112.36 164.13 109.83 160.88 109.83 160.88C111.61 161.97 113.88 160.88 113.88 160.88C110.82 160.49 108.65 156.24 108.65 156.24C110.53 157.52 112.4 155.65 112.4 155.65C108.65 156.24 107.27 149.63 107.27 149.63C107.27 149.63 105.89 156.24 102.14 155.65C102.14 155.65 104.02 157.53 105.89 156.24C105.89 156.24 103.72 160.48 100.66 160.88C100.66 160.88 102.93 161.97 104.71 160.88C104.71 160.88 102.18 164.14 99.5101 164.43C99.5101 164.43 101.48 165.75 103.62 165.29C103.62 165.29 101.88 168.12 98.6302 168.64C98.6302 168.64 100.51 169.7 102.95 169.14C102.95 169.14 98.6102 173.12 96.2802 173.09C96.2802 173.09 97.6302 174.41 100.66 173.95C100.66 173.95 97.5002 176.62 94.4102 177.01C94.4102 177.01 97.5401 178.49 100.04 177.92C102.54 177.35 102.75 177.06 102.75 177.06C102.75 177.06 103.14 177.63 102.82 178.37C102.5 179.11 102.13 179.48 102.13 179.48C102.13 179.48 103.91 179.2 105.29 178.49C106.37 177.94 106.61 177.28 106.94 177.18C107.56 177.9 107.71 178.06 108.69 178.49C110.13 179.13 112.64 179.16 112.64 179.16C112.64 179.16 111.92 178.49 111.5 178C111.03 177.44 110.93 176.86 110.93 176.86C110.93 176.86 113.1 177.65 114.8 177.75C116.5 177.85 120.12 176.61 120.12 176.61C117.03 176.22 113.87 173.94 113.87 173.94L113.88 173.95Z" fill="#006B42"/>
<path d="M122.11 28.64C122.11 28.64 122.17 28.56 122.25 28.48C122.21 28.56 122.16 28.61 122.11 28.64Z" fill="#EBFFFA"/>
<path d="M122.25 28.48C122.21 28.56 122.16 28.61 122.11 28.64C122.13 28.62 122.17 28.56 122.25 28.48Z" fill="#B0FFEB"/>
</g>
</svg>
