<svg width="48" height="78" viewBox="0 0 48 78" fill="none" xmlns="http://www.w3.org/2000/svg">
<path d="M30.64 19.4318C30.64 19.4318 29.0504 17.6236 29.2277 16.0636C29.405 14.5036 27.7563 16.1227 25.5227 10.3259C24.2286 6.9695 23.9627 2.97495 24.8195 1.03086C25.6763 -0.913232 27.2068 0.43995 27.4845 0.705859L27.7623 0.971768C27.7623 0.971768 31.0004 4.61768 31.5263 6.47313C32.0582 8.32859 32.6727 15.9159 32.0582 16.7963C31.4377 17.6768 32.5545 19.7627 30.6459 19.4259L30.64 19.4318Z" fill="#B2B2B2"/>
<mask id="mask0_74_27364" style="mask-type:luminance" maskUnits="userSpaceOnUse" x="24" y="0" width="9" height="20">
<path d="M30.6397 19.4318C30.6397 19.4318 29.0502 17.6236 29.2275 16.0636C29.4047 14.5036 27.7561 16.1227 25.5225 10.3259C24.2284 6.9695 23.9625 2.97495 24.8193 1.03086C25.6702 -0.913232 27.2066 0.43995 27.4843 0.705859L27.762 0.971768C27.762 0.971768 31.0002 4.61768 31.5261 6.47313C32.0579 8.32859 32.6725 15.9159 32.0579 16.7963C31.4375 17.6768 32.5543 19.7627 30.6456 19.4259" fill="white"/>
</mask>
<g mask="url(#mask0_74_27364)">
<path opacity="0.61" d="M31.4136 16.7079C31.4313 16.6252 31.455 16.5425 31.4727 16.4598C31.5022 16.3475 31.455 16.2529 31.3841 16.1939C31.3959 16.1584 31.4077 16.123 31.4136 16.0875C31.4609 15.928 31.3309 15.7684 31.1713 15.7625C31.2009 15.6561 31.2304 15.5439 31.26 15.4375C31.2777 15.3607 31.26 15.2898 31.2186 15.2307C31.2245 15.1893 31.2363 15.1479 31.2481 15.1066C31.2659 15.012 31.2304 14.9234 31.1713 14.8584C31.1831 14.8052 31.195 14.752 31.2009 14.6989C31.2245 14.5748 31.1595 14.4389 31.0531 14.3916C31.0709 14.3266 31.0886 14.2616 31.1063 14.1907C31.1477 14.0311 31 13.8302 30.8286 13.8657C30.8345 13.842 30.8404 13.8184 30.8463 13.7889C30.8995 13.5879 30.6691 13.393 30.4918 13.4698C30.4445 13.4048 30.3736 13.3575 30.2909 13.3516C30.2672 13.2157 30.1963 13.1034 30.0191 13.0502C29.9541 13.0325 29.8713 13.0443 29.8063 13.0798C29.8418 12.7961 29.8772 12.5125 29.8063 12.2348C29.7768 12.1048 29.6172 12.0102 29.4872 12.0516C29.4577 12.0634 29.4341 12.0752 29.4104 12.087C29.3986 11.898 29.3631 11.7089 29.2863 11.5434C29.2863 11.3248 29.2804 11.1061 29.2745 10.8875C29.2745 10.5211 29.2745 10.143 29.0677 9.82386C28.985 9.69977 28.7959 9.65841 28.6836 9.74704C28.7131 9.69386 28.725 9.63477 28.7013 9.55795C28.4768 8.84886 28.3291 8.11613 28.2522 7.38341C28.2522 7.29477 28.2404 7.20022 28.2404 7.11159C28.2109 6.20159 28.2759 5.29159 28.4413 4.39341C28.6245 3.38886 29.0322 2.42568 29.1445 1.40931C29.18 1.07841 28.66 1.07841 28.6245 1.40931C28.6245 1.42704 28.6186 1.45068 28.6127 1.46841C28.5891 1.49204 28.5713 1.52159 28.5536 1.55704C27.7854 3.4125 27.5136 5.45704 27.7322 7.44841C27.8091 8.80159 28.0868 10.1489 28.3527 11.4843C28.3822 11.957 28.4591 12.4298 28.53 12.8907C28.53 13.0089 28.5359 13.1329 28.5477 13.2511C28.4472 12.8552 28.3054 12.4652 28.0986 12.1048C28.0395 12.0043 27.9745 11.9098 27.9095 11.8152L27.8859 11.7739C27.7381 11.573 27.5727 11.3898 27.3777 11.2302C27.295 11.1593 27.1709 11.2834 27.2536 11.3543C27.4545 11.5198 27.62 11.703 27.7618 11.9039C28.335 13.1566 28.6127 14.5393 28.5713 15.9161C28.5595 16.312 28.5241 16.7079 28.4591 17.0979C28.4413 17.2043 28.6068 17.2516 28.6245 17.1452C28.6718 16.8734 28.6954 16.6016 28.7191 16.3298C28.7191 16.4184 28.7309 16.507 28.7309 16.5898C28.7309 16.637 28.7663 16.6607 28.8018 16.6666C28.8018 16.8911 28.8372 17.1157 28.92 17.3225C28.9613 17.4289 29.0736 17.4998 29.18 17.5057C29.18 17.5352 29.18 17.5707 29.1859 17.6002C29.1918 17.677 29.2272 17.7302 29.2627 17.7716C29.2627 17.9193 29.2922 18.067 29.3336 18.2148C29.375 18.3389 29.4931 18.4098 29.6172 18.398C29.6231 18.5043 29.6941 18.5811 29.7768 18.6166C29.7768 18.717 29.7709 18.8116 29.7768 18.912C29.7768 19.048 29.8772 19.1307 29.9836 19.1543C30.0013 19.3552 30.22 19.4557 30.3677 19.3729C30.4741 19.5502 30.7872 19.5798 30.8345 19.3257C30.9763 18.5102 31.1831 17.7066 31.455 16.9207C31.4904 16.8261 31.455 16.7375 31.39 16.6784L31.4136 16.7079Z" fill="#B2B2B2"/>
</g>
<path d="M13.7932 72.4661C13.7932 72.4661 21.4395 72.6079 22.2077 72.4307C22.2077 72.4307 27.4136 74.4929 27.8273 74.4929C28.2409 74.4929 16.0623 77.5243 12.0027 76.4902C7.94319 75.462 13.7991 72.4661 13.7991 72.4661" fill="#B2B2B2"/>
<path d="M28.7018 59.9268C28.7018 59.9268 30.2322 69.6945 30.1732 70.8704C30.1141 72.0463 31.1423 73.6949 31.4377 73.9313C31.7332 74.1677 29.6709 76.0763 27.7918 75.2549C25.9068 74.4336 27.2304 72.844 27.26 72.194C27.2895 71.544 25.5227 63.9568 25.5227 63.9568L28.7018 59.9268Z" fill="#B2B2B2"/>
<path d="M17.1434 71.4317C17.1434 71.4317 14.378 76.1058 11.1457 76.9921C7.91342 77.8785 5.52615 77.7839 5.85115 77.2876C6.17615 76.7912 7.29297 76.7085 7.29297 76.7085C7.29297 76.7085 3.46979 77.1989 5.00024 76.5253C5.00024 76.5253 1.70888 76.7617 3.00297 76.1412C3.00297 76.1412 0.0306957 76.6967 1.41342 75.4617C1.41342 75.4617 -0.96794 74.788 2.94388 73.5826C2.94388 73.5826 1.38388 73.1689 5.44342 72.0521C5.44342 72.0521 3.61751 71.2308 5.11842 70.9353C6.61933 70.6398 14.2362 74.0553 17.1493 71.4376L17.1434 71.4317Z" fill="#B2B2B2"/>
<mask id="mask1_74_27364" style="mask-type:luminance" maskUnits="userSpaceOnUse" x="0" y="70" width="18" height="8">
<path d="M17.1434 71.4316C17.1434 71.4316 14.378 76.1057 11.1457 76.9921C7.90751 77.8725 5.52615 77.7839 5.85115 77.2875C6.17615 76.7852 7.29297 76.7084 7.29297 76.7084C7.29297 76.7084 3.46979 77.1989 5.00024 76.5252C5.00024 76.5252 1.70888 76.7616 3.00297 76.1411C3.00297 76.1411 0.0306957 76.6966 1.41342 75.4616C1.41342 75.4616 -0.96794 74.788 2.94388 73.5825C2.94388 73.5825 1.38388 73.1689 5.44342 72.0521C5.44342 72.0521 3.61751 71.2307 5.11842 70.9352C5.6916 70.823 7.14524 71.2484 8.89433 71.6739C11.7366 72.3652 15.3471 73.0566 17.1493 71.4375" fill="white"/>
</mask>
<g mask="url(#mask1_74_27364)">
<path d="M16.003 70.6454C15.808 70.929 15.5953 71.2068 15.3648 71.4668C15.158 71.1181 14.5494 71.1004 14.3071 71.4786C14.2125 71.6263 14.1062 71.7681 13.9998 71.91C13.8934 71.8745 13.7694 71.8745 13.6275 71.9277C13.0839 72.1463 12.5521 72.3827 12.0321 72.6427C11.8253 72.6604 11.6303 72.69 11.4412 72.7254C11.2284 72.619 10.9744 72.5895 10.7144 72.6072L10.7025 72.5954C10.6257 72.5422 10.5312 72.5009 10.4425 72.4713C10.4307 72.4536 10.4189 72.4359 10.4012 72.424C10.0466 72.0577 9.5739 72.0045 9.08345 72.1286C8.96526 72.1109 8.84117 72.105 8.71708 72.1109C8.6639 71.7918 8.38617 71.5022 7.98435 71.6204C8.00799 71.6145 7.31663 71.2777 7.12163 71.26C6.93254 71.2422 6.74345 71.26 6.55435 71.2895C6.49526 71.2363 6.42436 71.189 6.34163 71.1477C6.11708 71.0295 5.88663 70.994 5.65617 71.0177C5.49663 70.7754 5.18345 70.6159 4.84663 70.7695C4.09617 71.1122 3.3989 71.5318 2.75481 72.0577C2.27026 72.4536 1.47254 73.0504 1.54936 73.7713C1.6439 74.634 2.62481 74.6636 3.63526 74.4627C3.53481 74.8645 3.64708 75.2545 4.13754 75.55C4.72845 75.9104 5.50254 75.5795 6.06981 75.349C6.42436 75.2072 6.79663 75.0536 7.13936 74.8586C7.24572 74.9472 7.3639 75.024 7.50572 75.0772C8.14981 75.3254 8.9239 75.225 9.62708 74.9945C10.0525 75.4672 10.933 75.3609 11.4766 75.2072C12.363 74.965 13.1666 74.4627 13.8639 73.8363C15.2171 73.4286 16.2334 72.4595 17.0548 71.254C17.498 70.61 16.4462 70.0013 16.0089 70.6454H16.003Z" fill="#B2B2B2"/>
<path opacity="0.61" d="M15.2466 70.8819C14.8507 71.1123 14.6025 71.461 14.2598 71.7505C13.9466 72.0164 13.533 72.1701 13.1193 72.2882C12.9421 72.306 12.7707 72.3591 12.5816 72.4478C12.4162 72.2291 12.1148 72.0991 11.7957 72.2469C11.5475 72.3651 11.2934 72.4655 11.0334 72.5601C11.0334 72.1937 10.6966 71.7919 10.2653 71.9219C10.088 71.9751 9.91662 72.0401 9.75707 72.111C9.72753 71.7328 9.30207 71.3605 8.84116 71.5732C8.69344 71.6382 8.51026 71.7328 8.30344 71.8273C8.19707 71.5732 7.91935 71.3782 7.58844 71.4432C7.35207 71.4905 7.12753 71.5555 6.9148 71.6382C6.81435 71.3487 6.54253 71.1182 6.1998 71.2423H6.18798C6.1998 70.8287 5.70344 70.4091 5.26616 70.6691C5.18935 70.7223 5.10662 70.7696 5.02389 70.8051C4.68116 70.5687 4.06071 70.7223 4.03707 71.2778C4.02526 71.5969 4.12571 71.7978 4.28526 71.916C4.22616 72.1701 4.33844 72.4182 4.56298 72.5778C4.65162 72.6428 4.74616 72.6841 4.84662 72.7137C4.87616 72.8851 4.97662 73.0387 5.13616 73.1391C5.32526 73.2632 5.53798 73.3223 5.76844 73.3341C5.82162 73.3755 5.88071 73.411 5.94571 73.4287C6.29435 73.5528 6.68435 73.5528 7.08026 73.4878C7.15707 73.6001 7.26935 73.6946 7.41707 73.7478C7.6948 73.8541 8.00798 73.8719 8.33298 73.8423C8.38025 73.9132 8.43935 73.9723 8.51616 74.0196C9.03616 74.3387 9.6448 74.1732 10.2062 74.0551C10.4839 73.996 10.7498 73.9191 11.0157 73.8364C11.0393 73.866 11.0689 73.8955 11.0984 73.9251C11.7957 74.5278 13.2139 73.8601 13.8343 73.4464C13.9112 73.3932 13.9703 73.3341 14.0175 73.2573C14.2303 73.1746 14.4371 73.0801 14.6321 72.9678C15.1107 72.696 15.3884 72.1937 15.8612 71.9219C16.5348 71.5319 15.9262 70.486 15.2525 70.876L15.2466 70.8819Z" fill="#B2B2B2"/>
</g>
<path d="M30.9945 16.6193C30.634 17.1393 30.0904 18.0316 30.1318 19.2312C30.2145 21.4471 30.7877 21.7662 30.3859 22.2566C29.854 22.8948 29.6827 23.5152 29.6827 23.5152C29.6827 23.5152 30.1259 23.0957 30.3209 23.208C30.5218 23.3202 30.6931 25.1284 30.3859 25.5657C30.0786 26.0089 29.5054 26.2689 29.3281 26.5348C29.2336 26.6825 29.5172 26.5702 29.8068 26.4639C30.049 26.3752 30.2913 26.2866 30.3386 26.3339C30.4509 26.4462 28.9027 27.0843 28.4831 27.3266C28.0636 27.5689 29.0327 27.5925 29.1036 27.7225C29.1686 27.8525 27.7386 27.9412 26.545 28.3607C25.3513 28.7802 19.5545 33.7675 18.4731 34.713C17.3918 35.6643 9.47359 40.1198 8.5695 41.0652C7.66541 42.0166 -1.81868 55.2471 0.828592 60.9257C3.47586 66.6043 2.9145 70.7348 5.65041 71.6152C8.38632 72.4957 14.2954 75.7162 22.3731 68.1289C22.3731 68.1289 17.959 75.7634 19.064 77.2171C20.169 78.6707 36.5786 77.3471 36.8859 76.8625C37.1931 76.378 36.7736 76.1357 36.7736 76.1357C36.7736 76.1357 38.9245 76.0589 37.0277 74.753C35.2845 73.5534 33.6654 72.5489 30.4095 73.3111C27.1536 74.0734 24.4886 73.6362 24.4709 72.6434C24.4059 69.6652 26.5272 67.3962 28.5068 62.2552C30.0195 58.3198 30.1081 56.748 30.0372 56.4525C29.9663 56.1571 30.7109 56.3639 31.1127 55.5248C31.1127 55.5248 35.8754 67.343 36.1177 70.5398C36.36 73.7366 35.4972 75.5448 38.369 76.3839C41.235 77.223 42.074 76.5612 42.139 76.2539C42.204 75.9466 41.5895 74.2684 39.4268 73.6302C39.4268 73.6302 35.7454 56.3993 36.1177 55.3652C36.49 54.3312 37.465 51.8375 37.465 51.8375C37.465 51.8375 37.9495 52.1921 37.8195 53.0075C37.8195 53.0075 38.6822 51.7725 38.5227 50.5789C38.369 49.3852 40.1122 46.673 40.1122 46.673C40.1122 46.673 40.3309 47.1812 40.1536 47.6657C39.9763 48.1502 41.365 45.1071 41.1227 43.3225C40.8804 41.538 41.9854 42.1289 41.4122 36.9052C40.8391 31.6757 40.969 29.8912 42.8659 27.7284C44.6445 25.7016 34.085 12.1462 30.9945 16.6134" fill="#B2B2B2"/>
<mask id="mask2_74_27364" style="mask-type:luminance" maskUnits="userSpaceOnUse" x="0" y="15" width="44" height="63">
<path d="M30.9945 16.6193C30.634 17.1393 30.0904 18.0316 30.1318 19.2312C30.2145 21.4471 30.7877 21.7662 30.3859 22.2566C29.854 22.8948 29.6827 23.5152 29.6827 23.5152C29.6827 23.5152 30.1259 23.0957 30.3209 23.208C30.5218 23.3202 30.6931 25.1284 30.3859 25.5657C30.0786 26.0089 29.5054 26.2689 29.3281 26.5348C29.2336 26.6825 29.5172 26.5702 29.8068 26.4639C30.049 26.3752 30.2913 26.2866 30.3386 26.3339C30.4509 26.4462 28.9027 27.0843 28.4831 27.3266C28.0636 27.5689 29.0327 27.5925 29.1036 27.7225C29.1686 27.8525 27.7386 27.9412 26.545 28.3607C25.3513 28.7802 19.5545 33.7675 18.4731 34.713C17.3918 35.6643 9.47359 40.1198 8.5695 41.0652C7.66541 42.0166 -1.81868 55.2471 0.828592 60.9257C3.47586 66.6043 2.9145 70.7348 5.65041 71.6152C8.38632 72.4957 14.2954 75.7162 22.3731 68.1289C22.3731 68.1289 17.959 75.7634 19.064 77.2171C20.169 78.6707 36.5786 77.3471 36.8859 76.8625C37.1931 76.378 36.7736 76.1357 36.7736 76.1357C36.7736 76.1357 38.4459 76.4548 36.8268 74.818C35.9286 73.908 34.0022 72.4662 30.4095 73.3111C27.1477 74.0793 24.4886 73.6362 24.4709 72.6434C24.4059 69.6652 26.5272 67.3962 28.5068 62.2552C30.0195 58.3198 30.1081 56.748 30.0372 56.4525C29.9663 56.1571 30.7109 56.3639 31.1127 55.5248C31.1127 55.5248 35.8754 67.343 36.1177 70.5398C36.36 73.7366 35.4972 75.5448 38.369 76.3839C41.235 77.223 42.074 76.5612 42.139 76.2539C42.204 75.9466 43.8172 74.7943 39.4268 73.6302C39.4268 73.6302 35.7454 56.3993 36.1177 55.3652C36.49 54.3312 37.465 51.8375 37.465 51.8375C37.465 51.8375 37.9495 52.1921 37.8195 53.0075C37.8195 53.0075 38.6822 51.7725 38.5227 50.5789C38.369 49.3852 40.1122 46.673 40.1122 46.673C40.1122 46.673 40.3309 47.1812 40.1536 47.6657C39.9763 48.1502 41.365 45.1071 41.1227 43.3225C40.8804 41.538 41.9854 42.1289 41.4122 36.9052C40.8391 31.6757 40.969 29.8912 42.8659 27.7284C44.6445 25.7016 34.085 12.1462 30.9945 16.6134" fill="white"/>
</mask>
<g mask="url(#mask2_74_27364)">
<path opacity="0.18" d="M20.2105 31.2739C19.4128 30.1157 17.5751 30.2457 16.9664 31.522C16.1628 33.2179 14.4964 34.1929 12.9896 35.2093C11.1401 36.4561 9.50324 37.7916 8.32733 39.712C8.16779 39.9779 8.01415 40.2439 7.86052 40.5157C7.39961 39.9129 6.45415 39.6648 5.75688 39.9366C3.09779 40.9766 1.59097 44.132 0.704607 46.8975C0.0427895 47.9139 -0.477211 49.0366 -0.843574 50.047C-1.61767 52.1566 -2.35039 54.7625 -1.55857 56.9725C-1.49357 57.1616 -1.40494 57.3448 -1.30448 57.5279C-1.34585 57.9239 -1.36948 58.3198 -1.36948 58.7275C-1.62357 58.7866 -1.86585 58.8929 -2.09039 59.0525C-3.21903 59.8325 -3.0063 61.3216 -2.81721 62.4857C-2.69903 63.1948 -2.5513 63.8979 -2.36221 64.5893C-2.5513 65.0798 -2.52176 65.6648 -2.13767 66.2557C-1.92494 66.5807 -1.70039 66.8879 -1.45221 67.1834C-1.14494 67.9161 -0.760847 68.6429 -0.234938 69.1452C0.391426 69.742 1.27188 69.9784 2.05779 69.7657C3.44643 70.1852 4.82324 69.7243 6.06415 68.8498C8.63461 67.0475 10.0173 64.0161 10.5137 60.9907C11.0987 57.4334 10.561 53.7757 11.2878 50.2361C11.9673 46.9152 13.9469 43.9902 15.8201 41.2248C16.9192 39.6057 18.0773 38.022 19.2828 36.4857C20.5001 34.9375 21.4987 33.1411 20.2105 31.2739Z" fill="#B2B2B2"/>
<path d="M35.1132 70.9717C33.0214 70.6585 31.095 71.1194 29.0445 71.5153C28.4064 71.6394 27.8036 71.6985 27.1595 71.6985C27.1595 71.6808 27.1655 71.6512 27.1773 71.6217C27.3664 71.3676 27.4786 71.0662 27.4373 70.7412C27.4136 70.5699 27.4018 70.3926 27.3959 70.2212C27.4727 69.9376 27.5614 69.6599 27.6559 69.3822C27.8036 68.9508 27.7623 68.5785 27.6086 68.2772C27.7741 67.4676 27.8982 66.6462 27.9927 65.8249C28.1582 65.1512 28.3414 64.4953 28.495 63.8572C28.6664 63.1599 28.8318 62.4626 28.9855 61.7653C29.2632 61.5822 29.47 61.2985 29.5468 60.8967C30.0195 58.3262 30.3918 55.679 29.1745 53.2503C29.0918 53.0908 29.0032 52.9372 28.9086 52.7894C28.1286 50.5499 26.5273 48.6885 24.1105 47.9676C23.685 47.8376 23.3127 47.8908 23.0114 48.0503C22.3082 48.1212 21.6523 48.4167 21.1382 48.8953C20.3877 49.3503 19.8795 50.1658 20.045 51.0817C20.0509 51.1172 20.0627 51.1467 20.0686 51.1822C19.8736 53.2326 21.0673 55.224 22.0364 56.9435C23.0941 58.8226 23.7382 60.6958 24.0632 62.829C24.2641 64.1703 24.5005 65.6417 24.5477 67.0776C24.3705 68.0172 24.2582 68.9626 24.2759 69.8844C24.075 70.7708 23.9805 71.7044 24.1695 72.5494C24.4709 73.9085 25.5641 74.6767 26.8995 74.8067C29.3932 75.0549 31.8041 73.6012 34.2918 73.9735C35.1191 74.0976 35.9641 73.7667 36.2064 72.8862C36.4073 72.1535 35.9582 71.1017 35.1191 70.9717H35.1132Z" fill="#B2B2B2"/>
<path d="M43.8881 73.7246C43.8881 73.7246 43.8468 73.6655 43.8231 73.6182C43.7286 73.4409 43.4686 73.1337 43.309 72.9741C42.9368 72.5959 42.4759 72.3241 41.9972 72.0996C41.6959 71.9578 41.1995 71.8514 40.9809 71.5855C40.7149 71.2605 40.6972 70.4982 40.6322 70.1141C40.1536 67.4905 39.6809 64.8609 39.2022 62.2373C38.8122 60.0923 37.8786 57.38 38.9895 55.3237C40.1122 53.2437 41.8613 51.5714 41.7609 49.0246C41.6781 47.0273 38.5699 47.0214 38.6527 49.0246C38.7059 50.2537 37.9731 51.2464 37.2995 52.2155C36.5431 53.3087 35.8163 54.4432 35.5504 55.7669C34.9772 58.5678 35.9522 61.6523 36.4486 64.4059C36.7145 65.8596 36.9745 67.3132 37.2404 68.7669C37.4827 70.1141 37.5595 71.6741 38.174 72.915C38.4813 73.5355 38.9718 74.0319 39.5686 74.3864C39.9822 74.6287 40.4668 74.7469 40.8686 75.0069C41.2645 75.2669 41.4536 75.6805 41.7904 76.0173C42.2868 76.5137 42.8718 76.7382 43.5631 76.7855C44.4022 76.8505 45.1172 76.0291 45.1172 75.2314C45.1172 74.4337 44.5854 73.9078 43.894 73.7305" fill="#B2B2B2"/>
<path opacity="0.61" d="M29.3992 53.1852C29.3815 53.138 29.3342 53.1202 29.2988 53.1262C29.2456 53.0198 29.1865 52.9134 29.1274 52.813C28.9915 52.5707 28.8497 52.3225 28.7079 52.0802C28.4242 51.5957 28.1288 51.1112 27.8097 50.6502C27.1774 49.7462 26.427 48.9248 25.4874 48.328C24.9438 47.9793 24.3529 47.7134 23.7383 47.5243C23.632 47.4889 23.5847 47.6602 23.6911 47.6898C24.7606 48.0148 25.7356 48.5998 26.5333 49.3857C27.3015 50.1421 27.8983 51.0521 28.442 51.9739C28.5956 52.2398 28.7492 52.5057 28.897 52.7716C29.0565 53.0552 29.2279 53.3389 29.3283 53.6521C29.3401 53.6816 29.3638 53.6993 29.3874 53.7052C29.7479 54.828 29.9783 55.998 30.0551 57.1739C30.0611 57.2862 30.2383 57.2862 30.2265 57.1739C30.132 55.8089 29.8542 54.4675 29.3874 53.1793L29.3992 53.1852Z" fill="#B2B2B2"/>
<path opacity="0.61" d="M32.3656 46.7441C32.2533 46.0232 32.0819 45.3141 31.8219 44.6345C31.7806 44.5341 31.6151 44.5755 31.6565 44.6818C32.1115 45.8695 32.2946 47.1341 32.3596 48.3927C32.3892 49.025 32.3951 49.6573 32.3833 50.2895C32.3715 50.8982 32.336 51.5127 32.2415 52.1154C32.1469 52.7359 31.9874 53.3504 31.7392 53.9236C31.6978 53.9236 31.6565 53.9354 31.6506 53.9827C31.621 54.1777 31.5678 54.3668 31.4851 54.55C31.4851 54.4495 31.3492 54.4141 31.3196 54.5145C31.1778 55.0286 31.0537 55.5427 30.9474 56.0686C30.9237 56.175 31.0892 56.2223 31.1128 56.1159C31.2015 55.6786 31.3078 55.2473 31.4201 54.8218C31.4615 54.8573 31.5265 54.8573 31.556 54.8041C31.6565 54.6209 31.7274 54.4318 31.7806 54.2309L31.8101 54.2014C32.3478 53.0668 32.5074 51.8082 32.5487 50.5673C32.5901 49.2968 32.5665 48.0086 32.3715 46.75L32.3656 46.7441Z" fill="#B2B2B2"/>
<path opacity="0.54" d="M30.4804 29.3298C29.9132 29.5543 29.3459 29.7789 28.7786 30.0093C28.82 29.9561 28.8613 29.903 28.9027 29.8557C28.9795 29.7611 29.0977 29.6489 29.1036 29.5248C29.1095 29.4125 29.0209 29.3357 28.9086 29.3475C28.7668 29.3593 28.6132 29.4657 28.4832 29.5248C28.0223 29.7316 27.5673 29.9384 27.1063 30.1511C27.9927 29.4125 29.0268 28.8689 30.1377 28.5557C30.2441 28.5261 30.1968 28.3607 30.0904 28.3902C28.7727 28.7566 27.5554 29.4539 26.5627 30.3993C26.4859 30.4702 26.5804 30.5707 26.6691 30.5352C27.1713 30.3048 27.6795 30.0802 28.1818 29.8498C28.3059 29.7966 28.43 29.7375 28.5482 29.6843C28.5836 29.6666 28.8968 29.5011 28.9204 29.5189C28.9559 29.5484 28.495 30.0921 28.4477 30.1511C28.4004 30.2102 28.4418 30.3343 28.5304 30.293C29.0918 30.0684 29.6532 29.8498 30.2145 29.6252C30.0491 29.8261 29.8777 30.0211 29.7123 30.2221C29.6532 30.2871 29.7122 30.3816 29.795 30.3639C29.9722 30.3343 30.1377 30.2634 30.2795 30.1571C30.3682 30.0921 30.2795 29.9443 30.1909 30.0093C30.1377 30.0448 30.0845 30.0743 30.0313 30.1039C30.2086 29.8971 30.3859 29.6843 30.5632 29.4775C30.6104 29.4184 30.5632 29.3002 30.4804 29.3357V29.3298Z" fill="#B2B2B2"/>
<path opacity="0.54" d="M33.0629 30.89C32.9151 31.345 32.7674 31.8 32.6197 32.255C32.5842 32.3614 32.7497 32.4087 32.7851 32.3023C32.9329 31.8473 33.0806 31.3923 33.2283 30.9373C33.2638 30.8309 33.0983 30.7837 33.0629 30.89Z" fill="#B2B2B2"/>
<path opacity="0.54" d="M38.2095 33.5137C38.1858 33.4251 38.0322 33.4369 38.0381 33.5374C38.0677 34.0455 38.0913 34.5892 37.8786 35.0619C37.8136 34.9083 37.7427 34.7487 37.6777 34.5951C37.6127 34.4474 37.5358 34.2819 37.3468 34.2937C37.1872 34.3055 37.069 34.4414 37.0277 34.5833C36.9863 34.7251 37.0218 34.9378 36.9331 35.0737C36.7086 34.5951 36.7086 34.0455 36.5845 33.5374C36.5963 32.7455 36.5372 31.9419 36.2004 31.2151C36.1531 31.1146 36.0054 31.2033 36.0527 31.3037C36.3068 31.8592 36.3954 32.4619 36.4131 33.0705C36.3658 33.0115 36.2713 33.0587 36.2654 33.1296C36.224 33.5019 36.2654 33.8742 36.4013 34.2228C36.4249 34.2937 36.5136 34.2996 36.5549 34.2524C36.6081 34.6069 36.6672 34.9555 36.8445 35.2746C36.8681 35.316 36.9272 35.3337 36.9627 35.3042C37.0808 35.2215 37.134 35.1033 37.1577 34.9615C37.1813 34.8137 37.1518 34.601 37.2877 34.5005C37.4531 34.3824 37.524 34.6719 37.5713 34.7783C37.6481 34.9555 37.7249 35.1328 37.8018 35.3101C37.8313 35.3751 37.9199 35.3633 37.9495 35.3101C38.1386 35.0028 38.2036 34.6542 38.2272 34.2996C38.2627 34.471 38.2981 34.6483 38.3336 34.8255C38.3513 34.9378 38.5168 34.8905 38.499 34.7783C38.4281 34.3528 38.3336 33.9333 38.2154 33.5196L38.2095 33.5137Z" fill="#B2B2B2"/>
<path opacity="0.54" d="M39.4917 32.6976C39.4562 32.5913 39.2908 32.6386 39.3262 32.7449C39.5449 33.454 39.6926 34.1867 39.7753 34.9254C39.7871 35.0376 39.9585 35.0376 39.9467 34.9254C39.8699 34.169 39.7162 33.4245 39.4917 32.6976Z" fill="#B2B2B2"/>
<path opacity="0.54" d="M39.9824 35.2383C39.8701 35.2383 39.8701 35.4096 39.9824 35.4096C40.0947 35.4096 40.0947 35.2383 39.9824 35.2383Z" fill="#B2B2B2"/>
<path opacity="0.54" d="M34.8946 39.2157C34.8828 39.1507 34.7114 39.1507 34.7232 39.2157C34.9005 40.0844 35.0069 40.9589 35.0482 41.8335C35.0482 41.8985 35.2255 41.8985 35.2196 41.8335C35.1782 40.9589 35.0719 40.0844 34.8946 39.2157Z" fill="#B2B2B2"/>
<path opacity="0.54" d="M35.5505 44.8827C35.3909 44.4336 35.255 43.9786 35.1546 43.5177C35.1309 43.4113 34.9655 43.4527 34.9891 43.565C35.0896 44.0318 35.2255 44.4868 35.385 44.93C35.4205 45.0363 35.5918 44.9891 35.5505 44.8827Z" fill="#B2B2B2"/>
<path opacity="0.54" d="M36.7738 44.2621C36.6201 44.8294 36.567 45.4203 36.6201 46.0053C36.632 46.1176 36.8033 46.1176 36.7915 46.0053C36.7383 45.4321 36.7915 44.8589 36.9392 44.3094C36.9688 44.203 36.8033 44.1557 36.7738 44.2621Z" fill="#B2B2B2"/>
<path opacity="0.54" d="M37.2052 46.0228C37.1343 46.5074 37.0634 46.9919 36.9925 47.4824C36.9748 47.5888 37.1461 47.636 37.1579 47.5297L37.3707 46.0701C37.3884 45.9638 37.217 45.9165 37.2052 46.0228Z" fill="#B2B2B2"/>
<path opacity="0.54" d="M33.825 34.0925C34.0377 33.667 34.2799 33.2593 34.5518 32.8693C34.6168 32.7747 34.469 32.6861 34.404 32.7807C34.1381 33.1707 33.8959 33.5843 33.6772 34.0038C33.63 34.1043 33.7718 34.1929 33.825 34.0925Z" fill="#B2B2B2"/>
<path opacity="0.54" d="M35.0777 34.5121C34.9241 35.0794 34.8709 35.6703 34.9241 36.2553C34.9359 36.3676 35.1073 36.3676 35.0955 36.2553C35.0423 35.6821 35.0955 35.1089 35.2432 34.5594C35.2727 34.453 35.1073 34.4057 35.0777 34.5121Z" fill="#B2B2B2"/>
<path opacity="0.54" d="M35.8343 35.6466C35.9288 36.1312 36.0174 36.6098 36.112 37.0944C36.1356 37.2007 36.307 37.1948 36.2834 37.0825L36.0056 35.6348C35.982 35.5284 35.8106 35.5344 35.8343 35.6466Z" fill="#B2B2B2"/>
<path opacity="0.54" d="M38.0736 40.6225C38.0736 40.5811 38.0382 40.5279 37.985 40.5338C37.8609 40.5456 37.7959 40.6284 37.7605 40.7466C37.7132 40.9061 37.7014 41.0834 37.6718 41.2488C37.66 41.3316 37.6423 41.4143 37.6305 41.497C37.5655 40.1911 37.3527 38.8911 36.8032 37.7034C36.7559 37.6029 36.6082 37.6916 36.6555 37.792C37.3232 39.2338 37.4768 40.847 37.4886 42.4188C37.4886 42.5134 37.6423 42.5429 37.66 42.4425C37.7073 42.1293 37.7604 41.822 37.8077 41.5088C37.8314 41.3552 37.855 41.1956 37.8845 41.042C37.8845 41.0125 37.8964 40.9179 37.9141 40.8352C37.9554 41.822 38.0027 42.8088 38.0441 43.7956C38.0441 43.9079 38.2214 43.9079 38.2155 43.7956C38.1682 42.7379 38.1209 41.6802 38.0795 40.6166L38.0736 40.6225Z" fill="#B2B2B2"/>
<path opacity="0.54" d="M39.1373 43.163C39.1255 43.1216 39.0841 43.098 39.0428 43.1039C39.0132 42.9266 39.0014 42.7434 39.0132 42.5662C39.0132 42.5189 38.9719 42.4775 38.9246 42.4775C38.8773 42.4775 38.8419 42.5189 38.836 42.5662C38.8241 42.8262 38.8478 43.0862 38.9069 43.3403C38.9187 43.3994 38.9837 43.4112 39.031 43.3934C39.1137 43.358 39.1551 43.2516 39.1255 43.1689L39.1373 43.163Z" fill="#B2B2B2"/>
<path opacity="0.54" d="M39.4978 42.4718C39.4742 43.3937 39.3915 44.3155 39.2438 45.2314C39.226 45.3378 39.3915 45.385 39.4092 45.2787C39.5569 44.3509 39.6456 43.4173 39.6692 42.4778C39.6692 42.3655 39.4978 42.3655 39.4978 42.4778V42.4718Z" fill="#B2B2B2"/>
<path opacity="0.54" d="M39.2437 37.969C39.1315 37.5377 38.9956 36.7872 38.446 36.7281C38.3337 36.7163 38.3337 36.8877 38.446 36.8995C38.6706 36.9231 38.8006 37.1536 38.8774 37.3427C38.9838 37.6086 39.0547 37.8981 39.1256 38.1759C39.2733 38.7786 39.3619 39.3931 39.3915 40.0077C39.3915 40.1199 39.5687 40.1199 39.5628 40.0077C39.5274 39.3163 39.421 38.6368 39.2497 37.969H39.2437Z" fill="#B2B2B2"/>
<path opacity="0.54" d="M40.4255 38.2353C40.4137 38.129 40.2364 38.1231 40.2542 38.2353C40.3369 38.8617 40.4255 39.494 40.526 40.1203C40.5437 40.2326 40.7092 40.1853 40.6914 40.0731C40.591 39.4644 40.5024 38.8499 40.4255 38.2353Z" fill="#B2B2B2"/>
<path opacity="0.54" d="M40.8215 40.9766C40.7092 40.9766 40.7092 41.1479 40.8215 41.1479C40.9338 41.1479 40.9338 40.9766 40.8215 40.9766Z" fill="#B2B2B2"/>
<path opacity="0.54" d="M38.4992 47.3703C38.4401 48.629 37.666 49.6985 36.9451 50.6794C36.8801 50.7681 37.0278 50.8567 37.0928 50.7681C37.8315 49.7635 38.6115 48.6644 38.6706 47.3703C38.6706 47.2581 38.5051 47.2581 38.4992 47.3703Z" fill="#B2B2B2"/>
<path opacity="0.54" d="M24.8492 30.3519C23.8033 30.8306 22.8815 31.5692 22.1783 32.4792C21.9774 32.7392 21.7942 33.011 21.6347 33.2947C21.5815 33.3892 21.7292 33.4778 21.7824 33.3833C22.5033 32.1247 23.6142 31.1083 24.9378 30.5056C25.0383 30.4583 24.9497 30.3106 24.8492 30.3578V30.3519Z" fill="#B2B2B2"/>
<path opacity="0.54" d="M27.0415 32.2194C26.1552 32.6862 25.2688 33.159 24.3824 33.6258C24.5361 33.419 24.7311 33.2417 24.9142 33.0644C25.2156 32.7749 25.517 32.4794 25.8242 32.1899C25.8952 32.1249 25.8006 32.0008 25.7179 32.054C25.2038 32.3849 24.6897 32.7099 24.1815 33.0408C23.9274 33.2062 23.6733 33.3658 23.4192 33.5312L23.0411 33.7735C22.9702 33.8149 22.8638 33.9094 22.7633 33.939C23.4665 33.0408 24.3647 32.3021 25.3811 31.7821C25.4815 31.729 25.3929 31.5812 25.2924 31.6344C24.2052 32.1958 23.2538 32.9994 22.5152 33.9744C22.4915 34.0099 22.5092 34.0749 22.5447 34.0926C22.8047 34.2049 23.0647 33.9626 23.2715 33.8326C23.5552 33.6494 23.8388 33.4662 24.1224 33.289C24.4415 33.0881 24.7547 32.8812 25.0738 32.6803C24.9674 32.7808 24.867 32.8812 24.7606 32.9817C24.4947 33.2358 24.2229 33.4899 24.0574 33.8208C24.0161 33.8976 24.0988 33.9803 24.1756 33.939L27.1242 32.379C27.2247 32.3258 27.1361 32.1781 27.0356 32.2312L27.0415 32.2194Z" fill="#B2B2B2"/>
<path opacity="0.54" d="M34.1264 36.905C33.7068 37.3541 33.2932 37.7973 32.8736 38.2464C32.9327 38.0691 33.0155 37.9096 33.0923 37.75C33.2223 37.49 33.3464 37.23 33.4764 36.97C33.5059 36.9109 33.4409 36.8164 33.4055 36.8696C33.1691 37.1769 32.9327 37.4782 32.7023 37.7855C32.5841 37.9391 32.4718 38.0869 32.3536 38.2405L32.1764 38.465C32.1468 38.5064 32.0995 38.5891 32.0464 38.6246C32.3182 37.8446 32.7141 37.1768 33.1927 36.6746C33.24 36.6273 33.175 36.5091 33.1277 36.5623C32.6136 37.1 32.2 37.8209 31.9164 38.6718C31.9045 38.7014 31.9223 38.7546 31.9459 38.7664C32.0995 38.8373 32.2059 38.6187 32.3005 38.5005C32.4305 38.3291 32.5605 38.1637 32.6905 37.9923C32.8382 37.8032 32.98 37.6141 33.1277 37.425C33.0864 37.5137 33.0391 37.6023 32.9977 37.6909C32.8855 37.9155 32.7732 38.1459 32.72 38.4237C32.7082 38.4887 32.7614 38.5478 32.7968 38.5123L34.1855 37.0232C34.2327 36.9759 34.1677 36.8578 34.1205 36.9109L34.1264 36.905Z" fill="#B2B2B2"/>
<path opacity="0.54" d="M29.0978 31.888C28.3474 32.4848 27.5497 33.1466 27.2897 34.1098C27.2601 34.2162 27.4256 34.2635 27.4551 34.1571C27.7092 33.2235 28.4951 32.5853 29.2219 32.0121C29.3106 31.9412 29.1865 31.823 29.0978 31.888Z" fill="#B2B2B2"/>
<path opacity="0.54" d="M30.7051 32.846C30.3151 33.2065 30.0019 33.6438 29.7892 34.1283C29.7419 34.2288 29.8956 34.3174 29.9369 34.2169C30.1438 33.7442 30.4451 33.3188 30.8292 32.9701C30.9119 32.8933 30.7878 32.7751 30.7051 32.846Z" fill="#B2B2B2"/>
<path opacity="0.54" d="M31.5263 33.7797C31.2191 34.2642 30.9118 34.7547 30.6045 35.2392C30.5454 35.3338 30.6931 35.4224 30.7522 35.3279C31.0595 34.8433 31.3668 34.3529 31.6741 33.8683C31.7331 33.7738 31.5854 33.6851 31.5263 33.7797Z" fill="#B2B2B2"/>
<path opacity="0.54" d="M28.3533 48.6765C28.0047 48.3988 27.6915 48.0797 27.4315 47.7252C27.3665 47.6365 27.2306 47.7134 27.2837 47.8138C27.331 47.9024 27.3783 47.9911 27.4256 48.0797C26.9056 47.6365 26.3737 47.1874 25.7356 46.9629C25.6469 46.9334 25.5997 47.0456 25.6528 47.1047C25.7297 47.1934 25.8124 47.2879 25.8892 47.3765C25.5583 47.152 25.2037 46.9629 24.8315 46.8152C24.7251 46.7738 24.6837 46.9393 24.7842 46.9806C25.5524 47.282 26.2319 47.7665 26.7756 48.387C26.8465 48.4697 26.9706 48.3456 26.8997 48.2629L26.0369 47.2761C26.6397 47.5834 27.1537 48.0797 27.6678 48.5052C27.7387 48.5643 27.8333 48.5052 27.8097 48.4165C27.9456 48.5524 28.0874 48.6824 28.241 48.8006C28.3297 48.8715 28.4478 48.7474 28.3651 48.6765H28.3533Z" fill="#B2B2B2"/>
<path opacity="0.54" d="M29.0858 48.2743C28.7726 47.7189 28.4122 47.1871 28.0162 46.6848C27.9453 46.5962 27.8272 46.7202 27.8922 46.8089C28.2822 47.2993 28.6308 47.8193 28.9381 48.363C28.9912 48.4575 29.1449 48.3748 29.0858 48.2743Z" fill="#B2B2B2"/>
<path opacity="0.54" d="M29.6945 48.2335C29.4109 47.4948 29.0977 46.768 28.7668 46.0471C28.7195 45.9467 28.5718 46.0353 28.6191 46.1358C28.9441 46.8389 29.2513 47.5539 29.5291 48.2808C29.5704 48.3812 29.7359 48.3398 29.6945 48.2335Z" fill="#B2B2B2"/>
<path opacity="0.54" d="M30.4569 47.1693L30.1023 45.4025C30.0787 45.2961 29.9132 45.3375 29.9369 45.4497C30.0551 46.0406 30.1732 46.6256 30.2914 47.2166C30.3151 47.3229 30.4805 47.2816 30.4569 47.1693Z" fill="#B2B2B2"/>
<path opacity="0.54" d="M31.3374 44.0617C31.3256 43.9495 31.1542 43.9495 31.166 44.0617C31.2428 44.9127 31.231 45.7695 31.1187 46.6204C31.1069 46.7327 31.2783 46.7267 31.2901 46.6204C31.3965 45.7695 31.4142 44.9127 31.3374 44.0617Z" fill="#B2B2B2"/>
<path opacity="0.54" d="M29.4051 51.2054C29.1864 50.8213 28.9382 50.4549 28.6664 50.1063C28.6191 50.0472 28.5364 50.1299 28.5837 50.189C28.8555 50.5258 29.0919 50.8863 29.3046 51.2644C29.3401 51.3294 29.4464 51.2704 29.4051 51.2054Z" fill="#B2B2B2"/>
<path opacity="0.54" d="M31.6151 50.7266C31.6919 50.183 31.751 49.6393 31.7924 49.0957C31.7924 49.0189 31.6801 49.0189 31.6742 49.0957C31.6328 49.6334 31.5737 50.1652 31.4969 50.6971C31.4851 50.7739 31.6033 50.8034 31.6151 50.7266Z" fill="#B2B2B2"/>
<path opacity="0.54" d="M30.3506 50.4431L30.1024 49.2258C30.0847 49.149 29.9724 49.1845 29.9902 49.2554C30.0729 49.6631 30.1556 50.0649 30.2384 50.4726C30.2561 50.5495 30.3684 50.514 30.3506 50.4431Z" fill="#B2B2B2"/>
<path opacity="0.54" d="M30.9591 48.2978C30.9532 48.221 30.835 48.221 30.8409 48.2978C30.8941 48.8888 30.8822 49.4797 30.8113 50.0647C30.7995 50.1415 30.9236 50.1415 30.9295 50.0647C31.0063 49.4797 31.0122 48.8828 30.9591 48.2978Z" fill="#B2B2B2"/>
<path opacity="0.54" d="M31.0656 37.1888C30.7169 37.7265 30.4156 38.2938 30.1615 38.8788C30.1142 38.9793 30.2797 39.0324 30.3269 38.932C30.581 38.3588 30.8765 37.8093 31.2133 37.2834C31.2724 37.1888 31.1247 37.1002 31.0656 37.1947V37.1888Z" fill="#B2B2B2"/>
<path opacity="0.54" d="M30.7465 36.6694C30.2265 37.2662 29.7243 37.8808 29.2456 38.5071C29.1806 38.5958 29.3224 38.6844 29.3933 38.5958C29.8661 37.9753 30.3565 37.3726 30.8647 36.7876C30.9356 36.7049 30.8174 36.5749 30.7465 36.6635V36.6694Z" fill="#B2B2B2"/>
<path opacity="0.54" d="M29.4523 36.4909L28.0578 37.6254C27.9691 37.6964 28.0873 37.8204 28.1759 37.7495C28.6428 37.3714 29.1037 36.9932 29.5705 36.615C29.6591 36.5441 29.5409 36.42 29.4523 36.4909Z" fill="#B2B2B2"/>
<path opacity="0.54" d="M26.291 37.1597C26.1965 37.2188 26.2792 37.3724 26.3737 37.3133C27.0887 36.8465 27.8569 36.4624 28.6606 36.161C28.7669 36.1197 28.6842 35.9719 28.5778 36.0074C27.7742 36.3088 27.0119 36.6929 26.291 37.1597Z" fill="#B2B2B2"/>
<path opacity="0.54" d="M26.5747 34.7491C26.0487 35.1982 25.4756 35.6059 24.861 35.9782C24.7547 36.0432 24.6306 35.8836 24.7369 35.8246C25.3397 35.4641 25.901 35.0623 26.4092 34.625C26.4978 34.5482 26.6692 34.6782 26.5747 34.755V34.7491Z" fill="#B2B2B2"/>
<path opacity="0.54" d="M31.8811 39.4989C31.4143 40.1784 30.9179 40.8462 30.3861 41.4962C30.3093 41.5848 30.132 41.4725 30.2088 41.3839C30.7288 40.7457 31.2134 40.0898 31.6743 39.4221C31.7393 39.3275 31.9461 39.4043 31.8811 39.4989Z" fill="#B2B2B2"/>
<path opacity="0.54" d="M32.7084 40.6815L32.0111 42.3656C31.9697 42.472 31.7629 42.3952 31.8043 42.2888C32.0347 41.7274 32.2711 41.1661 32.5015 40.6047C32.5429 40.4984 32.7497 40.5752 32.7084 40.6815Z" fill="#B2B2B2"/>
<path opacity="0.54" d="M33.6833 42.0164C33.6537 42.1228 33.4351 42.0932 33.4647 41.9869C33.6833 41.1596 33.7837 40.3028 33.7601 39.446C33.7601 39.3337 33.9787 39.3691 33.9787 39.4755C34.0024 40.3382 33.9019 41.1891 33.6833 42.0164Z" fill="#B2B2B2"/>
<path d="M36.3955 74.3805C36.3128 74.3096 36.1887 74.4337 36.2714 74.5046C37.1341 75.2137 37.7073 76.2301 37.861 77.3351C37.8787 77.4474 38.0442 77.4001 38.0264 77.2878C37.8669 76.1592 37.276 75.1015 36.3955 74.3805Z" fill="#B2B2B2"/>
<path d="M41.5838 75.8104C41.3356 75.314 40.9279 74.8354 40.3606 74.7113C40.2543 74.6877 40.207 74.8531 40.3134 74.8767C40.8511 74.9949 41.2175 75.4558 41.4479 75.9286C41.7079 76.4663 41.8025 77.0749 41.7256 77.6658C41.7138 77.7781 41.8852 77.7722 41.897 77.6658C41.9738 77.0336 41.8675 76.3776 41.5779 75.8045" fill="#B2B2B2"/>
<path d="M36.9983 76.5847C36.4133 76.7028 35.8165 76.7678 35.2256 76.8151C35.2374 76.9451 35.2433 77.081 35.2374 77.211C36.2124 77.0869 36.8329 76.9688 36.8861 76.8742C36.957 76.7619 36.9865 76.6674 36.9983 76.5847ZM22.3556 68.1583C22.3556 68.1583 22.3438 68.1701 22.3379 68.176C22.3379 68.176 22.3497 68.1642 22.3556 68.1583ZM22.397 68.1465C22.397 68.1465 22.3733 68.1465 22.3674 68.1465C22.3556 68.1642 22.3379 68.1938 22.3142 68.241C22.2965 68.3178 22.2788 68.3888 22.2611 68.4656L22.2315 68.4538C22.2315 68.4538 22.2138 68.4538 22.2079 68.4538C22.2079 68.4538 22.202 68.4538 22.1961 68.4538C22.1488 68.5424 22.0897 68.6428 22.0247 68.761C22.0129 68.7965 21.9951 68.8319 21.9833 68.8674C21.9833 68.8674 21.9774 68.8674 21.9715 68.8615C21.6879 69.3756 21.2861 70.126 20.8665 70.971C20.8547 71.0124 20.837 71.0538 20.8251 71.101C20.8251 71.101 20.8133 71.0892 20.8074 71.0892C19.8797 72.9683 18.887 75.2728 18.887 76.5374C18.887 76.8328 18.9401 77.0751 19.0642 77.2347C19.4306 77.7251 21.5224 77.8965 24.1461 77.8965C27.8097 77.8965 32.5192 77.5538 35.0661 77.2406C35.0661 77.1047 35.0661 76.9688 35.0542 76.8388C34.7174 76.8683 34.3865 76.8919 34.0556 76.9215C32.8501 77.0338 31.6388 77.1401 30.4333 77.2347C28.0697 77.4238 25.6883 77.6188 23.3188 77.6188H23.3129C22.592 77.6188 21.747 77.5892 21.0261 77.3174C21.0142 77.2938 20.9965 77.2642 20.9788 77.2406C20.7365 76.4665 20.6774 75.6097 20.7188 74.8119C20.7365 74.4574 20.7661 74.1088 20.8074 73.7601C20.8251 73.6656 20.8429 73.5769 20.8665 73.4824C20.8783 73.4292 20.8901 73.376 20.902 73.3228C21.1029 72.531 21.4456 71.7865 21.7115 71.0124C22.0247 70.1083 22.2847 69.1865 22.4974 68.2528C22.5092 68.1878 22.4561 68.1465 22.4088 68.1465" fill="#B2B2B2"/>
<path d="M35.2256 76.8155C35.1665 76.8155 35.1074 76.8273 35.0542 76.8273C35.066 76.9632 35.0719 77.0991 35.066 77.2291C35.1251 77.2232 35.1842 77.2173 35.2374 77.2055C35.2374 77.0755 35.2374 76.9396 35.2256 76.8096" fill="#B2B2B2"/>
<path d="M41.9263 76.1473H41.9145C41.8672 76.1946 41.82 76.236 41.7727 76.2773C41.8022 76.3778 41.8318 76.4783 41.8554 76.5846C42.015 76.496 42.0977 76.3896 42.1331 76.3069C42.0622 76.2596 41.9972 76.2064 41.9322 76.1473M37.6836 75.9346C37.6836 75.9346 37.6422 75.9464 37.6245 75.9583C37.6481 76.0114 37.6777 76.0705 37.7013 76.1237C37.8077 76.1769 37.9141 76.236 38.0263 76.2892C38.1327 76.3305 38.245 76.366 38.3691 76.4014C39.3972 76.7028 40.1654 76.8092 40.7327 76.8092C41.1641 76.8092 41.4772 76.7442 41.6959 76.6614C41.6781 76.5669 41.6545 76.4783 41.6309 76.3896C41.495 76.4428 41.365 76.4901 41.2291 76.5433C41.0813 76.5551 40.9336 76.5669 40.7918 76.5669C40.7209 76.5669 40.65 76.5669 40.585 76.5669C40.4077 76.5669 40.2363 76.5669 40.0591 76.5551C39.4386 76.4546 38.8241 76.3246 38.2154 76.1828C38.0559 76.106 37.8963 76.0233 37.7368 75.9405C37.725 75.9346 37.7072 75.9287 37.6954 75.9287" fill="#B2B2B2"/>
<path d="M42.0979 75.9707C42.0506 76.0239 42.0033 76.0771 41.9502 76.1302L41.9265 76.1421C41.9915 76.2012 42.0624 76.2543 42.1274 76.3016C42.1274 76.2898 42.1333 76.278 42.1392 76.2662C42.1392 76.2543 42.1392 76.2366 42.1392 76.213C42.1392 76.2071 42.1392 76.1952 42.1392 76.1834H42.1333C42.1333 76.1834 42.1333 76.1834 42.1392 76.1834C42.1392 76.1302 42.1215 76.0534 42.0979 75.9707Z" fill="#B2B2B2"/>
<path d="M37.6246 75.958C37.5832 75.9935 37.5773 76.0644 37.6364 76.0939C37.66 76.1057 37.6777 76.1175 37.7014 76.1294C37.6777 76.0703 37.6541 76.0171 37.6246 75.9639" fill="#B2B2B2"/>
<path d="M41.7727 76.2773C41.7255 76.3128 41.6782 76.3542 41.625 76.3896C41.6545 76.4783 41.6723 76.5728 41.69 76.6614C41.7491 76.6378 41.8023 76.6142 41.8495 76.5846C41.8259 76.4783 41.8023 76.3778 41.7668 76.2773" fill="#B2B2B2"/>
</g>
<path d="M46.7126 25.3348C46.7126 25.3348 46.6653 25.388 46.6417 25.4176C46.6417 25.4176 46.7303 27.7576 44.6562 28.5907C42.8067 29.3353 39.5626 28.1771 37.5358 27.7694C37.4176 27.7457 37.5003 27.6098 37.3881 27.5921C37.2581 27.5685 36.9449 27.6748 36.8267 27.663C36.4662 27.6276 36.0644 27.5094 35.6449 27.3085C35.5621 27.2671 35.769 27.143 35.6862 27.0957C35.5621 27.0307 35.1367 27.0366 35.0126 26.9539C34.2385 26.4635 33.4408 25.7367 32.779 24.8207C32.6903 24.7026 33.0212 24.5903 32.9385 24.4603C32.8203 24.2712 32.2885 24.0703 32.1821 23.8753C32.0876 23.698 32.4481 23.7512 32.3653 23.5621C32.2649 23.3376 31.7153 22.8707 31.6326 22.6344C31.349 21.8248 31.1894 20.9385 31.2071 20.0048C31.2721 15.703 32.0049 15.5494 32.1999 15.1357C32.1999 15.1357 38.9953 15.5967 40.2481 16.4594C40.7976 16.8317 42.1626 18.3798 43.7581 19.8748C44.9576 21.0035 46.299 22.0671 46.884 23.1248C46.8958 23.1426 46.9076 23.1603 46.9135 23.178C47.0849 23.503 47.1794 23.8339 47.1794 24.1589C47.1794 24.543 47.0376 24.933 46.7185 25.323L46.7126 25.3348Z" fill="#B2B2B2"/>
<mask id="mask3_74_27364" style="mask-type:luminance" maskUnits="userSpaceOnUse" x="31" y="15" width="17" height="14">
<path d="M46.7126 25.3348C46.7126 25.3348 46.6653 25.388 46.6417 25.4175C46.6417 25.4175 46.7303 27.7575 44.6562 28.5966C42.8067 29.3411 39.5626 28.183 37.5358 27.7752C37.4176 27.7516 37.5003 27.6157 37.3881 27.598C37.3231 27.5861 37.2049 27.6098 37.0926 27.6334C36.9862 27.6511 36.8858 27.6748 36.8267 27.6689C36.4662 27.6334 36.0644 27.5152 35.6449 27.3143C35.5621 27.273 35.769 27.1489 35.6862 27.1016C35.5621 27.0366 35.1367 27.0425 35.0126 26.9598C34.2385 26.4693 33.4408 25.7425 32.779 24.8266C32.6903 24.7084 33.0212 24.5961 32.9385 24.4661C32.8203 24.2771 32.2885 24.0761 32.1821 23.8811C32.0876 23.7039 32.4481 23.7571 32.3653 23.568C32.2649 23.3434 31.7153 22.8766 31.6326 22.6402C31.349 21.8307 31.1894 20.9443 31.2071 20.0107C31.2721 15.7089 32.0049 15.5552 32.1999 15.1416C32.1999 15.1416 38.9953 15.6025 40.2481 16.4652C40.7976 16.8375 42.1626 18.3857 43.7581 19.8807C44.9576 21.0093 46.299 22.073 46.884 23.1307C46.8958 23.1484 46.9076 23.1661 46.9135 23.1839C47.0849 23.5089 47.1794 23.8398 47.1794 24.1648C47.1794 24.5489 47.0376 24.9389 46.7185 25.3289" fill="white"/>
</mask>
<g mask="url(#mask3_74_27364)">
<path d="M46.2575 24.4195C46.0566 24.2363 45.8498 24.059 45.643 23.8818C45.253 23.0013 44.7034 22.1918 44.2071 21.3704C43.5689 20.3127 42.9543 19.2431 42.2925 18.2031C41.9439 17.6536 41.5598 17.1218 41.1048 16.6668C41.0398 16.1349 41.0161 15.5972 41.0339 15.0595C41.0693 14.0904 39.8757 13.8895 39.3616 14.4568C39.208 14.3799 39.0366 14.3386 38.8711 14.3386C38.3866 14.1672 37.7425 14.3504 37.5771 14.9472V14.9649C37.3761 14.7522 37.1221 14.5631 36.8148 14.4036C36.023 13.984 35.3021 14.6695 35.4202 15.479C35.5089 16.0995 35.7807 16.6609 36.0939 17.1986C36.1648 17.5709 36.218 17.9372 36.2534 18.3154C36.2593 18.4809 36.2593 18.6463 36.2534 18.8118C36.2416 18.9949 36.2298 19.1781 36.2121 19.3554C36.0407 21.1399 35.9875 23.0427 37.2225 24.3486C37.2521 24.384 37.2875 24.4136 37.323 24.449C37.3821 24.5377 37.4411 24.6263 37.5061 24.7149C38.2211 25.6781 39.1843 26.4286 40.3071 26.8599C40.9216 27.0963 41.5302 27.1436 42.1743 27.2558C42.8834 27.3858 43.3443 27.7404 43.8643 28.219C44.7625 29.0463 46.1098 27.7049 45.2057 26.8777C45.0461 26.7299 44.8866 26.594 44.7271 26.464C44.7743 26.3577 44.8098 26.2513 44.8157 26.139C44.9043 26.074 44.9811 25.9972 45.0461 25.9086C45.1407 25.944 45.2293 25.9795 45.3239 26.009C46.2102 26.2927 46.9548 25.0518 46.2457 24.4195H46.2575Z" fill="#B2B2B2"/>
<path d="M47.2385 23.9172C47.3744 23.6099 47.5635 23.3322 47.8294 23.0781C48.2016 22.7177 48.1721 22.0027 47.788 21.6658C47.9594 20.9154 46.9962 20.1413 46.2635 20.7027C46.1689 20.6613 46.0626 20.6258 45.9503 20.614C45.6666 20.5786 45.4067 20.4899 45.1703 20.3658H45.1644C45.0521 20.2536 44.928 20.1827 44.8098 20.1413C44.7803 20.1177 44.7507 20.0999 44.7212 20.0763C44.6266 19.8695 44.5676 19.6331 44.5616 19.3436C44.5439 18.6286 43.8939 18.3331 43.3621 18.4513L43.3444 18.4277C43.3089 18.1263 43.2912 17.8131 43.2203 17.494C43.1376 17.1218 42.9012 16.9208 42.6235 16.844C42.4344 16.3595 42.2216 15.8868 41.8553 15.4672C41.0516 14.5454 39.7103 15.8927 40.5139 16.8086C40.9394 17.299 41.0162 18.0495 41.2821 18.6286C41.3589 18.7881 41.4416 18.9477 41.5303 19.1013C41.5657 19.3613 41.6189 19.6213 41.7312 19.8695C41.9498 20.3599 42.3103 20.744 42.7239 21.0808C42.8598 21.1931 43.0016 21.2995 43.1435 21.4058C43.2085 21.5004 43.2853 21.5831 43.368 21.6422C43.7166 22.0736 44.0594 22.5168 44.1007 23.0486C44.148 23.669 43.7521 24.1418 43.4153 24.6381C43.0371 24.9749 42.7062 25.359 42.4403 25.7372C41.8966 26.5231 41.6485 27.504 41.9735 28.4258C42.0857 28.7508 42.263 29.0168 42.4816 29.2236C42.5289 29.5427 42.7357 29.8381 43.1494 29.9445C44.8985 30.3877 46.6003 29.6727 47.5457 28.1481C48.3671 26.8068 48.7216 24.8213 47.2503 23.9113L47.2385 23.9172Z" fill="#B2B2B2"/>
</g>
<path d="M47.1734 24.1709C47.1675 24.5549 47.0257 24.9449 46.7125 25.3349C46.683 25.3231 46.6534 25.2995 46.618 25.264C46.5943 25.2463 46.5707 25.2227 46.5471 25.199C46.3934 25.0454 46.2043 24.7972 46.0803 24.5668C45.8734 24.1709 45.8616 23.8163 45.8498 23.7218C45.8321 23.5977 45.8734 23.4913 45.9443 23.3968C45.9443 23.3968 45.9384 23.3968 45.9443 23.3909C45.9503 23.379 45.9621 23.3613 45.9798 23.3495C45.9916 23.3318 46.0093 23.314 46.0389 23.2963C46.1689 23.2431 46.5648 23.1368 46.8839 23.1309C46.8898 23.1486 46.9016 23.1663 46.9134 23.1899C47.0848 23.5149 47.1793 23.8399 47.1793 24.1709H47.1734Z" fill="#B2B2B2"/>
<path d="M46.8129 25.1165C46.7302 24.7856 46.6238 24.4547 46.4938 24.1415C46.4643 24.0706 46.3757 24.0292 46.3107 24.0647C46.2397 24.0942 46.2043 24.171 46.2338 24.2479C46.2988 24.4015 46.352 24.5492 46.4052 24.7088C46.4288 24.7856 46.4525 24.8624 46.4761 24.9333C46.4761 24.951 46.4879 24.9747 46.4938 24.9924V25.022L46.5057 25.0397C46.5175 25.081 46.5293 25.1165 46.5352 25.1579C46.5529 25.2288 46.612 25.2938 46.6947 25.282C46.7657 25.2701 46.8366 25.1992 46.8188 25.1283L46.8129 25.1165Z" fill="#B2B2B2"/>
<path d="M47.1733 24.1709C47.0906 24.1354 46.8778 23.7454 46.6769 23.6213C46.3046 23.3909 45.9146 23.4381 45.9383 23.3909C45.9442 23.379 45.956 23.3613 45.9737 23.3495C45.9856 23.3318 46.0033 23.314 46.0328 23.2963C46.1628 23.2431 46.5587 23.1368 46.8778 23.1309C46.8837 23.1486 46.8956 23.1663 46.9074 23.1899C47.0787 23.5149 47.1733 23.8399 47.1733 24.1709Z" fill="#B2B2B2"/>
<path d="M39.1846 19.42C39.1846 19.42 39.8937 17.8482 41.1346 18.4332C42.2514 18.9591 42.0741 20.0346 42.0741 20.2473C42.0741 20.46 42.2809 20.6905 42.2809 20.6905C42.2809 20.6905 41.885 20.6255 41.6309 20.8323C41.3768 21.0391 40.2955 21.24 39.74 20.4423C39.1846 19.6446 39.1846 19.42 39.1846 19.42Z" fill="#B2B2B2"/>
<path d="M39.5982 19.686C39.6219 19.0833 40.1419 18.6223 40.7564 18.6637C41.371 18.7051 41.8555 19.231 41.8319 19.8337C41.8082 20.4364 41.2882 20.8973 40.6737 20.856C40.0592 20.8146 39.5746 20.2887 39.5982 19.686Z" fill="#B2B2B2"/>
<path d="M41.6488 19.8631C41.6311 20.2944 41.2825 20.6312 40.8334 20.6667C40.7802 20.6726 40.7329 20.6726 40.6798 20.6667C40.1657 20.6312 39.7638 20.2176 39.7816 19.739C39.7993 19.2603 40.2366 18.8999 40.7507 18.9294C40.7802 18.9294 40.8038 18.9294 40.8275 18.9412C41.3061 19.0062 41.6666 19.4081 41.6488 19.8631Z" fill="#B2B2B2"/>
<path d="M41.6487 19.8633C41.631 20.2946 41.2824 20.6315 40.8333 20.6669H40.8037C40.396 20.5724 40.1537 20.1055 40.266 19.621C40.3428 19.2901 40.5614 19.0301 40.8274 18.9355C41.306 19.0005 41.6664 19.4024 41.6487 19.8574V19.8633Z" fill="#B2B2B2"/>
<path d="M40.6383 19.7095C40.6915 19.4673 40.9042 19.3077 41.1051 19.355C41.306 19.4023 41.4301 19.6327 41.3769 19.875C41.3238 20.1173 41.111 20.2768 40.9101 20.2295C40.7092 20.1823 40.5851 19.9518 40.6383 19.7095Z" fill="#B2B2B2"/>
<path d="M40.7683 19.3312C40.851 19.2367 40.9692 19.2012 41.0283 19.2603C41.0874 19.3194 41.0638 19.4376 40.9751 19.5322C40.8924 19.6267 40.7742 19.6622 40.7151 19.6031C40.656 19.5499 40.6797 19.4258 40.7683 19.3312Z" fill="#B2B2B2"/>
<path d="M29.9958 0.564421C29.9958 0.564421 27.3426 1.79351 28.0813 7.56669C28.814 13.3044 29.9781 13.6294 30.9058 14.5099C31.4376 15.0121 30.6931 15.9044 31.3726 17.3521C32.0522 18.7999 32.0936 18.9121 32.389 18.9299C32.6845 18.9476 36.8681 18.5281 36.2122 17.1867C35.5799 15.8926 34.8472 14.8171 34.7999 12.6131C35.184 10.0071 34.7645 4.96078 34.5222 3.6726C34.1381 1.64578 30.5513 0.186239 29.9899 0.57033L29.9958 0.564421Z" fill="#B2B2B2"/>
<mask id="mask4_74_27364" style="mask-type:luminance" maskUnits="userSpaceOnUse" x="27" y="0" width="10" height="19">
<path d="M29.9958 0.57028C29.9958 0.57028 27.3426 1.79937 28.0813 7.57255C28.814 13.3103 29.9781 13.6353 30.9058 14.5157C31.4376 15.018 30.6931 15.9103 31.3726 17.358C32.0522 18.8057 32.0936 18.918 32.389 18.9357C32.6845 18.9535 36.8681 18.5339 36.2122 17.1926C35.5799 15.8985 34.8472 14.823 34.7999 12.6189C35.184 10.013 34.7645 4.96664 34.5222 3.67846C34.1381 1.65164 30.5513 0.192099 29.9899 0.576189" fill="white"/>
</mask>
<g mask="url(#mask4_74_27364)">
<path d="M33.1456 11.9321C33.2283 11.9498 33.3111 11.9557 33.3938 11.9439C33.5238 11.9321 33.6124 11.808 33.5415 11.6839C33.3288 11.2998 33.1338 10.9039 32.9565 10.5021C33.0747 10.5612 33.187 10.6439 33.2933 10.7266C33.4174 10.8212 33.5829 10.6616 33.5474 10.5316C33.2933 9.55072 33.0038 8.57572 32.6847 7.61254C32.7083 7.62436 32.7261 7.63618 32.7497 7.648C32.8324 7.68936 32.9388 7.67163 32.9861 7.58891C33.1633 7.28163 32.9211 7.03936 32.797 6.77345C32.7202 6.608 32.8442 6.53118 32.8502 6.37163C32.8502 6.283 32.8206 6.20027 32.7674 6.12936C32.7556 6.11754 32.6729 6.023 32.6315 5.96391C32.7615 5.93436 32.8679 5.83981 32.9152 5.70391C33.0038 5.46754 32.8324 5.23709 32.8324 5.01845C32.9565 5.03027 33.0747 5.06572 33.1929 5.113C33.3052 5.16027 33.3997 5.048 33.4115 4.94754C33.4233 4.79981 33.382 4.66981 33.3229 4.53391C33.2815 4.43345 33.1692 4.20891 33.3229 4.17936C33.4292 4.15572 33.5238 4.20891 33.6183 4.12027C33.7247 4.01981 33.6833 3.90163 33.642 3.78345C33.4529 3.23981 33.1456 2.74345 32.7379 2.33572C32.7379 2.31209 32.7261 2.28845 32.7261 2.25891C32.7852 2.27072 32.8383 2.28254 32.8974 2.29436C33.0156 2.318 33.1574 2.21754 33.1102 2.08163C33.0333 1.85709 32.9211 1.63845 32.797 1.43754C32.8265 1.25436 32.7497 1.11254 32.6315 1.02391C32.6729 0.663452 32.1706 0.468451 31.9047 0.698906C31.8692 0.633906 31.822 0.574815 31.7452 0.527542C31.6979 0.503906 31.6506 0.486179 31.5974 0.48027C31.5856 0.35027 31.5206 0.226179 31.3965 0.149361C31.2429 0.0607242 31.0302 0.0784515 30.8942 0.196633C30.8647 0.161179 30.8292 0.125724 30.782 0.0961787C30.7229 0.0607242 30.652 0.0429969 30.5811 0.0429969C30.4688 -0.240639 30.0256 -0.370639 29.807 -0.0338213V-0.0220031C29.6179 -0.116549 29.3697 -0.0988213 29.2279 0.119815C28.7197 0.893906 28.377 1.78027 28.2411 2.69618C27.9515 2.86163 27.8274 3.26936 27.7565 3.58254C27.6561 4.01981 27.6265 4.47481 27.6442 4.92391C27.662 5.373 27.7329 5.82209 27.8274 6.25936C27.8274 6.50754 27.8511 6.75572 27.8924 6.998C27.9397 7.67754 28.0402 8.35118 28.1879 9.013C28.2411 9.24936 28.3002 9.48572 28.3652 9.71618C28.2883 10.2539 28.4006 10.8566 28.5247 11.3471C28.6961 12.0325 28.9974 12.6944 29.417 13.2616C29.5529 13.4507 29.7242 13.6516 29.937 13.7344C30.2265 14.1185 30.5161 14.5025 30.8115 14.8866L30.8352 14.9103C30.8765 15.0462 30.9238 15.188 30.977 15.3239C31.0242 15.4421 31.0952 15.5189 31.1779 15.5662C31.2311 16.2044 31.5915 16.7953 32.147 17.1321C32.2356 17.1853 32.3656 17.1321 32.4011 17.0435C32.5961 17.1262 32.7911 17.2089 32.9861 17.2857C33.1515 17.3566 33.2756 17.1085 33.1515 16.9962L33.1161 16.9607C33.2224 17.0494 33.4174 17.0021 33.4115 16.8366C33.3938 16.2339 33.4056 15.6253 33.3406 15.0225C33.317 14.7862 33.2756 14.5616 33.2047 14.343C33.187 14.1894 33.1574 14.0357 33.1161 13.888C33.057 13.6575 32.9802 13.4271 32.8915 13.2025H32.9211C32.9211 13.2025 32.9447 13.2439 32.9624 13.2557L32.9861 13.2735L33.0038 13.2853C33.0038 13.2853 33.0452 13.2971 33.0688 13.2971C33.0924 13.2971 33.1161 13.2971 33.1338 13.2853C33.2342 13.3503 33.3347 13.4153 33.4352 13.4803C33.5356 13.5453 33.7129 13.4625 33.6952 13.3325C33.6597 13.0312 33.5888 12.7475 33.4588 12.4757C33.3702 12.2925 33.2283 12.1153 33.1574 11.9262L33.1456 11.9321Z" fill="#B2B2B2"/>
<mask id="mask5_74_27364" style="mask-type:luminance" maskUnits="userSpaceOnUse" x="28" y="7" width="6" height="11">
<path d="M33.1456 11.9318C33.2283 11.9496 33.311 11.9555 33.3937 11.9437C33.5237 11.9319 33.6124 11.8078 33.5415 11.6837C33.3287 11.2996 33.1337 10.9037 32.9565 10.5019C33.0746 10.5609 33.1869 10.6437 33.2933 10.7264C33.4174 10.8209 33.5828 10.6614 33.5474 10.5314C33.2933 9.55049 33.0037 8.57549 32.6846 7.6123C32.7083 7.62412 28.2883 9.48549 28.3533 9.71594C28.2765 10.2537 28.3887 10.8564 28.5128 11.3469C28.6842 12.0323 28.9856 12.6941 29.4051 13.2614C29.541 13.4505 29.7124 13.6514 29.9251 13.7341C30.2146 14.1182 30.5042 14.5023 30.7996 14.8864L30.8233 14.91C30.8646 15.0459 30.9119 15.1878 30.9651 15.3237C31.0124 15.4418 31.0833 15.5187 31.166 15.5659C31.2192 16.2041 31.5796 16.795 32.1351 17.1319C32.2237 17.185 32.3537 17.1318 32.3892 17.0432C32.5842 17.1259 32.7792 17.2087 32.9742 17.2855C33.1396 17.3564 33.2637 17.1082 33.1396 16.9959L33.1042 16.9605C33.2106 17.0491 33.4056 17.0018 33.3996 16.8364C33.3819 16.2337 33.3937 15.625 33.3287 15.0223C33.3051 14.7859 33.2637 14.5614 33.1928 14.3428C33.1751 14.1891 33.1456 14.0355 33.1042 13.8878C33.0451 13.6573 32.9683 13.4268 32.8796 13.2023H32.9092C32.9092 13.2023 32.9328 13.2437 32.9506 13.2555L32.9742 13.2732L32.9919 13.285C32.9919 13.285 33.0333 13.2968 33.0569 13.2968C33.0806 13.2968 33.1042 13.2968 33.1219 13.285C33.2224 13.35 33.3228 13.415 33.4233 13.48C33.5237 13.545 33.701 13.4623 33.6833 13.3323C33.6478 13.0309 33.5769 12.7473 33.4469 12.4755C33.3583 12.2923 33.2165 12.115 33.1456 11.9259" fill="white"/>
</mask>
<g mask="url(#mask5_74_27364)">
<path d="M33.6362 16.1691C33.713 16.1337 33.7721 16.045 33.7425 15.9623L33.5771 15.4896C33.7012 15.5014 33.7957 15.3418 33.7425 15.2237C33.6716 15.0818 33.6066 14.9341 33.5475 14.7923C33.6125 14.7509 33.648 14.6682 33.6303 14.5914C33.7544 14.5973 33.8607 14.4791 33.7898 14.3373C33.7189 14.1896 33.6539 14.0477 33.5889 13.9C33.713 13.9591 33.8548 13.8173 33.8194 13.6932C33.7839 13.5691 33.7485 13.445 33.713 13.3209C33.7485 13.2737 33.7603 13.2087 33.7307 13.1377C33.7012 13.0727 33.6775 13.0077 33.648 12.9427C33.7425 12.9427 33.8312 12.86 33.8016 12.73C33.7544 12.535 33.7012 12.34 33.648 12.1509C33.6835 12.1214 33.713 12.08 33.713 12.0209C33.713 11.9027 33.713 11.7787 33.713 11.6605C33.7603 11.625 33.7957 11.5659 33.7839 11.4891C33.7721 11.4241 33.7662 11.365 33.7544 11.3C33.7662 11.2705 33.778 11.2291 33.7721 11.1937L33.7189 10.9159C33.7189 10.6677 33.7071 10.4196 33.6716 10.1773C33.6421 9.93502 33.5712 9.69274 33.453 9.48002C33.4116 9.26138 33.3525 9.04274 33.2166 8.86547C33.0394 8.6232 32.7321 8.47547 32.4425 8.59956C32.1944 8.70593 32.023 8.96002 31.9344 9.21411C31.6921 9.6632 31.6094 10.1891 31.6035 10.6914C31.6035 11.0223 31.6271 11.3473 31.6507 11.6723C31.5916 12.0859 31.6271 12.5114 31.6921 12.925C31.6921 12.9546 31.6921 12.9782 31.6921 13.0077C31.633 13.7346 31.503 14.4377 31.6094 15.1705C31.633 15.3359 31.6685 15.4955 31.7098 15.655C31.7098 15.8323 31.7335 16.0096 31.7866 16.175C31.8221 16.4055 31.9048 16.6241 32.0289 16.8191C32.0466 16.8782 32.0821 16.9255 32.1294 16.9609C32.2416 17.1087 32.3835 17.2327 32.543 17.3391C32.5666 17.3568 32.5903 17.3568 32.6139 17.3627C32.7439 17.54 32.9035 17.6937 33.0925 17.8237C33.2166 17.9064 33.3939 17.7705 33.3466 17.6287C33.3348 17.5991 33.323 17.5755 33.3171 17.5459C33.4235 17.5459 33.5298 17.4337 33.4885 17.3273C33.4648 17.2682 33.4471 17.215 33.4235 17.1559C33.518 17.1559 33.6066 17.0968 33.6007 16.9905C33.6007 16.8959 33.5771 16.8014 33.5475 16.7068L33.5653 16.7187C33.713 16.7896 33.8962 16.6418 33.8016 16.4823C33.7425 16.3818 33.6894 16.2814 33.6362 16.1809V16.1691Z" fill="#B2B2B2"/>
</g>
</g>
<path d="M43.7285 25.7775C42.1685 26.9594 41.7371 29.0984 41.9735 30.9539L42.1094 31.7635L41.9676 30.9539C41.8021 29.6066 41.938 28.1707 42.6353 26.983C42.913 26.5103 43.2617 26.073 43.7049 25.748C43.7285 25.7303 43.7521 25.7657 43.7285 25.7834V25.7775Z" fill="#B2B2B2"/>
<path d="M43.6043 26.4221C42.7888 28.4666 42.2984 30.6589 42.4816 32.863C42.2866 30.6707 42.7593 28.4489 43.5629 26.4221V26.4103L43.5925 26.3984L43.6043 26.4221Z" fill="#B2B2B2"/>
<path d="M44.1302 27.0659C43.693 29.3409 43.7107 31.8168 44.7684 33.9205C43.953 32.3546 43.7521 30.5405 43.8643 28.7973C43.8998 28.2123 43.9707 27.6273 44.0889 27.0541C44.0889 27.0305 44.1362 27.0364 44.1302 27.06V27.0659Z" fill="#B2B2B2"/>
<path d="M43.5985 27.4437C43.6576 27.9519 43.6458 28.6906 43.6635 29.2047C43.6635 30.9537 43.6931 32.7206 43.3799 34.446C43.7167 32.4369 43.6458 30.3628 43.6044 28.3301C43.5926 28.0878 43.5808 27.6978 43.5572 27.4674V27.4497C43.5572 27.4497 43.5867 27.4201 43.5926 27.4497L43.5985 27.4437Z" fill="#B2B2B2"/>
<path d="M44.662 26.7761C44.7152 28.0879 44.8511 29.3997 45.0756 30.6938C45.3061 31.982 45.6015 33.2879 46.2161 34.452C45.5897 33.2879 45.2883 31.9879 45.052 30.6997C44.8215 29.4056 44.6797 28.0938 44.6206 26.7761C44.6206 26.7465 44.6679 26.7465 44.662 26.7761Z" fill="#B2B2B2"/>
<path d="M45.117 27.1543C45.5424 27.8693 45.8497 28.6316 46.1688 29.3997C46.4702 30.162 46.7538 30.9479 46.8779 31.7634C46.5647 30.1561 45.8674 28.6197 45.0874 27.1897C45.0638 27.1661 45.0874 27.1306 45.1111 27.1543H45.117Z" fill="#B2B2B2"/>
<path d="M42.7417 76.182C42.6117 76.2352 42.4581 76.2707 42.3044 76.2707C42.334 76.2707 42.3576 76.2707 42.3872 76.2766C42.5408 76.2825 42.6885 76.2647 42.8185 76.2175C42.8481 76.2057 42.8717 76.1997 42.8954 76.1879C43.0254 76.1347 43.1435 76.052 43.2322 75.9575C43.2735 75.9161 43.309 75.8688 43.3385 75.8157C43.3917 75.7211 43.4272 75.6147 43.4331 75.4966C43.4331 75.4788 43.4331 75.4611 43.4331 75.4434C43.4213 75.0593 43.0844 74.7284 42.6354 74.6457C42.5822 74.6338 42.5231 74.6279 42.464 74.6279C42.4344 74.6279 42.4108 74.6279 42.3813 74.6279C42.4581 74.6397 42.5349 74.6516 42.6058 74.6752C43.0076 74.7993 43.2913 75.1302 43.2735 75.4966V75.5084C43.2617 75.6679 43.1967 75.8157 43.0904 75.9338C43.0785 75.9457 43.0667 75.9575 43.0549 75.9693C42.9722 76.0579 42.8658 76.1288 42.7417 76.182C42.7417 76.182 42.7417 76.182 42.7358 76.182H42.7417Z" fill="#B2B2B2"/>
<path d="M41.4121 75.402C41.4121 75.402 41.4121 75.4434 41.4121 75.467C41.4121 75.4966 41.4121 75.532 41.4239 75.5616C41.4298 75.6088 41.4476 75.6502 41.4594 75.6916C41.5007 75.792 41.5598 75.8866 41.6426 75.9693C41.8021 76.1288 42.0326 76.2411 42.2985 76.2707C42.458 76.2707 42.6057 76.2352 42.7357 76.182C42.7357 76.182 42.7357 76.182 42.7417 76.182C42.8598 76.1288 42.9662 76.0579 43.0548 75.9693C43.0667 75.9575 43.0785 75.9457 43.0903 75.9338C43.1967 75.8157 43.2617 75.6679 43.2735 75.5084V75.4966C43.2912 75.1302 43.0135 74.7993 42.6117 74.6752C42.5407 74.6516 42.4639 74.6397 42.3871 74.6279C41.8671 74.6338 41.4357 74.9707 41.418 75.402H41.4121Z" fill="#B2B2B2"/>
<path d="M41.9734 76.7261C41.9734 76.7261 42.0148 76.7261 42.0384 76.7261C42.4934 76.7497 42.8953 76.5429 43.108 76.2297C43.1966 76.0938 43.2557 75.9402 43.2616 75.7688C43.2912 75.2074 42.7889 74.7288 42.1389 74.6934C42.1153 74.6934 42.0975 74.6934 42.0739 74.6934C42.6943 74.7525 43.1612 75.2193 43.1316 75.7629C43.1198 76.0052 43.0075 76.2297 42.8303 76.3952C42.6175 76.5961 42.3103 76.7202 41.9675 76.7202L41.9734 76.7261Z" fill="#B2B2B2"/>
<path d="M40.9098 75.6555C40.9098 75.7087 40.9098 75.756 40.9157 75.8092C40.9393 76.0219 41.0398 76.2169 41.1934 76.3705C41.2584 76.4355 41.3352 76.4946 41.4179 76.5478C41.4298 76.5537 41.4475 76.5655 41.4593 76.5714C41.5361 76.6128 41.6129 76.6482 41.6957 76.6719C41.7489 76.6896 41.802 76.7014 41.8611 76.7132C41.8966 76.7192 41.9261 76.7251 41.9616 76.7251C42.3043 76.7251 42.6116 76.601 42.8243 76.4001C43.0016 76.2346 43.1139 76.0101 43.1257 75.7678C43.1552 75.2241 42.6825 74.7573 42.068 74.6982C41.9734 74.6982 41.8789 74.7101 41.7902 74.7278C41.7784 74.7278 41.7666 74.7278 41.7548 74.7337C41.7134 74.7455 41.6661 74.7573 41.6248 74.7692C41.5893 74.781 41.5539 74.7928 41.5184 74.8105C41.1639 74.9701 40.9216 75.2832 40.8979 75.6555H40.9098Z" fill="#B2B2B2"/>
<path d="M41.5835 76.6608C41.3294 76.8499 40.9926 76.968 40.6262 76.968C40.6617 76.968 40.6912 76.9739 40.7267 76.9739C41.1167 76.9917 41.4771 76.8853 41.743 76.6962C41.8789 76.6017 41.9971 76.4835 42.0799 76.3476C42.1685 76.2058 42.2217 76.0403 42.2335 75.8689C42.2512 75.5085 42.068 75.1717 41.7608 74.9412C41.7312 74.9176 41.7017 74.8998 41.6721 74.8762C41.6249 74.8467 41.5717 74.8112 41.5126 74.7876C41.3176 74.6871 41.0871 74.628 40.8449 74.6162C40.8094 74.6162 40.7799 74.6162 40.7444 74.6162C40.9926 74.6398 41.2171 74.7167 41.4121 74.8289C41.5008 74.8821 41.5835 74.9412 41.6603 75.0121C41.8139 75.1539 41.9321 75.3253 41.9912 75.5144C42.0267 75.6267 42.0444 75.7389 42.0385 75.8571C42.0267 76.1112 41.9144 76.3417 41.7371 76.5248C41.6899 76.5721 41.6426 76.6135 41.5894 76.6548L41.5835 76.6608Z" fill="#B2B2B2"/>
<path d="M39.338 75.7271C39.3321 75.8571 39.3499 75.9812 39.3912 76.0993C39.4326 76.2175 39.4976 76.3298 39.5744 76.4303C39.5921 76.4539 39.6158 76.4775 39.6335 76.5012C39.7044 76.578 39.7812 76.643 39.8699 76.7021C39.8699 76.7021 39.8699 76.7021 39.8758 76.7021C39.8994 76.7198 39.923 76.7316 39.9467 76.7493C40.1417 76.8616 40.3662 76.9384 40.6144 76.968C40.9808 76.968 41.3176 76.8498 41.5717 76.6607C41.6249 76.6193 41.6721 76.578 41.7194 76.5307C41.8967 76.3475 42.0089 76.1171 42.0208 75.863C42.0267 75.7448 42.0089 75.6266 41.9735 75.5203C41.9144 75.3312 41.8021 75.1598 41.6426 75.018C41.5717 74.953 41.4889 74.888 41.3944 74.8348C41.1994 74.7225 40.9749 74.6457 40.7267 74.6221C40.3426 74.6221 39.988 74.7521 39.7339 74.9589C39.7221 74.9707 39.7103 74.9766 39.6985 74.9884C39.4739 75.1834 39.338 75.4434 39.3203 75.7271H39.338Z" fill="#B2B2B2"/>
<path d="M39.9054 76.7788C39.7459 76.8497 39.5627 76.8851 39.3677 76.891C39.4031 76.891 39.4327 76.8969 39.4681 76.8969C39.6572 76.9088 39.8345 76.8792 39.9999 76.826C40.0354 76.8142 40.0649 76.8024 40.0945 76.7906C40.2599 76.7256 40.3959 76.6251 40.5081 76.5069C40.5613 76.4538 40.6027 76.3947 40.6381 76.3297C40.709 76.2115 40.7504 76.0815 40.7563 75.9397C40.7563 75.916 40.7563 75.8924 40.7563 75.8747C40.7445 75.4019 40.3309 75.0001 39.7754 74.8938C39.7045 74.8819 39.6395 74.8701 39.5627 74.8701C39.5272 74.8701 39.4977 74.8701 39.4622 74.8701C39.5568 74.8819 39.6513 74.8997 39.734 74.9292C40.2304 75.0828 40.5731 75.4847 40.5495 75.9397V75.9515C40.5377 76.1465 40.4549 76.3297 40.3249 76.4774C40.3131 76.4951 40.3013 76.5069 40.2836 76.5188C40.1831 76.6251 40.0531 76.7138 39.8995 76.7788C39.8995 76.7788 39.8936 76.7788 39.8877 76.7788H39.9054Z" fill="#B2B2B2"/>
<path d="M38.2803 75.8274C38.2803 75.8274 38.2803 75.8806 38.2803 75.9042C38.2803 75.9456 38.2803 75.981 38.2921 76.0224C38.3039 76.0756 38.3157 76.1288 38.3394 76.1819C38.3866 76.306 38.4635 76.4242 38.5639 76.5188C38.7589 76.7138 39.0425 76.8497 39.3675 76.891C39.5625 76.891 39.7457 76.8497 39.9053 76.7788C39.9053 76.7788 39.9112 76.7788 39.9171 76.7788C40.0648 76.7138 40.1948 76.6251 40.3012 76.5188C40.313 76.5069 40.3307 76.4892 40.3425 76.4774C40.4725 76.3297 40.5494 76.1524 40.5612 75.9515V75.9397C40.5848 75.4906 40.2421 75.0888 39.7457 74.9292C39.6571 74.8997 39.5685 74.8819 39.4739 74.8701C38.8357 74.8819 38.3098 75.2897 38.2803 75.8215V75.8274Z" fill="#B2B2B2"/>
<path d="M37.2877 76.3118C37.1577 76.4123 36.9981 76.4891 36.8268 76.5305C36.8563 76.5305 36.8858 76.5305 36.9213 76.5186C37.0927 76.495 37.2463 76.4359 37.3822 76.3473C37.4118 76.3296 37.4354 76.3118 37.4649 76.2882C37.5949 76.1877 37.7072 76.0577 37.7781 75.91C37.8136 75.845 37.8431 75.7741 37.8608 75.6973C37.8963 75.5555 37.9081 75.4077 37.8904 75.2541C37.8904 75.2305 37.8845 75.2068 37.8786 75.1832C37.7722 74.675 37.3231 74.3146 36.809 74.3027C36.744 74.3027 36.679 74.3027 36.614 74.3146C36.5845 74.3146 36.5549 74.3264 36.5254 74.3323C36.614 74.3323 36.6968 74.3323 36.7795 74.3441C37.2522 74.4209 37.6422 74.7932 37.7072 75.2836V75.2955C37.7368 75.5082 37.7013 75.715 37.6127 75.8982C37.6068 75.9159 37.5949 75.9336 37.5831 75.9514C37.5122 76.0814 37.4118 76.2055 37.2936 76.3C37.2936 76.3 37.2936 76.3 37.2877 76.3059V76.3118Z" fill="#B2B2B2"/>
<path d="M35.6389 75.5791C35.6389 75.5791 35.6507 75.6382 35.6566 75.6677C35.6626 75.7091 35.6744 75.7505 35.6921 75.7918C35.7098 75.8509 35.7394 75.9041 35.763 75.9573C35.8339 76.0814 35.9226 76.1937 36.0348 76.2823C36.2476 76.4596 36.5312 76.5541 36.8266 76.5364C36.998 76.495 37.1576 76.4241 37.2876 76.3178C37.2876 76.3178 37.2876 76.3177 37.2935 76.3118C37.4116 76.2173 37.5121 76.0991 37.583 75.9632C37.5948 75.9455 37.6007 75.9278 37.6126 75.91C37.7012 75.7268 37.7366 75.52 37.7071 75.3073V75.2955C37.6362 74.805 37.2521 74.4328 36.7735 74.3559C36.6907 74.3441 36.6021 74.3382 36.5194 74.3441C35.9462 74.4682 35.5621 75.0059 35.6389 75.585V75.5791Z" fill="#B2B2B2"/>
<path d="M36.5725 77.21C36.5725 77.21 36.6198 77.21 36.6434 77.2041C37.1457 77.1332 37.5416 76.7728 37.7012 76.3059C37.7662 76.105 37.7898 75.8864 37.7602 75.6678C37.6539 74.9173 36.9862 74.3973 36.2652 74.4978C36.2416 74.4978 36.218 74.5037 36.1943 74.5096C36.8857 74.4505 37.518 74.9646 37.6184 75.6855C37.6657 76.0105 37.5948 76.3296 37.4412 76.5896C37.258 76.9028 36.9507 77.1391 36.5725 77.21Z" fill="#B2B2B2"/>
<path d="M35.1484 76.0281C35.1603 76.099 35.1721 76.164 35.1898 76.229C35.2666 76.5009 35.4262 76.7372 35.633 76.9086C35.7216 76.9795 35.8221 77.0445 35.9284 77.0918C35.9462 77.0977 35.9639 77.1095 35.9816 77.1154C36.0703 77.1509 36.1648 77.1804 36.2653 77.1922C36.3303 77.204 36.3894 77.21 36.4544 77.21C36.4957 77.21 36.5312 77.21 36.5725 77.21C36.9448 77.1331 37.2521 76.9027 37.4412 76.5895C37.5948 76.3295 37.6657 76.0104 37.6184 75.6854C37.518 74.9645 36.8857 74.4504 36.1944 74.5095C36.088 74.5272 35.9875 74.5627 35.8989 74.61C35.8871 74.61 35.8753 74.6218 35.8634 74.6277C35.8162 74.6513 35.7748 74.675 35.7334 74.7045C35.698 74.7281 35.6625 74.7577 35.6271 74.7813C35.2784 75.0709 35.0834 75.5377 35.1544 76.0341L35.1484 76.0281Z" fill="#B2B2B2"/>
<path d="M36.1294 77.2097C35.8989 77.517 35.5562 77.7474 35.1544 77.8302C35.1898 77.8302 35.2312 77.8302 35.2666 77.8183C35.698 77.7592 36.0644 77.5347 36.3185 77.2215C36.4485 77.062 36.543 76.8788 36.6021 76.6838C36.6671 76.4711 36.6848 76.2465 36.6553 76.0161C36.5844 75.5315 36.3007 75.1297 35.9107 74.8933C35.8753 74.8697 35.8339 74.852 35.7985 74.8283C35.7335 74.7988 35.6685 74.7692 35.6035 74.7456C35.3612 74.657 35.0953 74.6274 34.8235 74.6688C34.788 74.6688 34.7466 74.6806 34.7112 74.6865C34.9889 74.6629 35.2548 74.7161 35.4971 74.8224C35.6094 74.8697 35.7157 74.9347 35.8103 75.0056C36.0171 75.1592 36.1825 75.3602 36.2948 75.5965C36.3598 75.7324 36.4071 75.8861 36.4248 76.0456C36.4721 76.3824 36.4071 76.7133 36.2594 76.997C36.2239 77.0679 36.1766 77.1329 36.1294 77.2038V77.2097Z" fill="#B2B2B2"/>
<path d="M33.4407 76.4709C33.4644 76.6422 33.5175 76.8018 33.5885 76.9495C33.6594 77.0972 33.7598 77.2331 33.8721 77.3513C33.9016 77.3809 33.9253 77.4045 33.9548 77.4281C34.0494 77.5108 34.1498 77.5818 34.2621 77.6409C34.2621 77.6409 34.2621 77.6409 34.2739 77.6409C34.3035 77.6586 34.333 77.6704 34.3625 77.6822C34.6048 77.7886 34.8707 77.8418 35.1544 77.8181C35.5562 77.7354 35.8989 77.5049 36.1294 77.1977C36.1766 77.1327 36.218 77.0677 36.2594 76.9909C36.4071 76.7072 36.4721 76.3763 36.4248 76.0395C36.4012 75.8799 36.3598 75.7322 36.2948 75.5904C36.1825 75.354 36.0171 75.1531 35.8103 74.9995C35.7157 74.9286 35.6094 74.8636 35.4971 74.8163C35.2607 74.7099 34.9889 74.6627 34.7112 74.6804C34.2857 74.769 33.9312 75.0172 33.7007 75.3481C33.6889 75.3659 33.6771 75.3777 33.6712 75.3954C33.4762 75.7027 33.3816 76.0749 33.4348 76.459L33.4407 76.4709Z" fill="#B2B2B2"/>
<path d="M34.3212 77.7356C34.1617 77.8597 33.9667 77.9542 33.754 78.0015C33.7894 78.0015 33.8308 77.9956 33.8662 77.9897C34.0731 77.9601 34.2681 77.8892 34.4335 77.7828C34.469 77.7592 34.4985 77.7356 34.534 77.7119C34.6935 77.5879 34.8294 77.4283 34.9181 77.2451C34.9594 77.1624 34.9949 77.0738 35.0185 76.9851C35.0658 76.8138 35.0776 76.6306 35.054 76.4415C35.054 76.4119 35.0421 76.3824 35.0362 76.3528C34.9062 75.7324 34.3567 75.2892 33.7185 75.2715C33.6417 75.2715 33.559 75.2715 33.4821 75.2833C33.4408 75.2833 33.4053 75.2951 33.3699 75.3069C33.4762 75.301 33.5826 75.3069 33.6831 75.3247C34.2621 75.4192 34.7408 75.8742 34.8235 76.4769V76.4947C34.859 76.7547 34.8176 77.0147 34.7112 77.2333C34.6994 77.2569 34.6876 77.2806 34.6758 77.2983C34.5871 77.4638 34.469 77.6056 34.3212 77.7238C34.3212 77.7238 34.3212 77.7238 34.3153 77.7297L34.3212 77.7356Z" fill="#B2B2B2"/>
<path d="M32.3003 76.8373C32.3003 76.8728 32.3121 76.9082 32.318 76.9437C32.3299 76.9969 32.3417 77.0441 32.3594 77.0914C32.383 77.1623 32.4126 77.2273 32.448 77.2923C32.5308 77.4459 32.643 77.5819 32.7789 77.6882C33.0449 77.9009 33.3876 78.025 33.7539 78.0014C33.9667 77.9541 34.1558 77.8596 34.3212 77.7355C34.3212 77.7355 34.3212 77.7355 34.3271 77.7296C34.4749 77.6114 34.593 77.4637 34.6817 77.3041C34.6935 77.2805 34.7053 77.2628 34.7171 77.2391C34.8235 77.0146 34.8649 76.7605 34.8353 76.5005V76.4828C34.7467 75.88 34.2739 75.425 33.6889 75.3305C33.5885 75.3128 33.4821 75.3069 33.3758 75.3128C32.6726 75.4664 32.1999 76.1282 32.3003 76.8373Z" fill="#B2B2B2"/>
</svg>
