<svg width="56" height="55" viewBox="0 0 56 55" fill="none" xmlns="http://www.w3.org/2000/svg">
<mask id="mask0_125_5528" style="mask-type:luminance" maskUnits="userSpaceOnUse" x="0" y="0" width="56" height="55">
<path d="M55.21 0H0V54.49H55.21V0Z" fill="white"/>
</mask>
<g mask="url(#mask0_125_5528)">
<path d="M110.41 54.49H71.76C71.76 45.47 64.34 38.14 55.2 38.14C46.06 38.14 38.64 45.46 38.64 54.49H-0.0100098C-0.0100098 24.41 24.72 0 55.2 0C85.68 0 110.41 24.41 110.41 54.49Z" fill="#AB22F0"/>
<path d="M104.89 54.4902H71.77C71.77 45.4702 64.35 38.1402 55.21 38.1402C46.07 38.1402 38.65 45.4602 38.65 54.4902H5.53003C5.53003 27.4202 27.79 5.4502 55.22 5.4502C82.65 5.4502 104.91 27.4202 104.91 54.4902H104.89Z" fill="#2137FF"/>
<path d="M99.37 54.4899H71.7701C71.7701 45.4699 64.3501 38.1399 55.2101 38.1399C46.0701 38.1399 38.6501 45.4599 38.6501 54.4899H11.05C11.05 30.4299 30.84 10.8999 55.22 10.8999C79.6 10.8999 99.3901 30.4299 99.3901 54.4899H99.37Z" fill="#00D0FF"/>
<path d="M93.8499 54.4901H71.77C71.77 45.4701 64.35 38.1401 55.21 38.1401C46.07 38.1401 38.6499 45.4601 38.6499 54.4901H16.5699C16.5699 33.4301 33.8799 16.3501 55.2199 16.3501C76.5599 16.3501 93.8699 33.4401 93.8699 54.4901H93.8499Z" fill="#19F705"/>
<path d="M88.33 54.4898H71.77C71.77 45.4698 64.35 38.1398 55.21 38.1398C46.07 38.1398 38.65 45.4598 38.65 54.4898H22.09C22.09 36.4398 36.93 21.7998 55.21 21.7998C73.49 21.7998 88.33 36.4498 88.33 54.4898Z" fill="#FFFB00"/>
<path d="M82.81 54.4902H71.77C71.77 45.4702 64.35 38.1402 55.21 38.1402C46.07 38.1402 38.65 45.4602 38.65 54.4902H27.61C27.61 39.4502 39.98 27.2402 55.21 27.2402C70.44 27.2402 82.81 39.4502 82.81 54.4902Z" fill="#FFB100"/>
<path d="M77.29 54.4899H71.77C71.77 45.4699 64.35 38.1399 55.21 38.1399C46.07 38.1399 38.65 45.4599 38.65 54.4899H33.13C33.13 42.4599 43.02 32.6899 55.21 32.6899C67.4 32.6899 77.29 42.4499 77.29 54.4899Z" fill="#FF4F2D"/>
</g>
</svg>
