<svg width="102" height="50" viewBox="0 0 102 50" fill="none" xmlns="http://www.w3.org/2000/svg">
<path d="M102 50H66.5395C66.5395 41.7237 59.7368 35 51.3421 35C42.9474 35 36.1447 41.7237 36.1447 50H0.684204C0.684204 22.3947 23.3816 0 51.3421 0C79.3026 0 102 22.3947 102 50Z" fill="#AB22F0"/>
<path d="M96.9342 50H66.5395C66.5395 41.7237 59.7369 35 51.3421 35C42.9474 35 36.1447 41.7237 36.1447 50H5.75C5.75 25.1579 26.1711 5 51.3421 5C76.5132 5 96.9342 25.1579 96.9342 50Z" fill="#2137FF"/>
<path d="M91.8683 49.999H66.5394C66.5394 41.7227 59.7367 34.999 51.342 34.999C42.9473 34.999 36.1446 41.7227 36.1446 49.999H10.8157C10.8157 27.9201 28.9736 9.99902 51.342 9.99902C73.7104 9.99902 91.8683 27.9201 91.8683 49.999Z" fill="#00D0FF"/>
<path d="M86.8026 50.001H66.5395C66.5395 41.7247 59.7369 35.001 51.3421 35.001C42.9474 35.001 36.1447 41.7247 36.1447 50.001H15.8816C15.8816 30.6852 31.7632 15.001 51.3421 15.001C70.9211 15.001 86.8026 30.6852 86.8026 50.001Z" fill="#19F705"/>
<path d="M81.7369 50H66.5395C66.5395 41.7237 59.7369 35 51.3421 35C42.9474 35 36.1448 41.7237 36.1448 50H20.9474C20.9474 33.4342 34.5658 20 51.3421 20C68.1184 20 81.7369 33.4342 81.7369 50Z" fill="#FFFB00"/>
<path d="M76.6711 50H66.5395C66.5395 41.7237 59.7369 35 51.3421 35C42.9474 35 36.1448 41.7237 36.1448 50H26.0132C26.0132 36.1974 37.3553 25 51.3421 25C65.329 25 76.6711 36.1974 76.6711 50Z" fill="#FFB100"/>
<path d="M71.6052 50H66.5394C66.5394 41.7237 59.7368 35 51.342 35C42.9473 35 36.1447 41.7237 36.1447 50H31.0789C31.0789 38.9605 40.1578 30 51.342 30C62.5262 30 71.6052 38.9605 71.6052 50Z" fill="#FF4F2D"/>
</svg>
