<svg width="52" height="68" viewBox="0 0 52 68" fill="none" xmlns="http://www.w3.org/2000/svg">
<path d="M38.5521 60.2202V62.0544L37.9258 64.1034C37.9258 64.1034 32.5573 64.2197 32.4589 64.2197C32.3605 64.2197 29.3989 63.2355 29.3273 63.1818C29.2558 63.1281 28.71 61.4013 28.71 61.4013L29.3273 60.2202H38.5521Z" fill="#150033"/>
<path d="M29.9083 37.5298C30.0514 37.8698 29.783 42.2093 29.3983 45.8151C29.3983 45.8419 29.3983 45.8687 29.3983 45.8687C29.273 47.0319 29.1388 48.1056 28.9956 48.9466C28.9956 48.9556 28.9956 48.9735 28.9867 48.9824C28.9688 49.0808 28.9599 49.1793 28.942 49.2687C28.2799 52.9014 25.5062 59.5761 28.9688 61.2493C29.3804 61.4461 30.0693 61.5982 30.8925 61.6966C31.5367 61.7772 32.2525 61.8129 32.9683 61.8219C32.9683 61.8219 32.9772 61.8219 32.9862 61.8219C33.2993 61.8219 33.6125 61.8219 33.9167 61.804C33.9346 61.804 33.9346 61.804 33.9525 61.804C33.9525 61.804 33.9525 61.804 33.9614 61.804H33.9704C34.8025 61.7682 35.5988 61.6698 36.2609 61.5177C36.2609 61.5177 36.2788 61.5177 36.2878 61.5177C36.9409 61.3566 37.4509 61.1329 37.6925 60.8377C40.4483 57.4824 37.6656 50.9687 36.8783 45.6182C36.5293 43.274 35.2767 41.4845 33.9256 40.1961C32.682 39.0061 31.3578 38.2366 30.5883 37.8519C30.1767 37.6461 29.9262 37.5387 29.9262 37.5387L29.9083 37.5298Z" fill="#EA4200"/>
<g style="mix-blend-mode:multiply">
<path d="M29.0225 48.8481C29.0225 48.8481 29.0135 48.8839 28.9956 48.9376C28.9956 48.9466 28.9956 48.9645 28.9867 48.9734C28.9688 49.0718 28.9599 49.1702 28.942 49.2597C28.2799 52.8924 25.5062 59.576 28.9688 61.2403C29.3804 61.4371 30.0604 61.5892 30.8925 61.6876C31.5367 61.7592 32.2435 61.8039 32.9683 61.8039C32.9683 61.8039 32.9772 61.8039 32.9862 61.8039C33.2993 61.8039 33.6125 61.8039 33.9167 61.786C33.9346 61.786 33.9525 61.786 33.9614 61.786H33.9704C33.2009 61.5803 32.5388 61.3655 31.9662 61.1329C29.7293 60.2381 28.3514 58.8513 28.4767 57.8045C28.5483 57.205 38.5246 56.015 38.6856 55.4334C39.0078 54.2166 29.0135 48.8481 29.0135 48.8481H29.0225Z" fill="#ECE1F0"/>
</g>
<path d="M27.6806 60.7483C29.1033 62.2783 33.9527 62.0635 36.4938 61.6341C37.4959 61.4641 38.1222 61.1956 38.5427 60.8735C39.1959 60.3814 39.3659 59.773 39.6433 59.2451C40.0996 58.3593 39.4106 57.2767 38.8649 57.5899C38.3191 57.903 34.9549 58.4578 32.9506 58.4488C31.6443 58.4399 29.7296 58.0372 28.468 57.8046C27.7791 57.6793 27.2959 57.6078 27.1975 57.6704C26.3564 58.243 26.2491 59.2183 27.6717 60.7483H27.6806Z" fill="#EDF4FF"/>
<g style="mix-blend-mode:multiply" opacity="0.47">
<path d="M27.6806 60.7481C29.1033 62.2781 33.9527 62.0634 36.4938 61.6339C37.4959 61.4639 38.1222 61.1955 38.5427 60.8734C37.2275 61.8397 31.707 61.9828 29.6133 60.9628C26.947 59.6655 28.468 57.7955 28.468 57.7955C27.7791 57.6702 27.2959 57.5986 27.1975 57.6613C26.3564 58.2339 26.2491 59.2091 27.6717 60.7391L27.6806 60.7481Z" fill="#91CFD9"/>
</g>
<path d="M28.7812 65.4898C28.9244 66.1608 29.1033 66.6529 29.2644 66.7871C29.7207 67.145 32.1544 67.2971 32.1544 67.2971L32.3512 66.814C33.1923 67.6282 38.0596 68.2634 40.3949 67.8966C41.1912 67.7713 41.9517 67.2434 42.5065 66.5277C43.5444 65.1766 43.8933 63.1724 42.4617 61.8482C42.3902 61.7855 42.3186 61.7229 42.247 61.6603C39.0528 59.155 36.9591 62.564 36.7712 62.8861C36.7712 62.904 36.7533 62.9129 36.7533 62.9129C32.718 64.9529 28.7007 61.4008 28.7007 61.4008C28.4233 62.6624 28.5396 64.3445 28.7812 65.4987V65.4898Z" fill="#1E004A"/>
<path d="M28.7817 65.4902C28.9249 66.1613 29.1038 66.6534 29.2649 66.7876C29.7212 67.1455 32.1549 67.2976 32.1549 67.2976L32.3517 66.8144C33.1928 67.6287 38.0602 68.2639 40.3954 67.8971C41.1917 67.7718 41.9523 67.2439 42.507 66.5281C42.4444 66.5818 41.4333 67.4318 38.7581 67.3602C35.9933 67.2887 33.667 66.8144 32.1638 66.1344C32.1638 66.1344 30.7412 66.4834 28.7907 65.4992L28.7817 65.4902Z" fill="#150033"/>
<path d="M36.6193 64.0045C36.9414 64.9619 38.2298 61.705 40.1177 61.544C41.0035 61.4724 41.8356 61.6424 42.4709 61.8482C42.3993 61.7855 42.3277 61.7229 42.2561 61.6603C39.0619 59.155 36.9682 62.564 36.7803 62.8861C36.5924 63.3424 36.5298 63.745 36.6193 64.0045Z" fill="#2C006E"/>
<path d="M12.3281 60.2202V62.0544L12.9544 64.1034C12.9544 64.1034 18.3229 64.2197 18.4213 64.2197C18.5197 64.2197 21.4813 63.2355 21.5529 63.1818C21.6244 63.1281 22.1702 61.4013 22.1702 61.4013L21.5529 60.2202H12.3281Z" fill="#150033"/>
<path d="M23.0114 60.2917C22.9219 60.4259 22.8235 60.5512 22.7161 60.6675C22.5014 60.9002 22.233 61.097 21.9109 61.2491C21.884 61.258 21.8572 61.2759 21.8304 61.2849C21.7767 61.3117 21.714 61.3296 21.6514 61.3565C21.2398 61.5086 20.6583 61.6159 19.9872 61.6965C19.513 61.7502 18.9851 61.7949 18.4483 61.8038C18.2693 61.8038 18.0904 61.8038 17.9114 61.8128C17.9114 61.8128 17.9025 61.8128 17.8935 61.8128C17.5893 61.8128 17.2672 61.8128 16.963 61.7949C16.9451 61.7949 16.9361 61.7949 16.9272 61.7949C16.9272 61.7949 16.9272 61.7949 16.9183 61.7949H16.9093C16.0772 61.7591 15.2809 61.6607 14.6188 61.5086C14.6188 61.5086 14.6009 61.5086 14.5919 61.5086C13.9388 61.3475 13.4288 61.1238 13.1872 60.8286C12.5967 60.1128 12.2656 59.2538 12.1046 58.2875C11.8898 56.9633 12.0151 55.4333 12.2835 53.8317C12.7398 51.1475 13.6077 48.2486 13.9925 45.618C14.3414 43.2738 15.594 41.4844 16.9451 40.1959C18.1888 39.0059 19.513 38.2365 20.2825 37.8428C20.694 37.637 20.9446 37.5386 20.9446 37.5386C20.8014 37.8786 21.0698 42.227 21.4546 45.8238C21.4546 45.8507 21.4546 45.8686 21.4546 45.8865C21.5798 47.0496 21.714 48.1233 21.8572 48.9644C21.8572 48.9644 21.8572 48.9733 21.8572 48.9823C21.8572 48.9823 21.8572 49.0002 21.8572 49.0091C21.8572 49.0628 21.8751 49.1075 21.884 49.1523C21.884 49.197 21.9019 49.2417 21.9109 49.2954C21.9825 49.707 22.0898 50.1544 22.2061 50.6375C22.2061 50.6733 22.224 50.7091 22.233 50.7449C22.2867 50.9775 22.3493 51.2191 22.4119 51.4696C22.4567 51.6307 22.4925 51.7917 22.5372 51.9528C22.6356 52.3465 22.743 52.758 22.8504 53.1696C22.8861 53.3217 22.9219 53.4738 22.9577 53.6259C23.5661 56.1491 23.9867 58.7886 22.9846 60.3186L23.0114 60.2917Z" fill="#EA4200"/>
<g style="mix-blend-mode:multiply">
<path d="M23.0104 60.2918C22.921 60.426 22.8226 60.5513 22.7152 60.6676C22.5004 60.9003 22.232 61.0971 21.9099 61.2492C21.8831 61.2581 21.8562 61.276 21.8294 61.285C21.7757 61.3118 21.7131 61.3297 21.6504 61.3566C21.2389 61.4997 20.6573 61.616 19.9862 61.6966C19.512 61.7502 18.9841 61.795 18.4473 61.8039C18.2683 61.8039 18.0894 61.8039 17.9104 61.8039H17.8926C17.5883 61.8039 17.2662 61.8039 16.962 61.786C16.9441 61.786 16.9352 61.786 16.9262 61.786C17.6868 61.5803 18.3489 61.3655 18.9215 61.1329C22.4468 59.7192 22.6704 58.0639 22.411 56.7308C22.3304 56.3192 15.3157 56.176 13.1236 55.9702C12.7299 55.9345 12.4794 57.706 12.4704 57.7508C12.381 58.055 12.2557 58.225 12.1304 58.2787C11.9157 56.9545 12.041 55.4245 12.3094 53.8229C15.5483 51.3624 21.8741 48.8481 21.8741 48.8481C21.8741 48.8481 21.8831 48.8839 21.901 48.9376C21.901 48.9376 21.901 48.9466 21.901 48.9555C21.901 48.9555 21.901 48.9734 21.901 48.9824C21.901 49.036 21.9189 49.0808 21.9278 49.1255C21.9278 49.1703 21.9457 49.215 21.9457 49.2597C22.0262 49.6713 22.1247 50.1276 22.241 50.6108C22.241 50.6466 22.2589 50.6824 22.2678 50.7181C22.3215 50.9508 22.3841 51.1924 22.4468 51.4429C22.4826 51.6039 22.5273 51.765 22.572 51.926C22.6704 52.3197 22.7778 52.7313 22.8852 53.1429C22.921 53.295 22.9568 53.4471 22.9926 53.5992C23.601 56.1224 24.0215 58.7618 23.0194 60.2918H23.0104Z" fill="#ECE1F0"/>
</g>
<path d="M23.1905 60.7483C21.7679 62.2783 16.9184 62.0725 14.3774 61.643C13.3753 61.473 12.7489 61.2046 12.3284 60.8825C11.6753 60.3904 11.5053 59.782 11.2279 59.2451C10.7716 58.3593 11.4605 57.2767 12.0063 57.5899C12.0868 57.6346 12.2479 57.6972 12.4537 57.7509C13.5721 58.0641 16.2295 58.4578 17.9205 58.4488C19.2268 58.4399 21.1416 58.0372 22.3942 57.8046C23.0832 57.6793 23.5753 57.6078 23.6647 57.6704C24.4968 58.243 24.6132 59.2183 23.1905 60.7483Z" fill="#EDF4FF"/>
<g style="mix-blend-mode:multiply" opacity="0.47">
<path d="M23.1905 60.7483C21.7679 62.2783 16.9184 62.0725 14.3774 61.643C13.3753 61.473 12.7489 61.2046 12.3284 60.8825C11.6753 60.3904 11.5053 59.782 11.2279 59.2451C10.7716 58.3593 11.4605 57.2767 12.0063 57.5899C12.0868 57.6346 12.2479 57.6972 12.4537 57.7509C12.4537 57.8941 11.9616 63.0835 20.9 61.2493C23.8079 60.6588 22.4032 57.7956 22.4032 57.7956C23.0921 57.6704 23.5842 57.5988 23.6737 57.6614C24.5058 58.2341 24.6221 59.2093 23.1995 60.7393L23.1905 60.7483Z" fill="#91CFD9"/>
</g>
<path d="M22.0895 65.4902C21.9463 66.1613 21.7674 66.6534 21.6063 66.7876C21.15 67.1455 18.7163 67.2976 18.7163 67.2976L18.5195 66.8145C17.6784 67.6287 12.811 68.2639 10.4758 67.8971C9.67946 67.7718 8.91893 67.2439 8.3642 66.5281C7.3263 65.1771 6.97736 63.1729 8.40893 61.8487C8.48051 61.786 8.55209 61.7234 8.62367 61.6608C11.8179 59.1555 13.9116 62.5645 14.0995 62.8866C14.0995 62.9045 14.1174 62.9134 14.1174 62.9134C18.1526 64.9534 22.17 61.4013 22.17 61.4013C22.4474 62.6629 22.331 64.345 22.0895 65.4992V65.4902Z" fill="#1E004A"/>
<path d="M22.0895 65.4907C21.9464 66.1618 21.7674 66.6539 21.6064 66.7881C21.15 67.146 18.7164 67.2981 18.7164 67.2981L18.5195 66.8149C17.6785 67.6291 12.8111 68.2644 10.4758 67.8976C9.67952 67.7723 8.91899 67.2444 8.36426 66.5286C8.42689 66.5823 9.43794 67.4323 12.1132 67.3607C14.8779 67.2891 17.2043 66.8149 18.7074 66.1349C18.7074 66.1349 20.13 66.4839 22.0806 65.4997L22.0895 65.4907Z" fill="#150033"/>
<path d="M14.2603 64.005C13.9382 64.9623 12.6497 61.7055 10.7618 61.5445C9.87606 61.4729 9.04395 61.6429 8.40869 61.8487C8.48027 61.786 8.55185 61.7234 8.62343 61.6608C11.8176 59.1555 13.9113 62.5645 14.0992 62.8866C14.2871 63.3429 14.3497 63.7455 14.2603 64.005Z" fill="#2C006E"/>
<path d="M42.9998 47.3986C42.9998 47.5418 42.9909 47.6849 42.973 47.8191C42.9372 48.2486 42.6509 48.6423 42.1677 49.0002C38.9914 51.3623 27.4583 52.096 25.7046 52.096C24.1835 52.096 15.3167 51.5412 10.9146 49.8591C9.46511 49.3044 8.49879 48.6333 8.43616 47.8191C8.42721 47.6849 8.41826 47.5418 8.40932 47.3986C8.36458 45.8418 8.74932 44.0881 9.16089 42.6833C9.60826 41.1623 10.0914 40.0439 10.0914 40.0439C10.1809 39.2386 10.2883 38.4691 10.4225 37.7355C11.4962 31.696 13.8762 28.1528 15.5941 26.2828C16.7393 25.0391 17.6072 24.5381 17.6072 24.5381L25.7046 25.1376L33.793 24.5381C33.793 24.5381 35.5556 25.567 37.4077 28.3318C38.3472 29.7455 39.3135 31.6065 40.0741 34.0133C40.4409 35.1855 40.763 36.4918 41.0135 37.9323C41.1298 38.6123 41.2283 39.3102 41.3088 40.0528C41.3088 40.0528 41.8277 41.2428 42.2841 42.8444C42.6777 44.2223 43.0356 45.9044 42.9909 47.4076L42.9998 47.3986Z" fill="#EA4200"/>
<path d="M25.2842 33.8789V53.1694H25.5705V33.8789" fill="#B33200"/>
<g style="mix-blend-mode:multiply">
<path d="M9.0625 43.0411C9.0625 43.0411 12.3462 44.5622 13.3125 44.8754C14.2788 45.1885 21.4546 46.298 21.4993 46.298C21.5441 46.298 21.4546 47.0406 21.6425 47.2106C21.8304 47.3806 29.4267 47.2106 29.4267 47.2106C29.4267 47.2106 29.3551 46.1548 29.5699 46.1011C29.7846 46.0475 38.9646 44.419 40.4588 43.6943C41.953 42.9696 42.302 42.8443 42.302 42.8443L29.552 42.7369L9.26829 42.3164L9.07145 43.0501L9.0625 43.0411Z" fill="#ECE1F0"/>
</g>
<path d="M42.2923 42.8354C42.2923 42.8354 34.2486 45.8238 25.1223 46.0654C19.6017 46.2085 14.9223 44.9469 12.0859 43.918C10.2249 43.2469 9.16016 42.6832 9.16016 42.6832L10.4217 37.7354C10.4217 37.7354 11.3702 38.1738 13.0075 38.7375C15.6291 39.6322 20.0133 40.8311 25.1133 41.0101C30.9917 41.2159 41.0038 37.9232 41.0038 37.9232L42.2833 42.8354H42.2923Z" fill="#500000"/>
<path d="M28.0748 41.2159V45.8327H23.5742C23.1269 45.8327 22.769 45.4749 22.769 45.0275V42.0301C22.769 41.5827 23.1269 41.2249 23.5742 41.2249H28.0748M28.2716 40.0796H22.5811C22.0621 40.0796 21.6416 40.5001 21.6416 41.0191V46.0296C21.6416 46.5485 22.0621 46.9691 22.5811 46.9691H28.2716C28.7906 46.9691 29.2111 46.5485 29.2111 46.0296V41.0191C29.2111 40.5001 28.7906 40.0796 28.2716 40.0796Z" fill="#F1E500"/>
<path d="M33.7384 39.9097C33.7384 39.9097 34.9732 40.7597 35.1074 41.9049C35.2684 43.2739 35.1342 43.8286 34.15 45.0186C34.15 45.0186 34.8121 43.8734 34.8837 43.5602C35 43.0681 35.2058 41.896 34.6332 40.9834C34.1948 40.2765 33.7295 39.9097 33.7295 39.9097H33.7384Z" fill="#8A5B48"/>
<path d="M25.561 43.8286C25.7291 43.8286 25.8653 43.6924 25.8653 43.5244C25.8653 43.3564 25.7291 43.2202 25.561 43.2202C25.393 43.2202 25.2568 43.3564 25.2568 43.5244C25.2568 43.6924 25.393 43.8286 25.561 43.8286Z" fill="#8A5B48"/>
<path d="M17.2041 42.8531C17.3721 42.8531 17.5083 42.7169 17.5083 42.5488C17.5083 42.3808 17.3721 42.2446 17.2041 42.2446C17.0361 42.2446 16.8999 42.3808 16.8999 42.5488C16.8999 42.7169 17.0361 42.8531 17.2041 42.8531Z" fill="#8A5B48"/>
<path d="M12.8911 41.6631C13.0591 41.6631 13.1953 41.5269 13.1953 41.3589C13.1953 41.1909 13.0591 41.0547 12.8911 41.0547C12.7231 41.0547 12.5869 41.1909 12.5869 41.3589C12.5869 41.5269 12.7231 41.6631 12.8911 41.6631Z" fill="#8A5B48"/>
<path d="M44.1267 51.4518C44.0283 51.8007 43.903 52.1139 43.7688 52.4002C43.402 53.1428 42.9099 53.6707 42.382 54.0554C41.0309 55.0218 37.622 56.3639 25.7667 56.3639C18.8772 56.3639 14.8062 55.9165 12.3367 55.3439C10.5562 54.9323 9.60775 54.4581 9.04406 54.0554C8.30143 53.5186 7.64828 52.7044 7.29933 51.4518C6.30617 47.9354 8.41775 47.3986 8.41775 47.3986C8.52512 48.2039 9.7867 48.8481 11.5851 49.3402C15.8799 50.5212 23.2614 50.906 25.713 50.906C28.5225 50.906 37.8099 50.4049 41.4872 48.7675C42.3641 48.3739 42.9277 47.9175 42.9993 47.3896C42.9993 47.3896 45.1199 47.9265 44.1267 51.4428V51.4518Z" fill="#EDF4FF"/>
<g style="mix-blend-mode:multiply" opacity="0.47">
<path d="M37.4074 28.3315C37.3805 28.4926 36.3784 34.3799 32.6653 36.1426C28.9074 37.9231 24.2369 38.4152 22.3132 37.7352C20.3895 37.0552 15.5669 32.9126 14.2158 35.1315C13.7953 35.8294 13.3747 37.1536 13.0079 38.7462C12.6411 40.321 12.319 42.1552 12.0774 43.9268C11.7821 46.0473 11.5942 48.0515 11.5763 49.3578C11.5763 49.3578 11.2095 49.4383 10.9142 49.8857C10.6637 50.2526 10.4669 50.861 10.5563 51.8899C10.7532 54.1715 12.3279 55.3526 12.3279 55.3526C10.5474 54.941 9.59896 54.4668 9.03528 54.0641C8.29264 53.5273 7.63949 52.7131 7.29054 51.4605C6.29738 47.9441 8.40896 47.4073 8.40896 47.4073C8.36422 45.8505 8.74896 44.0968 9.16054 42.692L10.4221 37.7441C11.4958 31.7047 13.8758 28.1615 15.5937 26.2915L37.3984 28.3405L37.4074 28.3315Z" fill="#91CFD9"/>
</g>
<g style="mix-blend-mode:multiply" opacity="0.47">
<path d="M44.1272 51.4517C44.0288 51.8007 43.9035 52.1138 43.7693 52.4001C43.2593 52.4985 43.5098 51.6843 43.1698 50.3959C42.964 49.6264 42.5435 49.2238 42.1767 49.018C41.8098 48.8122 41.4877 48.7943 41.4877 48.7943C41.4877 48.7943 41.5682 48.3738 41.5414 47.4075C41.5056 46.3875 40.4677 43.4528 40.4677 43.4528C40.6109 42.4238 38.7051 33.2349 38.7051 33.2349C39.1703 33.2975 39.6267 33.5749 40.083 34.0222C40.4498 35.1943 40.7719 36.5007 41.0224 37.9412C41.1388 38.6212 41.2372 39.3191 41.3177 40.0617C41.3177 40.0617 41.8367 41.2517 42.293 42.8533C42.6867 44.2312 43.0446 45.9133 42.9998 47.4164C42.9998 47.4164 45.1203 47.9533 44.1272 51.4696V51.4517Z" fill="#91CFD9"/>
</g>
<path d="M45.0034 47.6576C45.0749 47.9081 45.1376 48.1318 45.2091 48.3286C45.8891 50.1628 46.7391 49.4739 46.587 49.2234C46.4081 48.9102 46.3544 48.5881 46.3634 48.3197C46.3634 47.9081 46.5155 47.6039 46.5155 47.6039C46.5155 47.6039 46.7391 47.8186 46.9539 48.2839C47.1507 48.7134 47.3476 49.3486 47.3744 50.2344C47.4102 51.5855 49.987 51.3528 50.9444 48.5613C51.3113 47.4697 51.1949 46.387 51.007 45.6176C50.846 44.9644 50.6313 44.5439 50.6313 44.5439C50.3718 43.8013 49.3428 42.826 48.967 42.4771C47.8755 42.6739 46.8465 44.0697 46.8465 44.0697L44.9139 45.9128C44.896 46.5749 44.896 47.2997 44.9944 47.6665L45.0034 47.6576Z" fill="#4A296E"/>
<g style="mix-blend-mode:multiply" opacity="0.47">
<path d="M45.0032 47.6582C45.0748 47.9087 45.1374 48.1324 45.209 48.3293C45.4506 48.374 45.8264 48.3561 46.3721 48.3203C46.3721 47.9088 46.5243 47.6045 46.5243 47.6045C46.5243 47.6045 46.7479 47.8193 46.9627 48.2845C47.0343 48.2845 47.1058 48.2845 47.1774 48.2666C48.3406 48.1861 50.3985 46.2266 51.0158 45.6093C50.8548 44.9561 50.64 44.5356 50.64 44.5356C50.3806 43.793 49.3516 42.8177 48.9758 42.4688C47.8843 42.6656 46.8553 44.0614 46.8553 44.0614L44.9227 45.9045C44.9048 46.5666 44.9048 47.2914 45.0032 47.6582Z" fill="#91CFD9"/>
</g>
<path d="M51.1776 44.3654C51.1776 44.3654 51.1686 44.4549 51.1597 44.4996C51.1329 44.5891 51.106 44.6786 51.0613 44.768C51.0165 44.8575 50.9539 44.947 50.8913 45.0365C50.8286 45.1349 50.7481 45.2244 50.6587 45.3228C50.6229 45.3586 50.5781 45.4033 50.5423 45.448C50.1755 45.8059 49.6834 46.1549 49.1376 46.468C49.1376 46.468 49.1376 46.468 49.1197 46.468C49.1197 46.468 49.1018 46.477 49.0839 46.4859C48.8871 46.6112 48.6902 46.7096 48.4844 46.808C48.4844 46.808 48.4844 46.808 48.4844 46.817C47.9923 47.0586 47.5002 47.2554 47.0439 47.3986C46.4534 47.5865 45.9165 47.6849 45.5497 47.6401C44.4671 47.5149 43.635 46.5844 42.946 45.2691C42.445 44.3117 42.0244 43.1665 41.6576 41.9765C41.085 40.1601 40.6287 38.2723 40.1634 36.9123C40.1276 36.8317 40.1008 36.7333 40.065 36.6438C40.065 36.6349 40.0471 36.617 40.0471 36.608C39.3581 34.6754 38.0339 31.4812 36.996 29.1101C36.9781 29.0833 36.9692 29.0475 36.9513 29.0207C36.9334 28.9938 36.9244 28.958 36.9155 28.9401C36.9065 28.9133 36.8976 28.8954 36.8886 28.8775C36.8708 28.8417 36.8618 28.8059 36.8529 28.788C36.8529 28.7791 36.8439 28.7612 36.835 28.7612C36.835 28.7612 36.8171 28.7344 36.8171 28.7254C36.1729 27.2759 35.6629 26.2112 35.5376 26.0859C35.5376 26.0859 35.7523 26.0859 36.1192 26.1396C36.5665 26.2023 37.2465 26.3275 38.0429 26.587C38.2039 26.6317 38.365 26.6944 38.535 26.757C39.0002 26.927 39.4923 27.1507 39.9934 27.428C40.0471 27.4549 40.1008 27.4907 40.1544 27.5175C40.235 27.5623 40.3244 27.6159 40.405 27.6696C40.4855 27.7144 40.566 27.768 40.6555 27.8217C40.9418 28.0096 41.2371 28.2154 41.5144 28.448C41.7023 28.6001 41.8902 28.7612 42.0781 28.9312C42.3823 29.2175 42.6865 29.5307 42.9818 29.8707C43.0981 30.0049 43.2144 30.148 43.3308 30.3001C43.4471 30.4433 43.5544 30.6044 43.6618 30.7565C43.7155 30.837 43.7692 30.9175 43.8229 30.998C46.015 34.3801 49.236 37.968 50.5871 41.207C50.8644 41.8601 51.0613 42.5044 51.1508 43.1307C51.2134 43.5423 51.2313 43.9538 51.1955 44.3565L51.1776 44.3654Z" fill="#EA4200"/>
<g style="mix-blend-mode:multiply" opacity="0.51">
<path d="M36.7993 28.77C36.7993 28.77 36.8441 28.8684 36.8798 28.949C36.853 28.8863 36.8172 28.8327 36.7993 28.77Z" fill="#BFA682"/>
</g>
<g style="mix-blend-mode:multiply">
<path d="M49.1196 46.4769C49.1196 46.4769 49.1196 46.4769 49.1017 46.4769C49.1017 46.4769 49.0838 46.4858 49.0659 46.4948C48.8691 46.62 48.6722 46.7185 48.4664 46.8169C48.4664 46.8169 48.4664 46.8169 48.4575 46.8258C47.9654 47.0674 47.4733 47.2642 47.017 47.4074C46.4264 47.5953 45.8896 47.6937 45.5228 47.649C43.6617 47.4342 42.5075 44.8037 41.6307 41.9853C41.058 40.169 40.6017 38.2811 40.1364 36.9211C40.1007 36.8406 40.0738 36.7511 40.047 36.6527C40.047 36.6348 40.0291 36.6258 40.0291 36.6169C39.3401 34.6842 38.0159 31.49 36.978 29.1279C37.9533 31.2664 42.5075 41.3053 42.8028 42.379C43.098 43.4527 43.4112 46.4232 47.5001 46.5574C47.9922 46.5753 48.5291 46.5485 49.1375 46.4769H49.1196Z" fill="#ECE1F0"/>
</g>
<path d="M51.777 44.258C51.6428 44.6785 51.3564 45.1169 50.7838 45.609C49.3164 46.8348 46.2296 48.6601 44.5922 47.828C42.9549 46.9959 42.5791 46.119 42.8654 45.3406C42.8654 45.3227 42.8922 45.3048 42.9191 45.2869C43.0443 45.2064 43.3485 45.1259 43.7601 45.0274C44.6906 44.8038 46.1312 44.4995 46.9991 44.0611C47.5627 43.7748 48.2338 43.3274 48.8333 42.8622C49.6564 42.2269 50.3543 41.5827 50.4796 41.3232C50.4975 41.2785 50.5243 41.2427 50.5601 41.2248C50.8643 41.0101 51.6517 41.6543 51.7501 42.4774C51.8127 43.0322 51.9828 43.6138 51.777 44.249V44.258Z" fill="#EDF4FF"/>
<g style="mix-blend-mode:multiply" opacity="0.47">
<path d="M44.5922 47.8189C46.2296 48.651 49.3164 46.8257 50.7838 45.5999C51.3564 45.1168 51.6517 44.6694 51.777 44.2578C51.3654 45.5373 47.8043 47.5236 45.9701 47.3626C43.6259 47.1478 43.7601 45.0273 43.7601 45.0273C43.2501 45.1525 42.9012 45.251 42.8654 45.3404C42.5791 46.1189 42.9549 46.9957 44.5922 47.8278V47.8189Z" fill="#91CFD9"/>
</g>
<g style="mix-blend-mode:soft-light">
<path d="M50.5605 41.2247C50.5605 41.2247 50.4978 41.2784 50.48 41.3232C50.3547 41.5826 49.6568 42.2269 48.8336 42.8621C46.2031 42.0926 47.5452 37.5205 42.5526 31.1411C41.3626 29.62 40.0115 27.5084 39.9668 27.4458C40.0205 27.4726 40.0742 27.4995 40.1278 27.5353C40.2084 27.58 40.2978 27.6337 40.3784 27.6874C40.4589 27.7321 40.5394 27.7858 40.6289 27.8395C40.9152 28.0274 41.2105 28.2332 41.4879 28.4658C41.6757 28.6179 41.8636 28.779 42.0515 28.949C42.3557 29.2353 42.66 29.5484 42.9552 29.8884C43.0715 30.0226 43.1878 30.1658 43.3042 30.3179C43.4205 30.4611 43.5278 30.6221 43.6352 30.7742C43.6889 30.8547 43.7426 30.9353 43.7963 31.0158C45.9884 34.3979 49.2094 37.9858 50.5605 41.2247Z" fill="#FF875C"/>
</g>
<g style="mix-blend-mode:soft-light">
<path d="M51.7767 44.2578C51.7767 44.2041 51.6783 43.5957 51.1235 43.1483C50.8372 42.9157 50.4346 42.7278 49.862 42.6741C49.4504 42.6383 48.833 42.871 48.833 42.871C49.6562 42.2357 50.3541 41.5915 50.4793 41.332C50.4972 41.2873 50.5241 41.2515 50.5599 41.2336C50.8641 41.0189 51.6514 41.6631 51.7498 42.4862C51.8125 43.041 51.9825 43.6225 51.7767 44.2578Z" fill="white"/>
</g>
<path d="M7.03097 47.4608C6.95939 47.7113 6.89676 47.935 6.82518 48.1319C6.14518 49.9661 5.29518 49.2771 5.44729 49.0266C5.62624 48.7134 5.67992 48.3913 5.67097 48.1229C5.67097 47.7113 5.51887 47.4071 5.51887 47.4071C5.51887 47.4071 5.29518 47.6219 5.08045 48.0871C4.88361 48.5166 4.68676 49.1519 4.65992 50.0376C4.62413 51.3887 2.04729 51.1561 1.08992 48.3645C0.723079 47.2729 0.839395 46.1903 1.02729 45.4208C1.18834 44.7676 1.40308 44.3471 1.40308 44.3471C1.66255 43.6045 2.6915 42.6292 3.06729 42.2803C4.15887 42.4771 5.18782 43.8729 5.18782 43.8729L7.12045 45.7161C7.13834 46.3782 7.13834 47.1029 7.03992 47.4697L7.03097 47.4608Z" fill="#4A296E"/>
<g style="mix-blend-mode:multiply" opacity="0.47">
<path d="M7.03119 47.461C6.95961 47.7115 6.89698 47.9352 6.8254 48.132C6.58382 48.1767 6.20803 48.1589 5.66224 48.1231C5.66224 47.7115 5.51013 47.4073 5.51013 47.4073C5.51013 47.4073 5.28645 47.622 5.07171 48.0873C5.00013 48.0873 4.92855 48.0873 4.85698 48.0694C3.69382 47.9889 1.63592 46.0294 1.01855 45.412C1.17961 44.7589 1.39434 44.3383 1.39434 44.3383C1.65382 43.5957 2.68276 42.6204 3.05855 42.2715C4.15013 42.4683 5.17908 43.8641 5.17908 43.8641L7.11171 45.7073C7.12961 46.3694 7.12961 47.0941 7.03119 47.461Z" fill="#91CFD9"/>
</g>
<path d="M16.7484 26.3096C16.4979 26.5601 14.6548 30.4969 13.2321 33.8164C13.2232 33.8433 13.2142 33.8611 13.2053 33.8701C12.749 34.9438 12.3374 35.9459 12.0421 36.7333C12.0421 36.7422 12.0421 36.7601 12.0332 36.769C11.9974 36.8585 11.9616 36.9569 11.9258 37.0375C10.6732 40.4822 9.40265 47.3627 6.33371 47.6311C5.96686 47.6669 5.43897 47.5596 4.85739 47.3538C4.39213 47.2017 3.90002 46.9869 3.42581 46.7364C3.42581 46.7364 3.42581 46.7364 3.41686 46.7364C3.21108 46.629 3.00529 46.5127 2.80844 46.3964C2.80844 46.3964 2.79055 46.3964 2.7816 46.3785C2.24476 46.0564 1.7616 45.6896 1.40371 45.3227C1.40371 45.3227 1.40371 45.3227 1.38581 45.3138C1.02792 44.938 0.795286 44.5711 0.768444 44.2222C0.500023 40.2943 5.37634 35.4985 8.3916 31.0427C9.71581 29.0833 11.38 27.938 12.8742 27.2669C14.2521 26.6406 15.4869 26.4259 16.1758 26.3543C16.5427 26.3185 16.7574 26.3096 16.7574 26.3096H16.7484Z" fill="#EA4200"/>
<g style="mix-blend-mode:multiply">
<path d="M12.0691 36.6436C12.0691 36.6436 12.0691 36.6793 12.0423 36.733C12.0423 36.742 12.0423 36.7599 12.0333 36.7688C11.9975 36.8583 11.9617 36.9478 11.9259 37.0372C10.6733 40.482 9.40279 47.3625 6.33384 47.6309C5.967 47.6667 5.44805 47.5593 4.85753 47.3536C4.40121 47.2014 3.90016 46.9867 3.42595 46.7362C3.42595 46.7362 3.42595 46.7362 3.417 46.7362C3.21121 46.6288 3.00542 46.5125 2.80858 46.3962C2.79963 46.3962 2.78174 46.3783 2.78174 46.3783C3.39016 46.4678 3.927 46.5036 4.41911 46.4946C8.49911 46.4678 8.88384 43.4972 9.18805 42.4325C9.537 41.2425 12.0959 36.6436 12.0959 36.6436H12.0691Z" fill="#ECE1F0"/>
</g>
<g style="mix-blend-mode:multiply" opacity="0.47">
<path d="M13.2317 33.8164C13.357 33.5122 13.8849 32.0359 13.7596 30.2733C13.6165 28.3496 12.9007 27.3296 12.856 27.2669C14.2339 26.6406 15.4686 26.4259 16.1575 26.3543C16.5244 26.3185 16.7391 26.3096 16.7391 26.3096C16.4886 26.5601 14.6454 30.4969 13.2228 33.8164H13.2317Z" fill="#91CFD9"/>
</g>
<path d="M7.41573 47.6402C5.76046 48.4992 2.64678 46.6202 1.16152 45.3586C0.579937 44.8576 0.284674 44.4013 0.150463 43.9718C-0.0553265 43.3097 0.114674 42.7102 0.177305 42.1465C0.284674 41.2071 1.24204 40.4823 1.46573 40.9565C1.68046 41.4218 3.64888 43.086 4.98204 43.7749C5.84994 44.2223 7.30836 44.5265 8.24783 44.7681C8.75783 44.8934 9.11573 45.0007 9.15152 45.0902C9.43783 45.8865 9.06204 46.7902 7.40678 47.6492L7.41573 47.6402Z" fill="#EDF4FF"/>
<g style="mix-blend-mode:multiply" opacity="0.47">
<path d="M7.41614 47.6401C5.76088 48.4991 2.64719 46.6201 1.16193 45.3585C0.580353 44.8575 0.285089 44.4012 0.150879 43.9717C0.571405 45.2869 4.16825 47.3359 6.02035 47.1659C8.39141 46.9512 8.24825 44.759 8.24825 44.759C8.75825 44.8843 9.11614 44.9917 9.15193 45.0812C9.43825 45.8775 9.06246 46.7812 7.4072 47.6401H7.41614Z" fill="#91CFD9"/>
</g>
<path d="M7.41573 47.6402C5.76046 48.4992 2.64678 46.6202 1.16152 45.3586C0.579937 44.8576 0.284674 44.4013 0.150463 43.9718C-0.0553265 43.3097 0.114674 42.7102 0.177305 42.1465C0.284674 41.2071 1.24204 40.4823 1.46573 40.9565C1.68046 41.4218 3.64888 43.086 4.98204 43.7749C5.84994 44.2223 7.30836 44.5265 8.24783 44.7681C8.75783 44.8934 9.11573 45.0007 9.15152 45.0902C9.43783 45.8865 9.06204 46.7902 7.40678 47.6492L7.41573 47.6402Z" fill="#EDF4FF"/>
<g style="mix-blend-mode:multiply" opacity="0.47">
<path d="M7.41614 47.6401C5.76088 48.4991 2.64719 46.6201 1.16193 45.3585C0.580353 44.8575 0.285089 44.4012 0.150879 43.9717C0.571405 45.2869 4.16825 47.3359 6.02035 47.1659C8.39141 46.9512 8.24825 44.759 8.24825 44.759C8.75825 44.8843 9.11614 44.9917 9.15193 45.0812C9.43825 45.8775 9.06246 46.7812 7.4072 47.6401H7.41614Z" fill="#91CFD9"/>
</g>
<path d="M36.2801 19.0978C35.5733 24.4751 24.3712 22.7304 19.7723 22.1309C15.5044 21.5762 15.0301 19.6525 15.3433 16.2436C15.3701 15.9751 15.397 15.6978 15.4238 15.4114C15.4238 15.3578 15.4417 15.3041 15.4507 15.2504C16.068 11.4836 23.038 11.5551 23.038 11.5551C23.038 11.5551 32.7101 11.4567 34.0254 12.5214C34.777 13.1209 35.5465 13.9978 35.9938 15.3041C36.0654 15.5188 36.128 15.7425 36.1907 15.9841C36.3875 16.852 36.4412 17.8809 36.2891 19.0978H36.2801Z" fill="#FAE5C6"/>
<path d="M32.9878 15.8857C32.773 15.4741 30.9836 14.472 30.1604 15.0178C29.3372 15.5636 30.6793 15.8141 31.4936 15.9931C32.2988 16.172 33.2114 16.2973 32.9967 15.8857H32.9878Z" fill="#45321E"/>
<path d="M24.21 18.6148C24.21 18.6148 23.7 19.0353 23.6552 19.2143C23.5836 19.4738 23.2526 21.0664 25.1852 21.3527C27.1179 21.639 27.6994 20.628 27.6994 20.628C27.6994 20.628 28.111 19.1517 27.3863 18.6864C26.6615 18.2211 25.4894 17.7648 24.21 18.6148Z" fill="#FAC8C6"/>
<path d="M18.7791 15.573C19.0117 15.1703 20.8369 14.2309 21.6422 14.8124C22.4475 15.394 21.0875 15.5909 20.2733 15.734C19.4591 15.8772 18.5464 15.9666 18.7791 15.564V15.573Z" fill="#45321E"/>
<path d="M37.1124 29.2621C36.6292 30.6579 35.994 31.8121 35.2871 32.7784C35.1082 33.02 34.9292 33.2436 34.7503 33.4494C34.7503 33.4494 34.7503 33.4494 34.7503 33.4584C31.064 37.7531 25.7134 37.5205 25.7134 37.5205C25.7134 37.5205 17.3208 37.8784 14.3056 29.2621C12.4445 23.9294 13.384 19.76 14.3324 17.4068C14.3592 17.3442 14.3771 17.2815 14.404 17.2279C14.404 17.2279 14.404 17.2279 14.404 17.21C14.4398 17.1205 14.4845 17.0221 14.5203 16.9326C14.9766 15.9036 15.3971 15.3221 15.4419 15.2505C15.4419 15.2505 15.4956 15.3042 15.585 15.4294C15.6298 15.501 15.6924 15.5994 15.764 15.7247C16.0145 16.1721 16.3366 16.9505 16.5066 18.1405C16.7929 20.2073 16.6498 21.1736 18.5824 21.7463C20.515 22.3189 25.7045 21.9879 25.7045 21.9879C25.7045 21.9879 30.894 22.3279 32.8266 21.7463C34.7592 21.1647 34.6071 20.2073 34.9024 18.1405C35.0992 16.7268 35.5287 15.8947 35.7703 15.51C35.7971 15.4742 35.824 15.4384 35.8419 15.4026C35.9134 15.2952 35.9582 15.2505 35.9582 15.2505C35.9582 15.2505 35.9761 15.2684 35.994 15.3042C36.1282 15.4921 36.5666 16.1631 37.0229 17.2458V17.2636C37.9982 19.5989 39.0092 23.8221 37.1124 29.2621Z" fill="#F7FAFF"/>
<path d="M27.6995 20.628C27.8695 20.4848 28.2811 18.6327 26.7332 18.1317C24.9705 17.5591 23.7626 18.8564 23.6553 19.2143C23.6553 19.2143 24.5947 17.6485 26.8047 18.5075C28.1558 19.0354 27.6995 20.628 27.6995 20.628Z" fill="#FAA3A0"/>
<path d="M25.7039 24.5651C26.8701 24.5651 27.8154 24.0323 27.8154 23.3751C27.8154 22.7178 26.8701 22.1851 25.7039 22.1851C24.5377 22.1851 23.5923 22.7178 23.5923 23.3751C23.5923 24.0323 24.5377 24.5651 25.7039 24.5651Z" fill="#FA9491"/>
<path d="M25.7039 24.234C26.8701 24.234 27.8154 23.7012 27.8154 23.044C27.8154 22.3868 26.8701 21.854 25.7039 21.854C24.5377 21.854 23.5923 22.3868 23.5923 23.044C23.5923 23.7012 24.5377 24.234 25.7039 24.234Z" fill="#FAA3A0"/>
<path d="M19.5482 18.5521C19.5482 18.5521 19.4587 16.9684 20.5413 16.8521C21.3913 16.7626 21.8029 17.8005 21.8656 18.5879C21.9282 19.3753 19.5482 18.5521 19.5482 18.5521Z" fill="black"/>
<path d="M21.8926 19.089C21.8926 19.3038 21.8389 19.4917 21.7584 19.6438C21.7316 19.6796 21.7137 19.7243 21.6779 19.7511C21.6332 19.7959 21.5884 19.8496 21.5347 19.8854C20.971 20.2611 20.2463 20.1538 19.951 19.9659C19.6647 19.769 19.28 19.3038 19.6826 18.0511C19.7542 17.8364 19.8437 17.6664 19.9421 17.5233C20.1479 17.2548 20.4163 17.1475 20.6758 17.1475C20.801 17.1475 20.9353 17.1475 21.0516 17.1922C21.2216 17.2548 21.3737 17.3622 21.481 17.5322C21.4989 17.559 21.5705 17.7022 21.5795 17.729C21.7763 18.1138 21.9195 18.6417 21.8926 19.089Z" fill="white"/>
<path d="M20.6937 19.5629C21.2076 19.5629 21.6242 19.1382 21.6242 18.6144C21.6242 18.0906 21.2076 17.666 20.6937 17.666C20.1798 17.666 19.7632 18.0906 19.7632 18.6144C19.7632 19.1382 20.1798 19.5629 20.6937 19.5629Z" fill="#004F8C"/>
<path d="M20.4452 19.434C20.6266 19.1933 20.6426 18.8993 20.4808 18.7774C20.319 18.6554 20.0407 18.7517 19.8593 18.9924C19.6779 19.2331 19.6619 19.5271 19.8237 19.649C19.9855 19.771 20.2637 19.6747 20.4452 19.434Z" fill="white"/>
<path d="M32.1116 18.6242C32.1116 18.6242 32.2906 17.0494 31.2169 16.8705C30.3759 16.7273 29.9016 17.7473 29.8032 18.5347C29.7048 19.3221 32.1206 18.6331 32.1206 18.6331L32.1116 18.6242Z" fill="black"/>
<path d="M29.7399 19.0173C29.7399 19.2321 29.7667 19.42 29.8473 19.581C29.8741 19.6168 29.892 19.6705 29.9189 19.6973C29.9636 19.751 29.9994 19.7958 30.0531 19.8405C30.5899 20.2521 31.3236 20.1716 31.6278 20.0016C31.9231 19.8226 32.3346 19.3752 32.0036 18.1047C31.941 17.881 31.8604 17.711 31.771 17.5679C31.5831 17.2905 31.3146 17.1652 31.0552 17.1473C30.9299 17.1294 30.7957 17.1473 30.6794 17.1742C30.5004 17.2279 30.3483 17.3263 30.232 17.4873C30.2141 17.5142 30.1336 17.6484 30.1246 17.6752C29.9099 18.051 29.731 18.57 29.731 19.0173H29.7399Z" fill="white"/>
<path d="M31.8923 18.6709C31.9211 18.1479 31.5284 17.701 31.0153 17.6728C30.5021 17.6445 30.0628 18.0456 30.034 18.5686C30.0053 19.0916 30.3979 19.5385 30.9111 19.5668C31.4242 19.595 31.8635 19.1939 31.8923 18.6709Z" fill="#004F8C"/>
<path d="M30.7615 19.4145C30.9294 19.1642 30.9292 18.8698 30.761 18.7569C30.5927 18.644 30.3202 18.7555 30.1522 19.0058C29.9843 19.2561 29.9845 19.5505 30.1528 19.6634C30.321 19.7763 30.5935 19.6649 30.7615 19.4145Z" fill="white"/>
<g style="mix-blend-mode:multiply" opacity="0.47">
<path d="M18.0627 20.5923C18.0627 20.5923 17.7942 21.7018 18.0627 22.4623C18.3311 23.2228 18.4742 25.2091 21.4716 25.2807C24.469 25.3523 25.489 23.6165 25.7037 23.706C25.9184 23.7954 27.2158 25.2628 28.3342 25.4418C29.4527 25.6207 32.9958 25.6744 33.3537 21.5586C33.3537 21.5586 30.6695 22.9365 28.7906 21.9791C26.9116 21.0218 22.3395 22.7754 20.2458 22.337C18.1521 21.8986 18.0627 20.5923 18.0627 20.5923Z" fill="#CAD7D9"/>
</g>
<path d="M33.3451 20.5923C32.1014 22.6591 30.9741 20.8517 29.3814 20.1359C28.2272 19.617 25.6951 20.628 25.6951 20.628C25.6951 20.628 23.172 19.617 22.0088 20.1359C20.4162 20.8517 19.2888 22.6502 18.0451 20.5923C18.0451 20.5923 17.7767 23.867 20.6757 24.8959C23.5746 25.9249 25.6862 23.3749 25.6862 23.3749C25.6862 23.3749 27.7978 25.9249 30.6967 24.8959C33.5957 23.867 33.3272 20.5923 33.3272 20.5923H33.3451Z" fill="white"/>
<g style="mix-blend-mode:multiply" opacity="0.47">
<path d="M37.0141 17.2455C37.0141 17.2455 36.9962 17.2187 36.9962 17.2097C36.7636 16.7534 36.4773 16.3418 36.182 15.9839C36.0478 15.8139 35.9047 15.6529 35.7615 15.5097C34.5536 14.2571 33.2294 13.6755 33.2294 13.6755C31.0283 12.3602 25.1768 12.056 21.5441 12.6287C18.3857 13.1208 16.3636 15.0623 15.7731 15.7244C14.8604 16.7534 14.5115 17.836 14.2878 18.4444C13.9299 19.4555 13.1604 25.316 15.0126 29.8166C16.1041 32.465 17.4015 33.1718 17.6162 31.7223C17.6073 32.3397 18.1262 33.6192 19.0836 34.4513C20.5331 35.7129 20.6941 33.7623 20.6941 33.7623C20.6941 33.7623 20.6404 35.7844 22.3315 36.4018C24.0226 37.0192 24.3536 36.0797 24.3536 36.0797C24.3536 36.0797 24.8636 37.6366 26.7694 37.0908C28.5678 36.5808 29.3462 35.7576 29.4357 35.6592C29.3641 35.7844 28.8899 36.6702 29.892 36.3302C30.8136 36.0171 33.3815 34.8629 34.7415 33.4671C31.0552 37.7618 25.7047 37.5292 25.7047 37.5292C25.7047 37.5292 17.312 37.8871 14.2968 29.2708C12.4357 23.9381 13.3752 19.7687 14.3236 17.4155C14.3504 17.3529 14.3683 17.2902 14.3952 17.2366C14.3952 17.2366 14.3952 17.2366 14.3952 17.2187C14.431 17.1292 14.4757 17.0308 14.5115 16.9413C14.9678 15.9123 15.3883 15.3308 15.4331 15.2592C16.0504 11.4923 23.0204 11.5639 23.0204 11.5639C23.0204 11.5639 32.6926 11.4655 34.0078 12.5302C34.7594 13.1297 35.5289 14.0066 35.9762 15.3129C36.1104 15.5008 36.5489 16.1718 37.0052 17.2544L37.0141 17.2455Z" fill="#CAD7D9"/>
</g>
<path d="M38.4542 10.4904C38.1858 9.98036 37.1479 9.68509 36.3963 9.52404C35.9221 9.42562 35.5553 9.38983 35.5553 9.38983L34.8932 5.21141L34.4727 2.56299C34.4727 2.56299 34.9648 2.94773 35.6537 3.60983C36.9779 4.88036 39.0269 7.15299 39.7069 9.67615C40.1811 11.403 38.8837 11.3225 38.4542 10.4904Z" fill="#EA4200"/>
<g style="mix-blend-mode:multiply">
<path d="M38.4551 10.4906C38.1867 9.98063 37.1488 9.68537 36.3972 9.52432L34.894 5.21168C34.894 5.21168 34.9119 3.56537 36.0393 4.71958C37.1667 5.87379 38.2404 9.18431 38.4551 10.4817V10.4906Z" fill="#EBCEF5"/>
</g>
<path d="M37.6044 11.9313C37.5955 13.1481 37.5597 14.2934 37.5597 14.2934C37.5597 14.2934 37.1571 14.0339 36.4144 13.6402C33.6497 12.1907 26.1786 8.98757 17.6876 11.296C16.5065 11.6181 15.3076 12.0476 14.0907 12.6023C14.0907 12.6023 14.0371 12.2981 14.0013 11.7791C13.8581 9.75704 14.0371 4.48704 19.1907 1.72231C19.8797 1.35546 20.6134 1.04231 21.3918 0.79178C25.7492 -0.630852 31.216 -0.19243 34.4728 2.56336C36.1013 3.94125 37.3986 7.7081 37.5597 9.30073C37.5865 9.52441 37.5955 9.86441 37.6044 10.2491C37.6044 10.3476 37.6044 10.446 37.6044 10.5444C37.6044 10.9739 37.6044 11.457 37.6044 11.9223V11.9313Z" fill="#EA4200"/>
<path d="M38.1237 16.369C38.0432 16.5569 37.9268 16.709 37.8105 16.8343C37.4526 17.1922 37.0232 17.2637 37.0232 17.2637V17.2458C37.0232 17.2369 37.0053 17.219 37.0053 17.2101C36.9605 17.1116 36.8532 16.879 36.71 16.6106C36.54 16.2885 36.2626 15.859 35.8421 15.4027C34.5089 13.9174 31.6816 12.0474 25.83 12.0474C25.6063 12.0474 25.3916 12.0474 25.1768 12.0474C19.7547 12.1816 16.981 13.9801 15.6121 15.4206C15.0216 16.0469 14.6995 16.6016 14.5384 16.9237C14.4668 17.0669 14.431 17.1653 14.4221 17.2011V17.219C14.3505 17.2011 14.2879 17.1832 14.2253 17.1653C12.5163 16.5927 13.7153 14.9285 13.4468 14.3022C13.1247 13.5327 13.411 12.7006 13.8942 11.9669V11.958C13.93 11.8953 13.9747 11.8416 14.0105 11.788C14.61 10.9558 15.4332 10.2937 15.8447 10.0522C17.4732 9.10374 18.6095 8.44164 19.8621 8.00322C21.3295 7.48427 22.9668 7.26953 25.7584 7.26953C30.9389 7.26953 32.1289 8.01216 35.6721 10.0611C35.9137 10.2043 36.2984 10.4906 36.701 10.8753C37.0232 11.1795 37.3453 11.5553 37.6137 11.949C38.1147 12.6916 38.41 13.5416 38.0789 14.3201C37.8016 14.9732 38.58 15.358 38.1326 16.3869L38.1237 16.369Z" fill="#EBF8FA"/>
<g style="mix-blend-mode:multiply" opacity="0.47">
<path d="M38.1236 16.3695C38.0431 16.5574 37.9267 16.7095 37.8104 16.8348C37.6852 16.7722 37.5778 16.6738 37.4883 16.5306C37.0767 15.8774 37.891 15.5195 37.6136 15.3585C37.3362 15.1974 37.0589 15.0006 37.0589 15.0006L36.6741 14.5174C36.6741 14.5174 36.3341 14.1238 36.3878 13.8285C36.4057 13.7659 36.4146 13.7032 36.4146 13.6495C36.4325 13.4617 36.3967 13.3274 36.2446 13.1217C36.0478 12.8532 36.0836 12.6117 36.2089 12.2627C36.3341 11.9138 36.4594 11.9495 36.6025 11.1532C36.6204 11.0459 36.6473 10.9564 36.692 10.8669C36.692 10.8669 36.9067 11.019 37.1573 10.7417C37.3183 10.5717 37.4973 10.5448 37.6046 10.5538C37.6046 10.9832 37.6046 11.4664 37.6046 11.9317C38.1057 12.6743 38.401 13.5243 38.0699 14.3027C37.7925 14.9559 38.571 15.3406 38.1236 16.3695Z" fill="#91CFD9"/>
</g>
<path d="M42.6415 13.8011C42.7847 14.0874 42.3015 14.2395 42.0957 14.4184C41.89 14.5974 41.8094 15.0805 41.4784 15.3579C41.1563 15.6263 41.1384 15.2774 41.0042 15.2148C40.87 15.1521 40.7715 15.5995 40.3868 15.7695C40.0021 15.9395 40.0378 15.689 39.8321 15.4832C39.6263 15.2774 39.1252 15.7874 38.8926 15.689C38.6689 15.5905 38.6689 15.4295 38.481 15.2595C38.3021 15.0895 37.8278 15.009 37.6936 14.7495C37.5594 14.499 37.0584 14.6958 36.6647 14.1321C36.2621 13.5684 37.3805 13.479 36.96 13.0763C36.0563 12.2174 37.1031 12.459 36.8615 12.0474C36.62 11.6358 36.79 11.2332 37.0763 10.8574C37.3626 10.4816 37.971 10.7948 37.8994 10.5174C37.8457 10.3205 37.8547 10.2758 38.0694 10.1595C38.15 10.1148 38.2663 10.0611 38.4184 9.98054C38.9731 9.69423 38.8926 9.87318 38.8389 9.65844C38.7942 9.4437 39.5457 9.53318 39.5457 9.53318C39.9573 9.65844 39.4742 9.68528 40.0378 9.39897C40.6015 9.11265 40.5657 9.47054 40.5657 9.82844C40.5657 10.1863 40.9057 10.0074 41.1473 9.76581C41.2368 9.68528 41.3173 9.82844 41.4157 10.1058C41.5142 10.3832 41.4873 10.3474 42.0778 10.5353C42.6684 10.7321 42.3284 10.7053 42.5073 11.1169C42.6863 11.5284 42.3015 11.5284 42.4715 11.7432C42.6415 11.9579 42.7757 12.1369 42.6415 12.7721C42.5252 13.3448 42.391 13.2463 42.3642 13.2195C42.3731 13.2553 42.4805 13.5237 42.6147 13.7921L42.6415 13.8011Z" fill="#EBF8FA"/>
<g style="mix-blend-mode:multiply" opacity="0.47">
<path d="M41.0139 15.2057C40.8797 15.143 40.7813 15.5904 40.3966 15.7604C40.0118 15.9304 40.0476 15.6799 39.8418 15.4741C39.636 15.2683 39.135 15.7783 38.9023 15.6799C38.6787 15.5814 38.6787 15.4204 38.4908 15.2504C38.3118 15.0804 37.8376 14.9999 37.7034 14.7404C37.5692 14.4899 37.0681 14.6867 36.6745 14.123C36.2718 13.5593 37.3902 13.4699 36.9697 13.0672C36.066 12.2083 37.1129 12.4499 36.8713 12.0383C36.6297 11.6267 36.7997 11.2241 37.086 10.8483C37.3723 10.4725 37.9808 10.7857 37.9092 10.5083C37.8555 10.3114 37.8645 10.2667 38.0792 10.1504C38.0613 10.2488 38.0613 10.3562 38.115 10.4188C38.2581 10.5888 38.0792 10.6246 37.7034 10.902C37.3276 11.1793 37.1487 11.2957 37.3634 11.5551C37.5781 11.8057 37.4708 12.0741 37.3992 12.3604C37.3276 12.6467 37.1576 12.772 37.4976 13.0225C37.8376 13.273 38.0523 13.3267 37.9718 13.6041C37.8913 13.8814 37.9629 14.0246 37.9629 14.0246C37.9629 14.0246 38.5266 13.8814 38.5445 14.1857C38.5534 14.4899 38.6518 14.7135 38.6518 14.7135L39.2692 14.8657L39.6539 15.1072C39.6539 15.1072 39.9939 15.0446 40.146 15.1072C40.2981 15.1699 40.1729 15.3488 40.3518 15.3846C40.5308 15.4204 40.8976 15.0804 41.005 15.2057H41.0139Z" fill="#CAD7D9"/>
</g>
<path d="M39.8062 10.2402C39.7257 9.97175 39.833 9.27386 40.0567 9.67649C40.2804 10.0791 39.9941 9.90017 40.2804 10.0791C40.5667 10.2581 40.7993 9.68543 41.0141 9.95385C41.2288 10.2223 41.2646 10.4281 41.3093 10.4728C41.3541 10.5175 41.8014 10.4728 41.8014 10.4728C41.8014 10.4728 41.8283 10.947 41.8372 11.0365C41.8462 11.126 42.2399 10.9828 42.3472 11.1886C42.4546 11.3944 42.2399 11.6628 42.1057 11.8328C41.9714 12.0028 41.8372 11.9849 42.1951 12.2265C42.553 12.4681 42.8662 12.5217 42.5978 12.7902C42.3293 13.0586 42.0072 12.8349 42.1414 13.1481C42.2757 13.4612 42.1414 13.8996 42.0341 13.9623C41.9267 14.0249 41.363 13.9891 41.3004 14.1591C41.2378 14.3291 40.7546 14.9286 40.7546 14.9286C40.7546 14.9286 40.1283 14.4812 40.0835 14.4633C40.0388 14.4454 39.7525 14.9554 39.5735 14.5617C39.3946 14.1681 39.1978 13.8907 39.2514 13.7386C39.3051 13.5865 39.3409 13.5865 39.0099 13.4165C38.6788 13.2465 39.3588 13.1481 39.5557 13.3181C39.7525 13.4881 39.6362 13.7386 39.7167 14.007C39.7972 14.2754 39.8778 13.6312 40.1999 14.0517C40.522 14.4723 40.3162 14.9196 40.8083 14.4991C41.3004 14.0786 41.032 13.3896 41.4167 13.6402C41.8014 13.8907 41.9088 14.3739 41.9267 13.7117C41.9446 13.0496 41.032 12.7186 41.712 12.7007C42.392 12.6828 43.0093 12.8796 42.2578 12.4323C41.5062 11.9849 40.7725 12.0117 41.4525 11.7612C42.1325 11.5107 42.6604 11.3675 42.0967 11.296C41.533 11.2244 40.7099 11.3228 41.0946 10.956C41.4793 10.5891 41.1751 10.5623 41.0051 10.4907C40.8351 10.4191 40.5667 10.437 40.6562 10.2223C40.7457 10.0075 40.6025 10.0075 40.3878 10.2223C40.173 10.437 40.0835 9.81964 39.9762 9.97175C39.8688 10.1239 39.7883 10.2223 39.7883 10.2223L39.8062 10.2402Z" fill="white"/>
<path d="M39.7252 11.0278C40.3158 11.0368 40.5126 11.1889 40.4231 11.4931C40.3337 11.7973 41.0226 11.5468 40.5126 11.8599C40.0026 12.1731 40.8795 11.9315 40.9779 12.0836C41.0942 12.2626 41.0316 12.6652 40.9689 12.701C40.7363 12.8262 40.3873 12.531 40.2173 12.7457C40.0473 12.9604 39.6 13.1394 39.6895 12.7815C39.7789 12.4236 40.0116 12.531 39.2689 12.6204C38.5263 12.7099 39.0631 12.3162 38.5889 11.9762C38.4816 11.8957 39.1168 11.7883 39.0273 11.672C38.8752 11.4662 38.4905 11.2783 38.6158 11.1889C38.7231 11.1083 39.3673 11.3947 39.3316 11.2247C39.2331 10.7326 39.77 10.7594 39.7789 10.8936C39.7879 11.0278 39.7163 11.0278 39.7163 11.0278H39.7252Z" fill="white"/>
<g style="mix-blend-mode:multiply" opacity="0.47">
<path d="M25.1681 12.0562C16.0596 12.2799 14.4044 17.2189 14.4044 17.2189C12.4002 16.7178 13.7065 14.9552 13.4291 14.302C13.0802 13.4699 13.447 12.5573 14.0017 11.7789C13.8586 9.75677 14.0375 4.48677 19.1912 1.72203C19.8802 1.35519 20.6138 1.04203 21.3923 0.791504C21.3923 0.791504 17.4286 2.60782 16.9275 6.15098C16.6144 8.37887 18.3233 7.7615 19.8623 7.98519C19.6654 8.07466 16.5965 9.50624 16.4712 11.0541C16.4533 11.3047 17.0438 11.3405 17.7059 11.2957C18.5023 11.242 19.4059 11.072 19.5133 11.0541C19.3612 11.1168 16.8828 12.1099 16.7665 12.8078C16.6412 13.5326 16.9723 13.6041 18.3502 13.0762C19.737 12.5573 23.477 11.7878 25.177 12.0473L25.1681 12.0562Z" fill="#CAD7D9"/>
</g>
<path d="M27.7085 1.29278C28.1111 0.89015 30.1154 0.38015 32.209 1.7491C34.3027 3.11804 35.7164 4.9791 36.468 6.63436C37.2196 8.28962 37.2822 10.1059 36.1996 9.11278C35.1169 8.11962 34.5175 6.65225 31.3143 5.71278C28.1111 4.77331 25.579 3.40436 27.6996 1.28383L27.7085 1.29278Z" fill="#F54A08"/>
<g style="mix-blend-mode:multiply" opacity="0.47">
<path d="M13.8317 14.8571C13.9302 15.7429 13.3038 17.0582 14.5296 16.9329C14.458 17.0761 14.4223 17.1745 14.4133 17.2103V17.2282C14.3417 17.2103 14.2791 17.1924 14.2165 17.1745C12.5075 16.6019 13.7065 14.9377 13.438 14.3113C13.1159 13.5419 13.4023 12.7098 13.8854 11.9761C13.8049 12.1192 12.9817 13.6671 13.5991 13.9624C13.8854 14.1055 14.0286 13.1392 16.2207 12.2624C16.2207 12.2624 13.7423 13.9803 13.8407 14.8571H13.8317Z" fill="#CAD7D9"/>
</g>
</svg>
