<svg width="62" height="60" viewBox="0 0 62 60" fill="none" xmlns="http://www.w3.org/2000/svg">
<path d="M46.1 50.8831C45.97 51.9231 45.62 52.8531 45.11 53.6231C45.11 53.6231 45.09 53.6531 45.06 53.7031C44.02 55.2231 42.36 56.1131 40.62 55.8731C40.16 55.8131 39.73 55.6731 39.33 55.4831C39.21 55.4231 39.09 55.3631 38.98 55.2931C38.95 55.2731 38.92 55.2531 38.89 55.2331C38.54 55.0031 38.21 54.7331 37.92 54.4031C37.03 53.4131 36.47 52.0231 36.45 50.5031C36.44 50.2431 36.45 49.9931 36.48 49.7331C36.48 49.6731 36.49 49.6131 36.5 49.5531C36.5 49.5331 36.5 49.5331 36.5 49.5131C36.52 49.3731 36.54 49.2531 36.56 49.1231C36.58 49.0131 36.6 48.9131 36.63 48.8031C36.66 48.6631 36.7 48.5331 36.74 48.4131C36.77 48.3131 36.8 48.2131 36.83 48.1231C36.91 47.8831 37.01 47.6531 37.12 47.4331C37.19 47.2931 37.26 47.1631 37.35 47.0231C37.43 46.8831 37.52 46.7531 37.61 46.6331C38.65 45.1831 40.27 44.3431 41.97 44.5831C42.24 44.6231 42.5 44.6831 42.75 44.7631C42.85 44.7931 42.94 44.8331 43.03 44.8731C43.39 45.0231 43.72 45.2231 44.02 45.4631C44.49 45.8231 44.89 46.2731 45.22 46.7931C45.3 46.9231 45.38 47.0531 45.45 47.1931C45.47 47.2331 45.49 47.2731 45.51 47.3131C45.58 47.4531 45.65 47.5931 45.7 47.7431C45.76 47.8831 45.81 48.0331 45.85 48.1831C46.11 49.0131 46.2 49.9431 46.09 50.8831H46.1Z" fill="#D6224D"/>
<path d="M45.7293 50.5226C45.9579 47.5656 44.1121 45.0116 41.6067 44.8179C39.1013 44.6242 36.885 46.8643 36.6564 49.8213C36.4278 52.7782 38.2736 55.3323 40.779 55.5259C43.2844 55.7196 45.5008 53.4795 45.7293 50.5226Z" fill="#E8436A"/>
<path d="M44.7155 49.641C44.8552 47.2814 43.2747 45.2682 41.1852 45.1444C39.0957 45.0206 37.2885 46.8332 37.1487 49.1928C37.0089 51.5525 38.5895 53.5657 40.679 53.6894C42.7685 53.8132 44.5757 52.0007 44.7155 49.641Z" fill="#FF668A"/>
<path d="M39.52 54.4229C39.5 54.6829 39.46 54.9229 39.41 55.1729C39.38 55.2829 39.36 55.3829 39.33 55.4929C38.79 57.4529 37.26 58.8829 35.38 58.9529C33.91 59.0129 32.56 58.2529 31.67 57.0129C31.58 56.8829 31.49 56.7529 31.41 56.6129C31.3 56.4429 31.21 56.2629 31.13 56.0729C30.88 55.5329 30.71 54.9529 30.63 54.3229C30.61 54.1729 30.6 54.0429 30.59 53.8929C30.58 53.7529 30.58 53.6129 30.58 53.4729C30.58 53.1829 30.61 52.9029 30.65 52.6229C30.67 52.4929 30.69 52.3829 30.71 52.2629C30.74 52.1129 30.78 51.9629 30.83 51.8129C30.87 51.6729 30.92 51.5329 30.97 51.4029C31.1 51.0729 31.25 50.7729 31.43 50.4929C31.57 50.2629 31.73 50.0429 31.91 49.8429C32.65 49.0129 33.63 48.4829 34.75 48.4429C34.96 48.4329 35.16 48.4429 35.35 48.4629C35.79 48.5129 36.22 48.6329 36.62 48.8229C36.67 48.8429 36.71 48.8729 36.76 48.8929C36.77 48.8929 36.78 48.9029 36.79 48.9129C36.91 48.9729 37.03 49.0429 37.15 49.1229C38.46 49.9829 39.39 51.5629 39.53 53.4129C39.53 53.4429 39.53 53.4629 39.53 53.4829C39.55 53.8029 39.55 54.1129 39.51 54.4129L39.52 54.4229Z" fill="#D6224D"/>
<path d="M35.4721 58.6093C37.7849 58.3707 39.4315 55.9639 39.1498 53.2335C38.8682 50.5032 36.7649 48.4832 34.4521 48.7218C32.1392 48.9604 30.4926 51.3672 30.7743 54.0976C31.056 56.8279 33.1592 58.8479 35.4721 58.6093Z" fill="#E8436A"/>
<path d="M35.0733 56.9541C36.9977 56.7205 38.3441 54.7711 38.0806 52.6C37.8171 50.4289 36.0435 48.8582 34.1191 49.0918C32.1947 49.3253 30.8483 51.2747 31.1118 53.4458C31.3753 55.6169 33.1489 57.1876 35.0733 56.9541Z" fill="#FF668A"/>
<path d="M24.8299 51.7633C24.8399 51.9033 24.8399 52.0333 24.8299 52.1633C24.7899 53.0533 24.5299 53.8833 24.0399 54.5633C23.9399 54.7033 23.8299 54.8333 23.7199 54.9633C23.5899 55.1033 23.4599 55.2233 23.3099 55.3533C23.2599 55.3933 23.1999 55.4333 23.1399 55.4733C23.0499 55.5433 22.9499 55.6033 22.8499 55.6633C20.7099 56.9233 17.7499 55.9233 16.2399 53.4433C16.1499 53.2933 16.0599 53.1333 15.9899 52.9733C15.8999 52.8033 15.8299 52.6333 15.7699 52.4933C15.7299 52.4033 15.6999 52.3233 15.6699 52.2333C15.4399 51.5733 15.3399 50.9133 15.3699 50.2633C15.3699 50.1233 15.3799 49.9933 15.3999 49.8633C15.4399 49.4433 15.5399 49.0333 15.6899 48.6633C15.7999 48.3933 15.9299 48.1233 16.0899 47.8833C16.4099 47.3933 16.8399 46.9833 17.3599 46.6733C17.8799 46.3733 18.4399 46.2033 19.0199 46.1533C19.1899 46.1333 19.3699 46.1233 19.5399 46.1333C19.6099 46.1333 19.6799 46.1333 19.7599 46.1433C19.9499 46.1633 20.1499 46.1833 20.3399 46.2233C20.4299 46.2433 20.5099 46.2633 20.5999 46.2833C20.7399 46.3233 20.8799 46.3633 21.0299 46.4233C22.1799 46.8433 23.2499 47.6933 23.9799 48.8933C24.1599 49.1833 24.3099 49.4833 24.4299 49.7933C24.5199 50.0133 24.5999 50.2433 24.6599 50.4633C24.6699 50.5133 24.6899 50.5633 24.6999 50.6133C24.7199 50.6933 24.7399 50.7733 24.7499 50.8433C24.7699 50.9133 24.7799 50.9833 24.7899 51.0533C24.8299 51.2933 24.8499 51.5333 24.8599 51.7633H24.8299Z" fill="#D6224D"/>
<path d="M22.7552 55.3275C24.6859 54.032 25.0114 51.134 23.482 48.8547C21.9527 46.5754 19.1477 45.7778 17.2169 47.0733C15.2862 48.3688 14.9607 51.2667 16.4901 53.546C18.0194 55.8254 20.8244 56.6229 22.7552 55.3275Z" fill="#E8436A"/>
<path d="M21.6365 54.0477C23.2266 52.9389 23.5015 50.5857 22.2505 48.7918C20.9995 46.9979 18.6963 46.4425 17.1063 47.5514C15.5162 48.6602 15.2413 51.0133 16.4923 52.8073C17.7433 54.6012 20.0464 55.1566 21.6365 54.0477Z" fill="#FF668A"/>
<path d="M32.0499 54.6431C32.0599 54.9731 32.0499 55.3031 32.0099 55.6131C31.9599 56.0031 31.8699 56.3931 31.7499 56.7531C31.7199 56.8331 31.6899 56.9231 31.6599 57.0031C30.9899 58.7531 29.5199 59.9631 27.7499 60.0031C25.4599 60.0431 23.4899 58.0731 23.1299 55.4731C23.1099 55.3431 23.0899 55.2031 23.0899 55.0731C23.0799 54.9931 23.0799 54.9131 23.0699 54.8331C23.0399 54.0631 23.1499 53.3331 23.3799 52.6631C23.4499 52.4431 23.5399 52.2331 23.6399 52.0331C23.6899 51.9131 23.7599 51.8031 23.8199 51.6931C23.9699 51.4231 24.1499 51.1731 24.3499 50.9531C24.4499 50.8331 24.5599 50.7231 24.6699 50.6131C24.7199 50.5631 24.7799 50.5131 24.8299 50.4731C25.5299 49.8531 26.4099 49.4931 27.3599 49.4731C27.4399 49.4731 27.5199 49.4731 27.5999 49.4731C27.6899 49.4731 27.7799 49.4831 27.8699 49.4931C28.0699 49.5131 28.2699 49.5531 28.4599 49.6131C28.5299 49.6331 28.5999 49.6531 28.6699 49.6731C28.7499 49.6931 28.8199 49.7231 28.8999 49.7531C29.6999 50.0731 30.3999 50.6431 30.9399 51.3831C30.9799 51.4431 31.0199 51.5031 31.0699 51.5631C31.1199 51.6331 31.1599 51.7031 31.2099 51.7831C31.3399 52.0031 31.4499 52.2231 31.5499 52.4531C31.6099 52.5931 31.6599 52.7231 31.7099 52.8731C31.8799 53.3631 31.9899 53.8931 32.0299 54.4431C32.0399 54.5131 32.0399 54.5731 32.0499 54.6431Z" fill="#D6224D"/>
<path d="M27.8571 59.6567C30.1747 59.4706 31.8755 57.1018 31.6558 54.3657C31.4362 51.6296 29.3793 49.5625 27.0616 49.7485C24.7439 49.9346 23.0432 52.3035 23.2628 55.0395C23.4825 57.7756 25.5394 59.8427 27.8571 59.6567Z" fill="#E8436A"/>
<path d="M27.5007 57.9923C29.4299 57.8025 30.8202 55.8841 30.606 53.7076C30.3918 51.5311 28.6543 49.9205 26.7251 50.1104C24.7959 50.3002 23.4056 52.2185 23.6197 54.3951C23.8339 56.5716 25.5715 58.1821 27.5007 57.9923Z" fill="#FF668A"/>
<g style="mix-blend-mode:multiply" opacity="0.16">
<path d="M45.06 53.7028C44.02 55.2228 42.36 56.1128 40.62 55.8728C40.16 55.8128 39.73 55.6728 39.33 55.4828C38.79 57.4428 37.26 58.8728 35.38 58.9428C33.91 59.0028 32.56 58.2428 31.67 57.0028C31 58.7528 29.53 59.9628 27.76 60.0028C25.47 60.0428 23.5 58.0728 23.14 55.4728C23.05 55.5428 22.95 55.6028 22.85 55.6628C20.71 56.9228 17.75 55.9228 16.24 53.4428C16.15 53.2928 16.06 53.1328 15.99 52.9728C16.15 53.2828 16.38 53.6128 16.76 53.8728C17.1 54.1128 17.54 54.3028 18.13 54.3828C18.3 54.4128 18.48 54.4228 18.66 54.4228C20.1 54.4628 21.45 53.8728 22.35 53.3628C22.92 53.0328 23.3 52.7328 23.41 52.6528L23.44 52.6328C23.44 52.6328 23.45 52.7628 23.49 52.9728C23.52 53.1228 23.57 53.3128 23.63 53.5328C23.69 53.7228 23.77 53.9328 23.87 54.1628C23.92 54.2928 23.99 54.4228 24.05 54.5428C24.58 55.5328 25.54 56.6028 27.3 56.9228C28.24 57.0928 29 57.0528 29.61 56.8928C30.26 56.7228 30.76 56.4128 31.12 56.0528C31.17 56.0028 31.22 55.9528 31.27 55.9028C31.43 55.7328 31.55 55.5528 31.66 55.3828C31.69 55.3328 31.72 55.2728 31.74 55.2228C31.9 54.9328 31.99 54.6528 32.03 54.4328C32.04 54.3928 32.05 54.3628 32.05 54.3228C32.05 54.3228 32.82 56.7328 37 55.9628C37 55.9628 37.01 55.9628 37.02 55.9628C37.93 55.7928 38.51 55.5128 38.89 55.2128C38.94 55.1728 38.99 55.1328 39.03 55.0928C39.07 55.0628 39.1 55.0228 39.13 54.9928C39.37 54.7528 39.47 54.5328 39.52 54.4028C39.55 54.3128 39.56 54.2528 39.56 54.2528C39.56 54.2528 40.49 55.0028 41.82 55.0328C42.4 55.0528 42.9 54.9728 43.31 54.8428C44.34 54.5228 44.88 53.9128 45.06 53.6928V53.7028Z" fill="#C9003C"/>
</g>
<path d="M51.73 42.9128C51.57 44.4128 51 45.7328 50.21 46.6928C49.22 47.8828 47.85 48.5328 46.43 48.3128C46.24 48.2828 46.05 48.2428 45.87 48.1828C45.71 48.1328 45.56 48.0728 45.41 48.0028C45.35 47.9728 45.28 47.9428 45.22 47.9028C45.08 47.8328 44.95 47.7528 44.83 47.6628C44.83 47.6628 44.83 47.6628 44.82 47.6628C44.59 47.5028 44.37 47.3128 44.17 47.1128C43.95 46.8928 43.75 46.6528 43.58 46.3828C43.52 46.3028 43.46 46.2128 43.41 46.1228C43.22 45.8228 43.06 45.4928 42.92 45.1428C42.87 45.0128 42.83 44.8928 42.78 44.7628C42.69 44.4928 42.62 44.2128 42.56 43.9228C42.53 43.7728 42.5 43.6228 42.48 43.4628C42.4 42.9128 42.38 42.3528 42.42 41.7628C42.42 41.6728 42.44 41.5728 42.45 41.4828C42.51 40.9628 42.61 40.4728 42.75 40.0028C42.82 39.7628 42.91 39.5228 43.01 39.3028C43.06 39.1828 43.12 39.0628 43.17 38.9528C43.29 38.7128 43.42 38.4828 43.56 38.2728C43.61 38.2028 43.65 38.1328 43.7 38.0628C43.77 37.9628 43.84 37.8728 43.91 37.7828C44.02 37.6528 44.13 37.5228 44.25 37.4028C44.36 37.2928 44.48 37.1828 44.59 37.0728C44.64 37.0328 44.69 36.9928 44.74 36.9528C45.62 36.2528 46.67 35.9128 47.76 36.0828C49.27 36.3128 50.51 37.4628 51.21 39.0628C51.31 39.3028 51.4 39.5428 51.48 39.8028C51.52 39.9428 51.56 40.0828 51.6 40.2328C51.8 41.0728 51.86 41.9828 51.76 42.9128H51.73Z" fill="#D6224D"/>
<path d="M51.3853 42.3484C51.5325 39.143 49.6795 36.4539 47.2465 36.3422C44.8135 36.2304 42.7218 38.7383 42.5746 41.9437C42.4273 45.1491 44.2803 47.8382 46.7133 47.9499C49.1463 48.0617 51.2381 45.5538 51.3853 42.3484Z" fill="#E8436A"/>
<path d="M50.8778 43.2234C51.4067 41.3126 50.6531 39.4363 49.1947 39.0327C47.7362 38.629 46.1252 39.8509 45.5964 41.7617C45.0675 43.6726 45.8211 45.5489 47.2795 45.9525C48.738 46.3562 50.349 45.1343 50.8778 43.2234Z" fill="#FF668A"/>
<path d="M47.8 41.703C48.04 40.403 47.93 39.183 49.09 39.323C49.86 39.413 50.27 40.713 50.02 42.023C49.77 43.333 48.97 44.153 48.2 44.043C46.69 43.823 47.55 43.013 47.79 41.713L47.8 41.703Z" fill="#FF94AD"/>
<path d="M41.3237 50.4903C44.2956 50.1821 46.4204 47.1891 46.0695 43.8051C45.7186 40.4212 43.0249 37.9278 40.053 38.236C37.0811 38.5441 34.9563 41.5372 35.3072 44.9211C35.6581 48.305 38.3518 50.7984 41.3237 50.4903Z" fill="#D6224D"/>
<path d="M41.1594 50.1101C43.9449 49.8247 45.9378 47.0057 45.6108 43.8136C45.2837 40.6215 42.7605 38.2652 39.975 38.5506C37.1895 38.836 35.1965 41.6551 35.5236 44.8471C35.8506 48.0392 38.3739 50.3955 41.1594 50.1101Z" fill="#E8436A"/>
<path d="M40.6585 48.1869C42.9784 47.9123 44.6155 45.6312 44.3149 43.0918C44.0144 40.5525 41.89 38.7165 39.5701 38.9911C37.2501 39.2657 35.613 41.5468 35.9136 44.0862C36.2141 46.6255 38.3385 48.4615 40.6585 48.1869Z" fill="#FF668A"/>
<path d="M39.8399 42.423C39.5299 43.933 39.7399 45.333 38.0399 45.233C36.8999 45.163 36.2599 43.683 36.5699 42.173C36.8799 40.663 38.0199 39.673 39.1599 39.763C41.3799 39.943 40.1599 40.913 39.8499 42.433L39.8399 42.423Z" fill="#FF94AD"/>
<path d="M37.5875 47.1498C37.8449 43.7574 35.7144 40.8299 32.8287 40.6109C29.943 40.3919 27.395 42.9644 27.1375 46.3567C26.8801 49.749 29.0107 52.6766 31.8964 52.8956C34.782 53.1146 37.33 50.5421 37.5875 47.1498Z" fill="#D6224D"/>
<path d="M37.1596 47.0769C37.4069 43.8777 35.4112 41.1145 32.702 40.9051C29.9929 40.6956 27.5962 43.1194 27.3489 46.3186C27.1016 49.5178 29.0973 52.2811 31.8065 52.4905C34.5157 52.6999 36.9123 50.2762 37.1596 47.0769Z" fill="#E8436A"/>
<path d="M36.0606 46.1242C36.2118 43.5716 34.502 41.3938 32.2416 41.2599C29.9812 41.126 28.0262 43.0867 27.875 45.6393C27.7238 48.1919 29.4336 50.3698 31.694 50.5037C33.9544 50.6376 35.9094 48.6768 36.0606 46.1242Z" fill="#FF668A"/>
<path d="M31.91 44.6825C31.33 46.1025 31.27 47.5225 29.66 47.0825C28.59 46.7925 28.26 45.2125 28.84 43.7925C29.42 42.3725 30.7 41.6225 31.76 41.9325C33.84 42.5425 32.49 43.2625 31.91 44.6825Z" fill="#FF94AD"/>
<path d="M29.7201 45.6029C29.1301 45.4429 28.9501 44.5429 29.2901 43.7229C29.6301 42.9029 30.3401 42.4629 30.9301 42.6329C32.0901 42.9729 31.3301 43.3929 30.9901 44.2129L29.7201 45.6029Z" fill="#FFE3EA"/>
<path d="M17.3899 37.5127C17.3499 37.7127 17.3099 37.9127 17.2499 38.1027C17.2199 38.2027 17.1899 38.3027 17.1599 38.4027C17.1199 38.5427 17.0699 38.6727 17.0199 38.8027C17.0099 38.8327 16.9999 38.8527 16.9799 38.8827C16.6299 39.7627 16.1099 40.5227 15.4899 41.1227C15.3599 41.2427 15.2299 41.3627 15.0999 41.4627C14.8499 41.6727 14.5799 41.8427 14.2999 42.0027C13.7599 42.3027 13.1799 42.5027 12.5799 42.5727C12.3299 42.6027 12.0699 42.6127 11.8199 42.6027C11.6799 42.6027 11.5399 42.5827 11.3999 42.5627C11.3299 42.5627 11.2599 42.5427 11.1999 42.5327C11.1699 42.5327 11.1499 42.5327 11.1299 42.5227C10.7899 42.4527 10.4699 42.3527 10.1699 42.2127C7.89989 41.1827 6.56989 38.3727 7.11989 35.4227C7.22989 34.8627 7.38989 34.3327 7.60989 33.8427C7.64989 33.7627 7.67989 33.6727 7.72989 33.5827C7.90989 33.2227 8.11989 32.8827 8.35989 32.5627C8.96989 31.7327 9.74989 31.1027 10.6099 30.7327C10.7199 30.6827 10.8199 30.6427 10.9299 30.6027C11.6499 30.3427 12.4199 30.2527 13.1999 30.3727C13.2599 30.3827 13.3299 30.3927 13.3899 30.4127C13.4599 30.4327 13.5199 30.4427 13.5799 30.4627C13.6699 30.4827 13.7499 30.5027 13.8399 30.5327C13.9099 30.5527 13.9799 30.5827 14.0599 30.6027C14.1499 30.6327 14.2399 30.6727 14.3299 30.7127C14.5799 30.8227 14.8099 30.9527 15.0299 31.1027C15.2299 31.2327 15.4099 31.3727 15.5899 31.5327C15.7099 31.6427 15.8099 31.7427 15.9199 31.8627C16.2299 32.1927 16.4999 32.5727 16.7299 32.9827C16.8099 33.1227 16.8799 33.2727 16.9499 33.4227C17.0799 33.7127 17.1899 34.0127 17.2799 34.3227C17.5599 35.3027 17.6199 36.3927 17.4099 37.5027L17.3899 37.5127Z" fill="#D6224D"/>
<path d="M17.0118 37.101C17.4628 33.924 15.6476 31.039 12.9573 30.6571C10.267 30.2752 7.72052 32.541 7.26951 35.7179C6.8185 38.8948 8.63377 41.7798 11.324 42.1617C14.0143 42.5437 16.5608 40.2779 17.0118 37.101Z" fill="#E8436A"/>
<path d="M15.978 36.0814C16.2918 33.5436 14.7245 31.2611 12.4773 30.9831C10.23 30.7052 8.15384 32.5372 7.83999 35.0749C7.52615 37.6127 9.09348 39.8952 11.3407 40.1731C13.588 40.4511 15.6642 38.6191 15.978 36.0814Z" fill="#FF668A"/>
<path d="M11.9298 34.3729C11.2598 35.7529 11.1098 37.1629 9.53983 36.6229C8.48983 36.2629 8.25983 34.6729 8.92983 33.2829C9.59983 31.8929 10.9198 31.2329 11.9598 31.6129C13.9998 32.3629 12.5998 32.9829 11.9298 34.3629V34.3729Z" fill="#FF94AD"/>
<path d="M11.0499 33.8427C10.6599 34.6427 10.5699 35.4427 9.68987 35.1527C9.10987 34.9527 8.98987 34.0427 9.37987 33.2427C9.76987 32.4427 10.5099 32.0527 11.0899 32.2627C12.2199 32.6727 11.4399 33.0427 11.0499 33.8427Z" fill="#FFE3EA"/>
<path d="M21.4499 44.3629C21.4399 44.5729 21.4099 44.7829 21.3799 44.9929C21.3699 45.0629 21.3599 45.1429 21.3399 45.2129C21.3299 45.2629 21.3199 45.3229 21.3099 45.3729C21.2799 45.5229 21.2399 45.6729 21.1999 45.8329C21.1399 46.0329 21.0699 46.2429 20.9999 46.4329C20.9599 46.5429 20.9199 46.6429 20.8699 46.7429C20.7999 46.9129 20.7199 47.0729 20.6399 47.2329C20.6099 47.2729 20.5899 47.3129 20.5699 47.3629C20.4399 47.6029 20.2899 47.8329 20.1299 48.0429C20.1099 48.0729 20.0899 48.1029 20.0699 48.1229C20.0099 48.2029 19.9499 48.2729 19.8999 48.3429C18.8199 49.6429 17.2899 50.4029 15.6999 50.3029C15.6399 50.3029 15.5899 50.3029 15.5299 50.2929C15.4699 50.2929 15.4099 50.2729 15.3499 50.2629C15.2599 50.2529 15.1699 50.2329 15.0699 50.2229C12.9199 49.7829 11.3699 47.8629 11.0199 45.5029C10.8999 44.7429 10.8999 43.9329 11.0599 43.1229C11.0999 42.9229 11.1399 42.7229 11.1999 42.5329C11.2399 42.4029 11.2699 42.2729 11.3199 42.1529C11.5699 41.4029 11.9399 40.7329 12.3899 40.1529C12.4599 40.0529 12.5499 39.9629 12.6299 39.8629C12.6899 39.7929 12.7599 39.7229 12.8299 39.6529C13.1899 39.2729 13.6099 38.9429 14.0499 38.6929C14.4199 38.4729 14.8199 38.3129 15.2299 38.2029C15.7499 38.0629 16.2799 38.0129 16.8199 38.0529C16.9699 38.0629 17.1099 38.0829 17.2599 38.1129C17.2899 38.1129 17.3099 38.1229 17.3299 38.1329C17.5499 38.1729 17.7599 38.2329 17.9599 38.3029C17.9899 38.3229 18.0299 38.3329 18.0699 38.3429C18.1399 38.3729 18.2099 38.3929 18.2699 38.4229C18.4399 38.4929 18.5999 38.5829 18.7599 38.6729C18.9999 38.8129 19.2199 38.9729 19.4299 39.1529C19.4399 39.1529 19.4499 39.1729 19.4599 39.1729C19.5599 39.2629 19.6499 39.3529 19.7499 39.4429C20.1399 39.8329 20.4699 40.2929 20.7299 40.8029C20.8699 41.0729 20.9899 41.3529 21.0999 41.6429C21.1299 41.7229 21.1499 41.8029 21.1799 41.8829C21.1999 41.9529 21.2199 42.0329 21.2399 42.1129C21.2899 42.2829 21.3299 42.4729 21.3599 42.6529C21.3799 42.7729 21.3999 42.8829 21.4199 43.0029C21.4399 43.1329 21.4499 43.2629 21.4599 43.3829C21.4899 43.7129 21.4899 44.0429 21.4599 44.3729L21.4499 44.3629Z" fill="#D6224D"/>
<path d="M20.9719 44.8041C21.4229 41.6272 19.6076 38.7422 16.9174 38.3602C14.2271 37.9783 11.6806 40.2441 11.2296 43.421C10.7786 46.5979 12.5939 49.483 15.2841 49.8649C17.9744 50.2468 20.5209 47.981 20.9719 44.8041Z" fill="#E8436A"/>
<path d="M19.9247 43.7864C20.2385 41.2487 18.6712 38.9661 16.4239 38.6882C14.1767 38.4103 12.1005 40.2423 11.7866 42.78C11.4728 45.3178 13.0401 47.6003 15.2874 47.8782C17.5346 48.1561 19.6108 46.3242 19.9247 43.7864Z" fill="#FF668A"/>
<path d="M14.4599 42.0926C15.4199 42.6226 16.3899 42.8526 16.0499 43.7526C15.8199 44.3526 14.7299 44.3426 13.7699 43.8126C12.8099 43.2826 12.3299 42.4126 12.5699 41.8226C13.0499 40.6526 13.4999 41.5626 14.4599 42.0926Z" fill="#FF94AD"/>
<path d="M27.5999 17.8829C27.5799 17.9429 27.5699 18.0029 27.5499 18.0529C27.4999 18.1929 27.4499 18.3229 27.3899 18.4629C27.1999 18.8929 26.9499 19.2929 26.6499 19.6629C26.5799 19.7529 26.4999 19.8429 26.4199 19.9229C25.4999 20.9129 24.2099 21.6229 22.7899 21.9229C22.1999 22.0529 21.5799 22.1129 20.9599 22.0929C20.7699 22.0929 20.5899 22.0729 20.3999 22.0529C20.1199 22.0229 19.8399 21.9729 19.5699 21.9129C19.5099 21.8929 19.4599 21.8829 19.3999 21.8629C19.1799 21.8129 18.9699 21.7429 18.7699 21.6729C18.5999 21.6129 18.4399 21.5329 18.2799 21.4629C18.1399 21.4029 18.0199 21.3229 17.8899 21.2529C17.8199 21.2129 17.7399 21.1729 17.6699 21.1129C17.5199 21.0229 17.3799 20.9129 17.2399 20.8129C17.1599 20.7429 17.0799 20.6729 16.9999 20.6029C16.9799 20.5829 16.9599 20.5729 16.9399 20.5429C15.9099 19.5729 15.4199 18.2429 15.6399 16.8529C15.6699 16.7029 15.6999 16.5429 15.7399 16.3929C15.7699 16.2929 15.7999 16.2029 15.8299 16.1029C15.8699 15.9829 15.9099 15.8729 15.9599 15.7629C17.1299 13.1129 20.6299 11.5729 23.7899 12.3129C24.8999 12.5729 25.8199 13.0929 26.4799 13.7629C26.5499 13.8229 26.6099 13.8829 26.6599 13.9429C26.8199 14.1229 26.9599 14.3029 27.0899 14.5029C27.7299 15.4829 27.9399 16.6829 27.5799 17.8829H27.5999Z" fill="#D6224D"/>
<path d="M26.9299 18.3229C25.8299 20.8229 22.5399 22.2829 19.5799 21.5829C16.6199 20.8829 15.1199 18.2829 16.2199 15.7829C17.3199 13.2829 20.6099 11.8229 23.5699 12.5229C26.5299 13.2229 28.0299 15.8229 26.9299 18.3229Z" fill="#E8436A"/>
<path d="M25.8799 17.4131C24.9999 19.4031 22.29 20.5531 19.82 19.9631C17.35 19.3731 16.0699 17.2831 16.9499 15.2931C17.8299 13.3031 20.5399 12.1531 23.0099 12.7431C25.4799 13.3331 26.7599 15.4231 25.8799 17.4131Z" fill="#FF668A"/>
<path d="M21.0399 14.9527C19.7599 15.2327 18.7599 15.7327 18.2099 14.8927C17.8499 14.3327 18.7499 13.6127 20.0299 13.3327C21.3099 13.0527 22.4899 13.3127 22.8399 13.8727C23.5099 14.9727 22.3099 14.6727 21.0399 14.9527Z" fill="#FF94AD"/>
<path d="M47.86 19.4529C47.82 19.5929 47.77 19.7329 47.71 19.8829C47.66 20.0229 47.6 20.1529 47.53 20.2829C47.39 20.5429 47.23 20.8029 47.03 21.0429C46.99 21.0929 46.96 21.1329 46.91 21.1729C46.72 21.4029 46.5 21.6029 46.26 21.7929C46.16 21.8729 46.06 21.9529 45.95 22.0229C45.09 22.6229 44.04 23.0029 42.93 23.1229C42.9 23.1329 42.87 23.1329 42.84 23.1329C42.6 23.1629 42.35 23.1729 42.1 23.1729C42.01 23.1729 41.92 23.1729 41.83 23.1629C40.71 23.1329 39.57 22.8429 38.57 22.2829C38.43 22.2029 38.3 22.1229 38.17 22.0429C37.69 21.7229 37.27 21.3729 36.93 20.9729C36.8 20.8329 36.7 20.7029 36.6 20.5529C36.27 20.0929 36.04 19.5929 35.91 19.0729C35.86 18.8729 35.82 18.6729 35.8 18.4729C35.68 17.4129 35.98 16.3229 36.75 15.3829C36.78 15.3529 36.8 15.3229 36.83 15.2929C37.01 15.0829 37.21 14.8929 37.42 14.7129C37.52 14.6329 37.63 14.5429 37.74 14.4629C39.74 13.0129 42.82 12.8229 45.22 14.1429C46.07 14.6129 46.74 15.2129 47.2 15.8929C47.25 15.9529 47.29 16.0229 47.33 16.0829C47.47 16.3029 47.58 16.5229 47.68 16.7429C48.05 17.6129 48.12 18.5529 47.87 19.4529H47.86Z" fill="#D6224D"/>
<path d="M46.62 20.7731C44.89 22.8931 41.33 23.4231 38.67 21.9531C36.01 20.4831 35.25 17.5831 36.98 15.4731C38.71 13.3631 42.27 12.8231 44.93 14.2931C47.59 15.7631 48.35 18.6631 46.62 20.7731Z" fill="#E8436A"/>
<path d="M45.8499 19.6228C44.4699 21.3128 41.5499 21.6928 39.3299 20.4728C37.1099 19.2528 36.4299 16.8928 37.8099 15.2028C39.1899 13.5128 42.1099 13.1328 44.3299 14.3528C46.5499 15.5728 47.2299 17.9328 45.8499 19.6228Z" fill="#FF668A"/>
<path d="M41.84 15.963C40.53 15.893 39.43 16.103 39.13 15.153C38.93 14.523 40 14.063 41.3 14.133C42.6 14.203 43.68 14.763 43.86 15.403C44.22 16.643 43.14 16.033 41.83 15.963H41.84Z" fill="#FF94AD"/>
<path d="M30.0009 46.0678C30.0442 42.666 27.7335 39.8784 24.8398 39.8415C21.946 39.8046 19.5651 42.5325 19.5217 45.9343C19.4784 49.336 21.7891 52.1236 24.6828 52.1605C27.5766 52.1974 29.9575 49.4696 30.0009 46.0678Z" fill="#D6224D"/>
<path d="M29.577 46.0336C29.623 42.8251 27.4577 40.1926 24.7407 40.1537C22.0237 40.1149 19.784 42.6843 19.7381 45.8927C19.6921 49.1012 21.8574 51.7337 24.5744 51.7726C27.2914 51.8114 29.5311 49.242 29.577 46.0336Z" fill="#E8436A"/>
<path d="M24.3223 49.7937C26.5866 49.7854 28.4146 47.7058 28.4053 45.1487C28.3959 42.5917 26.5527 40.5255 24.2883 40.5338C22.024 40.5421 20.196 42.6217 20.2053 45.1788C20.2147 47.7359 22.0579 49.802 24.3223 49.7937Z" fill="#FF668A"/>
<path d="M24.1799 43.9732C23.6899 45.4332 23.7199 46.8432 22.0899 46.5132C21.0099 46.2932 20.5799 44.7332 21.0699 43.2832C21.5599 41.8332 22.7899 41.0032 23.8599 41.2432C25.9699 41.7232 24.6699 42.5232 24.1799 43.9732Z" fill="#FF94AD"/>
<path d="M23.24 43.553C22.96 44.393 22.96 45.203 22.06 45.023C21.46 44.903 21.23 44.013 21.51 43.173C21.79 42.333 22.48 41.853 23.08 41.983C24.25 42.243 23.52 42.713 23.24 43.553Z" fill="#FFE3EA"/>
<path d="M16.3799 29.2228C16.3799 29.3228 16.3799 29.4228 16.3799 29.5128C16.3799 29.6328 16.3699 29.7528 16.3599 29.8728C16.3199 30.2728 16.2599 30.6628 16.1599 31.0428C16.0899 31.3128 15.9999 31.5928 15.8999 31.8428C15.8499 31.9728 15.7899 32.1028 15.7399 32.2228C15.6999 32.3128 15.6499 32.4028 15.5999 32.4928C15.5199 32.6428 15.4399 32.7828 15.3499 32.9228C15.2799 33.0428 15.1999 33.1628 15.1099 33.2728C14.9899 33.4428 14.8599 33.6128 14.7199 33.7628C14.5399 33.9628 14.3499 34.1428 14.1499 34.3128C13.7899 34.6228 13.3899 34.8828 12.9599 35.0828C12.8399 35.1428 12.7199 35.1928 12.5899 35.2328C12.4299 35.2928 12.2599 35.3428 12.0899 35.3828C11.9599 35.4128 11.8299 35.4428 11.6899 35.4628C11.6399 35.4628 11.5799 35.4828 11.5299 35.4828C11.4999 35.4828 11.4699 35.4928 11.4399 35.4928C11.3999 35.4928 11.3699 35.5028 11.3199 35.5028C10.3099 35.5728 9.34995 35.2828 8.54995 34.7228C8.35995 34.5928 8.16995 34.4428 7.99995 34.2728C7.90995 34.1928 7.81995 34.1028 7.73995 34.0028C7.68995 33.9428 7.62995 33.8828 7.58995 33.8328C6.82995 32.9328 6.33995 31.7328 6.24995 30.3528C6.10995 28.2128 6.97995 26.1928 8.37995 24.9528C8.45995 24.8828 8.53995 24.8128 8.61995 24.7428C9.08995 24.3728 9.60995 24.0928 10.1799 23.9028C10.4199 23.8328 10.6599 23.7728 10.9099 23.7328C11.2099 23.6828 11.5199 23.6728 11.8199 23.6928C11.8999 23.6928 11.9899 23.7128 12.0699 23.7228C12.2299 23.7428 12.3799 23.7728 12.5299 23.8028C12.7599 23.8528 12.9899 23.9328 13.2099 24.0228C13.3899 24.0928 13.5799 24.1828 13.7499 24.2828C13.9099 24.3828 14.0799 24.4928 14.2299 24.6128C14.2299 24.6128 14.2799 24.6528 14.2999 24.6728C14.5699 24.8928 14.8299 25.1428 15.0499 25.4228C15.1399 25.5328 15.2199 25.6428 15.2999 25.7628C15.3799 25.8728 15.4499 25.9928 15.5199 26.1028C15.9799 26.8828 16.2699 27.8228 16.3399 28.8528C16.3499 28.9728 16.3599 29.0928 16.3499 29.2028L16.3799 29.2228Z" fill="#D6224D"/>
<path d="M15.94 28.9028C16.14 31.9528 14.18 34.7428 11.56 35.1328C8.93995 35.5228 6.65995 33.3628 6.44995 30.3028C6.24995 27.2528 8.20995 24.4628 10.83 24.0728C13.45 23.6828 15.73 25.8428 15.94 28.9028Z" fill="#E8436A"/>
<path d="M14.74 28.3326C14.9 30.7626 13.26 33.0026 11.08 33.3226C8.9 33.6426 7 31.9326 6.84 29.5026C6.68 27.0726 8.32 24.8326 10.5 24.5126C12.68 24.1926 14.58 25.9026 14.74 28.3326Z" fill="#FF668A"/>
<path opacity="0.53" d="M10.52 27.8228C10.22 29.2928 10.41 30.6228 8.81999 30.6528C7.75999 30.6728 7.15999 29.3028 7.45999 27.8328C7.75999 26.3628 8.82999 25.3228 9.88999 25.3228C11.97 25.3228 10.81 26.3528 10.52 27.8228Z" fill="#FF94AD"/>
<path opacity="0.39" d="M9.0499 27.9028C8.9299 28.4928 8.9999 29.0328 8.3799 29.0428C7.9699 29.0428 7.7399 28.5028 7.8599 27.9028C7.9799 27.3028 8.3999 26.8828 8.8099 26.8828C9.6199 26.8828 9.1699 27.3028 9.0499 27.8928V27.9028Z" fill="#FFE3EA"/>
<path d="M38.1599 19.1629C38.1199 19.2529 38.0799 19.3529 38.0299 19.4429C37.8899 19.7429 37.7099 20.0429 37.4899 20.3229C37.3799 20.4729 37.2599 20.6129 37.1299 20.7429C37.0699 20.8129 36.9899 20.8929 36.9199 20.9629C34.8099 23.0229 31.1999 23.4129 28.4199 21.7629C27.5799 21.2629 26.9099 20.6329 26.4099 19.9229C26.3199 19.7929 26.2399 19.6629 26.1599 19.5229C25.9199 19.1129 25.7299 18.6829 25.6099 18.2329C25.5899 18.1529 25.5699 18.0729 25.5499 17.9929C25.3099 16.9429 25.3999 15.8429 25.8499 14.8229C25.9599 14.5629 26.0999 14.3029 26.2699 14.0529C26.3299 13.9629 26.3999 13.8629 26.4699 13.7729C26.4699 13.7629 26.4899 13.7529 26.4899 13.7429C28.4599 11.1629 32.4999 10.5229 35.5399 12.3329C36.4899 12.8929 37.2299 13.6329 37.7299 14.4529C37.7699 14.5129 37.8099 14.5729 37.8399 14.6329C37.9099 14.7429 37.9699 14.8529 38.0099 14.9729C38.6499 16.2929 38.7199 17.7829 38.1599 19.1429V19.1629Z" fill="#D6224D"/>
<path d="M37.0499 20.0231C35.1999 22.4731 31.3799 23.0931 28.5299 21.3931C25.6799 19.6931 24.8599 16.3331 26.7099 13.8831C28.5599 11.4331 32.3799 10.8131 35.2299 12.5131C38.0799 14.2131 38.8999 17.5731 37.0499 20.0231Z" fill="#E8436A"/>
<path d="M36.23 18.6831C34.75 20.6431 31.63 21.0831 29.25 19.6631C26.87 18.2431 26.14 15.5131 27.62 13.5631C29.1 11.6131 32.22 11.1631 34.6 12.5831C36.98 13.9931 37.71 16.7331 36.23 18.6831Z" fill="#FF668A"/>
<path d="M31.9399 14.4429C30.5399 14.3629 29.3599 14.6129 29.0399 13.5029C28.8199 12.7729 29.9699 12.2429 31.3699 12.3229C32.7699 12.4029 33.9199 13.0529 34.1199 13.7929C34.4999 15.2329 33.3499 14.5229 31.9499 14.4429H31.9399Z" fill="#FF94AD"/>
<path d="M21.1002 36.1019C21.5973 32.7196 19.8297 29.6587 17.1523 29.2652C14.4748 28.8718 11.9014 31.2947 11.4044 34.677C10.9073 38.0594 12.6749 41.1202 15.3523 41.5137C18.0298 41.9072 20.6032 39.4842 21.1002 36.1019Z" fill="#D6224D"/>
<path d="M20.7094 36.0001C21.1783 32.809 19.5209 29.9227 17.0074 29.5533C14.4938 29.184 12.0761 31.4714 11.6071 34.6625C11.1382 37.8536 12.7957 40.7399 15.3092 41.1092C17.8227 41.4786 20.2405 39.1912 20.7094 36.0001Z" fill="#E8436A"/>
<path d="M19.7014 35.0662C20.0756 32.5199 18.6824 30.2064 16.5897 29.8989C14.4969 29.5913 12.497 31.4062 12.1228 33.9525C11.7487 36.4988 13.1418 38.8123 15.2346 39.1198C17.3274 39.4274 19.3273 37.6125 19.7014 35.0662Z" fill="#FF668A"/>
<path d="M15.69 35.2731C15.1 36.6931 14.99 38.1131 13.5 37.6731C12.51 37.3831 12.25 35.8031 12.85 34.3731C13.45 32.9431 14.66 32.1931 15.65 32.5131C17.58 33.1231 16.29 33.8431 15.69 35.2631V35.2731Z" fill="#FF94AD"/>
<path opacity="0.67" d="M14.14 35.1631C14.07 35.6731 14.17 36.1431 13.56 36.1131C13.15 36.0931 12.89 35.5931 12.97 35.0831C13.05 34.5731 13.43 34.2331 13.84 34.2631C14.64 34.3231 14.22 34.6531 14.15 35.1631H14.14Z" fill="#FFE3EA"/>
<path d="M55.96 29.4133C55.82 31.3233 54.92 32.9633 53.54 33.7933C53.4 33.8633 53.26 33.9433 53.11 34.0033C53.02 34.0433 52.94 34.0833 52.84 34.1033C52.77 34.1433 52.69 34.1633 52.6 34.1833C52.55 34.2033 52.5 34.2233 52.44 34.2333C52.35 34.2533 52.26 34.2733 52.17 34.2833C51.71 34.3633 51.25 34.3533 50.8 34.2833C50.5 34.2333 50.21 34.1433 49.92 34.0233C49.79 33.9733 49.66 33.9133 49.53 33.8433C49.03 33.5933 48.56 33.2433 48.13 32.8233C47.81 32.5033 47.51 32.1333 47.26 31.7333C47.18 31.6233 47.11 31.5133 47.04 31.4033C47.02 31.3533 46.99 31.3033 46.97 31.2633C46.96 31.2533 46.96 31.2433 46.96 31.2333H46.95C46.77 30.8933 46.61 30.5233 46.48 30.1433C46.46 30.0933 46.44 30.0533 46.43 30.0033C46.39 29.9033 46.36 29.8033 46.33 29.6933C46.32 29.6533 46.31 29.6133 46.3 29.5633C46.27 29.4933 46.26 29.4233 46.24 29.3533C46.16 29.0133 46.1 28.6733 46.07 28.3333C46.03 27.9233 46.02 27.5333 46.05 27.1433C46.08 26.5133 46.2 25.9133 46.39 25.3533C46.41 25.2933 46.43 25.2233 46.46 25.1633C46.54 24.9433 46.63 24.7433 46.74 24.5433C46.86 24.3033 47 24.0733 47.16 23.8633C47.23 23.7533 47.32 23.6433 47.42 23.5433C47.56 23.3633 47.73 23.1933 47.91 23.0533C47.99 22.9733 48.08 22.9033 48.17 22.8433C48.32 22.7333 48.48 22.6333 48.65 22.5433C48.91 22.4033 49.19 22.2933 49.49 22.2233H49.5C49.5 22.2233 49.51 22.2233 49.52 22.2233C49.54 22.2133 49.56 22.2033 49.58 22.2033C49.81 22.1533 50.03 22.1233 50.26 22.1133C50.55 22.0933 50.83 22.1133 51.11 22.1533C51.34 22.1833 51.56 22.2433 51.79 22.3133C52.32 22.4933 52.83 22.7633 53.31 23.1233C53.5 23.2733 53.68 23.4333 53.85 23.6033C54.24 23.9833 54.59 24.4233 54.89 24.9233C54.97 25.0533 55.05 25.1933 55.12 25.3433C55.22 25.5333 55.31 25.7233 55.39 25.9333C55.55 26.3033 55.67 26.6933 55.77 27.0933C55.96 27.8933 56.02 28.6833 55.96 29.4333V29.4133Z" fill="#D6224D"/>
<path d="M52.2564 33.8874C54.7279 33.2995 56.1264 30.2792 55.3801 27.1414C54.6337 24.0036 52.0251 21.9365 49.5535 22.5244C47.082 23.1123 45.6834 26.1326 46.4298 29.2704C47.1762 32.4081 49.7848 34.4753 52.2564 33.8874Z" fill="#E8436A"/>
<path d="M51.4526 32.0704C53.5104 31.5809 54.6958 29.1544 54.1003 26.6506C53.5047 24.1468 51.3537 22.5139 49.2959 23.0034C47.238 23.4928 46.0526 25.9194 46.6482 28.4232C47.2438 30.927 49.3948 32.5599 51.4526 32.0704Z" fill="#FF668A"/>
<path d="M49.9199 26.4132C49.8999 27.9532 50.3199 29.3132 48.7799 29.4532C47.7499 29.5532 46.9299 28.1732 46.9499 26.6332C46.9699 25.0932 47.8299 23.9432 48.8599 23.8632C50.8799 23.7232 49.9399 24.8632 49.9199 26.4032V26.4132Z" fill="#FF94AD"/>
<path d="M48.96 26.283C48.95 27.173 49.18 27.953 48.33 28.043C47.76 28.103 47.3 27.303 47.32 26.423C47.34 25.543 47.81 24.873 48.38 24.823C49.5 24.743 48.98 25.403 48.97 26.283H48.96Z" fill="#FFE3EA"/>
<path d="M50.1751 40.9589C53.0564 39.9629 54.5203 36.6334 53.4449 33.5225C52.3694 30.4115 49.1618 28.697 46.2805 29.6931C43.3992 30.6891 41.9353 34.0185 43.0107 37.1295C44.0862 40.2405 47.2938 41.955 50.1751 40.9589Z" fill="#D6224D"/>
<path d="M49.9637 40.6496C52.6634 39.7031 54.0195 36.5614 52.9926 33.6323C51.9657 30.7033 48.9447 29.0961 46.245 30.0426C43.5453 30.9891 42.1891 34.1308 43.216 37.0599C44.2429 39.9889 47.2639 41.5961 49.9637 40.6496Z" fill="#E8436A"/>
<path d="M49.8445 39.6737C52.1545 39.0767 53.5252 36.6508 52.9062 34.2553C52.2871 31.8597 49.9126 30.4017 47.6026 30.9987C45.2927 31.5956 43.9219 34.0216 44.541 36.4171C45.1601 38.8126 47.5345 40.2706 49.8445 39.6737Z" fill="#FF668A"/>
<path opacity="0.63" d="M49.9999 34.4929C50.6599 35.6129 50.9099 36.7729 52.0999 36.2429C52.8899 35.8829 52.9199 34.5429 52.2599 33.4229C51.5999 32.3029 50.4999 31.8229 49.7199 32.1929C48.1899 32.9229 49.3399 33.3729 49.9999 34.4929Z" fill="#FF94AD"/>
<path opacity="0.63" d="M50.6499 33.9929C51.0299 34.6329 51.1799 35.3029 51.8399 35.0129C52.2799 34.8129 52.2799 34.0529 51.9099 33.4029C51.5399 32.7529 50.9099 32.4729 50.4699 32.6729C49.6199 33.0729 50.2699 33.3429 50.6499 33.9829V33.9929Z" fill="#FFE3EA"/>
<path d="M41.4941 44.3872C44.1031 43.6686 45.4822 40.4141 44.5744 37.1182C43.6665 33.8223 40.8155 31.7331 38.2065 32.4517C35.5975 33.1704 34.2184 36.4248 35.1262 39.7207C36.0341 43.0166 38.885 45.1058 41.4941 44.3872Z" fill="#D6224D"/>
<path d="M41.2924 44.0293C43.7417 43.3547 45.0329 40.287 44.1764 37.1774C43.3199 34.0679 40.64 32.094 38.1907 32.7687C35.7414 33.4433 34.4502 36.511 35.3067 39.6206C36.1632 42.7301 38.8431 44.704 41.2924 44.0293Z" fill="#E8436A"/>
<path d="M41.2529 42.3472C43.2922 41.7855 44.3914 39.3187 43.7079 36.8374C43.0245 34.3562 40.8172 32.8001 38.7779 33.3618C36.7386 33.9235 35.6395 36.3903 36.3229 38.8716C37.0064 41.3528 39.2136 42.9089 41.2529 42.3472Z" fill="#FF668A"/>
<path d="M39.91 38.0231C40.57 39.1431 40.82 40.3031 42.01 39.7731C42.8 39.4131 42.83 38.0731 42.17 36.9531C41.51 35.8331 40.41 35.3531 39.63 35.7231C38.1 36.4531 39.25 36.9031 39.91 38.0231Z" fill="#FF94AD"/>
<path d="M40.55 37.5329C40.93 38.1729 41.08 38.8429 41.74 38.5529C42.18 38.3529 42.18 37.5929 41.81 36.9429C41.44 36.2929 40.81 36.0129 40.37 36.2129C39.52 36.6129 40.17 36.8829 40.55 37.5229V37.5329Z" fill="#FFE3EA"/>
<path d="M31.953 45.6474C34.839 45.3151 36.8378 42.0879 36.4176 38.4393C35.9974 34.7907 33.3172 32.1024 30.4313 32.4348C27.5453 32.7672 25.5465 35.9944 25.9667 39.643C26.3869 43.2915 29.0671 45.9798 31.953 45.6474Z" fill="#D6224D"/>
<path d="M31.7869 45.244C34.4973 44.9318 36.3733 41.89 35.9771 38.4499C35.5809 35.0099 33.0625 32.4742 30.3521 32.7863C27.6418 33.0985 25.7658 36.1403 26.162 39.5804C26.5582 43.0205 29.0766 45.5561 31.7869 45.244Z" fill="#E8436A"/>
<path d="M31.1555 43.2024C33.4105 42.9426 34.9824 40.5082 34.6664 37.7649C34.3505 35.0216 32.2663 33.0083 30.0114 33.268C27.7564 33.5277 26.1845 35.9622 26.5004 38.7054C26.8164 41.4487 28.9005 43.4621 31.1555 43.2024Z" fill="#FF668A"/>
<path opacity="0.57" d="M28.6999 39.3929C28.6399 38.1529 28.1799 37.0929 29.5699 36.8929C30.4999 36.7529 31.3199 37.8029 31.3799 39.0429C31.4399 40.2829 30.7299 41.2529 29.7999 41.3729C27.9799 41.6029 28.7599 40.6329 28.6999 39.4029V39.3929Z" fill="#FF94AD"/>
<path opacity="0.57" d="M29.5799 39.4427C29.5399 38.7327 29.2899 38.1127 30.0599 38.0027C30.5699 37.9227 31.0299 38.5327 31.0699 39.2427C31.1099 39.9527 30.7099 40.5127 30.1999 40.5827C29.1899 40.7127 29.6199 40.1527 29.5899 39.4427H29.5799Z" fill="#FFE3EA"/>
<path d="M28.4298 40.3456C28.9791 36.9657 27.091 33.8467 24.2127 33.3789C21.3343 32.9112 18.5558 35.2719 18.0066 38.6518C17.4573 42.0316 19.3454 45.1507 22.2237 45.6184C25.102 46.0861 27.8806 43.7254 28.4298 40.3456Z" fill="#D6224D"/>
<path d="M28.0017 40.2465C28.525 37.0583 26.7622 34.1148 24.0645 33.6721C21.3668 33.2294 18.7557 35.455 18.2324 38.6432C17.7092 41.8315 19.472 44.7749 22.1697 45.2177C24.8674 45.6604 27.4785 43.4347 28.0017 40.2465Z" fill="#E8436A"/>
<path d="M26.9796 39.1915C27.3507 36.6447 25.8218 34.3136 23.5647 33.9847C21.3076 33.6558 19.177 35.4538 18.8059 38.0005C18.4349 40.5473 19.9638 42.8784 22.2209 43.2073C24.478 43.5362 26.6085 41.7382 26.9796 39.1915Z" fill="#FF668A"/>
<path d="M22.85 38.4828C22.15 39.8628 21.96 41.2728 20.39 40.6928C19.35 40.3128 19.15 38.7028 19.85 37.3228C20.55 35.9428 21.9 35.3028 22.93 35.7128C24.96 36.5028 23.55 37.1028 22.84 38.4828H22.85Z" fill="#FF94AD"/>
<path d="M20.87 38.7131C20.98 39.2531 21.23 39.6931 20.69 39.8731C20.33 39.9931 19.93 39.5831 19.82 39.0431C19.71 38.5031 19.93 38.0231 20.3 37.9131C21.02 37.6931 20.77 38.1731 20.87 38.7131Z" fill="#FFE3EA"/>
<path d="M18.38 20.603C18.38 20.713 18.36 20.813 18.35 20.923C18.35 20.993 18.33 21.073 18.32 21.143C18.32 21.183 18.31 21.223 18.3 21.273C18.3 21.333 18.28 21.403 18.27 21.463C18.23 21.673 18.18 21.873 18.11 22.083C17.99 22.463 17.84 22.853 17.64 23.233C17.07 24.303 16.26 25.173 15.32 25.783C15.2 25.863 15.09 25.933 14.97 26.003C14.71 26.153 14.43 26.283 14.16 26.383C14.01 26.453 13.86 26.503 13.7 26.553C13.02 26.763 12.31 26.843 11.63 26.783C11.38 26.763 11.14 26.723 10.9 26.663C10.84 26.643 10.78 26.633 10.72 26.613C10.64 26.593 10.56 26.563 10.48 26.543C10.39 26.513 10.3 26.473 10.21 26.433C9.72001 26.223 9.30001 25.943 8.94001 25.603C8.84001 25.513 8.75001 25.423 8.67001 25.323C8.62001 25.273 8.58001 25.223 8.53001 25.163C8.48001 25.103 8.44001 25.043 8.39001 24.983C7.30001 23.473 7.18001 21.263 8.25001 19.233C9.76001 16.363 13.09 14.943 15.68 16.043C15.73 16.063 15.78 16.093 15.83 16.113C15.9 16.143 15.97 16.173 16.04 16.223C16.27 16.343 16.47 16.473 16.67 16.633C17.52 17.293 18.07 18.253 18.28 19.333C18.36 19.743 18.4 20.173 18.37 20.613L18.38 20.603Z" fill="#D6224D"/>
<path d="M17.27 23.033C15.84 25.743 12.72 27.093 10.28 26.053C7.83999 25.013 7.02999 21.973 8.44999 19.273C9.86999 16.573 13 15.213 15.44 16.253C17.88 17.293 18.69 20.333 17.27 23.033Z" fill="#E8436A"/>
<path d="M16.54 21.9228C15.4 24.0828 12.84 25.1228 10.81 24.2628C8.77998 23.4028 8.05998 20.9428 9.19998 18.7828C10.34 16.6228 12.9 15.5828 14.93 16.4428C16.96 17.3028 17.68 19.7628 16.54 21.9228Z" fill="#FF668A"/>
<path d="M13.21 19.2828C12.19 20.3828 11.65 21.6128 10.28 20.8028C9.35997 20.2628 9.57997 18.7828 10.6 17.6828C11.62 16.5828 13.09 16.2628 13.99 16.8228C15.76 17.9128 14.24 18.1828 13.21 19.2828Z" fill="#FF94AD"/>
<path d="M12.28 18.5228C11.92 18.8928 11.77 19.3528 11.13 18.9328C10.71 18.6528 10.7 18.0828 11.06 17.7128C11.42 17.3428 12.02 17.3128 12.44 17.5928C13.26 18.1428 12.63 18.1528 12.27 18.5228H12.28Z" fill="#FFE3EA"/>
<path d="M28.6799 28.5032C22.2099 27.6032 18.6399 24.4332 18.7699 21.3732C18.7699 21.3732 19.9299 20.4232 21.9499 19.5032C23.9799 18.5632 26.8799 17.6532 30.3299 17.7532C35.5099 17.9032 39.7299 19.5332 41.8999 20.8732C42.5999 21.3132 43.0899 21.7232 43.3199 22.0332C44.2699 23.3232 35.1699 29.3932 28.6999 28.4932L28.6799 28.5032Z" fill="#579920"/>
<path d="M28.6799 28.5029C22.2099 27.6029 18.6399 24.4329 18.7699 21.3729C18.7699 21.3729 19.9299 20.4229 21.9499 19.5029C21.9499 19.6929 21.8799 23.4829 26.8599 23.5029C31.9699 23.5129 38.6199 21.4729 39.8499 22.1129C40.4699 22.4329 41.2499 21.7029 41.8899 20.8829C42.5899 21.3229 43.0799 21.7329 43.3099 22.0429C44.2599 23.3329 35.1599 29.4029 28.6899 28.5029H28.6799Z" fill="#558F26"/>
<path d="M20.9016 30.1106C22.9606 26.8321 22.5256 22.8527 19.9298 21.2225C17.3341 19.5923 13.5607 20.9286 11.5017 24.2072C9.44262 27.4857 9.87769 31.4651 12.4734 33.0953C15.0691 34.7255 18.8426 33.3892 20.9016 30.1106Z" fill="#D6224D"/>
<path d="M20.5417 29.8162C22.4833 26.7247 22.0819 22.978 19.6452 21.4477C17.2084 19.9174 13.6592 21.1829 11.7176 24.2744C9.77608 27.3659 10.1775 31.1126 12.6142 32.643C15.0509 34.1733 18.6002 32.9077 20.5417 29.8162Z" fill="#E8436A"/>
<path d="M19.9259 28.4011C21.4738 25.9363 21.0832 22.9048 19.0534 21.63C17.0236 20.3552 14.1232 21.3199 12.5753 23.7847C11.0273 26.2495 11.4179 29.281 13.4478 30.5558C15.4776 31.8305 18.3779 30.8659 19.9259 28.4011Z" fill="#FF668A"/>
<path d="M16.79 24.8432C15.53 26.0532 14.77 27.4732 13.43 26.3332C12.54 25.5832 12.99 23.8232 14.26 22.6232C15.53 21.4232 17.13 21.1932 18.01 21.9732C19.73 23.4932 18.06 23.6432 16.8 24.8432H16.79Z" fill="#FF94AD"/>
<path d="M15.9899 23.8528C15.3299 24.4828 14.9299 25.2128 14.2499 24.6528C13.7999 24.2728 14.0499 23.3728 14.7099 22.7528C15.3699 22.1328 16.1899 21.9928 16.6299 22.3828C17.4899 23.1428 16.6399 23.2328 15.9799 23.8628L15.9899 23.8528Z" fill="#FFE3EA"/>
<path d="M56.5399 22.3629C56.4799 23.4029 56.0899 24.3629 55.3699 25.0929C55.2899 25.1729 55.2099 25.2529 55.1199 25.3229C55.0199 25.4129 54.9099 25.5029 54.7999 25.5729C54.5299 25.7729 54.2299 25.9229 53.9099 26.0429C53.6499 26.1429 53.3699 26.2129 53.0899 26.2629C52.9399 26.2929 52.7999 26.3029 52.6399 26.3129C52.2099 26.3529 51.7699 26.3329 51.3299 26.2629C51.0099 26.2029 50.6799 26.1229 50.3599 26.0229C50.2199 25.9729 50.0899 25.9329 49.9599 25.8729C49.6599 25.7529 49.3599 25.6129 49.0699 25.4329C48.7799 25.2729 48.4999 25.0729 48.2199 24.8629C48.0599 24.7429 47.8999 24.6029 47.7399 24.4629C47.6699 24.4029 47.5999 24.3329 47.5299 24.2629C47.5099 24.2429 47.4799 24.2229 47.4699 24.1929C47.4199 24.1429 47.3699 24.1029 47.3299 24.0429C47.2699 23.9829 47.2099 23.9229 47.1699 23.8629C46.6899 23.3329 46.3099 22.7529 46.0199 22.1529C45.9899 22.1129 45.9699 22.0729 45.9599 22.0229C45.8899 21.8829 45.8299 21.7329 45.7799 21.5929C45.6199 21.1729 45.5099 20.7529 45.4399 20.3329C45.4199 20.2529 45.4099 20.1729 45.4099 20.0829C45.3999 20.0029 45.3899 19.9329 45.3899 19.8529C45.3799 19.7129 45.3699 19.5729 45.3699 19.4329C45.3699 18.3729 45.6999 17.3729 46.3699 16.6029C46.4199 16.5329 46.4799 16.4729 46.5399 16.4129C46.6499 16.2929 46.7699 16.1929 46.8899 16.1029C46.9799 16.0229 47.0799 15.9529 47.1799 15.8829C47.7699 15.4929 48.4499 15.2729 49.1699 15.2029C50.8799 15.0329 52.8499 15.7429 54.3799 17.2529C55.8899 18.7429 56.6399 20.6529 56.5299 22.3529L56.5399 22.3629Z" fill="#D6224D"/>
<path d="M55.1225 24.6996C56.9028 22.8872 56.4808 19.5857 54.18 17.3255C51.8791 15.0652 48.5706 14.7021 46.7903 16.5144C45.0099 18.3267 45.4319 21.6282 47.7327 23.8885C50.0336 26.1488 53.3421 26.5119 55.1225 24.6996Z" fill="#E8436A"/>
<path d="M54.5241 22.9563C55.8191 21.2838 55.2192 18.6507 53.1843 17.0751C51.1493 15.4994 48.4498 15.578 47.1549 17.2505C45.8599 18.923 46.4597 21.5561 48.4947 23.1317C50.5296 24.7074 53.2291 24.6288 54.5241 22.9563Z" fill="#FF668A"/>
<path d="M51.0099 19.2228C49.5999 18.6028 48.1899 18.4428 48.6199 17.0528C48.9099 16.1228 50.4699 15.9528 51.8799 16.5728C53.2899 17.1928 54.0399 18.3828 53.7299 19.3028C53.1299 21.1028 52.4099 19.8528 50.9999 19.2328L51.0099 19.2228Z" fill="#FF94AD"/>
<path d="M51.12 18.3029C50.31 17.9429 49.49 17.8529 49.75 17.0329C49.92 16.4829 50.83 16.3729 51.64 16.7329C52.04 16.9029 52.8 17.8529 52.63 18.2129C52.46 18.5729 51.33 18.3929 51.12 18.3029Z" fill="#FFE3EA"/>
<path d="M51.0999 21.4129C53.4999 24.0129 53.7799 27.9629 51.7199 30.2529C49.6599 32.5429 46.0499 32.2929 43.6499 29.6929C41.2499 27.0929 40.9699 23.1429 43.0299 20.8529C45.0899 18.5629 48.6999 18.8129 51.0999 21.4129Z" fill="#D6224D"/>
<path d="M50.7599 21.7331C53.0199 24.1831 53.2899 27.9031 51.3599 30.0431C49.4299 32.1831 46.0299 31.9431 43.7699 29.4931C41.5099 27.0431 41.2399 23.3231 43.1699 21.1831C45.0999 19.0431 48.4999 19.2831 50.7599 21.7331Z" fill="#E8436A"/>
<path d="M49.9399 21.7127C51.7499 23.6627 51.8999 26.6927 50.2999 28.4827C48.6999 30.2727 45.9199 30.1427 44.1199 28.1827C42.3199 26.2227 42.1599 23.2027 43.7599 21.4127C45.3599 19.6227 48.1399 19.7527 49.9399 21.7127Z" fill="#FF668A"/>
<path d="M47.6598 25.6532C46.1798 24.9532 44.7298 24.7932 45.0998 23.1032C45.3498 21.9732 46.9498 21.7132 48.4298 22.4132C49.9098 23.1132 50.7398 24.5332 50.4698 25.6532C49.9398 27.8532 49.1398 26.3632 47.6598 25.6532Z" fill="#FF94AD"/>
<path d="M48.0999 23.1231C47.2399 22.7131 46.4099 22.6231 46.6099 21.6731C46.7499 21.0431 47.6599 20.9131 48.5199 21.3231C49.3799 21.7331 49.8599 22.5231 49.7099 23.1531C49.4199 24.3731 48.9499 23.5331 48.0999 23.1331V23.1231Z" fill="#FFE3EA"/>
<path d="M44.206 35.8571C46.916 34.5599 47.8002 30.7663 46.1811 27.3838C44.5619 24.0014 41.0525 22.311 38.3426 23.6082C35.6326 24.9054 34.7484 28.699 36.3675 32.0815C37.9867 35.4639 41.4961 37.1544 44.206 35.8571Z" fill="#D6224D"/>
<path d="M43.9069 35.5181C46.4481 34.3033 47.2724 30.7333 45.7479 27.5443C44.2234 24.3554 40.9275 22.755 38.3863 23.9698C35.8451 25.1846 35.0209 28.7546 36.5453 31.9436C38.0698 35.1325 41.3657 36.7329 43.9069 35.5181Z" fill="#E8436A"/>
<path d="M43.5021 33.4896C45.6125 32.4621 46.3238 29.5762 45.0908 27.0438C43.8578 24.5113 41.1475 23.2913 39.0371 24.3188C36.9267 25.3463 36.2155 28.2322 37.4484 30.7646C38.6814 33.2971 41.3917 34.5171 43.5021 33.4896Z" fill="#FF668A"/>
<path d="M40.9799 27.5326C42.0599 28.8226 42.6299 30.2726 44.0599 29.3026C45.0099 28.6626 44.7699 26.9126 43.6899 25.6126C42.6099 24.3126 41.0799 23.9526 40.1399 24.6126C38.3099 25.9226 39.8999 26.2226 40.9799 27.5226V27.5326Z" fill="#FF94AD"/>
<path d="M41.72 26.7427C42.34 27.4927 42.68 28.3227 43.48 27.7827C44.01 27.4227 43.85 26.4327 43.23 25.6827C42.61 24.9327 41.74 24.7127 41.22 25.0827C40.2 25.8027 41.1 25.9927 41.73 26.7427H41.72Z" fill="#FFE3EA"/>
<path d="M33.6513 38.2461C36.8951 38.0926 39.3778 34.8645 39.1966 31.0359C39.0153 27.2073 36.2388 24.2281 32.995 24.3817C29.7512 24.5352 27.2685 27.7633 27.4497 31.5919C27.6309 35.4205 30.4075 38.3997 33.6513 38.2461Z" fill="#D6224D"/>
<path d="M33.5084 37.8143C36.5537 37.6713 38.8849 34.6304 38.7154 31.0225C38.5459 27.4145 35.9398 24.6057 32.8945 24.7487C29.8493 24.8918 27.518 27.9326 27.6876 31.5406C27.8571 35.1486 30.4632 37.9574 33.5084 37.8143Z" fill="#E8436A"/>
<path d="M33.0067 35.6363C35.5439 35.5051 37.4799 33.0648 37.3311 30.1857C37.1822 27.3066 35.0048 25.079 32.4676 25.2102C29.9305 25.3414 27.9945 27.7817 28.1433 30.6608C28.2922 33.5399 30.4696 35.7675 33.0067 35.6363Z" fill="#FF668A"/>
<path opacity="0.53" d="M33.83 30.7725C34.01 29.0525 34.68 27.6125 32.94 27.1825C31.78 26.9025 30.66 28.2925 30.47 30.0125C30.29 31.7325 31.11 33.1625 32.27 33.4225C34.55 33.9225 33.64 32.4925 33.83 30.7725Z" fill="#FF94AD"/>
<path opacity="0.39" d="M32.72 30.7526C32.83 29.7626 33.2 28.9226 32.23 28.6826C31.59 28.5226 30.96 29.3226 30.85 30.3226C30.74 31.3226 31.2 32.1426 31.84 32.2826C33.11 32.5626 32.6 31.7426 32.71 30.7526H32.72Z" fill="#FFE3EA"/>
<path d="M29.4169 32.5862C30.4453 28.8423 28.6844 25.0945 25.4837 24.2153C22.283 23.3361 18.8547 25.6584 17.8262 29.4023C16.7978 33.1461 18.5588 36.8939 21.7594 37.7731C24.9601 38.6523 28.3885 36.33 29.4169 32.5862Z" fill="#D6224D"/>
<path d="M28.9497 32.4138C29.9239 28.8842 28.2795 25.351 25.2769 24.5222C22.2743 23.6935 19.0505 25.883 18.0762 29.4127C17.102 32.9424 18.7464 36.4755 21.749 37.3043C24.7516 38.133 27.9754 35.9435 28.9497 32.4138Z" fill="#E8436A"/>
<path d="M27.9031 31.1107C28.6356 28.2824 27.1924 25.4621 24.6795 24.8113C22.1667 24.1605 19.5358 25.9257 18.8033 28.754C18.0709 31.5822 19.5141 34.4026 22.0269 35.0534C24.5398 35.7042 27.1706 33.939 27.9031 31.1107Z" fill="#FF668A"/>
<path opacity="0.53" d="M23.8799 29.633C23.8599 31.133 24.3899 32.443 22.4999 32.633C21.2399 32.763 20.2199 31.443 20.2399 29.943C20.2599 28.443 21.2999 27.293 22.5599 27.183C25.0299 26.983 23.8899 28.123 23.8799 29.623V29.633Z" fill="#FF94AD"/>
<path opacity="0.39" d="M22.6999 29.5433C22.6999 30.4133 22.9799 31.1633 21.9299 31.2733C21.2299 31.3433 20.6699 30.5833 20.6799 29.7233C20.6899 28.8633 21.2699 28.1933 21.9699 28.1333C23.3399 28.0133 22.7099 28.6733 22.6999 29.5433Z" fill="#FFE3EA"/>
<g style="mix-blend-mode:multiply" opacity="0.16">
<path d="M50.2 46.6929C49.21 47.8829 47.84 48.5329 46.42 48.3129C46.23 48.2829 46.04 48.2429 45.86 48.1829C46.12 49.0129 46.21 49.9429 46.1 50.8829C45.72 54.0029 43.27 56.2429 40.62 55.8729C40.16 55.8129 39.73 55.6729 39.33 55.4829C38.79 57.4429 37.26 58.8729 35.38 58.9429C33.91 59.0029 32.56 58.2429 31.67 57.0029C31 58.7529 29.53 59.9629 27.76 60.0029C25.47 60.0429 23.5 58.0729 23.14 55.4729C23.05 55.5429 22.95 55.6029 22.85 55.6629C20.71 56.9229 17.75 55.9229 16.24 53.4429C15.61 52.4229 15.33 51.3129 15.37 50.2629C15.28 50.2529 15.19 50.2329 15.09 50.2229C12.94 49.7829 11.39 47.8629 11.04 45.5029C11.13 45.6729 11.66 48.5929 14.73 49.2129C16.97 49.6629 19.66 47.3529 19.66 47.3529C19.66 47.3529 19.66 47.3529 19.66 47.3629C19.68 47.3929 21.01 50.3029 24.14 50.8729C27.27 51.4429 29.2 49.3429 29.19 49.3229C29.29 49.3529 30.63 51.0929 33.97 50.5429C35.37 50.3129 36.78 49.0429 37.41 48.3529C37.61 48.3829 42.12 48.8929 44.48 47.8229C44.6 47.7729 44.71 47.7129 44.81 47.6529C44.82 47.6529 44.83 47.6429 44.83 47.6329C44.93 47.5729 45.02 47.5129 45.11 47.4429C45.13 47.4429 45.15 47.4229 45.16 47.4029C45.26 47.3329 45.35 47.2429 45.43 47.1529C45.43 47.1529 45.44 47.1529 45.46 47.1729C45.48 47.1829 45.51 47.2029 45.55 47.2229C45.92 47.4129 47.12 47.9129 48.83 47.3429H48.84C49.27 47.1929 49.72 46.9829 50.2 46.6929C50.2 46.6929 50.2 46.6929 50.21 46.6929H50.2Z" fill="#A30041"/>
</g>
<g style="mix-blend-mode:multiply" opacity="0.42">
<path d="M56.98 22.783L56.84 23.663L56.44 26.293C56.08 26.153 55.73 26.023 55.39 25.913C55.55 26.283 55.67 26.673 55.77 27.073C55.96 27.873 56.02 28.663 55.96 29.413C55.96 29.413 55.81 29.343 55.55 29.213C55.22 29.033 54.72 28.763 54.23 28.403C53.79 28.083 53.35 27.693 53.05 27.273C52.94 27.123 52.8 27.003 52.65 26.943H52.64C52.24 26.733 51.7 26.753 51.2 26.863H51.19C50.73 26.963 50.28 27.143 49.95 27.283H49.94C49.65 27.413 49.47 27.523 49.47 27.523C49.66 27.743 49.81 28.073 49.92 28.483C49.95 28.573 49.98 28.663 50 28.773C50.06 29.103 50.11 29.483 50.14 29.873C50.15 30.023 50.16 30.173 50.16 30.333C50.17 30.543 50.17 30.763 50.17 30.983V31.163C50.17 31.243 50.17 31.313 50.16 31.393C48.14 32.813 47.48 36.983 45.23 42.133C45.21 42.053 45.18 41.983 45.14 41.913C45.13 41.883 45.11 41.833 45.1 41.793C45 41.543 44.84 41.173 44.68 40.743C44.58 40.493 44.48 40.263 44.38 40.003C44.38 40.003 44.36 39.943 44.35 39.923C44.2 39.553 44.05 39.183 43.91 38.823C43.91 38.823 43.9067 38.8163 43.9 38.803C43.84 38.653 43.78 38.503 43.72 38.363C43.69 38.283 43.66 38.203 43.64 38.123C43.27 37.213 42.97 36.463 42.88 36.253C42.86 36.183 42.82 36.123 42.75 36.043C42.7 35.993 42.66 35.943 42.6 35.883C41.91 35.193 40.2 34.003 39.45 33.263C39.27 33.083 39.14 32.923 39.1 32.813H39.09V32.793C39.09 32.793 39.05 32.693 39.02 32.653C39.01 32.653 39.01 32.653 39.01 32.653C38.96 32.543 38.88 32.453 38.78 32.343H38.77C38.77 32.343 38.71 32.283 38.68 32.253H38.67C38.52 32.103 38.33 31.963 38.1 31.793C38.1 31.793 38.0933 31.793 38.08 31.793C37.86 31.643 37.59 31.483 37.29 31.313H37.28C36.92 31.113 36.52 30.893 36.07 30.663H36.06C35.97 30.623 35.9 30.573 35.81 30.533C35.76 30.503 35.69 30.473 35.63 30.443C34.39 29.823 34.65 28.743 34.49 27.883C34.39 27.333 34.13 26.883 33.21 26.683C31.34 26.283 30.16 27.883 29.74 28.593C29.73 28.593 29.73 28.603 29.73 28.603C29.62 28.793 29.56 28.913 29.56 28.913C29.56 28.913 29.56 28.903 29.56 28.883C29.52 28.843 29.41 28.733 29.03 28.643C28.88 28.613 28.69 28.583 28.45 28.553C28.37 28.553 28.28 28.533 28.18 28.533C28.13 28.523 28.08 28.523 28.02 28.523C28.02 28.523 27.98 28.523 27.96 28.513H27.95C27.3 28.493 26.41 28.503 25.17 28.603C24.77 28.633 24.39 28.713 24.02 28.833C23.57 28.963 23.15 29.153 22.75 29.383C22.1 29.753 21.51 30.223 20.99 30.723C20.82 30.883 20.67 31.043 20.51 31.203C20.44 31.283 20.36 31.373 20.28 31.463C20.19 31.563 20.1 31.663 20.02 31.763C19.83 31.993 19.65 32.223 19.48 32.443C19.4 32.553 19.33 32.653 19.26 32.763C18.85 33.343 18.55 33.843 18.36 34.163C18.26 34.353 18.2 34.473 18.17 34.523C17.88 34.443 17.58 34.383 17.3 34.343C17.14 34.323 17 34.313 16.86 34.303C16.66 34.283 16.46 34.283 16.27 34.303C16.15 34.313 16.04 34.323 15.93 34.333C15.31 34.423 14.75 34.623 14.26 34.883C13.81 35.113 13.42 35.403 13.08 35.703C12.9 35.873 12.74 36.023 12.59 36.183C12.51 36.283 12.44 36.373 12.37 36.443C12.08 36.783 11.88 37.093 11.75 37.293C11.66 37.433 11.61 37.523 11.59 37.563C11.58 37.573 11.58 37.583 11.58 37.583C10.64 38.073 10.23 38.923 10.08 39.763C9.94001 40.543 10.03 41.313 10.11 41.773C10.16 42.063 10.21 42.233 10.21 42.233C7.94001 41.203 6.61001 38.383 7.16001 35.443C7.26001 34.883 7.42001 34.353 7.64001 33.863C6.89001 32.963 6.40001 31.763 6.31001 30.383C6.17001 28.243 7.04001 26.223 8.44001 24.983C7.98001 24.333 7.69001 23.563 7.60001 22.723C7.51001 22.013 7.58001 21.263 7.79001 20.503C7.91001 20.083 8.08001 19.653 8.30001 19.233C9.81001 16.363 13.14 14.933 15.74 16.043C15.79 16.063 15.83 16.093 15.89 16.123C15.92 16.003 15.97 15.893 16.02 15.773C16.17 15.433 16.36 15.113 16.58 14.813C16.6 14.783 16.62 14.753 16.64 14.733C16.67 14.693 16.7 14.653 16.72 14.623C17.84 13.233 19.66 12.333 21.58 12.173C21.66 12.173 21.74 12.153 21.82 12.173C22.5 12.133 23.18 12.173 23.85 12.343C23.94 12.363 24.04 12.393 24.13 12.413C25.12 12.693 25.94 13.173 26.54 13.783C27.11 13.033 27.85 12.453 28.69 12.053C29.44 11.683 30.26 11.453 31.11 11.383C31.17 11.373 31.24 11.363 31.3 11.373H31.31C31.37 11.353 31.43 11.353 31.49 11.373C31.56 11.353 31.64 11.353 31.71 11.363C32.57 11.343 33.44 11.483 34.28 11.773C34.38 11.803 34.49 11.843 34.59 11.883C34.93 12.023 35.27 12.193 35.59 12.383C36.53 12.943 37.27 13.683 37.77 14.503C38.66 13.853 39.78 13.463 40.96 13.353C41.12 13.323 41.28 13.313 41.44 13.313C41.73 13.293 42.02 13.303 42.31 13.313C42.53 13.333 42.75 13.353 42.96 13.393C43.76 13.523 44.54 13.773 45.25 14.173C45.5 14.313 45.74 14.463 45.96 14.633C46.48 15.003 46.91 15.443 47.23 15.923C47.82 15.533 48.5 15.313 49.23 15.243L49.4 15.413L49.97 15.963L50.24 16.233L50.57 16.563H50.58L52.46 18.393L52.58 18.523L52.89 18.813V18.833L53.02 18.953L53.66 19.573L55.22 21.093L56.23 22.073H56.24L56.56 22.393L56.93 22.753L57 22.813L56.98 22.783Z" fill="#8C297A"/>
</g>
<path d="M41.32 15.5729C40.55 16.3029 38.8 18.1029 36 19.7929C33.95 21.0229 31.6 21.5029 31.09 22.5029C31.03 22.6329 31 22.7529 30.99 22.8829C30.93 22.7429 29.88 20.4829 27.35 18.3829C24.74 16.2229 18.32 11.4729 23.2 9.35286C24.03 8.99286 24.83 8.76286 25.59 8.64286C29.3 8.03286 32 9.82286 32 9.82286C32.24 9.74286 38.03 7.90286 40.64 9.90286C40.73 9.97286 40.81 10.0329 40.88 10.1029C41.01 10.2129 41.12 10.3229 41.23 10.4329C43.09 12.4229 42.01 14.9129 41.31 15.5729H41.32Z" fill="#67AD2F"/>
<path d="M30.96 22.4132C30.98 22.7132 31 22.8832 31 22.8832C30.94 22.7432 29.89 20.4832 27.36 18.3832C24.75 16.2232 18.33 11.4732 23.21 9.35319C23.86 9.07319 24.5 8.86319 25.11 8.73319C29.07 7.87319 32 9.82319 32 9.82319C30.12 11.8232 30.76 20.3332 30.96 22.4232V22.4132Z" fill="#61A32C"/>
<path opacity="0.48" d="M31 22.8829C30.94 22.7429 29.89 20.4829 27.36 18.3829C24.75 16.2229 18.33 11.4729 23.21 9.35291C23.86 9.07291 24.5 8.86291 25.11 8.73291C25.11 8.73291 23.3 10.0429 23.66 11.8129C23.8 12.5229 25.04 12.8229 25.8 13.7829C26.51 14.6729 26.75 16.0129 27.5 17.0629C27.96 17.7029 28.72 18.2029 29.17 18.8229C30.13 20.1329 30.69 21.4829 30.95 22.4229C30.97 22.7229 30.99 22.8929 30.99 22.8929L31 22.8829Z" fill="#4A7D22"/>
<path d="M41.32 15.5729C40.55 16.3029 38.8 18.1029 36 19.7929C33.95 21.0229 31.6 21.5029 31.09 22.5029C31.19 21.8029 31.79 20.1129 34.42 19.0429C36.82 18.0629 37.92 16.3929 38.9 15.1129C39.57 14.2329 40.57 14.0029 40.92 13.3129C41.63 11.9129 41.24 10.4429 41.24 10.4429C43.1 12.4329 42.02 14.9229 41.32 15.5829V15.5729Z" fill="#61A32C"/>
<path opacity="0.39" d="M40.8799 10.0931C40.7599 10.0731 38.9799 9.68307 37.9999 10.4231C36.9899 11.1931 37.3999 10.7031 34.6799 11.5931C33.7599 11.8931 32.7799 11.9831 32.2399 12.9731C31.1799 14.9231 30.6799 17.4331 30.6799 17.4331C30.6799 17.4331 30.1399 15.0431 30.1399 14.7531C30.1399 14.4631 29.2799 13.7031 29.0599 13.2831C28.8299 12.8631 28.6399 12.2131 28.5399 11.5031C28.4399 10.7931 28.7399 10.7731 28.4599 10.0831C28.1999 9.41307 25.7099 8.66307 25.5699 8.61307C29.2799 8.00307 31.9799 9.79307 31.9799 9.79307C32.2199 9.71307 38.0099 7.87307 40.6199 9.87307C40.7099 9.94307 40.7899 10.0031 40.8599 10.0731L40.8799 10.0931Z" fill="#78C936"/>
<path d="M30.8799 23.213C30.8799 23.213 30.6899 20.343 30.5699 17.163C30.5099 15.653 30.4499 14.143 30.7099 12.763C30.9199 11.593 31.2299 10.513 31.9999 9.81299C31.9999 9.81299 31.3299 10.553 30.9699 12.553C30.7599 13.723 30.7199 15.363 30.7999 17.443C30.9199 20.793 31.1299 23.323 31.1299 23.323L30.8899 23.203L30.8799 23.213Z" fill="#4A7D22"/>
<path d="M61.56 29.5629C61.56 29.5629 61.56 29.5729 61.55 29.5629C61.49 29.5029 61.18 29.2029 59.91 28.2229C58.82 27.3729 57.61 26.7629 56.44 26.2929C56.08 26.1529 55.73 26.0229 55.39 25.9129C55.21 25.8429 55.05 25.7929 54.89 25.7429C54.8 25.7229 54.71 25.6929 54.63 25.6629C54.4 25.6029 54.18 25.5429 53.97 25.4829C53.86 25.4529 53.75 25.4229 53.64 25.3929C53.41 25.3329 53.2 25.2829 52.99 25.2229C52.83 25.1929 52.67 25.1529 52.52 25.1129C52.09 25.0229 51.72 24.9329 51.43 24.8529C51.41 24.8429 51.39 24.8429 51.37 24.8429C51.06 24.7629 50.76 24.7429 50.45 24.7629C50.35 24.7629 50.24 24.7729 50.13 24.7929C49.82 24.8329 49.51 24.8929 49.16 24.9729C49.12 24.9829 49.08 24.9929 49.04 24.9929C48.89 25.0329 48.73 25.0629 48.57 25.1029C48.29 25.1529 48 25.2129 47.67 25.2529C47.53 25.2729 47.38 25.2929 47.22 25.3029H47.21C47.11 25.3129 47 25.3229 46.88 25.3229C46.86 25.3329 46.84 25.3329 46.81 25.3329C46.75 25.3329 46.69 25.3329 46.62 25.3329C46.55 25.3329 46.47 25.3429 46.39 25.3329C46.1 25.3529 45.79 25.3429 45.46 25.3329C45.2 25.3129 44.96 25.2929 44.73 25.2729C44.48 25.2529 44.24 25.2229 44.02 25.1929C43.89 25.1729 43.76 25.1529 43.64 25.1329C43.44 25.1029 43.25 25.0629 43.07 25.0229C42.93 24.9929 42.8 24.9629 42.67 24.9329C42.38 24.8529 42.12 24.7729 41.88 24.6829C41.8 24.6629 41.72 24.6329 41.65 24.6029C41.55 24.5629 41.46 24.5229 41.37 24.4829C41.24 24.4229 41.11 24.3729 41 24.3029C40.75 24.1829 40.54 24.0629 40.35 23.9629C40.09 23.8129 39.86 23.6829 39.62 23.6029C39.48 23.5529 39.34 23.5229 39.18 23.5029C39.03 23.4829 38.9 23.4629 38.78 23.4229C38.06 23.2229 37.84 22.6929 37.13 22.1829C36.97 22.0729 36.8 21.9629 36.58 21.8429C36.57 21.8529 36.57 21.8429 36.57 21.8429C36.52 21.8229 36.46 21.7929 36.4 21.7629C36.29 21.7129 36.17 21.6729 36.06 21.6529C35.78 21.5729 35.49 21.5529 35.2 21.5829C34.94 21.5829 34.68 21.6329 34.43 21.6929C34.36 21.7029 34.29 21.7229 34.22 21.7429C33.98 21.8129 33.75 21.8929 33.55 21.9729C33.52 21.9929 33.49 22.0029 33.46 22.0129C33.28 22.1129 33.09 22.2029 32.9 22.2929C32.86 22.3129 32.83 22.3329 32.79 22.3429C32.81 22.3429 32.83 22.3229 32.85 22.3029C32.92 22.2629 32.98 22.2229 33.04 22.1829C33.09 22.1529 33.14 22.1229 33.19 22.0929C33.36 21.9929 33.56 21.8729 33.79 21.7329C33.94 21.6429 34.1 21.5429 34.27 21.4529C34.35 21.3929 34.44 21.3429 34.53 21.2829C34.62 21.2329 34.71 21.1829 34.8 21.1229H34.82C34.82 21.1229 34.85 21.1029 34.87 21.0929C34.88 21.0929 34.89 21.0929 34.9 21.0729C35.15 20.9229 35.42 20.7629 35.7 20.6129C35.7 20.6129 35.71 20.6129 35.71 20.6029C35.71 20.6029 35.72 20.5929 35.73 20.5929C35.94 20.4629 36.15 20.3429 36.37 20.2129C36.44 20.1729 36.52 20.1229 36.6 20.0829C36.61 20.0729 36.63 20.0629 36.64 20.0529C36.7 20.0229 36.76 19.9829 36.83 19.9429C36.97 19.8629 37.12 19.7829 37.27 19.6929H37.28L37.29 19.6829C37.37 19.6329 37.45 19.5929 37.52 19.5529L37.88 19.3429C37.88 19.3429 37.92 19.3229 37.93 19.3229C37.93 19.3229 37.97 19.2929 37.99 19.2829C38.04 19.2529 38.09 19.2229 38.14 19.2029C38.14 19.1929 38.15 19.1929 38.15 19.1929C38.16 19.1829 38.18 19.1829 38.19 19.1729C38.74 18.8629 39.29 18.5629 39.81 18.2929C39.87 18.2529 39.92 18.2329 39.97 18.2029C40.2 18.0929 40.42 17.9729 40.63 17.8729C40.72 17.8229 40.82 17.7729 40.91 17.7329C40.95 17.7129 40.99 17.6929 41.03 17.6829C41.44 17.4829 41.8 17.3329 42.07 17.2329C42.12 17.2129 42.16 17.1929 42.2 17.1829C43.44 16.8029 44.83 16.4929 46.31 16.4829H46.48C46.59 16.4829 46.71 16.4829 46.82 16.4929C46.92 16.4929 47.02 16.5029 47.12 16.5129C47.27 16.5129 47.42 16.5329 47.57 16.5529C47.67 16.5629 47.76 16.5729 47.85 16.5829C48.16 16.6229 48.46 16.6829 48.77 16.7629C49.09 16.8329 49.42 16.9329 49.75 17.0429C50.6 17.3429 51.47 17.7829 52.33 18.3929C52.41 18.4529 52.5 18.5129 52.58 18.5729C52.68 18.6429 52.77 18.7129 52.86 18.7829C52.86 18.7929 52.86 18.8029 52.86 18.8029C53.14 19.0029 53.4 19.2229 53.66 19.4429C53.7 19.4729 53.74 19.5029 53.78 19.5429C53.87 19.6129 53.95 19.6829 54.03 19.7629C54.03 19.7629 54.03 19.7729 54.05 19.7729C54.09 19.8129 54.14 19.8529 54.18 19.8929C54.31 20.0029 54.44 20.1229 54.56 20.2329L54.67 20.3429C54.81 20.4629 54.94 20.5829 55.07 20.7129C55.1 20.7429 55.14 20.7729 55.17 20.8129C55.18 20.8229 55.19 20.8329 55.2 20.8429C55.4 21.0329 55.58 21.2129 55.75 21.3929C55.8 21.4429 55.84 21.4829 55.89 21.5329C56 21.6429 56.1 21.7629 56.21 21.8729C56.32 21.9929 56.43 22.1129 56.53 22.2329C56.62 22.3329 56.7 22.4229 56.78 22.5129C56.8 22.5329 56.82 22.5529 56.83 22.5729C56.91 22.6729 56.99 22.7629 57.07 22.8529C57.13 22.9129 57.18 22.9729 57.23 23.0329C57.26 23.0629 57.29 23.0929 57.31 23.1229C57.35 23.1629 57.38 23.2129 57.42 23.2629C57.49 23.3429 57.55 23.4329 57.62 23.5129C57.72 23.6429 57.82 23.7629 57.92 23.8929H57.93C57.93 23.8929 57.97 23.9429 57.98 23.9629C58.09 24.1129 58.2 24.2529 58.31 24.4029C58.38 24.4829 58.44 24.5629 58.5 24.6429C58.56 24.7329 58.62 24.8029 58.67 24.8829C58.79 25.0429 58.9 25.1929 59 25.3429C59.43 25.9429 59.79 26.5029 60.11 27.0029C60.19 27.1229 60.27 27.2429 60.34 27.3629C60.34 27.3729 60.35 27.3729 60.35 27.3829C60.44 27.5429 60.53 27.6929 60.61 27.8329C61.24 28.8929 61.55 29.5629 61.55 29.5629H61.56Z" fill="#61A32C"/>
<path d="M60.3601 27.383C58.9601 25.063 56.3301 21.373 52.5901 18.573C48.8801 15.803 45.1101 16.283 42.2101 17.183C40.8501 17.603 37.2401 19.673 34.8801 21.083C34.8401 21.103 34.8101 21.123 34.8101 21.123C34.8101 21.123 36.3701 20.213 37.6101 18.403C39.1401 16.163 41.8101 11.183 44.3901 12.373C45.3801 12.833 46.5501 12.013 47.8801 11.823C49.8501 11.543 53.1301 13.883 53.8501 14.453C55.3901 15.643 55.9401 17.313 57.0001 19.263C58.3201 21.693 59.9901 24.533 60.3601 27.403V27.383Z" fill="#6CB531"/>
<path d="M58.5099 24.6529C58.2899 24.4129 57.3799 23.5429 55.6199 23.4529C53.5699 23.3529 46.3499 21.6229 44.1099 20.3029C41.9299 19.0129 35.9999 20.5329 35.6899 20.6129C37.9999 19.2529 40.9999 17.5629 42.1999 17.1929C45.0999 16.2929 48.8599 15.8129 52.5799 18.5829C55.0599 20.4329 57.0499 22.6829 58.5099 24.6529Z" fill="#67AD2F"/>
<path d="M61.56 29.5729C60.63 27.7829 59.53 26.0729 58.31 24.4529C57.73 23.6929 57.13 22.9529 56.5 22.2329C55.72 21.3529 54.91 20.5229 54.07 19.7829C54.07 19.7829 54.06 19.7829 54.06 19.7729C51.53 17.5829 48.67 16.2329 44.9 16.6829C41.72 17.1929 38.99 18.8829 36.23 20.4929C35.35 21.0129 34.47 21.5229 33.57 21.9829C33.31 22.1129 33.04 22.2429 32.78 22.3729H32.76H32.75C32.75 22.3729 32.77 22.3729 32.77 22.3629C32.79 22.3629 32.8 22.3529 32.81 22.3429C32.83 22.3229 32.85 22.3129 32.87 22.3029C32.94 22.2629 32.99 22.2229 33.06 22.1829C33.98 21.5929 34.89 20.9929 35.82 20.3929C38.62 18.5929 41.54 16.9029 44.87 16.4329C49.91 15.9429 53.43 18.6229 56.55 22.1829C56.82 22.4929 57.08 22.8029 57.33 23.1229C57.37 23.1629 57.41 23.2129 57.44 23.2629C57.79 23.6829 58.13 24.1229 58.45 24.5729C59.62 26.1529 60.67 27.8229 61.57 29.5729H61.56Z" fill="#4A7D22"/>
<path opacity="0.39" d="M39.99 16.0529C39.6 17.0729 43.19 15.0929 44.92 14.6929C46.65 14.2929 52.08 15.1329 53.35 17.1829C54.62 19.2329 57.14 21.7329 57.14 21.7329C57.14 21.7329 55.57 17.3429 54.84 16.7129C54.11 16.0829 50.54 11.9429 47.81 12.7829C46.52 13.1829 44.35 12.8229 42.84 13.3729C41.16 13.9829 40.19 15.5129 39.99 16.0429V16.0529Z" fill="#78C936"/>
<path opacity="0.8" d="M40.88 18.1828C40.88 18.1828 44.73 16.0428 48.36 16.9828C50.47 17.5228 54.36 19.5428 54.13 20.3528C54 20.8028 52.34 20.0828 50.68 19.6528C49.36 19.3128 47.63 19.5528 47.13 19.1528C45.84 18.1328 40.88 18.1928 40.88 18.1928V18.1828Z" fill="#72BF33"/>
<path d="M45.95 41.593C45.95 41.593 45.93 41.353 45.53 39.903C44.7 36.923 42.36 34.493 41.49 33.383C40.62 32.273 39.24 32.303 37.2 30.533C34.26 27.983 34.7 26.883 33.87 26.123C33.04 25.343 33.56 24.833 32.87 23.593C32.46 22.853 31.51 22.433 30.83 22.223C30.58 22.163 30.34 22.103 30.1 22.043C30.1 22.043 30.09 22.043 30.08 22.043C30.08 22.043 30.09 22.043 30.1 22.043C30.13 22.043 30.16 22.053 30.2 22.063C30.27 22.063 30.33 22.083 30.39 22.093C30.75 22.153 31.38 22.253 32.13 22.373C32.13 22.373 32.14 22.373 32.16 22.373C32.16 22.373 32.18 22.373 32.19 22.373C32.44 22.413 32.7 22.463 32.98 22.513C33.12 22.543 33.27 22.563 33.41 22.593C33.56 22.623 33.71 22.643 33.85 22.673C34 22.703 34.15 22.723 34.3 22.753C34.6 22.803 34.91 22.863 35.21 22.923C35.74 23.023 36.26 23.123 36.75 23.233C36.77 23.233 36.8 23.243 36.83 23.253C37.08 23.313 37.32 23.363 37.55 23.413C38.17 23.553 38.69 23.693 39.04 23.823C39.08 23.843 39.12 23.853 39.15 23.863C41.58 24.843 44.37 26.523 45.48 30.173C45.55 30.413 45.62 30.643 45.68 30.873C45.73 31.043 45.77 31.223 45.8 31.393C45.82 31.483 45.84 31.573 45.86 31.653C45.86 31.653 45.86 31.653 45.86 31.673C45.9 31.853 45.94 32.043 45.98 32.223C46.07 32.673 46.14 33.123 46.19 33.563C46.22 33.773 46.24 33.983 46.26 34.183C46.26 34.183 46.26 34.203 46.26 34.213C46.28 34.433 46.3 34.643 46.32 34.853C46.34 35.053 46.35 35.243 46.36 35.433C46.36 35.483 46.36 35.533 46.36 35.573C46.39 36.063 46.4 36.533 46.39 36.983C46.39 37.243 46.39 37.493 46.37 37.743C46.37 37.843 46.37 37.943 46.36 38.043C46.33 38.633 46.29 39.163 46.24 39.633C46.22 39.773 46.21 39.913 46.19 40.043C46.07 41.023 45.94 41.593 45.94 41.593H45.95Z" fill="#61A32C"/>
<path d="M46.24 39.6232C46.47 37.4732 46.58 33.8432 45.47 30.1632C44.37 26.5232 41.57 24.8332 39.14 23.8532C38.01 23.3932 34.49 22.7632 32.17 22.3832C32.13 22.3832 32.1 22.3732 32.1 22.3732C32.1 22.3732 33.62 22.6332 35.39 22.1832C37.58 21.6232 41.93 19.9932 43.08 22.0732C43.52 22.8732 44.73 22.9832 45.73 23.5732C47.21 24.4332 48.23 27.5932 48.44 28.3132C48.87 29.8532 48.39 31.1632 48.12 32.9032C47.77 35.0732 47.45 37.6932 46.24 39.6332V39.6232Z" fill="#6CB531"/>
<path d="M46.4 36.9932C46.37 36.7332 46.2 35.7132 45.05 34.7432C43.71 33.6032 39.69 28.7532 38.85 26.7732C38.03 24.8432 33.23 22.6432 32.98 22.5332C35.25 22.9232 38.14 23.4632 39.15 23.8732C41.58 24.8532 44.38 26.5332 45.48 30.1832C46.22 32.6132 46.42 35.0332 46.4 37.0032V36.9932Z" fill="#67AD2F"/>
<path d="M45.94 41.593C46.22 40.003 46.36 38.393 46.36 36.763C46.36 35.993 46.33 35.223 46.27 34.453C46.19 33.503 46.07 32.573 45.87 31.683C45.87 31.683 45.87 31.673 45.87 31.663C45.28 28.993 44.02 26.673 41.24 24.963C38.82 23.603 36.1 23.193 33.41 22.733C32.55 22.583 31.69 22.433 30.84 22.243C30.59 22.183 30.35 22.123 30.11 22.063C30.11 22.063 30.1 22.063 30.09 22.063C30.09 22.063 30.1 22.063 30.11 22.063C30.12 22.063 30.13 22.063 30.15 22.063C30.17 22.063 30.19 22.063 30.21 22.063C30.28 22.063 30.34 22.083 30.4 22.093C31.32 22.213 32.25 22.323 33.19 22.453C36.02 22.823 38.86 23.333 41.36 24.803C45.03 27.153 46.05 30.643 46.34 34.453C46.36 34.783 46.38 35.113 46.39 35.443C46.39 35.493 46.39 35.543 46.39 35.583C46.41 36.033 46.41 36.473 46.41 36.913C46.4 38.493 46.25 40.063 45.97 41.603L45.94 41.593Z" fill="#4A7D22"/>
<path d="M0.03 25.833C0.03 25.833 0.25 25.633 1.8 24.693C4.99 22.743 9.06 22.523 10.74 22.263C12.42 21.993 13.62 23.163 16.88 23.283C21.59 23.453 22.1 22.123 23.46 22.123C24.83 22.123 24.8 21.233 26.42 20.713C27.39 20.403 28.58 20.813 29.36 21.183C29.62 21.333 29.89 21.483 30.15 21.633C30.15 21.633 30.17 21.633 30.17 21.643H30.18C30.18 21.643 30.16 21.643 30.16 21.633C30.14 21.613 30.1 21.593 30.06 21.563C29.99 21.513 29.94 21.473 29.87 21.433C29.5 21.183 28.87 20.763 28.1 20.253C28.1 20.253 28.1 20.253 28.06 20.233C28.06 20.233 28.04 20.223 28.03 20.213C27.77 20.033 27.5 19.863 27.22 19.673H27.21C27.06 19.573 26.92 19.473 26.77 19.373C26.62 19.273 26.46 19.173 26.31 19.073C26.16 18.973 26 18.873 25.85 18.773C25.54 18.573 25.22 18.373 24.91 18.173C24.36 17.823 23.81 17.483 23.3 17.183C23.27 17.173 23.24 17.153 23.22 17.133C22.96 16.983 22.7 16.823 22.45 16.683C21.78 16.293 21.2 15.993 20.79 15.813C20.74 15.793 20.7 15.773 20.65 15.753C17.7 14.613 13.84 13.803 9.86 16.103C9.6 16.253 9.35 16.403 9.1 16.563C8.92 16.683 8.74 16.793 8.56 16.923C8.46 16.983 8.37 17.043 8.29 17.103C8.29 17.103 8.29 17.103 8.27 17.113C8.08 17.243 7.9 17.373 7.71 17.503C7.26 17.833 6.83 18.163 6.42 18.503C6.22 18.663 6.03 18.823 5.84 18.993C5.84 18.993 5.82 19.013 5.81 19.023C5.61 19.193 5.42 19.373 5.24 19.543C5.06 19.703 4.89 19.873 4.72 20.023C4.67 20.063 4.64 20.103 4.6 20.143C4.17 20.553 3.77 20.963 3.41 21.363C3.19 21.593 2.99 21.823 2.8 22.043C2.72 22.133 2.64 22.223 2.56 22.323C2.1 22.863 1.7 23.373 1.36 23.823C1.26 23.963 1.16 24.103 1.06 24.223C0.36 25.183 0 25.803 0 25.803L0.03 25.833Z" fill="#61A32C"/>
<path d="M1.39001 23.8429C2.95001 21.7529 5.86001 18.4429 9.87002 16.1129C13.85 13.8029 17.72 14.6229 20.67 15.7529C22.05 16.2829 25.68 18.6229 28.05 20.2029C28.09 20.2329 28.12 20.2429 28.12 20.2429C28.12 20.2429 26.56 19.2129 25.37 17.3629C23.9 15.0629 21.39 10.0329 18.67 10.9229C17.62 11.2629 16.46 10.3729 15.09 10.0629C13.07 9.60286 9.56001 11.5529 8.78001 12.0229C7.13001 13.0229 6.47001 14.5829 5.29001 16.3429C3.80001 18.5529 1.93001 21.1229 1.40001 23.8429H1.39001Z" fill="#6CB531"/>
<path d="M3.43005 21.3928C3.67005 21.1828 4.66005 20.4328 6.48005 20.5128C8.60005 20.6028 16.1501 19.6328 18.5301 18.5728C20.8501 17.5428 26.9001 19.5628 27.2201 19.6628C24.9001 18.1328 21.8901 16.2328 20.6701 15.7628C17.7201 14.6228 13.8501 13.8028 9.87005 16.1228C7.22005 17.6628 5.04005 19.6328 3.43005 21.3928Z" fill="#67AD2F"/>
<path d="M0.0300098 25.833C1.09001 24.193 2.30001 22.653 3.65001 21.223C4.28001 20.543 4.94001 19.893 5.64001 19.263C6.49001 18.483 7.37001 17.763 8.28001 17.143C8.28001 17.143 8.29001 17.143 8.30001 17.133C11.02 15.263 14.05 14.243 17.92 15.023C21.18 15.813 23.92 17.693 26.68 19.513C27.56 20.103 28.45 20.673 29.35 21.203C29.61 21.353 29.88 21.503 30.14 21.653C30.14 21.653 30.16 21.653 30.16 21.663H30.17C30.17 21.663 30.15 21.663 30.15 21.653C30.13 21.653 30.12 21.643 30.11 21.633C30.09 21.613 30.07 21.603 30.05 21.593C29.98 21.543 29.93 21.503 29.86 21.463C28.94 20.813 28.03 20.143 27.1 19.483C24.29 17.483 21.36 15.583 17.94 14.823C12.76 13.873 8.98001 16.113 5.58001 19.243C5.29001 19.513 5.00001 19.793 4.72001 20.073C4.67001 20.113 4.64001 20.153 4.60001 20.193C4.21001 20.563 3.84001 20.963 3.49001 21.363C2.20001 22.773 1.03001 24.283 0.0100098 25.873L0.0300098 25.833Z" fill="#4A7D22"/>
<path d="M8.71997 38.7134C8.71997 38.7134 8.80997 38.4434 9.64997 36.9734C11.37 33.9234 14.45 31.9734 15.66 31.0234C16.86 30.0634 18.26 30.5534 20.84 29.2334C24.57 27.3434 24.45 25.9734 25.51 25.3934C26.58 24.8034 26.21 24.0534 27.26 22.9034C27.9 22.2134 28.98 22.0534 29.73 22.0334C30 22.0534 30.26 22.0634 30.53 22.0734C30.5 22.0734 30.47 22.0734 30.42 22.0634C30.35 22.0534 30.29 22.0434 30.22 22.0334C29.83 21.9834 29.17 21.8934 28.38 21.7834C28.38 21.7834 28.37 21.7834 28.34 21.7834C28.34 21.7834 28.32 21.7834 28.31 21.7834C28.04 21.7434 27.76 21.7134 27.47 21.6734C27.32 21.6534 27.16 21.6334 27.01 21.6134C26.85 21.5934 26.69 21.5734 26.54 21.5534C26.38 21.5334 26.22 21.5134 26.06 21.4934C25.74 21.4534 25.41 21.4234 25.09 21.3834C24.53 21.3234 23.97 21.2734 23.44 21.2334C23.41 21.2334 23.38 21.2334 23.36 21.2334C23.09 21.2134 22.83 21.1934 22.59 21.1834C21.92 21.1434 21.35 21.1334 20.96 21.1634C20.91 21.1634 20.87 21.1634 20.83 21.1734C18.09 21.4734 14.75 22.4534 12.56 26.1534C12.42 26.3934 12.29 26.6334 12.15 26.8734C12.05 27.0534 11.96 27.2334 11.87 27.4134C11.82 27.5034 11.77 27.5934 11.73 27.6934C11.73 27.6934 11.73 27.7034 11.73 27.7134C11.63 27.9034 11.54 28.0934 11.45 28.2934C11.23 28.7734 11.02 29.2434 10.84 29.7134C10.75 29.9334 10.66 30.1634 10.58 30.3834C10.58 30.3934 10.58 30.4034 10.58 30.4134C10.5 30.6434 10.41 30.8834 10.34 31.1034C10.26 31.3234 10.2 31.5334 10.13 31.7434C10.11 31.7934 10.1 31.8434 10.08 31.9034C9.90997 32.4434 9.75997 32.9634 9.62997 33.4734C9.54997 33.7634 9.48997 34.0434 9.41997 34.3234C9.38997 34.4334 9.36997 34.5534 9.33997 34.6634C9.19997 35.3334 9.07997 35.9434 8.99997 36.4734C8.97997 36.6334 8.94997 36.7934 8.92997 36.9434C8.76997 38.0734 8.72997 38.7534 8.72997 38.7534L8.71997 38.7134Z" fill="#61A32C"/>
<path d="M8.99994 36.4233C9.39994 33.9533 10.3599 29.8633 12.5599 26.1233C14.7499 22.4233 18.0799 21.4433 20.8299 21.1433C22.1099 21.0033 25.8599 21.4333 28.3299 21.7633C28.3699 21.7633 28.3999 21.7633 28.3999 21.7633C28.3999 21.7633 26.7799 21.5633 25.1199 20.4833C23.0699 19.1533 19.1399 15.9233 17.3699 17.8633C16.6899 18.6133 15.4299 18.3433 14.2399 18.6733C12.4899 19.1533 10.5199 22.3433 10.0999 23.0833C9.20994 24.6533 9.30994 26.2733 9.07994 28.3033C8.78994 30.8333 8.34994 33.8533 8.99994 36.4133V36.4233Z" fill="#6CB531"/>
<path d="M9.62 33.4332C9.73 33.1432 10.2 32.0732 11.65 31.3632C13.34 30.5232 18.84 26.4232 20.28 24.4832C21.68 22.5932 27.19 21.7032 27.48 21.6632C25.07 21.3632 21.98 21.0332 20.84 21.1532C18.09 21.4532 14.76 22.4332 12.57 26.1332C11.11 28.6032 10.19 31.2332 9.63 33.4432L9.62 33.4332Z" fill="#67AD2F"/>
<path d="M8.71997 38.7134C8.89997 36.8534 9.23997 35.0034 9.71997 33.1934C9.71997 33.1934 9.71997 33.19 9.71997 33.1834C9.94997 32.3234 10.2 31.4834 10.5 30.6434C10.86 29.6134 11.26 28.6134 11.72 27.6834C11.72 27.6834 11.72 27.6734 11.72 27.6634C13.1 24.8834 15.06 22.7034 18.39 21.6934C21.24 20.9534 24.11 21.3834 26.98 21.7434C27.9 21.8634 28.81 21.9634 29.73 22.0334C30 22.0534 30.26 22.0634 30.53 22.0734C30.53 22.0734 30.54 22.0734 30.55 22.0734H30.53C30.52 22.0734 30.5 22.0734 30.49 22.0734C30.47 22.0734 30.45 22.0734 30.43 22.0634C30.36 22.0534 30.3 22.0434 30.23 22.0334C29.26 21.8734 28.28 21.6934 27.3 21.5334C24.33 21.0334 21.3 20.6734 18.34 21.5034C13.93 22.9334 11.87 26.4934 10.45 30.6434C10.33 31.0034 10.21 31.3634 10.11 31.7234C10.09 31.7734 10.08 31.8234 10.06 31.8834C9.90997 32.3734 9.76997 32.8634 9.64997 33.3634C9.19997 35.1334 8.87997 36.9234 8.71997 38.7334V38.7134Z" fill="#4A7D22"/>
<path opacity="0.8" d="M23.4099 21.4532C23.4099 21.4532 18.5399 21.1132 15.8399 23.1632C14.2899 24.3432 11.9199 26.9132 12.3899 27.5432C12.6499 27.8932 14.7699 27.1232 15.9599 26.1632C16.9099 25.3932 18.3999 25.0132 18.6699 24.4832C19.3599 23.1232 23.4099 21.4432 23.4099 21.4432V21.4532Z" fill="#72BF33"/>
<path d="M44.39 3.10308C43.72 4.67308 36.46 5.65308 35.76 10.7731C34.35 21.1431 34.18 22.0231 34.18 22.0231C34.18 22.0231 32.1 23.2331 30.3 22.9531C28.5 22.6731 28.1 21.1331 28.1 21.1331L28.21 20.7131C28.98 17.6831 34.03 -0.556925 43.12 0.0130754C43.12 0.0130754 43.46 0.273075 43.8 0.693075C44.29 1.28308 44.79 2.18308 44.39 3.09308V3.10308Z" fill="#4E8223"/>
<path opacity="0.69" d="M43.8 0.703103C43.64 1.0731 43.35 1.4131 42.88 1.7131C40.59 3.1531 36.38 4.7231 34.19 13.0831C32 21.4431 32.31 21.6531 29.37 21.1831C28.92 21.1131 28.53 20.9431 28.21 20.7031C28.21 20.7031 28.21 20.7031 28.21 20.6931C28.99 17.6431 34.04 -0.556897 43.12 0.0131034C43.12 0.0131034 43.46 0.273103 43.8 0.693103V0.703103Z" fill="#61A32C"/>
<path opacity="0.71" d="M43.8 0.703103C43.73 0.693103 43.66 0.673103 43.58 0.643103C40.48 -0.336897 36.48 3.2531 34.55 5.9331C33.72 7.0831 32.2 9.9431 30.99 12.8831C29.45 16.6431 28.29 20.4931 28.21 20.6931C28.99 17.6431 34.04 -0.556897 43.12 0.0131034C43.12 0.0131034 43.46 0.273103 43.8 0.693103V0.703103Z" fill="#B0D96A"/>
<path d="M28.0999 21.1229C28.0999 21.1229 28.4399 22.8529 31.1899 22.7229C33.9399 22.5929 34.3799 20.7529 34.3799 20.7529C34.3799 20.7529 34.8299 21.2929 34.2399 22.0129C33.6499 22.7329 31.6599 23.8429 29.6199 23.1429C28.8699 22.8829 27.9999 22.2529 27.8999 21.9129C27.6999 21.2229 28.1099 21.1229 28.1099 21.1229H28.0999Z" fill="#487820"/>
</svg>
