<svg width="39" height="76" viewBox="0 0 39 76" fill="none" xmlns="http://www.w3.org/2000/svg">
<path d="M17.4681 19.893C18.2783 17.4827 19.3484 15.2123 20.4686 12.9319C21.5988 10.6416 22.739 8.06118 21.9788 5.48077C21.8388 5.0107 22.5789 4.81067 22.709 5.28074C23.3391 7.43108 22.769 9.61143 21.9088 11.6117C20.9887 13.7721 19.8185 15.8224 18.9484 18.0127C17.2281 22.3734 16.1979 27.0042 15.9279 31.6749C15.6378 36.5357 16.2279 41.3664 17.3881 46.0872C18.5683 50.8779 20.3586 55.4587 21.8788 60.1394C23.4991 65.1502 24.6993 70.521 23.3291 75.7318C23.209 76.2019 22.4689 76.0019 22.5989 75.5318C23.8291 70.8711 22.909 66.0503 21.5288 61.5296C20.0985 56.8589 18.2583 52.3282 17.0081 47.6074C15.7779 42.9967 15.0277 38.2459 15.1178 33.4652C15.2078 28.8545 15.9979 24.2537 17.4781 19.893H17.4681Z" fill="#006B2E"/>
<path d="M25.6894 52.5282C25.0193 54.8886 24.6093 57.319 24.3992 59.7694C24.1892 62.1997 24.1992 64.6401 24.0992 67.0805C23.9992 69.7909 23.7391 72.5114 22.869 75.1018C22.769 75.3918 23.229 75.5218 23.3291 75.2318C24.8793 70.6411 24.6193 65.7503 24.7893 60.9796C25.0093 54.4985 27.2897 49.0177 27.8298 46.5573C28.4999 43.4668 34.7009 28.5545 34.5908 28.5244C34.4808 28.4944 26.9996 47.9375 25.6994 52.5282H25.6894Z" fill="#006B2E"/>
<path d="M31.1903 23.3739C30.3702 23.824 29.4801 24.094 28.87 24.6941C28.7099 24.8541 28.5699 25.0041 28.4299 25.1542C28.3299 25.2542 28.2499 25.3542 28.1598 25.4342C27.6298 25.9843 27.1097 26.4044 26.1395 26.4144C25.9695 26.4144 25.7795 26.4144 25.5694 26.3744C25.1894 26.3243 24.7493 26.2343 24.2292 26.0743C22.4889 25.5442 22.2489 26.2643 21.7088 26.5944C21.2988 26.8444 20.7187 26.8744 19.2284 26.0243C18.7384 25.7443 18.3583 25.3342 18.0383 24.8141C16.0779 21.6436 17.0381 14.8325 17.0381 14.8325C17.0381 14.8325 20.3786 10.3818 24.6493 9.12164C26.6896 8.52154 28.95 8.65156 31.1603 10.3318C31.1603 10.3318 34.1308 11.342 34.3108 12.7722C34.3308 12.9322 34.3608 13.0823 34.4008 13.2323C34.7009 14.4925 35.451 15.6327 35.231 16.1227C35.1309 16.3328 34.8709 16.9529 34.5508 17.703C34.0508 18.8632 33.4307 20.3434 33.1706 21.1035C33.0706 21.3736 32.9606 21.6236 32.8306 21.8336C32.4005 22.5838 31.8104 23.0138 31.1903 23.3539V23.3739Z" fill="#F63E14"/>
<path d="M4.86613 11.292C3.35589 11.292 1.77564 11.8021 1.40558 14.2525C0.985516 17.0029 -0.464712 16.9529 0.145384 19.9834C0.145384 19.9834 -0.624738 22.9238 2.04568 24.124C2.04568 24.124 2.82581 26.4144 5.52623 26.1443C5.52623 26.1443 5.91629 27.3045 7.42653 27.3445C8.93677 27.3845 9.61688 29.2848 14.0076 28.1847C18.3983 27.0845 18.7183 22.9638 18.6483 21.9337C18.5783 20.9035 17.7882 14.5525 17.7882 14.5525C17.7882 14.5525 7.07648 11.292 4.86613 11.292Z" fill="#F6461F"/>
<path d="M3.28594 12.9522C4.67616 13.2222 5.28625 13.9624 4.73617 16.4928C4.18608 19.0232 9.08685 23.2238 10.9872 23.3738C12.8875 23.5239 16.398 23.1338 16.498 24.434C16.568 25.4742 14.4777 28.1446 10.5371 27.2845C9.53692 27.0644 8.59678 26.7244 7.18655 26.2143C5.01621 25.4242 2.53582 23.5239 1.7957 21.6336C0.175449 17.5529 2.34579 12.7722 3.29594 12.9522H3.28594Z" fill="#F76442"/>
<path d="M0.63549 18.4732C0.63549 18.4732 2.74582 14.6426 8.01665 16.2829C13.2875 17.9231 12.9174 18.1632 12.9174 18.1632C12.9174 18.1632 8.26669 16.4729 5.95633 16.3529C3.64596 16.2329 0.625488 18.4732 0.625488 18.4732H0.63549Z" fill="#ED421B"/>
<path d="M12.5473 18.3628C12.5473 18.3628 7.07643 16.9326 2.47571 23.4236C2.47571 23.4236 6.53635 19.793 8.46665 19.293C10.1969 18.8429 12.5473 18.3628 12.5473 18.3628Z" fill="#ED421B"/>
<path d="M14.2177 19.1133C14.2177 19.1133 8.51676 22.8239 8.41675 26.9445C8.41675 26.9445 9.98699 23.894 11.1072 22.7138C12.4374 21.3036 14.2277 19.1133 14.2277 19.1133H14.2177Z" fill="#ED421B"/>
<path d="M16.208 19.8633C16.208 19.8633 13.0575 24.354 13.9276 27.5145C13.9276 27.5145 14.3077 23.9339 16.208 19.8633Z" fill="#ED421B"/>
<path d="M35.2308 16.1326C27.2296 18.333 19.3183 14.4724 22.6589 15.4025C25.1493 16.1026 31.4102 14.2323 34.4107 13.2422C34.7108 14.5024 35.4609 15.6426 35.2408 16.1326H35.2308Z" fill="#F5390F"/>
<path d="M31.1903 23.3738C30.3701 23.8238 29.48 24.0939 28.8699 24.694C28.7099 24.854 28.5699 25.004 28.4298 25.1541L21.5988 16.5127C21.5988 16.5127 28.0998 21.6935 31.1903 23.3838V23.3738Z" fill="#F5390F"/>
<path d="M25.5694 26.374C25.1893 26.334 24.7492 26.244 24.2292 26.074C22.4889 25.5439 22.2488 26.264 21.7088 26.5941C20.9386 23.7336 20.1685 19.583 19.9485 18.3428C20.4486 20.4231 23.359 23.9337 25.5694 26.374Z" fill="#F5390F"/>
<g style="mix-blend-mode:multiply" opacity="0.13">
<path d="M7.83661 15.0225C7.83661 15.0225 7.7666 17.9029 10.337 19.2731C12.9074 20.6433 16.558 20.3533 17.4981 21.5635C18.4383 22.7737 16.2379 17.5329 16.2379 17.5329L7.83661 15.0225Z" fill="#6B0040"/>
</g>
<path d="M18.0383 24.8136C16.0779 21.6431 17.0381 14.8321 17.0381 14.8321C17.0381 14.8321 20.3786 10.3814 24.6493 9.12117C27.4297 8.79112 29.8801 9.12117 30.8903 10.9215C30.8903 10.9215 24.6593 15.1121 23.9492 17.5525C22.0889 23.9235 18.5783 17.6825 18.0383 24.8136Z" fill="#E00000"/>
<path d="M31.1203 10.7519C29.26 12.2922 27.3297 13.0323 25.5594 13.3123C21.8988 13.9124 18.9684 12.5922 18.9684 12.5922C18.9684 12.5922 18.5483 11.4921 18.1082 9.97182C17.4581 7.70146 16.778 4.47096 17.4081 2.50065C18.0982 0.330303 20.0085 0.640352 21.2687 1.10042C21.7888 1.29045 22.1889 0.910395 22.839 0.640352C23.4891 0.380311 24.3892 0.250291 25.8895 0.940399C25.8995 0.940399 25.9095 0.940399 25.9195 0.960403C26.5396 1.25045 27.0697 1.5505 27.5197 1.84054C29.8201 3.34078 30.0501 4.81101 30.1001 5.61114C30.1201 5.86117 30.1001 6.0512 30.1501 6.15122C30.3302 6.60129 32.0704 9.96182 31.1103 10.7619L31.1203 10.7519Z" fill="#F6461F"/>
<g style="mix-blend-mode:multiply" opacity="0.13">
<path d="M25.5593 13.312C21.8987 13.9121 18.9683 12.5919 18.9683 12.5919C18.9683 12.5919 18.5482 11.4917 18.1082 9.97148C17.7681 7.58111 18.3382 5.04071 19.3283 4.16057C20.7286 2.92037 21.3187 1.93022 21.4587 1.68018C21.1986 2.33028 19.2483 7.5211 24.1391 8.94132C29.2099 10.4316 30.8002 8.48125 30.8802 8.38123C30.8202 8.55126 30.3901 11.2917 25.5593 13.302V13.312Z" fill="#6B0040"/>
</g>
<g style="mix-blend-mode:multiply" opacity="0.13">
<path d="M25.3294 2.66016C25.3294 2.66016 20.9187 6.48076 19.3984 11.8616C19.3984 11.8616 22.819 4.94052 25.3294 2.66016Z" fill="#6B0040"/>
</g>
<g style="mix-blend-mode:multiply" opacity="0.13">
<path d="M29.51 6.58105C29.51 6.58105 23.6391 13.0321 20.1586 12.742C20.1586 12.742 21.8288 13.0721 29.51 6.58105Z" fill="#6B0040"/>
</g>
<g style="mix-blend-mode:multiply" opacity="0.13">
<path d="M21.2387 2.34033C21.2387 2.34033 18.1382 7.00107 18.8083 11.3918C18.8083 11.3918 19.5085 6.51099 21.2387 2.34033Z" fill="#6B0040"/>
</g>
<path d="M17.3181 14.1122C17.3181 14.1122 13.9775 17.9228 10.0569 15.6325C6.1363 13.3421 3.17583 11.5718 2.73576 11.0218C2.29569 10.4717 1.16551 8.39135 2.55573 7.07114C3.94595 5.75093 2.09566 5.00081 4.10598 3.75061C6.47635 2.26038 6.28632 -0.380036 9.9469 0.360081C11.8172 0.74014 12.4473 -0.840108 14.0275 0.660128C15.6078 2.16036 17.8981 2.82047 18.9183 5.67092C19.9385 8.52137 17.3081 14.1122 17.3081 14.1122H17.3181Z" fill="#F6441C"/>
<g style="mix-blend-mode:multiply" opacity="0.13">
<path d="M18.0782 16.2224C20.6286 14.7422 21.1887 11.2816 18.5383 9.48133C13.9776 6.38084 9.86694 14.9722 9.86694 14.9722C11.7972 16.2824 13.5375 16.8525 15.0178 16.9225C14.9077 17.3726 15.0078 17.9027 15.4978 18.5128C17.4181 20.9231 21.9588 19.973 21.9588 19.973C19.8985 19.1128 18.6983 17.4026 18.0882 16.2324L18.0782 16.2224Z" fill="#6B0040"/>
</g>
<g style="mix-blend-mode:multiply" opacity="0.13">
<path d="M6.35632 2.48047C6.35632 2.48047 12.7573 5.64097 14.8677 12.9021C14.8677 12.9021 10.937 5.08088 6.35632 2.48047Z" fill="#6B0040"/>
</g>
<g style="mix-blend-mode:multiply" opacity="0.13">
<path d="M3.31592 6.96094C3.31592 6.96094 9.51689 13.0919 12.9674 12.6318C12.9674 12.6318 11.3172 13.0419 3.31592 6.96094Z" fill="#6B0040"/>
</g>
<g style="mix-blend-mode:multiply" opacity="0.13">
<path d="M13.9076 1.78027C13.9076 1.78027 15.6579 7.24113 15.8179 11.1517C15.8179 11.1517 16.0779 5.67089 13.9076 1.78027Z" fill="#6B0040"/>
</g>
<path d="M18.1474 14.0419L13.4074 11.4819L13.3074 11.6419L18.0574 14.2119" fill="#32273D"/>
<path d="M13.9972 11.8918C13.9272 11.9918 13.5172 11.8818 13.0772 11.6418C12.6372 11.4118 12.3372 11.1418 12.4072 11.0418C12.4772 10.9418 12.8872 11.0518 13.3272 11.2918C13.7672 11.5218 14.0672 11.7918 13.9972 11.8918Z" fill="#32273D"/>
<path d="M18.1273 14.0422L12.7673 12.7622L12.7273 12.9522L18.0873 14.2222" fill="#32273D"/>
<path d="M13.4572 13.0115C13.4272 13.1215 13.0072 13.1215 12.5072 13.0115C12.0172 12.9015 11.6372 12.7115 11.6672 12.6015C11.6972 12.4915 12.1172 12.4915 12.6172 12.6015C13.1072 12.7115 13.4872 12.9015 13.4572 13.0115Z" fill="#32273D"/>
<path d="M18.0973 14.0322L12.6573 14.1822L12.6673 14.3722L18.1073 14.2222" fill="#32273D"/>
<path d="M13.3871 14.2419C13.4071 14.3619 13.0071 14.4719 12.5071 14.4819C12.0071 14.5019 11.5871 14.4119 11.5671 14.3019C11.5471 14.1819 11.9471 14.0719 12.4471 14.0619C12.9471 14.0419 13.3671 14.1319 13.3871 14.2419Z" fill="#32273D"/>
<path d="M18.0774 14.042L13.0874 15.592L13.1374 15.782L18.1374 14.222" fill="#32273D"/>
<path d="M13.7673 15.4725C13.8273 15.5825 13.4973 15.7925 13.0473 15.9425C12.5873 16.0925 12.1673 16.1225 12.1073 16.0025C12.0473 15.8925 12.3773 15.6825 12.8273 15.5325C13.2873 15.3825 13.7073 15.3525 13.7673 15.4725Z" fill="#32273D"/>
<path d="M18.0476 14.0522L13.9976 16.8622L14.1076 17.0222L18.1576 14.2122" fill="#32273D"/>
<path d="M14.5774 16.5625C14.6774 16.6525 14.4474 16.9425 14.0774 17.2025C13.7074 17.4625 13.3274 17.6025 13.2274 17.5125C13.1274 17.4225 13.3574 17.1325 13.7274 16.8725C14.0974 16.6125 14.4774 16.4725 14.5774 16.5625Z" fill="#32273D"/>
<path d="M18.0277 14.0723L15.3077 17.8623L15.4577 17.9723L18.1777 14.1823" fill="#32273D"/>
<path d="M15.7277 17.4128C15.8477 17.4828 15.7477 17.8128 15.4977 18.1628C15.2477 18.5128 14.9477 18.7428 14.8277 18.6828C14.7077 18.6228 14.8077 18.2828 15.0577 17.9328C15.3077 17.5828 15.6077 17.3528 15.7277 17.4128Z" fill="#32273D"/>
<path d="M18.0081 14.1118L16.8881 18.5018L17.0781 18.5518L18.1981 14.1518" fill="#32273D"/>
<path d="M17.1179 17.943C17.2579 17.973 17.2879 18.333 17.1879 18.733C17.0879 19.143 16.8979 19.443 16.7579 19.413C16.6179 19.383 16.5879 19.023 16.6879 18.623C16.7879 18.213 16.9779 17.913 17.1179 17.943Z" fill="#32273D"/>
<path d="M18.0082 14.1421L18.5982 18.7221L18.7882 18.6921L18.1982 14.1221" fill="#32273D"/>
<path d="M18.5983 18.1025C18.7383 18.1025 18.8983 18.4325 18.9583 18.8625C19.0183 19.2925 18.9583 19.6325 18.8083 19.6325C18.6683 19.6325 18.5083 19.3025 18.4483 18.8725C18.3883 18.4525 18.4483 18.1025 18.5983 18.1025Z" fill="#32273D"/>
<path d="M18.0182 14.172L20.2582 18.482L20.4282 18.392L18.1882 14.082" fill="#32273D"/>
<path d="M20.0385 17.8728C20.1685 17.8328 20.4385 18.1228 20.6485 18.5128C20.8585 18.9128 20.9285 19.2628 20.7985 19.3028C20.6685 19.3428 20.3985 19.0528 20.1885 18.6628C19.9785 18.2628 19.9085 17.9128 20.0385 17.8728Z" fill="#32273D"/>
<path d="M18.0382 14.202L21.7082 17.812L21.8482 17.672L18.1682 14.062" fill="#32273D"/>
<path d="M21.2787 17.2727C21.3787 17.2027 21.7387 17.4127 22.0887 17.7427C22.4387 18.0727 22.6187 18.4027 22.5187 18.4727C22.4187 18.5427 22.0587 18.3327 21.7087 18.0027C21.3587 17.6727 21.1787 17.3427 21.2787 17.2727Z" fill="#32273D"/>
<path d="M18.0582 14.212L22.8082 16.782L22.8982 16.612L18.1482 14.042" fill="#32273D"/>
<path d="M22.2189 16.3723C22.2889 16.2723 22.6989 16.3823 23.1389 16.6223C23.5789 16.8523 23.8789 17.1223 23.8089 17.2223C23.7389 17.3223 23.3289 17.2123 22.8889 16.9723C22.4489 16.7423 22.1489 16.4723 22.2189 16.3723Z" fill="#32273D"/>
<path d="M18.0881 14.222L23.4381 15.492L23.4781 15.312L18.1281 14.042" fill="#32273D"/>
<path d="M22.749 15.2524C22.779 15.1424 23.199 15.1424 23.699 15.2524C24.189 15.3624 24.569 15.5524 24.539 15.6624C24.509 15.7724 24.089 15.7724 23.589 15.6624C23.099 15.5524 22.719 15.3624 22.749 15.2524Z" fill="#32273D"/>
<path d="M18.1081 14.2218L23.5481 14.0718L23.5381 13.8818L18.0981 14.0318" fill="#32273D"/>
<path d="M22.829 14.0118C22.809 13.8918 23.209 13.7818 23.709 13.7718C24.209 13.7518 24.629 13.8418 24.649 13.9518C24.669 14.0718 24.269 14.1818 23.769 14.1918C23.269 14.2118 22.849 14.1218 22.829 14.0118Z" fill="#32273D"/>
<path d="M18.1381 14.2219L23.1281 12.6619L23.0681 12.4819L18.0781 14.0419" fill="#32273D"/>
<path d="M22.4388 12.7915C22.3788 12.6815 22.7088 12.4715 23.1588 12.3215C23.6188 12.1715 24.0388 12.1415 24.0988 12.2615C24.1588 12.3715 23.8288 12.5815 23.3788 12.7315C22.9188 12.8815 22.4988 12.9115 22.4388 12.7915Z" fill="#32273D"/>
<path d="M18.1582 14.2117L22.2182 11.4017L22.1082 11.2417L18.0482 14.0517" fill="#32273D"/>
<path d="M21.6388 11.7014C21.5388 11.6114 21.7688 11.3214 22.1388 11.0614C22.5088 10.8014 22.8888 10.6614 22.9888 10.7514C23.0888 10.8414 22.8588 11.1314 22.4888 11.3914C22.1188 11.6514 21.7388 11.7914 21.6388 11.7014Z" fill="#32273D"/>
<path d="M18.1782 14.1817L20.9082 10.3917L20.7482 10.2817L18.0282 14.0717" fill="#32273D"/>
<path d="M20.4786 10.8518C20.3586 10.7818 20.4586 10.4518 20.7086 10.1018C20.9586 9.75177 21.2586 9.52177 21.3786 9.58177C21.4986 9.65177 21.3986 9.98177 21.1486 10.3318C20.8986 10.6818 20.5986 10.9118 20.4786 10.8518Z" fill="#32273D"/>
<path d="M18.1982 14.1514L19.3182 9.75143L19.1382 9.71143L18.0082 14.1114" fill="#32273D"/>
<path d="M19.0984 10.3212C18.9584 10.2912 18.9284 9.93119 19.0284 9.53119C19.1284 9.12119 19.3184 8.82119 19.4584 8.85119C19.5984 8.88119 19.6284 9.24119 19.5284 9.64119C19.4284 10.0512 19.2384 10.3512 19.0984 10.3212Z" fill="#32273D"/>
<path d="M18.1981 14.1215L17.6081 9.5415L17.4181 9.5715L18.0081 14.1415" fill="#32273D"/>
<path d="M17.6081 10.1613C17.4681 10.1613 17.3081 9.83135 17.2481 9.40135C17.1881 8.97135 17.2481 8.63135 17.3981 8.63135C17.5381 8.63135 17.6981 8.96135 17.7581 9.39135C17.8181 9.81135 17.7581 10.1613 17.6081 10.1613Z" fill="#32273D"/>
<path d="M18.1878 14.0817L15.9478 9.78174L15.7778 9.87174L18.0178 14.1717" fill="#32273D"/>
<path d="M16.1778 10.3912C16.0478 10.4312 15.7778 10.1412 15.5678 9.75121C15.3578 9.35121 15.2878 9.00121 15.4178 8.96121C15.5478 8.92121 15.8178 9.21121 16.0278 9.60121C16.2378 10.0012 16.3078 10.3512 16.1778 10.3912Z" fill="#32273D"/>
<path d="M18.1676 14.0617L14.4976 10.4517L14.3676 10.5817L18.0376 14.2017" fill="#32273D"/>
<path d="M14.9275 10.9815C14.8275 11.0515 14.4675 10.8415 14.1175 10.5115C13.7675 10.1815 13.5875 9.85152 13.6875 9.78152C13.7875 9.71152 14.1475 9.92152 14.4975 10.2515C14.8375 10.5815 15.0275 10.9115 14.9275 10.9815Z" fill="#32273D"/>
<path d="M18.1373 14.0417L12.3873 12.0117L12.3273 12.1917L18.0773 14.2217" fill="#32273D"/>
<path d="M13.127 12.3519C13.067 12.4719 12.587 12.4219 12.057 12.2419C11.527 12.0619 11.147 11.8119 11.207 11.6919C11.267 11.5719 11.747 11.6219 12.277 11.8019C12.807 11.9819 13.187 12.2319 13.127 12.3519Z" fill="#32273D"/>
<path d="M18.1072 14.032L11.9172 13.562L11.9072 13.752L18.0972 14.222" fill="#32273D"/>
<path d="M12.727 13.7022C12.717 13.8322 12.247 13.9122 11.677 13.8722C11.107 13.8322 10.647 13.6922 10.667 13.5622C10.677 13.4322 11.147 13.3522 11.717 13.3922C12.287 13.4322 12.747 13.5722 12.727 13.7022Z" fill="#32273D"/>
<path d="M18.0872 14.042L12.0472 15.162L12.0872 15.352L18.1172 14.222" fill="#32273D"/>
<path d="M12.857 15.0924C12.897 15.2224 12.477 15.4124 11.917 15.5224C11.357 15.6324 10.877 15.6124 10.837 15.4824C10.797 15.3524 11.217 15.1624 11.777 15.0524C12.337 14.9424 12.817 14.9624 12.857 15.0924Z" fill="#32273D"/>
<path d="M18.0573 14.042L12.7773 16.662L12.8573 16.832L18.1473 14.212" fill="#32273D"/>
<path d="M13.5071 16.3924C13.5871 16.5024 13.2671 16.7924 12.7871 17.0424C12.2971 17.2824 11.8371 17.3924 11.7571 17.2824C11.6771 17.1724 11.9971 16.8824 12.4771 16.6324C12.9671 16.3924 13.4271 16.2824 13.5071 16.3924Z" fill="#32273D"/>
<path d="M14.1476 18.052L18.1676 14.202L18.0376 14.062L14.0176 17.912" fill="#32273D"/>
<path d="M14.5974 17.4625C14.7174 17.5525 14.5174 17.9125 14.1574 18.2625C13.7874 18.6225 13.3874 18.8425 13.2674 18.7525C13.1474 18.6625 13.3474 18.3025 13.7074 17.9525C14.0774 17.5925 14.4774 17.3725 14.5974 17.4625Z" fill="#32273D"/>
<path d="M18.0178 14.0918L15.6578 18.8018L15.8278 18.8818L18.1878 14.1718" fill="#32273D"/>
<path d="M16.0378 18.2127C16.1878 18.2627 16.1378 18.6627 15.9178 19.0927C15.6978 19.5227 15.4078 19.8427 15.2578 19.7927C15.1078 19.7427 15.1578 19.3427 15.3778 18.9127C15.5978 18.4827 15.8878 18.1627 16.0378 18.2127Z" fill="#32273D"/>
<path d="M18.0081 14.1221L17.5381 19.2321L17.7281 19.2521L18.1981 14.1421" fill="#32273D"/>
<path d="M17.678 18.5627C17.838 18.5727 17.938 18.9627 17.898 19.4327C17.858 19.9027 17.698 20.2727 17.538 20.2627C17.378 20.2527 17.278 19.8627 17.318 19.3927C17.358 18.9227 17.518 18.5527 17.678 18.5627Z" fill="#32273D"/>
<path d="M18.0182 14.1621L19.4782 19.1621L19.6682 19.1121L18.1982 14.1021" fill="#32273D"/>
<path d="M19.3583 18.473C19.5183 18.443 19.7483 18.793 19.8883 19.253C20.0283 19.713 20.0183 20.113 19.8583 20.143C19.6983 20.173 19.4683 19.823 19.3283 19.363C19.1883 18.903 19.1983 18.503 19.3583 18.473Z" fill="#32273D"/>
<path d="M18.0282 14.1923L21.2882 18.6023L21.4382 18.4823L18.1782 14.0723" fill="#32273D"/>
<path d="M20.9186 17.9627C21.0586 17.8927 21.4086 18.1627 21.7186 18.5727C22.0186 18.9727 22.1586 19.3627 22.0186 19.4327C21.8786 19.5027 21.5286 19.2327 21.2186 18.8227C20.9186 18.4227 20.7786 18.0327 20.9186 17.9627Z" fill="#32273D"/>
<path d="M18.0482 14.2122L22.7882 17.5922L22.8982 17.4422L18.1582 14.0522" fill="#32273D"/>
<path d="M22.1988 17.0824C22.2988 16.9824 22.7388 17.1524 23.1788 17.4624C23.6188 17.7724 23.8888 18.1024 23.7888 18.2024C23.6888 18.3024 23.2488 18.1324 22.8088 17.8224C22.3688 17.5124 22.0988 17.1824 22.1988 17.0824Z" fill="#32273D"/>
<path d="M18.0781 14.222L23.8181 16.252L23.8881 16.072L18.1381 14.042" fill="#32273D"/>
<path d="M23.089 15.9023C23.149 15.7823 23.629 15.8323 24.159 16.0123C24.689 16.1923 25.069 16.4423 25.009 16.5623C24.949 16.6823 24.469 16.6323 23.939 16.4523C23.409 16.2723 23.029 16.0223 23.089 15.9023Z" fill="#32273D"/>
<path d="M18.0981 14.2222L24.2881 14.7022L24.3081 14.5122L18.1081 14.0322" fill="#32273D"/>
<path d="M23.479 14.5622C23.489 14.4322 23.959 14.3522 24.529 14.3922C25.099 14.4322 25.559 14.5722 25.539 14.7022C25.519 14.8322 25.059 14.9122 24.489 14.8722C23.919 14.8322 23.459 14.6922 23.479 14.5622Z" fill="#32273D"/>
<path d="M18.1181 14.2221L24.1581 13.0921L24.1281 12.9121L18.0881 14.0421" fill="#32273D"/>
<path d="M23.3489 13.1718C23.3089 13.0418 23.7289 12.8518 24.2889 12.7418C24.8489 12.6318 25.3289 12.6518 25.3689 12.7818C25.4089 12.9118 24.9889 13.1018 24.4289 13.2118C23.8689 13.3218 23.3889 13.3018 23.3489 13.1718Z" fill="#32273D"/>
<path d="M18.1482 14.2119L23.4382 11.6019L23.3482 11.4219L18.0582 14.0419" fill="#32273D"/>
<path d="M22.7089 11.8717C22.6289 11.7617 22.9489 11.4717 23.4289 11.2217C23.9189 10.9817 24.3789 10.8717 24.4589 10.9817C24.5389 11.0917 24.2189 11.3817 23.7389 11.6317C23.2589 11.8817 22.7889 11.9817 22.7089 11.8717Z" fill="#32273D"/>
<path d="M18.1682 14.2014L22.1882 10.3414L22.0582 10.2114L18.0382 14.0614" fill="#32273D"/>
<path d="M21.6087 10.8014C21.4887 10.7114 21.6887 10.3514 22.0487 10.0014C22.4187 9.64136 22.8187 9.42136 22.9387 9.51136C23.0587 9.60136 22.8587 9.96136 22.4987 10.3114C22.1387 10.6614 21.7287 10.8914 21.6087 10.8014Z" fill="#32273D"/>
<path d="M18.1882 14.1711L20.5482 9.46109L20.3782 9.37109L18.0182 14.0911" fill="#32273D"/>
<path d="M20.1685 10.0515C20.0185 10.0015 20.0685 9.60146 20.2885 9.17146C20.5085 8.74146 20.7985 8.42146 20.9485 8.47146C21.0985 8.52146 21.0485 8.92146 20.8285 9.35146C20.6085 9.78146 20.3185 10.1015 20.1685 10.0515Z" fill="#32273D"/>
<path d="M18.1982 14.1412L18.6682 9.03123L18.4782 9.01123L18.0082 14.1212" fill="#32273D"/>
<path d="M18.5283 9.70117C18.3683 9.69117 18.2683 9.30117 18.3083 8.83117C18.3483 8.36117 18.5083 7.99117 18.6683 8.00117C18.8283 8.01117 18.9283 8.40117 18.8883 8.87117C18.8483 9.34117 18.6883 9.71117 18.5283 9.70117Z" fill="#32273D"/>
<path d="M18.198 14.1011L16.728 9.10107L16.548 9.15107L18.018 14.1611" fill="#32273D"/>
<path d="M16.8478 9.78117C16.6878 9.81117 16.4578 9.46117 16.3178 9.00117C16.1778 8.54117 16.1878 8.14117 16.3478 8.11117C16.5078 8.08117 16.7378 8.43117 16.8778 8.89117C17.0178 9.35117 17.0078 9.75117 16.8478 9.78117Z" fill="#32273D"/>
<path d="M18.1777 14.0716L14.9177 9.66162L14.7677 9.77162L18.0277 14.1916" fill="#32273D"/>
<path d="M15.2876 10.2911C15.1476 10.3611 14.7976 10.0911 14.4876 9.6811C14.1876 9.2811 14.0476 8.8911 14.1876 8.8211C14.3276 8.7511 14.6776 9.0211 14.9876 9.4311C15.2976 9.8411 15.4276 10.2211 15.2876 10.2911Z" fill="#32273D"/>
<path d="M18.1574 14.0516L13.4274 10.6616L13.3174 10.8216L18.0474 14.2116" fill="#32273D"/>
<path d="M14.0073 11.1814C13.9073 11.2814 13.4673 11.1114 13.0273 10.8014C12.5873 10.4914 12.3173 10.1614 12.4173 10.0614C12.5173 9.96138 12.9573 10.1314 13.3973 10.4414C13.8373 10.7514 14.1073 11.0814 14.0073 11.1814Z" fill="#32273D"/>
<path d="M18.1375 14.0619L13.7175 11.6719L13.6475 11.8019L18.0675 14.2019" fill="#461863"/>
<path d="M14.2773 12.0417C14.2073 12.1317 13.8173 12.0417 13.4073 11.8117C12.9973 11.5917 12.7273 11.3417 12.7973 11.2517C12.8673 11.1617 13.2573 11.2517 13.6673 11.4817C14.0773 11.7117 14.3473 11.9517 14.2773 12.0417Z" fill="#461863"/>
<path d="M18.1174 14.0521L13.0374 12.8921L13.0074 13.0421L18.0874 14.2021" fill="#461863"/>
<path d="M13.6972 13.1119C13.6672 13.2219 13.2572 13.2219 12.7872 13.1119C12.3172 13.0019 11.9672 12.8319 11.9972 12.7319C12.0272 12.6219 12.4372 12.6219 12.9072 12.7319C13.3772 12.8319 13.7272 13.0119 13.6972 13.1119Z" fill="#461863"/>
<path d="M18.0973 14.0522L12.8573 14.2422L12.8673 14.3922L18.1073 14.2022" fill="#461863"/>
<path d="M13.5571 14.2818C13.5571 14.3918 13.1771 14.5018 12.6971 14.5218C12.2171 14.5418 11.8171 14.4718 11.8071 14.3518C11.8071 14.2418 12.1771 14.1318 12.6671 14.1118C13.1571 14.0918 13.5471 14.1618 13.5571 14.2818Z" fill="#461863"/>
<path d="M18.0774 14.062L13.1974 15.572L13.2374 15.722L18.1274 14.202" fill="#461863"/>
<path d="M13.8573 15.4324C13.9073 15.5324 13.5873 15.7324 13.1373 15.8824C12.6873 16.0224 12.2873 16.0524 12.2373 15.9524C12.1873 15.8524 12.5073 15.6524 12.9573 15.5024C13.4073 15.3524 13.8073 15.3324 13.8573 15.4324Z" fill="#461863"/>
<path d="M18.0676 14.0723L14.0076 16.7623L14.0876 16.8923L18.1476 14.1923" fill="#461863"/>
<path d="M14.5774 16.4625C14.6674 16.5525 14.4374 16.8225 14.0574 17.0725C13.6874 17.3225 13.3174 17.4525 13.2274 17.3725C13.1374 17.2925 13.3674 17.0125 13.7474 16.7625C14.1174 16.5125 14.4874 16.3825 14.5774 16.4625Z" fill="#461863"/>
<path d="M18.0478 14.082L15.2178 17.702L15.3378 17.792L18.1678 14.182" fill="#461863"/>
<path d="M15.6376 17.2623C15.7476 17.3223 15.6376 17.6423 15.3776 17.9823C15.1176 18.3123 14.8176 18.5423 14.7076 18.4823C14.5976 18.4223 14.7076 18.1023 14.9676 17.7623C15.2276 17.4223 15.5276 17.2023 15.6376 17.2623Z" fill="#461863"/>
<path d="M18.028 14.1118L16.708 18.2818L16.858 18.3318L18.178 14.1518" fill="#461863"/>
<path d="M16.9479 17.7526C17.0779 17.7826 17.0879 18.1226 16.9679 18.5026C16.8479 18.8926 16.6479 19.1826 16.5179 19.1526C16.3879 19.1226 16.3779 18.7826 16.4979 18.4026C16.6179 18.0126 16.8179 17.7226 16.9479 17.7526Z" fill="#461863"/>
<path d="M18.0282 14.1321L18.3482 18.4721L18.4982 18.4621L18.1782 14.1221" fill="#461863"/>
<path d="M18.3581 17.8926C18.4881 17.8926 18.6281 18.2026 18.6581 18.6026C18.6881 19.0026 18.6081 19.3326 18.4681 19.3326C18.3381 19.3326 18.1981 19.0226 18.1681 18.6226C18.1381 18.2226 18.2181 17.8926 18.3581 17.8926Z" fill="#461863"/>
<path d="M18.0382 14.1621L19.9582 18.222L20.0982 18.1621L18.1782 14.1021" fill="#461863"/>
<path d="M19.7584 17.6626C19.8884 17.6226 20.1284 17.8926 20.3084 18.2626C20.4884 18.6326 20.5284 18.9726 20.4084 19.0126C20.2784 19.0526 20.0384 18.7826 19.8584 18.4126C19.6784 18.0426 19.6384 17.7026 19.7584 17.6626Z" fill="#461863"/>
<path d="M18.0482 14.182L21.3882 17.582L21.4982 17.472L18.1582 14.082" fill="#461863"/>
<path d="M20.9886 17.0823C21.0886 17.0123 21.4286 17.2123 21.7386 17.5223C22.0486 17.8323 22.2186 18.1423 22.1086 18.2123C22.0086 18.2823 21.6686 18.0823 21.3586 17.7723C21.0486 17.4623 20.8786 17.1523 20.9886 17.0823Z" fill="#461863"/>
<path d="M18.0682 14.202L22.4982 16.592L22.5682 16.462L18.1382 14.062" fill="#461863"/>
<path d="M21.9388 16.2224C22.0088 16.1324 22.3988 16.2224 22.8088 16.4524C23.2188 16.6724 23.4888 16.9224 23.4188 17.0124C23.3488 17.1024 22.9588 17.0124 22.5488 16.7824C22.1388 16.5624 21.8688 16.3124 21.9388 16.2224Z" fill="#461863"/>
<path d="M18.0881 14.2022L23.1681 15.3622L23.2081 15.2122L18.1181 14.0522" fill="#461863"/>
<path d="M22.5089 15.1523C22.5389 15.0423 22.9489 15.0423 23.4189 15.1523C23.8889 15.2523 24.2389 15.4323 24.2089 15.5323C24.1789 15.6423 23.7689 15.6423 23.2989 15.5323C22.8289 15.4223 22.4789 15.2523 22.5089 15.1523Z" fill="#461863"/>
<path d="M18.1081 14.2018L23.3481 14.0218V13.8618L18.0981 14.0518" fill="#461863"/>
<path d="M22.6589 13.9822C22.6589 13.8722 23.0289 13.7622 23.5189 13.7422C24.0089 13.7222 24.3989 13.7922 24.4089 13.9122C24.4089 14.0222 24.0289 14.1322 23.5489 14.1522C23.0689 14.1722 22.6689 14.1022 22.6589 13.9822Z" fill="#461863"/>
<path d="M18.1281 14.202L23.0181 12.682L22.9681 12.542L18.0781 14.062" fill="#461863"/>
<path d="M22.3489 12.8216C22.2989 12.7216 22.6189 12.5216 23.0689 12.3716C23.5189 12.2316 23.9189 12.2016 23.9689 12.3016C24.0189 12.4016 23.6989 12.6016 23.2489 12.7516C22.7989 12.8916 22.3989 12.9216 22.3489 12.8216Z" fill="#461863"/>
<path d="M18.1482 14.1916L22.1982 11.4916L22.1182 11.3716L18.0682 14.0716" fill="#461863"/>
<path d="M21.6387 11.8017C21.5487 11.7117 21.7787 11.4417 22.1587 11.1917C22.5287 10.9417 22.8987 10.8117 22.9887 10.8917C23.0787 10.9817 22.8487 11.2517 22.4687 11.5017C22.0987 11.7517 21.7287 11.8817 21.6387 11.8017Z" fill="#461863"/>
<path d="M18.1682 14.1817L20.9882 10.5617L20.8682 10.4717L18.0482 14.0817" fill="#461863"/>
<path d="M20.5685 11.0013C20.4585 10.9413 20.5685 10.6213 20.8285 10.2813C21.0885 9.94133 21.3885 9.72133 21.4985 9.78133C21.6085 9.84133 21.4985 10.1613 21.2385 10.5013C20.9785 10.8313 20.6785 11.0613 20.5685 11.0013Z" fill="#461863"/>
<path d="M18.1782 14.1516L19.4982 9.97164L19.3482 9.93164L18.0282 14.1116" fill="#461863"/>
<path d="M19.2684 10.5115C19.1384 10.4815 19.1284 10.1415 19.2484 9.76151C19.3684 9.37151 19.5684 9.08151 19.6984 9.11151C19.8284 9.14151 19.8384 9.48151 19.7184 9.86151C19.5984 10.2515 19.3984 10.5415 19.2684 10.5115Z" fill="#461863"/>
<path d="M18.1781 14.1215L17.8681 9.7915L17.7181 9.8015L18.0281 14.1315" fill="#461863"/>
<path d="M17.8481 10.3712C17.7181 10.3712 17.5781 10.0612 17.5481 9.66115C17.5181 9.26115 17.5981 8.93115 17.7381 8.93115C17.8681 8.93115 18.0081 9.24115 18.0381 9.64115C18.0681 10.0412 17.9881 10.3712 17.8481 10.3712Z" fill="#461863"/>
<path d="M18.1779 14.1017L16.2579 10.0317L16.1179 10.1017L18.0379 14.1617" fill="#461863"/>
<path d="M16.4579 10.6015C16.3279 10.6415 16.0879 10.3715 15.9079 10.0015C15.7279 9.63149 15.6879 9.29149 15.8079 9.25149C15.9379 9.21149 16.1779 9.48149 16.3579 9.85149C16.5379 10.2215 16.5779 10.5615 16.4579 10.6015Z" fill="#461863"/>
<path d="M18.1577 14.0816L14.8277 10.6816L14.7177 10.7916L18.0477 14.1816" fill="#461863"/>
<path d="M15.2275 11.1816C15.1275 11.2516 14.7875 11.0516 14.4775 10.7416C14.1675 10.4316 13.9975 10.1216 14.1075 10.0516C14.2075 9.98158 14.5475 10.1816 14.8575 10.4916C15.1675 10.8016 15.3375 11.1116 15.2275 11.1816Z" fill="#461863"/>
<path d="M18.1377 14.0818L15.1877 11.6118L15.1177 11.6918L18.0677 14.1718" fill="#280D38"/>
<path d="M15.5476 11.9718C15.4676 12.0318 15.1876 11.9018 14.9176 11.6718C14.6476 11.4418 14.4776 11.2118 14.5576 11.1518C14.6376 11.0918 14.9176 11.2218 15.1876 11.4518C15.4576 11.6818 15.6276 11.9118 15.5476 11.9718Z" fill="#280D38"/>
<path d="M18.1275 14.0819L14.4075 12.4619L14.3575 12.5719L18.0775 14.1819" fill="#280D38"/>
<path d="M14.8775 12.7216C14.8275 12.8016 14.5075 12.7416 14.1675 12.6016C13.8275 12.4516 13.5875 12.2716 13.6275 12.1916C13.6775 12.1116 13.9975 12.1716 14.3375 12.3116C14.6775 12.4616 14.9175 12.6416 14.8775 12.7216Z" fill="#280D38"/>
<path d="M18.1175 14.0719L13.9875 13.4819L13.9675 13.5919L18.0975 14.1919" fill="#280D38"/>
<path d="M14.5274 13.602C14.5074 13.692 14.1874 13.722 13.8074 13.662C13.4274 13.612 13.1274 13.492 13.1474 13.412C13.1674 13.322 13.4874 13.292 13.8674 13.352C14.2474 13.402 14.5474 13.522 14.5274 13.602Z" fill="#280D38"/>
<path d="M18.0975 14.0723L13.9775 14.5623L13.9875 14.6723L18.1075 14.1923" fill="#280D38"/>
<path d="M14.5274 14.5422C14.5474 14.6322 14.2474 14.7422 13.8674 14.7822C13.4874 14.8322 13.1674 14.7922 13.1474 14.7122C13.1274 14.6222 13.4274 14.5122 13.8074 14.4722C14.1874 14.4322 14.5074 14.4622 14.5274 14.5422Z" fill="#280D38"/>
<path d="M18.0876 14.082L14.3676 15.592L14.4076 15.702L18.1276 14.182" fill="#280D38"/>
<path d="M14.8674 15.4322C14.9174 15.5122 14.6774 15.6922 14.3374 15.8322C13.9974 15.9722 13.6774 16.0222 13.6274 15.9422C13.5774 15.8622 13.8174 15.6822 14.1574 15.5422C14.4974 15.4022 14.8174 15.3522 14.8674 15.4322Z" fill="#280D38"/>
<path d="M18.0677 14.082L15.1177 16.482L15.1877 16.572L18.1377 14.172" fill="#280D38"/>
<path d="M15.5376 16.2026C15.6176 16.2626 15.4576 16.5026 15.1876 16.7226C14.9176 16.9426 14.6376 17.0726 14.5576 17.0126C14.4776 16.9526 14.6376 16.7126 14.9076 16.4926C15.1776 16.2726 15.4576 16.1426 15.5376 16.2026Z" fill="#280D38"/>
<path d="M18.0578 14.1021L16.1578 17.1521L16.2578 17.212L18.1578 14.1621" fill="#280D38"/>
<path d="M16.4478 16.7727C16.5478 16.8127 16.4778 17.0727 16.3078 17.3527C16.1378 17.6327 15.9178 17.8327 15.8178 17.7927C15.7178 17.7527 15.7878 17.4927 15.9578 17.2127C16.1278 16.9327 16.3478 16.7327 16.4478 16.7727Z" fill="#280D38"/>
<path d="M18.0481 14.1221L17.3981 17.5221L17.5081 17.5421L18.1581 14.1421" fill="#280D38"/>
<path d="M17.5281 17.0724C17.6381 17.0824 17.6781 17.3524 17.6181 17.6624C17.5581 17.9724 17.4281 18.2224 17.3181 18.2024C17.2081 18.1924 17.1681 17.9224 17.2281 17.6124C17.2881 17.3024 17.4181 17.0524 17.5281 17.0724Z" fill="#280D38"/>
<path d="M18.0482 14.1421L18.7082 17.5521L18.8182 17.5321L18.1582 14.1221" fill="#280D38"/>
<path d="M18.6582 17.0926C18.7682 17.0826 18.8982 17.3226 18.9682 17.6426C19.0382 17.9626 18.9982 18.2226 18.8882 18.2326C18.7782 18.2426 18.6482 18.0026 18.5782 17.6826C18.5182 17.3726 18.5482 17.1026 18.6582 17.0926Z" fill="#280D38"/>
<path d="M18.0582 14.1621L19.9582 17.2621L20.0482 17.2021L18.1582 14.1021" fill="#280D38"/>
<path d="M19.7384 16.8225C19.8384 16.7825 20.0584 16.9825 20.2284 17.2625C20.4084 17.5425 20.4684 17.8125 20.3784 17.8525C20.2784 17.8925 20.0584 17.6925 19.8884 17.4125C19.7084 17.1325 19.6484 16.8625 19.7384 16.8225Z" fill="#280D38"/>
<path d="M18.0682 14.172L21.0282 16.652L21.0982 16.562L18.1382 14.082" fill="#280D38"/>
<path d="M20.6585 16.2924C20.7385 16.2324 21.0185 16.3624 21.2885 16.5924C21.5585 16.8224 21.7285 17.0524 21.6485 17.1124C21.5685 17.1724 21.2885 17.0424 21.0185 16.8124C20.7485 16.5824 20.5785 16.3524 20.6585 16.2924Z" fill="#280D38"/>
<path d="M18.0781 14.182L21.8081 15.802L21.8481 15.692L18.1281 14.082" fill="#280D38"/>
<path d="M21.3287 15.5422C21.3787 15.4622 21.6987 15.5222 22.0387 15.6622C22.3787 15.8122 22.6187 15.9922 22.5787 16.0722C22.5287 16.1522 22.2087 16.0922 21.8687 15.9522C21.5287 15.8022 21.2887 15.6222 21.3287 15.5422Z" fill="#280D38"/>
<path d="M18.0981 14.1923L22.2181 14.7823L22.2381 14.6723L18.1181 14.0723" fill="#280D38"/>
<path d="M21.6787 14.6625C21.6987 14.5725 22.0187 14.5425 22.3987 14.6025C22.7787 14.6525 23.0787 14.7725 23.0587 14.8525C23.0387 14.9425 22.7187 14.9725 22.3387 14.9125C21.9587 14.8625 21.6587 14.7425 21.6787 14.6625Z" fill="#280D38"/>
<path d="M18.1081 14.1918L22.2381 13.7018L22.2281 13.5918L18.0981 14.0718" fill="#280D38"/>
<path d="M21.6887 13.722C21.6687 13.632 21.9687 13.522 22.3487 13.482C22.7287 13.432 23.0487 13.472 23.0687 13.552C23.0887 13.642 22.7887 13.752 22.4087 13.792C22.0287 13.842 21.7087 13.802 21.6887 13.722Z" fill="#280D38"/>
<path d="M18.1281 14.182L21.8481 12.672L21.8081 12.562L18.0881 14.082" fill="#280D38"/>
<path d="M21.3387 12.8216C21.2887 12.7416 21.5287 12.5616 21.8687 12.4216C22.2087 12.2816 22.5287 12.2316 22.5787 12.3116C22.6287 12.3916 22.3887 12.5716 22.0487 12.7116C21.7087 12.8516 21.3887 12.9016 21.3387 12.8216Z" fill="#280D38"/>
<path d="M18.1382 14.1719L21.0882 11.7719L21.0182 11.6919L18.0682 14.0819" fill="#280D38"/>
<path d="M20.6786 12.0619C20.5986 12.0019 20.7586 11.7619 21.0286 11.5419C21.2986 11.3219 21.5786 11.1919 21.6586 11.2519C21.7386 11.3119 21.5786 11.5519 21.3086 11.7719C21.0386 11.9919 20.7586 12.1219 20.6786 12.0619Z" fill="#280D38"/>
<path d="M18.1582 14.1618L20.0482 11.1118L19.9482 11.0518L18.0582 14.1018" fill="#280D38"/>
<path d="M19.7585 11.4914C19.6585 11.4514 19.7285 11.1914 19.8985 10.9114C20.0685 10.6314 20.2885 10.4314 20.3885 10.4714C20.4885 10.5114 20.4185 10.7714 20.2485 11.0514C20.0785 11.3314 19.8585 11.5314 19.7585 11.4914Z" fill="#280D38"/>
<path d="M18.1582 14.1417L18.8082 10.7417L18.6982 10.7217L18.0482 14.1217" fill="#280D38"/>
<path d="M18.6883 11.1814C18.5783 11.1714 18.5383 10.9014 18.5983 10.5914C18.6583 10.2814 18.7883 10.0314 18.8983 10.0514C19.0083 10.0614 19.0483 10.3314 18.9883 10.6414C18.9283 10.9514 18.7983 11.2014 18.6883 11.1814Z" fill="#280D38"/>
<path d="M18.1581 14.1217L17.5081 10.7017L17.3981 10.7217L18.0481 14.1417" fill="#280D38"/>
<path d="M17.5481 11.1613C17.4381 11.1713 17.3081 10.9313 17.2381 10.6113C17.1681 10.2913 17.2081 10.0313 17.3181 10.0213C17.4281 10.0113 17.5581 10.2513 17.6281 10.5713C17.6881 10.8813 17.6581 11.1513 17.5481 11.1613Z" fill="#280D38"/>
<path d="M18.1578 14.1015L16.2578 11.0015L16.1578 11.0615L18.0578 14.1615" fill="#280D38"/>
<path d="M16.4678 11.4413C16.3678 11.4813 16.1478 11.2813 15.9778 11.0013C15.7978 10.7213 15.7378 10.4513 15.8278 10.4113C15.9278 10.3713 16.1478 10.5713 16.3178 10.8513C16.4978 11.1313 16.5578 11.4013 16.4678 11.4413Z" fill="#280D38"/>
<path d="M18.1378 14.0819L15.5378 12.4419L15.4778 12.5419L18.0778 14.1819" fill="#280D38"/>
<path d="M15.8578 12.7016C15.8078 12.7616 15.5678 12.6816 15.3278 12.5316C15.0878 12.3816 14.9378 12.2116 14.9878 12.1616C15.0378 12.1016 15.2778 12.1816 15.5178 12.3316C15.7578 12.4816 15.9078 12.6516 15.8578 12.7016Z" fill="#280D38"/>
<path d="M18.1177 14.0721L15.0177 13.2021L14.9877 13.3121L18.0877 14.1821" fill="#280D38"/>
<path d="M15.4176 13.362C15.3876 13.432 15.1276 13.422 14.8476 13.342C14.5676 13.262 14.3476 13.142 14.3776 13.082C14.4076 13.012 14.6676 13.022 14.9476 13.102C15.2276 13.182 15.4476 13.302 15.4176 13.362Z" fill="#280D38"/>
<path d="M18.1077 14.0722L14.7877 14.0522V14.1622L18.1077 14.1922" fill="#280D38"/>
<path d="M15.2276 14.1022C15.2276 14.1722 14.9776 14.2322 14.6676 14.2322C14.3576 14.2322 14.1176 14.1722 14.1176 14.1022C14.1176 14.0322 14.3676 13.9722 14.6776 13.9722C14.9876 13.9722 15.2276 14.0322 15.2276 14.1022Z" fill="#280D38"/>
<path d="M18.0877 14.0723L14.8977 14.9023L14.9277 15.0123L18.1177 14.1823" fill="#280D38"/>
<path d="M15.3276 14.8422C15.3476 14.9122 15.1276 15.0322 14.8376 15.1022C14.5476 15.1722 14.2876 15.1922 14.2676 15.1222C14.2476 15.0522 14.4676 14.9322 14.7576 14.8622C15.0476 14.7822 15.3076 14.7722 15.3276 14.8422Z" fill="#280D38"/>
<path d="M18.0777 14.082L15.3077 15.682L15.3677 15.772L18.1377 14.182" fill="#280D38"/>
<path d="M15.6977 15.5121C15.7477 15.5721 15.5777 15.7321 15.3277 15.8821C15.0777 16.0321 14.8277 16.1021 14.7777 16.0521C14.7277 15.9921 14.8977 15.8321 15.1477 15.6821C15.3977 15.5321 15.6477 15.4621 15.6977 15.5121Z" fill="#280D38"/>
<path d="M18.0678 14.0918L15.9978 16.3018L16.0778 16.3818L18.1478 14.1718" fill="#280D38"/>
<path d="M16.3078 16.0425C16.3778 16.0825 16.2778 16.2825 16.0878 16.4925C15.8978 16.6925 15.6878 16.8325 15.6278 16.7925C15.5578 16.7525 15.6578 16.5525 15.8478 16.3425C16.0378 16.1425 16.2478 16.0025 16.3078 16.0425Z" fill="#280D38"/>
<path d="M18.0581 14.1118L16.8881 16.7118L16.9981 16.7618L18.1581 14.1518" fill="#280D38"/>
<path d="M17.0879 16.3926C17.1679 16.4126 17.1479 16.6326 17.0479 16.8726C16.9379 17.1126 16.7879 17.2926 16.7079 17.2726C16.6279 17.2526 16.6479 17.0326 16.7479 16.7926C16.8479 16.5526 17.0079 16.3726 17.0879 16.3926Z" fill="#280D38"/>
<path d="M18.0482 14.1318L17.8982 16.8818H18.0182L18.1582 14.1318" fill="#280D38"/>
<path d="M17.9682 16.5127C18.0582 16.5127 18.1182 16.7227 18.0982 16.9727C18.0882 17.2227 18.0082 17.4327 17.9282 17.4327C17.8382 17.4327 17.7782 17.2227 17.7982 16.9727C17.8082 16.7227 17.8882 16.5127 17.9682 16.5127Z" fill="#280D38"/>
<path d="M18.0482 14.1518L18.9382 16.7718L19.0482 16.7318L18.1582 14.1118" fill="#280D38"/>
<path d="M18.8683 16.4127C18.9483 16.3927 19.0883 16.5727 19.1683 16.8127C19.2483 17.0527 19.2483 17.2627 19.1683 17.2927C19.0883 17.3127 18.9483 17.1327 18.8683 16.8927C18.7883 16.6527 18.7883 16.4427 18.8683 16.4127Z" fill="#280D38"/>
<path d="M18.0582 14.1618L19.8882 16.4018L19.9782 16.3318L18.1482 14.0918" fill="#280D38"/>
<path d="M19.6884 16.0824C19.7584 16.0424 19.9584 16.1724 20.1284 16.3824C20.2984 16.5924 20.3784 16.7924 20.3084 16.8324C20.2384 16.8724 20.0384 16.7424 19.8684 16.5324C19.6984 16.3224 19.6184 16.1224 19.6884 16.0824Z" fill="#280D38"/>
<path d="M18.0781 14.182L20.6681 15.812L20.7281 15.722L18.1381 14.082" fill="#280D38"/>
<path d="M20.3485 15.5523C20.3985 15.4923 20.6385 15.5723 20.8785 15.7223C21.1185 15.8723 21.2685 16.0423 21.2185 16.0923C21.1685 16.1523 20.9285 16.0723 20.6885 15.9223C20.4485 15.7723 20.2985 15.6023 20.3485 15.5523Z" fill="#280D38"/>
<path d="M18.0881 14.1823L21.1981 15.0623L21.2281 14.9523L18.1181 14.0723" fill="#280D38"/>
<path d="M20.7986 14.8925C20.8286 14.8225 21.0886 14.8325 21.3686 14.9125C21.6486 14.9925 21.8686 15.1125 21.8386 15.1725C21.8086 15.2325 21.5486 15.2325 21.2686 15.1525C20.9786 15.0725 20.7686 14.9525 20.7986 14.8925Z" fill="#280D38"/>
<path d="M18.1082 14.1923L21.4182 14.2123V14.1023L18.1082 14.0723" fill="#280D38"/>
<path d="M20.9786 14.1622C20.9786 14.0922 21.2286 14.0322 21.5386 14.0322C21.8486 14.0322 22.0886 14.0922 22.0886 14.1622C22.0886 14.2322 21.8386 14.2922 21.5286 14.2922C21.2186 14.2922 20.9786 14.2322 20.9786 14.1622Z" fill="#280D38"/>
<path d="M18.1181 14.182L21.3181 13.362L21.2881 13.252L18.0881 14.072" fill="#280D38"/>
<path d="M20.8786 13.422C20.8586 13.352 21.0786 13.232 21.3686 13.162C21.6586 13.082 21.9186 13.072 21.9386 13.142C21.9586 13.212 21.7386 13.332 21.4486 13.402C21.1586 13.482 20.8986 13.492 20.8786 13.422Z" fill="#280D38"/>
<path d="M18.1381 14.1819L20.8981 12.5819L20.8381 12.4819L18.0781 14.0819" fill="#280D38"/>
<path d="M20.5085 12.7518C20.4585 12.6918 20.6285 12.5318 20.8785 12.3818C21.1285 12.2318 21.3785 12.1618 21.4285 12.2118C21.4785 12.2718 21.3085 12.4318 21.0585 12.5818C20.8085 12.7318 20.5585 12.8018 20.5085 12.7518Z" fill="#280D38"/>
<path d="M18.1482 14.1718L20.2082 11.9618L20.1282 11.8818L18.0682 14.0918" fill="#280D38"/>
<path d="M19.9085 12.2217C19.8385 12.1817 19.9385 11.9817 20.1285 11.7717C20.3185 11.5717 20.5285 11.4317 20.5885 11.4717C20.6585 11.5117 20.5585 11.7117 20.3685 11.9217C20.1785 12.1217 19.9685 12.2617 19.9085 12.2217Z" fill="#280D38"/>
<path d="M18.1582 14.152L19.3182 11.542L19.2182 11.502L18.0582 14.112" fill="#280D38"/>
<path d="M19.1283 11.8718C19.0483 11.8518 19.0683 11.6318 19.1683 11.3918C19.2783 11.1518 19.4283 10.9718 19.5083 10.9918C19.5883 11.0118 19.5683 11.2318 19.4683 11.4718C19.3683 11.7118 19.2083 11.8918 19.1283 11.8718Z" fill="#280D38"/>
<path d="M18.1582 14.1318L18.3082 11.3818H18.1982L18.0482 14.1318" fill="#280D38"/>
<path d="M18.2382 11.7418C18.1482 11.7418 18.0882 11.5318 18.1082 11.2818C18.1182 11.0318 18.1982 10.8218 18.2782 10.8218C18.3682 10.8218 18.4282 11.0318 18.4082 11.2818C18.3982 11.5318 18.3182 11.7418 18.2382 11.7418Z" fill="#280D38"/>
<path d="M18.1581 14.1117L17.2781 11.4917L17.1681 11.5217L18.0481 14.1517" fill="#280D38"/>
<path d="M17.3481 11.8517C17.2681 11.8717 17.1281 11.6917 17.0481 11.4517C16.9681 11.2117 16.9581 11.0017 17.0481 10.9717C17.1281 10.9517 17.2681 11.1317 17.3481 11.3717C17.4281 11.6117 17.4281 11.8217 17.3481 11.8517Z" fill="#280D38"/>
<path d="M18.1479 14.0916L16.3179 11.8516L16.2279 11.9316L18.0579 14.1616" fill="#280D38"/>
<path d="M16.5278 12.182C16.4578 12.222 16.2578 12.092 16.0878 11.882C15.9178 11.672 15.8378 11.472 15.9078 11.432C15.9778 11.392 16.1778 11.522 16.3478 11.732C16.5178 11.942 16.5978 12.142 16.5278 12.182Z" fill="#280D38"/>
<path d="M19.3178 15.4814C18.8978 15.7514 18.3778 15.8714 17.7078 15.7214C16.3978 15.4314 15.9078 14.3714 15.7378 13.4814C15.5878 12.7614 15.6578 12.1514 15.6578 12.1514L20.7078 13.2914C20.7078 13.2914 20.3778 14.8314 19.3178 15.4914V15.4814Z" fill="#33A34E"/>
<path d="M17.7879 14.5513C16.8179 14.3413 16.0579 13.7713 15.7679 13.0913C15.6279 12.7913 15.5879 12.4713 15.6579 12.1513C15.8779 11.1313 17.1879 10.5313 18.5879 10.8313C19.4079 11.0013 20.0779 11.4513 20.4379 12.0013C20.6979 12.3813 20.7979 12.8213 20.7079 13.2413C20.4879 14.2713 19.1779 14.8613 17.7779 14.5613L17.7879 14.5513Z" fill="#AA96BF"/>
<path d="M20.5464 13.1315C20.7505 12.1811 19.8697 11.186 18.5792 10.9089C17.2887 10.6318 16.077 11.1775 15.8729 12.1279C15.6689 13.0782 16.5496 14.0733 17.8401 14.3504C19.1307 14.6276 20.3423 14.0818 20.5464 13.1315Z" fill="#8B7A9C"/>
<path d="M20.1955 12.9503C20.3729 12.1241 19.6063 11.2589 18.4831 11.0177C17.36 10.7765 16.3057 11.2507 16.1282 12.0769C15.9508 12.903 16.7175 13.7683 17.8406 14.0095C18.9638 14.2507 20.0181 13.7765 20.1955 12.9503Z" fill="#685978"/>
<path d="M19.8302 12.6826C19.9751 12.0077 19.3485 11.3007 18.4305 11.1036C17.5126 10.9064 16.6509 11.2938 16.506 11.9688C16.361 12.6437 16.9877 13.3507 17.9056 13.5478C18.8236 13.745 19.6852 13.3576 19.8302 12.6826Z" fill="#624D78"/>
<path d="M18.7094 12.3435C18.7593 12.1113 18.5415 11.8676 18.2229 11.7992C17.9043 11.7307 17.6056 11.8635 17.5557 12.0957C17.5059 12.3279 17.7237 12.5716 18.0423 12.64C18.3609 12.7084 18.6596 12.5756 18.7094 12.3435Z" fill="#4F3966"/>
<path d="M19.3179 15.4819C18.8979 15.7519 18.3779 15.8719 17.7079 15.7219C16.3979 15.4319 15.9079 14.3719 15.7379 13.4819C16.0279 14.2819 16.6779 15.1519 18.0979 15.4219C18.5379 15.5019 18.9379 15.5219 19.3179 15.4919V15.4819Z" fill="#2D9146"/>
<g style="mix-blend-mode:multiply" opacity="0.16">
<path d="M15.7778 13.0913C15.6378 12.7913 15.5978 12.4713 15.6678 12.1513C15.8878 11.1313 17.1978 10.5313 18.5978 10.8313C19.4178 11.0013 20.0878 11.4513 20.4478 12.0013C19.2378 11.3913 18.5978 11.0013 17.4078 11.3313C16.2178 11.6613 15.7778 13.0913 15.7778 13.0913Z" fill="#414469"/>
</g>
<path d="M18.7484 20.6433C18.3583 20.6332 17.9582 20.6032 17.5682 20.5432C17.5282 20.5432 17.4782 20.5332 17.4382 20.5232C16.708 20.4132 15.9979 20.2232 15.3878 19.9631C14.1376 19.4131 12.3073 18.4229 10.4371 17.2627H10.417C10.097 17.0427 9.76695 16.8427 9.43689 16.6326C9.06684 16.3926 8.68678 16.1425 8.31672 15.9025C5.41626 13.9622 2.87586 11.9419 2.73584 11.0317C2.73584 11.0317 3.69599 11.6918 4.88618 12.382C5.12622 12.522 5.37626 12.662 5.61629 12.802C5.76632 12.872 5.89634 12.952 6.02636 13.0221C6.15638 13.0821 6.2864 13.1521 6.41642 13.2121C6.65646 13.3321 6.87649 13.4321 7.09653 13.5221C7.15654 13.5521 7.22655 13.5721 7.29656 13.6021C7.37657 13.6321 7.44658 13.6622 7.52659 13.6822C7.64661 13.7322 7.75663 13.7622 7.86665 13.7922C8.1967 13.8922 8.56676 13.9922 8.94682 14.1022C9.31688 14.2022 9.70694 14.3023 10.097 14.4023C11.4272 14.7323 12.7874 15.0624 13.7276 15.3424C13.7976 15.3724 13.8776 15.3924 13.9476 15.4124C14.0176 15.4324 14.0976 15.4824 14.1776 15.5424C14.2076 15.5625 14.2377 15.5825 14.2777 15.6125C14.3777 15.7025 14.4877 15.7825 14.5877 15.8625C14.9178 16.1325 15.2778 16.4026 15.5679 16.5826C15.8079 16.7226 16.0679 16.8727 16.368 17.0027C16.8881 17.2327 17.5082 17.4227 18.2683 17.5128C18.8784 17.5828 19.5585 17.6028 20.3486 17.5328C21.0487 17.4728 23.1291 18.0828 22.3789 19.4831C21.9489 20.3032 20.4086 20.6733 18.7484 20.6232V20.6433Z" fill="#F75530"/>
<g style="mix-blend-mode:multiply" opacity="0.21">
<path d="M18.7475 20.6423C18.3575 20.6323 17.9575 20.6023 17.5675 20.5423C16.9675 20.2523 16.4375 19.6623 16.0075 19.1523C14.7975 17.7023 14.0075 16.0123 13.7175 15.3623C13.7875 15.3923 13.8675 15.4123 13.9375 15.4323C14.0075 15.4523 14.0875 15.5023 14.1675 15.5623C14.1975 15.5823 14.2275 15.6023 14.2675 15.6323C14.3675 15.7223 14.4775 15.8023 14.5775 15.8823C14.9075 16.1523 15.2675 16.4223 15.5575 16.6023C15.7975 16.7423 16.0575 16.8923 16.3575 17.0223C16.6175 18.1123 18.4175 20.2723 18.7375 20.6423H18.7475Z" fill="#590034"/>
</g>
<g style="mix-blend-mode:multiply" opacity="0.21">
<path d="M10.4266 17.252C10.0966 17.042 9.76662 16.832 9.43662 16.622C8.74662 15.872 8.00662 14.922 7.96662 14.562C7.92662 14.282 7.85662 14.012 7.78662 13.772C7.81662 13.782 7.84662 13.782 7.86662 13.802C8.19662 13.902 8.56662 14.002 8.94662 14.112C9.31662 14.212 9.70662 14.312 10.0966 14.412C9.96662 15.002 9.82662 16.192 10.4366 17.252H10.4266Z" fill="#590034"/>
</g>
<path d="M10.4061 17.2421C10.0861 17.0421 9.7561 16.8321 9.4261 16.6221C9.0561 16.3821 8.6761 16.1321 8.3061 15.8921C6.1561 14.2021 4.8761 12.3721 4.8761 12.3721C5.1161 12.5121 5.3561 12.6521 5.6061 12.7921C5.7561 12.8621 5.8861 12.9421 6.0161 13.0121C6.1461 13.0721 6.2761 13.1421 6.4061 13.2021C6.6461 13.3221 6.8661 13.4221 7.0861 13.5121C7.1461 13.5421 7.2161 13.5621 7.2861 13.5921C7.3661 13.6221 7.4361 13.6521 7.5161 13.6721C7.6361 13.7221 7.7461 13.7521 7.8561 13.7821C8.1861 13.8821 8.8261 14.7421 9.0761 15.3021C9.2861 15.7821 10.1661 16.9121 10.4061 17.2221V17.2421Z" fill="#F76442"/>
<path d="M18.7479 20.6425C18.7479 20.6425 18.0379 20.0825 16.9879 18.7425C16.1479 17.6725 15.9079 17.3325 15.5679 16.6025C16.2179 17.0025 17.0779 17.3825 18.2679 17.5325C18.3679 18.7525 18.7479 20.6425 18.7479 20.6425Z" fill="#F76442"/>
<path d="M32.8305 21.8535C31.1303 21.1934 27.9198 18.663 28.1498 17.9629C28.4098 17.1728 32.9605 17.1828 34.5508 17.7229C34.0507 18.8831 33.4306 20.3633 33.1706 21.1234C33.0706 21.3935 32.9605 21.6435 32.8305 21.8535Z" fill="#F64F2A"/>
<path d="M28.1591 25.4338C27.6291 25.9838 27.1091 26.4038 26.1391 26.4138C24.6891 24.7538 23.3691 22.2338 23.8691 21.9438C24.3791 21.6538 27.0091 24.2538 28.1591 25.4338Z" fill="#F64F2A"/>
<path d="M30.1092 5.60057C28.0192 6.97057 25.2192 7.54057 24.7392 5.86057C24.2992 4.31057 26.2192 2.72057 27.5292 1.83057C29.8292 3.33057 30.0592 4.80057 30.1092 5.60057Z" fill="#F65B39"/>
<path d="M22.0588 4.95007C21.1988 4.11007 21.9988 2.14007 22.8388 0.630065C23.4888 0.370065 24.3888 0.240065 25.8888 0.930065C24.2488 2.24007 22.5788 5.47007 22.0488 4.95007H22.0588Z" fill="#F65B39"/>
<path d="M35.431 39.0262C35.431 39.0262 35.2109 40.2464 37.4313 39.5763C37.4313 39.5763 36.4911 41.1465 35.511 41.3165C35.511 41.3165 35.9911 41.6466 37.2213 41.4366C37.2213 41.4366 36.4111 43.3569 35.501 43.2468C35.501 43.2468 36.9812 43.8269 37.9614 43.5269C37.9614 43.5269 37.4413 45.1671 36.5611 45.3572C36.5611 45.3572 37.0712 45.6372 37.6313 45.3772C37.6313 45.3772 36.9912 46.6174 35.0109 46.6274C35.0109 46.6274 35.391 47.2275 36.5211 47.1575C36.5211 47.1575 36.3711 48.0576 35.501 48.1076C35.501 48.1076 35.671 49.0378 37.3013 48.5977C37.3013 48.5977 35.821 51.5482 33.9707 51.4881C33.9707 51.4881 34.5008 52.6983 35.441 52.5483C35.441 52.5483 34.7209 53.2784 33.2906 52.9984C33.2906 52.9984 33.7007 53.7185 34.1208 53.7285C34.1208 53.7285 32.9706 54.6186 31.7404 54.2586C31.7404 54.2586 31.9004 54.8787 32.9606 54.9987C32.9606 54.9987 31.9204 55.7288 30.8202 55.2887C30.8602 55.4288 31.3103 56.929 30.9203 56.5189C30.7602 56.3589 29.9101 56.5289 29.5 55.9689C29.5 55.9689 28.9299 57.189 29.7201 57.9192C29.7201 57.9192 26.0295 57.7391 25.0293 55.6688C25.0293 55.6688 20.9987 56.0889 19.3784 55.5588L20.5686 54.3186C20.5686 54.3186 17.1381 54.0485 16.808 54.6186C16.808 54.6186 16.718 52.6083 18.8684 51.8682C18.8684 51.8682 17.7682 51.7882 16.878 50.538C16.878 50.538 17.9082 50.688 18.6283 50.568C18.6283 50.568 16.698 49.6279 16.9181 48.1976L17.9482 48.5277C17.9482 48.5277 17.1481 46.0573 17.7582 44.8371L19.1184 45.2972C19.1184 45.2972 17.9182 43.2468 18.8484 42.2467C18.8484 42.2467 19.9985 43.3469 20.3186 43.6269C20.6286 43.927 20.6686 42.2567 20.6686 42.2567C20.6686 42.2567 21.8088 43.917 22.0789 43.3469C22.3489 42.7768 22.829 41.2065 20.8387 39.9163C20.8387 39.9163 21.5688 38.9962 22.2789 39.5363C22.2789 39.5363 21.9088 38.3261 22.5789 37.3859L23.149 38.016C23.149 38.016 23.7791 35.8757 24.9493 35.3156C24.9493 35.3156 25.1393 35.8057 25.6494 36.1557C25.6494 36.1557 26.5796 35.1156 26.0895 33.6353C26.0895 33.6353 26.6196 33.1753 26.9996 33.6553C26.9996 33.6553 27.4097 32.5252 26.7796 31.635C26.7796 31.635 27.8898 31.545 28.2698 32.0351L28.2998 30.5148C28.2998 30.5148 29.06 31.585 29.12 31.675C29.19 31.765 29.34 30.6149 29.16 29.7647L30.0501 30.2848C30.0101 30.1348 29.5 28.3845 31.9504 26.5642C31.9504 26.5642 31.8104 27.1443 31.9304 27.6644C32.0504 28.1845 33.5007 26.9743 33.9107 26.0141C33.9107 26.0141 34.5508 26.0841 34.3608 26.8443C34.4808 26.6742 35.411 25.374 36.3311 25.084C36.3311 25.084 36.3311 25.104 36.3511 25.144C36.4411 25.404 36.7512 26.4342 36.2811 27.5444C36.2811 27.5444 36.7212 28.6545 37.5813 27.3743C37.5813 27.3743 38.1914 29.3947 36.8112 30.3448C36.8112 30.3448 37.6413 31.0049 38.1014 30.5648C38.1014 30.5648 36.8912 32.6152 36.3811 32.6052C36.3811 32.6052 37.3213 33.1253 38.0614 32.2351C37.9414 32.4751 36.9512 34.4055 36.2811 34.4755C35.561 34.5455 37.3013 35.1256 38.0314 34.5055C38.0314 34.5055 37.1612 35.8357 36.5812 35.9357C36.5812 35.9357 37.4113 36.3258 38.4014 35.5656C38.4014 35.5656 38.1714 37.1059 37.5313 37.0659C37.5313 37.0659 37.8513 37.586 38.4314 37.3759L35.421 38.9962L35.431 39.0262Z" fill="#579100"/>
<path d="M22.1189 43.377C22.1189 43.377 24.9093 45.9574 25.2994 48.8678L24.9593 50.4481C24.9593 50.4481 25.8095 47.7876 22.1089 43.377H22.1189Z" fill="#508500"/>
<path d="M18.6683 50.5981C18.6683 50.5981 21.9788 50.6582 24.5092 53.3386C26.0795 54.9988 24.6893 53.7286 24.6893 53.7286C24.6893 53.7286 22.1789 51.5083 18.6583 50.5981H18.6683Z" fill="#508500"/>
<path d="M35.741 39.2963C35.741 39.2963 35.2809 39.8664 37.4312 39.5763C37.4312 39.5763 36.4911 41.1466 35.5109 41.3166C35.5109 41.3166 35.991 41.6466 37.2212 41.4366C37.2212 41.4366 36.4111 43.3569 35.5009 43.2469C35.5009 43.2469 36.9812 43.827 37.9613 43.5269C37.9613 43.5269 37.4412 45.1672 36.5611 45.3572C36.5611 45.3572 37.0712 45.6373 37.6313 45.3772C37.6313 45.3772 36.9912 46.6174 35.0108 46.6274C35.0108 46.6274 35.3909 47.2275 36.5211 47.1575C36.5211 47.1575 36.3711 48.0576 35.5009 48.1077C35.5009 48.1077 35.671 49.0378 37.3012 48.5977C37.3012 48.5977 35.821 51.5482 33.9707 51.4882C33.9707 51.4882 34.5008 52.6984 35.4409 52.5484C35.4409 52.5484 34.7208 53.2785 33.2906 52.9984C33.2906 52.9984 33.7006 53.7185 34.1207 53.7285C34.1207 53.7285 32.9705 54.6187 31.7403 54.2586C31.7403 54.2586 31.9004 54.8787 32.9605 54.9987C32.9605 54.9987 31.9204 55.7289 30.8202 55.2888C30.8602 55.4288 31.3103 56.929 30.9202 56.519C30.7602 56.359 29.91 56.529 29.5 55.9689C29.5 55.9689 28.9299 57.1891 29.72 57.9192C29.72 57.9192 26.0294 57.7392 25.0293 55.6688C24.5192 54.2786 24.5592 52.3983 24.9693 50.248C24.9693 50.168 24.9993 50.078 25.0193 49.978C25.0193 49.8979 25.0493 49.8079 25.0693 49.7079C25.1293 49.4379 25.1893 49.1578 25.2593 48.8778C27.3896 40.1264 34.5208 27.9745 36.3411 25.144C36.4311 25.4041 36.7411 26.4342 36.271 27.5444C36.271 27.5444 36.7111 28.6546 37.5713 27.3744C37.5713 27.3744 38.1813 29.3947 36.8011 30.3449C36.8011 30.3449 37.6313 31.005 38.0913 30.5649C38.0913 30.5649 36.8811 32.6152 36.3711 32.6052C36.3711 32.6052 37.3112 33.1253 38.0513 32.2352C37.9313 32.4752 36.9412 34.4055 36.271 34.4755C35.5509 34.5455 37.2912 35.1256 38.0213 34.5055C38.0213 34.5055 37.1512 35.8357 36.5711 35.9357C36.5711 35.9357 37.4012 36.3258 38.3914 35.5657C38.3914 35.5657 38.1613 37.1059 37.5212 37.0659C37.5212 37.0659 37.8413 37.456 38.4214 37.376C38.4214 37.376 37.6513 38.3861 37.0412 38.6762C36.4411 38.9662 35.721 39.2663 35.721 39.2663L35.741 39.2963Z" fill="#508500"/>
<path d="M35.0309 46.6475C35.0309 46.6475 32.0504 46.8775 29.43 47.6576C27.3697 48.2777 25.5994 49.2579 25.0493 50.018C25.0493 49.938 25.0793 49.848 25.0993 49.748C25.1593 49.4779 25.2193 49.1979 25.2894 48.9178C25.8995 48.3477 28.8299 46.5574 35.0309 46.6575V46.6475Z" fill="#4A7A00"/>
<path d="M24.6893 53.2986C24.6893 53.2986 26.9397 49.618 34.0008 51.4983C34.0008 51.4983 27.4798 50.2981 24.7093 53.7187V53.2986H24.6893Z" fill="#4A7A00"/>
<path d="M35.631 39.2964C35.631 39.2964 29.36 40.4466 27.1497 43.347L26.5596 44.8473C26.5596 44.8473 27.4997 41.8368 35.631 39.2964Z" fill="#4A7A00"/>
<path d="M26.5496 44.8472C26.5496 44.8472 27.4898 40.8866 23.1791 38.0361C23.1791 38.0361 25.9895 38.8863 27.1397 43.347L26.5496 44.8472Z" fill="#508500"/>
<path d="M28.2998 32.0552C28.2998 32.0552 29.8701 36.0058 29.1199 38.5962L29.51 37.6361C29.51 37.6361 29.9301 34.9556 28.2998 32.0552Z" fill="#508500"/>
<path d="M36.1311 34.5656C36.1311 34.5656 31.3903 35.5758 29.11 38.5962L29.52 37.6261C29.52 37.6261 33.3206 34.4956 36.1311 34.5656Z" fill="#4A7A00"/>
<path d="M31.9705 27.7341C31.9705 27.7341 32.8405 30.3841 32.3305 32.1541L32.7205 31.4741C32.7205 31.4741 32.8905 29.7741 31.9705 27.7241V27.7341Z" fill="#508500"/>
<path d="M36.8304 30.3647C36.8304 30.3647 34.1704 30.2847 32.3304 32.1547L32.7204 31.4547C32.7204 31.4547 34.7504 30.0647 36.8304 30.3647Z" fill="#4A7A00"/>
</svg>
