<svg width="23" height="76" viewBox="0 0 23 76" fill="none" xmlns="http://www.w3.org/2000/svg">
<path d="M3.77148 35.5845C3.77148 35.5845 7.08818 45.2084 6.71176 55.4848C6.38135 64.5733 6.71176 73.5907 6.78705 75.5481C6.79541 75.7614 6.62393 75.9371 6.41062 75.9371H5.01786C4.88402 75.9371 4.75854 75.8744 4.67908 75.7698C4.07262 75.0086 1.76807 71.4786 2.01902 62.1349C2.31179 51.3943 3.60836 52.2726 3.77148 35.5762V35.5845Z" fill="#449E46"/>
<mask id="mask0_67_6253" style="mask-type:luminance" maskUnits="userSpaceOnUse" x="2" y="35" width="5" height="41">
<path d="M3.77148 35.5845C3.77148 35.5845 7.08818 45.2084 6.71176 55.4848C6.38135 64.5733 6.71176 73.5907 6.78705 75.5481C6.79541 75.7614 6.62393 75.9371 6.41062 75.9371H5.01786C4.88402 75.9371 4.75854 75.8744 4.67908 75.7698C4.07262 75.0086 1.76807 71.4786 2.01902 62.1349C2.31179 51.3943 3.60836 52.2726 3.77148 35.5762V35.5845Z" fill="white"/>
</mask>
<g mask="url(#mask0_67_6253)">
<path d="M11.4338 80.6175C10.0536 78.3715 9.34258 75.7617 8.85741 73.1518C9.00798 67.7104 8.77794 62.2397 8.71102 56.8192C8.69011 55.2257 8.65247 53.6405 8.59391 52.0637C8.84904 48.3413 8.86577 44.6273 7.79506 40.9551C7.71977 40.7 7.5943 40.4992 7.44373 40.3403C7.08822 38.2616 6.63651 36.1912 6.05515 34.1209C5.54907 32.3099 2.72171 33.0795 3.23197 34.8989C4.26505 38.5878 4.87569 42.2726 5.24375 45.9866C5.49469 51.8463 4.87569 57.6934 4.26086 63.5279C3.91372 66.8154 3.69205 70.04 4.52436 73.2731C4.83805 74.4986 5.26466 75.6864 5.75401 76.8491C5.66199 78.3088 5.53652 79.7643 5.35667 81.2156C5.15173 82.8844 7.46883 83.0434 8.12547 81.7343C8.18403 81.843 8.24258 81.9559 8.29696 82.0647C8.6441 82.7297 9.25056 82.8886 9.80265 82.7464C10.8943 82.9765 12.1867 81.8388 11.4296 80.6133L11.4338 80.6175Z" fill="#419643"/>
</g>
<path d="M12.1656 21.7654C10.0368 30.603 7.8786 39.5159 7.33906 48.6169C7.11739 53.088 7.25541 57.8058 7.14667 62.2853C7.0923 65.4221 6.92081 69.3955 6.79952 72.5407C6.77861 73.3814 6.69914 74.632 6.69496 75.573C6.69496 75.7863 6.5193 75.9536 6.30599 75.9453L5.43604 75.916C5.49877 75.3472 5.49459 74.7783 5.51969 74.2095C5.62425 70.9556 5.68698 67.2164 5.79991 63.9541C5.98394 58.8264 6.29344 53.6861 6.70333 48.5709C7.28887 41.7368 8.72346 35.0113 10.2208 28.3319C10.7227 26.1068 11.233 23.8818 11.7641 21.665L12.1656 21.7654Z" fill="#41B543"/>
<path d="M15.3151 25.6846C15.3151 25.6846 15.3443 66.3717 6.80372 75.7823C6.66988 75.9287 6.47749 76.004 6.28091 75.9998L4.93834 75.9705C4.75431 75.9705 4.6121 75.8158 4.62047 75.6359C4.72503 73.2435 5.48624 58.4041 8.16721 52.8832C11.0866 46.873 15.3151 25.6846 15.3151 25.6846Z" fill="#3D8F3F"/>
<mask id="mask1_67_6253" style="mask-type:luminance" maskUnits="userSpaceOnUse" x="4" y="25" width="12" height="51">
<path d="M15.3151 25.6846C15.3151 25.6846 15.3443 66.3717 6.80372 75.7823C6.66988 75.9287 6.47749 76.004 6.28091 75.9998L4.93834 75.9705C4.75431 75.9705 4.6121 75.8158 4.62047 75.6359C4.72503 73.2435 5.48624 58.4041 8.16721 52.8832C11.0866 46.873 15.3151 25.6846 15.3151 25.6846Z" fill="white"/>
</mask>
<g mask="url(#mask1_67_6253)">
<path opacity="0.62" d="M12.9772 56.6054C11.7391 63.1761 10.1958 69.8555 5.69547 75.0376C3.61677 77.43 1.18675 79.4836 -1.27673 81.4619C-3.97024 83.6284 -7.05273 86.4851 -10.4949 87.2839C-12.331 87.7105 -11.5531 90.5337 -9.71697 90.1071C-6.16605 89.2832 -3.15048 86.6524 -0.3524 84.444C2.50842 82.1855 5.36923 79.8684 7.76161 77.108C12.6217 71.5034 14.4494 64.5229 15.7962 57.3834C16.1433 55.5431 13.3243 54.7526 12.973 56.6054H12.9772Z" fill="#368038"/>
</g>
<path d="M17.6739 4.91441C17.2598 2.32128 14.3572 0 14.3572 0C13.5667 2.09542 12.5755 2.70188 11.6177 5.31175C11.8728 6.26535 12.0192 7.24824 12.1656 8.21857C12.2492 8.78321 11.3876 9.02579 11.2998 8.45697C11.2287 7.99272 11.1534 7.52428 11.074 7.05584C10.1747 10.5733 10.1371 14.9524 10.1371 14.9524L16.21 15.6341C16.21 15.6341 18.0922 7.50337 17.6781 4.91441H17.6739Z" fill="#FE4C75"/>
<mask id="mask2_67_6253" style="mask-type:luminance" maskUnits="userSpaceOnUse" x="10" y="0" width="8" height="16">
<path d="M17.6739 4.91441C17.2598 2.32128 14.3572 0 14.3572 0C13.5667 2.09542 12.5755 2.70188 11.6177 5.31175C11.8728 6.26535 12.0192 7.24824 12.1656 8.21857C12.2492 8.78321 11.3876 9.02579 11.2998 8.45697C11.2287 7.99272 11.1534 7.52428 11.074 7.05584C10.1747 10.5733 10.1371 14.9524 10.1371 14.9524L16.21 15.6341C16.21 15.6341 18.0922 7.50337 17.6781 4.91441H17.6739Z" fill="white"/>
</mask>
<g mask="url(#mask2_67_6253)">
<path d="M17.9082 3.01126C17.6154 2.69757 17.1428 2.81886 16.9211 3.13673C16.5071 3.73064 15.7375 4.1698 15.0265 4.17817C14.9344 4.17817 14.8382 4.17817 14.7462 4.16562C14.7295 4.16562 14.6793 4.15307 14.6626 4.14889C14.6082 4.13634 14.5538 4.1238 14.4995 4.10707C14.3113 4.05269 14.1941 3.99832 13.9976 3.86867C13.8763 3.7892 13.7173 3.64699 13.5835 3.48806C13.5291 3.42532 13.5626 3.46297 13.5333 3.42532C13.4999 3.37932 13.4706 3.32913 13.4413 3.27894C13.3827 3.17856 13.3326 3.07818 13.2865 2.96943C13.1527 2.65993 12.6968 2.58883 12.4291 2.74358C12.1071 2.93179 12.0694 3.29148 12.2033 3.60099C12.3329 3.89794 12.5128 4.16562 12.7261 4.40402C12.6843 4.42912 12.6424 4.45839 12.6048 4.49604C12.3789 4.72189 12.3455 5.16105 12.6048 5.38272C13.663 6.28196 15.1185 6.99298 16.4652 6.25268C17.0048 5.95572 17.4021 5.44546 17.6991 4.91847C18.0253 4.34129 18.4603 3.59262 17.9124 3.00289L17.9082 3.01126Z" fill="#F0486E"/>
</g>
<path d="M10.3755 0.573242C10.3755 0.573242 15.2063 3.22912 16.3899 9.46938C17.5694 15.7096 15.1687 21.7826 11.785 22.4434C8.40141 23.1043 6.14287 16.7009 6.45237 11.8408C6.76188 6.9808 10.3755 0.573242 10.3755 0.573242Z" fill="#F52959"/>
<mask id="mask3_67_6253" style="mask-type:luminance" maskUnits="userSpaceOnUse" x="6" y="0" width="11" height="23">
<path d="M10.3755 0.573242C10.3755 0.573242 15.2063 3.22912 16.3899 9.46938C17.5694 15.7096 15.1687 21.7826 11.785 22.4434C8.40141 23.1043 6.14287 16.7009 6.45237 11.8408C6.76188 6.9808 10.3755 0.573242 10.3755 0.573242Z" fill="white"/>
</mask>
<g mask="url(#mask3_67_6253)">
<path d="M13.1444 22.3474C13.0482 21.996 12.7053 21.8496 12.3707 21.9082C12.3246 21.9166 12.2786 21.9207 12.2285 21.9249C12.0235 21.6029 11.7809 21.3101 11.4505 21.0759C11.141 20.8542 10.7813 20.7204 10.4634 20.5154C10.2794 20.3983 10.1079 20.2645 9.94482 20.1223C9.8779 20.1055 9.81516 20.0805 9.75242 20.0303C9.51402 19.8337 9.3049 19.6162 9.1125 19.3862C8.69844 19.0097 8.35547 18.5413 8.07106 18.0352C7.29731 16.931 6.75777 15.6638 6.31442 14.3672C6.01328 14.4467 5.75397 14.7227 5.84599 15.12C6.08439 16.1489 6.38553 17.1653 6.74522 18.1565C7.07145 19.0599 7.44369 19.9717 7.97905 20.7747C8.79882 22.0044 10.041 22.9622 11.4714 23.1462C11.5091 23.234 11.5467 23.3177 11.5843 23.4055C11.714 23.7192 11.9984 23.9409 12.3581 23.8447C12.6467 23.7652 12.9186 23.4013 12.8014 23.0877C13.0733 22.9747 13.2197 22.6234 13.1444 22.3474Z" fill="#E32652"/>
<path opacity="0.48" d="M10.5092 4.76004C10.1286 3.67259 9.45099 2.83191 8.79853 1.92432C8.49321 1.97451 8.22135 2.30492 8.25062 2.65207C8.15861 2.79845 8.12097 2.9783 8.15443 3.16233C8.20462 3.42164 8.25062 3.67678 8.29663 3.93609C8.04986 4.47563 7.79891 5.01099 7.55633 5.55053C7.12972 6.11098 6.93314 6.9893 6.76584 7.63758C6.75748 7.67941 6.74911 7.71705 6.73657 7.75887C6.28904 9.3524 6.12174 11.0045 6.12592 12.6775C5.90425 12.8991 5.80387 13.2839 6.05064 13.5976C6.13011 13.698 6.21376 13.7733 6.30159 13.8277C6.3936 14.1204 6.53162 14.3965 6.72402 14.6474C7.21755 15.2873 8.15024 15.6303 8.81107 15.0113C9.4259 14.4341 9.74377 13.355 9.99472 12.5771C10.2959 11.6569 10.4715 10.7033 10.597 9.74555C10.7852 8.26914 10.8981 6.69653 10.643 5.20756C10.597 5.06118 10.5594 4.91061 10.5092 4.76422V4.76004Z" fill="#FF4A74"/>
</g>
<path d="M11.944 22.3385C11.944 22.3385 16.5321 24.9065 20.0203 15.2534C23.5085 5.60019 19.1796 1.76904 19.1796 1.76904C19.1796 1.76904 13.8428 7.47395 12.5211 12.4385C11.2037 17.399 11.1451 20.0172 11.9398 22.3385H11.944Z" fill="#F00F43"/>
<mask id="mask4_67_6253" style="mask-type:luminance" maskUnits="userSpaceOnUse" x="11" y="1" width="11" height="22">
<path d="M11.944 22.3385C11.944 22.3385 16.5321 24.9065 20.0203 15.2534C23.5085 5.60019 19.1796 1.76904 19.1796 1.76904C19.1796 1.76904 13.8428 7.47395 12.5211 12.4385C11.2037 17.399 11.1451 20.0172 11.9398 22.3385H11.944Z" fill="white"/>
</mask>
<g mask="url(#mask4_67_6253)">
<path d="M21.1202 14.676C22.2829 11.4973 22.8141 8.09277 22.6426 4.69241C22.5548 2.94832 22.2788 1.21259 21.8229 -0.472948C21.6137 -1.25089 20.4008 -0.920474 20.6141 -0.13835C21.1077 1.68939 21.367 3.57569 21.4046 5.46617C21.0868 4.02322 20.4845 2.68901 19.8069 1.33807C19.443 0.614496 18.364 1.25023 18.7237 1.96962C19.5643 3.65098 20.2754 5.28214 20.3799 7.18517C20.4845 9.08402 20.4134 11.0205 20.1666 12.911C20.1039 13.3794 20.0286 13.8395 19.9366 14.2996C19.6271 15.1444 19.2757 15.9767 18.8742 16.7798C18.3389 17.8463 17.724 18.8752 17.0339 19.8497C16.645 20.1467 16.2434 20.4269 15.8168 20.6737C14.7294 21.3136 13.1359 21.9368 12.0526 20.9372C11.4587 20.3893 10.572 21.2759 11.1659 21.8238C12.521 23.0786 14.4199 22.8109 15.9465 22.033C16.072 21.9702 16.1933 21.8991 16.3145 21.8322C16.5362 22.0455 16.875 22.1041 17.126 21.7946C17.3267 21.5436 17.5149 21.2885 17.7073 21.0292C17.3393 21.8824 16.9545 22.7273 16.5613 23.5679C16.2267 24.2957 17.3058 24.9356 17.6446 24.1995C18.4225 22.514 19.1796 20.8284 19.8195 19.1094C19.9366 19.0049 20.0495 18.8961 20.1666 18.7916C20.4385 18.5406 20.4008 18.2144 20.2168 17.9927C20.5807 16.9053 20.8944 15.8011 21.1286 14.6676L21.1202 14.676Z" fill="#DB0E3D"/>
<path opacity="0.43" d="M18.8284 7.32316C18.7238 6.87145 18.0002 6.61214 17.6531 7.12658C16.6995 8.54026 15.9466 10.0794 15.4071 11.698C14.8759 13.2916 14.4702 15.0817 14.4869 16.7672C14.4953 17.3778 14.7379 18.0805 15.4155 18.1976C16.2143 18.3356 16.6995 17.52 17.0926 16.9638C18.0546 15.6045 18.7489 14.036 19.1211 12.4132C19.485 10.8155 19.7652 8.77866 18.8242 7.31898L18.8284 7.32316Z" fill="#FF295A"/>
</g>
</svg>
