<svg width="48" height="76" viewBox="0 0 48 76" fill="none" xmlns="http://www.w3.org/2000/svg">
<path d="M36.6281 38.2175C35.5381 38.0975 29.5781 37.2575 28.1981 32.5475C28.0481 32.0575 27.9581 31.5175 27.9181 30.9375C27.8981 30.6075 27.9181 30.3275 27.9681 30.0975C28.2781 28.4675 29.9381 29.0175 29.9381 29.0175C29.9381 29.0175 32.2181 29.4575 33.5081 31.2775C34.0081 31.9775 34.3581 32.8875 34.3781 34.0575C34.3981 35.2975 34.6181 36.1675 34.9181 36.7875C35.4581 37.9075 36.2681 38.1675 36.6181 38.2275L36.6281 38.2175Z" fill="#266B00"/>
<path d="M29.4579 40.4969C29.3279 37.1272 28.6979 33.7974 28.038 30.4977C27.878 29.7177 26.6881 30.0477 26.848 30.8276C27.998 36.5372 29.1279 42.6368 27.288 48.3364C26.3581 51.2262 24.9182 53.936 23.9283 56.8058C22.9583 59.5956 22.3284 62.4854 22.0384 65.4152C21.6984 68.7949 21.8384 72.2047 22.4184 75.5544C22.5483 76.3344 23.7383 76.0044 23.6083 75.2245C22.5983 69.3149 23.0883 63.1853 24.9982 57.5057C25.9681 54.6259 27.368 51.9061 28.3679 49.0363C29.3079 46.3065 29.5878 43.3867 29.4779 40.5069L29.4579 40.4969Z" fill="#379700"/>
<path d="M27.6185 31.4576C27.6185 31.4576 27.5985 31.4776 27.5885 31.4776C27.3385 31.5976 27.1785 31.8676 27.1085 32.5676C26.9985 33.5276 27.0385 35.3176 27.1985 38.6476C27.4585 44.4076 20.1285 42.8776 20.1285 42.8776C22.7085 42.5876 23.9085 39.9876 22.2585 37.0176C22.1285 36.7876 22.0285 36.5476 21.9585 36.3176C21.0785 33.5376 23.7585 30.7276 23.7585 30.7276C26.2285 28.6176 27.4685 29.8876 27.6985 30.7976C27.7785 31.0976 27.7485 31.3576 27.6285 31.4476L27.6185 31.4576Z" fill="#2E8000"/>
<path d="M40.138 37.2976C39.858 37.7076 36.978 41.6275 32.148 39.7375C29.568 38.7275 29.158 37.4375 28.498 36.1675C28.168 35.5375 27.758 33.9775 27.638 32.5575C27.608 32.1775 27.588 31.7975 27.608 31.4575C27.608 31.2275 27.638 31.0075 27.678 30.8075C27.738 30.5175 27.828 30.2675 27.958 30.0975C28.058 29.9575 28.198 29.8575 28.358 29.8175C28.718 29.7275 30.948 29.6275 32.318 32.1475C32.538 32.5575 32.738 33.0476 32.908 33.6176C33.348 35.1476 34.088 36.1475 34.918 36.7875C37.008 38.3975 39.738 37.7376 40.128 37.2976H40.138Z" fill="#2E8000"/>
<g style="mix-blend-mode:multiply" opacity="0.12">
<path d="M33.5184 31.2778C33.3484 31.6878 32.9284 31.9578 32.3284 32.1478C31.3384 32.4478 29.8684 32.5178 28.1984 32.5478C28.0084 32.5478 27.8284 32.5478 27.6384 32.5578C27.6084 32.1778 27.5884 31.7978 27.6084 31.4578C27.5984 31.4678 27.5884 31.4778 27.5784 31.4778C27.3284 31.5978 27.1684 31.8678 27.0984 32.5678C26.7884 32.5678 26.4784 32.5777 26.1584 32.5877C22.3884 32.6977 21.9484 36.3178 21.9484 36.3178C21.0684 33.5378 23.7484 30.7278 23.7484 30.7278C26.2184 28.6178 27.4584 29.8878 27.6884 30.7978C27.7484 30.5078 27.8384 30.2578 27.9684 30.0878C28.2784 28.4578 29.9384 29.0078 29.9384 29.0078C29.9384 29.0078 32.2184 29.4478 33.5084 31.2678L33.5184 31.2778Z" fill="#003E6B"/>
</g>
<path d="M21.1685 48.7263C20.9385 46.6264 19.7986 43.6766 15.5589 41.8867C12.7491 40.6968 9.03936 42.7367 5.61961 43.8566C2.84981 44.7665 0.020009 44.6865 0.0100098 44.8165C0.0100098 44.8665 0.209995 45.0565 0.55997 45.3265C2.24985 46.6564 7.32949 50.0662 8.61939 50.6361C16.5688 54.1359 21.0485 51.2161 21.0485 51.2161C21.0485 51.2161 21.3185 50.1662 21.1685 48.7263Z" fill="#379700"/>
<path d="M15.0989 53.4861C15.0989 53.4861 11.6992 52.7561 10.0393 52.8861C8.52939 53.0061 6.29954 54.016 4.99964 56.4459C4.43968 57.4958 4.25969 58.7657 4.1397 60.2656C4.04971 61.4355 3.99971 62.7154 3.82972 64.1353C3.59974 66.0552 2.43982 68.425 2.51982 68.475C2.58981 68.535 5.03964 65.7252 5.89957 65.4952C12.0491 63.8353 13.399 62.6154 14.039 62.0655C14.9989 61.2455 15.6289 60.1756 15.8789 58.9657C15.9089 58.8057 15.9389 58.6357 15.9589 58.4757C16.1188 57.0458 15.1089 53.4861 15.1089 53.4861H15.0989Z" fill="#379700"/>
<path d="M41.897 48.1964C40.6571 47.0265 38.7072 45.7966 36.9873 45.6266C34.3875 45.3666 32.8576 46.4565 31.9077 47.2265C30.5078 48.3764 29.2179 51.6662 29.2179 51.6662C29.2179 51.6662 31.3677 52.6161 32.0777 53.446C32.9976 54.516 34.4175 55.3659 36.1774 55.6359C38.7172 56.0159 40.7071 54.9859 41.447 55.0359C44.8568 55.2959 44.4768 59.1656 44.5468 59.1756C44.6668 59.1956 45.6667 51.7562 41.897 48.1964Z" fill="#379700"/>
<path d="M2.51983 68.4845C4.2797 64.7347 5.91959 60.915 8.5594 57.6553C10.0193 56.1054 11.7592 54.9654 13.529 53.8355C16.3088 51.8657 21.5685 50.8157 23.2383 54.7155C23.7783 56.1054 24.0783 57.4453 24.0283 58.9852L23.9483 58.6552C24.4783 59.3751 24.0083 60.1451 23.1883 59.8051C23.1084 59.7651 22.9484 59.7251 22.7684 59.5351C22.5184 59.2151 22.5684 58.9652 22.5784 58.6752C22.7484 57.2053 22.5284 55.7154 22.1784 54.2755C21.9784 53.2456 20.7885 51.8457 20.2286 50.9257C17.6187 47.186 12.6691 45.0662 8.18942 45.9561C5.36963 46.4961 2.63982 45.6861 0.0100098 44.8262C2.60982 45.1361 5.43962 45.7761 7.97944 45.1362C10.7892 44.5062 13.689 45.0362 16.2388 46.2461C18.8087 47.416 20.7585 49.6658 22.1984 52.0457C22.5684 52.6156 22.9984 53.2656 23.1584 54.0355C23.5383 55.5654 23.7583 57.1653 23.5783 58.7452C23.5483 58.8952 23.6183 59.0452 23.5283 58.8752C23.4683 58.8152 23.4783 58.8352 23.5483 58.8652C23.5783 58.8952 23.6983 58.8652 23.4683 58.8952C23.2883 58.9152 23.1384 59.2351 23.1783 59.3251C23.1584 59.2651 23.0584 59.1251 23.0284 59.0652V58.8752C23.0284 53.5755 20.1586 51.9057 15.3289 53.9355C13.1591 55.1554 10.9792 56.5453 9.18935 58.2552C6.53954 61.285 4.66968 65.0547 2.51983 68.4845Z" fill="#2E8000"/>
<path d="M44.2369 55.226C42.867 51.3762 38.8972 48.6564 34.8275 49.8663C31.0378 50.5563 27.1081 52.8261 26.1582 56.7158L25.1782 56.5259C26.2881 52.1462 30.6078 49.8363 34.6975 49.2164C38.9872 48.1765 43.1169 51.1262 44.2369 55.236V55.226Z" fill="#2E8000"/>
<path d="M23.8284 58.2357C23.7784 57.7757 23.8284 57.2957 23.7584 56.8357C23.6884 56.3357 23.4984 55.8357 23.3584 55.3557C23.2184 54.8757 23.0984 54.3857 22.8984 53.9257C22.8684 53.8257 22.7384 53.5957 22.7384 53.5957C22.7384 53.5957 22.6384 53.9557 22.4484 54.0357C22.2184 54.1357 21.8884 53.9657 22.0184 54.0357C22.1584 54.1057 22.1584 54.5457 22.1684 54.6657C22.1884 54.9057 22.1684 55.1557 22.1684 55.3957C22.1384 55.8457 22.0584 56.2857 22.0184 56.7357C21.9384 57.5157 21.9384 58.3857 22.3584 59.0857C22.5284 59.3757 22.7884 59.6357 23.1184 59.7357C23.4084 59.8257 23.7884 59.7757 23.9084 59.4657C24.0584 59.0957 23.8984 58.6157 23.8584 58.2357H23.8284Z" fill="#2E8000"/>
<path d="M27.3282 53.1361C27.3282 53.1361 27.2782 53.2161 27.2482 53.2561C27.2182 53.2561 27.1882 53.2861 27.1582 53.3161C26.2282 54.4361 25.2582 55.6061 24.9182 57.0561C24.9082 57.1061 24.9182 57.1361 24.9282 57.1761C24.9282 57.1961 24.9282 57.2161 24.9282 57.2361C24.9282 57.2661 24.9482 57.2861 24.9682 57.3061C24.9682 57.3161 24.9882 57.3261 24.9982 57.3361C25.0282 57.3861 25.0782 57.4261 25.1582 57.4261C26.0482 57.4061 26.4782 56.5661 26.6782 55.8061C26.8982 54.9761 27.0682 54.1061 27.6082 53.4161C27.7682 53.2061 27.4782 52.9161 27.3182 53.1261L27.3282 53.1361Z" fill="#2E8000"/>
<g style="mix-blend-mode:multiply" opacity="0.12">
<path d="M21.0585 51.216C21.0585 51.216 16.5788 54.1358 8.62937 50.636C7.33946 50.0761 2.25983 46.6563 0.569946 45.3364C0.569946 45.3364 5.90956 48.6962 9.93927 49.9961C12.0191 50.666 16.8688 52.9259 20.6985 50.696C21.0685 50.4761 21.1685 49.5761 21.1685 48.7562V48.7362C21.3285 50.1861 21.0485 51.226 21.0485 51.226L21.0585 51.216Z" fill="#003E6B"/>
</g>
<g style="mix-blend-mode:multiply" opacity="0.12">
<path d="M44.5468 59.1753C44.4768 59.1653 44.8568 55.2955 41.447 55.0356C40.6971 54.9756 38.7172 56.0155 36.1774 55.6355C34.4175 55.3655 32.9976 54.5156 32.0777 53.4457C31.3577 52.6157 29.2179 51.6658 29.2179 51.6658C29.2179 51.6658 30.5578 50.8259 33.4776 53.0557C36.3974 55.2955 41.0171 53.2457 42.4669 54.4756C43.9168 55.7155 44.5268 56.0355 44.5468 59.1753Z" fill="#003E6B"/>
</g>
<g style="mix-blend-mode:multiply" opacity="0.12">
<path d="M15.9498 58.4759C15.9298 58.6359 15.8998 58.8059 15.8698 58.9659C14.9998 56.4959 14.3898 56.1059 10.3598 54.9859C6.38977 53.8859 4.20977 60.0759 4.13977 60.2659C4.25977 58.7659 4.43977 57.4959 4.99977 56.4359C6.28977 54.0059 8.52977 53.0059 10.0398 52.8759C11.6998 52.7459 15.0998 53.4759 15.0998 53.4759C15.0998 53.4759 16.1098 57.0359 15.9498 58.4659V58.4759Z" fill="#003E6B"/>
</g>
<path d="M20.6085 70.2148L21.8485 68.6948L22.0285 70.6448C22.0285 70.6448 21.9485 70.1748 20.6085 70.2248V70.2148Z" fill="#9BA600"/>
<path d="M24.0383 53.7762L25.4483 53.3062L24.7683 54.6262C24.7683 54.6262 24.9083 54.2962 24.0283 53.7762H24.0383Z" fill="#9BA600"/>
<path d="M21.5284 61.8355L22.8484 60.9155L22.5484 62.4855C22.5484 62.4855 22.5884 62.0955 21.5284 61.8355Z" fill="#9BA600"/>
<path d="M23.2684 65.1147C23.2684 65.1147 24.2384 65.5048 24.4484 66.2048C24.4484 66.2048 23.2684 65.9048 23.0784 66.3948L23.2684 65.1147Z" fill="#9BA600"/>
<path d="M27.4781 51.2861C27.4781 51.2861 27.9881 51.7661 27.9581 52.3361C27.9581 52.3361 27.2981 51.8861 27.0681 52.2361L27.4781 51.2861Z" fill="#9BA600"/>
<path d="M29.3779 42.1367C29.3779 42.1367 30.0379 42.4967 30.2379 43.2467C30.2379 43.2467 29.4579 42.9867 29.3779 43.5267V42.1367Z" fill="#9BA600"/>
<path d="M27.5981 47.4766C27.5981 47.4766 26.8981 47.5166 26.5581 47.9766C26.5581 47.9766 27.3481 48.0566 27.3081 48.4666L27.6081 47.4766H27.5981Z" fill="#9BA600"/>
<path d="M28.3181 40.0969C28.3181 40.0969 27.2781 40.8569 27.0781 41.3969C27.0781 41.3969 28.2481 40.7269 28.3281 41.1269V40.0869L28.3181 40.0969Z" fill="#9BA600"/>
<path d="M30.1579 13.799C29.538 14.279 28.848 14.6989 28.1181 15.0589C22.2885 17.9087 13.4591 17.1188 13.4591 17.1188C13.4591 17.1188 -0.4399 14.8789 9.2594 7.58946C10.6193 6.55953 10.8493 3.85972 14.1791 2.60981C15.499 2.11985 16.5389 2.8298 19.3587 2.34983C19.3587 2.34983 21.2485 1.75987 20.8986 0C20.8986 0 20.9186 0.00999928 20.9386 0.0199986C20.9886 0.0499964 21.0786 0.0899935 21.2285 0.159989C21.2285 0.159989 21.2485 0.159989 21.2585 0.169988C21.9785 0.469966 23.8784 1.06992 27.7681 1.18991C29.228 1.23991 30.2879 1.82987 31.0078 2.7298C33.4177 5.71959 32.2078 12.1791 30.1479 13.799H30.1579Z" fill="#D11100"/>
<path d="M7.20947 12.239C7.20947 12.239 7.37946 9.7392 10.4892 8.98925C13.599 8.23931 14.119 9.39923 14.119 9.39923C14.119 9.39923 23.5883 10.0592 24.2083 12.649C24.8282 15.2388 16.7488 17.0687 13.969 15.2588C11.1892 13.4489 7.22947 12.239 7.22947 12.239H7.20947Z" fill="#B51D11"/>
<path d="M23.4884 5.62987C23.4884 5.62987 26.5984 3.11988 28.0484 4.67988C29.4984 6.23988 25.7684 6.42988 25.7684 6.42988C25.7684 6.42988 22.1784 6.67987 23.4884 5.62987Z" fill="#ED4537"/>
<path d="M27.5284 4.67988C27.5284 4.67988 24.7384 4.59988 23.2384 6.17988C21.9484 7.53988 25.3784 12.0199 25.3784 12.0199C25.3784 12.0199 28.6284 5.80988 27.5184 4.67988H27.5284Z" fill="#B00E00"/>
<path d="M11.9593 10.4297C14.3193 6.0097 13.0893 5.1697 17.1493 4.0997C21.2093 3.0297 23.1093 5.7597 23.1093 5.7597C23.1093 5.7597 26.0193 9.1197 20.1993 14.4597C14.3793 19.7997 9.5993 14.8497 11.9493 10.4397L11.9593 10.4297Z" fill="#B00E00"/>
<path d="M16.5689 7.82952C16.6189 7.75952 17.9889 5.58952 20.0389 4.98952C21.7389 4.48952 23.9789 5.60952 24.2189 5.74952C24.8189 6.11952 26.4289 7.04952 23.0389 10.0895C19.6489 13.1295 15.3389 9.84952 16.5689 7.81952V7.82952Z" fill="#ED4537"/>
<path d="M34.8775 6.21945C34.8775 6.21945 37.5773 5.37951 39.8871 7.35937C42.197 9.33923 47.2466 6.81941 47.2466 6.81941C47.2466 6.81941 43.3969 10.8191 43.1469 13.3789C42.8969 15.9388 31.8277 28.7978 27.0981 27.3779C22.3684 25.958 27.0981 7.51936 34.8775 6.22945V6.21945Z" fill="#B00E00"/>
<path d="M14.979 11.8195C14.979 11.8195 17.439 14.0495 17.469 14.7095C17.499 15.3695 24.209 16.4695 24.389 14.5295C24.569 12.5895 23.809 10.0595 22.369 9.71951C20.929 9.37951 14.979 11.8195 14.979 11.8195Z" fill="#A12216"/>
<g style="mix-blend-mode:multiply" opacity="0.24">
<path d="M38.4173 8.89916C38.4173 8.89916 40.9172 9.03915 41.1771 9.52911C41.4371 10.0191 41.9171 13.5188 40.2272 14.9087C38.5373 16.2986 33.4177 24.1081 30.8679 22.6882C28.3181 21.2683 38.4073 8.88916 38.4073 8.88916L38.4173 8.89916Z" fill="#BA4033"/>
</g>
<path d="M24.2184 5.7498C24.2184 5.7498 24.9784 5.1698 25.4584 6.0098C25.9384 6.8498 26.2484 10.6498 26.2484 10.6498L23.6384 14.3598C23.6384 14.3598 21.6984 10.3998 23.0184 9.2398C24.3384 8.0798 24.7284 6.3198 24.2284 5.7398L24.2184 5.7498Z" fill="#BD261A"/>
<path d="M39.1473 12.429C38.1873 14.5689 36.3575 13.449 34.7076 15.5488C33.9876 16.4788 33.1677 16.8587 32.3678 16.9387C30.1979 17.1487 28.1081 15.0589 28.1081 15.0589C29.408 13.679 32.7777 8.8793 30.6279 5.78952C28.378 2.54975 22.6785 0.869872 21.2686 0.169922C21.9885 0.4699 23.8884 1.06986 27.7781 1.18985C29.238 1.23985 30.2979 1.8298 31.0179 2.72974C39.0173 3.2197 36.0875 5.05957 38.7373 8.59932C39.1573 9.15928 40.0972 10.2892 39.1473 12.419V12.429Z" fill="#ED4537"/>
<path d="M21.689 10.8397C19.729 12.1497 16.619 12.8797 15.389 11.3297C14.159 9.79973 15.919 7.25973 18.139 6.21973C18.489 6.26973 18.869 6.35973 19.289 6.49973C22.099 7.42973 22.459 9.35973 21.689 10.8397Z" fill="#E04B3E"/>
<path d="M21.689 10.8395C19.729 12.1495 16.619 12.8795 15.389 11.3295C14.159 9.79952 15.919 7.25952 18.139 6.21952C18.559 6.01952 18.999 5.87952 19.439 5.79952C20.759 5.57952 22.089 6.94952 22.909 7.63952C23.989 8.54952 23.169 9.84952 21.699 10.8295L21.689 10.8395Z" fill="#8C1E13"/>
<path d="M16.0389 10.9293C14.9089 8.37934 17.9689 6.95934 19.4989 7.45934C21.0289 7.95934 20.4989 7.58934 21.2689 7.79934C21.4889 7.85934 21.5489 8.81934 21.0489 9.43934C19.8289 10.9593 16.8489 12.7393 16.0489 10.9293H16.0389Z" fill="#A60C00"/>
<path d="M17.5988 12.3592C17.5988 12.3592 16.0388 8.71925 17.0388 8.42925C18.0388 8.13925 21.7188 7.57925 21.8488 9.18925C21.9788 10.7992 21.3988 11.1592 21.3988 11.1592C21.3988 11.1592 18.3788 13.4492 17.5888 12.3592H17.5988Z" fill="#B51000"/>
<path d="M21.6891 10.8399C21.4591 11.2799 21.1291 11.6899 20.7391 12.0099C15.6191 16.2599 12.3891 11.0299 14.9391 7.87987C14.9391 7.87987 15.4891 5.84987 18.1391 6.21987C15.9191 7.25987 14.1591 9.79987 15.3891 11.3299C16.6191 12.8699 19.7291 12.1399 21.6891 10.8399Z" fill="#ED4537"/>
<path d="M7.20947 12.2391C7.20947 12.2391 12.1391 14.829 13.379 18.5687C14.329 21.4285 23.4783 18.6287 24.0583 14.9989C24.1983 14.129 24.9882 11.7692 23.7683 12.0292C23.1283 12.1692 20.7985 14.159 18.3987 14.179C15.2589 14.199 11.8491 12.2091 10.5992 12.1392C9.15933 12.0492 7.90942 12.4291 7.20947 12.2491V12.2391Z" fill="#ED2413"/>
<path d="M28.7386 14.5598C28.1386 16.1698 24.4886 16.5898 22.1486 16.6898C21.0086 16.7398 20.1686 16.7098 20.1686 16.7098V16.2198C25.8486 13.5498 27.5186 4.66983 27.5186 4.66983C28.6186 4.08983 28.7086 6.71983 28.2886 9.55983C28.2786 9.62983 28.2686 9.69983 28.2686 9.76983C28.0586 11.7698 29.1186 13.5298 28.7386 14.5498V14.5598Z" fill="#FC5446"/>
<g style="mix-blend-mode:multiply" opacity="0.24">
<path d="M28.7386 14.5593C28.1386 16.1693 22.9286 17.2193 20.4786 16.0793C22.5486 15.6193 27.2186 13.3593 28.2686 9.7793C28.0586 11.7793 29.1186 13.5393 28.7386 14.5593Z" fill="#D11400"/>
</g>
<path d="M0.280029 34.4474C0.280029 34.4474 5.52965 28.8478 5.79963 24.6981C6.06961 20.5484 20.1786 23.9381 20.1786 23.9381L17.6088 31.6076C17.6088 31.6076 14.639 30.3977 12.8491 32.6575C11.0593 34.9173 7.95948 35.7573 7.03954 33.7174C6.3296 32.1375 0.280029 34.4374 0.280029 34.4374V34.4474Z" fill="#B00E00"/>
<g style="mix-blend-mode:multiply" opacity="0.24">
<path d="M39.1478 12.4294C38.1878 14.5694 36.3578 13.4494 34.7078 15.5494C33.9878 16.4794 33.1678 16.8594 32.3678 16.9394L32.3478 15.7894C32.3478 15.7894 32.9278 15.5994 33.7978 14.7294C34.6578 13.8594 37.1078 12.1494 38.3978 11.4694C39.6378 10.8094 38.8078 8.75938 38.7478 8.60938C39.1678 9.16938 40.1078 10.2994 39.1578 12.4294H39.1478Z" fill="#BA4033"/>
</g>
<path d="M6.60962 19.4888C6.60962 19.4888 6.98959 18.8688 13.6491 19.0388C23.5984 19.2888 28.2781 28.8381 28.2781 28.8381C28.2781 28.8381 19.7787 30.568 19.2887 30.358C18.7987 30.148 6.60962 19.4788 6.60962 19.4788V19.4888Z" fill="#9C0D00"/>
<path d="M33.1477 17.7587C33.1077 21.8884 30.0379 24.1483 25.9482 26.5881C22.7584 28.4979 18.6487 26.6181 16.0589 24.3082C14.899 23.2683 14.049 22.1584 13.7291 21.2585C13.5791 20.8385 13.2691 20.3885 12.8691 19.9386C12.3592 19.3686 11.6792 18.7886 10.9293 18.2187C8.16945 16.1388 4.45972 14.319 4.45972 14.319C5.25966 13.809 7.14952 14.5589 9.83933 15.3889C12.0192 16.0688 14.719 16.7888 17.8088 16.9488C23.3184 17.2387 28.138 15.0389 28.138 15.0389C28.138 15.0389 29.3979 13.659 30.6578 13.409C31.4978 13.239 32.3377 13.569 32.8077 15.1089C32.8877 15.3589 32.9577 15.6389 33.0077 15.9488C33.0077 15.9588 33.0077 15.9788 33.0077 15.9888C33.0977 16.5288 33.1477 17.0388 33.1577 17.5187C33.1577 17.5887 33.1577 17.6687 33.1577 17.7487L33.1477 17.7587Z" fill="#D11100"/>
<path d="M17.0789 8.22956C17.0789 8.22956 17.2889 6.67956 18.9789 6.82956C20.6689 6.97956 21.7489 7.33956 21.7789 8.31956C21.8089 9.29956 17.3789 8.85956 17.0789 8.22956Z" fill="#CC3021"/>
<path d="M19.6388 7.30932C22.9988 7.44932 21.3988 11.1693 21.3988 11.1693C21.3988 11.1693 21.0088 10.1393 20.1188 9.50932C19.2788 8.91932 17.9288 8.72932 17.7488 8.58932C16.8288 7.84932 18.3688 7.24932 19.6388 7.30932Z" fill="#69241D"/>
<path d="M17.1189 7.67918C16.5089 7.85918 15.5689 9.29918 16.9489 9.18918C19.9489 8.94918 21.4089 11.1592 21.4089 11.1592C21.4089 11.1592 21.2189 10.2092 20.6389 9.38918C19.4789 7.76918 17.7389 7.48918 17.1289 7.66918L17.1189 7.67918Z" fill="#ED4537"/>
<g style="mix-blend-mode:multiply" opacity="0.24">
<path d="M33.1476 17.7588C33.1076 21.8885 30.0378 24.1483 25.9481 26.5882C22.7584 28.498 18.6487 26.6182 16.0588 24.3083C16.3088 24.4483 22.9183 28.0381 28.268 23.1984C32.2577 19.5787 33.0176 18.2288 33.1376 17.7588H33.1476Z" fill="#BA4033"/>
</g>
<path d="M19.6387 7.30953C19.6387 7.30953 21.5087 7.67953 21.6287 8.66953C21.6587 8.92953 21.2287 9.73953 21.2087 10.0395C21.1587 10.8695 21.3987 11.1795 21.3987 11.1795C21.3987 11.1795 22.0587 10.7095 22.3087 9.93953C22.4487 9.48953 23.0487 6.71953 19.6387 7.31953V7.30953Z" fill="#FC5446"/>
<g style="mix-blend-mode:multiply" opacity="0.24">
<path d="M6.90962 26.4482C6.90962 26.4482 3.86962 30.0882 6.07962 30.7882C8.28962 31.4882 15.3196 29.5582 16.7596 29.9482C18.1996 30.3382 6.90962 26.4482 6.90962 26.4482Z" fill="#A83A2E"/>
</g>
<path d="M33.8477 3.84939C35.0977 3.39939 36.1877 3.91939 36.2977 5.78939C36.4077 7.65939 37.5577 7.46939 37.5577 8.74939C37.5577 10.0294 38.0277 11.4494 35.2477 12.5494C32.4677 13.6494 33.1277 14.5894 32.8577 14.3794C31.4477 13.3094 33.5977 12.1394 34.5877 11.3494C35.5777 10.5594 36.7177 8.28939 35.6077 6.83939C34.4977 5.38939 33.4277 4.01939 33.8477 3.86939V3.84939Z" fill="#FF6B5E"/>
<g style="mix-blend-mode:multiply" opacity="0.24">
<path d="M32.9777 15.959C32.9777 16.259 32.9077 16.589 32.7577 16.9389C30.8578 21.3186 21.8685 18.5588 19.9386 18.1388C18.0087 17.7189 12.8491 19.9387 12.8491 19.9387L10.9092 18.2188L8.17944 15.789L9.82933 15.389C12.0092 16.069 14.709 16.7889 17.7988 16.9489C23.3084 17.2389 28.128 15.0391 28.128 15.0391C28.128 15.0391 29.3879 13.6592 30.6478 13.4092C31.6378 13.8291 32.4377 14.3891 32.7977 15.1091C32.9277 15.369 32.9977 15.649 32.9977 15.949L32.9777 15.959Z" fill="#BA4033"/>
</g>
<path d="M28.368 29.8177C28.268 30.8676 27.408 32.3975 23.2183 32.2575C23.2183 32.2575 19.6986 36.7772 15.1789 29.9477C15.1789 29.9477 3.66974 29.3177 3.00979 23.3281C2.95979 22.8782 2.9098 22.1682 3.04979 21.4583C3.25977 20.4283 3.88973 19.3984 5.55961 19.1884C8.08943 18.8684 11.8792 23.2681 17.1288 25.478C22.3784 27.6878 25.8482 26.5779 28.268 28.8377C28.268 28.8377 28.418 29.2577 28.368 29.8077V29.8177Z" fill="#ED4537"/>
<path d="M4.84971 14.3191C4.84971 14.3191 6.13962 16.3089 5.87964 17.7088C5.52966 19.6187 9.88935 21.0086 15.319 18.3088C20.7486 15.609 25.1583 17.8588 26.1782 18.2388C28.038 18.9287 33.6077 19.3287 33.0777 14.789C32.6177 10.8293 29.5079 14.699 27.0881 15.149C25.9382 15.369 20.0886 16.3589 15.5389 16.2989C14.199 16.2789 12.7691 16.0589 11.6092 15.729C8.18947 14.739 5.46967 13.6391 4.82971 14.3191H4.84971Z" fill="#FC5446"/>
<path d="M47.6366 13.9789C47.6366 13.9789 45.4668 14.4988 45.1868 19.7484C44.9068 25.0081 40.9071 23.4282 38.3173 26.308C35.7275 29.1778 30.5078 30.5077 28.388 29.3178C28.038 29.1278 27.788 28.8578 27.618 28.5278C26.7481 26.8479 28.168 23.7482 31.2878 22.5482C35.0175 21.1183 35.5775 15.8787 35.5775 15.8787C35.5775 15.8787 36.4874 10.8291 42.167 12.359C47.4566 13.7889 47.6366 13.9589 47.6366 13.9689V13.9789Z" fill="#FF6A5E"/>
<path d="M7.42956 11.4189C7.42956 11.4189 6.33956 12.9289 8.55956 12.7289C12.6696 12.3589 16.7596 15.3689 20.3996 13.7689C20.3996 13.7689 11.9296 12.1989 10.2796 12.0589C8.37956 11.8989 7.57956 12.2789 7.42956 11.4189Z" fill="#FC5446"/>
<g style="mix-blend-mode:multiply" opacity="0.24">
<path d="M47.6366 13.9788C47.6366 13.9788 45.4668 14.4988 45.1868 19.7484C44.9068 25.008 40.9071 23.4281 38.3173 26.3079C35.7275 29.1777 30.5078 30.5076 28.388 29.3177C28.038 29.1277 27.788 28.8577 27.618 28.5277C27.618 28.5277 35.9474 28.6277 37.4973 24.698C39.0472 20.7683 44.3768 24.578 43.8869 20.6983C43.3969 16.8086 44.9768 13.8188 47.6366 13.9788Z" fill="#BA4033"/>
</g>
<g style="mix-blend-mode:screen" opacity="0.22">
<path d="M29.6779 24.5982C31.1979 23.3982 33.6979 22.1082 34.0579 22.6282C34.6579 23.4982 31.9279 24.2682 30.2079 26.0582C28.8479 27.4682 28.6579 25.4182 29.6779 24.6082V24.5982Z" fill="#FFF8AB"/>
</g>
<g style="mix-blend-mode:screen" opacity="0.22">
<path d="M36.6474 17.209C35.5474 17.029 37.1074 12.989 39.8674 13.379C40.8774 13.519 41.3074 13.749 41.3674 13.979C41.4774 14.369 39.5474 13.899 38.5274 14.679C37.3374 15.579 37.4874 17.359 36.6374 17.219L36.6474 17.209Z" fill="#FFF8AB"/>
</g>
<g style="mix-blend-mode:screen" opacity="0.22">
<path d="M18.1288 29.8081C17.4388 30.2481 19.6588 32.5181 21.4088 31.4581C22.0488 31.0681 22.2688 30.7881 22.2488 30.6181C22.2088 30.3281 21.0488 31.1981 20.1388 30.9681C19.0788 30.7081 18.6588 29.4681 18.1288 29.8081Z" fill="#FFF8AB"/>
</g>
<g style="mix-blend-mode:screen" opacity="0.22">
<path d="M6.12958 15.049C6.74958 14.309 7.92958 15.309 9.86958 16.429C10.9996 17.089 14.2796 16.699 14.8496 17.179C15.4196 17.659 11.4896 18.899 9.15958 17.759C6.67958 16.559 5.88958 15.339 6.12958 15.049Z" fill="white"/>
</g>
<g style="mix-blend-mode:screen" opacity="0.22">
<path d="M4.92971 20.6985C5.63971 20.4785 5.93971 22.8285 7.60971 23.9885C8.58971 24.6685 11.4097 24.9685 11.3697 25.6185C11.3297 26.2685 7.34971 25.6185 6.29971 24.5685C3.88971 22.1685 4.65971 20.7885 4.93971 20.6985H4.92971Z" fill="white"/>
</g>
<g style="mix-blend-mode:screen" opacity="0.22">
<path d="M27.0181 16.9589C27.0981 17.6589 29.9981 17.8389 31.3881 16.7789C32.6581 15.8089 32.5381 14.1589 31.9381 14.0689C31.3381 13.9789 31.2081 15.4489 30.4581 15.7989C29.3781 16.2989 26.9081 16.0389 27.0081 16.9589H27.0181Z" fill="white"/>
</g>
<g style="mix-blend-mode:multiply" opacity="0.24">
<path d="M28.368 29.8179C28.268 30.8678 27.408 32.3977 23.2183 32.2577C23.2183 32.2577 19.6986 36.7774 15.1789 29.9479C15.1789 29.9479 3.66974 29.3179 3.00979 23.3284C2.95979 22.8784 2.9098 22.1684 3.04979 21.4585C3.04979 21.4585 3.39976 25.3682 8.86937 26.5381C14.329 27.708 15.8389 28.578 16.7188 30.3879C17.5987 32.1977 21.8384 33.1077 23.0584 31.5278C24.2883 29.9579 25.3682 32.3877 28.368 29.8179Z" fill="#BA4033"/>
</g>
</svg>
