<svg width="91" height="100" viewBox="0 0 91 100" fill="none" xmlns="http://www.w3.org/2000/svg">
<path d="M60.9319 38.6234C60.6819 39.4233 61.1819 40.2733 61.1819 40.2733C61.1819 40.2733 60.4569 45.9481 57.057 43.7232C53.6322 41.5232 56.4071 36.3734 56.4071 36.3734C56.5321 36.4734 56.6571 36.5234 56.782 36.5734C57.557 36.8734 58.257 36.3734 58.257 36.3734L59.9569 33.9985L63.0818 36.1735C63.0818 36.1735 61.6819 37.4984 61.1569 38.2734C61.0319 38.4234 60.9819 38.5484 60.9569 38.6234H60.9319Z" fill="#F7D8AA"/>
<g style="mix-blend-mode:multiply" opacity="0.18">
<path d="M63.0819 36.1735C63.0819 36.1735 61.682 37.4984 61.157 38.2734C60.407 38.4734 59.682 38.6234 58.9821 38.5984C57.3571 38.5484 56.9321 37.3484 56.8322 36.5734C57.6071 36.8734 58.3071 36.3734 58.3071 36.3734L60.007 33.9985L63.1319 36.1735H63.0819Z" fill="#C47A2F"/>
</g>
<path d="M56.4323 36.3485L52.9824 33.9986C52.9824 33.9986 45.7577 25.7739 38.433 27.9238C31.1082 30.0738 28.8583 36.3735 28.8583 36.3735L27.0584 38.7234C27.0584 38.7234 24.5835 40.3734 24.7585 40.6983C25.2085 41.5233 26.8584 39.7234 27.1584 40.0234C27.4584 40.3234 25.0585 43.0732 25.8835 43.5232C26.5834 43.8732 28.1584 40.6983 28.4834 40.8733C28.8083 41.0483 28.0584 44.6982 28.8833 44.7482C29.7083 44.7982 29.5083 40.9483 29.9083 40.9233C30.3083 40.8983 30.5833 44.5232 31.4832 44.3482C31.9582 44.2732 31.6082 42.8733 31.5582 41.5733C31.5082 40.2734 31.7832 39.1484 31.7832 39.1484C31.7832 39.1484 32.1832 39.4234 32.4332 39.7484C32.8082 40.2734 33.1582 40.9733 33.5582 40.8233C34.1831 40.5983 33.3832 38.8734 32.1582 37.4735C30.7333 35.8735 37.608 31.3737 39.9329 31.4487C42.2578 31.5237 45.7577 32.3987 47.8326 36.1485L34.8081 50.498L47.7326 61.5475L61.0821 47.9981C61.0821 47.9981 65.3569 52.4979 69.1818 53.7228C73.8066 55.1728 77.9064 53.5978 80.9813 49.198C80.9813 49.198 83.1312 47.7981 83.8562 46.3731C83.8562 46.3731 86.6311 45.3732 86.1811 44.6982C85.9561 44.3482 84.1812 45.1732 83.9312 44.8982C83.6812 44.6232 86.0811 43.0733 85.6561 42.3483C85.2312 41.6233 83.2812 44.0232 83.0562 43.7732C82.8312 43.5232 83.9812 40.4983 83.4062 40.4234C82.9312 40.3484 82.5813 41.2733 82.3563 42.0983C82.1313 42.9233 81.8563 43.5732 81.6563 43.4982C81.4563 43.4232 81.4563 42.7233 81.3563 41.9233C81.2813 41.0483 81.3063 40.1734 80.8563 40.1734C80.3563 40.1734 80.4813 41.0983 80.4563 41.9733C80.3813 44.5982 79.5814 44.7482 79.5814 44.7482C79.5814 44.7482 79.1564 44.5732 78.8064 44.2232C78.5064 43.9232 77.9814 42.7233 77.6314 42.9483C76.9815 43.3482 78.3064 45.7481 78.3314 45.9981C78.3564 46.2481 78.5314 46.7731 78.6314 47.6231C78.6314 47.6231 75.6065 51.6479 71.2817 49.973C68.0318 48.723 64.632 45.8731 63.357 43.0982C62.0821 40.3234 61.1821 40.2734 61.1821 40.2734C61.1821 40.2734 56.3823 41.3483 56.4073 36.3485H56.4323Z" fill="#F7D8AA"/>
<path d="M55.8071 77.4971C55.4321 80.572 44.3576 87.8717 44.3576 87.8717C44.3576 87.8717 42.2077 87.3967 41.9827 85.3718C41.9827 85.0718 41.9827 84.7468 42.0327 84.3718C42.0327 84.3718 50.5323 78.2721 50.6823 76.5471C50.8323 74.8222 46.3825 71.5223 46.3825 71.5223L50.3573 68.0225C50.3573 68.0225 51.0323 68.7724 51.9323 69.8724C53.6322 72.0223 56.0821 75.4722 55.8071 77.4971Z" fill="#F7D8AA"/>
<g style="mix-blend-mode:multiply" opacity="0.18">
<path d="M51.9323 69.8724C51.5823 71.2473 51.0823 73.8222 51.1823 75.3472C51.3073 77.5221 50.9823 79.972 42.1077 85.2718C42.0577 85.2718 42.0077 85.3468 41.9827 85.3718C41.9827 85.0718 41.9827 84.7468 42.0327 84.3718C42.0327 84.3718 50.5323 78.2721 50.6823 76.5471C50.8323 74.8222 46.3825 71.5223 46.3825 71.5223L50.3573 68.0225C50.3573 68.0225 51.0323 68.7724 51.9323 69.8724Z" fill="#C47A2F"/>
</g>
<path d="M10.8089 81.5714C10.8089 81.5714 19.1335 76.9716 21.6084 74.9467C24.0834 72.9218 27.0832 70.1719 27.0832 70.1719L29.4831 73.5717C29.4831 73.5717 26.2083 76.6966 22.1084 79.6965C19.2085 81.8214 15.8087 83.7714 13.2838 84.9463C7.209 87.8212 9.08393 81.8714 10.7839 81.5464L10.8089 81.5714Z" fill="#F7D8AA"/>
<g style="mix-blend-mode:multiply" opacity="0.18">
<path d="M10.8089 81.5714C10.8089 81.5714 19.1335 76.9716 21.6084 74.9467C24.0834 72.9218 27.0832 70.1719 27.0832 70.1719L29.4831 73.5717C29.4831 73.5717 26.2083 76.6966 22.1084 79.6965C19.2085 81.8214 15.8087 83.7714 13.2838 84.9463C7.209 87.8212 9.08393 81.8714 10.7839 81.5464L10.8089 81.5714Z" fill="#C47A2F"/>
</g>
<path d="M22.6584 64.9723C22.6584 64.9723 23.1584 72.947 32.9581 77.9468C32.9581 77.9468 37.0579 77.2218 40.8327 71.697C44.6076 66.1723 29.3082 58.3726 29.3082 58.3726C29.3082 58.3726 26.2833 63.3224 22.6584 64.9723Z" fill="#2D4D57"/>
<path d="M52.1573 66.4226C50.1324 70.7975 47.9825 73.4474 46.0326 75.0723C45.8326 75.2473 45.6576 75.4223 45.4576 75.5473C45.2576 75.6973 45.0326 75.8723 44.8326 75.9723C44.6076 76.1223 44.4076 76.2723 44.1826 76.3473C41.0078 78.1222 38.6578 77.2972 38.6578 77.2972C32.3581 73.1974 28.0832 63.4727 28.1332 59.6979C28.1832 55.848 31.0331 53.2231 31.0331 53.2231L41.9577 57.448L52.2073 66.4226H52.1573Z" fill="#375D69"/>
<path d="M44.8328 75.947C44.6078 76.097 44.4078 76.247 44.1828 76.322C43.0828 75.422 41.8329 74.3721 40.4079 73.1471C30.5583 64.7724 34.6581 56.1978 34.6581 56.1978L35.1581 56.9477C33.6832 60.5476 34.6081 65.4474 37.508 68.9973C39.383 71.3472 42.1829 73.8471 44.8328 75.947Z" fill="#DEF7FF"/>
<path d="M46.0325 75.0468C45.8325 75.2218 45.6575 75.3968 45.4575 75.5218C44.4576 74.7468 43.3826 73.8719 42.1827 72.8969C32.008 64.4222 36.2079 55.9976 36.2079 55.9976L36.8579 56.9725C35.3829 60.5724 36.4329 65.5722 39.4328 69.0221C41.4827 71.397 43.8326 73.4219 46.0575 75.0718L46.0325 75.0468Z" fill="#DEF7FF"/>
<path d="M63.082 42.2983C63.082 42.2983 62.1321 45.8732 60.1072 49.898C57.0573 55.8728 52.1325 63.1475 48.5326 63.1475C40.1079 63.0975 34.0332 56.8727 32.3332 55.5228C31.4083 54.7978 30.8333 53.8479 30.4333 53.0479C29.9083 51.9729 29.7833 51.073 29.7833 51.073C29.7833 51.073 31.2083 51.248 33.9582 49.798C36.1831 48.5731 44.7827 38.6985 45.2077 38.8984C45.3077 38.9484 45.0827 39.0234 45.2577 39.0984C48.3826 40.5484 52.9824 33.9736 52.9824 33.9736C53.3074 34.0486 53.6074 34.1236 53.9324 34.2986C55.3323 34.9736 56.4323 36.3485 56.4323 36.3485C56.4323 36.3485 54.4824 39.6984 56.6323 41.7733C58.7822 43.8732 61.2071 40.2734 61.2071 40.2734C61.9321 40.2734 63.157 41.9733 63.107 42.3233L63.082 42.2983Z" fill="#7BE650"/>
<path d="M38.8329 85.4967C38.8329 85.4967 39.0829 85.6467 39.1579 85.8217C39.2329 85.9967 38.6329 86.2467 38.6329 86.2467C38.6329 86.2467 38.3329 85.4717 38.8579 85.4967H38.8329Z" fill="#93C5DB"/>
<path d="M38.7579 85.7966L41.0328 84.4466C41.2578 83.8966 42.0328 83.3717 42.5327 84.0216C42.5327 84.0216 41.4578 84.5216 42.5327 86.0216C43.6077 87.5215 44.5077 87.7215 45.1326 87.3215C45.1326 87.3215 45.0576 88.6715 43.7827 88.3465L41.6078 89.7714C41.6078 89.7714 38.5079 88.4215 38.7579 85.7716V85.7966Z" fill="#002333"/>
<g style="mix-blend-mode:overlay">
<path d="M41.6828 84.4463C41.6828 84.4463 41.5578 87.4962 44.1077 88.0712C44.9326 88.2461 44.8076 87.6712 44.8076 87.6712C44.8076 87.6712 44.0077 87.9462 43.2077 87.3462C42.4077 86.7462 41.9327 86.0212 41.6828 84.4463Z" fill="#93C5DB"/>
</g>
<path d="M44.0577 98.4465C44.0577 98.4465 43.8077 99.3715 43.2577 99.7965C43.0827 99.9215 42.8577 100.021 42.6077 99.9965C40.9828 99.8715 38.7829 98.8215 35.433 95.6966C33.4081 93.7967 32.6081 91.8468 32.2831 90.4218C32.0831 89.4719 32.0831 88.7719 32.0831 88.4969C32.0831 88.0969 32.3081 87.847 32.6581 87.697C32.9581 87.547 33.3081 87.422 33.6831 87.347C34.408 87.147 34.333 87.747 34.333 87.747L34.758 89.5969L34.983 90.5469L44.1327 98.4715L44.0577 98.4465Z" fill="#93C5DB"/>
<g style="mix-blend-mode:multiply">
<path d="M43.2328 99.7963C43.0578 99.9213 42.8328 100.021 42.5828 99.9963C40.9579 99.8713 38.758 98.8213 35.4081 95.6965C33.3832 93.7965 32.5832 91.8466 32.2582 90.4217C32.0582 89.4717 32.0582 88.7717 32.0582 88.4967C32.0582 88.0968 32.2832 87.8468 32.6332 87.6968C32.2082 88.3468 32.3332 91.6716 34.4331 94.3215C36.883 97.4214 41.7329 100.346 43.2578 99.7963H43.2328Z" fill="#93C5DB"/>
</g>
<path d="M45.0828 97.6963C44.8078 98.0213 44.4828 98.2713 44.0578 98.4463C44.0578 98.4463 41.7079 99.0213 38.508 95.7464C37.0081 94.2464 34.9582 91.9215 34.3582 89.6466C34.2082 88.9966 34.1582 88.3717 34.2582 87.7217C34.2582 87.7217 34.9082 87.2467 35.5581 87.2467C36.2081 87.2467 37.4081 84.7718 38.833 85.4968C38.833 85.4968 38.758 85.9218 38.908 86.5217C39.083 87.4217 39.708 88.7217 41.6579 89.7716C41.6579 89.7716 41.6579 89.7716 41.7079 89.8466V89.8966C41.8329 90.0716 41.9329 90.4966 41.2829 91.0466C41.4579 91.3215 42.9329 93.2715 43.4078 93.2715C43.8078 93.2715 44.1828 93.3215 44.4828 93.4465C46.0577 94.0465 46.3077 96.3464 45.0578 97.6963H45.0828Z" fill="#DCF2FC"/>
<path d="M43.4077 93.2712C43.4077 93.2712 43.3577 93.2712 43.2827 93.3712C43.0327 93.5712 42.3827 94.0212 41.3078 94.3962C41.2328 94.3962 41.1828 94.4462 41.1078 94.4462C39.8078 94.6211 38.8579 92.6962 39.0329 92.2462C39.1579 91.8213 40.5078 91.3713 41.1328 91.1463C41.2078 91.1463 41.2578 91.0963 41.2828 91.0713C41.2828 91.0713 41.3578 91.0713 41.3828 91.0713C41.4078 91.0713 41.4328 91.0713 41.4328 91.0713C41.7578 91.1463 42.0328 91.8463 42.5827 92.2212C43.8077 93.1462 43.4327 93.2962 43.4327 93.2962L43.4077 93.2712Z" fill="#93C5DB"/>
<g style="mix-blend-mode:overlay" opacity="0.24">
<path d="M45.0828 97.696C44.2828 97.646 43.5828 97.246 43.4578 96.346C43.3328 95.4711 43.8328 94.1211 43.7828 93.9711C43.6828 93.7711 43.5328 93.5711 43.3078 93.3711C42.6079 92.7212 41.4329 92.0712 41.1579 91.1462C41.0329 90.7463 41.3079 90.6463 41.4579 90.4463C41.5829 90.2213 41.6079 89.8963 41.6579 89.8213C41.6579 89.8213 41.7079 89.8213 41.7579 89.8713V89.9213C41.8829 90.0963 41.9829 90.5213 41.3329 91.0712C41.3329 91.0712 41.4079 91.0712 41.4329 91.0712C41.4579 91.0712 41.4829 91.0712 41.4829 91.0712C41.8079 91.1462 42.0829 91.8462 42.6329 92.2212C43.8578 93.1462 43.4828 93.2962 43.4828 93.2962C43.8828 93.2962 44.2578 93.3462 44.5578 93.4711C46.1327 94.0711 46.3827 96.371 45.1328 97.721L45.0828 97.696Z" fill="#EBF9FF"/>
</g>
<g style="mix-blend-mode:multiply">
<path d="M38.9078 86.547C38.9078 86.547 37.0329 87.422 36.5579 88.472C36.2329 89.2219 35.233 89.4969 34.683 89.5969C34.483 89.6469 34.333 89.6719 34.333 89.6719C34.333 89.6719 34.333 89.4469 33.508 89.8469C33.208 89.9719 32.908 90.1469 32.6081 90.2719C32.4831 90.3469 32.3331 90.3969 32.2331 90.4469C32.0331 89.4969 32.0331 88.7969 32.0331 88.522C32.0331 88.122 32.2581 87.872 32.6081 87.722C32.908 87.572 33.258 87.447 33.633 87.372C34.358 87.172 34.283 87.772 34.283 87.772C34.283 87.772 34.933 87.297 35.5829 87.297C36.2329 87.297 37.4329 84.8221 38.8578 85.5471C38.8578 85.5471 38.7828 85.9721 38.9328 86.572L38.9078 86.547Z" fill="#DCF2FC"/>
</g>
<g style="mix-blend-mode:multiply">
<path d="M41.4078 91.0465C41.4078 91.0465 41.3578 91.0465 41.2828 91.0465C41.2328 91.0965 41.1828 91.0965 41.1328 91.1215C40.5578 91.3715 39.2328 91.9215 39.3578 92.4214C39.4828 93.0464 39.9328 94.1214 41.0828 94.3964C39.7828 94.5713 38.8329 92.6464 39.0079 92.1964C39.1329 91.7715 40.4828 91.3215 41.1078 91.0965C41.1828 91.0965 41.2328 91.0465 41.2578 91.0215C41.2578 91.0215 41.3328 91.0215 41.3578 91.0215C41.3828 91.0215 41.4078 91.0215 41.4078 91.0215V91.0465Z" fill="#93C5DB"/>
</g>
<path d="M7.059 82.9469C7.059 82.9469 7.30899 83.0969 7.38399 83.2719C7.45899 83.4469 6.85901 83.6969 6.85901 83.6969C6.85901 83.6969 6.55902 82.9219 7.084 82.9469H7.059Z" fill="#93C5DB"/>
<path d="M6.95915 83.2223L9.28406 81.9473C9.53405 81.3973 10.309 80.9224 10.809 81.5973C10.809 81.5973 9.70905 82.0723 10.734 83.5973C11.759 85.1222 12.6339 85.3472 13.2839 84.9972C13.2839 84.9972 13.1839 86.3222 11.884 85.9722L9.65905 87.3221C9.65905 87.3221 6.60917 85.8722 6.93415 83.2223H6.95915Z" fill="#002333"/>
<g style="mix-blend-mode:overlay">
<path d="M9.93398 81.9722C9.93398 81.9722 9.70899 84.9971 12.2339 85.672C13.0339 85.897 12.9339 85.297 12.9339 85.297C12.9339 85.297 12.1339 85.547 11.3589 84.9221C10.584 84.2971 10.134 83.5721 9.93398 81.9722Z" fill="#93C5DB"/>
</g>
<path d="M11.8588 96.0212C11.8588 96.0212 11.5588 96.9462 11.0088 97.3461C10.8088 97.4711 10.5838 97.5711 10.3338 97.5211C8.73388 97.3461 6.55896 96.2462 3.30909 92.9963C1.35916 91.0464 0.60919 89.0465 0.3342 87.6215C0.159207 86.6716 0.184206 85.9716 0.209205 85.6966C0.209205 85.2966 0.459196 85.0466 0.784183 84.8966C1.08417 84.7466 1.43416 84.6466 1.80914 84.5466C2.55911 84.3716 2.45912 84.9716 2.45912 84.9716L2.8091 86.8466L3.0091 87.7965L11.8838 96.0212H11.8588Z" fill="#93C5DB"/>
<g style="mix-blend-mode:multiply">
<path d="M10.9839 97.3709C10.7839 97.4959 10.5589 97.5959 10.3089 97.5459C8.70897 97.3709 6.53406 96.2709 3.28418 93.0211C1.33426 91.0711 0.584288 89.0712 0.309298 87.6463C0.134305 86.6963 0.159304 85.9963 0.184303 85.7214C0.184303 85.3214 0.434293 85.0714 0.759281 84.9214C0.284299 85.5214 0.334297 88.8712 2.33422 91.5961C4.68413 94.771 9.45895 97.8459 10.9839 97.3459V97.3709Z" fill="#93C5DB"/>
</g>
<path d="M12.8837 95.3465C12.5838 95.6714 12.2588 95.8964 11.8588 96.0464C11.8588 96.0464 9.48387 96.5464 6.38399 93.1715C4.90905 91.6216 2.93412 89.2217 2.43414 86.9468C2.30915 86.2968 2.28415 85.6718 2.43414 85.0218C2.43414 85.0218 3.08412 84.5719 3.73409 84.5969C4.38407 84.5969 5.65902 82.197 7.05897 82.9469C7.05897 82.9469 6.95897 83.3719 7.05897 83.9719C7.20896 84.8719 7.80894 86.1968 9.68386 87.2968C9.68386 87.2968 9.68386 87.2968 9.73386 87.3718V87.4218C9.85886 87.5968 9.93385 87.9967 9.30888 88.5467C9.45887 88.8467 10.8588 90.8466 11.3338 90.8716C11.7338 90.8716 12.1088 90.9466 12.4088 91.0716C13.9587 91.7216 14.1337 94.0465 12.8587 95.3465H12.8837Z" fill="#DCF2FC"/>
<path d="M11.3589 90.8463C11.3589 90.8463 11.3089 90.8463 11.2339 90.9213C10.9839 91.1213 10.3089 91.5463 9.23396 91.8713C9.15896 91.8713 9.10897 91.9213 9.03397 91.9213C7.70902 92.0463 6.83405 90.0963 7.03405 89.6464C7.18404 89.2214 8.50899 88.8214 9.18396 88.6214C9.25896 88.6214 9.30896 88.5714 9.33396 88.5464H9.43395H9.48395C9.80894 88.6214 10.0589 89.3464 10.5839 89.7213C11.7839 90.6963 11.3839 90.8463 11.3839 90.8463H11.3589Z" fill="#93C5DB"/>
<g style="mix-blend-mode:multiply">
<path d="M12.8837 95.3461C12.5837 95.6711 12.2587 95.896 11.8588 96.046C11.8588 96.046 11.5588 96.971 11.0088 97.371C10.8088 97.496 10.5838 97.596 10.3338 97.546C8.73388 97.371 6.55896 96.271 3.30909 93.0212C1.35916 91.0712 0.60919 89.0713 0.3342 87.6464C0.159207 86.6964 0.184206 85.9964 0.209205 85.7214C0.209205 85.3215 0.459196 85.0715 0.784183 84.9215C1.08417 84.7715 1.43416 84.6715 1.80914 84.5715C2.55911 84.3965 2.45912 84.9965 2.45912 84.9965C2.45912 84.9965 3.10909 84.5465 3.75907 84.5715C4.40904 84.5715 5.68399 82.1716 7.08394 82.9215C7.08394 82.9215 6.98394 83.3465 7.08394 83.9465C7.23393 84.8465 7.83391 86.1714 9.70884 87.2714C9.70884 87.2714 9.70884 87.2714 9.75884 87.3464V87.3964C9.88383 87.5714 9.95883 87.9713 9.33385 88.5213H9.40885H9.45885C9.78384 88.5963 10.0338 89.3213 10.5588 89.6963C11.7588 90.6712 11.3588 90.8212 11.3588 90.8212C11.7588 90.8212 12.1337 90.8962 12.4337 91.0212C13.9837 91.6712 14.1587 93.9961 12.8837 95.2961V95.3461Z" fill="#DCF2FC"/>
</g>
<g style="mix-blend-mode:multiply">
<path d="M9.45895 88.5714C9.45895 88.5714 9.40895 88.5714 9.33396 88.5714C9.28396 88.6214 9.23396 88.6214 9.18396 88.6464C8.58399 88.8714 7.25904 89.3964 7.35903 89.8963C7.48403 90.5213 7.88401 91.5963 9.03397 91.9213C7.70902 92.0463 6.83405 90.0963 7.03405 89.6464C7.18404 89.2214 8.50899 88.8214 9.18396 88.6214C9.25896 88.6214 9.30896 88.5714 9.33396 88.5464H9.43395H9.48395L9.45895 88.5714Z" fill="#93C5DB"/>
</g>
<g style="mix-blend-mode:overlay" opacity="0.52">
<path d="M12.8839 95.3464C12.0839 95.2714 11.3839 94.8464 11.3089 93.9464C11.2089 93.0465 11.7589 91.7215 11.6839 91.5715C11.6089 91.3715 11.4589 91.1715 11.2339 90.9465C10.5589 90.2716 9.40899 89.5966 9.159 88.6466C9.034 88.2466 9.30899 88.1466 9.48398 87.9717C9.60898 87.7467 9.63398 87.4217 9.68397 87.3467C9.68397 87.3467 9.75897 87.3467 9.78397 87.3967V87.4467C9.90897 87.6217 9.98396 88.0217 9.35899 88.5716H9.43398H9.48398C9.80897 88.6466 10.059 89.3716 10.5839 89.7466C11.7839 90.7216 11.3839 90.8715 11.3839 90.8715C11.7839 90.8715 12.1589 90.9465 12.4589 91.0715C14.0088 91.7215 14.1838 94.0464 12.9089 95.3464H12.8839Z" fill="#EBF9FF"/>
</g>
<g style="mix-blend-mode:multiply" opacity="0.34">
<path d="M53.9324 34.2985C53.9324 34.2985 51.2575 39.8233 45.9827 41.3982C40.6829 42.9732 43.4328 50.0729 34.1332 52.2728C32.7582 52.5978 31.5333 52.8478 30.4333 53.0728C29.9083 51.9978 29.7833 51.0979 29.7833 51.0979C29.7833 51.0979 31.2083 51.2729 33.9582 49.8229C36.1831 48.598 44.7827 38.7234 45.2077 38.9233C45.3077 38.9733 45.0827 39.0483 45.2577 39.1233C48.3826 40.5733 52.9824 33.9985 52.9824 33.9985C53.3074 34.0735 53.6074 34.1485 53.9324 34.3235V34.2985Z" fill="#92A6E8"/>
</g>
<path d="M88.0309 18.8989C87.9809 19.1739 87.8559 19.4739 87.6809 19.8239C87.6809 19.8739 87.6309 19.9239 87.6059 19.9489C87.2059 20.6489 86.581 21.4738 85.856 22.3238C85.731 22.4988 85.556 22.6988 85.406 22.8988C84.756 23.6237 84.0811 24.3237 83.4311 24.9487C83.4311 24.9487 83.4311 24.9487 83.3811 24.9987C81.8312 26.5486 80.4812 27.7486 80.4812 27.7486L60.032 16.324L58.4821 15.4491L58.1321 15.2491L58.0571 15.1991L57.8321 15.0741L57.4071 14.8491C57.4071 14.8491 57.0321 14.5991 57.4821 13.1491C57.7821 12.1492 58.5071 10.5992 60.007 8.14933C60.132 7.99934 60.207 7.79935 60.332 7.64935C60.807 6.97438 61.3069 6.3494 61.8319 5.79943C62.1319 5.49944 62.4069 5.22445 62.7069 4.99946C62.7069 4.99946 62.7819 4.94946 62.8069 4.92446C63.0819 4.69947 63.3569 4.49948 63.6069 4.32448C63.7569 4.19949 63.9318 4.12449 64.0818 4.02449C64.1818 3.9745 64.2318 3.9245 64.3318 3.8995C64.5068 3.7745 64.7068 3.67451 64.9068 3.59951C65.0068 3.54951 65.0568 3.49951 65.1568 3.47451C65.3068 3.37452 65.5068 3.32452 65.6818 3.27452C65.8318 3.17453 66.0318 3.12453 66.2068 3.07453C66.3068 3.07453 66.4068 2.99953 66.5067 2.97453C66.7317 2.89954 66.9567 2.84954 67.2067 2.82454C67.5317 2.72454 67.8317 2.69954 68.1567 2.64955C70.0316 2.42456 72.1065 2.64955 74.3564 3.24952C74.5564 3.32452 74.7564 3.37452 74.9314 3.42452C75.1814 3.49951 75.4314 3.57451 75.6814 3.67451C75.8064 3.72451 75.9564 3.7745 76.0814 3.8245C76.4314 3.9495 76.7564 4.07449 77.1063 4.22449C77.2063 4.22449 77.2813 4.29948 77.4063 4.34948C77.8563 4.52447 78.3063 4.72447 78.7563 4.94946C78.9563 5.04945 79.1563 5.14945 79.3313 5.27445C79.4562 5.32444 79.6062 5.39944 79.7312 5.47444C80.2312 5.72443 80.6812 6.02442 81.1312 6.29941C81.2562 6.3744 81.3812 6.4494 81.5062 6.5744C83.2561 7.74935 84.581 9.0743 85.581 10.4242C85.681 10.5492 85.731 10.6492 85.806 10.7492C85.956 10.9742 86.106 11.1742 86.231 11.3742C86.231 11.4242 86.281 11.4492 86.306 11.4992C86.381 11.6242 86.431 11.7492 86.506 11.8742C86.581 11.9992 86.631 12.0742 86.656 12.1992C86.881 12.5492 87.056 12.9492 87.2059 13.2991C87.2559 13.3741 87.3059 13.4491 87.3059 13.5241C87.4559 13.8741 87.6059 14.2241 87.6559 14.5491C87.7559 14.7491 87.7809 14.8991 87.8059 15.0991C88.2309 16.699 88.2559 18.074 88.0809 18.9489L88.0309 18.8989Z" fill="#DB6600"/>
<path d="M86.806 15.999C86.806 15.999 86.806 16.124 86.806 16.174C86.806 16.349 86.756 16.574 86.681 16.824C86.631 17.174 86.556 17.5739 86.406 18.0239C86.356 18.2239 86.306 18.4239 86.231 18.6239C86.231 18.7239 86.181 18.8239 86.131 18.9239C86.131 19.0489 86.056 19.1239 86.031 19.2489C86.031 19.3489 85.956 19.3989 85.931 19.4989C85.881 19.5989 85.856 19.6739 85.806 19.7989C85.656 20.2238 85.456 20.6988 85.2311 21.1988C85.0561 21.6238 84.8311 22.0988 84.6061 22.5987C84.3061 23.1737 83.9811 23.8487 83.5811 24.5237C83.5061 24.6737 83.4561 24.8487 83.3561 24.9737C83.3561 24.9737 83.3561 24.9737 83.3061 25.0237C83.3061 25.0987 83.2561 25.1487 83.2311 25.1987C83.1811 25.2736 83.1311 25.3486 83.1061 25.4236C82.8811 25.8236 82.6562 26.2236 82.4062 26.6486C81.9562 27.4236 81.5812 27.9985 81.2062 28.4735C80.0812 30.0985 79.4563 30.3984 78.6563 31.7484C76.5814 35.2733 74.9315 38.6231 70.8566 39.4981C67.3567 40.2731 61.657 39.1981 57.3821 34.7733C56.3322 33.6983 55.3572 32.3984 54.5322 30.8734C52.9323 27.9735 53.2823 24.6737 54.7072 21.2738C54.7072 21.2238 54.7822 21.0988 54.8572 20.9238C55.0822 20.4488 55.5072 19.5739 56.0072 18.6239C56.1322 18.3989 56.2572 18.1489 56.3822 17.9239C56.5072 17.6739 56.6322 17.4489 56.7571 17.224V17.174C56.7571 17.174 56.8821 16.999 56.9071 16.899C57.0321 16.674 57.1571 16.499 57.2571 16.299C57.3321 16.199 57.3821 16.099 57.4321 15.999C57.6071 15.674 57.7821 15.424 57.8821 15.199C57.9821 15.074 58.0071 14.974 58.0571 14.899C58.1071 14.824 58.1321 14.7491 58.1821 14.6741C58.1821 14.6241 58.2321 14.5741 58.2571 14.5491C58.9071 13.4241 59.607 12.2242 61.157 9.82424C61.307 9.59925 61.457 9.34926 61.632 9.09927C61.807 8.77428 62.0319 8.47429 62.2569 8.09931C62.4069 7.84932 62.6069 7.57433 62.7819 7.29934C62.7819 7.29934 62.7819 7.22434 62.8319 7.19934C62.9069 7.09935 62.9569 7.02435 63.0069 6.92435C63.1319 6.74936 63.2319 6.57437 63.3819 6.42437C63.3819 6.42437 63.3819 6.42437 63.3819 6.37437C63.6819 5.97439 64.0069 5.6244 64.3569 5.34941C64.4819 5.24942 64.5568 5.17442 64.6818 5.09942C64.7568 5.02443 64.8318 4.97443 64.9068 4.92443C64.9068 4.92443 64.9068 4.92443 64.9568 4.87443C65.5318 4.52445 66.1318 4.22446 66.7818 4.07446C66.7818 4.07446 66.8318 4.07446 66.8568 4.07446C67.3067 3.94947 67.7817 3.87447 68.2817 3.82447C69.9816 3.69948 71.8316 4.09946 73.7065 4.79944C73.9815 4.89943 74.2565 4.99943 74.5065 5.12442C74.8565 5.24942 75.1814 5.42441 75.5314 5.59941C75.6314 5.59941 75.7314 5.6744 75.8314 5.7244C76.1814 5.89939 76.5814 6.07439 76.9314 6.29938C77.9813 6.87436 79.0063 7.52433 79.9813 8.1993C80.1063 8.2993 80.2062 8.3493 80.3312 8.4493C80.4312 8.52429 80.5062 8.57429 80.6062 8.64929C80.7312 8.72428 80.8062 8.77428 80.9062 8.84928C82.0812 9.72425 83.1311 10.5992 84.0061 11.4492C84.0061 11.4992 84.0811 11.5242 84.1061 11.5492C84.2561 11.6992 84.4311 11.8742 84.5561 11.9992L84.6561 12.0992C84.8311 12.2741 85.0061 12.4491 85.1311 12.5991C85.906 13.4241 86.406 14.1491 86.606 14.6491C86.681 14.7741 86.706 14.899 86.706 14.999V15.149C86.706 15.374 86.706 15.699 86.706 16.074L86.806 15.999Z" fill="#F7D8AA"/>
<path d="M81.2563 24.7989C81.3313 24.1739 80.0813 21.749 78.7564 21.724C77.4314 21.699 78.7564 22.9989 79.5063 23.7989C80.2563 24.5989 81.1813 25.3988 81.2563 24.7989Z" fill="#7D221B"/>
<path d="M66.3818 15.0248C66.9068 14.6998 69.6567 14.7748 70.2317 15.9747C70.8066 17.1747 69.0817 16.5247 68.0317 16.1747C66.9818 15.8247 65.8568 15.3498 66.3818 15.0248Z" fill="#7D221B"/>
<path d="M68.7567 34.1233L62.907 29.7734C62.907 29.7734 61.432 31.6734 64.5319 33.9483C67.6318 36.2232 68.7317 34.1233 68.7317 34.1233H68.7567Z" fill="#A32118"/>
<path d="M68.3319 34.2239L63.0821 30.374C63.0821 30.374 62.8821 30.674 62.9321 30.924L67.8819 34.5239C67.8819 34.5239 68.1319 34.4489 68.3319 34.2239Z" fill="white"/>
<path d="M67.8819 34.5232C67.8819 34.5232 66.7319 35.0482 64.982 33.7732C63.2321 32.4983 62.8821 31.5983 62.9321 30.9233L67.8819 34.5232Z" fill="#661B00"/>
<path d="M69.5818 30.2489C69.8068 30.2989 69.9568 28.899 68.7818 28.249C67.6069 27.599 66.7069 28.224 66.8319 28.424C66.9569 28.624 67.5069 28.074 68.5569 28.674C69.6068 29.274 69.3568 30.2239 69.5818 30.2489Z" fill="#C47A2F"/>
<path d="M65.7319 34.9737C65.7319 35.0987 64.757 35.1237 64.032 34.6737C63.582 34.3987 63.057 33.2737 63.257 33.2487C63.457 33.2237 63.707 33.8737 64.357 34.3237C65.007 34.7737 65.7319 34.8487 65.7319 34.9737Z" fill="#D69049"/>
<path d="M58.4072 14.524C58.4072 14.524 58.3573 14.624 58.3323 14.649C58.3323 14.649 58.2323 14.774 58.2073 14.874C58.1573 14.949 58.1073 15.049 58.0323 15.174C57.9073 15.399 57.7573 15.6489 57.5823 15.9489C57.5823 15.9489 57.4573 16.1739 57.4073 16.2739C57.2573 16.5489 57.0573 16.8489 56.8823 17.1489V17.1989C56.7573 17.4239 56.6073 17.6489 56.5073 17.8989C56.3823 18.1238 56.2573 18.3738 56.1323 18.5988C55.6824 19.3738 55.3074 20.1488 54.9824 20.8987C54.8824 21.0737 54.8574 21.2237 54.8324 21.2487C54.8324 21.2487 51.4075 19.2488 53.5824 14.924C53.6824 14.799 53.7324 14.649 53.8324 14.524C55.0824 12.3741 56.5323 12.5491 57.5073 13.149C57.8073 13.324 58.0323 13.574 58.2073 13.799C58.4572 14.124 58.5572 14.399 58.4822 14.549L58.4072 14.524Z" fill="#E3AE78"/>
<path d="M58.4071 14.524C58.4071 14.524 58.3571 14.624 58.3321 14.649C58.2571 14.799 58.2071 14.999 58.0821 15.224C57.9571 15.4989 57.8321 15.7989 57.6821 16.1239C57.4822 16.5989 57.2072 17.0989 56.9322 17.5739C56.9322 17.4989 56.8822 17.3489 56.8572 17.1739C56.8072 16.9239 56.7822 16.6989 56.8072 16.5739C56.8572 15.9989 57.2572 14.674 56.9572 14.274C55.9822 12.949 54.6073 13.749 53.7323 14.524C54.9823 12.3741 56.4322 12.5491 57.4072 13.149C57.7071 13.324 57.9321 13.574 58.1071 13.799C58.3571 14.124 58.4571 14.399 58.3821 14.549L58.4071 14.524Z" fill="#F7D8AA"/>
<path d="M87.3311 19.8988C88.8222 19.8988 90.031 18.69 90.031 17.1989C90.031 15.7078 88.8222 14.499 87.3311 14.499C85.84 14.499 84.6312 15.7078 84.6312 17.1989C84.6312 18.69 85.84 19.8988 87.3311 19.8988Z" fill="#DB6600"/>
<path d="M87.3311 15.1249C88.8222 15.1249 90.031 13.9161 90.031 12.425C90.031 10.9339 88.8222 9.7251 87.3311 9.7251C85.84 9.7251 84.6312 10.9339 84.6312 12.425C84.6312 13.9161 85.84 15.1249 87.3311 15.1249Z" fill="#DB6600"/>
<path d="M83.7312 11.4499C85.5261 11.4499 86.9811 9.99493 86.9811 8.20007C86.9811 6.40521 85.5261 4.9502 83.7312 4.9502C81.9363 4.9502 80.4813 6.40521 80.4813 8.20007C80.4813 9.99493 81.9363 11.4499 83.7312 11.4499Z" fill="#DB6600"/>
<path d="M77.8316 8.9246C80.013 8.9246 81.7814 7.15619 81.7814 4.97475C81.7814 2.79331 80.013 1.0249 77.8316 1.0249C75.6501 1.0249 73.8817 2.79331 73.8817 4.97475C73.8817 7.15619 75.6501 8.9246 77.8316 8.9246Z" fill="#DB6600"/>
<path d="M70.9068 7.89969C73.0882 7.89969 74.8566 6.13129 74.8566 3.94985C74.8566 1.76841 73.0882 0 70.9068 0C68.7253 0 66.9569 1.76841 66.9569 3.94985C66.9569 6.13129 68.7253 7.89969 70.9068 7.89969Z" fill="#DB6600"/>
<path d="M68.4818 4.34975C68.4818 4.82473 68.3318 5.27471 68.0568 5.72469C67.9318 5.92469 67.8068 6.07468 67.6818 6.24967C67.3319 6.59966 66.9569 6.84965 66.5069 7.02464C66.2069 7.12464 65.8819 7.17464 65.5569 7.17464C65.4319 7.17464 65.3569 7.17464 65.2569 7.17464H65.1319C65.1319 7.17464 64.8819 7.12464 64.7819 7.07464H64.7319C64.7319 7.07464 64.7319 7.07464 64.682 7.07464C64.457 6.99964 64.232 6.92465 64.007 6.77465C63.857 6.67466 63.707 6.57466 63.582 6.44967C63.582 6.44967 63.382 6.24967 63.307 6.12468C63.157 5.94969 63.007 5.77469 62.932 5.5497C62.832 5.37471 62.757 5.17472 62.707 4.97472C62.707 4.92473 62.707 4.84973 62.657 4.82473C62.532 4.22475 62.557 3.57478 62.857 2.9998C62.857 2.8748 62.957 2.74981 63.007 2.64981C63.832 1.27487 65.6069 0.824883 67.0319 1.62485L67.4068 1.87484C67.4068 1.87484 67.4818 1.92484 67.5068 1.97484C67.7318 2.17483 67.9318 2.42482 68.0818 2.67481C68.2818 3.0248 68.4318 3.44978 68.4568 3.87477C68.4568 4.04976 68.4568 4.22475 68.4568 4.39975L68.4818 4.34975Z" fill="#DB6600"/>
<path d="M63.5321 6.4002V6.4752C63.5321 6.80018 63.4071 7.10017 63.2571 7.37516C63.1571 7.50016 63.0821 7.62515 62.9821 7.72515C62.8071 7.90014 62.6321 8.05014 62.4071 8.12513C61.9821 8.32513 61.4571 8.35012 61.0072 8.12513C60.8822 8.12513 60.7822 8.05014 60.6822 8.00014C60.5072 7.90014 60.3572 7.77515 60.2572 7.65015C59.7322 7.07517 59.6322 6.17521 60.0572 5.47524C60.2072 5.22525 60.4072 5.05025 60.6322 4.90026C61.2071 4.52527 61.9821 4.47527 62.6071 4.85026C62.6071 4.85026 62.6821 4.90026 62.7321 4.95026C62.9071 5.05025 63.0571 5.20025 63.1571 5.35024C63.2821 5.52523 63.3821 5.70023 63.4321 5.92522C63.5071 6.10021 63.5321 6.2752 63.5321 6.4502V6.4002Z" fill="#DB6600"/>
<path d="M84.3562 17.4493C85.9992 17.4493 87.3311 16.1174 87.3311 14.4744C87.3311 12.8314 85.9992 11.4995 84.3562 11.4995C82.7132 11.4995 81.3813 12.8314 81.3813 14.4744C81.3813 16.1174 82.7132 17.4493 84.3562 17.4493Z" fill="#DB6600"/>
<path d="M84.3061 20.6241C83.8811 21.3491 84.1061 22.2741 84.8311 22.7241C85.5561 23.174 86.2811 22.7241 86.931 22.1991C88.381 21.0241 87.706 19.6242 86.981 19.1992C86.2561 18.7742 84.7561 19.9242 84.3061 20.6241Z" fill="#DB6600"/>
<path d="M63.557 4.29993C63.557 4.57492 63.482 4.84991 63.332 5.0999C63.282 5.19989 63.207 5.24989 63.182 5.32489C63.082 5.42488 62.982 5.49988 62.882 5.54988C62.557 5.79987 62.157 5.87487 61.782 5.79987C61.607 5.79987 61.4321 5.69987 61.2321 5.62488C60.9321 5.44988 60.7321 5.17489 60.6321 4.8749C60.4571 4.44992 60.4821 3.94994 60.7571 3.52496C61.1821 2.79998 62.107 2.54999 62.832 2.99998C63.307 3.29997 63.582 3.79995 63.582 4.29993H63.557Z" fill="#DB6600"/>
<path d="M85.4561 19.8242C86.6434 19.8242 87.606 18.8617 87.606 17.6743C87.606 16.487 86.6434 15.5244 85.4561 15.5244C84.2687 15.5244 83.3062 16.487 83.3062 17.6743C83.3062 18.8617 84.2687 19.8242 85.4561 19.8242Z" fill="#DB6600"/>
<path d="M81.6063 14.8493C83.3597 14.8493 84.7811 13.4278 84.7811 11.6744C84.7811 9.92095 83.3597 8.49951 81.6063 8.49951C79.8528 8.49951 78.4314 9.92095 78.4314 11.6744C78.4314 13.4278 79.8528 14.8493 81.6063 14.8493Z" fill="#DB6600"/>
<path d="M73.0317 11.0495C74.6471 11.0495 75.9566 9.73996 75.9566 8.12459C75.9566 6.50922 74.6471 5.19971 73.0317 5.19971C71.4163 5.19971 70.1068 6.50922 70.1068 8.12459C70.1068 9.73996 71.4163 11.0495 73.0317 11.0495Z" fill="#DB6600"/>
<path d="M68.5069 10.2494C70.1361 10.2494 71.4568 8.92867 71.4568 7.2995C71.4568 5.67032 70.1361 4.34961 68.5069 4.34961C66.8777 4.34961 65.557 5.67032 65.557 7.2995C65.557 8.92867 66.8777 10.2494 68.5069 10.2494Z" fill="#DB6600"/>
<path d="M64.7319 8.97486C65.726 8.97486 66.5319 8.169 66.5319 7.17493C66.5319 6.18086 65.726 5.375 64.7319 5.375C63.7379 5.375 62.932 6.18086 62.932 7.17493C62.932 8.169 63.7379 8.97486 64.7319 8.97486Z" fill="#DB6600"/>
<path d="M62.457 10.2998C63.3268 10.2998 64.032 9.59466 64.032 8.72484C64.032 7.85503 63.3268 7.1499 62.457 7.1499C61.5872 7.1499 60.8821 7.85503 60.8821 8.72484C60.8821 9.59466 61.5872 10.2998 62.457 10.2998Z" fill="#DB6600"/>
<path d="M77.7814 12.9248C79.6315 12.9248 81.1313 11.4251 81.1313 9.57497C81.1313 7.72489 79.6315 6.2251 77.7814 6.2251C75.9313 6.2251 74.4315 7.72489 74.4315 9.57497C74.4315 11.4251 75.9313 12.9248 77.7814 12.9248Z" fill="#DB6600"/>
<path d="M62.9821 9.04932C62.9821 9.04932 60.8321 11.3992 59.9072 12.9992C58.9822 14.5991 58.0573 16.249 57.7323 16.149C57.4073 16.049 57.5573 15.8991 57.9573 14.4241C58.7322 11.4492 60.3572 9.14931 60.3572 9.14931L63.0071 9.04932H62.9821Z" fill="#DB6600"/>
<path d="M84.8312 20.2495C84.8312 20.2495 84.2562 23.5994 83.2813 25.1493C82.3063 26.6993 81.0313 28.2242 81.2813 28.4742C81.5313 28.7242 81.5313 28.3492 82.6813 27.2992C84.9562 25.2243 85.9812 22.6244 85.9812 22.6244L84.8312 20.2495Z" fill="#DB6600"/>
<path d="M87.731 16.3242C87.731 16.3242 86.981 20.2491 85.0061 18.4991C84.1062 17.6992 84.9311 16.6742 85.4311 16.5242C85.7561 16.4242 86.5561 16.4992 86.7311 16.8992C86.9061 17.2992 86.7811 18.1741 86.1061 18.0991C85.6561 18.0742 85.4061 17.3742 85.5561 17.3742C85.6811 17.3742 86.5061 18.1991 86.5311 17.2492C86.5311 16.5992 85.5811 16.5742 85.3061 16.8742C84.9561 17.2242 84.4311 18.3241 85.9561 18.6491C87.081 18.8991 87.756 16.3242 87.756 16.3242H87.731Z" fill="#BF4600"/>
<path d="M85.2063 12.6489C85.2063 12.6489 87.2062 9.07408 88.3062 12.074C88.6812 13.0489 87.1812 13.7239 86.6312 13.5489C86.2813 13.4239 85.8563 13.0239 85.9813 12.5489C86.1063 12.074 86.7812 11.399 87.3312 11.899C87.7062 12.224 87.2812 12.8989 87.1312 12.8239C87.0812 12.7989 87.4312 11.449 86.4063 12.399C85.9813 12.7989 86.5562 13.4239 87.0062 13.3489C87.5312 13.2739 88.7312 12.6489 87.6062 11.349C86.7812 10.399 85.2313 12.6739 85.2313 12.6739L85.2063 12.6489Z" fill="#BF4600"/>
<path d="M77.7315 7.19985C77.7315 7.19985 75.8816 6.34989 75.4566 5.04994C75.1066 3.94998 75.9316 2.42504 78.2065 2.25004C79.8564 2.12505 80.2314 4.67495 79.7064 5.44992C79.3814 5.9249 78.5565 6.37489 77.8815 5.9999C77.2065 5.62491 76.4815 4.29997 77.4815 3.67499C78.1315 3.25001 78.9814 4.19997 78.8064 4.37496C78.7814 4.39996 78.4565 3.97498 78.0565 3.92498C77.5565 3.87498 77.0065 4.27497 77.5315 5.34993C77.9315 6.17489 79.4564 5.52492 79.5314 4.82495C79.6314 3.99998 79.2064 1.90006 76.7565 3.05001C76.1065 3.35 75.5316 4.47496 75.7316 5.17493C76.0815 6.37489 77.7315 7.22485 77.7315 7.22485V7.19985Z" fill="#BF4600"/>
<path d="M67.2819 3.54949C67.2819 3.54949 66.882 4.87444 66.057 5.27442C65.357 5.59941 64.2821 5.19943 63.9321 3.69949C63.7071 2.62453 65.357 2.12455 65.907 2.39954C66.257 2.57453 66.632 3.07451 66.457 3.54949C66.282 4.02447 65.457 4.62445 64.957 4.04947C64.632 3.64949 65.157 2.99951 65.282 3.09951C65.307 3.09951 65.057 3.3745 65.057 3.64949C65.057 3.97447 65.382 4.29946 66.057 3.84948C66.557 3.49949 65.982 2.54953 65.532 2.57453C64.957 2.57453 63.6321 3.04951 64.6071 4.57445C64.882 4.97444 65.682 5.24943 66.107 5.04943C66.857 4.69945 67.2819 3.54949 67.2819 3.54949Z" fill="#BF4600"/>
<path d="M71.9067 8.29964C71.9067 8.29964 72.7316 7.97465 73.2566 8.24964C73.7066 8.47463 73.9316 9.1996 73.2816 9.94957C72.8066 10.4996 71.9317 9.84958 71.8567 9.44959C71.8067 9.1996 71.9067 8.82462 72.2316 8.72462C72.5566 8.62462 73.1816 8.79962 73.0816 9.2996C73.0066 9.62459 72.4566 9.59959 72.4566 9.49959C72.4566 9.49959 72.6816 9.49959 72.8316 9.39959C73.0066 9.2746 73.0316 8.97461 72.5566 8.79962C72.1816 8.67462 71.9317 9.3496 72.1066 9.57459C72.3316 9.84958 73.1066 10.3496 73.5066 9.2496C73.6066 8.94961 73.4316 8.44963 73.1566 8.29964C72.6816 8.04965 71.9316 8.29964 71.9316 8.29964H71.9067Z" fill="#BF4600"/>
<path d="M64.357 7.09971C64.357 7.09971 64.8569 6.89972 65.1819 7.07471C65.4569 7.19971 65.5819 7.64969 65.1819 8.12467C64.9069 8.44966 64.357 8.04968 64.307 7.82468C64.282 7.67469 64.332 7.4247 64.532 7.3747C64.7319 7.3247 65.1069 7.4247 65.0569 7.72469C65.0069 7.92468 64.6819 7.92468 64.6819 7.84968C64.6819 7.84968 64.8319 7.84968 64.9069 7.79969C65.0069 7.72469 65.0319 7.5497 64.7319 7.4247C64.507 7.3497 64.332 7.74969 64.457 7.89968C64.607 8.07468 65.0819 8.37466 65.3069 7.69969C65.3819 7.5247 65.2569 7.19971 65.1069 7.09971C64.8069 6.94972 64.357 7.09971 64.357 7.09971Z" fill="#BF4600"/>
<path d="M81.8813 11.6748C81.8813 11.6748 82.2563 14.5997 80.3313 13.3497C79.7064 12.9248 80.2563 11.8998 80.6813 11.7748C80.9313 11.6998 81.3563 11.7748 81.5063 12.0748C81.6563 12.3748 81.5313 13.0748 81.0063 13.0248C80.6563 12.9998 80.6063 12.4248 80.7313 12.3998C80.7813 12.3998 81.1563 13.3247 81.3563 12.3248C81.4313 11.9248 80.8313 11.7998 80.6063 12.0248C80.3313 12.2998 79.9064 13.1747 81.1063 13.4497C81.9813 13.6497 81.9063 11.6748 81.9063 11.6748H81.8813Z" fill="#BF4600"/>
<g style="mix-blend-mode:multiply" opacity="0.18">
<path d="M67.5319 1.92494C67.3819 1.97494 66.8069 2.22493 66.2819 2.64991C66.207 2.72491 66.132 2.7749 66.057 2.8249C65.932 2.9499 65.782 3.09989 65.707 3.24989C65.532 3.44988 65.382 3.69987 65.307 3.97486C65.307 4.04986 65.257 4.09985 65.257 4.17485C65.182 4.39984 65.182 4.62483 65.207 4.89982C65.207 4.89982 65.207 4.94982 65.207 4.97482C65.207 5.09981 65.207 5.19981 65.257 5.32481C65.257 5.3748 65.257 5.4248 65.332 5.4498C65.332 5.5748 65.407 5.67479 65.457 5.79979C65.457 5.79979 65.157 6.37477 65.232 7.04974C65.232 7.04974 65.232 7.09974 65.232 7.12474C65.232 7.32473 65.307 7.49972 65.382 7.69971C65.382 7.69971 65.382 7.79971 65.457 7.82471C65.557 7.9997 65.657 8.1747 65.807 8.27469C65.882 8.37469 65.932 8.42469 66.007 8.47468C66.007 8.47468 66.007 8.47468 65.907 8.54968C65.857 8.59968 65.782 8.67468 65.657 8.72467C65.082 9.22466 63.932 10.2746 63.2821 11.6496C62.9321 12.3495 61.5571 14.0245 60.0572 16.2744C57.6073 19.9992 54.9324 25.399 56.3573 30.8738C56.7323 32.3488 57.1323 33.5987 57.5073 34.6987C56.4573 33.6237 55.4824 32.3238 54.6574 30.7988C53.0575 27.8989 53.4074 24.5991 54.8324 21.1992C54.8324 21.1992 51.4075 19.1993 53.5824 14.8744C53.6824 14.7494 53.7324 14.5994 53.8324 14.4745C55.0824 12.3245 56.5323 12.4995 57.5073 13.0995C57.8073 12.0995 58.5322 10.5496 60.0322 8.0997C60.1572 7.9497 60.2322 7.74971 60.3572 7.59972C59.8322 7.02474 59.7322 6.12478 60.1572 5.4248C60.3072 5.17481 60.5072 4.99982 60.7322 4.84982C60.5572 4.42484 60.5822 3.92486 60.8572 3.49988C61.2821 2.7749 62.2071 2.52491 62.9321 2.9749C62.9321 2.8499 63.0321 2.72491 63.0821 2.62491C63.907 1.24996 65.682 0.799981 67.1069 1.59995L67.4819 1.84994L67.6069 1.92494H67.5319Z" fill="#C47A2F"/>
</g>
<path d="M65.9818 22.8237C65.3818 23.1487 64.6569 23.1487 63.8819 22.5738C61.382 20.7488 65.3818 17.5489 67.0818 18.6989C67.3068 18.8489 67.4568 19.0989 67.5067 19.3989C67.7817 20.4738 67.1068 22.2238 65.9818 22.8237Z" fill="white"/>
<path d="M65.9818 22.8243C65.0069 22.7243 64.2069 21.8743 64.2069 20.8743C64.2069 19.7744 65.1069 18.8994 66.1818 18.8994C66.6818 18.8994 67.1568 19.0744 67.5068 19.3994C67.7818 20.4744 67.1068 22.2243 65.9818 22.8243Z" fill="#130D54"/>
<path d="M65.5726 19.6701C65.6605 19.5822 65.5734 19.3527 65.3781 19.1574C65.1829 18.9622 64.9534 18.8751 64.8655 18.963C64.7776 19.0508 64.8647 19.2804 65.06 19.4756C65.2552 19.6709 65.4847 19.7579 65.5726 19.6701Z" fill="white"/>
<path d="M64.082 19.3743C64.082 19.3743 65.507 18.4494 66.5319 18.5493C67.0569 18.5993 67.4819 19.0993 67.5819 19.7743C67.5819 19.7743 67.6819 18.6493 66.8319 18.2494C65.832 17.7494 64.082 19.3743 64.082 19.3743Z" fill="black"/>
<path d="M77.0315 29.5484C76.4315 29.8733 75.7065 29.8733 74.9316 29.2984C72.4317 27.4734 76.4315 24.2736 78.1314 25.4235C78.3564 25.5735 78.5064 25.8235 78.5564 26.1235C78.8314 27.1984 78.1564 28.9484 77.0315 29.5484Z" fill="white"/>
<path d="M77.0314 29.5489C76.0564 29.4489 75.2565 28.5989 75.2565 27.5989C75.2565 26.499 76.1564 25.624 77.2314 25.624C77.7314 25.624 78.2064 25.799 78.5563 26.124C78.8313 27.199 78.1564 28.9489 77.0314 29.5489Z" fill="#130D54"/>
<path d="M76.5982 26.4044C76.6861 26.3166 76.599 26.0871 76.4038 25.8918C76.2085 25.6965 75.979 25.6095 75.8911 25.6974C75.8033 25.7852 75.8903 26.0147 76.0856 26.21C76.2808 26.4052 76.5104 26.4923 76.5982 26.4044Z" fill="white"/>
<path d="M75.1064 26.0989C75.1064 26.0989 76.5314 25.174 77.5563 25.274C78.0813 25.324 78.5063 25.8239 78.6063 26.4989C78.6063 26.4989 78.7063 25.374 77.8563 24.974C76.8564 24.474 75.1064 26.0989 75.1064 26.0989Z" fill="black"/>
</svg>
