<svg width="80" height="33" viewBox="0 0 80 33" fill="none" xmlns="http://www.w3.org/2000/svg">
<path d="M47.0117 0.0847341C46.9917 0.204604 46.7117 0.404386 46.7117 0.404386L6.98174 21.0619L4.47111 22.3705L3.72092 22.7501L2.06051 23.6191L1.56038 23.8788C1.43035 23.8389 1.29031 23.779 1.17028 23.709C1.07026 23.6491 0.980236 23.5991 0.890214 23.5292C0.770184 23.4293 0.670159 23.3294 0.580136 23.2196H0.570134C0.570134 23.2196 0.510119 23.1496 0.490114 23.1197H0.480111C0.310069 22.8999 0.180036 22.6502 0.100016 22.3805C0.0800113 22.2906 0.0600063 22.2107 0.0299988 22.1208L0.590139 21.861L0.850204 21.7412L2.49061 20.962L3.47086 20.4925L4.01099 20.2328L6.34158 19.124L46.5616 0.0547667C46.5616 0.0547667 46.5716 0.0547667 46.5816 0.0447775C46.6616 0.0247993 46.9117 -0.0451247 46.9917 0.0447775C47.0017 0.0547667 47.0017 0.0747449 47.0017 0.0847341H47.0117Z" fill="#372B82"/>
<path d="M4.56114 21.621V21.7209C4.56114 21.9407 4.53113 22.1704 4.47112 22.3702C4.19105 23.3192 3.32083 23.9984 2.27057 23.9984C2.0205 23.9984 1.78044 23.9585 1.56039 23.8786C1.43036 23.8386 1.29032 23.7787 1.17029 23.7087C1.07027 23.6488 0.980245 23.5989 0.890222 23.5289C0.770192 23.429 0.670167 23.3292 0.580145 23.2193H0.570142C0.570142 23.2193 0.510127 23.1493 0.490122 23.1194H0.48012C0.310077 22.8996 0.180045 22.6499 0.100025 22.3802C0.08002 22.2903 0.060015 22.2104 0.0300075 22.1205C0.0100025 22.0006 0 21.8608 0 21.7209C0 21.3313 0.100025 20.9617 0.290072 20.6421C0.670167 19.9328 1.42035 19.4534 2.28057 19.4534C2.55064 19.4534 2.8007 19.4933 3.04076 19.5832C3.08077 19.5832 3.12078 19.6032 3.15079 19.6132C3.35084 19.7031 3.54088 19.803 3.71093 19.9328C3.82095 20.0227 3.92098 20.1226 4.011 20.2325C4.08102 20.3024 4.12103 20.3824 4.17104 20.4423C4.27107 20.5722 4.35109 20.722 4.4011 20.8618C4.43111 20.9417 4.46111 21.0217 4.48112 21.0916C4.48112 21.0916 4.48445 21.0982 4.49112 21.1116C4.53113 21.2714 4.56114 21.4412 4.57114 21.601L4.56114 21.621Z" fill="#372B82"/>
<path d="M3.14005 19.6136C2.88005 19.8133 2.61005 20.1029 2.53005 20.4924C2.51005 20.5823 2.50005 20.6722 2.50005 20.772C2.52005 21.7507 1.54005 22.5497 0.680047 21.9405C0.680047 21.9405 0.670047 21.9405 0.660047 21.9305C0.250047 21.6409 0.210047 21.1116 0.280047 20.6322C0.660047 19.9132 1.41005 19.4338 2.28005 19.4338C2.59005 19.4338 2.88005 19.4938 3.15005 19.6136H3.14005Z" fill="#4D3CB5"/>
<g style="mix-blend-mode:multiply">
<path d="M47.0116 0.0847168C46.9916 0.204586 46.7115 0.404369 46.7115 0.404369L6.98159 21.0619L4.47096 22.3705C4.19089 23.3194 3.32067 23.9987 2.27041 23.9987C2.02035 23.9987 1.78029 23.9587 1.56023 23.8788C1.4302 23.8389 1.29016 23.7789 1.17013 23.709C1.07011 23.6491 0.980087 23.5991 0.890064 23.5292C0.770034 23.4293 0.670009 23.3294 0.579987 23.2195C0.880062 23.4193 1.31017 23.6091 1.8503 23.6191H2.06036C2.91057 23.5991 3.4207 23.2096 3.72077 22.7501C4.19089 22.0808 4.21089 21.2717 4.21089 21.2717L4.48096 21.1418L47.0116 0.0847168Z" fill="#4D3CB5"/>
</g>
<path d="M0.630137 21.4808C1.17014 22.0001 1.33014 21.1713 1.39014 20.7119C1.45014 20.2525 1.84014 19.7432 1.84014 19.7432C1.84014 19.7432 1.34014 19.7631 1.01014 20.0428C0.560137 20.4223 0.270137 21.1313 0.630137 21.4808Z" fill="#5E4ADE"/>
<path d="M32.9883 0.0847341C33.0083 0.204604 33.2883 0.404386 33.2883 0.404386L73.0183 21.0519L75.5289 22.3605L76.2791 22.7401L77.9395 23.6091L78.4396 23.8689C78.5696 23.8289 78.7097 23.769 78.8297 23.699C78.9297 23.6391 79.0197 23.5892 79.1098 23.5192C79.2298 23.4193 79.3298 23.3195 79.4199 23.2096H79.4298C79.4298 23.2096 79.4899 23.1396 79.5099 23.1097H79.5199C79.6899 22.8899 79.8199 22.6402 79.9 22.3705C79.92 22.2806 79.94 22.2007 79.97 22.1108L79.4098 21.8511L79.1498 21.7312L77.5094 20.952L76.5291 20.4825L75.989 20.2228L73.6584 19.114L33.4384 0.0547667C33.4384 0.0547667 33.4284 0.0547667 33.4184 0.0447775C33.3383 0.0247993 33.0883 -0.0451247 33.0083 0.0447775C32.9982 0.0547667 32.9983 0.0747449 32.9983 0.0847341H32.9883Z" fill="#372B82"/>
<path d="M75.4389 21.621V21.7209C75.4389 21.9407 75.4689 22.1704 75.5289 22.3702C75.809 23.3192 76.6792 23.9984 77.7294 23.9984C77.9795 23.9984 78.2196 23.9585 78.4396 23.8786C78.5697 23.8386 78.7097 23.7787 78.8297 23.7087C78.9297 23.6488 79.0198 23.5989 79.1098 23.5289C79.2298 23.429 79.3298 23.3292 79.4199 23.2193H79.4299C79.4299 23.2193 79.4899 23.1493 79.5099 23.1194H79.5199C79.6899 22.8996 79.82 22.6499 79.9 22.3802C79.92 22.2903 79.94 22.2104 79.97 22.1205C79.99 22.0006 80 21.8608 80 21.7209C80 21.3313 79.9 20.9617 79.7099 20.6421C79.3298 19.9328 78.5797 19.4534 77.7194 19.4534C77.4494 19.4534 77.1993 19.4933 76.9592 19.5832C76.9192 19.5832 76.8792 19.6032 76.8492 19.6132C76.6492 19.7031 76.4591 19.803 76.2891 19.9328C76.1791 20.0227 76.079 20.1226 75.989 20.2325C75.919 20.3024 75.879 20.3824 75.829 20.4423C75.7289 20.5722 75.6489 20.722 75.5989 20.8618C75.5689 20.9417 75.5389 21.0217 75.5189 21.0916C75.5189 21.0916 75.5156 21.0982 75.5089 21.1116C75.4689 21.2714 75.4389 21.4412 75.4289 21.601L75.4389 21.621Z" fill="#372B82"/>
<path d="M76.8592 19.6136C77.1192 19.8133 77.3892 20.1029 77.4692 20.4924C77.4892 20.5823 77.4992 20.6722 77.4992 20.772C77.4792 21.7507 78.4592 22.5497 79.3192 21.9405C79.3192 21.9405 79.3292 21.9405 79.3392 21.9305C79.7492 21.6409 79.7892 21.1116 79.7192 20.6322C79.3392 19.9132 78.5892 19.4338 77.7192 19.4338C77.4092 19.4338 77.1192 19.4938 76.8492 19.6136H76.8592Z" fill="#4D3CB5"/>
<g style="mix-blend-mode:multiply">
<path d="M32.9883 0.0847168C33.0083 0.204586 33.2883 0.404369 33.2883 0.404369L73.0183 21.0519L75.5289 22.3605C75.8089 23.3094 76.6792 23.9887 77.7294 23.9887C77.9795 23.9887 78.2195 23.9488 78.4396 23.8688C78.5696 23.8289 78.7097 23.769 78.8297 23.699C78.9297 23.6391 79.0197 23.5891 79.1098 23.5192C79.2298 23.4193 79.3298 23.3194 79.4199 23.2096C79.1198 23.4093 78.6897 23.5991 78.1495 23.6091H77.9395C77.0893 23.5891 76.5791 23.1996 76.2791 22.7401C75.8089 22.0708 75.7889 21.2617 75.7889 21.2617L75.5189 21.1318L32.9883 0.0847168Z" fill="#4D3CB5"/>
</g>
<path d="M79.3695 21.4808C78.8295 22.0001 78.6695 21.1713 78.6095 20.7119C78.5495 20.2525 78.1595 19.7432 78.1595 19.7432C78.1595 19.7432 78.6595 19.7631 78.9895 20.0428C79.4395 20.4223 79.7295 21.1313 79.3695 21.4808Z" fill="#5E4ADE"/>
<path d="M17.1343 26.8948L18.1445 31.9792C18.2045 32.2789 18.4946 32.4787 18.8047 32.4188C19.1048 32.3588 19.3048 32.0691 19.2448 31.7595L18.2345 26.675C18.1745 26.3753 17.8845 26.1756 17.5744 26.2355C17.2743 26.2954 17.0743 26.5851 17.1343 26.8948Z" fill="#FBFF00"/>
<path d="M19.2648 26.0954L20.155 31.3597C20.2051 31.6593 20.4951 31.8691 20.7952 31.8192C21.0953 31.7692 21.3053 31.4795 21.2553 31.1799L20.3651 25.9156C20.3151 25.6159 20.025 25.4061 19.7249 25.4561C19.4249 25.506 19.2148 25.7957 19.2648 26.0954Z" fill="#FBFF00"/>
<path d="M20.8952 25.246L22.1055 30.8499C22.1655 31.1496 22.4656 31.3394 22.7657 31.2794C23.0658 31.2195 23.2558 30.9198 23.1958 30.6202L21.9855 25.0163C21.9255 24.7166 21.6254 24.5268 21.3253 24.5867C21.0252 24.6467 20.8352 24.9463 20.8952 25.246Z" fill="#FBFF00"/>
<path d="M22.9257 24.4174L24.106 29.7915C24.176 30.0912 24.4661 30.281 24.7662 30.2211C25.0663 30.1511 25.2563 29.8615 25.1963 29.5518L24.016 24.1776C23.946 23.878 23.6559 23.6882 23.3558 23.7481C23.0558 23.818 22.8657 24.1077 22.9257 24.4174Z" fill="#FBFF00"/>
<path d="M25.0563 23.6779L26.1865 28.8623C26.2566 29.1619 26.5466 29.3517 26.8467 29.2918C27.1468 29.2219 27.3368 28.9322 27.2768 28.6325L26.1465 23.4481C26.0765 23.1485 25.7864 22.9587 25.4864 23.0186C25.1863 23.0885 24.9962 23.3782 25.0563 23.6779Z" fill="#FBFF00"/>
<path d="M27.0968 22.6791L28.057 28.233C28.107 28.5327 28.3971 28.7425 28.7072 28.6825C29.0073 28.6326 29.2173 28.3429 29.1573 28.0333L28.1971 22.4793C28.147 22.1796 27.857 21.9698 27.5469 22.0298C27.2468 22.0797 27.0368 22.3694 27.0968 22.6791Z" fill="#FBFF00"/>
<path d="M28.9772 21.8095L29.9975 27.4334C30.0475 27.7331 30.3476 27.9329 30.6477 27.8829C30.9477 27.833 31.1478 27.5333 31.0978 27.2336L30.0775 21.6097C30.0275 21.3101 29.7274 21.1103 29.4273 21.1602C29.1273 21.2102 28.9272 21.5099 28.9772 21.8095Z" fill="#FBFF00"/>
<path d="M30.5576 21.1801L31.7779 26.6142C31.8479 26.9139 32.148 27.1037 32.4481 27.0337C32.7482 26.9638 32.9382 26.6642 32.8682 26.3645L31.6479 20.9304C31.5779 20.6307 31.2778 20.4409 30.9777 20.5108C30.6776 20.5808 30.4876 20.8804 30.5576 21.1801Z" fill="#FBFF00"/>
<path d="M32.7282 20.7609L33.4684 26.2949C33.5084 26.6045 33.7884 26.8143 34.0985 26.7744C34.4086 26.7344 34.6187 26.4547 34.5786 26.145L33.8385 20.6111C33.7984 20.3014 33.5184 20.0916 33.2083 20.1316C32.8982 20.1715 32.6882 20.4512 32.7282 20.7609Z" fill="#FBFF00"/>
<path d="M34.3886 20.102L35.1188 26.3153C35.1588 26.6249 35.4289 26.8447 35.7389 26.8048C36.049 26.7648 36.2691 26.4951 36.2291 26.1854L35.4989 19.9722C35.4589 19.6625 35.1888 19.4428 34.8787 19.4827C34.5687 19.5227 34.3486 19.7924 34.3886 20.102Z" fill="#FBFF00"/>
<path d="M36.4591 19.8924L36.5191 26.0957C36.5191 26.4054 36.7792 26.6551 37.0792 26.6451C37.3793 26.6351 37.6394 26.3854 37.6294 26.0857L37.5694 19.8825C37.5694 19.5728 37.3093 19.3231 37.0092 19.3331C36.7091 19.343 36.4491 19.5928 36.4591 19.8924Z" fill="#FBFF00"/>
<path d="M38.4496 19.7425L38.5196 25.8259C38.5196 26.1356 38.7797 26.3853 39.0798 26.3753C39.3799 26.3653 39.6399 26.1156 39.6299 25.8159L39.5599 19.7326C39.5599 19.4229 39.2998 19.1732 38.9998 19.1832C38.6997 19.1931 38.4396 19.4429 38.4496 19.7425Z" fill="#FBFF00"/>
<path d="M40.5101 19.9714L39.93 25.5554C39.9 25.865 40.12 26.1347 40.4301 26.1647C40.7402 26.1947 41.0103 25.9749 41.0403 25.6652L41.6204 20.0813C41.6504 19.7716 41.4304 19.5019 41.1203 19.472C40.8102 19.442 40.5401 19.6618 40.5101 19.9714Z" fill="#FBFF00"/>
<path d="M42.5506 20.5216L41.6304 25.9157C41.5804 26.2154 41.7805 26.5051 42.0905 26.555C42.3906 26.605 42.6807 26.4052 42.7307 26.0955L43.6509 20.7014C43.7009 20.4017 43.5009 20.112 43.1908 20.0621C42.8907 20.0121 42.6007 20.2119 42.5506 20.5216Z" fill="#FBFF00"/>
<path d="M44.3411 21.3404L43.3808 26.5547C43.3208 26.8544 43.5309 27.1441 43.831 27.204C44.131 27.2639 44.4211 27.0542 44.4811 26.7545L45.4414 21.5402C45.5014 21.2405 45.2913 20.9508 44.9912 20.8909C44.6912 20.8309 44.4011 21.0407 44.3411 21.3404Z" fill="#FBFF00"/>
<path d="M45.9515 22.27L45.2613 27.3245C45.2213 27.6342 45.4314 27.9139 45.7414 27.9538C46.0515 27.9938 46.3316 27.784 46.3716 27.4743L47.0618 22.4198C47.1018 22.1102 46.8917 21.8305 46.5817 21.7905C46.2716 21.7506 45.9915 21.9603 45.9515 22.27Z" fill="#FBFF00"/>
<path d="M47.7619 23.2087L47.0818 27.8837C47.0418 28.1933 47.2518 28.473 47.5519 28.513C47.862 28.5529 48.142 28.3432 48.182 28.0435L48.8622 23.3686C48.9022 23.0589 48.6922 22.7792 48.3921 22.7393C48.082 22.6993 47.8019 22.9091 47.7619 23.2087Z" fill="#FBFF00"/>
<path d="M49.6124 23.478L48.8422 28.7023C48.8022 29.002 49.0122 29.2917 49.3123 29.3317C49.6124 29.3716 49.9025 29.1618 49.9425 28.8622L50.7127 23.6379C50.7527 23.3382 50.5426 23.0485 50.2425 23.0085C49.9425 22.9686 49.6524 23.1784 49.6124 23.478Z" fill="#FBFF00"/>
<path d="M51.6829 24.3973L50.6527 29.4618C50.5927 29.7615 50.7827 30.0612 51.0928 30.1211C51.3929 30.181 51.6929 29.9912 51.7529 29.6816L52.7832 24.6171C52.8432 24.3174 52.6532 24.0177 52.3431 23.9578C52.043 23.8979 51.7429 24.0877 51.6829 24.3973Z" fill="#FBFF00"/>
<path d="M53.6434 25.2055L52.6131 30.1601C52.5531 30.4598 52.7432 30.7594 53.0432 30.8194C53.3433 30.8793 53.6434 30.6895 53.7034 30.3898L54.7337 25.4352C54.7937 25.1355 54.6036 24.8359 54.3036 24.7759C54.0035 24.716 53.7034 24.9058 53.6434 25.2055Z" fill="#FBFF00"/>
<path d="M55.5439 26.1352L54.3536 31.5094C54.2836 31.809 54.4736 32.1087 54.7737 32.1786C55.0738 32.2486 55.3738 32.0588 55.4438 31.7591L56.6341 26.385C56.7042 26.0853 56.5141 25.7856 56.214 25.7157C55.914 25.6458 55.6139 25.8355 55.5439 26.1352Z" fill="#FBFF00"/>
<path d="M57.3143 27.3544L56.3541 32.0892C56.2941 32.3889 56.4841 32.6886 56.7942 32.7485C57.1043 32.8084 57.3943 32.6186 57.4544 32.309L58.4146 27.5741C58.4746 27.2744 58.2846 26.9748 57.9745 26.9148C57.6644 26.8549 57.3743 27.0447 57.3143 27.3544Z" fill="#FBFF00"/>
<path d="M58.7047 27.3942L58.3646 32.4087C58.3446 32.7184 58.5746 32.9781 58.8847 32.9981C59.1948 33.0181 59.4549 32.7883 59.4749 32.4786L59.8149 27.4641C59.835 27.1544 59.6049 26.8947 59.2948 26.8747C58.9847 26.8548 58.7247 27.0845 58.7047 27.3942Z" fill="#FBFF00"/>
<path d="M14.0735 16.4366C14.0735 16.4366 13.2233 18.844 17.1243 27.0651C17.8445 28.5834 33.6884 19.763 40.06 21.1216C44.7412 22.1205 57.1743 29.0429 58.6747 29.0429C60.175 29.0429 62.3456 25.7066 63.4959 21.8208C64.8362 17.2857 65.6964 16.7863 65.6964 16.7863L45.6214 7.52634C42.3606 5.39866 41.7805 7.70615 41.2103 7.35653C40.5001 6.90702 38.6197 7.18671 37.8995 7.48639C35.5489 8.46532 34.1185 7.53633 34.1185 7.53633L14.0735 16.4466V16.4366Z" fill="#FFBB00"/>
<path d="M18.7341 22.1792C18.7341 22.1792 16.4441 20.6312 16.5441 22.0294C16.6441 23.4275 19.5741 25.1352 19.5741 25.1352L18.7341 22.1792Z" fill="#FBFF00"/>
<path d="M18.9247 22.1303C18.9247 22.1303 19.7049 19.4632 20.4651 20.6319C21.2253 21.8006 19.895 24.9872 19.895 24.9872L18.9247 22.1303Z" fill="#FBFF00"/>
<path d="M17.6039 18.7637C17.6039 18.7637 15.3139 17.2157 15.4139 18.6139C15.5139 20.012 18.4439 21.7197 18.4439 21.7197L17.6039 18.7637Z" fill="#FFFDCC"/>
<path d="M17.8045 18.714C17.8045 18.714 18.5847 16.0469 19.3449 17.2156C20.105 18.3844 18.7747 21.5709 18.7747 21.5709L17.8045 18.714Z" fill="#FFFDCC"/>
<path d="M24.5456 19.7829C24.5456 19.7829 22.2556 18.235 22.3556 19.6331C22.4556 21.0313 25.3856 22.739 25.3856 22.739L24.5456 19.7829Z" fill="#FBFF00"/>
<path d="M24.7462 19.7233C24.7462 19.7233 25.5264 17.0562 26.2866 18.2249C27.0468 19.3936 25.7165 22.5802 25.7165 22.5802L24.7462 19.7233Z" fill="#FBFF00"/>
<path d="M23.4553 16.3667C23.4553 16.3667 21.1653 14.8187 21.2653 16.2169C21.3653 17.615 24.2953 19.3227 24.2953 19.3227L23.4553 16.3667Z" fill="#FFFDCC"/>
<path d="M23.6559 16.307C23.6559 16.307 24.4361 13.6399 25.1963 14.8086C25.9565 15.9774 24.6262 19.1639 24.6262 19.1639L23.6559 16.307Z" fill="#FFFDCC"/>
<path d="M30.4071 17.2248C30.4071 17.2248 28.117 15.6769 28.217 17.075C28.317 18.4732 31.2471 20.1809 31.2471 20.1809L30.4071 17.2248Z" fill="#FBFF00"/>
<path d="M30.5977 17.1759C30.5977 17.1759 31.3779 14.5088 32.1381 15.6775C32.8983 16.8463 31.5679 20.0328 31.5679 20.0328L30.5977 17.1759Z" fill="#FBFF00"/>
<path d="M29.3268 13.789C29.3268 13.789 27.0368 12.2411 27.1368 13.6392C27.2368 15.0374 30.1668 16.7451 30.1668 16.7451L29.3268 13.789Z" fill="#FFFDCC"/>
<path d="M29.5274 13.7391C29.5274 13.7391 30.3076 11.072 31.0678 12.2408C31.828 13.4095 30.4976 16.596 30.4976 16.596L29.5274 13.7391Z" fill="#FFFDCC"/>
<path d="M35.869 15.3375C35.869 15.3375 33.9185 13.3796 33.7484 14.7681C33.5784 16.1566 36.129 18.3942 36.129 18.3942L35.869 15.3375Z" fill="#FBFF00"/>
<path d="M36.079 15.3176C36.079 15.3176 37.3493 12.8503 37.8795 14.1489C38.4096 15.4475 36.4891 18.3143 36.4891 18.3143L36.079 15.3176Z" fill="#FBFF00"/>
<path d="M35.4089 11.6813C35.4089 11.6813 33.4584 9.72339 33.2884 11.1119C33.1183 12.5004 35.6689 14.7379 35.6689 14.7379L35.4089 11.6813Z" fill="#FFFDCC"/>
<path d="M35.6089 11.6718C35.6089 11.6718 36.8792 9.20453 37.4094 10.5031C37.9395 11.8017 36.019 14.6686 36.019 14.6686L35.6089 11.6718Z" fill="#FFFDCC"/>
<path d="M41.6204 15.2381C41.6204 15.2381 40.16 12.9007 39.6799 14.2093C39.1998 15.5178 41.1903 18.2748 41.1903 18.2748L41.6204 15.2381Z" fill="#FBFF00"/>
<path d="M41.7705 15.3377C41.7705 15.3377 43.5709 13.2101 43.781 14.5985C43.991 15.987 41.4904 18.3445 41.4904 18.3445L41.7605 15.3377H41.7705Z" fill="#FBFF00"/>
<path d="M42.0705 11.5318C42.0705 11.5318 40.6101 9.19438 40.13 10.503C39.6499 11.8115 41.6404 14.5685 41.6404 14.5685L42.0705 11.5318Z" fill="#FFFDCC"/>
<path d="M42.2206 11.6219C42.2206 11.6219 44.021 9.49423 44.2311 10.8827C44.4411 12.2712 41.9405 14.6286 41.9405 14.6286L42.2106 11.6219H42.2206Z" fill="#FFFDCC"/>
<path d="M47.4519 16.8461C47.4519 16.8461 46.7217 14.179 45.8915 15.3078C45.0613 16.4366 46.1715 19.6331 46.1715 19.6331L47.4519 16.8461Z" fill="#FBFF00"/>
<path d="M47.6316 16.9358C47.6316 16.9358 49.9616 15.4178 49.7716 16.806C49.5816 18.1941 46.5016 19.742 46.5016 19.742L47.6316 16.9358Z" fill="#FBFF00"/>
<path d="M48.8522 13.5292C48.8522 13.5292 48.1221 10.8621 47.2919 11.9909C46.4616 13.1197 47.5719 16.3162 47.5719 16.3162L48.8522 13.5292Z" fill="#FFFDCC"/>
<path d="M49.042 13.6094C49.042 13.6094 51.372 12.0914 51.182 13.4795C50.992 14.8677 47.912 16.4156 47.912 16.4156L49.042 13.6094Z" fill="#FFFDCC"/>
<path d="M53.1633 19.5534C53.1633 19.5534 52.4331 16.8863 51.6029 18.0151C50.7727 19.1438 51.883 22.3404 51.883 22.3404L53.1633 19.5534Z" fill="#FBFF00"/>
<path d="M53.3431 19.6433C53.3431 19.6433 55.6731 18.1253 55.4831 19.5135C55.2931 20.9016 52.2131 22.4495 52.2131 22.4495L53.3431 19.6433Z" fill="#FBFF00"/>
<path d="M54.5536 16.1869C54.5536 16.1869 53.8234 13.5198 52.9932 14.6486C52.163 15.7774 53.2733 18.9739 53.2733 18.9739L54.5536 16.1869Z" fill="#FFFDCC"/>
<path d="M54.7434 16.2766C54.7434 16.2766 57.0734 14.7586 56.8834 16.1468C56.6934 17.5349 53.6134 19.0828 53.6134 19.0828L54.7434 16.2766Z" fill="#FFFDCC"/>
<path d="M58.4546 22.4294C58.4546 22.4294 57.7244 19.7623 56.8942 20.891C56.064 22.0198 57.1743 25.2163 57.1743 25.2163L58.4546 22.4294Z" fill="#FBFF00"/>
<path d="M58.6444 22.5202C58.6444 22.5202 60.9744 21.0023 60.7844 22.3904C60.5944 23.7786 57.5144 25.3265 57.5144 25.3265L58.6444 22.5202Z" fill="#FBFF00"/>
<path d="M59.855 19.0629C59.855 19.0629 59.1248 16.3958 58.2946 17.5246C57.4644 18.6534 58.5747 21.8499 58.5747 21.8499L59.855 19.0629Z" fill="#FFFDCC"/>
<path d="M60.0347 19.1536C60.0347 19.1536 62.3647 17.6356 62.1747 19.0237C61.9847 20.4119 58.9047 21.9598 58.9047 21.9598L60.0347 19.1536Z" fill="#FFFDCC"/>
<path d="M15.1533 17.3852C15.1833 17.4851 15.1833 17.575 15.1533 17.6649C15.1233 17.8546 14.9733 18.0244 14.7733 18.0743C14.4833 18.1642 14.1733 17.9944 14.0833 17.7048L13.3833 15.348C13.3233 15.1183 13.4033 14.8786 13.5833 14.7488C13.6433 14.7088 13.6933 14.6689 13.7633 14.6489C14.0633 14.569 14.3633 14.7388 14.4533 15.0284L15.1533 17.3852Z" fill="#FF850A"/>
<path d="M16.8537 16.4665C16.8837 16.5664 16.8837 16.6563 16.8537 16.7462C16.8237 16.9359 16.6737 17.1057 16.4737 17.1556C16.1837 17.2455 15.8737 17.0757 15.7837 16.7861L15.0937 14.4293C15.0237 14.1996 15.1037 13.9599 15.2837 13.8301C15.3437 13.7901 15.3937 13.7502 15.4637 13.7302C15.7637 13.6503 16.0737 13.8201 16.1637 14.1097L16.8537 16.4665Z" fill="#FF850A"/>
<path d="M18.5642 15.8157C18.5342 16.0155 18.3942 16.1753 18.1942 16.2252C17.8942 16.3151 17.5842 16.1453 17.4942 15.8557L16.8042 13.4988C16.7342 13.2691 16.8142 13.0195 17.0042 12.8897C17.0642 12.8597 17.1142 12.8197 17.1842 12.7998C17.4742 12.7199 17.7842 12.8897 17.8742 13.1793L18.5642 15.5361C18.5842 15.626 18.5942 15.7259 18.5642 15.8157Z" fill="#FF850A"/>
<path d="M20.2846 14.6076C20.3046 14.6975 20.3046 14.7874 20.2846 14.8773C20.2546 15.077 20.1046 15.2468 19.9046 15.2967C19.6046 15.3866 19.2946 15.2168 19.2146 14.9272L18.5146 12.5704C18.4446 12.3407 18.5246 12.091 18.7146 11.9612C18.7746 11.9312 18.8246 11.8913 18.8946 11.8713C19.1846 11.7914 19.4946 11.9612 19.5846 12.2508L20.2846 14.6076Z" fill="#FF850A"/>
<path d="M22.045 14.1785C22.015 14.3783 21.875 14.538 21.675 14.598C21.375 14.6779 21.065 14.5081 20.975 14.2185L20.285 11.8616C20.215 11.6319 20.295 11.3823 20.485 11.2624C20.545 11.2225 20.595 11.1925 20.665 11.1726C20.955 11.0827 21.265 11.2524 21.355 11.5421L22.045 13.8989C22.065 13.9888 22.075 14.0887 22.045 14.1785Z" fill="#FF850A"/>
<path d="M23.8055 13.3992C23.7755 13.5989 23.6355 13.7587 23.4355 13.8186C23.1355 13.9085 22.8255 13.7387 22.7455 13.4391L22.0455 11.0823C21.9755 10.8626 22.0555 10.6129 22.2455 10.4831C22.3055 10.4531 22.3555 10.4132 22.4255 10.3932C22.7155 10.3033 23.0255 10.4731 23.1155 10.7727L23.8055 13.1295C23.8255 13.2194 23.8355 13.3093 23.8055 13.3992Z" fill="#FF850A"/>
<path d="M25.5759 12.6591C25.5559 12.8489 25.4059 13.0187 25.1959 13.0786C24.9059 13.1684 24.5959 12.9987 24.5059 12.7091L23.8059 10.3422C23.7359 10.1225 23.8259 9.88285 24.0059 9.75302C24.0659 9.71307 24.1159 9.67313 24.1859 9.65315C24.4859 9.56327 24.7859 9.74303 24.8759 10.0326L25.5759 12.3895C25.5959 12.4794 25.6059 12.5693 25.5759 12.6591Z" fill="#FF850A"/>
<path d="M27.3164 11.7904C27.2864 12.0001 27.1364 12.1699 26.9264 12.2398C26.6364 12.3197 26.3264 12.1499 26.2364 11.8603L25.5364 9.50348C25.4764 9.27378 25.5564 9.0341 25.7364 8.90428C25.7964 8.86433 25.8464 8.83437 25.9164 8.8144C26.2164 8.72452 26.5164 8.89429 26.6064 9.1839L27.3064 11.5408C27.3264 11.6306 27.3364 11.7105 27.3164 11.8004V11.7904Z" fill="#FF850A"/>
<path d="M29.0268 10.9022C28.9968 11.1019 28.8468 11.2717 28.6468 11.3416C28.3468 11.4215 28.0468 11.2517 27.9568 10.9621L27.2568 8.60528C27.1868 8.37559 27.2668 8.12592 27.4568 8.00609C27.5168 7.96614 27.5668 7.93618 27.6368 7.9162C27.9268 7.82633 28.2368 7.9961 28.3268 8.28571L29.0268 10.6426C29.0468 10.7324 29.0568 10.8323 29.0268 10.9122V10.9022Z" fill="#FF850A"/>
<path d="M30.7672 9.8134C30.7872 9.90327 30.7872 9.99315 30.7672 10.073C30.7372 10.2728 30.5972 10.4426 30.3872 10.5125C30.0872 10.6023 29.7872 10.4326 29.6972 10.133L28.9972 7.77612C28.9272 7.55642 29.0072 7.30675 29.1972 7.17692C29.2572 7.14696 29.3072 7.10702 29.3772 7.08704C29.6672 6.99716 29.9772 7.16694 30.0672 7.46654L30.7672 9.82338V9.8134Z" fill="#FF850A"/>
<path d="M32.4777 9.16382C32.4477 9.36355 32.3077 9.52334 32.0977 9.58326C31.8077 9.67314 31.4977 9.50337 31.4077 9.20377L30.7077 6.84692C30.6377 6.62722 30.7277 6.38754 30.9077 6.25771C30.9677 6.21776 31.0177 6.17782 31.0877 6.15784C31.3877 6.06796 31.6877 6.23774 31.7777 6.53734L32.4777 8.89418C32.4977 8.98406 32.5077 9.07394 32.4777 9.16382Z" fill="#FF850A"/>
<path d="M34.3181 8.35425C34.2981 8.544 34.1481 8.71377 33.9381 8.77369C33.6481 8.86357 33.3381 8.6938 33.2481 8.40418L32.5481 6.03735C32.4781 5.81765 32.5681 5.57797 32.7481 5.44814C32.8081 5.40819 32.8581 5.36825 32.9281 5.34827C33.2281 5.25839 33.5281 5.42817 33.6181 5.72777L34.3181 8.08461C34.3381 8.17449 34.3481 8.26437 34.3181 8.35425Z" fill="#FF850A"/>
<path d="M15.1534 17.3852C15.1834 17.4851 15.1834 17.575 15.1534 17.6649C15.0934 17.6948 15.0434 17.7348 14.9734 17.7547C14.6834 17.8446 14.3734 17.6748 14.2834 17.3752L13.5834 15.0184C13.5534 14.9285 13.5534 14.8386 13.5834 14.7488C13.6434 14.7088 13.6934 14.6689 13.7634 14.6489C14.0634 14.569 14.3634 14.7388 14.4534 15.0284L15.1534 17.3852Z" fill="#FFBB29"/>
<path d="M16.8538 16.4665C16.8838 16.5664 16.8838 16.6563 16.8538 16.7462C16.7938 16.7761 16.7438 16.8161 16.6738 16.836C16.3838 16.9259 16.0738 16.7561 15.9838 16.4565L15.2838 14.0997C15.2638 14.0098 15.2638 13.9199 15.2838 13.8301C15.3438 13.7901 15.3938 13.7502 15.4638 13.7302C15.7638 13.6503 16.0738 13.8201 16.1638 14.1097L16.8538 16.4665Z" fill="#FFBB29"/>
<path d="M18.5642 15.8157C18.5042 15.8457 18.4542 15.8856 18.3842 15.9056C18.0942 15.9955 17.7842 15.8257 17.6942 15.5261L17.0042 13.1693C16.9742 13.0794 16.9742 12.9795 17.0042 12.8897C17.0642 12.8597 17.1142 12.8197 17.1842 12.7998C17.4742 12.7199 17.7842 12.8897 17.8742 13.1793L18.5642 15.5361C18.5842 15.626 18.5942 15.7259 18.5642 15.8157Z" fill="#FFBB29"/>
<path d="M20.2847 14.6076C20.3047 14.6975 20.3047 14.7874 20.2847 14.8773C20.2247 14.9172 20.1747 14.9572 20.1047 14.9771C19.8047 15.067 19.4947 14.8973 19.4047 14.5977L18.7147 12.2408C18.6847 12.1509 18.6847 12.0511 18.7147 11.9612C18.7747 11.9312 18.8247 11.8913 18.8947 11.8713C19.1847 11.7914 19.4947 11.9612 19.5847 12.2508L20.2847 14.6076Z" fill="#FFBB29"/>
<path d="M22.0451 14.1785C21.9851 14.2085 21.9351 14.2484 21.8651 14.2684C21.5751 14.3583 21.2651 14.1885 21.1751 13.8889L20.4851 11.5321C20.4651 11.4422 20.4551 11.3523 20.4851 11.2624C20.5451 11.2225 20.5951 11.1925 20.6651 11.1726C20.9551 11.0827 21.2651 11.2524 21.3551 11.5421L22.0451 13.8989C22.0651 13.9888 22.0751 14.0887 22.0451 14.1785Z" fill="#FFBB29"/>
<path d="M23.8056 13.3992C23.8056 13.3992 23.7056 13.4691 23.6356 13.4891C23.3356 13.5789 23.0256 13.4092 22.9356 13.1195L22.2456 10.7527C22.2256 10.6628 22.2156 10.573 22.2456 10.4831C22.3056 10.4531 22.3556 10.4132 22.4256 10.3932C22.7156 10.3033 23.0256 10.4731 23.1156 10.7727L23.8056 13.1295C23.8256 13.2194 23.8356 13.3093 23.8056 13.3992Z" fill="#FFBB29"/>
<path d="M25.576 12.6591C25.516 12.6991 25.466 12.739 25.396 12.759C25.096 12.8489 24.796 12.6791 24.706 12.3795L24.006 10.0227C23.986 9.93278 23.976 9.8429 24.006 9.75302C24.066 9.71307 24.116 9.67313 24.186 9.65315C24.486 9.56327 24.786 9.74303 24.876 10.0326L25.576 12.3895C25.596 12.4794 25.606 12.5693 25.576 12.6591Z" fill="#FFBB29"/>
<path d="M27.3164 11.7906C27.2564 11.8506 27.1964 11.8805 27.1264 11.9005C26.8264 11.9904 26.5264 11.8206 26.4364 11.521L25.7364 9.16415C25.7164 9.07427 25.7064 8.98439 25.7364 8.89451C25.7964 8.85457 25.8464 8.82461 25.9164 8.80463C26.2164 8.71475 26.5164 8.88453 26.6064 9.17414L27.3064 11.531C27.3264 11.6209 27.3364 11.7008 27.3164 11.7906Z" fill="#FFBB29"/>
<path d="M29.0269 10.9015C28.9669 10.9414 28.9169 10.9813 28.8469 11.0013C28.5469 11.0912 28.2369 10.9214 28.1569 10.6218L27.4569 8.26498C27.4369 8.1751 27.4269 8.08522 27.4569 7.99534C27.5169 7.9554 27.5669 7.92544 27.6369 7.90546C27.9269 7.81558 28.2369 7.98536 28.3269 8.27497L29.0269 10.6318C29.0469 10.7217 29.0569 10.8216 29.0269 10.9015Z" fill="#FFBB29"/>
<path d="M30.7673 9.81362C30.7873 9.9035 30.7873 9.99338 30.7673 10.0733C30.7073 10.1332 30.6573 10.1532 30.5873 10.1731C30.2873 10.263 29.9773 10.0932 29.8973 9.80363L29.1973 7.4368C29.1773 7.34692 29.1673 7.25704 29.1973 7.16716C29.2573 7.1372 29.3073 7.09725 29.3773 7.07728C29.6673 6.9874 29.9773 7.15717 30.0673 7.45677L30.7673 9.81362Z" fill="#FFBB29"/>
<path d="M32.4777 9.16382C32.4177 9.20377 32.3677 9.23373 32.2977 9.2537C31.9977 9.34358 31.6977 9.17381 31.6077 8.8842L30.9077 6.51736C30.8877 6.42748 30.8777 6.3376 30.9077 6.25771C30.9677 6.21776 31.0177 6.17782 31.0877 6.15784C31.3877 6.06796 31.6877 6.23774 31.7777 6.53734L32.4777 8.89418C32.4977 8.98406 32.5077 9.07394 32.4777 9.16382Z" fill="#FFBB29"/>
<path d="M34.3182 8.35425C34.2582 8.3942 34.2082 8.43414 34.1382 8.45412C33.8382 8.544 33.5382 8.36424 33.4482 8.07463L32.7482 5.71778C32.7282 5.6279 32.7182 5.53802 32.7482 5.44814C32.8082 5.40819 32.8582 5.36825 32.9282 5.34827C33.2282 5.25839 33.5282 5.42817 33.6182 5.72777L34.3182 8.08461C34.3382 8.17449 34.3482 8.26437 34.3182 8.35425Z" fill="#FFBB29"/>
<path d="M43.9309 7.44529C43.9009 7.54516 43.9009 7.63504 43.9309 7.72492C43.9609 7.91466 44.1109 8.08443 44.3109 8.13437C44.6009 8.22425 44.9109 8.05447 45.0009 7.76486L45.7009 5.40802C45.7609 5.17832 45.6809 4.93864 45.5009 4.80882C45.4409 4.76887 45.3909 4.72892 45.3209 4.70895C45.0209 4.62906 44.7209 4.79883 44.6309 5.08844L43.9309 7.44529Z" fill="#FF850A"/>
<path d="M64.126 16.7658C64.096 16.8657 64.096 16.9556 64.126 17.0455C64.156 17.2352 64.306 17.405 64.506 17.4549C64.796 17.5448 65.106 17.375 65.196 17.0854L65.886 14.7286C65.956 14.4989 65.876 14.2592 65.696 14.1294C65.636 14.0894 65.586 14.0495 65.516 14.0295C65.216 13.9496 64.906 14.1194 64.816 14.409L64.126 16.7658Z" fill="#FF850A"/>
<path d="M62.2155 16.1356C62.2455 16.3353 62.3855 16.4951 62.5855 16.545C62.8855 16.6349 63.1955 16.4651 63.2855 16.1755L63.9755 13.8187C64.0455 13.589 63.9655 13.3393 63.7755 13.2095C63.7155 13.1795 63.6655 13.1396 63.5955 13.1196C63.3055 13.0397 62.9955 13.2095 62.9055 13.4991L62.2155 15.8559C62.1955 15.9458 62.1855 16.0457 62.2155 16.1356Z" fill="#FF850A"/>
<path d="M60.185 14.8572C60.165 14.947 60.165 15.0369 60.185 15.1268C60.215 15.3265 60.365 15.4963 60.565 15.5462C60.865 15.6361 61.175 15.4663 61.255 15.1767L61.955 12.8199C62.025 12.5902 61.945 12.3405 61.755 12.2107C61.695 12.1807 61.645 12.1408 61.575 12.1208C61.285 12.0409 60.975 12.2107 60.885 12.5003L60.185 14.8572Z" fill="#FF850A"/>
<path d="M58.3746 14.3782C58.4046 14.578 58.5446 14.7378 58.7446 14.7977C59.0446 14.8776 59.3546 14.7078 59.4446 14.4182L60.1346 12.0613C60.2046 11.8316 60.1246 11.582 59.9346 11.4621C59.8746 11.4222 59.8246 11.3922 59.7546 11.3723C59.4646 11.2824 59.1546 11.4522 59.0646 11.7418L58.3746 14.0986C58.3546 14.1885 58.3446 14.2884 58.3746 14.3782Z" fill="#FF850A"/>
<path d="M56.2741 13.3992C56.3041 13.5989 56.4441 13.7587 56.6441 13.8186C56.9441 13.9085 57.2541 13.7387 57.3341 13.4391L58.0341 11.0823C58.1041 10.8626 58.0241 10.6129 57.8341 10.4831C57.7741 10.4531 57.7241 10.4132 57.6541 10.3932C57.3641 10.3033 57.0541 10.4731 56.9641 10.7727L56.2741 13.1295C56.2541 13.2194 56.2441 13.3093 56.2741 13.3992Z" fill="#FF850A"/>
<path d="M54.4936 12.6591C54.5136 12.8489 54.6636 13.0187 54.8736 13.0786C55.1636 13.1684 55.4736 12.9987 55.5636 12.7091L56.2636 10.3422C56.3336 10.1225 56.2436 9.88285 56.0636 9.75302C56.0036 9.71307 55.9536 9.67313 55.8836 9.65315C55.5836 9.56327 55.2836 9.74303 55.1936 10.0326L54.4936 12.3895C54.4736 12.4794 54.4636 12.5693 54.4936 12.6591Z" fill="#FF850A"/>
<path d="M52.7532 11.7902C52.7832 11.9999 52.9332 12.1697 53.1432 12.2396C53.4332 12.3195 53.7432 12.1497 53.8332 11.8601L54.5332 9.50323C54.5932 9.27354 54.5132 9.03386 54.3332 8.90403C54.2732 8.86409 54.2232 8.83413 54.1532 8.81415C53.8532 8.72427 53.5532 8.89405 53.4632 9.18366L52.7632 11.5405C52.7432 11.6304 52.7332 11.7103 52.7532 11.8002V11.7902Z" fill="#FF850A"/>
<path d="M51.0427 10.902C51.0727 11.1017 51.2227 11.2715 51.4227 11.3414C51.7227 11.4213 52.0227 11.2515 52.1127 10.9619L52.8127 8.60504C52.8827 8.37535 52.8027 8.12568 52.6127 8.00584C52.5527 7.96589 52.5027 7.93593 52.4327 7.91596C52.1427 7.82608 51.8327 7.99585 51.7427 8.28547L51.0427 10.6423C51.0227 10.7322 51.0127 10.8321 51.0427 10.912V10.902Z" fill="#FF850A"/>
<path d="M49.3023 9.8134C49.2823 9.90327 49.2823 9.99315 49.3023 10.073C49.3323 10.2728 49.4723 10.4426 49.6823 10.5125C49.9823 10.6023 50.2823 10.4326 50.3723 10.133L51.0723 7.77612C51.1423 7.55642 51.0623 7.30675 50.8723 7.17692C50.8123 7.14696 50.7623 7.10702 50.6923 7.08704C50.4023 6.99716 50.0923 7.16694 50.0023 7.46654L49.3023 9.82338V9.8134Z" fill="#FF850A"/>
<path d="M47.6019 9.16358C47.6319 9.36331 47.7719 9.5231 47.9819 9.58302C48.2719 9.6729 48.5819 9.50312 48.6719 9.20352L49.3719 6.84668C49.4419 6.62697 49.3519 6.38729 49.1719 6.25747C49.1119 6.21752 49.0619 6.17757 48.9919 6.1576C48.6919 6.06772 48.3919 6.23749 48.3019 6.53709L47.6019 8.89394C47.5819 8.98382 47.5719 9.0737 47.6019 9.16358Z" fill="#FF850A"/>
<path d="M45.7514 8.35401C45.7714 8.54375 45.9214 8.71353 46.1314 8.77345C46.4214 8.86333 46.7314 8.69355 46.8214 8.40394L47.5214 6.03711C47.5914 5.8174 47.5014 5.57772 47.3214 5.4479C47.2614 5.40795 47.2114 5.368 47.1414 5.34803C46.8414 5.25815 46.5414 5.42792 46.4514 5.72752L45.7514 8.08437C45.7314 8.17425 45.7214 8.26413 45.7514 8.35401Z" fill="#FF850A"/>
<path d="M43.9309 7.44529C43.9009 7.54516 43.9009 7.63504 43.9309 7.72492C43.9909 7.75488 44.0409 7.79482 44.1109 7.8148C44.4009 7.90467 44.7109 7.7349 44.8009 7.4353L45.5009 5.07846C45.5309 4.98858 45.5309 4.8987 45.5009 4.80882C45.4409 4.76887 45.3909 4.72892 45.3209 4.70895C45.0209 4.62906 44.7209 4.79883 44.6309 5.08844L43.9309 7.44529Z" fill="#FFBB29"/>
<path d="M64.126 16.7658C64.096 16.8657 64.096 16.9556 64.126 17.0455C64.186 17.0754 64.236 17.1154 64.306 17.1354C64.596 17.2252 64.906 17.0555 64.996 16.7559L65.696 14.399C65.716 14.3091 65.716 14.2193 65.696 14.1294C65.636 14.0894 65.586 14.0495 65.516 14.0295C65.216 13.9496 64.906 14.1194 64.816 14.409L64.126 16.7658Z" fill="#FFBB29"/>
<path d="M62.2155 16.1356C62.2755 16.1655 62.3255 16.2055 62.3955 16.2254C62.6855 16.3153 62.9955 16.1455 63.0855 15.8459L63.7755 13.4891C63.8055 13.3992 63.8055 13.2994 63.7755 13.2095C63.7155 13.1795 63.6655 13.1396 63.5955 13.1196C63.3055 13.0397 62.9955 13.2095 62.9055 13.4991L62.2155 15.8559C62.1955 15.9458 62.1855 16.0457 62.2155 16.1356Z" fill="#FFBB29"/>
<path d="M60.185 14.8572C60.165 14.947 60.165 15.0369 60.185 15.1268C60.245 15.1667 60.295 15.2067 60.365 15.2267C60.665 15.3165 60.975 15.1468 61.065 14.8472L61.755 12.4903C61.785 12.4004 61.785 12.3006 61.755 12.2107C61.695 12.1807 61.645 12.1408 61.575 12.1208C61.285 12.0409 60.975 12.2107 60.885 12.5003L60.185 14.8572Z" fill="#FFBB29"/>
<path d="M58.3746 14.3782C58.4346 14.4082 58.4846 14.4481 58.5546 14.4681C58.8446 14.558 59.1546 14.3882 59.2446 14.0886L59.9346 11.7318C59.9546 11.6419 59.9646 11.552 59.9346 11.4621C59.8746 11.4222 59.8246 11.3922 59.7546 11.3723C59.4646 11.2824 59.1546 11.4522 59.0646 11.7418L58.3746 14.0986C58.3546 14.1885 58.3446 14.2884 58.3746 14.3782Z" fill="#FFBB29"/>
<path d="M56.2741 13.3992C56.2741 13.3992 56.3741 13.4691 56.4441 13.4891C56.7441 13.5789 57.0541 13.4092 57.1441 13.1195L57.8341 10.7527C57.8541 10.6628 57.8641 10.573 57.8341 10.4831C57.7741 10.4531 57.7241 10.4132 57.6541 10.3932C57.3641 10.3033 57.0541 10.4731 56.9641 10.7727L56.2741 13.1295C56.2541 13.2194 56.2441 13.3093 56.2741 13.3992Z" fill="#FFBB29"/>
<path d="M54.4936 12.6591C54.5536 12.6991 54.6036 12.739 54.6736 12.759C54.9736 12.8489 55.2736 12.6791 55.3636 12.3795L56.0636 10.0227C56.0836 9.93278 56.0936 9.8429 56.0636 9.75302C56.0036 9.71307 55.9536 9.67313 55.8836 9.65315C55.5836 9.56327 55.2836 9.74303 55.1936 10.0326L54.4936 12.3895C54.4736 12.4794 54.4636 12.5693 54.4936 12.6591Z" fill="#FFBB29"/>
<path d="M52.7532 11.7906C52.8132 11.8506 52.8732 11.8805 52.9432 11.9005C53.2432 11.9904 53.5432 11.8206 53.6332 11.521L54.3332 9.16415C54.3532 9.07427 54.3632 8.98439 54.3332 8.89451C54.2732 8.85457 54.2232 8.82461 54.1532 8.80463C53.8532 8.71475 53.5532 8.88453 53.4632 9.17414L52.7632 11.531C52.7432 11.6209 52.7332 11.7008 52.7532 11.7906Z" fill="#FFBB29"/>
<path d="M51.0427 10.9012C51.1027 10.9412 51.1527 10.9811 51.2227 11.0011C51.5227 11.091 51.8327 10.9212 51.9127 10.6216L52.6127 8.26474C52.6327 8.17486 52.6427 8.08498 52.6127 7.9951C52.5527 7.95515 52.5027 7.92519 52.4327 7.90522C52.1427 7.81534 51.8327 7.98511 51.7427 8.27472L51.0427 10.6316C51.0227 10.7214 51.0127 10.8213 51.0427 10.9012Z" fill="#FFBB29"/>
<path d="M49.3023 9.81264C49.2823 9.90252 49.2823 9.9924 49.3023 10.0723C49.3623 10.1322 49.4123 10.1522 49.4823 10.1722C49.7823 10.262 50.0923 10.0923 50.1723 9.80265L50.8723 7.43582C50.8923 7.34594 50.9023 7.25606 50.8723 7.16618C50.8123 7.13622 50.7623 7.09627 50.6923 7.0763C50.4023 6.98642 50.0923 7.15619 50.0023 7.45579L49.3023 9.81264Z" fill="#FFBB29"/>
<path d="M47.6019 9.16358C47.6619 9.20352 47.7119 9.23348 47.7819 9.25346C48.0819 9.34334 48.3819 9.17356 48.4719 8.88395L49.1719 6.51712C49.1919 6.42724 49.2019 6.33736 49.1719 6.25747C49.1119 6.21752 49.0619 6.17757 48.9919 6.1576C48.6919 6.06772 48.3919 6.23749 48.3019 6.53709L47.6019 8.89394C47.5819 8.98382 47.5719 9.0737 47.6019 9.16358Z" fill="#FFBB29"/>
<path d="M45.7514 8.35401C45.8114 8.39395 45.8614 8.4339 45.9314 8.45387C46.2314 8.54375 46.5314 8.36399 46.6214 8.07438L47.3214 5.71754C47.3414 5.62766 47.3514 5.53778 47.3214 5.4479C47.2614 5.40795 47.2114 5.368 47.1414 5.34803C46.8414 5.25815 46.5414 5.42792 46.4514 5.72752L45.7514 8.08437C45.7314 8.17425 45.7214 8.26413 45.7514 8.35401Z" fill="#FFBB29"/>
</svg>
