<svg width="80" height="48" viewBox="0 0 80 48" fill="none" xmlns="http://www.w3.org/2000/svg">
<path d="M47.0017 0.10485C46.9817 0.22488 46.7017 0.424922 46.7017 0.424922L6.97173 21.1001L4.4611 22.4104L3.71091 22.7905L2.0505 23.6607L1.55037 23.9208C1.42034 23.8808 1.2803 23.8208 1.16027 23.7508C1.06025 23.6907 0.970227 23.6407 0.880204 23.5707C0.760174 23.4707 0.660149 23.3707 0.570127 23.2606H0.560124C0.560124 23.2606 0.500109 23.1906 0.480104 23.1606H0.470102C0.300059 22.9406 0.170027 22.6905 0.0900065 22.4204C0.0700015 22.3304 0.0499965 22.2504 0.019989 22.1604L0.580129 21.9003L0.840194 21.7803L2.4806 21.0001L3.46085 20.53L4.00098 20.2699L6.33157 19.1596L46.5616 0.0548345C46.5616 0.0548345 46.5716 0.05484 46.5816 0.0448375C46.6617 0.0248325 46.9117 -0.0451851 46.9917 0.0448375C47.0017 0.05484 47.0017 0.0748382 47.0017 0.0848407V0.10485Z" fill="#372B82"/>
<path d="M4.55113 21.6598V21.7598C4.55113 21.9799 4.52112 22.2099 4.46111 22.41C4.18104 23.3602 3.31082 24.0404 2.26056 24.0404C2.0105 24.0404 1.77044 24.0004 1.55038 23.9204C1.42035 23.8803 1.28031 23.8203 1.16028 23.7503C1.06026 23.6903 0.970235 23.6403 0.880213 23.5703C0.760183 23.4702 0.660158 23.3702 0.570135 23.2602H0.560133C0.560133 23.2602 0.500118 23.1902 0.480113 23.1602H0.47011C0.300068 22.9401 0.170035 22.6901 0.0900152 22.42C0.0700102 22.33 0.0500052 22.2499 0.0199977 22.1599C-7.26484e-06 22.0399 -0.0100098 21.8998 -0.0100098 21.7598C-0.0100098 21.3697 0.0900153 20.9996 0.280063 20.6795C0.660158 19.9694 1.41035 19.4893 2.27056 19.4893C2.54063 19.4893 2.79069 19.5293 3.03075 19.6193C3.07076 19.6193 3.11077 19.6393 3.14078 19.6493C3.34083 19.7393 3.53088 19.8393 3.70092 19.9694C3.81095 20.0594 3.91097 20.1594 4.00099 20.2695C4.07101 20.3395 4.11102 20.4195 4.16103 20.4795C4.26106 20.6095 4.34108 20.7596 4.39109 20.8996C4.4211 20.9796 4.45111 21.0596 4.47111 21.1297C4.47111 21.1297 4.47444 21.1363 4.48111 21.1497C4.52112 21.3097 4.55113 21.4797 4.56113 21.6398L4.55113 21.6598Z" fill="#372B82"/>
<path d="M3.13004 19.6595C2.87004 19.8595 2.60004 20.1495 2.52004 20.5395C2.50004 20.6295 2.49004 20.7195 2.49004 20.8195C2.51004 21.7995 1.53004 22.5995 0.670037 21.9895C0.670037 21.9895 0.660037 21.9895 0.650037 21.9795C0.240037 21.6895 0.200037 21.1595 0.270037 20.6795C0.650037 19.9595 1.40004 19.4795 2.27004 19.4795C2.58004 19.4795 2.87004 19.5395 3.14004 19.6595H3.13004Z" fill="#4D3CB5"/>
<g style="mix-blend-mode:multiply">
<path d="M47.0016 0.104492C46.9816 0.224522 46.7015 0.424564 46.7015 0.424564L6.97158 21.0997L4.46095 22.4101C4.18088 23.3603 3.31066 24.0405 2.2604 24.0405C2.01034 24.0405 1.77028 24.0005 1.55022 23.9204C1.42019 23.8804 1.28015 23.8204 1.16012 23.7504C1.0601 23.6904 0.970077 23.6404 0.880054 23.5704C0.760024 23.4703 0.659999 23.3703 0.569977 23.2603C0.870052 23.4603 1.30016 23.6504 1.84029 23.6604H2.05035C2.90056 23.6404 3.41069 23.2503 3.71076 22.7902C4.18088 22.12 4.20088 21.3098 4.20088 21.3098L4.47095 21.1798L47.0016 0.114489V0.104492Z" fill="#4D3CB5"/>
</g>
<path d="M0.620127 21.53C1.16013 22.05 1.32013 21.22 1.38013 20.76C1.44013 20.3 1.83013 19.79 1.83013 19.79C1.83013 19.79 1.33013 19.81 1.00013 20.09C0.550127 20.47 0.260127 21.18 0.620127 21.53Z" fill="#5E4ADE"/>
<path d="M32.9782 0.10485C32.9982 0.22488 33.2783 0.424922 33.2783 0.424922L73.0083 21.1001L75.5189 22.4104L76.2691 22.7905L77.9295 23.6607L78.4296 23.9208C78.5596 23.8808 78.6997 23.8208 78.8197 23.7508C78.9197 23.6907 79.0097 23.6407 79.0998 23.5707C79.2198 23.4707 79.3198 23.3707 79.4099 23.2606H79.4198C79.4198 23.2606 79.4799 23.1906 79.4999 23.1606H79.5099C79.6799 22.9406 79.8099 22.6905 79.89 22.4204C79.91 22.3304 79.93 22.2504 79.96 22.1604L79.3998 21.9003L79.1398 21.7803L77.4994 21.0001L76.5191 20.53L75.979 20.2699L73.6484 19.1596L33.4183 0.0548345C33.4183 0.0548345 33.4083 0.05484 33.3983 0.0448375C33.3183 0.0248325 33.0683 -0.0451851 32.9882 0.0448375C32.9782 0.05484 32.9782 0.0748382 32.9782 0.0848407V0.10485Z" fill="#372B82"/>
<path d="M75.4289 21.6598V21.7598C75.4289 21.9799 75.4589 22.2099 75.5189 22.41C75.7989 23.3602 76.6692 24.0404 77.7194 24.0404C77.9695 24.0404 78.2096 24.0004 78.4296 23.9204C78.5596 23.8803 78.6997 23.8203 78.8197 23.7503C78.9197 23.6903 79.0098 23.6403 79.0998 23.5703C79.2198 23.4702 79.3198 23.3702 79.4099 23.2602H79.4199C79.4199 23.2602 79.4799 23.1902 79.4999 23.1602H79.5099C79.6799 22.9401 79.81 22.6901 79.89 22.42C79.91 22.33 79.93 22.2499 79.96 22.1599C79.98 22.0399 79.99 21.8998 79.99 21.7598C79.99 21.3697 79.89 20.9996 79.6999 20.6795C79.3198 19.9694 78.5696 19.4893 77.7094 19.4893C77.4394 19.4893 77.1893 19.5293 76.9492 19.6193C76.9092 19.6193 76.8692 19.6393 76.8392 19.6493C76.6392 19.7393 76.4491 19.8393 76.2791 19.9694C76.169 20.0594 76.069 20.1594 75.979 20.2695C75.909 20.3395 75.869 20.4195 75.819 20.4795C75.7189 20.6095 75.6389 20.7596 75.5889 20.8996C75.5589 20.9796 75.5289 21.0596 75.5089 21.1297C75.5089 21.1297 75.5055 21.1363 75.4989 21.1497C75.4589 21.3097 75.4289 21.4797 75.4189 21.6398L75.4289 21.6598Z" fill="#372B82"/>
<path d="M76.8492 19.6595C77.1092 19.8595 77.3792 20.1495 77.4592 20.5395C77.4792 20.6295 77.4892 20.7195 77.4892 20.8195C77.4692 21.7995 78.4492 22.5995 79.3092 21.9895C79.3092 21.9895 79.3192 21.9895 79.3292 21.9795C79.7392 21.6895 79.7792 21.1595 79.7092 20.6795C79.3292 19.9595 78.5792 19.4795 77.7092 19.4795C77.3992 19.4795 77.1092 19.5395 76.8392 19.6595H76.8492Z" fill="#4D3CB5"/>
<g style="mix-blend-mode:multiply">
<path d="M32.9782 0.104492C32.9982 0.224522 33.2783 0.424564 33.2783 0.424564L73.0083 21.0997L75.5189 22.4101C75.7989 23.3603 76.6692 24.0405 77.7194 24.0405C77.9695 24.0405 78.2095 24.0005 78.4296 23.9204C78.5596 23.8804 78.6997 23.8204 78.8197 23.7504C78.9197 23.6904 79.0097 23.6404 79.0998 23.5704C79.2198 23.4703 79.3198 23.3703 79.4099 23.2603C79.1098 23.4603 78.6797 23.6504 78.1395 23.6604H77.9295C77.0793 23.6404 76.5691 23.2503 76.2691 22.7902C75.7989 22.12 75.7789 21.3098 75.7789 21.3098L75.5089 21.1798L32.9782 0.114489V0.104492Z" fill="#4D3CB5"/>
</g>
<path d="M79.3595 21.53C78.8195 22.05 78.6595 21.22 78.5995 20.76C78.5395 20.3 78.1495 19.79 78.1495 19.79C78.1495 19.79 78.6495 19.81 78.9795 20.09C79.4295 20.47 79.7195 21.18 79.3595 21.53Z" fill="#5E4ADE"/>
<path d="M17.5144 41.1845L18.5247 46.2758C18.5847 46.5758 18.8747 46.7759 19.1848 46.7159C19.4849 46.6558 19.6849 46.3658 19.6249 46.0557L18.6147 40.9644C18.5547 40.6643 18.2646 40.4643 17.9545 40.5243C17.6544 40.5843 17.4544 40.8744 17.5144 41.1845Z" fill="#FBFF00"/>
<path d="M19.6449 40.3839L20.5352 45.6552C20.5852 45.9552 20.8752 46.1653 21.1753 46.1153C21.4754 46.0653 21.6854 45.7752 21.6354 45.4751L20.7452 40.2038C20.6952 39.9037 20.4051 39.6937 20.105 39.7437C19.805 39.7937 19.5949 40.0838 19.6449 40.3839Z" fill="#FBFF00"/>
<path d="M21.2753 39.5343L22.4856 45.1457C22.5457 45.4457 22.8457 45.6358 23.1458 45.5758C23.4459 45.5158 23.6359 45.2157 23.5759 44.9156L22.3656 39.3042C22.3056 39.0041 22.0055 38.8141 21.7054 38.8741C21.4054 38.9341 21.2153 39.2342 21.2753 39.5343Z" fill="#FBFF00"/>
<path d="M23.3058 38.7042L24.4861 44.0855C24.5562 44.3856 24.8462 44.5756 25.1463 44.5156C25.4464 44.4456 25.6364 44.1555 25.5764 43.8455L24.3961 38.4641C24.3261 38.164 24.036 37.974 23.736 38.034C23.4359 38.104 23.2458 38.3941 23.3058 38.7042Z" fill="#FBFF00"/>
<path d="M25.4364 37.9634L26.5667 43.1547C26.6367 43.4548 26.9268 43.6449 27.2268 43.5849C27.5269 43.5148 27.717 43.2248 27.6569 42.9247L26.5267 37.7334C26.4566 37.4333 26.1666 37.2433 25.8665 37.3033C25.5664 37.3733 25.3764 37.6634 25.4364 37.9634Z" fill="#FBFF00"/>
<path d="M27.4769 36.9632L28.4371 42.5246C28.4871 42.8246 28.7772 43.0347 29.0873 42.9747C29.3874 42.9247 29.5974 42.6346 29.5374 42.3245L28.5772 36.7631C28.5272 36.463 28.2371 36.253 27.927 36.313C27.6269 36.363 27.4169 36.6531 27.4769 36.9632Z" fill="#FBFF00"/>
<path d="M29.3574 36.0931L30.3776 41.7245C30.4276 42.0246 30.7277 42.2247 31.0278 42.1746C31.3279 42.1246 31.5279 41.8246 31.4779 41.5245L30.4576 35.8931C30.4076 35.593 30.1075 35.3929 29.8075 35.443C29.5074 35.493 29.3073 35.793 29.3574 36.0931Z" fill="#FBFF00"/>
<path d="M30.9377 35.4628L32.158 40.9041C32.2281 41.2042 32.5281 41.3943 32.8282 41.3242C33.1283 41.2542 33.3183 40.9541 33.2483 40.6541L32.028 35.2127C31.958 34.9126 31.6579 34.7226 31.3579 34.7926C31.0578 34.8626 30.8677 35.1627 30.9377 35.4628Z" fill="#FBFF00"/>
<path d="M33.1083 35.033L33.8485 40.5744C33.8885 40.8844 34.1686 41.0945 34.4787 41.0545C34.7887 41.0145 34.9988 40.7344 34.9588 40.4243L34.2186 34.883C34.1786 34.5729 33.8985 34.3628 33.5884 34.4028C33.2783 34.4428 33.0683 34.7229 33.1083 35.033Z" fill="#FBFF00"/>
<path d="M34.7687 34.3832L35.4989 40.6047C35.5389 40.9148 35.809 41.1348 36.1191 41.0948C36.4291 41.0548 36.6492 40.7848 36.6092 40.4747L35.879 34.2531C35.839 33.943 35.5689 33.723 35.2588 33.763C34.9488 33.803 34.7287 34.0731 34.7687 34.3832Z" fill="#FBFF00"/>
<path d="M36.8392 34.173L36.8992 40.3845C36.8992 40.6946 37.1593 40.9447 37.4594 40.9347C37.7595 40.9247 38.0195 40.6746 38.0095 40.3745L37.9495 34.163C37.9495 33.8529 37.6894 33.6028 37.3894 33.6128C37.0893 33.6228 36.8292 33.8729 36.8392 34.173Z" fill="#FBFF00"/>
<path d="M38.8297 34.0226L38.8998 40.1141C38.8998 40.4242 39.1598 40.6743 39.4599 40.6643C39.76 40.6543 40.02 40.4042 40.01 40.1041L39.94 34.0126C39.94 33.7025 39.68 33.4524 39.3799 33.4624C39.0798 33.4725 38.8197 33.7225 38.8297 34.0226Z" fill="#FBFF00"/>
<path d="M40.8903 34.2524L40.3101 39.8438C40.2801 40.1538 40.5002 40.4239 40.8102 40.4539C41.1203 40.4839 41.3904 40.2639 41.4204 39.9538L42.0005 34.3624C42.0305 34.0523 41.8105 33.7823 41.5004 33.7522C41.1903 33.7222 40.9203 33.9423 40.8903 34.2524Z" fill="#FBFF00"/>
<path d="M42.9308 34.8032L42.0105 40.2046C41.9605 40.5046 42.1606 40.7947 42.4707 40.8447C42.7707 40.8947 43.0608 40.6947 43.1108 40.3846L44.0311 34.9833C44.0811 34.6832 43.881 34.3931 43.5709 34.3431C43.2709 34.2931 42.9808 34.4931 42.9308 34.8032Z" fill="#FBFF00"/>
<path d="M44.7212 35.6232L43.761 40.8445C43.701 41.1446 43.911 41.4347 44.2111 41.4947C44.5112 41.5547 44.8012 41.3446 44.8612 41.0446L45.8215 35.8233C45.8815 35.5232 45.6714 35.2331 45.3714 35.1731C45.0713 35.1131 44.7812 35.3231 44.7212 35.6232Z" fill="#FBFF00"/>
<path d="M46.3316 36.5534L45.6414 41.6146C45.6014 41.9247 45.8115 42.2048 46.1216 42.2448C46.4316 42.2848 46.7117 42.0747 46.7517 41.7647L47.4419 36.7034C47.4819 36.3933 47.2718 36.1133 46.9618 36.0732C46.6517 36.0332 46.3716 36.2433 46.3316 36.5534Z" fill="#FBFF00"/>
<path d="M48.1421 37.4938L47.4619 42.175C47.4219 42.485 47.6319 42.7651 47.932 42.8051C48.2421 42.8451 48.5222 42.6351 48.5622 42.335L49.2423 37.6538C49.2824 37.3438 49.0723 37.0637 48.7722 37.0237C48.4622 36.9837 48.1821 37.1937 48.1421 37.4938Z" fill="#FBFF00"/>
<path d="M49.9925 37.7633L49.2223 42.9947C49.1823 43.2947 49.3924 43.5848 49.6924 43.6248C49.9925 43.6648 50.2826 43.4548 50.3226 43.1547L51.0928 37.9234C51.1328 37.6233 50.9228 37.3332 50.6227 37.2932C50.3226 37.2532 50.0325 37.4633 49.9925 37.7633Z" fill="#FBFF00"/>
<path d="M52.063 38.6733L51.0328 43.7446C50.9728 44.0447 51.1628 44.3447 51.4729 44.4047C51.773 44.4648 52.073 44.2747 52.1331 43.9646L53.1633 38.8934C53.2233 38.5933 53.0333 38.2932 52.7232 38.2332C52.4231 38.1732 52.1231 38.3632 52.063 38.6733Z" fill="#FBFF00"/>
<path d="M54.0235 39.4937L52.9933 44.4549C52.9333 44.755 53.1233 45.055 53.4234 45.1151C53.7234 45.1751 54.0235 44.985 54.0835 44.6849L55.1138 39.7237C55.1738 39.4236 54.9838 39.1236 54.6837 39.0635C54.3836 39.0035 54.0835 39.1936 54.0235 39.4937Z" fill="#FBFF00"/>
<path d="M55.924 40.4239L54.7337 45.8052C54.6637 46.1053 54.8537 46.4054 55.1538 46.4754C55.4539 46.5454 55.754 46.3554 55.824 46.0553L57.0143 40.674C57.0843 40.3739 56.8942 40.0738 56.5942 40.0038C56.2941 39.9338 55.994 40.1238 55.924 40.4239Z" fill="#FBFF00"/>
<path d="M57.6945 41.6448L56.7342 46.3859C56.6742 46.686 56.8643 46.9861 57.1743 47.0461C57.4844 47.1061 57.7745 46.9161 57.8345 46.606L58.7947 41.8648C58.8548 41.5647 58.6647 41.2647 58.3546 41.2046C58.0446 41.1446 57.7545 41.3347 57.6945 41.6448Z" fill="#FBFF00"/>
<path d="M59.0848 41.6847L58.7447 46.7059C58.7247 47.016 58.9548 47.2761 59.2648 47.2961C59.5749 47.3161 59.835 47.086 59.855 46.7759L60.1951 41.7547C60.2151 41.4446 59.985 41.1845 59.6749 41.1645C59.3649 41.1445 59.1048 41.3746 59.0848 41.6847Z" fill="#FBFF00"/>
<path d="M14.2736 17.5491C14.2736 17.5491 9.65241 19.2295 17.5144 41.3551C18.0745 42.9355 34.0785 34.0432 40.4501 35.4036C45.1313 36.4038 57.5644 43.3356 59.0648 43.3356C60.5651 43.3356 62.6057 39.9547 63.886 36.1037C67.0968 26.4513 64.9862 16.919 64.9862 16.919L44.3111 7.62664C42.4506 6.54637 41.6004 8.14676 41.0303 7.78667C40.3201 7.33656 37.9495 7.42658 37.2193 7.72666C34.8687 8.7069 33.3483 8.42683 33.3483 8.42683L14.2636 17.5391L14.2736 17.5491Z" fill="#FFBB00"/>
<path d="M20.0445 36.0334C20.0445 36.0334 17.7545 34.4834 17.8545 35.8834C17.9545 37.2834 20.8845 38.9934 20.8845 38.9934L20.0445 36.0334Z" fill="#FBFF00"/>
<path d="M20.2451 35.9832C20.2451 35.9832 21.0253 33.3126 21.7854 34.4829C22.5456 35.6532 21.2153 38.844 21.2153 38.844L20.2451 35.9832Z" fill="#FBFF00"/>
<path d="M18.8541 32.1223C18.8541 32.1223 16.5641 30.5723 16.6641 31.9723C16.7641 33.3723 19.6941 35.0823 19.6941 35.0823L18.8541 32.1223Z" fill="#FFFDCC"/>
<path d="M19.0547 32.0721C19.0547 32.0721 19.8349 29.4014 20.5951 30.5717C21.3553 31.742 20.025 34.9328 20.025 34.9328L19.0547 32.0721Z" fill="#FFFDCC"/>
<path d="M25.4858 33.3827C25.4858 33.3827 23.3058 31.6827 23.3158 33.0827C23.3258 34.4827 26.1258 36.3927 26.1258 36.3927L25.4858 33.3827Z" fill="#FBFF00"/>
<path d="M25.6864 33.3434C25.6864 33.3434 26.6467 30.7327 27.3268 31.953C28.007 33.1733 26.4666 36.2641 26.4666 36.2641L25.6964 33.3434H25.6864Z" fill="#FBFF00"/>
<path d="M24.6256 29.8915C24.6256 29.8915 22.4456 28.1915 22.4556 29.5915C22.4556 30.9915 25.2656 32.9015 25.2656 32.9015L24.6256 29.8915Z" fill="#FFFDCC"/>
<path d="M24.8262 29.8522C24.8262 29.8522 25.7865 27.2415 26.4666 28.4618C27.1468 29.6821 25.6064 32.7729 25.6064 32.7729L24.8362 29.8522H24.8262Z" fill="#FFFDCC"/>
<path d="M30.9772 31.2925C30.9772 31.2925 28.8572 29.5225 28.8172 30.9225C28.7772 32.3225 31.5272 34.3125 31.5272 34.3125L30.9772 31.2925Z" fill="#FBFF00"/>
<path d="M31.1778 31.2525C31.1778 31.2525 32.218 28.6718 32.8582 29.9121C33.4984 31.1524 31.868 34.1932 31.868 34.1932L31.1778 31.2525Z" fill="#FBFF00"/>
<path d="M30.247 27.7615C30.247 27.7615 28.127 25.9915 28.087 27.3915C28.047 28.7915 30.797 30.7815 30.797 30.7815L30.247 27.7615Z" fill="#FFFDCC"/>
<path d="M30.4476 27.7212C30.4476 27.7212 31.4879 25.1406 32.128 26.3809C32.7682 27.6212 31.1378 30.662 31.1378 30.662L30.4476 27.7212Z" fill="#FFFDCC"/>
<path d="M36.5091 29.8621C36.5091 29.8621 34.6887 27.7816 34.4286 29.1619C34.1685 30.5422 36.5691 32.9428 36.5691 32.9428L36.5091 29.8721V29.8621Z" fill="#FBFF00"/>
<path d="M36.7192 29.8618C36.7192 29.8618 38.1495 27.4712 38.5896 28.8015C39.0298 30.1319 36.9292 32.8725 36.9292 32.8725L36.7192 29.8518V29.8618Z" fill="#FBFF00"/>
<path d="M36.2891 26.1814C36.2891 26.1814 34.4686 24.1009 34.2085 25.4812C33.9485 26.8616 36.3491 29.2622 36.3491 29.2622L36.2891 26.1914V26.1814Z" fill="#FFFDCC"/>
<path d="M36.4891 26.1814C36.4891 26.1814 37.9195 23.7908 38.3596 25.1211C38.7997 26.4514 36.6992 29.1921 36.6992 29.1921L36.4891 26.1714V26.1814Z" fill="#FFFDCC"/>
<path d="M42.0005 29.512C42.0005 29.512 40.5401 27.1714 40.06 28.4818C39.5799 29.7921 41.5704 32.5528 41.5704 32.5528L42.0005 29.512Z" fill="#FBFF00"/>
<path d="M42.1505 29.602C42.1505 29.602 43.951 27.4715 44.161 28.8619C44.3711 30.2522 41.8705 32.6128 41.8705 32.6128L42.1405 29.602H42.1505Z" fill="#FBFF00"/>
<path d="M42.4506 25.7913C42.4506 25.7913 40.9903 23.4507 40.5101 24.7611C40.03 26.0714 42.0205 28.8321 42.0205 28.8321L42.4506 25.7913Z" fill="#FFFDCC"/>
<path d="M42.6007 25.8914C42.6007 25.8914 44.4011 23.7608 44.6112 25.1512C44.8212 26.5415 42.3206 28.9021 42.3206 28.9021L42.5907 25.8914H42.6007Z" fill="#FFFDCC"/>
<path d="M48.032 31.0021C48.032 31.0021 46.7717 28.5415 46.1916 29.8218C45.6114 31.1022 47.3619 34.0029 47.3619 34.0029L48.042 31.0021H48.032Z" fill="#FBFF00"/>
<path d="M48.2321 31.052C48.2321 31.052 50.2026 29.0815 50.3026 30.4818C50.4026 31.8822 47.7119 34.0327 47.7119 34.0327L48.2321 31.052Z" fill="#FBFF00"/>
<path d="M48.7222 27.4614C48.7222 27.4614 47.4618 25.0007 46.8817 26.2811C46.3016 27.5614 48.052 30.4621 48.052 30.4621L48.7322 27.4614H48.7222Z" fill="#FFFDCC"/>
<path d="M48.9222 27.5119C48.9222 27.5119 50.8927 25.5414 50.9927 26.9418C51.0928 28.3421 48.4021 30.4927 48.4021 30.4927L48.9222 27.5119Z" fill="#FFFDCC"/>
<path d="M53.5134 33.6934C53.5134 33.6934 52.5531 31.1027 51.823 32.303C51.0928 33.5033 52.4831 36.5941 52.4831 36.5941L53.5134 33.6934Z" fill="#FBFF00"/>
<path d="M53.7032 33.7629C53.7032 33.7629 55.8932 32.0429 55.8232 33.4429C55.7532 34.8429 52.8332 36.6629 52.8332 36.6629L53.7032 33.7729V33.7629Z" fill="#FBFF00"/>
<path d="M54.6037 30.2024C54.6037 30.2024 53.6434 27.6117 52.9132 28.812C52.1831 30.0123 53.5734 33.1031 53.5734 33.1031L54.6037 30.2024Z" fill="#FFFDCC"/>
<path d="M54.7935 30.2717C54.7935 30.2717 56.9835 28.5517 56.9135 29.9517C56.8435 31.3517 53.9235 33.1717 53.9235 33.1717L54.7935 30.2817V30.2717Z" fill="#FFFDCC"/>
<path d="M58.8447 36.7138C58.8447 36.7138 58.1145 34.0431 57.2843 35.1734C56.4541 36.3037 57.5644 39.5045 57.5644 39.5045L58.8447 36.7138Z" fill="#FBFF00"/>
<path d="M59.0245 36.8039C59.0245 36.8039 61.3545 35.2839 61.1645 36.6739C60.9745 38.0639 57.8945 39.6139 57.8945 39.6139L59.0245 36.8039Z" fill="#FBFF00"/>
<path d="M60.2351 33.3429C60.2351 33.3429 59.5049 30.6723 58.6747 31.8026C57.8445 32.9328 58.9547 36.1336 58.9547 36.1336L60.2351 33.3429Z" fill="#FFFDCC"/>
<path d="M60.4148 33.4331C60.4148 33.4331 62.7448 31.9131 62.5548 33.3031C62.3648 34.6931 59.2848 36.2431 59.2848 36.2431L60.4148 33.4331Z" fill="#FFFDCC"/>
<path d="M17.7039 28.5815C17.7039 28.5815 15.4139 27.0315 15.5139 28.4315C15.6139 29.8315 18.5439 31.5415 18.5439 31.5415L17.7039 28.5815Z" fill="#FF5100"/>
<path d="M17.9045 28.5323C17.9045 28.5323 18.6847 25.8617 19.4449 27.0319C20.2051 28.2022 18.8747 31.393 18.8747 31.393L17.9045 28.5323Z" fill="#FF5100"/>
<path d="M23.7454 26.2812C23.7454 26.2812 21.5654 24.5812 21.5754 25.9812C21.5854 27.3812 24.3854 29.2912 24.3854 29.2912L23.7454 26.2812Z" fill="#FF5100"/>
<path d="M23.936 26.2409C23.936 26.2409 24.8962 23.6302 25.5764 24.8505C26.2566 26.0708 24.7162 29.1616 24.7162 29.1616L23.946 26.2409H23.936Z" fill="#FF5100"/>
<path d="M29.4368 23.8806C29.4368 23.8806 27.3168 22.1106 27.2768 23.5106C27.2368 24.9106 29.9868 26.9006 29.9868 26.9006L29.4368 23.8806Z" fill="#FF5100"/>
<path d="M29.6374 23.8404C29.6374 23.8404 30.6777 21.2597 31.3178 22.5C31.958 23.7403 30.3276 26.7811 30.3276 26.7811L29.6374 23.8404Z" fill="#FF5100"/>
<path d="M36.079 22.3904C36.079 22.3904 34.2586 20.3099 33.9985 21.6902C33.7384 23.0706 36.139 25.4712 36.139 25.4712L36.079 22.4004V22.3904Z" fill="#FF5100"/>
<path d="M36.2891 22.3904C36.2891 22.3904 37.7194 19.9998 38.1595 21.3301C38.5997 22.6604 36.4991 25.4011 36.4991 25.4011L36.2891 22.3804V22.3904Z" fill="#FF5100"/>
<path d="M42.8707 21.9798C42.8707 21.9798 41.4103 19.6392 40.9302 20.9495C40.4501 22.2599 42.4406 25.0206 42.4406 25.0206L42.8707 21.9798Z" fill="#FF5100"/>
<path d="M43.0308 22.0701C43.0308 22.0701 44.8312 19.9395 45.0413 21.3299C45.2513 22.7202 42.7507 25.0808 42.7507 25.0808L43.0208 22.0701H43.0308Z" fill="#FF5100"/>
<path d="M49.4824 23.7709C49.4824 23.7709 48.2221 21.3103 47.6419 22.5906C47.0618 23.871 48.8122 26.7717 48.8122 26.7717L49.4924 23.7709H49.4824Z" fill="#FF5100"/>
<path d="M49.6824 23.8208C49.6824 23.8208 51.6529 21.8503 51.7529 23.2506C51.853 24.651 49.1623 26.8015 49.1623 26.8015L49.6824 23.8208Z" fill="#FF5100"/>
<path d="M55.7239 26.5315C55.7239 26.5315 54.7637 23.9408 54.0335 25.1411C53.3033 26.3414 54.6937 29.4322 54.6937 29.4322L55.7239 26.5315Z" fill="#FF5100"/>
<path d="M55.9138 26.601C55.9138 26.601 58.1038 24.881 58.0338 26.281C57.9638 27.681 55.0438 29.5011 55.0438 29.5011L55.9138 26.6111V26.601Z" fill="#FF5100"/>
<path d="M61.4554 29.4616C61.4554 29.4616 60.3851 26.911 59.7049 28.1413C59.0247 29.3716 60.5451 32.4023 60.5451 32.4023L61.4554 29.4616Z" fill="#FF5100"/>
<path d="M61.6452 29.5222C61.6452 29.5222 63.7552 27.7022 63.7552 29.1122C63.7552 30.5222 60.9052 32.4522 60.9052 32.4522L61.6552 29.5222H61.6452Z" fill="#FF5100"/>
<path d="M16.3641 20.4296C16.3641 20.4296 14.5436 18.3191 14.2736 19.7094C14.0035 21.0998 16.4141 23.5304 16.4141 23.5304L16.3641 20.4296Z" fill="#CC00FF"/>
<path d="M16.5742 20.43C16.5742 20.43 18.0245 18.0294 18.4646 19.3697C18.9047 20.7101 16.7742 23.4708 16.7742 23.4708L16.5742 20.43Z" fill="#CC00FF"/>
<path d="M21.6849 18.2294C21.6849 18.2294 19.5049 16.5294 19.5149 17.9294C19.5249 19.3294 22.3249 21.2394 22.3249 21.2394L21.6849 18.2294Z" fill="#CC00FF"/>
<path d="M21.8855 18.1989C21.8855 18.1989 22.8457 15.5882 23.5259 16.8085C24.2061 18.0288 22.6657 21.1196 22.6657 21.1196L21.8955 18.1989H21.8855Z" fill="#CC00FF"/>
<path d="M27.8564 16.1189C27.8564 16.1189 25.7364 14.3489 25.6964 15.7489C25.6564 17.1489 28.4064 19.1389 28.4064 19.1389L27.8564 16.1189Z" fill="#CC00FF"/>
<path d="M28.057 16.0884C28.057 16.0884 29.0973 13.5078 29.7374 14.7481C30.3776 15.9884 28.7472 19.0291 28.7472 19.0291L28.057 16.0884Z" fill="#CC00FF"/>
<path d="M35.6789 14.4588C35.6789 14.4588 33.8585 12.3782 33.5984 13.7586C33.3383 15.1389 35.7389 17.5395 35.7389 17.5395L35.6789 14.4688V14.4588Z" fill="#CC00FF"/>
<path d="M35.889 14.4587C35.889 14.4587 37.3193 12.0681 37.7594 13.3985C38.1996 14.7288 36.099 17.4695 36.099 17.4695L35.889 14.4487V14.4587Z" fill="#CC00FF"/>
<path d="M43.6809 14.2278C43.6809 14.2278 42.2205 11.8873 41.7404 13.1976C41.2603 14.5079 43.2508 17.2686 43.2508 17.2686L43.6809 14.2278Z" fill="#CC00FF"/>
<path d="M43.841 14.3181C43.841 14.3181 45.6414 12.1876 45.8515 13.5779C46.0615 14.9683 43.5609 17.3289 43.5609 17.3289L43.831 14.3181H43.841Z" fill="#CC00FF"/>
<path d="M50.3426 15.9383C50.3426 15.9383 48.8822 13.5977 48.4021 14.908C47.922 16.2184 49.9125 18.979 49.9125 18.979L50.3426 15.9383Z" fill="#CC00FF"/>
<path d="M50.5426 15.9688C50.5426 15.9688 52.3331 13.8382 52.5531 15.2286C52.7732 16.6189 50.2626 18.9795 50.2626 18.9795L50.5326 15.9688H50.5426Z" fill="#CC00FF"/>
<path d="M57.3543 18.7798C57.3543 18.7798 56.194 16.2691 55.5639 17.5195C54.9337 18.7698 56.5541 21.7505 56.5541 21.7505L57.3543 18.7798Z" fill="#CC00FF"/>
<path d="M57.5442 18.8392C57.5442 18.8392 59.5942 16.9492 59.6342 18.3492C59.6742 19.7492 56.8942 21.7892 56.8942 21.7892L57.5442 18.8392Z" fill="#CC00FF"/>
<path d="M62.5756 21.7001C62.5756 21.7001 61.0353 19.4095 60.6052 20.7398C60.175 22.0702 62.2556 24.7608 62.2556 24.7608L62.5756 21.7001Z" fill="#CC00FF"/>
<path d="M62.7757 21.7298C62.7757 21.7298 64.4961 19.5392 64.7662 20.9196C65.0363 22.2999 62.6057 24.7505 62.6057 24.7505L62.7757 21.7298Z" fill="#CC00FF"/>
<path d="M16.7437 24.8008C16.7437 24.8008 14.5837 23.0808 14.5737 24.4808C14.5637 25.8808 17.3537 27.8207 17.3537 27.8207L16.7437 24.8108V24.8008Z" fill="#FBFF00"/>
<path d="M16.9442 24.7712C16.9442 24.7712 17.9345 22.1705 18.5947 23.4008C19.2548 24.6311 17.6844 27.7019 17.6844 27.7019L16.9442 24.7712Z" fill="#FBFF00"/>
<path d="M22.7251 22.3603C22.7251 22.3603 20.5451 20.6603 20.5551 22.0603C20.5551 23.4603 23.3651 25.3703 23.3651 25.3703L22.7251 22.3603Z" fill="#FBFF00"/>
<path d="M22.9257 22.32C22.9257 22.32 23.886 19.7093 24.5661 20.9296C25.2463 22.1499 23.7059 25.2407 23.7059 25.2407L22.9357 22.32H22.9257Z" fill="#FBFF00"/>
<path d="M28.6466 20.1394C28.6466 20.1394 26.5266 18.3694 26.4866 19.7694C26.4466 21.1694 29.1966 23.1594 29.1966 23.1594L28.6466 20.1394Z" fill="#FBFF00"/>
<path d="M28.8472 20.0991C28.8472 20.0991 29.8875 17.5185 30.5276 18.7588C31.1678 19.9991 29.5374 23.0399 29.5374 23.0399L28.8472 20.0991Z" fill="#FBFF00"/>
<path d="M35.879 18.3289C35.879 18.3289 34.0585 16.2484 33.7984 17.6287C33.5384 19.009 35.939 21.4096 35.939 21.4096L35.879 18.3389V18.3289Z" fill="#FBFF00"/>
<path d="M36.089 18.3191C36.089 18.3191 37.5194 15.9285 37.9595 17.2588C38.3996 18.5891 36.2991 21.3298 36.2991 21.3298L36.089 18.3091V18.3191Z" fill="#FBFF00"/>
<path d="M43.2308 18.0687C43.2308 18.0687 41.7705 15.7281 41.2903 17.0384C40.8102 18.3487 42.8007 21.1094 42.8007 21.1094L43.2308 18.0687Z" fill="#FBFF00"/>
<path d="M43.3808 18.1589C43.3808 18.1589 45.1813 16.0284 45.3913 17.4188C45.6014 18.8091 43.1008 21.1697 43.1008 21.1697L43.3708 18.1589H43.3808Z" fill="#FBFF00"/>
<path d="M50.0425 19.8699C50.0425 19.8699 48.6622 17.4793 48.142 18.7797C47.6219 20.08 49.5024 22.9007 49.5024 22.9007L50.0425 19.8699Z" fill="#FBFF00"/>
<path d="M50.2425 19.9098C50.2425 19.9098 52.113 17.8493 52.283 19.2397C52.4531 20.63 49.8624 22.9106 49.8624 22.9106L50.2425 19.9098Z" fill="#FBFF00"/>
<path d="M56.5641 22.77C56.5641 22.77 55.3238 20.2993 54.7337 21.5697C54.1435 22.84 55.864 25.7607 55.864 25.7607L56.5741 22.77H56.5641Z" fill="#FBFF00"/>
<path d="M56.7642 22.8205C56.7642 22.8205 58.7447 20.8701 58.8347 22.2704C58.9247 23.6708 56.2141 25.8013 56.2141 25.8013L56.7642 22.8305V22.8205Z" fill="#FBFF00"/>
<path d="M62.2356 25.711C62.2356 25.711 60.9853 23.2504 60.3951 24.5207C59.805 25.791 61.5454 28.7117 61.5454 28.7117L62.2356 25.711Z" fill="#FBFF00"/>
<path d="M62.4356 25.7612C62.4356 25.7612 64.4061 23.8007 64.5061 25.2011C64.6062 26.6014 61.8955 28.742 61.8955 28.742L62.4256 25.7612H62.4356Z" fill="#FBFF00"/>
<path d="M15.1433 17.5588C15.1733 17.6588 15.1733 17.7488 15.1433 17.8388C15.1133 18.0288 14.9633 18.1988 14.7633 18.2488C14.4733 18.3388 14.1633 18.1689 14.0733 17.8789L13.3733 15.5189C13.3133 15.2889 13.3933 15.0488 13.5733 14.9188C13.6333 14.8788 13.6833 14.8388 13.7533 14.8188C14.0533 14.7388 14.3533 14.9088 14.4433 15.1988L15.1433 17.5588Z" fill="#FF850A"/>
<path d="M16.8438 16.6289C16.8738 16.7289 16.8738 16.8189 16.8438 16.9089C16.8138 17.0989 16.6638 17.2689 16.4638 17.3189C16.1738 17.4089 15.8638 17.2389 15.7738 16.9489L15.0838 14.5889C15.0138 14.3589 15.0938 14.1189 15.2738 13.9889C15.3338 13.9489 15.3838 13.9089 15.4538 13.8889C15.7538 13.8089 16.0638 13.9789 16.1538 14.2689L16.8438 16.6289Z" fill="#FF850A"/>
<path d="M18.5542 15.9878C18.5242 16.1878 18.3842 16.3478 18.1842 16.3978C17.8842 16.4878 17.5742 16.3178 17.4842 16.0278L16.7942 13.6678C16.7242 13.4378 16.8042 13.1878 16.9942 13.0578C17.0542 13.0278 17.1042 12.9878 17.1742 12.9678C17.4642 12.8878 17.7742 13.0578 17.8642 13.3478L18.5542 15.7078C18.5742 15.7978 18.5842 15.8978 18.5542 15.9878Z" fill="#FF850A"/>
<path d="M20.2746 14.7778C20.2946 14.8678 20.2946 14.9578 20.2746 15.0478C20.2446 15.2478 20.0946 15.4178 19.8946 15.4678C19.5946 15.5578 19.2846 15.3878 19.2046 15.0978L18.5046 12.7378C18.4346 12.5078 18.5146 12.2578 18.7046 12.1278C18.7646 12.0978 18.8146 12.0578 18.8846 12.0378C19.1746 11.9578 19.4846 12.1278 19.5746 12.4178L20.2746 14.7778Z" fill="#FF850A"/>
<path d="M22.035 14.3479C22.005 14.5479 21.865 14.7079 21.665 14.7679C21.365 14.8479 21.055 14.6779 20.965 14.3879L20.275 12.0279C20.205 11.7979 20.285 11.5479 20.475 11.4279C20.535 11.3879 20.585 11.3579 20.655 11.3379C20.945 11.2479 21.255 11.4179 21.345 11.7079L22.035 14.0679C22.055 14.1579 22.065 14.2579 22.035 14.3479Z" fill="#FF850A"/>
<path d="M23.7955 13.5575C23.7655 13.7575 23.6255 13.9175 23.4255 13.9775C23.1255 14.0675 22.8155 13.8975 22.7355 13.5975L22.0355 11.2375C21.9655 11.0175 22.0455 10.7675 22.2355 10.6375C22.2955 10.6075 22.3455 10.5675 22.4155 10.5475C22.7055 10.4575 23.0155 10.6275 23.1055 10.9275L23.7955 13.2875C23.8155 13.3775 23.8255 13.4675 23.7955 13.5575Z" fill="#FF850A"/>
<path d="M25.5659 12.8273C25.5459 13.0173 25.3959 13.1873 25.1859 13.2473C24.8959 13.3373 24.5859 13.1673 24.4959 12.8773L23.7959 10.5072C23.7259 10.2872 23.8159 10.0473 23.9959 9.91725C24.0559 9.87725 24.1059 9.83725 24.1759 9.81725C24.4759 9.72725 24.7759 9.90725 24.8659 10.1973L25.5659 12.5573C25.5859 12.6473 25.5959 12.7373 25.5659 12.8273Z" fill="#FF850A"/>
<path d="M27.3064 11.957C27.2764 12.167 27.1264 12.337 26.9164 12.407C26.6264 12.487 26.3164 12.317 26.2264 12.027L25.5264 9.66703C25.4664 9.43703 25.5464 9.19702 25.7264 9.06702C25.7864 9.02702 25.8364 8.99703 25.9064 8.97703C26.2064 8.88703 26.5064 9.05702 26.5964 9.34702L27.2964 11.707C27.3164 11.797 27.3264 11.877 27.3064 11.967V11.957Z" fill="#FF850A"/>
<path d="M29.0168 11.0566C28.9868 11.2566 28.8368 11.4266 28.6368 11.4966C28.3368 11.5766 28.0368 11.4066 27.9468 11.1166L27.2468 8.75663C27.1768 8.52663 27.2568 8.27664 27.4468 8.15664C27.5068 8.11664 27.5568 8.08663 27.6268 8.06663C27.9168 7.97663 28.2268 8.14664 28.3168 8.43664L29.0168 10.7966C29.0368 10.8866 29.0468 10.9866 29.0168 11.0666V11.0566Z" fill="#FF850A"/>
<path d="M30.7573 9.97698C30.7773 10.067 30.7773 10.157 30.7573 10.237C30.7273 10.437 30.5873 10.607 30.3773 10.677C30.0773 10.767 29.7773 10.597 29.6873 10.297L28.9873 7.93699C28.9173 7.71699 28.9973 7.46698 29.1873 7.33698C29.2473 7.30698 29.2973 7.26699 29.3673 7.24699C29.6573 7.15699 29.9673 7.32699 30.0573 7.62699L30.7573 9.98699V9.97698Z" fill="#FF850A"/>
<path d="M32.4677 9.31631C32.4377 9.51631 32.2977 9.67632 32.0877 9.73632C31.7977 9.82632 31.4877 9.65632 31.3977 9.35632L30.6977 6.99632C30.6277 6.77632 30.7177 6.53632 30.8977 6.40632C30.9577 6.36632 31.0077 6.32631 31.0777 6.30631C31.3777 6.21631 31.6777 6.38632 31.7677 6.68632L32.4677 9.04632C32.4877 9.13632 32.4977 9.22631 32.4677 9.31631Z" fill="#FF850A"/>
<path d="M34.3081 8.51627C34.2881 8.70627 34.1381 8.87627 33.9281 8.93627C33.6381 9.02627 33.3281 8.85626 33.2381 8.56626L32.5381 6.19627C32.4681 5.97627 32.5581 5.73627 32.7381 5.60627C32.7981 5.56627 32.8481 5.52626 32.9181 5.50626C33.2181 5.41626 33.5181 5.58627 33.6081 5.88627L34.3081 8.24627C34.3281 8.33627 34.3381 8.42627 34.3081 8.51627Z" fill="#FF850A"/>
<path d="M15.1434 17.5588C15.1734 17.6588 15.1734 17.7488 15.1434 17.8388C15.0834 17.8688 15.0334 17.9088 14.9634 17.9288C14.6734 18.0188 14.3634 17.8489 14.2734 17.5489L13.5734 15.1889C13.5434 15.0989 13.5434 15.0088 13.5734 14.9188C13.6334 14.8788 13.6834 14.8388 13.7534 14.8188C14.0534 14.7388 14.3534 14.9088 14.4434 15.1988L15.1434 17.5588Z" fill="#FFBB29"/>
<path d="M16.8438 16.6289C16.8738 16.7289 16.8738 16.8189 16.8438 16.9089C16.7838 16.9389 16.7338 16.9789 16.6638 16.9989C16.3738 17.0889 16.0638 16.9189 15.9738 16.6189L15.2738 14.2589C15.2538 14.1689 15.2538 14.0789 15.2738 13.9889C15.3338 13.9489 15.3838 13.9089 15.4538 13.8889C15.7538 13.8089 16.0638 13.9789 16.1538 14.2689L16.8438 16.6289Z" fill="#FFBB29"/>
<path d="M18.5542 15.9878C18.4942 16.0178 18.4442 16.0578 18.3742 16.0778C18.0842 16.1678 17.7742 15.9978 17.6842 15.6978L16.9942 13.3378C16.9642 13.2478 16.9642 13.1478 16.9942 13.0578C17.0542 13.0278 17.1042 12.9878 17.1742 12.9678C17.4642 12.8878 17.7742 13.0578 17.8642 13.3478L18.5542 15.7078C18.5742 15.7978 18.5842 15.8978 18.5542 15.9878Z" fill="#FFBB29"/>
<path d="M20.2747 14.7778C20.2947 14.8678 20.2947 14.9578 20.2747 15.0478C20.2147 15.0878 20.1647 15.1278 20.0947 15.1478C19.7947 15.2378 19.4847 15.0678 19.3947 14.7678L18.7047 12.4078C18.6747 12.3178 18.6747 12.2178 18.7047 12.1278C18.7647 12.0978 18.8147 12.0578 18.8847 12.0378C19.1747 11.9578 19.4847 12.1278 19.5747 12.4178L20.2747 14.7778Z" fill="#FFBB29"/>
<path d="M22.0351 14.3479C21.9751 14.3779 21.9251 14.4179 21.8551 14.4379C21.5651 14.5279 21.2551 14.3579 21.1651 14.0579L20.4751 11.6979C20.4551 11.6079 20.4451 11.5179 20.4751 11.4279C20.5351 11.3879 20.5851 11.3579 20.6551 11.3379C20.9451 11.2479 21.2551 11.4179 21.3451 11.7079L22.0351 14.0679C22.0551 14.1579 22.0651 14.2579 22.0351 14.3479Z" fill="#FFBB29"/>
<path d="M23.7956 13.5575C23.7956 13.5575 23.6956 13.6275 23.6256 13.6475C23.3256 13.7375 23.0156 13.5675 22.9256 13.2775L22.2356 10.9075C22.2156 10.8175 22.2056 10.7275 22.2356 10.6375C22.2956 10.6075 22.3456 10.5675 22.4156 10.5475C22.7056 10.4575 23.0156 10.6275 23.1056 10.9275L23.7956 13.2875C23.8156 13.3775 23.8256 13.4675 23.7956 13.5575Z" fill="#FFBB29"/>
<path d="M25.566 12.8273C25.506 12.8673 25.456 12.9072 25.386 12.9272C25.086 13.0172 24.786 12.8473 24.696 12.5473L23.996 10.1873C23.976 10.0973 23.966 10.0073 23.996 9.91725C24.056 9.87725 24.106 9.83725 24.176 9.81725C24.476 9.72725 24.776 9.90725 24.866 10.1973L25.566 12.5573C25.586 12.6473 25.596 12.7373 25.566 12.8273Z" fill="#FFBB29"/>
<path d="M27.3064 11.9573C27.2464 12.0173 27.1864 12.0473 27.1164 12.0673C26.8164 12.1573 26.5164 11.9873 26.4264 11.6873L25.7264 9.32726C25.7064 9.23726 25.6964 9.14726 25.7264 9.05726C25.7864 9.01726 25.8364 8.98726 25.9064 8.96726C26.2064 8.87726 26.5064 9.04726 26.5964 9.33726L27.2964 11.6973C27.3164 11.7873 27.3264 11.8673 27.3064 11.9573Z" fill="#FFBB29"/>
<path d="M29.0169 11.0569C28.9569 11.0969 28.9069 11.1369 28.8369 11.1569C28.5369 11.2469 28.2269 11.0769 28.1469 10.7769L27.4469 8.41686C27.4269 8.32686 27.4169 8.23686 27.4469 8.14686C27.5069 8.10686 27.5569 8.07686 27.6269 8.05686C27.9169 7.96686 28.2269 8.13686 28.3169 8.42686L29.0169 10.7869C29.0369 10.8769 29.0469 10.9769 29.0169 11.0569Z" fill="#FFBB29"/>
<path d="M30.7573 9.97721C30.7773 10.0672 30.7773 10.1572 30.7573 10.2372C30.6973 10.2972 30.6473 10.3172 30.5773 10.3372C30.2773 10.4272 29.9673 10.2572 29.8873 9.96722L29.1873 7.59721C29.1673 7.50721 29.1573 7.41722 29.1873 7.32722C29.2473 7.29722 29.2973 7.25722 29.3673 7.23722C29.6573 7.14722 29.9673 7.31721 30.0573 7.61721L30.7573 9.97721Z" fill="#FFBB29"/>
<path d="M32.4677 9.31631C32.4077 9.35631 32.3577 9.38632 32.2877 9.40632C31.9877 9.49632 31.6877 9.32631 31.5977 9.03631L30.8977 6.66631C30.8777 6.57631 30.8677 6.48632 30.8977 6.40632C30.9577 6.36632 31.0077 6.32631 31.0777 6.30631C31.3777 6.21631 31.6777 6.38632 31.7677 6.68632L32.4677 9.04632C32.4877 9.13632 32.4977 9.22631 32.4677 9.31631Z" fill="#FFBB29"/>
<path d="M34.3082 8.51627C34.2482 8.55627 34.1982 8.59627 34.1282 8.61627C33.8282 8.70627 33.5282 8.52628 33.4382 8.23628L32.7382 5.87628C32.7182 5.78628 32.7082 5.69627 32.7382 5.60627C32.7982 5.56627 32.8482 5.52626 32.9182 5.50626C33.2182 5.41626 33.5182 5.58627 33.6082 5.88627L34.3082 8.24627C34.3282 8.33627 34.3382 8.42627 34.3082 8.51627Z" fill="#FFBB29"/>
<path d="M43.921 7.59618C43.891 7.69618 43.891 7.7862 43.921 7.8762C43.951 8.0662 44.101 8.23619 44.301 8.28619C44.591 8.37619 44.901 8.20619 44.991 7.91619L45.691 5.55619C45.751 5.32619 45.671 5.08619 45.491 4.95619C45.431 4.91619 45.381 4.87619 45.311 4.85619C45.011 4.77619 44.711 4.9462 44.621 5.2362L43.921 7.59618Z" fill="#FF850A"/>
<path d="M64.116 16.9385C64.086 17.0385 64.086 17.1285 64.116 17.2185C64.146 17.4085 64.296 17.5785 64.496 17.6285C64.786 17.7185 65.096 17.5485 65.186 17.2585L65.876 14.8985C65.946 14.6685 65.866 14.4285 65.686 14.2985C65.626 14.2585 65.576 14.2185 65.506 14.1985C65.206 14.1185 64.896 14.2885 64.806 14.5785L64.116 16.9385Z" fill="#FF850A"/>
<path d="M62.2055 16.3081C62.2355 16.5081 62.3755 16.6681 62.5755 16.7181C62.8755 16.8081 63.1855 16.6381 63.2755 16.3481L63.9655 13.9881C64.0355 13.7581 63.9555 13.5081 63.7655 13.3781C63.7055 13.3481 63.6555 13.3081 63.5855 13.2881C63.2955 13.2081 62.9855 13.3781 62.8955 13.6681L62.2055 16.0281C62.1855 16.1181 62.1755 16.2181 62.2055 16.3081Z" fill="#FF850A"/>
<path d="M60.175 15.0278C60.155 15.1178 60.155 15.2078 60.175 15.2978C60.205 15.4978 60.355 15.6678 60.555 15.7178C60.855 15.8078 61.165 15.6378 61.245 15.3478L61.945 12.9878C62.015 12.7578 61.935 12.5078 61.745 12.3778C61.685 12.3478 61.635 12.3078 61.565 12.2878C61.275 12.2078 60.965 12.3778 60.875 12.6678L60.175 15.0278Z" fill="#FF850A"/>
<path d="M58.3646 14.5483C58.3946 14.7483 58.5346 14.9083 58.7346 14.9683C59.0346 15.0483 59.3446 14.8783 59.4346 14.5883L60.1246 12.2283C60.1946 11.9983 60.1146 11.7483 59.9246 11.6283C59.8646 11.5883 59.8146 11.5583 59.7446 11.5383C59.4546 11.4483 59.1446 11.6183 59.0546 11.9083L58.3646 14.2683C58.3446 14.3583 58.3346 14.4583 58.3646 14.5483Z" fill="#FF850A"/>
<path d="M56.2641 13.5578C56.2941 13.7578 56.4341 13.9178 56.6341 13.9778C56.9341 14.0678 57.2441 13.8978 57.3241 13.5978L58.024 11.2378C58.094 11.0178 58.0141 10.7678 57.8241 10.6378C57.7641 10.6078 57.7141 10.5678 57.6441 10.5478C57.3541 10.4578 57.044 10.6278 56.954 10.9278L56.2641 13.2878C56.2441 13.3778 56.2341 13.4678 56.2641 13.5578Z" fill="#FF850A"/>
<path d="M54.4836 12.8273C54.5036 13.0173 54.6536 13.1873 54.8636 13.2473C55.1536 13.3373 55.4636 13.1673 55.5536 12.8773L56.2536 10.5072C56.3236 10.2872 56.2336 10.0473 56.0536 9.91725C55.9936 9.87725 55.9436 9.83725 55.8736 9.81725C55.5736 9.72725 55.2736 9.90725 55.1836 10.1973L54.4836 12.5573C54.4636 12.6473 54.4536 12.7373 54.4836 12.8273Z" fill="#FF850A"/>
<path d="M52.7432 11.957C52.7732 12.167 52.9232 12.337 53.1332 12.407C53.4232 12.487 53.7332 12.317 53.8232 12.027L54.5232 9.66703C54.5832 9.43703 54.5032 9.19702 54.3232 9.06702C54.2632 9.02702 54.2132 8.99703 54.1432 8.97703C53.8432 8.88703 53.5432 9.05702 53.4532 9.34702L52.7532 11.707C52.7332 11.797 52.7232 11.877 52.7432 11.967V11.957Z" fill="#FF850A"/>
<path d="M51.0327 11.0576C51.0627 11.2576 51.2127 11.4276 51.4127 11.4976C51.7127 11.5776 52.0127 11.4076 52.1027 11.1176L52.8027 8.75761C52.8727 8.52761 52.7927 8.27761 52.6027 8.15761C52.5427 8.11761 52.4927 8.0876 52.4227 8.0676C52.1327 7.9776 51.8227 8.14761 51.7327 8.43761L51.0327 10.7976C51.0127 10.8876 51.0027 10.9876 51.0327 11.0676V11.0576Z" fill="#FF850A"/>
<path d="M49.2923 9.97698C49.2723 10.067 49.2723 10.157 49.2923 10.237C49.3223 10.437 49.4623 10.607 49.6723 10.677C49.9723 10.767 50.2723 10.597 50.3623 10.297L51.0623 7.93699C51.1323 7.71699 51.0523 7.46698 50.8623 7.33698C50.8023 7.30698 50.7523 7.26699 50.6823 7.24699C50.3923 7.15699 50.0823 7.32699 49.9923 7.62699L49.2923 9.98699V9.97698Z" fill="#FF850A"/>
<path d="M47.5919 9.31631C47.6219 9.51631 47.7619 9.67632 47.9719 9.73632C48.2619 9.82632 48.5719 9.65632 48.6619 9.35632L49.3619 6.99632C49.4319 6.77632 49.3419 6.53632 49.1619 6.40632C49.1019 6.36632 49.0519 6.32631 48.9819 6.30631C48.6819 6.21631 48.3819 6.38632 48.2919 6.68632L47.5919 9.04632C47.5719 9.13632 47.5619 9.22631 47.5919 9.31631Z" fill="#FF850A"/>
<path d="M45.7414 8.51652C45.7614 8.70652 45.9114 8.87652 46.1214 8.93652C46.4114 9.02652 46.7214 8.85651 46.8114 8.56651L47.5114 6.19651C47.5814 5.97651 47.4914 5.73651 47.3114 5.60651C47.2514 5.56651 47.2014 5.52651 47.1314 5.50651C46.8314 5.41651 46.5314 5.58651 46.4414 5.88651L45.7414 8.24651C45.7214 8.33651 45.7114 8.42652 45.7414 8.51652Z" fill="#FF850A"/>
<path d="M43.921 7.59618C43.891 7.69618 43.891 7.7862 43.921 7.8762C43.981 7.9062 44.031 7.94619 44.101 7.96619C44.391 8.05619 44.701 7.88619 44.791 7.58619L45.491 5.22619C45.521 5.13619 45.521 5.04619 45.491 4.95619C45.431 4.91619 45.381 4.87619 45.311 4.85619C45.011 4.77619 44.711 4.9462 44.621 5.2362L43.921 7.59618Z" fill="#FFBB29"/>
<path d="M64.116 16.9385C64.086 17.0385 64.086 17.1285 64.116 17.2185C64.176 17.2485 64.226 17.2885 64.296 17.3085C64.586 17.3985 64.896 17.2285 64.986 16.9285L65.686 14.5685C65.706 14.4785 65.706 14.3885 65.686 14.2985C65.626 14.2585 65.576 14.2185 65.506 14.1985C65.206 14.1185 64.896 14.2885 64.806 14.5785L64.116 16.9385Z" fill="#FFBB29"/>
<path d="M62.2055 16.3081C62.2655 16.3381 62.3155 16.3781 62.3855 16.3981C62.6755 16.4881 62.9855 16.3181 63.0755 16.0181L63.7655 13.6581C63.7955 13.5681 63.7955 13.4681 63.7655 13.3781C63.7055 13.3481 63.6555 13.3081 63.5855 13.2881C63.2955 13.2081 62.9855 13.3781 62.8955 13.6681L62.2055 16.0281C62.1855 16.1181 62.1755 16.2181 62.2055 16.3081Z" fill="#FFBB29"/>
<path d="M60.175 15.0278C60.155 15.1178 60.155 15.2078 60.175 15.2978C60.235 15.3378 60.285 15.3778 60.355 15.3978C60.655 15.4878 60.965 15.3178 61.055 15.0178L61.745 12.6578C61.775 12.5678 61.775 12.4678 61.745 12.3778C61.685 12.3478 61.635 12.3078 61.565 12.2878C61.275 12.2078 60.965 12.3778 60.875 12.6678L60.175 15.0278Z" fill="#FFBB29"/>
<path d="M58.3646 14.5483C58.4246 14.5783 58.4746 14.6183 58.5446 14.6383C58.8346 14.7283 59.1446 14.5583 59.2346 14.2583L59.9246 11.8983C59.9446 11.8083 59.9546 11.7183 59.9246 11.6283C59.8646 11.5883 59.8146 11.5583 59.7446 11.5383C59.4546 11.4483 59.1446 11.6183 59.0546 11.9083L58.3646 14.2683C58.3446 14.3583 58.3346 14.4583 58.3646 14.5483Z" fill="#FFBB29"/>
<path d="M56.2641 13.5578C56.2641 13.5578 56.364 13.6278 56.434 13.6478C56.734 13.7378 57.0441 13.5678 57.1341 13.2778L57.8241 10.9078C57.8441 10.8178 57.8541 10.7278 57.8241 10.6378C57.7641 10.6078 57.7141 10.5678 57.6441 10.5478C57.3541 10.4578 57.044 10.6278 56.954 10.9278L56.2641 13.2878C56.2441 13.3778 56.2341 13.4678 56.2641 13.5578Z" fill="#FFBB29"/>
<path d="M54.4836 12.8273C54.5436 12.8673 54.5936 12.9072 54.6636 12.9272C54.9636 13.0172 55.2636 12.8473 55.3536 12.5473L56.0536 10.1873C56.0736 10.0973 56.0836 10.0073 56.0536 9.91725C55.9936 9.87725 55.9436 9.83725 55.8736 9.81725C55.5736 9.72725 55.2736 9.90725 55.1836 10.1973L54.4836 12.5573C54.4636 12.6473 54.4536 12.7373 54.4836 12.8273Z" fill="#FFBB29"/>
<path d="M52.7432 11.9573C52.8032 12.0173 52.8632 12.0473 52.9332 12.0673C53.2332 12.1573 53.5332 11.9873 53.6232 11.6873L54.3232 9.32726C54.3432 9.23726 54.3532 9.14726 54.3232 9.05726C54.2632 9.01726 54.2132 8.98726 54.1432 8.96726C53.8432 8.87726 53.5432 9.04726 53.4532 9.33726L52.7532 11.6973C52.7332 11.7873 52.7232 11.8673 52.7432 11.9573Z" fill="#FFBB29"/>
<path d="M51.0327 11.0569C51.0927 11.0969 51.1427 11.1369 51.2127 11.1569C51.5127 11.2469 51.8227 11.0769 51.9027 10.7769L52.6027 8.41686C52.6227 8.32686 52.6327 8.23686 52.6027 8.14686C52.5427 8.10686 52.4927 8.07686 52.4227 8.05686C52.1327 7.96686 51.8227 8.13686 51.7327 8.42686L51.0327 10.7869C51.0127 10.8769 51.0027 10.9769 51.0327 11.0569Z" fill="#FFBB29"/>
<path d="M49.2923 9.97721C49.2723 10.0672 49.2723 10.1572 49.2923 10.2372C49.3523 10.2972 49.4023 10.3172 49.4723 10.3372C49.7723 10.4272 50.0823 10.2572 50.1623 9.96722L50.8623 7.59721C50.8823 7.50721 50.8923 7.41722 50.8623 7.32722C50.8023 7.29722 50.7523 7.25722 50.6823 7.23722C50.3923 7.14722 50.0823 7.31721 49.9923 7.61721L49.2923 9.97721Z" fill="#FFBB29"/>
<path d="M47.5919 9.31631C47.6519 9.35631 47.7019 9.38632 47.7719 9.40632C48.0719 9.49632 48.3719 9.32631 48.4619 9.03631L49.1619 6.66631C49.1819 6.57631 49.1919 6.48632 49.1619 6.40632C49.1019 6.36632 49.0519 6.32631 48.9819 6.30631C48.6819 6.21631 48.3819 6.38632 48.2919 6.68632L47.5919 9.04632C47.5719 9.13632 47.5619 9.22631 47.5919 9.31631Z" fill="#FFBB29"/>
<path d="M45.7414 8.51652C45.8014 8.55652 45.8514 8.59651 45.9214 8.61651C46.2214 8.70651 46.5214 8.52652 46.6114 8.23652L47.3114 5.87652C47.3314 5.78652 47.3414 5.69651 47.3114 5.60651C47.2514 5.56651 47.2014 5.52651 47.1314 5.50651C46.8314 5.41651 46.5314 5.58651 46.4414 5.88651L45.7414 8.24651C45.7214 8.33651 45.7114 8.42652 45.7414 8.51652Z" fill="#FFBB29"/>
</svg>
