<svg width="36" height="85" viewBox="0 0 36 85" fill="none" xmlns="http://www.w3.org/2000/svg">
<path d="M17.5122 80.2585V84.7185C17.5122 84.8685 17.6322 84.9985 17.7922 84.9985C17.9522 84.9985 18.0722 84.8785 18.0722 84.7185V80.2585C18.0722 80.1085 17.9522 79.9785 17.7922 79.9785C17.6322 79.9785 17.5122 80.0985 17.5122 80.2585Z" fill="#FFBDE0"/>
<path d="M16.4222 80.0202V84.4802C16.4222 84.6302 16.5422 84.7602 16.7022 84.7602C16.8622 84.7602 16.9822 84.6402 16.9822 84.4802V80.0202C16.9822 79.8702 16.8622 79.7402 16.7022 79.7402C16.5422 79.7402 16.4222 79.8602 16.4222 80.0202Z" fill="#FFBDE0"/>
<path d="M15.3422 79.7898V84.2498C15.3422 84.3998 15.4622 84.5298 15.6222 84.5298C15.7822 84.5298 15.9022 84.4098 15.9022 84.2498V79.7898C15.9022 79.6398 15.7822 79.5098 15.6222 79.5098C15.4622 79.5098 15.3422 79.6298 15.3422 79.7898Z" fill="#FFBDE0"/>
<path d="M14.2522 79.5495V84.0095C14.2522 84.1595 14.3722 84.2895 14.5322 84.2895C14.6922 84.2895 14.8122 84.1695 14.8122 84.0095V79.5495C14.8122 79.3995 14.6922 79.2695 14.5322 79.2695C14.3722 79.2695 14.2522 79.3895 14.2522 79.5495Z" fill="#FFBDE0"/>
<path d="M13.1622 79.3093V83.7693C13.1622 83.9193 13.2822 84.0493 13.4422 84.0493C13.6022 84.0493 13.7222 83.9293 13.7222 83.7693V79.3093C13.7222 79.1593 13.6022 79.0293 13.4422 79.0293C13.2822 79.0293 13.1622 79.1493 13.1622 79.3093Z" fill="#FFBDE0"/>
<path d="M12.0722 79.0691V83.5291C12.0722 83.6791 12.1922 83.8091 12.3522 83.8091C12.5122 83.8091 12.6322 83.6891 12.6322 83.5291V79.0691C12.6322 78.9191 12.5122 78.7891 12.3522 78.7891C12.1922 78.7891 12.0722 78.9091 12.0722 79.0691Z" fill="#FFBDE0"/>
<path d="M10.9822 78.8386V83.2986C10.9822 83.4486 11.1022 83.5786 11.2622 83.5786C11.4222 83.5786 11.5422 83.4586 11.5422 83.2986V78.8386C11.5422 78.6886 11.4222 78.5586 11.2622 78.5586C11.1022 78.5586 10.9822 78.6786 10.9822 78.8386Z" fill="#FFBDE0"/>
<path d="M9.89223 78.6003V83.0603C9.89223 83.2103 10.0122 83.3403 10.1722 83.3403C10.3322 83.3403 10.4522 83.2203 10.4522 83.0603V78.6003C10.4522 78.4503 10.3322 78.3203 10.1722 78.3203C10.0122 78.3203 9.89223 78.4403 9.89223 78.6003Z" fill="#FFBDE0"/>
<path d="M8.80222 78.3601V82.8201C8.80222 82.9701 8.92221 83.1001 9.08221 83.1001C9.24221 83.1001 9.36221 82.9801 9.36221 82.8201V78.3601C9.36221 78.2101 9.24221 78.0801 9.08221 78.0801C8.92221 78.0801 8.80222 78.2001 8.80222 78.3601Z" fill="#FFBDE0"/>
<path d="M7.71222 78.1296V82.5896C7.71222 82.7396 7.83222 82.8696 7.99222 82.8696C8.15222 82.8696 8.27222 82.7496 8.27222 82.5896V78.1296C8.27222 77.9796 8.15222 77.8496 7.99222 77.8496C7.83222 77.8496 7.71222 77.9696 7.71222 78.1296Z" fill="#FFBDE0"/>
<path d="M6.62222 77.8894V82.3494C6.62222 82.4994 6.74222 82.6294 6.90222 82.6294C7.06222 82.6294 7.18223 82.5094 7.18223 82.3494V77.8894C7.18223 77.7394 7.06222 77.6094 6.90222 77.6094C6.74222 77.6094 6.62222 77.7294 6.62222 77.8894Z" fill="#FFBDE0"/>
<path d="M5.54222 77.6491V82.1091C5.54222 82.2591 5.66223 82.3891 5.82223 82.3891C5.98223 82.3891 6.10223 82.2691 6.10223 82.1091V77.6491C6.10223 77.4991 5.98223 77.3691 5.82223 77.3691C5.66223 77.3691 5.54222 77.4891 5.54222 77.6491Z" fill="#FFBDE0"/>
<path d="M4.45222 77.4187V81.8787C4.45222 82.0287 4.57222 82.1587 4.73222 82.1587C4.89222 82.1587 5.01222 82.0387 5.01222 81.8787V77.4187C5.01222 77.2687 4.89222 77.1387 4.73222 77.1387C4.57222 77.1387 4.45222 77.2587 4.45222 77.4187Z" fill="#FFBDE0"/>
<path d="M3.36221 77.1804V81.6404C3.36221 81.7904 3.48222 81.9204 3.64222 81.9204C3.80222 81.9204 3.92222 81.8004 3.92222 81.6404V77.1804C3.92222 77.0304 3.80222 76.9004 3.64222 76.9004C3.48222 76.9004 3.36221 77.0204 3.36221 77.1804Z" fill="#FFBDE0"/>
<path d="M2.27222 76.9402V81.4002C2.27222 81.5502 2.39222 81.6802 2.55222 81.6802C2.71222 81.6802 2.83221 81.5602 2.83221 81.4002V76.9402C2.83221 76.7902 2.71222 76.6602 2.55222 76.6602C2.39222 76.6602 2.27222 76.7802 2.27222 76.9402Z" fill="#FFBDE0"/>
<path d="M1.18222 76.6999V81.1599C1.18222 81.3099 1.30222 81.4399 1.46222 81.4399C1.62222 81.4399 1.74222 81.3199 1.74222 81.1599V76.6999C1.74222 76.5499 1.62222 76.4199 1.46222 76.4199C1.30222 76.4199 1.18222 76.5399 1.18222 76.6999Z" fill="#FFBDE0"/>
<path d="M0.0922241 76.4695V80.9295C0.0922241 81.0795 0.212223 81.2095 0.372223 81.2095C0.532223 81.2095 0.652222 81.0895 0.652222 80.9295V76.4695C0.652222 76.3195 0.532223 76.1895 0.372223 76.1895C0.212223 76.1895 0.0922241 76.3095 0.0922241 76.4695Z" fill="#FFBDE0"/>
<path d="M35.0622 0.00999999V7.78C35.0622 7.78 22.0422 5.02 17.3122 18.1C16.9722 19.04 16.6822 20.17 16.4522 21.45C14.9322 29.65 15.3122 44.17 16.0822 56.74C16.1322 57.5 16.1822 58.27 16.2222 59.02C16.3022 60.12 16.3722 61.19 16.4522 62.24C16.5122 63.02 16.5722 63.78 16.6322 64.53C16.7122 65.64 16.8022 66.72 16.8822 67.75C16.9522 68.54 17.0122 69.31 17.0822 70.05C17.6122 76.26 18.0822 80.4 18.0822 80.4L0.0622222 76.46C0.0622222 76.46 -0.0777778 72.8 0.0622222 67.08C0.0822222 66.44 0.102222 65.77 0.132222 65.08C0.172222 64 0.222223 62.86 0.282223 61.67C0.312223 61.02 0.352219 60.35 0.402219 59.67C0.472219 58.57 0.552224 57.44 0.642224 56.29C0.702224 55.64 0.752222 54.97 0.812222 54.3C2.68222 33.93 8.61222 6.19 26.9722 1.44C26.9822 1.44 26.9922 1.43 27.0022 1.43C32.0022 0.14 35.0722 0 35.0722 0L35.0622 0.00999999Z" fill="#9540FF"/>
<path d="M35.0622 0.0106825V7.78068C35.0622 7.78068 23.1422 6.80068 17.3122 18.1007C16.8522 18.9907 16.6822 20.1707 16.4522 21.4507C17.2922 6.05068 26.4022 1.71068 26.9722 1.45068C26.9922 1.45068 27.0022 1.44068 27.0022 1.44068C31.8222 -0.199317 35.0722 0.0106825 35.0722 0.0106825H35.0622Z" fill="#B573D1"/>
<path d="M1.81223 74.1896C1.81223 74.1896 0.112223 72.1796 0.832223 71.4496C1.55222 70.7196 2.05222 71.6696 2.05222 71.6696C2.05222 71.6696 2.78223 70.8596 3.25223 71.7896C3.64223 72.5796 1.81223 74.1896 1.81223 74.1896Z" fill="#FF4F7C"/>
<path d="M6.04223 75.0295C6.04223 75.0295 4.34223 73.0195 5.06223 72.2895C5.78223 71.5595 6.28224 72.5095 6.28224 72.5095C6.28224 72.5095 7.01223 71.6995 7.48223 72.6295C7.87223 73.4195 6.04223 75.0295 6.04223 75.0295Z" fill="#FF99B3"/>
<path d="M10.4622 75.6994C10.4622 75.6994 8.76222 73.6894 9.48222 72.9594C10.2022 72.2294 10.7022 73.1794 10.7022 73.1794C10.7022 73.1794 11.4322 72.3694 11.9022 73.2994C12.2922 74.0894 10.4622 75.6994 10.4622 75.6994Z" fill="#FF4F7C"/>
<path d="M14.9222 76.5295C14.9222 76.5295 13.2222 74.5195 13.9422 73.7895C14.6622 73.0595 15.1622 74.0095 15.1622 74.0095C15.1622 74.0095 15.8922 73.1995 16.3622 74.1295C16.7522 74.9195 14.9222 76.5295 14.9222 76.5295Z" fill="#FF99B3"/>
<path d="M2.96222 53.2808C2.96222 53.2808 1.52222 51.6908 2.09222 51.0808C2.66222 50.4708 3.09222 51.2308 3.09222 51.2308C3.09222 51.2308 3.66222 50.5508 4.07222 51.2908C4.41222 51.9208 2.96222 53.2808 2.96222 53.2808Z" fill="#FF99B3"/>
<path d="M6.43223 53.8491C6.43223 53.8491 4.99222 52.2591 5.56222 51.6491C6.13222 51.0391 6.56222 51.7991 6.56222 51.7991C6.56222 51.7991 7.13222 51.1191 7.54222 51.8591C7.88222 52.4891 6.43223 53.8491 6.43223 53.8491Z" fill="#FF4F7C"/>
<path d="M10.0422 54.2691C10.0422 54.2691 8.60222 52.6791 9.17222 52.0691C9.74222 51.4591 10.1722 52.2191 10.1722 52.2191C10.1722 52.2191 10.7422 51.5391 11.1522 52.2791C11.4922 52.9091 10.0422 54.2691 10.0422 54.2691Z" fill="#FF99B3"/>
<path d="M13.7022 54.8296C13.7022 54.8296 12.2622 53.2396 12.8322 52.6296C13.4022 52.0196 13.8322 52.7796 13.8322 52.7796C13.8322 52.7796 14.4022 52.0996 14.8122 52.8396C15.1522 53.4696 13.7022 54.8296 13.7022 54.8296Z" fill="#FF4F7C"/>
<path d="M17.0722 70.0501L0.0522156 67.0801C0.0722156 66.4401 0.0922153 65.7701 0.122215 65.0801L16.8722 67.7501C16.9422 68.5401 17.0022 69.3101 17.0722 70.0501Z" fill="#A1D6FF"/>
<path d="M16.6222 64.5297L0.282227 61.6797C0.312227 61.0297 0.352222 60.3597 0.402222 59.6797L16.4522 62.2397C16.5122 63.0197 16.5722 63.7797 16.6322 64.5297H16.6222Z" fill="#A1D6FF"/>
<path d="M16.2222 59.0205L0.642227 56.3005C0.702227 55.6505 0.752225 54.9805 0.812225 54.3105L16.0822 56.7405C16.1322 57.5005 16.1822 58.2705 16.2222 59.0205Z" fill="#A1D6FF"/>
</svg>
