<svg width="80" height="56" viewBox="0 0 80 56" fill="none" xmlns="http://www.w3.org/2000/svg">
<path d="M46.4312 0.0837997C46.4115 0.202347 46.1348 0.399927 46.1348 0.399927L6.89553 20.8297L4.4159 22.1238L3.67498 22.4992L2.03507 23.3587L1.54112 23.6155C1.41269 23.576 1.27438 23.5167 1.15584 23.4476C1.05705 23.3883 0.968136 23.3389 0.879225 23.2698C0.760677 23.171 0.661887 23.0722 0.572977 22.9635H0.563098C0.563098 22.9635 0.503824 22.8944 0.484066 22.8647H0.474187C0.306244 22.6474 0.177817 22.4004 0.0987854 22.1337C0.0790275 22.0448 0.0592695 21.9657 0.0296326 21.8768L0.582856 21.62L0.839709 21.5014L2.45986 20.7309L3.428 20.2666L3.96147 20.0097L6.26327 18.9131L45.9867 0.0541627C45.9867 0.0541627 45.9965 0.0541627 46.0064 0.0442838C46.0854 0.0245258 46.3324 -0.0446271 46.4115 0.0442838C46.4213 0.0541627 46.4213 0.0739207 46.4213 0.0837997H46.4312Z" fill="#372B82"/>
<path d="M4.50482 21.3828V21.4815C4.50482 21.6989 4.47518 21.9261 4.4159 22.1237C4.13929 23.0622 3.27982 23.734 2.24253 23.734C1.99555 23.734 1.75846 23.6944 1.54112 23.6154C1.41269 23.5759 1.27439 23.5166 1.15584 23.4475C1.05705 23.3882 0.96814 23.3388 0.879229 23.2696C0.760682 23.1708 0.661892 23.0721 0.572981 22.9634H0.563102C0.563102 22.9634 0.503828 22.8942 0.48407 22.8646H0.474191C0.306248 22.6473 0.177822 22.4003 0.0987898 22.1336C0.0790319 22.0446 0.0592739 21.9656 0.0296369 21.8767C0.00987898 21.7582 0 21.6198 0 21.4815C0 21.0963 0.0987898 20.7307 0.286491 20.4146C0.661892 19.7132 1.40282 19.239 2.25241 19.239C2.51914 19.239 2.76612 19.2785 3.00321 19.3674C3.04273 19.3674 3.08224 19.3872 3.11188 19.3971C3.30946 19.486 3.49716 19.5848 3.6651 19.7132C3.77377 19.8021 3.87256 19.9009 3.96147 20.0096C4.03062 20.0787 4.07014 20.1578 4.11954 20.217C4.21833 20.3455 4.29736 20.4936 4.34675 20.6319C4.37639 20.711 4.40603 20.79 4.42578 20.8592C4.42578 20.8592 4.42908 20.8658 4.43566 20.8789C4.47518 21.037 4.50482 21.2049 4.51469 21.363L4.50482 21.3828Z" fill="#372B82"/>
<path d="M3.10199 19.3975C2.84513 19.5951 2.5784 19.8816 2.49937 20.2669C2.47961 20.3558 2.46973 20.4447 2.46973 20.5435C2.48949 21.5117 1.52135 22.302 0.671757 21.6994C0.671757 21.6994 0.661878 21.6994 0.651999 21.6895C0.246961 21.403 0.207445 20.8794 0.276598 20.4052C0.651999 19.6939 1.39292 19.2197 2.25239 19.2197C2.55864 19.2197 2.84513 19.279 3.11187 19.3975H3.10199Z" fill="#4D3CB5"/>
<g style="mix-blend-mode:multiply">
<path d="M46.4312 0.0839844C46.4114 0.202532 46.1348 0.400112 46.1348 0.400112L6.89552 20.8298L4.41589 22.124C4.13928 23.0625 3.27981 23.7343 2.24252 23.7343C1.99554 23.7343 1.75845 23.6948 1.54111 23.6157C1.41268 23.5762 1.27438 23.5169 1.15583 23.4478C1.05704 23.3885 0.968127 23.3391 0.879216 23.27C0.760668 23.1712 0.661878 23.0724 0.572968 22.9637C0.869337 23.1613 1.29413 23.349 1.8276 23.3589H2.03506C2.87477 23.3391 3.3786 22.9538 3.67497 22.4994C4.13928 21.8375 4.15904 21.0373 4.15904 21.0373L4.42577 20.9089L46.4312 0.0839844Z" fill="#4D3CB5"/>
</g>
<path d="M0.622393 21.2443C1.15586 21.758 1.31392 20.9381 1.3732 20.4837C1.43247 20.0292 1.81775 19.5254 1.81775 19.5254C1.81775 19.5254 1.3238 19.5451 0.997794 19.8218C0.55324 20.1972 0.26675 20.8986 0.622393 21.2443Z" fill="#5E4ADE"/>
<path d="M33.5688 0.0837997C33.5886 0.202347 33.8652 0.399927 33.8652 0.399927L73.1045 20.8198L75.5841 22.1139L76.325 22.4893L77.9649 23.3488L78.4589 23.6057C78.5873 23.5661 78.7256 23.5069 78.8442 23.4377C78.943 23.3784 79.0319 23.329 79.1208 23.2599C79.2393 23.1611 79.3381 23.0623 79.427 22.9536H79.4369C79.4369 22.9536 79.4962 22.8845 79.5159 22.8549H79.5258C79.6938 22.6375 79.8222 22.3905 79.9012 22.1238C79.921 22.0349 79.9407 21.9559 79.9704 21.867L79.4172 21.6101L79.1603 21.4916L77.5401 20.721L76.572 20.2567L76.0385 19.9998L73.7367 18.9033L34.0133 0.0541627C34.0133 0.0541627 34.0035 0.0541627 33.9936 0.0442838C33.9146 0.0245258 33.6676 -0.0446271 33.5885 0.0442838C33.5787 0.0541627 33.5787 0.0739207 33.5787 0.0837997H33.5688Z" fill="#372B82"/>
<path d="M75.4952 21.3828V21.4815C75.4952 21.6989 75.5248 21.9261 75.5841 22.1237C75.8607 23.0622 76.7202 23.734 77.7575 23.734C78.0045 23.734 78.2416 23.6944 78.4589 23.6154C78.5873 23.5759 78.7256 23.5166 78.8442 23.4475C78.943 23.3882 79.0319 23.3388 79.1208 23.2696C79.2393 23.1708 79.3381 23.0721 79.427 22.9634H79.4369C79.4369 22.9634 79.4962 22.8942 79.5159 22.8646H79.5258C79.6938 22.6473 79.8222 22.4003 79.9012 22.1336C79.921 22.0446 79.9407 21.9656 79.9704 21.8767C79.9901 21.7582 80 21.6198 80 21.4815C80 21.0963 79.9012 20.7307 79.7135 20.4146C79.3381 19.7132 78.5972 19.239 77.7476 19.239C77.4809 19.239 77.2339 19.2785 76.9968 19.3674C76.9573 19.3674 76.9178 19.3872 76.8881 19.3971C76.6905 19.486 76.5028 19.5848 76.3349 19.7132C76.2262 19.8021 76.1275 19.9009 76.0385 20.0096C75.9694 20.0787 75.9299 20.1578 75.8805 20.217C75.7817 20.3455 75.7026 20.4936 75.6533 20.6319C75.6236 20.711 75.594 20.79 75.5742 20.8592C75.5742 20.8592 75.5709 20.8658 75.5643 20.8789C75.5248 21.037 75.4952 21.2049 75.4853 21.363L75.4952 21.3828Z" fill="#372B82"/>
<path d="M76.898 19.3975C77.1549 19.5951 77.4216 19.8816 77.5006 20.2669C77.5204 20.3558 77.5303 20.4447 77.5303 20.5435C77.5105 21.5117 78.4787 22.302 79.3283 21.6994C79.3283 21.6994 79.3381 21.6994 79.348 21.6895C79.7531 21.403 79.7926 20.8794 79.7234 20.4052C79.348 19.6939 78.6071 19.2197 77.7476 19.2197C77.4414 19.2197 77.1549 19.279 76.8881 19.3975H76.898Z" fill="#4D3CB5"/>
<g style="mix-blend-mode:multiply">
<path d="M33.5688 0.0839844C33.5886 0.202532 33.8652 0.400112 33.8652 0.400112L73.1045 20.82L75.5841 22.1141C75.8607 23.0526 76.7202 23.7244 77.7575 23.7244C78.0045 23.7244 78.2416 23.6849 78.4589 23.6058C78.5873 23.5663 78.7256 23.507 78.8442 23.4379C78.943 23.3786 79.0319 23.3292 79.1208 23.2601C79.2393 23.1613 79.3381 23.0625 79.427 22.9538C79.1307 23.1514 78.7059 23.3391 78.1724 23.349H77.9649C77.1252 23.3292 76.6214 22.9439 76.325 22.4895C75.8607 21.8276 75.841 21.0274 75.841 21.0274L75.5742 20.899L33.5688 0.0839844Z" fill="#4D3CB5"/>
</g>
<path d="M79.3776 21.2443C78.8442 21.758 78.6861 20.9381 78.6268 20.4837C78.5676 20.0292 78.1823 19.5254 78.1823 19.5254C78.1823 19.5254 78.6762 19.5451 79.0022 19.8218C79.4468 20.1972 79.7333 20.8986 79.3776 21.2443Z" fill="#5E4ADE"/>
<path d="M18.2959 49.2367L19.2936 54.2651C19.3529 54.5615 19.6394 54.7591 19.9456 54.6998C20.242 54.6406 20.4396 54.3541 20.3803 54.0478L19.3825 49.0194C19.3233 48.723 19.0368 48.5255 18.7305 48.5847C18.4342 48.644 18.2366 48.9305 18.2959 49.2367Z" fill="#FBFF00"/>
<path d="M20.4001 48.4467L21.2793 53.6529C21.3287 53.9493 21.6152 54.1567 21.9116 54.1073C22.2079 54.0579 22.4154 53.7714 22.366 53.4751L21.4868 48.2688C21.4374 47.9725 21.1509 47.765 20.8545 47.8144C20.5581 47.8638 20.3507 48.1503 20.4001 48.4467Z" fill="#FBFF00"/>
<path d="M22.0103 47.6068L23.2057 53.1489C23.265 53.4453 23.5613 53.633 23.8577 53.5737C24.1541 53.5144 24.3418 53.218 24.2825 52.9217L23.0872 47.3796C23.0279 47.0832 22.7315 46.8955 22.4351 46.9548C22.1388 47.014 21.9511 47.3104 22.0103 47.6068Z" fill="#FBFF00"/>
<path d="M24.0158 46.7868L25.1815 52.1017C25.2507 52.3981 25.5371 52.5858 25.8335 52.5265C26.1299 52.4574 26.3176 52.1709 26.2583 51.8646L25.0926 46.5497C25.0234 46.2534 24.7369 46.0657 24.4406 46.1249C24.1442 46.1941 23.9565 46.4806 24.0158 46.7868Z" fill="#FBFF00"/>
<path d="M26.12 46.0562L27.2363 51.1834C27.3055 51.4798 27.592 51.6675 27.8883 51.6082C28.1847 51.5391 28.3724 51.2526 28.3131 50.9562L27.1968 45.829C27.1277 45.5327 26.8412 45.345 26.5448 45.4042C26.2484 45.4734 26.0607 45.7599 26.12 46.0562Z" fill="#FBFF00"/>
<path d="M28.1353 45.0683L29.0837 50.561C29.1331 50.8574 29.4196 51.0648 29.7258 51.0056C30.0222 50.9562 30.2297 50.6697 30.1704 50.3634L29.222 44.8707C29.1726 44.5743 28.8861 44.3669 28.5799 44.4262C28.2835 44.4755 28.0761 44.762 28.1353 45.0683Z" fill="#FBFF00"/>
<path d="M29.9926 44.208L31.0002 49.7699C31.0496 50.0663 31.346 50.2639 31.6424 50.2145C31.9387 50.1651 32.1363 49.8687 32.0869 49.5723L31.0793 44.0105C31.0299 43.7141 30.7335 43.5165 30.4371 43.5659C30.1408 43.6153 29.9432 43.9117 29.9926 44.208Z" fill="#FBFF00"/>
<path d="M31.5534 43.5864L32.7587 48.9606C32.8278 49.2569 33.1242 49.4446 33.4206 49.3755C33.7169 49.3063 33.9046 49.01 33.8355 48.7136L32.6303 43.3394C32.5611 43.0431 32.2647 42.8554 31.9684 42.9245C31.672 42.9937 31.4843 43.29 31.5534 43.5864Z" fill="#FBFF00"/>
<path d="M33.6972 43.1707L34.4282 48.6436C34.4678 48.9499 34.7444 49.1573 35.0506 49.1178C35.3569 49.0783 35.5643 48.8017 35.5248 48.4954L34.7938 43.0225C34.7542 42.7162 34.4776 42.5088 34.1714 42.5483C33.8651 42.5878 33.6577 42.8644 33.6972 43.1707Z" fill="#FBFF00"/>
<path d="M35.3371 42.5192L36.0583 48.664C36.0978 48.9702 36.3645 49.1876 36.6708 49.148C36.977 49.1085 37.1944 48.8418 37.1548 48.5355L36.4337 42.3908C36.3942 42.0846 36.1274 41.8672 35.8212 41.9067C35.5149 41.9463 35.2976 42.213 35.3371 42.5192Z" fill="#FBFF00"/>
<path d="M37.382 42.3118L37.4413 48.4467C37.4413 48.7529 37.6982 48.9999 37.9945 48.99C38.2909 48.9801 38.5478 48.7332 38.5379 48.4368L38.4786 42.3019C38.4786 41.9957 38.2218 41.7487 37.9254 41.7586C37.629 41.7685 37.3722 42.0154 37.382 42.3118Z" fill="#FBFF00"/>
<path d="M39.348 42.1631L39.4171 48.1794C39.4171 48.4857 39.674 48.7327 39.9704 48.7228C40.2667 48.7129 40.5236 48.4659 40.5137 48.1695L40.4445 42.1532C40.4445 41.847 40.1877 41.6 39.8913 41.6099C39.595 41.6198 39.3381 41.8668 39.348 42.1631Z" fill="#FBFF00"/>
<path d="M41.383 42.3909L40.8101 47.9133C40.7804 48.2195 40.9978 48.4863 41.304 48.5159C41.6103 48.5455 41.877 48.3282 41.9066 48.022L42.4796 42.4996C42.5092 42.1934 42.2919 41.9266 41.9857 41.897C41.6794 41.8674 41.4127 42.0847 41.383 42.3909Z" fill="#FBFF00"/>
<path d="M43.3984 42.9342L42.4895 48.2688C42.4401 48.5652 42.6377 48.8517 42.9439 48.9011C43.2403 48.9505 43.5268 48.7529 43.5762 48.4466L44.4851 43.112C44.5345 42.8156 44.3369 42.5291 44.0306 42.4797C43.7343 42.4303 43.4478 42.6279 43.3984 42.9342Z" fill="#FBFF00"/>
<path d="M45.1667 43.744L44.2183 48.9008C44.159 49.1972 44.3665 49.4837 44.6629 49.543C44.9592 49.6022 45.2457 49.3948 45.305 49.0984L46.2534 43.9416C46.3127 43.6452 46.1052 43.3587 45.8088 43.2994C45.5125 43.2402 45.226 43.4476 45.1667 43.744Z" fill="#FBFF00"/>
<path d="M46.7572 44.6626L46.0756 49.6614C46.036 49.9676 46.2435 50.2442 46.5497 50.2837C46.856 50.3233 47.1326 50.1158 47.1721 49.8096L47.8538 44.8108C47.8933 44.5045 47.6858 44.2279 47.3796 44.1884C47.0733 44.1489 46.7967 44.3564 46.7572 44.6626Z" fill="#FBFF00"/>
<path d="M48.5453 45.5915L47.8735 50.2148C47.834 50.5211 48.0415 50.7977 48.3378 50.8372C48.6441 50.8767 48.9207 50.6693 48.9602 50.3729L49.632 45.7495C49.6715 45.4433 49.4641 45.1667 49.1677 45.1271C48.8614 45.0876 48.5848 45.2951 48.5453 45.5915Z" fill="#FBFF00"/>
<path d="M50.3729 45.8588L49.6122 51.0255C49.5727 51.3219 49.7802 51.6084 50.0765 51.6479C50.3729 51.6874 50.6594 51.4799 50.6989 51.1836L51.4596 46.0169C51.4991 45.7205 51.2916 45.434 50.9953 45.3945C50.6989 45.355 50.4124 45.5624 50.3729 45.8588Z" fill="#FBFF00"/>
<path d="M52.4179 46.7671L51.4003 51.7758C51.3411 52.0721 51.5288 52.3685 51.835 52.4278C52.1314 52.487 52.4277 52.2993 52.487 51.9931L53.5046 46.9844C53.5638 46.6881 53.3761 46.3917 53.0699 46.3324C52.7735 46.2732 52.4771 46.4609 52.4179 46.7671Z" fill="#FBFF00"/>
<path d="M54.3542 47.5676L53.3366 52.4675C53.2773 52.7639 53.4651 53.0603 53.7614 53.1195C54.0578 53.1788 54.3542 52.9911 54.4134 52.6947L55.431 47.7948C55.4902 47.4984 55.3025 47.202 55.0062 47.1428C54.7098 47.0835 54.4134 47.2712 54.3542 47.5676Z" fill="#FBFF00"/>
<path d="M56.2311 48.4864L55.0555 53.8013C54.9864 54.0977 55.1741 54.394 55.4705 54.4632C55.7668 54.5323 56.0632 54.3446 56.1324 54.0483L57.308 48.7334C57.3771 48.437 57.1894 48.1406 56.893 48.0715C56.5967 48.0023 56.3003 48.19 56.2311 48.4864Z" fill="#FBFF00"/>
<path d="M57.9797 49.6912L57.0313 54.3738C56.9721 54.6702 57.1598 54.9666 57.466 55.0258C57.7723 55.0851 58.0587 54.8974 58.118 54.5912L59.0664 49.9085C59.1257 49.6122 58.938 49.3158 58.6317 49.2565C58.3255 49.1972 58.039 49.3849 57.9797 49.6912Z" fill="#FBFF00"/>
<path d="M59.3529 49.7307L59.017 54.69C58.9973 54.9962 59.2245 55.2531 59.5307 55.2728C59.837 55.2926 60.0938 55.0654 60.1136 54.7591L60.4495 49.7999C60.4692 49.4936 60.242 49.2368 59.9358 49.217C59.6295 49.1973 59.3727 49.4245 59.3529 49.7307Z" fill="#FBFF00"/>
<path d="M15.0951 16.4977C15.0951 16.4977 13.8701 26.3372 13.7713 29.8047C13.6725 33.0351 14.5517 38.8736 18.2959 49.4046C18.8491 50.9655 34.6555 42.1831 40.9484 43.5266C45.5717 44.5145 57.8513 51.3606 59.3332 51.3606C60.815 51.3606 62.8303 48.0215 64.0948 44.2181C66.0212 38.4192 66.0114 32.6696 65.7051 29.0539C65.5075 26.7225 65.1815 15.8852 65.1815 15.8852L45.1074 6.01611C43.3391 6.45079 41.9165 8.06106 41.3534 7.70542C40.652 7.26087 38.5083 7.72518 37.7871 8.02155C35.4655 8.98969 34.7641 6.68788 34.7641 6.68788L15.0852 16.4977H15.0951Z" fill="#FFBB00"/>
<path d="M20.7952 44.149C20.7952 44.149 18.533 42.6178 18.6318 44.0009C18.7305 45.3839 21.6251 47.0732 21.6251 47.0732L20.7952 44.149Z" fill="#FBFF00"/>
<path d="M20.9928 44.0992C20.9928 44.0992 21.7634 41.4616 22.5142 42.6174C23.265 43.7732 21.9511 46.9246 21.9511 46.9246L20.9928 44.0992Z" fill="#FBFF00"/>
<path d="M19.6197 40.2958C19.6197 40.2958 17.3574 38.7645 17.4562 40.1476C17.5549 41.5306 20.4495 43.2199 20.4495 43.2199L19.6197 40.2958Z" fill="#FFFDCC"/>
<path d="M19.8172 40.2372C19.8172 40.2372 20.5878 37.5995 21.3386 38.7553C22.0894 39.9112 20.7755 43.0626 20.7755 43.0626L19.8172 40.2372Z" fill="#FFFDCC"/>
<path d="M26.1694 41.5309C26.1694 41.5309 24.0158 39.8514 24.0257 41.2345C24.0355 42.6175 26.8017 44.5044 26.8017 44.5044L26.1694 41.5309Z" fill="#FBFF00"/>
<path d="M26.367 41.4916C26.367 41.4916 27.3154 38.9132 27.9872 40.1185C28.6589 41.3237 27.1376 44.3763 27.1376 44.3763L26.3769 41.4916H26.367Z" fill="#FBFF00"/>
<path d="M25.2013 37.4605C25.2013 37.4605 23.1563 35.6526 23.0773 37.0357C22.9983 38.4188 25.6557 40.4637 25.6557 40.4637L25.2013 37.4605Z" fill="#FFFDCC"/>
<path d="M25.3989 37.4311C25.3989 37.4311 26.4954 34.912 27.098 36.1568C27.7007 37.4015 25.9916 40.3553 25.9916 40.3553L25.3989 37.4311Z" fill="#FFFDCC"/>
<path d="M31.3361 39.3085C31.3361 39.3085 29.3603 37.4315 29.2319 38.8047C29.1035 40.1778 31.6819 42.3216 31.6819 42.3216L31.3361 39.3085Z" fill="#FBFF00"/>
<path d="M31.5337 39.2882C31.5337 39.2882 32.7192 36.8085 33.2724 38.0829C33.8256 39.3573 32.0178 42.242 32.0178 42.242L31.5337 39.298V39.2882Z" fill="#FBFF00"/>
<path d="M30.8422 35.7814C30.8422 35.7814 28.8664 33.9044 28.738 35.2776C28.6095 36.6606 31.1879 38.7945 31.1879 38.7945L30.8422 35.7814Z" fill="#FFFDCC"/>
<path d="M31.0496 35.762C31.0496 35.762 32.2351 33.2824 32.7883 34.5568C33.3416 35.8312 31.5337 38.7158 31.5337 38.7158L31.0496 35.7719V35.762Z" fill="#FFFDCC"/>
<path d="M37.0561 38.0534C37.0561 38.0534 35.2581 35.9986 35.0012 37.3619C34.7444 38.7252 37.1153 41.0961 37.1153 41.0961L37.0561 38.0633V38.0534Z" fill="#FBFF00"/>
<path d="M37.2635 38.0532C37.2635 38.0532 38.6762 35.6921 39.1109 37.006C39.5456 38.3199 37.471 41.0268 37.471 41.0268L37.2635 38.0433V38.0532Z" fill="#FBFF00"/>
<path d="M36.8387 34.4279C36.8387 34.4279 35.0408 32.3731 34.7839 33.7364C34.527 35.0997 36.898 37.4706 36.898 37.4706L36.8387 34.4378V34.4279Z" fill="#FFFDCC"/>
<path d="M37.0363 34.4182C37.0363 34.4182 38.449 32.0571 38.8837 33.371C39.3183 34.6849 37.2438 37.3918 37.2438 37.3918L37.0363 34.4083V34.4182Z" fill="#FFFDCC"/>
<path d="M42.4796 37.7078C42.4796 37.7078 41.0373 35.3961 40.5631 36.6902C40.0889 37.9844 42.0548 40.711 42.0548 40.711L42.4796 37.7078Z" fill="#FBFF00"/>
<path d="M42.6278 37.8063C42.6278 37.8063 44.406 35.7021 44.6135 37.0753C44.8209 38.4485 42.3512 40.7799 42.3512 40.7799L42.6179 37.8063H42.6278Z" fill="#FBFF00"/>
<path d="M42.9242 34.0427C42.9242 34.0427 41.4818 31.731 41.0076 33.0252C40.5334 34.3193 42.4994 37.0459 42.4994 37.0459L42.9242 34.0427Z" fill="#FFFDCC"/>
<path d="M43.0724 34.1318C43.0724 34.1318 44.8506 32.0276 45.058 33.4007C45.2655 34.7739 42.7958 37.1053 42.7958 37.1053L43.0625 34.1318H43.0724Z" fill="#FFFDCC"/>
<path d="M48.4366 39.1893C48.4366 39.1893 47.1919 36.7591 46.6189 38.0236C46.0459 39.2881 47.7747 42.153 47.7747 42.153L48.4465 39.1893H48.4366Z" fill="#FBFF00"/>
<path d="M48.6342 39.2287C48.6342 39.2287 50.5804 37.2825 50.6792 38.6656C50.778 40.0486 48.1205 42.1726 48.1205 42.1726L48.6342 39.2287Z" fill="#FBFF00"/>
<path d="M49.1183 35.6825C49.1183 35.6825 47.8735 33.2522 47.3006 34.5167C46.7276 35.7813 48.4564 38.6462 48.4564 38.6462L49.1282 35.6825H49.1183Z" fill="#FFFDCC"/>
<path d="M49.3159 35.7326C49.3159 35.7326 51.262 33.7864 51.3608 35.1695C51.4596 36.5525 48.8022 38.6765 48.8022 38.6765L49.3159 35.7326Z" fill="#FFFDCC"/>
<path d="M53.8503 41.8375C53.8503 41.8375 52.9019 39.2789 52.1808 40.4644C51.4596 41.6498 52.8328 44.7025 52.8328 44.7025L53.8503 41.8375Z" fill="#FBFF00"/>
<path d="M54.038 41.9065C54.038 41.9065 56.2015 40.2073 56.1324 41.5903C56.0632 42.9734 53.1785 44.7714 53.1785 44.7714L54.038 41.9163V41.9065Z" fill="#FBFF00"/>
<path d="M54.9074 38.1725C54.9074 38.1725 53.8306 35.6632 53.1687 36.8882C52.5068 38.1132 54.038 41.0868 54.038 41.0868L54.9074 38.1725Z" fill="#FFFDCC"/>
<path d="M55.0951 38.2315C55.0951 38.2315 57.1598 36.4236 57.1697 37.8067C57.1795 39.1898 54.3838 41.1359 54.3838 41.1359L55.0951 38.2315Z" fill="#FFFDCC"/>
<path d="M59.1158 44.8207C59.1158 44.8207 58.3947 42.183 57.5747 43.2994C56.7547 44.4157 57.8513 47.577 57.8513 47.577L59.1158 44.8207Z" fill="#FBFF00"/>
<path d="M59.2936 44.9098C59.2936 44.9098 61.5954 43.4082 61.4077 44.7813C61.22 46.1545 58.1773 47.6858 58.1773 47.6858L59.2936 44.9098Z" fill="#FBFF00"/>
<path d="M60.6372 41.0273C60.6372 41.0273 59.916 38.3896 59.0961 39.5059C58.2761 40.6222 59.3727 43.7835 59.3727 43.7835L60.6372 41.0273Z" fill="#FFFDCC"/>
<path d="M60.8249 41.1058C60.8249 41.1058 63.1267 39.6042 62.939 40.9774C62.7513 42.3506 59.7086 43.8818 59.7086 43.8818L60.8249 41.1058Z" fill="#FFFDCC"/>
<path d="M18.4836 36.7889C18.4836 36.7889 16.2213 35.2577 16.3201 36.6407C16.4189 38.0238 19.3134 39.7131 19.3134 39.7131L18.4836 36.7889Z" fill="#FF5100"/>
<path d="M18.6812 36.7401C18.6812 36.7401 19.4517 34.1024 20.2025 35.2583C20.9533 36.4141 19.6394 39.5655 19.6394 39.5655L18.6812 36.7401Z" fill="#FF5100"/>
<path d="M24.5394 33.8448C24.5394 33.8448 22.4944 32.0369 22.4154 33.42C22.3364 34.803 24.9938 36.848 24.9938 36.848L24.5394 33.8448Z" fill="#FF5100"/>
<path d="M24.7369 33.8154C24.7369 33.8154 25.8335 31.2963 26.4361 32.541C27.0388 33.7858 25.3297 36.7396 25.3297 36.7396L24.7369 33.8154Z" fill="#FF5100"/>
<path d="M30.289 31.8993C30.289 31.8993 28.3132 30.0223 28.1847 31.3955C28.0563 32.7686 30.6347 34.9124 30.6347 34.9124L30.289 31.8993Z" fill="#FF5100"/>
<path d="M30.4865 31.879C30.4865 31.879 31.672 29.3993 32.2252 30.6737C32.7784 31.9481 30.9706 34.8328 30.9706 34.8328L30.4865 31.8889V31.879Z" fill="#FF5100"/>
<path d="M36.6312 30.674C36.6312 30.674 34.8333 28.6192 34.5764 29.9825C34.3196 31.3458 36.6905 33.7167 36.6905 33.7167L36.6312 30.6839V30.674Z" fill="#FF5100"/>
<path d="M36.8387 30.6741C36.8387 30.6741 38.2514 28.313 38.6861 29.6269C39.1207 30.9408 37.0462 33.6476 37.0462 33.6476L36.8387 30.6642V30.6741Z" fill="#FF5100"/>
<path d="M43.3391 30.2685C43.3391 30.2685 41.8968 27.9569 41.4226 29.251C40.9484 30.5452 42.9143 33.2718 42.9143 33.2718L43.3391 30.2685Z" fill="#FF5100"/>
<path d="M43.4972 30.3576C43.4972 30.3576 45.2754 28.2534 45.4828 29.6266C45.6903 30.9997 43.2206 33.3312 43.2206 33.3312L43.4873 30.3576H43.4972Z" fill="#FF5100"/>
<path d="M49.8691 32.0472C49.8691 32.0472 48.6244 29.617 48.0514 30.8815C47.4784 32.146 49.2072 35.0109 49.2072 35.0109L49.879 32.0472H49.8691Z" fill="#FF5100"/>
<path d="M50.0667 32.0868C50.0667 32.0868 52.0128 30.1407 52.1116 31.5237C52.2104 32.9068 49.553 35.0307 49.553 35.0307L50.0667 32.0868Z" fill="#FF5100"/>
<path d="M55.8162 34.4872C55.8162 34.4872 54.7394 31.9779 54.0775 33.2029C53.4156 34.4279 54.9469 37.4015 54.9469 37.4015L55.8162 34.4872Z" fill="#FF5100"/>
<path d="M56.0138 34.546C56.0138 34.546 58.0785 32.7381 58.0884 34.1212C58.0983 35.5042 55.3025 37.4504 55.3025 37.4504L56.0138 34.546Z" fill="#FF5100"/>
<path d="M61.5559 37.1447C61.5559 37.1447 60.4495 34.6552 59.7975 35.8802C59.1455 37.1052 60.7261 40.0689 60.7261 40.0689L61.5559 37.1447Z" fill="#FF5100"/>
<path d="M61.7436 37.2039C61.7436 37.2039 63.7886 35.3664 63.8182 36.7495C63.8479 38.1325 61.0719 40.1083 61.0719 40.1083L61.7436 37.2039Z" fill="#FF5100"/>
<path d="M17.1598 28.7376C17.1598 28.7376 15.3618 26.6531 15.0951 28.0263C14.8283 29.3995 17.2092 31.8001 17.2092 31.8001L17.1598 28.7376Z" fill="#CC00FF"/>
<path d="M17.3672 28.7378C17.3672 28.7378 18.7997 26.3669 19.2344 27.6906C19.669 29.0144 17.5648 31.741 17.5648 31.741L17.3672 28.7378Z" fill="#CC00FF"/>
<path d="M22.9785 25.794C22.9785 25.794 20.9336 23.9861 20.8545 25.3692C20.7755 26.7523 23.4329 28.7972 23.4329 28.7972L22.9785 25.794Z" fill="#CC00FF"/>
<path d="M23.1761 25.7637C23.1761 25.7637 24.2727 23.2445 24.8753 24.4893C25.4779 25.734 23.7688 28.6878 23.7688 28.6878L23.1761 25.7637Z" fill="#CC00FF"/>
<path d="M29.2418 24.1534C29.2418 24.1534 27.266 22.2764 27.1376 23.6496C27.0091 25.0228 29.5875 27.1665 29.5875 27.1665L29.2418 24.1534Z" fill="#CC00FF"/>
<path d="M29.4394 24.1339C29.4394 24.1339 30.6248 21.6542 31.1781 22.9286C31.7313 24.203 29.9234 27.0877 29.9234 27.0877L29.4394 24.1437V24.1339Z" fill="#CC00FF"/>
<path d="M36.2361 22.85C36.2361 22.85 34.4381 20.7952 34.1813 22.1585C33.9244 23.5218 36.2954 25.8928 36.2954 25.8928L36.2361 22.8599V22.85Z" fill="#CC00FF"/>
<path d="M36.4436 22.8403C36.4436 22.8403 37.8562 20.4792 38.2909 21.7931C38.7256 23.107 36.651 25.8139 36.651 25.8139L36.4436 22.8304V22.8403Z" fill="#CC00FF"/>
<path d="M44.1393 22.6125C44.1393 22.6125 42.697 20.3009 42.2228 21.595C41.7486 22.8892 43.7145 25.6158 43.7145 25.6158L44.1393 22.6125Z" fill="#CC00FF"/>
<path d="M44.2974 22.7111C44.2974 22.7111 46.0756 20.6069 46.283 21.9801C46.4905 23.3533 44.0207 25.6847 44.0207 25.6847L44.2875 22.7111H44.2974Z" fill="#CC00FF"/>
<path d="M50.7187 24.3018C50.7187 24.3018 49.2764 21.9901 48.8022 23.2842C48.328 24.5784 50.2939 27.305 50.2939 27.305L50.7187 24.3018Z" fill="#CC00FF"/>
<path d="M50.9163 24.332C50.9163 24.332 52.6846 22.2277 52.902 23.6009C53.1193 24.9741 50.6397 27.3055 50.6397 27.3055L50.9064 24.332H50.9163Z" fill="#CC00FF"/>
<path d="M57.0314 26.7623C57.0314 26.7623 55.757 24.3419 55.1939 25.6065C54.6308 26.871 56.3892 29.726 56.3892 29.726L57.0314 26.7623Z" fill="#CC00FF"/>
<path d="M57.219 26.8115C57.219 26.8115 59.1454 24.8456 59.2541 26.2286C59.3628 27.6117 56.7251 29.7653 56.7251 29.7653L57.2092 26.8214L57.219 26.8115Z" fill="#CC00FF"/>
<path d="M62.4253 29.3898C62.4253 29.3898 60.8545 27.1572 60.4594 28.481C60.0642 29.8048 62.1684 32.4128 62.1684 32.4128L62.4253 29.3898Z" fill="#CC00FF"/>
<path d="M62.6327 29.4099C62.6327 29.4099 64.2825 27.2168 64.5789 28.5702C64.8753 29.9237 62.5241 32.4033 62.5241 32.4033L62.6228 29.4198L62.6327 29.4099Z" fill="#CC00FF"/>
<path d="M17.4759 20.0249C17.4759 20.0249 15.9348 17.7428 15.51 19.0765C15.0852 20.4101 17.1697 23.0775 17.1697 23.0775L17.4759 20.0347V20.0249Z" fill="#FF5100"/>
<path d="M17.6735 20.0545C17.6735 20.0545 19.3825 17.8713 19.6493 19.2346C19.916 20.5979 17.5154 23.0578 17.5154 23.0578L17.6735 20.0545Z" fill="#FF5100"/>
<path d="M22.8106 17.5546C22.8106 17.5546 21.2299 15.3318 20.8446 16.6556C20.4594 17.9794 22.5735 20.5776 22.5735 20.5776L22.8106 17.5546Z" fill="#FF5100"/>
<path d="M23.0081 17.5742C23.0081 17.5742 24.648 15.3712 24.9543 16.7246C25.2605 18.078 22.9192 20.5577 22.9192 20.5577L23.0081 17.5742Z" fill="#FF5100"/>
<path d="M28.2144 15.7467C28.2144 15.7467 26.2386 13.8697 26.1101 15.2429C25.9817 16.6161 28.5601 18.7598 28.5601 18.7598L28.2144 15.7467Z" fill="#FF5100"/>
<path d="M28.412 15.7271C28.412 15.7271 29.5974 13.2475 30.1507 14.5219C30.7039 15.7963 28.896 18.6809 28.896 18.6809L28.412 15.737V15.7271Z" fill="#FF5100"/>
<path d="M35.6137 14.5512C35.6137 14.5512 33.8157 12.4964 33.5589 13.8597C33.302 15.223 35.673 17.5939 35.673 17.5939L35.6137 14.5611V14.5512Z" fill="#FF5100"/>
<path d="M35.8113 14.5513C35.8113 14.5513 37.224 12.1902 37.6587 13.5041C38.0934 14.818 36.0188 17.5248 36.0188 17.5248L35.8113 14.5414V14.5513Z" fill="#FF5100"/>
<path d="M44.6233 14.0571C44.6233 14.0571 43.181 11.7454 42.7068 13.0396C42.2326 14.3337 44.1985 17.0603 44.1985 17.0603L44.6233 14.0571Z" fill="#FF5100"/>
<path d="M44.7715 14.1567C44.7715 14.1567 46.5497 12.0525 46.7572 13.4256C46.9647 14.7988 44.4949 17.1303 44.4949 17.1303L44.7616 14.1567H44.7715Z" fill="#FF5100"/>
<path d="M51.677 15.4404C51.677 15.4404 50.2346 13.1287 49.7604 14.4229C49.2862 15.717 51.2522 18.4436 51.2522 18.4436L51.677 15.4404Z" fill="#FF5100"/>
<path d="M51.8745 15.4706C51.8745 15.4706 53.6429 13.3664 53.8602 14.7396C54.0775 16.1128 51.5979 18.4442 51.5979 18.4442L51.8646 15.4706H51.8745Z" fill="#FF5100"/>
<path d="M57.0017 17.96C57.0017 17.96 55.2235 15.8854 54.9568 17.2487C54.69 18.612 57.0314 21.0027 57.0314 21.0027L56.9918 17.9699L57.0017 17.96Z" fill="#FF5100"/>
<path d="M57.1993 17.9597C57.1993 17.9597 58.6318 15.6184 59.0565 16.9323C59.4813 18.2462 57.3771 20.9431 57.3771 20.9431L57.1993 17.9597Z" fill="#FF5100"/>
<path d="M62.3956 20.4889C62.3956 20.4889 60.6965 18.3452 60.3803 19.6986C60.0642 21.052 62.3166 23.5317 62.3166 23.5317L62.3956 20.4988V20.4889Z" fill="#FF5100"/>
<path d="M62.6031 20.4891C62.6031 20.4891 64.1245 18.1972 64.4999 19.5407C64.8753 20.8842 62.6723 23.4824 62.6723 23.4824L62.6031 20.499V20.4891Z" fill="#FF5100"/>
<path d="M17.5352 33.0644C17.5352 33.0644 15.4013 31.3652 15.3914 32.7483C15.3816 34.1313 18.1378 36.0479 18.1378 36.0479L17.5352 33.0743V33.0644Z" fill="#FBFF00"/>
<path d="M17.7328 33.0256C17.7328 33.0256 18.7108 30.457 19.3628 31.6721C20.0148 32.8872 18.4638 35.9201 18.4638 35.9201L17.7328 33.0256Z" fill="#FBFF00"/>
<path d="M23.7688 29.9229C23.7688 29.9229 21.7239 28.1151 21.6448 29.4981C21.5658 30.8812 24.2232 32.9261 24.2232 32.9261L23.7688 29.9229Z" fill="#FBFF00"/>
<path d="M23.9664 29.9033C23.9664 29.9033 25.063 27.3842 25.6656 28.6289C26.2682 29.8737 24.5592 32.8275 24.5592 32.8275L23.9664 29.9033Z" fill="#FBFF00"/>
<path d="M29.7555 28.1649C29.7555 28.1649 27.7797 26.2879 27.6513 27.6611C27.5228 29.0343 30.1013 31.178 30.1013 31.178L29.7555 28.1649Z" fill="#FBFF00"/>
<path d="M29.9531 28.1453C29.9531 28.1453 31.1386 25.6657 31.6918 26.9401C32.245 28.2145 30.4371 31.0991 30.4371 31.0991L29.9531 28.1552V28.1453Z" fill="#FBFF00"/>
<path d="M36.4337 26.6628C36.4337 26.6628 34.6357 24.6079 34.3789 25.9712C34.122 27.3345 36.493 29.7055 36.493 29.7055L36.4337 26.6727V26.6628Z" fill="#FBFF00"/>
<path d="M36.6411 26.6636C36.6411 26.6636 38.0538 24.3025 38.4885 25.6164C38.9232 26.9303 36.8486 29.6371 36.8486 29.6371L36.6411 26.6537V26.6636Z" fill="#FBFF00"/>
<path d="M43.6947 26.4058C43.6947 26.4058 42.2524 24.0941 41.7782 25.3882C41.304 26.6824 43.2699 29.409 43.2699 29.409L43.6947 26.4058Z" fill="#FBFF00"/>
<path d="M43.8429 26.4948C43.8429 26.4948 45.6211 24.3906 45.8286 25.7638C46.0361 27.1369 43.5663 29.4684 43.5663 29.4684L43.833 26.4948H43.8429Z" fill="#FBFF00"/>
<path d="M50.4223 28.1847C50.4223 28.1847 49.059 25.8236 48.5453 27.1079C48.0316 28.3921 49.8889 31.178 49.8889 31.178L50.4223 28.1847Z" fill="#FBFF00"/>
<path d="M50.6199 28.224C50.6199 28.224 52.4673 26.1889 52.6352 27.5621C52.8031 28.9353 50.2445 31.1877 50.2445 31.1877L50.6199 28.224Z" fill="#FBFF00"/>
<path d="M56.4584 30.7337C56.4584 30.7337 55.1148 28.3627 54.5913 29.647C54.0677 30.9313 55.915 33.727 55.915 33.727L56.4584 30.7436V30.7337Z" fill="#FBFF00"/>
<path d="M56.6559 30.7723C56.6559 30.7723 58.5132 28.7471 58.6713 30.1203C58.8293 31.4935 56.2608 33.736 56.2608 33.736L56.6559 30.7723Z" fill="#FBFF00"/>
<path d="M62.1783 33.3416C62.1783 33.3416 60.894 30.9312 60.3408 32.2056C59.7876 33.4799 61.5658 36.3152 61.5658 36.3152L62.1882 33.3416H62.1783Z" fill="#FBFF00"/>
<path d="M62.3759 33.3909C62.3759 33.3909 64.2825 31.4151 64.4109 32.7883C64.5394 34.1614 61.9116 36.3348 61.9116 36.3348L62.3759 33.381V33.3909Z" fill="#FBFF00"/>
<path d="M17.2882 24.3713C17.2882 24.3713 15.7273 22.1386 15.3223 23.4624C14.9173 24.7862 17.0215 27.4041 17.0215 27.4041L17.2882 24.3812V24.3713Z" fill="#FFFDCC"/>
<path d="M17.4858 24.3914C17.4858 24.3914 19.1455 22.1983 19.4319 23.5517C19.7184 24.9051 17.3672 27.3748 17.3672 27.3748L17.4759 24.3914H17.4858Z" fill="#FFFDCC"/>
<path d="M22.6821 21.8029C22.6821 21.8029 20.9928 19.6592 20.6668 21.0126C20.3408 22.366 22.6031 24.8456 22.6031 24.8456L22.6821 21.8128V21.8029Z" fill="#FFFDCC"/>
<path d="M22.8797 21.8128C22.8797 21.8128 24.411 19.5209 24.7765 20.8644C25.142 22.208 22.9489 24.8061 22.9489 24.8061L22.8797 21.8227V21.8128Z" fill="#FFFDCC"/>
<path d="M28.7972 19.8661C28.7972 19.8661 26.8214 17.9891 26.693 19.3623C26.5646 20.7354 29.143 22.8792 29.143 22.8792L28.7972 19.8661Z" fill="#FFFDCC"/>
<path d="M28.9948 19.8465C28.9948 19.8465 30.1803 17.3669 30.7335 18.6413C31.2867 19.9157 29.4789 22.8003 29.4789 22.8003L28.9948 19.8564V19.8465Z" fill="#FFFDCC"/>
<path d="M35.92 18.5424C35.92 18.5424 34.122 16.4876 33.8652 17.8509C33.6083 19.2142 35.9793 21.5851 35.9793 21.5851L35.92 18.5523V18.5424Z" fill="#FFFDCC"/>
<path d="M36.1176 18.5422C36.1176 18.5422 37.5302 16.1811 37.9649 17.495C38.3996 18.809 36.325 21.5158 36.325 21.5158L36.1176 18.5323V18.5422Z" fill="#FFFDCC"/>
<path d="M44.1097 18.2959C44.1097 18.2959 42.45 16.1324 42.1042 17.466C41.7585 18.7997 43.9714 21.3287 43.9714 21.3287L44.0998 18.2959H44.1097Z" fill="#FFFDCC"/>
<path d="M44.2677 18.365C44.2677 18.365 45.8286 16.1027 46.1743 17.4462C46.5201 18.7898 44.2776 21.3583 44.2776 21.3583L44.2578 18.3748L44.2677 18.365Z" fill="#FFFDCC"/>
<path d="M51.2324 20.0345C51.2324 20.0345 49.8691 17.6735 49.3554 18.9577C48.8417 20.242 50.6989 23.0279 50.6989 23.0279L51.2324 20.0345Z" fill="#FFFDCC"/>
<path d="M51.43 20.0738C51.43 20.0738 53.2773 18.0388 53.4453 19.412C53.6132 20.7851 51.0546 23.0375 51.0546 23.0375L51.43 20.0738Z" fill="#FFFDCC"/>
<path d="M57.1499 22.3855C57.1499 22.3855 55.431 20.2714 55.1247 21.6248C54.8185 22.9783 57.1104 25.4282 57.1104 25.4282L57.1499 22.3954V22.3855Z" fill="#FFFDCC"/>
<path d="M57.3475 22.3952C57.3475 22.3952 58.8392 20.0835 59.2344 21.4171C59.6295 22.7508 57.4561 25.3786 57.4561 25.3786L57.3475 22.3952Z" fill="#FFFDCC"/>
<path d="M62.366 24.8848C62.366 24.8848 60.6965 22.7312 60.3606 24.0747C60.0247 25.4183 62.2573 27.9177 62.2573 27.9177L62.366 24.8848Z" fill="#FFFDCC"/>
<path d="M62.5636 24.8949C62.5636 24.8949 64.1146 22.6228 64.4702 23.9564C64.8259 25.2901 62.6031 27.8784 62.6031 27.8784L62.5636 24.8949Z" fill="#FFFDCC"/>
<path d="M15.9546 16.5164C15.9842 16.6152 15.9842 16.7041 15.9546 16.793C15.9249 16.9807 15.7767 17.1487 15.5792 17.1981C15.2927 17.287 14.9864 17.119 14.8975 16.8325L14.206 14.5011C14.1467 14.2739 14.2257 14.0368 14.4036 13.9084C14.4628 13.8688 14.5122 13.8293 14.5814 13.8096C14.8778 13.7305 15.1741 13.8985 15.263 14.185L15.9546 16.5164Z" fill="#FF850A"/>
<path d="M17.634 15.598C17.6636 15.6967 17.6636 15.7857 17.634 15.8746C17.6044 16.0623 17.4562 16.2302 17.2586 16.2796C16.9721 16.3685 16.6659 16.2006 16.5769 15.9141L15.8953 13.5826C15.8261 13.3554 15.9052 13.1183 16.083 12.9899C16.1423 12.9504 16.1917 12.9109 16.2608 12.8911C16.5572 12.8121 16.8634 12.98 16.9523 13.2665L17.634 15.598Z" fill="#FF850A"/>
<path d="M19.3233 14.9561C19.2937 15.1537 19.1554 15.3117 18.9578 15.3611C18.6614 15.4501 18.3552 15.2821 18.2662 14.9956L17.5846 12.6642C17.5154 12.437 17.5945 12.19 17.7822 12.0616C17.8415 12.0319 17.8908 11.9924 17.96 11.9727C18.2465 11.8936 18.5527 12.0616 18.6416 12.3481L19.3233 14.6795C19.3431 14.7684 19.3529 14.8672 19.3233 14.9561Z" fill="#FF850A"/>
<path d="M21.0225 13.7708C21.0422 13.8597 21.0422 13.9486 21.0225 14.0375C20.9928 14.2351 20.8447 14.4031 20.6471 14.4525C20.3507 14.5414 20.0445 14.3734 19.9654 14.0869L19.2739 11.7555C19.2047 11.5283 19.2838 11.2813 19.4715 11.1529C19.5308 11.1232 19.5801 11.0837 19.6493 11.064C19.9358 10.9849 20.242 11.1529 20.3309 11.4394L21.0225 13.7708Z" fill="#FF850A"/>
<path d="M22.7612 13.3356C22.7315 13.5331 22.5932 13.6912 22.3956 13.7505C22.0993 13.8295 21.793 13.6616 21.7041 13.3751L21.0225 11.0436C20.9533 10.8164 21.0323 10.5694 21.22 10.4509C21.2793 10.4114 21.3287 10.3817 21.3979 10.362C21.6844 10.2731 21.9906 10.441 22.0795 10.7275L22.7612 13.059C22.7809 13.1479 22.7908 13.2467 22.7612 13.3356Z" fill="#FF850A"/>
<path d="M24.4999 12.5657C24.4702 12.7633 24.3319 12.9214 24.1344 12.9806C23.838 13.0696 23.5317 12.9016 23.4527 12.6052L22.7612 10.2738C22.692 10.0565 22.7711 9.80949 22.9588 9.68107C23.018 9.65143 23.0674 9.61191 23.1366 9.59216C23.4231 9.50324 23.7293 9.67119 23.8182 9.96756L24.4999 12.299C24.5196 12.3879 24.5295 12.4768 24.4999 12.5657Z" fill="#FF850A"/>
<path d="M26.2484 11.8347C26.2287 12.0224 26.0805 12.1904 25.873 12.2496C25.5866 12.3386 25.2803 12.1706 25.1914 11.8841L24.4999 9.5428C24.4307 9.32547 24.5196 9.08837 24.6974 8.95994C24.7567 8.92043 24.8061 8.88091 24.8753 8.86115C25.1716 8.77224 25.468 8.95007 25.5569 9.23656L26.2484 11.568C26.2682 11.6569 26.2781 11.7458 26.2484 11.8347Z" fill="#FF850A"/>
<path d="M27.9674 10.9751C27.9378 11.1826 27.7896 11.3505 27.5821 11.4197C27.2956 11.4987 26.9894 11.3308 26.9005 11.0443L26.2089 8.71283C26.1497 8.48561 26.2287 8.24852 26.4065 8.12009C26.4658 8.08057 26.5152 8.05094 26.5843 8.03118C26.8807 7.94227 27.1771 8.11021 27.266 8.3967L27.9575 10.7281C27.9773 10.8171 27.9872 10.8961 27.9674 10.985V10.9751Z" fill="#FF850A"/>
<path d="M29.6567 10.0956C29.6271 10.2932 29.4789 10.4611 29.2813 10.5303C28.9849 10.6093 28.6886 10.4414 28.5996 10.1549L27.9081 7.82342C27.839 7.59621 27.918 7.34923 28.1057 7.23069C28.165 7.19117 28.2144 7.16153 28.2835 7.14177C28.57 7.05286 28.8763 7.22081 28.9652 7.5073L29.6567 9.83874C29.6765 9.92765 29.6863 10.0264 29.6567 10.1055V10.0956Z" fill="#FF850A"/>
<path d="M31.3757 9.02838C31.3954 9.11729 31.3954 9.2062 31.3757 9.28523C31.346 9.48281 31.2077 9.65075 31.0003 9.7199C30.7039 9.80882 30.4075 9.64087 30.3186 9.3445L29.6271 7.01306C29.5579 6.79573 29.637 6.54875 29.8247 6.42032C29.8839 6.39069 29.9333 6.35117 30.0025 6.33141C30.289 6.2425 30.5952 6.41044 30.6841 6.70681L31.3757 9.03825V9.02838Z" fill="#FF850A"/>
<path d="M33.065 8.37676C33.0353 8.57434 32.897 8.73241 32.6896 8.79168C32.4031 8.88059 32.0968 8.71265 32.0079 8.41628L31.3164 6.08484C31.2472 5.8675 31.3361 5.63041 31.514 5.50198C31.5732 5.46246 31.6226 5.42295 31.6918 5.40319C31.9882 5.31428 32.2845 5.48222 32.3734 5.77859L33.065 8.11003C33.0847 8.19894 33.0946 8.28785 33.065 8.37676Z" fill="#FF850A"/>
<path d="M34.8827 7.57598C34.8629 7.76368 34.7148 7.93163 34.5073 7.9909C34.2208 8.07981 33.9146 7.91187 33.8256 7.62538L33.1341 5.28406C33.065 5.06672 33.1539 4.82963 33.3317 4.7012C33.391 4.66168 33.4404 4.62217 33.5095 4.60241C33.8059 4.5135 34.1023 4.68144 34.1912 4.97781L34.8827 7.30925C34.9025 7.39816 34.9123 7.48707 34.8827 7.57598Z" fill="#FF850A"/>
<path d="M15.9546 16.5164C15.9842 16.6152 15.9842 16.7041 15.9546 16.793C15.8953 16.8227 15.8459 16.8622 15.7767 16.8819C15.4903 16.9708 15.184 16.8029 15.0951 16.5065L14.4036 14.1751C14.3739 14.0862 14.3739 13.9973 14.4036 13.9084C14.4628 13.8688 14.5122 13.8293 14.5814 13.8096C14.8778 13.7305 15.1741 13.8985 15.263 14.185L15.9546 16.5164Z" fill="#FFBB29"/>
<path d="M17.634 15.598C17.6636 15.6967 17.6636 15.7857 17.634 15.8746C17.5747 15.9042 17.5253 15.9437 17.4562 15.9635C17.1697 16.0524 16.8634 15.8844 16.7745 15.5881L16.083 13.2566C16.0632 13.1677 16.0632 13.0788 16.083 12.9899C16.1423 12.9504 16.1916 12.9109 16.2608 12.8911C16.5572 12.8121 16.8634 12.98 16.9523 13.2665L17.634 15.598Z" fill="#FFBB29"/>
<path d="M19.3233 14.9561C19.264 14.9857 19.2146 15.0253 19.1455 15.045C18.859 15.1339 18.5527 14.966 18.4638 14.6696L17.7822 12.3382C17.7525 12.2493 17.7525 12.1505 17.7822 12.0616C17.8414 12.0319 17.8908 11.9924 17.96 11.9727C18.2465 11.8936 18.5527 12.0616 18.6416 12.3481L19.3233 14.6795C19.343 14.7684 19.3529 14.8672 19.3233 14.9561Z" fill="#FFBB29"/>
<path d="M21.0225 13.7708C21.0423 13.8597 21.0423 13.9486 21.0225 14.0375C20.9632 14.0771 20.9138 14.1166 20.8447 14.1363C20.5483 14.2252 20.2421 14.0573 20.1531 13.7609L19.4715 11.4295C19.4419 11.3406 19.4419 11.2418 19.4715 11.1529C19.5308 11.1232 19.5802 11.0837 19.6493 11.064C19.9358 10.9849 20.2421 11.1529 20.331 11.4394L21.0225 13.7708Z" fill="#FFBB29"/>
<path d="M22.7612 13.3356C22.7019 13.3652 22.6525 13.4047 22.5834 13.4245C22.2969 13.5134 21.9906 13.3454 21.9017 13.0491L21.2201 10.7176C21.2003 10.6287 21.1904 10.5398 21.2201 10.4509C21.2793 10.4114 21.3287 10.3817 21.3979 10.362C21.6844 10.2731 21.9906 10.441 22.0795 10.7275L22.7612 13.059C22.7809 13.1479 22.7908 13.2467 22.7612 13.3356Z" fill="#FFBB29"/>
<path d="M24.4999 12.5657C24.4999 12.5657 24.4011 12.6349 24.332 12.6546C24.0356 12.7436 23.7293 12.5756 23.6404 12.2891L22.9588 9.9478C22.939 9.85889 22.9291 9.76998 22.9588 9.68107C23.018 9.65143 23.0674 9.61191 23.1366 9.59216C23.4231 9.50324 23.7293 9.67119 23.8182 9.96756L24.4999 12.299C24.5197 12.3879 24.5295 12.4768 24.4999 12.5657Z" fill="#FFBB29"/>
<path d="M26.2485 11.8347C26.1892 11.8742 26.1398 11.9138 26.0706 11.9335C25.7743 12.0224 25.4779 11.8545 25.389 11.5581L24.6975 9.22668C24.6777 9.13777 24.6678 9.04885 24.6975 8.95994C24.7567 8.92043 24.8061 8.88091 24.8753 8.86115C25.1716 8.77224 25.468 8.95007 25.5569 9.23656L26.2485 11.568C26.2682 11.6569 26.2781 11.7458 26.2485 11.8347Z" fill="#FFBB29"/>
<path d="M27.9674 10.9745C27.9081 11.0338 27.8489 11.0634 27.7797 11.0832C27.4833 11.1721 27.187 11.0041 27.0981 10.7078L26.4065 8.37633C26.3868 8.28741 26.3769 8.1985 26.4065 8.10959C26.4658 8.07008 26.5152 8.04044 26.5844 8.02068C26.8807 7.93177 27.1771 8.09971 27.266 8.3862L27.9575 10.7176C27.9773 10.8066 27.9872 10.8856 27.9674 10.9745Z" fill="#FFBB29"/>
<path d="M29.6567 10.0957C29.5974 10.1352 29.548 10.1747 29.4789 10.1945C29.1825 10.2834 28.8763 10.1155 28.7972 9.81909L28.1057 7.48765C28.086 7.39874 28.0761 7.30983 28.1057 7.22092C28.165 7.1814 28.2144 7.15177 28.2835 7.13201C28.57 7.0431 28.8763 7.21104 28.9652 7.49753L29.6567 9.82897C29.6765 9.91788 29.6863 10.0167 29.6567 10.0957Z" fill="#FFBB29"/>
<path d="M31.3756 9.02849C31.3954 9.1174 31.3954 9.20631 31.3756 9.28534C31.3164 9.34462 31.267 9.36437 31.1978 9.38413C30.9015 9.47304 30.5952 9.3051 30.5162 9.01861L29.8246 6.67729C29.8049 6.58838 29.795 6.49947 29.8246 6.41056C29.8839 6.38092 29.9333 6.34141 30.0025 6.32165C30.289 6.23274 30.5952 6.40068 30.6841 6.69705L31.3756 9.02849Z" fill="#FFBB29"/>
<path d="M33.0649 8.37676C33.0057 8.41628 32.9563 8.44592 32.8871 8.46567C32.5908 8.55459 32.2944 8.38664 32.2055 8.10015L31.5139 5.75883C31.4942 5.66992 31.4843 5.58101 31.5139 5.50198C31.5732 5.46246 31.6226 5.42295 31.6918 5.40319C31.9881 5.31428 32.2845 5.48222 32.3734 5.77859L33.0649 8.11003C33.0847 8.19894 33.0946 8.28785 33.0649 8.37676Z" fill="#FFBB29"/>
<path d="M34.8827 7.57598C34.8234 7.6155 34.774 7.65502 34.7049 7.67477C34.4085 7.76368 34.1121 7.58586 34.0232 7.29937L33.3317 4.96793C33.312 4.87902 33.3021 4.79011 33.3317 4.7012C33.391 4.66168 33.4404 4.62217 33.5095 4.60241C33.8059 4.5135 34.1023 4.68144 34.1912 4.97781L34.8827 7.30925C34.9025 7.39816 34.9123 7.48707 34.8827 7.57598Z" fill="#FFBB29"/>
<path d="M44.3764 6.67901C44.3467 6.7778 44.3467 6.86671 44.3764 6.95562C44.406 7.14332 44.5542 7.31126 44.7518 7.36066C45.0383 7.44957 45.3445 7.28163 45.4334 6.99513L46.1249 4.6637C46.1842 4.43648 46.1052 4.19938 45.9274 4.07096C45.8681 4.03144 45.8187 3.99192 45.7495 3.97217C45.4532 3.89313 45.1568 4.06108 45.0679 4.34757L44.3764 6.67901Z" fill="#FF850A"/>
<path d="M64.322 15.896C64.2924 15.9948 64.2924 16.0837 64.322 16.1727C64.3517 16.3604 64.4999 16.5283 64.6974 16.5777C64.9839 16.6666 65.2902 16.4987 65.3791 16.2122L66.0607 13.8807C66.1299 13.6535 66.0509 13.4164 65.873 13.288C65.8138 13.2485 65.7644 13.209 65.6952 13.1892C65.3988 13.1102 65.0926 13.2781 65.0037 13.5646L64.322 15.896Z" fill="#FF850A"/>
<path d="M62.4352 15.2735C62.4648 15.4711 62.6031 15.6291 62.8007 15.6785C63.097 15.7674 63.4033 15.5995 63.4922 15.313L64.1739 12.9816C64.243 12.7543 64.164 12.5074 63.9763 12.3789C63.917 12.3493 63.8676 12.3098 63.7985 12.29C63.512 12.211 63.2057 12.3789 63.1168 12.6654L62.4352 14.9969C62.4154 15.0858 62.4055 15.1846 62.4352 15.2735Z" fill="#FF850A"/>
<path d="M60.4297 14.0186C60.41 14.1075 60.41 14.1964 60.4297 14.2853C60.4594 14.4829 60.6075 14.6509 60.8051 14.7003C61.1015 14.7892 61.4077 14.6212 61.4868 14.3347L62.1783 12.0033C62.2475 11.7761 62.1684 11.5291 61.9807 11.4007C61.9214 11.371 61.8721 11.3315 61.8029 11.3118C61.5164 11.2327 61.2102 11.4007 61.1213 11.6872L60.4297 14.0186Z" fill="#FF850A"/>
<path d="M58.6416 13.5343C58.6713 13.7319 58.8096 13.8899 59.0072 13.9492C59.3035 14.0282 59.6098 13.8603 59.6987 13.5738L60.3803 11.2424C60.4495 11.0152 60.3705 10.7682 60.1828 10.6496C60.1235 10.6101 60.0741 10.5805 60.0049 10.5607C59.7184 10.4718 59.4122 10.6398 59.3233 10.9262L58.6416 13.2577C58.6219 13.3466 58.612 13.4454 58.6416 13.5343Z" fill="#FF850A"/>
<path d="M56.567 12.5667C56.5967 12.7643 56.735 12.9223 56.9326 12.9816C57.2289 13.0705 57.5352 12.9026 57.6142 12.6062L58.3057 10.2748C58.3749 10.0574 58.2959 9.81047 58.1082 9.68204C58.0489 9.65241 57.9995 9.61289 57.9303 9.59313C57.6438 9.50422 57.3376 9.67216 57.2487 9.96853L56.567 12.3C56.5473 12.3889 56.5374 12.4778 56.567 12.5667Z" fill="#FF850A"/>
<path d="M54.8086 11.8357C54.8283 12.0234 54.9765 12.1913 55.184 12.2506C55.4705 12.3395 55.7767 12.1716 55.8656 11.8851L56.5572 9.54378C56.6263 9.32644 56.5374 9.08935 56.3596 8.96092C56.3003 8.9214 56.2509 8.88189 56.1818 8.86213C55.8854 8.77322 55.589 8.95104 55.5001 9.23753L54.8086 11.569C54.7888 11.6579 54.7789 11.7468 54.8086 11.8357Z" fill="#FF850A"/>
<path d="M53.0896 10.9761C53.1193 11.1836 53.2675 11.3515 53.4749 11.4206C53.7614 11.4997 54.0677 11.3317 54.1566 11.0452L54.8481 8.71381C54.9074 8.48659 54.8283 8.24949 54.6505 8.12107C54.5912 8.08155 54.5419 8.05191 54.4727 8.03216C54.1763 7.94325 53.88 8.11119 53.791 8.39768L53.0995 10.7291C53.0798 10.818 53.0699 10.8971 53.0896 10.986V10.9761Z" fill="#FF850A"/>
<path d="M51.4003 10.0966C51.43 10.2941 51.5781 10.4621 51.7757 10.5312C52.0721 10.6103 52.3685 10.4423 52.4574 10.1558L53.1489 7.8244C53.2181 7.59718 53.139 7.35021 52.9513 7.23166C52.892 7.19215 52.8427 7.16251 52.7735 7.14275C52.487 7.05384 52.1808 7.22178 52.0918 7.50827L51.4003 9.83971C51.3806 9.92862 51.3707 10.0274 51.4003 10.1064V10.0966Z" fill="#FF850A"/>
<path d="M49.6814 9.03008C49.6616 9.119 49.6616 9.20791 49.6814 9.28694C49.711 9.48452 49.8493 9.65246 50.0568 9.72161C50.3532 9.81052 50.6495 9.64258 50.7384 9.34621L51.43 7.01477C51.4991 6.79743 51.4201 6.55046 51.2324 6.42203C51.1731 6.3924 51.1237 6.35288 51.0546 6.33312C50.7681 6.24421 50.4618 6.41215 50.3729 6.70852L49.6814 9.03996V9.03008Z" fill="#FF850A"/>
<path d="M48.0019 8.37774C48.0316 8.57532 48.1699 8.73338 48.3773 8.79266C48.6638 8.88157 48.9701 8.71363 49.059 8.41726L49.7505 6.08582C49.8197 5.86848 49.7308 5.63138 49.5529 5.50296C49.4937 5.46344 49.4443 5.42392 49.3751 5.40417C49.0788 5.31526 48.7824 5.4832 48.6935 5.77957L48.0019 8.11101C47.9822 8.19992 47.9723 8.28883 48.0019 8.37774Z" fill="#FF850A"/>
<path d="M46.1744 7.57794C46.1941 7.76564 46.3423 7.93358 46.5498 7.99285C46.8363 8.08176 47.1425 7.91382 47.2314 7.62733L47.9229 5.28601C47.9921 5.06867 47.9032 4.83158 47.7254 4.70315C47.6661 4.66364 47.6167 4.62412 47.5475 4.60436C47.2512 4.51545 46.9548 4.68339 46.8659 4.97976L46.1744 7.3112C46.1546 7.40011 46.1447 7.48903 46.1744 7.57794Z" fill="#FF850A"/>
<path d="M44.3764 6.67901C44.3467 6.7778 44.3467 6.86671 44.3764 6.95562C44.4356 6.98526 44.485 7.02477 44.5542 7.04453C44.8407 7.13344 45.1469 6.9655 45.2358 6.66913L45.9274 4.33769C45.957 4.24878 45.957 4.15987 45.9274 4.07096C45.8681 4.03144 45.8187 3.99192 45.7495 3.97217C45.4532 3.89313 45.1568 4.06108 45.0679 4.34757L44.3764 6.67901Z" fill="#FFBB29"/>
<path d="M64.322 15.896C64.2924 15.9948 64.2924 16.0837 64.322 16.1727C64.3813 16.2023 64.4307 16.2418 64.4999 16.2616C64.7864 16.3505 65.0926 16.1825 65.1815 15.8862L65.873 13.5547C65.8928 13.4658 65.8928 13.3769 65.873 13.288C65.8138 13.2485 65.7644 13.209 65.6952 13.1892C65.3988 13.1102 65.0926 13.2781 65.0037 13.5646L64.322 15.896Z" fill="#FFBB29"/>
<path d="M62.4352 15.2735C62.4944 15.3031 62.5438 15.3426 62.613 15.3624C62.8995 15.4513 63.2057 15.2834 63.2946 14.987L63.9763 12.6556C64.0059 12.5666 64.0059 12.4679 63.9763 12.3789C63.917 12.3493 63.8676 12.3098 63.7985 12.29C63.512 12.211 63.2057 12.3789 63.1168 12.6654L62.4352 14.9969C62.4154 15.0858 62.4055 15.1846 62.4352 15.2735Z" fill="#FFBB29"/>
<path d="M60.4297 14.0186C60.41 14.1075 60.41 14.1964 60.4297 14.2853C60.489 14.3249 60.5384 14.3644 60.6075 14.3841C60.9039 14.473 61.2102 14.3051 61.2991 14.0087L61.9807 11.6773C62.0104 11.5884 62.0104 11.4896 61.9807 11.4007C61.9214 11.371 61.8721 11.3315 61.8029 11.3118C61.5164 11.2327 61.2102 11.4007 61.1213 11.6872L60.4297 14.0186Z" fill="#FFBB29"/>
<path d="M58.6416 13.5343C58.7009 13.5639 58.7503 13.6034 58.8195 13.6232C59.1059 13.7121 59.4122 13.5442 59.5011 13.2478L60.1828 10.9164C60.2025 10.8275 60.2124 10.7385 60.1828 10.6496C60.1235 10.6101 60.0741 10.5805 60.0049 10.5607C59.7184 10.4718 59.4122 10.6398 59.3233 10.9262L58.6416 13.2577C58.6219 13.3466 58.612 13.4454 58.6416 13.5343Z" fill="#FFBB29"/>
<path d="M56.567 12.5667C56.567 12.5667 56.6658 12.6359 56.735 12.6556C57.0313 12.7445 57.3376 12.5766 57.4265 12.2901L58.1082 9.94877C58.1279 9.85986 58.1378 9.77095 58.1082 9.68204C58.0489 9.65241 57.9995 9.61289 57.9303 9.59313C57.6438 9.50422 57.3376 9.67216 57.2487 9.96853L56.567 12.3C56.5473 12.3889 56.5374 12.4778 56.567 12.5667Z" fill="#FFBB29"/>
<path d="M54.8086 11.8357C54.8678 11.8752 54.9172 11.9147 54.9864 11.9345C55.2828 12.0234 55.5791 11.8555 55.668 11.5591L56.3596 9.22765C56.3793 9.13874 56.3892 9.04983 56.3596 8.96092C56.3003 8.9214 56.2509 8.88189 56.1818 8.86213C55.8854 8.77322 55.589 8.95104 55.5001 9.23753L54.8086 11.569C54.7888 11.6579 54.7789 11.7468 54.8086 11.8357Z" fill="#FFBB29"/>
<path d="M53.0896 10.9764C53.1489 11.0357 53.2082 11.0654 53.2773 11.0851C53.5737 11.174 53.8701 11.0061 53.959 10.7097L54.6505 8.37828C54.6703 8.28937 54.6802 8.20046 54.6505 8.11155C54.5912 8.07203 54.5419 8.04239 54.4727 8.02263C54.1763 7.93372 53.88 8.10167 53.791 8.38816L53.0995 10.7196C53.0798 10.8085 53.0699 10.8875 53.0896 10.9764Z" fill="#FFBB29"/>
<path d="M51.4003 10.0967C51.4596 10.1362 51.509 10.1757 51.5781 10.1955C51.8745 10.2844 52.1808 10.1164 52.2598 9.82007L52.9513 7.48863C52.9711 7.39972 52.981 7.31081 52.9513 7.2219C52.892 7.18238 52.8427 7.15274 52.7735 7.13299C52.487 7.04408 52.1808 7.21202 52.0918 7.49851L51.4003 9.82995C51.3806 9.91886 51.3707 10.0176 51.4003 10.0967Z" fill="#FFBB29"/>
<path d="M49.6814 9.02947C49.6616 9.11838 49.6616 9.20729 49.6814 9.28632C49.7407 9.34559 49.7901 9.36535 49.8592 9.38511C50.1556 9.47402 50.4618 9.30608 50.5409 9.01959L51.2324 6.67827C51.2521 6.58936 51.262 6.50045 51.2324 6.41153C51.1731 6.3819 51.1237 6.34238 51.0546 6.32262C50.7681 6.23371 50.4618 6.40166 50.3729 6.69803L49.6814 9.02947Z" fill="#FFBB29"/>
<path d="M48.0019 8.37774C48.0612 8.41726 48.1106 8.44689 48.1798 8.46665C48.4761 8.55556 48.7725 8.38762 48.8614 8.10113L49.5529 5.75981C49.5727 5.6709 49.5826 5.58199 49.5529 5.50296C49.4937 5.46344 49.4443 5.42392 49.3751 5.40417C49.0788 5.31526 48.7824 5.4832 48.6935 5.77957L48.0019 8.11101C47.9822 8.19992 47.9723 8.28883 48.0019 8.37774Z" fill="#FFBB29"/>
<path d="M46.1744 7.57794C46.2336 7.61745 46.283 7.65697 46.3522 7.67673C46.6486 7.76564 46.9449 7.58782 47.0338 7.30132L47.7254 4.96988C47.7451 4.88097 47.755 4.79206 47.7254 4.70315C47.6661 4.66364 47.6167 4.62412 47.5475 4.60436C47.2512 4.51545 46.9548 4.68339 46.8659 4.97976L46.1744 7.3112C46.1546 7.40011 46.1447 7.48903 46.1744 7.57794Z" fill="#FFBB29"/>
</svg>
