<svg width="60" height="76" viewBox="0 0 60 76" fill="none" xmlns="http://www.w3.org/2000/svg">
<path d="M19.08 0.689679C19.08 0.689679 20.44 -1.11032 41.17 1.10968C56.12 2.70968 58.31 5.21968 58.31 5.21968C58.31 5.21968 52.47 11.2297 40.67 8.69968C28.89 6.16968 19.29 4.27968 19.08 0.689679Z" fill="#BE1670"/>
<path d="M23.56 9.72922C23.56 9.72922 15.52 26.1792 13.04 38.5192C10.56 50.8592 3.47999 62.2492 2.36999 63.3192C2.15999 63.5192 4.44999 63.4492 5.94999 65.0492C7.70999 66.9292 7.94999 70.0192 11.57 71.3892C17.38 73.5792 22.83 72.3892 22.83 72.3892C22.83 72.3892 22.84 71.2892 22.96 70.6292C23.08 69.9692 36.03 12.9392 36.03 12.9392C36.03 12.9392 35.22 11.4592 30.16 9.99922C26.49 8.94922 23.56 9.73922 23.56 9.73922V9.72922Z" fill="#E91A89"/>
<path d="M22.96 71.5993L23.42 75.4893C23.44 75.6193 23.34 75.7393 23.21 75.7593C23.08 75.7793 22.96 75.6793 22.94 75.5493L22.48 71.6593C22.46 71.5293 22.56 71.4093 22.69 71.3893C22.82 71.3693 22.94 71.4693 22.96 71.5993Z" fill="#CCA9CA"/>
<path d="M20.45 72.0093L20.57 75.7493C20.57 75.8793 20.47 75.9993 20.34 75.9993C20.21 75.9993 20.09 75.8993 20.09 75.7693L19.97 72.0293C19.97 71.8993 20.07 71.7793 20.2 71.7793C20.33 71.7793 20.45 71.8793 20.45 72.0093Z" fill="#CCA9CA"/>
<path d="M18.05 71.9199L17.76 75.6499C17.75 75.7799 17.63 75.8799 17.5 75.8699C17.37 75.8599 17.27 75.7399 17.28 75.6099L17.57 71.8799C17.58 71.7499 17.7 71.6499 17.83 71.6599C17.96 71.6699 18.06 71.7899 18.05 71.9199Z" fill="#CCA9CA"/>
<path d="M15.78 71.7995L15.05 75.4695C15.02 75.5995 14.9 75.6895 14.77 75.6595C14.64 75.6295 14.55 75.5095 14.58 75.3795L15.31 71.7095C15.34 71.5795 15.46 71.4895 15.59 71.5195C15.72 71.5495 15.81 71.6695 15.78 71.7995Z" fill="#CCA9CA"/>
<path d="M13.31 71.3298L12.2 74.9098C12.16 75.0398 12.03 75.1098 11.9 75.0698C11.77 75.0298 11.7 74.8998 11.74 74.7698L12.85 71.1898C12.89 71.0598 13.02 70.9898 13.15 71.0298C13.28 71.0698 13.35 71.1998 13.31 71.3298Z" fill="#CCA9CA"/>
<path d="M11.08 70.5695L9.21 73.8095C9.14 73.9295 9 73.9695 8.88 73.8995C8.76 73.8295 8.72 73.6895 8.79 73.5695L10.66 70.3295C10.73 70.2095 10.87 70.1695 10.99 70.2395C11.11 70.3095 11.15 70.4495 11.08 70.5695Z" fill="#CCA9CA"/>
<path d="M9.74998 69.2893L6.88998 72.1393C6.79998 72.2293 6.63998 72.2293 6.54998 72.1393C6.45998 72.0493 6.45998 71.8893 6.54998 71.7993L9.40998 68.9493C9.49998 68.8593 9.65998 68.8593 9.74998 68.9493C9.83998 69.0393 9.83998 69.1993 9.74998 69.2893Z" fill="#CCA9CA"/>
<path d="M8.37001 67.6498L5.13001 69.5298C5.01001 69.5998 4.87001 69.5598 4.80001 69.4398C4.73001 69.3198 4.77001 69.1798 4.89001 69.1098L8.13001 67.2298C8.25001 67.1598 8.39001 67.1998 8.46001 67.3198C8.53001 67.4398 8.49001 67.5798 8.37001 67.6498Z" fill="#CCA9CA"/>
<path d="M7.22999 65.4794L3.94999 67.8294C3.83999 67.9094 3.68999 67.8794 3.60999 67.7694C3.52999 67.6594 3.55999 67.5094 3.66999 67.4294L6.94999 65.0794C7.05999 64.9994 7.20999 65.0294 7.28999 65.1394C7.36999 65.2494 7.33999 65.3994 7.22999 65.4794Z" fill="#CCA9CA"/>
<path d="M5.48998 63.8694L2.69998 66.5794C2.59998 66.6694 2.44998 66.6694 2.35998 66.5794C2.26998 66.4894 2.26998 66.3294 2.35998 66.2394L5.14998 63.5294C5.24998 63.4394 5.39998 63.4394 5.48998 63.5294C5.57998 63.6194 5.57998 63.7794 5.48998 63.8694Z" fill="#CCA9CA"/>
<path d="M3.33 62.8896L0.409995 65.9796C0.319995 66.0796 0.169995 66.0796 0.0699951 65.9796C-0.0300049 65.8896 -0.0300049 65.7396 0.0699951 65.6396L2.99 62.5496C3.08 62.4496 3.23 62.4496 3.33 62.5496C3.43 62.6396 3.43 62.7896 3.33 62.8896Z" fill="#CCA9CA"/>
<path d="M22.8 71.8498C22.8 71.8498 19.01 73.1398 12.02 70.8598C11.59 70.7198 11.2 70.5398 10.85 70.3398C9.51998 69.5698 8.75998 68.4298 8.13998 67.3298C7.51998 66.2198 7.02998 65.1498 6.28998 64.4698C5.84998 64.0598 5.42998 63.7698 5.05998 63.5498C4.48998 63.2198 4.00998 63.0798 3.67998 63.0098C3.50998 62.9798 3.37998 62.9598 3.29998 62.9598H3.19998H3.17998C3.04998 62.9598 2.92998 62.8698 2.91998 62.7398C2.91998 62.6098 3.00998 62.4898 3.13998 62.4798C3.17998 62.4798 4.06998 62.4198 5.29998 63.1298C5.70998 63.3698 6.15998 63.6798 6.61998 64.1198C7.45998 64.8998 7.94998 66.0198 8.55998 67.0998C9.16998 68.1798 9.86998 69.2298 11.09 69.9298C11.41 70.1098 11.77 70.2798 12.17 70.4098C15.61 71.5298 18.24 71.7798 20 71.7398C20.88 71.7198 21.55 71.6398 21.99 71.5498C22.21 71.5098 22.38 71.4698 22.48 71.4398L22.6 71.4098H22.63C22.76 71.3598 22.89 71.4198 22.94 71.5498C22.98 71.6798 22.92 71.8098 22.79 71.8598L22.8 71.8498Z" fill="#CCA9CA"/>
<path d="M59.63 14.1395C59.31 15.9995 58.55 17.9695 57.06 19.8695C57 19.9395 56.95 20.0095 56.89 20.0695C51.17 26.7095 25.93 25.5595 18.17 16.7295C15.25 13.3995 14.64 10.3195 15.03 7.76945C15.67 3.48945 19.1 0.689453 19.1 0.689453C19.1 0.689453 27.28 4.42945 39.42 5.65945C39.81 5.69945 40.19 5.73945 40.57 5.77945C41.18 5.82945 41.78 5.87945 42.37 5.91945C52.65 6.62945 58.34 5.22945 58.34 5.22945C58.34 5.22945 60.49 9.28945 59.65 14.1395H59.63Z" fill="#FF2C9D"/>
<g style="mix-blend-mode:screen" opacity="0.48">
<path d="M59.63 14.1397C59.02 11.2397 57.21 8.09973 55.29 8.09973C52.86 8.09973 41.25 7.38973 41.25 7.38973L40.56 5.76973C41.17 5.81973 41.77 5.86973 42.36 5.90973C52.64 6.61973 58.33 5.21973 58.33 5.21973C58.33 5.21973 60.48 9.27973 59.64 14.1297L59.63 14.1397Z" fill="#542652"/>
</g>
<g style="mix-blend-mode:multiply" opacity="0.24">
<path d="M56.88 20.0702C51.16 26.7102 25.92 25.5602 18.16 16.7302C15.24 13.4002 14.63 10.3202 15.02 7.77016C15.33 8.20016 22.69 17.9402 24.78 16.2802C26.92 14.6002 29.18 12.7402 29.18 12.7402L42.36 5.91016C42.36 5.91016 40.12 20.1502 42.36 21.7602C44.58 23.3602 53.75 22.5502 56.88 20.0702Z" fill="#4F3C85"/>
</g>
<path d="M42.36 5.91015L41.01 16.9101V16.9401L35.1 64.9002L35.04 66.0102C35.04 66.0102 32.49 64.2001 27.94 67.6401C23.23 71.2201 12.99 64.5102 12.99 63.3302C12.99 63.3302 13.56 62.9301 13.99 61.8901C15.98 57.0101 21.41 42.1901 22.2 33.7601C23.38 21.2201 29.64 4.03015 29.64 4.03015C29.64 4.03015 29.87 3.94015 30.3 3.83015C31.34 3.55015 33.56 3.13015 36.24 3.61015C41.42 4.52015 42.38 5.91015 42.38 5.91015H42.36Z" fill="#FF4FAD"/>
<path d="M13.31 62.8799L10.97 66.0199C10.89 66.1299 10.91 66.2799 11.02 66.3599C11.13 66.4399 11.28 66.4199 11.36 66.3099L13.7 63.1699C13.78 63.0599 13.76 62.9099 13.65 62.8299C13.54 62.7499 13.39 62.7699 13.31 62.8799Z" fill="white"/>
<path d="M15.27 64.4795L13.29 67.6595C13.22 67.7695 13.25 67.9195 13.37 67.9895C13.48 68.0595 13.63 68.0295 13.7 67.9095L15.68 64.7295C15.75 64.6195 15.72 64.4695 15.6 64.3995C15.49 64.3295 15.34 64.3595 15.27 64.4795Z" fill="white"/>
<path d="M17.39 65.6103L15.78 68.9903C15.72 69.1103 15.78 69.2503 15.89 69.3103C16.01 69.3703 16.15 69.3103 16.21 69.2003L17.82 65.8203C17.88 65.7003 17.82 65.5603 17.71 65.5003C17.59 65.4403 17.45 65.5003 17.39 65.6103Z" fill="white"/>
<path d="M19.43 66.63L18.22 70.18C18.18 70.31 18.24 70.44 18.37 70.49C18.5 70.53 18.63 70.47 18.68 70.34L19.89 66.79C19.93 66.66 19.87 66.53 19.74 66.48C19.61 66.44 19.48 66.5 19.43 66.63Z" fill="white"/>
<path d="M21.8 67.4597L20.97 71.1097C20.94 71.2397 21.02 71.3697 21.15 71.3997C21.28 71.4297 21.41 71.3497 21.44 71.2197L22.27 67.5697C22.3 67.4397 22.22 67.3097 22.09 67.2797C21.96 67.2497 21.83 67.3297 21.8 67.4597Z" fill="white"/>
<path d="M24.11 67.9099V71.6499C24.11 71.7799 24.22 71.8899 24.35 71.8899C24.48 71.8899 24.59 71.7799 24.59 71.6499V67.9099C24.59 67.7799 24.48 67.6699 24.35 67.6699C24.22 67.6699 24.11 67.7799 24.11 67.9099Z" fill="white"/>
<path d="M25.9 67.47L26.96 71.37C27 71.5 27.13 71.57 27.26 71.54C27.39 71.51 27.46 71.37 27.43 71.24L26.37 67.34C26.33 67.21 26.2 67.14 26.07 67.17C25.94 67.2 25.87 67.34 25.9 67.47Z" fill="white"/>
<path d="M27.92 66.7394L29.79 69.9794C29.86 70.0994 30 70.1394 30.12 70.0694C30.24 69.9994 30.28 69.8594 30.21 69.7394L28.34 66.4994C28.27 66.3794 28.13 66.3394 28.01 66.4094C27.89 66.4794 27.85 66.6194 27.92 66.7394Z" fill="white"/>
<path d="M29.99 65.4295L31.66 69.0995C31.72 69.2195 31.86 69.2795 31.98 69.2195C32.1 69.1595 32.16 69.0195 32.1 68.8995L30.43 65.2295C30.37 65.1095 30.23 65.0495 30.11 65.1095C29.99 65.1695 29.93 65.3095 29.99 65.4295Z" fill="white"/>
<path d="M32.3 64.8997L33.37 68.6397C33.41 68.7697 33.54 68.8397 33.67 68.8097C33.8 68.7797 33.87 68.6397 33.84 68.5097L32.77 64.7697C32.73 64.6397 32.6 64.5697 32.47 64.5997C32.34 64.6297 32.27 64.7697 32.3 64.8997Z" fill="white"/>
<path d="M34.66 65.1303L35.65 69.2603C35.68 69.3903 35.81 69.4703 35.94 69.4403C36.07 69.4103 36.15 69.2803 36.12 69.1503L35.13 65.0203C35.1 64.8903 34.97 64.8103 34.84 64.8403C34.71 64.8703 34.63 65.0003 34.66 65.1303Z" fill="white"/>
<path d="M13.32 63.1798C13.32 63.1798 15.96 66.1898 23.15 67.6998C23.6 67.7898 24.02 67.8398 24.42 67.8398C25.95 67.8398 27.18 67.2298 28.27 66.5798C29.36 65.9298 30.32 65.2498 31.3 65.0298C31.88 64.8998 32.39 64.8498 32.83 64.8498C33.49 64.8498 33.98 64.9598 34.3 65.0698C34.46 65.1198 34.58 65.1798 34.66 65.2198L34.74 65.2698H34.76V65.2798C34.87 65.3498 35.02 65.3298 35.1 65.2198C35.17 65.1098 35.15 64.9598 35.04 64.8798C35.01 64.8598 34.27 64.3698 32.84 64.3698C32.37 64.3698 31.82 64.4198 31.2 64.5698C30.08 64.8298 29.1 65.5498 28.03 66.1798C26.96 66.8198 25.83 67.3698 24.43 67.3698C24.06 67.3698 23.67 67.3298 23.26 67.2398C19.72 66.4898 17.32 65.3898 15.81 64.4798C15.06 64.0298 14.52 63.6198 14.18 63.3298C14.01 63.1798 13.89 63.0698 13.81 62.9898L13.72 62.8998L13.7 62.8698C13.61 62.7698 13.46 62.7598 13.36 62.8498C13.26 62.9398 13.25 63.0898 13.34 63.1898L13.32 63.1798Z" fill="white"/>
<path d="M26.87 61.3797L24.75 60.6897L26.02 60.3097C26.14 60.2797 26.2 60.1597 26.19 60.0397C26.21 59.9197 26.14 59.8097 26.02 59.7797L24.75 59.3997L26.87 58.7097C27 58.6697 27.07 58.5297 27.03 58.3997C26.99 58.2697 26.85 58.1997 26.72 58.2397L24.6 58.9297L25.4 57.8697C25.47 57.7697 25.46 57.6397 25.38 57.5597C25.32 57.4597 25.2 57.3997 25.09 57.4397L23.84 57.8797L25.15 56.0797C25.23 55.9697 25.2 55.8197 25.1 55.7397C24.99 55.6597 24.84 55.6897 24.76 55.7897L23.45 57.5897L23.48 56.2597C23.48 56.1397 23.39 56.0397 23.28 56.0197C23.17 55.9697 23.05 55.9997 22.98 56.0997L22.22 57.1897V54.9597C22.22 54.8297 22.11 54.7197 21.98 54.7197C21.85 54.7197 21.74 54.8297 21.74 54.9597V57.1897L20.98 56.0997C20.91 55.9997 20.78 55.9697 20.68 56.0197C20.56 56.0397 20.48 56.1397 20.48 56.2597L20.51 57.5897L19.2 55.7897C19.12 55.6797 18.97 55.6597 18.86 55.7397C18.75 55.8197 18.73 55.9697 18.81 56.0797L20.12 57.8797L18.87 57.4397C18.76 57.3997 18.64 57.4497 18.58 57.5597C18.5 57.6397 18.49 57.7797 18.56 57.8697L19.36 58.9297L17.24 58.2397C17.11 58.1997 16.97 58.2697 16.93 58.3997C16.89 58.5297 16.96 58.6697 17.09 58.7097L19.21 59.3997L17.94 59.7797C17.82 59.8097 17.76 59.9297 17.77 60.0397C17.75 60.1597 17.82 60.2697 17.94 60.2997L19.21 60.6797L17.09 61.3697C16.96 61.4097 16.89 61.5497 16.93 61.6797C16.97 61.8097 17.11 61.8797 17.24 61.8397L19.36 61.1497L18.56 62.2097C18.49 62.3097 18.5 62.4397 18.58 62.5197C18.64 62.6197 18.76 62.6797 18.87 62.6397L20.12 62.1997L18.81 63.9997C18.73 64.1097 18.76 64.2597 18.86 64.3397C18.97 64.4197 19.12 64.3897 19.2 64.2897L20.51 62.4897L20.48 63.8197C20.48 63.9397 20.57 64.0397 20.68 64.0597C20.79 64.1097 20.91 64.0797 20.98 63.9797L21.74 62.8897V65.1197C21.74 65.2497 21.85 65.3597 21.98 65.3597C22.11 65.3597 22.22 65.2497 22.22 65.1197V62.8897L22.98 63.9797C23.05 64.0797 23.18 64.1097 23.28 64.0597C23.4 64.0397 23.48 63.9397 23.48 63.8197L23.45 62.4897L24.76 64.2897C24.84 64.3997 24.99 64.4197 25.1 64.3397C25.21 64.2597 25.23 64.1097 25.15 63.9997L23.84 62.1997L25.09 62.6397C25.2 62.6797 25.32 62.6297 25.38 62.5197C25.46 62.4397 25.47 62.2997 25.4 62.2097L24.6 61.1497L26.72 61.8397C26.85 61.8797 26.99 61.8097 27.03 61.6797C27.07 61.5497 27 61.4097 26.87 61.3697V61.3797ZM25.22 60.0497L23.94 60.4297L22.76 60.0497L23.94 59.6597L25.22 60.0497ZM24.6 58.1397L23.79 59.1997L22.61 59.5897L23.34 58.5797L24.6 58.1397ZM22.97 56.9597L22.94 58.2897L22.21 59.2997V58.0497L22.97 56.9597ZM20.97 56.9597L21.73 58.0597V59.3097L21 58.2997L20.97 56.9697V56.9597ZM19.34 58.1397L20.6 58.5797L21.33 59.5897L20.15 59.1997L19.34 58.1397ZM18.72 60.0497L20 59.6597L21.18 60.0497L20 60.4297L18.72 60.0497ZM19.34 61.9597L20.15 60.8997L21.33 60.5097L20.6 61.5197L19.34 61.9597ZM20.97 63.1397L21 61.8097L21.73 60.7997V62.0497L20.97 63.1497V63.1397ZM22.97 63.1397L22.21 62.0497V60.7997L22.94 61.8097L22.97 63.1397ZM24.6 61.9597L23.34 61.5197L22.61 60.5097L23.79 60.8997L24.6 61.9597Z" fill="white"/>
<path d="M32.79 53.1396L31.66 52.7696L32.34 52.5696C32.4 52.5496 32.44 52.4896 32.43 52.4296C32.43 52.3696 32.4 52.3096 32.34 52.2896L31.66 52.0896L32.79 51.7196C32.86 51.6996 32.9 51.6196 32.87 51.5596C32.85 51.4896 32.77 51.4496 32.71 51.4796L31.58 51.8496L32.01 51.2896C32.05 51.2396 32.04 51.1696 32 51.1196C31.97 51.0696 31.91 51.0396 31.85 51.0596L31.18 51.2896L31.88 50.3296C31.92 50.2696 31.91 50.1896 31.85 50.1496C31.79 50.1096 31.71 50.1196 31.67 50.1796L30.97 51.1396V50.4296C30.99 50.3696 30.94 50.3096 30.88 50.2996C30.82 50.2696 30.76 50.2896 30.72 50.3396L30.32 50.9196V49.7296C30.32 49.6596 30.26 49.5996 30.19 49.5996C30.12 49.5996 30.06 49.6596 30.06 49.7296V50.9196L29.66 50.3396C29.62 50.2896 29.55 50.2696 29.5 50.2996C29.44 50.3096 29.39 50.3596 29.39 50.4296L29.41 51.1396L28.71 50.1796C28.67 50.1196 28.59 50.1096 28.53 50.1496C28.47 50.1896 28.46 50.2696 28.5 50.3296L29.2 51.2896L28.53 51.0596C28.47 51.0396 28.41 51.0596 28.38 51.1196C28.34 51.1696 28.33 51.2296 28.37 51.2896L28.8 51.8496L27.67 51.4796C27.6 51.4596 27.53 51.4996 27.51 51.5596C27.49 51.6296 27.53 51.6996 27.59 51.7196L28.72 52.0896L28.04 52.2896C27.98 52.3096 27.94 52.3696 27.95 52.4296C27.95 52.4896 27.98 52.5496 28.04 52.5696L28.72 52.7696L27.59 53.1396C27.52 53.1596 27.48 53.2396 27.51 53.2996C27.53 53.3696 27.61 53.4096 27.67 53.3796L28.8 53.0096L28.37 53.5696C28.33 53.6196 28.34 53.6896 28.38 53.7396C28.41 53.7896 28.47 53.8196 28.53 53.7996L29.2 53.5696L28.5 54.5296C28.46 54.5896 28.47 54.6696 28.53 54.7096C28.59 54.7496 28.67 54.7396 28.71 54.6796L29.41 53.7196L29.39 54.4296C29.39 54.4896 29.44 54.5496 29.5 54.5596C29.56 54.5896 29.62 54.5696 29.66 54.5196L30.06 53.9396V55.1296C30.06 55.1996 30.12 55.2596 30.19 55.2596C30.26 55.2596 30.32 55.1996 30.32 55.1296V53.9396L30.72 54.5196C30.76 54.5696 30.83 54.5896 30.88 54.5596C30.94 54.5496 30.99 54.4996 30.99 54.4296V53.7196L31.67 54.6796C31.71 54.7396 31.79 54.7496 31.85 54.7096C31.91 54.6696 31.92 54.5896 31.88 54.5296L31.18 53.5696L31.85 53.7996C31.91 53.8196 31.97 53.7996 32 53.7396C32.04 53.6896 32.05 53.6296 32.01 53.5696L31.58 53.0096L32.71 53.3796C32.78 53.3996 32.85 53.3596 32.87 53.2996C32.89 53.2296 32.85 53.1596 32.79 53.1396ZM31.91 52.4296L31.23 52.6396L30.6 52.4296L31.23 52.2196L31.91 52.4296ZM31.58 51.4096L31.15 51.9796L30.52 52.1896L30.91 51.6496L31.58 51.4196V51.4096ZM30.72 50.7796L30.7 51.4896L30.31 52.0296V51.3696L30.72 50.7896V50.7796ZM29.65 50.7796L30.06 51.3596V52.0196L29.67 51.4796L29.65 50.7696V50.7796ZM28.78 51.4096L29.45 51.6396L29.84 52.1796L29.21 51.9696L28.78 51.3996V51.4096ZM28.45 52.4296L29.13 52.2196L29.76 52.4296L29.13 52.6396L28.45 52.4296ZM28.78 53.4396L29.21 52.8696L29.84 52.6596L29.45 53.1996L28.78 53.4296V53.4396ZM29.65 54.0696L29.67 53.3596L30.06 52.8196V53.4796L29.65 54.0596V54.0696ZM30.72 54.0696L30.31 53.4896V52.8296L30.7 53.3696L30.72 54.0796V54.0696ZM31.58 53.4396L30.91 53.2096L30.52 52.6696L31.15 52.8796L31.58 53.4496V53.4396Z" fill="white"/>
<path d="M33.83 60.57L33.09 60.33L33.54 60.2C33.54 60.2 33.6 60.15 33.6 60.11C33.6 60.07 33.58 60.03 33.54 60.02L33.09 59.89L33.83 59.65C33.83 59.65 33.9 59.59 33.88 59.54C33.87 59.5 33.82 59.47 33.77 59.49L33.03 59.73L33.31 59.36C33.31 59.36 33.33 59.28 33.31 59.25C33.29 59.21 33.25 59.2 33.21 59.21L32.77 59.36L33.23 58.73C33.23 58.73 33.25 58.64 33.21 58.61C33.17 58.58 33.12 58.59 33.09 58.63L32.63 59.26V58.79C32.63 58.79 32.61 58.71 32.57 58.71C32.53 58.69 32.49 58.71 32.46 58.74L32.19 59.12V58.34C32.19 58.34 32.15 58.25 32.1 58.25C32.05 58.25 32.01 58.29 32.01 58.34V59.12L31.74 58.74C31.74 58.74 31.67 58.7 31.63 58.71C31.59 58.71 31.56 58.75 31.56 58.79V59.26L31.11 58.63C31.08 58.59 31.03 58.58 30.99 58.61C30.95 58.64 30.94 58.69 30.97 58.73L31.43 59.36L30.99 59.21C30.99 59.21 30.91 59.21 30.89 59.25C30.86 59.28 30.86 59.33 30.89 59.36L31.17 59.73L30.43 59.49C30.43 59.49 30.34 59.49 30.32 59.54C30.31 59.58 30.32 59.63 30.37 59.65L31.11 59.89L30.66 60.02C30.66 60.02 30.6 60.07 30.6 60.11C30.6 60.15 30.62 60.19 30.66 60.2L31.11 60.33L30.37 60.57C30.37 60.57 30.3 60.63 30.32 60.68C30.33 60.72 30.38 60.75 30.43 60.73L31.17 60.49L30.89 60.86C30.89 60.86 30.87 60.94 30.89 60.97C30.91 61.01 30.95 61.02 30.99 61.01L31.43 60.86L30.97 61.49C30.97 61.49 30.95 61.58 30.99 61.61C31.03 61.64 31.08 61.63 31.11 61.59L31.57 60.96V61.43C31.57 61.43 31.59 61.51 31.63 61.51C31.67 61.53 31.71 61.51 31.74 61.48L32.01 61.1V61.88C32.01 61.88 32.05 61.97 32.1 61.97C32.15 61.97 32.19 61.93 32.19 61.88V61.1L32.46 61.48C32.46 61.48 32.53 61.52 32.57 61.51C32.61 61.51 32.64 61.47 32.64 61.43V60.96L33.09 61.59C33.12 61.63 33.17 61.64 33.21 61.61C33.25 61.58 33.26 61.53 33.23 61.49L32.77 60.86L33.21 61.01C33.21 61.01 33.29 61.01 33.31 60.97C33.34 60.94 33.34 60.89 33.31 60.86L33.03 60.49L33.77 60.73C33.77 60.73 33.86 60.73 33.88 60.68C33.89 60.64 33.88 60.59 33.83 60.57ZM33.25 60.1L32.8 60.23L32.39 60.1L32.8 59.97L33.25 60.1ZM33.03 59.44L32.75 59.81L32.34 59.94L32.6 59.59L33.04 59.44H33.03ZM32.47 59.02V59.49L32.2 59.84V59.4L32.47 59.02ZM31.76 59.02L32.03 59.4V59.84L31.77 59.49V59.02H31.76ZM31.19 59.44L31.63 59.59L31.89 59.94L31.48 59.81L31.2 59.44H31.19ZM30.98 60.1L31.43 59.97L31.84 60.1L31.43 60.23L30.98 60.1ZM31.19 60.77L31.47 60.4L31.88 60.27L31.62 60.62L31.18 60.77H31.19ZM31.76 61.19V60.72L32.03 60.37V60.81L31.76 61.19ZM32.47 61.19L32.2 60.81V60.37L32.46 60.72V61.19H32.47ZM33.03 60.77L32.59 60.62L32.33 60.27L32.74 60.4L33.02 60.77H33.03Z" fill="white"/>
<g style="mix-blend-mode:screen" opacity="0.48">
<path d="M42.36 5.90979L41.01 16.9098V16.9398C41.01 16.9398 40.11 8.58979 38.47 6.10979C36.82 3.63979 30.28 3.83979 30.28 3.83979C31.32 3.54979 33.54 3.12979 36.22 3.60979C41.4 4.51979 42.36 5.90979 42.36 5.90979Z" fill="#FF74F8"/>
</g>
</svg>
