<svg width="73" height="70" viewBox="0 0 73 70" fill="none" xmlns="http://www.w3.org/2000/svg">
<path d="M10.2347 69.3668C10.2439 69.551 10.1242 69.6983 9.94008 69.7259C9.76514 69.7443 9.6086 69.6154 9.58098 69.4405L9.26793 66.4389L9.21269 65.9141C9.20348 65.7759 9.27714 65.647 9.39683 65.5918C9.43366 65.5734 9.46129 65.5642 9.49812 65.555C9.68226 65.5366 9.82958 65.6655 9.8572 65.8496L9.87562 66.043L9.94928 66.7059L10.2347 69.3761V69.3668Z" fill="#FFAE00"/>
<path d="M11.5239 69.3124C11.5607 69.4874 11.441 69.6531 11.2661 69.6807C11.0819 69.7175 10.9162 69.5978 10.8886 69.4229L10.419 66.7804L10.2993 66.1451C10.2993 66.1451 10.2993 66.0622 10.2993 66.0254C10.3177 65.9057 10.4282 65.7952 10.5571 65.7768H10.5755C10.7413 65.7584 10.8978 65.878 10.9346 66.0438L11.0819 66.8817L11.5055 69.3216L11.5239 69.3124Z" fill="#FFAE00"/>
<path d="M12.3986 69.3486C12.3986 69.5327 12.2604 69.68 12.0855 69.68C11.9014 69.68 11.754 69.5511 11.754 69.367L11.662 66.927L11.6436 66.393C11.6436 66.2181 11.7725 66.0707 11.9566 66.0615C12.0026 66.0615 12.0579 66.0615 12.0947 66.0891C12.0947 66.0891 12.1039 66.0891 12.1131 66.0984C12.15 66.1076 12.1868 66.1352 12.2144 66.172C12.2604 66.2273 12.2881 66.2917 12.2881 66.3654L12.3157 66.9915L12.3986 69.3302V69.3486Z" fill="#FFAE00"/>
<path d="M13.531 69.4501C13.5494 69.625 13.4205 69.7815 13.2456 69.8092C13.0614 69.8276 12.9141 69.6987 12.8865 69.5237L12.6195 67.0377L12.5458 66.3472C12.5366 66.2735 12.5458 66.2091 12.5826 66.1538C12.6287 66.0709 12.7208 66.0065 12.8312 65.9881C13.0062 65.9697 13.1627 66.0986 13.1903 66.2735L13.2824 67.0746L13.3561 67.7191L13.5402 69.4501H13.531Z" fill="#FFAE00"/>
<path d="M14.3965 69.4967V69.552C14.3873 69.7085 14.2676 69.8374 14.1018 69.8466C13.9269 69.865 13.7704 69.7361 13.752 69.5612L13.6231 68.2722L13.5034 67.0936L13.4573 66.6148C13.4389 66.4399 13.5678 66.2834 13.752 66.2649C13.9269 66.2465 14.0834 66.3754 14.111 66.5504L14.1663 67.112L14.3965 69.5059V69.4967Z" fill="#FFAE00"/>
<path d="M14.5346 66.5496L14.8017 69.3762C14.8201 69.5512 14.9766 69.6801 15.1515 69.6709C15.3265 69.6617 15.4554 69.4959 15.4462 69.321L15.1792 66.4943C15.1607 66.3194 15.0042 66.1905 14.8293 66.1997C14.6543 66.2089 14.5254 66.3746 14.5346 66.5496Z" fill="#FFAE00"/>
<path d="M15.2987 66.4117L15.6669 69.3212C15.6854 69.4961 15.8511 69.625 16.026 69.5974C16.201 69.579 16.3299 69.4133 16.3023 69.2383L15.934 66.3288C15.9156 66.1538 15.7498 66.0249 15.5749 66.0526C15.3999 66.071 15.271 66.2367 15.2987 66.4117Z" fill="#FFAE00"/>
<path d="M16.0632 66.3743L16.7446 69.5968C16.7814 69.7718 16.9564 69.8823 17.1313 69.8455C17.3062 69.8086 17.4167 69.6337 17.3799 69.4587L16.6985 66.2361C16.6617 66.0612 16.4868 65.9507 16.3118 65.9875C16.1369 66.0244 16.0264 66.1993 16.0632 66.3743Z" fill="#FFAE00"/>
<path d="M16.9836 66.3743L17.711 69.7442C17.7478 69.9191 17.9228 70.0296 18.0977 69.9928C18.2727 69.9559 18.3832 69.781 18.3463 69.6061L17.619 66.2361C17.5821 66.0612 17.4072 65.9507 17.2322 65.9875C17.0573 66.0244 16.9468 66.1993 16.9836 66.3743Z" fill="#FFAE00"/>
<path d="M17.7941 66.1994L18.5491 69.3207C18.5952 69.4957 18.7701 69.5969 18.9359 69.5601C19.1108 69.5141 19.2121 69.3391 19.1753 69.1734L18.4202 66.0521C18.3742 65.8772 18.1993 65.7759 18.0335 65.8127C17.8586 65.8587 17.7573 66.0337 17.7941 66.1994Z" fill="#FFAE00"/>
<path d="M20.1418 68.8332C20.151 68.8884 20.151 68.9529 20.1418 68.9989C20.1142 69.1002 20.0313 69.1922 19.9208 69.2291C19.7459 69.2751 19.5709 69.1738 19.5249 68.9989L18.8435 66.4945L18.7054 65.9973C18.6594 65.8223 18.7607 65.6474 18.9356 65.6014C19.0369 65.5737 19.129 65.6013 19.2026 65.6474C19.2579 65.6842 19.3039 65.7487 19.3315 65.8315L19.4604 66.3011L20.1418 68.8332Z" fill="#FFAE00"/>
<path d="M20.7035 69.0263C20.5286 69.0631 20.3537 68.9526 20.3168 68.7777L19.7552 66.1904L19.6355 65.6379C19.5987 65.463 19.7091 65.288 19.8841 65.2512C20.059 65.2144 20.234 65.3249 20.2708 65.4998L20.3721 65.951L20.9614 68.6395C20.9982 68.8145 20.8877 68.9894 20.7128 69.0263H20.7035Z" fill="#FFAE00"/>
<path d="M21.7532 68.17C21.7809 68.345 21.652 68.5015 21.4862 68.5291C21.3021 68.5568 21.1456 68.4278 21.1179 68.2529L20.7865 65.7853L20.7128 65.2237C20.6944 65.0487 20.8141 64.883 20.989 64.8646C21.1732 64.837 21.3297 64.9659 21.3573 65.1408L21.4126 65.5275L21.7717 68.17H21.7532Z" fill="#FFAE00"/>
<path d="M22.6003 67.9035C22.6188 68.0785 22.4898 68.235 22.3057 68.2534C22.1308 68.2718 21.9742 68.1429 21.9558 67.9588L21.7072 65.3899L21.6428 64.7086C21.6243 64.5336 21.7625 64.3771 21.9374 64.3587C22.1216 64.3403 22.2689 64.4692 22.2965 64.6533L22.3425 65.1505L22.6003 67.9035Z" fill="#FFAE00"/>
<path d="M23.5487 67.7652C23.5764 67.9401 23.4474 68.0967 23.2725 68.1243C23.0884 68.1427 22.9318 68.023 22.9134 67.8389L22.5543 65.0674L22.5175 64.736C22.4991 64.561 22.6188 64.4045 22.8029 64.3769C22.9779 64.3584 23.1344 64.4781 23.162 64.6623L23.1896 64.8649L23.5579 67.7652H23.5487Z" fill="#FFAE00"/>
<path d="M24.4325 67.5448C24.4693 67.7198 24.3496 67.8947 24.1747 67.9223C23.9997 67.9592 23.834 67.8487 23.7972 67.6645L23.2724 64.847L23.2171 64.5248C23.1803 64.3406 23.3 64.1749 23.4749 64.1473C23.6591 64.1105 23.8248 64.2302 23.8524 64.4143L23.9077 64.6997L24.4325 67.554V67.5448Z" fill="#FFAE00"/>
<path d="M25.3626 67.5447C25.3902 67.7196 25.2705 67.8854 25.0956 67.9222C24.9206 67.9498 24.7549 67.8301 24.7181 67.6552L24.1933 64.6167L24.138 64.2853C24.1012 64.1103 24.2209 63.9446 24.3958 63.9078C24.58 63.8802 24.7365 63.9998 24.7733 64.1748L24.8286 64.5247L25.3626 67.5447Z" fill="#FFAE00"/>
<path d="M26.4676 67.4245C26.5044 67.5994 26.3847 67.7744 26.2098 67.802C26.0348 67.8388 25.8691 67.7283 25.8323 67.5534L25.2338 64.4873L25.1785 64.1835C25.1417 64.0086 25.2614 63.8428 25.4364 63.806C25.6113 63.7692 25.777 63.8889 25.8139 64.0638L25.8875 64.4597L26.4676 67.4245Z" fill="#FFAE00"/>
<path d="M27.3698 67.4984C27.4067 67.6733 27.2962 67.8482 27.1212 67.8759C26.9463 67.9127 26.7714 67.8022 26.7437 67.6273L26.09 64.4599L26.0164 64.1008C25.9795 63.9167 26.09 63.7417 26.265 63.7141C26.4399 63.6773 26.6056 63.7878 26.6425 63.9627L26.7437 64.4691L26.8634 65.0584L27.3606 67.4984H27.3698Z" fill="#FFAE00"/>
<path d="M28.456 67.8848C28.2811 67.9309 28.1061 67.8204 28.0693 67.6454L27.6642 65.9237L27.3235 64.5057L27.2038 64.0085C27.1578 63.8336 27.2683 63.6586 27.4432 63.6218C27.6089 63.5758 27.7839 63.6863 27.8299 63.8612L27.9957 64.5794L28.5573 66.9181L28.6954 67.4981C28.7323 67.6731 28.631 67.848 28.456 67.8848Z" fill="#FFAE00"/>
<path d="M28.355 64.0361L29.331 67.4613C29.3771 67.6362 29.5612 67.7283 29.7269 67.6823C29.9019 67.6362 29.994 67.4521 29.9479 67.2863L28.9719 63.8612C28.9259 63.6862 28.7417 63.5942 28.576 63.6402C28.4011 63.6862 28.309 63.8704 28.355 64.0361Z" fill="#FFAE00"/>
<path d="M53.8318 62.388L53.0676 58.926C53.0308 58.7511 53.1413 58.5761 53.3162 58.5393C53.4912 58.5025 53.6661 58.613 53.7029 58.7879L54.4671 62.2499C54.504 62.4248 54.3935 62.5998 54.2186 62.6366C54.0436 62.6734 53.8687 62.5629 53.8318 62.388Z" fill="#FFAE00"/>
<path d="M55.6457 61.9375C55.6457 61.9375 55.5721 62.0019 55.526 62.0111C55.3603 62.0664 55.1761 61.9743 55.1209 61.8086L54.0068 58.678C53.9515 58.5031 54.0436 58.319 54.2093 58.2637C54.329 58.2177 54.4579 58.2545 54.5408 58.3374C54.5408 58.3466 54.5592 58.3558 54.5684 58.365C54.5869 58.3926 54.6053 58.4202 54.6145 58.4571L55.7286 61.5968C55.7654 61.7165 55.7286 61.8454 55.6457 61.9283V61.9375Z" fill="#FFAE00"/>
<path d="M56.2535 61.1452C56.0878 61.2005 55.9037 61.0992 55.8576 60.9243L55.0197 58.0792C54.9645 57.9134 55.075 57.7293 55.2407 57.6832C55.296 57.6648 55.3512 57.6648 55.4065 57.6832C55.4341 57.6832 55.4617 57.6925 55.4801 57.7201C55.5354 57.7385 55.5814 57.7753 55.609 57.8398C55.6182 57.8582 55.6366 57.8858 55.6459 57.9134L56.4837 60.7585C56.539 60.9335 56.4377 61.1176 56.2627 61.1544L56.2535 61.1452Z" fill="#FFAE00"/>
<path d="M57.0084 60.8775C56.8334 60.9143 56.6677 60.8038 56.6309 60.6289L55.9956 57.6917L55.9587 57.5076C55.9219 57.3326 56.0324 57.1577 56.2073 57.1208C56.3823 57.084 56.548 57.1945 56.5848 57.3694L56.6217 57.5076L57.257 60.4908C57.2938 60.6657 57.1833 60.8406 57.0084 60.8775Z" fill="#FFAE00"/>
<path d="M57.9386 60.4269C57.7636 60.4637 57.5887 60.3532 57.5519 60.1783L56.9258 57.4345L56.8889 57.2964C56.8521 57.1306 56.9442 56.9649 57.1099 56.9189C57.1099 56.9189 57.1283 56.9097 57.1375 56.9097C57.1651 56.9097 57.1836 56.9097 57.2112 56.9097C57.3585 56.9097 57.4966 57.0109 57.5242 57.1583L57.5611 57.3056L58.1872 60.0402C58.224 60.2151 58.1135 60.3901 57.9386 60.4269Z" fill="#FFAE00"/>
<path d="M58.804 60.0779C58.6291 60.1147 58.4541 60.0042 58.4173 59.8293L57.8188 57.242L57.782 57.0578C57.7451 56.8829 57.8556 56.708 58.0306 56.6711C58.2055 56.6343 58.3713 56.7448 58.4173 56.9197L58.4725 57.1315L59.0618 59.682C59.0986 59.8477 58.9881 60.0226 58.8132 60.0687L58.804 60.0779Z" fill="#FFAE00"/>
<path d="M59.6234 60.0772C59.4485 60.114 59.2827 60.0035 59.2459 59.8286L58.7119 57.1124L58.675 56.9559C58.6382 56.7809 58.7487 56.606 58.9236 56.5783C59.0986 56.5415 59.2643 56.652 59.3011 56.8362L59.338 57.0111L59.872 59.7089C59.9088 59.8838 59.7983 60.0495 59.6234 60.0864V60.0772Z" fill="#FFAE00"/>
<path d="M60.498 60.05C60.3322 60.0868 60.1573 59.9763 60.1205 59.8014L59.4759 56.9747L59.3839 56.588C59.3563 56.4959 59.3839 56.4038 59.4391 56.3302C59.4391 56.3118 59.4575 56.2933 59.4759 56.2841C59.5128 56.2473 59.5496 56.2197 59.5957 56.2105C59.5957 56.2105 59.6141 56.2013 59.6233 56.2013C59.6325 56.2013 59.6509 56.2013 59.6601 56.2013C59.8258 56.1921 59.9732 56.2933 60.01 56.4499L60.1021 56.855L60.7466 59.654C60.7834 59.829 60.6729 60.0039 60.498 60.0408V60.05Z" fill="#FFAE00"/>
<path d="M61.5294 59.4414C61.5662 59.6072 61.4557 59.7821 61.2808 59.8189C61.1058 59.8558 60.9401 59.7453 60.9033 59.5703L60.2956 56.8081L60.1575 56.1912C60.1206 56.0163 60.2311 55.8505 60.4061 55.8137C60.581 55.7769 60.756 55.8874 60.7928 56.0623L60.9217 56.6424L61.5386 59.4322L61.5294 59.4414Z" fill="#FFAE00"/>
<path d="M62.4866 59.1104C62.5235 59.2393 62.4774 59.3774 62.3762 59.4511C62.3393 59.4787 62.3025 59.4971 62.2657 59.5063C62.0907 59.5524 61.9066 59.4511 61.8697 59.2761L61.124 56.5784L61.0135 56.1824C60.995 56.118 61.0043 56.0443 61.0227 55.9799C61.0503 55.8786 61.1239 55.8049 61.2344 55.7773C61.2344 55.7773 61.2528 55.7773 61.2621 55.7773C61.4278 55.7497 61.5843 55.8418 61.6211 56.0075L61.7316 56.4034L62.4774 59.1012L62.4866 59.1104Z" fill="#FFAE00"/>
<path d="M62.6799 59.0188L61.9709 55.9987C61.9341 55.8238 62.0354 55.6488 62.2103 55.612C62.3852 55.5752 62.5602 55.6765 62.597 55.8514L63.306 58.8714C63.3428 59.0464 63.2415 59.2213 63.0666 59.2582C62.8916 59.295 62.7167 59.1937 62.6799 59.0188Z" fill="#FFAE00"/>
<path d="M63.5919 58.8065L62.8737 55.676C62.8369 55.501 62.9382 55.3261 63.1131 55.2893C63.2881 55.2524 63.463 55.3537 63.4998 55.5287L64.218 58.6592C64.2549 58.8341 64.1536 59.0091 63.9786 59.0459C63.8037 59.0827 63.6287 58.9814 63.5919 58.8065Z" fill="#FFAE00"/>
<path d="M64.4296 58.4468L63.8587 55.4452C63.8219 55.2703 63.9416 55.1045 64.1165 55.0677C64.2915 55.0309 64.4572 55.1506 64.494 55.3255L65.0649 58.3271C65.1017 58.5021 64.982 58.6678 64.8071 58.7046C64.6321 58.7415 64.4664 58.6218 64.4296 58.4468Z" fill="#FFAE00"/>
<path d="M65.8661 58.7975C65.6912 58.8343 65.5254 58.7238 65.4794 58.5489L64.8993 56.026C64.8993 56.026 64.8993 55.9892 64.8901 55.9708L64.8349 55.713L64.7612 55.3723C64.7612 55.3723 64.7612 55.3171 64.7612 55.2894C64.7612 55.1513 64.8625 55.0224 65.0098 54.9856C65.1848 54.9488 65.3597 55.0593 65.3965 55.2342L65.4794 55.5933L66.1331 58.42C66.17 58.5857 66.0595 58.7606 65.8845 58.8067L65.8661 58.7975Z" fill="#FFAE00"/>
<path d="M66.5655 58.3555C66.3906 58.3923 66.2156 58.2819 66.188 58.1069L65.6816 55.538L65.5803 55.0316C65.5435 54.8567 65.654 54.691 65.8289 54.6541C66.0039 54.6173 66.1696 54.737 66.2064 54.9119L66.3077 55.3907L66.8141 57.978C66.8509 58.1622 66.7405 58.3279 66.5655 58.3555Z" fill="#FFAE00"/>
<path d="M67.5693 58.0051C67.5969 58.1892 67.468 58.3457 67.2931 58.3734C67.1181 58.401 66.9616 58.2721 66.934 58.0971L66.5473 55.3349L66.492 54.939C66.4644 54.7641 66.5933 54.6075 66.759 54.5799C66.934 54.5523 67.0997 54.6812 67.1273 54.8469L67.1734 55.1508L67.5693 58.0143V58.0051Z" fill="#FFAE00"/>
<path d="M68.5637 57.9131C68.6005 58.088 68.4717 58.2445 68.2967 58.2814C68.1218 58.309 67.9652 58.1801 67.9376 58.0143L67.4956 55.0403L67.4312 54.6352C67.4036 54.4603 67.5233 54.2945 67.6982 54.2669C67.8731 54.2393 68.0297 54.3682 68.0665 54.5339L68.1033 54.7917L68.5729 57.9131H68.5637Z" fill="#FFAE00"/>
<path d="M69.3738 57.6283C69.1988 57.6652 69.0239 57.5639 68.9779 57.3889L68.2965 54.6912L68.14 54.0651C68.094 53.8901 68.1952 53.7152 68.3702 53.6691C68.5451 53.6323 68.7201 53.7336 68.7661 53.9085L68.8858 54.3965L69.5948 57.2324C69.6408 57.4074 69.5395 57.5823 69.3646 57.6283H69.3738Z" fill="#FFAE00"/>
<path d="M70.2576 57.4251C70.0826 57.4711 69.9077 57.3698 69.8616 57.1949L69.1158 54.2853L68.9593 53.6961C68.9133 53.5211 69.0146 53.3462 69.1895 53.3002C69.3645 53.2541 69.5394 53.3554 69.5854 53.5303L69.6867 53.9355L70.4877 57.0199C70.5338 57.1857 70.4325 57.3698 70.2576 57.4159V57.4251Z" fill="#FFAE00"/>
<path d="M71.2152 57.1679C71.0495 57.2139 70.8653 57.1126 70.8193 56.9377L69.917 53.8072L69.7881 53.3468C69.7328 53.1719 69.8341 52.9969 70.009 52.9509C70.1748 52.8956 70.3589 53.0061 70.4049 53.1719L70.4786 53.4297L71.427 56.772C71.4822 56.9377 71.3809 57.1219 71.206 57.1679H71.2152Z" fill="#FFAE00"/>
<path d="M72.2651 56.6243C72.0994 56.6887 71.9152 56.6151 71.8416 56.4401L70.5802 53.3556L70.4973 53.1439C70.4328 52.9781 70.5065 52.794 70.6722 52.7203C70.838 52.6559 71.0313 52.7295 71.0958 52.9045L72.4309 56.2007C72.4953 56.3664 72.4216 56.5598 72.2467 56.6243H72.2651Z" fill="#FFAE00"/>
<path d="M71.105 52.9132C71.105 52.9684 71.0866 52.996 71.059 53.0144C70.8932 53.1341 70.7367 53.2446 70.5802 53.3459C70.5433 53.3735 70.5065 53.4012 70.4789 53.4196C70.2763 53.5577 70.0922 53.6866 69.908 53.7971C69.8344 53.8431 69.7515 53.8984 69.6778 53.9352C69.4753 54.0641 69.2819 54.1746 69.107 54.2759C69.0333 54.3219 68.9689 54.3587 68.8952 54.3956C68.6926 54.506 68.4993 54.6073 68.2967 54.6902C68.2231 54.727 68.1586 54.7546 68.0942 54.7915C67.8916 54.8836 67.6798 54.9572 67.4773 55.0401C67.376 55.0769 67.2655 55.1137 67.1642 55.1414C66.9616 55.215 66.7499 55.2703 66.5381 55.3255C66.4645 55.3439 66.3816 55.3623 66.3079 55.3808C66.1054 55.436 65.8936 55.482 65.6726 55.5281C65.599 55.5373 65.5345 55.5557 65.4608 55.5741C65.2583 55.6109 65.0557 55.6478 64.8347 55.703C64.7611 55.7122 64.669 55.7306 64.5861 55.749C64.3836 55.7859 64.1718 55.8319 63.9508 55.878C63.8311 55.9056 63.7206 55.9332 63.5917 55.9516C63.3892 55.9977 63.1866 56.0437 62.9656 56.0897C62.8736 56.1173 62.7815 56.1358 62.671 56.1634C62.4684 56.2094 62.2659 56.2647 62.0449 56.3199C61.9436 56.3475 61.8423 56.3752 61.741 56.3936C61.5845 56.4396 61.428 56.4856 61.2715 56.5317C61.2162 56.5409 61.1702 56.5593 61.1241 56.5777C61.0505 56.5961 60.986 56.6145 60.9124 56.633C60.8755 56.6422 60.8387 56.6514 60.8019 56.6698C60.6361 56.725 60.4612 56.7619 60.2863 56.8079C60.231 56.8171 60.1666 56.8355 60.1021 56.8447C59.8996 56.8908 59.6878 56.9276 59.476 56.9644C59.43 56.9644 59.3839 56.9736 59.3471 56.9828C59.1445 57.0197 58.9236 57.0565 58.7118 57.0841C58.6381 57.0933 58.5461 57.1117 58.4632 57.121C58.2514 57.1578 58.0397 57.1946 57.8187 57.2314C57.7266 57.2499 57.6345 57.2683 57.5517 57.2867C57.3399 57.3235 57.1281 57.3696 56.9164 57.4248C56.8151 57.4432 56.7138 57.4708 56.6217 57.4985C56.4192 57.5537 56.1982 57.6089 55.9956 57.6826L55.6089 57.8207C55.4155 57.8944 55.213 57.9865 55.0196 58.0693C54.8631 58.143 54.7066 58.2351 54.5593 58.3179C54.5593 58.3179 54.55 58.3179 54.5408 58.3179C54.3567 58.4192 54.1817 58.5389 54.0068 58.6586C53.9055 58.7323 53.8135 58.7967 53.7122 58.8796C53.5464 58.9993 53.3991 59.1374 53.2426 59.2847C53.215 59.3123 53.1874 59.3215 53.1505 59.3215C51.8431 59.4873 45.7201 42.7482 43.7866 34.5628C41.8899 26.5708 36.0984 17.5107 35.5552 16.6912C35.5459 16.6728 35.5275 16.6452 35.5183 16.6267C26.4122 5.05303 20.7312 6.81165 15.6303 8.12831C7.30681 10.292 8.15389 15.3469 8.69713 17.0595C8.71554 17.1055 8.73395 17.1608 8.75237 17.1976C8.79841 17.2989 8.84444 17.4094 8.88127 17.5199C8.89969 17.5659 8.91811 17.5935 8.91811 17.6211C8.91811 17.6211 8.91811 17.6211 8.91811 17.6304C8.91811 17.6304 18.3281 37.4539 25.6111 55.2795C27.3237 59.4596 29.9478 63.9252 29.1744 64.5882C29.0916 64.6618 28.9534 64.6894 28.7693 64.6618C28.6864 64.6526 28.5944 64.6342 28.5115 64.625C28.3273 64.5882 28.1524 64.5697 27.9775 64.5513C27.7473 64.5145 27.5171 64.4961 27.2961 64.4777C27.1027 64.4593 26.9186 64.4408 26.7252 64.4408C26.5871 64.4408 26.449 64.4408 26.3109 64.4408C26.228 64.4408 26.1452 64.4408 26.0623 64.4408C25.9979 64.4408 25.9334 64.4408 25.8689 64.4408C25.6388 64.4408 25.4178 64.4501 25.206 64.4777C25.0679 64.4777 24.939 64.4961 24.8101 64.5145C24.5891 64.5421 24.3866 64.5697 24.1748 64.6066C24.0735 64.625 23.9814 64.6434 23.8802 64.671C23.6592 64.7171 23.4474 64.7723 23.2448 64.8276C23.208 64.8276 23.1804 64.846 23.1436 64.8552C22.9318 64.9196 22.72 64.9841 22.5175 65.0577C22.4438 65.0762 22.3793 65.1038 22.3057 65.1314C22.0939 65.2051 21.8821 65.2879 21.6796 65.3708C21.5783 65.4168 21.4678 65.4629 21.3665 65.5089C21.164 65.5918 20.9522 65.6746 20.7496 65.7667C20.6115 65.822 20.4826 65.8864 20.3353 65.9324C20.1419 66.0153 19.9394 66.0982 19.7276 66.1718C19.6263 66.2087 19.5343 66.2455 19.433 66.2823C19.4146 66.2823 19.3961 66.2915 19.3777 66.3007C19.1936 66.3652 19.0094 66.4296 18.8161 66.4849C18.724 66.5217 18.6319 66.5401 18.5399 66.577C18.3373 66.6322 18.1255 66.6874 17.9045 66.7335C17.8401 66.7519 17.7756 66.7703 17.7112 66.7795C17.5086 66.8256 17.2969 66.8624 17.0759 66.8992C16.993 66.9084 16.9101 66.9268 16.8181 66.9361C16.6155 66.9729 16.3945 66.9913 16.1828 67.0097C16.1275 67.0097 16.0631 67.0189 16.0078 67.0281C15.8053 67.0465 15.5843 67.065 15.3633 67.065C15.3173 67.065 15.2712 67.065 15.2252 67.065C15.0226 67.0742 14.8016 67.0834 14.5715 67.0834C14.4334 67.0834 14.2952 67.0834 14.1479 67.0834C13.9454 67.0834 13.7244 67.0834 13.4942 67.065C13.4205 67.065 13.3377 67.065 13.2548 67.0558C13.1719 67.0558 13.0891 67.0557 12.997 67.0465C12.8681 67.0465 12.7484 67.0373 12.6103 67.0189C12.509 67.0189 12.4077 67.0005 12.3064 66.9913C12.0947 66.9729 11.8737 66.9453 11.6527 66.9176C11.4686 66.8992 11.2752 66.8808 11.0911 66.844C10.8701 66.8164 10.6491 66.7887 10.4189 66.7519C10.2624 66.7243 10.1059 66.7059 9.94013 66.6782C9.86647 66.6782 9.80201 66.6598 9.72835 66.6414C9.56262 66.6138 9.4153 66.5401 9.26798 66.4112C7.48174 64.8183 7.05821 55.7951 5.27197 45.2894V45.2618C4.90367 43.0889 4.47092 40.8515 3.96452 38.5956C1.24833 26.5892 -0.0959563 20.9266 0.00532528 15.0891C0.088192 10.467 3.35683 6.41573 6.62546 4.18753C7.93291 3.30362 16.2564 -2.61674 26.2373 1.36086C27.692 1.93172 29.1744 2.72356 30.6752 3.76399C30.6844 3.7732 30.7028 3.79162 30.7121 3.80082C31.9735 4.67553 33.2533 5.73438 34.5239 6.9958C34.5239 6.9958 34.5423 7.01421 34.5515 7.02342C37.9767 10.4117 41.0612 13.2845 43.9155 15.9546C48.7678 20.4939 52.9295 24.4254 56.8703 29.2777C58.0857 30.7785 59.2827 32.3714 60.4704 34.0932C65.1386 40.8515 71.2339 51.6241 71.0958 52.8855L71.105 52.9132Z" fill="#FFD829"/>
<g style="mix-blend-mode:multiply">
<path d="M8.771 17.2349C8.82626 17.373 8.89073 17.5112 8.93678 17.6585C8.91836 17.6125 8.85389 17.4743 8.771 17.2349Z" fill="#E8E5D1"/>
</g>
<g style="mix-blend-mode:multiply">
<path d="M35.5369 16.6458C26.4308 5.0721 20.7498 6.83071 15.6489 8.14737C7.32544 10.3111 8.17252 15.366 8.71576 17.0786C5.67731 9.39958 3.76216 6.00205 9.93113 3.14775C16.6986 0.0172288 24.0737 -2.91073 35.5277 16.6458H35.5369Z" fill="#E8E5D1"/>
</g>
<path d="M12.095 65.0486C12.095 65.0486 11.1924 64.3394 11.1924 64.9196C11.1924 65.4999 12.3621 66.3012 12.3621 66.3012L12.095 65.0486Z" fill="#FFAE00"/>
<path d="M12.1777 65.0303C12.1777 65.0303 12.5738 63.9434 12.8593 64.45C13.1448 64.9566 12.5001 66.246 12.5001 66.246L12.1777 65.0303Z" fill="#FFAE00"/>
<path d="M11.7083 63.3919C11.7083 63.3919 10.8057 62.6826 10.8057 63.2629C10.8057 63.8432 11.9754 64.6445 11.9754 64.6445L11.7083 63.3919Z" fill="#FFFDCC"/>
<path d="M11.791 63.3735C11.791 63.3735 12.1871 62.2867 12.4726 62.7933C12.7581 63.2998 12.1134 64.5893 12.1134 64.5893L11.791 63.3735Z" fill="#FFFDCC"/>
<path d="M9.9774 65.0584C9.9774 65.0584 9.06557 64.3584 9.07478 64.9386C9.08399 65.5189 10.2537 66.311 10.2537 66.311L9.9774 65.0584Z" fill="#FFAE00"/>
<path d="M10.0596 65.0493C10.0596 65.0493 10.4556 63.9625 10.7412 64.469C11.0267 64.9756 10.3911 66.2651 10.3911 66.2651L10.0596 65.0493Z" fill="#FFAE00"/>
<path d="M9.58141 63.4104C9.58141 63.4104 8.66957 62.7104 8.67878 63.2907C8.68799 63.8709 9.85773 64.663 9.85773 64.663L9.58141 63.4104Z" fill="#FFFDCC"/>
<path d="M9.66406 63.3921C9.66406 63.3921 10.0601 62.3052 10.3456 62.8118C10.6312 63.3184 9.99564 64.6079 9.99564 64.6079L9.66406 63.3921Z" fill="#FFFDCC"/>
<path d="M14.1482 65.1316C14.1482 65.1316 13.3009 64.3487 13.2548 64.929C13.2088 65.5092 14.314 66.3935 14.314 66.3935L14.1482 65.1224V65.1316Z" fill="#FFAE00"/>
<path d="M14.231 65.1222C14.231 65.1222 14.7191 64.0722 14.9586 64.5972C15.1981 65.1222 14.452 66.3564 14.452 66.3564L14.231 65.1222Z" fill="#FFAE00"/>
<path d="M13.8997 63.447C13.8997 63.447 13.0523 62.6641 13.0063 63.2444C12.9602 63.8247 14.0655 64.7089 14.0655 64.7089L13.8997 63.4378V63.447Z" fill="#FFFDCC"/>
<path d="M13.9819 63.4376C13.9819 63.4376 14.4701 62.3876 14.7096 62.9126C14.949 63.4376 14.203 64.6718 14.203 64.6718L13.9819 63.4376Z" fill="#FFFDCC"/>
<path d="M16.5145 64.846C16.5145 64.846 15.6118 64.1367 15.6118 64.717C15.6118 65.2973 16.7816 66.0986 16.7816 66.0986L16.5145 64.846Z" fill="#FFAE00"/>
<path d="M16.5972 64.8369C16.5972 64.8369 16.9932 63.7501 17.2787 64.2566C17.5643 64.7632 16.9195 66.0527 16.9195 66.0527L16.5972 64.8369Z" fill="#FFAE00"/>
<path d="M16.1277 63.1985C16.1277 63.1985 15.2251 62.4893 15.2251 63.0695C15.2251 63.6498 16.3948 64.4511 16.3948 64.4511L16.1277 63.1985Z" fill="#FFFDCC"/>
<path d="M16.2104 63.1802C16.2104 63.1802 16.6065 62.0933 16.892 62.5999C17.1775 63.1065 16.5328 64.396 16.5328 64.396L16.2104 63.1802Z" fill="#FFFDCC"/>
<path d="M18.5218 64.2571C18.5218 64.2571 17.6191 63.5479 17.6191 64.1281C17.6191 64.7084 18.7889 65.5097 18.7889 65.5097L18.5218 64.2571Z" fill="#FFAE00"/>
<path d="M18.6045 64.2397C18.6045 64.2397 19.0005 63.1529 19.2861 63.6595C19.5716 64.1661 18.9269 65.4555 18.9269 65.4555L18.6045 64.2397Z" fill="#FFAE00"/>
<path d="M18.1443 62.6004C18.1443 62.6004 17.2417 61.8911 17.2417 62.4714C17.2417 63.0517 18.4114 63.853 18.4114 63.853L18.1443 62.6004Z" fill="#FFFDCC"/>
<path d="M18.2266 62.582C18.2266 62.582 18.6226 61.4952 18.9081 62.0018C19.1937 62.5083 18.5489 63.7978 18.5489 63.7978L18.2266 62.582Z" fill="#FFFDCC"/>
<path d="M20.6211 63.6128C20.6211 63.6128 19.6908 62.9404 19.7093 63.5207C19.7277 64.1009 20.9343 64.847 20.9343 64.847L20.6211 63.6036V63.6128Z" fill="#FFAE00"/>
<path d="M20.6943 63.5949C20.6943 63.5949 21.0443 62.4897 21.3483 62.987C21.6522 63.4844 21.0628 64.7923 21.0628 64.7923L20.6943 63.5857V63.5949Z" fill="#FFAE00"/>
<path d="M20.1607 61.9741C20.1607 61.9741 19.2304 61.3017 19.2488 61.882C19.2672 62.4623 20.4738 63.2083 20.4738 63.2083L20.1607 61.9649V61.9741Z" fill="#FFFDCC"/>
<path d="M20.2432 61.9553C20.2432 61.9553 20.5932 60.85 20.8971 61.3474C21.2011 61.8448 20.6116 63.1527 20.6116 63.1527L20.2432 61.9461V61.9553Z" fill="#FFFDCC"/>
<path d="M22.7573 63.0234C22.7573 63.0234 21.8271 62.3511 21.8455 62.9313C21.8639 63.5116 23.0705 64.2576 23.0705 64.2576L22.7573 63.0142V63.0234Z" fill="#FFAE00"/>
<path d="M22.8398 63.0046C22.8398 63.0046 23.1898 61.8993 23.4938 62.3967C23.7977 62.8941 23.2083 64.202 23.2083 64.202L22.8398 62.9954V63.0046Z" fill="#FFAE00"/>
<path d="M22.3062 61.3838C22.3062 61.3838 21.3759 60.7114 21.3943 61.2917C21.4127 61.8719 22.6193 62.618 22.6193 62.618L22.3062 61.3746V61.3838Z" fill="#FFFDCC"/>
<path d="M22.3887 61.3669C22.3887 61.3669 22.7387 60.2616 23.0426 60.759C23.3466 61.2564 22.7571 62.5643 22.7571 62.5643L22.3887 61.3577V61.3669Z" fill="#FFFDCC"/>
<path d="M24.8196 62.5723C24.8196 62.5723 23.8709 61.9275 23.9078 62.5078C23.9446 63.0881 25.1696 63.7973 25.1696 63.7973L24.8196 62.5631V62.5723Z" fill="#FFAE00"/>
<path d="M24.9023 62.5542C24.9023 62.5542 25.2247 61.4397 25.5471 61.9279C25.8694 62.416 25.3076 63.7423 25.3076 63.7423L24.9023 62.5542Z" fill="#FFAE00"/>
<path d="M24.3226 60.9522C24.3226 60.9522 23.3739 60.3074 23.4107 60.8877C23.4476 61.4679 24.6726 62.1772 24.6726 62.1772L24.3226 60.943V60.9522Z" fill="#FFFDCC"/>
<path d="M24.4048 60.9243C24.4048 60.9243 24.7272 59.8098 25.0495 60.298C25.3719 60.7862 24.8101 62.1125 24.8101 62.1125L24.4048 60.9243Z" fill="#FFFDCC"/>
<path d="M26.8636 62.2315C26.8636 62.2315 25.9149 61.5867 25.9517 62.167C25.9886 62.7472 27.2136 63.4565 27.2136 63.4565L26.8636 62.2223V62.2315Z" fill="#FFAE00"/>
<path d="M26.9463 62.2134C26.9463 62.2134 27.2687 61.0989 27.591 61.5871C27.9134 62.0752 27.3516 63.4015 27.3516 63.4015L26.9463 62.2134Z" fill="#FFAE00"/>
<path d="M26.3665 60.6113C26.3665 60.6113 25.4178 59.9666 25.4547 60.5469C25.4915 61.1271 26.7165 61.8363 26.7165 61.8363L26.3665 60.6021V60.6113Z" fill="#FFFDCC"/>
<path d="M26.4492 60.5835C26.4492 60.5835 26.7716 59.469 27.094 59.9572C27.4163 60.4453 26.8545 61.7716 26.8545 61.7716L26.4492 60.5835Z" fill="#FFFDCC"/>
<path d="M11.128 61.4392C11.128 61.4392 10.2622 60.73 10.2622 61.3103C10.2622 61.8905 11.3859 62.6919 11.3859 62.6919L11.128 61.4392Z" fill="#FFAE00"/>
<path d="M11.2109 61.4214C11.2109 61.4214 11.5978 60.3345 11.8649 60.8411C12.132 61.3477 11.5149 62.6372 11.5149 62.6372L11.2109 61.4214Z" fill="#FFAE00"/>
<path d="M10.7598 59.782C10.7598 59.782 9.89404 59.0728 9.89404 59.653C9.89404 60.2333 11.0177 61.0346 11.0177 61.0346L10.7598 59.782Z" fill="#FFFDCC"/>
<path d="M10.8423 59.7637C10.8423 59.7637 11.2291 58.6768 11.4962 59.1834C11.7633 59.69 11.1462 60.9794 11.1462 60.9794L10.8423 59.7637Z" fill="#FFFDCC"/>
<path d="M9.09339 61.4578C9.09339 61.4578 8.2184 60.7578 8.22761 61.338C8.23682 61.9183 9.3605 62.7104 9.3605 62.7104L9.09339 61.4578Z" fill="#FFAE00"/>
<path d="M9.1665 61.4404C9.1665 61.4404 9.54414 60.3536 9.82046 60.8602C10.0968 61.3667 9.48888 62.6562 9.48888 62.6562L9.17572 61.4404H9.1665Z" fill="#FFAE00"/>
<path d="M8.71596 59.801C8.71596 59.801 7.84096 59.101 7.85017 59.6813C7.85938 60.2616 8.98306 61.0537 8.98306 61.0537L8.71596 59.801Z" fill="#FFFDCC"/>
<path d="M8.78906 59.7827C8.78906 59.7827 9.16669 58.6959 9.443 59.2024C9.71932 59.709 9.11142 60.9985 9.11142 60.9985L8.79827 59.7827H8.78906Z" fill="#FFFDCC"/>
<path d="M13.0988 61.5217C13.0988 61.5217 12.2882 60.7388 12.2422 61.3191C12.1961 61.8994 13.2553 62.7836 13.2553 62.7836L13.0988 61.5125V61.5217Z" fill="#FFAE00"/>
<path d="M13.1812 61.5138C13.1812 61.5138 13.6509 60.4638 13.8812 60.9888C14.1114 61.5138 13.393 62.748 13.393 62.748L13.1812 61.5138Z" fill="#FFAE00"/>
<path d="M12.859 59.8372C12.859 59.8372 12.0485 59.0543 12.0024 59.6345C11.9564 60.2148 13.0156 61.099 13.0156 61.099L12.859 59.828V59.8372Z" fill="#FFFDCC"/>
<path d="M12.9419 59.8282C12.9419 59.8282 13.4116 58.7783 13.6419 59.3033C13.8722 59.8283 13.1537 61.0625 13.1537 61.0625L12.9419 59.8282Z" fill="#FFFDCC"/>
<path d="M15.3726 61.2463C15.3726 61.2463 14.5068 60.5371 14.5068 61.1174C14.5068 61.6977 15.6305 62.499 15.6305 62.499L15.3726 61.2463Z" fill="#FFAE00"/>
<path d="M15.4556 61.228C15.4556 61.228 15.8424 60.1412 16.1095 60.6478C16.3766 61.1543 15.7595 62.4438 15.7595 62.4438L15.4556 61.228Z" fill="#FFAE00"/>
<path d="M15.0045 59.5886C15.0045 59.5886 14.1387 58.8794 14.1387 59.4597C14.1387 60.0399 15.2624 60.8413 15.2624 60.8413L15.0045 59.5886Z" fill="#FFFDCC"/>
<path d="M15.0869 59.5703C15.0869 59.5703 15.4737 58.4835 15.7409 58.99C16.008 59.4966 15.3909 60.7861 15.3909 60.7861L15.0869 59.5703Z" fill="#FFFDCC"/>
<path d="M17.3062 60.6482C17.3062 60.6482 16.4404 59.939 16.4404 60.5193C16.4404 61.0995 17.5641 61.9008 17.5641 61.9008L17.3062 60.6482Z" fill="#FFAE00"/>
<path d="M17.3892 60.6299C17.3892 60.6299 17.776 59.543 18.0431 60.0496C18.3102 60.5562 17.6931 61.8457 17.6931 61.8457L17.3892 60.6299Z" fill="#FFAE00"/>
<path d="M16.9473 58.9905C16.9473 58.9905 16.0815 58.2813 16.0815 58.8615C16.0815 59.4418 17.2052 60.2431 17.2052 60.2431L16.9473 58.9905Z" fill="#FFFDCC"/>
<path d="M17.0205 58.9722C17.0205 58.9722 17.4074 57.8853 17.6745 58.3919C17.9416 58.8985 17.3245 60.1879 17.3245 60.1879L17.0205 58.9722Z" fill="#FFFDCC"/>
<path d="M19.3225 60.0029C19.3225 60.0029 18.4291 59.3305 18.4475 59.9108C18.466 60.4911 19.6265 61.2371 19.6265 61.2371L19.3225 59.9937V60.0029Z" fill="#FFAE00"/>
<path d="M19.396 59.9851C19.396 59.9851 19.7368 58.8798 20.0315 59.3772C20.3263 59.8745 19.7552 61.1824 19.7552 61.1824L19.396 59.9759V59.9851Z" fill="#FFAE00"/>
<path d="M18.8899 58.3652C18.8899 58.3652 17.9965 57.6929 18.0149 58.2731C18.0334 58.8534 19.1939 59.5994 19.1939 59.5994L18.8899 58.356V58.3652Z" fill="#FFFDCC"/>
<path d="M18.9634 58.3464C18.9634 58.3464 19.3042 57.2411 19.5989 57.7385C19.8936 58.2359 19.3226 59.5438 19.3226 59.5438L18.9634 58.3372V58.3464Z" fill="#FFFDCC"/>
<path d="M21.3758 59.414C21.3758 59.414 20.4823 58.7417 20.5008 59.3219C20.5192 59.9022 21.6797 60.6483 21.6797 60.6483L21.3758 59.4048V59.414Z" fill="#FFAE00"/>
<path d="M21.4585 59.3952C21.4585 59.3952 21.7993 58.29 22.094 58.7873C22.3888 59.2847 21.8177 60.5926 21.8177 60.5926L21.4585 59.386V59.3952Z" fill="#FFAE00"/>
<path d="M20.9431 57.7754C20.9431 57.7754 20.0497 57.103 20.0682 57.6833C20.0866 58.2635 21.2471 59.0096 21.2471 59.0096L20.9431 57.7662V57.7754Z" fill="#FFFDCC"/>
<path d="M21.0259 57.757C21.0259 57.757 21.3667 56.6518 21.6614 57.1491C21.9561 57.6465 21.3851 58.9544 21.3851 58.9544L21.0259 57.7478V57.757Z" fill="#FFFDCC"/>
<path d="M23.3556 58.9624C23.3556 58.9624 22.4437 58.3177 22.4806 58.8979C22.5174 59.4782 23.6964 60.1874 23.6964 60.1874L23.3556 58.9532V58.9624Z" fill="#FFAE00"/>
<path d="M23.438 58.9453C23.438 58.9453 23.7511 57.8308 24.0551 58.319C24.359 58.8071 23.8248 60.1335 23.8248 60.1335L23.438 58.9453Z" fill="#FFAE00"/>
<path d="M22.8859 57.3428C22.8859 57.3428 21.974 56.698 22.0109 57.2783C22.0477 57.8586 23.2266 58.5678 23.2266 58.5678L22.8859 57.3336V57.3428Z" fill="#FFFDCC"/>
<path d="M22.9595 57.3144C22.9595 57.3144 23.2726 56.2 23.5766 56.6881C23.8805 57.1763 23.3463 58.5026 23.3463 58.5026L22.9595 57.3144Z" fill="#FFFDCC"/>
<path d="M25.3258 58.6216C25.3258 58.6216 24.414 57.9769 24.4508 58.5571C24.4876 59.1374 25.6666 59.8466 25.6666 59.8466L25.3258 58.6124V58.6216Z" fill="#FFAE00"/>
<path d="M25.3994 58.6045C25.3994 58.6045 25.7126 57.49 26.0165 57.9782C26.3205 58.4663 25.7863 59.7926 25.7863 59.7926L25.3994 58.6045Z" fill="#FFAE00"/>
<path d="M24.8473 57.002C24.8473 57.002 23.9354 56.3572 23.9723 56.9375C24.0091 57.5178 25.1881 58.227 25.1881 58.227L24.8473 56.9928V57.002Z" fill="#FFFDCC"/>
<path d="M24.9204 56.9736C24.9204 56.9736 25.2336 55.8592 25.5375 56.3473C25.8415 56.8355 25.3073 58.1618 25.3073 58.1618L24.9204 56.9736Z" fill="#FFFDCC"/>
<path d="M10.2444 57.8213C10.2444 57.8213 9.40625 57.1397 9.40625 57.7015C9.40625 58.2634 10.4839 59.0279 10.4839 59.0279L10.2352 57.8213H10.2444Z" fill="#FFAE00"/>
<path d="M10.3174 57.8026C10.3174 57.8026 10.6858 56.7618 10.9437 57.2499C11.2016 57.7381 10.6121 58.9723 10.6121 58.9723L10.3174 57.8026Z" fill="#FFAE00"/>
<path d="M9.89431 56.2285C9.89431 56.2285 9.05615 55.5469 9.05615 56.1088C9.05615 56.6706 10.1338 57.4351 10.1338 57.4351L9.88509 56.2285H9.89431Z" fill="#FFFDCC"/>
<path d="M9.96777 56.2195C9.96777 56.2195 10.3362 55.1788 10.5941 55.6669C10.852 56.1551 10.2625 57.3893 10.2625 57.3893L9.96777 56.2195Z" fill="#FFFDCC"/>
<path d="M8.28299 57.8399C8.28299 57.8399 7.44482 57.1675 7.44482 57.7293C7.44482 58.2912 8.53166 59.0464 8.53166 59.0464L8.27377 57.8491L8.28299 57.8399Z" fill="#FFAE00"/>
<path d="M8.36572 57.8216C8.36572 57.8216 8.72493 56.7716 8.99203 57.2598C9.25914 57.748 8.66967 58.9822 8.66967 58.9822L8.36572 57.8124V57.8216Z" fill="#FFAE00"/>
<path d="M7.9241 56.2461C7.9241 56.2461 7.08594 55.5737 7.08594 56.1356C7.08594 56.6974 8.17277 57.4527 8.17277 57.4527L7.91488 56.2553L7.9241 56.2461Z" fill="#FFFDCC"/>
<path d="M7.99756 56.2377C7.99756 56.2377 8.35676 55.1877 8.62387 55.6758C8.89097 56.164 8.30149 57.3982 8.30149 57.3982L7.99756 56.2284V56.2377Z" fill="#FFFDCC"/>
<path d="M12.141 57.9046C12.141 57.9046 11.3581 57.1585 11.3213 57.7112C11.2845 58.2638 12.2976 59.1204 12.2976 59.1204L12.1502 57.9046H12.141Z" fill="#FFAE00"/>
<path d="M12.2144 57.8947C12.2144 57.8947 12.6657 56.8815 12.8867 57.3973C13.1078 57.9131 12.417 59.0829 12.417 59.0829L12.2144 57.8947Z" fill="#FFAE00"/>
<path d="M11.9106 56.283C11.9106 56.283 11.1277 55.537 11.0908 56.0896C11.054 56.6422 12.0671 57.4988 12.0671 57.4988L11.9198 56.283H11.9106Z" fill="#FFFDCC"/>
<path d="M11.9844 56.2746C11.9844 56.2746 12.4357 55.2614 12.6568 55.7772C12.8778 56.293 12.187 57.4627 12.187 57.4627L11.9844 56.2746Z" fill="#FFFDCC"/>
<path d="M14.323 57.6367C14.323 57.6367 13.4849 56.9551 13.4849 57.517C13.4849 58.0788 14.5625 58.8433 14.5625 58.8433L14.3138 57.6367H14.323Z" fill="#FFAE00"/>
<path d="M14.3965 57.619C14.3965 57.619 14.7649 56.5782 15.0228 57.0663C15.2807 57.5545 14.6912 58.7887 14.6912 58.7887L14.3965 57.619Z" fill="#FFAE00"/>
<path d="M13.9734 56.0439C13.9734 56.0439 13.1353 55.3623 13.1353 55.9242C13.1353 56.486 14.2129 57.2505 14.2129 57.2505L13.9642 56.0439H13.9734Z" fill="#FFFDCC"/>
<path d="M14.0464 56.0262C14.0464 56.0262 14.4148 54.9854 14.6727 55.4736C14.9306 55.9617 14.3411 57.1959 14.3411 57.1959L14.0464 56.0262Z" fill="#FFFDCC"/>
<path d="M16.1829 57.0659C16.1829 57.0659 15.3447 56.3843 15.3447 56.9462C15.3447 57.508 16.4224 58.2725 16.4224 58.2725L16.1737 57.0659H16.1829Z" fill="#FFAE00"/>
<path d="M16.2563 57.0482C16.2563 57.0482 16.6248 56.0074 16.8827 56.4955C17.1406 56.9837 16.5511 58.2179 16.5511 58.2179L16.2563 57.0482Z" fill="#FFAE00"/>
<path d="M15.8333 55.4736C15.8333 55.4736 14.9951 54.792 14.9951 55.3539C14.9951 55.9157 16.0727 56.6802 16.0727 56.6802L15.8241 55.4736H15.8333Z" fill="#FFFDCC"/>
<path d="M15.9067 55.4549C15.9067 55.4549 16.2752 54.4141 16.533 54.9023C16.7909 55.3904 16.2015 56.6246 16.2015 56.6246L15.9067 55.4549Z" fill="#FFFDCC"/>
<path d="M18.1166 56.4495C18.1166 56.4495 17.2508 55.8048 17.2785 56.3666C17.3061 56.9285 18.4114 57.6469 18.4114 57.6469L18.1166 56.4587V56.4495Z" fill="#FFAE00"/>
<path d="M18.1899 56.4312C18.1899 56.4312 18.5123 55.3719 18.7978 55.8509C19.0834 56.3298 18.5307 57.5825 18.5307 57.5825L18.1899 56.4312Z" fill="#FFAE00"/>
<path d="M17.6928 54.8753C17.6928 54.8753 16.827 54.2305 16.8547 54.7924C16.8823 55.3542 17.9875 56.0727 17.9875 56.0727L17.6928 54.8845V54.8753Z" fill="#FFFDCC"/>
<path d="M17.7754 54.8569C17.7754 54.8569 18.0978 53.7977 18.3833 54.2767C18.6688 54.7556 18.1162 56.0083 18.1162 56.0083L17.7754 54.8569Z" fill="#FFFDCC"/>
<path d="M20.0869 55.8792C20.0869 55.8792 19.2211 55.2345 19.2487 55.7963C19.2763 56.3581 20.3816 57.0766 20.3816 57.0766L20.0869 55.8884V55.8792Z" fill="#FFAE00"/>
<path d="M20.1694 55.8608C20.1694 55.8608 20.4918 54.8016 20.7773 55.2806C21.0629 55.7595 20.5102 57.0122 20.5102 57.0122L20.1694 55.8608Z" fill="#FFAE00"/>
<path d="M19.6728 54.304C19.6728 54.304 18.807 53.6593 18.8346 54.2211C18.8623 54.7829 19.9675 55.5014 19.9675 55.5014L19.6728 54.3132V54.304Z" fill="#FFFDCC"/>
<path d="M19.7461 54.2857C19.7461 54.2857 20.0685 53.2264 20.354 53.7054C20.6395 54.1843 20.0869 55.437 20.0869 55.437L19.7461 54.2857Z" fill="#FFFDCC"/>
<path d="M21.9931 55.4463C21.9931 55.4463 21.1181 54.8292 21.1549 55.3818C21.1918 55.9344 22.3247 56.6252 22.3247 56.6252L22.0023 55.4463H21.9931Z" fill="#FFAE00"/>
<path d="M22.0663 55.427C22.0663 55.427 22.3611 54.3586 22.6558 54.8283C22.9506 55.2981 22.4348 56.5691 22.4348 56.5691L22.0571 55.427H22.0663Z" fill="#FFAE00"/>
<path d="M21.5327 53.8891C21.5327 53.8891 20.6576 53.272 20.6945 53.8247C20.7313 54.3773 21.8642 55.0681 21.8642 55.0681L21.5419 53.8891H21.5327Z" fill="#FFFDCC"/>
<path d="M21.6059 53.8621C21.6059 53.8621 21.9006 52.7937 22.1954 53.2634C22.4901 53.7331 21.9743 55.0042 21.9743 55.0042L21.5967 53.8621H21.6059Z" fill="#FFFDCC"/>
<path d="M23.8803 55.124C23.8803 55.124 23.0053 54.5069 23.0421 55.0595C23.079 55.6122 24.2119 56.303 24.2119 56.303L23.8895 55.124H23.8803Z" fill="#FFAE00"/>
<path d="M23.954 55.096C23.954 55.096 24.2488 54.0275 24.5435 54.4973C24.8382 54.967 24.3225 56.2381 24.3225 56.2381L23.9448 55.096H23.954Z" fill="#FFAE00"/>
<path d="M23.4199 53.5581C23.4199 53.5581 22.5449 52.941 22.5817 53.4936C22.6185 54.0462 23.7514 54.737 23.7514 54.737L23.4291 53.5581H23.4199Z" fill="#FFFDCC"/>
<path d="M23.4936 53.5398C23.4936 53.5398 23.7883 52.4714 24.0831 52.9411C24.3778 53.4109 23.862 54.6819 23.862 54.6819L23.4844 53.5398H23.4936Z" fill="#FFFDCC"/>
<path d="M55.0569 56.5133C55.0569 56.5133 54.0621 55.933 54.145 56.5133C54.2279 57.0935 55.4898 57.7198 55.4898 57.7198L55.0569 56.5133Z" fill="#FFAE00"/>
<path d="M55.1392 56.4857C55.1392 56.4857 55.3878 55.3528 55.7378 55.8226C56.0878 56.2923 55.6181 57.6463 55.6181 57.6463L55.1392 56.4857Z" fill="#FFAE00"/>
<path d="M54.4583 54.9303C54.4583 54.9303 53.4635 54.35 53.5464 54.9303C53.6293 55.5105 54.8912 56.1368 54.8912 56.1368L54.4583 54.9303Z" fill="#FFFDCC"/>
<path d="M54.541 54.9027C54.541 54.9027 54.7897 53.7698 55.1397 54.2396C55.4897 54.7093 55.02 56.0632 55.02 56.0632L54.541 54.9027Z" fill="#FFFDCC"/>
<path d="M53.0037 57.2411C53.0037 57.2411 52.0089 56.6701 52.0918 57.2411C52.1747 57.8122 53.4458 58.4385 53.4458 58.4385L53.0037 57.2411Z" fill="#FFAE00"/>
<path d="M53.0859 57.2044C53.0859 57.2044 53.3254 56.0715 53.6754 56.532C54.0254 56.9925 53.5741 58.3557 53.5741 58.3557L53.0859 57.1952V57.2044Z" fill="#FFAE00"/>
<path d="M52.3865 55.6483C52.3865 55.6483 51.3917 55.0773 51.4746 55.6483C51.5575 56.2194 52.8286 56.8457 52.8286 56.8457L52.3865 55.6483Z" fill="#FFFDCC"/>
<path d="M52.4692 55.6209C52.4692 55.6209 52.7087 54.488 53.0587 54.9485C53.4087 55.409 52.9574 56.7722 52.9574 56.7722L52.4692 55.6117V55.6209Z" fill="#FFFDCC"/>
<path d="M56.8983 55.768C56.8983 55.768 55.9588 55.1049 55.9864 55.6944C56.0141 56.2838 57.2299 57.0023 57.2299 57.0023L56.8983 55.768Z" fill="#FFAE00"/>
<path d="M56.981 55.7401C56.981 55.7401 57.3217 54.6348 57.6349 55.123C57.9481 55.6112 57.3678 56.9375 57.3678 56.9375L56.981 55.7401Z" fill="#FFAE00"/>
<path d="M56.3458 54.1104C56.3458 54.1104 55.3787 53.4841 55.4339 54.0643C55.4892 54.6446 56.7234 55.3354 56.7234 55.3354L56.3458 54.1104Z" fill="#FFFDCC"/>
<path d="M56.4282 54.0827C56.4282 54.0827 56.7321 52.9683 57.0545 53.4472C57.3768 53.9262 56.8518 55.2617 56.8518 55.2617L56.4189 54.0827H56.4282Z" fill="#FFFDCC"/>
<path d="M59.071 55.1602C59.071 55.1602 58.0763 54.58 58.1592 55.1602C58.2421 55.7405 59.5039 56.3668 59.5039 56.3668L59.071 55.1602Z" fill="#FFAE00"/>
<path d="M59.1445 55.1327C59.1445 55.1327 59.3932 53.9998 59.7432 54.4695C60.0932 54.9393 59.6235 56.2932 59.6235 56.2932L59.1445 55.1327Z" fill="#FFAE00"/>
<path d="M58.4729 53.5675C58.4729 53.5675 57.4782 52.9872 57.5611 53.5675C57.644 54.1477 58.9058 54.774 58.9058 54.774L58.4729 53.5675Z" fill="#FFFDCC"/>
<path d="M58.5459 53.5399C58.5459 53.5399 58.7946 52.407 59.1446 52.8768C59.4946 53.3465 59.0248 54.7004 59.0248 54.7004L58.5459 53.5399Z" fill="#FFFDCC"/>
<path d="M61.3269 54.8653C61.3269 54.8653 60.3322 54.2851 60.4151 54.8653C60.498 55.4456 61.7598 56.0719 61.7598 56.0719L61.3269 54.8653Z" fill="#FFAE00"/>
<path d="M61.4097 54.8378C61.4097 54.8378 61.6583 53.7049 62.0083 54.1746C62.3583 54.6444 61.8886 55.9983 61.8886 55.9983L61.4097 54.8378Z" fill="#FFAE00"/>
<path d="M60.7283 53.2725C60.7283 53.2725 59.7335 52.6923 59.8164 53.2725C59.8993 53.8528 61.1612 54.4791 61.1612 54.4791L60.7283 53.2725Z" fill="#FFFDCC"/>
<path d="M60.8018 53.246C60.8018 53.246 61.0505 52.1131 61.4005 52.5828C61.7505 53.0526 61.2807 54.4065 61.2807 54.4065L60.8018 53.246Z" fill="#FFFDCC"/>
<path d="M63.3159 53.9541C63.3159 53.9541 62.3028 53.4107 62.4041 53.991C62.5054 54.5712 63.7949 55.1423 63.7949 55.1423L63.3159 53.9541Z" fill="#FFAE00"/>
<path d="M63.3892 53.9169C63.3892 53.9169 63.5918 52.7748 63.9602 53.2262C64.3286 53.6775 63.9234 55.059 63.9234 55.059L63.3892 53.9169Z" fill="#FFAE00"/>
<path d="M62.6436 52.3892C62.6436 52.3892 61.6304 51.8457 61.7317 52.426C61.833 53.0063 63.1225 53.5773 63.1225 53.5773L62.6436 52.3892Z" fill="#FFFDCC"/>
<path d="M62.7261 52.3608C62.7261 52.3608 62.9287 51.2187 63.2971 51.67C63.6656 52.1213 63.2603 53.5029 63.2603 53.5029L62.7261 52.3608Z" fill="#FFFDCC"/>
<path d="M65.3506 53.0801C65.3506 53.0801 64.3374 52.5367 64.4388 53.1169C64.5401 53.6972 65.8296 54.2682 65.8296 54.2682L65.3506 53.0801Z" fill="#FFAE00"/>
<path d="M65.4331 53.0429C65.4331 53.0429 65.6357 51.9008 66.0042 52.3521C66.3726 52.8034 65.9673 54.185 65.9673 54.185L65.4331 53.0429Z" fill="#FFAE00"/>
<path d="M64.6875 51.5142C64.6875 51.5142 63.6744 50.9707 63.7757 51.551C63.877 52.1313 65.1665 52.7023 65.1665 52.7023L64.6875 51.5142Z" fill="#FFFDCC"/>
<path d="M64.7612 51.4868C64.7612 51.4868 64.9639 50.3447 65.3323 50.796C65.7007 51.2473 65.2954 52.6289 65.2954 52.6289L64.7612 51.4868Z" fill="#FFFDCC"/>
<path d="M67.3395 52.3517C67.3395 52.3517 66.3079 51.8451 66.4276 52.4162C66.5474 52.9873 67.8553 53.5307 67.8553 53.5307L67.3395 52.3609V52.3517Z" fill="#FFAE00"/>
<path d="M67.4126 52.3247C67.4126 52.3247 67.5876 51.1826 67.9652 51.6247C68.3429 52.0668 67.9745 53.4576 67.9745 53.4576L67.4126 52.3339V52.3247Z" fill="#FFAE00"/>
<path d="M66.6212 50.8136C66.6212 50.8136 65.5896 50.3071 65.7094 50.8781C65.8291 51.4492 67.137 51.9926 67.137 51.9926L66.6212 50.8228V50.8136Z" fill="#FFFDCC"/>
<path d="M66.7036 50.7778C66.7036 50.7778 66.8786 49.6357 67.2563 50.0778C67.6339 50.5199 67.2654 51.9107 67.2654 51.9107L66.7036 50.787V50.7778Z" fill="#FFFDCC"/>
<path d="M69.319 51.7438C69.319 51.7438 68.2874 51.2372 68.4071 51.8083C68.5269 52.3793 69.8348 52.9228 69.8348 52.9228L69.319 51.753V51.7438Z" fill="#FFAE00"/>
<path d="M69.3926 51.707C69.3926 51.707 69.5676 50.5649 69.9452 51.007C70.3228 51.4491 69.9544 52.8399 69.9544 52.8399L69.3926 51.7162V51.707Z" fill="#FFAE00"/>
<path d="M68.6007 50.1979C68.6007 50.1979 67.5691 49.6913 67.6889 50.2624C67.8086 50.8334 69.1165 51.3769 69.1165 51.3769L68.6007 50.2071V50.1979Z" fill="#FFFDCC"/>
<path d="M68.6836 50.1699C68.6836 50.1699 68.8586 49.0278 69.2362 49.4699C69.6139 49.912 69.2455 51.3028 69.2455 51.3028L68.6836 50.1791V50.1699Z" fill="#FFFDCC"/>
<path d="M53.6203 53.0706C53.6203 53.0706 52.6624 52.4811 52.7453 53.0706C52.8282 53.6601 54.044 54.2864 54.044 54.2864L53.6203 53.0798V53.0706Z" fill="#FFAE00"/>
<path d="M53.6938 53.0433C53.6938 53.0433 53.9333 51.9104 54.2649 52.3802C54.5965 52.8499 54.1636 54.2039 54.1636 54.2039L53.6938 53.0433Z" fill="#FFAE00"/>
<path d="M53.031 51.4773C53.031 51.4773 52.0731 50.8878 52.156 51.4773C52.2389 52.0668 53.4547 52.6931 53.4547 52.6931L53.031 51.4865V51.4773Z" fill="#FFFDCC"/>
<path d="M53.1045 51.4496C53.1045 51.4496 53.344 50.3167 53.6756 50.7864C54.0071 51.2562 53.5742 52.6101 53.5742 52.6101L53.1045 51.4496Z" fill="#FFFDCC"/>
<path d="M51.6501 53.7789C51.6501 53.7789 50.6922 53.1986 50.7751 53.7789C50.858 54.3592 52.083 54.9855 52.083 54.9855L51.6501 53.7789Z" fill="#FFAE00"/>
<path d="M51.7231 53.7523C51.7231 53.7523 51.9534 52.6194 52.2942 53.0892C52.635 53.5589 52.2021 54.9128 52.2021 54.9128L51.7231 53.7523Z" fill="#FFAE00"/>
<path d="M51.0515 52.1959C51.0515 52.1959 50.0936 51.6156 50.1765 52.1959C50.2594 52.7761 51.4844 53.4025 51.4844 53.4025L51.0515 52.1959Z" fill="#FFFDCC"/>
<path d="M51.125 52.1683C51.125 52.1683 51.3553 51.0354 51.696 51.5052C52.0368 51.9749 51.604 53.3289 51.604 53.3289L51.125 52.1683Z" fill="#FFFDCC"/>
<path d="M55.5079 52.2877C55.5079 52.2877 54.5961 51.6246 54.6329 52.2048C54.6698 52.7851 55.8303 53.5219 55.8303 53.5219L55.5079 52.2877Z" fill="#FFAE00"/>
<path d="M55.5903 52.2697C55.5903 52.2697 55.9127 51.1645 56.2167 51.6618C56.5206 52.1592 55.9772 53.4671 55.9772 53.4671L55.5996 52.2697H55.5903Z" fill="#FFAE00"/>
<path d="M54.8634 50.5568C54.8634 50.5568 53.9515 49.8936 53.9884 50.4739C54.0252 51.0541 55.1858 51.791 55.1858 51.791L54.8634 50.5568Z" fill="#FFFDCC"/>
<path d="M54.9458 50.5383C54.9458 50.5383 55.2682 49.433 55.5721 49.9304C55.8761 50.4278 55.3326 51.7357 55.3326 51.7357L54.955 50.5383H54.9458Z" fill="#FFFDCC"/>
<path d="M57.4597 51.7346C57.4597 51.7346 56.5018 51.1452 56.5847 51.7346C56.6676 52.3241 57.8834 52.9504 57.8834 52.9504L57.4597 51.7439V51.7346Z" fill="#FFAE00"/>
<path d="M57.5332 51.7079C57.5332 51.7079 57.7727 50.575 58.1043 51.0447C58.4358 51.5145 58.0029 52.8684 58.0029 52.8684L57.5332 51.7079Z" fill="#FFAE00"/>
<path d="M56.8703 50.1516C56.8703 50.1516 55.9124 49.5622 55.9953 50.1516C56.0782 50.7411 57.294 51.3674 57.294 51.3674L56.8703 50.1608V50.1516Z" fill="#FFFDCC"/>
<path d="M56.9531 50.1239C56.9531 50.1239 57.1926 48.991 57.5242 49.4607C57.8558 49.9305 57.4229 51.2844 57.4229 51.2844L56.9531 50.1239Z" fill="#FFFDCC"/>
<path d="M59.633 51.4588C59.633 51.4588 58.6751 50.8693 58.758 51.4588C58.8409 52.0482 60.0567 52.6746 60.0567 52.6746L59.633 51.468V51.4588Z" fill="#FFAE00"/>
<path d="M59.7153 51.4315C59.7153 51.4315 59.9548 50.2986 60.2864 50.7684C60.618 51.2381 60.1851 52.592 60.1851 52.592L59.7153 51.4315Z" fill="#FFAE00"/>
<path d="M59.0529 49.8665C59.0529 49.8665 58.095 49.277 58.1779 49.8665C58.2608 50.456 59.4766 51.0823 59.4766 51.0823L59.0529 49.8757V49.8665Z" fill="#FFFDCC"/>
<path d="M59.126 49.8387C59.126 49.8387 59.3654 48.7059 59.697 49.1756C60.0286 49.6453 59.5957 50.9993 59.5957 50.9993L59.126 49.8387Z" fill="#FFFDCC"/>
<path d="M61.5479 50.548C61.5479 50.548 60.5716 50.0046 60.6729 50.5756C60.7742 51.1467 62.0176 51.7361 62.0176 51.7361L61.5479 50.548Z" fill="#FFAE00"/>
<path d="M61.6216 50.5195C61.6216 50.5195 61.815 49.3774 62.165 49.8379C62.515 50.2985 62.1374 51.6616 62.1374 51.6616L61.6216 50.5195Z" fill="#FFAE00"/>
<path d="M60.8941 48.9821C60.8941 48.9821 59.9178 48.4387 60.0191 49.0097C60.1204 49.5808 61.3638 50.1702 61.3638 50.1702L60.8941 48.9821Z" fill="#FFFDCC"/>
<path d="M60.9678 48.9546C60.9678 48.9546 61.1612 47.8125 61.5112 48.273C61.8612 48.7335 61.4836 50.0967 61.4836 50.0967L60.9678 48.9546Z" fill="#FFFDCC"/>
<path d="M63.5001 49.6915C63.5001 49.6915 62.5237 49.1481 62.625 49.7192C62.7264 50.2902 63.9698 50.8797 63.9698 50.8797L63.5001 49.6915Z" fill="#FFAE00"/>
<path d="M63.5732 49.6543C63.5732 49.6543 63.7667 48.5122 64.1167 48.9727C64.4667 49.4332 64.089 50.7964 64.089 50.7964L63.5732 49.6543Z" fill="#FFAE00"/>
<path d="M62.8555 48.1256C62.8555 48.1256 61.8792 47.5822 61.9805 48.1533C62.0818 48.7243 63.3253 49.3138 63.3253 49.3138L62.8555 48.1256Z" fill="#FFFDCC"/>
<path d="M62.9287 48.0893C62.9287 48.0893 63.1221 46.9472 63.4721 47.4078C63.8221 47.8683 63.4445 49.2314 63.4445 49.2314L62.9287 48.0893Z" fill="#FFFDCC"/>
<path d="M65.406 48.973C65.406 48.973 64.4113 48.4572 64.531 49.0282C64.6507 49.5993 65.9034 50.1427 65.9034 50.1427L65.406 48.973Z" fill="#FFAE00"/>
<path d="M65.479 48.9448C65.479 48.9448 65.6356 47.8027 66.004 48.2448C66.3724 48.6869 66.0224 50.0777 66.0224 50.0777L65.479 48.954V48.9448Z" fill="#FFAE00"/>
<path d="M64.7151 47.4266C64.7151 47.4266 63.7203 46.9108 63.8401 47.4819C63.9598 48.0529 65.2125 48.5963 65.2125 48.5963L64.7151 47.4266Z" fill="#FFFDCC"/>
<path d="M64.7886 47.3984C64.7886 47.3984 64.9452 46.2563 65.3136 46.6984C65.682 47.1405 65.332 48.5313 65.332 48.5313L64.7886 47.4076V47.3984Z" fill="#FFFDCC"/>
<path d="M67.3025 48.3739C67.3025 48.3739 66.3077 47.8581 66.4275 48.4291C66.5472 49.0002 67.7998 49.5436 67.7998 49.5436L67.3025 48.3739Z" fill="#FFAE00"/>
<path d="M67.3853 48.3383C67.3853 48.3383 67.5418 47.1962 67.9103 47.6383C68.2787 48.0805 67.9287 49.4712 67.9287 49.4712L67.3853 48.3476V48.3383Z" fill="#FFAE00"/>
<path d="M66.6121 46.8275C66.6121 46.8275 65.6173 46.3117 65.7371 46.8827C65.8568 47.4538 67.1094 47.9972 67.1094 47.9972L66.6121 46.8275Z" fill="#FFFDCC"/>
<path d="M66.6855 46.8003C66.6855 46.8003 66.8421 45.6582 67.2105 46.1003C67.5789 46.5424 67.229 47.9332 67.229 47.9332L66.6855 46.8095V46.8003Z" fill="#FFFDCC"/>
<path d="M52.2578 49.6081C52.2578 49.6081 51.3368 49.0463 51.4104 49.6081C51.4841 50.1699 52.6539 50.7778 52.6539 50.7778L52.2486 49.6173L52.2578 49.6081Z" fill="#FFAE00"/>
<path d="M52.3311 49.5807C52.3311 49.5807 52.5613 48.4939 52.8837 48.9452C53.2061 49.3965 52.7824 50.6952 52.7824 50.6952L52.3311 49.5807Z" fill="#FFAE00"/>
<path d="M51.6958 48.0798C51.6958 48.0798 50.7748 47.5179 50.8484 48.0798C50.9221 48.6416 52.0919 49.2495 52.0919 49.2495L51.6866 48.089L51.6958 48.0798Z" fill="#FFFDCC"/>
<path d="M51.7695 48.0529C51.7695 48.0529 51.9998 46.966 52.3222 47.4173C52.6445 47.8687 52.2209 49.1673 52.2209 49.1673L51.7695 48.0529Z" fill="#FFFDCC"/>
<path d="M50.3608 50.3081C50.3608 50.3081 49.4398 49.7555 49.5135 50.3081C49.5872 50.8607 50.7661 51.4686 50.7661 51.4686L50.3516 50.3173L50.3608 50.3081Z" fill="#FFAE00"/>
<path d="M50.4346 50.2804C50.4346 50.2804 50.6556 49.1936 50.978 49.6449C51.3004 50.0962 50.8951 51.3949 50.8951 51.3949L50.4346 50.2804Z" fill="#FFAE00"/>
<path d="M49.7901 48.77C49.7901 48.77 48.869 48.2174 48.9427 48.77C49.0164 49.3227 50.1953 49.9306 50.1953 49.9306L49.7808 48.7792L49.7901 48.77Z" fill="#FFFDCC"/>
<path d="M49.8633 48.7423C49.8633 48.7423 50.0843 47.6555 50.4067 48.1068C50.7291 48.5581 50.3238 49.8568 50.3238 49.8568L49.8633 48.7423Z" fill="#FFFDCC"/>
<path d="M53.8876 48.7329C53.8876 48.7329 53.0126 48.0973 53.0495 48.6592C53.0863 49.221 54.2008 49.921 54.2008 49.921L53.8876 48.7329Z" fill="#FFAE00"/>
<path d="M53.9609 48.715C53.9609 48.715 54.2741 47.6558 54.5596 48.1255C54.8451 48.5953 54.3294 49.8663 54.3294 49.8663L53.9701 48.715H53.9609Z" fill="#FFAE00"/>
<path d="M53.4452 47.1586C53.4452 47.1586 52.5702 46.5231 52.6071 47.085C52.6439 47.6468 53.7584 48.3468 53.7584 48.3468L53.4452 47.1586Z" fill="#FFFDCC"/>
<path d="M53.519 47.1408C53.519 47.1408 53.8322 46.0816 54.1177 46.5513C54.4033 47.021 53.8875 48.2921 53.8875 48.2921L53.5283 47.1408H53.519Z" fill="#FFFDCC"/>
<path d="M55.9316 48.3098C55.9316 48.3098 55.0106 47.7479 55.0843 48.3098C55.158 48.8716 56.3277 49.4795 56.3277 49.4795L55.9224 48.319L55.9316 48.3098Z" fill="#FFAE00"/>
<path d="M56.0049 48.2828C56.0049 48.2828 56.2351 47.196 56.5575 47.6473C56.8799 48.0986 56.4562 49.3973 56.4562 49.3973L56.0049 48.2828Z" fill="#FFAE00"/>
<path d="M55.3696 46.7727C55.3696 46.7727 54.4486 46.2108 54.5223 46.7727C54.5959 47.3345 55.7657 47.9424 55.7657 47.9424L55.3604 46.7819L55.3696 46.7727Z" fill="#FFFDCC"/>
<path d="M55.4434 46.754C55.4434 46.754 55.6736 45.6672 55.996 46.1185C56.3184 46.5698 55.8947 47.8685 55.8947 47.8685L55.4434 46.754Z" fill="#FFFDCC"/>
<path d="M58.04 48.052C58.04 48.052 57.119 47.4901 57.1927 48.052C57.2664 48.6138 58.4361 49.2217 58.4361 49.2217L58.0308 48.0612L58.04 48.052Z" fill="#FFAE00"/>
<path d="M58.1133 48.0245C58.1133 48.0245 58.3436 46.9377 58.6659 47.389C58.9883 47.8403 58.5646 49.139 58.5646 49.139L58.1133 48.0245Z" fill="#FFAE00"/>
<path d="M57.4785 46.5236C57.4785 46.5236 56.5575 45.9618 56.6311 46.5236C56.7048 47.0855 57.8746 47.6934 57.8746 47.6934L57.4693 46.5328L57.4785 46.5236Z" fill="#FFFDCC"/>
<path d="M57.5518 46.4957C57.5518 46.4957 57.782 45.4089 58.1044 45.8602C58.4268 46.3115 58.0031 47.6102 58.0031 47.6102L57.5518 46.4957Z" fill="#FFFDCC"/>
<path d="M59.8722 47.1863C59.8722 47.1863 58.9327 46.6613 59.034 47.2139C59.1353 47.7666 60.3235 48.3284 60.3235 48.3284L59.8722 47.1863Z" fill="#FFAE00"/>
<path d="M59.9365 47.1589C59.9365 47.1589 60.1207 46.0629 60.4615 46.505C60.8023 46.9471 60.4339 48.2642 60.4339 48.2642L59.9365 47.1681V47.1589Z" fill="#FFAE00"/>
<path d="M59.2462 45.6853C59.2462 45.6853 58.3067 45.1603 58.408 45.7129C58.5093 46.2656 59.6975 46.8274 59.6975 46.8274L59.2462 45.6853Z" fill="#FFFDCC"/>
<path d="M59.3193 45.6584C59.3193 45.6584 59.5036 44.5624 59.8443 45.0045C60.1851 45.4466 59.8167 46.7637 59.8167 46.7637L59.3193 45.6676V45.6584Z" fill="#FFFDCC"/>
<path d="M61.7506 46.3582C61.7506 46.3582 60.8111 45.8332 60.9124 46.3858C61.0137 46.9384 62.2019 47.5003 62.2019 47.5003L61.7506 46.3582Z" fill="#FFAE00"/>
<path d="M61.8237 46.3303C61.8237 46.3303 62.0079 45.2343 62.3487 45.6764C62.6895 46.1185 62.3211 47.4356 62.3211 47.4356L61.8237 46.3395V46.3303Z" fill="#FFAE00"/>
<path d="M61.1246 44.8577C61.1246 44.8577 60.1851 44.3327 60.2865 44.8853C60.3878 45.4379 61.5759 45.9998 61.5759 45.9998L61.1246 44.8577Z" fill="#FFFDCC"/>
<path d="M61.1978 44.8303C61.1978 44.8303 61.382 43.7343 61.7227 44.1764C62.0635 44.6185 61.6951 45.9356 61.6951 45.9356L61.1978 44.8395V44.8303Z" fill="#FFFDCC"/>
<path d="M63.5829 45.6762C63.5829 45.6762 62.625 45.1789 62.7447 45.7315C62.8645 46.2841 64.0711 46.8091 64.0711 46.8091L63.5921 45.6855L63.5829 45.6762Z" fill="#FFAE00"/>
<path d="M63.647 45.6404C63.647 45.6404 63.7943 44.5443 64.1536 44.968C64.5128 45.3917 64.172 46.7272 64.172 46.7272L63.647 45.6404Z" fill="#FFAE00"/>
<path d="M62.9105 44.185C62.9105 44.185 61.9526 43.6877 62.0724 44.2403C62.1921 44.7929 63.3987 45.3179 63.3987 45.3179L62.9197 44.1942L62.9105 44.185Z" fill="#FFFDCC"/>
<path d="M62.9839 44.1574C62.9839 44.1574 63.1313 43.0614 63.4905 43.4851C63.8497 43.9088 63.5089 45.2443 63.5089 45.2443L62.9839 44.1574Z" fill="#FFFDCC"/>
<path d="M65.4061 45.0971C65.4061 45.0971 64.4482 44.5998 64.568 45.1524C64.6877 45.705 65.8943 46.23 65.8943 46.23L65.4154 45.1064L65.4061 45.0971Z" fill="#FFAE00"/>
<path d="M65.479 45.0603C65.479 45.0603 65.6264 43.9642 65.9856 44.3879C66.3448 44.8116 66.004 46.1471 66.004 46.1471L65.479 45.0603Z" fill="#FFAE00"/>
<path d="M64.7431 43.6137C64.7431 43.6137 63.7852 43.1164 63.9049 43.669C64.0246 44.2216 65.2312 44.7466 65.2312 44.7466L64.7523 43.623L64.7431 43.6137Z" fill="#FFFDCC"/>
<path d="M64.8071 43.5769C64.8071 43.5769 64.9545 42.4808 65.3137 42.9045C65.6729 43.3282 65.3321 44.6637 65.3321 44.6637L64.8071 43.5769Z" fill="#FFFDCC"/>
<g style="mix-blend-mode:multiply" opacity="0.54">
<path d="M26.8724 65.0486L27.3696 67.4886C27.4064 67.6635 27.2959 67.8385 27.121 67.8661C26.9461 67.9029 26.7711 67.7925 26.7435 67.6175L26.0898 64.4502C26.0253 64.4502 25.9609 64.4502 25.8964 64.4502L26.4765 67.415C26.5133 67.5899 26.3936 67.7648 26.2187 67.7925C26.0437 67.8293 25.878 67.7188 25.8412 67.5439L25.2427 64.4778C25.1046 64.4778 24.9757 64.4962 24.8468 64.5146L25.3808 67.5346C25.4084 67.7096 25.2887 67.8753 25.1138 67.9122C24.9389 67.9398 24.7731 67.8201 24.7363 67.6451L24.2115 64.6067C24.1102 64.6251 24.0181 64.6435 23.9168 64.6711L24.4417 67.5254C24.4785 67.7004 24.3588 67.8753 24.1838 67.9029C24.0089 67.9398 23.8432 67.8293 23.8063 67.6451L23.2815 64.8277C23.2815 64.8277 23.2171 64.8461 23.1802 64.8553L23.5485 67.7556C23.5762 67.9306 23.4473 68.0871 23.2723 68.1147C23.0882 68.1331 22.9316 68.0134 22.9132 67.8293L22.5541 65.0579C22.4805 65.0763 22.416 65.1039 22.3424 65.1315L22.6002 67.8845C22.6186 68.0595 22.4897 68.216 22.3055 68.2344C22.1306 68.2528 21.9741 68.1239 21.9556 67.9398L21.7071 65.3709C21.6058 65.4169 21.4953 65.463 21.394 65.509L21.7531 68.1515C21.7807 68.3265 21.6518 68.483 21.4861 68.5106C21.3019 68.5383 21.1454 68.4094 21.1178 68.2344L20.7863 65.7668C20.6482 65.8221 20.5193 65.8865 20.372 65.9326L20.9612 68.6211C20.9981 68.7961 20.8876 68.971 20.7127 69.0078C20.5377 69.0447 20.3628 68.9342 20.3259 68.7592L19.7643 66.1719C19.663 66.2088 19.5709 66.2456 19.4696 66.2824L20.151 68.8145C20.1602 68.8697 20.1602 68.9342 20.151 68.9802C19.9484 68.2252 19.6998 67.2861 19.4144 66.3009C19.35 66.0799 19.2855 65.8589 19.2118 65.6379C18.4568 63.1427 17.4901 60.4726 16.4036 59.3953C14.2306 57.2223 15.888 52.7567 14.0741 48.2175C12.2602 43.6782 9.86631 42.7391 8.42075 40.2807C6.98439 37.8223 4.74699 31.8283 5.40992 31.7362C6.07285 31.6349 6.68055 37.2146 13.0153 40.8147C19.35 44.4148 16.155 50.3904 18.7699 54.8929C20.1234 57.2223 23.2907 60.9882 26.0253 64.0635C26.1358 64.1924 26.2463 64.3121 26.3476 64.4317C26.5317 64.6343 26.7067 64.8277 26.8816 65.0302L26.8724 65.0486Z" fill="#E8DB84"/>
</g>
<g style="mix-blend-mode:multiply">
<path d="M28.4566 67.8857C28.2816 67.9317 28.1066 67.8212 28.0698 67.6462L27.6646 65.9238C27.9777 66.2738 28.2817 66.6054 28.5672 66.9094L28.7053 67.4896C28.7422 67.6646 28.6409 67.8396 28.4659 67.8765L28.4566 67.8857Z" fill="#E8E5D1"/>
</g>
<g style="mix-blend-mode:multiply">
<path d="M13.3468 67.7182L13.5309 69.4492C13.5494 69.6242 13.4205 69.7807 13.2455 69.8083C13.0614 69.8267 12.9141 69.6978 12.8864 69.5229L12.6194 67.0369C12.5181 67.0369 12.4168 67.0185 12.3156 67.0093L12.3984 69.348C12.3984 69.5321 12.2603 69.6794 12.0854 69.6794C11.9012 69.6794 11.7539 69.5505 11.7539 69.3664L11.6618 66.9264C11.4777 66.908 11.2843 66.8896 11.1002 66.8528L11.5237 69.2927C11.5606 69.4677 11.4409 69.6334 11.2659 69.661C11.0818 69.6978 10.916 69.5781 10.8884 69.4032L10.4188 66.7607C10.2623 66.7331 10.1058 66.7146 9.94006 66.687L10.2255 69.3572C10.2347 69.5413 10.115 69.6886 9.93085 69.7163C9.75591 69.7347 9.59938 69.6058 9.57176 69.4308L9.25871 66.4292C7.47247 64.8363 7.04893 55.8131 5.2627 45.3074V45.2798C5.2627 45.2798 6.66222 50.1045 8.52211 55.5645C8.57736 55.7118 8.62339 55.8683 8.67864 56.0248C9.07456 57.1758 9.48889 58.3543 9.90323 59.5144C10.0045 59.7815 10.0966 60.0393 10.1979 60.2971C10.2899 60.5641 10.3912 60.8219 10.4925 61.0797C10.6582 61.5217 10.824 61.9544 10.9897 62.3872C11.091 62.6358 11.1831 62.8751 11.2843 63.1145C11.4869 63.6117 11.6803 64.0997 11.8828 64.5785C11.9473 64.735 12.0117 64.8916 12.0762 65.0481C12.1498 65.223 12.2327 65.3888 12.3064 65.5545C12.3892 65.7387 12.4721 65.9228 12.555 66.0977C12.555 66.1162 12.5642 66.1346 12.5734 66.153C12.7207 66.466 12.868 66.7699 12.9969 67.0645C13.1074 67.2947 13.2179 67.5065 13.3284 67.7275L13.3468 67.7182Z" fill="#E8E5D1"/>
</g>
<g style="mix-blend-mode:multiply">
<path d="M14.3967 69.543C14.3875 69.7088 14.2678 69.8378 14.102 69.847C13.927 69.8654 13.7704 69.7364 13.752 69.5614L13.623 68.272C13.8902 68.7509 14.1388 69.1746 14.3875 69.543H14.3967Z" fill="#E8E5D1"/>
</g>
<g style="mix-blend-mode:multiply">
<path d="M55.7378 61.5956C55.7747 61.7153 55.7378 61.8442 55.655 61.927C55.3051 60.859 54.9184 59.616 54.5869 58.3638C54.6053 58.3914 54.6237 58.419 54.633 58.4558L55.7471 61.5956H55.7378Z" fill="#E8E5D1"/>
</g>
<g style="mix-blend-mode:multiply" opacity="0.29">
<path d="M62.3763 59.4504C62.3763 59.4504 62.3026 59.4964 62.2658 59.5056C62.0908 59.5517 61.9067 59.4504 61.8699 59.2755L61.1241 56.5777C61.0504 56.5961 60.986 56.6145 60.9123 56.6329L61.5292 59.4228C61.566 59.5885 61.4555 59.7634 61.2806 59.8003C61.1057 59.8371 60.9399 59.7266 60.9031 59.5517L60.2954 56.7895C60.2402 56.7987 60.1757 56.8171 60.1113 56.8263L60.7558 59.6253C60.7926 59.8003 60.6821 59.9752 60.5072 60.0121C60.3415 60.0489 60.1665 59.9384 60.1297 59.7634L59.4852 56.9368C59.4852 56.9368 59.3931 56.946 59.3563 56.9552L59.8903 59.653C59.9271 59.8279 59.8166 59.9936 59.6417 60.0305C59.4667 60.0673 59.301 59.9568 59.2642 59.7819L58.7301 57.0657C58.6565 57.0749 58.5644 57.0933 58.4815 57.1025L59.0708 59.653C59.1076 59.8187 58.9972 59.9936 58.8222 60.0397C58.6473 60.0765 58.4723 59.966 58.4355 59.7911L57.837 57.2038C57.745 57.2222 57.6529 57.2406 57.57 57.259L58.1961 59.9936C58.2329 60.1686 58.1225 60.3435 57.9475 60.3804C57.7726 60.4172 57.5976 60.3067 57.5608 60.1317L56.9347 57.3879C56.8334 57.4064 56.7321 57.434 56.6401 57.4616L57.2754 60.4448C57.3122 60.6197 57.2017 60.7947 57.0268 60.8315C56.8518 60.8683 56.6861 60.7578 56.6493 60.5829L56.014 57.6457L55.6273 57.7839C55.6273 57.7839 55.6549 57.8299 55.6641 57.8575L56.502 60.7026C56.5572 60.8775 56.4559 61.0617 56.281 61.0985C56.1152 61.1538 55.9311 61.0525 55.8851 60.8775L55.0472 58.0325C54.8907 58.1061 54.7341 58.1982 54.5868 58.2811C54.3198 57.2959 54.0712 56.3015 53.8871 55.3899C53.841 55.1229 53.795 54.8651 53.7581 54.6257C53.7213 54.4139 53.6937 54.2022 53.6661 54.0088C53.62 53.6497 53.5924 53.3091 53.5924 53.0052C53.5924 52.8487 53.5924 52.7106 53.5924 52.5817C53.62 52.0476 53.5648 51.3939 53.4543 50.6665C53.3714 50.068 53.2517 49.4235 53.0952 48.7514C53.0952 48.7053 53.0768 48.6593 53.0584 48.6133C52.9755 48.2358 52.8834 47.8491 52.7914 47.4623C52.7361 47.269 52.6901 47.0848 52.644 46.8915C51.7509 43.4111 50.5724 39.9399 50.7749 39.7649C51.042 39.5163 53.2057 42.3983 55.6088 46.2009C55.7746 46.4495 55.9311 46.7073 56.0968 46.9651C56.2073 47.1493 56.3178 47.3242 56.4283 47.4992C56.5112 47.6281 56.594 47.757 56.6677 47.8859C58.0028 50.0865 59.347 52.462 60.4243 54.6625C60.544 54.8927 60.6545 55.1137 60.7558 55.3439C60.8571 55.5465 60.9491 55.749 61.0412 55.9516C61.1241 56.1357 61.2069 56.3199 61.2898 56.504C61.7594 57.5629 62.1369 58.5481 62.3947 59.4136L62.3763 59.4504Z" fill="#E8DB84"/>
</g>
<g style="mix-blend-mode:multiply" opacity="0.29">
<path d="M49.6426 26.0008C48.6575 24.5184 48.9613 24.988 43.7315 19.4267C40.3892 15.8819 36.7431 10.4587 34.5425 7.01514C34.5425 7.01514 34.5609 7.03355 34.5701 7.04276C37.9953 10.4311 41.0798 13.3038 43.9341 15.974C45.4257 18.3034 47.3408 20.9644 48.3812 22.2626C49.9281 24.187 50.637 27.4832 49.6519 26.0008H49.6426Z" fill="#E8DB84"/>
</g>
<g style="mix-blend-mode:soft-light" opacity="0.56">
<path d="M48.9337 43.4025C48.7035 43.2552 47.5342 33.4585 43.4461 25.2087C41.1074 20.5037 34.3031 11.4712 31.6146 7.35549C29.9572 4.83266 28.1526 2.7702 26.2559 1.37988C27.7106 1.95074 29.193 2.74258 30.6938 3.78302C30.703 3.79223 30.7215 3.81064 30.7307 3.81985C32.0657 4.97998 33.3824 6.42555 34.4965 8.23941C39.0081 15.5685 43.4921 22.0782 44.8917 25.6138C49.5138 37.2888 49.7716 43.9181 48.9429 43.4025H48.9337Z" fill="#FFF9A5"/>
</g>
<g style="mix-blend-mode:soft-light" opacity="0.74">
<path d="M72.265 56.6246C72.0993 56.689 71.9151 56.6154 71.8414 56.4404L70.58 53.3559C70.58 53.3559 70.5064 53.4112 70.4788 53.4296L71.4271 56.7719C71.4824 56.9376 71.3811 57.1218 71.2061 57.1678C71.0404 57.2138 70.8562 57.1126 70.8102 56.9376L69.9079 53.8071C69.8342 53.8531 69.7514 53.9084 69.6777 53.9452L70.4788 57.0297C70.5248 57.1954 70.4235 57.3796 70.2486 57.4256C70.0736 57.4716 69.8987 57.3704 69.8527 57.1954L69.1068 54.2859C69.0332 54.3319 68.9687 54.3687 68.8951 54.4056L69.604 57.2415C69.6501 57.4164 69.5488 57.5913 69.3739 57.6374C69.1989 57.6742 69.024 57.5729 68.9779 57.398L68.2966 54.7002C68.2229 54.737 68.1585 54.7647 68.094 54.8015L68.5636 57.9228C68.6004 58.0977 68.4715 58.2543 68.2966 58.2911C68.1217 58.3187 67.9651 58.1898 67.9375 58.0241L67.4955 55.0501C67.3943 55.0869 67.2838 55.1237 67.1825 55.1514L67.5784 58.0149C67.6061 58.199 67.4771 58.3556 67.3022 58.3832C67.1272 58.4108 66.9707 58.2819 66.9431 58.107L66.5564 55.3447C66.4827 55.3631 66.3999 55.3816 66.3262 55.4L66.8326 57.9873C66.8694 58.1714 66.759 58.3371 66.584 58.3648C66.4091 58.4016 66.2341 58.2911 66.2065 58.1162L65.7001 55.5473C65.6264 55.5565 65.562 55.5749 65.4883 55.5933L66.142 58.42C66.1789 58.5857 66.0684 58.7607 65.8935 58.8067C65.7185 58.8435 65.5528 58.7331 65.5067 58.5581L64.9267 56.0353C64.9267 56.0353 64.9267 55.9985 64.9175 55.98C64.9083 55.8972 64.8806 55.8143 64.8622 55.7222C64.8346 55.5841 64.807 55.4368 64.7702 55.2987C64.5216 54.1201 64.2085 52.9048 63.831 51.671C63.8218 51.6341 63.8126 51.5973 63.7942 51.5605C63.6929 51.2474 63.5916 50.9252 63.4903 50.6121C63.3706 50.253 63.2417 49.8847 63.1128 49.5164C63.0668 49.3875 63.0207 49.2494 62.9747 49.1205C62.8366 48.743 62.6801 48.3563 62.5328 47.9696C62.1276 46.9476 61.6673 45.9071 61.1608 44.8667C57.0543 36.4327 50.8025 28.6156 51.5115 27.9895C52.1928 27.391 54.3474 28.0908 56.9162 29.3154C58.1316 30.8162 59.3286 32.4091 60.5163 34.1308C65.1845 40.8891 71.2798 51.6618 71.1417 52.9232L72.4768 56.201C72.5412 56.3668 72.4676 56.5601 72.2926 56.6246H72.265Z" fill="#FFF9A6"/>
</g>
</svg>
