<svg width="34" height="76" viewBox="0 0 34 76" fill="none" xmlns="http://www.w3.org/2000/svg">
<path d="M11.3641 55.0161L11.1464 54.9073C8.23763 60.5566 5.94228 65.9388 5.94228 69.8073C5.94228 70.9747 6.15005 72.0037 6.64474 72.8644C7.12953 73.7153 7.89135 74.3881 8.94009 74.8036C10.0581 75.2488 11.0969 75.4566 12.0566 75.4566C14.4212 75.4566 16.2912 74.1704 17.7159 72.1224C19.8628 69.0454 21.0995 64.2272 21.8317 59.0627C22.5539 53.908 22.7419 48.4071 22.7419 43.9945C22.7419 38.9289 22.4846 35.3077 22.4846 35.2979V35.1396L19.8826 34.0908L19.7935 34.3382C19.7935 34.3382 19.5462 35.0406 19.1109 36.2477C17.795 39.8688 14.7081 47.9817 11.1365 54.8974L11.3542 55.0062L11.5718 55.115C16.3505 45.8545 20.2487 34.4965 20.2487 34.4866L20.0112 34.4074L19.9222 34.635L22.1285 35.5254L22.2175 35.2979L21.9702 35.3176C21.9702 35.3176 22.0295 36.218 22.0988 37.7515C22.1581 39.285 22.2274 41.4518 22.2274 43.9747C22.2274 49.8318 21.8811 57.6182 20.4168 63.9205C19.6847 67.0667 18.6657 69.8468 17.2904 71.8157C15.9053 73.7846 14.2036 74.9322 12.0368 74.9322C11.1464 74.9322 10.1768 74.7344 9.09839 74.3089C8.1387 73.9231 7.47581 73.3492 7.05038 72.5874C6.61506 71.8256 6.41718 70.8857 6.41718 69.7776C6.41718 66.0971 8.66306 60.7248 11.5718 55.1052L11.3542 54.9963L11.3641 55.0161Z" fill="#41557A"/>
<path d="M10.1372 54.0069L9.92947 53.8783C6.5557 59.2902 4.65609 64.9395 4.65609 68.9168C4.65609 70.1139 4.82429 71.1627 5.20025 72.0234C5.56632 72.8743 6.15005 73.5273 6.94155 73.8933C7.74295 74.2594 8.51466 74.4375 9.25669 74.4375C10.6715 74.4375 11.928 73.7845 13.0262 72.6863C14.9555 70.7669 16.4593 67.4723 17.6664 63.6038C21.2677 52.0182 22.1087 35.2285 22.1087 35.2186V35.0801L20.3377 33.7939L20.219 34.071C20.219 34.071 19.9222 34.7536 19.3879 35.9211C17.7851 39.4235 14.0552 47.2593 9.93936 53.8684L10.1471 53.997L10.3549 54.1256C15.8657 45.2806 20.6642 34.2688 20.6741 34.2688L20.4465 34.1699L20.2981 34.3678L21.7228 35.3967L21.8712 35.1989H21.6239C21.6239 35.1989 21.5942 35.7925 21.5151 36.861C21.2578 40.5811 20.4564 49.901 18.5667 58.2711C17.6268 62.4562 16.4 66.4038 14.8467 69.2828C14.0749 70.7273 13.2142 71.8948 12.2842 72.6962C11.3542 73.4976 10.3549 73.9329 9.25669 73.9329C8.6037 73.9329 7.90125 73.7746 7.14932 73.4283C6.48644 73.1216 5.99175 72.5775 5.65536 71.8057C5.31898 71.0439 5.15078 70.0546 5.15078 68.897C5.15078 65.0681 7.01081 59.4682 10.345 54.1256L10.1372 53.997V54.0069Z" fill="#41557A"/>
<path d="M8.63337 53.2849L8.43549 53.1365C6.39738 55.9958 4.55714 58.7957 3.22148 61.3879C1.88582 63.9702 1.05475 66.3249 1.05475 68.3036C1.05475 70.0845 1.7671 71.5785 3.38968 72.5085C4.69565 73.2604 5.84333 73.6067 6.89206 73.6067C8.91039 73.6067 10.4241 72.2809 11.651 70.2428C12.8877 68.2047 13.8968 65.4245 14.9555 62.3674C18.8833 50.9599 21.4161 35.0111 21.4161 35.0111L21.4359 34.8726L20.1002 33.7744L19.9617 34.0514C19.9617 34.0514 19.6154 34.7143 19.0119 35.8521C17.1915 39.2457 12.9668 46.8342 8.44538 53.1563L8.64326 53.3047L8.84113 53.4531C14.906 44.9741 20.397 34.2988 20.397 34.2889L20.1794 34.1801L20.0211 34.368L21.0105 35.1892L21.1688 35.0012L20.9214 34.9617C20.9214 34.9617 20.7631 35.951 20.4663 37.6231C19.566 42.6293 17.4091 53.7301 14.4806 62.2387C13.4318 65.2959 12.4227 68.0563 11.2255 70.0251C10.0185 72.0039 8.66305 73.1516 6.88217 73.1516C5.95216 73.1516 4.88363 72.835 3.62713 72.1127C2.15296 71.252 1.54944 69.9954 1.53954 68.3432C1.53954 66.503 2.34094 64.1977 3.65681 61.655C4.97268 59.1024 6.80302 56.3124 8.83124 53.4729L8.63337 53.3245V53.2849Z" fill="#41557A"/>
<path d="M7.56486 52.1067L7.35709 51.9781C5.45749 55.0451 3.63704 58.0528 2.29149 60.8231C0.936044 63.5834 0.0456066 66.0866 0.0456066 68.1939C0.0456066 69.9154 0.659019 71.3797 2.1134 72.3691C3.36991 73.2397 4.41865 73.6454 5.33876 73.6454C6.26878 73.6454 7.0207 73.2101 7.63412 72.4779C8.54434 71.3896 9.19733 69.6582 9.86021 67.5607C10.5231 65.4632 11.186 62.9997 12.0962 60.457C14.1244 54.7681 16.5484 48.3866 18.4579 43.4299C19.4176 40.9465 20.2388 38.8293 20.8324 37.3254C21.426 35.8216 21.7723 34.941 21.7723 34.941L21.8613 34.7234L19.0515 33.3877L18.9328 33.5757C18.9328 33.5757 12.9965 42.8659 7.35709 51.9682L7.56486 52.0968L7.77263 52.2254C10.5923 47.6743 13.4813 43.0737 15.6678 39.6208C16.7661 37.8894 17.6763 36.4449 18.3293 35.4357C18.9724 34.4265 19.3483 33.8428 19.3483 33.8428L19.1406 33.7142L19.0317 33.9417L21.4359 35.0894L21.5447 34.8619L21.3172 34.7728C21.3172 34.7728 15.6975 48.9209 11.6312 60.3086C10.4143 63.7219 9.62276 66.9869 8.73232 69.3614C8.2871 70.5486 7.8122 71.5182 7.25815 72.1712C6.7041 72.8242 6.11048 73.1606 5.33876 73.1606C4.57695 73.1606 3.60736 72.8044 2.39043 71.9634C1.08445 71.0532 0.550188 69.8066 0.540294 68.1939C0.540294 66.2251 1.39116 63.7615 2.72681 61.0308C4.06247 58.3002 5.87303 55.3024 7.77263 52.2353L7.56486 52.1067Z" fill="#41557A"/>
<path d="M20.1695 34.1495L19.9617 34.011C19.9617 34.011 15.6678 40.2737 11.3641 47.793C9.21712 51.5526 7.06028 55.6387 5.4476 59.4181C3.83492 63.2075 2.74661 66.6802 2.74661 69.2822C2.74661 70.9741 3.22151 72.3295 4.37908 73.0913C5.03207 73.5167 5.66527 73.7245 6.27868 73.7245C7.16912 73.7245 7.97051 73.2793 8.68286 72.5472C10.81 70.331 12.4128 65.3841 14.075 59.8733C17.5378 48.4262 20.4169 34.199 20.4169 34.199L20.6543 33.0117L19.9716 34.011L20.1794 34.1495L19.9321 34.1C19.9321 34.1 19.754 34.9905 19.4275 36.4943C18.4579 41.0257 16.1823 51.1668 13.6001 59.7249C12.492 63.3855 11.4036 66.7989 10.2065 69.2822C9.60298 70.5189 8.97967 71.5182 8.32668 72.2009C7.6638 72.8835 7.00092 73.2298 6.27868 73.2298C5.78399 73.2298 5.24973 73.0616 4.6561 72.6758C3.69641 72.0525 3.25119 70.8949 3.25119 69.2822C3.25119 66.8187 4.30982 63.3658 5.91261 59.616C8.31679 53.9865 11.9379 47.6446 14.9555 42.7175C16.4594 40.2539 17.8247 38.1466 18.8042 36.6526C19.7837 35.1587 20.3872 34.288 20.3872 34.2781L20.1794 34.1396L20.1695 34.1495Z" fill="#41557A"/>
<path d="M21.4854 34.9317L21.2875 34.7833C21.2875 34.7833 16.8056 41.0757 12.3238 48.6642C10.0878 52.4634 7.84189 56.5891 6.15995 60.418C4.47801 64.2568 3.35012 67.7988 3.34023 70.4701C3.34023 71.4496 3.49853 72.3202 3.84481 73.0523C4.19109 73.7746 4.74514 74.3484 5.51685 74.7046C6.19952 75.0311 6.8624 75.1795 7.5055 75.1795C8.85105 75.1795 10.068 74.5067 11.1662 73.3887C13.0856 71.4199 14.6785 68.0461 16.024 64.0787C20.0409 52.1864 21.7327 34.9515 21.7327 34.9416L21.8218 34.0215L21.2875 34.7734L21.4854 34.9218L21.238 34.902C21.238 34.902 21.1787 35.5253 21.05 36.6137C20.6048 40.4326 19.3582 49.9999 17.1222 58.5976C16.0042 62.8915 14.6389 66.9479 13.0262 69.9061C12.2149 71.3902 11.3443 72.5873 10.4242 73.4184C9.49414 74.2396 8.53445 74.6848 7.5055 74.6848C6.94155 74.6848 6.34793 74.5463 5.72462 74.2594C5.06174 73.9428 4.59673 73.4679 4.29003 72.8347C3.98332 72.2015 3.83492 71.4001 3.83492 70.4701C3.83492 67.9274 4.93312 64.425 6.61506 60.6159C9.11818 54.9072 12.8976 48.5158 16.0339 43.5492C17.607 41.0658 19.0218 38.9486 20.0409 37.4447C21.0599 35.9409 21.6832 35.0603 21.6931 35.0603L21.4953 34.9119L21.4854 34.9317Z" fill="#41557A"/>
<path d="M20.6147 33.9613L20.3872 33.8623C20.3872 33.8623 16.9936 41.2926 13.61 49.8408C11.9181 54.1149 10.2164 58.666 8.9401 62.7125C7.66381 66.7591 6.81295 70.2912 6.81295 72.5766C6.81295 73.6649 7.00093 74.496 7.5253 74.9709C8.3069 75.6635 9.16766 75.9998 10.0284 75.9998C11.5125 75.9998 12.9669 75.05 14.2926 73.5264C15.6184 72.0028 16.8155 69.8756 17.7653 67.422C19.2395 63.6326 19.9914 55.3021 20.407 47.8719C20.8126 40.4516 20.8621 33.9712 20.8621 33.9613V32.8037L20.3872 33.8525L20.6147 33.9514H20.3674C20.3674 33.9514 20.3575 35.5641 20.2981 38.1167C20.2091 41.9356 20.0013 47.8422 19.5462 53.4817C19.0911 59.1211 18.3787 64.5132 17.3201 67.234C16.3802 69.6382 15.2029 71.7257 13.9266 73.19C12.6503 74.6642 11.2948 75.4953 10.0383 75.4953C9.30617 75.4953 8.57404 75.2182 7.86169 74.5949C7.5253 74.308 7.31753 73.6056 7.31753 72.5667C7.31753 70.4 8.1585 66.8778 9.4249 62.851C11.3245 56.806 14.1838 49.6033 16.5682 43.9243C17.7554 41.0848 18.8339 38.6113 19.6056 36.8602C20.3773 35.109 20.8522 34.0701 20.8522 34.0602L20.6246 33.9613H20.6147Z" fill="#41557A"/>
<path d="M33.4568 1.86629C33.1699 1.07479 32.5268 0.411904 31.6562 0.134879C30.1721 -0.330128 28.5891 0.48116 28.1241 1.96522C28.0252 2.27193 27.9856 2.57864 27.9955 2.88534C27.9955 3.10301 28.0252 3.32067 28.0845 3.52844C28.322 4.42877 29.0046 5.19059 29.9544 5.49729C30.9042 5.804 31.9035 5.56655 32.6159 4.96303C32.6455 4.94324 32.6653 4.92346 32.695 4.89377C33.0512 4.57717 33.3282 4.15174 33.4865 3.65706C33.6844 3.04364 33.6547 2.41044 33.4469 1.85639L33.4568 1.86629ZM32.23 4.0627C32.1508 4.16164 32.0519 4.24079 31.953 4.31994C31.4781 4.67611 30.8548 4.81462 30.2414 4.61675C29.6279 4.41887 29.1926 3.95387 29.0145 3.38992C28.8958 3.03375 28.8859 2.638 29.0145 2.25214C29.252 1.49032 29.9346 0.985742 30.6866 0.936273C30.9141 0.916485 31.1516 0.946167 31.3791 1.02532C32.3784 1.34192 32.9226 2.40055 32.606 3.39982C32.5268 3.65706 32.3883 3.88461 32.23 4.07259V4.0627Z" fill="#BEE6A3"/>
<g style="mix-blend-mode:multiply">
<path d="M32.695 4.90345C32.695 4.90345 32.6455 4.94302 32.6158 4.9727C31.9035 5.57622 30.9042 5.80378 29.9544 5.50697C29.0046 5.21015 28.3219 4.43844 28.0845 3.53811C28.0944 3.53811 28.1043 3.52822 28.1142 3.52822C28.1834 3.49854 28.2428 3.47875 28.2725 3.46885C28.2725 3.46885 28.2923 3.46885 28.3022 3.46885C28.8463 2.96427 28.5099 2.57842 28.8661 1.94522C29.5883 0.629347 30.6074 0.936053 30.6767 0.95584C29.9247 1.0152 29.2421 1.50989 29.0046 2.27171C28.8859 2.65757 28.8859 3.05332 29.0046 3.40949C29.1827 3.97344 29.618 4.44834 30.2314 4.63632C30.8449 4.8243 31.4682 4.69568 31.9431 4.3395C32.042 4.26035 32.1409 4.1812 32.2201 4.08227C32.2201 4.35929 32.4378 4.666 32.695 4.92324V4.90345Z" fill="#BBC3D4"/>
</g>
<path d="M32.8335 6.59568L23.6719 35.5349C23.3454 36.5639 22.2472 37.1278 21.2182 36.8013L19.0812 36.1186C18.9921 36.089 18.9031 36.0593 18.8239 36.0197C17.9632 35.6042 17.5081 34.6148 17.8049 33.6749L26.9665 4.74555C27.1248 4.23107 27.4909 3.82543 27.9262 3.59787C27.9856 3.56819 28.035 3.5484 28.0746 3.52862C28.0845 3.52862 28.0944 3.51872 28.1043 3.51872C28.1735 3.48904 28.2329 3.46925 28.2626 3.45936C28.2626 3.45936 28.2824 3.45936 28.2923 3.45936C28.5198 3.4 28.7573 3.38021 28.9947 3.4C29.1332 3.40989 29.2718 3.43957 29.4103 3.47915L31.5473 4.16182C31.6067 4.1816 31.6759 4.20139 31.7353 4.23107C31.8046 4.26076 31.8738 4.29044 31.9332 4.33001C32.2102 4.48831 32.4378 4.71587 32.6059 4.97311C32.9028 5.43811 33.0017 6.03174 32.8236 6.60557L32.8335 6.59568Z" fill="#D95880"/>
<path d="M24.4436 33.1011L23.6719 35.525C23.3454 36.554 22.2472 37.1179 21.2182 36.7914L19.0812 36.1088C18.0522 35.7823 17.4883 34.6841 17.8049 33.6551L18.537 31.3301C18.8635 31.9435 20.219 32.7449 21.2974 33.0912C22.4945 33.4671 23.662 33.477 24.4337 33.0912L24.4436 33.1011Z" fill="#BEE6A3"/>
<path d="M32.8335 6.59581L32.0717 8.99999C32.0717 8.99999 30.7162 8.81201 29.0541 8.27775C27.3919 7.74348 26.2047 7.13997 26.2047 7.13997L26.9665 4.73578C27.1248 4.22131 27.4908 3.81566 27.9262 3.58811C27.9855 3.55843 28.035 3.53864 28.0746 3.51885C28.0845 3.51885 28.0944 3.50896 28.1043 3.50896C28.1735 3.47928 28.2329 3.45949 28.2626 3.4496C28.2626 3.4496 28.2823 3.4496 28.2922 3.4496C28.5198 3.39023 28.7572 3.37045 28.9947 3.39023C29.1332 3.40013 29.2717 3.42981 29.4102 3.46938L31.5473 4.15205C31.6858 4.19163 31.8144 4.25099 31.9331 4.32025C32.2102 4.47855 32.4377 4.7061 32.6059 4.96334C32.9027 5.42835 33.0017 6.02197 32.8236 6.59581H32.8335Z" fill="#BEE6A3"/>
<g style="mix-blend-mode:soft-light" opacity="0.8">
<path d="M33.4568 1.8661C32.8929 1.97493 32.8236 0.500757 31.3791 0.283095C29.2124 -0.0532931 28.4901 1.67811 28.3417 2.28163C28.1933 2.88515 28.0053 2.88515 28.0053 2.88515C28.0053 2.57845 28.035 2.27174 28.134 1.96503C28.599 0.48097 30.182 -0.340212 31.666 0.134688C32.5367 0.411713 33.1798 1.0647 33.4667 1.8661H33.4568Z" fill="#E8F0FF"/>
</g>
<g style="mix-blend-mode:multiply">
<path d="M32.8335 6.59618L23.6719 35.5354C23.3454 36.5644 22.2472 37.1283 21.2182 36.8018L19.0812 36.1191C18.9921 36.0895 18.9031 36.0598 18.8239 36.0202C20.6147 36.3764 21.8613 35.6739 22.7122 34.9418C23.5927 34.1899 31.0328 10.435 31.765 7.84279C32.4674 5.32978 31.7946 4.28104 31.7452 4.22168C31.8144 4.25136 31.8837 4.28104 31.9431 4.32062C32.2201 4.47892 32.4476 4.70647 32.6158 4.96371C32.9126 5.42872 33.0116 6.02234 32.8335 6.59618Z" fill="#C1CDE3"/>
</g>
<g style="mix-blend-mode:soft-light" opacity="0.8">
<path d="M29.0937 4.47852C29.6081 4.6566 26.2838 11.1667 23.8797 18.2803C21.5546 25.1466 20.1695 32.6262 19.843 33.0616C19.1801 33.9421 18.1116 34.3181 18.8338 31.7358C19.3681 29.8164 23.85 15.0549 26.7291 7.96112C27.7283 5.49757 28.8364 4.39937 29.0937 4.48841V4.47852Z" fill="#E8F0FF"/>
</g>
</svg>
