<svg width="50" height="52" viewBox="0 0 50 52" fill="none" xmlns="http://www.w3.org/2000/svg">
<path d="M47.2535 34.8272C47.8735 35.5272 48.3235 36.4172 48.2435 37.5372C48.0835 39.9872 47.7435 43.4872 46.6735 45.0972C46.3535 45.5772 45.9935 46.0272 45.6035 46.4272C43.5235 48.6272 40.5935 49.7772 37.5735 50.3272C31.1435 51.5072 24.3135 49.9872 24.3135 49.9872C23.4835 50.9772 22.5135 51.5372 21.4535 51.7972C21.0335 51.8972 20.5935 51.9572 20.1435 51.9772C19.3335 51.9972 18.3435 51.8272 17.2335 51.4772C13.6235 50.3372 8.89355 47.3772 6.06355 43.8772C4.97355 42.5272 4.16355 41.1072 3.81355 39.6772C3.19355 37.2172 2.86355 33.2772 3.95355 31.0872C3.94355 31.0672 -0.536453 21.8372 0.0535471 14.4372C0.343547 10.8672 1.72355 9.01721 5.71355 6.98721C10.2635 4.66721 13.2835 8.80721 13.2835 8.80721C13.2835 8.80721 15.2835 -1.68279 23.1335 0.327206C29.7635 2.02721 28.4735 8.64721 28.4035 8.98721C28.5835 8.68721 34.8535 -0.162794 40.8435 5.61721C46.7935 11.3572 40.0035 18.7972 39.7535 19.0472C40.0635 18.9072 47.9135 15.5572 49.6635 22.6872C51.5935 30.5372 44.4935 32.9872 44.4935 32.9872C44.4935 32.9872 45.3235 33.2872 46.2135 33.9072C46.5635 34.1572 46.9335 34.4672 47.2535 34.8272Z" fill="#14DE79"/>
<g style="mix-blend-mode:multiply" opacity="0.16">
<path d="M44.5035 32.9872C44.5035 32.9872 45.3335 33.2872 46.2235 33.9072L35.5835 37.0972L37.5835 50.3172C31.1535 51.4972 24.3235 49.9772 24.3235 49.9772V45.7272L7.36354 32.2272L6.07354 43.8572C4.98354 42.5072 4.17354 41.0872 3.82354 39.6572C3.20354 37.1972 2.87354 33.2572 3.96354 31.0672C3.94354 31.0672 -0.536455 21.8372 0.0535447 14.4372C0.343545 10.8672 1.72354 9.01721 5.71354 6.98721C10.2635 4.66721 13.2835 8.80721 13.2835 8.80721C13.2835 8.80721 15.2835 -1.68279 23.1335 0.327206C29.7635 2.02721 28.4735 8.64721 28.4035 8.98721C28.5835 8.68721 34.8535 -0.162794 40.8435 5.61721C46.7935 11.3572 40.0035 18.7972 39.7535 19.0472C40.0635 18.9072 47.9135 15.5572 49.6635 22.6872C51.5935 30.5372 44.4935 32.9872 44.4935 32.9872H44.5035Z" fill="#004A45"/>
</g>
<g style="mix-blend-mode:lighten" opacity="0.09">
<path d="M48.2535 37.5371C48.0935 39.9871 47.7535 43.4871 46.6835 45.0971C46.3635 45.5771 46.0035 46.0271 45.6135 46.4271C45.6135 46.4271 46.1835 45.3571 46.1935 43.5971C46.2035 41.4771 45.7835 37.4571 45.7835 37.4571L47.2635 34.8271C47.8835 35.5271 48.3335 36.4171 48.2535 37.5371Z" fill="white"/>
</g>
<g style="mix-blend-mode:lighten" opacity="0.09">
<path d="M21.4535 51.7875C21.0335 51.8875 20.5935 51.9475 20.1435 51.9675C19.3335 51.9875 18.3435 51.8175 17.2335 51.4675L17.3735 43.0475L22.5135 39.8975C22.5135 39.8975 21.5735 51.6175 21.4435 51.7975L21.4535 51.7875Z" fill="white"/>
</g>
<path d="M24.3135 45.7273C19.8035 51.1173 10.6835 43.8973 10.1335 43.4673C9.5835 43.0473 0.323502 36.0173 4.4135 30.3073C4.4135 30.3073 -6.2665 11.4573 5.7135 5.34727C10.2735 3.02727 13.2935 7.16727 13.2935 7.16727C13.2935 7.16727 13.8235 -0.922729 21.8735 0.0872706C29.1535 0.997271 28.0435 7.94727 27.9835 8.27727C28.1535 7.97727 33.4135 -0.24273 40.0035 4.86727C46.5935 9.97727 40.0135 17.1673 39.7635 17.4073C40.0735 17.2673 46.5235 14.4573 49.2235 21.2773C52.2035 28.8273 44.5035 31.3473 44.5035 31.3473C44.5035 31.3473 49.2735 33.2473 48.1635 38.2373C45.2335 51.3673 24.3235 45.7273 24.3235 45.7273H24.3135Z" fill="#4CE699"/>
<path d="M31.7336 7.88734C33.0736 6.25734 35.3736 3.75734 38.7636 6.17734C41.6236 8.22734 40.6736 10.4373 38.5636 12.3473C37.3636 13.4273 33.9336 15.4973 30.8936 18.7973C25.3636 24.7873 18.1536 32.8473 17.7436 32.5073C17.3336 32.1673 30.2136 9.75734 31.7336 7.88734Z" fill="#6BFFB5"/>
<path d="M15.7536 7.82748C16.5036 4.62748 17.4736 1.86748 21.6236 2.23748C25.1236 2.54748 22.8836 6.30748 22.0136 8.71748C21.5236 10.0875 14.6236 31.9875 14.1036 31.9075C13.5836 31.8275 15.2636 9.94748 15.7536 7.82748Z" fill="#6BFFB5"/>
<path d="M1.8935 14.2273C2.2235 12.0773 3.2735 8.68734 7.2635 7.52734C10.6335 6.54734 7.6135 14.7273 7.5535 17.3373C7.4535 22.0873 9.6735 27.9673 9.1635 28.0873C8.6535 28.2073 1.0535 19.7073 1.8935 14.2273Z" fill="#6BFFB5"/>
<path d="M36.6535 45.1074C43.1135 45.2874 45.6535 42.0874 46.7835 38.0874C47.9935 33.8274 41.7335 36.7474 32.6035 39.1074C26.9435 40.5674 21.0635 37.7274 20.9635 38.2474C20.8635 38.7674 24.0835 44.7574 36.6435 45.1074H36.6535Z" fill="#6BFFB5"/>
<path d="M39.7336 21.497C42.7036 20.097 45.8736 18.437 47.7636 22.147C50.2936 27.127 39.9836 30.327 36.1336 31.427C29.1336 33.427 19.0536 35.187 18.8636 34.687C18.6736 34.187 37.8036 22.407 39.7436 21.497H39.7336Z" fill="#6BFFB5"/>
<path d="M5.64355 37.0271C5.64355 37.0271 5.69355 33.8571 9.17355 32.9371C9.17355 32.9371 4.77355 32.0071 5.64355 37.0271Z" fill="#14DE79"/>
<path d="M10.2635 41.1873C10.2635 41.1873 10.3135 38.0173 13.7935 37.0973C13.7935 37.0973 9.39355 36.1673 10.2635 41.1873Z" fill="#14DE79"/>
<path d="M10.2635 41.1874C10.2635 41.1874 11.6735 41.0574 12.6835 39.8674C13.2035 39.2374 13.5735 38.7074 13.7935 37.1074C13.7935 37.1074 12.1535 37.0874 11.1135 38.3374C10.6035 38.9474 10.1535 39.9474 10.2635 41.1974V41.1874Z" fill="#6BFFB5"/>
<path d="M5.64354 37.0271C5.64354 37.0271 7.05354 36.8771 8.06354 35.6771C8.58354 35.0471 8.95354 34.5471 9.17354 32.9471C9.17354 32.9471 7.53354 32.8971 6.49354 34.1371C5.98354 34.7471 5.53354 35.7771 5.64354 37.0271Z" fill="#6BFFB5"/>
<path d="M15.3235 45.0971C15.3235 45.0971 16.6935 44.9471 17.6935 43.7571C18.2135 43.1271 18.6235 42.6271 18.8535 41.0271C18.8535 41.0271 17.1635 40.9771 16.1235 42.2171C15.6135 42.8271 15.2035 43.8471 15.3235 45.0971Z" fill="#6BFFB5"/>
<path d="M15.3335 45.1072C15.3335 45.1072 15.3835 41.9372 18.8635 41.0172C18.8635 41.0172 14.4635 40.0872 15.3335 45.1072Z" fill="#14DE79"/>
<path d="M34.7036 27.6974C34.7036 27.6974 47.1236 26.9674 46.7736 23.5874C46.4236 20.2074 43.1536 21.3674 40.7336 23.9674C38.3136 26.5674 34.6936 27.6974 34.6936 27.6974H34.7036Z" fill="#92FFC8"/>
<path d="M32.9136 42.2171C32.9136 42.2171 41.6136 45.1171 45.0436 40.0071C46.2736 38.1771 43.7436 38.1971 41.7836 39.4071C38.8836 41.1871 32.9136 42.2171 32.9136 42.2171Z" fill="#92FFC8"/>
<path d="M29.4535 16.5275C29.4535 16.5275 30.9135 7.47747 37.0335 6.80747C39.2235 6.56747 38.0435 8.79747 36.0535 9.97747C33.1335 11.7175 29.4535 16.5275 29.4535 16.5275Z" fill="#92FFC8"/>
</svg>
