<svg width="63" height="65" viewBox="0 0 63 65" fill="none" xmlns="http://www.w3.org/2000/svg">
<path d="M24.223 59.6987C22.143 57.6787 11.003 47.9187 6.47302 43.9587C6.47302 43.4187 6.71302 42.9487 6.75302 42.5287C6.75302 42.4987 6.75302 42.4787 6.75302 42.4487C6.79302 41.5187 6.57302 40.9287 6.57302 40.9287C6.57302 40.9287 6.87302 41.1787 7.39302 41.6187C10.933 44.6387 24.743 56.6687 24.213 59.6887L24.223 59.6987Z" fill="#B2B2B2"/>
<path d="M24.2231 59.6985C24.2231 59.6985 24.2231 59.7485 24.2031 59.7785C24.1731 59.8885 24.1331 59.9785 24.0531 60.0585L14.8331 53.7685L6.53307 48.1085C6.48307 47.3385 6.90307 46.8385 6.89307 46.1185C6.89307 45.4585 6.45307 44.5685 6.47307 43.9985C6.47307 43.9985 6.47307 43.9685 6.47307 43.9585C11.0031 47.9185 22.1431 57.6785 24.2231 59.6985Z" fill="#B2B2B2"/>
<path d="M24.0631 60.0589C23.9731 60.1489 23.8431 60.2289 23.6831 60.2889L19.6131 58.4989L7.12309 52.9889C6.95309 52.2089 7.22309 51.4989 7.12309 50.6189C7.04309 49.8389 6.58309 48.8989 6.54309 48.1089L14.8431 53.7689L24.0631 60.0689V60.0589Z" fill="#B2B2B2"/>
<path d="M23.6831 60.2888C23.4831 60.3588 23.233 60.3988 22.923 60.3888C22.473 60.3888 22.0131 60.3588 21.5831 60.3488H21.563C15.213 60.0988 10.6531 59.1588 8.29305 55.9588C7.99305 55.5588 8.14305 55.0788 7.94305 54.4888C7.78305 54.0488 7.25305 53.5188 7.12305 52.9888L19.6131 58.4888L23.6831 60.2888Z" fill="#B2B2B2"/>
<path d="M49.3831 51.2087C49.2731 51.2987 48.7031 51.7887 48.2031 52.9287C48.0631 53.2287 48.0831 53.7587 48.0131 54.2087C47.9931 54.3887 47.9531 54.5487 47.8831 54.6987C47.7631 54.7287 47.6331 54.7587 47.5031 54.7887L46.5731 55.0187L46.1231 55.1187C46.1231 55.1187 46.1231 55.1187 46.1031 55.1187L45.8531 55.1687C45.4731 55.2587 45.0631 55.3587 44.6231 55.4587L43.7131 55.6787L41.7531 56.1287L41.2331 56.2587C40.8931 56.3387 40.5331 56.4187 40.1831 56.5087C39.4631 56.6787 38.7431 56.8487 38.0031 57.0287C37.4531 57.1587 36.8931 57.2887 36.3431 57.4187L35.7931 57.5487C35.4231 57.6287 35.0531 57.7187 34.6831 57.8087C34.3231 57.8887 33.9631 57.9687 33.6031 58.0587L32.0731 58.4187C32.0731 58.4187 32.0231 58.4187 32.0131 58.4387L30.1131 58.8787C29.9531 58.9087 29.7931 58.9487 29.6331 58.9887C29.3231 59.0587 29.0431 59.1287 28.7631 59.1987H28.7131C28.4831 59.2487 28.2631 59.3087 28.0531 59.3587L27.8731 59.4087C27.7131 59.4487 27.5531 59.4787 27.4131 59.5187L27.1431 59.5787C26.9331 59.6287 26.7431 59.6687 26.5731 59.7187L25.9131 59.8687C29.3331 56.4687 48.7931 51.3587 49.3831 51.1987V51.2087Z" fill="#B2B2B2"/>
<path d="M47.8731 54.6987C47.5631 55.3687 46.7431 55.9987 46.3631 56.7387C46.0431 57.3587 46.1731 58.0887 45.8231 58.7087L35.7231 59.5287L25.5331 60.3587C25.6031 60.2087 25.7431 60.0487 25.9031 59.8787L26.5631 59.7287C26.7331 59.6787 26.9231 59.6387 27.1331 59.5887L27.4031 59.5287C27.5531 59.4887 27.7031 59.4587 27.8631 59.4187L28.0431 59.3687C28.2531 59.3187 28.4831 59.2587 28.7031 59.2187H28.7531C29.0331 59.1387 29.3131 59.0687 29.6231 58.9987C29.7831 58.9587 29.9431 58.9187 30.1031 58.8887L32.0031 58.4487C32.0031 58.4487 32.0431 58.4287 32.0631 58.4287L33.5931 58.0687C33.9531 57.9787 34.3131 57.8987 34.6731 57.8187C35.0331 57.7287 35.4131 57.6387 35.7831 57.5587L36.3331 57.4287C36.8831 57.2987 37.4431 57.1687 37.9931 57.0387C38.7331 56.8587 39.4531 56.6987 40.1731 56.5187C40.5231 56.4387 40.8831 56.3587 41.2231 56.2687L41.7431 56.1387L43.7031 55.6887L44.6131 55.4687C45.0531 55.3687 45.4531 55.2687 45.8431 55.1787L46.0931 55.1287H46.1131L46.5631 55.0287L47.4931 54.7987L47.8631 54.7187L47.8731 54.6987Z" fill="#B2B2B2"/>
<path d="M45.8231 58.7185C45.3631 59.5185 44.1531 60.0185 43.6631 60.7285C43.1131 61.5385 43.2631 62.5285 42.6931 63.0885L29.5831 61.4185L25.4031 60.8785C25.3831 60.7185 25.4331 60.5385 25.5431 60.3585L35.7331 59.5285L45.8331 58.7085L45.8231 58.7185Z" fill="#B2B2B2"/>
<path d="M42.6831 63.0787C42.2631 63.4987 41.5831 63.3287 41.1531 63.5587C40.7531 63.7787 40.603 64.4387 40.163 64.5787C36.583 65.7487 32.053 64.3587 26.303 61.7887C26.103 61.6987 25.9331 61.6087 25.7931 61.4987C25.5331 61.3087 25.393 61.0987 25.373 60.8687L29.553 61.4087L42.663 63.0787H42.6831Z" fill="#B2B2B2"/>
<path d="M23.9431 62.0384C23.1231 61.8384 21.4331 60.3584 19.3031 58.1184C19.2631 58.0884 19.2431 58.0684 19.2131 58.0384C17.6631 56.3984 15.8731 54.3584 14.0331 52.1284C14.0331 52.1284 14.0131 52.0984 14.0031 52.0884C5.82314 42.1884 -3.41687 28.4984 1.26313 28.7084L8.89314 39.9284L23.9331 62.0384H23.9431Z" fill="#B2B2B2"/>
<path d="M23.9431 62.0386L6.40308 29.7686L2.54308 22.6786C2.54308 22.6786 1.14307 18.4986 4.62307 17.8086L6.53308 22.1786L23.9431 62.0386Z" fill="#B2B2B2"/>
<path d="M23.9431 62.0387L8.90313 39.9287L1.27313 28.7087C1.27313 28.7087 -1.27687 23.3787 2.55313 22.6787L6.41313 29.7687L23.9531 62.0387H23.9431Z" fill="#B2B2B2"/>
<path d="M23.9432 62.0388L9.1432 11.3188C9.1432 11.3188 8.4532 6.44884 13.7832 7.03884L23.9432 62.0388Z" fill="#B2B2B2"/>
<path d="M23.9431 62.0388L6.53311 22.1788L4.62311 17.8088C4.62311 17.8088 3.58311 11.5588 9.14311 11.3188L23.9431 62.0388Z" fill="#B2B2B2"/>
<path d="M23.9432 62.0386L17.7432 4.5586C17.7432 4.5586 18.6132 0.8586 22.7232 2.0186L23.9432 62.0386Z" fill="#B2B2B2"/>
<path d="M23.9431 62.0386L13.7831 7.0386C13.7831 7.0386 13.7431 4.0386 17.7431 4.5586L23.9431 62.0386Z" fill="#B2B2B2"/>
<path d="M34.6131 0.96879L23.9431 62.0388L29.1631 1.14879C29.1631 1.14879 32.1131 -1.28121 34.6131 0.97879V0.96879Z" fill="#B2B2B2"/>
<path d="M29.1631 1.14865L23.9431 62.0387L22.7231 2.01865C22.7231 2.01865 25.3931 -1.87135 29.1631 1.14865Z" fill="#B2B2B2"/>
<path d="M45.9631 5.08851L23.9431 62.0385L40.1731 2.58851C40.1731 2.58851 45.0931 1.02851 45.9631 5.08851Z" fill="#B2B2B2"/>
<path d="M40.1731 2.58846L23.9431 62.0385L34.6131 0.968463C34.6131 0.968463 38.8931 -0.771537 40.1731 2.58846Z" fill="#B2B2B2"/>
<path d="M55.1831 12.6685L23.9431 62.0285L51.5331 8.72852C51.5331 8.72852 55.9931 9.06852 55.1831 12.6685Z" fill="#B2B2B2"/>
<path d="M51.5331 8.72849L23.9431 62.0285L45.9631 5.08849C45.9631 5.08849 51.7531 3.80849 51.5231 8.73849L51.5331 8.72849Z" fill="#B2B2B2"/>
<path d="M60.5031 24.7787L23.9431 62.0287L58.8331 18.9187C58.8331 18.9187 62.9431 18.3487 60.5131 24.7787H60.5031Z" fill="#B2B2B2"/>
<path d="M58.8231 18.9287L23.9331 62.0387L55.1731 12.6787C55.1731 12.6787 60.6231 12.7987 58.8231 18.9287Z" fill="#B2B2B2"/>
<path d="M61.4931 35.9686L23.9431 62.0386L61.3131 30.8086C61.3131 30.8086 64.3931 32.2586 61.4931 35.9686Z" fill="#B2B2B2"/>
<path d="M57.8431 46.6287C51.3031 53.1087 28.0031 63.0187 23.9431 62.0287L59.5831 41.6387C59.5831 41.6387 61.7731 42.7287 57.8431 46.6187V46.6287Z" fill="#B2B2B2"/>
<path d="M59.5831 41.6488L23.9431 62.0387L61.4931 35.9688C61.4931 35.9688 62.8231 39.5588 59.5731 41.6488H59.5831Z" fill="#B2B2B2"/>
<path d="M61.3131 30.8086L23.9431 62.0386L60.5031 24.7886C60.5031 24.7886 63.8631 26.7586 61.3131 30.8186V30.8086Z" fill="#B2B2B2"/>
</svg>
