<svg width="60" height="76" viewBox="0 0 60 76" fill="none" xmlns="http://www.w3.org/2000/svg">
<path d="M21.9764 3.55637V74.5316C21.9764 75.1395 21.2925 75.5651 20.335 75.793C18.9976 76.1122 17.1586 76.0666 15.9884 75.6258C15.3349 75.3827 14.8789 75.0179 14.8789 74.5316V3.55637C14.8789 3.2828 14.9093 3.02443 14.9701 2.76606C15.2589 1.51981 16.1707 0.531935 17.3714 0.16718C17.7058 0.0607934 18.0553 0 18.4201 0C20.3806 0 21.9612 1.58061 21.9612 3.54116L21.9764 3.55637Z" fill="#875D09"/>
<g style="mix-blend-mode:multiply" opacity="0.24">
<path d="M21.9764 27.919C21.9764 27.919 16.6571 28.9373 16.3835 35.2141C16.11 41.5061 15.9884 75.6259 15.9884 75.6259C15.3349 75.3827 14.8789 75.018 14.8789 74.5316V3.55642C14.8789 3.28286 14.9093 3.02448 14.9701 2.76611C14.9701 3.05488 15.2893 7.7815 21.9004 7.7207L21.9764 27.9342V27.919Z" fill="#071063"/>
</g>
<path d="M59.3486 18.5398C59.2727 18.6918 59.1511 18.8285 59.0143 18.9501C59.0143 18.9501 56.3698 21.3818 53.7405 23.6919C53.543 23.8591 53.3454 24.0415 53.1478 24.1935C51.2025 25.8957 49.3787 27.4155 48.8315 27.6586C47.4941 28.2362 1.68699 27.6586 1.68699 27.6586C0.759906 27.6586 0 26.8228 0 25.8957V9.4209C0 8.661 0.501538 8.03788 1.17025 7.82511L1.48942 7.74911C1.48942 7.74911 1.611 7.74911 1.67179 7.74911C1.67179 7.74911 46.5822 7.0348 48.8163 7.74911C49.4699 7.94669 50.5945 8.76739 51.8712 9.83126C52.0991 10.0288 52.3119 10.2112 52.5399 10.424C53.8925 11.5638 55.3515 12.9013 56.537 14.0411C56.613 14.1171 56.7042 14.1931 56.7802 14.2691C58.072 15.5002 58.9839 16.3968 58.9839 16.3968C59.6374 16.9592 59.7438 17.8711 59.3182 18.555L59.3486 18.5398Z" fill="#634507"/>
<path d="M59.3487 18.5397C58.148 19.634 55.7315 21.8225 53.6342 23.6463C53.4366 23.8287 53.2238 23.9958 53.0263 24.163C51.5824 25.3941 50.3666 26.382 49.941 26.5643C48.6036 27.1571 2.79649 26.5643 2.79649 26.5643C1.8694 26.5643 1.1095 25.7284 1.1095 24.8013V8.34177C1.1095 8.17459 1.13989 7.99223 1.18549 7.84024L1.50465 7.76425C1.50465 7.76425 1.62623 7.76425 1.68703 7.76425C1.68703 7.76425 46.5975 7.04994 48.8316 7.76425C49.4851 7.96182 50.6098 8.78253 51.8864 9.8464C52.1144 10.044 52.3272 10.2263 52.5551 10.4391C53.9078 11.579 55.3668 12.9164 56.5522 14.0563C56.6282 14.1323 56.7194 14.2083 56.7954 14.2842C58.0872 15.5153 58.9991 16.412 58.9991 16.412C59.6526 16.9743 59.759 17.8862 59.3335 18.5701L59.3487 18.5397Z" fill="#875D09"/>
<path d="M15.2286 17.3731C15.0006 17.2211 14.7726 17.0995 14.5142 17.0083C14.2559 16.9171 13.9975 16.826 13.7391 16.75C13.1616 16.5676 12.7361 16.37 12.4473 16.1572C12.1585 15.9445 12.0218 15.6405 12.037 15.2606C12.037 14.911 12.1585 14.6374 12.4169 14.4095C12.6753 14.1815 13.0096 14.0751 13.4352 14.0751C13.7087 14.0751 13.9367 14.1207 14.1039 14.1967C14.2711 14.2879 14.4231 14.3791 14.575 14.4854C14.7118 14.5918 14.8182 14.683 14.8942 14.7742C14.9854 14.8654 15.0918 14.911 15.2438 14.911C15.3653 14.911 15.4869 14.8654 15.5781 14.7742C15.6693 14.683 15.7149 14.5614 15.7149 14.4095C15.7149 14.2575 15.6541 14.0903 15.5325 13.9383C15.4109 13.7863 15.2438 13.6496 15.031 13.528C14.8182 13.4064 14.575 13.3152 14.3167 13.2392C14.0583 13.1784 13.7847 13.1328 13.496 13.1328C13.2072 13.1328 12.9032 13.1784 12.5993 13.2544C12.2953 13.3304 12.037 13.4672 11.7938 13.6344C11.5506 13.8015 11.3682 14.0295 11.2163 14.3031C11.0643 14.5766 10.9883 14.911 10.9883 15.2758C10.9883 15.6405 11.0795 15.9901 11.2467 16.2636C11.4138 16.5524 11.657 16.7956 11.9914 16.9931C12.3105 17.1907 12.7209 17.3731 13.192 17.5251C13.4048 17.6011 13.6176 17.6619 13.8303 17.7227C14.0431 17.7834 14.2255 17.8746 14.3927 17.9658C14.5598 18.057 14.6966 18.1938 14.7878 18.3458C14.879 18.4977 14.9246 18.7105 14.9246 18.9537C14.9246 19.2273 14.8486 19.44 14.6966 19.6224C14.5446 19.8048 14.3471 19.9416 14.1191 20.0176C13.8759 20.1087 13.6328 20.1543 13.3744 20.1543C13.0096 20.1543 12.7361 20.1088 12.5385 20.0024C12.3409 19.896 12.1737 19.8048 12.0522 19.6984C11.9154 19.592 11.809 19.4856 11.7026 19.3792C11.5962 19.2729 11.4746 19.2273 11.3074 19.2273C11.1403 19.2273 11.0339 19.2729 10.9427 19.364C10.8515 19.4552 10.8059 19.5768 10.8059 19.7136C10.8059 19.8656 10.8515 20.0176 10.9579 20.1391C11.0643 20.2759 11.1859 20.3975 11.353 20.5039C11.6114 20.6711 11.9154 20.7927 12.2497 20.8991C12.5841 21.0054 12.9336 21.051 13.2832 21.051C13.6024 21.051 13.9215 21.0054 14.2407 20.9294C14.5598 20.8535 14.8334 20.7167 15.0918 20.5495C15.3501 20.3823 15.5629 20.1543 15.7149 19.8808C15.8669 19.6072 15.9581 19.2729 15.9581 18.8929C15.9581 18.5129 15.8973 18.1786 15.7605 17.9354C15.6237 17.6923 15.4565 17.4947 15.2286 17.3427V17.3731Z" fill="#FFECC7"/>
<path d="M22.2501 14.1208C22.3261 14.0752 22.3869 14.0296 22.4173 13.9536C22.4477 13.8776 22.4781 13.8016 22.4781 13.6952C22.4781 13.5888 22.4629 13.4976 22.4173 13.4368C22.3717 13.376 22.3109 13.3152 22.2501 13.2849C22.1742 13.2545 22.083 13.2393 21.9766 13.2393H16.9156C16.8092 13.2393 16.7028 13.2545 16.6268 13.2849C16.5508 13.3152 16.4901 13.3609 16.4445 13.4368C16.3989 13.5128 16.3837 13.604 16.3837 13.7104C16.3837 13.8016 16.3989 13.8928 16.4445 13.9688C16.4901 14.0448 16.5508 14.0904 16.6268 14.136C16.7028 14.1815 16.794 14.1967 16.9156 14.1967H18.937V20.504C18.937 20.6863 18.9825 20.8231 19.0585 20.9295C19.1345 21.0359 19.2713 21.0967 19.4537 21.0967C19.6361 21.0967 19.7728 21.0359 19.864 20.9295C19.94 20.8231 19.9856 20.6711 19.9856 20.504V14.1967H21.9918C22.0982 14.1967 22.1893 14.1815 22.2653 14.136L22.2501 14.1208Z" fill="#FFECC7"/>
<path d="M28.6029 19.7136L26.5664 14.5158C26.4752 14.2879 26.3992 14.0903 26.3232 13.9079C26.2472 13.7255 26.1864 13.5888 26.1105 13.4824C26.0345 13.376 25.9433 13.2848 25.8217 13.224C25.7001 13.1632 25.5633 13.1328 25.3809 13.1328C25.1986 13.1328 25.0466 13.1632 24.9402 13.224C24.8338 13.2848 24.7274 13.3608 24.6514 13.4824C24.5754 13.604 24.4995 13.7407 24.4235 13.9079C24.3627 14.0751 24.2715 14.2879 24.1803 14.5158L22.1437 19.7136C22.0526 19.9264 21.9918 20.0935 21.9462 20.2303C21.9006 20.3671 21.8854 20.4735 21.8854 20.5647C21.8854 20.6711 21.9158 20.7775 21.9766 20.8535C22.0374 20.9295 22.0982 20.9902 22.1893 21.0358C22.2805 21.0814 22.3565 21.0966 22.4477 21.0966C22.5845 21.0966 22.6909 21.0662 22.7669 21.0054C22.8429 20.9446 22.9188 20.8535 22.9796 20.7167C23.0404 20.5799 23.1012 20.3975 23.162 20.1695L23.6636 18.7257H27.0831L27.5695 20.1695C27.6455 20.3975 27.7215 20.5799 27.7822 20.7167C27.843 20.8535 27.919 20.9598 27.995 21.0054C28.071 21.051 28.1774 21.0966 28.3142 21.0966C28.4054 21.0966 28.4966 21.0814 28.5725 21.0358C28.6485 20.9902 28.7245 20.9295 28.7853 20.8535C28.8461 20.7775 28.8765 20.6863 28.8765 20.5647C28.8765 20.4735 28.8461 20.3519 28.8005 20.2303C28.7549 20.0935 28.6789 19.9264 28.6029 19.7136ZM24.5754 16.294C24.7122 15.9293 24.849 15.5493 24.9858 15.1694C25.1226 14.7894 25.2594 14.4247 25.3961 14.0599C25.5329 14.4247 25.6697 14.7894 25.8065 15.1694C25.9433 15.5493 26.0801 15.9141 26.2168 16.294L26.7944 17.8746H23.9979L24.5754 16.294Z" fill="#FFECC7"/>
<path d="M34.9709 20.0182C34.6973 19.8814 34.4542 19.6991 34.2566 19.4559C34.059 19.2127 33.8918 18.9696 33.7398 18.696C33.6335 18.5136 33.5575 18.3312 33.4815 18.1641C33.4207 17.9969 33.3751 17.8449 33.3447 17.7233C33.7094 17.6473 34.0286 17.5257 34.3174 17.3434C34.6061 17.161 34.8341 16.9178 35.0165 16.5986C35.1837 16.2947 35.2748 15.9147 35.2748 15.4588C35.2748 15.0028 35.1837 14.6229 35.0013 14.2733C34.8189 13.939 34.5301 13.6806 34.1502 13.483C33.755 13.3007 33.2535 13.2095 32.6152 13.2095H30.5026C30.3659 13.2095 30.2595 13.2247 30.1835 13.2703C30.1075 13.3159 30.0467 13.3766 30.0163 13.4678C29.9859 13.559 29.9707 13.6654 29.9707 13.787V20.459C29.9707 20.6262 30.0163 20.7629 30.0923 20.8693C30.1683 20.9757 30.3051 21.0365 30.5026 21.0365C30.7002 21.0365 30.8218 20.9757 30.8978 20.8693C30.9738 20.7629 31.0194 20.6262 31.0194 20.459V17.7689H32.448C32.5544 18.2704 32.7216 18.772 32.9343 19.2431C33.1623 19.7143 33.4207 20.0942 33.7246 20.383C33.8614 20.5046 33.9982 20.6262 34.1198 20.7325C34.2566 20.8389 34.3934 20.9149 34.5301 20.9757C34.6669 21.0365 34.8037 21.0669 34.9405 21.0669C35.0773 21.0669 35.1989 21.0213 35.3052 20.9453C35.4116 20.8541 35.4572 20.7477 35.4572 20.611C35.4572 20.4286 35.4116 20.307 35.3052 20.231C35.2141 20.155 35.0925 20.079 34.9405 20.0182H34.9709ZM32.5696 16.9178H31.0194V14.3949C31.0194 14.3037 31.0346 14.2277 31.0802 14.1974C31.1258 14.167 31.1714 14.1366 31.2473 14.1366H32.5696C32.9951 14.1366 33.3295 14.2125 33.5727 14.3341C33.8158 14.4557 33.983 14.6229 34.0742 14.8357C34.1654 15.0484 34.211 15.2764 34.211 15.5196C34.211 15.8387 34.135 16.1123 33.983 16.3251C33.831 16.5379 33.6334 16.6898 33.3903 16.7962C33.1471 16.9026 32.8583 16.9482 32.5544 16.9482L32.5696 16.9178Z" fill="#FFECC7"/>
<path d="M41.81 13.4368C41.81 13.4368 41.7036 13.3152 41.6428 13.2849C41.5668 13.2545 41.4757 13.2393 41.3693 13.2393H36.3083C36.2019 13.2393 36.0955 13.2545 36.0195 13.2849C35.9435 13.3152 35.8828 13.3609 35.8372 13.4368C35.7916 13.5128 35.7764 13.604 35.7764 13.7104C35.7764 13.8016 35.7916 13.8928 35.8372 13.9688C35.8828 14.0448 35.9435 14.0904 36.0195 14.136C36.0955 14.1815 36.1867 14.1967 36.3083 14.1967H38.3296V20.504C38.3296 20.6863 38.3752 20.8231 38.4512 20.9295C38.5272 21.0359 38.664 21.0967 38.8464 21.0967C39.0288 21.0967 39.1655 21.0359 39.2567 20.9295C39.3327 20.8231 39.3783 20.6711 39.3783 20.504V14.1967H41.3845C41.4909 14.1967 41.582 14.1815 41.658 14.136C41.734 14.0904 41.7948 14.0448 41.8252 13.9688C41.8556 13.8928 41.886 13.8168 41.886 13.7104C41.886 13.604 41.8708 13.5128 41.8252 13.452L41.81 13.4368Z" fill="#FFECC7"/>
<path d="M1.09424 10.1509C1.09424 10.1509 7.81181 11.7011 10.745 11.8379C10.745 11.8379 4.57461 12.0962 3.23717 11.4123C1.89974 10.7284 1.09424 11.7163 1.09424 11.7163V10.1661V10.1509Z" fill="#593E06"/>
<path d="M1.09424 21.3073C1.09424 21.3073 2.34048 21.7025 4.04267 22.0369C4.19465 22.0672 5.89684 22.0369 7.69022 21.6721C9.19484 21.3681 10.8514 20.6994 10.9882 20.7146C11.0794 20.7298 9.78756 21.3073 8.38933 21.6873C6.99111 22.0672 5.39531 22.2648 5.50169 22.2952C7.70542 23.2679 13.6327 22.204 14.6662 22.4168C14.6662 22.4168 9.16444 23.2679 6.30719 22.9791C3.92109 22.736 1.10944 22.128 1.10944 22.128V21.2921L1.09424 21.3073Z" fill="#593E06"/>
<path d="M53.7405 23.6957C53.5429 23.8629 53.3454 24.0453 53.1478 24.1973C53.1022 24.1973 53.0718 24.1669 53.011 24.1517C51.9471 23.7717 48.8923 22.8294 46.3238 23.4678C43.3298 24.2125 39.5911 22.7382 39.2263 22.5863C39.5455 22.6471 42.1596 23.2094 44.3633 23.3006C46.719 23.407 48.102 22.3583 49.8954 22.5711C51.1872 22.723 52.8134 23.3158 53.6189 23.6197C53.6645 23.6349 53.6949 23.6653 53.7253 23.6653L53.7405 23.6957Z" fill="#593E06"/>
<path d="M52.5703 10.4099C51.4001 10.3947 50.0323 10.3187 49.1812 10.1363C47.9805 9.87797 43.7402 11.0634 43.7402 11.0634C43.7402 11.0634 48.0869 9.16366 50.2146 9.6804C50.7618 9.81718 51.3393 9.84757 51.9016 9.81718C52.1296 10.0148 52.3424 10.1971 52.5703 10.4099Z" fill="#593E06"/>
<path d="M56.8106 14.2407C56.4915 14.3471 56.1267 14.4687 55.7316 14.6055C52.8439 15.6238 50.6554 14.9246 50.6554 14.9246C51.6129 15.1374 54.4245 14.5447 56.5675 13.9976C56.6435 14.0735 56.7346 14.1495 56.8106 14.2255V14.2407Z" fill="#593E06"/>
<path d="M27.5846 26.7495L21.3838 22.9956C21.3838 22.9956 23.6635 25.017 24.6362 25.3057C25.6089 25.5945 26.6575 26.7495 26.6575 26.7495H27.5846Z" fill="#593E06"/>
<path d="M18.3441 10.6988C18.7135 10.6988 19.0128 10.3994 19.0128 10.03C19.0128 9.66072 18.7135 9.36133 18.3441 9.36133C17.9748 9.36133 17.6754 9.66072 17.6754 10.03C17.6754 10.3994 17.9748 10.6988 18.3441 10.6988Z" fill="#544D3F"/>
<path d="M18.3441 24.5137C18.7135 24.5137 19.0128 24.2143 19.0128 23.845C19.0128 23.4757 18.7135 23.1763 18.3441 23.1763C17.9748 23.1763 17.6754 23.4757 17.6754 23.845C17.6754 24.2143 17.9748 24.5137 18.3441 24.5137Z" fill="#544D3F"/>
<g style="mix-blend-mode:soft-light" opacity="0.38">
<path d="M21.9765 30.3652V74.5158C21.9765 75.1237 21.2926 75.5492 20.3351 75.7772C20.2439 70.9594 20.1071 62.8436 19.8944 51.8554C19.5448 33.1313 21.9765 30.3652 21.9765 30.3652Z" fill="#FFECC7"/>
</g>
<g style="mix-blend-mode:soft-light" opacity="0.38">
<path d="M21.9765 3.55637V4.14909C19.3928 4.1187 17.3107 2.59888 17.3107 0.729515C17.3107 0.531939 17.3259 0.349558 17.3715 0.16718C17.7058 0.0607934 18.0554 0 18.4201 0C20.3807 0 21.9613 1.58061 21.9613 3.54116L21.9765 3.55637Z" fill="#FFECC7"/>
</g>
</svg>
