<svg width="59" height="66" viewBox="0 0 59 66" fill="none" xmlns="http://www.w3.org/2000/svg">
<path d="M17.0027 51.5295C16.9514 48.9069 18.1227 44.3009 17.1381 33.9737C16.9281 31.7477 19.3827 33.871 22.178 34.067C24.9687 34.263 26.2333 36.699 26.0887 38.519C25.6873 43.615 22.094 49.1356 22.1127 51.1515C22.1547 55.1228 21.912 63.1121 21.1887 63.7794C20.1574 64.7361 18.3934 64.9741 18.1741 64.8481C18.0761 64.7921 17.8287 64.5167 17.8147 64.1761C17.8007 63.8354 18.0154 63.2521 17.9221 62.0901C17.6934 59.2855 17.0541 54.3622 17.0027 51.5249" fill="#F5F0E5"/>
<mask id="mask0_74_30582" style="mask-type:luminance" maskUnits="userSpaceOnUse" x="17" y="32" width="10" height="33">
<path d="M17.0027 51.5286C16.9514 48.9059 18.1227 44.3 17.1381 33.9727C16.9281 31.7468 19.3827 33.8701 22.178 34.0661C24.9687 34.2621 26.2333 36.698 26.0887 38.518C25.6873 43.614 22.094 49.1346 22.1127 51.1506C22.1547 55.1219 21.912 63.1111 21.1887 63.7784C20.1574 64.7351 18.3934 64.9731 18.1741 64.8471C18.0761 64.7911 17.8287 64.5158 17.8147 64.1751C17.8007 63.8344 18.0154 63.2511 17.9221 62.0891C17.6934 59.2845 17.0541 54.3612 17.0027 51.5239" fill="white"/>
</mask>
<g mask="url(#mask0_74_30582)">
<path d="M17.7635 62.0656C17.7635 62.0656 18.0295 62.929 18.3889 62.5136C18.7482 62.0983 18.7015 62.8123 19.0749 62.887C19.1962 62.9103 19.1542 62.4903 19.4949 62.4576C19.5928 62.4483 19.5275 62.845 19.5275 62.845C19.7748 62.817 19.9195 62.4436 19.9382 62.341C19.9848 62.103 20.3255 62.2336 20.3582 62.4576C20.3722 62.5603 20.3488 62.8076 20.3488 62.8076C20.4608 62.8076 20.5775 62.6163 20.6148 62.383C20.6895 61.9536 20.9182 61.5477 20.9788 61.935C21.0395 62.3223 21.2448 62.4436 21.4408 62.0376C21.6322 61.6363 21.6182 62.159 21.6788 62.4716C21.7395 62.7843 21.6788 65.0803 21.6788 65.0803L17.2362 65.7336L17.7589 62.0703" fill="#303030"/>
<path d="M18.7201 63.125C18.7201 63.125 18.3468 64.735 18.2721 65.001C18.1974 65.267 18.7808 64.987 18.7808 64.987L18.7201 63.125Z" fill="black"/>
<path d="M18.0342 64.7159C18.0902 64.7859 18.1415 64.8326 18.1788 64.8513C18.2022 64.8653 18.2488 64.8746 18.3095 64.8793C18.3188 64.8419 18.3282 64.7953 18.3422 64.7486C18.2442 64.7439 18.1415 64.7346 18.0388 64.7159M21.5108 62.9053C21.2075 63.3626 20.2555 64.5899 18.7715 64.7346V64.8466C19.4388 64.7486 20.4842 64.4313 21.1935 63.7779C21.3101 63.6659 21.4175 63.3579 21.5108 62.9053Z" fill="#1E1E1E"/>
<path d="M18.7716 64.7344C18.6783 64.7437 18.5849 64.7484 18.4869 64.7484C18.4356 64.7484 18.3889 64.7484 18.3376 64.7484C18.3236 64.795 18.3143 64.8417 18.3049 64.879H18.3889C18.4916 64.879 18.6223 64.8697 18.7763 64.851V64.739" fill="black"/>
<path d="M17.9456 62.4482C17.9456 62.5229 17.9456 62.5976 17.9456 62.6629C17.9456 63.4236 17.8149 63.8669 17.8149 64.1469V64.1796C17.8149 64.2729 17.8383 64.3569 17.8709 64.4362C17.8429 63.9509 17.9129 63.9696 18.0203 63.5309C18.1369 63.0502 17.9503 62.4669 17.9409 62.4482" fill="#575757"/>
</g>
<path d="M48.9411 49.5835C48.5631 46.9842 47.3778 44.8049 48.3624 34.4776C48.5724 32.2516 46.1178 34.375 43.3225 34.571C40.5318 34.767 37.9512 36.9976 38.0772 38.8176C38.4925 44.6975 40.8072 48.3235 42.2491 50.4048C42.6785 51.0255 43.2385 51.2168 43.3878 51.6508C44.6945 55.5567 44.8111 59.9434 44.2558 62.7853C44.1111 63.5133 43.9011 63.994 43.9478 64.204C44.0085 64.4607 44.1765 65.0533 44.4938 65.2166C45.4271 65.6973 47.3031 64.4047 47.8118 63.6953C48.7591 62.3793 49.3844 52.5934 48.9457 49.5788" fill="#F5F0E5"/>
<mask id="mask1_74_30582" style="mask-type:luminance" maskUnits="userSpaceOnUse" x="38" y="33" width="12" height="33">
<path d="M48.9411 49.5835C48.5631 46.9842 47.3778 44.8049 48.3624 34.4776C48.5724 32.2516 46.1178 34.375 43.3225 34.571C40.5318 34.767 37.9512 36.9976 38.0772 38.8176C38.4925 44.6975 40.8072 48.3235 42.2491 50.4048C42.6785 51.0255 43.2385 51.2168 43.3878 51.6508C44.6945 55.5567 44.8111 59.9434 44.2558 62.7853C44.1111 63.5133 43.9011 63.994 43.9478 64.204C44.0085 64.4607 44.1765 65.0533 44.4938 65.2166C45.4271 65.6973 47.3031 64.4047 47.8118 63.6953C48.7591 62.3793 49.3844 52.5934 48.9457 49.5788" fill="white"/>
</mask>
<g mask="url(#mask1_74_30582)">
<path d="M44.2325 62.4388C44.2325 62.4388 44.5452 63.2881 44.8812 62.8541C45.2172 62.4201 45.2078 63.1341 45.5858 63.1901C45.9638 63.2461 46.2812 62.7794 46.3138 62.5414C46.3465 62.2988 46.6171 62.6581 46.6591 62.8821C46.7011 63.1014 47.0605 63.1388 47.1118 62.7048C47.1631 62.2708 47.3591 61.7575 47.4385 62.1401C47.5178 62.5228 47.7325 62.6301 47.9051 62.2195C48.0778 61.8088 48.0918 62.1635 48.1665 62.4761C48.2411 62.7841 48.2971 65.2434 48.2971 65.2434L43.4438 65.5888L44.2278 62.4388" fill="#303030"/>
<path d="M45.0632 63.4521C45.0632 63.4521 44.7738 65.0761 44.7132 65.3515C44.6525 65.6221 45.2172 65.3095 45.2172 65.3095L45.0632 63.4521Z" fill="black"/>
<path d="M44.2932 65.0428C44.3539 65.1175 44.4192 65.1828 44.4939 65.2201C44.5639 65.2575 44.6432 65.2855 44.7272 65.2995C44.7365 65.2481 44.7505 65.1688 44.7692 65.0801C44.7132 65.0801 44.6619 65.0708 44.6059 65.0661C44.4892 65.0521 44.3865 65.0428 44.2932 65.0381M48.1105 62.9148C48.1105 62.9148 47.1259 64.9075 45.1985 65.0755L45.2172 65.3041C46.1832 65.1595 47.4152 64.2495 47.8072 63.6988C47.9145 63.5495 48.0172 63.2882 48.1198 62.9382L48.1105 62.9102" fill="#1E1E1E"/>
<path d="M45.1985 65.0752C45.1099 65.0845 45.0259 65.0892 44.9325 65.0892C44.8765 65.0892 44.8205 65.0892 44.7645 65.0892C44.7459 65.1779 44.7319 65.2525 44.7225 65.3085C44.8019 65.3225 44.8812 65.3319 44.9699 65.3319C45.0492 65.3319 45.1332 65.3272 45.2172 65.3132L45.1985 65.0845" fill="black"/>
<path d="M44.2791 62.6631C44.2698 62.7051 44.2651 62.7471 44.2558 62.7891C44.1298 63.4424 43.9431 63.8997 43.9431 64.1377L43.9524 64.2077C43.9851 64.3524 44.0551 64.6044 44.1624 64.8284C44.0924 64.2264 44.2138 64.0257 44.3024 63.5544C44.3584 63.2511 44.3211 62.8964 44.2838 62.6631" fill="#575757"/>
</g>
<path d="M57.6444 31.5374H57.635L57.691 31.4674C57.775 31.3087 57.6957 31.0754 57.5137 30.9494L57.4671 30.9261C57.663 30.8934 57.789 30.7534 57.7564 30.5901C57.733 30.4781 57.6304 30.3848 57.5044 30.3428C57.6164 30.3148 57.7144 30.2494 57.7704 30.1421C57.859 29.9601 57.7704 29.7408 57.579 29.6521H57.5464V29.6428C57.635 29.4608 57.5464 29.2414 57.355 29.1528L57.3177 29.1434V29.1341C57.4624 29.1248 57.5977 29.0314 57.663 28.8634C57.7564 28.6254 57.677 28.3454 57.4811 28.2381H57.4717L57.5184 28.1634C57.579 27.9954 57.4717 27.7761 57.2757 27.6734L57.2244 27.6548C57.411 27.5988 57.5231 27.4401 57.4671 27.2861C57.4344 27.1975 57.3597 27.1321 57.2617 27.0948C57.4344 26.9641 57.5044 26.6888 57.4064 26.4135C57.3457 26.2315 57.2291 26.0961 57.0937 26.0168L57.1077 26.0075C57.4064 25.7321 57.411 25.2608 57.1217 24.9481C57.0237 24.8408 56.9024 24.7708 56.7717 24.7335C56.9584 24.4535 56.9304 24.0661 56.6831 23.8002C56.5057 23.6088 56.2631 23.5295 56.0297 23.5528C56.0391 23.4222 56.0017 23.2868 55.9037 23.1795C55.8244 23.1002 55.7264 23.0535 55.6237 23.0348C55.7591 22.8248 55.6471 22.5075 55.3671 22.3115C55.2737 22.2462 55.1711 22.2135 55.0731 22.1948L55.1151 22.0688C55.2131 21.6768 54.9564 21.2802 54.5457 21.1775C54.3497 21.1308 54.1584 21.1588 53.9951 21.2428C53.9811 20.9208 53.7524 20.6315 53.4071 20.5475C53.2018 20.4962 52.9964 20.5335 52.8284 20.6269C52.7958 20.5289 52.7351 20.4402 52.6418 20.3795C52.4691 20.2769 52.2498 20.3095 52.1004 20.4449C52.0864 20.1975 51.8998 19.9922 51.6478 19.9689C51.5031 19.9595 51.3724 20.0109 51.2744 20.0949C51.1951 19.8195 50.9291 19.6189 50.6211 19.6422C50.3598 19.6655 50.1591 19.8522 50.1031 20.0855C49.9818 19.8849 49.7531 19.7589 49.5011 19.7775C49.3098 19.7962 49.1558 19.8989 49.0625 20.0389C48.9598 19.9829 48.8385 19.9642 48.7218 19.9875C48.7218 19.8709 48.6705 19.7635 48.5818 19.6795C48.3811 19.4929 48.0638 19.5069 47.8678 19.7029C47.8211 19.7495 47.7885 19.8009 47.7651 19.8569L47.7325 19.8102C47.5318 19.6235 47.2145 19.6375 47.0185 19.8335C46.9718 19.8802 46.9392 19.9315 46.9158 19.9829L46.8785 19.9035C46.7338 19.6982 46.4445 19.6515 46.2392 19.8009C46.1458 19.8662 46.0945 19.9642 46.0665 20.0669C45.9825 19.9829 45.8705 19.9362 45.7492 19.9549C45.6465 19.9689 45.5625 20.0295 45.5065 20.1089C45.3292 19.9082 45.0258 19.8382 44.7645 19.9689C44.5732 20.0669 44.4565 20.2442 44.4238 20.4402C44.4005 20.3655 44.3678 20.2955 44.3072 20.2395C44.1065 20.0575 43.7892 20.0715 43.5932 20.2675C43.5465 20.3095 43.5185 20.3609 43.4952 20.4122L43.4579 20.3609C43.2572 20.1742 42.9399 20.1882 42.7439 20.3842C42.6599 20.4682 42.6179 20.5662 42.6085 20.6735C42.4592 20.4682 42.1699 20.4215 41.9645 20.5709C41.8712 20.6362 41.8199 20.7342 41.7919 20.8368C41.7079 20.7528 41.5959 20.7062 41.4745 20.7248C41.3719 20.7435 41.2879 20.7995 41.2319 20.8788C41.0545 20.6782 40.7559 20.6129 40.4899 20.7435C40.2986 20.8368 40.1866 21.0142 40.1539 21.2008C40.1306 21.1402 40.1072 21.0748 40.0606 21.0235C39.8599 20.7668 39.4772 20.7202 39.2019 20.9208C39.1226 20.9815 39.0666 21.0608 39.0246 21.1448C38.8146 20.9302 38.4646 20.8975 38.2126 21.0842C38.0959 21.1682 38.0306 21.2848 37.9932 21.4062C37.8999 21.2148 37.7039 21.1028 37.5032 21.1028C37.4146 21.1028 37.3306 21.1215 37.2466 21.1635C37.1253 21.2242 37.0413 21.3315 36.9946 21.4482C36.9059 21.3362 36.7799 21.2568 36.6306 21.2568C36.5093 21.2568 36.4066 21.3128 36.3226 21.3922C36.1453 21.1168 35.7906 20.9862 35.4499 21.0982C35.2633 21.1588 35.1139 21.2848 35.0206 21.4388C34.8386 21.1728 34.4933 21.0468 34.1573 21.1542C34.0453 21.1868 33.9473 21.2475 33.868 21.3222C33.7606 21.1915 33.574 21.0982 33.3593 21.0842C33.2193 21.0748 33.098 21.1075 32.9906 21.1588C33.014 20.9348 32.8786 20.7202 32.6453 20.6548C32.5473 20.6268 32.454 20.6409 32.3653 20.6688C32.3326 20.3702 32.118 20.1089 31.8006 20.0202C31.6606 19.9782 31.5206 19.9829 31.39 20.0155C31.404 19.6842 31.1753 19.3669 30.8253 19.2689C30.592 19.2035 30.354 19.2502 30.172 19.3762C30.0973 19.0309 29.7753 18.7975 29.4113 18.8115C29.3087 18.6715 29.1267 18.5875 28.9353 18.6202C28.856 18.6295 28.786 18.6669 28.7253 18.7135L28.632 18.6295C25.846 16.1982 24.3387 13.6409 20.2508 15.0876C19.1868 15.4609 17.9641 15.8249 17.9454 17.5375C17.9174 19.6375 17.7634 21.1028 17.5581 22.2135C17.5441 22.3022 17.5301 22.3862 17.5114 22.4702C17.3108 22.5122 17.1288 22.7175 17.0775 22.9975C17.0401 23.2168 17.0961 23.4222 17.2035 23.5528C17.0075 23.5995 16.8301 23.8048 16.7835 24.0801C16.7555 24.2341 16.7741 24.3741 16.8208 24.4955C16.4661 24.5468 16.1861 24.8641 16.1861 25.2515C16.1861 25.4521 16.2608 25.6341 16.3775 25.7695C16.0695 25.8581 15.8455 26.1521 15.8455 26.5021C15.8455 26.7635 15.9668 26.9875 16.1488 27.1275C16.0555 27.2161 15.9948 27.3421 15.9948 27.4868C15.9948 27.5988 16.0368 27.7014 16.0975 27.7808C15.8548 27.8461 15.7195 28.1541 15.7941 28.4854C15.8268 28.6394 15.8968 28.7654 15.9901 28.8588C15.6775 29.0408 15.5468 29.4421 15.6961 29.8014C15.7755 29.9834 15.9108 30.1188 16.0741 30.2028C15.8268 30.4034 15.7288 30.7627 15.8641 31.0847C15.9481 31.2807 16.0975 31.4254 16.2748 31.5047C16.2141 31.5887 16.1768 31.6914 16.1861 31.8034C16.2048 31.9947 16.3448 32.1487 16.5268 32.2001L16.5361 32.2234C16.3635 32.3867 16.3168 32.6434 16.4475 32.8487C16.5221 32.9701 16.6388 33.0447 16.7695 33.0727C16.5921 33.3014 16.5875 33.6374 16.7928 33.8661C16.8815 33.9687 16.9981 34.02 17.1148 34.048C16.9608 34.2767 16.9701 34.5894 17.1615 34.8087C17.2735 34.9394 17.4274 35.0047 17.5814 35.014C17.5208 35.1167 17.5021 35.2427 17.5534 35.3547C17.6234 35.5087 17.7868 35.5787 17.9454 35.5507C17.8661 35.7607 17.8988 36.0174 18.0621 36.1994C18.1741 36.33 18.3281 36.3954 18.4821 36.4047C18.4214 36.5074 18.4028 36.6334 18.4541 36.7454C18.5381 36.932 18.7621 37.0067 18.9534 36.9134L18.9814 36.8947C19.0421 37.0254 19.1728 37.1047 19.3081 37.1047C19.3641 37.1047 19.4248 37.0907 19.4808 37.0627L19.5088 37.0394L19.5181 37.0487C19.4341 37.1653 19.4201 37.3287 19.5041 37.4873C19.6301 37.7113 19.8961 37.828 20.1014 37.744H20.1108L20.1341 37.8233C20.2228 37.9773 20.4608 38.0333 20.6661 37.9493L20.7128 37.9213C20.6381 38.1033 20.6894 38.2853 20.8434 38.346C20.9461 38.3833 21.0674 38.346 21.1701 38.276C21.1094 38.4067 21.1141 38.5607 21.2027 38.6773C21.3241 38.8407 21.5621 38.864 21.7254 38.7287L21.7487 38.7053C21.8187 38.7987 21.9214 38.8453 22.0287 38.8453C22.1127 38.8453 22.2014 38.8173 22.2714 38.7567L22.3087 38.71C22.2387 38.8407 22.2667 39.018 22.3927 39.1627C22.5607 39.354 22.8501 39.4053 23.0321 39.2793L23.0414 39.27L23.0834 39.3493C23.2047 39.48 23.4474 39.48 23.6294 39.3493L23.6667 39.312C23.6341 39.508 23.7227 39.676 23.8861 39.6947C24.0027 39.7087 24.124 39.6433 24.208 39.5407C24.194 39.6527 24.222 39.7693 24.306 39.8533C24.4507 40.0027 24.6887 39.9933 24.8334 39.8347L24.852 39.8067C24.922 39.8767 25.0107 39.914 25.0994 39.914C25.202 39.914 25.3 39.872 25.3794 39.788L25.412 39.7367C25.356 39.8767 25.412 40.054 25.552 40.1753C25.7434 40.3433 26.0374 40.3573 26.2007 40.208V40.1987L26.2567 40.2733C26.3967 40.3853 26.6394 40.3527 26.8027 40.1987L26.8354 40.1613C26.8354 40.3573 26.938 40.5113 27.106 40.5067C27.2834 40.5067 27.4514 40.3293 27.4794 40.1053V40.0773C29.612 40.418 31.9173 40.5906 34.2646 40.726C34.6659 40.7493 35.0533 40.768 35.4359 40.7866C35.4359 40.908 35.4779 41.0293 35.5806 41.1086C35.7439 41.23 35.9773 41.188 36.0986 41.0106L36.1126 40.9826C36.2759 41.104 36.5093 41.062 36.6306 40.8846L36.6539 40.8286V40.8893C36.6539 41.02 36.7239 41.1553 36.8593 41.2393C37.0739 41.3746 37.3633 41.3466 37.5079 41.1786V41.1646L37.5732 41.23C37.7272 41.3186 37.9606 41.2533 38.1006 41.0806L38.1239 41.034C38.1472 41.23 38.2826 41.3653 38.4459 41.3373C38.5859 41.314 38.7026 41.174 38.7399 41.006C38.7679 41.062 38.8099 41.1133 38.8752 41.1506C39.0712 41.2626 39.3372 41.2113 39.4726 41.0293L39.4866 40.9966H39.4912C39.6872 41.1133 39.9532 41.0573 40.0886 40.8753L40.0979 40.8566H40.1166C40.1072 40.9966 40.1959 41.1366 40.3686 41.2253C40.6299 41.3513 40.9659 41.3093 41.1245 41.132V41.1226L41.2039 41.1786C41.3859 41.2626 41.6612 41.188 41.8152 41.006L41.8385 40.9593C41.8759 41.1553 42.0345 41.2813 42.2259 41.2486C42.3612 41.2253 42.4685 41.1226 42.5245 40.9966L42.5619 41.0293C42.7579 41.146 43.0285 41.09 43.1639 40.908L43.1779 40.88C43.2479 40.922 43.3272 40.9406 43.4065 40.9406C43.5512 40.9406 43.6912 40.8753 43.7799 40.7586L43.8079 40.7026C43.7752 40.852 43.8685 41.0106 44.0599 41.104C44.3165 41.23 44.6572 41.188 44.8158 41.0106V41.0013L44.8952 41.062C45.0772 41.146 45.3478 41.062 45.5018 40.8846L45.5298 40.8426C45.5672 41.034 45.7258 41.1646 45.9172 41.132C46.1178 41.0946 46.2718 40.8846 46.2578 40.6653C46.2532 40.572 46.2112 40.4973 46.1598 40.4367C48.3625 40.1427 49.9445 39.746 50.8871 39.3773C53.2018 38.4767 55.6611 37.422 56.7857 34.6267L56.8464 34.5894C57.0051 34.44 57.0564 34.216 56.9911 34.0387C57.0097 33.9874 57.0237 33.9361 57.0377 33.8847C57.0704 33.8474 57.0937 33.8054 57.0984 33.7541L57.0891 33.7027C57.1077 33.6374 57.1217 33.5674 57.1404 33.5021C57.2757 33.4834 57.3831 33.3947 57.3971 33.2687C57.3971 33.1941 57.3737 33.1194 57.3271 33.0541C57.3831 33.0354 57.4391 33.0074 57.4811 32.9654C57.621 32.8161 57.607 32.5827 57.4484 32.4381L57.3877 32.4007C57.523 32.4007 57.6584 32.3261 57.7424 32.1814C57.8684 31.9574 57.8217 31.6681 57.6444 31.5374ZM25.426 39.7133L25.44 39.6853L25.4214 39.7133M40.1539 21.5228L40.1679 21.4808L40.1819 21.5228H40.1539ZM44.8205 40.6187L44.8018 40.5907H44.8392L44.8205 40.6187ZM45.5812 40.5486L45.5625 40.5113H45.5998L45.5812 40.5486ZM51.9324 20.8788L51.9044 20.8695L51.9324 20.8508V20.8788Z" fill="#FFFEFA"/>
<mask id="mask2_74_30582" style="mask-type:luminance" maskUnits="userSpaceOnUse" x="15" y="14" width="43" height="28">
<path d="M57.6444 31.5384H57.635L57.691 31.4684C57.775 31.3097 57.6957 31.0764 57.5137 30.9504L57.4671 30.9271C57.663 30.8944 57.789 30.7544 57.7564 30.5911C57.733 30.4791 57.6304 30.3857 57.5044 30.3437C57.6164 30.3157 57.7144 30.2504 57.7704 30.1431C57.859 29.9611 57.7704 29.7417 57.579 29.6531H57.5464V29.6437C57.635 29.4617 57.5464 29.2424 57.355 29.1537L57.3177 29.1444V29.1351C57.4624 29.1257 57.5977 29.0324 57.663 28.8644C57.7564 28.6264 57.677 28.3464 57.4811 28.2391H57.4717L57.5184 28.1644C57.579 27.9964 57.4717 27.7771 57.2757 27.6744L57.2244 27.6558C57.411 27.5998 57.5231 27.4411 57.4671 27.2871C57.4344 27.1984 57.3597 27.1331 57.2617 27.0958C57.4344 26.9651 57.5044 26.6898 57.4064 26.4144C57.3457 26.2324 57.2291 26.0971 57.0937 26.0178L57.1077 26.0084C57.4064 25.7331 57.411 25.2618 57.1217 24.9491C57.0237 24.8418 56.9024 24.7718 56.7717 24.7345C56.9584 24.4545 56.9304 24.0671 56.6831 23.8011C56.5057 23.6098 56.2631 23.5305 56.0297 23.5538C56.0391 23.4231 56.0017 23.2878 55.9037 23.1805C55.8244 23.1011 55.7264 23.0545 55.6237 23.0358C55.7591 22.8258 55.6471 22.5085 55.3671 22.3125C55.2737 22.2471 55.1711 22.2145 55.0731 22.1958L55.1151 22.0698C55.2131 21.6778 54.9564 21.2812 54.5457 21.1785C54.3497 21.1318 54.1584 21.1598 53.9951 21.2438C53.9811 20.9218 53.7524 20.6325 53.4071 20.5485C53.2018 20.4972 52.9964 20.5345 52.8284 20.6278C52.7958 20.5298 52.7351 20.4412 52.6418 20.3805C52.4691 20.2778 52.2498 20.3105 52.1004 20.4458C52.0864 20.1985 51.8998 19.9932 51.6478 19.9698C51.5031 19.9605 51.3724 20.0118 51.2744 20.0958C51.1951 19.8205 50.9291 19.6198 50.6211 19.6432C50.3598 19.6665 50.1591 19.8532 50.1031 20.0865C49.9818 19.8858 49.7531 19.7598 49.5011 19.7785C49.3098 19.7972 49.1558 19.8998 49.0625 20.0398C48.9598 19.9838 48.8385 19.9652 48.7218 19.9885C48.7218 19.8718 48.6705 19.7645 48.5818 19.6805C48.3811 19.4938 48.0638 19.5078 47.8678 19.7038C47.8211 19.7505 47.7885 19.8018 47.7651 19.8578L47.7325 19.8112C47.5318 19.6245 47.2145 19.6385 47.0185 19.8345C46.9718 19.8812 46.9392 19.9325 46.9158 19.9838L46.8785 19.9045C46.7338 19.6992 46.4445 19.6525 46.2392 19.8018C46.1458 19.8672 46.0945 19.9652 46.0665 20.0678C45.9825 19.9838 45.8705 19.9372 45.7492 19.9558C45.6465 19.9698 45.5625 20.0305 45.5065 20.1098C45.3292 19.9092 45.0258 19.8392 44.7645 19.9698C44.5732 20.0678 44.4565 20.2452 44.4238 20.4412C44.4005 20.3665 44.3678 20.2965 44.3072 20.2405C44.1065 20.0585 43.7892 20.0725 43.5932 20.2685C43.5465 20.3105 43.5185 20.3618 43.4952 20.4132L43.4579 20.3618C43.2572 20.1752 42.9399 20.1892 42.7439 20.3852C42.6599 20.4692 42.6179 20.5672 42.6085 20.6745C42.4592 20.4692 42.1699 20.4225 41.9645 20.5718C41.8712 20.6372 41.8199 20.7352 41.7919 20.8378C41.7079 20.7538 41.5959 20.7072 41.4745 20.7258C41.3719 20.7445 41.2879 20.8005 41.2319 20.8798C41.0545 20.6792 40.7559 20.6138 40.4899 20.7445C40.2986 20.8378 40.1866 21.0152 40.1539 21.2018C40.1306 21.1412 40.1072 21.0758 40.0606 21.0245C39.8599 20.7678 39.4772 20.7212 39.2019 20.9218C39.1226 20.9825 39.0666 21.0618 39.0246 21.1458C38.8146 20.9312 38.4646 20.8985 38.2126 21.0852C38.0959 21.1692 38.0306 21.2858 37.9932 21.4072C37.8999 21.2158 37.7039 21.1038 37.5032 21.1038C37.4146 21.1038 37.3306 21.1225 37.2466 21.1645C37.1253 21.2252 37.0413 21.3325 36.9946 21.4492C36.9059 21.3372 36.7799 21.2578 36.6306 21.2578C36.5093 21.2578 36.4066 21.3138 36.3226 21.3932C36.1453 21.1178 35.7906 20.9872 35.4499 21.0992C35.2633 21.1598 35.1139 21.2858 35.0206 21.4398C34.8386 21.1738 34.4933 21.0478 34.1573 21.1552C34.0453 21.1878 33.9473 21.2485 33.868 21.3232C33.7606 21.1925 33.574 21.0992 33.3593 21.0852C33.2193 21.0758 33.098 21.1085 32.9906 21.1598C33.014 20.9358 32.8786 20.7212 32.6453 20.6558C32.5473 20.6278 32.454 20.6418 32.3653 20.6698C32.3326 20.3712 32.118 20.1098 31.8006 20.0212C31.6606 19.9792 31.5206 19.9838 31.39 20.0165C31.404 19.6852 31.1753 19.3678 30.8253 19.2698C30.592 19.2045 30.354 19.2512 30.172 19.3772C30.0973 19.0318 29.7753 18.7985 29.4113 18.8125C29.3087 18.6725 29.1267 18.5885 28.9353 18.6212C28.856 18.6305 28.786 18.6678 28.7253 18.7145L28.632 18.6305C25.846 16.1992 24.3387 13.6419 20.2508 15.0885C19.1868 15.4619 17.9641 15.8259 17.9454 17.5385C17.9174 19.6385 17.7634 21.1038 17.5581 22.2145C17.5441 22.3031 17.5301 22.3871 17.5114 22.4711C17.3108 22.5131 17.1288 22.7185 17.0775 22.9985C17.0401 23.2178 17.0961 23.4231 17.2035 23.5538C17.0075 23.6005 16.8301 23.8058 16.7835 24.0811C16.7555 24.2351 16.7741 24.3751 16.8208 24.4965C16.4661 24.5478 16.1861 24.8651 16.1861 25.2524C16.1861 25.4531 16.2608 25.6351 16.3775 25.7704C16.0695 25.8591 15.8455 26.1531 15.8455 26.5031C15.8455 26.7644 15.9668 26.9884 16.1488 27.1284C16.0555 27.2171 15.9948 27.3431 15.9948 27.4878C15.9948 27.5998 16.0368 27.7024 16.0975 27.7818C15.8548 27.8471 15.7195 28.1551 15.7941 28.4864C15.8268 28.6404 15.8968 28.7664 15.9901 28.8597C15.6775 29.0417 15.5468 29.4431 15.6961 29.8024C15.7755 29.9844 15.9108 30.1197 16.0741 30.2037C15.8268 30.4044 15.7288 30.7637 15.8641 31.0857C15.9481 31.2817 16.0975 31.4264 16.2748 31.5057C16.2141 31.5897 16.1768 31.6924 16.1861 31.8044C16.2048 31.9957 16.3448 32.1497 16.5268 32.201L16.5361 32.2244C16.3635 32.3877 16.3168 32.6444 16.4475 32.8497C16.5221 32.971 16.6388 33.0457 16.7695 33.0737C16.5921 33.3024 16.5875 33.6384 16.7928 33.867C16.8815 33.9697 16.9981 34.021 17.1148 34.049C16.9608 34.2777 16.9701 34.5904 17.1615 34.8097C17.2735 34.9403 17.4274 35.0057 17.5814 35.015C17.5208 35.1177 17.5021 35.2437 17.5534 35.3557C17.6234 35.5097 17.7868 35.5797 17.9454 35.5517C17.8661 35.7617 17.8988 36.0183 18.0621 36.2003C18.1741 36.331 18.3281 36.3963 18.4821 36.4057C18.4214 36.5083 18.4028 36.6343 18.4541 36.7463C18.5381 36.933 18.7621 37.0077 18.9534 36.9143L18.9814 36.8957C19.0421 37.0263 19.1728 37.1057 19.3081 37.1057C19.3641 37.1057 19.4248 37.0917 19.4808 37.0637L19.5088 37.0403L19.5181 37.0497C19.4341 37.1663 19.4201 37.3297 19.5041 37.4883C19.6301 37.7123 19.8961 37.829 20.1014 37.745H20.1108L20.1341 37.8243C20.2228 37.9783 20.4608 38.0343 20.6661 37.9503L20.7128 37.9223C20.6381 38.1043 20.6894 38.2863 20.8434 38.347C20.9461 38.3843 21.0674 38.347 21.1701 38.277C21.1094 38.4076 21.1141 38.5616 21.2027 38.6783C21.3241 38.8416 21.5621 38.865 21.7254 38.7296L21.7487 38.7063C21.8187 38.7996 21.9214 38.8463 22.0287 38.8463C22.1127 38.8463 22.2014 38.8183 22.2714 38.7576L22.3087 38.711C22.2387 38.8416 22.2667 39.019 22.3927 39.1636C22.5607 39.355 22.8501 39.4063 23.0321 39.2803L23.0414 39.271L23.0834 39.3503C23.2047 39.481 23.4474 39.481 23.6294 39.3503L23.6667 39.313C23.6341 39.509 23.7227 39.677 23.8861 39.6956C24.0027 39.7096 24.124 39.6443 24.208 39.5416C24.194 39.6536 24.222 39.7703 24.306 39.8543C24.4507 40.0036 24.6887 39.9943 24.8334 39.8356L24.852 39.8076C24.922 39.8776 25.0107 39.915 25.0994 39.915C25.202 39.915 25.3 39.873 25.3794 39.789L25.412 39.7376C25.356 39.8776 25.412 40.055 25.552 40.1763C25.7434 40.3443 26.0374 40.3583 26.2007 40.209V40.1996L26.2567 40.2743C26.3967 40.3863 26.6394 40.3536 26.8027 40.1996L26.8354 40.1623C26.8354 40.3583 26.938 40.5123 27.106 40.5076C27.2834 40.5076 27.4514 40.3303 27.4794 40.1063V40.0783C29.612 40.419 31.9173 40.5916 34.2646 40.727C34.6659 40.7503 35.0533 40.769 35.4359 40.7876C35.4359 40.909 35.4779 41.0303 35.5806 41.1096C35.7439 41.231 35.9773 41.189 36.0986 41.0116L36.1126 40.9836C36.2759 41.105 36.5093 41.063 36.6306 40.8856L36.6539 40.8296V40.8903C36.6539 41.021 36.7239 41.1563 36.8593 41.2403C37.0739 41.3756 37.3633 41.3476 37.5079 41.1796V41.1656L37.5732 41.231C37.7272 41.3196 37.9606 41.2543 38.1006 41.0816L38.1239 41.035C38.1472 41.231 38.2826 41.3663 38.4459 41.3383C38.5859 41.315 38.7026 41.175 38.7399 41.007C38.7679 41.063 38.8099 41.1143 38.8752 41.1516C39.0712 41.2636 39.3372 41.2123 39.4726 41.0303L39.4866 40.9976H39.4912C39.6872 41.1143 39.9532 41.0583 40.0886 40.8763L40.0979 40.8576H40.1166C40.1072 40.9976 40.1959 41.1376 40.3686 41.2263C40.6299 41.3523 40.9659 41.3103 41.1245 41.133V41.1236L41.2039 41.1796C41.3859 41.2636 41.6612 41.189 41.8152 41.007L41.8385 40.9603C41.8759 41.1563 42.0345 41.2823 42.2259 41.2496C42.3612 41.2263 42.4685 41.1236 42.5245 40.9976L42.5619 41.0303C42.7579 41.147 43.0285 41.091 43.1639 40.909L43.1779 40.881C43.2479 40.923 43.3272 40.9416 43.4065 40.9416C43.5512 40.9416 43.6912 40.8763 43.7799 40.7596L43.8079 40.7036C43.7752 40.853 43.8685 41.0116 44.0599 41.105C44.3165 41.231 44.6572 41.189 44.8158 41.0116V41.0023L44.8952 41.063C45.0772 41.147 45.3478 41.063 45.5018 40.8856L45.5298 40.8436C45.5672 41.035 45.7258 41.1656 45.9172 41.133C46.1178 41.0956 46.2718 40.8856 46.2578 40.6663C46.2532 40.573 46.2112 40.4983 46.1598 40.4376C48.3625 40.1436 49.9445 39.747 50.8871 39.3783C53.2018 38.4776 55.6611 37.423 56.7857 34.6277L56.8464 34.5904C57.0051 34.441 57.0564 34.217 56.9911 34.0397C57.0097 33.9884 57.0237 33.937 57.0377 33.8857C57.0704 33.8484 57.0937 33.8064 57.0984 33.755L57.0891 33.7037C57.1077 33.6384 57.1217 33.5684 57.1404 33.503C57.2757 33.4844 57.3831 33.3957 57.3971 33.2697C57.3971 33.195 57.3737 33.1204 57.3271 33.055C57.3831 33.0364 57.4391 33.0084 57.4811 32.9664C57.621 32.817 57.607 32.5837 57.4484 32.439L57.3877 32.4017C57.523 32.4017 57.6584 32.327 57.7424 32.1824C57.8684 31.9584 57.8217 31.6691 57.6444 31.5384ZM25.426 39.7143L25.44 39.6863L25.4214 39.7143M40.1539 21.5238L40.1679 21.4818L40.1819 21.5238H40.1539ZM44.8205 40.6196L44.8018 40.5916H44.8392L44.8205 40.6196ZM45.5812 40.5496L45.5625 40.5123H45.5998L45.5812 40.5496ZM51.9324 20.8798L51.9044 20.8705L51.9324 20.8518V20.8798Z" fill="white"/>
</mask>
<g mask="url(#mask2_74_30582)">
<path d="M25.426 39.7142L25.44 39.6862L25.4213 39.7142M20.7034 37.9456C20.6894 37.9922 20.68 38.0342 20.68 38.0762C20.68 38.1089 20.6847 38.1369 20.694 38.1649C20.694 38.1649 20.694 38.1742 20.694 38.1789C20.694 38.1789 20.694 38.1789 20.694 38.1836C20.694 38.1836 20.694 38.1836 20.694 38.1882C20.694 38.1882 20.694 38.1882 20.694 38.1929C20.694 38.1929 20.694 38.1929 20.694 38.1976C20.694 38.1976 20.694 38.1976 20.694 38.2022C20.694 38.2022 20.694 38.2022 20.694 38.2069C20.694 38.2069 20.694 38.2069 20.694 38.2116C20.694 38.2116 20.694 38.2116 20.694 38.2162C20.694 38.2162 20.694 38.2162 20.694 38.2209C20.694 38.2209 20.694 38.2209 20.694 38.2256C20.7127 38.2489 20.7407 38.2676 20.7687 38.2816C20.7687 38.2816 20.778 38.2816 20.7827 38.2862C20.7827 38.2862 20.7827 38.2862 20.7874 38.2862L20.876 38.3002C20.9554 38.3002 21.0394 38.2676 21.114 38.2162C21.114 38.2162 21.114 38.2162 21.114 38.2209C21.114 38.2209 21.114 38.2209 21.114 38.2256C21.114 38.2256 21.114 38.2256 21.114 38.2302C21.114 38.2302 21.114 38.2302 21.114 38.2349C21.114 38.2349 21.114 38.2349 21.114 38.2396C21.114 38.2489 21.1047 38.2582 21.1047 38.2722C21.1047 38.2722 21.1047 38.2722 21.1047 38.2769C21.1047 38.2769 21.1047 38.2769 21.1047 38.2816C21.1047 38.2816 21.1047 38.2956 21.1047 38.3002C21.1047 38.3002 21.1047 38.3002 21.1047 38.3049C21.1047 38.3049 21.1047 38.3049 21.1047 38.3096C21.1047 38.3096 21.1047 38.3096 21.1047 38.3142C21.1047 38.3142 21.1047 38.3236 21.1047 38.3282C21.1047 38.3282 21.1047 38.3282 21.1047 38.3329C21.1047 38.3329 21.1047 38.3329 21.1047 38.3376C21.1047 38.3376 21.1047 38.3376 21.1047 38.3422C21.1047 38.3422 21.1047 38.3562 21.1047 38.3609C21.1047 38.4402 21.128 38.5149 21.1794 38.5802C21.2494 38.6736 21.352 38.7202 21.4594 38.7202C21.4874 38.7202 21.5107 38.7202 21.5387 38.7109C21.5947 38.6969 21.6507 38.6736 21.702 38.6316L21.7254 38.6082C21.7954 38.7016 21.898 38.7482 22.0054 38.7482C22.0893 38.7482 22.178 38.7202 22.248 38.6596L22.2853 38.6129C22.2853 38.6129 22.2853 38.6129 22.2853 38.6176C22.2713 38.6502 22.2573 38.6829 22.2527 38.7156C22.2527 38.7156 22.2527 38.7156 22.2527 38.7202C22.2527 38.7342 22.2527 38.7482 22.2527 38.7622C22.2527 38.7716 22.2527 38.7809 22.2527 38.7902C22.2527 38.7902 22.2527 38.7902 22.2527 38.7949C22.262 38.8789 22.2993 38.9676 22.3647 39.0469C22.3647 39.0469 22.3647 39.0469 22.3693 39.0516C22.4767 39.1729 22.6307 39.2382 22.7753 39.2382C22.7847 39.2382 22.7987 39.2382 22.808 39.2382C22.8547 39.2382 22.906 39.2242 22.948 39.2056C22.9713 39.1962 22.99 39.1822 23.0133 39.1682L23.0227 39.1589L23.0647 39.2382C23.1253 39.3036 23.214 39.3362 23.3167 39.3362C23.4193 39.3362 23.522 39.3036 23.6107 39.2382L23.648 39.2009V39.2802C23.648 39.2802 23.6433 39.2802 23.6433 39.2849V39.2896C23.648 39.4202 23.7133 39.5276 23.8207 39.5649C23.8207 39.5649 23.8207 39.5649 23.8253 39.5649C23.8253 39.5649 23.8253 39.5649 23.83 39.5649C23.83 39.5649 23.83 39.5649 23.8347 39.5649C23.8347 39.5649 23.8347 39.5649 23.8393 39.5649H23.872C23.9793 39.5649 24.0867 39.5042 24.1613 39.4109V39.4622C24.1613 39.4622 24.1613 39.5042 24.1613 39.5276C24.1613 39.5322 24.1613 39.5369 24.1613 39.5416C24.1613 39.5416 24.1707 39.5836 24.18 39.6022C24.18 39.6022 24.1847 39.6162 24.1893 39.6209C24.2593 39.6909 24.348 39.7282 24.4413 39.7282C24.5393 39.7282 24.642 39.6862 24.7167 39.6022L24.7353 39.5742C24.8053 39.6442 24.894 39.6816 24.9827 39.6816C25.0853 39.6816 25.1833 39.6396 25.2627 39.5556L25.2953 39.5042L25.272 39.6209V39.6256C25.272 39.6256 25.272 39.6256 25.272 39.6302C25.272 39.6302 25.272 39.6302 25.272 39.6349C25.272 39.6349 25.272 39.6349 25.272 39.6396C25.272 39.6396 25.272 39.6489 25.272 39.6536C25.272 39.6629 25.272 39.6676 25.272 39.6769C25.272 39.6769 25.272 39.6909 25.2767 39.7002C25.2767 39.7002 25.2767 39.7096 25.2767 39.7142C25.2767 39.7142 25.2767 39.7142 25.2767 39.7189C25.2767 39.7189 25.2767 39.7189 25.2767 39.7236V39.7282C25.2767 39.7282 25.2767 39.7282 25.2767 39.7329C25.3 39.7889 25.342 39.8449 25.3933 39.8916C25.3933 39.8916 25.3933 39.8916 25.398 39.8916C25.5006 39.9802 25.6313 40.0269 25.7573 40.0269C25.8646 40.0269 25.9673 39.9942 26.0466 39.9242V39.9149L26.1026 39.9896C26.1026 39.9896 26.1026 39.9896 26.1073 39.9896C26.1633 40.0316 26.2333 40.0502 26.308 40.0502C26.4246 40.0502 26.5506 40.0036 26.6486 39.9102L26.6813 39.8729V39.8822C26.6813 39.8822 26.6813 39.8822 26.6813 39.8869C26.6813 40.0362 26.7513 40.1622 26.8586 40.2042C26.882 40.2136 26.9053 40.2136 26.9333 40.2136H26.9426C26.9426 40.2136 26.9473 40.2136 26.952 40.2136C26.952 40.2136 26.9566 40.2136 26.9613 40.2136C26.9613 40.2136 26.9706 40.2136 26.9753 40.2089C27.0126 40.1856 27.05 40.1576 27.078 40.1249C27.078 40.1249 27.0826 40.1156 27.0873 40.1109C27.106 39.7656 27.1246 39.4016 27.1433 39.0236C26.9753 39.0516 26.8166 39.2756 26.6113 39.2756C26.322 39.2756 26.0466 39.3456 25.7246 39.3456C25.6313 39.3456 25.5333 39.3409 25.4306 39.3222C25.0853 39.2709 24.5393 38.8649 24.1707 38.7856C23.7087 38.6876 23.2187 38.7529 22.752 38.6269C22.2387 38.4916 21.6974 38.3516 21.254 38.1509C20.9414 38.0062 20.708 37.7916 20.4187 37.6982" fill="#FBF9F2"/>
<path d="M44.8018 40.5916H44.8391L44.8204 40.6196L44.8018 40.5916ZM45.5624 40.5122H45.5998L45.5811 40.5496L45.5624 40.5122ZM45.2731 39.4109C44.2558 39.4109 45.1144 40.0316 44.8018 40.0316C44.4238 40.0316 43.8685 40.0316 43.0938 39.6862C42.8838 39.5929 42.7018 39.5556 42.5245 39.5556C42.0438 39.5556 41.5958 39.8496 40.7698 40.1529C39.9718 40.4469 39.7665 40.5636 39.4212 40.5636C39.2765 40.5636 39.1085 40.5449 38.8658 40.5076C38.2125 40.4142 38.2545 39.8122 37.5359 39.8122C37.3352 39.8122 37.0785 39.8589 36.7285 39.9756C36.5792 40.0269 36.3972 40.0456 36.1825 40.0456C36.0332 40.0456 35.9632 40.0456 35.7859 40.0269C35.7299 40.3396 35.5665 40.6569 35.4825 40.9976C35.4965 41.0256 35.5199 41.0536 35.5432 41.0816C35.5479 41.0862 35.5572 41.0956 35.5665 41.1002V41.1049C35.5945 41.1282 35.6272 41.1422 35.6599 41.1562C35.6972 41.1702 35.7392 41.1749 35.7765 41.1749C35.8232 41.1749 35.8699 41.1656 35.9165 41.1469C35.9819 41.1189 36.0379 41.0722 36.0799 41.0116L36.0939 40.9836C36.1219 41.0022 36.1499 41.0209 36.1825 41.0302C36.2199 41.0442 36.2619 41.0489 36.3039 41.0489C36.4019 41.0489 36.4999 41.0069 36.5745 40.9276C36.5792 40.9229 36.5839 40.9182 36.5885 40.9136C36.5932 40.9089 36.5979 40.8996 36.6025 40.8949C36.6025 40.8949 36.6025 40.8949 36.6025 40.8902C36.6025 40.8902 36.6025 40.8902 36.6025 40.8856L36.6259 40.8296V40.8902C36.6259 41.0209 36.6959 41.1562 36.8312 41.2402C36.9245 41.2962 37.0272 41.3242 37.1299 41.3242C37.2652 41.3242 37.3959 41.2729 37.4799 41.1796V41.1656L37.5452 41.2309C37.5919 41.2589 37.6432 41.2682 37.6992 41.2682C37.8112 41.2682 37.9372 41.2169 38.0305 41.1236C38.0305 41.1236 38.0352 41.1189 38.0398 41.1142C38.0492 41.1049 38.0585 41.0909 38.0678 41.0816L38.0912 41.0349C38.1098 41.1936 38.1985 41.3102 38.3198 41.3382C38.3385 41.3382 38.3525 41.3429 38.3712 41.3429H38.4132C38.5532 41.3149 38.6698 41.1749 38.7072 41.0069C38.7352 41.0629 38.7772 41.1142 38.8425 41.1516C38.9125 41.1936 38.9918 41.2122 39.0712 41.2122C39.1365 41.2122 39.2018 41.1982 39.2578 41.1749C39.3278 41.1469 39.3932 41.0956 39.4398 41.0302L39.4538 40.9976H39.4585C39.5052 41.0256 39.5518 41.0442 39.6032 41.0536C39.6312 41.0582 39.6545 41.0629 39.6825 41.0629C39.7945 41.0629 39.9112 41.0209 39.9952 40.9462C40.0138 40.9276 40.0325 40.9089 40.0465 40.8902C40.0465 40.8902 40.0465 40.8902 40.0512 40.8856L40.0605 40.8669H40.0792V40.8809C40.0792 40.8809 40.0792 40.8809 40.0792 40.8856C40.0792 41.0209 40.1678 41.1516 40.3312 41.2356C40.4292 41.2822 40.5365 41.3056 40.6392 41.3102C40.6438 41.3102 40.6485 41.3102 40.6532 41.3102C40.7372 41.3102 40.8212 41.2962 40.8958 41.2682C40.9705 41.2402 41.0358 41.1982 41.0872 41.1422V41.1329L41.1665 41.1889C41.1898 41.1982 41.2132 41.2076 41.2365 41.2122C41.2691 41.2216 41.3018 41.2216 41.3345 41.2216C41.4045 41.2216 41.4792 41.2076 41.5491 41.1796C41.6378 41.1422 41.7171 41.0909 41.7778 41.0162L41.8011 40.9696C41.8011 40.9696 41.8011 40.9742 41.8011 40.9789C41.8385 41.1469 41.9645 41.2636 42.1278 41.2636H42.1885C42.3238 41.2356 42.4311 41.1329 42.4871 41.0069L42.5245 41.0396C42.5945 41.0816 42.6738 41.1002 42.7531 41.1002C42.8045 41.1002 42.8558 41.0909 42.9071 41.0769C42.9958 41.0489 43.0705 40.9929 43.1265 40.9182L43.1405 40.8902C43.2105 40.9322 43.2898 40.9509 43.3691 40.9509C43.5138 40.9509 43.6538 40.8856 43.7425 40.7689L43.7705 40.7129V40.7689H43.7658C43.7658 40.8902 43.8451 41.0116 43.9898 41.0956C43.9898 41.0956 43.9945 41.0956 43.9991 41.0956C43.9991 41.0956 44.0038 41.0956 44.0085 41.0956C44.0085 41.0956 44.0131 41.0956 44.0178 41.0956C44.0178 41.0956 44.0225 41.0956 44.0271 41.0956C44.1251 41.1469 44.2418 41.1702 44.3491 41.1702C44.5218 41.1702 44.6851 41.1142 44.7831 41.0022V40.9929L44.8624 41.0536C44.9138 41.0769 44.9698 41.0862 45.0258 41.0862C45.0771 41.0862 45.1284 41.0769 45.1844 41.0629H45.1891C45.2918 41.0302 45.3944 40.9649 45.4691 40.8809L45.4971 40.8389C45.5204 40.9696 45.6044 41.0676 45.7118 41.1096C45.7491 41.1236 45.7864 41.1329 45.8284 41.1329H45.8844C45.9871 41.1096 46.0758 41.0489 46.1364 40.9602C46.0524 40.4796 45.9824 39.9802 45.9358 39.4669C45.6418 39.4249 45.4131 39.4062 45.2404 39.4062" fill="#FBF9F2"/>
<path d="M40.1538 21.5235L40.1678 21.4815L40.1818 21.5235H40.1538ZM51.9043 20.8701L51.9323 20.8515V20.8795L51.9043 20.8701ZM48.241 19.5448C48.1057 19.5448 47.9704 19.5961 47.8677 19.6988C47.821 19.7455 47.7884 19.7968 47.7651 19.8528L47.7324 19.8061C47.6391 19.7175 47.5131 19.6755 47.3917 19.6755C47.2564 19.6755 47.1211 19.7268 47.0184 19.8295C46.9717 19.8761 46.9391 19.9275 46.9157 19.9788L46.8784 19.8995C46.7897 19.7735 46.6497 19.7081 46.5097 19.7081C46.4164 19.7081 46.3231 19.7361 46.2391 19.7968C46.1457 19.8621 46.0944 19.9601 46.0664 20.0628C45.9964 19.9928 45.9031 19.9461 45.8004 19.9461C45.7817 19.9461 45.7631 19.9461 45.7491 19.9461C45.6464 19.9601 45.5624 20.0208 45.5064 20.1001C45.3897 19.9695 45.2217 19.8948 45.0444 19.8948C44.9511 19.8948 44.8531 19.9181 44.7644 19.9601C44.5731 20.0581 44.4564 20.2355 44.4237 20.4315C44.4004 20.3568 44.3678 20.2868 44.3071 20.2308C44.2138 20.1468 44.0924 20.1001 43.9711 20.1001C43.8358 20.1001 43.6958 20.1515 43.5931 20.2541C43.5464 20.2961 43.5184 20.3475 43.4951 20.3988L43.4578 20.3475C43.3644 20.2588 43.2384 20.2168 43.1171 20.2168C42.9818 20.2168 42.8464 20.2681 42.7438 20.3708C42.6598 20.4548 42.6178 20.5528 42.6084 20.6601C42.5198 20.5341 42.3751 20.4688 42.2351 20.4688C42.1418 20.4688 42.0484 20.4968 41.9644 20.5575C41.8711 20.6228 41.8198 20.7208 41.7918 20.8235C41.7218 20.7535 41.6284 20.7068 41.5258 20.7068C41.5071 20.7068 41.4931 20.7068 41.4744 20.7068C41.3718 20.7255 41.2878 20.7815 41.2318 20.8608C41.1151 20.7301 40.9518 20.6555 40.7745 20.6555C40.6811 20.6555 40.5831 20.6788 40.4898 20.7208C40.2985 20.8141 40.1865 20.9915 40.1538 21.1781C40.1305 21.1175 40.1071 21.0521 40.0605 21.0008C39.9438 20.8515 39.7665 20.7721 39.5845 20.7721C39.4538 20.7721 39.3185 20.8141 39.2018 20.8981C39.1225 20.9588 39.0665 21.0381 39.0245 21.1221C38.9078 21.0008 38.7445 20.9401 38.5858 20.9401C38.4551 20.9401 38.3245 20.9821 38.2125 21.0615C38.0958 21.1455 38.0305 21.2621 37.9931 21.3835C37.8998 21.1921 37.7038 21.0801 37.5032 21.0801C37.4145 21.0801 37.3305 21.0988 37.2465 21.1408C37.1252 21.2015 37.0412 21.3088 36.9945 21.4255C36.9058 21.3135 36.7798 21.2341 36.6305 21.2341C36.5092 21.2341 36.4065 21.2901 36.3225 21.3695C36.1872 21.1595 35.9538 21.0335 35.6972 21.0335C35.6178 21.0335 35.5338 21.0475 35.4498 21.0755C35.2632 21.1361 35.1138 21.2621 35.0205 21.4161C34.9132 21.2575 34.7452 21.1455 34.5538 21.1081C33.6999 22.0788 33.3079 22.6575 36.7238 23.7401C37.4565 23.9734 38.1238 24.0668 38.7351 24.0668C39.9065 24.0668 40.8585 23.7214 41.6144 23.3808C42.3704 23.0354 42.9398 22.6948 43.3458 22.6948C43.6118 22.6948 43.8124 22.8441 43.9524 23.2361C44.3258 24.2954 44.8391 24.7108 45.6511 24.7108C46.3044 24.7108 47.1444 24.4401 48.2597 24.0154C49.9117 23.3854 49.8604 22.5175 50.383 22.5175C50.6537 22.5175 51.0784 22.7461 51.9603 23.3528C54.569 25.1401 54.6203 25.9521 55.941 26.5121C56.0623 26.5634 56.2163 26.5914 56.389 26.5914C56.6783 26.5914 57.0283 26.5214 57.4063 26.3907C57.3456 26.2087 57.229 26.0734 57.0936 25.9941L57.1076 25.9848C57.2616 25.8448 57.3363 25.6534 57.3363 25.4621C57.3363 25.2754 57.2663 25.0794 57.1216 24.9254C57.0236 24.8181 56.9023 24.7481 56.7716 24.7108C56.851 24.5894 56.893 24.4494 56.893 24.3094C56.893 24.1228 56.823 23.9314 56.683 23.7774C56.5243 23.6094 56.319 23.5254 56.109 23.5254C56.081 23.5254 56.0576 23.5254 56.0296 23.5254C56.0296 23.5254 56.0296 23.5021 56.0296 23.4881C56.0296 23.3668 55.9923 23.2501 55.9036 23.1521C55.8243 23.0728 55.7263 23.0261 55.6236 23.0074C55.661 22.9468 55.6796 22.8768 55.6796 22.8021C55.6796 22.6201 55.563 22.4195 55.367 22.2841C55.2736 22.2188 55.171 22.1861 55.073 22.1675L55.115 22.0415C55.129 21.9855 55.1336 21.9295 55.1336 21.8781C55.1336 21.5468 54.8956 21.2388 54.5456 21.1501C54.4803 21.1361 54.4196 21.1268 54.3543 21.1268C54.2236 21.1268 54.1023 21.1595 53.995 21.2155C53.981 20.8935 53.7523 20.6041 53.407 20.5201C53.3417 20.5061 53.281 20.4968 53.2203 20.4968C53.0803 20.4968 52.945 20.5341 52.8283 20.5995C52.7957 20.5015 52.735 20.4128 52.6417 20.3521C52.5717 20.3101 52.497 20.2915 52.4223 20.2915C52.3057 20.2915 52.1937 20.3381 52.1003 20.4175C52.0863 20.1701 51.8997 19.9648 51.6477 19.9415C51.6383 19.9415 51.6243 19.9415 51.615 19.9415C51.4843 19.9415 51.3677 19.9928 51.2743 20.0675C51.1997 19.8061 50.957 19.6148 50.6677 19.6148C50.6537 19.6148 50.635 19.6148 50.621 19.6148C50.3597 19.6381 50.159 19.8248 50.103 20.0581C49.991 19.8715 49.781 19.7501 49.5477 19.7501C49.5337 19.7501 49.515 19.7501 49.4964 19.7501C49.305 19.7688 49.151 19.8715 49.0577 20.0115C48.983 19.9695 48.899 19.9508 48.815 19.9508C48.7824 19.9508 48.7497 19.9508 48.717 19.9601C48.717 19.8435 48.6657 19.7361 48.577 19.6521C48.4837 19.5635 48.3577 19.5215 48.2364 19.5215" fill="#FFFEFC"/>
</g>
<path d="M26.9987 50.348C26.9333 47.7254 27.0733 46.5167 27.5027 37.8368C27.6147 35.6062 28.786 33.9775 31.586 33.9775C34.3859 33.9775 35.5339 36.3435 35.7952 38.1495C36.1966 40.9355 32.8506 48.0194 32.7153 50.6187C32.5099 54.5387 33.4106 63.0879 32.3046 63.9326C31.166 64.8052 29.9526 65.3186 29.3366 65.1739C29.1686 65.1319 28.982 64.7492 28.9306 64.3806C28.8606 63.8719 29.024 62.8499 28.688 61.7299C27.778 58.7153 27.0733 53.3907 26.994 50.3527" fill="#FFFEFA"/>
<mask id="mask3_74_30582" style="mask-type:luminance" maskUnits="userSpaceOnUse" x="26" y="33" width="10" height="33">
<path d="M26.9988 50.3488C26.9335 47.7262 27.0735 46.5175 27.5028 37.8329C27.6148 35.6023 28.7861 33.9736 31.5861 33.9736C34.386 33.9736 35.534 36.3396 35.7954 38.1456C36.1967 40.9316 32.8507 48.0155 32.7154 50.6148C32.5101 54.5348 33.4107 63.084 32.3047 63.9287C31.1661 64.8013 29.9528 65.3146 29.3368 65.17C29.1688 65.128 28.9821 64.7453 28.9308 64.3767C28.8608 63.868 29.0241 62.846 28.6881 61.726C27.7781 58.7114 27.0735 53.3868 26.9941 50.3488" fill="white"/>
</mask>
<g mask="url(#mask3_74_30582)">
<path d="M28.8467 62.3141C28.8467 62.3141 29.1594 63.1634 29.4954 62.7294C29.7661 62.3748 29.8127 62.7808 30.0227 62.9768C30.0694 63.0234 30.2701 62.7061 30.3401 62.6968C30.4801 62.6781 30.5454 62.7621 30.5874 62.8461C30.6294 62.9301 30.6481 63.0188 30.6947 62.9908C30.9281 62.8601 30.9887 62.6454 31.0121 62.4728C31.0447 62.2348 31.3247 62.4354 31.3667 62.6594C31.3807 62.7388 31.4134 62.9114 31.4134 62.9114C31.4134 62.9114 31.6887 62.8554 31.7214 62.5801C31.7727 62.1461 32.0247 62.0434 32.0807 62.1461C32.2674 62.4914 32.3467 62.5054 32.5194 62.0948C32.692 61.6841 32.706 62.0388 32.7807 62.3514C32.8554 62.6594 32.9114 65.1187 32.9114 65.1187L28.5107 66.0007L28.8421 62.3141" fill="#303030"/>
<path d="M29.6821 63.3262C29.6821 63.3262 29.3927 64.9502 29.3321 65.2255C29.2714 65.4962 29.8361 65.1835 29.8361 65.1835L29.6821 63.3262Z" fill="black"/>
<path d="M29.1128 64.9318C29.1828 65.0625 29.2668 65.1558 29.3415 65.1745C29.3508 65.1231 29.3648 65.0485 29.3835 64.9551C29.3275 64.9551 29.2762 64.9458 29.2202 64.9411L29.1082 64.9318M32.7295 62.7852C32.7295 62.7852 31.7448 64.7778 29.8175 64.9458L29.8361 65.1745C30.4941 65.0718 31.4228 64.6098 32.3095 63.9331C32.5101 63.7791 32.6408 63.3778 32.7295 62.7945" fill="#1E1E1E"/>
<path d="M29.8174 64.9463C29.7334 64.9556 29.6448 64.9556 29.5514 64.9556C29.4954 64.9556 29.4394 64.9556 29.3834 64.9556C29.3648 65.0443 29.3508 65.119 29.3414 65.175C29.4114 65.189 29.4861 65.1983 29.5701 65.1983C29.6541 65.1983 29.7381 65.189 29.8314 65.175L29.8128 64.9463" fill="black"/>
<path d="M28.8701 62.6035C28.9121 62.9488 28.9168 63.2662 28.9168 63.5508C28.9168 63.6862 28.9168 63.8075 28.9168 63.9242C28.9168 64.1015 28.9168 64.2555 28.9354 64.3768C28.9634 64.5728 29.0288 64.7688 29.1081 64.9182L29.0988 64.8482C29.0054 64.1762 28.9634 64.1762 29.0568 63.6815C29.1221 63.3502 28.9728 62.8788 28.8701 62.6035Z" fill="#575757"/>
</g>
<path d="M57.9197 49.8213C57.5417 47.222 55.7124 44.9914 56.6971 34.6641C56.9071 32.4382 54.4524 34.5615 51.6571 34.7575C48.8665 34.9535 45.7959 37.1188 45.9265 38.9388C46.3418 44.8187 49.1465 48.51 50.5838 50.596C51.0131 51.2166 51.5731 51.408 51.7225 51.8466C53.0291 55.7526 53.1458 60.1392 52.5904 62.9812C52.4458 63.7092 52.2825 64.1852 52.2825 64.3998C52.2825 64.7218 52.5531 65.6552 52.8938 65.7532C53.8691 66.0332 55.4651 64.9878 55.9737 64.2832C56.9211 62.9672 58.3584 52.8406 57.9197 49.826" fill="#FFFEFA"/>
<mask id="mask4_74_30582" style="mask-type:luminance" maskUnits="userSpaceOnUse" x="45" y="33" width="14" height="33">
<path d="M57.9197 49.8213C57.5417 47.222 55.7124 44.9914 56.6971 34.6641C56.9071 32.4382 54.4524 34.5615 51.6571 34.7575C48.8665 34.9535 45.7959 37.1188 45.9265 38.9388C46.3418 44.8187 49.1465 48.51 50.5838 50.596C51.0131 51.2166 51.5731 51.408 51.7225 51.8466C53.0291 55.7526 53.1458 60.1392 52.5904 62.9812C52.4458 63.7092 52.2825 64.1852 52.2825 64.3998C52.2825 64.7218 52.5531 65.6552 52.8938 65.7532C53.8644 66.0332 55.4651 64.9878 55.9737 64.2832C56.9211 62.9672 58.3584 52.8406 57.9197 49.826" fill="white"/>
</mask>
<g mask="url(#mask4_74_30582)">
<path d="M52.5717 62.837C52.5717 62.837 52.7957 63.649 53.1317 63.215C53.3371 62.9537 53.4351 63.1917 53.5471 63.3737C53.5611 63.397 53.6311 63.3363 53.7011 63.2757C53.7711 63.215 53.8411 63.1543 53.8597 63.173C53.9157 63.2383 53.8317 63.579 53.9204 63.593C54.2984 63.649 54.6157 63.1823 54.6484 62.9443C54.6811 62.7063 55.0777 63.0097 55.1197 63.229C55.1384 63.341 55.0544 63.551 55.157 63.5323C55.2597 63.5137 55.339 63.3083 55.367 63.0937C55.381 62.9957 55.423 63.0423 55.4744 63.0937C55.521 63.1357 55.5724 63.1777 55.605 63.1123C55.703 62.9303 55.731 62.319 55.773 62.543C55.815 62.7577 55.9924 62.5243 55.955 63.0003C55.9504 63.0797 56.165 62.8043 56.2397 62.627C56.4124 62.2163 56.4264 62.571 56.501 62.8837C56.5757 63.1917 56.6364 65.651 56.6364 65.651L51.7831 65.9963L52.5671 62.8463" fill="#303030"/>
<path d="M53.407 63.8494C53.407 63.8494 53.1177 65.4734 53.0571 65.744C52.9964 66.0147 53.561 65.702 53.561 65.702L53.407 63.8447" fill="black"/>
<path d="M52.5905 65.436C52.6791 65.5946 52.7818 65.716 52.8938 65.744C52.9451 65.758 52.9965 65.7673 53.0525 65.7766V65.744C53.0665 65.6926 53.0851 65.5993 53.1085 65.4733C53.0525 65.4733 53.0011 65.464 52.9451 65.4593C52.8051 65.4453 52.6885 65.436 52.5858 65.4313M56.2771 63.6113C55.9131 64.176 54.9985 65.3426 53.5425 65.4686L53.5611 65.702C53.5611 65.702 53.4911 65.744 53.3978 65.7813C54.3451 65.6973 55.5445 64.8666 55.9691 64.274C56.0671 64.1387 56.1698 63.91 56.2724 63.6113" fill="#1E1E1E"/>
<path d="M53.5425 65.4736C53.4538 65.483 53.3698 65.4876 53.2765 65.4876C53.2205 65.4876 53.1645 65.4876 53.1085 65.4876C53.0851 65.609 53.0665 65.707 53.0571 65.7583V65.791C53.1131 65.8003 53.1785 65.805 53.2485 65.805C53.2998 65.805 53.3511 65.805 53.4025 65.7956C53.4911 65.7583 53.5658 65.7163 53.5658 65.7163L53.5471 65.483" fill="black"/>
<path d="M52.5998 62.9258L52.5905 62.9771C52.4458 63.7051 52.2825 64.1811 52.2825 64.3958C52.2825 64.5824 52.3711 64.9698 52.5111 65.2824C52.4225 64.6338 52.5531 64.4331 52.6418 63.9524C52.7118 63.5838 52.6418 63.1311 52.5951 62.9305" fill="#575757"/>
</g>
<path d="M28.632 18.6295C27.876 20.7948 25.9814 22.9788 23.242 23.7675C20.1714 24.6495 18.3841 23.2122 17.5581 22.2135C17.7634 21.1028 17.9174 19.6375 17.9454 17.5375C17.9641 15.8249 19.1868 15.4609 20.2507 15.0876C24.3387 13.6409 25.846 16.1982 28.632 18.6295Z" fill="#E3E1D9" fill-opacity="0.39"/>
<path d="M28.072 35.126C27.5774 37.0486 27.414 38.8919 27.3534 40.8659C27.022 38.9386 27.0407 36.8433 28.072 35.126Z" fill="#E3DDD0"/>
<path d="M46.8971 32.7041C46.1831 35.2474 45.6278 37.9447 46.1038 40.572C45.5811 39.3167 45.6511 37.898 45.7491 36.5727C45.8191 35.2194 46.2158 33.8754 46.8971 32.7041Z" fill="#E3DDD0"/>
<path d="M36.1126 30.3894C36.9713 32.0367 37.8486 33.9454 37.4473 35.8447C36.8406 37.6274 36.1873 39.3867 35.45 41.118C35.6879 40.208 35.9679 39.312 36.2479 38.416C36.5233 37.52 36.8313 36.6334 37.1253 35.7467C37.5033 33.9361 36.7099 32.0834 36.1173 30.3848L36.1126 30.3894Z" fill="#E3DDD0"/>
<path d="M17.0074 51.002C17.2361 52.5233 19.1168 52.5979 19.9801 51.4919C19.8634 51.8233 19.6394 52.1359 19.3221 52.3366C18.3514 53.0086 16.7368 52.2759 17.0074 51.0066V51.002Z" fill="#D6D1C4"/>
<path d="M27.0686 51.3516C27.386 52.9755 29.6353 52.8915 30.5966 51.8416C30.4333 52.1962 30.1439 52.5042 29.7799 52.6955C28.7626 53.2975 26.8493 52.7515 27.0686 51.3516Z" fill="#E3DDD0"/>
<path d="M1.41147 10.2675C1.07547 9.8662 5.1961 5.87157 9.08806 5.8949C14.0953 5.9229 15.206 6.08623 16.298 5.28357C17.39 4.48558 18.6733 11.9195 14.3427 11.8868C11.5054 11.8635 13.6287 13.0628 8.1594 12.9602C5.62543 12.9135 4.10411 11.6535 3.13345 11.0468C2.0088 10.3469 1.74747 10.6689 1.41147 10.2675Z" fill="#FFFEFA"/>
<mask id="mask5_74_30582" style="mask-type:luminance" maskUnits="userSpaceOnUse" x="1" y="5" width="17" height="8">
<path d="M1.41147 10.2659C1.07547 9.86458 5.1961 5.86995 9.08806 5.89328C14.0953 5.92128 15.206 6.07995 16.298 5.28196C16.872 4.86196 17.4973 6.70994 17.3386 8.55326C17.194 10.2286 16.4053 11.8992 14.3427 11.8852C12.9707 11.8759 12.756 12.1512 12.2894 12.4265C11.7854 12.7205 10.9874 13.0145 8.16407 12.9585C5.63009 12.9119 4.10878 11.6519 3.13812 11.0452C2.01346 10.3452 1.75213 10.6672 1.41614 10.2659" fill="white"/>
</mask>
<g mask="url(#mask5_74_30582)">
<path d="M16.6061 10.532C15.5561 10.1494 14.5014 10.4574 13.5354 10.924C13.1854 11.092 12.8401 11.2694 12.4948 11.4374C12.2008 11.2787 11.8508 11.372 11.5148 11.4047C10.7495 11.4794 9.97948 11.5074 9.20948 11.484C7.6275 11.4374 6.07818 11.1667 4.5662 10.7047C4.3142 10.63 4.10887 10.6814 3.9502 10.8027L3.53021 10.6674C2.62022 10.3734 2.22822 11.806 3.13821 12.0953C3.25488 12.1327 3.37621 12.17 3.49287 12.2073C2.92821 12.5527 3.04488 13.6167 3.85687 13.5793C5.50419 13.5047 7.11417 13.6307 8.74749 13.836C9.51281 13.934 10.2875 13.976 11.0435 13.7893C11.4915 13.6773 12.0328 13.4533 12.4248 13.1173C12.6581 13.0147 12.8914 12.9027 13.1201 12.7953C14.0861 12.3333 15.1034 11.554 16.2141 11.96C17.1101 12.2867 17.4974 10.854 16.6061 10.532Z" fill="#F0EDE4"/>
</g>
<path d="M14.6369 10.6034C14.6369 10.6034 12.2849 12.7221 8.51891 12.0968C4.75295 11.4621 5.99427 10.9394 2.62964 10.1181C2.62964 10.1181 3.90829 8.64347 6.0596 7.69614C6.25094 7.61215 6.45627 7.52815 6.6616 7.45348C8.41158 7.00548 10.0402 6.92149 11.2862 7.07082C11.7669 7.16415 12.1822 7.36481 12.6862 7.55148C12.9895 7.65881 13.3675 7.95747 13.6382 8.39147C13.5775 9.61879 14.3709 9.88479 14.3709 9.88479C14.5389 10.3001 14.6369 10.5941 14.6369 10.5941V10.6034Z" fill="#F5C2BA"/>
<path d="M14.3708 9.89387C13.4702 10.4492 12.8075 9.38521 12.8075 9.38521C12.8075 9.38521 10.1989 10.3745 9.61088 10.2065C9.05556 10.0479 11.3842 8.96988 11.6455 8.84855C11.4262 8.90922 9.67622 9.38988 9.37755 9.16122C9.12555 8.96988 9.64822 8.72722 9.88155 8.62922C9.60155 8.72722 8.84556 8.98388 8.63089 8.88589C8.47689 8.81122 8.75222 8.60589 9.01356 8.44256C8.81289 8.53122 8.54223 8.61055 8.28556 8.57322C7.8329 8.49856 8.78489 7.8359 9.04155 7.66323C8.57489 7.92923 5.82625 9.50655 5.82625 9.10055C5.82625 8.84855 6.55425 8.34922 7.17024 7.97123C6.60558 8.26056 5.91025 8.55455 5.55559 8.42389C5.12626 8.26989 5.65359 7.92456 6.05959 7.70523C6.26492 7.5979 6.02692 7.7099 6.57758 7.46723C7.59957 7.01924 10.0449 6.91657 11.2862 7.0799C12.4155 7.2339 13.6428 7.90123 13.6382 8.40522C13.5775 9.63254 14.3708 9.89854 14.3708 9.89854V9.89387Z" fill="#F5806E"/>
<path d="M43.9292 10.2675C44.2652 9.8662 40.1446 5.87157 36.2526 5.8949C31.2453 5.9229 30.1347 6.08623 29.0427 5.28357C27.9507 4.48558 26.6674 11.9195 30.998 11.8868C33.8353 11.8635 31.712 13.0628 37.1813 12.9602C39.7153 12.9135 41.2366 11.6535 42.2072 11.0468C43.3319 10.3469 43.5932 10.6689 43.9292 10.2675Z" fill="#FFFEFA"/>
<mask id="mask6_74_30582" style="mask-type:luminance" maskUnits="userSpaceOnUse" x="27" y="5" width="17" height="8">
<path d="M43.9291 10.2659C44.2651 9.86458 40.1445 5.86995 36.2525 5.89328C31.2453 5.92128 30.1346 6.07995 29.0426 5.28196C28.4686 4.86196 27.8433 6.70994 28.002 8.55326C28.1466 10.2286 28.9353 11.8992 30.9979 11.8852C32.3699 11.8759 32.5846 12.1512 33.0512 12.4265C33.5552 12.7205 34.3532 13.0145 37.1765 12.9585C39.7105 12.9119 41.2318 11.6519 42.2025 11.0452C43.3271 10.3452 43.5885 10.6672 43.9245 10.2659" fill="white"/>
</mask>
<g mask="url(#mask6_74_30582)">
<path d="M28.7393 10.532C29.7893 10.1494 30.8439 10.4574 31.8099 10.924C32.1599 11.092 32.5053 11.2694 32.8506 11.4374C33.1446 11.2787 33.4946 11.372 33.8306 11.4047C34.5959 11.4794 35.3659 11.5074 36.1359 11.484C37.7179 11.4374 39.2672 11.1667 40.7792 10.7047C41.0312 10.63 41.2365 10.6814 41.3952 10.8027L41.8152 10.6674C42.7252 10.3734 43.1172 11.806 42.2072 12.0953C42.0905 12.1327 41.9692 12.17 41.8525 12.2073C42.4172 12.5527 42.3005 13.6167 41.4885 13.5793C39.8412 13.5047 38.2312 13.6307 36.5979 13.836C35.8326 13.934 35.0579 13.976 34.3019 13.7893C33.8539 13.6773 33.3126 13.4533 32.9206 13.1173C32.6873 13.0147 32.4539 12.9027 32.2253 12.7953C31.2593 12.3333 30.242 11.554 29.1313 11.96C28.2353 12.2867 27.848 10.854 28.7393 10.532Z" fill="#F0EDE4"/>
</g>
<path d="M30.7086 10.6034C30.7086 10.6034 33.0606 12.7221 36.8266 12.0968C40.5925 11.4621 39.3512 10.9394 42.7158 10.1181C42.7158 10.1181 41.4372 8.64347 39.2859 7.69614C39.0945 7.61215 38.8892 7.52815 38.6839 7.45348C36.9339 7.00548 35.3052 6.92149 34.0593 7.07082C33.5786 7.16415 33.1633 7.36481 32.6593 7.55148C32.3559 7.65881 31.9779 7.95747 31.7073 8.39147C31.7679 9.61879 30.9746 9.88479 30.9746 9.88479C30.8066 10.3001 30.7086 10.5941 30.7086 10.5941V10.6034Z" fill="#F5C2BA"/>
<path d="M30.9746 9.89387C31.8753 10.4492 32.5379 9.38521 32.5379 9.38521C32.5379 9.38521 35.1466 10.3745 35.7346 10.2065C36.2899 10.0479 33.9612 8.96988 33.6999 8.84855C33.9192 8.90922 35.6692 9.38988 35.9679 9.16122C36.2199 8.96988 35.6972 8.72722 35.4639 8.62922C35.7439 8.72722 36.4999 8.98388 36.7146 8.88589C36.8686 8.81122 36.5932 8.60589 36.3319 8.44256C36.5326 8.53122 36.8032 8.61055 37.0599 8.57322C37.5125 8.49856 36.5606 7.8359 36.3039 7.66323C36.7706 7.92923 39.5192 9.50655 39.5192 9.10055C39.5192 8.84855 38.7912 8.34922 38.1752 7.97123C38.7399 8.26056 39.4352 8.55455 39.7899 8.42389C40.2192 8.26989 39.6919 7.92456 39.2859 7.70523C39.0805 7.5979 39.3185 7.7099 38.7679 7.46723C37.7459 7.01924 35.3006 6.91657 34.0592 7.0799C32.9299 7.2339 31.7026 7.90123 31.7073 8.40522C31.7679 9.63254 30.9746 9.89854 30.9746 9.89854V9.89387Z" fill="#F5806E"/>
<path d="M14.0581 9.24001C14.0581 5.81937 17.3387 1.89941 21.744 1.89941C26.1493 1.89941 29.9526 5.63738 30.0179 9.24001C30.0179 9.44534 30.0179 9.65067 30.0179 9.86067C30.0086 10.2153 29.9899 10.5793 29.9666 10.9433C29.9573 11.046 29.9526 11.1487 29.9433 11.2513C29.9339 11.3353 29.9293 11.424 29.9199 11.508L29.9106 11.62C29.9059 11.704 29.8966 11.788 29.8873 11.872C29.8779 11.9746 29.8639 12.0773 29.8546 12.18V12.1893C29.8453 12.2733 29.8359 12.362 29.8219 12.446L29.8079 12.558C29.7986 12.6373 29.7846 12.7166 29.7753 12.8006C29.7613 12.894 29.7473 12.9873 29.7333 13.0806L29.7239 13.146C29.7099 13.23 29.6959 13.3093 29.6819 13.3933V13.4306C29.6586 13.5286 29.6399 13.6266 29.6259 13.7246C29.6119 13.8133 29.5933 13.902 29.5746 13.9906L29.5653 14.056C29.5513 14.14 29.5279 14.224 29.5139 14.3033L29.5046 14.3593C29.4673 14.5273 29.43 14.6906 29.3926 14.8586L29.3646 14.9753C29.3413 15.0593 29.3226 15.1479 29.2993 15.2319C29.2713 15.3486 29.2433 15.4606 29.2106 15.5773L29.1826 15.6799C29.1686 15.7313 29.1546 15.7779 29.1406 15.8246C29.1266 15.8759 29.1126 15.9226 29.0986 15.9739C29.0846 16.0206 29.0706 16.0673 29.0566 16.1139V16.1233C29.024 16.2166 28.996 16.3099 28.9633 16.4033C28.9493 16.4499 28.9353 16.4966 28.9213 16.5386V16.5479C28.87 16.6879 28.8186 16.8326 28.7673 16.9679C28.7486 17.0146 28.73 17.0613 28.7113 17.1079C28.6786 17.1966 28.6413 17.2853 28.6086 17.3739C28.5853 17.4253 28.5666 17.4719 28.548 17.5186C28.5293 17.5653 28.5106 17.6119 28.492 17.6539C28.4686 17.6959 28.45 17.7426 28.4313 17.7893C28.3753 17.9246 28.31 18.0553 28.2493 18.1859C28.2073 18.2746 28.1653 18.3632 28.1186 18.4472C28.0953 18.4892 28.0766 18.5312 28.0533 18.5779C28.03 18.6199 28.0066 18.6619 27.9833 18.7039C27.96 18.7459 27.9366 18.7879 27.9133 18.8299C27.8666 18.9139 27.82 18.9932 27.7733 19.0772L27.6986 19.1939C27.6753 19.2359 27.6473 19.2732 27.624 19.3152C27.5726 19.3946 27.526 19.4739 27.4746 19.5486C27.4466 19.5906 27.4233 19.6279 27.3953 19.6652C27.344 19.7399 27.2926 19.8192 27.2366 19.8892L27.1573 20.0012C27.12 20.0526 27.0826 20.1039 27.0406 20.1552C27.0033 20.2019 26.966 20.2486 26.924 20.2999C26.882 20.3466 26.8446 20.3932 26.8073 20.4399C26.7653 20.4912 26.7233 20.5332 26.686 20.5799C26.644 20.6266 26.602 20.6732 26.5646 20.7152C26.5226 20.7619 26.4806 20.8039 26.4386 20.8506C26.3966 20.8926 26.3546 20.9392 26.3126 20.9812C26.2706 21.0232 26.2286 21.0652 26.182 21.1072C26.14 21.1492 26.0933 21.1912 26.0513 21.2286L25.9487 21.3219L25.874 21.3872L25.762 21.4805C25.72 21.5179 25.6733 21.5552 25.622 21.5879L25.6127 21.5972C25.5193 21.6719 25.426 21.7372 25.328 21.8072C25.2347 21.8679 25.1413 21.9285 25.048 21.9892C24.054 22.6005 22.8827 22.9505 21.5294 22.9505C20.2647 22.9505 19.2101 22.6472 18.3281 22.1105C18.2767 22.0779 18.2301 22.0499 18.1834 22.0172L18.0761 21.9425L17.9921 21.8865C17.9501 21.8539 17.9081 21.8259 17.8661 21.7932C17.8241 21.7605 17.7774 21.7232 17.7307 21.6859C17.6701 21.6345 17.6094 21.5879 17.5487 21.5319C17.4367 21.4386 17.3294 21.3359 17.2267 21.2286C17.1847 21.1912 17.1474 21.1492 17.1101 21.1072L17.0261 21.0186C16.9747 20.9626 16.9234 20.9019 16.8767 20.8459L16.8021 20.7572L16.7507 20.6966L16.6901 20.6172C16.6574 20.5752 16.6247 20.5332 16.5921 20.4866L16.5361 20.4119L16.4847 20.3419L16.4287 20.2579C16.4007 20.2206 16.3727 20.1786 16.3447 20.1366L16.2747 20.0386C16.2514 19.9966 16.2234 19.9592 16.2001 19.9172C16.1721 19.8799 16.1488 19.8379 16.1254 19.7959L16.0741 19.7166C15.7614 19.1799 15.5001 18.6012 15.2761 17.9806C15.2528 17.9153 15.2294 17.8499 15.2061 17.7893C15.1828 17.7286 15.1641 17.6679 15.1454 17.6073C15.1221 17.5326 15.0941 17.4579 15.0708 17.3833C15.0521 17.3226 15.0334 17.2666 15.0148 17.2059V17.1966C14.9914 17.1313 14.9728 17.0659 14.9541 17.0006C14.9354 16.9353 14.9168 16.8653 14.8981 16.7999C14.8748 16.7253 14.8561 16.6413 14.8374 16.5619C14.8281 16.5153 14.8141 16.4686 14.8001 16.4266C14.7908 16.3799 14.7768 16.3379 14.7674 16.2913C14.7534 16.2399 14.7394 16.1793 14.7301 16.1233C14.7161 16.0719 14.7068 16.0206 14.6928 15.9646C14.6741 15.8993 14.6648 15.8293 14.6508 15.7639C14.6368 15.6939 14.6228 15.6286 14.6088 15.5539L14.5854 15.4373C14.5714 15.3673 14.5574 15.3019 14.5481 15.2319L14.5294 15.1293C14.4501 14.7 14.3848 14.266 14.3288 13.8226C14.3194 13.748 14.3101 13.678 14.3008 13.6033C14.2681 13.3326 14.2401 13.0573 14.2168 12.7866C14.2074 12.6653 14.1934 12.544 14.1841 12.4226C14.1608 12.1473 14.1468 11.8766 14.1281 11.606C14.1281 11.5407 14.1188 11.4753 14.1188 11.41C14.1048 11.1067 14.0908 10.7987 14.0814 10.5C14.0814 10.4253 14.0814 10.3507 14.0768 10.2807C14.0768 10.108 14.0674 9.94 14.0674 9.772C14.0674 9.59 14.0628 9.40334 14.0628 9.22134" fill="#FFFEFA"/>
<path d="M15.0568 5.59567C15.0195 5.52567 14.3661 2.92637 17.1801 2.63237C17.1801 2.63237 16.8441 0.635055 19.4294 0.845053C19.4294 0.845053 20.4607 0.173059 21.0487 1.03638C21.0487 1.03638 22.1641 -1.12893 23.4894 0.803053C23.4894 0.803053 24.9594 -0.335602 25.468 1.37238C25.468 1.37238 26.896 0.826386 26.7933 2.5297C26.7933 2.5297 28.0673 1.99304 28.0767 3.39303C28.0767 3.39303 28.9587 2.97303 28.9167 4.25635C28.9167 4.25635 29.6726 4.63435 29.066 5.26434C28.4547 5.89434 27.512 5.79167 27.0687 5.24101C27.0687 5.24101 26.7093 5.49767 26.1634 5.28301C25.9207 5.18968 25.664 4.84901 25.342 4.61101C24.6047 4.06502 24.502 6.123 24.418 7.15432C24.334 8.18565 22.5841 8.47964 22.2621 7.32232C22.2621 7.32232 19.3548 7.96165 19.2894 6.165C19.2708 5.72634 19.2101 5.81034 19.1121 5.89434C18.9581 6.02967 18.7061 6.16033 18.4074 4.23302C18.4074 4.23302 17.6934 5.787 16.7881 5.18034C16.7881 5.18034 15.4815 6.319 15.0661 5.60034" fill="#EDEAE1"/>
<path d="M22.2293 0.709961C21.8887 0.709961 21.8 0.929292 21.6787 1.14862C21.5574 1.36795 21.4034 1.58729 20.9367 1.58729C20.7734 1.58729 20.568 1.55929 20.316 1.49862C20.092 1.44262 19.896 1.41929 19.7234 1.41929C18.5007 1.41929 18.4027 2.61394 18.4027 2.61394C18.2767 3.5146 18.3561 3.71993 18.5147 3.71993C18.5801 3.71993 18.6594 3.6826 18.7434 3.64993C18.8274 3.61726 18.916 3.57993 19 3.57993C19.196 3.57993 19.364 3.77126 19.3874 4.61126C19.4294 6.19324 20.0454 6.73923 20.5214 6.73923C20.7734 6.73923 20.9834 6.58524 21.0487 6.35657C21.184 5.88058 21.73 5.30658 21.996 5.30658C22.108 5.30658 22.1687 5.40925 22.1313 5.66591C22.0473 6.18391 22.4207 6.56657 22.906 6.56657C23.2233 6.56657 23.592 6.40324 23.9093 6.00191C24.7073 4.99392 23.0273 3.56127 23.8253 3.18327C24.6233 2.80527 26.2006 3.03394 25.972 2.23595C25.86 1.84862 25.6733 1.74595 25.3746 1.74595C25.0527 1.74595 24.5953 1.86728 23.9513 1.89995H23.8533C22.7427 1.89995 23.312 0.845293 22.3553 0.723961C22.3087 0.719294 22.2713 0.714628 22.234 0.714628" fill="#F7F4EB"/>
<path d="M15.6589 10.3417C15.6589 10.3417 15.3789 11.9237 16.2375 12.0684C17.0962 12.2131 17.0402 10.9204 16.9562 10.6637C16.8722 10.4117 15.9202 9.81441 15.6589 10.3417Z" fill="black"/>
<path d="M16.8908 11.0882C16.8908 11.5875 16.6435 11.9888 16.3448 11.9888C16.0462 11.9888 15.7988 11.5875 15.7988 11.0882C15.7988 10.5888 16.0462 10.1875 16.3448 10.1875C16.6435 10.1875 16.8908 10.5888 16.8908 11.0882Z" fill="#B8911F"/>
<path d="M16.1021 11.1261C16.1021 11.5834 16.0368 11.8401 16.3448 11.8401C16.6154 11.8401 16.5874 11.5881 16.5874 11.1261C16.5874 10.6641 16.6341 10.4121 16.3448 10.4121C16.0834 10.4121 16.1021 10.6641 16.1021 11.1261Z" fill="black"/>
<path d="M15.1035 10.7522C15.1035 10.7522 15.6308 9.89817 16.1348 9.9915C16.8068 10.1128 17.1242 10.7895 17.2875 11.3495C17.2875 11.3495 16.8675 10.4675 16.3075 10.3695C15.7475 10.2715 15.1035 10.7522 15.1035 10.7522Z" fill="black"/>
<path d="M16.0975 10.9254C16.1696 10.9254 16.2281 10.8481 16.2281 10.7527C16.2281 10.6574 16.1696 10.5801 16.0975 10.5801C16.0253 10.5801 15.9668 10.6574 15.9668 10.7527C15.9668 10.8481 16.0253 10.9254 16.0975 10.9254Z" fill="white"/>
<path d="M16.2654 11.0371C16.2654 11.0838 16.2374 11.1211 16.2001 11.1211C16.1628 11.1211 16.1348 11.0838 16.1348 11.0371C16.1348 10.9905 16.1628 10.9531 16.2001 10.9531C16.2374 10.9531 16.2654 10.9905 16.2654 11.0371Z" fill="white"/>
<path d="M28.4219 10.3515C28.4219 10.3515 28.7019 11.9335 27.8433 12.0782C26.9846 12.2228 27.0406 10.9302 27.1246 10.6735C27.2086 10.4215 28.1606 9.82418 28.4219 10.3515Z" fill="black"/>
<path d="M27.1901 11.0979C27.1901 11.5973 27.4374 11.9986 27.7361 11.9986C28.0347 11.9986 28.2821 11.5973 28.2821 11.0979C28.2821 10.5986 28.0347 10.1973 27.7361 10.1973C27.4374 10.1973 27.1901 10.5986 27.1901 11.0979Z" fill="#B8911F"/>
<path d="M27.9787 11.1349C27.9787 11.5922 28.044 11.8489 27.736 11.8489C27.4654 11.8489 27.4934 11.5969 27.4934 11.1349C27.4934 10.6729 27.4467 10.4209 27.736 10.4209C27.9974 10.4209 27.9787 10.6729 27.9787 11.1349Z" fill="black"/>
<path d="M28.9773 10.7619C28.9773 10.7619 28.45 9.90794 27.946 10.0013C27.274 10.1226 26.9567 10.7993 26.7933 11.3593C26.7933 11.3593 27.2133 10.4773 27.7733 10.3839C28.3287 10.2906 28.9773 10.7666 28.9773 10.7666V10.7619Z" fill="black"/>
<path d="M27.8527 10.7615C27.8527 10.8549 27.9133 10.9342 27.9833 10.9342C28.0533 10.9342 28.114 10.8595 28.114 10.7615C28.114 10.6635 28.0533 10.5889 27.9833 10.5889C27.9133 10.5889 27.8527 10.6635 27.8527 10.7615Z" fill="white"/>
<path d="M27.8853 11.1299C27.9214 11.1299 27.9506 11.0923 27.9506 11.0459C27.9506 10.9995 27.9214 10.9619 27.8853 10.9619C27.8492 10.9619 27.8199 10.9995 27.8199 11.0459C27.8199 11.0923 27.8492 11.1299 27.8853 11.1299Z" fill="white"/>
<path d="M22.7987 17.7152C21.6834 17.7152 20.5167 17.1039 20.5167 17.1039C20.1248 16.8286 20.6521 16.3852 21.2681 16.1426C21.4174 16.0819 21.7254 16.0492 22.0941 16.0492C23.2467 16.0492 24.978 16.3666 24.222 17.1739C23.844 17.5752 23.3261 17.7152 22.7987 17.7152ZM22.5001 15.5312H22.4627C20.4934 15.5452 20.0781 16.8146 19.8448 17.3279C19.7281 17.5939 19.7374 18.7652 20.1481 19.8339C20.4048 19.9412 20.6801 19.9972 20.9554 19.9972C21.5341 19.9972 22.1221 19.7592 22.5747 19.3252C22.5747 19.3252 22.9434 19.6425 23.4427 19.7919C23.6201 19.8432 23.8161 19.8759 24.0027 19.8759C24.292 19.8759 24.5674 19.8059 24.7494 19.6285C25.0107 18.6346 24.964 17.6172 24.908 17.4119C24.796 16.9872 24.4367 15.5359 22.5001 15.5359" fill="#F8F5EE"/>
<path d="M24.7494 19.6377C24.4741 20.6924 23.8441 21.7143 22.4954 21.7143C21.2354 21.7143 20.5261 20.823 20.1434 19.843C20.4748 20.0344 20.8761 20.1464 21.2728 20.151C21.7441 20.1604 22.2061 20.0204 22.5561 19.7124C22.9714 19.913 23.4054 20.081 23.8487 20.0624C23.9887 20.0624 24.1241 20.039 24.2687 19.9924C24.4554 19.9177 24.6187 19.7917 24.7447 19.6424L24.7494 19.6377Z" fill="#EDEAE1"/>
<path d="M23.8534 20.0531C23.5548 20.4638 23.1348 20.7391 22.5561 20.7391C22.0195 20.7391 21.5995 20.5011 21.2775 20.1418C21.7488 20.1511 22.2108 20.0111 22.5608 19.7031C22.9761 19.9038 23.4101 20.0718 23.8534 20.0531Z" fill="#F5F2E8"/>
<path d="M24.7494 19.6239V19.6332C24.6281 19.7825 24.4647 19.9085 24.2734 19.9832C23.6807 20.1699 23.1021 19.9692 22.5607 19.7032C21.9121 20.2819 20.8621 20.2585 20.1434 19.8385C20.9461 20.1745 21.9027 19.9692 22.5701 19.3252C22.5701 19.3252 22.9387 19.6425 23.4381 19.7919C23.8907 19.9272 24.4461 19.9132 24.7494 19.6285V19.6239Z" fill="#FFFCF3"/>
<path d="M24.7727 19.6052L24.7494 19.6285C24.6281 19.7825 24.4647 19.9085 24.2734 19.9832C23.6807 20.1699 23.1021 19.9692 22.5607 19.7032C21.9121 20.2819 20.8621 20.2585 20.1434 19.8385C20.9461 20.1745 21.9027 19.9692 22.5701 19.3252C22.5701 19.3252 22.9387 19.6425 23.4381 19.7919C23.8907 19.9272 24.4461 19.9132 24.7494 19.6285L24.7727 19.6099V19.6052Z" fill="#A63F50"/>
<path d="M22.0988 16.0527C21.7301 16.0527 21.4221 16.0854 21.2728 16.1461C20.6521 16.3887 20.1248 16.8321 20.5214 17.1074C20.5214 17.1074 21.6834 17.7187 22.8034 17.7187C23.3308 17.7187 23.8487 17.5834 24.2267 17.1774C24.9874 16.3701 23.2514 16.0527 22.0988 16.0527Z" fill="#FBF9F5"/>
<path d="M20.4701 16.9914C20.3114 17.0194 19.9661 17.1967 20.4794 17.71C20.9928 18.2234 21.5201 19.3247 22.5654 19.3247C23.3821 19.3247 23.9841 18.606 24.4367 17.668C24.8847 16.7254 24.3481 16.9027 24.0167 17.052C23.7554 17.1687 23.3401 17.3927 22.5514 17.3974C21.5947 17.4067 20.9834 16.9027 20.4701 16.9914Z" fill="#FFC8D2"/>
<path d="M20.6101 17.4307C20.6101 17.4307 21.6974 17.7387 21.7908 18.3687C21.8188 18.5507 21.7394 18.5087 21.6554 18.4807C21.4548 18.4107 21.1934 17.9393 21.1328 17.832C21.0441 17.6827 20.6101 17.4307 20.6101 17.4307Z" fill="black"/>
<path d="M24.432 17.4307C24.432 17.4307 23.3447 17.7387 23.2513 18.3687C23.2233 18.5507 23.3027 18.5087 23.3867 18.4807C23.5873 18.4107 23.8487 17.9393 23.9093 17.832C23.998 17.6827 24.432 17.4307 24.432 17.4307Z" fill="black"/>
</svg>
