<svg width="83" height="50" viewBox="0 0 83 50" fill="none" xmlns="http://www.w3.org/2000/svg">
<path d="M52.8535 40.5097H16.6079C17.5478 38.9999 18.8476 36.2303 20.2375 33.1507C20.2475 33.1207 20.2675 33.0807 20.2775 33.0507C20.6574 32.7607 21.0674 32.3808 21.5173 31.9308C21.8273 31.6009 22.1672 31.2209 22.5072 30.821C22.6672 30.641 22.8272 30.461 22.9771 30.251C24.097 28.8612 25.3269 27.1614 26.5767 25.3416C26.5867 25.3116 26.5967 25.3017 26.6167 25.2717C27.0567 24.6217 27.5166 23.9618 27.9465 23.2819C28.3865 22.612 28.8364 21.9321 29.2664 21.2622C29.3464 21.1422 29.4264 21.0222 29.5064 20.9022H29.5264V20.8722C30.0463 20.0823 30.5462 19.2824 31.0462 18.5225C33.7758 14.273 36.0256 10.8135 36.7155 10.8135C37.7354 10.8135 39.6551 13.6431 41.8349 17.5626C41.9649 17.8226 42.1148 18.0526 42.2448 18.3225C43.1547 19.9823 44.1046 21.8121 45.0345 23.7019C47.0642 27.7713 49.064 32.0608 50.5438 35.3604C51.6337 37.7901 52.4836 39.6798 52.8435 40.5097H52.8535Z" fill="#ADCAE3"/>
<path opacity="0.53" d="M32.9559 17.2827C32.586 18.4525 31.5761 21.3421 31.5761 21.3421C31.5761 21.3421 33.7558 20.9622 34.0758 19.0024C34.6057 15.6429 35.9156 15.1229 35.9156 15.1229C36.2655 14.843 37.0454 19.9823 37.0454 19.9823C38.4553 19.1424 38.3953 15.8828 39.1752 15.8828C39.9551 15.8828 42.2948 20.1623 42.2948 20.1623L42.2648 18.3225C39.9151 14.0131 37.8053 10.8135 36.7155 10.8135C36.0256 10.8135 33.7858 14.283 31.0562 18.5225C31.0562 18.5225 33.3359 16.1128 32.9659 17.2827H32.9559Z" fill="#DCE7F2"/>
<g style="mix-blend-mode:multiply" opacity="0.36">
<path d="M42.8448 24.7315L39.8751 34.5003L21.5173 31.9206C21.8273 31.5906 22.1673 31.2107 22.5072 30.8107C22.6672 30.6308 22.8272 30.4508 22.9772 30.2408C24.097 28.851 25.3269 27.1512 26.5767 25.3314C26.5867 25.3014 26.5967 25.2914 26.6167 25.2614C27.0567 24.6115 27.5166 23.9516 27.9466 23.2717C28.3865 22.6018 28.8365 21.9219 29.2664 21.2519C29.6863 21.012 30.1163 20.822 30.1863 20.982C30.3163 21.3219 30.5562 23.3317 31.1162 24.1816C31.4361 24.6415 32.646 22.8617 33.0059 23.1517C33.3659 23.4317 33.7159 27.7211 34.0758 26.4313C34.9657 23.2617 35.1357 22.0318 35.4457 22.1918C35.7456 22.3218 36.0756 26.5413 37.2654 25.0015C38.4553 23.4517 38.7453 19.2922 39.0052 21.072C39.2552 22.8417 42.8348 24.7215 42.8348 24.7215L42.8448 24.7315Z" fill="#ADCAE3"/>
</g>
<path d="M0 49.4795H58.7829C58.5229 49.3095 58.243 49.1096 57.933 48.8996C56.0332 47.5998 53.1136 45.57 49.744 43.1403C48.3842 42.1604 46.9543 41.1106 45.4845 40.0307C43.4148 38.4909 41.275 36.8711 39.1853 35.2213C38.8553 34.9614 38.5254 34.7014 38.1954 34.4414C35.8257 32.5517 33.556 30.6119 31.4762 28.8021C29.1765 26.7924 27.1167 24.9426 25.4169 23.4728C25.3969 23.4628 25.3869 23.4428 25.3669 23.4328C25.3669 23.4328 25.3569 23.4228 25.3469 23.4228C24.1971 22.4329 23.2072 21.623 22.4273 21.0831C22.3273 21.0131 22.2373 20.9431 22.1473 20.8931C22.0573 20.8331 21.9674 20.7731 21.8874 20.7231C21.8674 20.7031 21.8374 20.6932 21.8074 20.6732C21.6274 20.5632 21.4574 20.4732 21.3074 20.4132C21.2774 20.4032 21.2474 20.3832 21.2174 20.3732C21.1574 20.3432 21.1075 20.3332 21.0475 20.3232C21.0175 20.3132 20.9875 20.3032 20.9475 20.2932C20.8975 20.2832 20.8475 20.2832 20.8075 20.2832C20.7875 20.2832 20.7675 20.2832 20.7475 20.2832C20.7275 20.2832 20.7075 20.2832 20.6875 20.3032C20.6675 20.3032 20.6375 20.3232 20.6175 20.3332C20.5975 20.3432 20.5675 20.3532 20.5375 20.3732C20.5175 20.3832 20.4875 20.4032 20.4675 20.4232C20.3975 20.4732 20.3176 20.5332 20.2276 20.6132C20.2076 20.6332 20.1776 20.6532 20.1476 20.6832C20.0876 20.7431 20.0176 20.8031 19.9476 20.8831C19.8876 20.9431 19.8276 21.0031 19.7676 21.0731C19.6276 21.2231 19.4777 21.3931 19.3177 21.593C19.2677 21.653 19.2077 21.723 19.1577 21.793C18.7977 22.243 18.3878 22.7829 17.9578 23.3828C17.9078 23.4528 17.8478 23.5328 17.7979 23.6028C17.5779 23.9027 17.3579 24.2227 17.1279 24.5527C16.988 24.7526 16.848 24.9526 16.708 25.1626C16.278 25.7925 15.8181 26.4624 15.3482 27.1723C15.1282 27.5023 14.9082 27.8423 14.6782 28.1822C14.5582 28.3622 14.4383 28.5422 14.3183 28.7221C14.0883 29.0721 13.8583 29.432 13.6184 29.792C13.2584 30.3419 12.8884 30.9019 12.5185 31.4718C12.5185 31.4718 12.5185 31.4818 12.5085 31.4818C11.4586 33.0916 10.3787 34.7614 9.28888 36.4212C8.59896 37.481 7.89905 38.5409 7.20913 39.5708C7.17913 39.6108 7.14914 39.6608 7.11914 39.7108C4.39947 43.8102 1.82978 47.4998 0 49.4995L0 49.4795Z" fill="#5F93C2"/>
<path d="M12.5085 31.4615C12.6785 31.2615 18.2579 24.4624 18.3278 25.2023C18.4078 25.9522 19.6077 29.4318 19.6077 29.4318C19.6077 29.4318 19.9576 27.1721 22.0574 26.4222C22.4673 26.2722 24.9071 30.6216 24.9071 30.6216C24.9071 30.6216 26.0469 26.4122 27.4767 26.9421C28.8566 27.452 30.2764 28.1419 31.4663 28.7819C29.1665 26.7721 27.1068 24.9223 25.407 23.4525C23.1473 21.5028 21.5175 20.2529 20.8175 20.2529C19.8977 20.2529 16.4681 25.3823 12.5185 31.4515L12.5085 31.4615Z" fill="#DFE4E8"/>
<g style="mix-blend-mode:multiply" opacity="0.19">
<path d="M0 49.4792H58.7829C58.5229 49.3092 58.243 49.1092 57.933 48.8993C56.0332 47.5994 53.1136 45.5697 49.744 43.14C49.744 43.14 47.8542 46.3396 45.0946 46.2396C43.4148 46.1796 39.5852 42.0301 36.6156 39.1405C35.4857 38.0506 34.4858 37.1307 33.7659 36.6908C33.376 36.4508 33.076 36.3508 32.876 36.4408C32.876 36.4408 32.786 36.5008 32.7561 36.5508C31.8562 37.8007 33.8259 41.3602 33.6059 43.6199C33.566 44.0499 33.446 44.4298 33.216 44.7398C33.066 44.9398 32.6061 45.6697 31.8662 46.0596C31.1562 46.4296 30.1964 46.4896 28.9965 45.4897C26.0169 43.01 22.0073 35.8509 21.9873 34.4011C21.9374 29.5617 19.4077 37.0108 18.6478 41.6702C17.8778 46.3296 13.9683 46.1396 12.1285 44.0899C10.3488 42.1101 12.5085 38.6106 12.5185 35.8309C12.5185 35.7309 12.5185 35.6409 12.5185 35.5409C12.4685 34.5211 11.0587 35.161 9.29888 36.4008C8.60896 37.4607 7.90905 38.5206 7.21913 39.5504C7.18913 39.5904 7.15914 39.6404 7.12914 39.6904C4.40947 43.7899 1.83978 47.4794 0.00999879 49.4792H0Z" fill="#749DC2"/>
</g>
<path d="M82.9899 49.4087L80.9602 49.4786H14.3782L21.2773 38.58C22.9571 35.9503 23.947 35.0405 24.6869 33.8106C25.5468 32.4008 27.4266 30.701 28.0265 30.701C29.9363 30.701 30.8262 32.5308 32.456 34.0406C33.2159 34.7505 34.3158 35.0805 34.9757 35.0805C35.2157 35.0805 35.5656 34.6405 35.9956 33.8506C36.3955 33.1307 36.8855 32.1208 37.4154 30.901C37.9553 29.6611 38.5553 28.2113 39.2052 26.6115C39.2152 26.5715 39.2352 26.5415 39.2452 26.5015C39.3552 26.2316 39.4652 25.9616 39.5751 25.7016L39.5951 25.6616C39.5951 25.6616 39.6251 25.6017 39.6451 25.5517C43.3747 16.2528 48.3341 3.15449 51.2437 0.484822C51.3837 0.354838 51.5437 0.234853 51.6737 0.154864C51.7237 0.124867 51.7637 0.10487 51.8037 0.0848727C51.8937 0.0548764 51.9936 0.0248805 52.0736 0.0148818C52.0936 0.0148818 52.1236 0.00488281 52.1436 0.00488281C52.4636 0.00488281 52.8935 0.274848 53.4135 0.774785C53.4835 0.844776 53.5635 0.914768 53.6434 1.00476C53.8834 1.24473 54.1234 1.53469 54.3934 1.86465C56.2431 4.12436 58.8028 8.26384 61.6725 13.2032C63.0923 15.6429 64.5821 18.2826 66.0719 20.9822C66.9718 22.582 67.8517 24.2018 68.7516 25.8116C69.8915 27.8814 71.0313 29.9411 72.1212 31.9409C72.9211 33.3807 73.701 34.7905 74.4509 36.1403C74.9109 36.9602 75.3608 37.7601 75.7908 38.53C76.0407 38.97 76.2807 39.4099 76.5207 39.8199C76.6207 40.0198 76.7407 40.2098 76.8406 40.3898C76.8606 40.4198 76.8706 40.4398 76.8906 40.4698C77.6206 41.7596 78.3205 42.9495 78.9604 44.0093C79.4703 44.8692 79.9403 45.6291 80.3602 46.299C81.6301 48.2588 82.55 49.4187 82.9799 49.4187L82.9899 49.4087Z" fill="#91B0CC"/>
<g style="mix-blend-mode:multiply" opacity="0.31">
<path d="M82.9899 49.4087L80.9602 49.4787H14.3782L21.2773 38.5801C23.5371 36.3404 25.6968 34.3706 26.1967 34.4506C27.3066 34.6306 28.8264 43.8694 29.2164 43.8694C29.5863 43.8194 30.4962 37.9802 30.6962 37.6202C30.9062 37.2602 32.466 41.6697 34.5657 42.2996C36.6855 42.9495 39.2952 38.97 41.6049 34.7406C42.1348 33.7907 42.6248 32.8308 43.1147 31.9109C44.9045 28.4414 46.3743 25.4817 47.0242 25.6417C48.644 26.0417 51.4937 39.5 52.9235 39.8199C54.8433 40.2399 55.8932 18.7826 56.6131 18.5826C57.233 18.4026 58.6828 23.142 61.0126 28.9813C61.8225 31.041 62.7623 33.2608 63.8022 35.4305C66.3919 40.8398 67.3418 36.0704 67.9317 32.7408C68.0517 32.0409 68.1717 31.401 68.2717 30.941C68.3717 30.4811 68.4816 30.1811 68.5916 30.1611C68.7316 30.1411 70.4114 30.901 72.1412 32.2609C72.9411 33.6707 73.721 35.0505 74.4709 36.3804C74.9309 37.1803 75.3808 37.9702 75.8108 38.7201C76.0607 39.15 76.3007 39.58 76.5407 39.9899C76.5507 40.0099 76.6707 40.1399 76.8606 40.3599C76.8806 40.3899 76.8906 40.4098 76.9106 40.4398C77.6405 41.7297 78.3405 42.9195 78.9804 43.9794C79.4903 44.8393 79.9603 45.5992 80.3802 46.2691C81.6501 48.2289 82.57 49.3887 82.9999 49.3887L82.9899 49.4087Z" fill="#91B0CC"/>
</g>
<path d="M61.6726 13.1834C61.5626 13.0734 58.6129 10.0538 57.973 10.4038C57.3131 10.7537 54.9934 14.7732 54.9934 14.7732C54.9934 14.7732 53.7235 10.7637 52.6336 10.7237C51.5438 10.6837 49.904 17.2629 49.904 17.2629C49.904 17.2629 48.2842 11.7236 47.6742 11.8136C45.8845 12.0935 39.9552 24.8619 39.5952 25.6618C43.7247 15.4031 49.364 0.385013 52.0837 0.00506082C53.5035 -0.194914 57.2531 5.55436 61.6726 13.1934V13.1834Z" fill="#D0E1F2"/>
</svg>
