<svg width="70" height="70" viewBox="0 0 70 70" fill="none" xmlns="http://www.w3.org/2000/svg">
<path d="M69.9912 34.9951C69.9912 40.9628 68.4993 46.5805 65.8562 51.4983C63.4618 55.9833 60.1096 59.8788 56.0851 62.9271C50.2187 67.3661 42.9157 70 34.9956 70C15.6651 70 0 54.3256 0 35.0043C0 22.5533 6.51102 11.6125 16.319 5.41464C19.6896 3.27806 23.4471 1.71247 27.4623 0.837578C29.8936 0.303434 32.4078 0.0179443 34.9956 0.0179443C54.3261 0.0179443 69.9912 15.6923 69.9912 35.0136V34.9951Z" fill="#EAF1F8"/>
<path d="M56.0851 62.9185C50.2187 67.3574 42.9157 69.9913 34.9956 69.9913C15.6651 69.9913 0 54.317 0 34.9957C0 22.5446 6.51102 11.6039 16.319 5.40601C12.7089 9.11738 8.28843 14.1365 5.58088 21.7342C1.5748 32.9881 1.51034 33.5775 6.36367 41.2581C11.2078 48.9387 5.20329 55.9839 19.0726 60.2662C32.9511 64.5486 32.1039 63.333 35.0048 66.0129C37.8966 68.6928 40.5765 67.864 46.5902 66.2523C50.6055 65.1779 53.7704 64.0728 56.0851 62.937V62.9185Z" fill="#D8E6F6"/>
<path d="M15.7941 22.0195C15.7941 22.0195 12.9207 15.6005 19.5054 13.0864C22.0564 12.1102 22.1946 10.0841 26.6611 8.36196C31.1277 6.6398 36.0823 6.89767 38.6978 10.3328C39.766 11.7326 43.2932 13.1508 43.459 14.6704C43.9655 19.2474 42.0408 19.3395 42.0408 19.3395C43.1551 16.4386 40.2818 11.309 30.9251 9.96439C27.8307 9.52234 20.7303 13.8968 18.9252 15.0572C13.6483 18.4554 15.7941 22.0195 15.7941 22.0195Z" fill="#D8E6F6"/>
<path d="M42.9893 27.3062C43.7076 27.9232 45.5771 30.1979 46.0008 32.9791C46.4244 35.7604 46.5073 40.5216 45.0706 41.4425C43.6339 42.3635 42.5564 42.6397 39.545 42.9529C36.5335 43.266 36.3862 42.1885 35.5205 42.4924C34.6548 42.7963 37.169 46.609 43.8458 44.6658C46.9125 43.7725 48.5794 42.7963 48.8741 38.2008C49.1688 33.6054 50.1634 35.7511 50.0253 31.9108C49.8871 28.0705 42.9893 27.3062 42.9893 27.3062Z" fill="#D8E6F6"/>
<path d="M12.9852 40.6777C14.6613 43.9839 10.5631 43.5326 18.2529 47.7321C25.9428 51.9316 25.381 55.2285 30.1791 52.8249C34.9772 50.4212 33.1905 48.5425 31.8275 49.2516C30.4646 49.9608 29.958 52.3736 27.8675 50.5041C25.777 48.6346 25.2797 47.2901 23.6865 46.4888C22.0932 45.6876 21.0157 46.0468 19.6712 45.4205C18.3266 44.7943 14.4863 43.4589 15.3244 38.6332C16.1624 33.8075 18.0872 30.0593 15.4901 31.0447C12.8931 32.0301 11.3091 37.3808 12.9852 40.6869V40.6777Z" fill="#D8E6F6"/>
<path d="M63.8025 35.7875C64.8892 38.8266 65.893 41.396 63.9683 43.4128C62.0435 45.4297 63.0473 44.5364 61.8777 48.5516C60.7082 52.5669 59.5662 56.0941 56.4718 58.5899C53.3775 61.0856 49.3438 61.675 48.6715 60.0634C47.9992 58.4517 55.4128 58.1386 56.085 55.6429C56.7573 53.1471 54.7128 51.425 56.8402 50.8264C61.2331 49.5739 59.0597 46.0467 61.2331 44.3061C63.4065 42.5656 62.7895 41.0552 62.9644 39.6278C63.1394 38.2003 62.375 36.0545 62.6329 35.2533C62.8908 34.4521 63.8025 35.7875 63.8025 35.7875Z" fill="#D8E6F6"/>
<path d="M65.8563 51.4988C67.6613 45.0154 67.7534 30.9159 66.5746 30.8882C65.2392 30.8422 60.4043 33.0248 61.2332 28.3372C62.4672 21.4118 57.1442 30.8422 54.9708 28.9635C52.7974 27.0848 56.2233 22.0012 54.1327 18.1609C52.0422 14.3206 49.3715 17.8938 47.1152 14.6797C44.8589 11.4657 44.9418 7.71745 43.1828 4.41129C41.4698 1.19722 28.1347 0.838052 27.4532 0.819633C29.8845 0.28549 32.3986 0 34.9864 0C54.3169 0 69.9821 15.6743 69.9821 34.9956C69.9821 40.9633 68.4901 46.581 65.8471 51.4988H65.8563Z" fill="#F1F8FF"/>
</svg>
