<svg width="82" height="82" viewBox="0 0 82 82" fill="none" xmlns="http://www.w3.org/2000/svg">
<g filter="url(#filter0_d_210_4524)">
<path d="M42.2887 78.9701C42.0687 78.9701 41.8787 78.7901 41.8687 78.5701L41.3487 69.5101C40.6587 72.1601 39.8987 74.4701 39.1387 76.5601C39.0787 76.7301 38.9187 76.8401 38.7387 76.8401L38.6087 76.8201C38.3887 76.7501 38.2687 76.5201 38.3287 76.3001C39.1787 73.2701 40.1487 70.2201 41.2287 67.2401L41.0287 63.8601C40.3087 66.5101 39.5287 68.8101 38.7487 70.9201C38.6887 71.0901 38.5287 71.2001 38.3487 71.2001L38.2187 71.1801C37.9987 71.1101 37.8787 70.8801 37.9487 70.6601C38.8187 67.6501 39.8187 64.6201 40.9187 61.6501L40.6487 57.0501C39.9587 59.6001 39.2087 61.8101 38.4487 63.8201C38.3887 63.9901 38.2287 64.1001 38.0487 64.1001L37.9187 64.0801L34.9987 63.5501L34.7787 63.4801L34.6887 63.4101C34.5887 63.3101 34.5387 63.1701 34.5587 63.0401V62.4001C34.5687 60.4701 34.6287 58.3701 34.7487 55.9601L32.9287 60.3901V60.6001C32.9287 63.6401 32.8287 66.7001 32.6087 69.6901C32.5887 69.9101 32.4087 70.0901 32.1887 70.0901C31.9487 70.0901 31.7687 69.9001 31.7587 69.6701V68.9301C31.7587 66.9801 31.8187 64.8501 31.9387 62.4101L30.7687 65.3401C30.7787 65.8601 30.7787 66.4001 30.7787 66.9401C30.7787 69.5801 30.6987 72.2501 30.5287 74.8801C30.5187 75.1001 30.3287 75.2801 30.1087 75.2801C29.8687 75.2801 29.6887 75.0901 29.6787 74.8601C29.6787 74.2301 29.6687 73.6001 29.6687 72.9701C29.6687 71.2701 29.7187 69.4201 29.8087 67.2901L26.2187 75.7801C26.1487 75.9401 25.9987 76.0401 25.8287 76.0401L25.6587 76.0101C25.4487 75.9201 25.3387 75.6701 25.4287 75.4601L28.8887 67.0601C27.1087 69.1601 25.4287 70.9101 23.8287 72.4601C23.7487 72.5401 23.6387 72.5801 23.5287 72.5801C23.4187 72.5801 23.3187 72.5401 23.2387 72.4601C23.0687 72.3001 23.0587 72.0401 23.2087 71.8701C25.2587 69.5401 27.4587 67.2201 29.7487 64.9701L31.0387 61.8301C29.2387 63.9101 27.5387 65.6501 25.9187 67.2101C25.8387 67.2901 25.7387 67.3301 25.6287 67.3301C25.5187 67.3301 25.4087 67.2901 25.3287 67.2101C25.1587 67.0501 25.1587 66.7901 25.3087 66.6201C27.3687 64.3201 29.5787 62.0201 31.8887 59.8001L33.6487 55.5201C31.8787 57.5701 30.2887 59.1901 28.7287 60.6801C28.6487 60.7501 28.5487 60.7901 28.4387 60.7901C28.2587 60.7901 28.1787 60.7501 28.1087 60.7101L25.6587 58.9001L25.6087 58.7701L25.5687 58.8001L25.4987 58.6601V58.5001L25.5187 58.3801C26.4487 56.4201 27.4987 54.3901 28.8087 51.9801L25.2287 55.2001C23.8887 58.0101 22.4287 60.7901 20.9087 63.4401C20.8287 63.5701 20.6887 63.6501 20.5387 63.6501L20.3387 63.6001C20.1387 63.4901 20.0487 63.2501 20.1487 63.0401C21.0887 61.0601 22.1487 59.0001 23.4787 56.5601L21.1287 58.7101C19.7887 61.5901 18.3287 64.4501 16.7787 67.2101C16.7087 67.3401 16.5587 67.4301 16.4087 67.4301L16.2187 67.3801C16.0087 67.2801 15.9287 67.0301 16.0287 66.8201C16.9987 64.7301 18.1087 62.5101 19.4387 60.0401L12.5087 66.1401C12.4287 66.2101 12.3287 66.2401 12.2287 66.2401C12.1087 66.2401 11.9887 66.1901 11.9087 66.1001C11.7587 65.9301 11.7687 65.6601 11.9487 65.5001L18.7087 59.4401C16.1987 60.5501 13.9287 61.4001 11.8187 62.1101L11.6787 62.1301C11.4987 62.1301 11.3387 62.0201 11.2787 61.8601C11.1987 61.6501 11.2987 61.4101 11.5087 61.3201C14.3887 60.1001 17.3887 58.9601 20.3987 57.9401L22.9087 55.6801C20.3887 56.7701 18.0987 57.6001 15.9687 58.2901L15.8387 58.3101C15.6587 58.3101 15.4987 58.2001 15.4387 58.0301C15.3587 57.8101 15.4587 57.5801 15.6787 57.4901C18.5687 56.3001 21.5587 55.1901 24.5687 54.2001L27.9987 51.1201C25.5687 52.1701 23.3687 52.9601 21.3387 53.6301L21.2087 53.6501C21.1087 53.6501 21.0087 53.6101 20.9287 53.5501L20.8487 53.4501L19.3387 50.6901L19.3087 50.5901C19.2587 50.4001 19.3487 50.2101 19.5087 50.1201C21.1887 48.7801 23.0387 47.3801 25.1987 45.8301L20.5687 47.1801C18.1087 49.1501 15.5987 51.0201 13.1087 52.7301L12.8687 52.8001C12.7387 52.8001 12.6087 52.7401 12.5287 52.6301C12.3887 52.4501 12.4287 52.1901 12.5987 52.0401C14.2887 50.6701 16.1987 49.2401 18.4087 47.6501L15.3487 48.5701C12.8787 50.5901 10.3187 52.5401 7.74867 54.3401L7.50866 54.4201C7.37866 54.4201 7.24867 54.3601 7.16867 54.2501C7.02867 54.0701 7.05867 53.8101 7.23867 53.6601C9.00867 52.2101 10.9787 50.6901 13.2587 49.0301L4.35867 51.5201H4.25866C4.06866 51.5301 3.89867 51.4101 3.84867 51.2201C3.78867 51.0001 3.91867 50.7601 4.13867 50.7001L12.7987 48.1901C10.3487 48.1201 7.88867 47.8901 5.48867 47.5901C5.25867 47.5601 5.09866 47.3601 5.11866 47.1301C5.13866 46.9101 5.31868 46.7401 5.53868 46.7401C8.69868 46.8901 11.8887 47.1601 15.0387 47.5501L18.2187 46.6201C15.7487 46.5301 13.2887 46.2701 10.8887 45.9501C10.6587 45.9201 10.4987 45.7201 10.5187 45.4901C10.5387 45.2701 10.7187 45.1001 10.9387 45.1001C14.0887 45.2801 17.2687 45.5801 20.3987 45.9901L24.8187 44.7101C22.1787 44.6001 19.8587 44.3601 17.7387 44.0801C17.5087 44.0501 17.3487 43.8501 17.3687 43.6201L17.1687 40.6501C17.1687 40.5201 17.2087 40.4001 17.3087 40.3101C17.3687 40.2301 17.4487 40.1701 17.5487 40.1501C19.6487 39.6601 21.9587 39.1901 24.5987 38.7301L19.8687 37.9401C16.8387 38.6401 13.7487 39.2401 10.7187 39.7101H10.7087C10.4487 39.7101 10.2787 39.5701 10.2387 39.3701C10.1987 39.1401 10.3387 38.9301 10.5587 38.8701C12.6987 38.3701 15.0287 37.9001 17.6987 37.4301L14.5587 36.9401C11.4887 37.6901 8.32868 38.3301 5.20868 38.8401H5.18867C4.92867 38.8401 4.75867 38.7001 4.71867 38.5001C4.66867 38.2801 4.80868 38.0601 5.03868 38.0001C7.42868 37.4201 9.90867 36.8901 12.4187 36.4301L3.37867 34.8301C3.14867 34.7901 2.99868 34.5701 3.03868 34.3401C3.07868 34.1401 3.24868 33.9901 3.45868 33.9901L12.4887 35.5101C10.0487 34.2401 7.96867 32.9901 6.09867 31.7801C5.90867 31.6601 5.84867 31.4001 5.96867 31.2101C6.04867 31.0801 6.18866 31.0001 6.33866 31.0001L6.53868 31.0501C9.26868 32.5301 12.0287 34.1601 14.7187 35.8901L18.0587 36.4501C15.6287 35.1601 13.5587 33.8901 11.6887 32.6601C11.4987 32.5301 11.4387 32.2801 11.5587 32.0801C11.6387 31.9501 11.7787 31.8701 11.9187 31.8701L12.1287 31.9201C14.8287 33.4101 17.5587 35.0601 20.2287 36.8101L24.7987 37.5801C22.4087 36.3101 20.4787 35.1201 18.6787 33.9401C18.5787 33.8801 18.5187 33.7801 18.4987 33.6601C18.4487 33.5601 18.4487 33.4401 18.4987 33.3301L19.7087 30.5201C19.7787 30.3601 19.9287 30.2601 20.0987 30.2601L20.2687 30.2901L20.3587 30.3501C22.4387 30.8101 24.6787 31.3801 27.1887 32.0901L23.2687 29.3201C20.2287 28.6401 17.1987 27.8401 14.2587 26.9401C14.0387 26.8701 13.9087 26.6501 13.9687 26.4201C14.0187 26.2301 14.1887 26.1001 14.3787 26.1001C16.6087 26.5901 18.9187 27.1701 21.5287 27.9101L18.9087 26.1001C15.8087 25.4401 12.6987 24.6501 9.65867 23.7501C9.43867 23.6901 9.30866 23.4601 9.36866 23.2401C9.41866 23.0501 9.58867 22.9201 9.77867 22.9201C12.2787 23.4401 14.7487 24.0401 17.1887 24.7201L9.73867 19.3501C9.54867 19.2101 9.50866 18.9501 9.64866 18.7601C9.72866 18.6501 9.85867 18.5801 9.99867 18.5801L10.2487 18.6601L17.6587 23.9101C16.0087 21.7001 14.6787 19.6701 13.5187 17.7801C13.3987 17.5801 13.4587 17.3301 13.6487 17.2001L13.8887 17.1301C14.0287 17.1301 14.1587 17.2001 14.2387 17.3101C16.0587 19.8301 17.8287 22.4901 19.5087 25.2201L22.2687 27.1701C20.6387 24.9501 19.3187 22.9101 18.1787 21.0001C18.0587 20.8001 18.1187 20.5501 18.3087 20.4201L18.5387 20.3501C18.6787 20.3501 18.8087 20.4201 18.8887 20.5301C20.6687 23.0401 22.4087 25.7101 24.0687 28.4401L27.8487 31.1101C26.2487 28.9301 25.0187 27.0201 23.9187 25.1801C23.7987 24.9801 23.8587 24.7301 24.0487 24.6001L24.1787 24.5501L26.2287 22.7401L26.2887 22.6401C26.3687 22.5501 26.4787 22.5001 26.6087 22.5001H26.6387C26.8287 22.5001 26.9287 22.5501 26.9987 22.6301L27.0687 22.7601C28.7087 24.0501 30.4587 25.5201 32.3887 27.2201L30.0487 23.0101C27.5787 21.0501 25.1887 19.0201 22.9587 16.9701C22.7887 16.8101 22.7787 16.5601 22.9187 16.3801C22.9987 16.2801 23.1187 16.2301 23.2387 16.2301C23.3387 16.2301 23.4287 16.2601 23.4987 16.3201C25.2187 17.6701 27.0387 19.2101 29.0887 21.0201L27.4987 18.2301C24.9787 16.2801 22.5087 14.2101 20.1887 12.1101C20.0187 11.9601 19.9987 11.7001 20.1487 11.5201C20.2287 11.4201 20.3487 11.3701 20.4787 11.3701C20.5687 11.3701 20.6687 11.4001 20.7387 11.4601C22.5587 12.8701 24.4687 14.4501 26.5887 16.3001L22.1787 8.18008C22.0687 7.97008 22.1487 7.72008 22.3487 7.61008L22.5487 7.56008C22.6987 7.56008 22.8487 7.64008 22.9187 7.78008L27.2887 15.6701C26.8087 13.2601 26.4887 10.8101 26.2487 8.41008C26.2287 8.18008 26.3887 7.98008 26.6087 7.95008H26.6187C26.8787 7.95008 27.0487 8.10008 27.0887 8.30008C27.6387 11.3901 28.0887 14.5601 28.4087 17.7201L30.0187 20.6101C29.5587 18.2001 29.2587 15.7401 29.0387 13.3301C29.0187 13.1001 29.1787 12.9001 29.4087 12.8701C29.6687 12.8701 29.8387 13.0201 29.8787 13.2201C30.3987 16.3001 30.8187 19.4501 31.1187 22.6001L33.3587 26.6301C32.8787 24.0301 32.5887 21.7201 32.3987 19.6001V19.4701L32.4687 19.3201L32.5787 19.2101H32.7187L32.7087 19.1501L35.6887 18.3101H35.8087L35.9587 18.3801L35.9787 18.3301L36.0687 18.4601L36.1087 18.4301L36.1887 18.5301C37.1387 20.4701 38.1087 22.6201 39.1487 25.0901L38.8687 20.3001C37.5087 17.5001 36.2387 14.6201 35.1087 11.7701C35.0287 11.5601 35.1187 11.3201 35.3287 11.2201L35.4987 11.1801C35.6587 11.1801 35.8087 11.2701 35.8787 11.4201C36.8387 13.3901 37.8287 15.5701 38.8787 18.0701L38.6587 14.8801C37.2387 12.0401 35.9187 9.11008 34.7287 6.19008C34.6387 5.98008 34.7287 5.74008 34.9487 5.64008L35.1287 5.60008C35.2887 5.60008 35.4387 5.69008 35.5087 5.84008C36.5387 7.90008 37.5687 10.1501 38.6787 12.7401L38.2287 3.52008C38.2287 3.29008 38.3987 3.09008 38.6287 3.08008C38.8787 3.08008 39.0587 3.26008 39.0687 3.48008L39.5887 12.5401C40.2787 9.90008 41.0387 7.59008 41.7987 5.49008C41.8587 5.32008 42.0187 5.21008 42.1987 5.21008L42.3287 5.23008C42.5487 5.30008 42.6687 5.53008 42.6087 5.75008C41.7687 8.77008 40.7887 11.8201 39.7087 14.8101L39.9087 18.1601C40.6187 15.5201 41.3987 13.2201 42.1787 11.1301C42.2387 10.9601 42.3987 10.8501 42.5787 10.8501L42.7087 10.8701C42.9287 10.9401 43.0487 11.1701 42.9887 11.3901C42.1287 14.3901 41.1287 17.4101 40.0387 20.3701L40.3087 24.9701C40.9987 22.4201 41.7487 20.2201 42.4887 18.2201L42.5987 18.1401L42.5587 18.1101L42.6987 18.0501L42.6687 18.0101L42.8187 17.9601H42.9387L45.9587 18.4801L46.0887 18.5301C46.2587 18.5801 46.3787 18.7401 46.3787 18.9201V19.5901C46.3787 21.5301 46.3187 23.6501 46.1987 26.0701L48.0187 21.6401V21.5301C48.0187 18.4701 48.1287 15.3801 48.3387 12.3701C48.3587 12.1501 48.5387 11.9701 48.7587 11.9701C48.9987 11.9701 49.1787 12.1601 49.1887 12.3901V13.0601C49.1887 15.0201 49.1287 17.1601 49.0087 19.6101L50.1687 16.7101C50.1587 16.1901 50.1587 15.6501 50.1587 15.1101C50.1587 12.4701 50.2387 9.79008 50.4087 7.17008C50.4187 6.95008 50.6087 6.77008 50.8287 6.77008C51.0687 6.77008 51.2487 6.96008 51.2587 7.19008C51.2587 7.82008 51.2687 8.45008 51.2687 9.08008C51.2687 10.7901 51.2287 12.5901 51.1287 14.7601L54.7187 6.27008C54.7887 6.11008 54.9387 6.01008 55.1087 6.01008L55.2787 6.04008C55.4887 6.13008 55.5987 6.38008 55.5087 6.59008L52.0387 14.9901C53.8187 12.8901 55.5087 11.1401 57.0987 9.59008C57.1787 9.51008 57.2887 9.47009 57.3987 9.47009C57.5087 9.47009 57.6087 9.51008 57.6887 9.59008C57.8587 9.75008 57.8687 10.0101 57.7187 10.1801C55.6687 12.5101 53.4687 14.8301 51.1787 17.0801L49.8787 20.2501C51.6887 18.1601 53.3987 16.4101 55.0287 14.8501C55.1087 14.7701 55.2087 14.7301 55.3187 14.7301C55.4287 14.7301 55.5387 14.7701 55.6187 14.8501C55.7887 15.0101 55.7887 15.2701 55.6387 15.4401C53.5687 17.7501 51.3487 20.0501 49.0387 22.2701L47.2787 26.5501C49.0687 24.4901 50.6587 22.8601 52.2187 21.3701L52.3287 21.3001L52.4787 21.2601L52.6187 21.3301V21.2801L52.7287 21.3801L52.7587 21.3401L55.1487 23.0701C55.4187 23.2301 55.4987 23.4701 55.3987 23.6801C54.4787 25.6301 53.4287 27.6501 52.1187 30.0601L55.6987 26.8401C57.0387 24.0401 58.4987 21.2701 60.0087 18.6201C60.0887 18.4901 60.2287 18.4101 60.3787 18.4101L60.5787 18.4601C60.7787 18.5701 60.8687 18.8101 60.7687 19.0201C59.8287 21.0001 58.7787 23.0401 57.4487 25.4601L59.7687 23.3301C61.0987 20.4601 62.5687 17.5901 64.1187 14.8301C64.1887 14.7001 64.3387 14.6101 64.4887 14.6101L64.6787 14.6601C64.8787 14.7601 64.9687 15.0101 64.8687 15.2201C63.8987 17.3101 62.7887 19.5201 61.4587 22.0001L68.3887 15.9001C68.4687 15.8301 68.5687 15.8001 68.6687 15.8001C68.7887 15.8001 68.9087 15.8501 68.9887 15.9401C69.1387 16.1201 69.1287 16.3801 68.9487 16.5401L62.1887 22.6001C64.6987 21.4901 66.9687 20.6401 69.0787 19.9301L69.2187 19.9101C69.3987 19.9101 69.5587 20.0201 69.6187 20.1801C69.6987 20.3901 69.5987 20.6301 69.3887 20.7201C66.4987 21.9501 63.5087 23.0801 60.4987 24.1001L57.9587 26.3801C60.4887 25.2901 62.7787 24.4601 64.9287 23.7601L65.0587 23.7401C65.2387 23.7401 65.3987 23.8501 65.4587 24.0201C65.5387 24.2401 65.4387 24.4701 65.2187 24.5601C62.3187 25.7601 59.3287 26.8701 56.3087 27.8601L52.8787 30.9401C55.3087 29.8901 57.5187 29.1001 59.5587 28.4301L59.6787 28.4601V28.4101L59.8387 28.4401L59.9387 28.5601L59.9687 28.5201L60.0087 28.6501L60.0487 28.6301L61.5587 31.2701C61.6287 31.3901 61.6287 31.5301 61.5687 31.6501C61.5487 31.7401 61.4987 31.8301 61.4187 31.9001C59.7387 33.2501 57.9187 34.6301 55.6887 36.2301L60.3287 34.8801C62.7787 32.9101 65.2887 31.0501 67.7687 29.3501L68.0087 29.2801C68.1387 29.2801 68.2687 29.3401 68.3487 29.4501C68.4887 29.6301 68.4487 29.8901 68.2787 30.0301C66.5787 31.4001 64.7387 32.7901 62.4887 34.4001L65.5187 33.4901C67.9887 31.4601 70.5487 29.5201 73.1187 27.7201L73.3587 27.6401C73.4887 27.6401 73.6187 27.7001 73.6987 27.8101C73.8387 27.9901 73.8087 28.2501 73.6287 28.4001C71.8587 29.8501 69.8887 31.3701 67.6087 33.0301L76.5087 30.5401H76.6087C76.7987 30.5301 76.9687 30.6501 77.0187 30.8401C77.0787 31.0601 76.9487 31.3001 76.7287 31.3601L68.0687 33.8701C70.5187 33.9401 72.9887 34.1701 75.3787 34.4701C75.6087 34.5001 75.7687 34.7001 75.7487 34.9301C75.7287 35.1501 75.5487 35.3201 75.3287 35.3201C72.1687 35.1701 68.9787 34.9001 65.8287 34.5101L62.6087 35.4401C65.0787 35.5301 67.5587 35.7901 69.9687 36.1201C70.1987 36.1501 70.3587 36.3501 70.3387 36.5801C70.3187 36.8001 70.1387 36.9601 69.9187 36.9601C66.7587 36.7801 63.5787 36.4801 60.4387 36.0701L56.0187 37.3501C58.6687 37.4601 60.9987 37.7001 63.1287 37.9901C63.3587 38.0201 63.5187 38.2201 63.4987 38.4501L63.6587 41.4501L63.5987 41.5301L63.6387 41.5601C63.5887 41.7701 63.4687 41.8901 63.3187 41.9201C61.2187 42.4101 58.9287 42.8701 56.2887 43.3401L61.0187 44.1301C64.0387 43.4301 67.1187 42.8401 70.1387 42.3701H70.1487C70.4087 42.3701 70.5787 42.5101 70.6187 42.7101C70.6587 42.9401 70.5187 43.1501 70.2987 43.2101C68.1787 43.7101 65.8487 44.1701 63.1987 44.6401L66.3087 45.1301C69.3887 44.3801 72.5487 43.7401 75.6587 43.2301H75.6787C75.9387 43.2301 76.1087 43.3701 76.1487 43.5701C76.1987 43.7901 76.0587 44.0101 75.8287 44.0701C73.4287 44.6601 70.9487 45.1801 68.4487 45.6401L77.4887 47.2401C77.7187 47.2801 77.8687 47.5001 77.8287 47.7301C77.7887 47.9301 77.6187 48.0801 77.4087 48.0801L68.3787 46.5601C70.8187 47.8301 72.8987 49.0801 74.7687 50.2901C74.9587 50.4101 75.0187 50.6701 74.8987 50.8601C74.8187 50.9901 74.6787 51.0701 74.5287 51.0701L74.3287 51.0201C71.5987 49.5401 68.8487 47.9201 66.1487 46.1801L62.7787 45.6201C65.2187 46.9201 67.2987 48.1901 69.1787 49.4301C69.3687 49.5601 69.4287 49.8101 69.3087 50.0101C69.2287 50.1401 69.0887 50.2201 68.9487 50.2201L68.7387 50.1701C66.0287 48.6701 63.2987 47.0201 60.6187 45.2601L56.0487 44.4901C58.4487 45.7701 60.3787 46.9601 62.1887 48.1501L62.2387 48.2701L62.2787 48.2401L62.3587 48.3801L62.3287 48.5301H62.3787L62.3087 48.6501L62.3587 48.6701L61.2187 51.4401L61.1087 51.5901C61.0387 51.7101 60.8987 51.7901 60.7587 51.7901C58.5687 51.3101 56.2987 50.7301 53.7187 50.0101L57.6387 52.7801C60.6687 53.4601 63.6887 54.2601 66.6187 55.1501C66.8387 55.2201 66.9687 55.4401 66.9087 55.6701C66.8587 55.8601 66.6887 55.9901 66.4987 55.9901C64.2787 55.5101 61.9787 54.9201 59.3787 54.1901L61.9687 55.9801C65.0687 56.6401 68.1887 57.4301 71.2187 58.3301C71.4387 58.3901 71.5687 58.6201 71.5087 58.8401C71.4587 59.0301 71.2887 59.1601 71.0987 59.1601C68.5987 58.6401 66.1387 58.0401 63.6887 57.3601L71.1387 62.7301C71.3287 62.8701 71.3687 63.1301 71.2287 63.3201C71.1487 63.4301 71.0187 63.5001 70.8787 63.5001L70.6387 63.4201L63.2287 58.1701C64.8787 60.3801 66.2087 62.4101 67.3687 64.3001C67.4887 64.5001 67.4287 64.7501 67.2387 64.8801L66.9987 64.9501C66.8587 64.9501 66.7287 64.8801 66.6487 64.7701C64.8287 62.2501 63.0587 59.5901 61.3787 56.8601L58.5887 54.8901C60.2287 57.1201 61.5487 59.1701 62.6987 61.0901C62.8187 61.2901 62.7587 61.5401 62.5687 61.6701L62.3387 61.7401C62.1987 61.7401 62.0687 61.6701 61.9887 61.5601C60.1987 59.0301 58.4487 56.3601 56.7987 53.6201L53.0187 50.9501C54.6187 53.1401 55.8487 55.0501 56.9587 56.9001V57.0301L56.9987 57.0201L56.9587 57.1701H57.0087L56.9587 57.3301L56.8387 57.4001L56.8687 57.4401L54.6087 59.4201C54.5087 59.5401 54.3887 59.5901 54.2687 59.5901C54.1687 59.5901 54.0787 59.5601 54.0087 59.5001C52.3087 58.1601 50.5587 56.6901 48.5087 54.8701L50.8487 59.0901C53.3087 61.0401 55.6887 63.0801 57.9087 65.1201C58.0787 65.2801 58.0887 65.5301 57.9487 65.7101C57.8687 65.8001 57.7487 65.8601 57.6287 65.8601C57.5387 65.8601 57.4387 65.8301 57.3687 65.7701C55.6687 64.4301 53.8487 62.9001 51.8087 61.0901L53.3787 63.8501C55.8987 65.8101 58.3687 67.8701 60.6887 69.9701C60.8587 70.1201 60.8787 70.3801 60.7287 70.5601C60.6487 70.6601 60.5287 70.7101 60.3987 70.7101C60.3087 70.7101 60.2087 70.6801 60.1387 70.6201C58.3287 69.2201 56.4087 67.6401 54.2887 65.7801L58.6987 73.9001C58.8087 74.1101 58.7287 74.3601 58.5287 74.4701L58.3287 74.5201C58.1787 74.5201 58.0287 74.4401 57.9587 74.3001L53.5887 66.4101C54.0687 68.8101 54.3887 71.2601 54.6287 73.6701C54.6487 73.9001 54.4887 74.1001 54.2687 74.1301H54.2587C53.9987 74.1301 53.8287 73.9801 53.7887 73.7801C53.2387 70.6901 52.7887 67.5201 52.4687 64.3601L50.8487 61.4501C51.3087 63.8801 51.6087 66.3501 51.8287 68.7601C51.8487 68.9901 51.6887 69.1901 51.4587 69.2201C51.1987 69.2201 51.0287 69.0701 50.9887 68.8701C50.4687 65.7801 50.0487 62.6201 49.7587 59.4601L47.5187 55.4301C47.9987 58.0401 48.2887 60.3601 48.4787 62.4901C48.4987 62.7201 48.3387 62.9201 48.1087 62.9501H48.0687L47.9187 62.9301L45.2687 63.7501L45.0687 63.7901C44.9087 63.7901 44.7587 63.7001 44.6887 63.5501C43.7487 61.6201 42.7787 59.4801 41.7387 57.0101L42.0187 61.8001C43.3787 64.6001 44.6387 67.4601 45.7687 70.3101C45.8487 70.5201 45.7587 70.7601 45.5487 70.8601L45.3787 70.9001C45.2187 70.9001 45.0687 70.8101 44.9987 70.6601C44.0387 68.7001 43.0687 66.5301 42.0187 64.0401L42.2387 67.2001C43.6587 70.0401 44.9787 72.9701 46.1687 75.8901C46.2587 76.1001 46.1687 76.3401 45.9487 76.4401L45.7687 76.4801C45.6087 76.4801 45.4587 76.3901 45.3887 76.2401C44.3587 74.1801 43.3187 71.9301 42.2187 69.3401L42.6687 78.5601C42.6687 78.7901 42.4987 78.9901 42.2687 79.0001H42.2487L42.2887 78.9701ZM40.2487 50.5101C39.5487 52.7401 38.8787 54.6901 38.2187 56.4601V56.6301L38.1387 56.8201L37.0487 63.1001L37.7787 63.1801C38.5487 60.3801 39.4787 57.5401 40.4987 54.7901L40.2487 50.5001V50.5101ZM35.7187 53.9401V54.0701C35.7187 56.9401 35.6187 59.8801 35.4187 62.8101L36.2687 62.9201L37.3087 56.6401V56.4501L37.3587 56.3101V55.8501C37.3587 54.0201 37.4087 52.0401 37.5187 49.7901L35.7187 53.9401ZM41.7987 54.7401C43.0687 57.3601 44.2787 60.1001 45.3787 62.8601L46.2587 62.5501L44.4287 56.5001L44.3387 56.3101L44.3587 56.1401L44.3187 56.1601C43.4487 54.3801 42.5787 52.4301 41.6287 50.2101L41.7987 54.7401ZM44.3887 49.6701C44.7187 51.9801 44.9687 54.0301 45.1487 55.9101L45.2187 56.0701L45.2487 56.2501L47.0487 62.3501L47.6687 62.1101C47.1587 59.2801 46.7687 56.3401 46.4887 53.4201L44.3987 49.6601L44.3887 49.6701ZM36.1687 49.4501C34.5587 51.1601 33.1787 52.5801 31.8187 53.8901L31.6987 54.0501L31.6087 54.1801L27.7487 59.4201L28.4187 59.8501C30.3087 57.6901 32.3787 55.5301 34.5287 53.4601L36.1787 49.4501H36.1687ZM30.5887 50.5901C29.3287 53.2201 27.9387 55.8801 26.4687 58.4701L27.1287 58.9001L30.8587 53.7601L30.9487 53.5401L31.0587 53.4201C31.8987 51.6601 32.8787 49.7501 34.0387 47.6101L30.5987 50.5801L30.5887 50.5901ZM47.6287 52.8201C49.9487 54.6601 52.2187 56.6001 54.3687 58.5701L55.0787 57.8901L50.7987 53.2701L50.5787 53.1101L50.4887 52.9801C48.9387 51.7601 47.3487 50.4201 45.4887 48.7901L47.6287 52.8201ZM47.7387 47.1101C49.0687 49.0901 50.1587 50.7801 51.1487 52.4201L51.2787 52.5301L55.7287 57.4001L56.1487 56.9701C54.4587 54.6501 52.8287 52.1501 51.2887 49.6101L47.7487 47.1101H47.7387ZM38.5287 47.4901C38.5287 49.2701 38.4887 51.1201 38.3887 53.3501C38.9387 51.2801 39.5187 49.5701 40.1087 47.9601L39.8987 44.3501L38.5287 47.4901ZM41.5287 47.7001C42.2887 49.2601 43.0787 51.0101 43.9387 53.0401C43.5387 50.9301 43.3187 49.1401 43.1487 47.4301L41.3987 44.2701L41.5287 47.7001ZM26.6087 49.0501L21.0087 52.0101L21.4587 52.7401C24.1387 51.5901 26.9387 50.5501 29.7187 49.6301L33.1187 46.5801C30.8887 47.5501 28.8687 48.2701 26.9987 48.8901L26.8687 48.9801C26.7987 49.0301 26.7187 49.0601 26.6287 49.0601L26.5887 49.0101L26.6087 49.0501ZM27.4087 45.3501C25.0987 47.2001 22.6887 48.9901 20.2887 50.6601L20.6787 51.2801L26.6187 48.0801C28.1787 46.8501 29.8687 45.5701 31.8087 44.1701L27.4087 45.3501ZM35.9187 46.0001C35.1587 47.5901 34.3087 49.2501 33.2387 51.2301C34.6187 49.6301 35.9087 48.3101 37.1287 47.1201L38.5087 43.7601L35.9187 46.0001ZM52.0287 48.5501C54.8887 49.2001 57.7887 49.9601 60.6387 50.8201L60.9787 49.8601L55.0887 47.5801H55.0187L54.8287 47.5401L54.6987 47.4601C52.7787 47.0301 50.7087 46.5001 48.3887 45.8501L52.0387 48.5401L52.0287 48.5501ZM44.3287 46.6001C45.6887 47.6801 47.1687 48.9201 48.8287 50.3701C47.5687 48.6701 46.5687 47.1001 45.6787 45.6501L42.7087 43.5501L44.3187 46.6001H44.3287ZM49.6587 43.3601C51.7187 44.5701 53.4287 45.6201 55.0287 46.6701L55.1987 46.7201L61.3387 49.1501L61.5087 48.6101C58.9787 47.2501 56.4287 45.7101 53.9287 44.0801L49.6587 43.3601ZM34.1987 43.5301C32.8287 44.6301 31.3387 45.7601 29.5287 47.0701C31.5087 46.2001 33.2087 45.5901 34.8287 45.0501L37.5187 42.6301L34.1987 43.5201V43.5301ZM46.3587 44.3801C48.0687 44.7701 49.8887 45.2301 52.0487 45.8301C50.1887 44.8501 48.6087 43.8701 47.1787 42.9501L43.5987 42.3501L46.3587 44.3901V44.3801ZM18.1487 42.4501L18.2587 43.3201C21.1387 43.4501 24.1187 43.7301 27.0487 44.1001L31.4387 42.8301C29.0187 42.7301 26.8787 42.5101 24.9287 42.2601L24.7587 42.2901H24.7187L24.5487 42.2601L18.1487 42.4501ZM56.0887 40.6701C54.0987 41.1301 51.9187 41.5701 49.4387 42.0101L54.1587 42.8001C57.0087 42.1401 59.9487 41.5801 62.8887 41.1201L62.7987 40.1101L56.3087 40.6901H56.0987L56.0887 40.6701ZM33.7587 40.5501C32.0387 40.9401 30.2087 41.3101 27.9987 41.7101C30.1487 41.7901 31.9387 41.9701 33.6387 42.1901L37.3187 41.1201L33.7587 40.5501ZM26.8487 39.2501C23.9487 39.9201 20.9887 40.4901 18.0487 40.9501L18.1387 41.6401L24.5587 41.4001L24.7087 41.3701H24.8487C26.8787 40.9201 29.0687 40.4801 31.5587 40.0401L26.8487 39.2501ZM43.6587 40.9201L47.2287 41.5001C48.9287 41.1101 50.7587 40.7401 52.9687 40.3401C50.8587 40.2601 49.0087 40.0701 47.3287 39.8601L43.6487 40.9201H43.6587ZM56.2687 39.7701L56.4687 39.8201L62.7887 39.3001L62.7187 38.7401C59.8187 38.6101 56.8387 38.3301 53.9087 37.9501L49.5187 39.2201C51.9487 39.3201 54.0887 39.5401 56.0387 39.8001L56.2087 39.7701H56.2687ZM29.2887 36.3301C30.9787 37.3301 32.4587 38.2401 33.7887 39.1101L37.5887 39.7501L34.6287 37.6901C32.9987 37.3201 31.2987 36.8901 29.2887 36.3401V36.3301ZM51.1487 35.2001C49.2687 35.9101 47.6787 36.4901 46.1387 37.0001L43.2987 39.5501L46.7887 38.5101C48.0787 37.4801 49.4787 36.4101 51.1487 35.1901V35.2001ZM19.4087 33.4201C21.9387 34.7701 24.4987 36.3201 27.0187 37.9601L31.5687 38.7201C29.3687 37.5501 27.5887 36.4601 25.9387 35.3801L25.7687 35.3301C25.6787 35.3001 25.5987 35.2401 25.5387 35.1501L19.7487 32.6101L19.4087 33.4101V33.4201ZM32.4187 31.9201C33.5087 33.5601 34.4487 35.0201 35.2787 36.3901L38.4287 38.6101L36.6487 35.4501C35.3587 34.4301 33.9687 33.2701 32.4187 31.9201ZM47.5687 31.1501C46.2187 32.5701 44.9987 33.8101 43.8487 34.9301L42.3887 38.4801L45.0687 36.0401C45.7787 34.5501 46.5887 32.9801 47.5687 31.1501ZM54.5787 33.8601L54.4187 33.9301C52.7887 35.2201 51.0187 36.5601 48.9587 38.0401L53.5887 36.6901C55.9187 34.8201 58.3287 33.0301 60.7487 31.3601L60.2487 30.5801L54.5787 33.8601ZM37.1787 29.3601C37.4587 31.3301 37.6587 33.0101 37.8187 34.6101L39.6787 37.9601L39.4487 34.3601C38.7287 32.8801 37.9987 31.2801 37.1787 29.3601ZM42.5787 29.0301C41.9687 30.9401 41.4187 32.5601 40.8687 34.0801L41.0887 37.9101L42.4487 34.5501C42.4487 32.8901 42.4887 31.1301 42.5787 29.0301ZM20.0687 31.8801L26.1087 34.4801L26.2787 34.5801C28.2787 35.0301 30.4387 35.5801 32.8687 36.2601L28.9587 33.5001C26.0987 32.8601 23.1987 32.0901 20.3487 31.2301L20.0687 31.8701V31.8801ZM59.5487 29.3601C56.8187 30.4801 54.0187 31.5101 51.2387 32.4301L47.8387 35.4801C50.0687 34.5101 52.0987 33.7901 53.9787 33.1701L54.1087 33.0801C54.1787 33.0301 54.2587 33.0101 54.3487 33.0101L59.8687 29.8201L59.5487 29.3601ZM24.8587 25.1201C26.5287 27.4201 28.1587 29.9001 29.6887 32.4201L33.4587 35.0801C31.9787 33.0701 30.8487 31.3101 29.8387 29.6201L29.7087 29.5101C29.6387 29.4501 29.5887 29.3601 29.5787 29.2601L25.5087 24.5501L24.8687 25.1101L24.8587 25.1201ZM50.1387 28.2501L50.0387 28.5001L49.9287 28.6201C49.0587 30.4401 48.0387 32.4201 46.8187 34.6601L50.3987 31.4501C51.6587 28.8301 53.0487 26.1801 54.5187 23.5901L53.7787 23.1101L50.1387 28.2601V28.2501ZM26.0987 24.0301L30.3687 28.9101L30.4887 29.0701C32.0787 30.3301 33.7887 31.7601 35.6987 33.4501L33.3587 29.2401C31.0687 27.4201 28.8087 25.5001 26.6587 23.5401L26.0987 24.0301ZM52.5987 22.2501C50.6487 24.4101 48.5887 26.5501 46.4587 28.6101L44.7087 32.8701C46.3487 30.9801 47.8187 29.4801 49.2387 28.1201L49.3287 27.9601L53.1287 22.5801L52.6087 22.2601L52.5987 22.2501ZM33.2987 19.8701C33.8187 22.7301 34.2087 25.6801 34.4887 28.6001L36.7087 32.6001C36.2587 30.2101 35.9987 28.0901 35.8187 26.1301L35.7487 25.9701L34.0487 19.6501L33.2887 19.8601L33.2987 19.8701ZM43.6587 25.5401L43.6187 25.6901V26.1201C43.6187 28.0301 43.5587 30.1301 43.4487 32.5101L45.2687 28.0901C45.2687 25.1401 45.3687 22.1601 45.5687 19.2101L44.7587 19.1101L43.6587 25.5401ZM34.8287 19.4401L36.5187 25.5301C36.5787 25.5701 36.6287 25.6601 36.6387 25.7501L36.6587 25.9001C37.5487 27.7401 38.4687 29.7801 39.4587 32.1101L39.1787 27.3301C37.9087 24.7101 36.6987 21.9801 35.5987 19.2301L34.8287 19.4501V19.4401ZM43.2287 18.8501C42.4087 21.6701 41.4787 24.4901 40.4687 27.2301L40.7387 31.8001C41.3787 29.4401 42.0687 27.3901 42.7587 25.5301V25.4201L42.8487 25.1901L43.9187 18.9201L43.2187 18.8501H43.2287Z" fill="white"/>
<path d="M38.6887 3.12C38.8887 3.12 39.0487 3.27 39.0587 3.47L39.5787 12.53C40.2887 10.16 41.0387 7.81 41.8887 5.49C41.9487 5.34 42.0887 5.24 42.2387 5.24L42.3487 5.25999C42.5387 5.31999 42.6487 5.52 42.5987 5.72C41.7487 8.77 40.7787 11.79 39.7087 14.78L39.8987 18.15C40.6287 15.79 41.3987 13.45 42.2687 11.13C42.3287 10.98 42.4687 10.89 42.6187 10.89L42.7387 10.91C42.9287 10.97 43.0387 11.18 42.9787 11.37C42.1087 14.4 41.1187 17.39 40.0287 20.35L40.2987 24.97C40.9987 22.71 41.7487 20.46 42.5787 18.23L42.5987 18.19L42.6387 18.13L42.6887 18.08L42.7387 18.04L42.8087 18.01L42.8787 17.99H42.9187H42.9487H42.9787H42.9887L44.4287 18.24H44.4587L44.4987 18.26L45.9887 18.52L46.0987 18.56C46.2487 18.61 46.3687 18.74 46.3687 18.91C46.3687 19.13 46.3687 19.36 46.3687 19.58C46.3687 21.74 46.2987 23.9 46.1887 26.06L48.1087 21.65V21.52C48.1087 18.46 48.2187 15.41 48.4287 12.36C48.4387 12.16 48.6087 12.01 48.7987 12.01H48.8087C49.0087 12.01 49.1687 12.18 49.1687 12.38C49.1687 12.6 49.1687 12.83 49.1687 13.05C49.1687 15.23 49.0987 17.42 48.9787 19.6L50.2287 16.72C50.2287 16.18 50.2187 15.64 50.2187 15.1C50.2187 12.45 50.2987 9.81 50.4687 7.16C50.4787 6.96 50.6487 6.81 50.8387 6.81C51.0387 6.81 51.1987 6.98 51.2087 7.18C51.2087 7.81 51.2187 8.44 51.2187 9.07C51.2187 10.96 51.1587 12.85 51.0787 14.75L54.7587 6.29C54.8187 6.15 54.9587 6.06 55.0987 6.06L55.2487 6.09C55.4387 6.17 55.5287 6.38999 55.4487 6.57999L51.9887 14.98C53.6587 13.15 55.3587 11.36 57.1287 9.63C57.1987 9.56 57.2987 9.52 57.3887 9.52C57.4787 9.52 57.5787 9.55 57.6487 9.62C57.7987 9.76 57.8087 9.99 57.6687 10.14C55.5787 12.52 53.3987 14.82 51.1387 17.03L49.8187 20.22C51.5187 18.39 53.2487 16.6 55.0487 14.88C55.1187 14.81 55.2187 14.78 55.3087 14.78C55.3987 14.78 55.4987 14.82 55.5687 14.89C55.7187 15.03 55.7187 15.26 55.5887 15.41C53.4787 17.77 51.2687 20.05 48.9887 22.24L47.2187 26.54C48.8487 24.79 50.5087 23.07 52.2387 21.42L52.2787 21.4L52.3387 21.36L52.4087 21.34H52.4787L52.4987 21.33H52.5487L52.6187 21.35L52.6887 21.38L52.7287 21.4L55.1187 23.13L55.1587 23.17H55.1887C55.3687 23.27 55.4387 23.49 55.3587 23.67C54.3287 25.83 53.2287 27.95 52.0787 30.05L55.7387 26.89C57.0787 24.1 58.5187 21.35 60.0587 18.66C60.1287 18.54 60.2587 18.47 60.3887 18.47L60.5587 18.51C60.7387 18.6 60.8087 18.82 60.7287 19C59.6887 21.18 58.5687 23.32 57.4087 25.44L59.8087 23.37C61.1587 20.48 62.6087 17.64 64.1687 14.86C64.2387 14.74 64.3687 14.67 64.4987 14.67L64.6687 14.71C64.8487 14.8 64.9187 15.02 64.8387 15.2C63.7787 17.5 62.6287 19.75 61.4287 21.98L68.4387 15.94L68.6887 15.85C68.7887 15.85 68.8987 15.89 68.9687 15.98C69.1087 16.13 69.0887 16.37 68.9387 16.51L62.1787 22.57C64.4687 21.65 66.7787 20.77 69.1187 19.99L69.2387 19.97C69.3887 19.97 69.5287 20.06 69.5887 20.21C69.6587 20.4 69.5687 20.61 69.3887 20.69C66.4687 21.93 63.5087 23.05 60.5087 24.07L57.9487 26.36C60.2687 25.45 62.5987 24.59 64.9687 23.82L65.0887 23.8C65.2387 23.8 65.3887 23.89 65.4387 24.05C65.5087 24.24 65.4187 24.45 65.2287 24.53C62.2987 25.74 59.3287 26.84 56.3187 27.83L52.8687 30.92C55.0887 30.06 57.3287 29.23 59.5987 28.49H59.6387L59.7087 28.48H59.7687L59.8387 28.5L59.8987 28.53L59.9487 28.57L59.9987 28.63L60.0287 28.66L61.5387 31.3C61.5987 31.41 61.5987 31.53 61.5387 31.64L61.4087 31.87C59.5487 33.37 57.6287 34.8 55.6887 36.19L60.3687 34.93C62.7887 33 65.2687 31.14 67.8187 29.39L68.0287 29.32C68.1387 29.32 68.2587 29.37 68.3287 29.47C68.4487 29.63 68.4187 29.86 68.2587 29.99C66.3787 31.51 64.4387 32.95 62.4687 34.36L65.5387 33.53C68.0087 31.51 70.5387 29.58 73.1487 27.76L73.3687 27.69C73.4787 27.69 73.5987 27.74 73.6687 27.84C73.7887 28 73.7687 28.23 73.6087 28.36C71.6487 29.97 69.6387 31.5 67.5887 32.99L76.5287 30.59H76.6287C76.7887 30.58 76.9387 30.69 76.9887 30.85C77.0487 31.05 76.9287 31.25 76.7287 31.31L68.0687 33.82C70.5187 33.98 72.9587 34.22 75.3887 34.52C75.5887 34.55 75.7287 34.72 75.7187 34.92C75.6987 35.11 75.5387 35.26 75.3487 35.26H75.3287C72.1587 35.11 68.9987 34.84 65.8587 34.45L62.6187 35.39C65.0787 35.58 67.5387 35.83 69.9887 36.16C70.1887 36.19 70.3287 36.37 70.3087 36.57C70.2887 36.76 70.1287 36.91 69.9387 36.91H69.9187C66.7587 36.73 63.5987 36.43 60.4587 36.02L56.0187 37.31C58.3987 37.5 60.7687 37.73 63.1287 38.04C63.3287 38.07 63.4687 38.25 63.4487 38.45L63.4687 38.54L63.6087 41.46V41.55L63.5887 41.6C63.5587 41.73 63.4587 41.84 63.3187 41.87C60.9887 42.41 58.6487 42.87 56.2987 43.29L61.0287 44.18C64.0487 43.49 67.0987 42.9 70.1687 42.42H70.2287C70.4087 42.42 70.5587 42.54 70.5987 42.72C70.6387 42.92 70.5087 43.11 70.3187 43.16C67.9687 43.71 65.5987 44.17 63.2187 44.59L66.3287 45.18C69.4287 44.43 72.5487 43.8 75.6987 43.28H75.7587C75.9387 43.28 76.0887 43.4 76.1287 43.58C76.1687 43.78 76.0487 43.97 75.8487 44.02C73.4087 44.62 70.9487 45.14 68.4787 45.59L77.5187 47.29C77.7187 47.33 77.8587 47.52 77.8187 47.72C77.7887 47.9 77.6287 48.03 77.4487 48.03H77.3887L68.4287 46.51C70.5787 47.73 72.7087 48.99 74.7887 50.33C74.9587 50.44 75.0087 50.66 74.9087 50.84C74.8387 50.96 74.7187 51.02 74.5887 51.02L74.4087 50.97C71.6187 49.46 68.8987 47.85 66.2287 46.13L62.8387 45.56C64.9887 46.8 67.1187 48.09 69.1987 49.46C69.3687 49.57 69.4187 49.8 69.3087 49.97C69.2387 50.09 69.1187 50.15 68.9887 50.15L68.8087 50.1C66.0387 48.57 63.3387 46.93 60.6887 45.2L56.1087 44.43C58.1687 45.63 60.2187 46.86 62.2087 48.18L62.2387 48.21L62.2887 48.26L62.3287 48.32L62.3587 48.38V48.45L62.3787 48.52V48.6L62.3587 48.64L61.2187 51.41L61.1187 51.54C61.0487 51.65 60.9287 51.72 60.7987 51.72H60.7187C58.3887 51.19 56.0687 50.59 53.7687 49.94L57.6487 52.8C60.6787 53.49 63.6787 54.28 66.6487 55.18C66.8387 55.24 66.9587 55.44 66.8987 55.63C66.8587 55.8 66.6987 55.91 66.5387 55.91H66.4587C64.0987 55.38 61.7587 54.76 59.4387 54.11L61.9887 55.99C65.1087 56.66 68.1987 57.44 71.2587 58.35C71.4487 58.41 71.5687 58.61 71.5187 58.8C71.4787 58.97 71.3187 59.08 71.1587 59.08H71.0787C68.6187 58.55 66.1787 57.95 63.7587 57.28L71.1687 62.73C71.3387 62.85 71.3687 63.08 71.2487 63.25C71.1787 63.35 71.0587 63.41 70.9487 63.41L70.7287 63.34L63.3187 58.09C64.7287 60.12 66.0987 62.18 67.3887 64.29C67.4987 64.46 67.4487 64.69 67.2787 64.8L67.0687 64.86C66.9487 64.86 66.8387 64.81 66.7687 64.7C64.9087 62.13 63.1587 59.49 61.4987 56.8L58.6987 54.82C60.0987 56.87 61.4587 58.95 62.7387 61.09C62.8387 61.26 62.7887 61.49 62.6187 61.6L62.4187 61.66C62.2987 61.66 62.1887 61.6 62.1087 61.5C60.2787 58.92 58.5587 56.27 56.9187 53.56L53.1187 50.87C54.4587 52.84 55.7587 54.84 56.9887 56.89V56.93L57.0287 57V57.07V57.14L57.0087 57.21L56.9787 57.27L56.9287 57.33L56.8987 57.37L54.6387 59.35H54.6287L54.6187 59.38C54.5487 59.47 54.4387 59.51 54.3287 59.51L54.0987 59.43C52.2187 57.95 50.3987 56.39 48.5987 54.81L50.8687 59.09C53.2987 61.02 55.6587 63.03 57.9387 65.13C58.0887 65.27 58.0987 65.5 57.9687 65.65C57.8987 65.74 57.7887 65.78 57.6787 65.78L57.4487 65.7C55.5487 64.2 53.6987 62.63 51.8887 61.02L53.3787 63.84C55.8987 65.8 58.3387 67.84 60.6987 69.98C60.8487 70.12 60.8687 70.34 60.7387 70.5C60.6687 70.59 60.5587 70.63 60.4487 70.63L60.2187 70.55C58.2187 69 56.2787 67.38 54.3687 65.71L58.6987 73.89C58.7987 74.07 58.7287 74.3 58.5487 74.4L58.3687 74.45C58.2387 74.45 58.1087 74.38 58.0387 74.26L53.6687 66.37C54.0487 68.79 54.3687 71.22 54.6187 73.66C54.6387 73.86 54.4987 74.04 54.2987 74.07H54.2487C54.0687 74.07 53.9087 73.95 53.8787 73.76C53.3187 70.64 52.8787 67.5 52.5587 64.34L50.9287 61.41C51.2887 63.85 51.5887 66.29 51.8187 68.75C51.8387 68.95 51.6887 69.13 51.4887 69.16H51.4387C51.2587 69.16 51.0987 69.03 51.0687 68.85C50.5387 65.73 50.1287 62.59 49.8387 59.44L47.5987 55.39C47.9487 57.74 48.2487 60.11 48.4687 62.48C48.4887 62.68 48.3387 62.86 48.1387 62.89H48.0987L47.9787 62.87L45.2987 63.69H45.2687L45.1187 63.72C44.9787 63.72 44.8487 63.64 44.7787 63.51C43.7287 61.36 42.7587 59.17 41.8287 56.97L42.0087 61.78C43.3587 64.58 44.6187 67.42 45.7587 70.31C45.8287 70.5 45.7487 70.71 45.5587 70.79L45.4087 70.82C45.2687 70.82 45.1387 70.74 45.0687 70.61C44.0087 68.43 43.0287 66.22 42.0887 63.99L42.2087 67.17C43.6287 70.02 44.9387 72.93 46.1487 75.88C46.2287 76.07 46.1487 76.28 45.9587 76.36L45.8087 76.39C45.6687 76.39 45.5387 76.31 45.4687 76.18C44.3387 73.92 43.2887 71.61 42.2987 69.29L42.6587 78.53C42.6587 78.74 42.5087 78.91 42.2987 78.92H42.2787C42.0787 78.92 41.9187 78.77 41.9087 78.57L41.3887 69.51C40.6787 71.88 39.9287 74.23 39.0787 76.55C39.0187 76.7 38.8787 76.8 38.7287 76.8L38.6187 76.78C38.4287 76.72 38.3187 76.52 38.3687 76.32C39.2187 73.27 40.1887 70.25 41.2587 67.26L41.0587 63.86C40.3287 66.23 39.5487 68.58 38.6787 70.91C38.6187 71.06 38.4787 71.15 38.3287 71.15L38.2087 71.13C38.0187 71.07 37.9087 70.86 37.9687 70.67C38.8487 67.63 39.8387 64.63 40.9387 61.66L40.6687 57.04C39.9587 59.31 39.2087 61.57 38.3787 63.8C38.3187 63.95 38.1787 64.04 38.0287 64.04L37.9087 64.02H37.8887L34.9887 63.49H34.9687L34.7787 63.42L34.7287 63.38L34.7087 63.36C34.6187 63.28 34.5687 63.16 34.5987 63.03L34.6187 62.99C34.6187 62.79 34.6187 62.58 34.6187 62.38C34.6187 60.23 34.6887 58.09 34.7987 55.95L32.8787 60.36V60.59C32.8787 63.62 32.7787 66.65 32.5587 69.68C32.5487 69.88 32.3787 70.03 32.1887 70.03H32.1787C31.9787 70.03 31.8187 69.86 31.8187 69.66C31.8187 69.41 31.8187 69.17 31.8187 68.92C31.8187 66.75 31.8887 64.58 31.9987 62.41L30.7287 65.32C30.7287 65.86 30.7387 66.4 30.7387 66.94C30.7387 69.59 30.6587 72.23 30.4887 74.88C30.4787 75.08 30.3087 75.23 30.1187 75.23C29.9187 75.23 29.7587 75.06 29.7487 74.86C29.7487 74.23 29.7387 73.6 29.7387 72.97C29.7387 71.08 29.7987 69.19 29.8787 67.3L26.1987 75.76C26.1387 75.9 25.9987 75.99 25.8587 75.99L25.7087 75.96C25.5187 75.88 25.4287 75.66 25.5087 75.47L28.9687 67.07C27.2987 68.9 25.5987 70.69 23.8287 72.42C23.7587 72.49 23.6587 72.53 23.5687 72.53C23.4787 72.53 23.3787 72.5 23.3087 72.43C23.1587 72.29 23.1487 72.06 23.2887 71.91C25.3787 69.53 27.5587 67.23 29.8187 65.02L31.1187 61.86C29.4287 63.68 27.7087 65.46 25.9187 67.18C25.8487 67.25 25.7487 67.28 25.6587 67.28C25.5687 67.28 25.4687 67.24 25.3987 67.17C25.2487 67.03 25.2487 66.8 25.3787 66.65C27.4887 64.3 29.6787 62.03 31.9487 59.83L33.7187 55.53C32.0987 57.27 30.4387 58.99 28.7187 60.64C28.6487 60.71 28.5587 60.74 28.4687 60.74H28.3887L28.1687 60.67L25.7187 58.86L25.6887 58.83L25.6387 58.77L25.6087 58.71L25.5887 58.64V58.57V58.5L25.6087 58.43V58.39C26.6487 56.22 27.7587 54.1 28.9087 51.99L25.2487 55.14C23.9087 57.94 22.4687 60.7 20.9187 63.4C20.8487 63.52 20.7187 63.59 20.5887 63.59L20.4187 63.55C20.2387 63.46 20.1687 63.24 20.2487 63.06C21.2887 60.87 22.4087 58.72 23.5787 56.59L21.1587 58.68C19.8087 61.57 18.3587 64.41 16.7987 67.19C16.7287 67.31 16.5987 67.38 16.4687 67.38L16.2987 67.34C16.1187 67.25 16.0487 67.03 16.1287 66.85C17.1887 64.55 18.3387 62.3 19.5387 60.07L12.5287 66.11L12.2787 66.2C12.1787 66.2 12.0687 66.16 11.9987 66.07C11.8587 65.92 11.8787 65.68 12.0287 65.54L18.7887 59.48C16.4987 60.4 14.1887 61.28 11.8487 62.06L11.7287 62.08C11.5787 62.08 11.4387 61.99 11.3787 61.84C11.3087 61.65 11.3987 61.44 11.5787 61.36C14.4987 60.12 17.4587 59 20.4587 57.98L22.9887 55.71C20.6787 56.61 18.3587 57.47 16.0087 58.24L15.8887 58.26C15.7387 58.26 15.5887 58.17 15.5387 58.01C15.4687 57.82 15.5587 57.61 15.7487 57.53C18.6687 56.32 21.6287 55.23 24.6287 54.24L28.0787 51.15C25.8687 52.01 23.6287 52.83 21.3687 53.57L21.2587 53.59L21.0187 53.5L20.9487 53.41L20.9187 53.38L19.4387 50.66V50.61L19.4087 50.57C19.3687 50.41 19.4387 50.24 19.5887 50.15H19.6087C21.4587 48.66 23.3487 47.24 25.2787 45.86L20.6087 47.12C18.1787 49.06 15.6987 50.92 13.1387 52.68L12.9287 52.75C12.8187 52.75 12.6987 52.7 12.6287 52.6C12.5087 52.44 12.5387 52.21 12.6987 52.08C14.5887 50.55 16.5387 49.1 18.5087 47.69L15.4087 48.52C12.9387 50.54 10.4087 52.47 7.79873 54.29L7.57873 54.36C7.46873 54.36 7.34873 54.31 7.27873 54.21C7.15873 54.05 7.17873 53.82 7.33873 53.69C9.29873 52.08 11.3087 50.55 13.3587 49.06L4.41873 51.46H4.31874C4.15874 51.47 4.00874 51.36 3.95874 51.2C3.89874 51 4.01873 50.8 4.21873 50.74L12.8787 48.23C10.4287 48.07 7.98873 47.83 5.55873 47.53C5.35873 47.5 5.21872 47.33 5.22872 47.13C5.24872 46.94 5.40874 46.79 5.59874 46.79H5.61872C8.78872 46.94 11.9487 47.21 15.0887 47.6L18.2887 46.67C15.8387 46.48 13.3887 46.23 10.9587 45.9C10.7587 45.87 10.6187 45.69 10.6387 45.49C10.6587 45.3 10.8187 45.15 11.0087 45.15H11.0287C14.1787 45.33 17.3287 45.63 20.4587 46.04L24.8987 44.75C22.5287 44.57 20.1687 44.34 17.8087 44.02C17.6087 43.99 17.4687 43.81 17.4887 43.61V43.59V43.55L17.2887 40.63C17.2887 40.51 17.3287 40.41 17.4087 40.33C17.4587 40.26 17.5287 40.2 17.6287 40.18C19.9587 39.63 22.3187 39.17 24.6787 38.76L19.9487 37.87C16.9187 38.57 13.8587 39.16 10.7887 39.64H10.7287C10.5487 39.64 10.3987 39.52 10.3587 39.34C10.3187 39.14 10.4487 38.95 10.6387 38.9C12.9987 38.35 15.3787 37.88 17.7687 37.46L14.6287 36.87C11.5287 37.62 8.40872 38.25 5.25872 38.77H5.19873C5.01873 38.77 4.86873 38.65 4.82873 38.47C4.78873 38.27 4.90873 38.08 5.10873 38.03C7.54873 37.43 10.0087 36.91 12.4787 36.46L3.43873 34.76C3.23873 34.72 3.09873 34.53 3.13873 34.32C3.16873 34.14 3.32872 34.01 3.50872 34.01H3.56874L12.5287 35.53C10.3787 34.31 8.24873 33.05 6.16873 31.71C5.99873 31.6 5.94873 31.38 6.04873 31.2C6.11873 31.08 6.23872 31.02 6.36872 31.02L6.54873 31.07C9.33873 32.58 12.0587 34.19 14.7287 35.91L18.0887 36.48C15.9487 35.24 13.8287 33.96 11.7587 32.6C11.5887 32.49 11.5387 32.26 11.6487 32.09C11.7187 31.97 11.8387 31.91 11.9687 31.91L12.1487 31.96C14.9087 33.49 17.6087 35.12 20.2487 36.84L24.8387 37.61C22.7787 36.42 20.7487 35.19 18.7587 33.88C18.6687 33.82 18.6187 33.73 18.5987 33.63C18.5587 33.54 18.5487 33.43 18.5987 33.32L19.8087 30.51C19.8687 30.37 20.0087 30.28 20.1587 30.28L20.3087 30.31L20.3987 30.37C22.6987 30.88 24.9787 31.48 27.2387 32.11L23.3587 29.26C20.3187 28.57 17.3087 27.78 14.3287 26.88C14.1387 26.82 14.0187 26.62 14.0787 26.43C14.1187 26.26 14.2787 26.15 14.4387 26.15H14.5187C16.8887 26.68 19.2387 27.3 21.5787 27.96L18.9987 26.06C15.8787 25.39 12.7887 24.61 9.72872 23.7C9.53872 23.64 9.41873 23.44 9.46873 23.25C9.50873 23.08 9.66873 22.97 9.82873 22.97H9.90873C12.3687 23.5 14.8087 24.1 17.2287 24.77L9.81874 19.32C9.64874 19.2 9.61873 18.97 9.73873 18.8C9.80873 18.7 9.92874 18.64 10.0387 18.64L10.2587 18.71L17.6687 23.96C16.2587 21.93 14.8887 19.87 13.5987 17.76C13.4887 17.59 13.5387 17.36 13.7087 17.25L13.9187 17.19C14.0387 17.19 14.1487 17.24 14.2187 17.35C16.0787 19.92 17.8287 22.56 19.4887 25.25L22.2687 27.21C20.8787 25.17 19.5187 23.09 18.2487 20.97C18.1487 20.8 18.1987 20.57 18.3687 20.46L18.5687 20.4C18.6887 20.4 18.7987 20.46 18.8787 20.56C20.6987 23.13 22.4287 25.77 24.0587 28.47L27.8587 31.16C26.5187 29.19 25.2187 27.2 23.9987 25.16C23.8987 24.99 23.9487 24.76 24.1187 24.65L24.2287 24.6L26.2987 22.78L26.3587 22.67C26.4287 22.58 26.5387 22.54 26.6387 22.54H26.6487H26.7187C26.8187 22.54 26.9187 22.58 26.9987 22.66L27.0587 22.77C28.8787 24.21 30.6487 25.71 32.3887 27.25L30.1187 22.97C27.6787 21.04 25.3087 19.02 23.0187 16.91C22.8687 16.77 22.8587 16.54 22.9887 16.39C23.0587 16.3 23.1687 16.26 23.2787 16.26L23.5087 16.34C25.4187 17.85 27.2687 19.42 29.0987 21.04L27.5887 18.19C25.0687 16.23 22.6287 14.19 20.2687 12.05C20.1187 11.91 20.0987 11.69 20.2287 11.53C20.2987 11.44 20.4087 11.4 20.5187 11.4L20.7487 11.48C22.7487 13.03 24.6887 14.65 26.5987 16.32L22.2687 8.14C22.1687 7.96 22.2387 7.73 22.4187 7.63L22.5987 7.57999C22.7287 7.57999 22.8587 7.65 22.9287 7.77L27.2987 15.66C26.9187 13.24 26.5987 10.81 26.3487 8.37C26.3287 8.17 26.4687 7.99 26.6687 7.96H26.7187C26.8987 7.96 27.0587 8.08 27.0887 8.27C27.6487 11.39 28.0887 14.53 28.4087 17.69L30.0187 20.6C29.6587 18.17 29.3587 15.74 29.1387 13.3C29.1187 13.1 29.2687 12.92 29.4687 12.89H29.5187C29.6987 12.89 29.8587 13.02 29.8887 13.2C30.4187 16.31 30.8287 19.44 31.1287 22.58L33.3687 26.63C33.0187 24.28 32.7187 21.93 32.4987 19.57V19.53L32.5087 19.46L32.5287 19.39L32.5587 19.33L32.6087 19.27L32.6587 19.23L32.7287 19.2L32.7687 19.18L35.7487 18.34H35.7687H35.7887H35.8487H35.8587L35.9287 18.35L35.9987 18.37L36.0587 18.41L36.1087 18.46L36.1487 18.52L36.1787 18.55C37.2387 20.71 38.2087 22.9 39.1387 25.11L38.9587 20.3C37.5987 17.5 36.3387 14.65 35.1887 11.75C35.1187 11.56 35.1987 11.35 35.3887 11.27L35.5387 11.24C35.6787 11.24 35.8087 11.32 35.8787 11.45C36.9487 13.63 37.9387 15.86 38.8787 18.1L38.7587 14.89C37.3387 12.04 36.0287 9.13 34.8187 6.18C34.7387 5.99 34.8187 5.78 35.0087 5.7L35.1587 5.67C35.2987 5.67 35.4287 5.75 35.4987 5.88C36.6287 8.14 37.6787 10.45 38.6687 12.77L38.3087 3.53C38.3087 3.32 38.4587 3.15 38.6687 3.14H38.6887M40.6887 31.8C41.3487 29.7 42.0387 27.61 42.8087 25.55V25.42L42.8987 25.22L43.9787 18.93L43.1987 18.79C42.3687 21.63 41.4487 24.43 40.4287 27.2L40.6887 31.79M43.3887 32.51L45.3087 28.11V28.04C45.3087 25.09 45.4087 22.15 45.6187 19.21L44.7187 19.05L43.6087 25.52V25.54L43.5987 25.56L43.5687 25.66C43.5687 25.81 43.5687 25.96 43.5687 26.11C43.5687 28.24 43.4987 30.37 43.3887 32.5M39.4087 32.13L39.2287 27.33C37.9287 24.65 36.7387 21.93 35.6287 19.17L34.8187 19.4L36.4687 25.55L36.5887 25.76L36.6187 25.92C37.6087 27.96 38.5387 30.04 39.4187 32.13M36.6687 32.62C36.3587 30.46 36.0787 28.3 35.8687 26.12L35.7987 25.95V25.93L35.7887 25.91L34.0887 19.59L33.2787 19.82C33.7687 22.73 34.1487 25.66 34.4387 28.6L36.6687 32.62ZM44.6587 32.84C46.1587 31.24 47.6887 29.66 49.2687 28.14L49.3587 27.97H49.3687V27.94L53.1487 22.59L52.5787 22.18C50.5987 24.38 48.5387 26.51 46.4087 28.56L44.6487 32.83M46.7787 34.63L50.4287 31.48C51.7087 28.81 53.0887 26.19 54.5587 23.61L53.7587 23.03L50.0887 28.22L49.9887 28.46L49.8787 28.58C48.8987 30.63 47.8487 32.64 46.7687 34.63M35.6687 33.49L33.4087 29.22C31.0987 27.38 28.8487 25.47 26.6687 23.47L26.0787 23.99L30.3487 28.94L30.3687 28.96L30.4587 29.09C32.2387 30.5 33.9787 31.98 35.6787 33.48M33.4187 35.13C32.1887 33.32 30.9987 31.48 29.8687 29.61L29.7287 29.49L29.6087 29.27L25.4887 24.5L24.8087 25.1C26.4987 27.5 28.1087 29.96 29.6287 32.47L33.4087 35.15M41.0387 37.91L42.4887 34.57C42.4887 32.6 42.5487 30.62 42.6387 28.65C42.0687 30.47 41.4687 32.27 40.8087 34.06L41.0287 37.91M39.6387 37.98L39.4987 34.35C38.6487 32.58 37.8487 30.79 37.0787 28.99C37.3487 30.86 37.5887 32.73 37.7687 34.61L39.6387 37.98ZM47.8087 35.45C49.8487 34.66 51.9087 33.91 53.9887 33.22L54.1287 33.12L54.3387 33.06H54.3587L59.8787 29.86L59.5587 29.3C56.8087 30.43 54.0287 31.46 51.2187 32.39L47.7987 35.45M48.9287 38L53.5987 36.74C55.9287 34.88 58.3187 33.1 60.7687 31.4L60.2587 30.51L54.5487 33.81H54.5287L54.5087 33.83L54.3487 33.89C52.5787 35.31 50.7687 36.66 48.9187 37.99M42.3387 38.46L45.0987 36.08C45.9487 34.31 46.8587 32.57 47.7887 30.84C46.4887 32.22 45.1687 33.57 43.8087 34.89L42.3387 38.46ZM32.8587 36.31L28.9887 33.46C26.0687 32.8 23.1787 32.04 20.3187 31.17L20.0287 31.86L26.0887 34.53H26.1087L26.1287 34.55L26.2587 34.63C28.4787 35.13 30.6687 35.7 32.8587 36.31ZM38.3987 38.65L36.6887 35.43C35.1487 34.2 33.6487 32.93 32.1687 31.64C33.2187 33.21 34.2487 34.8 35.2387 36.42L38.3987 38.66M31.5687 38.78C29.6787 37.68 27.8087 36.55 25.9787 35.35L25.7887 35.3L25.5887 35.14L19.7387 32.56L19.3787 33.41C21.9787 34.86 24.5187 36.39 27.0087 38.01L31.5787 38.78M43.2687 39.52L46.7987 38.57C48.3287 37.35 49.8987 36.18 51.4787 35.03C49.7087 35.71 47.9287 36.36 46.1187 36.96L43.2587 39.52M37.5787 39.79L34.6587 37.64C32.7387 37.2 30.8387 36.71 28.9387 36.19C30.5687 37.15 32.1787 38.13 33.7687 39.15L37.5887 39.79M56.0387 39.85L56.2187 39.82H56.2687L56.4487 39.86L62.7987 39.35L62.7687 38.74C59.8087 38.56 56.8587 38.28 53.9087 37.9L49.4987 39.18C51.6787 39.36 53.8587 39.57 56.0287 39.86M18.0987 41.65L24.5687 41.46L24.7087 41.43H24.7287L24.8887 41.44C27.0987 40.93 29.3287 40.49 31.5587 40.1L26.8387 39.21C23.9287 39.88 20.9887 40.45 18.0387 40.91L18.0887 41.65M47.2187 41.55C49.1287 41.11 51.0487 40.74 52.9787 40.39C51.0887 40.23 49.2087 40.05 47.3287 39.81L43.6387 40.88L47.2187 41.55ZM56.2887 40.63H56.2687H56.2487H56.0887C53.8787 41.13 51.6587 41.56 49.4287 41.96L54.1487 42.85C57.0387 42.19 59.9587 41.63 62.8887 41.17L62.8387 40.11L56.2987 40.64M33.6387 42.25L37.3387 41.18L33.7687 40.51C31.8587 40.95 29.9387 41.33 28.0087 41.68C29.8887 41.84 31.7687 42.02 33.6487 42.26M24.7087 42.24L24.5587 42.21L18.1487 42.4L18.2087 43.33C21.1587 43.5 24.1087 43.78 27.0387 44.16L31.4487 42.88C29.2687 42.71 27.0987 42.49 24.9287 42.21L24.7487 42.24H24.6987M52.0387 45.87C50.4087 44.91 48.7987 43.93 47.2087 42.9L43.3987 42.26L46.3287 44.42C48.2487 44.86 50.1487 45.35 52.0387 45.88M29.4987 47.03C31.2687 46.35 33.0487 45.7 34.8487 45.1L37.7087 42.53L34.1887 43.48C32.6587 44.7 31.0887 45.88 29.5087 47.03M61.3187 49.2L61.5487 48.63C58.9587 47.19 56.4287 45.66 53.9587 44.04L49.3987 43.27C51.2887 44.37 53.1687 45.51 54.9987 46.71L55.1887 46.76H55.1987L55.2187 46.77L61.3187 49.19M48.7987 50.41C47.7487 48.83 46.7087 47.24 45.7287 45.62L42.5787 43.39L44.2887 46.62C45.8287 47.84 47.3187 49.11 48.7987 50.41ZM33.1987 51.21C34.4987 49.84 35.8087 48.48 37.1687 47.16L38.6387 43.59L35.8887 45.96C35.0387 47.73 34.1287 49.48 33.1987 51.21ZM20.6287 51.31L26.6387 48.13H26.6787C28.4287 46.71 30.2287 45.37 32.0587 44.06L27.3887 45.32C25.0687 47.17 22.6987 48.95 20.2487 50.63L20.6187 51.31M43.8887 53.06C43.6187 51.19 43.3787 49.31 43.1987 47.43L41.3387 44.07L41.4787 47.71C42.3287 49.47 43.1287 51.26 43.8987 53.07M38.3387 53.34C38.9087 51.54 39.5087 49.75 40.1587 47.97L39.9387 44.13L38.4887 47.46V47.53C38.4887 49.47 38.4287 51.4 38.3387 53.33M60.6287 50.87L61.0387 49.89L55.1187 47.54H55.0387L54.8587 47.5L54.7287 47.42C52.5187 46.92 50.3187 46.35 48.1387 45.74L52.0087 48.59C54.9087 49.25 57.7887 50.01 60.6387 50.87M33.1587 46.61C31.1187 47.4 29.0687 48.15 26.9887 48.83L26.8487 48.93L26.6287 49H26.5887L20.9887 51.96L21.4187 52.76C24.1587 51.64 26.9287 50.61 29.7387 49.68L33.1587 46.62M55.6787 57.43L56.1687 57C54.4687 54.58 52.8487 52.11 51.3187 49.58L47.5387 46.91C48.7687 48.73 49.9687 50.57 51.0987 52.45L51.2387 52.57V52.59L51.2687 52.6L55.6887 57.44M27.0887 58.95L30.8887 53.8L30.9787 53.59L31.0887 53.47C32.0687 51.42 33.1187 49.4 34.2087 47.41L30.5587 50.56C29.2687 53.24 27.8887 55.87 26.4287 58.45L27.0987 58.95M54.3287 58.61L55.1087 57.93L50.8287 53.24L50.6087 53.09L50.5187 52.96C48.7387 51.55 47.0087 50.08 45.3087 48.58L47.5687 52.85C49.8887 54.69 52.1387 56.61 54.3187 58.61M28.3787 59.89C30.3587 57.69 32.4187 55.55 34.5487 53.49L36.3187 49.21C34.8387 50.79 33.3387 52.34 31.7787 53.84V53.86L31.6587 54.01L31.6287 54.07L31.5587 54.15L27.6987 59.39L28.3787 59.89ZM46.9887 62.37L47.6687 62.16C47.1887 59.26 46.8087 56.35 46.5287 53.42L44.3087 49.41C44.6187 51.57 44.8987 53.74 45.0987 55.92L45.1687 56.09L45.1887 56.25L46.9887 62.37ZM36.2687 62.97L37.3687 56.65V56.47L37.4187 56.32C37.4187 56.17 37.4187 56.01 37.4187 55.86C37.4187 53.75 37.4887 51.64 37.5887 49.53L35.6787 53.93V54.08C35.6787 57 35.5787 59.91 35.3787 62.82L36.2687 62.98M45.3387 62.88L46.2787 62.59L44.4787 56.47L44.3887 56.29L44.3587 56.13C43.3687 54.09 42.4487 52.02 41.5687 49.93L41.7487 54.73C43.0387 57.4 44.2287 60.12 45.3387 62.87M37.7787 63.24C38.6087 60.4 39.5287 57.6 40.5487 54.82L40.2887 50.24C39.6387 52.33 38.9387 54.4 38.1787 56.45V56.64L38.1087 56.81L37.0087 63.11L37.7787 63.25M38.6887 3.02H38.6687C38.4087 3.03 38.2087 3.24999 38.2187 3.50999L38.5487 12.22C37.5187 9.84 36.5487 7.74 35.5887 5.81C35.5087 5.65 35.3487 5.55 35.1587 5.55L34.9587 5.59C34.7287 5.7 34.6187 5.96 34.7187 6.2C35.9087 9.12 37.2287 12.05 38.6487 14.9L38.7487 17.54C37.7787 15.25 36.8587 13.23 35.9587 11.39C35.8787 11.23 35.7087 11.12 35.5287 11.12L35.3387 11.16C35.1087 11.26 34.9987 11.53 35.0887 11.77C36.2187 14.62 37.4887 17.49 38.8487 20.31L39.0087 24.55C38.0487 22.29 37.1487 20.3 36.2587 18.49L36.2387 18.45L36.1787 18.38L36.1087 18.32L36.0387 18.28L35.9487 18.25H35.8587V18.24H35.7687H35.7187L32.7387 19.08L32.6887 19.1L32.5987 19.15L32.5287 19.21L32.4687 19.28L32.4287 19.36L32.3987 19.45V19.54L32.3887 19.59C32.5687 21.57 32.8287 23.71 33.1787 26.12L31.2087 22.57C30.9087 19.43 30.4987 16.28 29.9687 13.21C29.9287 12.98 29.7287 12.81 29.4987 12.81H29.4387C29.1887 12.85 28.9987 13.07 29.0287 13.33C29.2287 15.55 29.4987 17.83 29.8387 20.1L28.5087 17.69C28.1787 14.54 27.7387 11.38 27.1887 8.29C27.1487 8.06 26.9487 7.89999 26.7187 7.89999H26.6487C26.3987 7.93999 26.2187 8.17 26.2387 8.42C26.4587 10.64 26.7487 12.91 27.0987 15.16L22.9987 7.77C22.9187 7.62 22.7587 7.53 22.5787 7.53L22.3487 7.59C22.1187 7.71 22.0387 8 22.1587 8.23L26.2387 15.94C24.2787 14.24 22.4887 12.76 20.7887 11.45C20.7087 11.39 20.6087 11.35 20.4987 11.35C20.3587 11.35 20.2287 11.41 20.1387 11.52C19.9787 11.72 19.9987 12.01 20.1887 12.18C22.5087 14.28 24.9687 16.34 27.4987 18.31L28.7387 20.66C26.8387 18.98 25.1787 17.6 23.5587 16.32C23.4787 16.25 23.3687 16.22 23.2687 16.22C23.1287 16.22 22.9987 16.28 22.9087 16.39C22.7387 16.59 22.7587 16.87 22.9487 17.05C25.1687 19.09 27.5587 21.13 30.0287 23.1L32.0287 26.87C30.2687 25.32 28.6587 23.97 27.1287 22.76L27.0587 22.64C26.9687 22.54 26.8487 22.48 26.7087 22.48H26.6287C26.4887 22.48 26.3587 22.54 26.2787 22.64L26.2087 22.75L24.1687 24.54L24.0487 24.59C23.8387 24.73 23.7687 25.01 23.8987 25.23C24.9287 26.95 26.0687 28.72 27.4587 30.78L24.1287 28.42C22.4787 25.69 20.7387 23.03 18.9587 20.52C18.8687 20.39 18.7287 20.32 18.5687 20.32C18.4787 20.32 18.3887 20.35 18.3087 20.4C18.0987 20.54 18.0287 20.82 18.1587 21.04C19.2287 22.82 20.4487 24.72 21.8687 26.83L19.5587 25.2C17.8787 22.48 16.1087 19.82 14.2987 17.31C14.2087 17.19 14.0687 17.11 13.9087 17.11C13.8187 17.11 13.7287 17.14 13.6487 17.19C13.4387 17.33 13.3687 17.61 13.5087 17.83C14.5887 19.6 15.8187 21.48 17.2587 23.57L10.3087 18.65C10.2287 18.59 10.1287 18.56 10.0387 18.56C9.88874 18.56 9.73872 18.63 9.64872 18.76C9.49872 18.97 9.53873 19.27 9.74873 19.42L16.7287 24.56C14.4487 23.94 12.1587 23.39 9.91873 22.91H9.81874C9.59874 22.9 9.40873 23.05 9.35873 23.26C9.29873 23.51 9.43873 23.76 9.68873 23.83C12.7187 24.72 15.8287 25.51 18.9387 26.18L21.0587 27.74C18.6587 27.07 16.5187 26.53 14.5187 26.09H14.4187C14.1987 26.08 14.0187 26.22 13.9587 26.43C13.8887 26.68 14.0387 26.93 14.2787 27.01C17.2087 27.9 20.2387 28.7 23.2887 29.39L26.7087 31.91C24.4087 31.27 22.3487 30.75 20.4087 30.32L20.3087 30.26L20.1187 30.22C19.9287 30.22 19.7587 30.33 19.6787 30.51L18.4687 33.32C18.4187 33.44 18.4187 33.57 18.4687 33.7C18.4987 33.83 18.5687 33.93 18.6687 34C20.3387 35.1 22.1387 36.21 24.2787 37.46L20.2487 36.78C17.5787 35.03 14.8587 33.39 12.1587 31.9L11.9287 31.84C11.7587 31.84 11.6087 31.93 11.5187 32.07C11.3887 32.29 11.4487 32.57 11.6687 32.71C13.4087 33.85 15.3287 35.04 17.5287 36.32L14.7387 35.85C12.0487 34.12 9.29873 32.5 6.57873 31.02L6.34874 30.96C6.17874 30.96 6.02873 31.05 5.93873 31.19C5.80873 31.41 5.87873 31.69 6.08873 31.83C7.82873 32.95 9.75874 34.12 11.9587 35.37L3.55873 33.95H3.47872C3.24872 33.95 3.04872 34.11 3.00872 34.34C2.95872 34.6 3.12873 34.84 3.38873 34.89L11.8987 36.49C9.57872 36.92 7.27873 37.42 5.04873 37.96C4.79873 38.02 4.64873 38.27 4.69873 38.52C4.73873 38.74 4.93873 38.9 5.16873 38.9H5.24873C8.36873 38.38 11.5187 37.75 14.6087 37L17.1887 37.49C14.7387 37.93 12.5787 38.37 10.5887 38.83C10.3387 38.89 10.1787 39.13 10.2287 39.38C10.2687 39.6 10.4687 39.76 10.6987 39.76H10.7687C13.7987 39.28 16.8787 38.69 19.9187 37.99L24.0887 38.78C21.6687 39.21 19.5387 39.65 17.5787 40.11C17.4687 40.14 17.3687 40.2 17.3087 40.3C17.2087 40.39 17.1587 40.52 17.1687 40.66L17.3687 43.58V43.61C17.3487 43.88 17.5287 44.11 17.7787 44.14C19.7587 44.4 21.8987 44.63 24.3287 44.82L20.4287 45.95C17.2987 45.54 14.1287 45.24 11.0087 45.07H10.9887C10.7387 45.07 10.5387 45.25 10.5187 45.5C10.4987 45.76 10.6787 45.98 10.9287 46.02C13.1487 46.32 15.4287 46.56 17.7187 46.74L15.0587 47.51C11.9187 47.13 8.72874 46.86 5.59874 46.71C5.32874 46.71 5.12874 46.9 5.09874 47.14C5.07874 47.4 5.25872 47.62 5.50872 47.65C7.72872 47.93 9.99873 48.15 12.2687 48.31L4.14872 50.66C3.89872 50.73 3.74874 50.99 3.81874 51.24C3.87874 51.44 4.06873 51.59 4.27873 51.59L4.39872 51.57L12.8187 49.3C10.7187 50.84 8.88872 52.25 7.22872 53.61C7.02872 53.77 6.99872 54.06 7.14872 54.26C7.23872 54.38 7.37873 54.45 7.52873 54.45C7.62873 54.45 7.71873 54.42 7.79873 54.36C10.3587 52.57 12.9187 50.63 15.3987 48.59L17.9487 47.9C15.8987 49.38 14.1787 50.68 12.5787 51.98C12.3787 52.14 12.3387 52.43 12.4987 52.63C12.5887 52.75 12.7287 52.82 12.8787 52.82C12.9787 52.82 13.0687 52.79 13.1487 52.74C15.6287 51.03 18.1387 49.16 20.6087 47.19L24.7387 46.08C22.7787 47.5 21.0687 48.8 19.5287 50.03H19.5087C19.3187 50.14 19.2287 50.36 19.2787 50.57V50.61L19.3187 50.68L20.7987 53.4L20.8187 53.44L20.9087 53.54C21.0087 53.62 21.1187 53.66 21.2287 53.66L21.3687 53.64C23.2687 53.02 25.2987 52.29 27.5687 51.41L24.5487 54.12C21.5487 55.11 18.5587 56.22 15.6787 57.41C15.4387 57.51 15.3287 57.77 15.4187 58.01C15.4887 58.2 15.6687 58.32 15.8687 58.32L16.0187 58.3C18.0087 57.65 20.1287 56.89 22.4987 55.97L20.3887 57.86C17.3787 58.88 14.3987 60.02 11.5187 61.24C11.2787 61.34 11.1687 61.61 11.2587 61.85C11.3287 62.03 11.5087 62.16 11.6987 62.16L11.8487 62.14C13.8187 61.48 15.9287 60.7 18.2687 59.76L11.9287 65.44C11.7387 65.61 11.7187 65.91 11.8887 66.11C11.9787 66.21 12.1087 66.27 12.2487 66.27C12.3587 66.27 12.4687 66.23 12.5587 66.15L19.1587 60.46C17.9387 62.74 16.8987 64.81 15.9987 66.77C15.8887 67 15.9887 67.28 16.2087 67.39L16.4287 67.44C16.5987 67.44 16.7587 67.35 16.8487 67.2C18.3887 64.45 19.8487 61.59 21.1987 58.7L23.1887 56.98C21.9787 59.2 20.9987 61.12 20.1187 62.98C20.0087 63.21 20.0987 63.49 20.3287 63.6L20.5487 63.65C20.7187 63.65 20.8787 63.56 20.9587 63.41C22.4787 60.76 23.9287 57.98 25.2787 55.17L28.5087 52.39C27.3187 54.59 26.3487 56.48 25.4787 58.31V58.36L25.4587 58.45V58.54V58.63L25.4887 58.72L25.5287 58.79L25.5887 58.86L25.6287 58.9L28.0787 60.71C28.1487 60.77 28.2487 60.79 28.3487 60.8H28.4287C28.5487 60.8 28.6687 60.76 28.7487 60.68C30.1987 59.29 31.6787 57.79 33.3787 55.97L31.8187 59.74C29.5187 61.96 27.3087 64.25 25.2587 66.55C25.0887 66.74 25.0987 67.03 25.2787 67.21C25.3687 67.3 25.4887 67.34 25.6087 67.34C25.7287 67.34 25.8487 67.29 25.9387 67.21C27.4487 65.77 29.0287 64.15 30.7687 62.29L29.6787 64.92C27.3987 67.16 25.1987 69.48 23.1587 71.81C22.9887 72 22.9987 72.29 23.1887 72.47C23.2787 72.55 23.3887 72.6 23.5187 72.6C23.6487 72.6 23.7587 72.55 23.8487 72.46C25.3287 71.01 26.8887 69.39 28.6087 67.52L25.3587 75.39C25.2587 75.63 25.3687 75.91 25.6087 76.01L25.7987 76.05C25.9887 76.05 26.1587 75.94 26.2387 75.76L29.7087 67.79C29.6287 69.72 29.5887 71.36 29.5887 72.93C29.5887 73.56 29.5887 74.19 29.5987 74.82C29.5987 75.08 29.8087 75.28 30.0587 75.29C30.3187 75.29 30.5287 75.09 30.5487 74.84C30.7087 72.21 30.7987 69.54 30.7987 66.9C30.7987 66.37 30.7987 65.83 30.7887 65.3L31.8287 62.91C31.7187 65.12 31.6687 67.08 31.6687 68.88C31.6687 69.13 31.6687 69.37 31.6687 69.62C31.6687 69.88 31.8687 70.08 32.1287 70.09C32.3887 70.09 32.5987 69.9 32.6187 69.65C32.8287 66.66 32.9387 63.6 32.9387 60.56V60.35L34.6287 56.46C34.5287 58.67 34.4787 60.55 34.4787 62.35C34.4787 62.55 34.4787 62.74 34.4787 62.94V62.98C34.4387 63.13 34.4887 63.29 34.6087 63.4L34.6287 63.42L34.6987 63.47L34.9387 63.55H34.9487H34.9587L37.8187 64.06H37.8487L37.9987 64.1C38.1987 64.1 38.3787 63.98 38.4487 63.79C39.1487 61.92 39.8487 59.87 40.5787 57.55L40.8087 61.6C39.7087 64.56 38.7187 67.59 37.8487 70.59C37.7787 70.84 37.9087 71.09 38.1587 71.17L38.3087 71.19C38.5087 71.19 38.6887 71.07 38.7587 70.88C39.4887 68.91 40.2187 66.78 40.9787 64.35L41.1387 67.18C40.0687 70.16 39.0887 73.2 38.2487 76.22C38.1787 76.47 38.3187 76.72 38.5587 76.8L38.7087 76.82C38.9087 76.82 39.0887 76.69 39.1587 76.51C39.8687 74.55 40.5787 72.42 41.3087 70.01L41.7987 78.51C41.8087 78.76 42.0187 78.96 42.2687 78.96C42.5487 78.95 42.7587 78.73 42.7487 78.47L42.4187 69.76C43.4487 72.14 44.4187 74.24 45.3787 76.17C45.4587 76.33 45.6187 76.43 45.8087 76.43L46.0087 76.39C46.2387 76.28 46.3487 76.02 46.2487 75.78C45.0587 72.86 43.7387 69.94 42.3187 67.08L42.2187 64.47C43.1887 66.75 44.0987 68.76 44.9887 70.59C45.0687 70.75 45.2387 70.86 45.4187 70.86L45.6087 70.82C45.8387 70.72 45.9487 70.45 45.8587 70.21C44.7287 67.37 43.4687 64.51 42.1087 61.7L41.9487 57.45C42.9087 59.71 43.8087 61.69 44.6887 63.49C44.7687 63.65 44.9387 63.76 45.1187 63.76L45.3087 63.72H45.3387L47.9887 62.91L48.1087 62.93H48.1587C48.4087 62.89 48.5987 62.67 48.5687 62.41C48.3887 60.42 48.1287 58.27 47.7787 55.86L49.7487 59.41C50.0487 62.56 50.4587 65.72 50.9787 68.8C51.0187 69.03 51.2187 69.2 51.4487 69.2H51.5087C51.7587 69.16 51.9487 68.94 51.9187 68.68C51.7187 66.44 51.4487 64.16 51.1087 61.88L52.4587 64.32C52.7887 67.47 53.2287 70.63 53.7787 73.72C53.8187 73.95 54.0187 74.11 54.2487 74.11H54.3187C54.5687 74.07 54.7487 73.84 54.7287 73.59C54.5087 71.37 54.2187 69.1 53.8687 66.85L57.9687 74.24C58.0487 74.39 58.2087 74.48 58.3887 74.48L58.6187 74.42C58.8487 74.3 58.9287 74.01 58.8087 73.78L54.7287 66.07C56.6887 67.77 58.4787 69.25 60.1787 70.56C60.2587 70.62 60.3587 70.66 60.4687 70.66C60.6087 70.66 60.7387 70.6 60.8287 70.49C60.9887 70.29 60.9687 70 60.7787 69.83C58.4587 67.73 55.9987 65.67 53.4687 63.7L52.2387 61.38C54.1387 63.05 55.7787 64.43 57.3887 65.7C57.4687 65.77 57.5787 65.8 57.6787 65.8C57.8187 65.8 57.9487 65.74 58.0387 65.63C58.2087 65.43 58.1887 65.15 57.9987 64.97C55.7887 62.94 53.4187 60.91 50.9387 58.94L48.9387 55.16C50.8187 56.81 52.4487 58.18 54.0287 59.43C54.1087 59.5 54.2187 59.53 54.3187 59.53C54.4587 59.53 54.5887 59.47 54.6787 59.36V59.33L56.9387 57.36L56.9687 57.32L57.0287 57.24L57.0587 57.16L57.0787 57.07V56.98V56.89L57.0487 56.8L57.0287 56.75C55.9987 55.03 54.8587 53.25 53.4587 51.18L56.7887 53.54C58.4387 56.28 60.1787 58.94 61.9687 61.47C62.0587 61.6 62.1987 61.67 62.3587 61.67C62.4487 61.67 62.5387 61.64 62.6187 61.59C62.8287 61.45 62.8987 61.17 62.7687 60.95C61.6987 59.16 60.4687 57.25 59.0387 55.13L61.3787 56.78C63.0587 59.5 64.8287 62.16 66.6387 64.67C66.7287 64.79 66.8687 64.87 67.0287 64.87C67.1187 64.87 67.2087 64.84 67.2887 64.79C67.4987 64.65 67.5687 64.37 67.4287 64.15C66.3487 62.38 65.1187 60.5 63.6787 58.41L70.6287 63.33C70.7087 63.39 70.8087 63.42 70.8987 63.42C71.0487 63.42 71.1987 63.35 71.2887 63.22C71.4387 63.01 71.3987 62.71 71.1887 62.56L64.2087 57.42C66.4887 58.04 68.7787 58.59 71.0187 59.07H71.1187C71.3387 59.08 71.5287 58.93 71.5787 58.72C71.6387 58.47 71.4987 58.22 71.2487 58.15C68.2187 57.26 65.1087 56.47 61.9987 55.8L59.9087 54.26C62.2887 54.93 64.4287 55.47 66.4087 55.91H66.5087C66.7287 55.92 66.9087 55.78 66.9687 55.57C67.0387 55.32 66.8887 55.07 66.6487 54.99C63.7287 54.1 60.7087 53.3 57.6687 52.61L54.2487 50.09C56.6087 50.75 58.7187 51.28 60.6787 51.72H60.7787C60.9387 51.73 61.0887 51.65 61.1787 51.51L61.2887 51.35L62.4287 48.58V48.53L62.4487 48.43V48.34L62.4287 48.25L62.3987 48.17L62.3487 48.09L62.2787 48.03L62.2387 48C60.5587 46.89 58.7587 45.78 56.6087 44.53L60.6287 45.21C63.2987 46.96 66.0287 48.61 68.7387 50.11L68.9687 50.17C69.1387 50.17 69.2887 50.08 69.3787 49.94C69.5087 49.72 69.4487 49.44 69.2287 49.3C67.4787 48.15 65.5487 46.96 63.3387 45.67L66.1687 46.15C68.8587 47.88 71.6087 49.5 74.3287 50.98L74.5587 51.04C74.7287 51.04 74.8787 50.95 74.9687 50.81C75.0987 50.59 75.0287 50.31 74.8187 50.17C73.0787 49.05 71.1487 47.88 68.9487 46.63L77.3487 48.05H77.4287C77.6587 48.05 77.8587 47.89 77.8987 47.66C77.9487 47.4 77.7787 47.16 77.5187 47.11L69.0087 45.51C71.3287 45.08 73.6287 44.58 75.8587 44.04C76.1087 43.98 76.2587 43.73 76.2087 43.48C76.1687 43.26 75.9687 43.1 75.7387 43.1H75.6587C72.5387 43.62 69.3887 44.25 66.2987 45L63.7487 44.52C66.1787 44.09 68.3387 43.65 70.3187 43.18C70.5687 43.12 70.7287 42.88 70.6787 42.63C70.6387 42.41 70.4387 42.25 70.2087 42.25H70.1387C67.1187 42.72 64.0487 43.31 61.0187 44.01L56.8387 43.22C59.2487 42.79 61.3787 42.36 63.3287 41.9C63.4987 41.86 63.6287 41.73 63.6787 41.56V41.5L63.7087 41.38L63.5687 38.46L63.5487 38.38C63.5687 38.13 63.3887 37.91 63.1387 37.87C61.1587 37.6 58.9987 37.38 56.5687 37.18L60.4687 36.05C63.6087 36.46 66.7787 36.76 69.9087 36.94H69.9287C70.1787 36.94 70.3787 36.76 70.3987 36.51C70.4187 36.25 70.2387 36.03 69.9887 35.99C67.7587 35.69 65.4687 35.44 63.1687 35.26L65.8587 34.48C68.9987 34.86 72.1887 35.13 75.3187 35.28C75.5887 35.28 75.7887 35.09 75.8187 34.85C75.8387 34.59 75.6587 34.37 75.4087 34.34C73.1887 34.06 70.9187 33.84 68.6487 33.68L76.7687 31.33C77.0187 31.26 77.1687 31 77.0987 30.75C77.0387 30.55 76.8487 30.4 76.6387 30.4L76.5187 30.42L68.0987 32.69C70.1987 31.15 72.0287 29.74 73.6887 28.38C73.8887 28.22 73.9187 27.93 73.7687 27.73C73.6787 27.61 73.5387 27.54 73.3887 27.54C73.2887 27.54 73.1987 27.57 73.1187 27.63C70.5587 29.42 67.9987 31.36 65.5187 33.4L62.9987 34.08C65.0487 32.61 66.7487 31.31 68.3487 30.03C68.5487 29.87 68.5887 29.58 68.4287 29.38C68.3387 29.26 68.1987 29.19 68.0487 29.19C67.9487 29.19 67.8587 29.22 67.7787 29.27C65.3087 30.97 62.7987 32.83 60.3387 34.8L56.2087 35.91C58.2387 34.45 59.9287 33.17 61.4887 31.9C61.5787 31.83 61.6387 31.73 61.6587 31.61C61.7187 31.49 61.7087 31.33 61.6387 31.2L60.1287 28.56L60.1087 28.52L60.0387 28.45L59.9687 28.4L59.8887 28.36L59.8087 28.34H59.7287H59.6287H59.5887C57.6887 28.96 55.6387 29.69 53.3587 30.57L56.3787 27.86C59.3887 26.87 62.3887 25.76 65.2787 24.57C65.5187 24.47 65.6287 24.21 65.5387 23.97C65.4687 23.78 65.2887 23.66 65.0887 23.66L64.9387 23.68C62.9387 24.33 60.7987 25.1 58.4287 26.02L60.5587 24.11C63.5587 23.09 66.5487 21.95 69.4287 20.73C69.6687 20.63 69.7787 20.36 69.6887 20.12C69.6187 19.94 69.4387 19.81 69.2487 19.81L69.0987 19.83C67.1287 20.49 65.0187 21.27 62.6787 22.21L69.0187 16.53C69.2087 16.36 69.2287 16.06 69.0587 15.86C68.9687 15.76 68.8387 15.7 68.6987 15.7C68.5887 15.7 68.4787 15.74 68.3887 15.82L61.7887 21.51C63.0087 19.23 64.0487 17.16 64.9487 15.2C65.0587 14.97 64.9587 14.69 64.7387 14.58L64.5187 14.53C64.3487 14.53 64.1887 14.62 64.1087 14.77C62.5687 17.52 61.1087 20.38 59.7587 23.27L57.7887 24.97C58.9887 22.76 59.9687 20.85 60.8487 19C60.9587 18.77 60.8687 18.49 60.6387 18.37L60.4187 18.32C60.2487 18.32 60.0887 18.41 60.0087 18.56C58.4987 21.2 57.0387 23.97 55.6887 26.78L52.4587 29.56C53.6487 27.37 54.6187 25.48 55.4787 23.66C55.5887 23.43 55.4987 23.15 55.2687 23.03H55.2587H55.2487L55.2087 22.99L52.8187 21.26L52.7687 21.24L52.6787 21.2L52.5987 21.18H52.5387H52.5087L52.4187 21.2L52.3287 21.23L52.2487 21.28L52.2087 21.31C50.7487 22.7 49.2687 24.21 47.5587 26.04L49.1187 22.27C51.4187 20.05 53.6387 17.76 55.7087 15.45C55.8787 15.26 55.8687 14.97 55.6887 14.79C55.5987 14.7 55.4787 14.66 55.3587 14.66C55.2387 14.66 55.1187 14.71 55.0287 14.79C53.5087 16.24 51.9187 17.86 50.1687 19.73L51.2687 17.07C53.5487 14.83 55.7487 12.51 57.7887 10.18C57.9587 9.99 57.9487 9.7 57.7587 9.52C57.6687 9.44 57.5587 9.39 57.4287 9.39C57.3087 9.39 57.1887 9.44 57.0987 9.53C55.6187 10.98 54.0587 12.6 52.3387 14.47L55.5887 6.6C55.6887 6.36 55.5787 6.08 55.3387 5.98L55.1487 5.93999C54.9587 5.93999 54.7887 6.05 54.7087 6.23L51.2387 14.2C51.3187 12.27 51.3587 10.63 51.3587 9.06C51.3587 8.43 51.3587 7.8 51.3487 7.17C51.3487 6.91 51.1387 6.71 50.8887 6.7C50.6287 6.7 50.4187 6.89999 50.3987 7.14999C50.2387 9.77999 50.1487 12.45 50.1487 15.09C50.1487 15.62 50.1487 16.16 50.1587 16.69L49.1287 19.05C49.2387 16.83 49.2887 14.86 49.2887 13.04C49.2887 12.82 49.2887 12.59 49.2887 12.37C49.2887 12.11 49.0887 11.91 48.8287 11.9C48.5687 11.9 48.3587 12.09 48.3387 12.34C48.1187 15.35 48.0187 18.44 48.0187 21.5V21.58V21.61L46.3287 25.5C46.4287 23.3 46.4887 21.35 46.4887 19.56C46.4887 19.34 46.4887 19.11 46.4887 18.89C46.4887 18.69 46.3487 18.51 46.1487 18.44L46.0187 18.39L44.5287 18.13L44.4887 18.11H44.4687H44.4387L43.0087 17.86H42.9887H42.9587H42.9187H42.8587L42.7787 17.89L42.6987 17.93L42.6287 17.98L42.5687 18.05L42.5187 18.13L42.4887 18.18C41.7987 20.04 41.0987 22.08 40.3687 24.4L40.1387 20.34C41.2387 17.38 42.2287 14.36 43.0887 11.37C43.1587 11.12 43.0287 10.87 42.7787 10.79L42.6287 10.77C42.4287 10.77 42.2487 10.89 42.1787 11.08C41.4487 13.03 40.7287 15.16 39.9687 17.58L39.8087 14.78C40.8787 11.8 41.8587 8.76 42.6987 5.74C42.7687 5.49 42.6287 5.24 42.3887 5.16L42.2387 5.14C42.0387 5.14 41.8587 5.27 41.7887 5.45C41.0787 7.41 40.3687 9.54 39.6387 11.95L39.1487 3.45C39.1387 3.2 38.9287 3 38.6787 3L38.6887 3.02ZM40.5287 27.22C41.5287 24.51 42.4487 21.71 43.2687 18.9L43.8687 19L42.8087 25.17L42.7187 25.4V25.51C42.0787 27.23 41.4387 29.1 40.7587 31.23L40.5287 27.21V27.22ZM43.6687 25.69L43.6887 25.61V25.57L44.7887 19.18L45.4987 19.3C45.2987 22.23 45.1987 25.17 45.1987 28.05V28.1L43.5087 31.98C43.6087 29.81 43.6587 27.89 43.6587 26.13V25.7L43.6687 25.69ZM34.9387 19.46L35.5687 19.28C36.6687 22.01 37.8687 24.73 39.1287 27.35L39.2887 31.58C38.3887 29.46 37.5387 27.59 36.7087 25.88V25.84L36.6887 25.73C36.6687 25.64 36.6287 25.55 36.5587 25.48L34.9387 19.46ZM33.3987 19.9L34.0187 19.73L35.6887 25.95V25.97V26L35.7387 26.13V26.16C35.9187 27.97 36.1587 29.92 36.4687 32.11L34.5187 28.58C34.2387 25.7 33.8587 22.78 33.3787 19.9H33.3987ZM46.5087 28.63C48.6187 26.59 50.6687 24.46 52.6087 22.32L53.0287 22.62L49.3087 27.89V27.91V27.93L49.2287 28.05L49.2087 28.09C47.8887 29.36 46.5387 30.73 44.9787 32.39L46.5287 28.64L46.5087 28.63ZM50.1987 28.26L53.7887 23.17L54.4287 23.63C52.9787 26.18 51.6087 28.8 50.3487 31.41L47.1187 34.19C48.2187 32.16 49.1587 30.33 49.9687 28.63L50.0687 28.52C50.1387 28.44 50.1787 28.35 50.1887 28.24L50.1987 28.26ZM26.2087 24L26.6587 23.6C28.7987 25.55 31.0387 27.46 33.3287 29.28L35.3287 33.05C33.5787 31.52 32.0087 30.2 30.5287 29.03L30.4487 28.91L30.4287 28.88L26.2287 24.01L26.2087 24ZM24.9587 25.1L25.4887 24.63L29.5187 29.31C29.5387 29.41 29.5887 29.5 29.6587 29.56L29.7787 29.67C30.7187 31.23 31.7587 32.85 33.0187 34.73L29.6987 32.38C28.1887 29.89 26.5887 27.44 24.9387 25.1H24.9587ZM40.9187 34.08C41.4387 32.65 41.9487 31.15 42.5087 29.4C42.4287 31.33 42.3887 32.98 42.3887 34.55L41.1087 37.49L40.9087 34.08H40.9187ZM51.2787 32.47C54.0287 31.56 56.8087 30.53 59.5287 29.42L59.7587 29.82L54.3487 32.95C54.2487 32.95 54.1587 32.98 54.0787 33.03L53.9487 33.12C52.2087 33.69 50.3587 34.36 48.2787 35.15L51.2787 32.46V32.47ZM37.8687 34.58C37.7187 33.08 37.5287 31.52 37.2787 29.71C38.0387 31.46 38.7187 32.96 39.3987 34.37L39.5187 37.56L37.8687 34.58ZM54.4087 33.99H54.4387L54.5587 33.93H54.5687L54.5887 33.91L60.2287 30.65L60.6387 31.38C58.2587 33.03 55.8687 34.8 53.5487 36.66L49.4187 37.77C51.2887 36.42 52.9287 35.18 54.3987 34L54.4087 33.99ZM20.1587 31.81L20.3787 31.3C23.2087 32.15 26.0887 32.91 28.9487 33.56L32.3587 36.07C30.1387 35.45 28.1487 34.95 26.2887 34.53L26.1687 34.46H26.1587L26.1487 34.45L26.1287 34.44L20.1587 31.81ZM43.8887 34.95C44.9587 33.91 46.0987 32.76 47.3387 31.45C46.4387 33.14 45.6887 34.6 45.0087 36.02L42.5787 38.11L43.8787 34.95H43.8887ZM35.3187 36.35C34.5387 35.07 33.6687 33.71 32.6687 32.21C34.0987 33.45 35.3987 34.53 36.6187 35.5L38.1187 38.33L35.3187 36.35ZM19.4887 33.36L19.7787 32.69L25.5187 35.22C25.5787 35.3 25.6587 35.36 25.7587 35.39L25.8887 35.43H25.9287C27.4587 36.44 29.0887 37.45 31.0387 38.59L27.0287 37.91C24.5387 36.29 22.0087 34.76 19.4887 33.36ZM46.1787 37.05C47.6187 36.57 49.1087 36.04 50.8187 35.39C49.2987 36.5 47.9687 37.52 46.7587 38.48L43.6487 39.32L46.1787 37.05ZM33.7987 39.05C32.5487 38.24 31.1787 37.39 29.6287 36.47C31.4787 36.97 33.0787 37.38 34.6087 37.72L37.1787 39.61L33.7987 39.04V39.05ZM50.0587 39.12L53.9187 38C56.8187 38.38 59.7687 38.65 62.6687 38.83L62.6887 39.26L56.4687 39.76L56.2687 39.71H56.1987L56.0687 39.74H56.0287C54.2187 39.51 52.2587 39.3 50.0487 39.12H50.0587ZM18.1487 40.99C21.0487 40.53 23.9687 39.96 26.8487 39.31L31.0087 40.09C28.7387 40.5 26.7387 40.91 24.8787 41.34H24.8487H24.7287L24.5487 41.37L18.1887 41.56L18.1487 41.01V40.99ZM44.0787 40.85L47.3387 39.9C48.8387 40.09 50.4087 40.26 52.2287 40.41C50.3587 40.76 48.7487 41.09 47.2187 41.43L44.0687 40.84L44.0787 40.85ZM56.2887 40.73H56.2987L62.7387 40.21L62.7787 41.08C59.8787 41.54 56.9687 42.1 54.1387 42.75L49.9687 41.97C52.2287 41.56 54.2287 41.16 56.0787 40.73H56.1087H56.2287H56.2387H56.2687H56.2787H56.2887ZM28.7487 41.63C30.6287 41.28 32.2387 40.95 33.7587 40.6L36.8987 41.19L33.6287 42.14C32.1387 41.95 30.5687 41.79 28.7487 41.63ZM24.7087 42.34H24.7687L24.8987 42.31H24.9387C26.7387 42.54 28.6987 42.75 30.9087 42.93L27.0387 44.05C24.1487 43.68 21.2087 43.4 18.3087 43.23L18.2587 42.49L24.5387 42.31L24.7087 42.34ZM46.3687 44.32L43.7887 42.42L47.1587 42.99C48.4187 43.8 49.7887 44.65 51.3387 45.57C49.4887 45.07 47.8987 44.66 46.3687 44.32ZM34.2287 43.57L37.3287 42.74L34.7887 45.01C33.3587 45.49 31.8687 46.02 30.1587 46.67C31.6787 45.55 33.0187 44.54 34.2287 43.57ZM55.0387 46.62C53.5087 45.62 51.8687 44.61 49.9187 43.46L53.9187 44.14C56.3887 45.75 58.9087 47.27 61.4287 48.68L61.2687 49.08L55.2587 46.7H55.2487H55.2287L55.0987 46.66H55.0587L55.0387 46.62ZM44.3587 46.56L42.8487 43.72L45.6387 45.7C46.4187 46.98 47.2887 48.35 48.2887 49.85C46.8587 48.61 45.5687 47.53 44.3487 46.56H44.3587ZM35.9687 46.02L38.3887 43.93L37.0787 47.1C36.0087 48.14 34.8787 49.29 33.6387 50.6C34.5387 48.91 35.2887 47.44 35.9687 46.02ZM27.4387 45.4L31.5587 44.29C29.7187 45.62 28.0987 46.85 26.6387 48.02L26.5887 48.04L20.6687 51.18L20.3887 50.66C22.7687 49.01 25.1387 47.24 27.4387 45.4ZM41.5787 47.68L41.4587 44.48L43.1087 47.46C43.2587 48.96 43.4487 50.52 43.6987 52.34C42.9387 50.59 42.2687 49.09 41.5887 47.68H41.5787ZM38.5787 47.49L39.8487 44.56L40.0487 47.96C39.5287 49.37 39.0187 50.86 38.4687 52.6C38.5487 50.7 38.5787 49.08 38.5787 47.54V47.49ZM52.0387 48.5L48.6287 45.98C50.8387 46.6 52.8287 47.1 54.6787 47.52L54.7987 47.59L55.0287 47.65H55.0987L60.8987 49.94L60.5687 50.75C57.7487 49.9 54.8787 49.14 52.0387 48.5ZM27.0287 48.93C28.7587 48.36 30.6087 47.7 32.6787 46.9L29.6787 49.59C26.9287 50.5 24.1687 51.53 21.4587 52.64L21.1187 52.01L26.5987 49.11H26.6187C26.7187 49.11 26.8087 49.08 26.8887 49.02L27.0187 48.93H27.0287ZM51.1787 52.39C50.2387 50.82 49.1987 49.2 47.9287 47.31L51.2487 49.66C52.7687 52.17 54.3787 54.64 56.0387 57L55.6887 57.3L51.3387 52.53V52.51L51.3187 52.49L51.1987 52.38L51.1787 52.39ZM30.6387 50.62L33.8587 47.84C32.7587 49.88 31.8187 51.71 31.0087 53.41L30.9087 53.52C30.8487 53.58 30.8087 53.66 30.7987 53.76L27.0787 58.81L26.5587 58.43C28.0087 55.87 29.3887 53.25 30.6387 50.63V50.62ZM47.6587 52.78L45.6587 49.01C47.3987 50.54 48.9687 51.86 50.4487 53.03L50.5287 53.15C50.5887 53.24 50.6687 53.3 50.7787 53.33L54.9687 57.92L54.3287 58.48C52.1987 56.53 49.9487 54.62 47.6487 52.79L47.6587 52.78ZM31.8587 53.91C33.1487 52.67 34.5087 51.28 36.0087 49.68L34.4587 53.44C32.3387 55.49 30.2887 57.62 28.3587 59.76L27.8287 59.37L31.6287 54.21L31.6987 54.12L31.7187 54.08L31.8387 53.92V53.9L31.8587 53.91ZM45.1887 55.9C45.0187 54.09 44.7887 52.13 44.4687 49.94L46.4187 53.46C46.6987 56.34 47.0787 59.25 47.5487 62.1L47.0487 62.25L45.2787 56.24L45.2487 56.06L45.1987 55.94V55.9H45.1887ZM35.7787 53.94L37.4687 50.06C37.3687 52.21 37.3187 54.11 37.3187 55.86V56.31V56.34L37.2887 56.46V56.67L36.1987 62.87L35.4887 62.74C35.6887 59.84 35.7887 56.92 35.7887 54.08V53.97V53.94H35.7787ZM41.8487 54.71L41.6887 50.47C42.5887 52.58 43.4287 54.45 44.2587 56.16V56.19L44.2787 56.31L44.3787 56.52L46.1387 62.52L45.3887 62.75C44.2987 60.02 43.0987 57.32 41.8387 54.71H41.8487ZM38.2787 56.47C38.9087 54.76 39.5487 52.9 40.2187 50.79L40.4487 54.81C39.4487 57.52 38.5287 60.32 37.7087 63.13L37.1287 63.03L38.2087 56.85L38.2787 56.65V56.52L38.2887 56.48L38.2787 56.47Z" fill="black"/>
</g>
<defs>
<filter id="filter0_d_210_4524" x="0.73" y="0.3" width="80.3074" height="81.4001" filterUnits="userSpaceOnUse" color-interpolation-filters="sRGB">
<feFlood flood-opacity="0" result="BackgroundImageFix"/>
<feColorMatrix in="SourceAlpha" type="matrix" values="0 0 0 0 0 0 0 0 0 0 0 0 0 0 0 0 0 0 127 0" result="hardAlpha"/>
<feMorphology radius="1" operator="dilate" in="SourceAlpha" result="effect1_dropShadow_210_4524"/>
<feOffset dx="0.43"/>
<feGaussianBlur stdDeviation="0.85"/>
<feComposite in2="hardAlpha" operator="out"/>
<feColorMatrix type="matrix" values="0 0 0 0 0.132578 0 0 0 0 0.132578 0 0 0 0 0.253333 0 0 0 0.54 0"/>
<feBlend mode="normal" in2="BackgroundImageFix" result="effect1_dropShadow_210_4524"/>
<feBlend mode="normal" in="SourceGraphic" in2="effect1_dropShadow_210_4524" result="shape"/>
</filter>
</defs>
</svg>
