<svg width="87" height="84" viewBox="0 0 87 84" fill="none" xmlns="http://www.w3.org/2000/svg">
<g filter="url(#filter0_d_210_4521)">
<path d="M62.0512 76.2825L61.4316 79.7502L55.7053 78.7309L57.3043 69.6968L55.2357 66.9087L53.5468 65.6895L49.7792 73.8441L44.5027 71.4057L48.7599 62.2018L42.9238 57.9546L37.0876 62.2018L41.3448 71.4057L36.0683 73.8441L32.3007 65.6895L30.5819 66.9387L28.5132 69.7968L30.1322 78.7409L24.4059 79.7602L23.7863 76.2925L21.248 79.7902L16.5411 76.3724L19.0794 72.8748L15.5917 73.3644L14.7923 67.6082L23.8763 66.3391L25.885 63.5109L26.5245 61.5222L17.6004 60.4629L18.29 54.6967L28.3533 55.8959L30.5819 49.0304L24.7457 44.7832L17.3106 51.6687L13.3632 47.4015L19.9589 41.2955L18.24 40.0464L14.8822 38.9671L6.87746 43.2742L4.14926 38.1476L7.25721 36.4887L3.13992 35.1496L4.93874 29.6232L9.05603 30.9623L7.51704 27.7944L12.7436 25.2561L16.761 33.5107L20.0788 34.55H22.1674L20.4186 25.7258L26.1248 24.5965L28.0935 34.54H35.3088L37.5373 27.6745L28.6931 22.7278L31.5312 17.6511L39.3761 22.0382L40.0356 20.0195V16.4919L33.46 10.216L37.4973 6.02874L40.0356 8.47713V4.12H45.8518V8.44715L48.3902 5.99876L52.4275 10.186L45.8218 16.5518L45.8618 20.0295L46.5114 22.0082L54.3562 17.6211L57.1944 22.6978L48.3402 27.6445L50.5687 34.51H57.784L59.7527 24.5665L65.4589 25.6958L63.7101 34.51H65.8387L69.1865 33.4107L73.1239 25.2261L78.3504 27.7644L76.8115 30.9324L80.9287 29.5932L82.7276 35.1196L78.6103 36.4587L81.7182 38.1176L78.99 43.2442L70.8954 38.9271L67.6075 40.0364L65.9186 41.2656L72.5143 47.3715L68.5669 51.6387L61.1318 44.7533L55.2956 49.0005L57.5241 55.8659L67.5875 54.6667L68.2771 60.4329L59.3529 61.4922L60.0125 63.5109L62.0911 66.359L71.0952 67.5782L70.2957 73.3345L66.808 72.8448L69.3464 76.3425L64.6395 79.7602L62.1011 76.2625L62.0512 76.2825ZM49.4994 58.9939L42.9238 49.9498L36.3481 58.9939L42.9238 54.217L49.4994 58.9939ZM54.1963 55.5761L51.688 47.8512L58.2637 43.0744L47.6307 46.5321L54.2063 55.5761H54.1963ZM34.1595 47.8512L31.6512 55.5761L38.2268 46.5321L27.5938 43.0744L34.1695 47.8512H34.1595ZM40.0157 41.0057V29.8231L37.5073 37.548H29.3827L40.0157 41.0057ZM45.8318 41.0057L56.4648 37.548H48.3402L45.8318 29.8231V41.0057Z" fill="white"/>
<path d="M45.7019 4.24984V8.74688L48.3602 6.18856L52.2176 10.1959L45.7019 16.4818V20.0494L46.4014 22.218L54.2663 17.8209L56.9845 22.6777L48.1503 27.6145L50.4388 34.6598H57.8439L59.8126 24.7364L65.269 25.8156L63.5202 34.6598H65.7987L69.1864 33.5606L73.1438 25.4159L78.1505 27.8543L76.5316 31.1721L80.8088 29.783L82.5277 35.0796L78.2505 36.4686L81.5083 38.2075L78.8901 43.1143L70.9053 38.8571L67.5175 39.9563L65.6788 41.2955L72.2944 47.4214L68.5169 51.4987L61.0918 44.6233L55.0957 48.9804L57.3842 56.0258L67.4276 54.8266L68.0872 60.3529L59.1331 61.4222L59.8326 63.5908L61.9212 66.4689L70.8853 67.7181L70.1158 73.2245L66.4582 72.7148L69.0965 76.3524L64.5995 79.6202L61.9612 75.9826L61.3216 79.6202L55.8452 78.6509L57.4242 69.7367L55.3356 66.8586L53.4968 65.5195L49.7193 73.7041L44.6726 71.3657L48.9198 62.1817L42.9237 57.8246L36.9277 62.1817L41.1749 71.3657L36.1282 73.7041L32.3507 65.5195L30.5119 66.8586L28.4133 69.7367L29.9922 78.6509L24.5158 79.6202L23.8763 75.9826L21.238 79.6202L16.741 76.3524L19.3792 72.7148L15.7216 73.2245L14.9521 67.7181L23.9162 66.4689L26.0149 63.5908L26.7144 61.4222L17.7603 60.3529L18.4199 54.8266L28.4632 56.0258L30.7517 48.9804L24.7557 44.6233L17.3306 51.4987L13.5531 47.4214L20.1687 41.2955L18.3299 39.9563L14.9421 38.8571L6.9574 43.1143L4.33912 38.2075L7.59698 36.4686L3.31979 35.0796L5.03866 29.783L9.31584 31.1721L7.69691 27.8543L12.7036 25.4159L16.661 33.5606L20.0488 34.6598H22.3273L20.5784 25.8156L26.0348 24.7364L28.0035 34.6598H35.4087L37.6972 27.6145L28.863 22.6777L31.5812 17.8209L39.446 22.218L40.1456 20.0494V16.4918L33.6298 10.2059L37.4873 6.19855L40.1456 8.75687V4.24984H45.7119M40.1456 41.1755V29.0435L37.4174 37.428H28.6032L40.1456 41.1755ZM45.7019 41.1755L57.2443 37.428H48.4301L45.7019 29.0435V41.1755ZM54.5561 56.2856L51.8279 47.9011L58.9632 42.7145L47.4208 46.4621L54.5561 56.2756M31.2914 56.2856L38.4267 46.4721L26.8843 42.7245L34.0196 47.9111L31.2914 56.2956M35.7884 59.5534L42.9237 54.3669L50.059 59.5534L42.9237 49.7299L35.7884 59.5435M45.9517 4H39.8957V8.15726L37.6572 5.99869L37.4773 5.8288L37.3074 6.00868L33.45 10.016L33.2801 10.1959L33.46 10.3658L39.9057 16.5717V19.9895L39.3061 21.8283L31.7011 17.5811L31.4813 17.4611L31.3613 17.681L28.6431 22.5378L28.5232 22.7577L28.7431 22.8776L37.3974 27.7144L35.2288 34.4H28.2034L26.2747 24.6764L26.2247 24.4366L25.9849 24.4865L20.5285 25.5658L20.2886 25.6158L20.3386 25.8556L22.0275 34.4H20.0888L16.8409 33.3407L12.9235 25.296L12.8135 25.0761L12.5937 25.1861L7.58698 27.6245L7.36713 27.7344L7.47705 27.9542L8.83616 30.7524L5.11861 29.5432L4.87876 29.4632L4.79882 29.7031L3.07995 34.9996L3 35.2394L3.23984 35.3194L6.9574 36.5286L4.2192 37.9876L3.99934 38.1076L4.11926 38.3274L6.73754 43.2342L6.85746 43.454L7.07732 43.3341L14.9721 39.1269L18.22 40.1862L19.789 41.3254L13.3932 47.2415L13.2133 47.4114L13.3832 47.5913L17.1607 51.6686L17.3306 51.8485L17.5105 51.6786L24.7857 44.9431L30.4719 49.0703L28.3034 55.7559L18.4598 54.5867L18.21 54.5567L18.18 54.8066L17.5204 60.3329L17.4905 60.5828L17.7403 60.6128L26.3946 61.6421L25.795 63.4809L23.7863 66.249L14.9222 67.4882L14.6723 67.5182L14.7023 67.7681L15.4718 73.2744L15.5018 73.5243L15.7516 73.4943L18.8296 73.0646L16.5311 76.2325L16.3812 76.4323L16.5811 76.5823L21.0781 79.8501L21.278 80L21.4279 79.8001L23.7264 76.6322L24.266 79.6902L24.306 79.93L24.5458 79.8901L30.0222 78.9207L30.2621 78.8807L30.2221 78.6409L28.6631 69.8267L30.6718 67.0585L32.2408 65.9193L35.8984 73.8241L35.9983 74.0539L36.2281 73.954L41.2748 71.6155L41.5047 71.5156L41.4047 71.2857L37.2475 62.2916L42.9337 58.1644L48.62 62.2916L44.4627 71.2857L44.3628 71.5156L44.5926 71.6155L49.6393 73.954L49.8692 74.0539L49.9691 73.8241L53.6267 65.9193L55.1957 67.0585L57.2043 69.8267L55.6454 78.6409L55.6054 78.8807L55.8452 78.9207L61.3216 79.8901L61.5615 79.93L61.6014 79.6902L62.1411 76.6322L64.4396 79.8001L64.5895 80L64.7893 79.8501L69.2864 76.5823L69.4863 76.4323L69.3363 76.2325L67.0379 73.0646L70.1158 73.4943L70.3657 73.5243L70.3957 73.2744L71.1651 67.7681L71.1951 67.5182L70.9453 67.4882L62.0811 66.249L60.0724 63.4809L59.4728 61.6421L68.1271 60.6128L68.377 60.5828L68.347 60.3329L67.6874 54.8066L67.6575 54.5567L67.4076 54.5867L57.5641 55.7559L55.3955 49.0703L61.0818 44.9431L68.357 51.6786L68.5369 51.8485L68.7068 51.6686L72.4843 47.5913L72.6542 47.4114L72.4743 47.2415L66.0785 41.3254L67.6475 40.1862L70.8953 39.1269L78.7901 43.3341L79.01 43.454L79.1299 43.2342L81.7482 38.3274L81.8681 38.1076L81.6482 37.9876L78.9101 36.5286L82.6276 35.3194L82.8674 35.2394L82.7875 34.9996L81.0686 29.7031L80.9887 29.4632L80.7488 29.5432L77.0313 30.7524L78.3904 27.9542L78.5003 27.7344L78.2805 27.6245L73.2738 25.1861L73.0539 25.0761L72.944 25.296L69.0266 33.3407L65.7787 34.4H63.84L65.5289 25.8556L65.5788 25.6158L65.339 25.5658L59.8826 24.4865L59.6427 24.4366L59.5928 24.6764L57.664 34.4H50.6387L48.4701 27.7144L57.1244 22.8776L57.3442 22.7577L57.2243 22.5378L54.5061 17.681L54.3862 17.4611L54.1663 17.5811L46.5613 21.8283L45.9617 19.9895V16.5717L52.4075 10.3658L52.5874 10.1959L52.4175 10.016L48.56 6.00868L48.3901 5.8288L48.2102 5.99869L45.9717 8.15726V4H45.9517ZM30.1621 37.6679H37.5972L37.6572 37.498L39.8957 30.6025V40.8358L30.1621 37.6778V37.6679ZM45.9517 40.8258V30.5925L48.1903 37.488L48.2502 37.6579H55.6853L45.9517 40.8158V40.8258ZM47.8205 46.592L57.5541 43.4341L51.688 47.7013L51.5381 47.8112L51.598 47.9811L53.8365 54.8765L47.8205 46.602V46.592ZM32.0109 54.8665L34.2494 47.9711L34.3094 47.8012L34.1595 47.6913L28.2934 43.4241L38.027 46.582L32.0109 54.8565V54.8665ZM36.9077 58.4342L42.9237 50.1596L48.9398 58.4342L43.0736 54.167L42.9237 54.0571L42.7738 54.167L36.9077 58.4342Z" fill="#007AFF"/>
</g>
<defs>
<filter id="filter0_d_210_4521" x="0.200372" y="0.670046" width="86.5274" height="82.6599" filterUnits="userSpaceOnUse" color-interpolation-filters="sRGB">
<feFlood flood-opacity="0" result="BackgroundImageFix"/>
<feColorMatrix in="SourceAlpha" type="matrix" values="0 0 0 0 0 0 0 0 0 0 0 0 0 0 0 0 0 0 127 0" result="hardAlpha"/>
<feMorphology radius="1.23332" operator="dilate" in="SourceAlpha" result="effect1_dropShadow_210_4521"/>
<feOffset dx="0.530326"/>
<feGaussianBlur stdDeviation="1.04832"/>
<feComposite in2="hardAlpha" operator="out"/>
<feColorMatrix type="matrix" values="0 0 0 0 0.132578 0 0 0 0 0.132578 0 0 0 0 0.253333 0 0 0 0.54 0"/>
<feBlend mode="normal" in2="BackgroundImageFix" result="effect1_dropShadow_210_4521"/>
<feBlend mode="normal" in="SourceGraphic" in2="effect1_dropShadow_210_4521" result="shape"/>
</filter>
</defs>
</svg>
