<svg width="79" height="82" viewBox="0 0 79 82" fill="none" xmlns="http://www.w3.org/2000/svg">
<g filter="url(#filter0_d_210_4527)">
<path d="M39.2318 78.9196C38.3217 78.9196 37.5916 78.1795 37.5916 77.2794V68.9983L33.7611 74.559C33.5911 74.799 33.311 74.9491 33.011 74.9491C32.831 74.9491 32.651 74.8891 32.5009 74.789C32.0909 74.509 31.9909 73.9389 32.2709 73.5289L37.5716 65.8379L37.5916 61.0672L32.0009 69.1183C31.7008 69.5483 31.2208 69.7984 30.6907 69.7984C30.4407 69.7984 30.1806 69.7384 29.9606 69.6284C29.1305 69.4683 28.5604 68.7883 28.5804 67.9981L28.7904 58.1969L26.0201 62.0174L25.77 71.4086C25.76 71.8987 25.35 72.2887 24.8699 72.2887C24.6099 72.2887 24.3799 72.1787 24.2098 72.0087C24.0398 71.8387 23.9598 71.6086 23.9598 71.3586L24.1298 64.6177L19.2592 71.3186C18.9492 71.7386 18.4491 71.9987 17.929 71.9987C17.579 71.9987 17.2489 71.8887 16.9689 71.6886C16.6188 71.4286 16.3788 71.0485 16.3088 70.6185C16.2388 70.1884 16.3488 69.7484 16.5988 69.3983L21.4695 62.6974L15.1086 64.9377C15.0086 64.9678 14.9086 64.9878 14.8086 64.9878C14.4286 64.9878 14.0885 64.7477 13.9585 64.3877C13.8785 64.1576 13.8885 63.9176 13.9985 63.6976C14.0985 63.4776 14.2885 63.3175 14.5086 63.2375L23.3197 60.1271L26.1401 56.2766L16.8789 59.507C16.7089 59.567 16.5288 59.597 16.3588 59.597C15.7687 59.597 15.2187 59.257 14.9186 58.7169C14.3385 58.1068 14.2785 57.2167 14.7586 56.5867L20.6894 48.7756L16.1988 50.2358L10.478 57.6868C10.308 57.9168 10.048 58.0368 9.75794 58.0368C9.55792 58.0368 9.36789 57.9768 9.20787 57.8468C8.80782 57.5468 8.73781 56.9767 9.03785 56.5766L13.1384 51.2159L5.26735 53.7763C5.09733 53.8263 4.92731 53.8563 4.75729 53.8563C4.04719 53.8563 3.4171 53.3962 3.19708 52.7161C2.91704 51.856 3.38711 50.9259 4.25722 50.6459L12.1283 48.0855L5.6574 46.1653C5.42737 46.0953 5.23735 45.9453 5.11733 45.7252C4.99732 45.5152 4.97731 45.2652 5.04732 45.0351C5.15733 44.6551 5.51738 44.385 5.91744 44.385C6.00745 44.385 6.08746 44.395 6.17747 44.425L15.1286 47.0854L19.6792 45.6252L10.298 42.7948C9.53791 42.5648 9.06785 41.8147 9.17787 41.0046C9.06785 40.1745 9.53791 39.4144 10.298 39.1944L19.6792 36.364L15.1887 34.9038L6.17747 37.5641C6.09746 37.5841 6.00745 37.6041 5.91744 37.6041C5.51738 37.6041 5.16733 37.3341 5.04732 36.9541C4.97731 36.724 5.00732 36.474 5.11733 36.264C5.23735 36.0539 5.42737 35.8939 5.6574 35.8239L12.1283 33.9037L4.25722 31.3433C3.83717 31.2033 3.49711 30.9133 3.29709 30.5232C3.09706 30.1332 3.06706 29.6831 3.19708 29.2731C3.4171 28.593 4.04719 28.1329 4.75729 28.1329C4.92731 28.1329 5.09733 28.1629 5.26735 28.2129L13.1384 30.7733L9.03785 25.4125C8.73781 25.0125 8.80782 24.4524 9.20787 24.1424C9.36789 24.0224 9.55792 23.9524 9.75794 23.9524C10.038 23.9524 10.308 24.0824 10.478 24.3024L16.1588 31.7234L20.6994 33.2136L14.7686 25.4025C14.2885 24.7725 14.3485 23.8823 14.9086 23.2923C15.2187 22.7322 15.7687 22.3921 16.3588 22.3921C16.5388 22.3921 16.7089 22.4222 16.8789 22.4822L26.1401 25.7126L23.3597 21.8921L14.5086 18.7517C14.2785 18.6717 14.0985 18.5116 13.9985 18.2916C13.8985 18.0716 13.8785 17.8315 13.9585 17.6015C14.0885 17.2415 14.4286 17.0014 14.8086 17.0014C14.9086 17.0014 15.0086 17.0214 15.1086 17.0514L21.4695 19.2917L16.5988 12.5909C16.3388 12.2308 16.2388 11.8008 16.3088 11.3707C16.3788 10.9406 16.6088 10.5606 16.9689 10.3006C17.2489 10.0905 17.589 9.99052 17.929 9.99052C18.4591 9.99052 18.9492 10.2405 19.2592 10.6706L24.1298 17.3715L23.9598 10.6306C23.9498 10.1305 24.3399 9.72048 24.8399 9.70048C25.35 9.70048 25.75 10.1005 25.77 10.5806L26.0001 19.9218L28.7904 23.7923L28.5804 13.991C28.5604 13.2009 29.1305 12.5208 29.9406 12.3708C30.1906 12.2508 30.4507 12.1908 30.7007 12.1908C31.2308 12.1908 31.7108 12.4408 32.0109 12.8709L37.6016 20.922V16.2013L32.2809 8.45031C32.0009 8.04026 32.1009 7.48019 32.5109 7.19015C32.661 7.09013 32.841 7.03013 33.021 7.03013C33.321 7.03013 33.6011 7.18015 33.7711 7.42018L37.6016 12.9809V4.73983C37.6016 3.82971 38.3417 3.09961 39.2418 3.09961C40.1419 3.09961 40.882 3.83971 40.882 4.73983V13.0209L44.7125 7.47018C44.8826 7.23015 45.1626 7.08013 45.4626 7.08013C45.6427 7.08013 45.8227 7.14014 45.9727 7.24015C46.1727 7.38017 46.3028 7.5802 46.3528 7.82023C46.3928 8.06026 46.3528 8.30029 46.2127 8.50032L40.912 16.1913L40.892 20.972L46.4828 12.9209C46.7828 12.4908 47.2629 12.2408 47.793 12.2408C48.043 12.2408 48.303 12.3008 48.523 12.4108C49.3532 12.5709 49.9232 13.2509 49.9032 14.041L49.6932 23.8423L52.4636 20.0218L52.7136 10.6306C52.7236 10.1405 53.1236 9.75048 53.6137 9.75048C54.1338 9.76049 54.5338 10.1805 54.5138 10.6806L54.3438 17.4215L59.2145 10.7206C59.5245 10.3006 60.0246 10.0405 60.5446 10.0405C60.8947 10.0405 61.2247 10.1505 61.5047 10.3506C61.8648 10.6106 62.0948 10.9906 62.1648 11.4207C62.2348 11.8508 62.1248 12.2908 61.8748 12.6409L57.0042 19.3417L63.365 17.1015C63.465 17.0714 63.565 17.0514 63.665 17.0514C64.0451 17.0514 64.3851 17.2915 64.5152 17.6515C64.5952 17.8816 64.5852 18.1216 64.4751 18.3416C64.3651 18.5616 64.1851 18.7217 63.9651 18.8017L55.1539 21.9121L52.3335 25.7626L61.5848 22.5322C61.7548 22.4722 61.9348 22.4422 62.1048 22.4422C62.6949 22.4422 63.245 22.7822 63.545 23.3223C64.1251 23.9324 64.1851 24.8225 63.705 25.4526L57.7743 33.2636L62.2649 31.8034L67.9856 24.3524C68.1556 24.1224 68.4157 24.0024 68.7057 24.0024C68.9057 24.0024 69.0957 24.0624 69.2558 24.1924C69.6558 24.4924 69.7258 25.0625 69.4258 25.4626L65.3253 30.8233L73.1963 28.2629C73.3663 28.2129 73.5363 28.1829 73.7064 28.1829C74.4165 28.1829 75.0465 28.643 75.2666 29.3231C75.4066 29.7431 75.3666 30.1832 75.1665 30.5732C74.9665 30.9633 74.6265 31.2533 74.2064 31.3933L66.3354 33.9537L72.8062 35.8739C73.2863 36.0139 73.5563 36.524 73.4163 36.9941C73.3063 37.3741 72.9463 37.6442 72.5462 37.6442C72.4562 37.6442 72.3762 37.6342 72.2862 37.6041L63.335 34.9438L58.7844 36.404L68.1656 39.2344C68.9257 39.4644 69.3958 40.2145 69.2858 41.0246C69.3958 41.8547 68.9257 42.6148 68.1656 42.8348L58.7844 45.6652L63.275 47.1254L72.2862 44.4651C72.3662 44.4451 72.4562 44.425 72.5462 44.425C72.9463 44.425 73.2963 44.6951 73.4163 45.0751C73.5563 45.5552 73.2863 46.0553 72.8062 46.1953L66.3354 48.1155L74.2064 50.6759C75.0665 50.9559 75.5366 51.886 75.2566 52.7461C75.0365 53.4262 74.4064 53.8863 73.6964 53.8863C73.5263 53.8863 73.3563 53.8563 73.1863 53.8063L65.3153 51.2459L69.4158 56.6067C69.7158 57.0067 69.6458 57.5668 69.2458 57.8768C69.0857 57.9968 68.8957 58.0668 68.6957 58.0668C68.4157 58.0668 68.1456 57.9368 67.9756 57.7168L62.2949 50.2958L57.7543 48.8056L63.685 56.6167C64.1651 57.2467 64.1051 58.1369 63.545 58.7269C63.235 59.287 62.6849 59.627 62.0948 59.627C61.9148 59.627 61.7448 59.597 61.5748 59.537L52.3135 56.3066L55.0939 60.1271L63.9451 63.2675C64.1751 63.3475 64.3551 63.5076 64.4551 63.7276C64.5552 63.9476 64.5752 64.1876 64.4951 64.4177C64.3651 64.7777 64.0251 65.0178 63.645 65.0178C63.545 65.0178 63.445 64.9978 63.345 64.9678L56.9842 62.7275L61.8548 69.4283C62.3849 70.1584 62.2248 71.1886 61.4948 71.7286C61.2147 71.9387 60.8747 72.0387 60.5346 72.0387C60.0046 72.0387 59.5145 71.7886 59.2045 71.3586L54.3338 64.6577L54.5038 71.3986C54.5138 71.8987 54.1238 72.3087 53.6237 72.3287C53.1137 72.3287 52.7136 71.9287 52.6936 71.4486L52.4636 62.1074L49.6732 58.2369L49.8832 68.0382C49.9032 68.8283 49.3332 69.5083 48.5331 69.6584C48.283 69.7784 48.023 69.8384 47.7729 69.8384C47.2429 69.8384 46.7628 69.5884 46.4628 69.1583L40.872 61.1072V65.8279L46.1927 73.5789C46.3328 73.7789 46.3828 74.0189 46.3328 74.259C46.2927 74.499 46.1527 74.699 45.9527 74.839C45.8027 74.9391 45.6227 74.9991 45.4426 74.9991C45.1426 74.9991 44.8626 74.8491 44.6925 74.609L40.862 69.0583V77.3394C40.862 78.2495 40.1219 78.9796 39.2218 78.9796L39.2318 78.9196ZM32.1809 53.5062L31.9509 63.4075L37.5716 55.3165L37.5916 46.0653L32.1809 53.5062ZM40.872 55.2665L46.5028 63.4075L46.2928 53.5662L40.862 46.0653V55.2665H40.872ZM48.9331 51.576L58.2743 54.8564L52.3235 47.0154L43.5224 44.135L48.9331 51.576ZM26.1801 46.9754L20.1793 54.8464L29.4805 51.606L34.9313 44.125L26.1801 46.9654V46.9754ZM15.6787 41.0046L25.11 43.845L33.9211 41.0046L25.14 38.1542L15.6787 41.0046ZM44.5425 41.0046L53.2937 43.845L62.7749 41.0046L53.3137 38.1542L44.5325 41.0046H44.5425ZM48.9831 30.4032L43.5324 37.8842L52.2835 35.0438L58.2843 27.1728L48.9831 30.4132V30.4032ZM26.1301 35.0038L34.9313 37.8842L29.5205 30.4432L20.1793 27.1728L26.1301 35.0138V35.0038ZM32.1609 28.4529L37.5916 35.9539V26.7527L31.9609 18.6117L32.1709 28.4529H32.1609ZM40.892 26.6927L40.872 35.9439L46.2828 28.503L46.5128 18.6016L40.892 26.6927Z" fill="white"/>
<path d="M39.2318 3.19003C40.0819 3.19003 40.782 3.88012 40.782 4.74023V13.3314L41.1321 12.8213L44.7826 7.52059C44.9326 7.30057 45.1826 7.17055 45.4527 7.17055C45.6127 7.17055 45.7727 7.22056 45.9127 7.31057C46.2828 7.5606 46.3728 8.07067 46.1227 8.43071L40.822 16.1217L40.792 16.1717V21.2624L41.1421 20.7623L46.5628 12.9613C46.8428 12.5513 47.2929 12.3212 47.793 12.3212C48.033 12.3212 48.273 12.3712 48.4831 12.4812H48.503L48.5331 12.5013C49.2932 12.6413 49.8232 13.2814 49.8132 14.0215L49.6132 23.5127V24.1228L49.9632 23.6227L52.5536 20.0522L52.5936 20.0022V19.9422L52.8336 10.601C52.8436 10.1609 53.2037 9.8109 53.6637 9.8109C54.1138 9.8209 54.4638 10.1909 54.4538 10.641L54.2938 17.0719L54.2738 17.6919L54.6339 17.1919L59.3145 10.741C59.6045 10.341 60.0746 10.1009 60.5646 10.1009C60.8947 10.1009 61.2047 10.2009 61.4748 10.401C61.8048 10.641 62.0248 11.0011 62.0948 11.4111C62.1649 11.8212 62.0648 12.2312 61.8148 12.5613L57.1342 19.0121L56.7741 19.5122L57.3542 19.3021L63.425 17.1619C63.515 17.1319 63.605 17.1119 63.695 17.1119C64.0351 17.1119 64.3451 17.3319 64.4552 17.6519C64.6052 18.072 64.3851 18.532 63.9651 18.6821L55.1539 21.7925L55.0939 21.8125L55.0539 21.8625L52.4636 25.433L52.1035 25.933L52.6836 25.733L61.6548 22.6026C61.8148 22.5426 61.9748 22.5226 62.1448 22.5226C62.7049 22.5226 63.225 22.8426 63.495 23.3527V23.3727L63.525 23.3927C64.0551 23.9528 64.1151 24.7829 63.665 25.3729L57.9243 32.9339L57.5542 33.424L58.1343 33.234L62.3349 31.8738L62.3949 31.8538L62.4349 31.8038L68.1156 24.3828C68.2657 24.1828 68.5057 24.0628 68.7557 24.0628C68.9357 24.0628 69.1058 24.1228 69.2458 24.2328C69.5958 24.5028 69.6658 25.0129 69.3958 25.3629L65.4853 30.4736L65.1152 30.9637L65.7053 30.7737L73.2863 28.3133C73.4463 28.2633 73.6064 28.2333 73.7664 28.2333C74.4365 28.2333 75.0266 28.6634 75.2366 29.3035C75.3666 29.6935 75.3266 30.1136 75.1466 30.4836C74.9565 30.8537 74.6365 31.1237 74.2464 31.2537L66.6654 33.714L66.0754 33.9041L66.6654 34.0841L72.8363 35.9143C73.2663 36.0443 73.5064 36.4944 73.3763 36.9145C73.2763 37.2545 72.9563 37.4945 72.6062 37.4945C72.5262 37.4945 72.4462 37.4845 72.3762 37.4645L63.425 34.8042L63.365 34.7842L63.305 34.8042L59.1044 36.1644L58.5244 36.3544L59.1144 36.5344L68.2057 39.2748C68.9157 39.4848 69.3558 40.1949 69.2558 40.955V40.985V41.015C69.3558 41.7751 68.9157 42.4852 68.2057 42.7052L59.1144 45.4456L58.5244 45.6256L59.1044 45.8156L63.305 47.1758L63.365 47.1958L63.425 47.1758L72.3762 44.5155C72.4562 44.4955 72.5262 44.4855 72.6062 44.4855C72.9563 44.4855 73.2763 44.7255 73.3763 45.0655C73.5064 45.4956 73.2563 45.9457 72.8363 46.0657L66.6654 47.8959L66.0754 48.0759L66.6654 48.266L74.2464 50.7263C75.0566 50.9863 75.5066 51.8664 75.2366 52.6765C75.0266 53.3166 74.4365 53.7467 73.7664 53.7467C73.6064 53.7467 73.4463 53.7167 73.2863 53.6667L65.7053 51.2063L65.1152 51.0163L65.4853 51.5064L69.3958 56.6171C69.6658 56.9671 69.5958 57.4772 69.2458 57.7472C69.1058 57.8572 68.9357 57.9172 68.7557 57.9172C68.5057 57.9172 68.2657 57.7972 68.1156 57.5972L62.4349 50.1762L62.3949 50.1262L62.3349 50.1062L58.1343 48.746L57.5542 48.556L57.9243 49.0461L63.665 56.6071C64.1151 57.1971 64.0551 58.0372 63.525 58.5873L63.505 58.6073V58.6273C63.215 59.1374 62.6949 59.4574 62.1448 59.4574C61.9748 59.4574 61.8148 59.4274 61.6548 59.3774L52.6836 56.247L52.1035 56.047L52.4636 56.547L55.0539 60.1175L55.0939 60.1675L55.1539 60.1875L63.9651 63.2979C64.1651 63.3679 64.3351 63.518 64.4252 63.708C64.5152 63.898 64.5252 64.118 64.4552 64.3281C64.3451 64.6481 64.0351 64.8681 63.695 64.8681C63.605 64.8681 63.515 64.8481 63.425 64.8181L57.3542 62.6779L56.7741 62.4678L57.1342 62.9679L61.8148 69.4187C62.3149 70.1088 62.1648 71.079 61.4748 71.579C61.2047 71.769 60.8947 71.8791 60.5646 71.8791C60.0746 71.8791 59.6045 71.639 59.3145 71.239L54.6339 64.7881L54.2738 64.2881L54.2938 64.9081L54.4538 71.339C54.4538 71.559 54.3838 71.759 54.2338 71.9191C54.0838 72.0791 53.8838 72.1691 53.6437 72.1691C53.2137 72.1691 52.8436 71.8191 52.8336 71.379L52.6036 62.0378V61.9778L52.5636 61.9278L49.9732 58.3573L49.6132 57.8572V58.4673L49.8232 67.9585C49.8432 68.6986 49.3032 69.3387 48.5431 69.4787H48.5131L48.4931 69.4987C48.273 69.5988 48.033 69.6588 47.803 69.6588C47.3029 69.6588 46.8528 69.4287 46.5728 69.0187L41.1521 61.2177L40.802 60.7176V65.8083L40.832 65.8583L46.1327 73.5493C46.2528 73.7293 46.3028 73.9393 46.2628 74.1494C46.2228 74.3594 46.1027 74.5494 45.9227 74.6694C45.7827 74.7594 45.6327 74.8094 45.4627 74.8094C45.1926 74.8094 44.9426 74.6794 44.7926 74.4594L41.1421 69.1587L40.792 68.6486V77.2398C40.792 78.0899 40.1019 78.79 39.2418 78.79C38.3817 78.79 37.6916 78.0999 37.6916 77.2398V68.6486L37.3416 69.1587L33.6911 74.4594C33.5411 74.6794 33.291 74.8094 33.021 74.8094C32.861 74.8094 32.701 74.7594 32.561 74.6694C32.3809 74.5494 32.2609 74.3594 32.2209 74.1494C32.1809 73.9393 32.2209 73.7193 32.3509 73.5493L37.6516 65.8583L37.6816 65.8083V60.7176L37.3316 61.2177L31.9109 69.0187C31.6308 69.4287 31.1808 69.6588 30.6807 69.6588C30.4407 69.6588 30.2006 69.6088 29.9906 69.4987H29.9706L29.9406 69.4787C29.1805 69.3387 28.6504 68.6986 28.6604 67.9585L28.8605 58.4673V57.8572L28.5104 58.3573L25.9201 61.9278L25.8801 61.9778V62.0378L25.64 71.379C25.63 71.8191 25.27 72.1691 24.8099 72.1691C24.5899 72.1691 24.3899 72.0791 24.2399 71.9191C24.0898 71.759 24.0098 71.559 24.0198 71.339L24.1799 64.9081L24.1999 64.2881L23.8398 64.7881L19.1592 71.239C18.8692 71.639 18.3991 71.8791 17.909 71.8791C17.579 71.8791 17.2689 71.7791 16.9989 71.579C16.3088 71.079 16.1588 70.1088 16.6589 69.4187L21.3395 62.9679L21.6995 62.4678L21.1195 62.6779L15.0486 64.8181C14.9586 64.8481 14.8686 64.8681 14.7786 64.8681C14.4386 64.8681 14.1285 64.6481 14.0185 64.3281C13.9485 64.128 13.9585 63.908 14.0485 63.708C14.1385 63.518 14.3086 63.3679 14.5086 63.2979L23.3197 60.1875L23.3797 60.1675L23.4198 60.1175L26.0101 56.547L26.3701 56.047L25.7901 56.247L16.8189 59.3774C16.6589 59.4374 16.4988 59.4574 16.3288 59.4574C15.7687 59.4574 15.2487 59.1374 14.9786 58.6273V58.6073L14.9486 58.5873C14.4186 58.0272 14.3586 57.1971 14.8086 56.6071L20.5494 49.0461L20.9194 48.556L20.3393 48.746L16.1388 50.1062L16.0788 50.1262L16.0388 50.1762L10.358 57.5972C10.208 57.7972 9.96799 57.9172 9.71795 57.9172C9.53793 57.9172 9.3679 57.8572 9.22788 57.7472C8.87784 57.4772 8.80783 56.9671 9.07787 56.6171L12.9884 51.5064L13.3584 51.0163L12.7683 51.2063L5.18736 53.6667C5.02734 53.7167 4.86731 53.7467 4.70729 53.7467C4.0372 53.7467 3.44712 53.3166 3.2371 52.6765C2.97706 51.8664 3.41712 50.9863 4.22722 50.7263L11.8082 48.266L12.3983 48.0759L11.8082 47.8959L5.63741 46.0657C5.20736 45.9357 4.96732 45.4856 5.09734 45.0655C5.19735 44.7255 5.5174 44.4855 5.86745 44.4855C5.94746 44.4855 6.02746 44.4955 6.09747 44.5155L15.0486 47.1758L15.1087 47.1958L15.1687 47.1758L19.3692 45.8156L19.9493 45.6256L19.3592 45.4456L10.268 42.7052C9.55793 42.4952 9.11787 41.7851 9.21789 41.025V40.995V40.965C9.11787 40.2049 9.55793 39.4948 10.268 39.2848L19.3592 36.5444L19.9493 36.3644L19.3692 36.1744L15.1687 34.8142L15.1087 34.7942L15.0486 34.8142L6.09747 37.4745C6.01746 37.4945 5.94746 37.5045 5.86745 37.5045C5.5174 37.5045 5.19735 37.2645 5.09734 36.9245C4.96732 36.4944 5.21736 36.0444 5.63741 35.9243L11.8082 34.0941L12.3983 33.9141L11.8082 33.724L4.22722 31.2637C3.83717 31.1337 3.51714 30.8637 3.32711 30.4936C3.13709 30.1236 3.10708 29.7035 3.2371 29.3135C3.44712 28.6734 4.0372 28.2433 4.70729 28.2433C4.86731 28.2433 5.02734 28.2733 5.18736 28.3233L12.7683 30.7837L13.3584 30.9737L12.9884 30.4836L9.07787 25.3729C8.80783 25.0229 8.87784 24.5128 9.22788 24.2428C9.3679 24.1328 9.53793 24.0728 9.71795 24.0728C9.96799 24.0728 10.208 24.1928 10.358 24.3928L16.0388 31.8138L16.0788 31.8638L16.1388 31.8838L20.3393 33.244L20.9194 33.434L20.5494 32.9439L14.8086 25.3829C14.3586 24.7929 14.4186 23.9528 14.9486 23.4027L14.9686 23.3827V23.3627C15.2587 22.8526 15.7788 22.5326 16.3288 22.5326C16.4988 22.5326 16.6589 22.5626 16.8189 22.6126L25.7901 25.743L26.3701 25.943L26.0101 25.443L23.4198 21.8725L23.3797 21.8225L23.3197 21.8025L14.5086 18.6921C14.0885 18.542 13.8685 18.082 14.0185 17.6619C14.1285 17.3419 14.4386 17.1219 14.7786 17.1219C14.8686 17.1219 14.9586 17.1419 15.0486 17.1719L21.1195 19.3121L21.6995 19.5222L21.3395 19.0221L16.6589 12.5713C16.4188 12.2412 16.3188 11.8312 16.3788 11.4211C16.4388 11.0111 16.6589 10.651 16.9989 10.411C17.2689 10.221 17.579 10.1109 17.909 10.1109C18.3991 10.1109 18.8692 10.351 19.1592 10.751L23.8398 17.2019L24.1999 17.7019L24.1799 17.0819L24.0198 10.651C24.0098 10.2009 24.3599 9.8309 24.8299 9.8209C25.26 9.8209 25.63 10.1709 25.64 10.611L25.8701 19.9522V20.0122L25.9101 20.0622L28.5004 23.6327L28.8605 24.1328V23.5227L28.6504 14.0315C28.6304 13.2914 29.1705 12.6513 29.9306 12.5113H29.9606L29.9806 12.4912C30.2006 12.3912 30.4407 12.3312 30.6707 12.3312C31.1708 12.3312 31.6208 12.5613 31.9009 12.9713L37.3216 20.7723L37.6716 21.2724V16.1817L37.6416 16.1317L32.3409 8.44072C32.0909 8.07067 32.1809 7.5706 32.551 7.32057C32.691 7.23056 32.841 7.18055 33.011 7.18055C33.2811 7.18055 33.5311 7.31057 33.6811 7.5306L37.3316 12.8313L37.6816 13.3414V4.74023C37.6816 3.89012 38.3717 3.19003 39.2318 3.19003ZM37.6816 36.2444V26.6931L37.6516 26.6431L32.2109 18.8121L31.8509 18.292V18.9321L32.0709 28.4634V28.5234L32.1109 28.5734L37.3416 35.7743L37.6916 36.2544M40.772 36.2444L41.1221 35.7643L46.3528 28.5634L46.3928 28.5134V28.4534L46.5928 18.9221V18.282L46.2428 18.8021L40.802 26.6231L40.772 26.6731V36.2244M43.2824 38.0646L43.8424 37.8846L52.3136 35.1342L52.3736 35.1142L52.4136 35.0642L58.1743 27.4732L58.5544 26.9632L57.9543 27.1732L48.9531 30.3136L48.8931 30.3336L48.8531 30.3836L43.6224 37.5846L43.2724 38.0646M35.1713 38.0646L34.8213 37.5846L29.5906 30.3836L29.5506 30.3336L29.4906 30.3136L20.4894 27.1732L19.8893 26.9632L20.2693 27.4732L26.0301 35.0642L26.0701 35.1142L26.1301 35.1342L34.6012 37.8846L35.1613 38.0646M53.3237 43.9554L53.3837 43.9354L62.5049 41.185L63.115 41.005L62.5049 40.825L53.3837 38.0746L53.3237 38.0546L53.2637 38.0746L44.7926 40.825L44.2325 41.005L44.7926 41.185L53.2637 43.9354L53.3237 43.9554ZM25.13 43.9554L25.19 43.9354L33.6611 41.185L34.2212 41.005L33.6611 40.825L25.19 38.0746L25.13 38.0546L25.07 38.0746L15.9488 40.825L15.3387 41.005L15.9488 41.185L25.07 43.9354L25.13 43.9554ZM58.5544 55.0468L58.1743 54.5368L52.4136 46.9458L52.3736 46.8958L52.3136 46.8758L43.8424 44.1254L43.2824 43.9454L43.6324 44.4255L48.8631 51.6264L48.9031 51.6764L48.9631 51.6964L57.9643 54.8368L58.5644 55.0468M19.8993 55.0468L20.4994 54.8368L29.5006 51.6964L29.5606 51.6764L29.6006 51.6264L34.8313 44.4255L35.1813 43.9454L34.6212 44.1254L26.1501 46.8758L26.0901 46.8958L26.0501 46.9458L20.2893 54.5368L19.9093 55.0468M31.8509 63.728L32.2109 63.2079L37.6516 55.3769L37.6816 55.3269V45.7756L37.3316 46.2557L32.1009 53.4566L32.0609 53.5066V53.5667L31.8609 63.0979V63.738M46.6028 63.728V63.0879L46.3828 53.5567V53.4966L46.3428 53.4466L41.1121 46.2457L40.762 45.7656V55.3169L40.792 55.3669L46.2328 63.1879L46.5928 63.708M39.2318 3C38.2717 3 37.4916 3.7801 37.4916 4.74023V12.7113L33.8411 7.41058C33.6511 7.13054 33.3311 6.98052 33.021 6.98052C32.821 6.98052 32.631 7.04053 32.4509 7.16055C32.0009 7.47059 31.8809 8.10067 32.1909 8.55073L37.4916 16.2417V20.6523L32.0709 12.8513C31.7408 12.3712 31.2208 12.1312 30.6807 12.1312C30.4207 12.1312 30.1506 12.1912 29.9006 12.3112C29.0805 12.4612 28.4504 13.1613 28.4704 14.0315L28.6704 23.5227L26.0801 19.9522L25.8501 10.611C25.8401 10.0709 25.39 9.64087 24.8499 9.64087H24.8199C24.2699 9.65088 23.8298 10.1109 23.8498 10.671L24.0098 17.1019L19.3292 10.651C18.9892 10.1809 18.4591 9.93091 17.919 9.93091C17.569 9.93091 17.2089 10.0409 16.8989 10.261C16.1188 10.821 15.9488 11.9112 16.5188 12.6913L21.1995 19.1421L15.1287 17.0018C15.0186 16.9618 14.9086 16.9418 14.7986 16.9418C14.3886 16.9418 13.9985 17.2019 13.8585 17.6119C13.6785 18.132 13.9485 18.7021 14.4686 18.8921L23.2797 22.0025L25.8701 25.573L16.8989 22.4426C16.7189 22.3826 16.5288 22.3525 16.3488 22.3525C15.7187 22.3525 15.1387 22.7126 14.8286 23.2827C14.2485 23.8927 14.1585 24.8229 14.6786 25.513L20.4194 33.074L16.2188 31.7138L10.5381 24.2928C10.338 24.0328 10.048 23.9028 9.74796 23.9028C9.53793 23.9028 9.3179 23.9728 9.13787 24.1128C8.69782 24.4528 8.6178 25.0729 8.94785 25.513L12.8584 30.6236L5.27737 28.1633C5.09734 28.1033 4.91732 28.0733 4.73729 28.0733C4.0072 28.0733 3.32711 28.5434 3.08708 29.2735C2.78704 30.1836 3.2871 31.1637 4.20723 31.4637L11.7882 33.9241L5.61741 35.7543C5.08734 35.9143 4.7873 36.4644 4.94732 36.9945C5.07734 37.4245 5.47739 37.7146 5.90745 37.7146C5.99746 37.7146 6.09747 37.7046 6.19748 37.6746L15.1487 35.0142L19.3492 36.3744L10.258 39.1148C9.42792 39.3648 8.95785 40.1749 9.06787 41.005C8.95785 41.8351 9.42792 42.6452 10.258 42.8952L19.3492 45.6356L15.1487 46.9958L6.19748 44.3354C6.09747 44.3054 6.00746 44.2954 5.90745 44.2954C5.47739 44.2954 5.07734 44.5755 4.94732 45.0155C4.7873 45.5456 5.08734 46.1057 5.61741 46.2557L11.7882 48.0859L4.20723 50.5463C3.29711 50.8463 2.79704 51.8264 3.08708 52.7365C3.32711 53.4666 4.0072 53.9367 4.73729 53.9367C4.91732 53.9367 5.09734 53.9067 5.27737 53.8467L12.8584 51.3864L8.94785 56.497C8.6078 56.9371 8.69782 57.5672 9.13787 57.8972C9.3179 58.0372 9.53793 58.1073 9.74796 58.1073C10.048 58.1073 10.348 57.9772 10.5381 57.7172L16.2188 50.2962L20.4194 48.936L14.6786 56.497C14.1585 57.1871 14.2485 58.1173 14.8286 58.7273C15.1387 59.2974 15.7187 59.6575 16.3488 59.6575C16.5288 59.6575 16.7189 59.6275 16.8989 59.5674L25.8701 56.437L23.2797 60.0075L14.4686 63.1179C13.9485 63.2979 13.6785 63.878 13.8585 64.3981C13.9985 64.8081 14.3886 65.0682 14.7986 65.0682C14.9086 65.0682 15.0186 65.0482 15.1287 65.0082L21.1995 62.8679L16.5188 69.3187C15.9588 70.0988 16.1288 71.179 16.8989 71.749C17.2089 71.9691 17.569 72.0791 17.919 72.0791C18.4591 72.0791 18.9892 71.8291 19.3292 71.359L24.0098 64.9081L23.8498 71.339C23.8398 71.8891 24.2699 72.3491 24.8199 72.3591H24.8499C25.39 72.3591 25.8401 71.9291 25.8501 71.389L26.0801 62.0478L28.6704 58.4773L28.4704 67.9685C28.4504 68.8287 29.0805 69.5288 29.9006 69.6888C30.1506 69.8088 30.4107 69.8688 30.6807 69.8688C31.2208 69.8688 31.7408 69.6188 32.0709 69.1487L37.4916 61.3477V65.7583L32.1909 73.4493C31.8809 73.8993 31.9909 74.5294 32.4509 74.8394C32.621 74.9595 32.821 75.0195 33.021 75.0195C33.3411 75.0195 33.6511 74.8695 33.8411 74.5894L37.4916 69.2887V77.2598C37.4916 78.2199 38.2717 79 39.2318 79C40.192 79 40.9721 78.2199 40.9721 77.2598V69.2887L44.6225 74.5894C44.8126 74.8695 45.1326 75.0195 45.4426 75.0195C45.6427 75.0195 45.8327 74.9595 46.0127 74.8394C46.4628 74.5294 46.5828 73.8993 46.2728 73.4493L40.9721 65.7583V61.3477L46.3928 69.1487C46.7228 69.6288 47.2529 69.8688 47.783 69.8688C48.043 69.8688 48.313 69.8088 48.5631 69.6888C49.3832 69.5388 50.0133 68.8387 49.9932 67.9685L49.7932 58.4773L52.3836 62.0478L52.6136 71.389C52.6236 71.9291 53.0736 72.3591 53.6137 72.3591H53.6437C54.1938 72.3491 54.6339 71.8891 54.6139 71.329L54.4538 64.8981L59.1345 71.349C59.4745 71.8191 60.0046 72.0691 60.5446 72.0691C60.8947 72.0691 61.2547 71.9591 61.5648 71.739C62.3449 71.179 62.5149 70.0888 61.9448 69.3087L57.2642 62.8579L63.335 64.9982C63.445 65.0382 63.555 65.0582 63.665 65.0582C64.0751 65.0582 64.4652 64.7981 64.6052 64.3881C64.7852 63.868 64.5152 63.2979 63.9951 63.1079L55.1839 59.9975L52.5936 56.427L61.5648 59.5574C61.7448 59.6174 61.9348 59.6475 62.1148 59.6475C62.7449 59.6475 63.325 59.2874 63.635 58.7173C64.2151 58.1073 64.3051 57.1771 63.7851 56.487L58.0443 48.926L62.2449 50.2862L67.9256 57.7072C68.1256 57.9672 68.4157 58.0973 68.7157 58.0973C68.9257 58.0973 69.1458 58.0272 69.3258 57.8872C69.7659 57.5472 69.8459 56.9271 69.5158 56.487L65.6053 51.3764L73.1863 53.8367C73.3663 53.8967 73.5463 53.9267 73.7264 53.9267C74.4565 53.9267 75.1366 53.4566 75.3766 52.7265C75.6766 51.8164 75.1766 50.8363 74.2564 50.5363L66.6755 48.0759L72.8463 46.2457C73.3763 46.0857 73.6764 45.5356 73.5164 45.0055C73.3863 44.5755 72.9863 44.2854 72.5562 44.2854C72.4662 44.2854 72.3662 44.2954 72.2662 44.3254L63.315 46.9858L59.1144 45.6256L68.2057 42.8852C69.0358 42.6352 69.5058 41.8251 69.3958 40.995C69.5058 40.1649 69.0358 39.3548 68.2057 39.1048L59.1144 36.3644L63.315 35.0042L72.2662 37.6646C72.3662 37.6946 72.4562 37.7046 72.5562 37.7046C72.9863 37.7046 73.3863 37.4245 73.5164 36.9845C73.6764 36.4544 73.3763 35.8943 72.8463 35.7443L66.6755 33.9141L74.2564 31.4537C75.1666 31.1537 75.6666 30.1736 75.3766 29.2635C75.1366 28.5334 74.4565 28.0633 73.7264 28.0633C73.5463 28.0633 73.3663 28.0933 73.1863 28.1533L65.6053 30.6136L69.5158 25.503C69.8559 25.0629 69.7659 24.4328 69.3258 24.1028C69.1458 23.9628 68.9257 23.8928 68.7157 23.8928C68.4157 23.8928 68.1156 24.0328 67.9256 24.2828L62.2449 31.7038L58.0443 33.064L63.7851 25.503C64.3051 24.8129 64.2151 23.8827 63.635 23.2727C63.325 22.7026 62.7449 22.3425 62.1148 22.3425C61.9348 22.3425 61.7448 22.3725 61.5648 22.4326L52.5936 25.563L55.1839 21.9925L63.9951 18.8821C64.5152 18.7021 64.7852 18.132 64.6052 17.6019C64.4652 17.1919 64.0751 16.9318 63.665 16.9318C63.555 16.9318 63.445 16.9518 63.335 16.9918L57.2642 19.1321L61.9448 12.6813C62.5049 11.9012 62.3349 10.821 61.5648 10.251C61.2547 10.0309 60.8947 9.92091 60.5446 9.92091C60.0046 9.92091 59.4745 10.1709 59.1345 10.641L54.4538 17.0919L54.6139 10.661C54.6239 10.1109 54.1938 9.65088 53.6437 9.64087H53.6137C53.0736 9.64087 52.6236 10.0709 52.6136 10.611L52.3836 19.9522L49.7932 23.5227L49.9932 14.0315C50.0133 13.1713 49.3832 12.4712 48.5631 12.3112C48.313 12.1912 48.053 12.1312 47.783 12.1312C47.2429 12.1312 46.7228 12.3812 46.3928 12.8513L40.9721 20.6523V16.2417L46.2728 8.55073C46.5828 8.10067 46.4728 7.47059 46.0127 7.16055C45.8427 7.04053 45.6427 6.98052 45.4426 6.98052C45.1226 6.98052 44.8126 7.13054 44.6225 7.41058L40.9721 12.7113V4.74023C40.9721 3.7801 40.192 3 39.2318 3ZM37.4916 35.6543L32.2609 28.4534L32.0609 18.9221L37.5016 26.7531V35.6543H37.4916ZM40.9621 35.6543V26.7531L46.4028 18.9321L46.2028 28.4634L40.9721 35.6643L40.9621 35.6543ZM43.7824 37.6946L49.0131 30.4936L58.0143 27.3532L52.2535 34.9442L43.7824 37.6946ZM34.6712 37.6946L26.2001 34.9442L20.4394 27.3532L29.4405 30.4936L34.6712 37.6946ZM53.3237 43.7554L44.8526 41.005L53.3237 38.2546L62.4449 41.005L53.3237 43.7554ZM25.13 43.7554L16.0088 41.005L25.13 38.2546L33.6011 41.005L25.13 43.7554ZM58.0143 54.6568L49.0131 51.5164L43.7824 44.3154L52.2535 47.0658L58.0143 54.6568ZM20.4394 54.6568L26.2001 47.0658L34.6712 44.3154L29.4405 51.5164L20.4394 54.6568ZM32.0509 63.0879L32.2509 53.5567L37.4816 46.3557V55.2569L32.0409 63.0879H32.0509ZM46.4028 63.0879L40.9621 55.2669V46.3657L46.1927 53.5667L46.3928 63.0979L46.4028 63.0879Z" fill="#007AFF"/>
</g>
<defs>
<filter id="filter0_d_210_4527" x="0.73" y="0.3" width="78.4" height="81.4" filterUnits="userSpaceOnUse" color-interpolation-filters="sRGB">
<feFlood flood-opacity="0" result="BackgroundImageFix"/>
<feColorMatrix in="SourceAlpha" type="matrix" values="0 0 0 0 0 0 0 0 0 0 0 0 0 0 0 0 0 0 127 0" result="hardAlpha"/>
<feMorphology radius="1" operator="dilate" in="SourceAlpha" result="effect1_dropShadow_210_4527"/>
<feOffset dx="0.43"/>
<feGaussianBlur stdDeviation="0.85"/>
<feComposite in2="hardAlpha" operator="out"/>
<feColorMatrix type="matrix" values="0 0 0 0 0.132578 0 0 0 0 0.132578 0 0 0 0 0.253333 0 0 0 0.54 0"/>
<feBlend mode="normal" in2="BackgroundImageFix" result="effect1_dropShadow_210_4527"/>
<feBlend mode="normal" in="SourceGraphic" in2="effect1_dropShadow_210_4527" result="shape"/>
</filter>
</defs>
</svg>
