<svg width="50" height="85" viewBox="0 0 50 85" fill="none" xmlns="http://www.w3.org/2000/svg">
<path d="M49.9536 26.2385C49.8868 26.7418 49.7309 27.2563 49.5193 27.7596C48.3946 30.4102 45.4103 32.8595 41.7468 32.5576C41.5798 32.5576 41.4016 32.5352 41.2345 32.5016C40.3994 32.3786 39.709 32.1549 39.1634 31.8865C38.1278 31.372 37.5487 30.6451 37.2035 29.9181C36.8026 29.0346 36.7804 28.1398 36.8138 27.5918C36.836 27.2451 36.8806 27.0438 36.8806 27.0438C36.8806 27.0438 37.1812 26.205 37.738 25.1537C38.4396 23.8451 39.5531 22.2234 41.0118 21.5524C41.2902 21.4182 41.5797 21.3287 41.8804 21.2728C45.0651 20.7359 49.0294 21.0714 49.8868 24.5721C50.0204 25.0977 50.0315 25.6681 49.9425 26.2497L49.9536 26.2385Z" fill="#E8F5FF"/>
<g style="mix-blend-mode:multiply" opacity="0.57">
<path d="M39.1522 31.8866C39.709 32.1662 40.3882 32.3787 41.2345 32.5018C41.4015 32.5241 41.5797 32.5465 41.7467 32.5577C45.4103 32.8485 48.3946 30.4103 49.5193 27.7485C48.5728 28.7439 44.4526 32.4906 43.6843 31.238C41.602 27.8603 38.8849 24.4827 37.8939 24.8183C36.6356 25.2433 40.4105 32.1327 39.1411 31.8755L39.1522 31.8866Z" fill="#E1E8ED"/>
</g>
<path d="M49.6084 60.2154C49.6084 68.9614 43.0385 76.3877 33.8851 79.1054C33.8851 79.1054 33.8629 79.1054 33.8517 79.1054C31.4465 79.8212 28.8742 80.2015 26.1905 80.2015C13.2512 80.2015 2.7616 71.2542 2.7616 60.2042C2.7616 49.1543 12.4828 40.878 24.7652 40.2517C25.2329 40.2293 25.7117 40.2182 26.1905 40.2182C28.5958 40.2182 30.9231 40.5313 33.1168 41.1129C35.9452 41.851 38.5286 43.0366 40.7891 44.58C46.1787 48.2372 49.6195 53.874 49.6195 60.2042L49.6084 60.2154Z" fill="#E8F5FF"/>
<path d="M40.778 47.745C38.4507 48.5727 36.6245 51.3463 33.5511 52.4871C28.7072 54.2766 23.0615 53.695 21.1239 53.1917C15.701 51.7825 9.77692 60.7522 16.0239 68.939C22.2709 77.137 35.6668 79.0495 42.2033 72.8199C48.7398 66.5903 47.5149 61.0654 47.4481 57.8667C47.3813 54.668 43.1053 46.9174 40.778 47.7562V47.745Z" fill="#F2F9FF"/>
<g style="mix-blend-mode:multiply">
<path d="M6.58105 68.1785C12.171 82.3041 32.8495 79.2732 33.8517 79.1166C31.4465 79.8324 28.8742 80.2127 26.1906 80.2127C13.2512 80.2127 2.7616 71.2654 2.7616 60.2154C2.7616 49.1655 12.4828 40.8892 24.7652 40.2629C27.7829 40.576 30.7004 40.8668 33.1056 41.1241C35.934 41.8622 38.5175 43.0477 40.778 44.5912C40.2657 45.7319 38.2391 48.8971 31.3797 50.8207C22.9056 53.1918 13.0173 48.7069 11.2357 48.651C9.44286 48.5839 1.99325 56.5917 6.58105 68.1785Z" fill="#E1E8ED"/>
</g>
<path d="M39.0965 50.1163C39.0965 48.6289 41.1343 48.0696 42.4149 48.7743C43.6954 49.4789 46.7466 53.2591 47.0027 60.1038C47.2254 66.1544 43.1164 73.2899 38.4618 74.2517C38.4618 74.2517 44.642 65.9978 43.5618 60.9314C42.4817 55.865 39.0965 51.6038 39.0965 50.1163Z" fill="white"/>
<path d="M43.406 35.5326C43.406 42.0194 38.4062 47.522 31.4466 49.5352C31.4466 49.5352 31.4354 49.5352 31.4243 49.5352C29.5981 50.0608 27.6383 50.3516 25.6005 50.3516C21.4692 50.3516 17.6609 49.1884 14.6432 47.22C12.5498 45.8668 10.8349 44.1332 9.64341 42.1312C9.53205 41.9411 9.4207 41.751 9.33162 41.572C9.08664 41.147 8.8862 40.7109 8.71916 40.2523C8.11785 38.7648 7.79492 37.1879 7.79492 35.5326C7.79492 27.659 15.1888 21.2057 24.5315 20.7472C24.8878 20.736 25.2553 20.7136 25.6228 20.7136C27.449 20.7136 29.2306 20.9485 30.8898 21.3847C33.0278 21.9215 35.0099 22.805 36.7248 23.9458C40.8226 26.6636 43.4394 30.8464 43.4394 35.5326H43.406Z" fill="#E8F5FF"/>
<path d="M36.6913 26.2948C34.2192 30.9026 27.4934 31.4507 26.0124 31.0816C21.8923 30.0415 24.2753 34.0566 29.0301 40.1296C33.7849 46.2026 33.0277 49.7367 38.1723 45.2966C42.3815 41.673 42.9048 36.0026 42.4149 33.6763C41.4238 28.9902 37.571 24.6283 36.6913 26.2836V26.2948Z" fill="#F2F9FF"/>
<g style="mix-blend-mode:multiply" opacity="0.57">
<path d="M10.6789 41.4381C14.9326 51.9065 30.6559 49.6697 31.4242 49.5466C29.598 50.0723 27.6382 50.3631 25.5892 50.3631C15.7455 50.3631 7.77255 43.7197 7.77255 35.5441C7.77255 31.7862 9.45401 28.3415 12.2379 25.7356C12.5274 25.4672 12.8169 25.2099 13.1287 24.9527C16.1019 22.5257 20.0883 20.96 24.5091 20.7475C26.803 20.9823 29.0301 21.1948 30.8563 21.385C33.0054 21.933 34.9764 22.8165 36.6913 23.9573C36.2904 24.7961 34.7537 27.156 29.5312 28.5764C28.8185 28.7665 28.0947 28.9007 27.3709 28.979C21.5025 29.6389 15.4226 26.9994 14.2088 26.9659C13.9416 26.9659 13.4962 27.1784 13.0062 27.6145C10.9684 29.3704 7.87277 34.5487 10.6678 41.4493L10.6789 41.4381Z" fill="#E1E8ED"/>
</g>
<path d="M36.914 29.3816C36.914 28.2743 37.4819 27.6928 38.4618 28.2184C39.4417 28.7441 41.2345 30.3658 41.4238 35.4434C41.5909 39.9282 38.4618 45.2183 34.9319 45.9341C34.9319 45.9341 39.631 39.8052 38.807 36.0585C37.983 32.3118 36.9251 30.4776 36.9251 29.3704L36.914 29.3816Z" fill="white"/>
<path d="M36.2013 18.2972C36.2013 19.0242 36.1234 19.7064 35.9564 20.3551C35.9007 20.6012 35.8339 20.8472 35.7448 21.0821C35.0989 22.9834 33.7627 24.4149 31.9921 25.3768C30.2105 26.3386 27.9945 26.8307 25.5893 26.8307C19.7209 26.8307 14.9661 23.9452 14.9661 18.2972C14.9661 17.6933 15.0217 17.1117 15.122 16.5301C15.1999 16.0716 15.3224 15.613 15.4783 15.1768C15.6119 14.7518 15.7901 14.338 15.9794 13.9354C17.6831 10.4683 21.3467 8.06372 25.5781 8.06372C28.7851 8.06372 31.6581 9.42819 33.5956 11.5979C33.8183 11.8328 34.0077 12.0676 34.197 12.3249C35.4441 14.0025 36.1902 16.0604 36.1902 18.286L36.2013 18.2972Z" fill="#F2F9FF"/>
<g style="mix-blend-mode:multiply" opacity="0.57">
<path d="M19.977 24.8742C16.1019 22.9505 16.7255 16.721 17.5272 16.24C18.329 15.7591 23.9301 14.3611 26.469 14.1262C28.607 13.9361 32.9386 12.8289 34.2081 12.3256C34.0188 12.0684 33.8295 11.8335 33.6068 11.5986C32.9164 11.4197 32.1035 11.2966 32.1035 11.2966L17.4381 14.7078C16.9927 13.567 16.0685 13.8802 15.9682 13.9137C15.7678 14.3164 15.6119 14.7414 15.4671 15.1664C15.3781 15.4124 15.3113 15.6696 15.2444 15.9269C15.2222 16.0052 15.211 16.0835 15.1888 16.1729C15.1665 16.2848 15.1331 16.4078 15.1108 16.5196H15.1219C15.0217 17.09 14.9438 17.6828 14.9438 18.2867C14.9438 23.9347 19.6986 26.8202 25.567 26.8202C27.9722 26.8202 30.1882 26.3281 31.9699 25.3663C31.7026 25.4334 24.5759 27.1558 19.9547 24.8742H19.977Z" fill="#BED9ED"/>
</g>
<path d="M23.0838 17.2232C23.4589 17.2232 23.763 16.9178 23.763 16.541C23.763 16.1642 23.4589 15.8588 23.0838 15.8588C22.7086 15.8588 22.4045 16.1642 22.4045 16.541C22.4045 16.9178 22.7086 17.2232 23.0838 17.2232Z" fill="#4F4424"/>
<path d="M31.8697 15.669C32.2448 15.669 32.5489 15.3636 32.5489 14.9868C32.5489 14.61 32.2448 14.3046 31.8697 14.3046C31.4945 14.3046 31.1904 14.61 31.1904 14.9868C31.1904 15.3636 31.4945 15.669 31.8697 15.669Z" fill="#4F4424"/>
<g style="mix-blend-mode:multiply" opacity="0.57">
<path d="M35.9675 20.3553C35.9118 20.6013 35.845 20.8474 35.7559 21.0822C35.3884 20.8138 34.8094 20.4783 34.2304 20.4559C33.2838 20.4112 28.3397 19.5612 27.9277 19.3823C27.5268 19.2033 27.2373 18.1184 27.3487 17.2349C27.46 16.3514 27.7384 16.0717 27.7384 16.0717C27.7384 16.0717 30.6225 18.3869 32.6603 18.9125C34.2749 19.3375 35.5221 20.0757 35.9675 20.3665V20.3553Z" fill="#BED9ED"/>
</g>
<path d="M39.1857 17.5252C39.2191 17.7041 38.4953 17.9837 37.3929 18.2745C37.3483 18.2745 37.2927 18.2969 37.237 18.308C36.4464 18.5205 35.4887 18.7107 34.4754 18.8784L34.3306 18.912C34.0634 18.9567 33.7961 19.0015 33.5178 19.035C33.0055 19.1245 32.4933 19.1804 32.0033 19.2363C31.8808 19.2363 31.7806 19.2587 31.6581 19.2699C31.6359 19.2699 31.6025 19.2699 31.5802 19.2699C30.823 19.3482 30.1103 19.4153 29.509 19.4265C29.2863 19.4265 29.0747 19.4265 28.8854 19.4041C28.1839 19.337 27.6939 19.0909 27.5937 18.487C27.4935 17.9054 27.4267 17.212 27.538 16.6416V16.6081C27.6382 16.1271 27.861 15.7357 28.2841 15.5903C28.44 15.5232 28.6182 15.5008 28.8297 15.512C29.0858 15.512 29.5424 15.5679 30.1549 15.6462C30.2662 15.6462 30.3776 15.6686 30.5112 15.691C31.2684 15.7916 32.1926 15.9258 33.1503 16.0712C33.2394 16.0712 33.3285 16.0936 33.4287 16.1048C34.2193 16.239 35.0322 16.3732 35.7782 16.5186C35.8451 16.5186 35.9007 16.541 35.9675 16.5521C36.8695 16.7311 37.6824 16.8988 38.2614 17.0778C38.8294 17.2567 39.1745 17.3909 39.1968 17.5363L39.1857 17.5252Z" fill="#ED6B00"/>
<path d="M29.4978 19.4273C29.2751 19.4273 29.0635 19.4273 28.8742 19.4049C28.6849 18.6332 28.8074 17.4588 28.8074 17.4588C28.8742 18.499 29.2194 19.1029 29.4866 19.4273H29.4978Z" fill="#BD4500"/>
<path d="M30.4989 15.6687C30.3211 15.87 30.1434 16.1832 30.0211 16.6976C30.0211 16.6976 29.9989 16.116 30.1434 15.6239C30.2545 15.6239 30.3656 15.6463 30.4989 15.6687Z" fill="#BD4500"/>
<path d="M31.9921 19.2259C31.8696 19.2259 31.7694 19.2482 31.6469 19.2594C31.4242 18.8344 31.4465 18.2081 31.4465 18.2081C31.5467 18.7226 31.7805 19.0469 31.9921 19.2259Z" fill="#BD4500"/>
<path d="M33.4175 16.0835C33.1613 16.4078 32.7939 17.1348 32.7939 17.1348C32.805 16.8664 32.9943 16.3966 33.1391 16.0499C33.2281 16.0499 33.3172 16.0723 33.4175 16.0835Z" fill="#BD4500"/>
<path d="M34.4748 18.8787L34.3303 18.9123C34.1081 18.409 34.3303 17.8051 34.3303 17.8051C34.3192 18.3307 34.3748 18.6774 34.4637 18.8787H34.4748Z" fill="#BD4500"/>
<path d="M35.8226 17.4582C35.8226 17.4582 35.8226 16.9214 35.7671 16.5075C35.8337 16.5075 35.8893 16.5299 35.9559 16.5411C35.9559 16.8319 35.9448 17.1786 35.8226 17.4582Z" fill="#BD4500"/>
<path d="M37.3921 18.2753C37.3921 18.2753 37.2921 18.2977 37.2365 18.3088C37.1921 17.951 37.081 17.4588 37.081 17.4588C37.2143 17.649 37.3254 18.0069 37.3921 18.2753Z" fill="#BD4500"/>
<g style="mix-blend-mode:soft-light" opacity="0.33">
<path d="M38.2502 17.0671C37.9384 17.2796 37.5153 17.4586 36.9585 17.4586C35.8004 17.4586 28.4065 17.2013 28.039 16.5862C27.8386 16.2731 28.0501 15.8704 28.2951 15.5685C28.451 15.5014 28.6292 15.479 28.8408 15.4902C29.0969 15.4902 29.5534 15.5461 30.1659 15.6244C30.2772 15.6244 30.3886 15.6468 30.5222 15.6691C31.2794 15.7698 32.2036 15.904 33.1613 16.0494C33.2504 16.0494 33.3395 16.0717 33.4397 16.0829C34.2303 16.2171 35.0432 16.3514 35.7893 16.4967C35.8561 16.4967 35.9117 16.5191 35.9786 16.5303C36.8805 16.7092 37.6934 16.877 38.2725 17.056L38.2502 17.0671Z" fill="#FFE5CA"/>
</g>
<g style="mix-blend-mode:multiply" opacity="0.51">
<path d="M33.5065 19.0361C32.9943 19.1255 32.482 19.1815 31.9921 19.2374C31.8696 19.2374 31.7694 19.2598 31.6469 19.2709C31.6246 19.2709 31.5912 19.2709 31.569 19.2709C30.8117 19.3492 30.0991 19.4163 29.4978 19.4275C29.2751 19.4275 29.0635 19.4275 28.8742 19.4052C28.1727 19.338 27.6827 19.092 27.5825 18.4881C27.4823 17.9065 27.4154 17.2131 27.5268 16.6427V16.6091C27.5379 16.7657 27.5936 18.3427 27.9388 18.7341C28.2729 19.1144 32.7827 19.0361 33.4954 19.0249L33.5065 19.0361Z" fill="#E09C53"/>
</g>
<path d="M33.9185 11.7994C33.9185 11.7994 33.8072 11.8441 33.5511 11.9448C33.1502 12.0902 32.3818 12.3474 31.1458 12.6941C30.3663 12.9066 29.3975 13.1527 28.1949 13.4211C28.1949 13.4211 28.1726 13.4211 28.1615 13.4211C26.0458 13.902 24.175 14.2711 22.5826 14.5395C17.4492 15.4119 14.9772 15.3336 14.9772 15.3336L14.142 2.95273C14.142 2.95273 16.6141 1.72247 18.6407 1.17445C19.5761 0.917215 20.7119 0.671164 22.0259 0.458665C22.6717 0.358007 24.2196 0.201429 24.7875 0.145509C25.489 0.0784038 26.1237 0.0560355 26.6916 0.0336672C28.206 -0.0446218 29.6759 0.0336672 30.0323 0.0672196C30.1325 0.0672196 30.177 0.0672196 30.177 0.0672196L33.9297 11.7882L33.9185 11.7994Z" fill="#A2DAE0"/>
<g style="mix-blend-mode:multiply" opacity="0.57">
<path d="M22.5715 14.5394C21.2798 14.7631 20.1551 14.9197 19.1975 15.0315C16.3579 15.3671 14.966 15.3223 14.966 15.3223L14.1308 2.94147C14.1308 2.94147 14.3535 2.82963 14.7655 2.66187C15.2889 2.46055 17.516 1.46516 18.6295 1.16319C19.0193 4.95462 20.1662 11.9112 22.5715 14.5282V14.5394Z" fill="#BED9ED"/>
</g>
<g style="mix-blend-mode:multiply" opacity="0.57">
<path d="M19.1975 15.0311C16.3579 15.3778 14.966 15.3331 14.966 15.3331L14.1308 2.95223C14.1308 2.95223 14.3535 2.84038 14.7655 2.67262C14.5206 3.98117 14.8324 8.25351 16.2132 10.4456C17.1819 11.989 17.5717 12.8166 18.34 13.3982C19.0638 13.9462 19.3756 14.5614 19.1975 15.0311Z" fill="#A6BDCF"/>
</g>
<g style="mix-blend-mode:soft-light" opacity="0.51">
<path d="M31.1347 12.6831C30.3552 12.8956 29.3864 13.1417 28.1838 13.4101L24.7763 0.145701C25.4779 0.0785958 26.1126 0.0562275 26.6805 0.0338593L31.1347 12.6943V12.6831Z" fill="#E8F5FF"/>
</g>
<g style="mix-blend-mode:soft-light" opacity="0.51">
<path d="M33.9185 11.7999C33.9185 11.7999 33.8072 11.8446 33.551 11.9453L30.0211 0.0677185C30.1213 0.0677185 30.1659 0.0677185 30.1659 0.0677185L33.9185 11.7887V11.7999Z" fill="#E8F5FF"/>
</g>
<path d="M18.1397 14.9976L15.8124 15.3108L7.77261 20.0976V20.2654L9.40952 20.5114H9.49861L21.7699 14.6733V14.5055L18.1508 14.9976H18.1397ZM8.81935 19.8963C8.87502 19.8404 9.00864 19.7956 9.1534 19.7956C9.29817 19.7956 9.42066 19.8404 9.48747 19.8963C9.50974 19.9187 9.52088 19.9522 9.52088 19.9746C9.52088 20.0752 9.35384 20.1535 9.1534 20.1535C8.95297 20.1535 8.78593 20.0752 8.78593 19.9746C8.78593 19.9522 8.79708 19.9187 8.81935 19.8963Z" fill="#81AED4"/>
<path d="M19.2198 14.73C19.2198 14.73 19.2197 14.73 19.1863 14.73C17.516 14.909 15.8012 15.155 15.8012 15.155L7.76138 20.1096L9.49852 20.3669L21.7698 14.5175C21.1796 14.5175 20.2108 14.6182 19.2309 14.73H19.2198ZM9.47624 19.8971C9.42056 19.953 9.28694 19.9978 9.14218 19.9978C8.99742 19.9978 8.87493 19.9642 8.80812 19.8971C8.78585 19.8748 8.77471 19.8524 8.77471 19.8188C8.77471 19.7182 8.94175 19.6399 9.14218 19.6399C9.34262 19.6399 9.50965 19.7182 9.50965 19.8188C9.50965 19.8524 9.49851 19.8748 9.47624 19.8971Z" fill="#A2DAE0"/>
<g style="mix-blend-mode:multiply" opacity="0.57">
<path d="M15.8012 15.1542L7.76138 20.1087V20.2765L9.49852 20.5337C9.49852 20.5337 9.47625 20.4331 9.49852 20.366C9.89939 19.2699 12.1153 18.3528 14.1309 16.843C15.378 15.9147 17.0483 15.3107 18.1396 15.0088C18.6741 14.8522 19.0638 14.7627 19.1863 14.7404C17.516 14.9193 15.8012 15.1654 15.8012 15.1654V15.1542ZM9.14218 19.9969C8.99742 19.9969 8.87493 19.9634 8.80812 19.8962C8.86379 19.8403 8.99742 19.7956 9.14218 19.7956C9.28694 19.7956 9.40943 19.8403 9.47624 19.8962C9.42056 19.9522 9.28694 19.9969 9.14218 19.9969Z" fill="#A6BDCF"/>
</g>
<g style="mix-blend-mode:multiply" opacity="0.36">
<path d="M31.7295 32.2341C32.0534 31.7457 31.9424 31.0999 31.4817 30.7918C31.021 30.4837 30.385 30.6298 30.0612 31.1183C29.7374 31.6067 29.8484 32.2524 30.309 32.5605C30.7697 32.8686 31.4057 32.7225 31.7295 32.2341Z" fill="#9C82AD"/>
</g>
<path d="M30.8897 30.7116C30.3775 30.7116 29.9543 31.1254 29.9543 31.6511C29.9543 32.1767 30.3663 32.5906 30.8897 32.5906C31.4131 32.5906 31.8251 32.1767 31.8251 31.6511C31.8251 31.1254 31.4131 30.7116 30.8897 30.7116ZM30.5333 31.8412C30.422 31.8412 30.344 31.7518 30.344 31.6511C30.344 31.5393 30.422 31.461 30.5333 31.461C30.6447 31.461 30.7226 31.5393 30.7226 31.6511C30.7226 31.7629 30.6336 31.8412 30.5333 31.8412ZM31.2572 31.8412C31.1458 31.8412 31.0679 31.7518 31.0679 31.6511C31.0679 31.5393 31.1458 31.461 31.2572 31.461C31.3685 31.461 31.4465 31.5393 31.4465 31.6511C31.4465 31.7629 31.3574 31.8412 31.2572 31.8412Z" fill="#485159"/>
<path d="M30.8897 30.846C30.4443 30.846 30.088 31.2039 30.088 31.6512C30.088 32.0986 30.4443 32.4565 30.8897 32.4565C31.3351 32.4565 31.6915 32.0986 31.6915 31.6512C31.6915 31.2039 31.3351 30.846 30.8897 30.846ZM30.8897 32.3894C30.4777 32.3894 30.1436 32.0539 30.1436 31.64C30.1436 31.2262 30.4777 30.8907 30.8897 30.8907C31.3017 30.8907 31.6358 31.2262 31.6358 31.64C31.6358 32.0539 31.3017 32.3894 30.8897 32.3894Z" fill="#0E2D47"/>
<g style="mix-blend-mode:multiply" opacity="0.36">
<path d="M33.2295 35.5817C33.5533 35.0932 33.4424 34.4475 32.9817 34.1394C32.521 33.8313 31.885 33.9774 31.5612 34.4658C31.2373 34.9543 31.3483 35.6 31.809 35.9081C32.2697 36.2162 32.9057 36.0701 33.2295 35.5817Z" fill="#9C82AD"/>
</g>
<path d="M32.393 34.0439C31.8808 34.0439 31.4576 34.4577 31.4576 34.9834C31.4576 35.5091 31.8696 35.9229 32.393 35.9229C32.9164 35.9229 33.3284 35.5091 33.3284 34.9834C33.3284 34.4577 32.9164 34.0439 32.393 34.0439ZM32.0367 35.1735C31.9253 35.1735 31.8474 35.0841 31.8474 34.9834C31.8474 34.8716 31.9253 34.7933 32.0367 34.7933C32.148 34.7933 32.226 34.8716 32.226 34.9834C32.226 35.0952 32.1369 35.1735 32.0367 35.1735ZM32.7605 35.1735C32.6491 35.1735 32.5712 35.0841 32.5712 34.9834C32.5712 34.8716 32.6491 34.7933 32.7605 34.7933C32.8718 34.7933 32.9498 34.8716 32.9498 34.9834C32.9498 35.0952 32.8607 35.1735 32.7605 35.1735Z" fill="#485159"/>
<path d="M32.393 34.1783C31.9476 34.1783 31.5912 34.5362 31.5912 34.9835C31.5912 35.4309 31.9476 35.7888 32.393 35.7888C32.8384 35.7888 33.1947 35.4309 33.1947 34.9835C33.1947 34.5362 32.8384 34.1783 32.393 34.1783ZM32.393 35.7329C31.981 35.7329 31.6469 35.3973 31.6469 34.9835C31.6469 34.5697 31.981 34.2342 32.393 34.2342C32.805 34.2342 33.1391 34.5697 33.1391 34.9835C33.1391 35.3973 32.805 35.7329 32.393 35.7329Z" fill="#0E2D47"/>
<g style="mix-blend-mode:multiply" opacity="0.36">
<path d="M32.7939 39.3421C33.1177 38.8537 33.0067 38.208 32.546 37.8999C32.0854 37.5917 31.4494 37.7379 31.1256 38.2263C30.8017 38.7147 30.9127 39.3604 31.3734 39.6686C31.8341 39.9767 32.4701 39.8305 32.7939 39.3421Z" fill="#9C82AD"/>
</g>
<path d="M31.9587 37.8131C31.4465 37.8131 31.0233 38.2269 31.0233 38.7526C31.0233 39.2782 31.4354 39.6921 31.9587 39.6921C32.4821 39.6921 32.8941 39.2782 32.8941 38.7526C32.8941 38.2269 32.4821 37.8131 31.9587 37.8131ZM31.6024 38.9427C31.491 38.9427 31.4131 38.8533 31.4131 38.7526C31.4131 38.6408 31.491 38.5625 31.6024 38.5625C31.7137 38.5625 31.7917 38.6408 31.7917 38.7526C31.7917 38.8644 31.7026 38.9427 31.6024 38.9427ZM32.3151 38.9427C32.2037 38.9427 32.1258 38.8533 32.1258 38.7526C32.1258 38.6408 32.2037 38.5625 32.3151 38.5625C32.4264 38.5625 32.5044 38.6408 32.5044 38.7526C32.5044 38.8644 32.4153 38.9427 32.3151 38.9427Z" fill="#485159"/>
<path d="M31.9587 37.9475C31.5133 37.9475 31.157 38.3054 31.157 38.7527C31.157 39.2001 31.5133 39.558 31.9587 39.558C32.4042 39.558 32.7605 39.2001 32.7605 38.7527C32.7605 38.3054 32.4042 37.9475 31.9587 37.9475ZM31.9587 39.5021C31.5467 39.5021 31.2127 39.1665 31.2127 38.7527C31.2127 38.3389 31.5467 38.0034 31.9587 38.0034C32.3707 38.0034 32.7048 38.3389 32.7048 38.7527C32.7048 39.1665 32.3707 39.5021 31.9587 39.5021Z" fill="#0E2D47"/>
<path d="M13.4071 33.161C13.1955 33.9327 12.739 34.7491 11.8036 35.4313C11.3025 35.8004 10.6566 36.1248 9.85488 36.382C9.68785 36.4379 9.52081 36.4826 9.35378 36.5162C5.79044 37.4109 2.43868 35.4984 0.901994 33.0603C0.267275 32.0649 -0.0667918 30.98 0.0111562 29.9735C0.289542 26.3834 4.1424 25.3992 7.37168 25.3992C9.29811 25.3992 11.0241 27.1327 12.1042 28.5307C12.828 29.4702 13.2623 30.2531 13.2623 30.2531C13.2623 30.2531 13.3403 30.4544 13.4182 30.7787C13.5407 31.3156 13.6632 32.1991 13.4182 33.1386L13.4071 33.161Z" fill="#E8F5FF"/>
<g style="mix-blend-mode:multiply" opacity="0.57">
<path d="M13.4071 33.161C13.1955 33.9327 12.739 34.7491 11.8036 35.4313C11.3025 35.8004 10.6566 36.1248 9.85488 36.382C9.68785 36.4379 9.52081 36.4826 9.35378 36.5162C5.79044 37.4109 2.43868 35.4984 0.901994 33.0603C0.267275 32.0649 -0.0667918 30.98 0.0111562 29.9735C0.289542 26.3834 4.1424 25.3992 7.37168 25.3992C9.29811 25.3992 11.0241 27.1327 12.1042 28.5307C12.828 29.4702 13.2623 30.2531 13.2623 30.2531C13.2623 30.2531 13.3403 30.4544 13.4182 30.7787C13.1844 30.2754 12.739 29.4478 12.2601 29.0452C11.5475 28.4412 5.38957 25.634 3.55222 28.9557C0.601334 34.3241 11.425 33.3735 13.4071 33.161Z" fill="#E1E8ED"/>
</g>
<g style="mix-blend-mode:multiply" opacity="0.57">
<path d="M11.7925 35.432C11.2914 35.8011 10.6455 36.1254 9.84376 36.3826C9.67673 36.4386 9.50969 36.4833 9.34266 36.5168C5.77932 37.4116 2.42756 35.4991 0.890869 33.0609C1.99328 33.8774 3.44089 34.7609 4.87736 35.0182C7.23807 35.4208 9.63218 36.2261 11.7925 35.4208V35.432Z" fill="#E1E8ED"/>
</g>
<path d="M49.9536 26.2377C49.6974 25.9805 49.3634 25.6785 48.918 25.3542C47.2588 24.1351 45.6219 26.0364 42.4705 24.5824C40.6443 23.7436 40.6666 22.4686 41.0007 21.5404C41.2791 21.4061 41.5686 21.3167 41.8692 21.2608C45.054 20.7239 49.0182 21.0594 49.8756 24.5601C50.0092 25.0857 50.0204 25.6561 49.9313 26.2377H49.9536Z" fill="#F2F9FF"/>
<g style="mix-blend-mode:multiply" opacity="0.36">
<path d="M29.4978 47.3087C28.6737 47.689 29.0635 47.4429 27.9388 48.1028C26.8252 48.7627 25.4667 48.4831 24.2418 47.8791C23.0281 47.2752 22.5604 48.0021 21.2019 48.2482C19.8433 48.4831 18.4959 47.264 18.4959 47.264C20.2665 44.9153 18.4514 38.3055 17.9837 36.393C17.5829 34.7601 14.3313 29.7161 12.9951 27.6134C12.7723 27.2667 12.6053 26.9983 12.5162 26.8306C12.2712 26.4279 12.2044 26.0365 12.2267 25.7233C12.5162 25.4549 12.8057 25.1977 13.1175 24.9404C15.4337 25.4996 23.8855 27.5687 27.3709 28.9667C28.4733 29.4029 29.0635 29.7832 28.8296 30.0292C27.7161 31.1588 22.0482 29.8391 21.3912 29.8391C20.7342 29.8391 22.6495 33.597 24.1082 35.0285C25.5558 36.4601 30.3218 46.9285 29.4978 47.3087Z" fill="#A7D6DE"/>
</g>
<path d="M37.081 24.2137C37.081 24.2137 37.0587 25.0972 35.9118 26.4841C35.2214 27.3117 34.1301 28.3294 32.393 29.4255C31.8362 29.7722 31.2015 30.0183 30.5111 30.186C29.1081 30.5215 27.4823 30.5104 25.8676 30.3314C23.8744 30.0965 21.9034 29.6044 20.3667 29.1347C20.1663 29.0788 19.977 29.0117 19.7988 28.9558C18.3624 28.4972 17.427 28.1169 17.427 28.1169C16.3023 27.513 15.6119 21.6078 15.6119 21.6078C15.7344 21.7308 15.8792 21.8538 16.0128 21.9769C18.1953 23.867 21.6584 25.1755 25.3665 25.4999C26.6026 25.6117 27.872 25.6117 29.1303 25.4999C29.353 25.4775 29.5646 25.4551 29.7873 25.4216C31.3797 25.1979 32.6046 24.538 33.5288 23.7663C35.188 22.3907 35.8784 20.6907 35.8784 20.6907C36.1902 21.1269 37.0699 24.236 37.0699 24.236L37.081 24.2137Z" fill="#79FF61"/>
<g style="mix-blend-mode:multiply" opacity="0.36">
<path d="M20.3667 29.1351C18.6185 28.6094 17.427 28.1173 17.427 28.1173C16.3023 27.5134 15.6119 21.6081 15.6119 21.6081C15.7344 21.7311 15.8792 21.8542 16.0128 21.9772C16.1464 22.1561 16.2912 22.3798 16.4137 22.6482C16.9593 23.7555 19.4536 27.7147 20.3667 29.1462V29.1351Z" fill="#9C82AD"/>
</g>
<path d="M30.0991 45.576C30.1436 46.2135 29.598 46.9069 28.6849 47.2648C28.5958 47.2984 28.5067 47.3319 28.4288 47.3767C28.2395 47.4661 28.0947 47.5556 27.9499 47.6227C27.5825 47.8128 27.1927 47.9247 25.979 47.8576C25.0325 47.8017 24.8209 47.6115 24.5536 47.5109C24.2864 47.4214 23.9635 47.4102 22.7942 47.6786C22.6495 47.7122 22.5047 47.7457 22.3711 47.7569C20.3333 48.1148 19.4647 47.2201 19.4647 47.2201C19.4647 47.2201 20.4558 46.2023 19.6875 41.2589C19.6206 40.8563 19.5538 40.4313 19.4647 39.9728C18.3066 33.9221 12.1376 27.8156 12.3158 25.6347C12.5051 23.4538 15.6119 21.5972 15.6119 21.5972C15.8903 22.8946 17.8835 26.1827 19.7988 28.9452C21.1128 30.8465 22.3934 32.4906 23.0281 33.0609C24.3087 34.1905 28.1281 41.3037 29.5423 44.2786C29.8764 44.9721 30.0768 45.4418 30.0879 45.5648L30.0991 45.576Z" fill="#79FF61"/>
<g style="mix-blend-mode:multiply" opacity="0.36">
<path d="M24.5536 47.5104C24.2864 47.4209 23.9635 47.4097 22.7942 47.6782C22.6495 47.7117 22.5047 47.7453 22.3711 47.7565C22.6049 46.7499 22.8388 45.3742 22.694 44.5578C22.694 44.5466 22.694 44.5354 22.694 44.513C22.4379 43.1038 21.9368 40.1177 22.3488 40.1177C22.6049 40.1177 23.4178 42.8578 24.008 45.1505C24.253 46.09 24.4534 46.9512 24.5648 47.5104H24.5536Z" fill="#D1BDDE"/>
</g>
<g style="mix-blend-mode:multiply" opacity="0.36">
<path d="M28.4288 47.376C28.2395 47.4654 28.0947 47.5549 27.95 47.622C27.705 47.0628 27.2818 46.0898 26.8475 45.0609C26.0235 43.0813 25.1438 40.8444 25.3443 40.6431C25.5558 40.4306 26.6026 42.824 27.4489 44.9266C27.8497 45.922 28.2172 46.8391 28.4288 47.3872V47.376Z" fill="#D1BDDE"/>
</g>
<g style="mix-blend-mode:multiply" opacity="0.36">
<path d="M37.081 24.2142C37.081 24.2142 37.0587 25.0977 35.9118 26.4846C35.1657 25.355 34.2081 24.3708 33.5399 23.7445C35.1991 22.3688 35.8895 20.6688 35.8895 20.6688C36.2013 21.105 37.081 24.2142 37.081 24.2142Z" fill="#D1BDDE"/>
</g>
<g style="mix-blend-mode:multiply" opacity="0.36">
<path d="M30.0991 45.575C30.1436 46.2125 29.598 46.9059 28.6849 47.2638C28.5958 47.2974 28.5067 47.3309 28.4288 47.3757C28.2395 47.4651 28.0947 47.5546 27.95 47.6217C27.5825 47.8118 27.1927 47.9237 25.979 47.8566C25.0325 47.8007 24.8209 47.6105 24.5537 47.5099C24.2864 47.4204 23.9635 47.4092 22.7943 47.6776C22.6495 47.7112 22.5047 47.7447 22.3711 47.7559C20.3333 48.1138 19.4648 47.2191 19.4648 47.2191C19.4648 47.2191 20.4558 46.2013 19.6875 41.2579C20.556 42.5329 21.5916 43.7744 22.6829 44.5125C23.1172 44.8145 23.5515 45.027 23.9969 45.1388C24.1973 45.1836 24.3978 45.2171 24.5871 45.2171C25.4779 45.2395 26.2128 45.1612 26.8475 45.0382C27.0591 44.9934 27.2596 44.9487 27.4489 44.8928C28.4177 44.6355 29.0524 44.3224 29.5535 44.2665C29.8875 44.9599 30.088 45.4296 30.0991 45.5526V45.575Z" fill="#A7DBDE"/>
</g>
<g style="mix-blend-mode:soft-light" opacity="0.7">
<path d="M30.5222 30.1858C29.1192 30.5213 27.4934 30.5101 25.8787 30.3312L25.3777 25.4996C26.6137 25.6115 27.8831 25.6115 29.1414 25.4996C29.598 26.8865 30.2327 28.8996 30.5111 30.197L30.5222 30.1858Z" fill="#FBFFD9"/>
</g>
<g style="mix-blend-mode:soft-light" opacity="0.7">
<path d="M20.7008 31.2154C22.0036 33.1279 25.4445 38.2391 24.3755 38.7535C23.3065 39.268 22.5158 39.939 18.6964 34.7384C14.8769 29.5378 14.8435 27.3233 15.8235 25.5562C16.8034 23.7891 19.3979 29.2917 20.7119 31.2042L20.7008 31.2154Z" fill="#FBFFD9"/>
</g>
<path d="M22.8277 80.2132C22.8277 82.8526 19.4536 85 15.289 85C11.592 85 8.50751 83.3 7.87279 81.0632C7.79484 80.7836 7.75031 80.504 7.75031 80.2132C7.75031 78.5579 9.07542 77.0928 11.0909 76.2316C12.2936 75.7172 13.7412 75.4264 15.289 75.4264C18.9303 75.4264 21.9814 77.0704 22.6718 79.2625C22.772 79.5757 22.8165 79.8888 22.8165 80.2132H22.8277Z" fill="#F2F9FF"/>
<path d="M22.8277 80.2129C22.8277 82.8523 19.4536 84.9997 15.289 84.9997C11.592 84.9997 8.50751 83.2997 7.87279 81.0629C7.79484 80.7833 7.75031 80.5037 7.75031 80.2129C7.75031 78.5576 9.07542 77.0925 11.0909 76.2313C10.523 77.059 10.111 78.4793 11.8704 80.2129C14.7211 83.0201 22.6829 79.2622 22.6829 79.2622C22.7831 79.5754 22.8277 79.8885 22.8277 80.2129Z" fill="#E8F5FF"/>
<g style="mix-blend-mode:multiply">
<path d="M22.8277 80.2128C22.8277 82.8523 19.4536 84.9996 15.289 84.9996C11.592 84.9996 8.50749 83.2997 7.87277 81.0628C8.77474 81.9016 10.3671 82.7628 13.1176 82.9641C18.83 83.3556 21.6918 81.7339 22.6718 79.2622C22.772 79.5753 22.8165 79.8885 22.8165 80.2128H22.8277Z" fill="#E1E8ED"/>
</g>
<path d="M48.6507 80.4699C48.1942 83.0758 44.4972 84.5969 40.3994 83.8587C36.7581 83.2101 34.0188 80.9956 33.7738 78.6917C33.7515 78.4121 33.7515 78.1213 33.8072 77.8305C34.0967 76.1976 35.6557 74.9897 37.7826 74.4976C39.052 74.2068 40.533 74.1621 42.0586 74.4305C45.6442 75.068 48.3612 77.2265 48.6619 79.5081C48.7064 79.8324 48.6953 80.1456 48.6396 80.4699H48.6507Z" fill="#F2F9FF"/>
<path d="M48.6396 80.4699C48.5839 80.8278 48.4614 81.1522 48.2832 81.4653C47.1697 83.4449 43.9293 84.4962 40.3882 83.8699C36.7469 83.2212 34.0076 81.018 33.7626 78.7028C33.7404 78.4121 33.7404 78.1213 33.7849 77.8417C33.8183 77.6515 33.874 77.4726 33.9408 77.2936C34.4419 75.9404 35.8895 74.945 37.7714 74.5088C37.0587 75.2246 36.4129 76.5443 37.8382 78.5574C40.1544 81.8232 48.6507 79.5193 48.6507 79.5193C48.6953 79.8436 48.6841 80.1568 48.6284 80.4811L48.6396 80.4699Z" fill="#E8F5FF"/>
<g style="mix-blend-mode:multiply">
<path d="M48.2832 81.4657C47.1697 83.4453 43.9293 84.4966 40.3882 83.8703C36.7469 83.2216 34.0076 81.0184 33.7626 78.7032C33.7404 78.4125 33.7404 78.1217 33.7849 77.8421C33.8183 77.6519 33.874 77.473 33.9408 77.294C34.1858 78.7927 34.7091 80.6157 36.6913 81.8124C40.121 83.8927 45.2433 83.6466 48.2498 81.421C48.2498 81.4322 48.2498 81.4545 48.261 81.4657H48.2832Z" fill="#E1E8ED"/>
</g>
<path d="M40.0319 75.7058C39.8871 76.9025 43.3948 76.5334 45.0428 77.2828C46.6908 78.0321 48.6284 79.0499 47.5705 77.8867C47.1585 77.4282 44.1742 75.5492 42.0919 75.0348C40.867 74.7328 40.043 75.5381 40.0207 75.7058H40.0319Z" fill="white"/>
</svg>
