<svg width="60" height="85" viewBox="0 0 60 85" fill="none" xmlns="http://www.w3.org/2000/svg">
<path d="M54.3719 25.1026L52.6624 26.6115L52.1295 26.958L51.2637 27.5168L51.1305 28.1428L50.8085 29.6405L50.3534 31.7752V31.7976L49.3654 36.4248L41.9834 44.461L41.4949 44.0139L46.7123 38.3249L47.2119 35.7765L48.655 32.39L47.5449 35.8436L47.5116 37.4643L48.766 36.1007L50.0315 30.1658C49.8095 29.5175 49.7318 28.6792 49.7206 27.7851C49.6873 25.695 51.0417 24.365 51.0417 24.365L51.0084 24.7562L50.9195 25.8068C50.6531 26.4774 50.3867 27.2821 50.3978 27.7739C50.3978 27.9975 50.3978 28.2098 50.42 28.4222L50.6975 27.1145L50.8085 27.0362L52.2183 26.1197L52.4515 25.9633L54.383 25.1026H54.3719Z" fill="white"/>
<path d="M54.3719 25.1026L54.3497 25.0803L52.6401 26.5892L52.1073 26.9245L51.2303 27.4945V27.5168L51.0971 28.1316L50.7752 29.6293L50.3201 31.7641V31.7864L49.3321 36.4136L41.9833 44.4163L41.5504 44.0139L46.7567 38.336L47.2562 35.7765L48.3885 33.1165L47.5116 35.8436L47.4672 37.5648L48.7882 36.123L50.0648 30.1658C49.8427 29.5175 49.765 28.6792 49.7539 27.7963V27.7292C49.7539 26.7121 50.0759 25.885 50.4089 25.3038C50.5754 25.0132 50.7308 24.7897 50.8529 24.6332C50.9195 24.555 50.9639 24.4991 50.9972 24.4544L51.0416 24.4097H51.0527V24.3985V24.3762H50.9861L50.9528 24.7673L50.864 25.818C50.5976 26.4886 50.3423 27.271 50.3423 27.7851C50.3423 28.0198 50.3423 28.2433 50.3645 28.4445L50.3867 28.7016L50.7086 27.1592L50.8085 27.0921L52.2183 26.1756L52.4514 26.0303L54.383 25.1697V25.1362L54.3497 25.1138L54.3719 25.1362V25.1026L52.4181 25.9633L52.185 26.1197L50.7752 27.0362L50.6642 27.1145H50.6531L50.3756 28.4445H50.4089H50.4422C50.4311 28.2322 50.42 28.0198 50.42 27.7963V27.7851C50.42 27.2933 50.6753 26.5109 50.9417 25.8403L51.0305 24.7897L51.0638 24.3873H51.0305L50.9972 24.365V24.3873H51.0305L50.9972 24.365C50.9972 24.365 50.975 24.3985 50.9306 24.432C50.6642 24.7338 49.6762 25.9521 49.6762 27.7404V27.8074C49.6873 28.7016 49.765 29.5399 49.9981 30.1993H50.0315L49.9981 30.1769L48.7326 36.1007L47.556 37.386L47.5893 35.866L48.6993 32.4123L48.6327 32.39L47.1896 35.7765L46.7012 38.3249L41.4616 44.0362L41.9944 44.5392L49.4098 36.4695L50.3978 31.8311V31.8088L50.8529 29.674L51.1748 28.1763L51.308 27.5504H51.2747L51.2969 27.5839L52.1628 27.0251L52.6956 26.6786L54.5828 25.0132L54.3719 25.1026Z" fill="black"/>
<path d="M50.3534 31.7533L50.8087 29.6185L50.3534 31.7756V31.7533Z" fill="white"/>
<path d="M50.3534 31.7533L50.3867 31.7645L50.8419 29.6297L50.7753 29.6185L50.3201 31.7645L50.3534 31.7756H50.3867V31.7645L50.3534 31.7533L50.3867 31.7645L50.3534 31.7533H50.3201V31.7645L50.3867 31.7756L50.8419 29.6297L50.7753 29.6185L50.3201 31.7533H50.3534Z" fill="black"/>
<path d="M51.4418 24.5442C51.4418 24.5442 51.164 25.1034 50.8973 25.7968L50.9862 24.7567L51.0195 24.3541L51.4306 24.5554L51.4418 24.5442Z" fill="white"/>
<path d="M51.4414 24.5442H51.4081C51.4081 24.5442 51.1305 25.0919 50.864 25.7737H50.8973L50.9306 25.7849L51.0195 24.7454L51.0528 24.3989L51.4192 24.5778V24.5442L51.397 24.5331H51.4303L51.4414 24.5219L50.9751 24.2984L50.9306 24.7454L50.8196 26.0419L50.9084 25.8184C51.0417 25.4719 51.1749 25.159 51.286 24.9354C51.397 24.7119 51.4525 24.5666 51.4525 24.5666V24.5331L51.4303 24.5219V24.5554L51.4414 24.5442Z" fill="black"/>
<path d="M52.1192 26.9584H52.0859H52.1192L52.1081 26.9248L51.2415 27.484L51.2637 27.5176H51.297V27.5064H51.2637L51.2748 27.5399L52.1415 26.9807L52.1192 26.9584H52.0859H52.1192L52.1081 26.9248L51.2303 27.4952V27.5176V27.5735L52.1637 26.9807V26.9584V26.8913L52.1081 26.9248L52.1192 26.9584Z" fill="black"/>
<path d="M51.2637 27.5066L52.1184 26.959L52.0518 27.7637L47.8224 74.4383L46.4903 74.3153L50.3534 31.7762V31.7538L50.8085 29.6191L51.1305 28.1325L51.2637 27.5178V27.5066Z" fill="white"/>
<path d="M51.2637 27.506L51.2748 27.5395L52.1406 26.9807L52.1184 26.9583H52.0851L52.0185 27.763L47.7891 74.3929L46.5236 74.2811L50.3867 31.7755V31.7644L50.8418 29.6296L51.1638 28.1431L51.297 27.5172V27.506H51.2637L51.2748 27.5395L51.2637 27.506H51.2304V27.5172H51.2637L51.2304 27.506L51.0971 28.1207L50.7752 29.6184L50.3201 31.7532V31.7644L46.457 74.3482L47.8446 74.4711L52.0851 27.7742L52.1628 26.9583V26.8913L51.2304 27.4948V27.506H51.2637Z" fill="black"/>
<path d="M53.1958 15.1113L53.0071 17.2014L52.9183 18.2185L52.7406 20.1744L52.6518 21.158L52.6407 21.2362V21.2698L52.6184 21.5045L52.5518 22.2422L52.5296 22.488L52.4186 23.6504L52.3742 24.1981L52.2964 24.9805L52.1965 26.1093L50.7863 27.0258L50.8974 25.7964L50.9862 24.7569V24.7458L51.0306 24.3546L51.0861 23.751L51.1416 23.0916L51.2194 22.2645L51.2305 22.041L51.2416 21.9292L51.3082 21.2921L51.3193 21.1133L51.3304 21.0015L51.3415 20.9121L51.397 20.2191L51.5192 18.9673V18.9562L51.608 17.9614V17.9502L51.8745 14.9884L53.1958 15.1113Z" fill="white"/>
<path d="M53.1959 15.111H53.1626L52.9738 17.2011L52.885 18.2182L52.7073 20.1741L52.6185 21.1577L52.6074 21.2247V21.2359V21.2694L52.5852 21.5042L52.5186 22.2418L52.4963 22.4765L52.3853 23.6501L52.3409 24.1978L52.2632 24.9802L52.1632 26.0978L50.8308 26.9585L50.9307 25.7961L51.0195 24.7566V24.7454L51.0639 24.3542L51.1195 23.7507L51.175 23.1024L51.2527 22.2642L51.2749 22.0406L51.286 21.9289L51.3415 21.2918L51.3526 21.1241L51.3193 21.113L51.3526 21.1241L51.3638 21.0012H51.3749V20.9118L51.4415 20.2188L51.5525 18.967L51.6413 17.9611V17.9499L51.9078 15.0328L53.1959 15.1445V15.111H53.1626H53.1959L53.207 15.0775L51.8412 14.9545L51.5747 17.9499V17.9611L51.4859 18.9558V18.967L51.3638 20.2188L51.2971 20.9006V21.0012L51.286 21.113L51.2638 21.2806L51.2083 21.9177L51.1972 22.0406L51.1861 22.253L51.1084 23.0913L51.0417 23.7507L50.9862 24.3431L50.9529 24.7454L50.8641 25.7961L50.7419 27.0926L52.2299 26.1314L52.3409 24.9913L52.4075 24.209L52.463 23.6613V23.6501L52.563 22.4877L52.5852 22.2418L52.6518 21.5153L52.674 21.2694V21.2359L52.6851 21.1688L52.7739 20.1741L52.9516 18.2182L53.0404 17.2122L53.2403 15.0775H53.207L53.1959 15.111Z" fill="black"/>
<path d="M59.9223 0.536763C58.8344 2.12388 56.3256 5.1081 56.1813 7.45524C56.1591 7.77937 57.9131 6.18108 58.9343 4.5269C59.9334 2.91743 58.6235 8.56175 58.6235 8.88587C58.6457 11.0877 57.2914 11.7807 57.6688 13.6584C57.8465 14.5414 57.8798 15.3126 57.8132 16.0055C57.8021 16.162 57.7799 16.3073 57.7577 16.4526C57.7355 16.5979 57.7022 16.732 57.6688 16.8773V16.8997C57.6355 17.0114 57.6022 17.1344 57.5689 17.2462C57.5578 17.2909 57.5467 17.3244 57.5356 17.3579C57.5023 17.4362 57.4801 17.5144 57.4579 17.5926C57.4246 17.6932 57.3802 17.7938 57.3358 17.8832C57.3025 17.9615 57.2692 18.0397 57.2248 18.118C57.2137 18.1515 57.1915 18.185 57.1804 18.2185C57.1471 18.2856 57.1027 18.3527 57.0694 18.4086C57.025 18.4868 56.9695 18.565 56.914 18.6433C56.8585 18.7215 56.803 18.7997 56.7475 18.878C56.6476 19.0121 56.5366 19.1462 56.4367 19.258C56.3812 19.3251 56.3256 19.3809 56.259 19.448C55.7928 19.9286 55.2711 20.2974 54.7826 20.5769C54.605 20.6775 54.4274 20.7669 54.2609 20.8451C54.2165 20.8675 54.1721 20.8898 54.1277 20.9122C54.0389 20.9569 53.9501 20.9904 53.8613 21.0239C53.6281 21.1134 53.4172 21.1916 53.2507 21.2475C53.2063 21.2475 53.173 21.2698 53.1397 21.281H53.0953C52.9066 21.3481 52.7845 21.3704 52.7845 21.3704C52.8289 21.4151 52.8733 21.4598 52.9066 21.5157C53.0953 21.8063 52.9066 22.0634 52.7845 22.1975C52.729 22.2534 52.6957 22.2869 52.6957 22.2869C52.6957 22.2869 52.7068 22.3428 52.729 22.3875C52.729 22.4099 52.7512 22.4434 52.7623 22.4769C52.7845 22.5328 52.8067 22.5999 52.8289 22.6781C52.8511 22.7452 52.8733 22.8234 52.9066 22.9017C52.9399 22.9911 52.9621 23.0805 52.9954 23.1699C53.0953 23.4605 53.1841 23.7846 53.2396 24.0529C53.2396 24.0976 53.2618 24.1423 53.2618 24.1758C53.2618 24.2093 53.2729 24.2541 53.284 24.2876V24.3211C53.284 24.3211 53.2951 24.377 53.2951 24.4105C53.2951 24.5447 53.2951 24.6452 53.2507 24.69C53.0287 24.8911 52.7068 24.9917 52.3515 24.9917C52.2849 24.9917 52.2183 24.9917 52.1406 24.9917C52.0962 24.9917 52.0518 24.9917 52.0074 24.9917C51.7299 24.9694 51.4524 24.9023 51.186 24.8241C51.1305 24.8017 51.0749 24.7905 51.0305 24.7682C50.975 24.7458 50.9195 24.7235 50.864 24.7011C50.7641 24.6564 50.6642 24.6117 50.5865 24.567C50.5088 24.5223 50.4311 24.4776 50.3756 24.4329L50.3534 24.4105C50.2979 24.377 50.2535 24.3323 50.2202 24.2988C50.1869 24.2541 50.1647 24.2093 50.1536 24.1758C50.1425 24.0305 50.2646 23.7511 50.4311 23.4381C50.6753 22.9799 51.0083 22.4658 51.186 22.2087C51.2415 22.1193 51.2859 22.0522 51.2859 22.0522C51.2637 21.9963 51.2415 21.9404 51.2193 21.8846C51.1194 21.5716 51.1749 21.3816 51.2415 21.2698C51.297 21.1692 51.3636 21.1245 51.3636 21.1245C51.3192 21.1134 51.2748 21.091 51.2193 21.0798L51.1749 21.0575C51.1749 21.0575 51.0971 21.0239 51.0638 21.0128C51.0305 20.9904 50.9861 20.9792 50.9417 20.9457C50.6531 20.8004 50.309 20.5769 49.9538 20.2974C49.8872 20.2416 49.8095 20.1857 49.7429 20.1298C49.6984 20.0963 49.6429 20.0516 49.5874 19.9957C49.4986 19.9174 49.4098 19.8392 49.321 19.7498L49.2988 19.7274C48.8659 19.3027 48.4218 18.7997 48.0111 18.2185C47.9556 18.1403 47.9001 18.0621 47.8557 17.9838C47.7891 17.8832 47.7225 17.7827 47.667 17.6821C47.5893 17.5479 47.5116 17.4138 47.4339 17.2797C47.3451 17.1232 47.2563 16.9556 47.1786 16.7879C47.1342 16.6873 47.0787 16.5867 47.0342 16.4861C46.8788 16.1285 46.7345 15.7596 46.6235 15.3573C46.5791 15.2008 46.5347 15.0443 46.5014 14.8878C46.457 14.7314 46.4237 14.5525 46.3904 14.3849V14.3514C46.3571 14.1725 46.3238 14.0049 46.3127 13.8149V13.7478C46.2794 13.5913 46.2683 13.4349 46.2572 13.2784C46.2572 13.2448 46.2572 13.2225 46.2572 13.2001C46.2461 13.0101 46.235 12.8313 46.235 12.6413C46.235 10.35 47.0231 7.6676 49.21 4.6722C50.1314 3.40922 50.9084 2.5486 51.5523 1.97858C53.3728 0.324402 54.1499 0.905599 54.1499 0.905599C52.1961 1.83328 51.9186 4.21395 52.2405 3.9457C52.6291 3.6104 52.7734 2.98449 54.9935 1.47562C57.7577 -0.41327 60.2997 0.0896884 59.9667 0.570293" fill="white"/>
<path d="M59.9223 0.536489L59.889 0.514135C58.8011 2.10125 56.2924 5.08547 56.1369 7.44379L56.1591 7.49967L56.2147 7.52202C56.2147 7.52202 56.3146 7.49967 56.3812 7.45496C56.8696 7.14201 58.1351 5.85667 58.9566 4.5378C59.0121 4.43721 59.0676 4.37015 59.112 4.32544C59.1564 4.28074 59.1897 4.26956 59.2008 4.26956H59.223C59.223 4.26956 59.2674 4.42604 59.2674 4.58251C59.2674 5.09665 59.1009 6.11374 58.9233 7.03024C58.8344 7.48849 58.7567 7.92439 58.6901 8.24852C58.6235 8.58383 58.5791 8.80736 58.5791 8.87442V8.93031C58.5791 9.86916 58.3238 10.5286 58.0685 11.1321C57.8132 11.7357 57.5579 12.2945 57.5579 13.0099C57.5579 13.211 57.5801 13.4234 57.6245 13.6469C57.7466 14.2505 57.8021 14.8093 57.8021 15.3235C57.8021 15.547 57.8021 15.7705 57.7688 15.9829C57.7577 16.1282 57.7355 16.2847 57.7133 16.43C57.6911 16.5753 57.6578 16.7094 57.6245 16.8435V16.8659C57.6023 16.9776 57.5689 17.1006 57.5356 17.2124C57.5245 17.2571 57.5134 17.3018 57.5023 17.3241C57.469 17.4024 57.4468 17.4806 57.4246 17.5477C57.3913 17.6483 57.3469 17.7488 57.3025 17.8383C57.2692 17.9165 57.2359 17.9947 57.1915 18.0618C57.1804 18.0953 57.1582 18.1289 57.1471 18.1512C57.1138 18.2183 57.0694 18.2853 57.0361 18.3412C56.9917 18.4195 56.9362 18.4977 56.8918 18.5759C56.8363 18.6542 56.7808 18.7324 56.7253 18.8106C56.6254 18.9448 56.5144 19.0789 56.4145 19.1907C56.359 19.2577 56.3035 19.3136 56.2369 19.3695C55.7706 19.8501 55.2489 20.2189 54.7715 20.4872C54.5939 20.5878 54.4163 20.6772 54.2498 20.7554C54.2054 20.7778 54.161 20.8001 54.1166 20.8225C54.0278 20.8672 53.939 20.9007 53.8502 20.9343C53.6171 21.0237 53.4061 21.1019 53.2396 21.1578C53.1952 21.1578 53.1508 21.1801 53.1175 21.1913L53.0731 21.2025C52.8844 21.2584 52.7623 21.2807 52.7623 21.2807H52.6957L52.7401 21.3366C52.7845 21.3813 52.8289 21.426 52.8511 21.4707C52.9066 21.5602 52.9288 21.6384 52.9288 21.7055C52.9288 21.8731 52.8178 22.0184 52.729 22.1078L52.7512 22.1302V22.0966H52.729C52.7068 22.119 52.6846 22.1414 52.6624 22.1525L52.6402 22.1749L52.618 22.1972L52.6402 22.2308C52.6402 22.2531 52.6513 22.2867 52.6735 22.3314C52.6735 22.3537 52.6957 22.3872 52.7068 22.4208C52.729 22.4767 52.7512 22.5437 52.7734 22.622C52.7956 22.689 52.8178 22.7673 52.8511 22.8455C52.8844 22.9349 52.9066 23.0243 52.9399 23.1137C53.0398 23.4043 53.1286 23.7285 53.1841 23.9967C53.1841 24.0414 53.2063 24.0861 53.2063 24.1197C53.2063 24.1532 53.2174 24.1867 53.2285 24.2202V24.2538C53.2285 24.2873 53.2285 24.3097 53.2285 24.332C53.2285 24.3655 53.2285 24.3879 53.2285 24.4214C53.2285 24.5108 53.2174 24.5667 53.1952 24.5891C52.9843 24.7903 52.6624 24.8797 52.3183 24.8797C52.3183 24.8797 52.2516 24.8797 52.2183 24.8797C52.185 24.8797 52.1517 24.8797 52.1184 24.8797C52.074 24.8797 52.0296 24.8797 51.9963 24.8797C51.7188 24.8573 51.4413 24.7903 51.186 24.712C51.1305 24.6897 51.075 24.6785 51.0306 24.6561V24.6897H51.0528V24.6561H51.0306C51.0306 24.6561 50.9196 24.6114 50.8641 24.5891C50.7641 24.5444 50.6642 24.4997 50.5865 24.455C50.5088 24.4103 50.4422 24.3655 50.3867 24.3208L50.3645 24.3544L50.3867 24.332L50.3645 24.3097C50.309 24.2761 50.2646 24.2314 50.2313 24.1979C50.198 24.1532 50.1758 24.1197 50.1758 24.0861V24.0638C50.1758 23.9296 50.2868 23.6614 50.4533 23.3708C50.6975 22.9237 51.0306 22.3984 51.1971 22.1525C51.2526 22.0631 51.297 22.0072 51.297 22.0072V21.9737C51.2748 21.9178 51.2526 21.8619 51.2304 21.8172C51.1971 21.6943 51.1749 21.6049 51.1749 21.5154C51.1749 21.3813 51.2082 21.2919 51.2526 21.2249C51.2526 21.2249 51.3081 21.1466 51.3303 21.1243L51.3525 21.1019L51.4191 21.0572L51.3525 21.0348C51.3525 21.0348 51.2637 21.0013 51.2193 20.9901L51.1749 20.9678C51.1749 20.9678 51.0972 20.9343 51.0639 20.9231C51.0195 20.9007 50.9862 20.8784 50.9418 20.856C50.6531 20.7107 50.3201 20.4872 49.9538 20.2078C49.8872 20.1519 49.8095 20.096 49.7429 20.0401C49.6985 20.0066 49.643 19.9619 49.5875 19.906C49.4986 19.8277 49.4098 19.7495 49.321 19.6601L49.2988 19.6377C48.8659 19.2242 48.4219 18.7212 48.0222 18.1289C47.9667 18.0506 47.9112 17.9724 47.8668 17.8941C47.8002 17.7936 47.7336 17.693 47.6781 17.5924C47.6004 17.4583 47.5227 17.3353 47.445 17.19C47.3562 17.0335 47.2674 16.8659 47.1897 16.6982C47.1453 16.5976 47.0898 16.497 47.0454 16.3964C46.89 16.0388 46.7456 15.67 46.6346 15.2676C46.5902 15.1223 46.5458 14.9658 46.5125 14.7982C46.4681 14.6417 46.4348 14.4629 46.4015 14.2952V14.2617C46.3682 14.0828 46.346 13.9152 46.3238 13.7364V13.6693C46.3016 13.5128 46.2905 13.3563 46.2794 13.1999V13.144V13.1216C46.2683 12.9428 46.2572 12.7528 46.2572 12.5628V12.5404C46.2572 10.2604 47.0454 7.60026 49.2211 4.61604C50.1425 3.35306 50.9196 2.50362 51.5634 1.92242L51.5745 1.90007L51.5412 1.87771L51.5634 1.90007C52.6291 0.938856 53.3284 0.748849 53.717 0.748849C53.8502 0.748849 53.9501 0.771203 54.0167 0.793557C54.05 0.804734 54.0722 0.815911 54.0833 0.827087H54.0944V0.838264L54.1166 0.804734V0.771203C52.5736 1.50888 52.0629 3.10717 52.0518 3.67719C52.0518 3.74425 52.0518 3.78895 52.074 3.82248C52.0851 3.85602 52.1184 3.88955 52.1517 3.90072C52.1739 3.90072 52.1961 3.88955 52.2183 3.86719C52.618 3.52071 52.7512 2.91716 54.9603 1.39711C56.4589 0.368836 57.8798 0.0558843 58.8233 0.0558843C59.1675 0.0558843 59.445 0.100592 59.6337 0.167653C59.7336 0.201183 59.8002 0.234714 59.8446 0.279421C59.889 0.312952 59.9112 0.357659 59.9112 0.39119L59.889 0.458251L59.9223 0.480605L59.9556 0.502959C59.9556 0.502959 59.9889 0.435897 59.9889 0.402367C59.9889 0.335306 59.9556 0.290598 59.9001 0.234714C59.7336 0.100592 59.3562 0 58.8344 0C57.8798 0 56.4367 0.324129 54.927 1.3524C52.7068 2.87245 52.5514 3.50953 52.1739 3.83366H52.1517V3.84484C52.1406 3.84484 52.1184 3.77778 52.1184 3.69954C52.1184 3.16305 52.6291 1.57594 54.1277 0.860618L54.1832 0.838264L54.1388 0.804734C54.1388 0.804734 53.9945 0.704142 53.7059 0.704142C53.2951 0.704142 52.5736 0.905325 51.5079 1.86654L51.4968 1.88889L51.5301 1.91124L51.5079 1.88889C50.864 2.47009 50.0759 3.3307 49.1545 4.59369C46.9677 7.58909 46.1684 10.2715 46.1684 12.5628V12.5851C46.1684 12.7751 46.1684 12.9652 46.1906 13.144V13.1775V13.2446C46.1906 13.4011 46.2128 13.5687 46.235 13.7252V13.7922H46.2794H46.2461C46.2683 13.9822 46.2905 14.1499 46.3238 14.3287V14.3623C46.3571 14.5299 46.3904 14.7087 46.4348 14.8652C46.4681 15.0217 46.5125 15.1782 46.5569 15.3346C46.679 15.7258 46.8122 16.1059 46.9677 16.4635C47.0121 16.5641 47.0565 16.6647 47.112 16.7653C47.1897 16.9329 47.2674 17.1006 47.3673 17.2571L47.4006 17.2347H47.3673C47.445 17.3912 47.5227 17.5253 47.6004 17.6594C47.667 17.76 47.7225 17.8606 47.8002 17.9612C47.8446 18.0394 47.9001 18.1177 47.9667 18.1959C48.3775 18.7883 48.8215 19.2913 49.2544 19.7048L49.2766 19.7272C49.3654 19.8166 49.4653 19.8948 49.5542 19.973C49.6097 20.0177 49.6652 20.0625 49.7096 20.1072C49.7762 20.163 49.8539 20.2301 49.9205 20.2748C50.2757 20.5542 50.6198 20.7778 50.9196 20.9231C50.964 20.9454 51.0084 20.9678 51.0417 20.9901C51.0861 21.0125 51.1194 21.0237 51.1527 21.0348L51.1971 21.0572C51.2526 21.0796 51.297 21.0907 51.3414 21.1019V21.0684V21.0348C51.3414 21.0348 51.2637 21.0796 51.2082 21.1913C51.1638 21.2696 51.1305 21.3702 51.1305 21.5154C51.1305 21.6049 51.1416 21.7166 51.186 21.8396C51.1971 21.8955 51.2304 21.9513 51.2526 22.0072H51.2859L51.2526 21.9737C51.2526 21.9737 51.2082 22.0296 51.1527 22.1302C50.9751 22.3761 50.642 22.9014 50.3978 23.3596C50.2424 23.6614 50.1203 23.9296 50.1203 24.0861V24.1197C50.1203 24.1644 50.1536 24.2202 50.1869 24.265C50.2202 24.3097 50.2646 24.3432 50.3312 24.3879L50.3534 24.3544L50.3312 24.3767L50.3534 24.3991C50.4089 24.4438 50.4866 24.4885 50.5643 24.5332C50.6531 24.5779 50.7419 24.6226 50.8529 24.6673C50.9085 24.6897 50.964 24.712 51.0195 24.7232V24.6897H50.9973V24.7232H51.0195C51.0195 24.7232 51.1194 24.7679 51.1749 24.7903C51.4413 24.8685 51.7188 24.9356 51.9963 24.9579C52.0407 24.9579 52.0851 24.9579 52.1295 24.9579C52.1295 24.9579 52.1961 24.9579 52.2406 24.9579C52.285 24.9579 52.3072 24.9579 52.3405 24.9579C52.6957 24.9579 53.0287 24.8573 53.2618 24.645C53.3062 24.6003 53.3173 24.522 53.3173 24.4326C53.3173 24.3991 53.3173 24.3767 53.3173 24.3432C53.3173 24.3097 53.3173 24.2761 53.3173 24.2538V24.2202C53.3173 24.2202 53.3062 24.1532 53.2951 24.1085C53.2951 24.0638 53.284 24.0191 53.2729 23.9744C53.2174 23.7061 53.1286 23.382 53.0287 23.0914C52.9954 23.002 52.9732 22.9014 52.9399 22.8231C52.9177 22.7449 52.8955 22.6667 52.8622 22.5996C52.84 22.5214 52.8178 22.4543 52.7956 22.3984C52.7845 22.3649 52.7734 22.3314 52.7623 22.309C52.7401 22.2643 52.729 22.2419 52.729 22.2196V22.1972H52.6957L52.7179 22.2419C52.7179 22.2419 52.7623 22.2084 52.8178 22.1525L52.7956 22.1302V22.1637H52.8178C52.9066 22.0743 53.0398 21.9066 53.0398 21.7166C53.0398 21.6272 53.0176 21.5378 52.951 21.4372C52.951 21.4372 52.8733 21.3366 52.8289 21.2919L52.8067 21.3143V21.3478C52.8067 21.3478 52.9288 21.3254 53.1286 21.2696L53.173 21.2584C53.2063 21.2584 53.2507 21.236 53.284 21.2249C53.4505 21.169 53.6726 21.1019 53.9057 21.0013C53.9945 20.9678 54.0833 20.9231 54.1721 20.8784C54.2165 20.856 54.2609 20.8448 54.3053 20.8113L54.2831 20.7778V20.8113C54.4607 20.7331 54.6383 20.6437 54.8159 20.5431C55.3044 20.2636 55.8261 19.8948 56.3035 19.4142C56.359 19.3583 56.4256 19.2913 56.4811 19.2242C56.5921 19.1012 56.692 18.9783 56.803 18.833L56.7697 18.8106L56.7919 18.833C56.8474 18.7548 56.9029 18.6765 56.9584 18.5983C57.0139 18.5201 57.0583 18.4418 57.1138 18.3524C57.1582 18.2853 57.1915 18.2183 57.2248 18.1512C57.2248 18.1512 57.2581 18.0842 57.2803 18.0506C57.3247 17.9724 57.3691 17.8941 57.3913 17.8159C57.4357 17.7265 57.4801 17.6259 57.5246 17.5141C57.5579 17.4359 57.5801 17.3577 57.6023 17.2794C57.6134 17.2459 57.6245 17.2012 57.6467 17.1565C57.68 17.0447 57.7133 16.9218 57.7355 16.81V16.7876C57.7799 16.6535 57.8021 16.5082 57.8243 16.3629C57.8465 16.2176 57.8687 16.0723 57.8798 15.9158C57.902 15.7035 57.9131 15.4799 57.9131 15.2564C57.9131 14.7311 57.8576 14.1723 57.7355 13.5575C57.6911 13.334 57.6689 13.1216 57.6689 12.9316C57.6689 12.2387 57.9242 11.691 58.1795 11.0874C58.4348 10.4839 58.6901 9.8021 58.6901 8.85207V8.79619C58.6901 8.79619 58.7345 8.50559 58.8011 8.18146C58.9899 7.18672 59.3784 5.28665 59.3784 4.50427C59.3784 4.3925 59.3784 4.30309 59.3562 4.23603C59.3562 4.2025 59.334 4.18014 59.3229 4.15779C59.3007 4.13544 59.2785 4.12426 59.2452 4.12426C59.2008 4.12426 59.1564 4.15779 59.112 4.2025C59.0676 4.24721 59.0121 4.32544 58.9455 4.42604C58.4792 5.17488 57.8687 5.91256 57.3358 6.4714C57.0694 6.75082 56.8252 6.97436 56.6365 7.14201C56.5366 7.22025 56.4589 7.28731 56.3923 7.32084C56.3257 7.36555 56.2813 7.3879 56.259 7.37673C56.4034 5.05194 58.9122 2.06772 60 0.480605L59.9667 0.458251" fill="black"/>
<path d="M50.9861 20.9783C50.9861 20.9783 50.8973 21.1571 51.1971 21.2577C51.4969 21.3583 52.5184 21.5595 52.8738 21.4924C53.2291 21.4365 53.0292 21.2354 53.0292 21.2354C53.0292 21.2354 51.7967 21.3918 50.975 20.9671" fill="white"/>
<path d="M50.9861 20.9785H50.9528C50.9528 20.9785 50.9417 20.9897 50.9417 21.0344C50.9417 21.1127 50.9862 21.2244 51.1971 21.2915C51.4636 21.3809 52.2742 21.5486 52.7184 21.5486C52.785 21.5486 52.8405 21.5486 52.896 21.5374C52.9848 21.5262 53.0404 21.5039 53.0848 21.4703C53.1292 21.4368 53.1403 21.4033 53.1403 21.3586C53.1403 21.2803 53.0737 21.2244 53.0737 21.2244H53.0626H53.0404C53.0404 21.2244 52.8183 21.2468 52.5074 21.2468C52.0743 21.2468 51.4747 21.1909 51.0084 20.9562H50.9751L50.9639 20.9674H50.9973L50.9861 21.0121C51.4747 21.258 52.0854 21.3139 52.5185 21.3139C52.8405 21.3139 53.0626 21.2915 53.0626 21.2915V21.258L53.0293 21.2803C53.0293 21.2803 53.0626 21.3362 53.0626 21.3697L53.0293 21.4256C53.0293 21.4256 52.9515 21.4703 52.8738 21.4815C52.8294 21.4815 52.7739 21.4815 52.7184 21.4815C52.2853 21.4815 51.4747 21.3139 51.2193 21.2356C51.0417 21.1686 51.0195 21.0903 51.0195 21.0456V21.0121L50.9861 21.0009" fill="black"/>
<path d="M51.1749 21.8736C51.1749 21.8736 50.9972 21.9742 51.1416 22.1866C51.2859 22.399 52.4962 22.5331 52.7294 22.4548C52.9626 22.3766 52.7627 22.1754 52.7627 22.1754C52.7627 22.1754 52.041 22.5107 51.186 21.8736H51.1749Z" fill="white"/>
<path d="M51.1749 21.8733L51.1527 21.8398C51.1527 21.8398 51.0417 21.8957 51.0417 22.0298C51.0417 22.0857 51.0639 22.1416 51.1083 22.2086C51.1527 22.2645 51.2304 22.298 51.3304 22.3428C51.6413 22.4545 52.1742 22.5216 52.4963 22.5216C52.5962 22.5216 52.6739 22.5216 52.7294 22.4992C52.8183 22.4657 52.8627 22.4098 52.8627 22.3428C52.8627 22.2422 52.7738 22.1639 52.7738 22.1527L52.7516 22.1304H52.7294L52.6961 22.1527C52.6295 22.1751 52.4741 22.2198 52.252 22.2198C51.9744 22.2198 51.5968 22.1416 51.186 21.8398H51.1638H51.1416L51.1638 21.8733L51.1416 21.9069C51.5635 22.2198 51.9633 22.3092 52.252 22.298C52.5629 22.298 52.7516 22.2086 52.7516 22.2086V22.1751L52.7072 22.1974C52.7072 22.1974 52.7627 22.298 52.7627 22.3316C52.7627 22.3651 52.7627 22.3875 52.6739 22.421C52.6406 22.4322 52.5629 22.4433 52.4629 22.4433C52.252 22.4433 51.9411 22.4098 51.6746 22.3651C51.5413 22.3427 51.4192 22.3092 51.3193 22.2757C51.2193 22.2422 51.1527 22.1975 51.1305 22.1751C51.0972 22.1192 51.0861 22.0745 51.0861 22.041C51.0861 21.9963 51.1083 21.9627 51.1194 21.9404L51.1416 21.918L51.1194 21.8845L51.1749 21.8733Z" fill="black"/>
<path d="M51.2313 3.84566C46.4789 8.98701 46.5344 16.1067 51.4312 21.1139C51.4645 21.1139 51.4867 21.1251 51.52 21.1363C46.9563 15.8161 46.5455 9.33349 51.2313 3.84566Z" fill="#E6E6E6"/>
<path d="M51.5301 21.214C51.5301 21.214 51.619 21.3034 51.6634 21.3482C51.6745 21.3482 51.6968 21.3482 51.7079 21.3482C51.6745 21.3034 51.6301 21.2699 51.5968 21.2251C51.5745 21.2251 51.5523 21.2251 51.5301 21.214Z" fill="#E6E6E6"/>
<path d="M51.6635 21.3361C51.6635 21.3361 51.6968 21.3696 51.7079 21.3808H51.7302C51.7302 21.3808 51.7302 21.3472 51.7191 21.3472C51.7079 21.3472 51.6857 21.3472 51.6746 21.3472M51.4413 21.1124C51.4413 21.1124 51.5079 21.1795 51.5413 21.213C51.5635 21.213 51.5857 21.213 51.608 21.2242C51.5857 21.1907 51.5524 21.1683 51.5302 21.1347C51.4968 21.1347 51.4746 21.1236 51.4413 21.1124Z" fill="black"/>
<path d="M54.8281 2.7264C52.1188 5.68827 50.6309 9.99136 50.9751 14.0597C51.0861 15.278 51.3637 17.7257 51.5192 18.9328C51.6413 19.6929 51.6746 20.5088 52.041 21.2129C52.041 21.2129 52.0521 21.2129 52.0632 21.2129C51.8301 20.5088 51.7523 19.6817 51.6968 18.9105C51.5636 16.5522 51.0306 13.9368 51.186 11.6008C51.4303 8.35954 52.7517 5.19649 54.8392 2.71523" fill="#E6E6E6"/>
<path d="M52.074 21.2915C52.074 21.2915 52.074 21.3139 52.0852 21.3251V21.3027" fill="#E6E6E6"/>
<path d="M52.0296 21.214C52.0296 21.214 52.0518 21.2587 52.074 21.2922C52.074 21.2699 52.0518 21.2475 52.0518 21.214C52.0518 21.214 52.0407 21.214 52.0296 21.214Z" fill="black"/>
<path d="M55.605 5.29856C55.4828 7.98101 55.1608 10.7976 54.3836 13.4241C53.5952 16.006 52.1739 18.4537 52.2516 21.2256C52.2627 21.2256 52.2738 21.2256 52.2849 21.2256C52.4848 18.4873 53.8395 16.0731 54.5612 13.4688C55.283 10.8088 55.605 8.04807 55.5939 5.28738" fill="#E6E6E6"/>
<path d="M52.2517 21.3024C52.2517 21.3024 52.2517 21.336 52.2517 21.3583H52.2741C52.2741 21.3583 52.2741 21.3248 52.2741 21.3024C52.2741 21.3024 52.2517 21.3024 52.2405 21.3024" fill="#E6E6E6"/>
<path d="M52.2405 21.2358C52.2405 21.2358 52.2405 21.2805 52.2405 21.3029C52.2405 21.3029 52.2629 21.3029 52.2741 21.3029C52.2741 21.2805 52.2741 21.2582 52.2741 21.2358C52.2629 21.2358 52.2517 21.2358 52.2405 21.2358Z" fill="black"/>
<path d="M58.2683 7.01962C57.3691 9.21029 56.4699 11.5463 55.7817 13.8599C55.6152 14.8993 56.037 15.9499 56.037 16.967C56.1036 19.0571 54.161 20.3089 52.5291 21.2366C52.5735 21.2366 52.6179 21.2366 52.6623 21.2366C53.1619 21.0242 53.6836 20.7113 54.1499 20.4207C55.3266 19.683 56.37 18.4424 56.2812 16.967C56.259 15.9164 55.815 14.9328 55.9593 13.8934C56.592 11.5686 57.4801 9.2997 58.2794 7.01962" fill="#E6E6E6"/>
<path d="M52.396 21.3024C52.396 21.3024 52.3294 21.336 52.296 21.3583C52.3516 21.336 52.4071 21.3248 52.4738 21.3024C52.4516 21.3024 52.4294 21.3024 52.4071 21.3024" fill="#E6E6E6"/>
<path d="M52.6515 21.2361C52.6515 21.2361 52.5626 21.2361 52.5182 21.2361C52.4737 21.2584 52.4293 21.2808 52.396 21.3032C52.4182 21.3032 52.4404 21.3032 52.4626 21.3032C52.5293 21.2808 52.5848 21.2584 52.6515 21.2249" fill="black"/>
<path d="M51.9741 67.2737C51.9741 75.0081 46.1795 81.5801 38.0981 83.9943H38.0759C35.9556 84.6314 33.6799 84.9667 31.3155 84.9667C19.8927 84.9667 10.6346 77.0423 10.6346 67.2737C10.6346 57.5052 19.2156 50.1732 30.0611 49.6143C30.4829 49.592 30.8936 49.5808 31.3155 49.5808C33.4357 49.5808 35.4894 49.849 37.4209 50.3743C39.9186 51.0226 42.2054 52.0732 44.1924 53.448C48.9436 56.6781 51.9852 61.6741 51.9852 67.2737H51.9741Z" fill="white"/>
<path d="M51.9741 67.2734H51.9408C51.9408 74.9855 46.1573 81.5463 38.0869 83.9605H38.0647C35.9445 84.5975 33.6688 84.9329 31.3154 84.9329C25.6096 84.9329 20.4477 82.9545 16.7067 79.758C12.9658 76.5614 10.6679 72.1465 10.6568 67.2734C10.6568 57.8849 19.2155 50.2064 30.0499 49.6475C30.4607 49.6252 30.8825 49.614 31.3043 49.614C33.4246 49.614 35.4783 49.8822 37.4098 50.4075C39.8964 51.0558 42.1832 52.1064 44.1702 53.47C48.9214 56.7001 51.9519 61.685 51.9519 67.2734H52.0185C52.0185 61.6626 48.9658 56.6554 44.2035 53.4141C42.2054 52.0505 39.9186 50.9887 37.4209 50.3405C35.4894 49.8152 33.4246 49.5469 31.3043 49.5469C30.8825 49.5469 30.4607 49.5581 30.0499 49.5805C19.1933 50.1281 10.5902 57.8402 10.5902 67.2734C10.5902 72.1689 12.9103 76.6061 16.6623 79.8139C20.4144 83.0216 25.5874 84.9999 31.3154 84.9999C33.691 84.9999 35.9667 84.6646 38.0869 84.0275H38.1314C46.2239 81.6133 52.0407 75.0302 52.0407 67.2734H52.0074H51.9741Z" fill="black"/>
<path d="M46.4903 45.4237C46.4903 51.1574 42.0833 56.0305 35.9334 57.8188H35.9112C34.3016 58.2882 32.5698 58.5341 30.7715 58.5341C27.1193 58.5341 23.7669 57.5059 21.1027 55.7623C19.2599 54.5664 17.7391 53.0239 16.6846 51.258C16.5846 51.0904 16.4958 50.9227 16.407 50.755C16.1961 50.375 16.0185 49.995 15.8631 49.5927C15.3302 48.285 15.0416 46.8767 15.0416 45.4125C15.0416 38.4382 21.5689 32.738 29.8168 32.3244C30.1388 32.3132 30.4496 32.3021 30.7715 32.3021C32.3811 32.3021 33.9574 32.5032 35.4228 32.8944C37.3099 33.375 39.0638 34.1574 40.5735 35.1633C44.1924 37.5664 46.5014 41.2659 46.5014 45.4125" fill="white"/>
<path d="M46.4903 45.4236H46.457C46.457 51.1462 42.061 56.0081 35.9334 57.7852H35.9223C34.3127 58.2546 32.5809 58.5005 30.7826 58.5005C27.1415 58.5005 23.7891 57.4723 21.1249 55.7287C19.2821 54.5328 17.7724 53.0015 16.7179 51.2356C16.6179 51.0679 16.5291 50.9003 16.4403 50.7326C16.2294 50.3526 16.0518 49.9726 15.8964 49.5702C15.3636 48.2625 15.0749 46.8654 15.0749 45.4013C15.0749 38.4604 21.58 32.7602 29.8168 32.3467C30.1388 32.3355 30.4496 32.3243 30.7715 32.3243C32.3811 32.3243 33.9463 32.5255 35.4116 32.9167C37.2988 33.3973 39.0416 34.1685 40.5513 35.1856C44.1591 37.5886 46.457 41.277 46.457 45.4124H46.5236C46.5236 41.2546 44.2035 37.5439 40.5846 35.1297C39.0638 34.1126 37.321 33.3302 35.4228 32.8496C33.9574 32.4585 32.3811 32.2573 30.7604 32.2573C30.4385 32.2573 30.1166 32.2684 29.7946 32.2796C21.5356 32.6932 14.9861 38.4045 14.9861 45.4013C14.9861 46.8654 15.2747 48.2849 15.8076 49.5926C15.963 49.9949 16.1406 50.3861 16.3515 50.7661L16.3848 50.7438H16.3515C16.4403 50.9226 16.5291 51.0903 16.629 51.2579C17.6836 53.0239 19.2044 54.5663 21.0583 55.7734C23.7336 57.517 27.0971 58.5564 30.7493 58.5564C32.5476 58.5564 34.2905 58.2994 35.9001 57.8411H35.9334L35.9223 57.7964V57.8299C42.0832 56.0416 46.5125 51.1573 46.5125 45.4013H46.4792" fill="black"/>
<path d="M40.1406 30.1665C40.1406 30.8147 40.0629 31.4183 39.9297 31.9883C39.8853 32.2118 39.8187 32.4242 39.741 32.6366C39.1749 34.3243 37.9982 35.5872 36.433 36.4367C34.8566 37.2861 32.9029 37.722 30.7826 37.722C25.6096 37.722 21.4024 35.1737 21.4024 30.1777C21.4024 29.6412 21.4468 29.127 21.5467 28.6129C21.6244 28.2105 21.7244 27.797 21.8576 27.417C21.9797 27.037 22.124 26.6681 22.3016 26.3216C23.8002 23.248 27.0306 21.1244 30.7826 21.1244C33.6133 21.1244 36.1443 22.3315 37.865 24.2539C38.0537 24.4551 38.2313 24.6786 38.3978 24.9022C39.4968 26.3887 40.1517 28.2105 40.1517 30.1777" fill="white"/>
<path d="M40.1406 30.1664H40.1073C40.1073 30.8147 40.0296 31.407 39.8964 31.9771C39.852 32.2006 39.7965 32.413 39.7077 32.6141C39.1415 34.2907 37.9759 35.5425 36.4107 36.3919L36.4329 36.4254V36.3919H36.4107C34.8455 37.2414 32.8917 37.6773 30.7715 37.6773C28.185 37.6773 25.8538 37.0402 24.1665 35.7884C22.4792 34.5366 21.4357 32.6588 21.4357 30.1664C21.4357 29.6411 21.4801 29.1158 21.5689 28.6128C21.6466 28.2105 21.7465 27.8081 21.8797 27.4169C22.0018 27.0369 22.1461 26.6792 22.3238 26.3216H22.2905H22.3127C23.8113 23.2703 27.0305 21.1467 30.7604 21.1467C33.58 21.1467 36.0999 22.3538 37.8205 24.265C38.0092 24.4662 38.1868 24.6786 38.3423 24.9133C39.4412 26.3886 40.0962 28.2105 40.0962 30.1664H40.1628C40.1628 28.1881 39.5078 26.3551 38.3978 24.8686C38.2312 24.645 38.0536 24.4327 37.8649 24.2203C36.1443 22.2979 33.6022 21.0796 30.7604 21.0796C27.0083 21.0796 23.7558 23.2144 22.2571 26.288H22.2905H22.2683C22.0906 26.6457 21.9463 27.0145 21.8242 27.3945C21.691 27.7857 21.58 28.1881 21.5134 28.6016C21.4246 29.1158 21.3691 29.6411 21.3691 30.1776C21.3691 32.6924 22.4237 34.5924 24.1332 35.8554C25.8427 37.1184 28.185 37.7667 30.7826 37.7667C32.914 37.7667 34.8677 37.3308 36.4551 36.4813L36.4329 36.4478V36.4813H36.4551C38.0314 35.6207 39.2081 34.3466 39.7854 32.6588C39.8631 32.4465 39.9297 32.2341 39.9741 32.0106C40.1184 31.4406 40.185 30.837 40.185 30.1888H40.1517" fill="black"/>
<path d="M23.123 35.4305C23.123 35.4305 20.7252 40.3707 19.9926 44.0702C19.2488 47.7698 17.1397 51.1899 16.8177 51.514C16.7511 51.5699 17.4394 51.5476 17.8834 52.0282C18.4051 52.5982 18.4829 53.5259 19.5596 53.9282C21.2914 54.5877 22.9121 54.23 22.9121 54.23C22.9121 54.23 22.9121 53.8947 22.9454 53.7047C22.9787 53.5147 26.8418 36.3917 26.8418 36.3917C26.8418 36.3917 26.5976 35.9447 25.0879 35.5088C23.9889 35.1958 23.123 35.4305 23.123 35.4305Z" fill="white"/>
<path d="M23.123 35.4313H23.0897C23.0897 35.4313 20.6919 40.3492 19.9482 44.0599C19.5818 45.9041 18.8714 47.6812 18.2053 49.0448C17.8723 49.7265 17.5615 50.2966 17.3062 50.7213C17.0508 51.146 16.851 51.4142 16.7844 51.4925V51.526V51.5707C16.8177 51.5931 16.8621 51.5931 16.9398 51.6154C17.1508 51.6601 17.5504 51.7607 17.839 52.0737C18.3496 52.6214 18.4273 53.5714 19.5263 53.9849C20.3589 54.2979 21.1693 54.3873 21.7909 54.3873C22.457 54.3873 22.901 54.2867 22.901 54.2867H22.9232V54.2532C22.9232 54.2532 22.9232 53.9179 22.9565 53.7279C22.9676 53.6273 23.9445 49.3018 24.9213 44.9987C25.4098 42.8416 25.8871 40.6956 26.2534 39.0974C26.431 38.2926 26.5865 37.622 26.6864 37.1526C26.7974 36.6831 26.8529 36.4149 26.8529 36.4149V36.3925C26.8529 36.3814 26.5976 35.9343 25.0879 35.4984C24.6438 35.3755 24.2442 35.3307 23.9112 35.3307C23.4227 35.3307 23.1008 35.4202 23.1008 35.4202H23.0897V35.4425H23.123V35.4872C23.123 35.4872 23.2007 35.4649 23.3339 35.4425C23.4671 35.4202 23.6669 35.3978 23.9112 35.3978C24.2331 35.3978 24.6327 35.4313 25.0656 35.5655C25.8205 35.7778 26.2534 36.0014 26.4977 36.169C26.6198 36.2473 26.6975 36.3143 26.7419 36.3702L26.7863 36.4261V36.4373L26.8196 36.4149H26.7863C26.7863 36.4149 22.9232 53.5267 22.8899 53.7279C22.8566 53.929 22.8455 54.2643 22.8455 54.2643H22.8788V54.2308C22.8788 54.2308 22.7678 54.2532 22.5791 54.2755C22.3903 54.2979 22.1128 54.3202 21.7798 54.3202C21.1693 54.3202 20.37 54.242 19.5485 53.929C18.4828 53.5267 18.4273 52.6213 17.8834 52.0402C17.6614 51.8054 17.395 51.6825 17.173 51.6266C17.0619 51.5931 16.9731 51.5707 16.9065 51.5595C16.8732 51.5595 16.851 51.5484 16.8288 51.5372V51.526H16.8399L16.8177 51.5484H16.8399V51.526L16.8177 51.5484L16.8399 51.5707V51.5484H16.8177L16.8399 51.5707C16.9287 51.4813 17.1174 51.2131 17.3839 50.7883C18.1498 49.5142 19.4819 46.8988 20.037 44.1158C20.4033 42.2716 21.1915 40.1144 21.8797 38.4156C22.2238 37.5661 22.5458 36.8396 22.7789 36.3143C23.012 35.789 23.1674 35.4872 23.1674 35.4872H23.1341V35.5096V35.476L23.123 35.4313Z" fill="black"/>
<path d="M39.741 35.7095C39.519 36.0336 39.2415 36.3354 38.9307 36.6036H38.9195C38.3645 37.1066 37.6874 37.5201 36.9325 37.8554H36.9103C31.8927 40.0684 23.2563 39.1184 21.3913 36.9725C20.692 36.1789 20.7364 35.6312 20.8363 35.05C20.8585 34.9047 20.8918 34.7483 20.914 34.5918C21.1027 33.3064 21.791 32.7029 21.791 32.7029C21.791 32.7029 24.222 33.8318 27.852 34.1894C27.963 34.2006 28.0851 34.2118 28.1961 34.2229C28.3737 34.2341 28.5514 34.2453 28.729 34.2677C29.8391 34.413 30.9269 34.4688 31.9371 34.4688C36.1998 34.4465 39.4302 33.3512 39.4302 33.3512C39.4302 33.3512 40.296 34.3794 39.7299 35.6983" fill="white"/>
<path d="M39.741 35.7094L39.7077 35.687C39.4857 36.0112 39.2193 36.3129 38.9084 36.5812L38.9306 36.6035V36.57H38.8973C38.3423 37.0618 37.6762 37.4753 36.9214 37.8106H36.8992C34.9121 38.6936 32.3367 39.0625 29.8502 39.0625C26.0981 39.0625 22.5236 38.2018 21.4246 36.9277C20.9473 36.38 20.8252 35.9553 20.8252 35.5529C20.8252 35.3741 20.8474 35.2064 20.8807 35.0276C20.9029 34.8823 20.9362 34.7258 20.9584 34.5694C21.0583 33.9323 21.2692 33.4628 21.469 33.1611C21.5689 33.0046 21.6577 32.8928 21.7243 32.8146C21.7576 32.7811 21.7798 32.7475 21.802 32.7363L21.8353 32.714L21.8131 32.6916V32.7252C21.8131 32.7252 24.2331 33.854 27.8631 34.2229C27.9741 34.234 28.0962 34.2452 28.2072 34.2564C28.3848 34.2676 28.5625 34.2788 28.7401 34.3011C29.7946 34.4352 30.827 34.5023 31.8039 34.5023C31.8594 34.5023 31.9038 34.5023 31.9593 34.5023C36.2331 34.4799 39.4635 33.3846 39.4635 33.3846V33.3511L39.4302 33.3734C39.4302 33.3734 39.4635 33.407 39.5079 33.474C39.6411 33.6752 39.9186 34.1558 39.9186 34.7817C39.9186 35.0611 39.8631 35.3629 39.7299 35.6759L39.7632 35.6982H39.7965C39.9408 35.3853 39.9963 35.0723 39.9963 34.7817C39.9963 33.9211 39.4968 33.3287 39.4968 33.3287V33.3064H39.4635C39.4635 33.3064 39.2637 33.3734 38.8973 33.474C37.7872 33.787 35.1785 34.4017 31.9815 34.4241C31.9815 34.4241 31.8816 34.4241 31.8261 34.4241C30.8492 34.4241 29.8279 34.3682 28.7734 34.2229C28.5958 34.2005 28.4181 34.2005 28.2405 34.1782C28.1295 34.1782 28.0074 34.1558 27.8964 34.1446C26.087 33.9658 24.5772 33.5858 23.5116 33.2617C22.9787 33.094 22.568 32.9487 22.2794 32.8369C21.9908 32.7252 21.8464 32.6581 21.8464 32.6581H21.8242H21.802C21.802 32.6581 21.1027 33.2728 20.914 34.5694C20.8918 34.7258 20.8585 34.8711 20.8363 35.0164C20.803 35.1953 20.7808 35.3741 20.7808 35.5529C20.7808 35.9665 20.914 36.4135 21.4024 36.9724C22.5458 38.2689 26.1203 39.1295 29.8835 39.1295C32.3811 39.1295 34.9565 38.7495 36.9658 37.8665H36.988C37.7539 37.52 38.4311 37.1065 38.9861 36.6147L38.9639 36.5924V36.6259H38.9972C39.3081 36.3465 39.5856 36.0447 39.8076 35.7206H39.7743" fill="black"/>
<path d="M28.7289 34.2906L28.3293 37.5877L26.5643 51.9947L26.5421 52.33C26.5421 52.33 25.7761 51.7823 24.4218 52.8218C23.012 53.8948 19.9704 51.8829 19.9704 51.5253C19.9704 51.5253 20.1369 51.4023 20.2701 51.0894C20.8695 49.6252 22.4792 45.1768 22.7123 42.6508C23.0675 38.8842 24.9324 33.7317 24.9324 33.7317C24.9324 33.7317 24.999 33.7094 25.1323 33.6758C25.4431 33.5864 26.1091 33.4635 26.9084 33.6088C28.4514 33.877 28.74 34.3017 28.74 34.3017" fill="white"/>
<path d="M28.7289 34.2913H28.6956L28.296 37.5885L26.531 51.9843L26.5088 52.3196H26.5421L26.5643 52.2972C26.5643 52.2972 26.3533 52.1519 25.9648 52.1519C25.5985 52.1519 25.0656 52.2861 24.4107 52.789C24.1332 53.0014 23.778 53.0908 23.3894 53.0908C22.6568 53.0908 21.802 52.7667 21.1359 52.3978C20.8029 52.219 20.5143 52.029 20.3145 51.8613C20.2146 51.7831 20.1369 51.7049 20.0814 51.649C20.0259 51.5931 20.0037 51.5372 20.0037 51.526H19.9704L19.9926 51.5596C19.9926 51.5596 20.1702 51.4366 20.3034 51.1125C20.9028 49.6483 22.5125 45.1999 22.7567 42.6628C22.9343 40.7851 23.4893 38.5609 24 36.7949C24.2553 35.912 24.4995 35.1519 24.6771 34.6155C24.8547 34.0678 24.9768 33.7548 24.9768 33.7548H24.9435L24.9546 33.7772C24.9546 33.7772 25.0212 33.7548 25.1434 33.7213C25.3543 33.6654 25.7095 33.5872 26.1646 33.5872C26.3867 33.5872 26.6309 33.6095 26.8973 33.6542C27.6632 33.7884 28.1184 33.9672 28.3848 34.1013C28.518 34.1684 28.5957 34.2243 28.6512 34.269L28.7067 34.3137V34.3249L28.74 34.3025L28.7733 34.2801C28.7733 34.2801 28.4625 33.8442 26.9195 33.576C26.6531 33.5313 26.4088 33.5089 26.1757 33.5089C25.7095 33.5089 25.3432 33.5872 25.1323 33.6431C24.999 33.6766 24.9324 33.7101 24.9324 33.7101H24.9213V33.7325C24.9213 33.7325 23.0564 38.8962 22.7012 42.6628C22.4681 45.1776 20.8473 49.6371 20.259 51.0901C20.1924 51.2466 20.1258 51.3472 20.0703 51.4143C20.037 51.4478 20.0148 51.4701 20.0037 51.4813H19.9815V51.5037H19.9704V51.5372C19.9704 51.5372 20.0037 51.649 20.0592 51.7049C20.4588 52.1519 22.0906 53.169 23.4116 53.169C23.8113 53.169 24.1776 53.0796 24.4773 52.8449C25.1323 52.3419 25.6429 52.219 25.9981 52.219C26.1868 52.219 26.32 52.2525 26.4199 52.2861C26.4644 52.3084 26.4977 52.3196 26.531 52.3308L26.5643 52.3531L26.6198 52.3867L26.642 51.9843L28.407 37.5997L28.8177 34.2801H28.7844" fill="black"/>
<path d="M26.1649 33.5638C25.8762 33.5638 25.6319 33.5973 25.432 33.6309C25.6763 33.6309 26.0316 33.6644 26.398 33.7315C26.8866 33.8209 27.3752 33.9885 27.5972 34.3238C27.8526 34.7039 28.0414 35.5198 28.1635 36.2463C28.2413 36.671 28.2968 37.0622 28.3301 37.3081L28.6965 34.2903L28.641 34.2344C28.5966 34.1897 28.5078 34.1338 28.3745 34.0668C28.1191 33.9326 27.6639 33.7538 26.8866 33.6197C26.6312 33.575 26.3758 33.5526 26.1538 33.5526" fill="white"/>
<path d="M26.1649 33.5646C26.3869 33.5646 26.6312 33.587 26.8977 33.6317C27.6639 33.7658 28.1191 33.9447 28.3856 34.0788C28.5189 34.1458 28.5966 34.2017 28.6521 34.2464C28.6521 34.2464 28.5189 34.1458 28.3856 34.0788C28.1302 33.9447 27.675 33.7658 26.8977 33.6317C26.6423 33.587 26.3869 33.5646 26.1649 33.5646Z" fill="#7A7A7A"/>
<path d="M26.1649 33.4969C26.387 33.4969 26.6424 33.5193 26.9089 33.564C28.2968 33.8099 28.6744 34.1675 28.7521 34.257C28.6855 34.1787 28.2968 33.8099 26.9089 33.564C26.6424 33.5193 26.3981 33.4969 26.1649 33.4969Z" fill="white"/>
<path d="M26.165 33.4969C25.6986 33.4969 25.3322 33.5752 25.1212 33.6311L25.0546 33.7093H25.1434C25.1434 33.7093 25.1434 33.7093 25.1545 33.7093C25.2323 33.6869 25.3322 33.6646 25.4432 33.6422C25.6431 33.6087 25.8874 33.5752 26.1761 33.5752C26.3982 33.5752 26.6424 33.5975 26.9089 33.6422C27.6751 33.7764 28.1303 33.9552 28.3968 34.0893C28.5301 34.1564 28.6078 34.2123 28.6633 34.257L28.7188 34.3017L28.3191 37.5877V37.5988L28.3413 37.7665L28.3968 37.61L28.8077 34.2905H28.7744L28.8077 34.2681C28.8077 34.2681 28.8077 34.2681 28.7966 34.257C28.73 34.1787 28.3413 33.8099 26.9533 33.564C26.6869 33.5193 26.4426 33.4969 26.2094 33.4969" fill="black"/>
<path d="M25.4321 33.6313C25.3211 33.6536 25.2211 33.676 25.1434 33.6983C25.1434 33.6983 25.1434 33.6983 25.1323 33.6983C25.1323 33.6983 25.1656 33.6983 25.2322 33.6983C25.4321 33.6983 25.9096 33.6983 26.387 33.7989C26.8645 33.8883 27.3419 34.056 27.5418 34.3689C27.775 34.7266 27.9749 35.5425 28.097 36.2578C28.1636 36.6155 28.208 36.9508 28.2414 37.1967C28.2747 37.4202 28.2858 37.5655 28.2858 37.5991L28.6855 34.3131L28.3191 37.3308C28.2858 37.0849 28.2302 36.6937 28.1525 36.269C28.0193 35.5425 27.8305 34.7378 27.5862 34.3466C27.3642 34.0113 26.8645 33.8436 26.387 33.7542C26.0206 33.6872 25.6653 33.6648 25.421 33.6536" fill="white"/>
<path d="M39.4302 33.4074C39.1305 33.508 36.0111 34.5027 31.9593 34.5251C31.9482 34.5362 31.9149 34.5698 31.8594 34.6033C31.7928 34.6592 31.7151 34.7486 31.6263 34.838C31.4598 35.028 31.2933 35.2851 31.2933 35.5086C31.2933 35.5533 31.2933 35.6092 31.3155 35.6539C31.3266 35.6986 31.4154 35.7433 31.5708 35.7769C31.7262 35.8104 31.9371 35.8216 32.1924 35.8216C33.6355 35.8216 36.3553 35.3857 37.1656 35.028C37.6541 34.8157 38.0648 34.7151 38.3645 34.7151C38.5421 34.7151 38.6864 34.7486 38.7863 34.8157C38.8862 34.8827 38.9417 34.9945 38.9417 35.1174V35.1733C38.9306 35.2404 38.864 35.2963 38.7752 35.3633C38.6864 35.4304 38.5643 35.4863 38.42 35.5645C38.1314 35.6986 37.7318 35.8551 37.321 36.0116C36.4996 36.3357 35.5893 36.6822 35.2341 36.984C35.1342 37.0734 35.0787 37.1516 35.0787 37.2187V37.2634C35.1564 37.4534 35.4339 37.554 35.8335 37.554C36.6661 37.554 37.976 37.1516 38.8418 36.5816C39.1527 36.3134 39.4191 36.0116 39.6411 35.6986C39.7743 35.3745 39.8298 35.0727 39.8298 34.8045C39.8298 34.1786 39.5523 33.698 39.4191 33.4968C39.3969 33.4633 39.3747 33.4297 39.3636 33.4185" fill="white"/>
<path d="M39.4191 33.3407C39.4191 33.3407 39.1748 33.419 38.864 33.5084C37.7539 33.8213 35.1452 34.4361 31.9482 34.4584H31.926C31.926 34.4584 31.926 34.4584 31.9371 34.4584C35.1341 34.4473 37.7428 33.8213 38.8529 33.5084C39.1637 33.419 39.3525 33.3631 39.408 33.3407" fill="white"/>
<path d="M39.4524 33.329H39.4302C39.4302 33.329 39.4302 33.329 39.4191 33.3402C39.3636 33.3625 39.1748 33.4184 38.864 33.5078C37.7539 33.8208 35.1452 34.4355 31.9482 34.4578H31.926C31.926 34.4578 31.8927 34.4802 31.8483 34.5249C31.8816 34.5249 31.9149 34.5249 31.9482 34.5249C36.0111 34.5026 39.1193 33.5078 39.4191 33.4072C39.4302 33.4184 39.4524 33.4519 39.4746 33.4855C39.6078 33.6866 39.8853 34.1673 39.8853 34.7932C39.8853 35.0614 39.8298 35.3632 39.6966 35.6873C39.4746 36.0114 39.2081 36.302 38.8973 36.5703C38.7863 36.6709 38.6642 36.7715 38.5421 36.8609C38.6753 36.7826 38.8085 36.7156 38.9306 36.6262H38.9417C39.2526 36.3467 39.5301 36.045 39.7521 35.7208C39.8964 35.3855 39.9519 35.0726 39.9519 34.7932C39.9519 33.9325 39.4524 33.3402 39.4524 33.3402V33.3178" fill="black"/>
<path d="M39.7077 35.6873C39.4857 36.0115 39.2192 36.3021 38.9084 36.5703C39.2192 36.3021 39.4857 36.0003 39.7077 35.6873ZM31.9593 34.525C31.9593 34.525 31.8927 34.525 31.8594 34.525C31.7928 34.5808 31.6929 34.6814 31.593 34.7932C31.4265 34.9944 31.2488 35.2515 31.2488 35.5085C31.2488 35.5644 31.2488 35.6203 31.2821 35.6762C31.3154 35.7656 31.4376 35.8103 31.593 35.8438C31.7595 35.8774 31.9704 35.8885 32.2368 35.8885C33.691 35.8885 36.4107 35.4526 37.2433 35.0838C37.7317 34.8714 38.1314 34.7708 38.42 34.7708C38.5865 34.7708 38.7197 34.8044 38.8085 34.8603C38.8973 34.9161 38.9306 34.9944 38.9306 35.1062V35.162C38.9306 35.162 38.864 35.2626 38.7641 35.3297C38.3867 35.5756 37.4764 35.8997 36.6549 36.2238C36.2442 36.3915 35.8557 36.5591 35.5671 36.7268C35.4228 36.805 35.3006 36.8944 35.2229 36.9727C35.1341 37.0509 35.0897 37.1403 35.0897 37.2186V37.2856C35.2007 37.5315 35.5116 37.6209 35.9223 37.6209C36.6549 37.6209 37.7317 37.3192 38.5865 36.8721C38.7086 36.7827 38.8196 36.6821 38.9417 36.5815C38.0759 37.1515 36.766 37.5427 35.9334 37.5427C35.5338 37.5427 35.2562 37.4421 35.1896 37.2521V37.2074C35.1896 37.1403 35.234 37.0621 35.3339 36.9727C35.6892 36.6709 36.5883 36.3133 37.4209 36.0003C37.8316 35.8438 38.2202 35.6873 38.5199 35.5532C38.6642 35.4862 38.7863 35.4191 38.8751 35.352C38.9639 35.285 39.0194 35.2291 39.0305 35.162V35.1062C39.0305 34.9832 38.975 34.8714 38.8751 34.8044C38.7752 34.7373 38.6309 34.7038 38.4533 34.7038C38.1536 34.7038 37.7428 34.8044 37.2544 35.0167C36.444 35.3744 33.7132 35.8103 32.2812 35.8103C32.0259 35.8103 31.815 35.7991 31.6596 35.7656C31.5042 35.7321 31.4154 35.6873 31.4043 35.6426C31.382 35.5979 31.3821 35.5532 31.3821 35.4973C31.3821 35.2738 31.5486 35.0167 31.7151 34.8267C31.8039 34.7261 31.8816 34.6479 31.9482 34.592C31.9926 34.5473 32.0259 34.525 32.0481 34.5138" fill="white"/>
<path d="M29.1519 28.6125C29.1519 28.9481 28.8853 29.2165 28.5519 29.2165C28.2186 29.2165 27.9519 28.9481 27.9519 28.6125C27.9519 28.277 28.2186 28.0086 28.5519 28.0086C28.8853 28.0086 29.1519 28.277 29.1519 28.6125Z" fill="white"/>
<path d="M29.1519 28.6133H29.1186C29.1186 28.9265 28.863 29.1725 28.5519 29.1837C28.2408 29.1837 27.9964 28.9265 27.9853 28.6133C27.9853 28.3002 28.2408 28.0541 28.5519 28.0429C28.863 28.0429 29.1075 28.3002 29.1186 28.6133H29.1852C29.1852 28.2666 28.9075 27.9758 28.5519 27.9758C28.2075 27.9758 27.9186 28.2554 27.9186 28.6133C27.9186 28.96 28.1964 29.2508 28.5519 29.2508C28.8964 29.2508 29.1852 28.9712 29.1852 28.6133H29.1519Z" fill="black"/>
<path d="M36.9114 27.2385C36.9114 27.5741 36.6448 27.8425 36.3114 27.8425C35.9781 27.8425 35.7114 27.5741 35.7114 27.2385C35.7114 26.903 35.9781 26.6346 36.3114 26.6346C36.6448 26.6346 36.9114 26.903 36.9114 27.2385Z" fill="white"/>
<path d="M36.9114 27.2382H36.8781C36.8781 27.5514 36.6225 27.7974 36.3114 27.8086C36.0003 27.8086 35.7559 27.5514 35.7448 27.2382C35.7448 26.9251 36.0003 26.679 36.3114 26.6678C36.6225 26.6678 36.867 26.9251 36.8781 27.2382H36.9448C36.9448 26.8915 36.667 26.6007 36.3114 26.6007C35.967 26.6007 35.6781 26.8803 35.6781 27.2382C35.6781 27.5849 35.9559 27.8757 36.3114 27.8757C36.6559 27.8757 36.9448 27.5961 36.9448 27.2382H36.9114Z" fill="black"/>
<path d="M42.7715 29.4838C42.7937 29.6402 42.161 29.8861 41.1952 30.1432C41.1508 30.1432 41.1064 30.1656 41.062 30.1767C40.3738 30.3667 39.519 30.5344 38.6198 30.6797L38.4977 30.7132C38.2646 30.7468 38.0315 30.7915 37.7873 30.825C37.3321 30.9032 36.8881 30.9479 36.4441 31.0038C36.3442 31.0038 36.2443 31.0262 36.1443 31.0374H36.0777C35.4006 31.1156 34.7789 31.1715 34.2461 31.1827C34.0574 31.1827 33.8687 31.1827 33.7022 31.1603C33.0805 31.1044 32.6587 30.8809 32.5699 30.3444C32.4811 29.8303 32.4256 29.2155 32.5255 28.7126V28.679C32.6143 28.2543 32.8141 27.9078 33.1804 27.7737C33.3136 27.7178 33.469 27.6955 33.6578 27.7067C33.8798 27.7067 34.2905 27.7514 34.8233 27.8184C34.9233 27.8184 35.0232 27.8408 35.1342 27.852C35.8002 27.9414 36.6217 28.0531 37.4653 28.1873C37.543 28.1873 37.6208 28.2096 37.7096 28.2208C38.4089 28.3326 39.1194 28.4555 39.7854 28.5896C39.8409 28.5896 39.8964 28.612 39.9519 28.6232C40.7512 28.7796 41.4616 28.9361 41.9723 29.0926C42.4718 29.2491 42.7715 29.372 42.7937 29.4949L42.7715 29.4838Z" fill="white"/>
<path d="M42.7715 29.4847H42.7382C42.7382 29.4959 42.716 29.5406 42.6383 29.5853C42.4274 29.7306 41.8946 29.9094 41.1841 30.0994C41.1397 30.0994 41.0953 30.1218 41.0509 30.1329C40.3627 30.3118 39.5079 30.4906 38.6087 30.6359L38.4866 30.6694C38.2535 30.703 38.0204 30.7477 37.7762 30.7812H37.7651C37.321 30.8594 36.8659 30.9042 36.433 30.96C36.3331 30.96 36.2331 30.9824 36.1332 30.9936H36.0666C35.3895 31.0606 34.7678 31.1165 34.235 31.1277C34.0463 31.1277 33.8576 31.1277 33.6911 31.1053C33.3802 31.0718 33.1249 31.0047 32.9362 30.8818C32.7475 30.7589 32.6254 30.58 32.581 30.323C32.5255 29.9988 32.4811 29.6412 32.4811 29.2947C32.4811 29.0935 32.4922 28.8923 32.5366 28.7023V28.6688L32.5033 28.6576H32.5366C32.6254 28.2441 32.8141 27.9199 33.1693 27.7858C33.2803 27.7411 33.4024 27.7187 33.5467 27.7187C33.58 27.7187 33.6022 27.7187 33.6355 27.7187C33.8576 27.7187 34.2683 27.7635 34.8011 27.8305C34.901 27.8305 35.001 27.8529 35.112 27.864C35.778 27.9535 36.5995 28.0652 37.4431 28.1994C37.5208 28.1994 37.5985 28.2217 37.6874 28.2329C38.3867 28.3447 39.0972 28.4676 39.7632 28.6017C39.7632 28.6017 39.8742 28.6241 39.9297 28.6353C40.729 28.7917 41.4394 28.9482 41.9501 29.1047C42.1943 29.1829 42.3941 29.25 42.5384 29.317C42.6827 29.3841 42.7493 29.4512 42.7493 29.4847H42.7826L42.8159 29.4735C42.7937 29.3841 42.7049 29.3282 42.5606 29.25C42.4163 29.1829 42.2165 29.1159 41.9612 29.0376C41.4505 28.8811 40.729 28.7247 39.9297 28.5682C39.9297 28.5682 39.8187 28.5458 39.7632 28.5347C39.1083 28.4005 38.3867 28.2776 37.6874 28.1658C37.6096 28.1658 37.5319 28.1435 37.4431 28.1323C36.5995 27.9982 35.778 27.8752 35.112 27.797C35.001 27.7746 34.8899 27.7635 34.8011 27.7523C34.2683 27.6852 33.8576 27.6405 33.6355 27.6405C33.6022 27.6405 33.58 27.6405 33.5467 27.6405C33.3913 27.6405 33.2692 27.6629 33.1471 27.7187C32.7586 27.864 32.5588 28.2105 32.47 28.6464V28.68C32.4367 28.87 32.4145 29.0711 32.4145 29.2835C32.4145 29.6412 32.4589 29.9988 32.5144 30.323C32.5588 30.6024 32.692 30.8036 32.9029 30.9377C33.1027 31.0718 33.3691 31.1389 33.6911 31.1724C33.8576 31.1948 34.0463 31.1948 34.2461 31.1948C34.7789 31.1948 35.4117 31.1277 36.0777 31.0606H36.1443C36.2442 31.0606 36.3442 31.0383 36.4441 31.0271C36.877 30.9824 37.3321 30.9265 37.7873 30.8483H37.7984C38.0426 30.8147 38.2757 30.7812 38.5088 30.7365L38.6309 30.703C39.5301 30.5577 40.3849 30.3788 41.0731 30.2C41.1175 30.2 41.173 30.1777 41.2174 30.1665C41.6948 30.0435 42.0944 29.9206 42.3719 29.8088C42.5162 29.7529 42.6272 29.6971 42.6938 29.6523C42.7715 29.5965 42.8159 29.5518 42.827 29.4847H42.7937H42.7715Z" fill="black"/>
<path d="M34.213 31.172C34.0242 31.172 33.8354 31.172 33.6689 31.1497C33.5023 30.4679 33.6133 29.4285 33.6133 29.4285C33.68 30.3561 33.9798 30.8814 34.213 31.172Z" fill="white"/>
<path d="M34.213 31.172V31.1497C34.0242 31.1497 33.8354 31.1497 33.6689 31.1273V31.1497H33.6911C33.6245 30.8591 33.6022 30.5014 33.6022 30.1885C33.6022 29.7749 33.6356 29.4396 33.6356 29.4285H33.6134H33.5911C33.6578 30.3561 33.9576 30.8926 34.2019 31.1832H34.213V31.1497V31.172H34.2241C33.9909 30.8814 33.6911 30.345 33.6244 29.4285H33.58C33.58 29.4285 33.5467 29.7638 33.5467 30.1885C33.5467 30.5014 33.5689 30.8591 33.6356 31.1609L33.6467 31.172C33.8132 31.1944 34.002 31.1944 34.2019 31.1944H34.2463L34.213 31.1609H34.2019L34.213 31.172Z" fill="black"/>
<path d="M35.1013 27.8521C34.9457 28.031 34.779 28.3106 34.679 28.7692C34.679 28.7692 34.6568 28.2547 34.7901 27.8185C34.8901 27.8185 34.9901 27.8409 35.1013 27.8521Z" fill="white"/>
<path d="M35.1012 27.8526H35.0901C34.9235 28.0204 34.7679 28.3 34.6568 28.7585H34.679H34.7012C34.7012 28.7585 34.7012 28.725 34.7012 28.6802C34.7012 28.5237 34.7124 28.1434 34.8124 27.8191H34.7901V27.8302C34.8901 27.8302 34.9901 27.8526 35.1012 27.8638V27.8414L35.0901 27.8302H35.1012C34.9901 27.8079 34.879 27.7967 34.7901 27.7967H34.7679V27.8079C34.6679 28.1434 34.6568 28.5237 34.6568 28.6914C34.6568 28.7474 34.6568 28.7697 34.6568 28.7697V28.9263L34.7012 28.7697C34.8012 28.3112 34.9679 28.0427 35.1235 27.8638L35.1457 27.8302H35.1124V27.8414L35.1012 27.8526Z" fill="black"/>
<path d="M36.4223 30.9938C36.3223 30.9938 36.2223 31.0162 36.1223 31.0274C35.9223 30.6471 35.9445 30.0991 35.9445 30.0991C36.0334 30.5576 36.2334 30.8372 36.4334 31.005L36.4223 30.9938Z" fill="white"/>
<path d="M36.4223 30.9936V30.9713C36.3112 30.9713 36.2223 30.9936 36.1112 31.0048V31.0272H36.1334C35.9667 30.7252 35.9556 30.289 35.9556 30.1436C35.9556 30.1101 35.9556 30.0989 35.9556 30.0989H35.9334H35.9112C36.0001 30.5575 36.2112 30.8482 36.4001 31.016H36.4112V30.9825V31.0048L36.4223 30.9936C36.2334 30.8259 36.0334 30.5575 35.9445 30.0989L35.9112 29.92V30.0989C35.9112 30.0989 35.9112 30.1101 35.9112 30.1436C35.9112 30.289 35.9223 30.7252 36.1001 31.0384L36.1112 31.0496C36.2112 31.0496 36.3112 31.0272 36.4112 31.016H36.4668L36.4334 30.9825H36.4223V30.9936Z" fill="black"/>
<path d="M37.6767 28.2213C37.4434 28.512 37.1323 29.1495 37.1323 29.1495C37.1434 28.9147 37.31 28.5009 37.4323 28.1877C37.51 28.1877 37.5878 28.2101 37.6767 28.2213Z" fill="white"/>
<path d="M37.6768 28.2215H37.6657C37.4323 28.5011 37.1101 29.1498 37.1101 29.1498H37.1323H37.1546C37.1657 28.9261 37.3212 28.5011 37.4546 28.1992H37.4323V28.2103C37.5101 28.2103 37.5879 28.2327 37.6768 28.2439V28.2215L37.6657 28.2103H37.6768C37.599 28.2103 37.5212 28.188 37.4323 28.1768H37.4212V28.188C37.2879 28.5011 37.1323 28.9149 37.1101 29.161V29.2617L37.1546 29.1722C37.1546 29.1722 37.2323 29.0156 37.3434 28.8143C37.4546 28.613 37.5879 28.3893 37.699 28.2439L37.7212 28.2103H37.6879V28.2327L37.6768 28.2215Z" fill="black"/>
<path d="M38.6089 30.6806L38.4867 30.7141C38.2978 30.2667 38.4867 29.7299 38.4867 29.7299C38.4756 30.1996 38.5311 30.5016 38.6089 30.6806Z" fill="white"/>
<path d="M38.6089 30.6807V30.6584L38.4756 30.6919V30.7143H38.4978C38.4311 30.5689 38.42 30.4235 38.42 30.2781C38.42 30.1327 38.4422 29.9985 38.4645 29.8978C38.4867 29.7972 38.5089 29.7413 38.5089 29.7413H38.4867H38.4645C38.4645 29.786 38.4645 29.8419 38.4645 29.8867C38.4645 30.2781 38.52 30.5353 38.5867 30.7031H38.6089V30.6696V30.6919H38.6311C38.5645 30.5353 38.5089 30.2781 38.5089 29.8867C38.5089 29.8419 38.5089 29.7972 38.5089 29.7525V29.6294L38.4645 29.7525C38.4645 29.7525 38.3756 29.9985 38.3756 30.3005C38.3756 30.4459 38.3978 30.6025 38.4645 30.7478L38.6089 30.7255H38.6311V30.6919H38.6089V30.6807Z" fill="black"/>
<path d="M39.7965 29.4298C39.7965 29.4298 39.7965 28.9489 39.7521 28.5798C39.8076 28.5798 39.8632 28.6022 39.9187 28.6134C39.9187 28.8706 39.9076 29.1726 39.7965 29.4298Z" fill="white"/>
<path d="M39.7965 29.4295H39.8187C39.8187 29.4295 39.8187 29.4071 39.8187 29.3736C39.8187 29.2394 39.8187 28.8703 39.7743 28.5795H39.7521V28.6019C39.8076 28.6019 39.8632 28.6242 39.9187 28.6354V28.6131H39.8965C39.8965 28.6466 39.8965 28.669 39.8965 28.7025C39.8965 28.9374 39.8743 29.2058 39.7743 29.4295H39.7965H39.8187C39.9076 29.2058 39.941 28.9262 39.941 28.6913C39.941 28.6578 39.941 28.6354 39.941 28.6019V28.5795H39.9187C39.8632 28.5795 39.8076 28.5571 39.7521 28.546H39.7188V28.5683C39.7632 28.8591 39.7632 29.2282 39.7632 29.3624C39.7632 29.396 39.7632 29.4183 39.7632 29.4183V29.5302L39.8076 29.4295H39.7854H39.7965Z" fill="black"/>
<path d="M41.1843 30.1442C41.1843 30.1442 41.0954 30.1666 41.051 30.1778C41.0177 29.8535 40.9177 29.4285 40.9177 29.4285C41.0399 29.5962 41.1288 29.9094 41.1954 30.1442H41.1843Z" fill="white"/>
<path d="M41.1844 30.1439V30.1215C41.1844 30.1215 41.0955 30.1439 41.0399 30.1551V30.1774H41.0622C41.0288 29.8531 40.9177 29.4281 40.9177 29.4281H40.8955L40.8733 29.4505C40.9844 29.6071 41.0844 29.9314 41.151 30.1663H41.1733H41.1955C41.1288 29.9314 41.0399 29.6071 40.9177 29.4393L40.851 29.3498L40.8733 29.4617C40.8733 29.4617 40.9733 29.8867 41.0066 30.211V30.2334H41.0288C41.0733 30.2334 41.1288 30.211 41.1733 30.1998H41.1955V30.1774H41.1733L41.1844 30.1439Z" fill="black"/>
<path d="M17.5616 41.2542C17.2396 41.2765 6.77154 47.692 6.77154 47.692L6.53842 49.8827L5.42834 50.028C5.42834 50.028 -0.0221763 54.9123 0.0444287 55.0911C0.111034 55.2699 5.62816 50.6204 5.62816 50.6204L6.44962 50.6874L5.86127 56.3541L1.94267 58.9583L5.73916 57.5612L5.59485 63.0043L7.53749 48.3179C7.53749 48.3179 8.48106 47.7703 9.80206 46.9879C9.92417 46.9096 9.35803 52.3751 9.49124 52.2969C9.55785 52.2634 9.77987 50.9668 10.013 49.6144C10.0352 49.5139 10.7789 50.7098 10.79 50.598C10.8122 50.4527 10.1129 49.0109 10.1351 48.8656C10.346 47.6473 10.5347 46.5632 10.6013 46.5185C13.7096 44.6855 18.0722 42.1036 18.1166 42.003C18.1832 41.8465 17.8946 41.2206 17.5616 41.2542Z" fill="white"/>
<path d="M17.5615 41.2539V41.2204C17.5615 41.2204 17.4727 41.2539 17.3728 41.2986C15.9519 42.0251 6.76041 47.6582 6.74931 47.6582H6.73821L6.50509 49.8489L5.40611 49.9942C5.40611 49.9942 4.06291 51.2125 2.70861 52.4419C2.03146 53.0567 1.36541 53.6826 0.854769 54.1744C0.59945 54.4202 0.388531 54.6214 0.24422 54.7779C0.166514 54.8561 0.111014 54.9232 0.0666108 54.9679L0.0222064 55.035L0 55.0909V55.1132L0.0333096 55.102H0L0.0444043 55.1467C0.0777068 55.1467 0.11101 55.1244 0.166514 55.0909C0.577245 54.845 1.94265 53.7385 3.20815 52.6878C4.47364 51.6484 5.63923 50.6648 5.63923 50.6648L5.61703 50.6425V50.676L6.40519 50.7319L5.81684 56.3427L1.66513 59.1033L5.69473 57.6168L5.55042 63.0152H5.61703L7.55967 48.3289H7.52637L7.54857 48.3512C7.54857 48.3512 8.49214 47.8035 9.81314 47.0212V46.9988L9.80204 47.0323H9.81314L9.80204 46.9988L9.77984 47.0212H9.80204V46.9988L9.77984 47.0212C9.77984 47.0212 9.77984 47.077 9.77984 47.1441C9.77984 47.8818 9.43571 51.3801 9.43571 52.1625C9.43571 52.2072 9.43571 52.2519 9.43571 52.2743V52.3078L9.45791 52.3302H9.49122L9.51342 52.3413L9.54672 52.3078C9.59113 52.2072 9.65773 51.8607 9.74654 51.3801C9.83535 50.8995 9.94635 50.2736 10.0463 49.6365H10.0241L10.0463 49.6477L10.0241 49.6254V49.6589H10.0463L10.0241 49.6254V49.6589C10.0241 49.6589 10.0352 49.6813 10.0685 49.7148C10.1573 49.8266 10.3238 50.0613 10.4681 50.2625C10.5458 50.363 10.6124 50.4636 10.6679 50.5307C10.6901 50.5642 10.7234 50.5978 10.7345 50.6201L10.7678 50.6425H10.8011H10.8344V50.6201L10.8455 50.6089C10.8455 50.5419 10.8011 50.4301 10.7456 50.2736C10.6568 50.0389 10.5125 49.726 10.4015 49.4577C10.346 49.3236 10.2905 49.2007 10.2572 49.1001C10.2239 48.9995 10.2017 48.9212 10.2017 48.8989C10.3016 48.2841 10.4015 47.7141 10.4903 47.2894C10.5347 47.077 10.568 46.8982 10.6013 46.7753C10.6124 46.7082 10.6346 46.6635 10.6346 46.63V46.5964H10.6568H10.6457L10.6346 46.5853C12.1887 45.6799 14.0537 44.5846 15.5412 43.6905C16.2849 43.2434 16.9288 42.8522 17.395 42.5728C17.6281 42.4275 17.8168 42.3157 17.939 42.2263C18.0056 42.1816 18.05 42.1481 18.0944 42.1257L18.1388 42.0922L18.161 42.0586V41.9916C18.161 41.8686 18.1055 41.701 18.0056 41.5445C17.9056 41.388 17.7613 41.2651 17.5948 41.2539H17.5726V41.2874V41.321H17.5948C17.7169 41.321 17.8501 41.4327 17.9501 41.578C18.05 41.7233 18.1055 41.891 18.1055 41.9804V42.0251H18.1166H18.0944C18.0944 42.0251 17.9723 42.1145 17.839 42.2039C16.8289 42.8522 13.2544 44.9646 10.6013 46.5294L10.5791 46.5629C10.5347 46.6523 10.4792 46.9429 10.4015 47.3565C10.3238 47.77 10.2239 48.3177 10.1351 48.8877C10.1351 48.9659 10.1795 49.0777 10.235 49.2342C10.3238 49.4689 10.4681 49.7818 10.5791 50.0501C10.6346 50.1842 10.6901 50.3183 10.7234 50.4078C10.7567 50.5083 10.7789 50.5866 10.7789 50.6089H10.8011V50.5754H10.7789L10.8011 50.6089V50.5754C10.8011 50.5754 10.79 50.5531 10.7567 50.5195C10.6679 50.4078 10.5014 50.173 10.3571 49.9719C10.2794 49.8713 10.2128 49.7707 10.1573 49.7036C10.1351 49.6701 10.1018 49.6365 10.0907 49.6142L10.0574 49.5918H10.0241H9.99075V49.6142C9.86864 50.296 9.74654 50.9554 9.65773 51.4472C9.61333 51.6931 9.56892 51.9055 9.53562 52.0507C9.52452 52.129 9.50232 52.1849 9.49122 52.2184V52.2631H9.46902L9.48011 52.2743V52.2519H9.46902L9.49122 52.2855V52.2519V52.2743V52.2408H9.48011L9.49122 52.2743L9.51342 52.2519H9.49122V52.2743L9.51342 52.2519H9.52452H9.53562C9.53562 52.2519 9.53562 52.1849 9.53562 52.1178C9.53562 51.3466 9.87974 47.8483 9.87974 47.0994C9.87974 47.0547 9.87974 47.0212 9.87974 46.9876V46.9541L9.86865 46.9317H9.83534H9.81314C9.14709 47.3229 8.58095 47.6471 8.18132 47.8818C7.78169 48.1165 7.54857 48.2506 7.54857 48.2506H7.53747L5.68363 62.2888L5.81684 57.4715L2.26457 58.7792L5.93895 56.3315L6.5384 50.6201L5.66143 50.5531C5.66143 50.5531 5.32841 50.8437 4.82887 51.2572C4.07401 51.8831 2.94173 52.8331 1.96485 53.6155C1.47642 54.0067 1.03238 54.3644 0.699358 54.6214C0.532845 54.7444 0.388532 54.8561 0.288624 54.9232C0.23312 54.9567 0.188716 54.9903 0.166514 55.0014L0.12211 55.0238H0.111015V55.0461H0.133213L0.12211 55.0238V55.0461H0.133213C0.133213 55.0461 0.155412 55.0014 0.199815 54.9567C0.52174 54.5767 1.85384 53.3361 3.09713 52.1961C3.71878 51.626 4.31823 51.0784 4.77336 50.676C5.2174 50.2736 5.50602 50.0166 5.50602 50.0166L5.48381 49.9942V50.0277L6.6272 49.8824L6.86032 47.6582H6.82701L6.84922 47.6806C6.84922 47.6806 7.01573 47.58 7.30435 47.4012C8.30343 46.7865 10.8233 45.2552 13.1212 43.8693C14.2757 43.1763 15.3636 42.5281 16.1961 42.0363C16.6069 41.7904 16.951 41.6004 17.2063 41.4551C17.3284 41.388 17.4283 41.3321 17.506 41.2986C17.5837 41.2651 17.6281 41.2427 17.6392 41.2427V41.2092L17.5615 41.2539Z" fill="black"/>
<path d="M38.1203 24.4216C38.1203 24.4216 38.0204 24.4663 37.7984 24.5445C37.4431 24.6787 36.766 24.9022 35.667 25.204C34.9787 25.394 34.124 25.6063 33.0694 25.8522H33.0361C31.1601 26.2881 29.5171 26.6123 28.1073 26.847C23.5782 27.6182 21.3913 27.5399 21.3913 27.5399L21.6355 11.4341C21.6355 11.4341 22.5902 10.9535 24.3775 10.4729C25.1989 10.2493 26.2091 10.0258 27.3636 9.84697C27.9408 9.75756 28.4737 9.6905 28.9732 9.63461C29.5948 9.56755 30.161 9.52284 30.6605 9.50049C31.9926 9.43343 32.8807 9.47814 33.1915 9.50049C33.2803 9.50049 33.3247 9.50049 33.3247 9.50049L38.1092 24.4104L38.1203 24.4216Z" fill="white"/>
<path d="M38.1203 24.4207V24.3872C38.1203 24.3872 38.0093 24.4319 37.7873 24.5101C37.432 24.6443 36.766 24.8678 35.667 25.1696C34.9787 25.3596 34.124 25.5719 33.0694 25.8178H33.0361C31.1712 26.2426 29.5282 26.5667 28.1184 26.8014C24.3108 27.4497 22.1684 27.5055 21.58 27.5055C21.469 27.5055 21.4135 27.5055 21.4135 27.5055V27.5391H21.4468L21.691 11.4332H21.6577L21.6688 11.4668C21.6688 11.4668 21.7243 11.4332 21.8465 11.3885C22.2017 11.232 23.0676 10.8744 24.4108 10.5055C25.2322 10.282 26.2313 10.0585 27.3969 9.87964C27.963 9.79022 28.507 9.72316 29.0065 9.66728C29.6281 9.60022 30.1832 9.55551 30.6827 9.53315C31.2156 9.5108 31.6707 9.49962 32.0481 9.49962C32.6254 9.49962 33.025 9.52198 33.2137 9.53315C33.3025 9.53315 33.3469 9.53315 33.3469 9.53315V9.49962H33.3136L38.0981 24.4096H38.1314L38.1203 24.3648V24.3984H38.1647L33.3691 9.46609H33.3469C33.3469 9.46609 33.3025 9.46609 33.2137 9.45492C33.025 9.44374 32.6254 9.42139 32.037 9.42139C31.6596 9.42139 31.1934 9.42139 30.6716 9.45492C30.1721 9.47727 29.6059 9.52198 28.9843 9.58904C28.4848 9.64492 27.9408 9.71199 27.3636 9.8014C26.198 9.98023 25.1989 10.2038 24.3664 10.4273C22.5791 10.9079 21.6133 11.3997 21.6133 11.3997H21.5911L21.3469 27.5614H21.3802C21.3802 27.5614 21.4357 27.5614 21.5467 27.5614C22.1351 27.5614 24.2886 27.5055 28.0962 26.8573C29.506 26.6226 31.149 26.2984 33.025 25.8737H33.0583C34.1129 25.639 34.9787 25.4155 35.667 25.2255C36.766 24.9237 37.4431 24.7002 37.7984 24.566C38.0315 24.4878 38.1203 24.4431 38.1203 24.4431H38.1536V24.3984H38.1203V24.4207Z" fill="black"/>
<path d="M24.6438 26.7123C24.5772 26.824 24.3774 26.8352 24.2442 26.8911C24 27.014 23.6558 27.204 23.2895 27.4388C22.5458 27.9082 21.691 28.6123 21.2248 29.4841C20.9028 30.0988 20.7807 30.6018 20.7807 30.993C20.7807 31.3507 20.8806 31.6077 21.0138 31.7754C21.1471 31.943 21.3025 32.0101 21.4579 32.0101C21.5023 32.0101 21.5467 32.0101 21.5911 31.9877L21.7243 32.4572C21.6355 32.4907 21.5356 32.4907 21.4579 32.4907C21.3913 32.4907 21.3358 32.4907 21.2692 32.4683C21.0249 32.4236 20.7918 32.2783 20.6253 32.066C20.4144 31.7977 20.2923 31.4289 20.2923 30.9818C20.2923 30.49 20.4477 29.8977 20.7918 29.2382C21.3247 28.2547 22.246 27.517 23.012 27.014C23.7891 26.5111 24.2553 26.2093 24.444 26.2428C24.6771 26.2875 24.6993 26.567 24.6216 26.7011L24.6438 26.7123Z" fill="white"/>
<path d="M24.6439 26.7124L24.6106 26.6901C24.6106 26.6901 24.5218 26.7571 24.4552 26.7795C24.3775 26.8018 24.2997 26.8242 24.2331 26.8465C23.9889 26.9695 23.6448 27.1595 23.2785 27.3942C22.5347 27.8748 21.68 28.579 21.2026 29.4508C20.8807 30.0655 20.7475 30.5796 20.7475 30.982C20.7475 31.3508 20.8474 31.6191 20.9806 31.7867C21.1138 31.9544 21.2803 32.0438 21.4468 32.0438C21.4912 32.0438 21.5356 32.0438 21.5911 32.0214V31.9879H21.5467L21.68 32.4573H21.7133V32.4126C21.6244 32.435 21.5356 32.4462 21.4579 32.4462C21.3913 32.4462 21.3358 32.4462 21.2803 32.4238C21.0472 32.3791 20.8252 32.245 20.6587 32.0326C20.4589 31.7755 20.3368 31.4067 20.3368 30.9708C20.3368 30.4902 20.4811 29.8978 20.8363 29.2496C21.3691 28.2772 22.2794 27.5395 23.0454 27.0366C23.4117 26.8018 23.7114 26.6118 23.9445 26.4777C24.1776 26.3436 24.3441 26.2765 24.433 26.2765H24.4552C24.5884 26.3101 24.6439 26.4218 24.6439 26.5336C24.6439 26.5895 24.6328 26.6454 24.6106 26.6789L24.6439 26.7012L24.6772 26.7236C24.6772 26.7236 24.7216 26.6118 24.7216 26.5448C24.7216 26.4106 24.655 26.2542 24.4774 26.2206H24.4441C24.3219 26.2206 24.1554 26.2989 23.9223 26.433C23.6892 26.5671 23.3895 26.7571 23.0232 26.9918C22.2461 27.4948 21.3247 28.2325 20.7808 29.2272C20.4256 29.8867 20.2701 30.4902 20.2701 30.982C20.2701 31.4402 20.3923 31.8202 20.6032 32.0885C20.7697 32.312 21.0028 32.4573 21.2692 32.502C21.3358 32.5132 21.4024 32.5244 21.4579 32.5244C21.5467 32.5244 21.6466 32.5244 21.7355 32.4797H21.7688L21.6133 31.932H21.58C21.58 31.932 21.4912 31.9655 21.4579 31.9655C21.3136 31.9655 21.1693 31.8985 21.0472 31.742C20.9251 31.5855 20.8252 31.3285 20.8252 30.982C20.8252 30.5908 20.9473 30.0878 21.2692 29.4843C21.7244 28.6348 22.5791 27.9307 23.3118 27.4613C23.6781 27.2266 24.0222 27.0366 24.2664 26.9136C24.3219 26.8913 24.4108 26.8689 24.4774 26.8465C24.5551 26.8242 24.6328 26.7907 24.6772 26.7236L24.6439 26.7012V26.7124Z" fill="black"/>
<path d="M35.4457 41.1533C34.9902 41.1533 34.6235 41.5224 34.6235 41.9809C34.6235 42.4395 34.9902 42.8086 35.4457 42.8086C35.9013 42.8086 36.268 42.4395 36.268 41.9809C36.268 41.5224 35.9013 41.1533 35.4457 41.1533ZM35.1346 42.1599C35.0346 42.1599 34.9679 42.0816 34.9679 41.9921C34.9679 41.8915 35.0457 41.8244 35.1346 41.8244C35.2235 41.8244 35.3013 41.9026 35.3013 41.9921C35.3013 42.0816 35.2235 42.1599 35.1346 42.1599ZM35.7679 42.1599C35.6679 42.1599 35.6013 42.0816 35.6013 41.9921C35.6013 41.8915 35.6791 41.8244 35.7679 41.8244C35.8568 41.8244 35.9346 41.9026 35.9346 41.9921C35.9346 42.0816 35.8568 42.1599 35.7679 42.1599Z" fill="white"/>
<path d="M35.4457 41.1527C34.9791 41.1416 34.6124 41.5106 34.6013 41.9804C34.6013 42.4501 34.9791 42.8192 35.4457 42.8304C35.9124 42.8304 36.2791 42.4501 36.2902 41.9804C36.2902 41.5106 35.9124 41.1416 35.4457 41.1304V41.1639C35.8902 41.1639 36.2568 41.533 36.2568 41.9804C36.2568 42.4277 35.8902 42.7968 35.4457 42.7968C35.0013 42.7968 34.6346 42.4277 34.6346 41.9804C34.6346 41.533 35.0013 41.1639 35.4457 41.1639V41.1527ZM35.1346 42.1593C35.0457 42.1481 34.9791 42.0698 34.9791 41.9916C34.9791 41.9021 35.0457 41.835 35.1346 41.835C35.2235 41.835 35.2902 41.9021 35.2902 41.9916C35.2902 42.081 35.2235 42.1481 35.1346 42.1481V42.1817C35.2346 42.1817 35.3235 42.0922 35.3235 41.9916C35.3235 41.8909 35.2346 41.8014 35.1346 41.8014C35.0346 41.8014 34.9457 41.8797 34.9457 41.9916C34.9457 42.0922 35.0235 42.1817 35.1346 42.1817V42.1593ZM35.7679 42.1593C35.6791 42.1481 35.6124 42.0698 35.6124 41.9916C35.6124 41.9021 35.6791 41.835 35.7679 41.835C35.8568 41.835 35.9235 41.9021 35.9235 41.9916C35.9235 42.081 35.8568 42.1481 35.7679 42.1481V42.1817C35.8679 42.1817 35.9568 42.0922 35.9568 41.9916C35.9568 41.8909 35.8679 41.8014 35.7679 41.8014C35.6679 41.8014 35.5791 41.8797 35.5791 41.9916C35.5791 42.0922 35.6568 42.1817 35.7679 42.1817V42.1593Z" fill="black"/>
<path d="M35.4456 41.2756C35.0567 41.2756 34.7345 41.5888 34.7345 41.9914C34.7345 42.3829 35.0456 42.696 35.4456 42.7072C35.8345 42.7072 36.1456 42.3941 36.1568 41.9914C36.1568 41.6 35.8456 41.2756 35.4456 41.2756ZM35.4456 42.6513C35.079 42.6513 34.7901 42.3605 34.7901 41.9914C34.7901 41.6223 35.079 41.3316 35.4456 41.3316C35.8123 41.3316 36.1012 41.6223 36.1012 41.9914C36.1012 42.3605 35.8123 42.6513 35.4456 42.6513Z" fill="black"/>
<path d="M36.0785 43.981C35.623 43.981 35.2563 44.3501 35.2563 44.8087C35.2563 45.2672 35.623 45.6363 36.0785 45.6363C36.5341 45.6363 36.9007 45.2672 36.9007 44.8087C36.9007 44.3501 36.5341 43.981 36.0785 43.981ZM35.7674 44.9764C35.6674 44.9764 35.6007 44.8981 35.6007 44.8087C35.6007 44.708 35.6785 44.6409 35.7674 44.6409C35.8563 44.6409 35.9341 44.7192 35.9341 44.8087C35.9341 44.8981 35.8563 44.9764 35.7674 44.9764ZM36.4007 44.9764C36.3007 44.9764 36.2341 44.8981 36.2341 44.8087C36.2341 44.708 36.3118 44.6409 36.4007 44.6409C36.4896 44.6409 36.5674 44.7192 36.5674 44.8087C36.5674 44.8981 36.4896 44.9764 36.4007 44.9764Z" fill="white"/>
<path d="M36.0784 43.9816C35.6118 43.9704 35.2451 44.3395 35.234 44.8092C35.234 45.2789 35.6118 45.648 36.0784 45.6592C36.5451 45.6592 36.9118 45.2789 36.9229 44.8092C36.9229 44.3395 36.5451 43.9704 36.0784 43.9592V43.9927C36.5229 43.9927 36.8896 44.3618 36.8896 44.8092C36.8896 45.2566 36.5229 45.6256 36.0784 45.6256C35.634 45.6256 35.2673 45.2566 35.2673 44.8092C35.2673 44.3618 35.634 43.9927 36.0784 43.9927V43.9816ZM35.7673 44.977C35.6784 44.9658 35.6118 44.8875 35.6118 44.8092C35.6118 44.7197 35.6784 44.6526 35.7673 44.6526C35.8562 44.6526 35.9229 44.7197 35.9229 44.8092C35.9229 44.8987 35.8562 44.9658 35.7673 44.9658V44.9993C35.8673 44.9993 35.9562 44.9099 35.9562 44.8092C35.9562 44.7085 35.8673 44.6191 35.7673 44.6191C35.6673 44.6191 35.5785 44.6974 35.5785 44.8092C35.5785 44.9099 35.6562 44.9993 35.7673 44.9993V44.977ZM36.4007 44.977C36.3118 44.9658 36.2451 44.8875 36.2451 44.8092C36.2451 44.7197 36.3118 44.6526 36.4007 44.6526C36.4896 44.6526 36.5562 44.7197 36.5562 44.8092C36.5562 44.8987 36.4896 44.9658 36.4007 44.9658V44.9993C36.5007 44.9993 36.5896 44.9099 36.5896 44.8092C36.5896 44.7085 36.5007 44.6191 36.4007 44.6191C36.3007 44.6191 36.2118 44.6974 36.2118 44.8092C36.2118 44.9099 36.2896 44.9993 36.4007 44.9993V44.977Z" fill="black"/>
<path d="M36.0784 44.0924C35.6895 44.0924 35.3673 44.4056 35.3673 44.8082C35.3673 45.1997 35.6784 45.5128 36.0784 45.524C36.4673 45.524 36.7784 45.2109 36.7895 44.8082C36.7895 44.4168 36.4784 44.0924 36.0784 44.0924ZM36.0784 45.4681C35.7117 45.4681 35.4228 45.1773 35.4228 44.8082C35.4228 44.4391 35.7117 44.1484 36.0784 44.1484C36.4451 44.1484 36.7339 44.4391 36.7339 44.8082C36.7339 45.1773 36.4451 45.4681 36.0784 45.4681Z" fill="black"/>
<path d="M36.3893 47.4455C35.9338 47.4455 35.5671 47.8146 35.5671 48.2731C35.5671 48.7317 35.9338 49.1008 36.3893 49.1008C36.8449 49.1008 37.2115 48.7317 37.2115 48.2731C37.2115 47.8146 36.8449 47.4455 36.3893 47.4455ZM36.0782 48.4409C35.9782 48.4409 35.9115 48.3626 35.9115 48.2731C35.9115 48.1725 35.9893 48.1054 36.0782 48.1054C36.1671 48.1054 36.2449 48.1837 36.2449 48.2731C36.2449 48.3626 36.1671 48.4409 36.0782 48.4409ZM36.7004 48.4409C36.6004 48.4409 36.5337 48.3626 36.5337 48.2731C36.5337 48.1725 36.6115 48.1054 36.7004 48.1054C36.7893 48.1054 36.8671 48.1837 36.8671 48.2731C36.8671 48.3626 36.7893 48.4409 36.7004 48.4409Z" fill="white"/>
<path d="M36.3893 47.4449C35.9227 47.4338 35.556 47.8028 35.5449 48.2726C35.5449 48.7423 35.9227 49.1114 36.3893 49.1226C36.856 49.1226 37.2227 48.7423 37.2338 48.2726C37.2338 47.8028 36.856 47.4338 36.3893 47.4226V47.4561C36.8338 47.4561 37.2004 47.8252 37.2004 48.2726C37.2004 48.7199 36.8338 49.089 36.3893 49.089C35.9449 49.089 35.5782 48.7199 35.5782 48.2726C35.5782 47.8252 35.9449 47.4561 36.3893 47.4561V47.4449ZM36.0782 48.4403C35.9893 48.4292 35.9227 48.3509 35.9227 48.2726C35.9227 48.1831 35.9893 48.116 36.0782 48.116C36.1671 48.116 36.2338 48.1831 36.2338 48.2726C36.2338 48.362 36.1671 48.4292 36.0782 48.4292V48.4627C36.1782 48.4627 36.2671 48.3732 36.2671 48.2726C36.2671 48.1719 36.1782 48.0824 36.0782 48.0824C35.9782 48.0824 35.8893 48.1607 35.8893 48.2726C35.8893 48.3732 35.9671 48.4627 36.0782 48.4627V48.4403ZM36.7004 48.4403C36.6116 48.4292 36.5449 48.3509 36.5449 48.2726C36.5449 48.1831 36.6116 48.116 36.7004 48.116C36.7893 48.116 36.856 48.1831 36.856 48.2726C36.856 48.362 36.7893 48.4292 36.7004 48.4292V48.4627C36.8004 48.4627 36.8893 48.3732 36.8893 48.2726C36.8893 48.1719 36.8004 48.0824 36.7004 48.0824C36.6004 48.0824 36.5116 48.1607 36.5116 48.2726C36.5116 48.3732 36.5893 48.4627 36.7004 48.4627V48.4403Z" fill="black"/>
<path d="M36.3892 47.5678C36.0003 47.5678 35.6781 47.881 35.6781 48.2836C35.6781 48.6751 35.9892 48.9882 36.3892 48.9994C36.7781 48.9994 37.0892 48.6863 37.1003 48.2836C37.1003 47.8922 36.7892 47.5678 36.3892 47.5678ZM36.3892 48.9323C36.0225 48.9323 35.7337 48.6415 35.7337 48.2724C35.7337 47.9034 36.0225 47.6126 36.3892 47.6126C36.7559 47.6126 37.0448 47.9034 37.0448 48.2724C37.0448 48.6415 36.7559 48.9323 36.3892 48.9323Z" fill="black"/>
<path d="M36.2228 50.709C35.7672 50.709 35.4006 51.0781 35.4006 51.5367C35.4006 51.9952 35.7672 52.3643 36.2228 52.3643C36.6784 52.3643 37.045 51.9952 37.045 51.5367C37.045 51.0781 36.6784 50.709 36.2228 50.709ZM35.9006 51.7156C35.8006 51.7156 35.7339 51.6373 35.7339 51.5479C35.7339 51.4472 35.8117 51.3801 35.9006 51.3801C35.9895 51.3801 36.0672 51.4584 36.0672 51.5479C36.0672 51.6373 35.9895 51.7156 35.9006 51.7156ZM36.5339 51.7156C36.4339 51.7156 36.3672 51.6373 36.3672 51.5479C36.3672 51.4472 36.445 51.3801 36.5339 51.3801C36.6228 51.3801 36.7006 51.4584 36.7006 51.5479C36.7006 51.6373 36.6228 51.7156 36.5339 51.7156Z" fill="white"/>
<path d="M36.2228 50.7085C35.7561 50.6973 35.3894 51.0664 35.3783 51.5361C35.3783 52.0058 35.7561 52.3749 36.2228 52.3861C36.6894 52.3861 37.0561 52.0058 37.0672 51.5361C37.0672 51.0664 36.6894 50.6973 36.2228 50.6861V50.7197C36.6672 50.7197 37.0339 51.0887 37.0339 51.5361C37.0339 51.9835 36.6672 52.3525 36.2228 52.3525C35.7783 52.3525 35.4117 51.9835 35.4117 51.5361C35.4117 51.0887 35.7783 50.7197 36.2228 50.7197V50.7085ZM35.9005 51.715C35.8117 51.7039 35.745 51.6256 35.745 51.5473C35.745 51.4578 35.8117 51.3907 35.9005 51.3907C35.9894 51.3907 36.0561 51.4578 36.0561 51.5473C36.0561 51.6368 35.9894 51.7039 35.9005 51.7039V51.7374C36.0005 51.7374 36.0894 51.6479 36.0894 51.5473C36.0894 51.4466 36.0005 51.3572 35.9005 51.3572C35.8005 51.3572 35.7117 51.4354 35.7117 51.5473C35.7117 51.6479 35.7894 51.7374 35.9005 51.7374V51.715ZM36.5339 51.715C36.445 51.7039 36.3783 51.6256 36.3783 51.5473C36.3783 51.4578 36.445 51.3907 36.5339 51.3907C36.6228 51.3907 36.6894 51.4578 36.6894 51.5473C36.6894 51.6368 36.6228 51.7039 36.5339 51.7039V51.7374C36.6339 51.7374 36.7228 51.6479 36.7228 51.5473C36.7228 51.4466 36.6339 51.3572 36.5339 51.3572C36.4339 51.3572 36.345 51.4354 36.345 51.5473C36.345 51.6479 36.4228 51.7374 36.5339 51.7374V51.715Z" fill="black"/>
<path d="M36.2227 50.8325C35.8338 50.8325 35.5116 51.1456 35.5116 51.5482C35.5116 51.9397 35.8227 52.2528 36.2227 52.264C36.6116 52.264 36.9227 51.9509 36.9338 51.5482C36.9338 51.1568 36.6227 50.8325 36.2227 50.8325ZM36.2227 52.2081C35.856 52.2081 35.5671 51.9173 35.5671 51.5482C35.5671 51.1792 35.856 50.8884 36.2227 50.8884C36.5893 50.8884 36.8782 51.1792 36.8782 51.5482C36.8782 51.9173 36.5893 52.2081 36.2227 52.2081Z" fill="black"/>
</svg>
