<svg width="60" height="86" viewBox="0 0 60 86" fill="none" xmlns="http://www.w3.org/2000/svg">
<path d="M51.8269 23.433L49.9593 24.6296L49.6685 26.0051C49.6573 25.7815 49.6461 25.5578 49.6461 25.323C49.635 24.2718 50.7756 21.9345 50.7756 21.9345L50.3395 21.722C50.3395 21.722 48.9192 23.1311 48.9416 25.323C48.9528 26.2624 49.0423 27.1458 49.2771 27.828L47.9351 34.0682L46.28 35.8575L45.24 34.8063L45.4189 31.2724L44.8933 34.728L45.7768 36.4055L40.2411 42.3884L40.7556 42.8693L48.5726 34.4037L50.5743 25.0546L52.0505 24.104L53.8622 22.516L51.8157 23.4218L51.8269 23.433Z" fill="#8A7A3F"/>
<path d="M52.6433 12.0267L52.442 14.2298L52.3413 15.2922L52.1512 17.3499L52.0617 18.3899V18.4682V18.5018L52.0394 18.7478L51.9723 19.5194L51.9499 19.7766L51.8381 21.0068L51.7821 21.5883L51.7039 22.4047L51.592 23.6013L51.5138 24.4848L51.4355 25.3347L46.951 74.4286L45.542 74.3056L49.635 29.5395L49.9593 26.028L50.0935 24.5742L50.306 22.181L50.4066 21.1298L50.4737 20.4365L50.552 19.553L50.5744 19.3293V19.2063L50.6415 18.5353V18.3564L50.675 18.2334V18.1327L50.7421 17.4058L50.8651 16.0862L50.9546 15.0238L51.2454 11.9149L52.6433 12.0379V12.0267Z" fill="#808748"/>
<g style="mix-blend-mode:multiply" opacity="0.6">
<path d="M51.7711 21.5769L51.6928 22.3933L51.581 23.59L51.5027 24.4736L51.4244 25.3236C51.279 25.4354 51.1112 25.5137 50.9211 25.5472C50.7422 25.5808 50.3731 27.5716 49.9481 27.8064C49.7579 27.9071 50.0823 25.8939 49.9481 26.0058L50.0823 24.5518L50.2948 22.1584L50.3954 21.1071L50.854 21.2637L50.9099 21.2861L51.7711 21.5881V21.5769Z" fill="#B993CC"/>
</g>
<path d="M58.9841 10.9418C58.1789 13.9389 56.7139 16.7794 54.2872 17.7523C54.0859 17.8306 53.9069 17.9536 53.7392 18.0319C53.6945 18.0543 53.6385 18.0766 53.5938 18.099C53.4932 18.1437 53.4037 18.1773 53.3142 18.222C53.0682 18.3226 52.8445 18.4009 52.6656 18.4568C52.6209 18.4568 52.5761 18.4792 52.5426 18.4904C52.5202 18.4904 52.509 18.4904 52.4979 18.5016C52.2966 18.5575 52.1736 18.5799 52.1736 18.5799C52.2295 18.6358 52.2742 18.6805 52.2966 18.7252C52.4979 19.0384 52.2966 19.3068 52.1624 19.441C52.1065 19.4969 52.0617 19.5304 52.0617 19.5304C52.0617 19.5528 52.0729 19.5863 52.0953 19.6311C52.0953 19.6534 52.1176 19.6982 52.1288 19.7317C52.1512 19.7988 52.1735 19.8659 52.1959 19.9442C52.2183 20.0113 52.2518 20.0896 52.2742 20.179C52.3077 20.2685 52.3413 20.3692 52.3637 20.4698C52.4643 20.7829 52.5538 21.1184 52.6209 21.398C52.6209 21.4427 52.6432 21.4875 52.6432 21.5322C52.6432 21.5769 52.6544 21.6105 52.6656 21.644C52.6656 21.6552 52.6656 21.6664 52.6656 21.6776C52.6656 21.7111 52.6656 21.7447 52.6656 21.7671C52.6656 21.9124 52.6656 22.0131 52.6209 22.0578C52.386 22.2703 52.0393 22.3709 51.6703 22.3709C51.6032 22.3709 51.5249 22.3709 51.4466 22.3709C51.4019 22.3709 51.3572 22.3709 51.3124 22.3709C51.0217 22.3486 50.7197 22.2815 50.4402 22.192C50.3842 22.1696 50.3283 22.1585 50.2724 22.1361C50.2053 22.1137 50.1494 22.0914 50.0935 22.069C49.9817 22.0243 49.881 21.9795 49.7915 21.9348C49.7021 21.8901 49.635 21.8453 49.5679 21.8006C49.5679 21.8006 49.5455 21.8006 49.5455 21.7782C49.4784 21.7335 49.4337 21.7 49.4001 21.6552C49.3554 21.6105 49.333 21.5658 49.333 21.521C49.3219 21.3756 49.4449 21.0737 49.6238 20.7494C49.881 20.2685 50.2389 19.7205 50.4178 19.4633C50.4849 19.3627 50.5184 19.3068 50.5184 19.3068C50.4961 19.2397 50.4625 19.1837 50.4513 19.1278C50.3507 18.8035 50.4066 18.6022 50.4737 18.4792C50.5296 18.3786 50.5967 18.3338 50.5967 18.3338C50.552 18.3226 50.4961 18.3003 50.4513 18.2779C50.4402 18.2779 50.4178 18.2667 50.4066 18.2555C50.3731 18.2444 50.3283 18.222 50.2836 18.1996C50.2389 18.1773 50.1941 18.1549 50.1494 18.1325C49.8363 17.976 49.4784 17.7523 49.0982 17.4504C49.0311 17.3944 48.9528 17.3273 48.8745 17.2714C48.8186 17.2267 48.7627 17.182 48.7068 17.1372C48.6173 17.059 48.5167 16.9695 48.416 16.88C48.416 16.88 48.416 16.8688 48.3936 16.8577C45.7992 14.6434 44.5914 11.3667 44.3565 8.26901C44.1329 5.38376 44.7479 2.65507 45.8439 1.1118C45.8551 1.08943 45.8774 1.06706 45.8886 1.0447C46.8616 -0.274912 58.9617 1.1118 59.4538 2.42022C59.5768 2.75572 59.6663 3.31488 59.711 4.01941C59.8116 5.76398 59.6103 8.4032 58.9282 10.9418H58.9841Z" fill="#BF8328"/>
<g style="mix-blend-mode:multiply" opacity="0.16">
<path d="M58.9841 10.9418C58.1789 13.9389 56.7139 16.7794 54.2872 17.7524C54.0859 17.8306 53.9069 17.9537 53.7392 18.0319C53.6945 18.0543 53.6385 18.0767 53.5938 18.099C53.4932 18.1438 53.4037 18.1773 53.3142 18.2221C53.0682 18.3227 52.8445 18.401 52.6656 18.4569C52.6209 18.4569 52.5761 18.4793 52.5426 18.4905C52.5202 18.4905 52.5091 18.4905 52.4979 18.5016C52.2966 18.5576 52.1736 18.5799 52.1736 18.5799C52.2295 18.6358 52.2742 18.6806 52.2966 18.7253C52.4979 19.0384 52.2966 19.3068 52.1624 19.441C52.1065 19.4969 52.0617 19.5305 52.0617 19.5305C52.0617 19.5528 52.0729 19.5864 52.0953 19.6311C52.0953 19.6535 52.1176 19.6982 52.1288 19.7318C52.1512 19.7989 52.1736 19.866 52.1959 19.9443C52.2183 20.0114 52.2518 20.0896 52.2742 20.1791C52.3078 20.2686 52.3413 20.3692 52.3637 20.4699C52.4643 20.783 52.5538 21.1185 52.6209 21.3981C52.6209 21.4428 52.6432 21.4875 52.6432 21.5323C52.6432 21.577 52.6544 21.6105 52.6656 21.6441C52.6656 21.6553 52.6656 21.6665 52.6656 21.6776C52.6656 21.7112 52.6656 21.7447 52.6656 21.7671C52.6656 21.9125 52.6656 22.0131 52.6209 22.0579C52.386 22.2704 52.0394 22.371 51.6703 22.371C51.6032 22.371 51.5249 22.371 51.4467 22.371C51.4019 22.371 51.3572 22.371 51.3125 22.371C51.0217 22.3486 50.7197 22.2815 50.4402 22.1921C50.3843 22.1697 50.3283 22.1585 50.2724 22.1362C50.2053 22.1138 50.1494 22.0914 50.0935 22.0691C49.9817 22.0243 49.881 21.9796 49.7915 21.9349C49.7021 21.8901 49.635 21.8454 49.5679 21.8007C49.5679 21.8007 49.5455 21.8007 49.5455 21.7783C49.4784 21.7336 49.4337 21.7 49.4001 21.6553C49.3554 21.6105 49.333 21.5658 49.333 21.5211C49.3219 21.3757 49.4449 21.0738 49.6238 20.7494C49.881 20.2686 50.2389 19.7206 50.4178 19.4634C50.4849 19.3627 50.5184 19.3068 50.5184 19.3068C50.4961 19.2397 50.4625 19.1838 50.4514 19.1279C50.3507 18.8036 50.4066 18.6023 50.4737 18.4793C50.5296 18.3786 50.5967 18.3339 50.5967 18.3339C50.552 18.3227 50.4961 18.3003 50.4514 18.278C50.4402 18.278 50.4178 18.2668 50.4066 18.2556C50.3731 18.2444 50.3283 18.2221 50.2836 18.1997C50.2389 18.1773 50.1941 18.155 50.1494 18.1326C49.8363 17.976 49.4784 17.7524 49.0982 17.4504C49.0311 17.3945 48.9528 17.3274 48.8745 17.2715C48.8186 17.2268 48.7627 17.182 48.7068 17.1373C48.6173 17.059 48.5167 16.9695 48.416 16.8801C48.416 16.8801 48.416 16.8689 48.3937 16.8577C45.7992 14.6435 44.5914 11.3668 44.3565 8.26906C44.9381 7.59807 45.609 6.69224 45.6314 6.0548C45.665 4.93649 47.4655 3.43795 48.3154 5.27198C49.1653 7.10602 49.881 9.7676 51.5585 8.71639C53.2248 7.66517 54.3766 5.33908 55.0029 7.17311C55.6291 9.00715 55.0029 9.59986 55.8864 10.3156C56.7698 11.0425 58.123 10.9418 58.9058 10.9418H58.9282H58.9841Z" fill="#E3C96D"/>
</g>
<g style="mix-blend-mode:multiply" opacity="0.16">
<path d="M54.2877 17.7525C54.0975 17.8643 53.9074 17.9538 53.7397 18.0321C53.6949 18.0545 53.639 18.0768 53.5943 18.0992C53.4936 18.1439 53.4041 18.1775 53.3147 18.2222C53.0686 18.3229 52.8449 18.4012 52.666 18.4571C52.6212 18.4571 52.5765 18.4795 52.5429 18.4906C52.5206 18.4906 52.5094 18.4906 52.4982 18.5018C52.2969 18.5577 52.1739 18.5801 52.1739 18.5801C52.2298 18.636 52.2745 18.6808 52.2969 18.7255C52.4982 19.0387 52.2969 19.3071 52.1627 19.4413C52.1068 19.4972 52.062 19.5308 52.062 19.5308C52.062 19.5531 52.0732 19.5867 52.0956 19.6314C52.0956 19.6538 52.118 19.6985 52.1291 19.7321C52.1515 19.7992 52.1739 19.8663 52.1962 19.9446C52.2186 20.0117 52.2522 20.09 52.2745 20.1794C52.3081 20.2689 52.3416 20.3696 52.364 20.4702C52.4647 20.7834 52.5541 21.1189 52.6212 21.3985L51.9166 20.1123V21.7229L51.8048 20.9959L51.693 20.213C51.693 20.213 51.6706 19.967 51.3798 20.2689C51.212 20.4479 51.0219 20.9064 50.8877 21.2755C50.8206 21.4656 50.7647 21.611 50.7423 21.6893L50.8318 21.2531L50.9212 20.8281C50.9212 20.8281 51.089 19.8327 50.5298 20.3137C50.4963 20.336 50.4627 20.3696 50.4403 20.4031C50.239 20.6044 50.0601 20.9176 49.8923 21.2084C49.7693 21.4321 49.6686 21.6446 49.5792 21.8012C49.5792 21.8012 49.5568 21.8012 49.5568 21.7788C49.4897 21.734 49.4449 21.7005 49.4114 21.6558C49.3667 21.611 49.3443 21.5663 49.3443 21.5215C49.3331 21.3762 49.4561 21.0742 49.6351 20.7498C49.8923 20.2689 50.2502 19.7209 50.4291 19.4637C50.4962 19.363 50.5298 19.3071 50.5298 19.3071C50.5074 19.24 50.4739 19.1841 50.4627 19.1281C50.362 18.8038 50.418 18.6025 50.4851 18.4795C50.541 18.3788 50.6081 18.3341 50.6081 18.3341C50.5634 18.3229 50.5074 18.3005 50.4627 18.2781C50.4515 18.2781 50.4291 18.267 50.418 18.2558C50.3844 18.2446 50.3397 18.2222 50.2949 18.1999C50.2502 18.1775 50.2055 18.1551 50.1607 18.1328C49.8476 17.9762 49.4897 17.7525 49.1094 17.4505C49.0423 17.3946 48.964 17.3275 48.8857 17.2716C48.8298 17.2268 48.7739 17.1821 48.718 17.1374C48.6285 17.0591 48.5278 16.9696 48.4272 16.8801C48.4272 16.8801 48.416 16.8689 48.4048 16.8578C48.6285 16.936 48.9193 17.0591 49.2324 17.238C49.7916 17.5624 49.568 17.3163 49.691 17.1709C49.7022 17.1597 49.7245 17.1374 49.7581 17.1262C49.7805 17.115 49.8028 17.1038 49.8252 17.1038C50.0377 17.0591 50.3732 17.2492 50.6864 17.3946C50.7647 17.4393 50.8318 17.4617 50.8989 17.4953C50.9548 17.5176 50.9995 17.54 51.0331 17.5512C51.0778 17.5624 51.1114 17.5847 51.1561 17.5959C51.3239 17.6518 51.4134 17.6295 51.6147 17.4729C51.637 17.4729 51.6594 17.4393 51.6818 17.4281C51.7153 17.4058 51.7377 17.3834 51.7601 17.3722C51.9166 17.2604 52.0061 17.2828 52.1068 17.3499C52.1627 17.3946 52.2298 17.4505 52.3193 17.4953C52.543 17.6295 52.5765 17.8755 52.789 17.9203C52.8226 17.9203 52.8673 17.9314 52.912 17.9203C52.9568 17.9203 53.0127 17.9203 53.0798 17.9091C53.4936 17.8531 54.2429 17.7413 54.2429 17.7413L54.2877 17.7525Z" fill="#A69350"/>
</g>
<g style="mix-blend-mode:multiply" opacity="0.51">
<path d="M46.3472 1.6938C44.748 7.47549 45.2289 11.6356 48.8858 16.4779C49.3331 17.0818 49.814 17.6633 50.3284 18.2113C48.0582 16.2095 46.336 13.5479 45.4525 10.6403C44.7592 7.65442 45.2736 4.51195 46.3472 1.6938Z" fill="#A8A083"/>
<path d="M48.2821 1.47012C47.2309 7.13998 47.1302 13.6486 50.8654 18.4014C46.6605 13.9505 46.6941 7.03933 48.2821 1.47012Z" fill="#A8A083"/>
<path d="M50.8539 2.06305C50.2388 6.78233 48.8857 14.3533 51.3124 18.5917C48.4048 14.5993 49.7132 6.62577 50.8539 2.06305Z" fill="#A8A083"/>
<path d="M53.4037 2.06305C52.7886 7.45332 51.6927 13.0561 51.4131 18.4799C51.4131 18.5358 51.4131 18.5917 51.4131 18.6476V18.6812V18.6588C51.4131 18.6029 51.4131 18.5358 51.4131 18.4799C51.223 15.7624 51.6032 13.0449 51.9275 10.3498C52.3301 7.56515 52.7886 4.79174 53.4261 2.06305H53.4037Z" fill="#A8A083"/>
<path d="M55.4838 2.84608C55.3384 5.67542 54.9358 8.49357 54.3878 11.2782C53.7839 13.7273 53.3142 16.4224 51.8157 18.5025C51.8157 18.5025 51.7933 18.536 51.7822 18.5472C51.771 18.5696 51.7486 18.5919 51.7262 18.6143C51.7262 18.6143 51.7151 18.6367 51.7039 18.6479C51.7039 18.6702 51.6815 18.6814 51.6591 18.7038C51.648 18.7038 51.6256 18.7038 51.6144 18.7038C51.6144 18.7038 51.6032 18.7038 51.592 18.7038C51.6032 18.6926 51.6256 18.6702 51.6256 18.6479C51.6256 18.6479 51.6703 18.5808 51.6815 18.5472C51.6927 18.536 51.7039 18.5137 51.7151 18.4913C53.0235 16.2994 53.4261 13.6602 54.0076 11.1887C54.5891 8.42647 55.0141 5.63069 55.4726 2.84608H55.4838Z" fill="#A8A083"/>
<path d="M57.329 3.23706C57.0941 7.15116 55.9423 15.6727 52.2183 18.3455C52.1512 18.4014 52.0729 18.4461 51.9946 18.502C51.9387 18.5356 51.8716 18.5691 51.8157 18.6139C51.7821 18.6251 51.7486 18.6474 51.715 18.6698C51.6927 18.6922 51.6591 18.7033 51.6256 18.7257C51.6256 18.7257 51.6144 18.7257 51.6032 18.7257C51.592 18.7257 51.5697 18.7257 51.5585 18.7257C51.5808 18.7145 51.6144 18.6922 51.6368 18.6698C51.6368 18.6698 51.7374 18.6027 51.7821 18.5691C51.8045 18.558 51.8381 18.5356 51.8492 18.5132C51.8492 18.5132 51.8716 18.5132 51.8716 18.502C52.1847 18.2672 52.4755 17.9988 52.7215 17.708C54.1306 16.0418 54.8575 13.917 55.4949 11.8369C56.3337 9.02993 56.8593 6.14468 57.3178 3.24824L57.329 3.23706Z" fill="#A8A083"/>
<path d="M58.8275 3.60619C58.6933 8.39257 57.5862 15.3373 53.18 18.0548C52.8669 18.2337 52.5314 18.3791 52.1847 18.4909C52.0617 18.5357 51.9387 18.5692 51.8045 18.614C51.7821 18.614 51.7486 18.614 51.7262 18.6251C51.6927 18.6251 51.6591 18.6363 51.6367 18.6475C51.5697 18.6587 51.5137 18.6811 51.4466 18.6922C51.4355 18.6922 51.4131 18.6922 51.4019 18.6922C51.4019 18.6922 51.3572 18.6922 51.3348 18.6922C51.3572 18.6922 51.3795 18.6922 51.4019 18.6811L51.6927 18.5916C51.6927 18.5916 51.771 18.558 51.8157 18.5469C51.8157 18.5469 51.8269 18.5469 51.838 18.5469C51.8492 18.5469 51.8716 18.5469 51.8828 18.5357C51.9946 18.4909 52.1064 18.4462 52.2071 18.4015C57.0606 16.2096 58.2124 8.34784 58.8275 3.65092V3.60619Z" fill="#A8A083"/>
</g>
<path d="M52.2967 18.736C52.1625 18.7584 51.9277 18.736 51.6704 18.7136C51.6592 18.7136 51.6369 18.7136 51.6257 18.7136C51.6257 18.7136 51.6145 18.7136 51.6033 18.7136C51.5921 18.7136 51.5698 18.7136 51.5586 18.7136C51.525 18.7136 51.4915 18.7136 51.4579 18.7025C51.4467 18.7025 51.4244 18.7025 51.4132 18.7025C51.4132 18.7025 51.3685 18.7025 51.3461 18.7025C51.0106 18.6465 50.6862 18.5794 50.5296 18.5235C50.2165 18.4229 50.306 18.2327 50.306 18.2327C50.306 18.2327 50.3283 18.2327 50.3395 18.2439C50.4961 18.3222 50.6639 18.3781 50.8428 18.4229C50.9658 18.4564 51.1 18.4788 51.2231 18.49H51.2454C51.2454 18.49 51.3349 18.5011 51.3796 18.5011C51.3796 18.5011 51.402 18.5011 51.4132 18.5011C51.525 18.5011 51.6257 18.5123 51.7263 18.5123C51.7599 18.5123 51.7935 18.5123 51.827 18.5123H51.9836C52.0507 18.5123 52.1178 18.5123 52.1849 18.5123C52.3527 18.5123 52.4645 18.49 52.4645 18.49C52.4645 18.49 52.6658 18.6913 52.2967 18.7584V18.736Z" fill="#5E532B"/>
<path d="M50.4961 19.1392C50.4961 19.1392 50.3059 19.2398 50.4513 19.4635C50.5967 19.6872 51.8941 19.8326 52.129 19.7543C52.3638 19.676 52.1625 19.4523 52.1625 19.4523C52.1625 19.4523 51.402 19.799 50.4961 19.1392Z" fill="#5E532B"/>
<path d="M51.581 23.5895L51.5027 24.473L50.5856 25.0658L50.4514 25.7145L49.6238 29.5283L49.9481 26.0165L50.0823 24.5513L51.581 23.5895Z" fill="#8A7A3F"/>
<g style="mix-blend-mode:soft-light">
<path d="M59.7782 4.0194C59.6775 3.9523 59.5881 3.87402 59.4874 3.79573C58.9954 3.37077 59.1296 3.37077 58.7382 2.48731C58.3468 1.60384 57.5975 2.42021 56.9377 2.45376C56.2779 2.48731 56.0207 2.23009 55.4951 1.8275C54.9695 1.43609 54.2873 1.59266 53.5268 1.8275C52.7776 2.06235 53.1019 1.8275 50.91 1.1677C49.4226 0.731554 47.1972 0.921667 45.9111 1.1006C45.9223 1.07823 45.9447 1.05586 45.9558 1.0335C46.9288 -0.286112 59.0289 1.1006 59.521 2.40902C59.644 2.74452 59.7335 3.30368 59.7782 4.00821V4.0194Z" fill="#A8A083"/>
</g>
<path d="M51.3348 66.88C51.3348 75.0214 45.1953 81.9325 36.6402 84.4711C36.6402 84.4711 36.6178 84.4711 36.6066 84.4711C34.3588 85.1309 31.9544 85.4888 29.4382 85.4888C17.3381 85.4888 7.53046 77.1573 7.53046 66.8689C7.53046 56.5804 16.6223 48.8752 28.1074 48.2937C28.5436 48.2713 28.9909 48.2601 29.4382 48.2601C31.686 48.2601 33.8668 48.5509 35.9133 49.0989C38.5525 49.781 40.9792 50.8882 43.0817 52.3308C48.1141 55.7305 51.3348 60.9865 51.3348 66.88Z" fill="#E8F5FF"/>
<path d="M43.0816 55.283C40.9121 56.0546 39.2011 58.6268 36.3158 59.6892C31.7867 61.3554 26.5082 60.8187 24.6966 60.349C19.6306 59.0405 14.0838 67.3832 19.9325 75.0101C25.7701 82.637 38.2952 84.4263 44.4124 78.6222C50.5296 72.8182 49.3777 67.6739 49.3218 64.6992C49.2659 61.7245 45.2623 54.5114 43.0928 55.283H43.0816Z" fill="#F2F9FF"/>
<g style="mix-blend-mode:multiply">
<path d="M11.1091 74.2945C16.3428 87.4458 35.6672 84.6277 36.6066 84.4823C34.3588 85.1421 31.9544 85.5 29.4382 85.5C17.3381 85.5 7.53046 77.1685 7.53046 66.88C7.53046 56.5916 16.6223 48.8864 28.1074 48.3049C30.9256 48.5956 33.6655 48.8752 35.9133 49.0989C38.5525 49.781 40.9792 50.8882 43.0817 52.3308C42.6008 53.3932 40.7108 56.3455 34.2917 58.1348C26.3629 60.3379 17.1256 56.1666 15.4593 56.1107C13.7818 56.0436 6.81474 63.5027 11.0979 74.2945H11.1091Z" fill="#E1E8ED"/>
</g>
<path d="M41.5048 57.4861C41.5048 56.0994 43.4171 55.5738 44.6025 56.2336C45.788 56.8934 48.6508 60.4049 48.8969 66.7793C49.1094 72.4156 45.2624 79.0584 40.9121 79.9531C40.9121 79.9531 46.6938 72.2591 45.6761 67.551C44.6585 62.8429 41.5048 58.8617 41.5048 57.475V57.4861Z" fill="white"/>
<path d="M45.5307 43.9089C45.5307 49.9478 40.8562 55.0696 34.3588 56.9484C34.3588 56.9484 34.3476 56.9484 34.3364 56.9484C32.6254 57.4405 30.7914 57.7089 28.8902 57.7089C25.0209 57.7089 21.4646 56.6241 18.6465 54.7901C16.6894 53.5264 15.079 51.916 13.9719 50.0596C13.8713 49.8807 13.7706 49.7129 13.6811 49.534C13.4575 49.1314 13.2674 48.7288 13.1108 48.3038C12.5405 46.9283 12.2385 45.441 12.2385 43.9089C12.2385 36.5727 19.1497 30.5786 27.8837 30.1424C28.2192 30.1312 28.5547 30.1089 28.9014 30.1089C30.6124 30.1089 32.2675 30.3214 33.822 30.7351C35.8238 31.2384 37.669 32.0547 39.2794 33.1283C43.1152 35.6557 45.5531 39.5474 45.5531 43.9089H45.5307Z" fill="#E8F5FF"/>
<path d="M30.5006 39.0775C29.9526 38.496 26.6536 39.4018 25.2669 39.0551C21.4087 38.0822 16.3315 44.6244 19.597 51.0323C23.3434 58.3908 33.5759 56.4114 32.7484 54.2419C31.5182 50.9987 32.1892 48.2589 31.8426 46.0334C31.138 41.4595 31.0262 39.659 30.4894 39.0775H30.5006Z" fill="#F2F9FF"/>
<g style="mix-blend-mode:multiply" opacity="0.57">
<path d="M14.9337 49.4001C18.9149 59.1518 33.6207 57.0605 34.3253 56.9487C32.6142 57.4408 30.7802 57.7092 28.8791 57.7092C19.6753 57.7092 12.2162 51.5249 12.2162 43.9092C12.2162 36.2934 19.1274 30.5677 27.8726 30.1427C30.0197 30.3552 32.0998 30.5677 33.8108 30.7354C35.8238 31.2498 37.6578 32.0662 39.2682 33.1286C38.8992 33.9114 37.4677 36.1033 32.5807 37.4229C26.553 39.0557 19.5188 35.9691 18.2551 35.9244C16.9802 35.8797 11.6794 41.4041 14.9449 49.4001H14.9337Z" fill="#E1E8ED"/>
</g>
<path d="M38.7985 27.8618C38.7985 28.544 38.7202 29.1814 38.5748 29.7741C38.5301 30.009 38.463 30.2326 38.3735 30.4563C37.7696 32.2232 36.5283 33.554 34.862 34.4599C33.1957 35.3545 31.1268 35.813 28.879 35.813C23.3993 35.813 18.9484 33.1291 18.9484 27.873C18.9484 27.3138 18.9931 26.7659 19.0938 26.2291C19.1721 25.8041 19.2839 25.3792 19.4181 24.9654C19.5411 24.5628 19.7088 24.1826 19.8878 23.8135C21.4758 20.5816 24.8978 18.3561 28.8678 18.3561C31.8649 18.3561 34.5489 19.631 36.3717 21.644C36.573 21.8565 36.7519 22.0801 36.9309 22.3262C38.1051 23.8918 38.7985 25.8041 38.7985 27.8842V27.8618Z" fill="#F2F9FF"/>
<g style="mix-blend-mode:multiply" opacity="0.57">
<path d="M23.6341 33.9901C20.0108 32.2008 20.5923 26.4079 21.3416 25.9494C22.0909 25.4909 27.3246 24.1937 29.6954 23.9812C31.6972 23.8022 35.7455 22.7734 36.9309 22.3037C36.752 22.0689 36.573 21.8452 36.3717 21.6215C35.7231 21.4538 34.9738 21.3419 34.9738 21.3419L21.2633 24.518C20.8495 23.4556 19.9884 23.7463 19.8878 23.7799C19.7089 24.1601 19.5523 24.5515 19.4181 24.9429C19.3398 25.1778 19.2727 25.4126 19.2056 25.6475C19.1833 25.7257 19.1721 25.7928 19.1609 25.8711C19.1385 25.983 19.105 26.0836 19.0938 26.1954C19.0938 26.1954 19.0938 26.1954 19.105 26.1954C19.0043 26.7322 18.9372 27.2802 18.9372 27.8394C18.9372 33.0954 23.3881 35.7794 28.8678 35.7794C31.1157 35.7794 33.1845 35.3209 34.8508 34.4262C34.5936 34.4933 27.9397 36.0925 23.6118 33.9677L23.6341 33.9901Z" fill="#BED9ED"/>
</g>
<g style="mix-blend-mode:multiply" opacity="0.57">
<path d="M29.9527 37.0433C29.9527 37.0433 31.4288 37.3676 31.4736 38.2623C31.5071 39.1569 33.2293 50.0829 32.9274 51.1788C32.6366 52.2748 32.9833 52.2077 34.739 52.4984C36.506 52.778 36.9757 52.9234 36.9421 53.4602C36.9197 53.8851 38.1275 54.6232 39.2347 54.6903C41.1917 53.4266 42.8021 51.8163 43.9092 49.9599C44.1105 49.479 44.4348 48.2153 43.6073 47.097C41.6838 44.4801 41.2029 38.2623 39.4024 34.1916L29.9415 37.0545L29.9527 37.0433Z" fill="#B5D3E8"/>
</g>
<path d="M43.4284 48.942C43.4284 48.942 42.5225 50.2616 41.7285 51.0556C41.3483 51.4358 40.8674 51.7825 40.3306 51.9614C40.23 51.995 40.1405 52.0285 40.051 52.0509C38.5749 52.487 37.6355 52.3528 37.423 52.3081C37.3895 52.3081 37.3783 52.3081 37.3783 52.3081L36.9309 50.4069L33.1622 34.3144C33.1622 34.3144 33.4194 33.8447 35.0186 33.3862C36.1817 33.0507 37.0987 33.3079 37.0987 33.3079C37.0987 33.3079 39.6373 38.4969 40.4201 42.3998C41.2029 46.2916 43.0817 48.6288 43.4395 48.9643L43.4284 48.942Z" fill="#18CCBD"/>
<path d="M37.5349 52.1286L37.725 53.2582C37.725 53.3253 37.8033 53.37 37.8704 53.3589C37.9375 53.3477 37.9822 53.2806 37.971 53.2135L37.7809 52.0839C37.7809 52.0168 37.7026 51.972 37.6355 51.9832C37.5684 51.9944 37.5237 52.0615 37.5349 52.1286Z" fill="#18CCBD"/>
<path d="M38.5862 53.1464C38.6645 53.3589 38.6309 53.5937 38.4967 53.7838C38.4072 53.9292 38.2618 54.0523 38.0717 54.1194C37.6579 54.2648 37.1993 54.0746 37.0651 53.6944C36.9309 53.3141 37.1546 52.8667 37.5684 52.7214C37.7026 52.6766 37.848 52.6542 37.9822 52.6878C38.2506 52.7214 38.4855 52.9003 38.575 53.1575L38.5862 53.1464Z" fill="#18CCBD"/>
<path d="M39.1564 52.1293L39.4695 53.2365C39.4919 53.3036 39.559 53.3372 39.6261 53.326C39.6932 53.3148 39.7268 53.2365 39.7156 53.1694L39.4024 52.0622C39.3801 51.9951 39.313 51.9615 39.2459 51.9727C39.1787 51.9839 39.1452 52.0622 39.1564 52.1293Z" fill="#18CCBD"/>
<path d="M40.3084 53.0124C40.409 53.2249 40.3978 53.4597 40.2972 53.6499C40.2189 53.8064 40.0959 53.9406 39.9169 54.0301C39.5143 54.2202 39.0446 54.086 38.8656 53.717C38.6867 53.3479 38.8656 52.8893 39.2571 52.688C39.3801 52.6209 39.5255 52.5985 39.6597 52.6097C39.9281 52.6097 40.1854 52.7663 40.3084 53.0124Z" fill="#18CCBD"/>
<path d="M40.5095 51.5923L41.2812 52.4423C41.2812 52.4423 41.4043 52.4982 41.4602 52.4423C41.5161 52.3863 41.5161 52.3192 41.4602 52.2633L40.6885 51.4133C40.6885 51.4133 40.5655 51.3574 40.5095 51.4133C40.4536 51.4692 40.4536 51.5364 40.5095 51.5923Z" fill="#18CCBD"/>
<path d="M41.9299 51.8835C42.1089 52.0288 42.2095 52.2413 42.1983 52.465C42.1983 52.644 42.1424 52.8229 42.0194 52.9683C41.751 53.315 41.2589 53.3933 40.9457 53.1473C40.6326 52.9012 40.5766 52.4091 40.8451 52.0512C40.9345 51.9394 41.0464 51.8499 41.1694 51.794C41.4155 51.6821 41.7062 51.7045 41.9299 51.8723V51.8835Z" fill="#18CCBD"/>
<path d="M41.9074 50.6416L42.7574 51.4133C42.7574 51.4133 42.8804 51.458 42.9364 51.4133C42.9923 51.3685 42.9811 51.2902 42.9364 51.2343L42.0864 50.4626C42.0864 50.4626 41.9634 50.4179 41.9074 50.4626C41.8515 50.5073 41.8627 50.5856 41.9074 50.6416Z" fill="#18CCBD"/>
<path d="M43.3502 50.7977C43.5515 50.9207 43.6633 51.1221 43.6745 51.3457C43.6969 51.5247 43.6521 51.7036 43.5515 51.8714C43.3166 52.2517 42.8469 52.3747 42.5002 52.151C42.1534 51.9273 42.0528 51.4464 42.2877 51.0773C42.3659 50.9543 42.4666 50.8536 42.5896 50.7977C42.8245 50.6635 43.1153 50.6523 43.3502 50.7977Z" fill="#18CCBD"/>
<path opacity="0.6" d="M43.3501 50.7978C43.5514 50.9209 43.6632 51.1222 43.6744 51.3459C43.652 51.4018 43.6297 51.4465 43.5961 51.4913C43.3613 51.8715 42.9363 52.0169 42.6567 51.838C42.3771 51.659 42.3211 51.2117 42.556 50.8314C42.556 50.8202 42.5784 50.7978 42.5896 50.7867C42.8244 50.6524 43.1152 50.6413 43.3501 50.7867V50.7978Z" fill="#60DCD1"/>
<path d="M42.981 49.3779L43.9652 49.9707C44.0211 50.0043 44.0994 49.9819 44.133 49.926C44.1665 49.87 44.1442 49.7918 44.0882 49.7582L43.104 49.1654C43.0481 49.1319 42.9698 49.1543 42.9363 49.2102C42.9027 49.2661 42.9251 49.3444 42.981 49.3779Z" fill="#18CCBD"/>
<path d="M44.4237 49.2545C44.6362 49.3328 44.7928 49.5117 44.8487 49.7354C44.9046 49.9032 44.8935 50.0933 44.8264 50.2722C44.6698 50.6861 44.2224 50.8986 43.8422 50.7532C43.4619 50.6078 43.2718 50.1492 43.4283 49.7354C43.4843 49.6012 43.5626 49.4893 43.6632 49.3999C43.8645 49.2209 44.1553 49.1538 44.4125 49.2545H44.4237Z" fill="#18CCBD"/>
<path opacity="0.6" d="M44.4237 49.2553C44.6362 49.3336 44.7928 49.5126 44.8487 49.7362C44.8487 49.7922 44.8264 49.8481 44.804 49.8928C44.6474 50.3066 44.256 50.5415 43.9428 50.4185C43.6297 50.2954 43.4955 49.8705 43.652 49.4566C43.652 49.4343 43.6632 49.4231 43.6744 49.4119C43.8757 49.233 44.1665 49.1658 44.4237 49.2665V49.2553Z" fill="#60DCD1"/>
<g style="mix-blend-mode:multiply" opacity="0.36">
<path d="M41.7285 51.0556C41.3483 51.4358 40.8674 51.7825 40.3306 51.9614C40.23 51.9949 40.1405 52.0285 40.051 52.0509C38.5749 52.487 37.6355 52.3528 37.423 52.3081C37.3894 52.3081 37.3783 52.3081 37.3783 52.3081L36.9309 50.4069L37.177 49.9596L35.4659 35.5781H36.9421C36.9421 35.5781 37.5907 38.6758 37.7249 39.7606C37.8479 40.8454 39.0222 45.8889 39.3465 47.0408C39.7267 48.394 40.3082 49.5011 40.5655 50.1162C40.6885 50.3958 40.6773 50.5747 40.8339 50.5635C41.1805 50.5411 41.5719 50.7872 41.7173 51.0779L41.7285 51.0556Z" fill="#7091A1"/>
</g>
<path d="M19.4964 33.5759C19.7312 33.9226 20.022 34.2357 20.3463 34.5265C20.3463 34.5265 20.3463 34.5265 20.3575 34.5265C20.9502 35.0409 21.6547 35.4771 22.4711 35.8349C22.4711 35.8349 22.4823 35.8349 22.4935 35.8349C27.8055 38.161 36.9533 37.1545 38.9327 34.9067C39.6708 34.068 39.626 33.4865 39.5254 32.8826C39.4918 32.726 39.4695 32.5694 39.4359 32.4017C39.2346 31.0485 38.5077 30.4223 38.5077 30.4223C38.5077 30.4223 35.9356 31.6077 32.0886 31.9879C31.9656 31.9991 31.8426 32.0215 31.7196 32.0215C31.5294 32.0326 31.3393 32.0438 31.1492 32.0662C29.975 32.2228 28.8231 32.2787 27.7495 32.2787C23.2315 32.2563 19.8095 31.1044 19.8095 31.1044C19.8095 31.1044 18.8925 32.178 19.4964 33.5647V33.5759Z" fill="#3DD4C8"/>
<g style="mix-blend-mode:multiply" opacity="0.36">
<path d="M22.4935 35.8461C27.8055 38.1722 36.9533 37.1657 38.9327 34.9179C39.6708 34.0791 39.6261 33.4976 39.5254 32.8937C39.4136 33.6542 39.134 34.4817 38.463 34.7166C37.1099 35.2086 35.6001 33.0503 35.6001 33.0503L31.6078 35.6895C31.6078 35.6895 31.194 36.8637 29.7402 36.8637C28.7561 36.8637 25.1439 36.6512 22.4935 35.8461Z" fill="#7091A1"/>
</g>
<path d="M31.1604 32.0886L31.5854 35.5666L33.453 50.7086L33.4753 51.0553C33.4753 51.0553 34.5154 52.1176 36.0475 51.9387C37.9039 51.7262 40.4424 50.5744 40.4424 50.2053C40.4424 50.2053 40.2635 50.0823 40.1293 49.7468C39.503 48.2035 37.7808 43.529 37.5348 40.8674C37.1658 36.9086 35.1864 31.4848 35.1864 31.4848C35.1864 31.4848 35.1081 31.4624 34.9739 31.4177C34.6384 31.3282 33.945 31.194 33.0951 31.3506C31.4624 31.6413 31.1604 32.0775 31.1604 32.0775V32.0886Z" fill="#60DCD1"/>
<g style="mix-blend-mode:screen" opacity="0.48">
<path d="M31.1604 32.0886L31.5854 35.5669C31.5854 35.5669 31.865 32.9274 32.3907 32.1445C32.9163 31.3616 34.9742 31.4287 34.9742 31.4287C34.6387 31.3393 33.9453 31.2051 33.0953 31.3504C31.4624 31.6412 31.1604 32.0774 31.1604 32.0774V32.0886Z" fill="#8CE6DE"/>
</g>
<g style="mix-blend-mode:screen" opacity="0.3">
<path d="M19.4964 33.5763C19.7313 33.923 20.0221 34.2361 20.3464 34.5269C20.3464 34.5269 20.3464 34.5269 20.3576 34.5269C21.7332 35.4217 24.149 35.925 24.4062 35.2315C24.6635 34.5381 20.4135 33.5092 20.3464 33.0059C20.2793 32.5138 20.9951 32.3684 22.1806 32.8829C23.3661 33.3973 28.2424 34.0572 28.4437 33.5315C28.645 32.9947 27.7503 32.2901 27.7503 32.2901C23.2319 32.2677 19.8096 31.1158 19.8096 31.1158C19.8096 31.1158 18.8925 32.1894 19.4964 33.5763Z" fill="#8CE6DE"/>
</g>
<path d="M33.6208 51.1228L33.4083 52.2972C33.3971 52.3643 33.4418 52.4314 33.509 52.4425C33.5761 52.4537 33.6432 52.409 33.6543 52.3419L33.8668 51.1676C33.878 51.1004 33.8333 51.0333 33.7662 51.0222C33.6991 51.011 33.632 51.0557 33.6208 51.1228Z" fill="#60DCD1"/>
<path d="M34.2918 52.4868C34.2918 52.7329 34.1688 52.9454 33.9787 53.0796C33.8333 53.1914 33.6544 53.2585 33.453 53.2585C32.9945 53.2585 32.6142 52.9118 32.6142 52.4868C32.6142 52.0618 32.9945 51.7039 33.453 51.7039C33.5984 51.7039 33.7438 51.7375 33.8669 51.8158C34.1129 51.9388 34.2918 52.196 34.2918 52.4868Z" fill="#60DCD1"/>
<path opacity="0.6" d="M34.2919 52.4869C34.2919 52.7329 34.1688 52.9454 33.9787 53.0796C33.9228 53.0796 33.8669 53.0908 33.8109 53.0908C33.3524 53.0908 32.9833 52.8 32.9833 52.4533C32.9833 52.1066 33.3524 51.8047 33.8109 51.8047C33.8333 51.8047 33.8445 51.8047 33.8669 51.8047C34.1129 51.9277 34.2919 52.1849 34.2919 52.4757V52.4869Z" fill="#85F2E8"/>
<path d="M35.2088 51.6928L35.1305 52.8895C35.1305 52.9566 35.1752 53.0237 35.2535 53.0237C35.3318 53.0237 35.3877 52.979 35.3877 52.9007L35.466 51.704C35.466 51.6369 35.4213 51.5698 35.343 51.5698C35.2647 51.5698 35.2088 51.6145 35.2088 51.6928Z" fill="#60DCD1"/>
<path d="M36.0364 52.968C36.0588 53.2029 35.9693 53.4377 35.8015 53.5943C35.6673 53.7174 35.4995 53.8068 35.2982 53.8292C34.8397 53.8851 34.4259 53.572 34.3811 53.1581C34.3364 52.7443 34.6607 52.3417 35.1193 52.2858C35.2647 52.2634 35.4101 52.2858 35.5443 52.3417C35.8127 52.4424 36.0028 52.6772 36.0364 52.9568V52.968Z" fill="#60DCD1"/>
<path opacity="0.6" d="M36.0364 52.968C36.0587 53.2028 35.9693 53.4377 35.8015 53.5943C35.7456 53.6055 35.6897 53.6278 35.6338 53.6278C35.1752 53.6837 34.7726 53.4377 34.739 53.0798C34.7055 52.7219 35.0298 52.3976 35.4884 52.3416C35.5107 52.3416 35.5219 52.3416 35.5443 52.3416C35.8127 52.4423 36.0028 52.6772 36.0364 52.9568V52.968Z" fill="#85F2E8"/>
<path d="M36.7297 51.6251L37.1882 52.7323C37.2106 52.7994 37.2889 52.833 37.356 52.7994C37.4231 52.7659 37.4567 52.6988 37.4231 52.6317L36.9646 51.5244C36.9422 51.4573 36.8639 51.4238 36.7968 51.4573C36.7297 51.4909 36.6961 51.558 36.7297 51.6251Z" fill="#60DCD1"/>
<path d="M38.027 52.4188C38.1612 52.6201 38.1724 52.8661 38.0829 53.0898C38.027 53.2576 37.904 53.4142 37.7362 53.526C37.3448 53.7721 36.8415 53.6826 36.6178 53.3247C36.3941 52.9668 36.5172 52.4635 36.8974 52.2175C37.0204 52.1392 37.1658 52.0944 37.3112 52.0833C37.5908 52.0609 37.8704 52.1839 38.027 52.4188Z" fill="#60DCD1"/>
<path opacity="0.6" d="M38.027 52.4188C38.1613 52.6201 38.1724 52.8661 38.083 53.0898C38.0382 53.1234 37.9935 53.1681 37.9488 53.1905C37.5573 53.4365 37.0876 53.3918 36.8974 53.101C36.7073 52.8102 36.8639 52.3517 37.2553 52.1056C37.2777 52.1056 37.2889 52.0833 37.3113 52.0833C37.5909 52.0609 37.8705 52.1839 38.027 52.4188Z" fill="#85F2E8"/>
<path d="M38.4295 51.1897L38.9887 52.2522C39.0222 52.3193 39.1005 52.3417 39.1676 52.3081C39.2347 52.2746 39.2571 52.1963 39.2236 52.1292L38.6643 51.0667C38.6308 50.9996 38.5525 50.9772 38.4854 51.0107C38.4183 51.0443 38.3959 51.1226 38.4295 51.1897Z" fill="#60DCD1"/>
<path d="M39.7939 51.8499C39.9393 52.04 39.9841 52.2861 39.917 52.5097C39.8722 52.6887 39.7716 52.8565 39.615 52.9795C39.2571 53.2703 38.7426 53.2255 38.4742 52.89C38.2058 52.5545 38.2841 52.04 38.6531 51.7604C38.765 51.6709 38.9104 51.6038 39.0446 51.5926C39.3242 51.5367 39.615 51.6374 39.7939 51.8611V51.8499Z" fill="#60DCD1"/>
<path opacity="0.6" d="M39.7939 51.8491C39.9393 52.0392 39.9841 52.2853 39.9169 52.5089C39.8834 52.5537 39.8387 52.5872 39.7939 52.6208C39.436 52.9116 38.9663 52.9116 38.7426 52.6208C38.5189 52.33 38.6308 51.8826 38.9998 51.603C39.011 51.5918 39.0334 51.5807 39.0446 51.5695C39.3242 51.5135 39.615 51.6142 39.7939 51.8379V51.8491Z" fill="#85F2E8"/>
<path d="M39.9168 50.4962L40.6773 51.4244C40.6773 51.4244 40.8004 51.4915 40.8563 51.4468C40.9122 51.4021 40.9234 51.3238 40.8787 51.2679L40.1181 50.3396C40.1181 50.3396 39.9951 50.2725 39.9392 50.3172C39.8833 50.3619 39.8721 50.4402 39.9168 50.4962Z" fill="#60DCD1"/>
<path d="M41.3931 50.876C41.5721 51.0326 41.6615 51.2675 41.6392 51.5024C41.6392 51.6813 41.5609 51.8714 41.4267 52.0168C41.1247 52.3635 40.6214 52.4195 40.2971 52.151C39.9727 51.8826 39.9504 51.357 40.2523 51.0103C40.353 50.8984 40.4648 50.8089 40.6102 50.7642C40.8675 50.6524 41.1806 50.6971 41.3931 50.8872V50.876Z" fill="#60DCD1"/>
<path opacity="0.6" d="M41.3931 50.8764C41.5721 51.033 41.6615 51.2679 41.6392 51.5027C41.6056 51.5475 41.5721 51.6034 41.5385 51.6369C41.2365 51.9836 40.778 52.0843 40.5096 51.8494C40.2412 51.6146 40.2635 51.1448 40.5655 50.7981C40.5767 50.7869 40.5879 50.7758 40.6102 50.7534C40.8675 50.6415 41.1806 50.6863 41.3931 50.8764Z" fill="#85F2E8"/>
<path d="M26.6329 26.8303C26.9605 26.7195 27.1812 26.4968 27.1258 26.333C27.0704 26.1691 26.7598 26.1262 26.4322 26.237C26.1045 26.3479 25.8838 26.5705 25.9392 26.7344C25.9947 26.8982 26.3052 26.9411 26.6329 26.8303Z" fill="#4F4424"/>
<path d="M35.2088 25.0884C35.5547 25.0884 35.8351 24.9482 35.8351 24.7752C35.8351 24.6023 35.5547 24.4621 35.2088 24.4621C34.8629 24.4621 34.5825 24.6023 34.5825 24.7752C34.5825 24.9482 34.8629 25.0884 35.2088 25.0884Z" fill="#4F4424"/>
<g style="mix-blend-mode:multiply" opacity="0.57">
<path d="M15.3924 40.3875C15.3812 40.477 14.2852 42.4789 13.9273 43.5079C13.67 44.2348 12.9878 46.8184 13.6589 49.5361C13.4352 49.1335 13.245 48.7309 13.0885 48.3059C12.6299 46.1362 13.2003 43.5526 13.3345 42.8928C13.6141 41.5507 14.151 40.6447 14.151 40.6447L14.8891 39.9066C14.8891 39.9066 15.0457 39.8059 15.1799 39.9066C15.3141 39.9961 15.4148 40.3092 15.3924 40.3875Z" fill="#B5D3E8"/>
</g>
<path d="M14.8889 39.5151C14.5423 39.5375 3.45978 46.2921 3.45978 46.2921L2.49803 55.4064L0.921204 59.2757L2.36383 56.6812L2.20726 62.407L4.26496 46.9519C4.26496 46.9519 5.26026 46.3704 6.66934 45.554C6.80353 45.4757 4.51099 49.6694 4.60046 49.5352C5.08133 48.7859 7.45216 45.0955 7.51926 45.062C10.8183 43.1385 15.4369 40.421 15.4816 40.3091C15.5487 40.1414 15.2356 39.4928 14.8889 39.5151Z" fill="#8A7A3F"/>
<path d="M40.2635 29.5176C40.2635 29.5176 40.4871 34.4494 39.6372 29.663C38.7873 24.8766 37.121 22.5505 34.2246 23.0538C33.1062 23.2439 28.9685 24.3622 28.9685 24.3622C28.9685 24.3622 24.7748 25.2345 23.69 25.57C20.8719 26.4199 20.4469 29.2492 21.8448 33.9014C23.2427 38.5536 21.2186 34.0468 21.2186 34.0468C21.2186 34.0468 19.4293 31.3852 18.434 26.8337C18.2327 25.9278 18.0761 24.9549 17.9531 23.9149C17.7518 22.0249 17.9084 20.0679 18.3669 18.2115C19.0602 15.3821 20.4357 12.7988 22.2362 11.1102L22.5382 10.8306C23.3993 10.0925 24.3499 9.55573 25.3675 9.28733C25.6695 9.22023 25.9826 9.18668 26.2957 9.16432C29.3264 8.9742 32.7484 10.853 35.3317 13.727C36.2711 14.7671 37.0986 15.9301 37.7584 17.1714C38.0716 17.7642 38.3511 18.368 38.586 18.9943C40.8226 24.9325 40.2411 29.5064 40.2411 29.5064L40.2635 29.5176Z" fill="#98CC5C"/>
<path d="M21.532 20.6602L21.3642 20.5036L21.23 20.6378V20.4812L20.984 20.4924V20.8727L20.8945 20.9845L20.805 21.0292L20.6932 20.6714L20.4695 20.7385L20.5925 21.1411L20.3129 21.2865L20.0892 21.074L20.3241 20.7161L20.1228 20.5931L19.9215 20.9174L19.8544 20.8503L19.7873 20.7161L19.8991 20.3582L19.6754 20.2911L19.6307 20.4365L19.5412 20.2687L19.3287 20.3806L19.4182 20.5483L19.2616 20.5036L19.1945 20.7273L19.5636 20.8279L19.6307 20.9621L19.653 21.0516H19.2728V21.2865H19.6978L19.7537 21.5996L19.4741 21.745L19.2057 21.4207L19.0267 21.5661L19.2728 21.8569L19.1833 21.9016L19.0379 21.924L18.7248 21.7003L18.5905 21.8904L18.7136 21.9799L18.5234 22.0134L18.5682 22.2371L18.7583 22.2036L18.6688 22.3378L18.8702 22.4608L19.0826 22.1477L19.228 22.1253H19.3287L19.2057 22.4944L19.4294 22.5727L19.5636 22.17L19.8767 22.2036L19.9326 22.5056L19.53 22.6621L19.6195 22.8746L19.9774 22.7292L19.9997 22.8187L19.9774 22.9641L19.6642 23.1878L19.8096 23.3779L19.9326 23.2884L19.9103 23.4786L20.1451 23.5121L20.1675 23.322L20.2682 23.445L20.4583 23.2996L20.2234 23.0088L20.2458 22.8634L20.2905 22.774L20.5925 22.9977L20.7379 22.8075L20.3912 22.5615L20.5254 22.2819L20.8386 22.3154L20.8609 22.7404H21.0958L21.0734 22.349H21.1741L21.3083 22.4273L21.4313 22.7852L21.655 22.7069L21.6103 22.5615L21.778 22.6398L21.8787 22.4273L21.7109 22.349L21.8563 22.2931L21.778 22.0806L21.4201 22.2148L21.2859 22.1477L21.2188 22.0806L21.532 21.8569L21.3978 21.6667L21.0511 21.9128L20.8274 21.7003L20.9616 21.4207L21.3754 21.5213L21.4313 21.2977L21.0622 21.2082L21.107 21.1187L21.2076 21.0069H21.5879V20.772H21.4313L21.5655 20.6378L21.532 20.6602ZM20.6372 21.2529L20.2793 21.622L20.0333 21.1746L20.3017 21.4319L20.6372 21.2529ZM19.8991 21.6556L19.832 21.2977L20.078 21.745L19.5748 21.8345L19.9103 21.6556H19.8991ZM19.6083 22.0582L20.1116 21.9687L20.0445 22.472L19.9774 22.1141L19.6083 22.0694V22.0582ZM20.4471 22.17L20.2793 22.5056L20.3465 22.0023L20.8162 22.2148L20.4471 22.17ZM20.9168 22.0023L20.4471 21.7898L20.805 21.4207L20.6372 21.7562L20.9057 22.0134L20.9168 22.0023Z" fill="#E6FDFF"/>
<path d="M26.7545 18.3902L26.6203 18.2001L26.4637 18.3119L26.4861 18.1553L26.2512 18.1218L26.1953 18.502L26.0723 18.5915L25.9828 18.6251L25.9381 18.2448L25.7032 18.2784L25.748 18.7033L25.446 18.804L25.267 18.558L25.5578 18.2448L25.3901 18.0882L25.1328 18.3678L25.0769 18.2895L25.0322 18.1441L25.2111 17.8086L24.9986 17.6968L24.9203 17.831L24.8644 17.652L24.6407 17.7191L24.6967 17.8981L24.5513 17.831L24.4506 18.0435L24.7973 18.2112L24.842 18.3566V18.4573L24.4618 18.3902L24.417 18.6139L24.842 18.6922V19.0053L24.5401 19.106L24.3276 18.7369L24.1151 18.8487L24.3052 19.1731L24.2157 19.2066H24.0592L23.7907 18.9382L23.623 19.0948L23.7348 19.2066H23.5447V19.4415H23.7348L23.623 19.5533L23.7907 19.7099L24.0592 19.4415H24.2157L24.3052 19.4751L24.1151 19.8106L24.3164 19.9224L24.5289 19.5533L24.8309 19.654V19.9672L24.4059 20.0454L24.4506 20.2691L24.8309 20.1908V20.2915L24.7861 20.4369L24.4394 20.6047L24.5401 20.8172L24.6855 20.75L24.6295 20.929L24.8532 20.9961L24.9091 20.8172L24.9874 20.9514L25.1999 20.8395L25.021 20.504L25.0657 20.3586L25.1216 20.2803L25.3789 20.5599L25.5578 20.4033L25.267 20.0902L25.4572 19.8441L25.7591 19.9448L25.7032 20.3698L25.9381 20.3922L25.9828 20.0119L26.0723 20.0454L26.1953 20.1349L26.2512 20.5152L26.4861 20.4816L26.4637 20.325L26.6203 20.4369L26.7657 20.2468L26.6091 20.1349L26.7657 20.1126L26.721 19.8777L26.3407 19.9448L26.2177 19.8553L26.1618 19.777L26.5085 19.6204L26.4078 19.4079L26.0164 19.5869L25.8374 19.3408L26.0276 19.0948L26.419 19.2737L26.5197 19.0612L26.173 18.9047L26.2289 18.8264L26.3519 18.7369L26.7322 18.804L26.7769 18.5691L26.6203 18.5468L26.7769 18.4349L26.7545 18.3902ZM25.7591 18.804L25.3453 19.106L25.1887 18.6251L25.4124 18.927L25.7703 18.8152L25.7591 18.804ZM24.9539 19.0724V18.7033L25.1105 19.1843H24.596L24.9539 19.0724ZM24.596 19.4191H25.1105L24.9539 19.9001V19.531L24.596 19.4191ZM25.4013 19.6764L25.1776 19.9783L25.3341 19.4974L25.748 19.7994L25.3901 19.6876L25.4013 19.6764ZM25.8934 19.5981L25.4795 19.2961L25.8934 18.9941L25.6697 19.2961L25.8934 19.5981Z" fill="#E6FDFF"/>
<path d="M32.0217 17.3055L31.9099 17.1042L31.7421 17.1937L31.7869 17.0483L31.5632 16.9924L31.4625 17.3615L31.3283 17.4286L31.2277 17.4509V17.0707H30.9928V17.4957L30.6797 17.5516L30.5343 17.2832L30.8698 17.0148L30.7244 16.8358L30.4336 17.0819L30.3889 17.0036L30.3665 16.8582L30.5902 16.545L30.4001 16.4108L30.3106 16.5338L30.277 16.3437L30.0422 16.3884L30.0757 16.5786L29.9415 16.4891L29.8073 16.6792L30.1316 16.8917L30.154 17.0371V17.1266L29.7737 17.0036L29.6954 17.2273L30.0981 17.3615L30.0533 17.6746L29.7402 17.7305L29.5836 17.3391L29.3599 17.4286L29.5053 17.7753L29.4047 17.7976L29.2593 17.7753L29.0356 17.4733L28.8455 17.6075L28.9349 17.7305L28.7448 17.7082L28.7112 17.943L28.9014 17.9654L28.7783 18.0661L28.9237 18.245L29.2257 18.0101L29.3711 18.0325L29.4606 18.0772L29.2257 18.3792L29.4158 18.5134L29.6731 18.1667L29.9527 18.3009L29.9079 18.6141L29.483 18.6476V18.8825L29.8856 18.8601V18.9496L29.8073 19.0838L29.4382 19.2068L29.5165 19.4305L29.6619 19.3858L29.5836 19.5536L29.7961 19.6542L29.8744 19.4864L29.9303 19.6318L30.154 19.5536L30.0198 19.1957L30.0869 19.0615L30.154 18.9943L30.3777 19.2963L30.5678 19.1621L30.3218 18.8154L30.5343 18.5917L30.8139 18.7259L30.702 19.1397L30.9257 19.1957L31.0264 18.8266L31.1158 18.8713L31.2277 18.972V19.3522H31.4625V19.1957L31.5968 19.3299L31.7645 19.1621L31.6303 19.0279H31.7869V18.7818L31.4066 18.8042L31.2948 18.7036L31.25 18.6253L31.6191 18.5134L31.552 18.2897L31.1382 18.4128L30.9928 18.1444L31.2053 17.9207L31.5632 18.1444L31.6862 17.943L31.3619 17.7417L31.429 17.6746L31.5632 17.6075L31.9323 17.7194L31.9994 17.4957L31.854 17.4509L32.0217 17.3615V17.3055ZM30.9816 17.6075L30.5231 17.8536L30.4336 17.3503L30.6126 17.6746L30.9816 17.6075ZM30.154 17.7641L30.1987 17.395L30.2882 17.8983L29.7737 17.8312L30.1428 17.7641H30.154ZM29.7514 18.0661L30.2658 18.1332L30.0422 18.5917L30.0869 18.2226L29.7514 18.0661ZM30.5119 18.4128L30.2547 18.6812L30.4783 18.2226L30.8474 18.5693L30.5119 18.4128ZM31.0152 18.4016L30.6461 18.0549L31.1046 17.8088L30.8474 18.0772L31.0264 18.4016H31.0152Z" fill="#E6FDFF"/>
<path d="M37.2891 17.451L37.222 17.2274L37.043 17.2833L37.1101 17.1491L36.8976 17.0484L36.7187 17.3839L36.5733 17.4287H36.4726L36.5509 17.0596L36.316 17.0149L36.2266 17.4287H35.9134L35.8239 17.1267L36.2042 16.9254L36.0924 16.7241L35.7568 16.903L35.7345 16.8136V16.6682L36.0253 16.4109L35.8687 16.2432L35.7568 16.3438V16.1537H35.522V16.3438L35.4101 16.232L35.2424 16.3997L35.5108 16.6682V16.8136L35.4772 16.903L35.1417 16.7129L35.0187 16.9142L35.3878 17.1267L35.2871 17.4175H34.9739L34.8957 16.9925L34.6608 17.0372L34.7279 17.4063H34.6272L34.4818 17.3616L34.3253 17.0149L34.1128 17.1155L34.1799 17.2609L34.0009 17.205L33.9226 17.4287L34.1016 17.4846L33.9562 17.5517L34.068 17.7642L34.4147 17.5964L34.5601 17.6412L34.6384 17.6971L34.3476 17.9543L34.5042 18.1333L34.8286 17.8537L35.0746 18.0438L34.9739 18.3346L34.5489 18.2787L34.5154 18.5135L34.8957 18.5695L34.8621 18.6589L34.7726 18.782L34.3924 18.8267L34.4147 19.0616L34.5713 19.0392L34.4595 19.1846L34.6496 19.33L34.7614 19.1846L34.7838 19.3412L35.0187 19.3076L34.9628 18.9385L35.0522 18.8155L35.1305 18.7596L35.2871 19.1063L35.4996 19.0168L35.3318 18.6254L35.5891 18.4464L35.8351 18.6366L35.645 19.0168L35.8575 19.1175L36.0253 18.782L36.1035 18.8379L36.193 18.9609L36.1147 19.33L36.3496 19.3747L36.3831 19.2181L36.495 19.3747L36.6851 19.2405L36.5733 19.0839L36.7299 19.1063L36.7634 18.8714L36.3831 18.8155L36.2937 18.6925L36.2713 18.603L36.6516 18.5695L36.6292 18.3346L36.2042 18.3793L36.1147 18.0774L36.372 17.8984L36.6851 18.1892L36.8529 18.0214L36.5733 17.7642L36.6516 17.7083L36.797 17.6635L37.1325 17.8425L37.2443 17.6412L37.1101 17.5629L37.2891 17.507V17.451ZM36.2154 17.5293L35.7233 17.6747V17.1714L35.8463 17.5293H36.2266H36.2154ZM35.3654 17.5182L35.4884 17.1714V17.6747L34.9851 17.507H35.3654V17.5182ZM34.918 17.7307L35.4101 17.8984L35.097 18.301L35.22 17.9543L34.918 17.7307ZM35.5891 18.2339L35.2759 18.4464L35.5891 18.0438L35.8799 18.4576L35.5779 18.2339H35.5891ZM36.0812 18.3234L35.7904 17.9096L36.2825 17.7642L35.9693 17.9767L36.0812 18.3346V18.3234Z" fill="#E6FDFF"/>
<path d="M35.3541 13.7383C34.5153 13.839 34.0568 14.7113 33.1734 14.9126C31.6748 15.2704 31.3281 13.839 29.8072 14.208C28.3311 14.5659 28.0962 15.8072 27.0226 16.1986C25.949 16.5789 24.8978 15.5612 23.7348 15.9191C22.5717 16.2657 22.6388 17.7643 21.5093 18.2116C20.3463 18.6813 19.597 17.4623 18.8701 17.8314C18.68 17.9208 18.5123 18.0662 18.3669 18.2228C19.4181 13.9061 22.0573 10.1821 25.3787 9.29864C28.6218 8.61647 32.4912 10.5735 35.3429 13.7383H35.3541Z" fill="#84B84A"/>
<g style="mix-blend-mode:soft-light" opacity="0.24">
<path d="M37.7819 17.1834C36.9766 17.6755 35.478 17.9662 33.0286 17.9774C29.1365 17.9998 26.9556 12.8998 26.0385 10.909C25.6024 9.98076 25.8931 9.45511 26.307 9.16432C29.3379 8.97419 32.7602 10.8531 35.3437 13.7274C36.2832 14.7676 37.1108 15.9307 37.7707 17.1722L37.7819 17.1834Z" fill="#F3FFE6"/>
</g>
<g style="mix-blend-mode:multiply" opacity="0.31">
<path d="M26.0721 21.8126L18.434 26.8338C18.2327 25.928 18.0761 24.9551 17.9531 23.915C17.7518 22.0251 17.9084 20.068 18.3669 18.2116C19.0602 15.3823 20.4357 12.799 22.2362 11.1103L22.5382 10.8308C22.3593 11.0544 18.9931 15.4382 21.6435 18.905C24.3722 22.4724 26.0721 21.8014 26.0721 21.8014V21.8126Z" fill="#8A81C4"/>
</g>
<path d="M40.6885 23.5233C40.7332 23.7134 40.7556 24.0824 40.7667 24.5409C40.7667 24.7422 40.7667 24.9771 40.7667 25.2119C40.7667 25.7823 40.7556 26.4197 40.7332 27.046C40.7332 27.1131 40.7332 27.1802 40.7332 27.2473C40.7332 27.3032 40.7332 27.3479 40.7332 27.4038C40.722 27.7281 40.7108 28.0413 40.6885 28.332C40.6885 28.4662 40.6885 28.5892 40.6661 28.7011C40.6325 29.3944 40.5878 29.8753 40.5654 29.9312C40.3865 30.3114 40.1405 30.3785 39.9168 30.3003C39.682 30.222 39.4471 29.9759 39.3129 29.7635C39.2682 29.6964 39.2011 29.5174 39.1228 29.2714C39.0893 29.1819 39.0557 29.0925 39.0222 28.9806C38.9215 28.6899 38.8209 28.3544 38.6979 27.9853C38.6643 27.8959 38.6419 27.7952 38.6084 27.6946C38.5301 27.4821 38.463 27.2584 38.3847 27.0348C38.3512 26.9341 38.3288 26.8447 38.2841 26.744C38.1722 26.3973 38.0492 26.0618 37.9374 25.7487C37.9039 25.6481 37.8703 25.5586 37.8368 25.4691C37.7249 25.1672 37.6019 24.8988 37.5013 24.6863C37.4453 24.5745 37.3894 24.485 37.3447 24.4067C37.3335 24.3844 37.3111 24.3508 37.3 24.3396C37.1658 24.1719 36.9868 24.0489 36.7744 23.9482C36.7408 23.9259 36.6961 23.9147 36.6513 23.8923C36.5619 23.8588 36.4612 23.814 36.3494 23.7917C36.1034 23.7246 35.835 23.6798 35.5442 23.6575C35.4436 23.6575 35.3429 23.6463 35.2423 23.6463C34.8509 23.6351 34.4371 23.6463 34.0457 23.6798C33.945 23.6798 33.8444 23.7022 33.7437 23.7134C33.4641 23.7469 33.1398 23.7917 32.7708 23.8364C32.6701 23.8476 32.5807 23.87 32.4689 23.8811C32.1334 23.9371 31.7755 23.993 31.3953 24.0601C31.2946 24.0824 31.194 24.0936 31.0933 24.116C30.7578 24.1719 30.4223 24.239 30.0757 24.3173C29.975 24.3396 29.8855 24.362 29.7849 24.3732C29.5277 24.4291 29.2705 24.485 29.0133 24.5409C28.9126 24.5633 28.812 24.5857 28.7113 24.608C28.4206 24.6751 28.1298 24.7422 27.839 24.8205C27.7384 24.8429 27.6377 24.8653 27.5483 24.8988C27.1904 24.9883 26.8437 25.0889 26.5194 25.1784C26.4188 25.2119 26.3293 25.2343 26.2287 25.2678C25.9155 25.3573 25.6248 25.458 25.3564 25.5586C25.2557 25.5922 25.1663 25.6257 25.0768 25.6704C24.8419 25.7599 24.6407 25.8494 24.4505 25.9388C24.3387 25.9947 24.2269 26.0395 24.115 26.1066C24.0256 26.1513 23.9361 26.196 23.8355 26.2408C23.5559 26.375 23.2651 26.5204 23.0079 26.6657C22.9184 26.7217 22.829 26.7664 22.7395 26.8223C22.4823 26.9789 22.2586 27.1354 22.0797 27.3144C21.9902 27.3926 21.912 27.4821 21.8449 27.5716C21.7107 27.7393 21.6212 27.9183 21.5765 28.1084C21.5765 28.1531 21.5541 28.2202 21.5541 28.2761C21.5541 28.3656 21.5541 28.4662 21.5541 28.5781C21.5541 28.8017 21.5765 29.0813 21.61 29.3832C21.61 29.4839 21.6324 29.5734 21.6436 29.674C21.6771 29.9536 21.7219 30.2443 21.7554 30.5351C21.7666 30.6358 21.789 30.7364 21.8001 30.8259C21.856 31.1837 21.912 31.5528 21.9679 31.8994C21.9902 32.0001 22.0014 32.1007 22.0126 32.1902C22.0685 32.5481 22.1244 32.8836 22.158 33.152C22.1692 33.2638 22.1915 33.3644 22.1915 33.4539C22.2139 33.644 22.2251 33.7782 22.2251 33.8341C22.1915 34.1473 22.0462 34.6058 21.7442 34.7064C21.5877 34.7623 21.4087 34.7288 21.1739 34.5499C21.1291 34.5163 20.8719 34.0802 20.5029 33.4651C20.4358 33.3644 20.3799 33.2526 20.3128 33.1296C20.145 32.8276 19.9549 32.5033 19.7648 32.1567C19.6977 32.0336 19.6306 31.9218 19.5747 31.81C19.3734 31.4409 19.1721 31.0719 18.9932 30.714C18.9149 30.5687 18.8478 30.4345 18.7807 30.3003C18.4564 29.6628 18.2215 29.126 18.1544 28.88C18.1097 28.6787 18.0761 28.4662 18.0426 28.2426C18.009 27.9853 17.9979 27.7281 17.9979 27.4821C17.9979 26.9341 18.1097 26.4309 18.3222 26.1513C18.4005 26.0507 18.5011 25.9388 18.6465 25.7935C18.7248 25.7152 18.8031 25.6369 18.8925 25.5586C19.1497 25.3126 19.474 25.0442 19.8207 24.7646C19.899 24.6975 19.9885 24.6304 20.0668 24.5633C20.4693 24.2502 20.9167 23.9371 21.3528 23.6687C21.4423 23.6127 21.5317 23.5568 21.6212 23.5121C21.6883 23.4674 21.7554 23.4338 21.8113 23.4003C22.0573 23.2661 22.3257 23.1319 22.6053 23.0089C22.6948 22.9641 22.7843 22.9306 22.8849 22.8858C23.2428 22.7405 23.6342 22.5839 24.0368 22.4497C24.1262 22.4161 24.2269 22.3826 24.3163 22.349C24.6742 22.226 25.0432 22.1142 25.4235 22.0024C25.5241 21.9688 25.6136 21.9465 25.7142 21.9129C26.0274 21.8234 26.3517 21.734 26.676 21.6557C26.7766 21.6333 26.8773 21.5998 26.9667 21.5774C27.2016 21.5215 27.4364 21.4656 27.6825 21.4097L27.9844 21.3426C28.2975 21.2755 28.6107 21.2084 28.9238 21.1413C28.9909 21.1301 29.058 21.1077 29.1251 21.0965C29.2257 21.0742 29.3264 21.063 29.427 21.0406C29.8184 20.9623 30.2099 20.8952 30.5901 20.8281C30.6907 20.8058 30.7914 20.7946 30.892 20.7834C31.2723 20.7163 31.6525 20.6604 32.0103 20.6045C32.111 20.5933 32.2116 20.5709 32.3123 20.5597C32.6925 20.5038 33.0616 20.4591 33.4082 20.4144C33.5089 20.4032 33.6095 20.392 33.7102 20.3808C34.1351 20.3361 34.5266 20.3025 34.8844 20.269C34.8956 20.269 34.918 20.269 34.9291 20.269C35.0186 20.269 35.0969 20.269 35.1864 20.269C35.4995 20.269 35.835 20.2802 36.1705 20.3249C36.2711 20.3361 36.3718 20.3473 36.4836 20.3696C36.8974 20.4367 37.3111 20.515 37.6914 20.6157C37.8032 20.6492 37.915 20.6716 38.0157 20.7051C38.5972 20.8729 39.0669 21.0518 39.3017 21.1636C39.3465 21.186 39.38 21.2084 39.4248 21.2307C39.5366 21.309 39.6484 21.4097 39.7491 21.5327C40.174 22.0247 40.5319 22.8523 40.6996 23.5345L40.6885 23.5233Z" fill="#C6E6A1"/>
<path d="M21.532 28.2772C21.532 28.3667 21.532 28.4674 21.532 28.5792C21.0176 28.6911 20.5702 28.568 20.2011 28.322C19.8208 28.0647 19.5189 27.6957 19.284 27.3042C18.9485 26.745 18.7472 26.1299 18.6465 25.7944C18.7248 25.7161 18.8031 25.6378 18.8926 25.5595C18.9373 25.7496 19.0603 26.1523 19.2616 26.5996C19.5077 27.1588 19.8768 27.7628 20.3689 28.0871C20.6932 28.2996 21.0623 28.4003 21.5208 28.2884H21.5432L21.532 28.2772Z" fill="#B1C45A"/>
<path d="M22.0577 27.293C21.9682 27.3937 21.8899 27.472 21.8228 27.5615C21.532 27.4943 21.286 27.293 21.0623 27.0582C20.7827 26.7562 20.5478 26.3647 20.3465 25.9733C20.1116 25.5036 19.9327 25.0338 19.832 24.743C19.9103 24.6759 19.9998 24.6088 20.0781 24.5417C20.0781 24.5641 20.0893 24.5865 20.1005 24.62C20.1564 24.7878 20.2458 25.0227 20.3577 25.2911C20.5814 25.8167 20.9057 26.443 21.2748 26.8569C21.5208 27.1253 21.7893 27.293 22.0465 27.293H22.0577Z" fill="#B1C45A"/>
<path d="M22.9856 26.6553C22.8962 26.7112 22.8067 26.7559 22.7172 26.8118C22.6725 26.7671 22.6278 26.7224 22.583 26.6664C22.4824 26.5322 22.3705 26.3645 22.281 26.1855C22.0909 25.8164 21.912 25.3803 21.7554 24.9441C21.5764 24.452 21.4422 23.9711 21.3528 23.6467C21.4422 23.5908 21.5317 23.5349 21.6212 23.4901C21.6659 23.6355 21.7106 23.8145 21.7666 24.0158C21.912 24.4967 22.1133 25.1007 22.337 25.6263C22.4935 25.973 22.6501 26.2862 22.8179 26.4875C22.8738 26.5546 22.9297 26.6105 22.9745 26.6553H22.9856Z" fill="#B1C45A"/>
<path d="M24.0928 26.0963C24.0033 26.1411 23.9138 26.1858 23.8132 26.2305C23.7908 26.197 23.7684 26.1634 23.746 26.1187C23.6678 25.9845 23.5895 25.8167 23.5 25.6378C23.3434 25.2687 23.1757 24.8213 23.0414 24.3963C22.8513 23.8371 22.7059 23.3003 22.6165 22.9983C22.7059 22.9536 22.7954 22.92 22.8961 22.8753C22.9072 22.9312 22.9296 22.9871 22.9408 23.0431C23.0079 23.2891 23.1086 23.6246 23.2316 23.9825C23.4664 24.7095 23.7572 25.5483 24.0145 25.9621C24.0368 26.018 24.0704 26.0516 24.0928 26.0963Z" fill="#B1C45A"/>
<path d="M25.3453 25.5598C25.2446 25.5934 25.1551 25.6269 25.0656 25.6717C24.9762 25.3697 24.842 24.9111 24.6854 24.4302C24.4729 23.7368 24.2268 22.9875 24.0703 22.4954C24.0703 22.473 24.0591 22.4618 24.0591 22.4506C24.1486 22.4171 24.2492 22.3835 24.3387 22.35C24.4505 22.6855 24.5959 23.1552 24.7525 23.6473C24.9762 24.3631 25.2222 25.1236 25.3453 25.571V25.5598Z" fill="#B1C45A"/>
<path d="M26.2846 24.2405C26.3741 24.6096 26.4524 24.934 26.5083 25.1912C26.4076 25.2247 26.3182 25.2471 26.2175 25.2807C26.1616 25.0234 26.0833 24.6879 25.9938 24.3188C25.8484 23.7261 25.6919 23.0662 25.5576 22.5405C25.5129 22.328 25.457 22.1491 25.4234 22.0037C25.5241 21.9702 25.6136 21.9478 25.7142 21.9142C25.8372 22.4175 26.0833 23.4129 26.2846 24.2405Z" fill="#B1C45A"/>
<path d="M27.772 24.5313C27.7944 24.6432 27.8279 24.7438 27.8391 24.8333C27.7385 24.8557 27.6378 24.878 27.5483 24.9116C27.526 24.8221 27.5036 24.7214 27.4812 24.6096C27.2799 23.7708 26.8885 22.3392 26.6983 21.6682C26.799 21.6458 26.8996 21.6123 26.9891 21.5899C27.0562 21.8248 27.1345 22.1267 27.2352 22.4734C27.4253 23.1557 27.6378 23.9721 27.772 24.5425V24.5313Z" fill="#B1C45A"/>
<path d="M21.588 29.3845C21.588 29.4851 21.6103 29.5746 21.6215 29.6753C20.8722 29.8207 20.257 29.7759 19.7426 29.6082C19.2169 29.4516 18.8031 29.1608 18.4899 28.8365C18.2998 28.6463 18.1544 28.4338 18.0314 28.2325C17.9978 27.9753 17.9867 27.718 17.9867 27.472C18.065 27.6845 18.1768 27.9305 18.3446 28.1766C18.6577 28.6463 19.1163 29.1161 19.832 29.3286C20.2906 29.4739 20.8722 29.5075 21.588 29.3733V29.3845Z" fill="#B1C45A"/>
<path d="M28.9127 24.1058C28.9462 24.2624 28.9798 24.4078 29.0021 24.5532C28.9015 24.5755 28.8008 24.5979 28.7002 24.6203C28.6778 24.4861 28.6443 24.3407 28.6107 24.1729C28.387 23.2334 27.9173 21.9808 27.6936 21.3992L27.9956 21.3321C28.2304 21.9361 28.689 23.1663 28.9127 24.1058Z" fill="#B1C45A"/>
<path d="M29.6396 21.8916C29.7514 22.3837 29.8744 22.9541 29.9639 23.491C30.0086 23.7929 30.0534 24.0725 30.0757 24.3298C29.9751 24.3521 29.8856 24.3745 29.7849 24.3857C29.7626 24.1285 29.729 23.8377 29.6731 23.5357C29.5836 23.0101 29.4606 22.4397 29.3488 21.9587C29.2705 21.6232 29.1922 21.3212 29.1363 21.0976C29.2369 21.0752 29.3376 21.064 29.4382 21.0416C29.4942 21.2653 29.5725 21.5561 29.6507 21.8916H29.6396Z" fill="#B1C45A"/>
<path d="M30.8808 20.7839C30.9368 21.0523 31.0039 21.4214 31.0822 21.824C31.2164 22.5846 31.3618 23.4793 31.3953 24.0832C31.2947 24.1056 31.194 24.1168 31.0933 24.1391C31.0933 24.072 31.0933 24.0049 31.0933 23.9378C31.071 23.647 31.0262 23.3115 30.9703 22.9536C30.8585 22.2378 30.7131 21.4661 30.6124 20.974C30.6124 20.9293 30.5901 20.8846 30.5901 20.8398C30.6907 20.8175 30.7914 20.8063 30.892 20.7951L30.8808 20.7839Z" fill="#B1C45A"/>
<path d="M32.3011 20.56C32.4353 21.41 32.6814 23.0205 32.7597 23.8482C32.659 23.8594 32.5695 23.8817 32.4577 23.8929C32.4577 23.837 32.4465 23.7699 32.4353 23.7028C32.4018 23.4232 32.357 23.0765 32.3123 22.7186C32.2116 21.9916 32.0886 21.1752 32.0103 20.6495C32.0103 20.6383 32.0103 20.6159 32.0103 20.6048C32.111 20.5936 32.2116 20.5712 32.3123 20.56H32.3011Z" fill="#B1C45A"/>
<path d="M33.699 20.382C33.7996 20.9971 33.9674 22.2274 34.0233 23.1669C34.0233 23.357 34.0345 23.5359 34.0345 23.6925C33.9338 23.6925 33.8332 23.7149 33.7325 23.7261C33.7325 23.6478 33.7325 23.5695 33.7325 23.4912C33.7325 23.2004 33.699 22.8649 33.6654 22.5182C33.5983 21.8248 33.4977 21.0754 33.4194 20.5945C33.4194 20.5386 33.397 20.4827 33.397 20.4379C33.4977 20.4267 33.5983 20.4156 33.699 20.4044V20.382Z" fill="#B1C45A"/>
<path d="M35.1752 20.2586C35.287 20.8066 35.4995 22.0369 35.5442 23.0211C35.5442 23.256 35.5442 23.4685 35.5442 23.6698C35.4436 23.6698 35.3429 23.6586 35.2423 23.6586C35.2423 23.5579 35.2534 23.4573 35.2534 23.3454C35.2534 23.0546 35.2311 22.7191 35.1975 22.3724C35.1304 21.6902 35.0074 20.9856 34.9291 20.527C34.9067 20.4264 34.8956 20.3481 34.8844 20.281C34.8956 20.281 34.9179 20.281 34.9291 20.281C35.0186 20.281 35.0969 20.281 35.1863 20.281L35.1752 20.2586Z" fill="#B1C45A"/>
<path d="M36.4724 20.359C36.4948 20.5827 36.5171 20.8511 36.5395 21.1419C36.5954 21.8018 36.6402 22.5847 36.6402 23.2222C36.6402 23.4794 36.6402 23.7255 36.6402 23.9156C36.5507 23.882 36.45 23.8373 36.3382 23.8149C36.3382 23.6807 36.3382 23.5353 36.3382 23.3788C36.3382 23.0321 36.3158 22.6182 36.3046 22.2044C36.2711 21.4998 36.204 20.7729 36.1592 20.3143C36.2599 20.3255 36.3606 20.3367 36.4724 20.359Z" fill="#B1C45A"/>
<path d="M38.0045 20.6943C38.1611 21.4548 38.34 22.8304 37.9486 23.9153C37.8479 24.2061 37.6914 24.4745 37.49 24.7094C37.4341 24.5975 37.3782 24.5081 37.3335 24.4298C37.4789 24.2508 37.5795 24.0383 37.6578 23.8146C37.8032 23.4232 37.8591 22.987 37.8703 22.5508C37.8927 21.7903 37.7697 21.0522 37.669 20.6048C37.7808 20.6383 37.8927 20.6607 37.9933 20.6943H38.0045Z" fill="#B1C45A"/>
<path d="M39.738 21.5227C39.738 21.6122 39.738 21.7129 39.738 21.8135C39.7492 22.5964 39.6598 23.603 39.2236 24.453C38.944 24.9898 38.5302 25.4595 37.9262 25.7615C37.8927 25.6609 37.8591 25.5714 37.8256 25.4819C38.3177 25.2247 38.6644 24.8444 38.9104 24.4082C39.1788 23.9273 39.3242 23.3793 39.3913 22.8424C39.4696 22.2385 39.4473 21.6569 39.4137 21.2207C39.5255 21.299 39.6374 21.3997 39.738 21.5227Z" fill="#B1C45A"/>
<path d="M40.7669 24.5421C40.7669 24.7434 40.7669 24.9783 40.7669 25.2131C40.3531 25.8954 39.615 26.5441 38.3735 27.0362C38.34 26.9355 38.3176 26.846 38.2729 26.7454C39.6821 26.1862 40.3755 25.4256 40.6886 24.7099C40.711 24.6539 40.7446 24.5868 40.7557 24.5309L40.7669 24.5421Z" fill="#B1C45A"/>
<path d="M40.7334 27.058C40.7334 27.1811 40.7334 27.3041 40.7222 27.4159C40.3419 27.6396 39.9393 27.7738 39.559 27.8633C39.2235 27.9416 38.9103 27.9863 38.6867 27.9975C38.6531 27.908 38.6308 27.8074 38.5972 27.7067C38.6084 27.7067 38.6196 27.7067 38.6307 27.7067C38.8544 27.6955 39.1564 27.6508 39.4919 27.5725C39.9057 27.4719 40.3531 27.3153 40.7334 27.058Z" fill="#B1C45A"/>
<path d="M40.6662 28.3445C40.6662 28.4788 40.6662 28.6018 40.6438 28.7136C40.3642 28.8926 39.9393 29.0939 39.4583 29.2169C39.3353 29.2393 39.2235 29.2616 39.1004 29.284C39.0669 29.1945 39.0333 29.1051 38.9998 28.9932C39.134 28.982 39.2682 28.9597 39.3912 28.9261C39.9504 28.7919 40.4202 28.5123 40.6662 28.3445Z" fill="#B1C45A"/>
<path d="M21.7333 30.5476C21.7445 30.6483 21.7668 30.749 21.778 30.8384C20.5813 31.0957 19.653 30.9615 18.982 30.7154C18.9037 30.57 18.8366 30.4358 18.7695 30.3016C19.3958 30.6036 20.3576 30.8384 21.7333 30.5476Z" fill="#B1C45A"/>
<path d="M21.9345 31.9113C21.9569 32.0119 21.9681 32.1126 21.9792 32.2021C21.2075 32.3698 20.4023 32.3027 19.7424 32.1685C19.6753 32.0455 19.6082 31.9336 19.5523 31.8218C19.5635 31.8218 19.5858 31.8218 19.597 31.8218C20.2681 31.9896 21.1292 32.0902 21.9345 31.9113Z" fill="#B1C45A"/>
<path d="M22.1358 33.1637C22.147 33.2755 22.1693 33.3762 22.1693 33.4657C21.5318 33.5775 20.9503 33.5551 20.4917 33.4657C20.4246 33.365 20.3687 33.2532 20.3016 33.1301C20.7825 33.2308 21.42 33.2867 22.1358 33.1637Z" fill="#B1C45A"/>
<g style="mix-blend-mode:multiply" opacity="0.31">
<path d="M26.2182 25.268C25.905 25.3575 25.6143 25.4581 25.3458 25.5588C25.2452 25.5923 25.1557 25.6259 25.0662 25.6706C24.8314 25.7601 24.6301 25.8496 24.4399 25.939C24.3281 25.995 24.2162 26.0397 24.1044 26.1068C24.0149 26.1515 23.9254 26.1963 23.8248 26.241C23.5452 26.3752 23.2544 26.5206 22.9972 26.666C22.9077 26.7219 22.8182 26.7667 22.7287 26.8226C22.4715 26.9792 22.2478 27.1357 22.0689 27.3147C21.9794 27.393 21.9011 27.4825 21.834 27.5719C21.6998 27.7397 21.6103 27.9186 21.5656 28.1088C21.5656 28.1535 21.5432 28.2206 21.5432 28.2765C21.5432 28.366 21.5432 28.4667 21.5432 28.5785C21.5432 28.8022 21.5656 29.0818 21.5991 29.3838C21.5991 29.4844 21.6215 29.5739 21.6327 29.6745C21.6662 29.9541 21.711 30.2449 21.7445 30.5357C21.7557 30.6364 21.7781 30.737 21.7893 30.8265C21.8452 31.1844 21.9011 31.5535 21.957 31.9002C21.9794 32.0008 21.9906 32.1015 22.0018 32.191C22.0577 32.5489 22.1136 32.8844 22.1472 33.1528C22.1584 33.2647 22.1807 33.3653 22.1807 33.4548C22.2031 33.6449 22.2143 33.7791 22.2143 33.835C22.1807 34.1482 22.0353 34.6068 21.7334 34.7074C21.4649 34.4725 21.1406 33.8015 20.9281 32.0903C20.4919 28.6344 20.2235 28.1088 21.3531 27.3035C22.4827 26.4982 25.2004 25.3798 26.2406 25.2568L26.2182 25.268Z" fill="#8A81C4"/>
</g>
<g style="mix-blend-mode:multiply" opacity="0.31">
<path d="M39.8947 30.3119C39.6599 30.2336 39.425 29.9876 39.2908 29.7751C39.246 29.708 39.1789 29.529 39.1007 29.283C39.0671 29.1935 39.0336 29.104 39 28.9922C38.8993 28.7014 38.7987 28.3659 38.6757 27.9968C38.6421 27.9073 38.6197 27.8067 38.5862 27.706C38.5079 27.4935 38.4408 27.2698 38.3625 27.0462C38.3289 26.9455 38.3066 26.856 38.2618 26.7554C38.15 26.4087 38.027 26.0731 37.9151 25.76C37.8816 25.6593 37.848 25.5699 37.8145 25.4804C37.7026 25.1784 37.5796 24.91 37.479 24.6975C37.423 24.5856 37.3671 24.4962 37.3224 24.4179C37.3112 24.3955 37.2888 24.362 37.2776 24.3508C37.1434 24.183 36.9645 24.06 36.752 23.9593C36.998 23.9929 37.3783 24.0712 37.5908 24.2166C37.9375 24.4291 39.0224 27.5271 39.2349 28.4777C39.425 29.3389 39.6151 30.0771 39.8835 30.3119H39.8947Z" fill="#8A81C4"/>
</g>
<g style="mix-blend-mode:soft-light" opacity="0.57">
<path d="M40.6884 23.5237C40.7331 23.7138 40.7555 24.0828 40.7667 24.5414C40.7667 24.7426 40.7667 24.9775 40.7667 25.2123C40.7667 25.7827 40.7555 26.4201 40.7331 27.0464C40.7331 27.1135 40.7331 27.1806 40.7331 27.2477C40.5319 27.1023 40.2746 26.7109 39.9615 26.655C39.2234 26.532 38.5972 23.1882 37.367 22.5508C36.1369 21.9133 32.5359 22.5284 31.4959 22.8415C30.4558 23.1658 28.0291 23.6803 27.4923 22.5955C27.2239 22.0475 27.9844 21.5331 28.9238 21.1305C28.9909 21.1193 29.058 21.0969 29.1251 21.0858C29.2257 21.0634 29.3263 21.0522 29.427 21.0298C29.8184 20.9516 30.2098 20.8845 30.59 20.8174C30.6907 20.795 30.7913 20.7838 30.892 20.7726C31.2722 20.7055 31.6524 20.6496 32.0103 20.5937C32.111 20.5825 32.2116 20.5602 32.3122 20.549C32.6925 20.4931 33.0615 20.4483 33.4082 20.4036C33.5088 20.3924 33.6095 20.3812 33.7101 20.37C34.1351 20.3253 34.5265 20.2918 34.8844 20.2582C34.8956 20.2582 34.9179 20.2582 34.9291 20.2582C35.0186 20.2582 35.0968 20.2582 35.1863 20.2582C35.4994 20.2582 35.8349 20.2694 36.1704 20.3141C36.2711 20.3253 36.3717 20.3365 36.4836 20.3589C36.8973 20.426 37.3111 20.5042 37.6913 20.6049C37.8032 20.6384 37.915 20.6608 38.0156 20.6944C38.5972 20.8621 39.0669 21.041 39.3017 21.1529C39.3464 21.1752 39.38 21.1976 39.4247 21.22C39.5366 21.2982 39.6484 21.3989 39.749 21.5219C40.174 22.014 40.5319 22.8415 40.6996 23.5237H40.6884Z" fill="white"/>
</g>
<path d="M42.0531 33.9011H41.7847L41.684 34.1584C41.5386 34.4939 41.1248 34.6169 40.8228 34.4156L40.5992 34.2702L40.3755 34.4044C40.0623 34.5945 39.6485 34.4491 39.5255 34.1136L39.436 33.8787L39.1788 33.8564C38.8097 33.8228 38.5636 33.4649 38.6643 33.1182L38.7314 32.8834L38.5413 32.7268C38.2617 32.4919 38.2729 32.0557 38.5636 31.8209L38.765 31.6643L38.709 31.4182C38.6308 31.0603 38.888 30.7136 39.2571 30.7025H39.5255L39.6261 30.4452C39.7715 30.1097 40.1853 29.9867 40.4873 30.188L40.711 30.3334L40.9347 30.1992C41.2478 30.009 41.6617 30.1544 41.7847 30.49L41.8742 30.7248L42.1314 30.7472C42.5005 30.7807 42.7465 31.1386 42.6459 31.4853L42.5788 31.7202L42.7689 31.8768C43.0485 32.1117 43.0373 32.5478 42.7465 32.7827L42.5452 32.9393L42.6011 33.1853C42.6794 33.5432 42.4222 33.8899 42.0531 33.9011Z" fill="#E2EBBB"/>
<path d="M41.9859 33.5991H41.7511L41.6616 33.8227C41.5386 34.1247 41.1695 34.2254 40.9011 34.0576L40.6998 33.9346L40.4985 34.0576C40.2188 34.2254 39.861 34.1023 39.7379 33.8004L39.6596 33.5879L39.436 33.5655C39.1116 33.5431 38.8879 33.2188 38.9774 32.9056L39.0333 32.6931L38.8656 32.5477C38.6195 32.3352 38.6195 31.9438 38.8768 31.7425L39.0557 31.5971L38.9998 31.3734C38.9215 31.0603 39.1563 30.7471 39.4807 30.7359H39.7156L39.805 30.5122C39.9281 30.2103 40.2971 30.1096 40.5656 30.2774L40.7669 30.4004L40.9682 30.2774C41.2478 30.1096 41.6057 30.2326 41.7287 30.5346L41.807 30.7471L42.0307 30.7695C42.355 30.7918 42.5787 31.1162 42.4892 31.4293L42.4333 31.6418L42.6011 31.7872C42.8471 31.9997 42.8471 32.3912 42.5899 32.5925L42.4109 32.7379L42.4669 32.9616C42.5452 33.2747 42.3103 33.5879 41.9859 33.5991Z" fill="#E9F2C1"/>
<path d="M40.0845 31.2508C40.1069 31.1613 40.6773 30.6804 40.8898 30.9376C41.1023 31.1948 40.9905 31.2396 41.2701 31.2955C41.5497 31.3514 41.7845 31.2843 41.7286 31.5304C41.6727 31.7764 41.2365 31.8994 41.572 32.0672C41.9076 32.235 41.9859 32.0896 41.9747 32.4475C41.9747 32.8054 41.2924 32.9843 41.2924 32.9843C41.2924 32.9843 41.203 33.6665 40.8227 33.2975C40.4424 32.9284 40.4201 32.783 40.6885 32.7942C40.9569 32.8054 41.4714 32.8501 41.2813 32.5258C41.0799 32.2014 40.8115 32.1902 40.9793 31.9777C41.147 31.7764 41.6503 31.6087 41.0352 31.5416C40.4201 31.4856 40.1405 31.6869 40.3194 31.4521C40.4984 31.2172 40.0175 31.5192 40.0734 31.2508H40.0845Z" fill="#F6FFCB"/>
<path d="M39.3017 31.7872C39.4695 31.6418 39.682 31.8096 39.7155 32.1227C39.7491 32.4359 39.8721 32.4806 39.6596 32.7826C39.5142 32.9951 39.8721 32.8609 39.9951 32.9951C40.1294 33.1293 39.9951 33.722 39.805 33.3977C39.6484 33.1405 39.3129 33.3753 39.38 33.051C39.4471 32.7267 39.2905 32.8161 39.38 32.626C39.4695 32.4247 39.5478 32.4359 39.4919 32.2793C39.4359 32.1227 39.3241 32.2793 39.2458 32.2234C38.9438 31.9885 39.2905 31.7984 39.2905 31.7984L39.3017 31.7872Z" fill="#F6FFCB"/>
<path d="M40.1069 30.5012C40.2747 30.4452 40.3977 30.434 40.476 30.49C40.5431 30.5347 40.4536 30.6354 40.4536 30.6354C40.4536 30.6354 40.3977 30.5012 40.2635 30.6354C40.1293 30.7696 40.051 30.8143 39.9504 30.8031C39.8385 30.8031 39.9504 30.5571 40.1181 30.5012H40.1069Z" fill="#F6FFCB"/>
<path d="M41.9298 33.4083C42.1199 33.4419 42.2317 33.1958 42.2989 33.0504C42.366 32.8939 42.2317 32.7708 42.2989 32.6814C42.366 32.6031 42.4442 32.5472 42.3436 32.4018C42.2429 32.2564 42.1311 32.4018 42.1646 32.5024C42.1982 32.6031 42.2429 32.5695 42.1535 32.7037C42.064 32.838 42.1535 32.8156 42.0975 32.9162C42.0416 33.0169 42.064 33.0504 41.9633 33.084C41.8627 33.1176 41.7173 33.084 41.7508 33.1958C41.7844 33.3077 41.7956 33.3972 41.9298 33.4195V33.4083Z" fill="#F6FFCB"/>
<path d="M23.7351 38.2635H23.4667L23.366 38.5207C23.2206 38.8562 22.8068 38.9793 22.5048 38.7779L22.2811 38.6325L22.0575 38.7668C21.7443 38.9569 21.3305 38.8115 21.2075 38.476L21.118 38.2411L20.8608 38.2187C20.4917 38.1852 20.2456 37.8273 20.3463 37.4806L20.4134 37.2457L20.2233 37.0891C19.9437 36.8543 19.9548 36.4181 20.2456 36.1832L20.4469 36.0266L20.391 35.7806C20.3127 35.4227 20.57 35.076 20.939 35.0648H21.2075L21.3081 34.8076C21.4535 34.472 21.8673 34.349 22.1693 34.5503L22.393 34.6957L22.6167 34.5615C22.9298 34.3714 23.3436 34.5168 23.4667 34.8523L23.5561 35.0872L23.8134 35.1095C24.1824 35.1431 24.4285 35.501 24.3278 35.8477L24.2607 36.0826L24.4509 36.2391C24.7305 36.474 24.7193 36.9102 24.4285 37.1451L24.2272 37.3016L24.2831 37.5477C24.3614 37.9056 24.1042 38.2523 23.7351 38.2635Z" fill="#E2EBBB"/>
<path d="M23.668 37.9615H23.4331L23.3436 38.1852C23.2206 38.4872 22.8515 38.5878 22.5831 38.4201L22.3818 38.297L22.1805 38.4201C21.9009 38.5878 21.543 38.4648 21.42 38.1628L21.3417 37.9503L21.118 37.9279C20.7937 37.9056 20.57 37.5812 20.6594 37.2681L20.7154 37.0556L20.5476 36.9102C20.3016 36.6977 20.3016 36.3062 20.5588 36.1049L20.7377 35.9595L20.6818 35.7359C20.6035 35.4227 20.8384 35.1095 21.1627 35.0984H21.3976L21.4871 34.8747C21.6101 34.5727 21.9792 34.472 22.2476 34.6398L22.4489 34.7628L22.6502 34.6398C22.9298 34.472 23.2877 34.5951 23.4107 34.897L23.489 35.1095L23.7127 35.1319C24.0371 35.1543 24.2607 35.4786 24.1713 35.7918L24.1153 36.0043L24.2831 36.1497C24.5292 36.3622 24.5292 36.7536 24.2719 36.9549L24.093 37.1003L24.1489 37.324C24.2272 37.6372 23.9923 37.9503 23.668 37.9615Z" fill="#E9F2C1"/>
<path d="M21.7667 35.6132C21.789 35.5237 22.3594 35.0428 22.5719 35.3C22.7844 35.5573 22.6726 35.602 22.9522 35.6579C23.2318 35.7138 23.4666 35.6467 23.4107 35.8928C23.3548 36.1388 22.9186 36.2619 23.2542 36.4296C23.5897 36.5974 23.668 36.452 23.6568 36.8099C23.6568 37.1678 22.9745 37.3467 22.9745 37.3467C22.9745 37.3467 22.8851 38.029 22.5048 37.6599C22.1246 37.2908 22.1022 37.1454 22.3706 37.1566C22.639 37.1678 23.1535 37.2125 22.9634 36.8882C22.762 36.5638 22.4936 36.5527 22.6614 36.3402C22.8292 36.1388 23.3324 35.9711 22.7173 35.904C22.1022 35.8481 21.8226 36.0494 22.0015 35.8145C22.1805 35.5796 21.6995 35.8816 21.7555 35.6132H21.7667Z" fill="#F6FFCB"/>
<path d="M20.9838 36.1497C21.1516 36.0043 21.364 36.172 21.3976 36.4852C21.4312 36.7983 21.5542 36.8431 21.3417 37.145C21.1963 37.3575 21.5542 37.2233 21.6772 37.3575C21.8114 37.4918 21.6772 38.0845 21.4871 37.7602C21.3305 37.5029 20.995 37.7378 21.0621 37.4135C21.1292 37.0891 20.9726 37.1786 21.0621 36.9885C21.1516 36.7872 21.2298 36.7983 21.1739 36.6418C21.118 36.4852 21.0062 36.6418 20.9279 36.5858C20.6259 36.351 20.9726 36.1608 20.9726 36.1608L20.9838 36.1497Z" fill="#F6FFCB"/>
<path d="M21.789 34.8635C21.9568 34.8076 22.0798 34.7964 22.1581 34.8523C22.2252 34.897 22.1357 34.9977 22.1357 34.9977C22.1357 34.9977 22.0798 34.8635 21.9456 34.9977C21.8002 35.1319 21.7331 35.1766 21.6325 35.1655C21.5206 35.1655 21.6325 34.9194 21.8002 34.8635H21.789Z" fill="#F6FFCB"/>
<path d="M23.6117 37.76C23.8019 37.7935 23.9137 37.5475 23.9808 37.4021C24.0479 37.2455 23.9137 37.1225 23.9808 37.033C24.0479 36.9547 24.1262 36.8988 24.0255 36.7534C23.9249 36.608 23.813 36.7534 23.8466 36.8541C23.8801 36.9547 23.9249 36.9212 23.8354 37.0554C23.7459 37.1896 23.8354 37.1672 23.7795 37.2679C23.7236 37.3685 23.7459 37.4021 23.6453 37.4356C23.5446 37.4692 23.3992 37.4356 23.4328 37.5475C23.4663 37.6593 23.4775 37.7488 23.6117 37.7712V37.76Z" fill="#F6FFCB"/>
<g style="mix-blend-mode:multiply" opacity="0.57">
<path d="M38.5755 29.7743C38.5308 30.0092 38.4637 30.2329 38.3742 30.4566C38.0275 30.2105 37.4907 29.8974 36.9427 29.8638C36.0479 29.8191 31.4401 29.025 31.0486 28.8572C30.6684 28.6895 30.3999 27.6829 30.5118 26.8553C30.6236 26.0277 30.8697 25.7704 30.8697 25.7704C30.8697 25.7704 33.565 27.929 35.4664 28.4211C36.9762 28.8125 38.1394 29.5059 38.5644 29.7743H38.5755Z" fill="#BED9ED"/>
</g>
<path d="M42.6801 27.8734C42.7137 28.0412 40.9354 27.5715 39.9064 27.8399C39.8617 27.8399 39.8058 27.8623 39.761 27.8734C39.0229 28.0636 38.1282 28.2537 37.1775 28.4103L37.0433 28.4438C36.7973 28.4886 36.54 28.5221 36.2828 28.5557C35.8019 28.634 35.3321 28.6899 34.8624 28.7346C34.7506 28.7346 34.6499 28.757 34.5381 28.7682C34.5157 28.7682 34.4821 28.7682 34.4598 28.7682C33.744 28.8353 33.0841 28.9024 32.5249 28.9136C32.3236 28.9136 32.1223 28.9136 31.9433 28.8912C31.2835 28.8353 30.8361 28.5892 30.7354 28.03C30.6348 27.4932 30.5789 26.8445 30.6795 26.3188V26.2853C30.7802 25.8379 30.9815 25.48 31.3729 25.3346C31.5183 25.2787 31.6861 25.2564 31.8762 25.2675C32.1111 25.2675 32.5473 25.3235 33.1065 25.3906C33.2071 25.3906 33.319 25.4129 33.442 25.4353C34.1466 25.5248 35.019 25.6478 35.9137 25.7932C36.0032 25.7932 36.0815 25.8156 36.1709 25.8267C36.9091 25.9498 37.6696 26.0728 38.363 26.2182C38.4189 26.2182 38.4861 26.2406 38.542 26.2517C39.392 26.4195 40.1413 26.5761 40.6893 26.7438C41.215 26.9116 42.6354 27.7616 42.6577 27.8958L42.6801 27.8734Z" fill="#ED6B00"/>
<path d="M32.5361 28.9142C32.3348 28.9142 32.1335 28.9142 31.9545 28.8918C31.7756 28.1761 31.8986 27.08 31.8986 27.08C31.9657 28.053 32.2901 28.6122 32.5361 28.9142Z" fill="#BD4500"/>
<path d="M33.4756 25.4132C33.3078 25.5922 33.14 25.8942 33.0282 26.3751C33.0282 26.3751 33.0058 25.8382 33.1512 25.3685C33.2519 25.3685 33.3637 25.3909 33.4867 25.4132H33.4756Z" fill="#BD4500"/>
<path d="M34.8733 28.724C34.7614 28.724 34.6608 28.7463 34.5489 28.7575C34.3364 28.3549 34.3588 27.7733 34.3588 27.7733C34.4595 28.2542 34.672 28.545 34.8733 28.724Z" fill="#BD4500"/>
<path d="M36.1928 25.8048C35.9468 26.1067 35.6112 26.789 35.6112 26.789C35.6224 26.5429 35.7902 26.1067 35.9356 25.7824C36.0251 25.7824 36.1033 25.8048 36.1928 25.8159V25.8048Z" fill="#BD4500"/>
<path d="M37.1769 28.3996L37.0427 28.4331C36.8414 27.9634 37.0427 27.4042 37.0427 27.4042C37.0315 27.8963 37.0874 28.2094 37.1657 28.4107L37.1769 28.3996Z" fill="#BD4500"/>
<path d="M38.4406 27.0798C38.4406 27.0798 38.4406 26.5766 38.3847 26.1963C38.4406 26.1963 38.5077 26.2187 38.5636 26.2298C38.5636 26.4983 38.5524 26.8226 38.4406 27.091V27.0798Z" fill="#BD4500"/>
<path d="M39.9168 27.8401C39.9168 27.8401 39.8161 27.8624 39.7714 27.8736C39.7378 27.5381 39.626 27.0907 39.626 27.0907C39.749 27.2697 39.8497 27.6052 39.9168 27.8513V27.8401Z" fill="#BD4500"/>
<g style="mix-blend-mode:soft-light" opacity="0.33">
<path d="M40.7117 26.7106C40.4209 26.9007 40.0183 27.0797 39.5038 27.0797C38.419 27.0797 31.5072 26.8448 31.1605 26.2744C30.9815 25.9724 31.1716 25.6146 31.4065 25.3238C31.5519 25.2678 31.7197 25.2455 31.9098 25.2567C32.1447 25.2567 32.5808 25.3126 33.14 25.3797C33.2407 25.3797 33.3525 25.4021 33.4756 25.4244C34.1802 25.5139 35.0525 25.6369 35.9473 25.7823C36.0367 25.7823 36.115 25.8047 36.2045 25.8159C36.9427 25.9389 37.7032 26.0619 38.3966 26.2073C38.4525 26.2073 38.5196 26.2297 38.5755 26.2409C39.4255 26.4086 40.1749 26.5652 40.7229 26.733L40.7117 26.7106Z" fill="#FFE5CA"/>
</g>
<g style="mix-blend-mode:multiply" opacity="0.51">
<path d="M36.2828 28.5444C35.8019 28.6226 35.3321 28.6786 34.8624 28.7233C34.7506 28.7233 34.6499 28.7457 34.5381 28.7569C34.5157 28.7569 34.4821 28.7569 34.4598 28.7569C33.744 28.824 33.0841 28.8911 32.5249 28.9022C32.3236 28.9022 32.1223 28.9022 31.9433 28.8799C31.2835 28.824 30.8361 28.5779 30.7354 28.0187C30.6348 27.4819 30.5789 26.8332 30.6795 26.3075V26.274C30.6907 26.4194 30.7466 27.8845 31.071 28.2536C31.3841 28.6115 35.6005 28.5444 36.2716 28.5332L36.2828 28.5444Z" fill="#E09C53"/>
</g>
</svg>
