<svg width="50" height="84" viewBox="0 0 50 84" fill="none" xmlns="http://www.w3.org/2000/svg">
<path d="M49.9111 25.9452C49.8443 26.4425 49.6886 26.9507 49.4773 27.4369C48.3538 30.0557 45.3727 32.4646 41.7131 32.1773C41.5462 32.1773 41.3682 32.1552 41.2014 32.122C40.3671 32.0005 39.6775 31.7795 39.1324 31.5143C38.0979 31.006 37.5195 30.2878 37.1858 29.5695C36.7854 28.6966 36.7631 27.8126 36.7965 27.2712C36.8187 26.9176 36.8632 26.7187 36.8632 26.7187C36.8632 26.7187 37.1636 25.89 37.7197 24.8623C38.4205 23.5695 39.5329 21.9673 40.99 21.3043C41.2681 21.1717 41.5573 21.0833 41.8577 21.0281C45.0279 20.4977 48.9878 20.8292 49.8554 24.2878C49.9889 24.8071 50.0001 25.3706 49.9111 25.9452Z" fill="white"/>
<path d="M49.911 25.9445H49.8777C49.8109 26.4307 49.6552 26.939 49.4438 27.4252C48.3871 29.8892 45.673 32.1655 42.3137 32.1655C42.1135 32.1655 41.9244 32.1655 41.7241 32.1434C41.5573 32.1434 41.3905 32.1213 41.2125 32.0881C40.3782 31.9666 39.6997 31.7566 39.1546 31.4804H39.1435C38.1313 30.9721 37.5528 30.2649 37.2191 29.5578C36.8966 28.8616 36.8187 28.1655 36.8187 27.6351C36.8187 27.5025 36.8187 27.381 36.8298 27.2705L36.7965 27.2594H36.8298C36.8298 27.0937 36.8632 26.9611 36.8743 26.8616C36.8854 26.7732 36.8966 26.718 36.8966 26.718C36.8966 26.718 36.9744 26.508 37.119 26.1765C37.2636 25.845 37.475 25.3809 37.7531 24.8616V24.8395H37.7197L37.7531 24.8616C38.4539 23.5688 39.5551 21.9887 41.0122 21.3257C41.2903 21.1931 41.5795 21.1047 41.8799 21.0605C42.6251 20.939 43.4038 20.8616 44.1824 20.8616C45.4505 20.8616 46.6963 21.0605 47.7086 21.5909C48.7208 22.1213 49.4995 22.9721 49.822 24.287C49.8999 24.5964 49.9333 24.9058 49.9333 25.2373C49.9333 25.4693 49.911 25.7014 49.8777 25.9334H49.911H49.9444C49.9778 25.7014 50 25.4583 50 25.2263C50 24.8948 49.9666 24.5743 49.8888 24.2649C49.5551 22.939 48.7653 22.066 47.7308 21.5246C46.7075 20.9832 45.4394 20.7843 44.1713 20.7843C43.3927 20.7843 42.6029 20.8616 41.8576 20.9832C41.5573 21.0274 41.257 21.1268 40.9789 21.2594C39.4995 21.9334 38.3982 23.5356 37.6863 24.8285V24.8506H37.7197L37.6863 24.8285C37.1302 25.8561 36.8298 26.6959 36.8298 26.6959C36.8298 26.6959 36.7853 26.9058 36.7631 27.2484L36.7965 27.2594H36.7631C36.7631 27.3699 36.752 27.4914 36.752 27.624C36.752 28.1655 36.8298 28.8727 37.1524 29.5688C37.4861 30.2981 38.0868 31.0163 39.1213 31.5246H39.1324C39.6663 31.8008 40.3671 32.0218 41.2013 32.1323C41.3793 32.1544 41.5573 32.1765 41.7241 32.1876C41.9244 32.1986 42.1246 32.2097 42.3248 32.2097C45.7286 32.2097 48.465 29.9113 49.5217 27.4252C49.7331 26.9279 49.8888 26.4196 49.9555 25.9224H49.9222L49.911 25.9445Z" fill="black"/>
<path d="M49.5663 59.4811C49.5663 68.111 43.0145 75.4369 33.871 78.1331H33.8377C31.435 78.8403 28.8655 79.216 26.1847 79.216C13.2703 79.216 2.80316 70.3762 2.80316 59.4811C2.80316 48.5861 12.5028 40.3982 24.772 39.7905C25.2392 39.7684 25.7175 39.7573 26.1958 39.7573C28.5985 39.7573 30.9233 40.0667 33.1035 40.6413C35.9177 41.3706 38.5095 42.5419 40.7565 44.0667C46.1291 47.68 49.5663 53.2491 49.5663 59.4922V59.4811Z" fill="white"/>
<path d="M49.5662 59.4811H49.5329C49.5329 68.0888 42.9922 75.4148 33.871 78.0999H33.8487C31.4572 78.8071 28.8877 79.1828 26.2069 79.1828C19.7553 79.1828 13.9155 76.9728 9.68855 73.4148C5.46163 69.8457 2.85874 64.9286 2.84762 59.4811C2.84762 49.0059 12.5362 40.4424 24.7831 39.8236C25.2503 39.8015 25.7286 39.7904 26.2069 39.7904C28.5985 39.7904 30.9233 40.0998 33.1035 40.6744C35.9177 41.4037 38.4984 42.575 40.7453 44.0888C46.118 47.691 49.544 53.249 49.544 59.4811H49.6107C49.6107 53.2269 46.1624 47.6468 40.7787 44.0225C38.5206 42.4976 35.94 41.3264 33.1146 40.5971C30.9233 40.0225 28.5985 39.7131 26.1958 39.7131C25.7175 39.7131 25.2503 39.7241 24.772 39.7462C12.4917 40.365 2.76974 48.9617 2.76974 59.4811C2.76974 64.9396 5.3949 69.8899 9.63295 73.47C13.871 77.0502 19.7219 79.2601 26.1958 79.2601C28.8766 79.2601 31.4461 78.8844 33.8487 78.1772H33.8932C43.0367 75.4811 49.6107 68.1441 49.6107 59.4921H49.5773L49.5662 59.4811Z" fill="black"/>
<path d="M43.3704 35.1054C43.3704 41.5032 38.3871 46.9397 31.435 48.9286H31.4127C29.5885 49.448 27.6307 49.7353 25.5951 49.7353C21.4683 49.7353 17.6752 48.5861 14.6608 46.6413C12.5695 45.3043 10.8565 43.5916 9.66633 41.6248C9.55509 41.4369 9.45498 41.2491 9.35487 41.0723C9.11015 40.6524 8.90993 40.2214 8.74307 39.7684C8.14241 38.3098 7.81982 36.7408 7.81982 35.1054C7.81982 27.3264 15.1947 20.9618 24.5162 20.5087C24.8721 20.4977 25.2392 20.4756 25.5951 20.4756C27.4194 20.4756 29.188 20.7076 30.8454 21.1385C32.9811 21.6689 34.9611 22.5419 36.6741 23.6689C40.7676 26.354 43.3704 30.4756 43.3704 35.1054Z" fill="white"/>
<path d="M43.3704 35.1054H43.3371C43.3371 41.4921 38.3649 46.9175 31.4349 48.8954H31.4127C29.5884 49.4148 27.6418 49.7021 25.6063 49.7021C21.4906 49.7021 17.6974 48.5529 14.683 46.6081C12.6029 45.2711 10.8899 43.5584 9.69967 41.6026C9.58844 41.4148 9.48833 41.238 9.38822 41.0501C9.15462 40.6302 8.94327 40.1993 8.77642 39.7573C8.17575 38.2987 7.85317 36.7407 7.85317 35.1054C7.85317 27.3484 15.2169 21.0059 24.5161 20.5418C24.8721 20.5308 25.228 20.5087 25.5951 20.5087C27.4194 20.5087 29.188 20.7407 30.8454 21.1716C32.9811 21.702 34.95 22.575 36.663 23.702C40.7453 26.3761 43.3482 30.4976 43.3482 35.1054H43.4149C43.4149 30.4645 40.8009 26.3208 36.6963 23.6357C34.9833 22.5087 33.0033 21.6357 30.8565 21.0943C29.1991 20.6633 27.4194 20.4313 25.5951 20.4313C25.228 20.4313 24.8721 20.4424 24.505 20.4645C15.1724 20.9285 7.7753 27.3042 7.7753 35.0943C7.7753 36.7297 8.09789 38.3098 8.70968 39.7683C8.88766 40.2103 9.08789 40.6523 9.32148 41.0722L9.35485 41.0501H9.32148C9.42159 41.249 9.5217 41.4369 9.63293 41.6247C10.8231 43.6026 12.5473 45.3153 14.6385 46.6523C17.653 48.5971 21.4572 49.7573 25.5951 49.7573C27.6307 49.7573 29.5885 49.47 31.4238 48.9507H31.4683L31.4572 48.9065V48.9396C38.4205 46.9507 43.4261 41.5032 43.4261 35.0833H43.3927L43.3704 35.1054Z" fill="black"/>
<path d="M36.1847 18.0997C36.1847 18.818 36.1068 19.492 35.9399 20.1218C35.8843 20.3649 35.8176 20.608 35.7286 20.8401C35.0834 22.7185 33.7597 24.1329 31.98 25.0832C30.2002 26.0334 27.9867 26.5196 25.584 26.5196C19.733 26.5196 14.9833 23.6798 14.9833 18.0997C14.9833 17.503 15.0389 16.9284 15.139 16.3539C15.2169 15.9008 15.3392 15.4478 15.495 15.0168C15.6285 14.597 15.8064 14.1881 15.9955 13.7903C17.6974 10.3649 21.3459 8.00026 25.584 8.00026C28.7875 8.00026 31.6463 9.34833 33.5929 11.492C33.8042 11.724 34.0044 11.9561 34.1935 12.2102C35.4394 13.8677 36.1847 15.9008 36.1847 18.0997Z" fill="white"/>
<path d="M36.1846 18.0994H36.1513C36.1513 18.8176 36.0734 19.4917 35.9177 20.1215C35.8621 20.3646 35.7953 20.6077 35.7063 20.8397C35.0612 22.7071 33.7486 24.1105 31.98 25.0607L32.0022 25.0939V25.0607H31.98C30.2113 26.011 27.9978 26.4972 25.6062 26.4972C22.6808 26.4972 20.0445 25.79 18.1312 24.3867C16.218 22.9834 15.0389 20.895 15.0389 18.1105C15.0389 17.5138 15.0945 16.9392 15.1947 16.3756C15.2725 15.9226 15.3949 15.4696 15.5395 15.0386C15.673 14.6187 15.8398 14.2099 16.04 13.8121H16.0067H16.0289V13.8011C17.7197 10.3867 21.3682 8.0331 25.584 8.0331C28.7764 8.0331 31.624 9.38116 33.5595 11.5138C33.7709 11.7458 33.9711 11.9779 34.1602 12.232C35.406 13.8784 36.1401 15.9116 36.1401 18.0994H36.2069C36.2069 15.8895 35.4616 13.8563 34.2158 12.1878C34.0267 11.9337 33.8376 11.6906 33.6151 11.4696C31.6685 9.32591 28.7875 7.9668 25.584 7.9668C21.3348 7.9668 17.6752 10.3425 15.9733 13.7679H16.0067H15.9844V13.779C15.7842 14.1768 15.6173 14.5856 15.4839 15.0165C15.3393 15.4475 15.2169 15.9005 15.1279 16.3535C15.0278 16.9281 14.9722 17.5138 14.9722 18.1105C14.9722 20.906 16.1624 23.0276 18.0867 24.442C20.0111 25.8563 22.6696 26.5635 25.6062 26.5635C28.0089 26.5635 30.2336 26.0773 32.0133 25.127L31.9911 25.0939V25.127H32.0133C33.7931 24.1657 35.1279 22.7513 35.7731 20.8618C35.8621 20.6298 35.9288 20.3867 35.9844 20.1326C36.1401 19.5027 36.2291 18.8176 36.2291 18.0994H36.1958" fill="black"/>
<path d="M23.7712 16.3649C23.7712 16.7297 23.4708 17.0392 23.0925 17.0392C22.7142 17.0392 22.4138 16.7407 22.4138 16.3649C22.4138 15.9892 22.7142 15.6907 23.0925 15.6907C23.4708 15.6907 23.7712 15.9892 23.7712 16.3649Z" fill="white"/>
<path d="M23.7713 16.3646H23.7379C23.7379 16.7183 23.4486 16.9946 23.1037 16.9946C22.7476 16.9946 22.4695 16.7073 22.4695 16.3646C22.4695 16.011 22.7588 15.7346 23.1037 15.7346C23.4597 15.7346 23.7379 16.022 23.7379 16.3646H23.8046C23.8046 15.9778 23.482 15.6573 23.0926 15.6573C22.7031 15.6573 22.3805 15.9778 22.3805 16.3646C22.3805 16.7515 22.7031 17.072 23.0926 17.072C23.482 17.072 23.8046 16.7515 23.8046 16.3646H23.7713Z" fill="black"/>
<path d="M32.5366 14.8279C32.5366 15.1927 32.2362 15.5021 31.8579 15.5021C31.4796 15.5021 31.1792 15.2037 31.1792 14.8279C31.1792 14.4521 31.4796 14.1537 31.8579 14.1537C32.2362 14.1537 32.5366 14.4521 32.5366 14.8279Z" fill="white"/>
<path d="M32.5366 14.8287H32.5032C32.5032 15.1824 32.2139 15.4587 31.869 15.4587C31.5129 15.4587 31.2348 15.1713 31.2348 14.8287C31.2348 14.475 31.524 14.1987 31.869 14.1987C32.225 14.1987 32.5032 14.4861 32.5032 14.8287H32.5699C32.5699 14.4419 32.2473 14.1213 31.8578 14.1213C31.4684 14.1213 31.1458 14.4419 31.1458 14.8287C31.1458 15.2156 31.4684 15.5361 31.8578 15.5361C32.2473 15.5361 32.5699 15.2156 32.5699 14.8287H32.5366Z" fill="black"/>
<path d="M39.1658 17.3367C39.1992 17.5135 38.4761 17.7898 37.3749 18.0771C37.3304 18.0771 37.2748 18.0992 37.2192 18.1102C36.4405 18.3202 35.4728 18.508 34.4606 18.6738L34.3159 18.7069C34.049 18.7511 33.782 18.7953 33.5039 18.8285C32.9923 18.9169 32.4806 18.9721 31.9911 19.0274C31.8688 19.0274 31.7687 19.0495 31.6463 19.0605H31.5685C30.8121 19.1489 30.1002 19.2152 29.4995 19.2263C29.277 19.2263 29.0657 19.2263 28.8766 19.2042C28.1758 19.1379 27.6975 18.8948 27.5863 18.2981C27.4861 17.7235 27.4194 17.0384 27.5306 16.4749V16.4417C27.6307 15.9666 27.8532 15.5909 28.2759 15.4362C28.4316 15.3699 28.6096 15.3478 28.821 15.3588C29.0768 15.3588 29.5329 15.4141 30.1335 15.4914C30.2448 15.4914 30.356 15.5135 30.4895 15.5356C31.2459 15.6351 32.1691 15.7677 33.1257 15.9113C33.2147 15.9113 33.3037 15.9334 33.4038 15.9445C34.1936 16.0771 35.0056 16.2097 35.7509 16.3533C35.8176 16.3533 35.8732 16.3754 35.94 16.3865C36.841 16.5633 37.653 16.729 38.2314 16.9058C38.7987 17.0826 39.1435 17.2152 39.1658 17.3588V17.3367Z" fill="white"/>
<path d="M39.1658 17.3367H39.1324C39.1324 17.3587 39.099 17.4029 39.0212 17.4582C38.7764 17.6129 38.1758 17.8228 37.3749 18.0328C37.3304 18.0328 37.2748 18.0549 37.2192 18.0659C36.4405 18.2759 35.4728 18.4637 34.4605 18.6295L34.3159 18.6626C34.049 18.7068 33.782 18.751 33.515 18.7842H33.5039C32.9922 18.8726 32.4917 18.9278 31.9911 18.9831C31.8688 18.9831 31.7687 19.0052 31.6463 19.0162H31.5684C30.812 19.0936 30.1001 19.1599 29.4995 19.1709C29.277 19.1709 29.0657 19.1709 28.8877 19.1488C28.5428 19.1157 28.2425 19.0383 28.0312 18.8947C27.8198 18.751 27.6752 18.5521 27.6307 18.2648C27.564 17.9002 27.5195 17.5024 27.5195 17.1157C27.5195 16.8836 27.5417 16.6626 27.5751 16.4527V16.4195L27.5417 16.4085H27.5751C27.6752 15.9444 27.8866 15.5797 28.2981 15.4361C28.4205 15.3808 28.5651 15.3587 28.7208 15.3587C28.7542 15.3587 28.7876 15.3587 28.8209 15.3587C29.0657 15.3587 29.5328 15.414 30.1335 15.4913C30.2447 15.4913 30.356 15.5134 30.4783 15.5355C31.2347 15.635 32.158 15.7676 33.1146 15.9112C33.2036 15.9112 33.2926 15.9333 33.3927 15.9444C34.1825 16.077 34.9945 16.2096 35.7397 16.3532C35.8065 16.3532 35.8621 16.3753 35.9288 16.3864C36.8298 16.5632 37.6419 16.7289 38.2203 16.9057C38.4984 16.9941 38.7319 17.0715 38.8877 17.1488C39.0434 17.2151 39.1324 17.2925 39.1324 17.3367H39.1658L39.1991 17.3256C39.1769 17.2262 39.0768 17.1599 38.921 17.0825C38.7542 17.0052 38.5317 16.9278 38.2425 16.8394C37.6641 16.6626 36.8521 16.4969 35.9511 16.3201C35.8843 16.3201 35.8287 16.298 35.762 16.2869C35.0167 16.1322 34.2047 15.9996 33.4149 15.8781C33.3259 15.8781 33.2369 15.856 33.1368 15.8449C32.1802 15.6902 31.257 15.5687 30.5006 15.4692C30.3782 15.4471 30.2559 15.4361 30.1446 15.425C29.5439 15.3477 29.0768 15.3035 28.8209 15.2924C28.7876 15.2924 28.7542 15.2924 28.7208 15.2924C28.554 15.2924 28.3982 15.3145 28.2648 15.3698C27.8309 15.5245 27.5974 15.9223 27.4972 16.4085V16.4527C27.4527 16.6626 27.4416 16.8947 27.4416 17.1267C27.4416 17.5245 27.4861 17.9223 27.5529 18.2869C27.6085 18.5963 27.7531 18.8173 27.9867 18.961C28.2091 19.1157 28.5206 19.193 28.8765 19.2262C29.0656 19.2483 29.277 19.2483 29.4995 19.2483C30.1113 19.2483 30.812 19.1709 31.5684 19.0936H31.6463C31.7687 19.0936 31.8688 19.0715 31.9911 19.0604C32.4806 19.0052 32.9922 18.9499 33.5039 18.8615H33.515C33.7931 18.8284 34.0601 18.7842 34.3271 18.74L34.4717 18.7068C35.4839 18.5411 36.4516 18.3532 37.2303 18.1433C37.2859 18.1433 37.3415 18.1212 37.386 18.1101C37.9199 17.9665 38.376 17.8339 38.6875 17.7123C38.8432 17.646 38.9655 17.5908 39.0545 17.5355C39.1435 17.4803 39.1991 17.425 39.1991 17.3588V17.3367H39.1658Z" fill="black"/>
<path d="M29.4986 19.2162C29.2764 19.2162 29.0653 19.2162 28.8764 19.1941C28.6875 18.4315 28.8097 17.2709 28.8097 17.2709C28.8764 18.2988 29.2209 18.8957 29.4875 19.2162H29.4986Z" fill="white"/>
<path d="M29.4986 19.2159V19.1938C29.2764 19.1938 29.0653 19.1938 28.8875 19.1717V19.1938H28.9097C28.8319 18.8733 28.8097 18.4754 28.8097 18.1217C28.8097 17.6575 28.8542 17.2817 28.8542 17.2817H28.8319H28.8097C28.8764 18.3207 29.2319 18.9175 29.4986 19.238H29.5097V19.2049V19.227H29.5208C29.2542 18.9065 28.9097 18.3096 28.843 17.2817H28.7986C28.7986 17.2817 28.7542 17.6575 28.7542 18.1328C28.7542 18.4865 28.7764 18.8844 28.8542 19.2159L28.8653 19.227C29.0542 19.2491 29.2653 19.2491 29.4875 19.2491H29.5319L29.4986 19.2159Z" fill="black"/>
<path d="M30.5 15.5029C30.3222 15.7018 30.1444 16.0113 30.0222 16.5197C30.0222 16.5197 30 15.945 30.1444 15.4587C30.2556 15.4587 30.3667 15.4808 30.5 15.5029Z" fill="white"/>
<path d="M30.5 15.5031H30.4889C30.3111 15.691 30.1222 16.0005 30.0111 16.52H30.0333H30.0555C30.0555 16.52 30.0555 16.4868 30.0555 16.4316C30.0555 16.2547 30.0666 15.8347 30.1778 15.47H30.1555V15.481C30.2666 15.481 30.3777 15.5031 30.5111 15.5252V15.5031L30.5 15.4921H30.5111C30.3889 15.47 30.2666 15.4589 30.1555 15.4479H30.1333V15.4589C30.0222 15.8347 30.0111 16.2547 30.0111 16.4426C30.0111 16.4979 30.0111 16.531 30.0111 16.531V16.6858L30.0555 16.531C30.1778 16.0226 30.3555 15.7131 30.5333 15.5252L30.5555 15.4921H30.5222V15.5031H30.5Z" fill="black"/>
<path d="M31.9905 19.0172C31.8683 19.0172 31.7683 19.0393 31.6461 19.0503C31.4239 18.6303 31.4461 18.0114 31.4461 18.0114C31.5461 18.5198 31.7794 18.8403 31.9905 19.0172Z" fill="white"/>
<path d="M31.9905 19.0178V18.9957C31.8683 18.9957 31.7572 19.0178 31.6461 19.0289V19.051H31.6683C31.4794 18.7083 31.4683 18.222 31.4683 18.0673C31.4683 18.0341 31.4683 18.0231 31.4683 18.0231H31.4461H31.4239C31.5239 18.5315 31.7572 18.852 31.9794 19.0399H31.9905V19.0068V19.0289L32.0016 19.0178C31.7905 18.841 31.5572 18.5315 31.4572 18.0231L31.4239 17.8462V18.0231C31.4239 18.0231 31.4239 18.0452 31.4239 18.0783C31.4239 18.2331 31.435 18.7194 31.635 19.0731L31.6461 19.0841C31.7683 19.0841 31.8683 19.062 31.9905 19.051H32.0461L32.0127 19.0178H32.0016H31.9905Z" fill="black"/>
<path d="M33.4031 15.9117C33.1475 16.2322 32.7809 16.9507 32.7809 16.9507C32.792 16.6854 32.9809 16.2212 33.1253 15.8785C33.2142 15.8785 33.3031 15.9006 33.4031 15.9117Z" fill="white"/>
<path d="M33.4031 15.9111H33.392C33.1364 16.2317 32.7697 16.939 32.7697 16.939H32.792H32.8142C32.8253 16.6848 33.0031 16.2206 33.1586 15.878H33.1364V15.889C33.2253 15.889 33.3142 15.9111 33.4142 15.9222V15.9001L33.4031 15.889H33.4142C33.3253 15.889 33.2364 15.8669 33.1364 15.8559H33.1253V15.8669C32.9809 16.2096 32.792 16.6848 32.7809 16.9501V17.0496L32.8253 16.9612C32.8253 16.9612 32.9142 16.7843 33.0364 16.5633C33.1586 16.3422 33.3142 16.088 33.4364 15.9222L33.4586 15.889H33.4253V15.9111H33.4031Z" fill="black"/>
<path d="M34.4603 18.6752L34.3158 18.7084C34.0936 18.211 34.3158 17.6142 34.3158 17.6142C34.3047 18.1336 34.3603 18.4652 34.4492 18.6752H34.4603Z" fill="white"/>
<path d="M34.4603 18.6743V18.6522L34.3158 18.6854V18.7075H34.3381C34.2714 18.5527 34.2492 18.3759 34.2492 18.2212C34.2492 18.0664 34.2714 17.9117 34.3047 17.8011C34.3381 17.6906 34.3603 17.6243 34.3603 17.6243H34.3381H34.3158C34.3158 17.6796 34.3158 17.7348 34.3158 17.779C34.3158 18.2101 34.3714 18.5085 34.4492 18.6964H34.4714V18.6633V18.6854H34.4936C34.4159 18.5085 34.3603 18.2212 34.3603 17.7901C34.3603 17.7348 34.3603 17.6906 34.3603 17.6354V17.5138L34.3158 17.6354C34.3158 17.6354 34.2159 17.9117 34.2159 18.2433C34.2159 18.409 34.2381 18.5748 34.3158 18.7406L34.4714 18.7185H34.4936V18.6854H34.4714L34.4603 18.6743Z" fill="black"/>
<path d="M35.8065 17.2714C35.8065 17.2714 35.8065 16.7408 35.7509 16.3319C35.8176 16.3319 35.8731 16.354 35.9398 16.365C35.9398 16.6414 35.9287 16.995 35.8065 17.2714Z" fill="white"/>
<path d="M35.8064 17.2711H35.8286C35.8286 17.2711 35.8286 17.2489 35.8286 17.2158C35.8286 17.0611 35.8286 16.6632 35.7731 16.3316H35.7508V16.3537C35.8175 16.3537 35.8731 16.3758 35.9397 16.3868V16.3647H35.9175C35.9175 16.3979 35.9175 16.431 35.9175 16.4642C35.9175 16.7295 35.8842 17.0279 35.7842 17.2711H35.8064H35.8286C35.9397 17.0168 35.9619 16.7074 35.9619 16.4532C35.9619 16.42 35.9619 16.3868 35.9619 16.3537V16.3316H35.9397C35.8731 16.3316 35.8175 16.3095 35.7508 16.2984H35.7175V16.3205C35.7619 16.6521 35.7731 17.05 35.7731 17.2047C35.7731 17.2379 35.7731 17.26 35.7731 17.26V17.3705L35.8175 17.2711H35.7953H35.8064Z" fill="black"/>
<path d="M37.3746 18.0778C37.3746 18.0778 37.2746 18.0999 37.219 18.1109C37.1746 17.7572 37.0635 17.2709 37.0635 17.2709C37.1968 17.4588 37.3079 17.8125 37.3746 18.0778Z" fill="white"/>
<path d="M37.3745 18.0774V18.0553C37.3745 18.0553 37.2634 18.0774 37.219 18.0885V18.1106H37.2412C37.1968 17.7458 37.0856 17.2706 37.0856 17.2706H37.0634L37.0412 17.2927C37.1745 17.4695 37.2857 17.8232 37.3523 18.0885H37.3745H37.3968C37.3301 17.8232 37.219 17.4695 37.0856 17.2816L37.019 17.1932L37.0412 17.3037C37.0412 17.3037 37.1634 17.779 37.1968 18.1327V18.1548H37.219C37.2745 18.1548 37.3301 18.1327 37.3745 18.1216H37.3968V18.0995H37.3745V18.0774Z" fill="black"/>
<path d="M33.9043 11.68C33.9043 11.68 33.7931 11.7242 33.5373 11.8236C33.1368 11.9673 32.3804 12.2214 31.1346 12.564C30.3559 12.7739 29.3882 13.017 28.1869 13.2822H28.1535C26.04 13.7684 24.1824 14.133 22.5806 14.3982C17.4527 15.2601 14.9944 15.1717 14.9944 15.1717L14.1602 2.95071C14.1602 2.95071 16.6296 1.73524 18.6541 1.1938C19.5884 0.939654 20.723 0.69656 22.0356 0.486615C22.6807 0.387168 24.2269 0.232471 24.7942 0.177222C25.495 0.110924 26.129 0.0888246 26.6852 0.0667251C28.1869 -0.0106231 29.6552 0.0667251 30.0222 0.0998743C30.1223 0.0998743 30.1668 0.0998743 30.1668 0.0998743L33.9043 11.669" fill="white"/>
<path d="M33.9044 11.6796V11.6464C33.9044 11.6464 33.8599 11.6575 33.8043 11.6796C33.7486 11.7017 33.6485 11.7348 33.5262 11.7901C33.1257 11.9337 32.3693 12.1879 31.1235 12.5194C30.3449 12.7293 29.3771 12.9724 28.1869 13.2376L28.1424 13.2486C26.029 13.7238 24.1713 14.0884 22.5807 14.3426C18.2759 15.0608 15.851 15.1271 15.1836 15.1271C15.0612 15.1271 14.9945 15.1271 14.9945 15.1271V15.1602H15.0278L14.1936 2.93923H14.1602L14.1713 2.97238C14.1713 2.97238 14.3271 2.89503 14.594 2.77348C15.3838 2.40884 17.1524 1.62431 18.6541 1.21547C19.5885 0.961327 20.7231 0.718233 22.0356 0.519338C22.6808 0.41989 24.2269 0.265194 24.7942 0.209945C25.495 0.143647 26.1179 0.121547 26.6852 0.0994476C27.1302 0.0773482 27.564 0.0662984 27.9756 0.0662984C28.9544 0.0662984 29.7664 0.110497 30.0223 0.132597C30.1224 0.132597 30.1669 0.132597 30.1669 0.132597V0.0994476H30.1335L33.871 11.6685H33.9044L33.8933 11.6243V11.6575H33.9377L30.1891 0.0773482H30.1669C30.1669 0.0773482 30.1113 0.0773482 30.0223 0.0662984C29.7664 0.044199 28.9544 0 27.9756 0C27.564 0 27.1302 0 26.6852 0.0331492C26.1179 0.0552487 25.495 0.0773482 24.7831 0.143647C24.2158 0.198895 22.6697 0.353592 22.0245 0.453039C20.7119 0.651935 19.5773 0.906078 18.643 1.16022C16.6185 1.70166 14.1491 2.91713 14.1491 2.91713H14.1268L14.9611 15.2044H14.9945C14.9945 15.2044 15.0612 15.2044 15.1836 15.2044C15.851 15.2044 18.287 15.1492 22.5918 14.4199C24.1825 14.1547 26.0512 13.8011 28.1647 13.3149L28.2092 13.3039C29.3994 13.0387 30.3782 12.7956 31.1569 12.5857C32.4027 12.2431 33.1591 12 33.5707 11.8453C33.8265 11.7569 33.9377 11.7017 33.9377 11.7017H33.9711V11.6575H33.9377" fill="black"/>
<path d="M26.663 0.0993042C26.1179 0.121404 25.5062 0.143503 24.8387 0.209802L28.2203 13.2374C28.287 13.2264 28.3426 13.2043 28.4094 13.1932C29.4883 12.9501 30.3671 12.7292 31.0901 12.5303L26.663 0.0993042Z" fill="white"/>
<path d="M31.0901 12.5413C30.3671 12.7292 29.4772 12.9612 28.4094 13.2043C29.4883 12.9612 30.3671 12.7402 31.0901 12.5413ZM26.663 0.0993042C26.1179 0.121404 25.5062 0.143503 24.8387 0.209802C25.5062 0.143503 26.1179 0.132453 26.663 0.0993042Z" fill="black"/>
<path d="M24.8942 0.132767C24.8942 0.132767 24.8164 0.132767 24.783 0.143819H24.7386C24.7386 0.143819 24.7719 0.143819 24.783 0.143819C24.8164 0.143819 24.8608 0.143819 24.8942 0.132767Z" fill="#7D7D7D"/>
<path d="M24.8276 0.209802C24.8276 0.209802 24.8053 0.209802 24.7831 0.209802C24.7831 0.209802 24.7608 0.209802 24.7497 0.209802L28.1424 13.2485H28.1757C28.2536 13.2264 28.3203 13.2153 28.3982 13.1932C28.3315 13.2043 28.2758 13.2264 28.2091 13.2374L24.8276 0.209802ZM26.7297 0.0993042C26.7297 0.0993042 26.6963 0.0993042 26.6852 0.0993042H26.6629L31.0901 12.5303C31.0901 12.5303 31.1123 12.5303 31.1234 12.5303C31.1234 12.5303 31.1457 12.5303 31.1568 12.5303L26.7297 0.0993042Z" fill="white"/>
<path d="M31.1568 12.5197C31.1568 12.5197 31.1346 12.5197 31.1234 12.5197C31.1123 12.5197 31.1012 12.5197 31.0901 12.5197C30.367 12.7075 29.4772 12.9396 28.4093 13.1826C28.3314 13.1937 28.2647 13.2158 28.1868 13.2379H28.1535L28.1757 13.3042H28.2091C29.3993 13.028 30.3782 12.7849 31.1568 12.5749C31.1568 12.5749 31.1791 12.5749 31.1902 12.5749V12.5418L31.1679 12.5086M26.7074 0.0334625H26.6852C26.1512 0.055562 25.5617 0.0776615 24.9054 0.13291C24.8721 0.13291 24.8276 0.13291 24.7942 0.14396C24.7831 0.14396 24.7719 0.14396 24.7497 0.14396L24.7719 0.210258C24.7719 0.210258 24.7942 0.210258 24.8053 0.210258C24.8164 0.210258 24.8276 0.210258 24.8498 0.210258C25.5172 0.14396 26.129 0.12186 26.6741 0.0997609H26.6963C26.7074 0.0997609 26.7297 0.0997609 26.7408 0.0997609L26.7186 0.0334625" fill="black"/>
<path d="M30.0668 0.143555L33.5596 11.7789C33.6708 11.7347 33.7487 11.7126 33.8043 11.6905C33.8265 11.6905 33.8488 11.6684 33.8599 11.6684L30.1335 0.154604C30.1335 0.154604 30.089 0.154604 30.0557 0.154604" fill="white"/>
<path d="M29.9889 0.132767L33.4928 11.8013C33.4928 11.8013 33.515 11.8013 33.5262 11.7902C33.6596 11.746 33.7486 11.7129 33.8043 11.6797C33.8265 11.6797 33.8488 11.6576 33.8599 11.6576C33.8599 11.6576 33.8265 11.6687 33.8043 11.6797C33.7486 11.7018 33.6708 11.735 33.5595 11.7681L30.0668 0.132767C30.0668 0.132767 30.1224 0.132767 30.1446 0.132767C30.1446 0.132767 30.0779 0.132767 30.0223 0.132767C30.0223 0.132767 30.0111 0.132767 30 0.132767" fill="white"/>
<path d="M29.9667 0.0658417L29.9889 0.13214C29.9889 0.13214 30 0.13214 30.0112 0.13214C30.0668 0.13214 30.1113 0.13214 30.1335 0.13214L33.8599 11.646C33.8599 11.646 33.8265 11.657 33.8043 11.6681C33.7487 11.6902 33.6485 11.7233 33.5262 11.7786C33.5262 11.7786 33.5039 11.7786 33.4928 11.7896L33.5151 11.8559H33.5484C33.8043 11.7454 33.9155 11.7012 33.9155 11.7012H33.9489V11.657H33.9155L33.9044 11.6349V11.6681H33.9489L30.1891 0.0768914H30.1669C30.1669 0.0768914 30.1113 0.0768914 30.0223 0.0658417H29.9667Z" fill="black"/>
<path d="M18.1535 14.8393L15.8287 15.1598L7.79755 19.8891V20.0548L9.4327 20.2979H9.52169L21.7686 14.5299V14.3642L18.1535 14.8504V14.8393ZM8.85427 19.6791C8.90989 19.6239 9.04338 19.5797 9.18798 19.5797C9.33259 19.5797 9.45495 19.6239 9.52169 19.6791C9.54394 19.7012 9.55506 19.7344 9.55506 19.7565C9.55506 19.8559 9.3882 19.9333 9.18798 19.9333C8.98776 19.9333 8.8209 19.8559 8.8209 19.7565C8.8209 19.7344 8.83203 19.7012 8.85427 19.6791Z" fill="white"/>
<path d="M18.1534 14.8398V14.8066H18.1312L15.8064 15.116L7.75299 19.8564V20.0663L9.42151 20.3094H9.5105L21.7797 14.5194V14.2984L18.1201 14.7845L18.1312 14.8177V14.8508L21.7018 14.3757V14.4752L9.48825 20.2321H9.41038L7.79748 19.989V19.8785L15.8064 15.1713L18.1312 14.8619H18.1423L18.1312 14.8177L18.1534 14.8398ZM8.8542 19.6796L8.87646 19.7017C8.87646 19.7017 9.04331 19.6133 9.17679 19.6133C9.31028 19.6133 9.43264 19.6575 9.47713 19.7017L9.5105 19.7569C9.5105 19.7569 9.48825 19.8232 9.42151 19.8564C9.3659 19.8895 9.27691 19.9006 9.17679 19.9006C9.07668 19.9006 8.98769 19.8785 8.93208 19.8564C8.87646 19.8232 8.84309 19.7901 8.84309 19.7569L8.87646 19.7017L8.8542 19.6796L8.83197 19.6575C8.83197 19.6575 8.78747 19.7238 8.78747 19.7569C8.78747 19.8343 8.84308 19.8785 8.90983 19.9227C8.98769 19.9558 9.07668 19.9779 9.18791 19.9779C9.29915 19.9779 9.38813 19.9558 9.466 19.9227C9.53274 19.8895 9.58836 19.8343 9.58836 19.7569C9.58836 19.7127 9.56612 19.6796 9.54387 19.6575C9.47713 19.5912 9.34364 19.547 9.18791 19.547C9.04331 19.547 8.90983 19.5912 8.83197 19.6575L8.8542 19.6796Z" fill="black"/>
<path d="M7.89764 19.867L15.8398 15.0272C15.8398 15.0272 17.564 14.7841 19.2102 14.6184H19.2436C20.3226 14.4968 21.1012 14.4305 21.6018 14.4084L9.52168 20.1101L7.89764 19.8781V19.867ZM9.18797 19.3808C8.9655 19.3808 8.78753 19.4803 8.78753 19.5908C8.78753 19.6239 8.79866 19.6681 8.83203 19.7013C8.89877 19.7676 9.03224 19.8118 9.18797 19.8118C9.3437 19.8118 9.47719 19.7676 9.54393 19.7013C9.5773 19.6681 9.58842 19.635 9.58842 19.5908C9.58842 19.4692 9.41044 19.3808 9.18797 19.3808Z" fill="white"/>
<path d="M21.4238 14.4421L9.51055 20.0664L7.99776 19.8454L15.8509 15.0608C16.0178 15.0387 17.6418 14.8177 19.2213 14.6409H19.2436C20.2113 14.5305 20.9232 14.4642 21.4238 14.4421ZM9.18796 19.8454C9.35481 19.8454 9.48829 19.8012 9.56615 19.7238C9.59952 19.6907 9.62177 19.6354 9.62177 19.5912C9.62177 19.4476 9.43268 19.3371 9.18796 19.3371C8.94324 19.3371 8.75414 19.4476 8.75414 19.5912C8.75414 19.6354 8.77639 19.6796 8.80977 19.7238C8.88763 19.8012 9.02111 19.8454 9.18796 19.8454ZM21.7686 14.3537C21.1791 14.3537 20.2224 14.4531 19.2325 14.5636H19.1991C17.5306 14.7514 15.8176 14.9835 15.8176 14.9835L7.78641 19.8675L9.52167 20.1216L21.7686 14.3426V14.3537ZM9.18796 19.7791C9.04335 19.7791 8.92099 19.7459 8.85425 19.6796C8.832 19.6575 8.82088 19.6354 8.82088 19.6023C8.82088 19.5028 8.98774 19.4255 9.18796 19.4255C9.38818 19.4255 9.55504 19.5028 9.55504 19.6023C9.55504 19.6354 9.54391 19.6575 9.52167 19.6796C9.46605 19.7349 9.33256 19.7791 9.18796 19.7791Z" fill="black"/>
<path d="M30.8902 30.3528C30.3784 30.3528 29.9555 30.7618 29.9555 31.2813C29.9555 31.8007 30.3672 32.2097 30.8902 32.2097C31.4131 32.2097 31.8248 31.8007 31.8248 31.2813C31.8248 30.7618 31.4131 30.3528 30.8902 30.3528ZM30.5341 31.4692C30.4229 31.4692 30.345 31.3807 30.345 31.2813C30.345 31.1707 30.4229 31.0934 30.5341 31.0934C30.6454 31.0934 30.7233 31.1707 30.7233 31.2813C30.7233 31.3918 30.6343 31.4692 30.5341 31.4692ZM31.2462 31.4692C31.1349 31.4692 31.0571 31.3807 31.0571 31.2813C31.0571 31.1707 31.1349 31.0934 31.2462 31.0934C31.3575 31.0934 31.4354 31.1707 31.4354 31.2813C31.4354 31.3918 31.3463 31.4692 31.2462 31.4692Z" fill="white"/>
<path d="M30.8902 30.3536V30.3204C30.3562 30.3204 29.9222 30.7515 29.9222 31.282C29.9222 31.8126 30.3562 32.2436 30.8902 32.2436C31.4243 32.2436 31.8582 31.8126 31.8582 31.282C31.8582 30.7515 31.4243 30.3204 30.8902 30.3204V30.3868C31.3909 30.3868 31.7915 30.7847 31.7915 31.282C31.7915 31.7794 31.3909 32.1773 30.8902 32.1773C30.3895 32.1773 29.989 31.7794 29.989 31.282C29.989 30.7847 30.3895 30.3868 30.8902 30.3868V30.3536ZM30.5342 31.4699V31.4368C30.4452 31.4368 30.3784 31.3705 30.3784 31.282C30.3784 31.1936 30.4452 31.1273 30.5342 31.1273C30.6232 31.1273 30.6899 31.1936 30.6899 31.282C30.6899 31.3705 30.6121 31.4368 30.5342 31.4368V31.5031C30.6566 31.5031 30.7567 31.4036 30.7567 31.282C30.7567 31.1494 30.6566 31.061 30.5342 31.061C30.4674 31.061 30.4118 31.0831 30.3673 31.1273C30.3228 31.1715 30.3005 31.2268 30.3005 31.2931C30.3005 31.4147 30.4007 31.5141 30.523 31.5141V31.481L30.5342 31.4699ZM31.2463 31.4699V31.4368C31.1573 31.4368 31.0905 31.3705 31.0905 31.282C31.0905 31.1936 31.1573 31.1273 31.2463 31.1273C31.3353 31.1273 31.402 31.1936 31.402 31.282C31.402 31.3705 31.3241 31.4368 31.2463 31.4368V31.5031C31.3687 31.5031 31.4688 31.4036 31.4688 31.282C31.4688 31.1494 31.3687 31.061 31.2463 31.061C31.1795 31.061 31.1239 31.0831 31.0794 31.1273C31.0349 31.1715 31.0126 31.2268 31.0126 31.2931C31.0126 31.4147 31.1128 31.5141 31.2351 31.5141V31.481L31.2463 31.4699Z" fill="black"/>
<path d="M30.8901 30.4856C30.445 30.4856 30.089 30.8393 30.089 31.2814C30.089 31.7235 30.445 32.0772 30.8901 32.0772C31.3352 32.0772 31.6912 31.7235 31.6912 31.2814C31.6912 30.8393 31.3352 30.4856 30.8901 30.4856ZM30.8901 32.0109C30.4784 32.0109 30.1446 31.6793 30.1446 31.2703C30.1446 30.8614 30.4784 30.5298 30.8901 30.5298C31.3018 30.5298 31.6356 30.8614 31.6356 31.2703C31.6356 31.6793 31.3018 32.0109 30.8901 32.0109Z" fill="black"/>
<path d="M32.3919 33.6471C31.88 33.6471 31.4572 34.056 31.4572 34.5755C31.4572 35.095 31.8689 35.5039 32.3919 35.5039C32.9148 35.5039 33.3265 35.095 33.3265 34.5755C33.3265 34.056 32.9148 33.6471 32.3919 33.6471ZM32.0358 34.7634C31.9246 34.7634 31.8467 34.675 31.8467 34.5755C31.8467 34.465 31.9246 34.3876 32.0358 34.3876C32.1471 34.3876 32.225 34.465 32.225 34.5755C32.225 34.686 32.136 34.7634 32.0358 34.7634ZM32.7479 34.7634C32.6367 34.7634 32.5588 34.675 32.5588 34.5755C32.5588 34.465 32.6367 34.3876 32.7479 34.3876C32.8592 34.3876 32.9371 34.465 32.9371 34.5755C32.9371 34.686 32.8481 34.7634 32.7479 34.7634Z" fill="white"/>
<path d="M32.3919 33.6468V33.6136C31.8578 33.6136 31.4239 34.0447 31.4239 34.5752C31.4239 35.1057 31.8578 35.5368 32.3919 35.5368C32.9259 35.5368 33.3599 35.1057 33.3599 34.5752C33.3599 34.0447 32.9259 33.6136 32.3919 33.6136V33.6799C32.8925 33.6799 33.2931 34.0778 33.2931 34.5752C33.2931 35.0726 32.8925 35.4705 32.3919 35.4705C31.8912 35.4705 31.4906 35.0726 31.4906 34.5752C31.4906 34.0778 31.8912 33.6799 32.3919 33.6799V33.6468ZM32.0358 34.7631V34.7299C31.9468 34.7299 31.88 34.6636 31.88 34.5752C31.88 34.4868 31.9468 34.4204 32.0358 34.4204C32.1248 34.4204 32.1916 34.4868 32.1916 34.5752C32.1916 34.6636 32.1137 34.7299 32.0358 34.7299V34.7962C32.1582 34.7962 32.2583 34.6968 32.2583 34.5752C32.2583 34.4426 32.1582 34.3541 32.0358 34.3541C31.9691 34.3541 31.9134 34.3762 31.8689 34.4204C31.8244 34.4647 31.8022 34.5199 31.8022 34.5862C31.8022 34.7078 31.9023 34.8073 32.0247 34.8073V34.7741L32.0358 34.7631ZM32.7479 34.7631V34.7299C32.6589 34.7299 32.5921 34.6636 32.5921 34.5752C32.5921 34.4868 32.6589 34.4204 32.7479 34.4204C32.8369 34.4204 32.9037 34.4868 32.9037 34.5752C32.9037 34.6636 32.8258 34.7299 32.7479 34.7299V34.7962C32.8703 34.7962 32.9704 34.6968 32.9704 34.5752C32.9704 34.4426 32.8703 34.3541 32.7479 34.3541C32.6812 34.3541 32.6255 34.3762 32.581 34.4204C32.5365 34.4647 32.5142 34.5199 32.5142 34.5862C32.5142 34.7078 32.6144 34.8073 32.7368 34.8073V34.7741L32.7479 34.7631Z" fill="black"/>
<path d="M32.3918 33.7798C31.9467 33.7798 31.5907 34.1335 31.5907 34.5756C31.5907 35.0177 31.9467 35.3714 32.3918 35.3714C32.8369 35.3714 33.1929 35.0177 33.1929 34.5756C33.1929 34.1335 32.8369 33.7798 32.3918 33.7798ZM32.3918 35.3051C31.9801 35.3051 31.6463 34.9735 31.6463 34.5646C31.6463 34.1556 31.9801 33.824 32.3918 33.824C32.8035 33.824 33.1373 34.1556 33.1373 34.5646C33.1373 34.9735 32.8035 35.3051 32.3918 35.3051Z" fill="black"/>
<path d="M31.9469 37.359C31.4351 37.359 31.0123 37.7679 31.0123 38.2874C31.0123 38.8069 31.424 39.2158 31.9469 39.2158C32.4699 39.2158 32.8815 38.8069 32.8815 38.2874C32.8815 37.7679 32.4699 37.359 31.9469 37.359ZM31.5909 38.4753C31.4796 38.4753 31.4017 38.3869 31.4017 38.2874C31.4017 38.1769 31.4796 38.0995 31.5909 38.0995C31.7021 38.0995 31.78 38.1769 31.78 38.2874C31.78 38.3979 31.691 38.4753 31.5909 38.4753ZM32.303 38.4753C32.1917 38.4753 32.1138 38.3869 32.1138 38.2874C32.1138 38.1769 32.1917 38.0995 32.303 38.0995C32.4142 38.0995 32.4921 38.1769 32.4921 38.2874C32.4921 38.3979 32.4031 38.4753 32.303 38.4753Z" fill="white"/>
<path d="M31.9469 37.3598V37.3266C31.4128 37.3266 30.9789 37.7577 30.9789 38.2882C30.9789 38.8187 31.4128 39.2498 31.9469 39.2498C32.481 39.2498 32.9149 38.8187 32.9149 38.2882C32.9149 37.7577 32.481 37.3266 31.9469 37.3266V37.3929C32.4476 37.3929 32.8481 37.7908 32.8481 38.2882C32.8481 38.7856 32.4476 39.1835 31.9469 39.1835C31.4462 39.1835 31.0457 38.7856 31.0457 38.2882C31.0457 37.7908 31.4462 37.3929 31.9469 37.3929V37.3598ZM31.5908 38.4761V38.4429C31.5018 38.4429 31.4351 38.3766 31.4351 38.2882C31.4351 38.1998 31.5018 38.1335 31.5908 38.1335C31.6799 38.1335 31.7466 38.1998 31.7466 38.2882C31.7466 38.3766 31.6687 38.4429 31.5908 38.4429V38.5093C31.7132 38.5093 31.8134 38.4098 31.8134 38.2882C31.8134 38.1556 31.7132 38.0671 31.5908 38.0671C31.5241 38.0671 31.4685 38.0893 31.424 38.1335C31.3794 38.1777 31.3572 38.2329 31.3572 38.2993C31.3572 38.4208 31.4573 38.5203 31.5797 38.5203V38.4872L31.5908 38.4761ZM32.3029 38.4761V38.4429C32.2139 38.4429 32.1472 38.3766 32.1472 38.2882C32.1472 38.1998 32.2139 38.1335 32.3029 38.1335C32.3919 38.1335 32.4587 38.1998 32.4587 38.2882C32.4587 38.3766 32.3808 38.4429 32.3029 38.4429V38.5093C32.4253 38.5093 32.5255 38.4098 32.5255 38.2882C32.5255 38.1556 32.4253 38.0671 32.3029 38.0671C32.2362 38.0671 32.1805 38.0893 32.136 38.1335C32.0915 38.1777 32.0693 38.2329 32.0693 38.2993C32.0693 38.4208 32.1694 38.5203 32.2918 38.5203V38.4872L32.3029 38.4761Z" fill="black"/>
<path d="M31.9469 37.5036C31.5018 37.5036 31.1458 37.8573 31.1458 38.2994C31.1458 38.7415 31.5018 39.0952 31.9469 39.0952C32.3919 39.0952 32.748 38.7415 32.748 38.2994C32.748 37.8573 32.3919 37.5036 31.9469 37.5036ZM31.9469 39.0289C31.5352 39.0289 31.2014 38.6973 31.2014 38.2884C31.2014 37.8794 31.5352 37.5478 31.9469 37.5478C32.3585 37.5478 32.6923 37.8794 32.6923 38.2884C32.6923 38.6973 32.3585 39.0289 31.9469 39.0289Z" fill="black"/>
<path d="M13.426 32.7732C13.2146 33.5357 12.7586 34.3423 11.8242 35.0053C11.3236 35.3699 10.6896 35.6904 9.87758 35.9445C9.71072 35.9997 9.54386 36.0439 9.37701 36.0771C5.81749 36.9611 2.48045 35.0716 0.93429 32.6738C0.300252 31.6903 -0.033456 30.6185 0.0444084 29.624C0.322495 26.0771 4.17123 25.1047 7.38591 25.1047C9.31027 25.1047 11.0344 26.8174 12.1134 28.1986C12.8364 29.1268 13.2591 29.9003 13.2591 29.9003C13.2591 29.9003 13.337 30.0992 13.4148 30.4196C13.5372 30.9611 13.6596 31.834 13.4148 32.7622L13.426 32.7732Z" fill="white"/>
<path d="M13.426 32.774H13.3927C13.1813 33.5254 12.7253 34.321 11.802 34.9839L11.8243 35.0171V34.9839H11.802C11.3015 35.3486 10.6674 35.669 9.86652 35.9232C9.69967 35.9784 9.53282 36.0226 9.36597 36.0558C8.7653 36.2105 8.16463 36.2768 7.57509 36.2768C4.7386 36.2768 2.23581 34.6414 0.967737 32.6635C0.40044 31.7906 0.0778555 30.8403 0.0778555 29.9342C0.0778555 29.8348 0.0778664 29.7353 0.0889899 29.6359C0.233595 27.879 1.24582 26.7629 2.63626 26.0779C4.02669 25.3928 5.7842 25.1497 7.39711 25.1497C9.29922 25.1497 11.0122 26.8513 12.0912 28.2326L12.1246 28.2105H12.0912V28.2326C12.4472 28.7077 12.7364 29.1276 12.9366 29.437C13.1368 29.7464 13.2369 29.9342 13.2369 29.9342L13.2703 29.9121H13.2369C13.2369 29.9121 13.2592 29.9784 13.2814 30.0668C13.3037 30.1552 13.3482 30.2878 13.3927 30.4425V30.4646C13.4594 30.7629 13.5373 31.1828 13.5373 31.6469C13.5373 32.0005 13.4928 32.3873 13.3927 32.774H13.426L13.4594 32.7961C13.5706 32.3983 13.604 32.0005 13.604 31.6469C13.604 31.1718 13.5373 30.7519 13.4594 30.4425V30.4204C13.3815 30.0889 13.3037 29.89 13.3037 29.89C13.3037 29.89 12.8699 29.1165 12.1468 28.1884L12.1135 28.2105H12.1468V28.1884C11.0679 26.7961 9.34372 25.0723 7.39711 25.0723C5.7842 25.0723 4.01557 25.3154 2.60289 26.0116C1.20133 26.6966 0.155723 27.8458 0.0111174 29.6248C0.0111174 29.7243 0 29.8237 0 29.9342C0 30.8513 0.333702 31.8127 0.900999 32.6966C2.1802 34.6966 4.70523 36.3431 7.57509 36.3431C8.16463 36.3431 8.77642 36.2768 9.37708 36.1221C9.54394 36.0889 9.7108 36.0447 9.87765 35.9895C10.6897 35.7353 11.3348 35.4038 11.8354 35.0392L11.8131 35.006V35.0392H11.8354C12.7698 34.3541 13.2369 33.5475 13.4483 32.774H13.4149H13.426Z" fill="black"/>
<path d="M37.0634 23.9336C37.0634 23.9336 37.0412 24.8065 35.9066 26.1656C35.2169 26.9833 34.1268 27.9888 32.3915 29.0717C31.8354 29.4142 31.2125 29.6573 30.5228 29.8231C29.1213 30.1546 27.5083 30.1435 25.8843 29.9667C23.9043 29.7347 21.9244 29.2485 20.3893 28.7954C20.1891 28.7402 20 28.6739 19.822 28.6187C18.3871 28.1656 17.4527 27.7899 17.4527 27.7899C16.3292 27.1932 15.6396 21.359 15.6396 21.359C15.7619 21.4805 15.9066 21.6021 16.04 21.7236C18.2202 23.591 21.6796 24.8838 25.3837 25.2043C26.6185 25.3148 27.8865 25.3148 29.1435 25.2043C29.366 25.1822 29.5773 25.1601 29.7998 25.1269C31.3793 24.9059 32.614 24.254 33.5373 23.4916C35.1947 22.1325 35.8732 20.4529 35.8732 20.4529C36.1847 20.8838 37.0634 23.9557 37.0634 23.9557" fill="white"/>
<path d="M37.0634 23.9343H37.0301C37.0301 23.9343 37.0301 23.9343 37.0301 23.9674C37.0078 24.1442 36.8743 24.9619 35.8844 26.1442C35.1947 26.9619 34.1046 27.9564 32.3805 29.0393C31.8354 29.3818 31.2014 29.6249 30.5117 29.7906C29.7219 29.9785 28.8654 30.0558 27.9756 30.0558C27.2859 30.0558 26.5851 30.0116 25.8844 29.9343C23.9044 29.7022 21.9355 29.2161 20.4005 28.763C20.2003 28.7078 20.0112 28.6415 19.8332 28.5862C19.1213 28.3652 18.5317 28.1553 18.1202 28.0006C17.7086 27.8459 17.475 27.7575 17.475 27.7575C17.208 27.6249 16.9522 27.1497 16.7409 26.5199C16.4072 25.5807 16.1402 24.2879 15.9622 23.2271C15.8732 22.6967 15.8065 22.2326 15.7509 21.8901C15.7064 21.5475 15.6841 21.3486 15.6841 21.3486H15.6507L15.6285 21.3818C15.7509 21.5033 15.8955 21.6249 16.029 21.7464C18.2203 23.6138 21.6797 24.9067 25.3838 25.2381C25.9845 25.2934 26.6074 25.3265 27.2192 25.3265C27.831 25.3265 28.5095 25.2934 29.1547 25.2271C29.3771 25.205 29.5885 25.1829 29.8109 25.1497C31.4016 24.9288 32.6363 24.2658 33.5707 23.5033C35.2281 22.1332 35.9177 20.4536 35.9177 20.4536H35.8844H35.851C35.9289 20.5531 36.0401 20.8293 36.1624 21.1718C36.3515 21.6912 36.574 22.3873 36.7409 22.9508C36.9077 23.5144 37.0301 23.9453 37.0301 23.9453H37.0634H37.0968C37.0968 23.9453 36.8744 23.1829 36.6185 22.3542C36.485 21.9453 36.3515 21.5144 36.2292 21.1718C36.1068 20.8182 35.9956 20.5531 35.9066 20.4315L35.8732 20.3763L35.851 20.4315C35.851 20.4315 35.8065 20.531 35.7175 20.7078C35.4505 21.2381 34.7498 22.4315 33.5151 23.4481C32.5918 24.2105 31.3682 24.8625 29.7998 25.0834C29.5773 25.1055 29.366 25.1387 29.1435 25.1608C28.4984 25.2271 27.8643 25.2602 27.2192 25.2602C26.574 25.2602 25.9956 25.2271 25.3949 25.1718C21.7019 24.8514 18.2536 23.5586 16.0734 21.7022C15.94 21.5917 15.7954 21.4591 15.673 21.3486L15.6063 21.2823V21.3818C15.6063 21.3818 15.7954 22.8403 16.1068 24.3763C16.2625 25.1387 16.4516 25.9343 16.6741 26.5641C16.8966 27.1939 17.1524 27.6801 17.4416 27.8348C17.4416 27.8348 18.376 28.2105 19.8109 28.6636C19.9889 28.7188 20.1891 28.7741 20.3782 28.8404C21.9133 29.2934 23.8932 29.7906 25.8732 30.0227C26.574 30.1 27.2859 30.1442 27.9644 30.1442C28.8543 30.1442 29.7219 30.0669 30.5117 29.879C31.2014 29.7133 31.8354 29.4702 32.3916 29.1277C34.1268 28.0448 35.2169 27.0393 35.9177 26.2216C37.0634 24.8514 37.0857 23.9674 37.0857 23.9674H37.0523" fill="black"/>
<path d="M30.089 45.0284C30.1335 45.6582 29.5884 46.3433 28.6763 46.6969C28.5873 46.73 28.4983 46.7632 28.4205 46.8074C28.2314 46.8958 28.0868 46.9842 27.9422 47.0505C27.5751 47.2383 27.1858 47.3488 25.9733 47.2825C25.0278 47.2273 24.8165 47.0394 24.5495 46.94C24.2825 46.8516 23.96 46.8405 22.792 47.1057C22.6474 47.1389 22.5028 47.172 22.3693 47.1831C20.3337 47.5366 19.4661 46.6527 19.4661 46.6527C19.4661 46.6527 20.4561 45.6471 19.6885 40.7632C19.6218 40.3654 19.5551 39.9455 19.4661 39.4924C18.3092 33.5145 12.1468 27.4924 12.3359 25.3377C12.525 23.183 15.6285 21.3488 15.6285 21.3488C15.9066 22.6305 17.8977 25.8792 19.7998 28.6084C21.1124 30.4759 22.3916 32.1112 23.0256 32.6748C24.3048 33.7908 28.109 40.8074 29.5328 43.7576C29.8665 44.4427 30.0667 44.9068 30.0779 45.0284" fill="white"/>
<path d="M30.089 45.0275H30.0557V45.1048C30.0557 45.6905 29.5217 46.3313 28.6652 46.6628C28.5762 46.696 28.4872 46.7291 28.4094 46.7733C28.2203 46.8617 28.0757 46.9501 27.9311 47.0164C27.6419 47.1601 27.3415 47.2595 26.6296 47.2595C26.4405 47.2595 26.2292 47.2595 25.9845 47.2374C25.0501 47.1822 24.8499 47.0054 24.5718 46.9059C24.4717 46.8728 24.3493 46.8396 24.1824 46.8396C23.9155 46.8396 23.515 46.9059 22.792 47.0717C22.6474 47.1048 22.5028 47.138 22.3693 47.149C22.0356 47.2043 21.7242 47.2374 21.4461 47.2374C20.7675 47.2374 20.2781 47.0827 19.9555 46.9391C19.7998 46.8617 19.6774 46.7844 19.6107 46.7291C19.5773 46.696 19.544 46.6739 19.5217 46.6628L19.4995 46.6407L19.4772 46.6628L19.4995 46.6849C19.4995 46.6849 20.0223 46.1435 20.0223 44.0109C20.0223 43.1932 19.9444 42.1324 19.733 40.7733C19.6663 40.3755 19.5996 39.9556 19.5106 39.5026C18.9433 36.5523 17.1524 33.591 15.5061 31.0938C14.683 29.8451 13.9044 28.707 13.3259 27.7457C12.7475 26.7844 12.3804 25.9998 12.3804 25.4473C12.3804 25.4142 12.3804 25.381 12.3804 25.3479C12.4694 24.2871 13.2926 23.2926 14.0823 22.5744C14.4828 22.2098 14.8721 21.9225 15.1724 21.7125C15.4616 21.5026 15.6619 21.3921 15.6619 21.3921L15.6396 21.3589H15.6062C15.8843 22.6628 17.8754 25.9004 19.7887 28.6407C21.1012 30.5192 22.3804 32.1435 23.0256 32.707C23.6596 33.2595 24.9277 35.2927 26.218 37.5468C27.5084 39.812 28.8098 42.2982 29.5217 43.7678C29.6886 44.1103 29.8221 44.3976 29.911 44.6076C30 44.8175 30.0557 44.9722 30.0557 45.0164H30.089H30.1224C30.1224 44.9501 30.0668 44.8065 29.9667 44.5855C29.8777 44.3645 29.7442 44.0772 29.5773 43.7347C28.8654 42.265 27.564 39.7678 26.2737 37.5026C24.9833 35.2374 23.7153 33.2043 23.0701 32.6407C22.4361 32.0882 21.1569 30.4529 19.8443 28.5855C17.9422 25.8562 15.9399 22.6076 15.673 21.3368V21.2926L15.6174 21.3147C15.6174 21.3147 14.8387 21.7788 14.0378 22.5081C13.2369 23.2374 12.4027 24.2429 12.3137 25.3368C12.3137 25.37 12.3137 25.4031 12.3137 25.4363C12.3137 26.0109 12.6919 26.8065 13.2703 27.7678C15.0167 30.6628 18.5985 35.0938 19.4438 39.5026C19.5328 39.9556 19.5996 40.3755 19.6663 40.7733C19.8777 42.1324 19.9555 43.1822 19.9555 43.9998C19.9555 45.0606 19.822 45.7126 19.6997 46.1103C19.6329 46.3092 19.5773 46.4308 19.5217 46.5192C19.4995 46.5634 19.4772 46.5855 19.4661 46.6076V46.6297H19.4438L19.4216 46.6518L19.4438 46.6739C19.4438 46.6739 20.0556 47.2927 21.4461 47.2927C21.7242 47.2927 22.0356 47.2706 22.3804 47.2043C22.525 47.1822 22.6585 47.149 22.8031 47.1269C23.5262 46.9612 23.9155 46.8949 24.1824 46.8949C24.3382 46.8949 24.4494 46.917 24.5495 46.9501C24.8054 47.0496 25.039 47.2264 25.9845 47.2927C26.2292 47.3037 26.4405 47.3148 26.6296 47.3148C27.3526 47.3148 27.6752 47.2153 27.9644 47.0606C28.1202 46.9833 28.2536 46.9059 28.4427 46.8175C28.5206 46.7844 28.5985 46.7512 28.6875 46.707C29.5662 46.3645 30.1224 45.7126 30.1224 45.0827C30.1224 45.0606 30.1224 45.0275 30.1224 45.0054H30.089" fill="black"/>
<mask id="mask0_207_986" style="mask-type:luminance" maskUnits="userSpaceOnUse" x="25" y="25" width="6" height="6">
<path d="M29.1213 25.2269C28.4872 25.2932 27.8532 25.3153 27.208 25.3153C27.1635 25.3153 27.1079 25.3153 27.0634 25.3153C26.5073 25.3153 25.9622 25.2822 25.4171 25.238L25.9066 29.9341C26.5962 30.0115 27.297 30.0557 27.9644 30.0557C28.8432 30.0557 29.6886 29.9783 30.4672 29.8015C30.1891 28.5308 29.5662 26.575 29.1101 25.2269" fill="white"/>
</mask>
<g mask="url(#mask0_207_986)">
<path d="M30.4672 25.2269H25.4171V30.0557H30.4672V25.2269Z" fill="white"/>
</g>
<path d="M29.1445 25.1492C28.4992 25.2155 27.865 25.2487 27.2197 25.2487C26.5743 25.2487 25.9957 25.2155 25.3949 25.1603H25.3504C25.3615 25.1603 25.3838 25.1603 25.3949 25.1603C25.9957 25.2155 26.6077 25.2487 27.2197 25.2487C27.8316 25.2487 28.4992 25.2155 29.1445 25.1492Z" fill="white"/>
<path d="M29.188 25.2153C29.188 25.2153 29.1546 25.2153 29.1435 25.2153C29.1435 25.2153 29.1324 25.2153 29.1213 25.2153C29.5662 26.5634 30.1891 28.5192 30.4783 29.7899C29.6997 29.9667 28.8543 30.044 27.9755 30.044C27.297 30.044 26.6074 29.9998 25.9177 29.9225L25.4283 25.2264C25.9733 25.2706 26.5184 25.3037 27.0745 25.3037C26.5072 25.3037 25.9399 25.2706 25.3838 25.2153C25.3838 25.2153 25.3615 25.2153 25.3504 25.2153L25.8398 29.9115C25.8398 29.9115 25.8732 29.9115 25.8843 29.9115C26.5851 29.9888 27.2859 30.033 27.9755 30.033C28.8654 30.033 29.7219 29.9557 30.5117 29.7678C30.5117 29.7678 30.5339 29.7678 30.5451 29.7678C30.267 28.4971 29.6441 26.5523 29.1991 25.2043" fill="white"/>
<path d="M30.5451 29.7901C30.5451 29.7901 30.5229 29.7901 30.5117 29.7901V29.8233H30.5562H30.5229V29.8012C29.7331 29.989 28.8766 30.0663 27.9867 30.0663C27.2971 30.0663 26.5963 30.0222 25.8955 29.9448C25.8844 29.9448 25.8621 29.9448 25.851 29.9448V30.0111C25.851 30.0111 25.8733 30.0111 25.8844 30.0111C26.5852 30.0884 27.2971 30.1326 27.9756 30.1326C28.8655 30.1326 29.7331 30.0553 30.5229 29.8675H30.534C30.534 29.8675 30.5451 29.8675 30.5562 29.8675V29.8343C30.5562 29.8343 30.5451 29.8122 30.5451 29.8012M29.1658 25.1492H29.1324C28.4873 25.2155 27.8532 25.2487 27.2081 25.2487C26.5629 25.2487 25.9845 25.2155 25.3838 25.1603C25.3727 25.1603 25.3504 25.1603 25.3393 25.1603V25.2266C25.3393 25.2266 25.3616 25.2266 25.3727 25.2266C25.9289 25.2818 26.4962 25.3039 27.0635 25.315C27.108 25.315 27.1636 25.315 27.2081 25.315C27.8421 25.315 28.4873 25.2818 29.1213 25.2266C29.1213 25.2266 29.1324 25.2266 29.1436 25.2266C29.1436 25.2266 29.1769 25.2266 29.188 25.2266C29.188 25.2155 29.188 25.1934 29.1769 25.1824V25.1603" fill="black"/>
<path d="M16.3181 24.9617C16.1512 24.9617 15.9955 25.0501 15.8731 25.2821C15.5506 25.8567 15.3392 26.4865 15.3392 27.249C15.3392 28.7849 16.1957 30.8954 18.743 34.3097C21.3348 37.7904 22.525 38.597 23.337 38.597C23.7152 38.597 24.0267 38.4202 24.3715 38.2545C24.4938 38.1992 24.5495 38.0666 24.5606 37.8678C24.5606 37.2048 23.882 35.8567 23.0589 34.4755C22.2358 33.0943 21.268 31.6799 20.7007 30.8622C19.8553 29.6357 18.4649 26.9175 17.3303 25.6357C16.9521 25.2158 16.6073 24.9506 16.3403 24.9506" fill="white"/>
<path d="M23.3259 38.5964C22.5139 38.5964 21.3237 37.7898 18.7319 34.3091C16.1846 30.8837 15.3281 28.7842 15.3281 27.2483C15.3281 26.4859 15.5395 25.8561 15.862 25.2815C15.9955 25.0494 16.1401 24.961 16.307 24.961C16.574 24.961 16.9299 25.2152 17.297 25.6461C18.4316 26.9279 19.822 29.6351 20.6674 30.8726C21.2347 31.6903 22.2024 33.1047 23.0256 34.4859C23.8487 35.8671 24.5384 37.2152 24.5272 37.8782C24.5272 38.0771 24.4716 38.2097 24.3381 38.2649C23.9933 38.4307 23.6819 38.6075 23.3037 38.6075M16.3181 24.8837C16.1179 24.8837 15.9399 25.0052 15.8064 25.2483C15.4838 25.834 15.2614 26.4749 15.2614 27.2483C15.2614 28.8063 16.129 30.9279 18.6763 34.3533C21.2792 37.845 22.4694 38.6627 23.3259 38.6627C23.7263 38.6627 24.0489 38.4749 24.3937 38.3202C24.5495 38.2428 24.6162 38.0771 24.6162 37.8671C24.6162 37.171 23.9266 35.8229 23.1034 34.4417C22.2803 33.0605 21.3125 31.6461 20.7452 30.8284C20.178 30.0108 19.3771 28.5301 18.5651 27.2594C18.1646 26.6185 17.753 26.0329 17.3748 25.6019C16.9966 25.171 16.6407 24.8947 16.3181 24.8947" fill="white"/>
<path d="M22.8365 79.2147C22.8365 81.8224 19.4661 83.944 15.317 83.944C11.624 83.944 8.55393 82.2644 7.90877 80.0655C7.8309 79.7893 7.78641 79.513 7.78641 79.2257C7.78641 77.5904 9.1101 76.1539 11.1235 75.3031C12.3248 74.7948 13.7597 74.5075 15.317 74.5075C18.9544 74.5075 22.0022 76.1318 22.6919 78.2976C22.792 78.607 22.8365 78.9164 22.8365 79.2368V79.2147Z" fill="white"/>
<path d="M22.8364 79.2155H22.8031C22.8031 80.5083 21.9688 81.6796 20.6117 82.5304C19.2547 83.3812 17.3859 83.9116 15.317 83.9116C11.6351 83.9116 8.57615 82.232 7.94211 80.0552C7.86425 79.7901 7.81975 79.5028 7.81975 79.2265C7.81975 77.6133 9.13232 76.1768 11.1345 75.337C12.3248 74.8287 13.7708 74.5414 15.317 74.5414C18.9432 74.5414 21.9688 76.1657 22.6585 78.3094C22.7586 78.6077 22.8031 78.9171 22.8031 79.2376H22.8698C22.8698 78.9171 22.8253 78.5967 22.7252 78.2873C22.0244 76.0994 18.9655 74.4751 15.317 74.4751C13.7597 74.4751 12.3136 74.7735 11.1123 75.2818C9.09894 76.1326 7.76413 77.5801 7.76413 79.2376C7.76413 79.5249 7.80862 79.8122 7.88649 80.0884C8.53165 82.3204 11.624 84 15.3281 84C17.4082 84 19.2992 83.4696 20.6674 82.6077C22.0356 81.7459 22.8921 80.5525 22.8921 79.2376H22.8587L22.8364 79.2155Z" fill="black"/>
<path d="M48.6097 79.4696C48.1536 82.0332 44.4606 83.5359 40.3783 82.8177C36.7409 82.1768 34.0045 79.989 33.7709 77.7127C33.7487 77.4365 33.7487 77.1492 33.8043 76.8619C34.0935 75.2486 35.6508 74.0663 37.7754 73.5691C39.0435 73.2818 40.5118 73.2376 42.0468 73.5028C45.6286 74.1326 48.3427 76.2652 48.643 78.5083C48.6875 78.8288 48.6764 79.1382 48.6208 79.4586L48.6097 79.4696Z" fill="white"/>
<path d="M48.6096 79.4698H48.5762C48.198 81.5692 45.6063 82.9615 42.4027 82.9615C41.7464 82.9615 41.0679 82.9062 40.3782 82.7847C36.752 82.1438 34.0267 79.967 33.7931 77.7129C33.7931 77.6024 33.782 77.5029 33.782 77.3924C33.782 77.2156 33.7931 77.0499 33.8265 76.8731C34.1046 75.2819 35.6507 74.0996 37.7753 73.6134C38.465 73.4587 39.2103 73.3703 40 73.3703C40.6563 73.3703 41.3348 73.4256 42.0356 73.5471C45.6063 74.177 48.3093 76.2985 48.5985 78.5306C48.6207 78.6632 48.6318 78.8068 48.6318 78.9394C48.6318 79.1162 48.6207 79.293 48.5873 79.4698H48.6207L48.6541 79.4808C48.6875 79.304 48.6986 79.1272 48.6986 78.9394C48.6986 78.7958 48.6986 78.6631 48.6652 78.5195C48.3538 76.2433 45.6396 74.1107 42.0468 73.4808C41.346 73.3593 40.6674 73.304 40 73.304C39.2103 73.304 38.4539 73.3924 37.7642 73.5471C35.6285 74.0333 34.0601 75.2377 33.7709 76.862C33.7375 77.0388 33.7264 77.2156 33.7264 77.3924C33.7264 77.5029 33.7264 77.6134 33.7375 77.7239C33.9822 80.0333 36.7297 82.2212 40.3782 82.862C41.0679 82.9836 41.7575 83.0388 42.4138 83.0388C45.6396 83.0388 48.2648 81.6355 48.6541 79.4808H48.6207L48.6096 79.4698Z" fill="black"/>
</svg>
