<svg width="24" height="71" viewBox="0 0 24 71" fill="none" xmlns="http://www.w3.org/2000/svg">
<path d="M10.8943 64.1792H10.9304C11.0987 64.1719 11.231 64.1278 11.267 64.0838C11.267 64.0838 11.267 64.0618 11.267 64.0251C11.267 63.9957 11.2911 63.9663 11.2911 63.9223C11.3031 63.8783 11.3151 63.8269 11.3272 63.7608C11.4234 63.3425 11.6037 62.5277 11.8321 61.3827C11.8682 61.2066 11.8923 61.0231 11.9524 60.8322C11.9885 60.6194 12.0365 60.3918 12.0846 60.157C12.1568 59.8047 12.2289 59.4377 12.3011 59.0487C12.3852 58.6229 12.4694 58.1679 12.5536 57.6908C12.6257 57.3532 12.6978 57.0082 12.77 56.6485C13.9483 51.2831 16.6536 43.4001 17.6635 35.8034C18.6615 28.2654 18.5773 18.2392 18.4571 12.7783C18.433 12.5141 18.433 12.2499 18.433 12.0003C18.397 11.2737 18.3729 10.6058 18.3368 10.0112C18.3368 10.2021 18.3368 10.3929 18.3368 10.6058C18.3368 10.6865 18.3368 10.7746 18.3368 10.8553C18.3368 10.9948 18.3368 11.1416 18.3368 11.281C18.3368 11.3251 18.3489 11.3764 18.3368 11.4205C18.3128 15.9565 18.0603 25.8286 16.4732 36.0163C15.3791 43.1432 12.3011 51.9951 11.3151 57.6614C11.1468 58.6596 10.9905 59.5771 10.8342 60.3772C10.4495 62.6158 10.209 63.9957 10.209 64.0471C10.233 64.1498 10.5697 64.1939 10.8583 64.1792H10.8943Z" fill="#78C75E"/>
<path d="M12.0967 60.1572C11.6157 62.5794 11.2911 64.0253 11.2671 64.0767C11.231 64.1281 11.0867 64.1648 10.9304 64.1721H10.8943C10.6058 64.1868 10.2571 64.1354 10.2451 64.04C10.233 63.996 10.4735 62.6088 10.8583 60.3774C11.0025 60.4215 11.1829 60.4655 11.4234 60.4068C11.6879 60.3481 11.9163 60.2233 12.0846 60.1499L12.0967 60.1572Z" fill="#9ACC60"/>
<path d="M10.8947 64.1792H10.9307C11.0991 64.1719 11.2313 64.1278 11.2674 64.0838C11.2674 64.0838 11.2674 64.0618 11.2674 64.0251C11.2674 63.9957 11.2914 63.9663 11.2914 63.9223C11.3034 63.8783 11.3155 63.8269 11.3275 63.7608C11.4237 63.3425 11.604 62.5277 11.8325 61.3827C11.8686 61.2066 11.8926 61.0231 11.9527 60.8322C11.9888 60.6194 12.0369 60.3918 12.085 60.157C12.1571 59.8047 12.2293 59.4377 12.3014 59.0487C12.3856 58.6229 12.4697 58.1679 12.5539 57.6908C12.626 57.3532 12.6982 57.0082 12.7703 56.6485C13.9486 51.2831 16.6539 43.4001 17.6639 35.8034C18.6618 28.2654 18.5776 18.2392 18.4574 12.7783C18.4334 12.5141 18.4334 12.2499 18.4334 12.0003C18.3973 11.2737 18.3732 10.6058 18.3372 10.0112C18.3372 10.2021 18.3372 10.3929 18.3372 10.6058C18.3372 10.6865 18.3372 10.7746 18.3372 10.8553C18.3372 10.9948 18.3372 11.1416 18.3372 11.281C18.3372 11.3251 18.3492 11.3764 18.3372 11.4205C18.3853 17.1089 18.4334 27.9351 17.0747 36.0456C15.4996 45.3525 12.9627 54.197 12.9026 54.3879C12.8304 54.5787 12.4697 56.2595 12.073 58.1752C11.5319 60.935 10.8706 64.1719 10.8706 64.1719L10.8947 64.1792Z" fill="#CAD9D5"/>
<path d="M9.37965 64.1939H9.33156C9.11513 64.1866 8.94681 64.1499 8.89871 64.1058C8.89871 64.1058 8.89871 64.0912 8.89871 64.0545C8.88669 64.0324 8.87467 64.0031 8.87467 63.9664C8.85062 63.9297 8.85062 63.8857 8.8386 63.8343C8.74241 63.4893 8.57408 62.7994 8.34563 61.8452C8.32159 61.6984 8.28552 61.5442 8.23742 61.3828C8.21338 61.2066 8.15326 61.0158 8.11719 60.8176C8.04505 60.524 7.98493 60.2157 7.91279 59.8928C7.84065 59.5331 7.75648 59.1588 7.67232 58.7551C7.60018 58.4762 7.54006 58.1826 7.4559 57.889C6.31367 53.397 3.34388 46.7838 2.56235 40.4422C1.80488 34.152 2.61045 25.7993 3.16353 21.2559C3.21162 21.0357 3.23567 20.8155 3.25971 20.6027C3.3559 19.9934 3.44007 19.443 3.51221 18.9438C3.50018 19.098 3.48816 19.2668 3.46411 19.443C3.46411 19.509 3.46411 19.5824 3.44007 19.6485C3.44007 19.7659 3.41602 19.8907 3.41602 20.0081C3.41602 20.0448 3.39197 20.0815 3.39197 20.1256C3.10341 23.9056 2.74271 32.1262 4.07731 40.6404C4.99109 46.6003 8.36968 54.0209 9.25942 58.7551C9.4037 59.5919 9.54798 60.3552 9.69226 61.0231C10.0409 62.8948 10.2574 64.0471 10.2453 64.0912C10.2093 64.1719 9.7644 64.2013 9.39167 64.1939H9.37965Z" fill="#78C75E"/>
<path d="M8.10498 60.8247C8.56187 62.8505 8.87448 64.0616 8.89853 64.1056C8.94662 64.1496 9.12697 64.1863 9.31935 64.1937H9.36744C9.75219 64.2084 10.1971 64.179 10.2211 64.0983C10.2452 64.0616 10.0167 62.9019 9.68005 61.0376C9.48768 61.0743 9.24721 61.1036 8.94662 61.0522C8.60997 60.9935 8.3214 60.8908 8.10498 60.832V60.8247Z" fill="#9ACC60"/>
<path d="M9.37965 64.1939H9.33156C9.11513 64.1866 8.94681 64.1499 8.89871 64.1058C8.89871 64.1058 8.89871 64.0912 8.89871 64.0545C8.88669 64.0324 8.87467 64.0031 8.87467 63.9664C8.85062 63.9297 8.85062 63.8857 8.8386 63.8343C8.74241 63.4893 8.57408 62.7994 8.34563 61.8452C8.32159 61.6984 8.28552 61.5442 8.23742 61.3828C8.21338 61.2066 8.15326 61.0158 8.11719 60.8176C8.04505 60.524 7.98493 60.2157 7.91279 59.8928C7.84065 59.5331 7.75648 59.1588 7.67232 58.7551C7.60018 58.4762 7.54006 58.1826 7.4559 57.889C6.31367 53.397 3.34388 46.7838 2.56235 40.4422C1.80488 34.152 2.61045 25.7993 3.16353 21.2559C3.21162 21.0357 3.23567 20.8155 3.25971 20.6027C3.3559 19.9934 3.44007 19.443 3.51221 18.9438C3.50018 19.098 3.48816 19.2668 3.46411 19.443C3.46411 19.509 3.46411 19.5824 3.44007 19.6485C3.44007 19.7659 3.41602 19.8907 3.41602 20.0081C3.41602 20.0448 3.39197 20.0815 3.39197 20.1256C2.92306 24.8598 2.09344 33.8804 3.29579 40.6551C4.67848 48.4353 7.35971 55.8412 7.43185 56.0027C7.51602 56.1642 7.8647 57.5661 8.24945 59.1735C8.75443 61.4782 9.37965 64.1866 9.37965 64.1866V64.1939Z" fill="#CAD9D5"/>
<path d="M9.05535 68.0186C9.09142 68.3195 8.74274 68.5691 8.28585 68.6131C8.20168 68.6278 8.11752 68.6352 8.03335 68.6278L7.54039 68.6058C7.05945 68.5838 6.68673 68.3489 6.66268 68.0627C6.53042 66.8369 6.33805 65.7066 6.08556 64.4148C5.68878 62.3523 5.14773 59.8714 4.49846 55.9299C3.45242 49.4929 2.97148 42.7182 5.06356 33.7269C6.37412 28.1119 8.71869 5.56396 8.71869 5.56396C8.73071 5.67406 8.74274 5.79884 8.75476 5.93096C9.24772 11.1349 7.40813 32.4131 6.36209 37.1179C5.15975 42.5567 6.78292 49.6397 7.16767 52.3774C7.6486 55.8785 8.03335 58.9759 8.33394 61.5082C8.70667 64.679 8.94714 66.9617 9.05535 68.0186Z" fill="#65B04C"/>
<path d="M9.05524 68.0182C9.09131 68.3192 8.74263 68.5687 8.28574 68.6128C8.20158 68.6275 8.11741 68.6348 8.03325 68.6274L7.54029 68.6054C7.05935 68.5834 6.68662 68.3485 6.66257 68.0623C6.53032 66.8365 6.33794 65.7062 6.08545 64.4144C6.49425 64.2309 6.92709 64.2089 7.25172 64.5905C7.42005 64.7887 7.57636 64.7006 7.72064 64.4291C7.98515 63.8933 8.17753 62.6969 8.33383 61.5078C8.70656 64.6786 8.94703 66.9613 9.05524 68.0182Z" fill="#A8D67C"/>
<path d="M9.05514 68.0183C9.09121 68.3193 8.74253 68.5688 8.28564 68.6129C8.16541 67.6146 7.96101 66.0586 7.72054 64.4291C7.35984 61.9042 6.92699 59.2179 6.59034 58.1242C5.86893 55.8122 4.23374 43.0042 4.95515 40.0095C5.62846 37.1396 8.89884 9.68866 8.75456 5.93066C9.24752 11.1346 7.40793 32.4128 6.36189 37.1176C5.15955 42.5564 6.78271 49.6394 7.16746 52.3771C7.6484 55.8782 8.03315 58.9757 8.33374 61.5079C8.70646 64.6787 8.94693 66.9614 9.05514 68.0183Z" fill="#D6D6D6"/>
<path d="M9.65594 62.4326C9.60785 62.7336 9.94451 62.9905 10.4014 63.0418C10.4856 63.0565 10.5697 63.0639 10.6539 63.0639L11.1469 63.0492C11.6278 63.0345 12.0125 62.807 12.0486 62.5207C12.229 61.295 12.4694 60.172 12.77 58.8801C13.251 56.825 13.8882 54.3515 14.6938 50.4247C15.9923 44.0023 16.7378 37.2423 15.0064 28.2217C13.9122 22.5773 12.4574 0 12.4574 0C12.4454 0.110098 12.4213 0.234875 12.4093 0.366992C11.712 5.56359 12.7099 26.8638 13.5756 31.5833C14.5615 37.0368 12.6618 44.0977 12.1688 46.8281C11.5556 50.3219 11.0386 53.412 10.6419 55.9369C10.1489 59.1003 9.81225 61.383 9.66797 62.4326H9.65594Z" fill="#50B537"/>
<path d="M9.65594 62.4327C9.60785 62.7337 9.94451 62.9906 10.4014 63.042C10.4856 63.0566 10.5697 63.064 10.6539 63.064L11.1469 63.0493C11.6278 63.0346 12.0125 62.8071 12.0486 62.5208C12.229 61.2951 12.4694 60.1721 12.77 58.8803C12.3732 58.6894 11.9404 58.6601 11.5917 59.0417C11.4114 59.2399 11.2671 59.1445 11.1348 58.8729C10.8944 58.3298 10.7501 57.1334 10.6419 55.9443C10.1489 59.1078 9.81225 61.3905 9.66797 62.4401L9.65594 62.4327Z" fill="#99D65E"/>
<path d="M9.65594 62.4328C9.60785 62.7337 9.94451 62.9906 10.4014 63.042C10.5577 62.0438 10.8222 60.4951 11.1348 58.8656C11.5917 56.3481 12.1328 53.669 12.5175 52.5827C13.3351 50.2854 15.4633 37.4994 14.8621 34.4974C14.297 31.6202 12.1087 4.12517 12.4093 0.374512C11.712 5.57111 12.7099 26.8713 13.5756 31.5908C14.5615 37.0443 12.6618 44.1052 12.1688 46.8357C11.5556 50.3294 11.0386 53.4195 10.6419 55.9444C10.1489 59.1079 9.81225 61.3905 9.66797 62.4401L9.65594 62.4328Z" fill="#D6D6D6"/>
<path d="M10.4976 67.3947C10.4976 67.6956 10.1129 67.9305 9.65598 67.9525C9.57182 67.9599 9.48765 67.9672 9.40349 67.9525L8.91053 67.9085C8.42959 67.8644 8.09293 67.6149 8.10496 67.3213C8.129 66.0956 8.08091 64.9579 7.99675 63.6587C7.86449 61.5816 7.64806 59.086 7.50378 55.1225C7.28736 48.6561 7.68414 41.8814 10.9305 33.0149C12.9624 27.4807 18.2047 5.11621 18.2047 5.11621C18.2047 5.22631 18.2047 5.35109 18.2047 5.4832C18.0243 10.6945 13.4434 31.8185 11.7962 36.4573C9.89645 41.8227 10.6058 48.957 10.6299 51.7095C10.6539 55.2253 10.6419 58.33 10.6179 60.8696C10.5818 64.0477 10.5217 66.3378 10.4976 67.3947Z" fill="#6CBD52"/>
<path d="M10.4975 67.3947C10.4975 67.6957 10.1127 67.9306 9.65582 67.9526C9.57165 67.9599 9.48749 67.9672 9.40333 67.9526L8.91036 67.9085C8.42943 67.8645 8.09277 67.6149 8.10479 67.3213C8.12884 66.0956 8.08075 64.9579 7.99658 63.6588C8.42943 63.4973 8.86227 63.4973 9.13881 63.8936C9.28309 64.0992 9.45142 64.0184 9.63177 63.7542C9.96843 63.2331 10.3051 62.0513 10.6177 60.8696C10.5816 64.0478 10.5215 66.3378 10.4975 67.3947Z" fill="#B2E384"/>
<path d="M10.4979 67.3944C10.4979 67.6953 10.1132 67.9302 9.65628 67.9522C7.85277 65.2438 8.87476 58.4178 8.67036 57.3095C8.24954 54.9681 8.91083 42.2261 10.017 39.2755C11.063 36.4497 17.8563 9.24091 18.1929 5.48291C18.0126 10.6942 13.4316 31.8182 11.7844 36.457C9.88473 41.8224 10.5941 48.9567 10.6182 51.7092C10.6422 55.225 10.6302 58.3297 10.6061 60.8693C10.5701 64.0474 10.5099 66.3375 10.4859 67.3944H10.4979Z" fill="#D6D6D6"/>
<path d="M12.9266 37.1104C12.6742 46.4246 11.9888 55.6875 11.4478 61.8456C11.063 66.2935 10.7264 69.1267 10.6903 69.2001C10.6542 69.2588 10.4859 69.3029 10.2935 69.3175H10.2454C9.88471 69.3396 9.45187 69.2882 9.4158 69.1781C9.39175 69.1047 9.6202 66.1908 9.93281 61.8383C10.4017 55.3205 11.0871 45.5805 11.4959 37.3746C12.3014 21.3884 12.085 5.6665 12.085 5.6665C12.1211 6.05552 12.1692 6.61334 12.2173 7.30329C12.2293 7.31063 12.2293 7.31797 12.2173 7.32531C12.578 12.3531 13.2633 24.7207 12.9266 37.1104Z" fill="#59BF37"/>
<path d="M11.4478 61.8457C11.063 66.2937 10.7264 69.1268 10.6903 69.2002C10.6542 69.259 10.4859 69.303 10.2935 69.3177H10.2454C9.88471 69.3397 9.45187 69.2883 9.4158 69.1782C9.39175 69.1048 9.6202 66.1909 9.93281 61.8384C10.1853 61.8531 10.6181 62.3522 10.9308 62.4182C10.9548 62.4329 10.9788 62.4329 11.0029 62.4329C11.2073 62.4329 11.2313 61.8531 11.4478 61.8457Z" fill="#95E05C"/>
<path d="M12.9268 37.1102C12.6743 46.4245 11.989 55.6874 11.448 61.8455C11.0632 66.2934 10.7265 69.1266 10.6905 69.2C10.6544 69.2587 10.4861 69.3028 10.2937 69.3174H10.2456C10.2456 69.3174 10.6183 65.5888 10.9309 62.418C11.1714 60.2087 11.3878 58.271 11.448 58.0508C11.5802 57.5664 12.518 16.2431 12.2175 7.3252C12.5782 12.353 13.2635 24.7206 12.9268 37.1102Z" fill="#CAD9D5"/>
<path d="M11.159 37.4189C11.0508 46.7332 10.4977 56.0034 10.0529 62.1615C9.74024 66.6094 9.43966 69.4499 9.40359 69.5233C9.36752 69.5821 9.19919 69.6261 9.00681 69.6408H8.95872C8.59802 69.6628 8.16517 69.6188 8.1291 69.5087C8.10506 69.4353 8.28541 66.5214 8.5379 62.1688C8.91063 55.6511 9.43966 45.9038 9.72822 37.6978C10.2933 21.7043 9.83643 5.98975 9.83643 5.98975C9.8725 6.37876 9.93262 6.93659 9.99274 7.62653C10.0048 7.62653 10.0048 7.64121 9.99274 7.64855C10.4256 12.6763 11.3033 25.0366 11.159 37.4263V37.4189Z" fill="#8CCF75"/>
<path d="M10.0529 62.1611C9.74024 66.6091 9.43966 69.4496 9.40359 69.523C9.36752 69.5817 9.19919 69.6257 9.00681 69.6404H8.95872C8.59802 69.6624 8.16517 69.6184 8.1291 69.5083C8.10506 69.4349 8.28541 66.521 8.5379 62.1685C8.79039 62.1831 9.23526 62.6749 9.54787 62.741C9.57192 62.7557 9.59596 62.7557 9.62001 62.7557C9.82441 62.7557 9.83643 62.1758 10.0529 62.1685V62.1611Z" fill="#C9E08F"/>
<path d="M11.1593 37.4188C11.0511 46.7331 10.498 56.0033 10.0531 62.1614C9.74051 66.6093 9.43992 69.4498 9.40385 69.5232C9.36778 69.582 9.19945 69.626 9.00708 69.6407H8.95898C8.95898 69.6407 9.27159 65.912 9.53611 62.7412C9.74051 60.5319 9.93288 58.5942 9.98098 58.374C10.0411 58.1465 10.5942 49.2213 10.6423 38.7987C10.6904 26.6439 10.2214 12.4487 9.98098 7.64844C10.4138 12.6762 11.2915 25.0365 11.1473 37.4261L11.1593 37.4188Z" fill="#CAD9D5"/>
<path d="M8.64593 63.4378C8.6339 64.3479 8.62188 65.1847 8.59783 65.9186C8.52569 68.3555 8.44153 69.8161 8.41748 69.8748C8.38141 69.9262 8.21308 69.9776 8.02071 69.9922H7.97261C7.61191 70.0216 7.17906 69.9922 7.14299 69.8968C7.11895 69.8528 7.11895 68.4582 7.11895 66.2122C7.13097 65.4049 7.13097 64.4874 7.13097 63.4818C7.13097 57.7788 7.13097 49.2646 6.97467 42.1009C6.65003 28.1332 5.31543 14.4224 5.31543 14.4224C5.37555 14.76 5.47173 15.2444 5.56792 15.8463C5.57995 15.8463 5.57995 15.861 5.56792 15.8683C6.27731 20.2429 7.84035 31.0104 8.38141 41.8293C8.77818 49.9618 8.76616 58.0577 8.64593 63.4451V63.4378Z" fill="#78C75E"/>
<path d="M8.59802 65.9258C8.52588 68.3626 8.44172 69.8232 8.41767 69.882C8.3816 69.9333 8.21327 69.9847 8.0209 69.9994H7.97281C7.6121 70.0288 7.17926 69.9994 7.14319 69.904C7.11914 69.8599 7.11914 68.4654 7.11914 66.2194C7.31152 66.2561 7.53996 66.2928 7.82852 66.2194C8.14113 66.146 8.39363 66.0139 8.59802 65.9331V65.9258Z" fill="#9ACC60"/>
<path d="M8.38148 41.8218C8.79028 49.9544 8.75421 58.0502 8.646 63.4377C8.57385 67.3278 8.4416 69.8086 8.40553 69.8747C8.36946 69.9261 8.21315 69.9701 8.02078 69.9848H7.97268C7.97268 69.9848 8.08089 66.7259 8.16506 63.9514C8.24922 62.0211 8.33339 60.3182 8.36946 60.1274C8.41755 59.9292 8.47767 52.127 7.93661 43.0256C7.31139 32.4122 6.04893 20.0372 5.54395 15.8535C6.26535 20.2281 7.81638 31.0029 8.35743 41.8218H8.38148Z" fill="#CAD9D5"/>
<path d="M9.42754 68.6862C9.33135 68.9504 9.57182 69.2 9.93253 69.2734C10.0047 69.2954 10.0648 69.3027 10.1369 69.3027L10.5457 69.3174C10.9425 69.3321 11.3032 69.1486 11.3753 68.8917C11.736 67.7981 12.1328 66.7998 12.6017 65.6548C13.3592 63.8272 14.3091 61.6399 15.6677 58.1462C17.856 52.4358 19.6595 46.3878 19.8038 38.1671C19.8879 33.0293 22.6293 12.6172 22.6293 12.6172C22.5932 12.7126 22.5571 12.83 22.5211 12.9475C21.0422 17.5863 18.1445 36.824 18.0363 41.1251C17.9041 46.0942 15.1026 52.3404 14.2129 54.7699C13.0947 57.8819 12.1328 60.6344 11.3633 62.8877C10.4014 65.7062 9.72813 67.7393 9.42754 68.6862Z" fill="#6CBD52"/>
<path d="M9.42754 68.6862C9.33135 68.9504 9.57182 69.2 9.93253 69.2733C10.0047 69.2954 10.0648 69.3027 10.1369 69.3027L10.5457 69.3174C10.9425 69.3321 11.3032 69.1486 11.3753 68.8917C11.736 67.798 12.1328 66.7998 12.6017 65.6548C12.3011 65.464 11.9525 65.4126 11.6038 65.7282C11.4234 65.897 11.3152 65.8016 11.2551 65.5521C11.1469 65.0529 11.2311 63.9667 11.3513 62.8877C10.3894 65.7062 9.7161 67.7393 9.41552 68.6862H9.42754Z" fill="#A8D67C"/>
<path d="M9.42754 68.686C9.33135 68.9502 9.57182 69.1997 9.93253 69.2731C10.2331 68.385 10.7261 67.0051 11.2671 65.5592C12.0847 63.3205 12.9985 60.9351 13.5035 59.9736C14.5736 57.9478 18.5654 46.5637 18.6014 43.8186C18.6375 41.1909 21.6313 16.3089 22.5331 12.9473C21.0542 17.586 18.1566 36.8237 18.0484 41.1249C17.9161 46.094 15.1146 52.3402 14.2249 54.7696C13.1067 57.8817 12.1448 60.6342 11.3753 62.8875C10.4135 65.706 9.74015 67.7391 9.43956 68.686H9.42754Z" fill="#D6D6D6"/>
</svg>
