<svg width="70" height="65" viewBox="0 0 70 65" fill="none" xmlns="http://www.w3.org/2000/svg">
<path d="M39.4316 38.4175C39.4316 38.4175 49.1914 50.5188 44.8745 60.5929C42.6116 65.8756 35.3837 64.5796 33.7196 63.5066C30.9677 61.7322 29.7483 57.7002 28.9864 54.9429C27.5242 49.6643 29.8207 47.7809 30.789 46.1545C31.7572 44.5281 39.4339 38.4136 39.4339 38.4136L39.4316 38.4175Z" fill="black"/>
<path d="M39.6536 39.8789C39.7082 39.9562 40.2254 40.7073 40.9004 41.8261C42.6233 44.6662 45.4275 49.8709 44.421 52.2809C43.4578 54.581 40.7344 54.7064 39.9701 53.7849C39.2058 52.8634 39.155 50.8222 39.5979 48.9974C39.8871 47.8033 39.9465 45.1429 39.8726 42.8718C39.8293 41.6708 39.753 40.5801 39.6513 39.8828L39.6536 39.8789Z" fill="#FFD024"/>
<path d="M38.813 40.0037C38.813 40.0037 38.9094 41.6527 38.921 43.7338C38.9394 46.7013 38.7949 50.5574 37.9587 51.8506C36.5321 54.0441 34.1768 53.7475 33.6337 52.7444C33.2162 51.967 32.6405 51.1004 33.0722 49.4654C33.199 48.9796 33.4051 48.4301 33.7324 47.7994C35.1645 44.9948 38.817 40.0059 38.817 40.0059L38.813 40.0037Z" fill="#FFD024"/>
<path d="M41.0616 56.3206C41.4159 55.958 41.8988 56.3904 43.0045 56.0646C44.1249 55.7316 44.4161 55.0547 44.7658 55.1849C45.4312 55.4313 45.4781 58.3322 43.9505 60.4378C42.4984 62.4415 39.9887 63.2345 39.7161 62.8381C39.4925 62.5107 41.0009 61.6587 41.3131 59.8686C41.6202 58.0962 40.4964 56.8997 41.0593 56.3245L41.0616 56.3206Z" fill="#FFD024"/>
<path d="M30.6115 56.0556C30.6578 55.8598 30.8533 55.0411 31.4466 54.7463C32.164 54.3923 32.6566 55.2121 34.1263 55.1536C34.7873 55.1291 35.0841 54.9456 35.23 55.1363C35.4904 55.4638 34.7321 56.1662 34.3302 57.4361C33.7727 59.1962 34.2363 60.9543 34.3477 61.3836C34.5829 62.2749 34.9268 62.8818 34.7313 63.045C34.5251 63.2176 33.9004 62.731 33.7209 62.5885C32.839 61.8949 32.4333 61.1241 31.3172 58.6934C30.6497 57.2383 30.4418 56.7494 30.6076 56.0533L30.6115 56.0556Z" fill="#FFD024"/>
<path d="M35.9205 42.3659C35.9205 42.3659 34.5635 44.5575 33.5866 46.019C32.7375 47.2895 31.8114 48.9964 31.65 50.8613C31.6227 51.1503 31.6197 51.4428 31.6348 51.7403C31.745 53.9493 31.3919 54.2559 30.4899 54.3147C29.9346 54.3472 29.3468 53.7886 29.1451 52.6426C29.1283 52.5815 29.1223 52.511 29.1078 52.4461C28.4224 47.4303 35.9267 42.3643 35.9267 42.3643L35.9205 42.3659Z" fill="#FBFF24"/>
<path d="M36.0883 56.2654C36.4585 55.6331 37.0751 55.3255 37.713 55.0712C38.3469 54.8147 39.2436 56.1927 39.434 56.4601C39.532 56.598 40.0857 58.0767 40.0291 59.4123C39.975 60.672 38.9539 62.6401 38.1478 62.7686C37.3378 62.8947 35.5356 63.1889 35.3426 60.6183C35.1496 58.0478 35.7219 56.8999 36.0922 56.2676L36.0883 56.2654Z" fill="#FBFF24"/>
<path d="M31.646 50.8591C30.7676 51.6588 29.9416 52.2611 29.1389 52.6443C29.1221 52.5832 29.1161 52.5127 29.1015 52.4477C28.4161 47.4319 35.9205 42.3659 35.9205 42.3659C35.9205 42.3659 34.5635 44.5575 33.5866 46.019C32.7375 47.2895 31.8114 48.9964 31.65 50.8613L31.646 50.8591Z" fill="#FBFF24"/>
<path d="M38.813 40.0037C38.813 40.0037 38.9094 41.6527 38.921 43.7338C37.4838 45.0028 35.8389 46.3661 34.2454 48.1714C33.8405 48.6293 33.4453 49.0618 33.0682 49.4632C33.195 48.9773 33.4011 48.4279 33.7284 47.7971C35.1605 44.9926 38.813 40.0037 38.813 40.0037Z" fill="#FFD024"/>
<path d="M39.6536 39.8789C39.7082 39.9562 40.2254 40.7073 40.9004 41.8261C40.5874 42.181 40.2444 42.5244 39.8748 42.8681C39.8316 41.667 39.7553 40.5762 39.6536 39.8789Z" fill="#FFD024"/>
<path d="M39.7809 38.7282C39.7809 38.7282 25.3282 24.1446 12.429 27.963C-0.470313 31.7813 -0.80253 37.3945 0.513946 40.4079C1.83042 43.4213 6.69754 42.1314 7.15188 42.011C7.60623 41.8906 14.9575 47.7614 18.3514 49.2116C24.8546 51.9876 27.3735 49.3833 29.4742 48.4267C31.575 47.4702 39.7786 38.7321 39.7786 38.7321L39.7809 38.7282Z" fill="black"/>
<path d="M1.67405 35.6798C1.27286 36.4547 0.488653 37.9734 1.05263 39.4165C1.12508 39.6071 1.34253 40.1426 1.88875 40.5746C2.75097 41.2571 3.78534 41.1698 4.11166 41.1423C4.40518 41.1169 5.49113 40.9864 6.20492 40.2434C7.42386 38.97 5.96076 37.5718 6.88031 34.8703C7.19709 33.9343 7.93936 32.4333 9.1981 31.074C9.82407 30.4001 10.2886 30.0738 10.2036 29.9227C10.0201 29.6076 7.55321 30.435 5.4633 31.795C4.43533 32.464 2.7577 33.587 1.67405 35.6798Z" fill="#FFD024"/>
<path d="M38.2921 38.3168C38.2921 38.3168 26.4589 27.9873 21.685 29.3246C18.458 30.229 18.0774 34.0035 19.278 35.2484C20.4786 36.4934 23.2757 36.9515 25.8039 36.6747C28.332 36.398 35.5733 37.5364 38.2921 38.3168Z" fill="#FFD024"/>
<path d="M37.7515 39.2401C37.7515 39.2401 24.9226 36.7969 21.8669 38.3965C18.8112 39.9961 18.9955 43.2997 20.2845 44.2231C21.5736 45.1464 23.0324 46.4442 26.9016 44.9371C30.7707 43.4299 37.7515 39.2401 37.7515 39.2401Z" fill="#FFD024"/>
<path d="M22.136 47.2026C22.136 47.2026 22.3785 49.4191 23.5726 49.4632C24.7666 49.5072 26.2946 48.981 26.6433 48.61C26.992 48.239 26.9267 46.3753 25.8914 46.168C24.856 45.9606 22.853 46.095 22.136 47.2026Z" fill="#FBFF24"/>
<path d="M27.6413 45.7206C27.6413 45.7206 26.772 47.5731 27.9603 47.8874C29.1486 48.2017 30.4368 47.277 30.5836 46.694C30.7304 46.1111 30.622 44.9405 29.7927 44.8751C28.9634 44.8098 27.6374 45.7183 27.6374 45.7183L27.6413 45.7206Z" fill="#FBFF24"/>
<path d="M30.9175 43.9512C30.9175 43.9512 30.7187 44.928 31.366 45.4118C32.0133 45.8957 32.642 45.2802 33.0395 44.8438C33.437 44.4075 38.1428 39.8734 38.1428 39.8734C38.1428 39.8734 31.2474 43.1723 30.9135 43.9489L30.9175 43.9512Z" fill="#FBFF24"/>
<path d="M26.6364 45.3449C26.8243 45.3115 27.0545 45.2505 27.2158 45.424C27.377 45.5976 27.3136 46.083 27.0833 46.144C26.853 46.2051 26.5472 46.1977 26.4056 46.0713C26.264 45.945 26.4441 45.386 26.6342 45.3488L26.6364 45.3449Z" fill="#FBFF24"/>
<path d="M20.7602 45.2602C21.5226 45.3858 21.9024 45.6981 21.8232 45.9321C21.744 46.1661 21.4291 46.5871 20.8261 46.4585C20.2271 46.3321 19.4446 46.0972 19.6499 45.8363C19.8553 45.5754 19.8079 45.0997 20.7602 45.2602Z" fill="#FBFF24"/>
<path d="M21.4949 47.3366C20.9681 47.06 20.4869 46.8402 20.1465 47.0713C19.8061 47.3024 19.2254 48.4198 19.6441 48.7283C20.0668 49.039 20.3426 49.1068 20.7635 49.2411C21.8532 49.5978 22.0218 47.6132 21.4949 47.3366Z" fill="#FBFF24"/>
<path d="M12.2334 40.481C12.308 40.4972 12.3923 40.488 12.4614 40.4599C12.7817 40.3258 13.1021 40.1918 13.4022 40.0205C13.8161 39.7895 14.207 39.4991 14.5984 39.2348C15.1473 38.8632 15.4627 38.6748 15.6003 38.5925C15.6003 38.5925 15.6173 38.5814 15.6467 38.567C15.7906 38.483 16.0913 38.3017 16.0627 38.1979C16.0515 38.1451 15.9526 38.1255 15.9204 38.1176C14.6963 37.8915 13.6596 37.9827 13.6596 37.9827C12.9988 37.935 12.1315 37.8896 10.917 37.8805C9.66969 37.8735 11.0142 37.894 9.59669 37.8994C8.74911 37.9012 8.33357 37.8835 8.21426 38.1052C8.18473 38.1556 8.14031 38.2854 8.29221 38.5827C8.76589 39.5156 9.77948 39.8139 11.1892 40.217C11.4564 40.2903 11.8079 40.3906 12.2295 40.4787L12.2334 40.481Z" fill="#FBFF24"/>
<path d="M18.3689 38.2911C18.1693 38.2817 18.0003 38.2741 17.6972 38.2528C17.1138 38.2076 17.1274 38.1843 17.0262 38.2046C16.702 38.2642 16.5798 38.5359 16.1279 39.0292C15.8875 39.2961 15.6278 39.5779 15.2285 39.8378C14.806 40.1103 14.3988 40.1232 13.7667 40.5562C13.6069 40.6673 13.5763 40.7017 13.5824 40.7361C13.614 40.9964 15.3997 41.1884 17.0473 40.7452C17.2465 40.6924 19.5891 40.0323 19.6609 38.9581C19.6726 38.7944 19.6806 38.3138 19.425 38.3193C19.0716 38.3212 18.7188 38.3131 18.3705 38.2972L18.3689 38.2911Z" fill="#FBFF24"/>
<path d="M12.0482 34.2503C11.669 34.1706 11.3303 34.1653 10.9948 34.2444C10.622 34.3333 10.3705 34.5114 10.1287 34.664C9.34598 35.1565 8.60602 35.9622 8.21541 36.7998C8.10283 37.0459 8.3068 37.3261 8.58165 37.3057C8.82993 37.2858 9.07819 37.2658 9.32982 37.2581C9.93772 37.2347 10.5501 37.2395 11.1601 37.2482C12.356 37.2623 14.3064 37.3615 15.4992 37.4616C15.5094 37.4621 15.5235 37.465 15.5337 37.4655C15.8853 37.4936 16.0742 37.0634 15.8079 36.8358C15.0874 36.2074 13.4503 34.5407 12.0521 34.2525L12.0482 34.2503Z" fill="#FBFF24"/>
<path d="M20.4784 37.3913C20.4482 37.4878 20.3575 37.5708 20.2975 37.6195C20.1382 37.7567 19.9323 37.8211 19.1486 37.8125C18.8914 37.8119 18.447 37.7986 17.8931 37.7029C17.606 37.6544 17.4291 37.6063 17.2762 37.4633C17.0963 37.2947 17.0471 37.0914 17.0152 36.9753C16.9109 36.6327 16.6141 36.3672 16.0201 35.8463C15.3386 35.2503 15.1018 35.1786 14.1809 34.4527C13.5252 33.9383 13.1974 33.6811 13.2326 33.6029C13.356 33.3474 15.9217 34.2994 18.1154 35.4647C19.1984 36.0395 20.6199 36.8983 20.4767 37.3852L20.4784 37.3913Z" fill="#FBFF24"/>
<path d="M17.5012 33.5595C17.9777 33.1678 17.4711 32.4794 17.9637 31.1266C18.4614 29.7559 19.3283 29.4967 19.1927 29.028C18.9332 28.1333 15.3108 27.576 12.5621 29.163C9.94882 30.6716 8.77673 33.7415 9.25685 34.1517C9.65121 34.4929 10.8245 32.7138 13.0904 32.6245C15.3297 32.5358 16.7436 34.1797 17.5074 33.5579L17.5012 33.5595Z" fill="#FFD024"/>
<path d="M17.0829 46.9426C17.3334 46.9188 18.3713 46.8076 18.7785 46.1033C19.2743 45.2476 18.2823 44.4815 18.4601 42.6156C18.5403 41.7784 18.7916 41.4299 18.5638 41.2085C18.1741 40.8235 17.2401 41.6642 15.6216 41.9588C13.3798 42.3661 11.2109 41.4728 10.6867 41.2545C9.59042 40.8011 8.85508 40.2521 8.63964 40.4763C8.40721 40.7116 8.97601 41.5899 9.1365 41.8456C9.94071 43.094 10.8765 43.7406 13.8346 45.5849C15.6072 46.6881 16.2074 47.037 17.0869 46.9449L17.0829 46.9426Z" fill="#FFD024"/>
<path d="M42.8566 37.0674C42.8566 37.0674 51.3594 50.0491 62.4697 49.3036C68.2945 48.9101 69.3883 41.781 68.8916 39.8906C68.0742 36.7614 64.5816 34.3215 62.1685 32.7227C57.5512 29.6534 54.9944 31.1733 53.114 31.5471C51.2336 31.9209 42.8526 37.0652 42.8526 37.0652L42.8566 37.0674Z" fill="black"/>
<path d="M44.1965 37.7512C44.2534 37.8246 44.8068 38.5497 45.6694 39.5368C47.846 42.0601 51.9563 46.3452 54.6057 46.1936C57.1364 46.0472 58.1374 43.5568 57.4965 42.5502C56.8579 41.5397 54.9045 40.835 53.0017 40.6544C51.7609 40.5376 49.1745 39.7287 47.0065 38.9236C45.8597 38.4935 44.8374 38.0664 44.1965 37.7512Z" fill="#FFD024"/>
<path d="M44.5897 37.0079C44.5897 37.0079 46.1476 37.6338 48.1491 38.3192C51.0031 39.2996 54.7682 40.4123 56.2823 40.0536C58.861 39.439 59.335 37.157 58.545 36.3243C57.9315 35.684 57.2834 34.8694 55.5654 34.7414C55.0572 34.7024 54.46 34.7164 53.7456 34.814C50.5759 35.2346 44.5875 37.0117 44.5875 37.0117L44.5897 37.0079Z" fill="#FFD024"/>
<path d="M59.5856 44.3789C59.1236 44.593 59.3811 45.177 58.7098 46.0988C58.0278 47.03 57.2813 47.0836 57.2882 47.4488C57.3102 48.1475 60.0907 49.1278 62.6172 48.396C65.0193 47.6972 66.5982 45.6205 66.304 45.243C66.0611 44.9305 64.751 46.0544 62.9243 45.7618C61.1156 45.4743 60.3266 44.0383 59.5895 44.3811L59.5856 44.3789Z" fill="#FFD024"/>
<path d="M62.7155 34.59C62.5103 34.5723 61.6579 34.4836 61.1857 34.9397C60.6099 35.4921 61.2452 36.2119 60.708 37.5602C60.4678 38.1679 60.1959 38.3808 60.331 38.5809C60.5637 38.9289 61.4843 38.4523 62.8401 38.4895C64.7177 38.5424 66.2616 39.5424 66.6392 39.7864C67.4199 40.2939 67.8958 40.8101 68.1138 40.6802C68.3466 40.5432 68.0799 39.8044 67.9985 39.5933C67.6172 38.5474 67.0048 37.9232 65.0237 36.0985C63.8385 35.0068 63.4346 34.6551 62.7099 34.5817L62.7155 34.59Z" fill="#FFD024"/>
<path d="M47.8012 35.0884C47.8012 35.0884 50.3538 34.5364 52.0806 34.1017C53.5794 33.7242 55.5252 33.4182 57.373 33.8723C57.6589 33.9407 57.9437 34.0291 58.2249 34.1413C60.3189 34.9562 60.7282 34.733 61.0792 33.9092C61.2909 33.4042 60.9416 32.6807 59.9049 32.1165C59.8519 32.0815 59.7864 32.0497 59.7271 32.0162C55.1151 29.755 47.8017 35.0784 47.8017 35.0784L47.8012 35.0884Z" fill="#FBFF24"/>
<path d="M61.1462 39.7477C60.417 39.8885 59.9234 40.3634 59.4708 40.8668C59.0183 41.3701 60.0554 42.6519 60.2504 42.9115C60.3507 43.0455 61.5989 44.0387 62.9057 44.4198C64.1363 44.7786 66.3643 44.4667 66.7472 43.759C67.1301 43.0512 67.9976 41.4712 65.5847 40.4557C63.1696 39.4441 61.8777 39.603 61.1485 39.7438L61.1462 39.7477Z" fill="#FBFF24"/>
<path d="M57.373 33.8723C58.4289 33.3172 59.2758 32.7422 59.9067 32.1228C59.8536 32.0877 59.7881 32.0559 59.7288 32.0224C55.1168 29.7612 47.8035 35.0846 47.8035 35.0846C47.8035 35.0846 50.3561 34.5326 52.0829 34.0979C53.5817 33.7204 55.5275 33.4144 57.3753 33.8685L57.373 33.8723Z" fill="#FBFF24"/>
<path d="M44.5897 37.0079C44.5897 37.0079 46.1476 37.6338 48.1491 38.3192C49.8415 37.3955 51.6865 36.31 53.9409 35.4144C54.5159 35.1866 55.0582 34.9609 55.5676 34.7374C55.0594 34.6984 54.4623 34.7125 53.7479 34.8101C50.5782 35.2306 44.5897 37.0079 44.5897 37.0079Z" fill="#FFD024"/>
<path d="M44.1965 37.7512C44.2534 37.8246 44.8068 38.5497 45.6694 39.5368C46.1148 39.3598 46.5518 39.1522 47.0065 38.9236C45.8597 38.4935 44.8374 38.0664 44.1965 37.7512Z" fill="#FFD024"/>
<path d="M43.0437 37.493C43.0437 37.493 33.6681 19.3485 41.5269 8.60443C49.3874 -2.13352 54.9038 -0.626427 57.3792 1.57515C59.8546 3.77672 57.039 7.87537 56.7711 8.26096C56.5095 8.6449 59.7874 17.3682 60.0834 20.9928C60.6531 27.9302 57.3279 29.4242 55.7235 31.0685C54.1214 32.7089 43.0375 37.4946 43.0375 37.4946L43.0437 37.493Z" fill="black"/>
<path d="M52.4521 1.1178C53.3271 0.997324 55.0443 0.758495 56.2557 1.75155C56.4154 1.88292 56.8628 2.25919 57.1043 2.90632C57.485 3.92618 57.0643 4.86025 56.9306 5.15127C56.8106 5.41902 56.3309 6.38182 55.385 6.80291C53.7638 7.52423 52.8909 5.71066 49.9864 5.68737C48.9822 5.67822 47.2916 5.88048 45.576 6.61044C44.7275 6.97295 44.2567 7.30087 44.14 7.16794C43.8947 6.8954 45.4888 4.87373 47.4807 3.37583C48.4596 2.63793 50.0844 1.4438 52.4521 1.1178Z" fill="#FFD024"/>
<path d="M43.1273 35.9763C43.1273 35.9763 37.0039 21.6431 39.8402 17.6438C41.7606 14.9393 45.5195 15.811 46.3304 17.3264C47.1413 18.8418 46.6745 21.5871 45.5933 23.8465C44.5081 26.1036 43.2612 33.1979 43.1273 35.9763Z" fill="#FFD024"/>
<path d="M44.1931 35.7727C44.1931 35.7727 45.9967 23.0679 48.5273 20.7489C51.0579 18.4299 54.1843 19.6724 54.6594 21.1687C55.1345 22.6649 55.9096 24.4388 53.204 27.5416C50.4984 30.6443 44.1931 35.7727 44.1931 35.7727Z" fill="#FFD024"/>
<path d="M56.9266 23.8514C56.9266 23.8514 58.9863 24.7966 58.6402 25.9174C58.2941 27.0381 57.2929 28.2898 56.8236 28.4896C56.3544 28.6893 54.5762 28.0267 54.7145 27.0004C54.8529 25.974 55.6242 24.154 56.9266 23.8514Z" fill="#FBFF24"/>
<path d="M53.7178 28.4867C53.7178 28.4867 55.7844 28.2798 55.7027 29.4878C55.621 30.6957 54.308 31.591 53.7026 31.5384C53.0971 31.4859 52.0003 31.0064 52.2064 30.2145C52.4126 29.4225 53.7138 28.4845 53.7138 28.4845L53.7178 28.4867Z" fill="#FBFF24"/>
<path d="M50.9516 30.9567C50.9516 30.9567 51.9566 31.0901 52.212 31.8483C52.4673 32.6064 51.6707 32.9879 51.12 33.2191C50.5692 33.4502 44.6757 36.3492 44.6757 36.3492C44.6757 36.3492 50.0864 31.0156 50.9477 30.9544L50.9516 30.9567Z" fill="#FBFF24"/>
<path d="M53.6781 27.4322C53.5827 27.5952 53.4487 27.7879 53.5629 27.9969C53.6772 28.2058 54.1638 28.2997 54.2977 28.1069C54.4317 27.9141 54.5223 27.6247 54.4447 27.4519C54.3672 27.2791 53.7695 27.2671 53.6741 27.43L53.6781 27.4322Z" fill="#FBFF24"/>
<path d="M55.5039 21.9441C55.3798 22.6947 55.5573 23.1458 55.8084 23.148C56.0594 23.1503 56.567 22.9929 56.6392 22.3937C56.7114 21.7945 56.7383 20.9943 56.4197 21.0984C56.1011 21.2025 55.6635 21.0072 55.5039 21.9441Z" fill="#FBFF24"/>
<path d="M57.2656 23.2993C57.1693 22.7185 57.1141 22.2023 57.4449 21.9606C57.7757 21.7189 59.0422 21.5406 59.2009 22.0327C59.3597 22.5248 59.3392 22.8022 59.3358 23.2389C59.3261 24.3688 57.358 23.8778 57.2656 23.2993Z" fill="#FBFF24"/>
<path d="M53.6583 12.4808C53.6496 12.5585 53.6127 12.6305 53.5645 12.6859C53.3269 12.9389 53.0956 13.1903 52.8349 13.42C52.4756 13.7282 52.0757 13.998 51.6916 14.2768C51.158 14.6673 50.8707 14.8974 50.7461 15.0026C50.7461 15.0026 50.733 15.0158 50.7053 15.0363C50.5744 15.1431 50.3041 15.3622 50.2155 15.307C50.1681 15.2802 50.1819 15.1848 50.1859 15.151C50.3638 13.9405 50.7885 13.0087 50.7885 13.0087C50.9564 12.3809 51.1971 11.5568 51.5783 10.43C51.9737 9.27003 51.5605 10.5232 52.0202 9.20855C52.2953 8.42451 52.4105 8.03022 52.6662 7.98867C52.7278 7.98217 52.867 7.97807 53.1022 8.21396C53.8483 8.96002 53.8094 9.99604 53.7407 11.4332C53.7287 11.7051 53.7074 12.0647 53.6583 12.4808Z" fill="#FBFF24"/>
<path d="M49.5608 17.4665C49.6167 17.2813 49.6652 17.1177 49.7394 16.8293C49.8867 16.2725 49.8556 16.2807 49.9079 16.1915C50.0737 15.9083 50.3712 15.8852 50.991 15.6259C51.3261 15.4847 51.6838 15.3407 52.0583 15.0514C52.4583 14.7455 52.5989 14.3707 53.2214 13.9271C53.3835 13.8121 53.423 13.7983 53.4569 13.8123C53.6992 13.9283 53.3075 15.6477 52.3393 17.0316C52.2213 17.1973 50.8287 19.1623 49.7692 18.8794C49.6065 18.834 49.1455 18.6875 49.2309 18.4518C49.3482 18.1258 49.4537 17.7931 49.5506 17.4659L49.5608 17.4665Z" fill="#FBFF24"/>
<path d="M47.62 10.5453C47.6668 10.1691 47.7671 9.85418 47.9579 9.5644C48.1645 9.24747 48.416 9.06942 48.6449 8.89406C49.3707 8.32813 50.3884 7.9011 51.3249 7.81019C51.5981 7.78367 51.8021 8.06388 51.6934 8.31224C51.5945 8.53509 51.4933 8.76184 51.4062 8.99138C51.1893 9.55024 50.9922 10.1202 50.8013 10.6886C50.427 11.8037 49.889 13.6471 49.6011 14.7851C49.5943 14.7968 49.5937 14.8068 49.5908 14.8206C49.5035 15.1584 49.0318 15.1916 48.8935 14.8711C48.5226 13.9961 47.4457 11.9384 47.62 10.5453Z" fill="#FBFF24"/>
<path d="M46.9227 16.324C46.506 13.9111 46.4264 11.2188 46.708 11.1867C46.7923 11.1775 46.9389 11.5646 47.2196 12.3423C47.6165 13.4332 47.6103 13.6774 47.9677 14.5035C48.2786 15.2208 48.4388 15.5847 48.7329 15.7918C48.8288 15.8614 49.0123 15.9701 49.1174 16.1946C49.2023 16.3818 49.1917 16.5616 49.1463 16.8456C49.0567 17.3937 48.9301 17.8074 48.8463 18.0492C48.603 18.7789 48.4725 18.9478 48.2908 19.0517C48.2273 19.0882 48.1175 19.15 48.0118 19.142C47.4945 19.1185 47.1277 17.5182 46.9266 16.3262L46.9227 16.324Z" fill="#FBFF24"/>
<path d="M45.2821 15.1299C44.7509 15.4443 44.2506 14.7544 42.7856 14.7691C41.3041 14.7848 40.7713 15.5061 40.3649 15.2303C39.5877 14.699 40.2222 11.1554 42.6463 9.11696C44.9481 7.17974 48.2843 7.08532 48.5299 7.66254C48.7305 8.13698 46.6354 8.65291 45.8165 10.7248C45.0049 12.775 46.131 14.6231 45.2844 15.126L45.2821 15.1299Z" fill="#FFD024"/>
<path d="M58.3181 19.0781C58.2129 19.3026 57.77 20.2295 56.9605 20.3817C55.9756 20.5641 55.5608 19.396 53.7 18.9551C52.8642 18.7572 52.4528 18.876 52.3082 18.5932C52.0635 18.1042 53.1767 17.5143 53.9872 16.1033C55.1095 14.151 54.9475 11.8508 54.9071 11.2913C54.827 10.1262 54.5368 9.26587 54.8221 9.13783C55.1244 8.99873 55.789 9.8123 55.9795 10.0436C56.9203 11.1936 57.2443 12.2744 58.0612 15.6201C58.5491 17.6241 58.6933 18.2938 58.3181 19.0781Z" fill="#FFD024"/>
<path d="M42.9836 37.2994C44.555 38.8 47.522 42.6671 49.0598 46.2543C50.6162 49.8727 52.6545 53.1798 53.278 55.2036C53.6071 56.3027 53.933 56.9045 53.6022 57.1101C53.2738 57.3119 52.9127 56.7882 52.0693 56.0286C51.6851 55.688 51.2916 55.2647 50.8631 54.7753C49.5078 53.2108 47.8615 50.9403 45.6393 48.3603C43.0827 45.3905 40.418 41.3481 39.7143 39.2997C39.6755 39.1952 39.6549 39.0959 39.6438 39.007C39.4927 37.9361 40.7559 37.7095 41.0991 37.5006C41.4661 37.269 41.9774 36.324 42.9882 37.2916L42.9836 37.2994Z" fill="black"/>
<path d="M41.5941 37.8314C41.716 37.9465 41.8451 38.0762 41.9776 38.218C43.3902 39.7116 45.6209 42.735 46.8423 45.5606C48.1749 48.6811 49.9441 51.5319 50.4694 53.2836C50.7005 54.0383 50.9248 54.5261 50.8608 54.779C49.5056 53.2146 47.8593 50.944 45.637 48.3641C43.0804 45.3942 40.4158 41.3519 39.712 39.3034C39.6732 39.199 39.6526 39.0996 39.6415 39.0108C39.4905 37.9399 40.7536 37.7133 41.0968 37.5043C41.2431 37.5508 41.4108 37.6505 41.5941 37.8314Z" fill="#131C47"/>
<path d="M41.931 33.0723C42.5719 34.0789 43.2563 35.523 43.2284 36.4774C43.2197 36.7976 43.1302 37.0671 42.9899 37.2976C42.7588 37.6833 42.381 37.9604 41.9817 38.2203C41.8758 38.2844 41.7653 38.3563 41.6572 38.4243C40.9748 38.8443 40.4472 39.2692 39.6456 39.0131C39.5693 38.9907 39.4992 38.9667 39.4275 38.9365C39.2603 38.8628 39.0825 38.7625 38.894 38.6355C38.2753 38.2194 37.5832 37.5606 37.0545 36.9011C36.8945 36.7076 36.7547 36.5152 36.6331 36.3279C35.3593 34.3191 35.4405 31.9807 36.8152 31.0429C36.835 31.018 36.8752 30.9942 36.9069 30.9759C38.3692 30.0772 40.6234 31.0135 41.9293 33.0662L41.931 33.0723Z" fill="black"/>
<path d="M25.3268 27.3072C27.0193 26.59 29.0166 26.0344 30.8312 26.6349C32.4619 27.5136 34.0354 28.4631 35.527 29.5523C35.9022 29.8724 36.4729 30.1995 36.6607 30.6151C36.3457 30.2103 35.8907 29.9278 35.4759 29.6216C33.7777 28.6068 32.0328 27.0702 29.9743 27.0029C28.4335 26.9853 26.8552 27.2921 25.333 27.3056L25.3268 27.3072Z" fill="black"/>
<path d="M36.3485 19.8802C35.5277 21.5692 34.9941 23.2705 35.3364 25.146C35.7371 26.9667 35.9652 28.8758 36.68 30.6002C36.1814 29.8802 36.0491 28.8044 35.7799 27.9352L35.1378 25.1888C34.9292 24.297 34.5507 23.3093 34.7788 22.3182C34.9854 21.3819 35.5151 20.3338 36.3463 19.8841L36.3485 19.8802Z" fill="black"/>
<path d="M39.8388 33.3319C40.5938 35.0325 40.2703 36.8059 39.1241 37.2997C38.489 37.5762 37.7295 37.4006 37.0545 36.9011C36.8945 36.7076 36.7547 36.5152 36.6331 36.3279C35.3593 34.3191 35.4405 31.9807 36.8152 31.0429C37.8994 30.9063 39.1754 31.8429 39.8411 33.328L39.8388 33.3319Z" fill="#131C47"/>
<path d="M37.6182 29.86C37.9454 30.3697 37.7871 31.0442 37.2661 31.3592C36.7468 31.6804 36.0596 31.525 35.7387 31.0136C35.4115 30.5039 35.723 30.0706 36.2423 29.7495C36.7616 29.4284 37.2933 29.3464 37.6205 29.8561L37.6182 29.86Z" fill="black"/>
</svg>
