<svg width="40" height="40" viewBox="0 0 40 40" fill="none" xmlns="http://www.w3.org/2000/svg">
<path d="M5.77721 4.74267C11.4747 -1.56357 24.4536 0.23827 24.4536 0.23827C26.6732 0.23828 35.5368 1.13915 38.0654 10.1479C40.594 19.1567 40.3468 23.6279 39.015 29.0663C37.6833 34.5047 34.9297 36.6261 33.6337 37.4744C30.9702 39.2177 17.1729 40.7776 12.7412 39.5764C8.30955 38.3753 3.2446 36.0734 1.0287 27.2645C-1.18721 18.4555 0.0797013 11.0489 5.77721 4.74267Z" fill="#539E1B"/>
<path d="M18.6874 10.7012C19.5247 10.579 20.1772 11.1211 20.2494 11.959V28.0788C20.1368 29.1995 18.8787 29.6923 18.0286 28.9638L13.1277 24.0248L9.46381 23.9755C8.89637 23.8469 8.43519 23.4376 8.38206 22.8312C8.22054 21.0121 8.50745 18.955 8.38206 17.1101C8.46707 16.5016 9.0005 16.0537 9.59557 15.9937C10.7156 15.8802 11.9907 16.0987 13.1277 15.9659L18.0286 11.0247C18.2198 10.8662 18.4387 10.7376 18.6874 10.7012Z" fill="white"/>
<path d="M27.3393 10.1976C28.0788 10.2062 28.574 10.8662 29.014 11.3911C32.8713 16.0045 33.1816 22.7155 29.728 27.6546C29.3327 28.2203 28.3509 29.5509 27.7176 29.7352C26.7272 30.0202 25.875 29.2145 26.0365 28.1967C26.1215 27.6589 27.0311 26.8618 27.386 26.3861C30.2721 22.5227 30.168 17.0715 27.1565 13.3153C26.8207 12.8975 26.1194 12.3189 26.0365 11.794C25.9026 10.9497 26.4764 10.1869 27.3393 10.1976Z" fill="white"/>
<path d="M23.3289 13.9774C24.0409 13.8531 24.4574 14.2303 24.8888 14.721C26.9248 17.0351 27.4009 20.4099 26.1725 23.2405C25.8537 23.9733 24.7868 25.7304 24.026 25.9639C22.9612 26.2875 22.0028 25.3447 22.3492 24.2733C22.4831 23.8619 22.9655 23.4591 23.2312 23.082C24.5382 21.2178 24.5403 18.7793 23.2312 16.913C22.7487 16.2252 22.0325 15.8416 22.3492 14.8602C22.4809 14.451 22.9017 14.0524 23.3289 13.9774Z" fill="white"/>
</svg>
