<svg width="40" height="40" viewBox="0 0 40 40" fill="none" xmlns="http://www.w3.org/2000/svg">
<path d="M5.77721 4.74267C11.4747 -1.56357 24.4536 0.23827 24.4536 0.23827C26.6732 0.23828 35.5368 1.13914 38.0654 10.1479C40.594 19.1567 40.3468 23.6279 39.0151 29.0663C37.6833 34.5047 34.9297 36.6261 33.6337 37.4744C30.9702 39.2177 17.1729 40.7776 12.7412 39.5764C8.30955 38.3753 3.2446 36.0734 1.0287 27.2645C-1.18721 18.4555 0.0797013 11.0489 5.77721 4.74267Z" fill="white"/>
<path d="M18.6874 10.7011C19.5247 10.579 20.1771 11.1211 20.2494 11.9589V28.0788C20.1368 29.1994 18.8786 29.6923 18.0285 28.9637L13.1277 24.0247L9.46378 23.9754C8.89634 23.8469 8.43516 23.4376 8.38203 22.8312C8.22051 21.012 8.50742 18.955 8.38203 17.1101C8.46704 16.5015 9.00047 16.0537 9.59554 15.9937C10.7155 15.8801 11.9907 16.0987 13.1277 15.9659L18.0285 11.0247C18.2198 10.8661 18.4387 10.7376 18.6874 10.7011Z" fill="#539E1B"/>
<path d="M27.3392 10.1976C28.0788 10.2062 28.574 10.8661 29.0139 11.3911C32.8712 16.0044 33.1815 22.7155 29.728 27.6545C29.3327 28.2202 28.3508 29.5509 27.7175 29.7351C26.7272 30.0201 25.8749 29.2144 26.0365 28.1966C26.1215 27.6588 27.0311 26.8617 27.386 26.386C30.2721 22.5227 30.1679 17.0715 27.1565 13.3153C26.8207 12.8974 26.1193 12.3189 26.0365 11.7939C25.9026 10.9497 26.4764 10.1869 27.3392 10.1976Z" fill="#539E1B"/>
<path d="M23.3289 13.9774C24.0408 13.8531 24.4574 14.2302 24.8888 14.7209C26.9248 17.0351 27.4009 20.4099 26.1725 23.2405C25.8537 23.9733 24.7868 25.7303 24.026 25.9639C22.9612 26.2875 22.0027 25.3447 22.3491 24.2733C22.483 23.8619 22.9655 23.459 23.2311 23.0819C24.5382 21.2177 24.5403 18.7793 23.2311 16.9129C22.7487 16.2251 22.0325 15.8416 22.3491 14.8602C22.4809 14.4509 22.9017 14.0524 23.3289 13.9774Z" fill="#539E1B"/>
</svg>
