<svg width="99" height="98" viewBox="0 0 99 98" fill="none" xmlns="http://www.w3.org/2000/svg">
<path d="M11.4435 70.1444C19.4756 61.3103 31.4283 53.3673 43.2665 51.127V51.2033C30.9065 53.8255 20.9013 62.4687 11.4435 70.1444Z" fill="#4B3DF9"/>
<path d="M26.9349 72.3573C29.6463 63.7269 36.0618 56.0257 44.3103 52.2324L44.3485 52.3088C36.0363 56.3058 31.1356 64.6816 26.9349 72.3573Z" fill="#3FD9FF"/>
<path d="M8.56665 49.331C14.1166 47.7399 19.8829 47.0525 25.6365 46.8997C31.3901 46.7215 37.1947 47.0525 42.7955 48.4272V48.5036C31.492 46.085 19.7429 48.1345 8.56665 49.331Z" fill="#4B3DF9"/>
<path d="M6.67004 37.5192C18.19 35.7371 30.2318 39.8614 40.1351 45.5386C41.5736 46.3788 42.9483 47.3208 44.3612 48.1991L44.3231 48.2627C42.8847 47.4226 41.4844 46.5315 40.0333 45.7423C36.8383 44.0111 33.2741 42.42 29.8372 41.1853C22.4288 38.614 14.3712 37.481 6.68277 37.5192H6.67004Z" fill="#3FD9FF"/>
<path d="M10.3615 24.3173C19.4119 22.688 28.246 30.3001 34.2415 36.2446L36.9019 39.1341L36.8382 39.1851L34.0632 36.4101C28.2205 30.8983 21.334 25.9085 13.2764 24.5083C12.3472 24.4064 11.3034 24.2791 10.3742 24.3937V24.3173H10.3615Z" fill="#3FD9FF"/>
<path d="M8.07019 17.7246C15.835 17.9028 23.7526 21.5052 28.5006 27.7425L28.4369 27.7934C28.0551 27.4879 27.6859 27.1697 27.3168 26.8642C24.7836 24.662 22.0341 22.689 19.0937 21.0469C15.7332 19.1885 11.7362 18.1574 8.07019 17.7246Z" fill="#3FD9FF"/>
<path d="M28.0042 19.5312C32.9176 22.9554 36.2145 28.2126 39.1168 33.3424L39.0531 33.3806C37.462 30.8857 35.7181 28.4926 33.8087 26.2396C31.9247 23.9992 29.6335 21.8225 28.0042 19.5312Z" fill="#4B3DF9"/>
<path d="M55.1047 2.48633C52.8261 6.30509 51.7569 10.6712 50.8022 14.9737C49.9621 19.1998 49.6311 23.9351 49.5038 28.263H49.4274C49.2747 20.9437 49.7457 7.78168 55.0919 2.48633H55.1047Z" fill="#3FD9FF"/>
<path d="M70.3033 12.9883C64.2824 18.3727 58.6307 24.3427 55.1174 31.7002L55.041 31.662C56.6449 27.9196 58.7325 24.3682 61.2656 21.1732C63.7351 18.029 66.7901 14.7195 70.3033 12.9883Z" fill="#4B3DF9"/>
<path d="M37.5001 0.628906C39.0658 2.09277 40.046 4.04035 40.7206 6.05156C41.3698 7.9864 42.159 10.2522 42.2227 12.1743C41.268 8.15188 39.1422 4.40949 37.4238 0.692556L37.4874 0.641648L37.5001 0.628906Z" fill="#3FD9FF"/>
<path d="M86.2912 18.998C75.9042 23.1605 65.0971 28.0994 58.3124 37.3663L58.2488 37.3281C64.1806 28.545 76.0824 21.0729 86.2912 18.998Z" fill="#3FD9FF"/>
<path d="M81.6833 30.7987C73.091 32.0461 65.1098 36.1068 58.2997 41.3894L58.2488 41.3257C61.5456 38.538 65.1989 35.9158 69.0686 33.981C72.8746 32.0843 77.4826 30.2641 81.6833 30.786V30.7987Z" fill="#4B3DF9"/>
<path d="M88.9771 38.3963C86.6731 38.7527 84.3946 38.8545 82.0779 38.9309C79.7739 39.0836 77.4826 39.3382 75.1913 39.6946V39.6183C77.4317 39.0455 79.7102 38.5999 82.0142 38.3072C84.2545 38.0144 86.8895 37.6962 88.9771 38.3963Z" fill="#3FD9FF"/>
<path d="M87.2714 47.1529C76.2606 46.351 64.9698 45.2563 54.1882 48.2731L54.1627 48.1967C59.4835 46.4783 65.0717 45.7909 70.647 45.6254C76.1461 45.4981 82.0779 45.6763 87.2714 47.1529Z" fill="#4B3DF9"/>
<path d="M93.165 58.7998C84.7128 54.9429 75.3441 53.1862 66.1791 51.9006V51.8242C70.7361 52.2316 75.6496 52.8298 80.0921 53.7718C82.3961 54.23 84.6874 54.7647 86.915 55.5539C89.1171 56.3813 91.332 57.2596 93.2159 58.7235L93.165 58.7871V58.7998Z" fill="#3FD9FF"/>
<path d="M51.4896 51.127C62.7549 53.711 79.7357 58.6881 86.3167 68.7442L86.253 68.7951C81.9506 63.7543 76.0569 60.5211 70.1633 57.6698C64.2188 54.8693 57.6505 52.8963 51.4896 51.127Z" fill="#4B3DF9"/>
<path d="M58.2997 58.7383C66.8538 65.3829 79.2138 75.8081 81.7215 86.6662L81.6451 86.6916C79.4684 80.9253 75.6115 76.0755 71.64 71.442C67.643 66.8341 62.7932 62.6589 58.2997 58.7383Z" fill="#3FD9FF"/>
<path d="M52.1133 56.2422C58.5033 64.2871 63.315 73.643 66.2172 83.4954C67.2101 87.0342 67.8975 90.9038 68.1012 94.5699L68.2157 97.3703H68.1394L67.7448 94.608C67.4138 91.9604 66.7901 89.0072 66.1409 86.4104C66.0009 85.723 65.6444 84.3865 65.428 83.7246C62.8185 73.8467 57.956 64.4271 52.1133 56.2549V56.2422Z" fill="#4B3DF9"/>
<path d="M49.0201 53.6465C51.2477 59.9093 53.0171 66.3502 54.3536 72.8803C55.6902 79.3977 56.4921 86.1442 55.6265 92.7761H55.5502C55.5884 79.4995 52.737 66.1848 49.0201 53.6592V53.6465Z" fill="#3FD9FF"/>
<path d="M47.0089 52.9844C41.9045 65.9554 41.1153 80.1994 41.879 93.9852L42.0063 96.7729H41.93C40.6698 89.4663 40.5297 81.8797 41.459 74.5222C42.4137 67.2411 43.903 59.5272 47.0089 52.9971V52.9844Z" fill="#4B3DF9"/>
<path d="M43.3047 57.5938C38.5694 64.7476 37.4111 73.4416 36.4182 81.7793H36.3418C36.0363 77.5022 36.5837 73.187 37.8184 69.0882C39.0659 65.104 40.6825 60.7124 43.3047 57.5938Z" fill="#3FD9FF"/>
<path d="M18.89 67.8008C13.8365 71.7596 10.1069 77.0167 7.00094 82.5794L6.92456 82.5539C7.73923 79.4098 9.52132 76.5712 11.6853 74.1909C13.7983 71.8487 16.2678 69.3156 18.89 67.8008Z" fill="#3FD9FF"/>
<path d="M25.6747 54.5993C22.0978 55.2485 18.8137 56.776 15.7969 58.7872L15.7332 58.7363C16.6879 57.0687 18.4827 56.1141 20.2521 55.5922C21.7159 55.1466 24.3254 54.4338 25.6747 54.612V54.5993Z" fill="#3FD9FF"/>
<path d="M0.534536 57.5921C12.4491 50.0819 28.0551 49.2927 41.7772 49.5473C31.2374 49.4836 20.4558 50.2346 10.4124 53.6333C7.11554 54.8171 3.81867 56.2301 1.00552 58.2158C0.598182 58.5595 0.0762845 57.9103 0.534536 57.5921Z" fill="#D500D9"/>
<path d="M13.2255 33.4326C22.9125 33.9545 31.8865 38.4861 39.8296 43.756C33.8087 39.9373 27.2277 36.7295 20.2648 35.1129C17.9608 34.591 15.5677 34.1964 13.251 34.2091C12.7164 34.2473 12.6782 33.4199 13.2255 33.4199V33.4326Z" fill="#D500D9"/>
<path d="M14.7658 14.5158C23.218 18.1945 30.0536 24.9155 34.9798 32.5913C35.6799 33.686 36.3036 34.8316 36.9656 35.9518C36.2782 34.8443 35.629 33.7114 34.8907 32.6422C31.2756 27.2705 26.6804 22.4843 21.2959 18.8819C19.1574 17.4562 16.8661 16.1579 14.4985 15.2541C14.0021 15.1013 14.2566 14.3121 14.7658 14.5158Z" fill="#D500D9"/>
<path d="M30.6391 15.9416C38.9003 24.4957 44.8831 35.3919 47.047 47.1155C45.2777 38.396 41.2807 30.2238 35.9344 23.1591C34.1523 20.8042 32.2175 18.5511 30.1172 16.5145C29.7226 16.1708 30.2699 15.5598 30.6518 15.9416H30.6391Z" fill="#D500D9"/>
<path d="M36.2909 14.1977C42.0827 22.879 45.9906 32.8969 47.0471 43.2967C46.0924 35.5446 43.4575 28.0853 39.7533 21.237C38.5185 18.9584 37.1692 16.7308 35.6672 14.656C35.3489 14.2486 35.9854 13.7522 36.3036 14.185L36.2909 14.1977Z" fill="#D500D9"/>
<path d="M43.3174 2.18172C44.7431 4.2184 45.1377 6.62422 45.6723 8.97912C46.9453 15.9293 47.0598 22.994 47.0344 30.0333C46.9325 25.3489 46.7289 20.6645 46.207 16.0057C45.5451 11.5377 45.1632 6.63696 42.7574 2.72909C42.3373 2.35994 42.9483 1.7362 43.3174 2.18172Z" fill="#D500D9"/>
<path d="M57.8287 11.1308C53.8063 16.8717 51.5659 23.8091 50.9167 30.772C51.1968 25.4639 52.4315 20.2067 54.6337 15.3696C55.372 13.753 56.1866 12.1746 57.205 10.6725C57.3323 10.4943 57.5741 10.4434 57.7523 10.5707C57.9433 10.698 57.9815 10.9653 57.8414 11.1435L57.8287 11.1308Z" fill="#D500D9"/>
<path d="M64.3588 13.2686C56.9122 19.9005 52.6988 29.5747 50.3312 39.0962C50.013 40.4837 49.7457 41.8966 49.4529 43.2968C49.7202 41.8966 49.9493 40.4837 50.2421 39.0834C52.4442 29.3456 56.4412 19.5823 63.8878 12.6576C64.2951 12.3139 64.817 12.9504 64.3715 13.2686H64.3588Z" fill="#D500D9"/>
<path d="M68.8777 21.1353C60.8965 27.2835 54.2646 35.4684 50.484 44.8498C50.2549 45.5118 49.682 47.1538 49.4402 47.8285C49.6566 47.1284 50.1912 45.4863 50.4076 44.8244C52.9789 37.8997 57.1541 31.6369 62.1949 26.2525C64.1297 24.203 66.1664 22.2682 68.4067 20.4988C68.8141 20.1806 69.3105 20.8171 68.865 21.1353H68.8777Z" fill="#D500D9"/>
<path d="M14.1166 76.8772C21.3086 67.3939 29.7863 58.3944 40.5043 52.959C32.5485 57.1214 26.0057 63.4861 20.2139 70.2707C18.2918 72.5493 16.4461 74.8914 14.7531 77.3227C14.4731 77.7555 13.7984 77.31 14.1039 76.8772H14.1166Z" fill="#D500D9"/>
<path d="M25.1147 92.1008C27.5205 81.5101 31.3902 70.9958 38.0348 62.3145C33.185 68.8827 30.0409 76.5457 27.7751 84.3487C27.0241 86.9582 26.3749 89.6059 25.8784 92.2536C25.7893 92.75 25.0001 92.61 25.1147 92.1008Z" fill="#D500D9"/>
<path d="M47.9127 52.959C48.1291 53.5191 52.1388 73.1348 49.7202 69.6724C49.8093 64.0716 48.8164 58.4835 47.9127 52.959Z" fill="#D500D9"/>
<path d="M47.0471 56.2686C46.3597 60.9402 45.8505 65.6373 45.5832 70.3471C45.3796 75.006 45.2141 79.8176 46.2833 84.3492C46.4106 84.8457 45.6596 85.0493 45.5196 84.5402C44.5394 79.8304 44.8449 75.0569 45.1759 70.3089C45.5705 65.5991 46.207 60.9148 47.0216 56.2559L47.0471 56.2686Z" fill="#D500D9"/>
<path d="M55.7284 68.7676C57.8796 75.6795 59.7126 82.7188 60.5273 89.9363C60.5782 90.4454 59.8017 90.5345 59.7508 90.0254C59.2035 82.8334 57.625 75.7305 55.7284 68.7676Z" fill="#D500D9"/>
<path d="M53.6408 56.2676C59.5726 62.4667 65.6445 68.9586 69.0177 76.978C69.1959 77.449 68.4703 77.7418 68.2794 77.258C65.1862 69.2514 59.318 62.594 53.6408 56.2803V56.2676Z" fill="#D500D9"/>
<path d="M51.7823 52.627C60.0054 55.682 69.1322 59.6917 74.3257 67.0873C74.6058 67.5329 73.9311 67.9529 73.6511 67.4947C68.7631 60.1117 59.7762 55.8602 51.7823 52.627Z" fill="#D500D9"/>
<path d="M66.9811 53.963C69.9852 54.4594 72.9765 55.1213 75.9043 56.0124C78.8447 56.9543 81.8106 57.9981 84.191 60.073C84.3565 60.213 84.3565 60.4676 84.2164 60.6203C84.0764 60.7858 83.8218 60.7858 83.6691 60.6458C81.5178 58.5837 78.5774 57.3999 75.7897 56.3688C72.9256 55.3504 69.9724 54.5612 66.9938 53.9375L66.9811 53.963Z" fill="#D500D9"/>
<path d="M54.1754 49.3681C65.0971 47.8278 76.4898 47.2423 87.1823 50.4628C90.7719 51.5575 94.3107 52.7286 97.3784 55.0326C97.7985 55.3763 97.2511 56 96.8438 55.6054C94.0306 53.416 90.4155 52.1176 87.0041 51.0229C76.4261 47.6369 65.0717 48.0315 54.1627 49.3681H54.1754Z" fill="#D500D9"/>
<path d="M50.9804 48.7563C56.9504 43.2064 64.0406 38.6366 71.9327 36.3708C78.1827 35.0342 84.4837 33.7868 90.9247 33.9268C91.4593 33.9777 91.3575 34.8051 90.8101 34.7033C87.2969 34.4614 83.5927 34.9706 80.0667 35.4161C76.4898 35.9635 72.8619 36.3581 69.4505 37.5673C62.6022 39.9222 56.3521 43.9192 50.9804 48.7563Z" fill="#D500D9"/>
<path d="M77.0498 42.2929C79.5193 41.7201 82.1288 41.9492 84.611 42.4075C85.1074 42.5093 84.9674 43.2731 84.4582 43.184C82.0651 42.4839 79.5447 41.9874 77.0498 42.2929Z" fill="#D500D9"/>
<path d="M59.5726 38.3452C62.5131 34.6919 65.9627 30.8986 70.6598 29.6511C70.8762 29.6002 71.0798 29.7402 71.1308 29.9439C71.1817 30.1476 71.0417 30.364 70.838 30.4149C66.2427 31.3823 62.6404 34.9592 59.5854 38.3452H59.5726Z" fill="#D500D9"/>
<path d="M17.9863 43.1063C24.7455 43.0299 31.3647 44.5447 37.8184 46.4031C31.3774 44.8247 24.6946 43.5645 18.0499 43.8955C17.528 43.9591 17.4389 43.1445 17.9863 43.119V43.1063Z" fill="#D500D9"/>
<path d="M25.4074 8.15108L26.4385 8.17654L26.273 7.1582L26.8967 7.97287L27.5841 7.22185L27.3423 8.21473L28.3606 8.27838L27.4314 8.71117L28.0169 9.5513L27.1004 9.08031L26.8076 10.0732L26.5912 9.06759L25.6493 9.44947L26.2985 8.66024L25.4074 8.15108Z" fill="#FD82FF"/>
<path d="M82.0396 25.4761L85.2092 26.3163L82.9434 23.9486L85.2729 26.2526L84.4837 23.0703L85.3492 26.2272L86.2657 23.083L85.4383 26.2526L87.806 23.9868L85.4893 26.3163L88.6843 25.527L85.5147 26.3926L88.6716 27.3091L85.4893 26.4817L87.7678 28.8494L85.4383 26.5327L86.2148 29.7277L85.3492 26.5581L84.4327 29.715L85.2729 26.5327L82.9052 28.8112L85.2092 26.469L82.0269 27.2582L85.1965 26.3926L82.0396 25.4761Z" fill="#9982FF"/>
<path d="M4.7479 64.3121L7.9302 65.1522L5.65167 62.7846L7.99385 65.0886L7.20464 61.9062L8.07022 65.0758L8.98673 61.919L8.1466 65.0886L10.527 62.8228L8.21024 65.1522L11.4053 64.363L8.2357 65.2286L11.3798 66.1451L8.21024 65.3177L10.4888 67.6853L8.1466 65.3686L8.93581 68.5636L8.07022 65.3941L7.15372 68.5509L7.99385 65.3686L5.61348 67.6471L7.9302 65.3049L4.73517 66.0942L7.90474 65.2286L4.7479 64.3121Z" fill="#9982FF"/>
<path d="M82.0396 78.648L85.2092 79.4881L82.9434 77.1205L85.2729 79.4245L84.4837 76.2422L85.3492 79.4117L86.2657 76.2549L85.4383 79.4245L87.806 77.1587L85.4893 79.4881L88.6843 78.6989L85.5147 79.5645L88.6716 80.481L85.4893 79.6536L87.7678 82.0212L85.4383 79.7045L86.2148 82.8996L85.3492 79.73L84.4327 82.8868L85.2729 79.7045L82.9052 81.9831L85.2092 79.6536L82.0269 80.4301L85.1965 79.5645L82.0396 78.648Z" fill="#9982FF"/>
<path d="M4.36603 23.8611L5.12978 23.9757L5.19343 23.1992L5.32072 23.963L6.07174 23.7848L5.38437 24.1412L5.7917 24.8031L5.24434 24.2557L4.73518 24.854L5.07886 24.1539L4.36603 23.8611Z" fill="#9982FF"/>
<path d="M50.624 91.4256L51.4004 91.5402L51.4514 90.7637L51.5914 91.5402L52.3424 91.3492L51.655 91.7184L52.0624 92.3803L51.5023 91.8329L51.0058 92.4185L51.3495 91.7311L50.624 91.4256Z" fill="#9982FF"/>
<path d="M69.1577 6.22833L69.9215 6.34289L69.9851 5.56641L70.1124 6.34289L70.8762 6.15194L70.1761 6.5211L70.5834 7.18302L70.036 6.63566L69.5269 7.22121L69.8706 6.53382L69.1577 6.22833Z" fill="#9982FF"/>
<path d="M60.4891 3.63198L59.649 3.03371L59.2162 3.96295L59.1653 2.93187L58.1597 3.16101L58.9362 2.48636L58.1342 1.8499L59.1398 2.02811V1.00977L59.6235 1.90081L60.4255 1.26435L60.0309 2.20631L61.0237 2.43543L60.0436 2.71548L60.4891 3.63198Z" fill="#FD82FF"/>
<path d="M74.3639 20.1554L73.5365 19.5572L73.091 20.4864L73.0401 19.4553L72.0472 19.6844L72.811 19.0098L72.009 18.3733L73.0146 18.5515V17.5332L73.5111 18.4242L74.3003 17.7878L73.9057 18.7298L74.9113 18.9589L73.9184 19.2389L74.3639 20.1554Z" fill="#FD82FF"/>
<path d="M11.889 44.4542L11.0616 43.856L10.6161 44.7852L10.5652 43.7541L9.55958 43.9833L10.3361 43.3086L9.53412 42.6721L10.5397 42.8504V41.832L11.0234 42.7231L11.8254 42.0866L11.4308 43.0286L12.4236 43.2577L11.4435 43.5377L11.889 44.4542Z" fill="#FD82FF"/>
<path d="M93.1014 45.4475L92.274 44.8492L91.8284 45.7657L91.7775 44.7473L90.7846 44.9765L91.5484 44.3018L90.7465 43.6654L91.7521 43.8436V42.8125L92.2358 43.7163L93.0377 43.0798L92.6431 44.0218L93.6487 44.2509L92.6558 44.5182L93.1014 45.4475Z" fill="#FD82FF"/>
<path d="M70.9653 82.5556L70.7743 81.5373L69.8196 81.9191L70.4816 81.1299L69.5905 80.6208L70.6216 80.6462L70.4688 79.6406L71.0798 80.4553L71.7799 79.7043L71.5254 80.6972L72.5437 80.7862L71.6145 81.1936L72.1873 82.0464L71.2708 81.5755L70.9653 82.5556Z" fill="#FD82FF"/>
<path d="M21.665 82.4912L21.474 81.4856L20.5193 81.8547L21.1813 81.0782L20.2902 80.5563L21.3213 80.5945L21.1685 79.5762L21.7795 80.4036L22.4796 79.6525L22.2251 80.6454L23.2434 80.7218L22.3014 81.1419L22.8743 81.982L21.9705 81.511L21.665 82.4912Z" fill="#FD82FF"/>
</svg>
