<svg width="78" height="76" viewBox="0 0 78 76" fill="none" xmlns="http://www.w3.org/2000/svg">
<path d="M67.7861 7.11979L67.1061 6.69979C65.7761 5.68979 64.2961 4.45979 63.8261 4.17979C63.3561 3.89979 62.8061 3.65979 62.6161 4.04979C62.5061 4.28979 62.5361 4.51979 63.0661 5.01979C63.7861 5.70979 65.9661 7.02979 67.7861 7.11979Z" fill="#855A11"/>
<path d="M67.7764 23.9113C67.6864 23.9813 67.5964 24.0513 67.5164 24.1213C68.3965 25.9715 68.9265 28.0316 69.0265 30.2018C69.0365 30.4318 69.0465 30.6618 69.0465 30.9018C69.0465 33.532 68.4665 36.2822 67.3164 38.9524C66.9564 39.8525 66.5163 40.7326 65.9963 41.5826C63.7661 45.4329 60.3559 48.8332 55.9355 50.9233C55.5255 52.5735 54.9254 54.6036 54.4054 55.2037C53.4653 56.2737 52.5353 57.2138 50.5851 56.4137C49.545 55.9737 48.2249 54.4136 47.2349 53.0635C44.9847 53.2035 42.4845 53.1635 39.9343 52.9335C39.6843 53.6435 39.4143 54.2436 39.2043 54.4736C38.5242 55.2037 36.6541 55.0136 35.734 54.4736C35.244 54.1936 34.4139 53.0935 33.7339 52.1134C31.8637 51.7734 30.0736 51.3334 28.4935 50.8233C26.0733 54.5036 21.793 61.0841 17.4926 67.7846C10.9921 77.9654 9.122 76.2152 8.26194 75.2252C7.40187 74.2151 8.86198 70.5948 8.73197 70.0048C8.59196 69.3947 9.00199 67.9946 4.05162 70.1348C-0.908752 72.2749 1.70144 67.6646 1.70144 67.6646C1.70144 67.6646 2.4315 66.8945 3.59159 65.6544C3.59159 65.6244 3.61159 65.5944 3.65159 65.5844C7.91191 61.0041 17.9527 50.2433 20.2928 47.7331C23.2831 44.5228 30.8336 32.5119 33.3638 29.3917C35.594 26.5815 38.0042 23.4713 40.7444 20.8611C40.7444 20.8611 40.7444 20.8611 40.7544 20.8611C43.0646 18.6409 45.6247 16.7908 48.515 15.8207C48.455 15.4907 48.425 15.1306 48.425 14.7506C48.425 14.5806 48.425 14.4006 48.445 14.2306C48.795 8.91017 54.4054 4.58984 60.4659 4.58984C61.2159 4.58984 61.946 4.64985 62.646 4.77986C64.9862 5.18989 67.0564 6.22997 68.6465 7.72008C69.1265 8.16011 69.5465 8.62015 69.9266 9.13019C71.0867 10.7003 71.7567 12.5904 71.7567 14.6206C71.7567 17.0308 70.9367 19.891 69.4265 22.0612C68.9665 22.7612 68.4065 23.3913 67.7964 23.9213L67.7764 23.9113Z" fill="#8C5F12"/>
<path d="M71.7468 14.6005C71.7468 17.0107 70.9268 19.8709 69.4167 22.041C68.9566 22.7411 68.3966 23.3711 67.7865 23.9012C67.6965 23.9712 67.6165 24.0412 67.5265 24.1112C67.5265 24.1112 67.0265 20.7109 68.0666 18.0907C69.9367 13.3604 67.0265 10.0301 63.4262 9.87012C59.3759 9.6801 58.0858 11.8003 58.5758 14.8805C59.1159 18.2908 66.0564 16.4906 67.5265 24.1112C67.5265 24.1112 61.5261 21.781 58.4758 19.8609C55.4856 17.9807 52.1754 13.1804 56.4057 8.89004C60.996 4.22969 67.6665 7.0299 69.9267 9.10006C71.0868 10.6702 71.7568 12.5603 71.7568 14.5905L71.7468 14.6005Z" fill="#9E7837"/>
<path d="M69.0366 30.901C69.0366 33.5312 68.4565 36.2814 67.3064 38.9516C66.9464 39.8516 66.5064 40.7317 65.9864 41.5818C63.7562 45.4321 60.3459 48.8323 55.9256 50.9225C55.5156 52.5726 54.9155 54.6028 54.3955 55.2028C53.4554 56.2729 52.5253 57.213 50.5752 56.4129C49.5351 55.9729 48.215 54.4127 47.2249 53.0626C44.9748 53.2027 42.4746 53.1626 39.9244 52.9326C39.6744 53.6427 39.4043 54.2427 39.1943 54.4727C38.5143 55.2028 36.6441 55.0128 35.7241 54.4727C35.234 54.1927 34.404 53.0926 33.7239 52.1126C31.8538 51.7725 30.0636 51.3325 28.4835 50.8225C28.4635 44.782 63.4062 35.7013 64.7063 32.7411C65.9563 29.8709 68.8566 30.1709 69.0266 30.1909C69.0366 30.4209 69.0466 30.651 69.0466 30.891L69.0366 30.901Z" fill="#B39373"/>
<path opacity="0.46" d="M67.5165 24.1207C68.4965 26.1609 69.0466 28.481 69.0466 30.9012C69.0466 33.5314 68.4665 36.2816 67.3164 38.9518C67.0764 39.4419 66.8464 39.9119 66.6064 40.3819C66.4064 40.792 66.1664 41.182 65.9663 41.582H65.9963C63.7662 45.4323 60.3459 48.8326 55.9256 50.9227C55.5156 52.5728 54.9155 54.603 54.3955 55.203C53.4554 56.2731 52.5253 57.2132 50.5752 56.4131C49.5351 55.9731 48.215 54.413 47.2249 53.0629C44.9748 53.2029 42.4746 53.1529 39.9244 52.9329C39.6744 53.6429 39.4043 54.243 39.2043 54.473C38.5243 55.193 36.6541 55.003 35.7241 54.473C35.234 54.193 34.404 53.0929 33.7239 52.1128C31.8538 51.7628 30.0536 51.3227 28.4835 50.8227C26.0633 54.503 21.783 61.0835 17.4827 67.784C10.9822 77.9648 9.11206 76.2146 8.252 75.2245C7.38193 74.2145 8.85204 70.6042 8.72203 70.0042C8.58202 69.3941 8.99206 67.994 4.03168 70.1342C-0.928691 72.2743 1.69151 67.664 1.69151 67.664C1.69151 67.664 2.41156 66.8939 3.58165 65.6538C3.44164 65.7938 3.31163 65.9538 3.20162 66.1139C2.8716 66.5539 2.56157 67.0239 2.27155 67.514C2.11154 67.794 1.99153 68.084 1.88152 68.384C1.86152 68.584 1.88152 68.8041 1.86152 69.0141C1.91152 69.1541 1.92152 69.2841 1.97153 69.4241C1.99153 69.4741 2.00153 69.5041 2.02153 69.5541C2.05153 69.5741 2.15154 69.6141 2.15154 69.6141C2.21155 69.6441 2.28155 69.6641 2.34156 69.6741C2.40156 69.6841 2.47157 69.7041 2.51157 69.7241H2.62158C2.78159 69.7441 2.9216 69.7241 3.08161 69.7041C3.11161 69.7041 3.14162 69.7041 3.17162 69.6841C3.26162 69.6341 3.36163 69.6041 3.45164 69.6041C3.51164 69.5841 3.58165 69.5541 3.64165 69.5441L3.66165 69.5241H3.68166C3.74166 69.4941 3.79166 69.4741 3.85167 69.4441C3.93167 69.4141 4.02168 69.3641 4.10169 69.3341C4.45171 69.1141 4.78174 68.8941 5.12176 68.6941C6.22185 68.094 8.88205 67.1239 9.29208 69.0041C9.6421 70.5942 9.23207 72.2643 9.13207 73.8844C9.18207 73.9745 9.19207 74.0845 9.19207 74.1845C9.21207 74.3545 9.25208 74.5145 9.33208 74.6545C9.35208 74.6845 9.38208 74.7145 9.39209 74.7445C9.39209 74.7445 9.44209 74.8245 9.45209 74.8345C9.48209 74.8645 9.51209 74.8945 9.5421 74.9145C9.79212 74.8645 10.0421 74.8045 10.2822 74.7445C11.2122 73.8744 12.0323 72.8544 12.7823 71.8643C14.2925 69.8941 15.7126 67.854 17.1527 65.8438C20.0329 61.8335 22.9231 57.8232 25.8033 53.8129C25.8833 53.6829 25.9433 53.5629 26.0233 53.4329C26.4634 52.5528 26.9034 51.5428 27.5935 50.9027C27.8335 50.6627 28.0935 50.5527 28.3635 50.5127C29.0836 50.1827 30.0136 50.4027 30.8037 50.6227C31.5938 50.6827 32.3738 50.7927 33.1039 50.8427C34.644 50.9327 36.2041 51.0027 37.7742 51.0327C40.9945 51.0827 44.2447 50.9727 47.4449 50.6227C48.8751 50.4627 50.2952 50.2627 51.7253 49.9926C52.6053 49.7126 53.4854 49.4226 54.3655 49.1126C55.6756 48.5025 56.9457 47.8425 58.1858 47.1024C60.6559 45.2623 62.6261 42.8521 64.4662 40.3819C67.0164 35.4116 68.5065 29.7811 66.6564 24.3007C66.5764 24.1007 66.6564 23.8407 66.7864 23.6607C67.6865 23.1706 68.5965 22.7006 69.3966 22.0605C68.8666 22.8606 68.2165 23.5707 67.4965 24.1407L67.5165 24.1207Z" fill="#4C4131"/>
<path d="M59.5859 32.0018C59.4459 32.4118 59.2859 32.8418 59.1059 33.2719C58.9159 33.7119 58.6958 34.1519 58.4558 34.6019C58.4058 34.692 58.3558 34.782 58.3158 34.872C58.2558 34.972 58.2058 35.072 58.1458 35.162C58.0858 35.272 58.0158 35.392 57.9458 35.502C57.9158 35.552 57.8858 35.612 57.8458 35.672C57.8258 35.712 57.7958 35.742 57.7758 35.782C57.7558 35.822 57.7258 35.852 57.7058 35.892C57.5558 36.1421 57.3857 36.3821 57.2157 36.6321C57.0757 36.8321 56.9257 37.0221 56.7757 37.2221C56.7457 37.2722 56.7057 37.3122 56.6757 37.3622C56.5557 37.5122 56.4357 37.6622 56.3157 37.8122C56.1856 37.9622 56.0656 38.1122 55.9356 38.2622C55.7856 38.4422 55.6256 38.6223 55.4556 38.8023C55.2356 39.0323 55.0156 39.2723 54.7955 39.5023C54.5655 39.7323 54.3355 39.9624 54.0955 40.1924C53.8655 40.4024 53.6355 40.6124 53.4054 40.8224C53.1354 41.0724 52.8554 41.3125 52.5654 41.5425C52.3954 41.6925 52.2153 41.8325 52.0353 41.9625C51.9953 42.0025 51.9553 42.0325 51.9153 42.0525C51.7853 42.1525 51.6453 42.2625 51.5053 42.3625C51.4753 42.3925 51.4453 42.4225 51.4153 42.4325C51.2453 42.5625 51.0753 42.6926 50.8952 42.8126C50.8652 42.8426 50.8252 42.8626 50.7952 42.8826C50.6752 42.9726 50.5552 43.0526 50.4352 43.1326C50.3952 43.1626 50.3552 43.1926 50.3052 43.2126C50.1152 43.3426 49.9252 43.4726 49.7252 43.5926C49.3251 43.8526 48.9151 44.1027 48.4951 44.3427C48.2951 44.4527 48.085 44.5627 47.885 44.6827C47.765 44.7527 47.635 44.8227 47.515 44.8827C47.415 44.9327 47.325 44.9827 47.225 45.0327H47.215C47.185 45.0527 47.155 45.0627 47.125 45.0827C46.985 45.1627 46.8349 45.2327 46.6849 45.3028C46.5449 45.3728 46.4149 45.4428 46.2749 45.4928C46.2449 45.5128 46.2049 45.5328 46.1649 45.5428C46.0349 45.6028 45.9149 45.6628 45.7849 45.7228H45.7649C45.6849 45.7628 45.5949 45.8028 45.5148 45.8328C44.4048 46.3128 43.2347 46.7229 42.0246 47.0529C41.7946 47.1229 41.5445 47.1829 41.3045 47.2329C41.1545 47.2829 40.9945 47.3129 40.8445 47.3429C40.6145 47.3929 40.3745 47.4529 40.1344 47.4929C39.9544 47.5329 39.7644 47.5629 39.5744 47.6029C39.4744 47.6229 39.3644 47.6429 39.2644 47.6629C38.8443 47.7429 38.4143 47.8029 37.9943 47.8729C37.7943 47.893 37.5942 47.923 37.3942 47.943C36.0741 48.113 34.724 48.203 33.3539 48.223C33.3539 48.223 33.3506 48.223 33.3439 48.223H33.3239C33.3239 48.223 33.3139 48.223 33.3039 48.223C32.9939 48.233 32.6839 48.243 32.3739 48.233C32.0838 48.233 31.8038 48.233 31.5138 48.223C31.2438 48.223 30.9638 48.213 30.6937 48.203C30.3437 48.193 29.9737 48.173 29.6137 48.143C29.4736 48.143 29.3236 48.123 29.1836 48.113C29.1336 48.113 29.0936 48.113 29.0536 48.113C28.9036 48.103 28.7436 48.093 28.5836 48.083C27.7835 48.023 26.9835 47.933 26.1834 47.8329C26.0934 47.8229 26.0034 47.8129 25.9134 47.8029C25.7334 47.7829 25.5533 47.7529 25.3733 47.7329C25.1633 47.7029 24.9433 47.6729 24.7333 47.6429C24.4233 47.5929 24.1132 47.5429 23.7932 47.4929C23.3932 47.4229 23.0132 47.3529 22.6131 47.2829C22.0331 47.1729 21.443 47.0529 20.853 46.9229C20.723 46.8929 20.603 46.8629 20.473 46.8329C19.1929 46.5429 17.9128 46.2128 16.6327 45.8428C16.5027 45.8128 16.3727 45.7828 16.2426 45.7328C16.0126 45.6728 15.7626 45.6028 15.5326 45.5228C15.5326 45.5228 15.5326 45.5228 15.5426 45.5228C15.7026 45.3728 17.9028 43.4026 20.293 41.3525C20.573 41.1024 20.863 40.8624 21.143 40.6224C21.353 40.4424 21.553 40.2724 21.7531 40.0924C24.1832 38.0522 26.3434 35.142 28.7736 32.2118C28.9836 31.9618 29.1936 31.7117 29.4136 31.4517C31.2338 29.3016 33.2339 27.1714 35.6141 25.4313C36.8142 24.5512 38.0243 23.8011 39.2344 23.1511C39.5644 22.9711 39.8844 22.8111 40.2144 22.6511C42.7246 21.431 45.2048 20.6809 47.425 20.2709C47.665 20.2309 47.905 20.1909 48.135 20.1609C51.2553 19.7008 53.8055 19.9508 55.1456 20.6309C56.3457 21.2309 57.8958 22.441 58.9459 24.2312C59.1759 24.5912 59.3659 24.9912 59.5459 25.4113C59.6359 25.6513 59.7259 25.8913 59.7959 26.1413C59.8259 26.2313 59.8559 26.3313 59.8759 26.4313C59.8959 26.5313 59.9259 26.6213 59.9459 26.7214C59.9659 26.8214 59.9959 26.9214 60.0059 27.0214C60.266 28.4515 60.1959 30.1116 59.5859 31.9718V32.0018Z" fill="#8C5F12"/>
<path d="M58.506 34.4425C58.496 34.5025 58.486 34.5525 58.456 34.6025V34.6225C58.416 34.7025 58.366 34.7925 58.316 34.8725L58.1659 35.1425C58.1659 35.1425 58.1659 35.1525 58.1459 35.1625C57.8859 35.4626 57.5259 35.6726 57.1359 35.7726C56.7358 35.8726 56.3358 35.8526 55.9758 35.7226C55.6858 35.6226 55.4057 35.4626 55.1757 35.2325C54.0956 34.2225 54.1456 32.7924 54.4757 31.4523C53.8356 31.7523 53.0056 31.7423 52.4055 31.3422C51.6855 30.8822 51.6855 29.9721 51.7455 29.2021C51.7955 28.602 51.9155 28.032 52.1155 27.482C51.9055 27.522 51.6955 27.532 51.4654 27.502C50.9254 27.442 50.1853 27.3019 49.8353 26.8519C49.4253 26.3119 49.6753 25.6118 49.9453 25.0718C50.1953 24.6017 50.5054 24.1717 50.8454 23.7617C49.6753 23.7317 48.4552 23.5417 47.6852 22.5816C47.5351 22.3916 47.4051 22.1716 47.3151 21.9415C47.1851 21.6115 47.1451 21.2515 47.2151 20.8915C47.2451 20.6814 47.3151 20.4914 47.4051 20.3014C47.6452 20.2614 47.8852 20.2214 48.1152 20.1914C47.9452 20.4514 47.8052 20.7414 47.7652 21.0515C47.7252 21.3215 47.7652 21.5815 47.8852 21.8215C47.9752 22.0415 48.1252 22.2516 48.3052 22.4216C49.1453 23.2316 50.4054 23.2216 51.4954 23.2216C51.7455 23.2216 51.8755 23.5317 51.6955 23.7117C51.3054 24.0917 50.9654 24.5117 50.6754 24.9618C50.4554 25.3318 50.1353 25.8118 50.1853 26.2719C50.2353 26.7619 50.9454 26.8719 51.3454 26.9419C51.7055 27.0019 52.1955 27.0419 52.4455 26.7019C52.6555 26.4119 53.1056 26.6519 52.9355 26.9919C52.6455 27.562 52.4455 28.172 52.3555 28.8121C52.2755 29.3521 52.1455 30.2422 52.4955 30.7022C52.9856 31.3422 54.2656 31.2322 54.7357 30.5722C54.7957 30.4022 54.8457 30.2322 54.9157 30.0721C55.0157 29.7921 55.5157 29.8021 55.4757 30.1422C55.4757 30.1622 55.4657 30.1922 55.4657 30.2122C55.4657 30.2222 55.4657 30.2322 55.4657 30.2422C55.4357 30.4222 55.3657 30.5922 55.2757 30.7522C54.8457 31.9823 54.5057 33.3824 55.2957 34.5225C55.5557 34.9025 55.9358 35.1725 56.3658 35.2525C56.5158 35.2825 56.6758 35.2825 56.8458 35.2525C57.3759 35.1725 57.8359 34.8325 57.9459 34.2925C58.0159 33.9224 58.566 34.0824 58.496 34.4425H58.506Z" fill="#9E7837"/>
<path d="M52.5554 41.5423C52.3854 41.6923 52.2054 41.8323 52.0254 41.9623C51.9754 41.9423 51.9254 41.9223 51.8754 41.9023C51.2953 41.6323 50.8253 41.1323 50.6553 40.4922C50.6553 40.4822 50.6553 40.4722 50.6453 40.4622C50.5453 40.0522 50.5553 39.6322 50.6253 39.2121C50.2452 39.4422 49.7852 39.5622 49.3252 39.6222C48.4651 39.7322 47.455 39.7322 46.665 39.3121C45.1148 38.5021 45.7149 36.772 46.595 35.3819C46.515 35.4019 46.4349 35.4319 46.3449 35.4419C45.7049 35.5419 45.0148 35.3319 44.6848 34.7418C44.3548 34.1218 44.5148 33.3717 44.7348 32.7517C44.9148 32.2516 45.1449 31.7516 45.3849 31.2815C44.6648 31.6616 43.9048 31.9816 43.0847 32.0716C42.6247 32.1216 42.0846 32.1216 41.7046 31.7816C41.3846 31.4916 41.2746 31.0615 41.2646 30.6515C41.2146 28.9614 42.1146 27.2812 43.3647 26.1312C42.6647 26.1112 41.9546 26.0312 41.2646 25.8511C40.6245 25.6811 39.9545 25.3911 39.5144 24.8711C39.1044 24.381 39.0144 23.751 39.2244 23.1709C39.5544 22.9909 39.8745 22.8309 40.2045 22.6709C40.0345 22.8509 39.8945 23.0409 39.7944 23.2509C39.5744 23.731 39.6944 24.221 40.0445 24.581C40.0845 24.631 40.1345 24.681 40.1945 24.7211C40.6745 25.1111 41.2946 25.2811 41.8846 25.4011C42.6447 25.5511 43.4147 25.5911 44.1848 25.5411C44.4848 25.5211 44.5348 25.9211 44.3248 26.0712C42.9647 27.0312 42.0146 28.5813 41.8446 30.2515C41.8146 30.6015 41.7846 31.0915 42.0746 31.3516C42.4046 31.6416 43.0447 31.5216 43.4347 31.4316C44.3548 31.2315 45.1749 30.7415 45.9849 30.2715C46.2249 30.1315 46.525 30.4215 46.3749 30.6715C46.0249 31.2515 45.6949 31.8516 45.4449 32.4816C45.2349 32.9917 44.9948 33.5717 45.0748 34.1318C45.1749 34.7818 45.8049 35.0118 46.3949 34.8518C46.965 34.7018 47.405 34.2318 47.7951 33.8117C48.0551 33.5417 48.4551 33.9517 48.2051 34.2218C47.555 34.9418 47.005 35.7419 46.605 36.6219C46.2549 37.392 46.0649 38.3721 46.955 38.8221C47.595 39.1521 48.3951 39.1521 49.0851 39.0821C49.7652 39.0221 50.6353 38.8121 50.9153 38.1121C51.0553 37.772 51.5853 37.902 51.4753 38.2621C51.2853 38.8521 51.0753 39.5022 51.1753 40.1322C51.1753 40.1922 51.1953 40.2622 51.2053 40.3222C51.3453 40.8823 51.7653 41.2623 52.2854 41.4623C52.3754 41.4923 52.4654 41.5223 52.5554 41.5523V41.5423Z" fill="#9E7837"/>
<path d="M47.195 45.0528C47.195 45.0528 47.135 45.0828 47.105 45.1028C46.965 45.1828 46.815 45.2528 46.6649 45.3228C46.5249 45.3929 46.3949 45.4629 46.2549 45.5129C46.2249 45.5329 46.1849 45.5529 46.1449 45.5629C46.0149 45.6229 45.8949 45.6829 45.7649 45.7429H45.7449C45.5749 45.7529 45.4049 45.7629 45.2248 45.7629C44.0948 45.7929 42.9547 45.7529 41.8346 45.6329C41.4546 45.5929 40.7945 45.5829 40.3045 45.4029C39.9744 45.2828 39.7244 45.0828 39.6644 44.7428C39.6444 44.6228 39.6644 44.4828 39.7944 44.4228C41.4346 43.5827 43.1047 42.7427 44.5648 41.6226C43.6047 41.9626 42.6346 42.2826 41.6446 42.5326C40.3545 42.8627 39.0244 43.0827 37.6943 43.0827C37.2442 43.0827 36.6742 43.0827 36.4542 42.5926C36.2642 42.1626 36.5642 41.7526 36.8942 41.5026C37.3742 41.1325 37.9843 40.8925 38.5043 40.5825C39.0444 40.2725 39.5744 39.9224 40.0945 39.5724C40.9245 38.9924 41.7046 38.3523 42.4646 37.6823C41.6846 37.7923 40.9245 38.0223 40.1645 38.2623C39.1344 38.5923 38.1043 38.9424 37.0542 39.1924C35.9841 39.4524 34.9041 39.6624 33.814 39.8424C33.2839 39.9324 32.7439 40.0325 32.2039 40.1125C31.7538 40.1825 31.3238 40.2225 30.8838 40.0825C30.6537 40.0125 30.6037 39.6924 30.8238 39.5624C33.2039 38.0923 35.4241 36.3922 37.4743 34.502C34.194 35.5521 30.8838 36.4922 27.5435 37.3222C27.3235 37.3723 27.0635 37.1122 27.2235 36.9022C29.3736 34.032 32.6439 32.4519 35.3841 30.2317C34.034 30.7318 32.6739 31.1718 31.2938 31.5718C30.4537 31.8218 29.6037 32.0519 28.7436 32.2519C28.9536 32.0018 29.1636 31.7518 29.3836 31.4918C30.3037 31.2618 31.2238 31.0018 32.1339 30.7218C33.664 30.2617 35.1741 29.7417 36.6542 29.1516C36.9242 29.0416 37.1342 29.4417 36.9342 29.6317C34.264 32.2119 30.6737 33.752 28.2336 36.5622C31.7038 35.6821 35.1441 34.692 38.5443 33.572C38.8144 33.482 39.0244 33.862 38.8244 34.052C36.6842 36.1422 34.324 37.9923 31.8138 39.6124C32.0738 39.5924 32.3339 39.5324 32.5839 39.4924C33.1239 39.4024 33.674 39.3124 34.214 39.2124C35.2541 39.0324 36.2842 38.8224 37.3042 38.5523C39.3044 38.0423 41.2345 37.1122 43.3147 37.0422C43.5647 37.0422 43.6947 37.3623 43.5147 37.5323C42.6146 38.3823 41.6546 39.1724 40.6345 39.8924C39.7344 40.5325 38.7844 41.1225 37.7943 41.6426C37.5243 41.7826 36.4342 42.4426 37.3242 42.5226C37.8843 42.5726 38.4643 42.5226 39.0144 42.4626C41.3845 42.2226 43.6547 41.3726 45.8749 40.5525C46.1449 40.4525 46.3549 40.8425 46.1449 41.0325C44.4648 42.6526 42.3846 43.7527 40.3145 44.8028C40.5645 44.9928 41.1145 44.9928 41.3345 45.0228C41.4046 45.0328 41.4646 45.0428 41.5346 45.0428C41.9546 45.0928 42.3746 45.1328 42.7847 45.1528C43.7647 45.2228 44.7448 45.2228 45.7149 45.1728C46.1949 45.1528 46.6649 45.1128 47.135 45.0628L47.195 45.0528Z" fill="#9E7837"/>
<path d="M34.2841 43.7421C32.444 44.8722 30.5139 45.8722 28.5337 46.7323C27.9537 46.9923 27.3736 47.2323 26.7836 47.4624C27.7437 47.7924 28.7537 47.9424 29.7638 48.0324C30.9339 48.1424 32.124 48.2124 33.3041 48.2524C32.994 48.2624 32.684 48.2724 32.374 48.2624C32.084 48.2624 31.804 48.2624 31.5139 48.2524C31.2439 48.2524 30.9639 48.2424 30.6939 48.2324C30.3438 48.2224 29.9738 48.2024 29.6138 48.1724C29.4738 48.1724 29.3238 48.1524 29.1838 48.1424C29.1338 48.1424 29.0938 48.1424 29.0537 48.1424C28.9037 48.1324 28.7437 48.1224 28.5837 48.1124C27.7837 48.0524 26.9836 47.9624 26.1835 47.8624H26.1735C26.0635 47.8224 25.9635 47.7724 25.8635 47.7224C25.6135 47.6124 25.7235 47.2724 25.9335 47.2023C26.3435 47.0523 26.7336 46.8923 27.1336 46.7223C28.9237 45.9923 30.6639 45.1522 32.344 44.2121C31.1739 44.4821 29.9938 44.7322 28.8037 44.9222C27.2436 45.1822 25.6635 45.3422 24.0834 45.3422C23.2633 45.3422 22.4433 45.2822 21.6232 45.1722C21.1632 45.1122 20.3631 45.0522 20.4331 44.3821C20.4931 43.7521 21.3732 43.3721 21.8332 43.062C22.5233 42.602 23.2233 42.132 23.9034 41.6719L26.4636 39.9518C25.1435 40.3418 23.8034 40.6719 22.4533 40.9519H22.4433C21.7232 41.1019 21.0131 41.2419 20.2931 41.3619C20.5731 41.1119 20.8631 40.8719 21.1432 40.6319C21.8832 40.4918 22.6133 40.3418 23.3433 40.1718C24.9734 39.8018 26.5936 39.3418 28.1737 38.8117C28.5037 38.7017 28.6537 39.1617 28.3937 39.3318C27.0136 40.2618 25.6335 41.1919 24.2434 42.122C23.6333 42.532 23.0233 42.942 22.4032 43.3621C22.0932 43.5721 21.7732 43.7821 21.4532 44.0021C21.3432 44.0721 21.1032 44.2021 21.0431 44.3421C20.9931 44.4921 21.1332 44.5321 21.2732 44.5621C22.6833 44.8122 24.1534 44.8122 25.5735 44.7322C28.4437 44.5621 31.2639 43.9021 34.0541 43.232C34.3641 43.152 34.5542 43.5821 34.2741 43.7521L34.2841 43.7421Z" fill="#9E7837"/>
<path opacity="0.46" d="M59.5861 32.0012C59.4561 32.4112 59.2961 32.8312 59.1061 33.2713C58.9261 33.7113 58.6961 34.1613 58.4461 34.6314C58.4061 34.7114 58.3561 34.8014 58.306 34.8814L58.156 35.1514C58.156 35.1514 58.156 35.1614 58.136 35.1714C58.076 35.2814 58.006 35.4014 57.936 35.5114C57.906 35.5614 57.876 35.6214 57.836 35.6814C57.816 35.7214 57.786 35.7514 57.766 35.7914C57.746 35.8314 57.716 35.8714 57.696 35.9015C57.536 36.1515 57.376 36.3915 57.196 36.6415C57.056 36.8415 56.9059 37.0315 56.7559 37.2315C56.7259 37.2816 56.6859 37.3216 56.6559 37.3716C56.5359 37.5216 56.4159 37.6716 56.2959 37.8216C56.1659 37.9716 56.0459 38.1216 55.9159 38.2716C55.7659 38.4516 55.6058 38.6317 55.4358 38.8117C55.2158 39.0417 54.9958 39.2817 54.7758 39.5117C54.5458 39.7417 54.3158 39.9718 54.0757 40.2018C53.8457 40.4118 53.6157 40.6218 53.3857 40.8318C53.1157 41.0818 52.8356 41.3219 52.5456 41.5519C52.3756 41.7019 52.1956 41.8419 52.0156 41.9719C51.9756 42.0119 51.9356 42.0419 51.8956 42.0619C51.7656 42.1619 51.6255 42.2719 51.4855 42.3719C51.4555 42.4019 51.4255 42.4319 51.3955 42.4419C51.2255 42.5719 51.0555 42.702 50.8755 42.822C50.8455 42.852 50.8055 42.872 50.7755 42.892C50.6555 42.982 50.5355 43.062 50.4155 43.142C50.3755 43.172 50.3354 43.202 50.2854 43.222C50.0954 43.352 49.9054 43.482 49.7054 43.602C49.3054 43.862 48.8953 44.1121 48.4753 44.3521C48.2753 44.4621 48.0653 44.5721 47.8653 44.6921C47.7453 44.7621 47.6152 44.8321 47.4952 44.8921C47.3952 44.9421 47.3052 44.9921 47.2052 45.0421C47.2052 45.0421 47.2052 45.0521 47.1952 45.0421C47.1652 45.0621 47.1352 45.0721 47.1052 45.0921C46.9652 45.1721 46.8152 45.2422 46.6652 45.3122C46.5252 45.3822 46.3952 45.4522 46.2551 45.5022C46.2251 45.5222 46.1851 45.5422 46.1451 45.5522C46.0151 45.6122 45.8851 45.6722 45.7551 45.7322C45.6751 45.7722 45.5851 45.8122 45.5051 45.8422C44.395 46.3222 43.2249 46.7323 42.0148 47.0623C41.7848 47.1323 41.5348 47.1923 41.2948 47.2423C41.1448 47.2923 40.9847 47.3223 40.8347 47.3523C40.6047 47.4023 40.3647 47.4623 40.1247 47.5023C39.9447 47.5423 39.7547 47.5723 39.5646 47.6123C39.4646 47.6323 39.3546 47.6523 39.2546 47.6723C38.8346 47.7523 38.4046 47.8123 37.9845 47.8824C37.7845 47.9024 37.5845 47.9324 37.3845 47.9524C36.0644 48.1224 34.7143 48.2124 33.3442 48.2324H33.3242H33.3042C33.3042 48.2324 33.2942 48.2324 33.2842 48.2324C32.9741 48.2424 32.6641 48.2524 32.3541 48.2424C32.0641 48.2424 31.7841 48.2424 31.494 48.2324C31.224 48.2324 30.944 48.2224 30.674 48.2124C30.3239 48.2024 29.9539 48.1824 29.5939 48.1524C29.4539 48.1524 29.3039 48.1324 29.1639 48.1224C29.1139 48.1224 29.0739 48.1224 29.0339 48.1224C28.8838 48.1124 28.7238 48.1024 28.5638 48.0924C27.7638 48.0324 26.9637 47.9424 26.1636 47.8423H26.1536C26.0636 47.8323 25.9736 47.8223 25.8936 47.8123C25.7136 47.7923 25.5336 47.7623 25.3536 47.7423C25.1436 47.7123 24.9235 47.6823 24.7135 47.6523C24.4035 47.6023 24.0935 47.5523 23.7735 47.5023C23.3734 47.4323 22.9934 47.3623 22.5934 47.2923C22.0133 47.1823 21.4233 47.0623 20.8332 46.9323C20.7032 46.9023 20.5832 46.8723 20.4532 46.8423C19.1731 46.5522 17.893 46.2222 16.6129 45.8522C16.6929 45.8722 16.7729 45.8822 16.8429 45.9022C16.9129 45.8622 21.3333 46.6223 27.1037 46.7123C27.5637 46.7323 28.0338 46.7323 28.5038 46.7323C31.004 46.7323 33.7042 46.5923 36.3644 46.2122C37.7345 46.0222 39.0446 45.7422 40.2947 45.4022C40.7247 45.2822 41.1448 45.1521 41.5648 45.0221C45.1951 43.862 48.2353 42.1819 50.6255 40.4918C50.7955 40.3618 50.9655 40.2418 51.1355 40.1218C53.4257 38.4416 55.0558 36.8015 55.9459 35.7214C56.0959 35.5414 56.2259 35.3814 56.3459 35.2314C56.3959 35.1614 56.4359 35.1014 56.4759 35.0414C58.4861 32.1812 58.8061 28.7509 59.5161 25.4307C59.6161 25.6607 59.6962 25.9007 59.7662 26.1507C59.7962 26.2407 59.8262 26.3407 59.8462 26.4407C59.8662 26.5407 59.8962 26.6308 59.9162 26.7308C59.9362 26.8308 59.9662 26.9308 59.9762 27.0308C60.2362 28.4609 60.1662 30.121 59.5561 31.9812L59.5861 32.0012Z" fill="#4C4131"/>
<g style="mix-blend-mode:screen" opacity="0.25">
<path d="M58.9459 24.2609C58.2858 23.5209 54.0655 20.5407 47.905 21.8208C47.715 21.8608 47.525 21.9008 47.335 21.9508C46.845 22.0608 46.3449 22.2108 45.8249 22.3908C44.0847 22.9908 42.2846 23.4309 40.0444 24.591C39.8744 24.681 39.7044 24.771 39.5244 24.881C37.5042 26.0011 35.1341 27.7512 32.1538 30.7114C31.8838 30.9814 31.6038 31.2715 31.3138 31.5615C30.0637 32.8516 28.7136 34.3517 27.2435 36.0918C26.1634 37.3719 24.8833 38.772 23.3332 40.1821C23.0432 40.4422 22.7431 40.7122 22.4431 40.9622H22.4331C20.503 42.6123 18.2228 44.2024 15.5326 45.5325C15.6926 45.3825 17.8928 43.4124 20.283 41.3622C20.563 41.1122 20.853 40.8722 21.133 40.6322C21.343 40.4522 21.543 40.2821 21.7431 40.1021C24.1732 38.062 26.3334 35.1518 28.7636 32.2215C28.9736 31.9715 29.1836 31.7215 29.4036 31.4615C31.2238 29.3113 33.2239 27.1812 35.6041 25.441C36.8042 24.561 38.0143 23.8109 39.2244 23.1609C39.5544 22.9808 39.8744 22.8208 40.2045 22.6608C42.7146 21.4407 45.1948 20.6907 47.415 20.2806C47.655 20.2406 47.895 20.2006 48.125 20.1706C51.2453 19.7106 53.7955 19.9606 55.1356 20.6407C56.3357 21.2407 57.8858 22.4508 58.9359 24.2409L58.9459 24.2609Z" fill="#A39253"/>
</g>
<path d="M77.2066 15.9006C74.2966 14.8906 69.0266 15.1606 69.0266 15.1606L71.7466 13.3506C71.7466 13.3506 76.4466 13.9606 77.2066 15.9006Z" fill="#D0BB1F"/>
<path d="M75.4266 15.4705L71.4166 17.3305L69.0266 15.1605C69.0266 15.1605 72.8166 14.9205 75.4266 15.4705Z" fill="#B88B23"/>
<path d="M64.9358 13.56C64.9358 14.2 64.6058 14.77 64.0658 15.16C63.6358 15.48 63.0758 15.68 62.4558 15.68C61.0958 15.68 59.9958 14.74 59.9958 13.56C59.9958 12.38 61.0958 11.46 62.4558 11.46C63.0658 11.46 63.6158 11.65 64.0358 11.97C64.5758 12.34 64.9258 12.92 64.9258 13.57L64.9358 13.56Z" fill="white"/>
<path d="M64.9359 13.5593C64.9359 14.1993 64.6059 14.7693 64.0659 15.1593C63.7359 15.3193 63.3459 15.4093 62.9359 15.4093C61.6659 15.4093 60.6359 14.5793 60.6359 13.5693C60.6359 12.5593 61.6659 11.7393 62.9359 11.7393C63.3359 11.7393 63.7159 11.8293 64.0359 11.9793C64.5759 12.3493 64.9259 12.9293 64.9259 13.5793L64.9359 13.5593Z" fill="black"/>
<path d="M63.5961 13.7601C63.9385 13.7601 64.2161 13.5049 64.2161 13.1901C64.2161 12.8753 63.9385 12.6201 63.5961 12.6201C63.2537 12.6201 62.9761 12.8753 62.9761 13.1901C62.9761 13.5049 63.2537 13.7601 63.5961 13.7601Z" fill="white"/>
<path d="M63.6863 61.6838C63.6863 61.6838 60.7761 63.444 58.6159 62.0339C56.4558 60.6237 53.6556 55.9834 53.6556 55.9834C53.6556 55.9834 52.8655 56.8535 50.5753 56.4234C50.5753 56.4234 54.5856 59.9337 56.2457 62.9939C56.2157 62.9939 56.1857 62.9939 56.1557 62.9939C56.1257 62.9939 56.0957 62.9839 56.0657 62.9739C56.0157 62.9439 55.9757 62.9139 55.9157 62.8939C55.4857 62.7639 55.0257 63.0439 54.9056 63.464C54.8456 63.674 54.8856 63.894 54.9856 64.094C55.0957 64.294 55.3057 64.414 55.5157 64.474C55.7557 64.544 56.0057 64.574 56.2557 64.594C56.4758 64.604 56.6858 64.594 56.8958 64.564C57.1158 64.534 57.3358 64.494 57.5458 64.414C57.5658 64.414 57.5858 64.394 57.6058 64.384C59.126 64.494 62.3862 64.644 63.6763 63.964C63.6763 63.964 65.3364 62.5539 63.6763 61.7038L63.6863 61.6838Z" fill="#D0671F"/>
<path d="M43.6142 58.2137C43.2542 58.3137 41.8442 58.6337 41.0342 58.5937C40.2242 58.5537 39.6542 58.6437 39.6242 58.6337C39.6042 57.1937 38.7442 54.7637 38.7442 54.7637C38.7442 54.7637 38.2442 54.8837 37.7742 54.8937C37.3042 54.9037 36.5342 54.8037 36.5342 54.8037C36.5342 54.8037 37.7242 56.3837 37.8042 56.5437C38.0742 57.1737 38.1042 58.5037 38.1942 59.0137C37.9242 59.0837 37.4042 58.2837 36.9142 59.1537C36.7042 59.5337 37.0442 60.2037 38.1142 60.1737C38.8042 60.1537 39.5542 60.0637 40.0942 60.1737C40.6342 60.2837 42.7942 60.8237 44.0342 60.2837C44.3242 60.1537 44.4542 59.7937 44.4142 59.4837C44.8442 58.9737 44.4342 57.9837 43.6242 58.2137H43.6142Z" fill="#D0671F"/>
<g style="mix-blend-mode:screen" opacity="0.25">
<path d="M62.636 4.74935C60.0058 5.18938 57.5757 4.02929 52.4653 8.60964C50.4651 10.3998 49.155 12.6999 49.415 16.3702C49.415 16.3702 47.2649 17.0703 45.7048 17.8503C44.1447 18.6304 40.9644 20.7105 40.7544 20.8406C43.0646 18.6204 45.6248 16.7703 48.515 15.8002C48.455 15.4702 48.425 15.1101 48.425 14.7301C48.425 14.5601 48.425 14.3801 48.445 14.2101C48.795 8.88966 54.4054 4.56934 60.4659 4.56934C61.2159 4.56934 61.946 4.62934 62.646 4.75935L62.636 4.74935Z" fill="#A39253"/>
</g>
<path d="M67.8662 7.06906L67.2962 6.41906C66.2962 4.91906 65.2362 3.11906 64.8462 2.67906C64.4562 2.23906 63.9262 1.83906 63.4862 2.29906C63.2162 2.56906 63.1262 2.86906 63.4662 3.59906C63.9262 4.58906 65.7562 6.62906 67.8662 7.06906Z" fill="#8C5F12"/>
<path d="M68.0562 7.19915C66.9062 4.57915 66.9062 3.68915 66.8462 1.65915C66.8262 0.959154 66.5162 -0.230846 65.6762 0.0391537C64.8062 0.319154 64.5762 1.43915 64.7762 2.37915C64.9162 3.05915 65.7162 4.77915 66.5762 5.82915C66.9562 6.29915 67.4662 7.13915 68.0662 7.19915H68.0562Z" fill="#8C5F12"/>
<path d="M67.6362 6.98986C66.4262 5.23986 66.0662 4.81986 65.7762 3.31986C65.6762 2.79986 65.3762 2.01986 64.7762 2.37986C64.2662 2.67986 64.4762 3.38986 64.7062 4.05986C65.0862 5.18986 66.7562 6.32986 67.6362 6.98986Z" fill="#855A11"/>
</svg>
