<svg width="71" height="70" viewBox="0 0 71 70" fill="none" xmlns="http://www.w3.org/2000/svg">
<path d="M64.5332 26.0437C65.1779 24.2845 66.2832 22.6358 67.849 21.5674C66.2464 22.6082 65.1043 24.2384 64.4135 25.9976C64.3858 26.0805 64.5148 26.1266 64.5424 26.0437H64.5332Z" fill="#613800"/>
<path d="M63.5661 26.3205C64.4043 24.7547 66.0069 23.7139 67.4622 22.7652L68.1161 22.3691C67.7845 22.5534 67.1214 22.9494 66.799 23.152C65.528 24.0086 64.2016 24.902 63.4464 26.2744C63.4095 26.3573 63.5385 26.4126 63.5661 26.3205Z" fill="#613800"/>
<path d="M64.4595 25.6477C65.7306 24.2661 67.3793 23.17 69.2306 22.7832C67.3609 23.1332 65.6753 24.2016 64.3582 25.5648C64.2938 25.6293 64.4043 25.7214 64.4595 25.6477Z" fill="#613800"/>
<path d="M63.3635 26.5962C64.6714 25.187 66.3845 24.0449 68.3187 23.7686C66.3661 23.9988 64.6161 25.1225 63.2714 26.5133C63.2069 26.5778 63.3174 26.6699 63.3727 26.5962H63.3635Z" fill="#613800"/>
<path d="M64.0174 26.8271C65.528 25.7311 67.3701 24.9758 69.2582 24.9666C67.3516 24.939 65.4911 25.6482 63.9345 26.7258C63.8609 26.7719 63.9437 26.8916 64.0174 26.8271Z" fill="#613800"/>
<path d="M65.5187 25.6103C67.0292 24.5143 68.8713 23.759 70.7595 23.7498C68.8529 23.7222 66.9924 24.4314 65.4358 25.509C65.3621 25.5551 65.445 25.6748 65.5187 25.6103Z" fill="#613800"/>
<path d="M39.6187 62.9043C39.6187 62.9043 42.2806 63.4937 44.8227 64.4885C45.1082 64.599 45.3845 64.7187 45.6608 64.8385C47.3371 65.5753 48.3227 66.5793 49.4003 66.8464C50.045 67.003 50.6069 67.0766 51.1042 67.0858C54.1806 67.1595 54.4753 64.7648 54.4753 64.7648C54.4753 64.7648 54.5029 64.6727 54.5213 64.5253C54.5674 64.0924 54.4661 63.1714 53.0477 62.6095C52.6516 62.453 52.145 62.324 51.5187 62.2411C47.8529 61.7714 45.2648 62.4069 43.7174 61.4398C42.17 60.4635 39.6187 62.9135 39.6187 62.9135V62.9043Z" fill="#BD7100"/>
<path opacity="0.52" d="M44.8227 64.4893C45.1082 64.5998 45.3845 64.7196 45.6608 64.8393C47.3372 65.5761 48.3227 66.5801 49.4003 66.8472C50.0451 67.0038 50.6069 67.0775 51.1043 67.0867C54.1806 67.1604 54.4753 64.7656 54.4753 64.7656C54.4753 64.7656 54.503 64.6735 54.5214 64.5261C54.5674 64.0932 54.4661 63.1722 53.0477 62.6104C53.3701 63.0064 53.453 63.384 52.3661 63.1998C50.303 62.8406 50.6437 63.1077 50.6437 63.1077C50.6437 63.1077 52.1911 63.3104 52.3661 64.0011C52.5411 64.6919 50.8003 63.1998 49.9253 63.513C49.0503 63.8261 51.6753 63.8077 51.399 64.9683C51.1319 66.138 49.8516 63.9827 48.6451 64.3604C47.4293 64.738 51.399 65.3643 49.8056 65.8432C48.2214 66.313 46.9687 63.8998 44.8135 64.4985L44.8227 64.4893Z" fill="#FFED9B"/>
<g style="mix-blend-mode:multiply" opacity="0.47">
<path d="M51.1042 67.086C54.1805 67.1597 54.4753 64.765 54.4753 64.765C54.4753 64.765 54.5029 64.6729 54.5213 64.5255C54.1805 63.9452 53.5266 63.8071 53.4529 63.7979C53.5174 63.8347 54.0424 64.111 54.2174 64.6268C54.3003 64.8663 54.4384 65.1702 54.1713 65.4742C54.0148 65.6584 53.7937 65.7965 53.6463 65.686C52.9832 65.161 52.2463 64.8663 52.1358 64.8202C52.2095 64.8663 52.5503 65.0781 53.2134 65.686C53.7016 66.1373 53.1766 66.6071 52.6884 66.736C52.4305 66.8097 52.2371 66.9386 52.099 66.5702C51.7029 65.511 51.0766 65.686 51.0766 65.686C51.9424 66.4044 51.5924 66.8465 51.095 67.0952L51.1042 67.086Z" fill="#502375"/>
</g>
<path d="M54.595 41.7481C56.3265 41.9507 57.4042 42.6323 58.0765 43.4704C58.4542 43.9402 58.7121 44.456 58.8779 44.9625C59.3108 46.2428 58.0673 48.8402 59.1634 48.3889C60.6555 47.781 60.6647 45.6994 60.6647 45.6994C61.4844 44.7046 61.6318 43.9402 60.9686 42.1165C60.9134 41.9599 60.8489 41.7941 60.7844 41.6283C60.591 41.1586 60.72 40.9468 60.4713 40.5323C59.6147 39.1231 58.3621 38.2665 58.3621 38.2665H58.9239C58.8963 37.9994 57.6897 37.6402 58.0029 37.6402C58.316 37.6402 59.1265 38.0639 59.1265 38.0639C58.5923 37.3454 57.7173 37.1704 57.7173 37.1704C58.6752 37.0139 59.8634 38.0086 59.9371 38.0639C59.5963 36.9586 58.1686 36.7652 57.1555 36.6546C56.1423 36.5441 55.8568 34.6836 55.8568 34.6836C55.8568 34.6836 51.8871 41.4533 54.6042 41.7665L54.595 41.7481Z" fill="#BD7B00"/>
<path d="M59.1634 48.3886C60.6556 47.7807 60.6648 45.6991 60.6648 45.6991C61.4845 44.7044 61.6319 43.9399 60.9687 42.1162C60.499 42.1162 61.4016 43.3136 61.199 43.6912C61.0055 44.0596 60.7016 43.2675 60.6648 43.1662C60.7016 43.2675 60.9134 44.0412 60.4621 44.0504C60.3055 44.0504 60.1305 43.5438 59.9924 43.5162C59.8911 43.4886 59.8174 43.9675 59.6792 43.9031C59.3477 43.7557 59.32 42.6781 58.6016 42.9636C58.1687 43.1386 58.0766 43.3412 58.0766 43.4702C58.4542 43.9399 58.7121 44.4557 58.8779 44.9623C59.3108 46.2425 58.0674 48.8399 59.1634 48.3886Z" fill="#401329"/>
<path d="M48.2766 7.93602C48.3318 8.39655 48.8384 9.48339 48.8384 9.48339C48.8384 9.48339 48.5253 10.2202 48.6358 10.8926C48.6542 10.9847 48.7647 11.086 48.9489 11.1873C50.1371 11.8413 54.2818 12.5505 55.0003 11.0952C55.0003 11.0952 55.0003 11.04 55.0003 10.9479C54.9911 10.3584 54.8253 8.0926 53.0753 6.31497C51.2239 4.44523 50.8832 2.82418 50.8371 2.54786C50.8463 2.79655 50.9384 3.95707 51.4174 4.98865C51.4174 4.98865 49.8332 3.77286 48.9858 2.32681C48.7739 1.9676 48.6082 1.58076 48.5253 1.20312C48.5253 1.20312 48.3963 3.12812 50.1187 4.72155C50.7174 5.27418 50.4779 5.50444 50.4779 5.50444C50.4779 5.50444 50.4318 5.08076 49.7042 4.6847C48.7095 4.14128 48.5529 3.24786 48.5253 3.07286C48.5253 3.05444 48.5253 3.04523 48.5253 3.04523C48.5253 3.04523 48.5253 4.16891 48.6818 4.43602L48.2858 3.90181C48.3226 3.9847 48.82 5.20049 48.7555 5.89128C48.6911 6.6097 48.8661 7.88997 48.8661 7.88997C48.8661 7.88997 48.6634 7.82549 48.5068 7.53997C48.3503 7.25444 48.2766 6.67418 48.2766 6.67418C48.2766 6.67418 48.2121 7.46628 48.2766 7.92681V7.93602Z" fill="#BD7B00"/>
<g style="mix-blend-mode:multiply" opacity="0.2">
<path d="M48.2766 7.93627C48.3318 8.39679 48.8384 9.48364 48.8384 9.48364C48.8384 9.48364 48.5253 10.2205 48.6358 10.8928C48.6542 10.985 48.7647 11.0863 48.9489 11.1876C49.1332 10.8744 49.4187 10.3402 49.4924 9.99942C49.5937 9.52048 48.7003 8.55337 48.645 8.49811C48.7187 8.55337 49.8147 9.43758 49.916 8.85732C50.0266 8.24942 49.2897 8.18495 49.2437 6.72969C49.1976 5.27442 49.5108 5.20995 49.041 4.74021C48.6174 4.31653 48.5253 3.27574 48.516 3.08232C48.516 3.0639 48.516 3.05469 48.516 3.05469C48.516 3.05469 48.516 4.17837 48.6726 4.44548L48.2766 3.91127C48.3134 3.99416 48.8108 5.20995 48.7463 5.90074C48.6818 6.61916 48.8568 7.89942 48.8568 7.89942C48.8568 7.89942 48.6542 7.83495 48.4976 7.54942C48.341 7.2639 48.2674 6.68363 48.2674 6.68363C48.2674 6.68363 48.2029 7.47574 48.2674 7.93627H48.2766Z" fill="#752358"/>
</g>
<path opacity="0.6" d="M50.8463 5.01662C51.7029 5.64294 52.6976 6.93241 52.7805 7.54031C52.8634 8.1482 52.2463 6.61925 51.7213 6.85873C51.1963 7.0982 53.7016 8.44294 54.0608 9.66794C54.4016 10.8653 52.716 8.91267 52.6331 8.82057C52.6608 8.91267 53.0752 10.3864 54.3279 10.8653C54.5673 10.9574 54.7976 10.9666 55.0002 10.9482C54.991 10.3587 54.8252 8.09294 53.0752 6.31531C51.2239 4.44557 50.8831 2.82452 50.8371 2.5482C50.8463 2.79689 50.9384 3.95741 51.4173 4.98899C51.4173 4.98899 49.8331 3.7732 48.9858 2.32715C48.9029 2.7232 49.9989 4.39031 50.8463 5.00741V5.01662Z" fill="#F0B341"/>
<path d="M21.6398 65.6676C22.2937 66.2663 22.9845 66.7084 23.6845 67.0216C23.9056 67.1229 24.1174 67.2058 24.3385 67.2795C24.3385 67.2795 24.3385 67.2795 24.3477 67.2795C24.3477 67.2795 24.3661 67.2795 24.3845 67.2887C25.7937 67.74 27.2582 67.7308 28.7227 67.4913C28.8885 67.4637 29.0543 67.436 29.2293 67.4084C29.4043 67.3716 29.5793 67.3347 29.745 67.2979C32.02 66.7913 34.2582 65.8887 36.2293 65.5295C36.9385 65.4005 37.6293 65.2439 38.2924 65.0597C44.6661 63.3558 49.3819 59.515 50.4872 54.0163C50.5885 53.4821 50.5885 52.8834 50.5608 52.2479C50.5424 51.9347 50.524 51.6031 50.5056 51.2716C50.5056 51.2255 50.5056 51.1887 50.5056 51.1426C50.4687 50.5992 50.4503 50.0281 50.4872 49.4663C50.4872 49.2821 50.5148 49.0979 50.5424 48.9137C50.5148 48.84 50.4964 48.8031 50.4964 48.8031C50.4964 48.8031 50.524 48.8031 50.5608 48.8031C50.5977 48.5453 50.6529 48.2874 50.7174 48.0387C50.745 47.9374 50.7819 47.8268 50.8095 47.7347C50.7819 47.2558 50.874 46.74 51.0214 46.7492C51.0674 46.7492 51.1043 46.786 51.1411 46.8413C51.224 46.6571 51.3161 46.4913 51.4082 46.3347C51.4358 46.2887 51.4727 46.2426 51.5003 46.1966C51.5279 46.1505 51.5648 46.1045 51.5924 46.0676C52.0622 45.4505 52.7069 45.0268 53.8029 44.3084C56.4556 42.5584 56.4279 39.1321 56.2161 37.2347C56.2161 37.1703 56.2069 37.0966 56.1977 37.0229C56.0595 35.7518 56.0135 34.5637 56.0227 33.5137V33.3755C56.0227 33.265 56.0227 33.1545 56.0227 33.0531C56.0227 32.9518 56.0227 32.8505 56.0227 32.7492C56.0227 32.611 56.0227 32.4637 56.0411 32.3347C56.0411 32.1874 56.0503 32.0492 56.0595 31.9018C56.0779 31.5242 56.1056 31.165 56.1424 30.8426C56.1516 30.7045 56.17 30.5755 56.1793 30.4466C56.1793 30.4374 56.1793 30.4281 56.1793 30.4189C56.1885 30.3176 56.1977 30.2163 56.2161 30.1242C56.2253 30.0321 56.2345 29.94 56.2529 29.8571C56.2529 29.7926 56.2714 29.7374 56.2806 29.6821C56.3911 28.89 56.4924 28.4479 56.4924 28.4479L53.7016 25.5926L44.2516 15.9492L42.5937 14.2637C42.5937 14.2637 41.295 14.9821 40.9082 15.9031C40.9082 15.9031 41.6727 15.7926 41.9398 15.7926C41.9398 15.7926 40.8622 16.6676 40.5766 17.2479L41.5898 17.0268C41.5898 17.0268 38.845 19.4676 37.5279 23.336C36.22 27.2045 31.7714 30.5479 27.4424 32.5189C25.7753 33.2742 24.1082 34.3518 22.5424 35.6874C14.87 42.2268 9.85952 54.9097 21.649 65.6953L21.6398 65.6676Z" fill="#DF9100"/>
<path d="M35.0319 43.5162C35.0319 43.5162 37.1871 44.8241 37.3898 45.3952C37.5924 45.9662 38.3016 65.0597 38.3016 65.0597C44.6753 63.3557 49.3911 59.5149 50.4963 54.0162C50.5977 53.482 50.5977 52.8833 50.57 52.2478C50.5516 51.9347 50.5332 51.6031 50.5148 51.2715C50.5148 51.2255 50.5148 51.1886 50.5148 51.1426C50.4871 50.5991 50.4687 50.0281 50.4963 49.4662C50.6529 49.5399 50.745 50.0833 50.745 50.0833C50.7911 49.586 50.6345 49.1255 50.5516 48.9228C50.524 48.8491 50.5055 48.8123 50.5055 48.8123C50.5055 48.8123 50.5332 48.8123 50.57 48.8123C50.6345 48.8215 50.7266 48.8768 50.8187 49.0333C50.9661 49.2912 51.0213 49.6044 51.0213 49.6044C51.0213 49.6044 51.1687 48.8123 50.9477 48.3241C50.874 48.1768 50.8371 47.9649 50.8279 47.7439C50.8003 47.2649 50.8924 46.7491 51.0398 46.7583C51.0858 46.7583 51.1227 46.7952 51.1595 46.8505C51.2977 47.0439 51.3621 47.5044 51.3621 47.5044C51.5924 47.1728 51.5003 46.6386 51.4266 46.3439C51.4358 46.3255 51.4542 46.307 51.4634 46.2886C51.4819 46.261 51.5003 46.2333 51.5187 46.2057C51.5463 46.1597 51.5832 46.1136 51.6108 46.0768C52.0805 45.4597 52.7253 45.036 53.8213 44.3176C53.8398 44.3083 53.849 44.2991 53.8674 44.2807C56.474 42.5215 56.4463 39.1228 56.2253 37.2347C56.2253 37.1702 56.2161 37.0965 56.2069 37.0228C56.1608 36.507 56.1148 35.7702 56.0963 35.3557C56.0963 35.3189 56.1608 35.411 56.2345 35.4755C56.3634 35.5768 56.5845 35.6228 56.5845 35.6228C56.5845 35.6228 56.2529 35.4478 56.124 34.8123C55.9858 34.1031 56.4832 35.0057 56.4832 35.0057C56.4832 35.0057 56.4095 34.6649 56.2345 34.2965C56.1148 34.0386 56.0411 33.6518 56.0319 33.5228C56.0319 33.5136 56.0319 33.5044 56.0319 33.4952C56.0319 33.4583 56.0319 33.4215 56.0319 33.3847C56.0319 33.2741 56.0319 33.1636 56.0319 33.0623C56.0319 32.961 56.0319 32.8597 56.0319 32.7583C56.0319 32.6202 56.0319 32.4728 56.0503 32.3439C56.0503 32.1965 56.0595 32.0583 56.0687 31.911C56.0871 31.5333 56.1148 31.1741 56.1516 30.8518C56.1608 30.7136 56.1792 30.5847 56.1884 30.4557C56.1884 30.4465 56.1884 30.4373 56.1884 30.4281C56.1977 30.3268 56.2069 30.2255 56.2253 30.1333C56.2345 30.0412 56.2437 29.9491 56.2621 29.8662C56.2621 29.8018 56.2805 29.7465 56.2898 29.6912L50.22 28.457C50.22 28.457 49.5661 29.9491 49.3266 31.6807C49.1884 32.6939 49.1884 33.7991 49.5477 34.7294C50.1648 36.3412 46.7569 39.1136 44.0398 40.7347C42.5016 41.6557 41.1845 42.2083 40.9727 41.9597C40.9542 41.9412 40.9358 41.9228 40.9082 41.8952C40.1529 41.232 36.5792 40.3478 35.5753 40.6426C35.5753 40.6426 39.0845 41.186 39.5542 42.2176C39.4805 42.1899 38.0345 41.6189 37.7766 41.8491C37.7766 41.8491 41.0003 43.3965 41.074 44.0044C41.074 44.0044 38.4121 42.9636 38.2095 43.5347C38.0069 44.1057 39.5911 43.7005 40.024 44.511C40.024 44.511 35.6858 43.2031 35.0503 43.5347L35.0319 43.5162Z" fill="#FFED9B"/>
<g style="mix-blend-mode:multiply" opacity="0.2">
<path d="M48.6082 30.9442C48.8384 31.2573 49.0687 31.4876 49.3082 31.6534C50.3766 32.4271 51.4082 31.9757 51.7397 32.9244C52.145 34.0757 54.7608 34.7665 54.6318 34.0665C54.4937 33.3573 54.199 32.6021 54.8805 32.7494C55.5621 32.906 55.7095 33.8547 56.0226 33.3665C56.0226 33.256 56.0226 33.1455 56.0226 33.0442C56.0226 32.9428 56.0226 32.8415 56.0226 32.7402C56.0226 32.6021 56.0226 32.4547 56.0411 32.3257C56.0411 32.1784 56.0503 32.0402 56.0595 31.8928C56.0779 31.5152 56.1055 31.156 56.1424 30.8336C56.1516 30.6955 56.17 30.5665 56.1792 30.4376C56.1792 30.4284 56.1792 30.4192 56.1792 30.41C56.1884 30.3086 56.1976 30.2073 56.2161 30.1152C56.2253 30.0231 56.2345 29.931 56.2529 29.8481C56.2529 29.7836 56.2713 29.7284 56.2805 29.6731C56.3911 28.881 56.4924 28.4389 56.4924 28.4389L53.7016 25.5836C50.6161 25.381 45.6884 25.1784 45.4582 25.8968C45.1174 26.9376 47.3371 29.2126 48.6174 30.9534L48.6082 30.9442Z" fill="#752358"/>
</g>
<path d="M45.053 21.6694C45.0346 25.722 46.0109 27.518 50.1004 29.5536C54.9451 31.9759 61.2359 30.8983 62.6267 28.7891C63.6583 27.2233 64.6898 25.8878 65.1504 25.2983C65.3162 25.0957 65.4083 24.9759 65.4083 24.9759C65.4083 24.9759 65.2517 23.1062 64.7175 20.8404C64.0543 17.9851 62.4701 14.9733 60.5175 13.2786C58.2332 11.2891 54.6227 10.3772 51.6385 10.3404C50.349 10.322 49.1701 10.4694 48.2767 10.7733C45.3201 11.7588 45.053 21.0707 45.053 21.6786V21.6694Z" fill="#DF9100"/>
<g style="mix-blend-mode:multiply" opacity="0.2">
<path d="M40.8898 41.8762C40.9358 42.0512 41.0095 42.2354 41.1016 42.438C42.0964 44.492 43.8648 45.4314 43.8648 45.4314L43.8003 44.9617C43.8003 44.9617 45.6977 46.2604 45.5779 46.0393C45.2187 45.3854 45.9832 45.717 46.9964 46.242C48.249 46.8867 49.2253 45.8367 49.9161 46.4722C50.5977 47.1078 50.8187 46.7209 51.4358 46.2788C51.4543 46.2512 51.4727 46.2235 51.4911 46.1959C51.5187 46.1499 51.5556 46.1038 51.5832 46.067C52.0529 45.4499 52.6977 45.0262 53.7937 44.3078C53.8122 44.2985 53.8214 44.2893 53.8398 44.2709C53.7753 43.7183 53.4806 43.2117 53.4806 43.2117L44.0214 40.7156L41.1016 39.9512C41.1016 39.9512 40.5398 40.688 40.8898 41.8854V41.8762Z" fill="#752358"/>
</g>
<path opacity="0.23" d="M51.6293 10.4325C51.6753 12.247 54.503 11.8878 57.7727 14.043C61.0424 16.1983 62.1477 23.9628 62.1477 23.9628L65.1411 25.3075C65.3069 25.1049 65.399 24.9851 65.399 24.9851C65.399 24.9851 65.2424 23.1154 64.7082 20.8496C64.0451 17.9943 62.4609 14.9825 60.5082 13.2878C58.224 11.2983 54.6135 10.3865 51.6293 10.3496C51.6293 10.3772 51.6293 10.4049 51.6293 10.4417V10.4325Z" fill="#F0B341"/>
<g style="mix-blend-mode:multiply" opacity="0.2">
<path d="M22.5332 35.6596C23.0858 35.6688 23.749 35.5859 24.5411 35.3649C29.0819 34.1214 33.1437 30.9438 35.7043 29.8662C40.3095 27.932 41.2858 22.5254 41.7556 19.9649C42.2253 17.4135 44.2424 17.1741 44.2424 17.1741V15.9306L42.5845 14.2451C42.5845 14.2451 41.2858 14.9635 40.899 15.8846C40.899 15.8846 41.6635 15.7741 41.9306 15.7741C41.9306 15.7741 40.8529 16.6491 40.5674 17.2293L41.5806 17.0083C41.5806 17.0083 38.8358 19.4491 37.5187 23.3175C36.2108 27.1859 31.7622 30.5293 27.4332 32.5004C25.7661 33.2556 24.099 34.3333 22.5332 35.6688V35.6596Z" fill="#CCA5A5"/>
</g>
<path d="M58.7582 22.6824C58.7582 22.6824 58.8503 18.1416 55.6542 17.0364C53.4253 16.2627 51.7489 16.6587 50.8739 17.8469C50.0726 18.9245 50.2384 22.8022 53.5542 23.5943C56.87 24.3864 58.7582 22.6916 58.7582 22.6916V22.6824Z" fill="#FFED9B"/>
<path d="M57.3397 21.918C57.5239 21.6509 57.1187 21.3101 57.1095 21.0799C57.1002 20.8496 57.0266 18.6575 54.8621 18.418C53.6924 18.2891 52.7437 19.1825 52.3384 19.1272C51.8779 19.0628 52.1726 19.4772 52.6884 19.9193C52.6884 19.9193 52.5687 21.9088 53.9318 22.4799C55.3595 23.0785 56.3358 22.2035 56.5845 22.1391C56.8331 22.0746 57.1463 22.1851 57.3305 21.918H57.3397Z" fill="#291700"/>
<path d="M53.1766 20.1123C52.9003 21.0517 53.4437 22.0281 54.3739 22.2952C54.6871 22.3873 55.0095 22.3873 55.3042 22.3044C55.8845 22.157 56.3818 21.7149 56.5568 21.0886C56.7871 20.3057 56.4371 19.486 55.7647 19.0899C55.6358 19.0162 55.4976 18.9517 55.3503 18.9057C54.42 18.6386 53.4437 19.1728 53.1674 20.1031L53.1766 20.1123Z" fill="white"/>
<path d="M53.6279 20.186C53.37 21.0702 53.8766 21.9821 54.7516 22.24C54.9358 22.2952 55.12 22.3137 55.3042 22.3045C55.8845 22.1571 56.3818 21.715 56.5568 21.0887C56.7871 20.3058 56.4371 19.486 55.7647 19.09C55.7371 19.0808 55.7095 19.0716 55.6726 19.0624C54.7976 18.8045 53.8766 19.311 53.6187 20.1953L53.6279 20.186Z" fill="#AD8D00"/>
<path d="M55.2213 21.8258C55.8673 21.8258 56.391 21.3021 56.391 20.6561C56.391 20.01 55.8673 19.4863 55.2213 19.4863C54.5753 19.4863 54.0516 20.01 54.0516 20.6561C54.0516 21.3021 54.5753 21.8258 55.2213 21.8258Z" fill="black"/>
<path d="M55.7187 19.4125C55.7187 19.4125 56.0226 19.8085 55.7832 20.1033C55.5437 20.398 55.4055 20.1309 55.4608 20.0111C55.5161 19.8914 55.4976 19.3848 55.5161 19.3572C55.5345 19.3296 55.7187 19.4125 55.7187 19.4125Z" fill="white"/>
<path d="M64.1187 24.4049C64.1187 24.4049 63.17 24.4786 62.5529 24.0273C61.9358 23.576 60.9411 24.9207 60.9319 25.5747C60.9227 26.2286 59.7253 28.4115 57.6437 28.4299C57.6437 28.4299 51.9884 32.2615 46.4898 26.4036C45.9003 25.7773 45.449 25.1326 45.1819 23.9444C45.1819 23.9444 44.9424 25.9062 46.0477 27.0668C46.0477 27.0668 45.6884 27.1312 45.4398 26.9562C45.4398 26.9562 46.1305 27.8773 47.3003 28.1905C47.3003 28.1905 46.5082 28.1905 46.3332 28.0339C46.3332 28.0339 46.7661 28.9549 48.4424 29.222C48.4424 29.222 48.9582 30.7786 51.0858 31.1655C51.0858 31.1655 50.8924 31.4233 50.9937 31.5431C50.9937 31.5431 51.4727 31.1378 52.0898 31.0365C52.0898 31.0365 51.924 31.2483 51.8963 31.5983C51.8687 31.9483 51.6845 32.3076 51.6845 32.3076C51.6845 32.3076 52.4582 31.8286 52.5042 31.5891C52.5042 31.5891 52.4121 32.022 52.2463 32.2155C52.2463 32.2155 52.9555 32.2062 53.1305 31.9576C53.1305 31.9576 52.9832 32.3905 52.9832 32.6391C52.9832 32.6391 53.72 32.3168 53.8582 31.9299C53.8582 31.9299 54.0516 32.5655 54.3648 32.7957C54.3648 32.7957 54.5029 32.1694 54.7332 31.9115C54.7332 31.9115 54.899 32.4918 55.1292 32.5747C55.1292 32.5747 55.1937 32.0957 55.8845 31.7365C55.8845 31.7365 55.9766 32.0036 55.7648 32.1878C55.7648 32.1878 56.2161 32.501 56.6121 31.8747C56.6121 31.8747 56.7411 32.7773 56.5753 32.9431C56.5753 32.9431 57.0911 32.3905 57.3121 31.9207L57.2477 32.197C57.2477 32.197 58.0582 32.2799 59.2463 30.972C59.2463 30.972 58.8871 31.8562 58.7674 31.9483C58.7674 31.9483 60.6371 31.2115 61.1621 30.2536C61.1621 30.2536 61.2082 30.9352 60.9134 31.2944C60.9134 31.2944 62.47 30.926 63.2713 29.001C64.0727 27.076 64.1279 24.4141 64.1279 24.4141L64.1187 24.4049Z" fill="#FFED9B"/>
<path d="M60.2871 27.5551C60.2871 27.7945 60.2963 28.0156 60.3332 28.209C60.4621 28.9643 60.895 29.3787 62.0095 29.3787C63.4095 29.3787 64.5884 28.4761 64.5884 27.2972C64.5884 26.6432 64.2292 25.9893 63.6674 25.5656C63.2161 25.2248 62.6358 25.0314 62.0187 25.1235C61.0884 25.2616 60.2963 27.0393 60.2963 27.5551H60.2871Z" fill="#FFED9B"/>
<path d="M63.4463 25.7588C63.4647 25.8601 63.5292 25.9246 63.6213 26.0075C63.8792 26.2286 64.3489 26.5141 64.5608 27.6378C64.5608 27.6378 66.191 27.4444 66.6239 26.3391C66.7252 26.0812 66.7621 25.768 66.6976 25.3996C66.5963 24.8286 66.1818 24.4233 65.8134 24.1838C65.5094 23.9812 65.2516 23.8799 65.2516 23.8799C65.2516 23.8799 65.2976 24.3036 64.6713 24.2944C63.9989 24.2851 63.566 24.7273 63.4555 25.2246C63.4187 25.3996 63.4094 25.5838 63.4555 25.7496L63.4463 25.7588Z" fill="#1B0036"/>
<path opacity="0.37" d="M65.62 24.506C65.2424 24.6902 64.7082 24.3218 64.699 24.6625C64.699 24.8836 65.1687 25.3073 66.1174 25.556C66.2832 25.602 66.5595 25.5375 66.6885 25.3994C66.5871 24.8283 66.1727 24.4231 65.8042 24.1836C65.8411 24.2849 65.7306 24.4415 65.6108 24.506H65.62Z" fill="#D68AFF"/>
<g style="mix-blend-mode:multiply">
<path d="M63.4463 25.759C63.4647 25.8603 63.5292 25.9248 63.6213 26.0077C63.8792 26.2287 64.3489 26.5142 64.5608 27.6379C64.5608 27.6379 66.191 27.4445 66.6239 26.3392C66.6239 26.3392 65.9884 26.7721 65.0766 26.2379C64.1647 25.7129 64.2015 24.9116 63.4555 25.2248C63.4187 25.3998 63.4094 25.584 63.4555 25.7498L63.4463 25.759Z" fill="#3E007D"/>
</g>
<g style="mix-blend-mode:multiply">
<path d="M60.3424 28.2176C60.4714 28.9729 60.9042 29.3874 62.0187 29.3874C63.4187 29.3874 64.5977 28.4847 64.5977 27.3058C64.5977 26.6518 64.2385 25.9979 63.6766 25.5742C63.6121 25.5834 63.5477 25.6111 63.4832 25.6479C63.4832 25.6479 63.4464 26.0255 63.8148 26.4492C64.1924 26.8637 64.57 27.6558 64.2753 28.0979C63.9806 28.5308 63.1424 29.5347 61.8437 29.2124C60.6279 28.9084 60.3793 28.2913 60.3516 28.2176H60.3424Z" fill="#A08AB3"/>
</g>
<path d="M63.6213 26.007C63.8792 26.2281 64.349 26.5136 64.5608 27.6373C64.5608 27.6373 64.7542 27.0478 64.4687 26.4491C64.2569 26.0163 63.7871 25.832 63.6306 26.007H63.6213Z" fill="#28004F"/>
<path d="M62.4055 25.7027C60.7199 24.8461 58.7765 24.3948 56.8884 24.6803C58.7673 24.4408 60.6831 24.929 62.3318 25.8132C62.4055 25.8592 62.4792 25.7395 62.3963 25.7027H62.4055Z" fill="#613800"/>
<path d="M62.166 26.0526C60.3331 25.5921 58.3345 25.5737 56.566 26.2737C58.3437 25.6197 60.3239 25.6842 62.1292 26.1816C62.2121 26.2092 62.2581 26.0803 62.166 26.0526Z" fill="#613800"/>
<path d="M61.862 26.4031C59.9739 26.2557 58.012 26.5781 56.3726 27.5636C58.012 26.6242 59.9739 26.3478 61.8436 26.532C61.9265 26.5505 61.9449 26.4123 61.862 26.4031Z" fill="#613800"/>
<path d="M62.6542 26.6978C60.7661 26.6794 58.8226 27.1399 57.2568 28.2267C58.8318 27.1767 60.7753 26.7623 62.645 26.8267C62.7279 26.8267 62.7463 26.6978 62.645 26.6978H62.6542Z" fill="#613800"/>
<path d="M62.2766 27.1211C60.3976 27.3514 58.5371 28.0606 57.1279 29.35C58.5463 28.1066 60.4252 27.4435 62.2858 27.2593C62.3687 27.2593 62.3687 27.1211 62.2766 27.1303V27.1211Z" fill="#613800"/>
<path d="M61.0239 27.085C59.145 27.3152 57.2845 28.0244 55.8752 29.3139C57.2937 28.0705 59.1634 27.4073 61.0331 27.2231C61.116 27.2231 61.116 27.085 61.0239 27.0942V27.085Z" fill="#613800"/>
<path d="M43.1187 10.3396C42.8332 10.6988 40.9358 13.7567 43.1095 16.133C44.3069 17.4409 45.2279 18.2514 45.8082 18.7212C46.2963 19.108 46.545 19.2554 46.545 19.2554L48.9398 15.3962C48.9398 15.3962 48.9766 15.3409 49.0319 15.2396C49.0319 15.2396 49.0319 15.2396 49.0319 15.2304C49.0595 15.1843 49.0779 15.1383 49.0963 15.0922C49.0963 15.0922 49.0963 15.0738 49.1055 15.0646C49.4095 14.3922 49.87 12.6883 48.7648 9.98039C47.8345 7.7146 47.4753 6.61854 46.8029 5.82644C46.4713 5.43039 46.0569 5.11723 45.449 4.77644C43.699 3.7817 42.5661 1.63565 42.4924 1.48828C42.5569 1.66328 43.57 4.44486 44.2608 4.99749C43.9661 4.80407 42.8424 4.0396 42.6766 3.6896C42.7042 3.77249 42.8884 4.41723 43.0726 4.66591L42.3819 4.19618C42.4371 4.27907 43.3674 5.55012 43.6529 6.1396C43.6253 6.09354 43.2108 5.56854 42.3634 5.11723C42.0963 4.97907 41.7924 4.84091 41.4424 4.7396C41.5529 4.80407 43.2753 5.82644 43.3029 7.7146L42.9253 7.30933C42.9253 7.30933 42.9253 8.32249 43.349 9.01328C43.349 9.01328 43.1463 8.83828 42.9898 8.90276C42.9898 8.90276 43.395 9.9896 43.1003 10.3396H43.1187Z" fill="#DF9100"/>
<path d="M44.97 6.28711C44.97 6.28711 45.4306 6.64632 46.149 7.56737C46.6187 8.16606 47.0424 9.52 47.1529 10.6805C47.2635 11.8411 47.9358 13.2595 47.9358 13.2595C47.9358 13.2595 46.9595 13.1858 46.6648 12.845C46.6648 12.845 46.9135 14.6779 47.3924 15.0647C47.8713 15.4516 48.2306 16.1147 47.7332 16.3082C47.2358 16.5016 47.1437 16.9161 47.2266 17.2845C47.3095 17.6529 47.3648 18.27 46.9871 17.8095C46.6095 17.349 46.1398 16.5016 46.0477 16.9621C45.9556 17.4226 46.1582 17.9753 46.1582 17.9753C46.1582 17.9753 45.5411 17.4042 45.4858 17.1279C45.4306 16.8516 46.2135 8.80158 45.8911 8.07395C45.3845 6.94106 44.9792 6.29632 44.9792 6.29632L44.97 6.28711Z" fill="#F0CD8B"/>
<path d="M45.2924 6.86719C45.2924 6.86719 46.7016 8.69087 46.7016 10.3488C46.7016 12.0067 47.5489 12.9277 47.5489 12.9277C47.5489 12.9277 46.3424 12.5501 46.2963 12.0527C46.2963 12.0527 46.4713 14.4843 47.466 15.4053C48.4608 16.3264 46.7753 16.7777 46.5911 15.2303C46.5911 15.2303 46.5911 16.0132 46.6555 16.354C46.72 16.6948 47.1068 17.5146 47.1068 17.5146C47.1068 17.5146 46.0937 15.829 45.8266 16.4185C45.5595 17.008 46.0292 17.8093 46.0292 17.8093C46.0292 17.8093 44.7489 17.0264 44.5463 14.8988C44.3437 12.7711 45.0805 11.9422 44.2332 11.1132C44.2332 11.1132 44.7489 11.1593 44.8871 11.3343C44.8871 11.3343 44.8871 10.4409 44.5095 10.3856C44.5095 10.3856 44.8871 10.1738 45.0253 10.533C45.1082 10.7632 45.0068 9.90666 45.0897 8.84745C45.1358 8.23035 45.5595 7.67771 45.2924 6.8764V6.86719Z" fill="#452A1A"/>
<path d="M46.5543 6.4626C47.2082 7.54023 48.7924 10.3771 49.2898 12.56C49.2898 12.56 49.5569 14.0705 49.1332 15.0652C49.4372 14.3929 49.8977 12.6889 48.7924 9.98102C47.8622 7.71523 47.503 6.61918 46.8306 5.82707C46.5266 5.7626 46.1398 5.78102 46.5543 6.4626Z" fill="#F0B341"/>
<path d="M43.1187 10.3398C42.8332 10.699 40.9358 13.7569 43.1095 16.1332C44.3069 17.4411 45.2279 18.2517 45.8082 18.7214C45.7621 18.6201 45.6977 18.5188 45.6148 18.4082C44.5648 16.999 43.3766 15.7832 42.8332 14.4017C42.299 13.0109 43.1003 11.8227 43.6161 11.2148C44.1319 10.6161 43.2753 9.22534 43.524 9.60297C43.7727 9.9806 43.9753 9.77797 43.8371 9.28981C43.7174 8.86613 43.3029 8.22139 43.1924 8.0556C43.3029 8.21218 43.699 8.72797 43.8095 8.30429C43.9477 7.81613 43.4319 6.75692 43.2292 6.08455C43.1463 5.79902 42.7779 5.43981 42.3727 5.12665C42.1055 4.9885 41.8016 4.85034 41.4516 4.74902C41.5621 4.8135 43.2845 5.83587 43.3121 7.72402L42.9345 7.31876C42.9345 7.31876 42.9345 8.33192 43.3582 9.02271C43.3582 9.02271 43.1555 8.84771 42.999 8.91218C42.999 8.91218 43.4042 9.99902 43.1095 10.349L43.1187 10.3398Z" fill="#BD7B00"/>
<path d="M24.3477 67.2801C24.3477 67.2801 26.9174 68.3854 26.4384 67.7683C26.3371 67.6393 26.7424 67.713 27.0095 67.7959C27.9029 68.0446 28.5384 68.5604 28.1608 67.9617C27.8845 67.5104 28.2713 67.5565 28.5384 67.7867C29.1279 68.2841 30.0858 68.3762 29.92 68.2841C28.5384 67.4644 31.1542 68.1091 31.495 68.1551C32.4713 68.2933 33.9082 68.2657 33.9082 68.2657C33.9082 68.2657 33.6595 68.1459 33.6134 68.0446C33.5674 67.9433 34.2858 68.0078 35.1977 68.1828C36.1187 68.3578 36.7266 68.1828 36.7266 68.1828C36.7266 68.1828 36.2845 67.842 36.4779 67.7775C36.8187 67.6762 38.099 67.8512 38.6516 67.9986C38.6516 67.9986 38.6977 68.017 38.7898 68.0446C39.6003 68.3117 43.7542 69.6933 44.9884 69.8867C45.0069 69.8867 45.0345 69.8867 45.0529 69.8867C45.4674 69.942 45.8542 69.9696 46.2134 69.9788C46.5082 69.9788 46.7845 69.9788 47.0424 69.9512C50.5884 69.6657 50.6437 66.8657 50.6437 66.8657C50.6437 66.8657 50.6713 66.7551 50.6713 66.5801C50.6713 66.0736 50.4411 65.0236 48.7371 64.5538C48.2582 64.4249 47.6687 64.342 46.9319 64.3236C42.8977 64.2315 40.0884 65.1617 38.1911 64.4801C38.0713 64.4433 37.97 64.3972 37.8595 64.342C36.3674 63.6051 28.87 65.8341 25.7384 66.8196C25.4529 66.9117 25.2042 66.9854 25.0016 67.0499C24.9371 67.0683 24.8727 67.0867 24.8174 67.1051C24.5227 67.1973 24.3661 67.2525 24.3661 67.2525L24.3477 67.2801Z" fill="#D47F00"/>
<path opacity="0.52" d="M38.7897 68.0347C39.6003 68.3018 43.7542 69.6834 44.9884 69.8768C45.0068 69.8768 45.0345 69.8768 45.0529 69.8768C45.4674 69.9321 45.8542 69.9597 46.2134 69.969C46.5082 69.969 46.7845 69.9689 47.0424 69.9413C50.5884 69.6558 50.6437 66.8558 50.6437 66.8558C50.6437 66.8558 50.6713 66.7453 50.6713 66.5703C50.6713 66.0637 50.441 65.0137 48.7371 64.5439C49.1608 64.9584 49.2989 65.3913 48.0279 65.2992C45.6147 65.1426 46.0384 65.4097 46.0384 65.4097C46.0384 65.4097 47.8437 65.4558 48.1292 66.2295C48.4147 67.0124 46.2318 65.4926 45.2555 65.9624C44.2884 66.4321 47.3003 66.0821 47.1345 67.4545C46.9687 68.8268 45.2371 66.5058 43.8924 67.0953C42.5476 67.6755 47.1805 67.915 45.4121 68.6518C43.9384 69.269 42.0042 67.7584 40.0147 67.7768C39.6095 67.7768 39.2134 67.8505 38.7989 68.0071L38.7897 68.0347Z" fill="#FFED9B"/>
<g style="mix-blend-mode:multiply" opacity="0.47">
<path d="M47.0331 69.9601C50.5792 69.6654 50.6345 66.8746 50.6345 66.8746C50.6345 66.8746 50.6621 66.7641 50.6621 66.5891C50.2016 65.9628 49.4371 65.8891 49.345 65.8799C49.4279 65.9075 50.0542 66.1654 50.3305 66.7365C50.4502 67.0036 50.6529 67.3351 50.3858 67.722C50.22 67.9523 49.9897 68.1457 49.8055 68.0259C48.9766 67.5009 48.1016 67.2522 47.9542 67.2154C48.0463 67.2522 48.4608 67.4549 49.2989 68.0812C49.9252 68.5417 49.3726 69.1496 48.8292 69.3522C48.5345 69.4628 48.3318 69.6378 48.1292 69.2325C47.5397 68.0628 46.8397 68.3391 46.8397 68.3391C47.9174 69.0667 47.5674 69.6101 47.0331 69.9509V69.9601Z" fill="#502375"/>
</g>
<path d="M19.9911 62.5908C20.4148 63.954 21.5937 65.1882 22.6253 66.0448C23.5371 66.8092 24.32 67.2698 24.3569 67.279C24.449 67.2882 25.2134 67.2237 26.3832 67.0671C29.1279 66.7171 34.1384 65.8974 38.1911 64.4882C38.8266 64.2671 39.4345 64.0369 40.0055 63.7882C42.7595 62.5908 45.0805 59.4961 45.0805 56.1342C45.0898 51.2619 43.6437 49.6777 41.5805 47.725C39.1858 45.4592 36.0542 45.0908 34.0371 45.0908C31.799 45.0908 30.8134 45.8553 29.3582 46.9053C27.9029 47.9553 28.5477 49.9724 28.8608 49.1527C29.174 48.3237 29.5792 48.3698 29.5792 48.3698C29.5792 48.3698 28.1977 52.4961 29.4134 50.525C30.62 48.554 35.5384 46.4448 37.5095 53.1224C38.2832 55.7474 37.0121 59.4869 33.7792 60.8408C29.5977 62.6 27.9858 57.8474 27.9858 57.8474C27.9858 57.8474 28.0963 59.4408 27.5621 58.1606C27.5621 58.1421 27.5529 58.1329 27.5529 58.1329C27.5529 58.1698 27.6542 58.6027 27.3779 58.9619C26.8805 59.6158 26.7516 60.1224 25.4345 60.15C24.974 60.1592 24.1266 59.8645 23.0582 57.4421C22.9569 57.2027 23.3253 58.9342 23.1319 58.7869C22.5884 58.3816 22.1463 58.1053 22.0266 58.4C21.8424 58.8329 21.9253 60.9606 21.4463 61.6606C20.9029 62.4619 19.0516 59.5329 19.9911 62.5816V62.5908Z" fill="#D47F00"/>
<g style="mix-blend-mode:multiply" opacity="0.47">
<path d="M22.5792 65.8983L22.6161 66.0457C22.9384 66.322 23.2516 66.5523 23.5187 66.7457C23.6016 66.8101 23.6292 66.9299 23.6753 67.022C23.8963 67.1233 24.1082 67.2062 24.3292 67.2799C24.3292 67.2799 24.3476 67.2799 24.3661 67.2891C24.6884 67.4273 26.8621 68.3391 26.4108 67.7588C26.3095 67.6299 26.7147 67.7036 26.9819 67.7865C27.8753 68.0351 28.5108 68.5509 28.1332 67.9523C27.8569 67.5009 28.2437 67.547 28.5108 67.7772C29.1003 68.2746 30.0582 68.3667 29.8924 68.2746C28.5108 67.4549 31.1266 68.0996 31.4674 68.1457C32.4437 68.2838 33.8805 68.2562 33.8805 68.2562C33.8805 68.2562 33.6318 68.1365 33.5858 68.0351C33.5397 67.9338 34.2582 67.9983 35.17 68.1733C36.0911 68.3483 36.699 68.1733 36.699 68.1733C36.699 68.1733 36.2568 67.8325 36.4503 67.768C36.7911 67.6667 38.0713 67.8417 38.624 67.9891C38.624 67.9891 38.67 68.0075 38.7621 68.0351C39.5726 68.3022 43.7266 69.6838 44.9608 69.8772C44.9792 69.8772 45.0069 69.8772 45.0253 69.8772C45.4397 69.9325 45.8266 69.9601 46.1858 69.9694L47.0147 69.9417C47.0147 69.9417 45.3753 69.9049 43.7818 69.3154C42.9621 69.0115 41.4792 68.3391 39.9871 67.7865C38.5687 67.2615 37.1411 66.8562 36.2661 66.9944C34.5529 67.2707 35.8424 67.8509 35.9437 67.897C35.8147 67.8786 33.77 67.5286 32.7569 67.2615C31.7161 66.9759 32.4713 67.8509 32.9411 67.9891C33.1621 68.0536 32.1397 68.0167 31.1726 67.7588C30.6476 67.6115 30.1226 67.418 29.7358 67.2891C29.3213 67.1509 29.0726 67.0957 29.1555 67.2615C29.1832 67.3075 29.2016 67.3536 29.22 67.3996C29.3766 67.7773 29.1832 67.7588 28.7134 67.4825C28.6121 67.418 28.4924 67.3444 28.3634 67.2615C27.5897 66.7457 27.2029 67.3351 27.5253 67.547C27.6819 67.6575 27.0371 67.3259 26.3647 67.0496C26.1437 66.9575 25.9134 66.8746 25.7108 66.8194C25.2687 66.6904 24.9371 66.6628 24.9832 66.9299C24.9924 66.9851 24.9832 67.022 24.974 67.0496C24.9463 67.1049 24.8818 67.1141 24.7897 67.1049C24.2095 67.0312 22.57 65.8799 22.57 65.8799L22.5792 65.8983Z" fill="#502375"/>
</g>
<path d="M0.879235 21.8809C0.879235 21.8809 0.704235 17.9849 1.91081 16.9902C1.91081 16.9902 1.73581 18.2888 1.78187 19.9375C1.84634 22.3507 2.37134 25.5191 4.55423 26.4494C4.55423 26.4494 7.46476 30.1704 11.0569 28.9178C14.6398 27.6652 13.774 23.2441 14.824 21.0244C15.4595 19.6796 18.2227 19.0165 19.9542 20.5362C20.295 20.8309 20.5898 21.2178 20.8292 21.6967C21.4832 23.023 21.1424 25.1507 21.1424 25.1507C21.1424 25.1507 21.0042 21.8809 19.7977 21.5678C19.7977 21.5678 21.2253 24.4783 20.1937 25.7862C20.1937 25.7862 20.2858 22.7375 19.1621 22.7836C19.1621 22.7836 20.4148 25.6388 18.499 28.5954C18.5727 28.4204 19.2634 26.7073 18.7569 26.2375C18.7569 26.2375 18.6648 28.4296 17.5411 29.2862C16.4174 30.1428 17.0529 32.7402 15.0266 34.4441C15.0266 34.4441 16.7306 31.4875 16.1963 29.4244C16.1963 29.4244 15.8832 32.6941 14.2253 33.9559C12.5674 35.2086 12.7424 39.1138 12.7424 39.1138C12.7424 39.1138 12.3832 33.6981 13.5898 31.9481C13.4884 32.0494 11.849 33.7902 11.7569 40.6428C11.7569 40.6428 10.3661 39.427 10.6332 37.8152C10.8266 36.673 9.7766 36.7652 9.21476 37.3823C8.9845 37.6309 8.83713 37.9717 8.88318 38.3586C8.88318 38.3586 9.3345 37.2349 9.82266 38.0454C10.3108 38.8559 9.37134 41.9046 9.59239 43.1112C9.82266 44.3178 8.38581 43.5165 7.43713 40.9836C7.43713 40.9836 7.21608 45.3494 8.3766 46.9704C8.3766 46.9704 5.86213 45.3586 5.59502 44.1888C5.59502 44.1888 6.84766 49.6138 8.2845 51.0507C8.2845 51.0507 7.90687 51.2994 7.09634 49.9454C6.28581 48.6007 4.49897 49.9454 4.96871 50.6823C4.96871 50.6823 5.84371 47.8638 8.1095 52.6533C8.0266 52.552 6.77397 50.977 6.07397 50.6638C6.13844 50.8204 8.32134 55.6652 9.40818 56.5309C9.34371 56.5033 8.30292 56.0796 6.46081 53.1415C6.59897 53.4178 8.56081 57.3415 9.97002 58.3178C9.87792 58.2809 8.43187 57.6823 6.93976 55.8862C7.11476 56.1349 10.0437 60.1599 13.3595 61.6796C13.3595 61.6796 11.7292 61.8362 7.89766 59.5152C8.01739 59.6257 9.93318 61.477 13.5621 62.6928C13.5621 62.6928 12.7792 63.1625 10.7161 62.5823C10.7161 62.5823 12.7792 64.6638 16.6753 65.2441C16.6753 65.2441 17.2187 66.5244 13.6082 65.8059C13.6082 65.8059 16.049 67.7309 17.9555 66.0086C17.9555 66.0086 18.3332 66.3402 17.4398 66.6994C17.4398 66.6994 18.4898 67.4638 19.6779 66.9481C19.6779 66.9481 20.1477 67.7217 21.4924 67.2152C21.4924 67.2152 22.8924 67.8323 23.8134 67.1138C23.8134 67.1138 21.6121 64.802 22.0174 64.1296C22.0174 64.1296 21.2161 63.8533 21.2069 64.5809C21.2069 64.5809 20.8477 62.5178 21.2069 62.2507C21.52 62.0112 20.5898 62.5362 20.3319 62.9138C20.47 62.4165 20.7463 61.0441 20.5806 60.1415C20.4056 59.2112 20.0003 58.9257 20.0003 58.9257C20.0003 58.9257 20.1753 59.8652 19.6871 60.2704C19.6871 60.2704 20.0924 57.9402 19.6871 56.5494C19.6871 56.5494 19.595 57.1296 19.1437 57.2217C18.9227 57.2678 17.8727 51.0967 19.4569 45.2849C21.0411 39.4731 25.2687 34.0204 28.1148 32.648C33.8069 29.9125 37.2148 28.3007 38.7345 26.6888C38.6516 26.7257 37.1042 27.4073 36.5424 27.2507C36.5424 27.2507 39.499 26.0441 39.9871 23.8152C39.9503 23.8888 39.5358 24.5612 38.6424 24.2204C38.6424 24.2204 39.7661 23.0599 39.9871 22.3138L38.8266 23.2717C38.9095 23.1428 40.2358 21.1165 40.245 19.4862C40.245 19.4862 39.849 21.3099 38.7345 21.577C38.7345 21.577 40.5582 16.6033 40.0332 17.5428C39.545 18.4178 38.3661 20.8494 38.1542 20.6652C37.9424 20.4717 40.4384 16.502 39.9042 15.4152C39.9042 15.4152 39.1766 18.2796 37.7121 18.9059C37.7121 18.9059 39.4713 15.148 38.9648 12.4125C38.9648 12.4125 38.6055 16.4007 37.6845 16.6125C37.6845 16.6125 39.195 9.87963 36.6437 6.29673C36.699 6.45331 37.9055 9.87963 36.2845 9.92568C36.2845 9.92568 36.3766 5.67042 34.4056 4.85989C34.4056 4.85989 35.9253 8.67305 34.0003 7.90858C32.0753 7.1441 31.7345 6.02963 31.2555 4.74937C30.4266 2.52963 28.6582 1.74673 27.9582 1.70068C27.9582 1.70068 29.6345 2.79673 29.3029 4.077C29.3029 4.077 28.1608 1.09279 25.0661 0.291471C25.0661 0.291471 26.4292 1.12042 26.0977 2.04147C26.0977 2.04147 21.5016 -0.445371 20.7003 0.0704184C20.7003 0.0704184 22.8556 0.503313 22.6713 1.52568C22.6069 1.90331 18.0108 0.0888394 15.5424 0.291471C15.5424 0.291471 18.5266 0.80726 18.8398 1.79279C18.8398 1.79279 11.9779 0.466471 11.195 0.991471C11.195 0.991471 16.9792 1.58094 17.1819 2.51121C17.32 3.13752 15.5056 2.02305 13.1937 1.77437C11.1582 1.55331 7.52002 1.68226 6.58976 2.51121C6.77397 2.47437 11.195 1.57173 11.9595 2.51121C12.7424 3.47831 5.61344 2.68621 3.98318 3.87437C3.98318 3.87437 10.4582 2.82437 10.8819 3.82831C10.8819 3.82831 4.53581 4.59279 4.02002 5.827C4.02002 5.827 7.96213 4.3441 8.77266 5.60594C8.77266 5.60594 5.56739 4.73094 1.87397 8.96779C-1.44182 12.7625 0.851603 21.8902 0.851603 21.8902L0.879235 21.8809Z" fill="#C97200"/>
<path d="M30.1411 29.3877C30.1411 29.3877 36.2661 28.7613 35.9253 22.314C35.9253 22.314 35.7871 23.889 34.1753 23.9442C34.1753 23.9442 36.2569 21.7153 35.7227 18.2153C35.7227 18.2153 34.5161 21.5403 33.5029 21.8258C33.5029 21.8258 37.8964 13.1034 33.0424 9.87055C33.0424 9.87055 35.2529 13.2969 33.9082 15.9219C33.9082 15.9219 34.1753 7.79819 27.7924 6.27845C27.7924 6.27845 29.2016 6.77582 29.4779 9.1245C29.7542 11.4732 29.3398 9.52977 28.1977 8.31398C28.1977 8.31398 29.745 10.8745 29.6069 12.3206C29.6069 12.3206 27.7924 7.58634 23.4174 6.26924C23.4174 6.26924 26.6411 8.44292 27.249 10.8653C27.249 10.8653 23.4819 5.14556 18.7753 5.28371C18.7753 5.28371 22.1371 5.93766 23.6845 9.14292C23.6845 9.14292 19.3832 5.0995 15.8832 6.26924C15.8832 6.26924 19.7792 6.4995 20.9306 8.78371C20.9306 8.78371 16.6937 6.42582 13.47 8.04687C13.47 8.04687 15.0174 7.64161 15.349 8.45213C15.349 8.45213 9.15951 9.1245 8.56083 10.3679C8.56083 10.3679 16.7674 9.23503 17.099 10.4232C17.099 10.4232 10.3108 10.3403 8.56083 13.2969C8.56083 13.2969 12.1253 11.9613 12.3924 12.3298C12.3924 12.3298 6.20293 14.9824 6.07398 17.064C5.94504 19.1456 6.68188 21.0982 6.68188 21.0982C6.68188 21.0982 6.47925 17.064 8.69898 16.1245C10.9187 15.185 9.90556 18.3534 8.49635 19.2561C7.08714 20.1587 8.90161 21.5034 8.90161 21.5034C8.90161 21.5034 7.82398 20.2324 9.71214 19.2561C11.6003 18.2798 12.6687 18.5469 13.1385 16.9995C13.1385 16.9995 14.345 17.1192 13.7464 18.4087C13.7464 18.4087 15.2292 17.9206 15.4503 15.8574C15.6714 13.7942 20.2121 11.639 18.3608 14.5127C18.2687 14.66 19.4385 15.3969 20.645 13.1679C21.4187 11.7403 24.9832 14.135 25.2595 14.2456C26.6964 14.789 23.6937 15.3969 23.6937 15.3969C23.6937 15.3969 25.3056 15.7192 26.7885 17.9666C28.2714 20.214 25.895 18.814 25.895 18.814C25.895 18.814 24.8635 21.5956 27.8661 26.0719C30.8687 30.5482 26.6964 30.935 26.6964 30.935C26.6964 30.935 29.4319 31.5153 30.1503 29.3692L30.1411 29.3877Z" fill="#D47F00"/>
<path d="M17.1634 50.8657C16.4911 49.4749 16.2884 49.8341 16.3161 48.4433C16.3621 45.5973 17.4674 40.9736 18.7384 38.717C18.7384 38.717 17.5319 40.596 17.1542 41.7197C17.1542 41.7197 16.62 37.3723 17.9463 35.8894C17.9463 35.8894 17.2648 35.3091 16.4082 36.7828C16.4082 36.7828 17.1266 32.6104 19.8161 31.0078C19.8161 31.0078 17.4858 31.6341 16.4082 34.4065C15.3306 37.1789 15.5608 39.7394 15.1556 40.2828C15.1556 40.2828 14.0779 38.3578 14.4832 36.9394C14.4832 36.9394 13.1384 38.0447 14.0779 40.9275C15.0174 43.8104 14.5753 44.667 14.5753 44.667C14.5753 44.667 14.0779 41.8394 13.0924 41.7565C13.0924 41.7565 14.2161 44.3999 13.8108 45.6526L12.8253 43.5433C12.8253 43.5433 13.1845 46.4078 13.9029 47.6236C13.9029 47.6236 13.0924 46.1039 12.2911 45.6986C12.2911 45.6986 14.0411 47.8078 14.3542 50.5433C14.6674 53.2789 14.3082 55.471 16.0582 56.5486C17.8082 57.6262 18.2134 57.8012 18.2134 57.8012C18.2134 57.8012 16.3345 55.3789 16.4174 54.5775C16.5003 53.7762 17.449 55.7473 17.449 55.7473C17.449 55.7473 16.3713 53.417 16.3713 52.0723C16.3713 50.7275 17.1819 53.2789 17.1819 53.2789C17.1819 53.2789 17.8542 52.2473 17.1819 50.8565L17.1634 50.8657Z" fill="#D47F00"/>
<g style="mix-blend-mode:multiply" opacity="0.2">
<path d="M5.00556 50.6548C5.00556 50.6548 5.88056 47.8363 8.14635 52.6258C8.06345 52.5245 6.81082 50.9495 6.11082 50.6363C6.17529 50.7929 8.35819 55.6376 9.44503 56.5034C9.38056 56.4758 8.33977 56.0521 6.49766 53.114C6.63582 53.3903 8.59766 57.314 10.0069 58.2903C9.91477 58.2534 8.46872 57.6548 6.97661 55.8587C7.15161 56.1074 10.0806 60.1324 13.3963 61.6521C13.3963 61.6521 11.7661 61.8087 7.93451 59.4876C8.05424 59.5982 9.97003 61.4495 13.599 62.6653C13.599 62.6653 12.8161 63.135 10.7529 62.5548C10.7529 62.5548 12.8161 64.6363 16.7121 65.2166C16.7121 65.2166 17.2556 66.4969 13.645 65.7784C13.645 65.7784 16.0858 67.7034 17.9924 65.9811C17.9924 65.9811 18.37 66.3127 17.4766 66.6719C17.4766 66.6719 18.5266 67.4363 19.7148 66.9205C19.7148 66.9205 20.1845 67.6942 21.5292 67.1876C21.5292 67.1876 22.9292 67.8048 23.8503 67.0863C21.3174 67.3074 19.6503 65.5666 18.895 64.7192C18.1306 63.8626 14.0503 63.4666 14.0503 63.4666C14.0503 63.4666 17.5042 63.4205 14.2713 61.7626C11.5727 60.3811 9.42661 58.2719 12.0332 59.7455C13.4885 60.5745 14.2529 59.7916 14.2529 59.7916C14.2529 59.7916 12.7792 59.0271 11.9871 58.4008C8.93845 55.9784 8.98451 54.2284 8.98451 54.2284C8.98451 54.2284 8.57924 52.0732 10.1082 54.0074C11.6371 55.9324 8.09108 47.3758 9.07661 48.4903C10.0621 49.614 11.0477 49.2916 9.74898 46.6942C8.4503 44.0969 10.3292 43.7837 10.6516 42.5679C10.9648 41.3613 10.2924 38.1745 10.2463 37.5482C10.2187 37.189 9.69372 37.2442 9.2424 37.3455C9.01214 37.5942 8.86477 37.935 8.91082 38.3219C8.91082 38.3219 9.36214 37.1982 9.8503 38.0087C10.3385 38.8192 9.39898 41.8679 9.62003 43.0745C9.8503 44.2811 8.41345 43.4798 7.46477 40.9469C7.46477 40.9469 7.24372 45.3126 8.40424 46.9337C8.40424 46.9337 5.88977 45.3219 5.62266 44.1521C5.62266 44.1521 6.87529 49.5771 8.31214 51.014C8.31214 51.014 7.93451 51.2626 7.12398 49.9087C6.31345 48.564 4.52661 49.9087 4.99635 50.6455L5.00556 50.6548Z" fill="#752358"/>
</g>
<g style="mix-blend-mode:multiply" opacity="0.47">
<path d="M1.78192 19.947C1.8464 22.3601 2.37139 25.5194 4.55429 26.4588C4.55429 26.4588 7.46482 30.1799 11.0569 28.9272C14.6398 27.6746 13.774 23.2536 14.824 21.0338C15.4596 19.6891 18.2227 19.0259 19.9543 20.5457C19.9543 20.5457 17.9924 17.2115 15.303 18.4641C12.6135 19.7167 13.6451 23.3088 12.7517 24.8286C11.849 26.3575 10.5964 23.797 11.0017 22.2312C11.0017 22.2312 9.51876 24.5154 10.5964 26.7628C11.674 29.0009 8.80955 29.5444 6.34113 26.993C6.41482 27.1128 7.32666 28.5588 6.34113 27.7022C5.30955 26.8088 4.10297 24.7457 3.96482 23.1707C3.96482 23.1707 3.62403 25.0312 3.96482 25.6851C3.96482 25.6851 2.16876 23.5391 1.79113 19.9562L1.78192 19.947Z" fill="#502375"/>
</g>
<path d="M39.6464 34.6651C38.9095 36.0928 39.6924 38.598 39.6924 38.598C39.7385 38.2388 39.9135 38.1743 39.9135 38.1743C39.6556 39.3625 40.2082 40.9375 40.3187 41.2414C40.1622 40.7625 40.5858 40.8454 40.5858 40.8454C40.6503 41.8033 41.7464 42.8993 41.8201 42.973C41.5069 42.5493 41.6266 42.2178 41.6266 42.2178C42.3082 43.9401 43.9293 44.7691 43.9293 44.7691C43.5701 44.3178 43.7082 43.9217 43.7082 43.9217C43.9201 44.5112 45.0437 45.3217 45.1174 45.377C44.5924 44.8612 44.8964 44.6217 44.8964 44.6217C45.3385 45.377 46.8858 45.9388 47.0701 46.0033C46.7753 45.8743 46.4437 45.1928 46.4161 45.1375C46.4898 45.1928 47.7885 46.077 49.3911 46.0125C51.049 45.948 54.4293 44.9349 54.9727 44.4191C55.1753 44.2256 55.3503 44.1428 55.553 44.2256C55.8201 44.327 56.124 44.7138 56.6122 45.4967C56.9161 45.9849 57.4687 45.9388 57.1464 46.2612C56.1148 47.2928 56.0503 48.1678 56.3819 48.6375C56.6398 48.9967 56.9622 48.6928 57.1003 48.5362C56.9437 48.7664 56.5569 49.4112 57.1372 49.6691C57.2845 49.7335 57.4227 49.752 57.5424 49.7335C58.003 49.6414 58.3069 48.9046 58.9148 47.6151C59.4858 46.3901 60.2503 45.8559 59.8174 44.0967C59.6793 43.5072 59.403 42.7888 58.9332 41.8493C58.8687 41.7112 58.7951 41.5822 58.7214 41.4625C56.8056 38.2756 53.0108 39.9888 51.1595 34.0941C50.2937 31.3401 48.5714 29.8756 47.1253 29.1112C45.7898 28.402 44.6845 28.2822 44.6845 28.2822C44.6845 28.2822 41.9951 29.2493 40.8806 29.8112C39.7569 30.373 39.2872 33.1546 39.2872 33.1546C38.9095 33.6428 38.8819 35.577 38.8819 35.577C38.9279 35.2454 39.6464 34.6928 39.6464 34.6928V34.6651Z" fill="#DF9100"/>
<path d="M57.1463 46.2425C56.1148 47.2741 56.0503 48.1491 56.3819 48.6188C56.6398 48.978 56.9621 48.6741 57.1003 48.5175C56.9437 48.7478 56.5569 49.3925 57.1371 49.6504C57.2845 49.7149 57.4227 49.7333 57.5424 49.7149C58.0029 49.6228 58.3069 48.8859 58.9148 47.5965C59.4858 46.3715 60.2503 45.8373 59.8174 44.078C59.8082 44.4465 59.7253 44.557 59.6148 44.6767C59.6148 44.6767 59.6332 43.9399 59.099 43.8754C58.5648 43.8109 59.1911 44.6951 58.9056 45.1373C58.6477 45.5333 58.399 44.6859 58.3437 44.5017C58.3806 44.6859 58.5279 45.5241 58.0213 45.4965C57.8371 45.4873 57.6898 44.8701 57.524 44.8241C57.4042 44.7873 57.2753 45.3307 57.1187 45.2478C57.0174 45.1925 56.9437 45.1096 56.87 44.9991C56.6582 44.7044 56.4924 44.2991 56.0319 44.2162C55.8569 44.1886 55.6542 44.1794 55.5621 44.2438C55.8292 44.3451 56.1332 44.732 56.6213 45.5149C56.9253 46.003 57.4779 45.957 57.1556 46.2794L57.1463 46.2425Z" fill="#541936"/>
<g style="mix-blend-mode:multiply" opacity="0.47">
<path d="M39.6464 34.6652C38.9095 36.0929 39.6924 38.5981 39.6924 38.5981C39.7385 38.2389 39.9135 38.1745 39.9135 38.1745C39.6464 39.3995 40.2358 41.0205 40.3279 41.26C40.1529 40.7534 40.5858 40.8455 40.5858 40.8455C40.6503 41.8034 41.7464 42.8995 41.82 42.9731C41.5069 42.5495 41.6266 42.2179 41.6266 42.2179C42.3082 43.9402 43.9293 44.7692 43.9293 44.7692C43.57 44.3179 43.7082 43.9218 43.7082 43.9218C43.92 44.5113 45.0437 45.3218 45.1174 45.3771C44.5924 44.8613 44.8964 44.6218 44.8964 44.6218C45.3385 45.3771 46.8858 45.9389 47.07 46.0034C46.7753 45.8745 46.4437 45.1929 46.4161 45.1376C46.4898 45.1929 47.7885 46.0771 49.3911 46.0126C51.049 45.9481 54.4292 44.935 54.9727 44.4192C55.1753 44.2258 55.3503 44.1429 55.5529 44.2258C55.82 44.3271 56.124 44.7139 56.6121 45.4968C56.9161 45.985 57.4687 45.9389 57.1464 46.2613C56.1148 47.2929 56.0503 48.1679 56.3819 48.6376C56.6398 48.9968 56.9621 48.6929 57.1003 48.5363C56.9437 48.7666 56.5569 49.4113 57.1371 49.6692C57.2845 49.7337 57.4227 49.7521 57.5424 49.7337C57.4779 49.7152 57.4595 49.6784 57.5148 49.6139C57.7727 49.3192 57.9477 48.6837 57.9661 48.6008C57.92 48.7021 57.4319 49.6231 57.2937 49.6231C57.1464 49.6231 57.045 49.5218 56.9253 49.3745C56.8148 49.2363 57.2661 48.2784 57.3398 48.1402C57.2845 48.2231 57.0543 48.5455 56.7411 48.6008C56.4003 48.6652 56.6306 47.5231 57.2661 46.8139C57.9016 46.1047 57.5608 45.8929 57.1279 45.6902C56.9529 45.6073 56.9161 45.331 56.8332 44.9995C56.7135 44.5021 56.5293 43.8758 55.7371 43.5534C54.4293 43.0192 51.1042 45.2021 49.1148 45.7455C47.1161 46.2981 45.9279 44.106 46.1674 44.5666C46.3977 45.0271 46.0845 44.9718 45.9003 44.9166C44.8964 44.631 44.4082 43.6731 44.3714 43.5902C44.399 43.6639 44.6937 44.5758 44.2977 44.3271C43.6621 43.9218 43.4964 42.9639 43.4871 43.4705C43.4871 44.0692 42.9621 43.8389 42.6674 43.4705C42.17 42.8258 41.6542 41.3613 41.5898 41.1863C41.6082 41.3245 41.7371 42.1442 41.1569 41.6192C40.595 41.1218 40.7056 38.9942 40.7056 38.9942C40.7056 38.9942 40.4016 40.431 40.3003 40.0442C39.7477 37.8429 40.2358 37.3823 40.2819 37.3547C38.799 38.2573 39.9227 34.0942 39.9227 34.0942C39.9227 34.0942 39.4621 34.4902 39.2595 34.3981C39.0661 34.306 39.2595 33.1455 39.2595 33.1455C38.8819 33.6337 38.8542 35.5679 38.8542 35.5679C38.9003 35.2363 39.6187 34.6837 39.6187 34.6837L39.6464 34.6652Z" fill="#502375"/>
</g>
<path opacity="0.23" d="M44.1135 38.2568C44.1135 38.2568 44.2056 36.1384 45.4122 36.4792C46.6188 36.8107 47.0056 38.091 46.7017 38.9015C46.3977 39.7028 46.9319 41.8949 49.9253 40.9186C52.9188 39.9423 54.3556 39.841 55.2122 40.7805C56.078 41.7199 56.7503 43.5713 57.6898 42.7607C58.2517 42.2818 58.6661 41.8949 58.7214 41.4344C56.8056 38.2476 53.0109 39.9607 51.1595 34.066C50.2938 31.3121 48.5714 29.8476 47.1253 29.0831C46.5727 28.8897 45.8267 28.7331 45.799 29.3686C45.7622 30.3818 49.5753 32.2884 49.4188 34.3607C49.2622 36.4331 46.9964 34.3423 46.1674 33.9463C44.4543 33.1265 41.8661 36.4331 44.1227 38.2476L44.1135 38.2568Z" fill="#F0B341"/>
</svg>
