<svg width="317" height="317" viewBox="0 0 317 317" fill="none" xmlns="http://www.w3.org/2000/svg">
<path d="M271.21 44.94L239.78 98.71L300.63 85.43L254.13 126.86L316.1 133.04L259.07 158.07L316.1 183.1L254.13 189.28L300.63 230.71L239.78 217.44L271.21 271.21L217.44 239.78L230.71 300.63L189.28 254.13L183.1 316.1L158.07 259.07L133.04 316.1L126.86 254.13L85.43 300.63L98.71 239.78L44.94 271.21L76.36 217.44L15.51 230.71L62.02 189.28L0.039978 183.1L57.07 158.07L0.039978 133.04L62.02 126.86L15.51 85.43L76.36 98.71L44.94 44.94L98.71 76.36L85.43 15.51L126.86 62.02L133.04 0.0400391L158.07 57.0701L183.1 0.0400391L189.28 62.02L230.71 15.51L217.44 76.36L271.21 44.94Z" fill="white"/>
</svg>
