<svg width="190" height="40" viewBox="0 0 190 40" fill="none" xmlns="http://www.w3.org/2000/svg">
<path d="M8.4957 1.47325C13.4445 0.118452 173.766 -1.0198 182.737 1.47325C186.934 2.63953 190 5.62593 190 19.2157C190 32.8054 187.102 38.5518 178.681 38.5518C162.856 38.5518 15.6811 41.8103 8.4957 38.5518C4.77964 36.8666 -3.9453e-06 37.2076 0 19.2157C3.24293e-06 4.42684 3.54692 2.82805 8.4957 1.47325Z" fill="white"/>
<path d="M70.4098 27.952C69.5298 27.984 68.7538 27.96 68.0818 27.88C67.4258 27.784 66.8658 27.664 66.4018 27.52C65.9538 27.36 65.6178 27.232 65.3938 27.136C65.1698 27.024 65.0578 26.968 65.0578 26.968C65.0578 26.968 65.0018 26.936 64.8898 26.872C64.7938 26.808 64.6738 26.712 64.5298 26.584C64.3858 26.456 64.2578 26.304 64.1458 26.128C64.0498 25.952 63.9858 25.76 63.9538 25.552C63.9378 25.344 63.9938 25.112 64.1218 24.856C64.2658 24.584 64.4338 24.4 64.6258 24.304C64.8338 24.192 65.0338 24.136 65.2258 24.136C65.4178 24.12 65.5778 24.128 65.7058 24.16C65.8338 24.176 65.8978 24.184 65.8978 24.184C66.4578 24.408 67.0418 24.568 67.6498 24.664C68.2578 24.76 68.8178 24.792 69.3298 24.76C69.8578 24.728 70.2978 24.64 70.6498 24.496C71.0018 24.336 71.2018 24.112 71.2498 23.824C71.2818 23.6 71.2178 23.4 71.0578 23.224C70.9138 23.032 70.6818 22.856 70.3618 22.696C70.0578 22.52 69.6978 22.352 69.2818 22.192C68.8658 22.016 68.4178 21.832 67.9378 21.64C67.6498 21.528 67.3138 21.352 66.9298 21.112C66.5618 20.872 66.2018 20.592 65.8498 20.272C65.4978 19.936 65.1938 19.568 64.9378 19.168C64.6818 18.752 64.4978 18.312 64.3858 17.848C64.2898 17.368 64.3138 16.856 64.4578 16.312C64.6018 15.768 64.9058 15.216 65.3698 14.656C65.8498 14.08 66.3698 13.632 66.9298 13.312C67.4898 12.976 68.0578 12.736 68.6338 12.592C69.2098 12.448 69.7538 12.368 70.2658 12.352C70.7938 12.336 71.2658 12.352 71.6818 12.4C72.0978 12.448 72.4258 12.504 72.6658 12.568C72.9058 12.632 73.0258 12.664 73.0258 12.664C73.0258 12.664 73.0898 12.688 73.2178 12.736C73.3618 12.768 73.5298 12.832 73.7218 12.928C73.9298 13.024 74.1298 13.152 74.3218 13.312C74.5138 13.456 74.6578 13.648 74.7538 13.888C74.8658 14.128 74.9058 14.4 74.8738 14.704C74.8098 15.072 74.6818 15.336 74.4898 15.496C74.3138 15.656 74.1138 15.76 73.8898 15.808C73.6658 15.84 73.4738 15.848 73.3138 15.832C73.1538 15.8 73.0738 15.784 73.0738 15.784C72.4338 15.592 71.8018 15.544 71.1778 15.64C70.5698 15.72 70.0258 15.888 69.5458 16.144C69.0658 16.4 68.6978 16.688 68.4418 17.008C68.1858 17.312 68.0898 17.6 68.1538 17.872C68.2338 18.112 68.4418 18.336 68.7778 18.544C69.1298 18.736 69.5618 18.944 70.0738 19.168C70.5858 19.376 71.1138 19.608 71.6578 19.864C72.2178 20.104 72.7298 20.392 73.1938 20.728C73.6738 21.048 74.0498 21.424 74.3218 21.856C74.7538 22.56 74.9938 23.216 75.0418 23.824C75.0898 24.432 74.9858 24.984 74.7298 25.48C74.4898 25.976 74.1378 26.4 73.6738 26.752C73.2258 27.104 72.7138 27.384 72.1378 27.592C71.5778 27.8 71.0018 27.92 70.4098 27.952ZM82.3596 27.928C81.9436 27.928 81.6076 27.848 81.3516 27.688C81.1116 27.512 80.9276 27.32 80.7996 27.112C80.6716 26.888 80.5836 26.696 80.5356 26.536C80.5036 26.376 80.4876 26.296 80.4876 26.296C80.3916 25.432 80.3196 24.504 80.2716 23.512C80.2396 22.52 80.2236 21.496 80.2236 20.44C80.2236 19.384 80.2476 18.328 80.2956 17.272C80.3436 16.216 80.4156 15.208 80.5116 14.248C80.5116 14.248 80.5196 14.176 80.5356 14.032C80.5676 13.888 80.6316 13.736 80.7276 13.576C80.8396 13.4 81.0076 13.248 81.2316 13.12C81.4556 12.992 81.7596 12.928 82.1436 12.928C82.6716 12.928 83.0716 13.016 83.3436 13.192C83.6156 13.368 83.7996 13.568 83.8956 13.792C84.0076 14.016 84.0636 14.216 84.0636 14.392C84.0796 14.552 84.0876 14.632 84.0876 14.632C84.0236 15.288 83.9756 16 83.9436 16.768C83.9276 17.52 83.9116 18.312 83.8956 19.144C83.8956 19.976 83.8956 20.824 83.8956 21.688C83.9116 22.536 83.9356 23.376 83.9676 24.208C83.9996 25.04 84.0316 25.824 84.0636 26.56C84.0636 26.56 84.0476 26.632 84.0156 26.776C83.9996 26.92 83.9356 27.08 83.8236 27.256C83.7276 27.432 83.5596 27.592 83.3196 27.736C83.0956 27.88 82.7756 27.944 82.3596 27.928ZM86.9916 15.784C86.3516 15.72 85.6476 15.672 84.8796 15.64C84.1276 15.592 83.3436 15.56 82.5276 15.544C81.7276 15.528 80.9516 15.52 80.1996 15.52C79.4476 15.52 78.7516 15.528 78.1116 15.544C78.1116 15.544 78.0476 15.544 77.9196 15.544C77.7916 15.544 77.6316 15.528 77.4396 15.496C77.2476 15.448 77.0476 15.384 76.8396 15.304C76.6476 15.208 76.4796 15.08 76.3356 14.92C76.1916 14.744 76.0956 14.512 76.0476 14.224C76.0156 13.936 76.0396 13.704 76.1196 13.528C76.2156 13.336 76.3436 13.192 76.5036 13.096C76.6796 12.984 76.8556 12.904 77.0316 12.856C77.2076 12.808 77.3516 12.776 77.4636 12.76C77.5916 12.744 77.6556 12.736 77.6556 12.736C79.1436 12.56 80.6236 12.448 82.0956 12.4C83.5836 12.336 85.0556 12.392 86.5116 12.568C86.5116 12.568 86.5756 12.592 86.7036 12.64C86.8476 12.672 87.0156 12.728 87.2076 12.808C87.4156 12.888 87.6156 13 87.8076 13.144C87.9996 13.272 88.1596 13.448 88.2876 13.672C88.4316 13.88 88.5036 14.128 88.5036 14.416C88.4876 14.768 88.4076 15.04 88.2636 15.232C88.1196 15.424 87.9436 15.56 87.7356 15.64C87.5436 15.72 87.3676 15.768 87.2076 15.784C87.0636 15.784 86.9916 15.784 86.9916 15.784ZM89.6852 28.024C89.2052 27.96 88.8372 27.832 88.5812 27.64C88.3252 27.432 88.1412 27.208 88.0292 26.968C87.9172 26.728 87.8532 26.528 87.8372 26.368C87.8212 26.192 87.8132 26.104 87.8132 26.104C87.8612 24.792 88.0372 23.464 88.3412 22.12C88.6612 20.76 89.0372 19.384 89.4692 17.992C89.9172 16.776 90.3332 15.808 90.7172 15.088C91.1172 14.368 91.5012 13.832 91.8692 13.48C92.2372 13.112 92.5892 12.872 92.9252 12.76C93.2772 12.632 93.6372 12.568 94.0052 12.568C94.2772 12.52 94.5812 12.576 94.9172 12.736C95.2692 12.896 95.6292 13.152 95.9972 13.504C96.3652 13.84 96.7012 14.264 97.0052 14.776C97.3252 15.288 97.5732 15.872 97.7492 16.528C97.9092 16.976 98.1012 17.56 98.3252 18.28C98.5492 19 98.7732 19.816 98.9972 20.728C99.2372 21.64 99.4452 22.6 99.6212 23.608C99.8132 24.616 99.9572 25.64 100.053 26.68C100.053 26.68 100.045 26.752 100.029 26.896C100.029 27.04 99.9812 27.208 99.8852 27.4C99.7892 27.576 99.6292 27.736 99.4052 27.88C99.1972 28.024 98.8852 28.096 98.4692 28.096C98.0532 28.096 97.7092 28.024 97.4372 27.88C97.1652 27.72 96.9492 27.536 96.7892 27.328C96.6452 27.104 96.5412 26.92 96.4772 26.776C96.4292 26.616 96.4052 26.536 96.4052 26.536C96.1812 25.4 95.9892 24.392 95.8292 23.512C95.6852 22.616 95.5252 21.864 95.3492 21.256C95.1252 20.36 94.9092 19.584 94.7012 18.928C94.5092 18.256 94.3012 17.632 94.0772 17.056C93.9172 17.408 93.7412 17.816 93.5492 18.28C93.3572 18.728 93.1732 19.192 92.9972 19.672C92.8372 20.152 92.7012 20.608 92.5892 21.04C92.4452 21.712 92.3172 22.28 92.2052 22.744C92.1092 23.208 92.0292 23.64 91.9652 24.04C91.9012 24.424 91.8372 24.832 91.7732 25.264C91.7252 25.696 91.6692 26.216 91.6052 26.824C91.6052 26.824 91.5812 26.896 91.5332 27.04C91.5012 27.168 91.4212 27.32 91.2932 27.496C91.1652 27.672 90.9732 27.816 90.7172 27.928C90.4612 28.04 90.1172 28.072 89.6852 28.024ZM90.1412 25.864L90.4532 23.32C91.2052 23.144 91.9332 23.008 92.6372 22.912C93.3572 22.816 94.0932 22.76 94.8452 22.744C95.6132 22.712 96.4212 22.736 97.2692 22.816L97.6052 25.792C97.0452 25.696 96.4372 25.624 95.7812 25.576C95.1252 25.512 94.4532 25.48 93.7652 25.48C93.0932 25.464 92.4452 25.488 91.8212 25.552C91.1972 25.616 90.6372 25.72 90.1412 25.864ZM103.261 27.88C102.829 27.848 102.485 27.752 102.229 27.592C101.973 27.416 101.781 27.216 101.653 26.992C101.525 26.768 101.437 26.576 101.389 26.416C101.357 26.256 101.341 26.176 101.341 26.176C101.293 25.664 101.253 25.04 101.221 24.304C101.205 23.552 101.189 22.736 101.173 21.856C101.157 20.976 101.157 20.072 101.173 19.144C101.189 18.2 101.213 17.28 101.245 16.384C101.277 15.472 101.325 14.632 101.389 13.864C101.389 13.864 101.397 13.8 101.413 13.672C101.429 13.544 101.485 13.4 101.581 13.24C101.677 13.064 101.837 12.904 102.061 12.76C102.285 12.6 102.597 12.488 102.997 12.424C104.965 12.264 106.653 12.272 108.061 12.448C109.469 12.624 110.565 13.088 111.349 13.84C112.133 14.576 112.645 15.408 112.885 16.336C113.141 17.248 113.141 18.152 112.885 19.048C112.629 19.944 112.125 20.736 111.373 21.424C111.053 21.712 110.653 21.976 110.173 22.216C109.709 22.456 109.189 22.656 108.613 22.816C108.037 22.976 107.421 23.08 106.765 23.128C106.125 23.16 105.469 23.128 104.797 23.032L104.893 26.512C104.893 26.512 104.877 26.584 104.845 26.728C104.829 26.872 104.757 27.04 104.629 27.232C104.517 27.408 104.357 27.56 104.149 27.688C103.941 27.816 103.645 27.88 103.261 27.88ZM109.669 26.992C109.013 26.592 108.365 26.216 107.725 25.864C107.101 25.512 106.429 25.136 105.709 24.736C104.989 24.336 104.173 23.888 103.261 23.392C103.245 23.296 103.333 23.168 103.525 23.008C103.717 22.848 103.957 22.688 104.245 22.528C104.533 22.352 104.821 22.192 105.109 22.048C105.397 21.888 105.637 21.768 105.829 21.688C106.021 21.592 106.117 21.544 106.117 21.544C106.581 21.736 106.981 21.912 107.317 22.072C107.669 22.216 107.989 22.36 108.277 22.504C108.565 22.648 108.861 22.808 109.165 22.984C109.485 23.16 109.845 23.376 110.245 23.632C110.645 23.888 111.109 24.208 111.637 24.592C111.637 24.592 111.677 24.632 111.757 24.712C111.837 24.776 111.925 24.888 112.021 25.048C112.117 25.192 112.189 25.36 112.237 25.552C112.301 25.728 112.309 25.936 112.261 26.176C112.213 26.4 112.085 26.632 111.877 26.872C111.701 27.096 111.485 27.232 111.229 27.28C110.989 27.312 110.749 27.304 110.509 27.256C110.269 27.208 110.069 27.152 109.909 27.088C109.749 27.024 109.669 26.992 109.669 26.992ZM104.797 19.624C105.581 19.672 106.229 19.648 106.741 19.552C107.269 19.456 107.693 19.304 108.013 19.096C108.349 18.872 108.589 18.616 108.733 18.328C108.877 18.04 108.965 17.744 108.997 17.44C108.997 16.96 108.885 16.568 108.661 16.264C108.453 15.96 108.157 15.736 107.773 15.592C107.405 15.432 106.973 15.328 106.477 15.28C105.997 15.232 105.477 15.232 104.917 15.28C104.853 16 104.813 16.728 104.797 17.464C104.781 18.2 104.781 18.92 104.797 19.624ZM119.93 27.928C119.514 27.928 119.178 27.848 118.922 27.688C118.682 27.512 118.498 27.32 118.37 27.112C118.242 26.888 118.154 26.696 118.106 26.536C118.074 26.376 118.058 26.296 118.058 26.296C117.962 25.432 117.89 24.504 117.842 23.512C117.81 22.52 117.794 21.496 117.794 20.44C117.794 19.384 117.818 18.328 117.866 17.272C117.914 16.216 117.986 15.208 118.082 14.248C118.082 14.248 118.09 14.176 118.106 14.032C118.138 13.888 118.202 13.736 118.298 13.576C118.41 13.4 118.578 13.248 118.802 13.12C119.026 12.992 119.33 12.928 119.714 12.928C120.242 12.928 120.642 13.016 120.914 13.192C121.186 13.368 121.37 13.568 121.466 13.792C121.578 14.016 121.634 14.216 121.634 14.392C121.65 14.552 121.658 14.632 121.658 14.632C121.594 15.288 121.546 16 121.514 16.768C121.498 17.52 121.482 18.312 121.466 19.144C121.466 19.976 121.466 20.824 121.466 21.688C121.482 22.536 121.506 23.376 121.538 24.208C121.57 25.04 121.602 25.824 121.634 26.56C121.634 26.56 121.618 26.632 121.586 26.776C121.57 26.92 121.506 27.08 121.394 27.256C121.298 27.432 121.13 27.592 120.89 27.736C120.666 27.88 120.346 27.944 119.93 27.928ZM124.562 15.784C123.922 15.72 123.218 15.672 122.45 15.64C121.698 15.592 120.914 15.56 120.098 15.544C119.298 15.528 118.522 15.52 117.77 15.52C117.018 15.52 116.322 15.528 115.682 15.544C115.682 15.544 115.618 15.544 115.49 15.544C115.362 15.544 115.202 15.528 115.01 15.496C114.818 15.448 114.618 15.384 114.41 15.304C114.218 15.208 114.05 15.08 113.906 14.92C113.762 14.744 113.666 14.512 113.618 14.224C113.586 13.936 113.61 13.704 113.69 13.528C113.786 13.336 113.914 13.192 114.074 13.096C114.25 12.984 114.426 12.904 114.602 12.856C114.778 12.808 114.922 12.776 115.034 12.76C115.162 12.744 115.226 12.736 115.226 12.736C116.714 12.56 118.194 12.448 119.666 12.4C121.154 12.336 122.626 12.392 124.082 12.568C124.082 12.568 124.146 12.592 124.274 12.64C124.418 12.672 124.586 12.728 124.778 12.808C124.986 12.888 125.186 13 125.378 13.144C125.57 13.272 125.73 13.448 125.858 13.672C126.002 13.88 126.074 14.128 126.074 14.416C126.058 14.768 125.978 15.04 125.834 15.232C125.69 15.424 125.514 15.56 125.306 15.64C125.114 15.72 124.938 15.768 124.778 15.784C124.634 15.784 124.562 15.784 124.562 15.784Z" fill="#FFC402"/>
</svg>
