<svg width="108" height="77" viewBox="0 0 108 77" fill="none" xmlns="http://www.w3.org/2000/svg">
<path d="M63.971 21.6697C63.4643 22.8181 62.7577 23.873 61.851 24.7677L56.091 30.5364L55.891 30.7233L53.8911 32.7263C53.8911 32.7263 53.8511 32.7397 53.8777 32.7664L49.1311 37.5069C49.1311 37.5069 49.1178 37.5202 49.1178 37.5469L47.5578 39.0959C47.3178 39.3363 47.0911 39.55 46.8378 39.7503C42.1978 43.6094 34.8112 43.0352 30.6512 38.4817C30.3979 38.2013 30.1179 37.8407 29.7979 37.3867C27.9846 34.7961 25.3846 29.5883 23.7312 23.8596C21.6246 16.582 21.0246 8.46311 25.4779 3.7894C29.2645 -0.149875 50.8377 -2.98081 62.0243 8.60999C65.2777 11.9751 65.931 17.45 63.9977 21.683L63.971 21.6697Z" fill="#AE1413"/>
<mask id="mask0_129_5477" style="mask-type:luminance" maskUnits="userSpaceOnUse" x="22" y="0" width="44" height="43">
<path d="M61.9977 8.59724C66.1443 12.8971 66.051 20.5753 61.851 24.7683L47.5311 39.0698C42.9711 43.6234 34.9978 43.2628 30.6245 38.4556C26.9712 34.4362 16.8913 12.7101 25.4512 3.77664C29.2246 -0.175979 50.7978 -2.99356 61.9843 8.59724H61.9977Z" fill="white"/>
</mask>
<g mask="url(#mask0_129_5477)">
<path d="M43.1044 35.1045C46.9844 37.2277 50.4644 36.6268 51.5177 36.0393C51.891 35.9859 52.1843 35.839 52.3843 35.6387C52.7843 35.6387 53.171 35.6387 53.5577 35.5853C54.5043 35.4784 54.891 34.7974 54.8643 34.0496C57.3043 33.6357 58.5976 31.6326 58.7176 29.416C61.291 29.229 63.6243 27.9337 65.0509 25.5702C68.1442 20.4959 66.8643 14.3666 63.2776 9.62614C63.3843 8.97182 63.1576 8.22403 62.3843 7.7166C61.5576 7.15575 60.7043 6.62161 59.851 6.10083C58.491 5.00585 56.971 4.08446 55.3577 3.40343C53.5043 2.61558 45.7977 -0.388953 39.8511 3.40343C33.9045 7.19581 33.7845 15.1812 34.8378 20.5493C35.8778 25.9174 39.9444 33.3819 43.1177 35.1313L43.1044 35.1045Z" fill="#D71615"/>
<path d="M52.3842 28.6283C53.7042 28.0274 55.9175 24.9027 57.8109 22.8062C60.1442 20.229 64.0241 20.002 61.6375 15.0879C60.4775 12.6976 55.0909 11.1219 53.6509 10.7881C50.4376 10.0403 47.1309 10.7213 45.2243 13.6858C43.5843 16.2363 45.2776 23.4739 45.7843 25.143C46.7443 28.3879 49.4242 29.9636 52.3842 28.6283Z" fill="#EB5959"/>
</g>
<path d="M38.5713 26.1029C37.7446 25.1949 37.4913 23.9664 38.318 23.2052C39.158 22.4441 40.5046 22.5643 41.3313 23.4857C42.1579 24.3937 42.1579 25.7557 41.3313 26.5169C40.4913 27.278 39.4113 27.0243 38.5713 26.1163V26.1029Z" fill="#EB5959"/>
<path d="M40.3178 24.0472C39.8912 23.5665 39.2112 23.4864 38.7978 23.8603C38.3978 24.2342 38.3312 24.9953 38.7578 25.4761C39.3845 26.1972 39.9178 26.3173 40.4378 25.663C40.9578 25.0087 40.7445 24.528 40.3178 24.0472Z" fill="#AF1A16"/>
<path d="M40.0377 24.0206C39.7043 23.6867 39.1043 23.5665 38.7443 23.9004C38.3843 24.2209 38.3843 24.8752 38.7043 25.2224C39.0243 25.5696 39.7043 25.7164 40.0643 25.396C40.4243 25.0755 40.5577 24.5547 40.0377 24.0206Z" fill="#E04F00"/>
<path d="M39.8646 23.9002C39.598 23.6465 39.0913 23.5931 38.7447 23.9002C38.4113 24.2074 38.3447 24.7549 38.598 25.0353C38.8513 25.3024 39.4247 25.3691 39.7713 25.062C40.1046 24.7549 40.278 24.3009 39.8646 23.8869V23.9002Z" fill="#E09200"/>
<path d="M41.6777 16.7025C40.8511 15.7945 40.5978 14.566 41.4244 13.8048C42.2644 13.0437 43.6111 13.1639 44.4377 14.0853C45.2644 14.9933 45.2644 16.3554 44.4377 17.1165C43.5977 17.8776 42.5177 17.6239 41.6777 16.7159V16.7025Z" fill="#EB5959"/>
<path d="M43.7711 14.6861C43.2378 14.0986 42.4112 13.9917 41.9178 14.4458C41.4245 14.8998 41.3445 15.8212 41.8645 16.4221C42.6245 17.3168 43.2778 17.4636 43.9311 16.6491C44.5711 15.8345 44.3178 15.2603 43.7845 14.6861H43.7711Z" fill="#AF1A16"/>
<path d="M43.398 14.6466C42.998 14.246 42.278 14.1125 41.8513 14.4997C41.4246 14.887 41.4246 15.6615 41.8113 16.0755C42.198 16.4894 43.0113 16.6764 43.438 16.2891C43.8646 15.9019 44.0246 15.2876 43.398 14.6466Z" fill="#E04F00"/>
<path d="M43.1846 14.4998C42.8779 14.1927 42.2646 14.1393 41.8513 14.4998C41.4513 14.8737 41.3846 15.528 41.6779 15.8485C41.9713 16.169 42.6646 16.2491 43.0779 15.8886C43.4779 15.5147 43.6779 14.9805 43.1846 14.4998Z" fill="#E09200"/>
<path d="M47.8912 16.3022C47.0646 15.3941 46.8113 14.1656 47.6379 13.4044C48.4779 12.6433 49.8246 12.7635 50.6512 13.6849C51.4779 14.6063 51.4779 15.955 50.6512 16.7161C49.8112 17.4773 48.7312 17.2235 47.8912 16.3155V16.3022Z" fill="#EB9292"/>
<path d="M49.9977 14.2857C49.4644 13.6982 48.6377 13.5914 48.1444 14.0454C47.6511 14.4994 47.5711 15.4208 48.0911 16.0217C48.851 16.9164 49.5044 17.0633 50.1577 16.2487C50.7977 15.4341 50.5444 14.8599 50.011 14.2857H49.9977Z" fill="#AF1A16"/>
<path d="M49.6111 14.2467C49.2111 13.8461 48.4911 13.7126 48.0644 14.0998C47.6378 14.4871 47.6378 15.2616 48.0244 15.6755C48.4111 16.0895 49.2244 16.2765 49.6511 15.8892C50.0778 15.502 50.2378 14.8877 49.6111 14.2467Z" fill="#E04F00"/>
<path d="M49.3977 14.0999C49.0911 13.7928 48.4777 13.7394 48.0644 14.0999C47.6644 14.4738 47.5977 15.1281 47.8911 15.4486C48.1844 15.7691 48.8777 15.8492 49.2911 15.4887C49.6911 15.1148 49.8911 14.5806 49.3977 14.0999Z" fill="#E09200"/>
<path d="M54.2645 26.7045C53.4379 25.7965 53.1845 24.5679 54.0112 23.8068C54.8512 23.0456 56.1979 23.1658 57.0245 24.0872C57.8512 24.9953 57.8512 26.3573 57.0245 27.1185C56.1845 27.8796 55.1045 27.6259 54.2645 26.7178V26.7045Z" fill="#EB9292"/>
<path d="M56.371 24.6749C55.8377 24.0873 55.011 23.9805 54.5177 24.4345C54.0243 24.8886 53.9443 25.8099 54.4643 26.4108C55.2243 27.3055 55.8777 27.4524 56.531 26.6379C57.171 25.8233 56.9177 25.2491 56.3843 24.6749H56.371Z" fill="#AF1A16"/>
<path d="M55.9978 24.6486C55.5978 24.248 54.8778 24.1144 54.4512 24.5017C54.0245 24.8889 54.0245 25.6634 54.4112 26.0774C54.7978 26.4914 55.6111 26.6783 56.0378 26.2911C56.4645 25.9038 56.6245 25.2895 55.9978 24.6486Z" fill="#E04F00"/>
<path d="M55.7844 24.4876C55.4778 24.1805 54.8644 24.127 54.4511 24.4876C54.0511 24.8615 53.9845 25.5158 54.2778 25.8363C54.5711 26.1568 55.2644 26.2369 55.6778 25.8764C56.0778 25.5025 56.2778 24.9683 55.7844 24.4876Z" fill="#E09200"/>
<path d="M38.518 9.85244C37.6913 8.94441 37.438 7.71589 38.2646 6.95474C39.1046 6.1936 40.4513 6.31378 41.2779 7.23517C42.1046 8.1432 42.1046 9.50525 41.2779 10.2664C40.4513 11.0275 39.3579 10.7738 38.518 9.8658V9.85244Z" fill="#EB5959"/>
<path d="M40.6243 7.82284C40.091 7.23529 39.2643 7.12846 38.771 7.58248C38.2776 8.0365 38.1976 8.95789 38.7176 9.55879C39.4776 10.4535 40.131 10.6004 40.7843 9.7858C41.4376 8.97124 41.171 8.39704 40.6376 7.82284H40.6243Z" fill="#AF1A16"/>
<path d="M40.2511 7.79653C39.8511 7.39593 39.1311 7.26239 38.7045 7.64964C38.2778 8.03689 38.2778 8.8114 38.6645 9.22535C39.0511 9.63931 39.8644 9.82626 40.2911 9.43901C40.7178 9.05176 40.8778 8.4375 40.2511 7.79653Z" fill="#E04F00"/>
<path d="M40.0377 7.63554C39.7311 7.32841 39.1177 7.275 38.7044 7.63554C38.3044 8.00944 38.2377 8.66376 38.5311 8.98424C38.8244 9.30473 39.5177 9.38485 39.9311 9.0243C40.3311 8.65041 40.5311 8.11627 40.0377 7.63554Z" fill="#E09200"/>
<path d="M45.5979 7.08877C44.7713 6.18074 44.5179 4.95222 45.3446 4.19107C46.1846 3.42992 47.5312 3.55011 48.3579 4.47149C49.1846 5.37953 49.1846 6.74158 48.3579 7.50273C47.5179 8.26388 46.4379 8.01016 45.5979 7.10213V7.08877Z" fill="#EB5959"/>
<path d="M47.7044 5.05819C47.171 4.47064 46.3444 4.36381 45.8511 4.81783C45.3577 5.27185 45.2777 6.19324 45.7977 6.79415C46.5577 7.68883 47.211 7.83572 47.8644 7.02116C48.5177 6.20659 48.251 5.63239 47.7177 5.05819H47.7044Z" fill="#AF1A16"/>
<path d="M47.3312 5.03188C46.9312 4.63128 46.2112 4.49775 45.7845 4.885C45.3579 5.27225 45.3579 6.04675 45.7445 6.46071C46.1312 6.87466 46.9445 7.06161 47.3712 6.67436C47.7979 6.28711 47.9579 5.67285 47.3312 5.03188Z" fill="#E04F00"/>
<path d="M47.1178 4.87187C46.8112 4.56474 46.1978 4.51133 45.7845 4.87187C45.3845 5.24577 45.3178 5.90009 45.6112 6.22057C45.9045 6.54105 46.5978 6.62117 47.0111 6.26063C47.4111 5.88673 47.6111 5.3526 47.1178 4.87187Z" fill="#E09200"/>
<path d="M52.5446 8.03652C51.7179 7.12849 51.4646 5.89997 52.2912 5.13883C53.1312 4.37768 54.4779 4.49786 55.3045 5.41925C56.1312 6.34064 56.1312 7.68934 55.3045 8.45048C54.4646 9.21163 53.3846 8.95791 52.5446 8.04988V8.03652Z" fill="#EB5959"/>
<path d="M54.6509 6.02011C54.1176 5.43256 53.2909 5.32573 52.7976 5.77975C52.3043 6.23376 52.2243 7.15515 52.7443 7.75606C53.5042 8.65074 54.1576 8.79763 54.8109 7.98307C55.4509 7.16851 55.1976 6.59431 54.6642 6.02011H54.6509Z" fill="#AF1A16"/>
<path d="M54.2777 5.98013C53.8777 5.57952 53.1577 5.44599 52.7311 5.83324C52.3044 6.22049 52.3044 6.99499 52.6911 7.40895C53.0777 7.8229 53.8911 8.00985 54.3177 7.6226C54.7444 7.23535 54.9044 6.62109 54.2777 5.98013Z" fill="#E04F00"/>
<path d="M54.0643 5.8333C53.7577 5.52617 53.1444 5.47275 52.731 5.8333C52.331 6.20719 52.2644 6.86151 52.5577 7.182C52.851 7.50248 53.5444 7.5826 53.9577 7.22206C54.3577 6.84816 54.5577 6.31402 54.0643 5.8333Z" fill="#E09200"/>
<path d="M59.4909 11.6292C58.8509 10.9349 58.6642 9.98677 59.3042 9.41257C59.9442 8.82502 60.9842 8.9185 61.6109 9.62623C62.2509 10.3206 62.2375 11.3622 61.6109 11.9497C60.9842 12.5373 60.1309 12.337 59.5042 11.6426L59.4909 11.6292Z" fill="#EB5959"/>
<path d="M61.1043 10.0794C60.7043 9.6387 60.0643 9.54523 59.6776 9.89242C59.2909 10.2396 59.2376 10.9473 59.6376 11.4147C60.2243 12.0957 60.7176 12.2026 61.2109 11.5883C61.7043 10.9607 61.5043 10.52 61.0909 10.0794H61.1043Z" fill="#AF1A16"/>
<path d="M60.8244 10.0526C60.5178 9.74546 59.9711 9.63863 59.6378 9.9324C59.3178 10.2262 59.3044 10.8271 59.5978 11.1476C59.8911 11.4681 60.5178 11.6016 60.8378 11.3078C61.1578 11.014 61.2911 10.5333 60.8111 10.0526H60.8244Z" fill="#E04F00"/>
<path d="M60.6643 9.9324C60.4243 9.69204 59.9576 9.65198 59.6509 9.9324C59.3443 10.2128 59.2909 10.7203 59.5176 10.974C59.7443 11.2277 60.2776 11.2811 60.5843 11.0007C60.8909 10.7203 61.0509 10.3063 60.6643 9.9324Z" fill="#E09200"/>
<path d="M62.4511 16.7832C62.1445 16.0621 62.2511 15.2609 62.9045 14.9804C63.5578 14.7 64.3578 15.0606 64.6644 15.7816C64.9711 16.5027 64.6911 17.3173 64.0245 17.6111C63.3578 17.9048 62.7578 17.5176 62.4511 16.7832Z" fill="#EB5959"/>
<path d="M64.1442 16.0076C63.9442 15.5402 63.4642 15.2999 63.0775 15.4734C62.6775 15.647 62.4509 16.1812 62.6242 16.6486C62.8909 17.3429 63.2642 17.5699 63.8242 17.2228C64.3842 16.8756 64.3442 16.4616 64.1442 16.0076Z" fill="#AF1A16"/>
<path d="M63.9178 15.9015C63.7578 15.581 63.3578 15.3406 63.0245 15.4875C62.6911 15.6344 62.5178 16.1018 62.6645 16.4223C62.8111 16.7561 63.2645 17.0365 63.5978 16.8896C63.9311 16.7427 64.1711 16.4089 63.9178 15.9015Z" fill="#E04F00"/>
<path d="M63.8244 15.7681C63.7044 15.5144 63.3445 15.3541 63.0245 15.4877C62.7045 15.6212 62.5311 16.0084 62.6378 16.2622C62.7445 16.5159 63.1445 16.7162 63.4644 16.5826C63.7844 16.4491 64.0111 16.1553 63.8244 15.7681Z" fill="#E09200"/>
<path d="M54.0377 19.1991C53.2111 18.2911 52.9577 17.0626 53.7844 16.3014C54.6244 15.5403 55.9711 15.6605 56.7977 16.5818C57.6244 17.5032 57.6244 18.8519 56.7977 19.6131C55.9711 20.3742 54.8777 20.1205 54.0377 19.2125V19.1991Z" fill="#EB9292"/>
<path d="M55.931 16.9428C55.5176 16.4888 54.811 16.4621 54.3576 16.8761C53.9043 17.29 53.771 18.0912 54.171 18.5586C54.7576 19.253 55.3176 19.3331 55.931 18.5987C56.5443 17.8642 56.3576 17.3968 55.9443 16.9428H55.931Z" fill="#AF1A16"/>
<path d="M55.4109 17.1039C55.1043 16.7967 54.5443 16.6899 54.2109 16.9837C53.8776 17.2908 53.8776 17.8784 54.1709 18.2122C54.4643 18.546 55.1043 18.6796 55.4243 18.3724C55.7576 18.0653 55.8776 17.5979 55.3976 17.1039H55.4109Z" fill="#E04F00"/>
<path d="M55.251 16.9837C55.011 16.7433 54.531 16.7032 54.2243 16.9837C53.9176 17.2641 53.8643 17.7849 54.091 18.0252C54.3176 18.279 54.8643 18.3457 55.171 18.0519C55.4776 17.7715 55.6376 17.3442 55.251 16.9703V16.9837Z" fill="#E09200"/>
<path d="M47.411 23.6602C46.6777 22.8457 46.451 21.764 47.1843 21.083C47.931 20.402 49.1177 20.5222 49.8643 21.3234C50.5977 22.1379 50.5977 23.3397 49.8643 24.0208C49.1177 24.7018 48.1577 24.4748 47.4243 23.6602H47.411Z" fill="#EB9292"/>
<path d="M49.2779 21.7773C48.8113 21.2566 48.0779 21.1631 47.638 21.5637C47.198 21.9643 47.1313 22.7922 47.5846 23.313C48.2513 24.1008 48.8379 24.2344 49.4113 23.5133C49.9846 22.7922 49.7446 22.2848 49.2779 21.7773Z" fill="#AF1A16"/>
<path d="M48.9444 21.7509C48.5977 21.3903 47.9577 21.2835 47.5844 21.6173C47.2111 21.9645 47.2111 22.6455 47.5444 23.0061C47.8777 23.38 48.6111 23.5269 48.9844 23.193C49.3577 22.8458 49.5044 22.2983 48.9577 21.7509H48.9444Z" fill="#E04F00"/>
<path d="M48.7579 21.6026C48.4779 21.3356 47.9445 21.2821 47.5845 21.6026C47.2245 21.9231 47.1712 22.5107 47.4245 22.7911C47.6912 23.0715 48.3045 23.1516 48.6512 22.8311C49.0112 22.5107 49.1845 22.0299 48.7445 21.6026H48.7579Z" fill="#E09200"/>
<path d="M48.451 32.5797C47.7177 31.7651 47.491 30.6835 48.2244 30.0024C48.9577 29.3214 50.1577 29.4416 50.9044 30.2428C51.6377 31.0574 51.6377 32.2592 50.9044 32.9402C50.1577 33.6212 49.1977 33.3942 48.4644 32.5797H48.451Z" fill="#EB5959"/>
<path d="M50.3043 30.6846C49.8376 30.1638 49.1043 30.0703 48.6643 30.4709C48.2243 30.8715 48.1577 31.6994 48.611 32.2202C49.2776 33.0081 49.8643 33.1416 50.4376 32.4205C51.011 31.6994 50.771 31.192 50.3043 30.6846Z" fill="#AF1A16"/>
<path d="M49.9711 30.6576C49.6245 30.2971 48.9845 30.1902 48.6111 30.5241C48.2378 30.8579 48.2378 31.5523 48.5711 31.9128C48.9045 32.2867 49.6378 32.4336 50.0111 32.0998C50.3845 31.7526 50.5311 31.2051 49.9845 30.6576H49.9711Z" fill="#E04F00"/>
<path d="M49.7846 30.524C49.5046 30.2569 48.9713 30.2035 48.6113 30.524C48.2513 30.8445 48.1979 31.432 48.4513 31.7125C48.7046 31.9929 49.3313 32.073 49.6779 31.7525C50.0379 31.432 50.2113 30.9513 49.7713 30.524H49.7846Z" fill="#E09200"/>
<path d="M43.4512 38.2692C42.2912 37.8553 41.4779 36.9072 41.8512 35.8389C42.2245 34.7706 43.4778 34.2365 44.6378 34.6505C45.7978 35.0644 46.4378 36.2529 46.0645 37.3212C45.6912 38.3894 44.6112 38.6832 43.4512 38.2692Z" fill="#D71615"/>
<path d="M44.3445 35.4912C43.5978 35.2241 42.8245 35.5312 42.5978 36.1588C42.3712 36.7864 42.7578 37.6411 43.4911 37.9348C44.5845 38.3622 45.2245 38.1752 45.4111 37.147C45.5978 36.1321 45.0911 35.7449 44.3445 35.4778V35.4912Z" fill="#AF1A16"/>
<path d="M43.9977 35.6378C43.4511 35.4776 42.7578 35.6913 42.5711 36.2388C42.3844 36.7862 42.7444 37.4673 43.2777 37.6542C43.8111 37.8412 44.6111 37.6142 44.8111 37.0667C45.0111 36.5192 44.8511 35.9049 44.0111 35.6378H43.9977Z" fill="#E04F00"/>
<path d="M43.7312 35.611C43.3045 35.4908 42.7445 35.7312 42.5579 36.252C42.3712 36.7727 42.6245 37.3737 43.0379 37.5205C43.4512 37.6674 44.1045 37.4004 44.2779 36.8929C44.4645 36.3721 44.3712 35.8113 43.7179 35.611H43.7312Z" fill="#E09200"/>
<path d="M30.4378 18.4917C29.7978 17.7973 29.5978 16.8492 30.2511 16.2617C30.9044 15.6741 31.9311 15.7676 32.5711 16.4753C33.2111 17.1831 33.2111 18.2113 32.5711 18.7989C31.9311 19.3864 31.0911 19.1861 30.4511 18.4917H30.4378Z" fill="#D71615"/>
<path d="M32.1578 16.7427C31.7045 16.2353 30.9845 16.1552 30.5578 16.5424C30.1311 16.9297 30.0645 17.7309 30.5045 18.2516C31.1578 19.0128 31.7178 19.1463 32.2778 18.4386C32.8378 17.7309 32.6111 17.2501 32.1445 16.7427H32.1578Z" fill="#AF1A16"/>
<path d="M31.7979 16.743C31.4646 16.4091 30.8779 16.2889 30.5446 16.5961C30.2113 16.9032 30.2246 17.5308 30.5446 17.878C30.8646 18.2252 31.5312 18.3854 31.8646 18.0783C32.1979 17.7712 32.3179 17.2771 31.7979 16.743Z" fill="#E04F00"/>
<path d="M31.6245 16.6093C31.3712 16.3556 30.8645 16.3022 30.5445 16.5826C30.2245 16.8764 30.1845 17.4105 30.4245 17.6776C30.6645 17.9447 31.2379 18.0248 31.5579 17.731C31.8779 17.4372 32.0245 17.0099 31.6245 16.596V16.6093Z" fill="#E09200"/>
<path d="M29.8113 10.9345C28.9846 10.0264 28.7313 8.79792 29.558 8.03677C30.398 7.27563 31.7446 7.39581 32.5713 8.3172C33.3979 9.23859 33.3979 10.5873 32.5713 11.3484C31.7313 12.1096 30.6513 11.8559 29.8113 10.9478V10.9345Z" fill="#D71615"/>
<path d="M31.918 8.91806C31.3847 8.33051 30.558 8.22368 30.0647 8.6777C29.5713 9.13171 29.4913 10.0531 30.0113 10.654C30.7713 11.5487 31.4247 11.6956 32.078 10.881C32.718 10.0665 32.4647 9.49226 31.9313 8.91806H31.918Z" fill="#AF1A16"/>
<path d="M31.5444 8.87759C31.1444 8.47698 30.4245 8.34345 29.9978 8.7307C29.5711 9.11795 29.5711 9.89245 29.9578 10.3064C30.3445 10.7204 31.1578 10.9073 31.5844 10.5201C32.0111 10.1328 32.1711 9.51855 31.5444 8.87759Z" fill="#E04F00"/>
<path d="M31.3311 8.73076C31.0244 8.42363 30.4111 8.37021 29.9977 8.73076C29.5977 9.10465 29.5311 9.75897 29.8244 10.0795C30.1177 10.3999 30.8111 10.4801 31.2244 10.1195C31.6244 9.74562 31.8244 9.21148 31.3311 8.73076Z" fill="#E09200"/>
<path d="M23.8512 10.6805C23.3179 9.57217 23.4246 8.31694 24.4379 7.83622C25.4512 7.35549 26.7179 7.84957 27.2512 8.97126C27.7845 10.0796 27.3845 11.3882 26.3712 11.869C25.3579 12.3497 24.3846 11.8022 23.8512 10.6939V10.6805Z" fill="#D71615"/>
<path d="M26.4514 9.34577C26.1047 8.63804 25.3447 8.29085 24.7447 8.58462C24.1447 8.8784 23.8114 9.74637 24.118 10.4675C24.5847 11.5357 25.1714 11.8696 26.0247 11.2687C26.878 10.6811 26.7847 10.0535 26.4514 9.34577Z" fill="#AF1A16"/>
<path d="M26.1046 9.19817C25.8379 8.70409 25.1846 8.3569 24.6646 8.61062C24.1446 8.86433 23.9179 9.59877 24.1713 10.1062C24.4113 10.6136 25.1446 11.0276 25.6646 10.7739C26.1846 10.5202 26.5179 9.98602 26.1046 9.19817Z" fill="#E04F00"/>
<path d="M25.9445 8.99802C25.7312 8.61077 25.1579 8.38376 24.6645 8.62413C24.1712 8.86449 23.9179 9.46539 24.1045 9.866C24.2912 10.2666 24.9312 10.5337 25.4245 10.3067C25.9179 10.0663 26.2645 9.61228 25.9312 8.99802H25.9445Z" fill="#E09200"/>
<path d="M23.7047 19.066C23.2247 17.931 23.3847 16.6891 24.4247 16.2485C25.4647 15.8078 26.6913 16.3686 27.1713 17.5037C27.6513 18.6387 27.198 19.9207 26.158 20.3613C25.118 20.802 24.1713 20.2011 23.6913 19.066H23.7047Z" fill="#D71615"/>
<path d="M26.3713 17.8508C26.0647 17.1297 25.318 16.7424 24.6913 17.0095C24.078 17.2766 23.7047 18.1178 23.9847 18.8656C24.4113 19.9606 24.9713 20.3078 25.8513 19.7603C26.7313 19.2128 26.6647 18.5852 26.358 17.8508H26.3713Z" fill="#AF1A16"/>
<path d="M26.0246 17.7046C25.7846 17.1972 25.1446 16.8233 24.6246 17.0503C24.0912 17.2773 23.8379 17.9984 24.0512 18.5192C24.2779 19.04 24.9846 19.4806 25.5179 19.2536C26.0512 19.0266 26.4112 18.5058 26.0246 17.6913V17.7046Z" fill="#E04F00"/>
<path d="M25.8779 17.49C25.6912 17.0894 25.1179 16.8356 24.6246 17.0493C24.1179 17.263 23.8379 17.8639 24.0113 18.2645C24.1846 18.6651 24.8112 18.9722 25.3179 18.7585C25.8246 18.5449 26.1846 18.1042 25.8779 17.4766V17.49Z" fill="#E09200"/>
<path d="M30.8911 25.422C30.4111 24.287 30.5711 23.0451 31.6111 22.6044C32.6511 22.1638 33.8777 22.7246 34.3577 23.8597C34.8377 24.9947 34.3844 26.2766 33.3444 26.7173C32.3044 27.158 31.3577 26.557 30.8778 25.422H30.8911Z" fill="#D71615"/>
<path d="M33.3046 24.1011C33.0379 23.4735 32.3979 23.153 31.8513 23.38C31.3179 23.607 30.9979 24.3415 31.2379 24.9824C31.5979 25.9305 32.0913 26.2377 32.8513 25.7569C33.6112 25.2762 33.5579 24.7421 33.2912 24.1145L33.3046 24.1011Z" fill="#AF1A16"/>
<path d="M33.0112 23.9666C32.7979 23.5259 32.2512 23.2054 31.7979 23.4057C31.3446 23.606 31.1179 24.2336 31.3046 24.6743C31.4912 25.115 32.1179 25.5022 32.5712 25.3153C33.0246 25.115 33.3446 24.661 33.0112 23.9666Z" fill="#E04F00"/>
<path d="M32.8779 23.7801C32.7179 23.4329 32.2245 23.2193 31.7979 23.4062C31.3579 23.5932 31.1179 24.1139 31.2645 24.4611C31.4112 24.8083 31.9579 25.0754 32.3845 24.8884C32.8245 24.7015 33.1312 24.3142 32.8779 23.7801Z" fill="#E09200"/>
<path d="M26.6379 25.6892C26.3046 24.9013 26.4246 24.0334 27.1446 23.7262C27.8646 23.4191 28.7313 23.8064 29.0646 24.6076C29.3979 25.3954 29.0779 26.2901 28.3579 26.5972C27.6379 26.9044 26.9713 26.4904 26.6379 25.6892Z" fill="#D71615"/>
<path d="M28.4913 24.849C28.278 24.3415 27.758 24.0745 27.318 24.2614C26.8913 24.4484 26.6246 25.0359 26.8246 25.5567C27.118 26.3178 27.518 26.5716 28.1313 26.1843C28.7446 25.7971 28.7046 25.3564 28.4913 24.849Z" fill="#AF1A16"/>
<path d="M28.2512 24.7413C28.0779 24.3808 27.6379 24.1271 27.2646 24.2873C26.8913 24.4476 26.7179 24.955 26.8646 25.3155C27.0246 25.6761 27.5179 25.9832 27.8912 25.823C28.2646 25.6627 28.5179 25.3022 28.2512 24.7413Z" fill="#E04F00"/>
<path d="M28.1445 24.5817C28.0112 24.3013 27.6245 24.1277 27.2645 24.2746C26.9178 24.4215 26.7178 24.8355 26.8378 25.1159C26.9578 25.3963 27.3978 25.61 27.7445 25.4631C28.0912 25.3162 28.3445 25.009 28.1445 24.5684V24.5817Z" fill="#E09200"/>
<path d="M35.2912 33.0075C34.8112 31.8724 34.9712 30.6305 36.0112 30.1899C37.0512 29.7492 38.2779 30.3101 38.7579 31.4451C39.2379 32.5801 38.7845 33.8621 37.7445 34.3027C36.7046 34.7434 35.7579 34.1425 35.2779 33.0075H35.2912Z" fill="#D71615"/>
<path d="M37.9579 31.7922C37.6512 31.0711 36.9046 30.6838 36.2779 30.9509C35.6646 31.218 35.2912 32.0593 35.5712 32.807C35.9979 33.902 36.5579 34.2492 37.4379 33.7017C38.3179 33.1542 38.2512 32.5266 37.9445 31.7922H37.9579Z" fill="#AF1A16"/>
<path d="M37.6111 31.6446C37.3711 31.1371 36.7311 30.7632 36.2111 30.9902C35.6778 31.2173 35.4245 31.9383 35.6378 32.4591C35.8645 32.9799 36.5711 33.4206 37.1045 33.1936C37.6378 32.9666 37.9978 32.4458 37.6111 31.6312V31.6446Z" fill="#E04F00"/>
<path d="M37.4645 31.4187C37.2778 31.0181 36.7045 30.7644 36.2111 30.978C35.7045 31.1917 35.4245 31.7926 35.5978 32.1932C35.7711 32.5938 36.3978 32.9009 36.9045 32.6872C37.4111 32.4736 37.7711 32.0329 37.4645 31.4053V31.4187Z" fill="#E09200"/>
<path d="M28.2778 33.5282C27.4778 32.7537 27.1844 31.6721 27.8911 30.951C28.5978 30.2166 29.8111 30.2566 30.5977 31.0311C31.3844 31.8056 31.4644 33.0208 30.7577 33.7419C30.0511 34.4763 29.0644 34.3027 28.2644 33.5416L28.2778 33.5282Z" fill="#D71615"/>
<path d="M30.0913 31.6848C29.5846 31.1908 28.8246 31.1373 28.3979 31.578C27.9713 32.0187 27.9713 32.8599 28.4646 33.3674C29.1979 34.1285 29.7979 34.222 30.3313 33.4475C30.8646 32.673 30.5979 32.1789 30.0913 31.6848Z" fill="#AF1A16"/>
<path d="M29.758 31.6721C29.3713 31.3383 28.718 31.2581 28.358 31.632C27.998 32.0059 28.038 32.7003 28.4113 33.0609C28.7846 33.4214 29.5313 33.5282 29.8913 33.1543C30.2513 32.7804 30.3713 32.2196 29.7713 31.6854L29.758 31.6721Z" fill="#E04F00"/>
<path d="M29.5578 31.5389C29.2645 31.2719 28.7045 31.2719 28.3578 31.619C28.0112 31.9796 27.9978 32.5671 28.2778 32.8476C28.5578 33.128 29.1978 33.1547 29.5312 32.8075C29.8778 32.447 30.0245 31.9529 29.5445 31.5389H29.5578Z" fill="#E09200"/>
<path d="M35.6246 40.165C34.3979 40.0448 33.3846 39.3104 33.4912 38.1887C33.5979 37.067 34.6779 36.2391 35.9046 36.3593C37.1312 36.4794 38.0379 37.4809 37.9312 38.6026C37.8245 39.7243 36.8512 40.2718 35.6246 40.165Z" fill="#D71615"/>
<path d="M35.8245 37.2409C35.0378 37.1741 34.3578 37.6548 34.2912 38.3225C34.2245 38.9902 34.7978 39.7246 35.5845 39.8181C36.7445 39.965 37.3311 39.6312 37.2645 38.5896C37.1978 37.5614 36.6111 37.3077 35.8378 37.2275L35.8245 37.2409Z" fill="#AF1A16"/>
<path d="M35.5179 37.4681C34.9579 37.4414 34.3313 37.8286 34.2779 38.4028C34.2246 38.977 34.7446 39.5512 35.3046 39.6046C35.8646 39.6581 36.5979 39.2308 36.6513 38.6699C36.7046 38.0957 36.4113 37.5349 35.5179 37.4814V37.4681Z" fill="#E04F00"/>
<path d="M35.2647 37.4945C34.8247 37.4811 34.3314 37.855 34.2914 38.3892C34.2381 38.9367 34.6381 39.4708 35.0647 39.5109C35.4914 39.5509 36.0647 39.137 36.1181 38.6028C36.1714 38.0553 35.9447 37.5212 35.2647 37.4945Z" fill="#E09200"/>
<path d="M33.3711 5.24649C32.5444 4.33845 32.2911 3.10993 33.1178 2.34879C33.9578 1.58764 35.3044 1.70782 36.1311 2.62921C36.9578 3.53724 36.9578 4.8993 36.1311 5.66044C35.2911 6.42159 34.2111 6.16787 33.3711 5.25984V5.24649Z" fill="#D71615"/>
<path d="M35.4779 3.21542C34.9446 2.62787 34.1179 2.52104 33.6246 2.97506C33.1313 3.42908 33.0513 4.35046 33.5713 4.95137C34.3313 5.84605 34.9846 5.99294 35.6379 5.17838C36.2913 4.36382 36.0246 3.78962 35.4913 3.21542H35.4779Z" fill="#AF1A16"/>
<path d="M35.1044 3.18911C34.7044 2.78851 33.9844 2.65497 33.5577 3.04222C33.1311 3.42947 33.1311 4.20397 33.5177 4.61793C33.9044 5.03189 34.7177 5.21884 35.1444 4.83159C35.571 4.44434 35.731 3.83008 35.1044 3.18911Z" fill="#E04F00"/>
<path d="M34.8914 3.02959C34.5847 2.72246 33.9714 2.66904 33.558 3.02959C33.1581 3.40348 33.0914 4.0578 33.3847 4.37829C33.678 4.69877 34.3714 4.77889 34.7847 4.41835C35.1847 4.04445 35.3847 3.51031 34.8914 3.02959Z" fill="#E09200"/>
<path d="M55.8243 30.3772C55.771 29.9499 60.6243 27.1456 66.4776 33.3149C66.4776 33.3149 62.6376 34.7705 60.2376 34.1562C57.8376 33.5419 55.9843 31.619 55.8243 30.3905V30.3772Z" fill="#A5C80A"/>
<path d="M53.8776 32.6465C53.8776 32.6465 55.5443 37.4137 53.1576 41.1526C50.771 44.8916 51.7976 45.8798 50.931 47.8561C50.931 47.8561 48.2243 45.7729 48.451 41.5399C48.691 36.9997 49.531 35.6243 53.8776 32.6465Z" fill="#85B926"/>
<path d="M64.4111 25.1695C64.4111 25.1695 67.8244 24.355 70.7177 26.6251C70.7177 26.6251 65.0911 28.815 61.9045 28.7883C58.7311 28.775 55.8112 30.364 55.8112 30.364C55.8112 30.364 59.4245 25.0894 64.3978 25.1562L64.4111 25.1695Z" fill="#85B926"/>
<path d="M55.7843 44.2112C55.7843 44.2112 58.571 39.2971 57.971 36.4662C57.3576 33.6352 56.8776 31.512 55.9843 30.3369C55.9843 30.3369 53.5977 31.245 53.5977 34.6634C53.5977 38.0686 55.7976 44.2112 55.7976 44.2112H55.7843Z" fill="#486A2A"/>
<g style="mix-blend-mode:multiply" opacity="0.35">
<path d="M65.731 25.0352C65.5443 26.0901 65.1976 27.292 64.7843 28.427C64.4643 29.3751 64.091 30.2698 63.771 31.0042C63.2777 32.1393 62.891 32.9138 62.891 32.9138L60.1977 34.1423L57.7043 35.2907L54.411 36.7863L53.8244 37.0533L48.6377 39.4302L47.7177 39.8576L46.8244 39.7374L37.9311 38.5089L37.2245 38.402L36.6245 38.3219L36.1045 38.2551L34.4245 38.0148H34.3845L33.5578 37.8946L29.7845 37.3738C27.9712 34.7832 25.3712 29.5754 23.7179 23.8468C26.8912 22.3645 35.0778 19.0128 40.1045 20.909C42.2244 21.7236 44.5311 22.458 46.9711 22.9921C47.1177 23.0322 47.2777 23.0589 47.4244 23.0723C47.5044 23.1123 47.5977 23.1257 47.6911 23.1257C48.0244 23.2058 48.3577 23.2726 48.7177 23.326H48.7311C48.9711 23.3794 49.2244 23.4061 49.4511 23.4328C49.7044 23.4862 49.9577 23.5129 50.2111 23.553C51.4911 23.6999 52.771 23.7933 54.0644 23.7666C54.851 23.7533 55.651 23.6999 56.4377 23.6198C58.411 23.4061 60.3577 22.9254 62.2777 22.1242C62.9443 21.8437 63.5176 21.6835 63.971 21.6701C65.7176 21.5366 66.0243 23.0723 65.7176 25.0352H65.731Z" fill="#6395AE"/>
</g>
<path d="M91.4109 63.5605C89.1443 64.9893 83.1976 67.0458 76.3177 68.2342C65.9311 69.9969 53.3978 69.7565 47.9712 62.2919C44.8779 58.0322 44.9579 40.7795 52.9312 28.067C55.2378 24.4082 58.1578 21.1366 61.8644 18.6528C68.0111 14.5266 77.3577 16.3293 81.571 22.3784L83.051 24.515L86.451 29.4157L86.7576 29.8697L87.331 30.6843L87.531 30.9647L89.5309 33.8491V33.8891L94.2909 40.7528L95.8776 43.0229C100.438 49.6061 98.2509 59.2874 91.4243 63.5739L91.4109 63.5605Z" fill="#AE1413"/>
<mask id="mask1_129_5477" style="mask-type:luminance" maskUnits="userSpaceOnUse" x="46" y="16" width="53" height="54">
<path d="M61.8777 18.6388C68.0243 14.5126 77.3843 16.302 81.5709 22.3511L95.8775 42.9955C100.437 49.5788 98.2508 59.2467 91.4242 63.5332C85.7175 67.1252 57.0244 74.6833 47.9844 62.2512C43.9978 56.763 45.2911 29.7623 61.8777 18.6255V18.6388Z" fill="white"/>
</mask>
<g mask="url(#mask1_129_5477)">
<path d="M90.0643 47.5633C93.5176 43.2768 93.5442 38.8835 93.0509 37.4814C93.0642 37.014 92.9576 36.6268 92.7442 36.333C92.8242 35.8523 92.9042 35.3715 92.9442 34.8908C93.0242 33.7024 92.2642 33.0881 91.3576 32.9546C91.3976 29.8833 89.2243 27.8535 86.5576 27.2259C86.8909 24.0345 85.8243 20.9097 83.2643 18.6397C77.7577 13.7523 69.9977 13.9526 63.4244 17.3177C62.6511 17.0372 61.6911 17.1574 60.8911 17.9853C60.0244 18.88 59.1845 19.8014 58.3711 20.7362C56.7311 22.165 55.2778 23.8208 54.0912 25.6502C52.7312 27.7467 47.3579 36.5066 50.6912 44.6255C54.0112 52.7444 63.7178 54.6272 70.491 54.5204C77.2643 54.4136 87.2643 51.0886 90.0909 47.59L90.0643 47.5633Z" fill="#D71615"/>
<path d="M84.1977 34.7971C83.7577 33.0478 80.4244 29.656 78.2911 26.8918C75.6511 23.4733 76.2377 18.6661 69.7178 20.5222C66.5445 21.4169 63.4511 27.653 62.7178 29.3489C61.1045 33.1279 61.1978 37.3075 64.3978 40.2854C67.1445 42.8492 76.3444 42.3685 78.5044 42.1148C82.6644 41.6474 85.1843 38.723 84.1977 34.7971Z" fill="#EB5959"/>
</g>
<path d="M78.0779 51.1553C76.7845 51.9698 75.2246 52.0099 74.4912 50.8214C73.7446 49.633 74.1979 48.0038 75.4912 47.1893C76.7845 46.3747 78.4379 46.6818 79.1845 47.8703C79.9312 49.0588 79.3845 50.3407 78.0912 51.1553H78.0779Z" fill="#EB5959"/>
<path d="M75.9578 48.5523C75.2778 48.9796 75.0245 49.7941 75.3845 50.3683C75.7445 50.9425 76.6645 51.1829 77.3445 50.7823C78.3711 50.1814 78.6378 49.5538 77.9311 48.7659C77.2378 47.9781 76.6111 48.1383 75.9445 48.5656L75.9578 48.5523Z" fill="#AF1A16"/>
<path d="M75.8777 48.8862C75.3977 49.2201 75.1177 49.9278 75.4377 50.4352C75.7577 50.9427 76.5444 51.0896 77.0377 50.7691C77.531 50.4619 77.8644 49.6474 77.5444 49.14C77.2244 48.6325 76.6244 48.3521 75.8644 48.8729L75.8777 48.8862Z" fill="#E04F00"/>
<path d="M75.6778 49.0857C75.3044 49.3528 75.1444 49.967 75.4378 50.4477C75.7311 50.9285 76.3978 51.1154 76.7844 50.8751C77.1711 50.6347 77.3844 49.927 77.0777 49.4462C76.7711 48.9655 76.2644 48.6584 75.6644 49.0723L75.6778 49.0857Z" fill="#E09200"/>
<path d="M67.3044 45.2939C66.0111 46.1085 64.4511 46.1485 63.7178 44.9601C62.9711 43.7716 63.4245 42.1425 64.7178 41.3279C66.0111 40.5134 67.6644 40.8205 68.4111 42.009C69.1578 43.1974 68.6111 44.4794 67.3178 45.2939H67.3044Z" fill="#EB5959"/>
<path d="M65.2911 42.2755C64.4645 42.7962 64.1578 43.7844 64.5978 44.4921C65.0378 45.1999 66.1578 45.4936 66.9978 44.9996C68.2511 44.2651 68.5711 43.4906 67.7178 42.5292C66.8644 41.5677 66.1178 41.7547 65.2911 42.2755Z" fill="#AF1A16"/>
<path d="M65.1712 42.7288C64.5978 43.1294 64.2778 43.9841 64.6512 44.585C65.0245 45.1859 65.9712 45.3595 66.5712 44.9856C67.1712 44.6117 67.5578 43.6502 67.1845 43.0493C66.8112 42.4484 66.0912 42.1012 65.1845 42.7288H65.1712Z" fill="#E04F00"/>
<path d="M64.9311 42.9566C64.4911 43.2637 64.2911 44.0115 64.6511 44.5857C65.0111 45.1599 65.7978 45.3869 66.2644 45.0932C66.7177 44.7994 66.9711 43.9715 66.6111 43.3973C66.2511 42.8231 65.6378 42.4625 64.9311 42.9566Z" fill="#E09200"/>
<path d="M68.1843 37.6015C66.891 38.4161 65.331 38.4562 64.5977 37.2677C63.851 36.0792 64.3043 34.4501 65.5977 33.6356C66.891 32.821 68.5443 33.1281 69.291 34.3166C70.0376 35.5051 69.491 36.787 68.1976 37.6015H68.1843Z" fill="#EB9292"/>
<path d="M66.171 34.584C65.3443 35.1048 65.0377 36.093 65.4777 36.8007C65.9177 37.5085 67.0377 37.8022 67.8777 37.3082C69.131 36.5737 69.451 35.7992 68.5976 34.8378C67.7443 33.8763 66.9977 34.0633 66.171 34.584Z" fill="#AF1A16"/>
<path d="M66.051 35.0379C65.4777 35.4385 65.1577 36.2932 65.5311 36.8941C65.9044 37.495 66.851 37.6686 67.451 37.2947C68.051 36.9208 68.4377 35.9593 68.0644 35.3584C67.691 34.7575 66.971 34.4103 66.0644 35.0379H66.051Z" fill="#E04F00"/>
<path d="M65.811 35.2652C65.371 35.5723 65.171 36.3201 65.531 36.8943C65.891 37.4685 66.6776 37.6955 67.1443 37.4017C67.5976 37.108 67.851 36.2801 67.491 35.7059C67.131 35.1317 66.5176 34.7711 65.811 35.2652Z" fill="#E09200"/>
<path d="M82.2643 32.0732C80.9709 32.8878 79.411 32.9278 78.6776 31.7394C77.931 30.5509 78.3843 28.9218 79.6776 28.1072C80.9709 27.2927 82.6243 27.5998 83.3709 28.7883C84.1176 29.9767 83.5709 31.2587 82.2776 32.0732H82.2643Z" fill="#EB9292"/>
<path d="M80.251 29.0562C79.4243 29.577 79.1176 30.5652 79.5576 31.2729C79.9976 31.9806 81.1176 32.2744 81.9576 31.7803C83.2109 31.0459 83.5309 30.2714 82.6776 29.3099C81.8243 28.3485 81.0776 28.5354 80.251 29.0562Z" fill="#AF1A16"/>
<path d="M80.131 29.5096C79.5577 29.9102 79.2377 30.7648 79.611 31.3657C79.9843 31.9666 80.931 32.1402 81.531 31.7663C82.131 31.3924 82.5177 30.431 82.1443 29.8301C81.771 29.2292 81.051 28.882 80.1443 29.5096H80.131Z" fill="#E04F00"/>
<path d="M79.8909 29.7359C79.4509 30.043 79.2509 30.7908 79.6109 31.365C79.9709 31.9392 80.7576 32.1662 81.2243 31.8725C81.6776 31.5787 81.9309 30.7508 81.5709 30.1766C81.2109 29.6024 80.5976 29.2418 79.8909 29.7359Z" fill="#E09200"/>
<path d="M58.2511 47.6435C56.9578 48.4581 55.3978 48.4982 54.6644 47.3097C53.9178 46.1212 54.3711 44.4921 55.6644 43.6776C56.9578 42.863 58.6111 43.1701 59.3577 44.3586C60.1044 45.547 59.5577 46.829 58.2644 47.6435H58.2511Z" fill="#EB5959"/>
<path d="M56.2378 44.6251C55.4111 45.1458 55.1044 46.134 55.5444 46.8417C55.9844 47.5495 57.1044 47.8432 57.9444 47.3492C59.1977 46.6147 59.5177 45.8402 58.6644 44.8788C57.8111 43.9173 57.0644 44.1043 56.2378 44.6251Z" fill="#AF1A16"/>
<path d="M56.1178 45.0794C55.5445 45.48 55.2245 46.3347 55.5978 46.9356C55.9712 47.5365 56.9178 47.7101 57.5178 47.3362C58.1045 46.9623 58.5045 46.0008 58.1311 45.3999C57.7578 44.799 57.0378 44.4518 56.1312 45.0794H56.1178Z" fill="#E04F00"/>
<path d="M55.8777 45.3062C55.4377 45.6133 55.2378 46.3611 55.5977 46.9353C55.9577 47.5095 56.7444 47.7365 57.2111 47.4428C57.6644 47.149 57.9177 46.3211 57.5577 45.7469C57.1977 45.1727 56.5844 44.8121 55.8777 45.3062Z" fill="#E09200"/>
<path d="M56.4376 38.376C55.1443 39.1905 53.5843 39.2306 52.851 38.0421C52.1043 36.8537 52.5576 35.2245 53.851 34.41C55.1443 33.5954 56.7976 33.9026 57.5443 35.091C58.2909 36.2795 57.7443 37.5614 56.4509 38.376H56.4376Z" fill="#EB5959"/>
<path d="M54.4247 35.3589C53.598 35.8797 53.2913 36.8679 53.7313 37.5756C54.1713 38.2834 55.2913 38.5771 56.1313 38.0831C57.3846 37.3486 57.7046 36.5741 56.8513 35.6127C55.998 34.6512 55.2513 34.8382 54.4247 35.3589Z" fill="#AF1A16"/>
<path d="M54.3043 35.8123C53.731 36.2129 53.411 37.0676 53.7843 37.6685C54.1577 38.2694 55.1043 38.443 55.7043 38.0691C56.3043 37.6952 56.691 36.7337 56.3177 36.1328C55.9443 35.5319 55.2243 35.1847 54.3177 35.8123H54.3043Z" fill="#E04F00"/>
<path d="M54.0646 36.0401C53.6246 36.3472 53.4246 37.095 53.7846 37.6692C54.1446 38.2434 54.9313 38.4704 55.398 38.1766C55.8513 37.8829 56.1046 37.055 55.7446 36.4808C55.3846 35.9066 54.7713 35.546 54.0646 36.0401Z" fill="#E09200"/>
<path d="M59.1177 30.0976C57.8243 30.9122 56.2643 30.9523 55.531 29.7638C54.7844 28.5753 55.2377 26.9462 56.531 26.1317C57.8243 25.3171 59.4777 25.6242 60.2243 26.8127C60.971 28.0011 60.4243 29.2831 59.131 30.0976H59.1177Z" fill="#EB5959"/>
<path d="M57.1179 27.0797C56.2912 27.6004 55.9846 28.5886 56.4246 29.2963C56.8646 30.0041 57.9846 30.2978 58.8245 29.8038C60.0779 29.0693 60.3979 28.2948 59.5445 27.3334C58.6912 26.3719 57.9446 26.5589 57.1179 27.0797Z" fill="#AF1A16"/>
<path d="M56.9977 27.533C56.4244 27.9337 56.1044 28.7883 56.4777 29.3892C56.851 29.9901 57.7977 30.1637 58.3977 29.7898C58.9844 29.4159 59.3844 28.4544 59.011 27.8535C58.6377 27.2526 57.9177 26.9054 57.011 27.533H56.9977Z" fill="#E04F00"/>
<path d="M56.7576 27.7476C56.3176 28.0547 56.1176 28.8025 56.4776 29.3767C56.8376 29.9509 57.6243 30.1779 58.091 29.8842C58.5443 29.5904 58.7976 28.7625 58.4376 28.1883C58.0776 27.6141 57.4643 27.2535 56.7576 27.7476Z" fill="#E09200"/>
<path d="M65.0243 22.3783C64.0376 23.0059 62.8376 23.0326 62.2777 22.1246C61.7177 21.2165 62.051 19.9747 63.0376 19.3471C64.0243 18.7194 65.3043 18.9598 65.8643 19.8678C66.4243 20.7759 66.011 21.7507 65.0243 22.3783Z" fill="#EB5959"/>
<path d="M63.4912 20.0687C62.8512 20.4693 62.6245 21.2304 62.9579 21.7646C63.2912 22.2987 64.1578 22.5257 64.7978 22.1518C65.7578 21.591 65.9978 21.0034 65.3578 20.2556C64.7178 19.5078 64.1312 19.6681 63.4912 20.0687Z" fill="#AF1A16"/>
<path d="M63.3978 20.4152C62.9578 20.7223 62.7045 21.3766 62.9978 21.8307C63.2912 22.298 64.0112 22.4316 64.4645 22.1378C64.9178 21.844 65.2245 21.1096 64.9312 20.6556C64.6378 20.1882 64.0912 19.9345 63.3978 20.4152Z" fill="#E04F00"/>
<path d="M63.2109 20.5766C62.8642 20.8169 62.7176 21.3778 62.9976 21.8184C63.2776 22.2591 63.8776 22.4327 64.2242 22.2057C64.5709 21.9787 64.7709 21.3377 64.4909 20.9104C64.2109 20.4697 63.7442 20.1893 63.2109 20.5766Z" fill="#E09200"/>
<path d="M71.9578 19.8958C71.0111 20.1094 70.0645 19.8156 69.8645 18.9343C69.6645 18.0663 70.2778 17.1716 71.2245 16.958C72.1711 16.7443 73.1045 17.2651 73.3045 18.1465C73.5045 19.0278 72.9045 19.6687 71.9578 19.8958Z" fill="#EB5959"/>
<path d="M71.371 17.6517C70.7577 17.7852 70.371 18.3194 70.491 18.8402C70.611 19.3609 71.2244 19.7749 71.8377 19.6547C72.7444 19.4811 73.1044 19.0805 72.7977 18.3194C72.491 17.5582 71.9977 17.5182 71.3844 17.6517H71.371Z" fill="#AF1A16"/>
<path d="M71.2109 17.892C70.7842 18.0122 70.4109 18.4528 70.5042 18.8935C70.6109 19.3342 71.1309 19.6413 71.5708 19.5345C72.0108 19.441 72.4508 18.9336 72.3442 18.4929C72.2375 18.0522 71.8775 17.6917 71.1975 17.8786L71.2109 17.892Z" fill="#E04F00"/>
<path d="M71.0243 17.9851C70.691 18.0786 70.411 18.4792 70.5177 18.9065C70.611 19.3338 71.0377 19.6276 71.3843 19.5475C71.7177 19.4674 72.051 19.0267 71.9577 18.5994C71.8643 18.1721 71.571 17.8249 71.0377 17.9851H71.0243Z" fill="#E09200"/>
<path d="M73.0511 30.7119C71.7578 31.5265 70.1978 31.5665 69.4645 30.3781C68.7178 29.1896 69.1712 27.5605 70.4645 26.7459C71.7578 25.9314 73.4111 26.2385 74.1578 27.4269C74.9045 28.6154 74.3578 29.8973 73.0645 30.7119H73.0511Z" fill="#EB9292"/>
<path d="M70.7178 27.8943C70.0778 28.2949 69.8778 29.1629 70.2911 29.8172C70.7045 30.4716 71.6378 30.8054 72.2911 30.4181C73.2645 29.8573 73.4911 29.1896 72.7311 28.2816C71.9711 27.3735 71.3578 27.4937 70.7178 27.9077V27.8943Z" fill="#AF1A16"/>
<path d="M70.8111 28.5612C70.3578 28.8683 70.1178 29.536 70.4111 30.0034C70.7044 30.4707 71.4378 30.6043 71.8911 30.3105C72.3444 30.0167 72.6644 29.2689 72.3711 28.8015C72.0778 28.3342 71.5178 28.0671 70.8111 28.5612Z" fill="#E04F00"/>
<path d="M70.6242 28.7353C70.2775 28.9757 70.1309 29.5499 70.3975 29.9906C70.6775 30.4312 71.2909 30.6048 71.6509 30.3912C72.0109 30.1642 72.1975 29.5232 71.9309 29.0692C71.6642 28.6152 71.1709 28.3481 70.6242 28.722V28.7353Z" fill="#E09200"/>
<path d="M77.0375 39.7919C75.8908 40.513 74.5042 40.5531 73.8509 39.4981C73.1842 38.4432 73.5842 37.001 74.7308 36.28C75.8775 35.5589 77.3442 35.8259 78.0108 36.8809C78.6775 37.9358 78.1842 39.0708 77.0375 39.7919Z" fill="#EB9292"/>
<path d="M75.1445 37.1081C74.4112 37.5621 74.1445 38.4434 74.5312 39.071C74.9178 39.6987 75.9178 39.9524 76.6512 39.5117C77.7578 38.8574 78.0378 38.1764 77.2912 37.3217C76.5445 36.4671 75.8645 36.6407 75.1445 37.0947V37.1081Z" fill="#AF1A16"/>
<path d="M75.0379 37.508C74.5312 37.8552 74.2379 38.6164 74.5846 39.1505C74.9312 39.6847 75.7579 39.8315 76.2779 39.5111C76.7979 39.1772 77.1579 38.336 76.8245 37.7885C76.4912 37.2543 75.8512 36.9605 75.0512 37.508H75.0379Z" fill="#E04F00"/>
<path d="M74.8377 37.709C74.451 37.9895 74.2644 38.6438 74.5843 39.1512C74.9043 39.6586 75.5977 39.8589 76.011 39.6052C76.4243 39.3515 76.6377 38.6171 76.3177 38.1096C75.9977 37.6022 75.451 37.2817 74.8377 37.7224V37.709Z" fill="#E09200"/>
<path d="M88.1441 40.4858C86.9975 41.2069 85.6108 41.2469 84.9575 40.192C84.3041 39.1371 84.6908 37.6949 85.8375 36.9738C86.9841 36.2527 88.4508 36.5198 89.1174 37.5747C89.7841 38.6296 89.2908 39.7647 88.1441 40.4858Z" fill="#EB5959"/>
<path d="M86.2508 37.8019C85.5175 38.2559 85.2508 39.1373 85.6375 39.7649C86.0242 40.3925 87.0242 40.6462 87.7575 40.2055C88.8641 39.5512 89.1441 38.8702 88.3975 38.0156C87.6508 37.161 86.9708 37.3346 86.2508 37.7886V37.8019Z" fill="#AF1A16"/>
<path d="M86.1442 38.203C85.6375 38.5502 85.3442 39.3113 85.6909 39.8455C86.0375 40.3796 86.8642 40.5265 87.3842 40.206C87.9042 39.8722 88.2642 39.0309 87.9309 38.4834C87.5975 37.9359 86.9575 37.6555 86.1575 38.203H86.1442Z" fill="#E04F00"/>
<path d="M85.9311 38.4024C85.5444 38.6828 85.3577 39.3371 85.6777 39.8446C85.9977 40.352 86.6911 40.5523 87.1044 40.2986C87.5177 40.0449 87.7311 39.3104 87.4111 38.803C87.0911 38.2956 86.5444 37.9751 85.9311 38.4157V38.4024Z" fill="#E09200"/>
<path d="M93.9976 47.8432C93.2376 49.1785 91.9043 49.953 90.6776 49.2586C89.4509 48.5643 89.0776 46.9218 89.8376 45.5998C90.5976 44.2644 92.1842 43.7437 93.4109 44.438C94.6242 45.1324 94.7576 46.5078 93.9976 47.8432Z" fill="#D71615"/>
<path d="M90.7975 46.1478C90.3175 47.0024 90.5175 48.0173 91.2375 48.4312C91.9575 48.8452 93.0775 48.5647 93.5975 47.7368C94.3575 46.495 94.2642 45.667 93.0642 45.213C91.8642 44.759 91.2908 45.2932 90.7975 46.1478Z" fill="#AF1A16"/>
<path d="M90.9043 46.6024C90.5843 47.23 90.7043 48.1247 91.3309 48.4852C91.9576 48.8458 92.8642 48.5386 93.2109 47.9377C93.5576 47.3368 93.4509 46.2953 92.8242 45.9347C92.1976 45.5875 91.4109 45.6276 90.9043 46.6024Z" fill="#E04F00"/>
<path d="M90.7976 46.9086C90.5576 47.3893 90.731 48.1371 91.3176 48.4709C91.9043 48.8048 92.7043 48.6312 92.971 48.1505C93.2376 47.6697 93.0643 46.8285 92.4776 46.4946C91.891 46.1608 91.171 46.1341 90.7976 46.9086Z" fill="#E09200"/>
<path d="M67.0243 59.4346C66.0243 60.0622 64.8376 60.0889 64.2643 59.1809C63.691 58.2729 64.0376 57.0176 65.0243 56.4034C66.0109 55.7891 67.2909 56.0028 67.8643 56.9242C68.4376 57.8322 68.0109 58.8204 67.0243 59.448V59.4346Z" fill="#D71615"/>
<path d="M65.2644 56.9244C64.5577 57.3784 64.2911 58.2197 64.6644 58.8339C65.0511 59.4349 66.0111 59.6886 66.731 59.2613C67.811 58.6336 68.0777 57.966 67.3577 57.1381C66.6244 56.3101 65.9711 56.4704 65.2644 56.9244Z" fill="#AF1A16"/>
<path d="M65.171 57.3783C64.691 57.7121 64.411 58.3931 64.7043 58.8739C64.9977 59.3546 65.771 59.4748 66.2643 59.1676C66.7577 58.8605 67.1043 58.0727 66.7977 57.6053C66.491 57.1379 65.9177 56.8708 65.1577 57.3916L65.171 57.3783Z" fill="#E04F00"/>
<path d="M64.971 57.5647C64.5977 57.8184 64.4244 58.4193 64.7044 58.8733C64.9844 59.3273 65.6244 59.4876 66.011 59.2472C66.3977 59.0069 66.611 58.3392 66.331 57.8852C66.051 57.4312 65.5444 57.1507 64.971 57.5647Z" fill="#E09200"/>
<path d="M57.6645 58.5259C56.3712 59.3404 54.8112 59.3805 54.0779 58.192C53.3312 57.0036 53.7846 55.3744 55.0779 54.5599C56.3712 53.7453 58.0245 54.0525 58.7712 55.2409C59.5179 56.4294 58.9712 57.7113 57.6779 58.5259H57.6645Z" fill="#D71615"/>
<path d="M55.6645 55.5089C54.8379 56.0296 54.5312 57.0178 54.9712 57.7255C55.4112 58.4333 56.5312 58.727 57.3712 58.233C58.6245 57.4985 58.9445 56.724 58.0912 55.7626C57.2378 54.8011 56.4912 54.9881 55.6645 55.5089Z" fill="#AF1A16"/>
<path d="M55.5446 55.9627C54.9712 56.3633 54.6513 57.218 55.0246 57.8189C55.3979 58.4198 56.3446 58.5934 56.9446 58.2195C57.5312 57.8456 57.9312 56.8841 57.5579 56.2832C57.1846 55.6823 56.4646 55.3351 55.5579 55.9627H55.5446Z" fill="#E04F00"/>
<path d="M55.3045 56.1905C54.8645 56.4976 54.6645 57.2454 55.0245 57.8196C55.3845 58.3938 56.1712 58.6208 56.6378 58.327C57.0912 58.0333 57.3445 57.2053 56.9845 56.6311C56.6245 56.0569 56.0112 55.6964 55.3045 56.1905Z" fill="#E09200"/>
<path d="M56.0379 65.7641C54.5579 66.1781 53.0646 65.7641 52.6913 64.4154C52.318 63.0667 53.2113 61.6379 54.6913 61.2239C56.1713 60.81 57.6646 61.5845 58.0379 62.9332C58.4113 64.2819 57.5179 65.3502 56.0513 65.7641H56.0379Z" fill="#D71615"/>
<path d="M54.9846 62.292C54.0379 62.5458 53.4646 63.4137 53.6779 64.2149C53.9046 65.0161 54.8912 65.6171 55.8379 65.39C57.2512 65.0429 57.7712 64.4019 57.2379 63.2268C56.7046 62.0517 55.9179 62.025 54.9846 62.292Z" fill="#AF1A16"/>
<path d="M54.7443 62.6929C54.0777 62.9066 53.531 63.6277 53.7177 64.3221C53.9043 65.0164 54.7577 65.4437 55.4377 65.2568C56.1177 65.0699 56.771 64.2687 56.5843 63.5743C56.3977 62.8799 55.811 62.3591 54.7577 62.6929H54.7443Z" fill="#E04F00"/>
<path d="M54.4512 62.84C53.9312 63.0136 53.5312 63.6679 53.7179 64.3223C53.9046 64.9766 54.5846 65.4173 55.1179 65.2704C55.6512 65.1235 56.1179 64.4024 55.9445 63.7481C55.7712 63.0937 55.2779 62.573 54.4646 62.84H54.4512Z" fill="#E09200"/>
<path d="M66.251 67.7798C64.7577 68.1136 63.2777 67.6462 62.971 66.2708C62.6643 64.9088 63.6243 63.52 65.1177 63.1862C66.611 62.8523 68.0643 63.6803 68.3843 65.0557C68.7043 66.4311 67.7576 67.4459 66.2643 67.7798H66.251Z" fill="#D71615"/>
<path d="M65.3443 64.2695C64.3976 64.4831 63.7709 65.3244 63.9576 66.139C64.1443 66.9535 65.1043 67.5945 66.0643 67.4076C67.4909 67.1271 68.0509 66.5129 67.5709 65.3111C67.0909 64.1226 66.3176 64.0558 65.3576 64.2695H65.3443Z" fill="#AF1A16"/>
<path d="M65.0911 64.6556C64.4111 64.8425 63.8245 65.5369 63.9845 66.2313C64.1445 66.9256 64.9711 67.4064 65.6511 67.2461C66.3311 67.0859 67.0244 66.3114 66.8644 65.617C66.7044 64.9226 66.1445 64.3618 65.0778 64.6556H65.0911Z" fill="#E04F00"/>
<path d="M64.7845 64.7895C64.2645 64.9364 63.8245 65.564 63.9712 66.2317C64.1179 66.886 64.7845 67.3668 65.3179 67.2466C65.8512 67.1264 66.3579 66.4187 66.2112 65.7643C66.0645 65.11 65.5979 64.5625 64.7712 64.7895H64.7845Z" fill="#E09200"/>
<path d="M75.5576 60.3965C74.0643 60.7303 72.5843 60.2629 72.2776 58.8875C71.971 57.5255 72.931 56.1367 74.4243 55.8029C75.9176 55.469 77.3709 56.297 77.6909 57.6724C77.9976 59.0344 77.0643 60.0626 75.571 60.3965H75.5576Z" fill="#D71615"/>
<path d="M74.4776 57.1514C73.6509 57.3383 73.1176 58.0594 73.2776 58.7671C73.4376 59.4749 74.2643 60.0223 75.0909 59.8621C76.3176 59.6217 76.8109 59.0876 76.3843 58.0594C75.9576 57.0312 75.2909 56.9644 74.4776 57.1514Z" fill="#AF1A16"/>
<path d="M74.2509 57.4846C73.6643 57.6448 73.1576 58.2457 73.2909 58.8466C73.4243 59.4476 74.1442 59.8615 74.7309 59.728C75.3176 59.5944 75.9176 58.9268 75.7842 58.3259C75.6509 57.725 75.1576 57.2442 74.2376 57.4846H74.2509Z" fill="#E04F00"/>
<path d="M73.9976 57.5911C73.5442 57.7246 73.1709 58.2588 73.3042 58.833C73.4376 59.4072 74.0109 59.8211 74.4642 59.7143C74.9176 59.6075 75.3709 59.0066 75.2376 58.4324C75.1042 57.8582 74.7042 57.3908 73.9976 57.5911Z" fill="#E09200"/>
<path d="M74.9576 65.6577C73.9176 65.898 72.8909 65.5642 72.6643 64.6028C72.4509 63.6547 73.1176 62.6799 74.1576 62.4528C75.1976 62.2258 76.2109 62.8 76.4376 63.7481C76.6509 64.6962 75.9976 65.4173 74.9576 65.6577Z" fill="#D71615"/>
<path d="M74.3443 63.213C73.6777 63.3599 73.251 63.9474 73.371 64.5083C73.491 65.0691 74.171 65.5231 74.8377 65.3896C75.8243 65.2027 76.2243 64.762 75.891 63.9341C75.5577 63.1062 75.011 63.0527 74.3443 63.1996V63.213Z" fill="#AF1A16"/>
<path d="M74.1577 63.4803C73.691 63.6138 73.2777 64.0946 73.3844 64.5753C73.491 65.056 74.0777 65.3899 74.5444 65.283C75.0244 65.1762 75.5044 64.6287 75.3977 64.148C75.291 63.6673 74.891 63.2667 74.1577 63.4803Z" fill="#E04F00"/>
<path d="M73.9443 63.5744C73.5843 63.6813 73.2776 64.1219 73.3843 64.576C73.491 65.03 73.9576 65.3638 74.3176 65.2837C74.6909 65.2036 75.0509 64.7095 74.9443 64.2555C74.8376 63.8014 74.5176 63.4142 73.9443 63.5744Z" fill="#E09200"/>
<path d="M85.7844 56.6709C84.2911 57.0047 82.8111 56.5374 82.5044 55.162C82.1978 53.7865 83.1578 52.4111 84.6511 52.0773C86.1444 51.7435 87.5977 52.5714 87.9177 53.9468C88.2244 55.3088 87.2911 56.3371 85.7978 56.6709H85.7844Z" fill="#D71615"/>
<path d="M84.891 53.1455C83.9443 53.3591 83.3177 54.2004 83.5044 55.0149C83.691 55.8295 84.651 56.4705 85.611 56.2835C87.0377 56.0031 87.5977 55.3888 87.1177 54.187C86.6377 52.9986 85.8643 52.9318 84.9043 53.1455H84.891Z" fill="#AF1A16"/>
<path d="M84.6242 53.532C83.9442 53.719 83.3575 54.4133 83.5175 55.1077C83.6775 55.8021 84.5042 56.2828 85.1842 56.1226C85.8642 55.9623 86.5575 55.1878 86.3975 54.4935C86.2375 53.7991 85.6775 53.2382 84.6109 53.532H84.6242Z" fill="#E04F00"/>
<path d="M84.3309 53.666C83.8109 53.8129 83.3709 54.4405 83.5176 55.1082C83.6643 55.7625 84.3309 56.2432 84.8643 56.123C85.3976 56.0029 85.9042 55.2951 85.7576 54.6408C85.6109 53.9865 85.1443 53.439 84.3176 53.666H84.3309Z" fill="#E09200"/>
<path d="M84.8912 65.3773C83.7845 66.1785 82.3979 66.312 81.6645 65.2838C80.9312 64.2689 81.2379 62.7867 82.3445 61.9855C83.4512 61.1843 84.9579 61.3579 85.6912 62.3861C86.4245 63.4009 86.0112 64.5761 84.8912 65.3773Z" fill="#D71615"/>
<path d="M83.0242 62.7331C82.3042 63.2539 82.0776 64.1619 82.5176 64.7762C82.9576 65.3904 83.9842 65.5907 84.7175 65.0967C85.7975 64.3622 86.0509 63.6545 85.2242 62.8266C84.3975 61.9986 83.7309 62.2257 83.0109 62.7331H83.0242Z" fill="#AF1A16"/>
<path d="M82.9443 63.1465C82.451 63.5338 82.211 64.3216 82.5844 64.8424C82.9577 65.3632 83.8243 65.47 84.331 65.0961C84.851 64.7222 85.1443 63.8409 84.771 63.3068C84.3977 62.786 83.731 62.5189 82.9443 63.1332V63.1465Z" fill="#E04F00"/>
<path d="M82.7444 63.3743C82.3577 63.6814 82.2244 64.3624 82.5844 64.8565C82.9444 65.3506 83.6644 65.5108 84.0644 65.2304C84.4644 64.9366 84.6377 64.1755 84.291 63.6814C83.931 63.1873 83.3577 62.8935 82.7577 63.3743H82.7444Z" fill="#E09200"/>
<path d="M94.5842 57.8317C94.1709 59.3139 93.0509 60.3822 91.7042 60.0083C90.3576 59.6344 89.5976 58.1388 89.9976 56.6565C90.4109 55.1743 91.8376 54.293 93.1842 54.6669C94.5309 55.0408 94.9842 56.3494 94.5842 57.8317Z" fill="#D71615"/>
<path d="M91.0644 56.9512C90.7978 57.8993 91.2378 58.8341 92.0378 59.0611C92.8377 59.2881 93.8644 58.7406 94.1577 57.8059C94.5844 56.4171 94.3044 55.6292 93.0377 55.4957C91.7578 55.3488 91.3311 56.0031 91.0644 56.9512Z" fill="#AF1A16"/>
<path d="M91.2775 57.3641C91.1175 58.0451 91.4509 58.8998 92.1442 59.0867C92.8375 59.2736 93.6375 58.7662 93.8242 58.0985C94.0109 57.4309 93.6642 56.4427 92.9709 56.2558C92.2775 56.0688 91.5309 56.2958 91.2775 57.3775V57.3641Z" fill="#E04F00"/>
<path d="M91.2508 57.6987C91.1308 58.2328 91.4774 58.9139 92.1308 59.0875C92.7841 59.2744 93.5174 58.9005 93.6641 58.3797C93.8108 57.859 93.4374 57.0711 92.7841 56.8841C92.1308 56.6972 91.4375 56.8574 91.2508 57.6854V57.6987Z" fill="#E09200"/>
<path d="M51.5044 52.9311C50.2111 53.7457 48.6511 53.7858 47.9177 52.5973C47.1711 51.4088 47.6244 49.7797 48.9177 48.9652C50.2111 48.1506 51.8644 48.4577 52.611 49.6462C53.3577 50.8346 52.811 52.1166 51.5177 52.9311H51.5044Z" fill="#D71615"/>
<path d="M49.4911 49.9132C48.6644 50.4339 48.3577 51.4221 48.7977 52.1298C49.2377 52.8376 50.3577 53.1313 51.1977 52.6373C52.451 51.9028 52.771 51.1283 51.9177 50.1669C51.0644 49.2054 50.3177 49.3924 49.4911 49.9132Z" fill="#AF1A16"/>
<path d="M49.3711 50.367C48.7978 50.7676 48.4778 51.6223 48.8511 52.2232C49.2245 52.8241 50.1711 52.9977 50.7711 52.6238C51.3578 52.2499 51.7578 51.2884 51.3844 50.6875C51.0111 50.0866 50.2911 49.7394 49.3845 50.367H49.3711Z" fill="#E04F00"/>
<path d="M49.131 50.5816C48.691 50.8887 48.491 51.6365 48.851 52.2107C49.211 52.7849 49.9977 53.0119 50.4644 52.7182C50.9177 52.4244 51.171 51.5965 50.811 51.0223C50.451 50.4481 49.8377 50.0875 49.131 50.5816Z" fill="#E09200"/>
<path d="M87.0778 30.9789C86.5445 30.9522 84.1978 24.409 92.9978 18.5869C92.9978 18.5869 93.9177 23.6078 92.6511 26.3987C91.3711 29.1896 88.6245 31.0457 87.0911 30.9789H87.0778Z" fill="#A5C80A"/>
<path d="M89.4242 33.8623C89.4242 33.8623 95.5975 32.8741 99.6508 36.6131C103.704 40.3521 105.131 39.3105 107.331 40.8061C107.331 40.8061 104.197 43.6504 99.0908 42.4619C93.6108 41.18 92.1042 39.8447 89.4242 33.8757V33.8623Z" fill="#85B926"/>
<path d="M82.6111 19.3338C82.6111 19.3338 82.3711 14.9806 85.7711 11.936C85.7711 11.936 87.1977 19.2938 86.4777 23.193C85.7577 27.0922 87.0777 30.9914 87.0777 30.9914C87.0777 30.9914 81.4378 25.423 82.5978 19.3472L82.6111 19.3338Z" fill="#85B926"/>
<path d="M103.931 34.0628C103.931 34.0628 98.5575 29.576 94.9709 29.6962C91.3842 29.8164 88.6909 29.9499 87.0509 30.7912C87.0509 30.7912 87.6376 33.9159 91.7975 34.6637C95.9575 35.4115 103.931 34.0628 103.931 34.0628Z" fill="#486A2A"/>
<g style="mix-blend-mode:multiply" opacity="0.35">
<path d="M76.331 68.2209C65.9444 69.9836 53.4111 69.7432 47.9845 62.2786C44.8912 58.0189 44.9712 40.7662 52.9445 28.0537C52.8378 30.2837 52.8111 32.8743 52.9445 35.3046C52.9978 36.4397 53.0778 37.508 53.2245 38.4828C53.5445 40.7128 54.1178 42.4087 55.0778 42.9295C55.4511 43.1298 55.7978 43.3034 56.1311 43.4502C57.4644 44.0378 58.6244 44.3716 59.6244 45.0393C60.9178 45.8672 61.9577 47.2293 62.8244 50.3673C64.5177 56.5633 60.1311 52.2502 64.2244 62.4656C64.3444 62.7727 64.4777 63.0531 64.6644 63.3202C64.8511 63.654 65.0644 63.9745 65.3311 64.2683C65.3977 64.3751 65.5044 64.4686 65.5977 64.5754C65.9711 64.9627 66.3844 65.3232 66.8644 65.617C67.1177 65.8173 67.3977 65.9909 67.7044 66.1378C67.8777 66.2446 68.0377 66.3247 68.2244 66.4048C70.451 67.4598 73.291 68.0206 76.3177 68.2209H76.331Z" fill="#6395AE"/>
</g>
<path d="M32.6647 22.8724C40.0113 21.9377 47.5712 27.7465 48.6112 35.0374L52.1712 59.9149C53.3045 67.8335 47.0246 75.4984 38.998 76.2863C32.2913 76.9406 3.25151 70.8114 0.731528 55.6552C-0.375131 48.9651 12.8515 25.3962 32.6647 22.8858V22.8724Z" fill="#AE1413"/>
<mask id="mask2_129_5477" style="mask-type:luminance" maskUnits="userSpaceOnUse" x="0" y="22" width="53" height="55">
<path d="M32.6647 22.8724C40.0113 21.9377 47.5712 27.7465 48.6112 35.0374L52.1712 59.9149C53.3045 67.8335 47.0246 75.4984 38.998 76.2863C32.2913 76.9406 3.25151 70.8114 0.731528 55.6552C-0.375131 48.9651 12.8515 25.3962 32.6647 22.8858V22.8724Z" fill="white"/>
</mask>
<g mask="url(#mask2_129_5477)">
<path d="M44.9314 61.3844C49.9314 59.1009 51.918 55.1883 52.1047 53.7061C52.3314 53.2922 52.398 52.9049 52.3447 52.5444C52.638 52.1571 52.918 51.7565 53.1714 51.3426C53.7714 50.3143 53.3714 49.433 52.6114 48.8989C54.0114 46.1614 52.9847 43.3839 50.878 41.6212C52.6114 38.9238 53.0514 35.6389 51.7714 32.4608C49.0381 25.6238 41.9981 22.3255 34.6248 22.3789C34.0648 21.778 33.1448 21.4575 32.0648 21.8448C30.8915 22.2587 29.7315 22.6994 28.5715 23.1668C26.4649 23.7142 24.4249 24.5422 22.5449 25.6371C20.3849 26.9057 11.6783 32.3272 11.0116 41.0737C10.3583 49.8203 18.1849 55.856 24.2915 58.8071C30.3982 61.7582 40.8248 63.2672 44.9181 61.3977L44.9314 61.3844Z" fill="#D71615"/>
<path d="M45.398 47.3362C45.7846 45.5735 44.318 41.0467 43.6513 37.6148C42.8247 33.3684 45.4913 29.3357 38.838 28.0671C35.598 27.4529 30.0381 31.6325 28.6381 32.8209C25.5048 35.4649 23.7315 39.2573 25.2514 43.3568C26.5581 46.8821 34.9981 50.5677 37.038 51.3288C40.9713 52.771 44.5313 51.2888 45.398 47.3362Z" fill="#EB5959"/>
</g>
<path d="M32.6114 59.2077C31.0914 59.3546 29.678 58.7003 29.5447 57.2982C29.4114 55.8961 30.5314 54.6542 32.0514 54.5073C33.5713 54.3604 34.918 55.3753 35.0513 56.764C35.1847 58.1661 34.1313 59.0608 32.598 59.2077H32.6114Z" fill="#EB5959"/>
<path d="M31.878 55.9358C31.078 56.0159 30.4914 56.6302 30.558 57.2978C30.6247 57.9789 31.3313 58.5931 32.1313 58.5531C33.318 58.473 33.838 58.0323 33.5713 57.0174C33.3047 56.0026 32.678 55.869 31.878 55.9358Z" fill="#AF1A16"/>
<path d="M31.6513 56.2026C31.0647 56.2827 30.5047 56.8035 30.5713 57.4044C30.638 58.0053 31.2647 58.486 31.8513 58.4326C32.438 58.3792 33.0913 57.805 33.038 57.2041C32.9846 56.6032 32.5713 56.0824 31.6513 56.2159V56.2026Z" fill="#E04F00"/>
<path d="M31.3847 56.2824C30.9313 56.3492 30.5047 56.8299 30.558 57.3907C30.6113 57.9516 31.118 58.4189 31.5713 58.3789C32.0247 58.3388 32.5313 57.8047 32.478 57.2438C32.4246 56.683 32.0913 56.1756 31.3847 56.2824Z" fill="#E09200"/>
<path d="M25.5982 49.1394C24.0782 49.2862 22.6649 48.6319 22.5315 47.2298C22.3982 45.8277 23.5182 44.5858 25.0382 44.4389C26.5582 44.2921 27.9048 45.3069 28.0382 46.6957C28.1715 48.0978 27.1182 48.9925 25.5848 49.1394H25.5982Z" fill="#EB5959"/>
<path d="M25.158 45.5338C24.1846 45.6272 23.4646 46.375 23.5446 47.2029C23.6246 48.0309 24.4913 48.792 25.4646 48.7252C26.9046 48.6318 27.5446 48.0843 27.2246 46.8424C26.9046 45.6005 26.1313 45.4269 25.158 45.5204V45.5338Z" fill="#AF1A16"/>
<path d="M24.8381 45.8936C24.1448 45.9871 23.4781 46.6013 23.5448 47.3224C23.6114 48.0302 24.3714 48.6043 25.0781 48.5376C25.7714 48.4708 26.5581 47.7898 26.4914 47.0821C26.4248 46.3743 25.9314 45.7467 24.8381 45.8936Z" fill="#E04F00"/>
<path d="M24.5314 45.9868C23.9981 46.0669 23.4781 46.6411 23.5447 47.3088C23.6114 47.9765 24.2114 48.5373 24.7581 48.4839C25.3047 48.4305 25.8914 47.8029 25.8381 47.1218C25.7714 46.4542 25.3847 45.8533 24.5314 45.9734V45.9868Z" fill="#E09200"/>
<path d="M29.8246 42.6491C28.3046 42.796 26.8913 42.1417 26.758 40.7396C26.6246 39.3375 27.7446 38.0956 29.2646 37.9487C30.7846 37.8018 32.1313 38.8167 32.2646 40.2054C32.3979 41.6076 31.3446 42.5022 29.8113 42.6491H29.8246Z" fill="#EB9292"/>
<path d="M29.3715 39.0567C28.3981 39.1502 27.6781 39.898 27.7581 40.7259C27.8381 41.5538 28.7048 42.3149 29.6781 42.2482C31.1181 42.1547 31.7581 41.6072 31.4381 40.3653C31.1181 39.1235 30.3448 38.9499 29.3715 39.0433V39.0567Z" fill="#AF1A16"/>
<path d="M29.0647 39.4048C28.3713 39.4983 27.7047 40.1126 27.7713 40.8336C27.838 41.5414 28.598 42.1156 29.3047 42.0488C29.998 41.982 30.7847 41.301 30.718 40.5933C30.6513 39.8856 30.158 39.2579 29.0647 39.4048Z" fill="#E04F00"/>
<path d="M28.758 39.4968C28.2246 39.577 27.7046 40.1512 27.7713 40.8188C27.838 41.4865 28.438 42.0473 28.9846 41.9939C29.5313 41.9405 30.1179 41.3129 30.0646 40.6319C30.0113 39.9508 29.6113 39.3633 28.758 39.4835V39.4968Z" fill="#E09200"/>
<path d="M44.8913 44.0378C43.3713 44.1847 41.9579 43.5304 41.8246 42.1283C41.6913 40.7261 42.8113 39.4843 44.3313 39.3374C45.8513 39.1905 47.1979 40.2054 47.3312 41.5941C47.4646 42.9962 46.4112 43.8909 44.8779 44.0378H44.8913Z" fill="#EB9292"/>
<path d="M44.4378 40.4327C43.4644 40.5262 42.7444 41.2739 42.8244 42.1019C42.9044 42.9298 43.7711 43.6909 44.7444 43.6242C46.1844 43.5307 46.8244 42.9832 46.5044 41.7413C46.1844 40.4994 45.4111 40.3258 44.4378 40.4193V40.4327Z" fill="#AF1A16"/>
<path d="M44.1313 40.7789C43.438 40.8723 42.7713 41.4866 42.838 42.2077C42.9047 42.9154 43.6646 43.4896 44.3713 43.4228C45.0646 43.3561 45.8513 42.675 45.7846 41.9673C45.718 41.2596 45.2246 40.632 44.1313 40.7789Z" fill="#E04F00"/>
<path d="M43.8112 40.8872C43.2778 40.9673 42.7579 41.5415 42.8245 42.2092C42.8912 42.8768 43.4912 43.4377 44.0378 43.3843C44.5845 43.3309 45.1712 42.7032 45.1178 42.0222C45.0512 41.3545 44.6645 40.7536 43.8112 40.8738V40.8872Z" fill="#E09200"/>
<path d="M16.4513 47.175C14.9313 47.3219 13.518 46.6676 13.3847 45.2655C13.2513 43.8633 14.3713 42.6215 15.8913 42.4746C17.4113 42.3277 18.758 43.3426 18.8913 44.7313C19.0246 46.1334 17.9713 47.0281 16.438 47.175H16.4513Z" fill="#EB5959"/>
<path d="M16.0116 43.5845C15.0383 43.678 14.3183 44.4258 14.3983 45.2537C14.4783 46.0816 15.3449 46.8428 16.3183 46.776C17.7583 46.6825 18.3983 46.135 18.0783 44.8932C17.7583 43.6513 16.9849 43.4777 16.0116 43.5712V43.5845Z" fill="#AF1A16"/>
<path d="M15.6914 43.9312C14.998 44.0247 14.3314 44.6389 14.398 45.36C14.4647 46.0677 15.2247 46.6419 15.9314 46.5752C16.6247 46.5084 17.4114 45.8274 17.3447 45.1197C17.278 44.4119 16.7847 43.7843 15.6914 43.9312Z" fill="#E04F00"/>
<path d="M15.3847 44.0244C14.8513 44.1045 14.3313 44.6787 14.398 45.3464C14.4647 46.014 15.0647 46.5749 15.6113 46.5215C16.158 46.4681 16.7447 45.8404 16.6913 45.1594C16.6247 44.4918 16.238 43.8908 15.3847 44.011V44.0244Z" fill="#E09200"/>
<path d="M18.9849 38.0822C17.4649 38.2291 16.0516 37.5748 15.9182 36.1727C15.7849 34.7706 16.9049 33.5287 18.4249 33.3818C19.9449 33.2349 21.2915 34.2498 21.4249 35.6385C21.5582 37.0407 20.5049 37.9353 18.9716 38.0822H18.9849Z" fill="#EB5959"/>
<path d="M18.5314 34.4771C17.5581 34.5706 16.8381 35.3184 16.9181 36.1463C16.9981 36.9742 17.8647 37.7354 18.838 37.6686C20.278 37.5751 20.918 37.0276 20.598 35.7858C20.278 34.5439 19.5047 34.3703 18.5314 34.4638V34.4771Z" fill="#AF1A16"/>
<path d="M18.2246 34.8233C17.5312 34.9168 16.8646 35.531 16.9312 36.2521C16.9979 36.9598 17.7579 37.534 18.4646 37.4673C19.1579 37.4005 19.9446 36.7195 19.8779 36.0117C19.8112 35.304 19.3179 34.6764 18.2246 34.8233Z" fill="#E04F00"/>
<path d="M17.9048 34.9177C17.3715 34.9978 16.8515 35.572 16.9181 36.2397C16.9848 36.9074 17.5848 37.4682 18.1315 37.4148C18.6781 37.3614 19.2648 36.7338 19.2115 36.0528C19.1581 35.3717 18.7581 34.7842 17.9048 34.9044V34.9177Z" fill="#E09200"/>
<path d="M25.0913 31.8728C23.5713 32.0196 22.158 31.3653 22.0247 29.9632C21.8914 28.5611 23.0113 27.3192 24.5313 27.1723C26.0513 27.0254 27.398 28.0403 27.5313 29.4291C27.6646 30.8312 26.6113 31.7259 25.078 31.8728H25.0913Z" fill="#EB5959"/>
<path d="M24.6381 28.2798C23.6647 28.3733 22.9447 29.1211 23.0247 29.949C23.1047 30.7769 23.9714 31.5381 24.9447 31.4713C26.3847 31.3778 27.0247 30.8304 26.7047 29.5885C26.3847 28.3466 25.6114 28.173 24.6381 28.2665V28.2798Z" fill="#AF1A16"/>
<path d="M24.3313 28.628C23.6379 28.7214 22.9713 29.3357 23.0379 30.0568C23.1046 30.7645 23.8646 31.3387 24.5713 31.272C25.2646 31.2052 26.0513 30.5242 25.9846 29.8164C25.9179 29.1087 25.4246 28.4811 24.3313 28.628Z" fill="#E04F00"/>
<path d="M24.0115 28.7214C23.4782 28.8016 22.9582 29.3758 23.0248 30.0434C23.0915 30.7111 23.6915 31.272 24.2382 31.2185C24.7848 31.1651 25.3715 30.5375 25.3182 29.8565C25.2648 29.1755 24.8648 28.5879 24.0115 28.7081V28.7214Z" fill="#E09200"/>
<path d="M33.8113 27.6259C32.638 27.7327 31.5714 27.2386 31.4647 26.1703C31.358 25.1021 32.2247 24.1406 33.3847 24.0338C34.5447 23.9269 35.5847 24.7014 35.6913 25.7697C35.798 26.838 34.9847 27.5324 33.8113 27.6392V27.6259Z" fill="#EB5959"/>
<path d="M33.4781 24.8613C32.7314 24.928 32.1848 25.5022 32.2381 26.1432C32.3048 26.7842 32.9714 27.3584 33.7181 27.3183C34.8247 27.2515 35.3181 26.8242 35.0647 25.8761C34.8114 24.928 34.2247 24.7945 33.4781 24.8613Z" fill="#AF1A16"/>
<path d="M33.2381 25.1421C32.7048 25.2223 32.1981 25.6896 32.2514 26.2371C32.3048 26.7846 32.8914 27.2253 33.4248 27.1719C33.9581 27.1184 34.5581 26.5977 34.5047 26.0502C34.4514 25.5027 34.0781 25.022 33.2381 25.1421Z" fill="#E04F00"/>
<path d="M32.9982 25.2086C32.5849 25.2753 32.1982 25.7027 32.2515 26.2234C32.3049 26.7442 32.7582 27.1715 33.1849 27.1315C33.6115 27.0914 34.0648 26.6107 34.0115 26.0899C33.9582 25.5691 33.6649 25.1151 33.0115 25.2086H32.9982Z" fill="#E09200"/>
<path d="M41.118 28.5218C40.1713 28.2948 39.4647 27.6004 39.678 26.7325C39.8913 25.8645 40.8247 25.3437 41.7847 25.5841C42.7313 25.8111 43.3313 26.7058 43.118 27.5737C42.9047 28.4417 42.078 28.7622 41.1313 28.5218H41.118Z" fill="#EB5959"/>
<path d="M41.6113 26.2516C41.0113 26.1048 40.4113 26.3985 40.2913 26.9193C40.1713 27.4401 40.5313 28.0811 41.1313 28.2413C42.0246 28.495 42.518 28.2947 42.5846 27.4802C42.6513 26.6656 42.2246 26.3985 41.6246 26.2516H41.6113Z" fill="#AF1A16"/>
<path d="M41.3445 26.3979C40.9045 26.3045 40.3712 26.5448 40.2645 26.9855C40.1579 27.4262 40.4912 27.9336 40.9312 28.0404C41.3712 28.1472 41.9845 27.9069 42.0912 27.4529C42.1979 26.9988 42.0379 26.5315 41.3445 26.3979Z" fill="#E04F00"/>
<path d="M41.1447 26.3851C40.798 26.3183 40.3713 26.5587 40.278 26.9726C40.1713 27.3866 40.4247 27.854 40.758 27.9341C41.0913 28.0142 41.5847 27.7605 41.6913 27.3465C41.798 26.9326 41.6913 26.4786 41.1447 26.3851Z" fill="#E09200"/>
<path d="M37.2647 38.6838C35.7447 38.8307 34.3314 38.1764 34.198 36.7742C34.0647 35.3721 35.1847 34.1303 36.7047 33.9834C38.2247 33.8365 39.5713 34.8514 39.7047 36.2401C39.838 37.6422 38.7847 38.5369 37.2513 38.6838H37.2647Z" fill="#EB9292"/>
<path d="M36.4247 35.1172C35.6647 35.1973 35.118 35.8784 35.1847 36.6395C35.2514 37.4007 35.9447 38.1218 36.7047 38.0817C37.838 38.0149 38.318 37.5208 38.0514 36.3724C37.7847 35.2241 37.1847 35.0505 36.4247 35.1306V35.1172Z" fill="#AF1A16"/>
<path d="M36.2113 35.7594C35.678 35.8395 35.158 36.3069 35.2113 36.8677C35.2646 37.4152 35.8513 37.8693 36.398 37.8158C36.9446 37.7624 37.5446 37.2283 37.4913 36.6808C37.438 36.1333 37.0646 35.6392 36.2113 35.7594Z" fill="#E04F00"/>
<path d="M35.9713 35.8252C35.558 35.8919 35.158 36.3326 35.2113 36.8534C35.2647 37.3742 35.7313 37.8015 36.1447 37.7614C36.558 37.7213 37.0247 37.2273 36.9713 36.7065C36.918 36.1857 36.6247 35.7183 35.958 35.8118L35.9713 35.8252Z" fill="#E09200"/>
<path d="M36.7713 48.5918C35.4246 48.7253 34.1713 48.1377 34.0513 46.8959C33.9313 45.654 34.9313 44.5457 36.2779 44.4121C37.6246 44.2786 38.8246 45.1733 38.9446 46.4151C39.0646 47.657 38.1179 48.4449 36.7713 48.5784V48.5918Z" fill="#EB9292"/>
<path d="M36.2779 45.333C35.4245 45.4132 34.7845 46.0808 34.8512 46.8153C34.9179 47.5497 35.6912 48.2174 36.5579 48.164C37.8379 48.0838 38.3979 47.6031 38.1045 46.4948C37.8112 45.3864 37.1445 45.2529 36.2779 45.333Z" fill="#AF1A16"/>
<path d="M35.9982 45.654C35.3849 45.7342 34.7982 46.2816 34.8515 46.9093C34.9182 47.5369 35.5849 48.0443 36.2115 47.9909C36.8248 47.9375 37.5182 47.3232 37.4648 46.6956C37.3982 46.068 36.9715 45.5205 35.9982 45.654Z" fill="#E04F00"/>
<path d="M35.7312 45.7337C35.2512 45.8005 34.8112 46.3079 34.8645 46.9088C34.9178 47.5097 35.4512 48.0038 35.9312 47.9504C36.4112 47.9103 36.9445 47.3495 36.8778 46.7486C36.8245 46.1477 36.4778 45.6269 35.7312 45.7337Z" fill="#E09200"/>
<path d="M46.3844 54.186C45.0378 54.3195 43.7844 53.732 43.6644 52.4901C43.5444 51.2482 44.5444 50.1399 45.8911 50.0064C47.2377 49.8728 48.4377 50.7675 48.5577 52.0094C48.6777 53.2513 47.7311 54.0391 46.3844 54.1726V54.186Z" fill="#EB5959"/>
<path d="M45.8911 50.9419C45.0378 51.022 44.3978 51.6897 44.4645 52.4242C44.5312 53.1586 45.3045 53.8263 46.1711 53.7729C47.4511 53.6927 48.0111 53.212 47.7178 52.1037C47.4245 50.9953 46.7578 50.8618 45.8911 50.9419Z" fill="#AF1A16"/>
<path d="M45.6113 51.2483C44.998 51.3284 44.4113 51.8759 44.4647 52.5035C44.5313 53.1311 45.198 53.6385 45.8247 53.5851C46.438 53.5317 47.1313 52.9175 47.078 52.2898C47.0113 51.6622 46.5847 51.1147 45.6113 51.2483Z" fill="#E04F00"/>
<path d="M45.3444 51.3294C44.8644 51.3962 44.4245 51.9036 44.4778 52.5045C44.5311 53.1054 45.0644 53.5995 45.5444 53.5461C46.0244 53.506 46.5578 52.9452 46.4911 52.3443C46.4378 51.7434 46.0911 51.2226 45.3444 51.3294Z" fill="#E09200"/>
<path d="M48.3178 63.4005C47.0512 64.2551 45.4912 64.3486 44.7178 63.1735C43.9445 62.0118 44.3312 60.3693 45.6112 59.5147C46.8778 58.66 48.5445 58.9138 49.3178 60.0755C50.0911 61.2373 49.5845 62.5326 48.3178 63.3872V63.4005Z" fill="#D71615"/>
<path d="M46.2245 60.4354C45.4111 60.9829 45.1311 61.9844 45.5978 62.6788C46.0645 63.3732 47.1845 63.6269 48.0111 63.1061C49.2378 62.3316 49.5445 61.5571 48.6645 60.609C47.7845 59.6743 47.0378 59.888 46.2245 60.4354Z" fill="#AF1A16"/>
<path d="M46.118 60.9028C45.558 61.3167 45.2513 62.1847 45.6513 62.7723C46.0513 63.3598 46.998 63.5067 47.5713 63.1194C48.1579 62.7322 48.5179 61.7574 48.1179 61.1565C47.7179 60.5689 46.998 60.2485 46.1046 60.9028H46.118Z" fill="#E04F00"/>
<path d="M45.8912 61.13C45.4512 61.4505 45.2778 62.1983 45.6512 62.7591C46.0245 63.3199 46.8245 63.5202 47.2778 63.2265C47.7312 62.9327 47.9578 62.0781 47.5845 61.5172C47.2112 60.9564 46.5845 60.6092 45.8912 61.13Z" fill="#E09200"/>
<path d="M19.0247 61.6506C17.8514 61.7574 16.7714 61.2634 16.6781 60.1817C16.5714 59.1134 17.4381 58.152 18.6114 58.0318C19.7847 57.925 20.8114 58.6995 20.918 59.7678C21.0247 60.836 20.2114 61.5304 19.0381 61.6372L19.0247 61.6506Z" fill="#D71615"/>
<path d="M18.5715 58.6341C17.7316 58.7143 17.1182 59.3552 17.1849 60.0763C17.2516 60.784 17.9982 61.4384 18.8382 61.385C20.0782 61.3048 20.6249 60.8375 20.3449 59.7692C20.0649 58.7009 19.4115 58.554 18.5715 58.6341Z" fill="#AF1A16"/>
<path d="M18.2914 58.9938C17.7181 59.0739 17.1581 59.568 17.2114 60.1288C17.2647 60.6897 17.9047 61.1437 18.4781 61.0903C19.0514 61.0368 19.7181 60.4894 19.6647 59.9285C19.6114 59.3677 19.2114 58.8736 18.2914 58.9938Z" fill="#E04F00"/>
<path d="M18.0249 59.0744C17.5716 59.1412 17.1582 59.5952 17.1982 60.1293C17.2516 60.6635 17.7449 61.1041 18.1982 61.0507C18.6516 61.0107 19.1449 60.5032 19.0916 59.9691C19.0382 59.435 18.7182 58.9676 18.0116 59.0744H18.0249Z" fill="#E09200"/>
<path d="M11.0647 56.6569C9.54473 56.8038 8.13141 56.1495 7.99807 54.7474C7.86474 53.3453 8.98474 52.1034 10.5047 51.9565C12.0247 51.8096 13.3714 52.8245 13.5047 54.2133C13.638 55.6154 12.5847 56.51 11.0514 56.6569H11.0647Z" fill="#D71615"/>
<path d="M10.6249 53.0518C9.65156 53.1453 8.93156 53.8931 9.01156 54.721C9.09156 55.5489 9.95822 56.3101 10.9316 56.2433C12.3715 56.1498 13.0115 55.6023 12.6915 54.3605C12.3715 53.1186 11.5982 52.945 10.6249 53.0385V53.0518Z" fill="#AF1A16"/>
<path d="M10.3048 53.399C9.61145 53.4924 8.94478 54.1067 9.01145 54.8278C9.07812 55.5355 9.83811 56.1097 10.5448 56.043C11.2381 55.9762 12.0248 55.2952 11.9581 54.5874C11.8914 53.8797 11.3981 53.2521 10.3048 53.399Z" fill="#E04F00"/>
<path d="M9.99831 53.4922C9.46498 53.5723 8.94498 54.1465 9.01165 54.8141C9.07832 55.4818 9.67831 56.0427 10.225 55.9893C10.7716 55.9358 11.3583 55.3082 11.305 54.6272C11.2383 53.9595 10.8516 53.3586 9.99831 53.4788V53.4922Z" fill="#E09200"/>
<path d="M6.37161 62.3851C4.86495 62.0913 3.71829 61.0497 3.98496 59.6743C4.25162 58.2989 5.69162 57.4176 7.19827 57.7247C8.70493 58.0185 9.69159 59.3805 9.42493 60.7559C9.15826 62.1313 7.87827 62.6788 6.38494 62.3851H6.37161Z" fill="#D71615"/>
<path d="M6.98485 58.8068C6.02486 58.6199 5.1182 59.1273 4.9582 59.9419C4.7982 60.7564 5.41153 61.7446 6.35819 61.9582C7.77151 62.2787 8.53151 61.9449 8.58484 60.6629C8.63818 59.381 7.94485 58.9938 6.98485 58.8068Z" fill="#AF1A16"/>
<path d="M6.58486 59.0606C5.89153 58.9538 5.0782 59.3544 4.93153 60.0487C4.78487 60.7431 5.3582 61.5176 6.05153 61.6512C6.74485 61.7847 7.69152 61.3574 7.82485 60.663C7.95818 59.9686 7.67818 59.2208 6.58486 59.0606Z" fill="#E04F00"/>
<path d="M6.26482 59.0614C5.73149 58.9813 5.07816 59.3819 4.94483 60.0496C4.8115 60.7172 5.23816 61.425 5.75816 61.5318C6.29149 61.6386 7.05148 61.198 7.17148 60.5436C7.30481 59.876 7.10481 59.1949 6.25149 59.0748L6.26482 59.0614Z" fill="#E09200"/>
<path d="M14.5982 68.7696C13.1182 68.4091 11.9982 67.3141 12.3449 65.952C12.6916 64.59 14.1582 63.7888 15.6382 64.1493C17.1182 64.5098 18.0515 65.912 17.7182 67.274C17.3849 68.6361 16.0782 69.1301 14.5982 68.7562V68.7696Z" fill="#D71615"/>
<path d="M15.3716 65.2301C14.4249 64.9897 13.4916 65.4571 13.2916 66.2717C13.0916 67.0862 13.6649 68.0877 14.5982 68.3548C15.9982 68.7421 16.7715 68.4483 16.8782 67.1664C16.9849 65.8844 16.3182 65.4705 15.3716 65.2435V65.2301Z" fill="#AF1A16"/>
<path d="M14.958 65.4567C14.2647 65.3232 13.438 65.6837 13.2647 66.3647C13.0914 67.0458 13.6247 67.8603 14.3047 68.0206C14.9847 68.1942 15.958 67.8069 16.118 67.1125C16.278 66.4182 16.038 65.6704 14.958 65.4434V65.4567Z" fill="#E04F00"/>
<path d="M14.638 65.4434C14.1047 65.3366 13.438 65.7105 13.278 66.3648C13.118 67.0191 13.5047 67.7535 14.0247 67.8737C14.558 68.0072 15.3313 67.6066 15.4913 66.9523C15.6513 66.298 15.4913 65.6036 14.638 65.4434Z" fill="#E09200"/>
<path d="M26.2248 66.3516C24.7448 65.9911 23.6248 64.8961 23.9715 63.534C24.3182 62.172 25.7848 61.3708 27.2648 61.7313C28.7448 62.0919 29.6781 63.494 29.3448 64.856C29.0115 66.2181 27.7048 66.7122 26.2248 66.3383V66.3516Z" fill="#D71615"/>
<path d="M26.7179 62.9603C25.9046 62.76 25.0912 63.1606 24.9179 63.855C24.7446 64.5494 25.2379 65.4307 26.0512 65.6577C27.2512 65.9915 27.9312 65.7378 28.0246 64.6295C28.1179 63.5211 27.5446 63.1606 26.7179 62.9603Z" fill="#AF1A16"/>
<path d="M26.3579 63.1595C25.7579 63.0393 25.0379 63.3465 24.8912 63.9474C24.7445 64.5483 25.1979 65.2427 25.7845 65.3762C26.3712 65.5231 27.2112 65.1892 27.3579 64.5883C27.5045 63.9874 27.2912 63.3331 26.3445 63.1462L26.3579 63.1595Z" fill="#E04F00"/>
<path d="M26.0779 63.146C25.6113 63.0525 25.038 63.373 24.8913 63.9472C24.7446 64.5214 25.078 65.149 25.5446 65.2558C25.9979 65.3626 26.6646 65.0288 26.8113 64.4546C26.9579 63.8804 26.8113 63.2795 26.0779 63.146Z" fill="#E09200"/>
<path d="M23.3447 70.7845C22.3047 70.5308 21.5314 69.7697 21.7714 68.8216C22.0114 67.8735 23.038 67.3126 24.0647 67.5664C25.0914 67.8201 25.7447 68.7949 25.518 69.743C25.278 70.6911 24.3847 71.0383 23.3447 70.7845Z" fill="#D71615"/>
<path d="M23.878 68.3142C23.2113 68.154 22.5713 68.4744 22.4247 69.0353C22.278 69.5961 22.678 70.3039 23.3313 70.4908C24.3047 70.7579 24.8513 70.5576 24.918 69.6629C24.9847 68.7682 24.5313 68.4878 23.8647 68.3142H23.878Z" fill="#AF1A16"/>
<path d="M23.5982 68.4752C23.1183 68.3818 22.5316 68.6355 22.4116 69.1162C22.2916 69.5969 22.6649 70.1578 23.1316 70.2779C23.6116 70.3981 24.2782 70.1311 24.3982 69.6503C24.5182 69.1696 24.3449 68.6488 23.5849 68.4886L23.5982 68.4752Z" fill="#E04F00"/>
<path d="M23.358 68.4613C22.9847 68.3945 22.518 68.6482 22.4113 69.1022C22.3047 69.5562 22.5713 70.0637 22.9313 70.1572C23.2913 70.2506 23.838 69.9702 23.958 69.5162C24.0646 69.0622 23.958 68.5681 23.3713 68.4613H23.358Z" fill="#E09200"/>
<path d="M37.0379 67.5928C35.5579 67.2323 34.4379 66.1373 34.7846 64.7753C35.1313 63.4132 36.5979 62.612 38.0779 62.9725C39.5579 63.3331 40.4912 64.7352 40.1579 66.0973C39.8246 67.4593 38.5179 67.9534 37.0379 67.5795V67.5928Z" fill="#D71615"/>
<path d="M37.8113 64.0548C36.8646 63.8145 35.9313 64.2818 35.7313 65.0964C35.5313 65.9109 36.1046 66.9124 37.0379 67.1795C38.4379 67.5668 39.2112 67.273 39.3179 65.9911C39.4246 64.7091 38.7579 64.2952 37.8113 64.0682V64.0548Z" fill="#AF1A16"/>
<path d="M37.398 64.2819C36.7046 64.1484 35.878 64.5089 35.7046 65.1899C35.5313 65.8843 36.0646 66.6855 36.7446 66.8458C37.4246 67.0194 38.3979 66.6321 38.5579 65.9377C38.7313 65.2434 38.4779 64.4956 37.398 64.2686V64.2819Z" fill="#E04F00"/>
<path d="M37.0779 64.2686C36.5446 64.1617 35.8779 64.5357 35.7179 65.19C35.5579 65.8443 35.9446 66.5787 36.4646 66.6989C36.9979 66.8324 37.7713 66.4318 37.9313 65.7775C38.0913 65.1232 37.9313 64.4288 37.0779 64.2686Z" fill="#E09200"/>
<path d="M32.3312 74.9783C30.9712 75.192 29.6779 74.6846 29.4779 73.4427C29.2779 72.2008 30.2112 71.0124 31.5712 70.7987C32.9312 70.5851 34.1845 71.413 34.3845 72.6548C34.5845 73.8967 33.6912 74.7647 32.3312 74.9783Z" fill="#D71615"/>
<path d="M31.8513 71.786C30.9846 71.9329 30.3713 72.6407 30.4913 73.3885C30.6113 74.1362 31.438 74.7639 32.318 74.657C33.6113 74.4834 34.158 73.9626 33.798 72.8543C33.438 71.746 32.7313 71.6391 31.8646 71.786H31.8513Z" fill="#AF1A16"/>
<path d="M31.5981 72.1199C30.9715 72.2534 30.4115 72.841 30.5181 73.4819C30.6248 74.1229 31.3448 74.5903 31.9715 74.4968C32.5981 74.39 33.2648 73.7356 33.1581 73.0947C33.0514 72.4537 32.5848 71.9196 31.5981 72.1199Z" fill="#E04F00"/>
<path d="M31.318 72.2261C30.838 72.3329 30.4113 72.8804 30.5046 73.4813C30.598 74.0823 31.1713 74.5496 31.6646 74.4695C32.1579 74.3894 32.6513 73.7885 32.5579 73.1876C32.4646 72.5867 32.0779 72.0659 31.318 72.2261Z" fill="#E09200"/>
<path d="M44.3846 72.587C43.3579 73.722 41.878 74.1894 40.838 73.2413C39.798 72.3065 39.7846 70.6107 40.8113 69.4756C41.838 68.3406 43.5046 68.1803 44.5446 69.1284C45.5846 70.0632 45.3979 71.4519 44.3713 72.587H44.3846Z" fill="#D71615"/>
<path d="M41.6246 70.2244C40.9712 70.9454 40.9446 71.987 41.5579 72.5479C42.1712 73.1087 43.3312 73.082 44.0112 72.3743C45.0112 71.3327 45.1179 70.5048 44.0379 69.797C42.9579 69.1027 42.2779 69.4899 41.6246 70.211V70.2244Z" fill="#AF1A16"/>
<path d="M41.6379 70.6916C41.1846 71.2257 41.1046 72.1337 41.6379 72.6145C42.1713 73.0952 43.1179 73.0017 43.5846 72.4809C44.0513 71.9602 44.1713 70.9319 43.6513 70.4512C43.1179 69.9705 42.3446 69.8369 41.6379 70.6916Z" fill="#E04F00"/>
<path d="M41.4647 70.9725C41.118 71.3998 41.1314 72.1609 41.6247 72.6149C42.1313 73.069 42.9447 73.069 43.3047 72.6683C43.6647 72.2677 43.6913 71.3998 43.1847 70.9324C42.678 70.4784 41.998 70.3048 41.4514 70.9591L41.4647 70.9725Z" fill="#E09200"/>
<path d="M8.06472 48.8718C6.54473 49.0187 5.13141 48.3643 4.99807 46.9622C4.86474 45.5601 5.98474 44.3182 7.50473 44.1714C9.02472 44.0245 10.3714 45.0393 10.5047 46.4281C10.638 47.8302 9.58471 48.7249 8.05139 48.8718H8.06472Z" fill="#D71615"/>
<path d="M7.61158 45.2798C6.63825 45.3733 5.91826 46.1211 5.99826 46.949C6.07826 47.7769 6.94492 48.5381 7.91825 48.4713C9.35824 48.3778 9.99823 47.8304 9.67823 46.5885C9.35824 45.3466 8.58491 45.173 7.61158 45.2665V45.2798Z" fill="#AF1A16"/>
<path d="M7.30478 45.6265C6.61145 45.72 5.94478 46.3342 6.01145 47.0553C6.07812 47.7631 6.83811 48.3373 7.54477 48.2705C8.2381 48.2037 9.02476 47.5227 8.9581 46.815C8.89143 46.1072 8.3981 45.4796 7.30478 45.6265Z" fill="#E04F00"/>
<path d="M6.98488 45.72C6.45155 45.8001 5.93156 46.3743 5.99822 47.042C6.06489 47.7096 6.66489 48.2705 7.21155 48.2171C7.75821 48.1637 8.34488 47.536 8.29154 46.855C8.23821 46.174 7.83821 45.5864 6.98488 45.7066V45.72Z" fill="#E09200"/>
<path d="M49.6913 45.2131C49.2246 44.9461 50.0513 38.0423 60.5179 36.7871C60.5179 36.7871 59.1045 41.6878 56.7046 43.6241C54.3179 45.547 51.0246 45.9743 49.6779 45.2131H49.6913Z" fill="#A5C80A"/>
<path d="M50.4911 48.8452C50.4911 48.8452 56.4511 50.7281 58.3977 55.8825C60.3444 61.0369 62.091 60.7431 63.3977 63.08C63.3977 63.08 59.3311 64.2284 55.2911 60.8633C50.9578 57.2579 50.2111 55.3884 50.4911 48.8452Z" fill="#85B926"/>
<path d="M50.8912 32.7946C50.8912 32.7946 52.6245 28.8019 57.0245 27.6001C57.0245 27.6001 55.0112 34.8243 52.6245 37.9757C50.2379 41.1272 49.6645 45.2133 49.6645 45.2133C49.6645 45.2133 47.1179 37.7087 50.8778 32.7946H50.8912Z" fill="#85B926"/>
<path d="M63.371 55.5218C63.371 55.5218 60.5711 49.0988 57.3044 47.6032C54.0378 46.1076 51.5711 45.0126 49.7445 45.026C49.7445 45.026 48.8778 48.0839 52.2645 50.6077C55.6511 53.1449 63.371 55.5218 63.371 55.5218Z" fill="#85B926"/>
</svg>
