<svg width="53" height="60" viewBox="0 0 53 60" fill="none" xmlns="http://www.w3.org/2000/svg">
<path d="M0.00863898 24.719C0.173178 17.5516 6.81189 11.1486 13.9442 11.1971L38.27 11.3631C46.0206 11.415 52.4515 18.5288 52.041 26.3258C51.6981 32.8429 41.6595 59.7657 26.7869 59.9992C20.2209 60.103 -0.436482 44.0558 0.00690695 24.7207L0.00863898 24.719Z" fill="#AE1413"/>
<mask id="mask0_120_4432" style="mask-type:luminance" maskUnits="userSpaceOnUse" x="-1" y="11" width="54" height="49">
<path d="M0.00863898 24.719C0.173178 17.5516 6.81189 11.1486 13.9442 11.1971L38.27 11.3631C46.0206 11.415 52.4515 18.5288 52.041 26.3258C51.6981 32.8429 41.6595 59.7657 26.7869 59.9992C20.2209 60.103 -0.436482 44.0558 0.00690695 24.7207L0.00863898 24.719Z" fill="white"/>
</mask>
<g mask="url(#mask0_120_4432)">
<path d="M38.6389 18.4995C37.1719 13.3851 33.7131 10.9204 32.3206 10.5278C31.9569 10.2528 31.5897 10.1317 31.2433 10.1317C30.909 9.79788 30.5713 9.4658 30.2059 9.17177C29.3121 8.45226 28.4011 8.70132 27.7845 9.35684C25.3684 7.6186 22.5643 8.20666 20.5673 9.97084C18.2274 7.92646 15.1531 7.03572 11.9265 7.79675C4.98811 9.43294 0.815755 15.6958 -0.192262 22.7664C-0.846954 23.223 -1.28341 24.0463 -1.07558 25.1376C-0.850418 26.3207 -0.595815 27.4985 -0.308305 28.666C-0.086611 30.7571 0.407006 32.8274 1.18986 34.787C2.08877 37.0372 6.02731 46.1539 14.3062 48.0392C22.5851 49.9244 29.494 43.2862 33.1918 37.8709C36.8896 32.4555 39.8409 22.6816 38.6406 18.4995H38.6389Z" fill="#D71615"/>
<path d="M25.254 16.0402C23.619 15.4123 19.0778 16.1682 15.6969 16.3152C11.5176 16.4968 8.03806 13.368 5.86615 19.553C4.8079 22.5659 8.01035 28.488 8.94736 30.0066C11.0309 33.3863 14.3979 35.6313 18.546 34.763C22.1139 34.0158 26.8561 26.4662 27.8693 24.619C29.8213 21.0577 28.9085 17.4429 25.254 16.0402Z" fill="#EB5959"/>
</g>
<path d="M34.7887 29.9771C34.7108 31.4559 33.8794 32.7082 32.5233 32.6372C31.1671 32.5663 30.1314 31.3106 30.2093 29.8318C30.2873 28.353 31.4494 27.2115 32.8056 27.2824C34.1617 27.3533 34.8666 28.4983 34.7887 29.9771Z" fill="#EB5959"/>
<path d="M31.5447 30.2161C31.5049 30.9875 32.0054 31.6412 32.6636 31.6758C33.3217 31.7104 34.0214 31.1189 34.0855 30.3492C34.1825 29.206 33.8292 28.6456 32.816 28.7546C31.8028 28.8635 31.5845 29.4429 31.543 30.2161H31.5447Z" fill="#AF1A16"/>
<path d="M31.7647 30.4703C31.7595 31.0393 32.1734 31.6498 32.7537 31.681C33.3321 31.7121 33.8881 31.1673 33.9176 30.5982C33.947 30.0292 33.495 29.3166 32.9147 29.2872C32.3363 29.2561 31.7751 29.5743 31.7664 30.4703H31.7647Z" fill="#E04F00"/>
<path d="M31.8046 30.7317C31.8046 31.1727 32.2029 31.6501 32.752 31.6795C33.301 31.7089 33.8206 31.2903 33.8448 30.8493C33.8674 30.4083 33.4326 29.8513 32.8836 29.8236C32.3346 29.7942 31.8063 30.0364 31.8063 30.7317H31.8046Z" fill="#E09200"/>
<path d="M24.1353 35.2511C24.0573 36.7299 23.226 37.9821 21.8698 37.9112C20.5137 37.8403 19.4779 36.5846 19.5559 35.1058C19.6338 33.627 20.796 32.4854 22.1521 32.5564C23.5083 32.6273 24.2132 33.7723 24.1353 35.2511Z" fill="#EB5959"/>
<path d="M20.6229 35.1608C20.5726 36.1051 21.1858 36.9042 21.9929 36.9457C22.7983 36.9872 23.6521 36.2642 23.7318 35.3233C23.8496 33.9258 23.4183 33.2392 22.1799 33.3741C20.9416 33.509 20.6731 34.2164 20.6229 35.1608Z" fill="#AF1A16"/>
<path d="M20.9155 35.5099C20.9085 36.1879 21.4022 36.9161 22.0932 36.9524C22.7843 36.9887 23.4442 36.3384 23.4806 35.6621C23.5169 34.9841 22.9765 34.1349 22.2855 34.0986C21.5944 34.0622 20.9276 34.441 20.9155 35.5099Z" fill="#E04F00"/>
<path d="M20.9623 35.8216C20.9623 36.3474 21.4368 36.9181 22.0915 36.951C22.7462 36.9856 23.3663 36.4875 23.394 35.9617C23.4217 35.4359 22.9021 34.7717 22.2474 34.7371C21.5927 34.7025 20.964 34.9897 20.9623 35.8199V35.8216Z" fill="#E09200"/>
<path d="M18.5359 30.2784C18.458 31.7572 17.6266 33.0094 16.2705 32.9385C14.9143 32.8676 13.8786 31.6119 13.9565 30.1331C14.0345 28.6543 15.1966 27.5128 16.5528 27.5837C17.9089 27.6546 18.6138 28.7996 18.5359 30.2784Z" fill="#EB9292"/>
<path d="M15.025 30.1881C14.9747 31.1325 15.5879 31.9315 16.395 31.973C17.2004 32.0146 18.0542 31.2916 18.1339 30.3507C18.2517 28.9532 17.8204 28.2665 16.582 28.4014C15.3437 28.5364 15.0752 29.2438 15.025 30.1881Z" fill="#AF1A16"/>
<path d="M15.316 30.5363C15.3091 31.2143 15.8027 31.9424 16.4937 31.9787C17.1848 32.0151 17.8447 31.3647 17.8811 30.6885C17.9174 30.0105 17.3771 29.1612 16.686 29.1249C15.9949 29.0886 15.3281 29.4674 15.316 30.5363Z" fill="#E04F00"/>
<path d="M15.3628 30.8489C15.3628 31.3747 15.8374 31.9455 16.492 31.9784C17.1467 32.0129 17.7668 31.5148 17.7945 30.989C17.8222 30.4632 17.3026 29.7991 16.6479 29.7645C15.9932 29.7299 15.3645 30.017 15.3628 30.8472V30.8489Z" fill="#E09200"/>
<path d="M22.0222 16.0557C21.9443 17.5345 21.1129 18.7868 19.7568 18.7159C18.4006 18.6449 17.3649 17.3893 17.4428 15.9105C17.5208 14.4317 18.6829 13.2901 20.0391 13.361C21.3952 13.432 22.1002 14.5769 22.0222 16.0557Z" fill="#EB9292"/>
<path d="M18.5114 15.9659C18.4612 16.9103 19.0743 17.7094 19.8814 17.7509C20.6868 17.7924 21.5407 17.0694 21.6203 16.1285C21.7381 14.731 21.3069 14.0444 20.0685 14.1793C18.8301 14.3142 18.5617 15.0216 18.5114 15.9659Z" fill="#AF1A16"/>
<path d="M18.8041 16.3151C18.7972 16.9931 19.2908 17.7212 19.9819 17.7576C20.673 17.7939 21.3329 17.1435 21.3692 16.4673C21.4056 15.7893 20.8652 14.94 20.1742 14.9037C19.4831 14.8674 18.8163 15.2462 18.8041 16.3151Z" fill="#E04F00"/>
<path d="M18.8492 16.6263C18.8492 17.1521 19.3238 17.7228 19.9785 17.7557C20.6332 17.7903 21.2532 17.2922 21.281 16.7664C21.3087 16.2406 20.7891 15.5764 20.1344 15.5418C19.4797 15.5072 18.851 15.7943 18.8492 16.6245V16.6263Z" fill="#E09200"/>
<path d="M20.9432 43.7291C20.8653 45.2079 20.0339 46.4601 18.6778 46.3892C17.3217 46.3183 16.2859 45.0626 16.3639 43.5838C16.4418 42.105 17.604 40.9635 18.9601 41.0344C20.3163 41.1053 21.0212 42.2503 20.9432 43.7291Z" fill="#EB5959"/>
<path d="M17.4324 43.6412C17.3822 44.5856 17.9953 45.3847 18.8024 45.4262C19.6078 45.4677 20.4617 44.7447 20.5414 43.8038C20.6591 42.4063 20.2279 41.7197 18.9895 41.8546C17.7511 41.9895 17.4827 42.6969 17.4324 43.6412Z" fill="#AF1A16"/>
<path d="M17.7252 43.9884C17.7182 44.6664 18.2119 45.3946 18.9029 45.4309C19.594 45.4672 20.2539 44.8169 20.2902 44.1406C20.3266 43.4626 19.7862 42.6134 19.0952 42.5771C18.4041 42.5407 17.7373 42.9195 17.7252 43.9884Z" fill="#E04F00"/>
<path d="M17.772 44.3016C17.772 44.8274 18.2465 45.3981 18.9012 45.431C19.5559 45.4656 20.176 44.9675 20.2037 44.4417C20.2314 43.9159 19.7118 43.2517 19.0571 43.2171C18.4024 43.1825 17.7737 43.4696 17.772 44.2998V44.3016Z" fill="#E09200"/>
<path d="M12.5916 40.0035C12.5136 41.4823 11.6823 42.7345 10.3261 42.6636C8.96997 42.5927 7.93424 41.337 8.01218 39.8582C8.09012 38.3794 9.25228 37.2379 10.6084 37.3088C11.9646 37.3797 12.6695 38.5247 12.5916 40.0035Z" fill="#EB5959"/>
<path d="M9.08064 39.9152C9.03041 40.8595 9.64353 41.6586 10.4506 41.7001C11.256 41.7416 12.1099 41.0186 12.1896 40.0777C12.3073 38.6802 11.8761 37.9936 10.6377 38.1285C9.39932 38.2634 9.13086 38.9708 9.08064 39.9152Z" fill="#AF1A16"/>
<path d="M9.37336 40.2628C9.36644 40.9408 9.86005 41.669 10.5511 41.7053C11.2422 41.7416 11.9021 41.0913 11.9384 40.415C11.9748 39.737 11.4344 38.8878 10.7434 38.8515C10.0523 38.8152 9.38549 39.1939 9.37336 40.2628Z" fill="#E04F00"/>
<path d="M9.4187 40.5765C9.4187 41.1023 9.89327 41.673 10.548 41.7059C11.2026 41.7405 11.8227 41.2424 11.8504 40.7166C11.8781 40.1908 11.3585 39.5266 10.7038 39.492C10.0491 39.4574 9.42043 39.7445 9.4187 40.5747V40.5765Z" fill="#E09200"/>
<path d="M7.53589 33.2686C7.45795 34.7474 6.6266 35.9997 5.27045 35.9287C3.91431 35.8578 2.87858 34.6022 2.95652 33.1233C3.03446 31.6445 4.19662 30.503 5.55277 30.5739C6.90891 30.6448 7.61383 31.7898 7.53589 33.2686Z" fill="#EB5959"/>
<path d="M4.02522 33.1788C3.97499 34.1232 4.58811 34.9223 5.39522 34.9638C6.20059 35.0053 7.05446 34.2823 7.13413 33.3414C7.25191 31.9439 6.82065 31.2573 5.58227 31.3922C4.3439 31.5271 4.07544 32.2345 4.02522 33.1788Z" fill="#AF1A16"/>
<path d="M4.31807 33.526C4.31114 34.204 4.80475 34.9322 5.49582 34.9685C6.18688 35.0048 6.84677 34.3545 6.88314 33.6782C6.91951 33.0002 6.37913 32.151 5.68807 32.1147C4.997 32.0783 4.33019 32.4571 4.31807 33.526Z" fill="#E04F00"/>
<path d="M4.36304 33.8392C4.36304 34.365 4.8376 34.9357 5.49229 34.9686C6.14698 35.0032 6.76704 34.5051 6.79475 33.9793C6.82246 33.4535 6.30286 32.7893 5.64817 32.7547C4.99348 32.7201 4.36477 33.0072 4.36304 33.8374V33.8392Z" fill="#E09200"/>
<path d="M4.7249 24.3004C4.66601 25.4333 4.02864 26.3932 2.98945 26.3396C1.95026 26.286 1.15528 25.3226 1.2159 24.1897C1.27478 23.0568 2.16676 22.1816 3.20595 22.2352C4.24514 22.2889 4.78552 23.1675 4.72663 24.3004H4.7249Z" fill="#EB5959"/>
<path d="M2.03354 24.2314C1.99543 24.9544 2.4648 25.5684 3.08312 25.5995C3.70144 25.6324 4.3544 25.0772 4.41675 24.356C4.50682 23.2854 4.17774 22.7596 3.22688 22.8616C2.27775 22.9637 2.07164 23.5067 2.03354 24.2314Z" fill="#AF1A16"/>
<path d="M2.25689 24.4981C2.25169 25.0187 2.631 25.5756 3.15925 25.6033C3.68924 25.631 4.19498 25.1328 4.22269 24.614C4.25041 24.0951 3.83646 23.443 3.30647 23.4154C2.77649 23.3877 2.26555 23.6783 2.25689 24.4964V24.4981Z" fill="#E04F00"/>
<path d="M2.29333 24.7382C2.29333 25.1412 2.65705 25.5788 3.15933 25.6047C3.66161 25.6307 4.13617 25.2502 4.15695 24.8472C4.17774 24.4442 3.77938 23.9357 3.27884 23.9097C2.77656 23.8838 2.29507 24.1035 2.29333 24.7399V24.7382Z" fill="#E09200"/>
<path d="M6.62485 17.4343C6.26632 18.3095 5.50079 18.8889 4.69888 18.562C3.89697 18.2334 3.53671 17.2596 3.89523 16.3845C4.25375 15.5093 5.19422 15.0665 5.99613 15.3951C6.79804 15.7238 6.98163 16.5609 6.62311 17.4361L6.62485 17.4343Z" fill="#EB5959"/>
<path d="M4.52934 16.6422C4.30071 17.2008 4.50163 17.8114 4.97792 18.0051C5.45422 18.2006 6.12103 17.9446 6.36871 17.3928C6.73416 16.5747 6.61985 16.0714 5.84565 15.8915C5.07145 15.7117 4.75969 16.0818 4.53107 16.6405L4.52934 16.6422Z" fill="#AF1A16"/>
<path d="M4.63137 16.9122C4.48415 17.3186 4.6279 17.8617 5.03665 18.0295C5.4454 18.1973 5.98058 17.9448 6.14512 17.5435C6.30966 17.1422 6.16244 16.5178 5.75543 16.3501C5.34668 16.1823 4.86518 16.2705 4.6331 16.9122H4.63137Z" fill="#E04F00"/>
<path d="M4.5933 17.1107C4.48245 17.4272 4.64872 17.87 5.03495 18.0291C5.42292 18.1865 5.90095 18.017 6.02738 17.7074C6.15555 17.3961 5.98235 16.8876 5.59439 16.7284C5.20642 16.5711 4.76823 16.6108 4.59156 17.1107H4.5933Z" fill="#E09200"/>
<path d="M15.7993 22.585C15.7214 24.0638 14.89 25.3161 13.5339 25.2452C12.1777 25.1742 11.142 23.9186 11.2199 22.4398C11.2979 20.961 12.46 19.8194 13.8162 19.8903C15.1723 19.9613 15.8773 21.1062 15.7993 22.585Z" fill="#EB9292"/>
<path d="M12.2695 22.87C12.2314 23.6068 12.803 24.2364 13.5477 24.2744C14.2925 24.3142 15.0753 23.7556 15.1429 23.0205C15.2416 21.9291 14.838 21.3912 13.6949 21.4863C12.5518 21.5815 12.3093 22.1332 12.2695 22.87Z" fill="#AF1A16"/>
<path d="M12.853 23.1679C12.8478 23.6937 13.2305 24.2593 13.7657 24.2869C14.3009 24.3146 14.8136 23.8113 14.8413 23.2855C14.869 22.7597 14.4498 22.1007 13.9147 22.0731C13.3795 22.0454 12.8616 22.3377 12.853 23.1679Z" fill="#E04F00"/>
<path d="M12.8877 23.4102C12.8877 23.8184 13.2549 24.2594 13.7623 24.2871C14.2698 24.3131 14.7513 23.9274 14.7721 23.5209C14.7929 23.1144 14.3911 22.599 13.8836 22.5714C13.3761 22.5454 12.8877 22.7668 12.8877 23.4102Z" fill="#E09200"/>
<path d="M25.2126 24.479C25.1433 25.7918 24.4055 26.9056 23.2017 26.8416C21.998 26.7794 21.0766 25.662 21.1459 24.3493C21.2152 23.0365 22.2474 22.023 23.4512 22.0852C24.6549 22.1475 25.2819 23.1645 25.2126 24.4773V24.479Z" fill="#EB9292"/>
<path d="M22.0326 24.4839C21.9893 25.3193 22.5314 26.025 23.2432 26.063C23.9551 26.1011 24.7102 25.4611 24.7812 24.6275C24.8852 23.3908 24.5041 22.7855 23.4095 22.9031C22.3149 23.0224 22.0759 23.6485 22.0326 24.4839Z" fill="#AF1A16"/>
<path d="M22.2907 24.792C22.2838 25.3921 22.722 26.0356 23.3317 26.0684C23.943 26.0995 24.5267 25.5253 24.5579 24.9269C24.5891 24.3284 24.1111 23.5761 23.5014 23.5449C22.8917 23.5138 22.2994 23.8476 22.2907 24.7937V24.792Z" fill="#E04F00"/>
<path d="M22.3323 25.0686C22.3323 25.5339 22.7514 26.0372 23.3299 26.0683C23.9084 26.0995 24.4574 25.6584 24.4817 25.1932C24.5059 24.7279 24.0469 24.1416 23.4685 24.1104C22.89 24.0793 22.3323 24.3335 22.3323 25.0669V25.0686Z" fill="#E09200"/>
<path d="M31.9588 16.0801C31.8895 17.3928 31.1517 18.5067 29.948 18.4427C28.7442 18.3804 27.8228 17.2631 27.8921 15.9504C27.9614 14.6376 28.9936 13.6241 30.1974 13.6863C31.4011 13.7486 32.0281 14.7656 31.9588 16.0783V16.0801Z" fill="#EB5959"/>
<path d="M28.7771 16.0835C28.7338 16.9189 29.2759 17.6246 29.9877 17.6626C30.6996 17.7007 31.4547 17.0607 31.5257 16.2271C31.6297 14.9904 31.2486 14.3851 30.154 14.5027C29.0594 14.622 28.8204 15.2481 28.7771 16.0835Z" fill="#AF1A16"/>
<path d="M29.0351 16.3911C29.0282 16.9913 29.4664 17.6347 30.076 17.6675C30.6857 17.7004 31.2711 17.1244 31.3023 16.526C31.3335 15.9276 30.8554 15.1752 30.2458 15.1441C29.6344 15.1129 29.0438 15.4467 29.0351 16.3928V16.3911Z" fill="#E04F00"/>
<path d="M29.0767 16.6682C29.0767 17.1335 29.4958 17.6368 30.0743 17.6679C30.6528 17.6991 31.2018 17.258 31.2261 16.7928C31.2503 16.3275 30.7913 15.7412 30.2128 15.71C29.6344 15.6789 29.0767 15.9332 29.0767 16.6665V16.6682Z" fill="#E09200"/>
<path d="M41.0551 15.5422C41.689 16.8809 41.5522 18.377 40.3242 18.9565C39.0962 19.5359 37.5877 18.9201 36.9538 17.5814C36.3199 16.2427 36.8013 14.6878 38.0293 14.1084C39.2573 13.529 40.4212 14.2018 41.0551 15.5405V15.5422Z" fill="#D71615"/>
<path d="M37.9217 17.1265C38.327 17.981 39.2449 18.3943 39.9758 18.0502C40.705 17.706 41.1137 16.6647 40.7362 15.7982C40.1767 14.5114 39.4718 14.1119 38.4447 14.8175C37.4177 15.5215 37.5181 16.2739 37.9234 17.1283L37.9217 17.1265Z" fill="#AF1A16"/>
<path d="M38.3444 17.2942C38.6596 17.8943 39.4425 18.3025 40.066 18.0068C40.6913 17.711 40.9649 16.8272 40.6739 16.2132C40.383 15.5992 39.5049 15.108 38.8796 15.402C38.2544 15.6978 37.8456 16.3463 38.3444 17.2924V17.2942Z" fill="#E04F00"/>
<path d="M38.5332 17.5487C38.7826 18.0122 39.4719 18.2889 40.0643 18.0087C40.6566 17.7285 40.9666 16.9969 40.7415 16.5213C40.5163 16.0456 39.7439 15.7066 39.1515 15.9868C38.5592 16.267 38.1418 16.817 38.5349 17.5487H38.5332Z" fill="#E09200"/>
<path d="M35.1682 43.3447C35.1093 44.4793 34.4702 45.4427 33.4293 45.3874C32.3883 45.3338 31.5934 44.3687 31.6522 43.234C31.7111 42.0994 32.6048 41.2225 33.6458 41.2779C34.6867 41.3315 35.2288 42.2119 35.1682 43.3465V43.3447Z" fill="#D71615"/>
<path d="M32.2063 43.3437C32.163 44.1548 32.6913 44.8432 33.3841 44.8795C34.0769 44.9159 34.8112 44.2932 34.8788 43.4838C34.9793 42.2817 34.6103 41.6919 33.5452 41.8078C32.48 41.9237 32.2496 42.5325 32.2063 43.3437Z" fill="#AF1A16"/>
<path d="M32.5146 43.6648C32.5077 44.2286 32.8974 44.834 33.443 44.8617C33.9885 44.8911 34.5116 44.3497 34.541 43.7859C34.5705 43.222 34.1462 42.5181 33.6006 42.4887C33.055 42.4593 32.5267 42.7758 32.5146 43.6648Z" fill="#E04F00"/>
<path d="M32.5508 43.9245C32.5508 44.3621 32.9232 44.8343 33.441 44.8619C33.9589 44.8896 34.4491 44.4745 34.4716 44.0369C34.4941 43.6011 34.0853 43.0493 33.5675 43.0216C33.0496 42.994 32.5525 43.2344 32.5491 43.9245H32.5508Z" fill="#E09200"/>
<path d="M29.2361 50.2428C29.1581 51.7216 28.3268 52.9738 26.9706 52.9029C25.6145 52.832 24.5788 51.5763 24.6567 50.0975C24.7347 48.6187 25.8968 47.4771 27.253 47.5481C28.6091 47.619 29.314 48.764 29.2361 50.2428Z" fill="#D71615"/>
<path d="M25.7252 50.1549C25.6749 51.0993 26.2881 51.8983 27.0952 51.9398C27.9005 51.9814 28.7544 51.2584 28.8341 50.3175C28.9519 48.92 28.5206 48.2333 27.2822 48.3682C26.0439 48.5031 25.7754 49.2106 25.7252 50.1549Z" fill="#AF1A16"/>
<path d="M26.0179 50.5021C26.011 51.1801 26.5046 51.9082 27.1956 51.9446C27.8867 51.9809 28.5466 51.3306 28.583 50.6543C28.6193 49.9763 28.079 49.1271 27.3879 49.0907C26.6968 49.0544 26.03 49.4332 26.0179 50.5021Z" fill="#E04F00"/>
<path d="M26.063 50.8152C26.063 51.341 26.5376 51.9118 27.1922 51.9447C27.8469 51.9793 28.467 51.4811 28.4947 50.9553C28.5224 50.4295 28.0028 49.7654 27.3481 49.7308C26.6934 49.6962 26.0647 49.9833 26.063 50.8135V50.8152Z" fill="#E09200"/>
<path d="M34.0528 55.556C33.5522 56.9501 32.3953 57.9117 31.1171 57.4534C29.8389 56.9968 29.2084 55.4955 29.7072 54.1014C30.2078 52.7074 31.6488 51.9481 32.927 52.4047C34.2052 52.8613 34.5516 54.1602 34.051 55.5543L34.0528 55.556Z" fill="#D71615"/>
<path d="M30.7152 54.4633C30.3965 55.354 30.7533 56.2949 31.5119 56.5664C32.2722 56.838 33.2975 56.39 33.6439 55.5114C34.1583 54.2073 33.9436 53.4255 32.7191 53.1989C31.4945 52.9724 31.0338 53.5725 30.7134 54.4633H30.7152Z" fill="#AF1A16"/>
<path d="M30.8952 54.8796C30.6926 55.5265 30.9576 56.367 31.6088 56.6005C32.26 56.834 33.0792 56.4016 33.3096 55.7617C33.5382 55.1235 33.2663 54.1532 32.6151 53.9214C31.9638 53.6879 31.2156 53.8591 30.8969 54.8796H30.8952Z" fill="#E04F00"/>
<path d="M30.8501 55.193C30.6977 55.6963 30.9887 56.3795 31.6052 56.5991C32.2218 56.8205 32.9597 56.5213 33.1381 56.0266C33.3164 55.532 33.0099 54.7467 32.3916 54.5254C31.775 54.304 31.0891 54.3991 30.8501 55.193Z" fill="#E09200"/>
<path d="M41.346 48.6049C40.7813 49.9748 39.5811 50.8811 38.3254 50.3639C37.0697 49.8468 36.5103 48.3195 37.0749 46.9497C37.6395 45.5799 39.1152 44.8898 40.3709 45.4052C41.6266 45.9223 41.9106 47.2351 41.346 48.6049Z" fill="#D71615"/>
<path d="M38.0638 47.356C37.7036 48.2295 38.0153 49.1877 38.7618 49.4938C39.5083 49.8 40.5544 49.4022 40.9424 48.5391C41.5174 47.2592 41.3408 46.4705 40.1266 46.1851C38.9125 45.8997 38.4241 46.4809 38.0638 47.3543V47.356Z" fill="#AF1A16"/>
<path d="M38.2234 47.7814C37.9913 48.4196 38.2147 49.2706 38.8555 49.5335C39.4946 49.7964 40.3347 49.4038 40.5927 48.7759C40.8508 48.1481 40.6239 47.1674 39.9848 46.9045C39.3457 46.6416 38.5905 46.7765 38.2234 47.7814Z" fill="#E04F00"/>
<path d="M38.1626 48.0909C37.9877 48.5873 38.2457 49.2826 38.8519 49.5316C39.4581 49.7807 40.2081 49.5178 40.409 49.0301C40.6099 48.5441 40.3397 47.745 39.7353 47.4959C39.1291 47.2469 38.4397 47.3091 38.1626 48.0909Z" fill="#E09200"/>
<path d="M40.7 37.1186C40.1353 38.4884 38.9351 39.3947 37.6794 38.8776C36.4237 38.3604 35.8643 36.8332 36.4289 35.4634C36.9935 34.0935 38.4692 33.4034 39.7249 33.9189C40.9806 34.436 41.2646 35.7488 40.7 37.1186Z" fill="#D71615"/>
<path d="M37.5252 36.1641C37.2134 36.9199 37.4836 37.7484 38.1279 38.013C38.7722 38.2777 39.6781 37.9335 40.0123 37.188C40.5094 36.0811 40.3553 35.3979 39.3074 35.1523C38.2578 34.9067 37.8352 35.4083 37.5235 36.1641H37.5252Z" fill="#AF1A16"/>
<path d="M37.6638 36.5322C37.4629 37.084 37.6569 37.819 38.2094 38.0473C38.7619 38.2757 39.4876 37.9349 39.711 37.3918C39.9345 36.8487 39.7387 36.0012 39.1862 35.7729C38.6337 35.5446 37.979 35.6622 37.6638 36.5305V36.5322Z" fill="#E04F00"/>
<path d="M37.6101 36.8003C37.4576 37.2292 37.6828 37.8294 38.2059 38.0456C38.7306 38.2618 39.3784 38.0335 39.5516 37.6132C39.7248 37.1929 39.4927 36.5011 38.9679 36.2866C38.4431 36.0704 37.8473 36.1257 37.6083 36.802L37.6101 36.8003Z" fill="#E09200"/>
<path d="M44.5311 40.5226C44.138 41.4773 43.2997 42.1086 42.425 41.7489C41.5487 41.3891 41.159 40.322 41.5538 39.3672C41.947 38.4125 42.9775 37.93 43.8522 38.2914C44.7286 38.6512 44.926 39.5679 44.5329 40.5226H44.5311Z" fill="#D71615"/>
<path d="M42.2415 39.6526C41.9903 40.2614 42.2086 40.9291 42.7281 41.1435C43.2477 41.358 43.9786 41.0795 44.2488 40.4776C44.6507 39.5852 44.526 39.0352 43.6807 38.8363C42.8355 38.6374 42.4943 39.0421 42.2432 39.6509L42.2415 39.6526Z" fill="#AF1A16"/>
<path d="M42.354 39.9485C42.1912 40.393 42.3488 40.9863 42.7939 41.1696C43.239 41.353 43.8244 41.078 44.0063 40.6421C44.1864 40.2045 44.0288 39.5213 43.582 39.338C43.1368 39.1546 42.6086 39.248 42.354 39.9503V39.9485Z" fill="#E04F00"/>
<path d="M42.3107 40.1644C42.1877 40.5103 42.3696 40.9946 42.7922 41.1693C43.2148 41.344 43.7379 41.1589 43.8781 40.8199C44.0184 40.4809 43.8297 39.924 43.407 39.7493C42.9844 39.5746 42.5029 39.6196 42.3107 40.1644Z" fill="#E09200"/>
<path d="M43.4503 26.9501C42.8857 28.32 41.6854 29.2263 40.4298 28.7091C39.1741 28.192 38.6146 26.6648 39.1793 25.2949C39.7439 23.9251 41.2195 23.235 42.4752 23.7504C43.7309 24.2675 44.015 25.5803 43.4503 26.9501Z" fill="#D71615"/>
<path d="M40.1683 25.7016C39.8081 26.5751 40.1198 27.5333 40.8663 27.8394C41.6128 28.1455 42.6589 27.7477 43.0469 26.8847C43.6219 25.6048 43.4452 24.8161 42.2311 24.5307C41.0187 24.247 40.5286 24.8264 40.1683 25.6999V25.7016Z" fill="#AF1A16"/>
<path d="M40.3275 26.1271C40.0954 26.7653 40.3188 27.6163 40.9597 27.8792C41.6005 28.1421 42.4388 27.7495 42.6968 27.1216C42.9549 26.4938 42.728 25.5131 42.0889 25.2502C41.4498 24.9873 40.6947 25.1222 40.3275 26.1271Z" fill="#E04F00"/>
<path d="M40.2671 26.4366C40.0922 26.933 40.3502 27.6283 40.9564 27.8773C41.5626 28.1264 42.3126 27.8635 42.5135 27.3758C42.7144 26.8897 42.4442 26.0907 41.8397 25.8416C41.2336 25.5926 40.5442 25.6548 40.2671 26.4366Z" fill="#E09200"/>
<path d="M49.8415 32.5078C49.8554 33.8344 49.1834 35.0036 47.9658 35.0157C46.7482 35.0295 45.7506 33.9641 45.7367 32.6357C45.7229 31.3091 46.698 30.2212 47.9138 30.2091C49.1314 30.1953 49.8277 31.1794 49.8415 32.5078Z" fill="#D71615"/>
<path d="M46.7188 32.5126C46.7274 33.3671 47.3267 34.0537 48.0559 34.0451C48.785 34.0364 49.5142 33.3359 49.5315 32.4815C49.5575 31.2137 49.1297 30.6205 48.0212 30.8107C46.911 31.0027 46.7101 31.6565 46.7188 32.5109V32.5126Z" fill="#AF1A16"/>
<path d="M47.001 32.8103C47.0339 33.4226 47.5206 34.0522 48.1458 34.0453C48.7711 34.0383 49.3305 33.4157 49.3236 32.8017C49.3166 32.1894 48.7814 31.4526 48.1562 31.4595C47.5309 31.4664 46.9507 31.8452 47.001 32.8103Z" fill="#E04F00"/>
<path d="M47.0616 33.0907C47.091 33.5646 47.5517 34.0523 48.1441 34.0454C48.7364 34.0385 49.2681 33.5542 49.263 33.0803C49.2578 32.6047 48.752 32.0356 48.1597 32.0425C47.5673 32.0495 47.0166 32.3435 47.0633 33.0924L47.0616 33.0907Z" fill="#E09200"/>
<path d="M49.282 20.6358C50.2224 21.7808 50.4528 23.2665 49.4015 24.1261C48.3519 24.9857 46.7377 24.7539 45.7989 23.609C44.8585 22.464 44.9485 20.8381 45.9981 19.9785C47.0477 19.1189 48.3415 19.4908 49.282 20.6358Z" fill="#D71615"/>
<path d="M46.6268 22.9309C47.2261 23.6625 48.2185 23.8406 48.8438 23.3304C49.4673 22.8202 49.611 21.7115 49.0343 20.9609C48.1787 19.8487 47.3976 19.6308 46.5731 20.563C45.7487 21.4953 46.0276 22.1992 46.6268 22.9309Z" fill="#AF1A16"/>
<path d="M47.0771 22.9914C47.5292 23.4981 48.3865 23.704 48.9217 23.2664C49.4569 22.8288 49.5071 21.9035 49.0759 21.3794C48.6446 20.8553 47.673 20.589 47.1378 21.0283C46.6026 21.4659 46.3636 22.194 47.0771 22.9931V22.9914Z" fill="#E04F00"/>
<path d="M47.3214 23.1921C47.6764 23.5813 48.4108 23.6834 48.9183 23.2682C49.4257 22.8531 49.5487 22.0679 49.2144 21.6615C48.8802 21.255 48.0488 21.1132 47.5413 21.5283C47.0339 21.9434 46.7637 22.5781 47.3214 23.1921Z" fill="#E09200"/>
<path d="M21.3572 52.0089C21.2792 53.4877 20.4479 54.7399 19.0917 54.669C17.7356 54.5981 16.6999 53.3424 16.7778 51.8636C16.8557 50.3848 18.0179 49.2433 19.3741 49.3142C20.7302 49.3851 21.4351 50.5301 21.3572 52.0089Z" fill="#D71615"/>
<path d="M17.8463 51.9205C17.796 52.8649 18.4092 53.664 19.2163 53.7055C20.0216 53.747 20.8755 53.024 20.9552 52.0831C21.073 50.6856 20.6417 49.999 19.4033 50.1339C18.1649 50.2688 17.8965 50.9762 17.8463 51.9205Z" fill="#AF1A16"/>
<path d="M18.1391 52.2677C18.1322 52.9457 18.6258 53.6739 19.3169 53.7102C20.0079 53.7465 20.6678 53.0962 20.7042 52.4199C20.7406 51.7419 20.2002 50.8927 19.5091 50.8564C18.818 50.82 18.1512 51.1988 18.1391 52.2677Z" fill="#E04F00"/>
<path d="M18.1859 52.5814C18.1859 53.1071 18.6605 53.6779 19.3152 53.7108C19.9699 53.7454 20.5899 53.2472 20.6176 52.7215C20.6453 52.1957 20.1257 51.5315 19.471 51.4969C18.8164 51.4623 18.1876 51.7494 18.1859 52.5796V52.5814Z" fill="#E09200"/>
<path d="M23.8426 11.6282C23.5222 12.0416 17.0289 10.2497 17.3338 0.050293C17.3338 0.050293 21.8231 2.11197 23.3247 4.67868C24.8263 7.24539 24.7519 10.4521 23.8408 11.6299L23.8426 11.6282Z" fill="#A5C80A"/>
<path d="M27.4293 11.3756C27.4293 11.3756 30.0931 5.94123 35.3081 4.81008C40.5214 3.67892 40.4989 1.97701 42.915 1.05859C42.915 1.05859 43.4242 5.11967 39.6225 8.50621C35.5471 12.1349 33.6524 12.5811 27.4311 11.3756H27.4293Z" fill="#85B926"/>
<path d="M12.1275 8.68755C12.1275 8.68755 8.55098 6.4581 8.04004 2.06494C8.04004 2.06494 14.6666 5.03292 17.3425 7.76222C20.0202 10.4915 23.8427 11.6279 23.8427 11.6279C23.8427 11.6279 16.2895 12.989 12.1258 8.68755H12.1275Z" fill="#85B926"/>
<path d="M35.6859 0C35.6859 0 29.1303 1.75899 27.2286 4.66644C25.3269 7.57388 23.9205 9.77738 23.6763 11.5398C23.6763 11.5398 26.4752 12.8111 29.3884 9.93477C32.3016 7.05673 35.6859 0 35.6859 0Z" fill="#486A2A"/>
</svg>
