<svg width="174" height="228" viewBox="0 0 174 228" fill="none" xmlns="http://www.w3.org/2000/svg">
<mask id="mask0_118_988" style="mask-type:luminance" maskUnits="userSpaceOnUse" x="0" y="0" width="174" height="228">
<path d="M154.634 208.147C133.675 217.493 112.465 228 87.8043 228C64.8366 228 43.356 221.672 24.9905 210.666C-10.655 189.283 -4.10987 35.0975 19.3137 12.8136C30.2874 2.38261 58.5954 -0.135585 87.7935 0.005521C116.992 0.146627 147.666 2.30663 157.825 12.3251C181.292 35.4448 176.169 198.541 154.634 208.147Z" fill="white"/>
</mask>
<g mask="url(#mask0_118_988)">
<mask id="mask1_118_988" style="mask-type:luminance" maskUnits="userSpaceOnUse" x="107" y="105" width="66" height="56">
<path d="M167.214 117.112C164.251 112.662 168.278 107.81 167.562 106.66L167.518 106.638C167.388 106.671 166.476 106.019 165.337 105.802C153.028 103.425 141.066 108.082 133.436 110.611C118.262 115.614 110.425 133.025 107.527 139.331C106.604 141.35 110.924 147.146 112.921 149.892H112.954C126.869 150.967 129.062 155.07 132.817 157.143C149.685 166.456 150.933 155.971 157.196 150.761C160.897 147.689 164.219 150.565 167.312 145.388C169.602 141.567 166.628 138.571 168.05 133.383C169.038 129.758 172.978 126.773 172.663 124.298C172.142 120.162 168.55 119.131 167.225 117.134" fill="white"/>
</mask>
<g mask="url(#mask1_118_988)">
<path d="M198.941 122.789C196.195 125.611 192.396 129.291 187.903 133.144C185.059 135.575 184.766 139.83 187.284 142.576C189.498 144.975 191.571 148.112 190.562 151.064C188.369 157.534 181.52 161.691 162.84 159.531C158.216 158.999 160.409 162.125 160.582 166.912C160.799 173.034 146.493 176.116 137.886 169.017C132.861 164.871 128.812 159.596 107.57 157.979L107.527 157.957C104.477 153.756 97.8663 144.91 99.2882 141.827C103.706 132.2 115.689 105.618 138.852 97.9761C150.51 94.112 168.767 87.0132 187.566 90.6277C189.314 90.9642 190.714 91.9519 190.909 91.9085L190.974 91.9411C192.082 93.6995 192.331 96.0223 191.3 98.0846C190.768 99.1592 190.16 100.331 189.498 101.591C187.827 104.738 188.966 108.624 192.071 110.404C194.242 111.642 196.163 112.781 197.769 113.78C200.928 115.679 201.492 120.184 198.941 122.778" fill="#828DFF"/>
<path d="M112.465 134.696C114.571 133.209 116.894 132.015 119.26 130.995C124.134 128.889 129.311 127.608 134.543 126.74C146.081 124.808 157.945 124.244 169.624 124.613C176.441 124.83 183.246 125.405 190.008 126.328C191.843 126.577 192.255 123.766 190.41 123.516C177.917 121.812 165.25 121.302 152.648 121.997C146.678 122.322 140.697 122.876 134.782 123.831C129.257 124.721 123.754 126.034 118.587 128.205C117.274 128.759 115.971 129.367 114.701 130.051C115.266 129.15 115.874 128.27 116.568 127.435C118.186 125.492 119.998 123.701 121.757 121.899C123.732 119.869 125.773 117.46 128.171 115.723C129.42 115.028 130.701 114.377 131.992 113.769C132.166 113.682 132.318 113.585 132.448 113.476C135.314 112.38 138.299 111.533 141.24 110.686C144.529 109.731 147.829 108.852 151.161 108.06C151.866 107.897 152.583 107.734 153.288 107.571C158.715 106.812 164.197 106.464 169.678 106.757C176.94 107.137 184.136 108.44 191.029 110.697C191.951 111.001 192.982 110.697 193.395 109.775C193.753 108.95 193.395 107.745 192.461 107.441C188.131 106.03 183.724 104.977 179.263 104.261C180.652 104.239 182.03 104.228 183.42 104.261C184.397 104.282 185.308 103.772 185.46 102.752C185.58 101.884 184.907 100.777 183.93 100.755C173.51 100.505 163.198 101.808 153.06 104.033C152.789 104.065 152.529 104.098 152.257 104.141C145.755 105.097 139.069 106.356 132.937 108.744C128.15 110.6 123.851 113.378 120.063 116.776C119.195 117.481 118.381 118.241 117.643 119.099C117.589 119.164 117.534 119.229 117.48 119.294C113.659 123.277 110.544 127.901 108.048 132.797C107.765 132.916 107.527 133.09 107.331 133.329C107.255 133.437 107.179 133.546 107.092 133.665C106.93 133.85 106.832 134.056 106.789 134.284C106.702 134.512 106.68 134.75 106.723 134.989C106.745 135.228 106.821 135.434 106.951 135.63C106.995 135.738 107.06 135.825 107.136 135.912C106.333 137.019 105.725 138.246 105.421 139.635C105.334 140.037 105.421 140.373 105.595 140.623C105.562 140.688 105.529 140.764 105.486 140.84C104.856 141.22 104.498 141.914 104.802 142.631C104.976 143.043 105.41 143.39 105.877 143.488C106.506 143.814 107.31 143.749 107.679 143.011C109.09 142.598 110.49 142.837 112.009 143.206C114.061 143.705 116.112 144.205 118.153 144.769C122.202 145.887 126.131 147.32 129.843 149.284C136.931 153.04 143.237 158.044 150.586 161.387C154.851 163.33 159.323 164.795 163.893 165.859C164.653 166.033 165.423 165.36 165.521 164.654C165.641 163.84 165.054 163.232 164.295 163.048C156.132 161.159 148.686 157.653 141.663 153.192C138.147 150.956 134.673 148.644 130.983 146.679C127.216 144.682 123.233 143.26 119.13 142.121C116.796 141.469 114.452 140.883 112.096 140.319C111.488 140.178 110.881 140.069 110.284 140.004C111.043 139.591 111.879 139.288 112.737 139.081C115.201 138.495 117.795 138.289 120.313 138.126C125.566 137.801 130.831 138.094 136.041 138.788C146.808 140.21 157.218 143.315 167.573 146.419C173.553 148.221 179.545 150.012 185.602 151.52C186.361 151.705 187.132 151.01 187.23 150.316C187.349 149.491 186.763 148.904 186.003 148.709C164.24 143.293 142.857 133.871 119.944 135.315C116.926 135.499 112.975 135.717 109.839 137.041C110.598 136.151 111.532 135.391 112.465 134.729" fill="#4555FF"/>
<path d="M111.933 143.152C111.933 143.152 111.988 143.163 112.009 143.173C113.095 143.434 114.18 143.705 115.266 143.977C115.287 143.977 115.298 143.977 115.32 143.987C115.342 143.987 115.363 143.998 115.385 144.009C115.428 144.009 115.472 144.031 115.504 144.042C115.504 144.042 115.515 144.042 115.526 144.042C115.982 144.161 116.438 144.27 116.883 144.4C116.731 146.223 116.774 149.447 116.785 151.108C116.709 151.064 112.02 150.978 111.944 150.934C110.446 148.742 101.73 140.373 111.933 143.163M117.73 138.289C117.512 139.407 117.339 140.492 117.198 141.556C117.013 141.502 116.818 141.458 116.633 141.404C116.633 141.404 116.622 141.404 116.612 141.404C116.579 141.404 116.557 141.393 116.525 141.382C116.503 141.382 116.481 141.372 116.46 141.361C116.427 141.361 116.405 141.35 116.373 141.339C116.34 141.339 116.308 141.317 116.275 141.317C116.264 141.317 116.243 141.317 116.232 141.306C116.188 141.306 116.156 141.285 116.112 141.274C116.112 141.274 116.101 141.274 116.091 141.274C116.047 141.263 115.993 141.252 115.949 141.241C115.949 141.241 115.939 141.241 115.928 141.241C115.884 141.23 115.83 141.22 115.787 141.209C115.678 141.187 115.58 141.155 115.472 141.133C115.363 141.111 115.266 141.079 115.157 141.057C115.059 141.035 114.951 141.003 114.853 140.981C114.853 140.981 114.842 140.981 114.831 140.981C114.777 140.97 114.734 140.959 114.68 140.948C114.625 140.937 114.582 140.927 114.528 140.916C114.528 140.916 114.506 140.916 114.495 140.916C114.452 140.916 114.419 140.894 114.376 140.883C114.365 140.883 114.354 140.883 114.343 140.883C114.3 140.872 114.256 140.861 114.202 140.851C114.191 140.851 114.169 140.851 114.159 140.851C114.126 140.851 114.093 140.84 114.061 140.829C114.039 140.829 114.017 140.829 114.007 140.818C113.963 140.818 113.931 140.796 113.887 140.785C113.865 140.785 113.844 140.775 113.822 140.764C113.8 140.764 113.779 140.753 113.757 140.742C113.735 140.742 113.703 140.731 113.681 140.72C113.659 140.72 113.648 140.72 113.627 140.709C113.583 140.699 113.529 140.688 113.486 140.677C113.475 140.677 113.453 140.677 113.442 140.677C113.41 140.677 113.388 140.666 113.355 140.655C113.344 140.655 113.334 140.655 113.323 140.655C113.225 140.633 113.127 140.612 113.03 140.59C113.019 140.59 113.008 140.59 112.997 140.59C112.899 140.568 112.802 140.547 112.715 140.525C112.704 140.525 112.682 140.525 112.671 140.525C112.639 140.525 112.617 140.514 112.585 140.503C112.563 140.503 112.552 140.503 112.53 140.492C112.487 140.492 112.454 140.471 112.411 140.46C112.389 140.46 112.357 140.449 112.335 140.438C112.313 140.438 112.302 140.438 112.281 140.427C112.237 140.427 112.194 140.406 112.15 140.395C112.15 140.395 112.118 140.395 112.107 140.395C111.532 140.264 110.956 140.156 110.392 140.102C110.37 140.102 110.36 140.102 110.338 140.102C111.098 139.689 111.933 139.385 112.791 139.179C112.802 139.179 112.813 139.179 112.834 139.179C112.834 139.179 112.845 139.179 112.856 139.179C112.856 139.179 112.867 139.179 112.878 139.179C112.878 139.179 112.889 139.179 112.899 139.179C112.899 139.179 112.91 139.179 112.921 139.179C112.921 139.179 112.932 139.179 112.943 139.179H112.954H112.975C112.975 139.179 112.975 139.179 112.986 139.179C112.986 139.179 113.008 139.179 113.019 139.179C113.019 139.179 113.041 139.179 113.051 139.179C113.117 139.168 113.182 139.146 113.236 139.136C113.898 138.994 114.571 138.875 115.244 138.767C115.266 138.767 115.298 138.767 115.32 138.756C115.331 138.756 115.342 138.756 115.352 138.756C115.363 138.756 115.374 138.756 115.385 138.756C115.45 138.756 115.504 138.734 115.57 138.734H115.591C115.591 138.734 115.602 138.734 115.613 138.734C115.613 138.734 115.624 138.734 115.635 138.734C115.635 138.734 115.646 138.734 115.656 138.734C115.656 138.734 115.667 138.734 115.678 138.734C115.678 138.734 115.689 138.734 115.7 138.734C115.7 138.734 115.711 138.734 115.722 138.734C115.722 138.734 115.732 138.734 115.743 138.734C115.743 138.734 115.743 138.734 115.754 138.734C115.765 138.734 115.776 138.734 115.787 138.734C116.427 138.647 117.067 138.582 117.719 138.528M119.673 130.821C119.499 131.31 119.336 131.82 119.184 132.319C118.869 133.361 118.598 134.381 118.348 135.38C118.316 135.38 118.294 135.38 118.261 135.38C118.261 135.38 118.24 135.38 118.229 135.38C117.968 135.402 117.697 135.423 117.426 135.445C115.038 135.641 112.4 135.988 110.153 136.867C110.045 136.91 109.936 136.954 109.839 136.997C110.598 136.107 111.532 135.347 112.465 134.685C114.571 133.198 116.894 132.004 119.26 130.984C119.325 130.951 119.39 130.93 119.455 130.897C119.531 130.865 119.597 130.832 119.673 130.81M128.193 115.701C125.881 118.675 123.189 122.583 121.105 127.218C120.921 127.283 120.736 127.348 120.552 127.424C120.541 127.424 120.519 127.424 120.508 127.435C119.89 127.663 119.271 127.912 118.652 128.173C118.63 128.173 118.609 128.194 118.587 128.194C117.274 128.748 115.971 129.356 114.701 130.04C115.266 129.139 115.873 128.26 116.568 127.424C118.185 125.481 119.998 123.69 121.757 121.888C123.732 119.858 125.773 117.449 128.171 115.712" fill="#5D68D4"/>
<path d="M115.515 144.042C115.515 144.042 115.526 144.042 115.537 144.042C115.537 144.042 115.526 144.042 115.515 144.042ZM115.331 143.987C115.331 143.987 115.374 143.987 115.396 144.009C115.374 144.009 115.352 143.998 115.331 143.987ZM111.933 143.152C111.933 143.152 111.988 143.163 112.009 143.173C111.988 143.173 111.955 143.163 111.933 143.152ZM116.612 141.404C116.612 141.404 116.622 141.404 116.633 141.404C116.633 141.404 116.622 141.404 116.612 141.404ZM116.46 141.361C116.46 141.361 116.503 141.372 116.525 141.382C116.503 141.382 116.481 141.372 116.46 141.361ZM116.264 141.317C116.264 141.317 116.329 141.339 116.362 141.339C116.329 141.339 116.297 141.317 116.264 141.317ZM116.101 141.274C116.101 141.274 116.177 141.296 116.221 141.306C116.177 141.306 116.145 141.285 116.101 141.274ZM115.939 141.23C115.939 141.23 116.036 141.252 116.08 141.263C116.036 141.252 115.982 141.241 115.939 141.23ZM115.776 141.187C115.776 141.187 115.873 141.209 115.917 141.22C115.873 141.209 115.819 141.198 115.776 141.187ZM114.658 140.905C114.658 140.905 114.755 140.927 114.81 140.937C114.755 140.927 114.712 140.916 114.658 140.905ZM114.506 140.872C114.506 140.872 114.604 140.894 114.658 140.905C114.604 140.894 114.56 140.883 114.506 140.872ZM114.354 140.829C114.354 140.829 114.43 140.851 114.473 140.861C114.43 140.861 114.397 140.84 114.354 140.829ZM114.191 140.785C114.191 140.785 114.278 140.807 114.332 140.818C114.289 140.807 114.245 140.796 114.191 140.785ZM114.05 140.753C114.05 140.753 114.115 140.764 114.148 140.775C114.115 140.775 114.083 140.764 114.05 140.753ZM113.876 140.709C113.876 140.709 113.952 140.731 113.996 140.742C113.952 140.742 113.92 140.72 113.876 140.709ZM113.735 140.677C113.735 140.677 113.779 140.688 113.8 140.699C113.779 140.699 113.757 140.688 113.735 140.677ZM113.605 140.644C113.605 140.644 113.638 140.644 113.659 140.655C113.638 140.655 113.627 140.655 113.605 140.644ZM113.42 140.601C113.42 140.601 113.453 140.601 113.464 140.601C113.453 140.601 113.431 140.601 113.42 140.601ZM113.29 140.568C113.29 140.568 113.312 140.568 113.323 140.568C113.312 140.568 113.301 140.568 113.29 140.568ZM112.965 140.492C112.965 140.492 112.986 140.492 112.997 140.492C112.986 140.492 112.975 140.492 112.965 140.492ZM112.639 140.416C112.639 140.416 112.671 140.416 112.682 140.416C112.671 140.416 112.65 140.416 112.639 140.416ZM112.498 140.373C112.498 140.373 112.53 140.373 112.552 140.384C112.53 140.384 112.52 140.384 112.498 140.373ZM112.292 140.33C112.292 140.33 112.346 140.34 112.368 140.351C112.346 140.351 112.313 140.34 112.292 140.33ZM112.107 140.286C112.107 140.286 112.194 140.308 112.237 140.319C112.194 140.319 112.15 140.297 112.107 140.286ZM112.064 140.275C112.064 140.275 112.096 140.275 112.107 140.275C112.096 140.275 112.074 140.275 112.064 140.275ZM110.338 139.971C110.913 140.037 111.477 140.134 112.053 140.264C111.597 140.156 111.141 140.069 110.696 140.015C110.577 139.993 110.457 139.982 110.338 139.971ZM110.294 139.971C110.294 139.971 110.327 139.971 110.349 139.971C110.327 139.971 110.316 139.971 110.294 139.971ZM112.78 139.038C112.78 139.038 112.758 139.038 112.737 139.038C111.879 139.244 111.043 139.537 110.284 139.961C111.043 139.548 111.879 139.244 112.737 139.038C112.747 139.038 112.758 139.038 112.78 139.038ZM112.823 139.038C112.823 139.038 112.813 139.038 112.802 139.038C112.802 139.038 112.813 139.038 112.823 139.038ZM112.856 139.027C112.856 139.027 112.845 139.027 112.834 139.027C112.834 139.027 112.845 139.027 112.856 139.027ZM112.899 139.016H112.889C112.889 139.016 112.889 139.016 112.899 139.016ZM112.943 139.005C112.943 139.005 112.943 139.005 112.932 139.005C112.932 139.005 112.932 139.005 112.943 139.005ZM115.613 138.528C115.613 138.528 115.602 138.528 115.591 138.528C115.591 138.528 115.602 138.528 115.613 138.528ZM115.656 138.517C115.656 138.517 115.646 138.517 115.635 138.517C115.635 138.517 115.646 138.517 115.656 138.517ZM115.689 138.517C115.689 138.517 115.678 138.517 115.667 138.517C115.667 138.517 115.678 138.517 115.689 138.517ZM115.743 138.506C115.743 138.506 115.732 138.506 115.722 138.506C115.722 138.506 115.732 138.506 115.743 138.506ZM115.787 138.506C115.787 138.506 115.765 138.506 115.754 138.506C115.765 138.506 115.776 138.506 115.787 138.506ZM117.73 138.289C117.089 138.343 116.438 138.419 115.798 138.506C116.438 138.419 117.078 138.354 117.73 138.289ZM118.251 135.391C118.251 135.391 118.272 135.391 118.283 135.391C118.283 135.391 118.261 135.391 118.251 135.391ZM117.437 135.456C115.049 135.651 112.411 135.999 110.164 136.878C112.411 135.988 115.049 135.651 117.437 135.456ZM118.663 128.162C118.663 128.162 118.62 128.184 118.598 128.184C118.62 128.184 118.641 128.162 118.663 128.162ZM120.552 127.413C120.552 127.413 120.519 127.413 120.508 127.424C120.519 127.424 120.541 127.424 120.552 127.413ZM121.105 127.207C120.921 127.272 120.736 127.337 120.552 127.413C120.736 127.348 120.921 127.283 121.105 127.207ZM128.193 115.701C125.783 117.449 123.754 119.858 121.778 121.877C120.02 123.69 118.196 125.47 116.59 127.413C115.895 128.238 115.298 129.117 114.723 130.029C115.287 129.128 115.895 128.249 116.59 127.413C118.207 125.47 120.02 123.679 121.778 121.877C123.754 119.848 125.794 117.438 128.193 115.701Z" fill="#3745EB"/>
<path d="M131.927 111.153C117.73 116.765 110.305 133.231 107.516 139.331C107.461 139.45 107.429 139.581 107.407 139.722C107.299 140.492 107.678 141.61 108.297 142.848C108.981 142.728 109.665 142.75 110.37 142.848C110.913 142.924 111.456 143.043 112.02 143.173C113.648 143.564 115.276 143.966 116.894 144.4C116.97 143.477 117.067 142.533 117.198 141.567C115.504 141.122 113.811 140.699 112.107 140.297C111.64 140.189 111.174 140.102 110.707 140.037C110.566 140.015 110.435 140.004 110.294 139.982C111.054 139.57 111.89 139.266 112.747 139.06C114.376 138.669 116.047 138.452 117.73 138.3C117.914 137.356 118.12 136.39 118.359 135.391C115.624 135.575 112.454 135.912 109.849 137.019C110.609 136.129 111.543 135.369 112.476 134.707C114.582 133.22 116.905 132.026 119.271 131.006C119.412 130.952 119.542 130.886 119.683 130.832C120.118 129.584 120.595 128.379 121.116 127.218C120.269 127.522 119.434 127.847 118.609 128.195C117.295 128.748 115.993 129.356 114.723 130.04C115.287 129.139 115.895 128.26 116.59 127.424C118.207 125.481 120.02 123.69 121.789 121.888C123.765 119.858 125.805 117.449 128.204 115.712C129.691 113.802 131.026 112.26 131.938 111.164" fill="#3A48D6"/>
</g>
<mask id="mask2_118_988" style="mask-type:luminance" maskUnits="userSpaceOnUse" x="15" y="103" width="66" height="57">
<path d="M21.1915 115.028C24.2741 110.665 20.3883 105.694 21.1481 104.565L21.1915 104.543C21.3218 104.576 22.2444 103.957 23.4058 103.772C35.7797 101.754 47.6 106.747 55.1655 109.493C70.1878 114.931 77.5362 132.558 80.2497 138.94C81.1181 140.981 76.6244 146.658 74.5512 149.35H74.5187C60.5818 150.023 58.2698 154.06 54.4599 156.025C37.3319 164.86 36.3875 154.332 30.2766 148.948C26.6729 145.768 23.2647 148.546 20.3123 143.282C18.1306 139.407 21.1915 136.487 19.9216 131.256C19.0315 127.608 15.1782 124.504 15.569 122.04C16.2094 117.926 19.8239 116.993 21.2132 115.028" fill="white"/>
</mask>
<g mask="url(#mask2_118_988)">
<path d="M-10.6876 119.804C-8.01741 122.702 -4.3378 126.491 0.0473329 130.474C2.81518 132.992 2.98885 137.247 0.405525 139.928C-1.87388 142.262 -4.03388 145.334 -3.12212 148.319C-1.11408 154.842 5.61559 159.205 24.3501 157.577C28.9957 157.176 26.7055 160.247 26.4016 165.023C26.0108 171.145 40.2191 174.629 49.0219 167.78C54.1669 163.786 58.3566 158.619 79.6419 157.61L79.6853 157.588C82.8548 153.474 89.7147 144.813 88.3796 141.697C84.2332 131.95 73.0208 105.042 50.0856 96.7389C38.5367 92.5492 20.4968 84.9186 1.5995 88.0121C-0.158899 88.3051 -1.58081 89.2386 -1.77619 89.1952L-1.84131 89.2277C-3.00272 90.9536 -3.3175 93.2764 -2.34061 95.3604C-1.84131 96.4567 -1.26604 97.6398 -0.636488 98.9098C0.948239 102.101 -0.300004 105.965 -3.46946 107.647C-5.67288 108.82 -7.62665 109.916 -9.26565 110.86C-12.4785 112.662 -13.1623 117.156 -10.6984 119.826" fill="#828DFF"/>
<path d="M75.4087 134.164C73.3464 132.612 71.0562 131.353 68.7225 130.268C63.914 128.032 58.7691 126.599 53.5699 125.579C42.0969 123.321 30.2549 122.409 18.5648 122.453C11.7374 122.474 4.92093 122.854 -1.85215 123.592C-3.69738 123.788 -4.02301 120.966 -2.17777 120.77C10.3589 119.424 23.0368 119.272 35.606 120.325C41.565 120.824 47.5349 121.541 53.4071 122.67C58.8993 123.723 64.3699 125.188 69.4714 127.5C70.7631 128.086 72.0547 128.737 73.303 129.454C72.7603 128.531 72.185 127.641 71.512 126.794C69.949 124.808 68.1906 122.974 66.4756 121.107C64.5544 119.023 62.5898 116.559 60.2344 114.746C59.0079 114.019 57.7488 113.324 56.468 112.684C56.2943 112.597 56.1532 112.488 56.023 112.38C53.19 111.207 50.2268 110.274 47.307 109.341C44.0507 108.288 40.7727 107.311 37.4621 106.432C36.7566 106.247 36.0511 106.063 35.3455 105.889C29.9401 104.966 24.4804 104.478 18.9881 104.597C11.7266 104.771 4.48676 105.867 -2.47084 107.93C-3.40431 108.201 -4.42461 107.886 -4.81537 106.942C-5.15185 106.117 -4.75024 104.912 -3.81677 104.641C0.546653 103.349 4.99692 102.426 9.46888 101.84C8.07953 101.775 6.70104 101.732 5.31169 101.721C4.3348 101.721 3.4339 101.178 3.32535 100.147C3.22766 99.2786 3.93319 98.1823 4.91008 98.1932C15.3411 98.2366 25.6092 99.8431 35.6712 102.35C35.9425 102.394 36.203 102.437 36.4744 102.481C42.9435 103.62 49.5972 105.075 55.6648 107.636C60.3972 109.634 64.6196 112.521 68.2992 116.027C69.1458 116.754 69.949 117.536 70.6545 118.415C70.7088 118.48 70.7522 118.545 70.8065 118.621C74.5187 122.713 77.4927 127.424 79.8481 132.384C80.1303 132.514 80.3691 132.699 80.5537 132.938C80.6296 133.046 80.7056 133.166 80.7816 133.274C80.9336 133.459 81.0313 133.676 81.0747 133.904C81.1507 134.132 81.1724 134.371 81.1289 134.609C81.0964 134.848 81.0204 135.054 80.8793 135.239C80.825 135.337 80.7599 135.434 80.6948 135.521C81.4654 136.65 82.0407 137.898 82.3012 139.288C82.3772 139.7 82.2795 140.026 82.095 140.275C82.1275 140.34 82.1601 140.416 82.1927 140.492C82.8114 140.883 83.1478 141.589 82.8331 142.305C82.6485 142.718 82.2035 143.043 81.7368 143.141C81.0964 143.456 80.304 143.358 79.9567 142.609C78.5565 142.164 77.1454 142.359 75.6258 142.685C73.5635 143.119 71.4903 143.564 69.4389 144.074C65.3577 145.084 61.385 146.397 57.6294 148.253C50.433 151.813 43.9855 156.633 36.5504 159.759C32.2303 161.571 27.7258 162.917 23.1236 163.851C22.3638 164.003 21.6148 163.308 21.528 162.592C21.4303 161.767 22.0273 161.181 22.798 161.029C31.0147 159.379 38.5584 156.079 45.7005 151.824C49.2824 149.686 52.8101 147.472 56.5548 145.626C60.3755 143.738 64.4025 142.424 68.538 141.404C70.8825 140.818 73.2487 140.297 75.6258 139.809C76.2337 139.678 76.8415 139.591 77.4493 139.548C76.7004 139.114 75.8755 138.788 75.0288 138.56C72.5866 137.909 70.0033 137.616 67.4851 137.388C62.2425 136.91 56.9673 137.062 51.7464 137.594C40.9463 138.712 30.4502 141.513 20.0084 144.324C13.9734 145.952 7.94928 147.569 1.83831 148.904C1.07851 149.067 0.329567 148.351 0.242732 147.645C0.145044 146.81 0.752884 146.245 1.51269 146.082C23.4167 141.285 45.0601 132.482 67.9301 134.577C70.9368 134.848 74.8877 135.174 77.9812 136.585C77.254 135.673 76.3422 134.892 75.4196 134.197" fill="#4555FF"/>
<path d="M75.7017 142.642C85.9808 140.145 77.026 148.264 75.463 150.413C75.387 150.457 70.6979 150.413 70.6219 150.446C70.6762 148.785 70.8065 145.561 70.7196 143.738C71.1755 143.629 71.6314 143.532 72.0873 143.423C72.0873 143.423 72.0981 143.423 72.109 143.423C72.1524 143.423 72.1958 143.401 72.2392 143.391C72.2609 143.391 72.2826 143.391 72.3044 143.38C72.3261 143.38 72.3478 143.38 72.3586 143.369C73.4441 143.13 74.5403 142.891 75.6366 142.663C75.6583 142.663 75.6909 142.652 75.7126 142.642M70.0575 137.616C70.6979 137.692 71.3383 137.779 71.9787 137.887C71.9896 137.887 72.0004 137.887 72.0113 137.887C72.0113 137.887 72.0113 137.887 72.0221 137.887C72.0221 137.887 72.033 137.887 72.0438 137.887C72.0438 137.887 72.0547 137.887 72.0656 137.887C72.0656 137.887 72.0764 137.887 72.0873 137.887C72.0873 137.887 72.0981 137.887 72.109 137.887C72.109 137.887 72.1198 137.887 72.1307 137.887C72.1307 137.887 72.1415 137.887 72.1524 137.887C72.1524 137.887 72.1632 137.887 72.1741 137.887H72.1958C72.2609 137.887 72.3152 137.909 72.3803 137.92C72.3803 137.92 72.402 137.92 72.4129 137.92C72.4238 137.92 72.4346 137.92 72.4455 137.92C72.4672 137.92 72.4997 137.92 72.5214 137.931C73.1944 138.05 73.8674 138.191 74.5186 138.354C74.5838 138.365 74.6489 138.387 74.7032 138.398C74.7032 138.398 74.7249 138.398 74.7357 138.398C74.7357 138.398 74.7574 138.398 74.7683 138.398C74.7683 138.398 74.7683 138.398 74.7791 138.398H74.8008H74.8117C74.8117 138.398 74.8226 138.398 74.8334 138.398C74.8334 138.398 74.8443 138.398 74.8551 138.398C74.8551 138.398 74.866 138.398 74.8768 138.398C74.8768 138.398 74.8877 138.398 74.8985 138.398C74.8985 138.398 74.9094 138.398 74.9202 138.398C74.9311 138.398 74.9419 138.398 74.9637 138.398C75.8103 138.626 76.6461 138.951 77.3842 139.385C77.3842 139.385 77.3516 139.385 77.3299 139.385C76.7546 139.429 76.1793 139.516 75.6041 139.635C75.5932 139.635 75.5715 139.635 75.5606 139.635C75.5606 139.635 75.4738 139.657 75.4304 139.668C75.4087 139.668 75.387 139.668 75.3761 139.678C75.3544 139.678 75.3218 139.689 75.3001 139.7C75.2567 139.7 75.2133 139.722 75.1807 139.722C75.159 139.722 75.1482 139.722 75.1265 139.733C75.0939 139.733 75.0722 139.744 75.0396 139.754C75.0288 139.754 75.0071 139.754 74.9962 139.754C74.8985 139.776 74.8008 139.798 74.7032 139.819C74.6923 139.819 74.6814 139.819 74.6706 139.819C74.5729 139.841 74.4752 139.863 74.3775 139.885C74.3667 139.885 74.3558 139.885 74.345 139.885C74.3124 139.885 74.2907 139.895 74.2581 139.906C74.2473 139.906 74.2256 139.906 74.2147 139.906C74.1713 139.906 74.117 139.928 74.0736 139.939C74.0519 139.939 74.041 139.939 74.0193 139.95C73.9976 139.95 73.9651 139.961 73.9433 139.971C73.9216 139.971 73.8999 139.971 73.8674 139.982C73.8457 139.982 73.824 139.982 73.8022 139.993C73.7588 139.993 73.7263 140.015 73.6828 140.015C73.6611 140.015 73.6394 140.015 73.6286 140.026C73.596 140.026 73.5635 140.037 73.5309 140.047C73.52 140.047 73.4983 140.047 73.4875 140.047C73.4441 140.047 73.4006 140.069 73.3464 140.08C73.3355 140.08 73.3247 140.08 73.3138 140.08C73.2704 140.08 73.2378 140.102 73.1944 140.102C73.1944 140.102 73.1727 140.102 73.1618 140.102C73.1076 140.102 73.0642 140.123 73.0099 140.134C72.9556 140.145 72.9122 140.156 72.8579 140.167C72.8579 140.167 72.8471 140.167 72.8362 140.167C72.7385 140.189 72.63 140.21 72.5323 140.232C72.4238 140.254 72.3261 140.275 72.2175 140.297C72.109 140.319 72.0113 140.34 71.9027 140.362C71.8593 140.362 71.8051 140.384 71.7616 140.395C71.7616 140.395 71.7508 140.395 71.7399 140.395C71.6857 140.406 71.6422 140.416 71.588 140.427C71.588 140.427 71.5771 140.427 71.5663 140.427C71.5228 140.427 71.4903 140.449 71.4469 140.449C71.436 140.449 71.4143 140.449 71.4034 140.46C71.3709 140.46 71.3383 140.471 71.3058 140.482C71.2732 140.482 71.2515 140.492 71.2189 140.503C71.1972 140.503 71.1755 140.503 71.1538 140.514C71.1212 140.514 71.0887 140.525 71.067 140.536C71.067 140.536 71.0561 140.536 71.0453 140.536C70.8607 140.579 70.6654 140.623 70.4808 140.666C70.3723 139.602 70.2312 138.506 70.0467 137.388M68.3208 130.083C68.3968 130.116 68.4619 130.148 68.5379 130.181C68.603 130.213 68.6682 130.235 68.7333 130.268C71.067 131.353 73.3572 132.612 75.4195 134.164C76.3421 134.859 77.2431 135.641 77.9811 136.552C77.8726 136.509 77.7749 136.455 77.6664 136.411C75.4412 135.467 72.8254 135.044 70.4374 134.783C70.1661 134.751 69.8947 134.729 69.6342 134.696C69.6342 134.696 69.6125 134.696 69.6016 134.696C69.5691 134.696 69.5474 134.696 69.5148 134.696C69.2977 133.687 69.0481 132.656 68.7659 131.603C68.6247 131.093 68.4836 130.582 68.3208 130.083ZM60.2344 114.724C62.5898 116.537 64.5544 119.001 66.4756 121.085C68.1906 122.941 69.949 124.786 71.512 126.773C72.1741 127.619 72.7602 128.52 73.3029 129.432C72.0547 128.726 70.7739 128.075 69.4714 127.478C69.4714 127.478 69.428 127.456 69.4063 127.446C68.7984 127.174 68.1906 126.914 67.5719 126.653C67.561 126.653 67.5393 126.642 67.5285 126.632C67.3439 126.556 67.1703 126.49 66.9857 126.414C65.0428 121.725 62.4595 117.753 60.2344 114.703" fill="#5D68D4"/>
<path d="M72.0981 143.423C72.0981 143.423 72.0873 143.423 72.0764 143.423C72.0764 143.423 72.0873 143.423 72.0981 143.423ZM72.2935 143.38C72.2935 143.38 72.2501 143.38 72.2284 143.391C72.2501 143.391 72.2718 143.391 72.2935 143.38ZM75.7018 142.642C75.7018 142.642 75.6475 142.653 75.6258 142.663C74.5295 142.891 73.4441 143.13 72.3478 143.369C73.4332 143.13 74.5295 142.891 75.6258 142.663C75.6475 142.663 75.68 142.653 75.7018 142.642ZM71.0778 140.753C71.0778 140.753 71.067 140.753 71.0561 140.753C71.0561 140.753 71.067 140.753 71.0778 140.753ZM71.2406 140.721C71.2406 140.721 71.1972 140.721 71.1755 140.731C71.1972 140.731 71.2189 140.731 71.2406 140.721ZM71.4252 140.677C71.4252 140.677 71.36 140.688 71.3275 140.699C71.36 140.699 71.3926 140.688 71.4252 140.677ZM71.5988 140.634C71.5988 140.634 71.5229 140.655 71.4794 140.655C71.5229 140.655 71.5554 140.634 71.5988 140.634ZM71.7616 140.601C71.7616 140.601 71.664 140.623 71.6097 140.634C71.664 140.623 71.7074 140.612 71.7616 140.601ZM71.9245 140.569C71.9245 140.569 71.8268 140.59 71.7834 140.601C71.8268 140.601 71.881 140.579 71.9245 140.569ZM73.0533 140.308C73.0533 140.308 72.9556 140.33 72.9013 140.341C72.9556 140.33 72.999 140.319 73.0533 140.308ZM73.2053 140.276C73.2053 140.276 73.1076 140.297 73.0533 140.308C73.1076 140.308 73.151 140.286 73.2053 140.276ZM73.3464 140.243C73.3464 140.243 73.2704 140.265 73.227 140.265C73.2704 140.265 73.303 140.243 73.3464 140.243ZM73.52 140.21C73.52 140.21 73.4332 140.232 73.3789 140.243C73.4224 140.243 73.4658 140.221 73.52 140.21ZM73.6612 140.178C73.6612 140.178 73.596 140.189 73.5635 140.2C73.596 140.2 73.6286 140.189 73.6612 140.178ZM73.8348 140.145C73.8348 140.145 73.7588 140.167 73.7154 140.167C73.7588 140.167 73.7914 140.145 73.8348 140.145ZM73.9759 140.113C73.9759 140.113 73.9325 140.113 73.8999 140.124C73.9217 140.124 73.9434 140.124 73.9759 140.113ZM74.1062 140.08C74.1062 140.08 74.0736 140.08 74.0519 140.091C74.0736 140.091 74.0845 140.091 74.1062 140.08ZM74.3016 140.048C74.3016 140.048 74.269 140.048 74.2581 140.048C74.269 140.048 74.2907 140.048 74.3016 140.048ZM74.4209 140.015C74.4209 140.015 74.3992 140.015 74.3884 140.015C74.3992 140.015 74.4101 140.015 74.4209 140.015ZM74.7574 139.95C74.7574 139.95 74.7357 139.95 74.7249 139.95C74.7357 139.95 74.7466 139.95 74.7574 139.95ZM75.0831 139.874C75.0831 139.874 75.0505 139.874 75.0396 139.874C75.0505 139.874 75.0722 139.874 75.0831 139.874ZM75.2242 139.852C75.2242 139.852 75.1916 139.852 75.1699 139.863C75.1916 139.863 75.2025 139.863 75.2242 139.852ZM75.4304 139.809C75.4304 139.809 75.3761 139.82 75.3544 139.83C75.3761 139.83 75.4087 139.82 75.4304 139.809ZM75.6149 139.765C75.6149 139.765 75.5281 139.787 75.4847 139.798C75.5281 139.798 75.5715 139.776 75.6149 139.765ZM75.6583 139.755C75.6583 139.755 75.6258 139.755 75.6149 139.755C75.6258 139.755 75.6475 139.755 75.6583 139.755ZM77.395 139.505C77.2756 139.505 77.1562 139.527 77.0368 139.537C76.581 139.592 76.1251 139.657 75.6692 139.755C76.2445 139.635 76.8197 139.548 77.395 139.505ZM77.4384 139.505C77.4384 139.505 77.4059 139.505 77.3842 139.505C77.4059 139.505 77.4167 139.505 77.4384 139.505ZM74.9745 138.506C74.9745 138.506 74.9962 138.506 75.0179 138.506C75.8646 138.734 76.7003 139.06 77.4384 139.494C76.6895 139.06 75.8646 138.734 75.0179 138.506C75.0071 138.506 74.9962 138.506 74.9745 138.506ZM74.942 138.495C74.942 138.495 74.9528 138.495 74.9637 138.495C74.9637 138.495 74.9528 138.495 74.942 138.495ZM74.8985 138.485C74.8985 138.485 74.9094 138.485 74.9202 138.485C74.9202 138.485 74.9094 138.485 74.8985 138.485ZM74.8551 138.474H74.866C74.866 138.474 74.866 138.474 74.8551 138.474ZM74.8226 138.463C74.8226 138.463 74.8226 138.463 74.8334 138.463C74.8334 138.463 74.8334 138.463 74.8226 138.463ZM72.1633 137.909C72.1633 137.909 72.1741 137.909 72.185 137.909C72.185 137.909 72.1741 137.909 72.1633 137.909ZM72.1198 137.898C72.1198 137.898 72.1307 137.898 72.1415 137.898C72.1415 137.898 72.1307 137.898 72.1198 137.898ZM72.0764 137.898C72.0764 137.898 72.0873 137.898 72.0981 137.898C72.0981 137.898 72.0873 137.898 72.0764 137.898ZM72.033 137.888C72.033 137.888 72.0439 137.888 72.0547 137.888C72.0547 137.888 72.0439 137.888 72.033 137.888ZM71.9896 137.877C71.9896 137.877 72.0113 137.877 72.0221 137.877C72.0113 137.877 72.0004 137.877 71.9896 137.877ZM70.0575 137.605C70.6979 137.681 71.3383 137.768 71.9787 137.877C71.3383 137.779 70.6979 137.692 70.0575 137.605ZM69.6234 134.696C69.6234 134.696 69.6016 134.696 69.5908 134.696C69.5908 134.696 69.6125 134.696 69.6234 134.696ZM70.4266 134.783C70.1552 134.751 69.8839 134.729 69.6234 134.696C69.8839 134.718 70.1552 134.751 70.4266 134.783ZM68.7333 130.268C71.067 131.353 73.3572 132.612 75.4195 134.165C76.3422 134.859 77.2431 135.641 77.9812 136.552C77.2539 135.641 76.3422 134.859 75.4195 134.165C73.3572 132.612 71.067 131.353 68.7333 130.268ZM69.4171 127.457C69.4171 127.457 69.4605 127.478 69.4822 127.489C69.4605 127.489 69.4388 127.467 69.4171 127.457ZM67.5393 126.653C67.5393 126.653 67.5719 126.664 67.5827 126.675C67.5719 126.675 67.5502 126.664 67.5393 126.653ZM66.4865 121.096C68.2014 122.952 69.9598 124.797 71.5229 126.784C72.185 127.63 72.7711 128.531 73.3138 129.443C72.7711 128.52 72.1958 127.63 71.5229 126.784C69.9598 124.797 68.2014 122.963 66.4865 121.096Z" fill="#3745EB"/>
<path d="M56.6309 110.079C70.6546 116.092 77.6122 132.764 80.2281 138.94C80.2824 139.06 80.3149 139.19 80.3258 139.331C80.4126 140.102 80.011 141.209 79.3489 142.425C78.6651 142.294 77.9813 142.294 77.2757 142.37C76.733 142.425 76.1794 142.533 75.615 142.653C73.976 143 72.337 143.347 70.7089 143.738C70.6655 142.815 70.5895 141.86 70.4918 140.894C72.1959 140.493 73.9109 140.124 75.615 139.765C76.0818 139.668 76.5593 139.592 77.0261 139.537C77.1672 139.527 77.2974 139.505 77.4385 139.494C76.6896 139.06 75.8647 138.734 75.018 138.506C73.4007 138.072 71.7292 137.801 70.0576 137.605C69.9057 136.65 69.7211 135.684 69.5041 134.686C72.2285 134.957 75.3979 135.369 77.9704 136.552C77.2432 135.641 76.3314 134.859 75.4088 134.165C73.3465 132.612 71.0562 131.353 68.7225 130.268C68.5923 130.203 68.4512 130.138 68.3209 130.083C67.9302 128.824 67.4852 127.609 66.9967 126.436C67.8325 126.762 68.6574 127.12 69.4823 127.489C70.774 128.075 72.0657 128.727 73.3139 129.443C72.7712 128.52 72.1959 127.63 71.523 126.784C69.9599 124.797 68.2015 122.963 66.4866 121.096C64.5654 119.012 62.6007 116.548 60.2453 114.735C58.8126 112.782 57.5209 111.208 56.6417 110.09" fill="#3A48D6"/>
</g>
<path d="M115.95 202.634C115.95 202.634 123.103 197.272 126.739 199.128C130.505 201.049 122.929 210.861 122.929 210.861L115.96 202.644L115.95 202.634Z" fill="#FF0090"/>
<path d="M129.68 217.276C129.68 217.276 134.152 211.122 137.561 211.719C141.099 212.337 137.409 222.215 137.409 222.215L129.68 217.287V217.276Z" fill="#FF0090"/>
<path d="M143.812 225.764C143.812 225.764 146.124 219.675 149.077 219.393C152.138 219.099 151.313 228.098 151.313 228.098L143.812 225.764Z" fill="#FF0090"/>
<path d="M157.022 229.161C157.022 229.161 157.749 223.669 160.137 222.855C162.612 222.019 163.687 229.628 163.687 229.628L157.022 229.161Z" fill="#FF0090"/>
<path d="M168.343 228.999C168.343 228.999 169.005 223.995 171.176 223.257C173.434 222.497 174.411 229.433 174.411 229.433L168.343 229.009V228.999Z" fill="#FF0090"/>
<path d="M189.911 229.031C182.204 236.694 167.345 249.969 148.404 259.564C138.451 264.601 131.417 274.087 129.528 285.094C129.528 285.094 111.749 269.594 104.542 244.9C93.72 207.822 104.726 162.809 104.726 162.809C121.301 234.958 168.984 230.388 187.87 225.46C188.912 225.189 194.35 223.181 194.795 223.94C195.24 224.711 190.681 228.25 189.911 229.02" fill="#4F5FFF"/>
<path d="M145.994 265.947C141.446 275.585 135.086 282.727 127.716 287.764C127.716 287.764 127.716 287.775 127.705 287.785C116.579 295.416 103.196 298.26 90.442 297.609C80.9879 297.12 71.6749 294.602 63.4256 290.456C50.9106 284.182 40.8378 274.142 36.3767 261.735C23.6446 226.242 57.6945 173.924 68.8962 151.51C74.9312 139.44 76.809 128.933 77.254 121.812C77.6339 115.723 76.9609 112.109 76.9609 112.109L82.1059 111.783L104.173 110.383L106.452 110.242C106.452 110.242 106.713 115.799 108.254 123.766C109.806 131.863 112.639 142.446 117.784 152.215C127.987 171.568 164.707 226.318 145.994 265.947Z" fill="#6B78FF"/>
<path d="M127.716 287.764C127.716 287.764 127.716 287.775 127.705 287.785C116.579 295.416 103.196 298.26 90.4419 297.609C80.9878 297.12 71.6749 294.602 63.4256 290.456C63.4256 290.456 44.4523 262.495 45.8199 231.538C47.1984 200.571 67.6805 167.129 74.4101 154.495C80.901 142.305 81.9539 119.663 82.1167 111.783C82.171 110.014 82.1601 108.993 82.1601 108.993C82.1601 108.993 104.368 98.3889 104.183 110.383C103.836 132.265 106.202 142.87 110.186 152.563C119.217 174.499 137.148 207.713 139.84 231.495C142.488 254.995 128.074 286.982 127.716 287.764Z" fill="#B3B9FF"/>
<mask id="mask3_118_988" style="mask-type:luminance" maskUnits="userSpaceOnUse" x="45" y="104" width="96" height="194">
<path d="M127.716 287.764C127.716 287.764 127.716 287.775 127.705 287.785C116.579 295.416 103.196 298.26 90.4419 297.609C80.9878 297.12 71.6749 294.602 63.4256 290.456C63.4256 290.456 44.4523 262.495 45.8199 231.538C47.1984 200.571 67.6805 167.129 74.4101 154.495C80.901 142.305 81.9539 119.663 82.1167 111.783C82.171 110.014 82.1601 108.993 82.1601 108.993C82.1601 108.993 104.368 98.3889 104.183 110.383C103.836 132.265 106.202 142.87 110.186 152.563C119.217 174.499 137.148 207.713 139.84 231.495C142.488 254.995 128.074 286.982 127.716 287.764Z" fill="white"/>
</mask>
<g mask="url(#mask3_118_988)">
<path d="M108.634 122.735C108.221 124.938 104.281 124.406 102.61 124.461C100.026 124.548 97.443 124.602 94.8597 124.504C89.7473 124.309 84.6132 123.506 80.011 121.194C77.9813 120.173 76.1252 123.212 78.1766 124.233C83.8426 127.077 90.0838 127.988 96.3576 128.097C99.4294 128.151 102.523 128.075 105.595 127.902C108.319 127.75 111.467 126.827 112.053 123.733C112.476 121.508 109.068 120.499 108.645 122.746L108.634 122.735Z" fill="#8792FF"/>
<path d="M110.24 135.803C107.972 137.041 105.681 138.311 103.196 139.081C100.46 139.928 97.6926 139.961 94.8922 139.483C89.3782 138.55 83.9076 136.813 78.6325 134.989C76.4616 134.24 75.4847 137.66 77.6447 138.398C83.3975 140.384 89.4108 142.305 95.4675 143.13C101.589 143.955 106.734 141.762 111.999 138.897C114.007 137.801 112.259 134.707 110.251 135.803H110.24Z" fill="#8792FF"/>
<path d="M110.045 148.883C105.823 152.932 99.8418 153.93 94.1976 153.485C87.6307 152.964 81.1073 150.891 74.801 149.068C72.5975 148.427 71.6098 151.846 73.8132 152.476C85.8506 155.96 102.056 161.463 112.53 151.423C114.18 149.838 111.706 147.287 110.056 148.872L110.045 148.883Z" fill="#8792FF"/>
<path d="M120.606 164.405C112.151 167.628 103.163 169.224 94.1107 169.039C89.6279 168.952 85.1667 168.442 80.7925 167.465C76.8089 166.586 72.7386 165.349 69.6451 162.57C67.9518 161.051 65.3902 163.514 67.0943 165.045C70.3506 167.965 74.3884 169.582 78.5999 170.602C83.2998 171.753 88.1517 172.393 92.9927 172.556C102.686 172.893 112.444 171.286 121.507 167.834C123.624 167.031 122.755 163.58 120.617 164.394L120.606 164.405Z" fill="#8792FF"/>
<path d="M134.521 171.167C126.359 177.506 116.167 180.534 106.018 181.663C100.797 182.249 95.5327 182.368 90.2793 182.249C85.2103 182.13 80.0545 181.945 75.0398 181.088C69.6344 180.154 64.2941 178.363 60.4082 174.325C58.8235 172.675 56.2727 175.15 57.8575 176.8C65.4446 184.68 77.3409 185.321 87.5982 185.722C98.6588 186.156 110.045 185.635 120.65 182.238C126.565 180.339 132.068 177.527 136.985 173.717C138.787 172.317 136.301 169.777 134.511 171.167H134.521Z" fill="#8792FF"/>
<path d="M139.612 189.239C128.627 195.567 115.96 197.662 103.445 198.226C97.1826 198.509 90.9088 198.444 84.635 198.324C78.003 198.205 71.3602 198.02 64.7825 197.206C57.5752 196.316 50.4006 194.569 43.888 191.291C41.8582 190.27 40.0021 193.309 42.0536 194.33C54.2647 200.462 68.0171 201.494 81.4547 201.808C94.5992 202.123 107.961 202.373 120.921 199.789C128.074 198.368 135.042 195.969 141.37 192.322C143.346 191.182 141.609 188.089 139.623 189.228L139.612 189.239Z" fill="#8792FF"/>
<path d="M140.545 208.571C134.402 211.273 128.302 214.204 122.028 216.592C119.054 217.732 115.993 218.622 112.834 219.078C109.48 219.566 106.072 219.62 102.696 219.729C89.4651 220.131 75.9623 220.51 63.0783 216.95C56.5549 215.148 50.3896 212.348 44.9516 208.289C43.1172 206.921 41.3046 209.971 43.1172 211.328C53.3962 219.023 66.2043 222.182 78.817 223.148C85.97 223.691 93.1555 223.571 100.319 223.365C107.179 223.17 114.061 223.072 120.639 220.869C128.052 218.394 135.151 214.812 142.304 211.675C144.399 210.752 142.64 207.67 140.556 208.582L140.545 208.571Z" fill="#8792FF"/>
<path d="M147.601 222.833C122.636 239.853 90.7133 235.75 62.5139 231.853C54.9267 230.811 47.1551 229.378 40.7076 225.004C38.8081 223.713 36.9846 226.763 38.8732 228.043C44.7128 232.005 51.6162 233.742 58.4978 234.827C66.2586 236.054 74.0846 237.02 81.8996 237.812C97.1608 239.354 112.791 239.614 127.716 235.631C135.39 233.579 142.781 230.41 149.348 225.938C151.226 224.657 149.489 221.553 147.601 222.844V222.833Z" fill="#8792FF"/>
</g>
<g style="mix-blend-mode:multiply" opacity="0.48">
<path d="M108.243 123.766C103.825 126.143 98.4633 127.337 90.0729 126.143C84.255 125.329 80.087 123.538 77.2431 121.812C77.623 115.723 76.9501 112.109 76.9501 112.109L82.095 111.783L104.162 110.383L106.441 110.242C106.441 110.242 106.702 115.799 108.243 123.766Z" fill="#4E6587"/>
</g>
<path d="M70.8065 192.452C72.782 193.266 78.7736 190.444 78.7736 190.444C78.7736 190.444 79.5985 188.859 76.9067 187.361C76.9067 187.361 76.7113 187.329 76.3748 187.307C75.018 187.198 71.4578 187.285 70.3181 190.759C70.0033 191.714 70.2421 192.235 70.8065 192.452Z" fill="#293CFF"/>
<path d="M70.8065 192.452C73.1945 192.615 78.1115 190.303 78.1115 190.303C78.1115 190.303 78.9147 188.772 76.3748 187.307C75.8755 187.264 75.0831 187.253 74.2256 187.427C72.7386 187.72 71.0345 188.555 70.3181 190.759C70.0576 191.54 70.177 192.04 70.546 192.311C70.622 192.365 70.7088 192.42 70.8065 192.452Z" fill="#4F5FFF"/>
<path d="M74.2256 187.427C72.7386 187.72 71.0345 188.555 70.3181 190.759C70.2964 190.824 70.2746 190.889 70.2638 190.943C70.8933 191.15 71.512 191.345 72.0982 191.54C73.379 190.856 74.8877 189.923 75.6041 189.044C75.8103 188.534 75.6475 188.067 74.9311 187.698C74.6923 187.578 74.4644 187.481 74.2365 187.427H74.2256Z" fill="#7B87FF"/>
<path d="M79.0775 199.453C79.0775 199.594 79.0666 199.735 79.0449 199.876C79.0123 200.235 78.9581 200.604 78.8821 200.962C78.7084 201.776 78.4154 202.601 77.9595 203.404C77.6773 203.914 77.3299 204.414 76.9175 204.902C76.8198 205.01 76.7221 205.13 76.6136 205.238C76.2988 205.575 75.9514 205.901 75.5498 206.226C74.9854 206.704 74.3233 207.149 73.5852 207.561C73.4767 207.626 73.379 207.67 73.2596 207.724C72.8037 207.952 72.3044 208.126 71.7834 208.256C71.7183 208.278 71.6531 208.288 71.5772 208.31C63.5884 210.166 49.2173 202.264 44.0724 198.433C38.4607 194.265 38.2979 187.948 41.8472 175.65C42.7156 172.643 43.6816 169.929 44.7128 167.509C44.7128 167.509 44.7128 167.509 44.7128 167.487C44.7236 167.455 44.7779 167.346 44.843 167.205C46.5471 163.265 48.4467 160.074 50.4113 157.501C54.2646 152.487 58.4217 149.892 62.0037 148.948C67.0943 147.613 71.067 149.578 71.5337 152.584C71.5772 152.942 71.6206 153.322 71.664 153.691C72.3152 161.203 56.8045 173.533 58.1504 183.671C58.6063 187.112 64.956 189.261 70.2638 190.965C70.7414 191.128 71.219 191.28 71.6748 191.421C72.337 191.638 72.9774 191.855 73.5635 192.05C73.7263 192.116 73.9 192.17 74.0519 192.235C75.5607 192.767 76.7221 193.288 77.2322 193.82C77.3951 193.983 77.547 194.178 77.6881 194.384C78.2634 195.187 78.7193 196.295 78.9472 197.543C79.0558 198.151 79.11 198.802 79.0775 199.475V199.453Z" fill="#4F5FFF"/>
<path d="M70.5134 193.277C72.0655 195.502 73.7697 200.376 69.1891 203.968C68.082 204.837 66.6167 205.618 64.6955 206.28C61.2655 207.453 47.4914 200.69 42.8675 195.448C39.9585 192.148 40.5121 181.413 44.2785 170.266C45.2229 167.465 46.7967 164.024 48.5985 160.681C49.1847 159.596 49.7817 158.532 50.4112 157.49C52.5387 153.93 54.7963 150.761 56.6741 148.991C59.6048 146.234 63.5123 144.964 66.7903 144.78C68.7224 144.671 70.4482 144.943 71.6097 145.518C73.965 146.679 71.3817 151.553 71.5337 152.562C71.5228 152.649 71.5228 152.725 71.512 152.801C70.9475 160.323 55.4802 172.784 55.1654 182.976C54.9917 188.566 68.603 190.509 70.5134 193.277Z" fill="#6B78FF"/>
<path d="M57.6945 148.796C55.3391 150.468 49.912 158.825 48.6095 160.681C46.482 163.732 45.2446 166.326 44.8647 167.194C46.1673 164.198 47.5132 161.528 48.9025 159.303C51.0083 155.927 54.08 151.368 56.2509 149.187C61.4501 143.977 70.6111 144.02 71.6206 145.529C73.1293 146.69 66.5625 142.501 57.6945 148.796Z" fill="#B3B9FF"/>
<path d="M41.0549 189.087C40.903 193.722 42.4551 198.682 56.1641 204.218C58.9754 205.358 61.1245 206.194 62.9589 206.411C67.8867 206.997 69.7645 204.641 70.025 203.241C70.5135 200.625 60.419 203.404 50.8672 199.019C41.3154 194.634 41.0983 187.893 41.0549 189.076V189.087Z" fill="#8792FF"/>
<path d="M75.0396 196.002C75.5497 198.075 81.3459 201.277 81.3459 201.277C81.3459 201.277 83.1152 201.016 82.7461 197.955C82.7461 197.955 82.6593 197.771 82.4856 197.489C81.7801 196.327 79.6201 193.494 76.1358 194.612C75.1807 194.916 74.8985 195.415 75.0504 196.002H75.0396Z" fill="#293CFF"/>
<path d="M75.0396 196.001C76.3096 198.031 81.0746 200.658 81.0746 200.658C81.0746 200.658 82.7896 200.408 82.4857 197.488C82.2252 197.065 81.7802 196.414 81.1289 195.817C80.0218 194.786 78.3393 193.907 76.1359 194.612C75.3544 194.862 75.0179 195.252 75.0071 195.708C75.0071 195.806 75.0071 195.904 75.0505 196.001H75.0396Z" fill="#4F5FFF"/>
<path d="M78.4153 194.406C77.7315 194.297 76.9608 194.33 76.1251 194.601C75.4195 194.829 75.0722 195.166 75.0071 195.556C75.0071 195.6 74.9962 195.643 74.9962 195.697C76.0491 196.273 78.4804 197.543 80.1737 197.814C80.3257 197.836 80.4776 197.858 80.6187 197.868C81.1506 197.738 81.4328 197.336 81.3134 196.533C81.27 196.273 81.2049 196.023 81.1289 195.806C80.4451 195.166 79.5333 194.58 78.4262 194.406H78.4153Z" fill="#7B87FF"/>
<path d="M72.7603 201.906C73.1076 203.741 78.4371 206.27 79.6636 206.628C80.9335 206.997 82.8548 204.5 81.7693 202.937C81.6933 202.785 81.5739 202.666 81.4328 202.547C78.3502 199.963 74.1713 199.41 72.9014 201.233C72.7603 201.439 72.7168 201.678 72.7603 201.906Z" fill="#293CFF"/>
<path d="M72.7603 201.906C73.9542 203.632 78.2851 205.662 79.3814 205.976C80.4885 206.302 82.0841 204.446 81.7693 202.937C81.6934 202.785 81.574 202.666 81.4328 202.547C80.8467 202.058 80.2172 201.646 79.5876 201.298C76.9392 199.876 74.0845 199.757 72.9882 201.114L72.9122 201.222C72.7711 201.429 72.7277 201.667 72.7711 201.895L72.7603 201.906Z" fill="#4F5FFF"/>
<path d="M76.5918 200.256C75.0179 199.996 73.6611 200.267 72.9773 201.114C73.0099 201.168 73.0641 201.222 73.1184 201.266C73.7805 201.754 76.6026 203.219 78.5564 203.534C78.8495 203.578 79.1208 203.599 79.3596 203.599C79.555 203.523 79.707 203.361 79.7938 203.165C80.0434 202.59 79.9458 201.949 79.5767 201.309C78.5781 200.766 77.5361 200.419 76.5809 200.267L76.5918 200.256Z" fill="#7B87FF"/>
<path d="M71.1105 207.409C71.4795 208.527 72.5975 209.558 74.6273 210.264C76.4616 210.904 77.699 208.104 76.8632 207.214L76.8307 207.181C75.9298 206.346 71.9897 203.686 71.219 205.412C70.9259 206.063 70.8825 206.747 71.1105 207.409Z" fill="#293CFF"/>
<path d="M71.1105 207.409C71.6315 208.31 72.6843 209.124 74.3776 209.71C75.9189 210.242 77.0478 208.343 76.8632 207.214L76.8307 207.181C76.5919 206.953 76.136 206.606 75.5716 206.237C74.052 205.227 71.7834 204.142 71.219 205.412C71.1213 205.629 71.0453 205.846 71.0236 206.074C70.9151 206.519 70.9477 206.975 71.0996 207.42L71.1105 207.409Z" fill="#4F5FFF"/>
<path d="M72.6084 204.869C71.9789 204.761 71.4579 204.891 71.2299 205.412C71.1431 205.597 71.078 205.781 71.0454 205.976C71.0454 206.009 71.0454 206.042 71.0345 206.074C71.9463 207.127 72.8798 207.691 73.7481 207.854C74.3668 207.854 74.9529 207.648 75.4197 207.279C75.767 207.008 75.7779 206.639 75.5825 206.248C74.6816 205.651 73.531 205.032 72.6084 204.88V204.869Z" fill="#7B87FF"/>
<path d="M114.864 192.452C112.889 193.266 106.897 190.444 106.897 190.444C106.897 190.444 106.072 188.859 108.764 187.361C108.764 187.361 108.959 187.329 109.296 187.307C110.653 187.198 114.213 187.285 115.353 190.759C115.667 191.714 115.429 192.235 114.864 192.452Z" fill="#293CFF"/>
<path d="M114.864 192.452C112.476 192.615 107.559 190.303 107.559 190.303C107.559 190.303 106.756 188.772 109.296 187.307C109.795 187.264 110.588 187.253 111.445 187.427C112.932 187.72 114.636 188.555 115.353 190.759C115.613 191.54 115.494 192.04 115.125 192.311C115.049 192.365 114.962 192.42 114.864 192.452Z" fill="#4F5FFF"/>
<path d="M111.434 187.427C112.921 187.72 114.625 188.555 115.342 190.759C115.363 190.824 115.385 190.889 115.396 190.943C114.766 191.15 114.148 191.345 113.562 191.54C112.281 190.856 110.772 189.923 110.056 189.044C109.849 188.534 110.012 188.067 110.729 187.698C110.967 187.578 111.195 187.481 111.423 187.427H111.434Z" fill="#7B87FF"/>
<path d="M106.582 199.453C106.582 199.594 106.593 199.735 106.615 199.876C106.648 200.235 106.702 200.604 106.778 200.962C106.951 201.776 107.244 202.601 107.7 203.404C107.983 203.914 108.33 204.414 108.742 204.902C108.84 205.01 108.938 205.13 109.046 205.238C109.361 205.575 109.708 205.901 110.11 206.226C110.674 206.704 111.337 207.149 112.075 207.561C112.183 207.626 112.281 207.67 112.4 207.724C112.856 207.952 113.355 208.126 113.876 208.256C113.942 208.278 114.007 208.288 114.083 208.31C122.071 210.166 136.443 202.264 141.587 198.433C147.199 194.265 147.362 187.948 143.813 175.65C142.944 172.643 141.978 169.929 140.947 167.509C140.947 167.509 140.947 167.509 140.947 167.487C140.936 167.455 140.882 167.346 140.817 167.205C139.113 163.265 137.213 160.074 135.249 157.501C131.395 152.487 127.238 149.892 123.656 148.948C118.566 147.613 114.593 149.578 114.126 152.584C114.083 152.942 114.039 153.322 113.996 153.691C113.345 161.203 128.855 173.533 127.509 183.671C127.054 187.112 120.704 189.261 115.396 190.965C114.918 191.128 114.441 191.28 113.985 191.421C113.323 191.638 112.682 191.855 112.096 192.05C111.934 192.116 111.76 192.17 111.608 192.235C110.099 192.767 108.938 193.288 108.428 193.82C108.265 193.983 108.113 194.178 107.972 194.384C107.396 195.187 106.941 196.295 106.713 197.543C106.604 198.151 106.55 198.802 106.582 199.475V199.453Z" fill="#4F5FFF"/>
<path d="M115.146 193.277C113.594 195.502 111.89 200.376 116.471 203.968C117.578 204.837 119.043 205.618 120.964 206.28C124.394 207.453 138.168 200.69 142.792 195.448C145.701 192.148 145.148 181.413 141.381 170.266C140.437 167.465 138.863 164.024 137.061 160.681C136.475 159.596 135.878 158.532 135.249 157.49C133.121 153.93 130.863 150.761 128.986 148.991C126.055 146.234 122.147 144.964 118.869 144.78C116.937 144.671 115.212 144.943 114.05 145.518C111.695 146.679 114.278 151.553 114.126 152.562C114.137 152.649 114.137 152.725 114.148 152.801C114.712 160.323 130.18 172.784 130.494 182.976C130.668 188.566 117.057 190.509 115.146 193.277Z" fill="#6B78FF"/>
<path d="M127.965 148.796C130.321 150.468 135.748 158.825 137.05 160.681C139.178 163.732 140.415 166.326 140.795 167.194C139.493 164.198 138.147 161.528 136.757 159.303C134.652 155.927 131.58 151.368 129.409 149.187C124.21 143.977 115.049 144.02 114.039 145.529C112.53 146.69 119.097 142.501 127.965 148.796Z" fill="#B3B9FF"/>
<path d="M144.616 189.087C144.768 193.722 143.216 198.682 129.507 204.218C126.695 205.358 124.546 206.194 122.712 206.411C117.784 206.997 115.906 204.641 115.646 203.241C115.157 200.625 125.252 203.404 134.804 199.019C144.355 194.634 144.572 187.893 144.616 189.076V189.087Z" fill="#8792FF"/>
<path d="M110.62 196.002C110.11 198.075 104.314 201.277 104.314 201.277C104.314 201.277 102.545 201.016 102.914 197.955C102.914 197.955 103 197.771 103.174 197.489C103.88 196.327 106.04 193.494 109.524 194.612C110.479 194.916 110.761 195.415 110.609 196.002H110.62Z" fill="#293CFF"/>
<path d="M110.62 196.001C109.35 198.031 104.585 200.658 104.585 200.658C104.585 200.658 102.87 200.408 103.174 197.488C103.435 197.065 103.88 196.414 104.531 195.817C105.638 194.786 107.32 193.907 109.524 194.612C110.305 194.862 110.642 195.252 110.653 195.708C110.653 195.806 110.653 195.904 110.609 196.001H110.62Z" fill="#4F5FFF"/>
<path d="M107.244 194.406C107.928 194.297 108.699 194.33 109.535 194.601C110.24 194.829 110.587 195.166 110.653 195.556C110.653 195.6 110.663 195.643 110.663 195.697C109.611 196.273 107.179 197.543 105.486 197.814C105.334 197.836 105.182 197.858 105.041 197.868C104.509 197.738 104.227 197.336 104.346 196.533C104.39 196.273 104.455 196.023 104.531 195.806C105.215 195.166 106.126 194.58 107.233 194.406H107.244Z" fill="#7B87FF"/>
<path d="M112.9 201.906C112.552 203.741 107.223 206.27 105.996 206.628C104.726 206.997 102.805 204.5 103.89 202.937C103.966 202.785 104.086 202.666 104.227 202.547C107.31 199.963 111.488 199.41 112.758 201.233C112.9 201.439 112.943 201.678 112.9 201.906Z" fill="#293CFF"/>
<path d="M112.9 201.906C111.706 203.632 107.375 205.662 106.278 205.976C105.171 206.302 103.576 204.446 103.89 202.937C103.966 202.785 104.086 202.666 104.227 202.547C104.813 202.058 105.443 201.646 106.072 201.298C108.721 199.876 111.575 199.757 112.672 201.114L112.748 201.222C112.889 201.429 112.932 201.667 112.889 201.895L112.9 201.906Z" fill="#4F5FFF"/>
<path d="M109.068 200.256C110.642 199.996 111.999 200.267 112.682 201.114C112.65 201.168 112.596 201.222 112.541 201.266C111.879 201.754 109.057 203.219 107.103 203.534C106.81 203.578 106.539 203.599 106.3 203.599C106.105 203.523 105.953 203.361 105.866 203.165C105.616 202.59 105.714 201.949 106.083 201.309C107.082 200.766 108.124 200.419 109.079 200.267L109.068 200.256Z" fill="#7B87FF"/>
<path d="M114.549 207.409C114.18 208.527 113.062 209.558 111.033 210.264C109.198 210.904 107.961 208.104 108.797 207.214L108.829 207.181C109.73 206.346 113.67 203.686 114.441 205.412C114.734 206.063 114.777 206.747 114.549 207.409Z" fill="#293CFF"/>
<path d="M114.549 207.409C114.028 208.31 112.976 209.124 111.282 209.711C109.741 210.242 108.612 208.343 108.797 207.214L108.829 207.181C109.068 206.954 109.524 206.606 110.088 206.237C111.608 205.228 113.876 204.142 114.441 205.412C114.539 205.629 114.615 205.846 114.636 206.074C114.745 206.519 114.712 206.975 114.56 207.42L114.549 207.409Z" fill="#4F5FFF"/>
<path d="M113.051 204.869C113.681 204.761 114.202 204.891 114.43 205.412C114.517 205.597 114.582 205.781 114.614 205.976C114.614 206.009 114.614 206.042 114.625 206.074C113.714 207.127 112.78 207.691 111.912 207.854C111.293 207.854 110.707 207.648 110.24 207.279C109.893 207.008 109.882 206.639 110.077 206.248C110.978 205.651 112.129 205.032 113.051 204.88V204.869Z" fill="#7B87FF"/>
<path d="M131.004 37.8325C134.76 38.0713 132.73 37.9953 141.327 30.0608L139.254 51.9973L136.29 56.5778C136.29 56.5778 126.033 37.5177 131.004 37.8325Z" fill="#6B78FF"/>
<path d="M167.084 32.3727C166.237 34.3156 164.881 37.1268 163.122 40.0249C164.045 40.47 164.859 40.8933 165.543 41.2515C166.672 41.8485 166.769 43.2161 166.183 44.2907C165.054 46.3855 163.003 50.5753 158.943 50.7815C152.159 51.1289 158.411 52.0623 159.128 53.8099C160.04 56.0459 155.253 59.0959 151.15 57.6197C148.751 56.7623 146.472 55.3838 138.494 57.6197C136.811 56.48 133.273 54.0487 133.36 52.7245C133.653 48.5781 134.782 37.3548 142.173 31.4283C145.896 28.4434 155.133 23.331 158.531 22.0068C159.236 21.7354 159.974 22.1153 159.92 22.0068C160.582 22.5061 161.006 23.3419 160.908 24.2536C160.799 25.3716 160.615 26.761 160.354 28.2914C162.362 28.5954 164.099 28.9101 165.412 29.1815C166.824 29.4637 167.638 31.0484 167.073 32.3509L167.084 32.3727Z" fill="#828DFF"/>
<path d="M145.104 35.2382C147.405 33.8706 154.113 29.7242 157.988 28.7039C161.765 27.7053 165.695 28.9102 165.673 29.2684C165.63 29.8654 159.019 26.9781 147.546 35.2057C143.671 37.9844 136.953 44.1062 134.445 46.7438C133.924 47.2974 133.989 48.1331 133.924 48.0354C133.62 47.6013 133.599 47.3082 133.946 46.6461C135.628 43.4658 141.424 37.4199 145.104 35.2382Z" fill="#6E7BFF"/>
<path d="M146.472 43.2706C148.773 42.2937 155.427 39.667 159.182 39.591C162.851 39.515 166.259 41.5122 166.172 41.8378C166.02 42.3805 162.254 37.3984 148.393 43.2814C144.333 45.0073 137.039 49.1536 134.25 51.0423C133.664 51.433 133.36 52.1928 133.316 52.0951C133.11 51.6284 133.143 51.585 133.599 51.0748C135.172 49.3164 143.107 44.7142 146.472 43.2814V43.2706Z" fill="#6E7BFF"/>
<path d="M159.942 22.0178C159.996 22.1264 159.258 21.7465 158.553 22.0178C155.155 23.3421 145.907 28.4544 142.195 31.4394C134.793 37.355 133.642 48.5783 133.381 52.7355C133.316 53.7341 136.16 55.8832 137.843 57.0229C138.353 57.3594 138.548 57.6633 138.537 57.7068C138.516 57.913 138.016 57.5657 137.148 57.0664C135.552 56.1654 133.957 55.1126 133.11 54.3202C131.808 53.072 133.512 42.1526 134.565 39.6561C136.844 34.2289 140.589 30.2888 142.901 28.9212C146.428 26.8154 154.374 22.2675 158.194 21.5837C158.368 21.562 158.52 21.5294 158.683 21.5185C159.421 21.4534 159.681 21.5728 159.964 22.007L159.942 22.0178Z" fill="#1C30FF"/>
<path d="M36.6698 65.0553C33.6198 67.2587 35.2913 66.1082 23.7858 63.9807L37.2342 81.4453L42.1838 83.7464C42.1838 83.7464 40.6968 62.1572 36.6698 65.0661V65.0553Z" fill="#6B78FF"/>
<path d="M3.22771 79.665C4.98611 80.859 7.6237 82.5197 10.6521 84.0284C10.1093 84.8968 9.6426 85.6892 9.2627 86.3513C8.6223 87.4584 9.2627 88.6632 10.3373 89.2711C12.4104 90.4433 16.3831 92.8964 19.9216 90.9101C25.8481 87.5887 21.0505 91.7133 21.3761 93.5694C21.7886 95.9465 27.4762 95.979 30.1572 92.5491C31.7311 90.541 32.9251 88.1639 40.8704 85.8194C41.6845 83.9633 43.3886 80.0124 42.6071 78.9378C40.1432 75.5838 33.2181 66.6833 23.7966 65.6196C19.0533 65.0768 8.51375 65.6738 4.93184 66.3685C4.18289 66.5205 3.75957 67.226 3.75957 67.1175C3.46651 67.8881 3.55334 68.8216 4.12862 69.538C4.82329 70.428 5.71335 71.5026 6.7445 72.664C5.20319 73.9882 3.90068 75.1822 2.9455 76.1157C1.90349 77.1034 2.05545 78.8835 3.22771 79.6759V79.665Z" fill="#828DFF"/>
<path d="M23.3624 70.3737C20.6814 70.4388 12.8012 70.5148 8.98048 71.7088C5.24661 72.881 2.56559 75.9962 2.78268 76.2784C3.14087 76.756 7.20038 70.797 21.2784 71.6436C26.0434 71.9259 34.9765 73.5323 38.515 74.4223C39.2531 74.6069 39.6439 75.345 39.6439 75.2364C39.6656 74.7046 39.5245 74.444 38.8841 74.075C35.7689 72.2732 27.639 70.2543 23.3624 70.3628V70.3737Z" fill="#6E7BFF"/>
<path d="M26.4775 77.8957C24.0136 78.2973 16.98 79.6216 13.7563 81.5536C10.6085 83.4423 8.78503 86.9482 9.03468 87.1761C9.44714 87.556 9.98985 81.3257 24.8494 78.9269C29.202 78.2213 37.5815 77.8523 40.9463 77.9608C41.6518 77.9826 42.3139 78.4493 42.3031 78.3516C42.2271 77.8414 42.1728 77.8306 41.5216 77.6461C39.253 76.9948 30.0812 77.3204 26.4775 77.9066V77.8957Z" fill="#6E7BFF"/>
<path d="M3.75951 67.0849C3.75951 67.2043 4.19368 66.4988 4.93178 66.3468C8.51369 65.6521 19.0532 65.0552 23.7965 65.5979C33.2072 66.6616 40.1757 75.5404 42.607 78.9161C43.1932 79.7302 41.9341 83.0624 41.12 84.9185C40.8595 85.4829 40.8595 85.8411 40.8921 85.8628C41.0223 86.0257 41.2611 85.4721 41.7278 84.582C42.5962 82.9756 43.3885 81.2281 43.6816 80.1101C44.1266 78.3625 36.8651 70.0264 34.64 68.4743C29.8207 65.0986 24.5563 63.7635 21.8645 63.8395C17.7507 63.9372 8.61138 64.3279 5.01861 65.7824C4.8558 65.8584 4.71469 65.9127 4.57358 65.9886C3.91147 66.3251 3.75951 66.5748 3.74866 67.0849H3.75951Z" fill="#1C30FF"/>
<path d="M59.1599 51.5742C56.3378 53.6474 62.1015 46.1254 60.8966 40.0035C57.814 24.3191 51.779 26.3488 52.8536 24.2974C54.0801 21.942 62.7636 25.144 71.0888 35.5316C82.2579 49.4685 61.9929 49.501 59.1708 51.5742H59.1599Z" fill="#F00088"/>
<path d="M85.1993 34.381C88.3905 35.8463 80.6731 29.2035 81.8236 22.2025C85.2102 1.63358 95.8257 1.77468 92.6345 0.309354C89.4433 -1.15598 76.581 3.5765 70.9259 20.2813C64.2397 40.0144 82.0082 32.9157 85.1993 34.381Z" fill="#FF0090"/>
<path d="M83.5496 36.9099C86.9904 36.1936 76.8308 35.4229 73.607 29.1057C64.1312 10.5449 71.4362 8.89501 69.6995 8.31974C66.3672 7.2126 58.5413 13.964 63.6862 34.0227C68.8637 54.2117 80.1088 37.6155 83.5496 36.9099Z" fill="#FF0090"/>
<path d="M88.2712 2.45861C88.2712 2.45861 83.6581 4.58605 80.1196 8.41762C76.809 11.9887 73.8784 16.9382 73.9109 19.7386C73.9652 24.0369 75.3003 24.1129 76.212 23.2446C78.6542 20.9326 76.8958 14.8542 82.8331 8.39591C86.7841 4.09761 91.8965 0.884737 88.282 2.45861H88.2712Z" fill="#FF87CB"/>
<path d="M66.975 10.7185C66.0632 11.1418 65.2166 11.7497 64.5328 16.6775C63.7621 22.2675 64.9018 24.9268 66.5517 24.6229C68.69 24.2321 66.4106 21.3666 66.0198 17.0357C65.6942 13.3995 67.3332 11.4349 66.975 10.7294V10.7185Z" fill="#FF87CB"/>
<path d="M77.9487 34.0227C80.9445 35.8571 89.4977 29.9958 90.5831 24.6229C93.7851 8.84077 103.663 11.2721 100.754 9.3075C98.4416 7.74448 89.0743 7.79875 80.3475 20.8348C72.2176 32.9699 75.9189 31.2332 77.9487 34.0227Z" fill="#FF0090"/>
<path d="M138.472 57.5765C135.835 54.1466 134.228 50.0654 133.534 45.7888C133.534 45.7671 133.534 45.7562 133.534 45.7345C131.091 30.8315 115.211 16.0806 100.851 17.5133C90.2249 18.5662 85.0257 23.1684 83.4084 28.3459C81.1507 35.5966 79.1644 34.7174 72.9232 30.4082C69.1025 27.7706 63.0132 27.0434 54.0801 30.5276C40.6208 35.7702 33.7609 54.7218 37.9398 69.2123C38.07 69.6465 38.2003 70.0807 38.3522 70.5148C39.8067 74.8023 40.4037 79.3285 39.8176 83.8114C38.6779 92.4839 36.0077 90.3022 38.4174 98.6383C45.5378 123.321 88.6727 129.975 104.422 125.438C120.172 120.9 153.126 92.2777 146.005 67.595C143.899 60.3118 143.259 63.7743 138.494 57.5874L138.472 57.5765ZM85.9809 58.7488C85.9809 58.7488 85.9266 58.7596 85.894 58.7705C85.894 58.7054 85.894 58.6402 85.894 58.5751C85.9266 58.6294 85.9483 58.6837 85.9809 58.7488Z" fill="#6B78FF"/>
<path d="M104.411 75.204C104.129 74.7589 102.794 73.6735 100.862 74.2814C98.9299 74.8892 98.6477 76.1483 98.4089 77.2554C98.2678 77.8958 99.8634 77.3965 100.428 76.9081L100.471 76.8755L100.656 76.7779C100.895 76.7019 101.35 77.7439 101.589 77.9393C101.817 78.1346 102.946 78.5688 104.118 77.7547C105.54 76.767 104.596 75.4862 104.411 75.204Z" fill="#99A2FF"/>
<path d="M82.8114 80.5985C82.1819 80.0449 81.1616 79.9147 80.38 80.0775C79.5985 80.2403 78.8822 80.49 78.4046 80.9458C78.0898 81.2389 77.2649 81.8576 77.3517 83.0299C77.3951 83.5943 77.5362 84.3432 78.1658 84.3866C81.1616 84.5712 82.5943 82.4112 82.8114 82.1832C83.2347 81.7273 83.2673 81.0218 82.8114 80.6094V80.5985Z" fill="#99A2FF"/>
<path d="M98.2788 80.566C97.8772 80.9459 97.2042 80.6637 97.3019 80.1644C97.6384 78.4277 98.5285 75.877 100.862 75.8119C104.411 75.7033 103.977 77.4943 102.697 77.8959C101.622 78.2324 100.243 78.7208 98.268 80.566H98.2788Z" fill="#00074D"/>
<path d="M84.407 84.3433C84.8845 84.5061 85.3296 83.9634 85.0365 83.5618C84.0379 82.1398 82.2687 80.2295 80.3257 81.1847C77.3842 82.6391 78.4697 84.0611 79.6745 83.8657C80.6948 83.7029 82.019 83.5292 84.3961 84.3433H84.407Z" fill="#00074D"/>
<path d="M101.492 73.4022C104.053 71.8066 107.027 73.7278 106.539 76.2569C106.409 77.0167 105.953 77.7656 105.236 78.1889C106.854 75.6056 104.911 72.6207 101.492 73.4022Z" fill="#1C30FF"/>
<path d="M79.0558 79.9799C76.2337 79.8496 74.7032 82.878 76.2771 84.7666C76.733 85.3419 77.4602 85.7544 78.2417 85.7652C75.7236 84.365 75.9189 80.9351 79.0667 79.9799H79.0558Z" fill="#1C30FF"/>
<path d="M101.589 111.479C94.241 113.813 86.6213 112.641 86.3608 112.923C86.0568 113.248 93.9805 115.05 102.371 112.63C109.394 110.6 113.963 105.325 113.551 105.129C113.214 104.977 108.482 109.276 101.589 111.468V111.479Z" fill="#1C30FF"/>
<path d="M99.4401 107.713C84.8086 111.816 70.1987 107.333 63.469 104.663C62.6549 104.337 62.7201 102.969 63.545 102.959C70.101 102.839 83.81 102.144 96.0319 98.7579C107.331 95.6211 119.89 88.772 125.252 85.6785C125.946 85.2769 126.695 86.3406 126.239 87.057C122.875 92.419 114.332 103.545 99.4401 107.724V107.713Z" fill="#00074D"/>
<path d="M103.445 96.8149C103.5 97.1189 103.597 97.8027 103.467 98.4322C103.359 98.9315 103.109 99.5394 102.935 99.9518C102.827 100.212 102.512 100.321 102.262 100.191C101.882 100.006 101.35 99.713 100.927 99.3874C100.428 98.9966 100.081 98.4431 99.9177 98.1392C101.079 97.7484 102.262 97.3034 103.456 96.8149H103.445Z" fill="white"/>
<path d="M93.7633 99.9302C93.7633 100.245 93.7416 100.929 93.492 101.526C93.2857 102.003 92.9384 102.557 92.6887 102.926C92.5259 103.165 92.2112 103.208 91.9832 103.045C91.6467 102.796 91.1691 102.416 90.8218 102.014C90.3985 101.537 90.1597 100.94 90.0511 100.603C91.2668 100.419 92.5151 100.202 93.7742 99.9302H93.7633Z" fill="white"/>
<path d="M99.6681 108.516C93.861 109.992 87.8152 110.22 81.9647 109.471C75.7343 108.722 69.6776 107.051 63.8597 104.815C63.1108 104.663 62.5572 103.859 63.0782 103.154C63.3387 102.85 63.7729 102.959 64.1202 102.926C74.345 102.622 84.5914 101.168 94.4906 98.6494C105.052 95.7947 115.222 91.3011 124.763 85.939C125.078 85.7871 125.393 85.4615 125.773 85.6134C126.12 85.7545 126.337 86.1127 126.37 86.4818C126.424 86.8725 126.142 87.1764 125.957 87.4803C124.6 89.6621 123.092 91.7569 121.442 93.7216C115.722 100.538 108.232 105.846 99.6463 108.505L99.6681 108.516ZM99.2122 106.91C104.78 105.466 110.099 102.926 114.723 99.3767C118.782 96.2832 122.364 92.5385 125.328 88.3704C125.859 87.5563 127.075 86.3406 125.783 85.6243C125.414 85.4614 125.089 85.7871 124.774 85.939L122.864 87.0353C103.055 98.4215 91.4731 102.123 68.5271 102.828L64.1311 102.948C63.7838 102.98 63.3496 102.861 63.0999 103.165C62.6115 103.827 63.0999 104.674 63.8706 104.804L64.9018 105.195C75.8863 109.222 88.1625 110.188 99.223 106.899L99.2122 106.91Z" fill="#1C30FF"/>
<path d="M125.946 85.3094C122.484 83.4316 121.865 79.0573 121.572 79.1333C121.236 79.2093 121.398 84.148 125.143 86.46C128.28 88.392 133.588 86.9701 133.653 86.6553C133.707 86.3948 129.181 87.0678 125.935 85.3094H125.946Z" fill="#1C30FF"/>
<path d="M62.3401 103.284C64.1094 99.7672 62.123 95.8271 62.4053 95.7186C62.7309 95.5992 65.4119 99.7455 63.6535 103.772C62.1773 107.148 57.0107 109.015 56.7719 108.787C56.5765 108.603 60.6794 106.573 62.3401 103.273V103.284Z" fill="#1C30FF"/>
<path d="M98.3656 25.0897C101.546 23.6244 105.128 23.2662 108.547 24.2322C111.619 25.1006 115.657 27.1954 116.785 30.061C117.046 30.7122 115.83 30.8642 114.929 30.0501C113.388 28.6391 109.752 26.9566 107.147 27.5753C104.77 28.1398 102.197 29.0515 100.015 30.0284C95.359 32.1124 95.9885 26.1968 98.3548 25.1006L98.3656 25.0897Z" fill="#1C30FF"/>
<path d="M92.4827 51.4329C92.9168 60.3877 95.4025 64.8705 108.449 64.2301C121.496 63.5897 123.537 58.8898 123.092 49.935C122.658 40.9802 115.255 30.1368 106.799 30.5493C98.344 30.9617 92.0376 42.4781 92.4718 51.4329H92.4827Z" fill="#3647FF"/>
<path d="M92.7756 51.4872C93.1881 59.9536 95.5326 64.1867 107.874 63.5898C120.215 62.9928 122.137 58.5425 121.724 50.0762C121.312 41.6098 114.311 31.3525 106.322 31.7433C98.333 32.134 92.3632 43.0209 92.7756 51.4872Z" fill="white"/>
<path d="M115.6 56.285C116.804 50.2779 112.91 44.4324 106.903 43.2288C100.895 42.0251 95.05 45.9192 93.8463 51.9263C92.6427 57.9335 96.5367 63.7789 102.544 64.9826C108.551 66.1862 114.397 62.2922 115.6 56.285Z" fill="#E80083"/>
<path d="M104.726 63.4811C109.9 63.4811 114.094 59.2872 114.094 54.1138C114.094 48.9404 109.9 44.7466 104.726 44.7466C99.5529 44.7466 95.359 48.9404 95.359 54.1138C95.359 59.2872 99.5529 63.4811 104.726 63.4811Z" fill="#00074D"/>
<path d="M107.863 48.8061C108.352 48.8495 108.666 49.7504 108.569 50.825C108.482 51.8996 108.015 52.7354 107.527 52.7028C107.038 52.6594 106.723 51.7585 106.821 50.6839C106.908 49.6093 107.375 48.7735 107.863 48.8061Z" fill="white"/>
<path d="M108.08 46.2229C108.569 46.2663 108.927 46.6353 108.894 47.0478C108.862 47.4603 108.438 47.7642 107.95 47.7208C107.461 47.6774 107.103 47.3083 107.136 46.8958C107.168 46.4834 107.592 46.1795 108.08 46.2229Z" fill="white"/>
<path d="M58.1613 36.4975C54.6771 36.8014 51.3883 38.2559 48.8918 40.7958C46.6558 43.0752 44.181 46.8959 44.6152 49.9351C44.7129 50.6298 45.8417 50.163 46.2216 49.0016C46.862 47.0153 49.1848 43.7481 51.7573 42.9883C54.1018 42.3045 56.7829 41.8161 59.1708 41.5881C64.2506 41.0888 60.7664 36.2695 58.1722 36.4866L58.1613 36.4975Z" fill="#1C30FF"/>
<path d="M76.4833 57.175C80.4234 65.0769 80.4452 70.1242 68.9179 75.8661C57.3906 81.608 53.3854 78.5363 49.4453 70.6343C45.5052 62.7324 46.6449 49.8375 54.1018 46.1253C61.5695 42.4132 72.5324 49.2731 76.4725 57.175H76.4833Z" fill="#3647FF"/>
<path d="M76.2554 57.3595C79.9785 64.8381 80.0002 69.6032 69.1025 75.0303C58.2048 80.4575 54.4166 77.5594 50.6936 70.0807C46.9706 62.6021 48.0451 50.4236 55.1004 46.9068C62.1557 43.39 72.5324 49.8809 76.2554 57.3595Z" fill="white"/>
<path d="M73.3493 69.4972C74.5529 63.49 70.6589 57.6445 64.6517 56.4409C58.6446 55.2373 52.7991 59.1313 51.5955 65.1385C50.3919 71.1456 54.2859 76.9911 60.293 78.1947C66.3002 79.3983 72.1457 75.5043 73.3493 69.4972Z" fill="#E80083"/>
<path d="M62.4704 76.6911C67.6438 76.6911 71.8377 72.4972 71.8377 67.3238C71.8377 62.1504 67.6438 57.9565 62.4704 57.9565C57.297 57.9565 53.1031 62.1504 53.1031 67.3238C53.1031 72.4972 57.297 76.6911 62.4704 76.6911Z" fill="#00074D"/>
<path d="M65.6073 62.0161C66.0957 62.0595 66.4105 62.9604 66.3128 64.035C66.226 65.1095 65.7592 65.9453 65.2708 65.9127C64.7823 65.8693 64.4676 64.9684 64.5653 63.8938C64.6521 62.8193 65.1188 61.9835 65.6073 62.0161Z" fill="white"/>
<path d="M65.8243 59.4328C66.3128 59.4763 66.6709 59.8453 66.6384 60.2578C66.6058 60.6702 66.1825 60.9742 65.6941 60.9307C65.2056 60.8873 64.8474 60.5183 64.88 60.1058C64.9125 59.6933 65.3359 59.3894 65.8243 59.4328Z" fill="white"/>
<path d="M50.1833 85.1139C50.1833 85.1139 61.7757 79.4805 73.4333 77.1903C80.1629 75.8769 85.0148 77.9935 91.0823 76.2459C96.4335 74.7046 98.9734 70.7211 104.52 68.1812C112.791 64.393 128.758 62.4393 128.758 62.4393C128.758 62.4393 109.621 57.316 87.4679 63.7092C62.0254 71.0576 50.1833 85.1139 50.1833 85.1139Z" fill="#828DFF"/>
<path d="M128.758 62.4392C121.746 61.4623 114.745 60.0621 107.635 60.7242C90.138 62.3741 72.5541 67.8121 58.1938 78.1562C55.3283 80.2402 52.593 82.5088 50.1833 85.1138C54.8398 79.7301 60.712 75.5078 66.8773 71.9801C79.3271 65.1094 93.4377 61.1692 107.603 60.1164C114.756 59.5954 121.778 61.1367 128.758 62.4392Z" fill="#1C30FF"/>
<path d="M76.0817 71.9477C75.463 70.5258 81.7694 70.4932 87.5438 68.8542C93.0144 67.302 97.9531 64.0566 98.3764 65.5111C99.0385 67.8122 93.4811 71.2313 88.8898 72.5555C84.2984 73.8797 77.0152 74.086 76.0817 71.9368V71.9477Z" fill="#919BFF"/>
</g>
</svg>
