<svg width="74" height="74" viewBox="0 0 74 74" fill="none" xmlns="http://www.w3.org/2000/svg">
<path d="M36.993 50.1269C44.3998 50.1269 50.4043 44.25 50.4043 37.0005C50.4043 29.7509 44.3998 23.874 36.993 23.874C29.5862 23.874 23.5818 29.7509 23.5818 37.0005C23.5818 44.25 29.5862 50.1269 36.993 50.1269Z" fill="#FFE524"/>
<path d="M37.9107 0.916416L36.9931 26.2198L36.0755 0.916416C36.0614 -0.29848 37.9249 -0.312444 37.9107 0.916416Z" fill="#FFE524"/>
<path d="M16.0713 7.27024L30.5272 28.2726L14.589 8.33153C13.8408 7.35402 15.3513 6.27877 16.0713 7.27024Z" fill="#FFE524"/>
<path d="M2.22282 24.9907L26.5183 33.6613L1.65813 26.6941C0.472299 26.3311 1.03698 24.5998 2.22282 24.9907Z" fill="#FFE524"/>
<path d="M1.65798 47.3051L26.5182 40.3379L2.22267 49.0085C1.05095 49.3995 0.45803 47.6681 1.65798 47.3051Z" fill="#FFE524"/>
<path d="M14.589 65.6686L30.5272 45.7275L16.0713 66.7299C15.3513 67.7213 13.8408 66.6601 14.589 65.6686Z" fill="#FFE524"/>
<path d="M36.0898 73.0836L37.0074 47.7803L37.925 73.0836C37.9391 74.2985 36.0757 74.3125 36.0898 73.0836Z" fill="#FFE524"/>
<path d="M57.9287 66.7299L43.4728 45.7275L59.411 65.6686C60.1592 66.6461 58.6486 67.7213 57.9287 66.7299Z" fill="#FFE524"/>
<path d="M71.7773 49.0085L47.4818 40.3379L72.342 47.3051C73.5278 47.6681 72.9632 49.3995 71.7773 49.0085Z" fill="#FFE524"/>
<path d="M72.342 26.6941L47.4818 33.6613L71.7773 24.9907C72.949 24.5998 73.542 26.3311 72.342 26.6941Z" fill="#FFE524"/>
<path d="M59.411 8.33099L43.4728 28.272L57.9287 7.2697C58.6486 6.27823 60.1592 7.33952 59.411 8.33099Z" fill="#FFE524"/>
<path d="M60.0744 22.1986C60.0744 22.1986 56.4604 24.4468 52.6347 26.8208C48.3149 29.5019 43.7268 32.3646 43.7268 32.3646L59.0015 20.7323C60.0179 19.9922 61.1049 21.5143 60.0603 22.1986H60.0744Z" fill="#FFE524"/>
<path d="M46.776 11.7386C46.776 11.7386 45.209 15.6346 43.5432 19.7541C41.6656 24.4042 39.661 29.3616 39.661 29.3616L45.0396 11.1521C45.4208 9.97908 47.2137 10.5656 46.776 11.7386Z" fill="#FFE524"/>
<path d="M29.7369 10.9424C29.7369 10.9424 30.8098 14.9921 31.9392 19.2931C33.2097 24.1387 34.5649 29.2915 34.5649 29.2915L27.9864 11.473C27.5911 10.3 29.3981 9.75544 29.7369 10.9424Z" fill="#FFE524"/>
<path d="M15.4786 20.0888C15.4786 20.0888 18.7679 22.756 22.2689 25.5768C26.2076 28.7607 30.4003 32.154 30.4003 32.154L14.3775 21.5271C13.3469 20.815 14.4763 19.3208 15.4786 20.0888Z" fill="#FFE524"/>
<path d="M9.43653 35.7009C9.43653 35.7009 13.8834 35.9662 18.5138 36.2594C23.5254 36.5666 28.7487 36.8877 28.7487 36.8877L9.40829 37.502C8.15187 37.502 8.16599 35.659 9.43653 35.7009Z" fill="#FFE524"/>
<path d="M13.9259 51.8027C13.9259 51.8027 17.5399 49.5545 21.3656 47.1806C25.6854 44.4994 30.2735 41.6367 30.2735 41.6367L14.9988 53.269C13.9824 54.0091 12.8954 52.487 13.94 51.8027H13.9259Z" fill="#FFE524"/>
<path d="M27.2241 62.2616C27.2241 62.2616 28.7911 58.3656 30.4569 54.2461C32.3345 49.596 34.3391 44.6387 34.3391 44.6387L28.9605 62.8481C28.5793 64.0211 26.7865 63.4346 27.2241 62.2616Z" fill="#FFE524"/>
<path d="M44.2492 63.0581C44.2492 63.0581 43.1763 59.0084 42.0469 54.7074C40.7764 49.8618 39.4211 44.709 39.4211 44.709L45.9997 62.5275C46.395 63.7005 44.588 64.2451 44.2492 63.0581Z" fill="#FFE524"/>
<path d="M58.5216 53.9109C58.5216 53.9109 55.2323 51.2437 51.7313 48.4229C47.7926 45.239 43.5999 41.8457 43.5999 41.8457L59.6227 52.4726C60.6533 53.1847 59.5239 54.6789 58.5216 53.9109Z" fill="#FFE524"/>
<path d="M64.5497 38.2982C64.5497 38.2982 60.1028 38.0329 55.4724 37.7397C50.4609 37.4325 45.2375 37.1114 45.2375 37.1114L64.578 36.4971C65.8344 36.4971 65.8203 38.3401 64.5497 38.2982Z" fill="#FFE524"/>
</svg>
