<?xml version="1.0" encoding="utf-8"?>
<svg width="56" height="55" viewBox="0 0 56 55" fill="none" xmlns="http://www.w3.org/2000/svg">
  <mask id="mask0_125_5502" style="mask-type:luminance" maskUnits="userSpaceOnUse" x="0" y="0" width="37" height="76">
    <path d="M-4.57764e-05 76H36.5699L36.5699 0H-4.57764e-05L-4.57764e-05 76Z" fill="white"/>
  </mask>
  <g mask="url(#mask0_125_5502)" transform="matrix(0.720687, 0, 0, 0.720687, 0.008385, -0.069066)" style="">
    <path d="M1.52588e-05 51.48C7.52213 51.48 13.62 45.4448 13.62 38C13.62 30.5552 7.52213 24.52 1.52588e-05 24.52C-7.5221 24.52 -13.62 30.5552 -13.62 38C-13.62 45.4448 -7.5221 51.48 1.52588e-05 51.48Z" fill="#FFE524"/>
    <path d="M0.929982 0.939789L-1.10269e-05 26.9298L-0.930019 0.939789C-0.950019 -0.310211 0.949982 -0.320211 0.929982 0.939789Z" fill="#FFE524"/>
    <path d="M-0.930019 75.0598L-1.10269e-05 49.0698L0.929982 75.0598C0.949982 76.3098 -0.950019 76.3198 -0.930019 75.0598Z" fill="#FFE524"/>
    <path d="M21.2601 68.52L6.58008 46.96L22.7701 67.44C23.5301 68.44 22.0001 69.55 21.2601 68.52Z" fill="#FFE524"/>
    <path d="M35.32 50.3299L10.64 41.4199L35.9 48.5699C37.11 48.9399 36.53 50.7299 35.32 50.3199V50.3299Z" fill="#FFE524"/>
    <path d="M35.9 27.4198L10.64 34.5698L35.32 25.6598C36.52 25.2598 37.11 27.0398 35.9 27.4098V27.4198Z" fill="#FFE524"/>
    <path d="M22.7601 8.55969L6.57007 29.0397L21.2501 7.47969C21.9801 6.45969 23.5201 7.55969 22.7601 8.55969Z" fill="#FFE524"/>
    <path d="M23.4401 22.7898C23.4401 22.7898 19.7701 25.0998 15.8901 27.5398C11.5101 30.2998 6.8501 33.2298 6.8501 33.2298L22.3701 21.2898C23.4001 20.5398 24.5101 22.0898 23.4401 22.7998V22.7898Z" fill="#FFE524"/>
    <path d="M9.93007 12.06C9.93007 12.06 8.33008 16.06 6.64008 20.3C4.73008 25.08 2.70007 30.16 2.70007 30.16L8.16006 11.47C8.54006 10.26 10.3701 10.87 9.92007 12.07L9.93007 12.06Z" fill="#FFE524"/>
    <path d="M7.36998 64.7597C7.36998 64.7597 6.28998 60.5997 5.13998 56.1797C3.84998 51.1997 2.46997 45.9097 2.46997 45.9097L9.14998 64.2097C9.55998 65.4097 7.71998 65.9797 7.36998 64.7497V64.7597Z" fill="#FFE524"/>
    <path d="M21.8501 55.3597C21.8501 55.3597 18.5001 52.6197 14.9501 49.7197C10.9501 46.4497 6.69006 42.9697 6.69006 42.9697L22.9601 53.8897C24.0001 54.6197 22.8501 56.1497 21.8401 55.3597H21.8501Z" fill="#FFE524"/>
    <path d="M27.99 39.3298C27.99 39.3298 23.47 39.0498 18.77 38.7598C13.68 38.4498 8.37 38.1198 8.37 38.1198L28.02 37.4898C29.3 37.4798 29.28 39.3798 27.99 39.3298Z" fill="#FFE524"/>
  </g>
</svg>
