<svg width="100" height="39" viewBox="0 0 100 39" fill="none" xmlns="http://www.w3.org/2000/svg">
<path d="M47.2582 9.90363C47.2582 9.90363 46.3873 10.0488 45.9195 9.6617C45.4518 9.2746 44.6131 5.87137 43.4518 4.85524C40.6131 2.41976 30.1453 4.37137 30.1453 4.37137L21.097 5.14557L0.564697 6.93589L0.613084 6.30686L0.742117 5.66169C0.742117 5.66169 3.83889 4.96815 8.37115 4.09718C18.4518 2.09718 35.6776 -0.725402 41.726 1.40363L47.2421 9.90363H47.2582Z" fill="#B2B2B2"/>
<path d="M48.5646 8.74249C48.2097 10.2264 46.8549 9.98442 46.4356 9.6941C45.371 8.95216 44.9839 4.72636 42.371 4.03281C38.0807 2.88765 30.3549 5.06507 22.6936 7.98442C12.9033 11.7425 3.16136 16.7909 0.67749 17.8231L0.951684 6.33926C0.951684 6.33926 0.983942 6.307 1.06459 6.29087C2.20975 6.03281 12.4356 3.62958 23.1775 2.17797C23.2097 2.17797 23.242 2.17797 23.2581 2.16184C24.0323 2.04894 24.7743 1.93603 25.5485 1.85539H25.6614C28.1452 1.54894 30.6775 1.307 33.0485 1.16184C35.371 1.04894 37.5323 1.01668 39.5323 1.11345C39.8388 1.11345 40.1291 1.14571 40.4194 1.21023H40.5001C40.5807 1.21023 40.6775 1.24249 40.6936 1.24249C46.9517 2.0812 48.9517 7.0812 48.5646 8.75862V8.74249Z" fill="#B2B2B2"/>
<path d="M33.0485 1.16162L22.6936 7.9842C12.9033 11.7423 3.16136 16.7907 0.67749 17.8229L0.951684 6.33904C0.951684 6.33904 0.983942 6.30678 1.06459 6.29065C2.58072 5.95194 19.6452 1.93581 33.0485 1.16162Z" fill="#B2B2B2"/>
<path d="M1.0647 6.29064C2.20986 6.03257 12.4357 3.62935 23.1776 2.17773C16.8712 3.30677 0.935669 6.88741 0.935669 6.88741V6.33902C0.935669 6.33902 0.984056 6.30677 1.0647 6.29064Z" fill="#B2B2B2"/>
<path d="M40.4194 1.1946C38.3388 0.952668 29.5807 1.40428 25.6775 1.83976C28.1614 1.53331 30.6936 1.27525 33.0646 1.14622C35.3872 1.03331 37.5485 1.00105 39.5485 1.09783C39.8549 1.09783 40.1452 1.13009 40.4356 1.1946H40.4194Z" fill="#B2B2B2"/>
<path d="M52.7582 10.0318C52.7582 10.0318 53.6291 10.177 54.0969 9.78989C54.5646 9.4028 55.3872 5.98344 56.5485 4.96731C59.3711 2.5157 69.855 4.41893 69.855 4.41893L78.9033 5.14473L99.4195 6.80602L99.3711 6.17699L99.242 5.53183C99.242 5.53183 96.1453 4.85441 91.5969 3.99957C81.5001 2.06409 64.2582 -0.661719 58.2259 1.49957L52.7582 10.0318Z" fill="#B2B2B2"/>
<path d="M51.4194 8.87038C51.7743 10.3543 53.1452 10.0962 53.5646 9.82199C54.6291 9.08006 54.9839 4.83812 57.5969 4.12845C61.871 2.95103 69.613 5.08006 77.2904 7.96716C87.113 11.6768 96.871 16.6607 99.3549 17.6607L99.0162 6.17683C99.0162 6.17683 98.9839 6.14458 98.9033 6.12845C97.7581 5.88651 87.5162 3.53167 76.7743 2.14458C76.742 2.14458 76.7098 2.14458 76.6936 2.12845C75.9194 2.01554 75.1775 1.91877 74.4033 1.83812H74.2904C71.7904 1.5478 69.2743 1.30587 66.9033 1.19296C64.5807 1.09619 62.4194 1.08006 60.4194 1.17683C60.113 1.17683 59.8227 1.20909 59.5323 1.27361H59.4517C59.371 1.27361 59.2743 1.30587 59.2581 1.30587C53.0001 2.17683 51.0323 7.19296 51.4356 8.85425L51.4194 8.87038Z" fill="#B2B2B2"/>
<path d="M66.9033 1.20949L77.2904 7.96755C87.113 11.6772 96.8711 16.6611 99.3549 17.6611L99.0162 6.17723C99.0162 6.17723 98.984 6.14497 98.9033 6.12884C97.3872 5.79013 80.3066 1.88691 66.8872 1.19336L66.9033 1.20949Z" fill="#B2B2B2"/>
<path d="M98.9033 6.16063C97.7582 5.91869 87.5162 3.56385 76.7743 2.17676C83.0807 3.27353 99.0324 6.7574 99.0324 6.7574V6.20902C99.0324 6.20902 98.984 6.17676 98.9033 6.16063Z" fill="#B2B2B2"/>
<path d="M59.5322 1.28972C61.6129 1.04779 70.3871 1.45101 74.2742 1.85424C71.7742 1.56392 69.258 1.32198 66.8871 1.20908C64.5645 1.1123 62.4032 1.09617 60.4032 1.19295C60.0968 1.19295 59.8064 1.22521 59.5161 1.28972H59.5322Z" fill="#B2B2B2"/>
<path d="M36.5806 3.7749H1.30645C0.564516 3.7749 0 4.37168 0 5.09748V20.5007C0 29.7426 7.40323 37.2588 16.5161 37.2588H27.8387C36.9839 37.2588 44.3871 29.7426 44.3871 20.5007V11.662C44.3871 7.32329 40.8871 3.7749 36.5968 3.7749H36.5806ZM42.1613 21.0975C42.1613 29.0813 35.7581 35.5813 27.8548 35.5813H18.0645C15.2742 35.5813 12.6935 34.7588 10.5 33.3878C6.45161 30.8394 3.74194 26.291 3.74194 21.1136V8.01684C3.74194 7.24264 4.35484 6.61361 5.12903 6.61361H35.4355C39.1613 6.61361 42.1613 9.662 42.1613 13.4362V21.0975Z" fill="#B2B2B2"/>
<path d="M42.1612 13.4363V21.0976C42.1612 29.0815 35.758 35.5815 27.8547 35.5815H18.0644C15.2741 35.5815 12.6934 34.7589 10.4999 33.388C6.4515 30.8396 3.74182 26.2912 3.74182 21.1138V8.017C3.74182 7.2428 4.35472 6.61377 5.12892 6.61377H35.4354C39.1612 6.61377 42.1612 9.66216 42.1612 13.4363Z" fill="#B2B2B2"/>
<path opacity="0.54" d="M8.06445 19.3234C7.22574 19.1138 6.38703 18.8718 5.56445 18.6138C5.59671 20.2428 5.8709 21.7589 6.19349 22.8718C6.77413 24.888 7.38703 25.6783 7.79026 25.2428C7.98381 25.0331 7.45155 22.0815 8.06445 19.3234Z" fill="#B2B2B2"/>
<path opacity="0.54" d="M12.5161 9.22661C7.6129 9.8879 5.93548 13.4363 5.62903 16.9524C6.30645 17.2105 6.96774 17.5008 7.64516 17.7266C7.91935 17.8234 8.20967 17.8879 8.5 17.9685C9.24193 16.146 10.6774 14.646 13.4839 14.4202C15.5161 14.2589 16.871 13.0008 16.871 11.6944C16.871 10.5008 16.3226 8.69435 12.5161 9.22661Z" fill="#B2B2B2"/>
<path d="M98.6935 3.7749H63.4193C59.0968 3.7749 55.629 7.32329 55.629 11.662V20.5007C55.629 29.7426 63.0322 37.2588 72.1452 37.2588H83.4839C92.6129 37.2588 100 29.7426 100 20.5007V5.09748C100 4.37168 99.4032 3.7749 98.6935 3.7749ZM96.2258 21.0975C96.2258 26.291 93.5161 30.8394 89.4677 33.3717C87.2742 34.7426 84.6774 35.5652 81.9032 35.5652H72.1129C64.2258 35.5652 57.8064 29.0813 57.8064 21.0814V13.4201C57.8064 9.64587 60.8064 6.59748 64.5322 6.59748H94.8387C95.5968 6.59748 96.2258 7.22651 96.2258 8.00071V21.0814V21.0975Z" fill="#B2B2B2"/>
<path d="M96.2258 8.01652V21.0972C96.2258 26.2907 93.5161 30.8391 89.4677 33.3714C87.2741 34.7423 84.6774 35.5649 81.9032 35.5649H72.1128C64.2257 35.5649 57.8064 29.081 57.8064 21.081V13.4197C57.8064 9.64556 60.8064 6.59717 64.5322 6.59717H94.8387C95.5967 6.59717 96.2258 7.2262 96.2258 8.00039V8.01652Z" fill="#B2B2B2"/>
<path opacity="0.54" d="M63.0967 18.6618C62.258 18.4521 61.4193 18.2102 60.5967 17.9521C60.6289 19.5812 60.9031 21.0973 61.2257 22.2102C61.8064 24.2263 62.4193 25.0167 62.8225 24.5812C63.016 24.3715 62.4838 21.4199 63.0967 18.6618Z" fill="#B2B2B2"/>
<path opacity="0.54" d="M67.5484 8.56499C62.6451 9.22628 60.9677 12.7747 60.6613 16.2908C61.3387 16.5489 62 16.8392 62.6774 17.065C62.9516 17.1618 63.2419 17.2263 63.5322 17.3069C64.2742 15.4843 65.7096 13.9843 68.5161 13.7585C70.5483 13.5972 71.9032 12.3392 71.9032 11.0327C71.9032 9.83918 71.3548 8.03273 67.5484 8.56499Z" fill="#B2B2B2"/>
<path d="M55.629 12.8071V16.4845C55.629 16.4845 52.7742 14.8878 49.5806 14.8878C46.3871 14.8878 44.371 16.4845 44.371 16.4845V12.8071C44.371 12.8071 46.6452 11.8071 49.5806 11.8071C52.5161 11.8071 55.629 12.8071 55.629 12.8071Z" fill="#B2B2B2"/>
<path d="M55.629 13.4684V16.4845C55.629 16.4845 52.7742 14.6297 49.5806 14.6297C46.3871 14.6297 44.371 16.4845 44.371 16.4845V13.4684C44.371 13.4684 46.6452 12.3071 49.5806 12.3071C52.5161 12.3071 55.629 13.4684 55.629 13.4684Z" fill="#B2B2B2"/>
<path d="M55.629 15.5005V16.4682C55.629 16.4682 52.7742 14.8714 49.5806 14.8714C46.3871 14.8714 44.371 16.4682 44.371 16.4682V15.5005C44.371 15.5005 46.6452 14.5327 49.5806 14.5327C52.5161 14.5327 55.629 15.5005 55.629 15.5005Z" fill="#B2B2B2"/>
</svg>
