<svg width="64" height="76" viewBox="0 0 64 76" fill="none" xmlns="http://www.w3.org/2000/svg">
<path d="M57.04 71.6305C50.37 75.1505 17.33 79.3805 5.61999 71.6305C5.55999 71.5905 5.57999 71.1405 5.67999 70.3005C5.73999 69.8205 5.80999 69.2505 5.90999 68.5705C6.18999 66.5905 6.64999 63.7405 7.21999 60.3405C9.17999 48.8105 12.43 30.9805 14.67 19.1805C15.96 12.2605 16.93 7.42047 17.08 7.09047C17.54 6.10047 23.2 4.73047 23.2 4.73047L40.43 4.81047C44.93 5.68047 45.69 6.06047 46.72 7.09047L48.83 15.2205L53.58 33.5405C53.68 34.1505 54.91 47.2005 55.88 57.8605C56.24 61.9605 56.58 65.7105 56.79 68.2505C56.85 68.8605 56.88 69.3905 56.9 69.8505C57.01 70.9705 57.05 71.6005 57.03 71.6205L57.04 71.6305Z" fill="#EF8A38"/>
<path d="M24.77 0.32C24.77 0.32 25.46 0 31.73 0C36.38 0 39.34 0.81 39.61 1.16C39.88 1.51 36.07 4.47 33.81 4.29C31.55 4.11 23.38 2.71 24.76 0.33L24.77 0.32Z" fill="#A15D25"/>
<path d="M24.98 1.79982C24.98 1.79982 28.09 0.899822 31.67 1.08982C36.44 1.34982 38.73 2.15982 39.01 2.50982C39.29 2.85982 36.08 5.43982 33.81 5.25982C31.54 5.07982 23.59 4.18982 24.98 1.79982Z" fill="#8F5221"/>
<path d="M40.44 4.8198C40.44 4.8198 40.4 4.8798 40.36 4.9298C40.36 4.9498 40.34 4.9498 40.34 4.9698C40.34 4.9898 40.32 5.0298 40.28 5.0798C39.69 5.9698 37.71 8.6498 33.65 9.4098C32.85 9.5598 31.98 9.6398 31.01 9.5998C24.55 9.3698 23.31 5.2098 23.2 4.7398C23.16 4.5698 23.12 4.4198 23.12 4.2598C23.1 4.2198 23.1 4.1998 23.1 4.1998C22.95 1.0998 24.75 0.299805 24.75 0.299805C24.75 0.299805 25.38 2.5598 31.27 2.7698C37.18 2.9798 39.61 1.1398 39.61 1.1398C39.61 1.1398 41.45 3.1198 40.43 4.8098L40.44 4.8198Z" fill="#EF8A38"/>
<g style="mix-blend-mode:multiply" opacity="0.48">
<path d="M40.44 4.8198C40.44 4.8198 40.4 4.8798 40.36 4.9298C40.36 4.9498 40.34 4.9498 40.34 4.9698C40.34 4.9898 40.32 5.0298 40.28 5.0798C39.94 5.7598 37.96 8.6498 33.65 9.4098C32.85 9.5598 31.98 9.6398 31.01 9.5998C24.55 9.3698 23.31 5.2098 23.2 4.7398C23.16 4.5698 23.12 4.4198 23.12 4.2598V4.1998H23.1C22.95 1.0998 24.75 0.299805 24.75 0.299805C24.75 0.299805 25.38 2.5598 31.27 2.7698C37.18 2.9798 39.61 1.1398 39.61 1.1398C39.61 1.1398 41.45 3.1198 40.43 4.8098L40.44 4.8198Z" fill="#D2C3EB"/>
</g>
<path opacity="0.63" d="M26.54 5.36965C26.54 5.36965 27.14 8.83965 31.72 8.83965C38.28 8.83965 39.74 5.10965 39.97 4.74965C40.44 3.98965 40.24 2.63965 40.24 2.63965C40.24 2.63965 39.85 4.09965 38.1 4.80965C31.92 7.31965 26.54 5.36965 26.54 5.36965Z" fill="#EF8A38"/>
<g style="mix-blend-mode:multiply" opacity="0.48">
<path d="M23.37 59.6599C23.24 59.8299 21.01 62.9699 19.49 63.2699C17.97 63.5699 15.86 62.6599 15.12 62.5499C14.4 62.4199 13.58 63.5399 11.57 61.6199C10.26 60.3699 8.36 60.2699 7.22 60.3499C9.18 48.8199 12.43 30.9899 14.67 19.1899L14.86 18.9199C14.86 18.9199 13.74 36.2099 14.86 38.9499C15.98 41.6899 21.85 49.9099 21.85 51.4199C21.87 52.8999 23.5 59.5099 23.37 59.6699V59.6599Z" fill="#D2C3EB"/>
</g>
<g style="mix-blend-mode:multiply" opacity="0.48">
<path d="M55.89 57.8802C55.32 58.7202 54.27 60.1002 53.17 60.8402C51.52 61.9402 49.71 62.5502 48.19 62.2802C46.67 62.0102 47.33 63.7602 44.79 63.6302C42.24 63.5202 39.77 59.7202 39.64 58.2902C39.51 56.8602 41.88 53.4102 41.58 52.0002C41.26 50.5902 48.91 41.9302 49.96 38.9502C50.8 36.5702 49.45 21.3702 48.84 15.2402L53.59 33.5602C53.69 34.1702 54.92 47.2202 55.89 57.8802Z" fill="#D2C3EB"/>
</g>
<path d="M24.17 58.2901C23.98 59.3401 20.46 63.4601 18.28 62.7201C17.98 62.6301 17.65 62.4701 17.35 62.3001C17.35 62.3001 17.35 62.2934 17.35 62.2801C16.3 61.7101 15.32 60.7801 14.67 60.1101C14.16 59.5801 13.85 59.2001 13.85 59.2001L21.51 53.3301C21.51 53.3301 21.7 53.6001 21.99 54.0101C22.29 54.4501 22.69 55.0601 23.05 55.6801C23.7 56.7301 24.27 57.8101 24.17 58.2801V58.2901Z" fill="#FFA257"/>
<g style="mix-blend-mode:multiply" opacity="0.48">
<path d="M23.05 55.6902C22.35 57.0802 18.7 59.8602 17.88 60.5802C17.35 61.0602 17.25 61.7302 17.35 62.2802C16.3 61.7102 15.32 60.7802 14.67 60.1102L21.72 53.9502C21.72 53.9502 21.83 53.9702 21.99 54.0102C22.29 54.4502 22.69 55.0602 23.05 55.6802V55.6902Z" fill="#A88FCF"/>
</g>
<path d="M23.11 54.4201C22.03 57.4201 19.1 59.5901 16.73 60.7301H16.71C15.25 61.4301 13.99 61.7401 13.5 61.5901C12.21 61.1901 0.0100098 46.7501 0.0100098 42.9901C0.0100098 42.0601 0.26001 40.6701 0.69001 38.9601C2.00001 33.8101 5.00001 25.7301 7.93001 18.0801C11.81 7.89012 17.09 7.12012 17.09 7.12012C17.09 7.12012 15.42 14.9101 14.32 22.5301C12.86 32.6401 12.13 35.4701 12.21 38.0501C12.29 40.6501 23.93 52.1301 23.12 54.4301L23.11 54.4201Z" fill="#FF933C"/>
<g style="mix-blend-mode:multiply" opacity="0.48">
<path d="M16.7 60.73C15.24 61.43 13.98 61.74 13.49 61.59C12.2 61.19 0 46.75 0 42.99C0 42.06 0.25 40.67 0.68 38.96C0.68 38.96 0.03 42.02 1.25 44.6C2.45 47.18 11.13 60.92 16.7 60.73Z" fill="#D2C3EB"/>
</g>
<path d="M39.64 58.2901C39.83 59.3401 43.35 63.4601 45.53 62.7201C45.83 62.6301 46.16 62.4701 46.46 62.3001C46.46 62.3001 46.46 62.2934 46.46 62.2801C47.51 61.7101 48.49 60.7801 49.14 60.1101C49.65 59.5801 49.96 59.2001 49.96 59.2001L42.3 53.3301C42.3 53.3301 42.11 53.6001 41.82 54.0101C41.52 54.4501 41.12 55.0601 40.76 55.6801C40.11 56.7301 39.54 57.8101 39.64 58.2801V58.2901Z" fill="#FFA257"/>
<g style="mix-blend-mode:multiply" opacity="0.48">
<path d="M40.76 55.6902C41.46 57.0802 45.11 59.8602 45.93 60.5802C46.46 61.0602 46.56 61.7302 46.46 62.2802C47.51 61.7102 48.49 60.7802 49.14 60.1102L42.09 53.9502C42.09 53.9502 41.98 53.9702 41.82 54.0102C41.52 54.4502 41.12 55.0602 40.76 55.6802V55.6902Z" fill="#A88FCF"/>
</g>
<path d="M63.81 42.9804C63.81 45.3404 59.04 51.8503 55.16 56.5103C55.12 56.5703 55.08 56.6204 55.03 56.6804C54.67 57.0804 54.35 57.4804 54.02 57.8404C53.28 58.7004 52.61 59.4404 52.04 60.0404C51.89 60.1704 51.76 60.3304 51.62 60.4604C51.35 60.7304 51.13 60.9404 50.94 61.1104C50.75 61.2804 50.6 61.4103 50.46 61.5103C50.4 61.5503 50.35 61.5704 50.31 61.5904C49.82 61.7404 48.56 61.4404 47.1 60.7304H47.08C44.7 59.5904 41.78 57.4203 40.7 54.4203C39.88 52.1203 51.53 40.6404 51.61 38.0404C51.69 35.4604 50.96 32.6204 49.5 22.5204C48.4 14.9004 46.73 7.11035 46.73 7.11035C46.73 7.11035 47.26 7.19035 48.12 7.62035H48.14C48.14 7.62035 48.16 7.66035 48.18 7.66035C50.02 8.61035 53.27 11.1904 55.89 18.0704C58.82 25.7304 61.82 33.8004 63.13 38.9504C63.57 40.6604 63.81 42.0504 63.81 42.9804Z" fill="#FF933C"/>
<g style="mix-blend-mode:soft-light" opacity="0.48">
<path d="M63.81 42.9802C63.81 45.3402 59.04 51.8502 55.16 56.5102C55.12 56.5702 55.08 56.6202 55.03 56.6802C54.67 57.0802 54.35 57.4802 54.02 57.8402C53.28 58.7002 52.61 59.4402 52.04 60.0402C51.89 60.1702 51.74 60.3302 51.62 60.4602C51.35 60.7302 51.13 60.9402 50.94 61.1102C50.75 61.2802 50.6 61.4102 50.46 61.5102C50.4 61.5502 50.35 61.5702 50.31 61.5902C49.82 61.7402 48.56 61.4402 47.1 60.7302C48.01 60.7702 49.53 61.0902 50.56 60.3702C53.77 58.1302 62.49 45.4902 62.91 43.1402C63.31 40.9402 58.06 25.1402 54.36 15.8502C52.48 11.1202 48.62 8.02016 48.17 7.66016C50.01 8.61016 53.26 11.1902 55.88 18.0702C58.81 25.7302 61.81 33.8002 63.12 38.9502C63.56 40.6602 63.8 42.0502 63.8 42.9802H63.81Z" fill="#F6F0FF"/>
</g>
<path d="M42.24 7.09989C41.68 7.56989 36.51 13.0199 30.47 10.6299C15.43 4.66989 15.29 25.9099 15.29 30.5999C15.29 39.8599 19.72 43.6199 24.17 49.5199C28.62 55.4199 39.81 49.1999 41.99 47.7399C44.17 46.2799 49.84 37.3099 49.13 33.7499C48.42 30.1899 48.28 22.6699 47.1 18.3099C45.92 13.9499 46.2 3.77989 42.24 7.09989Z" fill="#FF933C"/>
<g style="mix-blend-mode:multiply" opacity="0.48">
<path d="M56.91 69.8695C56.36 70.0795 55.62 70.3295 54.74 70.5495C52.38 71.1395 44.5 73.6495 31.31 74.3095C24.17 74.6695 13.49 73.0895 9.91001 71.8195C7.97001 71.1395 6.58001 70.6595 5.67001 70.2995C5.73001 69.8195 5.80001 69.2495 5.90001 68.5695C5.90001 68.5695 8.35001 72.8795 29.54 73.4195C42.88 73.7395 56.11 69.0695 56.79 68.2695C56.85 68.8795 56.88 69.4095 56.9 69.8695H56.91Z" fill="#A88FCF"/>
</g>
</svg>
