<svg width="152" height="76" viewBox="0 0 152 76" fill="none" xmlns="http://www.w3.org/2000/svg">
<path d="M127.949 68.1213C109.728 67.4137 93.7572 88.1863 49.1288 64.3812C41.0927 60.0851 34.219 62.3595 17.9446 59.1248C-4.7992 54.6014 -3.23242 21.9009 7.81095 24.2005C23.9843 27.5615 27.876 28.0669 37.2262 24.9586C46.5512 21.8503 48.8256 26.8287 62.9267 28.5724C63.1289 28.5976 63.3816 28.6229 63.6343 28.6229C65.2011 28.6987 67.3744 28.4713 69.8509 28.1428C69.952 28.1175 70.0784 28.1175 70.23 28.0922C71.0134 27.9911 71.8221 27.89 72.656 27.7384C72.7824 27.7384 72.934 27.7131 73.0603 27.6879C74.425 27.511 75.8149 27.3088 77.23 27.1319C77.3311 27.1066 77.4575 27.1066 77.6091 27.0814C78.5947 26.955 79.5802 26.8539 80.5658 26.7276C84.2301 26.3485 87.8185 26.2222 90.851 26.6518C91.6597 26.7529 92.4178 26.8792 93.2265 27.0561C94.3637 27.2835 95.5514 27.5615 96.6886 27.8648C97.851 28.1428 99.0135 28.4207 100.151 28.724C100.934 28.9009 101.692 29.103 102.476 29.2547C102.855 29.3305 103.259 29.4063 103.613 29.4821C104.396 29.6085 105.154 29.7601 105.963 29.8612C108.465 30.1897 110.992 30.215 113.696 29.7348C114.631 29.5579 115.591 29.3052 116.577 28.9514C116.905 28.8756 117.234 28.7493 117.588 28.5976C117.613 28.5724 117.638 28.5724 117.638 28.5724C127.494 24.7059 138.562 25.5146 145.209 34.6626C151.855 43.8107 162.115 69.4859 127.949 68.1213Z" fill="#BDECFF"/>
<path d="M79.5044 55.2082C82.4358 50.9627 78.6451 38.7063 78.6451 38.7063C81.248 38.8832 85.2408 38.6558 85.2408 38.6558L85.165 54.9555C85.165 54.9555 82.9917 55.3851 79.5044 55.2082Z" fill="#F7CF94"/>
<path d="M101.541 19.9806C100.985 19.7279 99.2157 20.2333 98.5081 20.2586C93.3023 20.3849 87.7174 20.1575 82.36 21.977C80.3889 22.634 77.8365 24.0239 75.3347 25.4896C75.3347 25.4896 75.3347 25.4896 75.2589 25.5402C72.4538 27.2081 69.8004 29.0276 68.1325 30.1648C67.0964 30.8976 66.4646 31.3525 66.4646 31.3525L66.0855 33.0204L62.674 35.6738L59.5657 39.237C59.5657 39.237 58.3274 40.1215 57.1397 41.107L50.6703 36.3561C50.6703 36.3561 47.006 36.0276 42.6342 35.4464C41.775 35.3453 40.8652 35.2189 39.9807 35.0926C36.2406 34.5619 32.4753 33.8543 30.2767 33.0962C24.9446 31.1756 23.2514 28.8254 21.0276 28.0167C18.8038 27.1828 16.0745 29.3308 16.0745 29.3308C15.5185 30.1395 16.9843 30.0889 18.3489 29.9373C18.9807 29.8615 20.1684 30.2406 20.2695 30.4933C20.3958 30.7713 20.3453 31.6557 20.3453 31.6557C20.3453 31.6557 18.3994 32.6918 18.9301 33.4752C19.107 33.7532 20.0168 32.9446 21.6088 33.3489C22.6955 33.6016 23.2767 33.4752 23.5294 33.3489L23.7063 33.2478C23.7063 33.2478 23.7063 33.2478 23.7821 33.2983C30.2515 39.1106 41.0674 41.1829 47.6631 41.9915C50.7714 42.3959 52.9447 42.5222 53.3238 42.6486C54.5115 42.9771 54.8906 43.432 54.8906 43.432C54.8906 43.432 58.5548 46.9952 62.118 49.4717L62.1938 49.497C62.1938 49.497 62.2107 49.5054 62.2444 49.5222C63.0278 50.0782 63.8112 50.5836 64.544 50.9627C70.3311 53.9952 75.7138 54.9302 79.5044 55.1324C83.1687 54.8291 82.6632 48.6125 82.1073 45.0746C81.5766 41.5619 79.6307 38.4536 78.6704 38.6558C78.0639 38.58 77.508 38.5041 77.1289 38.4283C76.9267 38.3778 76.7499 38.302 76.5477 38.2514C74.0459 37.4933 72.1253 36.0023 72.1253 36.0023L72.0495 35.876C74.1975 33.4247 78.2408 29.2297 83.5477 26.9048C88.7282 24.6557 95.0207 23.5943 97.9774 23.3669C97.9774 23.3669 98.5333 25.0853 100.075 24.5294C101.616 23.9481 102.375 24.681 102.501 24.403C102.905 23.3164 100.378 23.5438 100.277 23.0636C100.201 22.6088 101.136 21.7243 102.375 22.8867C102.981 23.468 104.194 23.5943 104.194 22.8615C104.194 22.8615 103.284 20.6882 101.591 19.9048L101.541 19.9806Z" fill="#F7D8AA"/>
<path d="M117.613 35.0925C117.613 35.0925 117.486 35.1431 117.335 35.1936C115.237 37.3416 111.75 42.598 105.811 46.5402C102.122 49.0168 96.5369 48.9157 92.5694 48.8146C88.9556 48.7388 87.1867 47.3742 86.3527 46.1359C85.1903 44.468 83.6993 39.8687 84.9123 36.8615C86.4286 36.3308 89.1325 36.4571 93.5297 37.6701C97.1687 38.681 100.934 40.273 103.613 39.7171C103.739 39.7171 103.84 39.7171 103.967 39.6665C104.219 39.5907 110.486 36.912 115.111 31.8073C115.111 31.8073 115.92 28.8759 118.447 31.3777C120.974 33.8795 124.84 32.2369 125.801 33.6015C126.761 34.9914 119.634 35.1683 117.638 35.042L117.613 35.0925Z" fill="#F7D8AA"/>
<g style="mix-blend-mode:multiply" opacity="0.18">
<path d="M117.613 35.0925C117.613 35.0925 117.486 35.1431 117.335 35.1936C115.237 37.3416 111.75 42.598 105.811 46.5402C102.122 49.0168 96.5369 48.9157 92.5694 48.8146C88.9556 48.7388 87.1867 47.3742 86.3527 46.1359C85.1903 44.468 83.6993 39.8687 84.9123 36.8615C86.4286 36.3308 89.1325 36.4571 93.5297 37.6701C97.1687 38.681 100.934 40.273 103.613 39.7171C103.739 39.7171 103.84 39.7171 103.967 39.6665C104.219 39.5907 110.486 36.912 115.111 31.8073C115.111 31.8073 115.92 28.8759 118.447 31.3777C120.974 33.8795 124.84 32.2369 125.801 33.6015C126.761 34.9914 119.634 35.1683 117.638 35.042L117.613 35.0925Z" fill="#C47A2F"/>
</g>
<g style="mix-blend-mode:multiply" opacity="0.18">
<path d="M79.5044 55.2082C75.7137 55.006 70.3311 54.0457 64.544 51.0385C60.4249 48.8904 54.8905 43.4825 54.8905 43.4825C54.8905 43.4825 54.4862 43.0023 53.3238 42.6991C52.1613 42.3706 33.3092 41.9157 23.7821 33.3489C24.2117 33.5763 26.0059 34.5871 28.2045 35.4211C30.7063 36.3814 39.8291 39.2622 42.4067 35.699C42.4573 35.6485 42.5078 35.5727 42.5836 35.4969C46.9302 36.0781 50.6198 36.4066 50.6198 36.4066L57.0891 41.1576C58.2768 40.172 59.5151 39.2875 59.5151 39.2875L62.6234 35.7243L66.035 33.0709L66.4141 31.403C66.4141 31.403 70.6596 28.2947 75.2083 25.5654C74.6524 25.995 71.5946 28.4463 69.396 31.5294C68.1325 33.3236 67.1722 35.3705 67.2227 37.3417C67.2227 37.6702 67.2733 38.024 67.3238 38.3525C68.2588 43.5583 75.0062 47.9301 77.1542 46.9193C79.4286 45.8074 78.6199 38.7316 78.6199 38.7316C79.3275 38.5547 81.2733 40.8543 81.8293 44.0132C82.4863 47.728 82.0062 53.8688 79.4538 55.2334L79.5044 55.2082Z" fill="#C47A2F"/>
</g>
<g style="mix-blend-mode:multiply" opacity="0.18">
<path d="M67.9808 31.5542C67.8039 32.8683 67.2732 34.9405 65.7317 37.1896C64.4682 39.0344 62.5476 41.0055 59.6162 42.7745C57.0891 44.2654 61.6126 48.9911 62.1938 49.5471C62.1938 49.5471 62.1433 49.5471 62.118 49.5218C58.5548 47.02 54.8905 43.482 54.8905 43.482C54.8905 43.482 54.4862 43.0019 53.3237 42.6987C52.9447 42.5976 50.7714 42.4712 47.6631 42.0416C47.4609 41.9405 47.284 41.8394 47.0818 41.7384C42.988 39.3124 41.4212 38.1246 39.9302 35.1427C40.8147 35.269 41.7244 35.3954 42.5836 35.4965C46.9302 36.0777 50.6198 36.4062 50.6198 36.4062L66.4141 31.4026C66.4141 31.4026 67.0458 30.9477 68.0819 30.2148C68.0819 30.2148 68.1072 30.7455 67.9556 31.5795L67.9808 31.5542Z" fill="#C47A2F"/>
</g>
<path d="M93.8835 46.8432C93.1254 53.262 88.1723 54.5761 85.6452 55.3342C83.1182 56.1176 81.5514 56.1176 81.5514 56.1176C79.5802 57.1285 79.5044 55.1826 79.5044 55.1826C80.6163 53.5653 81.3745 49.9263 81.1218 47.0959C80.7174 42.4966 78.6705 38.6807 78.6705 38.6807C78.064 38.6302 77.508 38.5544 77.1289 38.4786C76.9268 38.428 76.7499 38.3522 76.5477 38.3017C76.5983 38.1753 77.4069 37.3161 78.0892 37.5183H78.1651C79.1001 37.5183 82.916 33.576 88.8041 36.5327C89.5875 36.937 90.2951 37.4425 90.9016 38.0742C93.2012 40.2981 94.2879 43.8107 93.9341 46.8179L93.8835 46.8432Z" fill="#2D4D57"/>
<path d="M70.2047 20.1322C69.8256 21.8001 69.3202 21.8001 69.3202 21.8001H68.7895H68.4863H68.4105H67.9303L65.9339 21.7495H65.6054L39.5259 21.2441C39.5259 21.2441 38.9952 19.6521 38.4139 17.5546V17.504C38.3634 17.3271 38.3129 17.0997 38.2623 16.9228C38.2623 16.8723 38.2118 16.8723 38.237 16.847C37.9843 15.8614 37.7064 14.7748 37.4789 13.7134C37.4284 13.4354 37.3778 13.1574 37.3778 12.9047C37.2009 11.995 37.0746 11.1358 37.024 10.4029V10.3271C37.024 10.0744 37.024 9.82169 37.024 9.59426C37.024 9.51844 37.024 9.49317 37.024 9.41736C37.0493 8.98776 37.0999 8.6087 37.2009 8.30544C37.5295 7.34515 38.3129 6.03106 39.6522 4.74225C39.7786 4.59063 39.9049 4.439 40.1324 4.31265C40.3598 4.03467 40.6883 3.78196 41.0674 3.52925C41.0927 3.45344 41.1937 3.4029 41.2696 3.35235C41.6233 3.07437 42.0024 2.82167 42.432 2.59423C42.5078 2.51842 42.6342 2.46787 42.7605 2.39206C42.9122 2.29098 43.0385 2.21516 43.1649 2.11408C43.2154 2.11408 43.2659 2.08881 43.3165 2.03827C43.5439 1.93718 43.7966 1.81083 44.0746 1.68448C44.201 1.63394 44.3273 1.55812 44.479 1.50758C46.1974 0.749454 48.2443 0.193495 50.6198 0.0924114C50.8219 0.0418697 50.9988 0.0165989 51.1505 0.0418698C51.757 -0.00867198 52.3635 -0.00867136 52.9952 0.0165995C53.1721 0.0165995 53.349 0.0165995 53.5007 0.0671412C53.7281 0.0671412 54.0061 0.0671412 54.2335 0.0671412C54.7895 0.117683 55.3454 0.168224 55.9014 0.244036C56.0277 0.294578 56.1541 0.269308 56.2552 0.31985C56.7101 0.370391 57.0891 0.446205 57.4935 0.522018C57.6451 0.522018 57.822 0.572559 57.9736 0.59783C58.2516 0.648371 58.5548 0.698913 58.8328 0.799996C59.0602 0.825267 59.2624 0.901078 59.5151 0.95162C62.0675 1.60866 64.1902 2.6195 65.8834 3.88304C66.1614 4.08521 66.4393 4.33792 66.692 4.59063C66.8942 4.76752 67.0964 4.94442 67.2733 5.12131C67.3491 5.19713 67.4249 5.32348 67.5007 5.37402C67.6523 5.52565 67.7787 5.70255 67.8798 5.87944C68.0314 6.03107 68.1577 6.20796 68.2588 6.38486C68.3094 6.46067 68.3599 6.53648 68.4357 6.63757C68.5873 6.81446 68.7137 7.0419 68.8401 7.26934C68.8906 7.37042 68.9411 7.44623 69.017 7.54732C69.118 7.72421 69.2191 7.90111 69.3202 8.10328C69.4718 8.4318 69.6235 8.78559 69.7498 9.13938C69.7498 9.18992 69.7751 9.24047 69.8004 9.26574C69.9267 9.69534 70.0531 10.0997 70.1794 10.5798C70.4069 11.3885 70.5079 12.2982 70.609 13.208C70.609 13.4354 70.609 13.6629 70.609 13.8903C70.6848 17.125 70.508 19.0456 70.23 20.1828L70.2047 20.1322Z" fill="#25002E"/>
<path d="M39.9807 6.23347C39.9807 6.23347 39.9302 6.35982 39.9049 6.41036C39.8291 6.58726 39.728 6.83997 39.6522 7.11795C39.5006 7.47174 39.349 7.92661 39.2479 8.43203C39.1721 8.65947 39.0963 8.88691 39.071 9.11435C39.0457 9.21543 38.9952 9.34178 38.9952 9.44287C38.9446 9.56922 38.9446 9.6703 38.8941 9.79666C38.8688 9.89774 38.8941 9.99883 38.8436 10.0999C38.8436 10.201 38.8183 10.3021 38.793 10.4537C38.6919 10.9591 38.6161 11.5151 38.5403 12.1216C38.4645 12.6523 38.414 13.2335 38.3634 13.84C38.3129 14.5729 38.2623 15.4068 38.2623 16.266C38.2623 16.4682 38.2118 16.6451 38.2371 16.822C38.2371 16.822 38.2371 16.8472 38.2371 16.8978C38.1865 16.9736 38.2371 17.0241 38.2118 17.0999C38.2118 17.201 38.2118 17.3021 38.2118 17.4032C38.2118 17.9339 38.2118 18.4393 38.2118 18.97C38.2118 19.9808 38.2623 20.7642 38.3381 21.4213C38.515 23.6451 38.9446 24.3021 38.9446 26.0711C38.9446 30.6957 38.6414 34.8906 42.1288 38.0242C45.1107 40.7535 51.2516 42.9773 57.9231 41.082C59.5657 40.6271 61.2335 39.9448 62.9267 38.9087C66.1361 36.9881 67.6523 33.6018 68.2083 29.4574C68.2083 29.4069 68.2336 29.2552 68.2588 29.0278C68.3094 28.4466 68.3852 27.3346 68.4357 26.1469C68.4357 25.8437 68.461 25.5404 68.4357 25.2624C68.461 24.9592 68.461 24.6559 68.4357 24.378V24.3274C68.4357 24.2263 68.4357 24.1 68.4357 23.9736C68.4357 23.6704 68.4357 23.4429 68.4357 23.1902C68.4357 23.0639 68.4357 22.9122 68.4357 22.8112C68.4357 22.4068 68.4357 22.0783 68.4357 21.8003C68.4357 21.6487 68.4357 21.4971 68.4357 21.4213C68.4357 21.3202 68.4357 21.2191 68.4357 21.118C68.4357 21.0675 68.4357 21.0169 68.4357 20.9664C68.4357 19.5007 68.4357 17.9339 68.2841 14.7245C68.2588 14.4212 68.2841 14.0927 68.2336 13.7642C68.2336 13.3599 68.2083 12.9302 68.183 12.4501C68.183 12.1216 68.1578 11.7425 68.1325 11.3887C68.1325 11.3887 68.1325 11.3129 68.1325 11.2876C68.1325 11.1613 68.1325 11.0602 68.1325 10.9338C68.1325 10.7064 68.1072 10.479 68.0314 10.2263C68.0567 10.2263 68.0314 10.2263 68.0314 10.1757C67.9809 9.61976 67.8292 9.08908 67.6776 8.60893C67.6271 8.4573 67.5765 8.33095 67.5007 8.17932C67.4755 8.07824 67.3996 7.97716 67.3744 7.87607C67.3744 7.87607 67.3744 7.82553 67.3744 7.80026C67.0206 7.11795 66.6162 6.51145 66.0603 5.98076C66.0603 5.95549 66.035 5.93022 66.0097 5.93022C65.6559 5.55115 65.2263 5.19736 64.7715 4.89411C63.1794 3.78219 61.1577 3.12515 58.9339 2.74609C58.6307 2.67027 58.3021 2.645 57.9736 2.59446C57.5693 2.54392 57.1397 2.49338 56.7101 2.46811C56.609 2.44284 56.4826 2.41757 56.3563 2.44284C55.9014 2.41757 55.4212 2.36702 54.9664 2.36702C53.6017 2.34175 52.2624 2.36702 50.9483 2.46811C50.7967 2.46811 50.6451 2.49338 50.4682 2.51865C50.3418 2.51865 50.2154 2.54392 50.0891 2.56919C49.9375 2.56919 49.8111 2.56919 49.6848 2.59446C48.0422 2.77136 46.5259 3.02407 45.1865 3.35259C45.136 3.37786 45.0855 3.37786 45.0602 3.37786C44.8075 3.45367 44.58 3.50421 44.3779 3.55476H44.2515C43.9735 3.65584 43.7208 3.73165 43.5187 3.80746C42.3057 4.18653 41.3959 4.59086 40.941 4.96992C40.7894 5.07101 40.7136 5.17209 40.6631 5.2479L40.562 5.39953C40.4103 5.6017 40.2335 5.90495 40.0313 6.30928L39.9807 6.23347Z" fill="#F7D8AA"/>
<path d="M40.3852 17.9589C40.6631 17.3271 43.266 15.6592 44.5801 16.3921C45.8942 17.1249 43.8726 17.6303 42.6596 17.9841C41.4465 18.3379 40.1072 18.5906 40.3852 17.9589Z" fill="#610039"/>
<path d="M40.84 25.8939C40.6883 25.717 41.5728 23.9481 43.3165 23.9986C45.0602 24.0492 45.5656 26.0203 45.3382 26.0708C45.1107 26.1214 44.479 24.6557 43.266 24.6304C42.053 24.6051 40.9916 26.0961 40.84 25.8939Z" fill="black"/>
<path d="M60.4249 16.8971C60.0964 16.2906 57.3924 14.7997 56.1289 15.6589C54.8653 16.5181 56.9375 16.8466 58.1505 17.0993C59.3635 17.352 60.7282 17.5289 60.3996 16.8971H60.4249Z" fill="#610039"/>
<path d="M60.5512 24.8578C60.6776 24.6556 59.692 22.9625 57.9483 23.1394C56.2046 23.3163 55.8508 25.338 56.0783 25.338C56.3057 25.338 56.8364 23.8723 58.0241 23.7712C59.2119 23.6701 60.3996 25.06 60.5512 24.8578Z" fill="black"/>
<path d="M48.1686 32.8184C48.1686 32.8184 48.952 33.7029 51.3527 33.3744C53.7534 33.0459 54.6127 32.2878 54.9917 31.9087C54.9917 31.9087 53.0459 32.8184 51.2516 33.0206C49.3058 33.248 48.1686 32.8184 48.1686 32.8184Z" fill="#872400"/>
<path d="M48.6487 29.8868C48.396 29.7857 49.0278 28.3706 50.5693 28.3958C52.1108 28.4211 52.5909 29.533 52.3635 29.6847C52.1361 29.8363 51.9086 28.9771 50.544 28.9518C49.1794 28.9265 48.8761 29.9879 48.6487 29.8868Z" fill="#C47A2F"/>
<path opacity="0.34" d="M49.9879 34.4359C49.9121 34.5622 50.8471 35.1434 51.8074 35.0929C52.3886 35.0929 53.5511 34.2842 53.3742 34.1326C53.1973 33.981 52.5908 34.5117 51.6811 34.5622C50.7713 34.6128 50.0637 34.2842 49.9626 34.4106L49.9879 34.4359Z" fill="#D69049"/>
<path d="M68.4609 20.941C68.4609 20.941 68.4609 21.0421 68.4609 21.1179C68.4609 21.1179 68.4609 21.2948 68.4609 21.4211C68.4609 21.5222 68.4609 21.6486 68.4609 21.8002C68.4609 22.0782 68.4609 22.4067 68.4609 22.811C68.4609 22.9374 68.4609 23.089 68.4609 23.2154C68.4609 23.5692 68.4609 23.9735 68.4609 24.3526V24.4031C68.4609 24.7064 68.4609 24.9843 68.4609 25.2876C68.4609 25.5908 68.4357 25.8941 68.4609 26.1721C68.4609 27.1829 68.3851 28.1685 68.2841 29.0529C68.2841 29.2804 68.2335 29.432 68.2335 29.4825C68.2335 29.4825 72.7064 29.4825 73.035 24.0493C73.035 23.8724 73.035 23.6955 73.035 23.5186C73.035 20.7388 71.544 20.0565 70.2552 20.1071C69.8761 20.1071 69.4971 20.2334 69.1938 20.3345C68.7642 20.5114 68.4862 20.7136 68.5115 20.9157L68.4609 20.941Z" fill="#E3AE78"/>
<path d="M68.461 20.9412C68.461 20.9412 68.461 21.0423 68.461 21.1181C68.461 21.3203 68.4104 21.5225 68.3852 21.8004C68.3346 22.129 68.2841 22.508 68.2588 22.9124C68.183 23.4936 68.1577 24.1254 68.1577 24.7319C68.2083 24.6813 68.3346 24.5297 68.461 24.3781C68.6379 24.1506 68.7895 23.9485 68.84 23.8221C69.118 23.2409 69.4718 21.7246 70.0025 21.4972C71.6956 20.7643 72.5801 22.3311 72.9845 23.5694C72.9845 20.7896 71.4935 20.1073 70.2047 20.1578C69.8256 20.1578 69.4465 20.2842 69.1433 20.3853C68.7137 20.5622 68.4357 20.7643 68.461 20.9665V20.9412Z" fill="#F7D8AA"/>
<path d="M37.9338 22.4315C37.4031 22.4315 35.811 15.5326 36.645 10.1751C37.1251 7.04154 39.4248 4.89352 41.6992 3.75633C47.84 0.648013 55.3454 0.824909 60.0458 2.29062C64.7462 3.75633 69.3202 5.87908 69.1181 12.399C68.9159 18.9188 68.739 22.1788 67.8798 22.8864C67.0206 23.594 66.1361 23.3918 65.5296 21.5218C65.3274 20.89 65.3274 18.7925 65.0242 17.0993C64.4177 13.7889 63.609 12.8033 63.609 12.8033C63.609 12.8033 64.5946 17.8575 63.053 17.4026C61.5115 16.9477 57.0386 7.47115 57.0386 7.47115C57.0386 7.47115 59.2371 13.1571 57.8472 12.4748C55.8256 11.4892 52.9194 7.69858 52.9194 7.69858C52.9194 7.69858 55.4465 13.056 54.3599 12.8033C52.1108 12.2726 48.4717 7.31952 48.4717 7.31952C48.4717 7.31952 43.4934 13.6372 42.6595 13.2329C41.8255 12.8286 42.9374 8.30509 42.9374 8.30509C42.9374 8.30509 40.8905 16.2401 40.006 15.9622C38.7425 15.5831 39.7028 9.44228 39.7028 9.44228C39.7028 9.44228 38.9194 13.5109 38.4392 17.4784C38.2118 19.2979 38.4898 22.4315 37.9591 22.4315H37.9338Z" fill="#25002E"/>
<g style="mix-blend-mode:multiply" opacity="0.18">
<path d="M73.0098 24.0747C72.6813 29.5079 68.2083 29.5584 68.2083 29.5584C67.6524 33.6776 66.1108 37.0639 62.9267 38.9845C61.2336 39.9953 59.5657 40.7029 57.9231 41.1578C58.9339 40.2986 60.0206 39.2877 61.2083 38.1C65.4791 33.8292 66.1361 27.5368 65.9592 22.6342C65.9592 22.331 65.9592 22.0783 65.934 21.8003C65.7571 18.7678 65.3527 16.367 65.4285 15.4826C65.5549 13.7641 65.0242 12.071 64.7715 11.2623C64.6957 11.136 64.6452 11.0349 64.6199 10.9591C64.5946 10.858 64.5693 10.8327 64.5693 10.8327C64.6704 10.8327 64.7715 10.7822 64.8979 10.7316C65.1 10.7316 65.3275 10.6306 65.5044 10.5042C65.5802 10.5042 65.6307 10.4537 65.6307 10.4031C65.8329 10.2768 65.9592 10.1251 66.0856 9.97352C66.0856 9.97352 66.1109 9.92297 66.1109 9.8977C66.5657 9.26593 66.6163 8.53307 66.6163 8.53307C66.7426 8.43199 66.869 8.35618 66.9195 8.2551C66.9953 8.22982 67.0206 8.17928 67.0712 8.15401C67.147 8.05293 67.248 7.95185 67.2986 7.85076C67.3491 7.85076 67.3491 7.80022 67.3491 7.80022C67.526 7.54751 67.6524 7.37062 67.7282 7.09264C67.7282 7.09264 67.7787 6.91574 67.804 6.8652C67.8545 6.53668 67.8798 6.23343 67.804 5.93018C67.9556 6.0818 68.082 6.2587 68.1831 6.43559C68.2336 6.51141 68.2841 6.58722 68.36 6.6883C68.5116 6.8652 68.6379 7.09264 68.7643 7.32007C68.8148 7.42116 68.8654 7.49697 68.9412 7.59805C69.0423 7.77495 69.1434 7.95185 69.2444 8.15401C69.3961 8.48253 69.5477 8.83633 69.6741 9.19012C69.6741 9.24066 69.6993 9.2912 69.7246 9.31647C69.8509 9.74608 69.9773 10.1504 70.1037 10.6306C70.3311 11.4392 70.4322 12.349 70.5333 13.2587C70.5333 13.4862 70.5333 13.7136 70.5333 13.941C70.6091 17.1757 70.4322 19.0963 70.1542 20.2335C71.443 20.1829 72.9593 20.8653 72.9593 23.6451C72.9593 23.8219 72.9593 23.9988 72.9593 24.1757L73.0098 24.0747Z" fill="#C47A2F"/>
</g>
<path d="M128.631 48.3091C128.328 49.5727 122.718 51.6702 120.999 52.1503C120.999 52.1503 109.804 61.8038 102.071 61.9554C97.6236 62.0312 92.7211 60.0096 89.1579 58.089C85.898 56.32 84.9629 54.0962 84.7102 52.403C84.4828 50.7351 85.2915 48.8398 86.833 47.5763C88.8041 45.9842 91.9124 45.4788 95.5514 48.0312C99.1904 50.5835 100.985 54.1467 104.245 54.172C104.245 54.172 110.133 54.8796 117.689 49.4463C117.689 49.4463 117.689 46.06 120.797 47.9048C123.931 49.7496 127.216 46.7171 128.505 47.8795C128.656 48.0059 128.707 48.1828 128.631 48.3091Z" fill="#F7D8AA"/>
<g style="mix-blend-mode:multiply" opacity="0.18">
<path d="M128.631 48.309C128.328 49.5726 122.718 51.6701 120.999 52.1502C120.999 52.1502 109.804 61.8037 102.071 61.9553C97.6236 62.0311 92.7211 60.0094 89.1579 58.0889C85.898 56.3199 84.9629 54.0961 84.7102 52.4029C84.4828 50.735 85.2915 48.8397 86.833 47.5762C86.6055 48.2585 85.4683 52.5545 91.2806 57.3055C94.2373 59.7062 98.2554 61.3993 102.021 61.0961C108.212 60.6412 116.678 55.9914 120.216 51.7711C120.216 51.7711 125.548 50.6087 128.656 48.309H128.631Z" fill="#C47A2F"/>
</g>
<path d="M88.1723 43.7097C85.7716 43.5581 82.0315 49.1935 82.0315 49.1935C82.7896 45.6809 81.4755 41.8397 80.4142 39.4642C79.5802 37.4931 78.1145 37.5437 78.1145 37.5437C79.0495 37.5437 82.8654 33.6014 88.7535 36.5581C89.5369 36.9624 90.2445 37.4678 90.851 38.0996C91.2301 40.2224 90.0929 43.8361 88.1723 43.6845V43.7097Z" fill="#375D69"/>
<g style="mix-blend-mode:overlay" opacity="0.58">
<path d="M59.1107 7.34521C59.1107 7.34521 60.9808 14.9517 62.3959 14.9517C63.8111 14.9517 61.9411 12.273 61.0818 10.8579C60.3237 9.59432 59.1107 7.34521 59.1107 7.34521Z" fill="#E8BDFF"/>
</g>
<g style="mix-blend-mode:overlay" opacity="0.58">
<path d="M53.526 6.81445C53.526 6.81445 55.952 11.5148 57.1397 11.1863C58.3275 10.8578 56.7607 9.97331 55.9773 9.24046C55.1939 8.5076 53.526 6.81445 53.526 6.81445Z" fill="#E8BDFF"/>
</g>
<g style="mix-blend-mode:overlay" opacity="0.58">
<path d="M43.0638 12.3488C42.432 11.8434 43.0638 9.46793 44.4284 7.97695C45.7931 6.48597 46.1721 6.41016 46.1721 6.41016C46.1721 6.41016 45.6162 7.26937 44.7822 8.81089C43.9483 10.3524 43.544 12.7784 43.0638 12.3741V12.3488Z" fill="#E8BDFF"/>
</g>
<g style="mix-blend-mode:overlay" opacity="0.58">
<path d="M40.183 13.8653C40.7642 14.118 40.4862 11.8183 40.7137 10.7064C40.9411 9.59449 42.1541 6.86523 42.1541 6.86523C42.1541 6.86523 41.0675 8.22986 40.4104 9.89774C39.7534 11.5656 39.5259 13.562 40.183 13.8653Z" fill="#E8BDFF"/>
</g>
<path opacity="0.67" d="M127.949 68.1219C109.728 67.4143 93.7572 88.187 49.1288 64.3818C41.0927 60.0858 34.219 62.3601 17.9446 59.1255C-4.7992 54.602 -3.23242 21.9015 7.81095 24.2011C23.9843 27.5621 26.7894 28.4972 36.3923 26.3997C47.2841 23.9989 48.8256 26.8293 62.9267 28.573C63.1289 28.5982 63.3816 28.6235 63.6343 28.6235C64.0134 28.6235 64.443 28.6235 64.8979 28.6235C66.2625 28.573 67.9556 28.3708 69.8509 28.1434C69.952 28.1181 70.0784 28.1181 70.23 28.0928C71.0134 27.9917 71.8221 27.8654 72.656 27.739C72.7824 27.739 72.934 27.7138 73.0603 27.6885C74.3997 27.5116 75.8149 27.2842 77.23 27.1325C77.3311 27.1073 77.4575 27.1073 77.6091 27.082C78.5947 26.9556 79.5802 26.8546 80.5658 26.7282C84.2301 26.3491 87.8185 26.2228 90.851 26.6524C91.6597 26.7535 92.4178 26.8798 93.2265 27.0567C94.3637 27.2842 95.5514 27.5621 96.6886 27.8654C97.851 28.1686 99.0135 28.4466 100.151 28.7246C100.934 28.9015 101.692 29.1037 102.476 29.2553C102.855 29.3311 103.259 29.4069 103.613 29.4827C104.396 29.6091 105.154 29.7607 105.963 29.8618C108.465 30.1903 110.992 30.2156 113.696 29.7354C114.631 29.5585 115.591 29.3058 116.577 28.952C116.905 28.8762 117.234 28.7499 117.588 28.5982C117.613 28.573 117.638 28.573 117.638 28.573C127.494 24.7065 138.562 25.5152 145.209 34.6633C151.855 43.8113 162.115 69.4865 127.949 68.1219Z" fill="#74D2F7"/>
<path d="M40.0313 30.4177C38.8435 29.4321 36.7461 28.2696 34.6991 29.5079C31.9446 31.2011 26.0312 31.8581 19.7893 29.053C20.7243 29.3563 27.0168 31.2769 34.6233 28.4465C38.0854 27.1325 38.6161 28.8003 40.0565 30.4177H40.0313Z" fill="#D6F3FF"/>
<path d="M48.775 46.7931C48.775 46.7931 56.8364 48.183 61.2083 46.692C65.5801 45.201 67.9051 46.5151 71.5441 48.6631C71.5441 48.6631 64.5693 47.0711 61.3599 47.7534C56.887 48.6884 55.3707 48.8653 48.775 46.7931Z" fill="#D6F3FF"/>
<path d="M117.588 28.5981C113.898 29.988 113.57 31.479 110.866 31.7822C107.959 32.136 105.154 30.6198 101.162 31.7822C97.1687 32.97 96.9918 32.2876 93.7824 30.9736C90.5478 29.6342 86.0243 27.9663 78.5441 30.1396C71.0639 32.3635 63.6595 28.6234 63.6595 28.6234C69.1939 28.8508 82.3095 25.414 90.851 26.6522C98.3817 27.7136 105.255 30.6703 113.165 29.3815C114.606 29.1541 116.956 27.9158 117.588 28.5981Z" fill="#D6F3FF"/>
<path d="M112.18 45.9843C112.18 45.9843 120.469 42.977 123.173 44.8471C125.876 46.7171 130.552 47.3236 132.826 46.0601C135.1 44.7965 137.526 44.9229 139.396 45.7821C139.396 45.7821 135.757 45.302 134.292 46.7424C132.826 48.1828 128.555 49.7496 122.945 46.2875C119.584 44.2153 112.18 46.0095 112.18 46.0095V45.9843Z" fill="#D6F3FF"/>
<path d="M10.9193 43.6848C10.9193 43.6848 16.8327 41.5368 18.7533 42.8762C20.6739 44.2155 24.0096 44.6451 25.627 43.7354C27.2443 42.8256 28.988 42.9267 30.3273 43.5332C30.3273 43.5332 27.7497 43.2047 26.6883 44.2155C25.627 45.2264 22.5945 46.3636 18.6017 43.887C16.2009 42.396 10.9193 43.6848 10.9193 43.6848Z" fill="#D6F3FF"/>
<path d="M74.2733 64.6844C74.2733 64.6844 80.1867 62.5363 82.1073 63.8757C84.0279 65.215 87.3636 65.6447 88.981 64.7349C90.5983 63.8251 92.342 63.9262 93.6813 64.5327C93.6813 64.5327 91.1037 64.2042 90.0423 65.215C88.981 66.2259 85.9485 67.3631 81.9557 64.8865C79.5549 63.3955 74.2733 64.6844 74.2733 64.6844Z" fill="#D6F3FF"/>
<path d="M111.371 24.0496C111.042 23.7211 117.537 19.6525 117.84 22.7355C118.017 24.4034 115.515 23.5695 113.923 23.5947C112.483 23.62 111.523 24.2012 111.346 24.0496H111.371Z" fill="#BDECFF"/>
<path d="M112.963 18.3382C112.306 17.9844 121.328 11.3634 122.92 15.2551C123.754 17.3273 119.458 16.8219 116.931 17.201C114.631 17.5548 113.266 18.4898 112.963 18.3382Z" fill="#BDECFF"/>
<path d="M108.743 16.9482C108.591 16.8218 110.208 10.1503 111.977 12.0962C112.811 13.0059 111.093 13.7893 110.259 14.6485C109.425 15.5077 108.92 17.0745 108.768 16.9735L108.743 16.9482Z" fill="#BDECFF"/>
</svg>
