<svg width="37" height="80" viewBox="0 0 37 80" fill="none" xmlns="http://www.w3.org/2000/svg">
<path d="M36.1665 51.6872C36.1665 52.179 36.1665 52.6644 36.1665 53.1431C36.1665 53.7334 36.1665 54.304 36.1599 54.8483C36.1534 55.3533 36.1468 55.8321 36.1403 56.2978C36.1271 56.9011 36.114 57.4783 36.0944 58.0095C36.0812 58.5342 36.0616 59.0195 36.0353 59.4589C36.0025 60.1279 35.9632 60.6985 35.9238 61.1707C35.8976 61.4396 35.8648 61.6757 35.8386 61.8724C35.832 61.9315 35.8189 61.997 35.8058 62.0692C35.773 62.2332 35.7271 62.4168 35.6681 62.6201C35.5303 63.0923 35.3139 63.676 35.0319 64.3319C34.8417 64.7778 34.6121 65.2632 34.3564 65.7813C34.0875 66.3256 33.7858 66.8962 33.4513 67.493C33.189 67.9652 32.9069 68.4506 32.5987 68.9425C32.2577 69.5065 31.8904 70.0771 31.4969 70.6542C31.169 71.1395 30.8279 71.6249 30.4672 72.1036C30.0409 72.6808 29.5884 73.2514 29.1162 73.8154C28.7095 74.3073 28.2767 74.7926 27.8373 75.2648C27.2732 75.8616 26.6895 76.4388 26.0862 76.9766C25.7779 77.2586 25.4631 77.5275 25.1417 77.7767C24.8597 78.0062 24.5777 78.2227 24.2891 78.426C23.5021 78.9966 22.6889 79.495 21.856 79.8951C21.7838 79.9344 21.7182 79.9672 21.6461 80H15.2844C15.2844 80 14.2416 79.5671 12.6544 78.426C12.1101 78.0325 11.5002 77.5537 10.8443 76.9766C10.2803 76.4847 9.67691 75.9141 9.05385 75.2648C8.62755 74.8254 8.1947 74.3401 7.75528 73.8154C7.30931 73.2907 6.85677 72.7201 6.40424 72.1036C6.0632 71.6445 5.72216 71.1658 5.38768 70.6542C5.02696 70.1164 4.66625 69.5458 4.31209 68.9425C4.03664 68.4768 3.76774 67.998 3.49884 67.493C3.19716 66.9421 2.90858 66.3715 2.62657 65.7813C2.39702 65.3091 2.17404 64.8303 1.95761 64.3319C1.71495 63.7809 1.47884 63.2104 1.24274 62.6201C1.16404 62.4168 1.08533 62.2135 1.00663 62.0036C0.954165 61.8593 0.901698 61.5773 0.862347 61.1707C0.809879 60.7378 0.770529 60.1607 0.737736 59.4589C0.711503 59.0195 0.691827 58.5342 0.67871 58.0095C0.659035 57.4783 0.645918 56.9077 0.63936 56.2978C0.626243 55.8387 0.619684 55.3533 0.619684 54.8483C0.613126 54.304 0.606567 53.7334 0.606567 53.1431V51.6872C0.606567 51.1297 0.613126 50.5657 0.619684 49.982C0.619684 49.5032 0.626243 49.0179 0.632801 48.526C0.63936 47.9685 0.652477 47.3979 0.659035 46.8208C0.665593 46.342 0.67871 45.8567 0.691827 45.3648C0.698386 44.8008 0.711503 44.2368 0.731178 43.6596C0.744295 43.1808 0.757412 42.6955 0.770529 42.2102C0.790204 41.6396 0.803321 41.069 0.822996 40.4984C0.842672 40.0131 0.862347 39.5344 0.875464 39.049C0.901698 38.4784 0.921373 37.9079 0.947607 37.3373C0.967282 36.8519 0.993516 36.3732 1.01319 35.8879C1.03943 35.3173 1.07222 34.7401 1.09845 34.1761C1.12469 33.6908 1.15092 33.2054 1.18371 32.7267C1.2165 32.1495 1.2493 31.5789 1.28865 31.0149C1.31488 30.523 1.34767 30.0443 1.38702 29.5655C1.42637 28.9884 1.46572 28.4178 1.51163 27.8537C1.55098 27.3619 1.59034 26.8831 1.63624 26.4043C1.68215 25.8206 1.73462 25.25 1.79365 24.6926C1.83956 24.2007 1.88547 23.7154 1.93793 23.2432C2.00352 22.6529 2.0691 22.0823 2.14125 21.5314C2.20683 21.0264 2.27241 20.5476 2.338 20.082C2.42326 19.4786 2.51508 18.908 2.6069 18.3768C2.70527 17.8587 2.79709 17.3733 2.90203 16.9208C3.00696 16.4289 3.11845 15.9829 3.23651 15.5894C3.2693 15.4714 3.30209 15.3468 3.33488 15.2156C3.4267 14.809 3.5054 14.3171 3.57755 13.7596C3.63657 13.2415 3.68904 12.6644 3.73495 12.0544C3.76774 11.5888 3.79398 11.0969 3.81365 10.5985C3.83333 10.041 3.853 9.47041 3.85956 8.89326C3.87268 8.40794 3.87268 7.91605 3.87268 7.43728C3.87268 6.86014 3.87268 6.283 3.853 5.73209C3.84644 5.23364 3.82677 4.74176 3.81365 4.28267C3.78086 3.65962 3.74807 3.08247 3.70871 2.57091C3.66936 1.98065 3.6169 1.48221 3.55787 1.1215C3.51852 0.885391 3.47917 0.701754 3.43326 0.590261L4.39079 0.419741H4.39735L5.68937 0.183637L6.69937 0C6.69937 0 6.71249 0.413182 6.77151 1.1215C6.8043 1.52156 6.85677 2.00689 6.92891 2.57091C6.98794 3.08903 7.0732 3.66617 7.18469 4.28267C7.2634 4.74832 7.36177 5.23364 7.47327 5.73209C7.59788 6.283 7.7356 6.85358 7.89957 7.43728C8.03729 7.91605 8.18814 8.40138 8.35866 8.89326C8.55541 9.46385 8.7784 10.0344 9.02762 10.5985C9.24405 11.0903 9.48015 11.5822 9.74249 12.0544C10.0704 12.6447 10.4377 13.2218 10.8378 13.7596C11.2313 14.2778 11.6576 14.7696 12.1298 15.2156C12.8578 15.9108 13.6907 16.4945 14.6351 16.9208C15.6057 17.3668 16.6945 17.6422 17.9209 17.7078C19.6589 17.7996 21.1608 17.498 22.4528 16.9208C23.4103 16.4945 24.2563 15.9108 25.004 15.2156C25.4828 14.7762 25.9222 14.2843 26.3223 13.7596C26.7289 13.2218 27.0962 12.6513 27.4306 12.0544C27.6995 11.5822 27.9422 11.0969 28.1586 10.5985C28.4144 10.0344 28.6374 9.46385 28.8341 8.89326C29.0047 8.40794 29.1621 7.91605 29.2998 7.43728C29.4638 6.85358 29.6015 6.283 29.7261 5.73209C29.8376 5.22709 29.9294 4.74176 30.0081 4.28267C30.1196 3.65962 30.2049 3.08903 30.2639 2.57091C30.336 2.00689 30.3819 1.52156 30.4147 1.1215C30.4738 0.419741 30.4803 0 30.4803 0L31.5493 0.20987L32.5593 0.413182L33.6612 0.629611C33.6612 0.629611 33.6546 0.80669 33.6415 1.1215C33.6349 1.45598 33.6218 1.95442 33.6021 2.57091C33.5956 3.06936 33.5825 3.6465 33.5759 4.28267C33.5759 4.74176 33.5693 5.22709 33.5693 5.73209C33.5693 6.27644 33.5693 6.84702 33.5759 7.43728C33.5825 7.91605 33.589 8.40138 33.6087 8.89326C33.6153 9.46385 33.6349 10.0344 33.6612 10.5985C33.6808 11.0969 33.7071 11.5822 33.7399 12.0544C33.7792 12.6447 33.8251 13.2153 33.8776 13.7596C33.9301 14.2778 33.9891 14.7631 34.0612 15.2156C34.0744 15.2943 34.0875 15.373 34.1006 15.4517C34.1793 15.9174 34.258 16.4027 34.3301 16.9208C34.3957 17.3865 34.4613 17.8718 34.5269 18.3768C34.5925 18.9211 34.6581 19.4917 34.7236 20.082C34.7761 20.5542 34.8286 21.0395 34.8679 21.5314C34.9269 22.0889 34.9794 22.6595 35.0319 23.2432C35.0712 23.7154 35.1171 24.2007 35.1499 24.6926C35.1958 25.25 35.2418 25.8272 35.2811 26.4043C35.3205 26.8831 35.3532 27.3619 35.386 27.8537C35.4254 28.4178 35.4582 28.9884 35.491 29.5655C35.5238 30.0443 35.55 30.5296 35.5762 31.0149C35.609 31.5789 35.6418 32.1495 35.6681 32.7267C35.6943 33.2054 35.714 33.6908 35.7336 34.1761C35.7664 34.7467 35.7927 35.3173 35.8123 35.8879C35.832 36.3666 35.8517 36.8519 35.8714 37.3373C35.8976 37.9079 35.9173 38.4784 35.937 39.049C35.9501 39.5344 35.9697 40.0131 35.9829 40.4984C36.0025 41.069 36.0157 41.6462 36.0288 42.2102C36.0419 42.6955 36.055 43.1808 36.0681 43.6596C36.0812 44.2302 36.0944 44.8008 36.1009 45.3648C36.114 45.8567 36.1206 46.342 36.1337 46.8208C36.1403 47.3979 36.1468 47.9685 36.1468 48.526C36.1599 49.0179 36.1599 49.5032 36.1665 49.982C36.1665 50.5591 36.1665 51.1297 36.1665 51.6872Z" fill="#314673"/>
<path d="M6.92231 2.571H3.70211C3.66276 1.98074 3.6103 1.4823 3.55127 1.12158H6.76491C6.7977 1.52165 6.85017 2.00697 6.92231 2.571Z" fill="white"/>
<path d="M33.6349 1.12158C33.6284 1.45606 33.6153 1.95451 33.5956 2.571H30.2573C30.3295 2.00697 30.3754 1.52165 30.4082 1.12158H33.6349Z" fill="white"/>
<path d="M8.352 8.89299H3.85291C3.86602 8.40766 3.86602 7.91578 3.86602 7.43701H7.89291C8.03064 7.91578 8.18148 8.4011 8.352 8.89299Z" fill="white"/>
<path d="M33.6022 8.89299H28.8276C28.9982 8.40766 29.1556 7.91578 29.2933 7.43701H33.5694C33.576 7.91578 33.5825 8.4011 33.6022 8.89299Z" fill="white"/>
<path d="M12.1233 15.2157H3.32837C3.42019 14.8091 3.49889 14.3172 3.57103 13.7598H10.8312C11.2247 14.2779 11.651 14.7698 12.1233 15.2157Z" fill="white"/>
<path d="M34.0545 15.2157H24.9973C25.4761 14.7763 25.9155 14.2844 26.3156 13.7598H33.8709C33.9234 14.2779 33.9824 14.7632 34.0545 15.2157Z" fill="white"/>
<path d="M34.8613 21.5314H2.13464C2.20023 21.0264 2.26581 20.5477 2.3314 20.082H34.717C34.7695 20.5542 34.822 21.0396 34.8613 21.5314Z" fill="white"/>
<path d="M35.3795 27.8537H1.50513C1.54448 27.3618 1.58383 26.8831 1.62974 26.4043H35.2746C35.3139 26.8831 35.3467 27.3618 35.3795 27.8537Z" fill="white"/>
<path d="M35.7271 34.176H1.09192C1.11815 33.6907 1.14439 33.2053 1.17718 32.7266H35.6615C35.6878 33.2053 35.7074 33.6907 35.7271 34.176Z" fill="white"/>
<path d="M35.9763 40.4987H0.816406C0.836082 40.0134 0.855757 39.5346 0.868874 39.0493H35.9304C35.9435 39.5346 35.9632 40.0134 35.9763 40.4987Z" fill="white"/>
<path d="M36.1271 46.8207H0.652466C0.659024 46.342 0.672141 45.8566 0.685258 45.3647H36.0943C36.1075 45.8566 36.114 46.342 36.1271 46.8207Z" fill="white"/>
<path d="M36.1665 51.687C36.1665 52.1789 36.1665 52.6642 36.1665 53.143H0.599976V51.687H36.1665Z" fill="white"/>
<path d="M36.0878 58.0098C36.0746 58.5344 36.055 59.0198 36.0287 59.4592H0.731145C0.704911 59.0198 0.685236 58.5344 0.672119 58.0098H36.0878Z" fill="white"/>
<path d="M35.0253 64.3315C34.8351 64.7775 34.6056 65.2628 34.3498 65.781H2.62001C2.39047 65.3088 2.16748 64.83 1.95105 64.3315H35.0253Z" fill="white"/>
<path d="M31.4903 70.6543C31.1624 71.1396 30.8213 71.6249 30.4606 72.1037H6.39766C6.05662 71.6446 5.71558 71.1659 5.3811 70.6543H31.4903Z" fill="white"/>
<path d="M26.0795 76.9766C25.4958 77.5012 24.899 77.9866 24.2825 78.426H12.6478C12.1034 78.0325 11.4935 77.5537 10.8376 76.9766H26.0795Z" fill="white"/>
<g style="mix-blend-mode:multiply" opacity="0.23">
<path d="M30.5787 23.2432C27.1092 32.8906 22.7151 67.7423 25.1351 77.7767C24.8531 78.0062 24.5711 78.2227 24.2825 78.426C23.4955 78.9966 22.6823 79.495 21.8494 79.8951C21.7772 79.9344 21.7116 79.9672 21.6395 80H15.2778C15.2778 80 14.235 79.5671 12.6479 78.426C12.1035 78.0325 11.4936 77.5537 10.8377 76.9766C10.2737 76.4847 9.67032 75.9141 9.04726 75.2648C8.62096 74.8254 8.1881 74.3401 7.74869 73.8154C7.30271 73.2907 6.85018 72.7201 6.39765 72.1036C6.05661 71.6445 5.71557 71.1658 5.38109 70.6542C5.02037 70.1164 4.65966 69.5458 4.3055 68.9425C4.03005 68.4768 3.76115 67.998 3.49225 67.493C3.19056 66.9421 2.90199 66.3715 2.61998 65.7813C2.39043 65.3091 2.16745 64.8303 1.95102 64.3319C1.70835 63.7809 1.47225 63.2104 1.23615 62.6201C1.15744 62.4168 1.07874 62.2135 1.00004 62.0036C0.947574 61.8593 0.895106 61.5773 0.855755 61.1707C0.803288 60.7378 0.763937 60.1607 0.731145 59.4589C0.704911 59.0195 0.685235 58.5342 0.672119 58.0095C0.652443 57.4783 0.639326 56.9077 0.632768 56.2978C0.619651 55.8387 0.613092 55.3533 0.613092 54.8483C0.606534 54.304 0.599976 53.7334 0.599976 53.1431V51.6872C0.599976 51.1297 0.606534 50.5657 0.613092 49.982C0.613092 49.5032 0.619651 49.0179 0.626209 48.526C0.632768 47.9685 0.645885 47.3979 0.652443 46.8208C0.659002 46.342 0.672119 45.8567 0.685235 45.3648C0.691794 44.8008 0.704911 44.2368 0.724586 43.6596C0.737703 43.1808 0.75082 42.6955 0.763937 42.2102C0.783612 41.6396 0.796729 41.069 0.816405 40.4984C0.83608 40.0131 0.855755 39.5344 0.868872 39.049C0.895106 38.4784 0.914781 37.9079 0.941015 37.3373C0.96069 36.8519 0.986924 36.3732 1.0066 35.8879C1.03283 35.3173 1.06563 34.7401 1.09186 34.1761C1.11809 33.6908 1.14433 33.2054 1.17712 32.7267C1.20991 32.1495 1.2427 31.5789 1.28205 31.0149C1.30829 30.523 1.34108 30.0443 1.38043 29.5655C1.41978 28.9884 1.45913 28.4178 1.50504 27.8537C1.54439 27.3619 1.58374 26.8831 1.62965 26.4043C1.67556 25.8206 1.72803 25.25 1.78706 24.6926C1.83296 24.2007 1.87887 23.7154 1.93134 23.2432C1.99693 22.6529 2.06251 22.0823 2.13465 21.5314C2.20024 21.0264 2.26582 20.5476 2.33141 20.082C2.41667 19.4786 2.50849 18.908 2.6003 18.3768C2.69868 17.8587 2.7905 17.3733 2.89543 16.9208C3.00037 16.4289 3.11186 15.9829 3.22992 15.5894C3.26271 15.4714 3.2955 15.3468 3.32829 15.2156C3.42011 14.809 3.49881 14.3171 3.57095 13.7596C3.62998 13.2415 3.68245 12.6644 3.72836 12.0544C3.76115 11.5888 3.78738 11.0969 3.80706 10.5985C3.82673 10.041 3.84641 9.47041 3.85297 8.89326C3.86608 8.40794 3.86608 7.91605 3.86608 7.43728C3.86608 6.86014 3.86608 6.283 3.84641 5.73209C3.83985 5.23364 3.82018 4.74176 3.80706 4.28267C3.77427 3.65962 3.74147 3.08247 3.70212 2.57091C3.66277 1.98065 3.61031 1.48221 3.55128 1.1215C3.51193 0.885391 3.47258 0.701754 3.42667 0.590261L4.3842 0.419741H4.39076L5.68278 0.183637L6.69278 0C6.69278 0 6.70589 0.413182 6.76492 1.1215C6.79771 1.52156 6.85018 2.00689 6.92232 2.57091C6.98135 3.08903 7.06661 3.66617 7.1781 4.28267C7.2568 4.74832 7.35518 5.23364 7.46668 5.73209C7.59129 6.283 7.72901 6.85358 7.89297 7.43728C8.0307 7.91605 8.18155 8.40138 8.35207 8.89326C8.54882 9.46385 8.77181 10.0344 9.02103 10.5985C9.23746 11.0903 9.47356 11.5822 9.7359 12.0544C10.0638 12.6447 10.4311 13.2218 10.8312 13.7596C11.2247 14.2778 11.651 14.7696 12.1232 15.2156C12.8512 15.9108 13.6841 16.4945 14.6285 16.9208C15.5992 17.3668 16.6879 17.6422 17.9143 17.7078C19.6523 17.7996 21.1542 17.498 22.4462 16.9208C23.4037 16.4945 24.2498 15.9108 24.9974 15.2156C25.4762 14.7762 25.9156 14.2843 26.3157 13.7596C26.7223 13.2218 27.0896 12.6513 27.424 12.0544C27.6929 11.5822 27.9356 11.0969 28.152 10.5985C28.4078 10.0344 28.6308 9.46385 28.8276 8.89326C28.9981 8.40794 29.1555 7.91605 29.2932 7.43728C29.4572 6.85358 29.5949 6.283 29.7195 5.73209C29.831 5.22709 29.9228 4.74176 30.0015 4.28267C30.113 3.65962 30.1983 3.08903 30.2573 2.57091C30.3294 2.00689 30.3753 1.52156 30.4081 1.1215C30.4672 0.419741 30.4737 0 30.4737 0L31.5428 0.20987L32.5528 0.413182C32.9069 7.05689 32.9004 16.7896 30.5787 23.2432Z" fill="#4A84FF"/>
</g>
<g style="mix-blend-mode:multiply" opacity="0.31">
<path d="M21.8494 79.8952C21.7772 79.9346 21.7116 79.9674 21.6395 80.0002H15.2778C15.2778 80.0002 14.235 79.5673 12.6479 78.4262C12.1035 78.0326 11.4936 77.5539 10.8377 76.9767C10.2737 76.4849 9.67032 75.9143 9.04726 75.265C8.62096 74.8256 8.1881 74.3402 7.74869 73.8156C7.30271 73.2909 6.85018 72.7203 6.39765 72.1038C6.05661 71.6447 5.71557 71.1659 5.38109 70.6544C5.02037 70.1166 4.65966 69.546 4.3055 68.9426C4.03005 68.477 3.76115 67.9982 3.49225 67.4932C3.19056 66.9423 2.90199 66.3717 2.61998 65.7815C2.39043 65.3093 2.16745 64.8305 1.95102 64.332C1.70835 63.7811 1.47225 63.2105 1.23615 62.6203C1.15744 62.417 1.07874 62.2137 1.00004 62.0038C0.947574 61.8595 0.895106 61.5775 0.855755 61.1709C0.803288 60.738 0.763937 60.1609 0.731145 59.4591C0.704911 59.0197 0.685235 58.5344 0.672119 58.0097C0.652443 57.4785 0.639326 56.9079 0.632768 56.2979C0.619651 55.8388 0.613092 55.3535 0.613092 54.8485C0.606534 54.3042 0.599976 53.7336 0.599976 53.1433V51.6873C0.599976 51.1299 0.606534 50.5658 0.613092 49.9821C0.613092 49.5034 0.619651 49.0181 0.626209 48.5262C0.632768 47.9687 0.645885 47.3981 0.652443 46.821C0.659002 46.3422 0.672119 45.8569 0.685235 45.365C0.691794 44.801 0.704911 44.2369 0.724586 43.6598C0.737703 43.181 0.75082 42.6957 0.763937 42.2104C0.783612 41.6398 0.796729 41.0692 0.816405 40.4986C0.83608 40.0133 0.855755 39.5345 0.868872 39.0492C0.895106 38.4786 0.914781 37.908 0.941015 37.3375C0.96069 36.8521 0.986924 36.3734 1.0066 35.888C1.03283 35.3174 1.06563 34.7403 1.09186 34.1763C1.11809 33.691 1.14433 33.2056 1.17712 32.7269C1.20991 32.1497 1.2427 31.5791 1.28205 31.0151C1.30829 30.5232 1.34108 30.0445 1.38043 29.5657C1.41978 28.9885 1.45913 28.418 1.50504 27.8539C1.54439 27.362 1.58374 26.8833 1.62965 26.4045C1.67556 25.8208 1.72803 25.2502 1.78706 24.6928C1.83296 24.2009 1.87887 23.7155 1.93134 23.2433C1.99693 22.6531 2.06251 22.0825 2.13465 21.5316C2.20024 21.0266 2.26582 20.5478 2.33141 20.0822C2.41667 19.4788 2.50849 18.9082 2.6003 18.377C2.69868 17.8588 2.7905 17.3735 2.89543 16.921C3.00037 16.4291 3.11186 15.9831 3.22992 15.5896C3.26271 15.4716 3.2955 15.347 3.32829 15.2158C3.42011 14.8092 3.49881 14.3173 3.57095 13.7598C3.62998 13.2417 3.68245 12.6646 3.72836 12.0546C3.76115 11.589 3.78738 11.0971 3.80706 10.5986C3.82673 10.0412 3.84641 9.47059 3.85297 8.89344C3.86608 8.40812 3.86608 7.91623 3.86608 7.43747C3.86608 6.86032 3.86608 6.28318 3.84641 5.73227C3.83985 5.23383 3.82018 4.74194 3.80706 4.28285C3.77427 3.6598 3.74147 3.08265 3.70212 2.57109C3.66277 1.98083 3.61031 1.48239 3.55128 1.12168C3.51193 0.885572 3.47258 0.701935 3.42667 0.590442L4.3842 0.419922H4.39076C4.39076 0.419922 7.36174 17.872 6.73213 23.2433C6.10252 28.6147 4.70557 34.5108 5.38109 41.0102C6.68622 53.5696 11.4608 66.3389 14.4252 71.0348C16.091 73.6713 20.6885 77.3571 21.8494 79.8952Z" fill="#20396E"/>
</g>
<path d="M15.2779 79.9998C15.2779 79.9998 6.44364 76.3599 1.00012 62.0034C2.15441 62.5674 7.24377 65.1646 9.89338 68.5619C15.2779 75.481 15.2779 79.9998 15.2779 79.9998Z" fill="#22294F"/>
<path d="M35.7991 62.0693C35.1892 65.1846 29.2538 76.4389 21.6394 80.0001C21.6394 80.0001 21.6394 75.4814 27.0239 68.5622C29.5882 65.2633 34.4612 62.7252 35.7991 62.0693Z" fill="#22294F"/>
<path d="M31.5428 0.20987V0.262338C31.5428 6.82735 28.7489 18.8424 18.6161 18.8424C8.48332 18.8424 5.69598 6.76176 5.68286 0.183637L6.69286 0C6.69286 0 7.15195 17.1569 17.9144 17.7078C30.0934 18.3374 30.4738 0 30.4738 0L31.5428 0.20987Z" fill="#3EA8FF"/>
</svg>
