<svg width="62" height="60" viewBox="0 0 62 60" fill="none" xmlns="http://www.w3.org/2000/svg">
<path d="M61.5365 32.4405C61.5365 47.6608 47.7688 59.9997 30.7643 59.9997C19.9885 59.9997 10.4995 55.0341 5.00502 47.5108C4.27084 46.5082 3.59983 45.4425 3.02354 44.3531C1.08942 40.7453 0 36.7113 0 32.4405C0 28.1696 1.04995 24.2777 2.92091 20.7174C2.94459 20.6858 2.95249 20.6463 2.97618 20.6226C3.05512 20.4568 3.14985 20.2911 3.24458 20.1411C4.95766 17.0544 7.29438 14.3071 10.1127 12.0257C15.5756 7.58114 22.8147 4.88916 30.7722 4.88916C33.03 4.88916 35.2167 5.10231 37.3324 5.51281C41.4217 6.30225 45.2031 7.84165 48.5108 9.93366C50.366 11.102 52.0791 12.4599 53.6027 13.9835C58.5446 18.8543 61.5444 25.3277 61.5444 32.4405H61.5365Z" fill="#DE2A2A"/>
<path d="M61.5365 32.4403C61.5365 47.6607 47.7687 59.9995 30.7643 59.9995C19.9885 59.9995 10.4995 55.034 5.005 47.5107C6.90754 48.3633 19.5859 58.9733 33.2747 57.5681C42.8427 56.5971 64.3943 46.5081 57.9604 22.6987C57.3841 20.5593 54.4868 15.2385 53.6027 13.9912C58.5445 18.862 61.5444 25.3354 61.5444 32.4482L61.5365 32.4403Z" fill="#D12828"/>
<path d="M37.3245 48.6401C24.8278 53.2267 11.8021 49.8006 3.02354 44.3535C1.08942 40.7457 0 36.7117 0 32.4409C0 28.17 1.04995 24.2781 2.92091 20.7177C2.94459 20.6862 2.95249 20.6467 2.97618 20.623C3.05512 20.4572 3.14985 20.2914 3.24458 20.1415C4.95766 17.0548 7.29438 14.3075 10.1127 12.0261C12.2284 11.3787 14.4625 11.4498 15.6308 13.7549C18.2754 18.9573 24.5988 29.3936 42.069 22.0914C54.2185 17.0153 57.6288 41.1957 37.3324 48.6401H37.3245Z" fill="#E62B2B"/>
<g style="mix-blend-mode:multiply" opacity="0.21">
<path d="M13.7915 9.45277C13.7915 9.45277 21.6069 8.96332 22.2464 10.9132C22.2464 10.9132 15.0625 15.8156 14.5257 19.4707C14.5257 19.4707 21.5753 14.4262 23.691 14.3157C23.691 14.3157 23.241 16.8656 24.0147 17.9787C24.7883 19.0918 26.7067 16.5814 26.7067 16.5814C26.7067 16.5814 28.2619 14.7025 29.4697 14.4341C30.6775 14.1657 35.2799 15.4999 37.1193 16.6919C38.9587 17.8839 35.5326 12.0421 32.7301 11.6711C32.7301 11.6711 36.5509 8.92385 37.6404 9.19226C38.7298 9.46067 31.0249 10.4317 26.754 5.86084C26.754 5.86084 24.5515 8.88438 21.8832 7.83443C19.2149 6.78448 13.7915 9.45277 13.7915 9.45277Z" fill="#491591"/>
</g>
<path d="M32.3274 8.86792L21.1806 12.0967C21.1806 12.0967 21.1806 9.38105 15.1572 10.7705C9.50485 12.0809 5.73925 15.9807 3.24463 20.1411C8.26544 11.0862 18.7097 4.88916 30.7644 4.88916C33.0221 4.88916 35.2089 5.10231 37.3246 5.51281C31.238 7.39167 32.3274 8.86792 32.3274 8.86792Z" fill="#D12828"/>
<path d="M38.9666 18.4599C38.9666 18.4599 36.1641 15.389 33.851 14.5364C31.538 13.6838 29.2407 13.518 29.2407 13.518C29.2407 13.518 27.7487 13.7627 27.1014 16.8178C27.0777 16.8731 27.0698 16.9363 27.054 16.9915C26.8803 17.9467 26.6909 18.7993 26.5251 19.5414C26.0988 21.4992 25.783 22.6834 25.783 22.6834C25.3804 21.665 24.8515 20.6387 24.4725 19.6598C24.1883 18.9493 23.9989 18.2546 24.0147 17.6073C24.0226 17.0626 24.0857 16.5573 24.1883 16.0837C24.5436 14.3943 25.3251 13.2338 25.3251 13.2338C23.5173 13.2338 21.8121 13.8022 20.328 14.5916C19.4202 15.0732 18.6149 15.6337 17.8965 16.21C17.8965 16.21 17.8886 16.2179 17.8729 16.2179C15.8203 17.8046 14.5414 19.4546 14.5414 19.4546C14.6599 17.8362 15.0625 16.5021 15.6388 15.4048C16.3335 14.0785 17.2966 13.0996 18.307 12.3891C20.8332 10.5813 23.7068 10.4155 23.7068 10.4155C20.1622 7.62881 10.2153 10.1234 10.2153 10.1234C10.2153 10.1234 10.2232 10.1155 10.2469 10.0997C14.5493 6.38939 19.2623 6.57886 22.2542 7.26567C23.991 7.66828 25.1357 8.23667 25.2778 8.29193C24.3778 6.48413 21.5674 4.87368 21.5674 4.87368C27.204 4.17897 29.0118 8.25246 29.0118 8.25246C31.838 6.82358 34.151 6.58675 35.9588 6.89463C36.2983 6.94989 36.622 7.02094 36.9141 7.11568C37.0404 7.14725 37.1746 7.18672 37.3009 7.23409C37.4272 7.26567 37.5456 7.31303 37.664 7.3604C37.9008 7.45513 38.1219 7.55776 38.335 7.66828C38.6982 7.85774 39.0297 8.0551 39.3139 8.26036C39.4876 8.37877 39.6534 8.50508 39.7955 8.6235C40.2297 8.97874 40.5376 9.29452 40.7033 9.49977C40.7744 9.57871 40.8218 9.64187 40.8454 9.67345L40.8691 9.69713C35.0905 8.64718 32.4222 10.8102 32.4222 10.8102C33.7326 11.126 34.7826 11.497 35.6746 11.8997H35.6825C41.2875 14.4732 38.9587 18.4441 38.9587 18.4441L38.9666 18.4599Z" fill="#2D9647"/>
<path d="M12.2046 14.4571C13.4046 13.9045 15.8281 13.8177 14.9519 15.3334C14.0756 16.8491 7.04172 25.7303 8.70743 34.3667C10.3731 43.011 5.5339 43.6268 3.51294 36.9876C1.49198 30.3564 0.513087 19.8648 12.2125 14.4571H12.2046Z" fill="#FA2F2F"/>
<path d="M22.4989 8.54425C22.4989 8.54425 24.7251 9.48368 25.7435 10.2415C25.7435 10.2415 22.3884 10.4705 21.1805 12.0888C21.1805 12.0888 26.1224 11.181 26.5013 11.5599C26.5013 11.5599 25.7119 13.1467 25.783 15.3334C25.783 15.3334 27.3697 11.7099 28.4197 11.7494C28.4197 11.7494 32.1537 11.3704 33.6615 12.5783C33.6615 12.5783 31.8537 10.3521 29.6986 10.3521C29.6986 10.3521 32.6431 8.27584 34.3404 8.35479C34.3404 8.35479 30.6459 7.29694 28.8697 9.26264C28.8697 9.26264 27.2513 6.62592 26.004 6.20752C26.004 6.20752 27.1013 8.66267 26.6829 9.26264C26.6829 9.26264 22.9489 8.09427 22.4989 8.54425Z" fill="#1D8036"/>
<path d="M31.9248 0.444971C31.9248 0.444971 31.83 0.57128 31.68 0.800217C31.6721 0.800217 31.6721 0.808111 31.6721 0.808111C30.9853 1.83438 29.1459 4.71582 29.1459 6.46837C29.1459 8.61563 28.6486 10.5419 28.6486 10.5419C28.6486 10.5419 27.9381 11.3708 27.2987 10.5419C27.2039 10.4234 27.7486 2.81328 30.5038 0.168668C30.5038 0.168668 31.2932 -0.35236 31.9326 0.437076L31.9248 0.444971Z" fill="#09912B"/>
<path d="M31.6642 0.808187C30.9774 1.83445 29.138 4.7159 29.138 6.46844C29.138 8.61571 28.6407 10.5419 28.6407 10.5419C28.6407 10.5419 27.9302 11.3708 27.2908 10.5419C27.2908 10.5419 27.6223 10.8024 28.6012 6.76843C29.1696 4.43959 30.5511 2.25286 31.6642 0.800293V0.808187Z" fill="#098A29"/>
<path d="M22.2463 7.27318C22.3253 7.96788 21.67 8.48102 19.578 8.10998C15.173 7.32055 10.7127 9.83885 10.239 10.1073C14.5414 6.39691 19.2544 6.58637 22.2463 7.27318Z" fill="#31A34D"/>
<path d="M40.8849 9.72161C38.3192 7.76381 37.435 9.43741 35.722 8.13484C34.8457 7.46382 35.2878 7.09278 35.9588 6.90332C39.2429 7.43224 40.8849 9.71371 40.8849 9.71371V9.72161Z" fill="#31A34D"/>
<path d="M38.9666 18.46C39.1876 14.9707 35.0194 14.4181 34.3326 13.2577C33.8352 12.4051 34.9562 12.0419 35.6825 11.9077H35.6904C41.2954 14.4813 38.9666 18.4521 38.9666 18.4521V18.46Z" fill="#31A34D"/>
<path d="M27.1013 16.8182C27.0776 16.8734 27.0697 16.9366 27.0539 16.9918C26.8802 17.9471 26.6908 18.7996 26.525 19.5417C25.854 19.897 25.033 19.9917 24.4725 19.6601C24.1883 18.9496 23.9988 18.2549 24.0146 17.6076C24.0225 17.0629 24.0856 16.5576 24.1883 16.084C24.4725 16.3287 24.954 16.684 25.5461 16.8024C26.0513 16.905 26.6434 16.7471 27.1092 16.8103L27.1013 16.8182Z" fill="#31A34D"/>
<path d="M20.3201 14.6C19.4123 15.0815 18.607 15.642 17.8886 16.2183C17.8886 16.2183 17.8808 16.2262 17.865 16.2262C17.2413 16.2341 16.5861 16.1315 16.0335 15.8236C15.8361 15.721 15.7019 15.5789 15.6309 15.4131C16.3256 14.0869 17.2887 13.108 18.2992 12.3975C18.3702 12.658 18.2992 13.2579 18.7254 13.6527C19.578 14.4579 20.0596 14.0947 20.3201 14.5921V14.6Z" fill="#31A34D"/>
<path d="M8.47069 18.2314C8.88909 17.8524 10.8706 17.7261 9.74959 19.1313C4.87087 25.2731 6.56026 33.3175 5.2419 33.357C3.92354 33.3964 0.860531 25.0521 8.47069 18.2314Z" fill="#FFA6A6"/>
<path d="M6.74966 36.4046C7.04175 37.7624 7.49173 38.2835 6.65493 38.4571C5.81813 38.6308 5.03658 37.9282 4.75239 36.5704C4.46819 35.2125 4.81554 34.5652 5.65234 34.3915C6.48914 34.2179 6.45757 35.0468 6.74966 36.4046Z" fill="#FFA6A6"/>
</svg>
