<svg width="62" height="76" viewBox="0 0 62 76" fill="none" xmlns="http://www.w3.org/2000/svg">
<path d="M58.7911 74.2638C58.7509 74.2939 58.7058 74.324 58.6606 74.3591C56.8644 75.6436 54.1751 74.4194 52.8054 72.6332C47.8132 66.2511 18.3262 28.3953 16.4498 27.7732C14.5733 27.146 11.7535 26.3332 10.6598 25.0237C9.56599 23.7142 2.045 12.9369 1.75399 10.8898C1.44292 8.70228 1.36765 8.2156 3.0033 5.88755C4.20245 4.19169 5.48187 3.63477 6.42011 3.67491C6.77132 3.68494 7.06735 3.78027 7.29814 3.92577C6.55558 4.6282 4.96005 5.72198 4.61887 6.60001C4.42821 7.09171 4.67908 8.48151 4.61887 9.27425C4.65901 9.77097 4.72926 10.2476 4.83964 10.6992C4.92493 11.0554 5.0303 11.4016 5.16075 11.7227C5.61231 12.8717 6.32478 13.845 7.29814 14.6278C7.41856 14.8636 7.16769 15.2951 7.29814 15.5208C8.92878 18.4008 11.317 21.5868 14.4378 22.6605C16.53 23.378 18.3162 23.9249 20.4887 22.7659C20.5539 22.7308 20.6192 22.6956 20.6844 22.6605C20.6844 22.6856 20.6744 22.7107 20.6744 22.7408C20.5489 23.7844 21.2062 25.3749 21.5775 26.2278C24.0811 31.9727 38.3555 44.9124 42.0984 48.5349C45.8413 52.1574 59.2627 68.5139 59.3781 68.6595C60.7679 71.0025 60.8482 72.7235 58.7911 74.2638Z" fill="#CF5BAC"/>
<path d="M60.3765 71.7C60.3364 72.6432 59.8397 73.4761 58.7911 74.2588C57.2859 74.2488 55.6553 73.2654 54.6869 72.001C49.6947 65.619 20.2077 27.7631 18.3313 27.141C16.4548 26.5188 13.635 25.701 12.5413 24.3915C11.4475 23.082 3.9265 12.3047 3.63549 10.2577C3.32442 8.07009 3.24915 7.58341 4.88481 5.25537C5.39657 4.53287 5.91838 4.01609 6.42513 3.66989C6.77635 3.67992 7.07237 3.77525 7.30317 3.92076C6.5606 4.62318 20.6141 22.7458 20.6744 22.7358C20.5489 23.7794 21.2062 25.3699 21.5775 26.2228C23.6095 30.8889 33.4134 40.3065 39.0228 45.6148C40.3223 46.8391 41.3909 47.8526 42.0984 48.5299C45.8413 52.1524 59.2627 68.5089 59.3781 68.6544C60.0554 69.7984 60.4217 70.7968 60.3765 71.6949V71.7Z" fill="#D778BB"/>
<path d="M24.8639 17.7786C24.7284 16.8655 23.6547 17.0561 23.3637 16.4139C22.9372 15.4606 23.7199 13.263 21.5825 12.8416C21.5674 12.5456 21.5825 12.2495 21.5825 11.9485C21.5273 9.25419 20.9102 10.7343 19.2545 9.82114C18.6273 9.47495 18.2309 8.46145 18.0152 8.37615C17.8195 8.00988 15.7724 5.32059 15.3409 4.80883C15.2556 4.70848 14.2271 5.08478 13.7805 4.61817C13.2136 4.02612 13.4394 1.60275 12.2101 1.2415C10.1931 0.644434 9.4857 2.54601 9.16961 2.95241L9.16458 2.95743C9.1395 2.99255 9.11945 3.01262 9.09436 3.02265C8.68796 3.20328 8.05075 3.54947 7.64937 3.75518C7.48881 3.84048 7.36336 3.90069 7.31318 3.91574C6.57062 4.61817 4.97512 5.71195 4.63394 6.58998C4.44328 7.08168 4.69415 8.47148 4.63394 9.26422C4.67408 9.76094 4.74433 10.2376 4.85471 10.6891C4.94 11.0454 5.04537 11.3916 5.17582 11.7127C5.62738 12.8617 6.33982 13.835 7.31318 14.6177C7.4336 14.8535 7.18273 15.285 7.31318 15.5108C8.94382 18.3908 11.3321 21.5768 14.4529 22.6505C16.6053 23.393 18.4316 23.95 20.6944 22.6505C20.7145 22.6404 20.7296 22.6304 20.7496 22.6154C21.9137 21.9079 23.0927 21.0249 24.2668 19.9712C24.7936 18.8624 24.9341 18.1901 24.8739 17.7686L24.8639 17.7786Z" fill="#EEF3F9"/>
<path d="M8.74816 5.45104L7.39348 6.2789C7.35334 6.30399 7.32824 6.33911 7.32323 6.37925C6.93689 6.54482 6.55558 6.71541 6.16924 6.88098L5.56213 7.1469C5.34639 7.24223 5.13064 7.35763 4.90486 7.41784C4.70919 7.47303 4.79447 7.77407 4.99015 7.71888C5.21091 7.65867 5.42165 7.54829 5.62736 7.45798C5.84311 7.36265 6.06386 7.26732 6.27961 7.17199C6.71612 6.98133 7.15265 6.79067 7.58916 6.60503C7.64937 6.57994 7.66942 6.52977 7.66942 6.4796C8.08084 6.22873 8.49727 5.97285 8.90869 5.72198C9.07928 5.61662 8.92374 5.34568 8.75315 5.45104H8.74816Z" fill="#CEDDEF"/>
<path d="M10.4591 7.36767C10.2835 7.41282 10.1028 7.45296 9.92724 7.49812C9.76668 7.53826 9.60111 7.58341 9.46063 7.67874C9.23987 7.83428 9.09937 8.09518 8.85352 8.2156C8.80836 8.24068 8.7833 8.28584 8.77828 8.34103C7.49886 9.07858 6.21442 9.81613 4.92497 10.5436C4.74936 10.644 4.9049 10.9149 5.0805 10.8146C6.43518 10.0469 7.78482 9.27927 9.12947 8.49657C9.19469 8.46145 9.20975 8.40124 9.19972 8.34605C9.33519 8.22563 9.44558 8.07511 9.59108 7.95971C9.7115 7.8694 9.85701 7.83428 10.0025 7.79916C10.1781 7.754 10.3587 7.71386 10.5343 7.66871C10.73 7.61853 10.6447 7.31749 10.449 7.36767H10.4591Z" fill="#CEDDEF"/>
<path d="M10.6096 9.77097C10.5644 9.69069 10.4741 9.68066 10.3938 9.71578C9.78172 10.0068 9.28501 10.4734 8.79833 10.935C8.77324 10.9601 8.7632 10.9852 8.75818 11.0103C8.45212 11.3113 8.12098 11.5772 7.75471 11.803C7.34329 12.0589 6.90678 12.2646 6.53048 12.5757C6.37495 12.7061 6.59571 12.9269 6.75125 12.7964C7.12253 12.4853 7.5741 12.2897 7.9805 12.0288C8.38189 11.7679 8.7582 11.4618 9.08934 11.1206C9.10941 11.1006 9.11943 11.0755 9.12946 11.0554C9.56095 10.644 10.0075 10.2426 10.5494 9.98672C10.6246 9.9516 10.6447 9.84121 10.6046 9.77097H10.6096Z" fill="#CEDDEF"/>
<path d="M9.52083 13.4136C9.23484 13.6745 8.9388 13.9203 8.62773 14.1511C8.47721 14.2665 8.32168 14.3769 8.16614 14.4873C8.02064 14.5926 7.88014 14.698 7.7798 14.8485C7.6644 15.0141 7.93535 15.1696 8.05075 15.0041C8.13605 14.8786 8.27654 14.7933 8.39695 14.708C8.55249 14.5976 8.70802 14.4823 8.85854 14.3669C9.15958 14.1361 9.4556 13.8902 9.73657 13.6393C9.88709 13.5039 9.66633 13.2831 9.51581 13.4186L9.52083 13.4136Z" fill="#CEDDEF"/>
<path d="M13.0279 14.2063C12.6215 14.8535 11.9191 15.2399 11.2769 15.6162C10.5394 16.0477 9.78676 16.449 9.02915 16.8454C8.85354 16.9407 9.00907 17.2117 9.18468 17.1164C9.98244 16.6949 10.7852 16.2734 11.5579 15.8118C12.2051 15.4255 12.8774 15.0191 13.2889 14.3669C13.3942 14.1963 13.1233 14.0407 13.0179 14.2113L13.0279 14.2063Z" fill="#CEDDEF"/>
<path d="M14.5281 16.2383C14.0615 16.8655 13.5397 17.4425 12.9677 17.9693C12.3707 18.5212 11.7134 18.9828 11.0361 19.4344C10.8705 19.5447 11.026 19.8157 11.1916 19.7053C11.889 19.2387 12.5664 18.762 13.1835 18.1951C13.7755 17.6482 14.3124 17.0461 14.7941 16.3989C14.9145 16.2383 14.6435 16.0828 14.5231 16.2433L14.5281 16.2383Z" fill="#CEDDEF"/>
<path d="M16.5501 17.0862C15.7273 18.6617 14.7339 20.1368 13.5899 21.4915C13.4594 21.642 13.6802 21.8678 13.8107 21.7122C14.9747 20.3375 15.9882 18.8373 16.8211 17.2418C16.9164 17.0662 16.6455 16.9056 16.5501 17.0862Z" fill="#CEDDEF"/>
<path d="M18.2259 19.5648C17.8797 20.1167 17.5034 20.6486 17.092 21.1503C16.8963 21.3961 16.6906 21.632 16.4799 21.8628C16.2742 22.0885 16.0634 22.3143 15.9179 22.5853C15.8226 22.7609 16.0935 22.9214 16.1889 22.7408C16.3344 22.4699 16.5501 22.2491 16.7558 22.0183C16.9716 21.7775 17.1823 21.5316 17.383 21.2807C17.7844 20.779 18.1557 20.2572 18.4968 19.7153C18.6022 19.5447 18.3363 19.3892 18.2259 19.5598V19.5648Z" fill="#CEDDEF"/>
<path d="M20.5941 19.0079C20.0021 20.6235 18.5872 21.7373 17.7392 23.1974C17.6389 23.373 17.9098 23.5285 18.0102 23.3529C18.8782 21.8628 20.2931 20.7339 20.9001 19.0882C20.9704 18.8975 20.6694 18.8172 20.5991 19.0029L20.5941 19.0079Z" fill="#CEDDEF"/>
<path d="M23.3536 17.9091C23.0927 18.8172 22.6612 19.6551 22.0842 20.3977C21.5173 21.1302 20.86 21.7825 20.3031 22.525C20.1827 22.6856 20.4536 22.8411 20.574 22.6806C21.141 21.9179 21.8284 21.2456 22.4054 20.488C22.9773 19.7404 23.3988 18.8925 23.6547 17.9894C23.7099 17.7937 23.4088 17.7134 23.3536 17.9041V17.9091Z" fill="#CEDDEF"/>
<path d="M24.8639 17.7786C24.5528 18.0546 24.1263 18.3908 23.6446 18.7018C22.7917 19.2537 22.2297 19.62 21.4571 19.6401C20.8299 19.6551 20.8199 19.4193 19.8917 19.329C18.6925 19.2086 18.4718 19.5748 18.0152 19.329C17.107 18.8373 17.5536 17.1364 16.7659 16.8253C16.2591 16.6297 15.938 17.2669 15.2005 17.1364C14.3826 16.9909 13.8859 16.0477 13.6351 15.571C12.9326 14.2314 13.2688 13.3433 12.6968 13.0674C12.1198 12.7914 11.6081 13.6092 10.8203 13.3784C10.0677 13.1577 9.45559 12.094 9.57099 11.1909C9.72653 9.91647 11.2418 9.60038 11.1364 8.68723C11.0762 8.17546 10.5795 8.08514 9.57099 7.12182C9.03414 6.61005 8.3267 5.82734 8.00559 5.24533C7.76475 4.80381 7.64936 4.28702 7.63431 3.75518C8.03569 3.54947 8.6729 3.19826 9.0793 3.02265C9.09937 3.01262 9.12447 2.99255 9.14955 2.95743C9.14955 2.95743 9.15458 2.95743 9.15458 2.95241C9.47067 2.54601 10.1781 0.644434 12.1951 1.2415C13.4293 1.60275 13.2036 4.02612 13.7655 4.61817C14.2121 5.08478 15.2406 4.70848 15.3259 4.80883C15.7624 5.32059 17.8095 8.00988 18.0001 8.37615C18.2209 8.46145 18.6173 9.47495 19.2394 9.82114C20.8951 10.7293 21.5173 9.25419 21.5675 11.9485C21.5675 12.2445 21.5524 12.5456 21.5675 12.8416C23.7049 13.263 22.9221 15.4606 23.3486 16.4139C23.6396 17.0561 24.7133 16.8655 24.8488 17.7786H24.8639Z" fill="#D8E3F2"/>
<path d="M11.2769 5.93271C11.1715 5.84741 11.1164 5.75208 11.0963 5.61661C11.0963 5.6116 11.0963 5.59153 11.0963 5.58651C11.0963 5.57146 11.0963 5.55139 11.0963 5.53634C11.0963 5.50122 11.1013 5.46609 11.1063 5.43097C11.1213 5.33564 11.1314 5.2353 11.0963 5.13997C11.0411 4.98443 10.9207 4.87405 10.7752 4.80883C10.6096 4.73858 10.424 4.73858 10.2433 4.74862C10.158 4.74862 10.0878 4.81886 10.0878 4.90415C10.0878 4.98443 10.158 5.06471 10.2433 5.05969C10.3236 5.05969 10.4089 5.05467 10.4892 5.05969C10.5193 5.05969 10.5544 5.06471 10.5845 5.07474C10.6196 5.08478 10.6497 5.09481 10.6648 5.09983C10.6748 5.10485 10.6899 5.11488 10.6999 5.1199C10.7049 5.1199 10.715 5.12993 10.72 5.13495C10.715 5.12993 10.715 5.12993 10.72 5.13495C10.73 5.14499 10.7401 5.15502 10.7501 5.16506C10.7501 5.16506 10.7802 5.20519 10.7651 5.18513C10.7752 5.19516 10.7802 5.21021 10.7852 5.22025C10.7852 5.22025 10.7952 5.24533 10.7952 5.25035C10.8002 5.28045 10.7952 5.31056 10.7952 5.34066C10.7902 5.41592 10.7701 5.49118 10.7701 5.56644C10.7701 5.6417 10.7802 5.71696 10.8053 5.7872C10.8504 5.92769 10.9357 6.06316 11.0511 6.15849C11.1163 6.21368 11.2067 6.22371 11.2719 6.15849C11.3271 6.1033 11.3371 5.99292 11.2719 5.93773L11.2769 5.93271Z" fill="#BACEE8"/>
<path d="M13.329 9.76595C13.4394 9.56526 13.4444 9.34952 13.3491 9.1438C13.2437 8.92806 13.048 8.78255 12.9075 8.5919C12.7871 8.43134 12.5162 8.5919 12.6366 8.74743C12.7721 8.93308 12.9828 9.0836 13.0781 9.29934C13.1785 9.52512 12.9979 9.69069 12.8875 9.87132C12.6567 10.2526 12.7119 10.7293 12.9778 11.0705C13.028 11.1357 13.1434 11.1257 13.1986 11.0705C13.2638 11.0052 13.2487 10.9149 13.1986 10.8497C13.0832 10.6992 13.033 10.4935 13.0581 10.3078C13.0882 10.0921 13.2287 9.9516 13.329 9.76595Z" fill="#BACEE8"/>
<path d="M14.6737 7.3476C14.5934 7.33254 14.5031 7.36767 14.483 7.45798C14.4679 7.53324 14.5081 7.63359 14.5934 7.64864C14.6134 7.64864 14.6385 7.65867 14.6586 7.66369C14.6686 7.66369 14.6787 7.66871 14.6887 7.67372C14.6887 7.67372 14.6937 7.67372 14.6987 7.67372C14.7389 7.68376 14.774 7.71386 14.8091 7.73393C14.8091 7.73393 14.8342 7.754 14.8242 7.74397C14.8292 7.74397 14.8392 7.754 14.8392 7.75902C14.8543 7.77407 14.8693 7.78912 14.8844 7.80417C14.8994 7.81923 14.9195 7.8393 14.9295 7.85435C14.9295 7.85435 14.9295 7.85435 14.9295 7.85937C14.9345 7.8694 14.9446 7.87944 14.9496 7.88947C14.9596 7.90954 14.9747 7.92961 14.9847 7.94968C14.9847 7.95971 14.9948 7.96473 14.9998 7.97476C14.9998 7.97476 14.9998 7.97476 14.9998 7.97978C15.0148 8.01992 15.0299 8.06006 15.0349 8.10522C15.0349 8.11023 15.0349 8.12027 15.0349 8.1303C15.0349 8.1303 15.0349 8.13532 15.0349 8.14034C15.0349 8.16041 15.0349 8.18549 15.0349 8.20556C15.0349 8.2156 15.0349 8.22563 15.0349 8.24068C15.0349 8.24068 15.0349 8.24068 15.0349 8.2457C15.0349 8.26577 15.0249 8.29086 15.0199 8.31093C14.9998 8.3912 15.0449 8.48653 15.1302 8.50158C15.2105 8.52165 15.3008 8.4765 15.3209 8.3912C15.4363 7.94466 15.1252 7.42787 14.6636 7.3476H14.6737Z" fill="#BACEE8"/>
<path d="M15.918 13.2681C15.8628 13.0924 15.8477 12.9068 15.8026 12.7262C15.7624 12.5807 15.6972 12.4352 15.6169 12.3097C15.4413 12.0488 15.1954 11.8582 14.9044 11.7478C14.8242 11.7177 14.7338 11.7829 14.7138 11.8582C14.6887 11.9435 14.7439 12.0187 14.8242 12.0488C15.05 12.1341 15.2456 12.2997 15.371 12.5004C15.5366 12.7613 15.5316 13.0623 15.6219 13.3483C15.6821 13.539 15.9832 13.4587 15.923 13.263L15.918 13.2681Z" fill="#BACEE8"/>
<path d="M18.542 16.4591C18.542 16.4591 18.5169 16.449 18.5169 16.444C18.5069 16.434 18.4918 16.4189 18.5019 16.434C18.4768 16.4039 18.4818 16.3989 18.4718 16.3688C18.4718 16.3688 18.4668 16.3437 18.4668 16.3387C18.4668 16.3186 18.4668 16.3035 18.4668 16.2835C18.4668 16.2433 18.4668 16.2032 18.4668 16.1631C18.4668 15.9774 18.4116 15.8269 18.2911 15.6864C18.1908 15.571 18.0604 15.4757 17.9349 15.3904C17.7944 15.29 17.6289 15.2148 17.4532 15.2198C17.2526 15.2198 17.2526 15.5359 17.4532 15.5309C17.5887 15.5309 17.7041 15.6061 17.8195 15.6864C17.9198 15.7617 18.0403 15.852 18.1005 15.9473C18.1356 15.9975 18.1507 16.0426 18.1557 16.1079C18.1557 16.1831 18.1557 16.2634 18.1557 16.3437C18.1707 16.4942 18.2359 16.6648 18.3865 16.73C18.4617 16.7651 18.552 16.7501 18.6022 16.6748C18.6423 16.6096 18.6223 16.4942 18.547 16.4591H18.542Z" fill="#BACEE8"/>
<path d="M21.6377 17.5478C21.4571 17.302 21.2564 17.0411 20.9503 16.9458C20.6041 16.8304 20.2479 16.9909 19.9067 17.0411C19.8214 17.0511 19.7763 17.1615 19.7963 17.2318C19.8214 17.3221 19.9067 17.3522 19.987 17.3421C20.263 17.302 20.564 17.1615 20.84 17.2418C21.0708 17.307 21.2263 17.5278 21.3617 17.7084C21.4119 17.7786 21.4972 17.8087 21.5775 17.7636C21.6427 17.7235 21.6829 17.6181 21.6327 17.5478H21.6377Z" fill="#BACEE8"/>
<path d="M17.6589 10.2526C17.6188 10.1222 17.5335 10.0168 17.4231 9.93153C17.2024 9.77097 16.9164 9.76595 16.6555 9.77599C16.5752 9.77599 16.4949 9.84623 16.4999 9.93153C16.4999 10.0118 16.5702 10.0921 16.6555 10.0871C16.7157 10.0871 16.7759 10.0871 16.8412 10.0871C16.8713 10.0871 16.8963 10.0871 16.9264 10.0871C16.9415 10.0871 16.9615 10.0871 16.9766 10.0871C16.9816 10.0871 16.9866 10.0871 16.9917 10.0871C16.9816 10.0871 16.9816 10.0871 16.9917 10.0871C17.0418 10.0971 17.092 10.1071 17.1422 10.1222C17.1472 10.1222 17.1873 10.1423 17.1522 10.1222C17.1623 10.1222 17.1723 10.1322 17.1823 10.1372C17.2024 10.1473 17.2225 10.1623 17.2425 10.1724C17.2425 10.1724 17.2726 10.1974 17.2576 10.1824C17.2425 10.1673 17.2676 10.1924 17.2726 10.1924C17.2877 10.2075 17.3077 10.2275 17.3228 10.2426C17.3278 10.2526 17.3379 10.2627 17.3429 10.2777C17.3429 10.2777 17.3479 10.2928 17.3529 10.2978C17.3529 10.3028 17.3579 10.3179 17.3579 10.3179C17.3579 10.3329 17.368 10.348 17.368 10.363C17.368 10.363 17.368 10.3781 17.368 10.3881C17.368 10.3981 17.368 10.4082 17.368 10.4132C17.368 10.4282 17.368 10.4433 17.368 10.4583C17.368 10.5135 17.368 10.5687 17.3629 10.6239C17.3579 10.7042 17.4382 10.7845 17.5185 10.7795C17.6088 10.7795 17.669 10.7092 17.674 10.6239C17.684 10.4935 17.6891 10.358 17.6489 10.2326L17.6589 10.2526Z" fill="#BACEE8"/>
<path d="M18.8882 13.5089C18.7828 13.258 18.557 13.1075 18.2961 13.0523C18.0051 12.9871 17.6991 13.0473 17.4081 12.967C17.2124 12.9168 17.1321 13.2179 17.3228 13.2681C17.5887 13.3383 17.8797 13.2982 18.1356 13.3383C18.2309 13.3534 18.3262 13.3784 18.4115 13.4236C18.4868 13.4637 18.5571 13.5239 18.5872 13.5942C18.6173 13.6745 18.6925 13.7297 18.7778 13.7046C18.8531 13.6845 18.9183 13.5892 18.8882 13.5139V13.5089Z" fill="#BACEE8"/>
<path d="M20.283 11.6876C20.0974 11.4367 19.7913 11.3213 19.4852 11.3715C19.405 11.3866 19.3498 11.4869 19.3749 11.5622C19.405 11.6475 19.4802 11.6876 19.5655 11.6725C19.5706 11.6725 19.5705 11.6725 19.5705 11.6725C19.5705 11.6725 19.5705 11.6725 19.5756 11.6725C19.5906 11.6725 19.6057 11.6725 19.6157 11.6725C19.6408 11.6725 19.6659 11.6725 19.691 11.6725C19.696 11.6725 19.706 11.6725 19.711 11.6725C19.7211 11.6725 19.7311 11.6725 19.7462 11.6826C19.7712 11.6876 19.7963 11.6976 19.8164 11.7077C19.8164 11.7077 19.8164 11.7077 19.8214 11.7077C19.8214 11.7077 19.8214 11.7077 19.8264 11.7077C19.8365 11.7127 19.8515 11.7177 19.8615 11.7277C19.8816 11.7378 19.9067 11.7528 19.9268 11.7679C19.9268 11.7679 19.9418 11.7779 19.9418 11.7829C19.9519 11.793 19.9569 11.798 19.9669 11.808C19.977 11.818 19.987 11.8281 19.997 11.8381C19.997 11.8381 20.002 11.8481 20.0071 11.8532C20.0221 11.8732 20.0371 11.8933 20.0472 11.9184C20.0522 11.9334 20.0623 11.9435 20.0673 11.9585C20.0522 11.9284 20.0672 11.9736 20.0723 11.9736C20.0823 11.9987 20.0873 12.0288 20.0974 12.0589C20.0974 12.0589 20.0974 12.0739 20.0974 12.0789C20.0974 12.084 20.0974 12.104 20.0974 12.1091C20.0974 12.1341 20.0974 12.1642 20.0974 12.1893C20.0974 12.1994 20.0974 12.2094 20.0974 12.2244V12.2495C20.0924 12.2796 20.0823 12.3047 20.0723 12.3348V12.3398C20.0672 12.3549 20.0572 12.37 20.0472 12.385C20.007 12.4552 20.0271 12.5606 20.1024 12.6007C20.1777 12.6409 20.273 12.6208 20.3181 12.5456C20.4636 12.2796 20.4536 11.9334 20.2679 11.6876H20.283Z" fill="#BACEE8"/>
<path d="M21.6277 14.4973C21.4872 14.422 21.3367 14.3919 21.1811 14.3919C21.0406 14.3919 20.8851 14.4271 20.7697 14.3518C20.6995 14.3066 20.5991 14.3367 20.554 14.407C20.5088 14.4823 20.5389 14.5726 20.6091 14.6227C20.7446 14.708 20.9002 14.7181 21.0557 14.713C21.1962 14.708 21.3015 14.698 21.427 14.7482C21.5173 14.7833 21.6076 14.8535 21.6778 14.9388C21.7381 15.0141 21.7932 15.1345 21.8033 15.2198C21.8133 15.3051 21.8685 15.3753 21.9588 15.3753C22.0341 15.3753 22.1244 15.3051 22.1143 15.2198C22.0792 14.9137 21.8986 14.6428 21.6277 14.4973Z" fill="#BACEE8"/>
<path d="M11.8439 2.79186C11.6181 2.74168 11.3572 2.85206 11.2518 3.06279C11.2167 3.13805 11.2317 3.23338 11.307 3.27854C11.3772 3.31366 11.4826 3.2986 11.5227 3.22334C11.5328 3.20829 11.5378 3.19324 11.5478 3.17819C11.5528 3.17317 11.5629 3.16314 11.5679 3.15812C11.5679 3.15812 11.5729 3.1531 11.5779 3.14809C11.5779 3.14809 11.5729 3.14808 11.5829 3.14307C11.598 3.13303 11.6131 3.123 11.6281 3.11798C11.6381 3.11798 11.6432 3.11296 11.6532 3.10795C11.6682 3.10795 11.6833 3.10293 11.6933 3.09791H11.6984C11.6984 3.09791 11.7184 3.09791 11.7285 3.09791C11.7385 3.09791 11.7485 3.09791 11.7586 3.09791C11.7686 3.09791 11.7786 3.09791 11.7887 3.10795C11.7937 3.11296 11.8288 3.12802 11.8338 3.13303C11.8388 3.13303 11.8439 3.14307 11.8489 3.14809C11.8539 3.1531 11.8639 3.16314 11.8689 3.16816C11.8689 3.16816 11.8689 3.16815 11.8689 3.17317C11.879 3.18321 11.874 3.17819 11.8689 3.17317C11.874 3.18321 11.894 3.21331 11.894 3.21331C11.894 3.21331 11.894 3.21833 11.894 3.22334C11.894 3.22334 11.894 3.21833 11.894 3.21331C11.894 3.22335 11.899 3.23338 11.9041 3.24341C11.9041 3.25345 11.9091 3.26348 11.9141 3.27352C11.9141 3.27352 11.9141 3.27854 11.9141 3.28355C11.9141 3.28857 11.9141 3.29359 11.9141 3.29861C11.9141 3.30864 11.9141 3.32369 11.9141 3.33373C11.9141 3.414 11.9894 3.49428 12.0696 3.48926C12.16 3.48926 12.2202 3.41902 12.2252 3.33373C12.2402 3.09791 12.0646 2.85708 11.8288 2.80189L11.8439 2.79186Z" fill="#BACEE8"/>
<path d="M11.588 3.13805C11.588 3.13805 11.588 3.13805 11.5829 3.14307C11.5829 3.14307 11.588 3.13805 11.593 3.13304L11.588 3.13805Z" fill="#BACEE8"/>
<path d="M13.8558 6.58496C13.8107 6.40434 13.6752 6.25382 13.5147 6.15849C13.339 6.05814 13.1383 6.02302 12.9427 5.99292C12.8624 5.98288 12.7721 6.01299 12.752 6.1033C12.737 6.17856 12.7771 6.28392 12.8624 6.29396C12.9477 6.30901 13.038 6.31904 13.1233 6.33911C13.1684 6.34915 13.2086 6.35918 13.2487 6.37424C13.2588 6.37424 13.2688 6.37925 13.2738 6.38427C13.2788 6.38427 13.2788 6.38427 13.2838 6.38427C13.2989 6.39431 13.319 6.39932 13.334 6.40936C13.3641 6.42441 13.3892 6.44448 13.4193 6.46455C13.4243 6.46957 13.4293 6.47458 13.4394 6.4796C13.4544 6.48963 13.4645 6.50469 13.4795 6.51974C13.4845 6.52476 13.4946 6.53479 13.4946 6.53981C13.5046 6.55486 13.5146 6.56991 13.5247 6.58496C13.5247 6.595 13.5347 6.60001 13.5397 6.61005C13.5498 6.63514 13.5397 6.60503 13.5397 6.60503C13.5448 6.60503 13.5548 6.65521 13.5598 6.66022C13.5799 6.7405 13.6752 6.79569 13.7505 6.77061C13.8307 6.74552 13.8809 6.66524 13.8609 6.57995L13.8558 6.58496Z" fill="#BACEE8"/>
<path d="M60.3765 71.7C57.7926 71.2183 55.4546 69.2415 55.2238 69.0408C52.4091 66.6023 53.3674 64.9115 50.5326 61.2238C48.0841 58.0428 46.7946 58.5495 42.0884 53.7178C38.5562 50.0853 38.3404 48.8309 38.3354 48.0884C38.3304 47.2354 38.5863 46.3975 39.0228 45.6198C40.3223 46.8441 41.3909 47.8576 42.0984 48.5349C45.8413 52.1574 59.2627 68.5139 59.3781 68.6595C60.0554 69.8034 60.4217 70.8019 60.3765 71.7Z" fill="#DC89C3"/>
</svg>
