<svg width="77" height="96" viewBox="0 0 77 96" fill="none" xmlns="http://www.w3.org/2000/svg">
<g filter="url(#filter0_d_73_18674)">
<path d="M71.7134 91.9914C71.6647 92.0279 71.6099 92.0644 71.5552 92.1071C69.3762 93.6652 66.1138 92.1801 64.4522 90.0133C58.3961 82.2712 22.6256 36.3484 20.3492 35.5937C18.0728 34.8328 14.6522 33.8468 13.3254 32.2582C11.9985 30.6697 2.87479 17.5958 2.52177 15.1125C2.14441 12.4588 2.0531 11.8684 4.03731 9.04422C5.49199 6.98698 7.04405 6.31137 8.18223 6.36007C8.60829 6.37224 8.96739 6.48788 9.24738 6.66439C8.34657 7.51651 6.41104 8.84337 5.99715 9.90851C5.76587 10.505 6.07019 12.191 5.99715 13.1526C6.04585 13.7552 6.13106 14.3334 6.26496 14.8812C6.36843 15.3133 6.49626 15.7333 6.65451 16.1229C7.2023 17.5167 8.06659 18.6975 9.24738 19.647C9.39345 19.933 9.08913 20.4565 9.24738 20.7304C11.2255 24.224 14.1227 28.089 17.9085 29.3915C20.4466 30.2619 22.6134 30.9253 25.2488 29.5193C25.328 29.4767 25.4071 29.4341 25.4862 29.3915C25.4862 29.4219 25.474 29.4523 25.474 29.4889C25.3219 30.7549 26.1192 32.6843 26.5696 33.719C29.6068 40.6881 46.923 56.3852 51.4635 60.7797C56.0041 65.1742 72.2855 85.0163 72.4255 85.1928C74.1115 88.0352 74.2089 90.1228 71.7134 91.9914Z" fill="#CF5BAC"/>
<path d="M73.6367 88.8812C73.588 90.0255 72.9855 91.0358 71.7134 91.9853C69.8875 91.9732 67.9093 90.7802 66.7346 89.2464C60.6785 81.5043 24.908 35.5815 22.6316 34.8268C20.3553 34.072 16.9347 33.0799 15.6078 31.4913C14.2809 29.9028 5.15724 16.8289 4.80422 14.3456C4.42685 11.6919 4.33555 11.1015 6.31976 8.27732C6.94058 7.40086 7.57359 6.77395 8.18833 6.35398C8.61438 6.36615 8.97349 6.4818 9.25347 6.65831C8.35266 7.51042 25.401 29.495 25.474 29.4828C25.3219 30.7488 26.1192 32.6782 26.5696 33.7129C29.0347 39.3734 40.9277 50.7978 47.7325 57.2374C49.3089 58.7225 50.6053 59.9519 51.4635 60.7736C56.0041 65.1681 72.2855 85.0102 72.4255 85.1867C73.2472 86.5744 73.6915 87.7856 73.6367 88.8751V88.8812Z" fill="#D778BB"/>
<path d="M30.5563 23.4693C30.392 22.3615 29.0895 22.5928 28.7365 21.8138C28.2191 20.6573 29.1686 17.9914 26.5757 17.4802C26.5574 17.121 26.5757 16.7619 26.5757 16.3968C26.5088 13.1283 25.7601 14.9238 23.7516 13.8161C22.9908 13.3961 22.5099 12.1666 22.2482 12.0631C22.0108 11.6188 19.5275 8.35645 19.0041 7.73562C18.9006 7.61389 17.6529 8.07038 17.1112 7.50433C16.4234 6.78612 16.6973 3.84633 15.2061 3.4081C12.7593 2.6838 11.9011 4.9906 11.5176 5.48361L11.5116 5.48969C11.4811 5.5323 11.4568 5.55665 11.4264 5.56882C10.9334 5.78793 10.1604 6.2079 9.67344 6.45745C9.47868 6.56092 9.32649 6.63396 9.26562 6.65222C8.36481 7.50433 6.42932 8.8312 6.01544 9.89634C5.78415 10.4928 6.08847 12.1788 6.01544 13.1405C6.06413 13.743 6.14934 14.3212 6.28324 14.869C6.38671 15.3012 6.51454 15.7211 6.67279 16.1107C7.22058 17.5045 8.08483 18.6853 9.26562 19.6348C9.4117 19.9209 9.10737 20.4443 9.26562 20.7182C11.2437 24.2119 14.141 28.0768 17.9268 29.3793C20.5379 30.2801 22.7534 30.9557 25.4984 29.3793C25.5228 29.3671 25.541 29.355 25.5654 29.3367C26.9774 28.4785 28.4078 27.4073 29.832 26.1291C30.4711 24.784 30.6415 23.9684 30.5685 23.4571L30.5563 23.4693Z" fill="#EEF3F9"/>
<path d="M11.0064 8.5147L9.36302 9.51897C9.31433 9.54941 9.28389 9.59201 9.2778 9.6407C8.80914 9.84156 8.34657 10.0485 7.87791 10.2494L7.14142 10.5719C6.8797 10.6876 6.61798 10.8276 6.34409 10.9006C6.10672 10.9676 6.21018 11.3328 6.44755 11.2658C6.71536 11.1928 6.971 11.0589 7.22055 10.9493C7.48227 10.8337 7.75007 10.718 8.01179 10.6024C8.54132 10.3711 9.07088 10.1398 9.6004 9.9146C9.67344 9.88417 9.69777 9.8233 9.69777 9.76244C10.1969 9.45811 10.702 9.1477 11.2011 8.84337C11.4081 8.71555 11.2194 8.38688 11.0124 8.5147H11.0064Z" fill="#CEDDEF"/>
<path d="M13.0819 10.8398C12.8689 10.8945 12.6498 10.9432 12.4367 10.998C12.242 11.0467 12.0411 11.1015 11.8707 11.2171C11.6029 11.4058 11.4324 11.7223 11.1342 11.8684C11.0794 11.8988 11.049 11.9536 11.0429 12.0205C9.49086 12.9153 7.93271 13.81 6.36848 14.6925C6.15545 14.8143 6.34413 15.1429 6.55716 15.0212C8.20052 14.09 9.83776 13.1587 11.469 12.2092C11.5481 12.1666 11.5663 12.0936 11.5542 12.0266C11.7185 11.8805 11.8524 11.698 12.0289 11.558C12.175 11.4484 12.3515 11.4058 12.528 11.3632C12.7411 11.3084 12.9602 11.2597 13.1732 11.2049C13.4106 11.1441 13.3071 10.7789 13.0697 10.8398H13.0819Z" fill="#CEDDEF"/>
<path d="M13.2645 13.7552C13.2097 13.6578 13.1001 13.6456 13.0028 13.6882C12.2602 14.0413 11.6576 14.6073 11.0672 15.1673C11.0368 15.1977 11.0246 15.2281 11.0185 15.2586C10.6473 15.6238 10.2456 15.9463 9.80124 16.2202C9.30215 16.5307 8.77262 16.7802 8.31613 17.1576C8.12744 17.3158 8.39525 17.5836 8.58393 17.4254C9.03434 17.048 9.58213 16.8106 10.0751 16.4941C10.5621 16.1776 11.0186 15.8064 11.4203 15.3925C11.4446 15.3681 11.4568 15.3377 11.4689 15.3133C11.9924 14.8143 12.5341 14.3273 13.1914 14.0169C13.2827 13.9743 13.3071 13.8404 13.2584 13.7552H13.2645Z" fill="#CEDDEF"/>
<path d="M11.9437 18.174C11.5968 18.4905 11.2377 18.7888 10.8603 19.0687C10.6777 19.2087 10.489 19.3426 10.3003 19.4765C10.1238 19.6043 9.9534 19.7322 9.83167 19.9148C9.69168 20.1156 10.0204 20.3043 10.1604 20.1034C10.2638 19.9513 10.4343 19.8478 10.5803 19.7443C10.769 19.6104 10.9577 19.4704 11.1403 19.3305C11.5055 19.0505 11.8646 18.7522 12.2054 18.4479C12.388 18.2836 12.1202 18.0158 11.9376 18.1801L11.9437 18.174Z" fill="#CEDDEF"/>
<path d="M16.1982 19.1357C15.7052 19.9209 14.8531 20.3895 14.074 20.846C13.1793 21.3694 12.2663 21.8564 11.3473 22.3372C11.1342 22.4528 11.3229 22.7815 11.5359 22.6659C12.5037 22.1546 13.4775 21.6433 14.4148 21.0834C15.2 20.6147 16.0156 20.1217 16.5147 19.3305C16.6425 19.1235 16.3138 18.9348 16.186 19.1418L16.1982 19.1357Z" fill="#CEDDEF"/>
<path d="M18.0181 21.6007C17.452 22.3615 16.819 23.0615 16.1252 23.7006C15.4009 24.3701 14.6035 24.9301 13.7819 25.4779C13.581 25.6118 13.7697 25.9404 13.9705 25.8065C14.8166 25.2405 15.6382 24.6623 16.3869 23.9745C17.1051 23.311 17.7564 22.5807 18.3407 21.7955C18.4867 21.6007 18.1581 21.412 18.012 21.6068L18.0181 21.6007Z" fill="#CEDDEF"/>
<path d="M20.471 22.6294C19.4728 24.5405 18.2676 26.33 16.8799 27.9733C16.7216 28.1559 16.9895 28.4298 17.1477 28.2411C18.5598 26.5734 19.7893 24.7536 20.7996 22.818C20.9153 22.605 20.5866 22.4102 20.471 22.6294Z" fill="#CEDDEF"/>
<path d="M22.5038 25.6361C22.0838 26.3056 21.6274 26.9508 21.1283 27.5594C20.8909 27.8577 20.6413 28.1437 20.3857 28.4237C20.1362 28.6976 19.8805 28.9715 19.704 29.3002C19.5884 29.5132 19.917 29.708 20.0327 29.4889C20.2092 29.1602 20.4709 28.8924 20.7205 28.6124C20.9822 28.3203 21.2378 28.022 21.4813 27.7177C21.9682 27.109 22.4186 26.476 22.8325 25.8187C22.9603 25.6118 22.6377 25.4231 22.5038 25.63V25.6361Z" fill="#CEDDEF"/>
<path d="M25.3767 24.9605C24.6585 26.9204 22.9421 28.2716 21.9135 30.0427C21.7917 30.2558 22.1204 30.4445 22.2421 30.2314C23.2951 28.4237 25.0115 27.0543 25.748 25.0579C25.8332 24.8266 25.468 24.7292 25.3828 24.9544L25.3767 24.9605Z" fill="#CEDDEF"/>
<path d="M28.7243 23.6275C28.4078 24.7292 27.8843 25.7457 27.1844 26.6465C26.4966 27.5351 25.6993 28.3263 25.0237 29.2271C24.8776 29.4219 25.2062 29.6106 25.3523 29.4158C26.0401 28.4907 26.874 27.6751 27.5739 26.756C28.2678 25.8491 28.779 24.8205 29.0895 23.7249C29.1564 23.4876 28.7912 23.3902 28.7243 23.6215V23.6275Z" fill="#CEDDEF"/>
<path d="M30.5563 23.4693C30.179 23.8041 29.6616 24.2118 29.0773 24.5892C28.0426 25.2587 27.3609 25.703 26.4236 25.7274C25.6627 25.7457 25.6506 25.4596 24.5246 25.35C23.0699 25.204 22.8021 25.6483 22.2482 25.35C21.1465 24.7535 21.6882 22.6902 20.7327 22.3129C20.1179 22.0755 19.7284 22.8485 18.8337 22.6902C17.8416 22.5137 17.239 21.3694 16.9347 20.7912C16.0826 19.1661 16.4904 18.0888 15.7965 17.754C15.0965 17.4193 14.4757 18.4114 13.5201 18.1314C12.6072 17.8636 11.8646 16.5733 12.0046 15.4777C12.1932 13.9317 14.0314 13.5483 13.9036 12.4405C13.8305 11.8197 13.228 11.7101 12.0046 10.5415C11.3533 9.92068 10.4951 8.97119 10.1056 8.26515C9.81342 7.72954 9.67343 7.10262 9.65517 6.45745C10.1421 6.2079 10.9151 5.78185 11.4081 5.56882C11.4324 5.55665 11.4629 5.5323 11.4933 5.48969C11.4933 5.48969 11.4994 5.48969 11.4994 5.48361C11.8829 4.9906 12.7411 2.6838 15.1878 3.4081C16.6851 3.84633 16.4112 6.78612 17.0929 7.50433C17.6346 8.07038 18.8824 7.61389 18.9858 7.73562C19.5154 8.35645 21.9987 11.6188 22.23 12.0631C22.4978 12.1666 22.9786 13.3961 23.7333 13.8161C25.7419 14.9177 26.4966 13.1283 26.5575 16.3968C26.5575 16.7559 26.5392 17.121 26.5575 17.4802C29.1503 17.9914 28.2008 20.6573 28.7182 21.8138C29.0712 22.5928 30.3737 22.3615 30.538 23.4693H30.5563Z" fill="#D8E3F2"/>
<path d="M14.074 9.099C13.9462 8.99553 13.8792 8.87989 13.8549 8.71555C13.8549 8.70946 13.8549 8.68512 13.8549 8.67903C13.8549 8.66077 13.8549 8.63643 13.8549 8.61817C13.8549 8.57556 13.861 8.53296 13.867 8.49035C13.8853 8.37471 13.8975 8.25298 13.8549 8.13733C13.7879 7.94865 13.6419 7.81475 13.4653 7.73562C13.2645 7.65041 13.0393 7.65041 12.8202 7.66258C12.7167 7.66258 12.6315 7.74779 12.6315 7.85127C12.6315 7.94865 12.7167 8.04604 12.8202 8.03995C12.9176 8.03995 13.021 8.03386 13.1184 8.03995C13.1549 8.03995 13.1975 8.04603 13.2341 8.05821C13.2767 8.07038 13.3132 8.08255 13.3314 8.08864C13.3436 8.09473 13.3619 8.1069 13.374 8.11299C13.3801 8.11299 13.3923 8.12516 13.3984 8.13125C13.3923 8.12516 13.3923 8.12516 13.3984 8.13125C13.4106 8.14342 13.4227 8.15559 13.4349 8.16777C13.4349 8.16777 13.4714 8.21646 13.4532 8.19211C13.4653 8.20428 13.4714 8.22254 13.4775 8.23472C13.4775 8.23472 13.4897 8.26515 13.4897 8.27123C13.4958 8.30775 13.4897 8.34427 13.4897 8.38079C13.4836 8.47209 13.4593 8.56339 13.4593 8.65469C13.4593 8.74598 13.4714 8.83728 13.5019 8.92249C13.5566 9.09292 13.6601 9.25725 13.8001 9.3729C13.8792 9.43985 13.9888 9.45202 14.0679 9.3729C14.1349 9.30595 14.147 9.17204 14.0679 9.10509L14.074 9.099Z" fill="#BACEE8"/>
<path d="M16.5634 13.7491C16.6973 13.5056 16.7034 13.2439 16.5877 12.9944C16.4599 12.7327 16.2225 12.5562 16.0521 12.3249C15.906 12.1301 15.5774 12.3249 15.7235 12.5135C15.8878 12.7387 16.1434 12.9213 16.2591 13.1831C16.3808 13.457 16.1617 13.6578 16.0278 13.8769C15.7478 14.3395 15.8148 14.9177 16.1373 15.3316C16.1982 15.4107 16.3382 15.3986 16.4052 15.3316C16.4843 15.2525 16.466 15.1429 16.4052 15.0638C16.2652 14.8812 16.2043 14.6317 16.2347 14.4065C16.2712 14.1447 16.4417 13.9743 16.5634 13.7491Z" fill="#BACEE8"/>
<path d="M18.1946 10.8154C18.0972 10.7971 17.9877 10.8398 17.9633 10.9493C17.9451 11.0406 17.9937 11.1623 18.0972 11.1806C18.1215 11.1806 18.152 11.1928 18.1763 11.1989C18.1885 11.1989 18.2007 11.2049 18.2128 11.211C18.2128 11.211 18.2189 11.211 18.225 11.211C18.2737 11.2232 18.3163 11.2597 18.3589 11.2841C18.3589 11.2841 18.3894 11.3084 18.3772 11.2962C18.3833 11.2962 18.3954 11.3084 18.3954 11.3145C18.4137 11.3328 18.432 11.351 18.4502 11.3693C18.4685 11.3875 18.4928 11.4119 18.505 11.4301C18.505 11.4301 18.505 11.4301 18.505 11.4362C18.5111 11.4484 18.5233 11.4606 18.5294 11.4727C18.5415 11.4971 18.5598 11.5214 18.572 11.5458C18.572 11.558 18.5841 11.564 18.5902 11.5762C18.5902 11.5762 18.5902 11.5762 18.5902 11.5823C18.6085 11.631 18.6267 11.6797 18.6328 11.7345C18.6328 11.7406 18.6328 11.7527 18.6328 11.7649C18.6328 11.7649 18.6328 11.771 18.6328 11.7771C18.6328 11.8014 18.6328 11.8319 18.6328 11.8562C18.6328 11.8684 18.6328 11.8805 18.6328 11.8988C18.6328 11.8988 18.6328 11.8988 18.6328 11.9049C18.6328 11.9292 18.6207 11.9597 18.6146 11.984C18.5902 12.0814 18.645 12.197 18.7485 12.2153C18.8458 12.2397 18.9554 12.1849 18.9798 12.0814C19.1197 11.5397 18.7424 10.9128 18.1824 10.8154H18.1946Z" fill="#BACEE8"/>
<path d="M19.7041 17.9975C19.6371 17.7845 19.6189 17.5593 19.5641 17.3402C19.5154 17.1637 19.4363 16.9871 19.3389 16.835C19.1259 16.5185 18.8276 16.2872 18.4746 16.1533C18.3772 16.1168 18.2676 16.1959 18.2433 16.2872C18.2128 16.3907 18.2798 16.482 18.3772 16.5185C18.6511 16.622 18.8884 16.8228 19.0406 17.0663C19.2415 17.3828 19.2354 17.748 19.3449 18.0949C19.418 18.3262 19.7832 18.2288 19.7101 17.9914L19.7041 17.9975Z" fill="#BACEE8"/>
<path d="M22.8873 21.8685C22.8873 21.8685 22.8569 21.8564 22.8569 21.8503C22.8447 21.8381 22.8264 21.8198 22.8386 21.8381C22.8082 21.8016 22.8143 21.7955 22.8021 21.759C22.8021 21.759 22.796 21.7285 22.796 21.7225C22.796 21.6981 22.796 21.6799 22.796 21.6555C22.796 21.6068 22.796 21.5581 22.796 21.5094C22.796 21.2842 22.729 21.1016 22.583 20.9312C22.4612 20.7912 22.303 20.6756 22.1508 20.5721C21.9804 20.4504 21.7795 20.3591 21.5665 20.3652C21.3231 20.3652 21.3231 20.7486 21.5665 20.7425C21.7309 20.7425 21.8708 20.8338 22.0108 20.9312C22.1326 21.0225 22.2786 21.1321 22.3517 21.2477C22.3943 21.3086 22.4126 21.3634 22.4186 21.4425C22.4186 21.5338 22.4186 21.6312 22.4186 21.7285C22.4369 21.9111 22.516 22.1181 22.6986 22.1972C22.7899 22.2398 22.8995 22.2216 22.9603 22.1303C23.009 22.0511 22.9847 21.9111 22.8934 21.8685H22.8873Z" fill="#BACEE8"/>
<path d="M26.6427 23.1893C26.4236 22.8911 26.1801 22.5746 25.8088 22.4589C25.3888 22.3189 24.9567 22.5137 24.5428 22.5746C24.4394 22.5867 24.3846 22.7207 24.4089 22.8059C24.4394 22.9154 24.5428 22.9519 24.6402 22.9398C24.975 22.8911 25.3402 22.7207 25.6749 22.818C25.9549 22.8972 26.1436 23.165 26.3079 23.3841C26.3688 23.4693 26.4722 23.5058 26.5696 23.451C26.6488 23.4023 26.6975 23.2745 26.6366 23.1893H26.6427Z" fill="#BACEE8"/>
<path d="M21.8161 14.3395C21.7674 14.1813 21.6639 14.0534 21.53 13.95C21.2622 13.7552 20.9153 13.7491 20.5988 13.7613C20.5014 13.7613 20.404 13.8465 20.4101 13.95C20.4101 14.0473 20.4953 14.1447 20.5988 14.1386C20.6718 14.1386 20.7449 14.1386 20.824 14.1386C20.8605 14.1386 20.8909 14.1386 20.9274 14.1386C20.9457 14.1386 20.97 14.1386 20.9883 14.1386C20.9944 14.1386 21.0005 14.1386 21.0066 14.1386C20.9944 14.1386 20.9944 14.1386 21.0066 14.1386C21.0674 14.1508 21.1283 14.163 21.1892 14.1813C21.1952 14.1813 21.244 14.2056 21.2013 14.1813C21.2135 14.1813 21.2257 14.1934 21.2379 14.1995C21.2622 14.2117 21.2866 14.2299 21.3109 14.2421C21.3109 14.2421 21.3474 14.2726 21.3291 14.2543C21.3109 14.236 21.3413 14.2665 21.3474 14.2665C21.3657 14.2847 21.39 14.3091 21.4083 14.3273C21.4144 14.3395 21.4266 14.3517 21.4326 14.3699C21.4326 14.3699 21.4387 14.3882 21.4448 14.3943C21.4448 14.4004 21.4509 14.4186 21.4509 14.4186C21.4509 14.4369 21.4631 14.4551 21.4631 14.4734C21.4631 14.4734 21.4631 14.4917 21.4631 14.5038C21.4631 14.516 21.4631 14.5282 21.4631 14.5343C21.4631 14.5525 21.4631 14.5708 21.4631 14.5891C21.4631 14.656 21.4631 14.723 21.457 14.7899C21.4509 14.8873 21.5483 14.9847 21.6457 14.9786C21.7552 14.9786 21.8282 14.8934 21.8343 14.7899C21.8465 14.6317 21.8526 14.4673 21.8039 14.3152L21.8161 14.3395Z" fill="#BACEE8"/>
<path d="M23.3072 18.2897C23.1794 17.9853 22.9055 17.8027 22.589 17.7358C22.236 17.6567 21.8647 17.7297 21.5117 17.6323C21.2743 17.5715 21.177 17.9366 21.4082 17.9975C21.7308 18.0827 22.0838 18.034 22.3943 18.0827C22.5099 18.101 22.6255 18.1314 22.729 18.1862C22.8203 18.2349 22.9055 18.3079 22.9421 18.3931C22.9786 18.4905 23.0699 18.5575 23.1734 18.527C23.2647 18.5027 23.3438 18.387 23.3072 18.2957V18.2897Z" fill="#BACEE8"/>
<path d="M24.9993 16.0803C24.7741 15.7759 24.4028 15.6359 24.0315 15.6968C23.9341 15.7151 23.8672 15.8368 23.8976 15.9281C23.9342 16.0316 24.0255 16.0802 24.1289 16.062C24.135 16.062 24.135 16.062 24.135 16.062C24.135 16.062 24.135 16.062 24.1411 16.062C24.1593 16.062 24.1776 16.062 24.1898 16.062C24.2202 16.062 24.2507 16.062 24.2811 16.062C24.2872 16.062 24.2993 16.062 24.3054 16.062C24.3176 16.062 24.3298 16.062 24.348 16.0742C24.3785 16.0802 24.4089 16.0924 24.4333 16.1046C24.4333 16.1046 24.4332 16.1046 24.4393 16.1046C24.4393 16.1046 24.4393 16.1046 24.4454 16.1046C24.4576 16.1107 24.4759 16.1168 24.488 16.1289C24.5124 16.1411 24.5428 16.1594 24.5672 16.1776C24.5672 16.1776 24.5854 16.1898 24.5854 16.1959C24.5976 16.2081 24.6037 16.2142 24.6159 16.2263C24.628 16.2385 24.6402 16.2507 24.6524 16.2628C24.6524 16.2628 24.6585 16.275 24.6646 16.2811C24.6828 16.3055 24.701 16.3298 24.7132 16.3602C24.7193 16.3785 24.7315 16.3907 24.7376 16.4089C24.7193 16.3724 24.7376 16.4272 24.7436 16.4272C24.7558 16.4576 24.7619 16.4941 24.7741 16.5307C24.7741 16.5307 24.7741 16.5489 24.7741 16.555C24.7741 16.5611 24.7741 16.5854 24.7741 16.5915C24.7741 16.622 24.7741 16.6585 24.7741 16.6889C24.7741 16.7011 24.7741 16.7132 24.7741 16.7315V16.7619C24.768 16.7985 24.7558 16.8289 24.7436 16.8654V16.8715C24.7376 16.8898 24.7254 16.908 24.7132 16.9263C24.6645 17.0115 24.6889 17.1393 24.7802 17.188C24.8715 17.2367 24.9871 17.2123 25.0419 17.121C25.2184 16.7985 25.2062 16.3785 24.981 16.0803H24.9993Z" fill="#BACEE8"/>
<path d="M26.6305 19.4887C26.4601 19.3974 26.2775 19.3609 26.0888 19.3609C25.9184 19.3609 25.7297 19.4035 25.5897 19.3122C25.5045 19.2574 25.3828 19.2939 25.328 19.3791C25.2732 19.4704 25.3097 19.58 25.3949 19.6409C25.5593 19.7443 25.748 19.7565 25.9367 19.7504C26.1071 19.7443 26.2349 19.7322 26.387 19.793C26.4966 19.8356 26.6062 19.9209 26.6914 20.0243C26.7644 20.1156 26.8314 20.2617 26.8435 20.3652C26.8557 20.4686 26.9227 20.5538 27.0322 20.5538C27.1235 20.5538 27.2331 20.4686 27.2209 20.3652C27.1783 19.9939 26.9592 19.6652 26.6305 19.4887Z" fill="#BACEE8"/>
<path d="M14.7618 5.28884C14.4879 5.22797 14.1714 5.36187 14.0436 5.61751C14.001 5.70881 14.0192 5.82445 14.1105 5.87923C14.1957 5.92184 14.3235 5.90358 14.3722 5.81228C14.3844 5.79402 14.3905 5.77576 14.4027 5.7575C14.4087 5.75141 14.4209 5.73924 14.427 5.73315C14.427 5.73315 14.4331 5.72707 14.4392 5.72098C14.4392 5.72098 14.4331 5.72098 14.4453 5.71489C14.4635 5.70272 14.4818 5.69055 14.5001 5.68446C14.5122 5.68446 14.5183 5.67837 14.5305 5.67229C14.5487 5.67229 14.567 5.6662 14.5792 5.66011H14.5853C14.5853 5.66011 14.6096 5.66011 14.6218 5.66011C14.634 5.66011 14.6461 5.66011 14.6583 5.66011C14.6705 5.66011 14.6827 5.66011 14.6948 5.67229C14.7009 5.67837 14.7435 5.69664 14.7496 5.70272C14.7557 5.70272 14.7618 5.71489 14.7679 5.72098C14.774 5.72707 14.7861 5.73924 14.7922 5.74533C14.7922 5.74533 14.7922 5.74533 14.7922 5.75141C14.7983 5.7575 14.8044 5.76359 14.7922 5.75141C14.7983 5.76359 14.8226 5.80011 14.8226 5.80011C14.8226 5.80011 14.8226 5.80619 14.8226 5.81228C14.8226 5.81228 14.8226 5.80619 14.8226 5.80011C14.8226 5.81228 14.8287 5.82445 14.8348 5.83662C14.8348 5.8488 14.8409 5.86097 14.847 5.87314C14.847 5.87314 14.847 5.87923 14.847 5.88532C14.847 5.8914 14.847 5.89749 14.847 5.90358C14.847 5.91575 14.847 5.93401 14.847 5.94618C14.847 6.04357 14.9383 6.14095 15.0357 6.13487C15.1452 6.13487 15.2183 6.04965 15.2244 5.94618C15.2426 5.66012 15.0296 5.36796 14.7435 5.30101L14.7618 5.28884Z" fill="#BACEE8"/>
<path d="M14.4514 5.70881C14.4514 5.70881 14.4513 5.70881 14.4453 5.71489C14.4453 5.71489 14.4514 5.70881 14.4575 5.70272L14.4514 5.70881Z" fill="#BACEE8"/>
<path d="M17.2025 9.89025C17.1477 9.67114 16.9834 9.48854 16.7886 9.3729C16.5756 9.25117 16.3321 9.20856 16.0947 9.17204C15.9974 9.15987 15.8878 9.19639 15.8635 9.30595C15.8452 9.39725 15.8939 9.52506 15.9973 9.53724C16.1008 9.5555 16.2104 9.56767 16.3139 9.59201C16.3686 9.60419 16.4173 9.61636 16.466 9.63462C16.4782 9.63462 16.4904 9.64071 16.4964 9.64679C16.5025 9.64679 16.5025 9.64679 16.5086 9.64679C16.5269 9.65897 16.5512 9.66505 16.5695 9.67723C16.606 9.69549 16.6365 9.71983 16.673 9.74418C16.6791 9.75026 16.6851 9.75635 16.6973 9.76244C16.7156 9.77461 16.7277 9.79287 16.746 9.81113C16.7521 9.81722 16.7642 9.82939 16.7642 9.83547C16.7764 9.85373 16.7886 9.87199 16.8008 9.89025C16.8008 9.90243 16.813 9.90851 16.819 9.92069C16.8312 9.95112 16.819 9.9146 16.819 9.9146C16.8251 9.9146 16.8373 9.97547 16.8434 9.98155C16.8677 10.0789 16.9834 10.1459 17.0747 10.1155C17.1721 10.085 17.2329 9.98764 17.2086 9.88417L17.2025 9.89025Z" fill="#BACEE8"/>
<path d="M73.6367 88.8812C70.5022 88.2969 67.6659 85.8988 67.3859 85.6553C63.9714 82.6973 65.1339 80.6461 61.695 76.1725C58.7248 72.3137 57.1605 72.9284 51.4514 67.0671C47.1665 62.6604 46.9047 61.1388 46.8987 60.238C46.8926 59.2033 47.203 58.1868 47.7325 57.2434C49.3089 58.7285 50.6053 59.958 51.4635 60.7797C56.0041 65.1742 72.2855 85.0163 72.4255 85.1928C73.2472 86.5805 73.6915 87.7917 73.6367 88.8812Z" fill="#DC89C3"/>
</g>
<defs>
<filter id="filter0_d_73_18674" x="0.0359082" y="0.568555" width="76.7401" height="94.8839" filterUnits="userSpaceOnUse" color-interpolation-filters="sRGB">
<feFlood flood-opacity="0" result="BackgroundImageFix"/>
<feColorMatrix in="SourceAlpha" type="matrix" values="0 0 0 0 0 0 0 0 0 0 0 0 0 0 0 0 0 0 127 0" result="hardAlpha"/>
<feMorphology radius="1" operator="dilate" in="SourceAlpha" result="effect1_dropShadow_73_18674"/>
<feOffset dx="0.43"/>
<feGaussianBlur stdDeviation="0.85"/>
<feComposite in2="hardAlpha" operator="out"/>
<feColorMatrix type="matrix" values="0 0 0 0 0.132578 0 0 0 0 0.132578 0 0 0 0 0.253333 0 0 0 0.54 0"/>
<feBlend mode="normal" in2="BackgroundImageFix" result="effect1_dropShadow_73_18674"/>
<feBlend mode="normal" in="SourceGraphic" in2="effect1_dropShadow_73_18674" result="shape"/>
</filter>
</defs>
</svg>
