<svg width="59" height="65" viewBox="0 0 59 65" fill="none" xmlns="http://www.w3.org/2000/svg">
<path d="M10.0397 32.9123C10.0397 32.9123 12.5991 40.1307 18.2378 36.4215C18.2378 36.4215 22.4169 37.2013 23.7266 33.0323C23.7266 33.0323 26.216 33.5622 26.6359 30.9428C26.6359 30.9428 27.8556 34.1121 29.9352 32.4524C29.9352 32.4524 31.4948 34.172 34.5041 33.4622C34.5041 33.4622 33.9143 34.9419 36.1138 35.9716C38.3132 37.0014 39.583 35.1018 39.583 35.1018C39.583 35.1018 40.7527 36.7215 42.4523 36.5215C43.752 36.3715 44.3519 35.5817 44.4319 34.372C44.4319 34.372 47.6511 36.9914 49.3007 32.7724C50.9504 28.5633 47.7311 25.0041 47.7311 25.0041L22.8968 19.5254L10.0297 32.8923L10.0397 32.9123Z" fill="#B5B21F"/>
<path d="M8.10016 20.7853C8.10016 20.7853 8.59002 28.0736 15.1085 26.324C15.1085 26.324 18.8377 28.3735 21.3771 24.8344C21.3771 24.8344 23.5666 26.1241 24.7963 23.7646C24.7963 23.7646 24.9563 27.1638 27.4557 26.234C27.4557 26.234 28.3955 28.3535 31.4748 28.6335C31.4748 28.6335 30.445 29.8532 32.2146 31.5228C33.9842 33.1924 35.7838 31.7928 35.7838 31.7928C35.7838 31.7928 36.3837 33.6923 38.0633 34.0422C39.343 34.3122 40.1628 33.7423 40.6227 32.6326C40.6227 32.6326 42.8522 36.1318 45.7515 32.6526C48.6509 29.1734 46.7013 24.7844 46.7013 24.7844L24.8363 11.7773L8.09015 20.7953L8.10016 20.7853Z" fill="#ABA800"/>
<path d="M13.059 29.3033C13.059 29.3033 17.0681 35.402 21.887 30.673C21.887 30.673 26.146 30.623 26.6159 26.294C26.6159 26.294 29.1553 26.334 29.0654 23.6746C29.0654 23.6746 30.875 26.554 32.5946 24.5144C32.5946 24.5144 34.4541 25.9041 37.2735 24.6244C37.2735 24.6244 36.9836 26.1941 39.343 26.7739C41.7025 27.3538 42.5823 25.2543 42.5823 25.2543C42.5823 25.2543 44.0419 26.614 45.6716 26.0941C46.9113 25.6942 47.3512 24.8044 47.2012 23.6047C47.2012 23.6047 50.8604 25.5542 51.6702 21.0952C52.48 16.6362 48.6309 13.7769 48.6309 13.7769L23.2067 13.207L13.059 29.2933V29.3033Z" fill="#ABA800"/>
<path d="M48.4509 20.5078C48.4509 20.5078 46.3514 24.7468 43.0721 28.316C42.8622 28.546 42.6522 28.7659 42.4423 28.9859C39.5629 31.8852 37.3335 34.5746 36.7536 36.3542C36.7136 36.4742 36.6736 36.5941 36.6436 36.7341C36.6436 36.7341 36.6236 36.7841 36.6036 36.8941C34.974 43.5725 38.2532 64.3178 38.2532 64.3178C32.2846 65.9774 23.0167 64.0878 23.0167 64.0878C23.0167 64.0878 23.2766 62.7281 23.6666 60.6186C23.7365 60.2487 23.7965 59.8488 23.8565 59.4289C24.9863 52.1606 25.4661 38.8536 25.0462 36.5441C24.6663 34.4846 24.1465 31.2753 20.4273 27.7362C19.9074 27.2463 19.3376 26.7464 18.6877 26.2465C18.6477 26.2165 18.5877 26.2065 18.5477 26.1765C16.4782 25.1567 14.4887 24.3769 12.7191 23.7871C8.60002 22.4074 5.6607 22.0674 5.6607 22.0674C5.6607 22.0674 3.4612 20.0079 8.38008 21.0777C10.0397 21.4376 9.88973 21.5176 11.5693 22.0375C14.8786 23.0872 17.8979 24.077 19.4175 23.5171C21.707 22.6973 20.0874 17.9984 20.2973 15.7589C20.4473 14.2392 19.9974 12.3797 19.6875 11.3599C19.5475 10.88 19.4375 10.5801 19.4375 10.5801C19.4375 10.5801 19.8874 10.75 20.3673 11.2299C20.9172 11.7798 21.5071 12.7296 21.4371 14.2892C21.3171 16.7787 22.1569 18.8682 22.6468 18.9382C23.1367 19.0181 24.3864 17.7884 25.2862 16.5787C26.396 15.079 26.006 13.7394 26.006 13.7394C26.006 13.7394 28.9654 13.8393 26.6259 16.6187C24.5064 19.1281 22.3569 21.1777 22.3769 23.1272C22.3769 23.857 22.0869 24.5369 22.5268 25.4467C23.4066 27.2963 24.9963 28.9259 27.5357 30.9154C29.6352 32.565 31.1249 31.7852 31.5348 30.2856C31.8947 28.9659 32.7545 25.4667 32.0647 22.4774C31.9747 22.0674 31.8447 21.6675 31.6947 21.2876C31.2048 20.0879 28.5754 14.8791 28.5754 14.8791L29.5252 14.5192C29.5252 14.5192 31.1749 18.4883 32.2746 20.3678C32.5645 20.8577 32.7945 21.3876 32.9745 21.9175C33.7643 24.227 33.6443 26.6264 33.6443 26.6264C34.4241 26.0165 35.2039 23.997 35.5438 22.3474C35.7438 21.3176 35.7738 20.4378 35.5138 20.1379C33.8842 18.2883 33.0244 15.349 33.0244 15.189C33.0244 15.0591 35.5039 20.3278 35.5538 19.2581C35.6438 17.6185 35.5339 15.9788 35.5339 15.9788L36.3037 21.8075L38.8931 15.0091L39.6929 12.9095C39.6629 13.0595 39.433 13.8993 39.113 15.0691C38.4032 17.6984 37.2035 22.0175 36.5036 23.977C36.5036 24.007 36.5036 24.017 36.4836 24.037C35.5338 26.7164 33.8042 29.4458 34.704 28.9959C35.1739 28.7659 36.7136 26.7364 38.1133 24.7068C38.4232 24.2769 38.7231 23.837 38.9931 23.4271C39.193 23.1372 40.0328 17.5685 40.2028 17.2985C40.3228 17.1086 39.7829 22.2174 39.8929 22.0475C40.3527 21.3276 40.6727 20.7777 40.7626 20.5278C41.1426 19.488 41.4825 17.7484 41.4825 17.7484C41.4825 17.7484 43.672 16.5287 41.4625 20.8177C40.8126 22.0774 39.9328 23.5471 39.0231 24.9868C37.7134 27.0563 36.3537 29.0758 35.5438 30.3356C35.3639 30.6255 35.2039 30.8854 35.094 31.0754C34.994 31.2553 33.2944 36.6041 34.4641 36.1842C34.724 36.0842 35.1639 35.1745 35.8038 34.1547V34.1347C36.1437 33.5748 36.5436 32.9949 37.0035 32.4851C38.7431 30.5655 40.7526 29.1758 42.0424 27.7162C42.6222 27.0663 43.0521 26.4065 43.2621 25.6766C44.7017 20.7478 44.8417 17.5285 45.0717 17.2685C45.2416 17.0686 44.0919 25.2667 44.2618 25.0768C46.2114 22.8173 47.6511 19.848 47.6511 19.848L48.5009 20.4678L48.4509 20.5078Z" fill="#8C5112"/>
<g style="mix-blend-mode:multiply" opacity="0.47">
<path d="M26.5959 16.6085C24.4764 19.1179 22.3269 21.1675 22.3469 23.117C22.0969 23.227 21.827 23.277 21.547 23.237C19.0476 22.8771 20.9572 23.3869 20.0074 25.1465C19.7075 25.6964 19.1476 26.0063 18.5277 26.1663C16.4582 25.1465 14.4686 24.3667 12.699 23.7769C12.2192 23.197 11.8293 22.6071 11.5493 22.0273C14.8586 23.077 17.8779 24.0668 19.3975 23.5069C21.687 22.6871 20.0674 17.9882 20.2773 15.7487C20.4273 14.229 19.9774 12.3695 19.6675 11.3497C19.8974 11.3097 20.1174 11.2597 20.3473 11.2197C20.8972 11.7696 21.487 12.7194 21.4171 14.279C21.2971 16.7685 22.1369 18.858 22.6268 18.928C23.1167 19.0079 24.3664 17.7782 25.2662 16.5685C26.3759 15.0688 25.986 13.7292 25.986 13.7292C25.986 13.7292 28.9453 13.8291 26.6059 16.6085H26.5959Z" fill="#5259A6"/>
</g>
<g style="mix-blend-mode:multiply" opacity="0.47">
<path d="M32.2346 20.3674C32.5245 20.8573 32.7545 21.3872 32.9344 21.9171C32.6745 22.107 32.3746 22.297 32.0247 22.467C31.9347 22.0571 31.8047 21.6572 31.6547 21.2772C31.1649 20.0775 28.5355 14.8687 28.5355 14.8687L29.4852 14.5088C29.4852 14.5088 31.1348 18.4779 32.2346 20.3575V20.3674Z" fill="#5259A6"/>
</g>
<g style="mix-blend-mode:multiply" opacity="0.47">
<path d="M39.053 15.0778C38.3432 17.7072 37.1434 22.0262 36.4436 23.9858C36.2736 23.7058 36.0237 23.2659 35.6238 22.5661C35.5838 22.4861 35.5338 22.4161 35.4938 22.3461C35.6938 21.3164 35.7238 20.4366 35.4638 20.1366C33.8342 18.2871 32.9744 15.3477 32.9744 15.1878C32.9744 15.0578 35.4539 20.3266 35.5038 19.2568C35.5938 17.6172 35.4838 15.9776 35.4838 15.9776L36.2537 21.8063L38.8431 15.0078C38.9131 15.0378 38.983 15.0578 39.063 15.0778H39.053Z" fill="#5259A6"/>
</g>
<g style="mix-blend-mode:multiply" opacity="0.47">
<path d="M41.4025 20.8371C40.7527 22.0968 39.8729 23.5665 38.9631 25.0061C38.6032 24.8762 38.2932 24.7862 38.0533 24.7162C38.3632 24.2863 38.6631 23.8464 38.9331 23.4365C39.133 23.1466 39.9728 17.5778 40.1428 17.3079C40.2628 17.1179 39.7229 22.2268 39.8329 22.0568C40.2928 21.337 40.6127 20.7871 40.7027 20.5372C41.0826 19.4974 41.4225 17.7578 41.4225 17.7578C41.4225 17.7578 43.612 16.5381 41.4025 20.8271V20.8371Z" fill="#5259A6"/>
</g>
<g style="mix-blend-mode:multiply" opacity="0.47">
<path d="M48.4509 20.5078C48.4509 20.5078 46.3514 24.7468 43.0721 28.316C42.7522 28.166 42.4023 27.9861 41.9924 27.7461C42.5722 27.0963 43.0021 26.4364 43.2121 25.7066C44.6518 20.7777 44.7917 17.5585 45.0217 17.2985C45.1916 17.0986 44.0419 25.2967 44.2119 25.1067C46.1614 22.8473 47.6011 19.8779 47.6011 19.8779L48.4509 20.4978V20.5078Z" fill="#5259A6"/>
</g>
<g style="mix-blend-mode:multiply" opacity="0.25">
<path d="M35.7438 34.1834C35.6239 34.5533 34.1842 39.5921 33.4344 36.5728C32.6545 33.4835 35.4839 30.3643 35.4839 30.3643C35.3039 30.6542 35.144 30.9041 35.034 31.1041C34.934 31.284 33.2344 36.6328 34.4041 36.2129C34.6641 36.1129 35.104 35.2031 35.7438 34.1834Z" fill="#5259A6"/>
</g>
<g style="mix-blend-mode:multiply" opacity="0.25">
<path d="M38.2432 64.3173C32.2746 65.9769 23.0067 64.0873 23.0067 64.0873C23.0067 64.0873 28.0255 63.9874 28.7954 61.3879C29.5752 58.7885 29.5152 59.5684 29.9051 62.6577C30.315 65.8869 32.6645 58.1787 32.2846 55.0794C31.8947 51.9901 33.4443 47.1212 33.3043 49.2807C33.1744 51.4402 33.5443 58.2887 33.9342 51.5502C34.2941 45.3616 36.2837 38.0433 36.6036 36.8936C34.974 43.572 38.2532 64.3173 38.2532 64.3173H38.2432Z" fill="#5259A6"/>
</g>
<path opacity="0.21" d="M29.1753 55.6399C29.0653 57.3496 28.1255 58.7892 27.9056 56.6297C27.6856 54.4802 26.5959 56.8997 26.2359 58.8992C26.066 59.899 24.4863 60.4588 23.6465 60.6188C23.7165 60.2489 23.7765 59.849 23.8365 59.4291C24.9662 52.1607 25.4461 38.8538 25.0262 36.5443C24.6463 34.4848 24.1264 31.2755 20.4073 27.7363C20.6972 27.8963 23.8965 30.4957 25.1562 32.1453C26.4859 33.8549 27.2257 37.864 26.8658 40.9833C25.6161 51.9908 29.2652 53.9203 29.1653 55.6399H29.1753Z" fill="#C7A179"/>
<path d="M35.004 44.1401C34.5341 46.3596 32.8245 46.1497 31.9947 47.5893C31.7447 48.0292 31.4248 48.3092 31.1249 48.4991H31.1149C31.1149 48.4991 31.0849 48.5191 31.0349 48.5491C30.8849 48.6291 30.585 48.7591 30.2451 48.8191C30.2551 48.7891 30.2651 48.7191 30.295 48.6191C30.545 47.2094 31.8547 39.7911 30.9949 39.3412C30.0351 38.8313 29.8951 38.7214 29.8951 38.7214L31.5848 37.8516C31.5848 37.8516 32.9345 40.141 33.5943 40.5909C34.864 41.4807 35.2639 42.9504 35.014 44.1401H35.004Z" fill="#B57633"/>
<path d="M33.1444 45.9488C33.0345 46.0088 32.9345 46.0688 32.8245 46.1487C32.7245 46.2287 32.6246 46.3087 32.5246 46.4087C32.4146 46.5087 32.3146 46.6186 32.2046 46.7586C32.0947 46.8786 32.0047 47.0185 31.9047 47.1485C31.8047 47.2885 31.7148 47.4284 31.6348 47.5784C31.5348 47.7384 31.4448 47.8983 31.3648 48.0483C30.795 49.0181 29.4053 49.1081 28.7155 48.1983L28.6954 48.1783C28.5055 47.9283 28.3155 47.6684 28.1356 47.3984C27.7956 46.8986 27.4957 46.3987 27.3058 45.8888C27.2458 45.7688 27.2158 45.6389 27.1858 45.5189C27.1358 45.3789 27.1158 45.2589 27.0958 45.129C27.0258 44.7091 27.0458 44.2992 27.2158 43.8993C27.6957 42.7295 28.3855 40.9999 28.9754 39.5502C29.4253 38.4005 30.9449 38.2006 31.7048 39.1603C31.7248 39.1703 31.7348 39.1803 31.7548 39.2103C31.9547 39.4803 32.1647 39.7602 32.3646 40.0201C32.4646 40.1601 32.5646 40.2801 32.6645 40.4001C32.7645 40.52 32.8645 40.65 32.9645 40.76C33.1744 40.9899 33.3744 41.1899 33.5543 41.3498C33.8743 41.6398 34.1142 42.0197 34.2742 42.4296C34.7541 43.6793 34.4541 45.2689 33.1544 45.9588L33.1444 45.9488Z" fill="#8C5112"/>
<g style="mix-blend-mode:multiply" opacity="0.75">
<path d="M33.1444 45.949C33.0344 46.009 32.9344 46.069 32.8245 46.149C32.7245 46.219 32.6245 46.3089 32.5245 46.4089C32.4146 46.5089 32.3146 46.6189 32.2046 46.7588C32.0946 46.8788 32.0047 47.0188 31.9047 47.1487C31.8047 47.2887 31.7147 47.4287 31.6347 47.5786C31.5348 47.7386 31.4448 47.8986 31.3648 48.0485C31.2548 48.2385 31.1049 48.3985 30.9349 48.5184C30.9349 48.5184 30.9282 48.5218 30.9149 48.5284C30.645 48.7184 30.3151 48.8184 29.9951 48.8184C29.9051 48.8184 29.8152 48.8084 29.7352 48.7984C29.7152 48.7984 29.6852 48.7884 29.6652 48.7884C29.6452 48.7884 29.6352 48.7784 29.6052 48.7784C29.2653 48.6984 28.9554 48.5084 28.7154 48.1885L28.6954 48.1685C28.5055 47.9186 28.3155 47.6586 28.1355 47.3887C27.7956 46.8888 27.4957 46.3889 27.3057 45.879C27.2458 45.7591 27.2158 45.6291 27.1858 45.5091C27.1358 45.3691 27.1158 45.2492 27.0958 45.1192C27.0458 44.8193 27.0458 43.9495 27.1258 43.2396C27.1558 42.9897 27.1958 42.7697 27.2358 42.5998C27.5657 41.3701 28.1556 40.6002 28.9754 39.5405C29.8652 38.3907 30.9449 38.1908 31.7047 39.1506C31.7247 39.1606 31.7347 39.1706 31.7547 39.2006C31.9547 39.4705 32.1646 39.7504 32.3646 40.0104C32.4646 40.1503 32.5645 40.2703 32.6645 40.3903C32.7645 40.5103 32.8645 40.6402 32.9645 40.7502C33.1744 40.9801 33.3744 41.1801 33.5543 41.3401C33.8742 41.63 34.1142 42.0099 34.2741 42.4198C34.754 43.6695 34.4541 45.2592 33.1544 45.949H33.1444Z" fill="#7B83DB"/>
</g>
<g style="mix-blend-mode:multiply" opacity="0.32">
<path d="M33.1444 45.9501C33.0344 46.0101 32.9345 46.07 32.8245 46.15C32.7245 46.23 32.6245 46.31 32.5246 46.41C32.4146 46.5099 32.3146 46.6199 32.2046 46.7599C32.0947 46.8799 32.0047 47.0098 31.9047 47.1498C31.8147 47.2898 31.7147 47.4297 31.6348 47.5797C31.5348 47.7397 31.4448 47.8996 31.3648 48.0496C30.795 49.0194 29.4053 49.1093 28.7154 48.1996L28.6954 48.1796C28.5055 47.9296 28.3155 47.6697 28.1356 47.3997C27.5157 45.0403 28.3255 42.8108 28.9454 41.671C29.1853 41.2411 29.4753 40.9112 29.7752 40.6813C30.695 39.9414 32.0247 40.0114 32.9545 40.7513C33.1644 40.9812 33.3644 41.1812 33.5443 41.3411C33.8642 41.6311 34.1042 42.011 34.2642 42.4209C34.744 43.6706 34.4441 45.2602 33.1444 45.9501Z" fill="#7B83DB"/>
</g>
<g style="mix-blend-mode:multiply" opacity="0.15">
<path d="M33.1444 45.9491C33.0344 46.0091 32.9344 46.0691 32.8245 46.1491C32.7245 46.2291 32.6245 46.309 32.5245 46.409C32.4146 46.509 32.3146 46.619 32.2046 46.7589C32.0946 46.8789 32.0047 47.0089 31.9047 47.1489C31.8147 47.2888 31.7147 47.4288 31.6347 47.5788C31.5348 47.7387 31.4448 47.8987 31.3648 48.0486C30.7949 49.0184 29.4053 49.1084 28.7154 48.1986L28.6954 48.1786C28.4855 46.1691 29.6652 44.1995 30.675 42.8698C31.7747 41.4202 33.8442 42.24 34.2641 42.4199C34.744 43.6697 34.4441 45.2593 33.1444 45.9491Z" fill="#7B83DB"/>
</g>
<path d="M31.1149 48.5095C31.1149 48.5095 31.0849 48.5295 31.0349 48.5595C30.8849 48.6395 30.585 48.7695 30.2451 48.8295C30.1651 48.8495 30.0751 48.8595 29.9851 48.8595C29.8951 48.8595 29.2153 48.8795 28.7154 48.2096L28.6954 48.1896C28.5055 47.9397 28.3155 47.6797 28.1355 47.4098C27.7956 46.9099 27.4957 46.41 27.3057 45.9001C27.2458 45.7802 27.2158 45.6502 27.1858 45.5302C27.1358 45.3903 27.1158 45.2703 27.0958 45.1403C27.0458 44.8404 27.0458 43.9706 27.1258 43.2607C27.1258 43.4607 27.1558 45.8502 27.9056 46.7299C28.5755 47.5198 28.9154 48.6995 30.3051 48.6395C30.495 48.6395 30.695 48.6195 30.9249 48.5595C30.9249 48.5595 30.9316 48.5562 30.9449 48.5495C30.9449 48.5495 31.0849 48.5395 31.1249 48.5295L31.1149 48.5095Z" fill="#A6631C"/>
<path d="M27.3357 40.6003C28.0656 39.2206 29.1953 38.4707 30.7649 37.6709C31.6947 37.201 31.4348 36.2812 31.4348 36.2812C31.4348 36.2812 32.0247 36.4212 31.8847 37.251C31.7447 38.0808 30.595 38.5007 30.0351 38.8307C27.4857 40.3203 26.6059 43.7395 27.2957 45.8891C27.2957 45.8891 26.066 42.9897 27.3357 40.5903V40.6003Z" fill="#B57633"/>
<path d="M31.6447 37.7715C31.6447 37.7715 31.5448 38.0514 31.2448 38.3014C30.9449 38.5513 30.1851 38.7813 30.0651 38.8412C29.2553 39.2012 27.3957 41.1107 27.1258 43.4802C27.1258 43.4802 27.1258 41.7606 28.2155 40.3909C29.3053 39.0212 30.1551 38.6513 30.535 38.5013C30.9149 38.3514 31.3848 38.1514 31.6447 37.7815V37.7715Z" fill="#A6631C"/>
<path d="M7.3803 20.317C7.3803 20.317 5.97062 19.4272 5.60071 21.7567C5.60071 21.7567 1.30168 22.0266 1.03174 26.4256C0.971757 27.4653 1.1417 28.1952 1.45163 28.6951C0.561834 28.3252 -0.0979869 27.4154 0.011988 25.4958C0.291924 20.9668 4.73091 20.6869 4.73091 20.6869C5.11082 18.2775 6.56048 19.1972 6.56048 19.1972C6.13058 17.2277 7.3103 16.008 8.37006 15.3281C9.45981 15.798 10.4896 15.868 10.5896 15.878C10.3996 15.938 6.68046 17.0777 7.3803 20.307V20.317Z" fill="#D9D730"/>
<path d="M52.0301 14.7184C52.8199 12.5189 53.3998 8.41979 47.851 6.6302C47.851 6.6302 47.2312 4.34073 44.5618 4.97058C44.5618 4.97058 44.3719 1.78131 39.8029 1.70133C35.2239 1.62135 33.3544 3.65089 32.8845 5.09056C32.8845 5.09056 31.3948 4.49069 30.0751 5.04057C28.7654 5.59044 28.4855 6.37026 28.4855 6.37026C28.4855 6.37026 28.0356 5.7704 26.8159 5.7604C25.6062 5.7604 25.0963 6.40026 25.0963 6.40026C25.0963 6.40026 23.9665 2.23121 18.5777 1.92128C13.179 1.61135 11.5794 5.06056 11.5794 5.06056C11.5794 5.06056 9.97974 4.73064 9.31989 5.61044C8.66004 6.49024 8.60005 7.52 8.60005 7.52C8.60005 7.52 5.46077 8.33981 5.7907 11.989C5.83069 12.3689 5.90065 12.7188 6.02063 13.0287C5.45076 12.4589 5.01085 11.679 4.92087 10.6193C4.58095 6.86015 7.82023 6.01035 7.82023 6.01035C7.82023 6.01035 7.88021 4.94059 8.56005 4.0408C9.2399 3.141 10.8895 3.47093 10.8895 3.47093C10.8895 3.47093 12.5391 -0.0882585 18.1079 0.231668C23.6766 0.551595 24.8363 4.85061 24.8363 4.85061C24.8363 4.85061 25.3662 4.18076 26.6159 4.19076C27.8656 4.19076 28.3355 4.82062 28.3355 4.82062C28.3355 4.82062 28.6255 4.0208 29.9752 3.45093C31.3249 2.89106 32.8645 3.50092 32.8645 3.50092C33.3444 2.01126 35.2839 -0.0682631 40.0029 0.00172092C44.7118 0.0817026 44.9117 3.37095 44.9117 3.37095C47.6611 2.7111 48.311 5.08056 48.311 5.08056C55.5193 7.40003 52.69 13.4986 52.0501 14.6984L52.0301 14.7184Z" fill="#D9D730"/>
<path d="M56.3291 25.3961C56.3291 25.3961 59.5883 20.6972 54.0696 18.5177C54.0696 18.5177 54.9794 15.6283 51.9501 14.9285H51.9201C51.9201 14.9285 51.9601 14.8485 52.0401 14.7185C52.8299 12.519 53.4098 8.41997 47.861 6.63038C47.861 6.63038 47.2412 4.34091 44.5718 4.97076C44.5718 4.97076 44.3818 1.78149 39.8129 1.70151C35.2339 1.62153 33.3643 3.65107 32.8945 5.09074C32.8945 5.09074 31.4048 4.49087 30.0851 5.04075C28.7754 5.59062 28.4955 6.37044 28.4955 6.37044C28.4955 6.37044 28.0456 5.77058 26.8258 5.76058C25.6161 5.76058 25.1062 6.40044 25.1062 6.40044C25.1062 6.40044 23.9765 2.23139 18.5877 1.92146C13.189 1.61153 11.5893 5.06074 11.5893 5.06074C11.5893 5.06074 9.98969 4.73082 9.32984 5.61062C8.66999 6.49042 8.61001 7.52018 8.61001 7.52018C8.61001 7.52018 5.47073 8.33999 5.80065 11.9892C5.84064 12.3691 5.91064 12.719 6.03061 13.0289C6.48051 14.2286 7.45027 14.9285 8.39005 15.3284C9.47981 15.7983 10.5096 15.8683 10.6095 15.8783C10.4196 15.9383 6.70045 17.078 7.40029 20.3073C7.40029 20.3073 5.99062 19.4175 5.6207 21.7469C5.6207 21.7469 1.32168 22.0169 1.05174 26.4159C0.991752 27.4556 1.16173 28.1855 1.47166 28.6853C2.67138 29.1852 4.28102 28.7053 4.88088 28.4354C4.88088 28.4354 4.47096 28.9553 4.65092 29.6151C4.7309 29.9151 4.94085 30.245 5.36075 30.5749C5.45073 30.6449 5.55072 30.6949 5.6607 30.7449C6.46052 31.0548 7.72022 30.7449 7.87018 30.4949C7.87018 30.4949 7.75021 31.0148 7.96016 31.5647C8.07014 31.8546 8.28008 32.1545 8.64 32.3845L8.81998 32.4945C9.92973 33.1743 11.9892 34.1041 14.1887 31.7646C14.1887 31.7646 19.0276 30.4849 19.9774 27.6956C20.9272 24.8962 20.7772 24.2963 20.5173 23.8065C20.5173 23.8065 22.3069 24.5163 23.2467 23.3566C24.1865 22.1968 24.5564 21.7369 25.4262 22.0169C26.296 22.2868 26.4159 21.327 26.7659 21.1271C26.7659 21.1271 26.8259 21.6769 26.9758 22.1868C27.0858 22.5567 27.2558 22.9067 27.4757 23.0166C28.0156 23.2566 28.4555 24.8062 30.295 24.4463C30.295 24.4463 32.1746 25.666 33.2144 24.5863C33.2144 24.5863 34.4041 25.3661 35.4039 24.3463C35.4039 24.3463 35.9038 26.9957 37.4734 27.2257C37.4734 27.2257 38.3932 28.5054 40.1628 27.4956C40.1628 27.4956 40.6327 30.9448 46.2414 30.8948C46.2414 30.8948 46.0814 33.0443 48.6409 33.1243C50.4704 33.1843 50.8603 32.1545 50.8603 32.1545C50.8603 32.1545 54.0296 34.324 56.1791 32.3645L56.2991 32.2545C58.3486 30.325 58.8085 28.2254 56.3291 25.3961Z" fill="#C7C52C"/>
<mask id="mask0_185_19634" style="mask-type:luminance" maskUnits="userSpaceOnUse" x="1" y="1" width="58" height="33">
<path d="M56.3291 25.3961C56.3291 25.3961 59.5883 20.6972 54.0696 18.5177C54.0696 18.5177 54.9794 15.6283 51.9501 14.9285H51.9201C51.9201 14.9285 51.9601 14.8485 52.0401 14.7185C52.8299 12.519 53.4098 8.41997 47.861 6.63038C47.861 6.63038 47.2412 4.34091 44.5718 4.97076C44.5718 4.97076 44.3818 1.78149 39.8129 1.70151C35.2339 1.62153 33.3643 3.65107 32.8945 5.09074C32.8945 5.09074 31.4048 4.49087 30.0851 5.04075C28.7754 5.59062 28.4955 6.37044 28.4955 6.37044C28.4955 6.37044 28.0456 5.77058 26.8258 5.76058C25.6161 5.76058 25.1062 6.40044 25.1062 6.40044C25.1062 6.40044 23.9765 2.23139 18.5877 1.92146C13.189 1.61153 11.5893 5.06074 11.5893 5.06074C11.5893 5.06074 9.98969 4.73082 9.32984 5.61062C8.66999 6.49042 8.61001 7.52018 8.61001 7.52018C8.61001 7.52018 5.47073 8.33999 5.80065 11.9892C5.84064 12.3691 5.91064 12.719 6.03061 13.0289C6.48051 14.2286 7.45027 14.9285 8.39005 15.3284C9.47981 15.7983 10.5096 15.8683 10.6095 15.8783C10.4196 15.9383 6.70045 17.078 7.40029 20.3073C7.40029 20.3073 5.99062 19.4175 5.6207 21.7469C5.6207 21.7469 1.32168 22.0169 1.05174 26.4159C0.991752 27.4556 1.16173 28.1855 1.47166 28.6853C2.67138 29.1852 4.28102 28.7053 4.88088 28.4354C4.88088 28.4354 4.47096 28.9553 4.65092 29.6151C4.7309 29.9151 4.94085 30.245 5.36075 30.5749C5.45073 30.6449 5.55072 30.6949 5.6607 30.7449C6.46052 31.0548 7.72022 30.7449 7.87018 30.4949C7.87018 30.4949 7.75021 31.0148 7.96016 31.5647C8.07014 31.8546 8.28008 32.1545 8.64 32.3845L8.81998 32.4945C9.92973 33.1743 11.9892 34.1041 14.1887 31.7646C14.1887 31.7646 19.0276 30.4849 19.9774 27.6956C20.9272 24.8962 20.7772 24.2963 20.5173 23.8065C20.5173 23.8065 22.3069 24.5163 23.2467 23.3566C24.1865 22.1968 24.5564 21.7369 25.4262 22.0169C26.296 22.2868 26.4159 21.327 26.7659 21.1271C26.7659 21.1271 26.8259 21.6769 26.9758 22.1868C27.0858 22.5567 27.2558 22.9067 27.4757 23.0166C28.0156 23.2566 28.4555 24.8062 30.295 24.4463C30.295 24.4463 32.1746 25.666 33.2144 24.5863C33.2144 24.5863 34.4041 25.3661 35.4039 24.3463C35.4039 24.3463 35.9038 26.9957 37.4734 27.2257C37.4734 27.2257 38.3932 28.5054 40.1628 27.4956C40.1628 27.4956 40.6327 30.9448 46.2414 30.8948C46.2414 30.8948 46.0814 33.0443 48.6409 33.1243C50.4704 33.1843 50.8603 32.1545 50.8603 32.1545C50.8603 32.1545 54.0296 34.324 56.1791 32.3645L56.2991 32.2545C58.3486 30.325 58.8085 28.2254 56.3291 25.3961Z" fill="white"/>
</mask>
<g mask="url(#mask0_185_19634)">
<path d="M20.1274 7.52937C19.9474 5.92974 17.9479 5.44985 16.4782 6.00972C15.2885 6.46962 14.2187 7.54937 14.1887 8.7291C13.129 8.2992 11.7493 8.7291 11.1594 9.66888C10.3196 10.9986 11.0195 12.5482 12.2592 13.458C12.5991 13.708 13.089 13.2681 12.7491 13.0181C11.8193 12.3383 11.1494 11.2385 11.6593 10.1688C12.1292 9.18899 13.5989 8.77909 14.4387 9.66888C14.6586 9.90883 15.1285 9.63889 15.0185 9.35895C14.5786 8.2792 15.4584 7.19945 16.4982 6.68957C17.498 6.19968 19.2976 6.24967 19.4375 7.53937C19.4775 7.92928 20.1774 7.91928 20.1374 7.52937H20.1274Z" fill="#E3E132"/>
<path d="M25.5161 16.1375C25.1662 15.7776 24.8163 15.3077 24.3364 15.0677C23.8365 14.8178 23.2367 14.8778 22.7168 15.0177C22.2169 15.1477 21.747 15.3277 21.5171 15.7776C21.4571 15.9075 21.3971 16.0375 21.3371 16.1675C21.2171 15.9175 21.0572 15.6876 20.8172 15.4876C20.2973 15.0677 19.5575 14.9777 18.9576 15.3177C18.4178 15.6276 18.0878 16.1675 18.0478 16.7273C18.0079 17.4272 18.3678 18.087 18.7777 18.6669C19.0176 19.0068 19.6175 18.6869 19.3776 18.347C18.8877 17.6571 18.3378 16.5974 19.1876 15.9275C19.5575 15.6376 20.0074 15.6576 20.3673 15.9575C20.7972 16.3174 20.8872 16.8873 20.9672 17.3872C21.0172 17.7071 21.5571 17.8271 21.657 17.4572C21.757 17.0773 21.877 16.6973 22.0269 16.3274C22.0969 16.1475 22.1669 15.9375 22.3469 15.8175C22.4968 15.7076 22.7368 15.6576 22.9167 15.6176C23.3166 15.5176 23.7965 15.4476 24.1364 15.6976C24.4764 15.9475 24.7463 16.2874 25.0363 16.5774C25.3362 16.8773 25.8161 16.4374 25.5261 16.1375H25.5161Z" fill="#E3E132"/>
<path d="M9.92971 28.453C9.57979 28.3331 9.17988 28.1531 9.13989 27.7832C9.0999 27.3733 9.40983 27.0034 9.64978 26.6835C9.85973 26.4035 9.44981 26.1436 9.16988 26.2635C8.92993 26.3735 8.67999 26.4635 8.42005 26.5335C8.2201 26.5835 7.90017 26.6835 7.70021 26.5635C7.42028 26.3935 7.63023 25.9136 7.70021 25.6937C7.7602 25.5437 7.62023 25.3438 7.45027 25.3238C7.17034 25.2738 6.69047 25.2238 6.63048 24.9139C6.5705 24.6439 6.82044 24.364 7.04039 24.214C7.53028 23.8841 8.2201 23.8941 8.70999 24.214C8.85996 24.314 9.0999 24.224 9.17989 24.094C9.27986 23.9341 9.19988 23.7741 9.04991 23.6741C8.27009 23.1543 7.09038 23.2742 6.41053 23.8741C6.05061 24.184 5.81066 24.6839 5.96062 25.1238C6.10059 25.5337 6.50049 25.7337 6.92039 25.8436C6.81042 26.2835 6.82042 26.7734 7.27032 27.0534C7.64023 27.2833 8.10013 27.2633 8.55003 27.1533C8.44005 27.4233 8.39007 27.7032 8.46005 28.0032C8.60002 28.573 9.17988 28.863 9.73976 29.0429C9.91971 29.1029 10.1197 28.9629 10.1597 28.823C10.2097 28.643 10.0797 28.503 9.90973 28.453H9.92971Z" fill="#E3E132"/>
<path d="M15.1194 18.7052C14.5594 18.1452 13.6794 17.8952 12.8594 18.0352C12.1094 18.1652 11.4394 18.6552 11.1494 19.2752C11.0794 19.4252 11.0994 19.6052 11.2794 19.6952C11.4294 19.7652 11.6794 19.7352 11.7494 19.5752C11.9694 19.0952 12.4295 18.7352 13.0095 18.6252C13.6095 18.5152 14.2394 18.7352 14.6294 19.1352C14.7494 19.2552 14.9994 19.2452 15.1194 19.1352C15.2594 19.0052 15.2394 18.8252 15.1194 18.6952V18.7052Z" fill="#E3E132"/>
<path d="M38.6931 10.7381C38.3931 10.4782 37.9432 10.3382 37.5233 10.3882C36.8235 10.4582 36.3536 10.8481 35.9137 11.278C35.8937 11.148 35.8537 11.0181 35.7837 10.8981C35.5438 10.4882 35.0439 10.2982 34.534 10.3382C34.0741 10.3782 33.6142 10.5782 33.3943 10.9581C33.1743 11.338 33.2343 11.7779 33.5542 12.0978C33.8542 12.3978 34.3341 11.9479 34.0441 11.6579C33.9142 11.528 33.9441 11.318 34.0441 11.188C34.1941 11.0181 34.464 10.9481 34.694 10.9481C35.4138 10.9681 35.2439 11.6879 35.1239 12.1078C35.0439 12.4078 35.4638 12.6177 35.7138 12.3978C36.2036 11.9579 36.6035 11.318 37.2734 11.0681C37.5233 10.9781 37.8033 10.9581 38.0432 11.0681C38.3431 11.208 38.3531 11.448 38.3032 11.7279C38.2332 12.1178 38.913 12.2678 38.983 11.8779C39.053 11.458 39.043 11.0481 38.6831 10.7281L38.6931 10.7381Z" fill="#E3E132"/>
<path d="M50.3604 23.0641C49.3807 22.5942 48.131 22.6042 47.0512 22.9242C47.0312 22.7342 46.9612 22.5543 46.8013 22.4243C46.4114 22.1144 45.8015 22.0844 45.2416 22.1943C45.5516 21.6345 45.7515 21.0346 45.1616 20.5547C44.3618 19.9149 43.2821 20.4847 42.9322 21.2246C42.7622 21.5845 43.362 21.8944 43.542 21.5245C43.652 21.2945 43.792 21.0746 44.0519 20.9546C44.3318 20.8246 44.7018 20.8846 44.8117 21.1646C45.0017 21.6445 44.4218 22.2043 44.2119 22.6042C44.0719 22.8742 44.3818 23.1941 44.6917 23.0241C45.1016 22.8042 45.5915 22.6942 46.0714 22.7842C46.5313 22.8742 46.3714 23.0941 46.1214 23.2741C45.9815 23.3441 45.8515 23.4241 45.7215 23.504C45.3616 23.734 45.6715 24.2139 46.0814 24.0339C46.2714 23.9539 46.4613 23.854 46.6213 23.744C47.5611 23.3041 48.6608 23.1941 49.6906 23.474C50.0205 23.564 50.3005 23.664 50.2205 24.0139C50.1505 24.2839 49.9405 24.5338 49.7706 24.7637C49.3507 25.3036 48.8508 25.7935 48.3009 26.2334C47.971 26.5033 48.4709 26.9332 48.8008 26.6633C49.5706 26.0535 52.0701 23.8739 50.3705 23.0541L50.3604 23.0641Z" fill="#E3E132"/>
<path d="M43.482 6.00949C42.2323 5.57959 40.8126 5.85952 39.8329 6.65934C39.5029 6.92928 40.0028 7.35918 40.3327 7.08924C41.0626 6.48938 42.1023 6.26943 43.0621 6.52937C43.8719 6.74932 45.1716 7.61912 44.5118 8.46893C44.2518 8.79885 44.8617 9.09878 45.1217 8.76886C46.0114 7.62912 44.6317 6.3894 43.482 5.99949V6.00949Z" fill="#E3E132"/>
<path d="M32.3546 8.44814C32.1246 7.91826 31.4348 7.88827 30.8849 8.00824C29.8152 8.22819 29.1753 9.00801 28.7354 9.84782C28.6554 9.75784 28.5754 9.66786 28.4855 9.58788C28.2855 9.39792 28.0656 9.18797 27.7456 9.22796C27.5357 9.25795 27.3957 9.38792 27.3257 9.54789C27.2258 9.39792 27.1258 9.24795 27.0058 9.11798C26.6559 8.70808 26.056 8.68808 25.5761 8.93803C24.5064 9.4879 24.6364 10.6776 24.8463 11.5974C24.9363 11.9873 25.6061 11.8174 25.5161 11.4275C25.3762 10.8176 25.1862 9.9378 25.8661 9.5079C25.996 9.42791 26.166 9.35793 26.326 9.40792C26.5159 9.4679 26.6259 9.71785 26.7159 9.86781C26.9358 10.2077 27.1258 10.5477 27.3158 10.8976C27.4657 11.1975 27.9556 11.0176 27.9656 10.7276C27.9656 10.5577 27.9656 10.3877 27.9656 10.2077C27.9656 10.1577 27.9556 10.0478 27.9556 9.94779C28.0456 10.0278 28.1256 10.1378 28.1556 10.1677C28.2855 10.3077 28.4055 10.4577 28.5155 10.6076C28.6954 10.8476 29.0454 10.7776 29.1553 10.5277C29.4553 9.80783 29.8751 9.048 30.695 8.69808C30.9549 8.58811 31.5948 8.38815 31.7247 8.71808C31.8847 9.11798 31.8147 9.62787 31.7247 10.0278C31.6348 10.4177 32.3046 10.5677 32.4046 10.1777C32.5346 9.62787 32.5945 8.96802 32.3546 8.43814V8.44814Z" fill="#E3E132"/>
<path d="M37.2035 20.4652C36.9435 20.3952 36.6636 20.3952 36.3837 20.4152C36.5236 20.2453 36.6336 20.0553 36.6536 19.8154C36.6936 19.3655 36.3537 18.9856 35.8338 18.9656C34.774 18.9256 33.7843 19.5954 32.9944 20.1253C32.8445 20.2253 32.7745 20.3953 32.8745 20.5452C32.9645 20.6752 33.2044 20.7552 33.3543 20.6552C33.9842 20.2353 34.6541 19.7854 35.4339 19.6254C35.5539 19.6054 35.8038 19.5354 35.9038 19.6054C35.9738 19.6554 35.9637 19.7854 35.9437 19.8554C35.9138 19.9953 35.8038 20.1153 35.6938 20.2153C35.5438 20.3653 35.3839 20.5152 35.2539 20.6852C35.114 20.8651 35.3139 21.1751 35.5639 21.1451C35.9438 21.0951 36.3337 21.0451 36.7136 21.0451C37.0035 21.0451 37.2435 21.1051 37.1635 21.395C37.0735 21.695 36.8535 21.9649 36.6036 22.1848C36.4736 22.3048 36.3337 22.4048 36.1937 22.5048L35.7738 22.7447C35.3739 22.5648 35.024 23.1046 35.4339 23.2846C35.9838 23.5245 36.5236 23.0846 36.9135 22.7847C37.3334 22.4548 37.6934 22.0349 37.8333 21.555C37.9733 21.0751 37.7334 20.6352 37.1835 20.4852L37.2035 20.4652Z" fill="#E3E132"/>
<path d="M47.6611 16.356C47.891 16.196 48.101 16.026 48.2909 15.8361C48.6209 15.4962 48.9308 15.0862 48.8508 14.6164C48.6808 13.5666 47.0112 13.7266 46.1614 13.8765C45.7215 13.9565 45.9215 14.5464 46.3514 14.4664C46.7413 14.3964 47.1512 14.3764 47.5511 14.4064C47.861 14.4264 48.211 14.4664 48.171 14.8163C48.131 15.1262 47.8111 15.4062 47.5811 15.6061C47.3212 15.8361 47.0312 16.016 46.7213 16.176C46.4414 16.316 46.5414 16.6559 46.8113 16.7359C47.1812 16.8458 47.5411 16.9758 47.881 17.1458C48.161 17.2857 48.3009 17.4457 48.121 17.7156C47.8211 18.1555 47.1412 18.5555 46.5613 18.5854C46.1115 18.6054 46.1314 19.2253 46.5813 19.2053C47.0712 19.1753 47.5111 19.0053 47.901 18.7554C48.281 18.5055 48.6709 18.2155 48.8408 17.8156C49.1608 17.0558 48.4009 16.6259 47.6611 16.366V16.356Z" fill="#E3E132"/>
<path d="M54.6602 30.0141C54.6002 29.7841 54.3902 29.6141 54.1302 29.5841C54.2102 29.4541 54.2902 29.3241 54.3302 29.1841C54.4702 28.7741 54.2102 28.4141 53.7602 28.2941C53.4002 28.2041 52.9902 28.2541 52.6402 28.3341C52.2402 28.4241 51.8802 28.6141 51.6602 28.9341C51.5602 29.0741 51.6302 29.2741 51.7902 29.3541C51.9602 29.4441 52.1602 29.3841 52.2602 29.2341C52.3102 29.1641 52.3902 29.0941 52.4802 29.0441C52.5902 28.9841 52.6502 28.9641 52.7902 28.9341C52.9302 28.8941 53.0402 28.8841 53.1602 28.8741H53.3402H53.4302H53.4802L53.5702 28.8941H53.5902L53.6502 28.9241V28.9641L53.6302 29.0241L53.6102 29.0641C53.4802 29.3341 53.2802 29.5741 53.0502 29.7741C52.8802 29.9241 52.9402 30.2541 53.2102 30.2941C53.4302 30.3241 53.6102 30.2841 53.8202 30.2141L53.9402 30.1841V30.2441L53.9202 30.2741L53.9002 30.3041L53.8402 30.3941C53.7202 30.5441 53.5702 30.6941 53.4102 30.8041C53.2602 30.9041 53.1902 31.0741 53.2902 31.2241C53.3802 31.3541 53.6202 31.4341 53.7702 31.3341C54.2102 31.0441 54.7802 30.5341 54.6302 29.9941L54.6602 30.0141Z" fill="#E3E132"/>
<path d="M17.418 26.0235C17.258 26.4734 16.9881 26.9733 16.5882 27.3033C16.4482 27.4132 16.3182 27.4332 16.1783 27.3033C16.0183 27.1333 16.0183 26.8734 16.0083 26.6634C15.9883 26.3835 15.5084 26.2235 15.3584 26.5134C15.1585 26.8834 14.7386 27.6232 14.1687 27.2333C13.9488 27.0833 13.8488 26.8334 13.7988 26.6034C13.7688 26.4634 13.7688 26.3335 13.7588 26.1935C13.7588 26.1335 13.7588 26.0735 13.7588 26.0036V25.9136C14.1787 25.8836 14.1587 25.3037 13.7188 25.3037C13.049 25.3037 13.039 25.9636 13.069 26.3835C13.109 26.8234 13.2289 27.2733 13.5888 27.6032C13.9388 27.9131 14.4486 28.0431 14.9185 27.8731C15.1585 27.7831 15.3385 27.6532 15.4984 27.4832C15.5384 27.5432 15.5784 27.6132 15.6284 27.6732C15.8783 27.9431 16.2882 28.0931 16.6681 27.9631C17.038 27.8431 17.298 27.5232 17.508 27.2433C17.7579 26.9133 17.9478 26.5434 18.0778 26.1735C18.2178 25.7936 17.5379 25.6436 17.398 26.0235H17.418Z" fill="#E3E132"/>
<path d="M32.7453 16.7173C32.7253 16.4073 32.7352 15.9973 32.5252 15.7273C32.3352 15.4673 31.9453 15.3673 31.6553 15.5273C31.5953 15.1773 31.4153 14.7873 31.0353 14.6473C30.6353 14.4873 30.2052 14.6273 29.9252 14.9173C29.6452 15.2173 29.4952 15.5973 29.3852 15.9673C29.3152 16.1973 29.2352 16.4573 29.3052 16.6973C29.3752 16.9573 29.6152 17.1273 29.9152 17.1473C30.1052 17.1473 30.2553 16.9873 30.2553 16.8273C30.2553 16.6773 30.1253 16.5673 29.9753 16.5373V16.5173C29.9753 16.4473 29.9953 16.3773 30.0053 16.3073C30.0553 16.1173 30.1153 15.9273 30.1853 15.7373C30.2453 15.6073 30.3053 15.4773 30.4053 15.3573C30.4653 15.2873 30.5652 15.2073 30.6352 15.1873H30.7153L30.8153 15.2573C30.8953 15.3473 30.9353 15.4873 30.9653 15.6173C31.0453 15.9573 31.0352 16.3373 30.9852 16.6873C30.9252 17.0873 31.4952 17.2073 31.6652 16.8373C31.7652 16.6073 31.8653 16.3773 31.9753 16.1573V16.1973C32.0353 16.4273 32.0452 16.6673 32.0552 16.9073C32.0552 17.1573 32.0352 17.3873 31.9552 17.6273C31.8952 17.7873 32.0352 17.9673 32.2052 17.9973C32.3952 18.0373 32.5753 17.9373 32.6253 17.7773C32.7453 17.4373 32.7652 17.0773 32.7352 16.7173H32.7453Z" fill="#E3E132"/>
<path d="M20.5573 10.9971C20.4273 10.6272 20.5273 10.2473 20.2273 9.92736C19.9474 9.62743 19.4675 9.57744 19.1376 9.84737C18.8576 10.0873 18.7877 10.4572 18.7277 10.7772C18.6977 10.9471 18.6777 11.1071 18.6677 11.267C18.5877 11.2371 18.4977 11.2071 18.4177 11.1771C18.0278 11.0671 17.5179 11.0071 17.168 11.2271C16.9181 11.387 16.7681 11.647 16.7381 11.9269C16.4882 11.8469 16.2282 11.8469 15.9983 11.9769C15.6284 12.1768 15.6584 12.5867 15.8083 12.8967C15.9583 13.2266 16.2282 13.4965 16.5882 13.6765C16.9781 13.8765 17.318 13.3366 16.9281 13.1366C16.7581 13.0466 16.6181 12.9367 16.5182 12.7767C16.4682 12.7067 16.4382 12.6267 16.4182 12.5468V12.4968L16.5682 12.5268C16.6682 12.5668 16.7581 12.6167 16.8481 12.6667C16.9681 12.7367 17.0681 12.8267 17.158 12.9167C17.228 12.9967 17.298 13.0766 17.378 13.1566C17.6279 13.4266 18.1378 13.0666 17.9178 12.7767C17.8479 12.6867 17.7679 12.5967 17.6679 12.4968C17.5779 12.3868 17.4979 12.2668 17.458 12.1369C17.418 12.0069 17.428 11.8069 17.5779 11.7169C17.7479 11.617 18.1178 11.7169 18.2878 11.7769C18.4977 11.8369 18.6677 11.9469 18.7677 12.1269C18.9576 12.4568 19.4775 12.2068 19.3975 11.8869C19.3375 11.627 19.3475 11.357 19.3775 11.0971C19.4075 10.8771 19.4375 10.6172 19.5375 10.4072L19.5975 10.3073L19.6374 10.2773C19.7074 10.2973 19.7474 10.3773 19.7674 10.4372C19.8474 10.6672 19.8074 10.9271 19.8874 11.1671C20.0174 11.547 20.6872 11.377 20.5573 10.9971Z" fill="#BDBB38"/>
<path d="M9.84012 12.4186C9.77012 12.4186 9.70013 12.3986 9.63013 12.3786L9.53012 12.3486H9.51013V12.3386L9.34012 12.2586L9.25012 12.2086L9.21012 12.1786C9.10012 12.0986 9.02013 12.0186 8.97013 11.9486L8.87012 11.7986V11.7786L8.85013 11.7586L8.82013 11.6686C8.78013 11.5486 8.78012 11.4986 8.78012 11.3586V11.2786L8.80011 11.2186C8.81011 11.1586 8.84011 11.0886 8.86011 11.0286C8.86011 10.9986 8.88011 10.9786 8.92011 10.9086L9.02011 10.7586L9.04013 10.7386L9.06012 10.7186L9.13013 10.6486L9.21012 10.5786L9.25012 10.5486C9.40012 10.4486 9.47012 10.2786 9.37012 10.1286C9.28012 9.99862 9.04011 9.91862 8.89011 10.0186C8.26011 10.4286 7.95011 11.1286 8.14011 11.8086C8.32011 12.4386 8.97013 12.9486 9.69013 13.0286C9.88013 13.0486 10.0601 12.9786 10.1101 12.8086C10.1501 12.6586 10.0501 12.4586 9.86011 12.4386L9.84012 12.4186Z" fill="#BDBB38"/>
<path d="M22.1076 4.87927C21.8576 4.68927 21.5476 4.64927 21.2476 4.74927C21.2076 4.20927 20.9876 3.68927 20.4076 3.53927C20.0176 3.43927 19.5976 3.55927 19.3076 3.79927C18.9776 4.05927 18.8376 4.46927 18.7776 4.83927C18.7476 5.00927 18.8376 5.16927 19.0276 5.20927C19.1976 5.24927 19.4276 5.14927 19.4476 4.98927C19.4876 4.74927 19.5376 4.47927 19.7276 4.28927C19.8476 4.16927 20.0576 4.06927 20.2376 4.12927C20.4376 4.19927 20.4976 4.47927 20.5276 4.64927C20.5776 4.91927 20.5676 5.18927 20.5076 5.45927C20.4276 5.78927 20.9576 5.99927 21.1476 5.68927C21.2276 5.56927 21.2976 5.40927 21.4376 5.32927C21.5676 5.25927 21.6476 5.30927 21.7376 5.40927C21.9476 5.62927 22.0176 5.94927 21.9576 6.22927C21.8676 6.61927 22.5376 6.76927 22.6376 6.37927C22.7576 5.84927 22.5976 5.22927 22.1176 4.86927L22.1076 4.87927Z" fill="#BDBB38"/>
<path d="M13.3393 5.589C12.8193 5.429 12.2294 5.409 11.8094 5.759C11.3694 6.129 11.3394 6.699 11.3494 7.199C11.3494 7.359 11.5193 7.509 11.7093 7.499C11.8993 7.489 12.0593 7.359 12.0493 7.179C12.0493 7.069 12.0493 6.959 12.0493 6.849V6.699L12.0594 6.679V6.659L12.0793 6.589L12.1193 6.449V6.409L12.1493 6.379L12.2294 6.259L12.2794 6.199L12.3293 6.159L12.3993 6.119L12.5394 6.089H12.6093H12.6894H12.7194H12.7594H12.8393C12.9393 6.119 13.0394 6.149 13.1294 6.179C13.2994 6.229 13.5193 6.109 13.5493 5.959C13.5893 5.779 13.4793 5.639 13.2993 5.589H13.3393Z" fill="#BDBB38"/>
<path d="M41.2125 10.1271C41.2125 9.74715 41.1925 9.34724 40.9626 9.00732C40.7127 8.6574 40.2727 8.47744 39.8228 8.41745C39.293 8.34747 38.5531 8.35747 38.0233 8.59741C37.9033 8.23749 37.6233 7.93756 37.1335 7.89757H37.0235C37.0835 7.37769 37.0035 6.85781 36.5836 6.42791C36.3137 6.14797 35.9238 5.93802 35.5039 5.92802C35.064 5.91803 34.624 6.16797 34.734 6.59787C34.824 6.93779 35.3539 6.84781 35.4039 6.55788H35.4239H35.5938C35.7038 6.57787 35.8138 6.62786 35.9038 6.68785C36.1037 6.81782 36.2337 7.01777 36.3037 7.22773C36.4136 7.56765 36.3537 7.93756 36.2537 8.28748C36.1137 8.48744 36.0437 8.72738 36.0837 8.96733C36.1437 9.28725 36.6636 9.21727 36.7536 8.95733C36.7936 8.82736 36.8435 8.69739 36.8735 8.56742C36.9535 8.51743 37.0435 8.49744 37.1235 8.52743C37.4534 8.62741 37.4434 9.05731 37.4034 9.29725C37.3434 9.68716 37.9833 9.84713 38.0832 9.44722C38.2032 8.92734 39.293 8.95733 39.7529 9.02731C40.4427 9.12729 40.5127 9.59718 40.5127 10.1271C40.5127 10.527 41.2125 10.507 41.2125 10.1171V10.1271Z" fill="#BDBB38"/>
<path d="M43.402 17.2359C43.382 16.936 43.362 16.5061 43.0721 16.2961C42.7521 16.0662 42.2723 16.2061 41.9223 16.3161C41.5224 16.4461 41.1525 16.636 40.8126 16.876L40.7326 16.936C40.5527 16.866 40.3327 16.866 40.1128 16.906C40.2227 16.626 40.2927 16.3261 40.3227 16.0262C40.3727 15.5763 40.2927 15.0864 39.8128 14.8365C38.883 14.3466 37.6633 15.0164 37.1134 15.6763C36.8435 15.9962 37.4534 16.2961 37.7233 15.9762C37.9133 15.7462 38.1832 15.5563 38.4831 15.4363C38.7531 15.3263 39.203 15.2064 39.4729 15.3663C39.7329 15.5263 39.6529 15.9462 39.6029 16.1762C39.5329 16.5561 39.3929 16.916 39.193 17.2559C39.023 17.5358 39.3729 17.8158 39.6729 17.6758C39.8028 17.6158 39.9428 17.5658 40.0928 17.5358C39.8128 17.8958 39.6429 18.3057 39.8728 18.6756C39.9828 18.8555 40.2627 18.8655 40.4227 18.7356C40.7626 18.4556 41.1325 17.9257 41.1025 17.4659C41.2025 17.3859 41.3025 17.3059 41.4124 17.2459C41.6424 17.1059 41.8924 16.986 42.1523 16.906C42.2723 16.866 42.4622 16.786 42.5922 16.806C42.6322 16.806 42.5822 16.756 42.6222 16.816L42.6722 17.026C42.8521 18.0857 42.3622 19.1755 41.4625 19.8753C41.1225 20.1352 41.6224 20.5651 41.9623 20.3052C42.6022 19.8053 43.0521 19.1355 43.262 18.4056C43.372 18.0257 43.412 17.6358 43.392 17.2459L43.402 17.2359Z" fill="#BDBB38"/>
<path d="M46.2914 29.0231C45.8615 28.8031 45.4116 28.6432 44.9417 28.5232C45.1416 28.2633 45.2016 27.9233 45.0117 27.5834C44.6418 26.9336 43.8619 26.9536 43.1421 26.9936C43.482 26.3437 43.592 25.5639 42.8322 25.114C41.9924 24.6141 40.8026 24.964 40.1328 25.5339C39.8029 25.8138 40.3027 26.2437 40.6327 25.9638C41.0526 25.6039 41.8524 25.3139 42.4023 25.6039C43.0821 25.9638 42.5223 26.7936 42.2123 27.1835C42.0524 27.3835 42.2723 27.6434 42.5222 27.6434C43.0221 27.6434 43.602 27.4634 44.0819 27.6434C44.2818 27.7134 44.4618 27.8634 44.4218 28.0733C44.3818 28.2833 44.1519 28.3832 43.9319 28.3432H43.842C43.452 28.3033 43.382 28.8731 43.762 28.9531L43.9319 28.9731C44.6418 29.0531 45.3216 29.263 45.9414 29.583C46.3314 29.7829 46.6713 29.243 46.2814 29.0431L46.2914 29.0231Z" fill="#BDBB38"/>
<path d="M54.4801 20.686C54.3901 20.286 53.8901 20.196 53.4901 20.146C53.0201 20.086 52.5601 20.096 52.1001 20.176C51.9201 20.206 51.8101 20.406 51.8601 20.556C51.9201 20.726 52.1101 20.796 52.2901 20.766C52.6601 20.696 53.0601 20.696 53.4201 20.756C53.5101 20.776 53.6101 20.786 53.7001 20.816L53.8001 20.846V20.876V20.966C53.8001 21.036 53.8001 21.106 53.8001 21.176V21.226L53.7601 21.346C53.7401 21.416 53.7201 21.476 53.6901 21.536L53.6701 21.586L53.6201 21.666C53.5801 21.726 53.5401 21.796 53.4901 21.856L53.4601 21.896L53.4401 21.916L53.3701 21.986L53.2001 22.136L53.1501 22.176L53.0501 22.236C52.9801 22.276 52.9101 22.306 52.8301 22.336C52.6601 22.406 52.6201 22.626 52.7101 22.756C52.8101 22.916 53.0201 22.936 53.1901 22.866C53.7901 22.616 54.2301 22.116 54.4101 21.566C54.5001 21.286 54.5301 20.976 54.4601 20.686H54.4801Z" fill="#BDBB38"/>
<path d="M23.9165 19.6752L23.8265 19.5452L23.7965 19.5052L23.6665 19.3952C23.4666 19.2353 23.1967 19.1453 22.9367 19.0853C22.5268 18.9953 22.0469 18.9453 21.667 19.1653C21.3171 19.3652 21.1071 19.7551 21.2771 20.1151L21.2971 20.1451C20.3873 20.315 19.5475 20.7249 18.9176 21.3248C18.6177 21.6147 19.1076 22.0446 19.4175 21.7547C20.1673 21.0349 21.2471 20.6349 22.3569 20.6749C22.7468 20.6849 22.8268 20.1151 22.4368 20.0651C22.2969 20.0451 22.0269 20.0251 21.9469 19.9051C21.867 19.7851 22.0469 19.6752 22.1569 19.6452C22.3769 19.5852 22.6468 19.6452 22.8567 19.7052C23.0467 19.7551 23.2267 19.8251 23.3167 19.9951C23.5566 20.335 24.1064 20.0351 23.9165 19.6752Z" fill="#BDBB38"/>
<path d="M15.4893 21.1043C14.8793 21.0043 14.2593 20.9043 13.6393 20.9043C13.3393 20.9043 13.0293 20.9243 12.7493 21.0243C12.4693 21.1243 12.2493 21.2943 12.0593 21.4943C11.6993 21.8743 11.3894 22.3543 11.5094 22.8643C11.6094 23.3343 12.0793 23.6143 12.5593 23.7643C12.8093 23.8443 13.0793 23.8843 13.3393 23.9143C13.6793 23.9543 14.0193 23.9543 14.3393 23.8443C14.5093 23.7843 14.6293 23.6343 14.5793 23.4643C14.5293 23.3143 14.3193 23.1943 14.1493 23.2543C13.7793 23.3843 13.3594 23.3143 12.9794 23.2343C12.6794 23.1643 12.3394 23.0443 12.2294 22.8243C12.0794 22.5243 12.3294 22.1743 12.5394 21.9543C12.6694 21.8143 12.8093 21.6643 12.9993 21.5943C13.1993 21.5143 13.4293 21.5143 13.6393 21.5143C14.2093 21.5143 14.7693 21.6043 15.3293 21.6943C15.5093 21.7243 15.6993 21.6343 15.7493 21.4743C15.7893 21.3243 15.6793 21.1343 15.4993 21.1043H15.4893Z" fill="#BDBB38"/>
<path d="M13.0996 31.0035C12.9996 30.8635 12.7896 30.8135 12.6196 30.8935C12.2796 31.0735 11.9996 31.2335 11.6196 31.2835H11.5196H11.3796H11.3696H11.2996L11.1596 31.2535H11.1296L11.0796 31.2235L11.0296 31.1935V31.1735C11.0496 31.1135 11.0596 31.0435 11.0896 30.9835V30.9535L11.1096 30.9435L11.1596 30.8535L11.2196 30.7635L11.2596 30.7035L11.4096 30.5535L11.4996 30.4835H11.5196L11.5496 30.4535C11.6096 30.4135 11.6796 30.3735 11.7496 30.3435C11.7596 30.3435 11.8796 30.2935 11.7996 30.3235L11.9096 30.2835C11.9896 30.2635 12.0596 30.2435 12.1396 30.2335C12.3196 30.2035 12.4296 29.9935 12.3796 29.8535C12.3096 29.6835 12.1396 29.6135 11.9496 29.6435C11.3196 29.7335 10.7296 30.1535 10.4896 30.6735C10.4096 30.8335 10.3596 30.9935 10.3396 31.1635C10.3196 31.3835 10.4396 31.5735 10.6396 31.6935C10.9696 31.9035 11.4096 31.9235 11.7996 31.8635C12.2196 31.8035 12.6096 31.6035 12.9796 31.4135C13.1396 31.3335 13.1996 31.1335 13.0996 30.9935V31.0035Z" fill="#BDBB38"/>
<path d="M4.54143 26.4733C4.53143 26.2933 4.38141 26.1833 4.18141 26.1733C4.09141 26.1733 4.0014 26.1633 3.9214 26.1533H3.91142H3.86141L3.72142 26.1333C3.64142 26.1233 3.56143 26.1033 3.48143 26.0733H3.46141L3.44142 26.0633L3.32143 26.0033L3.28142 25.9733H3.27141L3.2014 25.9033H3.19142L3.1714 25.8733L3.13143 25.8133L3.11141 25.7833L3.08141 25.7033L3.06142 25.6333V25.5733V25.4833V25.4433L3.08141 25.3733V25.3333H3.09142L3.13143 25.2633L3.16142 25.2233L3.30141 25.1033L3.35143 25.0733L3.44142 25.0233L3.53142 24.9833L3.58141 24.9633C3.73141 24.9133 3.88142 24.8733 4.03142 24.8433C4.21142 24.8033 4.33141 24.6133 4.27141 24.4633C4.21141 24.2933 4.03142 24.2133 3.84142 24.2533C3.23142 24.3733 2.63142 24.6233 2.41142 25.1833C2.21142 25.7133 2.49141 26.3233 3.05141 26.5733C3.41141 26.7333 3.8114 26.7733 4.2014 26.7933C4.3814 26.7933 4.55143 26.6333 4.54143 26.4733Z" fill="#BDBB38"/>
<path d="M51.4102 12.1668C51.3802 11.497 50.7104 11.2371 50.0305 11.1571C50.0905 10.9571 50.0705 10.7272 49.9705 10.5372C49.7206 10.0373 49.0707 9.83737 48.5009 9.82738C47.791 9.81738 47.1012 10.1373 46.7213 10.6272C46.4314 10.1973 46.0014 9.88736 45.3516 9.91736C44.8617 9.93735 44.4718 10.2373 44.3118 10.6372C44.1119 11.1171 44.2818 11.607 44.5618 12.0369C44.7917 12.3768 45.3916 12.0669 45.1616 11.7169C45.0017 11.467 44.8517 11.1571 44.9617 10.8671C45.0617 10.5972 45.3416 10.4772 45.6415 10.5672C46.1514 10.7172 46.3414 11.1971 46.4613 11.637C46.4713 11.7369 46.5013 11.8369 46.5413 11.9469C46.6913 12.3268 47.3011 12.1668 47.2112 11.7769C46.9612 11.1271 47.5311 10.5672 48.2409 10.4672C48.5509 10.4272 48.9208 10.4472 49.1807 10.6172C49.4007 10.7572 49.5006 11.0671 49.2107 11.1971C48.8908 11.327 49.0607 11.7869 49.4007 11.7669C49.8606 11.7469 50.8503 11.7469 50.7204 12.3568C50.6204 12.8167 50.1805 13.1666 49.7306 13.3566C49.3307 13.5265 49.6906 14.0564 50.0905 13.8864C50.7904 13.5865 51.4702 12.9167 51.4302 12.1868L51.4102 12.1668Z" fill="#BDBB38"/>
<path d="M42.6422 3.59884C42.4323 3.20893 41.9524 3.17893 41.5225 3.19893C41.1526 3.21892 40.7726 3.28891 40.4527 3.45887L40.4227 3.41888C40.1628 3.11895 39.7529 2.95898 39.333 2.95898C38.4232 2.95898 37.8033 3.7588 37.8933 4.50863C37.9133 4.67859 38.0533 4.81856 38.2532 4.80856C38.4332 4.80856 38.6132 4.6586 38.5932 4.48863C38.5532 4.11872 38.7531 3.64883 39.223 3.57884C39.413 3.54885 39.6229 3.59884 39.7729 3.69882C39.8329 3.73881 39.8929 3.80879 39.9328 3.87877C39.8029 4.04873 39.7529 4.24869 39.8629 4.45864C39.9628 4.6386 40.2628 4.6486 40.4127 4.51863C40.5527 4.39866 40.6227 4.23869 40.6427 4.08873C40.7227 4.02874 40.8226 3.97875 40.8726 3.95876C41.0926 3.85878 41.3325 3.82879 41.5725 3.81879C41.7124 3.81879 41.9924 3.7688 42.0324 3.89877C42.0924 4.09872 41.9224 4.34867 41.8824 4.54862C41.8524 4.70858 41.9424 4.87854 42.1323 4.91854C42.3023 4.95853 42.5323 4.85855 42.5522 4.69859C42.6122 4.31867 42.8322 3.97875 42.6322 3.59884H42.6422Z" fill="#BDBB38"/>
</g>
</svg>
