<svg width="65" height="75" viewBox="0 0 65 75" fill="none" xmlns="http://www.w3.org/2000/svg">
<path d="M14.3637 42.1602C14.3637 42.1602 18.2333 49.0294 23.7727 44.3C23.7727 44.3 28.3621 44.5699 29.192 39.9304C29.192 39.9304 31.9318 40.1604 32.0317 37.2907C32.0317 37.2907 33.7615 40.5304 35.7713 38.4606C35.7713 38.4606 37.6711 40.0904 40.8108 38.9305C40.8108 38.9305 40.3808 40.6004 42.8805 41.4003C45.3803 42.2002 46.4801 40.0004 46.4801 40.0004C46.4801 40.0004 47.95 41.5703 49.7498 41.1303C51.1196 40.8003 51.6596 39.8604 51.5896 38.5606C51.5896 38.5606 55.3891 40.9303 56.589 36.1909C57.7889 31.4514 53.8493 28.0818 53.8493 28.0818L26.4924 25.582L14.3637 42.1602Z" fill="#6A9430"/>
<path d="M10.7941 28.9116C10.7941 28.9116 12.3039 36.6507 19.0532 33.891C19.0532 33.891 23.3227 35.5908 25.5725 31.4413C25.5725 31.4413 28.0922 32.5212 29.0921 29.8315C29.0921 29.8315 29.722 33.4511 32.2717 32.1112C32.2717 32.1112 33.5616 34.261 36.9112 34.141C36.9112 34.141 35.9713 35.5908 38.1011 37.1307C40.2308 38.6705 41.9606 36.9307 41.9606 36.9307C41.9606 36.9307 42.8605 38.8905 44.7103 39.0304C46.1102 39.1404 46.9201 38.4305 47.26 37.1706C47.26 37.1706 50.1297 40.6103 52.7594 36.4907C55.3891 32.3712 52.7094 27.9317 52.7094 27.9317L27.5222 16.9629L10.8041 28.8916L10.7941 28.9116Z" fill="#5B8029"/>
<path d="M17.2534 37.3707C17.2534 37.3707 22.3828 43.37 26.8923 37.6507C26.8923 37.6507 31.4418 37.0307 31.3618 32.3113C31.3618 32.3113 34.0915 32.0113 33.6315 29.1816C33.6315 29.1816 35.9613 32.0213 37.5211 29.6016C37.5211 29.6016 39.7009 30.8414 42.5505 29.0816C42.5505 29.0816 42.4506 30.8014 45.0603 31.1014C47.67 31.4014 48.3199 29.0316 48.3199 29.0316C48.3199 29.0316 50.0697 30.2915 51.7495 29.5116C53.0294 28.9216 53.3693 27.9018 53.0494 26.6319C53.0494 26.6319 57.2389 28.2217 57.4989 23.3423C57.7589 18.4628 53.2494 15.9131 53.2494 15.9131L25.9224 18.7428L17.2334 37.3507L17.2534 37.3707Z" fill="#5B8029"/>
<path d="M20.803 40.7903C20.803 40.7903 23.6727 40.1904 27.2123 41.9202C30.7519 43.65 33.6816 45.3198 34.2815 48.1295C34.8814 50.9292 34.2815 74.3466 34.2815 74.3466C34.2815 74.3466 37.6811 75.4765 40.2908 74.7466C40.2908 74.7466 37.7511 52.599 37.5511 46.6597C37.3512 40.7204 42.8905 34.921 42.8905 34.921L43.2205 33.0512H41.8907C41.8907 33.0512 42.0706 33.1912 41.3907 34.581C40.7108 35.9709 39.6009 37.3407 38.401 38.4106C38.401 38.4106 37.7311 35.5109 38.301 31.1014C38.871 26.6919 36.7712 29.4316 36.7712 29.4316C36.7712 29.4316 37.1412 31.1014 37.0712 32.1313C37.0012 33.1612 37.3712 39.1005 37.0012 39.7005C36.6312 40.3004 35.8713 39.2005 35.7713 36.5308C35.6713 33.8611 36.0713 29.2616 36.0713 29.2616L34.5015 29.3916C34.5015 29.3916 35.3314 34.4611 35.1714 36.2309C35.1714 36.2309 35.0014 35.031 34.1715 33.5612C33.3416 32.0913 32.2317 31.8613 32.2317 31.8613L31.8318 32.3913C31.8318 32.3913 33.0616 33.5911 33.5316 34.591C34.0015 35.5909 35.5014 39.9604 35.4714 41.4303C35.4414 42.9001 35.4714 43.6 34.0015 42.8301C32.5317 42.0602 30.7619 39.9304 29.902 39.4605C29.0421 38.9905 28.5321 34.3911 30.132 31.6214C31.7318 28.8517 29.2621 28.9217 29.2621 28.9217C29.2621 28.9217 29.892 30.7215 29.432 31.7913C28.9721 32.8612 28.5021 34.3611 28.2622 34.3911C28.0222 34.4211 27.8622 32.6912 27.9622 30.3515C28.0622 28.0118 25.9224 27.3818 25.9224 27.3818C25.9224 27.3818 26.7223 29.8516 26.8523 31.9513C26.9823 34.0511 28.2222 38.0207 27.2523 39.2605C26.2824 40.5004 23.3827 39.2305 21.013 39.2605C18.6432 39.2905 20.793 40.7803 20.793 40.7803L20.803 40.7903Z" fill="#8C5112"/>
<mask id="mask0_181_16509" style="mask-type:luminance" maskUnits="userSpaceOnUse" x="19" y="27" width="25" height="48">
<path d="M20.803 40.7903C20.803 40.7903 23.6727 40.1904 27.2123 41.9202C30.7519 43.65 33.6816 45.3198 34.2815 48.1295C34.8814 50.9292 34.2815 74.3466 34.2815 74.3466C34.2815 74.3466 37.6811 75.4765 40.2908 74.7466C40.2908 74.7466 37.7511 52.599 37.5511 46.6597C37.3512 40.7204 42.8905 34.921 42.8905 34.921L43.2205 33.0512H41.8907C41.8907 33.0512 42.0706 33.1912 41.3907 34.581C40.7108 35.9709 39.6009 37.3407 38.401 38.4106C38.401 38.4106 37.7311 35.5109 38.301 31.1014C38.871 26.6919 36.7712 29.4316 36.7712 29.4316C36.7712 29.4316 37.1412 31.1014 37.0712 32.1313C37.0012 33.1612 37.3712 39.1005 37.0012 39.7005C36.6312 40.3004 35.8713 39.2005 35.7713 36.5308C35.6713 33.8611 36.0713 29.2616 36.0713 29.2616L34.5015 29.3916C34.5015 29.3916 35.3314 34.4611 35.1714 36.2309C35.1714 36.2309 35.0014 35.031 34.1715 33.5612C33.3416 32.0913 32.2317 31.8613 32.2317 31.8613L31.8318 32.3913C31.8318 32.3913 33.0616 33.5911 33.5316 34.591C34.0015 35.5909 35.5014 39.9604 35.4714 41.4303C35.4414 42.9001 35.4714 43.6 34.0015 42.8301C32.5317 42.0602 30.7619 39.9304 29.902 39.4605C29.0421 38.9905 28.5321 34.3911 30.132 31.6214C31.7318 28.8517 29.2621 28.9217 29.2621 28.9217C29.2621 28.9217 29.892 30.7215 29.432 31.7913C28.9721 32.8612 28.5021 34.3611 28.2622 34.3911C28.0222 34.4211 27.8622 32.6912 27.9622 30.3515C28.0622 28.0118 25.9224 27.3818 25.9224 27.3818C25.9224 27.3818 26.7223 29.8516 26.8523 31.9513C26.9823 34.0511 28.2222 38.0207 27.2523 39.2605C26.2824 40.5004 23.3827 39.2305 21.013 39.2605C18.6432 39.2905 20.793 40.7803 20.793 40.7803L20.803 40.7903Z" fill="white"/>
</mask>
<g mask="url(#mask0_181_16509)">
<path opacity="0.44" d="M37.7111 42.2399C36.5112 45.1096 36.0413 50.779 36.3812 55.7184C36.7212 60.6579 37.8011 73.6465 39.1209 74.9563C40.4408 76.2662 44.7203 75.4663 44.7203 75.4663C44.7203 75.4663 37.6511 47.9093 38.711 44.1097C39.7809 40.3102 41.1807 37.0205 41.1807 37.0205C40.7508 37.2205 38.911 39.3803 37.7111 42.2399Z" fill="#A8743C"/>
<path opacity="0.44" d="M30.022 38.9102C30.022 38.9102 29.372 38.9802 29.922 40.3102C30.472 41.6402 34.062 44.5602 34.862 42.7502C35.662 40.9402 30.022 38.9102 30.022 38.9102Z" fill="#A8743C"/>
<path opacity="0.55" d="M24.4024 36.2203L18.3931 38.7901L19.7429 40.9198C19.7429 40.9198 26.5622 42.2597 27.4621 40.2599C28.362 38.2601 29.4619 33.0207 30.1318 32.9907C30.8017 32.9607 32.6015 34.3206 33.4014 35.2604C34.2013 36.2003 35.7412 37.7302 36.2711 36.6603C36.801 35.5904 38.3109 32.0208 39.2408 32.8207C40.1707 33.6206 40.0407 36.1603 41.7405 37.4202C43.4403 38.6801 47.7798 36.0204 47.0799 32.6507C46.38 29.2811 39.8407 25.6415 37.8409 25.3116C35.8412 24.9816 23.0626 25.7415 23.0626 25.7415L24.3924 36.2203H24.4024Z" fill="#543A1E"/>
<path opacity="0.55" d="M33.1416 50.5391C33.1416 50.5391 35.6913 67.4572 36.0413 71.6067C36.3912 75.7563 35.7913 76.8561 35.3914 76.8061C34.9914 76.7561 30.7919 74.9563 30.7919 74.9563L33.1416 50.5391Z" fill="#543A1E"/>
</g>
<path d="M6.59458 34.2008C6.59458 34.2008 4.78477 33.4909 5.10474 36.4706C5.10474 36.4706 0.495257 37.9904 1.56514 43.4798C1.81511 44.7696 2.23505 45.6295 2.725 46.1695C1.63512 45.9595 0.635233 45.0296 0.165285 42.6299C-0.934593 36.9705 3.81489 35.4007 3.81489 35.4007C3.48493 32.331 5.34472 33.0709 5.34472 33.0709C4.26484 30.7612 5.16474 28.9314 6.12463 27.8115C7.45448 28.0815 8.60435 27.9015 8.72433 27.8815C8.53435 28.0015 4.83477 30.4412 6.59458 34.2208V34.2008Z" fill="#90C941"/>
<path d="M53.5994 15.0229C53.7794 12.1032 53.1495 6.89381 46.5302 6.21388C46.5302 6.21388 45.1404 3.56418 42.4207 5.08401C42.4207 5.08401 41.2208 1.20444 36.2113 2.36431C31.1919 3.52418 29.7721 6.54385 29.7121 8.44364C29.7121 8.44364 27.8923 8.11367 26.6324 9.15356C25.3725 10.1834 25.3025 11.2233 25.3025 11.2233C25.3025 11.2233 24.6226 10.6034 23.2928 10.9334C21.9629 11.2633 21.613 12.1932 21.613 12.1932C21.613 12.1932 19.0932 7.37376 13.1039 8.47363C7.11457 9.57351 6.44464 14.263 6.44464 14.263C6.44464 14.263 4.59486 14.293 4.14491 15.5528C3.69496 16.8127 3.95493 18.1126 3.95493 18.1126C3.95493 18.1126 0.785273 19.9924 2.27511 24.3919C2.43509 24.8518 2.62508 25.2518 2.84505 25.6017C2.04514 25.0518 1.32522 24.2119 0.895271 22.942C-0.634559 18.4025 2.63507 16.4727 2.63507 16.4727C2.63507 16.4727 2.36509 15.1329 2.83504 13.843C3.30499 12.5432 5.20479 12.5032 5.20479 12.5032C5.20479 12.5032 5.90471 7.66372 12.074 6.53385C18.2433 5.39398 20.8431 10.3634 20.8431 10.3634C20.8431 10.3634 21.213 9.40353 22.5828 9.06357C23.9527 8.72361 24.6526 9.36353 24.6526 9.36353C24.6526 9.36353 24.7226 8.29365 26.0225 7.22377C27.3223 6.15389 29.1921 6.49385 29.1921 6.49385C29.2621 4.52407 30.732 1.42442 35.9014 0.22455C41.0708 -0.975317 42.3107 3.02424 42.3107 3.02424C45.1104 1.45441 46.5502 4.19411 46.5502 4.19411C55.1392 5.06401 53.9394 13.3631 53.6194 15.0129L53.5994 15.0229Z" fill="#90C941"/>
<path d="M61.6086 27.0014C61.6086 27.0014 63.7184 20.3121 57.0091 19.1423C57.0091 19.1423 57.1091 15.3327 53.5795 15.3027H53.5395C53.5395 15.3027 53.5595 15.2027 53.5995 15.0127C53.7795 12.0931 53.1496 6.88364 46.5303 6.20371C46.5303 6.20371 45.1404 3.55401 42.4207 5.07384C42.4207 5.07384 41.2209 1.19427 36.2114 2.35414C31.192 3.51401 29.7721 6.53368 29.7121 8.43347C29.7121 8.43347 27.8923 8.1035 26.6325 9.14339C25.3726 10.1733 25.3026 11.2132 25.3026 11.2132C25.3026 11.2132 24.6227 10.5932 23.2929 10.9232C21.963 11.2532 21.6131 12.183 21.6131 12.183C21.6131 12.183 19.0933 7.36358 13.104 8.46346C7.11466 9.56334 6.44473 14.2528 6.44473 14.2528C6.44473 14.2528 4.59495 14.2828 4.145 15.5427C3.69505 16.8025 3.95502 18.1024 3.95502 18.1024C3.95502 18.1024 0.785361 19.9822 2.2752 24.3817C2.43518 24.8416 2.62516 25.2416 2.84514 25.5916C3.70504 26.9514 4.9849 27.5413 6.13477 27.7813C7.46462 28.0513 8.6145 27.8713 8.73448 27.8513C8.54451 27.9713 4.84491 30.411 6.60472 34.1906C6.60472 34.1906 4.79493 33.4807 5.11489 36.4604C5.11489 36.4604 0.505395 37.9802 1.57528 43.4696C1.82525 44.7594 2.24521 45.6193 2.73515 46.1593C4.20499 46.4392 5.8048 45.4094 6.38474 44.9194C6.38474 44.9194 6.09477 45.6693 6.49473 46.4292C6.67471 46.7792 7.00468 47.1292 7.56462 47.4191C7.6846 47.4791 7.81458 47.5191 7.94456 47.5391C8.90446 47.6991 10.1943 46.9692 10.2843 46.6192C10.2843 46.6192 10.3143 47.2991 10.7243 47.9191C10.9342 48.249 11.2542 48.559 11.7241 48.739C11.7941 48.769 11.8741 48.799 11.9641 48.829C13.394 49.3589 15.9237 49.9389 17.6035 46.4592C17.6035 46.4592 22.483 43.5596 22.6529 39.85C22.8129 36.1504 22.473 35.4405 22.033 34.9105C22.033 34.9105 24.2028 35.2905 24.8727 33.6107C25.5426 31.9209 25.8026 31.2609 26.8425 31.3609C27.8724 31.4609 27.7124 30.241 28.0223 29.8911C28.0223 29.8911 28.2623 30.551 28.5823 31.1309C28.8222 31.5609 29.1122 31.9409 29.3822 32.0108C30.0521 32.1608 31.002 33.9406 32.9018 32.9907C32.9018 32.9907 35.3315 33.9706 36.1314 32.3508C36.1314 32.3508 37.6713 32.9907 38.4512 31.4509C38.4512 31.4509 39.821 34.5706 41.6008 34.4206C41.6008 34.4206 43.0007 35.7404 44.6205 34.0206C44.6205 34.0206 46.2103 38.1402 52.3096 36.5403C52.3096 36.5403 52.7996 39.23 55.6193 38.6301C57.6391 38.1902 57.739 36.8303 57.739 36.8303C57.739 36.8303 61.8786 38.6301 63.6084 35.6304C63.6384 35.5805 63.6684 35.5205 63.6984 35.4705C65.3382 32.5308 65.1882 29.8111 61.5986 27.0114L61.6086 27.0014Z" fill="#85BA3C"/>
<mask id="mask1_181_16509" style="mask-type:luminance" maskUnits="userSpaceOnUse" x="1" y="2" width="64" height="48">
<path d="M61.6086 27.0014C61.6086 27.0014 63.7184 20.3121 57.0091 19.1423C57.0091 19.1423 57.1091 15.3327 53.5795 15.3027H53.5395C53.5395 15.3027 53.5595 15.2027 53.5995 15.0127C53.7795 12.0931 53.1496 6.88364 46.5303 6.20371C46.5303 6.20371 45.1404 3.55401 42.4207 5.07384C42.4207 5.07384 41.2209 1.19427 36.2114 2.35414C31.192 3.51401 29.7721 6.53368 29.7121 8.43347C29.7121 8.43347 27.8923 8.1035 26.6325 9.14339C25.3726 10.1733 25.3026 11.2132 25.3026 11.2132C25.3026 11.2132 24.6227 10.5932 23.2929 10.9232C21.963 11.2532 21.6131 12.183 21.6131 12.183C21.6131 12.183 19.0933 7.36358 13.104 8.46346C7.11466 9.56334 6.44473 14.2528 6.44473 14.2528C6.44473 14.2528 4.59495 14.2828 4.145 15.5427C3.69505 16.8025 3.95502 18.1024 3.95502 18.1024C3.95502 18.1024 0.785361 19.9822 2.2752 24.3817C2.43518 24.8416 2.62516 25.2416 2.84514 25.5916C3.70504 26.9514 4.9849 27.5413 6.13477 27.7813C7.46462 28.0513 8.6145 27.8713 8.73448 27.8513C8.54451 27.9713 4.84491 30.411 6.60472 34.1906C6.60472 34.1906 4.79493 33.4807 5.11489 36.4604C5.11489 36.4604 0.505395 37.9802 1.57528 43.4696C1.82525 44.7594 2.24521 45.6193 2.73515 46.1593C4.20499 46.4392 5.8048 45.4094 6.38474 44.9194C6.38474 44.9194 6.09477 45.6693 6.49473 46.4292C6.67471 46.7792 7.00468 47.1292 7.56462 47.4191C7.6846 47.4791 7.81458 47.5191 7.94456 47.5391C8.90446 47.6991 10.1943 46.9692 10.2843 46.6192C10.2843 46.6192 10.3143 47.2991 10.7243 47.9191C10.9342 48.249 11.2542 48.559 11.7241 48.739C11.7941 48.769 11.8741 48.799 11.9641 48.829C13.394 49.3589 15.9237 49.9389 17.6035 46.4592C17.6035 46.4592 22.483 43.5596 22.6529 39.85C22.8129 36.1504 22.473 35.4405 22.033 34.9105C22.033 34.9105 24.2028 35.2905 24.8727 33.6107C25.5426 31.9209 25.8026 31.2609 26.8425 31.3609C27.8724 31.4609 27.7124 30.241 28.0223 29.8911C28.0223 29.8911 28.2623 30.551 28.5823 31.1309C28.8222 31.5609 29.1122 31.9409 29.3822 32.0108C30.0521 32.1608 31.002 33.9406 32.9018 32.9907C32.9018 32.9907 35.3315 33.9706 36.1314 32.3508C36.1314 32.3508 37.6713 32.9907 38.4512 31.4509C38.4512 31.4509 39.821 34.5706 41.6008 34.4206C41.6008 34.4206 43.0007 35.7404 44.6205 34.0206C44.6205 34.0206 46.2103 38.1402 52.3096 36.5403C52.3096 36.5403 52.7996 39.23 55.6193 38.6301C57.6391 38.1902 57.739 36.8303 57.739 36.8303C57.739 36.8303 61.8786 38.6301 63.6084 35.6304C63.6384 35.5805 63.6684 35.5205 63.6984 35.4705C65.3382 32.5308 65.1882 29.8111 61.5986 27.0114L61.6086 27.0014Z" fill="white"/>
</mask>
<g mask="url(#mask1_181_16509)">
<path d="M16.5434 14.9523C15.8535 13.0325 13.5138 12.9825 12.0839 14.0824C10.924 14.9823 10.0941 16.6021 10.4341 18.052C9.14424 17.812 7.77439 18.7119 7.41443 20.0418C6.90449 21.9116 8.15435 23.6314 9.79417 24.4013C10.2441 24.6112 10.6441 23.9413 10.1941 23.7213C8.96426 23.1414 7.89439 21.9715 8.12436 20.5117C8.33434 19.1719 9.81418 18.262 11.004 19.1319C11.324 19.3618 11.754 18.9119 11.544 18.5919C10.7241 17.3821 11.354 15.8122 12.3339 14.9023C13.2738 14.0324 15.2536 13.5825 15.8135 15.1423C15.9835 15.6123 16.7434 15.4123 16.5734 14.9323L16.5434 14.9523Z" fill="#90C941"/>
<path d="M25.0934 24.0708C24.5934 23.7308 24.0734 23.2408 23.4734 23.0808C22.8534 22.9108 22.2134 23.1508 21.6834 23.4608C21.1734 23.7608 20.7234 24.1108 20.6134 24.7208C20.5834 24.8908 20.5634 25.0708 20.5434 25.2508C20.3334 24.9708 20.0834 24.7308 19.7634 24.5608C19.0634 24.1908 18.2334 24.2708 17.6834 24.8608C17.1834 25.3908 16.9934 26.1508 17.1334 26.8508C17.3034 27.7208 17.9034 28.4408 18.5334 29.0308C18.9034 29.3808 19.4534 28.8208 19.0834 28.4808C18.3334 27.7708 17.4034 26.6108 18.1234 25.5608C18.4334 25.1108 18.9434 25.0108 19.4134 25.2708C19.9934 25.6008 20.2734 26.2808 20.5134 26.8708C20.6634 27.2508 21.2934 27.2508 21.2834 26.7708C21.2734 26.2708 21.2834 25.7708 21.3334 25.2708C21.3534 25.0308 21.3634 24.7608 21.5234 24.5608C21.6634 24.3908 21.8934 24.2608 22.0834 24.1508C22.4834 23.9108 22.9834 23.6908 23.4434 23.9208C23.8834 24.1408 24.2934 24.4808 24.6934 24.7608C25.1134 25.0508 25.5034 24.3708 25.0934 24.0808V24.0708Z" fill="#90C941"/>
<path d="M11.9046 43.5296C11.4846 43.4796 10.9946 43.3696 10.8346 42.9196C10.6546 42.4296 10.8846 41.8896 11.0546 41.4296C11.1946 41.0296 10.6646 40.8196 10.3946 41.0496C10.1646 41.2496 9.9146 41.4296 9.6546 41.5896C9.4446 41.7096 9.1346 41.9196 8.8746 41.8196C8.5146 41.6796 8.59461 41.0396 8.61461 40.7496C8.63461 40.5496 8.42459 40.3496 8.22459 40.3596C7.90459 40.3796 7.36461 40.4496 7.20461 40.0796C7.06461 39.7696 7.2346 39.3496 7.4346 39.0996C7.8746 38.5596 8.6246 38.3796 9.2646 38.6496C9.4646 38.7296 9.6946 38.5596 9.7446 38.3796C9.8046 38.1496 9.66459 37.9796 9.47459 37.8996C8.46459 37.4796 7.2146 37.9396 6.6546 38.8696C6.3646 39.3496 6.2546 40.0296 6.5546 40.5396C6.8346 40.9996 7.3246 41.1396 7.8246 41.1596C7.8446 41.7296 8.0046 42.3296 8.5846 42.5596C9.0546 42.7496 9.5546 42.5896 10.0146 42.3296C9.9746 42.6896 10.0146 43.0596 10.1846 43.4096C10.5146 44.0696 11.2346 44.2696 11.9046 44.3396C12.1146 44.3596 12.2946 44.1396 12.2946 43.9496C12.2946 43.7196 12.1146 43.5796 11.9046 43.5596V43.5296Z" fill="#90C941"/>
<path d="M14.5441 30.1006C13.7641 29.5706 12.7241 29.5006 11.8741 29.9006C11.0941 30.2606 10.5141 31.0606 10.3941 31.9006C10.3641 32.1106 10.4441 32.3206 10.6641 32.3806C10.8441 32.4306 11.1141 32.3206 11.1441 32.1106C11.2441 31.4606 11.6241 30.8906 12.2241 30.6006C12.8441 30.2906 13.5941 30.4006 14.1541 30.7806C14.3341 30.9006 14.5841 30.8106 14.6941 30.6406C14.8041 30.4506 14.7241 30.2206 14.5541 30.1006H14.5441Z" fill="#90C941"/>
<path d="M37.8017 13.792C37.3917 13.552 36.8617 13.512 36.4117 13.682C35.6717 13.962 35.2817 14.572 34.9317 15.222C34.8717 15.072 34.7817 14.922 34.6717 14.792C34.2817 14.352 33.6817 14.262 33.1417 14.452C32.6517 14.622 32.2117 15.002 32.0817 15.532C31.9617 16.062 32.1617 16.592 32.6117 16.892C33.0317 17.172 33.4217 16.502 33.0117 16.212C32.8317 16.092 32.7917 15.822 32.8717 15.632C32.9717 15.372 33.2517 15.222 33.5117 15.162C34.3017 14.982 34.3417 15.932 34.3417 16.472C34.3417 16.862 34.8717 17.002 35.0717 16.672C35.4717 15.992 35.7017 15.092 36.3617 14.612C36.6117 14.432 36.9017 14.332 37.2117 14.412C37.5817 14.502 37.6717 14.792 37.7017 15.152C37.7517 15.652 38.5317 15.652 38.4817 15.152C38.4317 14.612 38.2917 14.112 37.8017 13.822V13.792Z" fill="#90C941"/>
<path d="M54.3693 25.7702C53.1494 25.4603 51.7995 25.8102 50.7097 26.5001C50.6397 26.2802 50.4997 26.0702 50.2797 25.9602C49.7498 25.6802 49.0798 25.8202 48.5099 26.1102C48.6699 25.3403 48.7099 24.5404 47.92 24.1104C46.8501 23.5405 45.8502 24.5404 45.6902 25.5502C45.6102 26.0402 46.3701 26.2602 46.4501 25.7602C46.5001 25.4503 46.5901 25.1303 46.8301 24.9203C47.0901 24.6903 47.52 24.6503 47.73 24.9703C48.08 25.5103 47.63 26.3602 47.52 26.9101C47.45 27.2801 47.89 27.59 48.1799 27.2901C48.5599 26.9001 49.0599 26.6401 49.6098 26.6201C50.1397 26.6001 50.0297 26.9201 49.8098 27.2101C49.6798 27.33 49.5598 27.46 49.4498 27.6C49.1298 27.99 49.6198 28.4899 49.9997 28.15C50.1797 28 50.3597 27.83 50.4997 27.64C51.3896 26.8501 52.5495 26.4002 53.7593 26.4701C54.1393 26.4901 54.4892 26.5301 54.5092 26.9801C54.5192 27.3301 54.3693 27.7 54.2493 28.02C53.9593 28.7999 53.5694 29.5398 53.1094 30.2297C52.8294 30.6497 53.5094 31.0396 53.7893 30.6297C54.4392 29.6598 56.499 26.2902 54.3793 25.7502L54.3693 25.7702Z" fill="#90C941"/>
<path d="M41.5711 6.65307C40.0711 6.47307 38.6111 7.20307 37.7911 8.45307C37.5111 8.87307 38.1911 9.27307 38.4711 8.85307C39.0911 7.91307 40.1511 7.36307 41.2811 7.41307C42.2311 7.46307 43.9211 8.17307 43.4611 9.40307C43.2811 9.87307 44.0411 10.0831 44.2211 9.61307C44.8411 7.96307 42.9411 6.82307 41.5811 6.65307H41.5711Z" fill="#90C941"/>
<path d="M30.1828 12.7223C29.7628 12.1323 29.0028 12.2923 28.4428 12.5823C27.3428 13.1523 26.8828 14.2923 26.6728 15.4423C26.5628 15.3523 26.4428 15.2723 26.3228 15.1923C26.0428 15.0123 25.7328 14.8123 25.4028 14.9523C25.1828 15.0423 25.0728 15.2423 25.0428 15.4623C24.8928 15.3023 24.7328 15.1523 24.5628 15.0223C24.0528 14.6123 23.3928 14.7623 22.9428 15.1923C21.9428 16.1723 22.4628 17.5923 22.9728 18.6723C23.1928 19.1323 23.8628 18.7323 23.6528 18.2723C23.3128 17.5523 22.8328 16.5323 23.4328 15.8123C23.5428 15.6723 23.7128 15.5423 23.9028 15.5623C24.1228 15.5823 24.3228 15.8623 24.4728 16.0223C24.8128 16.3723 25.1328 16.7523 25.4428 17.1323C25.7028 17.4523 26.1828 17.1023 26.1028 16.7523C26.0528 16.5423 26.0028 16.3323 25.9528 16.1123C25.9428 16.0523 25.8928 15.9223 25.8628 15.8023C25.9828 15.8823 26.1028 15.9823 26.1528 16.0223C26.3428 16.1623 26.5128 16.3123 26.6828 16.4623C26.9528 16.7023 27.3128 16.5223 27.3528 16.1823C27.4528 15.2123 27.6828 14.1623 28.4628 13.5123C28.7128 13.3023 29.3528 12.8923 29.5928 13.2523C29.8828 13.7023 29.9728 14.3423 29.9928 14.8623C30.0128 15.3623 30.7928 15.3723 30.7728 14.8623C30.7428 14.1523 30.6028 13.3223 30.1828 12.7323V12.7223Z" fill="#90C941"/>
<path d="M39.2015 26.1809C38.9015 26.1709 38.5915 26.2409 38.2915 26.3409C38.3915 26.0909 38.4515 25.8209 38.4015 25.5209C38.3015 24.9609 37.8215 24.5809 37.2415 24.6909C36.0715 24.9309 35.2015 26.0309 34.5015 26.9009C34.3715 27.0709 34.3415 27.2909 34.5015 27.4509C34.6415 27.5909 34.9215 27.6109 35.0515 27.4509C35.6115 26.7509 36.1915 26.0209 37.0115 25.6009C37.1315 25.5409 37.3815 25.3809 37.5215 25.4409C37.6215 25.4809 37.6415 25.6409 37.6515 25.7309C37.6615 25.9109 37.5715 26.0909 37.4915 26.2509C37.3715 26.4809 37.2515 26.7009 37.1615 26.9509C37.0615 27.2109 37.3815 27.5409 37.6415 27.4309C38.0415 27.2609 38.4515 27.0909 38.8715 26.9909C39.1915 26.9109 39.4715 26.9109 39.4715 27.3009C39.4715 27.7009 39.3115 28.0909 39.1115 28.4309C39.0115 28.6109 38.8915 28.7809 38.7615 28.9409C38.7015 29.0109 38.4515 29.3609 38.3815 29.3509C37.8915 29.2409 37.6815 30.0009 38.1715 30.1109C38.8415 30.2509 39.3015 29.5709 39.6315 29.0809C39.9815 28.5609 40.2515 27.9409 40.2615 27.3109C40.2615 26.6809 39.8615 26.2009 39.2215 26.1709L39.2015 26.1809Z" fill="#90C941"/>
<path d="M49.3401 18.2421C49.5401 17.9821 49.7201 17.7121 49.8701 17.4221C50.1301 16.9121 50.3401 16.3221 50.1101 15.7621C49.6001 14.5121 47.8301 15.1721 46.9401 15.5921C46.4901 15.8121 46.8801 16.4821 47.3401 16.2721C47.7501 16.0721 48.1801 15.9421 48.6301 15.8721C48.9701 15.8221 49.3601 15.7621 49.4301 16.2021C49.4901 16.5921 49.2201 17.0221 49.0301 17.3421C48.8201 17.6921 48.5601 18.0021 48.2601 18.2821C48.0001 18.5321 48.2101 18.9321 48.5401 18.9521C48.9801 18.9821 49.4101 19.0421 49.8401 19.1521C50.1901 19.2421 50.3901 19.4021 50.2701 19.7921C50.0801 20.4121 49.4601 21.0921 48.8401 21.2921C48.3601 21.4421 48.5701 22.2021 49.0501 22.0521C49.5701 21.8821 50.0001 21.5521 50.3501 21.1321C50.6901 20.7221 51.0201 20.2521 51.0801 19.7121C51.2001 18.6921 50.2401 18.3721 49.3501 18.2421H49.3401Z" fill="#90C941"/>
<path d="M61.2189 33.1393C61.0789 32.8693 60.7989 32.7293 60.5089 32.7493C60.5589 32.5693 60.5989 32.3893 60.6089 32.1993C60.6389 31.6593 60.2389 31.2793 59.7089 31.2593C59.2889 31.2393 58.8589 31.4193 58.4989 31.6193C58.0889 31.8493 57.7589 32.1793 57.6189 32.6293C57.5489 32.8293 57.6989 33.0593 57.8889 33.1093C58.0989 33.1693 58.3089 33.0393 58.3689 32.8393C58.3989 32.7393 58.4689 32.6393 58.5489 32.5493C58.6489 32.4393 58.7189 32.3993 58.8489 32.3193C58.9889 32.2393 59.1089 32.1893 59.2389 32.1393C59.2989 32.1193 59.3689 32.0993 59.4289 32.0793C59.4589 32.0793 59.4989 32.0593 59.5289 32.0593C59.5289 32.0593 59.5689 32.0593 59.5789 32.0593C59.6089 32.0593 59.6489 32.0593 59.6789 32.0593C59.6889 32.0593 59.6989 32.0593 59.6989 32.0593C59.7189 32.0593 59.7489 32.0693 59.7689 32.0793C59.7689 32.0793 59.7689 32.0993 59.7889 32.1293C59.7889 32.0893 59.7889 32.2093 59.7889 32.2093C59.7889 32.2493 59.7889 32.2393 59.7889 32.2693C59.7289 32.6393 59.5889 32.9793 59.3989 33.2993C59.2589 33.5393 59.4289 33.9193 59.7389 33.8893C59.9889 33.8593 60.1789 33.7593 60.3789 33.6293C60.4189 33.5993 60.4589 33.5793 60.4989 33.5593C60.4989 33.5893 60.4989 33.6293 60.4989 33.6393C60.4989 33.6593 60.4989 33.6793 60.4989 33.6793C60.4989 33.6993 60.4989 33.7093 60.4989 33.7293C60.4889 33.7693 60.4789 33.8193 60.4589 33.8593C60.3789 34.0793 60.2589 34.2993 60.1089 34.4793C59.9789 34.6493 59.9489 34.8693 60.1089 35.0293C60.2489 35.1693 60.5289 35.1993 60.6589 35.0293C61.0489 34.5493 61.5089 33.7693 61.1789 33.1393H61.2189Z" fill="#90C941"/>
<path d="M19.3237 38.47C19.2837 39.07 19.1537 39.76 18.8137 40.27C18.6937 40.45 18.5537 40.51 18.3637 40.38C18.1337 40.22 18.0537 39.89 17.9737 39.64C17.8637 39.3 17.2937 39.24 17.2137 39.64C17.1137 40.15 16.8837 41.18 16.1337 40.85C15.8437 40.72 15.6637 40.45 15.5337 40.17C15.4637 40.01 15.4137 39.84 15.3637 39.67C15.3437 39.6 15.3137 39.52 15.3037 39.44C15.2937 39.4 15.2837 39.37 15.2837 39.33C15.7237 39.18 15.5237 38.47 15.0437 38.59C14.3137 38.77 14.5037 39.59 14.6737 40.1C14.8537 40.64 15.1237 41.15 15.6237 41.46C16.1037 41.75 16.7037 41.77 17.1637 41.43C17.3937 41.26 17.5537 41.04 17.6737 40.79C17.7337 40.86 17.7937 40.93 17.8737 40.99C18.2337 41.26 18.7237 41.33 19.1037 41.06C19.4737 40.8 19.6537 40.35 19.7937 39.94C19.9637 39.46 20.0537 38.96 20.0837 38.46C20.1137 37.96 19.3337 37.96 19.3037 38.46L19.3237 38.47Z" fill="#90C941"/>
<path d="M33.162 22.8017C33.042 22.4217 32.922 21.9217 32.622 21.6417C32.332 21.3717 31.882 21.3617 31.612 21.6317C31.612 21.6317 31.612 21.6317 31.612 21.6217C31.442 21.2217 31.122 20.7917 30.662 20.7117C30.172 20.6217 29.742 20.9117 29.532 21.3517C29.312 21.7917 29.272 22.3117 29.262 22.7917C29.262 23.0917 29.262 23.4417 29.402 23.7117C29.562 24.0117 29.882 24.1617 30.212 24.0917C30.422 24.0517 30.542 23.8017 30.482 23.6117C30.432 23.4217 30.262 23.3317 30.082 23.3317V23.3117C30.062 23.2317 30.052 23.1317 30.052 23.0417C30.052 22.7917 30.052 22.5417 30.082 22.2917C30.102 22.1117 30.132 21.9317 30.202 21.7717C30.242 21.6617 30.332 21.5417 30.402 21.5017C30.412 21.5017 30.472 21.4717 30.492 21.4717C30.542 21.4717 30.582 21.4917 30.622 21.5317C30.742 21.6217 30.832 21.7817 30.902 21.9317C31.092 22.3317 31.202 22.8017 31.262 23.2417C31.322 23.7417 31.982 23.7417 32.042 23.2417C32.082 22.9317 32.112 22.6217 32.162 22.3117C32.162 22.3317 32.182 22.3517 32.182 22.3617C32.302 22.6317 32.392 22.9317 32.472 23.2117C32.562 23.5117 32.602 23.8117 32.592 24.1317C32.582 24.3417 32.782 24.5217 32.982 24.5217C33.202 24.5217 33.362 24.3417 33.372 24.1317C33.392 23.6817 33.302 23.2317 33.162 22.8017Z" fill="#90C941"/>
<path d="M18.0838 19.1022C17.8338 18.6822 17.8238 18.1922 17.3938 17.8722C17.0038 17.5822 16.4538 17.6422 16.1838 18.0722C15.9538 18.4422 15.9938 18.9222 16.0238 19.3322C16.0438 19.5422 16.0738 19.7522 16.1138 19.9622C16.0138 19.9422 15.9138 19.9322 15.8138 19.9222C15.3538 19.9022 14.7738 19.9622 14.4638 20.3222C14.2338 20.5822 14.1638 20.9522 14.2138 21.3022C13.9138 21.2822 13.6338 21.3422 13.4138 21.5622C13.0738 21.9122 13.2338 22.4122 13.4838 22.7522C13.7538 23.1222 14.1338 23.3822 14.5738 23.5022C15.0638 23.6422 15.2638 22.8822 14.7838 22.7422C14.5638 22.6822 14.3838 22.5722 14.2238 22.4122C14.1538 22.3422 14.0938 22.2522 14.0438 22.1622C14.0438 22.1422 14.0238 22.1222 14.0138 22.1022C14.0538 22.1022 14.1638 22.0922 14.2038 22.1022C14.3238 22.1222 14.4438 22.1522 14.5538 22.2022C14.7038 22.2522 14.8438 22.3322 14.9738 22.4222C15.0738 22.5022 15.1838 22.5822 15.2838 22.6522C15.6438 22.9122 16.0838 22.3322 15.7638 22.0322C15.6638 21.9422 15.5438 21.8422 15.4038 21.7522C15.2738 21.6422 15.1438 21.5222 15.0638 21.3722C14.9738 21.2222 14.9238 20.9722 15.0638 20.8222C15.2138 20.6622 15.6538 20.6822 15.8538 20.6922C16.1038 20.7122 16.3238 20.7922 16.4838 20.9822C16.7938 21.3322 17.2838 20.8822 17.1038 20.5022C16.9638 20.2022 16.8838 19.8622 16.8338 19.5322C16.7938 19.2522 16.7438 18.9222 16.7938 18.6422C16.7938 18.5922 16.8138 18.5422 16.8338 18.5022C16.8438 18.4822 16.8638 18.4622 16.8638 18.4622C16.9438 18.4622 17.0138 18.5622 17.0538 18.6222C17.2138 18.8822 17.2438 19.2122 17.4138 19.4822C17.6738 19.9122 18.3538 19.5222 18.0938 19.0822L18.0838 19.1022Z" fill="#77A636"/>
<path d="M6.82476 23.7919C6.74476 23.7919 6.66476 23.8119 6.58476 23.8019C6.54476 23.8019 6.50476 23.8019 6.46476 23.8019C6.44476 23.8019 6.44476 23.8019 6.43476 23.8019C6.43476 23.8019 6.43477 23.8019 6.42477 23.8019C6.35477 23.7919 6.28477 23.7719 6.20477 23.7519C6.16477 23.7419 6.12477 23.7219 6.09477 23.7119C6.15477 23.7319 6.04476 23.6819 6.04476 23.6819C5.90476 23.6119 5.79477 23.5319 5.70477 23.4619C5.65477 23.4119 5.59476 23.3619 5.55476 23.3019C5.54476 23.2819 5.53477 23.2819 5.53477 23.2819C5.53477 23.2819 5.53477 23.2819 5.51477 23.2519C5.49477 23.2219 5.47477 23.1819 5.45477 23.1519C5.37477 23.0219 5.35477 22.9519 5.31477 22.7919C5.31477 22.7619 5.30476 22.7219 5.29476 22.6819C5.29476 22.6719 5.29476 22.6019 5.29476 22.6019C5.29476 22.5219 5.29476 22.4419 5.29476 22.3519C5.29476 22.3119 5.29476 22.2819 5.32476 22.1919C5.34476 22.1219 5.36477 22.0419 5.39477 21.9719C5.39477 21.9619 5.39476 21.9519 5.40476 21.9419C5.40476 21.9419 5.40477 21.9319 5.42477 21.9119C5.44477 21.8719 5.46477 21.8419 5.48477 21.8019C5.50477 21.7619 5.52476 21.7319 5.55476 21.7019C5.59476 21.6419 5.54477 21.7019 5.59477 21.6519C5.73477 21.4919 5.75477 21.2619 5.59477 21.1019C5.45477 20.9619 5.17476 20.9419 5.04476 21.1019C4.48476 21.7719 4.35477 22.7319 4.78477 23.5119C5.17477 24.2319 6.04476 24.6819 6.85476 24.5819C7.06476 24.5519 7.24476 24.4219 7.24476 24.1919C7.24476 24.0019 7.06476 23.7719 6.85476 23.8019L6.82476 23.7919Z" fill="#77A636"/>
<path d="M17.8837 11.1327C17.5537 10.9727 17.1937 11.0027 16.9037 11.2027C16.6837 10.5527 16.2837 9.96266 15.6137 9.94266C15.1637 9.93266 14.7437 10.1927 14.4937 10.5627C14.2137 10.9727 14.1837 11.5127 14.2437 11.9927C14.2637 12.2027 14.4037 12.3827 14.6337 12.3827C14.8237 12.3827 15.0537 12.2027 15.0237 11.9927C14.9937 11.6827 14.9637 11.3427 15.1137 11.0627C15.2037 10.8827 15.4037 10.7027 15.6137 10.7327C15.8537 10.7627 16.0037 11.0927 16.0937 11.2927C16.2337 11.6127 16.3137 11.9527 16.3237 12.2927C16.3437 12.7227 16.9837 12.8427 17.0937 12.3927C17.1337 12.2227 17.1737 12.0027 17.3037 11.8727C17.4237 11.7527 17.5237 11.7927 17.6537 11.8927C17.9537 12.1127 18.1337 12.4827 18.1437 12.8427C18.1637 13.3427 18.9437 13.3527 18.9237 12.8427C18.8937 12.1527 18.5237 11.4327 17.8837 11.1227V11.1327Z" fill="#77A636"/>
<path d="M8.53456 14.422C7.92456 14.362 7.26455 14.502 6.91455 15.052C6.54455 15.632 6.69456 16.332 6.86456 16.952C6.92456 17.152 7.14456 17.292 7.34456 17.222C7.54456 17.152 7.67456 16.952 7.61456 16.742C7.57456 16.612 7.53456 16.472 7.50456 16.332C7.49456 16.272 7.47455 16.212 7.46455 16.142C7.46455 16.142 7.46455 16.132 7.46455 16.122C7.46455 16.122 7.46455 16.112 7.46455 16.092C7.46455 16.062 7.46455 16.032 7.46455 16.002C7.46455 15.942 7.46455 15.872 7.46455 15.812C7.46455 15.812 7.46455 15.782 7.46455 15.762C7.46455 15.742 7.46455 15.732 7.46455 15.722C7.47455 15.662 7.49455 15.612 7.51455 15.552C7.51455 15.552 7.51455 15.542 7.51455 15.532C7.52455 15.502 7.54455 15.482 7.55455 15.452C7.56455 15.432 7.58456 15.412 7.59456 15.382C7.61456 15.362 7.63455 15.342 7.66455 15.312C7.69455 15.292 7.77456 15.222 7.81456 15.232C7.80456 15.232 7.78455 15.242 7.77455 15.252C7.78455 15.252 7.80456 15.242 7.81456 15.232C7.83456 15.232 7.86455 15.212 7.88455 15.212C7.91455 15.212 7.94455 15.192 7.97455 15.192C7.97455 15.192 7.99456 15.192 8.00456 15.192C8.02456 15.192 8.04455 15.192 8.05455 15.192C8.08455 15.192 8.11456 15.192 8.14456 15.192C8.26456 15.192 8.37455 15.192 8.49455 15.202C8.69455 15.222 8.89455 15.012 8.88455 14.812C8.87455 14.582 8.71455 14.442 8.49455 14.422H8.53456Z" fill="#77A636"/>
<path d="M40.3717 12.3532C40.2517 11.8832 40.1017 11.3932 39.7517 11.0432C39.3717 10.6732 38.8317 10.5832 38.3217 10.6332C37.7217 10.7032 36.9117 10.9132 36.4117 11.3532C36.1617 10.9432 35.7717 10.6432 35.2217 10.7332C35.1817 10.7332 35.1417 10.7532 35.1017 10.7632C35.0017 10.1032 34.7517 9.48315 34.1617 9.06315C33.7817 8.79315 33.2917 8.64315 32.8217 8.75315C32.3417 8.86315 31.9317 9.28315 32.1917 9.78315C32.3917 10.1832 32.9417 9.92315 32.9117 9.54315C32.9117 9.54315 32.9217 9.54315 32.9317 9.53315C32.9917 9.51315 33.0517 9.50315 33.1217 9.50315C33.2517 9.50315 33.3817 9.53315 33.5017 9.58315C33.7517 9.69315 33.9717 9.90315 34.1117 10.1432C34.3317 10.5332 34.3817 11.0032 34.3817 11.4632C34.2817 11.7432 34.2817 12.0632 34.4117 12.3432C34.5817 12.7232 35.1217 12.4932 35.1417 12.1432C35.1417 11.9732 35.1517 11.8032 35.1517 11.6232C35.2217 11.5432 35.3217 11.4932 35.4117 11.5032C35.8017 11.5332 35.9217 12.0632 35.9517 12.3732C36.0017 12.8632 36.7517 12.8832 36.7317 12.3732C36.7017 11.6932 37.9017 11.4432 38.4317 11.3932C39.2117 11.3232 39.4417 11.8832 39.6117 12.5432C39.7317 13.0332 40.4917 12.8232 40.3717 12.3332V12.3532Z" fill="#77A636"/>
<path d="M44.9611 20.5016C44.8411 20.1316 44.6911 19.6216 44.3111 19.4416C43.8911 19.2416 43.4111 19.5516 43.0611 19.7816C42.6611 20.0516 42.3111 20.3816 42.0311 20.7716C42.0111 20.8016 41.9811 20.8316 41.9611 20.8716C41.7511 20.8416 41.5111 20.8916 41.2811 21.0016C41.3111 20.6216 41.3011 20.2416 41.2411 19.8616C41.1611 19.2916 40.9211 18.7116 40.3211 18.5316C39.1611 18.1816 38.0311 19.3416 37.6411 20.3016C37.4511 20.7716 38.2111 20.9716 38.4011 20.5116C38.5411 20.1716 38.7711 19.8716 39.0611 19.6416C39.3211 19.4316 39.7711 19.1516 40.1211 19.2916C40.4611 19.4216 40.4911 19.9516 40.5211 20.2616C40.5611 20.7516 40.5211 21.2316 40.4011 21.7116C40.3011 22.1016 40.7611 22.3516 41.0611 22.0916C41.1911 21.9816 41.3311 21.8816 41.4811 21.8016C41.2811 22.3216 41.2311 22.8716 41.5911 23.2716C41.7711 23.4616 42.0811 23.3916 42.2111 23.1916C42.4911 22.7516 42.7311 22.0016 42.5511 21.4416C42.6311 21.3116 42.7211 21.1916 42.8111 21.0816C43.0211 20.8416 43.2511 20.6316 43.5111 20.4516C43.6311 20.3716 43.8211 20.2216 43.9611 20.2016C44.0011 20.2016 43.9311 20.1516 44.0011 20.2016C44.0511 20.2516 44.0911 20.3916 44.1211 20.4516C44.6411 21.7116 44.4511 23.1816 43.6911 24.2916C43.4011 24.7116 44.0811 25.1016 44.3711 24.6916C44.9111 23.9016 45.2011 22.9516 45.2011 21.9916C45.2011 21.5016 45.1311 20.9916 44.9811 20.5316L44.9611 20.5016Z" fill="#77A636"/>
<path d="M51.7704 34.2305C51.2304 34.0805 50.6904 34.0005 50.1404 33.9805C50.2804 33.6105 50.2404 33.1705 49.9204 32.8105C49.3104 32.1105 48.4704 32.3505 47.7004 32.6005C47.8704 31.7105 47.7504 30.7205 46.7804 30.3705C45.7104 29.9805 44.5204 30.7405 43.9604 31.6205C43.6904 32.0505 44.3704 32.4405 44.6404 32.0205C44.9904 31.4705 45.7704 30.8905 46.4604 31.0905C47.3204 31.3405 46.9604 32.5205 46.7504 33.0905C46.6404 33.3805 46.9604 33.6405 47.2304 33.5705C47.7704 33.4305 48.3504 33.0505 48.9304 33.1305C49.1704 33.1605 49.4104 33.2905 49.4304 33.5605C49.4604 33.8305 49.2404 34.0105 48.9804 34.0205C48.9804 34.0205 48.9104 34.0205 48.8804 34.0305C48.4404 34.0905 48.5504 34.8105 48.9804 34.8005C49.0504 34.8005 49.1104 34.8005 49.1704 34.7805C49.9704 34.6805 50.7804 34.7605 51.5604 34.9805C52.0504 35.1205 52.2504 34.3605 51.7704 34.2205V34.2305Z" fill="#77A636"/>
<path d="M58.1292 21.7116C57.9092 21.2416 57.3292 21.2716 56.8792 21.3116C56.3492 21.3616 55.8492 21.5016 55.3792 21.7316C55.1892 21.8216 55.1392 22.0916 55.2392 22.2716C55.3492 22.4616 55.5892 22.5016 55.7792 22.4116C56.1592 22.2316 56.5992 22.1116 57.0092 22.0816C57.1192 22.0816 57.2192 22.0816 57.3292 22.0816C57.3292 22.0816 57.3992 22.0816 57.4492 22.0816C57.4492 22.0916 57.4492 22.1016 57.4592 22.1216C57.4692 22.1616 57.4892 22.1916 57.4992 22.2316C57.5192 22.3116 57.5392 22.4016 57.5592 22.4816C57.5592 22.5016 57.5592 22.5416 57.5592 22.5516C57.5592 22.6016 57.5592 22.6516 57.5592 22.7116C57.5592 22.8016 57.5592 22.8816 57.5492 22.9716C57.5492 22.9916 57.5492 23.0116 57.5392 23.0316C57.5392 23.0716 57.5192 23.1116 57.5192 23.1516C57.4992 23.2416 57.4692 23.3316 57.4392 23.4116C57.4392 23.4316 57.4292 23.4516 57.4192 23.4716C57.4192 23.4716 57.4192 23.4816 57.4092 23.5016C57.3892 23.5416 57.3792 23.5716 57.3592 23.6116C57.3192 23.6916 57.2692 23.7716 57.2192 23.8416C57.2192 23.8416 57.1792 23.8916 57.1792 23.9016C57.1492 23.9416 57.1192 23.9716 57.0892 24.0116C57.0292 24.0816 56.9592 24.1416 56.8892 24.2016C56.7292 24.3316 56.7492 24.6216 56.8892 24.7516C57.0492 24.9116 57.2792 24.8816 57.4392 24.7516C58.0192 24.2816 58.3392 23.5416 58.3692 22.8116C58.3792 22.4416 58.3092 22.0516 58.1492 21.7116H58.1292Z" fill="#77A636"/>
<path d="M24.4431 28.8611C24.4431 28.8611 24.3531 28.7711 24.3131 28.7311C24.3031 28.7211 24.2831 28.7011 24.2731 28.6911C24.2231 28.6411 24.1631 28.6111 24.1031 28.5911C23.8331 28.4511 23.5131 28.4111 23.2131 28.4111C22.7331 28.4111 22.1931 28.4911 21.8531 28.8611C21.5331 29.2011 21.4331 29.7411 21.7131 30.1411C21.7131 30.1511 21.7331 30.1611 21.7431 30.1711C20.8031 30.6211 20.0131 31.3611 19.5131 32.2811C19.2731 32.7211 19.9531 33.1211 20.1931 32.6811C20.7931 31.5811 21.8431 30.8011 23.0631 30.5411C23.4831 30.4511 23.4031 29.7211 22.9631 29.7711C22.8031 29.7911 22.5031 29.8411 22.3731 29.7011C22.2531 29.5711 22.4131 29.3911 22.5231 29.3211C22.7431 29.1811 23.0531 29.1911 23.3031 29.2011C23.5331 29.2011 23.7431 29.2411 23.8931 29.4211C24.2631 29.7811 24.7631 29.2511 24.4431 28.8711V28.8611Z" fill="#77A636"/>
<path d="M15.684 32.94C14.984 32.98 14.284 33.03 13.604 33.2C13.284 33.28 12.944 33.39 12.674 33.59C12.404 33.79 12.214 34.06 12.064 34.36C11.784 34.93 11.604 35.6 11.884 36.2C12.144 36.75 12.734 36.97 13.304 37.03C13.604 37.06 13.904 37.03 14.204 37C14.584 36.95 14.954 36.86 15.274 36.64C15.444 36.52 15.524 36.3 15.414 36.1C15.314 35.93 15.054 35.84 14.874 35.96C14.504 36.22 14.034 36.25 13.594 36.25C13.244 36.25 12.844 36.2 12.654 35.96C12.394 35.64 12.554 35.14 12.714 34.8C12.814 34.6 12.924 34.37 13.104 34.23C13.294 34.08 13.544 34.01 13.774 33.95C14.394 33.78 15.044 33.75 15.684 33.71C15.894 33.7 16.074 33.54 16.074 33.32C16.074 33.12 15.894 32.91 15.684 32.93V32.94Z" fill="#77A636"/>
<path d="M16.1538 45.7989C15.9938 45.6589 15.7538 45.6489 15.6038 45.7989C15.2838 46.1089 15.0338 46.3889 14.6338 46.5489C14.6138 46.5489 14.5438 46.5789 14.5338 46.5889C14.4838 46.6089 14.4338 46.6189 14.3838 46.6289C14.3338 46.6289 14.3338 46.6289 14.3738 46.6289C14.3438 46.6289 14.3238 46.6289 14.2938 46.6289C14.2438 46.6289 14.1938 46.6289 14.1338 46.6289C14.1138 46.6289 14.1138 46.6289 14.1038 46.6289C14.0838 46.6289 14.0638 46.6289 14.0438 46.6189C14.0238 46.6189 14.0038 46.6089 13.9838 46.5989C13.9838 46.5989 13.9838 46.5889 13.9838 46.5789C13.9838 46.4989 13.9838 46.4089 13.9838 46.3289C13.9838 46.3089 13.9838 46.2989 13.9838 46.2789C13.9838 46.2789 13.9838 46.2789 13.9838 46.2589C13.9838 46.2189 14.0038 46.1689 14.0138 46.1289C14.0238 46.0889 14.0338 46.0389 14.0538 45.9989C14.0538 45.9989 14.0738 45.9389 14.0838 45.9189C14.1138 45.8389 14.1538 45.7689 14.1938 45.6989C14.2138 45.6589 14.2438 45.6289 14.2638 45.5889C14.2638 45.5789 14.2738 45.5689 14.2738 45.5689C14.2738 45.5589 14.2938 45.5489 14.3038 45.5389C14.3638 45.4689 14.4238 45.4089 14.4938 45.3489C14.5038 45.3389 14.6138 45.2589 14.5438 45.3089C14.5838 45.2789 14.6138 45.2589 14.6538 45.2389C14.7338 45.1889 14.8138 45.1489 14.8938 45.1189C15.0838 45.0389 15.1438 44.7489 15.0338 44.5789C14.9038 44.3789 14.7038 44.3489 14.4938 44.4389C13.8338 44.7289 13.3238 45.3989 13.2138 46.1089C13.1838 46.3289 13.1738 46.5389 13.2138 46.7589C13.2638 47.0389 13.4538 47.2389 13.7138 47.3389C14.1438 47.5089 14.6238 47.4089 15.0338 47.2289C15.4738 47.0289 15.8338 46.6789 16.1738 46.3489C16.3238 46.2089 16.3338 45.9389 16.1738 45.7989H16.1538Z" fill="#77A636"/>
<path d="M5.40498 42.5692C5.33498 42.3492 5.13498 42.2592 4.92498 42.2992C4.82498 42.3192 4.72498 42.3392 4.63498 42.3492C4.62498 42.3492 4.62499 42.3492 4.61499 42.3492C4.59499 42.3492 4.57497 42.3492 4.55497 42.3492C4.50497 42.3492 4.44499 42.3492 4.39499 42.3592C4.30499 42.3592 4.21498 42.3592 4.12498 42.3592C4.10498 42.3592 4.10498 42.3592 4.09498 42.3592C4.09498 42.3592 4.09498 42.3592 4.07498 42.3592C4.02498 42.3492 3.97498 42.3392 3.92498 42.3192C3.90498 42.3192 3.88498 42.3092 3.87498 42.2992C3.87498 42.2992 3.87499 42.2992 3.86499 42.2992C3.83499 42.2792 3.79498 42.2592 3.76498 42.2392C3.75498 42.2392 3.75498 42.2392 3.74498 42.2292C3.74498 42.2292 3.72498 42.2192 3.71498 42.2092C3.69498 42.1892 3.66499 42.1692 3.64499 42.1392C3.63499 42.1292 3.62499 42.1192 3.61499 42.1092C3.59499 42.0792 3.58498 42.0592 3.56498 42.0292C3.56498 42.0192 3.52498 41.9592 3.52498 41.9492C3.52498 41.9292 3.50498 41.8992 3.49498 41.8792C3.48498 41.8392 3.47498 41.8092 3.46498 41.7692C3.46498 41.7592 3.46498 41.7392 3.46498 41.7292C3.46498 41.6992 3.46498 41.6692 3.46498 41.6392C3.46498 41.6192 3.46498 41.6092 3.46498 41.5892C3.46498 41.5592 3.47498 41.5292 3.48498 41.4992C3.48498 41.4792 3.49499 41.4592 3.50499 41.4392C3.53499 41.3792 3.57499 41.3092 3.61499 41.2492C3.62499 41.2392 3.65498 41.1992 3.66498 41.1992C3.69498 41.1692 3.72499 41.1392 3.75499 41.1192C3.78499 41.0892 3.81497 41.0692 3.83497 41.0492L3.88498 41.0092C4.02498 40.9092 4.18497 40.8192 4.33497 40.7392C4.51497 40.6492 4.58497 40.3692 4.47497 40.1992C4.35497 40.0092 4.13498 39.9592 3.93498 40.0592C3.31498 40.3792 2.72498 40.8492 2.66498 41.5992C2.60498 42.2992 3.10498 42.9792 3.79498 43.1392C4.23498 43.2392 4.68498 43.1692 5.12498 43.0892C5.32498 43.0492 5.46499 42.7992 5.39499 42.6092L5.40498 42.5692Z" fill="#77A636"/>
<path d="M52.1304 12.0629C51.8904 11.2429 51.0704 11.1029 50.3104 11.2029C50.3104 10.9329 50.2204 10.6629 50.0604 10.4529C49.6304 9.9129 48.8604 9.8329 48.2304 9.9829C47.4504 10.1629 46.7904 10.7529 46.5404 11.4629C46.0904 11.0129 45.5204 10.7529 44.8204 10.9629C44.3004 11.1229 43.9604 11.5929 43.9004 12.1329C43.8304 12.7729 44.1704 13.3429 44.6004 13.7829C44.9504 14.1429 45.5104 13.5929 45.1504 13.2329C44.8904 12.9729 44.6404 12.6329 44.6704 12.2429C44.7004 11.8829 44.9704 11.6629 45.3204 11.6829C45.9204 11.7229 46.2804 12.2629 46.5404 12.7729C46.5904 12.8929 46.6404 13.0129 46.7204 13.1329C47.0004 13.5629 47.6204 13.1929 47.4004 12.7329C46.9304 12.0029 47.3704 11.1529 48.1104 10.8429C48.4304 10.7029 48.8404 10.6329 49.1804 10.7629C49.4704 10.8729 49.6704 11.2329 49.3904 11.4629C49.0804 11.7129 49.4104 12.2329 49.7704 12.1229C50.2704 11.9729 51.3504 11.7029 51.4004 12.4829C51.4304 13.0729 51.0604 13.6229 50.6304 13.9829C50.2404 14.3029 50.8004 14.8629 51.1804 14.5329C51.8504 13.9729 52.3804 12.9629 52.1204 12.0629H52.1304Z" fill="#77A636"/>
<path d="M39.9014 3.92371C39.5514 3.49371 39.0214 3.60371 38.5514 3.74371C38.1514 3.86371 37.7614 4.06371 37.4614 4.35371C37.4414 4.34371 37.4314 4.32371 37.4114 4.31371C37.0414 4.01371 36.5414 3.93371 36.0814 4.04371C35.0914 4.28371 34.6614 5.44371 34.9914 6.34371C35.0614 6.54371 35.2614 6.67371 35.4714 6.61371C35.6614 6.56371 35.8214 6.33371 35.7414 6.13371C35.5814 5.68371 35.6514 5.05371 36.1414 4.83371C36.3414 4.74371 36.5814 4.74371 36.7814 4.83371C36.8514 4.86371 36.9514 4.93371 37.0114 5.01371C36.9314 5.26371 36.9314 5.52371 37.1114 5.74371C37.2714 5.94371 37.6114 5.86371 37.7314 5.66371C37.8414 5.47371 37.8714 5.26371 37.8414 5.06371C37.9114 4.97371 38.0014 4.88371 38.0514 4.84371C38.2514 4.66371 38.5214 4.55371 38.7814 4.48371C38.9414 4.43371 39.2214 4.30371 39.3114 4.46371C39.4314 4.69371 39.3314 5.05371 39.3514 5.30371C39.3714 5.51371 39.5214 5.69371 39.7414 5.69371C39.9414 5.69371 40.1514 5.51371 40.1314 5.30371C40.0814 4.82371 40.2114 4.33371 39.8814 3.92371H39.9014Z" fill="#77A636"/>
</g>
<path d="M8.51434 67.6282L9.14435 67.8282V68.6082C9.14435 69.0482 8.83434 70.2482 8.83434 70.2482C8.83434 70.2482 8.94434 68.5282 8.83434 68.2982L8.52434 67.6182L8.51434 67.6282Z" fill="#A86D31"/>
<path d="M11.9447 71.9583C11.8847 72.5783 11.7747 73.0783 11.6147 73.4783C10.7747 75.6583 8.78469 74.8583 8.78469 74.8583C8.78469 74.8583 6.04469 75.5683 5.50469 71.7883C5.42469 71.1983 5.44468 70.7083 5.54468 70.2983C5.72468 69.5283 6.17468 69.1083 6.62468 69.0183C7.59468 68.8183 8.13468 69.0383 8.43468 69.2883C8.67468 69.4883 9.00468 69.5083 9.26468 69.3383C9.61468 69.1183 10.1847 68.9283 11.0247 69.0683C11.7747 69.1983 12.1147 70.1983 11.9547 71.9483L11.9447 71.9583Z" fill="#FC8C28"/>
<path d="M9.84468 69.8475C9.45468 70.2475 8.79468 70.0575 7.98468 69.6375C7.17468 69.2175 6.32467 70.3875 7.33467 72.3975C8.34467 74.4075 9.76468 74.5375 10.6747 73.7375C11.5847 72.9375 12.0547 70.3275 11.3847 69.7275C10.9647 69.3575 10.2447 69.4375 9.84468 69.8475Z" fill="#F8B445"/>
<path d="M10.2142 69.9983C10.2142 69.9983 11.4142 69.7483 11.2942 70.7283C11.1742 71.7083 11.0542 72.8083 10.3542 73.1183C9.65415 73.4283 11.1342 71.5683 10.8042 70.8883C10.4742 70.2083 9.74416 70.1783 10.2142 70.0083V69.9983Z" fill="#FFECE5"/>
<path d="M11.6147 73.4769C10.7747 75.6569 8.78469 74.8569 8.78469 74.8569C8.78469 74.8569 6.04469 75.5669 5.50469 71.7869C5.42469 71.1969 5.44468 70.7069 5.54468 70.2969C5.54468 71.1269 5.66468 72.3769 6.18468 73.2569C6.77468 74.2569 7.21468 74.6269 8.96468 74.5669C10.6747 74.5069 10.4447 74.9269 11.6147 73.4769Z" fill="#D45132"/>
<path d="M27.9022 21.9631L28.5322 22.1631V22.9431C28.5322 23.3831 28.2222 24.5831 28.2222 24.5831C28.2222 24.5831 28.3322 22.8631 28.2222 22.6331L27.9122 21.9531L27.9022 21.9631Z" fill="#A86D31"/>
<path d="M31.3425 26.2922C31.2825 26.9122 31.1725 27.4122 31.0125 27.8122C30.1725 29.9922 28.1825 29.1922 28.1825 29.1922C28.1825 29.1922 25.4425 29.9022 24.9025 26.1222C24.8225 25.5322 24.8425 25.0422 24.9425 24.6322C25.1225 23.8622 25.5725 23.4422 26.0225 23.3522C26.9925 23.1522 27.5325 23.3722 27.8325 23.6222C28.0725 23.8222 28.4025 23.8422 28.6625 23.6722C29.0125 23.4522 29.5826 23.2622 30.4226 23.4022C31.1726 23.5322 31.5125 24.5322 31.3525 26.2822L31.3425 26.2922Z" fill="#FC8C28"/>
<path d="M29.2424 24.1825C28.8524 24.5825 28.1924 24.3925 27.3824 23.9725C26.5724 23.5525 25.7224 24.7225 26.7324 26.7325C27.7424 28.7425 29.1624 28.8725 30.0724 28.0725C30.9824 27.2725 31.4524 24.6625 30.7824 24.0625C30.3624 23.6925 29.6424 23.7725 29.2424 24.1825Z" fill="#F8B445"/>
<path d="M29.602 24.342C29.602 24.342 30.802 24.092 30.682 25.072C30.562 26.052 30.442 27.152 29.742 27.462C29.042 27.772 30.522 25.912 30.192 25.232C29.862 24.552 29.132 24.522 29.602 24.352V24.342Z" fill="#FFECE5"/>
<path d="M31.0125 27.8118C30.1725 29.9918 28.1825 29.1918 28.1825 29.1918C28.1825 29.1918 25.4425 29.9018 24.9025 26.1218C24.8225 25.5318 24.8425 25.0418 24.9425 24.6318C24.9425 25.4618 25.0625 26.7118 25.5825 27.5918C26.1725 28.5918 26.6126 28.9618 28.3626 28.9018C30.0726 28.8418 29.8425 29.2618 31.0125 27.8118Z" fill="#D45132"/>
<path d="M25.4725 21.1126C25.4825 21.4926 25.5526 21.8926 25.7026 22.2426C25.8426 22.5626 26.1025 22.8026 26.4125 22.9426C26.8125 23.1126 27.2626 23.0926 27.6526 22.9426C27.7126 22.9226 27.7226 22.8526 27.7026 22.8126C28.0726 22.4026 28.2326 21.8426 28.1226 21.2926C28.0626 21.0026 27.9326 20.7226 27.7526 20.4826C27.5526 20.2126 27.2926 20.0126 27.0426 19.7726C26.7526 19.4926 26.4926 19.1726 26.2526 18.8526C26.1926 18.7826 26.1026 18.8026 26.0926 18.8926C26.0426 19.2726 25.8425 19.6126 25.6925 19.9626C25.5425 20.3226 25.4625 20.7026 25.4725 21.0926V21.1126Z" fill="#858C16"/>
<mask id="mask2_181_16509" style="mask-type:luminance" maskUnits="userSpaceOnUse" x="25" y="18" width="4" height="6">
<path d="M25.4725 21.1126C25.4825 21.4926 25.5526 21.8926 25.7026 22.2426C25.8426 22.5626 26.1025 22.8026 26.4125 22.9426C26.8125 23.1126 27.2626 23.0926 27.6526 22.9426C27.7126 22.9226 27.7226 22.8526 27.7026 22.8126C28.0726 22.4026 28.2326 21.8426 28.1226 21.2926C28.0626 21.0026 27.9326 20.7226 27.7526 20.4826C27.5526 20.2126 27.2926 20.0126 27.0426 19.7726C26.7526 19.4926 26.4926 19.1726 26.2526 18.8526C26.1926 18.7826 26.1026 18.8026 26.0926 18.8926C26.0426 19.2726 25.8425 19.6126 25.6925 19.9626C25.5425 20.3226 25.4625 20.7026 25.4725 21.0926V21.1126Z" fill="white"/>
</mask>
<g mask="url(#mask2_181_16509)">
<path d="M27.7425 20.0217C27.7425 20.0217 28.2825 22.2617 27.5225 22.6517C26.7625 23.0417 25.7725 22.5617 25.7725 22.5617L26.9225 23.8917L28.5825 23.0217L28.4425 21.0917L27.7425 20.0117V20.0217Z" fill="#777D14"/>
<path d="M27.2026 22.4722C27.2026 22.4722 26.3326 22.7222 26.0226 22.3922C25.5026 21.8522 25.5226 21.0622 25.6326 20.4622C25.7426 19.8622 26.2026 19.7122 26.1726 19.4922C26.1726 19.4922 26.6426 19.5222 26.7726 20.1422C26.9026 20.7622 27.6626 21.1822 27.5626 21.8022C27.4626 22.4222 27.2026 22.4822 27.2026 22.4822V22.4722Z" fill="#919918"/>
<path d="M26.2224 22.4018C26.0324 22.3518 25.7624 21.8818 25.6924 21.5818C25.6224 21.3018 25.6224 21.0318 25.7224 20.7518C25.8324 20.4218 26.0225 20.5618 26.1425 20.8918C26.2625 21.2218 26.2624 21.6118 26.4624 21.9118C26.6524 22.2018 27.4024 22.7018 26.2224 22.4018Z" fill="#9DA61A"/>
</g>
<path d="M28.0724 23.2629C28.1724 23.3129 28.2624 23.1629 28.1624 23.1129C27.1024 22.5429 26.4424 21.4329 26.4424 20.2329C26.4424 20.1229 26.2624 20.1229 26.2624 20.2329C26.2624 21.4929 26.9624 22.6629 28.0724 23.2729V23.2629Z" fill="#5C610F"/>
<path d="M30.3822 22.0727C30.5622 21.8827 30.7022 21.6227 30.7822 21.3727C30.8622 21.1227 31.0022 20.4127 31.0222 20.2427C31.0422 20.0727 31.1622 19.2627 31.2822 18.7927C31.3122 18.6827 31.2122 18.5927 31.1222 18.6327C30.7322 18.8127 30.2722 18.8027 29.8322 18.8527C29.3822 18.9027 28.9722 19.0627 28.6222 19.3127C28.2822 19.5627 27.9522 19.8827 27.7422 20.2727C27.5522 20.6227 27.5122 21.0627 27.6222 21.5027C27.7222 21.9027 27.9422 22.2627 28.2122 22.5727C28.7722 22.7527 29.4722 23.0627 30.3722 22.0627L30.3822 22.0727Z" fill="#C6D121"/>
<mask id="mask3_181_16509" style="mask-type:luminance" maskUnits="userSpaceOnUse" x="27" y="18" width="5" height="5">
<path d="M30.3822 22.0727C30.5622 21.8827 30.7022 21.6227 30.7822 21.3727C30.8622 21.1227 31.0022 20.4127 31.0222 20.2427C31.0422 20.0727 31.1622 19.2627 31.2822 18.7927C31.3122 18.6827 31.2122 18.5927 31.1222 18.6327C30.7322 18.8127 30.2722 18.8027 29.8322 18.8527C29.3822 18.9027 28.9722 19.0627 28.6222 19.3127C28.2822 19.5627 27.9522 19.8827 27.7422 20.2727C27.5522 20.6227 27.5122 21.0627 27.6222 21.5027C27.7222 21.9027 27.9422 22.2627 28.2122 22.5727C28.7722 22.7527 29.4722 23.0627 30.3722 22.0627L30.3822 22.0727Z" fill="white"/>
</mask>
<g mask="url(#mask3_181_16509)">
<path d="M30.8523 19.0129C30.8523 19.0129 29.0723 18.8929 28.2723 19.9229C27.5823 20.8029 27.7823 21.4829 27.9523 21.8929C28.1223 22.3029 28.7223 22.4829 28.8923 22.5229C29.0623 22.5629 30.3123 22.4829 30.4123 21.2629C30.5123 20.0429 30.8623 19.0029 30.8623 19.0029L30.8523 19.0129Z" fill="#CDD73B"/>
</g>
<path d="M28.2522 23.1427C28.0322 21.8127 28.8322 20.6027 29.8222 19.8027C30.1422 19.5427 30.5022 19.3227 30.8622 19.1127C30.9622 19.0527 30.8822 18.8927 30.7722 18.9527C29.5522 19.6527 28.3822 20.6627 28.0922 22.1027C28.0222 22.4627 28.0122 22.8227 28.0722 23.1827C28.0922 23.3027 28.2722 23.2627 28.2522 23.1427Z" fill="#5C610F"/>
<path d="M30.2821 19.8525C30.2821 19.8525 28.8721 20.7625 28.8421 21.4025C28.8121 22.0425 29.3621 22.3425 29.6521 22.0925C29.8221 21.9425 30.1421 21.3125 30.2721 20.7225C30.3621 20.3025 30.2821 19.8525 30.2821 19.8525Z" fill="#D3DC54"/>
<path d="M48.06 10.5852L48.69 10.7852V11.5652C48.69 12.0052 48.38 13.2052 48.38 13.2052C48.38 13.2052 48.49 11.4852 48.38 11.2552L48.07 10.5752L48.06 10.5852Z" fill="#A86D31"/>
<path d="M51.5003 14.9153C51.4403 15.5353 51.3303 16.0353 51.1703 16.4353C50.3303 18.6153 48.3403 17.8153 48.3403 17.8153C48.3403 17.8153 45.6003 18.5253 45.0603 14.7453C44.9803 14.1553 45.0003 13.6653 45.1003 13.2553C45.2803 12.4853 45.7303 12.0653 46.1803 11.9753C47.1503 11.7753 47.6903 11.9953 47.9903 12.2453C48.2303 12.4453 48.5603 12.4653 48.8203 12.2953C49.1703 12.0753 49.7403 11.8853 50.5803 12.0253C51.3303 12.1553 51.6703 13.1553 51.5103 14.9053L51.5003 14.9153Z" fill="#FC8C28"/>
<path d="M49.4001 12.8055C49.0101 13.2055 48.3501 13.0155 47.5401 12.5955C46.7301 12.1755 45.8801 13.3455 46.8901 15.3555C47.9001 17.3655 49.3201 17.4955 50.2301 16.6955C51.1401 15.8955 51.6101 13.2855 50.9401 12.6855C50.5201 12.3155 49.8001 12.3955 49.4001 12.8055Z" fill="#F8B445"/>
<path d="M49.7598 12.9553C49.7598 12.9553 50.9598 12.7053 50.8398 13.6853C50.7198 14.6653 50.5998 15.7653 49.8998 16.0753C49.1998 16.3853 50.6798 14.5253 50.3498 13.8453C50.0198 13.1653 49.2898 13.1353 49.7598 12.9653V12.9553Z" fill="#FFECE5"/>
<path d="M51.1703 16.4251C50.3303 18.6051 48.3403 17.8051 48.3403 17.8051C48.3403 17.8051 45.6003 18.5151 45.0603 14.7351C44.9803 14.1451 45.0003 13.6551 45.1003 13.2451C45.1003 14.0751 45.2203 15.3251 45.7403 16.2051C46.3303 17.2051 46.7703 17.5751 48.5203 17.5151C50.2303 17.4551 50.0003 17.8751 51.1703 16.4251Z" fill="#D45132"/>
<path d="M46.2003 9.23504C46.0803 9.68504 46.0303 10.175 46.0903 10.635C46.1403 11.055 46.3603 11.425 46.6903 11.695C47.1003 12.025 47.6303 12.165 48.1503 12.115C48.2303 12.115 48.2603 12.035 48.2503 11.975C48.8203 11.625 49.2003 11.015 49.2503 10.345C49.2803 9.98504 49.2203 9.61504 49.0903 9.27504C48.9503 8.88504 48.7103 8.56504 48.5003 8.20504C48.2503 7.78504 48.0603 7.32504 47.8803 6.86504C47.8403 6.76504 47.7203 6.76504 47.6703 6.86504C47.4803 7.29504 47.1303 7.62504 46.8403 7.98504C46.5403 8.35504 46.3203 8.77504 46.2003 9.23504Z" fill="#8AB51D"/>
<mask id="mask4_181_16509" style="mask-type:luminance" maskUnits="userSpaceOnUse" x="46" y="6" width="4" height="7">
<path d="M46.2003 9.23504C46.0803 9.68504 46.0303 10.175 46.0903 10.635C46.1403 11.055 46.3603 11.425 46.6903 11.695C47.1003 12.025 47.6303 12.165 48.1503 12.115C48.2303 12.115 48.2603 12.035 48.2503 11.975C48.8203 11.625 49.2003 11.015 49.2503 10.345C49.2803 9.98504 49.2203 9.61504 49.0903 9.27504C48.9503 8.88504 48.7103 8.56504 48.5003 8.20504C48.2503 7.78504 48.0603 7.32504 47.8803 6.86504C47.8403 6.76504 47.7203 6.76504 47.6703 6.86504C47.4803 7.29504 47.1303 7.62504 46.8403 7.98504C46.5403 8.35504 46.3203 8.77504 46.2003 9.23504Z" fill="white"/>
</mask>
<g mask="url(#mask4_181_16509)">
<path d="M49.2303 8.72582C49.2303 8.72582 49.1103 11.5358 48.0803 11.7258C47.0503 11.9158 46.0603 11.0358 46.0603 11.0358L46.9503 12.9858L49.1903 12.5258L49.6803 10.2158L49.2303 8.71582V8.72582Z" fill="#7EAD07"/>
<path d="M47.7703 11.4154C47.7703 11.4154 46.6703 11.4154 46.4103 10.9254C45.9803 10.1054 46.2803 9.19543 46.6103 8.52543C46.9403 7.85543 47.5303 7.83543 47.5803 7.56543C47.5803 7.56543 48.1203 7.76543 48.0603 8.52543C48.0003 9.28543 48.7403 10.0454 48.4203 10.7354C48.1003 11.4254 47.7703 11.4054 47.7703 11.4054V11.4154Z" fill="#94BB31"/>
<path d="M46.6404 10.9951C46.4304 10.8751 46.2803 10.2251 46.3003 9.85505C46.3203 9.50505 46.4104 9.18505 46.6104 8.88505C46.8404 8.53505 47.0304 8.76505 47.0604 9.18505C47.0904 9.60505 46.9603 10.0651 47.0903 10.4951C47.2203 10.9051 47.9304 11.7451 46.6404 10.9851V10.9951Z" fill="#9EC245"/>
</g>
<path d="M48.52 12.6351C48.62 12.7351 48.77 12.5851 48.68 12.4851C47.64 11.4551 47.24 9.9351 47.64 8.5251C47.68 8.3951 47.47 8.3351 47.43 8.4651C47.01 9.9451 47.43 11.5551 48.52 12.6351Z" fill="#5C610F"/>
<path d="M47.8703 10.2655C47.7303 10.0655 47.5303 9.88547 47.3203 9.76547C47.1103 9.64547 46.4903 9.37547 46.3503 9.32547C46.2103 9.27547 45.5003 9.00547 45.0903 8.80547C45.0003 8.76547 44.9003 8.83547 44.9203 8.92547C45.0103 9.31547 44.9103 9.72547 44.8703 10.1355C44.8303 10.5555 44.8903 10.9455 45.0503 11.3155C45.2103 11.6755 45.4403 12.0255 45.7403 12.2955C46.0203 12.5355 46.4103 12.6555 46.8203 12.6355C47.2003 12.6255 47.5703 12.5055 47.9003 12.3055C48.1803 11.8355 48.5903 11.2655 47.8703 10.2555V10.2655Z" fill="#96A738"/>
<mask id="mask5_181_16509" style="mask-type:luminance" maskUnits="userSpaceOnUse" x="44" y="8" width="5" height="5">
<path d="M47.8703 10.2655C47.7303 10.0655 47.5303 9.88547 47.3203 9.76547C47.1103 9.64547 46.4903 9.37547 46.3503 9.32547C46.2103 9.27547 45.5003 9.00547 45.0903 8.80547C45.0003 8.76547 44.9003 8.83547 44.9203 8.92547C45.0103 9.31547 44.9103 9.72547 44.8703 10.1355C44.8303 10.5555 44.8903 10.9455 45.0503 11.3155C45.2103 11.6755 45.4403 12.0255 45.7403 12.2955C46.0203 12.5355 46.4103 12.6555 46.8203 12.6355C47.2003 12.6255 47.5703 12.5055 47.9003 12.3055C48.1803 11.8355 48.5903 11.2655 47.8703 10.2555V10.2655Z" fill="white"/>
</mask>
<g mask="url(#mask5_181_16509)">
<path d="M45.2104 9.23535C45.2104 9.23535 44.7504 10.8154 45.5204 11.7454C46.1804 12.5354 46.8204 12.4954 47.2304 12.4254C47.6404 12.3554 47.9104 11.8454 47.9804 11.7054C48.0504 11.5654 48.2204 10.4254 47.1504 10.0854C46.0804 9.74535 45.2104 9.23535 45.2104 9.23535Z" fill="#A3B53D"/>
</g>
<path d="M48.4203 12.3858C47.1803 12.3258 46.2403 11.3658 45.7203 10.3158C45.5503 9.97576 45.4203 9.61576 45.3003 9.24576C45.2703 9.14576 45.1003 9.18576 45.1403 9.29576C45.5303 10.5358 46.2103 11.7858 47.4503 12.3258C47.7603 12.4558 48.0803 12.5358 48.4203 12.5558C48.5303 12.5558 48.5303 12.3858 48.4203 12.3858Z" fill="#5C610F"/>
<path d="M45.8503 9.91504C45.8503 9.91504 46.3903 11.365 46.9603 11.515C47.5303 11.665 47.9103 11.225 47.7403 10.925C47.6403 10.745 47.1303 10.325 46.6303 10.095C46.2703 9.93504 45.8503 9.91504 45.8503 9.91504Z" fill="#AFC241"/>
<path d="M47.82 8.98533C47.59 9.27533 47.38 9.62533 47.27 9.98533C47.17 10.3153 47.2101 10.6653 47.3601 10.9653C47.5501 11.3453 47.9001 11.6153 48.2901 11.7653C48.3501 11.7853 48.4 11.7453 48.41 11.6953C48.95 11.6253 49.43 11.3053 49.69 10.8253C49.83 10.5653 49.91 10.2753 49.93 9.98533C49.95 9.65533 49.88 9.33533 49.85 9.00533C49.81 8.60533 49.8201 8.20533 49.8401 7.81533C49.8401 7.72533 49.75 7.68533 49.69 7.74533C49.41 8.00533 49.04 8.12533 48.71 8.29533C48.36 8.46533 48.07 8.70533 47.82 9.00533V8.98533Z" fill="#8AB51D"/>
<mask id="mask6_181_16509" style="mask-type:luminance" maskUnits="userSpaceOnUse" x="47" y="7" width="3" height="5">
<path d="M47.82 8.98533C47.59 9.27533 47.38 9.62533 47.27 9.98533C47.17 10.3153 47.2101 10.6653 47.3601 10.9653C47.5501 11.3453 47.9001 11.6153 48.2901 11.7653C48.3501 11.7853 48.4 11.7453 48.41 11.6953C48.95 11.6253 49.43 11.3053 49.69 10.8253C49.83 10.5653 49.91 10.2753 49.93 9.98533C49.95 9.65533 49.88 9.33533 49.85 9.00533C49.81 8.60533 49.8201 8.20533 49.8401 7.81533C49.8401 7.72533 49.75 7.68533 49.69 7.74533C49.41 8.00533 49.04 8.12533 48.71 8.29533C48.36 8.46533 48.07 8.70533 47.82 9.00533V8.98533Z" fill="white"/>
</mask>
<g mask="url(#mask6_181_16509)">
<path d="M50.22 9.61523C50.22 9.61523 49.2 11.6452 48.37 11.4552C47.54 11.2652 47.11 10.2752 47.11 10.2752V12.0052L48.93 12.4152L50.05 10.8752L50.21 9.62523L50.22 9.61523Z" fill="#7EAD07"/>
<path d="M48.25 11.1156C48.25 11.1156 47.44 10.7456 47.41 10.3056C47.36 9.56559 47.89 8.98559 48.35 8.60559C48.81 8.22559 49.26 8.40559 49.38 8.22559C49.38 8.22559 49.71 8.55559 49.41 9.09559C49.11 9.63559 49.41 10.4456 48.94 10.8456C48.47 11.2456 48.24 11.1256 48.24 11.1256L48.25 11.1156Z" fill="#94BB31"/>
<path d="M47.56 10.4359C47.45 10.2759 47.55 9.74592 47.68 9.47592C47.81 9.22592 47.98 9.01592 48.23 8.86592C48.52 8.68592 48.58 8.91592 48.46 9.23592C48.34 9.55592 48.09 9.85592 48.05 10.2159C48.01 10.5559 48.25 11.4159 47.55 10.4259L47.56 10.4359Z" fill="#9EC245"/>
</g>
<path d="M48.4101 12.2655C48.4501 12.3655 48.6101 12.3155 48.5701 12.2055C48.1401 11.1055 48.3501 9.8455 49.1201 8.9355C49.1901 8.8455 49.0601 8.7355 48.9901 8.8255C48.1901 9.7755 47.9601 11.1055 48.4101 12.2655Z" fill="#5C610F"/>
<path d="M18.8132 67.6272L19.4432 67.8272V68.6072C19.4432 69.0472 19.1332 70.2472 19.1332 70.2472C19.1332 70.2472 19.2432 68.5272 19.1332 68.2972L18.8232 67.6172L18.8132 67.6272Z" fill="#A84B30"/>
<path d="M22.2535 71.9573C22.1935 72.5773 22.0835 73.0773 21.9235 73.4773C21.0835 75.6573 19.0935 74.8573 19.0935 74.8573C19.0935 74.8573 16.3535 75.5673 15.8135 71.7873C15.7335 71.1973 15.7535 70.7073 15.8535 70.2973C16.0335 69.5273 16.4835 69.1073 16.9335 69.0173C17.9035 68.8173 18.4435 69.0373 18.7435 69.2873C18.9835 69.4873 19.3135 69.5073 19.5735 69.3373C19.9235 69.1173 20.4935 68.9273 21.3335 69.0673C22.0835 69.1973 22.4235 70.1973 22.2635 71.9473L22.2535 71.9573Z" fill="#FC4F27"/>
<path d="M20.1435 69.8465C19.7535 70.2465 19.0935 70.0565 18.2835 69.6365C17.4735 69.2165 16.6235 70.3865 17.6335 72.3965C18.6435 74.4065 20.0635 74.5365 20.9735 73.7365C21.8835 72.9365 22.3535 70.3265 21.6835 69.7265C21.2635 69.3565 20.5435 69.4365 20.1435 69.8465Z" fill="#F88344"/>
<path d="M20.513 69.9973C20.513 69.9973 21.713 69.7473 21.593 70.7273C21.473 71.7073 21.353 72.8073 20.653 73.1173C19.953 73.4273 21.433 71.5673 21.103 70.8873C20.773 70.2073 20.043 70.1773 20.513 70.0073V69.9973Z" fill="#FFE5E7"/>
<path d="M21.9236 73.4759C21.0836 75.6559 19.0936 74.8559 19.0936 74.8559C19.0936 74.8559 16.3536 75.5659 15.8136 71.7859C15.7336 71.1959 15.7536 70.7059 15.8536 70.2959C15.8536 71.1259 15.9735 72.3759 16.4935 73.2559C17.0835 74.2559 17.5235 74.6259 19.2735 74.5659C20.9835 74.5059 20.7536 74.9259 21.9236 73.4759Z" fill="#D43257"/>
<path d="M18.1534 68.9673C18.0234 68.9873 17.8834 68.9773 17.7634 68.9373C17.6434 68.8973 17.3134 68.7673 17.2434 68.7273C17.1734 68.6873 16.8134 68.5173 16.5934 68.4373C16.5434 68.4173 16.5334 68.3573 16.5734 68.3273C16.7534 68.2173 16.8734 68.0273 17.0134 67.8673C17.1534 67.6973 17.3234 67.5773 17.5234 67.5073C17.7134 67.4373 17.9334 67.3973 18.1434 67.4173C18.3334 67.4373 18.5234 67.5373 18.6734 67.6973C18.8034 67.8473 18.8934 68.0273 18.9434 68.2273C18.8634 68.5073 18.8034 68.8673 18.1534 68.9573V68.9673Z" fill="#C6D121"/>
<mask id="mask7_181_16509" style="mask-type:luminance" maskUnits="userSpaceOnUse" x="16" y="67" width="3" height="2">
<path d="M18.1534 68.9673C18.0234 68.9873 17.8834 68.9773 17.7634 68.9373C17.6434 68.8973 17.3134 68.7673 17.2434 68.7273C17.1734 68.6873 16.8134 68.5173 16.5934 68.4373C16.5434 68.4173 16.5334 68.3573 16.5734 68.3273C16.7534 68.2173 16.8734 68.0273 17.0134 67.8673C17.1534 67.6973 17.3234 67.5773 17.5234 67.5073C17.7134 67.4373 17.9334 67.3973 18.1434 67.4173C18.3334 67.4373 18.5234 67.5373 18.6734 67.6973C18.8034 67.8473 18.8934 68.0273 18.9434 68.2273C18.8634 68.5073 18.8034 68.8673 18.1534 68.9573V68.9673Z" fill="white"/>
</mask>
<g mask="url(#mask7_181_16509)">
<path d="M16.7934 68.3276C16.7934 68.3276 17.2234 67.5776 17.8534 67.5276C18.3934 67.4876 18.6134 67.7476 18.7334 67.9276C18.8534 68.1076 18.7634 68.3976 18.7334 68.4776C18.7034 68.5576 18.3334 69.0376 17.8134 68.7576C17.2934 68.4776 16.7834 68.3276 16.7834 68.3276H16.7934Z" fill="#CDD73B"/>
</g>
<path d="M19.1634 68.397C18.6934 67.957 17.9834 67.947 17.3934 68.127C17.2034 68.187 17.0134 68.267 16.8334 68.357C16.7834 68.387 16.7434 68.307 16.7934 68.277C17.4034 67.977 18.1234 67.777 18.7834 68.047C18.9434 68.117 19.0934 68.207 19.2234 68.327C19.2634 68.367 19.2034 68.427 19.1534 68.387L19.1634 68.397Z" fill="#5C610F"/>
<path d="M17.2833 68.3269C17.2833 68.3269 18.0333 68.0069 18.2933 68.1669C18.5533 68.3269 18.5333 68.6269 18.3533 68.6769C18.2533 68.7069 17.9033 68.6669 17.6333 68.5569C17.4433 68.4769 17.2833 68.3269 17.2833 68.3269Z" fill="#D3DC54"/>
<path d="M51.2796 25.2815L51.9096 25.4815V26.2615C51.9096 26.7015 51.5996 27.9015 51.5996 27.9015C51.5996 27.9015 51.7096 26.1815 51.5996 25.9515L51.2896 25.2715L51.2796 25.2815Z" fill="#A86D31"/>
<path d="M54.7099 29.6116C54.6499 30.2316 54.5399 30.7316 54.3799 31.1316C53.5399 33.3116 51.5499 32.5116 51.5499 32.5116C51.5499 32.5116 48.8099 33.2216 48.2699 29.4416C48.1899 28.8516 48.2099 28.3616 48.3099 27.9516C48.4899 27.1816 48.94 26.7616 49.39 26.6716C50.36 26.4716 50.8999 26.6916 51.1999 26.9416C51.4399 27.1416 51.77 27.1616 52.03 26.9916C52.38 26.7716 52.9499 26.5816 53.7899 26.7216C54.5399 26.8516 54.8799 27.8516 54.7199 29.6016L54.7099 29.6116Z" fill="#FC8C28"/>
<path d="M52.6099 27.5018C52.2199 27.9018 51.5599 27.7118 50.7499 27.2918C49.9399 26.8718 49.0899 28.0418 50.0999 30.0518C51.1099 32.0618 52.5299 32.1918 53.4399 31.3918C54.3499 30.5918 54.8199 27.9818 54.1499 27.3818C53.7299 27.0118 53.0099 27.0918 52.6099 27.5018Z" fill="#F8B445"/>
<path d="M52.9794 27.6516C52.9794 27.6516 54.1794 27.4016 54.0594 28.3816C53.9394 29.3616 53.8194 30.4616 53.1194 30.7716C52.4194 31.0816 53.8994 29.2216 53.5694 28.5416C53.2394 27.8616 52.5094 27.8316 52.9794 27.6616V27.6516Z" fill="#FFECE5"/>
<path d="M54.38 31.1214C53.54 33.3014 51.55 32.5014 51.55 32.5014C51.55 32.5014 48.81 33.2114 48.27 29.4314C48.19 28.8414 48.21 28.3514 48.31 27.9414C48.31 28.7714 48.43 30.0214 48.95 30.9014C49.54 31.9014 49.98 32.2714 51.73 32.2114C53.44 32.1514 53.21 32.5714 54.38 31.1214Z" fill="#D45132"/>
<path d="M55.5796 26.4013C55.2796 26.1013 54.9196 25.8113 54.5296 25.6413C54.1796 25.4813 53.7796 25.4713 53.4096 25.6013C52.9496 25.7613 52.5896 26.1113 52.3796 26.5413C52.3496 26.6013 52.3796 26.6613 52.4396 26.6813C52.4396 27.3013 52.7396 27.8913 53.2496 28.2513C53.5196 28.4513 53.8396 28.5713 54.1696 28.6413C54.5396 28.7113 54.9096 28.6813 55.2896 28.6913C55.7396 28.6913 56.1896 28.7713 56.6396 28.8513C56.7396 28.8713 56.7996 28.7713 56.7396 28.6913C56.4896 28.3413 56.3996 27.9013 56.2596 27.5013C56.1096 27.0813 55.8896 26.7213 55.5796 26.4013Z" fill="#8AB51D"/>
<mask id="mask8_181_16509" style="mask-type:luminance" maskUnits="userSpaceOnUse" x="52" y="25" width="5" height="4">
<path d="M55.5796 26.4013C55.2796 26.1013 54.9196 25.8113 54.5296 25.6413C54.1796 25.4813 53.7796 25.4713 53.4096 25.6013C52.9496 25.7613 52.5896 26.1113 52.3796 26.5413C52.3496 26.6013 52.3796 26.6613 52.4396 26.6813C52.4396 27.3013 52.7396 27.8913 53.2496 28.2513C53.5196 28.4513 53.8396 28.5713 54.1696 28.6413C54.5396 28.7113 54.9096 28.6813 55.2896 28.6913C55.7396 28.6913 56.1896 28.7713 56.6396 28.8513C56.7396 28.8713 56.7996 28.7713 56.7396 28.6913C56.4896 28.3413 56.3996 27.9013 56.2596 27.5013C56.1096 27.0813 55.8896 26.7213 55.5796 26.4013Z" fill="white"/>
</mask>
<g mask="url(#mask8_181_16509)">
<path d="M54.5196 29.0314C54.5196 29.0314 52.3696 27.5914 52.7096 26.6814C53.0496 25.7714 54.2296 25.4214 54.2296 25.4214L52.2696 25.1914L51.5496 27.1714L53.1296 28.6614L54.5196 29.0214V29.0314Z" fill="#7EAD07"/>
<path d="M53.1096 26.5915C53.1096 26.5915 53.6396 25.7315 54.1396 25.7615C54.9896 25.8115 55.5596 26.4815 55.9296 27.0715C56.2996 27.6615 56.0296 28.1215 56.2196 28.2915C56.2196 28.2915 55.7996 28.6215 55.2296 28.2115C54.6596 27.8015 53.7096 28.0215 53.3196 27.4315C52.9296 26.8415 53.1096 26.6015 53.1096 26.6015V26.5915Z" fill="#94BB31"/>
<path d="M53.9796 25.9113C54.1696 25.8113 54.7596 25.9913 55.0396 26.1913C55.3096 26.3713 55.5096 26.6013 55.6496 26.9013C55.8096 27.2513 55.5496 27.2913 55.1996 27.1113C54.8496 26.9313 54.5596 26.6113 54.1496 26.5113C53.7696 26.4113 52.7696 26.5713 53.9796 25.9213V25.9113Z" fill="#9EC245"/>
</g>
<path d="M51.7896 26.6014C51.6696 26.6314 51.7096 26.8214 51.8296 26.7914C53.1396 26.4614 54.5296 26.8814 55.4396 27.8714C55.5296 27.9614 55.6696 27.8314 55.5896 27.7414C54.6296 26.7014 53.1596 26.2614 51.7896 26.6014Z" fill="#5C610F"/>
<path d="M53.5495 26.9814C53.7195 26.9514 53.9095 26.8814 54.0495 26.7814C54.1895 26.6814 54.5695 26.3714 54.6495 26.2914C54.7295 26.2114 55.1296 25.8414 55.3896 25.6414C55.4496 25.6014 55.4295 25.5114 55.3695 25.4914C55.0895 25.4214 54.8495 25.2214 54.5995 25.0714C54.3395 24.9114 54.0695 24.8214 53.7695 24.8114C53.4895 24.8014 53.1795 24.8314 52.9095 24.9514C52.6595 25.0514 52.4595 25.2714 52.3395 25.5414C52.2295 25.7914 52.1895 26.0714 52.2095 26.3514C52.4295 26.6814 52.6695 27.1314 53.5495 26.9914V26.9814Z" fill="#C6D121"/>
<mask id="mask9_181_16509" style="mask-type:luminance" maskUnits="userSpaceOnUse" x="52" y="24" width="4" height="4">
<path d="M53.5495 26.9814C53.7195 26.9514 53.9095 26.8814 54.0495 26.7814C54.1895 26.6814 54.5695 26.3714 54.6495 26.2914C54.7295 26.2114 55.1296 25.8414 55.3896 25.6414C55.4496 25.6014 55.4295 25.5114 55.3695 25.4914C55.0895 25.4214 54.8495 25.2214 54.5995 25.0714C54.3395 24.9114 54.0695 24.8214 53.7695 24.8114C53.4895 24.8014 53.1795 24.8314 52.9095 24.9514C52.6595 25.0514 52.4595 25.2714 52.3395 25.5414C52.2295 25.7914 52.1895 26.0714 52.2095 26.3514C52.4295 26.6814 52.6695 27.1314 53.5495 26.9914V26.9814Z" fill="white"/>
</mask>
<g mask="url(#mask9_181_16509)">
<path d="M55.0796 25.5811C55.0796 25.5811 54.1996 24.7711 53.3496 24.9811C52.6196 25.1511 52.4396 25.5911 52.3596 25.8811C52.2796 26.1711 52.5196 26.5111 52.5896 26.6011C52.6596 26.6911 53.3496 27.1711 53.9096 26.5811C54.4696 25.9911 55.0896 25.5911 55.0896 25.5911L55.0796 25.5811Z" fill="#CDD73B"/>
</g>
<path d="M51.9896 26.6615C52.4296 25.8715 53.3496 25.5715 54.2096 25.5715C54.4896 25.5715 54.7696 25.6015 55.0396 25.6415C55.1196 25.6515 55.1396 25.5315 55.0596 25.5215C54.1296 25.3815 53.0896 25.4215 52.3396 26.0515C52.1496 26.2115 51.9996 26.3915 51.8796 26.6115C51.8396 26.6815 51.9496 26.7315 51.9896 26.6615Z" fill="#5C610F"/>
<path d="M54.4296 25.781C54.4296 25.781 53.3096 25.671 53.0296 25.991C52.7496 26.311 52.9096 26.701 53.1696 26.691C53.3196 26.691 53.7496 26.491 54.0696 26.231C54.2896 26.051 54.4396 25.781 54.4396 25.781H54.4296Z" fill="#D3DC54"/>
<path d="M34.8415 7.75512L35.4715 7.95512V8.73512C35.4715 9.17512 35.1615 10.3751 35.1615 10.3751C35.1615 10.3751 35.2715 8.65512 35.1615 8.42512L34.8515 7.74512L34.8415 7.75512Z" fill="#A86D31"/>
<path d="M38.2718 12.0852C38.2118 12.7052 38.1018 13.2052 37.9418 13.6052C37.1018 15.7852 35.1118 14.9852 35.1118 14.9852C35.1118 14.9852 32.3718 15.6952 31.8318 11.9152C31.7518 11.3252 31.7718 10.8352 31.8718 10.4252C32.0518 9.65521 32.5018 9.23521 32.9518 9.14521C33.9218 8.94521 34.4618 9.16521 34.7618 9.41521C35.0018 9.61521 35.3318 9.63521 35.5918 9.46521C35.9418 9.24521 36.5118 9.05521 37.3518 9.19521C38.1018 9.32521 38.4418 10.3252 38.2818 12.0752L38.2718 12.0852Z" fill="#FC8C28"/>
<path d="M36.1718 9.97544C35.7818 10.3754 35.1218 10.1854 34.3118 9.76544C33.5018 9.34544 32.6518 10.5154 33.6618 12.5254C34.6718 14.5354 36.0918 14.6654 37.0018 13.8654C37.9118 13.0654 38.3818 10.4554 37.7118 9.85544C37.2918 9.48544 36.5718 9.56544 36.1718 9.97544Z" fill="#F8B445"/>
<path d="M36.5412 10.135C36.5412 10.135 37.7412 9.88498 37.6212 10.865C37.5012 11.845 37.3812 12.945 36.6812 13.255C35.9812 13.565 37.4612 11.705 37.1312 11.025C36.8012 10.345 36.0712 10.315 36.5412 10.145V10.135Z" fill="#FFECE5"/>
<path d="M37.9518 13.6048C37.1118 15.7848 35.1218 14.9848 35.1218 14.9848C35.1218 14.9848 32.3818 15.6948 31.8418 11.9148C31.7618 11.3248 31.7818 10.8348 31.8818 10.4248C31.8818 11.2548 32.0018 12.5048 32.5218 13.3848C33.1118 14.3848 33.5518 14.7548 35.3018 14.6948C37.0118 14.6348 36.7818 15.0548 37.9518 13.6048Z" fill="#D45132"/>
<path d="M36.2815 8.65481C36.3615 8.53481 36.4214 8.38481 36.4414 8.24481C36.4614 8.10481 36.4714 7.70481 36.4714 7.61481C36.4714 7.52481 36.4715 7.07481 36.4815 6.80481C36.4815 6.74481 36.4215 6.70481 36.3815 6.73481C36.1815 6.86481 35.9315 6.90481 35.7015 6.96481C35.4615 7.03481 35.2615 7.15481 35.0915 7.32481C34.9315 7.48481 34.7815 7.69481 34.7015 7.91481C34.6315 8.12481 34.6515 8.36481 34.7415 8.58481C34.8315 8.79481 34.9815 8.96481 35.1515 9.10481C35.4715 9.15481 35.8715 9.25481 36.2715 8.64481L36.2815 8.65481Z" fill="#C6D121"/>
<mask id="mask10_181_16509" style="mask-type:luminance" maskUnits="userSpaceOnUse" x="34" y="6" width="3" height="4">
<path d="M36.2815 8.65481C36.3615 8.53481 36.4214 8.38481 36.4414 8.24481C36.4614 8.10481 36.4714 7.70481 36.4714 7.61481C36.4714 7.52481 36.4715 7.07481 36.4815 6.80481C36.4815 6.74481 36.4215 6.70481 36.3815 6.73481C36.1815 6.86481 35.9315 6.90481 35.7015 6.96481C35.4615 7.03481 35.2615 7.15481 35.0915 7.32481C34.9315 7.48481 34.7815 7.69481 34.7015 7.91481C34.6315 8.12481 34.6515 8.36481 34.7415 8.58481C34.8315 8.79481 34.9815 8.96481 35.1515 9.10481C35.4715 9.15481 35.8715 9.25481 36.2715 8.64481L36.2815 8.65481Z" fill="white"/>
</mask>
<g mask="url(#mask10_181_16509)">
<path d="M36.2715 6.96484C36.2715 6.96484 35.3015 7.05484 34.9515 7.68484C34.6515 8.22484 34.8215 8.56484 34.9515 8.77484C35.0815 8.98484 35.4215 9.02484 35.5115 9.03484C35.6015 9.04484 36.2715 8.89484 36.2215 8.22484C36.1715 7.55484 36.2715 6.96484 36.2715 6.96484Z" fill="#CDD73B"/>
</g>
<path d="M35.2315 9.41473C35.0015 8.71473 35.3215 7.99473 35.7915 7.47473C35.9415 7.30473 36.1115 7.15473 36.2915 7.01473C36.3415 6.97473 36.2815 6.89473 36.2315 6.93473C35.6315 7.41473 35.0915 8.06473 35.0615 8.87473C35.0615 9.07473 35.0815 9.27473 35.1415 9.45473C35.1615 9.51473 35.2515 9.47473 35.2315 9.41473Z" fill="#5C610F"/>
<path d="M36.0315 7.46484C36.0315 7.46484 35.3515 8.07484 35.3915 8.42484C35.4315 8.77484 35.7515 8.88484 35.8915 8.72484C35.9715 8.63484 36.0915 8.26484 36.1115 7.93484C36.1215 7.70484 36.0415 7.46484 36.0415 7.46484H36.0315Z" fill="#D3DC54"/>
<path d="M36.4215 8.08496C36.2315 8.08496 36.0215 8.10496 35.8415 8.16496C35.6815 8.22496 35.5514 8.34496 35.4714 8.50496C35.3714 8.69496 35.3715 8.92496 35.4315 9.13496C35.4315 9.16496 35.4715 9.17496 35.4915 9.16496C35.6815 9.36496 35.9615 9.46496 36.2415 9.41496C36.3915 9.39496 36.5314 9.33496 36.6614 9.25496C36.8014 9.16496 36.9115 9.03496 37.0415 8.91496C37.1915 8.77496 37.3614 8.65496 37.5214 8.54496C37.5614 8.51496 37.5515 8.46496 37.5015 8.46496C37.3115 8.42496 37.1514 8.31496 36.9714 8.23496C36.7914 8.14496 36.6114 8.09496 36.4114 8.09496L36.4215 8.08496Z" fill="#8AB51D"/>
<mask id="mask11_181_16509" style="mask-type:luminance" maskUnits="userSpaceOnUse" x="35" y="8" width="3" height="2">
<path d="M36.4215 8.08496C36.2315 8.08496 36.0215 8.10496 35.8415 8.16496C35.6815 8.22496 35.5514 8.34496 35.4714 8.50496C35.3714 8.69496 35.3715 8.92496 35.4315 9.13496C35.4315 9.16496 35.4715 9.17496 35.4915 9.16496C35.6815 9.36496 35.9615 9.46496 36.2415 9.41496C36.3915 9.39496 36.5314 9.33496 36.6614 9.25496C36.8014 9.16496 36.9115 9.03496 37.0415 8.91496C37.1915 8.77496 37.3614 8.65496 37.5214 8.54496C37.5614 8.51496 37.5515 8.46496 37.5015 8.46496C37.3115 8.42496 37.1514 8.31496 36.9714 8.23496C36.7914 8.14496 36.6114 8.09496 36.4114 8.09496L36.4215 8.08496Z" fill="white"/>
</mask>
<g mask="url(#mask11_181_16509)">
<path d="M36.9014 9.26434C36.9014 9.26434 35.7614 9.47434 35.5814 9.07434C35.4014 8.67434 35.6814 8.19434 35.6814 8.19434L34.9814 8.73434L35.3714 9.59434H36.3414L36.9014 9.26434Z" fill="#7EAD07"/>
<path d="M35.6914 8.92467C35.6914 8.92467 35.5914 8.48467 35.7614 8.33467C36.0514 8.08467 36.4414 8.12467 36.7414 8.19467C37.0414 8.26467 37.1014 8.50467 37.2114 8.49467C37.2114 8.49467 37.1814 8.73467 36.8714 8.77467C36.5614 8.81467 36.3214 9.18467 36.0114 9.12467C35.7014 9.06467 35.6814 8.92467 35.6814 8.92467H35.6914Z" fill="#94BB31"/>
<path d="M35.7514 8.42435C35.7814 8.33435 36.0314 8.20435 36.1814 8.18435C36.3214 8.15435 36.4614 8.16435 36.6014 8.22435C36.7614 8.28435 36.6914 8.38435 36.5214 8.43435C36.3514 8.48435 36.1614 8.47435 36.0014 8.56435C35.8514 8.65435 35.5714 9.01435 35.7614 8.42435H35.7514Z" fill="#9EC245"/>
</g>
<path d="M35.2714 9.33508C35.2714 9.33508 35.3114 9.43508 35.3414 9.38508C35.6614 8.87508 36.2414 8.57508 36.8414 8.60508C36.9014 8.60508 36.9014 8.51508 36.8414 8.51508C36.2114 8.47508 35.5914 8.79508 35.2614 9.33508H35.2714Z" fill="#5C610F"/>
</svg>
