<svg width="64" height="65" viewBox="0 0 64 65" fill="none" xmlns="http://www.w3.org/2000/svg">
<path d="M10.497 35.792C10.497 35.792 11.987 41.382 19.367 38.562C19.367 38.562 24.747 41.032 26.187 36.432C26.187 36.432 28.927 37.022 29.397 34.122C29.397 34.122 30.737 37.622 33.037 35.782C33.037 35.782 34.757 37.682 38.087 36.902C38.087 36.902 37.437 38.542 39.867 39.672C42.297 40.802 43.697 38.712 43.697 38.712C43.697 38.712 44.987 40.492 46.867 40.282C48.297 40.122 48.957 39.242 49.057 37.912C49.057 37.912 52.607 40.802 54.437 36.152C56.257 31.502 52.707 27.582 52.707 27.582L25.297 21.542L10.507 35.782L10.497 35.792Z" fill="#CEAB1F"/>
<path d="M8.94702 22.9117C8.94702 22.9117 9.48701 30.9517 16.687 29.0217C16.687 29.0217 20.797 31.2917 23.607 27.3817C23.607 27.3817 26.027 28.8017 27.387 26.2017C27.387 26.2017 27.567 29.9517 30.317 28.9217C30.317 28.9217 31.347 31.2617 34.757 31.5717C34.757 31.5717 33.627 32.9217 35.577 34.7617C37.527 36.6017 39.517 35.0517 39.517 35.0517C39.517 35.0517 40.177 37.1517 42.037 37.5417C43.447 37.8317 44.357 37.2117 44.857 35.9817C44.857 35.9817 47.317 39.8417 50.517 36.0017C53.707 32.1617 51.567 27.3217 51.567 27.3217L27.447 12.9717L8.96701 22.9217L8.94702 22.9117Z" fill="#C79F00"/>
<path d="M14.417 32.3118C14.417 32.3118 18.847 39.0418 24.157 33.8318C24.157 33.8318 28.847 33.7818 29.377 28.9918C29.377 28.9918 32.187 29.0418 32.087 26.1018C32.087 26.1018 34.087 29.2818 35.977 27.0318C35.977 27.0318 38.027 28.5618 41.147 27.1518C41.147 27.1518 40.817 28.8818 43.427 29.5218C46.037 30.1618 46.997 27.8418 46.997 27.8418C46.997 27.8418 48.607 29.3418 50.407 28.7718C51.777 28.3318 52.257 27.3418 52.097 26.0218C52.097 26.0218 56.137 28.1718 57.037 23.2518C57.937 18.3318 53.677 15.1818 53.677 15.1818L25.617 14.5518L14.417 32.3018V32.3118Z" fill="#C79F00"/>
<path d="M53.467 22.6121C53.467 22.6121 51.157 27.2921 47.537 31.2321C47.307 31.4821 47.077 31.7321 46.837 31.9721C43.667 35.1721 41.197 38.1421 40.557 40.1021C40.507 40.2321 40.467 40.3721 40.437 40.5221C40.437 40.5221 40.417 40.5821 40.387 40.6921C39.237 45.4021 40.297 56.4821 41.227 63.8421C40.007 64.4021 38.107 64.9621 35.277 64.9921C33.737 65.0221 31.937 64.8821 29.817 64.5321C29.557 64.4821 29.307 64.4321 29.077 64.3821C28.007 64.1321 27.207 63.7721 26.607 63.4121C27.637 55.1521 28.047 42.6521 27.617 40.3121C27.197 38.0421 26.627 34.5021 22.527 30.5921C21.957 30.0521 21.327 29.5021 20.607 28.9521C20.557 28.9221 20.497 28.9021 20.457 28.8721C18.177 27.7421 15.977 26.8821 14.027 26.2321C9.47698 24.7121 6.23701 24.3321 6.23701 24.3321C6.23701 24.3321 3.80701 22.0621 9.23701 23.2421C11.067 23.6421 10.897 23.7221 12.757 24.3021C16.407 25.4621 19.737 26.5521 21.417 25.9321C23.947 25.0221 22.157 19.8421 22.387 17.3721C22.547 15.6921 22.057 13.6421 21.707 12.5221C21.557 11.9921 21.427 11.6621 21.427 11.6621C21.427 11.6621 21.927 11.8521 22.447 12.3821C23.057 12.9821 23.707 14.0321 23.627 15.7521C23.497 18.4921 24.417 20.8021 24.967 20.8821C25.507 20.9721 26.887 19.6121 27.877 18.2721C29.097 16.6221 28.667 15.1421 28.667 15.1421C28.667 15.1421 31.937 15.2521 29.357 18.3121C27.017 21.0821 24.647 23.3421 24.667 25.5021C24.667 26.3021 24.347 27.0621 24.827 28.0621C25.797 30.1021 27.547 31.9021 30.347 34.1021C32.667 35.9221 34.317 35.0621 34.757 33.4021C35.157 31.9421 36.107 28.0821 35.337 24.7821C35.237 24.3321 35.097 23.8921 34.927 23.4721C34.387 22.1521 31.487 16.4021 31.487 16.4021L32.537 16.0021C32.537 16.0021 34.357 20.3921 35.577 22.4621C35.897 23.0021 36.147 23.5921 36.347 24.1721C37.217 26.7221 37.087 29.3721 37.087 29.3721C37.947 28.6921 38.807 26.4721 39.177 24.6521C39.397 23.5121 39.427 22.5521 39.137 22.2121C37.337 20.1721 36.387 16.9321 36.387 16.7421C36.387 16.6021 39.117 22.4221 39.177 21.2321C39.277 19.4221 39.157 17.6121 39.157 17.6121L40.007 24.0421L42.867 16.5421L43.747 14.2321C43.707 14.3921 43.457 15.3221 43.107 16.6221C42.327 19.5221 41.007 24.2821 40.227 26.4521C40.227 26.4821 40.227 26.5021 40.207 26.5221C39.157 29.4821 37.247 32.4921 38.237 31.9921C38.757 31.7321 40.457 29.5021 41.997 27.2621C42.337 26.7821 42.667 26.3021 42.967 25.8521C43.187 25.5321 44.117 19.3821 44.307 19.0921C44.437 18.8821 43.847 24.5221 43.967 24.3421C44.477 23.5521 44.827 22.9421 44.927 22.6721C45.347 21.5221 45.717 19.6021 45.717 19.6021C45.717 19.6021 48.137 18.2521 45.697 22.9921C44.977 24.3821 44.007 26.0021 43.007 27.5921C41.567 29.8721 40.067 32.1021 39.167 33.4921C38.967 33.8121 38.797 34.0921 38.667 34.3121C38.557 34.5121 36.677 40.4121 37.967 39.9521C38.257 39.8421 38.737 38.8321 39.447 37.7121V37.6921C39.817 37.0721 40.267 36.4321 40.767 35.8721C42.687 33.7521 44.907 32.2221 46.327 30.6121C46.967 29.8921 47.447 29.1721 47.677 28.3621C49.267 22.9221 49.417 19.3721 49.677 19.0821C49.867 18.8621 48.597 27.9121 48.777 27.7021C50.927 25.2121 52.527 21.9321 52.527 21.9321L53.467 22.6221V22.6121Z" fill="#6E5F34"/>
<g style="mix-blend-mode:multiply" opacity="0.47">
<path d="M29.357 18.3118C27.017 21.0818 24.647 23.3418 24.667 25.5018C24.387 25.6218 24.097 25.6818 23.787 25.6318C21.027 25.2418 23.1369 25.7918 22.0869 27.7418C21.7569 28.3418 21.1369 28.6918 20.4569 28.8718C18.1769 27.7418 15.9769 26.8818 14.0269 26.2318C13.4869 25.5918 13.067 24.9418 12.757 24.3018C16.407 25.4618 19.737 26.5518 21.417 25.9318C23.947 25.0218 22.157 19.8418 22.387 17.3718C22.547 15.6918 22.0569 13.6418 21.7069 12.5218C21.9569 12.4718 22.2069 12.4218 22.4569 12.3818C23.0669 12.9818 23.717 14.0318 23.637 15.7518C23.507 18.4918 24.427 20.8018 24.977 20.8818C25.517 20.9718 26.897 19.6118 27.887 18.2718C29.107 16.6218 28.6769 15.1418 28.6769 15.1418C28.6769 15.1418 31.9469 15.2518 29.3669 18.3118H29.357Z" fill="#5259A6"/>
</g>
<g style="mix-blend-mode:multiply" opacity="0.47">
<path d="M35.577 22.4522C35.897 22.9922 36.147 23.5822 36.347 24.1622C36.057 24.3722 35.727 24.5822 35.347 24.7722C35.247 24.3222 35.107 23.8822 34.937 23.4622C34.397 22.1422 31.4969 16.3922 31.4969 16.3922L32.547 15.9922C32.547 15.9922 34.3669 20.3822 35.5869 22.4522H35.577Z" fill="#5259A6"/>
</g>
<g style="mix-blend-mode:multiply" opacity="0.47">
<path d="M43.107 16.6125C42.327 19.5125 41.007 24.2725 40.227 26.4425C40.037 26.1325 39.767 25.6525 39.317 24.8725C39.267 24.7825 39.2169 24.7125 39.1769 24.6325C39.3969 23.4925 39.427 22.5325 39.137 22.1925C37.337 20.1525 36.387 16.9125 36.387 16.7225C36.387 16.5825 39.1169 22.4025 39.1769 21.2125C39.2769 19.4025 39.157 17.5925 39.157 17.5925L40.007 24.0225L42.8669 16.5225C42.9469 16.5525 43.017 16.5825 43.107 16.6025V16.6125Z" fill="#5259A6"/>
</g>
<g style="mix-blend-mode:multiply" opacity="0.47">
<path d="M45.7069 22.9817C44.9869 24.3717 44.017 25.9917 43.017 27.5817C42.617 27.4417 42.277 27.3417 42.017 27.2617C42.357 26.7817 42.687 26.3017 42.987 25.8517C43.207 25.5317 44.137 19.3817 44.327 19.0917C44.457 18.8817 43.867 24.5217 43.987 24.3417C44.497 23.5517 44.847 22.9417 44.947 22.6717C45.367 21.5217 45.737 19.6017 45.737 19.6017C45.737 19.6017 48.1569 18.2517 45.7169 22.9917L45.7069 22.9817Z" fill="#5259A6"/>
</g>
<g style="mix-blend-mode:multiply" opacity="0.47">
<path d="M53.467 22.6123C53.467 22.6123 51.157 27.2923 47.537 31.2323C47.187 31.0723 46.797 30.8723 46.347 30.6023C46.987 29.8823 47.467 29.1623 47.697 28.3523C49.287 22.9123 49.437 19.3623 49.697 19.0723C49.887 18.8523 48.617 27.9023 48.797 27.6923C50.947 25.2023 52.547 21.9223 52.547 21.9223L53.487 22.6123H53.467Z" fill="#5259A6"/>
</g>
<g style="mix-blend-mode:multiply" opacity="0.25">
<path d="M39.457 37.7022C39.327 38.1122 37.737 43.6722 36.907 40.3422C36.047 36.9322 39.167 33.4922 39.167 33.4922C38.967 33.8122 38.797 34.0822 38.667 34.3022C38.557 34.5022 36.677 40.4022 37.967 39.9422C38.257 39.8322 38.737 38.8222 39.447 37.7022H39.457Z" fill="#5259A6"/>
</g>
<g style="mix-blend-mode:multiply" opacity="0.25">
<path d="M35.277 64.9924C35.587 63.4324 35.757 61.8524 35.617 60.7724C35.187 57.3624 36.897 51.9924 36.747 54.3724C36.607 56.7524 37.017 64.3224 37.447 56.8724C37.837 50.0424 40.037 41.9624 40.387 40.6924C39.237 45.4024 40.297 56.4824 41.227 63.8424C40.007 64.4024 38.107 64.9624 35.277 64.9924Z" fill="#696EA6"/>
</g>
<path opacity="0.21" d="M32.197 61.3918C32.077 63.2818 31.037 64.8618 30.797 62.4818C30.577 60.3218 29.567 62.3518 29.087 64.3818C28.017 64.1318 27.217 63.7718 26.617 63.4118C27.647 55.1518 28.057 42.6518 27.627 40.3118C27.207 38.0418 26.637 34.5018 22.537 30.5918C22.857 30.7718 26.387 33.6418 27.787 35.4518C29.257 37.3418 30.067 41.7718 29.677 45.2118C28.287 57.3518 32.327 59.4918 32.207 61.3918H32.197Z" fill="#AB8A68"/>
<path d="M37.9107 47.0824C38.3372 45.1895 37.039 44.7856 36.845 43.3172C36.7904 42.874 36.6054 42.5102 36.4198 42.236L36.4109 42.2314C36.4109 42.2314 36.3932 42.2 36.3578 42.1594C36.256 42.0289 36.0387 41.7946 35.7585 41.5956C35.7538 41.6269 35.7354 41.6849 35.7258 41.7698C35.4079 42.9434 33.7171 49.142 32.7784 49.0897C31.7278 49.0367 31.5487 49.0576 31.5487 49.0576L32.727 50.4892C32.727 50.4892 34.6279 49.337 35.3885 49.2984C36.8695 49.2118 37.6788 48.1091 37.915 47.0958L37.9107 47.0824Z" fill="#9D894F"/>
<path d="M37.2468 45.0816C37.1716 44.9871 37.1008 44.8837 37.039 44.7848C36.9817 44.677 36.9199 44.5781 36.8628 44.4479C36.8057 44.3178 36.7486 44.1876 36.714 44.0353C36.666 43.8873 36.6358 43.7485 36.5878 43.6005C36.5487 43.4571 36.5276 43.3004 36.5108 43.1571C36.4808 42.9959 36.4642 42.8303 36.452 42.6781C36.3079 41.6841 35.106 40.9813 34.137 41.3627L34.11 41.3714C33.8454 41.4722 33.5672 41.5773 33.3024 41.7004C32.8087 41.9201 32.3372 42.1623 31.9726 42.459C31.8691 42.5298 31.797 42.6052 31.7203 42.6896C31.6258 42.7648 31.558 42.8538 31.4902 42.9427C31.2688 43.2226 30.3429 44.9281 30.3398 45.3083C30.3265 46.4128 30.4751 47.4203 30.9137 48.4971C31.3261 49.4932 32.2751 49.9436 33.3113 49.5627C33.3291 49.5718 33.3471 49.5585 33.374 49.5498C33.6567 49.4358 33.9528 49.3174 34.2309 49.2123C34.37 49.1597 34.509 49.1072 34.6524 49.0681C34.7915 49.0155 34.926 48.9719 35.0694 48.9328C35.3517 48.8634 35.5982 48.7983 35.8222 48.7554C36.2208 48.6781 36.5844 48.5155 36.8816 48.2629C37.7997 47.5413 38.1369 46.1978 37.2423 45.0905L37.2468 45.0816Z" fill="#6E5F34"/>
<g style="mix-blend-mode:multiply" opacity="0.25">
<path d="M37.2468 45.0816C37.1716 44.9871 37.1008 44.8836 37.039 44.7848C36.9772 44.6859 36.9199 44.5781 36.8628 44.4479C36.8057 44.3178 36.7486 44.1876 36.714 44.0353C36.666 43.8873 36.6358 43.7484 36.5878 43.6005C36.5487 43.4571 36.5276 43.3004 36.5108 43.1571C36.4808 42.9959 36.4642 42.8303 36.452 42.6781C36.4267 42.4856 36.3567 42.2927 36.2507 42.1264C36.2507 42.1264 36.2448 42.1234 36.2329 42.1173C36.0651 41.8521 35.812 41.622 35.518 41.4721C35.4378 41.4312 35.3577 41.3903 35.2773 41.3718C35.2595 41.3627 35.2328 41.3491 35.2149 41.34C35.1971 41.3309 35.1882 41.3263 35.1615 41.3127C34.8268 41.2206 34.4691 41.2178 34.1415 41.3538L34.1146 41.3625C33.8499 41.4633 33.5718 41.5684 33.3069 41.6915C32.8132 41.9112 32.3417 42.1534 31.9771 42.4501C31.8737 42.5209 31.8015 42.5963 31.7248 42.6807C31.6303 42.7559 31.5625 42.8448 31.4947 42.9338C31.332 43.1427 31.0004 43.793 30.7945 44.3727C30.7258 44.5734 30.6751 44.7609 30.6472 44.9037C30.4686 45.9801 30.6989 46.8272 31.0205 48.0015C31.377 49.2834 32.2619 49.9256 33.3114 49.5404C33.3293 49.5495 33.3473 49.5362 33.3742 49.5275C33.6568 49.4134 33.9529 49.295 34.2311 49.1899C34.3701 49.1374 34.5092 49.0848 34.6526 49.0457C34.7917 48.9931 34.9262 48.9495 35.0696 48.9104C35.3519 48.8411 35.5984 48.776 35.8224 48.733C36.221 48.6557 36.5846 48.4931 36.8817 48.2406C37.7998 47.5189 38.137 46.1754 37.2425 45.0681L37.2468 45.0816Z" fill="#5259A6" fill-opacity="0.56"/>
</g>
<g style="mix-blend-mode:multiply" opacity="0.32">
<path d="M37.2468 45.0818C37.1715 44.9873 37.1008 44.8839 37.039 44.785C36.9817 44.6772 36.9199 44.5783 36.8628 44.4482C36.8057 44.318 36.7486 44.1878 36.714 44.0355C36.666 43.8875 36.6313 43.7576 36.5878 43.6007C36.5576 43.4618 36.5276 43.3006 36.5108 43.1573C36.4808 42.9961 36.4642 42.8305 36.452 42.6783C36.3079 41.6843 35.106 40.9815 34.1369 41.3629L34.11 41.3716C33.8454 41.4724 33.5672 41.5775 33.3024 41.7006C31.8414 43.2006 31.7043 45.2523 31.8294 46.3937C31.8796 46.8234 32.0107 47.2046 32.196 47.5236C32.7383 48.5074 33.9638 49.0538 35.0651 48.9195C35.3474 48.8502 35.5938 48.7851 35.8178 48.7421C36.2165 48.6648 36.58 48.5022 36.8772 48.2497C37.7953 47.528 38.1325 46.1846 37.2379 45.0773L37.2468 45.0818Z" fill="#7B83DB"/>
</g>
<g style="mix-blend-mode:multiply" opacity="0.15">
<path d="M37.2468 45.0823C37.1715 44.9877 37.1008 44.8843 37.039 44.7854C36.9817 44.6776 36.9199 44.5788 36.8628 44.4486C36.8057 44.3184 36.7486 44.1883 36.714 44.036C36.666 43.888 36.6312 43.758 36.5878 43.6011C36.5576 43.4623 36.5276 43.301 36.5108 43.1578C36.4808 42.9965 36.4642 42.8309 36.452 42.6788C36.3079 41.6848 35.106 40.982 34.1369 41.3634L34.11 41.3721C33.1417 42.7865 33.443 44.8149 33.8383 46.2849C34.2683 47.885 36.4258 48.2108 36.8726 48.2591C37.7907 47.5374 38.1279 46.1939 37.2333 45.0866L37.2468 45.0823Z" fill="#7B83DB"/>
</g>
<path d="M36.4154 42.2224C36.4154 42.2224 36.3978 42.191 36.3624 42.1504C36.2605 42.0199 36.0433 41.7856 35.7631 41.5866C35.7009 41.5324 35.6253 41.4826 35.5451 41.4418C35.4649 41.4009 34.8682 41.0741 34.1549 41.3502L34.1281 41.3589C33.8634 41.4596 33.5853 41.5648 33.3204 41.6879C32.8267 41.9076 32.3552 42.1498 31.9906 42.4465C31.8871 42.5172 31.815 42.5927 31.7383 42.6771C31.6438 42.7523 31.576 42.8412 31.5082 42.9302C31.3455 43.1391 31.0139 43.7894 30.808 44.3691C30.8852 44.2177 31.8342 42.4229 32.8386 42.1044C33.7398 41.812 34.506 41.0802 35.717 41.7651C35.8862 41.8515 36.0642 41.9647 36.2375 42.1092C36.2375 42.1092 36.2434 42.1122 36.2553 42.1183C36.2553 42.1183 36.38 42.1819 36.4065 42.2179L36.4154 42.2224Z" fill="#C1A65E"/>
<path d="M29.9862 46.4642C30.1139 47.8427 30.8298 48.9262 31.924 50.2364C32.336 50.7272 32.8004 50.8069 32.7702 50.668C32.6453 50.0767 32.0242 49.4456 31.71 49.0272C29.9975 46.7282 30.5355 43.7584 31.9771 42.4506C31.9771 42.4506 29.7637 44.0832 29.9728 46.4686L29.9862 46.4642Z" fill="#9D894F"/>
<path d="M32.7531 50.5698C32.7531 50.5698 32.7642 50.3061 32.6012 49.9872C32.4383 49.6684 31.8432 49.1404 31.7545 49.0503C31.1692 48.415 30.2305 46.1177 30.9121 44.209C30.9121 44.209 30.2487 45.5096 30.7016 47.0428C31.1545 48.5759 31.7663 49.2471 32.0503 49.5267C32.3343 49.8062 32.6802 50.1846 32.762 50.5744L32.7531 50.5698Z" fill="#896642"/>
<path d="M8.14702 22.4023C8.14702 22.4023 6.59702 21.4223 6.18702 23.9923C6.18702 23.9923 1.43704 24.2923 1.13704 29.1423C1.06704 30.2823 1.25703 31.0923 1.59703 31.6523C0.617028 31.2423 -0.122958 30.2423 0.0170418 28.1223C0.327042 23.1223 5.21702 22.8123 5.21702 22.8123C5.63702 20.1523 7.23704 21.1723 7.23704 21.1723C6.76704 18.9923 8.05704 17.6523 9.23704 16.9023C10.437 17.4123 11.567 17.5023 11.687 17.5123C11.477 17.5723 7.37702 18.8423 8.14702 22.4023Z" fill="#DEC76B"/>
<path d="M57.427 16.222C58.297 13.802 58.9471 9.27202 52.8171 7.30202C52.8171 7.30202 52.127 4.77202 49.187 5.47202C49.187 5.47202 48.977 1.95202 43.927 1.86202C38.877 1.78202 36.8071 4.01202 36.2871 5.61202C36.2871 5.61202 34.6371 4.95202 33.1971 5.55202C31.7471 6.15202 31.437 7.02202 31.437 7.02202C31.437 7.02202 30.9371 6.36202 29.5971 6.35202C28.2571 6.35202 27.6971 7.06203 27.6971 7.06203C27.6971 7.06203 26.447 2.46203 20.497 2.12203C14.547 1.78203 12.777 5.59203 12.777 5.59203C12.777 5.59203 11.017 5.22202 10.277 6.19202C9.54705 7.16202 9.48707 8.30202 9.48707 8.30202C9.48707 8.30202 6.02706 9.21203 6.38706 13.232C6.42706 13.652 6.51706 14.032 6.63706 14.372C6.00706 13.742 5.52704 12.882 5.42704 11.712C5.05704 7.56202 8.62705 6.63202 8.62705 6.63202C8.62705 6.63202 8.69706 5.45203 9.44706 4.45203C10.2071 3.45203 12.0171 3.83202 12.0171 3.83202C12.0171 3.83202 13.8471 -0.097974 19.9771 0.262026C26.1171 0.612026 27.397 5.35202 27.397 5.35202C27.397 5.35202 27.9771 4.62202 29.3571 4.63202C30.7371 4.63202 31.2571 5.32202 31.2571 5.32202C31.2571 5.32202 31.5771 4.44203 33.0671 3.81203C34.5571 3.19203 36.2571 3.86202 36.2571 3.86202C36.7871 2.22202 38.9271 -0.0779685 44.1371 0.00203149C49.3371 0.0920315 49.557 3.72202 49.557 3.72202C52.597 2.99202 53.307 5.60202 53.307 5.60202C61.257 8.16202 58.137 14.892 57.437 16.222H57.427Z" fill="#DEC76B"/>
<path d="M62.167 28.0117C62.167 28.0117 65.767 22.8217 59.677 20.4117C59.677 20.4117 60.687 17.2217 57.337 16.4517H57.297C57.297 16.4517 57.347 16.3617 57.427 16.2117C58.297 13.7917 58.947 9.26171 52.817 7.29171C52.817 7.29171 52.127 4.7617 49.187 5.4617C49.187 5.4617 48.977 1.9417 43.927 1.8517C38.877 1.7717 36.807 4.0017 36.287 5.6017C36.287 5.6017 34.637 4.94171 33.197 5.54171C31.747 6.14171 31.437 7.01171 31.437 7.01171C31.437 7.01171 30.937 6.35171 29.597 6.34171C28.257 6.34171 27.697 7.0517 27.697 7.0517C27.697 7.0517 26.447 2.4517 20.497 2.1117C14.547 1.7717 12.777 5.5817 12.777 5.5817C12.777 5.5817 11.017 5.2117 10.277 6.1817C9.54702 7.1517 9.48704 8.29171 9.48704 8.29171C9.48704 8.29171 6.02704 9.2017 6.38704 13.2217C6.42704 13.6417 6.51704 14.0217 6.63704 14.3617C7.12704 15.6817 8.20704 16.4617 9.23704 16.9017C10.437 17.4117 11.567 17.5017 11.687 17.5117C11.477 17.5717 7.37701 18.8417 8.14701 22.4017C8.14701 22.4017 6.59702 21.4217 6.18702 23.9917C6.18702 23.9917 1.43704 24.2917 1.13704 29.1417C1.06704 30.2817 1.25703 31.0917 1.59703 31.6517C2.92703 32.2017 4.69704 31.6717 5.35704 31.3817C5.35704 31.3817 4.89703 31.9517 5.09703 32.6817C5.18703 33.0117 5.41703 33.3817 5.87703 33.7417C5.97703 33.8117 6.08702 33.8717 6.21702 33.9217C7.09702 34.2617 8.48702 33.9217 8.65702 33.6417C8.65702 33.6417 8.51703 34.2217 8.75703 34.8317C8.87703 35.1517 9.10703 35.4817 9.50703 35.7417L9.70701 35.8617C10.937 36.6117 13.207 37.6417 15.637 35.0617C15.637 35.0617 20.977 33.6517 22.017 30.5717C23.057 27.4817 22.897 26.8217 22.607 26.2817C22.607 26.2817 24.577 27.0617 25.617 25.7917C26.657 24.5117 27.067 24.0117 28.027 24.3117C28.987 24.6117 29.117 23.5517 29.507 23.3217C29.507 23.3217 29.577 23.9217 29.747 24.4917C29.877 24.9017 30.057 25.2917 30.297 25.4017C30.897 25.6717 31.377 27.3717 33.407 26.9817C33.407 26.9817 35.487 28.3317 36.637 27.1317C36.637 27.1317 37.947 27.9917 39.057 26.8617C39.057 26.8617 39.607 29.7817 41.337 30.0317C41.337 30.0317 42.357 31.4417 44.307 30.3317C44.307 30.3317 44.827 34.1417 51.017 34.0917C51.017 34.0917 50.837 36.4617 53.667 36.5517C55.687 36.6117 56.107 35.4817 56.107 35.4817C56.107 35.4817 59.607 37.8817 61.977 35.7217L62.107 35.6017C64.367 33.4717 64.877 31.1517 62.137 28.0317L62.167 28.0117Z" fill="#D9BF54"/>
<mask id="mask0_185_19694" style="mask-type:luminance" maskUnits="userSpaceOnUse" x="1" y="1" width="64" height="36">
<path d="M62.167 28.0117C62.167 28.0117 65.767 22.8217 59.677 20.4117C59.677 20.4117 60.687 17.2217 57.337 16.4517H57.297C57.297 16.4517 57.347 16.3617 57.427 16.2117C58.297 13.7917 58.947 9.26171 52.817 7.29171C52.817 7.29171 52.127 4.7617 49.187 5.4617C49.187 5.4617 48.977 1.9417 43.927 1.8517C38.877 1.7717 36.807 4.0017 36.287 5.6017C36.287 5.6017 34.637 4.94171 33.197 5.54171C31.747 6.14171 31.437 7.01171 31.437 7.01171C31.437 7.01171 30.937 6.35171 29.597 6.34171C28.257 6.34171 27.697 7.0517 27.697 7.0517C27.697 7.0517 26.447 2.4517 20.497 2.1117C14.547 1.7717 12.777 5.5817 12.777 5.5817C12.777 5.5817 11.017 5.2117 10.277 6.1817C9.54702 7.1517 9.48704 8.29171 9.48704 8.29171C9.48704 8.29171 6.02704 9.2017 6.38704 13.2217C6.42704 13.6417 6.51704 14.0217 6.63704 14.3617C7.12704 15.6817 8.20704 16.4617 9.23704 16.9017C10.437 17.4117 11.567 17.5017 11.687 17.5117C11.477 17.5717 7.37701 18.8417 8.14701 22.4017C8.14701 22.4017 6.59702 21.4217 6.18702 23.9917C6.18702 23.9917 1.43704 24.2917 1.13704 29.1417C1.06704 30.2817 1.25703 31.0917 1.59703 31.6517C2.92703 32.2017 4.69704 31.6717 5.35704 31.3817C5.35704 31.3817 4.89703 31.9517 5.09703 32.6817C5.18703 33.0117 5.41703 33.3817 5.87703 33.7417C5.97703 33.8117 6.08702 33.8717 6.21702 33.9217C7.09702 34.2617 8.48702 33.9217 8.65702 33.6417C8.65702 33.6417 8.51703 34.2217 8.75703 34.8317C8.87703 35.1517 9.10703 35.4817 9.50703 35.7417L9.70701 35.8617C10.937 36.6117 13.207 37.6417 15.637 35.0617C15.637 35.0617 20.977 33.6517 22.017 30.5717C23.057 27.4817 22.897 26.8217 22.607 26.2817C22.607 26.2817 24.577 27.0617 25.617 25.7917C26.657 24.5117 27.067 24.0117 28.027 24.3117C28.987 24.6117 29.117 23.5517 29.507 23.3217C29.507 23.3217 29.577 23.9217 29.747 24.4917C29.877 24.9017 30.057 25.2917 30.297 25.4017C30.897 25.6717 31.377 27.3717 33.407 26.9817C33.407 26.9817 35.487 28.3317 36.637 27.1317C36.637 27.1317 37.947 27.9917 39.057 26.8617C39.057 26.8617 39.607 29.7817 41.337 30.0317C41.337 30.0317 42.357 31.4417 44.307 30.3317C44.307 30.3317 44.827 34.1417 51.017 34.0917C51.017 34.0917 50.837 36.4617 53.667 36.5517C55.687 36.6117 56.107 35.4817 56.107 35.4817C56.107 35.4817 59.607 37.8817 61.977 35.7217L62.107 35.6017C64.367 33.4717 64.877 31.1517 62.137 28.0317L62.167 28.0117Z" fill="white"/>
</mask>
<g mask="url(#mask0_185_19694)">
<path d="M22.217 8.29259C22.017 6.53259 19.807 5.9926 18.187 6.6226C16.867 7.1326 15.6971 8.3226 15.6671 9.6226C14.4971 9.1426 12.977 9.6126 12.317 10.6526C11.387 12.1226 12.157 13.8326 13.527 14.8326C13.907 15.1126 14.447 14.6226 14.067 14.3426C13.037 13.5926 12.297 12.3726 12.867 11.2026C13.387 10.1226 15.017 9.6626 15.927 10.6526C16.177 10.9126 16.697 10.6226 16.567 10.3126C16.077 9.1226 17.0571 7.9326 18.1971 7.3726C19.2971 6.8326 21.2871 6.8826 21.4471 8.3126C21.4971 8.7426 22.267 8.73259 22.217 8.29259Z" fill="#DEC76B"/>
<path d="M28.167 17.7923C27.777 17.4023 27.387 16.8723 26.867 16.6123C26.317 16.3423 25.657 16.4023 25.077 16.5523C24.527 16.6923 24.007 16.8923 23.757 17.3923C23.687 17.5323 23.617 17.6723 23.567 17.8223C23.437 17.5423 23.257 17.2923 22.987 17.0723C22.417 16.6123 21.597 16.5023 20.937 16.8823C20.337 17.2223 19.977 17.8223 19.937 18.4423C19.887 19.2123 20.287 19.9423 20.747 20.5823C21.007 20.9523 21.677 20.6023 21.407 20.2323C20.867 19.4723 20.257 18.2923 21.197 17.5623C21.597 17.2523 22.107 17.2723 22.497 17.5923C22.977 17.9923 23.067 18.6223 23.157 19.1723C23.217 19.5223 23.807 19.6523 23.917 19.2523C24.027 18.8323 24.157 18.4123 24.317 18.0023C24.397 17.8023 24.467 17.5723 24.667 17.4423C24.837 17.3223 25.097 17.2723 25.297 17.2123C25.737 17.0923 26.267 17.0223 26.647 17.3023C27.017 17.5823 27.317 17.9523 27.637 18.2823C27.967 18.6123 28.497 18.1223 28.177 17.7923H28.167Z" fill="#DEC76B"/>
<path d="M10.967 31.3825C10.577 31.2525 10.137 31.0525 10.097 30.6425C10.047 30.1925 10.387 29.7825 10.657 29.4325C10.887 29.1225 10.437 28.8325 10.127 28.9725C9.85705 29.0925 9.58706 29.1925 9.29706 29.2625C9.06706 29.3225 8.71705 29.4325 8.50705 29.2925C8.19705 29.1025 8.42706 28.5725 8.51706 28.3325C8.57706 28.1625 8.42706 27.9525 8.23706 27.9225C7.92706 27.8725 7.39706 27.8125 7.32706 27.4725C7.26706 27.1725 7.53705 26.8625 7.78705 26.7025C8.33705 26.3425 9.09706 26.3525 9.63706 26.7025C9.80706 26.8125 10.067 26.7225 10.157 26.5725C10.277 26.3925 10.1771 26.2225 10.0171 26.1125C9.15706 25.5425 7.85706 25.6725 7.10706 26.3325C6.71706 26.6825 6.44704 27.2225 6.61704 27.7125C6.76704 28.1625 7.20703 28.3825 7.67703 28.5025C7.55703 28.9925 7.56704 29.5225 8.05704 29.8425C8.45704 30.1025 8.97704 30.0725 9.46704 29.9525C9.34704 30.2525 9.28704 30.5625 9.36704 30.8925C9.51704 31.5225 10.157 31.8325 10.787 32.0425C10.987 32.1125 11.2071 31.9625 11.2571 31.7925C11.3171 31.6025 11.1671 31.4425 10.9771 31.3825H10.967Z" fill="#DEC76B"/>
<path d="M16.687 20.6321C16.067 20.0121 15.097 19.7421 14.197 19.8921C13.367 20.0321 12.627 20.5821 12.307 21.2621C12.227 21.4321 12.257 21.6321 12.447 21.7221C12.607 21.8021 12.887 21.7621 12.967 21.5921C13.217 21.0621 13.717 20.6721 14.357 20.5521C15.017 20.4221 15.707 20.6721 16.147 21.1121C16.287 21.2521 16.557 21.2321 16.687 21.1121C16.837 20.9721 16.817 20.7721 16.687 20.6321Z" fill="#DEC76B"/>
<path d="M42.707 11.8322C42.377 11.5422 41.877 11.3922 41.417 11.4422C40.647 11.5222 40.127 11.9523 39.647 12.4223C39.627 12.2823 39.577 12.1423 39.497 12.0023C39.237 11.5423 38.677 11.3423 38.117 11.3923C37.607 11.4323 37.097 11.6622 36.857 12.0722C36.617 12.4922 36.677 12.9822 37.037 13.3322C37.367 13.6622 37.907 13.1723 37.577 12.8423C37.437 12.7023 37.467 12.4622 37.577 12.3222C37.737 12.1322 38.037 12.0523 38.297 12.0623C39.087 12.0823 38.907 12.8823 38.777 13.3423C38.687 13.6723 39.157 13.9022 39.427 13.6622C39.967 13.1722 40.407 12.4722 41.147 12.1922C41.427 12.0922 41.727 12.0722 41.997 12.1922C42.327 12.3522 42.337 12.6122 42.287 12.9122C42.207 13.3422 42.957 13.5122 43.037 13.0822C43.117 12.6122 43.107 12.1722 42.707 11.8222V11.8322Z" fill="#DEC76B"/>
<path d="M55.577 25.4318C54.497 24.9118 53.127 24.9218 51.917 25.2718C51.897 25.0618 51.817 24.8718 51.637 24.7218C51.207 24.3718 50.537 24.3518 49.917 24.4718C50.257 23.8618 50.477 23.1918 49.827 22.6618C48.947 21.9518 47.747 22.5818 47.367 23.4018C47.177 23.8018 47.847 24.1418 48.037 23.7418C48.157 23.4918 48.317 23.2418 48.597 23.1118C48.907 22.9718 49.317 23.0318 49.437 23.3518C49.647 23.8818 49.007 24.5018 48.777 24.9418C48.617 25.2318 48.967 25.5918 49.307 25.4018C49.767 25.1518 50.297 25.0418 50.827 25.1418C51.337 25.2318 51.157 25.4818 50.877 25.6818C50.727 25.7618 50.577 25.8418 50.437 25.9318C50.037 26.1918 50.387 26.7118 50.827 26.5118C51.037 26.4218 51.247 26.3218 51.427 26.1918C52.457 25.7118 53.677 25.5818 54.807 25.8918C55.167 25.9918 55.487 26.1018 55.397 26.4818C55.327 26.7818 55.087 27.0618 54.897 27.3018C54.437 27.9018 53.887 28.4418 53.277 28.9218C52.907 29.2118 53.457 29.6918 53.827 29.4018C54.677 28.7218 57.437 26.3218 55.557 25.4218L55.577 25.4318Z" fill="#DEC76B"/>
<path d="M47.997 6.61218C46.617 6.14218 45.057 6.44218 43.977 7.33218C43.617 7.63218 44.167 8.10219 44.527 7.81219C45.337 7.15219 46.487 6.91218 47.537 7.19218C48.437 7.43218 49.867 8.39218 49.127 9.33218C48.847 9.69218 49.517 10.0222 49.797 9.67219C50.777 8.41219 49.257 7.05219 47.997 6.62219V6.61218Z" fill="#DEC76B"/>
<path d="M35.7171 9.3118C35.4571 8.7218 34.6971 8.6918 34.0971 8.8218C32.9171 9.0618 32.2071 9.9318 31.7271 10.8518C31.6371 10.7518 31.547 10.6518 31.457 10.5618C31.237 10.3518 30.9871 10.1218 30.6371 10.1618C30.4071 10.1918 30.247 10.3318 30.177 10.5118C30.067 10.3418 29.9571 10.1818 29.8271 10.0318C29.4371 9.58181 28.7771 9.56179 28.2471 9.83179C27.0671 10.4418 27.2171 11.7518 27.4371 12.7718C27.5371 13.2018 28.267 13.0118 28.177 12.5818C28.027 11.9118 27.8171 10.9418 28.5571 10.4718C28.6971 10.3818 28.8871 10.3018 29.0671 10.3618C29.2771 10.4318 29.3971 10.7018 29.4971 10.8718C29.7371 11.2418 29.9571 11.6218 30.1571 12.0118C30.3271 12.3418 30.867 12.1418 30.867 11.8318C30.867 11.6418 30.867 11.4518 30.867 11.2618C30.867 11.2118 30.8571 11.0918 30.8471 10.9818C30.9371 11.0718 31.0371 11.1918 31.0671 11.2318C31.2171 11.3818 31.3471 11.5518 31.4671 11.7218C31.6671 11.9818 32.0571 11.9018 32.1671 11.6318C32.4971 10.8418 32.967 10.0018 33.867 9.61179C34.157 9.49179 34.8571 9.2718 35.0071 9.6318C35.1771 10.0718 35.1071 10.6318 35.0071 11.0718C34.9071 11.5018 35.6471 11.6718 35.7571 11.2418C35.8971 10.6418 35.967 9.9118 35.707 9.3218L35.7171 9.3118Z" fill="#DEC76B"/>
<path d="M41.067 22.5718C40.787 22.5018 40.477 22.4918 40.167 22.5118C40.327 22.3218 40.447 22.1118 40.467 21.8418C40.507 21.3418 40.137 20.9218 39.567 20.9018C38.397 20.8518 37.307 21.6018 36.427 22.1818C36.257 22.2918 36.177 22.4818 36.297 22.6518C36.397 22.8018 36.657 22.8818 36.827 22.7718C37.527 22.3018 38.257 21.8118 39.127 21.6318C39.257 21.6018 39.537 21.5318 39.647 21.6018C39.727 21.6618 39.717 21.8018 39.697 21.8718C39.667 22.0318 39.537 22.1518 39.427 22.2718C39.257 22.4418 39.087 22.6018 38.947 22.7918C38.787 22.9918 39.007 23.3418 39.287 23.3018C39.707 23.2418 40.137 23.1918 40.557 23.1918C40.877 23.1918 41.147 23.2518 41.047 23.5818C40.947 23.9118 40.707 24.2118 40.437 24.4518C40.297 24.5818 40.147 24.7018 39.987 24.8018L39.527 25.0618C39.087 24.8718 38.707 25.4618 39.147 25.6518C39.747 25.9118 40.357 25.4318 40.777 25.0918C41.237 24.7318 41.637 24.2618 41.797 23.7318C41.957 23.2018 41.687 22.7118 41.087 22.5518L41.067 22.5718Z" fill="#DEC76B"/>
<path d="M52.607 18.0317C52.857 17.8617 53.097 17.6617 53.307 17.4517C53.677 17.0817 54.017 16.6217 53.927 16.1017C53.737 14.9417 51.897 15.1117 50.957 15.2817C50.477 15.3717 50.687 16.0217 51.167 15.9317C51.597 15.8517 52.047 15.8317 52.487 15.8617C52.827 15.8917 53.207 15.9217 53.167 16.3117C53.127 16.6517 52.767 16.9617 52.517 17.1917C52.227 17.4417 51.907 17.6417 51.567 17.8217C51.257 17.9817 51.367 18.3517 51.667 18.4417C52.077 18.5617 52.477 18.7017 52.847 18.8917C53.157 19.0417 53.307 19.2217 53.107 19.5217C52.777 20.0117 52.027 20.4517 51.387 20.4817C50.897 20.5117 50.907 21.1917 51.407 21.1617C51.947 21.1317 52.437 20.9417 52.867 20.6717C53.287 20.4017 53.717 20.0717 53.897 19.6317C54.257 18.8017 53.417 18.3217 52.597 18.0317H52.607Z" fill="#DEC76B"/>
<path d="M60.337 33.1025C60.267 32.8525 60.037 32.6625 59.757 32.6225C59.847 32.4825 59.927 32.3325 59.977 32.1825C60.137 31.7325 59.847 31.3325 59.347 31.2025C58.957 31.1025 58.497 31.1525 58.107 31.2425C57.667 31.3425 57.277 31.5525 57.027 31.9025C56.917 32.0625 56.997 32.2825 57.167 32.3625C57.357 32.4525 57.577 32.3925 57.687 32.2325C57.737 32.1625 57.827 32.0825 57.927 32.0225C58.047 31.9525 58.117 31.9325 58.267 31.8925C58.427 31.8525 58.547 31.8325 58.677 31.8225H58.877H58.977H59.027L59.117 31.8525H59.137L59.197 31.8825V31.9325L59.177 32.0025L59.157 32.0525C59.007 32.3525 58.797 32.6125 58.547 32.8425C58.357 33.0125 58.427 33.3725 58.727 33.4125C58.967 33.4425 59.177 33.4025 59.397 33.3325L59.527 33.2925V33.3625L59.507 33.3925L59.487 33.4325L59.417 33.5325C59.287 33.7025 59.117 33.8625 58.937 33.9825C58.767 34.0925 58.687 34.2825 58.807 34.4525C58.907 34.5925 59.167 34.6825 59.337 34.5725C59.817 34.2425 60.447 33.6925 60.287 33.0925L60.337 33.1025Z" fill="#DEC76B"/>
<path d="M19.2271 28.7023C19.0471 29.2023 18.7571 29.7523 18.3171 30.1123C18.1671 30.2423 18.017 30.2623 17.867 30.1123C17.687 29.9223 17.687 29.6323 17.677 29.4023C17.657 29.0923 17.127 28.9223 16.957 29.2423C16.737 29.6523 16.277 30.4723 15.647 30.0323C15.407 29.8623 15.2971 29.5923 15.2371 29.3323C15.2071 29.1823 15.1971 29.0323 15.1971 28.8823C15.1971 28.8123 15.1971 28.7423 15.1971 28.6823V28.5823C15.6671 28.5523 15.6371 27.9123 15.1571 27.9023C14.4271 27.9023 14.4071 28.6223 14.4471 29.1023C14.4871 29.5923 14.6271 30.0823 15.0271 30.4423C15.4071 30.7923 15.9771 30.9323 16.4971 30.7423C16.7571 30.6423 16.9671 30.4923 17.1371 30.3123C17.1771 30.3823 17.2171 30.4523 17.2771 30.5223C17.5471 30.8223 18.007 30.9823 18.427 30.8423C18.837 30.7023 19.1171 30.3623 19.3571 30.0423C19.6371 29.6823 19.8371 29.2723 19.9871 28.8523C20.1371 28.4323 19.3871 28.2723 19.2371 28.6823L19.2271 28.7023Z" fill="#DEC76B"/>
<path d="M36.137 18.4319C36.117 18.0819 36.117 17.6419 35.897 17.3419C35.687 17.0519 35.257 16.9519 34.937 17.1119C34.867 16.7219 34.667 16.3019 34.247 16.1319C33.797 15.9519 33.327 16.1119 33.027 16.4319C32.717 16.7619 32.547 17.1819 32.427 17.5919C32.357 17.8419 32.267 18.1319 32.337 18.3919C32.417 18.6819 32.687 18.8719 33.017 18.8819C33.227 18.8819 33.397 18.7119 33.397 18.5319C33.397 18.3619 33.257 18.2519 33.087 18.2119V18.1919C33.087 18.1219 33.107 18.0319 33.127 17.9519C33.177 17.7419 33.247 17.5319 33.327 17.3319C33.387 17.1919 33.467 17.0419 33.567 16.9119C33.637 16.8319 33.747 16.7419 33.817 16.7219H33.907L34.017 16.7919C34.107 16.8919 34.157 17.0419 34.187 17.1819C34.277 17.5619 34.267 17.9819 34.207 18.3619C34.147 18.8019 34.767 18.9419 34.957 18.5319C35.067 18.2819 35.177 18.0219 35.297 17.7719V17.8219C35.357 18.0719 35.377 18.3419 35.387 18.6019C35.387 18.8719 35.367 19.1319 35.277 19.4019C35.217 19.5819 35.357 19.7719 35.557 19.8119C35.767 19.8619 35.967 19.7419 36.027 19.5619C36.157 19.1819 36.177 18.7919 36.147 18.3919L36.137 18.4319Z" fill="#DEC76B"/>
<path d="M22.687 12.1218C22.547 11.7118 22.6571 11.3018 22.3271 10.9418C22.0271 10.6118 21.487 10.5518 21.127 10.8518C20.817 11.1118 20.737 11.5318 20.677 11.8818C20.647 12.0618 20.627 12.2418 20.617 12.4318C20.527 12.3918 20.437 12.3618 20.337 12.3318C19.907 12.2118 19.347 12.1418 18.957 12.3818C18.677 12.5518 18.5171 12.8518 18.4871 13.1518C18.2071 13.0718 17.927 13.0618 17.667 13.2018C17.257 13.4218 17.297 13.8718 17.457 14.2218C17.627 14.5918 17.927 14.8918 18.317 15.0818C18.747 15.3018 19.127 14.7018 18.697 14.4918C18.507 14.3918 18.357 14.2718 18.247 14.0918C18.197 14.0118 18.157 13.9318 18.137 13.8418V13.7918L18.307 13.8318C18.417 13.8718 18.517 13.9318 18.617 13.9818C18.747 14.0618 18.857 14.1518 18.967 14.2618C19.047 14.3518 19.127 14.4418 19.207 14.5218C19.487 14.8218 20.047 14.4218 19.807 14.1018C19.737 14.0018 19.637 13.9018 19.527 13.7918C19.427 13.6718 19.3371 13.5418 19.2971 13.3918C19.2571 13.2418 19.267 13.0218 19.427 12.9318C19.617 12.8218 20.017 12.9318 20.207 12.9918C20.437 13.0618 20.6271 13.1818 20.7371 13.3718C20.9471 13.7318 21.517 13.4618 21.437 13.1018C21.377 12.8118 21.377 12.5118 21.417 12.2218C21.447 11.9718 21.477 11.6918 21.597 11.4618L21.667 11.3518L21.707 11.3218C21.777 11.3418 21.827 11.4418 21.847 11.4918C21.937 11.7518 21.887 12.0318 21.977 12.2918C22.117 12.7118 22.857 12.5218 22.717 12.1018L22.687 12.1218Z" fill="#D3B438"/>
<path d="M10.867 13.6821C10.787 13.6821 10.707 13.6621 10.637 13.6421L10.527 13.6121H10.507V13.6021L10.317 13.5121L10.217 13.4521L10.167 13.4221C10.047 13.3321 9.95696 13.2421 9.89696 13.1621L9.78698 12.9921V12.9721L9.76699 12.9421L9.72698 12.8421C9.68698 12.7121 9.67697 12.6521 9.68697 12.5021V12.4121L9.70696 12.3421C9.72696 12.2721 9.74699 12.2021 9.76699 12.1321C9.77699 12.1021 9.78699 12.0721 9.82699 12.0021L9.93697 11.8321L9.95696 11.8121L9.97698 11.7921L10.057 11.7121L10.147 11.6421L10.197 11.6021C10.367 11.4921 10.447 11.3021 10.327 11.1321C10.227 10.9821 9.96699 10.9021 9.79699 11.0121C9.10699 11.4621 8.75697 12.2421 8.96697 12.9821C9.16697 13.6721 9.88696 14.2321 10.677 14.3221C10.887 14.3421 11.087 14.2721 11.147 14.0721C11.197 13.9121 11.077 13.6821 10.867 13.6621V13.6821Z" fill="#D3B438"/>
<path d="M24.407 5.36169C24.127 5.15169 23.787 5.1017 23.457 5.2117C23.407 4.6217 23.167 4.0417 22.527 3.8817C22.097 3.7717 21.637 3.9117 21.317 4.1617C20.957 4.4517 20.7971 4.90171 20.7371 5.31171C20.7071 5.49171 20.797 5.67169 21.017 5.72169C21.197 5.76169 21.4571 5.66169 21.4871 5.47169C21.5271 5.20169 21.587 4.91171 21.797 4.70171C21.927 4.57171 22.157 4.46171 22.357 4.53171C22.577 4.61171 22.637 4.9217 22.677 5.1017C22.737 5.4017 22.727 5.7017 22.657 5.9917C22.567 6.3617 23.147 6.5917 23.367 6.2417C23.447 6.1017 23.537 5.9317 23.687 5.8517C23.827 5.7717 23.917 5.8317 24.017 5.9417C24.247 6.1917 24.327 6.5417 24.257 6.8517C24.157 7.2817 24.897 7.4517 25.007 7.0217C25.147 6.4417 24.967 5.7517 24.427 5.3517L24.407 5.36169Z" fill="#D3B438"/>
<path d="M14.727 6.14217C14.157 5.96217 13.507 5.94216 13.037 6.33216C12.547 6.74216 12.517 7.36217 12.537 7.92217C12.537 8.10217 12.727 8.27217 12.927 8.25217C13.137 8.24217 13.307 8.09217 13.307 7.90217C13.307 7.78217 13.307 7.66217 13.307 7.54217V7.38216L13.317 7.36216V7.34217L13.337 7.26217L13.387 7.10216L13.407 7.06217L13.427 7.03217L13.517 6.90217H13.527L13.587 6.83216L13.647 6.78217L13.727 6.74216L13.887 6.70217H13.957H14.047H14.077H14.127L14.217 6.72216C14.327 6.74216 14.437 6.77217 14.547 6.81217C14.737 6.87217 14.977 6.73217 15.017 6.56217C15.067 6.36217 14.937 6.21217 14.737 6.15217L14.727 6.14217Z" fill="#D3B438"/>
<path d="M45.4871 11.1625C45.4871 10.7425 45.467 10.2925 45.207 9.93249C44.937 9.54249 44.4471 9.34249 43.9471 9.28249C43.3571 9.21249 42.547 9.21249 41.967 9.48249C41.827 9.08249 41.5271 8.75249 40.9771 8.71249H40.8571C40.9271 8.14249 40.837 7.56248 40.377 7.08248C40.077 6.77248 39.647 6.54249 39.177 6.53249C38.697 6.52249 38.2071 6.79249 38.3271 7.27249C38.4271 7.65249 39.0071 7.54248 39.0671 7.22248H39.087H39.277C39.397 7.24248 39.517 7.30249 39.617 7.37249C39.837 7.52249 39.987 7.74248 40.057 7.97248C40.177 8.35248 40.107 8.7525 39.997 9.1425C39.837 9.3625 39.7671 9.6225 39.8171 9.8925C39.8871 10.2525 40.457 10.1725 40.557 9.88249C40.607 9.74249 40.6571 9.59249 40.6971 9.45249C40.7771 9.40249 40.8871 9.38249 40.9771 9.40249C41.3371 9.51249 41.327 9.98249 41.277 10.2425C41.207 10.6625 41.917 10.8425 42.027 10.4125C42.167 9.83248 43.357 9.87249 43.877 9.95249C44.637 10.0625 44.717 10.5825 44.717 11.1725C44.717 11.6125 45.4871 11.5925 45.4871 11.1525V11.1625Z" fill="#D3B438"/>
<path d="M47.907 19.0022C47.887 18.6722 47.857 18.2022 47.537 17.9722C47.187 17.7122 46.657 17.8722 46.277 17.9922C45.827 18.1322 45.427 18.3422 45.057 18.6022L44.967 18.6722C44.767 18.6022 44.527 18.5922 44.287 18.6322C44.407 18.3222 44.487 17.9922 44.527 17.6622C44.587 17.1622 44.497 16.6222 43.967 16.3422C42.947 15.8022 41.597 16.5322 40.987 17.2622C40.697 17.6122 41.367 17.9422 41.657 17.6022C41.867 17.3422 42.167 17.1422 42.487 17.0122C42.787 16.8922 43.287 16.7522 43.577 16.9422C43.867 17.1222 43.767 17.5822 43.717 17.8422C43.637 18.2622 43.487 18.6622 43.257 19.0322C43.077 19.3422 43.447 19.6522 43.787 19.4922C43.937 19.4222 44.087 19.3722 44.257 19.3422C43.947 19.7322 43.767 20.1922 44.017 20.6022C44.137 20.8022 44.447 20.8122 44.617 20.6622C44.987 20.3522 45.397 19.7722 45.367 19.2622C45.477 19.1722 45.587 19.0922 45.707 19.0122C45.957 18.8522 46.237 18.7222 46.527 18.6322C46.657 18.5922 46.877 18.5022 47.017 18.5122C47.057 18.5122 47.007 18.4622 47.057 18.5322L47.107 18.7622C47.307 19.9322 46.767 21.1322 45.777 21.9022C45.407 22.1922 45.957 22.6722 46.327 22.3822C47.037 21.8322 47.537 21.0922 47.767 20.2822C47.887 19.8722 47.937 19.4322 47.907 19.0022Z" fill="#D3B438"/>
<path d="M51.087 32.012C50.617 31.772 50.117 31.592 49.597 31.452C49.817 31.172 49.8871 30.792 49.6671 30.422C49.2571 29.702 48.4071 29.722 47.6071 29.772C47.9771 29.062 48.1071 28.192 47.2671 27.692C46.3371 27.142 45.027 27.522 44.287 28.152C43.927 28.452 44.477 28.932 44.837 28.632C45.297 28.242 46.1771 27.912 46.7971 28.232C47.5471 28.622 46.927 29.542 46.587 29.982C46.417 30.202 46.657 30.492 46.927 30.492C47.477 30.492 48.117 30.292 48.647 30.492C48.867 30.572 49.0571 30.732 49.0171 30.962C48.9771 31.202 48.727 31.302 48.477 31.252L48.377 31.242C47.947 31.202 47.877 31.832 48.287 31.912L48.477 31.932C49.267 32.022 50.0171 32.252 50.6971 32.602C51.1271 32.822 51.5071 32.232 51.0771 32.012H51.087Z" fill="#D3B438"/>
<path d="M60.127 22.8121C60.027 22.3621 59.467 22.2721 59.037 22.2121C58.527 22.1421 58.017 22.1521 57.507 22.2521C57.307 22.2921 57.187 22.5121 57.247 22.6721C57.307 22.8621 57.517 22.9421 57.727 22.9021C58.127 22.8321 58.577 22.8221 58.977 22.8921C59.077 22.9121 59.187 22.9321 59.287 22.9521L59.397 22.9821V23.0221V23.1221C59.397 23.2021 59.397 23.2721 59.397 23.3521V23.4121L59.357 23.5421C59.337 23.6121 59.317 23.6821 59.287 23.7521L59.257 23.8121L59.207 23.9021C59.167 23.9721 59.117 24.0421 59.067 24.1121L59.027 24.1521L59.007 24.1721L58.927 24.2521L58.737 24.4221L58.677 24.4621L58.567 24.5321C58.487 24.5721 58.407 24.6121 58.327 24.6421C58.137 24.7221 58.097 24.9621 58.197 25.1121C58.317 25.2821 58.537 25.3121 58.727 25.2321C59.387 24.9621 59.877 24.4021 60.077 23.7921C60.177 23.4821 60.207 23.1421 60.137 22.8221L60.127 22.8121Z" fill="#D3B438"/>
<path d="M26.397 21.6919L26.3071 21.5519L26.2771 21.5019L26.1371 21.3819C25.9171 21.2119 25.617 21.1019 25.337 21.0419C24.877 20.9419 24.3571 20.8919 23.9371 21.1319C23.5471 21.3519 23.3271 21.7819 23.5071 22.1819L23.5271 22.2119C22.5271 22.3919 21.597 22.8519 20.897 23.5219C20.557 23.8419 21.1071 24.3219 21.4471 24.0019C22.2771 23.2019 23.4671 22.7719 24.6871 22.8119C25.1171 22.8219 25.2071 22.1919 24.7771 22.1419C24.6271 22.1219 24.3271 22.1019 24.2371 21.9619C24.1571 21.8319 24.3471 21.7119 24.4671 21.6719C24.7171 21.6019 25.0071 21.6719 25.2371 21.7319C25.4471 21.7819 25.6471 21.8619 25.7471 22.0419C26.0071 22.4219 26.6171 22.0819 26.4071 21.6919H26.397Z" fill="#D3B438"/>
<path d="M17.097 23.2718C16.427 23.1618 15.737 23.0518 15.057 23.0518C14.727 23.0518 14.387 23.0718 14.077 23.1818C13.777 23.2918 13.527 23.4818 13.317 23.7018C12.917 24.1218 12.587 24.6518 12.707 25.2118C12.827 25.7318 13.327 26.0418 13.857 26.2118C14.137 26.3018 14.427 26.3518 14.717 26.3818C15.087 26.4218 15.467 26.4218 15.817 26.3018C16.007 26.2318 16.137 26.0718 16.077 25.8818C16.027 25.7218 15.797 25.5818 15.597 25.6518C15.187 25.7918 14.727 25.7218 14.307 25.6318C13.977 25.5618 13.607 25.4318 13.477 25.1818C13.307 24.8518 13.587 24.4718 13.817 24.2218C13.957 24.0718 14.117 23.9018 14.327 23.8218C14.547 23.7418 14.797 23.7318 15.037 23.7318C15.667 23.7318 16.287 23.8318 16.907 23.9318C17.107 23.9618 17.317 23.8718 17.377 23.6818C17.427 23.5118 17.307 23.3018 17.097 23.2718Z" fill="#D3B438"/>
<path d="M14.467 34.202C14.357 34.042 14.127 33.992 13.937 34.082C13.567 34.282 13.2471 34.452 12.8271 34.512H12.717H12.557H12.5471H12.467L12.3171 34.482H12.2871L12.2371 34.452L12.177 34.422V34.402C12.197 34.332 12.2071 34.262 12.2371 34.192L12.2571 34.152L12.3171 34.032L12.3871 33.932L12.437 33.872L12.597 33.712L12.6971 33.632H12.717L12.747 33.592C12.817 33.542 12.897 33.502 12.967 33.472C12.977 33.472 13.107 33.422 13.027 33.442L13.147 33.402C13.227 33.382 13.317 33.362 13.407 33.352C13.607 33.322 13.7271 33.092 13.6671 32.932C13.5971 32.742 13.407 32.672 13.187 32.702C12.487 32.802 11.8471 33.262 11.5671 33.842C11.4871 34.022 11.427 34.192 11.407 34.392C11.387 34.642 11.5171 34.842 11.7371 34.982C12.1071 35.212 12.5871 35.232 13.0171 35.172C13.4871 35.102 13.9071 34.882 14.3171 34.672C14.4871 34.582 14.5671 34.362 14.4471 34.202H14.467Z" fill="#D3B438"/>
<path d="M5.01702 29.1921C5.00702 28.9921 4.83701 28.8721 4.62701 28.8621C4.52701 28.8621 4.437 28.8521 4.337 28.8421H4.32702H4.26702L4.117 28.8221C4.027 28.8021 3.94702 28.7821 3.85702 28.7621H3.82702L3.807 28.7421L3.67699 28.6821L3.62701 28.6521H3.617L3.53701 28.5721H3.527L3.50701 28.5321L3.45699 28.4621L3.437 28.4221L3.40701 28.3321L3.38702 28.2621V28.1921V28.0921V28.0521L3.40701 27.9721V27.9321H3.42699L3.467 27.8621L3.497 27.8221L3.647 27.6821L3.70699 27.6421L3.807 27.5921L3.90701 27.5521L3.967 27.5321C4.127 27.4721 4.29699 27.4421 4.45699 27.4021C4.65699 27.3621 4.787 27.1521 4.717 26.9821C4.647 26.8021 4.44702 26.7021 4.23702 26.7521C3.56702 26.8921 2.89702 27.1621 2.66702 27.7821C2.44702 28.3621 2.757 29.0421 3.367 29.3221C3.757 29.5021 4.20702 29.5421 4.63702 29.5621C4.83702 29.5721 5.02702 29.3821 5.01702 29.2121V29.1921Z" fill="#D3B438"/>
<path d="M56.737 13.4122C56.707 12.6722 55.967 12.3822 55.217 12.3022C55.277 12.0822 55.267 11.8322 55.157 11.6222C54.877 11.0722 54.167 10.8522 53.527 10.8322C52.737 10.8222 51.977 11.1722 51.567 11.7122C51.247 11.2422 50.767 10.8922 50.047 10.9322C49.507 10.9622 49.077 11.2822 48.897 11.7222C48.677 12.2522 48.857 12.8022 49.167 13.2622C49.417 13.6422 50.077 13.2922 49.827 12.9122C49.647 12.6422 49.477 12.3022 49.607 11.9722C49.717 11.6722 50.027 11.5423 50.357 11.6423C50.917 11.8023 51.127 12.3322 51.257 12.8222C51.277 12.9322 51.297 13.0422 51.337 13.1622C51.497 13.5822 52.177 13.4022 52.077 12.9722C51.807 12.2622 52.427 11.6423 53.207 11.5323C53.547 11.4823 53.957 11.5122 54.247 11.6922C54.497 11.8522 54.607 12.1922 54.277 12.3322C53.927 12.4822 54.117 12.9822 54.487 12.9622C54.997 12.9422 56.087 12.9422 55.947 13.6122C55.837 14.1122 55.357 14.5022 54.857 14.7122C54.407 14.9022 54.807 15.4822 55.247 15.2922C56.027 14.9622 56.767 14.2222 56.727 13.4122H56.737Z" fill="#D3B438"/>
<path d="M47.057 3.95219C46.827 3.52219 46.297 3.49219 45.817 3.51219C45.407 3.53219 44.987 3.61219 44.637 3.80219L44.607 3.7522C44.327 3.4222 43.867 3.24219 43.407 3.24219C42.407 3.24219 41.727 4.12219 41.817 4.95219C41.837 5.13219 41.987 5.2922 42.207 5.2822C42.407 5.2822 42.607 5.12219 42.587 4.93219C42.537 4.52219 42.767 4.0022 43.277 3.9222C43.487 3.8922 43.717 3.94219 43.887 4.05219C43.947 4.09219 44.027 4.1722 44.067 4.2522C43.927 4.4422 43.867 4.6622 43.987 4.8922C44.097 5.0922 44.427 5.10219 44.587 4.95219C44.737 4.81219 44.817 4.65218 44.837 4.47218C44.927 4.41218 45.037 4.35218 45.087 4.33218C45.327 4.22218 45.597 4.19219 45.867 4.18219C46.027 4.18219 46.327 4.12219 46.377 4.27219C46.437 4.49219 46.257 4.77219 46.217 4.98219C46.187 5.16219 46.277 5.3522 46.497 5.3922C46.687 5.4322 46.937 5.3322 46.967 5.1422C47.037 4.7222 47.277 4.34219 47.057 3.93219V3.95219Z" fill="#D3B438"/>
</g>
</svg>
