<svg width="62" height="68" viewBox="0 0 62 68" fill="none" xmlns="http://www.w3.org/2000/svg">
<path d="M61.4526 37.4683C61.4526 54.321 47.7846 68.0003 30.9206 68.0003C30.7733 68.0003 30.6146 68.0003 30.4673 67.989C13.8186 67.751 0.399963 54.1737 0.399963 37.4797C0.399963 30.4983 2.74596 24.0496 6.71263 18.893C11.688 12.4216 19.202 8.00165 27.7473 7.11765C28.518 7.03832 29.2773 6.98165 30.0706 6.98165H30.082C30.354 6.95898 30.6486 6.95898 30.9206 6.95898C32.4506 6.95898 33.9693 7.07231 35.4313 7.31031C39.806 7.94498 43.852 9.50898 47.4106 11.8096C50.1533 13.5663 52.6013 15.7536 54.6413 18.281C58.3926 22.9163 60.8066 28.6396 61.3506 34.9183C61.4073 35.757 61.4526 36.6183 61.4526 37.491V37.4683Z" fill="#784FFF"/>
<path d="M57.7466 52.0543C52.5786 61.5403 42.5033 67.989 30.9206 67.989C19.338 67.989 9.26265 61.529 4.08331 52.043C9.68198 57.619 19.6213 61.3363 30.9206 61.3363C42.22 61.3363 52.1366 57.6303 57.7466 52.0543Z" fill="#28E58A"/>
<path d="M50.4366 18.0106C51.8193 23.9946 46.572 23.7226 43.954 21.7846C43.9653 21.9546 43.9653 22.1132 43.9653 22.2832C43.614 29.2306 37.324 26.6352 36.0773 23.5412C36.032 23.4052 35.964 23.2352 35.9073 23.0652C35.794 23.6772 35.658 24.2552 35.42 24.8106C32.9153 30.6586 28.5293 27.4059 27.7133 24.2666C26.92 27.5079 21.0266 30.9192 19.7346 24.0852C19.61 23.3939 19.5986 22.6912 19.6666 21.9545C19.5193 22.1585 19.3606 22.3512 19.236 22.5099C17.06 25.0826 10.09 27.1679 11.9373 19.2346C12.0053 18.9172 12.1186 18.5885 12.2546 18.2712C10.736 18.9739 8.36731 19.3479 6.71265 18.8832C12.3 11.6186 21.072 6.94922 30.932 6.94922C40.792 6.94922 49.0653 11.3579 54.6526 18.2599C53.644 18.8152 51.91 18.5659 50.4366 18.0106Z" fill="#28E58A"/>
<path d="M16.2327 38.0579L11.9033 35.1339L13.1953 40.1999C13.2293 40.3472 13.014 40.4152 12.9687 40.2679L11.1893 35.3606L9.26268 40.2112C9.20601 40.3586 8.99068 40.2792 9.03601 40.1319L10.4867 35.1112L6.06668 37.9106C5.94201 37.9899 5.80601 37.8086 5.93068 37.7179L10.056 34.5106L4.84268 34.1819C4.69534 34.1819 4.69534 33.9439 4.84268 33.9439L10.0673 33.7739L6.04401 30.4419C5.93068 30.3399 6.06668 30.1699 6.19134 30.2492L10.5207 33.1732L9.22868 28.1072C9.19468 27.9599 9.41001 27.8919 9.45534 28.0392L11.2347 32.9466L13.1613 28.0959C13.218 27.9486 13.4333 28.0279 13.388 28.1752L11.9373 33.1959L16.3573 30.3966C16.482 30.3172 16.618 30.4986 16.4933 30.5892L12.368 33.7966L17.5813 34.1252C17.7287 34.1252 17.7287 34.3632 17.5813 34.3632L12.3567 34.5332L16.38 37.8652C16.4933 37.9672 16.3573 38.1372 16.2327 38.0579Z" fill="#F5FF28"/>
<path d="M58.0867 49.1751L53.7574 46.2511L55.0494 51.3171C55.0834 51.4644 54.868 51.5324 54.8227 51.3851L53.0434 46.4777L51.1167 51.3284C51.06 51.4757 50.8447 51.3964 50.89 51.2491L52.3407 46.2284L47.9207 49.0277C47.796 49.1071 47.66 48.9257 47.7847 48.8351L51.91 45.6277L46.6967 45.2991C46.5493 45.2991 46.5493 45.0611 46.6967 45.0611L51.9213 44.8911L47.898 41.5591C47.7847 41.4571 47.9207 41.2871 48.0454 41.3664L52.3747 44.2904L51.0827 39.2244C51.0487 39.0771 51.264 39.0091 51.3093 39.1564L53.0887 44.0637L55.0153 39.2131C55.072 39.0657 55.2873 39.1451 55.242 39.2924L53.7914 44.3131L58.2113 41.5137C58.336 41.4344 58.472 41.6157 58.3474 41.7064L54.222 44.9137L59.4353 45.2424C59.5827 45.2424 59.5827 45.4804 59.4353 45.4804L54.2107 45.6504L58.234 48.9824C58.3473 49.0844 58.2114 49.2544 58.0867 49.1751Z" fill="#F5FF28"/>
<path d="M22.9307 52.6544L20.766 51.8271L20.8113 54.1504C20.8113 54.5811 20.256 54.7624 20.018 54.3998L18.7487 52.4618L17.4227 54.3658C17.1733 54.7171 16.618 54.5358 16.6407 54.0938L16.754 51.7818L14.5667 52.5411C14.1587 52.6771 13.8187 52.2011 14.0907 51.8611L15.5413 50.0591L13.32 49.3791C12.9007 49.2544 12.912 48.6651 13.3313 48.5518L15.564 47.9398L14.17 46.0924C13.9093 45.7411 14.2607 45.2764 14.6687 45.4238L16.8333 46.2511L16.788 43.9278C16.788 43.4971 17.3433 43.3158 17.5813 43.6784L18.8507 45.6164L20.1767 43.7124C20.426 43.3611 20.9813 43.5424 20.9587 43.9844L20.8453 46.2964L23.0327 45.5371C23.4407 45.4011 23.7807 45.8771 23.5087 46.2171L22.058 48.0191L24.2793 48.6991C24.6987 48.8238 24.6873 49.4131 24.268 49.5264L22.0353 50.1384L23.4293 51.9858C23.69 52.3371 23.3387 52.8018 22.9307 52.6544Z" fill="#F5FF28"/>
<path d="M43.8293 33.1258L43.1153 32.8538V33.6131C43.1267 33.7604 42.9453 33.8171 42.866 33.6924L42.4467 33.0578L42.0047 33.6811C41.9253 33.7944 41.744 33.7378 41.744 33.5904L41.778 32.8311L41.0527 33.0804C40.9167 33.1258 40.8033 32.9671 40.894 32.8538L41.37 32.2531L40.6447 32.0264C40.5087 31.9811 40.5087 31.7884 40.6447 31.7544L41.3813 31.5504L40.9167 30.9384C40.826 30.8251 40.9507 30.6664 41.0867 30.7231L41.8007 30.9951V30.2358C41.7893 30.0884 41.9707 30.0318 42.05 30.1564L42.4693 30.7911L42.9113 30.1678C42.9907 30.0544 43.172 30.1111 43.172 30.2584L43.138 31.0178L43.8633 30.7684C43.9993 30.7231 44.1127 30.8818 44.022 30.9951L43.546 31.5958L44.2713 31.8224C44.4073 31.8678 44.4073 32.0604 44.2713 32.0944L43.5347 32.2984L43.9993 32.9104C44.09 33.0238 43.9653 33.1824 43.8293 33.1258Z" fill="#F5FF28"/>
<path d="M36.202 44.7108L34.1053 43.2375L34.7853 45.7081C34.8193 45.8441 34.6153 45.9121 34.57 45.7761L33.7426 43.3508L32.836 45.7535C32.7793 45.8895 32.5753 45.8215 32.6206 45.6855L33.38 43.2375L31.238 44.6541C31.1133 44.7335 30.9886 44.5521 31.1133 44.4728L33.1646 42.9315L30.6033 42.8181C30.456 42.8181 30.456 42.5915 30.6033 42.5915L33.1646 42.5575L31.1586 40.9595C31.0453 40.8688 31.17 40.6988 31.2946 40.7781L33.3913 42.2515L32.7113 39.7808C32.6773 39.6448 32.8813 39.5768 32.9266 39.7128L33.754 42.1381L34.6606 39.7355C34.7173 39.5995 34.9213 39.6675 34.876 39.8035L34.1166 42.2515L36.2586 40.8348C36.3833 40.7555 36.508 40.9368 36.3833 41.0161L34.332 42.5575L36.8933 42.6708C37.0406 42.6708 37.0406 42.8975 36.8933 42.8975L34.332 42.9315L36.338 44.5295C36.4513 44.6201 36.3266 44.7901 36.202 44.7108Z" fill="#F5FF28"/>
<path d="M57.5654 28.0272L55.4687 26.5539L56.1487 29.0245C56.1827 29.1605 55.9787 29.2285 55.9334 29.0925L55.106 26.6672L54.1994 29.0699C54.1427 29.2059 53.9387 29.1379 53.984 29.0019L54.7434 26.5539L52.6014 27.9705C52.4767 28.0499 52.352 27.8685 52.4767 27.7892L54.528 26.2479L51.9667 26.1345C51.8194 26.1345 51.8194 25.9079 51.9667 25.9079L54.528 25.8739L52.522 24.2759C52.4087 24.1852 52.5334 24.0152 52.658 24.0945L54.7547 25.5679L54.0747 23.0972C54.0407 22.9612 54.2447 22.8932 54.29 23.0292L55.1174 25.4545L56.024 23.0519C56.0807 22.9159 56.2847 22.9839 56.2394 23.1199L55.48 25.5679L57.622 24.1512C57.7467 24.0719 57.8714 24.2532 57.7467 24.3325L55.6954 25.8739L58.2567 25.9872C58.404 25.9872 58.404 26.2139 58.2567 26.2139L55.6954 26.2479L57.7014 27.8459C57.8147 27.9365 57.69 28.1065 57.5654 28.0272Z" fill="#F5FF28"/>
<path d="M31.7253 9.74705C30.3313 9.75839 29.3227 9.52038 28.5973 9.23705C27.3507 8.73838 26.9653 8.03572 26.9653 8.03572C27.26 7.76372 27.5207 7.44638 27.736 7.10638C28.0873 6.63038 28.3707 6.12039 28.6087 5.59905C29.3567 3.95572 29.7193 2.08572 29.878 0.510384C30.0593 0.363051 30.2973 0.215717 30.6147 0.12505C30.6147 0.12505 30.6373 0.125052 30.6373 0.113719C30.7507 0.0910523 30.8753 0.0570507 31 0.0457174C31.0793 0.034384 31.17 0.0230502 31.2493 0.0230502C31.3967 0.0117168 31.5667 0.0117188 31.748 0.0117188C32.394 0.0343854 32.8247 0.113719 33.142 0.215719C33.1647 0.487719 33.1987 0.759718 33.244 1.02038C33.074 0.748385 32.6887 0.317719 31.7367 0.317719C30.694 0.317719 30.4107 0.793717 30.3653 1.25838H33.2667C33.4933 2.74305 33.9467 4.12572 34.434 5.23639C34.7967 6.09772 35.148 6.80039 35.4313 7.29905C35.692 7.76372 35.8733 8.04705 35.8733 8.04705C35.8733 8.04705 36.2587 9.72438 31.7253 9.75838V9.74705Z" fill="#23C979"/>
<path d="M34.4453 5.22467C34.3206 4.012 33.9466 1.24667 33.9466 1.24667C33.8106 0.736669 33.652 0.408 33.1533 0.204C32.836 0.090667 32.4053 0.0226667 31.7593 0C31.578 0 31.408 2.42131e-06 31.2606 0.0113358C31.1813 0.0113358 31.0906 0.0226696 31.0113 0.0340029C30.8866 0.0453363 30.762 0.0793335 30.6486 0.102C30.6486 0.113334 30.626 0.113336 30.626 0.113336C30.3086 0.215336 30.0706 0.351336 29.8893 0.498669C29.4926 0.850003 29.4473 1.23533 29.4473 1.23533C29.4473 1.23533 28.6993 4.70333 28.62 5.58733C28.6086 5.68933 28.5973 5.75734 28.6086 5.78C28.688 5.96134 29.1186 6.21067 30.5013 6.30133C30.8526 6.324 31.2493 6.34667 31.7366 6.34667C34.0486 6.358 34.4226 5.89333 34.4906 5.76867C34.502 5.746 34.4906 5.53067 34.4453 5.21334V5.22467ZM30.3766 1.23533C30.422 0.759334 30.7053 0.294669 31.748 0.294669C32.7 0.294669 33.0853 0.725335 33.2553 0.997335C33.3233 1.13333 33.3346 1.23533 33.3346 1.23533H30.3766Z" fill="#76BDCF"/>
<g style="mix-blend-mode:multiply" opacity="0.45">
<path d="M30.1273 1.55105C30.4333 2.84305 30.5013 6.31105 30.5013 6.31105L30.082 6.95705H30.0706L28.6086 9.22372C28.6086 9.22372 17.8193 17.5537 16.1646 29.0344C14.4873 40.5944 15.6433 57.2884 25.5146 64.6097C27.3846 65.9924 29.028 67.1031 30.4786 67.9757C13.83 67.7377 0.411316 54.1604 0.411316 37.4664C0.411316 30.4851 2.75732 24.0364 6.72398 18.8797C11.6993 12.4084 19.2133 7.98838 27.7586 7.10438C28.11 6.62838 28.3933 6.11838 28.6313 5.59705C28.7106 4.71305 29.4586 1.24505 29.4586 1.24505C29.4586 1.24505 29.504 0.859714 29.9006 0.50838C30.082 0.361047 30.32 0.213714 30.6373 0.123047C30.3426 0.315714 29.946 0.712381 30.1386 1.56238L30.1273 1.55105Z" fill="#E8BABA"/>
</g>
<g style="mix-blend-mode:soft-light">
<path d="M61.362 34.8958C61.0106 35.3831 60.6253 35.8591 60.2173 36.3351C54.2106 43.0898 39.1146 40.7098 35.3973 33.4564C31.6913 26.2258 31.6913 24.0044 37.9586 22.7804C44.2373 21.5451 46.98 19.7771 47.1386 14.0424C47.1613 13.1584 47.2633 12.4104 47.4106 11.7871C50.1533 13.5438 52.6013 15.7311 54.6413 18.2585C58.3926 22.8938 60.8066 28.6171 61.3506 34.8958H61.362Z" fill="#B8E6E1"/>
</g>
</svg>
