<svg width="60" height="65" viewBox="0 0 60 65" fill="none" xmlns="http://www.w3.org/2000/svg">
<path d="M10.3538 34.0896C10.3538 34.0896 13.3338 39.1596 18.4438 36.2896C18.4438 36.2896 23.2338 38.1296 24.4938 34.5296C24.4938 34.5296 27.0638 35.0796 27.4938 32.3696C27.4938 32.3696 28.7538 35.6496 30.8938 33.9196C30.8938 33.9196 32.5038 35.6996 35.6138 34.9696C35.6138 34.9696 35.0038 36.4996 37.2838 37.5596C39.5638 38.6196 40.8638 36.6596 40.8638 36.6596C40.8638 36.6596 42.0738 38.3296 43.8238 38.1296C45.1638 37.9796 45.7837 37.1596 45.8737 35.9096C45.8737 35.9096 49.1938 38.6096 50.9038 34.2596C52.6138 29.9096 49.2838 26.2496 49.2838 26.2496L23.6438 20.5996L10.3438 34.0896H10.3538Z" fill="#EBD01F"/>
<path d="M8.36377 21.8696C8.36377 21.8696 8.87375 29.3896 15.5938 27.5796C15.5938 27.5796 19.4438 29.6996 22.0638 26.0396C22.0638 26.0396 24.3238 27.3696 25.5938 24.9296C25.5938 24.9296 25.7538 28.4296 28.3338 27.4796C28.3338 27.4796 29.3038 29.6696 32.4838 29.9596C32.4838 29.9596 31.4238 31.2196 33.2538 32.9396C35.0838 34.6596 36.9338 33.2196 36.9338 33.2196C36.9338 33.2196 37.5538 35.1796 39.2838 35.5396C40.6038 35.8196 41.4538 35.2296 41.9238 34.0796C41.9238 34.0796 44.2238 37.6896 47.2138 34.0996C50.2038 30.5096 48.1938 25.9796 48.1938 25.9796L25.6338 12.5596L8.35376 21.8696H8.36377Z" fill="#E8C900"/>
<path d="M13.4738 30.6596C13.4738 30.6596 17.6138 36.9596 22.5838 32.0796C22.5838 32.0796 26.9738 32.0296 27.4638 27.5596C27.4638 27.5596 30.0838 27.5996 29.9938 24.8596C29.9938 24.8596 31.8638 27.8296 33.6338 25.7296C33.6338 25.7296 35.5538 27.1596 38.4638 25.8396C38.4638 25.8396 38.1637 27.4596 40.5938 28.0596C43.0238 28.6596 43.9338 26.4896 43.9338 26.4896C43.9338 26.4896 45.4437 27.8896 47.1237 27.3596C48.4037 26.9496 48.8538 26.0296 48.7038 24.7896C48.7038 24.7896 52.4838 26.7996 53.3238 22.1996C54.1638 17.5996 50.1838 14.6496 50.1838 14.6496L23.9438 14.0596L13.4738 30.6596Z" fill="#E8C900"/>
<path d="M49.9937 21.5901C49.9937 21.5901 47.8337 25.9701 44.4437 29.6501C44.2337 29.8801 44.0137 30.1101 43.7937 30.3401C40.8237 33.3301 38.5237 36.1101 37.9237 37.9401C37.8837 38.0701 37.8437 38.1901 37.8037 38.3301C37.8037 38.3301 37.7837 38.3801 37.7637 38.4901C36.6937 42.9001 37.7937 57.0401 38.6537 63.9201C37.5137 64.4501 35.7337 64.9701 33.0837 64.9901C32.1637 65.0101 31.1337 64.9601 29.9937 64.8401C29.3637 64.7801 28.6937 64.6801 27.9837 64.5601C27.7437 64.5201 27.5137 64.4701 27.2937 64.4201C26.2937 64.1901 25.5437 63.8501 24.9837 63.5201C25.9537 55.8001 26.2237 40.3201 25.8237 38.1301C25.4337 36.0001 24.8937 32.7001 21.0637 29.0401C20.5237 28.5301 19.9337 28.0201 19.2637 27.5001C19.2237 27.4701 19.1637 27.4601 19.1237 27.4301C16.9837 26.3801 14.9337 25.5701 13.1137 24.9601C8.8637 23.5401 5.8337 23.1801 5.8337 23.1801C5.8337 23.1801 3.5637 21.0501 8.6437 22.1601C10.3637 22.5401 10.1937 22.6101 11.9337 23.1501C15.3437 24.2301 18.4637 25.2501 20.0337 24.6801C22.4037 23.8301 20.7237 18.9901 20.9437 16.6701C21.0937 15.1001 20.6337 13.1901 20.3137 12.1301C20.1737 11.6401 20.0537 11.3301 20.0537 11.3301C20.0537 11.3301 20.5137 11.5101 21.0137 12.0001C21.5837 12.5601 22.1937 13.5501 22.1137 15.1501C21.9837 17.7101 22.8537 19.8801 23.3637 19.9501C23.8737 20.0301 25.1637 18.7601 26.0937 17.5101C27.2337 15.9601 26.8337 14.5801 26.8337 14.5801C26.8337 14.5801 29.8937 14.6901 27.4737 17.5501C25.2837 20.1401 23.0637 22.2501 23.0837 24.2701C23.0837 25.0201 22.7937 25.7301 23.2337 26.6601C24.1437 28.5701 25.7837 30.2501 28.3937 32.3101C30.5637 34.0201 32.1037 33.2001 32.5237 31.6601C32.9037 30.2901 33.7837 26.6801 33.0737 23.6001C32.9837 23.1801 32.8537 22.7701 32.6937 22.3801C32.1837 21.1501 29.4737 15.7701 29.4737 15.7701L30.4537 15.3901C30.4537 15.3901 32.1637 19.4901 33.2937 21.4301C33.5837 21.9401 33.8337 22.4801 34.0137 23.0301C34.8237 25.4201 34.7037 27.8901 34.7037 27.8901C35.5037 27.2601 36.3137 25.1701 36.6637 23.4801C36.8737 22.4201 36.8937 21.5101 36.6237 21.2001C34.9437 19.2901 34.0537 16.2601 34.0537 16.0901C34.0537 15.9601 36.6137 21.4001 36.6637 20.2901C36.7537 18.6001 36.6437 16.9001 36.6437 16.9001L37.4437 22.9101L40.1137 15.9001L40.9337 13.7401C40.8937 13.8901 40.6637 14.7601 40.3337 15.9701C39.6037 18.6901 38.3637 23.1401 37.6437 25.1601C37.6437 25.1901 37.6437 25.2001 37.6237 25.2201C36.6437 27.9901 34.8537 30.8001 35.7837 30.3401C36.2637 30.1001 37.8537 28.0101 39.3037 25.9201C39.6237 25.4701 39.9337 25.0301 40.2137 24.6001C40.4237 24.3001 41.2837 18.5501 41.4637 18.2701C41.5937 18.0701 41.0337 23.3501 41.1437 23.1801C41.6137 22.4401 41.9437 21.8701 42.0337 21.6201C42.4237 20.5501 42.7737 18.7501 42.7737 18.7501C42.7737 18.7501 45.0337 17.4901 42.7537 21.9201C42.0837 23.2201 41.1737 24.7301 40.2337 26.2201C38.8837 28.3601 37.4837 30.4401 36.6437 31.7401C36.4537 32.0401 36.2937 32.3001 36.1837 32.5101C36.0737 32.7001 34.3237 38.2101 35.5337 37.7801C35.8037 37.6801 36.2537 36.7301 36.9137 35.6901V35.6701C37.2637 35.0901 37.6837 34.4901 38.1437 33.9701C39.9437 31.9901 42.0137 30.5601 43.3437 29.0501C43.9437 28.3801 44.3937 27.7001 44.6037 26.9501C46.0837 21.8701 46.2337 18.5401 46.4737 18.2701C46.6537 18.0601 45.4637 26.5301 45.6337 26.3301C47.6437 24.0001 49.1337 20.9301 49.1337 20.9301L50.0137 21.5701L49.9937 21.5901Z" fill="#8C5F2E"/>
<g style="mix-blend-mode:multiply" opacity="0.47">
<path d="M27.4437 17.5598C25.2537 20.1498 23.0337 22.2598 23.0537 24.2798C22.7937 24.3998 22.5137 24.4498 22.2337 24.4098C19.6537 24.0398 21.6237 24.5598 20.6437 26.3798C20.3337 26.9398 19.7637 27.2598 19.1137 27.4298C16.9737 26.3798 14.9237 25.5698 13.1037 24.9598C12.6037 24.3598 12.2137 23.7498 11.9137 23.1598C15.3237 24.2398 18.4437 25.2598 20.0137 24.6898C22.3837 23.8398 20.7037 18.9998 20.9237 16.6798C21.0737 15.1098 20.6137 13.1998 20.2937 12.1398C20.5237 12.0998 20.7537 12.0498 20.9937 12.0098C21.5637 12.5698 22.1737 13.5598 22.0937 15.1598C21.9637 17.7198 22.8337 19.8898 23.3437 19.9598C23.8537 20.0398 25.1437 18.7698 26.0737 17.5198C27.2137 15.9698 26.8137 14.5898 26.8137 14.5898C26.8137 14.5898 29.8737 14.6998 27.4537 17.5598H27.4437Z" fill="#5259A6"/>
</g>
<g style="mix-blend-mode:multiply" opacity="0.47">
<path d="M33.2637 21.4404C33.5537 21.9504 33.8037 22.4904 33.9837 23.0404C33.7137 23.2404 33.4037 23.4304 33.0437 23.6104C32.9537 23.1904 32.8237 22.7804 32.6637 22.3904C32.1537 21.1604 29.4437 15.7804 29.4437 15.7804L30.4237 15.4004C30.4237 15.4004 32.1337 19.5004 33.2637 21.4404Z" fill="#5259A6"/>
</g>
<g style="mix-blend-mode:multiply" opacity="0.47">
<path d="M40.3037 15.9804C39.5737 18.7004 38.3337 23.1504 37.6137 25.1704C37.4337 24.8804 37.1837 24.4304 36.7637 23.7004C36.7237 23.6204 36.6737 23.5504 36.6337 23.4804C36.8437 22.4204 36.8637 21.5104 36.5937 21.2004C34.9137 19.2904 34.0237 16.2604 34.0237 16.0904C34.0237 15.9604 36.5837 21.4004 36.6337 20.2904C36.7237 18.6004 36.6137 16.9004 36.6137 16.9004L37.4137 22.9104L40.0837 15.9004C40.1537 15.9304 40.2237 15.9504 40.3037 15.9704V15.9804Z" fill="#5259A6"/>
</g>
<g style="mix-blend-mode:multiply" opacity="0.47">
<path d="M42.7337 21.9297C42.0637 23.2297 41.1537 24.7397 40.2137 26.2297C39.8337 26.0997 39.5237 26.0097 39.2737 25.9397C39.5937 25.4897 39.9037 25.0497 40.1837 24.6197C40.3937 24.3197 41.2537 18.5697 41.4337 18.2897C41.5637 18.0897 41.0037 23.3697 41.1137 23.1997C41.5837 22.4597 41.9137 21.8897 42.0037 21.6397C42.3937 20.5697 42.7437 18.7697 42.7437 18.7697C42.7437 18.7697 45.0037 17.5097 42.7237 21.9397L42.7337 21.9297Z" fill="#5259A6"/>
</g>
<g style="mix-blend-mode:multiply" opacity="0.47">
<path d="M49.9937 21.5902C49.9937 21.5902 47.8337 25.9702 44.4437 29.6502C44.1137 29.5002 43.7537 29.3102 43.3237 29.0602C43.9237 28.3902 44.3737 27.7102 44.5837 26.9602C46.0637 21.8802 46.2137 18.5502 46.4537 18.2802C46.6337 18.0702 45.4437 26.5402 45.6137 26.3402C47.6237 24.0102 49.1137 20.9402 49.1137 20.9402L49.9937 21.5802V21.5902Z" fill="#5259A6"/>
</g>
<g style="mix-blend-mode:multiply" opacity="0.25">
<path d="M36.8937 35.6998C36.7637 36.0798 35.2837 41.2798 34.5037 38.1698C33.7037 34.9798 36.6237 31.7598 36.6237 31.7598C36.4337 32.0498 36.2737 32.3098 36.1637 32.5198C36.0537 32.7098 34.3037 38.2198 35.5137 37.7898C35.7837 37.6898 36.2337 36.7398 36.8937 35.6998Z" fill="#5259A6"/>
</g>
<g style="mix-blend-mode:multiply" opacity="0.25">
<path d="M33.0937 65.0002C33.3837 63.5402 33.4337 58.2802 33.3037 57.2702C32.9037 54.0802 34.5037 49.0602 34.3537 51.2802C34.2237 53.5002 34.6037 60.5802 35.0037 53.6202C35.3737 47.2302 37.4237 39.6802 37.7537 38.4902C36.6837 42.9002 37.7837 57.0402 38.6437 63.9202C37.5037 64.4502 35.7237 64.9702 33.0737 64.9902L33.0937 65.0002Z" fill="#696EA6"/>
</g>
<path opacity="0.21" d="M29.9937 64.84C29.3637 64.78 28.6937 64.68 27.9837 64.56C27.7437 64.52 27.5137 64.47 27.2937 64.42C26.2937 64.19 25.5437 63.85 24.9837 63.52C25.9537 55.8 26.2237 40.32 25.8237 38.13C25.4337 36 24.8937 32.7 21.0637 29.04C21.3537 29.21 24.6637 31.89 25.9737 33.59C27.3537 35.36 28.1037 39.5 27.7437 42.71C26.4437 54.43 30.7137 62.95 30.0037 64.83L29.9937 64.84Z" fill="#AB8A68"/>
<path d="M35.0037 44.5591C34.6137 46.8091 33.5237 46.5391 32.8437 47.9991C32.6437 48.4491 32.3737 48.7291 32.1337 48.9291C32.1337 48.9291 32.1037 48.9491 32.0737 48.9791C31.9537 49.0591 31.7037 49.1991 31.4337 49.2491C31.4337 49.2191 31.4537 49.1491 31.4737 49.0391C31.6737 47.6091 32.7437 40.0891 32.0437 39.6291C31.2637 39.1191 31.1437 38.9991 31.1437 38.9991L32.5237 38.1191C32.5237 38.1191 33.4737 40.3791 34.0137 40.8391C35.0537 41.7391 35.2337 43.3491 35.0337 44.5591H35.0037Z" fill="#B57633"/>
<path d="M33.7837 46.3299C33.6937 46.3899 33.6137 46.4599 33.5237 46.5399C33.4437 46.6199 33.3537 46.6999 33.2737 46.7999C33.1837 46.8999 33.1037 47.0199 33.0137 47.1499C32.9237 47.2799 32.8437 47.4099 32.7637 47.5499C32.6837 47.6899 32.6037 47.8399 32.5437 47.9799C32.4637 48.1399 32.3837 48.2999 32.3237 48.4599C31.8537 49.4399 30.7237 49.5299 30.1637 48.6099L30.1437 48.5899C29.9837 48.3399 29.8337 48.0799 29.6837 47.7999C29.4037 47.2999 29.1637 46.7799 29.0037 46.2699C28.9537 46.1399 28.9337 46.0199 28.9037 45.8899C28.8637 45.7499 28.8437 45.6299 28.8337 45.4899C28.7737 45.0699 28.7337 42.7499 28.8737 42.3499C29.2737 41.1599 29.7537 40.1799 30.4737 39.2699C31.1337 38.4299 31.9937 38.4699 32.6037 39.4399C32.6237 39.4499 32.6337 39.4599 32.6437 39.4899C32.8137 39.7599 32.9737 40.0499 33.1437 40.3099C33.2237 40.4499 33.3137 40.5699 33.3937 40.6999C33.4737 40.8299 33.5637 40.9499 33.6437 41.0699C33.8137 41.2999 33.9737 41.4999 34.1237 41.6599C34.3837 41.9599 34.5837 42.3299 34.7137 42.7599C35.1137 44.0299 34.8637 45.6399 33.8037 46.3399L33.7837 46.3299Z" fill="#8C5112"/>
<g style="mix-blend-mode:multiply" opacity="0.25">
<path d="M33.7738 46.3295C33.6838 46.3895 33.6038 46.4595 33.5138 46.5395C33.4338 46.6095 33.3438 46.6995 33.2638 46.7995C33.1738 46.8995 33.0937 47.0195 33.0037 47.1495C32.9137 47.2795 32.8337 47.4095 32.7537 47.5495C32.6737 47.6895 32.5937 47.8395 32.5337 47.9795C32.4537 48.1395 32.3737 48.2995 32.3137 48.4595C32.2237 48.6495 32.1038 48.8095 31.9638 48.9395C31.9638 48.9395 31.9571 48.9428 31.9437 48.9495C31.7237 49.1395 31.4538 49.2495 31.1838 49.2495C31.1138 49.2495 31.0337 49.2395 30.9737 49.2295C30.9537 49.2295 30.9337 49.2195 30.9137 49.2195C30.8937 49.2195 30.8838 49.2095 30.8638 49.2095C30.5838 49.1295 30.3337 48.9395 30.1337 48.6195L30.1138 48.5995C29.9538 48.3495 29.8038 48.0895 29.6538 47.8095C29.3738 47.3095 29.1337 46.7895 28.9737 46.2795C28.9237 46.1495 28.9037 46.0295 28.8737 45.8995C28.8337 45.7595 28.8138 45.6395 28.8038 45.4995C28.7638 45.1895 28.7638 44.3095 28.8338 43.5895C28.8638 43.3395 28.8938 43.1095 28.9238 42.9395C29.1938 41.6895 29.6737 40.9095 30.3437 39.8395C31.0737 38.6695 31.9537 38.4695 32.5737 39.4395C32.5937 39.4495 32.6038 39.4595 32.6138 39.4895C32.7838 39.7595 32.9438 40.0495 33.1138 40.3095C33.1938 40.4495 33.2838 40.5695 33.3638 40.6995C33.4438 40.8295 33.5338 40.9495 33.6138 41.0695C33.7838 41.2995 33.9437 41.4995 34.0937 41.6595C34.3537 41.9595 34.5538 42.3295 34.6838 42.7595C35.0838 44.0295 34.8338 45.6395 33.7738 46.3395V46.3295Z" fill="#5259A6"/>
</g>
<g style="mix-blend-mode:multiply" opacity="0.32">
<path d="M33.7837 46.3293C33.6937 46.3893 33.6137 46.4593 33.5237 46.5393C33.4437 46.6193 33.3537 46.6993 33.2737 46.7993C33.1837 46.8993 33.1037 47.0193 33.0137 47.1493C32.9237 47.2793 32.8437 47.3993 32.7637 47.5493C32.6937 47.6893 32.6037 47.8393 32.5437 47.9793C32.4637 48.1393 32.3837 48.2993 32.3237 48.4593C31.8537 49.4393 30.7237 49.5293 30.1637 48.6093L30.1437 48.5893C29.9837 48.3393 29.8337 48.0793 29.6837 47.7993C29.1737 45.4093 29.8437 43.1493 30.3437 41.9893C30.5337 41.5593 30.7737 41.2193 31.0237 40.9793C31.7837 40.2293 32.8637 40.3093 33.6237 41.0493C33.7937 41.2793 33.9537 41.4793 34.1037 41.6393C34.3637 41.9393 34.5637 42.3093 34.6937 42.7393C35.0937 44.0093 34.8437 45.6193 33.7837 46.3193V46.3293Z" fill="#7B83DB"/>
</g>
<g style="mix-blend-mode:multiply" opacity="0.15">
<path d="M33.7838 46.3296C33.6938 46.3896 33.6138 46.4596 33.5238 46.5396C33.4438 46.6196 33.3538 46.6996 33.2738 46.7996C33.1838 46.8996 33.1038 47.0196 33.0138 47.1496C32.9238 47.2796 32.8438 47.3996 32.7638 47.5496C32.6938 47.6896 32.6038 47.8396 32.5438 47.9796C32.4638 48.1396 32.3838 48.2996 32.3238 48.4596C31.8538 49.4396 30.7238 49.5296 30.1638 48.6096L30.1438 48.5896C29.9738 46.5596 30.9338 44.5596 31.7638 43.2096C32.6638 41.7396 34.3538 42.5696 34.6938 42.7496C35.0938 44.0196 34.8438 45.6296 33.7838 46.3296Z" fill="#7B83DB"/>
</g>
<path d="M32.1237 48.9298C32.1237 48.9298 32.0937 48.9498 32.0637 48.9798C31.9437 49.0598 31.6937 49.1998 31.4237 49.2498C31.3637 49.2698 31.2837 49.2798 31.2137 49.2798C31.1437 49.2798 30.5837 49.2998 30.1737 48.6198L30.1537 48.5998C29.9937 48.3498 29.8437 48.0898 29.6937 47.8098C29.4137 47.3098 29.1737 46.7898 29.0137 46.2798C28.9637 46.1498 28.9437 46.0298 28.9137 45.8998C28.8737 45.7598 28.8537 45.6398 28.8437 45.4998C28.8037 45.1898 28.8037 44.3098 28.8737 43.5898C28.8737 43.7998 28.9037 46.2198 29.5137 47.1098C30.0537 47.9098 30.3437 49.1098 31.4737 49.0398C31.6337 49.0398 31.7937 49.0198 31.9837 48.9598C31.9837 48.9598 31.9903 48.9565 32.0037 48.9498C32.0037 48.9498 32.1137 48.9398 32.1537 48.9298H32.1237Z" fill="#A6631C"/>
<path d="M29.0337 40.9096C29.6337 39.5096 30.5537 38.7496 31.8337 37.9396C32.3137 37.6396 32.6837 37.8096 32.6037 37.9396C32.2937 38.5096 31.6137 38.8396 31.2337 39.1096C29.1437 40.6196 28.4337 44.0796 28.9937 46.2696C28.9937 46.2696 27.9937 43.3296 29.0237 40.8996L29.0337 40.9096Z" fill="#B57633"/>
<path d="M32.5537 38.04C32.5537 38.04 32.4637 38.33 32.2337 38.58C32.0037 38.83 31.3637 39.07 31.2737 39.12C30.6137 39.48 29.0837 41.42 28.8737 43.82C28.8737 43.82 28.8737 42.08 29.7637 40.69C30.6537 39.3 31.3537 38.93 31.6537 38.77C31.9537 38.61 32.3537 38.41 32.5537 38.04Z" fill="#A6631C"/>
<path d="M7.61375 21.3898C7.61375 21.3898 6.16373 20.4698 5.78373 22.8798C5.78373 22.8798 1.34373 23.1598 1.06373 27.6998C0.993734 28.7698 1.17376 29.5198 1.49376 30.0498C0.573757 29.6698 -0.106254 28.7298 0.0137459 26.7498C0.303746 22.0698 4.88374 21.7798 4.88374 21.7798C5.27374 19.2998 6.76375 20.2498 6.76375 20.2498C6.32375 18.2098 7.53374 16.9598 8.63374 16.2598C9.75374 16.7398 10.8137 16.8198 10.9237 16.8298C10.7337 16.8898 6.89375 18.0698 7.61375 21.3998V21.3898Z" fill="#F2E06B"/>
<path d="M53.6937 15.6104C54.5037 13.3404 55.1137 9.11041 49.3837 7.27041C49.3837 7.27041 48.7437 4.9004 45.9837 5.5604C45.9837 5.5604 45.7837 2.26041 41.0737 2.19041C36.3537 2.11041 34.4138 4.20041 33.9338 5.69041C33.9338 5.69041 32.3937 5.07041 31.0437 5.64041C29.6937 6.20041 29.4038 7.01041 29.4038 7.01041C29.4038 7.01041 28.9338 6.39041 27.6838 6.38041C26.4338 6.38041 25.9038 7.04041 25.9038 7.04041C25.9038 7.04041 24.7437 2.7404 19.1737 2.4204C13.6037 2.1004 11.9537 5.66041 11.9537 5.66041C11.9537 5.66041 10.3037 5.32041 9.61375 6.22041C8.93375 7.13041 8.87373 8.20041 8.87373 8.20041C8.87373 8.20041 5.63373 9.0504 5.97373 12.8104C6.01373 13.2004 6.09375 13.5604 6.21375 13.8804C5.62375 13.2904 5.17374 12.4904 5.07374 11.4004C4.72374 7.52041 8.06373 6.65041 8.06373 6.65041C8.06373 6.65041 8.12375 5.54041 8.83375 4.61041C9.54375 3.68041 11.2337 4.03041 11.2337 4.03041C11.2337 4.03041 12.9438 0.360409 18.6838 0.690409C24.4238 1.02041 25.6237 5.45041 25.6237 5.45041C25.6237 5.45041 26.1637 4.76041 27.4537 4.77041C28.7437 4.77041 29.2237 5.4204 29.2237 5.4204C29.2237 5.4204 29.5237 4.59041 30.9137 4.01041C32.3137 3.43041 33.8937 4.0604 33.8937 4.0604C34.3937 2.5204 36.3937 0.370411 41.2637 0.450411C46.1237 0.530411 46.3337 3.93041 46.3337 3.93041C49.1737 3.25041 49.8437 5.69041 49.8437 5.69041C57.2837 8.08041 54.3637 14.3804 53.7037 15.6204L53.6937 15.6104Z" fill="#FFEC71"/>
<path d="M58.1337 26.64C58.1337 26.64 60.9237 22.62 57.1237 20.2C57.8737 19.44 58.3337 18.45 58.3337 17.35C58.3337 15.19 56.5437 13.4 54.2037 13.08C54.2737 10.96 53.3437 8.54 49.3837 7.27C49.3837 7.27 48.7437 4.9 45.9837 5.56C45.9837 5.56 45.7837 2.26 41.0737 2.19C40.1137 2.17 39.2837 2.25 38.5437 2.39C37.7237 1.02 36.0937 0.090004 34.2237 0.090004C32.7637 0.090004 31.4637 0.660003 30.5637 1.55C29.6637 0.600003 28.3237 0 26.8237 0C24.6137 0 22.7437 1.3 22.1437 3.09C21.3237 2.74 20.3537 2.49 19.1637 2.42C13.5937 2.1 11.9437 5.66 11.9437 5.66C11.9437 5.66 10.2937 5.32 9.60373 6.22C8.92373 7.13 8.86374 8.2 8.86374 8.2C8.86374 8.2 5.62375 9.05 5.96375 12.81C6.00375 13.2 6.08374 13.56 6.20374 13.88C6.24374 13.98 6.28374 14.07 6.33374 14.16C3.76374 14.29 1.72373 16.17 1.72373 18.48C1.72373 20.63 3.49372 22.41 5.81372 22.75C5.81372 22.8 5.79372 22.84 5.78372 22.89C5.78372 22.89 1.34372 23.17 1.06372 27.71C0.993721 28.78 1.17374 29.53 1.49374 30.06C2.73374 30.57 4.39373 30.08 5.01373 29.8C5.01373 29.8 4.58374 30.33 4.77374 31.01C4.86374 31.32 5.07372 31.66 5.50372 32C5.59372 32.07 5.70372 32.13 5.81372 32.17C6.63372 32.49 7.93372 32.17 8.09372 31.91C8.09372 31.91 7.96373 32.45 8.19373 33.02C8.31373 33.32 8.52374 33.63 8.89374 33.87L9.08374 33.98C10.2337 34.68 12.3537 35.64 14.6237 33.23C14.6237 33.23 19.6137 31.91 20.5937 29.03C21.5737 26.14 21.4137 25.52 21.1537 25.02C21.1537 25.02 22.9937 25.75 23.9637 24.56C24.9337 23.36 25.3837 25.03 26.2337 25.44C28.3537 26.46 28.1237 25.44 29.9137 25.38C30.7637 25.35 31.4037 28.32 34.2737 25.81C34.2737 25.81 35.4937 26.62 36.5337 25.56C36.5337 25.56 37.0537 28.29 38.6737 28.53C38.6737 28.53 39.6237 29.85 41.4437 28.81C41.4437 28.81 41.9337 32.37 47.7137 32.32C47.7137 32.32 47.5437 34.54 50.1937 34.62C52.0837 34.68 52.4837 33.62 52.4837 33.62C52.4837 33.62 55.7637 35.86 57.9737 33.84L58.0937 33.73C60.2037 31.74 60.6837 29.57 58.1237 26.65L58.1337 26.64Z" fill="#F0DB54"/>
<path d="M20.7738 8.19973C20.5838 6.54973 18.5237 6.04973 17.0037 6.62973C15.7737 7.10973 14.6738 8.21973 14.6438 9.42973C13.5538 8.97973 12.1338 9.41973 11.5138 10.3997C10.6438 11.7697 11.3638 13.3697 12.6438 14.3097C13.0038 14.5697 13.5038 14.1197 13.1438 13.8597C12.1838 13.1597 11.4938 12.0197 12.0138 10.9197C12.5038 9.90973 14.0238 9.47973 14.8838 10.3997C15.1138 10.6497 15.6038 10.3697 15.4838 10.0797C15.0238 8.96973 15.9337 7.84973 17.0037 7.32973C18.0337 6.82973 19.8938 6.86973 20.0438 8.20973C20.0938 8.60973 20.8138 8.60973 20.7638 8.19973H20.7738Z" fill="#FFEC71"/>
<path d="M26.3337 17.0797C25.9637 16.7097 25.6137 16.2197 25.1137 15.9797C24.6037 15.7297 23.9837 15.7797 23.4437 15.9297C22.9237 16.0697 22.4437 16.2497 22.2137 16.7097C22.1437 16.8397 22.0837 16.9797 22.0337 17.1097C21.9137 16.8497 21.7437 16.6097 21.4937 16.4097C20.9537 15.9797 20.1937 15.8797 19.5737 16.2297C19.0137 16.5497 18.6737 17.1097 18.6437 17.6897C18.6037 18.4097 18.9737 19.0897 19.3937 19.6897C19.6437 20.0397 20.2637 19.7097 20.0137 19.3597C19.5037 18.6497 18.9437 17.5497 19.8137 16.8697C20.1937 16.5797 20.6637 16.5897 21.0237 16.8997C21.4737 17.2697 21.5637 17.8597 21.6437 18.3797C21.6937 18.7097 22.2537 18.8297 22.3537 18.4497C22.4537 18.0497 22.5737 17.6597 22.7337 17.2797C22.8137 17.0897 22.8737 16.8797 23.0637 16.7597C23.2237 16.6497 23.4637 16.5997 23.6537 16.5497C24.0637 16.4397 24.5537 16.3697 24.9137 16.6297C25.2637 16.8897 25.5437 17.2397 25.8437 17.5397C26.1537 17.8497 26.6537 17.3897 26.3437 17.0897L26.3337 17.0797Z" fill="#FFEC71"/>
<path d="M10.2437 29.7901C9.87373 29.6701 9.47373 29.4801 9.42373 29.1001C9.37373 28.6801 9.69372 28.3001 9.95372 27.9701C10.1737 27.6801 9.74372 27.4101 9.45372 27.5401C9.20372 27.6501 8.94373 27.7401 8.67373 27.8201C8.46373 27.8801 8.13374 27.9701 7.93374 27.8501C7.64374 27.6701 7.86374 27.1801 7.93374 26.9601C7.99374 26.8001 7.85373 26.6001 7.67373 26.5701C7.38373 26.5201 6.89372 26.4701 6.82372 26.1501C6.76372 25.8701 7.01371 25.5801 7.25371 25.4301C7.76371 25.0901 8.47372 25.1001 8.98372 25.4301C9.14372 25.5301 9.38371 25.4501 9.47371 25.3101C9.58371 25.1501 9.49373 24.9801 9.33373 24.8801C8.53373 24.3501 7.31373 24.4601 6.61373 25.0801C6.24373 25.4001 5.99374 25.9101 6.15374 26.3701C6.29374 26.7901 6.70373 26.9901 7.14373 27.1101C7.03373 27.5601 7.04371 28.0601 7.50371 28.3601C7.88371 28.6001 8.36372 28.5801 8.82372 28.4601C8.70372 28.7401 8.65372 29.0301 8.73372 29.3401C8.87372 29.9301 9.47373 30.2201 10.0537 30.4201C10.2337 30.4801 10.4437 30.3401 10.4937 30.1901C10.5437 30.0101 10.4137 29.8601 10.2337 29.8001L10.2437 29.7901Z" fill="#FFEC71"/>
<path d="M9.04373 16.89C8.23373 16.79 7.36374 17.14 6.77374 17.77C6.24374 18.35 6.00375 19.17 6.15375 19.87C6.19375 20.04 6.32374 20.17 6.52374 20.13C6.69374 20.1 6.87374 19.91 6.83374 19.74C6.71374 19.21 6.86374 18.63 7.26374 18.18C7.68374 17.71 8.33373 17.5 8.91373 17.57C9.09373 17.59 9.28372 17.43 9.31372 17.26C9.34372 17.07 9.21372 16.93 9.03372 16.91L9.04373 16.89Z" fill="#FFEC71"/>
<path d="M39.9237 11.5096C39.6137 11.2396 39.1537 11.0996 38.7137 11.1396C37.9937 11.2096 37.5037 11.6096 37.0537 12.0596C37.0337 11.9296 36.9937 11.7896 36.9137 11.6696C36.6637 11.2396 36.1537 11.0496 35.6237 11.0996C35.1437 11.1396 34.6737 11.3496 34.4437 11.7396C34.2137 12.1296 34.2837 12.5896 34.6037 12.9196C34.9137 13.2296 35.4137 12.7696 35.1037 12.4696C34.9737 12.3396 34.9937 12.1196 35.1037 11.9796C35.2537 11.7996 35.5337 11.7296 35.7737 11.7396C36.5137 11.7596 36.3437 12.5096 36.2237 12.9296C36.1337 13.2396 36.5737 13.4596 36.8337 13.2296C37.3437 12.7696 37.7437 12.1096 38.4437 11.8596C38.7037 11.7596 38.9837 11.7496 39.2437 11.8596C39.5537 12.0096 39.5637 12.2496 39.5137 12.5396C39.4437 12.9396 40.1437 13.0996 40.2137 12.6996C40.2937 12.2596 40.2837 11.8496 39.9037 11.5196L39.9237 11.5096Z" fill="#FFEC71"/>
<path d="M51.9737 24.2299C50.9637 23.7499 49.6737 23.7499 48.5537 24.0799C48.5337 23.8899 48.4637 23.6999 48.2937 23.5699C47.8937 23.2499 47.2637 23.2199 46.6837 23.3299C47.0037 22.7599 47.2137 22.1299 46.6037 21.6399C45.7837 20.9799 44.6637 21.5699 44.3037 22.3399C44.1237 22.7099 44.7537 23.0299 44.9337 22.6499C45.0437 22.4199 45.1937 22.1799 45.4537 22.0599C45.7437 21.9299 46.1337 21.9899 46.2437 22.2799C46.4337 22.7799 45.8437 23.3499 45.6237 23.7699C45.4737 24.0499 45.7937 24.3799 46.1237 24.1999C46.5537 23.9699 47.0537 23.8599 47.5537 23.9599C48.0337 24.0499 47.8637 24.2799 47.6037 24.4699C47.4637 24.5399 47.3237 24.6199 47.1937 24.6999C46.8237 24.9399 47.1437 25.4299 47.5637 25.2499C47.7537 25.1599 47.9537 25.0699 48.1237 24.9499C49.0937 24.4999 50.2237 24.3799 51.2837 24.6699C51.6237 24.7599 51.9137 24.8599 51.8337 25.2199C51.7637 25.4999 51.5437 25.7599 51.3737 25.9899C50.9437 26.5499 50.4237 27.0499 49.8637 27.5099C49.5237 27.7899 50.0337 28.2299 50.3737 27.9599C51.1637 27.3299 53.7537 25.0799 51.9937 24.2399L51.9737 24.2299Z" fill="#FFEC71"/>
<path d="M44.8737 6.62965C43.5837 6.18965 42.1237 6.46965 41.1137 7.29965C40.7737 7.57965 41.2837 8.01965 41.6237 7.74965C42.3837 7.12965 43.4537 6.90964 44.4437 7.16964C45.2837 7.39964 46.6237 8.28964 45.9337 9.16964C45.6737 9.50964 46.2937 9.81965 46.5637 9.47965C47.4837 8.30965 46.0537 7.02965 44.8737 6.62965Z" fill="#FFEC71"/>
<path d="M31.6538 9.60934C31.4138 9.05934 30.7037 9.02934 30.1337 9.14934C29.0337 9.37934 28.3637 10.1893 27.9237 11.0493C27.8437 10.9593 27.7637 10.8693 27.6737 10.7793C27.4737 10.5793 27.2338 10.3693 26.9038 10.4093C26.6838 10.4393 26.5437 10.5693 26.4737 10.7393C26.3737 10.5793 26.2637 10.4293 26.1437 10.2893C25.7837 9.86934 25.1637 9.84934 24.6637 10.0993C23.5537 10.6693 23.6938 11.8993 23.9038 12.8493C23.9938 13.2493 24.6837 13.0693 24.5937 12.6693C24.4537 12.0393 24.2537 11.1393 24.9537 10.6893C25.0837 10.6093 25.2637 10.5293 25.4237 10.5793C25.6137 10.6393 25.7338 10.8993 25.8338 11.0593C26.0538 11.4093 26.2637 11.7593 26.4437 12.1293C26.6037 12.4393 27.1037 12.2493 27.1137 11.9593C27.1137 11.7793 27.1137 11.6093 27.1137 11.4293C27.1137 11.3793 27.1037 11.2693 27.1037 11.1693C27.1937 11.2593 27.2737 11.3593 27.3137 11.3993C27.4537 11.5393 27.5737 11.6993 27.6937 11.8593C27.8737 12.0993 28.2437 12.0293 28.3537 11.7693C28.6637 11.0293 29.0937 10.2393 29.9437 9.87934C30.2137 9.76934 30.8737 9.55934 31.0037 9.89934C31.1637 10.3093 31.1037 10.8393 31.0037 11.2493C30.9037 11.6493 31.6037 11.8093 31.7037 11.4093C31.8337 10.8493 31.8938 10.1593 31.6538 9.60934Z" fill="#FFEC71"/>
<path d="M38.3937 21.5497C38.1237 21.4797 37.8337 21.4797 37.5437 21.4997C37.6937 21.3197 37.8037 21.1297 37.8237 20.8797C37.8637 20.4197 37.5137 20.0197 36.9837 19.9997C35.8937 19.9597 34.8737 20.6497 34.0537 21.1997C33.8937 21.2997 33.8237 21.4797 33.9337 21.6397C34.0237 21.7797 34.2737 21.8497 34.4237 21.7497C35.0737 21.3097 35.7637 20.8497 36.5737 20.6797C36.6937 20.6597 36.9537 20.5797 37.0637 20.6597C37.1437 20.7097 37.1237 20.8397 37.1137 20.9197C37.0837 21.0697 36.9637 21.1897 36.8537 21.2897C36.6937 21.4497 36.5437 21.5997 36.4037 21.7697C36.2537 21.9597 36.4637 22.2797 36.7237 22.2497C37.1137 22.1997 37.5137 22.1397 37.9137 22.1497C38.2137 22.1497 38.4637 22.2097 38.3737 22.5197C38.2837 22.8297 38.0537 23.1097 37.8037 23.3397C37.6737 23.4597 37.5337 23.5697 37.3837 23.6697L36.9537 23.9197C36.5437 23.7397 36.1837 24.2897 36.6037 24.4697C37.1637 24.7197 37.7337 24.2697 38.1337 23.9497C38.5637 23.6097 38.9437 23.1797 39.0837 22.6797C39.2337 22.1797 38.9837 21.7297 38.4137 21.5797L38.3937 21.5497Z" fill="#FFEC71"/>
<path d="M50.2537 18.3698C50.4937 18.2098 50.7137 18.0298 50.9137 17.8298C51.2537 17.4798 51.5737 17.0498 51.4937 16.5698C51.3137 15.4798 49.5937 15.6498 48.7137 15.8098C48.2637 15.8898 48.4637 16.4998 48.9137 16.4198C49.3237 16.3498 49.7337 16.3198 50.1537 16.3598C50.4737 16.3898 50.8337 16.4198 50.7937 16.7798C50.7537 17.0998 50.4237 17.3898 50.1837 17.5998C49.9137 17.8298 49.6137 18.0298 49.2937 18.1898C49.0037 18.3398 49.1037 18.6898 49.3937 18.7698C49.7737 18.8798 50.1437 19.0198 50.5037 19.1898C50.7937 19.3298 50.9337 19.4998 50.7437 19.7798C50.4337 20.2298 49.7337 20.6498 49.1337 20.6798C48.6737 20.6998 48.6837 21.3398 49.1537 21.3198C49.6537 21.2898 50.1137 21.1198 50.5137 20.8598C50.9037 20.6098 51.3037 20.2998 51.4837 19.8898C51.8137 19.1098 51.0337 18.6698 50.2737 18.3898L50.2537 18.3698Z" fill="#FFEC71"/>
<path d="M56.4137 31.3995C56.3537 31.1595 56.1337 30.9895 55.8637 30.9495C55.9437 30.8195 56.0237 30.6795 56.0737 30.5395C56.2237 30.1195 55.9537 29.7395 55.4937 29.6195C55.1237 29.5195 54.7037 29.5695 54.3337 29.6595C53.9237 29.7595 53.5537 29.9495 53.3237 30.2795C53.2237 30.4295 53.2937 30.6295 53.4637 30.7095C53.6437 30.7995 53.8537 30.7395 53.9537 30.5895C54.0037 30.5195 54.0837 30.4495 54.1837 30.3995C54.3037 30.3395 54.3637 30.3195 54.5037 30.2795C54.6537 30.2395 54.7637 30.2295 54.8937 30.2095H55.0737H55.1737H55.2237L55.3137 30.2295H55.3337L55.3937 30.2595V30.3095L55.3737 30.3695L55.3537 30.4195C55.2137 30.6995 55.0137 30.9395 54.7837 31.1595C54.6137 31.3195 54.6737 31.6595 54.9537 31.6895C55.1837 31.7195 55.3737 31.6795 55.5837 31.6095L55.7037 31.5795V31.6395L55.6837 31.6695L55.6637 31.6995L55.6037 31.7995C55.4837 31.9595 55.3237 32.1095 55.1537 32.2195C55.0037 32.3195 54.9237 32.4995 55.0337 32.6595C55.1237 32.7995 55.3737 32.8695 55.5237 32.7695C55.9737 32.4695 56.5637 31.9495 56.4137 31.3895V31.3995Z" fill="#FFEC71"/>
<path d="M17.9737 27.2798C17.8037 27.7498 17.5337 28.2698 17.1237 28.5998C16.9837 28.7198 16.8437 28.7398 16.7037 28.5998C16.5337 28.4298 16.5338 28.1598 16.5238 27.9398C16.5038 27.6498 16.0137 27.4898 15.8537 27.7898C15.6537 28.1698 15.2237 28.9398 14.6237 28.5298C14.3937 28.3698 14.2938 28.1198 14.2438 27.8798C14.2138 27.7398 14.2137 27.5998 14.2037 27.4598C14.2037 27.3998 14.2037 27.3298 14.2037 27.2698V27.1798C14.6437 27.1498 14.6137 26.5498 14.1637 26.5498C13.4737 26.5498 13.4638 27.2298 13.4938 27.6698C13.5338 28.1298 13.6637 28.5898 14.0337 28.9298C14.3937 29.2498 14.9238 29.3898 15.4038 29.2098C15.6538 29.1198 15.8437 28.9798 16.0037 28.8098C16.0437 28.8798 16.0837 28.9398 16.1337 28.9998C16.3937 29.2798 16.8138 29.4298 17.2138 29.2998C17.6038 29.1698 17.8638 28.8498 18.0838 28.5498C18.3438 28.2098 18.5338 27.8298 18.6738 27.4398C18.8138 27.0498 18.1137 26.8898 17.9737 27.2798Z" fill="#FFEC71"/>
<path d="M33.7938 17.6801C33.7738 17.3601 33.7838 16.9401 33.5738 16.6601C33.3738 16.3901 32.9738 16.2901 32.6838 16.4501C32.6238 16.0901 32.4338 15.6901 32.0438 15.5401C31.6238 15.3701 31.1838 15.5201 30.9038 15.8201C30.6138 16.1301 30.4538 16.5201 30.3438 16.9001C30.2738 17.1401 30.1938 17.4101 30.2538 17.6501C30.3238 17.9201 30.5738 18.1001 30.8838 18.1101C31.0738 18.1101 31.2438 17.9501 31.2338 17.7801C31.2338 17.6201 31.1038 17.5201 30.9438 17.4801V17.4601C30.9438 17.3901 30.9638 17.3101 30.9738 17.2401C31.0238 17.0401 31.0838 16.8501 31.1638 16.6601C31.2238 16.5201 31.2938 16.3901 31.3838 16.2701C31.4438 16.2001 31.5538 16.1101 31.6238 16.0901H31.7038L31.8138 16.1601C31.8938 16.2501 31.9438 16.4001 31.9738 16.5301C32.0538 16.8801 32.0438 17.2801 31.9938 17.6301C31.9338 18.0401 32.5238 18.1701 32.6938 17.7901C32.8038 17.5501 32.8938 17.3201 33.0138 17.0801V17.1301C33.0738 17.3701 33.0838 17.6201 33.0938 17.8601C33.0938 18.1201 33.0738 18.3601 32.9938 18.6101C32.9338 18.7701 33.0738 18.9601 33.2538 19.0001C33.4538 19.0401 33.6338 18.9301 33.6938 18.7701C33.8138 18.4201 33.8338 18.0501 33.8038 17.6801H33.7938Z" fill="#FFEC71"/>
<path d="M21.2138 11.7794C21.0838 11.3994 21.1837 11.0094 20.8737 10.6694C20.5837 10.3594 20.0837 10.2994 19.7537 10.5894C19.4637 10.8294 19.3938 11.2194 19.3338 11.5494C19.3038 11.7194 19.2838 11.8894 19.2738 12.0594C19.1938 12.0294 19.1037 11.9894 19.0137 11.9694C18.6137 11.8594 18.0837 11.7994 17.7237 12.0194C17.4637 12.1794 17.3137 12.4594 17.2837 12.7394C17.0237 12.6594 16.7637 12.6594 16.5137 12.7894C16.1337 12.9894 16.1637 13.4194 16.3137 13.7394C16.4737 14.0794 16.7538 14.3594 17.1138 14.5494C17.5138 14.7494 17.8738 14.1994 17.4638 13.9994C17.2838 13.9094 17.1437 13.7894 17.0437 13.6294C16.9937 13.5594 16.9638 13.4794 16.9338 13.3994V13.3494L17.0937 13.3794C17.1937 13.4194 17.2937 13.4694 17.3837 13.5194C17.5037 13.5894 17.6137 13.6794 17.7037 13.7794C17.7737 13.8594 17.8538 13.9494 17.9238 14.0294C18.1838 14.3094 18.7137 13.9394 18.4837 13.6394C18.4137 13.5494 18.3237 13.4494 18.2237 13.3494C18.1337 13.2394 18.0437 13.1094 18.0037 12.9794C17.9637 12.8394 17.9737 12.6394 18.1237 12.5494C18.2937 12.4494 18.6737 12.5494 18.8537 12.6094C19.0737 12.6794 19.2437 12.7794 19.3537 12.9694C19.5537 13.3094 20.0837 13.0494 20.0037 12.7194C19.9437 12.4494 19.9537 12.1694 19.9837 11.8994C20.0137 11.6694 20.0438 11.3994 20.1538 11.1894L20.2138 11.0894L20.2537 11.0594C20.3237 11.0794 20.3637 11.1694 20.3837 11.2194C20.4737 11.4594 20.4237 11.7294 20.5037 11.9694C20.6337 12.3594 21.3337 12.1894 21.1937 11.7894L21.2138 11.7794Z" fill="#E0C404"/>
<path d="M10.1538 13.2395C10.0838 13.2395 10.0038 13.2195 9.93375 13.1995L9.82374 13.1695H9.80375V13.1595L9.62372 13.0795L9.53373 13.0295L9.49375 12.9995C9.38375 12.9195 9.30375 12.8295 9.24375 12.7595L9.14374 12.5995V12.5795L9.12372 12.5595L9.09373 12.4695C9.05373 12.3495 9.04375 12.2895 9.05375 12.1595V12.0695L9.07374 12.0095C9.08374 11.9395 9.11373 11.8795 9.13373 11.8195C9.13373 11.7895 9.15373 11.7595 9.19373 11.6995L9.30375 11.5395L9.32374 11.5195L9.34373 11.4995L9.42374 11.4295L9.50373 11.3595L9.55375 11.3295C9.71375 11.2295 9.78374 11.0495 9.67374 10.8895C9.58374 10.7495 9.33375 10.6795 9.18375 10.7795C8.53375 11.1995 8.21373 11.9295 8.41373 12.6295C8.60373 13.2695 9.27374 13.7995 10.0137 13.8895C10.2037 13.9095 10.3937 13.8395 10.4537 13.6595C10.4937 13.5095 10.3837 13.2995 10.1937 13.2695L10.1538 13.2395Z" fill="#E0C404"/>
<path d="M27.2137 4.6596C26.9537 4.4696 26.6337 4.4196 26.3237 4.5196C26.2737 3.9696 26.0537 3.4196 25.4537 3.2696C25.0537 3.1696 24.6237 3.2896 24.3137 3.5396C23.9737 3.8096 23.8237 4.2296 23.7637 4.6196C23.7337 4.7896 23.8237 4.9596 24.0237 5.0096C24.1937 5.0496 24.4337 4.9496 24.4637 4.7796C24.5037 4.5296 24.5637 4.2596 24.7537 4.0596C24.8737 3.9396 25.0937 3.8396 25.2737 3.8996C25.4837 3.9696 25.5437 4.2596 25.5737 4.4396C25.6337 4.7196 25.6137 4.9996 25.5537 5.2796C25.4737 5.6196 26.0137 5.8396 26.2137 5.5096C26.2937 5.3796 26.3737 5.2196 26.5137 5.1396C26.6437 5.0696 26.7237 5.1196 26.8237 5.2196C27.0437 5.4496 27.1137 5.7796 27.0437 6.0696C26.9537 6.4696 27.6437 6.6296 27.7437 6.2296C27.8737 5.6796 27.7037 5.0396 27.2037 4.6696L27.2137 4.6596Z" fill="#E0C404"/>
<path d="M13.7638 6.18931C13.2338 6.01931 12.6238 5.99931 12.1838 6.36931C11.7238 6.75931 11.6938 7.33931 11.7138 7.85931C11.7138 8.02931 11.8838 8.17931 12.0838 8.16931C12.2738 8.15931 12.4438 8.01931 12.4338 7.83931C12.4338 7.72931 12.4338 7.60931 12.4338 7.49931V7.34931L12.4438 7.32931V7.30931L12.4638 7.22931L12.5038 7.07931L12.5238 7.03931V7.00931L12.6138 6.88931L12.6638 6.82931L12.7138 6.78931L12.7838 6.74931L12.9338 6.70931H13.0038H13.0838H13.1138H13.1538H13.2438C13.3438 6.73931 13.4438 6.76931 13.5438 6.79931C13.7238 6.85931 13.9438 6.72931 13.9838 6.56931C14.0238 6.38931 13.9138 6.23931 13.7238 6.17931L13.7638 6.18931Z" fill="#E0C404"/>
<path d="M39.2638 8.43919C39.2638 8.04919 39.2438 7.62919 39.0038 7.28919C38.7438 6.92919 38.2938 6.73919 37.8238 6.68919C37.2738 6.61919 36.5138 6.6292 35.9638 6.8792C35.8338 6.4992 35.5538 6.19919 35.0438 6.15919H34.9338C34.9938 5.61919 34.9138 5.08919 34.4838 4.63919C34.2038 4.34919 33.8038 4.1392 33.3638 4.1292C32.9138 4.1192 32.4538 4.36919 32.5738 4.81919C32.6638 5.16919 33.2138 5.07919 33.2638 4.77919H33.2838H33.4538C33.5738 4.79919 33.6738 4.84919 33.7738 4.91919C33.9738 5.05919 34.1238 5.25919 34.1838 5.47919C34.2938 5.83919 34.2338 6.20919 34.1338 6.56919C33.9838 6.76919 33.9138 7.01919 33.9638 7.26919C34.0238 7.59919 34.5638 7.52919 34.6538 7.25919C34.7038 7.12919 34.7438 6.98919 34.7838 6.84919C34.8638 6.79919 34.9638 6.77919 35.0438 6.79919C35.3838 6.89919 35.3738 7.33919 35.3238 7.58919C35.2538 7.98919 35.9238 8.14919 36.0238 7.74919C36.1538 7.20919 37.2738 7.24919 37.7538 7.31919C38.4638 7.41919 38.5438 7.90919 38.5438 8.45919C38.5438 8.86919 39.2638 8.85919 39.2638 8.44919V8.43919Z" fill="#E0C404"/>
<path d="M44.7937 18.2098C44.7737 17.8998 44.7537 17.4598 44.4537 17.2398C44.1237 16.9998 43.6337 17.1498 43.2737 17.2598C42.8537 17.3898 42.4737 17.5898 42.1337 17.8298L42.0537 17.8898C41.8737 17.8198 41.6437 17.8198 41.4237 17.8498C41.5337 17.5598 41.6137 17.2498 41.6437 16.9398C41.6937 16.4798 41.6137 15.9698 41.1237 15.7098C40.1637 15.1998 38.9037 15.8898 38.3437 16.5698C38.0737 16.8998 38.6937 17.2098 38.9737 16.8798C39.1737 16.6398 39.4437 16.4498 39.7537 16.3198C40.0337 16.2098 40.4937 16.0798 40.7737 16.2498C41.0437 16.4198 40.9537 16.8398 40.9137 17.0898C40.8437 17.4798 40.6937 17.8498 40.4837 18.2098C40.3137 18.4998 40.6637 18.7898 40.9837 18.6398C41.1237 18.5798 41.2637 18.5298 41.4237 18.4998C41.1337 18.8698 40.9637 19.2898 41.1937 19.6798C41.3037 19.8698 41.6037 19.8698 41.7637 19.7398C42.1137 19.4498 42.4937 18.8998 42.4637 18.4298C42.5637 18.3498 42.6637 18.2698 42.7837 18.1998C43.0237 18.0498 43.2737 17.9298 43.5537 17.8498C43.6737 17.8098 43.8737 17.7298 44.0137 17.7398C44.0537 17.7398 44.0037 17.6898 44.0437 17.7498L44.0937 17.9698C44.2737 19.0598 43.7737 20.1798 42.8437 20.9098C42.4937 21.1798 43.0137 21.6298 43.3537 21.3598C44.0137 20.8398 44.4837 20.1498 44.7037 19.3998C44.8137 19.0098 44.8637 18.5998 44.8337 18.1998L44.7937 18.2098Z" fill="#E0C404"/>
<path d="M47.7738 30.3794C47.3338 30.1494 46.8637 29.9794 46.3837 29.8594C46.5937 29.5894 46.6538 29.2394 46.4538 28.8894C46.0638 28.2194 45.2738 28.2394 44.5238 28.2894C44.8738 27.6194 44.9938 26.8194 44.2038 26.3494C43.3338 25.8294 42.1138 26.1894 41.4238 26.7794C41.0838 27.0594 41.6038 27.5094 41.9338 27.2294C42.3638 26.8594 43.1838 26.5594 43.7638 26.8594C44.4638 27.2294 43.8838 28.0894 43.5738 28.4894C43.4138 28.6994 43.6438 28.9694 43.8938 28.9694C44.4038 28.9694 45.0037 28.7794 45.5037 28.9694C45.7137 29.0394 45.8938 29.1894 45.8538 29.4094C45.8138 29.6294 45.5838 29.7294 45.3538 29.6794H45.2537C44.8537 29.6394 44.7838 30.2294 45.1738 30.3094L45.3538 30.3294C46.0938 30.4094 46.7938 30.6294 47.4338 30.9594C47.8338 31.1694 48.1937 30.6094 47.7837 30.4094L47.7738 30.3794Z" fill="#E0C404"/>
<path d="M56.2237 21.7795C56.1337 21.3595 55.6138 21.2695 55.2038 21.2195C54.7238 21.1595 54.2438 21.1695 53.7738 21.2595C53.5838 21.2995 53.4738 21.4995 53.5238 21.6495C53.5838 21.8295 53.7737 21.8995 53.9737 21.8695C54.3537 21.7995 54.7738 21.7995 55.1438 21.8595C55.2438 21.8795 55.3338 21.8995 55.4338 21.9195L55.5337 21.9495V21.9795V22.0795C55.5337 22.1495 55.5337 22.2195 55.5337 22.2895V22.3395L55.4938 22.4695C55.4738 22.5395 55.4538 22.5995 55.4238 22.6695L55.4038 22.7195L55.3537 22.8095C55.3137 22.8795 55.2737 22.9395 55.2237 22.9995L55.1937 23.0395L55.1738 23.0595L55.1037 23.1295L54.9238 23.2895L54.8737 23.3295L54.7638 23.3895C54.6938 23.4295 54.6138 23.4595 54.5438 23.4995C54.3638 23.5695 54.3238 23.7995 54.4238 23.9395C54.5338 24.0995 54.7437 24.1195 54.9137 24.0495C55.5337 23.7895 55.9838 23.2795 56.1738 22.6995C56.2738 22.4095 56.2938 22.0895 56.2338 21.7895L56.2237 21.7795Z" fill="#E0C404"/>
<path d="M24.6838 20.7293L24.5937 20.5993L24.5637 20.5593L24.4338 20.4493C24.2238 20.2893 23.9538 20.1893 23.6838 20.1293C23.2538 20.0293 22.7637 19.9893 22.3737 20.2093C22.0137 20.4193 21.8038 20.8193 21.9638 21.1893L21.9838 21.2193C21.0538 21.3893 20.1738 21.8193 19.5238 22.4393C19.2138 22.7393 19.7237 23.1893 20.0337 22.8893C20.8137 22.1393 21.9237 21.7393 23.0637 21.7793C23.4637 21.7893 23.5538 21.1993 23.1438 21.1493C23.0038 21.1293 22.7238 21.1093 22.6338 20.9793C22.5538 20.8593 22.7338 20.7393 22.8538 20.7093C23.0838 20.6493 23.3538 20.7093 23.5738 20.7693C23.7738 20.8193 23.9538 20.8893 24.0538 21.0593C24.2938 21.4193 24.8738 21.0993 24.6738 20.7293H24.6838Z" fill="#E0C404"/>
<path d="M14.8037 20.8799C14.1737 20.7799 13.5337 20.6699 12.8937 20.6699C12.5837 20.6699 12.2637 20.6899 11.9737 20.7899C11.6937 20.8899 11.4637 21.0699 11.2637 21.2799C10.8837 21.6699 10.5737 22.1699 10.6937 22.6999C10.8037 23.1899 11.2737 23.4799 11.7737 23.6299C12.0337 23.7099 12.3037 23.7599 12.5837 23.7899C12.9337 23.8299 13.2837 23.8299 13.6137 23.7199C13.7937 23.6599 13.9137 23.4999 13.8637 23.3299C13.8137 23.1799 13.6037 23.0499 13.4137 23.1099C13.0237 23.2399 12.5937 23.1699 12.2037 23.0899C11.8937 23.0199 11.5438 22.8999 11.4338 22.6699C11.2738 22.3699 11.5337 21.9999 11.7537 21.7699C11.8837 21.6299 12.0337 21.4799 12.2237 21.3999C12.4237 21.3199 12.6637 21.3199 12.8837 21.3199C13.4737 21.3199 14.0537 21.4099 14.6337 21.5099C14.8237 21.5399 15.0237 21.4499 15.0737 21.2799C15.1237 21.1199 15.0037 20.9299 14.8137 20.8899L14.8037 20.8799Z" fill="#E0C404"/>
<path d="M13.5238 32.4299C13.4138 32.2899 13.2038 32.2299 13.0338 32.3199C12.6838 32.4999 12.3938 32.6699 12.0038 32.7199H11.9038H11.7538H11.7438H11.6738L11.5338 32.6899H11.5038L11.4538 32.6599L11.4038 32.6299V32.6099C11.4238 32.5399 11.4338 32.4799 11.4638 32.4099V32.3799L11.4838 32.3699L11.5338 32.2699L11.5938 32.1799L11.6338 32.1199L11.7838 31.9699L11.8738 31.8999H11.8938L11.9238 31.8699C11.9938 31.8299 12.0638 31.7899 12.1338 31.7599C12.1438 31.7599 12.2638 31.7099 12.1838 31.7399L12.3038 31.6999C12.3838 31.6799 12.4638 31.6599 12.5438 31.6499C12.7338 31.6199 12.8438 31.3999 12.7938 31.2599C12.7238 31.0799 12.5438 31.0099 12.3438 31.0399C11.6838 31.1299 11.0938 31.5599 10.8338 32.1099C10.7538 32.2799 10.7038 32.4399 10.6838 32.6199C10.6638 32.8499 10.7938 33.0399 10.9938 33.1699C11.3338 33.3899 11.7838 33.4099 12.1838 33.3499C12.6238 33.2799 13.0238 33.0799 13.3938 32.8799C13.5538 32.7999 13.6238 32.5899 13.5138 32.4399L13.5238 32.4299Z" fill="#E0C404"/>
<path d="M4.68375 27.7496C4.67375 27.5696 4.51373 27.4496 4.31373 27.4396C4.22373 27.4396 4.13374 27.4296 4.04374 27.4196H4.03373H3.98374L3.84373 27.3996C3.76373 27.3896 3.68374 27.3596 3.60374 27.3396H3.58375L3.56373 27.3196L3.44373 27.2596L3.40376 27.2296H3.39375L3.31373 27.1596H3.30375L3.28373 27.1196L3.24375 27.0496L3.22373 27.0196L3.19373 26.9396L3.17374 26.8696V26.8096V26.7196V26.6796L3.19373 26.6096V26.5696H3.20374L3.24375 26.4996L3.27375 26.4596L3.41373 26.3296L3.46375 26.2996L3.55375 26.2496L3.64375 26.2096L3.70374 26.1896C3.85374 26.1396 4.01373 26.0996 4.16373 26.0696C4.34373 26.0296 4.46373 25.8296 4.41373 25.6796C4.34373 25.5096 4.16375 25.4196 3.96375 25.4596C3.34375 25.5896 2.71375 25.8496 2.49375 26.4196C2.28375 26.9596 2.58376 27.5896 3.15376 27.8596C3.52376 28.0296 3.93373 28.0596 4.34373 28.0796C4.53373 28.0896 4.70373 27.9196 4.69373 27.7496H4.68375Z" fill="#E0C404"/>
<path d="M53.0537 12.9896C53.0237 12.2996 52.3337 12.0296 51.6337 11.9496C51.6937 11.7396 51.6737 11.5096 51.5737 11.3096C51.3137 10.7996 50.6437 10.5896 50.0537 10.5696C49.3137 10.5596 48.6037 10.8896 48.2137 11.3996C47.9137 10.9596 47.4637 10.6396 46.7937 10.6696C46.2937 10.6896 45.8837 10.9996 45.7137 11.4096C45.5137 11.8996 45.6837 12.4196 45.9637 12.8496C46.1937 13.1996 46.8137 12.8796 46.5837 12.5196C46.4137 12.2596 46.2637 11.9496 46.3737 11.6496C46.4837 11.3696 46.7637 11.2496 47.0837 11.3396C47.6137 11.4896 47.8037 11.9896 47.9237 12.4396C47.9337 12.5396 47.9637 12.6496 48.0037 12.7596C48.1537 13.1496 48.7937 12.9796 48.6937 12.5796C48.4337 11.9096 49.0237 11.3296 49.7537 11.2296C50.0737 11.1896 50.4537 11.2096 50.7237 11.3796C50.9537 11.5296 51.0537 11.8496 50.7537 11.9696C50.4237 12.1096 50.6037 12.5796 50.9437 12.5596C51.4237 12.5396 52.4437 12.5396 52.3137 13.1696C52.2137 13.6396 51.7537 13.9996 51.2937 14.1996C50.8737 14.3796 51.2437 14.9196 51.6637 14.7496C52.3937 14.4396 53.0837 13.7496 53.0537 12.9896Z" fill="#E0C404"/>
<path d="M44.0037 4.13949C43.7937 3.73949 43.2937 3.70949 42.8437 3.72949C42.4637 3.74949 42.0737 3.81949 41.7437 3.99949L41.7137 3.95949C41.4537 3.64949 41.0237 3.48949 40.5937 3.47949C39.6637 3.47949 39.0237 4.29949 39.1037 5.07949C39.1237 5.24949 39.2637 5.39949 39.4737 5.38949C39.6537 5.38949 39.8437 5.23949 39.8237 5.05949C39.7837 4.67949 39.9837 4.18949 40.4737 4.11949C40.6637 4.08949 40.8837 4.13949 41.0437 4.23949C41.1037 4.27949 41.1737 4.34949 41.2137 4.42949C41.0837 4.60949 41.0237 4.80949 41.1437 5.02949C41.2437 5.21949 41.5637 5.21949 41.7137 5.08949C41.8537 4.95949 41.9237 4.79949 41.9537 4.63949C42.0437 4.57949 42.1437 4.52949 42.1937 4.49949C42.4137 4.39949 42.6737 4.36949 42.9237 4.35949C43.0737 4.35949 43.3537 4.30949 43.3937 4.44949C43.4537 4.64949 43.2737 4.91949 43.2437 5.11949C43.2137 5.28949 43.3037 5.45949 43.5037 5.50949C43.6737 5.54949 43.9137 5.44949 43.9437 5.27949C44.0037 4.88949 44.2337 4.52949 44.0237 4.14949L44.0037 4.13949Z" fill="#E0C404"/>
</svg>
