<svg width="65" height="75" viewBox="0 0 65 75" fill="none" xmlns="http://www.w3.org/2000/svg">
<path d="M14.3637 42.1602C14.3637 42.1602 18.2333 49.0294 23.7727 44.3C23.7727 44.3 28.3622 44.5699 29.1921 39.9304C29.1921 39.9304 31.9318 40.1604 32.0317 37.2907C32.0317 37.2907 33.7615 40.5304 35.7713 38.4606C35.7713 38.4606 37.6711 40.0904 40.8108 38.9305C40.8108 38.9305 40.3808 40.6004 42.8805 41.4003C45.3803 42.2002 46.4802 40.0004 46.4802 40.0004C46.4802 40.0004 47.95 41.5703 49.7498 41.1303C51.1196 40.8003 51.6596 39.8604 51.5896 38.5606C51.5896 38.5606 55.3891 40.9303 56.589 36.1909C57.7889 31.4514 53.8493 28.0818 53.8493 28.0818L26.4924 25.582L14.3637 42.1602Z" fill="#6A9430"/>
<path d="M10.7941 28.9116C10.7941 28.9116 12.3039 36.6507 19.0532 33.891C19.0532 33.891 23.3227 35.5908 25.5725 31.4413C25.5725 31.4413 28.0922 32.5212 29.0921 29.8315C29.0921 29.8315 29.722 33.4511 32.2717 32.1112C32.2717 32.1112 33.5616 34.261 36.9112 34.141C36.9112 34.141 35.9713 35.5908 38.1011 37.1307C40.2309 38.6705 41.9606 36.9307 41.9606 36.9307C41.9606 36.9307 42.8605 38.8905 44.7103 39.0304C46.1102 39.1404 46.9201 38.4305 47.2601 37.1706C47.2601 37.1706 50.1298 40.6103 52.7595 36.4907C55.3892 32.3712 52.7095 27.9317 52.7095 27.9317L27.5223 16.9629L10.8041 28.8916L10.7941 28.9116Z" fill="#5B8029"/>
<path d="M17.2534 37.3707C17.2534 37.3707 22.3828 43.37 26.8923 37.6507C26.8923 37.6507 31.4418 37.0307 31.3618 32.3113C31.3618 32.3113 34.0915 32.0113 33.6316 29.1816C33.6316 29.1816 35.9613 32.0213 37.5211 29.6016C37.5211 29.6016 39.7009 30.8414 42.5506 29.0816C42.5506 29.0816 42.4506 30.8014 45.0603 31.1014C47.67 31.4014 48.3199 29.0316 48.3199 29.0316C48.3199 29.0316 50.0697 30.2915 51.7496 29.5116C53.0294 28.9216 53.3694 27.9018 53.0494 26.6319C53.0494 26.6319 57.2389 28.2217 57.4989 23.3423C57.7589 18.4628 53.2494 15.9131 53.2494 15.9131L25.9224 18.7428L17.2334 37.3507L17.2534 37.3707Z" fill="#5B8029"/>
<path d="M20.793 40.7903C20.793 40.7903 23.6627 40.1904 27.2023 41.9202C30.7419 43.65 33.6716 45.3198 34.2715 48.1295C34.8714 50.9292 34.2715 74.3466 34.2715 74.3466C34.2715 74.3466 37.6711 75.4765 40.2808 74.7466C40.2808 74.7466 37.7411 52.599 37.5411 46.6597C37.3412 40.7204 42.8806 34.921 42.8806 34.921L43.2105 33.0512H41.8807C41.8807 33.0512 42.0606 33.1912 41.3807 34.581C40.7008 35.9709 39.5909 37.3407 38.391 38.4106C38.391 38.4106 37.7211 35.5109 38.2911 31.1014C38.861 26.6919 36.7612 29.4316 36.7612 29.4316C36.7612 29.4316 37.1312 31.1014 37.0612 32.1313C36.9912 33.1612 37.3612 39.1005 36.9912 39.7005C36.6212 40.3004 35.8613 39.2005 35.7613 36.5308C35.6614 33.8611 36.0613 29.2616 36.0613 29.2616L34.4915 29.3916C34.4915 29.3916 35.3214 34.4611 35.1614 36.2309C35.1614 36.2309 34.9914 35.031 34.1615 33.5612C33.3316 32.0913 32.2217 31.8613 32.2217 31.8613L31.8218 32.3913C31.8218 32.3913 33.0516 33.5911 33.5216 34.591C33.9915 35.5909 35.4914 39.9604 35.4614 41.4303C35.4314 42.9001 35.4614 43.6 33.9915 42.8301C32.5217 42.0602 30.7519 39.9304 29.892 39.4605C29.0321 38.9905 28.5221 34.3911 30.122 31.6214C31.7218 28.8517 29.2521 28.9217 29.2521 28.9217C29.2521 28.9217 29.882 30.7215 29.422 31.7913C28.9621 32.8612 28.4921 34.3611 28.2522 34.3911C28.0122 34.4211 27.8522 32.6912 27.9522 30.3515C28.0522 28.0118 25.9124 27.3818 25.9124 27.3818C25.9124 27.3818 26.7123 29.8516 26.8423 31.9513C26.9723 34.0511 28.2122 38.0207 27.2423 39.2605C26.2724 40.5004 23.3727 39.2305 21.003 39.2605C18.6332 39.2905 20.783 40.7803 20.783 40.7803L20.793 40.7903Z" fill="#8C5112"/>
<mask id="mask0_181_16103" style="mask-type:luminance" maskUnits="userSpaceOnUse" x="19" y="27" width="25" height="48">
<path d="M20.793 40.7903C20.793 40.7903 23.6627 40.1904 27.2023 41.9202C30.7419 43.65 33.6716 45.3198 34.2715 48.1295C34.8714 50.9292 34.2715 74.3466 34.2715 74.3466C34.2715 74.3466 37.6711 75.4765 40.2808 74.7466C40.2808 74.7466 37.7411 52.599 37.5411 46.6597C37.3412 40.7204 42.8806 34.921 42.8806 34.921L43.2105 33.0512H41.8807C41.8807 33.0512 42.0606 33.1912 41.3807 34.581C40.7008 35.9709 39.5909 37.3407 38.391 38.4106C38.391 38.4106 37.7211 35.5109 38.2911 31.1014C38.861 26.6919 36.7612 29.4316 36.7612 29.4316C36.7612 29.4316 37.1312 31.1014 37.0612 32.1313C36.9912 33.1612 37.3612 39.1005 36.9912 39.7005C36.6212 40.3004 35.8613 39.2005 35.7613 36.5308C35.6614 33.8611 36.0613 29.2616 36.0613 29.2616L34.4915 29.3916C34.4915 29.3916 35.3214 34.4611 35.1614 36.2309C35.1614 36.2309 34.9914 35.031 34.1615 33.5612C33.3316 32.0913 32.2217 31.8613 32.2217 31.8613L31.8218 32.3913C31.8218 32.3913 33.0516 33.5911 33.5216 34.591C33.9915 35.5909 35.4914 39.9604 35.4614 41.4303C35.4314 42.9001 35.4614 43.6 33.9915 42.8301C32.5217 42.0602 30.7519 39.9304 29.892 39.4605C29.0321 38.9905 28.5221 34.3911 30.122 31.6214C31.7218 28.8517 29.2521 28.9217 29.2521 28.9217C29.2521 28.9217 29.882 30.7215 29.422 31.7913C28.9621 32.8612 28.4921 34.3611 28.2522 34.3911C28.0122 34.4211 27.8522 32.6912 27.9522 30.3515C28.0522 28.0118 25.9124 27.3818 25.9124 27.3818C25.9124 27.3818 26.7123 29.8516 26.8423 31.9513C26.9723 34.0511 28.2122 38.0207 27.2423 39.2605C26.2724 40.5004 23.3727 39.2305 21.003 39.2605C18.6332 39.2905 20.783 40.7803 20.783 40.7803L20.793 40.7903Z" fill="white"/>
</mask>
<g mask="url(#mask0_181_16103)">
<path opacity="0.44" d="M37.7111 42.2399C36.5112 45.1096 36.0413 50.779 36.3813 55.7184C36.7212 60.6579 37.8011 73.6465 39.1209 74.9563C40.4408 76.2662 44.7203 75.4663 44.7203 75.4663C44.7203 75.4663 37.6511 47.9093 38.711 44.1097C39.7809 40.3102 41.1807 37.0205 41.1807 37.0205C40.7508 37.2205 38.911 39.3803 37.7111 42.2399Z" fill="#A8743C"/>
<path opacity="0.44" d="M30.022 38.9102C30.022 38.9102 29.372 38.9802 29.922 40.3102C30.472 41.6402 34.062 44.5602 34.862 42.7502C35.662 40.9402 30.022 38.9102 30.022 38.9102Z" fill="#A8743C"/>
<path opacity="0.55" d="M24.4024 36.2203L18.3931 38.7901L19.7429 40.9198C19.7429 40.9198 26.5622 42.2597 27.4621 40.2599C28.362 38.2601 29.4619 33.0207 30.1318 32.9907C30.8017 32.9607 32.6015 34.3206 33.4014 35.2604C34.2013 36.2003 35.7412 37.7302 36.2711 36.6603C36.801 35.5904 38.3109 32.0208 39.2408 32.8207C40.1707 33.6206 40.0407 36.1603 41.7405 37.4202C43.4403 38.6801 47.7798 36.0204 47.0799 32.6507C46.38 29.2811 39.8407 25.6415 37.8409 25.3116C35.8412 24.9816 23.0626 25.7415 23.0626 25.7415L24.3924 36.2203H24.4024Z" fill="#543A1E"/>
<path opacity="0.55" d="M33.1416 50.5391C33.1416 50.5391 35.6913 67.4572 36.0413 71.6067C36.3913 75.7563 35.7913 76.8561 35.3914 76.8061C34.9914 76.7561 30.7919 74.9563 30.7919 74.9563L33.1416 50.5391Z" fill="#543A1E"/>
</g>
<path d="M6.59456 34.2008C6.59456 34.2008 4.78477 33.4909 5.10474 36.4706C5.10474 36.4706 0.495243 37.9904 1.56512 43.4798C1.8151 44.7696 2.23505 45.6295 2.725 46.1695C1.63512 45.9595 0.635233 45.0296 0.165285 42.6299C-0.934593 36.9705 3.81487 35.4007 3.81487 35.4007C3.48491 32.331 5.3447 33.0709 5.3447 33.0709C4.26482 30.7612 5.16472 28.9314 6.12461 27.8115C7.45447 28.0815 8.60435 27.9015 8.72433 27.8815C8.53435 28.0015 4.83476 30.4412 6.59456 34.2208V34.2008Z" fill="#90C941"/>
<path d="M53.5894 15.0229C53.7694 12.1032 53.1394 6.89381 46.5202 6.21388C46.5202 6.21388 45.1303 3.56418 42.4106 5.08401C42.4106 5.08401 41.2108 1.20444 36.2013 2.36431C31.1819 3.52418 29.7621 6.54385 29.7021 8.44364C29.7021 8.44364 27.8823 8.11367 26.6224 9.15356C25.3625 10.1834 25.2926 11.2233 25.2926 11.2233C25.2926 11.2233 24.6126 10.6034 23.2828 10.9334C21.9529 11.2633 21.603 12.1932 21.603 12.1932C21.603 12.1932 19.0832 7.37376 13.0939 8.47363C7.10456 9.57351 6.43463 14.263 6.43463 14.263C6.43463 14.263 4.58485 14.293 4.1349 15.5528C3.68495 16.8127 3.94492 18.1126 3.94492 18.1126C3.94492 18.1126 0.775278 19.9924 2.26511 24.3919C2.42509 24.8518 2.61505 25.2518 2.83503 25.6017C2.03512 25.0518 1.31521 24.2119 0.885261 22.942C-0.644569 18.4025 2.62506 16.4727 2.62506 16.4727C2.62506 16.4727 2.3551 15.1329 2.82505 13.843C3.295 12.5432 5.19478 12.5032 5.19478 12.5032C5.19478 12.5032 5.8947 7.66372 12.064 6.53385C18.2333 5.39398 20.833 10.3634 20.833 10.3634C20.833 10.3634 21.203 9.40353 22.5729 9.06357C23.9427 8.72361 24.6426 9.36353 24.6426 9.36353C24.6426 9.36353 24.7126 8.29365 26.0125 7.22377C27.3123 6.15389 29.1821 6.49385 29.1821 6.49385C29.2521 4.52407 30.7219 1.42442 35.8914 0.22455C41.0608 -0.975317 42.3006 3.02424 42.3006 3.02424C45.1003 1.45441 46.5402 4.19411 46.5402 4.19411C55.1292 5.06401 53.9294 13.3631 53.6094 15.0129L53.5894 15.0229Z" fill="#90C941"/>
<path d="M61.5986 27.0014C61.5986 27.0014 63.7084 20.3121 56.9991 19.1423C56.9991 19.1423 57.0991 15.3327 53.5695 15.3027H53.5295C53.5295 15.3027 53.5495 15.2027 53.5895 15.0127C53.7695 12.0931 53.1396 6.88364 46.5203 6.20371C46.5203 6.20371 45.1305 3.55401 42.4108 5.07384C42.4108 5.07384 41.2109 1.19427 36.2015 2.35414C31.182 3.51401 29.7622 6.53368 29.7022 8.43347C29.7022 8.43347 27.8824 8.1035 26.6225 9.14339C25.3627 10.1733 25.2927 11.2132 25.2927 11.2132C25.2927 11.2132 24.6127 10.5932 23.2829 10.9232C21.953 11.2532 21.6031 12.183 21.6031 12.183C21.6031 12.183 19.0833 7.36358 13.094 8.46346C7.10468 9.56334 6.43475 14.2528 6.43475 14.2528C6.43475 14.2528 4.58497 14.2828 4.13502 15.5427C3.68507 16.8025 3.94504 18.1024 3.94504 18.1024C3.94504 18.1024 0.775397 19.9822 2.26523 24.3817C2.42521 24.8416 2.61517 25.2416 2.83515 25.5916C3.69505 26.9514 4.97492 27.5413 6.12479 27.7813C7.45464 28.0513 8.60452 27.8713 8.72451 27.8513C8.53453 27.9713 4.83493 30.411 6.59474 34.1906C6.59474 34.1906 4.78495 33.4807 5.10491 36.4604C5.10491 36.4604 0.495416 37.9802 1.5653 43.4696C1.81527 44.7594 2.23523 45.6193 2.72517 46.1593C4.19501 46.4392 5.79482 45.4094 6.37476 44.9194C6.37476 44.9194 6.08481 45.6693 6.48476 46.4292C6.66474 46.7792 6.99468 47.1292 7.55462 47.4191C7.67461 47.4791 7.8046 47.5191 7.93458 47.5391C8.89448 47.6991 10.1843 46.9692 10.2743 46.6192C10.2743 46.6192 10.3043 47.2991 10.7143 47.9191C10.9243 48.249 11.2442 48.559 11.7142 48.739C11.7842 48.769 11.8642 48.799 11.9542 48.829C13.384 49.3589 15.9137 49.9389 17.5935 46.4592C17.5935 46.4592 22.473 43.5596 22.6429 39.85C22.8029 36.1504 22.463 35.4405 22.023 34.9105C22.023 34.9105 24.1928 35.2905 24.8627 33.6107C25.5326 31.9209 25.7926 31.2609 26.8325 31.3609C27.8624 31.4609 27.7024 30.241 28.0124 29.8911C28.0124 29.8911 28.2523 30.551 28.5723 31.1309C28.8123 31.5609 29.1022 31.9409 29.3722 32.0108C30.0421 32.1608 30.992 33.9406 32.8918 32.9907C32.8918 32.9907 35.3215 33.9706 36.1215 32.3508C36.1215 32.3508 37.6613 32.9907 38.4412 31.4509C38.4412 31.4509 39.811 34.5706 41.5908 34.4206C41.5908 34.4206 42.9907 35.7404 44.6105 34.0206C44.6105 34.0206 46.2003 38.1402 52.2997 36.5403C52.2997 36.5403 52.7896 39.23 55.6093 38.6301C57.6291 38.1902 57.7291 36.8303 57.7291 36.8303C57.7291 36.8303 61.8686 38.6301 63.5984 35.6304C63.6284 35.5805 63.6584 35.5205 63.6884 35.4705C65.3282 32.5308 65.1782 29.8111 61.5886 27.0114L61.5986 27.0014Z" fill="#85BA3C"/>
<mask id="mask1_181_16103" style="mask-type:luminance" maskUnits="userSpaceOnUse" x="1" y="2" width="64" height="48">
<path d="M61.5986 27.0014C61.5986 27.0014 63.7084 20.3121 56.9991 19.1423C56.9991 19.1423 57.0991 15.3327 53.5695 15.3027H53.5295C53.5295 15.3027 53.5495 15.2027 53.5895 15.0127C53.7695 12.0931 53.1396 6.88364 46.5203 6.20371C46.5203 6.20371 45.1305 3.55401 42.4108 5.07384C42.4108 5.07384 41.2109 1.19427 36.2015 2.35414C31.182 3.51401 29.7622 6.53368 29.7022 8.43347C29.7022 8.43347 27.8824 8.1035 26.6225 9.14339C25.3627 10.1733 25.2927 11.2132 25.2927 11.2132C25.2927 11.2132 24.6127 10.5932 23.2829 10.9232C21.953 11.2532 21.6031 12.183 21.6031 12.183C21.6031 12.183 19.0833 7.36358 13.094 8.46346C7.10468 9.56334 6.43475 14.2528 6.43475 14.2528C6.43475 14.2528 4.58497 14.2828 4.13502 15.5427C3.68507 16.8025 3.94504 18.1024 3.94504 18.1024C3.94504 18.1024 0.775397 19.9822 2.26523 24.3817C2.42521 24.8416 2.61517 25.2416 2.83515 25.5916C3.69505 26.9514 4.97492 27.5413 6.12479 27.7813C7.45464 28.0513 8.60452 27.8713 8.72451 27.8513C8.53453 27.9713 4.83493 30.411 6.59474 34.1906C6.59474 34.1906 4.78495 33.4807 5.10491 36.4604C5.10491 36.4604 0.495416 37.9802 1.5653 43.4696C1.81527 44.7594 2.23523 45.6193 2.72517 46.1593C4.19501 46.4392 5.79482 45.4094 6.37476 44.9194C6.37476 44.9194 6.08481 45.6693 6.48476 46.4292C6.66474 46.7792 6.99468 47.1292 7.55462 47.4191C7.67461 47.4791 7.8046 47.5191 7.93458 47.5391C8.89448 47.6991 10.1843 46.9692 10.2743 46.6192C10.2743 46.6192 10.3043 47.2991 10.7143 47.9191C10.9243 48.249 11.2442 48.559 11.7142 48.739C11.7842 48.769 11.8642 48.799 11.9542 48.829C13.384 49.3589 15.9137 49.9389 17.5935 46.4592C17.5935 46.4592 22.473 43.5596 22.6429 39.85C22.8029 36.1504 22.463 35.4405 22.023 34.9105C22.023 34.9105 24.1928 35.2905 24.8627 33.6107C25.5326 31.9209 25.7926 31.2609 26.8325 31.3609C27.8624 31.4609 27.7024 30.241 28.0124 29.8911C28.0124 29.8911 28.2523 30.551 28.5723 31.1309C28.8123 31.5609 29.1022 31.9409 29.3722 32.0108C30.0421 32.1608 30.992 33.9406 32.8918 32.9907C32.8918 32.9907 35.3215 33.9706 36.1215 32.3508C36.1215 32.3508 37.6613 32.9907 38.4412 31.4509C38.4412 31.4509 39.811 34.5706 41.5908 34.4206C41.5908 34.4206 42.9907 35.7404 44.6105 34.0206C44.6105 34.0206 46.2003 38.1402 52.2997 36.5403C52.2997 36.5403 52.7896 39.23 55.6093 38.6301C57.6291 38.1902 57.7291 36.8303 57.7291 36.8303C57.7291 36.8303 61.8686 38.6301 63.5984 35.6304C63.6284 35.5805 63.6584 35.5205 63.6884 35.4705C65.3282 32.5308 65.1782 29.8111 61.5886 27.0114L61.5986 27.0014Z" fill="white"/>
</mask>
<g mask="url(#mask1_181_16103)">
<path d="M16.5435 14.9523C15.8536 13.0325 13.5138 12.9825 12.084 14.0824C10.9241 14.9823 10.0942 16.6021 10.4341 18.052C9.14429 17.812 7.77445 18.7119 7.41449 20.0418C6.90455 21.9116 8.15442 23.6314 9.79423 24.4013C10.2442 24.6112 10.6441 23.9413 10.1942 23.7213C8.96432 23.1414 7.89443 21.9715 8.12441 20.5117C8.33438 19.1719 9.81422 18.262 11.0041 19.1319C11.3241 19.3618 11.754 18.9119 11.544 18.5919C10.7241 17.3821 11.354 15.8122 12.3339 14.9023C13.2738 14.0324 15.2536 13.5825 15.8136 15.1423C15.9835 15.6123 16.7435 15.4123 16.5735 14.9323L16.5435 14.9523Z" fill="#90C941"/>
<path d="M25.0934 24.0708C24.5934 23.7308 24.0734 23.2408 23.4734 23.0808C22.8534 22.9108 22.2134 23.1508 21.6834 23.4608C21.1734 23.7608 20.7234 24.1108 20.6134 24.7208C20.5834 24.8908 20.5634 25.0708 20.5434 25.2508C20.3334 24.9708 20.0834 24.7308 19.7634 24.5608C19.0634 24.1908 18.2334 24.2708 17.6834 24.8608C17.1834 25.3908 16.9934 26.1508 17.1334 26.8508C17.3034 27.7208 17.9034 28.4408 18.5334 29.0308C18.9034 29.3808 19.4534 28.8208 19.0834 28.4808C18.3334 27.7708 17.4034 26.6108 18.1234 25.5608C18.4334 25.1108 18.9434 25.0108 19.4134 25.2708C19.9934 25.6008 20.2734 26.2808 20.5134 26.8708C20.6634 27.2508 21.2934 27.2508 21.2834 26.7708C21.2734 26.2708 21.2834 25.7708 21.3334 25.2708C21.3534 25.0308 21.3634 24.7608 21.5234 24.5608C21.6634 24.3908 21.8934 24.2608 22.0834 24.1508C22.4834 23.9108 22.9834 23.6908 23.4434 23.9208C23.8834 24.1408 24.2934 24.4808 24.6934 24.7608C25.1134 25.0508 25.5034 24.3708 25.0934 24.0808V24.0708Z" fill="#90C941"/>
<path d="M11.9046 43.5296C11.4846 43.4796 10.9946 43.3696 10.8346 42.9196C10.6546 42.4296 10.8846 41.8896 11.0546 41.4296C11.1946 41.0296 10.6646 40.8196 10.3946 41.0496C10.1646 41.2496 9.9146 41.4296 9.6546 41.5896C9.4446 41.7096 9.1346 41.9196 8.8746 41.8196C8.5146 41.6796 8.59459 41.0396 8.61459 40.7496C8.63459 40.5496 8.42461 40.3496 8.22461 40.3596C7.90461 40.3796 7.36462 40.4496 7.20462 40.0796C7.06462 39.7696 7.2346 39.3496 7.4346 39.0996C7.8746 38.5596 8.62462 38.3796 9.26462 38.6496C9.46462 38.7296 9.6946 38.5596 9.7446 38.3796C9.8046 38.1496 9.66461 37.9796 9.47461 37.8996C8.46461 37.4796 7.2146 37.9396 6.6546 38.8696C6.3646 39.3496 6.2546 40.0296 6.5546 40.5396C6.8346 40.9996 7.32462 41.1396 7.82462 41.1596C7.84462 41.7296 8.0046 42.3296 8.5846 42.5596C9.0546 42.7496 9.55462 42.5896 10.0146 42.3296C9.97462 42.6896 10.0146 43.0596 10.1846 43.4096C10.5146 44.0696 11.2346 44.2696 11.9046 44.3396C12.1146 44.3596 12.2946 44.1396 12.2946 43.9496C12.2946 43.7196 12.1146 43.5796 11.9046 43.5596V43.5296Z" fill="#90C941"/>
<path d="M14.5442 30.1006C13.7642 29.5706 12.7241 29.5006 11.8741 29.9006C11.0941 30.2606 10.5141 31.0606 10.3941 31.9006C10.3641 32.1106 10.4442 32.3206 10.6642 32.3806C10.8442 32.4306 11.1141 32.3206 11.1441 32.1106C11.2441 31.4606 11.6242 30.8906 12.2242 30.6006C12.8442 30.2906 13.5941 30.4006 14.1541 30.7806C14.3341 30.9006 14.5842 30.8106 14.6942 30.6406C14.8042 30.4506 14.7241 30.2206 14.5541 30.1006H14.5442Z" fill="#90C941"/>
<path d="M37.8017 13.792C37.3917 13.552 36.8618 13.512 36.4118 13.682C35.6718 13.962 35.2817 14.572 34.9317 15.222C34.8717 15.072 34.7817 14.922 34.6717 14.792C34.2817 14.352 33.6817 14.262 33.1417 14.452C32.6517 14.622 32.2117 15.002 32.0817 15.532C31.9617 16.062 32.1617 16.592 32.6117 16.892C33.0317 17.172 33.4218 16.502 33.0118 16.212C32.8318 16.092 32.7918 15.822 32.8718 15.632C32.9718 15.372 33.2518 15.222 33.5118 15.162C34.3018 14.982 34.3418 15.932 34.3418 16.472C34.3418 16.862 34.8718 17.002 35.0718 16.672C35.4718 15.992 35.7017 15.092 36.3617 14.612C36.6117 14.432 36.9017 14.332 37.2117 14.412C37.5817 14.502 37.6718 14.792 37.7018 15.152C37.7518 15.652 38.5318 15.652 38.4818 15.152C38.4318 14.612 38.2917 14.112 37.8017 13.822V13.792Z" fill="#90C941"/>
<path d="M54.3593 25.7702C53.1394 25.4603 51.7896 25.8102 50.6997 26.5001C50.6297 26.2802 50.4897 26.0702 50.2697 25.9602C49.7398 25.6802 49.0699 25.8202 48.4999 26.1102C48.6599 25.3403 48.6999 24.5404 47.91 24.1104C46.8401 23.5405 45.8402 24.5404 45.6802 25.5502C45.6002 26.0402 46.3602 26.2602 46.4402 25.7602C46.4902 25.4503 46.5802 25.1303 46.8201 24.9203C47.0801 24.6903 47.51 24.6503 47.72 24.9703C48.07 25.5103 47.62 26.3602 47.5101 26.9101C47.4401 27.2801 47.88 27.59 48.1699 27.2901C48.5499 26.9001 49.0499 26.6401 49.5998 26.6201C50.1298 26.6001 50.0197 26.9201 49.7998 27.2101C49.6698 27.33 49.5498 27.46 49.4398 27.6C49.1199 27.99 49.6098 28.4899 49.9898 28.15C50.1697 28 50.3497 27.83 50.4897 27.64C51.3796 26.8501 52.5395 26.4002 53.7493 26.4701C54.1293 26.4901 54.4793 26.5301 54.4993 26.9801C54.5093 27.3301 54.3593 27.7 54.2393 28.02C53.9493 28.7999 53.5594 29.5398 53.0994 30.2297C52.8195 30.6497 53.4994 31.0396 53.7793 30.6297C54.4293 29.6598 56.489 26.2902 54.3693 25.7502L54.3593 25.7702Z" fill="#90C941"/>
<path d="M41.5711 6.65307C40.0711 6.47307 38.6111 7.20307 37.7911 8.45307C37.5111 8.87307 38.1911 9.27307 38.4711 8.85307C39.0911 7.91307 40.1511 7.36307 41.2811 7.41307C42.2311 7.46307 43.9211 8.17307 43.4611 9.40307C43.2811 9.87307 44.0411 10.0831 44.2211 9.61307C44.8411 7.96307 42.9411 6.82307 41.5811 6.65307H41.5711Z" fill="#90C941"/>
<path d="M30.1828 12.7223C29.7628 12.1323 29.0029 12.2923 28.4429 12.5823C27.3429 13.1523 26.8828 14.2923 26.6728 15.4423C26.5628 15.3523 26.4429 15.2723 26.3229 15.1923C26.0429 15.0123 25.7328 14.8123 25.4028 14.9523C25.1828 15.0423 25.0729 15.2423 25.0429 15.4623C24.8929 15.3023 24.7328 15.1523 24.5628 15.0223C24.0528 14.6123 23.3929 14.7623 22.9429 15.1923C21.9429 16.1723 22.4629 17.5923 22.9729 18.6723C23.1929 19.1323 23.8628 18.7323 23.6528 18.2723C23.3128 17.5523 22.8328 16.5323 23.4328 15.8123C23.5428 15.6723 23.7128 15.5423 23.9028 15.5623C24.1228 15.5823 24.3229 15.8623 24.4729 16.0223C24.8129 16.3723 25.1329 16.7523 25.4429 17.1323C25.7029 17.4523 26.1829 17.1023 26.1029 16.7523C26.0529 16.5423 26.0029 16.3323 25.9529 16.1123C25.9429 16.0523 25.8928 15.9223 25.8628 15.8023C25.9828 15.8823 26.1028 15.9823 26.1528 16.0223C26.3428 16.1623 26.5128 16.3123 26.6828 16.4623C26.9528 16.7023 27.3129 16.5223 27.3529 16.1823C27.4529 15.2123 27.6828 14.1623 28.4628 13.5123C28.7128 13.3023 29.3528 12.8923 29.5928 13.2523C29.8828 13.7023 29.9728 14.3423 29.9928 14.8623C30.0128 15.3623 30.7928 15.3723 30.7728 14.8623C30.7428 14.1523 30.6028 13.3223 30.1828 12.7323V12.7223Z" fill="#90C941"/>
<path d="M39.2015 26.1809C38.9015 26.1709 38.5915 26.2409 38.2915 26.3409C38.3915 26.0909 38.4515 25.8209 38.4015 25.5209C38.3015 24.9609 37.8215 24.5809 37.2415 24.6909C36.0715 24.9309 35.2015 26.0309 34.5015 26.9009C34.3715 27.0709 34.3415 27.2909 34.5015 27.4509C34.6415 27.5909 34.9215 27.6109 35.0515 27.4509C35.6115 26.7509 36.1915 26.0209 37.0115 25.6009C37.1315 25.5409 37.3815 25.3809 37.5215 25.4409C37.6215 25.4809 37.6415 25.6409 37.6515 25.7309C37.6615 25.9109 37.5715 26.0909 37.4915 26.2509C37.3715 26.4809 37.2515 26.7009 37.1615 26.9509C37.0615 27.2109 37.3815 27.5409 37.6415 27.4309C38.0415 27.2609 38.4515 27.0909 38.8715 26.9909C39.1915 26.9109 39.4715 26.9109 39.4715 27.3009C39.4715 27.7009 39.3115 28.0909 39.1115 28.4309C39.0115 28.6109 38.8915 28.7809 38.7615 28.9409C38.7015 29.0109 38.4515 29.3609 38.3815 29.3509C37.8915 29.2409 37.6815 30.0009 38.1715 30.1109C38.8415 30.2509 39.3015 29.5709 39.6315 29.0809C39.9815 28.5609 40.2515 27.9409 40.2615 27.3109C40.2615 26.6809 39.8615 26.2009 39.2215 26.1709L39.2015 26.1809Z" fill="#90C941"/>
<path d="M49.3301 18.2421C49.5301 17.9821 49.7101 17.7121 49.8601 17.4221C50.1201 16.9121 50.3301 16.3221 50.1001 15.7621C49.5901 14.5121 47.8201 15.1721 46.9301 15.5921C46.4801 15.8121 46.8701 16.4821 47.3301 16.2721C47.7401 16.0721 48.1701 15.9421 48.6201 15.8721C48.9601 15.8221 49.3501 15.7621 49.4201 16.2021C49.4801 16.5921 49.2101 17.0221 49.0201 17.3421C48.8101 17.6921 48.5501 18.0021 48.2501 18.2821C47.9901 18.5321 48.2001 18.9321 48.5301 18.9521C48.9701 18.9821 49.4001 19.0421 49.8301 19.1521C50.1801 19.2421 50.3801 19.4021 50.2601 19.7921C50.0701 20.4121 49.4501 21.0921 48.8301 21.2921C48.3501 21.4421 48.5601 22.2021 49.0401 22.0521C49.5601 21.8821 49.9901 21.5521 50.3401 21.1321C50.6801 20.7221 51.0101 20.2521 51.0701 19.7121C51.1901 18.6921 50.2301 18.3721 49.3401 18.2421H49.3301Z" fill="#90C941"/>
<path d="M61.2189 33.1393C61.0789 32.8693 60.7989 32.7293 60.5089 32.7493C60.5589 32.5693 60.5989 32.3893 60.6089 32.1993C60.6389 31.6593 60.2389 31.2793 59.7089 31.2593C59.2889 31.2393 58.8589 31.4193 58.4989 31.6193C58.0889 31.8493 57.7589 32.1793 57.6189 32.6293C57.5489 32.8293 57.6989 33.0593 57.8889 33.1093C58.0989 33.1693 58.3089 33.0393 58.3689 32.8393C58.3989 32.7393 58.4689 32.6393 58.5489 32.5493C58.6489 32.4393 58.7189 32.3993 58.8489 32.3193C58.9889 32.2393 59.1089 32.1893 59.2389 32.1393C59.2989 32.1193 59.3689 32.0993 59.4289 32.0793C59.4589 32.0793 59.4989 32.0593 59.5289 32.0593C59.5289 32.0593 59.5689 32.0593 59.5789 32.0593C59.6089 32.0593 59.6489 32.0593 59.6789 32.0593C59.6889 32.0593 59.6989 32.0593 59.6989 32.0593C59.7189 32.0593 59.7489 32.0693 59.7689 32.0793C59.7689 32.0793 59.7689 32.0993 59.7889 32.1293C59.7889 32.0893 59.7889 32.2093 59.7889 32.2093C59.7889 32.2493 59.7889 32.2393 59.7889 32.2693C59.7289 32.6393 59.5889 32.9793 59.3989 33.2993C59.2589 33.5393 59.4289 33.9193 59.7389 33.8893C59.9889 33.8593 60.1789 33.7593 60.3789 33.6293C60.4189 33.5993 60.4589 33.5793 60.4989 33.5593C60.4989 33.5893 60.4989 33.6293 60.4989 33.6393C60.4989 33.6593 60.4989 33.6793 60.4989 33.6793C60.4989 33.6993 60.4989 33.7093 60.4989 33.7293C60.4889 33.7693 60.4789 33.8193 60.4589 33.8593C60.3789 34.0793 60.2589 34.2993 60.1089 34.4793C59.9789 34.6493 59.9489 34.8693 60.1089 35.0293C60.2489 35.1693 60.5289 35.1993 60.6589 35.0293C61.0489 34.5493 61.5089 33.7693 61.1789 33.1393H61.2189Z" fill="#90C941"/>
<path d="M19.3237 38.47C19.2837 39.07 19.1537 39.76 18.8137 40.27C18.6937 40.45 18.5537 40.51 18.3637 40.38C18.1337 40.22 18.0537 39.89 17.9737 39.64C17.8637 39.3 17.2937 39.24 17.2137 39.64C17.1137 40.15 16.8837 41.18 16.1337 40.85C15.8437 40.72 15.6637 40.45 15.5337 40.17C15.4637 40.01 15.4137 39.84 15.3637 39.67C15.3437 39.6 15.3137 39.52 15.3037 39.44C15.2937 39.4 15.2837 39.37 15.2837 39.33C15.7237 39.18 15.5237 38.47 15.0437 38.59C14.3137 38.77 14.5037 39.59 14.6737 40.1C14.8537 40.64 15.1237 41.15 15.6237 41.46C16.1037 41.75 16.7037 41.77 17.1637 41.43C17.3937 41.26 17.5537 41.04 17.6737 40.79C17.7337 40.86 17.7937 40.93 17.8737 40.99C18.2337 41.26 18.7237 41.33 19.1037 41.06C19.4737 40.8 19.6537 40.35 19.7937 39.94C19.9637 39.46 20.0537 38.96 20.0837 38.46C20.1137 37.96 19.3337 37.96 19.3037 38.46L19.3237 38.47Z" fill="#90C941"/>
<path d="M33.1621 22.8017C33.0421 22.4217 32.9221 21.9217 32.6221 21.6417C32.3321 21.3717 31.8821 21.3617 31.6121 21.6317C31.6121 21.6317 31.6121 21.6317 31.6121 21.6217C31.4421 21.2217 31.1221 20.7917 30.6621 20.7117C30.1721 20.6217 29.7421 20.9117 29.5321 21.3517C29.3121 21.7917 29.2721 22.3117 29.2621 22.7917C29.2621 23.0917 29.2621 23.4417 29.4021 23.7117C29.5621 24.0117 29.8821 24.1617 30.2121 24.0917C30.4221 24.0517 30.5421 23.8017 30.4821 23.6117C30.4321 23.4217 30.2621 23.3317 30.0821 23.3317V23.3117C30.0621 23.2317 30.0521 23.1317 30.0521 23.0417C30.0521 22.7917 30.0521 22.5417 30.0821 22.2917C30.1021 22.1117 30.1321 21.9317 30.2021 21.7717C30.2421 21.6617 30.3321 21.5417 30.4021 21.5017C30.4121 21.5017 30.4721 21.4717 30.4921 21.4717C30.5421 21.4717 30.5821 21.4917 30.6221 21.5317C30.7421 21.6217 30.8321 21.7817 30.9021 21.9317C31.0921 22.3317 31.2021 22.8017 31.2621 23.2417C31.3221 23.7417 31.9821 23.7417 32.0421 23.2417C32.0821 22.9317 32.1121 22.6217 32.1621 22.3117C32.1621 22.3317 32.1821 22.3517 32.1821 22.3617C32.3021 22.6317 32.3921 22.9317 32.4721 23.2117C32.5621 23.5117 32.6021 23.8117 32.5921 24.1317C32.5821 24.3417 32.7821 24.5217 32.9821 24.5217C33.2021 24.5217 33.3621 24.3417 33.3721 24.1317C33.3921 23.6817 33.3021 23.2317 33.1621 22.8017Z" fill="#90C941"/>
<path d="M18.0838 19.1022C17.8338 18.6822 17.8238 18.1922 17.3938 17.8722C17.0038 17.5822 16.4538 17.6422 16.1838 18.0722C15.9538 18.4422 15.9938 18.9222 16.0238 19.3322C16.0438 19.5422 16.0738 19.7522 16.1138 19.9622C16.0138 19.9422 15.9138 19.9322 15.8138 19.9222C15.3538 19.9022 14.7738 19.9622 14.4638 20.3222C14.2338 20.5822 14.1638 20.9522 14.2138 21.3022C13.9138 21.2822 13.6339 21.3422 13.4139 21.5622C13.0739 21.9122 13.2339 22.4122 13.4839 22.7522C13.7539 23.1222 14.1339 23.3822 14.5739 23.5022C15.0639 23.6422 15.2638 22.8822 14.7838 22.7422C14.5638 22.6822 14.3838 22.5722 14.2238 22.4122C14.1538 22.3422 14.0939 22.2522 14.0439 22.1622C14.0439 22.1422 14.0239 22.1222 14.0139 22.1022C14.0539 22.1022 14.1639 22.0922 14.2039 22.1022C14.3239 22.1222 14.4438 22.1522 14.5538 22.2022C14.7038 22.2522 14.8438 22.3322 14.9738 22.4222C15.0738 22.5022 15.1838 22.5822 15.2838 22.6522C15.6438 22.9122 16.0839 22.3322 15.7639 22.0322C15.6639 21.9422 15.5438 21.8422 15.4038 21.7522C15.2738 21.6422 15.1438 21.5222 15.0638 21.3722C14.9738 21.2222 14.9238 20.9722 15.0638 20.8222C15.2138 20.6622 15.6539 20.6822 15.8539 20.6922C16.1039 20.7122 16.3239 20.7922 16.4839 20.9822C16.7939 21.3322 17.2839 20.8822 17.1039 20.5022C16.9639 20.2022 16.8838 19.8622 16.8338 19.5322C16.7938 19.2522 16.7439 18.9222 16.7939 18.6422C16.7939 18.5922 16.8138 18.5422 16.8338 18.5022C16.8438 18.4822 16.8638 18.4622 16.8638 18.4622C16.9438 18.4622 17.0138 18.5622 17.0538 18.6222C17.2138 18.8822 17.2439 19.2122 17.4139 19.4822C17.6739 19.9122 18.3538 19.5222 18.0938 19.0822L18.0838 19.1022Z" fill="#77A636"/>
<path d="M6.82483 23.7919C6.74483 23.7919 6.66481 23.8119 6.58481 23.8019C6.54481 23.8019 6.50482 23.8019 6.46482 23.8019C6.44482 23.8019 6.44482 23.8019 6.43482 23.8019C6.43482 23.8019 6.43481 23.8019 6.42481 23.8019C6.35481 23.7919 6.28484 23.7719 6.20484 23.7519C6.16484 23.7419 6.12482 23.7219 6.09482 23.7119C6.15482 23.7319 6.04483 23.6819 6.04483 23.6819C5.90483 23.6119 5.79484 23.5319 5.70484 23.4619C5.65484 23.4119 5.59481 23.3619 5.55481 23.3019C5.54481 23.2819 5.53482 23.2819 5.53482 23.2819C5.53482 23.2819 5.53484 23.2819 5.51484 23.2519C5.49484 23.2219 5.47484 23.1819 5.45484 23.1519C5.37484 23.0219 5.35482 22.9519 5.31482 22.7919C5.31482 22.7619 5.30483 22.7219 5.29483 22.6819C5.29483 22.6719 5.29483 22.6019 5.29483 22.6019C5.29483 22.5219 5.29483 22.4419 5.29483 22.3519C5.29483 22.3119 5.29483 22.2819 5.32483 22.1919C5.34483 22.1219 5.36481 22.0419 5.39481 21.9719C5.39481 21.9619 5.39482 21.9519 5.40482 21.9419C5.40482 21.9419 5.40481 21.9319 5.42481 21.9119C5.44481 21.8719 5.46484 21.8419 5.48484 21.8019C5.50484 21.7619 5.52481 21.7319 5.55481 21.7019C5.59481 21.6419 5.54482 21.7019 5.59482 21.6519C5.73482 21.4919 5.75482 21.2619 5.59482 21.1019C5.45482 20.9619 5.17483 20.9419 5.04483 21.1019C4.48483 21.7719 4.35482 22.7319 4.78482 23.5119C5.17482 24.2319 6.04483 24.6819 6.85483 24.5819C7.06483 24.5519 7.24482 24.4219 7.24482 24.1919C7.24482 24.0019 7.06483 23.7719 6.85483 23.8019L6.82483 23.7919Z" fill="#77A636"/>
<path d="M17.8838 11.1327C17.5538 10.9727 17.1937 11.0027 16.9037 11.2027C16.6837 10.5527 16.2837 9.96266 15.6137 9.94266C15.1637 9.93266 14.7437 10.1927 14.4937 10.5627C14.2137 10.9727 14.1837 11.5127 14.2437 11.9927C14.2637 12.2027 14.4038 12.3827 14.6338 12.3827C14.8238 12.3827 15.0537 12.2027 15.0237 11.9927C14.9937 11.6827 14.9637 11.3427 15.1137 11.0627C15.2037 10.8827 15.4037 10.7027 15.6137 10.7327C15.8537 10.7627 16.0037 11.0927 16.0937 11.2927C16.2337 11.6127 16.3138 11.9527 16.3238 12.2927C16.3438 12.7227 16.9837 12.8427 17.0937 12.3927C17.1337 12.2227 17.1737 12.0027 17.3037 11.8727C17.4237 11.7527 17.5237 11.7927 17.6537 11.8927C17.9537 12.1127 18.1337 12.4827 18.1437 12.8427C18.1637 13.3427 18.9437 13.3527 18.9237 12.8427C18.8937 12.1527 18.5238 11.4327 17.8838 11.1227V11.1327Z" fill="#77A636"/>
<path d="M8.52456 14.422C7.91456 14.362 7.25457 14.502 6.90457 15.052C6.53457 15.632 6.68458 16.332 6.85458 16.952C6.91458 17.152 7.13456 17.292 7.33456 17.222C7.53456 17.152 7.66458 16.952 7.60458 16.742C7.56458 16.612 7.52457 16.472 7.49457 16.332C7.48457 16.272 7.46459 16.212 7.45459 16.142C7.45459 16.142 7.45459 16.132 7.45459 16.122C7.45459 16.122 7.45459 16.112 7.45459 16.092C7.45459 16.062 7.45459 16.032 7.45459 16.002C7.45459 15.942 7.45459 15.872 7.45459 15.812C7.45459 15.812 7.45459 15.782 7.45459 15.762C7.45459 15.742 7.45459 15.732 7.45459 15.722C7.46459 15.662 7.48457 15.612 7.50457 15.552C7.50457 15.552 7.50457 15.542 7.50457 15.532C7.51457 15.502 7.53458 15.482 7.54458 15.452C7.55458 15.432 7.57456 15.412 7.58456 15.382C7.60456 15.362 7.62457 15.342 7.65457 15.312C7.68457 15.292 7.76456 15.222 7.80456 15.232C7.79456 15.232 7.77458 15.242 7.76458 15.252C7.77458 15.252 7.79456 15.242 7.80456 15.232C7.82456 15.232 7.85457 15.212 7.87457 15.212C7.90457 15.212 7.93457 15.192 7.96457 15.192C7.96457 15.192 7.98457 15.192 7.99457 15.192C8.01457 15.192 8.03458 15.192 8.04458 15.192C8.07458 15.192 8.10458 15.192 8.13458 15.192C8.25458 15.192 8.36459 15.192 8.48459 15.202C8.68459 15.222 8.88457 15.012 8.87457 14.812C8.86457 14.582 8.70459 14.442 8.48459 14.422H8.52456Z" fill="#77A636"/>
<path d="M40.3617 12.3532C40.2417 11.8832 40.0917 11.3932 39.7417 11.0432C39.3617 10.6732 38.8218 10.5832 38.3118 10.6332C37.7118 10.7032 36.9017 10.9132 36.4017 11.3532C36.1517 10.9432 35.7617 10.6432 35.2117 10.7332C35.1717 10.7332 35.1318 10.7532 35.0918 10.7632C34.9918 10.1032 34.7417 9.48315 34.1517 9.06315C33.7717 8.79315 33.2818 8.64315 32.8118 8.75315C32.3318 8.86315 31.9217 9.28315 32.1817 9.78315C32.3817 10.1832 32.9317 9.92315 32.9017 9.54315C32.9017 9.54315 32.9117 9.54315 32.9217 9.53315C32.9817 9.51315 33.0417 9.50315 33.1117 9.50315C33.2417 9.50315 33.3717 9.53315 33.4917 9.58315C33.7417 9.69315 33.9618 9.90315 34.1018 10.1432C34.3218 10.5332 34.3718 11.0032 34.3718 11.4632C34.2718 11.7432 34.2717 12.0632 34.4017 12.3432C34.5717 12.7232 35.1118 12.4932 35.1318 12.1432C35.1318 11.9732 35.1417 11.8032 35.1417 11.6232C35.2117 11.5432 35.3117 11.4932 35.4017 11.5032C35.7917 11.5332 35.9118 12.0632 35.9418 12.3732C35.9918 12.8632 36.7418 12.8832 36.7218 12.3732C36.6918 11.6932 37.8917 11.4432 38.4217 11.3932C39.2017 11.3232 39.4318 11.8832 39.6018 12.5432C39.7218 13.0332 40.4817 12.8232 40.3617 12.3332V12.3532Z" fill="#77A636"/>
<path d="M44.9611 20.5016C44.8411 20.1316 44.6911 19.6216 44.3111 19.4416C43.8911 19.2416 43.4111 19.5516 43.0611 19.7816C42.6611 20.0516 42.3111 20.3816 42.0311 20.7716C42.0111 20.8016 41.9811 20.8316 41.9611 20.8716C41.7511 20.8416 41.5111 20.8916 41.2811 21.0016C41.3111 20.6216 41.3011 20.2416 41.2411 19.8616C41.1611 19.2916 40.9211 18.7116 40.3211 18.5316C39.1611 18.1816 38.0311 19.3416 37.6411 20.3016C37.4511 20.7716 38.2111 20.9716 38.4011 20.5116C38.5411 20.1716 38.7711 19.8716 39.0611 19.6416C39.3211 19.4316 39.7711 19.1516 40.1211 19.2916C40.4611 19.4216 40.4911 19.9516 40.5211 20.2616C40.5611 20.7516 40.5211 21.2316 40.4011 21.7116C40.3011 22.1016 40.7611 22.3516 41.0611 22.0916C41.1911 21.9816 41.3312 21.8816 41.4812 21.8016C41.2812 22.3216 41.2311 22.8716 41.5911 23.2716C41.7711 23.4616 42.0811 23.3916 42.2111 23.1916C42.4911 22.7516 42.7311 22.0016 42.5511 21.4416C42.6311 21.3116 42.7211 21.1916 42.8111 21.0816C43.0211 20.8416 43.2511 20.6316 43.5111 20.4516C43.6311 20.3716 43.8211 20.2216 43.9611 20.2016C44.0011 20.2016 43.9311 20.1516 44.0011 20.2016C44.0511 20.2516 44.0911 20.3916 44.1211 20.4516C44.6411 21.7116 44.4511 23.1816 43.6911 24.2916C43.4011 24.7116 44.0811 25.1016 44.3711 24.6916C44.9111 23.9016 45.2012 22.9516 45.2012 21.9916C45.2012 21.5016 45.1312 20.9916 44.9812 20.5316L44.9611 20.5016Z" fill="#77A636"/>
<path d="M51.7704 34.2305C51.2304 34.0805 50.6904 34.0005 50.1404 33.9805C50.2804 33.6105 50.2404 33.1705 49.9204 32.8105C49.3104 32.1105 48.4705 32.3505 47.7005 32.6005C47.8705 31.7105 47.7504 30.7205 46.7804 30.3705C45.7104 29.9805 44.5204 30.7405 43.9604 31.6205C43.6904 32.0505 44.3704 32.4405 44.6404 32.0205C44.9904 31.4705 45.7704 30.8905 46.4604 31.0905C47.3204 31.3405 46.9604 32.5205 46.7504 33.0905C46.6404 33.3805 46.9605 33.6405 47.2305 33.5705C47.7705 33.4305 48.3504 33.0505 48.9304 33.1305C49.1704 33.1605 49.4104 33.2905 49.4304 33.5605C49.4604 33.8305 49.2405 34.0105 48.9805 34.0205C48.9805 34.0205 48.9104 34.0205 48.8804 34.0305C48.4404 34.0905 48.5505 34.8105 48.9805 34.8005C49.0505 34.8005 49.1104 34.8005 49.1704 34.7805C49.9704 34.6805 50.7804 34.7605 51.5604 34.9805C52.0504 35.1205 52.2504 34.3605 51.7704 34.2205V34.2305Z" fill="#77A636"/>
<path d="M58.1292 21.7116C57.9092 21.2416 57.3292 21.2716 56.8792 21.3116C56.3492 21.3616 55.8492 21.5016 55.3792 21.7316C55.1892 21.8216 55.1392 22.0916 55.2392 22.2716C55.3492 22.4616 55.5892 22.5016 55.7792 22.4116C56.1592 22.2316 56.5992 22.1116 57.0092 22.0816C57.1192 22.0816 57.2192 22.0816 57.3292 22.0816C57.3292 22.0816 57.3992 22.0816 57.4492 22.0816C57.4492 22.0916 57.4492 22.1016 57.4592 22.1216C57.4692 22.1616 57.4892 22.1916 57.4992 22.2316C57.5192 22.3116 57.5392 22.4016 57.5592 22.4816C57.5592 22.5016 57.5592 22.5416 57.5592 22.5516C57.5592 22.6016 57.5592 22.6516 57.5592 22.7116C57.5592 22.8016 57.5592 22.8816 57.5492 22.9716C57.5492 22.9916 57.5492 23.0116 57.5392 23.0316C57.5392 23.0716 57.5192 23.1116 57.5192 23.1516C57.4992 23.2416 57.4692 23.3316 57.4392 23.4116C57.4392 23.4316 57.4292 23.4516 57.4192 23.4716C57.4192 23.4716 57.4192 23.4816 57.4092 23.5016C57.3892 23.5416 57.3792 23.5716 57.3592 23.6116C57.3192 23.6916 57.2692 23.7716 57.2192 23.8416C57.2192 23.8416 57.1792 23.8916 57.1792 23.9016C57.1492 23.9416 57.1192 23.9716 57.0892 24.0116C57.0292 24.0816 56.9592 24.1416 56.8892 24.2016C56.7292 24.3316 56.7492 24.6216 56.8892 24.7516C57.0492 24.9116 57.2792 24.8816 57.4392 24.7516C58.0192 24.2816 58.3392 23.5416 58.3692 22.8116C58.3792 22.4416 58.3092 22.0516 58.1492 21.7116H58.1292Z" fill="#77A636"/>
<path d="M24.4432 28.8611C24.4432 28.8611 24.3532 28.7711 24.3132 28.7311C24.3032 28.7211 24.2832 28.7011 24.2732 28.6911C24.2232 28.6411 24.1632 28.6111 24.1032 28.5911C23.8332 28.4511 23.5132 28.4111 23.2132 28.4111C22.7332 28.4111 22.1932 28.4911 21.8532 28.8611C21.5332 29.2011 21.4332 29.7411 21.7132 30.1411C21.7132 30.1511 21.7332 30.1611 21.7432 30.1711C20.8032 30.6211 20.0132 31.3611 19.5132 32.2811C19.2732 32.7211 19.9532 33.1211 20.1932 32.6811C20.7932 31.5811 21.8432 30.8011 23.0632 30.5411C23.4832 30.4511 23.4032 29.7211 22.9632 29.7711C22.8032 29.7911 22.5032 29.8411 22.3732 29.7011C22.2532 29.5711 22.4132 29.3911 22.5232 29.3211C22.7432 29.1811 23.0532 29.1911 23.3032 29.2011C23.5332 29.2011 23.7432 29.2411 23.8932 29.4211C24.2632 29.7811 24.7632 29.2511 24.4432 28.8711V28.8611Z" fill="#77A636"/>
<path d="M15.684 32.94C14.984 32.98 14.284 33.03 13.604 33.2C13.284 33.28 12.944 33.39 12.674 33.59C12.404 33.79 12.214 34.06 12.064 34.36C11.784 34.93 11.604 35.6 11.884 36.2C12.144 36.75 12.734 36.97 13.304 37.03C13.604 37.06 13.904 37.03 14.204 37C14.584 36.95 14.954 36.86 15.274 36.64C15.444 36.52 15.524 36.3 15.414 36.1C15.314 35.93 15.054 35.84 14.874 35.96C14.504 36.22 14.034 36.25 13.594 36.25C13.244 36.25 12.844 36.2 12.654 35.96C12.394 35.64 12.554 35.14 12.714 34.8C12.814 34.6 12.924 34.37 13.104 34.23C13.294 34.08 13.544 34.01 13.774 33.95C14.394 33.78 15.044 33.75 15.684 33.71C15.894 33.7 16.074 33.54 16.074 33.32C16.074 33.12 15.894 32.91 15.684 32.93V32.94Z" fill="#77A636"/>
<path d="M16.1538 45.7989C15.9938 45.6589 15.7539 45.6489 15.6039 45.7989C15.2839 46.1089 15.0339 46.3889 14.6339 46.5489C14.6139 46.5489 14.5438 46.5789 14.5338 46.5889C14.4838 46.6089 14.4339 46.6189 14.3839 46.6289C14.3339 46.6289 14.3338 46.6289 14.3738 46.6289C14.3438 46.6289 14.3239 46.6289 14.2939 46.6289C14.2439 46.6289 14.1939 46.6289 14.1339 46.6289C14.1139 46.6289 14.1139 46.6289 14.1039 46.6289C14.0839 46.6289 14.0639 46.6289 14.0439 46.6189C14.0239 46.6189 14.0039 46.6089 13.9839 46.5989C13.9839 46.5989 13.9839 46.5889 13.9839 46.5789C13.9839 46.4989 13.9839 46.4089 13.9839 46.3289C13.9839 46.3089 13.9839 46.2989 13.9839 46.2789C13.9839 46.2789 13.9839 46.2789 13.9839 46.2589C13.9839 46.2189 14.0039 46.1689 14.0139 46.1289C14.0239 46.0889 14.0338 46.0389 14.0538 45.9989C14.0538 45.9989 14.0738 45.9389 14.0838 45.9189C14.1138 45.8389 14.1538 45.7689 14.1938 45.6989C14.2138 45.6589 14.2439 45.6289 14.2639 45.5889C14.2639 45.5789 14.2738 45.5689 14.2738 45.5689C14.2738 45.5589 14.2938 45.5489 14.3038 45.5389C14.3638 45.4689 14.4238 45.4089 14.4938 45.3489C14.5038 45.3389 14.6139 45.2589 14.5439 45.3089C14.5839 45.2789 14.6138 45.2589 14.6538 45.2389C14.7338 45.1889 14.8138 45.1489 14.8938 45.1189C15.0838 45.0389 15.1438 44.7489 15.0338 44.5789C14.9038 44.3789 14.7038 44.3489 14.4938 44.4389C13.8338 44.7289 13.3238 45.3989 13.2138 46.1089C13.1838 46.3289 13.1738 46.5389 13.2138 46.7589C13.2638 47.0389 13.4538 47.2389 13.7138 47.3389C14.1438 47.5089 14.6238 47.4089 15.0338 47.2289C15.4738 47.0289 15.8338 46.6789 16.1738 46.3489C16.3238 46.2089 16.3338 45.9389 16.1738 45.7989H16.1538Z" fill="#77A636"/>
<path d="M5.40501 42.5692C5.33501 42.3492 5.135 42.2592 4.925 42.2992C4.825 42.3192 4.72502 42.3392 4.63502 42.3492C4.62502 42.3492 4.625 42.3492 4.615 42.3492C4.595 42.3492 4.575 42.3492 4.555 42.3492C4.505 42.3492 4.445 42.3492 4.395 42.3592C4.305 42.3592 4.21501 42.3592 4.12501 42.3592C4.10501 42.3592 4.10501 42.3592 4.09501 42.3592C4.09501 42.3592 4.09502 42.3592 4.07502 42.3592C4.02502 42.3492 3.975 42.3392 3.925 42.3192C3.905 42.3192 3.88501 42.3092 3.87501 42.2992C3.87501 42.2992 3.875 42.2992 3.865 42.2992C3.835 42.2792 3.79503 42.2592 3.76503 42.2392C3.75503 42.2392 3.75501 42.2392 3.74501 42.2292C3.74501 42.2292 3.72501 42.2192 3.71501 42.2092C3.69501 42.1892 3.665 42.1692 3.645 42.1392C3.635 42.1292 3.625 42.1192 3.615 42.1092C3.595 42.0792 3.58501 42.0592 3.56501 42.0292C3.56501 42.0192 3.52501 41.9592 3.52501 41.9492C3.52501 41.9292 3.50501 41.8992 3.49501 41.8792C3.48501 41.8392 3.47501 41.8092 3.46501 41.7692C3.46501 41.7592 3.46501 41.7392 3.46501 41.7292C3.46501 41.6992 3.46501 41.6692 3.46501 41.6392C3.46501 41.6192 3.46501 41.6092 3.46501 41.5892C3.46501 41.5592 3.47503 41.5292 3.48503 41.4992C3.48503 41.4792 3.49502 41.4592 3.50502 41.4392C3.53502 41.3792 3.575 41.3092 3.615 41.2492C3.625 41.2392 3.65502 41.1992 3.66502 41.1992C3.69502 41.1692 3.72502 41.1392 3.75502 41.1192C3.78502 41.0892 3.815 41.0692 3.835 41.0492L3.88502 41.0092C4.02502 40.9092 4.185 40.8192 4.335 40.7392C4.515 40.6492 4.58502 40.3692 4.47502 40.1992C4.35502 40.0092 4.13501 39.9592 3.93501 40.0592C3.31501 40.3792 2.72502 40.8492 2.66502 41.5992C2.60502 42.2992 3.10503 42.9792 3.79503 43.1392C4.23503 43.2392 4.68501 43.1692 5.12501 43.0892C5.32501 43.0492 5.465 42.7992 5.395 42.6092L5.40501 42.5692Z" fill="#77A636"/>
<path d="M52.1304 12.0629C51.8904 11.2429 51.0704 11.1029 50.3104 11.2029C50.3104 10.9329 50.2204 10.6629 50.0604 10.4529C49.6304 9.9129 48.8605 9.8329 48.2305 9.9829C47.4505 10.1629 46.7905 10.7529 46.5405 11.4629C46.0905 11.0129 45.5205 10.7529 44.8205 10.9629C44.3005 11.1229 43.9604 11.5929 43.9004 12.1329C43.8304 12.7729 44.1705 13.3429 44.6005 13.7829C44.9505 14.1429 45.5104 13.5929 45.1504 13.2329C44.8904 12.9729 44.6404 12.6329 44.6704 12.2429C44.7004 11.8829 44.9705 11.6629 45.3205 11.6829C45.9205 11.7229 46.2805 12.2629 46.5405 12.7729C46.5905 12.8929 46.6404 13.0129 46.7204 13.1329C47.0004 13.5629 47.6204 13.1929 47.4004 12.7329C46.9304 12.0029 47.3704 11.1529 48.1104 10.8429C48.4304 10.7029 48.8404 10.6329 49.1804 10.7629C49.4704 10.8729 49.6704 11.2329 49.3904 11.4629C49.0804 11.7129 49.4104 12.2329 49.7704 12.1229C50.2704 11.9729 51.3504 11.7029 51.4004 12.4829C51.4304 13.0729 51.0604 13.6229 50.6304 13.9829C50.2404 14.3029 50.8004 14.8629 51.1804 14.5329C51.8504 13.9729 52.3804 12.9629 52.1204 12.0629H52.1304Z" fill="#77A636"/>
<path d="M39.8914 3.92371C39.5414 3.49371 39.0114 3.60371 38.5414 3.74371C38.1414 3.86371 37.7514 4.06371 37.4514 4.35371C37.4314 4.34371 37.4214 4.32371 37.4014 4.31371C37.0314 4.01371 36.5314 3.93371 36.0714 4.04371C35.0814 4.28371 34.6514 5.44371 34.9814 6.34371C35.0514 6.54371 35.2514 6.67371 35.4614 6.61371C35.6514 6.56371 35.8114 6.33371 35.7314 6.13371C35.5714 5.68371 35.6414 5.05371 36.1314 4.83371C36.3314 4.74371 36.5714 4.74371 36.7714 4.83371C36.8414 4.86371 36.9414 4.93371 37.0014 5.01371C36.9214 5.26371 36.9214 5.52371 37.1014 5.74371C37.2614 5.94371 37.6014 5.86371 37.7214 5.66371C37.8314 5.47371 37.8614 5.26371 37.8314 5.06371C37.9014 4.97371 37.9914 4.88371 38.0414 4.84371C38.2414 4.66371 38.5114 4.55371 38.7714 4.48371C38.9314 4.43371 39.2114 4.30371 39.3014 4.46371C39.4214 4.69371 39.3214 5.05371 39.3414 5.30371C39.3614 5.51371 39.5114 5.69371 39.7314 5.69371C39.9314 5.69371 40.1414 5.51371 40.1214 5.30371C40.0714 4.82371 40.2014 4.33371 39.8714 3.92371H39.8914Z" fill="#77A636"/>
</g>
<path d="M8.51437 67.6282L9.14435 67.8282V68.6082C9.14435 69.0482 8.83435 70.2482 8.83435 70.2482C8.83435 70.2482 8.94435 68.5282 8.83435 68.2982L8.52435 67.6182L8.51437 67.6282Z" fill="#A86D31"/>
<path d="M11.9447 71.9583C11.8847 72.5783 11.7747 73.0783 11.6147 73.4783C10.7747 75.6583 8.78473 74.8583 8.78473 74.8583C8.78473 74.8583 6.04473 75.5683 5.50473 71.7883C5.42473 71.1983 5.44474 70.7083 5.54474 70.2983C5.72474 69.5283 6.17472 69.1083 6.62472 69.0183C7.59472 68.8183 8.13472 69.0383 8.43472 69.2883C8.67472 69.4883 9.00474 69.5083 9.26474 69.3383C9.61474 69.1183 10.1847 68.9283 11.0247 69.0683C11.7747 69.1983 12.1147 70.1983 11.9547 71.9483L11.9447 71.9583Z" fill="#FC8C28"/>
<path d="M9.84471 69.8475C9.45471 70.2475 8.79472 70.0575 7.98472 69.6375C7.17472 69.2175 6.3247 70.3875 7.3347 72.3975C8.3447 74.4075 9.76469 74.5375 10.6747 73.7375C11.5847 72.9375 12.0547 70.3275 11.3847 69.7275C10.9647 69.3575 10.2447 69.4375 9.84471 69.8475Z" fill="#F8B445"/>
<path d="M10.2142 69.9983C10.2142 69.9983 11.4142 69.7483 11.2942 70.7283C11.1742 71.7083 11.0542 72.8083 10.3542 73.1183C9.65422 73.4283 11.1342 71.5683 10.8042 70.8883C10.4742 70.2083 9.7442 70.1783 10.2142 70.0083V69.9983Z" fill="#FFECE5"/>
<path d="M11.6147 73.4769C10.7747 75.6569 8.78471 74.8569 8.78471 74.8569C8.78471 74.8569 6.04471 75.5669 5.50471 71.7869C5.42471 71.1969 5.44472 70.7069 5.54472 70.2969C5.54472 71.1269 5.66471 72.3769 6.18471 73.2569C6.77471 74.2569 7.2147 74.6269 8.9647 74.5669C10.6747 74.5069 10.4447 74.9269 11.6147 73.4769Z" fill="#D45132"/>
<path d="M27.9022 67.6282L28.5322 67.8282V68.6082C28.5322 69.0482 28.2222 70.2482 28.2222 70.2482C28.2222 70.2482 28.3322 68.5282 28.2222 68.2982L27.9122 67.6182L27.9022 67.6282Z" fill="#A86D31"/>
<path d="M31.3325 71.9583C31.2725 72.5783 31.1625 73.0783 31.0025 73.4783C30.1625 75.6583 28.1725 74.8583 28.1725 74.8583C28.1725 74.8583 25.4325 75.5683 24.8925 71.7883C24.8125 71.1983 24.8325 70.7083 24.9325 70.2983C25.1125 69.5283 25.5625 69.1083 26.0125 69.0183C26.9825 68.8183 27.5225 69.0383 27.8225 69.2883C28.0625 69.4883 28.3925 69.5083 28.6525 69.3383C29.0025 69.1183 29.5725 68.9283 30.4125 69.0683C31.1625 69.1983 31.5025 70.1983 31.3425 71.9483L31.3325 71.9583Z" fill="#FC8C28"/>
<path d="M29.2325 69.8475C28.8425 70.2475 28.1825 70.0575 27.3725 69.6375C26.5625 69.2175 25.7125 70.3875 26.7225 72.3975C27.7325 74.4075 29.1525 74.5375 30.0625 73.7375C30.9725 72.9375 31.4425 70.3275 30.7725 69.7275C30.3525 69.3575 29.6325 69.4375 29.2325 69.8475Z" fill="#F8B445"/>
<path d="M29.602 69.9973C29.602 69.9973 30.802 69.7473 30.682 70.7273C30.562 71.7073 30.442 72.8073 29.742 73.1173C29.042 73.4273 30.522 71.5673 30.192 70.8873C29.862 70.2073 29.132 70.1773 29.602 70.0073V69.9973Z" fill="#FFECE5"/>
<path d="M31.0025 73.4769C30.1625 75.6569 28.1725 74.8569 28.1725 74.8569C28.1725 74.8569 25.4325 75.5669 24.8925 71.7869C24.8125 71.1969 24.8325 70.7069 24.9325 70.2969C24.9325 71.1269 25.0526 72.3769 25.5726 73.2569C26.1626 74.2569 26.6026 74.6269 28.3526 74.5669C30.0626 74.5069 29.8325 74.9269 31.0025 73.4769Z" fill="#D45132"/>
<path d="M25.4625 66.7777C25.4725 67.1577 25.5425 67.5577 25.6925 67.9077C25.8325 68.2277 26.0925 68.4677 26.4025 68.6077C26.8025 68.7777 27.2525 68.7577 27.6425 68.6077C27.7025 68.5877 27.7125 68.5177 27.6925 68.4777C28.0625 68.0677 28.2225 67.5077 28.1125 66.9577C28.0525 66.6677 27.9225 66.3877 27.7425 66.1477C27.5425 65.8777 27.2825 65.6777 27.0325 65.4377C26.7425 65.1577 26.4825 64.8377 26.2425 64.5177C26.1825 64.4477 26.0925 64.4677 26.0825 64.5577C26.0325 64.9377 25.8325 65.2777 25.6825 65.6277C25.5325 65.9877 25.4525 66.3677 25.4625 66.7577V66.7777Z" fill="#858C16"/>
<mask id="mask2_181_16103" style="mask-type:luminance" maskUnits="userSpaceOnUse" x="25" y="64" width="4" height="5">
<path d="M25.4626 66.7777C25.4726 67.1577 25.5426 67.5577 25.6926 67.9077C25.8326 68.2277 26.0926 68.4677 26.4026 68.6077C26.8026 68.7777 27.2525 68.7577 27.6425 68.6077C27.7025 68.5877 27.7126 68.5177 27.6926 68.4777C28.0626 68.0677 28.2225 67.5077 28.1125 66.9577C28.0525 66.6677 27.9226 66.3877 27.7426 66.1477C27.5426 65.8777 27.2826 65.6777 27.0326 65.4377C26.7426 65.1577 26.4826 64.8377 26.2426 64.5177C26.1826 64.4477 26.0925 64.4677 26.0825 64.5577C26.0325 64.9377 25.8326 65.2777 25.6826 65.6277C25.5326 65.9877 25.4526 66.3677 25.4626 66.7577V66.7777Z" fill="white"/>
</mask>
<g mask="url(#mask2_181_16103)">
<path d="M27.7425 65.6868C27.7425 65.6868 28.2825 67.9268 27.5225 68.3168C26.7625 68.7068 25.7725 68.2268 25.7725 68.2268L26.9225 69.5568L28.5825 68.6868L28.4425 66.7568L27.7425 65.6768V65.6868Z" fill="#777D14"/>
<path d="M27.2025 68.1372C27.2025 68.1372 26.3325 68.3872 26.0225 68.0572C25.5025 67.5172 25.5225 66.7272 25.6325 66.1272C25.7425 65.5272 26.2025 65.3772 26.1725 65.1572C26.1725 65.1572 26.6425 65.1872 26.7725 65.8072C26.9025 66.4272 27.6625 66.8472 27.5625 67.4672C27.4625 68.0872 27.2025 68.1472 27.2025 68.1472V68.1372Z" fill="#919918"/>
<path d="M26.2225 68.0571C26.0325 68.0071 25.7625 67.5371 25.6925 67.2371C25.6225 66.9571 25.6225 66.6871 25.7225 66.4071C25.8325 66.0771 26.0225 66.2171 26.1425 66.5471C26.2625 66.8771 26.2625 67.2671 26.4625 67.5671C26.6525 67.8571 27.4025 68.3571 26.2225 68.0571Z" fill="#9DA61A"/>
</g>
<path d="M28.0724 68.9182C28.1724 68.9682 28.2624 68.8182 28.1624 68.7682C27.1024 68.1982 26.4424 67.0882 26.4424 65.8882C26.4424 65.7782 26.2624 65.7782 26.2624 65.8882C26.2624 67.1482 26.9624 68.3182 28.0724 68.9282V68.9182Z" fill="#5C610F"/>
<path d="M30.3722 67.7378C30.5522 67.5478 30.6922 67.2878 30.7722 67.0378C30.8522 66.7878 30.9922 66.0778 31.0122 65.9078C31.0322 65.7378 31.1522 64.9278 31.2722 64.4578C31.3022 64.3478 31.2022 64.2578 31.1122 64.2978C30.7222 64.4778 30.2622 64.4678 29.8222 64.5178C29.3722 64.5678 28.9622 64.7278 28.6122 64.9778C28.2722 65.2278 27.9422 65.5478 27.7322 65.9378C27.5422 66.2878 27.5022 66.7278 27.6122 67.1678C27.7122 67.5678 27.9322 67.9278 28.2022 68.2378C28.7622 68.4178 29.4622 68.7278 30.3622 67.7278L30.3722 67.7378Z" fill="#C6D121"/>
<mask id="mask3_181_16103" style="mask-type:luminance" maskUnits="userSpaceOnUse" x="27" y="64" width="5" height="5">
<path d="M30.3722 67.7378C30.5522 67.5478 30.6922 67.2878 30.7722 67.0378C30.8522 66.7878 30.9922 66.0778 31.0122 65.9078C31.0322 65.7378 31.1522 64.9278 31.2722 64.4578C31.3022 64.3478 31.2022 64.2578 31.1122 64.2978C30.7222 64.4778 30.2622 64.4678 29.8222 64.5178C29.3722 64.5678 28.9622 64.7278 28.6122 64.9778C28.2722 65.2278 27.9422 65.5478 27.7322 65.9378C27.5422 66.2878 27.5022 66.7278 27.6122 67.1678C27.7122 67.5678 27.9322 67.9278 28.2022 68.2378C28.7622 68.4178 29.4622 68.7278 30.3622 67.7278L30.3722 67.7378Z" fill="white"/>
</mask>
<g mask="url(#mask3_181_16103)">
<path d="M30.8522 64.678C30.8522 64.678 29.0722 64.558 28.2722 65.588C27.5822 66.468 27.7822 67.148 27.9522 67.558C28.1222 67.968 28.7222 68.148 28.8922 68.188C29.0622 68.228 30.3122 68.148 30.4122 66.928C30.5122 65.708 30.8622 64.668 30.8622 64.668L30.8522 64.678Z" fill="#CDD73B"/>
</g>
<path d="M28.2522 68.8077C28.0322 67.4777 28.8322 66.2677 29.8222 65.4677C30.1422 65.2077 30.5022 64.9877 30.8622 64.7777C30.9622 64.7177 30.8822 64.5577 30.7722 64.6177C29.5522 65.3177 28.3822 66.3277 28.0922 67.7677C28.0222 68.1277 28.0122 68.4877 28.0722 68.8477C28.0922 68.9677 28.2722 68.9277 28.2522 68.8077Z" fill="#5C610F"/>
<path d="M30.2721 65.5078C30.2721 65.5078 28.8621 66.4178 28.8321 67.0578C28.8021 67.6978 29.3521 67.9978 29.6421 67.7478C29.8121 67.5978 30.1321 66.9678 30.2621 66.3778C30.3521 65.9578 30.2721 65.5078 30.2721 65.5078Z" fill="#D3DC54"/>
<path d="M48.06 10.5852L48.69 10.7852V11.5652C48.69 12.0052 48.38 13.2052 48.38 13.2052C48.38 13.2052 48.49 11.4852 48.38 11.2552L48.07 10.5752L48.06 10.5852Z" fill="#A86D31"/>
<path d="M51.5003 14.9153C51.4403 15.5353 51.3303 16.0353 51.1703 16.4353C50.3303 18.6153 48.3403 17.8153 48.3403 17.8153C48.3403 17.8153 45.6003 18.5253 45.0603 14.7453C44.9803 14.1553 45.0003 13.6653 45.1003 13.2553C45.2803 12.4853 45.7303 12.0653 46.1803 11.9753C47.1503 11.7753 47.6903 11.9953 47.9903 12.2453C48.2303 12.4453 48.5603 12.4653 48.8203 12.2953C49.1703 12.0753 49.7403 11.8853 50.5803 12.0253C51.3303 12.1553 51.6703 13.1553 51.5103 14.9053L51.5003 14.9153Z" fill="#FC8C28"/>
<path d="M49.4002 12.8055C49.0102 13.2055 48.3502 13.0155 47.5402 12.5955C46.7302 12.1755 45.8801 13.3455 46.8901 15.3555C47.9001 17.3655 49.3202 17.4955 50.2302 16.6955C51.1402 15.8955 51.6102 13.2855 50.9402 12.6855C50.5202 12.3155 49.8002 12.3955 49.4002 12.8055Z" fill="#F8B445"/>
<path d="M49.7598 12.9553C49.7598 12.9553 50.9598 12.7053 50.8398 13.6853C50.7198 14.6653 50.5998 15.7653 49.8998 16.0753C49.1998 16.3853 50.6798 14.5253 50.3498 13.8453C50.0198 13.1653 49.2898 13.1353 49.7598 12.9653V12.9553Z" fill="#FFECE5"/>
<path d="M51.1703 16.4251C50.3303 18.6051 48.3403 17.8051 48.3403 17.8051C48.3403 17.8051 45.6003 18.5151 45.0603 14.7351C44.9803 14.1451 45.0003 13.6551 45.1003 13.2451C45.1003 14.0751 45.2203 15.3251 45.7403 16.2051C46.3303 17.2051 46.7703 17.5751 48.5203 17.5151C50.2303 17.4551 50.0003 17.8751 51.1703 16.4251Z" fill="#D45132"/>
<path d="M46.2003 9.23504C46.0803 9.68504 46.0303 10.175 46.0903 10.635C46.1403 11.055 46.3603 11.425 46.6903 11.695C47.1003 12.025 47.6303 12.165 48.1503 12.115C48.2303 12.115 48.2603 12.035 48.2503 11.975C48.8203 11.625 49.2003 11.015 49.2503 10.345C49.2803 9.98504 49.2203 9.61504 49.0903 9.27504C48.9503 8.88504 48.7103 8.56504 48.5003 8.20504C48.2503 7.78504 48.0603 7.32504 47.8803 6.86504C47.8403 6.76504 47.7203 6.76504 47.6703 6.86504C47.4803 7.29504 47.1303 7.62504 46.8403 7.98504C46.5403 8.35504 46.3203 8.77504 46.2003 9.23504Z" fill="#8AB51D"/>
<mask id="mask4_181_16103" style="mask-type:luminance" maskUnits="userSpaceOnUse" x="46" y="6" width="4" height="7">
<path d="M46.2003 9.23504C46.0803 9.68504 46.0303 10.175 46.0903 10.635C46.1403 11.055 46.3603 11.425 46.6903 11.695C47.1003 12.025 47.6303 12.165 48.1503 12.115C48.2303 12.115 48.2603 12.035 48.2503 11.975C48.8203 11.625 49.2003 11.015 49.2503 10.345C49.2803 9.98504 49.2203 9.61504 49.0903 9.27504C48.9503 8.88504 48.7103 8.56504 48.5003 8.20504C48.2503 7.78504 48.0603 7.32504 47.8803 6.86504C47.8403 6.76504 47.7203 6.76504 47.6703 6.86504C47.4803 7.29504 47.1303 7.62504 46.8403 7.98504C46.5403 8.35504 46.3203 8.77504 46.2003 9.23504Z" fill="white"/>
</mask>
<g mask="url(#mask4_181_16103)">
<path d="M49.2303 8.72582C49.2303 8.72582 49.1103 11.5358 48.0803 11.7258C47.0503 11.9158 46.0603 11.0358 46.0603 11.0358L46.9503 12.9858L49.1903 12.5258L49.6803 10.2158L49.2303 8.71582V8.72582Z" fill="#7EAD07"/>
<path d="M47.7703 11.4154C47.7703 11.4154 46.6703 11.4154 46.4103 10.9254C45.9803 10.1054 46.2803 9.19543 46.6103 8.52543C46.9403 7.85543 47.5303 7.83543 47.5803 7.56543C47.5803 7.56543 48.1203 7.76543 48.0603 8.52543C48.0003 9.28543 48.7403 10.0454 48.4203 10.7354C48.1003 11.4254 47.7703 11.4054 47.7703 11.4054V11.4154Z" fill="#94BB31"/>
<path d="M46.6403 10.9951C46.4303 10.8751 46.2803 10.2251 46.3003 9.85505C46.3203 9.50505 46.4103 9.18505 46.6103 8.88505C46.8403 8.53505 47.0303 8.76505 47.0603 9.18505C47.0903 9.60505 46.9603 10.0651 47.0903 10.4951C47.2203 10.9051 47.9303 11.7451 46.6403 10.9851V10.9951Z" fill="#9EC245"/>
</g>
<path d="M48.52 12.6351C48.62 12.7351 48.77 12.5851 48.68 12.4851C47.64 11.4551 47.24 9.9351 47.64 8.5251C47.68 8.3951 47.47 8.3351 47.43 8.4651C47.01 9.9451 47.43 11.5551 48.52 12.6351Z" fill="#5C610F"/>
<path d="M47.8703 10.2655C47.7303 10.0655 47.5304 9.88547 47.3204 9.76547C47.1104 9.64547 46.4903 9.37547 46.3503 9.32547C46.2103 9.27547 45.5003 9.00547 45.0903 8.80547C45.0003 8.76547 44.9003 8.83547 44.9203 8.92547C45.0103 9.31547 44.9103 9.72547 44.8703 10.1355C44.8303 10.5555 44.8903 10.9455 45.0503 11.3155C45.2103 11.6755 45.4403 12.0255 45.7403 12.2955C46.0203 12.5355 46.4104 12.6555 46.8204 12.6355C47.2004 12.6255 47.5703 12.5055 47.9003 12.3055C48.1803 11.8355 48.5903 11.2655 47.8703 10.2555V10.2655Z" fill="#96A738"/>
<mask id="mask5_181_16103" style="mask-type:luminance" maskUnits="userSpaceOnUse" x="44" y="8" width="5" height="5">
<path d="M47.8703 10.2655C47.7303 10.0655 47.5304 9.88547 47.3204 9.76547C47.1104 9.64547 46.4903 9.37547 46.3503 9.32547C46.2103 9.27547 45.5003 9.00547 45.0903 8.80547C45.0003 8.76547 44.9003 8.83547 44.9203 8.92547C45.0103 9.31547 44.9103 9.72547 44.8703 10.1355C44.8303 10.5555 44.8903 10.9455 45.0503 11.3155C45.2103 11.6755 45.4403 12.0255 45.7403 12.2955C46.0203 12.5355 46.4104 12.6555 46.8204 12.6355C47.2004 12.6255 47.5703 12.5055 47.9003 12.3055C48.1803 11.8355 48.5903 11.2655 47.8703 10.2555V10.2655Z" fill="white"/>
</mask>
<g mask="url(#mask5_181_16103)">
<path d="M45.2003 9.23535C45.2003 9.23535 44.7403 10.8154 45.5103 11.7454C46.1703 12.5354 46.8103 12.4954 47.2203 12.4254C47.6303 12.3554 47.9003 11.8454 47.9703 11.7054C48.0403 11.5654 48.2103 10.4254 47.1403 10.0854C46.0703 9.74535 45.2003 9.23535 45.2003 9.23535Z" fill="#A3B53D"/>
</g>
<path d="M48.4203 12.3858C47.1803 12.3258 46.2403 11.3658 45.7203 10.3158C45.5503 9.97576 45.4203 9.61576 45.3003 9.24576C45.2703 9.14576 45.1003 9.18576 45.1403 9.29576C45.5303 10.5358 46.2103 11.7858 47.4503 12.3258C47.7603 12.4558 48.0803 12.5358 48.4203 12.5558C48.5303 12.5558 48.5303 12.3858 48.4203 12.3858Z" fill="#5C610F"/>
<path d="M45.8503 9.91504C45.8503 9.91504 46.3903 11.365 46.9603 11.515C47.5303 11.665 47.9103 11.225 47.7403 10.925C47.6403 10.745 47.1303 10.325 46.6303 10.095C46.2703 9.93504 45.8503 9.91504 45.8503 9.91504Z" fill="#AFC241"/>
<path d="M47.82 8.98533C47.59 9.27533 47.38 9.62533 47.27 9.98533C47.17 10.3153 47.21 10.6653 47.36 10.9653C47.55 11.3453 47.9 11.6153 48.29 11.7653C48.35 11.7853 48.4 11.7453 48.41 11.6953C48.95 11.6253 49.43 11.3053 49.69 10.8253C49.83 10.5653 49.91 10.2753 49.93 9.98533C49.95 9.65533 49.88 9.33533 49.85 9.00533C49.81 8.60533 49.82 8.20533 49.84 7.81533C49.84 7.72533 49.75 7.68533 49.69 7.74533C49.41 8.00533 49.04 8.12533 48.71 8.29533C48.36 8.46533 48.07 8.70533 47.82 9.00533V8.98533Z" fill="#8AB51D"/>
<mask id="mask6_181_16103" style="mask-type:luminance" maskUnits="userSpaceOnUse" x="47" y="7" width="3" height="5">
<path d="M47.82 8.98533C47.59 9.27533 47.38 9.62533 47.27 9.98533C47.17 10.3153 47.21 10.6653 47.36 10.9653C47.55 11.3453 47.9 11.6153 48.29 11.7653C48.35 11.7853 48.4 11.7453 48.41 11.6953C48.95 11.6253 49.43 11.3053 49.69 10.8253C49.83 10.5653 49.91 10.2753 49.93 9.98533C49.95 9.65533 49.88 9.33533 49.85 9.00533C49.81 8.60533 49.82 8.20533 49.84 7.81533C49.84 7.72533 49.75 7.68533 49.69 7.74533C49.41 8.00533 49.04 8.12533 48.71 8.29533C48.36 8.46533 48.07 8.70533 47.82 9.00533V8.98533Z" fill="white"/>
</mask>
<g mask="url(#mask6_181_16103)">
<path d="M50.2201 9.61523C50.2201 9.61523 49.2001 11.6452 48.3701 11.4552C47.5401 11.2652 47.11 10.2752 47.11 10.2752V12.0052L48.9301 12.4152L50.05 10.8752L50.2101 9.62523L50.2201 9.61523Z" fill="#7EAD07"/>
<path d="M48.2501 11.1156C48.2501 11.1156 47.4401 10.7456 47.4101 10.3056C47.3601 9.56559 47.8901 8.98559 48.3501 8.60559C48.8101 8.22559 49.2601 8.40559 49.3801 8.22559C49.3801 8.22559 49.7101 8.55559 49.4101 9.09559C49.1101 9.63559 49.4101 10.4456 48.9401 10.8456C48.4701 11.2456 48.24 11.1256 48.24 11.1256L48.2501 11.1156Z" fill="#94BB31"/>
<path d="M47.5601 10.4359C47.4501 10.2759 47.5501 9.74592 47.6801 9.47592C47.8101 9.22592 47.9801 9.01592 48.2301 8.86592C48.5201 8.68592 48.5801 8.91592 48.4601 9.23592C48.3401 9.55592 48.0901 9.85592 48.0501 10.2159C48.0101 10.5559 48.2501 11.4159 47.5501 10.4259L47.5601 10.4359Z" fill="#9EC245"/>
</g>
<path d="M48.4 12.2655C48.44 12.3655 48.6 12.3155 48.56 12.2055C48.13 11.1055 48.34 9.8455 49.11 8.9355C49.18 8.8455 49.05 8.7355 48.98 8.8255C48.18 9.7755 47.95 11.1055 48.4 12.2655Z" fill="#5C610F"/>
<path d="M18.8132 67.6272L19.4432 67.8272V68.6072C19.4432 69.0472 19.1332 70.2472 19.1332 70.2472C19.1332 70.2472 19.2432 68.5272 19.1332 68.2972L18.8232 67.6172L18.8132 67.6272Z" fill="#A84B30"/>
<path d="M22.2436 71.9573C22.1836 72.5773 22.0736 73.0773 21.9136 73.4773C21.0736 75.6573 19.0836 74.8573 19.0836 74.8573C19.0836 74.8573 16.3436 75.5673 15.8036 71.7873C15.7236 71.1973 15.7436 70.7073 15.8436 70.2973C16.0236 69.5273 16.4736 69.1073 16.9236 69.0173C17.8936 68.8173 18.4336 69.0373 18.7336 69.2873C18.9736 69.4873 19.3036 69.5073 19.5636 69.3373C19.9136 69.1173 20.4836 68.9273 21.3236 69.0673C22.0736 69.1973 22.4136 70.1973 22.2536 71.9473L22.2436 71.9573Z" fill="#FC4F27"/>
<path d="M20.1435 69.8465C19.7535 70.2465 19.0936 70.0565 18.2836 69.6365C17.4736 69.2165 16.6236 70.3865 17.6336 72.3965C18.6436 74.4065 20.0636 74.5365 20.9736 73.7365C21.8836 72.9365 22.3536 70.3265 21.6836 69.7265C21.2636 69.3565 20.5435 69.4365 20.1435 69.8465Z" fill="#F88344"/>
<path d="M20.5131 69.9973C20.5131 69.9973 21.713 69.7473 21.593 70.7273C21.473 71.7073 21.353 72.8073 20.653 73.1173C19.953 73.4273 21.4331 71.5673 21.1031 70.8873C20.7731 70.2073 20.0431 70.1773 20.5131 70.0073V69.9973Z" fill="#FFE5E7"/>
<path d="M21.9136 73.4759C21.0736 75.6559 19.0836 74.8559 19.0836 74.8559C19.0836 74.8559 16.3436 75.5659 15.8036 71.7859C15.7236 71.1959 15.7436 70.7059 15.8436 70.2959C15.8436 71.1259 15.9636 72.3759 16.4836 73.2559C17.0736 74.2559 17.5136 74.6259 19.2636 74.5659C20.9736 74.5059 20.7436 74.9259 21.9136 73.4759Z" fill="#D43257"/>
<path d="M18.1534 68.9673C18.0234 68.9873 17.8835 68.9773 17.7635 68.9373C17.6435 68.8973 17.3134 68.7673 17.2434 68.7273C17.1734 68.6873 16.8134 68.5173 16.5934 68.4373C16.5434 68.4173 16.5335 68.3573 16.5735 68.3273C16.7535 68.2173 16.8735 68.0273 17.0135 67.8673C17.1535 67.6973 17.3234 67.5773 17.5234 67.5073C17.7134 67.4373 17.9334 67.3973 18.1434 67.4173C18.3334 67.4373 18.5234 67.5373 18.6734 67.6973C18.8034 67.8473 18.8934 68.0273 18.9434 68.2273C18.8634 68.5073 18.8034 68.8673 18.1534 68.9573V68.9673Z" fill="#C6D121"/>
<mask id="mask7_181_16103" style="mask-type:luminance" maskUnits="userSpaceOnUse" x="16" y="67" width="3" height="2">
<path d="M18.1534 68.9673C18.0234 68.9873 17.8835 68.9773 17.7635 68.9373C17.6435 68.8973 17.3134 68.7673 17.2434 68.7273C17.1734 68.6873 16.8134 68.5173 16.5934 68.4373C16.5434 68.4173 16.5335 68.3573 16.5735 68.3273C16.7535 68.2173 16.8735 68.0273 17.0135 67.8673C17.1535 67.6973 17.3234 67.5773 17.5234 67.5073C17.7134 67.4373 17.9334 67.3973 18.1434 67.4173C18.3334 67.4373 18.5234 67.5373 18.6734 67.6973C18.8034 67.8473 18.8934 68.0273 18.9434 68.2273C18.8634 68.5073 18.8034 68.8673 18.1534 68.9573V68.9673Z" fill="white"/>
</mask>
<g mask="url(#mask7_181_16103)">
<path d="M16.7934 68.3276C16.7934 68.3276 17.2234 67.5776 17.8534 67.5276C18.3934 67.4876 18.6134 67.7476 18.7334 67.9276C18.8534 68.1076 18.7634 68.3976 18.7334 68.4776C18.7034 68.5576 18.3334 69.0376 17.8134 68.7576C17.2934 68.4776 16.7834 68.3276 16.7834 68.3276H16.7934Z" fill="#CDD73B"/>
</g>
<path d="M19.1534 68.397C18.6834 67.957 17.9734 67.947 17.3834 68.127C17.1934 68.187 17.0034 68.267 16.8234 68.357C16.7734 68.387 16.7334 68.307 16.7834 68.277C17.3934 67.977 18.1134 67.777 18.7734 68.047C18.9334 68.117 19.0834 68.207 19.2134 68.327C19.2534 68.367 19.1934 68.427 19.1434 68.387L19.1534 68.397Z" fill="#5C610F"/>
<path d="M17.2834 68.3269C17.2834 68.3269 18.0334 68.0069 18.2934 68.1669C18.5534 68.3269 18.5334 68.6269 18.3534 68.6769C18.2534 68.7069 17.9034 68.6669 17.6334 68.5569C17.4434 68.4769 17.2834 68.3269 17.2834 68.3269Z" fill="#D3DC54"/>
<path d="M51.2796 25.2815L51.9096 25.4815V26.2615C51.9096 26.7015 51.5996 27.9015 51.5996 27.9015C51.5996 27.9015 51.7096 26.1815 51.5996 25.9515L51.2896 25.2715L51.2796 25.2815Z" fill="#A86D31"/>
<path d="M54.7099 29.6116C54.6499 30.2316 54.54 30.7316 54.38 31.1316C53.54 33.3116 51.5499 32.5116 51.5499 32.5116C51.5499 32.5116 48.8099 33.2216 48.2699 29.4416C48.1899 28.8516 48.2099 28.3616 48.3099 27.9516C48.4899 27.1816 48.9399 26.7616 49.3899 26.6716C50.3599 26.4716 50.9 26.6916 51.2 26.9416C51.44 27.1416 51.77 27.1616 52.03 26.9916C52.38 26.7716 52.95 26.5816 53.79 26.7216C54.54 26.8516 54.88 27.8516 54.72 29.6016L54.7099 29.6116Z" fill="#FC8C28"/>
<path d="M52.6099 27.5018C52.2199 27.9018 51.5599 27.7118 50.7499 27.2918C49.9399 26.8718 49.0899 28.0418 50.0999 30.0518C51.1099 32.0618 52.5299 32.1918 53.4399 31.3918C54.3499 30.5918 54.8199 27.9818 54.1499 27.3818C53.7299 27.0118 53.0099 27.0918 52.6099 27.5018Z" fill="#F8B445"/>
<path d="M52.9795 27.6516C52.9795 27.6516 54.1795 27.4016 54.0595 28.3816C53.9395 29.3616 53.8195 30.4616 53.1195 30.7716C52.4195 31.0816 53.8995 29.2216 53.5695 28.5416C53.2395 27.8616 52.5095 27.8316 52.9795 27.6616V27.6516Z" fill="#FFECE5"/>
<path d="M54.38 31.1214C53.54 33.3014 51.55 32.5014 51.55 32.5014C51.55 32.5014 48.81 33.2114 48.27 29.4314C48.19 28.8414 48.21 28.3514 48.31 27.9414C48.31 28.7714 48.43 30.0214 48.95 30.9014C49.54 31.9014 49.98 32.2714 51.73 32.2114C53.44 32.1514 53.21 32.5714 54.38 31.1214Z" fill="#D45132"/>
<path d="M55.5795 26.4013C55.2795 26.1013 54.9196 25.8113 54.5296 25.6413C54.1796 25.4813 53.7796 25.4713 53.4096 25.6013C52.9496 25.7613 52.5896 26.1113 52.3796 26.5413C52.3496 26.6013 52.3796 26.6613 52.4396 26.6813C52.4396 27.3013 52.7396 27.8913 53.2496 28.2513C53.5196 28.4513 53.8395 28.5713 54.1695 28.6413C54.5395 28.7113 54.9096 28.6813 55.2896 28.6913C55.7396 28.6913 56.1895 28.7713 56.6395 28.8513C56.7395 28.8713 56.7996 28.7713 56.7396 28.6913C56.4896 28.3413 56.3996 27.9013 56.2596 27.5013C56.1096 27.0813 55.8895 26.7213 55.5795 26.4013Z" fill="#8AB51D"/>
<mask id="mask8_181_16103" style="mask-type:luminance" maskUnits="userSpaceOnUse" x="52" y="25" width="5" height="4">
<path d="M55.5795 26.4013C55.2795 26.1013 54.9196 25.8113 54.5296 25.6413C54.1796 25.4813 53.7796 25.4713 53.4096 25.6013C52.9496 25.7613 52.5896 26.1113 52.3796 26.5413C52.3496 26.6013 52.3796 26.6613 52.4396 26.6813C52.4396 27.3013 52.7396 27.8913 53.2496 28.2513C53.5196 28.4513 53.8395 28.5713 54.1695 28.6413C54.5395 28.7113 54.9096 28.6813 55.2896 28.6913C55.7396 28.6913 56.1895 28.7713 56.6395 28.8513C56.7395 28.8713 56.7996 28.7713 56.7396 28.6913C56.4896 28.3413 56.3996 27.9013 56.2596 27.5013C56.1096 27.0813 55.8895 26.7213 55.5795 26.4013Z" fill="white"/>
</mask>
<g mask="url(#mask8_181_16103)">
<path d="M54.5196 29.0314C54.5196 29.0314 52.3696 27.5914 52.7096 26.6814C53.0496 25.7714 54.2296 25.4214 54.2296 25.4214L52.2696 25.1914L51.5496 27.1714L53.1296 28.6614L54.5196 29.0214V29.0314Z" fill="#7EAD07"/>
<path d="M53.1096 26.5915C53.1096 26.5915 53.6396 25.7315 54.1396 25.7615C54.9896 25.8115 55.5596 26.4815 55.9296 27.0715C56.2996 27.6615 56.0296 28.1215 56.2196 28.2915C56.2196 28.2915 55.7996 28.6215 55.2296 28.2115C54.6596 27.8015 53.7096 28.0215 53.3196 27.4315C52.9296 26.8415 53.1096 26.6015 53.1096 26.6015V26.5915Z" fill="#94BB31"/>
<path d="M53.9796 25.9113C54.1696 25.8113 54.7596 25.9913 55.0396 26.1913C55.3096 26.3713 55.5096 26.6013 55.6496 26.9013C55.8096 27.2513 55.5496 27.2913 55.1996 27.1113C54.8496 26.9313 54.5596 26.6113 54.1496 26.5113C53.7696 26.4113 52.7696 26.5713 53.9796 25.9213V25.9113Z" fill="#9EC245"/>
</g>
<path d="M51.7896 26.6014C51.6696 26.6314 51.7096 26.8214 51.8296 26.7914C53.1396 26.4614 54.5296 26.8814 55.4396 27.8714C55.5296 27.9614 55.6696 27.8314 55.5896 27.7414C54.6296 26.7014 53.1596 26.2614 51.7896 26.6014Z" fill="#5C610F"/>
<path d="M53.5496 26.9814C53.7196 26.9514 53.9096 26.8814 54.0496 26.7814C54.1896 26.6814 54.5696 26.3714 54.6496 26.2914C54.7296 26.2114 55.1296 25.8414 55.3896 25.6414C55.4496 25.6014 55.4296 25.5114 55.3696 25.4914C55.0896 25.4214 54.8496 25.2214 54.5996 25.0714C54.3396 24.9114 54.0696 24.8214 53.7696 24.8114C53.4896 24.8014 53.1796 24.8314 52.9096 24.9514C52.6596 25.0514 52.4596 25.2714 52.3396 25.5414C52.2296 25.7914 52.1896 26.0714 52.2096 26.3514C52.4296 26.6814 52.6696 27.1314 53.5496 26.9914V26.9814Z" fill="#C6D121"/>
<mask id="mask9_181_16103" style="mask-type:luminance" maskUnits="userSpaceOnUse" x="52" y="24" width="4" height="4">
<path d="M53.5496 26.9814C53.7196 26.9514 53.9096 26.8814 54.0496 26.7814C54.1896 26.6814 54.5696 26.3714 54.6496 26.2914C54.7296 26.2114 55.1296 25.8414 55.3896 25.6414C55.4496 25.6014 55.4296 25.5114 55.3696 25.4914C55.0896 25.4214 54.8496 25.2214 54.5996 25.0714C54.3396 24.9114 54.0696 24.8214 53.7696 24.8114C53.4896 24.8014 53.1796 24.8314 52.9096 24.9514C52.6596 25.0514 52.4596 25.2714 52.3396 25.5414C52.2296 25.7914 52.1896 26.0714 52.2096 26.3514C52.4296 26.6814 52.6696 27.1314 53.5496 26.9914V26.9814Z" fill="white"/>
</mask>
<g mask="url(#mask9_181_16103)">
<path d="M55.0796 25.5811C55.0796 25.5811 54.1996 24.7711 53.3496 24.9811C52.6196 25.1511 52.4396 25.5911 52.3596 25.8811C52.2796 26.1711 52.5196 26.5111 52.5896 26.6011C52.6596 26.6911 53.3496 27.1711 53.9096 26.5811C54.4696 25.9911 55.0896 25.5911 55.0896 25.5911L55.0796 25.5811Z" fill="#CDD73B"/>
</g>
<path d="M51.9896 26.6615C52.4296 25.8715 53.3496 25.5715 54.2096 25.5715C54.4896 25.5715 54.7696 25.6015 55.0396 25.6415C55.1196 25.6515 55.1396 25.5315 55.0596 25.5215C54.1296 25.3815 53.0896 25.4215 52.3396 26.0515C52.1496 26.2115 51.9996 26.3915 51.8796 26.6115C51.8396 26.6815 51.9496 26.7315 51.9896 26.6615Z" fill="#5C610F"/>
<path d="M54.4296 25.781C54.4296 25.781 53.3096 25.671 53.0296 25.991C52.7496 26.311 52.9096 26.701 53.1696 26.691C53.3196 26.691 53.7496 26.491 54.0696 26.231C54.2896 26.051 54.4396 25.781 54.4396 25.781H54.4296Z" fill="#D3DC54"/>
<path d="M34.8415 67.6282L35.4715 67.8282V68.6082C35.4715 69.0482 35.1615 70.2482 35.1615 70.2482C35.1615 70.2482 35.2715 68.5282 35.1615 68.2982L34.8515 67.6182L34.8415 67.6282Z" fill="#A86D31"/>
<path d="M38.2718 71.9583C38.2118 72.5783 38.1018 73.0783 37.9418 73.4783C37.1018 75.6583 35.1118 74.8583 35.1118 74.8583C35.1118 74.8583 32.3718 75.5683 31.8318 71.7883C31.7518 71.1983 31.7718 70.7083 31.8718 70.2983C32.0518 69.5283 32.5018 69.1083 32.9518 69.0183C33.9218 68.8183 34.4618 69.0383 34.7618 69.2883C35.0018 69.4883 35.3318 69.5083 35.5918 69.3383C35.9418 69.1183 36.5118 68.9283 37.3518 69.0683C38.1018 69.1983 38.4418 70.1983 38.2818 71.9483L38.2718 71.9583Z" fill="#FC8C28"/>
<path d="M36.1718 69.8475C35.7818 70.2475 35.1218 70.0575 34.3118 69.6375C33.5018 69.2175 32.6518 70.3875 33.6618 72.3975C34.6718 74.4075 36.0918 74.5375 37.0018 73.7375C37.9118 72.9375 38.3818 70.3275 37.7118 69.7275C37.2918 69.3575 36.5718 69.4375 36.1718 69.8475Z" fill="#F8B445"/>
<path d="M36.5413 69.9983C36.5413 69.9983 37.7413 69.7483 37.6213 70.7283C37.5013 71.7083 37.3813 72.8083 36.6813 73.1183C35.9813 73.4283 37.4613 71.5683 37.1313 70.8883C36.8013 70.2083 36.0713 70.1783 36.5413 70.0083V69.9983Z" fill="#FFECE5"/>
<path d="M37.9418 73.4769C37.1018 75.6569 35.1118 74.8569 35.1118 74.8569C35.1118 74.8569 32.3718 75.5669 31.8318 71.7869C31.7518 71.1969 31.7718 70.7069 31.8718 70.2969C31.8718 71.1269 31.9918 72.3769 32.5118 73.2569C33.1018 74.2569 33.5418 74.6269 35.2918 74.5669C37.0018 74.5069 36.7718 74.9269 37.9418 73.4769Z" fill="#D45132"/>
<path d="M36.2815 68.5181C36.3615 68.3981 36.4215 68.2481 36.4415 68.1081C36.4615 67.9681 36.4715 67.5681 36.4715 67.4781C36.4715 67.3881 36.4715 66.9381 36.4815 66.6681C36.4815 66.6081 36.4215 66.5681 36.3815 66.5981C36.1815 66.7281 35.9315 66.7681 35.7015 66.8281C35.4615 66.8981 35.2615 67.0181 35.0915 67.1881C34.9315 67.3481 34.7815 67.5581 34.7015 67.7781C34.6315 67.9881 34.6515 68.2281 34.7415 68.4481C34.8315 68.6581 34.9815 68.8281 35.1515 68.9681C35.4715 69.0181 35.8715 69.1181 36.2715 68.5081L36.2815 68.5181Z" fill="#C6D121"/>
<mask id="mask10_181_16103" style="mask-type:luminance" maskUnits="userSpaceOnUse" x="34" y="66" width="3" height="4">
<path d="M36.2815 68.5181C36.3615 68.3981 36.4215 68.2481 36.4415 68.1081C36.4615 67.9681 36.4715 67.5681 36.4715 67.4781C36.4715 67.3881 36.4715 66.9381 36.4815 66.6681C36.4815 66.6081 36.4215 66.5681 36.3815 66.5981C36.1815 66.7281 35.9315 66.7681 35.7015 66.8281C35.4615 66.8981 35.2615 67.0181 35.0915 67.1881C34.9315 67.3481 34.7815 67.5581 34.7015 67.7781C34.6315 67.9881 34.6515 68.2281 34.7415 68.4481C34.8315 68.6581 34.9815 68.8281 35.1515 68.9681C35.4715 69.0181 35.8715 69.1181 36.2715 68.5081L36.2815 68.5181Z" fill="white"/>
</mask>
<g mask="url(#mask10_181_16103)">
<path d="M36.2715 66.8281C36.2715 66.8281 35.3015 66.9181 34.9515 67.5481C34.6515 68.0881 34.8215 68.4281 34.9515 68.6381C35.0815 68.8481 35.4215 68.8881 35.5115 68.8981C35.6015 68.9081 36.2715 68.7581 36.2215 68.0881C36.1715 67.4181 36.2715 66.8281 36.2715 66.8281Z" fill="#CDD73B"/>
</g>
<path d="M35.2214 69.2878C34.9914 68.5878 35.3114 67.8678 35.7814 67.3478C35.9314 67.1778 36.1014 67.0278 36.2814 66.8878C36.3314 66.8478 36.2714 66.7678 36.2214 66.8078C35.6214 67.2878 35.0814 67.9378 35.0514 68.7478C35.0514 68.9478 35.0714 69.1478 35.1314 69.3278C35.1514 69.3878 35.2414 69.3478 35.2214 69.2878Z" fill="#5C610F"/>
<path d="M36.0314 67.3281C36.0314 67.3281 35.3514 67.9381 35.3914 68.2881C35.4314 68.6381 35.7514 68.7481 35.8914 68.5881C35.9714 68.4981 36.0914 68.1281 36.1114 67.7981C36.1214 67.5681 36.0414 67.3281 36.0414 67.3281H36.0314Z" fill="#D3DC54"/>
<path d="M36.4214 67.958C36.2314 67.958 36.0214 67.978 35.8414 68.038C35.6814 68.098 35.5514 68.218 35.4714 68.378C35.3714 68.568 35.3714 68.798 35.4314 69.008C35.4314 69.038 35.4714 69.048 35.4914 69.038C35.6814 69.238 35.9614 69.338 36.2414 69.288C36.3914 69.268 36.5314 69.208 36.6614 69.128C36.8014 69.038 36.9114 68.908 37.0414 68.788C37.1914 68.648 37.3614 68.528 37.5214 68.418C37.5614 68.388 37.5514 68.338 37.5014 68.338C37.3114 68.298 37.1514 68.188 36.9714 68.108C36.7914 68.018 36.6114 67.968 36.4114 67.968L36.4214 67.958Z" fill="#8AB51D"/>
<mask id="mask11_181_16103" style="mask-type:luminance" maskUnits="userSpaceOnUse" x="35" y="67" width="3" height="3">
<path d="M36.4214 67.958C36.2314 67.958 36.0214 67.978 35.8414 68.038C35.6814 68.098 35.5514 68.218 35.4714 68.378C35.3714 68.568 35.3714 68.798 35.4314 69.008C35.4314 69.038 35.4714 69.048 35.4914 69.038C35.6814 69.238 35.9614 69.338 36.2414 69.288C36.3914 69.268 36.5314 69.208 36.6614 69.128C36.8014 69.038 36.9114 68.908 37.0414 68.788C37.1914 68.648 37.3614 68.528 37.5214 68.418C37.5614 68.388 37.5514 68.338 37.5014 68.338C37.3114 68.298 37.1514 68.188 36.9714 68.108C36.7914 68.018 36.6114 67.968 36.4114 67.968L36.4214 67.958Z" fill="white"/>
</mask>
<g mask="url(#mask11_181_16103)">
<path d="M36.9014 69.1276C36.9014 69.1276 35.7614 69.3376 35.5814 68.9376C35.4014 68.5376 35.6814 68.0576 35.6814 68.0576L34.9815 68.5976L35.3714 69.4576H36.3414L36.9014 69.1276Z" fill="#7EAD07"/>
<path d="M35.6814 68.788C35.6814 68.788 35.5814 68.3479 35.7514 68.1979C36.0414 67.9479 36.4314 67.988 36.7314 68.058C37.0314 68.128 37.0914 68.368 37.2014 68.358C37.2014 68.358 37.1714 68.598 36.8614 68.638C36.5514 68.678 36.3114 69.048 36.0014 68.988C35.6914 68.928 35.6714 68.788 35.6714 68.788H35.6814Z" fill="#94BB31"/>
<path d="M35.7514 68.2984C35.7814 68.2084 36.0314 68.0784 36.1814 68.0584C36.3214 68.0284 36.4614 68.0384 36.6014 68.0984C36.7614 68.1584 36.6914 68.2584 36.5214 68.3084C36.3514 68.3584 36.1614 68.3484 36.0014 68.4384C35.8514 68.5284 35.5714 68.8884 35.7614 68.2984H35.7514Z" fill="#9EC245"/>
</g>
<path d="M35.2615 69.1974C35.2615 69.1974 35.3015 69.2974 35.3315 69.2474C35.6515 68.7374 36.2315 68.4374 36.8315 68.4674C36.8915 68.4674 36.8915 68.3774 36.8315 68.3774C36.2015 68.3374 35.5815 68.6574 35.2515 69.1974H35.2615Z" fill="#5C610F"/>
</svg>
