<svg width="65" height="60" viewBox="0 0 65 60" fill="none" xmlns="http://www.w3.org/2000/svg">
<path d="M55.3895 56.6921C53.5974 57.2053 51.8368 57.6553 50.1237 58.0342C46.4053 58.8474 42.8368 59.3763 39.4658 59.6763C28.6737 60.6316 19.7921 59.2974 13.9263 57.8684C12.6711 57.5526 11.5421 57.2447 10.5789 56.9447C9.67895 50.4711 11.2737 38.1395 12.7974 28.7447C12.9 28.1132 13.0026 27.4816 13.1132 26.8816C14.1474 20.7474 15.0711 16.2632 15.0711 16.2632C14.2105 16.5632 14.4632 7.84737 15.2921 4.01842C15.2921 4.01842 15.4263 3.94737 15.6789 3.82895C16.4684 3.45 18.3947 2.58947 21.0632 1.77632C21.1105 1.74474 21.1658 1.72895 21.2289 1.72105C21.7263 1.56316 22.2474 1.41316 22.8079 1.26316C25.5158 0.560526 28.7842 0 32.2658 0C35.7474 0 39.2921 0.631579 42.3395 1.41316C42.6237 1.47632 42.8921 1.55526 43.1684 1.62632C43.7526 1.77632 44.3132 1.94211 44.8184 2.09211C44.8816 2.10789 44.9289 2.12368 44.9684 2.13947C47.2342 2.85 48.8605 3.53684 49.2947 3.93158C49.2947 3.93158 49.3105 3.94737 49.3421 3.96316C49.35 3.97895 49.3658 4.00263 49.3816 4.01842C49.7289 5.12368 50.0447 6.26842 50.3053 7.43684C52.2868 16.05 52.1684 25.6895 50.7868 24.8921C50.7868 24.8921 51.1026 26.2895 51.5684 28.5632C52.8632 34.8395 55.2868 47.8263 55.3895 56.6921Z" fill="#B3F4E4"/>
<g opacity="0.84">
<path d="M27.75 24.4579C27.75 23.4316 26.0526 22.5947 23.9526 22.5947C21.8526 22.5947 20.1553 23.4316 20.1553 24.4579C20.1553 25.4842 27.7421 25.4842 27.7421 24.4579H27.75Z" fill="#F0EC73"/>
<path d="M23.3763 15.3316C23.4237 15.4658 23.3605 15.6158 23.2263 15.6632C23.1237 15.7027 23.0132 15.6632 22.95 15.5921C22.9263 15.5684 22.9105 15.5369 22.8947 15.5053C22.8474 15.3711 22.9184 15.2211 23.0447 15.1737C23.0921 15.1579 23.1395 15.1579 23.1868 15.1737C23.2737 15.1895 23.3447 15.2448 23.3763 15.3316Z" fill="#736437"/>
<path opacity="0.27" d="M23.2421 15.2527C23.2895 15.3869 23.2263 15.5369 23.0921 15.5843C23.0447 15.6001 22.9974 15.6001 22.95 15.5843C22.9263 15.5606 22.9105 15.5291 22.8947 15.4975C22.8474 15.3633 22.9184 15.2133 23.0447 15.1659C23.0921 15.1501 23.1395 15.1501 23.1868 15.1659C23.2105 15.1896 23.2263 15.2212 23.2421 15.2527Z" fill="#B39C56"/>
<path opacity="0.27" d="M22.9579 15.3316C22.9421 15.3711 22.95 15.4342 22.9184 15.4342C22.8395 15.4342 22.95 15.1974 23.0053 15.229C23.0605 15.2606 22.9816 15.2842 22.9579 15.3316Z" fill="#EBCC71"/>
<path d="M24.4895 15.0711C24.5368 15.2053 24.4737 15.3553 24.3395 15.4027C24.2368 15.4422 24.1263 15.4027 24.0632 15.3316C24.0395 15.3079 24.0237 15.2764 24.0079 15.2448C23.9605 15.1106 24.0316 14.9606 24.1579 14.9132C24.2053 14.8974 24.2526 14.8974 24.3 14.9132C24.3868 14.929 24.4579 14.9843 24.4895 15.0711Z" fill="#736437"/>
<path opacity="0.27" d="M24.3474 14.9921C24.3947 15.1263 24.3316 15.2763 24.1974 15.3237C24.15 15.3395 24.1026 15.3395 24.0553 15.3237C24.0316 15.3 24.0158 15.2684 24 15.2369C23.9526 15.1026 24.0237 14.9526 24.15 14.9053C24.1974 14.8895 24.2447 14.8895 24.2921 14.9053C24.3158 14.929 24.3316 14.9605 24.3474 14.9921Z" fill="#B39C56"/>
<path opacity="0.27" d="M24.0632 15.071C24.0474 15.1105 24.0553 15.1736 24.0237 15.1736C23.9447 15.1736 24.0553 14.9368 24.1105 14.9684C24.1658 14.9999 24.0869 15.0236 24.0632 15.071Z" fill="#EBCC71"/>
<path d="M19.0816 15.4027C19.0816 15.4027 20.771 13.8159 22.0737 14.408C23.3763 15.0001 23.7553 15.5211 23.7553 15.5211C23.7553 15.5211 22.6579 15.2448 22.0737 15.5685C21.5684 15.8527 21.071 15.8764 21.071 15.8764C21.071 15.8764 21.2763 15.4422 21.3553 15.4027C21.4342 15.3632 20.7395 15.6238 20.6684 15.8764C20.6684 15.8764 20.6368 15.4264 20.8184 15.229C20.8184 15.229 20.321 15.5132 20.2816 15.8053C20.2816 15.8053 20.2026 15.4106 20.3289 15.2527C20.3289 15.2527 19.8474 15.4343 19.7763 15.6159C19.7763 15.6159 19.7684 15.379 19.9658 15.2132L19.0816 15.4027Z" fill="#35E30B"/>
<path d="M20.0447 13.2001C20.0447 13.2001 20.4553 13.0974 20.9605 13.1448C21.4658 13.1922 21.971 13.3185 21.971 13.3185L21.7184 13.1527C21.7184 13.1527 22.4763 13.2396 22.9263 13.8317C23.7316 14.9053 23.7474 15.5369 23.7474 15.5369C23.7474 15.5369 23.1789 14.7553 22.7132 14.8185C22.2474 14.8817 21.9868 14.7711 21.9868 14.7711L22.5 14.6132C22.5 14.6132 22.3737 14.4632 21.9316 14.5738C21.7816 14.6132 21.4105 14.5343 21.4105 14.5343C21.4105 14.5343 21.7816 14.2817 21.8684 14.2896C21.9553 14.2974 21.2684 14.1711 21.0868 14.3369C21.0868 14.3369 21.2842 13.958 21.521 13.8869C21.521 13.8869 20.9842 13.8869 20.8105 14.0922C20.8105 14.0922 20.9368 13.7369 21.1184 13.6659C21.1184 13.6659 20.6447 13.579 20.4947 13.6896C20.4947 13.6896 20.6053 13.4922 20.8421 13.4606L20.0368 13.1922L20.0447 13.2001Z" fill="#3CFF0C"/>
<path d="M24.529 13.4526C24.3553 13.6895 24.1816 13.6816 24.1816 13.6816C24.5211 13.4842 24.6 12.8921 24.6 12.8921C24.5684 13.0026 24.3237 13.0658 24.3237 13.0658C24.5211 12.9158 24.4974 12.4263 24.4974 12.4263C24.4342 12.5526 24.2605 12.5526 24.2605 12.5526C24.4263 12.4579 24.4263 11.9447 24.4263 11.9447C24.2921 12.1895 24.2053 12.1342 24.2053 12.1342C24.3158 11.8421 24.2053 11.2974 24.2053 11.2974C24.2053 11.2974 23.9842 11.8263 24.0237 12.1342C24.0237 12.1342 23.929 12.1579 23.85 11.8895C23.85 11.8895 23.7868 12.3395 23.8816 12.521C23.8816 12.521 23.7079 12.4816 23.6763 12.3474C23.6763 12.3474 23.5421 12.8132 23.7079 13.0105C23.7079 13.0105 23.479 12.9 23.479 12.7816C23.479 12.7816 23.4237 13.3816 23.7158 13.6421C23.7158 13.6421 23.5421 13.6184 23.4237 13.35C23.4237 13.35 23.329 13.8316 23.629 14.0368C23.629 14.0368 23.5026 14.0053 23.3842 13.8868C23.3842 13.8868 23.5026 14.3605 23.6053 14.7789C23.6842 15.1184 23.7632 15.5289 23.7632 15.5289C23.7632 15.5289 23.8105 15.1184 23.8895 14.7868C23.9684 14.4553 24.45 14.0368 24.45 14.0368C24.3079 14.1316 24.1105 14.171 24.1105 14.171C24.45 14.0368 24.529 13.4684 24.529 13.4684V13.4526Z" fill="#35E30B"/>
<path d="M23.6605 13.4132C23.5974 13.7053 23.4395 13.7606 23.4395 13.7606C23.6684 13.4369 23.4868 12.8685 23.4868 12.8685C23.5105 12.979 23.3131 13.1369 23.3131 13.1369C23.4316 12.9159 23.2026 12.4817 23.2026 12.4817C23.2026 12.6238 23.0368 12.6948 23.0368 12.6948C23.1474 12.5369 22.9263 12.0711 22.9263 12.0711C22.9105 12.3475 22.8079 12.3396 22.8079 12.3396C22.7842 12.0317 22.4605 11.5817 22.4605 11.5817C22.4605 11.5817 22.4763 12.158 22.65 12.4185C22.65 12.4185 22.571 12.4817 22.3895 12.2685C22.3895 12.2685 22.5158 12.7106 22.6816 12.829C22.6816 12.829 22.5079 12.8685 22.421 12.758C22.421 12.758 22.5 13.2396 22.7289 13.3422C22.7289 13.3422 22.4763 13.3343 22.4289 13.2317C22.4289 13.2317 22.6342 13.7922 23.0053 13.9185C23.0053 13.9185 22.8395 13.9659 22.6184 13.7764C22.6184 13.7764 22.7289 14.258 23.0921 14.3132C23.0921 14.3132 22.9658 14.3369 22.8079 14.2738C22.8079 14.2738 23.1158 14.6527 23.3842 14.9922C23.5974 15.2606 23.8421 15.608 23.8421 15.608C23.8421 15.608 23.7158 15.2132 23.6447 14.8738C23.5816 14.5343 23.8421 13.958 23.8421 13.958C23.7553 14.108 23.5895 14.2185 23.5895 14.2185C23.8421 13.958 23.6763 13.4053 23.6763 13.4053L23.6605 13.4132Z" fill="#8EFF0C"/>
<path d="M27.75 14.2185C27.75 14.2185 25.65 13.4291 24.6947 14.3369C23.7395 15.2448 23.7553 15.5685 23.7553 15.5685C23.7553 15.5685 24.6237 15.008 25.2158 15.1659C25.7368 15.3001 26.1711 15.1975 26.1711 15.1975C26.1711 15.1975 25.8711 14.8343 25.7921 14.8185C25.7132 14.8027 26.3842 14.8659 26.5263 15.0869C26.5263 15.0869 26.4158 14.6448 26.2026 14.5106C26.2026 14.5106 26.7158 14.6527 26.8342 14.9212C26.8342 14.9212 26.7868 14.5264 26.6289 14.4001C26.6289 14.4001 27.0947 14.4475 27.2132 14.5975C27.2132 14.5975 27.15 14.3685 26.9289 14.2659L27.7421 14.2185H27.75Z" fill="#35E30B"/>
<path d="M26.4079 12.4263C26.4079 12.4263 26.0052 12.4263 25.5552 12.6C25.1052 12.7736 24.6947 13.0026 24.6947 13.0026L24.8684 12.7894C24.8684 12.7894 24.2052 13.05 23.9921 13.7131C23.6052 14.8973 23.7947 15.4894 23.7947 15.4894C23.7947 15.4894 24.0552 14.6289 24.4973 14.5815C24.9395 14.5342 25.1368 14.3605 25.1368 14.3605L24.6237 14.3447C24.6237 14.3447 24.6947 14.1789 25.1289 14.171C25.2789 14.171 25.5947 14.0052 25.5947 14.0052C25.5947 14.0052 25.1763 13.8631 25.1052 13.8868C25.0342 13.9105 25.6105 13.6342 25.8316 13.7447C25.8316 13.7447 25.5316 13.4447 25.2947 13.4368C25.2947 13.4368 25.7842 13.3026 26.0052 13.4526C26.0052 13.4526 25.7763 13.1526 25.5868 13.1368C25.5868 13.1368 25.9895 12.9473 26.1631 13.0105C26.1631 13.0105 26.0052 12.8526 25.7684 12.8763L26.4079 12.4342V12.4263Z" fill="#3CFF0C"/>
<path d="M23.6921 15.4421C23.6921 15.4421 25.0579 16.0737 25.3737 21.3869C25.4053 21.8921 25.2868 23.5185 25.2868 23.5185H24.2684C24.2684 23.5185 24.75 22.0895 24.829 20.0369C24.9474 16.9027 23.6921 15.4421 23.6921 15.4421Z" fill="#B8A158"/>
<path d="M23.8263 15.6553C23.8263 15.7974 23.7158 15.9158 23.5658 15.9158C23.4552 15.9158 23.3684 15.8527 23.3289 15.75C23.3131 15.7185 23.3052 15.6869 23.3052 15.6553C23.3052 15.5132 23.4237 15.3948 23.5658 15.3948C23.6131 15.3948 23.6605 15.4106 23.7 15.4342C23.7789 15.4737 23.8263 15.5606 23.8263 15.6474V15.6553Z" fill="#736437"/>
<path opacity="0.27" d="M23.7237 15.5368C23.7237 15.6789 23.6131 15.7973 23.4631 15.7973C23.4158 15.7973 23.3684 15.7815 23.3289 15.7579C23.3131 15.7263 23.3052 15.6947 23.3052 15.6631C23.3052 15.521 23.4237 15.4026 23.5658 15.4026C23.6131 15.4026 23.6605 15.4184 23.7 15.4421C23.7158 15.4736 23.7237 15.5052 23.7237 15.5368Z" fill="#B39C56"/>
<path opacity="0.27" d="M23.4316 15.5054C23.4316 15.5054 23.3842 15.6001 23.3605 15.5922C23.2816 15.5606 23.471 15.379 23.5105 15.4264C23.55 15.4738 23.4631 15.4738 23.4316 15.5054Z" fill="#EBCC71"/>
<path d="M24.371 15.5368C24.371 15.6789 24.2605 15.7973 24.1105 15.7973C24 15.7973 23.9131 15.7341 23.8737 15.6315C23.8579 15.5999 23.85 15.5684 23.85 15.5368C23.85 15.3947 23.9684 15.2762 24.1105 15.2762C24.1579 15.2762 24.2052 15.292 24.2447 15.3157C24.3237 15.3552 24.371 15.442 24.371 15.5289V15.5368Z" fill="#736437"/>
<path opacity="0.27" d="M24.2684 15.4184C24.2684 15.5605 24.1579 15.6789 24.0079 15.6789C23.9605 15.6789 23.9131 15.6631 23.8737 15.6394C23.8579 15.6079 23.85 15.5763 23.85 15.5447C23.85 15.4026 23.9684 15.2842 24.1105 15.2842C24.1579 15.2842 24.2052 15.3 24.2447 15.3237C24.2605 15.3552 24.2684 15.3868 24.2684 15.4184Z" fill="#B39C56"/>
<path opacity="0.27" d="M23.9842 15.3948C23.9842 15.3948 23.9368 15.4895 23.9132 15.4816C23.8342 15.45 24.0237 15.2685 24.0632 15.3158C24.1026 15.3632 24.0158 15.3632 23.9842 15.3948Z" fill="#EBCC71"/>
<path d="M24.0473 15.3079C24.0473 15.45 23.9368 15.5684 23.7868 15.5684C23.6763 15.5684 23.5894 15.5053 23.55 15.4026C23.5342 15.371 23.5263 15.3395 23.5263 15.3079C23.5263 15.1658 23.6447 15.0474 23.7868 15.0474C23.8342 15.0474 23.8815 15.0632 23.921 15.0868C24 15.1263 24.0473 15.2132 24.0473 15.3V15.3079Z" fill="#736437"/>
<path opacity="0.27" d="M23.9526 15.1895C23.9526 15.3316 23.8421 15.45 23.6921 15.45C23.6447 15.45 23.5973 15.4342 23.5579 15.4106C23.5421 15.379 23.5342 15.3474 23.5342 15.3158C23.5342 15.1737 23.6526 15.0553 23.7947 15.0553C23.8421 15.0553 23.8894 15.0711 23.9289 15.0948C23.9447 15.1264 23.9526 15.1579 23.9526 15.1895Z" fill="#B39C56"/>
<path opacity="0.27" d="M23.6605 15.1659C23.6605 15.1659 23.6131 15.2606 23.5895 15.2527C23.5105 15.2211 23.7 15.0396 23.7395 15.0869C23.7789 15.1343 23.6921 15.1343 23.6605 15.1659Z" fill="#EBCC71"/>
<path d="M20.0289 18.7502C20.1237 18.8133 20.1474 18.9317 20.0921 19.0265C20.0447 19.0975 19.9658 19.1291 19.8868 19.1133C19.8632 19.1133 19.8395 19.0975 19.8158 19.0896C19.721 19.0344 19.6974 18.9081 19.7526 18.8133C19.7763 18.7817 19.8 18.7581 19.8395 18.7423C19.8947 18.7107 19.9737 18.7107 20.0289 18.7502Z" fill="#736437"/>
<path opacity="0.27" d="M19.9026 18.7659C19.9974 18.8211 20.0211 18.9475 19.9658 19.0422C19.9421 19.0738 19.9184 19.0975 19.879 19.1132C19.8553 19.1132 19.8316 19.0975 19.8079 19.0896C19.7132 19.0343 19.6895 18.908 19.7448 18.8132C19.7684 18.7817 19.7921 18.758 19.8316 18.7422C19.8553 18.7422 19.879 18.758 19.9026 18.7659Z" fill="#B39C56"/>
<path opacity="0.27" d="M19.7684 18.9475C19.7684 18.9475 19.8079 19.0185 19.7921 19.0264C19.7368 19.0659 19.7052 18.8685 19.7447 18.8606C19.7842 18.8527 19.7526 18.908 19.7605 18.9475H19.7684Z" fill="#EBCC71"/>
<path d="M20.5816 18.0633C20.6763 18.1264 20.7 18.2448 20.6447 18.3396C20.5974 18.4106 20.5184 18.4422 20.4395 18.4264C20.4158 18.4264 20.3921 18.4106 20.3684 18.4027C20.2737 18.3475 20.25 18.2212 20.3053 18.1264C20.329 18.0948 20.3526 18.0712 20.3921 18.0554C20.4474 18.0238 20.5263 18.0238 20.5816 18.0633Z" fill="#736437"/>
<path opacity="0.27" d="M20.4632 18.079C20.5579 18.1342 20.5816 18.2606 20.5263 18.3553C20.5026 18.3869 20.479 18.4106 20.4395 18.4263C20.4158 18.4263 20.3921 18.4106 20.3684 18.4027C20.2737 18.3474 20.25 18.2211 20.3053 18.1263C20.329 18.0948 20.3526 18.0711 20.3921 18.0553C20.4158 18.0553 20.4395 18.0711 20.4632 18.079Z" fill="#B39C56"/>
<path opacity="0.27" d="M20.329 18.2606C20.329 18.2606 20.3684 18.3316 20.3526 18.3395C20.2974 18.379 20.2658 18.1816 20.3053 18.1737C20.3447 18.1658 20.3132 18.2211 20.3211 18.2606H20.329Z" fill="#EBCC71"/>
<path d="M17.4079 20.8106C17.4079 20.8106 17.7 19.0422 18.7816 18.7895C19.8632 18.5369 20.3447 18.6869 20.3447 18.6869C20.3447 18.6869 19.5395 19.0343 19.3263 19.508C19.1447 19.9185 18.8526 20.1711 18.8526 20.1711C18.8526 20.1711 18.7737 19.808 18.8053 19.7448C18.8368 19.6816 18.529 20.1632 18.6 20.3606C18.6 20.3606 18.3711 20.0922 18.3947 19.8948C18.3947 19.8948 18.2211 20.3053 18.3316 20.5027C18.3316 20.5027 18.1026 20.2974 18.1026 20.1395C18.1026 20.1395 17.8895 20.479 17.929 20.629C17.929 20.629 17.8105 20.4869 17.8579 20.2895L17.4079 20.8185V20.8106Z" fill="#35E30B"/>
<path d="M16.9658 19.0027C16.9658 19.0027 17.1711 18.75 17.5105 18.5369C17.85 18.3237 18.2132 18.1658 18.2132 18.1658L17.9842 18.1816C17.9842 18.1816 18.4974 17.8737 19.05 18.0316C20.0526 18.3158 20.3605 18.6948 20.3605 18.6948C20.3605 18.6948 19.6421 18.4816 19.3895 18.7421C19.1368 19.0027 18.9237 19.05 18.9237 19.05L19.1684 18.7106C19.1684 18.7106 19.0184 18.679 18.7974 18.9553C18.7184 19.05 18.4579 19.1764 18.4579 19.1764C18.4579 19.1764 18.5684 18.8448 18.6237 18.8132C18.6789 18.7816 18.1974 19.0185 18.1658 19.2158C18.1658 19.2158 18.1105 18.8921 18.2211 18.7343C18.2211 18.7343 17.8816 18.9869 17.8816 19.1921C17.8816 19.1921 17.7947 18.9158 17.8737 18.7895C17.8737 18.7895 17.5421 18.9632 17.5026 19.0974C17.5026 19.0974 17.4789 18.9237 17.6053 18.7895L16.9816 19.0027H16.9658Z" fill="#3CFF0C"/>
<path d="M20.2816 16.9737C20.2263 17.2185 20.0763 17.2895 20.0763 17.2895C20.2895 16.9974 20.1316 16.5632 20.1316 16.5632C20.1474 16.65 19.9658 16.8079 19.9658 16.8079C20.0763 16.6106 19.8711 16.2948 19.8711 16.2948C19.8711 16.4132 19.7211 16.4922 19.7211 16.4922C19.8237 16.35 19.6263 16.0027 19.6263 16.0027C19.6026 16.2316 19.5158 16.2316 19.5158 16.2316C19.5 15.979 19.2079 15.6632 19.2079 15.6632C19.2079 15.6632 19.2158 16.129 19.3737 16.3185C19.3737 16.3185 19.3026 16.3816 19.1368 16.2316C19.1368 16.2316 19.2474 16.5711 19.3974 16.6501C19.3974 16.6501 19.2395 16.7053 19.1605 16.6264C19.1605 16.6264 19.2237 17.0053 19.4289 17.0606C19.4289 17.0606 19.2 17.0843 19.1526 17.0132C19.1526 17.0132 19.3342 17.4395 19.6737 17.4869C19.6737 17.4869 19.5237 17.55 19.3184 17.4237C19.3184 17.4237 19.4211 17.7948 19.7447 17.7948C19.7447 17.7948 19.6342 17.8343 19.4842 17.7948C19.4842 17.7948 19.7605 18.0632 20.0053 18.3001C20.1947 18.4895 20.4158 18.7343 20.4158 18.7343C20.4158 18.7343 20.3053 18.4343 20.2421 18.1658C20.1868 17.8974 20.4316 17.4001 20.4316 17.4001C20.3447 17.5343 20.1947 17.6448 20.1947 17.6448C20.4316 17.4001 20.2895 16.9737 20.2895 16.9737H20.2816Z" fill="#35E30B"/>
<path d="M19.2947 17.4317C19.3974 17.637 19.3184 17.7554 19.3184 17.7554C19.3105 17.4475 18.9316 17.187 18.9316 17.187C18.9947 17.2501 18.9474 17.4396 18.9474 17.4396C18.9158 17.2422 18.5684 17.0922 18.5684 17.0922C18.6316 17.1791 18.5684 17.3054 18.5684 17.3054C18.5684 17.1554 18.2132 16.9738 18.2132 16.9738C18.3316 17.1554 18.2605 17.1949 18.2605 17.1949C18.1026 17.0133 17.6921 16.887 17.6921 16.887C17.6921 16.887 17.9763 17.2343 18.2053 17.3133C18.2053 17.3133 18.1895 17.3843 17.9763 17.3449C17.9763 17.3449 18.2605 17.558 18.4184 17.5501C18.4184 17.5501 18.3316 17.6528 18.2211 17.6291C18.2211 17.6291 18.4895 17.8896 18.6868 17.8501C18.6868 17.8501 18.5289 17.9606 18.45 17.9212C18.45 17.9212 18.8368 18.1738 19.129 18.0712C19.129 18.0712 19.05 18.1817 18.8211 18.1659C18.8211 18.1659 19.1132 18.4106 19.3658 18.2764C19.3658 18.2764 19.3026 18.3475 19.1763 18.387C19.1763 18.387 19.5474 18.4738 19.8711 18.5606C20.1316 18.6317 20.4395 18.7185 20.4395 18.7185C20.4395 18.7185 20.1789 18.537 19.9737 18.3633C19.7763 18.1896 19.6579 17.708 19.6579 17.708C19.6737 17.8422 19.6263 17.9922 19.6263 17.9922C19.6579 17.708 19.3026 17.4475 19.3026 17.4475L19.2947 17.4317Z" fill="#8EFF0C"/>
<path d="M22.1921 16.0027C22.1921 16.0027 20.5263 16.5079 20.3684 17.5106C20.2105 18.5132 20.3684 18.7106 20.3684 18.7106C20.3684 18.7106 20.6368 17.9606 21.0789 17.779C21.4658 17.6211 21.6789 17.3527 21.6789 17.3527C21.6789 17.3527 21.3237 17.2737 21.2684 17.2974C21.2132 17.3211 21.6553 17.0448 21.8447 17.1158C21.8447 17.1158 21.5684 16.8948 21.379 16.9106C21.379 16.9106 21.7658 16.7606 21.9632 16.8632C21.9632 16.8632 21.75 16.6422 21.5921 16.6422C21.5921 16.6422 21.9 16.4527 22.05 16.4922C22.05 16.4922 21.9 16.3816 21.7184 16.4211L22.2 16.0027H22.1921Z" fill="#35E30B"/>
<path d="M20.2658 18.6632C20.2658 18.6632 21.7105 18.4974 23.629 21.0395C24.1974 21.7974 24.1974 23.5185 24.1974 23.5185H23.3842C23.3842 23.5185 23.9053 22.208 23.2342 21.0316C22.0263 18.9158 20.2579 18.6711 20.2579 18.6711L20.2658 18.6632Z" fill="#B8A158"/>
<path d="M20.4473 18.7343C20.5184 18.8212 20.4947 18.9475 20.4079 19.0186C20.3447 19.0659 20.25 19.0738 20.1868 19.0264C20.1631 19.0186 20.1473 18.9949 20.1316 18.9791C20.0684 18.8922 20.0842 18.7659 20.171 18.6949C20.2026 18.6712 20.2342 18.6554 20.2737 18.6554C20.3368 18.6475 20.4079 18.6712 20.4473 18.7343Z" fill="#736437"/>
<path opacity="0.27" d="M20.3289 18.7106C20.3921 18.7974 20.3763 18.9237 20.2894 18.9948C20.2579 19.0185 20.2263 19.0343 20.1868 19.0343C20.1631 19.0264 20.1473 19.0027 20.1316 18.9869C20.0684 18.9001 20.0842 18.7737 20.171 18.7027C20.2026 18.679 20.2342 18.6632 20.2737 18.6632C20.2973 18.6711 20.3131 18.6948 20.3289 18.7106Z" fill="#B39C56"/>
<path opacity="0.27" d="M20.1394 18.829C20.1394 18.829 20.1552 18.908 20.1394 18.9159C20.0763 18.9316 20.1079 18.7343 20.1552 18.7422C20.2026 18.7501 20.1552 18.7895 20.1473 18.829H20.1394Z" fill="#EBCC71"/>
<path d="M20.7395 18.4027C20.8105 18.4895 20.7868 18.6158 20.7 18.6869C20.6368 18.7343 20.5421 18.7422 20.4789 18.6948C20.4552 18.6869 20.4395 18.6632 20.4237 18.6474C20.3605 18.5606 20.3763 18.4343 20.4631 18.3632C20.4947 18.3395 20.5263 18.3237 20.5658 18.3237C20.6289 18.3158 20.7 18.3395 20.7395 18.4027Z" fill="#736437"/>
<path opacity="0.27" d="M20.6132 18.379C20.6763 18.4659 20.6605 18.5922 20.5737 18.6632C20.5421 18.6869 20.5105 18.7027 20.4711 18.7027C20.4474 18.6948 20.4316 18.6711 20.4158 18.6553C20.3526 18.5685 20.3684 18.4422 20.4553 18.3711C20.4868 18.3475 20.5184 18.3317 20.5579 18.3317C20.5816 18.3396 20.5974 18.3632 20.6132 18.379Z" fill="#B39C56"/>
<path opacity="0.27" d="M20.4237 18.5053C20.4237 18.5053 20.4395 18.5842 20.4237 18.5921C20.3605 18.6079 20.3921 18.4105 20.4395 18.4184C20.4868 18.4263 20.4395 18.4658 20.4316 18.5053H20.4237Z" fill="#EBCC71"/>
<path d="M20.4316 18.4185C20.5026 18.5054 20.4789 18.6317 20.3921 18.7028C20.3289 18.7501 20.2342 18.758 20.171 18.7107C20.1474 18.7028 20.1316 18.6791 20.1158 18.6633C20.0526 18.5764 20.0684 18.4501 20.1553 18.3791C20.1868 18.3554 20.2184 18.3396 20.2579 18.3396C20.321 18.3317 20.3921 18.3554 20.4316 18.4185Z" fill="#736437"/>
<path opacity="0.27" d="M20.3053 18.387C20.3684 18.4738 20.3526 18.6001 20.2658 18.6712C20.2342 18.6949 20.2026 18.7107 20.1632 18.7107C20.1395 18.7028 20.1237 18.6791 20.1079 18.6633C20.0447 18.5764 20.0605 18.4501 20.1474 18.3791C20.179 18.3554 20.2105 18.3396 20.25 18.3396C20.2737 18.3475 20.2895 18.3712 20.3053 18.387Z" fill="#B39C56"/>
<path opacity="0.27" d="M20.1158 18.5132C20.1158 18.5132 20.1316 18.5922 20.1158 18.6001C20.0527 18.6159 20.0842 18.4185 20.1316 18.4264C20.179 18.4343 20.1316 18.4737 20.1237 18.5132H20.1158Z" fill="#EBCC71"/>
</g>
<path d="M15.4263 16.6816C14.9921 20.7158 14.1316 24.5132 13.6421 26.5026C13.4131 27.4184 13.2631 27.9632 13.2631 27.9632C13.2631 27.9632 13.0658 28.279 12.7974 28.7447C12.3552 29.5737 11.6921 30.8842 11.471 31.8316C10.8079 31.7447 10.1605 31.6026 9.52893 31.4369C5.3684 30.3 1.86314 27.4816 0.631561 25.0421C7.23946 7.42106 15.2921 4.01843 15.2921 4.01843C15.7737 5.69212 16.0184 11.4158 15.4263 16.6816Z" fill="#B3F4E4"/>
<path d="M63.9316 24.9395C63.0868 26.6131 61.1921 28.4447 58.7526 29.8026C57.0632 30.7342 55.1368 31.4447 53.1079 31.7289C52.8631 30.75 52.0816 29.3763 51.5684 28.5631C51.3158 28.1447 51.1184 27.8526 51.1184 27.8526C51.1184 27.8526 49.7763 22.4605 49.1289 16.5631C48.6789 12.5605 48.7263 8.28156 48.9789 5.73946C49.0579 4.94209 49.1605 4.31051 49.2631 3.91577C49.2631 3.91577 49.2789 3.91577 49.2947 3.93156C49.2947 3.93156 49.3105 3.94735 49.3421 3.96314C50.1395 4.34209 57.7026 8.28156 63.9316 24.9395Z" fill="#B3F4E4"/>
<g style="mix-blend-mode:screen" opacity="0.39">
<path d="M63.9316 24.9395C63.0868 26.6132 61.1921 28.4448 58.7526 29.8027C59.3684 22.0343 54.0079 13.3422 50.6053 7.879C50.5184 7.729 50.4237 7.579 50.3053 7.44479C49.8868 6.78163 49.429 6.229 48.979 5.73952C45.9237 2.55005 42.7421 2.90531 42.7421 2.90531C42.5605 2.33689 42.4263 1.83952 42.3395 1.41321C42.6237 1.47637 42.9 1.54742 43.1684 1.62637C43.7526 1.77637 44.3132 1.94216 44.8263 2.09216C44.8895 2.10794 44.9289 2.12373 44.9763 2.13952C47.2342 2.85005 48.8605 3.53689 49.2947 3.93163C49.2947 3.93163 49.3105 3.94742 49.3421 3.96321C50.1395 4.34216 57.7026 8.28163 63.9316 24.9395Z" fill="#A7F2DF"/>
</g>
<path d="M43.1684 1.62632C43.0263 2.11579 42.8684 2.59737 42.6789 3.05526C42.671 3.07895 42.6632 3.10263 42.6553 3.12632C41.3053 6.48158 38.7 8.91316 33.2447 8.69211C27.1895 8.43158 24.4816 5.04474 23.3053 2.51842C23.2974 2.49474 23.2816 2.47105 23.2737 2.44737C23.0763 2.02105 22.9263 1.61842 22.8079 1.26316C25.5158 0.560526 28.7842 0 32.2658 0C36 0 39.9711 0.757895 43.1684 1.62632Z" fill="#547970"/>
<path d="M44.9684 2.13945C43.9263 7.08945 40.8869 10.6895 33.1342 10.6737H33C25.879 10.6421 22.3105 4.53156 21.0632 1.77629C21.1105 1.74471 21.1658 1.72892 21.229 1.71313C21.2605 1.79998 21.2921 1.87892 21.3316 1.96577C21.7816 2.91313 22.4605 4.17629 23.4395 5.44735C25.3974 7.97366 28.4684 10.5079 33 10.5237H33.1342C40.8474 10.5237 43.8079 7.0184 44.8184 2.09208C44.8816 2.10787 44.9211 2.12366 44.9684 2.13945Z" fill="#E0FFF7"/>
<g style="mix-blend-mode:screen" opacity="0.39">
<path d="M55.3895 56.6922C53.5973 57.2053 51.8368 57.6553 50.1158 58.0343C50.0368 45.9395 48.1895 18.3474 48.1895 18.3474C49.2473 21.7658 51.5605 28.5711 51.5605 28.5711C52.8552 34.8474 55.2789 47.8264 55.3816 56.7L55.3895 56.6922Z" fill="#A7F2DF"/>
</g>
<g style="mix-blend-mode:multiply" opacity="0.42">
<path d="M13.9263 57.8685C12.6789 57.5527 11.55 57.2527 10.5868 56.9527C9.68682 50.479 11.2816 38.1474 12.7974 28.7527C12.3631 29.5817 11.7 30.8922 11.471 31.8395C10.8079 31.7527 10.1605 31.6106 9.52893 31.4448C10.0105 30.6001 13.7131 25.2474 13.95 25.2001C13.95 25.2001 11.0289 48.6948 13.9263 57.8685Z" fill="#93D7C5"/>
</g>
<g style="mix-blend-mode:multiply" opacity="0.28">
<path d="M39.4658 59.6763C28.6737 60.6316 19.7921 59.2974 13.9263 57.8685C12.671 57.5527 11.5421 57.2448 10.5789 56.9448C9.67893 50.4711 11.2737 38.1395 12.7974 28.7448C12.3552 29.5737 11.6921 30.8842 11.471 31.8316C10.8079 31.7448 10.1605 31.6027 9.52893 31.4369C5.3684 30.3 1.86314 27.4816 0.631561 25.0421C7.23946 7.42108 15.2921 4.01845 15.2921 4.01845C15.2921 4.01845 15.4263 3.9474 15.6789 3.82898C17.1474 7.04214 21.4184 15.7106 26.0289 18.3395C31.7368 21.5921 33.9947 22.9185 35.1552 29.8027C36.071 35.2421 38.2816 52.4763 39.4658 59.6763Z" fill="#C4F5F1"/>
</g>
<g style="mix-blend-mode:multiply">
<path d="M42.679 3.05525C42.679 3.05525 42.6632 3.10262 42.6553 3.1263C42.2053 3.00788 41.3684 2.78683 40.2474 2.54209C38.5263 2.17104 36.1658 1.72893 33.5842 1.45261C32.9527 1.38946 32.2974 1.35788 31.6342 1.35788C29.3053 1.35788 26.9369 1.72893 25.1527 2.09209C24.4263 2.24998 23.7948 2.39209 23.3053 2.5184C23.2974 2.49472 23.2816 2.47104 23.2737 2.44735C24.9711 2.01314 28.3342 1.27893 31.6342 1.27893C32.2974 1.27893 32.9527 1.31051 33.5921 1.37367C37.8632 1.82367 41.5342 2.74735 42.679 3.05525Z" fill="#B4CCC6"/>
</g>
</svg>
