<svg width="78" height="70" viewBox="0 0 78 70" fill="none" xmlns="http://www.w3.org/2000/svg">
<path d="M77.153 41.3504C76.137 41.2738 75.1488 41.3295 74.2163 41.4687C70.6464 41.9975 67.9045 43.7234 67.9045 43.7234C56.5962 34.0922 46.8885 38.525 46.8885 38.525C38.7117 29.6593 23.2001 28.358 23.2001 28.358C20.2147 18.351 5.3156 16.82 5.3156 16.82C5.02333 14.4818 3.61762 12.1506 2.39284 10.5083C1.38379 9.14431 0.5 8.26052 0.5 8.26052L31.4465 5.83184L48.2663 4.5166L61.05 20.8145L77.153 41.3504Z" fill="#BAEDF3"/>
<path d="M34.3554 12.9231L31.8015 17.182C31.8015 17.182 23.8892 25.7693 23.2002 28.365C20.2148 18.3511 5.31567 16.8201 5.31567 16.8201C5.31567 16.8201 11.1195 9.17221 16.7005 7.26546C22.2816 5.3587 34.3554 12.9161 34.3554 12.9161V12.9231Z" fill="#54D2E0"/>
<path d="M67.9046 43.7237C56.5963 34.0925 46.8885 38.5253 46.8885 38.5253C46.8885 38.5253 50.8621 22.4014 49.3311 18.2747C47.8071 14.1481 68.0507 31.4202 68.0507 31.4202C68.0507 31.4202 68.5866 40.9749 67.8976 43.7237H67.9046Z" fill="#54D2E0"/>
<path d="M47.9115 2.21287L20.8063 65.9987C20.6463 66.3814 20.8202 66.8198 21.203 66.9799C21.5857 67.1399 22.0241 66.966 22.1842 66.5832L49.2894 2.79742C49.4494 2.41468 49.2754 1.97626 48.8927 1.81621C48.51 1.65615 48.0715 1.83012 47.9115 2.21287Z" fill="#EDA649"/>
<g style="mix-blend-mode:multiply" opacity="0.21">
<path d="M77.153 41.3506C76.137 41.274 75.1488 41.3297 74.2163 41.4689C66.9233 34.4194 54.5364 32.2622 54.5364 32.2622C41.8432 18.1216 20.9037 17.6344 20.9037 17.6344C20.9037 17.6344 20.8271 16.8968 16.8536 14.141C13.6107 11.8933 5.32952 10.8216 2.39284 10.5015C1.38379 9.1445 0.5 8.26071 0.5 8.26071L31.4465 5.83203L61.05 20.8147L77.153 41.3506Z" fill="#000AD1"/>
</g>
<path d="M77.153 41.3502C77.153 41.3502 72.2609 35.8039 67.6749 32.8672C63.0889 29.9306 57.6609 28.3578 57.6609 28.3578C57.4661 28.1769 51.0221 22.4914 41.8502 18.6501C32.5252 14.7531 23.2001 13.4518 23.2001 13.4518C23.2001 13.4518 20.2217 11.6981 16.0185 10.0906C11.8083 8.49002 0.5 8.26037 0.5 8.26037C0.5 8.26037 3.79855 5.76907 9.44923 3.52828C17.118 0.480261 29.1153 -2.12239 43.0958 2.56099C44.5711 3.05507 46.0603 3.62571 47.5774 4.28681C49.4424 5.10101 51.1821 5.9848 52.8245 6.92425C64.2859 13.5213 70.4446 22.909 73.7014 30.2089C76.5337 36.5694 77.16 41.3433 77.16 41.3433L77.153 41.3502Z" fill="#78DCE7"/>
<path d="M57.661 28.3574C57.4661 28.1765 51.0221 22.491 41.8502 18.6497C32.5252 14.7526 23.2002 13.4513 23.2002 13.4513C23.2002 13.4513 28.4125 6.23488 36.1091 3.52089C38.2664 2.7554 40.6115 2.35178 43.0959 2.55359C44.6199 2.67886 46.1926 3.0268 47.8071 3.66703C49.8391 4.48123 51.4884 5.60162 52.8176 6.91686C55.7125 9.79091 57.1043 13.6044 57.7097 17.2231C58.6909 23.0477 57.654 28.3435 57.654 28.3435L57.661 28.3574Z" fill="#E3F8FA"/>
<g style="mix-blend-mode:overlay" opacity="0.46">
<path d="M73.6944 30.2159C67.5984 19.6104 57.7166 17.2444 57.7166 17.2444C51.3909 4.42599 36.109 3.52828 36.109 3.52828C29.9016 -1.44737 9.87375 3.4239 9.45621 3.52828C17.118 0.480261 29.1153 -2.12239 43.0958 2.56099C44.6199 2.68625 46.1926 3.0342 47.8071 3.67442C49.8391 4.48862 51.4884 5.60901 52.8175 6.92425C64.2789 13.5213 70.4376 22.909 73.6944 30.2089V30.2159Z" fill="#F5FCFD"/>
</g>
<path d="M24.07 62.1363C24.2719 62.2477 24.2301 62.3868 24.1188 62.693C22.7757 66.3395 20.7576 71.4961 15.8376 69.5894C12.553 68.3159 11.9406 65.407 12.8522 62.1572C13.0122 61.5796 13.6386 61.2734 14.2022 61.4752C14.7172 61.6631 14.9886 62.2268 14.8285 62.7487C14.1814 64.9408 14.3344 66.7083 16.5544 67.6408C19.1988 68.7473 21.1403 64.6067 22.1842 61.9623C22.3581 61.517 22.5391 61.4683 22.6922 61.5587C22.6922 61.5587 22.8313 61.8092 23.2419 62.0111C23.6525 62.2129 24.077 62.1363 24.077 62.1363H24.07Z" fill="#DB5F00"/>
</svg>
