<svg width="76" height="70" viewBox="0 0 76 70" fill="none" xmlns="http://www.w3.org/2000/svg">
<path d="M66.8382 43.293C60.8543 38.2545 55.323 37.1884 51.7327 37.1884C48.6955 37.1884 46.6339 37.9125 46.0506 38.1539C38.4073 30.0078 24.3981 28.3182 22.6884 28.1472C19.8021 18.9451 6.75826 16.9438 4.9983 16.7125C4.64631 14.3692 3.22828 12.0661 2.0818 10.5274C1.45827 9.6927 0.895082 9.03899 0.543091 8.65683L47.2373 4.99609L75.4469 40.9699C75.3161 40.9699 75.1854 40.9699 75.0446 40.9699C74.3809 40.9699 73.707 41.0201 73.0332 41.1207C69.9257 41.5833 67.4818 42.9209 66.8382 43.293Z" fill="white"/>
<path d="M47.1166 5.25831L59.6274 21.2087L74.9239 40.7192C74.2903 40.7192 73.6467 40.7795 72.993 40.8801C70.0564 41.3125 67.693 42.5294 66.8583 43.0021C60.8644 38.0138 55.3331 36.9478 51.7226 36.9478C48.8765 36.9478 46.8752 37.5814 46.1008 37.863C38.4878 29.8677 25.2127 28.158 22.8694 27.9167C19.9026 18.8553 7.61307 16.8138 5.19942 16.4919C4.79714 14.1688 3.39923 11.906 2.2628 10.3874C1.81024 9.77389 1.38785 9.26099 1.04592 8.87882L30.6937 6.55566L47.0965 5.26837M47.3479 4.73535L30.6735 6.04276L0 8.44637C0 8.44637 0.87495 9.32133 1.88064 10.679C3.08747 12.3082 4.48538 14.6213 4.77703 16.9344C4.77703 16.9344 19.5506 18.443 22.5073 28.3692C22.5073 28.3692 37.8843 29.6565 45.9902 38.4463C45.9902 38.4463 48.2027 37.4406 51.7428 37.4406C55.5845 37.4406 60.9951 38.6273 66.8281 43.6055C66.8281 43.6055 69.5435 41.8958 73.0835 41.3729C73.7171 41.2723 74.3808 41.222 75.0647 41.222C75.3765 41.222 75.6882 41.2321 76 41.2622L60.0397 20.907L47.368 4.74541L47.3479 4.73535Z" fill="black"/>
<path d="M22.5174 27.6347C19.45 19.1969 7.68345 17.095 5.23962 16.743C6.4364 15.2445 11.4146 9.32098 16.1312 7.70181C16.6944 7.51073 17.3682 7.41016 18.1225 7.41016C23.4828 7.41016 31.7798 12.2878 33.2079 13.1527L30.8043 17.1554C30.5327 17.4369 24.0259 24.517 22.5174 27.6347Z" fill="white"/>
<path d="M18.1427 7.66134C23.2114 7.66134 30.9954 12.1166 32.876 13.243L30.6233 16.9841C30.0601 17.5976 24.4282 23.7625 22.5577 27.0311C19.3193 19.1967 8.88027 17.0344 5.7224 16.5517C7.27116 14.661 11.8672 9.43137 16.2218 7.93288C16.7649 7.75186 17.4085 7.65129 18.1326 7.65129M18.1427 7.15849C17.3884 7.15849 16.6844 7.24901 16.071 7.4602C10.5397 9.35091 4.78711 16.9339 4.78711 16.9339C4.78711 16.9339 19.5607 18.4424 22.5174 28.3686C23.2013 25.794 31.0457 17.2859 31.0457 17.2859L33.58 13.0619C33.58 13.0619 24.1466 7.14844 18.1527 7.14844L18.1427 7.15849Z" fill="black"/>
<path d="M66.6572 43.1329C60.7437 38.2251 55.2929 37.1893 51.7327 37.1893C49.0777 37.1893 47.1769 37.7424 46.3422 38.0441C46.9959 35.3187 50.0432 22.0535 48.6453 18.2922C48.5547 18.0609 48.5849 17.9805 48.5849 17.9805C50.2544 18.0006 60.3113 26.0663 66.7276 31.5272C66.7778 32.5329 67.16 40.2365 66.6572 43.143V43.1329Z" fill="white"/>
<path d="M48.9168 18.3115C51.1997 19.0759 60.6331 26.6789 66.4761 31.6471C66.5465 32.9344 66.8583 39.6323 66.4761 42.6695C60.6331 37.9528 55.2627 36.9471 51.7327 36.9471C49.4297 36.9471 47.6798 37.3594 46.6942 37.6712C47.5088 34.2116 50.184 22.103 48.9269 18.3216M48.6151 17.7383C48.3335 17.7383 48.253 17.9294 48.4139 18.3719C49.9325 22.4651 45.9902 38.4456 45.9902 38.4456C45.9902 38.4456 48.2028 37.4399 51.7428 37.4399C55.5845 37.4399 60.9951 38.6266 66.8281 43.6048C67.512 40.8794 66.979 31.4057 66.979 31.4057C66.979 31.4057 50.9583 17.7483 48.6251 17.7483L48.6151 17.7383Z" fill="black"/>
<path d="M46.9959 2.45213L20.1239 65.6803C19.963 66.0524 20.144 66.4949 20.5161 66.6558C20.8882 66.8167 21.3307 66.6357 21.4916 66.2636L48.3636 3.03543C48.5246 2.66332 48.3435 2.22082 47.9714 2.05991C47.5993 1.89899 47.1568 2.08002 46.9959 2.45213Z" fill="white"/>
<path d="M46.9959 2.45224L46.8149 2.37178L19.9428 65.5999C19.8926 65.7206 19.8724 65.8413 19.8724 65.972C19.8724 66.3341 20.0836 66.6861 20.4457 66.8369C20.5664 66.8872 20.687 66.9073 20.8178 66.9073C21.1798 66.9073 21.5318 66.6961 21.6827 66.3341L48.5447 3.116C48.5949 2.99532 48.6151 2.87463 48.6151 2.74389C48.6151 2.38184 48.4039 2.02985 48.0418 1.87899C47.9211 1.82871 47.8005 1.80859 47.6697 1.80859C47.3077 1.80859 46.9557 2.01979 46.8048 2.38184L46.9858 2.4623L47.1669 2.54275C47.2574 2.34161 47.4585 2.21087 47.6697 2.21087L47.8809 2.2511C48.082 2.34161 48.2128 2.54275 48.2128 2.75395L48.1726 2.96514L21.3005 66.1933C21.21 66.3944 21.0089 66.5251 20.7977 66.5251L20.5865 66.4849C20.3853 66.3944 20.2546 66.1933 20.2546 65.9821L20.2948 65.7709L47.1769 2.53269L46.9959 2.45224Z" fill="black"/>
<path d="M75.5977 40.4472C74.1697 38.9085 70.338 34.936 66.7276 32.6229C62.4433 29.8774 57.3545 28.3085 56.7913 28.1375C56.2181 27.6347 49.8923 22.1938 41.0825 18.513C31.9307 14.6914 22.6683 13.3638 22.5375 13.3437C22.5778 13.3437 19.5909 11.5938 15.4675 10.0249C11.8973 8.65717 3.37914 8.29512 0.764343 8.21467C1.95106 7.42017 4.81727 5.64009 8.92049 4.0008H8.9406L8.97077 3.98069L9.12163 3.92034C14.8842 1.65753 20.858 0.500977 26.8821 0.500977C32.0011 0.500977 37.1402 1.34576 42.1384 3.02527C43.5967 3.50801 45.0851 4.08126 46.5635 4.7249C48.3335 5.49929 50.0834 6.37424 51.7428 7.32966C63.2479 13.9471 69.2921 23.4711 72.3292 30.2998C74.411 34.9763 75.286 38.808 75.5977 40.4372V40.4472Z" fill="white"/>
<path d="M26.8821 0.259766V0.762614C31.9709 0.762614 37.0798 1.6074 42.058 3.27685C43.5062 3.75959 44.9845 4.33284 46.4528 4.97648C48.2128 5.75087 49.9526 6.61577 51.602 7.57118C63.0568 14.1585 69.0607 23.6322 72.0879 30.4206C73.8478 34.373 74.7429 37.722 75.1552 39.6328C73.4254 37.8125 70.0866 34.5037 66.8482 32.4219C62.5841 29.6965 57.6964 28.1678 56.8919 27.9265C56.0873 27.2225 49.832 21.9225 41.1629 18.2919C32.4737 14.6613 23.6739 13.2735 22.6481 13.1226C22.1252 12.8209 19.2992 11.242 15.5379 9.80382C12.2392 8.5467 4.8072 8.12431 1.54876 8.00363C2.96679 7.10856 5.51118 5.64024 8.95064 4.26244H8.99087L9.06127 4.22221L9.1015 4.2021C14.854 1.91916 20.8278 0.772671 26.862 0.772671V0.269823M26.8821 0.259766C19.6512 0.259766 13.4762 1.92922 8.87019 3.75959C3.26849 5.98218 0 8.44613 0 8.44613C0 8.44613 11.2134 8.67744 15.377 10.2664C19.5406 11.8554 22.4973 13.5953 22.4973 13.5953C22.4973 13.5953 31.7396 14.8826 40.9819 18.7445C50.0834 22.546 56.4594 28.188 56.6606 28.3589C56.6606 28.3589 62.041 29.9178 66.5867 32.8343C71.1325 35.7508 75.9799 41.2419 75.9799 41.2419C75.9799 41.2419 75.3564 36.5051 72.5505 30.1993C69.3222 22.9583 63.2177 13.6556 51.8534 7.11862C50.2342 6.18332 48.5044 5.30836 46.654 4.5038C45.1555 3.8501 43.6671 3.27686 42.2088 2.79412C36.7379 0.963754 31.5787 0.259766 26.872 0.259766" fill="black"/>
<path d="M56.4896 27.8965C55.152 26.76 49.1581 21.8924 41.0824 18.5133C33.0269 15.1442 24.8808 13.7161 22.9599 13.4044C24.0863 11.9763 28.8532 6.28404 35.3802 3.98099C37.2508 3.31723 39.1314 2.98535 40.9718 2.98535C41.3741 2.98535 41.7864 3.00547 42.1988 3.03564C43.7375 3.15632 45.2862 3.52843 46.7948 4.12179C48.6653 4.866 50.3147 5.93204 51.6824 7.28973C54.1363 9.72352 55.7454 13.1228 56.4594 17.3668V17.4473H56.4796C57.2539 22.164 56.6908 26.5287 56.4796 27.8763L56.4896 27.8965Z" fill="white"/>
<path d="M40.9719 3.24699C41.3741 3.24699 41.7865 3.2671 42.1787 3.29727C43.6973 3.41796 45.2159 3.78001 46.7043 4.37337C48.5447 5.10753 50.1639 6.15345 51.5014 7.48097C53.9151 9.87453 55.494 13.2034 56.2081 17.3871V17.558L56.2483 17.5882C56.9322 21.792 56.5399 25.7243 56.3086 27.4139C54.3978 25.845 48.6956 21.43 41.1831 18.2922C33.6001 15.1243 25.9368 13.666 23.4226 13.2436C24.9009 11.4334 29.4265 6.3747 35.4607 4.24263C37.3011 3.58893 39.1516 3.25705 40.9719 3.25705M40.9719 2.74414C38.9705 2.74414 37.0698 3.12631 35.2998 3.75989C27.6666 6.45516 22.5074 13.6057 22.5074 13.6057C22.5074 13.6057 31.7497 14.893 40.992 18.7548C50.0935 22.5564 56.4695 28.1983 56.6707 28.3793C56.6707 28.3793 57.6965 23.1296 56.721 17.3569C56.1176 13.7666 54.7398 9.98515 51.8735 7.12898C50.5561 5.82157 48.9168 4.71531 46.9054 3.91075C45.3064 3.27716 43.7476 2.92517 42.239 2.80448C41.8166 2.77431 41.4043 2.7542 40.992 2.7542L40.9719 2.74414Z" fill="black"/>
<path d="M23.3622 61.8586C23.5633 61.9692 23.5231 62.11 23.4125 62.4118C22.085 66.0323 20.0736 71.1311 15.2061 69.2505C11.9476 67.9934 11.3442 65.107 12.2393 61.8787C12.4002 61.3055 13.0237 61.0038 13.5768 61.2049C14.0897 61.396 14.3512 61.9491 14.2004 62.4721C13.5567 64.6444 13.7076 66.3943 15.91 67.3195C18.5349 68.4158 20.4558 64.3125 21.4916 61.6876C21.6626 61.2451 21.8436 61.1949 21.9945 61.2854C21.9945 61.2854 22.1353 61.5368 22.5375 61.7279C22.9398 61.929 23.3622 61.8486 23.3622 61.8486V61.8586Z" fill="white"/>
<path d="M23.3622 61.8578L23.2616 62.0287L23.3018 62.0589H23.3119H23.2918H23.3018H23.2817V62.0689C23.2817 62.0991 23.2616 62.1997 23.2013 62.3405C22.6381 63.8792 21.9542 65.6794 20.9887 67.0773C20.0233 68.4752 18.8164 69.4508 17.1671 69.4608C16.5939 69.4608 15.9603 69.3401 15.2563 69.0686C12.9533 68.1635 12.0582 66.494 12.0481 64.4022C12.0481 63.6278 12.1789 62.7931 12.4203 61.9382C12.5208 61.5762 12.8527 61.3449 13.2047 61.3449C13.2952 61.3449 13.3958 61.365 13.4863 61.3951C13.8182 61.5158 14.0193 61.8276 14.0193 62.1695L13.9791 62.4109C13.7679 63.1249 13.6371 63.7987 13.6371 64.4223C13.6271 65.7397 14.2506 66.8661 15.8094 67.4997C16.1313 67.6304 16.443 67.7009 16.7548 67.7009C17.9616 67.7009 18.9472 66.7555 19.7517 65.5788C20.5563 64.3921 21.1899 62.9339 21.6525 61.7672C21.7128 61.6164 21.7631 61.5259 21.8033 61.4856L21.8436 61.4555H21.8637L21.9643 61.2845L21.7933 61.3851C21.7933 61.3851 21.9743 61.6968 22.4269 61.908C22.6984 62.0388 22.9599 62.0689 23.1409 62.0689C23.2817 62.0689 23.3722 62.0488 23.3722 62.0488L23.342 61.8477L23.3119 61.6466H23.2717L23.1409 61.6566C23.0001 61.6566 22.7889 61.6365 22.6079 61.5359C22.4269 61.4454 22.3062 61.3549 22.2358 61.2745L22.1654 61.194V61.1739H22.1553L22.1252 61.1236L22.0849 61.0934L21.8536 61.023C21.7229 61.023 21.6022 61.0834 21.5218 61.1839C21.4312 61.2845 21.3608 61.4152 21.2904 61.5862C20.8379 62.7428 20.2043 64.1809 19.4299 65.3274C18.6555 66.4739 17.7404 67.2785 16.7648 67.2785C16.5134 67.2785 16.2519 67.2282 15.9703 67.1075C14.5322 66.494 14.0595 65.5989 14.0495 64.4022C14.0495 63.8289 14.1702 63.1953 14.3713 62.5014C14.4115 62.3807 14.4216 62.26 14.4216 62.1393C14.4216 61.6365 14.1199 61.1739 13.6271 60.9828C13.4863 60.9325 13.3455 60.9023 13.2047 60.9023C12.6717 60.9023 12.1789 61.2443 12.028 61.7874C11.7766 62.6724 11.6459 63.5373 11.6459 64.3619C11.6459 66.5745 12.6717 68.4652 15.1155 69.4005C15.8597 69.6921 16.5436 69.8229 17.1772 69.8229C18.9975 69.8229 20.335 68.7166 21.3307 67.2684C22.3263 65.8101 23.0202 63.9898 23.5935 62.4511C23.6438 62.3003 23.694 62.1796 23.7041 62.0388L23.6337 61.8075L23.4527 61.6566L23.3923 61.6264H23.3219L23.3521 61.8376L23.3622 61.8578Z" fill="black"/>
</svg>
