<svg width="76" height="63" viewBox="0 0 76 63" fill="none" xmlns="http://www.w3.org/2000/svg">
<path d="M75.0216 39.0117C74.8886 39.4391 75.3825 40.0566 75.4775 41.4435C75.525 42.0514 75.487 42.8114 75.2876 43.7708C75.1926 44.2268 75.0691 44.7302 74.8886 45.2812C74.7651 45.6516 74.5466 46.1171 74.2142 46.6491C74.0527 46.9245 73.8532 47.2095 73.6442 47.523C72.9697 48.4824 72.0483 49.5938 70.9179 50.7337C70.9179 50.7337 70.9179 50.7432 70.9084 50.7432C70.329 51.3417 69.702 51.9306 69.0086 52.5291C67.4792 53.8685 65.6838 55.1983 63.6605 56.3572C63.4135 56.4997 63.1666 56.6327 62.9196 56.7657C60.3548 58.1526 57.4576 59.2545 54.3038 59.7865C51.3021 60.2899 48.1958 62.3892 39.4755 62.2373C39.352 62.2373 39.2286 62.2373 39.1051 62.2373C37.5757 62.1993 35.8753 62.0948 33.9755 61.9048C32.7786 61.7813 31.5912 61.5628 30.4323 61.2683C30.2803 61.2303 30.1378 61.1923 29.9953 61.1448C24.8562 59.7295 20.0782 56.7752 16.117 53.631C16.0885 53.612 16.079 53.6025 16.0695 53.6025C12.6498 50.8857 9.838 48.0549 7.94766 45.9936C7.86216 45.8986 7.77668 45.8036 7.69119 45.7181C7.5582 45.5661 7.42521 45.4237 7.30172 45.2812C7.17823 45.1577 7.13074 45.0912 7.13074 45.0912C6.74127 44.6542 6.40879 44.2742 6.14281 43.9608C5.00291 42.6404 4.15749 40.6741 3.54004 38.6982C3.49254 38.5462 3.44502 38.3942 3.39753 38.2423C2.39061 34.851 2.03915 31.5643 2.03915 31.5643C0.642764 29.3415 -0.117169 26.4252 0.0538168 23.49C0.0538168 23.338 0.0728233 23.186 0.0918217 23.0435C0.11082 22.7585 0.148803 22.4736 0.196299 22.1981C0.338787 21.2482 0.585766 20.3172 0.937236 19.4053C1.13672 18.9019 1.45021 18.3889 1.83967 17.8759C1.91567 17.781 1.99166 17.6765 2.07715 17.572C2.19114 17.439 2.30513 17.2965 2.42862 17.154C2.57111 16.9925 2.72311 16.831 2.88459 16.6695C4.32847 15.1782 6.2758 13.6868 7.98566 12.3474C8.14715 12.2239 8.30864 12.0909 8.47013 11.9674C8.61262 11.8439 8.73609 11.749 8.86908 11.635C9.01157 11.521 9.14456 11.4165 9.28705 11.3025C9.895 10.8085 10.7974 9.86811 12.0133 8.7567C12.0893 8.68071 12.1558 8.62372 12.2318 8.55722C14.7016 6.32491 18.3968 3.44665 23.5169 1.85078C23.7734 1.77479 24.0298 1.69879 24.2958 1.6323H24.3053C26.3381 1.07184 28.58 0.710875 31.0592 0.672879C34.251 0.625382 37.1767 0.710874 39.865 0.929356C40.302 0.967353 40.7389 1.00535 41.1759 1.05285C52.2425 2.12626 59.0819 5.31799 63.4515 8.99418C63.6605 9.16517 63.86 9.33616 64.0595 9.51664C64.0595 9.51664 64.0595 9.51664 64.069 9.52614C64.411 9.83012 64.7434 10.1436 65.0474 10.4571C66.8903 12.3094 68.2012 14.2188 69.1701 16.0046C70.424 18.2939 71.1269 20.3742 71.7254 21.8181C71.7919 21.9701 71.8488 22.1031 71.8963 22.2361C72.0958 22.692 72.2858 23.0625 72.4853 23.338C72.5233 23.3855 72.5613 23.4425 72.5898 23.4995C73.9767 25.4658 74.6891 27.5176 75.0311 29.351C75.2401 30.4434 75.3066 31.4598 75.3066 32.3337C75.3066 32.5332 75.3066 32.7137 75.3066 32.8942C75.2686 33.9961 75.1261 34.813 75.0311 35.2025C75.0026 35.326 74.9836 35.44 74.9836 35.5635C74.9551 36.3709 75.4491 37.2448 75.734 37.6818C75.753 37.7008 75.7625 37.7198 75.772 37.7483L75.791 37.7768C75.8765 37.9098 75.943 37.9858 75.943 37.9858C75.943 37.9858 75.7815 38.0143 75.582 38.1473C75.4491 38.2423 75.2971 38.3847 75.1641 38.6032C75.0881 38.7267 75.0216 38.8692 74.9741 39.0402L75.0216 39.0117Z" fill="#B58F53"/>
<g style="mix-blend-mode:multiply" opacity="0.22">
<path d="M75.4871 41.4339C75.5346 42.0419 75.4965 42.8018 75.2971 43.7612C75.2021 44.2172 75.0786 44.7206 74.8981 45.2716C74.7746 45.6421 74.5562 46.098 74.2237 46.6395C74.0622 46.915 73.8722 47.1999 73.6632 47.5039C73.6632 47.5039 73.6632 47.5039 73.6632 47.5134C70.8229 51.5411 63.7175 58.2095 54.3228 59.7864C51.3211 60.2899 48.2148 62.3892 39.4945 62.2372C39.3711 62.2372 39.2476 62.2372 39.1241 62.2372C37.5947 62.1992 35.8944 62.0947 33.9945 61.9047C32.7976 61.7812 31.6102 61.5627 30.4513 61.2683C30.2993 61.2303 30.1568 61.1923 30.0143 61.1448C24.8753 59.7294 20.0972 56.7751 16.136 53.6309C16.9339 54.2009 26.1007 60.8978 42.0973 58.4375C53.7434 56.6422 58.607 56.0152 65.4179 47.0575C66.4533 45.6991 67.0233 43.8087 65.1519 43.2103C64.639 43.0393 63.9075 43.0583 62.8436 43.1628C62.8341 43.1628 62.8151 43.1628 62.8056 43.1628C62.7866 43.1628 62.7676 43.1628 62.7391 43.1628C62.6441 43.1818 62.5966 43.1818 62.5966 43.1818C59.8229 43.4857 54.9213 44.3787 46.0585 44.5402C26.7276 44.8821 21.5221 40.1895 21.5221 40.1895C21.5221 40.1895 27.839 42.6308 39.846 42.6308C43.7692 42.6308 53.3064 41.1394 61.3902 39.5911C67.1088 38.4987 70.5 37.7577 72.4948 37.5107C75.1451 37.1878 75.3351 37.5772 75.5156 37.6247C75.62 37.6532 75.7055 37.6532 75.7815 37.6437L75.829 37.7102L75.848 37.7292C75.9335 37.8717 76 37.9477 76 37.9477C76 37.9477 75.5536 38.0332 75.2306 38.5557C75.2306 38.5557 75.2306 38.5557 75.2306 38.5652C75.1546 38.6886 75.0881 38.8311 75.0406 39.0021C75.0121 39.0971 75.0121 39.2016 75.0406 39.3251C75.1166 39.7526 75.4301 40.3605 75.506 41.4244L75.4871 41.4339Z" fill="#6C599C"/>
</g>
<g style="mix-blend-mode:multiply" opacity="0.22">
<path d="M24.6568 50.7627C24.2579 50.7627 23.8494 50.7817 23.4504 50.7817C22.567 50.7817 21.6836 50.7437 20.8192 50.6107C19.6033 50.4207 18.4064 50.0502 17.4279 49.2903C16.4685 48.5494 15.8226 47.5044 15.1576 46.5165C14.8821 46.1176 14.6067 45.7186 14.2932 45.3576C14.5972 45.4241 14.9106 45.4241 15.2146 45.4336C15.7371 45.4336 16.231 45.4526 16.706 45.6806C17.6179 46.1176 18.3304 46.849 19.2423 47.286C19.7362 47.5329 20.2682 47.6374 20.8097 47.6659C21.0281 47.6754 21.2466 47.6754 21.4556 47.6754H21.8261C22.0826 47.6754 22.3295 47.6754 22.586 47.7039C23.5834 47.7799 24.5618 48.0744 25.4358 48.5589C26.3857 49.0718 27.2121 49.8033 27.8296 50.6962C26.7656 50.7152 25.7112 50.7437 24.6568 50.7722V50.7627ZM75.8386 37.7488C75.7531 37.7963 75.4681 38.0242 75.4491 38.0337C74.4802 38.7557 74.0052 39.8766 73.4638 40.9215C73.4638 40.931 73.4543 40.9405 73.4448 40.95C73.4258 40.969 73.4163 40.988 73.4068 41.0165C73.1503 41.5104 72.8653 41.9854 72.5043 42.4034C72.1244 42.8403 71.6779 43.2203 71.1935 43.5338C69.7211 44.4932 67.9922 44.8827 66.2539 45.0347C65.5129 45.1011 64.772 45.1106 64.05 45.1201H63.955C63.6226 45.1201 63.2996 45.1201 62.9671 45.1201C62.6347 45.1201 62.3022 45.1201 61.9792 45.1201C61.1623 45.1201 60.3453 45.1391 59.5379 45.2056C58.1225 45.3291 56.7641 45.6521 55.4723 46.2316C53.0595 47.305 50.9696 49.0338 48.4144 49.8033C46.961 50.2402 45.4316 50.2972 43.9212 50.3257C42.3158 50.3637 40.7105 50.4017 39.0956 50.4302C35.8944 50.5062 32.6931 50.5727 29.4919 50.6487C29.036 50.6582 28.5895 50.6677 28.1335 50.6772C27.0221 49.0148 25.2173 47.8464 23.251 47.5139C22.738 47.4285 22.225 47.4095 21.7121 47.4095H21.4461C20.8951 47.4095 20.3442 47.4 19.8217 47.2385C18.8338 46.9345 18.0834 46.1651 17.2094 45.6426C16.972 45.5001 16.725 45.3766 16.459 45.2816C16.2025 45.1961 15.9176 45.1676 15.6421 45.1581H15.1291C14.7111 45.1581 14.2932 45.1391 13.9322 44.9397C13.5808 44.5692 13.1913 44.2462 12.7353 43.9992C11.5859 43.3628 10.256 43.2108 9.02113 42.8308C8.40368 42.6409 7.82422 42.3844 7.29226 42.0234C6.8173 41.6909 6.38984 41.3015 5.99088 40.893C5.16445 40.0571 4.4425 39.1261 3.54957 38.3567C3.50208 38.3187 3.45458 38.2712 3.39758 38.2332C3.43558 38.3852 3.4831 38.5372 3.54009 38.6892C4.81299 39.8291 5.80089 41.33 7.23527 42.2989C8.33718 43.0303 9.62907 43.2583 10.883 43.5813C11.5194 43.7428 12.1654 43.9517 12.7353 44.3032C13.1153 44.5312 13.4478 44.8067 13.7422 45.1296C13.7517 45.1391 13.7612 45.1486 13.7707 45.1581C13.8657 45.2626 13.9702 45.3671 14.0557 45.4811C14.8251 46.393 15.3856 47.4475 16.1265 48.3689C16.896 49.3283 17.8554 50.0312 19.0143 50.4397C20.2112 50.8672 21.4936 50.9907 22.757 51.0287C23.061 51.0287 23.3649 51.0382 23.6689 51.0382C24.8088 51.0382 25.9487 50.9907 27.0981 50.9622C30.3184 50.8862 33.5386 50.8197 36.7683 50.7437C38.3832 50.7057 39.9885 50.6677 41.6034 50.6297C43.1708 50.6012 44.7477 50.6202 46.3055 50.4587C47.037 50.3827 47.7684 50.2592 48.4713 50.0407C49.0983 49.8507 49.6967 49.6038 50.2857 49.3188C51.4826 48.7488 52.6035 48.0364 53.7529 47.381C54.9308 46.716 56.1372 46.1176 57.4576 45.7851C58.93 45.4146 60.4593 45.3671 61.9792 45.3671C62.2642 45.3671 62.5492 45.3671 62.8341 45.3671H63.6796C64.525 45.3671 65.3704 45.3576 66.2159 45.2816C66.3488 45.2721 66.4819 45.2626 66.6148 45.2436C66.4439 45.3576 66.2729 45.4906 66.1209 45.6236C65.4844 46.222 65.057 47.039 64.772 47.8749C64.696 48.0554 64.639 48.2359 64.5915 48.4164C64.335 49.2903 64.1545 50.1832 63.8411 51.0382C63.5751 51.7506 63.2236 52.4345 62.8056 53.0805C61.9697 54.3629 60.8488 55.4648 59.5474 56.2722C58.0655 57.1936 56.3652 57.6876 54.6648 57.9821C52.9265 58.2955 51.1501 58.438 49.3928 58.5615C47.6259 58.6945 45.8686 58.78 44.1017 58.875C40.6155 59.0745 37.1293 59.331 33.7096 60.0814C32.4557 60.3569 31.2113 60.6988 30.0049 61.1358C30.1474 61.1738 30.2898 61.2213 30.4418 61.2593C31.2493 60.9838 32.0757 60.7463 32.9022 60.5374C36.2839 59.7014 39.7701 59.3975 43.2373 59.1885C43.7882 59.16 44.3392 59.122 44.8902 59.0935C43.1708 60.2239 41.0145 60.5944 39.4281 61.9337C39.3236 62.0287 39.2191 62.1237 39.1146 62.2187C39.2381 62.2187 39.3616 62.2187 39.4851 62.2187C40.1785 61.5918 41.0525 61.1643 41.9169 60.7938C43.0473 60.2999 44.2252 59.8819 45.2321 59.16C45.2701 59.1315 45.2891 59.0935 45.2891 59.065C48.0819 58.913 50.8842 58.78 53.6484 58.3905C55.3868 58.1531 57.1346 57.7731 58.721 57.0132C60.0889 56.3577 61.3143 55.3983 62.2832 54.2299C63.2616 53.0425 63.9646 51.6746 64.392 50.2022C64.6865 49.1668 64.905 48.0269 65.4085 47.0485C65.5224 46.8205 65.6554 46.602 65.8074 46.393C65.9879 46.1366 66.2064 45.8991 66.4533 45.6996C66.7288 45.4716 67.0423 45.2816 67.3843 45.1771C67.4033 45.1771 67.4128 45.1676 67.4223 45.1581C68.2202 45.0346 69.0181 44.8352 69.7876 44.5407C70.861 44.1227 71.8774 43.5148 72.6468 42.6408C72.9128 42.3369 73.1408 42.0044 73.3403 41.6624C73.3403 42.2989 73.5113 42.9258 73.6823 43.5338C73.9387 44.3982 74.1952 45.2626 74.0527 46.1841C73.9767 46.64 73.8342 47.0865 73.6632 47.5044C73.8722 47.2005 74.0622 46.906 74.2237 46.64C74.3282 46.1936 74.3852 45.7471 74.3472 45.3006C74.3092 44.8637 74.2142 44.4457 74.1002 44.0372C73.8342 43.0873 73.4353 42.0804 73.6632 41.083C73.9292 40.5795 74.1667 40.0666 74.4612 39.5726C74.6702 39.2116 74.9171 38.8602 75.2211 38.5657C75.2211 38.5657 75.2211 38.5657 75.2211 38.5562C75.5441 38.0337 75.9906 37.9482 75.9906 37.9482C75.9906 37.9482 75.9241 37.8722 75.8386 37.7393V37.7488Z" fill="#1D435E"/>
<path d="M29.4639 54.657C30.2904 54.5905 31.1169 54.5145 31.9434 54.41C32.1049 54.391 32.1049 54.1535 31.9624 54.1535C31.9624 54.1535 31.9529 54.1535 31.9434 54.1535C30.5469 54.315 29.1409 54.4385 27.7444 54.505C26.8324 54.5525 25.9014 54.581 24.9799 54.581C24.5144 54.581 24.0584 54.581 23.6024 54.5525C23.0609 54.5335 22.4149 54.448 22.0824 53.973C22.0539 53.935 22.016 53.916 21.978 53.916C21.883 53.916 21.7974 54.011 21.8639 54.106C22.1584 54.5335 22.6335 54.7045 23.137 54.7805C23.517 54.8375 23.9064 54.847 24.2959 54.847C24.5524 54.847 24.8184 54.847 25.0749 54.847C26.5474 54.847 28.0105 54.79 29.483 54.676L29.4639 54.657Z" fill="#5A7182"/>
<path d="M38.4117 54.9422C40.6442 54.8567 42.8767 54.6667 45.0902 54.3912C45.7172 54.3152 46.3347 54.2297 46.9617 54.1347C47.1137 54.1157 47.0662 53.8877 46.9142 53.8877H46.8952C44.7102 54.2107 42.5062 54.4482 40.3022 54.5907C39.6752 54.6287 39.0482 54.6667 38.4212 54.6857C38.2597 54.6857 38.2502 54.9422 38.4212 54.9422H38.4117Z" fill="#5A7182"/>
<path d="M35.3626 56.7948C35.9516 56.7948 36.5405 56.7473 37.12 56.6618C37.1865 56.6523 37.2245 56.5668 37.215 56.5003C37.196 56.4338 37.1391 56.4053 37.0821 56.4053C37.0821 56.4053 37.0631 56.4053 37.0536 56.4053C36.4931 56.4908 35.9326 56.5383 35.3626 56.5383C34.8306 56.5383 34.2985 56.5003 33.7665 56.4243C33.7665 56.4243 33.7475 56.4243 33.738 56.4243C33.681 56.4243 33.6241 56.4528 33.6051 56.5193C33.5861 56.5763 33.6241 56.6713 33.7001 56.6808C34.2511 56.7568 34.8116 56.8043 35.3626 56.8043V56.7948Z" fill="#5A7182"/>
<path d="M51.1786 56.0155C51.1786 56.0155 51.2071 56.0155 51.2261 56.0155C52.309 55.6166 53.3919 55.2176 54.4843 54.8186C55.4533 54.4672 56.4412 54.1157 57.3721 53.6692C58.265 53.2323 59.1009 52.6908 59.8039 51.9879C60.4973 51.2944 61.0673 50.487 61.5707 49.6606C61.8462 49.1951 62.1027 48.7202 62.3687 48.2452C62.6062 47.8272 62.9006 47.3808 63.4041 47.2858C63.5561 47.2573 63.5086 47.0293 63.3661 47.0293C63.3661 47.0293 63.3471 47.0293 63.3376 47.0293C62.4637 47.1908 62.0932 48.2167 61.7037 48.9006C61.2193 49.7651 60.6778 50.6105 60.0224 51.3609C59.3574 52.1209 58.5785 52.7288 57.6856 53.2038C56.7736 53.6977 55.7952 54.0492 54.8263 54.4102C53.6009 54.8566 52.3755 55.3031 51.1501 55.7591C51.0076 55.8066 51.0551 56.0155 51.1786 56.0155Z" fill="#5A7182"/>
<path d="M54.0188 50.924C54.6838 50.392 55.3488 49.86 55.9853 49.2995C56.3083 49.0145 56.6218 48.7105 56.9258 48.4065C57.1823 48.15 57.4293 47.884 57.7048 47.656C58.0183 47.3995 58.3698 47.1905 58.7688 47.124C58.9208 47.0955 58.8733 46.877 58.7213 46.877C58.7213 46.877 58.7023 46.877 58.6928 46.877C57.9518 47.0005 57.3913 47.5515 56.8973 48.0645C56.2988 48.682 55.6623 49.252 54.9973 49.803C54.6078 50.126 54.2183 50.43 53.8288 50.7435C53.7243 50.829 53.8288 50.9525 53.9238 50.9525C53.9523 50.9525 53.9808 50.9525 54.0093 50.924H54.0188Z" fill="#5A7182"/>
<path d="M72.5047 46.9721C72.4762 47.6181 72.3812 48.2641 72.1532 48.8721C71.9157 49.4991 71.5262 50.0311 71.0892 50.5441C71.0322 50.6106 70.9847 50.6771 70.9277 50.7341C70.9277 50.7341 70.9277 50.7436 70.9182 50.7436C70.3387 51.3421 69.7117 51.9311 69.0182 52.5296C69.2082 52.3206 69.3887 52.1021 69.5692 51.8931C70.0442 51.3516 70.5287 50.8196 70.9847 50.2686C71.4217 49.7556 71.7827 49.1951 71.9917 48.5396C72.3812 47.3046 72.2672 45.9746 72.1532 44.7016C72.1437 44.6161 72.2007 44.5781 72.2672 44.5781C72.3337 44.5781 72.4002 44.6161 72.4097 44.7016C72.4762 45.4521 72.5427 46.2121 72.5047 46.9721Z" fill="#5A7182"/>
<path d="M69.6932 45.7465C69.3322 46.7535 68.9047 47.7225 68.3917 48.663C68.1447 49.119 67.8597 49.556 67.6127 50.0215C67.3657 50.4585 67.1567 50.9145 66.9572 51.38C66.9572 51.3895 66.9477 51.399 66.9382 51.4085C66.8907 51.6555 66.8337 51.9025 66.7767 52.1495C66.6532 52.634 66.5297 53.1185 66.3587 53.584C66.2162 53.983 66.0357 54.3725 65.7507 54.686C65.4562 55.0185 65.0762 55.2655 64.7152 55.5125C64.3542 55.7595 64.0217 56.0255 63.6987 56.32C63.6797 56.339 63.6702 56.3485 63.6607 56.358C63.4137 56.5005 63.1667 56.6335 62.9197 56.7665C63.1192 56.5385 63.3377 56.3105 63.5562 56.1015C63.8602 55.8165 64.1927 55.56 64.5347 55.3225C64.8957 55.0755 65.2662 54.838 65.5607 54.5055C65.8742 54.1445 66.0452 53.698 66.1782 53.2515C66.3302 52.7765 66.4537 52.292 66.5677 51.8075C66.7862 50.81 66.9382 49.7935 66.9952 48.777C66.9952 48.6915 67.0712 48.6535 67.1282 48.6535C67.1947 48.6535 67.2612 48.6915 67.2517 48.777C67.2232 49.328 67.1662 49.879 67.0902 50.4205C67.1757 50.24 67.2707 50.0595 67.3657 49.879C67.6032 49.442 67.8787 49.0145 68.1162 48.5775C68.6292 47.6465 69.0662 46.6775 69.4177 45.6705C69.4367 45.6135 69.4937 45.585 69.5507 45.585C69.6267 45.585 69.7027 45.6515 69.6742 45.7465H69.6932Z" fill="#5A7182"/>
<path d="M51.758 42.8022C51.758 42.8022 51.777 42.8022 51.7865 42.8022C52.67 42.6502 53.5724 42.5077 54.4748 42.5077C55.0828 42.5077 55.7002 42.5742 56.2987 42.7547C56.6406 42.8592 56.9731 42.9826 57.3246 43.0776C57.6856 43.1726 58.056 43.2296 58.436 43.2391C58.5215 43.2391 58.5975 43.2391 58.683 43.2391C59.3289 43.2391 59.9843 43.1441 60.6303 43.0681C61.3142 42.9826 61.9982 42.8782 62.6442 42.6407C62.9671 42.5267 63.2616 42.3747 63.5561 42.2037C63.8695 42.0137 64.164 41.8712 64.5345 41.8522C64.6485 41.8522 64.753 41.8522 64.867 41.8522C64.9335 41.8522 64.9999 41.8522 65.0664 41.8522C65.1329 41.8522 65.1994 41.8522 65.2659 41.8522C65.3894 41.8522 65.5129 41.8522 65.6364 41.8522C65.9784 41.8332 66.3298 41.7952 66.6718 41.7382C67.3842 41.6148 68.0777 41.4153 68.7426 41.1303C69.0751 40.9878 69.4076 40.8358 69.6736 40.5888C69.9015 40.3894 70.063 40.1329 70.1865 39.8574C70.424 39.3539 70.5665 38.708 71.0889 38.423C71.2124 38.3565 71.1364 38.1855 71.0224 38.1855C71.0034 38.1855 70.9845 38.1855 70.956 38.2045C70.5 38.4515 70.3005 38.917 70.1105 39.3729C70.0155 39.6104 69.9205 39.8479 69.778 40.0664C69.6071 40.3419 69.3506 40.5318 69.0751 40.6838C67.8497 41.3488 66.4058 41.6053 65.019 41.6053C64.9715 41.6053 64.9145 41.6053 64.867 41.6053C64.829 41.6053 64.7815 41.6053 64.7435 41.6053C64.449 41.6053 64.164 41.6243 63.8885 41.7382C63.5751 41.8712 63.3091 42.0802 63.0051 42.2227C62.3781 42.5267 61.6942 42.6692 61.0103 42.7642C60.2788 42.8687 59.5379 42.9731 58.797 42.9921C58.7495 42.9921 58.7115 42.9921 58.664 42.9921C58.3315 42.9921 58.0085 42.9637 57.6761 42.9067C57.3151 42.8307 56.9636 42.7072 56.6217 42.5932C55.9187 42.3652 55.1967 42.2512 54.4558 42.2512C54.3798 42.2512 54.2943 42.2512 54.2088 42.2512C53.3729 42.2797 52.5465 42.4127 51.7201 42.5552C51.5681 42.5837 51.6156 42.8022 51.7675 42.8022H51.758Z" fill="#5A7182"/>
<path d="M20.7431 52.9179C20.1732 53.0224 19.5747 53.1174 18.9763 53.1174C18.3778 53.1174 17.7794 53.0224 17.2379 52.7469C16.7819 52.5189 16.383 52.177 16.0505 51.778C15.908 51.5975 15.794 51.3695 15.604 51.227C15.4141 51.0846 15.1861 50.9991 14.9771 50.9136C14.5686 50.7521 14.0557 50.6286 13.7422 50.2961C13.5997 50.1536 13.4952 49.9637 13.4003 49.7927C13.2578 49.5647 13.1248 49.3367 12.9823 49.0992C12.7163 48.6528 12.4408 48.1493 11.9944 47.8548C11.4719 47.5129 10.807 47.5319 10.275 47.2089C9.96153 47.0284 9.71456 46.7719 9.42008 46.5724C9.11611 46.354 8.80263 46.183 8.44166 46.0785C8.28968 46.0405 8.12819 46.0025 7.9667 45.9835C7.88121 45.8885 7.7957 45.7935 7.71021 45.708C7.99518 45.7175 8.28965 45.765 8.56513 45.8505C8.9356 45.9645 9.27759 46.164 9.59106 46.392C9.91403 46.6199 10.199 46.9144 10.56 47.0854C10.8259 47.2184 11.1299 47.2564 11.4149 47.3419C11.7284 47.4274 12.0228 47.5509 12.2793 47.7598C12.6688 48.0638 12.9348 48.5293 13.1818 48.9377C13.3242 49.1752 13.4667 49.4222 13.6092 49.6502C13.7137 49.8212 13.8182 50.0302 13.9702 50.1631C14.3122 50.4671 14.8251 50.5716 15.2336 50.7426C15.4331 50.8281 15.642 50.9136 15.813 51.0656C16.003 51.2175 16.1265 51.455 16.288 51.645C16.6205 52.044 17.0194 52.3764 17.4944 52.5759C17.9694 52.7754 18.4728 52.8514 18.9763 52.8514C19.5462 52.8514 20.1257 52.7564 20.6766 52.6519H20.7051C20.8476 52.6519 20.9046 52.8704 20.7431 52.9084V52.9179Z" fill="#5A7182"/>
<path d="M24.6663 43.5999C26.6611 44.2269 28.485 45.2718 30.3658 46.1552C32.2087 47.0292 34.1465 47.7416 36.2078 47.7416C36.2363 47.7416 36.2553 47.7416 36.2838 47.7416C38.1172 47.7226 39.9505 47.2476 41.7839 47.2476C42.2683 47.2476 42.7433 47.2761 43.2278 47.3616C43.6647 47.4376 44.1112 47.5516 44.5576 47.5516C44.6241 47.5516 44.6906 47.5516 44.7571 47.5516C45.2986 47.5041 45.6785 47.2286 46.03 46.8392C46.8659 45.9368 47.6924 45.0343 48.5283 44.1319C48.7373 43.9039 48.9463 43.6759 49.1553 43.448C49.2408 43.353 49.1553 43.2295 49.0603 43.22C49.0318 43.22 49.0033 43.2295 48.9748 43.258C48.1483 44.1509 47.3219 45.0533 46.4955 45.9463C46.296 46.1647 46.087 46.3832 45.8875 46.6112C45.707 46.8012 45.5266 47.0007 45.2986 47.1337C45.0706 47.2571 44.8236 47.3046 44.5672 47.3046C44.2822 47.3046 43.9972 47.2476 43.7312 47.2001C43.1898 47.0957 42.6483 47.0197 42.0974 47.0007C42.0024 47.0007 41.9074 47.0007 41.8124 47.0007C41.3469 47.0007 40.8814 47.0292 40.4255 47.0767C39.2856 47.1907 38.1457 47.3901 36.9963 47.4661C36.7493 47.4851 36.5023 47.4946 36.2648 47.4946C35.4479 47.4946 34.6405 47.3996 33.8425 47.2097C32.8641 46.9722 31.9237 46.6017 31.0118 46.1932C29.1594 45.3573 27.3926 44.3219 25.4737 43.619C23.4599 42.878 21.2846 42.6215 19.3277 41.7286C19.0903 41.6146 18.8528 41.5006 18.6248 41.3676C18.6058 41.3581 18.5773 41.3486 18.5583 41.3486C18.4443 41.3486 18.3683 41.5196 18.4918 41.5861C20.4107 42.6595 22.605 42.954 24.6758 43.6094L24.6663 43.5999Z" fill="#5A7182"/>
</g>
<g style="mix-blend-mode:multiply" opacity="0.25">
<path d="M75.0216 39.0115C74.8886 39.4389 75.3826 40.0564 75.4776 41.4433C75.5251 42.0512 75.4871 42.8111 75.2876 43.7706C75.1926 44.2265 75.0691 44.73 74.8886 45.2809C74.7651 45.6514 74.5467 46.1169 74.2142 46.6488C74.0527 46.9243 73.8532 47.2093 73.6442 47.5228C72.9698 48.4822 72.0484 49.5936 70.918 50.7335C70.918 50.7335 70.918 50.743 70.9085 50.743C70.329 51.3414 69.7021 51.9304 69.0086 52.5288C67.4792 53.8682 65.6839 55.1981 63.6606 56.357C63.4136 56.4995 63.1666 56.6325 62.9196 56.7655C60.3548 58.1524 57.4576 59.2543 54.3039 59.7862C51.3021 60.2897 48.1959 62.389 39.4756 62.237C39.3521 62.237 39.2286 62.237 39.1051 62.237C37.5757 62.199 35.8754 62.0945 33.9755 61.9046C32.7786 61.7811 31.5912 61.5626 30.4323 61.2681C30.2804 61.2301 30.1378 61.1921 29.9954 61.1446C24.8563 59.7292 20.0782 56.775 16.117 53.6307C16.0885 53.6117 16.079 53.6022 16.0695 53.6022C12.6498 50.8855 9.83804 48.0547 7.9477 45.9934C7.8622 45.8984 7.77672 45.8034 7.69123 45.7179C7.55824 45.5659 7.42525 45.4234 7.30176 45.2809C8.44166 46.4683 15.1861 52.8518 28.9314 53.5168C44.1017 54.2482 58.3505 41.0443 62.3782 39.6574C64.107 39.059 66.6148 38.774 68.9991 38.318C72.1814 37.7101 75.1831 37.1021 75.9716 37.957C75.9716 37.957 75.8101 37.9856 75.6106 38.1185C75.4776 38.2135 75.3256 38.356 75.1926 38.5745C75.1166 38.698 75.0501 38.8405 75.0026 39.0115H75.0216Z" fill="#B58F53"/>
</g>
<g style="mix-blend-mode:soft-light" opacity="0.3">
<path d="M21.5125 39.8855C21.5125 39.8855 17.0004 40.0565 13.6852 39.0591C10.37 38.0617 4.57546 34.9934 2.04867 31.5452C0.652286 29.3224 -0.107648 26.4061 0.0633382 23.4709C0.0633382 23.3189 0.0823448 23.1669 0.101343 23.0244C0.889778 26.6341 2.65661 29.5219 6.52279 33.3881C10.56 37.4347 21.5125 39.8855 21.5125 39.8855Z" fill="#FFF5D6"/>
</g>
<path d="M75.9905 37.9574C70.6234 36.8175 70.7754 39.7433 44.2536 42.1181C37.9272 42.6785 32.0661 42.0991 27.0411 41.1492H27.0221C21.6645 40.1327 17.2664 38.6794 14.2836 37.7579C2.32413 34.0153 0.0727954 23.4996 0.0727954 23.4996C0.0727954 23.4996 0.0727954 23.4996 0.0727954 23.4901C0.053797 23.4236 -0.0221747 23.1197 0.00632297 22.7682C0.0443198 22.3692 0.205798 22.1982 0.205798 22.1982C0.205798 22.1982 1.39319 31.7544 12.4883 36.523C18.4348 39.0783 27.3925 41.6906 39.941 41.7476C46.1725 41.7761 53.2969 41.1777 61.3807 39.6198C67.0992 38.5274 70.4904 37.7864 72.4853 37.5395C75.1356 37.2165 75.3255 37.606 75.506 37.6535C75.6105 37.682 75.696 37.682 75.772 37.6725C75.772 37.6725 75.8005 37.7105 75.81 37.739L75.829 37.7674C75.9145 37.9004 75.981 37.9764 75.981 37.9764L75.9905 37.9574Z" fill="#574528"/>
<g style="mix-blend-mode:multiply" opacity="0.22">
<path d="M24.6758 24.9899C25.4452 25.1989 27.174 25.1704 27.155 25.1039C27.1455 25.0564 26.0436 24.9994 25.5592 24.9139C23.3459 24.553 21.3035 23.2611 20.0211 21.4182C19.6032 20.8198 19.2707 20.1643 19.0332 19.4709C19.3182 19.4424 19.6032 19.3664 19.8786 19.2524C20.4011 19.0434 20.9141 18.825 21.446 18.635C21.9875 18.445 22.5289 18.274 23.0704 18.1315C24.1628 17.837 25.2742 17.6281 26.4046 17.5141C27.763 17.3716 29.1404 17.3621 30.5083 17.4761C30.5178 17.4761 30.5273 17.4761 30.5368 17.4761C31.4107 17.5521 32.2846 17.6756 33.1396 17.856C33.415 17.9225 34.0895 18.0175 34.1085 17.951C34.1275 17.8845 32.0187 17.3621 31.0022 17.2576C32.6931 16.4407 34.4219 15.6997 36.2458 15.2533C36.6258 15.1583 37.0057 15.0918 37.3857 15.0348C37.3857 15.0538 40.4254 16.9631 41.9738 19.6514C42.5153 20.5918 43.0472 21.5417 43.4082 22.5581C43.7882 23.6126 43.9782 24.686 44.1111 25.7974C44.2441 26.9278 44.4151 28.0867 45.1466 28.9986C45.441 29.3691 45.821 29.6731 46.258 29.8535C46.7424 30.053 47.2554 30.034 47.7683 29.939C48.2908 29.8535 48.8227 29.6826 49.3547 29.73C49.8487 29.7775 50.2096 30.0815 50.4376 30.509C50.6466 30.8985 50.7701 31.3259 50.9696 31.7154C51.1881 32.1428 51.5015 32.4753 51.948 32.6653C52.4989 32.9028 53.1259 32.9978 53.7053 33.1308C54.3608 33.2828 55.0257 33.4347 55.6812 33.5867C57.0111 33.8907 58.341 34.1947 59.6709 34.4987C59.9938 34.5746 60.7728 34.6411 60.6113 34.6031C57.98 33.9952 55.4437 33.2733 52.8124 32.6653C52.29 32.5418 51.739 32.3898 51.397 31.9434C51.1311 31.5919 50.9981 31.1549 50.8271 30.756C50.6656 30.3665 50.4566 29.9865 50.1051 29.7395C49.6967 29.4451 49.1837 29.4356 48.6992 29.5021C48.1673 29.5781 47.6448 29.7395 47.1129 29.749C46.5904 29.749 46.106 29.5591 45.7165 29.2171C44.8236 28.4572 44.5576 27.2887 44.4056 26.1773C44.3296 25.5979 44.2821 25.0184 44.1776 24.4485C44.0826 23.9355 43.9592 23.4226 43.7977 22.9191C43.4747 21.9027 43.0282 20.9243 42.4868 20.0029C41.4039 18.16 39.9315 16.5261 38.1931 15.2912C38.0411 15.1773 37.8796 15.0823 37.7182 14.9778C38.2311 14.9113 38.7441 14.8733 39.257 14.8638C39.941 14.8543 40.6154 14.8638 41.2899 14.8068C41.3089 14.8258 44.2156 16.2792 47.9488 16.2032C49.0507 16.1842 50.1526 16.0417 51.1881 15.6712C51.7105 15.4812 52.2045 15.2058 52.7364 15.0443C53.0119 14.9588 53.3064 14.9113 53.5914 14.9588C53.8573 15.0063 54.1043 15.1108 54.3418 15.2438C54.9307 15.5762 55.4817 15.9942 56.0421 16.3742C56.6406 16.7826 57.9515 17.6091 57.9895 17.5521C58.0275 17.4951 55.8617 15.9087 54.7978 15.2153C54.3608 14.9303 53.8858 14.6738 53.3539 14.6738C52.8029 14.6738 52.29 14.9113 51.796 15.1393C49.6967 16.0797 47.3789 16.0797 45.1561 15.6427C44.0257 15.4242 42.9237 15.1013 41.8313 14.7308C41.9928 14.7118 42.1543 14.6928 42.3158 14.6548C43.3607 14.4363 45.327 13.3154 45.2985 13.2584C45.27 13.2014 43.4462 14.1133 42.5248 14.3413C41.4988 14.5883 40.4634 14.5788 39.409 14.5883C37.3857 14.6073 35.4289 15.0823 33.548 15.8232C32.5126 16.2317 31.4962 16.6971 30.4988 17.1911C29.4349 17.0961 28.352 17.0866 27.288 17.1531C25.0272 17.2956 22.7949 17.78 20.6861 18.6065C20.1731 18.806 19.6507 19.1004 19.0902 19.1859C18.5108 19.2714 17.9598 19.0244 17.4659 18.749C17.0099 18.4925 16.5634 18.2075 16.098 17.97C15.642 17.7325 15.1765 17.5141 14.6921 17.3241C12.7637 16.5451 10.6929 16.1272 8.6126 16.0797C6.53227 16.0322 4.44243 16.3647 2.48559 17.0771C2.4666 17.0866 2.43809 17.0961 2.41909 17.1056C2.2956 17.2481 2.18162 17.3811 2.06763 17.5236C3.91997 16.7826 5.90531 16.3837 7.89065 16.3457C9.97097 16.3077 12.0418 16.6306 13.9986 17.3336C14.9866 17.6945 15.9365 18.141 16.8389 18.692C17.2854 18.9579 17.7508 19.2429 18.2638 19.3759C18.4253 19.4139 18.5773 19.4424 18.7388 19.4424C19.6222 22.1212 21.94 24.211 24.6473 24.9519L24.6758 24.9899Z" fill="#1D435E"/>
<path d="M70.1102 33.8621C69.1603 34.014 68.2959 34.5365 67.498 35.04C66.586 35.6194 65.7026 36.2559 64.6767 36.6168C62.5109 37.3768 60.1456 37.0348 57.9703 37.7377C56.8684 38.0892 55.8424 38.6307 54.7595 39.0296C53.6291 39.4571 52.4702 39.6471 51.2638 39.7041C50.0099 39.7611 48.756 39.7516 47.5116 39.7611C46.2387 39.7706 44.9753 39.7801 43.7025 39.7991C41.1567 39.8181 38.6014 39.8466 36.0556 39.8656C34.8112 39.8751 33.5573 39.9131 32.3129 39.8941C31.7144 39.8941 31.116 39.8466 30.5271 39.7231C29.9571 39.5996 29.4251 39.3621 28.8837 39.1436C28.3517 38.9251 27.8103 38.7542 27.2308 38.6972C26.6229 38.6402 26.0149 38.6782 25.4165 38.7162C24.4001 38.7921 23.3741 38.8681 22.3957 38.5357C21.5218 38.2317 20.7808 37.5762 20.6859 36.6073C20.5814 35.5719 21.1418 34.603 21.8922 33.9191C22.4812 33.3776 23.1842 32.9786 23.8966 32.5987C23.8966 32.5987 23.8966 32.5987 23.9061 32.5987C25.9484 32.7886 27.9907 32.9691 30.0331 33.1591C31.0115 33.2446 31.9994 33.3776 32.9778 33.4061C33.8898 33.4346 34.7922 33.3776 35.4856 32.7506C36.6065 31.7342 38.0979 31.7532 38.1169 31.6867C38.1359 31.6202 36.54 31.8007 35.9131 32.2377C35.5616 32.4847 35.2007 32.7316 34.8017 32.8931C34.3552 33.0641 33.8803 33.1306 33.3958 33.1496C32.4269 33.1781 31.4485 33.0356 30.4795 32.9501C29.4441 32.8551 28.4087 32.7601 27.3733 32.6652C26.3474 32.5702 25.3215 32.4752 24.2955 32.3802C24.4475 32.3042 24.59 32.2282 24.742 32.1427C25.8534 31.5442 26.9648 30.9458 28.0857 30.3473C28.6367 30.0529 29.8051 29.3499 29.7766 29.2929C29.7481 29.2359 27.3353 30.4613 26.2049 31.0693C25.141 31.6392 24.0581 32.1902 23.0132 32.8076C22.1297 33.3301 21.2653 33.9855 20.7904 34.926C20.3629 35.7809 20.2584 36.8448 20.8093 37.6712C21.2938 38.4027 22.1392 38.7826 22.9752 38.9441C24.0581 39.1436 25.1505 38.9631 26.2334 38.9251C26.8508 38.9061 27.4683 38.9346 28.0667 39.1151C28.6177 39.2766 29.1402 39.5331 29.6816 39.7421C30.8025 40.16 31.9899 40.1695 33.1678 40.16C35.7421 40.141 38.3069 40.1125 40.8812 40.0935C43.4555 40.0745 46.0203 40.046 48.5945 40.027C49.8294 40.0175 51.0643 40.0365 52.2897 39.9036C52.6222 39.8656 52.9547 39.8181 53.2872 39.7516C53.3062 39.7516 53.3252 39.7706 53.3537 39.7706C55.643 39.3526 60.4591 39.2006 60.2976 39.1816C58.5022 39.0296 56.6974 39.0676 54.921 39.2766C55.168 39.1816 55.415 39.0771 55.662 38.9726C56.7259 38.5167 57.7803 38.0227 58.9202 37.7757C60.0506 37.5288 61.219 37.4908 62.3684 37.3768C63.4893 37.2628 64.5817 37.0443 65.5981 36.5408C66.5575 36.0659 67.403 35.4104 68.3339 34.8785C69.1318 34.4225 69.9678 34.0805 70.9082 34.09C71.6681 34.0995 72.4851 34.318 73.036 34.869C73.2925 35.1255 73.4635 35.4389 73.5395 35.7999C73.5775 35.9614 73.8244 35.8949 73.7864 35.7334C73.4255 34.1375 71.5351 33.6626 70.1198 33.9001L70.1102 33.8621Z" fill="#05141F"/>
<path d="M71.9152 27.5551C71.3927 27.1562 70.8038 26.8427 70.1768 26.6337C69.5784 26.4342 68.9609 26.3107 68.372 26.0923C67.783 25.8833 67.2321 25.5603 66.8901 25.0093C66.7001 24.6959 66.5861 24.3444 66.4531 24.0119C66.3296 23.6985 66.1967 23.3945 66.0352 23.1095C65.7882 22.663 65.4842 22.2451 65.1422 21.8651C65.1422 21.8461 65.1613 21.8366 65.1613 21.8176C65.0283 20.6492 64.8478 19.4808 64.6293 18.3314C64.5153 17.7615 64.3918 17.1915 64.2588 16.6215C64.1353 16.0896 64.0119 15.5576 63.8314 15.0447C63.6699 14.5792 63.4419 14.1328 63.0999 13.7813C62.7674 13.4393 62.359 13.1828 61.922 12.9833C61.4471 12.7649 60.9436 12.5844 60.4497 12.4134C59.8987 12.2139 59.3382 12.0334 58.7778 11.8529C57.6664 11.5015 56.5455 11.207 55.4151 10.9315C54.9401 10.8175 54.4746 10.675 54.2182 10.2191C54.0187 9.85811 53.9712 9.43064 53.9047 9.03168C53.8382 8.61371 53.7527 8.19575 53.5247 7.83478C53.3822 7.6068 53.2018 7.41681 52.9928 7.25532C53.1353 7.29332 53.2777 7.33132 53.4202 7.36931C54.7406 7.71129 56.0515 8.09125 57.3814 8.38573C57.9514 8.51872 58.5213 8.63271 59.1008 8.6992C59.8322 8.7847 60.5731 8.7277 61.3046 8.7562C61.751 8.7657 62.1785 8.83219 62.5965 8.98418C62.9954 9.12667 63.3659 9.32615 63.7269 9.55413C64.1828 9.82961 64.6483 10.1241 65.0948 10.4186C64.7908 10.1051 64.4583 9.79161 64.1163 9.48764L64.1068 9.47814C63.4704 9.07917 62.8054 8.7087 62.0645 8.56621C61.2286 8.41423 60.3831 8.53772 59.5377 8.48072C58.9868 8.44272 58.4358 8.33823 57.8944 8.22424C56.5645 7.94877 55.2631 7.5878 53.9522 7.23633C53.2682 7.05584 52.5748 6.85636 51.8719 6.69487C51.4254 6.56188 50.9599 6.47639 50.4945 6.41939C50.409 6.40989 50.3235 6.40039 50.2285 6.3814C50.1335 6.3719 50.0385 6.3529 49.9435 6.3434H49.9245C47.5972 6.06792 45.2509 5.93493 42.9141 5.95393C42.6196 5.95393 41.8977 6.03942 41.8977 6.09642C41.8977 6.15341 46.7328 6.25791 49.0696 6.50489C49.3546 6.53338 49.6396 6.56188 49.934 6.59038C49.934 6.59038 49.9435 6.59038 49.953 6.59038C50.542 6.65687 51.1309 6.77086 51.7199 6.91335C51.8054 6.94185 51.9004 6.96085 51.9859 6.98934C52.3753 7.12233 52.7553 7.32182 53.0403 7.60679C53.3347 7.90127 53.4962 8.27174 53.5817 8.68021C53.7527 9.44964 53.7432 10.3711 54.4842 10.846C54.9116 11.1215 55.4531 11.188 55.9375 11.302C56.4885 11.435 57.0394 11.587 57.5809 11.7389C58.6828 12.0524 59.7752 12.4134 60.8486 12.8029C61.7795 13.1448 62.7485 13.5248 63.2709 14.4177C63.5274 14.8547 63.6699 15.3487 63.8029 15.8331C63.9454 16.3841 64.0783 16.935 64.1923 17.486C64.4393 18.6259 64.6388 19.7753 64.7908 20.9247C64.8193 21.1337 64.8383 21.3427 64.8668 21.5516C64.2873 20.9722 62.7295 20.1552 62.6915 20.2027C62.644 20.2597 64.9523 21.8271 65.6552 22.948C65.8262 23.2235 65.9877 23.518 66.1112 23.8219C66.2537 24.1449 66.3581 24.4869 66.5101 24.8099C66.7001 25.2278 66.9851 25.5603 67.3366 25.8263C67.3366 25.8263 67.3366 25.8263 67.3461 25.8263C67.1466 25.8263 66.9566 25.8453 66.7666 25.9213C66.4342 26.0543 66.1682 26.2822 65.9022 26.5102C65.6552 26.7287 65.3702 26.9377 65.0283 26.9567C64.5628 26.9852 64.1068 26.7192 63.7269 26.4817C63.2899 26.2252 62.8719 25.9308 62.397 25.7408C62.1975 25.6553 61.979 25.5983 61.7605 25.5888C61.4566 25.5793 61.1526 25.6553 60.8486 25.6838C59.4237 25.7978 57.9894 25.5888 56.612 25.2088C55.0446 24.7719 51.9099 23.423 51.8719 23.4705C51.8339 23.518 55.833 25.8548 60.1362 25.9688C60.4876 25.9783 60.8486 25.9403 61.2001 25.9023C61.4566 25.8738 61.713 25.8168 61.9695 25.8738C62.454 25.9783 62.8815 26.2727 63.2994 26.5292C64.0119 26.9662 64.8763 27.5076 65.6932 26.9947C66.0162 26.7857 66.2727 26.4912 66.6051 26.2917C67.0516 26.0163 67.5361 26.0448 68.0205 26.2062C68.0205 26.2062 68.0205 26.2062 68.03 26.2062C68.03 26.2062 68.0395 26.2062 68.049 26.2062C68.5145 26.4057 69.0084 26.5292 69.4929 26.6622C70.1198 26.8332 70.7183 27.0422 71.2788 27.3841C72.4282 28.0966 73.3116 29.17 74.0145 30.3004C74.518 31.1173 74.9359 31.9723 75.3539 32.8367C75.3539 32.6657 75.3539 32.4757 75.3539 32.2762C74.4705 30.4904 73.5396 28.7425 71.9247 27.5171L71.9152 27.5551Z" fill="#1D435E"/>
<path d="M67.4507 17.3149C67.5837 17.8849 67.5647 18.4644 67.8212 19.0059C68.0302 19.4524 68.3627 19.8324 68.7237 20.1459C69.1132 20.4784 69.5407 20.7539 69.9777 21.0104C70.5192 21.3334 71.0607 21.6469 71.5927 21.9889C71.7067 22.0649 71.8207 22.1314 71.9347 22.2074C71.8777 22.0744 71.8207 21.9414 71.7637 21.7989C71.3932 21.5614 71.0322 21.3334 70.6617 21.1149C70.2057 20.8489 69.7402 20.5829 69.3032 20.2694C68.8852 19.9654 68.4862 19.6139 68.2107 19.1864C67.8877 18.6734 67.8402 18.1224 67.7642 17.5334C67.5742 16.2604 65.4937 14.6359 65.4557 14.6929C65.4177 14.7404 67.2227 16.2414 67.4602 17.3244L67.4507 17.3149Z" fill="#1D435E"/>
<path d="M18.8431 9.85841C19.5555 9.67793 20.268 9.46894 20.9424 9.16497C20.9424 9.16497 20.9424 9.16497 20.9519 9.16497C20.9709 9.16497 20.9804 9.17447 20.9994 9.16497C22.5003 8.87049 24.0012 8.58552 25.502 8.30054C27.0029 8.01556 28.5038 7.72109 30.0047 7.47411C30.7741 7.35062 31.553 7.26513 32.332 7.32212C32.4365 7.32212 32.5315 7.35062 32.636 7.36012C32.655 7.36962 32.6644 7.38862 32.6834 7.38862C32.7404 7.38862 32.8069 7.38862 32.8639 7.38862C33.3769 7.48361 33.8804 7.64509 34.3553 7.89207C35.4477 8.44303 36.3881 9.25046 37.5281 9.71592C38.136 9.9629 38.7724 10.0579 39.4184 9.9534C39.9598 9.86791 40.8623 9.53544 41.2707 10.0674C41.3752 10.2004 41.5937 10.0674 41.4892 9.93441C41.1187 9.45945 40.5203 9.49744 39.9788 9.58294C39.6749 9.63043 39.3709 9.71592 39.0669 9.73492C38.7724 9.75392 38.4685 9.72542 38.1835 9.64943C36.9676 9.35495 35.9607 8.50002 34.8968 7.89207C34.4313 7.6261 33.9469 7.39812 33.4339 7.25563C33.8329 7.07514 34.1938 6.77117 34.5263 6.50519C35.1627 6.00173 35.8752 5.60277 36.6351 5.32729C37.0816 5.1658 37.5375 5.04231 37.9935 4.96632C38.155 4.93782 38.0885 4.69084 37.927 4.71934C37.1291 4.86183 36.3596 5.11831 35.6377 5.48878C35.2862 5.66926 34.9443 5.87824 34.6213 6.11572C34.3363 6.32471 34.0608 6.57168 33.7663 6.77117C33.4814 6.97065 33.1679 7.12264 32.8164 7.13214C32.123 7.02765 31.4201 7.04665 30.7266 7.12264C29.9572 7.20813 29.1972 7.36012 28.4373 7.49311C27.6679 7.6356 26.8984 7.77809 26.129 7.92057C24.6566 8.19605 23.1842 8.48103 21.7119 8.766C21.8354 8.69001 21.9588 8.61402 22.0823 8.52852C23.0037 7.90158 23.6782 6.87566 24.7326 6.44819C25.3406 6.20121 25.996 6.20122 26.6134 6.01123C27.0599 5.87824 27.4684 5.63126 27.8388 5.33679C28.5988 4.72884 29.1592 3.91191 29.8527 3.23746C30.2136 2.88599 30.6031 2.57252 31.0686 2.37303C31.648 2.10706 32.2845 2.00257 32.9114 1.93607C35.6662 1.6036 38.4305 1.32812 41.1853 1.03365C40.7578 0.986149 40.3208 0.948153 39.8744 0.910156C37.87 1.12864 35.8752 1.34712 33.8804 1.5656C32.693 1.69859 31.4296 1.75558 30.4036 2.44903C29.5867 2.99998 29.0072 3.80741 28.3328 4.51036C28.0098 4.86183 27.6584 5.1943 27.2499 5.44128C26.7464 5.74525 26.1955 5.85924 25.6255 5.95424C25.0271 6.05873 24.4761 6.22021 23.9727 6.57168C23.5262 6.89466 23.1272 7.28413 22.7283 7.6641C22.2913 8.06306 21.8258 8.41453 21.3034 8.69951C20.7619 8.97499 20.192 9.19347 19.6125 9.36445C18.3586 9.74442 17.0573 10.0199 15.7749 10.2954C13.4951 10.7988 11.1867 11.2453 8.86892 11.6253C8.73593 11.7298 8.60296 11.8342 8.46997 11.9482C10.5978 11.6158 12.7161 11.2168 14.8249 10.7608C16.1548 10.4854 17.4942 10.1909 18.8146 9.84891L18.8431 9.85841Z" fill="#1D435E"/>
<path d="M18.995 6.13393C20.7809 4.64255 22.3482 2.8662 24.3146 1.6123C24.0486 1.6788 23.7921 1.75479 23.5356 1.83079C23.1747 2.08726 22.8422 2.35324 22.5097 2.62872C20.4579 4.33858 18.6911 6.42841 16.2783 7.6633C15.0339 8.29975 13.6565 8.67972 12.2506 8.53723C12.1746 8.60372 12.1081 8.67022 12.0321 8.73671C12.0511 8.76521 12.5166 8.8222 12.716 8.8222C15.0624 8.8697 17.2376 7.58731 18.9855 6.11493L18.995 6.13393Z" fill="#1D435E"/>
<path d="M3.50197 24.6579C3.37847 24.4204 3.26446 24.1734 3.15996 23.9264C3.13146 23.8599 3.07447 23.8124 2.99847 23.8314C2.94147 23.8504 2.88448 23.9264 2.91298 23.9929C3.29298 24.9049 3.81547 25.7504 4.45197 26.4914C4.63247 26.7004 4.83196 26.9094 5.03146 27.0994C5.15496 27.2134 5.33546 27.0329 5.21196 26.9189C4.52796 26.2634 3.94847 25.4939 3.50197 24.6579Z" fill="#1D435E"/>
<path d="M9.12553 30.6428C9.06853 30.5953 8.99253 30.5858 8.94503 30.6428C8.89753 30.6903 8.88803 30.7853 8.94503 30.8233C9.99953 31.6403 11.092 32.3908 12.232 33.0748C12.555 33.2743 12.878 33.4548 13.2105 33.6448C13.353 33.7303 13.486 33.5023 13.3435 33.4263C11.871 32.5998 10.4555 31.6783 9.12553 30.6428Z" fill="#1D435E"/>
</g>
<g style="mix-blend-mode:multiply" opacity="0.22">
<path d="M75.3445 32.3138C75.3445 32.5133 75.3445 32.6938 75.3445 32.8743C75.3065 33.9762 75.1641 34.7931 75.0691 35.1826C75.0406 35.3061 75.0216 35.42 75.0216 35.5435C75.0216 35.5435 67.5457 38.3078 49.2027 39.7422C40.8909 40.3976 32.7881 41.9935 17.9123 36.3035C16.2785 35.6765 7.67217 31.8578 8.94507 30.8224C10.218 29.7965 20.9995 36.1895 30.2708 37.1204C39.1145 38.0038 64.05 35.705 68.6761 34.5366C71.5828 33.8052 74.9551 32.6463 75.0691 29.3311C75.278 30.4235 75.3445 31.4304 75.3445 32.3138Z" fill="#6C599C"/>
</g>
<g style="mix-blend-mode:soft-light" opacity="0.83">
<path d="M2.09624 20.1081C1.99175 19.1487 1.91576 18.4267 1.85876 17.8568C1.93476 17.7618 2.01075 17.6573 2.09624 17.5528C2.21024 17.4198 2.32422 17.2773 2.44771 17.1348C2.5902 16.9734 2.7422 16.8119 2.90368 16.6504C2.90368 16.6504 2.8277 20.0606 3.83462 22.7299C4.99352 25.8266 7.24481 28.2584 7.14032 28.3534C6.95034 28.5244 2.63771 24.9812 2.10575 20.0986L2.09624 20.1081Z" fill="#CCC4AB"/>
</g>
<g style="mix-blend-mode:soft-light" opacity="0.3">
<path d="M63.4895 8.96542C61.2477 15.9473 50.5991 9.81085 41.2709 13.2211C31.9521 16.6313 27.1075 25.817 16.1169 22.9673C9.17302 21.1624 7.95711 15.9473 8.00461 12.3376C8.16609 12.2142 8.32759 12.0812 8.48908 11.9577C8.63156 11.8342 8.75507 11.7392 8.88806 11.6252C9.03054 11.5112 9.16351 11.4067 9.30599 11.2927C9.91394 10.7988 10.8164 9.85835 12.0323 8.74694C12.1083 8.67095 12.1748 8.61395 12.2508 8.54746C13.5996 7.33156 15.3095 5.91618 17.4278 4.63378C18.5392 3.94984 19.7646 3.30389 21.104 2.73394C21.883 2.40147 22.6904 2.10699 23.5358 1.84101C23.7923 1.76502 24.0488 1.68903 24.3148 1.62253H24.3243C26.3571 1.06208 28.5989 0.70111 31.0782 0.663113C34.2699 0.615617 37.1957 0.701108 39.884 0.91959C40.3209 0.957587 40.7579 0.995585 41.1949 1.04308C52.2614 2.11649 59.1009 5.30823 63.4705 8.98442L63.4895 8.96542Z" fill="#FFF5D6"/>
</g>
<g style="mix-blend-mode:multiply" opacity="0.25">
<path d="M72.6278 23.4705C72.5993 25.1043 71.5354 28.5525 64.126 31.4593C54.0093 35.4205 44.5101 32.9507 31.4487 32.1337C18.3968 31.3168 19.1662 26.9662 26.2051 26.3582C33.2441 25.7408 40.6914 17.8374 47.4074 16.6595C52.119 15.8331 57.9135 17.258 62.1882 17.2865C66.3393 17.3245 69.0466 16.0516 69.1986 15.9756C70.4525 18.2649 71.1554 20.3452 71.7539 21.7891C71.8204 21.9411 71.8774 22.0741 71.9248 22.2071C72.1243 22.663 72.3143 23.0335 72.5138 23.309C72.5518 23.3565 72.5898 23.4135 72.6183 23.4705H72.6278Z" fill="#B58F53"/>
</g>
<g style="mix-blend-mode:multiply" opacity="0.22">
<path d="M75.9906 37.9569C75.9906 37.9569 75.5441 38.0424 75.2211 38.5649C75.2211 38.5649 75.2211 38.5649 75.2211 38.5744C75.1451 38.6979 75.0786 38.8404 75.0311 39.0114C75.0026 39.1063 75.0026 39.2108 75.0311 39.3343C74.5182 39.8093 73.6158 40.5027 72.1909 41.1392C69.9681 42.1461 64.0976 42.982 62.8437 43.153C62.8342 43.153 62.8152 43.153 62.8057 43.153C62.7867 43.153 62.7676 43.153 62.7391 43.153C62.6442 43.172 62.5967 43.172 62.5967 43.172C59.8229 43.476 54.9213 44.3689 46.0585 44.5304C26.7276 44.8724 21.5221 40.1798 21.5221 40.1798C21.5221 40.1798 27.8391 42.6211 39.8461 42.6211C43.7693 42.6211 53.3065 41.1297 61.3903 39.5813C67.1088 38.4889 70.5 37.748 72.4949 37.501C75.1451 37.178 75.3351 37.5675 75.5156 37.615C75.6201 37.6435 75.7056 37.6435 75.7816 37.634L75.8291 37.7005L75.8481 37.7195C75.9336 37.8619 76.0001 37.9379 76.0001 37.9379L75.9906 37.9569Z" fill="#6C599C"/>
</g>
<g style="mix-blend-mode:soft-light" opacity="0.3">
<path d="M40.1216 10.1051C40.2356 10.6085 22.1016 12.1474 18.9383 7.86324C17.9029 6.46686 17.504 5.42194 17.428 4.64301C18.5394 3.95906 19.7648 3.31312 21.1042 2.74316C21.5886 4.81399 24.0394 7.91073 33.7191 9.44961C38.1078 10.143 40.0076 9.60159 40.1216 10.1146V10.1051Z" fill="#FFF5D6"/>
</g>
</svg>
