<svg width="76" height="61" viewBox="0 0 76 61" fill="none" xmlns="http://www.w3.org/2000/svg">
<path d="M75.003 37.5688C74.87 37.9962 75.3638 38.6134 75.4587 39.9998C75.5062 40.6075 75.4683 41.3672 75.2688 42.3358C75.1739 42.7916 75.0504 43.2949 74.87 43.8457C74.7466 44.216 74.5282 44.6813 74.1958 45.2131C74.0344 45.4884 73.835 45.7733 73.626 46.0867C72.9518 47.0458 72.0307 48.1568 70.9007 49.3058C70.9007 49.3058 70.9007 49.3153 70.8912 49.3153C70.312 49.9136 69.6852 50.5023 68.992 51.1005C67.4632 52.449 65.659 53.7689 63.6458 54.9274C63.3989 55.0698 63.152 55.2028 62.9051 55.3357C60.3412 56.7221 57.445 57.8237 54.2828 58.3554C51.2821 58.8587 48.177 60.9573 39.4502 60.8054C39.3268 60.8054 39.2033 60.8054 39.0799 60.8054C37.551 60.7674 35.8513 60.6629 33.9521 60.473C32.7556 60.3496 31.5686 60.1312 30.4101 59.8273C30.2581 59.7893 30.1157 59.7513 29.9733 59.7038C24.836 58.289 20.05 55.3262 16.0902 52.1926C16.0618 52.1736 16.0523 52.1641 16.0428 52.1641C12.6242 49.4483 9.80393 46.609 7.92374 44.5578C7.83827 44.4629 7.74333 44.3679 7.66736 44.2825C7.03113 43.5798 6.50885 42.9815 6.11952 42.5257C4.98001 41.2058 4.13488 39.2401 3.51764 37.2555C3.47016 37.1035 3.42266 36.9516 3.37518 36.7997C2.36861 33.4096 2.01727 30.1145 2.01727 30.1145C-0.0338489 26.8479 -0.708063 22.0905 0.91574 17.9408C1.98878 15.2154 6.38541 12.2052 9.27217 9.84075C11.6462 7.90358 14.8368 2.10157 20.4489 2.10157C57.1411 2.09207 69.2864 18.4725 72.2776 21.5492C76.5698 25.9743 75.3543 32.5075 75.0504 33.742C74.813 34.6821 75.4778 35.8026 75.8006 36.2774L75.8196 36.3059C75.9051 36.4388 75.9715 36.5148 75.9715 36.5148C75.9715 36.5148 75.8101 36.5433 75.6107 36.6762C75.4777 36.7712 75.3258 36.9136 75.1929 37.132C75.1169 37.2555 75.0504 37.3979 75.003 37.5688Z" fill="#B58F53"/>
<g style="mix-blend-mode:multiply" opacity="0.22">
<path d="M75.4682 40.0003C75.5156 40.608 75.4776 41.3677 75.2782 42.3363C75.1833 42.7921 75.0598 43.2953 74.8794 43.8461C74.756 44.2165 74.5376 44.6723 74.2052 45.2135C74.0438 45.4889 73.8538 45.7738 73.6449 46.0777C73.6449 46.0777 73.6449 46.0777 73.6449 46.0872C70.8056 50.1229 63.6932 56.7796 54.2923 58.3559C51.2915 58.8592 48.1864 60.9578 39.4596 60.8058C39.3362 60.8058 39.2127 60.8058 39.0893 60.8058C37.5604 60.7679 35.8607 60.6634 33.9615 60.4735C32.765 60.35 31.578 60.1316 30.4195 59.8278C30.2676 59.7898 30.1251 59.7518 29.9827 59.7043C24.8454 58.2894 20.0595 55.3267 16.0997 52.193C16.8973 52.7628 27.1054 59.7993 42.185 57.4538C52.526 55.849 61.3667 50.5312 64.7757 46.4385C65.0036 46.1536 65.2125 45.8782 65.393 45.6124C65.5449 45.3939 65.6779 45.166 65.7918 44.9571C65.9343 44.6912 66.0482 44.4349 66.1242 44.188C66.1622 44.0645 66.2001 43.9506 66.2191 43.8461C66.2381 43.7607 66.2476 43.6752 66.2571 43.5897C66.3426 42.7826 65.9912 42.1463 65.1366 41.757C60.2557 42.6211 53.694 43.8081 45.556 43.9886C18.3217 44.5868 11.9784 38.0726 11.9784 38.0726L37.3515 40.7979L73.5785 33.4766L75.829 36.2779L75.848 36.2969C75.9335 36.4393 75.9999 36.5153 75.9999 36.5153C75.9999 36.5153 75.5536 36.6007 75.2308 37.123C75.2308 37.123 75.2308 37.123 75.2308 37.1325C75.1548 37.2559 75.0883 37.3984 75.0408 37.5693C74.9079 37.9966 75.4017 38.6139 75.4966 40.0003H75.4682Z" fill="#6C599C"/>
</g>
<g style="mix-blend-mode:multiply" opacity="0.22">
<path d="M24.6271 49.324C24.2282 49.324 23.8199 49.343 23.4211 49.343C22.538 49.343 21.6549 49.305 20.7812 49.1721C19.5658 48.9822 18.3692 48.6118 17.3817 47.8522C16.4226 47.1115 15.7769 46.0669 15.1122 45.0794C14.8368 44.6805 14.5614 44.2817 14.248 43.9209C14.5519 43.9873 14.8653 43.9873 15.1691 43.9968C15.7009 43.9968 16.1852 44.0158 16.66 44.2437C17.5716 44.6805 18.2838 45.4212 19.1954 45.8485C19.6892 46.0954 20.221 46.1999 20.7717 46.2284C20.9901 46.2379 21.2085 46.2379 21.4174 46.2379H21.7878C22.0442 46.2379 22.2911 46.2379 22.5475 46.2663C23.5445 46.3423 24.5226 46.6367 25.3962 47.121C26.3458 47.6338 27.172 48.3649 27.7987 49.2576C26.7352 49.2766 25.6811 49.305 24.6271 49.3335V49.324ZM75.8196 36.3051C75.7341 36.3526 75.4493 36.5805 75.4303 36.59C74.4617 37.3117 73.9869 38.4322 73.4456 39.4768C73.4456 39.4863 73.4361 39.4958 73.4266 39.5053C73.4076 39.5242 73.3981 39.5432 73.3886 39.5717C73.1323 40.0655 72.8474 40.5403 72.4865 40.9581C72.1067 41.3949 71.6604 41.7748 71.1761 42.0881C69.7042 43.0472 67.976 43.4366 66.2382 43.5885C65.4975 43.655 64.7568 43.6645 64.0352 43.674H63.9402C63.6078 43.674 63.285 43.674 62.9526 43.674C62.6203 43.674 62.2879 43.674 61.9555 43.674C61.1389 43.674 60.3223 43.693 59.5056 43.7594C58.0907 43.8829 56.7328 44.2057 55.4414 44.785C53.0294 45.858 50.9308 47.5863 48.3859 48.3555C46.933 48.7923 45.4042 48.8492 43.8943 48.8872C42.2895 48.9252 40.6752 48.9632 39.0704 48.9917C35.8703 49.0676 32.6606 49.1341 29.4605 49.2101C29.0047 49.2196 28.5584 49.2291 28.1026 49.2386C26.9916 47.5768 25.1873 46.4088 23.2217 46.0764C22.7089 45.991 22.1961 45.972 21.6833 45.972H21.4174C20.8667 45.972 20.3159 45.9625 19.7936 45.7916C18.8061 45.4877 18.0559 44.7185 17.1823 44.1962C16.9449 44.0538 16.698 43.9304 16.4321 43.8354C16.1757 43.7499 15.8908 43.7214 15.6154 43.7119H15.1027C14.6848 43.7119 14.267 43.693 13.9062 43.4935C13.5548 43.1232 13.1655 42.8003 12.7097 42.5534C11.5607 41.9077 10.2313 41.7653 8.99678 41.3854C8.37955 41.1955 7.80029 40.9391 7.26852 40.5783C6.79372 40.2459 6.36641 39.8566 5.96758 39.4483C5.14144 38.6126 4.41974 37.682 3.52712 36.9129C3.47964 36.8749 3.43216 36.8274 3.37518 36.7894C3.41317 36.9414 3.46067 37.0933 3.51765 37.2452C4.7901 38.3847 5.77766 39.8851 7.21154 40.8537C8.31307 41.5849 9.60451 41.8128 10.858 42.1451C11.5037 42.3066 12.1399 42.5155 12.7097 42.8668C13.0895 43.0947 13.4219 43.3701 13.7163 43.693C13.7258 43.7024 13.7352 43.7119 13.7447 43.7214C13.8397 43.8259 13.9441 43.9304 14.0296 44.0443C14.7988 44.9559 15.3591 46.01 16.0997 46.9311C16.8689 47.8902 17.828 48.5929 18.9865 49.0012C20.183 49.4285 21.4649 49.5519 22.7279 49.5899C23.0318 49.5899 23.3356 49.5994 23.6395 49.5994C24.779 49.5994 25.928 49.5519 27.0675 49.5234C30.2961 49.4475 33.5153 49.381 36.7439 49.305C38.3582 49.2671 39.9725 49.2291 41.5868 49.1911C43.1536 49.1626 44.7299 49.1816 46.2873 49.0107C47.0185 48.9347 47.7496 48.8113 48.4523 48.5929C49.0791 48.4029 49.6773 48.156 50.2661 47.8712C51.4626 47.3014 52.5831 46.5892 53.7321 45.934C54.9096 45.2693 56.1251 44.671 57.4355 44.3387C58.9074 43.9683 60.4362 43.9209 61.9555 43.9209C62.2404 43.9209 62.5253 43.9209 62.8102 43.9209H63.6553C64.5005 43.9209 65.3551 43.9114 66.1907 43.8354C66.3237 43.8259 66.4566 43.8164 66.5896 43.7974C66.4091 43.9114 66.2477 44.0443 66.0958 44.1772C65.4596 44.7755 65.0322 45.5921 64.7473 46.4278C64.6714 46.6082 64.6144 46.7886 64.5669 46.9691C64.3105 47.8427 64.1301 48.7353 63.8168 49.5899C63.5509 50.3021 63.1995 50.9953 62.7817 51.6315C61.946 52.9135 60.8256 54.015 59.5151 54.8222C58.0338 55.7433 56.334 56.2371 54.6342 56.5314C52.8964 56.8448 51.1207 56.9873 49.3545 57.1107C47.5882 57.2436 45.8315 57.3291 44.0652 57.4241C40.5802 57.6235 37.0857 57.8799 33.6672 58.63C32.4137 58.9054 31.1698 59.2473 29.9638 59.6841C30.1062 59.7221 30.2487 59.7696 30.4006 59.8075C31.2078 59.5322 32.0339 59.2948 32.86 59.0858C36.2406 58.2502 39.7351 57.9463 43.2011 57.7374C43.7519 57.7089 44.3026 57.671 44.8534 57.6425C43.1346 58.7725 40.9791 59.1428 39.3932 60.4817C39.2888 60.5767 39.1843 60.6717 39.0799 60.7666C39.2033 60.7666 39.3268 60.7666 39.4502 60.7666C40.1434 60.1399 41.017 59.7126 41.8812 59.3422C43.0112 58.8485 44.1887 58.4306 45.2047 57.7089C45.2427 57.6805 45.2617 57.6425 45.2617 57.614C48.0535 57.462 50.8548 57.3291 53.6276 56.9398C55.3654 56.7024 57.1126 56.3225 58.6984 55.5629C60.0659 54.9076 61.2908 53.9486 62.2594 52.7806C63.2375 51.5936 63.9402 50.2261 64.3675 48.7448C64.6619 47.7097 64.8803 46.5702 65.3836 45.5921C65.4975 45.3642 65.6305 45.1458 65.7824 44.9369C65.9628 44.6805 66.1813 44.4431 66.4281 44.2437C66.7035 44.0158 67.0169 43.8259 67.3587 43.7119C67.3777 43.7119 67.3872 43.7024 67.3967 43.693C68.1944 43.5695 68.992 43.3701 69.7612 43.0757C70.8342 42.6579 71.8503 42.0502 72.6195 41.1765C72.8854 40.8727 73.1133 40.5403 73.3127 40.1985C73.3127 40.8347 73.4836 41.4614 73.6545 42.0786C73.9109 42.9428 74.1673 43.8069 74.0249 44.728C73.9489 45.1838 73.8065 45.6301 73.6355 46.0479C73.8445 45.7441 74.0344 45.4497 74.1958 45.1838C74.3003 44.7375 74.3572 44.2912 74.3193 43.8449C74.2813 43.4081 74.1863 42.9903 74.0724 42.5819C73.8065 41.6323 73.4076 40.6258 73.6355 39.6287C73.9014 39.1254 74.1388 38.6126 74.4332 38.1188C74.6421 37.758 74.889 37.4067 75.1929 37.1123C75.1929 37.1123 75.1929 37.1123 75.1929 37.1028C75.5157 36.571 75.962 36.495 75.962 36.495C75.962 36.495 75.8956 36.4191 75.8101 36.2861L75.8196 36.3051Z" fill="#1D435E"/>
<path d="M29.4224 53.2182C30.2486 53.1517 31.0747 53.0758 31.9008 52.9713C32.0623 52.9523 32.0623 52.7149 31.9198 52.7149C31.9198 52.7149 31.9103 52.7149 31.9008 52.7149C30.5049 52.8764 29.0996 52.9998 27.6942 53.0663C26.7731 53.1138 25.8519 53.1423 24.9308 53.1423C24.4655 53.1423 24.0097 53.1423 23.5444 53.1138C23.0032 53.0948 22.3574 53.0093 22.0251 52.5345C21.9966 52.4965 21.9586 52.4775 21.9206 52.4775C21.8257 52.4775 21.7402 52.5725 21.8067 52.6675C22.101 53.0948 22.5758 53.2657 23.0791 53.3417C23.459 53.3986 23.8483 53.4081 24.2376 53.4081C24.494 53.4081 24.7599 53.4081 25.0163 53.4081C26.4882 53.4081 27.9601 53.3512 29.4224 53.2372V53.2182Z" fill="#5A7182"/>
<path d="M38.3866 53.5023C40.6182 53.4168 42.8497 53.2269 45.0623 52.9515C45.689 52.8756 46.3062 52.7901 46.933 52.6951C47.0849 52.6761 47.0374 52.4482 46.8855 52.4482H46.8665C44.6824 52.7806 42.4793 53.0085 40.2668 53.1509C39.6401 53.1889 39.0134 53.2269 38.3866 53.2459C38.2252 53.2459 38.2157 53.5023 38.3866 53.5023Z" fill="#5A7182"/>
<path d="M35.3289 55.3542C35.9177 55.3542 36.5064 55.3067 37.0856 55.2212C37.1521 55.2117 37.1901 55.1263 37.1806 55.0598C37.1616 54.9933 37.1046 54.9648 37.0477 54.9648C37.0382 54.9648 37.0287 54.9648 37.0192 54.9648C36.4589 55.0503 35.8987 55.0978 35.3289 55.0978C34.7971 55.0978 34.2559 55.0598 33.7336 54.9838C33.7336 54.9838 33.7146 54.9838 33.7051 54.9838C33.6481 54.9838 33.5912 55.0123 33.5722 55.0788C33.5532 55.1358 33.5912 55.2307 33.6671 55.2402C34.2179 55.3162 34.7781 55.3637 35.3384 55.3637L35.3289 55.3542Z" fill="#5A7182"/>
<path d="M51.149 54.5756C51.149 54.5756 51.1775 54.5756 51.1965 54.5756C52.2791 54.1768 53.3711 53.778 54.4536 53.3792C55.4222 53.0183 56.4098 52.6765 57.3404 52.2302C58.233 51.7933 59.0686 51.2521 59.7713 50.5494C60.4645 49.8562 61.0343 49.049 61.5376 48.2134C61.8224 47.7481 62.0694 47.2733 62.3353 46.7985C62.5727 46.3807 62.867 45.9344 63.3703 45.8394C63.5222 45.8109 63.4748 45.583 63.3323 45.583C63.3323 45.583 63.3133 45.583 63.3038 45.583C62.4302 45.7444 62.0599 46.7795 61.6705 47.4632C61.1862 48.3273 60.645 49.1725 59.9898 49.9226C59.325 50.6823 58.5369 51.2901 57.6537 51.7648C56.7421 52.2586 55.7641 52.61 54.7955 52.9708C53.5705 53.4171 52.3455 53.8729 51.1205 54.3193C50.9781 54.3667 51.0256 54.5756 51.149 54.5756Z" fill="#5A7182"/>
<path d="M53.9884 49.4857C54.6531 48.9539 55.3273 48.4221 55.9635 47.8619C56.2864 47.577 56.5998 47.2731 56.9037 46.9693C57.16 46.7129 57.4069 46.447 57.6823 46.2191C57.9957 45.9627 58.347 45.7538 58.7458 45.6873C58.8978 45.6588 58.8503 45.4404 58.6984 45.4404C58.6984 45.4404 58.6794 45.4404 58.6699 45.4404C57.9292 45.5639 57.369 46.1146 56.8752 46.6274C56.2769 47.2447 55.6407 47.8239 54.976 48.3652C54.5866 48.688 54.1973 48.9919 53.808 49.3053C53.7035 49.3907 53.808 49.5142 53.9029 49.5142C53.9314 49.5142 53.9599 49.5142 53.9884 49.4857Z" fill="#5A7182"/>
<path d="M72.4864 45.5353C72.4579 46.181 72.3629 46.8267 72.135 47.4345C71.8976 48.0612 71.5083 48.593 71.0715 49.1058C71.0145 49.1722 70.9671 49.2387 70.9101 49.2957C70.9101 49.2957 70.9101 49.3052 70.9006 49.3052C70.3213 49.9034 69.6946 50.4922 69.0014 51.0904C69.1913 50.8815 69.3717 50.6631 69.5522 50.4542C70.027 49.9129 70.5113 49.3811 70.9671 48.8304C71.4039 48.3176 71.7647 47.7573 71.9736 47.1021C72.363 45.8676 72.249 44.5287 72.135 43.2563C72.1256 43.1708 72.1825 43.1328 72.249 43.1328C72.3155 43.1328 72.382 43.1708 72.3915 43.2563C72.4579 44.0064 72.5244 44.7756 72.4864 45.5258V45.5353Z" fill="#5A7182"/>
<path d="M69.6662 44.3101C69.3054 45.3167 68.878 46.2948 68.3653 47.2254C68.1184 47.6812 67.8335 48.118 67.5866 48.5833C67.3397 49.0201 67.1308 49.4759 66.9314 49.9412C66.9314 49.9507 66.9219 49.9602 66.9124 49.9697C66.8649 50.2166 66.8079 50.4635 66.751 50.7104C66.6275 51.1947 66.5041 51.679 66.3332 52.1443C66.1907 52.5431 66.0103 52.9324 65.7254 53.2553C65.431 53.5877 65.0512 53.8345 64.6903 54.0814C64.3295 54.3283 63.9971 54.5942 63.6743 54.8886C63.6553 54.9076 63.6458 54.9171 63.6363 54.9266C63.3894 55.069 63.1425 55.202 62.8956 55.3349C63.095 55.107 63.3134 54.8791 63.5413 54.6702C63.8452 54.3853 64.1776 54.1289 64.5194 53.8915C64.8803 53.6446 65.2506 53.4072 65.545 53.0749C65.8583 52.714 66.0293 52.2677 66.1622 51.8214C66.3142 51.3466 66.4376 50.8623 66.5515 50.378C66.7699 49.381 66.9219 48.3649 66.9789 47.3488C66.9789 47.2634 67.0548 47.2254 67.1118 47.2254C67.1783 47.2254 67.2447 47.2634 67.2352 47.3488C67.2068 47.8996 67.1498 48.4504 67.0738 48.9916C67.1593 48.8112 67.2543 48.6308 67.3492 48.4504C67.5866 48.0135 67.862 47.5862 68.0994 47.1494C68.6122 46.2188 69.049 45.2502 69.4003 44.2437C69.4193 44.1867 69.4763 44.1582 69.5333 44.1582C69.6092 44.1582 69.6852 44.2247 69.6567 44.3196L69.6662 44.3101Z" fill="#5A7182"/>
<path d="M51.7283 41.3572C51.7283 41.3572 51.7473 41.3572 51.7568 41.3572C52.64 41.2053 53.5421 41.0628 54.4442 41.0628C55.0519 41.0628 55.6692 41.1293 56.2674 41.3097C56.6093 41.4142 56.9416 41.5376 57.2929 41.6326C57.6538 41.7275 58.0241 41.7845 58.404 41.794C58.4894 41.794 58.5654 41.794 58.6509 41.794C59.3061 41.794 59.9518 41.6991 60.5975 41.6231C61.2812 41.5376 61.9649 41.4332 62.6107 41.1958C62.9335 41.0818 63.2279 40.9299 63.5223 40.759C63.8357 40.569 64.13 40.4266 64.5004 40.4076C64.6143 40.4076 64.7188 40.4076 64.8327 40.4076C64.8992 40.4076 64.9657 40.4076 65.0321 40.4076C65.0986 40.4076 65.1651 40.4076 65.2316 40.4076C65.355 40.4076 65.4784 40.4076 65.6019 40.4076C65.9437 40.3886 66.2951 40.3506 66.637 40.2937C67.3492 40.1702 68.0423 39.9708 68.7071 39.6859C69.0394 39.5435 69.3718 39.3916 69.6376 39.1447C69.8655 38.9452 70.027 38.6889 70.1504 38.4135C70.3878 37.9102 70.5303 37.2645 71.062 36.9796C71.1855 36.9131 71.1095 36.7422 70.9956 36.7422C70.9766 36.7422 70.9576 36.7422 70.9291 36.7612C70.4733 37.0081 70.2739 37.4734 70.084 37.9292C69.989 38.1666 69.8941 38.404 69.7516 38.6224C69.5807 38.8978 69.3243 39.0877 69.0489 39.2396C67.8239 39.9043 66.3711 40.1607 64.9942 40.1607C64.9467 40.1607 64.8897 40.1607 64.8422 40.1607C64.8042 40.1607 64.7567 40.1607 64.7188 40.1607C64.4244 40.1607 64.1395 40.1797 63.8641 40.2937C63.5508 40.4266 63.2754 40.6355 62.9715 40.778C62.3448 41.0818 61.6611 41.2243 60.9774 41.3192C60.2462 41.4237 59.5055 41.5281 58.7648 41.5471C58.7174 41.5471 58.6794 41.5471 58.6319 41.5471C58.2995 41.5471 57.9672 41.5186 57.6443 41.4617C57.2835 41.3857 56.9321 41.2622 56.5903 41.1483C55.8876 40.9204 55.1659 40.8064 54.4252 40.8064C54.3492 40.8064 54.2637 40.8064 54.1783 40.8064C53.3426 40.8349 52.5165 40.9679 51.6904 41.1103C51.5384 41.1388 51.5859 41.3572 51.7379 41.3572H51.7283Z" fill="#5A7182"/>
<path d="M20.7051 51.4796C20.1354 51.5841 19.5371 51.679 18.9389 51.679C18.3407 51.679 17.7424 51.5841 17.2011 51.3087C16.7453 51.0808 16.3465 50.7389 16.0141 50.3401C15.8717 50.1597 15.7578 49.9318 15.5679 49.7893C15.3779 49.6469 15.15 49.5614 14.9411 49.476C14.5328 49.3145 14.02 49.1911 13.7066 48.8587C13.5642 48.7163 13.4598 48.5264 13.3648 48.3554C13.2224 48.1275 13.0894 47.8996 12.947 47.6622C12.6811 47.2159 12.4057 46.7126 11.9499 46.4183C11.4181 46.0764 10.7629 46.0954 10.2311 45.7726C9.91775 45.5921 9.67086 45.3357 9.37649 45.1268C9.07262 44.9084 8.75926 44.7375 8.39841 44.633C8.24648 44.5951 8.08505 44.5571 7.92362 44.5381C7.83815 44.4431 7.7432 44.3482 7.66724 44.2627C7.95211 44.2722 8.24648 44.3197 8.52186 44.4051C8.8922 44.5191 9.23405 44.7185 9.54741 44.9464C9.87027 45.1743 10.1552 45.4782 10.516 45.6396C10.7819 45.7726 11.0858 45.82 11.3706 45.896C11.684 45.9815 11.9784 46.1049 12.2348 46.3138C12.6241 46.6177 12.89 47.083 13.1369 47.4913C13.2793 47.7287 13.4218 47.9756 13.5642 48.2035C13.6687 48.3839 13.7731 48.5833 13.925 48.7163C14.2669 49.0202 14.7797 49.1246 15.188 49.305C15.3874 49.3905 15.5963 49.4855 15.7767 49.6279C15.9667 49.7798 16.0901 50.0172 16.2515 50.2166C16.5839 50.6155 16.9827 50.9478 17.4575 51.1567C17.9323 51.3562 18.4356 51.4321 18.9389 51.4321C19.5086 51.4321 20.0879 51.3372 20.6387 51.2327H20.6672C20.8096 51.2327 20.8666 51.4511 20.7051 51.4891V51.4796Z" fill="#5A7182"/>
<path d="M24.627 42.1548C26.6212 42.7816 28.4444 43.8261 30.3246 44.7187C32.1668 45.5924 34.104 46.3045 36.1646 46.3045C36.1931 46.3045 36.2121 46.3045 36.2406 46.3045C38.0733 46.2856 39.9155 45.8108 41.7482 45.8108C42.2325 45.8108 42.7073 45.8392 43.1916 45.9247C43.6284 46.0007 44.0747 46.1146 44.521 46.1146C44.5875 46.1146 44.6539 46.1146 44.7204 46.1146C45.2617 46.0672 45.6415 45.7823 46.0024 45.4024C46.838 44.5003 47.6642 43.5982 48.4998 42.6961C48.7087 42.4682 48.9176 42.2403 49.1265 42.0124C49.212 41.9174 49.1265 41.7845 49.0316 41.7845C49.0031 41.7845 48.9746 41.794 48.9461 41.8225C48.12 42.7151 47.2938 43.6172 46.4677 44.5098C46.2682 44.7282 46.0593 44.9466 45.8599 45.1745C45.6795 45.3645 45.4991 45.5639 45.2712 45.6968C45.0433 45.8203 44.7964 45.8677 44.54 45.8677C44.2551 45.8677 43.9702 45.8108 43.7043 45.7633C43.1631 45.6588 42.6218 45.5829 42.071 45.5639C41.9761 45.5639 41.8811 45.5639 41.7862 45.5639C41.3209 45.5639 40.8556 45.5924 40.3998 45.6398C39.2508 45.7538 38.1207 45.9532 36.9717 46.0292C36.7248 46.0482 36.478 46.0577 36.2406 46.0577C35.4239 46.0577 34.6167 45.9627 33.8191 45.7728C32.841 45.5354 31.9009 45.165 30.9798 44.7472C29.1281 43.9116 27.3524 42.8765 25.4437 42.1738C23.4306 41.4331 21.256 41.1768 19.2903 40.2841C19.0529 40.1702 18.8155 40.0562 18.5876 39.9233C18.5686 39.9138 18.5402 39.9043 18.5212 39.9043C18.4072 39.9043 18.3312 40.0752 18.4547 40.1417C20.3729 41.2147 22.5759 41.5091 24.6365 42.1643L24.627 42.1548Z" fill="#5A7182"/>
</g>
<path d="M75.9715 36.5141C75.9715 36.5141 70.6063 36.4286 67.3492 37.7486C64.1016 39.0685 52.5735 44.2628 30.1252 42.4965C18.6351 41.5944 11.5322 38.3753 7.34446 35.4316H7.33496C3.35617 32.6303 2.00773 30.1138 2.00773 30.1138C-0.0433899 26.8472 -0.717575 22.0898 0.906228 17.9401C1.63741 16.0694 3.94492 14.0657 6.24293 12.233C6.26193 12.214 6.27141 12.2045 6.2904 12.195C6.43284 12.0811 6.57529 11.9766 6.71773 11.8627C6.74622 11.8437 6.7557 11.8342 6.7652 11.8247C7.13554 11.5398 7.4964 11.2549 7.84775 10.9701C8.34154 10.5807 8.80682 10.2104 9.25313 9.84954C9.33859 9.78307 9.42407 9.7071 9.50953 9.63113C11.855 7.51354 15.0172 2.11036 20.4298 2.11036C50.4655 2.10086 64.0541 13.0781 69.6377 18.7377C70.141 19.2505 70.5778 19.7158 70.9481 20.1241C71.5084 20.7319 71.9357 21.2162 72.2586 21.5485C76.5507 25.9736 75.3353 32.5068 75.0314 33.7413C74.718 34.9758 75.9525 36.5141 75.9525 36.5141H75.9715Z" fill="#FFF0CC"/>
<g style="mix-blend-mode:multiply">
<path d="M68.4033 23.0581C69.0775 25.3656 67.3682 26.9324 66.6085 28.8791C65.6589 31.31 66.7415 33.2662 66.7415 33.2662C63.4749 32.3451 56.7707 35.2414 55.2799 35.7636C53.789 36.2954 46.3822 40.2552 42.9542 39.9608C39.5262 39.6665 37.9973 37.9097 36.326 37.8527C34.8352 37.7958 30.5525 38.451 29.2041 38.3085C27.8557 38.1756 27.001 36.3429 26.0704 36.1055C25.1303 35.8586 22.5 37.4539 20.9901 36.8367C19.4803 36.2194 19.5087 34.5861 17.752 34.0164C15.9953 33.4561 15.1501 35.7636 11.7126 35.0894C7.01209 34.1683 5.57823 26.6286 6.27143 23.362C6.99312 20.0289 11.6841 19.7915 11.1808 19.1458C10.6775 18.5 9.04425 18.5 9.18668 16.2495C9.31013 14.4928 8.85431 12.793 8.24657 11.5965C8.12312 11.3686 7.99967 11.1502 7.88572 10.9508C8.37951 10.5614 8.84482 10.1911 9.29113 9.83026C9.37659 9.76379 9.46204 9.68782 9.54751 9.61186C10.0603 9.7448 10.6396 9.80178 11.2283 9.64984C13.4029 9.08008 15.8908 6.80106 17.6285 6.55417C18.3692 6.44971 18.8345 6.27879 19.1859 6.12685C20.088 5.74702 20.4488 5.0918 20.4488 5.0918L68.4222 23.0391L68.4033 23.0581Z" fill="#7A7247"/>
</g>
<path d="M68.6406 23.0119C68.1089 23.2873 67.691 23.4012 67.691 23.4012C67.691 23.4012 67.729 23.4867 67.786 23.6576C67.8715 23.9045 67.9664 24.3318 67.9664 24.8731C67.9569 25.6422 67.7195 26.6488 66.9029 27.7124C65.1461 30.0009 66.4661 33.0776 66.4661 33.0776C66.4661 33.0776 66.4566 33.0776 66.4471 33.0776C66.3996 33.0776 66.3521 33.0586 66.3046 33.0491C66.2667 33.0491 66.2287 33.0396 66.1812 33.0301H66.1622C65.1841 32.9161 61.7656 32.8212 55.2229 35.537C54.9095 35.6699 54.5867 35.8029 54.2638 35.9453C54.2163 35.9738 54.1594 35.9928 54.1119 36.0118C53.3807 36.3347 52.6115 36.686 51.8043 37.0848C51.1776 37.3887 50.5889 37.6641 50.0191 37.911C45.1097 40.0666 42.6598 40.0001 40.8746 39.3923C40.8461 39.3734 40.8081 39.3639 40.7511 39.3449C40.4377 39.2404 40.1339 39.098 39.849 38.965C39.8015 38.9365 39.754 38.9175 39.697 38.8891C39.3932 38.7466 39.0988 38.5852 38.8044 38.4428C37.6174 37.8445 36.383 37.3317 34.2939 37.6641C29.4984 38.4143 29.0996 38.4997 26.9915 36.3442C25.6906 35.0147 23.7819 36.705 22.1011 36.8284C21.7782 36.8569 21.4554 36.8284 21.1515 36.6955C20.8097 36.5531 20.4868 36.2967 20.1829 35.8599C19.993 35.594 19.8126 35.3376 19.6322 35.1097C19.3188 34.7109 19.0149 34.3785 18.7016 34.1316C18.0084 33.5713 17.2772 33.4194 16.4035 33.9322C16.3371 33.9702 16.2231 34.0461 16.0617 34.1316C15.8908 34.2266 15.6724 34.3405 15.4065 34.4545C13.5643 35.2426 9.71841 35.9738 7.1735 29.3931C4.3912 22.2047 8.90178 20.296 10.9339 19.8972C11.2758 19.8307 11.5511 19.8023 11.7031 19.8023C11.9215 19.8023 12.2443 19.7738 12.5767 19.7263H12.5862C12.6147 19.7263 12.6337 19.7168 12.6621 19.7168C12.9185 19.6788 13.1939 19.6218 13.4313 19.5649H13.4408C13.5168 19.5459 13.5928 19.5269 13.6687 19.5079C13.8017 19.4794 13.9156 19.4414 14.0296 19.4034C14.5993 19.1945 14.7418 18.9476 13.6402 18.7387C13.5738 18.7292 13.5073 18.7102 13.4408 18.7102C13.0895 18.6627 12.7002 18.6248 12.3013 18.5868C11.836 18.5488 11.3707 18.5108 10.9434 18.4253C10.4116 18.3209 9.96532 18.1405 9.68044 17.8176C9.0822 17.1149 9.67094 15.5956 9.08219 13.6774C8.16109 10.6577 9.18666 9.08135 10.9339 8.17924C11.0194 8.13176 11.0953 8.09378 11.1808 8.05579C11.5226 7.89436 11.8835 7.76142 12.2633 7.63797H12.2823C12.5102 7.56201 12.7476 7.50503 12.9945 7.43856C12.9945 7.43856 13.004 7.43856 13.0135 7.43856C13.023 7.43856 13.0325 7.43856 13.0325 7.43856C15.9098 6.72636 19.2998 6.75485 20.1165 5.53937C20.3918 5.14054 20.8286 4.66575 21.3889 4.17196C21.7877 3.83011 22.253 3.46926 22.7658 3.11791C25.852 1.03831 30.6474 -0.699449 33.6576 1.93092C34.4933 2.66211 35.177 3.19388 35.7373 3.57372C38.1207 5.17853 38.4246 4.14347 39.9914 4.92214C40.1908 5.02659 40.4092 5.15004 40.6561 5.32097C42.1755 6.34653 43.5239 7.91336 44.8343 7.30562C45.5655 6.96376 46.2208 6.68838 46.8285 6.46048C47.2653 6.29905 47.6641 6.15661 48.0345 6.05215C49.9906 5.4729 51.1966 5.55837 52.0133 5.90972C52.2032 5.98568 52.3646 6.07115 52.5071 6.1756C52.5071 6.1756 52.5071 6.1756 52.5071 6.1851C53.5041 6.85931 53.7795 7.94184 54.5867 8.00831C54.6152 8.00831 54.6531 8.00831 54.6816 8.00831C55.2134 8.0463 55.6597 8.09378 56.049 8.15075C57.2265 8.33118 57.8058 8.58757 58.1571 8.92942C58.3186 9.08135 58.4325 9.24278 58.5275 9.42321C58.7934 9.88851 58.9833 10.4393 59.667 11.066C60.2557 11.6073 60.7685 11.4933 61.3668 11.4933C61.5757 11.4933 61.7941 11.5028 62.0315 11.5598C62.5253 11.6737 63.0855 11.9871 63.7787 12.8038C63.8452 12.8892 63.9117 12.9652 63.9781 13.0601C64.301 13.478 64.6523 14.0097 65.0417 14.6745C65.2791 15.0923 66.0957 15.1208 66.9219 15.2157C66.9883 15.2157 67.0643 15.2252 67.1308 15.2347C67.1593 15.2347 67.1782 15.2347 67.2067 15.2347C67.824 15.3107 68.4127 15.4531 68.7451 15.8425C69.4288 16.6401 69.9226 17.3618 70.2359 18.0075C70.3974 18.3304 70.5113 18.6248 70.6063 18.9191C71.29 21.2266 69.7232 22.4706 68.6406 23.0309V23.0119Z" fill="#E3C97D"/>
<g style="mix-blend-mode:multiply" opacity="0.22">
<path d="M66.9123 27.7113C65.1556 29.9998 66.4755 33.0765 66.4755 33.0765C66.4755 33.0765 63.1425 32.2503 55.2324 35.5359C54.919 35.6689 54.5961 35.8018 54.2733 35.9443C54.957 35.6214 55.4033 34.8617 55.6502 34.159C55.9635 33.0955 56.0585 31.975 55.9635 30.8734C56.1819 30.7785 56.4953 30.6265 56.8087 30.3891C57.3974 29.9618 58.0242 29.2496 58.1096 28.1861C58.1096 28.1101 58.1096 28.0341 58.1096 27.9677C58.1096 27.3599 57.9197 26.7902 57.6538 26.2679C57.6538 26.2679 57.6538 26.2489 57.6443 26.2489C57.236 25.4702 56.6567 24.7581 56.1819 24.0459C55.992 23.761 55.8116 23.4666 55.6787 23.1817C55.4698 22.7544 55.3463 22.3271 55.3558 21.8903C55.3558 21.5389 55.4318 21.1686 55.6217 20.7698C55.8306 20.3424 56.0585 20.0766 56.2864 19.9056C56.5143 19.7442 56.7422 19.6777 56.9796 19.6777C57.5114 19.6777 58.1381 20.0196 58.6794 20.4279C58.9453 20.6273 59.1921 20.8457 59.401 21.0357C59.61 21.2256 59.7714 21.368 59.8949 21.4725C60.0278 21.5674 60.2747 21.7668 60.6165 21.9947C61.6421 22.6879 63.6078 23.723 66.5705 23.7135C66.9408 23.7135 67.3206 23.6945 67.71 23.666C67.7385 23.666 67.7575 23.666 67.786 23.666C67.8714 23.9129 67.9664 24.3402 67.9664 24.8815C67.9569 25.6507 67.729 26.6572 66.9029 27.7208L66.9123 27.7113Z" fill="#6C599C"/>
</g>
<g style="mix-blend-mode:multiply" opacity="0.22">
<path d="M24.4561 21.2356C22.386 22.9068 20.9806 23.8374 20.9806 23.8374C20.9806 23.8374 19.4707 22.9733 17.7615 22.4795C17.7615 22.4795 14.3999 19.6687 13.4218 19.5548C13.4978 19.5358 13.5737 19.5168 13.6497 19.4978C13.7826 19.4693 13.8966 19.4313 14.0106 19.3934C14.5803 19.1844 14.7227 18.9375 13.6212 18.7286C13.5547 18.7191 13.4883 18.7001 13.4218 18.7001C13.5832 18.6527 16.9258 17.6651 20.0405 15.8134C23.2311 13.9237 28.0455 16.9529 28.3779 17.7506C29.261 19.8302 26.5357 19.5548 24.4656 21.2261L24.4561 21.2356Z" fill="#87A8C2"/>
</g>
<g style="mix-blend-mode:multiply" opacity="0.22">
<path d="M39.6876 38.8786C39.3837 38.7361 39.0893 38.5747 38.795 38.4323C37.608 37.834 36.3735 37.3212 34.2844 37.6536C29.489 38.4038 29.0901 38.4892 26.982 36.3337C25.6811 35.0042 23.7724 36.6945 22.0916 36.818C21.7688 36.8464 21.4459 36.818 21.142 36.685C20.8002 36.5426 20.4773 36.2862 20.1734 35.8494C19.9835 35.5835 19.8031 35.3271 19.6227 35.0992C19.3093 34.7004 19.0054 34.368 18.6921 34.1211C17.9989 33.5609 17.2677 33.4089 16.3941 33.9217C16.3276 33.9597 16.2136 34.0356 16.0522 34.1211C15.8813 34.2161 15.6629 34.33 15.397 34.444C13.5548 35.2321 9.70895 35.9633 7.16405 29.3826C4.38174 22.1942 8.8923 20.2855 10.9244 19.8867C10.7535 20.0197 7.25899 22.764 8.24657 25.7742C9.25313 28.8414 10.8485 33.1715 15.1976 32.2504H15.2166C16.0142 32.0795 16.6885 32.07 17.2487 32.1744C19.7746 32.6492 20.2209 35.3556 20.9046 35.479C21.7403 35.631 24.4941 32.5923 28.5584 35.612C32.6131 38.6222 33.4773 36.3432 35.0346 36.5995C38.0828 37.1028 30.467 32.9056 33.7621 31.4717C37.3136 29.9334 38.4436 34.5104 38.3296 36.2482C38.2537 37.4352 39.0419 38.3468 39.7066 38.8976L39.6876 38.8786Z" fill="#5A7182"/>
</g>
<g style="mix-blend-mode:multiply" opacity="0.22">
<path d="M21.4743 28.4149C20.7051 28.7472 20.0784 29.222 19.6036 29.7918C18.9484 29.4974 17.8279 28.8327 16.9258 28.9656C16.9258 28.9656 19.3947 27.2943 20.0309 26.7246C20.4678 26.3352 21.2274 26.3068 21.6547 26.3352C21.3983 26.981 21.3129 27.6932 21.4743 28.4054V28.4149Z" fill="#87A8C2"/>
</g>
<g style="mix-blend-mode:multiply" opacity="0.22">
<path d="M17.2297 32.1655C16.7644 32.0801 16.2231 32.0706 15.6059 32.1655C14.8367 30.1334 13.156 28.5761 11.2283 27.2466C9.74694 26.2496 9.08223 24.5878 10.1648 23.002C10.1648 23.002 9.8419 24.9391 11.3802 25.8127C12.8521 26.6484 15.9193 29.2693 17.2297 32.175V32.1655Z" fill="#87A8C2"/>
</g>
<g style="mix-blend-mode:multiply" opacity="0.22">
<path d="M32.9264 29.6391C29.4319 30.6931 30.0586 34.2921 30.0586 34.2921C30.0586 34.2921 29.0046 35.0138 27.4567 32.241C26.2602 30.1044 24.8738 29.886 24.2946 29.8955C24.8453 29.8195 25.4436 29.8765 26.1178 30.0759C27.0104 30.2848 27.9315 30.6457 28.9571 30.5602C31.2456 30.3608 31.445 27.5595 30.9037 25.8312C30.9037 25.8217 30.9037 25.8122 30.9037 25.8027C30.9037 25.8027 36.4398 28.566 32.9359 29.6296L32.9264 29.6391Z" fill="#87A8C2"/>
</g>
<g style="mix-blend-mode:multiply" opacity="0.22">
<path d="M44.9673 24.7308C44.9673 24.7308 38.1303 22.9076 37.551 25.5094C37.551 25.5094 37.551 25.5094 37.551 25.5C37.4181 25.2626 37.3041 25.0157 37.1997 24.7593C36.9338 24.2085 36.5729 23.7052 36.1171 23.2969C35.215 22.4518 33.8951 22.2428 32.7461 22.1764C31.6446 22.1099 30.8754 21.8725 30.657 20.7045C30.2961 19.4131 30.0302 17.8462 30.5145 16.5928C30.7424 17.324 31.5211 18.6249 34.104 18.435C37.6745 18.1691 39.0039 19.2231 39.0039 19.2231C39.0039 19.2231 36.8483 21.7016 40.6752 22.993C44.502 24.2845 44.9863 24.7213 44.9863 24.7213L44.9673 24.7308Z" fill="#87A8C2"/>
</g>
<g style="mix-blend-mode:multiply" opacity="0.22">
<path d="M54.1119 36.0111C53.3807 36.334 52.6115 36.6854 51.8044 37.0842C51.1776 37.3881 50.5889 37.6634 50.0192 37.9103C50.1426 37.8059 52.3267 35.9352 51.9373 33.0864C51.7189 31.4436 50.4845 32.2792 50.4845 32.2792C50.4845 32.2792 50.2661 30.8738 51.8519 29.2405C53.3807 27.6642 52.3551 25.5181 52.2792 25.3662C52.2792 25.3662 52.2887 25.3662 52.2982 25.3662C54.1404 26.6102 55.2229 28.7563 55.2799 31.7665C55.3179 33.2478 55.3179 34.9571 54.1214 36.0301L54.1119 36.0111Z" fill="#5A7182"/>
</g>
<g style="mix-blend-mode:multiply" opacity="0.22">
<path d="M52.2697 25.3477C52.2697 25.3477 52.2796 25.3477 52.2896 25.3577C52.2896 25.3577 52.2797 25.3477 52.2697 25.3577V25.3477Z" fill="#87A8C2"/>
</g>
<g style="mix-blend-mode:multiply" opacity="0.22">
<path d="M57.2169 26.5626C56.0204 25.8124 50.9306 22.5458 47.835 19.2982C44.5589 15.8512 39.7539 14.0944 38.0352 13.5437C38.6334 13.2683 39.1462 12.8315 39.4975 12.1288C39.621 11.8439 39.7065 11.559 39.7444 11.2646C44.9957 13.4107 49.5822 17.1331 53.4091 21.3018C54.0168 21.995 54.6245 22.7167 55.2228 23.4289C55.2418 23.4764 55.2703 23.5144 55.2893 23.5619C55.6976 24.3405 56.2863 25.0622 56.7611 25.7839C56.932 26.0498 57.0935 26.3062 57.2169 26.5721V26.5626Z" fill="#87A8C2"/>
</g>
<g style="mix-blend-mode:multiply" opacity="0.22">
<path d="M57.046 19.1556C57.046 19.1556 56.9985 19.1556 56.9796 19.1556C56.6472 19.1556 56.2959 19.2505 55.973 19.4784C55.6596 19.7063 55.3842 20.0482 55.1469 20.542C55.0234 19.7633 55.7071 16.7816 51.9657 14.9774C48.2243 13.1826 47.2652 10.4478 45.6319 8.94744C44.0081 7.45658 40.9694 8.68156 41.0074 7.6465C41.0549 6.63993 40.0388 5.03512 39.9724 4.93066C40.1718 5.02562 40.3902 5.15857 40.6371 5.32C42.1564 6.34556 43.5048 7.91238 44.8153 7.30465C45.5465 6.96279 46.2017 6.68741 46.8094 6.45951C46.1067 8.14029 48.2718 10.3623 50 10.9321C51.7283 11.5018 54.691 11.065 57.4639 14.4076C59.7049 17.1139 57.8437 18.6618 57.0365 19.1556H57.046Z" fill="#87A8C2"/>
</g>
<g style="mix-blend-mode:multiply" opacity="0.22">
<path d="M22.8323 7.2198C22.1771 7.4477 21.5219 7.6756 20.8667 7.77056C20.5058 7.83703 20.1924 7.77056 19.8506 7.6756C18.7111 7.31476 17.5051 7.28627 16.3276 7.27677C15.2736 7.27677 14.0866 7.34324 13.004 7.42871C15.8813 6.71651 19.2713 6.745 20.088 5.52952C20.3634 5.13069 20.8002 4.6559 21.3604 4.16211C21.3509 5.20666 21.5883 6.59307 22.8228 7.2103L22.8323 7.2198Z" fill="#5A7182"/>
</g>
<g style="mix-blend-mode:multiply" opacity="0.22">
<path d="M68.6406 23.0118C68.3462 23.0687 68.0234 23.1067 67.672 23.1447C67.2922 23.1732 66.9218 23.1922 66.5705 23.1922C64.6713 23.1922 63.2184 22.7554 62.1739 22.2711C61.6421 22.0337 61.2243 21.7773 60.9014 21.5589C60.5786 21.3405 60.3507 21.1601 60.1987 21.0461C60.1228 20.9891 59.9518 20.8372 59.7429 20.6473C59.4295 20.3624 59.0117 19.9921 58.5369 19.6977C58.29 19.5363 58.0241 19.3938 57.7393 19.2989C57.7393 19.2989 60.2652 19.6977 61.7276 18.7291C63.1994 17.7605 62.3163 21.3215 65.26 21.5494C68.2038 21.7678 70.6157 20.9701 70.5967 18.9095C71.2805 21.217 69.7136 22.461 68.6311 23.0213L68.6406 23.0118Z" fill="#87A8C2"/>
</g>
<g style="mix-blend-mode:multiply" opacity="0.22">
<path d="M54.1119 9.79302C53.7701 10.7901 51.4815 11.6732 52.5071 10.0969C53.4852 8.57754 52.5926 6.36499 52.5071 6.18457C53.5042 6.85878 53.7796 7.94132 54.5867 8.00779C54.6152 8.00779 54.6532 8.00779 54.6817 8.00779C54.7861 8.60603 54.3588 9.08083 54.1119 9.79302Z" fill="#87A8C2"/>
</g>
<g style="mix-blend-mode:multiply" opacity="0.22">
<path d="M61.3857 11.4842C61.3857 11.4842 60.3602 12.1679 59.5055 13.6872C58.6509 15.2066 57.1315 13.4593 57.7488 12.8231C58.366 12.1774 58.5369 9.41406 58.5369 9.41406C58.8028 9.87936 58.9927 10.4301 59.6764 11.0569C60.2652 11.5981 60.778 11.4842 61.3762 11.4842H61.3857Z" fill="#87A8C2"/>
</g>
<g style="mix-blend-mode:multiply" opacity="0.22">
<path d="M67.1498 15.2246C64.6523 15.0252 64.5384 16.6965 63.2659 17.4562C61.984 18.2159 61.7466 16.8295 62.9716 15.9748C64.1586 15.1392 64.0161 13.1735 64.0066 13.0596C64.3295 13.4774 64.6808 14.0092 65.0702 14.6739C65.3266 15.1202 66.2572 15.1202 67.1498 15.2341V15.2246Z" fill="#87A8C2"/>
</g>
<path opacity="0.52" d="M36.6013 7.98932C38.472 8.94841 36.6488 12.4809 32.4611 12.6043C28.2734 12.7278 27.1339 15.9279 24.6744 14.2851C22.215 12.6423 18.9674 10.1544 22.7468 8.55908C26.5261 6.96376 28.3873 8.47361 29.8117 8.55908C31.2361 8.64454 33.0688 6.1661 36.6013 7.97983V7.98932Z" fill="#FFE28C"/>
<path opacity="0.29" d="M10.5161 16.8777C11.1618 18.0742 12.1968 18.549 12.2633 18.587C11.2187 18.5015 10.1457 18.397 9.65192 17.8083C9.05368 17.1056 9.64242 15.5862 9.05367 13.6681C8.13257 10.6484 9.15814 9.07203 10.9054 8.16992C10.9054 8.16992 9.87032 9.69877 11.1523 10.354C12.4437 11.0187 15.3874 10.3825 15.9572 11.8448C16.527 13.3072 9.84183 15.6337 10.5065 16.8682L10.5161 16.8777Z" fill="#FFE28C"/>
<path opacity="0.52" d="M35.7277 3.57301C35.7277 3.57301 33.876 3.85789 32.5561 3.1267C31.2362 2.39552 28.8147 2.23408 25.8709 3.46855C22.9272 4.70302 22.7563 3.1267 22.7563 3.1267C25.8425 1.04709 30.6379 -0.69066 33.6481 1.93971C34.4838 2.6709 35.1675 3.20267 35.7277 3.58251V3.57301Z" fill="#FFE28C"/>
<path opacity="0.52" d="M26.4217 24.3694C26.4217 24.3694 23.7819 24.1415 23.1646 25.8602C22.5474 27.579 23.364 28.3862 25.833 28.2437C28.3019 28.1013 30.2486 26.9523 29.4509 25.8602C28.6533 24.7682 26.4122 24.3694 26.4122 24.3694H26.4217Z" fill="#FFE28C"/>
<path opacity="0.52" d="M52.3835 8.16968C52.0892 9.62256 51.9277 9.95491 50.0095 9.16675C48.4997 8.54002 48.1199 6.76428 48.0249 6.04259C49.9811 5.46334 51.187 5.54881 52.0037 5.90015C52.374 6.58386 52.5355 7.43849 52.3835 8.16968Z" fill="#FFE28C"/>
<path opacity="0.52" d="M57.4734 11.8535C57.1126 12.8601 56.5428 12.1954 56.6758 10.9514C56.8182 9.5935 56.4099 8.6629 56.0585 8.14062C57.236 8.32105 57.8153 8.57744 58.1666 8.91929C58.404 9.89737 57.7488 11.0654 57.4734 11.8535Z" fill="#FFE28C"/>
<path opacity="0.52" d="M63.7977 12.794C63.4273 13.5727 62.2593 13.981 62.0599 14.7977C61.794 15.8612 60.6735 15.8612 60.2842 15.3295C59.8854 14.7977 61.3667 13.943 61.3572 12.8225C61.3477 12.2338 61.7086 11.816 62.0504 11.5596C62.5442 11.6735 63.1045 11.9869 63.7977 12.8035V12.794Z" fill="#FFE28C"/>
<path opacity="0.52" d="M70.2454 17.9969C69.5142 18.6521 67.5865 18.823 66.409 19.1554C64.9561 19.5732 64.9181 17.4271 65.3455 16.8004C65.7348 16.2306 66.4375 15.6039 66.9313 15.2051C66.9978 15.2051 67.0737 15.2146 67.1402 15.2241C67.1687 15.2241 67.1877 15.2241 67.2162 15.2241C67.8334 15.3 68.4221 15.4425 68.7545 15.8318C69.4382 16.6295 69.932 17.3512 70.2454 17.9969Z" fill="#FFE28C"/>
<path opacity="0.52" d="M33.6481 15.6338C32.8315 16.9917 36.5349 17.3526 38.5195 17.3526C40.5042 17.3526 40.8745 18.4446 40.3143 19.1473C39.754 19.85 39.4596 21.4738 41.7956 22.0625C44.1316 22.6513 45.1572 23.2495 47.2748 22.7177C49.3923 22.186 50.2185 22.6893 50.2185 22.6893C50.2185 22.6893 47.5976 20.2678 46.648 19.5176C45.6984 18.7674 43.3719 16.8018 41.9001 16.0991C40.3427 15.3584 35.0915 13.2218 33.6386 15.6243L33.6481 15.6338Z" fill="#FFE28C"/>
<path opacity="0.52" d="M39.6495 9.69824C39.6495 9.69824 46.9519 12.8129 49.2594 15.1584C51.5669 17.5039 54.824 21.7011 55.1089 22.4798C55.1089 22.4798 51.8802 18.8998 50.4748 17.8173C49.3638 16.9626 43.2769 11.8538 39.6875 11.0846C39.6875 11.0846 39.1747 10.2965 39.64 9.69824H39.6495Z" fill="#FFE28C"/>
<path opacity="0.52" d="M43.4193 33.0764C42.7166 33.0669 40.8649 33.3897 40.9124 35.6023C40.9599 37.8148 40.9219 38.584 45.404 38.4321C46.9613 38.3751 47.5596 37.0836 48.4427 36.4094C49.5822 35.5358 51.0636 36.0201 50.4843 34.4533C50.0095 33.1618 48.6896 34.7192 47.2842 34.4533C45.8788 34.1874 44.1315 33.0954 43.4288 33.0859L43.4193 33.0764Z" fill="#FFE28C"/>
<path opacity="0.52" d="M10.9908 20.9883C10.1741 21.4726 10.9053 22.8495 11.5225 23.8371C12.1398 24.8246 15.5678 26.9422 15.7007 27.6259C15.7007 27.6259 17.8468 25.5843 19.3092 25.5178C20.7715 25.4514 20.0689 23.6376 17.5524 23.0014C15.036 22.3652 13.4122 19.5544 10.9908 20.9883Z" fill="#FFE28C"/>
<g style="mix-blend-mode:multiply" opacity="0.69">
<path d="M50.4748 32.2689C49.962 32.5063 49.3827 32.6298 48.794 32.5918C48.1863 32.5443 47.5595 32.2499 47.2272 31.7182C46.8948 31.2244 46.8283 30.7021 46.4295 30.3033C46.0877 29.9424 45.6224 29.724 45.1096 29.6101C42.9635 29.2112 40.3901 29.5246 38.5479 27.9483C37.6078 27.2361 37.019 26.163 36.4968 25.1375C36.2689 24.6912 35.946 24.2544 35.5757 23.941C34.2272 22.7255 32.423 23.4567 30.8562 22.6116C30.2959 22.2697 29.9161 21.5765 29.7831 20.9688C29.3083 19.2595 28.9855 17.3983 29.9066 15.708C30.4953 14.616 31.6728 13.9038 32.8313 13.5714C34.6925 12.8308 37.5698 13.5999 38.6333 11.7102C39.1746 10.5232 38.4529 8.58608 37.5983 7.58901C35.5757 5.84176 32.3565 6.72488 30.0205 7.41808L29.9161 7.45606L29.8116 7.42758C28.3873 6.99076 26.8679 6.82933 25.4055 7.11421C23.8577 7.34211 22.5283 8.13028 20.9519 8.35818C20.1543 8.49112 19.4136 8.0638 18.6159 7.98784C17.8753 7.88338 17.1156 7.8454 16.3559 7.8454C14.8176 7.8359 13.2697 7.94036 11.7409 8.09229L11.1901 8.0638C11.5415 7.90237 11.9118 7.75993 12.3106 7.64598C12.3866 7.6175 12.4531 7.5985 12.5291 7.57951C12.6905 7.53203 12.8519 7.49405 13.0134 7.44657C13.0134 7.44657 13.0228 7.44657 13.0323 7.44657C13.0418 7.44657 13.0513 7.44657 13.0513 7.44657C14.1244 7.35161 15.3208 7.29463 16.3749 7.29463C17.5524 7.30413 18.7489 7.33262 19.8979 7.69346C20.2303 7.78842 20.5531 7.8454 20.9139 7.78842C21.5787 7.69346 22.2244 7.46556 22.8796 7.23766C24.0476 5.81327 25.8328 4.5883 27.751 4.94914C28.6816 5.0346 29.4508 4.43636 30.3624 4.31291C31.3215 4.17047 32.2521 4.44586 33.1067 4.76872C32.6604 4.67376 32.2046 4.5693 31.7488 4.54082C30.2769 4.23695 29.1659 5.42394 27.7415 5.43343C26.8394 5.34797 26.0038 5.48091 25.2251 5.9747C24.8073 6.2121 24.4085 6.50647 24.0381 6.82933C24.4559 6.69639 24.8738 6.58244 25.3011 6.51597C26.8204 6.2121 28.4157 6.36403 29.8971 6.79135C30.9417 6.37353 32.0052 6.08865 33.1067 5.89873C35.0724 5.55688 37.7122 5.71831 38.8518 7.68397C39.355 8.60507 39.8014 9.64962 39.8109 10.7037C39.8109 10.8366 39.8108 10.9696 39.7918 11.1025C39.7918 11.15 39.7824 11.207 39.7729 11.2544C39.7349 11.5393 39.6494 11.8337 39.526 12.1186C39.1841 12.8213 38.6713 13.2581 38.0636 13.5335C36.5917 14.2172 34.5976 13.9893 33.1257 14.483C32.1571 14.7584 31.2265 15.2712 30.7327 16.1638C30.6568 16.3063 30.5808 16.4487 30.5238 16.5911C30.0396 17.8446 30.3054 19.4114 30.6663 20.7029C30.8847 21.8709 31.6538 22.1083 32.7554 22.1747C33.9044 22.2507 35.2243 22.4501 36.1264 23.2953C36.5822 23.7036 36.9526 24.2069 37.209 24.7576C37.3134 25.014 37.4274 25.2609 37.5603 25.4983V25.5078C38.4529 27.1791 39.8773 28.3566 41.8904 28.5845C44.3404 28.9738 46.6859 28.4895 47.645 31.4238C48.2242 32.3734 49.4777 32.4019 50.4843 32.2499L50.4748 32.2689Z" fill="#EDE8C2"/>
</g>
<g style="mix-blend-mode:multiply" opacity="0.69">
<path d="M38.8044 38.4316C39.1462 38.6025 39.4881 38.7924 39.8395 38.9633C38.1302 35.9816 39.0988 33.7691 42.5363 32.2402C38.9089 32.9239 37.456 35.6588 38.8044 38.4316Z" fill="#EDE8C2"/>
</g>
<g style="mix-blend-mode:multiply" opacity="0.69">
<path d="M28.3684 24.4539C27.3523 23.7132 26.0229 23.3523 24.8359 23.7892C23.1456 24.5108 21.5503 26.6474 22.3764 28.4801L22.5189 28.9644L22.1106 29.0974C19.7556 29.8665 18.749 32.0696 19.4612 34.4341L19.6131 35.0988C19.2998 34.7 18.9959 34.3676 18.6825 34.1207C18.3027 32.5159 18.6445 30.9586 19.6131 29.8001C20.0879 29.2303 20.7146 28.746 21.4838 28.4232C21.3224 27.7015 21.4079 26.9988 21.6642 26.3531C22.1865 25.0331 23.4305 23.9411 24.7409 23.4948C26.0229 23.1339 27.4093 23.6182 28.3779 24.4634L28.3684 24.4539Z" fill="#EDE8C2"/>
</g>
<g style="mix-blend-mode:multiply" opacity="0.69">
<path d="M28.9476 30.5693C27.922 30.6547 27.0009 30.2939 26.1083 30.085C25.434 29.8855 24.8358 29.8286 24.2851 29.9045C24.2851 29.9045 24.2819 29.9045 24.2756 29.9045C23.1835 30.066 22.3194 30.7497 21.5882 31.8892C20.4677 33.4655 20.0689 35.1273 21.7402 36.5232C21.8446 36.6277 21.968 36.7226 22.082 36.8271C21.7591 36.8556 21.4363 36.8271 21.1324 36.6941C20.4867 36.0389 19.9834 35.2887 20.0309 34.3012C20.0499 33.2756 20.6006 32.4115 21.1229 31.5758C21.6357 30.7687 22.3479 30.009 23.2975 29.6102C24.2566 29.2303 25.3201 29.3633 26.2222 29.6197C29.9731 30.9586 31.2361 29.6197 30.8847 25.8213C30.8847 25.8308 30.8847 25.8403 30.8847 25.8498C31.4355 27.578 31.2266 30.3793 28.9381 30.5787L28.9476 30.5693Z" fill="#B8B176"/>
</g>
<g style="mix-blend-mode:multiply" opacity="0.26">
<path d="M14.3428 19.8297C15.1879 19.8582 16.0236 19.8487 16.8687 19.7633C17.7044 19.6588 18.5115 19.5069 19.3282 19.4594C21.7781 19.3264 24.3895 19.6778 26.6875 18.6143C25.8044 18.9751 24.8833 19.1365 23.9432 19.1935C22.3478 18.8516 20.5151 18.016 20.2113 16.2783C20.1353 15.8509 20.2302 15.4426 20.2587 14.9773C20.2967 13.6194 19.8884 12.2805 19.2997 11.084C19.7175 12.3374 20.0688 13.6479 20.0119 14.9678C19.9739 15.3856 19.8789 15.8604 19.9739 16.3257C20.3062 18.1489 22.1959 18.9941 23.8577 19.203H23.8482C22.3478 19.298 20.8095 19.146 19.3091 19.1745C18.4735 19.1935 17.6474 19.3264 16.8307 19.4024C15.8811 19.4784 14.941 19.4594 14.0009 19.4024C13.8965 19.4404 13.773 19.4784 13.6401 19.5069C13.3267 19.5923 12.9754 19.6588 12.6335 19.7158C12.6335 19.7158 12.586 19.7158 12.5576 19.7253C12.605 19.7253 12.6525 19.7348 12.7 19.7348C14.5327 20.3425 16.2325 21.2921 17.7613 22.4886C16.8022 21.4155 15.6437 20.4944 14.3523 19.8392L14.3428 19.8297Z" fill="#B8B176"/>
</g>
<g style="mix-blend-mode:multiply" opacity="0.69">
<path d="M16.0331 34.1214C15.8621 34.2164 15.6437 34.3303 15.3778 34.4443C15.3303 33.922 15.2354 33.4282 15.1784 33.1528C14.7511 31.1587 13.2317 29.6203 11.6649 28.3859C11.1237 27.9586 10.5064 27.5217 10.0411 26.9805C8.98708 25.86 8.98708 23.9988 10.1646 22.9922C9.08204 24.578 9.74675 26.2398 11.2281 27.2369C13.1558 28.5663 14.8271 30.1236 15.6057 32.1558C15.8336 32.7635 15.9856 33.4092 16.0426 34.1024L16.0331 34.1214Z" fill="#B8B176"/>
</g>
<g style="mix-blend-mode:multiply" opacity="0.69">
<path d="M55.2228 23.4199C55.2228 23.4199 55.2703 23.5054 55.2893 23.5529C55.6976 24.3315 56.2863 25.0532 56.7611 25.7749C56.9321 26.0408 57.0935 26.2972 57.2169 26.5631C57.4449 27.0189 57.5873 27.4842 57.5873 27.9685C57.5873 28.0254 57.5873 28.0919 57.5873 28.1489C57.5208 29.0225 57.0175 29.5923 56.5048 29.9816C56.2958 30.1335 56.0774 30.257 55.9065 30.333C55.7356 29.1839 55.3652 28.0444 54.786 27.0284C53.0862 24.0751 49.2214 23.344 46.1352 24.1511C48.6041 23.8852 50.7122 24.2935 52.2791 25.3476C52.2791 25.3476 52.2886 25.3476 52.2981 25.3571C54.1403 26.6011 55.2228 28.7471 55.2798 31.7573C55.3178 33.2387 55.3178 34.948 54.1213 36.021C54.1687 36.002 54.2257 35.983 54.2732 35.9545C54.9569 35.6317 55.4032 34.872 55.6501 34.1693C55.9635 33.1058 56.0584 31.9852 55.9635 30.8837C56.1819 30.7888 56.4953 30.6368 56.8086 30.3994C57.3974 29.9721 58.0241 29.2599 58.1096 28.1964C58.1096 28.1204 58.1096 28.0444 58.1096 27.978C58.1096 27.3702 57.9196 26.8005 57.6538 26.2782C57.6538 26.2782 57.6538 26.2592 57.6443 26.2592L55.2323 23.4389L55.2228 23.4199Z" fill="#B8B176"/>
</g>
<g style="mix-blend-mode:multiply" opacity="0.69">
<path d="M54.8429 22.1662C54.8334 22.0712 54.8239 21.9763 54.8239 21.8813C54.8239 21.4445 54.9189 20.9982 55.1468 20.5329C55.3747 20.0486 55.6595 19.6972 55.9729 19.4693C56.2863 19.2414 56.6376 19.1465 56.9795 19.1465C56.9985 19.1465 57.027 19.1465 57.046 19.1465C57.2834 19.1465 57.5207 19.2035 57.7391 19.2889C58.0145 19.3839 58.2899 19.5263 58.5368 19.6878C59.0116 19.9916 59.4294 20.3525 59.7428 20.6373C59.9517 20.8273 60.1226 20.9792 60.1986 21.0362C60.3505 21.1406 60.5784 21.3305 60.9013 21.549C61.2242 21.7674 61.6515 22.0237 62.1738 22.2611C63.2183 22.7454 64.6712 23.1823 66.5704 23.1823C66.9217 23.1823 67.2921 23.1633 67.6719 23.1348C68.0138 23.1063 68.3461 23.0588 68.6405 23.0018C68.1087 23.2772 67.6909 23.3912 67.6909 23.3912C67.6909 23.3912 67.7289 23.4766 67.7858 23.6476C67.7669 23.6476 67.7383 23.6476 67.7099 23.6476C67.3205 23.676 66.9312 23.695 66.5704 23.695C63.6076 23.695 61.642 22.6695 60.6164 21.9763C60.2746 21.7484 60.0277 21.549 59.8947 21.454C59.7618 21.359 59.6098 21.2071 59.4009 21.0172C59.192 20.8273 58.9546 20.6184 58.6793 20.4094C58.138 19.9916 57.5112 19.6498 56.9795 19.6593C56.7326 19.6593 56.5047 19.7257 56.2863 19.8872C56.0584 20.0486 55.8305 20.324 55.6216 20.7513C55.4316 21.1501 55.3557 21.5205 55.3557 21.8718C55.3557 22.3086 55.6785 23.1538 55.6785 23.1633L54.8524 22.1567L54.8429 22.1662Z" fill="#B8B176"/>
</g>
<g style="mix-blend-mode:multiply" opacity="0.69">
<path d="M64.4623 32.1751C60.9583 29.7631 58.347 26.4301 55.6786 23.1635C55.4032 22.8311 55.1278 22.4893 54.8525 22.1569C54.5106 21.7391 54.1688 21.3307 53.8174 20.9224C49.9336 16.5923 45.2806 12.7939 39.7824 10.6953C39.7824 10.8283 39.7824 10.9612 39.7634 11.0941C39.7634 11.1416 39.7539 11.1986 39.7444 11.2461C44.9957 13.3922 49.5822 17.1146 53.4091 21.2833C54.0168 21.9765 54.6245 22.6982 55.2228 23.4104C55.7546 24.0371 56.2769 24.6638 56.8086 25.2811C57.084 25.6039 57.3594 25.9173 57.6348 26.2306C59.6479 28.5192 61.794 30.6652 64.4054 32.2606C65.0511 32.6214 65.7253 32.9917 66.4755 33.0582C65.7348 32.9443 65.0891 32.5454 64.4718 32.1561L64.4623 32.1751Z" fill="#B8B176"/>
</g>
<path d="M10.9054 18.4248C10.3736 18.3204 9.92728 18.1399 9.6424 17.8171C9.04416 17.1144 9.6329 15.595 9.04415 13.6769C8.12305 10.6571 9.14862 9.08082 10.8959 8.17871C10.8959 8.17871 9.49047 9.50814 9.58543 10.7141C9.68039 11.9201 10.4401 13.7338 10.2406 14.8828C10.0317 16.0413 9.36703 17.6936 10.8959 18.4153L10.9054 18.4248Z" fill="#FFE28C"/>
<path d="M26.3077 8.71018C25.3201 8.64371 23.1645 8.73866 22.8417 10.0016C22.5188 11.2646 24.0002 13.6006 25.4531 13.3822C26.9059 13.1638 26.64 11.1032 30.1725 11.0747C33.705 11.0462 37.0001 10.0586 36.5728 9.27044C36.1455 8.48228 33.9044 8.10244 32.5465 9.09951C31.1886 10.0966 27.2858 8.77665 26.3077 8.71018Z" fill="#FFE28C"/>
<path d="M23.3831 26.0124C22.6234 28.4909 25.4722 26.9051 26.5547 26.3448C27.6372 25.7845 29.1851 26.2783 28.7578 25.7181C28.3305 25.1578 24.1428 23.5435 23.3831 26.0124Z" fill="#FFE28C"/>
<path opacity="0.52" d="M24.2756 30.4754C25.8804 30.5133 25.2821 32.0232 23.2215 32.1371C22.2624 32.1941 21.5122 34.4921 21.4268 34.3687C20.914 33.6565 21.9965 30.4184 24.2756 30.4754Z" fill="#FFE28C"/>
<path d="M34.2465 15.9837C34.4459 16.9333 38.5101 16.1831 39.6401 16.5535C40.7701 16.9238 42.3655 17.7595 42.0806 18.9939C41.7957 20.2284 42.9827 21.4344 45.1857 21.6528C47.3888 21.8712 46.2683 19.8391 44.8534 18.899C43.4385 17.9589 40.8461 16.2021 39.7256 15.8698C39.1178 15.6893 37.4656 14.9677 36.1361 14.9487C35.0251 14.9297 34.1515 15.5564 34.2465 15.9837Z" fill="#FFE28C"/>
<path d="M7.33496 35.4224C3.35617 32.6401 2.00773 30.1142 2.00773 30.1142C-0.0433899 26.8476 -0.717575 22.0902 0.906228 17.9404C1.63741 16.0698 3.94492 14.0661 6.24293 12.2334C4.67611 13.5533 0.250989 17.931 1.89378 24.3597C3.81196 31.8805 7.12605 35.223 7.33496 35.4224Z" fill="#FFF6E0"/>
</svg>
