<svg width="70" height="60" viewBox="0 0 70 60" fill="none" xmlns="http://www.w3.org/2000/svg">
<path d="M62.7936 30.0098C61.8194 43.4347 53.6627 54.1297 43.6272 56.2397C42.9015 56.2947 42.1658 56.3247 41.4252 56.3247C41.3755 56.3247 41.3258 56.3247 41.2811 56.3247C41.2811 56.3247 41.2761 56.3247 41.2711 56.3247C41.2264 56.3147 41.1817 56.3097 41.1319 56.2997C41.0176 56.2297 40.8983 56.1547 40.789 56.0697C40.7144 56.0197 40.6399 55.9597 40.5653 55.9047C44.9692 54.5147 49.224 43.3047 49.5471 29.0698C49.7509 19.9198 48.379 7.61489 45.4563 2.59491C44.8748 1.59492 44.2286 0.87992 43.5278 0.544922C54.6767 2.85491 63.8523 15.4599 62.7986 30.0098H62.7936Z" fill="#E9F3BF"/>
<path d="M61.1981 29.9701C60.2537 43.08 52.3207 53.5249 42.5586 55.5849C41.8528 55.6399 41.137 55.6699 40.4163 55.6699C40.3666 55.6699 40.3218 55.6699 40.2721 55.6699C40.2721 55.6699 40.2672 55.6699 40.2622 55.6699C40.2175 55.6599 40.1727 55.6549 40.128 55.6449C40.0186 55.5799 39.9043 55.5049 39.79 55.4199C39.7154 55.3699 39.6458 55.3149 39.5713 55.2549C43.8509 53.8949 47.9914 42.95 48.3045 29.0501C48.5034 20.1151 47.1663 8.09516 44.3281 3.20019C43.7615 2.22019 43.1352 1.52519 42.4492 1.2002C53.29 3.46018 62.2121 15.7651 61.1882 29.9751L61.1981 29.9701Z" fill="#E65053"/>
<path d="M58.9215 29.75C57.9871 41.4549 50.3275 50.8399 40.784 53.0499C40.7095 53.0049 40.6349 52.9549 40.5653 52.8999C44.8996 51.6549 49.0898 41.6349 49.4079 28.905C49.6117 20.725 48.2597 9.72009 45.3818 5.23511C53.7273 9.38009 59.7864 18.97 58.9265 29.75H58.9215Z" fill="#C94649"/>
<g style="mix-blend-mode:multiply">
<path d="M48.7536 41.6054C48.7784 40.8934 48.5117 40.3061 48.1578 40.2936C47.8039 40.2811 47.4968 40.8482 47.472 41.5602C47.4471 42.2722 47.7139 42.8595 48.0678 42.872C48.4217 42.8845 48.7288 42.3174 48.7536 41.6054Z" fill="#CC292B"/>
<path d="M48.54 41.5979C48.5566 41.1233 48.3788 40.7317 48.1428 40.7234C47.9069 40.7151 47.7022 41.0931 47.6856 41.5678C47.6691 42.0424 47.8469 42.434 48.0828 42.4423C48.3188 42.4507 48.5235 42.0726 48.54 41.5979Z" fill="black"/>
<path d="M53.494 31.1242C53.6581 30.9275 53.4725 30.4989 53.0793 30.1669C52.6861 29.8349 52.2343 29.7252 52.0701 29.9219C51.906 30.1186 52.0917 30.5472 52.4849 30.8792C52.8781 31.2112 53.3299 31.3209 53.494 31.1242Z" fill="#FF8083"/>
<path d="M53.2578 30.9251C53.3672 30.794 53.2429 30.5078 52.9801 30.2858C52.7172 30.0639 52.4155 29.9903 52.306 30.1214C52.1966 30.2526 52.321 30.5388 52.5838 30.7607C52.8466 30.9826 53.1484 31.0562 53.2578 30.9251Z" fill="black"/>
<path d="M52.188 42.2567C52.3521 42.06 52.1664 41.6315 51.7732 41.2995C51.3801 40.9675 50.9283 40.8578 50.7641 41.0545C50.6 41.2512 50.7857 41.6798 51.1788 42.0118C51.572 42.3438 52.0238 42.4534 52.188 42.2567Z" fill="#FF8083"/>
<path d="M51.9519 42.0577C52.0613 41.9265 51.937 41.6403 51.6742 41.4184C51.4113 41.1965 51.1096 41.1229 51.0001 41.254C50.8907 41.3852 51.0151 41.6714 51.2779 41.8933C51.5407 42.1152 51.8425 42.1888 51.9519 42.0577Z" fill="black"/>
<path d="M55.7906 39.6001C56.0637 39.4148 55.9878 38.821 55.621 38.2738C55.2542 37.7266 54.7355 37.4332 54.4623 37.6184C54.1892 37.8037 54.2651 38.3975 54.6319 38.9447C54.9987 39.4919 55.5174 39.7853 55.7906 39.6001Z" fill="#FF8083"/>
<path d="M55.5708 39.2727C55.7529 39.1492 55.7015 38.7521 55.4559 38.3857C55.2104 38.0194 54.8637 37.8226 54.6816 37.9461C54.4995 38.0696 54.551 38.4667 54.7965 38.833C55.0421 39.1993 55.3888 39.3962 55.5708 39.2727Z" fill="black"/>
<path d="M50.5013 36.8555C50.7363 36.7354 50.7332 36.2549 50.4945 35.7822C50.2558 35.3095 49.8718 35.0236 49.6369 35.1437C49.4019 35.2638 49.4049 35.7443 49.6437 36.217C49.8824 36.6897 50.2663 36.9755 50.5013 36.8555Z" fill="#BF0002"/>
<path d="M50.3572 36.5702C50.5139 36.4902 50.5118 36.1698 50.3527 35.8547C50.1936 35.5396 49.9376 35.349 49.7809 35.429C49.6243 35.5091 49.6263 35.8294 49.7855 36.1446C49.9446 36.4597 50.2006 36.6503 50.3572 36.5702Z" fill="black"/>
<path d="M49.2014 48.3164C49.4363 48.1964 49.4333 47.7158 49.1946 47.2431C48.9559 46.7704 48.5719 46.4846 48.3369 46.6046C48.102 46.7247 48.105 47.2052 48.3437 47.6779C48.5824 48.1506 48.9664 48.4365 49.2014 48.3164Z" fill="#BF0002"/>
<path d="M49.0574 48.0312C49.2141 47.9511 49.212 47.6308 49.0529 47.3157C48.8938 47.0005 48.6378 46.8099 48.4811 46.89C48.3245 46.97 48.3265 47.2904 48.4857 47.6055C48.6448 47.9206 48.9008 48.1112 49.0574 48.0312Z" fill="black"/>
<path d="M56.2297 26.2945C56.8158 26.0818 57.2049 25.6693 57.0987 25.3732C56.9925 25.077 56.4312 25.0095 55.845 25.2222C55.2589 25.435 54.8698 25.8475 54.976 26.1436C55.0822 26.4397 55.6435 26.5073 56.2297 26.2945Z" fill="#FF8083"/>
<path d="M56.1656 26.1159C56.5581 25.9734 56.8189 25.6979 56.7481 25.5005C56.6772 25.3031 56.3017 25.2585 55.9092 25.401C55.5167 25.5435 55.2559 25.819 55.3267 26.0164C55.3975 26.2138 55.7731 26.2583 56.1656 26.1159Z" fill="black"/>
<path d="M51.5483 23.9464C51.9422 23.5736 52.1121 23.1117 51.9278 22.9146C51.7435 22.7175 51.2747 22.8598 50.8808 23.2326C50.4869 23.6053 50.317 24.0673 50.5014 24.2644C50.6857 24.4615 51.1544 24.3191 51.5483 23.9464Z" fill="#BF0002"/>
<path d="M51.4395 23.8298C51.7014 23.5819 51.8131 23.2734 51.6889 23.1406C51.5648 23.0079 51.2518 23.1012 50.9899 23.3491C50.728 23.5969 50.6163 23.9055 50.7404 24.0382C50.8645 24.171 51.1775 24.0776 51.4395 23.8298Z" fill="black"/>
<path d="M54.0838 15.2141C54.5285 14.6812 54.6743 14.0677 54.4094 13.844C54.1445 13.6203 53.5692 13.8711 53.1244 14.4041C52.6796 14.9371 52.5339 15.5505 52.7988 15.7742C53.0637 15.9979 53.639 15.7471 54.0838 15.2141Z" fill="#FF8083"/>
<path d="M53.9239 15.079C54.2204 14.7237 54.3176 14.3148 54.141 14.1656C53.9644 14.0165 53.5808 14.1837 53.2843 14.539C52.9878 14.8943 52.8906 15.3033 53.0672 15.4524C53.2439 15.6015 53.6274 15.4344 53.9239 15.079Z" fill="black"/>
<path d="M49.9842 11.6146C50.0424 10.8409 49.7766 10.1899 49.3906 10.1605C49.0046 10.1312 48.6446 10.7347 48.5865 11.5084C48.5284 12.2822 48.7942 12.9332 49.1802 12.9625C49.5661 12.9919 49.9261 12.3884 49.9842 11.6146Z" fill="#CC292B"/>
<path d="M49.7513 11.5967C49.79 11.0818 49.6128 10.6485 49.3554 10.629C49.0981 10.6094 48.8582 11.011 48.8195 11.5259C48.7809 12.0408 48.9581 12.4741 49.2154 12.4937C49.4727 12.5132 49.7127 12.1116 49.7513 11.5967Z" fill="black"/>
<path d="M49.9455 19.3555C50.2063 18.9629 50.2586 18.5376 50.0623 18.4057C49.866 18.2738 49.4955 18.4851 49.2347 18.8777C48.9739 19.2703 48.9216 19.6956 49.1179 19.8275C49.3142 19.9595 49.6847 19.7481 49.9455 19.3555Z" fill="#FF8083"/>
<path d="M49.8255 19.2746C49.9994 19.0129 50.0348 18.7298 49.9047 18.6423C49.7746 18.5549 49.5282 18.6962 49.3544 18.9579C49.1805 19.2197 49.145 19.5028 49.2751 19.5902C49.4052 19.6777 49.6516 19.5364 49.8255 19.2746Z" fill="black"/>
<path d="M58.4 32.5916C58.5014 32.3113 58.132 31.9187 57.5748 31.7146C57.0177 31.5105 56.4837 31.5722 56.3823 31.8525C56.2808 32.1327 56.6503 32.5253 57.2074 32.7294C57.7646 32.9335 58.2985 32.8718 58.4 32.5916Z" fill="#CC292B"/>
<path d="M58.0638 32.4682C58.1314 32.2814 57.8851 32.0196 57.5137 31.8836C57.1422 31.7475 56.7863 31.7886 56.7187 31.9755C56.651 32.1623 56.8973 32.424 57.2687 32.5601C57.6402 32.6962 57.9961 32.655 58.0638 32.4682Z" fill="black"/>
<path d="M57.4543 19.9834C58.0796 19.6259 58.4424 19.0811 58.2647 18.7666C58.0871 18.4521 57.4361 18.487 56.8108 18.8444C56.1855 19.2019 55.8226 19.7467 56.0003 20.0612C56.178 20.3757 56.829 20.3408 57.4543 19.9834Z" fill="#CC292B"/>
<path d="M57.3462 19.7923C57.7638 19.5535 58.0068 19.1907 57.8888 18.9818C57.7708 18.7729 57.3365 18.7972 56.9188 19.0359C56.5012 19.2747 56.2583 19.6376 56.3763 19.8465C56.4943 20.0553 56.9285 20.0311 57.3462 19.7923Z" fill="black"/>
</g>
<path d="M69.4192 28.16C69.4192 28.755 69.3994 29.35 69.3646 29.94C69.1807 32.8949 68.5444 35.7249 67.5255 38.3649C64.2201 46.9299 56.8587 53.4648 47.8123 55.5898C48.1006 55.4998 48.3839 55.3998 48.6722 55.2898C48.8959 55.2048 49.1195 55.1198 49.3432 55.0248C49.547 54.9448 49.7508 54.8548 49.9546 54.7648C50.5212 54.5098 51.0879 54.2298 51.6446 53.9248C51.8881 53.7898 52.1267 53.6548 52.3603 53.5148C52.6089 53.3648 52.8574 53.2148 53.1009 53.0548C53.3445 52.8998 53.5881 52.7398 53.8316 52.5698C54.105 52.3849 54.3734 52.1949 54.6368 51.9949C54.8506 51.8399 55.0593 51.6799 55.2631 51.5149C55.278 51.5049 55.2979 51.4899 55.3178 51.4749C55.5315 51.3049 55.7403 51.1349 55.9441 50.9599C55.9988 50.9199 56.0485 50.8749 56.0982 50.8299C56.2871 50.6749 56.471 50.5099 56.6499 50.3499C56.8835 50.1449 57.1122 49.9299 57.3408 49.7099C57.5595 49.5049 57.7683 49.2949 57.982 49.0799C57.987 49.0799 57.987 49.0749 57.992 49.0699C58.161 48.8949 58.3349 48.7199 58.499 48.5399C59.0507 47.9599 59.5726 47.3549 60.0796 46.7249C60.2088 46.5649 60.3381 46.3999 60.4623 46.2349C60.6562 45.9849 60.85 45.7299 61.0339 45.4699C61.0439 45.4649 61.0488 45.4549 61.0538 45.4449C61.2129 45.2249 61.367 44.9999 61.521 44.7749C61.7348 44.4699 61.9435 44.1549 62.1424 43.8349C62.3064 43.5699 62.4704 43.3049 62.6295 43.0349C62.7836 42.7699 62.9377 42.5049 63.0917 42.2349C63.1017 42.2149 63.1067 42.1999 63.1166 42.1849C63.4297 41.6099 63.728 41.0249 64.0113 40.4249C64.056 40.3349 64.0958 40.2399 64.1356 40.1499C64.235 39.9399 64.3294 39.7299 64.4189 39.5199C64.4636 39.4299 64.5034 39.3349 64.5382 39.2399C64.6276 39.0249 64.7171 38.8099 64.8016 38.5949C64.9209 38.2899 65.0352 37.9799 65.1495 37.6699C65.1545 37.6649 65.1545 37.6599 65.1545 37.6499C65.3782 37.0299 65.582 36.3949 65.7609 35.7499C65.7709 35.7299 65.7758 35.7149 65.7808 35.6949C65.8703 35.3699 65.9548 35.0499 66.0343 34.7199C66.1138 34.3949 66.1884 34.0649 66.258 33.7349C66.3276 33.4149 66.3922 33.0899 66.4469 32.7699C66.5065 32.4449 66.5562 32.1199 66.6009 31.7899C66.6407 31.5199 66.6755 31.2499 66.7053 30.975C66.7202 30.86 66.7302 30.745 66.7401 30.635C66.7699 30.36 66.7948 30.08 66.8147 29.8C67.3117 22.95 65.1843 16.54 61.6205 11.435C57.4203 5.41507 51.227 1.21009 44.989 0.225098C51.8185 1.09509 57.8776 4.44508 62.2517 9.34505C66.7103 14.33 69.4192 20.925 69.4192 28.16Z" fill="#243615"/>
<path d="M66.8147 29.7999C66.7949 30.0799 66.77 30.3599 66.7402 30.6349C66.7302 30.7449 66.7203 30.8599 66.7054 30.9749C66.6756 31.2499 66.6408 31.5199 66.601 31.7898C66.5563 32.1198 66.5066 32.4448 66.4469 32.7698C66.3922 33.0898 66.3276 33.4148 66.258 33.7348C66.1885 34.0648 66.1139 34.3948 66.0344 34.7198C65.9548 35.0498 65.8703 35.3698 65.7809 35.6948C65.7759 35.7148 65.7709 35.7298 65.761 35.7498C65.582 36.3948 65.3783 37.0298 65.1546 37.6498C65.1546 37.6598 65.1546 37.6648 65.1496 37.6698C65.0353 37.9798 64.921 38.2898 64.8017 38.5948C64.7172 38.8098 64.6277 39.0248 64.5382 39.2398C64.5034 39.3348 64.4637 39.4298 64.4189 39.5198C64.2897 39.8248 64.1505 40.1248 64.0114 40.4248C63.728 41.0248 63.4298 41.6098 63.1167 42.1848C63.1067 42.1998 63.1017 42.2148 63.0918 42.2348C62.9377 42.5048 62.7836 42.7698 62.6295 43.0348C62.4705 43.3048 62.3065 43.5698 62.1424 43.8348C61.9436 44.1548 61.7348 44.4698 61.5211 44.7748C61.367 44.9998 61.2129 45.2248 61.0539 45.4448C61.0489 45.4548 61.0439 45.4648 61.034 45.4698C60.8501 45.7298 60.6562 45.9848 60.4624 46.2348C60.3381 46.3998 60.2089 46.5648 60.0797 46.7248C59.5727 47.3548 59.0507 47.9598 58.499 48.5398C58.335 48.7198 58.161 48.8948 57.992 49.0698C57.987 49.0748 57.9871 49.0798 57.9821 49.0798C57.7683 49.2948 57.5596 49.5048 57.3409 49.7098C57.1122 49.9298 56.8836 50.1448 56.65 50.3498C56.471 50.5098 56.2871 50.6748 56.0982 50.8298C56.0485 50.8748 55.9988 50.9198 55.9442 50.9598C55.7404 51.1348 55.5316 51.3048 55.3179 51.4748C55.298 51.4898 55.2781 51.5048 55.2632 51.5148C55.0594 51.6798 54.8506 51.8398 54.6369 51.9948C54.3735 52.1948 54.1051 52.3847 53.8317 52.5697C53.5881 52.7397 53.3446 52.8997 53.101 53.0547C52.8574 53.2147 52.6089 53.3647 52.3604 53.5147C52.1268 53.6547 51.8882 53.7897 51.6446 53.9247C51.0879 54.2297 50.5213 54.5097 49.9546 54.7647C49.7509 54.8547 49.5471 54.9447 49.3433 55.0247C49.1196 55.1197 48.8959 55.2047 48.6722 55.2897C48.384 55.3997 48.1006 55.4997 47.8123 55.5897C46.4504 55.9097 45.0537 56.1297 43.6222 56.2397C43.8707 56.1897 44.1192 56.1297 44.3678 56.0647C44.8648 55.9397 45.3569 55.7947 45.844 55.6247C46.0876 55.5397 46.3262 55.4547 46.5647 55.3597C46.8033 55.2647 47.0419 55.1647 47.2805 55.0597C47.4793 54.9747 47.6831 54.8797 47.8819 54.7847C47.9416 54.7547 48.0012 54.7297 48.0609 54.6947C48.2647 54.5997 48.4685 54.4947 48.6722 54.3847C49.4576 53.9647 50.2231 53.4897 50.9637 52.9647C51.0084 52.9347 51.0531 52.8997 51.0979 52.8647C51.252 52.7598 51.4061 52.6448 51.5601 52.5248C51.749 52.3848 51.9329 52.2398 52.1168 52.0948C52.9121 51.4448 53.6826 50.7398 54.4083 49.9798C54.6021 49.7798 54.791 49.5748 54.9749 49.3648C55.134 49.1898 55.293 49.0148 55.4421 48.8298C55.6062 48.6448 55.7652 48.4548 55.9193 48.2598C55.9243 48.2548 55.9292 48.2448 55.9342 48.2398C56.0684 48.0698 56.2026 47.8998 56.3319 47.7248C56.6301 47.3498 56.9084 46.9598 57.1818 46.5598C57.316 46.3648 57.4453 46.1748 57.5745 45.9748C57.7186 45.7548 57.8628 45.5298 58.002 45.2998C58.0268 45.2598 58.0517 45.2198 58.0765 45.1798C58.2207 44.9448 58.3598 44.7098 58.494 44.4698C58.6382 44.2148 58.7823 43.9548 58.9215 43.6948C58.9215 43.6948 58.9215 43.6898 58.9215 43.6848C59.0657 43.4248 59.1999 43.1598 59.3291 42.8898C59.4583 42.6298 59.5876 42.3648 59.7118 42.0998C60.0796 41.3048 60.4226 40.4798 60.7358 39.6348C60.9694 39.0048 61.1831 38.3648 61.377 37.7048C61.4664 37.4148 61.5509 37.1198 61.6305 36.8248C61.71 36.5448 61.7845 36.2598 61.8492 35.9748C61.869 35.9148 61.884 35.8548 61.8989 35.7898C61.9635 35.5098 62.0281 35.2248 62.0878 34.9398C62.1573 34.6398 62.217 34.3348 62.2717 34.0248C62.2717 34.0048 62.2816 33.9848 62.2866 33.9598C62.3412 33.6448 62.3959 33.3248 62.4456 33.0048C62.4904 32.7498 62.5252 32.4898 62.56 32.2298C62.5848 32.0348 62.6097 31.8348 62.6345 31.6348C62.6643 31.4049 62.6892 31.1699 62.7091 30.9349C62.7389 30.6299 62.7687 30.3199 62.7886 30.0099C63.1862 24.5049 62.1225 19.2799 60.0399 14.7849C56.6152 7.39496 50.4467 1.97999 43.5178 0.539997C47.0916 2.25999 49.0947 13.5599 49.4824 23.6399C49.557 25.5149 49.5769 27.3449 49.5371 29.0649C49.4278 33.8698 48.8711 38.3248 48.0112 42.1798C46.3261 49.7448 43.4731 54.9747 40.5553 55.8997C40.7492 56.0497 40.9381 56.1797 41.127 56.2947C41.1717 56.3047 41.2164 56.3097 41.2612 56.3197H40.8088C40.3615 56.3097 39.9092 56.2897 39.4668 56.2547H39.432C24.8981 55.2297 13.4211 43.0448 13.4211 28.1599C13.4211 22.4549 15.1062 17.1499 18.009 12.7149C19.2417 10.8249 20.698 9.09496 22.3333 7.55996C27.3387 2.86999 34.0489 0 41.4252 0C41.6439 0 41.8576 0 42.0763 0.00999995C42.0962 0.00999995 42.1111 0.00499998 42.131 0.00999995H42.141C42.141 0.00999995 42.1459 0.00499998 42.1459 0.00999995C42.9313 0.0249999 43.7067 0.0799996 44.4721 0.164999H44.4771C44.6411 0.179999 44.8052 0.199999 44.9642 0.219999C44.9742 0.219999 44.9841 0.219999 44.9891 0.224999C51.2271 1.20999 57.4204 5.41497 61.6205 11.4349C65.1844 16.5399 67.3118 22.9499 66.8147 29.7999Z" fill="#486A2A"/>
<path d="M44.6162 0.160253H44.5815C44.5815 0.160253 44.5815 0.160253 44.5765 0.160253C44.5417 0.160253 44.5119 0.160253 44.4771 0.160253C44.0894 0.160253 43.6967 0.175253 43.314 0.205253C43.0356 0.225253 42.7573 0.250253 42.4789 0.285253C42.3994 0.295253 42.3248 0.305252 42.2453 0.315252H42.2304C42.0564 0.340252 41.8775 0.365252 41.7035 0.395252C41.6439 0.405252 41.5842 0.415252 41.5196 0.430252C40.4161 0.620251 39.3326 0.91525 38.2689 1.30525C28.3775 4.91523 20.7129 16.6402 21.6772 30.0051C22.6365 43.22 30.5546 53.795 40.3764 56.13C40.6249 56.19 40.8734 56.24 41.1269 56.29C41.1717 56.3 41.2164 56.305 41.2661 56.315H41.1766C41.0573 56.315 40.938 56.315 40.8138 56.315C40.3664 56.305 39.9141 56.285 39.4668 56.255C39.4519 56.255 39.4419 56.255 39.432 56.255C28.9789 54.625 20.35 43.69 19.346 29.8551C18.2574 14.7502 28.1836 1.74525 39.8942 0.160253H39.8992C39.9787 0.150253 40.0583 0.140253 40.1378 0.135253C40.1527 0.135253 40.1726 0.135253 40.1875 0.130253C40.277 0.115253 40.3664 0.110253 40.4559 0.100253C40.5454 0.0902535 40.6348 0.0852535 40.7243 0.0752536C40.8436 0.0652536 40.9629 0.0502537 41.0872 0.0452537C41.4202 0.0252538 41.7433 0.0102539 42.0713 0.0102539C42.0912 0.0102539 42.1061 0.0102539 42.126 0.0102539C42.126 0.0102539 42.1277 0.0102539 42.131 0.0102539C42.131 0.0102539 42.131 0.0102539 42.1359 0.0102539C42.1608 0.0102539 42.1807 0.0102539 42.2006 0.0102539H42.2503C43.0406 0.0102539 43.8259 0.0602537 44.6063 0.165253L44.6162 0.160253Z" fill="#243615"/>
<path d="M41.1767 56.3198C41.2861 56.3798 41.3904 56.4398 41.4948 56.4898C41.2761 56.4548 41.0475 56.3998 40.8139 56.3148C40.6747 56.2648 40.5256 56.2048 40.3814 56.1298C40.2969 56.0898 40.2124 56.0448 40.123 55.9998C40.108 55.9898 40.0882 55.9798 40.0732 55.9698C35.4506 53.3848 32.2844 42.1999 32.3391 28.6949C32.3838 18.54 34.4317 5.14006 38.8157 1.63007C39.4867 1.09008 40.4609 0.350079 41.0922 0.320079C41.5694 0.29508 41.0475 0.21008 41.5147 0.430079C41.5147 0.430079 41.5246 0.430079 41.5296 0.435079C41.5097 0.435079 41.4849 0.435079 41.46 0.435079C41.46 0.435079 41.46 0.435079 41.4551 0.435079C41.2761 0.475079 40.9928 0.685078 40.8735 0.775077C38.8107 2.28007 34.72 12.135 35.2468 29.4349C35.6395 42.2799 36.4895 52.5348 40.4112 55.7748C40.456 55.8198 40.5057 55.8548 40.5504 55.8898C40.7443 56.0398 40.9332 56.1698 41.122 56.2848C41.1369 56.2948 41.1568 56.3048 41.1668 56.3098L41.1767 56.3198Z" fill="#243615"/>
<path d="M49.542 29.065C49.2189 43.2949 44.9592 54.5048 40.5602 55.8998C40.4161 55.9448 40.272 55.9798 40.1228 56.0048C40.0731 56.0148 40.0185 56.0198 39.9688 56.0298C40.0035 56.0148 40.0383 55.9948 40.0781 55.9798C40.1974 55.9248 40.3117 55.8598 40.4211 55.7898C44.3478 53.3798 45.8439 43.1649 46.6144 29.735C47.6035 12.55 44.6808 1.98009 42.0763 0.660094C41.9868 0.615094 41.8426 0.495095 41.7035 0.405095C41.6041 0.340096 41.4997 0.290096 41.4301 0.300096C41.4748 0.280096 41.5196 0.260096 41.5693 0.250096C41.8923 0.150096 42.1657 0.240096 42.4789 0.295096C42.5584 0.310096 42.6379 0.320096 42.7274 0.330096C43.0008 0.350095 43.2692 0.425095 43.5227 0.545095C47.7626 2.58508 49.7905 18.1 49.542 29.07V29.065Z" fill="#243615"/>
<path d="M66.8147 29.8C66.7948 30.08 66.77 30.36 66.7402 30.635C66.7302 30.745 66.7203 30.86 66.7054 30.975C66.6756 31.25 66.6408 31.52 66.601 31.79C66.5563 32.12 66.5066 32.445 66.4469 32.77C66.3922 33.09 66.3276 33.415 66.258 33.735C66.1884 34.065 66.1139 34.395 66.0344 34.72C65.9548 35.05 65.8703 35.37 65.7809 35.695C65.7759 35.715 65.7709 35.73 65.761 35.75C65.582 36.395 65.3782 37.0299 65.1546 37.6499C65.1546 37.6599 65.1546 37.6649 65.1496 37.6699C65.0353 37.9799 64.9209 38.2899 64.8017 38.5949C64.7172 38.8099 64.6277 39.0249 64.5382 39.2399C64.5034 39.3349 64.4637 39.4299 64.4189 39.5199C64.3295 39.7299 64.235 39.9399 64.1356 40.1499C64.0958 40.2399 64.0561 40.3349 64.0113 40.4249C63.733 41.0249 63.4348 41.6099 63.1166 42.1849C63.1067 42.1999 63.1017 42.2149 63.0918 42.2349C62.9377 42.5049 62.7836 42.7699 62.6295 43.0349C62.4705 43.3049 62.3064 43.5699 62.1424 43.8349C61.9436 44.1549 61.7348 44.4699 61.5211 44.7749C61.367 44.9999 61.2129 45.2249 61.0539 45.4449C61.0489 45.4549 61.0439 45.4649 61.034 45.4699C60.8501 45.7299 60.6562 45.9849 60.4624 46.2349C60.3381 46.3999 60.2089 46.5649 60.0796 46.7249C59.5726 47.3549 59.0507 47.9599 58.499 48.5399C58.335 48.7199 58.161 48.8949 57.992 49.0699C57.987 49.0749 57.987 49.0799 57.9821 49.0799C57.7683 49.2949 57.5596 49.5049 57.3409 49.7099C57.1122 49.9299 56.8836 50.1449 56.65 50.3499C56.471 50.5099 56.2871 50.6749 56.0982 50.8299C56.0485 50.8749 55.9988 50.9199 55.9441 50.9599C55.7404 51.1349 55.5316 51.3049 55.3179 51.4749C55.298 51.4899 55.2781 51.5049 55.2632 51.5149C55.0594 51.6799 54.8506 51.8399 54.6369 51.9949C54.3735 52.1949 54.105 52.3849 53.8317 52.5699C53.5881 52.7399 53.3446 52.8999 53.101 53.0549C52.8574 53.2149 52.6089 53.3649 52.3604 53.5149C52.1268 53.6549 51.8882 53.7899 51.6446 53.9249C51.0879 54.2299 50.5213 54.5099 49.9546 54.7649C49.7508 54.8549 49.5471 54.9449 49.3433 55.0249C49.1196 55.1199 48.8959 55.2049 48.6722 55.2899C48.3839 55.3999 48.1006 55.4999 47.8123 55.5899C46.4504 55.9099 45.0537 56.1299 43.6222 56.2399C43.8707 56.1899 44.1192 56.1299 44.3677 56.0649C44.8648 55.9399 45.3569 55.7949 45.844 55.6249C46.0876 55.5399 46.3261 55.4549 46.5647 55.3599C46.8033 55.2649 47.0419 55.1699 47.2805 55.0599C47.4793 54.9749 47.6831 54.8799 47.8819 54.7849C47.9416 54.7549 48.0012 54.7299 48.0609 54.6949C48.2647 54.5999 48.4684 54.4949 48.6722 54.3849C49.4576 53.9649 50.223 53.4899 50.9637 52.9649C51.0084 52.9349 51.0531 52.8999 51.0979 52.8649C51.2569 52.7549 51.411 52.6399 51.5601 52.5249C51.749 52.3849 51.9329 52.2399 52.1168 52.0949C52.9121 51.4449 53.6825 50.7399 54.4082 49.9799C54.6021 49.7799 54.791 49.5749 54.9749 49.3649C55.1339 49.1899 55.293 49.0149 55.4421 48.8299C55.6062 48.6449 55.7652 48.4549 55.9193 48.2599C55.9243 48.2549 55.9292 48.2449 55.9342 48.2399C56.0684 48.0699 56.2026 47.8999 56.3319 47.7249C56.6301 47.3499 56.9084 46.9599 57.1818 46.5599C57.316 46.3649 57.4453 46.1749 57.5745 45.9749C57.7186 45.7549 57.8628 45.5299 58.002 45.2999C58.0268 45.2599 58.0517 45.2199 58.0765 45.1799C58.2207 44.9449 58.3598 44.7099 58.494 44.4699C58.6432 44.2149 58.7873 43.9549 58.9215 43.6949C58.9215 43.6949 58.9215 43.6899 58.9215 43.6849C59.0656 43.4249 59.1999 43.1599 59.3291 42.8899C59.4583 42.6299 59.5876 42.3649 59.7118 42.0999C59.9007 41.6999 60.0796 41.2949 60.2486 40.8799C60.4226 40.4699 60.5817 40.0549 60.7358 39.6349C60.9694 39.0049 61.1831 38.3649 61.377 37.7049C61.4714 37.4149 61.5509 37.1199 61.6304 36.8249C61.71 36.545 61.7845 36.2599 61.8492 35.975C61.869 35.915 61.8839 35.855 61.8989 35.79C61.9635 35.51 62.0281 35.225 62.0877 34.94C62.1573 34.64 62.217 34.335 62.2717 34.025C62.2717 34.005 62.2816 33.985 62.2866 33.96C62.3462 33.645 62.3959 33.325 62.4456 33.005C62.4904 32.75 62.5251 32.49 62.5599 32.23C62.5848 32.035 62.6096 31.835 62.6345 31.635C62.6643 31.405 62.6892 31.17 62.7091 30.935C62.7389 30.63 62.7687 30.32 62.7886 30.01C63.1862 24.505 62.1225 19.28 60.0399 14.7851C56.6152 7.39509 50.4467 1.98012 43.5178 0.540124C43.0953 0.455125 42.6678 0.380125 42.2404 0.320125H42.2254C42.0067 0.290126 41.7831 0.265126 41.5594 0.245126C41.4302 0.230126 41.296 0.220126 41.1568 0.210126C40.7393 0.180126 40.3168 0.160126 39.8943 0.160126H39.8545C39.9489 0.150126 40.0384 0.140126 40.1328 0.135126C40.1478 0.130126 40.1676 0.130126 40.1825 0.130126C40.272 0.115126 40.3615 0.110126 40.4559 0.100126C40.5404 0.0901265 40.6349 0.0851266 40.7243 0.0751266C40.8436 0.0651267 40.9679 0.0501267 41.0872 0.0451268C41.4202 0.0251269 41.7383 0.0101269 42.0714 0.0101269C42.0912 0.0101269 42.1061 0.00512695 42.126 0.0101269H42.136L42.2602 0.00512695C42.6678 0.00512695 43.0754 0.0201269 43.488 0.0501267C43.8508 0.0751266 44.2137 0.115126 44.5715 0.160126H44.5765C44.7057 0.180126 44.835 0.200126 44.9592 0.220126C44.9692 0.220126 44.9791 0.220126 44.9841 0.225126C51.2221 1.21012 57.4154 5.4151 61.6155 11.4351C65.1794 16.54 67.3068 22.95 66.8098 29.8H66.8147Z" fill="#486A2A"/>
<path d="M63.559 29.7999C62.8283 39.8649 57.9572 48.4248 50.9587 52.9648C57.4055 48.3998 62.0678 39.9549 62.7886 30.0099C63.8423 15.46 54.6667 2.85504 43.5178 0.545046C43.0953 0.455047 42.6678 0.385047 42.2403 0.325047H42.2254C42.0017 0.295048 41.783 0.270048 41.5594 0.250048C41.4252 0.235048 41.2909 0.225048 41.1567 0.215048C40.7392 0.180048 40.3117 0.165048 39.8942 0.165048H39.8495C39.9439 0.150048 40.0334 0.145048 40.1278 0.140048C40.1428 0.140048 40.1626 0.140048 40.1775 0.135048C40.267 0.120048 40.3565 0.115049 40.446 0.105049C40.5354 0.0950486 40.6249 0.0900486 40.7144 0.0800487C40.8337 0.0700487 40.9529 0.0550488 41.0772 0.0500488C41.117 0.0500488 41.1567 0.0500488 41.2015 0.0550488C41.5643 0.0800487 41.9222 0.120048 42.2801 0.165048C42.2801 0.165048 42.2801 0.165048 42.2851 0.165048C42.4143 0.185048 42.5435 0.205048 42.6678 0.225048C42.6728 0.225048 42.6827 0.225048 42.6926 0.225048C54.2243 2.04504 64.6277 14.875 63.5441 29.7999H63.559Z" fill="#213013"/>
<g style="mix-blend-mode:multiply" opacity="0.33">
<path d="M40.5604 55.8999C40.7542 56.0499 40.9431 56.1799 41.132 56.2949C41.1767 56.3049 41.2214 56.3099 41.2711 56.3199H41.1817C41.0624 56.3199 40.9431 56.3199 40.8188 56.3199C40.3715 56.3099 39.9192 56.2899 39.4718 56.2599C39.4569 56.2599 39.447 56.2599 39.437 56.2599C24.9031 55.2399 13.4261 43.055 13.4261 28.17C13.4261 22.4651 15.1112 17.1551 18.014 12.7251C17.9941 13.1251 17.9841 13.5251 17.9841 13.9251C17.9841 29.57 30.5944 42.25 46.1423 42.25C46.7686 42.25 47.3949 42.23 48.0162 42.19C46.3312 49.7549 43.4781 54.9849 40.5604 55.9099V55.8999Z" fill="#656FA3"/>
</g>
<g style="mix-blend-mode:screen" opacity="0.62">
<path d="M62.2517 9.34496C62.0778 10.055 61.864 10.7549 61.6205 11.4349C61.193 12.5999 60.6661 13.7199 60.0448 14.7799C56.6201 7.39496 50.4517 1.97999 43.5227 0.539997C47.0965 2.25999 49.0997 13.5599 49.4874 23.6399C47.3003 24.4499 24.0829 21.8899 22.3383 7.55996C27.3386 2.86999 34.0489 0 41.4252 0C41.6439 0 41.8576 0 42.0763 0.00999995C42.0962 0.00999995 42.1111 0.00499998 42.131 0.00999995H42.1409L42.2652 0.00499998C42.6728 0.00499998 43.0803 0.0199999 43.4929 0.0499998C43.8558 0.0749996 44.2186 0.114999 44.5765 0.159999H44.5815C44.7107 0.179999 44.8399 0.199999 44.9642 0.219999C44.9741 0.219999 44.9841 0.219999 44.989 0.224999C51.8186 1.09499 57.8777 4.44498 62.2517 9.34496Z" fill="#486A2A"/>
</g>
<path d="M47.0866 48.1798C38.1744 58.8147 22.3233 60.1747 11.746 51.2098C1.17862 42.2398 -0.173368 26.2949 8.73882 15.6599L6.57166 13.825C-3.36446 25.6799 -1.86335 43.3898 9.92181 53.3848C21.707 63.3797 39.3176 61.8697 49.2537 50.0148L47.0866 48.1798Z" fill="#486A2A"/>
<path d="M44.9192 46.3398C37.0111 55.7747 22.9544 56.9797 13.575 49.0248C4.19556 41.0698 2.99766 26.9299 10.9058 17.4949L8.73864 15.6599C-0.173548 26.2949 1.17844 42.2398 11.7508 51.2047C22.3231 60.1697 38.1742 58.8097 47.0914 48.1748L44.9242 46.3398H44.9192Z" fill="#E9F3BF"/>
<path d="M44.9195 46.3392C37.0114 55.7742 22.9547 56.9792 13.5752 49.0242C4.19582 41.0693 2.99792 26.9293 10.9061 17.4944L44.9245 46.3392H44.9195Z" fill="#E65053"/>
<path opacity="0.46" d="M36.191 38.9397C33.0397 42.0147 29.1428 44.9896 23.4416 44.7846C20.9861 44.6946 16.0305 42.5047 14.087 38.2697C12.2827 34.3347 14.2163 29.3097 14.5095 28.5747C14.8972 27.5947 15.8913 25.1047 17.3924 22.9998L36.191 38.9397Z" fill="#D43537"/>
<path d="M17.0955 26.4695C17.3981 26.1085 17.0614 25.3223 16.3436 24.7136C15.6258 24.105 14.7986 23.9042 14.4961 24.2652C14.1935 24.6263 14.5302 25.4124 15.248 26.0211C15.9658 26.6298 16.793 26.8305 17.0955 26.4695Z" fill="#CC292B"/>
<path d="M16.6622 26.1021C16.8639 25.8614 16.6394 25.3373 16.1609 24.9315C15.6823 24.5257 15.1309 24.3919 14.9292 24.6325C14.7275 24.8732 14.9519 25.3973 15.4305 25.8031C15.909 26.2089 16.4605 26.3427 16.6622 26.1021Z" fill="black"/>
<path d="M21.9991 36.6195C22.5014 36.5131 22.8661 36.2232 22.8135 35.9719C22.7609 35.7206 22.3111 35.6031 21.8088 35.7094C21.3064 35.8157 20.9418 36.1056 20.9943 36.3569C21.0469 36.6082 21.4967 36.7258 21.9991 36.6195Z" fill="#FF8083"/>
<path d="M21.9673 36.4678C22.3031 36.3967 22.5469 36.2033 22.5119 36.0358C22.4768 35.8682 22.1762 35.79 21.8404 35.8611C21.5046 35.9321 21.2608 36.1256 21.2959 36.2931C21.3309 36.4606 21.6315 36.5389 21.9673 36.4678Z" fill="black"/>
<path d="M15.2982 33.1154C15.3219 32.7849 14.8107 32.4785 14.1563 32.4309C13.5019 32.3834 12.9522 32.6128 12.9285 32.9433C12.9047 33.2738 13.416 33.5803 14.0704 33.6278C14.7248 33.6753 15.2745 33.4459 15.2982 33.1154Z" fill="#FF8083"/>
<path d="M14.9066 33.0874C14.9224 32.867 14.5801 32.6626 14.142 32.6308C13.7039 32.599 13.336 32.7518 13.3201 32.9721C13.3043 33.1925 13.6466 33.3969 14.0847 33.4287C14.5228 33.4605 14.8908 33.3077 14.9066 33.0874Z" fill="black"/>
<path d="M20.216 30.8175C20.2783 30.5005 19.818 30.142 19.1879 30.0166C18.5577 29.8912 17.9964 30.0464 17.934 30.3634C17.8717 30.6803 18.332 31.0389 18.9622 31.1643C19.5923 31.2897 20.1537 31.1344 20.216 30.8175Z" fill="#BF0002"/>
<path d="M19.8357 30.7419C19.8773 30.5306 19.5704 30.2916 19.1503 30.208C18.7302 30.1244 18.3559 30.2279 18.3144 30.4392C18.2728 30.6505 18.5797 30.8895 18.9998 30.9731C19.4199 31.0567 19.7942 30.9532 19.8357 30.7419Z" fill="black"/>
<path d="M24.1417 41.8597C24.3371 41.2645 24.2547 40.7019 23.9575 40.6032C23.6604 40.5044 23.261 40.9069 23.0656 41.5021C22.8701 42.0973 22.9526 42.6599 23.2497 42.7586C23.5469 42.8574 23.9462 42.4549 24.1417 41.8597Z" fill="#FF8083"/>
<path d="M23.9623 41.8002C24.0932 41.4016 24.0387 41.0252 23.8406 40.9594C23.6425 40.8935 23.3758 41.1633 23.2449 41.5618C23.114 41.9604 23.1685 42.3368 23.3666 42.4026C23.5647 42.4685 23.8314 42.1987 23.9623 41.8002Z" fill="black"/>
<path d="M28.3669 40.1849C28.6349 40.1607 28.8129 39.7018 28.7645 39.16C28.7162 38.6182 28.4598 38.1986 28.1918 38.2228C27.9239 38.247 27.7459 38.7058 27.7942 39.2477C27.8426 39.7895 28.099 40.2091 28.3669 40.1849Z" fill="#BF0002"/>
<path d="M28.3376 39.8565C28.5181 39.8402 28.6383 39.535 28.6061 39.1747C28.574 38.8144 28.4016 38.5355 28.2212 38.5518C28.0407 38.5681 27.9205 38.8734 27.9526 39.2337C27.9848 39.594 28.1571 39.8728 28.3376 39.8565Z" fill="black"/>
<path d="M33.3344 48.8751C33.6282 48.6914 33.5702 48.0634 33.205 47.4724C32.8397 46.8814 32.3055 46.5513 32.0117 46.735C31.718 46.9187 31.776 47.5467 32.1412 48.1377C32.5065 48.7286 33.0407 49.0588 33.3344 48.8751Z" fill="#FF8083"/>
<path d="M33.1141 48.5187C33.3099 48.3962 33.2713 47.9776 33.0278 47.5836C32.7843 47.1896 32.4281 46.9695 32.2323 47.092C32.0364 47.2144 32.0751 47.6331 32.3186 48.0271C32.5621 48.4211 32.9182 48.6412 33.1141 48.5187Z" fill="black"/>
<path d="M39.2176 44.7335C39.5344 44.3851 39.2295 43.5859 38.5367 42.9486C37.8438 42.3113 37.0254 42.0772 36.7086 42.4257C36.3918 42.7741 36.6967 43.5733 37.3895 44.2106C38.0824 44.8479 38.9008 45.082 39.2176 44.7335Z" fill="#CC292B"/>
<path d="M38.7992 44.3484C39.0104 44.1161 38.8072 43.5833 38.3452 43.1585C37.8833 42.7336 37.3377 42.5775 37.1265 42.8098C36.9153 43.0421 37.1186 43.5749 37.5805 43.9998C38.0424 44.4246 38.588 44.5807 38.7992 44.3484Z" fill="black"/>
<path d="M33.0474 41.4938C33.2718 41.4199 33.3352 40.9962 33.189 40.5474C33.0429 40.0987 32.7425 39.7949 32.5182 39.8688C32.2938 39.9427 32.2304 40.3665 32.3766 40.8152C32.5227 41.2639 32.8231 41.5677 33.0474 41.4938Z" fill="#FF8083"/>
<path d="M32.9591 41.2234C33.1078 41.1744 33.1494 40.8921 33.0519 40.593C32.9545 40.2938 32.755 40.091 32.6063 40.14C32.4576 40.189 32.416 40.4713 32.5135 40.7704C32.6109 41.0696 32.8104 41.2724 32.9591 41.2234Z" fill="black"/>
<path d="M16.1649 41.1668C16.9623 40.6681 17.4077 39.9388 17.1598 39.5378C16.912 39.1368 16.0647 39.2159 15.2674 39.7146C14.4701 40.2132 14.0247 40.9425 14.2725 41.3435C14.5204 41.7446 15.3676 41.6654 16.1649 41.1668Z" fill="#CC292B"/>
<path d="M16.0153 40.9243C16.5468 40.5919 16.8438 40.1057 16.6785 39.8384C16.5133 39.571 15.9484 39.6238 15.4169 39.9562C14.8854 40.2886 14.5884 40.7748 14.7537 41.0422C14.9189 41.3095 15.4837 41.2568 16.0153 40.9243Z" fill="black"/>
<path d="M25.8439 48.4971C25.9827 47.5631 25.7188 46.7493 25.2545 46.6795C24.7903 46.6097 24.3014 47.3103 24.1626 48.2443C24.0239 49.1784 24.2877 49.9921 24.752 50.0619C25.2163 50.1317 25.7051 49.4311 25.8439 48.4971Z" fill="#CC292B"/>
<path d="M25.5637 48.4553C25.6562 47.8327 25.4803 47.2901 25.1708 47.2436C24.8613 47.1971 24.5354 47.6641 24.4429 48.2868C24.3504 48.9095 24.5263 49.452 24.8358 49.4986C25.1453 49.5451 25.4712 49.078 25.5637 48.4553Z" fill="black"/>
<g style="mix-blend-mode:multiply" opacity="0.22">
<path d="M49.2537 50.0144C39.3175 61.8743 21.7069 63.3843 9.92174 53.3894C5.49298 49.6294 2.51066 44.7844 1.04932 39.5645C2.4858 41.7444 4.25035 43.7594 6.33798 45.5294C17.1738 54.7194 32.9254 54.1844 43.12 44.8194L44.9193 46.3444L47.0865 48.1794L49.2537 50.0144Z" fill="#656FA3"/>
</g>
<g style="mix-blend-mode:multiply" opacity="0.33">
<path d="M67.5254 38.365C64.22 46.9299 56.8586 53.4649 47.8122 55.5899C46.4503 55.9099 45.0536 56.1299 43.6221 56.2399C43.8706 56.1899 44.1191 56.1299 44.3677 56.0649C44.8647 55.9399 45.3568 55.7949 45.8439 55.6249C46.0875 55.5399 46.326 55.4549 46.5646 55.3599C46.8032 55.2649 47.0418 55.1699 47.2804 55.0599C47.4792 54.9749 47.683 54.8799 47.8818 54.7849C47.9415 54.7549 48.0011 54.7299 48.0608 54.6949C48.2646 54.5999 48.4683 54.4949 48.6721 54.3849C49.4575 53.9649 50.223 53.4899 50.9636 52.9649C51.0083 52.9349 51.053 52.8999 51.0978 52.8649C51.2568 52.7549 51.4109 52.6399 51.56 52.5249C51.7489 52.3849 51.9328 52.2399 52.1167 52.0949C52.912 51.4449 53.6825 50.7399 54.4082 49.9799C54.602 49.7799 54.7909 49.5749 54.9748 49.3649C55.1339 49.1899 55.2929 49.0149 55.442 48.8299C55.6061 48.6449 55.7651 48.4549 55.9192 48.2599C55.9242 48.2549 55.9291 48.2449 55.9341 48.2399C56.0683 48.0699 56.2025 47.8999 56.3318 47.7249C56.63 47.3499 56.9083 46.9599 57.1817 46.56C57.3159 46.365 57.4452 46.1749 57.5744 45.975C57.7185 45.755 57.8627 45.53 58.0019 45.3C58.0267 45.26 58.0516 45.22 58.0764 45.18C58.2206 44.945 58.3597 44.71 58.4939 44.47C58.6431 44.215 58.7872 43.955 58.9214 43.695C58.9214 43.695 58.9214 43.69 58.9214 43.685C59.0656 43.425 59.1998 43.16 59.329 42.89C59.4582 42.63 59.5875 42.365 59.7117 42.1C59.9006 41.7 60.0795 41.295 60.2485 40.88C61.5409 40.84 62.8978 40.57 64.1305 40.15C65.1694 39.8 66.1237 39.34 66.8793 38.82C67.093 38.67 67.3067 38.52 67.5204 38.365H67.5254Z" fill="#656FA3"/>
</g>
</svg>
