<svg width="60" height="60" viewBox="0 0 60 60" fill="none" xmlns="http://www.w3.org/2000/svg">
<path d="M37.6723 11.3995C37.7039 6.11524 36.3144 2.1889 34.0617 0.483622C33.4617 0.0309875 32.0828 0.0204613 31.3775 0.00993491C30.6301 -0.0111179 28.8301 -0.0426974 28.1248 0.43099C25.6722 2.08363 23.6827 5.60998 23.2932 10.7995C22.788 17.4627 27.4827 25.9785 29.9038 26.1996C31.9775 26.3785 37.6302 18.1469 37.6617 11.41L37.6723 11.3995Z" fill="white"/>
<mask id="mask0_212_199466" style="mask-type:luminance" maskUnits="userSpaceOnUse" x="23" y="0" width="15" height="27">
<path d="M37.6723 11.3995C37.7039 6.11524 36.3144 2.1889 34.0617 0.483622C33.4617 0.0309875 32.0828 0.0204613 31.3775 0.00993491C30.6301 -0.0111179 28.8301 -0.0426974 28.1248 0.43099C25.6722 2.08363 23.6827 5.60998 23.2932 10.7995C22.788 17.4627 27.4827 25.9785 29.9038 26.1996C31.9775 26.3785 37.6302 18.1469 37.6617 11.41L37.6723 11.3995Z" fill="white"/>
</mask>
<g mask="url(#mask0_212_199466)">
<path d="M37.6408 12.3992C37.6408 12.3992 37.5566 1.67283 32.2829 0.19914C33.0829 4.69391 33.0408 9.54657 32.5144 14.0519C32.2723 16.0835 31.1249 24.1046 31.1249 24.1046C31.1249 24.1046 33.3144 5.91497 31.4197 -0.21139C30.0197 1.73599 29.5249 5.62023 29.3249 8.56762C29.2512 9.66237 29.6091 21.5046 29.6091 21.5046C29.6091 21.5046 27.7249 8.50446 30.4197 0.378088C27.7986 0.378088 23.9775 3.82022 23.9038 11.3887C23.8617 15.6203 25.2196 20.3888 25.2196 20.3888C24.8196 20.8203 22.788 18.3993 22.4512 17.7993C19.8828 13.1571 22.1354 12.5571 21.9986 8.46236C21.8301 3.36758 27.3986 0.209665 31.1249 -1.79035C31.0513 -2.14825 30.9986 -2.51667 30.9144 -2.87457C30.4618 -4.88511 29.8828 -6.88512 29.167 -8.87461C29.0618 -9.15882 29.8302 -9.28514 29.9249 -9.00093C30.6513 -6.99039 31.2092 -4.96932 31.6618 -2.9272C31.6828 -2.97983 31.7039 -3.03246 31.725 -3.0851C31.8513 -3.36931 32.6092 -3.25352 32.4829 -2.95878C32.3881 -2.73773 32.3039 -2.51667 32.2092 -2.30614C32.3881 -2.39035 35.8618 -0.790342 36.0197 -0.664025C39.5671 1.96757 37.6197 12.3992 37.6197 12.3992H37.6408Z" fill="#C8E1E8"/>
</g>
<path d="M17.5248 14.0308C12.9142 11.3676 8.79839 10.5887 6.17732 11.6729C5.48258 11.9571 4.78784 13.136 4.41941 13.736C4.02994 14.3676 3.10361 15.9045 3.16677 16.7361C3.38783 19.6624 5.48258 23.1361 9.80892 26.0625C15.3774 29.8309 25.1775 30.0625 26.5775 28.0835C27.7775 26.3993 23.3985 17.4308 17.5248 14.0308Z" fill="white"/>
<mask id="mask1_212_199466" style="mask-type:luminance" maskUnits="userSpaceOnUse" x="3" y="11" width="24" height="19">
<path d="M17.5249 14.0298C12.9143 11.3666 8.79851 10.5877 6.17744 11.6719C5.4827 11.9561 4.78796 13.1351 4.41953 13.7351C4.03006 14.3667 3.10374 15.9035 3.16689 16.7351C3.38795 19.6614 5.4827 23.1351 9.80905 26.0615C15.3775 29.8299 25.1776 30.0615 26.5776 28.0825C27.7776 26.3983 23.3986 17.4298 17.5249 14.0298Z" fill="white"/>
</mask>
<g mask="url(#mask1_212_199466)">
<path d="M18.3775 14.5469C18.3775 14.5469 8.95642 9.25213 5.0406 13.0416C9.36695 14.5995 13.588 17.0627 17.2723 19.768C18.9249 20.9891 25.3671 25.9891 25.3671 25.9891C25.3671 25.9891 10.567 15.0206 4.25112 13.5785C5.25113 15.7469 8.39852 18.1153 10.8722 19.768C11.788 20.3785 22.3249 25.9891 22.3249 25.9891C22.3249 25.9891 10.0196 21.1048 4.26165 14.7259C2.94585 16.968 4.05112 21.968 10.6301 25.8207C14.3038 27.9681 19.1565 29.1891 19.1565 29.1891C19.3354 29.747 16.1986 30.2839 15.5038 30.2628C10.1564 30.1365 10.7564 27.9154 7.1143 25.9786C2.57743 23.5785 2.59848 17.2206 2.71427 13.0311C2.3669 12.9153 2.01953 12.7785 1.66163 12.6732C-0.31733 12.0521 -2.36998 11.5574 -4.46473 11.1785C-4.76999 11.1258 -4.49631 10.41 -4.19104 10.4627C-2.07524 10.8521 -0.0225911 11.3785 1.98795 12.01C1.95637 11.9679 1.91427 11.9258 1.88269 11.8732C1.69321 11.6206 2.18795 11.0311 2.3669 11.2837C2.51427 11.4732 2.66164 11.6521 2.80901 11.8416C2.83006 11.6416 5.9564 9.47318 6.14587 9.38897C10.2196 7.65211 18.367 14.5469 18.367 14.5469H18.3775Z" fill="#C8E1E8"/>
</g>
<path d="M9.74581 32.621C5.1142 35.2421 2.37734 38.3895 2.00891 41.1684C1.91418 41.9053 2.59839 43.0948 2.93524 43.7053C3.29313 44.3579 4.16682 45.9158 4.92472 46.2843C7.5879 47.5579 11.6721 47.5053 16.409 45.2421C22.4933 42.3474 27.588 34.0526 26.5565 31.8736C25.6722 29.9999 15.6511 29.2736 9.74581 32.6105V32.621Z" fill="white"/>
<mask id="mask2_212_199466" style="mask-type:luminance" maskUnits="userSpaceOnUse" x="2" y="30" width="25" height="18">
<path d="M9.74581 32.621C5.1142 35.2421 2.37734 38.3895 2.00891 41.1684C1.91418 41.9053 2.59839 43.0948 2.93524 43.7053C3.29313 44.3579 4.16682 45.9158 4.92472 46.2843C7.5879 47.5579 11.6721 47.5053 16.409 45.2421C22.4933 42.3474 27.588 34.0526 26.5565 31.8736C25.6722 29.9999 15.6511 29.2736 9.74581 32.6105V32.621Z" fill="white"/>
</mask>
<g mask="url(#mask2_212_199466)">
<path d="M10.6301 32.1575C10.6301 32.1575 1.29322 37.5891 2.65113 42.8523C6.17747 39.9154 10.4407 37.5259 14.6407 35.7259C16.5354 34.9154 24.125 31.8838 24.125 31.8838C24.125 31.8838 7.13537 39.1049 2.72481 43.7891C5.12483 44.0207 8.76696 42.4944 11.4512 41.1996C12.4512 40.7154 22.6197 34.4838 22.6197 34.4838C22.6197 34.4838 12.1986 42.5997 3.74587 44.347C5.05114 46.5997 9.9775 48.1471 16.6302 44.4312C20.346 42.3575 23.8302 38.7996 23.8302 38.7996C24.4092 38.9259 23.3039 41.8839 22.946 42.4628C20.167 46.9892 18.5144 45.3576 15.0091 47.526C10.6407 50.2208 5.09325 47.0207 1.49322 44.8207C1.20901 45.0628 0.924798 45.2944 0.651111 45.547C-0.885742 46.9365 -2.33838 48.4418 -3.71734 50.0523C-3.91734 50.2839 -4.40156 49.6944 -4.20156 49.4629C-2.80155 47.8418 -1.31732 46.3365 0.230056 44.9365C0.177424 44.9365 0.114265 44.9576 0.0616336 44.9576C-0.254158 44.9891 -0.527844 44.2734 -0.212052 44.2418C0.0300546 44.2102 0.261635 44.1786 0.493216 44.147C0.33532 44.0312 -0.00152493 40.2628 0.0195279 40.0523C0.545847 35.6943 10.6407 32.1469 10.6407 32.1469L10.6301 32.1575Z" fill="#C8E1E8"/>
</g>
<path d="M36.9958 30.2537C37.0298 26.5099 33.9705 23.4469 30.1628 23.4124C26.3551 23.3778 23.2408 26.3847 23.2068 30.1285C23.1728 33.8723 26.232 36.9352 30.0398 36.9698C33.8475 37.0044 36.9618 33.9974 36.9958 30.2537Z" fill="#FFE524"/>
<path d="M34.0753 29.8682C34.1082 27.7755 32.3677 26.0514 30.1879 26.0171C28.0081 25.9829 26.2143 27.6515 26.1815 29.7442C26.1486 31.8368 27.889 33.561 30.0689 33.5952C32.2487 33.6294 34.0424 31.9608 34.0753 29.8682Z" fill="#E3CC20"/>
<path d="M33.6297 30.0567C33.6608 28.0745 32.0132 26.4413 29.9496 26.4089C27.8861 26.3765 26.188 27.9571 26.1568 29.9393C26.1257 31.9214 27.7733 33.5546 29.8369 33.587C31.9004 33.6194 33.5985 32.0388 33.6297 30.0567Z" fill="#F2DA22"/>
</svg>
