<svg width="60" height="60" viewBox="0 0 60 60" fill="none" xmlns="http://www.w3.org/2000/svg">
<path d="M37.6723 11.3995C37.7039 6.11524 36.3144 2.1889 34.0617 0.483622C33.4617 0.0309875 32.0828 0.0204613 31.3775 0.00993491C30.6301 -0.0111179 28.8301 -0.0426974 28.1248 0.43099C25.6722 2.08363 23.6827 5.60998 23.2932 10.7995C22.788 17.4627 27.4827 25.9785 29.9038 26.1996C31.9775 26.3785 37.6302 18.1469 37.6617 11.41L37.6723 11.3995Z" fill="white"/>
<mask id="mask0_212_199562" style="mask-type:luminance" maskUnits="userSpaceOnUse" x="23" y="0" width="15" height="27">
<path d="M37.6723 11.3995C37.7039 6.11524 36.3144 2.1889 34.0617 0.483622C33.4617 0.0309875 32.0828 0.0204613 31.3775 0.00993491C30.6301 -0.0111179 28.8301 -0.0426974 28.1248 0.43099C25.6722 2.08363 23.6827 5.60998 23.2932 10.7995C22.788 17.4627 27.4827 25.9785 29.9038 26.1996C31.9775 26.3785 37.6302 18.1469 37.6617 11.41L37.6723 11.3995Z" fill="white"/>
</mask>
<g mask="url(#mask0_212_199562)">
<path d="M37.6408 12.3992C37.6408 12.3992 37.5566 1.67283 32.2829 0.19914C33.0829 4.69391 33.0408 9.54657 32.5144 14.0519C32.2723 16.0835 31.1249 24.1046 31.1249 24.1046C31.1249 24.1046 33.3144 5.91497 31.4197 -0.21139C30.0197 1.73599 29.5249 5.62023 29.3249 8.56762C29.2512 9.66237 29.6091 21.5046 29.6091 21.5046C29.6091 21.5046 27.7249 8.50446 30.4197 0.378088C27.7986 0.378088 23.9775 3.82022 23.9038 11.3887C23.8617 15.6203 25.2196 20.3888 25.2196 20.3888C24.8196 20.8203 22.788 18.3993 22.4512 17.7993C19.8828 13.1571 22.1354 12.5571 21.9986 8.46236C21.8301 3.36758 27.3986 0.209665 31.1249 -1.79035C31.0513 -2.14825 30.9986 -2.51667 30.9144 -2.87457C30.4618 -4.88511 29.8828 -6.88512 29.167 -8.87461C29.0618 -9.15882 29.8302 -9.28514 29.9249 -9.00093C30.6513 -6.99039 31.2092 -4.96932 31.6618 -2.9272C31.6828 -2.97983 31.7039 -3.03246 31.725 -3.0851C31.8513 -3.36931 32.6092 -3.25352 32.4829 -2.95878C32.3881 -2.73773 32.3039 -2.51667 32.2092 -2.30614C32.3881 -2.39035 35.8618 -0.790342 36.0197 -0.664025C39.5671 1.96757 37.6197 12.3992 37.6197 12.3992H37.6408Z" fill="#C8E1E8"/>
</g>
<path d="M36.9958 30.2537C37.0298 26.5099 33.9705 23.4469 30.1628 23.4124C26.3551 23.3778 23.2408 26.3847 23.2068 30.1285C23.1728 33.8723 26.232 36.9352 30.0398 36.9698C33.8475 37.0044 36.9618 33.9974 36.9958 30.2537Z" fill="#FFE524"/>
<path d="M34.0753 29.8682C34.1082 27.7755 32.3677 26.0514 30.1879 26.0171C28.0081 25.9829 26.2143 27.6515 26.1815 29.7442C26.1486 31.8368 27.889 33.561 30.0689 33.5952C32.2487 33.6294 34.0424 31.9608 34.0753 29.8682Z" fill="#E3CC20"/>
<path d="M33.6297 30.0567C33.6608 28.0745 32.0132 26.4413 29.9496 26.4089C27.8861 26.3765 26.188 27.9571 26.1568 29.9393C26.1257 31.9214 27.7733 33.5546 29.8369 33.587C31.9004 33.6194 33.5985 32.0388 33.6297 30.0567Z" fill="#F2DA22"/>
</svg>
