<svg width="67" height="76" viewBox="0 0 67 76" fill="none" xmlns="http://www.w3.org/2000/svg">
<path d="M61.753 69.7127C54.426 76.0102 39.8218 71.582 26.1273 59.9067C26.1273 59.9067 26.1207 59.9 26.1073 59.8867C22.8586 57.1178 19.6599 53.9391 16.6312 50.3905C15.4416 49.0011 14.2921 47.5916 13.2325 46.1722C10.0038 41.9139 7.33489 37.5856 5.24573 33.3473C1.24734 25.2406 -0.571933 17.5237 0.157774 11.5461C0.337702 10.1267 0.647582 8.79722 1.1074 7.58771C1.8371 5.70847 2.91667 4.09911 4.37608 2.84961L34.1641 37.5557L61.753 69.7127Z" fill="#F9ED32"/>
<path d="M61.7531 69.7125L34.1642 37.5555L4.37616 2.84941C6.7752 0.790239 9.95392 -0.109396 13.6124 0.0105557C22.149 0.260455 33.3345 6.07812 43.5604 15.8942C44.3401 16.6239 45.0998 17.3936 45.8495 18.1733C47.099 19.4427 48.3085 20.7822 49.498 22.1616C52.5368 25.7002 55.1957 29.3388 57.4348 32.9773C66.911 48.2911 69.0802 63.3951 61.7431 69.6925L61.7531 69.7125Z" fill="#FFDE17"/>
<path d="M55.6955 63.1249C52.0869 59.1665 48.4984 55.1781 44.9298 51.1697C41.3713 52.4292 37.6627 53.3588 33.6943 53.4688C26.7971 53.3388 19.4701 50.59 13.2226 46.1717C18.2505 49.6303 23.9183 51.8295 29.466 52.6891C34.7539 53.5188 39.622 52.0094 44.0902 50.2201C40.9114 46.6315 37.7627 43.033 34.624 39.4044C24.0182 41.4736 15.9515 40.9338 5.22578 33.3469C16.1014 40.604 23.4984 40.9938 33.7743 38.4348C30.1558 34.2365 26.5672 29.9982 23.0086 25.7499C15.1718 27.4193 8.6744 27.3393 0.807558 21.1618C8.62442 26.9594 14.9319 26.9295 22.4688 25.1002C19.52 21.5716 16.5912 18.023 13.6924 14.4645C9.30414 15.2642 4.41611 14.7444 0.147827 11.5556C4.38612 14.4445 8.99427 14.7444 13.1426 13.8047C10.1938 10.1762 7.25496 6.53766 4.36612 2.87913C7.54485 6.29775 10.6936 9.74637 13.8323 13.215C15.4017 9.25657 15.7915 4.65841 13.5824 0.0302734C16.0914 4.72838 15.8615 9.63641 14.4021 13.8547C17.4809 17.2633 20.5396 20.692 23.5884 24.1406C26.5472 16.9735 27.5568 10.766 22.9886 2.13943C27.8867 10.8359 26.987 17.2933 24.1582 24.7803C27.8167 28.9387 31.4552 33.127 35.0538 37.3353C39.0222 27.6292 39.8019 20.0722 34.3641 8.34693C40.3217 20.2222 39.6819 28.089 35.9034 38.3249C39.0122 41.9734 42.091 45.6319 45.1497 49.3105C47.5588 45.1521 49.7079 40.544 49.7079 35.2161C49.7379 29.6184 48.4584 23.6908 45.8395 18.193C48.6583 23.6708 50.1477 29.6384 50.3077 35.3461C50.4976 40.9638 48.3584 45.8419 45.9594 50.3001C49.388 54.4284 52.7767 58.5767 56.1353 62.7451C60.7435 57.2673 61.1633 49.0606 59.514 41.1438C58.9942 38.4348 58.3244 35.7059 57.4248 33.017C61.3232 43.6527 63.3924 55.9778 57.1749 64.0545C58.6943 65.9538 66.2812 73.2308 66.991 75.9997C64.7119 74.4604 58.4444 66.1637 56.8051 64.3744C47.7887 68.9626 36.0234 65.284 26.0974 59.9162C35.7835 64.8542 47.4788 68.5427 55.6855 63.1549L55.6955 63.1249Z" fill="#CCB212"/>
<path opacity="0.31" d="M48.6484 26.1698V26.1798C48.9482 27.2294 49.1582 28.239 49.2481 29.2086C49.2481 29.2286 49.2481 29.2586 49.2481 29.2886C49.528 32.0574 48.9682 34.4165 47.4688 36.1058C45.1598 38.6948 41.0114 39.2445 35.9935 38.065C35.3937 37.9251 34.7839 37.7651 34.1542 37.5652C33.6344 37.4053 33.1146 37.2354 32.5748 37.0354C27.267 35.1262 21.3194 31.5776 15.6916 26.6796C15.4917 26.5097 15.3218 26.3497 15.1218 26.1798C15.0819 26.1498 15.0519 26.1098 15.0119 26.0798C10.6137 22.1614 7.01511 17.9331 4.39616 13.8348C4.31619 13.7448 4.26621 13.6448 4.21623 13.5449C2.91676 11.5057 1.88717 9.5065 1.10748 7.59727C1.83719 5.71803 2.91675 4.10867 4.37617 2.85918C6.7752 0.800004 9.95392 -0.0996304 13.6125 0.0203213C22.149 0.270221 33.3345 6.08788 43.5604 15.9039C46.0294 19.4825 47.7687 23.0011 48.6484 26.1698Z" fill="#FFF9D4"/>
</svg>
