<svg width="95" height="98" viewBox="0 0 95 98" fill="none" xmlns="http://www.w3.org/2000/svg">
<path d="M79.7898 95.5086C79.7643 95.8065 79.4154 95.979 78.112 96.2063C77.9396 96.2318 77.773 96.2514 77.6064 96.2573C77.2477 96.2769 76.8988 96.2514 76.5695 96.2024C75.417 96.0162 74.5017 95.485 74.2646 95.1969C73.9353 94.7873 74.0117 93.8582 74.0117 93.8582L74.0313 93.8524L74.4508 93.7406L76.254 93.2761L77.8808 92.8508L78.1081 92.79C78.1081 92.79 79.3919 93.9366 79.7251 95.1107C79.7702 95.2675 79.8016 95.3988 79.7859 95.5105L79.7898 95.5086Z" fill="#1A0054"/>
<g style="mix-blend-mode:screen" opacity="0.25">
<path d="M79.788 95.5064C79.7625 95.8043 79.4137 95.9768 78.1103 96.2042C77.9378 96.2296 77.7712 96.2492 77.6046 96.2551L76.2561 93.2739L77.8829 92.8486C78.3533 93.4504 79.2823 94.6675 79.788 95.5064Z" fill="#788AFF"/>
</g>
<path d="M78.1119 92.7879C78.0962 92.8683 78.057 92.9448 77.9963 93.0094C77.7278 93.2878 77.0908 93.4739 76.4048 93.6013C75.707 93.7268 74.9544 93.7993 74.484 93.8228C74.2507 93.8385 74.09 93.8424 74.0351 93.8483H74.0155C74.0155 93.8483 73.6255 91.6551 72.1457 90.3967C70.66 89.1443 69.9818 84.9793 70.3719 84.1404C70.5287 83.8072 70.6502 82.5587 70.6659 81.0181C70.6718 80.8555 70.6757 80.6889 70.6718 80.5183C70.6659 79.5677 70.6208 78.5427 70.515 77.5627C70.4601 77.1021 70.3993 76.6572 70.317 76.2338C70.17 75.44 69.9642 74.7324 69.6957 74.1973C68.4021 71.6395 69.3723 71.2711 69.3723 69.6286C69.3723 69.3307 69.2762 68.7387 69.1136 67.9704C69.0273 67.5765 68.9313 67.1374 68.8196 66.667V66.6611C68.602 65.7419 68.3452 64.7051 68.0708 63.6584C67.9297 63.092 67.7768 62.5255 67.6318 61.9807C66.9536 59.4287 66.3382 57.2394 66.3382 57.2394L68.2884 56.1732L76.6262 51.624C76.6262 51.624 75.1092 54.9188 75.0288 57.8803C75.023 58.0215 75.019 58.1587 75.023 58.2998C75.0288 58.5624 75.0426 58.8251 75.0778 59.0779C75.1327 59.5169 75.1582 59.9834 75.1582 60.4734V60.4793C75.1582 63.5526 74.1939 67.4079 74.335 69.2719C74.3409 69.3522 74.3448 69.4346 74.3507 69.5149C74.3762 69.8736 74.3801 70.2029 74.3703 70.5047C74.335 71.8845 74.0018 72.8391 73.3648 74.6227C73.2629 74.9108 73.1825 75.2401 73.1218 75.6027C73.0767 75.881 73.0414 76.1789 73.0159 76.4925C72.965 77.1452 72.961 77.8625 72.9963 78.6093C73.0061 78.7916 73.0159 78.9778 73.0257 79.1659C73.1159 80.5144 73.3197 81.9413 73.5863 83.2349C73.6314 83.4525 73.6823 83.67 73.7274 83.8817C73.9646 84.9029 74.237 85.8064 74.5251 86.4944C75.6874 89.2697 74.7113 88.7895 75.364 90.6594C75.6208 91.4022 76.491 91.9941 77.1829 92.3626C77.6925 92.6351 78.108 92.7879 78.108 92.7879H78.1119Z" fill="#D5D3E3"/>
<path d="M75.1601 60.4754V60.4813C73.9822 60.7145 72.1025 61.1692 70.8344 61.8298C69.6976 62.4217 68.7059 63.1488 68.0708 63.6584C67.9297 63.092 67.7768 62.5256 67.6318 61.9807C68.3099 61.4142 70.0269 60.1402 72.226 59.6757C73.4589 59.417 74.3781 58.8623 75.0249 58.3018C75.0308 58.5644 75.0445 58.827 75.0798 59.0799C75.1347 59.5189 75.1601 59.9854 75.1601 60.4754Z" fill="#503E73"/>
<path d="M72.271 65.9435C72.271 65.9435 70.411 67.0411 69.1115 67.9701C69.0253 67.5762 68.9292 67.1371 68.8175 66.6667V66.6608C70.3541 65.72 72.6023 64.397 73.1589 64.301C74.0174 64.1501 72.2691 65.9435 72.2691 65.9435H72.271Z" fill="#503E73"/>
<path d="M74.3722 70.5067C73.2864 70.3754 71.7047 70.6792 71.7889 70.2127C71.8693 69.7384 73.4471 69.5051 74.3507 69.5149C74.3761 69.8736 74.3801 70.2029 74.3703 70.5047L74.3722 70.5067Z" fill="#503E73"/>
<path d="M73.1237 75.6064C73.0786 75.8848 73.0433 76.1827 73.0179 76.4963C72.3005 76.755 71.1421 77.2685 70.511 77.5625C70.4561 77.1019 70.3954 76.657 70.313 76.2336C71.2029 75.9004 72.5514 75.6888 73.1237 75.6064Z" fill="#503E73"/>
<path d="M73.7313 83.8841C71.8772 83.9899 71.9164 85.3894 71.7909 84.476C71.7008 83.8351 72.767 83.4451 73.5902 83.2373C73.6353 83.4549 73.6863 83.6724 73.7313 83.8841Z" fill="#503E73"/>
<path d="M73.0277 79.1699C72.1731 79.6305 72.2398 80.2518 71.6028 80.54C71.2186 80.7164 70.8854 80.8928 70.662 81.0202C70.6679 80.8575 70.6718 80.6909 70.6679 80.5204C71.052 80.344 71.5009 80.0558 71.6028 79.6364C71.7047 79.2228 72.3868 78.8642 72.9983 78.6152C73.0081 78.7975 73.0179 78.9837 73.0277 79.1719V79.1699Z" fill="#503E73"/>
<g style="mix-blend-mode:multiply" opacity="0.5">
<path d="M76.5713 96.2C75.4188 96.0138 74.5035 95.4826 74.2663 95.1945C73.9371 94.7848 74.0135 93.8558 74.0135 93.8558L74.0331 93.8499H74.0135C74.0135 93.8499 73.6235 91.6567 72.1437 90.3984C70.658 89.1459 69.9798 84.9809 70.3699 84.142C70.5267 83.8088 70.6482 82.5603 70.6639 81.0198C70.6697 80.8571 70.6737 80.6905 70.6697 80.52C70.6639 79.5694 70.6188 78.5443 70.5129 77.5643C70.4581 77.1037 70.3973 76.6588 70.315 76.2354C70.168 75.4416 69.9622 74.734 69.6937 74.199C68.4001 71.6412 69.3703 71.2727 69.3703 69.6302C69.3703 69.3323 69.2742 68.7404 69.1115 67.972C69.0253 67.5781 68.9293 67.139 68.8175 66.6686V66.6628C68.6 65.7435 68.3432 64.7067 68.0688 63.66C67.9277 63.0936 67.7748 62.5272 67.6298 61.9823C66.9516 59.4304 66.3362 57.241 66.3362 57.241L68.2864 56.1748L72.224 56.751C72.224 56.751 69.6015 60.5574 69.6623 63.074C69.7289 65.5906 70.4404 69.3617 69.9857 70.8317C69.5369 72.3017 70.8755 76.1786 71.1068 77.5623C71.3401 78.9461 70.3542 83.9754 70.9441 86.0432C71.5361 88.1052 73.5019 90.8805 74.0017 92.2996C74.1781 92.8092 74.2997 93.2894 74.4506 93.7402C74.4565 93.7696 74.4663 93.8009 74.48 93.8264C74.7426 94.6045 75.1072 95.2925 76.0264 95.8942C76.2087 96.0157 76.391 96.1157 76.5674 96.2019L76.5713 96.2Z" fill="#A396BD"/>
</g>
<g style="mix-blend-mode:screen" opacity="0.45">
<path d="M77.9964 93.0109C77.7278 93.2892 77.0908 93.4754 76.4048 93.6028C76.4048 93.6028 76.3382 93.4872 76.2284 93.2853C75.7541 92.4406 74.439 90.1062 73.3982 88.4128C72.1105 86.3156 74.2978 87.766 72.7573 81.7664C71.2206 75.7668 73.3335 74.9946 72.7514 73.4129C72.1693 71.8312 73.3982 68.1562 73.9137 66.1295C74.4291 64.1088 73.7824 61.3138 73.751 59.8987C73.7255 58.852 74.5801 58.17 75.0289 57.8818C75.023 58.023 75.0191 58.1602 75.023 58.3013C75.0289 58.5639 75.0426 58.8266 75.0779 59.0794C75.1328 59.5184 75.1583 59.9849 75.1583 60.4749V60.4808C75.1583 63.5541 74.194 67.4094 74.3351 69.2734C74.341 69.3537 74.3449 69.436 74.3508 69.5164C74.3762 69.8751 74.3802 70.2044 74.3704 70.5062C74.3351 71.886 74.0019 72.8406 73.3649 74.6242C73.263 74.9123 73.1826 75.2416 73.1218 75.6042C73.0768 75.8825 73.0415 76.1804 73.016 76.494C72.965 77.1467 72.9611 77.864 72.9964 78.6108C73.0062 78.7931 73.016 78.9793 73.0258 79.1674C73.1159 80.5159 73.3198 81.9428 73.5864 83.2364C73.6314 83.454 73.6824 83.6715 73.7275 83.8832C73.9646 84.9044 74.2371 85.8079 74.5252 86.4959C75.6875 89.2712 74.7114 88.791 75.3641 90.6609C75.6208 91.4037 76.4911 91.9956 77.183 92.3641C77.4201 92.5817 77.6436 92.7581 77.7945 92.8698C77.8905 92.9404 77.9572 92.9854 77.9924 93.0109H77.9964Z" fill="#C7CEFF"/>
</g>
<path d="M27.9652 65.3482C27.828 65.995 27.7986 66.6477 27.8339 67.2945C27.9045 68.6233 28.2592 69.9385 28.5866 71.1302C28.6885 71.4889 28.7884 71.8319 28.8806 72.167C28.9354 72.3885 28.9923 72.6061 29.0373 72.8138C29.1628 73.3705 29.3411 73.9604 29.5469 74.568C29.6626 74.911 29.79 75.2599 29.9154 75.6088C30.5975 77.4238 31.3756 79.1466 31.5736 79.909C31.8774 81.0713 33.1494 84.9678 33.9236 85.6459C34.2216 85.9086 34.6253 86.132 34.9958 86.3476C35.3486 86.5593 35.668 86.7573 35.8288 86.9846L35.8346 87.0003L35.9052 87.1257C35.9503 87.2316 35.9503 87.3433 35.9052 87.4648C35.7327 87.8901 34.0902 88.2371 32.8123 88.4507C32.3027 88.5311 31.848 88.5977 31.5697 88.633C31.5403 88.633 31.503 88.6389 31.4678 88.6428C31.4227 88.6526 31.3776 88.6585 31.3306 88.6624C31.2953 88.6683 31.2796 88.6683 31.2796 88.6683C31.2796 88.6683 31.7049 87.5824 31.4873 87.5158C30.7092 87.2884 30.476 87.5922 30.8601 85.4735C31.1189 84.0583 28.1161 84.7953 27.8888 82.4002C27.7829 81.3026 27.4027 79.8385 26.9088 78.2705C26.8029 77.9275 26.6912 77.5825 26.5756 77.2336C26.1757 76.0361 25.7426 74.8072 25.333 73.6547C25.1762 73.2098 25.0252 72.7746 24.8841 72.3611C24.3627 70.8656 23.9551 69.5916 23.8473 68.8076C23.5043 66.3105 20.6388 65.0679 21.952 63.3235C22.2048 62.9903 22.4322 62.6512 22.6399 62.3082C23.079 61.6007 23.4278 60.8735 23.716 60.1503C24.8626 57.2651 24.9547 54.4996 24.9743 53.4941V53.3785C24.9841 52.665 24.9292 51.8673 24.8331 51.0441C24.4745 47.9101 23.5239 44.3781 23.2416 43.3668C23.1907 43.1845 23.1613 43.0845 23.1613 43.0845C24.2883 42.8121 25.8092 43.0042 27.4066 43.4883C31.652 44.776 36.4638 48.1531 36.0287 50.5286C35.9424 50.9931 35.7307 51.5851 35.4328 52.2672C34.7664 53.7881 33.659 55.7383 32.532 57.5886C32.2243 58.0942 31.9146 58.5842 31.6128 59.0644C30.0213 61.5811 28.6159 63.6018 28.6159 63.6018C28.3788 64.0311 28.1965 64.4662 28.075 64.9111C28.0338 65.0522 27.9985 65.1992 27.9691 65.3462L27.9652 65.3482Z" fill="#D5D3E3"/>
<path d="M29.2432 51.3987C29.2432 51.3987 26.999 53.2881 24.9724 53.3803C24.9822 52.6668 24.9273 51.8691 24.8312 51.0459C25.821 51.3693 27.9182 51.9299 29.2432 51.3987Z" fill="#503E73"/>
<path d="M28.0711 64.9132C28.0299 65.0543 27.9946 65.2013 27.9652 65.3483C27.0852 65.3326 25.9895 65.1915 25.4937 64.6564C24.9429 64.0606 23.5944 63.0237 22.6379 62.3123C23.077 61.6047 23.4259 60.8775 23.714 60.1543C24.4764 60.4169 25.5191 61.0089 25.7093 62.2574C25.9915 64.1213 27.8006 64.825 28.0691 64.9151L28.0711 64.9132Z" fill="#503E73"/>
<path d="M28.8785 72.1649C28.414 71.7965 27.828 71.524 27.3928 71.967C26.9636 72.406 26.0894 73.0881 25.3309 73.6546C25.1741 73.2096 25.0232 72.7745 24.8821 72.3609C25.5642 71.624 26.5304 70.7949 27.3928 70.8302C27.8417 70.8459 28.2415 70.9674 28.5865 71.1281C28.6884 71.4868 28.7884 71.8298 28.8805 72.1649H28.8785Z" fill="#503E73"/>
<path d="M29.9154 75.6072C29.4293 75.6483 28.9099 75.8855 28.4944 76.5578C28.0338 77.3104 27.434 77.8768 26.9068 78.2708C26.801 77.9278 26.6892 77.5828 26.5736 77.234C27.4066 76.1011 28.6649 74.6213 29.545 74.5664C29.6606 74.9094 29.788 75.2583 29.9134 75.6072H29.9154Z" fill="#503E73"/>
<path d="M32.5282 57.5903C32.2205 58.096 31.9108 58.586 31.609 59.0662C31.4071 58.6056 31.1288 58.2077 30.7505 57.9804C29.4628 57.2081 28.8297 56.0557 28.8297 56.0557C28.8297 56.0557 31.3718 56.3242 32.5282 57.5923V57.5903Z" fill="#503E73"/>
<g style="mix-blend-mode:screen" opacity="0.45">
<path d="M35.7719 87.322C35.7719 88.055 34.4627 87.8826 34.4627 87.8826C34.4627 87.8826 33.5219 87.0946 32.8202 85.7912C32.0362 84.3251 31.4462 82.3083 30.8347 82.0359C29.6724 81.5204 29.1981 80.2327 29.3294 78.7254C29.4549 77.2202 28.2985 73.8646 27.1773 69.8251C26.3091 66.6714 27.34 66.9948 27.8339 67.2927C27.9045 68.6216 28.2593 69.9368 28.5866 71.1285C28.6885 71.4871 28.7885 71.8301 28.8806 72.1653C28.9355 72.3868 28.9923 72.6043 29.0374 72.8121C29.1628 73.3687 29.3412 73.9587 29.547 74.5663C29.6626 74.9093 29.79 75.2582 29.9155 75.6071C30.5975 77.422 31.3757 79.1449 31.5736 79.9073C31.8774 81.0696 33.1495 84.9661 33.9237 85.6442C34.2216 85.9069 34.6253 86.1303 34.9958 86.3459C35.4309 86.928 35.7739 87.322 35.7739 87.322H35.7719Z" fill="#C7CEFF"/>
</g>
<path d="M37.7281 90.531C37.7183 90.5506 37.7026 90.5761 37.6869 90.5976C37.4497 90.9661 36.7618 91.215 35.9229 91.3248C34.8919 91.4561 33.6238 91.3797 32.6634 91.0523C32.4008 90.9661 32.1636 90.8603 31.9559 90.7348C31.3796 90.382 31.2777 88.6729 31.2777 88.6729C31.2934 88.667 31.313 88.667 31.3287 88.6631C31.3737 88.6572 31.4188 88.6533 31.4659 88.6435C31.5011 88.6376 31.5364 88.6337 31.5678 88.6337C32.0382 88.5533 32.4576 88.471 32.832 88.3867C33.5199 88.2241 34.0491 88.0535 34.4647 87.8869C35.1624 87.6047 35.5113 87.3362 35.6818 87.1696C35.7935 87.0579 35.8288 86.9873 35.8288 86.9873L35.8347 87.003L35.9053 87.1284L37.73 90.5349L37.7281 90.531Z" fill="#1A0054"/>
<g style="mix-blend-mode:screen" opacity="0.25">
<path d="M37.685 90.5931C37.4479 90.9616 36.7599 91.2105 35.921 91.3203L34.4608 87.8785C35.1586 87.5962 35.5075 87.3277 35.678 87.1611L37.685 90.5931Z" fill="#788AFF"/>
</g>
<g style="mix-blend-mode:multiply" opacity="0.5">
<path d="M36.0248 50.531C35.9386 50.9955 35.7269 51.5874 35.429 52.2695C34.5548 52.3048 32.832 52.6595 30.6779 54.5588C27.5341 57.3341 25.3213 63.075 24.5686 63.1397C23.816 63.2043 25.4741 72.236 26.313 73.657C27.1519 75.078 27.6615 81.7224 29.2432 82.4966C30.8249 83.2689 31.9225 85.125 31.9225 85.7757C31.9225 86.4264 32.832 88.3786 32.832 88.3786V88.3845C32.8261 88.3943 32.8222 88.4139 32.8124 88.4511C32.732 88.7588 32.4341 90.0073 32.6654 91.054C32.4027 90.9677 32.1656 90.8619 31.9578 90.7365C31.3816 90.3837 31.2797 88.6745 31.2797 88.6745C31.2953 88.6687 31.3149 88.6687 31.3306 88.6647C31.2953 88.6706 31.2797 88.6706 31.2797 88.6706C31.2797 88.6706 31.705 87.5848 31.4874 87.5181C30.7093 87.2908 30.4761 87.5946 30.8602 85.4758C31.1189 84.0607 28.1162 84.7977 27.8888 82.4025C27.783 81.3049 27.4028 79.8408 26.9088 78.2728C26.803 77.9298 26.6913 77.5849 26.5757 77.236C26.1758 76.0384 25.7427 74.8095 25.333 73.657C25.1762 73.2121 25.0253 72.777 24.8842 72.3634C24.3628 70.8679 23.9551 69.5939 23.8473 68.8099C23.5043 66.3129 20.6388 65.0703 21.952 63.3259C22.2049 62.9927 22.4322 62.6536 22.64 62.3106C23.079 61.603 23.4279 60.8759 23.716 60.1526C24.8626 57.2675 24.9547 54.5019 24.9743 53.4965V53.3808C24.9841 52.6674 24.9293 51.8697 24.8332 51.0465C24.4745 47.9124 23.5239 44.3805 23.2417 43.3691L27.4067 43.4907C31.6521 44.7784 36.4639 48.1555 36.0287 50.531H36.0248Z" fill="#5B5170"/>
</g>
<path d="M17.8046 29.596C17.4812 33.3906 17.2891 39.986 15.6917 45.1819C14.3432 49.5684 11.9932 52.9592 7.70665 52.8338C3.94737 52.824 2.73805 50.4543 2.49109 47.4104C2.46561 47.0812 2.44993 46.748 2.44601 46.4089C2.44601 46.403 2.44013 46.3991 2.44601 46.3932C2.42641 45.2819 2.50089 44.1137 2.60869 42.9612C2.58909 44.5077 2.65377 46.009 2.88701 47.332V47.3477C3.49265 50.7483 5.23705 52.9729 9.61373 51.7656C16.5012 49.0412 15.7642 36.1346 16.2954 29.5098L17.8065 29.596H17.8046Z" fill="#D7D3DE"/>
<path d="M7.01483 38.3118C7.01483 38.4176 7.01483 38.5294 7.00503 38.6548V38.6607C6.93839 39.8582 6.49935 41.9006 5.71143 43.3902C4.83727 45.0268 2.86551 45.8049 2.88707 47.3317V47.3474C2.88707 47.3474 2.85767 47.418 2.69499 47.4434C2.53819 47.463 2.49311 47.4082 2.49311 47.4082C2.49311 47.4082 0.809473 46.0636 1.32495 44.3447C1.84631 42.6316 2.58915 41.8633 2.37159 40.262C2.17951 38.8371 1.49155 38.0021 0.00195312 38.1491C0.00195312 38.1491 0.0117531 38.1432 0.0274331 38.1334C0.199913 38.008 1.31515 37.2946 2.58915 38.1687C3.90235 39.0742 3.56915 40.7657 3.61423 40.6854C3.67499 40.5795 4.16499 39.235 2.66363 38.006C1.79535 37.2926 1.74439 36.783 0.823193 35.7716C0.797713 35.7422 1.54055 35.5796 2.27947 35.7971C2.93215 35.9833 3.68479 36.3067 4.04739 36.6517C4.07287 36.6713 4.09247 36.6968 4.11403 36.7183C4.08463 36.5968 3.80043 35.6325 2.95763 35.1307C2.10307 34.625 0.456673 34.1605 0.303793 34.1154H0.313593C0.576233 34.0958 3.31631 33.9331 4.88627 35.5109C5.44683 36.0774 6.26023 37.4219 6.09951 38.8978C6.11519 38.8312 6.13479 38.6901 6.15047 38.498C6.17007 38.2197 6.17007 37.8316 6.08971 37.3808C6.08383 37.3612 6.07991 37.3396 6.07403 37.32C5.94859 36.6634 5.64871 35.8951 4.98819 35.1876C4.98819 35.1876 4.99407 35.1934 5.00387 35.1934C5.22143 35.2738 6.97955 36.0029 7.01483 38.3118Z" fill="#30254A"/>
<g style="mix-blend-mode:screen" opacity="0.25">
<path d="M4.88622 35.5129C5.44678 36.0793 6.26018 37.4239 6.09946 38.8998C6.09358 38.9253 6.09358 38.9351 6.09358 38.9351C6.0877 37.0711 4.9117 35.7716 3.8239 35.0739C2.82822 34.4369 0.893705 34.184 0.311584 34.1193C0.574224 34.0997 3.3143 33.9371 4.88426 35.5149L4.88622 35.5129Z" fill="#788AFF"/>
</g>
<g style="mix-blend-mode:screen" opacity="0.25">
<path d="M7.01481 38.3117C7.01481 38.4176 7.01481 38.5293 7.00501 38.6547C6.97561 38.2294 6.81881 37.3513 6.52481 36.779C6.03481 35.8284 5.12929 35.2737 5.00385 35.1914C5.22141 35.2718 6.97953 36.0009 7.01481 38.3098V38.3117Z" fill="#788AFF"/>
</g>
<g style="mix-blend-mode:screen" opacity="0.25">
<path d="M4.15907 36.9828C3.21827 36.4164 2.56755 35.946 2.01091 35.8264C1.18183 35.6442 0.823147 35.7755 0.823147 35.7755C0.797667 35.7461 1.54051 35.5834 2.27943 35.801C2.93211 35.9872 3.68475 36.3106 4.04735 36.6555C4.07283 36.6751 4.09243 36.7006 4.11399 36.7222L4.15907 36.9848V36.9828Z" fill="#788AFF"/>
</g>
<g style="mix-blend-mode:multiply" opacity="0.99">
<path d="M15.6916 45.1819C14.3432 49.5684 11.9931 52.9592 7.7066 52.8337C3.94732 52.8239 2.738 50.4543 2.49104 47.4104C2.49104 47.4104 0.807398 46.0658 1.32288 44.3469C1.84424 42.6339 2.58708 41.8656 2.36952 40.2642C2.17744 38.8393 1.48948 38.0044 -0.00012207 38.1514C-0.00012207 38.1514 0.00967793 38.1455 0.0253579 38.1357C0.223318 38.0592 1.6012 37.5594 2.32052 38.657C3.09276 39.8389 3.3456 40.9718 2.60864 42.9632C2.1696 44.1352 2.27936 45.4857 2.44596 46.3951C2.44008 46.401 2.44596 46.4049 2.44596 46.4108C2.55768 47.0321 2.69292 47.4476 2.69292 47.4476C2.69292 47.4476 2.57728 50.1818 4.53336 51.5421C6.48944 52.8964 8.76892 52.916 11.0268 51.6891C13.2867 50.466 14.6705 46.256 14.7312 45.276C14.7606 44.8056 15.2212 44.9271 15.6916 45.1858V45.1819Z" fill="#E5DFED"/>
</g>
<path d="M88.8273 3.76312C88.8273 5.30368 88.2511 6.8462 87.7669 7.85168C87.4239 7.87128 87.03 7.92224 86.5949 8.02416C86.5145 8.04376 86.4322 8.05944 86.3518 8.07904C86.2715 8.10452 86.1891 8.12412 86.1088 8.1496C85.654 8.28092 85.1543 8.4632 84.6172 8.70624C84.4761 8.77288 84.335 8.83756 84.1919 8.914C83.7979 9.10608 83.3824 9.33932 82.9492 9.61568C82.6807 9.78228 82.4142 9.95868 82.13 10.1566C81.7968 10.3938 81.4518 10.6564 81.0931 10.9406C80.6894 11.264 80.2641 11.6227 79.8348 12.0167C79.7486 12.097 79.6682 12.1735 79.582 12.2538C79.0371 12.7595 78.4706 13.326 77.8787 13.9571C77.8238 14.0237 77.7631 14.0825 77.7023 14.1492V14.155C77.2476 14.645 76.7831 15.1762 76.3068 15.7466C76.1657 15.9132 76.0246 16.0896 75.8776 16.2679C75.6189 16.5913 75.3523 16.9245 75.0838 17.2734C74.7506 17.7085 74.4213 18.1182 74.1038 18.5023C73.6138 19.0982 73.1394 19.6391 72.673 20.1291C69.3233 23.7022 66.7812 24.6979 64.9956 24.7175C64.6174 24.7175 64.2724 24.6763 63.9588 24.6058C63.1258 24.4196 62.5339 24.0236 62.1791 23.7159C61.9008 23.4788 61.7656 23.2867 61.7656 23.2867C61.7656 23.2867 61.7813 22.8516 61.3814 22.4223C61.0129 22.0284 60.2838 21.6344 58.8589 21.5991C58.8589 21.5991 59.4508 21.4012 60.0761 21.3267C60.6974 21.2502 61.9008 21.5736 61.9008 21.5736C61.9008 21.5736 61.9263 20.8661 61.2893 20.2957C60.9561 19.9978 60.127 19.8567 60.127 19.8567C60.2328 19.7959 60.3387 19.7548 60.4406 19.7312C61.5127 19.4588 62.6045 20.7916 62.6045 20.7916C62.6045 20.7916 62.579 20.3526 62.4378 19.9468C62.2614 19.4372 61.7244 19.0276 61.7244 19.0276C61.8616 18.9374 62.0027 18.8453 62.1497 18.7454C62.3065 18.6434 63.8373 20.0703 63.8373 20.0703C63.8373 20.0703 64.0039 18.9688 63.0631 18.1397C62.9827 18.0692 63.2552 18.079 63.6393 18.2416C64.0999 18.4278 64.7154 18.8277 65.0348 19.5294C65.1054 19.6862 65.0192 18.226 63.5845 17.6948C63.3414 17.6046 64.292 16.952 64.7526 16.9814C66.1324 17.0774 66.5519 18.6493 66.744 18.5121C66.8302 18.4514 66.4264 17.5321 66.1991 17.1284C65.9658 16.7246 65.3308 16.5776 65.4268 16.5325C65.8718 16.3208 66.4323 16.6286 66.8675 16.9069C66.8675 16.9069 66.8674 16.9128 66.8733 16.9128C67.2124 17.1303 67.4751 17.3322 67.5554 17.2773C67.7318 17.1519 66.7459 15.5682 66.9243 15.4428C67.1066 15.3114 68.557 16.1209 68.7334 15.9876C68.8353 15.9112 68.3394 15.0429 67.7691 14.8156C67.6319 14.7607 67.9807 14.6039 68.1121 14.5568C68.1317 14.551 68.1532 14.547 68.1787 14.5412C68.8059 14.4392 70.3366 15.4251 70.3366 15.4251C70.3366 15.4251 70.2602 15.0057 69.927 14.7078C69.4978 14.3177 68.7902 14.0159 68.8765 13.9649C69.8623 13.4044 71.4245 14.8136 71.4245 14.8136C71.4245 14.8136 70.7933 13.7983 69.6761 13.3181C69.6095 13.2926 69.6761 13.2025 69.782 13.1064C69.9133 12.981 70.1152 12.8477 70.2014 12.8281C71.4656 12.5498 72.4005 14.3942 72.5162 14.2883C72.5162 14.2883 71.8282 12.9634 70.5346 12.6008C70.3837 12.5557 70.7267 12.3636 70.8521 12.293C71.5754 11.8736 73.2884 13.1731 73.4746 13.3181C73.2923 13.1554 71.5029 11.5992 71.5597 11.5286C71.5891 11.4934 71.8733 11.5188 72.232 11.6247H72.2378C72.3848 11.6658 72.5416 11.7266 72.7024 11.7972C73.3746 12.101 74.0822 12.5812 74.1528 12.6302C74.1175 12.5537 73.8039 11.9736 73.308 11.5835C72.7729 11.1641 72.0301 10.9622 72.0693 10.9171C72.1144 10.8564 72.8219 10.8368 73.4432 11.0328C74.0352 11.219 74.5409 11.6247 74.5859 11.5639C74.7016 11.4169 73.408 10.3605 72.5083 10.4428C72.5985 10.3311 72.8611 9.88616 72.9689 9.79012C73.1904 9.58236 74.5448 10.2546 75.2171 10.6231C75.2229 10.6231 75.2268 10.629 75.2327 10.6329C75.268 10.6486 75.3033 10.6623 75.3288 10.6839C75.3699 10.7035 75.0759 10.2233 74.6114 9.87048C74.1116 9.48632 73.4432 9.22368 73.4432 9.1786C73.4981 9.10216 75.7227 10.1076 75.7776 10.0332C75.8442 9.94692 73.7451 8.78464 73.8176 8.6984C73.8686 8.62784 73.9235 8.55728 73.9803 8.48672C74.0665 8.37108 76.0932 9.40204 76.1794 9.29032C76.2049 9.25504 75.9364 8.79444 75.5071 8.4926C75.0269 8.15352 74.3801 7.96144 74.4095 7.92224C74.4546 7.86736 74.4997 7.8066 74.5408 7.74976C74.5761 7.70468 75.219 7.75564 75.7835 7.98692C76.248 8.18488 76.6576 8.57296 76.689 8.53768V8.52788C76.7086 8.46124 76.542 8.14372 76.2029 7.90656C76.0716 7.8164 75.9246 7.72428 75.7776 7.64392H75.7717C75.3464 7.40676 74.9387 7.23036 74.974 7.18332C74.9838 7.16764 75.0407 7.16372 75.1249 7.16372C75.4033 7.15784 76.0089 7.23036 76.5342 7.43224C76.7165 7.5028 76.8831 7.58904 77.0301 7.67528C77.3887 7.88696 77.6357 8.1006 77.6612 8.06532C77.7023 8.01436 77.4436 7.65568 77.0555 7.32836C76.9438 7.22644 76.8184 7.1304 76.6871 7.04612C76.1422 6.69724 75.4581 6.55024 75.5052 6.48948C75.5953 6.37776 75.6875 6.26212 75.7737 6.1504C75.8031 6.10924 76.3303 6.14452 76.7948 6.36796C76.9203 6.42872 77.0418 6.49928 77.1633 6.56984C77.5534 6.81288 77.865 7.07944 77.8905 7.04416C77.9316 6.9932 77.5828 6.71096 77.1927 6.40324C76.7223 6.02888 76.1912 5.61924 76.2382 5.55848C76.299 5.48204 76.8145 5.6996 77.3103 5.90148C77.7749 6.09356 78.2198 6.27584 78.2805 6.20528C78.3217 6.15432 77.9983 5.86228 77.6494 5.55848C77.2555 5.2096 76.8262 4.84504 76.8752 4.79016C76.9301 4.7196 76.9908 4.64904 77.0516 4.5824C77.1026 4.51576 77.1535 4.45696 77.2084 4.3962C77.279 4.31584 78.306 4.8862 78.3766 4.80976C78.5745 4.5922 77.8101 3.73372 78.0022 3.53184C78.0826 3.45148 78.159 3.37504 78.2355 3.29468C78.3315 3.20452 80.1308 4.25508 80.2268 4.16296C80.2523 4.14336 80.2268 4.05124 80.1562 3.9258C80.1562 3.91992 80.1504 3.916 80.1504 3.916C80.0602 3.7298 79.8721 3.46716 79.6447 3.26332C79.6153 3.23784 79.5741 3.20844 79.5388 3.18296C79.533 3.17708 79.5291 3.17708 79.5291 3.17708C79.1508 2.93404 78.5647 2.90856 78.6137 2.86936C78.6294 2.85368 78.8823 2.81448 79.1743 2.82428H79.1802C79.4017 2.83408 79.6545 2.87524 79.8368 2.9752C80.3424 3.26332 80.7619 3.74352 80.8128 3.80428C80.7776 3.73372 80.4542 3.17316 80.0288 2.80272C79.7113 2.53028 79.2311 2.44404 79.2311 2.40288C79.2821 2.10888 79.6447 1.96384 79.7407 1.99912C79.8015 2.01872 80.1955 2.11476 80.4895 2.41856C80.8481 2.78312 81.146 3.32408 81.2166 3.44952C81.0951 3.20648 80.2915 1.61496 80.4032 1.5444C80.5189 1.46796 81.8026 2.04028 81.8026 2.04028C81.8026 2.04028 81.1617 1.3386 81.1362 1.16024C81.1362 1.14064 81.1421 1.12496 81.1519 1.11908C81.1617 1.1132 81.1813 1.1132 81.2068 1.12496C81.4087 1.21512 82.0202 1.82664 82.0966 1.90308C82.0712 1.80704 81.8026 0.817237 81.9496 0.756477C81.9653 0.750597 81.979 0.750597 82.0006 0.762357C82.0065 0.768237 82.0163 0.772158 82.0163 0.772158C82.032 0.781958 82.0457 0.791757 82.0614 0.807437C82.1731 0.903477 82.3299 1.12104 82.471 1.29744C82.5063 1.34252 82.5416 1.3876 82.5768 1.42288C82.6062 1.45816 82.6317 1.48364 82.6533 1.49932C82.669 1.515 82.6788 1.51892 82.6886 1.5248C82.6984 1.5346 82.7082 1.54048 82.7141 1.54048C82.7337 1.55616 82.7493 1.55616 82.765 1.55028C82.8512 1.52088 82.5984 0.529118 82.6886 0.499718C82.814 0.458558 82.9473 0.423277 83.0786 0.387997C83.204 0.358597 83.7411 1.3386 83.7411 1.3386C83.7411 1.3386 83.7705 0.231197 83.9273 0.201797C84.0488 0.182197 84.1742 0.160637 84.3016 0.146917H84.3075C84.3075 0.146917 84.3173 0.146917 84.3232 0.152797C84.3291 0.158677 84.333 0.162597 84.3389 0.168477C84.3546 0.178277 84.3683 0.197877 84.384 0.223357C84.3997 0.242957 84.4134 0.268437 84.4349 0.299797C84.4506 0.325277 84.4643 0.354677 84.4859 0.389957C84.4918 0.395837 84.4918 0.399757 84.4918 0.405637C84.5074 0.431117 84.5212 0.456598 84.5329 0.476198C84.5584 0.536958 84.5878 0.601638 84.6192 0.668278C84.7407 0.926998 84.8406 1.18376 84.8406 1.18376C84.8406 1.18376 84.8407 1.16808 84.8465 1.13868C84.8465 1.123 84.8465 1.1034 84.8524 1.0838V1.04852C84.8583 0.987757 84.8681 0.911317 84.8779 0.830957C84.8838 0.760397 84.8936 0.689837 84.9073 0.613397C84.9132 0.558517 84.923 0.501677 84.9328 0.450718C84.9328 0.425238 84.9387 0.399757 84.9485 0.374277C84.9641 0.297837 84.9779 0.233157 84.9935 0.182197C85.0131 0.111637 85.0386 0.0606775 85.07 0.0606775L85.0856 0.0704775C85.0856 0.0704775 85.0955 0.0861575 85.1013 0.0959575C85.1013 0.0959575 85.1033 0.0992242 85.1072 0.105757C85.1778 0.303717 85.2483 1.02108 85.2483 1.02108C85.2483 1.02108 85.3091 0.758437 85.3738 0.505597C85.3894 0.444837 85.409 0.380157 85.4247 0.323317C85.4698 0.176317 85.511 0.0606775 85.5365 0.0293175C85.5423 0.0234375 85.5462 0.0234375 85.5521 0.0234375C85.5933 0.0430375 85.6188 0.256678 85.6384 0.478158C85.6638 0.730998 85.6893 0.999517 85.7344 0.999517C85.7795 0.999517 85.8363 0.848597 85.8912 0.660437C85.9265 0.554597 85.9578 0.438957 85.9931 0.331157C86.144 0.478157 86.2911 0.654557 86.4067 0.876037C86.3969 0.930917 86.3871 0.981877 86.3812 1.02304C86.3714 1.0838 86.3714 1.11908 86.391 1.12496C86.4106 1.12496 86.4361 1.11516 86.4675 1.0838H86.4733C86.4733 1.0838 86.489 1.06812 86.4988 1.0642C86.5047 1.07988 86.5145 1.09948 86.5184 1.11516V1.12104C86.5439 1.17592 86.5635 1.23668 86.5792 1.29744C86.5792 1.27196 86.5694 1.221 86.5596 1.15044C86.5537 1.11516 86.5439 1.07008 86.5341 1.025C86.7419 0.807437 87.079 0.288037 87.2358 0.180237C87.2652 0.209637 87.2965 0.240997 87.322 0.270397C87.3063 0.456597 87.1652 0.836837 87.2515 0.862317C87.2926 0.872117 87.4337 0.730998 87.5807 0.589878C87.7218 0.797637 87.8532 1.02892 87.9335 1.29156C87.9237 1.2112 87.8669 0.862318 87.6905 0.478158C87.7806 0.387998 87.8571 0.321357 87.8885 0.321357H87.8943C87.9139 0.337037 87.9296 0.356637 87.9492 0.376237C88.0962 0.587917 88.3275 1.34056 88.4294 1.3974C88.4647 1.41308 88.5098 1.39152 88.5607 1.34644C88.7273 1.85212 88.8391 2.59888 88.8391 3.76704L88.8273 3.76312Z" fill="#EDEDED"/>
<path d="M66.5402 23.0628L64.9957 24.7171L64.2882 25.5363C64.2882 25.5363 64.1627 25.162 63.9589 24.6073C63.51 23.3784 62.6908 21.2871 62.089 20.5697C61.6637 20.0699 61.0071 19.8367 60.4407 19.7308C61.5128 19.4584 62.6045 20.7912 62.6045 20.7912C62.6045 20.7912 62.579 20.3522 62.4379 19.9464C62.2615 19.4368 61.7245 19.0272 61.7245 19.0272C61.8617 18.937 62.0028 18.8449 62.1498 18.745C62.3066 18.643 63.8374 20.0699 63.8374 20.0699C63.8374 20.0699 64.004 18.9684 63.0651 18.1393C62.9848 18.0687 63.2572 18.0786 63.6414 18.2412C65.2486 19.4035 66.5402 23.0648 66.5402 23.0648V23.0628Z" fill="#110038"/>
<path d="M71.3186 19.8467L69.3175 22.1615C69.3175 22.1615 69.686 19.6762 67.1242 17.1929C67.0439 17.1145 66.9674 17.0106 66.8714 16.9107C67.2105 17.1282 67.4731 17.3301 67.5535 17.2752C67.7299 17.1498 66.744 15.5661 66.9224 15.4407C67.1046 15.3093 68.555 16.1188 68.7314 15.9855C68.8334 15.9091 68.3375 15.0408 67.7671 14.8135C67.6299 14.7586 67.9788 14.6018 68.1101 14.5547C68.1297 14.5489 68.1513 14.5449 68.1768 14.5391C69.8545 15.4113 70.3092 16.4853 70.9031 17.5731C71.4519 18.5786 71.3206 19.8448 71.3206 19.8448L71.3186 19.8467Z" fill="#110038"/>
<path d="M76.2147 16.7794L73.9274 19.5646C73.9274 19.5646 74.3449 18.9883 74.1018 18.5042C73.5197 17.3478 72.4398 15.2859 71.742 14.6332C71.3167 14.2334 70.5346 13.6473 69.7761 13.1064C69.9074 12.9809 70.1093 12.8477 70.1956 12.8281C71.4598 12.5497 72.3947 14.3941 72.5103 14.2883C72.5103 14.2883 71.8224 12.9633 70.5288 12.6007C70.3778 12.5556 70.7208 12.3635 70.8463 12.293C71.5695 11.8735 73.2826 13.173 73.4688 13.3181C73.2865 13.1573 71.497 11.5991 71.5538 11.5286C71.5832 11.4933 71.8674 11.5188 72.2261 11.6246H72.232C73.3884 12.1558 74.2488 12.9339 74.9486 13.8786C75.4993 14.6234 76.1108 15.4427 76.4009 15.8817C76.6185 16.1993 76.2147 16.7794 76.2147 16.7794Z" fill="#110038"/>
<path d="M80.2229 13.2255L78.504 15.7579C78.504 15.7579 78.4726 15.1895 78.0081 14.3055C78.0081 14.2996 77.8944 13.9821 77.8944 13.9821C77.2986 12.8394 76.3049 11.5987 75.7502 11.0774C75.613 10.9461 75.4327 10.7951 75.2288 10.6325C75.2641 10.6481 75.2994 10.6619 75.3249 10.6834C75.366 10.703 75.072 10.2228 74.6075 9.87002C74.1077 9.48586 73.4393 9.22322 73.4393 9.17814C73.4942 9.1017 75.7188 10.1072 75.7737 10.0327C75.8403 9.94646 73.7412 8.78418 73.8137 8.69794C73.8647 8.62738 73.9195 8.55682 73.9764 8.48626C74.0626 8.37062 76.0892 9.40158 76.1755 9.28986C76.201 9.25458 75.9325 8.79398 75.5032 8.49214C75.023 8.15306 74.3762 7.96098 74.4056 7.92178C74.4507 7.8669 74.4958 7.80614 74.5369 7.7493C74.5722 7.70422 75.2151 7.75518 75.7796 7.98646C76.2441 8.18442 76.6537 8.5725 76.6851 8.53722V8.53134C77.9434 9.40158 79.1096 10.9363 79.7819 11.9221C80.1817 12.5043 80.2229 13.2255 80.2229 13.2255Z" fill="#110038"/>
<path d="M83.2962 9.21377L82.9473 9.61753L81.299 11.5325C81.299 11.5325 81.2225 11.3051 81.0912 10.9405C80.6875 9.80765 79.7623 7.35177 79.0998 6.56973C78.6745 6.06993 77.816 5.26633 77.0477 4.57837C77.0987 4.51173 77.1496 4.45293 77.2045 4.39217C77.2751 4.31181 78.3021 4.88217 78.3727 4.80573C78.5706 4.58817 77.8063 3.72969 77.9983 3.52781C78.0787 3.44745 78.1551 3.37101 78.2316 3.29065C78.3276 3.20049 80.1269 4.25105 80.2229 4.15893C80.2484 4.13933 80.2229 4.04721 80.1524 3.92177C81.7439 5.99937 83.2962 9.21377 83.2962 9.21377Z" fill="#110038"/>
<g style="mix-blend-mode:multiply" opacity="0.58">
<path d="M85.9913 7.90877C84.7134 6.40741 83.7079 7.19141 82.9337 8.49089C82.6299 9.00049 82.3633 9.59829 82.1301 10.1588C82.0399 10.3862 81.9478 10.6077 81.8674 10.8154C81.8518 10.8566 81.838 10.8919 81.8165 10.9311V10.937C81.5342 11.5583 80.9423 12.2815 80.2034 13.0596C79.6272 13.6614 78.9647 14.2925 78.2885 14.9354C77.2281 15.9408 76.1246 16.9679 75.272 17.9322C75.2622 17.942 75.2466 17.9577 75.2368 17.9734L75.2309 17.9792C75.0231 18.2164 74.8311 18.4438 74.6605 18.6711C74.6311 18.7123 74.5939 18.7515 74.5586 18.7926C74.4371 18.9338 74.2803 19.0808 74.1039 19.2278C73.7295 19.5316 73.2395 19.8334 72.6731 20.1333C71.9146 20.5331 71.0247 20.9212 70.08 21.2858H70.0741C69.8272 21.3877 69.5783 21.4778 69.3254 21.568C68.3356 21.9326 67.3086 22.2658 66.3384 22.5637C65.2819 22.8871 64.2961 23.1654 63.4885 23.383C62.9633 23.5202 62.5183 23.6358 62.1792 23.722C61.9009 23.4849 61.7657 23.2928 61.7657 23.2928C61.7657 23.2928 61.7814 22.8577 61.3815 22.4284C61.8559 22.3481 62.3772 22.2207 62.9221 22.0541C63.7864 21.7856 64.7116 21.423 65.6465 20.9976C66.7068 20.5233 67.775 19.9765 68.755 19.4218C69.6135 18.9357 70.4132 18.4516 71.0855 18.0008C71.9538 17.4246 72.6163 16.915 72.9397 16.5602C72.9651 16.5347 72.9906 16.5053 73.02 16.474C73.4806 16.0192 74.4351 15.2921 75.3152 14.3826C75.911 13.7711 76.4716 13.0734 76.8204 12.3207C77.1184 11.6798 77.2595 11.0016 77.1438 10.3C77.0576 9.75901 77.0125 9.24941 77.0027 8.77313C76.987 8.37917 77.0027 8.01069 77.0282 7.67553C77.3869 7.88721 77.6338 8.10085 77.6593 8.06557C77.7005 8.01461 77.4418 7.65593 77.0537 7.32861C77.0831 7.04049 77.1243 6.78373 77.1595 6.57009C77.5496 6.81313 77.8612 7.07969 77.8867 7.04441C77.9278 6.99345 77.579 6.71121 77.1889 6.40349C77.234 6.17025 77.2752 5.99973 77.3046 5.90369C77.7691 6.09577 78.214 6.27805 78.2748 6.20749C78.3159 6.15653 77.9925 5.86449 77.6437 5.56069C77.7554 5.50581 77.8769 5.47053 78.0023 5.45877H78.0082C79.3116 5.31765 81.152 7.36977 81.3343 7.05617C81.4754 6.80921 81.6166 6.58185 81.7636 6.37409C83.1434 4.35725 84.5389 4.20045 85.2818 4.76689C86.2422 5.50385 85.9893 7.91465 85.9893 7.91465L85.9913 7.90877Z" fill="#E6E1ED"/>
</g>
<path d="M61.5952 97.0731C61.5247 97.2593 61.2875 97.4474 60.9837 97.5984C60.5898 97.7963 60.0743 97.9374 59.6588 97.9825C59.1884 98.0335 58.718 97.9982 58.2848 97.9217C57.5165 97.7845 56.854 97.5082 56.4796 97.3044C55.58 96.8085 55.6055 95.1621 55.6055 95.1621L57.7086 94.7074L59.6235 94.2977L60.7211 94.0605C60.7211 94.0605 61.9892 96.046 61.5952 97.0731Z" fill="#1A0054"/>
<g style="mix-blend-mode:screen" opacity="0.25">
<path d="M60.9838 97.5985C60.5899 97.7965 60.0744 97.9376 59.6589 97.9827C59.1885 98.0336 58.7181 97.9983 58.2849 97.9219L57.7087 94.7075L59.6236 94.2979C60.0685 95.2426 60.7859 96.8302 60.9838 97.5985Z" fill="#788AFF"/>
</g>
<path d="M82.5946 27.8144C82.5397 28.8297 82.4436 29.6745 82.2966 30.2703C81.8419 32.1304 81.0324 33.9649 80.2759 35.431C80.2092 35.5525 80.1504 35.674 80.0838 35.7897C79.5879 36.7089 79.1332 37.4616 78.8196 37.9476C78.7686 38.028 78.7177 38.1044 78.6824 38.1691C78.6726 38.1789 78.6628 38.1887 78.6569 38.2044C78.555 38.3514 78.4903 38.4572 78.4492 38.5082C78.4394 38.518 78.4296 38.5337 78.4237 38.5494C78.4433 38.8669 78.4648 39.1805 78.4844 39.4843C78.5138 40.0448 78.5393 40.5858 78.5609 41.1013C78.5903 42.0715 78.602 42.9652 78.5805 43.7904C78.5648 44.7763 78.5138 45.6544 78.4433 46.4482C78.3414 47.534 78.2002 48.4493 78.0297 49.2176C77.9886 49.3901 77.9533 49.5469 77.9141 49.7037C77.7769 50.2447 77.5554 50.8307 77.2673 51.4364C76.0854 53.9118 73.7138 56.6578 70.9796 57.628C70.6366 57.7534 70.2818 57.8495 69.929 57.9102C69.3685 58.0122 68.6511 58.1278 67.8867 58.1827C66.9263 58.2591 65.9052 58.2434 65.0761 57.9906C64.9252 58.3944 64.7429 58.8902 64.541 59.4351C64.294 60.1015 64.0196 60.86 63.7433 61.644C63.3905 62.6397 63.0298 63.6805 62.7025 64.6664C62.5261 65.2014 62.3634 65.7169 62.2125 66.203C61.9401 67.1026 61.7264 67.8866 61.6206 68.4413C61.6049 68.5315 61.5912 68.6177 61.5794 68.6942C61.5383 68.9882 61.503 69.2704 61.4736 69.5389C61.3168 70.8325 61.256 71.8948 61.1345 72.9454C61.064 73.5569 60.9718 74.1684 60.8268 74.8211C60.7758 75.0485 60.7014 75.2954 60.6053 75.564C60.2016 76.7008 59.4372 78.2021 58.908 79.729C58.757 80.1641 58.6198 80.6031 58.5179 81.0382C58.3062 81.932 58.2298 82.8022 58.4121 83.5862C59.6449 88.9488 58.7002 87.6846 58.5748 90.3933C58.4434 93.102 60.9601 93.5881 60.7994 94.3956C60.6837 94.966 58.1161 95.1189 56.6344 95.1542C56.0287 95.1738 55.6034 95.1698 55.6034 95.1698C55.6034 95.1698 56.4423 91.8437 55.8014 91.6869C54.6136 91.389 54.057 89.3624 53.9315 88.6705C53.8355 88.1805 54.2353 86.6438 54.6587 85.1288C54.8312 84.5172 55.0076 83.9057 55.1546 83.3648C55.1957 83.2276 55.231 83.0864 55.2663 82.9453C55.478 82.077 55.5995 81.1656 55.6054 80.0798C55.6054 79.8113 55.5995 79.5349 55.5858 79.2468C55.5446 78.3374 55.4231 77.3005 55.2212 76.0736C54.6391 72.5906 56.1267 69.8819 56.1267 69.8819C56.111 69.68 56.0973 69.4782 56.0856 69.2763C56.066 68.9882 56.0444 68.7 56.0307 68.408C55.9444 67.0595 55.8798 65.6895 55.819 64.3802C55.7896 63.7883 55.7641 63.2081 55.7386 62.6476C55.6838 61.3638 55.6328 60.176 55.5662 59.1646C55.5368 58.5374 55.4956 57.9828 55.4505 57.5065C55.3643 56.5814 55.2584 55.9796 55.1173 55.8385C54.6175 55.3328 52.6908 55.521 52.4184 55.5445C52.3988 55.5504 52.389 55.5504 52.389 55.5504C51.6305 55.57 50.8778 55.5602 50.135 55.521C44.404 55.227 39.112 53.2415 35.2821 51.0796C35.0352 50.9424 34.796 50.8013 34.5648 50.6602H34.5589C33.0124 49.7351 31.7384 48.7962 30.8192 47.9574C30.8192 47.9574 30.1822 47.6085 29.1924 47.4419C27.5656 47.1596 24.9921 47.3458 22.7499 50.3133C22.7499 50.3133 22.452 50.7229 21.9874 51.3952C21.8659 51.5677 21.7346 51.748 21.5974 51.9518C21.223 52.4869 20.7879 53.12 20.3293 53.806C19.804 54.5939 19.2376 55.4485 18.6966 56.307C18.4281 56.7362 18.1615 57.1654 17.9087 57.5849C16.9836 59.1156 16.2152 60.5562 15.9173 61.501C15.8468 61.7126 15.8017 61.9008 15.786 62.0576C15.69 62.9631 15.5586 63.9216 15.3372 64.882C15.1647 65.615 14.9373 66.348 14.6296 67.0556C14.4218 67.5358 14.1749 67.9964 13.8868 68.4511C13.8868 68.4511 13.8868 68.457 13.8809 68.4609C13.6476 68.8353 13.3752 69.1979 13.0714 69.5428C12.3227 70.3974 11.717 72.2457 11.2564 74.1978C11.1153 74.7996 10.984 75.4111 10.8664 76.003C10.4019 78.4393 10.1686 80.5757 10.1686 80.5757C10.1686 80.5757 9.00636 81.9908 9.00636 82.8963C9.00636 83.8018 7.9754 86.3185 8.68296 87.4808C8.68296 87.4808 8.53596 87.6474 8.28312 87.8394C7.84408 88.1785 7.08556 88.5921 6.2408 88.3138C4.92172 87.8747 4.81 86.3185 4.81 86.3185C4.81 86.3185 6.72492 82.7042 6.33684 81.8654C5.95268 81.0265 6.38192 78.5961 7.37368 77.0046C7.37368 77.0046 7.46972 76.7772 7.62652 76.393C7.75196 76.0892 7.92052 75.6855 8.1126 75.2112C8.70844 73.7412 9.55712 71.6028 10.2353 69.7075C10.494 68.9803 10.7312 68.2924 10.9134 67.6906C11.1722 66.8518 11.3329 66.1854 11.3329 65.8267C11.3329 64.4723 12.2168 63.4472 12.8989 61.7224V61.7166C13.1106 61.1913 13.2988 60.6092 13.4399 59.9271C13.4595 59.8369 13.4752 59.7448 13.4948 59.6448C13.6065 59.0941 13.7417 58.4061 13.8848 57.6378C14.0357 56.8185 14.1984 55.9091 14.3552 54.9742C14.8864 51.8048 15.3352 48.369 15.0726 47.3478C15.0216 47.1616 14.9765 46.9636 14.9412 46.7559V46.75C14.659 45.2898 14.5728 43.3435 14.7746 41.509V41.5031C14.8001 41.2757 14.8256 41.0542 14.8609 40.8308C14.9216 40.4525 14.9569 40.1134 14.9726 39.8057C14.9726 39.8057 14.9746 39.8025 14.9785 39.7959C15.0334 38.8865 14.9628 38.224 14.9687 37.5008C14.9687 36.9951 15.0098 36.4639 15.1451 35.7975C15.1451 35.7916 15.151 35.7877 15.151 35.7818C15.151 35.5956 15.151 35.4036 15.1568 35.2056C15.1725 34.5941 15.2333 33.9473 15.3391 33.2456C15.3548 33.1437 15.3685 33.0437 15.3901 32.9418C15.5018 32.2695 15.637 31.6168 15.7997 30.9916C15.9977 30.1821 16.2348 29.4099 16.5132 28.6768C17.1658 26.9089 18.0145 25.3664 19.0141 24.0375C19.6413 23.2045 20.3234 22.4558 21.0564 21.7835C21.8542 21.0564 22.7146 20.4233 23.6142 19.8882C24.408 19.408 25.2371 19.0082 26.0897 18.675C27.156 18.2614 28.2575 17.9576 29.3747 17.7655C31.6346 17.3716 33.9591 17.4166 36.1818 17.8616C38.0869 18.2457 39.5432 18.7906 40.7799 19.4139C42.003 20.0254 43.0182 20.7134 44.0492 21.3798C44.2668 21.5209 44.4882 21.662 44.7117 21.7992C45.2213 22.1285 45.7524 22.4401 46.3287 22.7341C46.8344 23.0026 47.3694 23.2496 47.9614 23.4711H47.9672C48.5886 23.7141 49.2608 23.9258 50.0194 24.1081C50.7171 24.2806 51.4854 24.4217 52.338 24.5275C53.2828 24.653 54.3294 24.7353 55.5074 24.7647H55.5132C55.77 24.7706 56.0385 24.7745 56.311 24.7745C56.7049 24.7745 57.2047 24.6726 57.7908 24.506C58.418 24.3237 59.1392 24.0767 59.9291 23.7925C60.4544 23.6102 61.011 23.4142 61.5873 23.2261C62.5986 22.8831 63.6747 22.5538 64.7605 22.3166C64.9075 22.2872 65.0486 22.25 65.1898 22.2108C65.8268 22.0442 66.454 21.8208 67.0086 21.5934C68.267 21.0779 69.1921 20.533 69.1921 20.533C69.541 20.4527 69.9251 20.3116 70.3289 20.1077C71.0423 19.7588 71.8302 19.2434 72.6495 18.622C73.5178 17.9596 74.4233 17.1814 75.3132 16.3582C75.8345 15.8839 76.3441 15.388 76.84 14.898H76.8459C77.4378 14.3061 78.0023 13.726 78.5334 13.1752C78.5334 13.1752 78.5334 13.1693 78.5393 13.1693C79.0901 12.5931 79.5958 12.0423 80.0407 11.5562C81.1736 10.3077 81.9007 9.44336 81.9007 9.44336C81.9007 9.44336 81.9517 10.0392 82.0262 11.0349C82.1575 12.6872 82.3554 15.4527 82.5005 18.4143C82.6632 21.7286 82.7592 25.2919 82.6063 27.8184L82.5946 27.8144Z" fill="#E6E1ED"/>
<path d="M8.89476 89.8503C8.687 90.2992 8.2166 90.6383 7.57568 90.7911C6.97004 90.9323 6.21544 90.9068 5.39224 90.6343C5.15508 90.554 4.9434 90.4619 4.75524 90.3521C3.94184 89.8974 3.60276 89.2153 3.63804 88.6332C3.6792 87.9256 4.81012 86.3027 4.81012 86.3027C5.11784 86.5811 5.42752 86.8025 5.73524 86.9691C6.49376 87.3945 7.22092 87.514 7.76188 87.5356C8.31852 87.5552 8.68112 87.465 8.68112 87.465C8.68112 87.465 9.12996 89.3447 8.8928 89.8503H8.89476Z" fill="#1A0054"/>
<g style="mix-blend-mode:screen" opacity="0.25">
<path d="M7.76201 87.5352L7.57581 90.7907C6.97017 90.9319 6.21557 90.9064 5.39237 90.6339C5.15521 90.5536 4.94353 90.4615 4.75537 90.3517L5.73537 86.9707C6.49389 87.396 7.22105 87.5156 7.76201 87.5371V87.5352Z" fill="#788AFF"/>
</g>
<g style="mix-blend-mode:multiply" opacity="0.5">
<path d="M82.5946 27.8149C82.4437 28.9713 82.332 29.8415 82.2967 30.2708C81.842 32.1308 81.0325 33.9654 80.2759 35.4315C80.2093 35.553 80.1505 35.6745 80.0838 35.7901C79.588 36.7094 79.1333 37.462 78.8197 37.9481C78.7687 38.0285 78.7177 38.1049 78.6824 38.1696C78.6726 38.1794 78.6628 38.1892 78.657 38.2049C78.5766 38.3009 78.506 38.3969 78.4492 38.5087C78.4394 38.5185 78.4296 38.5341 78.4237 38.5498C78.261 39.9238 77.1811 41.0469 76.746 41.0469C76.4637 41.0469 74.9526 38.5302 75.4171 33.5518C75.6503 31.0097 75.6386 28.5538 76.8322 24.0399C78.5609 17.4602 78.1866 13.9636 78.5198 13.1698C78.5198 13.1698 78.5198 13.1639 78.5257 13.1639C79.0764 12.5877 79.5821 12.0369 80.027 11.5508L82.0125 11.0295L84.3174 10.4277C84.4997 14.138 83.21 23.2187 82.5946 27.8129V27.8149Z" fill="#A396BD"/>
</g>
<g style="mix-blend-mode:multiply" opacity="0.58">
<path d="M85.9912 7.9086C85.8697 7.67144 85.7031 7.4284 85.4699 7.21084C85.4699 7.21084 85.4666 7.20888 85.4601 7.20496C85.0054 6.77572 84.6016 6.60912 84.2625 6.56796C83.6353 6.49152 83.2512 6.86196 83.2512 6.86196C83.1551 6.27984 82.9885 5.71928 82.7808 5.194C83.1904 4.8412 83.5844 4.63344 83.9489 4.5374C84.484 4.39628 84.9505 4.508 85.2837 4.75888C85.4091 4.85492 85.5169 4.98624 85.6071 5.13324C86.1833 6.09756 85.9912 7.9086 85.9912 7.9086Z" fill="#E6E1ED"/>
</g>
<g style="mix-blend-mode:screen" opacity="0.28">
<path d="M85.3739 36.5879C85.3739 36.5879 84.8487 36.2214 84.4469 35.7314C83.9216 35.0904 83.5335 34.2672 84.0549 34.0497C84.5057 33.8615 84.4018 34.5299 84.5449 35.2825C84.6468 35.8196 85.3739 36.5879 85.3739 36.5879Z" fill="#5C6AC4"/>
</g>
<path d="M80.0839 35.7881C79.588 36.7074 79.1333 37.46 78.8197 37.9461C78.6531 38.0167 78.5119 38.0421 78.4355 37.9755C77.9612 37.5404 77.43 36.8779 76.8342 35.3021C75.8836 32.8148 74.3234 29.0046 74.4077 23.7145C74.4587 20.7432 74.9487 17.9776 75.3015 16.3508C75.8228 15.8765 76.3324 15.3806 76.8283 14.8906H76.8342C76.8342 14.8906 75.5465 21.8192 76.1266 25.2512C77.5417 33.6361 78.314 37.3542 80.0839 35.7881Z" fill="#503E73"/>
<path d="M78.5629 41.0994C77.971 41.4933 77.1125 42.0088 76.7088 41.9226C75.7288 41.7207 75.3191 40.8465 73.4787 38.5514C70.3407 34.6255 70.619 32.6283 69.9958 28.1516C69.643 25.6095 70.0506 21.9815 70.3192 20.1019C71.0326 19.753 71.8205 19.2375 72.6398 18.6162C72.6398 18.6162 71.356 24.5197 71.8715 26.6973C72.387 28.8748 72.9985 35.5369 74.7076 37.6086C76.0012 39.1707 76.1992 40.1311 77.0067 40.2468C77.3497 40.2918 77.9573 39.9038 78.4865 39.4843C78.5159 40.0449 78.5414 40.5858 78.5629 41.1013V41.0994Z" fill="#503E73"/>
<path d="M78.5824 43.7888C78.5667 44.7747 78.5157 45.6528 78.4452 46.4466C77.277 47.9166 75.4777 48.8417 75.0583 48.7104C70.5954 47.2894 66.2402 36.0566 65.3347 32.7011C64.682 30.2903 64.9702 24.9944 65.1779 22.2053C65.8149 22.0387 66.4421 21.8153 66.9968 21.5879C66.7381 23.74 66.6989 26.7015 67.183 30.7254C68.5628 42.1679 74.339 45.9566 75.5424 46.2153C76.3656 46.3917 77.7709 44.8061 78.5804 43.7888H78.5824Z" fill="#503E73"/>
<path d="M78.0317 49.2162C77.9905 49.3887 77.9552 49.5455 77.916 49.7023C77.7788 50.2432 77.5574 50.8293 77.2692 51.4349C76.2834 52.2542 74.8917 53.6772 73.9019 53.5262C72.2222 53.2714 70.9482 50.9841 67.5516 48.983C63.7609 46.7544 60.6171 42.0642 60.1173 39.3966C59.6214 36.729 58.6826 34.1262 58.8942 30.9412C59.0569 28.4892 59.6214 25.3512 59.9193 23.7852C60.4446 23.6029 61.0012 23.4069 61.5775 23.2188C61.4873 25.2552 61.3246 31.2587 62.2341 35.6863C64.3626 46.0861 69.1686 45.8705 72.4476 49.9982C72.9024 50.5745 73.9529 52.3032 75.0603 51.3781C75.8482 50.7215 76.985 49.8767 78.0317 49.2142V49.2162Z" fill="#503E73"/>
<path d="M67.4888 55.7601C67.6652 55.5582 69.7173 53.0063 63.4904 50.8071C56.2031 48.2356 53.5238 43.1769 53.0789 38.4905C52.6947 34.4529 54.5744 27.7321 55.4936 24.7548H55.4995C55.7563 24.7607 56.0248 24.7646 56.2972 24.7646C56.6912 24.7646 57.191 24.6627 57.777 24.4961C56.7813 27.5635 54.6743 34.6646 55.0369 38.4905C55.3407 41.6441 55.2545 46.8401 66.9439 51.4285C70.5072 52.8279 67.7123 55.5464 67.4849 55.7601H67.4888Z" fill="#503E73"/>
<path d="M55.5779 51.2838C53.7434 52.0933 52.8339 54.165 52.4145 55.539C52.3949 55.5449 52.3851 55.5449 52.3851 55.5449C51.6265 55.5645 50.8739 55.5547 50.1311 55.5155C50.3937 54.2317 50.8896 52.4167 51.6971 51.8405C52.9966 50.9153 48.7414 44.5571 47.2655 37.3717C45.7289 29.8865 48.1593 25.9293 50.0095 24.1006C50.7073 24.2731 51.4756 24.4142 52.3282 24.52C47.1793 28.9222 49.1491 34.2377 49.6136 37.2443C50.872 45.3764 55.5779 51.2838 55.5779 51.2838Z" fill="#503E73"/>
<path d="M43.7375 35.8605C44.3588 43.3301 46.9068 48.869 46.9068 48.869C46.9068 48.869 41.509 42.1129 41.115 34.4415C40.8975 30.251 43.6767 25.2785 46.3208 22.7266C46.8265 22.9951 47.3615 23.242 47.9535 23.4635C45.6642 25.3941 43.1769 29.0828 43.7395 35.8605H43.7375Z" fill="#503E73"/>
<path d="M38.0927 36.7189C44.0002 50.5154 38.7905 48.6416 38.7905 48.6416C38.7905 48.6416 40.2664 44.9568 37.8654 40.5958C36.3601 37.8714 34.2413 34.8099 34.4746 31.8621C34.8176 27.5011 36.8344 20.8508 40.7721 19.4043C41.9951 20.0158 43.0104 20.7038 44.0413 21.3702C44.0217 21.38 43.9963 21.3957 43.9708 21.4055C40.3017 23.2302 34.6255 28.632 38.0927 36.7189Z" fill="#503E73"/>
<path d="M35.2782 51.0719C35.0312 50.9347 34.7921 50.7936 34.5608 50.6525H34.555C32.9791 49.0159 30.1626 45.8877 29.4354 43.6945C28.4045 40.5957 30.3704 30.9741 28.8298 28.236C26.4602 24.0161 23.1301 22.3932 21.0466 21.7778C21.8444 21.0506 22.7048 20.4175 23.6044 19.8824C25.7016 20.8683 28.3398 22.3834 29.4315 24.1886C29.3766 23.9906 28.3908 20.7821 26.0819 18.6692C27.1481 18.2556 28.2496 17.9518 29.3668 17.7598C30.8525 19.4081 32.642 22.7832 32.7929 29.5139C32.9184 35.3214 31.3974 37.3774 31.1308 40.2782C30.9035 42.6831 34.163 48.9963 35.2802 51.0739L35.2782 51.0719Z" fill="#503E73"/>
<path d="M22.8558 46.9067C22.5128 47.0223 18.879 48.1944 16.2957 47.4476C15.8214 47.3104 15.3667 47.0635 14.9355 46.7459V46.7401C14.6532 45.2799 14.567 43.3336 14.7689 41.499C15.3863 42.6613 16.8367 44.9349 19.271 46.205C21.1252 47.1654 22.6461 46.938 22.8539 46.9067H22.8558Z" fill="#503E73"/>
<path d="M26.6111 45.3893C26.4347 45.2736 23.528 43.4234 21.6072 40.8813C20.3293 39.1839 17.0835 38.0667 14.9608 37.4905C14.9608 36.9848 15.002 36.4536 15.1372 35.7872C15.1372 35.7814 15.1431 35.7774 15.1431 35.7716C15.1431 35.5854 15.1431 35.3933 15.149 35.1953C17.7107 35.7402 21.3955 36.8731 22.3598 38.935C24.3453 43.1549 26.4484 45.2266 26.6091 45.3893H26.6111Z" fill="#503E73"/>
<path d="M27.3892 40.8785C27.2676 40.7275 25.2978 38.3109 23.377 35.7687C21.9678 33.8989 17.7068 33.1855 15.3822 32.9346C15.4939 32.2623 15.6292 31.6096 15.7918 30.9844C18.136 31.5097 21.6091 32.4799 23.3378 33.9205C26.027 36.1647 27.3362 40.6727 27.3911 40.8785H27.3892Z" fill="#503E73"/>
<path d="M28.1066 34.58C28.1066 34.58 27.2677 32.1653 25.4332 30.9971C21.3858 28.4354 18.3791 28.2884 16.5034 28.6667C17.1561 26.8987 18.0048 25.3562 19.0044 24.0273C21.7445 24.6937 24.4767 26.3715 26.0839 28.5157C28.0243 31.1127 28.1047 34.58 28.1047 34.58H28.1066Z" fill="#503E73"/>
<path d="M64.5431 59.4352C64.2961 60.1016 64.0217 60.8601 63.7454 61.6441C63.3102 61.2148 62.2342 60.1937 61.8246 60.1937C61.3091 60.1937 61.0523 57.6574 59.5 57.7888C58.5102 57.8691 56.7148 58.6276 55.5624 59.1588C55.533 58.5316 55.4918 57.9769 55.4467 57.5006C56.5071 56.6422 58.2868 55.5857 60.0194 56.2835C62.7281 57.3811 61.3934 58.4767 62.9006 58.6943C63.7101 58.8099 64.2354 59.1431 64.5431 59.4371V59.4352Z" fill="#503E73"/>
<path d="M62.7045 64.666C62.5281 65.2011 62.3654 65.7165 62.2145 66.2026C61.2345 65.9047 59.0805 65.2128 58.5905 64.666C58.2122 64.2524 56.8676 64.2759 55.8151 64.372C55.7857 63.7801 55.7602 63.1999 55.7347 62.6393C56.7716 62.3218 58.4591 61.9573 59.2882 62.6452C60.5367 63.6821 62.7045 64.666 62.7045 64.666Z" fill="#503E73"/>
<path d="M61.6225 68.4409C61.6069 68.5311 61.5931 68.6173 61.5814 68.6938C61.5402 68.9878 61.5049 69.27 61.4755 69.5385C60.8444 69.6346 60.0251 69.6346 59.3725 69.2308C58.61 68.7565 57.1185 69.0034 56.0816 69.272C56.062 68.9838 56.0405 68.6957 56.0267 68.4037C57.0832 68.2469 58.6296 68.0862 59.3274 68.3272C59.9801 68.5487 60.9405 68.5134 61.6225 68.4429V68.4409Z" fill="#503E73"/>
<path d="M61.1366 72.9434C61.0661 73.5549 60.9739 74.1664 60.8289 74.8191C60.7779 75.0464 60.7035 75.2934 60.6074 75.5619C60.0508 75.0014 58.8023 74.723 56.0837 75.658C56.0837 75.658 59.1159 72.9649 61.1366 72.9434Z" fill="#503E73"/>
<path d="M56.0836 85.7187C55.5172 85.5972 55.0468 85.3796 54.6587 85.1229C54.8312 84.5114 55.0076 83.8998 55.1546 83.3589C55.1957 83.2217 55.231 83.0806 55.2663 82.9395C55.6857 83.3393 56.2012 83.7235 56.6657 83.7235C57.63 83.7235 58.1455 86.1754 56.0836 85.7187Z" fill="#503E73"/>
<path d="M58.908 79.7253C58.7571 80.1605 58.6199 80.5995 58.518 81.0346C57.7242 80.8327 56.4404 80.4741 55.6015 80.0742C55.6015 79.8057 55.5956 79.5293 55.5819 79.2412C56.3561 79.4882 57.6948 79.8331 58.908 79.7273V79.7253Z" fill="#503E73"/>
<path d="M21.5916 51.9404C21.2172 52.4755 20.7821 53.1086 20.3234 53.7946C19.0906 53.4908 16.8719 52.8087 16.3623 51.7483C15.6547 50.2685 15.6959 49.4434 15.6959 49.4434C15.6959 49.4434 19.365 52.2226 21.5935 51.9404H21.5916Z" fill="#503E73"/>
<path d="M18.6907 56.2977C18.4222 56.7269 18.1556 57.1561 17.9028 57.5756C17.7107 57.4697 17.3932 57.4129 16.8777 57.4442C15.735 57.5109 14.6747 57.6716 13.8809 57.6265C14.0318 56.8073 14.1945 55.8978 14.3513 54.9629C15.0333 55.4333 15.882 55.8782 16.5602 55.7763C17.2775 55.6646 18.087 55.9782 18.6927 56.2977H18.6907Z" fill="#503E73"/>
<path d="M15.9115 61.4909C15.8409 61.7026 15.7958 61.8907 15.7801 62.0475C15.6841 62.9531 15.5528 63.9115 15.3313 64.8719C14.906 63.9017 14.1024 62.4415 12.895 61.7085V61.7026C13.1067 61.1773 13.2949 60.5952 13.436 59.9131C13.4556 59.8229 13.4713 59.7308 13.4909 59.6309C14.1122 60.015 15.149 60.703 15.9115 61.4909Z" fill="#503E73"/>
<path d="M11.5153 70.3306C11.0703 72.2161 10.1256 71.9574 10.1256 71.9574C10.1256 71.9574 11.2173 70.8304 10.2315 69.6936C10.4902 68.9664 10.7273 68.2785 10.9096 67.6768C11.3447 68.3588 11.7544 69.3251 11.5153 70.3306Z" fill="#503E73"/>
<path d="M11.2526 74.1865C11.1115 74.7882 10.9802 75.3998 10.8626 75.9917C10.5294 76.321 10.2099 76.5875 9.97272 76.7345C9.51212 77.0128 8.47724 76.7149 7.62268 76.3817C7.74812 76.0779 7.91668 75.6742 8.10876 75.1998C8.24008 75.3116 8.391 75.437 8.5576 75.5742C9.41608 76.2916 10.3863 75.0881 11.2506 74.1904L11.2526 74.1865Z" fill="#503E73"/>
<path d="M13.8789 68.441C14.0357 66.3595 12.5344 65.1855 12.5344 65.1855C12.5344 65.1855 12.944 64.6034 13.5849 65.1855C13.9024 65.4677 14.3023 66.287 14.6218 67.0455C14.414 67.5257 14.167 67.9863 13.8789 68.441Z" fill="#503E73"/>
<g style="mix-blend-mode:multiply" opacity="0.5">
<path d="M30.8153 47.9476C30.8153 47.9476 30.1783 47.5987 29.1885 47.4321C26.6111 45.1036 26.0427 40.6956 26.129 38.473C26.2505 35.2546 28.7534 29.7627 30 28.3652C24.8334 37.9144 26.6111 45.7504 30.8173 47.9476H30.8153Z" fill="#A396BD"/>
</g>
<g style="mix-blend-mode:multiply" opacity="0.5">
<path d="M76.5245 43.0361C76.4089 43.5771 74.8663 51.9345 74.1588 53.9357C73.7491 55.0823 72.4026 56.9502 70.9816 57.6264C70.6386 57.7518 70.2839 57.8479 69.9311 57.9086C69.3705 58.0105 68.6531 58.1262 67.8887 58.1811C72.0479 57.1501 72.8299 55.2215 73.7511 52.9028C74.7879 50.2842 76.3991 43.4752 76.5245 43.0361Z" fill="#BBACD9"/>
</g>
<g style="mix-blend-mode:multiply" opacity="0.5">
<path d="M57.2458 69.1944C57.1439 70.878 56.0522 71.9893 56.0287 73.5808C55.9993 75.5114 56.7068 77.5636 56.7421 78.9689C56.8088 81.5522 55.4838 84.6098 55.2917 87.1656C55.1604 88.863 57.1008 90.8798 56.8382 92.1283C56.5912 93.3102 56.5559 94.3157 56.6363 95.1506C56.0306 95.1702 55.6053 95.1663 55.6053 95.1663C55.6053 95.1663 56.4442 91.8402 55.8033 91.6834C54.6155 91.3855 54.0589 89.3588 53.9335 88.667C53.8374 88.177 54.2372 86.6403 54.6606 85.1252C54.8331 84.5137 55.0095 83.9022 55.1565 83.3612C55.1976 83.224 55.2329 83.0829 55.2682 82.9418C55.4799 82.0735 55.6014 81.1621 55.6073 80.0763C55.6073 79.8078 55.6014 79.5314 55.5877 79.2433C55.5465 78.3338 55.425 77.297 55.2231 76.07C54.641 72.5871 56.1286 69.8784 56.1286 69.8784C56.113 69.6765 56.0992 69.4746 56.0875 69.2728C56.0679 68.9846 56.0463 68.6965 56.0326 68.4045C55.9464 67.056 55.8817 65.686 55.8209 64.3767C55.7915 63.7848 55.7661 63.2046 55.7406 62.644C55.6857 61.3602 55.6347 60.1725 55.5681 59.1611C55.5387 58.5339 55.4975 57.9792 55.4525 57.503C55.3662 56.5778 55.2604 55.9761 55.1192 55.835C54.6194 55.3293 52.6928 55.5175 52.4203 55.541C52.4007 55.5469 52.3909 55.5469 52.3909 55.5469C51.6324 55.5665 50.8798 55.5567 50.1369 55.5175C44.4059 55.2235 39.1139 53.238 35.284 51.0761C35.0371 50.9389 34.798 50.7978 34.5667 50.6567H34.5608C33.0144 49.7316 31.7404 48.7927 30.8211 47.9538C30.8211 47.9538 30.1841 47.605 29.1943 47.4384C27.5675 47.1561 24.9941 47.3423 22.7518 50.3098C22.7518 50.3098 22.4539 50.7194 21.9894 51.3917C21.8679 51.5642 21.7365 51.7445 21.5993 51.9483C21.225 52.4834 20.7899 53.1165 20.3312 53.8025C19.8059 54.5904 19.2395 55.445 18.6985 56.3034C18.43 56.7327 18.1635 57.1619 17.9106 57.5814C16.9855 59.1121 16.2172 60.5527 15.9193 61.4974C15.8487 61.7091 15.8036 61.8973 15.7879 62.0541C15.6919 62.9596 15.5606 63.918 15.3391 64.8784C15.1666 65.6115 14.9393 66.3445 14.6315 67.0521C14.4238 67.5323 14.1768 67.9929 13.8887 68.4476C13.8887 68.4476 13.8887 68.4535 13.8828 68.4574C13.6496 68.8318 13.3771 69.1944 13.0733 69.5393C12.3246 70.3939 11.719 72.2422 11.2584 74.1943C11.1173 74.796 10.9859 75.4076 10.8683 75.9995C10.4038 78.4358 10.1706 80.5722 10.1706 80.5722C10.1706 80.5722 9.00829 81.9873 9.00829 82.8928C9.00829 83.7983 7.97733 86.315 8.68489 87.4772C8.68489 87.4772 8.53789 87.6438 8.28505 87.8359C8.05769 86.9618 7.76369 85.9465 7.84993 84.794C7.95185 83.3946 8.92205 81.362 9.61393 80.1449C10.1294 79.2511 10.443 75.0508 11.2564 72.25C11.9993 69.702 13.6261 68.1203 14.41 65.3567C15.1372 62.7597 15.2744 61.0506 16.2897 58.3418C17.9224 53.9848 21.4151 50.4881 23.1634 46.9856C25.1097 43.0989 25.2665 39.4161 26.125 39.0006C27.3931 38.389 31.0171 44.8335 35.9485 48.3498C38.0868 49.8766 48.9256 53.4497 52.2067 53.5457C53.0808 53.5712 56.2286 53.9848 57.2498 55.5626C57.3713 55.7488 57.628 62.7126 57.2498 69.2022L57.2458 69.1944Z" fill="#BBACD9"/>
</g>
<g style="mix-blend-mode:screen" opacity="0.28">
<path d="M44.7019 21.7898C44.3883 21.9368 43.9845 22.0485 43.4691 22.1073C39.1277 22.6228 39.8156 19.4397 32.8067 19.4044C25.7918 19.3692 22.305 23.0128 19.8177 25.8078C17.1188 28.8301 15.1079 39.0691 14.9707 39.7865C15.0255 38.877 14.955 38.2146 14.9609 37.4913C14.9609 36.9856 15.002 36.4545 15.1373 35.7881C15.1373 35.7822 15.1431 35.7783 15.1431 35.7724C15.1431 35.5862 15.1431 35.3941 15.149 35.1962C15.1647 34.5846 15.2255 33.9378 15.3313 33.2362C15.347 33.1342 15.3607 33.0343 15.3823 32.9324C15.494 32.2601 15.6292 31.6074 15.7919 30.9822C15.9899 30.1727 16.227 29.4004 16.5053 28.6674C17.158 26.8995 18.0067 25.357 19.0063 24.0281C19.6335 23.1951 20.3156 22.4464 21.0486 21.7741C21.8463 21.0469 22.7068 20.4138 23.6064 19.8788C24.4002 19.3986 25.2293 18.9987 26.0819 18.6655C27.1481 18.252 28.2497 17.9482 29.3669 17.7561C31.6267 17.3621 33.9513 17.4072 36.1739 17.8521C38.0791 18.2363 39.5353 18.7812 40.7721 19.4044C41.9951 20.016 43.0104 20.7039 44.0414 21.3703C44.2589 21.5114 44.4804 21.6526 44.7039 21.7898H44.7019Z" fill="#F7F2FF"/>
</g>
<path d="M81.5006 11.7425H81.4967C81.3262 11.8385 81.14 11.8993 80.9283 11.9189C80.2051 11.9855 77.171 10.5175 77.1494 7.90285C77.1377 6.34073 77.5101 5.24313 77.5944 3.75353C77.6022 3.60457 77.759 3.50853 77.8962 3.57125C78.4607 3.82997 79.7327 4.48265 80.8166 5.52145C81.9044 6.56613 82.8021 7.99889 82.5963 9.81973C82.5238 10.4783 82.1729 11.3603 81.5006 11.7405V11.7425Z" fill="#E6E1ED"/>
<path d="M81.3359 11.3525C81.3104 11.3663 80.8596 11.5779 79.8071 11.1605C79.5935 11.0762 79.3583 10.9645 79.0956 10.8233C77.1219 9.75514 77.2865 7.85002 77.4237 6.11542C77.4884 5.30398 77.6825 4.8081 77.7903 4.59642C77.8608 4.45922 77.9627 4.34554 78.1019 4.41218C78.3861 4.54546 78.6977 4.88846 79.1093 5.23342C79.7816 5.79202 80.4147 6.6505 80.3226 7.86374C80.0854 11.0233 81.2928 11.3408 81.3339 11.3525H81.3359Z" fill="#ED8296"/>
<path d="M81.3358 11.3525C81.3103 11.3662 80.8595 11.5779 79.807 11.1604C79.7149 11.0468 79.6443 10.9252 79.6287 10.8037C79.5601 10.3098 79.7796 9.67084 79.9011 7.83824C79.9736 6.77984 79.5111 5.83708 79.1093 5.2334C79.7815 5.792 80.4146 6.65048 80.3225 7.86372C80.0853 11.0232 81.2927 11.3408 81.3339 11.3525H81.3358Z" fill="#ED5572"/>
<g style="mix-blend-mode:multiply">
<path d="M81.5005 11.7425H81.4965C82.0453 11.1369 82.2472 9.93932 82.161 8.59084C82.0885 7.48344 81.4377 6.329 80.8145 5.52148C81.9023 6.56616 82.7999 7.99892 82.5941 9.81976C82.5216 10.4783 82.1708 11.3603 81.4985 11.7406L81.5005 11.7425Z" fill="#E6E1ED"/>
</g>
<path d="M94.907 7.90288C94.8874 10.5214 91.8494 11.9856 91.1262 11.9209C90.9792 11.9052 90.844 11.8699 90.7166 11.819C90.6617 11.7994 90.6107 11.7739 90.5598 11.7425H90.5539C89.8816 11.3642 89.5327 10.4783 89.4622 9.82172C89.2544 8.00284 90.154 6.56616 91.2418 5.52148C92.3238 4.48464 93.5978 3.83392 94.1623 3.57128C94.2681 3.5262 94.3896 3.57128 94.4347 3.66732C94.4504 3.6928 94.4602 3.7222 94.4602 3.75356C94.5464 5.24512 94.9208 6.34076 94.9051 7.90288H94.907Z" fill="#E6E1ED"/>
<g style="mix-blend-mode:multiply">
<path d="M94.907 7.90255C94.8874 10.5211 91.8494 11.9852 91.1262 11.9206C90.9792 11.9049 90.844 11.8696 90.7166 11.8186L90.4892 11.2934C90.4892 11.2934 90.9341 11.5266 91.626 11.2934C92.3179 11.0601 94.5111 9.00407 94.4974 8.03387C94.4817 7.06955 94.027 4.47647 94.027 4.47647C94.027 4.47647 94.2955 4.27851 94.4366 3.67287V3.66699C94.4523 3.69247 94.4621 3.72187 94.4621 3.75323C94.5484 5.24479 94.9227 6.34043 94.907 7.90255Z" fill="#E6E1ED"/>
</g>
<path d="M90.7186 11.3525C90.744 11.3663 91.1948 11.5779 92.2474 11.1605C92.461 11.0762 92.6962 10.9645 92.9588 10.8233C94.9326 9.75514 94.7679 7.85002 94.6307 6.11542C94.566 5.30398 94.372 4.8081 94.2642 4.59642C94.1936 4.45922 94.0917 4.34554 93.9526 4.41218C93.6684 4.54546 93.3567 4.88846 92.9451 5.23342C92.2728 5.79202 91.6398 6.6505 91.7319 7.86374C91.969 11.0233 90.7617 11.3408 90.7205 11.3525H90.7186Z" fill="#ED8296"/>
<path d="M90.7186 11.3525C90.744 11.3662 91.1948 11.5779 92.2474 11.1604C92.3395 11.0468 92.41 10.9252 92.4257 10.8037C92.4943 10.3098 92.2748 9.67084 92.1533 7.83824C92.0808 6.77984 92.5433 5.83708 92.9451 5.2334C92.2728 5.792 91.6398 6.65048 91.7319 7.86372C91.969 11.0232 90.7617 11.3408 90.7205 11.3525H90.7186Z" fill="#ED5572"/>
<g style="mix-blend-mode:multiply">
<path d="M90.556 11.7425H90.5599C90.0111 11.1369 89.8092 9.93932 89.8955 8.59084C89.968 7.48344 90.6187 6.329 91.242 5.52148C90.1542 6.56616 89.2565 7.99892 89.4623 9.81976C89.5348 10.4783 89.8857 11.3603 90.558 11.7406L90.556 11.7425Z" fill="#E6E1ED"/>
</g>
<path d="M93.143 23.069V23.1807C93.1332 23.4277 93.1332 23.6805 93.1332 23.9294C93.1274 24.4743 93.1274 25.0055 93.0568 25.4955C93.0215 25.7483 92.9608 25.9913 92.8706 26.2089C92.8412 26.2853 92.804 26.3559 92.7687 26.4265C92.7275 26.5029 92.6824 26.5735 92.6374 26.644C92.5923 26.7146 92.5354 26.7753 92.4747 26.842C91.1105 28.2728 89.7503 32.0321 89.8267 32.82C89.8267 32.8357 89.8326 32.8553 89.8326 32.8709C89.8483 32.9964 89.8581 33.1179 89.8738 33.2453C89.909 33.5275 89.9502 33.8157 89.9855 34.0999C90.0619 34.6565 90.1325 35.1975 90.158 35.6561C90.1638 35.6718 90.1638 35.6855 90.1638 35.7012C90.1795 35.954 90.1795 36.1755 90.154 36.3676C90.1482 36.4185 90.1384 36.4636 90.1246 36.5087C90.1246 36.5185 90.1246 36.5283 90.1188 36.5381C90.109 36.5734 90.0933 36.6145 90.0776 36.6537C90.0619 36.6988 90.0423 36.74 90.0227 36.7851C90.0031 36.8301 89.9776 36.8752 89.9463 36.9223C89.9463 36.9281 89.9463 36.9321 89.9404 36.9379C89.9149 36.9791 89.8894 37.0183 89.86 37.0595C89.8346 37.1045 89.8052 37.1496 89.7738 37.1967C89.7444 37.2417 89.713 37.2868 89.6778 37.3339C89.6582 37.3593 89.6425 37.3789 89.6268 37.4005C89.6072 37.426 89.5856 37.4456 89.5719 37.4711C89.5053 37.5612 89.4347 37.6533 89.37 37.7435C89.2995 37.8337 89.2328 37.9258 89.1682 38.0159C89.1329 38.0669 89.1015 38.1179 89.0721 38.1727C89.0427 38.2178 89.0114 38.2688 88.9859 38.3197C88.9761 38.3354 88.9702 38.355 88.9604 38.3707C88.9408 38.4119 88.9192 38.4471 88.9055 38.4863C88.8957 38.5118 88.8898 38.5314 88.88 38.553V38.5628C88.88 38.5628 88.8742 38.5628 88.8742 38.5687L88.8683 38.5745C88.8624 38.5843 88.8624 38.5941 88.8624 38.6C88.8526 38.6255 88.8467 38.6549 88.8428 38.6804C88.8389 38.7059 88.833 38.7313 88.8271 38.7568C88.8173 38.8117 88.8114 38.8685 88.7977 38.9332C88.7879 38.9783 88.7781 39.0234 88.7683 39.0743V39.09C88.7624 39.1155 88.7526 39.1449 88.7487 39.1704C88.7448 39.1959 88.733 39.2213 88.7232 39.2507C88.7232 39.2703 88.7134 39.2919 88.7076 39.3115C88.6978 39.3468 88.688 39.3879 88.6723 39.4271C88.6527 39.482 88.6311 39.5428 88.6056 39.5996V39.6055C88.5998 39.6153 88.5958 39.6212 88.59 39.631C88.5841 39.6467 88.5802 39.6604 88.5743 39.6721C88.5547 39.7231 88.5292 39.7741 88.5037 39.8231C88.4782 39.8681 88.4528 39.9191 88.4175 39.9642C88.4116 39.9701 88.4116 39.974 88.4077 39.9799C88.3881 40.0151 88.3665 40.0465 88.341 40.0818C88.3214 40.1112 88.2999 40.1367 88.2803 40.168C88.2097 40.2582 88.1333 40.3503 88.0431 40.4365C88.0274 40.4522 88.0078 40.4659 87.9922 40.4875C87.9824 40.4934 87.9726 40.5032 87.9628 40.513C87.9471 40.5228 87.9275 40.5385 87.9118 40.5483C87.8216 40.6247 87.7138 40.6953 87.6041 40.756C87.5943 40.7619 87.5845 40.7658 87.5747 40.7717C87.4336 40.8481 87.2768 40.9128 87.1043 40.9579C87.0533 40.9775 87.0024 40.9873 86.9475 40.9991C86.9122 41.0089 86.8769 41.0187 86.8358 41.0245C86.8299 41.0245 86.826 41.0304 86.8201 41.0304C86.7946 41.0363 86.775 41.0402 86.7495 41.0402C86.7142 41.0461 86.6731 41.05 86.6339 41.0559C86.6045 41.0618 86.5731 41.0657 86.5437 41.0657C86.5339 41.0716 86.5241 41.0716 86.5143 41.0716C86.4732 41.0775 86.434 41.0775 86.3928 41.0775C86.3575 41.0833 86.3222 41.0833 86.287 41.0833C86.2458 41.0892 86.2007 41.0892 86.1615 41.0892H85.8989C85.8479 41.0892 85.797 41.0892 85.7519 41.0833C85.7225 41.0833 85.6852 41.0833 85.6558 41.0775C85.65 41.0833 85.646 41.0833 85.6402 41.0775C85.6245 41.0775 85.6049 41.0775 85.5892 41.0716C85.5696 41.0716 85.5441 41.0716 85.5186 41.0657C85.4579 41.0598 85.403 41.0559 85.3422 41.0461C85.3266 41.0461 85.3168 41.0461 85.307 41.0402C85.2913 41.0402 85.2815 41.0343 85.2717 41.0343C85.2619 41.0343 85.2521 41.0285 85.2462 41.0285C85.2207 41.0226 85.1952 41.0187 85.1756 41.0128C85.1404 41.0069 85.109 41.003 85.0737 40.9932C85.0639 40.9873 85.0482 40.9873 85.0384 40.9834H85.0326C85.0326 40.9834 85.0267 40.9834 85.0228 40.9775C85.0071 40.9775 84.9973 40.9716 84.9816 40.9677C84.9404 40.9579 84.9052 40.9481 84.8699 40.9324C84.8542 40.9324 84.8405 40.9265 84.8248 40.9167C84.7895 40.9069 84.7542 40.8971 84.7229 40.8815C84.6974 40.8717 84.6778 40.8658 84.6523 40.8521C84.6327 40.8462 84.6112 40.8364 84.5916 40.8266C84.5563 40.8109 84.5249 40.7972 84.4955 40.7815C84.47 40.7658 84.4446 40.756 84.4191 40.7364C84.4034 40.7305 84.3936 40.7266 84.3838 40.7168C84.374 40.7109 84.3642 40.707 84.3485 40.6972V40.6913L84.3426 40.6855C84.2878 40.6561 84.2368 40.6188 84.1858 40.5796C84.1094 40.5287 84.0388 40.4679 83.9781 40.4032C83.9683 40.3934 83.9526 40.3836 83.9428 40.3679C83.9271 40.3581 83.9173 40.3425 83.9134 40.3327C83.884 40.3033 83.8526 40.266 83.8272 40.2307C83.8076 40.2151 83.7919 40.1955 83.7821 40.1798C83.7468 40.1347 83.7154 40.0896 83.686 40.0426C83.6802 40.0328 83.6704 40.023 83.6664 40.0132C83.6508 39.9877 83.637 39.9622 83.6214 39.9367C83.6018 39.9073 83.5861 39.876 83.5763 39.8466C83.5469 39.7917 83.5155 39.7349 83.49 39.6741C83.4802 39.6584 83.4704 39.6388 83.4646 39.6192C83.4587 39.6035 83.4548 39.5898 83.4489 39.5741H83.443C83.4175 39.5193 83.3979 39.4624 83.3822 39.4075V39.3977C83.3822 39.3977 83.3724 39.3821 83.3724 39.3781C83.3666 39.3585 83.3626 39.3429 83.3568 39.3272C83.347 39.2919 83.3372 39.2605 83.3274 39.2253C83.3117 39.1743 83.3019 39.1233 83.2921 39.0783V39.0587C83.2823 39.0077 83.2725 38.9567 83.2627 38.9117V38.9019C83.2529 38.8509 83.2431 38.8058 83.2372 38.7607C83.2372 38.7451 83.2313 38.7255 83.2274 38.7157V38.7059C83.2215 38.6804 83.2176 38.6608 83.2117 38.6353V38.6255C83.2117 38.6255 83.2058 38.6196 83.2058 38.6157C83.2 38.5902 83.1902 38.5745 83.1862 38.5647V38.5589C83.1706 38.5177 83.1568 38.4726 83.1314 38.4275C83.1157 38.3923 83.102 38.357 83.0804 38.3256C83.051 38.2707 83.0138 38.2139 82.9785 38.159C82.953 38.1081 82.9275 38.0689 82.8981 38.0218C82.8315 37.9317 82.7668 37.8395 82.6962 37.7494C82.661 37.7043 82.6296 37.6592 82.5904 37.6122C82.5238 37.522 82.4532 37.4299 82.3885 37.3397C82.3532 37.2947 82.3219 37.2496 82.2925 37.2025C82.2317 37.1163 82.1768 37.0301 82.1259 36.9438C82.0965 36.8929 82.071 36.8419 82.0455 36.7929C82.0259 36.7478 82.0044 36.7067 81.9906 36.6616C81.975 36.6204 81.9612 36.5812 81.9495 36.5459C81.9338 36.4911 81.9201 36.4342 81.9142 36.3735C81.8887 36.1814 81.8887 35.9599 81.9044 35.7071C81.9044 35.6561 81.9103 35.6051 81.9142 35.5561C81.9554 34.878 82.0906 34.0509 82.1925 33.2512C82.2082 33.1257 82.218 33.0042 82.2337 32.8768V32.8709C82.2337 32.8553 82.2396 32.8415 82.2396 32.8259C82.316 32.0379 80.9558 28.2767 79.5916 26.8479C79.5622 26.8185 79.5308 26.7871 79.5054 26.7518C79.4799 26.7224 79.4505 26.6911 79.4289 26.6558C79.3838 26.5891 79.3388 26.5186 79.3035 26.448C79.2133 26.2814 79.1408 26.0991 79.0918 25.9071C79.0565 25.7757 79.031 25.6385 79.0056 25.5033C78.9703 25.2563 78.9546 24.9976 78.9448 24.735V24.7252C78.935 24.4625 78.9291 24.194 78.9291 23.9216V23.7099C78.935 23.5374 78.9291 23.361 78.9232 23.1885C78.9232 23.1474 78.9174 23.1023 78.9174 23.0631C78.8919 22.2046 78.9115 21.5578 78.9585 21.0717V21.0659C78.9644 21.0051 78.9683 20.9502 78.9742 20.8934C78.9742 20.8934 78.9742 20.8914 78.9742 20.8875C78.9938 20.7248 79.0154 20.5798 79.035 20.4524C79.0408 20.4073 79.0448 20.372 79.0546 20.3309C79.0702 20.2544 79.084 20.1897 79.0996 20.129C79.1094 20.0996 79.1153 20.0682 79.1251 20.0427C79.1408 19.9761 79.1604 19.9271 79.1761 19.8801C79.1957 19.8252 79.2114 19.784 79.231 19.7546C79.2466 19.7291 79.2564 19.7135 79.2604 19.6997C79.2662 19.6899 79.2662 19.6841 79.2702 19.6841C79.2741 19.6841 79.276 19.6782 79.276 19.6782L79.2819 19.6723C79.18 19.1117 79.1859 18.7021 79.2408 18.3532V18.3375C79.2506 18.2768 79.2604 18.2219 79.276 18.1651C79.2858 18.1102 79.3015 18.0533 79.3172 17.9985C79.327 17.9436 79.3427 17.8867 79.3623 17.8319C79.4289 17.6143 79.5034 17.3967 79.574 17.1537C79.5798 17.1341 79.5838 17.1086 79.5896 17.0831C79.5955 17.0479 79.6053 17.0165 79.6151 16.9812C79.6249 16.9518 79.6347 16.9205 79.6406 16.8852V16.8793C79.6661 16.7833 79.6857 16.6872 79.7014 16.5814C79.7974 15.964 79.7366 15.1604 79.6661 14.4744C79.6465 14.2666 79.6504 14.0706 79.672 13.8825C79.7014 13.6198 79.7778 13.3768 79.8738 13.1455C80.0561 12.7104 80.3286 12.3321 80.6108 11.9891H80.6167C80.6363 11.9597 80.6618 11.9283 80.6872 11.9029C80.7774 11.7774 80.8852 11.6598 80.9812 11.5442C81.0165 11.4991 81.0518 11.4579 81.0871 11.4129V11.407C81.1224 11.3658 81.1537 11.3266 81.189 11.2855C81.2243 11.2404 81.2596 11.1894 81.2909 11.1443C81.336 11.0777 81.3811 11.013 81.4164 10.9464C81.4575 10.8797 81.4928 10.8151 81.5222 10.7484C81.5477 10.7073 81.5634 10.6622 81.5732 10.623C81.5928 10.5818 81.6026 10.5367 81.6143 10.4975C81.6908 10.1487 81.777 9.82526 81.8672 9.52734C81.8868 9.4509 81.9122 9.37054 81.9377 9.29998C81.9671 9.20982 81.9985 9.1177 82.0279 9.03146C82.0279 9.02558 82.0338 9.02166 82.0338 9.01578C82.0592 8.9707 82.069 8.92562 82.0886 8.87858C82.1141 8.81194 82.1396 8.75314 82.169 8.6865V8.6767C82.2102 8.56498 82.2552 8.46502 82.3062 8.3631C82.3317 8.31802 82.3513 8.26706 82.3768 8.2161C82.4022 8.16514 82.4277 8.12006 82.4532 8.07498C82.5081 7.96326 82.5649 7.85742 82.6257 7.75746L82.6316 7.75158C82.6316 7.75158 82.6316 7.7457 82.6374 7.74178C84.0526 5.32706 86.038 5.37606 86.038 5.37606C86.038 5.37606 88.0235 5.3251 89.4386 7.74178C89.4994 7.8437 89.5602 7.95346 89.6209 8.06518C89.6621 8.14162 89.6974 8.22198 89.7326 8.30234C89.7777 8.39838 89.8228 8.50422 89.8698 8.61006C89.8796 8.62966 89.8894 8.65122 89.8992 8.6767C89.909 8.70218 89.9188 8.72766 89.9286 8.75706C89.9345 8.76686 89.9384 8.77274 89.9384 8.78254C89.9737 8.86878 90.009 8.95502 90.0404 9.04518C90.0698 9.12554 90.1011 9.21178 90.1266 9.29802C90.156 9.37446 90.1815 9.45482 90.203 9.53518C90.2226 9.59594 90.2442 9.6567 90.2579 9.71746C90.2932 9.8331 90.3246 9.9507 90.354 10.0703C90.3951 10.2075 90.4304 10.3486 90.4598 10.4956C90.4696 10.5407 90.4853 10.5916 90.501 10.6426C90.5166 10.6935 90.5362 10.7386 90.5617 10.7896C90.5872 10.8347 90.6127 10.8856 90.6421 10.9366C90.6715 10.9875 90.7028 11.0326 90.7381 11.0836C90.7832 11.1502 90.8342 11.2149 90.8851 11.2815C90.9106 11.3168 90.94 11.358 90.9655 11.3933L90.9714 11.3991C90.9714 11.3991 90.9772 11.4089 90.9812 11.4148H90.987C91.0223 11.4599 91.0576 11.5011 91.0929 11.5461C91.1889 11.6618 91.2908 11.7794 91.3869 11.9048C91.3928 11.9107 91.3967 11.9146 91.4026 11.9205C91.6711 12.238 91.9337 12.5869 92.1258 12.9769L92.1513 13.0377C92.2767 13.3003 92.3688 13.5826 92.4041 13.8864C92.4237 14.0726 92.4296 14.2705 92.41 14.4783C92.3394 15.1663 92.2787 15.9699 92.3747 16.5853C92.3904 16.6813 92.4041 16.7676 92.4257 16.8479C92.4257 16.8636 92.4316 16.8734 92.4355 16.8891V16.895C92.4414 16.9244 92.4512 16.9557 92.461 16.9851V16.991C92.4668 17.0165 92.4766 17.0459 92.4806 17.0773C92.4845 17.1086 92.4904 17.1321 92.5002 17.1576C92.5296 17.2791 92.5668 17.3948 92.606 17.5065C92.6256 17.5771 92.6511 17.6476 92.6726 17.7143C92.6883 17.7554 92.702 17.7946 92.7138 17.8358C92.7236 17.8613 92.7334 17.8907 92.7334 17.9161C92.7589 18.0024 92.7785 18.0827 92.8 18.169C92.8157 18.2239 92.8255 18.2846 92.8353 18.3454C92.8902 18.6982 92.8961 19.1078 92.7942 19.6743V19.6801C92.804 19.6958 92.8451 19.7566 92.8902 19.882C92.8961 19.8977 92.9 19.9114 92.9059 19.9271C92.9255 19.9781 92.947 20.0388 92.9666 20.1133C92.9666 20.129 92.9725 20.1486 92.9764 20.1682C92.9862 20.2133 93.0019 20.2642 93.0117 20.325C93.0411 20.4759 93.0725 20.6582 93.098 20.8816C93.1038 20.9365 93.1078 20.9875 93.1136 21.0482C93.1136 21.0678 93.1195 21.0933 93.1195 21.1149C93.1254 21.1305 93.1254 21.1501 93.1293 21.1697C93.1705 21.6441 93.1842 22.2673 93.1548 23.0749L93.143 23.069Z" fill="#E6E1ED"/>
<path opacity="0.8" d="M84.4642 24.1962C84.4191 24.1061 84.1408 23.6043 83.4842 23.079V23.0732C83.0706 22.74 82.5042 22.3911 81.7515 22.1226C80.599 21.7129 79.4309 21.8286 78.9566 21.0622V21.0563L78.9507 21.0504C78.9566 20.9897 78.9605 20.9348 78.9703 20.8838C78.9703 20.8838 78.9703 20.8819 78.9703 20.878C78.986 20.7114 79.0056 20.5644 79.031 20.4428C79.0369 20.3978 79.0408 20.3625 79.0506 20.3213C79.0663 20.2449 79.08 20.1802 79.0957 20.1194C79.1016 20.09 79.1114 20.0587 79.1153 20.0332H79.1212C79.1212 20.0332 79.7386 20.827 81.7496 21.2856C82.1239 21.3719 82.4512 21.5228 82.7394 21.7208C82.7394 21.7208 82.7452 21.7208 82.7492 21.7266C83.0118 21.903 83.245 22.1206 83.441 22.348C84.129 23.1359 84.4308 24.0708 84.4622 24.1923L84.4642 24.1962Z" fill="#503E73"/>
<path opacity="0.8" d="M84.4799 24.9677C84.4035 24.9971 84.1271 25.148 83.5391 24.7893C83.0432 24.4816 82.3416 24.1974 81.4066 24.1229C80.5619 24.0524 79.5819 24.0465 78.9253 23.9112V23.6996C78.9253 23.5271 78.9194 23.3507 78.9155 23.1782C78.9155 23.1331 78.9096 23.092 78.9096 23.0469L78.9155 23.0528C79.3545 23.1547 79.9974 23.2448 80.9421 23.2958C82.1456 23.3566 82.9786 23.8211 83.5293 24.3072V24.313C84.1761 24.8893 84.4446 24.8697 84.4799 24.9716V24.9677Z" fill="#503E73"/>
<path opacity="0.8" d="M84.3663 26.0342C84.2997 25.9833 84.086 26.5301 83.549 26.3439C82.9884 26.142 82.175 25.9754 81.1284 26.0715C80.4463 26.1322 79.8407 26.3498 79.2997 26.44H79.2938C79.2037 26.2734 79.137 26.0911 79.0861 25.899C79.0508 25.7677 79.0253 25.6305 78.9998 25.4952C79.4487 25.5109 80.0367 25.4698 80.7736 25.313C81.8712 25.0797 82.8649 25.5462 83.549 26.0205C84.0547 26.3694 84.2899 25.948 84.3663 26.0342Z" fill="#503E73"/>
<path opacity="0.8" d="M93.1176 21.1619C93.1176 21.1619 93.1118 21.1678 93.1118 21.1717C92.5904 21.8185 91.485 21.7323 90.3932 22.1223C89.6406 22.3908 89.0742 22.7397 88.6606 23.0729V23.0788C88.6312 23.1043 88.5998 23.1297 88.5704 23.1591C87.9785 23.6491 87.7257 24.1097 87.6806 24.196C87.71 24.0803 87.9844 23.2356 88.5998 22.4771C88.6292 22.4359 88.6665 22.3908 88.7018 22.3516C88.8997 22.1243 89.131 21.9067 89.3936 21.7303C89.3995 21.7244 89.4034 21.7244 89.4034 21.7244C89.6916 21.5265 90.0208 21.3755 90.3932 21.2893C92.0416 20.911 92.7531 20.3093 92.955 20.1074C92.955 20.1231 92.9608 20.1427 92.9648 20.1623C92.9746 20.2074 92.9902 20.2583 93 20.3191C93.0294 20.47 93.0608 20.6523 93.0863 20.8757C93.0922 20.9306 93.0961 20.9816 93.102 21.0423C93.102 21.0619 93.1078 21.0874 93.1078 21.109C93.1137 21.1247 93.1137 21.1443 93.1176 21.1639V21.1619Z" fill="#503E73"/>
<path opacity="0.8" d="M93.1431 23.0732V23.1791C93.1333 23.426 93.1333 23.6789 93.1333 23.9278H93.1274C92.4747 24.0493 91.5398 24.0591 90.7362 24.1258C89.8013 24.2022 89.0996 24.4844 88.6037 24.7922C88.5743 24.8118 88.5429 24.8333 88.5135 24.8529C87.9883 25.192 87.7531 25.0136 87.6649 24.9705C87.7001 24.8745 87.9432 24.949 88.5233 24.4041C88.5527 24.3688 88.5841 24.3374 88.6135 24.3139V24.308C89.1643 23.822 89.9973 23.3574 91.2007 23.2967C92.0807 23.2516 92.7021 23.1654 93.1372 23.0752H93.1431V23.0732Z" fill="#503E73"/>
<path opacity="0.8" d="M93.0568 25.4933C93.0215 25.7461 92.9608 25.9892 92.8706 26.2067C92.8412 26.2832 92.804 26.3537 92.7687 26.4243C92.2473 26.3283 91.6672 26.1264 91.0145 26.0715C89.9679 25.9755 89.1545 26.1421 88.5939 26.3439C88.5645 26.3537 88.5331 26.3635 88.5037 26.3792C88.0235 26.5556 87.8471 26.1185 87.7864 26.1636C87.8569 26.0833 88.0471 26.4086 88.5037 26.0852C88.5331 26.0656 88.5645 26.0401 88.5939 26.0186C89.276 25.5443 90.2717 25.0778 91.3693 25.311C92.0572 25.458 92.6119 25.5031 93.047 25.4972C93.0529 25.4972 93.0568 25.4972 93.0568 25.4913V25.4933Z" fill="#503E73"/>
<g style="mix-blend-mode:multiply" opacity="0.58">
<path d="M83.5508 26.0192V26.3426C83.5351 28.673 83.394 30.8564 83.1313 32.2206C82.9941 32.9125 82.657 33.2163 82.1905 33.2418H82.1846C82.2003 33.1163 82.2101 32.9948 82.2258 32.8674C82.2258 32.8517 82.2317 32.8321 82.2317 32.8164C82.3081 32.0285 80.9479 28.2673 79.5837 26.8384C79.5583 26.809 79.5289 26.7777 79.5034 26.7424C79.4779 26.713 79.4485 26.6816 79.4269 26.6464C79.376 26.5797 79.3368 26.5092 79.2956 26.4386C79.2055 26.272 79.1388 26.0897 79.0879 25.8976C79.0526 25.7663 79.0271 25.6291 79.0016 25.4939C78.9311 24.998 78.931 24.4629 78.9252 23.9122V23.7005C78.9252 23.528 78.9193 23.3516 78.9154 23.1791C78.9154 23.134 78.9095 23.0929 78.9095 23.0478C78.884 22.1893 78.9036 21.5366 78.9506 21.0525C78.9565 20.9918 78.9605 20.9369 78.9703 20.8859C78.9703 20.8859 78.9703 20.884 78.9703 20.88C78.9859 20.7134 79.0055 20.5664 79.031 20.4449C79.0369 20.3998 79.0408 20.3646 79.0506 20.3234C79.0663 20.247 79.08 20.1823 79.0957 20.1215C79.1016 20.0921 79.1114 20.0608 79.1153 20.0353H79.1212C79.1368 19.9686 79.1565 19.9196 79.1721 19.8726C79.1917 19.8177 79.2074 19.7766 79.227 19.7472C79.2427 19.7217 79.2525 19.706 79.2564 19.6923C79.2623 19.6825 79.2623 19.6766 79.2662 19.6766C79.2701 19.6766 79.2721 19.6707 79.2721 19.6707V19.6648C79.1702 19.0984 79.176 18.6888 79.2309 18.336C79.3015 17.8812 79.4583 17.5324 79.5837 17.0776C79.5896 17.0424 79.5994 17.011 79.6092 16.9757C79.6151 16.9463 79.6249 16.9091 79.6288 16.8738C79.6543 16.7778 79.6739 16.6817 79.6896 16.5759C79.7856 15.9585 79.7248 15.1549 79.6543 14.4689C79.6347 14.2611 79.6386 14.0651 79.6602 13.877H79.666C79.7915 13.9122 82.0259 14.5179 82.8393 17.6264C83.1333 18.7436 83.3352 20.4567 83.441 22.3461C83.4567 22.5833 83.4704 22.8263 83.4822 23.0694V23.0752C83.5018 23.479 83.5175 23.8886 83.5273 24.3042V24.31C83.5331 24.4727 83.5331 24.6276 83.537 24.7902C83.5468 25.1999 83.5469 25.6134 83.5469 26.0192H83.5508Z" fill="#E6E1ED"/>
</g>
<g style="mix-blend-mode:multiply" opacity="0.58">
<path d="M93.1431 23.0693V23.0752H93.1372V23.181C93.1274 23.428 93.1274 23.6808 93.1274 23.9298C93.1215 24.4746 93.1215 25.0117 93.0471 25.5017C93.0118 25.7545 92.951 25.9917 92.8707 26.2092C92.8413 26.2857 92.804 26.3562 92.7687 26.4268C92.7276 26.5032 92.6825 26.5738 92.6374 26.6444C92.5865 26.7149 92.5316 26.7757 92.4708 26.8423C91.1067 28.2731 89.7464 32.0324 89.8229 32.8203C89.8229 32.836 89.8287 32.8556 89.8287 32.8713C89.8444 32.9967 89.8542 33.1182 89.8699 33.2456C89.4054 33.2202 89.0604 32.9222 88.9252 32.2245C88.6625 30.8642 88.5214 28.6965 88.5057 26.3817V26.0877C88.5057 25.6781 88.5057 25.2684 88.5155 24.8549C88.5155 24.704 88.5214 24.5511 88.5253 24.406C88.5351 23.9866 88.5508 23.573 88.5704 23.1634C88.5763 22.936 88.5861 22.7087 88.5998 22.4813C88.7057 20.5409 88.9134 18.7769 89.2113 17.6342C90.0502 14.4355 92.3905 13.8848 92.3905 13.8848C92.4101 14.071 92.4159 14.2689 92.3963 14.4767C92.3258 15.1646 92.265 15.9682 92.3611 16.5837C92.3767 16.6895 92.3963 16.7914 92.4218 16.8875C92.4277 16.9228 92.4375 16.958 92.4473 16.9894C92.4532 17.0188 92.463 17.0443 92.4728 17.0756C92.4787 17.105 92.4826 17.1305 92.4924 17.156C92.5218 17.2775 92.559 17.3932 92.5982 17.5049C92.6178 17.5754 92.6433 17.646 92.6649 17.7126C92.6845 17.7832 92.706 17.8498 92.7256 17.9145C92.7511 18.0008 92.7707 18.0811 92.7923 18.1674C92.8021 18.2222 92.8119 18.283 92.8217 18.3438C92.8765 18.6966 92.8824 19.1062 92.7805 19.6726L92.7864 19.6785C92.7962 19.6942 92.8373 19.755 92.8824 19.8804C92.8883 19.8961 92.8922 19.9098 92.8981 19.9255C92.9177 19.9764 92.9393 20.0372 92.9589 20.1117C92.9589 20.1274 92.9647 20.147 92.9687 20.1666C92.9785 20.2116 92.9941 20.2626 93.0039 20.3234C93.0333 20.4743 93.0647 20.6566 93.0902 20.88C93.0961 20.9349 93.1 20.9858 93.1059 21.0466C93.1059 21.0662 93.1117 21.0917 93.1117 21.1132C93.1117 21.1387 93.1176 21.1583 93.1176 21.1799C93.1529 21.6542 93.1725 22.2775 93.147 23.0752L93.1431 23.0693Z" fill="#E6E1ED"/>
</g>
<g style="mix-blend-mode:screen" opacity="0.28">
<path d="M88.6782 17.1323C87.7531 20.1547 87.465 25.3604 87.7139 27.9829C87.8864 29.8273 88.1784 31.1463 88.4313 32.0205C88.5116 32.289 88.5881 32.5164 88.6488 32.6987C88.6645 32.7496 88.6841 32.8006 88.6998 32.8457C88.7253 32.9162 88.7449 33.0025 88.7664 33.0887C88.7762 33.1338 88.786 33.1789 88.7919 33.2298C88.8076 33.3415 88.8115 33.4631 88.8115 33.5944C88.8115 33.6963 88.8056 33.8021 88.7958 33.9119C88.79 33.9883 88.786 34.0589 88.7704 34.1334C88.7762 34.1393 88.7704 34.1491 88.7645 34.153C88.7586 34.2079 88.7488 34.2686 88.739 34.3255C88.7233 34.447 88.6978 34.5685 88.6684 34.6939C88.643 34.79 88.6175 34.8801 88.5881 34.9762C88.4411 35.4623 88.2137 35.9523 87.9001 36.3756C87.0514 37.532 85.752 37.0773 85.1463 36.7343C84.5446 36.3913 83.9488 35.8758 83.6097 34.7782C83.594 34.7273 83.5803 34.6724 83.5685 34.6155C83.5528 34.5293 83.543 34.4391 83.5391 34.3333C83.5293 34.2216 83.5293 34.1001 83.5391 33.9687C83.5391 33.9021 83.545 33.8433 83.5489 33.7767C83.5489 33.7159 83.5548 33.6551 83.5646 33.5944C83.5705 33.4983 83.5803 33.3964 83.594 33.2906C83.6195 33.0828 83.6548 32.8653 83.69 32.634C83.7096 32.5183 83.7312 32.4007 83.7508 32.2812C83.7665 32.1793 83.7861 32.0734 83.8057 31.9676C84.0076 30.8406 84.2702 29.5313 84.3976 28.2279C84.6602 25.4682 84.4035 20.9916 83.8821 18.3279C83.3372 15.5173 82.2651 14.7999 81.7536 14.2394C81.4008 13.8611 80.4404 13.3907 79.868 13.1379C80.0503 12.7027 80.3228 12.3245 80.605 11.9815H80.6109C82.7747 12.5067 83.3608 15.776 84.1389 15.8113C84.9484 15.8407 85.2561 12.542 84.5877 10.9956C83.9213 9.44326 82.9158 8.5201 83.5509 7.33626C85.1071 4.43546 87.8413 5.99758 88.5038 6.99326C89.1604 7.98894 88.5842 8.46914 87.6649 11.0505C86.7496 13.6181 87.463 17.2813 88.1706 15.68C88.8233 14.2041 90.799 12.4244 91.3889 11.9089C91.6574 12.2265 91.9201 12.5753 92.1122 12.9654L92.1376 13.0261C92.1376 13.0261 89.6014 14.112 88.6763 17.1304L88.6782 17.1323Z" fill="#F7F2FF"/>
</g>
<path d="M90.1462 36.3616C90.0561 37.1045 89.1212 37.8316 88.8722 38.5451V38.551C88.8468 38.6176 88.8311 38.6823 88.8213 38.7489C88.7154 39.5074 88.2999 41.0735 86.1576 41.0735H85.895C83.7527 41.0735 83.3372 39.5074 83.2314 38.7489C83.2255 38.698 83.2118 38.6529 83.202 38.6019C83.1961 38.5764 83.1863 38.5608 83.1824 38.551V38.5451C82.9354 37.8316 82.0005 37.1045 81.9084 36.3616C81.8064 35.558 82.0946 34.1331 82.2259 32.865C82.4082 32.6572 82.6963 32.426 83.1314 32.2182C83.3431 32.1163 83.5704 32.0359 83.8037 31.9712C84.8797 31.6576 86.0283 31.6831 86.0283 31.6831C86.0283 31.6831 87.3062 31.6576 88.4293 32.0222C88.6018 32.0771 88.7684 32.1437 88.9252 32.2202C89.3603 32.4279 89.6484 32.6592 89.8307 32.867C89.962 34.1351 90.2501 35.56 90.1482 36.3636L90.1462 36.3616Z" fill="#1E0061"/>
<g style="mix-blend-mode:multiply" opacity="0.58">
<path d="M88.9644 34.627C88.9644 34.627 88.5449 37.0946 87.465 38.547C87.465 38.547 88.7782 37.7492 89.1662 37.0574C89.5524 36.3635 89.4406 35.8794 89.2956 35.46C89.1506 35.0405 88.9663 34.627 88.9663 34.627H88.9644Z" fill="#603C85"/>
</g>
<g style="mix-blend-mode:multiply" opacity="0.58">
<path d="M83.0902 34.627C83.0902 34.627 83.5096 37.0946 84.5896 38.547C84.5896 38.547 83.2764 37.7492 82.8883 37.0574C82.5022 36.3635 82.6139 35.8794 82.7589 35.46C82.904 35.0405 83.0882 34.627 83.0882 34.627H83.0902Z" fill="#603C85"/>
</g>
<g style="mix-blend-mode:multiply" opacity="0.58">
<path d="M82.759 21.7415C82.708 21.6611 82.269 20.9888 80.9342 20.685C79.964 20.4675 79.5857 20.0931 79.2761 19.6639C79.1741 19.0974 79.18 18.6878 79.2349 18.335C79.2349 18.3291 79.2408 18.3291 79.2408 18.3291C79.2408 18.3291 79.1389 19.3757 81.7378 20.3969C82.4356 20.6693 82.7021 21.4024 82.759 21.7415Z" fill="#E6E1ED"/>
</g>
<path opacity="0.8" d="M83.7743 14.8492C83.1922 13.3321 81.6065 12.0189 80.9754 11.5387C81.2792 11.1702 81.536 10.8312 81.6065 10.4921C81.8594 9.3298 82.218 8.43016 82.6277 7.73828C82.4768 8.49092 82.3043 9.81588 82.759 10.5274C84.376 13.0636 83.7743 14.8492 83.7743 14.8492Z" fill="#503E73"/>
<path d="M81.9946 18.5277C81.9946 18.5277 81.8201 18.6119 81.5673 18.6453C81.4712 18.657 81.3595 18.6668 81.2458 18.6668H81.24C80.7833 18.6668 80.2443 18.5198 80.0248 17.8965C79.9973 17.8181 79.9797 17.7162 79.9679 17.6104C79.962 17.5771 79.962 17.5437 79.962 17.5026C79.9562 17.3673 79.9738 17.2204 80.013 17.0812C80.0757 16.844 80.1933 16.6245 80.3678 16.501C80.4187 16.4677 80.4756 16.4442 80.5304 16.4226C80.7049 16.3717 80.9185 16.4011 81.1772 16.5461C81.3399 16.6421 81.4693 16.7539 81.5771 16.8891C81.5986 16.9165 81.6163 16.9401 81.6339 16.9675C81.8417 17.2654 81.9377 17.6202 81.9769 17.9416C82.0044 18.167 82.0044 18.3748 81.9946 18.5277Z" fill="#960F2F"/>
<path d="M81.9771 17.9437C81.8928 18.2984 81.6047 18.5807 81.246 18.6689H81.2401C80.7834 18.6689 80.2444 18.5219 80.0249 17.8986C79.9975 17.8202 79.9798 17.7183 79.9681 17.6124C80.0249 17.1166 80.4522 16.7402 80.9814 16.7402C81.2284 16.7402 81.4538 16.8245 81.6341 16.9715C81.8418 17.2694 81.9379 17.6242 81.9771 17.9456V17.9437Z" fill="#FBFCFA"/>
<path d="M81.5293 18.2737C81.831 17.9722 81.8304 17.4826 81.5281 17.1802C81.2258 16.8778 80.7363 16.8771 80.4346 17.1786C80.133 17.4802 80.1335 17.9697 80.4358 18.2721C80.7381 18.5745 81.2277 18.5752 81.5293 18.2737Z" fill="#95771E"/>
<path d="M81.3977 18.142C81.6266 17.9132 81.6261 17.5415 81.3965 17.3118C81.1669 17.0822 80.7952 17.0815 80.5663 17.3103C80.3374 17.5391 80.338 17.9108 80.5676 18.1405C80.7971 18.3701 81.1688 18.3708 81.3977 18.142Z" fill="#3E1506"/>
<path d="M81.7903 18.1427C81.8633 18.0584 81.8216 17.9028 81.6972 17.7951C81.5728 17.6874 81.4128 17.6684 81.3399 17.7527C81.2669 17.8369 81.3085 17.9926 81.4329 18.1003C81.5573 18.208 81.7173 18.227 81.7903 18.1427Z" fill="white"/>
<path d="M80.6658 17.3576C80.6997 17.3226 80.6944 17.2625 80.6539 17.2234C80.6135 17.1842 80.5532 17.1809 80.5193 17.2159C80.4855 17.2509 80.4908 17.311 80.5313 17.3502C80.5717 17.3893 80.632 17.3926 80.6658 17.3576Z" fill="white"/>
<path d="M82.0672 18.3474C82.0456 18.4493 82.0103 18.5101 81.9947 18.5277C81.9888 18.2298 81.9672 17.683 81.1617 17.2616C80.7167 17.0303 80.3914 17.1499 80.0131 17.0813C79.9955 17.0813 79.9739 17.0813 79.9563 17.0754C79.5447 16.9852 79.3095 16.85 79.2526 16.8167C79.3036 16.8284 79.5055 16.8794 79.6407 16.8794C79.6583 16.8794 79.674 16.8794 79.6917 16.8735C79.7818 16.8676 79.8543 16.8519 79.9327 16.7951C79.9602 16.7775 79.9896 16.7559 80.017 16.7285C80.1248 16.6383 80.3012 16.458 80.5266 16.4129C80.752 16.3678 80.9167 16.4031 81.1773 16.5481C81.34 16.6442 81.4694 16.7559 81.5772 16.8911C81.7791 17.144 82.0162 17.583 82.0789 17.8809C82.1123 18.0671 82.1005 18.2298 82.0672 18.3474Z" fill="#43368F"/>
<path d="M82.0672 18.3472C82.0456 18.4492 82.0103 18.5099 81.9947 18.5276C81.9888 18.2296 81.9672 17.6828 81.1617 17.2614C80.6952 17.0184 80.3561 17.1595 79.9563 17.0752C79.5447 16.985 79.3095 16.8498 79.2526 16.8165C79.3036 16.8282 79.5055 16.8792 79.6407 16.8792C79.7661 16.8792 79.8543 16.8518 79.9327 16.7949C80.0856 16.8459 80.2993 16.9125 80.4502 16.9125C81.0637 16.9008 81.5027 17.0811 81.8751 17.6279C81.9025 17.673 81.9319 17.7122 81.9476 17.7514C82.0887 18.0042 82.0887 18.212 82.0652 18.3472H82.0672Z" fill="#0D0029"/>
<path d="M81.5654 18.647C81.4694 18.6587 81.3577 18.6685 81.244 18.6685H81.2381C80.7814 18.6685 80.2424 18.5215 80.0229 17.8982C79.9955 17.8198 79.9778 17.7179 79.9661 17.6121C79.9602 17.5788 79.9602 17.5454 79.9602 17.5043C79.9661 17.4925 80.0033 17.4063 80.0131 17.4004C80.0131 17.4004 79.9367 17.7591 80.1503 18.1119C80.3444 18.4314 80.7912 18.7156 81.4674 18.5842C81.5772 18.5627 81.5302 18.6293 81.5635 18.647H81.5654Z" fill="#960F2F"/>
<g style="mix-blend-mode:multiply" opacity="0.58">
<path d="M79.8308 17.8555C79.8308 17.8555 79.8994 19.2569 82.0005 19.2843C82.0005 19.2843 81.6987 19.3862 81.4204 19.3745C81.1107 19.3607 79.8583 19.3568 79.8308 17.8574V17.8555Z" fill="#AC9BC4"/>
</g>
<path d="M90.0621 18.5316C90.0621 18.5316 90.2365 18.6159 90.4893 18.6492C90.5854 18.6609 90.6971 18.6707 90.8108 18.6707H90.8167C91.2733 18.6707 91.8123 18.5237 92.0318 17.9005C92.0593 17.8221 92.0769 17.7201 92.0887 17.6143C92.0946 17.581 92.0946 17.5477 92.0946 17.5065C92.1005 17.3713 92.0828 17.2243 92.0436 17.0851C91.9809 16.8479 91.8633 16.6284 91.6888 16.5049C91.6379 16.4716 91.5811 16.4481 91.5262 16.4265C91.3517 16.3756 91.1381 16.405 90.8794 16.55C90.7167 16.6461 90.5873 16.7578 90.4795 16.893C90.458 16.9205 90.4403 16.944 90.4227 16.9714C90.2149 17.2693 90.1189 17.6241 90.0797 17.9455C90.0523 18.1709 90.0523 18.3787 90.0621 18.5316Z" fill="#960F2F"/>
<path d="M90.0797 17.9476C90.1639 18.3023 90.4521 18.5846 90.8107 18.6728H90.8166C91.2733 18.6728 91.8123 18.5258 92.0318 17.9025C92.0592 17.8241 92.0769 17.7222 92.0887 17.6163C92.0318 17.1205 91.6045 16.7441 91.0753 16.7441C90.8284 16.7441 90.603 16.8284 90.4227 16.9754C90.2149 17.2733 90.1189 17.6281 90.0797 17.9495V17.9476Z" fill="#FBFCFA"/>
<path d="M91.6199 18.267C91.9222 17.9646 91.9228 17.4751 91.6211 17.1735C91.3195 16.872 90.8299 16.8727 90.5276 17.1751C90.2253 17.4775 90.2248 17.9671 90.5264 18.2686C90.8281 18.5701 91.3176 18.5694 91.6199 18.267Z" fill="#95771E"/>
<path d="M91.4883 18.1354C91.7179 17.9058 91.7184 17.5341 91.4895 17.3053C91.2606 17.0765 90.8889 17.0771 90.6594 17.3068C90.4298 17.5365 90.4292 17.9082 90.6581 18.137C90.887 18.3658 91.2587 18.3651 91.4883 18.1354Z" fill="#3E1506"/>
<path d="M91.8856 17.9767C91.9586 17.8924 91.9169 17.7368 91.7925 17.629C91.6681 17.5213 91.5081 17.5024 91.4351 17.5866C91.3621 17.6709 91.4038 17.8266 91.5282 17.9343C91.6526 18.042 91.8126 18.061 91.8856 17.9767Z" fill="white"/>
<path d="M91.1603 17.4465C91.1942 17.4115 91.1888 17.3514 91.1484 17.3122C91.1079 17.2731 91.0476 17.2698 91.0138 17.3048C90.9799 17.3398 90.9852 17.3999 91.0257 17.439C91.0662 17.4782 91.1264 17.4815 91.1603 17.4465Z" fill="white"/>
<path d="M89.9895 18.3513C90.0111 18.4532 90.0464 18.514 90.062 18.5316C90.0679 18.2337 90.0895 17.6869 90.895 17.2655C91.34 17.0342 91.6653 17.1538 92.0436 17.0852C92.0612 17.0852 92.0828 17.0852 92.1004 17.0793C92.512 16.9891 92.7472 16.8539 92.8041 16.8206C92.7531 16.8323 92.5512 16.8833 92.416 16.8833C92.3984 16.8833 92.3827 16.8833 92.365 16.8774C92.2749 16.8715 92.2024 16.8558 92.124 16.799C92.0965 16.7814 92.0671 16.7598 92.0397 16.7324C91.9319 16.6422 91.7555 16.4619 91.5301 16.4168C91.3047 16.3717 91.14 16.407 90.8794 16.552C90.7167 16.6481 90.5873 16.7598 90.4795 16.895C90.2776 17.1479 90.0405 17.5869 89.9778 17.8848C89.9444 18.071 89.9562 18.2337 89.9895 18.3513Z" fill="#43368F"/>
<path d="M89.9896 18.3511C90.0111 18.4531 90.0464 18.5138 90.0621 18.5315C90.068 18.2335 90.0895 17.6867 90.8951 17.2653C91.3616 17.0223 91.7006 17.1634 92.1005 17.0791C92.5121 16.9889 92.7473 16.8537 92.8041 16.8204C92.7532 16.8321 92.5513 16.8831 92.416 16.8831C92.2906 16.8831 92.2024 16.8557 92.124 16.7988C91.9711 16.8498 91.7575 16.9164 91.6066 16.9164C90.9931 16.9047 90.554 17.085 90.1816 17.6318C90.1542 17.6769 90.1248 17.7161 90.1091 17.7553C89.968 18.0081 89.968 18.2159 89.9915 18.3511H89.9896Z" fill="#0D0029"/>
<path d="M90.4894 18.6489C90.5854 18.6607 90.6971 18.6705 90.8108 18.6705H90.8167C91.2734 18.6705 91.8124 18.5235 92.0319 17.9002C92.0593 17.8218 92.077 17.7199 92.0887 17.614C92.0946 17.5807 92.0946 17.5474 92.0946 17.5062C92.0887 17.4945 92.0515 17.4082 92.0417 17.4023C92.0417 17.4023 92.1181 17.761 91.9045 18.1138C91.7105 18.4333 91.2636 18.7175 90.5874 18.5862C90.4776 18.5646 90.5247 18.6313 90.4913 18.6489H90.4894Z" fill="#960F2F"/>
<g style="mix-blend-mode:multiply" opacity="0.58">
<path d="M92.1376 17.8555C92.1376 17.8555 92.069 19.2569 89.9679 19.2843C89.9679 19.2843 90.2697 19.3862 90.5481 19.3745C90.8577 19.3607 92.1102 19.3568 92.1376 17.8574V17.8555Z" fill="#AC9BC4"/>
</g>
<g style="mix-blend-mode:multiply" opacity="0.58">
<path d="M89.2977 21.7415C89.3486 21.6611 89.7877 20.9888 91.1224 20.685C92.0926 20.4675 92.4709 20.0931 92.7806 19.6639C92.8825 19.0974 92.8766 18.6878 92.8217 18.335C92.8217 18.3291 92.8159 18.3291 92.8159 18.3291C92.8159 18.3291 92.9178 19.3757 90.3188 20.3969C89.6211 20.6693 89.3545 21.4024 89.2977 21.7415Z" fill="#E6E1ED"/>
</g>
<path opacity="0.8" d="M88.2822 14.8492C88.8643 13.3321 90.45 12.0189 91.0811 11.5387C90.7773 11.1702 90.5205 10.8312 90.45 10.4921C90.1971 9.3298 89.8385 8.43016 89.4288 7.73828C89.5797 8.49092 89.7522 9.81588 89.2975 10.5274C87.6805 13.0636 88.2822 14.8492 88.2822 14.8492Z" fill="#503E73"/>
<g style="mix-blend-mode:screen" opacity="0.28">
<path d="M87.8982 36.3773C87.0495 37.5337 85.75 37.079 85.1444 36.736C84.5427 36.393 83.9468 35.8775 83.6077 34.7799C83.4313 34.2096 83.5823 33.1923 83.8057 31.9693C84.8817 31.6557 86.0303 31.6812 86.0303 31.6812C86.0303 31.6812 87.3082 31.6557 88.4313 32.0202C88.5332 32.3632 88.6293 32.6376 88.7037 32.8434C88.9723 33.5804 88.7488 35.219 87.9001 36.3754L87.8982 36.3773Z" fill="#313969"/>
</g>
<path d="M88.8723 38.5508C88.8468 38.6174 88.8311 38.6821 88.8213 38.7487C88.8115 38.8036 88.8057 38.8605 88.7919 38.9251C88.6449 39.7229 88.1451 41.0733 86.1597 41.0733H85.897C83.8802 41.0733 83.3961 39.6837 83.2589 38.8899C83.2491 38.8389 83.2393 38.7938 83.2334 38.7487C83.2334 38.7291 83.2275 38.7076 83.2236 38.6939C83.2177 38.6645 83.2079 38.6331 83.204 38.6037C83.2138 38.6233 83.2334 38.6547 83.2589 38.6899C83.5313 39.0643 84.623 40.0992 86.0283 40.0992C87.6649 40.0992 88.3333 39.1995 88.8743 38.5527L88.8723 38.5508Z" fill="#1A0054"/>
<path d="M88.8722 38.5508C88.8467 38.6174 87.9137 40.2854 86.0263 40.2442C84.4093 40.207 83.2274 38.7076 83.2215 38.6939C83.2156 38.6645 83.2058 38.6331 83.2019 38.6037L83.2568 38.6899C83.5292 39.0643 84.6209 40.0992 86.0263 40.0992C87.6629 40.0992 88.3312 39.1995 88.8722 38.5527V38.5508Z" fill="#110038"/>
<path d="M87.1847 5.88568L86.5928 8.02404L86.3302 8.96484C86.3243 8.95504 86.3204 8.92956 86.3204 8.8884C86.3008 8.75708 86.2498 8.47484 86.1087 8.15144C86.0734 8.07108 86.0381 7.98876 85.9931 7.9084C85.8715 7.67124 85.7049 7.4282 85.4717 7.21064C85.4717 7.21064 85.4684 7.20868 85.4619 7.20476C85.0072 6.77552 84.6034 6.60892 84.2643 6.56776C83.6371 6.49132 83.253 6.86176 83.253 6.86176C83.1569 6.27964 82.9903 5.71908 82.7826 5.1938C81.9339 3.05544 80.4031 1.54036 80.4031 1.54036C80.5188 1.46392 81.8026 2.03624 81.8026 2.03624C81.8026 2.03624 81.1617 1.33456 81.1362 1.1562L81.2067 1.12092C81.4086 1.21108 82.0201 1.8226 82.0966 1.89904C82.0711 1.803 81.8026 0.813201 81.9496 0.752441C81.9653 0.746561 81.979 0.746561 82.0005 0.758321C82.0064 0.764201 82.0162 0.768121 82.0162 0.768121C82.0319 0.777921 82.0456 0.787721 82.0613 0.803401C82.173 0.899441 82.3298 1.117 82.4709 1.2934C82.5062 1.33848 82.5415 1.38356 82.5768 1.41884C82.6062 1.45412 82.6317 1.4796 82.6532 1.49528C82.663 1.50508 82.6787 1.51488 82.6885 1.52076C82.6983 1.53056 82.7081 1.53644 82.714 1.53644C82.7336 1.55212 82.7493 1.55212 82.7649 1.54624C82.8512 1.51684 82.5983 0.525081 82.6885 0.495681C82.8139 0.454521 82.9472 0.419241 83.0785 0.383961C83.204 0.354561 83.741 1.33456 83.741 1.33456C83.741 1.33456 83.7704 0.227161 83.9272 0.197761C84.0487 0.178161 84.1742 0.156601 84.3016 0.142881H84.3075C84.3075 0.142881 84.3173 0.142881 84.3231 0.148761C84.329 0.154641 84.3329 0.158561 84.3388 0.164441C84.3545 0.174241 84.3682 0.193841 84.3839 0.219321C84.3996 0.238921 84.4133 0.264401 84.4349 0.295761C84.4505 0.321241 84.4643 0.350641 84.4858 0.385921C84.4917 0.391801 84.4917 0.395721 84.4917 0.401601C84.5074 0.427081 84.5211 0.452561 84.5329 0.472161C84.5583 0.532921 84.5877 0.597601 84.6191 0.664241C84.7406 0.922961 84.8406 1.17972 84.8406 1.17972C84.8406 1.17972 84.8406 1.16404 84.8465 1.13464C84.8465 1.11896 84.8465 1.09936 84.8523 1.07976V1.04448C84.8582 0.983721 84.868 0.907281 84.8778 0.826921C84.8837 0.756361 84.8935 0.685801 84.9072 0.609361C84.9131 0.554481 84.9229 0.497641 84.9327 0.446681C84.9327 0.421201 84.9386 0.395721 84.9484 0.370241C84.9641 0.293801 84.9778 0.229121 84.9935 0.178161C85.0131 0.107601 85.0385 0.0566406 85.0699 0.0566406L85.0797 0.0664406H85.0856L85.4247 0.319281L85.6363 0.476081L85.8892 0.658361L86.3792 1.02292L86.4654 1.08368H86.4713L86.5164 1.11308V1.11896C86.5419 1.17384 86.5615 1.2346 86.5771 1.29536C86.5771 1.26988 86.5673 1.21892 86.5575 1.14836L86.83 1.35024L87.1945 5.88764L87.1847 5.88568Z" fill="#DDDCE3"/>
<path d="M88.8234 3.76516C88.8234 5.30572 88.2472 6.84824 87.7631 7.85372C87.4652 8.46524 87.2025 8.8788 87.132 8.96504C86.9458 9.18652 86.4185 9.11596 86.3284 8.96504C86.3225 8.95524 86.3186 8.92976 86.3186 8.8886C86.3088 8.75728 86.3244 8.46916 86.348 8.07912C86.4185 7.00308 86.5596 5.16264 86.4891 3.7632C86.4126 2.35396 85.7619 1.12504 85.3621 0.49784C85.2406 0.29988 85.1445 0.16464 85.0936 0.098C85.0936 0.098 85.0916 0.0947333 85.0877 0.0882C85.0681 0.06272 85.0583 0.05292 85.0583 0.05292C85.0583 0.05292 85.2445 0.03332 85.5228 0.02352C85.5287 0.01764 85.5326 0.01764 85.5385 0.01764H85.5796C85.7012 0.09408 85.8384 0.19404 85.9795 0.32536C86.1304 0.47236 86.2774 0.64876 86.393 0.87024C86.4283 0.931 86.4597 0.99176 86.4832 1.05644C86.4891 1.07212 86.4989 1.09172 86.5028 1.1074V1.11328C86.5283 1.16816 86.5479 1.22892 86.5636 1.28968C86.5636 1.2642 86.5538 1.21324 86.544 1.14268C86.5381 1.1074 86.5283 1.06232 86.5185 1.01724C86.4989 0.91532 86.4734 0.79576 86.4381 0.66836C86.3833 0.4508 86.3009 0.21364 86.1951 0.01568C86.1951 0.0098 86.1892 0.00588 86.1892 0C86.493 0 86.8105 0.0098 87.0986 0.05096C87.1437 0.09212 87.1849 0.13132 87.2202 0.17248C87.2496 0.20188 87.2809 0.23324 87.3064 0.26264C87.3966 0.35868 87.4828 0.46452 87.5651 0.58016C87.7063 0.78792 87.8376 1.0192 87.9179 1.28184C87.9081 1.20148 87.8513 0.8526 87.6749 0.46844C87.62 0.35672 87.5592 0.2352 87.4769 0.12544C87.6435 0.17052 87.7807 0.23128 87.8709 0.31164H87.8768C87.8964 0.32732 87.912 0.34692 87.9316 0.36652C88.1531 0.5684 88.3707 0.83692 88.5432 1.33672C88.7098 1.8424 88.8215 2.58916 88.8215 3.75732L88.8234 3.76516Z" fill="#F6F5FA"/>
<path d="M85.607 5.13373C85.6011 5.94713 85.5364 6.67429 85.46 7.20545C85.0052 6.77621 84.6015 6.60961 84.2624 6.56845C84.2213 5.97261 84.1252 5.28465 83.9488 4.53593C83.9037 4.34385 83.8469 4.14589 83.792 3.94401C83.4529 2.76605 82.6395 1.57437 82.0123 0.764888C82.028 0.774688 82.0417 0.784488 82.0574 0.800168C82.1691 0.896208 82.3259 1.11377 82.4671 1.29017C82.5023 1.33525 82.5376 1.38033 82.5729 1.41561C82.6023 1.45089 82.6278 1.47637 82.6493 1.49205C82.6591 1.50185 82.6748 1.51165 82.6846 1.51753C82.6944 1.52733 82.7042 1.53321 82.7101 1.53321C82.7297 1.54889 82.7454 1.54889 82.7611 1.54301C82.8473 1.51361 82.5944 0.521848 82.6846 0.492448C82.81 0.451288 82.9433 0.416008 83.0747 0.380728C83.2001 0.351328 83.7371 1.33133 83.7371 1.33133C83.7371 1.33133 83.7665 0.223928 83.9233 0.194528C84.0448 0.174928 84.1703 0.153368 84.2977 0.139648H84.3036C84.3643 0.225888 84.4251 0.312128 84.4858 0.398368C84.5015 0.423848 84.5153 0.449328 84.527 0.468928C84.6485 0.651208 84.7485 0.843288 84.8445 1.03929V1.04517C85.4463 2.31917 85.6128 3.83425 85.607 5.13373Z" fill="#110038"/>
<g style="mix-blend-mode:screen" opacity="0.28">
<path d="M82.7726 32.7302C82.5551 33.7612 81.7868 35.929 82.3885 37.3284C82.3532 37.2833 82.3218 37.2382 82.2924 37.1912C82.2317 37.105 82.1768 37.0187 82.1258 36.9325C82.0964 36.8815 82.071 36.8306 82.0455 36.7816C82.0259 36.7365 82.0043 36.6953 81.9906 36.6502C81.9749 36.6091 81.9612 36.5699 81.9494 36.5346C81.9338 36.4797 81.92 36.4229 81.9142 36.3621C81.8887 36.17 81.8887 35.9486 81.9044 35.6957C81.9044 35.6448 81.9102 35.5938 81.9142 35.5448C81.9553 34.8666 82.0906 34.0395 82.1925 33.2398C82.2082 33.1144 82.218 32.9929 82.2336 32.8655V32.8596C82.2336 32.8439 82.2395 32.8302 82.2395 32.8145C82.316 32.0266 80.9557 28.2654 79.5916 26.8365C79.5622 26.8071 79.5308 26.7758 79.5053 26.7405C79.4798 26.7111 79.4504 26.6797 79.4289 26.6444C79.3838 26.5778 79.3387 26.5072 79.3034 26.4367C79.2133 26.2701 79.1408 26.0878 79.0918 25.8957C79.0565 25.7644 79.031 25.6272 79.0055 25.492C78.9702 25.245 78.9546 24.9863 78.9448 24.7236C78.9859 24.8746 79.4152 26.4974 80.648 27.0541C81.9357 27.6303 82.9922 31.6993 82.7766 32.7302H82.7726Z" fill="#F7F2FF"/>
</g>
</svg>
