<svg width="72" height="86" viewBox="0 0 72 86" fill="none" xmlns="http://www.w3.org/2000/svg">
<path d="M67.2821 37.8667C67.2821 65.9503 54.2413 80.624 37.767 81.8878C37.0848 81.9437 35.6755 85.5003 35.6755 85.5003C35.6755 85.5003 34.188 81.9325 33.4611 81.8878C24.044 81.1161 15.7453 75.524 10.3992 65.8385C7.63673 60.8503 5.65712 54.7661 4.71765 47.6977C4.41567 45.4608 4.20318 43.1121 4.12489 40.6852C4.08015 39.7681 4.06897 38.8174 4.06897 37.8667C4.06897 28.1924 7.22292 23.6404 12.3788 21.5378C18.1611 19.1667 26.4486 19.8714 35.6755 19.8714C41.9387 19.8714 47.7657 19.5582 52.6644 20.0727C61.4663 21.0233 67.2821 24.6917 67.2821 37.8556V37.8667Z" fill="#D68742"/>
<g style="mix-blend-mode:multiply" opacity="0.47">
<path d="M67.2822 37.8668C67.2822 65.9503 54.2414 80.624 37.767 81.8878C37.0848 81.9438 35.6756 85.5003 35.6756 85.5003C35.6644 81.6306 37.342 80.5346 37.342 80.5346C64.6203 70.6477 62.4618 44.9911 62.4618 44.9911C62.4618 44.9911 61.5782 46.5234 38.8743 47.7536C14.7388 49.0622 6.60784 43.3918 4.13612 40.674C4.09139 39.7569 4.0802 38.8063 4.0802 37.8556C4.0802 28.1813 7.23415 23.6293 12.3901 21.5267L32.4993 21.8398L52.6756 20.0615C61.4776 21.0122 67.2934 24.6806 67.2934 37.8444L67.2822 37.8668Z" fill="#E3E3E3"/>
</g>
<path d="M71.1519 30.0828C71.1519 37.3749 65.4592 41.2894 56.6796 43.2466C50.8079 44.5663 43.5269 45.0025 35.6756 45.0025C26.5829 45.0025 18.273 44.4097 12.0098 42.5644C11.9092 42.5196 11.8085 42.4972 11.7079 42.4637C9.53812 41.8038 7.62563 40.9762 6.00391 39.9696C5.88089 39.9025 5.76905 39.8354 5.64602 39.7459C3.94602 38.6275 2.59274 37.3078 1.67563 35.7308C1.60853 35.6078 1.54142 35.4847 1.4855 35.3617C1.40721 35.2387 1.32892 35.1157 1.28418 34.9926C1.273 34.9703 1.26181 34.9255 1.23944 34.892C0.579574 33.4716 0.22168 31.8834 0.22168 30.0604C0.22168 29.7137 0.232865 29.3782 0.266418 29.0315C0.266418 28.9643 0.2776 28.9084 0.2776 28.8525C0.288784 28.6065 0.322336 28.3604 0.355889 28.1144C0.378257 27.9354 0.41181 27.7565 0.434178 27.5775C0.83681 25.3519 1.74273 23.2045 3.10721 21.169C3.11839 21.1466 3.12957 21.113 3.16312 21.0907C3.23023 20.9676 3.33089 20.8558 3.40918 20.744C4.5947 19.0216 6.10458 17.4334 7.89405 15.9459H7.90524C7.98353 15.8676 8.06181 15.8117 8.1401 15.7446H8.15129C11.1039 13.3288 14.7723 11.2933 18.9329 9.77225C18.9776 9.76106 19.0112 9.74988 19.0335 9.72751C21.494 8.83277 24.1335 8.15053 26.9184 7.64725C29.7256 7.15514 32.6671 6.88672 35.698 6.88672C55.2816 6.88672 71.1743 17.8808 71.1743 30.0604L71.1519 30.0828Z" fill="#A1681B"/>
<g style="mix-blend-mode:multiply" opacity="0.47">
<path d="M71.152 30.0829C71.152 37.375 65.4592 41.2894 56.6796 43.2467C56.6796 43.2467 64.0612 33.3598 60.2809 23.4394C56.5118 13.519 37.1184 10.0184 37.1184 10.0184L34.2329 9.83944C33.5283 9.12365 29.871 8.26247 26.9072 7.66971C29.7145 7.1776 32.6559 6.90918 35.6868 6.90918C55.2704 6.90918 71.1631 17.9033 71.1631 30.0829H71.152Z" fill="#D6DFFF"/>
</g>
<path d="M38.5276 3.17327C38.2816 4.67195 37.8118 6.86406 37.4875 8.36274C37.4204 8.66471 37.3645 8.94432 37.2974 9.17919C37.1967 9.66011 37.1296 9.97327 37.1296 10.018C37.1296 10.0292 37.1184 10.0292 37.1184 10.0292C34.9039 10.8009 33.2039 10.0292 33.2039 10.0292C33.2039 10.0292 33.1928 10.018 33.1928 9.97327C33.1704 9.89498 33.1145 9.69366 33.025 9.42524C33.0138 9.40287 33.0138 9.36932 33.0026 9.32458C32.8461 8.86603 32.6559 8.22853 32.4546 7.51274C32.4434 7.50156 32.4434 7.49037 32.4434 7.49037C31.9849 5.95813 31.4704 4.09037 31.2243 2.87129C31.2132 2.84892 31.2132 2.82656 31.2132 2.80419C31.0901 2.21142 31.0454 1.78642 31.1013 1.62985C31.1125 1.57392 31.1461 1.52919 31.1796 1.49563C31.6941 0.79103 33.9757 0.522609 35.0493 0.522609C37.2862 0.511424 38.5053 1.13774 38.7401 1.54037V1.56274C38.7849 1.71932 38.5724 3.11735 38.5612 3.18445L38.5276 3.17327Z" fill="#8C5B18"/>
<path d="M21.7849 33.0917C21.5612 32.7114 19.5928 32.3759 18.9106 32.0963C18.0941 31.8055 17.2777 31.5371 16.4388 31.2575C17.0987 29.6917 17.8816 28.2042 18.7652 26.7614C21.2257 27.891 23.9658 28.4502 26.6724 28.3831C26.4375 27.9805 24.5027 27.7233 23.7981 27.4325C22.2994 26.9516 20.8007 26.4371 19.3244 25.8555C20.5211 23.9877 21.852 22.1871 23.2165 20.4312C21.6059 21.8739 20.2862 23.7641 19.0448 25.7549C17.5125 25.1397 16.0362 24.4016 14.627 23.5404C16.6737 21.4825 18.9888 19.6483 21.1586 17.6687C18.4185 18.5075 16.0474 20.8002 14.1461 23.1825L14.1349 23.2049C12.7145 22.0529 11.5625 20.6549 10.5 19.1897C12.6698 17.4338 14.9402 15.8456 17.3112 14.347C17.4454 14.2463 17.5908 14.1568 17.7362 14.0562C17.781 14.045 17.8145 14.0114 17.8592 13.9891C17.8816 13.9779 17.904 13.9667 17.904 13.9667C18.2395 13.7766 18.5638 13.5529 18.9106 13.3516C15.6336 13.8772 12.5803 16.2371 10.1869 18.7535H10.1757C9.50464 17.7358 8.8224 16.7292 8.14016 15.7226H8.12898C8.05069 15.8009 7.9724 15.8568 7.89411 15.9239C8.12898 17.0983 8.81121 18.3174 9.59411 19.4022C9.48227 19.5141 9.37043 19.6371 9.25859 19.7489C7.89411 21.0687 6.64148 22.5226 5.54543 24.066C5.54543 24.066 5.53424 24.0549 5.52306 24.0437C4.76253 23.0035 4.06911 21.8851 3.38688 20.7443C3.30859 20.8562 3.20793 20.968 3.14082 21.091C3.11845 21.1134 3.09608 21.147 3.0849 21.1693C3.37569 22.4667 4.11384 23.7193 5.04213 24.8266C3.92371 26.5042 3.0178 28.2937 2.34674 30.1726C1.68687 29.3226 1.04937 28.4726 0.423058 27.5779C0.400689 27.7568 0.367137 27.9358 0.344769 28.1147C0.300032 28.3608 0.277664 28.6068 0.266479 28.8529C0.758585 29.6246 1.3849 30.3516 2.06714 31.0226C1.87701 31.6377 1.72043 32.2752 1.58622 32.9239L1.39608 34.0088C1.34016 34.3443 1.29542 34.6575 1.27306 34.9818C1.32898 35.1049 1.39608 35.2279 1.47437 35.3509C1.53029 35.4739 1.5974 35.597 1.66451 35.72C2.03358 34.4002 2.4474 33.0917 2.88358 31.8055C4.08029 32.8792 5.37766 33.8522 6.49608 34.8141C6.57437 34.8812 6.66385 34.9371 6.74214 35.0042C6.2053 36.5364 5.82503 38.1022 5.62372 39.7351C5.74674 39.8134 5.85859 39.8917 5.98161 39.9588C6.50727 38.5049 7.02175 37.0621 7.59214 35.6417C9.13556 36.7154 10.8691 37.4983 12.681 38.0127C12.2224 39.4555 11.8645 40.943 11.6856 42.4529C11.7862 42.4753 11.8869 42.5088 11.9875 42.5535C12.5803 41.122 13.1171 39.7016 13.6652 38.2812C15.0408 38.572 16.4277 38.7174 17.8369 38.695C17.602 38.2924 15.6671 38.0351 14.9737 37.722C14.6606 37.6101 14.3362 37.4983 14.0119 37.3864C14.6717 35.6864 15.3316 33.9641 16.025 32.2417C17.8704 32.8233 19.7941 33.1252 21.7737 33.0805L21.7849 33.0917ZM10.6007 20.6549C11.4954 21.5384 12.7704 22.5338 13.9112 23.4845C13.5981 23.8871 13.2737 24.3009 12.9941 24.7035C11.954 25.9114 10.9586 27.2088 10.0527 28.5397C10.0527 28.5397 10.0415 28.5397 10.0303 28.5285C9.37042 28.1259 8.72174 27.6897 8.11779 27.1752C7.39082 26.4035 6.6974 25.5759 6.0599 24.7259C7.03293 23.0371 8.16253 21.4377 9.527 19.9838C9.63885 19.9055 9.75069 19.816 9.86253 19.7266C10.1086 20.0621 10.377 20.3641 10.6231 20.6437L10.6007 20.6549ZM6.94345 34.4226C6.94345 34.4226 6.89871 34.4114 6.87634 34.4002C6.82042 34.3779 6.75332 34.3331 6.67503 34.2772C6.61911 34.2549 6.56319 34.2213 6.50727 34.1766C6.08227 33.9193 5.66845 33.6285 5.26582 33.3377C4.96385 33.1141 4.67306 32.8792 4.40463 32.6331C3.96845 32.1522 3.54345 31.6601 3.12963 31.1568C3.84542 29.1884 4.66188 27.2759 5.6349 25.4752C6.35069 26.2134 7.13358 26.8956 7.91648 27.4437C8.50924 27.9917 9.13556 28.5062 9.78425 28.9871C8.65464 30.7095 7.68161 32.5213 6.96582 34.4338C6.96582 34.4338 6.95463 34.4338 6.95463 34.4226H6.94345ZM13.0165 37.0397C11.2717 36.4358 9.53819 35.7871 7.88292 34.9371C8.64345 33.0805 9.44872 31.2687 10.3882 29.4792C10.3994 29.4568 10.3994 29.4345 10.3994 29.4345C11.9428 30.5081 13.5869 31.3693 15.3316 32.0068C14.4257 33.6174 13.6316 35.3062 13.0053 37.0397H13.0165ZM10.6678 28.92C11.1375 28.0588 11.6296 27.1864 12.1665 26.3476C12.8263 25.4529 13.5645 24.6252 14.3362 23.8312C14.6494 24.0884 14.9737 24.3568 15.2421 24.6029C16.2487 25.4193 17.3448 26.0904 18.4967 26.6384C17.602 28.1371 16.7408 29.647 15.8573 31.0674C14.0678 30.4634 12.2895 29.8147 10.6566 28.92H10.6678Z" fill="#8C5812"/>
<g style="mix-blend-mode:multiply" opacity="0.47">
<path d="M38.5276 3.17285C38.2815 4.67154 37.8118 6.86364 37.4874 8.36233C37.4203 8.6643 37.3644 8.9439 37.2973 9.17877C37.1966 9.65969 37.1295 9.97285 37.1295 10.0176C37.1295 10.0288 37.1184 10.0288 37.1184 10.0288C34.9039 10.8005 33.2039 10.0288 33.2039 10.0288C33.2039 10.0288 33.1927 10.0176 33.1927 9.97285C33.1703 9.89456 33.1144 9.69325 33.0249 9.42483C33.0138 9.40246 33.0137 9.3689 33.0026 9.32417C34.2105 9.99522 36.2348 9.42483 36.7828 8.79851C37.2638 8.25048 38.1138 4.92877 38.5388 3.17285H38.5276Z" fill="#D6DFFF"/>
</g>
<path d="M38.7066 1.5291V1.55146C37.9796 1.21594 36.9842 1.55146 33.875 1.75278C32.2645 1.85344 31.5039 1.69686 31.1572 1.47317C31.6717 0.768569 33.9533 0.500148 35.027 0.500148C37.2638 0.488964 38.4829 1.11528 38.7177 1.51791L38.7066 1.5291Z" fill="#B59147"/>
<g style="mix-blend-mode:soft-light" opacity="0.36">
<path d="M18.9217 9.77246C17.904 10.2869 10.623 14.0001 10.1868 18.7534H10.1757C9.50461 17.7356 8.82237 16.729 8.14014 15.7225C11.0928 13.3179 14.7612 11.2823 18.9217 9.77246Z" fill="#FFFBB5"/>
</g>
<g style="mix-blend-mode:soft-light" opacity="0.36">
<path d="M5.55649 24.0768C5.55649 24.0768 5.54531 24.0656 5.53413 24.0544C4.7736 23.0143 4.08019 21.8958 3.39795 20.7551C4.58348 19.0327 6.09334 17.4445 7.88281 15.957C7.6815 16.2702 4.85189 20.6208 5.55649 24.088V24.0768Z" fill="#FFFBB5"/>
</g>
<g style="mix-blend-mode:soft-light" opacity="0.36">
<path d="M2.34666 30.183C1.68679 29.333 1.04929 28.483 0.422974 27.5882C0.825605 25.3626 1.73153 23.2152 3.096 21.1797C1.89929 24.4007 2.35785 30.183 2.35785 30.183H2.34666Z" fill="#FFFBB5"/>
</g>
<g style="mix-blend-mode:soft-light" opacity="0.36">
<path d="M6.94346 34.4215C6.94346 34.4215 6.89872 34.4104 6.87635 34.3992C6.82043 34.3768 6.75332 34.3321 6.67503 34.2761C5.88095 33.7952 5.12043 33.2584 4.40464 32.6432C3.96845 32.1623 3.54345 31.6702 3.12964 31.1669C3.84543 29.1985 4.66188 27.286 5.63491 25.4854C5.63491 25.4854 3.97964 31.29 6.95464 34.4215H6.94346Z" fill="#FFFBB5"/>
</g>
<g style="mix-blend-mode:soft-light" opacity="0.36">
<path d="M6.95451 34.4324C6.95451 34.4324 6.93214 34.4212 6.87622 34.3877C6.89859 34.3989 6.93215 34.4101 6.94333 34.4101H6.95451V34.4324Z" fill="#FFFBB5"/>
</g>
<g style="mix-blend-mode:soft-light" opacity="0.36">
<path d="M10.0302 28.5393C9.37034 28.1366 8.72165 27.7005 8.11771 27.186C7.39073 26.4143 6.69731 25.5866 6.05981 24.7366C7.03284 23.0478 8.16244 21.4485 9.52692 19.9945C9.63876 19.9163 9.75061 19.8268 9.86245 19.7373C6.27232 24.636 9.6835 28.1814 10.0414 28.5393H10.0302Z" fill="#FFFBB5"/>
</g>
<g style="mix-blend-mode:soft-light" opacity="0.36">
<path d="M14.1572 23.1812L14.146 23.2036C12.7256 22.0516 11.5736 20.6536 10.5111 19.1885C12.6808 17.4325 14.9512 15.8444 17.3223 14.3457C13.7993 16.9628 14.0677 22.0852 14.1572 23.1812Z" fill="#FFFBB5"/>
</g>
<g style="mix-blend-mode:soft-light" opacity="0.36">
<path d="M1.58623 32.9351L1.39609 34.0199L1.22833 34.9035C0.568466 33.4831 0.210571 31.8949 0.210571 30.0719C0.210571 29.7252 0.221752 29.3897 0.255305 29.043C0.277673 29.3002 0.568465 32.2081 1.58623 32.9351Z" fill="#FFFBB5"/>
</g>
<g style="mix-blend-mode:soft-light" opacity="0.36">
<path d="M5.63495 39.7568C3.93495 38.6383 2.58166 37.3186 1.66455 35.7416C2.03363 34.4219 2.44744 33.1133 2.88363 31.8271C2.88363 31.8271 2.92837 37.3186 5.63495 39.7679V39.7568Z" fill="#FFFBB5"/>
</g>
<g style="mix-blend-mode:soft-light" opacity="0.36">
<path d="M13.0165 37.039C11.2718 36.4351 9.5382 35.7864 7.88293 34.9364C8.64346 33.0798 9.44873 31.268 10.3882 29.4785C10.2875 29.9483 9.35925 34.7686 13.0165 37.039Z" fill="#FFFBB5"/>
</g>
<g style="mix-blend-mode:soft-light" opacity="0.36">
<path d="M20.5882 71.4759C16.2934 71.0956 12.9382 68.8364 10.3994 65.839C7.63685 60.8509 5.65725 54.7667 4.71777 47.6982C4.77369 47.743 4.81844 47.7765 4.87436 47.8213C8.9566 51.7022 10.6007 53.6259 18.5191 55.3259C22.9369 56.2765 31.2244 54.4647 37.1744 53.693C53.8053 51.5009 38.0691 73.0305 20.5994 71.4759H20.5882Z" fill="#EDA8A8"/>
</g>
</svg>
